tick,type,numerator,denominator,clocks_per_click,notated_32nd_notes_per_beat,time,meta,track,key,tempo,port,program,channel,control,value,pitch,note,velocity
0,time_signature,4,4,24,8,0,1,0,,,,,,,,,,
0,track_name,,,,,0,1,2,,,,,,,,,,
0,program_change,,,,,0,0,2,,,,0,1,,,,,
0,control_change,,,,,0,0,2,,,,,1,7,118,,,
0,control_change,,,,,0,0,2,,,,,1,10,52,,,
0,midi_port,,,,,0,1,3,,,0,,,,,,,
0,end_of_track,,,,,0,1,3,,,,,,,,,,
0,midi_port,,,,,0,1,4,,,0,,,,,,,
0,midi_port,,,,,0,1,2,,,0,,,,,,,
0,track_name,,,,,0,1,4,,,,,,,,,,
0,midi_port,,,,,0,1,5,,,0,,,,,,,
0,track_name,,,,,0,1,5,,,,,,,,,,
0,end_of_track,,,,,0,1,5,,,,,,,,,,
0,midi_port,,,,,0,1,6,,,0,,,,,,,
0,track_name,,,,,0,1,6,,,,,,,,,,
0,end_of_track,,,,,0,1,6,,,,,,,,,,
0,midi_port,,,,,0,1,7,,,0,,,,,,,
0,end_of_track,,,,,0,1,4,,,,,,,,,,
0,track_name,,,,,0,1,7,,,,,,,,,,
0,end_of_track,,,,,0,1,7,,,,,,,,,,
0,program_change,,,,,0,0,1,,,,0,0,,,,,
0,marker,,,,,0,1,0,,,,,,,,,,
0,end_of_track,,,,,0,1,0,,,,,,,,,,
0,midi_port,,,,,0,1,1,,,0,,,,,,,
0,track_name,,,,,0,1,1,,,,,,,,,,
0,control_change,,,,,0,0,1,,,,,0,7,127,,,
0,control_change,,,,,0,0,1,,,,,0,10,72,,,
0,set_tempo,,,,,0,1,0,,631579,,,,,,,,
0,key_signature,,,,,0,1,0,G,,,,,,,,,
27,control_change,,,,,27,0,1,,,,,0,121,0,,,
53,control_change,,,,,53,0,2,,,,,1,121,0,,,
80,control_change,,,,,53,0,1,,,,,0,64,0,,,
107,control_change,,,,,54,0,2,,,,,1,64,0,,,
133,control_change,,,,,53,0,1,,,,,0,1,0,,,
160,control_change,,,,,53,0,2,,,,,1,1,0,,,
187,pitchwheel,,,,,54,0,1,,,,,0,,,0,,
213,pitchwheel,,,,,53,0,2,,,,,1,,,0,,
240,control_change,,,,,53,0,1,,,,,0,91,70,,,
267,control_change,,,,,54,0,2,,,,,1,91,70,,,
293,control_change,,,,,53,0,1,,,,,0,93,20,,,
320,control_change,,,,,53,0,2,,,,,1,93,20,,,
420,note_on,,,,,127,0,1,,,,,0,,,,67,100
480,note_on,,,,,0,0,1,,,,,0,,,,67,100
480,note_on,,,,,0,0,1,,,,,0,,,,62,100
480,note_on,,,,,60,0,1,,,,,0,,,,67,0
480,note_on,,,,,160,0,2,,,,,1,,,,55,100
480,note_on,,,,,0,0,1,,,,,0,,,,59,100
540,note_on,,,,,60,0,2,,,,,1,,,,55,0
540,note_on,,,,,0,0,2,,,,,1,,,,50,100
600,note_on,,,,,0,0,2,,,,,1,,,,43,100
600,note_on,,,,,120,0,1,,,,,0,,,,67,0
600,note_on,,,,,0,0,1,,,,,0,,,,59,0
600,note_on,,,,,0,0,1,,,,,0,,,,62,0
600,note_on,,,,,60,0,2,,,,,1,,,,50,0
645,note_on,,,,,45,0,1,,,,,0,,,,67,100
660,note_on,,,,,0,0,1,,,,,0,,,,69,100
660,note_on,,,,,15,0,1,,,,,0,,,,67,0
660,note_on,,,,,0,0,2,,,,,1,,,,55,100
660,note_on,,,,,60,0,2,,,,,1,,,,43,0
705,note_on,,,,,0,0,1,,,,,0,,,,71,100
705,note_on,,,,,45,0,1,,,,,0,,,,69,0
720,note_on,,,,,60,0,2,,,,,1,,,,55,0
720,note_on,,,,,0,0,1,,,,,0,,,,69,100
720,note_on,,,,,15,0,1,,,,,0,,,,71,0
720,note_on,,,,,0,0,2,,,,,1,,,,57,100
720,note_on,,,,,0,0,2,,,,,1,,,,54,100
780,note_on,,,,,0,0,1,,,,,0,,,,62,100
780,note_on,,,,,60,0,1,,,,,0,,,,69,0
840,note_on,,,,,0,0,2,,,,,1,,,,50,100
840,note_on,,,,,60,0,1,,,,,0,,,,62,0
840,note_on,,,,,120,0,2,,,,,1,,,,54,0
885,note_on,,,,,45,0,1,,,,,0,,,,72,100
900,note_on,,,,,15,0,1,,,,,0,,,,72,0
900,note_on,,,,,0,0,1,,,,,0,,,,71,100
945,note_on,,,,,45,0,1,,,,,0,,,,71,0
945,note_on,,,,,0,0,1,,,,,0,,,,69,100
960,note_on,,,,,0,0,1,,,,,0,,,,71,100
960,note_on,,,,,0,0,2,,,,,1,,,,57,0
960,note_on,,,,,0,0,2,,,,,1,,,,55,100
960,note_on,,,,,15,0,1,,,,,0,,,,69,0
960,note_on,,,,,120,0,2,,,,,1,,,,50,0
1005,note_on,,,,,45,0,1,,,,,0,,,,71,0
1005,note_on,,,,,0,0,1,,,,,0,,,,69,100
1020,note_on,,,,,60,0,2,,,,,1,,,,55,0
1020,note_on,,,,,0,0,2,,,,,1,,,,50,100
1020,note_on,,,,,15,0,1,,,,,0,,,,69,0
1020,note_on,,,,,0,0,1,,,,,0,,,,71,100
1065,note_on,,,,,0,0,1,,,,,0,,,,72,100
1065,note_on,,,,,45,0,1,,,,,0,,,,71,0
1080,note_on,,,,,0,0,1,,,,,0,,,,71,100
1080,note_on,,,,,60,0,2,,,,,1,,,,50,0
1080,note_on,,,,,15,0,1,,,,,0,,,,72,0
1080,note_on,,,,,0,0,2,,,,,1,,,,43,100
1125,note_on,,,,,45,0,1,,,,,0,,,,71,0
1125,note_on,,,,,0,0,1,,,,,0,,,,74,100
1140,note_on,,,,,0,0,2,,,,,1,,,,55,100
1140,note_on,,,,,0,0,1,,,,,0,,,,72,100
1140,note_on,,,,,15,0,1,,,,,0,,,,74,0
1140,note_on,,,,,60,0,2,,,,,1,,,,43,0
1185,note_on,,,,,0,0,1,,,,,0,,,,71,100
1185,note_on,,,,,45,0,1,,,,,0,,,,72,0
1200,note_on,,,,,60,0,2,,,,,1,,,,55,0
1200,note_on,,,,,0,0,2,,,,,1,,,,50,100
1200,note_on,,,,,0,0,1,,,,,0,,,,69,100
1200,note_on,,,,,15,0,1,,,,,0,,,,71,0
1215,note_on,,,,,0,0,1,,,,,0,,,,71,100
1215,note_on,,,,,15,0,1,,,,,0,,,,69,0
1230,note_on,,,,,0,0,1,,,,,0,,,,69,100
1230,note_on,,,,,15,0,1,,,,,0,,,,71,0
1245,note_on,,,,,0,0,1,,,,,0,,,,71,100
1245,note_on,,,,,15,0,1,,,,,0,,,,69,0
1260,note_on,,,,,0,0,2,,,,,1,,,,45,100
1260,note_on,,,,,60,0,2,,,,,1,,,,50,0
1260,note_on,,,,,15,0,1,,,,,0,,,,71,0
1260,note_on,,,,,0,0,1,,,,,0,,,,69,100
1275,note_on,,,,,15,0,1,,,,,0,,,,69,0
1275,note_on,,,,,0,0,1,,,,,0,,,,71,100
1290,note_on,,,,,15,0,1,,,,,0,,,,71,0
1290,note_on,,,,,0,0,1,,,,,0,,,,69,100
1305,note_on,,,,,15,0,1,,,,,0,,,,69,0
1305,note_on,,,,,0,0,1,,,,,0,,,,71,100
1320,note_on,,,,,60,0,2,,,,,1,,,,45,0
1320,note_on,,,,,0,0,2,,,,,1,,,,38,100
1330,note_on,,,,,25,0,1,,,,,0,,,,71,0
1350,note_on,,,,,20,0,1,,,,,0,,,,74,100
1380,note_on,,,,,30,0,1,,,,,0,,,,74,0
1380,note_on,,,,,0,0,1,,,,,0,,,,76,100
1380,note_on,,,,,0,0,2,,,,,1,,,,50,100
1380,note_on,,,,,60,0,2,,,,,1,,,,38,0
1425,note_on,,,,,45,0,1,,,,,0,,,,76,0
1425,note_on,,,,,0,0,1,,,,,0,,,,78,100
1440,note_on,,,,,60,0,2,,,,,1,,,,50,0
1440,note_on,,,,,0,0,1,,,,,0,,,,79,100
1440,note_on,,,,,15,0,1,,,,,0,,,,78,0
1440,note_on,,,,,0,0,2,,,,,1,,,,50,100
1440,note_on,,,,,0,0,2,,,,,1,,,,47,100
1500,note_on,,,,,60,0,1,,,,,0,,,,79,0
1500,note_on,,,,,0,0,1,,,,,0,,,,74,100
1560,note_on,,,,,60,0,1,,,,,0,,,,74,0
1560,note_on,,,,,0,0,1,,,,,0,,,,71,100
1560,note_on,,,,,0,0,2,,,,,1,,,,55,100
1560,note_on,,,,,120,0,2,,,,,1,,,,50,0
1605,note_on,,,,,45,0,1,,,,,0,,,,71,0
1605,note_on,,,,,0,0,1,,,,,0,,,,79,100
1620,note_on,,,,,0,0,1,,,,,0,,,,77,100
1620,note_on,,,,,15,0,1,,,,,0,,,,79,0
1665,note_on,,,,,0,0,1,,,,,0,,,,79,100
1665,note_on,,,,,45,0,1,,,,,0,,,,77,0
1680,note_on,,,,,120,0,2,,,,,1,,,,55,0
1680,note_on,,,,,0,0,2,,,,,1,,,,47,0
1680,note_on,,,,,0,0,2,,,,,1,,,,48,100
1680,note_on,,,,,0,0,1,,,,,0,,,,76,100
1680,note_on,,,,,15,0,1,,,,,0,,,,79,0
1695,note_on,,,,,15,0,1,,,,,0,,,,76,0
1695,note_on,,,,,0,0,1,,,,,0,,,,77,100
1710,note_on,,,,,15,0,1,,,,,0,,,,77,0
1710,note_on,,,,,0,0,1,,,,,0,,,,76,100
1725,note_on,,,,,0,0,1,,,,,0,,,,77,100
1725,note_on,,,,,15,0,1,,,,,0,,,,76,0
1739,note_on,,,,,59,0,2,,,,,1,,,,48,0
1740,note_on,,,,,0,0,1,,,,,0,,,,76,100
1740,note_on,,,,,15,0,1,,,,,0,,,,77,0
1740,note_on,,,,,1,0,2,,,,,1,,,,43,100
1755,note_on,,,,,0,0,1,,,,,0,,,,77,100
1755,note_on,,,,,15,0,1,,,,,0,,,,76,0
1770,note_on,,,,,0,0,1,,,,,0,,,,76,100
1770,note_on,,,,,15,0,1,,,,,0,,,,77,0
1785,note_on,,,,,15,0,1,,,,,0,,,,76,0
1785,note_on,,,,,0,0,1,,,,,0,,,,77,100
1799,note_on,,,,,59,0,2,,,,,1,,,,43,0
1800,note_on,,,,,1,0,2,,,,,1,,,,36,100
1800,note_on,,,,,15,0,1,,,,,0,,,,77,0
1800,note_on,,,,,0,0,1,,,,,0,,,,76,100
1815,note_on,,,,,15,0,1,,,,,0,,,,76,0
1830,note_on,,,,,15,0,1,,,,,0,,,,76,100
1859,note_on,,,,,59,0,2,,,,,1,,,,36,0
1860,note_on,,,,,1,0,2,,,,,1,,,,48,100
1860,note_on,,,,,0,0,1,,,,,0,,,,78,100
1860,note_on,,,,,30,0,1,,,,,0,,,,76,0
1905,note_on,,,,,45,0,1,,,,,0,,,,78,0
1905,note_on,,,,,0,0,1,,,,,0,,,,79,100
1919,note_on,,,,,59,0,2,,,,,1,,,,48,0
1920,note_on,,,,,0,0,2,,,,,1,,,,49,100
1920,note_on,,,,,1,0,2,,,,,1,,,,52,100
1920,note_on,,,,,15,0,1,,,,,0,,,,79,0
1920,note_on,,,,,0,0,1,,,,,0,,,,81,100
1980,note_on,,,,,60,0,1,,,,,0,,,,81,0
1980,note_on,,,,,0,0,1,,,,,0,,,,76,100
2040,note_on,,,,,0,0,2,,,,,1,,,,57,100
2040,note_on,,,,,60,0,1,,,,,0,,,,76,0
2040,note_on,,,,,0,0,1,,,,,0,,,,73,100
2040,note_on,,,,,120,0,2,,,,,1,,,,52,0
2085,note_on,,,,,45,0,1,,,,,0,,,,73,0
2085,note_on,,,,,0,0,1,,,,,0,,,,81,100
2100,note_on,,,,,15,0,1,,,,,0,,,,81,0
2100,note_on,,,,,0,0,1,,,,,0,,,,79,100
2145,note_on,,,,,45,0,1,,,,,0,,,,79,0
2145,note_on,,,,,0,0,1,,,,,0,,,,81,100
2160,note_on,,,,,15,0,1,,,,,0,,,,81,0
2160,note_on,,,,,0,0,2,,,,,1,,,,49,0
2160,note_on,,,,,120,0,2,,,,,1,,,,57,0
2160,note_on,,,,,0,0,2,,,,,1,,,,50,100
2160,note_on,,,,,0,0,1,,,,,0,,,,78,100
2175,note_on,,,,,0,0,1,,,,,0,,,,79,100
2175,note_on,,,,,15,0,1,,,,,0,,,,78,0
2190,note_on,,,,,15,0,1,,,,,0,,,,79,0
2190,note_on,,,,,0,0,1,,,,,0,,,,78,100
2205,note_on,,,,,15,0,1,,,,,0,,,,78,0
2205,note_on,,,,,0,0,1,,,,,0,,,,79,100
2220,note_on,,,,,15,0,1,,,,,0,,,,79,0
2220,note_on,,,,,0,0,1,,,,,0,,,,78,100
2220,note_on,,,,,0,0,2,,,,,1,,,,45,100
2220,note_on,,,,,60,0,2,,,,,1,,,,50,0
2235,note_on,,,,,0,0,1,,,,,0,,,,79,100
2235,note_on,,,,,15,0,1,,,,,0,,,,78,0
2250,note_on,,,,,15,0,1,,,,,0,,,,79,0
2250,note_on,,,,,0,0,1,,,,,0,,,,78,100
2280,note_on,,,,,60,0,2,,,,,1,,,,45,0
2280,note_on,,,,,0,0,2,,,,,1,,,,38,100
2310,note_on,,,,,60,0,1,,,,,0,,,,78,0
2310,note_on,,,,,0,0,1,,,,,0,,,,69,100
2340,note_on,,,,,60,0,2,,,,,1,,,,38,0
2340,note_on,,,,,0,0,2,,,,,1,,,,50,100
2340,note_on,,,,,30,0,1,,,,,0,,,,69,0
2340,note_on,,,,,0,0,1,,,,,0,,,,71,100
2385,note_on,,,,,45,0,1,,,,,0,,,,71,0
2385,note_on,,,,,0,0,1,,,,,0,,,,72,100
2400,note_on,,,,,15,0,1,,,,,0,,,,72,0
2400,note_on,,,,,0,0,1,,,,,0,,,,71,100
2400,note_on,,,,,60,0,2,,,,,1,,,,50,0
2400,note_on,,,,,0,0,2,,,,,1,,,,55,100
2445,note_on,,,,,0,0,1,,,,,0,,,,74,100
2445,note_on,,,,,45,0,1,,,,,0,,,,71,0
2460,note_on,,,,,0,0,1,,,,,0,,,,72,100
2460,note_on,,,,,0,0,2,,,,,1,,,,43,100
2460,note_on,,,,,60,0,2,,,,,1,,,,55,0
2460,note_on,,,,,15,0,1,,,,,0,,,,74,0
2505,note_on,,,,,0,0,1,,,,,0,,,,71,100
2505,note_on,,,,,45,0,1,,,,,0,,,,72,0
2520,note_on,,,,,60,0,2,,,,,1,,,,43,0
2520,note_on,,,,,0,0,2,,,,,1,,,,54,100
2520,note_on,,,,,0,0,1,,,,,0,,,,69,100
2520,note_on,,,,,15,0,1,,,,,0,,,,71,0
2565,note_on,,,,,0,0,1,,,,,0,,,,72,100
2565,note_on,,,,,45,0,1,,,,,0,,,,69,0
2580,note_on,,,,,60,0,2,,,,,1,,,,54,0
2580,note_on,,,,,0,0,2,,,,,1,,,,42,100
2580,note_on,,,,,15,0,1,,,,,0,,,,72,0
2580,note_on,,,,,0,0,1,,,,,0,,,,71,100
2625,note_on,,,,,0,0,1,,,,,0,,,,69,100
2625,note_on,,,,,45,0,1,,,,,0,,,,71,0
2640,note_on,,,,,0,0,1,,,,,0,,,,67,100
2640,note_on,,,,,0,0,2,,,,,1,,,,52,100
2640,note_on,,,,,60,0,2,,,,,1,,,,42,0
2640,note_on,,,,,15,0,1,,,,,0,,,,69,0
2685,note_on,,,,,45,0,1,,,,,0,,,,67,0
2685,note_on,,,,,0,0,1,,,,,0,,,,71,100
2700,note_on,,,,,60,0,2,,,,,1,,,,52,0
2700,note_on,,,,,0,0,2,,,,,1,,,,40,100
2700,note_on,,,,,0,0,1,,,,,0,,,,69,100
2700,note_on,,,,,15,0,1,,,,,0,,,,71,0
2745,note_on,,,,,0,0,1,,,,,0,,,,67,100
2745,note_on,,,,,45,0,1,,,,,0,,,,69,0
2760,note_on,,,,,0,0,1,,,,,0,,,,66,100
2760,note_on,,,,,15,0,1,,,,,0,,,,67,0
2760,note_on,,,,,0,0,2,,,,,1,,,,50,100
2760,note_on,,,,,60,0,2,,,,,1,,,,40,0
2805,note_on,,,,,0,0,1,,,,,0,,,,69,100
2805,note_on,,,,,45,0,1,,,,,0,,,,66,0
2820,note_on,,,,,15,0,1,,,,,0,,,,69,0
2820,note_on,,,,,0,0,1,,,,,0,,,,67,100
2820,note_on,,,,,0,0,2,,,,,1,,,,38,100
2820,note_on,,,,,60,0,2,,,,,1,,,,50,0
2865,note_on,,,,,45,0,1,,,,,0,,,,67,0
2865,note_on,,,,,0,0,1,,,,,0,,,,66,100
2880,note_on,,,,,15,0,1,,,,,0,,,,66,0
2880,note_on,,,,,0,0,1,,,,,0,,,,67,100
2880,note_on,,,,,0,0,2,,,,,1,,,,52,100
2880,note_on,,,,,60,0,2,,,,,1,,,,38,0
2925,note_on,,,,,45,0,1,,,,,0,,,,67,0
2925,note_on,,,,,0,0,1,,,,,0,,,,64,100
2940,note_on,,,,,60,0,2,,,,,1,,,,52,0
2940,note_on,,,,,0,0,2,,,,,1,,,,55,100
2940,note_on,,,,,0,0,1,,,,,0,,,,66,100
2940,note_on,,,,,15,0,1,,,,,0,,,,64,0
2985,note_on,,,,,45,0,1,,,,,0,,,,66,0
2985,note_on,,,,,0,0,1,,,,,0,,,,67,100
3000,note_on,,,,,60,0,2,,,,,1,,,,55,0
3000,note_on,,,,,0,0,1,,,,,0,,,,64,100
3000,note_on,,,,,15,0,1,,,,,0,,,,67,0
3000,note_on,,,,,0,0,2,,,,,1,,,,57,100
3015,note_on,,,,,0,0,1,,,,,0,,,,66,100
3015,note_on,,,,,15,0,1,,,,,0,,,,64,0
3030,note_on,,,,,0,0,1,,,,,0,,,,64,100
3030,note_on,,,,,15,0,1,,,,,0,,,,66,0
3045,note_on,,,,,0,0,1,,,,,0,,,,66,100
3045,note_on,,,,,15,0,1,,,,,0,,,,64,0
3060,note_on,,,,,0,0,2,,,,,1,,,,45,100
3060,note_on,,,,,0,0,1,,,,,0,,,,64,100
3060,note_on,,,,,15,0,1,,,,,0,,,,66,0
3060,note_on,,,,,60,0,2,,,,,1,,,,57,0
3075,note_on,,,,,0,0,1,,,,,0,,,,66,100
3075,note_on,,,,,15,0,1,,,,,0,,,,64,0
3090,note_on,,,,,0,0,1,,,,,0,,,,64,100
3090,note_on,,,,,15,0,1,,,,,0,,,,66,0
3105,note_on,,,,,0,0,1,,,,,0,,,,66,100
3105,note_on,,,,,15,0,1,,,,,0,,,,64,0
3120,note_on,,,,,15,0,1,,,,,0,,,,66,0
3120,note_on,,,,,0,0,1,,,,,0,,,,62,100
3120,note_on,,,,,0,0,2,,,,,1,,,,50,100
3120,note_on,,,,,60,0,2,,,,,1,,,,45,0
3150,note_on,,,,,30,0,1,,,,,0,,,,62,0
3150,note_on,,,,,0,0,1,,,,,0,,,,66,100
3180,note_on,,,,,30,0,1,,,,,0,,,,66,0
3180,note_on,,,,,0,0,2,,,,,1,,,,45,100
3180,note_on,,,,,60,0,2,,,,,1,,,,50,0
3180,note_on,,,,,0,0,1,,,,,0,,,,69,100
3210,note_on,,,,,0,0,1,,,,,0,,,,74,100
3210,note_on,,,,,30,0,1,,,,,0,,,,69,0
3240,note_on,,,,,60,0,2,,,,,1,,,,45,0
3240,note_on,,,,,0,0,2,,,,,1,,,,42,100
3240,note_on,,,,,30,0,1,,,,,0,,,,74,0
3240,note_on,,,,,0,0,1,,,,,0,,,,69,100
3270,note_on,,,,,30,0,1,,,,,0,,,,69,0
3270,note_on,,,,,0,0,1,,,,,0,,,,66,100
3300,note_on,,,,,60,0,2,,,,,1,,,,42,0
3300,note_on,,,,,0,0,2,,,,,1,,,,45,100
3300,note_on,,,,,30,0,1,,,,,0,,,,66,0
3300,note_on,,,,,0,0,1,,,,,0,,,,62,100
3330,note_on,,,,,30,0,1,,,,,0,,,,62,0
3330,note_on,,,,,0,0,1,,,,,0,,,,66,100
3360,note_on,,,,,60,0,2,,,,,1,,,,45,0
3360,note_on,,,,,0,0,2,,,,,1,,,,50,100
3360,note_on,,,,,0,0,1,,,,,0,,,,69,100
3360,note_on,,,,,0,0,1,,,,,0,,,,66,100
3360,note_on,,,,,0,0,1,,,,,0,,,,74,100
3360,note_on,,,,,30,0,1,,,,,0,,,,66,0
3480,note_on,,,,,120,0,2,,,,,1,,,,45,100
3600,note_on,,,,,0,0,2,,,,,1,,,,38,100
3600,note_on,,,,,120,0,2,,,,,1,,,,45,0
3720,note_on,,,,,120,0,2,,,,,1,,,,38,0
3720,note_on,,,,,0,0,2,,,,,1,,,,50,0
3720,note_on,,,,,360,0,1,,,,,0,,,,74,0
3720,note_on,,,,,0,0,1,,,,,0,,,,69,0
3720,note_on,,,,,0,0,1,,,,,0,,,,66,0
3780,note_on,,,,,60,0,1,,,,,0,,,,67,100
3840,note_on,,,,,0,0,1,,,,,0,,,,67,100
3840,note_on,,,,,0,0,1,,,,,0,,,,62,100
3840,note_on,,,,,0,0,1,,,,,0,,,,59,100
3840,note_on,,,,,60,0,1,,,,,0,,,,67,0
3840,note_on,,,,,120,0,2,,,,,1,,,,55,100
3900,note_on,,,,,60,0,2,,,,,1,,,,55,0
3900,note_on,,,,,0,0,2,,,,,1,,,,50,100
3960,note_on,,,,,0,0,1,,,,,0,,,,62,0
3960,note_on,,,,,0,0,1,,,,,0,,,,59,0
3960,note_on,,,,,120,0,1,,,,,0,,,,67,0
3960,note_on,,,,,60,0,2,,,,,1,,,,50,0
3960,note_on,,,,,0,0,2,,,,,1,,,,43,100
4005,note_on,,,,,45,0,1,,,,,0,,,,67,100
4020,note_on,,,,,0,0,1,,,,,0,,,,69,100
4020,note_on,,,,,0,0,2,,,,,1,,,,55,100
4020,note_on,,,,,15,0,1,,,,,0,,,,67,0
4020,note_on,,,,,60,0,2,,,,,1,,,,43,0
4065,note_on,,,,,45,0,1,,,,,0,,,,69,0
4065,note_on,,,,,0,0,1,,,,,0,,,,71,100
4080,note_on,,,,,15,0,1,,,,,0,,,,71,0
4080,note_on,,,,,0,0,1,,,,,0,,,,69,100
4080,note_on,,,,,60,0,2,,,,,1,,,,55,0
4080,note_on,,,,,0,0,2,,,,,1,,,,57,100
4080,note_on,,,,,0,0,2,,,,,1,,,,54,100
4140,note_on,,,,,60,0,1,,,,,0,,,,69,0
4140,note_on,,,,,0,0,1,,,,,0,,,,62,100
4200,note_on,,,,,0,0,2,,,,,1,,,,50,100
4200,note_on,,,,,120,0,2,,,,,1,,,,54,0
4200,note_on,,,,,60,0,1,,,,,0,,,,62,0
4245,note_on,,,,,45,0,1,,,,,0,,,,72,100
4260,note_on,,,,,15,0,1,,,,,0,,,,72,0
4260,note_on,,,,,0,0,1,,,,,0,,,,71,100
4305,note_on,,,,,45,0,1,,,,,0,,,,71,0
4305,note_on,,,,,0,0,1,,,,,0,,,,69,100
4320,note_on,,,,,120,0,2,,,,,1,,,,50,0
4320,note_on,,,,,0,0,2,,,,,1,,,,57,0
4320,note_on,,,,,0,0,2,,,,,1,,,,55,100
4320,note_on,,,,,15,0,1,,,,,0,,,,69,0
4320,note_on,,,,,0,0,1,,,,,0,,,,71,100
4365,note_on,,,,,45,0,1,,,,,0,,,,71,0
4365,note_on,,,,,0,0,1,,,,,0,,,,69,100
4380,note_on,,,,,0,0,2,,,,,1,,,,50,100
4380,note_on,,,,,60,0,2,,,,,1,,,,55,0
4380,note_on,,,,,15,0,1,,,,,0,,,,69,0
4380,note_on,,,,,0,0,1,,,,,0,,,,71,100
4425,note_on,,,,,0,0,1,,,,,0,,,,72,100
4425,note_on,,,,,45,0,1,,,,,0,,,,71,0
4440,note_on,,,,,0,0,2,,,,,1,,,,43,100
4440,note_on,,,,,15,0,1,,,,,0,,,,72,0
4440,note_on,,,,,60,0,2,,,,,1,,,,50,0
4440,note_on,,,,,0,0,1,,,,,0,,,,71,100
4485,note_on,,,,,45,0,1,,,,,0,,,,71,0
4485,note_on,,,,,0,0,1,,,,,0,,,,74,100
4500,note_on,,,,,60,0,2,,,,,1,,,,43,0
4500,note_on,,,,,15,0,1,,,,,0,,,,74,0
4500,note_on,,,,,0,0,1,,,,,0,,,,72,100
4500,note_on,,,,,0,0,2,,,,,1,,,,55,100
4545,note_on,,,,,45,0,1,,,,,0,,,,72,0
4545,note_on,,,,,0,0,1,,,,,0,,,,71,100
4560,note_on,,,,,0,0,1,,,,,0,,,,69,100
4560,note_on,,,,,15,0,1,,,,,0,,,,71,0
4560,note_on,,,,,0,0,2,,,,,1,,,,50,100
4560,note_on,,,,,60,0,2,,,,,1,,,,55,0
4575,note_on,,,,,15,0,1,,,,,0,,,,69,0
4575,note_on,,,,,0,0,1,,,,,0,,,,71,100
4590,note_on,,,,,0,0,1,,,,,0,,,,69,100
4590,note_on,,,,,15,0,1,,,,,0,,,,71,0
4605,note_on,,,,,15,0,1,,,,,0,,,,69,0
4605,note_on,,,,,0,0,1,,,,,0,,,,71,100
4620,note_on,,,,,0,0,2,,,,,1,,,,45,100
4620,note_on,,,,,15,0,1,,,,,0,,,,71,0
4620,note_on,,,,,0,0,1,,,,,0,,,,69,100
4620,note_on,,,,,60,0,2,,,,,1,,,,50,0
4635,note_on,,,,,15,0,1,,,,,0,,,,69,0
4635,note_on,,,,,0,0,1,,,,,0,,,,71,100
4650,note_on,,,,,15,0,1,,,,,0,,,,71,0
4650,note_on,,,,,0,0,1,,,,,0,,,,69,100
4665,note_on,,,,,15,0,1,,,,,0,,,,69,0
4665,note_on,,,,,0,0,1,,,,,0,,,,71,100
4680,note_on,,,,,0,0,2,,,,,1,,,,38,100
4680,note_on,,,,,60,0,2,,,,,1,,,,45,0
4688,note_on,,,,,23,0,1,,,,,0,,,,71,0
4710,note_on,,,,,22,0,1,,,,,0,,,,74,100
4740,note_on,,,,,30,0,1,,,,,0,,,,74,0
4740,note_on,,,,,0,0,2,,,,,1,,,,50,100
4740,note_on,,,,,60,0,2,,,,,1,,,,38,0
4740,note_on,,,,,0,0,1,,,,,0,,,,76,100
4785,note_on,,,,,45,0,1,,,,,0,,,,76,0
4785,note_on,,,,,0,0,1,,,,,0,,,,78,100
4800,note_on,,,,,0,0,2,,,,,1,,,,47,100
4800,note_on,,,,,0,0,2,,,,,1,,,,50,100
4800,note_on,,,,,60,0,2,,,,,1,,,,50,0
4800,note_on,,,,,15,0,1,,,,,0,,,,78,0
4800,note_on,,,,,0,0,1,,,,,0,,,,79,100
4860,note_on,,,,,0,0,1,,,,,0,,,,74,100
4860,note_on,,,,,60,0,1,,,,,0,,,,79,0
4920,note_on,,,,,120,0,2,,,,,1,,,,50,0
4920,note_on,,,,,0,0,2,,,,,1,,,,55,100
4920,note_on,,,,,0,0,1,,,,,0,,,,71,100
4920,note_on,,,,,60,0,1,,,,,0,,,,74,0
4965,note_on,,,,,0,0,1,,,,,0,,,,79,100
4965,note_on,,,,,45,0,1,,,,,0,,,,71,0
4980,note_on,,,,,15,0,1,,,,,0,,,,79,0
4980,note_on,,,,,0,0,1,,,,,0,,,,77,100
5025,note_on,,,,,45,0,1,,,,,0,,,,77,0
5025,note_on,,,,,0,0,1,,,,,0,,,,79,100
5040,note_on,,,,,0,0,1,,,,,0,,,,76,100
5040,note_on,,,,,0,0,2,,,,,1,,,,48,100
5040,note_on,,,,,120,0,2,,,,,1,,,,55,0
5040,note_on,,,,,0,0,2,,,,,1,,,,47,0
5040,note_on,,,,,15,0,1,,,,,0,,,,79,0
5055,note_on,,,,,0,0,1,,,,,0,,,,77,100
5055,note_on,,,,,15,0,1,,,,,0,,,,76,0
5070,note_on,,,,,15,0,1,,,,,0,,,,77,0
5070,note_on,,,,,0,0,1,,,,,0,,,,76,100
5085,note_on,,,,,0,0,1,,,,,0,,,,77,100
5085,note_on,,,,,15,0,1,,,,,0,,,,76,0
5099,note_on,,,,,59,0,2,,,,,1,,,,48,0
5100,note_on,,,,,0,0,1,,,,,0,,,,76,100
5100,note_on,,,,,15,0,1,,,,,0,,,,77,0
5100,note_on,,,,,1,0,2,,,,,1,,,,43,100
5115,note_on,,,,,15,0,1,,,,,0,,,,76,0
5115,note_on,,,,,0,0,1,,,,,0,,,,77,100
5130,note_on,,,,,15,0,1,,,,,0,,,,77,0
5130,note_on,,,,,0,0,1,,,,,0,,,,76,100
5145,note_on,,,,,15,0,1,,,,,0,,,,76,0
5145,note_on,,,,,0,0,1,,,,,0,,,,77,100
5159,note_on,,,,,59,0,2,,,,,1,,,,43,0
5160,note_on,,,,,15,0,1,,,,,0,,,,77,0
5160,note_on,,,,,0,0,1,,,,,0,,,,76,100
5160,note_on,,,,,1,0,2,,,,,1,,,,36,100
5181,note_on,,,,,21,0,1,,,,,0,,,,76,0
5205,note_on,,,,,24,0,1,,,,,0,,,,76,100
5219,note_on,,,,,59,0,2,,,,,1,,,,36,0
5220,note_on,,,,,1,0,2,,,,,1,,,,48,100
5220,note_on,,,,,15,0,1,,,,,0,,,,76,0
5220,note_on,,,,,0,0,1,,,,,0,,,,78,100
5265,note_on,,,,,45,0,1,,,,,0,,,,78,0
5265,note_on,,,,,0,0,1,,,,,0,,,,79,100
5279,note_on,,,,,59,0,2,,,,,1,,,,48,0
5280,note_on,,,,,0,0,2,,,,,1,,,,49,100
5280,note_on,,,,,1,0,2,,,,,1,,,,52,100
5280,note_on,,,,,15,0,1,,,,,0,,,,79,0
5280,note_on,,,,,0,0,1,,,,,0,,,,81,100
5340,note_on,,,,,60,0,1,,,,,0,,,,81,0
5340,note_on,,,,,0,0,1,,,,,0,,,,76,100
5400,note_on,,,,,0,0,2,,,,,1,,,,57,100
5400,note_on,,,,,60,0,1,,,,,0,,,,76,0
5400,note_on,,,,,0,0,1,,,,,0,,,,73,100
5400,note_on,,,,,120,0,2,,,,,1,,,,52,0
5445,note_on,,,,,0,0,1,,,,,0,,,,81,100
5445,note_on,,,,,45,0,1,,,,,0,,,,73,0
5460,note_on,,,,,15,0,1,,,,,0,,,,81,0
5460,note_on,,,,,0,0,1,,,,,0,,,,79,100
5505,note_on,,,,,0,0,1,,,,,0,,,,81,100
5505,note_on,,,,,45,0,1,,,,,0,,,,79,0
5520,note_on,,,,,0,0,1,,,,,0,,,,78,100
5520,note_on,,,,,120,0,2,,,,,1,,,,57,0
5520,note_on,,,,,0,0,2,,,,,1,,,,49,0
5520,note_on,,,,,15,0,1,,,,,0,,,,81,0
5520,note_on,,,,,0,0,2,,,,,1,,,,50,100
5535,note_on,,,,,0,0,1,,,,,0,,,,79,100
5535,note_on,,,,,15,0,1,,,,,0,,,,78,0
5550,note_on,,,,,0,0,1,,,,,0,,,,78,100
5550,note_on,,,,,15,0,1,,,,,0,,,,79,0
5565,note_on,,,,,0,0,1,,,,,0,,,,79,100
5565,note_on,,,,,15,0,1,,,,,0,,,,78,0
5580,note_on,,,,,60,0,2,,,,,1,,,,50,0
5580,note_on,,,,,0,0,1,,,,,0,,,,78,100
5580,note_on,,,,,15,0,1,,,,,0,,,,79,0
5580,note_on,,,,,0,0,2,,,,,1,,,,45,100
5595,note_on,,,,,15,0,1,,,,,0,,,,78,0
5595,note_on,,,,,0,0,1,,,,,0,,,,79,100
5610,note_on,,,,,0,0,1,,,,,0,,,,78,100
5610,note_on,,,,,15,0,1,,,,,0,,,,79,0
5640,note_on,,,,,30,0,1,,,,,0,,,,78,0
5640,note_on,,,,,60,0,2,,,,,1,,,,45,0
5640,note_on,,,,,0,0,2,,,,,1,,,,38,100
5685,note_on,,,,,45,0,1,,,,,0,,,,69,100
5700,note_on,,,,,60,0,2,,,,,1,,,,38,0
5700,note_on,,,,,0,0,2,,,,,1,,,,50,100
5700,note_on,,,,,0,0,1,,,,,0,,,,71,100
5700,note_on,,,,,15,0,1,,,,,0,,,,69,0
5745,note_on,,,,,45,0,1,,,,,0,,,,71,0
5745,note_on,,,,,0,0,1,,,,,0,,,,72,100
5760,note_on,,,,,0,0,2,,,,,1,,,,55,100
5760,note_on,,,,,60,0,2,,,,,1,,,,50,0
5760,note_on,,,,,15,0,1,,,,,0,,,,72,0
5760,note_on,,,,,0,0,1,,,,,0,,,,71,100
5805,note_on,,,,,45,0,1,,,,,0,,,,71,0
5805,note_on,,,,,0,0,1,,,,,0,,,,74,100
5820,note_on,,,,,15,0,1,,,,,0,,,,74,0
5820,note_on,,,,,0,0,1,,,,,0,,,,72,100
5820,note_on,,,,,0,0,2,,,,,1,,,,43,100
5820,note_on,,,,,60,0,2,,,,,1,,,,55,0
5865,note_on,,,,,45,0,1,,,,,0,,,,72,0
5865,note_on,,,,,0,0,1,,,,,0,,,,71,100
5880,note_on,,,,,15,0,1,,,,,0,,,,71,0
5880,note_on,,,,,0,0,1,,,,,0,,,,69,100
5880,note_on,,,,,0,0,2,,,,,1,,,,54,100
5880,note_on,,,,,60,0,2,,,,,1,,,,43,0
5925,note_on,,,,,45,0,1,,,,,0,,,,69,0
5925,note_on,,,,,0,0,1,,,,,0,,,,72,100
5940,note_on,,,,,0,0,1,,,,,0,,,,71,100
5940,note_on,,,,,0,0,2,,,,,1,,,,42,100
5940,note_on,,,,,60,0,2,,,,,1,,,,54,0
5940,note_on,,,,,15,0,1,,,,,0,,,,72,0
5985,note_on,,,,,0,0,1,,,,,0,,,,69,100
5985,note_on,,,,,45,0,1,,,,,0,,,,71,0
6000,note_on,,,,,0,0,2,,,,,1,,,,52,100
6000,note_on,,,,,15,0,1,,,,,0,,,,69,0
6000,note_on,,,,,0,0,1,,,,,0,,,,67,100
6000,note_on,,,,,60,0,2,,,,,1,,,,42,0
6045,note_on,,,,,45,0,1,,,,,0,,,,67,0
6045,note_on,,,,,0,0,1,,,,,0,,,,71,100
6060,note_on,,,,,0,0,1,,,,,0,,,,69,100
6060,note_on,,,,,60,0,2,,,,,1,,,,52,0
6060,note_on,,,,,15,0,1,,,,,0,,,,71,0
6060,note_on,,,,,0,0,2,,,,,1,,,,40,100
6105,note_on,,,,,0,0,1,,,,,0,,,,67,100
6105,note_on,,,,,45,0,1,,,,,0,,,,69,0
6120,note_on,,,,,0,0,1,,,,,0,,,,66,100
6120,note_on,,,,,15,0,1,,,,,0,,,,67,0
6120,note_on,,,,,60,0,2,,,,,1,,,,40,0
6120,note_on,,,,,0,0,2,,,,,1,,,,50,100
6165,note_on,,,,,45,0,1,,,,,0,,,,66,0
6165,note_on,,,,,0,0,1,,,,,0,,,,69,100
6180,note_on,,,,,0,0,2,,,,,1,,,,38,100
6180,note_on,,,,,60,0,2,,,,,1,,,,50,0
6180,note_on,,,,,15,0,1,,,,,0,,,,69,0
6180,note_on,,,,,0,0,1,,,,,0,,,,67,100
6225,note_on,,,,,45,0,1,,,,,0,,,,67,0
6225,note_on,,,,,0,0,1,,,,,0,,,,66,100
6240,note_on,,,,,60,0,2,,,,,1,,,,38,0
6240,note_on,,,,,15,0,1,,,,,0,,,,66,0
6240,note_on,,,,,0,0,1,,,,,0,,,,67,100
6240,note_on,,,,,0,0,2,,,,,1,,,,52,100
6285,note_on,,,,,45,0,1,,,,,0,,,,67,0
6285,note_on,,,,,0,0,1,,,,,0,,,,64,100
6300,note_on,,,,,60,0,2,,,,,1,,,,52,0
6300,note_on,,,,,0,0,2,,,,,1,,,,55,100
6300,note_on,,,,,15,0,1,,,,,0,,,,64,0
6300,note_on,,,,,0,0,1,,,,,0,,,,66,100
6345,note_on,,,,,45,0,1,,,,,0,,,,66,0
6345,note_on,,,,,0,0,1,,,,,0,,,,67,100
6360,note_on,,,,,60,0,2,,,,,1,,,,55,0
6360,note_on,,,,,0,0,2,,,,,1,,,,57,100
6360,note_on,,,,,0,0,1,,,,,0,,,,64,100
6360,note_on,,,,,15,0,1,,,,,0,,,,67,0
6375,note_on,,,,,0,0,1,,,,,0,,,,66,100
6375,note_on,,,,,15,0,1,,,,,0,,,,64,0
6390,note_on,,,,,15,0,1,,,,,0,,,,66,0
6390,note_on,,,,,0,0,1,,,,,0,,,,64,100
6405,note_on,,,,,15,0,1,,,,,0,,,,64,0
6405,note_on,,,,,0,0,1,,,,,0,,,,66,100
6420,note_on,,,,,60,0,2,,,,,1,,,,57,0
6420,note_on,,,,,0,0,2,,,,,1,,,,45,100
6420,note_on,,,,,15,0,1,,,,,0,,,,66,0
6420,note_on,,,,,0,0,1,,,,,0,,,,64,100
6435,note_on,,,,,15,0,1,,,,,0,,,,64,0
6435,note_on,,,,,0,0,1,,,,,0,,,,66,100
6450,note_on,,,,,15,0,1,,,,,0,,,,66,0
6450,note_on,,,,,0,0,1,,,,,0,,,,64,100
6465,note_on,,,,,0,0,1,,,,,0,,,,66,100
6465,note_on,,,,,15,0,1,,,,,0,,,,64,0
6480,note_on,,,,,15,0,1,,,,,0,,,,66,0
6480,note_on,,,,,0,0,1,,,,,0,,,,62,100
6480,note_on,,,,,60,0,2,,,,,1,,,,45,0
6480,note_on,,,,,0,0,2,,,,,1,,,,50,100
6510,note_on,,,,,0,0,1,,,,,0,,,,66,100
6510,note_on,,,,,30,0,1,,,,,0,,,,62,0
6540,note_on,,,,,0,0,1,,,,,0,,,,69,100
6540,note_on,,,,,30,0,1,,,,,0,,,,66,0
6540,note_on,,,,,0,0,2,,,,,1,,,,45,100
6540,note_on,,,,,60,0,2,,,,,1,,,,50,0
6570,note_on,,,,,0,0,1,,,,,0,,,,74,100
6570,note_on,,,,,30,0,1,,,,,0,,,,69,0
6600,note_on,,,,,30,0,1,,,,,0,,,,74,0
6600,note_on,,,,,0,0,2,,,,,1,,,,42,100
6600,note_on,,,,,60,0,2,,,,,1,,,,45,0
6600,note_on,,,,,0,0,1,,,,,0,,,,69,100
6630,note_on,,,,,30,0,1,,,,,0,,,,69,0
6630,note_on,,,,,0,0,1,,,,,0,,,,66,100
6660,note_on,,,,,60,0,2,,,,,1,,,,42,0
6660,note_on,,,,,30,0,1,,,,,0,,,,66,0
6660,note_on,,,,,0,0,2,,,,,1,,,,45,100
6660,note_on,,,,,0,0,1,,,,,0,,,,62,100
6690,note_on,,,,,30,0,1,,,,,0,,,,62,0
6690,note_on,,,,,0,0,1,,,,,0,,,,66,100
6720,note_on,,,,,30,0,1,,,,,0,,,,66,0
6720,note_on,,,,,0,0,1,,,,,0,,,,66,100
6720,note_on,,,,,0,0,1,,,,,0,,,,74,100
6720,note_on,,,,,0,0,2,,,,,1,,,,50,100
6720,note_on,,,,,60,0,2,,,,,1,,,,45,0
6720,note_on,,,,,0,0,1,,,,,0,,,,69,100
6840,note_on,,,,,120,0,2,,,,,1,,,,45,100
6960,note_on,,,,,0,0,2,,,,,1,,,,38,100
6960,note_on,,,,,120,0,2,,,,,1,,,,45,0
7080,note_on,,,,,0,0,1,,,,,0,,,,66,0
7080,note_on,,,,,120,0,2,,,,,1,,,,38,0
7080,note_on,,,,,0,0,1,,,,,0,,,,69,0
7080,note_on,,,,,0,0,2,,,,,1,,,,50,0
7080,note_on,,,,,360,0,1,,,,,0,,,,74,0
7140,note_on,,,,,60,0,1,,,,,0,,,,69,100
7200,note_on,,,,,60,0,1,,,,,0,,,,69,0
7200,note_on,,,,,0,0,1,,,,,0,,,,62,100
7200,note_on,,,,,0,0,1,,,,,0,,,,66,100
7200,note_on,,,,,0,0,1,,,,,0,,,,69,100
7200,note_on,,,,,120,0,2,,,,,1,,,,50,100
7260,note_on,,,,,60,0,2,,,,,1,,,,50,0
7260,note_on,,,,,0,0,2,,,,,1,,,,45,100
7320,note_on,,,,,120,0,1,,,,,0,,,,69,0
7320,note_on,,,,,0,0,1,,,,,0,,,,66,0
7320,note_on,,,,,0,0,1,,,,,0,,,,62,0
7320,note_on,,,,,60,0,2,,,,,1,,,,45,0
7320,note_on,,,,,0,0,2,,,,,1,,,,38,100
7365,note_on,,,,,45,0,1,,,,,0,,,,69,100
7380,note_on,,,,,0,0,1,,,,,0,,,,71,100
7380,note_on,,,,,0,0,2,,,,,1,,,,50,100
7380,note_on,,,,,60,0,2,,,,,1,,,,38,0
7380,note_on,,,,,15,0,1,,,,,0,,,,69,0
7425,note_on,,,,,0,0,1,,,,,0,,,,72,100
7425,note_on,,,,,45,0,1,,,,,0,,,,71,0
7440,note_on,,,,,60,0,2,,,,,1,,,,50,0
7440,note_on,,,,,15,0,1,,,,,0,,,,72,0
7440,note_on,,,,,0,0,1,,,,,0,,,,71,100
7440,note_on,,,,,0,0,2,,,,,1,,,,55,100
7455,note_on,,,,,0,0,1,,,,,0,,,,72,100
7455,note_on,,,,,15,0,1,,,,,0,,,,71,0
7470,note_on,,,,,0,0,1,,,,,0,,,,71,100
7470,note_on,,,,,15,0,1,,,,,0,,,,72,0
7485,note_on,,,,,15,0,1,,,,,0,,,,71,0
7485,note_on,,,,,0,0,1,,,,,0,,,,72,100
7500,note_on,,,,,0,0,2,,,,,1,,,,50,100
7500,note_on,,,,,60,0,2,,,,,1,,,,55,0
7500,note_on,,,,,0,0,1,,,,,0,,,,71,100
7500,note_on,,,,,15,0,1,,,,,0,,,,72,0
7515,note_on,,,,,0,0,1,,,,,0,,,,72,100
7515,note_on,,,,,15,0,1,,,,,0,,,,71,0
7530,note_on,,,,,0,0,1,,,,,0,,,,71,100
7530,note_on,,,,,15,0,1,,,,,0,,,,72,0
7545,note_on,,,,,0,0,1,,,,,0,,,,72,100
7545,note_on,,,,,15,0,1,,,,,0,,,,71,0
7560,note_on,,,,,0,0,1,,,,,0,,,,71,100
7560,note_on,,,,,15,0,1,,,,,0,,,,72,0
7560,note_on,,,,,60,0,2,,,,,1,,,,50,0
7560,note_on,,,,,0,0,2,,,,,1,,,,43,100
7575,note_on,,,,,15,0,1,,,,,0,,,,71,0
7575,note_on,,,,,0,0,1,,,,,0,,,,72,100
7590,note_on,,,,,15,0,1,,,,,0,,,,72,0
7590,note_on,,,,,0,0,1,,,,,0,,,,71,100
7620,note_on,,,,,0,0,2,,,,,1,,,,55,100
7620,note_on,,,,,60,0,2,,,,,1,,,,43,0
7620,note_on,,,,,30,0,1,,,,,0,,,,71,0
7620,note_on,,,,,0,0,1,,,,,0,,,,72,100
7665,note_on,,,,,45,0,1,,,,,0,,,,72,0
7665,note_on,,,,,0,0,1,,,,,0,,,,74,100
7680,note_on,,,,,0,0,2,,,,,1,,,,57,100
7680,note_on,,,,,15,0,1,,,,,0,,,,74,0
7680,note_on,,,,,0,0,1,,,,,0,,,,72,100
7680,note_on,,,,,60,0,2,,,,,1,,,,55,0
7680,note_on,,,,,0,0,2,,,,,1,,,,54,100
7740,note_on,,,,,60,0,1,,,,,0,,,,72,0
7740,note_on,,,,,0,0,1,,,,,0,,,,71,100
7740,note_on,,,,,0,0,2,,,,,1,,,,54,0
7740,note_on,,,,,60,0,2,,,,,1,,,,57,0
7740,note_on,,,,,0,0,2,,,,,1,,,,55,100
7800,note_on,,,,,0,0,2,,,,,1,,,,60,100
7800,note_on,,,,,0,0,1,,,,,0,,,,76,100
7800,note_on,,,,,60,0,1,,,,,0,,,,71,0
7800,note_on,,,,,60,0,2,,,,,1,,,,55,0
7845,note_on,,,,,0,0,1,,,,,0,,,,79,100
7845,note_on,,,,,45,0,1,,,,,0,,,,76,0
7860,note_on,,,,,0,0,2,,,,,1,,,,57,100
7860,note_on,,,,,15,0,1,,,,,0,,,,79,0
7860,note_on,,,,,0,0,1,,,,,0,,,,78,100
7860,note_on,,,,,60,0,2,,,,,1,,,,60,0
7905,note_on,,,,,0,0,1,,,,,0,,,,76,100
7905,note_on,,,,,45,0,1,,,,,0,,,,78,0
7920,note_on,,,,,0,0,2,,,,,1,,,,59,100
7920,note_on,,,,,60,0,2,,,,,1,,,,57,0
7920,note_on,,,,,0,0,1,,,,,0,,,,75,100
7920,note_on,,,,,15,0,1,,,,,0,,,,76,0
7935,note_on,,,,,15,0,1,,,,,0,,,,75,0
7935,note_on,,,,,0,0,1,,,,,0,,,,76,100
7950,note_on,,,,,15,0,1,,,,,0,,,,76,0
7950,note_on,,,,,0,0,1,,,,,0,,,,75,100
7965,note_on,,,,,15,0,1,,,,,0,,,,75,0
7965,note_on,,,,,0,0,1,,,,,0,,,,76,100
7980,note_on,,,,,15,0,1,,,,,0,,,,76,0
7980,note_on,,,,,60,0,2,,,,,1,,,,59,0
7980,note_on,,,,,0,0,2,,,,,1,,,,54,100
7980,note_on,,,,,0,0,1,,,,,0,,,,75,100
7995,note_on,,,,,0,0,1,,,,,0,,,,76,100
7995,note_on,,,,,15,0,1,,,,,0,,,,75,0
8010,note_on,,,,,0,0,1,,,,,0,,,,75,100
8010,note_on,,,,,15,0,1,,,,,0,,,,76,0
8025,note_on,,,,,15,0,1,,,,,0,,,,75,0
8025,note_on,,,,,0,0,1,,,,,0,,,,76,100
8040,note_on,,,,,60,0,2,,,,,1,,,,54,0
8040,note_on,,,,,0,0,2,,,,,1,,,,47,100
8040,note_on,,,,,15,0,1,,,,,0,,,,76,0
8040,note_on,,,,,0,0,1,,,,,0,,,,75,100
8055,note_on,,,,,0,0,1,,,,,0,,,,76,100
8055,note_on,,,,,15,0,1,,,,,0,,,,75,0
8070,note_on,,,,,15,0,1,,,,,0,,,,76,0
8070,note_on,,,,,0,0,1,,,,,0,,,,75,100
8100,note_on,,,,,30,0,1,,,,,0,,,,75,0
8100,note_on,,,,,0,0,1,,,,,0,,,,83,100
8100,note_on,,,,,60,0,2,,,,,1,,,,47,0
8100,note_on,,,,,0,0,2,,,,,1,,,,59,100
8160,note_on,,,,,60,0,1,,,,,0,,,,83,0
8160,note_on,,,,,60,0,2,,,,,1,,,,59,0
8160,note_on,,,,,0,0,1,,,,,0,,,,84,100
8160,note_on,,,,,0,0,2,,,,,1,,,,54,100
8160,note_on,,,,,0,0,2,,,,,1,,,,57,100
8190,note_on,,,,,0,0,1,,,,,0,,,,83,100
8190,note_on,,,,,30,0,1,,,,,0,,,,84,0
8220,note_on,,,,,0,0,1,,,,,0,,,,81,100
8220,note_on,,,,,30,0,1,,,,,0,,,,83,0
8250,note_on,,,,,0,0,1,,,,,0,,,,79,100
8250,note_on,,,,,30,0,1,,,,,0,,,,81,0
8280,note_on,,,,,0,0,1,,,,,0,,,,78,100
8280,note_on,,,,,0,0,2,,,,,1,,,,50,100
8280,note_on,,,,,120,0,2,,,,,1,,,,54,0
8280,note_on,,,,,30,0,1,,,,,0,,,,79,0
8310,note_on,,,,,30,0,1,,,,,0,,,,78,0
8310,note_on,,,,,0,0,1,,,,,0,,,,81,100
8340,note_on,,,,,30,0,1,,,,,0,,,,81,0
8340,note_on,,,,,0,0,1,,,,,0,,,,79,100
8370,note_on,,,,,30,0,1,,,,,0,,,,79,0
8370,note_on,,,,,0,0,1,,,,,0,,,,81,100
8400,note_on,,,,,30,0,1,,,,,0,,,,81,0
8400,note_on,,,,,0,0,1,,,,,0,,,,83,100
8400,note_on,,,,,0,0,2,,,,,1,,,,52,100
8400,note_on,,,,,0,0,2,,,,,1,,,,55,100
8400,note_on,,,,,0,0,2,,,,,1,,,,57,0
8400,note_on,,,,,120,0,2,,,,,1,,,,50,0
8430,note_on,,,,,0,0,1,,,,,0,,,,81,100
8430,note_on,,,,,30,0,1,,,,,0,,,,83,0
8460,note_on,,,,,30,0,1,,,,,0,,,,81,0
8460,note_on,,,,,0,0,1,,,,,0,,,,79,100
8490,note_on,,,,,30,0,1,,,,,0,,,,79,0
8490,note_on,,,,,0,0,1,,,,,0,,,,78,100
8520,note_on,,,,,0,0,2,,,,,1,,,,48,100
8520,note_on,,,,,0,0,1,,,,,0,,,,76,100
8520,note_on,,,,,30,0,1,,,,,0,,,,78,0
8520,note_on,,,,,120,0,2,,,,,1,,,,52,0
8550,note_on,,,,,0,0,1,,,,,0,,,,79,100
8550,note_on,,,,,30,0,1,,,,,0,,,,76,0
8580,note_on,,,,,0,0,1,,,,,0,,,,78,100
8580,note_on,,,,,30,0,1,,,,,0,,,,79,0
8610,note_on,,,,,0,0,1,,,,,0,,,,79,100
8610,note_on,,,,,30,0,1,,,,,0,,,,78,0
8640,note_on,,,,,120,0,2,,,,,1,,,,48,0
8640,note_on,,,,,0,0,2,,,,,1,,,,60,100
8640,note_on,,,,,30,0,1,,,,,0,,,,79,0
8640,note_on,,,,,0,0,1,,,,,0,,,,81,100
8640,note_on,,,,,0,0,2,,,,,1,,,,55,0
8670,note_on,,,,,30,0,1,,,,,0,,,,81,0
8670,note_on,,,,,0,0,1,,,,,0,,,,79,100
8700,note_on,,,,,0,0,2,,,,,1,,,,57,100
8700,note_on,,,,,30,0,1,,,,,0,,,,79,0
8700,note_on,,,,,0,0,1,,,,,0,,,,78,100
8700,note_on,,,,,60,0,2,,,,,1,,,,60,0
8730,note_on,,,,,30,0,1,,,,,0,,,,78,0
8730,note_on,,,,,0,0,1,,,,,0,,,,76,100
8760,note_on,,,,,30,0,1,,,,,0,,,,76,0
8760,note_on,,,,,0,0,1,,,,,0,,,,75,100
8760,note_on,,,,,0,0,2,,,,,1,,,,59,100
8760,note_on,,,,,60,0,2,,,,,1,,,,57,0
8790,note_on,,,,,0,0,1,,,,,0,,,,76,100
8790,note_on,,,,,30,0,1,,,,,0,,,,75,0
8820,note_on,,,,,30,0,1,,,,,0,,,,76,0
8820,note_on,,,,,0,0,1,,,,,0,,,,78,100
8820,note_on,,,,,0,0,2,,,,,1,,,,47,100
8820,note_on,,,,,60,0,2,,,,,1,,,,59,0
8850,note_on,,,,,0,0,1,,,,,0,,,,75,100
8850,note_on,,,,,30,0,1,,,,,0,,,,78,0
8880,note_on,,,,,0,0,2,,,,,1,,,,52,100
8880,note_on,,,,,60,0,2,,,,,1,,,,47,0
8880,note_on,,,,,0,0,1,,,,,0,,,,76,100
8880,note_on,,,,,30,0,1,,,,,0,,,,75,0
8895,note_on,,,,,0,0,1,,,,,0,,,,78,100
8895,note_on,,,,,15,0,1,,,,,0,,,,76,0
8910,note_on,,,,,15,0,1,,,,,0,,,,78,0
8910,note_on,,,,,0,0,1,,,,,0,,,,76,100
8925,note_on,,,,,15,0,1,,,,,0,,,,76,0
8925,note_on,,,,,0,0,1,,,,,0,,,,78,100
8940,note_on,,,,,0,0,1,,,,,0,,,,76,100
8940,note_on,,,,,15,0,1,,,,,0,,,,78,0
8940,note_on,,,,,60,0,2,,,,,1,,,,52,0
8940,note_on,,,,,0,0,2,,,,,1,,,,47,100
8955,note_on,,,,,0,0,1,,,,,0,,,,78,100
8955,note_on,,,,,15,0,1,,,,,0,,,,76,0
8970,note_on,,,,,15,0,1,,,,,0,,,,78,0
8970,note_on,,,,,0,0,1,,,,,0,,,,76,100
8985,note_on,,,,,0,0,1,,,,,0,,,,78,100
8985,note_on,,,,,15,0,1,,,,,0,,,,76,0
9000,note_on,,,,,0,0,2,,,,,1,,,,40,100
9000,note_on,,,,,60,0,2,,,,,1,,,,47,0
9000,note_on,,,,,0,0,1,,,,,0,,,,76,100
9000,note_on,,,,,15,0,1,,,,,0,,,,78,0
9028,note_on,,,,,28,0,1,,,,,0,,,,76,0
9030,note_on,,,,,2,0,1,,,,,0,,,,67,100
9060,note_on,,,,,0,0,2,,,,,1,,,,52,100
9060,note_on,,,,,60,0,2,,,,,1,,,,40,0
9060,note_on,,,,,30,0,1,,,,,0,,,,67,0
9060,note_on,,,,,0,0,1,,,,,0,,,,69,100
9105,note_on,,,,,45,0,1,,,,,0,,,,69,0
9105,note_on,,,,,0,0,1,,,,,0,,,,71,100
9120,note_on,,,,,0,0,2,,,,,1,,,,50,100
9120,note_on,,,,,60,0,2,,,,,1,,,,52,0
9120,note_on,,,,,0,0,2,,,,,1,,,,54,100
9120,note_on,,,,,15,0,1,,,,,0,,,,71,0
9120,note_on,,,,,0,0,1,,,,,0,,,,72,100
9180,note_on,,,,,60,0,1,,,,,0,,,,72,0
9180,note_on,,,,,0,0,1,,,,,0,,,,69,100
9240,note_on,,,,,0,0,2,,,,,1,,,,57,100
9240,note_on,,,,,0,0,1,,,,,0,,,,66,100
9240,note_on,,,,,120,0,2,,,,,1,,,,54,0
9240,note_on,,,,,60,0,1,,,,,0,,,,69,0
9270,note_on,,,,,30,0,1,,,,,0,,,,66,0
9270,note_on,,,,,0,0,1,,,,,0,,,,74,100
9300,note_on,,,,,30,0,1,,,,,0,,,,74,0
9300,note_on,,,,,0,0,1,,,,,0,,,,72,100
9330,note_on,,,,,30,0,1,,,,,0,,,,72,0
9330,note_on,,,,,0,0,1,,,,,0,,,,74,100
9360,note_on,,,,,30,0,1,,,,,0,,,,74,0
9360,note_on,,,,,0,0,1,,,,,0,,,,71,100
9360,note_on,,,,,120,0,2,,,,,1,,,,57,0
9360,note_on,,,,,0,0,2,,,,,1,,,,55,100
9360,note_on,,,,,0,0,2,,,,,1,,,,50,0
9375,note_on,,,,,15,0,1,,,,,0,,,,71,0
9375,note_on,,,,,0,0,1,,,,,0,,,,72,100
9390,note_on,,,,,15,0,1,,,,,0,,,,72,0
9390,note_on,,,,,0,0,1,,,,,0,,,,71,100
9405,note_on,,,,,15,0,1,,,,,0,,,,71,0
9405,note_on,,,,,0,0,1,,,,,0,,,,72,100
9420,note_on,,,,,0,0,2,,,,,1,,,,50,100
9420,note_on,,,,,15,0,1,,,,,0,,,,72,0
9420,note_on,,,,,0,0,1,,,,,0,,,,71,100
9420,note_on,,,,,60,0,2,,,,,1,,,,55,0
9435,note_on,,,,,15,0,1,,,,,0,,,,71,0
9435,note_on,,,,,0,0,1,,,,,0,,,,72,100
9450,note_on,,,,,15,0,1,,,,,0,,,,72,0
9450,note_on,,,,,0,0,1,,,,,0,,,,71,100
9465,note_on,,,,,0,0,1,,,,,0,,,,72,100
9465,note_on,,,,,15,0,1,,,,,0,,,,71,0
9480,note_on,,,,,0,0,2,,,,,1,,,,43,100
9480,note_on,,,,,0,0,1,,,,,0,,,,71,100
9480,note_on,,,,,60,0,2,,,,,1,,,,50,0
9480,note_on,,,,,15,0,1,,,,,0,,,,72,0
9495,note_on,,,,,15,0,1,,,,,0,,,,71,0
9495,note_on,,,,,0,0,1,,,,,0,,,,72,100
9505,note_on,,,,,10,0,1,,,,,0,,,,72,0
9512,note_on,,,,,7,0,1,,,,,0,,,,71,110
9540,note_on,,,,,60,0,2,,,,,1,,,,43,0
9540,note_on,,,,,28,0,1,,,,,0,,,,72,100
9540,note_on,,,,,0,0,2,,,,,1,,,,55,100
9542,note_on,,,,,2,0,1,,,,,0,,,,71,0
9585,note_on,,,,,0,0,1,,,,,0,,,,74,100
9585,note_on,,,,,43,0,1,,,,,0,,,,72,0
9600,note_on,,,,,0,0,1,,,,,0,,,,76,100
9600,note_on,,,,,15,0,1,,,,,0,,,,74,0
9600,note_on,,,,,60,0,2,,,,,1,,,,55,0
9600,note_on,,,,,0,0,2,,,,,1,,,,48,100
9630,note_on,,,,,0,0,1,,,,,0,,,,74,100
9630,note_on,,,,,30,0,1,,,,,0,,,,76,0
9660,note_on,,,,,30,0,1,,,,,0,,,,74,0
9660,note_on,,,,,0,0,1,,,,,0,,,,72,100
9660,note_on,,,,,60,0,2,,,,,1,,,,48,0
9660,note_on,,,,,0,0,2,,,,,1,,,,55,100
9690,note_on,,,,,30,0,1,,,,,0,,,,72,0
9690,note_on,,,,,0,0,1,,,,,0,,,,71,100
9720,note_on,,,,,0,0,2,,,,,1,,,,60,100
9720,note_on,,,,,60,0,2,,,,,1,,,,55,0
9720,note_on,,,,,30,0,1,,,,,0,,,,71,0
9720,note_on,,,,,0,0,1,,,,,0,,,,72,100
9750,note_on,,,,,30,0,1,,,,,0,,,,72,0
9750,note_on,,,,,0,0,1,,,,,0,,,,64,100
9780,note_on,,,,,0,0,1,,,,,0,,,,69,100
9780,note_on,,,,,30,0,1,,,,,0,,,,64,0
9780,note_on,,,,,0,0,2,,,,,1,,,,48,100
9780,note_on,,,,,60,0,2,,,,,1,,,,60,0
9810,note_on,,,,,0,0,1,,,,,0,,,,67,100
9810,note_on,,,,,30,0,1,,,,,0,,,,69,0
9840,note_on,,,,,60,0,2,,,,,1,,,,48,0
9840,note_on,,,,,30,0,1,,,,,0,,,,67,0
9840,note_on,,,,,0,0,1,,,,,0,,,,66,100
9840,note_on,,,,,0,0,2,,,,,1,,,,50,100
9855,note_on,,,,,15,0,1,,,,,0,,,,66,0
9855,note_on,,,,,0,0,1,,,,,0,,,,67,100
9870,note_on,,,,,15,0,1,,,,,0,,,,67,0
9870,note_on,,,,,0,0,1,,,,,0,,,,66,100
9885,note_on,,,,,15,0,1,,,,,0,,,,66,0
9885,note_on,,,,,0,0,1,,,,,0,,,,67,100
9900,note_on,,,,,15,0,1,,,,,0,,,,67,0
9900,note_on,,,,,0,0,1,,,,,0,,,,66,100
9900,note_on,,,,,60,0,2,,,,,1,,,,50,0
9900,note_on,,,,,0,0,2,,,,,1,,,,45,100
9915,note_on,,,,,15,0,1,,,,,0,,,,66,0
9915,note_on,,,,,0,0,1,,,,,0,,,,67,100
9930,note_on,,,,,0,0,1,,,,,0,,,,66,100
9930,note_on,,,,,15,0,1,,,,,0,,,,67,0
9945,note_on,,,,,15,0,1,,,,,0,,,,66,0
9945,note_on,,,,,0,0,1,,,,,0,,,,67,100
9960,note_on,,,,,60,0,2,,,,,1,,,,45,0
9960,note_on,,,,,0,0,1,,,,,0,,,,66,100
9960,note_on,,,,,15,0,1,,,,,0,,,,67,0
9960,note_on,,,,,0,0,2,,,,,1,,,,38,100
9975,note_on,,,,,0,0,1,,,,,0,,,,67,100
9975,note_on,,,,,15,0,1,,,,,0,,,,66,0
9990,note_on,,,,,15,0,1,,,,,0,,,,67,0
9993,note_on,,,,,3,0,1,,,,,0,,,,69,110
10020,note_on,,,,,27,0,1,,,,,0,,,,71,100
10020,note_on,,,,,60,0,2,,,,,1,,,,38,0
10020,note_on,,,,,0,0,2,,,,,1,,,,50,100
10023,note_on,,,,,3,0,1,,,,,0,,,,69,0
10050,note_on,,,,,0,0,1,,,,,0,,,,72,100
10050,note_on,,,,,27,0,1,,,,,0,,,,71,0
10080,note_on,,,,,30,0,1,,,,,0,,,,72,0
10080,note_on,,,,,0,0,2,,,,,1,,,,59,100
10080,note_on,,,,,60,0,2,,,,,1,,,,50,0
10110,note_on,,,,,30,0,1,,,,,0,,,,74,100
10140,note_on,,,,,60,0,2,,,,,1,,,,59,0
10140,note_on,,,,,0,0,2,,,,,1,,,,55,100
10170,note_on,,,,,0,0,1,,,,,0,,,,71,100
10170,note_on,,,,,60,0,1,,,,,0,,,,74,0
10200,note_on,,,,,60,0,2,,,,,1,,,,55,0
10200,note_on,,,,,0,0,2,,,,,1,,,,57,100
10230,note_on,,,,,60,0,1,,,,,0,,,,71,0
10230,note_on,,,,,0,0,1,,,,,0,,,,72,100
10260,note_on,,,,,60,0,2,,,,,1,,,,57,0
10260,note_on,,,,,0,0,2,,,,,1,,,,54,100
10290,note_on,,,,,0,0,1,,,,,0,,,,69,100
10290,note_on,,,,,60,0,1,,,,,0,,,,72,0
10320,note_on,,,,,60,0,2,,,,,1,,,,54,0
10320,note_on,,,,,0,0,2,,,,,1,,,,55,100
10350,note_on,,,,,60,0,1,,,,,0,,,,69,0
10350,note_on,,,,,0,0,1,,,,,0,,,,71,100
10380,note_on,,,,,60,0,2,,,,,1,,,,55,0
10380,note_on,,,,,0,0,2,,,,,1,,,,52,100
10410,note_on,,,,,0,0,1,,,,,0,,,,67,100
10410,note_on,,,,,60,0,1,,,,,0,,,,71,0
10440,note_on,,,,,60,0,2,,,,,1,,,,52,0
10440,note_on,,,,,0,0,2,,,,,1,,,,54,100
10470,note_on,,,,,0,0,1,,,,,0,,,,69,100
10470,note_on,,,,,60,0,1,,,,,0,,,,67,0
10500,note_on,,,,,60,0,2,,,,,1,,,,54,0
10500,note_on,,,,,0,0,2,,,,,1,,,,50,100
10530,note_on,,,,,60,0,1,,,,,0,,,,69,0
10530,note_on,,,,,0,0,1,,,,,0,,,,66,100
10560,note_on,,,,,60,0,2,,,,,1,,,,50,0
10560,note_on,,,,,0,0,1,,,,,0,,,,67,100
10560,note_on,,,,,0,0,2,,,,,1,,,,52,100
10560,note_on,,,,,30,0,1,,,,,0,,,,66,0
10590,note_on,,,,,30,0,1,,,,,0,,,,67,0
10590,note_on,,,,,0,0,1,,,,,0,,,,69,100
10620,note_on,,,,,0,0,2,,,,,1,,,,48,100
10620,note_on,,,,,60,0,2,,,,,1,,,,52,0
10620,note_on,,,,,0,0,1,,,,,0,,,,67,100
10620,note_on,,,,,30,0,1,,,,,0,,,,69,0
10650,note_on,,,,,0,0,1,,,,,0,,,,69,100
10650,note_on,,,,,30,0,1,,,,,0,,,,67,0
10680,note_on,,,,,30,0,1,,,,,0,,,,69,0
10680,note_on,,,,,60,0,2,,,,,1,,,,48,0
10680,note_on,,,,,0,0,2,,,,,1,,,,50,100
10680,note_on,,,,,0,0,1,,,,,0,,,,67,100
10695,note_on,,,,,15,0,1,,,,,0,,,,67,0
10695,note_on,,,,,0,0,1,,,,,0,,,,69,100
10710,note_on,,,,,0,0,1,,,,,0,,,,67,100
10710,note_on,,,,,15,0,1,,,,,0,,,,69,0
10725,note_on,,,,,15,0,1,,,,,0,,,,67,0
10725,note_on,,,,,0,0,1,,,,,0,,,,69,100
10740,note_on,,,,,0,0,1,,,,,0,,,,67,100
10740,note_on,,,,,60,0,2,,,,,1,,,,50,0
10740,note_on,,,,,0,0,2,,,,,1,,,,38,100
10740,note_on,,,,,15,0,1,,,,,0,,,,69,0
10755,note_on,,,,,15,0,1,,,,,0,,,,67,0
10755,note_on,,,,,0,0,1,,,,,0,,,,69,100
10770,note_on,,,,,15,0,1,,,,,0,,,,69,0
10770,note_on,,,,,0,0,1,,,,,0,,,,67,100
10785,note_on,,,,,0,0,1,,,,,0,,,,69,100
10785,note_on,,,,,15,0,1,,,,,0,,,,67,0
10800,note_on,,,,,60,0,2,,,,,1,,,,38,0
10800,note_on,,,,,15,0,1,,,,,0,,,,69,0
10800,note_on,,,,,0,0,2,,,,,1,,,,55,100
10800,note_on,,,,,0,0,1,,,,,0,,,,67,100
10830,note_on,,,,,0,0,1,,,,,0,,,,71,100
10830,note_on,,,,,30,0,1,,,,,0,,,,67,0
10860,note_on,,,,,0,0,2,,,,,1,,,,50,100
10860,note_on,,,,,60,0,2,,,,,1,,,,55,0
10860,note_on,,,,,0,0,1,,,,,0,,,,74,100
10860,note_on,,,,,30,0,1,,,,,0,,,,71,0
10890,note_on,,,,,0,0,1,,,,,0,,,,71,100
10890,note_on,,,,,30,0,1,,,,,0,,,,74,0
10920,note_on,,,,,60,0,2,,,,,1,,,,50,0
10920,note_on,,,,,0,0,1,,,,,0,,,,67,100
10920,note_on,,,,,0,0,2,,,,,1,,,,43,100
10920,note_on,,,,,30,0,1,,,,,0,,,,71,0
10950,note_on,,,,,0,0,1,,,,,0,,,,62,100
10950,note_on,,,,,30,0,1,,,,,0,,,,67,0
10980,note_on,,,,,0,0,1,,,,,0,,,,59,100
10980,note_on,,,,,30,0,1,,,,,0,,,,62,0
10980,note_on,,,,,0,0,2,,,,,1,,,,55,100
10980,note_on,,,,,60,0,2,,,,,1,,,,43,0
11010,note_on,,,,,30,0,1,,,,,0,,,,59,0
11010,note_on,,,,,30,0,2,,,,,1,,,,55,0
11010,note_on,,,,,0,0,1,,,,,0,,,,62,100
11040,note_on,,,,,0,0,1,,,,,0,,,,62,100
11040,note_on,,,,,0,0,1,,,,,0,,,,67,100
11040,note_on,,,,,0,0,1,,,,,0,,,,59,100
11040,note_on,,,,,30,0,1,,,,,0,,,,62,0
11040,note_on,,,,,30,0,2,,,,,1,,,,55,100
11160,note_on,,,,,120,0,2,,,,,1,,,,50,100
11280,note_on,,,,,120,0,2,,,,,1,,,,50,0
11280,note_on,,,,,0,0,2,,,,,1,,,,43,100
11400,note_on,,,,,0,0,1,,,,,0,,,,62,0
11400,note_on,,,,,0,0,2,,,,,1,,,,55,0
11400,note_on,,,,,120,0,2,,,,,1,,,,43,0
11400,note_on,,,,,0,0,1,,,,,0,,,,59,0
11400,note_on,,,,,360,0,1,,,,,0,,,,67,0
11460,note_on,,,,,60,0,1,,,,,0,,,,69,100
11520,note_on,,,,,120,0,2,,,,,1,,,,50,100
11520,note_on,,,,,0,0,1,,,,,0,,,,69,100
11520,note_on,,,,,0,0,1,,,,,0,,,,66,100
11520,note_on,,,,,0,0,1,,,,,0,,,,62,100
11520,note_on,,,,,60,0,1,,,,,0,,,,69,0
11580,note_on,,,,,60,0,2,,,,,1,,,,50,0
11580,note_on,,,,,0,0,2,,,,,1,,,,45,100
11640,note_on,,,,,60,0,2,,,,,1,,,,45,0
11640,note_on,,,,,0,0,2,,,,,1,,,,38,100
11640,note_on,,,,,0,0,1,,,,,0,,,,62,0
11640,note_on,,,,,120,0,1,,,,,0,,,,69,0
11640,note_on,,,,,0,0,1,,,,,0,,,,66,0
11685,note_on,,,,,45,0,1,,,,,0,,,,69,100
11700,note_on,,,,,0,0,2,,,,,1,,,,50,100
11700,note_on,,,,,0,0,1,,,,,0,,,,71,100
11700,note_on,,,,,60,0,2,,,,,1,,,,38,0
11700,note_on,,,,,15,0,1,,,,,0,,,,69,0
11745,note_on,,,,,0,0,1,,,,,0,,,,72,100
11745,note_on,,,,,45,0,1,,,,,0,,,,71,0
11760,note_on,,,,,0,0,2,,,,,1,,,,55,100
11760,note_on,,,,,0,0,1,,,,,0,,,,71,100
11760,note_on,,,,,15,0,1,,,,,0,,,,72,0
11760,note_on,,,,,60,0,2,,,,,1,,,,50,0
11775,note_on,,,,,0,0,1,,,,,0,,,,72,100
11775,note_on,,,,,15,0,1,,,,,0,,,,71,0
11790,note_on,,,,,0,0,1,,,,,0,,,,71,100
11790,note_on,,,,,15,0,1,,,,,0,,,,72,0
11805,note_on,,,,,0,0,1,,,,,0,,,,72,100
11805,note_on,,,,,15,0,1,,,,,0,,,,71,0
11820,note_on,,,,,60,0,2,,,,,1,,,,55,0
11820,note_on,,,,,0,0,2,,,,,1,,,,50,100
11820,note_on,,,,,0,0,1,,,,,0,,,,71,100
11820,note_on,,,,,15,0,1,,,,,0,,,,72,0
11835,note_on,,,,,0,0,1,,,,,0,,,,72,100
11835,note_on,,,,,15,0,1,,,,,0,,,,71,0
11850,note_on,,,,,15,0,1,,,,,0,,,,72,0
11850,note_on,,,,,0,0,1,,,,,0,,,,71,100
11865,note_on,,,,,15,0,1,,,,,0,,,,71,0
11865,note_on,,,,,0,0,1,,,,,0,,,,72,100
11880,note_on,,,,,15,0,1,,,,,0,,,,72,0
11880,note_on,,,,,0,0,1,,,,,0,,,,71,100
11880,note_on,,,,,60,0,2,,,,,1,,,,50,0
11880,note_on,,,,,0,0,2,,,,,1,,,,43,100
11895,note_on,,,,,0,0,1,,,,,0,,,,72,100
11895,note_on,,,,,15,0,1,,,,,0,,,,71,0
11910,note_on,,,,,0,0,1,,,,,0,,,,71,100
11910,note_on,,,,,15,0,1,,,,,0,,,,72,0
11940,note_on,,,,,0,0,1,,,,,0,,,,72,100
11940,note_on,,,,,0,0,2,,,,,1,,,,55,100
11940,note_on,,,,,60,0,2,,,,,1,,,,43,0
11940,note_on,,,,,30,0,1,,,,,0,,,,71,0
11985,note_on,,,,,45,0,1,,,,,0,,,,72,0
11985,note_on,,,,,0,0,1,,,,,0,,,,74,100
12000,note_on,,,,,60,0,2,,,,,1,,,,55,0
12000,note_on,,,,,0,0,1,,,,,0,,,,72,100
12000,note_on,,,,,0,0,2,,,,,1,,,,54,100
12000,note_on,,,,,0,0,2,,,,,1,,,,57,100
12000,note_on,,,,,15,0,1,,,,,0,,,,74,0
12060,note_on,,,,,60,0,2,,,,,1,,,,57,0
12060,note_on,,,,,0,0,2,,,,,1,,,,54,0
12060,note_on,,,,,0,0,2,,,,,1,,,,55,100
12060,note_on,,,,,0,0,1,,,,,0,,,,71,100
12060,note_on,,,,,60,0,1,,,,,0,,,,72,0
12120,note_on,,,,,0,0,2,,,,,1,,,,60,100
12120,note_on,,,,,60,0,1,,,,,0,,,,71,0
12120,note_on,,,,,0,0,1,,,,,0,,,,76,100
12120,note_on,,,,,60,0,2,,,,,1,,,,55,0
12165,note_on,,,,,0,0,1,,,,,0,,,,79,100
12165,note_on,,,,,45,0,1,,,,,0,,,,76,0
12180,note_on,,,,,0,0,2,,,,,1,,,,57,100
12180,note_on,,,,,15,0,1,,,,,0,,,,79,0
12180,note_on,,,,,60,0,2,,,,,1,,,,60,0
12180,note_on,,,,,0,0,1,,,,,0,,,,78,100
12225,note_on,,,,,45,0,1,,,,,0,,,,78,0
12225,note_on,,,,,0,0,1,,,,,0,,,,76,100
12240,note_on,,,,,0,0,2,,,,,1,,,,59,100
12240,note_on,,,,,15,0,1,,,,,0,,,,76,0
12240,note_on,,,,,0,0,1,,,,,0,,,,75,100
12240,note_on,,,,,60,0,2,,,,,1,,,,57,0
12255,note_on,,,,,15,0,1,,,,,0,,,,75,0
12255,note_on,,,,,0,0,1,,,,,0,,,,76,100
12270,note_on,,,,,15,0,1,,,,,0,,,,76,0
12270,note_on,,,,,0,0,1,,,,,0,,,,75,100
12285,note_on,,,,,15,0,1,,,,,0,,,,75,0
12285,note_on,,,,,0,0,1,,,,,0,,,,76,100
12300,note_on,,,,,15,0,1,,,,,0,,,,76,0
12300,note_on,,,,,0,0,1,,,,,0,,,,75,100
12300,note_on,,,,,60,0,2,,,,,1,,,,59,0
12300,note_on,,,,,0,0,2,,,,,1,,,,54,100
12315,note_on,,,,,15,0,1,,,,,0,,,,75,0
12315,note_on,,,,,0,0,1,,,,,0,,,,76,100
12330,note_on,,,,,0,0,1,,,,,0,,,,75,100
12330,note_on,,,,,15,0,1,,,,,0,,,,76,0
12345,note_on,,,,,0,0,1,,,,,0,,,,76,100
12345,note_on,,,,,15,0,1,,,,,0,,,,75,0
12360,note_on,,,,,0,0,1,,,,,0,,,,75,100
12360,note_on,,,,,15,0,1,,,,,0,,,,76,0
12360,note_on,,,,,60,0,2,,,,,1,,,,54,0
12360,note_on,,,,,0,0,2,,,,,1,,,,47,100
12375,note_on,,,,,0,0,1,,,,,0,,,,76,100
12375,note_on,,,,,15,0,1,,,,,0,,,,75,0
12390,note_on,,,,,0,0,1,,,,,0,,,,75,100
12390,note_on,,,,,15,0,1,,,,,0,,,,76,0
12420,note_on,,,,,30,0,1,,,,,0,,,,75,0
12420,note_on,,,,,0,0,2,,,,,1,,,,59,100
12420,note_on,,,,,60,0,2,,,,,1,,,,47,0
12422,note_on,,,,,2,0,1,,,,,0,,,,83,110
12480,note_on,,,,,60,0,2,,,,,1,,,,59,0
12480,note_on,,,,,0,0,2,,,,,1,,,,57,100
12480,note_on,,,,,0,0,2,,,,,1,,,,54,100
12480,note_on,,,,,58,0,1,,,,,0,,,,84,110
12482,note_on,,,,,2,0,1,,,,,0,,,,83,0
12510,note_on,,,,,28,0,1,,,,,0,,,,84,0
12510,note_on,,,,,0,0,1,,,,,0,,,,83,106
12540,note_on,,,,,30,0,1,,,,,0,,,,83,0
12540,note_on,,,,,0,0,1,,,,,0,,,,81,104
12570,note_on,,,,,30,0,1,,,,,0,,,,81,0
12570,note_on,,,,,0,0,1,,,,,0,,,,79,100
12600,note_on,,,,,30,0,1,,,,,0,,,,79,0
12600,note_on,,,,,0,0,2,,,,,1,,,,50,100
12600,note_on,,,,,120,0,2,,,,,1,,,,54,0
12600,note_on,,,,,0,0,1,,,,,0,,,,78,100
12630,note_on,,,,,30,0,1,,,,,0,,,,78,0
12630,note_on,,,,,0,0,1,,,,,0,,,,81,100
12660,note_on,,,,,30,0,1,,,,,0,,,,81,0
12660,note_on,,,,,0,0,1,,,,,0,,,,79,100
12690,note_on,,,,,0,0,1,,,,,0,,,,81,100
12690,note_on,,,,,30,0,1,,,,,0,,,,79,0
12720,note_on,,,,,0,0,1,,,,,0,,,,83,100
12720,note_on,,,,,30,0,1,,,,,0,,,,81,0
12720,note_on,,,,,0,0,2,,,,,1,,,,52,100
12720,note_on,,,,,120,0,2,,,,,1,,,,50,0
12720,note_on,,,,,0,0,2,,,,,1,,,,57,0
12720,note_on,,,,,0,0,2,,,,,1,,,,55,100
12750,note_on,,,,,30,0,1,,,,,0,,,,83,0
12750,note_on,,,,,0,0,1,,,,,0,,,,81,100
12780,note_on,,,,,0,0,1,,,,,0,,,,79,100
12780,note_on,,,,,30,0,1,,,,,0,,,,81,0
12810,note_on,,,,,0,0,1,,,,,0,,,,78,100
12810,note_on,,,,,30,0,1,,,,,0,,,,79,0
12840,note_on,,,,,0,0,1,,,,,0,,,,76,100
12840,note_on,,,,,120,0,2,,,,,1,,,,52,0
12840,note_on,,,,,0,0,2,,,,,1,,,,48,100
12840,note_on,,,,,30,0,1,,,,,0,,,,78,0
12870,note_on,,,,,30,0,1,,,,,0,,,,76,0
12870,note_on,,,,,0,0,1,,,,,0,,,,79,100
12900,note_on,,,,,0,0,1,,,,,0,,,,78,100
12900,note_on,,,,,30,0,1,,,,,0,,,,79,0
12930,note_on,,,,,30,0,1,,,,,0,,,,78,0
12930,note_on,,,,,0,0,1,,,,,0,,,,79,100
12960,note_on,,,,,30,0,1,,,,,0,,,,79,0
12960,note_on,,,,,0,0,2,,,,,1,,,,55,0
12960,note_on,,,,,120,0,2,,,,,1,,,,48,0
12960,note_on,,,,,0,0,1,,,,,0,,,,81,100
12960,note_on,,,,,0,0,2,,,,,1,,,,60,100
12990,note_on,,,,,0,0,1,,,,,0,,,,79,100
12990,note_on,,,,,30,0,1,,,,,0,,,,81,0
13020,note_on,,,,,0,0,1,,,,,0,,,,78,100
13020,note_on,,,,,0,0,2,,,,,1,,,,57,100
13020,note_on,,,,,60,0,2,,,,,1,,,,60,0
13020,note_on,,,,,30,0,1,,,,,0,,,,79,0
13050,note_on,,,,,30,0,1,,,,,0,,,,78,0
13050,note_on,,,,,0,0,1,,,,,0,,,,76,100
13080,note_on,,,,,0,0,1,,,,,0,,,,75,100
13080,note_on,,,,,30,0,1,,,,,0,,,,76,0
13080,note_on,,,,,0,0,2,,,,,1,,,,59,100
13080,note_on,,,,,60,0,2,,,,,1,,,,57,0
13110,note_on,,,,,30,0,1,,,,,0,,,,75,0
13110,note_on,,,,,0,0,1,,,,,0,,,,76,100
13140,note_on,,,,,0,0,2,,,,,1,,,,47,100
13140,note_on,,,,,60,0,2,,,,,1,,,,59,0
13140,note_on,,,,,30,0,1,,,,,0,,,,76,0
13140,note_on,,,,,0,0,1,,,,,0,,,,78,100
13170,note_on,,,,,30,0,1,,,,,0,,,,78,0
13170,note_on,,,,,0,0,1,,,,,0,,,,75,100
13200,note_on,,,,,0,0,1,,,,,0,,,,76,100
13200,note_on,,,,,0,0,2,,,,,1,,,,52,100
13200,note_on,,,,,60,0,2,,,,,1,,,,47,0
13200,note_on,,,,,30,0,1,,,,,0,,,,75,0
13215,note_on,,,,,15,0,1,,,,,0,,,,76,0
13215,note_on,,,,,0,0,1,,,,,0,,,,78,100
13230,note_on,,,,,15,0,1,,,,,0,,,,78,0
13230,note_on,,,,,0,0,1,,,,,0,,,,76,100
13245,note_on,,,,,15,0,1,,,,,0,,,,76,0
13245,note_on,,,,,0,0,1,,,,,0,,,,78,100
13260,note_on,,,,,60,0,2,,,,,1,,,,52,0
13260,note_on,,,,,0,0,2,,,,,1,,,,47,100
13260,note_on,,,,,15,0,1,,,,,0,,,,78,0
13260,note_on,,,,,0,0,1,,,,,0,,,,76,100
13275,note_on,,,,,0,0,1,,,,,0,,,,78,100
13275,note_on,,,,,15,0,1,,,,,0,,,,76,0
13290,note_on,,,,,0,0,1,,,,,0,,,,76,100
13290,note_on,,,,,15,0,1,,,,,0,,,,78,0
13305,note_on,,,,,0,0,1,,,,,0,,,,78,100
13305,note_on,,,,,15,0,1,,,,,0,,,,76,0
13320,note_on,,,,,15,0,1,,,,,0,,,,78,0
13320,note_on,,,,,0,0,1,,,,,0,,,,76,100
13320,note_on,,,,,0,0,2,,,,,1,,,,40,100
13320,note_on,,,,,60,0,2,,,,,1,,,,47,0
13335,note_on,,,,,15,0,1,,,,,0,,,,76,0
13335,note_on,,,,,0,0,1,,,,,0,,,,78,100
13345,note_on,,,,,10,0,1,,,,,0,,,,78,0
13350,note_on,,,,,5,0,1,,,,,0,,,,67,100
13380,note_on,,,,,0,0,2,,,,,1,,,,52,100
13380,note_on,,,,,30,0,1,,,,,0,,,,67,0
13380,note_on,,,,,0,0,1,,,,,0,,,,69,100
13380,note_on,,,,,60,0,2,,,,,1,,,,40,0
13425,note_on,,,,,0,0,1,,,,,0,,,,71,100
13425,note_on,,,,,45,0,1,,,,,0,,,,69,0
13440,note_on,,,,,60,0,2,,,,,1,,,,52,0
13440,note_on,,,,,0,0,2,,,,,1,,,,54,100
13440,note_on,,,,,0,0,2,,,,,1,,,,50,100
13440,note_on,,,,,15,0,1,,,,,0,,,,71,0
13440,note_on,,,,,0,0,1,,,,,0,,,,72,100
13500,note_on,,,,,60,0,1,,,,,0,,,,72,0
13500,note_on,,,,,0,0,1,,,,,0,,,,69,100
13560,note_on,,,,,0,0,2,,,,,1,,,,57,100
13560,note_on,,,,,120,0,2,,,,,1,,,,54,0
13560,note_on,,,,,60,0,1,,,,,0,,,,69,0
13560,note_on,,,,,0,0,1,,,,,0,,,,66,100
13590,note_on,,,,,30,0,1,,,,,0,,,,66,0
13590,note_on,,,,,0,0,1,,,,,0,,,,74,100
13620,note_on,,,,,30,0,1,,,,,0,,,,74,0
13620,note_on,,,,,0,0,1,,,,,0,,,,72,100
13650,note_on,,,,,30,0,1,,,,,0,,,,72,0
13650,note_on,,,,,0,0,1,,,,,0,,,,74,100
13680,note_on,,,,,30,0,1,,,,,0,,,,74,0
13680,note_on,,,,,0,0,1,,,,,0,,,,71,100
13680,note_on,,,,,120,0,2,,,,,1,,,,57,0
13680,note_on,,,,,0,0,2,,,,,1,,,,50,0
13680,note_on,,,,,0,0,2,,,,,1,,,,55,100
13695,note_on,,,,,15,0,1,,,,,0,,,,71,0
13695,note_on,,,,,0,0,1,,,,,0,,,,72,100
13710,note_on,,,,,15,0,1,,,,,0,,,,72,0
13710,note_on,,,,,0,0,1,,,,,0,,,,71,100
13725,note_on,,,,,15,0,1,,,,,0,,,,71,0
13725,note_on,,,,,0,0,1,,,,,0,,,,72,100
13740,note_on,,,,,15,0,1,,,,,0,,,,72,0
13740,note_on,,,,,0,0,1,,,,,0,,,,71,100
13740,note_on,,,,,0,0,2,,,,,1,,,,50,100
13740,note_on,,,,,60,0,2,,,,,1,,,,55,0
13755,note_on,,,,,0,0,1,,,,,0,,,,72,100
13755,note_on,,,,,15,0,1,,,,,0,,,,71,0
13770,note_on,,,,,15,0,1,,,,,0,,,,72,0
13770,note_on,,,,,0,0,1,,,,,0,,,,71,100
13785,note_on,,,,,15,0,1,,,,,0,,,,71,0
13785,note_on,,,,,0,0,1,,,,,0,,,,72,100
13800,note_on,,,,,0,0,2,,,,,1,,,,43,100
13800,note_on,,,,,60,0,2,,,,,1,,,,50,0
13800,note_on,,,,,15,0,1,,,,,0,,,,72,0
13800,note_on,,,,,0,0,1,,,,,0,,,,71,100
13815,note_on,,,,,15,0,1,,,,,0,,,,71,0
13815,note_on,,,,,0,0,1,,,,,0,,,,72,100
13825,note_on,,,,,10,0,1,,,,,0,,,,72,0
13830,note_on,,,,,5,0,1,,,,,0,,,,71,100
13860,note_on,,,,,30,0,1,,,,,0,,,,71,0
13860,note_on,,,,,60,0,2,,,,,1,,,,43,0
13860,note_on,,,,,0,0,2,,,,,1,,,,55,100
13862,note_on,,,,,2,0,1,,,,,0,,,,72,110
13905,note_on,,,,,43,0,1,,,,,0,,,,74,100
13907,note_on,,,,,2,0,1,,,,,0,,,,72,0
13920,note_on,,,,,13,0,1,,,,,0,,,,74,0
13920,note_on,,,,,0,0,1,,,,,0,,,,76,100
13920,note_on,,,,,0,0,2,,,,,1,,,,48,100
13920,note_on,,,,,60,0,2,,,,,1,,,,55,0
13950,note_on,,,,,30,0,1,,,,,0,,,,76,0
13950,note_on,,,,,0,0,1,,,,,0,,,,74,100
13980,note_on,,,,,30,0,1,,,,,0,,,,74,0
13980,note_on,,,,,0,0,1,,,,,0,,,,72,100
13980,note_on,,,,,0,0,2,,,,,1,,,,55,100
13980,note_on,,,,,60,0,2,,,,,1,,,,48,0
14010,note_on,,,,,30,0,1,,,,,0,,,,72,0
14010,note_on,,,,,0,0,1,,,,,0,,,,71,100
14040,note_on,,,,,0,0,2,,,,,1,,,,60,100
14040,note_on,,,,,60,0,2,,,,,1,,,,55,0
14040,note_on,,,,,0,0,1,,,,,0,,,,72,100
14040,note_on,,,,,30,0,1,,,,,0,,,,71,0
14070,note_on,,,,,0,0,1,,,,,0,,,,64,100
14070,note_on,,,,,30,0,1,,,,,0,,,,72,0
14100,note_on,,,,,60,0,2,,,,,1,,,,60,0
14100,note_on,,,,,0,0,1,,,,,0,,,,69,100
14100,note_on,,,,,0,0,2,,,,,1,,,,48,100
14100,note_on,,,,,30,0,1,,,,,0,,,,64,0
14130,note_on,,,,,30,0,1,,,,,0,,,,69,0
14130,note_on,,,,,0,0,1,,,,,0,,,,67,100
14160,note_on,,,,,60,0,2,,,,,1,,,,48,0
14160,note_on,,,,,30,0,1,,,,,0,,,,67,0
14160,note_on,,,,,0,0,1,,,,,0,,,,66,100
14160,note_on,,,,,0,0,2,,,,,1,,,,50,100
14175,note_on,,,,,15,0,1,,,,,0,,,,66,0
14175,note_on,,,,,0,0,1,,,,,0,,,,67,100
14190,note_on,,,,,0,0,1,,,,,0,,,,66,100
14190,note_on,,,,,15,0,1,,,,,0,,,,67,0
14205,note_on,,,,,15,0,1,,,,,0,,,,66,0
14205,note_on,,,,,0,0,1,,,,,0,,,,67,100
14220,note_on,,,,,0,0,1,,,,,0,,,,66,100
14220,note_on,,,,,15,0,1,,,,,0,,,,67,0
14220,note_on,,,,,0,0,2,,,,,1,,,,45,100
14220,note_on,,,,,60,0,2,,,,,1,,,,50,0
14235,note_on,,,,,15,0,1,,,,,0,,,,66,0
14235,note_on,,,,,0,0,1,,,,,0,,,,67,100
14250,note_on,,,,,0,0,1,,,,,0,,,,66,100
14250,note_on,,,,,15,0,1,,,,,0,,,,67,0
14265,note_on,,,,,0,0,1,,,,,0,,,,67,100
14265,note_on,,,,,15,0,1,,,,,0,,,,66,0
14280,note_on,,,,,0,0,1,,,,,0,,,,66,100
14280,note_on,,,,,15,0,1,,,,,0,,,,67,0
14280,note_on,,,,,60,0,2,,,,,1,,,,45,0
14280,note_on,,,,,0,0,2,,,,,1,,,,38,100
14295,note_on,,,,,15,0,1,,,,,0,,,,66,0
14295,note_on,,,,,0,0,1,,,,,0,,,,67,100
14305,note_on,,,,,10,0,1,,,,,0,,,,67,0
14312,note_on,,,,,7,0,1,,,,,0,,,,69,110
14340,note_on,,,,,0,0,2,,,,,1,,,,50,100
14340,note_on,,,,,28,0,1,,,,,0,,,,71,100
14340,note_on,,,,,60,0,2,,,,,1,,,,38,0
14342,note_on,,,,,2,0,1,,,,,0,,,,69,0
14370,note_on,,,,,0,0,1,,,,,0,,,,72,100
14370,note_on,,,,,28,0,1,,,,,0,,,,71,0
14400,note_on,,,,,30,0,1,,,,,0,,,,72,0
14400,note_on,,,,,60,0,2,,,,,1,,,,50,0
14400,note_on,,,,,0,0,2,,,,,1,,,,59,100
14430,note_on,,,,,30,0,1,,,,,0,,,,74,100
14460,note_on,,,,,60,0,2,,,,,1,,,,59,0
14460,note_on,,,,,0,0,2,,,,,1,,,,55,100
14490,note_on,,,,,0,0,1,,,,,0,,,,71,100
14490,note_on,,,,,60,0,1,,,,,0,,,,74,0
14520,note_on,,,,,60,0,2,,,,,1,,,,55,0
14520,note_on,,,,,0,0,2,,,,,1,,,,57,100
14550,note_on,,,,,60,0,1,,,,,0,,,,71,0
14550,note_on,,,,,0,0,1,,,,,0,,,,72,100
14580,note_on,,,,,0,0,2,,,,,1,,,,54,100
14580,note_on,,,,,60,0,2,,,,,1,,,,57,0
14610,note_on,,,,,0,0,1,,,,,0,,,,69,100
14610,note_on,,,,,60,0,1,,,,,0,,,,72,0
14640,note_on,,,,,0,0,2,,,,,1,,,,55,100
14640,note_on,,,,,60,0,2,,,,,1,,,,54,0
14670,note_on,,,,,0,0,1,,,,,0,,,,71,100
14670,note_on,,,,,60,0,1,,,,,0,,,,69,0
14700,note_on,,,,,60,0,2,,,,,1,,,,55,0
14700,note_on,,,,,0,0,2,,,,,1,,,,52,100
14730,note_on,,,,,0,0,1,,,,,0,,,,67,100
14730,note_on,,,,,60,0,1,,,,,0,,,,71,0
14760,note_on,,,,,60,0,2,,,,,1,,,,52,0
14760,note_on,,,,,0,0,2,,,,,1,,,,54,100
14790,note_on,,,,,60,0,1,,,,,0,,,,67,0
14790,note_on,,,,,0,0,1,,,,,0,,,,69,100
14820,note_on,,,,,0,0,2,,,,,1,,,,50,100
14820,note_on,,,,,60,0,2,,,,,1,,,,54,0
14850,note_on,,,,,60,0,1,,,,,0,,,,69,0
14850,note_on,,,,,0,0,1,,,,,0,,,,66,100
14880,note_on,,,,,0,0,2,,,,,1,,,,52,100
14880,note_on,,,,,60,0,2,,,,,1,,,,50,0
14880,note_on,,,,,30,0,1,,,,,0,,,,66,0
14880,note_on,,,,,0,0,1,,,,,0,,,,67,100
14910,note_on,,,,,0,0,1,,,,,0,,,,69,100
14910,note_on,,,,,30,0,1,,,,,0,,,,67,0
14940,note_on,,,,,0,0,2,,,,,1,,,,48,100
14940,note_on,,,,,60,0,2,,,,,1,,,,52,0
14940,note_on,,,,,30,0,1,,,,,0,,,,69,0
14940,note_on,,,,,0,0,1,,,,,0,,,,67,100
14970,note_on,,,,,0,0,1,,,,,0,,,,69,100
14970,note_on,,,,,30,0,1,,,,,0,,,,67,0
15000,note_on,,,,,60,0,2,,,,,1,,,,48,0
15000,note_on,,,,,0,0,2,,,,,1,,,,50,100
15000,note_on,,,,,0,0,1,,,,,0,,,,67,100
15000,note_on,,,,,30,0,1,,,,,0,,,,69,0
15015,note_on,,,,,0,0,1,,,,,0,,,,69,100
15015,note_on,,,,,15,0,1,,,,,0,,,,67,0
15030,note_on,,,,,0,0,1,,,,,0,,,,67,100
15030,note_on,,,,,15,0,1,,,,,0,,,,69,0
15045,note_on,,,,,15,0,1,,,,,0,,,,67,0
15045,note_on,,,,,0,0,1,,,,,0,,,,69,100
15060,note_on,,,,,15,0,1,,,,,0,,,,69,0
15060,note_on,,,,,0,0,1,,,,,0,,,,67,100
15060,note_on,,,,,60,0,2,,,,,1,,,,50,0
15060,note_on,,,,,0,0,2,,,,,1,,,,38,100
15075,note_on,,,,,15,0,1,,,,,0,,,,67,0
15075,note_on,,,,,0,0,1,,,,,0,,,,69,100
15090,note_on,,,,,15,0,1,,,,,0,,,,69,0
15090,note_on,,,,,0,0,1,,,,,0,,,,67,100
15105,note_on,,,,,0,0,1,,,,,0,,,,69,100
15105,note_on,,,,,15,0,1,,,,,0,,,,67,0
15120,note_on,,,,,15,0,1,,,,,0,,,,69,0
15120,note_on,,,,,60,0,2,,,,,1,,,,38,0
15120,note_on,,,,,0,0,2,,,,,1,,,,55,100
15123,note_on,,,,,3,0,1,,,,,0,,,,67,110
15150,note_on,,,,,27,0,1,,,,,0,,,,71,100
15153,note_on,,,,,3,0,1,,,,,0,,,,67,0
15180,note_on,,,,,27,0,1,,,,,0,,,,71,0
15180,note_on,,,,,0,0,1,,,,,0,,,,74,100
15180,note_on,,,,,60,0,2,,,,,1,,,,55,0
15180,note_on,,,,,0,0,2,,,,,1,,,,50,100
15210,note_on,,,,,30,0,1,,,,,0,,,,74,0
15210,note_on,,,,,0,0,1,,,,,0,,,,71,100
15240,note_on,,,,,60,0,2,,,,,1,,,,50,0
15240,note_on,,,,,0,0,2,,,,,1,,,,43,100
15240,note_on,,,,,30,0,1,,,,,0,,,,71,0
15240,note_on,,,,,0,0,1,,,,,0,,,,67,100
15270,note_on,,,,,0,0,1,,,,,0,,,,62,100
15270,note_on,,,,,30,0,1,,,,,0,,,,67,0
15300,note_on,,,,,60,0,2,,,,,1,,,,43,0
15300,note_on,,,,,0,0,2,,,,,1,,,,55,100
15300,note_on,,,,,0,0,1,,,,,0,,,,59,100
15300,note_on,,,,,30,0,1,,,,,0,,,,62,0
15330,note_on,,,,,30,0,2,,,,,1,,,,55,0
15330,note_on,,,,,0,0,1,,,,,0,,,,62,100
15330,note_on,,,,,30,0,1,,,,,0,,,,59,0
15360,note_on,,,,,30,0,1,,,,,0,,,,62,0
15360,note_on,,,,,0,0,1,,,,,0,,,,62,100
15360,note_on,,,,,0,0,1,,,,,0,,,,59,100
15360,note_on,,,,,30,0,2,,,,,1,,,,55,100
15360,note_on,,,,,0,0,1,,,,,0,,,,67,100
15480,note_on,,,,,120,0,2,,,,,1,,,,50,100
15600,note_on,,,,,0,0,2,,,,,1,,,,43,100
15600,note_on,,,,,120,0,2,,,,,1,,,,50,0
15720,note_on,,,,,0,0,1,,,,,0,,,,62,0
15720,note_on,,,,,360,0,1,,,,,0,,,,67,0
15720,end_of_track,,,,,0,1,1,,,,,,,,,,
15720,note_on,,,,,0,0,2,,,,,1,,,,55,0
15720,note_on,,,,,120,0,2,,,,,1,,,,43,0
15720,end_of_track,,,,,0,1,2,,,,,,,,,,
15720,note_on,,,,,0,0,1,,,,,0,,,,59,0
