tick,type,numerator,denominator,clocks_per_click,notated_32nd_notes_per_beat,time,meta,track,data,tempo,control,value,channel,program,key,note,velocity
0,time_signature,6,8,96,8,0,1,0,,,,,,,,,
0,track_name,,,,,0,1,7,,,,,,,,,
0,key_signature,,,,,0,1,6,,,,,,,C,,
0,program_change,,,,,0,0,6,,,,,4,41,,,
0,control_change,,,,,0,0,6,,,7,127,4,,,,
0,control_change,,,,,0,0,6,,,10,104,4,,,,
0,control_change,,,,,0,0,6,,,0,0,4,,,,
0,track_name,,,,,0,1,6,,,,,,,,,
0,key_signature,,,,,0,1,5,,,,,,,C,,
0,program_change,,,,,0,0,5,,,,,3,48,,,
0,control_change,,,,,0,0,5,,,7,127,3,,,,
0,control_change,,,,,0,0,5,,,10,104,3,,,,
0,control_change,,,,,0,0,5,,,0,0,3,,,,
0,track_name,,,,,0,1,5,,,,,,,,,
0,key_signature,,,,,0,1,16,,,,,,,C,,
0,control_change,,,,,0,0,7,,,0,0,5,,,,
0,key_signature,,,,,0,1,4,,,,,,,C,,
0,control_change,,,,,0,0,4,,,7,127,2,,,,
0,control_change,,,,,0,0,4,,,10,24,2,,,,
0,control_change,,,,,0,0,4,,,0,0,2,,,,
0,track_name,,,,,0,1,4,,,,,,,,,
0,key_signature,,,,,0,1,3,,,,,,,C,,
0,program_change,,,,,0,0,3,,,,,8,42,,,
0,control_change,,,,,0,0,3,,,7,127,8,,,,
0,control_change,,,,,0,0,3,,,10,64,8,,,,
0,control_change,,,,,0,0,3,,,0,0,8,,,,
0,track_name,,,,,0,1,3,,,,,,,,,
0,key_signature,,,,,0,1,2,,,,,,,C,,
0,program_change,,,,,0,0,2,,,,,1,40,,,
0,control_change,,,,,0,0,2,,,7,127,1,,,,
0,control_change,,,,,0,0,2,,,10,104,1,,,,
0,program_change,,,,,0,0,4,,,,,2,48,,,
0,control_change,,,,,0,0,7,,,10,24,5,,,,
0,control_change,,,,,0,0,7,,,7,127,5,,,,
0,program_change,,,,,0,0,7,,,,,5,42,,,
0,end_of_track,,,,,0,1,15,,,,,,,,,
0,key_signature,,,,,0,1,15,,,,,,,C,,
0,track_name,,,,,0,1,15,,,,,,,,,
0,end_of_track,,,,,0,1,14,,,,,,,,,
0,key_signature,,,,,0,1,14,,,,,,,C,,
0,track_name,,,,,0,1,14,,,,,,,,,
0,end_of_track,,,,,0,1,13,,,,,,,,,
0,key_signature,,,,,0,1,13,,,,,,,C,,
0,track_name,,,,,0,1,13,,,,,,,,,
0,end_of_track,,,,,0,1,12,,,,,,,,,
0,key_signature,,,,,0,1,12,,,,,,,C,,
0,track_name,,,,,0,1,12,,,,,,,,,
0,end_of_track,,,,,0,1,11,,,,,,,,,
0,key_signature,,,,,0,1,11,,,,,,,C,,
0,track_name,,,,,0,1,11,,,,,,,,,
0,end_of_track,,,,,0,1,10,,,,,,,,,
0,key_signature,,,,,0,1,10,,,,,,,C,,
0,key_signature,,,,,0,1,7,,,,,,,C,,
0,track_name,,,,,0,1,8,,,,,,,,,
0,control_change,,,,,0,0,8,,,0,0,6,,,,
0,control_change,,,,,0,0,8,,,10,64,6,,,,
0,control_change,,,,,0,0,8,,,7,127,6,,,,
0,program_change,,,,,0,0,8,,,,,6,43,,,
0,control_change,,,,,0,0,2,,,0,0,1,,,,
0,key_signature,,,,,0,1,8,,,,,,,C,,
0,control_change,,,,,0,0,9,,,0,0,7,,,,
0,control_change,,,,,0,0,9,,,10,64,7,,,,
0,control_change,,,,,0,0,9,,,7,127,7,,,,
0,program_change,,,,,0,0,9,,,,,7,6,,,
0,key_signature,,,,,0,1,9,,,,,,,C,,
0,track_name,,,,,0,1,10,,,,,,,,,
0,track_name,,,,,0,1,9,,,,,,,,,
0,track_name,,,,,0,1,2,,,,,,,,,
0,end_of_track,,,,,0,1,16,,,,,,,,,
0,track_name,,,,,0,1,1,,,,,,,,,
0,note_on,,,,,0,0,1,,,,,0,,,76,92
0,key_signature,,,,,0,1,1,,,,,,,G,,
0,program_change,,,,,0,0,1,,,,,0,40,,,
0,control_change,,,,,0,0,1,,,7,127,0,,,,
0,control_change,,,,,0,0,1,,,10,24,0,,,,
0,control_change,,,,,0,0,1,,,0,0,0,,,,
0,end_of_track,,,,,0,1,0,,,,,,,,,
0,set_tempo,,,,,0,1,0,,705882,,,,,,,
0,sequencer_specific,,,,,0,1,0,"(0, 0, 65)",,,,,,,,
188,note_off,,,,,188,0,1,,,,,0,,,76,0
192,note_on,,,,,4,0,1,,,,,0,,,79,92
288,note_off,,,,,96,0,1,,,,,0,,,79,0
288,note_on,,,,,0,0,1,,,,,0,,,78,92
380,note_off,,,,,92,0,1,,,,,0,,,78,0
384,note_on,,,,,4,0,1,,,,,0,,,81,92
572,note_off,,,,,188,0,1,,,,,0,,,81,0
576,note_on,,,,,4,0,1,,,,,0,,,79,92
576,note_on,,,,,576,0,2,,,,,1,,,76,92
764,note_off,,,,,188,0,2,,,,,1,,,76,0
764,note_off,,,,,188,0,1,,,,,0,,,79,0
768,note_on,,,,,4,0,2,,,,,1,,,79,92
768,note_on,,,,,4,0,1,,,,,0,,,83,92
864,note_on,,,,,0,0,1,,,,,0,,,81,92
864,note_off,,,,,96,0,1,,,,,0,,,83,0
864,note_on,,,,,0,0,2,,,,,1,,,78,92
864,note_off,,,,,96,0,2,,,,,1,,,79,0
956,note_off,,,,,92,0,1,,,,,0,,,81,0
956,note_off,,,,,92,0,2,,,,,1,,,78,0
960,note_on,,,,,4,0,2,,,,,1,,,81,92
960,note_on,,,,,4,0,1,,,,,0,,,84,92
1148,note_off,,,,,188,0,1,,,,,0,,,84,0
1148,note_off,,,,,188,0,2,,,,,1,,,81,0
1152,note_on,,,,,4,0,1,,,,,0,,,83,92
1152,note_on,,,,,1152,0,3,,,,,8,,,64,92
1152,note_on,,,,,4,0,2,,,,,1,,,79,92
1340,note_off,,,,,188,0,3,,,,,8,,,64,0
1340,note_off,,,,,188,0,1,,,,,0,,,83,0
1340,note_off,,,,,188,0,2,,,,,1,,,79,0
1344,note_on,,,,,4,0,2,,,,,1,,,76,92
1344,note_on,,,,,4,0,3,,,,,8,,,55,92
1344,note_on,,,,,4,0,1,,,,,0,,,81,92
1440,note_on,,,,,0,0,1,,,,,0,,,79,92
1440,note_off,,,,,96,0,1,,,,,0,,,81,0
1532,note_off,,,,,188,0,2,,,,,1,,,76,0
1532,note_off,,,,,92,0,1,,,,,0,,,79,0
1532,note_off,,,,,188,0,3,,,,,8,,,55,0
1536,note_on,,,,,4,0,2,,,,,1,,,72,92
1536,note_on,,,,,4,0,1,,,,,0,,,78,92
1536,note_on,,,,,4,0,3,,,,,8,,,57,92
1632,note_on,,,,,0,0,1,,,,,0,,,76,92
1632,note_off,,,,,96,0,1,,,,,0,,,78,0
1724,note_off,,,,,188,0,2,,,,,1,,,72,0
1724,note_off,,,,,188,0,3,,,,,8,,,57,0
1724,note_off,,,,,92,0,1,,,,,0,,,76,0
1728,note_on,,,,,4,0,2,,,,,1,,,66,92
1728,note_on,,,,,4,0,3,,,,,8,,,59,92
1728,note_on,,,,,4,0,1,,,,,0,,,75,92
1916,note_off,,,,,188,0,3,,,,,8,,,59,0
1920,note_on,,,,,4,0,3,,,,,8,,,54,92
2016,note_on,,,,,0,0,3,,,,,8,,,57,92
2016,note_off,,,,,96,0,3,,,,,8,,,54,0
2108,note_off,,,,,92,0,3,,,,,8,,,57,0
2112,note_on,,,,,4,0,3,,,,,8,,,55,92
2208,note_on,,,,,0,0,3,,,,,8,,,54,92
2208,note_off,,,,,96,0,3,,,,,8,,,55,0
2240,note_off,,,,,512,0,2,,,,,1,,,66,0
2240,note_off,,,,,512,0,1,,,,,0,,,75,0
2300,note_off,,,,,92,0,3,,,,,8,,,54,0
2304,note_on,,,,,4,0,3,,,,,8,,,55,92
2304,note_on,,,,,64,0,1,,,,,0,,,64,92
2304,note_on,,,,,2304,0,4,,,,,2,,,64,108
2492,note_off,,,,,188,0,4,,,,,2,,,64,0
2492,note_off,,,,,188,0,3,,,,,8,,,55,0
2492,note_off,,,,,188,0,1,,,,,0,,,64,0
2496,note_on,,,,,4,0,4,,,,,2,,,67,108
2496,note_on,,,,,4,0,3,,,,,8,,,52,92
2496,note_on,,,,,4,0,1,,,,,0,,,67,92
2592,note_on,,,,,0,0,1,,,,,0,,,66,92
2592,note_off,,,,,96,0,4,,,,,2,,,67,0
2592,note_on,,,,,0,0,4,,,,,2,,,66,108
2592,note_off,,,,,96,0,1,,,,,0,,,67,0
2684,note_off,,,,,92,0,4,,,,,2,,,66,0
2684,note_off,,,,,92,0,1,,,,,0,,,66,0
2684,note_off,,,,,188,0,3,,,,,8,,,52,0
2688,note_on,,,,,4,0,1,,,,,0,,,69,92
2688,note_on,,,,,4,0,4,,,,,2,,,69,108
2876,note_off,,,,,188,0,1,,,,,0,,,69,0
2876,note_off,,,,,188,0,4,,,,,2,,,69,0
2880,note_on,,,,,2880,0,5,,,,,3,,,64,108
2880,note_on,,,,,4,0,4,,,,,2,,,67,108
2880,note_on,,,,,4,0,1,,,,,0,,,67,92
2880,note_on,,,,,640,0,2,,,,,1,,,64,92
3068,note_off,,,,,188,0,4,,,,,2,,,67,0
3068,note_off,,,,,188,0,2,,,,,1,,,64,0
3068,note_off,,,,,188,0,1,,,,,0,,,67,0
3068,note_off,,,,,188,0,5,,,,,3,,,64,0
3072,note_on,,,,,4,0,1,,,,,0,,,71,92
3072,note_on,,,,,4,0,5,,,,,3,,,67,108
3072,note_on,,,,,4,0,2,,,,,1,,,67,92
3072,note_on,,,,,4,0,4,,,,,2,,,71,108
3168,note_on,,,,,0,0,2,,,,,1,,,66,92
3168,note_off,,,,,96,0,2,,,,,1,,,67,0
3168,note_on,,,,,0,0,4,,,,,2,,,69,108
3168,note_on,,,,,0,0,1,,,,,0,,,69,92
3168,note_off,,,,,96,0,1,,,,,0,,,71,0
3168,note_off,,,,,96,0,5,,,,,3,,,67,0
3168,note_on,,,,,0,0,5,,,,,3,,,66,108
3168,note_off,,,,,96,0,4,,,,,2,,,71,0
3260,note_off,,,,,92,0,4,,,,,2,,,69,0
3260,note_off,,,,,92,0,5,,,,,3,,,66,0
3260,note_off,,,,,92,0,2,,,,,1,,,66,0
3260,note_off,,,,,92,0,1,,,,,0,,,69,0
3264,note_on,,,,,4,0,4,,,,,2,,,72,108
3264,note_on,,,,,4,0,5,,,,,3,,,69,108
3264,note_on,,,,,4,0,2,,,,,1,,,69,92
3264,note_on,,,,,4,0,1,,,,,0,,,72,92
3452,note_off,,,,,188,0,5,,,,,3,,,69,0
3452,note_off,,,,,188,0,1,,,,,0,,,72,0
3452,note_off,,,,,188,0,4,,,,,2,,,72,0
3452,note_off,,,,,188,0,2,,,,,1,,,69,0
3456,note_on,,,,,4,0,2,,,,,1,,,71,92
3456,note_on,,,,,4,0,1,,,,,0,,,71,92
3456,note_on,,,,,4,0,4,,,,,2,,,71,108
3456,note_on,,,,,772,0,3,,,,,8,,,55,92
3456,note_on,,,,,3456,0,9,,,,,7,,,55,60
3456,note_on,,,,,3456,0,8,,,,,6,,,43,75
3456,note_on,,,,,4,0,5,,,,,3,,,71,108
3456,note_on,,,,,3456,0,6,,,,,4,,,64,92
3456,note_on,,,,,3456,0,7,,,,,5,,,55,92
3644,note_off,,,,,188,0,6,,,,,4,,,64,0
3644,note_off,,,,,188,0,9,,,,,7,,,55,0
3644,note_off,,,,,188,0,8,,,,,6,,,43,0
3644,note_off,,,,,188,0,7,,,,,5,,,55,0
3644,note_off,,,,,188,0,2,,,,,1,,,71,0
3644,note_off,,,,,188,0,4,,,,,2,,,71,0
3644,note_off,,,,,188,0,3,,,,,8,,,55,0
3644,note_off,,,,,188,0,5,,,,,3,,,71,0
3644,note_off,,,,,188,0,1,,,,,0,,,71,0
3648,note_on,,,,,4,0,1,,,,,0,,,76,92
3648,note_on,,,,,4,0,4,,,,,2,,,76,108
3648,note_on,,,,,4,0,8,,,,,6,,,45,75
3648,note_on,,,,,4,0,5,,,,,3,,,69,108
3648,note_on,,,,,4,0,7,,,,,5,,,57,92
3648,note_on,,,,,4,0,2,,,,,1,,,69,92
3648,note_on,,,,,4,0,9,,,,,7,,,57,60
3648,note_on,,,,,4,0,3,,,,,8,,,57,92
3648,note_on,,,,,4,0,6,,,,,4,,,72,92
3744,note_on,,,,,0,0,5,,,,,3,,,67,108
3744,note_off,,,,,96,0,2,,,,,1,,,69,0
3744,note_on,,,,,0,0,2,,,,,1,,,67,92
3744,note_off,,,,,96,0,5,,,,,3,,,69,0
3836,note_off,,,,,188,0,3,,,,,8,,,57,0
3836,note_off,,,,,188,0,4,,,,,2,,,76,0
3836,note_off,,,,,92,0,5,,,,,3,,,67,0
3836,note_off,,,,,188,0,7,,,,,5,,,57,0
3836,note_off,,,,,92,0,2,,,,,1,,,67,0
3836,note_off,,,,,188,0,9,,,,,7,,,57,0
3836,note_off,,,,,188,0,8,,,,,6,,,45,0
3836,note_off,,,,,188,0,1,,,,,0,,,76,0
3836,note_off,,,,,188,0,6,,,,,4,,,72,0
3840,note_on,,,,,4,0,8,,,,,6,,,47,75
3840,note_on,,,,,4,0,4,,,,,2,,,75,108
3840,note_on,,,,,4,0,9,,,,,7,,,59,60
3840,note_on,,,,,4,0,7,,,,,5,,,59,92
3840,note_on,,,,,4,0,3,,,,,8,,,59,92
3840,note_on,,,,,4,0,6,,,,,4,,,71,92
3840,note_on,,,,,4,0,5,,,,,3,,,66,108
3840,note_on,,,,,4,0,1,,,,,0,,,75,92
3840,note_on,,,,,4,0,2,,,,,1,,,66,92
3936,note_off,,,,,96,0,5,,,,,3,,,66,0
3936,note_on,,,,,0,0,5,,,,,3,,,67,108
3936,note_off,,,,,96,0,2,,,,,1,,,66,0
3936,note_on,,,,,0,0,2,,,,,1,,,67,92
4028,note_off,,,,,188,0,7,,,,,5,,,59,0
4028,note_off,,,,,188,0,1,,,,,0,,,75,0
4028,note_off,,,,,188,0,4,,,,,2,,,75,0
4028,note_off,,,,,188,0,8,,,,,6,,,47,0
4028,note_off,,,,,92,0,5,,,,,3,,,67,0
4028,note_off,,,,,188,0,3,,,,,8,,,59,0
4028,note_off,,,,,92,0,2,,,,,1,,,67,0
4028,note_off,,,,,188,0,6,,,,,4,,,71,0
4028,note_off,,,,,188,0,9,,,,,7,,,59,0
4032,note_on,,,,,4,0,7,,,,,5,,,52,92
4032,note_on,,,,,4,0,5,,,,,3,,,64,108
4032,note_on,,,,,4,0,3,,,,,8,,,52,92
4032,note_on,,,,,4,0,2,,,,,1,,,64,92
4032,note_on,,,,,4,0,1,,,,,0,,,76,92
4032,note_on,,,,,4,0,6,,,,,4,,,71,92
4032,note_on,,,,,4,0,9,,,,,7,,,52,60
4032,note_on,,,,,4,0,4,,,,,2,,,76,108
4032,note_on,,,,,4,0,8,,,,,6,,,40,75
4544,note_off,,,,,512,0,3,,,,,8,,,52,0
4544,note_off,,,,,512,0,9,,,,,7,,,52,0
4544,note_off,,,,,512,0,1,,,,,0,,,76,0
4544,note_off,,,,,512,0,7,,,,,5,,,52,0
4544,note_off,,,,,512,0,4,,,,,2,,,76,0
4544,note_off,,,,,512,0,5,,,,,3,,,64,0
4544,note_off,,,,,512,0,2,,,,,1,,,64,0
4544,note_off,,,,,512,0,6,,,,,4,,,71,0
4544,note_off,,,,,512,0,8,,,,,6,,,40,0
4608,note_on,,,,,64,0,1,,,,,0,,,76,92
4796,note_off,,,,,188,0,1,,,,,0,,,76,0
4800,note_on,,,,,4,0,1,,,,,0,,,79,92
4896,note_off,,,,,96,0,1,,,,,0,,,79,0
4896,note_on,,,,,0,0,1,,,,,0,,,78,92
4988,note_off,,,,,92,0,1,,,,,0,,,78,0
4992,note_on,,,,,4,0,1,,,,,0,,,81,92
5180,note_off,,,,,188,0,1,,,,,0,,,81,0
5184,note_on,,,,,4,0,1,,,,,0,,,79,92
5184,note_on,,,,,640,0,2,,,,,1,,,76,92
5372,note_off,,,,,188,0,2,,,,,1,,,76,0
5372,note_off,,,,,188,0,1,,,,,0,,,79,0
5376,note_on,,,,,4,0,1,,,,,0,,,83,92
5376,note_on,,,,,4,0,2,,,,,1,,,79,92
5472,note_on,,,,,0,0,2,,,,,1,,,78,92
5472,note_off,,,,,96,0,2,,,,,1,,,79,0
5472,note_off,,,,,96,0,1,,,,,0,,,83,0
5472,note_on,,,,,0,0,1,,,,,0,,,81,92
5564,note_off,,,,,92,0,2,,,,,1,,,78,0
5564,note_off,,,,,92,0,1,,,,,0,,,81,0
5568,note_on,,,,,4,0,2,,,,,1,,,81,92
5568,note_on,,,,,4,0,1,,,,,0,,,84,92
5756,note_off,,,,,188,0,2,,,,,1,,,81,0
5756,note_off,,,,,188,0,1,,,,,0,,,84,0
5760,note_on,,,,,4,0,1,,,,,0,,,83,92
5760,note_on,,,,,4,0,2,,,,,1,,,79,92
5760,note_on,,,,,1216,0,3,,,,,8,,,64,92
5948,note_off,,,,,188,0,3,,,,,8,,,64,0
5948,note_off,,,,,188,0,2,,,,,1,,,79,0
5948,note_off,,,,,188,0,1,,,,,0,,,83,0
5952,note_on,,,,,4,0,2,,,,,1,,,76,92
5952,note_on,,,,,4,0,3,,,,,8,,,55,92
5952,note_on,,,,,4,0,1,,,,,0,,,81,92
6048,note_off,,,,,96,0,1,,,,,0,,,81,0
6048,note_on,,,,,0,0,1,,,,,0,,,79,92
6140,note_off,,,,,188,0,3,,,,,8,,,55,0
6140,note_off,,,,,92,0,1,,,,,0,,,79,0
6140,note_off,,,,,188,0,2,,,,,1,,,76,0
6144,note_on,,,,,4,0,3,,,,,8,,,57,92
6144,note_on,,,,,4,0,2,,,,,1,,,72,92
6144,note_on,,,,,4,0,1,,,,,0,,,78,92
6240,note_off,,,,,96,0,1,,,,,0,,,78,0
6240,note_on,,,,,0,0,1,,,,,0,,,76,92
6332,note_off,,,,,188,0,3,,,,,8,,,57,0
6332,note_off,,,,,188,0,2,,,,,1,,,72,0
6332,note_off,,,,,92,0,1,,,,,0,,,76,0
6336,note_on,,,,,4,0,2,,,,,1,,,66,92
6336,note_on,,,,,4,0,3,,,,,8,,,59,92
6336,note_on,,,,,4,0,1,,,,,0,,,75,92
6524,note_off,,,,,188,0,3,,,,,8,,,59,0
6528,note_on,,,,,4,0,3,,,,,8,,,54,92
6624,note_on,,,,,0,0,3,,,,,8,,,57,92
6624,note_off,,,,,96,0,3,,,,,8,,,54,0
6716,note_off,,,,,92,0,3,,,,,8,,,57,0
6720,note_on,,,,,4,0,3,,,,,8,,,55,92
6816,note_off,,,,,96,0,3,,,,,8,,,55,0
6816,note_on,,,,,0,0,3,,,,,8,,,54,92
6848,note_off,,,,,512,0,2,,,,,1,,,66,0
6848,note_off,,,,,512,0,1,,,,,0,,,75,0
6908,note_off,,,,,92,0,3,,,,,8,,,54,0
6912,note_on,,,,,64,0,1,,,,,0,,,64,92
6912,note_on,,,,,2368,0,4,,,,,2,,,64,108
6912,note_on,,,,,4,0,3,,,,,8,,,55,92
7100,note_off,,,,,188,0,1,,,,,0,,,64,0
7100,note_off,,,,,188,0,3,,,,,8,,,55,0
7100,note_off,,,,,188,0,4,,,,,2,,,64,0
7104,note_on,,,,,4,0,4,,,,,2,,,67,108
7104,note_on,,,,,4,0,1,,,,,0,,,67,92
7104,note_on,,,,,4,0,3,,,,,8,,,52,92
7200,note_on,,,,,0,0,4,,,,,2,,,66,108
7200,note_off,,,,,96,0,1,,,,,0,,,67,0
7200,note_on,,,,,0,0,1,,,,,0,,,66,92
7200,note_off,,,,,96,0,4,,,,,2,,,67,0
7292,note_off,,,,,92,0,4,,,,,2,,,66,0
7292,note_off,,,,,92,0,1,,,,,0,,,66,0
7292,note_off,,,,,188,0,3,,,,,8,,,52,0
7296,note_on,,,,,4,0,1,,,,,0,,,69,92
7296,note_on,,,,,4,0,4,,,,,2,,,69,108
7484,note_off,,,,,188,0,1,,,,,0,,,69,0
7484,note_off,,,,,188,0,4,,,,,2,,,69,0
7488,note_on,,,,,4,0,4,,,,,2,,,67,108
7488,note_on,,,,,640,0,2,,,,,1,,,64,92
7488,note_on,,,,,4,0,1,,,,,0,,,67,92
7488,note_on,,,,,2944,0,5,,,,,3,,,64,108
7676,note_off,,,,,188,0,5,,,,,3,,,64,0
7676,note_off,,,,,188,0,1,,,,,0,,,67,0
7676,note_off,,,,,188,0,2,,,,,1,,,64,0
7676,note_off,,,,,188,0,4,,,,,2,,,67,0
7680,note_on,,,,,4,0,1,,,,,0,,,71,92
7680,note_on,,,,,4,0,5,,,,,3,,,67,108
7680,note_on,,,,,4,0,4,,,,,2,,,71,108
7680,note_on,,,,,4,0,2,,,,,1,,,67,92
7776,note_on,,,,,0,0,5,,,,,3,,,66,108
7776,note_on,,,,,0,0,2,,,,,1,,,66,92
7776,note_off,,,,,96,0,1,,,,,0,,,71,0
7776,note_on,,,,,0,0,1,,,,,0,,,69,92
7776,note_off,,,,,96,0,5,,,,,3,,,67,0
7776,note_off,,,,,96,0,2,,,,,1,,,67,0
7776,note_off,,,,,96,0,4,,,,,2,,,71,0
7776,note_on,,,,,0,0,4,,,,,2,,,69,108
7868,note_off,,,,,92,0,5,,,,,3,,,66,0
7868,note_off,,,,,92,0,2,,,,,1,,,66,0
7868,note_off,,,,,92,0,1,,,,,0,,,69,0
7868,note_off,,,,,92,0,4,,,,,2,,,69,0
7872,note_on,,,,,4,0,5,,,,,3,,,69,108
7872,note_on,,,,,4,0,2,,,,,1,,,69,92
7872,note_on,,,,,4,0,1,,,,,0,,,72,92
7872,note_on,,,,,4,0,4,,,,,2,,,72,108
8060,note_off,,,,,188,0,5,,,,,3,,,69,0
8060,note_off,,,,,188,0,4,,,,,2,,,72,0
8060,note_off,,,,,188,0,2,,,,,1,,,69,0
8060,note_off,,,,,188,0,1,,,,,0,,,72,0
8064,note_on,,,,,772,0,3,,,,,8,,,55,92
8064,note_on,,,,,3520,0,9,,,,,7,,,55,60
8064,note_on,,,,,4,0,2,,,,,1,,,71,92
8064,note_on,,,,,3520,0,7,,,,,5,,,55,92
8064,note_on,,,,,3520,0,8,,,,,6,,,43,75
8064,note_on,,,,,3520,0,6,,,,,4,,,64,92
8064,note_on,,,,,4,0,4,,,,,2,,,71,108
8064,note_on,,,,,4,0,5,,,,,3,,,71,108
8064,note_on,,,,,4,0,1,,,,,0,,,71,92
8252,note_off,,,,,188,0,8,,,,,6,,,43,0
8252,note_off,,,,,188,0,6,,,,,4,,,64,0
8252,note_off,,,,,188,0,5,,,,,3,,,71,0
8252,note_off,,,,,188,0,3,,,,,8,,,55,0
8252,note_off,,,,,188,0,7,,,,,5,,,55,0
8252,note_off,,,,,188,0,2,,,,,1,,,71,0
8252,note_off,,,,,188,0,9,,,,,7,,,55,0
8252,note_off,,,,,188,0,4,,,,,2,,,71,0
8252,note_off,,,,,188,0,1,,,,,0,,,71,0
8256,note_on,,,,,4,0,1,,,,,0,,,76,92
8256,note_on,,,,,4,0,2,,,,,1,,,69,92
8256,note_on,,,,,4,0,5,,,,,3,,,69,108
8256,note_on,,,,,4,0,3,,,,,8,,,57,92
8256,note_on,,,,,4,0,9,,,,,7,,,57,60
8256,note_on,,,,,4,0,7,,,,,5,,,57,92
8256,note_on,,,,,4,0,8,,,,,6,,,45,75
8256,note_on,,,,,4,0,6,,,,,4,,,72,92
8256,note_on,,,,,4,0,4,,,,,2,,,76,108
8352,note_on,,,,,0,0,5,,,,,3,,,67,108
8352,note_off,,,,,96,0,2,,,,,1,,,69,0
8352,note_on,,,,,0,0,2,,,,,1,,,67,92
8352,note_off,,,,,96,0,5,,,,,3,,,69,0
8444,note_off,,,,,188,0,9,,,,,7,,,57,0
8444,note_off,,,,,188,0,6,,,,,4,,,72,0
8444,note_off,,,,,188,0,1,,,,,0,,,76,0
8444,note_off,,,,,92,0,5,,,,,3,,,67,0
8444,note_off,,,,,92,0,2,,,,,1,,,67,0
8444,note_off,,,,,188,0,4,,,,,2,,,76,0
8444,note_off,,,,,188,0,8,,,,,6,,,45,0
8444,note_off,,,,,188,0,3,,,,,8,,,57,0
8444,note_off,,,,,188,0,7,,,,,5,,,57,0
8448,note_on,,,,,4,0,6,,,,,4,,,71,92
8448,note_on,,,,,4,0,4,,,,,2,,,75,108
8448,note_on,,,,,4,0,7,,,,,5,,,59,92
8448,note_on,,,,,4,0,9,,,,,7,,,59,60
8448,note_on,,,,,4,0,2,,,,,1,,,66,92
8448,note_on,,,,,4,0,1,,,,,0,,,75,92
8448,note_on,,,,,4,0,3,,,,,8,,,59,92
8448,note_on,,,,,4,0,5,,,,,3,,,66,108
8448,note_on,,,,,4,0,8,,,,,6,,,47,75
8544,note_off,,,,,96,0,5,,,,,3,,,66,0
8544,note_off,,,,,96,0,2,,,,,1,,,66,0
8544,note_on,,,,,0,0,2,,,,,1,,,67,92
8544,note_on,,,,,0,0,5,,,,,3,,,67,108
8636,note_off,,,,,92,0,2,,,,,1,,,67,0
8636,note_off,,,,,92,0,5,,,,,3,,,67,0
8636,note_off,,,,,188,0,4,,,,,2,,,75,0
8636,note_off,,,,,188,0,6,,,,,4,,,71,0
8636,note_off,,,,,188,0,9,,,,,7,,,59,0
8636,note_off,,,,,188,0,1,,,,,0,,,75,0
8636,note_off,,,,,188,0,3,,,,,8,,,59,0
8636,note_off,,,,,188,0,7,,,,,5,,,59,0
8636,note_off,,,,,188,0,8,,,,,6,,,47,0
8640,note_on,,,,,4,0,3,,,,,8,,,52,92
8640,note_on,,,,,4,0,6,,,,,4,,,71,92
8640,note_on,,,,,4,0,7,,,,,5,,,52,92
8640,note_on,,,,,4,0,2,,,,,1,,,64,92
8640,note_on,,,,,4,0,8,,,,,6,,,40,75
8640,note_on,,,,,4,0,1,,,,,0,,,76,92
8640,note_on,,,,,4,0,4,,,,,2,,,76,108
8640,note_on,,,,,4,0,9,,,,,7,,,52,60
8640,note_on,,,,,4,0,5,,,,,3,,,64,108
9152,note_off,,,,,512,0,2,,,,,1,,,64,0
9152,note_off,,,,,512,0,7,,,,,5,,,52,0
9152,note_off,,,,,512,0,8,,,,,6,,,40,0
9152,note_off,,,,,512,0,3,,,,,8,,,52,0
9152,note_off,,,,,512,0,1,,,,,0,,,76,0
9152,note_off,,,,,512,0,5,,,,,3,,,64,0
9152,note_off,,,,,512,0,4,,,,,2,,,76,0
9152,note_off,,,,,512,0,9,,,,,7,,,52,0
9152,note_off,,,,,512,0,6,,,,,4,,,71,0
9216,note_on,,,,,64,0,1,,,,,0,,,74,92
9216,note_on,,,,,64,0,2,,,,,1,,,71,92
9216,note_on,,,,,64,0,3,,,,,8,,,55,92
9404,note_off,,,,,188,0,1,,,,,0,,,74,0
9404,note_off,,,,,188,0,2,,,,,1,,,71,0
9408,note_on,,,,,4,0,1,,,,,0,,,76,92
9408,note_on,,,,,4,0,2,,,,,1,,,72,92
9504,note_on,,,,,0,0,2,,,,,1,,,71,92
9504,note_on,,,,,0,0,1,,,,,0,,,74,92
9504,note_off,,,,,96,0,1,,,,,0,,,76,0
9504,note_off,,,,,96,0,2,,,,,1,,,72,0
9536,note_off,,,,,320,0,3,,,,,8,,,55,0
9596,note_off,,,,,92,0,2,,,,,1,,,71,0
9596,note_off,,,,,92,0,1,,,,,0,,,74,0
9600,note_on,,,,,4,0,2,,,,,1,,,76,92
9600,note_on,,,,,64,0,3,,,,,8,,,59,92
9600,note_on,,,,,4,0,1,,,,,0,,,79,92
9788,note_off,,,,,188,0,1,,,,,0,,,79,0
9788,note_off,,,,,188,0,2,,,,,1,,,76,0
9788,note_off,,,,,188,0,3,,,,,8,,,59,0
9792,note_on,,,,,4,0,3,,,,,8,,,60,92
9792,note_on,,,,,4,0,2,,,,,1,,,72,92
9792,note_on,,,,,4,0,1,,,,,0,,,76,92
9980,note_off,,,,,188,0,1,,,,,0,,,76,0
9980,note_off,,,,,188,0,3,,,,,8,,,60,0
9980,note_off,,,,,188,0,2,,,,,1,,,72,0
9984,note_on,,,,,4,0,1,,,,,0,,,74,92
9984,note_on,,,,,4,0,3,,,,,8,,,55,92
9984,note_on,,,,,4,0,2,,,,,1,,,71,92
10304,note_off,,,,,320,0,1,,,,,0,,,74,0
10304,note_off,,,,,320,0,3,,,,,8,,,55,0
10304,note_off,,,,,320,0,2,,,,,1,,,71,0
10368,note_on,,,,,1216,0,4,,,,,2,,,74,108
10368,note_on,,,,,1216,0,6,,,,,4,,,62,92
10368,note_on,,,,,1216,0,9,,,,,7,,,55,60
10368,note_on,,,,,1216,0,5,,,,,3,,,71,108
10368,note_on,,,,,1216,0,8,,,,,6,,,43,75
10368,note_on,,,,,1216,0,7,,,,,5,,,55,92
10556,note_off,,,,,188,0,9,,,,,7,,,55,0
10556,note_off,,,,,188,0,5,,,,,3,,,71,0
10556,note_off,,,,,188,0,8,,,,,6,,,43,0
10556,note_off,,,,,188,0,7,,,,,5,,,55,0
10556,note_off,,,,,188,0,6,,,,,4,,,62,0
10556,note_off,,,,,188,0,4,,,,,2,,,74,0
10560,note_on,,,,,4,0,4,,,,,2,,,76,108
10560,note_on,,,,,4,0,7,,,,,5,,,55,92
10560,note_on,,,,,4,0,9,,,,,7,,,55,60
10560,note_on,,,,,4,0,6,,,,,4,,,62,92
10560,note_on,,,,,4,0,5,,,,,3,,,72,108
10560,note_on,,,,,4,0,8,,,,,6,,,43,75
10656,note_on,,,,,0,0,5,,,,,3,,,71,108
10656,note_off,,,,,96,0,4,,,,,2,,,76,0
10656,note_on,,,,,0,0,4,,,,,2,,,74,108
10656,note_off,,,,,96,0,5,,,,,3,,,72,0
10748,note_off,,,,,92,0,5,,,,,3,,,71,0
10748,note_off,,,,,92,0,4,,,,,2,,,74,0
10748,note_off,,,,,188,0,6,,,,,4,,,62,0
10748,note_off,,,,,188,0,9,,,,,7,,,55,0
10748,note_off,,,,,188,0,7,,,,,5,,,55,0
10748,note_off,,,,,188,0,8,,,,,6,,,43,0
10752,note_on,,,,,4,0,4,,,,,2,,,79,108
10752,note_on,,,,,4,0,6,,,,,4,,,62,92
10752,note_on,,,,,4,0,8,,,,,6,,,43,75
10752,note_on,,,,,4,0,9,,,,,7,,,55,60
10752,note_on,,,,,4,0,5,,,,,3,,,76,108
10752,note_on,,,,,4,0,7,,,,,5,,,55,92
10940,note_off,,,,,188,0,4,,,,,2,,,79,0
10940,note_off,,,,,188,0,9,,,,,7,,,55,0
10940,note_off,,,,,188,0,5,,,,,3,,,76,0
10940,note_off,,,,,188,0,8,,,,,6,,,43,0
10940,note_off,,,,,188,0,6,,,,,4,,,62,0
10940,note_off,,,,,188,0,7,,,,,5,,,55,0
10944,note_on,,,,,4,0,9,,,,,7,,,55,60
10944,note_on,,,,,4,0,7,,,,,5,,,55,92
10944,note_on,,,,,4,0,4,,,,,2,,,76,108
10944,note_on,,,,,4,0,8,,,,,6,,,43,75
10944,note_on,,,,,4,0,5,,,,,3,,,72,108
10944,note_on,,,,,4,0,6,,,,,4,,,67,92
11132,note_off,,,,,188,0,5,,,,,3,,,72,0
11132,note_off,,,,,188,0,7,,,,,5,,,55,0
11132,note_off,,,,,188,0,9,,,,,7,,,55,0
11132,note_off,,,,,188,0,4,,,,,2,,,76,0
11132,note_off,,,,,188,0,8,,,,,6,,,43,0
11132,note_off,,,,,188,0,6,,,,,4,,,67,0
11136,note_on,,,,,4,0,5,,,,,3,,,71,108
11136,note_on,,,,,4,0,8,,,,,6,,,31,75
11136,note_on,,,,,4,0,6,,,,,4,,,67,92
11136,note_on,,,,,4,0,4,,,,,2,,,74,108
11136,note_on,,,,,4,0,7,,,,,5,,,43,92
11136,note_on,,,,,4,0,9,,,,,7,,,43,60
11456,note_off,,,,,320,0,9,,,,,7,,,43,0
11456,note_off,,,,,320,0,7,,,,,5,,,43,0
11456,note_off,,,,,320,0,8,,,,,6,,,31,0
11456,note_off,,,,,320,0,5,,,,,3,,,71,0
11456,note_off,,,,,320,0,4,,,,,2,,,74,0
11456,note_off,,,,,320,0,6,,,,,4,,,67,0
11520,note_on,,,,,1216,0,3,,,,,8,,,60,92
11520,note_on,,,,,1216,0,1,,,,,0,,,79,92
11520,note_on,,,,,1216,0,2,,,,,1,,,76,92
11708,note_off,,,,,188,0,1,,,,,0,,,79,0
11708,note_off,,,,,188,0,2,,,,,1,,,76,0
11712,note_on,,,,,4,0,1,,,,,0,,,81,92
11712,note_on,,,,,4,0,2,,,,,1,,,77,92
11808,note_on,,,,,0,0,1,,,,,0,,,79,92
11808,note_off,,,,,96,0,2,,,,,1,,,77,0
11808,note_off,,,,,96,0,1,,,,,0,,,81,0
11808,note_on,,,,,0,0,2,,,,,1,,,76,92
11840,note_off,,,,,320,0,3,,,,,8,,,60,0
11900,note_off,,,,,92,0,1,,,,,0,,,79,0
11900,note_off,,,,,92,0,2,,,,,1,,,76,0
11904,note_on,,,,,4,0,1,,,,,0,,,84,92
11904,note_on,,,,,64,0,3,,,,,8,,,64,92
11904,note_on,,,,,4,0,2,,,,,1,,,79,92
12092,note_off,,,,,188,0,3,,,,,8,,,64,0
12092,note_off,,,,,188,0,1,,,,,0,,,84,0
12092,note_off,,,,,188,0,2,,,,,1,,,79,0
12096,note_on,,,,,4,0,1,,,,,0,,,82,92
12096,note_on,,,,,4,0,2,,,,,1,,,77,92
12096,note_on,,,,,4,0,3,,,,,8,,,65,92
12192,note_on,,,,,0,0,1,,,,,0,,,81,92
12192,note_off,,,,,96,0,1,,,,,0,,,82,0
12284,note_off,,,,,188,0,2,,,,,1,,,77,0
12284,note_off,,,,,188,0,3,,,,,8,,,65,0
12284,note_off,,,,,92,0,1,,,,,0,,,81,0
12288,note_on,,,,,4,0,1,,,,,0,,,79,92
12288,note_on,,,,,4,0,3,,,,,8,,,60,92
12288,note_on,,,,,4,0,2,,,,,1,,,76,92
12608,note_off,,,,,320,0,2,,,,,1,,,76,0
12608,note_off,,,,,320,0,3,,,,,8,,,60,0
12608,note_off,,,,,320,0,1,,,,,0,,,79,0
12672,note_on,,,,,1216,0,5,,,,,3,,,64,108
12672,note_on,,,,,1216,0,4,,,,,2,,,67,108
12672,note_on,,,,,1216,0,9,,,,,7,,,48,60
12672,note_on,,,,,1216,0,7,,,,,5,,,48,92
12672,note_on,,,,,1216,0,8,,,,,6,,,36,75
12672,note_on,,,,,1216,0,6,,,,,4,,,55,92
12860,note_off,,,,,188,0,5,,,,,3,,,64,0
12860,note_off,,,,,188,0,4,,,,,2,,,67,0
12860,note_off,,,,,188,0,9,,,,,7,,,48,0
12860,note_off,,,,,188,0,7,,,,,5,,,48,0
12860,note_off,,,,,188,0,6,,,,,4,,,55,0
12860,note_off,,,,,188,0,8,,,,,6,,,36,0
12864,note_on,,,,,4,0,8,,,,,6,,,36,75
12864,note_on,,,,,4,0,7,,,,,5,,,48,92
12864,note_on,,,,,4,0,4,,,,,2,,,69,108
12864,note_on,,,,,4,0,5,,,,,3,,,64,108
12864,note_on,,,,,4,0,9,,,,,7,,,48,60
12864,note_on,,,,,4,0,6,,,,,4,,,55,92
12960,note_on,,,,,0,0,4,,,,,2,,,67,108
12960,note_off,,,,,96,0,4,,,,,2,,,69,0
13052,note_off,,,,,188,0,6,,,,,4,,,55,0
13052,note_off,,,,,92,0,4,,,,,2,,,67,0
13052,note_off,,,,,188,0,9,,,,,7,,,48,0
13052,note_off,,,,,188,0,8,,,,,6,,,36,0
13052,note_off,,,,,188,0,5,,,,,3,,,64,0
13052,note_off,,,,,188,0,7,,,,,5,,,48,0
13056,note_on,,,,,4,0,4,,,,,2,,,72,108
13056,note_on,,,,,4,0,9,,,,,7,,,48,60
13056,note_on,,,,,4,0,6,,,,,4,,,55,92
13056,note_on,,,,,4,0,5,,,,,3,,,64,108
13056,note_on,,,,,4,0,7,,,,,5,,,48,92
13056,note_on,,,,,4,0,8,,,,,6,,,36,75
13244,note_off,,,,,188,0,7,,,,,5,,,48,0
13244,note_off,,,,,188,0,5,,,,,3,,,64,0
13244,note_off,,,,,188,0,9,,,,,7,,,48,0
13244,note_off,,,,,188,0,4,,,,,2,,,72,0
13244,note_off,,,,,188,0,6,,,,,4,,,55,0
13244,note_off,,,,,188,0,8,,,,,6,,,36,0
13248,note_on,,,,,4,0,9,,,,,7,,,48,60
13248,note_on,,,,,4,0,5,,,,,3,,,65,108
13248,note_on,,,,,4,0,4,,,,,2,,,69,108
13248,note_on,,,,,4,0,6,,,,,4,,,60,92
13248,note_on,,,,,4,0,8,,,,,6,,,36,75
13248,note_on,,,,,4,0,7,,,,,5,,,48,92
13436,note_off,,,,,188,0,6,,,,,4,,,60,0
13436,note_off,,,,,188,0,4,,,,,2,,,69,0
13436,note_off,,,,,188,0,8,,,,,6,,,36,0
13436,note_off,,,,,188,0,5,,,,,3,,,65,0
13436,note_off,,,,,188,0,7,,,,,5,,,48,0
13436,note_off,,,,,188,0,9,,,,,7,,,48,0
13440,note_on,,,,,4,0,4,,,,,2,,,67,108
13440,note_on,,,,,4,0,6,,,,,4,,,60,92
13440,note_on,,,,,4,0,5,,,,,3,,,64,108
13440,note_on,,,,,4,0,7,,,,,5,,,36,92
13440,note_on,,,,,4,0,9,,,,,7,,,36,60
13440,note_on,,,,,4,0,8,,,,,6,,,24,75
13760,note_off,,,,,320,0,6,,,,,4,,,60,0
13760,note_off,,,,,320,0,9,,,,,7,,,36,0
13760,note_off,,,,,320,0,5,,,,,3,,,64,0
13760,note_off,,,,,320,0,8,,,,,6,,,24,0
13760,note_off,,,,,320,0,7,,,,,5,,,36,0
13760,note_off,,,,,320,0,4,,,,,2,,,67,0
13824,note_on,,,,,1216,0,2,,,,,1,,,77,92
13824,note_on,,,,,1216,0,3,,,,,8,,,62,92
13824,note_on,,,,,1216,0,1,,,,,0,,,82,92
14012,note_off,,,,,188,0,3,,,,,8,,,62,0
14012,note_off,,,,,188,0,1,,,,,0,,,82,0
14012,note_off,,,,,188,0,2,,,,,1,,,77,0
14016,note_on,,,,,4,0,2,,,,,1,,,77,92
14016,note_on,,,,,4,0,1,,,,,0,,,82,92
14016,note_on,,,,,4,0,3,,,,,8,,,62,92
14204,note_off,,,,,188,0,1,,,,,0,,,82,0
14204,note_off,,,,,188,0,3,,,,,8,,,62,0
14204,note_off,,,,,188,0,2,,,,,1,,,77,0
14208,note_on,,,,,4,0,3,,,,,8,,,60,92
14208,note_on,,,,,4,0,2,,,,,1,,,76,92
14208,note_on,,,,,4,0,1,,,,,0,,,81,92
14396,note_off,,,,,188,0,3,,,,,8,,,60,0
14396,note_off,,,,,188,0,1,,,,,0,,,81,0
14396,note_off,,,,,188,0,2,,,,,1,,,76,0
14400,note_on,,,,,4,0,3,,,,,8,,,59,92
14400,note_on,,,,,4,0,2,,,,,1,,,74,92
14400,note_on,,,,,4,0,1,,,,,0,,,80,92
14684,note_off,,,,,284,0,1,,,,,0,,,80,0
14688,note_on,,,,,4,0,1,,,,,0,,,80,92
14720,note_off,,,,,320,0,2,,,,,1,,,74,0
14720,note_off,,,,,320,0,3,,,,,8,,,59,0
14780,note_off,,,,,92,0,1,,,,,0,,,80,0
14784,note_on,,,,,64,0,3,,,,,8,,,60,92
14784,note_on,,,,,4,0,1,,,,,0,,,81,92
14784,note_on,,,,,64,0,2,,,,,1,,,76,92
14880,note_on,,,,,0,0,1,,,,,0,,,80,92
14880,note_off,,,,,96,0,1,,,,,0,,,81,0
14972,note_off,,,,,92,0,1,,,,,0,,,80,0
14972,note_off,,,,,188,0,3,,,,,8,,,60,0
14972,note_off,,,,,188,0,2,,,,,1,,,76,0
14976,note_on,,,,,4,0,1,,,,,0,,,81,92
14976,note_on,,,,,4,0,3,,,,,8,,,57,92
14976,note_on,,,,,4,0,2,,,,,1,,,81,92
15068,note_off,,,,,92,0,1,,,,,0,,,81,0
15072,note_on,,,,,4,0,1,,,,,0,,,83,92
15164,note_off,,,,,188,0,3,,,,,8,,,57,0
15164,note_off,,,,,92,0,1,,,,,0,,,83,0
15168,note_on,,,,,4,0,1,,,,,0,,,84,92
15168,note_on,,,,,4,0,3,,,,,8,,,64,92
15296,note_off,,,,,320,0,2,,,,,1,,,81,0
15356,note_off,,,,,188,0,1,,,,,0,,,84,0
15356,note_off,,,,,188,0,3,,,,,8,,,64,0
15360,note_on,,,,,4,0,1,,,,,0,,,83,92
15360,note_on,,,,,64,0,2,,,,,1,,,80,92
15360,note_on,,,,,4,0,3,,,,,8,,,52,92
15452,note_off,,,,,92,0,1,,,,,0,,,83,0
15456,note_on,,,,,4,0,1,,,,,0,,,81,92
15548,note_off,,,,,188,0,2,,,,,1,,,80,0
15548,note_off,,,,,92,0,1,,,,,0,,,81,0
15548,note_off,,,,,188,0,3,,,,,8,,,52,0
15552,note_on,,,,,4,0,1,,,,,0,,,81,92
15552,note_on,,,,,4,0,2,,,,,1,,,81,92
15552,note_on,,,,,4,0,3,,,,,8,,,57,92
16064,note_off,,,,,512,0,1,,,,,0,,,81,0
16064,note_off,,,,,512,0,2,,,,,1,,,81,0
16064,note_off,,,,,512,0,3,,,,,8,,,57,0
16128,note_on,,,,,2368,0,7,,,,,5,,,53,92
16128,note_on,,,,,64,0,3,,,,,8,,,53,92
16128,note_on,,,,,2368,0,9,,,,,7,,,53,60
16128,note_on,,,,,2368,0,8,,,,,6,,,41,75
16128,note_on,,,,,2368,0,4,,,,,2,,,72,108
16128,note_on,,,,,2368,0,5,,,,,3,,,69,108
16128,note_on,,,,,64,0,1,,,,,0,,,72,92
16128,note_on,,,,,2368,0,6,,,,,4,,,65,92
16128,note_on,,,,,64,0,2,,,,,1,,,69,92
16316,note_off,,,,,188,0,4,,,,,2,,,72,0
16316,note_off,,,,,188,0,1,,,,,0,,,72,0
16316,note_off,,,,,188,0,2,,,,,1,,,69,0
16316,note_off,,,,,188,0,5,,,,,3,,,69,0
16316,note_off,,,,,188,0,3,,,,,8,,,53,0
16316,note_off,,,,,188,0,8,,,,,6,,,41,0
16316,note_off,,,,,188,0,9,,,,,7,,,53,0
16316,note_off,,,,,188,0,7,,,,,5,,,53,0
16316,note_off,,,,,188,0,6,,,,,4,,,65,0
16320,note_on,,,,,4,0,6,,,,,4,,,65,92
16320,note_on,,,,,4,0,8,,,,,6,,,41,75
16320,note_on,,,,,4,0,2,,,,,1,,,70,92
16320,note_on,,,,,4,0,7,,,,,5,,,53,92
16320,note_on,,,,,4,0,3,,,,,8,,,53,92
16320,note_on,,,,,4,0,5,,,,,3,,,69,108
16320,note_on,,,,,4,0,9,,,,,7,,,53,60
16320,note_on,,,,,4,0,1,,,,,0,,,74,92
16320,note_on,,,,,4,0,4,,,,,2,,,74,108
16416,note_on,,,,,0,0,2,,,,,1,,,69,92
16416,note_off,,,,,96,0,1,,,,,0,,,74,0
16416,note_off,,,,,96,0,4,,,,,2,,,74,0
16416,note_on,,,,,0,0,1,,,,,0,,,72,92
16416,note_on,,,,,0,0,4,,,,,2,,,72,108
16416,note_off,,,,,96,0,2,,,,,1,,,70,0
16508,note_off,,,,,92,0,4,,,,,2,,,72,0
16508,note_off,,,,,188,0,7,,,,,5,,,53,0
16508,note_off,,,,,188,0,5,,,,,3,,,69,0
16508,note_off,,,,,188,0,8,,,,,6,,,41,0
16508,note_off,,,,,188,0,6,,,,,4,,,65,0
16508,note_off,,,,,188,0,3,,,,,8,,,53,0
16508,note_off,,,,,92,0,2,,,,,1,,,69,0
16508,note_off,,,,,92,0,1,,,,,0,,,72,0
16508,note_off,,,,,188,0,9,,,,,7,,,53,0
16512,note_on,,,,,4,0,8,,,,,6,,,41,75
16512,note_on,,,,,4,0,6,,,,,4,,,65,92
16512,note_on,,,,,4,0,2,,,,,1,,,72,92
16512,note_on,,,,,4,0,3,,,,,8,,,53,92
16512,note_on,,,,,4,0,4,,,,,2,,,77,108
16512,note_on,,,,,4,0,9,,,,,7,,,53,60
16512,note_on,,,,,4,0,1,,,,,0,,,77,92
16512,note_on,,,,,4,0,5,,,,,3,,,69,108
16512,note_on,,,,,4,0,7,,,,,5,,,53,92
16700,note_off,,,,,188,0,9,,,,,7,,,53,0
16700,note_off,,,,,188,0,3,,,,,8,,,53,0
16700,note_off,,,,,188,0,5,,,,,3,,,69,0
16700,note_off,,,,,188,0,2,,,,,1,,,72,0
16700,note_off,,,,,188,0,1,,,,,0,,,77,0
16700,note_off,,,,,188,0,8,,,,,6,,,41,0
16700,note_off,,,,,188,0,4,,,,,2,,,77,0
16700,note_off,,,,,188,0,6,,,,,4,,,65,0
16700,note_off,,,,,188,0,7,,,,,5,,,53,0
16704,note_on,,,,,4,0,8,,,,,6,,,41,75
16704,note_on,,,,,4,0,6,,,,,4,,,65,92
16704,note_on,,,,,4,0,1,,,,,0,,,74,92
16704,note_on,,,,,4,0,3,,,,,8,,,53,92
16704,note_on,,,,,4,0,9,,,,,7,,,53,60
16704,note_on,,,,,4,0,7,,,,,5,,,53,92
16704,note_on,,,,,4,0,5,,,,,3,,,70,108
16704,note_on,,,,,4,0,2,,,,,1,,,70,92
16704,note_on,,,,,4,0,4,,,,,2,,,74,108
16892,note_off,,,,,188,0,2,,,,,1,,,70,0
16892,note_off,,,,,188,0,9,,,,,7,,,53,0
16892,note_off,,,,,188,0,6,,,,,4,,,65,0
16892,note_off,,,,,188,0,8,,,,,6,,,41,0
16892,note_off,,,,,188,0,3,,,,,8,,,53,0
16892,note_off,,,,,188,0,5,,,,,3,,,70,0
16892,note_off,,,,,188,0,4,,,,,2,,,74,0
16892,note_off,,,,,188,0,1,,,,,0,,,74,0
16892,note_off,,,,,188,0,7,,,,,5,,,53,0
16896,note_on,,,,,4,0,1,,,,,0,,,72,92
16896,note_on,,,,,4,0,5,,,,,3,,,69,108
16896,note_on,,,,,4,0,4,,,,,2,,,72,108
16896,note_on,,,,,4,0,3,,,,,8,,,41,92
16896,note_on,,,,,4,0,8,,,,,6,,,29,75
16896,note_on,,,,,4,0,6,,,,,4,,,65,92
16896,note_on,,,,,4,0,2,,,,,1,,,69,92
16896,note_on,,,,,4,0,9,,,,,7,,,41,60
16896,note_on,,,,,4,0,7,,,,,5,,,41,92
17216,note_off,,,,,320,0,3,,,,,8,,,41,0
17216,note_off,,,,,320,0,4,,,,,2,,,72,0
17216,note_off,,,,,320,0,5,,,,,3,,,69,0
17216,note_off,,,,,320,0,2,,,,,1,,,69,0
17216,note_off,,,,,320,0,6,,,,,4,,,65,0
17216,note_off,,,,,320,0,7,,,,,5,,,41,0
17216,note_off,,,,,320,0,8,,,,,6,,,29,0
17216,note_off,,,,,320,0,1,,,,,0,,,72,0
17216,note_off,,,,,320,0,9,,,,,7,,,41,0
17280,note_on,,,,,64,0,2,,,,,1,,,72,92
17280,note_on,,,,,64,0,3,,,,,8,,,64,92
17280,note_on,,,,,64,0,1,,,,,0,,,79,92
17468,note_off,,,,,188,0,3,,,,,8,,,64,0
17468,note_off,,,,,188,0,1,,,,,0,,,79,0
17472,note_on,,,,,4,0,1,,,,,0,,,81,92
17472,note_on,,,,,4,0,3,,,,,8,,,60,92
17564,note_off,,,,,284,0,2,,,,,1,,,72,0
17568,note_on,,,,,0,0,1,,,,,0,,,79,92
17568,note_off,,,,,96,0,1,,,,,0,,,81,0
17568,note_on,,,,,4,0,2,,,,,1,,,76,92
17660,note_off,,,,,92,0,2,,,,,1,,,76,0
17660,note_off,,,,,188,0,3,,,,,8,,,60,0
17660,note_off,,,,,92,0,1,,,,,0,,,79,0
17664,note_on,,,,,4,0,3,,,,,8,,,64,92
17664,note_on,,,,,4,0,1,,,,,0,,,84,92
17664,note_on,,,,,4,0,2,,,,,1,,,79,92
17852,note_off,,,,,188,0,2,,,,,1,,,79,0
17852,note_off,,,,,188,0,3,,,,,8,,,64,0
17852,note_off,,,,,188,0,1,,,,,0,,,84,0
17856,note_on,,,,,4,0,3,,,,,8,,,65,92
17856,note_on,,,,,4,0,2,,,,,1,,,77,92
17856,note_on,,,,,4,0,1,,,,,0,,,81,92
18044,note_off,,,,,188,0,2,,,,,1,,,77,0
18044,note_off,,,,,188,0,3,,,,,8,,,65,0
18044,note_off,,,,,188,0,1,,,,,0,,,81,0
18048,note_on,,,,,4,0,1,,,,,0,,,79,92
18048,note_on,,,,,4,0,2,,,,,1,,,76,92
18048,note_on,,,,,4,0,3,,,,,8,,,60,92
18368,note_off,,,,,320,0,1,,,,,0,,,79,0
18368,note_off,,,,,320,0,3,,,,,8,,,60,0
18368,note_off,,,,,320,0,2,,,,,1,,,76,0
18432,note_on,,,,,64,0,3,,,,,8,,,59,92
18432,note_on,,,,,1216,0,9,,,,,7,,,47,45
18432,note_on,,,,,1216,0,4,,,,,2,,,67,75
18432,note_on,,,,,64,0,2,,,,,1,,,64,60
18432,note_on,,,,,1216,0,6,,,,,4,,,67,60
18432,note_on,,,,,1216,0,5,,,,,3,,,64,75
18432,note_on,,,,,1216,0,8,,,,,6,,,35,60
18432,note_on,,,,,64,0,1,,,,,0,,,67,60
18432,note_on,,,,,1216,0,7,,,,,5,,,47,60
18620,note_off,,,,,188,0,1,,,,,0,,,67,0
18620,note_off,,,,,188,0,2,,,,,1,,,64,0
18620,note_off,,,,,188,0,4,,,,,2,,,67,0
18624,note_on,,,,,4,0,4,,,,,2,,,69,75
18624,note_on,,,,,4,0,1,,,,,0,,,69,60
18624,note_on,,,,,4,0,2,,,,,1,,,64,60
18720,note_off,,,,,96,0,1,,,,,0,,,69,0
18720,note_on,,,,,0,0,1,,,,,0,,,67,60
18720,note_on,,,,,0,0,4,,,,,2,,,67,75
18720,note_off,,,,,96,0,4,,,,,2,,,69,0
18812,note_off,,,,,92,0,1,,,,,0,,,67,0
18812,note_off,,,,,92,0,4,,,,,2,,,67,0
18812,note_off,,,,,188,0,2,,,,,1,,,64,0
18816,note_on,,,,,4,0,4,,,,,2,,,71,75
18816,note_on,,,,,4,0,2,,,,,1,,,67,60
18816,note_on,,,,,4,0,1,,,,,0,,,71,60
18944,note_off,,,,,512,0,7,,,,,5,,,47,0
18944,note_off,,,,,512,0,9,,,,,7,,,47,0
18944,note_off,,,,,512,0,5,,,,,3,,,64,0
18944,note_off,,,,,512,0,6,,,,,4,,,67,0
18944,note_off,,,,,512,0,8,,,,,6,,,35,0
19004,note_off,,,,,188,0,1,,,,,0,,,71,0
19004,note_off,,,,,188,0,2,,,,,1,,,67,0
19004,note_off,,,,,188,0,4,,,,,2,,,71,0
19008,note_on,,,,,64,0,8,,,,,6,,,35,60
19008,note_on,,,,,4,0,4,,,,,2,,,67,75
19008,note_on,,,,,64,0,5,,,,,3,,,64,75
19008,note_on,,,,,4,0,1,,,,,0,,,67,60
19008,note_on,,,,,0,0,3,,,,,8,,,59,92
19008,note_off,,,,,576,0,3,,,,,8,,,59,0
19008,note_on,,,,,64,0,9,,,,,7,,,47,45
19008,note_on,,,,,64,0,7,,,,,5,,,47,60
19008,note_on,,,,,4,0,2,,,,,1,,,64,60
19008,note_on,,,,,64,0,6,,,,,4,,,59,60
19196,note_off,,,,,188,0,1,,,,,0,,,67,0
19196,note_off,,,,,188,0,2,,,,,1,,,64,0
19196,note_off,,,,,188,0,5,,,,,3,,,64,0
19196,note_off,,,,,188,0,4,,,,,2,,,67,0
19196,note_off,,,,,188,0,6,,,,,4,,,59,0
19200,note_on,,,,,4,0,6,,,,,4,,,59,60
19200,note_on,,,,,4,0,1,,,,,0,,,66,60
19200,note_on,,,,,4,0,2,,,,,1,,,63,60
19200,note_on,,,,,4,0,4,,,,,2,,,66,75
19200,note_on,,,,,4,0,5,,,,,3,,,63,75
19520,note_off,,,,,512,0,7,,,,,5,,,47,0
19520,note_off,,,,,512,0,3,,,,,8,,,59,0
19520,note_off,,,,,320,0,5,,,,,3,,,63,0
19520,note_off,,,,,320,0,2,,,,,1,,,63,0
19520,note_off,,,,,512,0,9,,,,,7,,,47,0
19520,note_off,,,,,320,0,4,,,,,2,,,66,0
19520,note_off,,,,,512,0,8,,,,,6,,,35,0
19520,note_off,,,,,320,0,1,,,,,0,,,66,0
19520,note_off,,,,,320,0,6,,,,,4,,,59,0
19584,note_on,,,,,64,0,3,,,,,8,,,59,92
19584,note_on,,,,,64,0,2,,,,,1,,,76,60
19584,note_on,,,,,64,0,1,,,,,0,,,79,60
19772,note_off,,,,,188,0,1,,,,,0,,,79,0
19772,note_off,,,,,188,0,2,,,,,1,,,76,0
19776,note_on,,,,,4,0,1,,,,,0,,,81,60
19776,note_on,,,,,4,0,2,,,,,1,,,78,60
19872,note_on,,,,,0,0,1,,,,,0,,,79,60
19872,note_off,,,,,96,0,1,,,,,0,,,81,0
19964,note_off,,,,,92,0,1,,,,,0,,,79,0
19964,note_off,,,,,188,0,2,,,,,1,,,78,0
19968,note_on,,,,,4,0,2,,,,,1,,,75,60
19968,note_on,,,,,4,0,1,,,,,0,,,83,60
20156,note_off,,,,,188,0,2,,,,,1,,,75,0
20156,note_off,,,,,188,0,1,,,,,0,,,83,0
20160,note_on,,,,,4,0,1,,,,,0,,,79,60
20160,note_on,,,,,4,0,2,,,,,1,,,76,60
20348,note_off,,,,,188,0,2,,,,,1,,,76,0
20348,note_off,,,,,188,0,1,,,,,0,,,79,0
20352,note_on,,,,,4,0,1,,,,,0,,,78,60
20352,note_on,,,,,4,0,2,,,,,1,,,75,60
20444,note_off,,,,,860,0,3,,,,,8,,,59,0
20448,note_on,,,,,4,0,3,,,,,8,,,57,92
20540,note_off,,,,,92,0,3,,,,,8,,,57,0
20544,note_on,,,,,4,0,3,,,,,8,,,55,92
20636,note_off,,,,,92,0,3,,,,,8,,,55,0
20640,note_on,,,,,4,0,3,,,,,8,,,54,92
20672,note_off,,,,,320,0,1,,,,,0,,,78,0
20672,note_off,,,,,320,0,2,,,,,1,,,75,0
20732,note_off,,,,,92,0,3,,,,,8,,,54,0
20736,note_on,,,,,1216,0,4,,,,,2,,,64,108
20736,note_on,,,,,4,0,3,,,,,8,,,55,92
20736,note_on,,,,,64,0,1,,,,,0,,,64,92
20924,note_off,,,,,188,0,1,,,,,0,,,64,0
20924,note_off,,,,,188,0,3,,,,,8,,,55,0
20924,note_off,,,,,188,0,4,,,,,2,,,64,0
20928,note_on,,,,,4,0,1,,,,,0,,,67,92
20928,note_on,,,,,4,0,3,,,,,8,,,52,92
20928,note_on,,,,,4,0,4,,,,,2,,,67,108
21024,note_off,,,,,96,0,1,,,,,0,,,67,0
21024,note_on,,,,,0,0,4,,,,,2,,,66,108
21024,note_off,,,,,96,0,4,,,,,2,,,67,0
21024,note_on,,,,,0,0,1,,,,,0,,,66,92
21116,note_off,,,,,92,0,4,,,,,2,,,66,0
21116,note_off,,,,,92,0,1,,,,,0,,,66,0
21116,note_off,,,,,188,0,3,,,,,8,,,52,0
21120,note_on,,,,,4,0,1,,,,,0,,,69,92
21120,note_on,,,,,4,0,4,,,,,2,,,69,108
21308,note_off,,,,,188,0,4,,,,,2,,,69,0
21308,note_off,,,,,188,0,1,,,,,0,,,69,0
21312,note_on,,,,,4,0,1,,,,,0,,,67,92
21312,note_on,,,,,4,0,4,,,,,2,,,67,108
21312,note_on,,,,,1792,0,5,,,,,3,,,64,108
21312,note_on,,,,,640,0,2,,,,,1,,,64,92
21500,note_off,,,,,188,0,5,,,,,3,,,64,0
21500,note_off,,,,,188,0,1,,,,,0,,,67,0
21500,note_off,,,,,188,0,4,,,,,2,,,67,0
21500,note_off,,,,,188,0,2,,,,,1,,,64,0
21504,note_on,,,,,4,0,5,,,,,3,,,67,108
21504,note_on,,,,,4,0,4,,,,,2,,,71,108
21504,note_on,,,,,4,0,2,,,,,1,,,67,92
21504,note_on,,,,,4,0,1,,,,,0,,,71,92
21600,note_off,,,,,96,0,4,,,,,2,,,71,0
21600,note_on,,,,,0,0,5,,,,,3,,,66,108
21600,note_off,,,,,96,0,5,,,,,3,,,67,0
21600,note_on,,,,,0,0,2,,,,,1,,,66,92
21600,note_off,,,,,96,0,2,,,,,1,,,67,0
21600,note_on,,,,,0,0,4,,,,,2,,,69,108
21600,note_on,,,,,0,0,1,,,,,0,,,69,92
21600,note_off,,,,,96,0,1,,,,,0,,,71,0
21692,note_off,,,,,92,0,1,,,,,0,,,69,0
21692,note_off,,,,,92,0,5,,,,,3,,,66,0
21692,note_off,,,,,92,0,2,,,,,1,,,66,0
21692,note_off,,,,,92,0,4,,,,,2,,,69,0
21696,note_on,,,,,4,0,1,,,,,0,,,72,92
21696,note_on,,,,,4,0,4,,,,,2,,,72,108
21696,note_on,,,,,4,0,2,,,,,1,,,69,92
21696,note_on,,,,,4,0,5,,,,,3,,,69,108
21884,note_off,,,,,188,0,2,,,,,1,,,69,0
21884,note_off,,,,,188,0,5,,,,,3,,,69,0
21884,note_off,,,,,188,0,1,,,,,0,,,72,0
21884,note_off,,,,,188,0,4,,,,,2,,,72,0
21888,note_on,,,,,2368,0,8,,,,,6,,,40,75
21888,note_on,,,,,2368,0,6,,,,,4,,,64,92
21888,note_on,,,,,4,0,5,,,,,3,,,67,108
21888,note_on,,,,,2368,0,7,,,,,5,,,52,92
21888,note_on,,,,,772,0,3,,,,,8,,,52,92
21888,note_on,,,,,4,0,1,,,,,0,,,71,92
21888,note_on,,,,,2368,0,9,,,,,7,,,52,60
21888,note_on,,,,,4,0,2,,,,,1,,,67,92
21888,note_on,,,,,4,0,4,,,,,2,,,71,108
22076,note_off,,,,,188,0,1,,,,,0,,,71,0
22076,note_off,,,,,188,0,2,,,,,1,,,67,0
22076,note_off,,,,,188,0,3,,,,,8,,,52,0
22076,note_off,,,,,188,0,7,,,,,5,,,52,0
22076,note_off,,,,,188,0,5,,,,,3,,,67,0
22076,note_off,,,,,188,0,4,,,,,2,,,71,0
22076,note_off,,,,,188,0,9,,,,,7,,,52,0
22076,note_off,,,,,188,0,8,,,,,6,,,40,0
22076,note_off,,,,,188,0,6,,,,,4,,,64,0
22080,note_on,,,,,4,0,3,,,,,8,,,55,92
22080,note_on,,,,,4,0,2,,,,,1,,,71,92
22080,note_on,,,,,4,0,4,,,,,2,,,76,108
22080,note_on,,,,,4,0,8,,,,,6,,,43,75
22080,note_on,,,,,4,0,5,,,,,3,,,71,108
22080,note_on,,,,,4,0,1,,,,,0,,,76,92
22080,note_on,,,,,4,0,6,,,,,4,,,64,92
22080,note_on,,,,,4,0,9,,,,,7,,,55,60
22080,note_on,,,,,4,0,7,,,,,5,,,55,92
22176,note_on,,,,,0,0,9,,,,,7,,,54,60
22176,note_off,,,,,96,0,9,,,,,7,,,55,0
22176,note_on,,,,,0,0,7,,,,,5,,,54,92
22176,note_off,,,,,96,0,7,,,,,5,,,55,0
22176,note_off,,,,,96,0,3,,,,,8,,,55,0
22176,note_off,,,,,96,0,8,,,,,6,,,43,0
22176,note_on,,,,,0,0,3,,,,,8,,,54,92
22176,note_on,,,,,0,0,8,,,,,6,,,42,75
22268,note_off,,,,,92,0,8,,,,,6,,,42,0
22268,note_off,,,,,188,0,2,,,,,1,,,71,0
22268,note_off,,,,,188,0,1,,,,,0,,,76,0
22268,note_off,,,,,188,0,6,,,,,4,,,64,0
22268,note_off,,,,,92,0,9,,,,,7,,,54,0
22268,note_off,,,,,92,0,3,,,,,8,,,54,0
22268,note_off,,,,,188,0,5,,,,,3,,,71,0
22268,note_off,,,,,92,0,7,,,,,5,,,54,0
22268,note_off,,,,,188,0,4,,,,,2,,,76,0
22272,note_on,,,,,4,0,9,,,,,7,,,57,60
22272,note_on,,,,,4,0,5,,,,,3,,,66,108
22272,note_on,,,,,4,0,7,,,,,5,,,57,92
22272,note_on,,,,,4,0,2,,,,,1,,,66,92
22272,note_on,,,,,4,0,8,,,,,6,,,45,75
22272,note_on,,,,,4,0,4,,,,,2,,,75,108
22272,note_on,,,,,4,0,6,,,,,4,,,71,92
22272,note_on,,,,,4,0,1,,,,,0,,,75,92
22272,note_on,,,,,4,0,3,,,,,8,,,57,92
22460,note_off,,,,,188,0,5,,,,,3,,,66,0
22460,note_off,,,,,188,0,8,,,,,6,,,45,0
22460,note_off,,,,,188,0,4,,,,,2,,,75,0
22460,note_off,,,,,188,0,6,,,,,4,,,71,0
22460,note_off,,,,,188,0,1,,,,,0,,,75,0
22460,note_off,,,,,188,0,3,,,,,8,,,57,0
22460,note_off,,,,,188,0,2,,,,,1,,,66,0
22460,note_off,,,,,188,0,9,,,,,7,,,57,0
22460,note_off,,,,,188,0,7,,,,,5,,,57,0
22464,note_on,,,,,4,0,8,,,,,6,,,43,75
22464,note_on,,,,,4,0,3,,,,,8,,,55,92
22464,note_on,,,,,4,0,5,,,,,3,,,71,108
22464,note_on,,,,,4,0,2,,,,,1,,,71,92
22464,note_on,,,,,4,0,7,,,,,5,,,55,92
22464,note_on,,,,,4,0,9,,,,,7,,,55,60
22464,note_on,,,,,4,0,4,,,,,2,,,76,108
22464,note_on,,,,,4,0,1,,,,,0,,,76,92
22464,note_on,,,,,4,0,6,,,,,4,,,71,92
22652,note_off,,,,,188,0,8,,,,,6,,,43,0
22652,note_off,,,,,188,0,7,,,,,5,,,55,0
22652,note_off,,,,,188,0,4,,,,,2,,,76,0
22652,note_off,,,,,188,0,2,,,,,1,,,71,0
22652,note_off,,,,,188,0,1,,,,,0,,,76,0
22652,note_off,,,,,188,0,5,,,,,3,,,71,0
22652,note_off,,,,,188,0,9,,,,,7,,,55,0
22652,note_off,,,,,188,0,3,,,,,8,,,55,0
22656,note_on,,,,,4,0,3,,,,,8,,,56,92
22656,note_on,,,,,4,0,9,,,,,7,,,56,60
22656,note_on,,,,,4,0,1,,,,,0,,,83,92
22656,note_on,,,,,4,0,7,,,,,5,,,56,92
22656,note_on,,,,,4,0,5,,,,,3,,,76,108
22656,note_on,,,,,4,0,8,,,,,6,,,44,75
22656,note_on,,,,,4,0,4,,,,,2,,,83,108
22656,note_on,,,,,4,0,2,,,,,1,,,76,92
22752,note_off,,,,,96,0,2,,,,,1,,,76,0
22752,note_on,,,,,0,0,2,,,,,1,,,72,92
22752,note_on,,,,,0,0,5,,,,,3,,,72,108
22752,note_off,,,,,96,0,5,,,,,3,,,76,0
22784,note_off,,,,,320,0,6,,,,,4,,,71,0
22844,note_off,,,,,92,0,5,,,,,3,,,72,0
22844,note_off,,,,,92,0,2,,,,,1,,,72,0
22848,note_on,,,,,4,0,5,,,,,3,,,74,108
22848,note_on,,,,,64,0,6,,,,,4,,,64,92
22848,note_on,,,,,4,0,2,,,,,1,,,74,92
22944,note_on,,,,,0,0,5,,,,,3,,,71,108
22944,note_off,,,,,96,0,5,,,,,3,,,74,0
22944,note_on,,,,,0,0,2,,,,,1,,,71,92
22944,note_off,,,,,96,0,2,,,,,1,,,74,0
22976,note_off,,,,,320,0,9,,,,,7,,,56,0
22976,note_off,,,,,320,0,4,,,,,2,,,83,0
22976,note_off,,,,,320,0,8,,,,,6,,,44,0
22976,note_off,,,,,320,0,1,,,,,0,,,83,0
22976,note_off,,,,,320,0,7,,,,,5,,,56,0
22976,note_off,,,,,320,0,3,,,,,8,,,56,0
23036,note_off,,,,,92,0,2,,,,,1,,,71,0
23036,note_off,,,,,188,0,6,,,,,4,,,64,0
23036,note_off,,,,,92,0,5,,,,,3,,,71,0
23040,note_on,,,,,4,0,2,,,,,1,,,72,92
23040,note_on,,,,,64,0,9,,,,,7,,,57,60
23040,note_on,,,,,64,0,7,,,,,5,,,57,92
23040,note_on,,,,,64,0,1,,,,,0,,,76,92
23040,note_on,,,,,4,0,5,,,,,3,,,72,108
23040,note_on,,,,,64,0,8,,,,,6,,,45,75
23040,note_on,,,,,64,0,3,,,,,8,,,57,92
23040,note_on,,,,,64,0,4,,,,,2,,,76,108
23040,note_on,,,,,4,0,6,,,,,4,,,64,92
23132,note_off,,,,,92,0,5,,,,,3,,,72,0
23132,note_off,,,,,92,0,2,,,,,1,,,72,0
23136,note_on,,,,,4,0,5,,,,,3,,,74,108
23136,note_on,,,,,4,0,2,,,,,1,,,74,92
23228,note_off,,,,,92,0,5,,,,,3,,,74,0
23228,note_off,,,,,188,0,1,,,,,0,,,76,0
23228,note_off,,,,,188,0,4,,,,,2,,,76,0
23228,note_off,,,,,92,0,2,,,,,1,,,74,0
23232,note_on,,,,,4,0,4,,,,,2,,,81,108
23232,note_on,,,,,4,0,1,,,,,0,,,81,92
23232,note_on,,,,,4,0,2,,,,,1,,,72,92
23232,note_on,,,,,4,0,5,,,,,3,,,72,108
23324,note_off,,,,,284,0,9,,,,,7,,,57,0
23324,note_off,,,,,284,0,7,,,,,5,,,57,0
23324,note_off,,,,,284,0,8,,,,,6,,,45,0
23324,note_off,,,,,92,0,5,,,,,3,,,72,0
23324,note_off,,,,,284,0,3,,,,,8,,,57,0
23324,note_off,,,,,92,0,2,,,,,1,,,72,0
23328,note_on,,,,,4,0,8,,,,,6,,,43,75
23328,note_on,,,,,4,0,9,,,,,7,,,55,60
23328,note_on,,,,,4,0,7,,,,,5,,,55,92
23328,note_on,,,,,4,0,2,,,,,1,,,71,92
23328,note_on,,,,,4,0,3,,,,,8,,,55,92
23328,note_on,,,,,4,0,5,,,,,3,,,71,108
23360,note_off,,,,,320,0,6,,,,,4,,,64,0
23420,note_off,,,,,92,0,2,,,,,1,,,71,0
23420,note_off,,,,,92,0,5,,,,,3,,,71,0
23420,note_off,,,,,92,0,9,,,,,7,,,55,0
23420,note_off,,,,,92,0,8,,,,,6,,,43,0
23420,note_off,,,,,92,0,3,,,,,8,,,55,0
23420,note_off,,,,,92,0,7,,,,,5,,,55,0
23424,note_on,,,,,4,0,7,,,,,5,,,54,92
23424,note_on,,,,,4,0,9,,,,,7,,,54,60
23424,note_on,,,,,4,0,2,,,,,1,,,69,92
23424,note_on,,,,,4,0,3,,,,,8,,,54,92
23424,note_on,,,,,4,0,5,,,,,3,,,69,108
23424,note_on,,,,,4,0,8,,,,,6,,,42,75
23424,note_on,,,,,64,0,6,,,,,4,,,66,92
23516,note_off,,,,,92,0,2,,,,,1,,,69,0
23516,note_off,,,,,92,0,9,,,,,7,,,54,0
23516,note_off,,,,,92,0,7,,,,,5,,,54,0
23516,note_off,,,,,92,0,5,,,,,3,,,69,0
23516,note_off,,,,,92,0,3,,,,,8,,,54,0
23516,note_off,,,,,92,0,8,,,,,6,,,42,0
23520,note_on,,,,,4,0,7,,,,,5,,,52,92
23520,note_on,,,,,4,0,8,,,,,6,,,40,75
23520,note_on,,,,,4,0,2,,,,,1,,,72,92
23520,note_on,,,,,4,0,3,,,,,8,,,52,92
23520,note_on,,,,,4,0,5,,,,,3,,,72,108
23520,note_on,,,,,4,0,9,,,,,7,,,52,60
23612,note_off,,,,,92,0,3,,,,,8,,,52,0
23612,note_off,,,,,92,0,9,,,,,7,,,52,0
23612,note_off,,,,,92,0,5,,,,,3,,,72,0
23612,note_off,,,,,92,0,7,,,,,5,,,52,0
23612,note_off,,,,,188,0,6,,,,,4,,,66,0
23612,note_off,,,,,92,0,8,,,,,6,,,40,0
23612,note_off,,,,,92,0,2,,,,,1,,,72,0
23616,note_on,,,,,4,0,9,,,,,7,,,63,60
23616,note_on,,,,,4,0,2,,,,,1,,,71,92
23616,note_on,,,,,4,0,8,,,,,6,,,51,75
23616,note_on,,,,,4,0,5,,,,,3,,,71,108
23616,note_on,,,,,4,0,6,,,,,4,,,66,92
23616,note_on,,,,,4,0,3,,,,,8,,,63,92
23616,note_on,,,,,4,0,7,,,,,5,,,63,92
23804,note_off,,,,,188,0,6,,,,,4,,,66,0
23804,note_off,,,,,188,0,7,,,,,5,,,63,0
23804,note_off,,,,,188,0,5,,,,,3,,,71,0
23804,note_off,,,,,188,0,8,,,,,6,,,51,0
23804,note_off,,,,,188,0,3,,,,,8,,,63,0
23804,note_off,,,,,188,0,9,,,,,7,,,63,0
23804,note_off,,,,,188,0,2,,,,,1,,,71,0
23808,note_on,,,,,4,0,8,,,,,6,,,47,75
23808,note_on,,,,,4,0,3,,,,,8,,,59,92
23808,note_on,,,,,4,0,6,,,,,4,,,71,92
23808,note_on,,,,,4,0,2,,,,,1,,,75,92
23808,note_on,,,,,4,0,5,,,,,3,,,75,108
23808,note_on,,,,,4,0,9,,,,,7,,,59,60
23808,note_on,,,,,4,0,7,,,,,5,,,59,92
23900,note_off,,,,,668,0,1,,,,,0,,,81,0
23900,note_off,,,,,668,0,4,,,,,2,,,81,0
23904,note_on,,,,,4,0,1,,,,,0,,,83,92
23904,note_on,,,,,4,0,4,,,,,2,,,83,108
23996,note_off,,,,,188,0,7,,,,,5,,,59,0
23996,note_off,,,,,188,0,3,,,,,8,,,59,0
23996,note_off,,,,,188,0,8,,,,,6,,,47,0
23996,note_off,,,,,188,0,6,,,,,4,,,71,0
23996,note_off,,,,,188,0,5,,,,,3,,,75,0
23996,note_off,,,,,188,0,9,,,,,7,,,59,0
23996,note_off,,,,,92,0,4,,,,,2,,,83,0
23996,note_off,,,,,92,0,1,,,,,0,,,83,0
23996,note_off,,,,,188,0,2,,,,,1,,,75,0
24000,note_on,,,,,4,0,9,,,,,7,,,64,60
24000,note_on,,,,,4,0,4,,,,,2,,,79,108
24000,note_on,,,,,4,0,3,,,,,8,,,64,92
24000,note_on,,,,,4,0,6,,,,,4,,,71,92
24000,note_on,,,,,4,0,7,,,,,5,,,64,92
24000,note_on,,,,,4,0,1,,,,,0,,,79,92
24000,note_on,,,,,4,0,2,,,,,1,,,76,92
24000,note_on,,,,,4,0,5,,,,,3,,,76,108
24000,note_on,,,,,4,0,8,,,,,6,,,52,75
24092,note_off,,,,,92,0,4,,,,,2,,,79,0
24092,note_off,,,,,92,0,1,,,,,0,,,79,0
24096,note_on,,,,,4,0,1,,,,,0,,,78,92
24096,note_on,,,,,4,0,4,,,,,2,,,78,108
24188,note_off,,,,,188,0,6,,,,,4,,,71,0
24188,note_off,,,,,188,0,9,,,,,7,,,64,0
24188,note_off,,,,,188,0,3,,,,,8,,,64,0
24188,note_off,,,,,92,0,1,,,,,0,,,78,0
24188,note_off,,,,,92,0,4,,,,,2,,,78,0
24188,note_off,,,,,188,0,2,,,,,1,,,76,0
24188,note_off,,,,,188,0,7,,,,,5,,,64,0
24188,note_off,,,,,188,0,8,,,,,6,,,52,0
24188,note_off,,,,,188,0,5,,,,,3,,,76,0
24192,note_on,,,,,4,0,2,,,,,1,,,76,92
24192,note_on,,,,,4,0,8,,,,,6,,,45,75
24192,note_on,,,,,4,0,6,,,,,4,,,76,92
24192,note_on,,,,,4,0,9,,,,,7,,,57,60
24192,note_on,,,,,4,0,1,,,,,0,,,79,92
24192,note_on,,,,,4,0,7,,,,,5,,,57,92
24192,note_on,,,,,4,0,3,,,,,8,,,57,92
24192,note_on,,,,,4,0,5,,,,,3,,,76,108
24192,note_on,,,,,4,0,4,,,,,2,,,79,108
24284,note_off,,,,,92,0,4,,,,,2,,,79,0
24284,note_off,,,,,92,0,1,,,,,0,,,79,0
24284,note_off,,,,,92,0,6,,,,,4,,,76,0
24288,note_on,,,,,4,0,6,,,,,4,,,72,92
24288,note_on,,,,,4,0,4,,,,,2,,,81,108
24288,note_on,,,,,4,0,1,,,,,0,,,81,92
24380,note_off,,,,,92,0,1,,,,,0,,,81,0
24380,note_off,,,,,188,0,9,,,,,7,,,57,0
24380,note_off,,,,,188,0,3,,,,,8,,,57,0
24380,note_off,,,,,92,0,6,,,,,4,,,72,0
24380,note_off,,,,,188,0,7,,,,,5,,,57,0
24380,note_off,,,,,188,0,8,,,,,6,,,45,0
24380,note_off,,,,,92,0,4,,,,,2,,,81,0
24384,note_on,,,,,4,0,4,,,,,2,,,79,108
24384,note_on,,,,,4,0,9,,,,,7,,,59,60
24384,note_on,,,,,4,0,7,,,,,5,,,59,92
24384,note_on,,,,,4,0,1,,,,,0,,,79,92
24384,note_on,,,,,4,0,8,,,,,6,,,47,75
24384,note_on,,,,,4,0,3,,,,,8,,,59,92
24384,note_on,,,,,4,0,6,,,,,4,,,66,92
24432,note_off,,,,,48,0,1,,,,,0,,,79,0
24432,note_on,,,,,0,0,1,,,,,0,,,78,92
24432,note_off,,,,,48,0,4,,,,,2,,,79,0
24432,note_on,,,,,0,0,4,,,,,2,,,78,108
24480,note_off,,,,,48,0,4,,,,,2,,,78,0
24480,note_on,,,,,0,0,4,,,,,2,,,79,108
24480,note_off,,,,,48,0,1,,,,,0,,,78,0
24480,note_on,,,,,0,0,1,,,,,0,,,79,92
24512,note_off,,,,,320,0,2,,,,,1,,,76,0
24512,note_off,,,,,320,0,5,,,,,3,,,76,0
24528,note_on,,,,,0,0,1,,,,,0,,,78,92
24528,note_off,,,,,48,0,4,,,,,2,,,79,0
24528,note_off,,,,,48,0,1,,,,,0,,,79,0
24528,note_on,,,,,0,0,4,,,,,2,,,78,108
24572,note_off,,,,,188,0,6,,,,,4,,,66,0
24572,note_off,,,,,188,0,7,,,,,5,,,59,0
24572,note_off,,,,,188,0,8,,,,,6,,,47,0
24572,note_off,,,,,188,0,9,,,,,7,,,59,0
24572,note_off,,,,,188,0,3,,,,,8,,,59,0
24576,note_on,,,,,0,0,1,,,,,0,,,79,92
24576,note_on,,,,,4,0,8,,,,,6,,,35,75
24576,note_on,,,,,4,0,3,,,,,8,,,47,92
24576,note_on,,,,,4,0,7,,,,,5,,,47,92
24576,note_on,,,,,64,0,5,,,,,3,,,75,108
24576,note_on,,,,,64,0,2,,,,,1,,,75,92
24576,note_off,,,,,48,0,1,,,,,0,,,78,0
24576,note_off,,,,,48,0,4,,,,,2,,,78,0
24576,note_on,,,,,4,0,6,,,,,4,,,71,92
24576,note_on,,,,,4,0,9,,,,,7,,,47,60
24576,note_on,,,,,0,0,4,,,,,2,,,79,108
24624,note_off,,,,,48,0,4,,,,,2,,,79,0
24624,note_on,,,,,0,0,4,,,,,2,,,78,108
24624,note_on,,,,,0,0,1,,,,,0,,,78,92
24624,note_off,,,,,48,0,1,,,,,0,,,79,0
24668,note_off,,,,,44,0,4,,,,,2,,,78,0
24668,note_off,,,,,44,0,1,,,,,0,,,78,0
24672,note_on,,,,,4,0,4,,,,,2,,,76,108
24672,note_on,,,,,4,0,1,,,,,0,,,76,92
24764,note_off,,,,,188,0,2,,,,,1,,,75,0
24764,note_off,,,,,188,0,6,,,,,4,,,71,0
24764,note_off,,,,,188,0,3,,,,,8,,,47,0
24764,note_off,,,,,188,0,8,,,,,6,,,35,0
24764,note_off,,,,,188,0,9,,,,,7,,,47,0
24764,note_off,,,,,92,0,1,,,,,0,,,76,0
24764,note_off,,,,,188,0,5,,,,,3,,,75,0
24764,note_off,,,,,92,0,4,,,,,2,,,76,0
24764,note_off,,,,,188,0,7,,,,,5,,,47,0
24768,note_on,,,,,4,0,5,,,,,3,,,76,108
24768,note_on,,,,,4,0,1,,,,,0,,,76,92
24768,note_on,,,,,4,0,3,,,,,8,,,48,92
24768,note_on,,,,,4,0,8,,,,,6,,,36,75
24768,note_on,,,,,4,0,9,,,,,7,,,48,60
24768,note_on,,,,,4,0,2,,,,,1,,,76,92
24768,note_on,,,,,4,0,6,,,,,4,,,67,92
24768,note_on,,,,,4,0,4,,,,,2,,,76,108
24768,note_on,,,,,4,0,7,,,,,5,,,48,92
24956,note_off,,,,,188,0,9,,,,,7,,,48,0
24956,note_off,,,,,188,0,1,,,,,0,,,76,0
24956,note_off,,,,,188,0,6,,,,,4,,,67,0
24956,note_off,,,,,188,0,5,,,,,3,,,76,0
24956,note_off,,,,,188,0,4,,,,,2,,,76,0
24956,note_off,,,,,188,0,3,,,,,8,,,48,0
24956,note_off,,,,,188,0,7,,,,,5,,,48,0
24956,note_off,,,,,188,0,8,,,,,6,,,36,0
24956,note_off,,,,,188,0,2,,,,,1,,,76,0
24960,note_on,,,,,4,0,6,,,,,4,,,64,92
24960,note_on,,,,,4,0,3,,,,,8,,,44,92
24960,note_on,,,,,4,0,4,,,,,2,,,74,108
24960,note_on,,,,,4,0,5,,,,,3,,,71,108
24960,note_on,,,,,4,0,2,,,,,1,,,71,92
24960,note_on,,,,,4,0,9,,,,,7,,,44,60
24960,note_on,,,,,4,0,1,,,,,0,,,74,92
24960,note_on,,,,,4,0,8,,,,,6,,,32,75
24960,note_on,,,,,4,0,7,,,,,5,,,44,92
25280,note_off,,,,,320,0,5,,,,,3,,,71,0
25280,note_off,,,,,320,0,2,,,,,1,,,71,0
25280,note_off,,,,,320,0,3,,,,,8,,,44,0
25280,note_off,,,,,320,0,8,,,,,6,,,32,0
25280,note_off,,,,,320,0,6,,,,,4,,,64,0
25280,note_off,,,,,320,0,9,,,,,7,,,44,0
25280,note_off,,,,,320,0,4,,,,,2,,,74,0
25280,note_off,,,,,320,0,1,,,,,0,,,74,0
25280,note_off,,,,,320,0,7,,,,,5,,,44,0
25344,note_on,,,,,64,0,4,,,,,2,,,72,108
25344,note_on,,,,,64,0,2,,,,,1,,,64,92
25344,note_on,,,,,64,0,6,,,,,4,,,64,92
25344,note_on,,,,,64,0,1,,,,,0,,,72,92
25344,note_on,,,,,64,0,9,,,,,7,,,45,60
25344,note_on,,,,,64,0,8,,,,,6,,,33,75
25344,note_on,,,,,64,0,7,,,,,5,,,45,92
25344,note_on,,,,,64,0,3,,,,,8,,,45,92
25344,note_on,,,,,64,0,5,,,,,3,,,64,108
25436,note_off,,,,,92,0,1,,,,,0,,,72,0
25436,note_off,,,,,92,0,4,,,,,2,,,72,0
25440,note_on,,,,,4,0,1,,,,,0,,,71,92
25440,note_on,,,,,4,0,4,,,,,2,,,71,108
25532,note_off,,,,,92,0,1,,,,,0,,,71,0
25532,note_off,,,,,188,0,3,,,,,8,,,45,0
25532,note_off,,,,,188,0,8,,,,,6,,,33,0
25532,note_off,,,,,188,0,9,,,,,7,,,45,0
25532,note_off,,,,,188,0,7,,,,,5,,,45,0
25532,note_off,,,,,92,0,4,,,,,2,,,71,0
25536,note_on,,,,,4,0,1,,,,,0,,,69,92
25536,note_on,,,,,4,0,7,,,,,5,,,47,92
25536,note_on,,,,,4,0,8,,,,,6,,,35,75
25536,note_on,,,,,4,0,4,,,,,2,,,69,108
25536,note_on,,,,,4,0,3,,,,,8,,,47,92
25536,note_on,,,,,4,0,9,,,,,7,,,47,60
25628,note_off,,,,,92,0,4,,,,,2,,,69,0
25628,note_off,,,,,92,0,1,,,,,0,,,69,0
25632,note_on,,,,,4,0,4,,,,,2,,,68,108
25632,note_on,,,,,4,0,1,,,,,0,,,68,92
25664,note_off,,,,,320,0,6,,,,,4,,,64,0
25724,note_off,,,,,92,0,4,,,,,2,,,68,0
25724,note_off,,,,,188,0,7,,,,,5,,,47,0
25724,note_off,,,,,188,0,9,,,,,7,,,47,0
25724,note_off,,,,,92,0,1,,,,,0,,,68,0
25724,note_off,,,,,188,0,3,,,,,8,,,47,0
25724,note_off,,,,,188,0,8,,,,,6,,,35,0
25728,note_on,,,,,4,0,7,,,,,5,,,48,92
25728,note_on,,,,,4,0,9,,,,,7,,,48,60
25728,note_on,,,,,4,0,3,,,,,8,,,48,92
25728,note_on,,,,,4,0,1,,,,,0,,,69,92
25728,note_on,,,,,4,0,8,,,,,6,,,36,75
25728,note_on,,,,,4,0,4,,,,,2,,,69,108
25728,note_on,,,,,64,0,6,,,,,4,,,64,92
25820,note_off,,,,,476,0,2,,,,,1,,,64,0
25820,note_off,,,,,476,0,5,,,,,3,,,64,0
25824,note_on,,,,,4,0,2,,,,,1,,,66,92
25824,note_on,,,,,4,0,5,,,,,3,,,66,108
25916,note_off,,,,,188,0,8,,,,,6,,,36,0
25916,note_off,,,,,188,0,3,,,,,8,,,48,0
25916,note_off,,,,,188,0,1,,,,,0,,,69,0
25916,note_off,,,,,188,0,9,,,,,7,,,48,0
25916,note_off,,,,,92,0,2,,,,,1,,,66,0
25916,note_off,,,,,92,0,5,,,,,3,,,66,0
25916,note_off,,,,,188,0,7,,,,,5,,,48,0
25916,note_off,,,,,188,0,4,,,,,2,,,69,0
25916,note_off,,,,,188,0,6,,,,,4,,,64,0
25920,note_on,,,,,4,0,3,,,,,8,,,47,92
25920,note_on,,,,,4,0,6,,,,,4,,,66,92
25920,note_on,,,,,4,0,1,,,,,0,,,69,92
25920,note_on,,,,,4,0,4,,,,,2,,,69,108
25920,note_on,,,,,4,0,2,,,,,1,,,63,92
25920,note_on,,,,,4,0,5,,,,,3,,,63,108
25920,note_on,,,,,4,0,8,,,,,6,,,35,75
25920,note_on,,,,,4,0,7,,,,,5,,,47,92
25920,note_on,,,,,4,0,9,,,,,7,,,47,60
26108,note_off,,,,,188,0,3,,,,,8,,,47,0
26108,note_off,,,,,188,0,9,,,,,7,,,47,0
26108,note_off,,,,,188,0,7,,,,,5,,,47,0
26108,note_off,,,,,188,0,8,,,,,6,,,35,0
26108,note_off,,,,,188,0,2,,,,,1,,,63,0
26108,note_off,,,,,188,0,6,,,,,4,,,66,0
26108,note_off,,,,,188,0,5,,,,,3,,,63,0
26112,note_on,,,,,4,0,9,,,,,7,,,51,60
26112,note_on,,,,,4,0,5,,,,,3,,,66,108
26112,note_on,,,,,4,0,2,,,,,1,,,66,92
26112,note_on,,,,,4,0,8,,,,,6,,,39,75
26112,note_on,,,,,4,0,3,,,,,8,,,51,92
26112,note_on,,,,,4,0,6,,,,,4,,,59,92
26112,note_on,,,,,4,0,7,,,,,5,,,51,92
26204,note_off,,,,,284,0,4,,,,,2,,,69,0
26204,note_off,,,,,284,0,1,,,,,0,,,69,0
26208,note_on,,,,,4,0,4,,,,,2,,,71,108
26208,note_on,,,,,4,0,1,,,,,0,,,71,92
26300,note_off,,,,,92,0,1,,,,,0,,,71,0
26300,note_off,,,,,188,0,3,,,,,8,,,51,0
26300,note_off,,,,,188,0,2,,,,,1,,,66,0
26300,note_off,,,,,188,0,7,,,,,5,,,51,0
26300,note_off,,,,,188,0,5,,,,,3,,,66,0
26300,note_off,,,,,92,0,4,,,,,2,,,71,0
26300,note_off,,,,,188,0,6,,,,,4,,,59,0
26300,note_off,,,,,188,0,8,,,,,6,,,39,0
26300,note_off,,,,,188,0,9,,,,,7,,,51,0
26304,note_on,,,,,4,0,2,,,,,1,,,64,92
26304,note_on,,,,,4,0,5,,,,,3,,,64,108
26304,note_on,,,,,4,0,1,,,,,0,,,67,92
26304,note_on,,,,,4,0,4,,,,,2,,,67,108
26304,note_on,,,,,4,0,6,,,,,4,,,59,92
26304,note_on,,,,,4,0,7,,,,,5,,,52,92
26304,note_on,,,,,4,0,8,,,,,6,,,40,75
26304,note_on,,,,,4,0,3,,,,,8,,,52,92
26304,note_on,,,,,4,0,9,,,,,7,,,52,60
26492,note_off,,,,,188,0,9,,,,,7,,,52,0
26492,note_off,,,,,188,0,2,,,,,1,,,64,0
26492,note_off,,,,,188,0,8,,,,,6,,,40,0
26492,note_off,,,,,188,0,5,,,,,3,,,64,0
26492,note_off,,,,,188,0,7,,,,,5,,,52,0
26492,note_off,,,,,188,0,3,,,,,8,,,52,0
26492,note_off,,,,,188,0,6,,,,,4,,,59,0
26496,note_on,,,,,4,0,3,,,,,8,,,45,92
26496,note_on,,,,,4,0,5,,,,,3,,,64,108
26496,note_on,,,,,4,0,2,,,,,1,,,64,92
26496,note_on,,,,,4,0,7,,,,,5,,,45,92
26496,note_on,,,,,4,0,8,,,,,6,,,33,75
26496,note_on,,,,,4,0,9,,,,,7,,,45,60
26496,note_on,,,,,4,0,6,,,,,4,,,60,92
26588,note_off,,,,,284,0,1,,,,,0,,,67,0
26588,note_off,,,,,284,0,4,,,,,2,,,67,0
26592,note_on,,,,,4,0,4,,,,,2,,,66,108
26592,note_on,,,,,4,0,1,,,,,0,,,66,92
26684,note_off,,,,,188,0,3,,,,,8,,,45,0
26684,note_off,,,,,188,0,8,,,,,6,,,33,0
26684,note_off,,,,,92,0,1,,,,,0,,,66,0
26684,note_off,,,,,188,0,6,,,,,4,,,60,0
26684,note_off,,,,,188,0,7,,,,,5,,,45,0
26684,note_off,,,,,188,0,9,,,,,7,,,45,0
26684,note_off,,,,,92,0,4,,,,,2,,,66,0
26688,note_on,,,,,4,0,8,,,,,6,,,35,75
26688,note_on,,,,,4,0,7,,,,,5,,,47,92
26688,note_on,,,,,4,0,6,,,,,4,,,59,92
26688,note_on,,,,,4,0,9,,,,,7,,,47,60
26688,note_on,,,,,4,0,1,,,,,0,,,67,92
26688,note_on,,,,,4,0,4,,,,,2,,,67,108
26688,note_on,,,,,4,0,3,,,,,8,,,47,92
26736,note_on,,,,,0,0,4,,,,,2,,,66,108
26736,note_off,,,,,48,0,1,,,,,0,,,67,0
26736,note_off,,,,,48,0,4,,,,,2,,,67,0
26736,note_on,,,,,0,0,1,,,,,0,,,66,92
26784,note_on,,,,,0,0,1,,,,,0,,,67,92
26784,note_on,,,,,0,0,4,,,,,2,,,67,108
26784,note_off,,,,,48,0,1,,,,,0,,,66,0
26784,note_off,,,,,48,0,4,,,,,2,,,66,0
26816,note_off,,,,,320,0,5,,,,,3,,,64,0
26816,note_off,,,,,320,0,2,,,,,1,,,64,0
26832,note_on,,,,,0,0,1,,,,,0,,,66,92
26832,note_off,,,,,48,0,4,,,,,2,,,67,0
26832,note_off,,,,,48,0,1,,,,,0,,,67,0
26832,note_on,,,,,0,0,4,,,,,2,,,66,108
26876,note_off,,,,,188,0,6,,,,,4,,,59,0
26876,note_off,,,,,188,0,9,,,,,7,,,47,0
26876,note_off,,,,,188,0,8,,,,,6,,,35,0
26876,note_off,,,,,188,0,3,,,,,8,,,47,0
26876,note_off,,,,,188,0,7,,,,,5,,,47,0
26880,note_on,,,,,4,0,3,,,,,8,,,47,92
26880,note_on,,,,,4,0,9,,,,,7,,,47,60
26880,note_on,,,,,4,0,8,,,,,6,,,35,75
26880,note_on,,,,,0,0,1,,,,,0,,,67,92
26880,note_off,,,,,48,0,1,,,,,0,,,66,0
26880,note_on,,,,,64,0,5,,,,,3,,,63,108
26880,note_on,,,,,64,0,2,,,,,1,,,63,92
26880,note_on,,,,,4,0,7,,,,,5,,,47,92
26880,note_off,,,,,48,0,4,,,,,2,,,66,0
26880,note_on,,,,,0,0,4,,,,,2,,,67,108
26880,note_on,,,,,4,0,6,,,,,4,,,59,92
26928,note_off,,,,,48,0,4,,,,,2,,,67,0
26928,note_on,,,,,0,0,4,,,,,2,,,66,108
26928,note_on,,,,,0,0,1,,,,,0,,,66,92
26928,note_off,,,,,48,0,1,,,,,0,,,67,0
26972,note_off,,,,,44,0,1,,,,,0,,,66,0
26972,note_off,,,,,44,0,4,,,,,2,,,66,0
26976,note_on,,,,,4,0,4,,,,,2,,,64,108
26976,note_on,,,,,4,0,1,,,,,0,,,64,92
27068,note_off,,,,,92,0,1,,,,,0,,,64,0
27068,note_off,,,,,188,0,3,,,,,8,,,47,0
27068,note_off,,,,,92,0,4,,,,,2,,,64,0
27068,note_off,,,,,188,0,8,,,,,6,,,35,0
27068,note_off,,,,,188,0,2,,,,,1,,,63,0
27068,note_off,,,,,188,0,9,,,,,7,,,47,0
27068,note_off,,,,,188,0,6,,,,,4,,,59,0
27068,note_off,,,,,188,0,5,,,,,3,,,63,0
27068,note_off,,,,,188,0,7,,,,,5,,,47,0
27072,note_on,,,,,4,0,9,,,,,7,,,40,60
27072,note_on,,,,,4,0,1,,,,,0,,,64,92
27072,note_on,,,,,4,0,5,,,,,3,,,64,108
27072,note_on,,,,,4,0,4,,,,,2,,,64,108
27072,note_on,,,,,4,0,8,,,,,6,,,28,75
27072,note_on,,,,,4,0,6,,,,,4,,,59,92
27072,note_on,,,,,4,0,2,,,,,1,,,64,92
27072,note_on,,,,,4,0,7,,,,,5,,,40,92
27072,note_on,,,,,4,0,3,,,,,8,,,40,92
27584,note_off,,,,,512,0,7,,,,,5,,,40,0
27584,note_off,,,,,512,0,9,,,,,7,,,40,0
27584,note_off,,,,,512,0,8,,,,,6,,,28,0
27584,note_off,,,,,512,0,3,,,,,8,,,40,0
27584,note_off,,,,,512,0,6,,,,,4,,,59,0
27584,note_off,,,,,512,0,2,,,,,1,,,64,0
27584,note_off,,,,,512,0,1,,,,,0,,,64,0
27584,note_off,,,,,512,0,5,,,,,3,,,64,0
27584,note_off,,,,,512,0,4,,,,,2,,,64,0
27648,note_on,,,,,64,0,2,,,,,1,,,71,92
27648,note_on,,,,,64,0,3,,,,,8,,,55,92
27648,note_on,,,,,64,0,1,,,,,0,,,74,92
27836,note_off,,,,,188,0,1,,,,,0,,,74,0
27836,note_off,,,,,188,0,2,,,,,1,,,71,0
27840,note_on,,,,,4,0,2,,,,,1,,,72,92
27840,note_on,,,,,4,0,1,,,,,0,,,76,92
27936,note_on,,,,,0,0,2,,,,,1,,,71,92
27936,note_off,,,,,96,0,2,,,,,1,,,72,0
27936,note_off,,,,,96,0,1,,,,,0,,,76,0
27936,note_on,,,,,0,0,1,,,,,0,,,74,92
27968,note_off,,,,,320,0,3,,,,,8,,,55,0
28028,note_off,,,,,92,0,1,,,,,0,,,74,0
28028,note_off,,,,,92,0,2,,,,,1,,,71,0
28032,note_on,,,,,4,0,1,,,,,0,,,79,92
28032,note_on,,,,,64,0,3,,,,,8,,,59,92
28032,note_on,,,,,4,0,2,,,,,1,,,76,92
28220,note_off,,,,,188,0,1,,,,,0,,,79,0
28220,note_off,,,,,188,0,3,,,,,8,,,59,0
28220,note_off,,,,,188,0,2,,,,,1,,,76,0
28224,note_on,,,,,4,0,2,,,,,1,,,72,92
28224,note_on,,,,,4,0,3,,,,,8,,,60,92
28224,note_on,,,,,4,0,1,,,,,0,,,76,92
28412,note_off,,,,,188,0,2,,,,,1,,,72,0
28412,note_off,,,,,188,0,3,,,,,8,,,60,0
28412,note_off,,,,,188,0,1,,,,,0,,,76,0
28416,note_on,,,,,4,0,3,,,,,8,,,55,92
28416,note_on,,,,,4,0,1,,,,,0,,,74,92
28416,note_on,,,,,4,0,2,,,,,1,,,71,92
28736,note_off,,,,,320,0,2,,,,,1,,,71,0
28736,note_off,,,,,320,0,3,,,,,8,,,55,0
28736,note_off,,,,,320,0,1,,,,,0,,,74,0
28800,note_on,,,,,1216,0,6,,,,,4,,,62,92
28800,note_on,,,,,1216,0,5,,,,,3,,,71,108
28800,note_on,,,,,1216,0,4,,,,,2,,,74,108
28800,note_on,,,,,1216,0,7,,,,,5,,,55,92
28800,note_on,,,,,1216,0,9,,,,,7,,,55,60
28800,note_on,,,,,1216,0,8,,,,,6,,,43,75
28988,note_off,,,,,188,0,4,,,,,2,,,74,0
28988,note_off,,,,,188,0,9,,,,,7,,,55,0
28988,note_off,,,,,188,0,5,,,,,3,,,71,0
28988,note_off,,,,,188,0,6,,,,,4,,,62,0
28988,note_off,,,,,188,0,7,,,,,5,,,55,0
28988,note_off,,,,,188,0,8,,,,,6,,,43,0
28992,note_on,,,,,4,0,9,,,,,7,,,55,60
28992,note_on,,,,,4,0,4,,,,,2,,,76,108
28992,note_on,,,,,4,0,5,,,,,3,,,72,108
28992,note_on,,,,,4,0,7,,,,,5,,,55,92
28992,note_on,,,,,4,0,6,,,,,4,,,62,92
28992,note_on,,,,,4,0,8,,,,,6,,,43,75
29088,note_off,,,,,96,0,5,,,,,3,,,72,0
29088,note_off,,,,,96,0,4,,,,,2,,,76,0
29088,note_on,,,,,0,0,4,,,,,2,,,74,108
29088,note_on,,,,,0,0,5,,,,,3,,,71,108
29180,note_off,,,,,188,0,6,,,,,4,,,62,0
29180,note_off,,,,,92,0,5,,,,,3,,,71,0
29180,note_off,,,,,92,0,4,,,,,2,,,74,0
29180,note_off,,,,,188,0,9,,,,,7,,,55,0
29180,note_off,,,,,188,0,7,,,,,5,,,55,0
29180,note_off,,,,,188,0,8,,,,,6,,,43,0
29184,note_on,,,,,4,0,9,,,,,7,,,55,60
29184,note_on,,,,,4,0,4,,,,,2,,,79,108
29184,note_on,,,,,4,0,8,,,,,6,,,43,75
29184,note_on,,,,,4,0,7,,,,,5,,,55,92
29184,note_on,,,,,4,0,5,,,,,3,,,76,108
29184,note_on,,,,,4,0,6,,,,,4,,,62,92
29372,note_off,,,,,188,0,6,,,,,4,,,62,0
29372,note_off,,,,,188,0,4,,,,,2,,,79,0
29372,note_off,,,,,188,0,8,,,,,6,,,43,0
29372,note_off,,,,,188,0,7,,,,,5,,,55,0
29372,note_off,,,,,188,0,5,,,,,3,,,76,0
29372,note_off,,,,,188,0,9,,,,,7,,,55,0
29376,note_on,,,,,4,0,8,,,,,6,,,43,75
29376,note_on,,,,,4,0,4,,,,,2,,,76,108
29376,note_on,,,,,4,0,6,,,,,4,,,67,92
29376,note_on,,,,,4,0,9,,,,,7,,,55,60
29376,note_on,,,,,4,0,5,,,,,3,,,72,108
29376,note_on,,,,,4,0,7,,,,,5,,,55,92
29564,note_off,,,,,188,0,5,,,,,3,,,72,0
29564,note_off,,,,,188,0,9,,,,,7,,,55,0
29564,note_off,,,,,188,0,7,,,,,5,,,55,0
29564,note_off,,,,,188,0,4,,,,,2,,,76,0
29564,note_off,,,,,188,0,6,,,,,4,,,67,0
29564,note_off,,,,,188,0,8,,,,,6,,,43,0
29568,note_on,,,,,4,0,9,,,,,7,,,43,60
29568,note_on,,,,,4,0,5,,,,,3,,,71,108
29568,note_on,,,,,4,0,4,,,,,2,,,74,108
29568,note_on,,,,,4,0,8,,,,,6,,,31,75
29568,note_on,,,,,4,0,7,,,,,5,,,43,92
29568,note_on,,,,,4,0,6,,,,,4,,,67,92
29888,note_off,,,,,320,0,8,,,,,6,,,31,0
29888,note_off,,,,,320,0,7,,,,,5,,,43,0
29888,note_off,,,,,320,0,9,,,,,7,,,43,0
29888,note_off,,,,,320,0,5,,,,,3,,,71,0
29888,note_off,,,,,320,0,6,,,,,4,,,67,0
29888,note_off,,,,,320,0,4,,,,,2,,,74,0
29952,note_on,,,,,1216,0,3,,,,,8,,,60,92
29952,note_on,,,,,1216,0,1,,,,,0,,,79,92
29952,note_on,,,,,1216,0,2,,,,,1,,,76,92
30140,note_off,,,,,188,0,2,,,,,1,,,76,0
30140,note_off,,,,,188,0,1,,,,,0,,,79,0
30144,note_on,,,,,4,0,2,,,,,1,,,77,92
30144,note_on,,,,,4,0,1,,,,,0,,,81,92
30240,note_off,,,,,96,0,1,,,,,0,,,81,0
30240,note_on,,,,,0,0,1,,,,,0,,,79,92
30240,note_off,,,,,96,0,2,,,,,1,,,77,0
30240,note_on,,,,,0,0,2,,,,,1,,,76,92
30272,note_off,,,,,320,0,3,,,,,8,,,60,0
30332,note_off,,,,,92,0,2,,,,,1,,,76,0
30332,note_off,,,,,92,0,1,,,,,0,,,79,0
30336,note_on,,,,,4,0,1,,,,,0,,,84,92
30336,note_on,,,,,4,0,2,,,,,1,,,79,92
30336,note_on,,,,,64,0,3,,,,,8,,,64,92
30524,note_off,,,,,188,0,1,,,,,0,,,84,0
30524,note_off,,,,,188,0,3,,,,,8,,,64,0
30524,note_off,,,,,188,0,2,,,,,1,,,79,0
30528,note_on,,,,,4,0,2,,,,,1,,,77,92
30528,note_on,,,,,4,0,1,,,,,0,,,82,92
30528,note_on,,,,,4,0,3,,,,,8,,,65,92
30624,note_on,,,,,0,0,1,,,,,0,,,81,92
30624,note_off,,,,,96,0,1,,,,,0,,,82,0
30716,note_off,,,,,92,0,1,,,,,0,,,81,0
30716,note_off,,,,,188,0,3,,,,,8,,,65,0
30716,note_off,,,,,188,0,2,,,,,1,,,77,0
30720,note_on,,,,,4,0,2,,,,,1,,,76,92
30720,note_on,,,,,4,0,3,,,,,8,,,60,92
30720,note_on,,,,,4,0,1,,,,,0,,,79,92
31040,note_off,,,,,320,0,2,,,,,1,,,76,0
31040,note_off,,,,,320,0,3,,,,,8,,,60,0
31040,note_off,,,,,320,0,1,,,,,0,,,79,0
31104,note_on,,,,,1216,0,8,,,,,6,,,36,75
31104,note_on,,,,,1216,0,6,,,,,4,,,55,92
31104,note_on,,,,,1216,0,7,,,,,5,,,48,92
31104,note_on,,,,,1216,0,9,,,,,7,,,48,60
31104,note_on,,,,,1216,0,4,,,,,2,,,67,108
31104,note_on,,,,,1216,0,5,,,,,3,,,64,108
31292,note_off,,,,,188,0,6,,,,,4,,,55,0
31292,note_off,,,,,188,0,7,,,,,5,,,48,0
31292,note_off,,,,,188,0,5,,,,,3,,,64,0
31292,note_off,,,,,188,0,8,,,,,6,,,36,0
31292,note_off,,,,,188,0,9,,,,,7,,,48,0
31292,note_off,,,,,188,0,4,,,,,2,,,67,0
31296,note_on,,,,,4,0,6,,,,,4,,,55,92
31296,note_on,,,,,4,0,8,,,,,6,,,36,75
31296,note_on,,,,,4,0,7,,,,,5,,,48,92
31296,note_on,,,,,4,0,9,,,,,7,,,48,60
31296,note_on,,,,,4,0,4,,,,,2,,,69,108
31296,note_on,,,,,4,0,5,,,,,3,,,64,108
31392,note_on,,,,,0,0,4,,,,,2,,,67,108
31392,note_off,,,,,96,0,4,,,,,2,,,69,0
31484,note_off,,,,,188,0,8,,,,,6,,,36,0
31484,note_off,,,,,188,0,5,,,,,3,,,64,0
31484,note_off,,,,,188,0,6,,,,,4,,,55,0
31484,note_off,,,,,188,0,9,,,,,7,,,48,0
31484,note_off,,,,,92,0,4,,,,,2,,,67,0
31484,note_off,,,,,188,0,7,,,,,5,,,48,0
31488,note_on,,,,,4,0,6,,,,,4,,,55,92
31488,note_on,,,,,4,0,7,,,,,5,,,48,92
31488,note_on,,,,,4,0,4,,,,,2,,,72,108
31488,note_on,,,,,4,0,8,,,,,6,,,36,75
31488,note_on,,,,,4,0,5,,,,,3,,,64,108
31488,note_on,,,,,4,0,9,,,,,7,,,48,60
31676,note_off,,,,,188,0,9,,,,,7,,,48,0
31676,note_off,,,,,188,0,6,,,,,4,,,55,0
31676,note_off,,,,,188,0,8,,,,,6,,,36,0
31676,note_off,,,,,188,0,7,,,,,5,,,48,0
31676,note_off,,,,,188,0,5,,,,,3,,,64,0
31676,note_off,,,,,188,0,4,,,,,2,,,72,0
31680,note_on,,,,,4,0,7,,,,,5,,,48,92
31680,note_on,,,,,4,0,4,,,,,2,,,69,108
31680,note_on,,,,,4,0,6,,,,,4,,,60,92
31680,note_on,,,,,4,0,9,,,,,7,,,48,60
31680,note_on,,,,,4,0,8,,,,,6,,,36,75
31680,note_on,,,,,4,0,5,,,,,3,,,65,108
31868,note_off,,,,,188,0,8,,,,,6,,,36,0
31868,note_off,,,,,188,0,4,,,,,2,,,69,0
31868,note_off,,,,,188,0,7,,,,,5,,,48,0
31868,note_off,,,,,188,0,5,,,,,3,,,65,0
31868,note_off,,,,,188,0,9,,,,,7,,,48,0
31868,note_off,,,,,188,0,6,,,,,4,,,60,0
31872,note_on,,,,,4,0,5,,,,,3,,,64,108
31872,note_on,,,,,4,0,8,,,,,6,,,24,75
31872,note_on,,,,,4,0,4,,,,,2,,,67,108
31872,note_on,,,,,4,0,7,,,,,5,,,36,92
31872,note_on,,,,,4,0,6,,,,,4,,,60,92
31872,note_on,,,,,4,0,9,,,,,7,,,36,60
32192,note_off,,,,,320,0,7,,,,,5,,,36,0
32192,note_off,,,,,320,0,5,,,,,3,,,64,0
32192,note_off,,,,,320,0,4,,,,,2,,,67,0
32192,note_off,,,,,320,0,8,,,,,6,,,24,0
32192,note_off,,,,,320,0,6,,,,,4,,,60,0
32192,note_off,,,,,320,0,9,,,,,7,,,36,0
32256,note_on,,,,,1216,0,2,,,,,1,,,77,92
32256,note_on,,,,,1216,0,3,,,,,8,,,62,92
32256,note_on,,,,,1216,0,1,,,,,0,,,82,92
32444,note_off,,,,,188,0,3,,,,,8,,,62,0
32444,note_off,,,,,188,0,1,,,,,0,,,82,0
32444,note_off,,,,,188,0,2,,,,,1,,,77,0
32448,note_on,,,,,4,0,1,,,,,0,,,82,92
32448,note_on,,,,,4,0,3,,,,,8,,,62,92
32448,note_on,,,,,4,0,2,,,,,1,,,77,92
32636,note_off,,,,,188,0,2,,,,,1,,,77,0
32636,note_off,,,,,188,0,3,,,,,8,,,62,0
32636,note_off,,,,,188,0,1,,,,,0,,,82,0
32640,note_on,,,,,4,0,3,,,,,8,,,60,92
32640,note_on,,,,,4,0,2,,,,,1,,,76,92
32640,note_on,,,,,4,0,1,,,,,0,,,81,92
32828,note_off,,,,,188,0,3,,,,,8,,,60,0
32828,note_off,,,,,188,0,1,,,,,0,,,81,0
32828,note_off,,,,,188,0,2,,,,,1,,,76,0
32832,note_on,,,,,4,0,2,,,,,1,,,74,92
32832,note_on,,,,,4,0,3,,,,,8,,,59,92
32832,note_on,,,,,4,0,1,,,,,0,,,80,92
33116,note_off,,,,,284,0,1,,,,,0,,,80,0
33120,note_on,,,,,4,0,1,,,,,0,,,80,92
33152,note_off,,,,,320,0,2,,,,,1,,,74,0
33152,note_off,,,,,320,0,3,,,,,8,,,59,0
33212,note_off,,,,,92,0,1,,,,,0,,,80,0
33216,note_on,,,,,64,0,2,,,,,1,,,76,92
33216,note_on,,,,,4,0,1,,,,,0,,,81,92
33216,note_on,,,,,64,0,3,,,,,8,,,60,92
33312,note_on,,,,,0,0,1,,,,,0,,,80,92
33312,note_off,,,,,96,0,1,,,,,0,,,81,0
33404,note_off,,,,,188,0,3,,,,,8,,,60,0
33404,note_off,,,,,188,0,2,,,,,1,,,76,0
33404,note_off,,,,,92,0,1,,,,,0,,,80,0
33408,note_on,,,,,4,0,2,,,,,1,,,81,92
33408,note_on,,,,,4,0,1,,,,,0,,,81,92
33408,note_on,,,,,4,0,3,,,,,8,,,57,92
33500,note_off,,,,,92,0,1,,,,,0,,,81,0
33504,note_on,,,,,4,0,1,,,,,0,,,83,92
33596,note_off,,,,,92,0,1,,,,,0,,,83,0
33596,note_off,,,,,188,0,3,,,,,8,,,57,0
33600,note_on,,,,,4,0,1,,,,,0,,,84,92
33600,note_on,,,,,4,0,3,,,,,8,,,64,92
33728,note_off,,,,,320,0,2,,,,,1,,,81,0
33788,note_off,,,,,188,0,3,,,,,8,,,64,0
33788,note_off,,,,,188,0,1,,,,,0,,,84,0
33792,note_on,,,,,64,0,2,,,,,1,,,80,92
33792,note_on,,,,,4,0,1,,,,,0,,,83,92
33792,note_on,,,,,4,0,3,,,,,8,,,52,92
33884,note_off,,,,,92,0,1,,,,,0,,,83,0
33888,note_on,,,,,4,0,1,,,,,0,,,81,92
33980,note_off,,,,,188,0,3,,,,,8,,,52,0
33980,note_off,,,,,188,0,2,,,,,1,,,80,0
33980,note_off,,,,,92,0,1,,,,,0,,,81,0
33984,note_on,,,,,4,0,2,,,,,1,,,81,92
33984,note_on,,,,,4,0,3,,,,,8,,,57,92
33984,note_on,,,,,4,0,1,,,,,0,,,81,92
34496,note_off,,,,,512,0,2,,,,,1,,,81,0
34496,note_off,,,,,512,0,1,,,,,0,,,81,0
34496,note_off,,,,,512,0,3,,,,,8,,,57,0
34560,note_on,,,,,2368,0,7,,,,,5,,,53,92
34560,note_on,,,,,64,0,1,,,,,0,,,72,92
34560,note_on,,,,,2368,0,5,,,,,3,,,69,108
34560,note_on,,,,,2368,0,4,,,,,2,,,72,108
34560,note_on,,,,,2368,0,6,,,,,4,,,65,92
34560,note_on,,,,,64,0,3,,,,,8,,,53,92
34560,note_on,,,,,64,0,2,,,,,1,,,69,92
34560,note_on,,,,,2368,0,9,,,,,7,,,53,60
34560,note_on,,,,,2368,0,8,,,,,6,,,41,75
34748,note_off,,,,,188,0,5,,,,,3,,,69,0
34748,note_off,,,,,188,0,6,,,,,4,,,65,0
34748,note_off,,,,,188,0,9,,,,,7,,,53,0
34748,note_off,,,,,188,0,4,,,,,2,,,72,0
34748,note_off,,,,,188,0,1,,,,,0,,,72,0
34748,note_off,,,,,188,0,8,,,,,6,,,41,0
34748,note_off,,,,,188,0,2,,,,,1,,,69,0
34748,note_off,,,,,188,0,3,,,,,8,,,53,0
34748,note_off,,,,,188,0,7,,,,,5,,,53,0
34752,note_on,,,,,4,0,8,,,,,6,,,41,75
34752,note_on,,,,,4,0,2,,,,,1,,,70,92
34752,note_on,,,,,4,0,4,,,,,2,,,74,108
34752,note_on,,,,,4,0,7,,,,,5,,,53,92
34752,note_on,,,,,4,0,6,,,,,4,,,65,92
34752,note_on,,,,,4,0,3,,,,,8,,,53,92
34752,note_on,,,,,4,0,9,,,,,7,,,53,60
34752,note_on,,,,,4,0,1,,,,,0,,,74,92
34752,note_on,,,,,4,0,5,,,,,3,,,69,108
34848,note_on,,,,,0,0,2,,,,,1,,,69,92
34848,note_off,,,,,96,0,4,,,,,2,,,74,0
34848,note_on,,,,,0,0,4,,,,,2,,,72,108
34848,note_on,,,,,0,0,1,,,,,0,,,72,92
34848,note_off,,,,,96,0,2,,,,,1,,,70,0
34848,note_off,,,,,96,0,1,,,,,0,,,74,0
34940,note_off,,,,,188,0,3,,,,,8,,,53,0
34940,note_off,,,,,92,0,1,,,,,0,,,72,0
34940,note_off,,,,,188,0,8,,,,,6,,,41,0
34940,note_off,,,,,188,0,7,,,,,5,,,53,0
34940,note_off,,,,,188,0,6,,,,,4,,,65,0
34940,note_off,,,,,188,0,9,,,,,7,,,53,0
34940,note_off,,,,,188,0,5,,,,,3,,,69,0
34940,note_off,,,,,92,0,2,,,,,1,,,69,0
34940,note_off,,,,,92,0,4,,,,,2,,,72,0
34944,note_on,,,,,4,0,6,,,,,4,,,65,92
34944,note_on,,,,,4,0,7,,,,,5,,,53,92
34944,note_on,,,,,4,0,5,,,,,3,,,69,108
34944,note_on,,,,,4,0,1,,,,,0,,,77,92
34944,note_on,,,,,4,0,8,,,,,6,,,41,75
34944,note_on,,,,,4,0,2,,,,,1,,,72,92
34944,note_on,,,,,4,0,4,,,,,2,,,77,108
34944,note_on,,,,,4,0,3,,,,,8,,,53,92
34944,note_on,,,,,4,0,9,,,,,7,,,53,60
35132,note_off,,,,,188,0,6,,,,,4,,,65,0
35132,note_off,,,,,188,0,2,,,,,1,,,72,0
35132,note_off,,,,,188,0,1,,,,,0,,,77,0
35132,note_off,,,,,188,0,3,,,,,8,,,53,0
35132,note_off,,,,,188,0,4,,,,,2,,,77,0
35132,note_off,,,,,188,0,5,,,,,3,,,69,0
35132,note_off,,,,,188,0,9,,,,,7,,,53,0
35132,note_off,,,,,188,0,7,,,,,5,,,53,0
35132,note_off,,,,,188,0,8,,,,,6,,,41,0
35136,note_on,,,,,4,0,6,,,,,4,,,65,92
35136,note_on,,,,,4,0,9,,,,,7,,,53,60
35136,note_on,,,,,4,0,4,,,,,2,,,74,108
35136,note_on,,,,,4,0,7,,,,,5,,,53,92
35136,note_on,,,,,4,0,2,,,,,1,,,70,92
35136,note_on,,,,,4,0,3,,,,,8,,,53,92
35136,note_on,,,,,4,0,5,,,,,3,,,70,108
35136,note_on,,,,,4,0,1,,,,,0,,,74,92
35136,note_on,,,,,4,0,8,,,,,6,,,41,75
35324,note_off,,,,,188,0,8,,,,,6,,,41,0
35324,note_off,,,,,188,0,2,,,,,1,,,70,0
35324,note_off,,,,,188,0,3,,,,,8,,,53,0
35324,note_off,,,,,188,0,9,,,,,7,,,53,0
35324,note_off,,,,,188,0,5,,,,,3,,,70,0
35324,note_off,,,,,188,0,4,,,,,2,,,74,0
35324,note_off,,,,,188,0,7,,,,,5,,,53,0
35324,note_off,,,,,188,0,1,,,,,0,,,74,0
35324,note_off,,,,,188,0,6,,,,,4,,,65,0
35328,note_on,,,,,4,0,5,,,,,3,,,69,108
35328,note_on,,,,,4,0,1,,,,,0,,,72,92
35328,note_on,,,,,4,0,8,,,,,6,,,29,75
35328,note_on,,,,,4,0,3,,,,,8,,,41,92
35328,note_on,,,,,4,0,7,,,,,5,,,41,92
35328,note_on,,,,,4,0,4,,,,,2,,,72,108
35328,note_on,,,,,4,0,6,,,,,4,,,65,92
35328,note_on,,,,,4,0,2,,,,,1,,,69,92
35328,note_on,,,,,4,0,9,,,,,7,,,41,60
35648,note_off,,,,,320,0,7,,,,,5,,,41,0
35648,note_off,,,,,320,0,6,,,,,4,,,65,0
35648,note_off,,,,,320,0,9,,,,,7,,,41,0
35648,note_off,,,,,320,0,2,,,,,1,,,69,0
35648,note_off,,,,,320,0,1,,,,,0,,,72,0
35648,note_off,,,,,320,0,5,,,,,3,,,69,0
35648,note_off,,,,,320,0,4,,,,,2,,,72,0
35648,note_off,,,,,320,0,3,,,,,8,,,41,0
35648,note_off,,,,,320,0,8,,,,,6,,,29,0
35712,note_on,,,,,64,0,2,,,,,1,,,72,92
35712,note_on,,,,,64,0,1,,,,,0,,,79,92
35712,note_on,,,,,64,0,3,,,,,8,,,64,92
35900,note_off,,,,,188,0,1,,,,,0,,,79,0
35900,note_off,,,,,188,0,3,,,,,8,,,64,0
35904,note_on,,,,,4,0,1,,,,,0,,,81,92
35904,note_on,,,,,4,0,3,,,,,8,,,60,92
35996,note_off,,,,,284,0,2,,,,,1,,,72,0
36000,note_on,,,,,4,0,2,,,,,1,,,76,92
36000,note_on,,,,,0,0,1,,,,,0,,,79,92
36000,note_off,,,,,96,0,1,,,,,0,,,81,0
36092,note_off,,,,,188,0,3,,,,,8,,,60,0
36092,note_off,,,,,92,0,2,,,,,1,,,76,0
36092,note_off,,,,,92,0,1,,,,,0,,,79,0
36096,note_on,,,,,4,0,1,,,,,0,,,84,92
36096,note_on,,,,,4,0,2,,,,,1,,,79,92
36096,note_on,,,,,4,0,3,,,,,8,,,64,92
36284,note_off,,,,,188,0,3,,,,,8,,,64,0
36284,note_off,,,,,188,0,1,,,,,0,,,84,0
36284,note_off,,,,,188,0,2,,,,,1,,,79,0
36288,note_on,,,,,4,0,2,,,,,1,,,77,92
36288,note_on,,,,,4,0,1,,,,,0,,,81,92
36288,note_on,,,,,4,0,3,,,,,8,,,65,92
36476,note_off,,,,,188,0,3,,,,,8,,,65,0
36476,note_off,,,,,188,0,2,,,,,1,,,77,0
36476,note_off,,,,,188,0,1,,,,,0,,,81,0
36480,note_on,,,,,4,0,3,,,,,8,,,60,92
36480,note_on,,,,,4,0,1,,,,,0,,,79,92
36480,note_on,,,,,4,0,2,,,,,1,,,76,92
36800,note_off,,,,,320,0,2,,,,,1,,,76,0
36800,note_off,,,,,320,0,3,,,,,8,,,60,0
36800,note_off,,,,,320,0,1,,,,,0,,,79,0
36864,note_on,,,,,64,0,2,,,,,1,,,64,60
36864,note_on,,,,,64,0,3,,,,,8,,,59,92
36864,note_on,,,,,1216,0,9,,,,,7,,,47,45
36864,note_on,,,,,1216,0,4,,,,,2,,,67,75
36864,note_on,,,,,1216,0,5,,,,,3,,,64,75
36864,note_on,,,,,1216,0,8,,,,,6,,,35,60
36864,note_on,,,,,1216,0,7,,,,,5,,,47,60
36864,note_on,,,,,64,0,1,,,,,0,,,67,60
36864,note_on,,,,,1216,0,6,,,,,4,,,67,60
37052,note_off,,,,,188,0,4,,,,,2,,,67,0
37052,note_off,,,,,188,0,2,,,,,1,,,64,0
37052,note_off,,,,,188,0,1,,,,,0,,,67,0
37056,note_on,,,,,4,0,4,,,,,2,,,69,75
37056,note_on,,,,,4,0,2,,,,,1,,,64,60
37056,note_on,,,,,4,0,1,,,,,0,,,69,60
37152,note_on,,,,,0,0,4,,,,,2,,,67,75
37152,note_off,,,,,96,0,4,,,,,2,,,69,0
37152,note_off,,,,,96,0,1,,,,,0,,,69,0
37152,note_on,,,,,0,0,1,,,,,0,,,67,60
37244,note_off,,,,,92,0,1,,,,,0,,,67,0
37244,note_off,,,,,92,0,4,,,,,2,,,67,0
37244,note_off,,,,,188,0,2,,,,,1,,,64,0
37248,note_on,,,,,4,0,2,,,,,1,,,67,60
37248,note_on,,,,,4,0,1,,,,,0,,,71,60
37248,note_on,,,,,4,0,4,,,,,2,,,71,75
37376,note_off,,,,,512,0,5,,,,,3,,,64,0
37376,note_off,,,,,512,0,9,,,,,7,,,47,0
37376,note_off,,,,,512,0,6,,,,,4,,,67,0
37376,note_off,,,,,512,0,7,,,,,5,,,47,0
37376,note_off,,,,,512,0,8,,,,,6,,,35,0
37436,note_off,,,,,188,0,1,,,,,0,,,71,0
37436,note_off,,,,,188,0,4,,,,,2,,,71,0
37436,note_off,,,,,188,0,2,,,,,1,,,67,0
37440,note_on,,,,,64,0,7,,,,,5,,,47,60
37440,note_off,,,,,576,0,3,,,,,8,,,59,0
37440,note_on,,,,,0,0,3,,,,,8,,,59,92
37440,note_on,,,,,4,0,1,,,,,0,,,67,60
37440,note_on,,,,,64,0,8,,,,,6,,,35,60
37440,note_on,,,,,4,0,4,,,,,2,,,67,75
37440,note_on,,,,,64,0,6,,,,,4,,,59,60
37440,note_on,,,,,4,0,2,,,,,1,,,64,60
37440,note_on,,,,,64,0,5,,,,,3,,,64,75
37440,note_on,,,,,64,0,9,,,,,7,,,47,45
37628,note_off,,,,,188,0,1,,,,,0,,,67,0
37628,note_off,,,,,188,0,4,,,,,2,,,67,0
37628,note_off,,,,,188,0,2,,,,,1,,,64,0
37628,note_off,,,,,188,0,5,,,,,3,,,64,0
37628,note_off,,,,,188,0,6,,,,,4,,,59,0
37632,note_on,,,,,4,0,5,,,,,3,,,63,75
37632,note_on,,,,,4,0,4,,,,,2,,,66,75
37632,note_on,,,,,4,0,2,,,,,1,,,63,60
37632,note_on,,,,,4,0,1,,,,,0,,,66,60
37632,note_on,,,,,4,0,6,,,,,4,,,59,60
37952,note_off,,,,,320,0,4,,,,,2,,,66,0
37952,note_off,,,,,320,0,1,,,,,0,,,66,0
37952,note_off,,,,,512,0,9,,,,,7,,,47,0
37952,note_off,,,,,320,0,6,,,,,4,,,59,0
37952,note_off,,,,,512,0,7,,,,,5,,,47,0
37952,note_off,,,,,512,0,3,,,,,8,,,59,0
37952,note_off,,,,,320,0,5,,,,,3,,,63,0
37952,note_off,,,,,512,0,8,,,,,6,,,35,0
37952,note_off,,,,,320,0,2,,,,,1,,,63,0
38016,note_on,,,,,64,0,2,,,,,1,,,76,60
38016,note_on,,,,,64,0,3,,,,,8,,,59,92
38016,note_on,,,,,64,0,1,,,,,0,,,79,60
38204,note_off,,,,,188,0,2,,,,,1,,,76,0
38204,note_off,,,,,188,0,1,,,,,0,,,79,0
38208,note_on,,,,,4,0,1,,,,,0,,,81,60
38208,note_on,,,,,4,0,2,,,,,1,,,78,60
38304,note_off,,,,,96,0,1,,,,,0,,,81,0
38304,note_on,,,,,0,0,1,,,,,0,,,79,60
38396,note_off,,,,,188,0,2,,,,,1,,,78,0
38396,note_off,,,,,92,0,1,,,,,0,,,79,0
38400,note_on,,,,,4,0,2,,,,,1,,,75,60
38400,note_on,,,,,4,0,1,,,,,0,,,83,60
38588,note_off,,,,,188,0,2,,,,,1,,,75,0
38588,note_off,,,,,188,0,1,,,,,0,,,83,0
38592,note_on,,,,,4,0,2,,,,,1,,,76,60
38592,note_on,,,,,4,0,1,,,,,0,,,79,60
38780,note_off,,,,,188,0,1,,,,,0,,,79,0
38780,note_off,,,,,188,0,2,,,,,1,,,76,0
38784,note_on,,,,,4,0,2,,,,,1,,,75,60
38784,note_on,,,,,4,0,1,,,,,0,,,78,60
38876,note_off,,,,,860,0,3,,,,,8,,,59,0
38880,note_on,,,,,4,0,3,,,,,8,,,57,92
38972,note_off,,,,,92,0,3,,,,,8,,,57,0
38976,note_on,,,,,4,0,3,,,,,8,,,55,92
39068,note_off,,,,,92,0,3,,,,,8,,,55,0
39072,note_on,,,,,4,0,3,,,,,8,,,54,92
39104,note_off,,,,,320,0,1,,,,,0,,,78,0
39104,note_off,,,,,320,0,2,,,,,1,,,75,0
39164,note_off,,,,,92,0,3,,,,,8,,,54,0
39168,note_on,,,,,4,0,3,,,,,8,,,55,92
39168,note_on,,,,,1216,0,4,,,,,2,,,64,108
39168,note_on,,,,,64,0,1,,,,,0,,,64,92
39356,note_off,,,,,188,0,1,,,,,0,,,64,0
39356,note_off,,,,,188,0,4,,,,,2,,,64,0
39356,note_off,,,,,188,0,3,,,,,8,,,55,0
39360,note_on,,,,,4,0,1,,,,,0,,,67,92
39360,note_on,,,,,4,0,3,,,,,8,,,52,92
39360,note_on,,,,,4,0,4,,,,,2,,,67,108
39456,note_off,,,,,96,0,1,,,,,0,,,67,0
39456,note_on,,,,,0,0,4,,,,,2,,,66,108
39456,note_off,,,,,96,0,4,,,,,2,,,67,0
39456,note_on,,,,,0,0,1,,,,,0,,,66,92
39548,note_off,,,,,188,0,3,,,,,8,,,52,0
39548,note_off,,,,,92,0,4,,,,,2,,,66,0
39548,note_off,,,,,92,0,1,,,,,0,,,66,0
39552,note_on,,,,,4,0,1,,,,,0,,,69,92
39552,note_on,,,,,4,0,4,,,,,2,,,69,108
39740,note_off,,,,,188,0,1,,,,,0,,,69,0
39740,note_off,,,,,188,0,4,,,,,2,,,69,0
39744,note_on,,,,,4,0,1,,,,,0,,,67,92
39744,note_on,,,,,4,0,4,,,,,2,,,67,108
39744,note_on,,,,,1792,0,5,,,,,3,,,64,108
39744,note_on,,,,,640,0,2,,,,,1,,,64,92
39932,note_off,,,,,188,0,1,,,,,0,,,67,0
39932,note_off,,,,,188,0,4,,,,,2,,,67,0
39932,note_off,,,,,188,0,5,,,,,3,,,64,0
39932,note_off,,,,,188,0,2,,,,,1,,,64,0
39936,note_on,,,,,4,0,1,,,,,0,,,71,92
39936,note_on,,,,,4,0,4,,,,,2,,,71,108
39936,note_on,,,,,4,0,2,,,,,1,,,67,92
39936,note_on,,,,,4,0,5,,,,,3,,,67,108
40032,note_off,,,,,96,0,4,,,,,2,,,71,0
40032,note_off,,,,,96,0,1,,,,,0,,,71,0
40032,note_on,,,,,0,0,4,,,,,2,,,69,108
40032,note_on,,,,,0,0,2,,,,,1,,,66,92
40032,note_off,,,,,96,0,2,,,,,1,,,67,0
40032,note_on,,,,,0,0,1,,,,,0,,,69,92
40032,note_on,,,,,0,0,5,,,,,3,,,66,108
40032,note_off,,,,,96,0,5,,,,,3,,,67,0
40124,note_off,,,,,92,0,4,,,,,2,,,69,0
40124,note_off,,,,,92,0,2,,,,,1,,,66,0
40124,note_off,,,,,92,0,5,,,,,3,,,66,0
40124,note_off,,,,,92,0,1,,,,,0,,,69,0
40128,note_on,,,,,4,0,4,,,,,2,,,72,108
40128,note_on,,,,,4,0,5,,,,,3,,,69,108
40128,note_on,,,,,4,0,2,,,,,1,,,69,92
40128,note_on,,,,,4,0,1,,,,,0,,,72,92
40316,note_off,,,,,188,0,4,,,,,2,,,72,0
40316,note_off,,,,,188,0,2,,,,,1,,,69,0
40316,note_off,,,,,188,0,1,,,,,0,,,72,0
40316,note_off,,,,,188,0,5,,,,,3,,,69,0
40320,note_on,,,,,2368,0,8,,,,,6,,,40,75
40320,note_on,,,,,4,0,4,,,,,2,,,71,108
40320,note_on,,,,,2368,0,7,,,,,5,,,52,92
40320,note_on,,,,,2368,0,6,,,,,4,,,64,92
40320,note_on,,,,,4,0,5,,,,,3,,,67,108
40320,note_on,,,,,4,0,2,,,,,1,,,67,92
40320,note_on,,,,,4,0,1,,,,,0,,,71,92
40320,note_on,,,,,772,0,3,,,,,8,,,52,92
40320,note_on,,,,,2368,0,9,,,,,7,,,52,60
40508,note_off,,,,,188,0,8,,,,,6,,,40,0
40508,note_off,,,,,188,0,7,,,,,5,,,52,0
40508,note_off,,,,,188,0,3,,,,,8,,,52,0
40508,note_off,,,,,188,0,6,,,,,4,,,64,0
40508,note_off,,,,,188,0,9,,,,,7,,,52,0
40508,note_off,,,,,188,0,1,,,,,0,,,71,0
40508,note_off,,,,,188,0,2,,,,,1,,,67,0
40508,note_off,,,,,188,0,4,,,,,2,,,71,0
40508,note_off,,,,,188,0,5,,,,,3,,,67,0
40512,note_on,,,,,4,0,1,,,,,0,,,76,92
40512,note_on,,,,,4,0,2,,,,,1,,,71,92
40512,note_on,,,,,4,0,4,,,,,2,,,76,108
40512,note_on,,,,,4,0,5,,,,,3,,,71,108
40512,note_on,,,,,4,0,6,,,,,4,,,64,92
40512,note_on,,,,,4,0,9,,,,,7,,,55,60
40512,note_on,,,,,4,0,7,,,,,5,,,55,92
40512,note_on,,,,,4,0,3,,,,,8,,,55,92
40512,note_on,,,,,4,0,8,,,,,6,,,43,75
40608,note_on,,,,,0,0,9,,,,,7,,,54,60
40608,note_off,,,,,96,0,3,,,,,8,,,55,0
40608,note_on,,,,,0,0,3,,,,,8,,,54,92
40608,note_on,,,,,0,0,7,,,,,5,,,54,92
40608,note_off,,,,,96,0,8,,,,,6,,,43,0
40608,note_on,,,,,0,0,8,,,,,6,,,42,75
40608,note_off,,,,,96,0,9,,,,,7,,,55,0
40608,note_off,,,,,96,0,7,,,,,5,,,55,0
40700,note_off,,,,,188,0,1,,,,,0,,,76,0
40700,note_off,,,,,188,0,6,,,,,4,,,64,0
40700,note_off,,,,,92,0,9,,,,,7,,,54,0
40700,note_off,,,,,92,0,7,,,,,5,,,54,0
40700,note_off,,,,,188,0,2,,,,,1,,,71,0
40700,note_off,,,,,188,0,5,,,,,3,,,71,0
40700,note_off,,,,,92,0,8,,,,,6,,,42,0
40700,note_off,,,,,92,0,3,,,,,8,,,54,0
40700,note_off,,,,,188,0,4,,,,,2,,,76,0
40704,note_on,,,,,4,0,9,,,,,7,,,57,60
40704,note_on,,,,,4,0,8,,,,,6,,,45,75
40704,note_on,,,,,4,0,6,,,,,4,,,71,92
40704,note_on,,,,,4,0,5,,,,,3,,,66,108
40704,note_on,,,,,4,0,2,,,,,1,,,66,92
40704,note_on,,,,,4,0,1,,,,,0,,,75,92
40704,note_on,,,,,4,0,4,,,,,2,,,75,108
40704,note_on,,,,,4,0,3,,,,,8,,,57,92
40704,note_on,,,,,4,0,7,,,,,5,,,57,92
40892,note_off,,,,,188,0,2,,,,,1,,,66,0
40892,note_off,,,,,188,0,9,,,,,7,,,57,0
40892,note_off,,,,,188,0,4,,,,,2,,,75,0
40892,note_off,,,,,188,0,6,,,,,4,,,71,0
40892,note_off,,,,,188,0,7,,,,,5,,,57,0
40892,note_off,,,,,188,0,5,,,,,3,,,66,0
40892,note_off,,,,,188,0,3,,,,,8,,,57,0
40892,note_off,,,,,188,0,8,,,,,6,,,45,0
40892,note_off,,,,,188,0,1,,,,,0,,,75,0
40896,note_on,,,,,4,0,3,,,,,8,,,55,92
40896,note_on,,,,,4,0,2,,,,,1,,,71,92
40896,note_on,,,,,4,0,1,,,,,0,,,76,92
40896,note_on,,,,,4,0,5,,,,,3,,,71,108
40896,note_on,,,,,4,0,8,,,,,6,,,43,75
40896,note_on,,,,,4,0,4,,,,,2,,,76,108
40896,note_on,,,,,4,0,7,,,,,5,,,55,92
40896,note_on,,,,,4,0,9,,,,,7,,,55,60
40896,note_on,,,,,4,0,6,,,,,4,,,71,92
41084,note_off,,,,,188,0,7,,,,,5,,,55,0
41084,note_off,,,,,188,0,3,,,,,8,,,55,0
41084,note_off,,,,,188,0,9,,,,,7,,,55,0
41084,note_off,,,,,188,0,1,,,,,0,,,76,0
41084,note_off,,,,,188,0,4,,,,,2,,,76,0
41084,note_off,,,,,188,0,5,,,,,3,,,71,0
41084,note_off,,,,,188,0,2,,,,,1,,,71,0
41084,note_off,,,,,188,0,8,,,,,6,,,43,0
41088,note_on,,,,,4,0,9,,,,,7,,,56,60
41088,note_on,,,,,4,0,1,,,,,0,,,83,92
41088,note_on,,,,,4,0,4,,,,,2,,,83,108
41088,note_on,,,,,4,0,3,,,,,8,,,56,92
41088,note_on,,,,,4,0,5,,,,,3,,,76,108
41088,note_on,,,,,4,0,2,,,,,1,,,76,92
41088,note_on,,,,,4,0,8,,,,,6,,,44,75
41088,note_on,,,,,4,0,7,,,,,5,,,56,92
41184,note_off,,,,,96,0,5,,,,,3,,,76,0
41184,note_off,,,,,96,0,2,,,,,1,,,76,0
41184,note_on,,,,,0,0,2,,,,,1,,,72,92
41184,note_on,,,,,0,0,5,,,,,3,,,72,108
41216,note_off,,,,,320,0,6,,,,,4,,,71,0
41276,note_off,,,,,92,0,5,,,,,3,,,72,0
41276,note_off,,,,,92,0,2,,,,,1,,,72,0
41280,note_on,,,,,4,0,5,,,,,3,,,74,108
41280,note_on,,,,,64,0,6,,,,,4,,,64,92
41280,note_on,,,,,4,0,2,,,,,1,,,74,92
41376,note_on,,,,,0,0,5,,,,,3,,,71,108
41376,note_off,,,,,96,0,5,,,,,3,,,74,0
41376,note_off,,,,,96,0,2,,,,,1,,,74,0
41376,note_on,,,,,0,0,2,,,,,1,,,71,92
41408,note_off,,,,,320,0,3,,,,,8,,,56,0
41408,note_off,,,,,320,0,1,,,,,0,,,83,0
41408,note_off,,,,,320,0,8,,,,,6,,,44,0
41408,note_off,,,,,320,0,4,,,,,2,,,83,0
41408,note_off,,,,,320,0,9,,,,,7,,,56,0
41408,note_off,,,,,320,0,7,,,,,5,,,56,0
41468,note_off,,,,,92,0,5,,,,,3,,,71,0
41468,note_off,,,,,188,0,6,,,,,4,,,64,0
41468,note_off,,,,,92,0,2,,,,,1,,,71,0
41472,note_on,,,,,4,0,5,,,,,3,,,72,108
41472,note_on,,,,,64,0,4,,,,,2,,,76,108
41472,note_on,,,,,64,0,9,,,,,7,,,57,60
41472,note_on,,,,,4,0,6,,,,,4,,,64,92
41472,note_on,,,,,64,0,7,,,,,5,,,57,92
41472,note_on,,,,,64,0,8,,,,,6,,,45,75
41472,note_on,,,,,64,0,3,,,,,8,,,57,92
41472,note_on,,,,,64,0,1,,,,,0,,,76,92
41472,note_on,,,,,4,0,2,,,,,1,,,72,92
41564,note_off,,,,,92,0,5,,,,,3,,,72,0
41564,note_off,,,,,92,0,2,,,,,1,,,72,0
41568,note_on,,,,,4,0,2,,,,,1,,,74,92
41568,note_on,,,,,4,0,5,,,,,3,,,74,108
41660,note_off,,,,,188,0,4,,,,,2,,,76,0
41660,note_off,,,,,92,0,5,,,,,3,,,74,0
41660,note_off,,,,,188,0,1,,,,,0,,,76,0
41660,note_off,,,,,92,0,2,,,,,1,,,74,0
41664,note_on,,,,,4,0,4,,,,,2,,,81,108
41664,note_on,,,,,4,0,2,,,,,1,,,72,92
41664,note_on,,,,,4,0,5,,,,,3,,,72,108
41664,note_on,,,,,4,0,1,,,,,0,,,81,92
41756,note_off,,,,,284,0,3,,,,,8,,,57,0
41756,note_off,,,,,284,0,7,,,,,5,,,57,0
41756,note_off,,,,,92,0,2,,,,,1,,,72,0
41756,note_off,,,,,284,0,8,,,,,6,,,45,0
41756,note_off,,,,,284,0,9,,,,,7,,,57,0
41756,note_off,,,,,92,0,5,,,,,3,,,72,0
41760,note_on,,,,,4,0,5,,,,,3,,,71,108
41760,note_on,,,,,4,0,2,,,,,1,,,71,92
41760,note_on,,,,,4,0,3,,,,,8,,,55,92
41760,note_on,,,,,4,0,8,,,,,6,,,43,75
41760,note_on,,,,,4,0,7,,,,,5,,,55,92
41760,note_on,,,,,4,0,9,,,,,7,,,55,60
41792,note_off,,,,,320,0,6,,,,,4,,,64,0
41852,note_off,,,,,92,0,3,,,,,8,,,55,0
41852,note_off,,,,,92,0,5,,,,,3,,,71,0
41852,note_off,,,,,92,0,8,,,,,6,,,43,0
41852,note_off,,,,,92,0,9,,,,,7,,,55,0
41852,note_off,,,,,92,0,2,,,,,1,,,71,0
41852,note_off,,,,,92,0,7,,,,,5,,,55,0
41856,note_on,,,,,4,0,8,,,,,6,,,42,75
41856,note_on,,,,,4,0,5,,,,,3,,,69,108
41856,note_on,,,,,4,0,9,,,,,7,,,54,60
41856,note_on,,,,,4,0,2,,,,,1,,,69,92
41856,note_on,,,,,4,0,3,,,,,8,,,54,92
41856,note_on,,,,,4,0,7,,,,,5,,,54,92
41856,note_on,,,,,64,0,6,,,,,4,,,66,92
41948,note_off,,,,,92,0,3,,,,,8,,,54,0
41948,note_off,,,,,92,0,7,,,,,5,,,54,0
41948,note_off,,,,,92,0,5,,,,,3,,,69,0
41948,note_off,,,,,92,0,8,,,,,6,,,42,0
41948,note_off,,,,,92,0,2,,,,,1,,,69,0
41948,note_off,,,,,92,0,9,,,,,7,,,54,0
41952,note_on,,,,,4,0,2,,,,,1,,,72,92
41952,note_on,,,,,4,0,8,,,,,6,,,40,75
41952,note_on,,,,,4,0,9,,,,,7,,,52,60
41952,note_on,,,,,4,0,3,,,,,8,,,52,92
41952,note_on,,,,,4,0,7,,,,,5,,,52,92
41952,note_on,,,,,4,0,5,,,,,3,,,72,108
42044,note_off,,,,,92,0,3,,,,,8,,,52,0
42044,note_off,,,,,188,0,6,,,,,4,,,66,0
42044,note_off,,,,,92,0,7,,,,,5,,,52,0
42044,note_off,,,,,92,0,9,,,,,7,,,52,0
42044,note_off,,,,,92,0,8,,,,,6,,,40,0
42044,note_off,,,,,92,0,5,,,,,3,,,72,0
42044,note_off,,,,,92,0,2,,,,,1,,,72,0
42048,note_on,,,,,4,0,7,,,,,5,,,63,92
42048,note_on,,,,,4,0,5,,,,,3,,,71,108
42048,note_on,,,,,4,0,9,,,,,7,,,63,60
42048,note_on,,,,,4,0,8,,,,,6,,,51,75
42048,note_on,,,,,4,0,2,,,,,1,,,71,92
42048,note_on,,,,,4,0,6,,,,,4,,,66,92
42048,note_on,,,,,4,0,3,,,,,8,,,63,92
42236,note_off,,,,,188,0,7,,,,,5,,,63,0
42236,note_off,,,,,188,0,5,,,,,3,,,71,0
42236,note_off,,,,,188,0,2,,,,,1,,,71,0
42236,note_off,,,,,188,0,3,,,,,8,,,63,0
42236,note_off,,,,,188,0,6,,,,,4,,,66,0
42236,note_off,,,,,188,0,8,,,,,6,,,51,0
42236,note_off,,,,,188,0,9,,,,,7,,,63,0
42240,note_on,,,,,4,0,7,,,,,5,,,59,92
42240,note_on,,,,,4,0,3,,,,,8,,,59,92
42240,note_on,,,,,4,0,2,,,,,1,,,75,92
42240,note_on,,,,,4,0,5,,,,,3,,,75,108
42240,note_on,,,,,4,0,9,,,,,7,,,59,60
42240,note_on,,,,,4,0,8,,,,,6,,,47,75
42240,note_on,,,,,4,0,6,,,,,4,,,71,92
42332,note_off,,,,,668,0,4,,,,,2,,,81,0
42332,note_off,,,,,668,0,1,,,,,0,,,81,0
42336,note_on,,,,,4,0,4,,,,,2,,,83,108
42336,note_on,,,,,4,0,1,,,,,0,,,83,92
42428,note_off,,,,,188,0,5,,,,,3,,,75,0
42428,note_off,,,,,188,0,7,,,,,5,,,59,0
42428,note_off,,,,,92,0,4,,,,,2,,,83,0
42428,note_off,,,,,188,0,9,,,,,7,,,59,0
42428,note_off,,,,,188,0,8,,,,,6,,,47,0
42428,note_off,,,,,188,0,6,,,,,4,,,71,0
42428,note_off,,,,,92,0,1,,,,,0,,,83,0
42428,note_off,,,,,188,0,2,,,,,1,,,75,0
42428,note_off,,,,,188,0,3,,,,,8,,,59,0
42432,note_on,,,,,4,0,7,,,,,5,,,64,92
42432,note_on,,,,,4,0,9,,,,,7,,,64,60
42432,note_on,,,,,4,0,6,,,,,4,,,71,92
42432,note_on,,,,,4,0,1,,,,,0,,,79,92
42432,note_on,,,,,4,0,8,,,,,6,,,52,75
42432,note_on,,,,,4,0,5,,,,,3,,,76,108
42432,note_on,,,,,4,0,2,,,,,1,,,76,92
42432,note_on,,,,,4,0,4,,,,,2,,,79,108
42432,note_on,,,,,4,0,3,,,,,8,,,64,92
42524,note_off,,,,,92,0,1,,,,,0,,,79,0
42524,note_off,,,,,92,0,4,,,,,2,,,79,0
42528,note_on,,,,,4,0,1,,,,,0,,,78,92
42528,note_on,,,,,4,0,4,,,,,2,,,78,108
42620,note_off,,,,,188,0,6,,,,,4,,,71,0
42620,note_off,,,,,92,0,1,,,,,0,,,78,0
42620,note_off,,,,,188,0,3,,,,,8,,,64,0
42620,note_off,,,,,188,0,9,,,,,7,,,64,0
42620,note_off,,,,,188,0,2,,,,,1,,,76,0
42620,note_off,,,,,188,0,8,,,,,6,,,52,0
42620,note_off,,,,,188,0,5,,,,,3,,,76,0
42620,note_off,,,,,188,0,7,,,,,5,,,64,0
42620,note_off,,,,,92,0,4,,,,,2,,,78,0
42624,note_on,,,,,4,0,5,,,,,3,,,76,108
42624,note_on,,,,,4,0,7,,,,,5,,,57,92
42624,note_on,,,,,4,0,9,,,,,7,,,57,60
42624,note_on,,,,,4,0,3,,,,,8,,,57,92
42624,note_on,,,,,4,0,2,,,,,1,,,76,92
42624,note_on,,,,,4,0,8,,,,,6,,,45,75
42624,note_on,,,,,4,0,4,,,,,2,,,79,108
42624,note_on,,,,,4,0,6,,,,,4,,,76,92
42624,note_on,,,,,4,0,1,,,,,0,,,79,92
42716,note_off,,,,,92,0,1,,,,,0,,,79,0
42716,note_off,,,,,92,0,4,,,,,2,,,79,0
42716,note_off,,,,,92,0,6,,,,,4,,,76,0
42720,note_on,,,,,4,0,6,,,,,4,,,72,92
42720,note_on,,,,,4,0,4,,,,,2,,,81,108
42720,note_on,,,,,4,0,1,,,,,0,,,81,92
42812,note_off,,,,,92,0,4,,,,,2,,,81,0
42812,note_off,,,,,188,0,7,,,,,5,,,57,0
42812,note_off,,,,,188,0,3,,,,,8,,,57,0
42812,note_off,,,,,188,0,8,,,,,6,,,45,0
42812,note_off,,,,,92,0,1,,,,,0,,,81,0
42812,note_off,,,,,188,0,9,,,,,7,,,57,0
42812,note_off,,,,,92,0,6,,,,,4,,,72,0
42816,note_on,,,,,4,0,8,,,,,6,,,47,75
42816,note_on,,,,,4,0,3,,,,,8,,,59,92
42816,note_on,,,,,4,0,7,,,,,5,,,59,92
42816,note_on,,,,,4,0,9,,,,,7,,,59,60
42816,note_on,,,,,4,0,6,,,,,4,,,66,92
42816,note_on,,,,,4,0,4,,,,,2,,,79,108
42816,note_on,,,,,4,0,1,,,,,0,,,79,92
42864,note_off,,,,,48,0,4,,,,,2,,,79,0
42864,note_on,,,,,0,0,4,,,,,2,,,78,108
42864,note_on,,,,,0,0,1,,,,,0,,,78,92
42864,note_off,,,,,48,0,1,,,,,0,,,79,0
42912,note_on,,,,,0,0,4,,,,,2,,,79,108
42912,note_off,,,,,48,0,4,,,,,2,,,78,0
42912,note_on,,,,,0,0,1,,,,,0,,,79,92
42912,note_off,,,,,48,0,1,,,,,0,,,78,0
42944,note_off,,,,,320,0,5,,,,,3,,,76,0
42944,note_off,,,,,320,0,2,,,,,1,,,76,0
42960,note_on,,,,,0,0,4,,,,,2,,,78,108
42960,note_on,,,,,0,0,1,,,,,0,,,78,92
42960,note_off,,,,,48,0,1,,,,,0,,,79,0
42960,note_off,,,,,48,0,4,,,,,2,,,79,0
43004,note_off,,,,,188,0,7,,,,,5,,,59,0
43004,note_off,,,,,188,0,3,,,,,8,,,59,0
43004,note_off,,,,,188,0,8,,,,,6,,,47,0
43004,note_off,,,,,188,0,6,,,,,4,,,66,0
43004,note_off,,,,,188,0,9,,,,,7,,,59,0
43008,note_on,,,,,64,0,5,,,,,3,,,75,108
43008,note_on,,,,,64,0,2,,,,,1,,,75,92
43008,note_on,,,,,0,0,4,,,,,2,,,79,108
43008,note_off,,,,,48,0,1,,,,,0,,,78,0
43008,note_on,,,,,4,0,3,,,,,8,,,47,92
43008,note_on,,,,,4,0,7,,,,,5,,,47,92
43008,note_on,,,,,4,0,8,,,,,6,,,35,75
43008,note_off,,,,,48,0,4,,,,,2,,,78,0
43008,note_on,,,,,0,0,1,,,,,0,,,79,92
43008,note_on,,,,,4,0,6,,,,,4,,,71,92
43008,note_on,,,,,4,0,9,,,,,7,,,47,60
43056,note_off,,,,,48,0,4,,,,,2,,,79,0
43056,note_on,,,,,0,0,4,,,,,2,,,78,108
43056,note_on,,,,,0,0,1,,,,,0,,,78,92
43056,note_off,,,,,48,0,1,,,,,0,,,79,0
43100,note_off,,,,,44,0,4,,,,,2,,,78,0
43100,note_off,,,,,44,0,1,,,,,0,,,78,0
43104,note_on,,,,,4,0,1,,,,,0,,,76,92
43104,note_on,,,,,4,0,4,,,,,2,,,76,108
43196,note_off,,,,,188,0,5,,,,,3,,,75,0
43196,note_off,,,,,188,0,2,,,,,1,,,75,0
43196,note_off,,,,,188,0,7,,,,,5,,,47,0
43196,note_off,,,,,92,0,1,,,,,0,,,76,0
43196,note_off,,,,,188,0,3,,,,,8,,,47,0
43196,note_off,,,,,188,0,9,,,,,7,,,47,0
43196,note_off,,,,,188,0,8,,,,,6,,,35,0
43196,note_off,,,,,188,0,6,,,,,4,,,71,0
43196,note_off,,,,,92,0,4,,,,,2,,,76,0
43200,note_on,,,,,4,0,7,,,,,5,,,48,92
43200,note_on,,,,,4,0,4,,,,,2,,,76,108
43200,note_on,,,,,4,0,1,,,,,0,,,76,92
43200,note_on,,,,,4,0,3,,,,,8,,,48,92
43200,note_on,,,,,4,0,8,,,,,6,,,36,75
43200,note_on,,,,,4,0,9,,,,,7,,,48,60
43200,note_on,,,,,4,0,5,,,,,3,,,76,108
43200,note_on,,,,,4,0,2,,,,,1,,,76,92
43200,note_on,,,,,4,0,6,,,,,4,,,67,92
43388,note_off,,,,,188,0,2,,,,,1,,,76,0
43388,note_off,,,,,188,0,1,,,,,0,,,76,0
43388,note_off,,,,,188,0,4,,,,,2,,,76,0
43388,note_off,,,,,188,0,5,,,,,3,,,76,0
43388,note_off,,,,,188,0,9,,,,,7,,,48,0
43388,note_off,,,,,188,0,8,,,,,6,,,36,0
43388,note_off,,,,,188,0,6,,,,,4,,,67,0
43388,note_off,,,,,188,0,7,,,,,5,,,48,0
43388,note_off,,,,,188,0,3,,,,,8,,,48,0
43392,note_on,,,,,4,0,4,,,,,2,,,74,108
43392,note_on,,,,,4,0,1,,,,,0,,,74,92
43392,note_on,,,,,4,0,6,,,,,4,,,64,92
43392,note_on,,,,,4,0,2,,,,,1,,,71,92
43392,note_on,,,,,4,0,5,,,,,3,,,71,108
43392,note_on,,,,,4,0,7,,,,,5,,,44,92
43392,note_on,,,,,4,0,3,,,,,8,,,44,92
43392,note_on,,,,,4,0,9,,,,,7,,,44,60
43392,note_on,,,,,4,0,8,,,,,6,,,32,75
43712,note_off,,,,,320,0,9,,,,,7,,,44,0
43712,note_off,,,,,320,0,1,,,,,0,,,74,0
43712,note_off,,,,,320,0,3,,,,,8,,,44,0
43712,note_off,,,,,320,0,2,,,,,1,,,71,0
43712,note_off,,,,,320,0,4,,,,,2,,,74,0
43712,note_off,,,,,320,0,5,,,,,3,,,71,0
43712,note_off,,,,,320,0,6,,,,,4,,,64,0
43712,note_off,,,,,320,0,7,,,,,5,,,44,0
43712,note_off,,,,,320,0,8,,,,,6,,,32,0
43776,note_on,,,,,64,0,4,,,,,2,,,72,108
43776,note_on,,,,,64,0,3,,,,,8,,,45,92
43776,note_on,,,,,64,0,5,,,,,3,,,64,108
43776,note_on,,,,,64,0,1,,,,,0,,,72,92
43776,note_on,,,,,64,0,9,,,,,7,,,45,60
43776,note_on,,,,,64,0,7,,,,,5,,,45,92
43776,note_on,,,,,64,0,8,,,,,6,,,33,75
43776,note_on,,,,,64,0,6,,,,,4,,,64,92
43776,note_on,,,,,64,0,2,,,,,1,,,64,92
43868,note_off,,,,,92,0,1,,,,,0,,,72,0
43868,note_off,,,,,92,0,4,,,,,2,,,72,0
43872,note_on,,,,,4,0,1,,,,,0,,,71,92
43872,note_on,,,,,4,0,4,,,,,2,,,71,108
43964,note_off,,,,,92,0,1,,,,,0,,,71,0
43964,note_off,,,,,188,0,9,,,,,7,,,45,0
43964,note_off,,,,,188,0,7,,,,,5,,,45,0
43964,note_off,,,,,188,0,8,,,,,6,,,33,0
43964,note_off,,,,,188,0,3,,,,,8,,,45,0
43964,note_off,,,,,92,0,4,,,,,2,,,71,0
43968,note_on,,,,,4,0,9,,,,,7,,,47,60
43968,note_on,,,,,4,0,8,,,,,6,,,35,75
43968,note_on,,,,,4,0,7,,,,,5,,,47,92
43968,note_on,,,,,4,0,3,,,,,8,,,47,92
43968,note_on,,,,,4,0,1,,,,,0,,,69,92
43968,note_on,,,,,4,0,4,,,,,2,,,69,108
44060,note_off,,,,,92,0,4,,,,,2,,,69,0
44060,note_off,,,,,92,0,1,,,,,0,,,69,0
44064,note_on,,,,,4,0,4,,,,,2,,,68,108
44064,note_on,,,,,4,0,1,,,,,0,,,68,92
44096,note_off,,,,,320,0,6,,,,,4,,,64,0
44156,note_off,,,,,188,0,7,,,,,5,,,47,0
44156,note_off,,,,,92,0,1,,,,,0,,,68,0
44156,note_off,,,,,188,0,9,,,,,7,,,47,0
44156,note_off,,,,,92,0,4,,,,,2,,,68,0
44156,note_off,,,,,188,0,8,,,,,6,,,35,0
44156,note_off,,,,,188,0,3,,,,,8,,,47,0
44160,note_on,,,,,4,0,1,,,,,0,,,69,92
44160,note_on,,,,,64,0,6,,,,,4,,,64,92
44160,note_on,,,,,4,0,3,,,,,8,,,48,92
44160,note_on,,,,,4,0,4,,,,,2,,,69,108
44160,note_on,,,,,4,0,8,,,,,6,,,36,75
44160,note_on,,,,,4,0,9,,,,,7,,,48,60
44160,note_on,,,,,4,0,7,,,,,5,,,48,92
44252,note_off,,,,,476,0,5,,,,,3,,,64,0
44252,note_off,,,,,476,0,2,,,,,1,,,64,0
44256,note_on,,,,,4,0,5,,,,,3,,,66,108
44256,note_on,,,,,4,0,2,,,,,1,,,66,92
44348,note_off,,,,,188,0,3,,,,,8,,,48,0
44348,note_off,,,,,92,0,5,,,,,3,,,66,0
44348,note_off,,,,,188,0,9,,,,,7,,,48,0
44348,note_off,,,,,188,0,4,,,,,2,,,69,0
44348,note_off,,,,,188,0,8,,,,,6,,,36,0
44348,note_off,,,,,188,0,7,,,,,5,,,48,0
44348,note_off,,,,,188,0,1,,,,,0,,,69,0
44348,note_off,,,,,92,0,2,,,,,1,,,66,0
44348,note_off,,,,,188,0,6,,,,,4,,,64,0
44352,note_on,,,,,4,0,9,,,,,7,,,47,60
44352,note_on,,,,,4,0,1,,,,,0,,,69,92
44352,note_on,,,,,4,0,3,,,,,8,,,47,92
44352,note_on,,,,,4,0,7,,,,,5,,,47,92
44352,note_on,,,,,4,0,6,,,,,4,,,66,92
44352,note_on,,,,,4,0,5,,,,,3,,,63,108
44352,note_on,,,,,4,0,2,,,,,1,,,63,92
44352,note_on,,,,,4,0,8,,,,,6,,,35,75
44352,note_on,,,,,4,0,4,,,,,2,,,69,108
44540,note_off,,,,,188,0,3,,,,,8,,,47,0
44540,note_off,,,,,188,0,5,,,,,3,,,63,0
44540,note_off,,,,,188,0,9,,,,,7,,,47,0
44540,note_off,,,,,188,0,6,,,,,4,,,66,0
44540,note_off,,,,,188,0,2,,,,,1,,,63,0
44540,note_off,,,,,188,0,8,,,,,6,,,35,0
44540,note_off,,,,,188,0,7,,,,,5,,,47,0
44544,note_on,,,,,4,0,8,,,,,6,,,39,75
44544,note_on,,,,,4,0,6,,,,,4,,,59,92
44544,note_on,,,,,4,0,5,,,,,3,,,66,108
44544,note_on,,,,,4,0,3,,,,,8,,,51,92
44544,note_on,,,,,4,0,9,,,,,7,,,51,60
44544,note_on,,,,,4,0,2,,,,,1,,,66,92
44544,note_on,,,,,4,0,7,,,,,5,,,51,92
44636,note_off,,,,,284,0,4,,,,,2,,,69,0
44636,note_off,,,,,284,0,1,,,,,0,,,69,0
44640,note_on,,,,,4,0,4,,,,,2,,,71,108
44640,note_on,,,,,4,0,1,,,,,0,,,71,92
44732,note_off,,,,,92,0,1,,,,,0,,,71,0
44732,note_off,,,,,188,0,5,,,,,3,,,66,0
44732,note_off,,,,,188,0,7,,,,,5,,,51,0
44732,note_off,,,,,188,0,9,,,,,7,,,51,0
44732,note_off,,,,,188,0,3,,,,,8,,,51,0
44732,note_off,,,,,188,0,2,,,,,1,,,66,0
44732,note_off,,,,,188,0,8,,,,,6,,,39,0
44732,note_off,,,,,188,0,6,,,,,4,,,59,0
44732,note_off,,,,,92,0,4,,,,,2,,,71,0
44736,note_on,,,,,4,0,7,,,,,5,,,52,92
44736,note_on,,,,,4,0,9,,,,,7,,,52,60
44736,note_on,,,,,4,0,1,,,,,0,,,67,92
44736,note_on,,,,,4,0,8,,,,,6,,,40,75
44736,note_on,,,,,4,0,5,,,,,3,,,64,108
44736,note_on,,,,,4,0,3,,,,,8,,,52,92
44736,note_on,,,,,4,0,2,,,,,1,,,64,92
44736,note_on,,,,,4,0,6,,,,,4,,,59,92
44736,note_on,,,,,4,0,4,,,,,2,,,67,108
44924,note_off,,,,,188,0,2,,,,,1,,,64,0
44924,note_off,,,,,188,0,9,,,,,7,,,52,0
44924,note_off,,,,,188,0,5,,,,,3,,,64,0
44924,note_off,,,,,188,0,3,,,,,8,,,52,0
44924,note_off,,,,,188,0,8,,,,,6,,,40,0
44924,note_off,,,,,188,0,6,,,,,4,,,59,0
44924,note_off,,,,,188,0,7,,,,,5,,,52,0
44928,note_on,,,,,4,0,3,,,,,8,,,45,92
44928,note_on,,,,,4,0,5,,,,,3,,,64,108
44928,note_on,,,,,4,0,8,,,,,6,,,33,75
44928,note_on,,,,,4,0,2,,,,,1,,,64,92
44928,note_on,,,,,4,0,6,,,,,4,,,60,92
44928,note_on,,,,,4,0,7,,,,,5,,,45,92
44928,note_on,,,,,4,0,9,,,,,7,,,45,60
45020,note_off,,,,,284,0,4,,,,,2,,,67,0
45020,note_off,,,,,284,0,1,,,,,0,,,67,0
45024,note_on,,,,,4,0,1,,,,,0,,,66,92
45024,note_on,,,,,4,0,4,,,,,2,,,66,108
45116,note_off,,,,,188,0,9,,,,,7,,,45,0
45116,note_off,,,,,92,0,1,,,,,0,,,66,0
45116,note_off,,,,,188,0,8,,,,,6,,,33,0
45116,note_off,,,,,188,0,3,,,,,8,,,45,0
45116,note_off,,,,,188,0,6,,,,,4,,,60,0
45116,note_off,,,,,188,0,7,,,,,5,,,45,0
45116,note_off,,,,,92,0,4,,,,,2,,,66,0
45120,note_on,,,,,4,0,3,,,,,8,,,47,92
45120,note_on,,,,,4,0,1,,,,,0,,,67,92
45120,note_on,,,,,4,0,6,,,,,4,,,59,92
45120,note_on,,,,,4,0,7,,,,,5,,,47,92
45120,note_on,,,,,4,0,4,,,,,2,,,67,108
45120,note_on,,,,,4,0,8,,,,,6,,,35,75
45120,note_on,,,,,4,0,9,,,,,7,,,47,60
45168,note_off,,,,,48,0,4,,,,,2,,,67,0
45168,note_on,,,,,0,0,4,,,,,2,,,66,108
45168,note_off,,,,,48,0,1,,,,,0,,,67,0
45168,note_on,,,,,0,0,1,,,,,0,,,66,92
45216,note_off,,,,,48,0,4,,,,,2,,,66,0
45216,note_on,,,,,0,0,4,,,,,2,,,67,108
45216,note_off,,,,,48,0,1,,,,,0,,,66,0
45216,note_on,,,,,0,0,1,,,,,0,,,67,92
45248,note_off,,,,,320,0,2,,,,,1,,,64,0
45248,note_off,,,,,320,0,5,,,,,3,,,64,0
45264,note_on,,,,,0,0,1,,,,,0,,,66,92
45264,note_on,,,,,0,0,4,,,,,2,,,66,108
45264,note_off,,,,,48,0,4,,,,,2,,,67,0
45264,note_off,,,,,48,0,1,,,,,0,,,67,0
45308,note_off,,,,,188,0,9,,,,,7,,,47,0
45308,note_off,,,,,188,0,8,,,,,6,,,35,0
45308,note_off,,,,,188,0,3,,,,,8,,,47,0
45308,note_off,,,,,188,0,7,,,,,5,,,47,0
45308,note_off,,,,,188,0,6,,,,,4,,,59,0
45312,note_off,,,,,48,0,1,,,,,0,,,66,0
45312,note_on,,,,,4,0,9,,,,,7,,,47,60
45312,note_on,,,,,0,0,4,,,,,2,,,67,108
45312,note_off,,,,,48,0,4,,,,,2,,,66,0
45312,note_on,,,,,4,0,8,,,,,6,,,35,75
45312,note_on,,,,,4,0,7,,,,,5,,,47,92
45312,note_on,,,,,4,0,6,,,,,4,,,59,92
45312,note_on,,,,,64,0,2,,,,,1,,,63,92
45312,note_on,,,,,0,0,1,,,,,0,,,67,92
45312,note_on,,,,,4,0,3,,,,,8,,,47,92
45312,note_on,,,,,64,0,5,,,,,3,,,63,108
45360,note_off,,,,,48,0,4,,,,,2,,,67,0
45360,note_on,,,,,0,0,4,,,,,2,,,66,108
45360,note_on,,,,,0,0,1,,,,,0,,,66,92
45360,note_off,,,,,48,0,1,,,,,0,,,67,0
45404,note_off,,,,,44,0,4,,,,,2,,,66,0
45404,note_off,,,,,44,0,1,,,,,0,,,66,0
45408,note_on,,,,,4,0,4,,,,,2,,,64,108
45408,note_on,,,,,4,0,1,,,,,0,,,64,92
45500,note_off,,,,,92,0,1,,,,,0,,,64,0
45500,note_off,,,,,188,0,8,,,,,6,,,35,0
45500,note_off,,,,,188,0,7,,,,,5,,,47,0
45500,note_off,,,,,188,0,2,,,,,1,,,63,0
45500,note_off,,,,,188,0,9,,,,,7,,,47,0
45500,note_off,,,,,188,0,6,,,,,4,,,59,0
45500,note_off,,,,,188,0,5,,,,,3,,,63,0
45500,note_off,,,,,188,0,3,,,,,8,,,47,0
45500,note_off,,,,,92,0,4,,,,,2,,,64,0
45504,note_on,,,,,4,0,9,,,,,7,,,40,60
45504,note_on,,,,,4,0,8,,,,,6,,,28,75
45504,note_on,,,,,4,0,4,,,,,2,,,64,108
45504,note_on,,,,,4,0,1,,,,,0,,,64,92
45504,note_on,,,,,4,0,7,,,,,5,,,40,92
45504,note_on,,,,,4,0,6,,,,,4,,,59,92
45504,note_on,,,,,4,0,5,,,,,3,,,64,108
45504,note_on,,,,,4,0,3,,,,,8,,,40,92
45504,note_on,,,,,4,0,2,,,,,1,,,64,92
46016,note_off,,,,,512,0,8,,,,,6,,,28,0
46016,note_off,,,,,512,0,9,,,,,7,,,40,0
46016,end_of_track,,,,,0,1,7,,,,,,,,,
46016,note_off,,,,,512,0,7,,,,,5,,,40,0
46016,end_of_track,,,,,0,1,6,,,,,,,,,
46016,note_off,,,,,512,0,6,,,,,4,,,59,0
46016,end_of_track,,,,,0,1,2,,,,,,,,,
46016,end_of_track,,,,,0,1,5,,,,,,,,,
46016,end_of_track,,,,,0,1,9,,,,,,,,,
46016,note_off,,,,,512,0,5,,,,,3,,,64,0
46016,note_off,,,,,512,0,1,,,,,0,,,64,0
46016,end_of_track,,,,,0,1,1,,,,,,,,,
46016,end_of_track,,,,,0,1,4,,,,,,,,,
46016,note_off,,,,,512,0,4,,,,,2,,,64,0
46016,end_of_track,,,,,0,1,3,,,,,,,,,
46016,note_off,,,,,512,0,3,,,,,8,,,40,0
46016,end_of_track,,,,,0,1,8,,,,,,,,,
46016,note_off,,,,,512,0,2,,,,,1,,,64,0
