tick,type,numerator,denominator,clocks_per_click,notated_32nd_notes_per_beat,time,meta,track,data,tempo,control,value,channel,program,key,note,velocity
0,time_signature,6,8,96,8,0,1,0,,,,,,,,,
0,control_change,,,,,0,0,6,,,0,0,5,,,,
0,track_name,,,,,0,1,6,,,,,,,,,
0,note_on,,,,,0,0,5,,,,,4,,,62,92
0,key_signature,,,,,0,1,5,,,,,,,C,,
0,program_change,,,,,0,0,5,,,,,4,41,,,
0,control_change,,,,,0,0,5,,,7,127,4,,,,
0,control_change,,,,,0,0,5,,,10,104,4,,,,
0,control_change,,,,,0,0,5,,,0,0,4,,,,
0,track_name,,,,,0,1,5,,,,,,,,,
0,key_signature,,,,,0,1,14,,,,,,,C,,
0,note_on,,,,,0,0,4,,,,,3,,,71,127
0,key_signature,,,,,0,1,4,,,,,,,C,,
0,program_change,,,,,0,0,4,,,,,3,48,,,
0,control_change,,,,,0,0,4,,,7,127,3,,,,
0,control_change,,,,,0,0,4,,,10,104,3,,,,
0,control_change,,,,,0,0,4,,,0,0,3,,,,
0,track_name,,,,,0,1,4,,,,,,,,,
0,note_on,,,,,0,0,3,,,,,2,,,79,127
0,key_signature,,,,,0,1,3,,,,,,,C,,
0,program_change,,,,,0,0,3,,,,,2,48,,,
0,control_change,,,,,0,0,3,,,7,127,2,,,,
0,control_change,,,,,0,0,3,,,10,24,2,,,,
0,control_change,,,,,0,0,3,,,0,0,2,,,,
0,track_name,,,,,0,1,3,,,,,,,,,
0,note_on,,,,,0,0,2,,,,,1,,,71,92
0,key_signature,,,,,0,1,2,,,,,,,C,,
0,program_change,,,,,0,0,2,,,,,1,40,,,
0,control_change,,,,,0,0,2,,,7,127,1,,,,
0,control_change,,,,,0,0,2,,,10,104,1,,,,
0,control_change,,,,,0,0,6,,,10,24,5,,,,
0,control_change,,,,,0,0,6,,,7,127,5,,,,
0,program_change,,,,,0,0,6,,,,,5,42,,,
0,key_signature,,,,,0,1,6,,,,,,,C,,
0,track_name,,,,,0,1,14,,,,,,,,,
0,end_of_track,,,,,0,1,13,,,,,,,,,
0,key_signature,,,,,0,1,13,,,,,,,C,,
0,track_name,,,,,0,1,13,,,,,,,,,
0,end_of_track,,,,,0,1,12,,,,,,,,,
0,key_signature,,,,,0,1,12,,,,,,,C,,
0,track_name,,,,,0,1,12,,,,,,,,,
0,end_of_track,,,,,0,1,11,,,,,,,,,
0,key_signature,,,,,0,1,11,,,,,,,C,,
0,track_name,,,,,0,1,11,,,,,,,,,
0,end_of_track,,,,,0,1,10,,,,,,,,,
0,key_signature,,,,,0,1,10,,,,,,,C,,
0,track_name,,,,,0,1,10,,,,,,,,,
0,end_of_track,,,,,0,1,9,,,,,,,,,
0,control_change,,,,,0,0,2,,,0,0,1,,,,
0,key_signature,,,,,0,1,9,,,,,,,C,,
0,key_signature,,,,,0,1,8,,,,,,,C,,
0,program_change,,,,,0,0,8,,,,,7,6,,,
0,control_change,,,,,0,0,8,,,7,127,7,,,,
0,control_change,,,,,0,0,8,,,10,64,7,,,,
0,control_change,,,,,0,0,8,,,0,0,7,,,,
0,track_name,,,,,0,1,8,,,,,,,,,
0,note_on,,,,,0,0,7,,,,,6,,,31,75
0,key_signature,,,,,0,1,7,,,,,,,C,,
0,program_change,,,,,0,0,7,,,,,6,43,,,
0,control_change,,,,,0,0,7,,,7,127,6,,,,
0,control_change,,,,,0,0,7,,,10,64,6,,,,
0,control_change,,,,,0,0,7,,,0,0,6,,,,
0,track_name,,,,,0,1,7,,,,,,,,,
0,note_on,,,,,0,0,6,,,,,5,,,43,92
0,track_name,,,,,0,1,9,,,,,,,,,
0,track_name,,,,,0,1,2,,,,,,,,,
0,end_of_track,,,,,0,1,14,,,,,,,,,
0,control_change,,,,,0,0,1,,,0,0,0,,,,
0,set_tempo,,,,,0,1,0,,571428,,,,,,,
0,sequencer_specific,,,,,0,1,0,"(0, 0, 65)",,,,,,,,
0,key_signature,,,,,0,1,1,,,,,,,G,,
0,note_on,,,,,0,0,1,,,,,0,,,79,92
0,track_name,,,,,0,1,1,,,,,,,,,
0,program_change,,,,,0,0,1,,,,,0,40,,,
0,control_change,,,,,0,0,1,,,7,127,0,,,,
0,control_change,,,,,0,0,1,,,10,24,0,,,,
188,note_off,,,,,188,0,1,,,,,0,,,79,0
188,note_off,,,,,188,0,3,,,,,2,,,79,0
188,note_off,,,,,188,0,5,,,,,4,,,62,0
188,note_off,,,,,188,0,6,,,,,5,,,43,0
188,note_off,,,,,188,0,7,,,,,6,,,31,0
192,note_on,,,,,4,0,1,,,,,0,,,67,92
192,note_on,,,,,4,0,5,,,,,4,,,59,92
192,note_on,,,,,4,0,6,,,,,5,,,55,92
192,note_on,,,,,4,0,3,,,,,2,,,67,127
192,note_on,,,,,4,0,7,,,,,6,,,43,75
320,note_off,,,,,320,0,2,,,,,1,,,71,0
320,note_off,,,,,320,0,4,,,,,3,,,71,0
380,note_off,,,,,188,0,7,,,,,6,,,43,0
380,note_off,,,,,188,0,1,,,,,0,,,67,0
380,note_off,,,,,188,0,3,,,,,2,,,67,0
380,note_off,,,,,188,0,6,,,,,5,,,55,0
380,note_off,,,,,188,0,5,,,,,4,,,59,0
384,note_on,,,,,4,0,3,,,,,2,,,67,127
384,note_on,,,,,4,0,5,,,,,4,,,62,92
384,note_on,,,,,4,0,1,,,,,0,,,67,92
384,note_on,,,,,4,0,6,,,,,5,,,54,92
384,note_on,,,,,4,0,7,,,,,6,,,42,75
572,note_off,,,,,188,0,3,,,,,2,,,67,0
572,note_off,,,,,188,0,7,,,,,6,,,42,0
572,note_off,,,,,188,0,6,,,,,5,,,54,0
572,note_off,,,,,188,0,1,,,,,0,,,67,0
572,note_off,,,,,188,0,5,,,,,4,,,62,0
576,note_on,,,,,4,0,7,,,,,6,,,40,75
576,note_on,,,,,256,0,2,,,,,1,,,79,92
576,note_on,,,,,4,0,6,,,,,5,,,52,92
576,note_on,,,,,576,0,8,,,,,7,,,52,60
576,note_on,,,,,0,0,8,,,,,7,,,55,60
576,note_on,,,,,4,0,1,,,,,0,,,67,92
576,note_on,,,,,4,0,3,,,,,2,,,67,127
576,note_on,,,,,256,0,4,,,,,3,,,79,127
576,note_on,,,,,4,0,5,,,,,4,,,64,92
668,note_off,,,,,92,0,8,,,,,7,,,52,0
668,note_off,,,,,0,0,8,,,,,7,,,55,0
672,note_on,,,,,4,0,8,,,,,7,,,60,60
764,note_off,,,,,188,0,7,,,,,6,,,40,0
764,note_off,,,,,92,0,8,,,,,7,,,60,0
764,note_off,,,,,188,0,4,,,,,3,,,79,0
764,note_off,,,,,188,0,1,,,,,0,,,67,0
764,note_off,,,,,188,0,2,,,,,1,,,79,0
764,note_off,,,,,188,0,6,,,,,5,,,52,0
764,note_off,,,,,188,0,3,,,,,2,,,67,0
768,note_on,,,,,4,0,4,,,,,3,,,67,127
768,note_on,,,,,4,0,2,,,,,1,,,67,92
768,note_on,,,,,4,0,7,,,,,6,,,43,75
768,note_on,,,,,4,0,6,,,,,5,,,55,92
896,note_off,,,,,320,0,5,,,,,4,,,64,0
956,note_off,,,,,188,0,4,,,,,3,,,67,0
956,note_off,,,,,188,0,2,,,,,1,,,67,0
956,note_off,,,,,188,0,7,,,,,6,,,43,0
956,note_off,,,,,188,0,6,,,,,5,,,55,0
960,note_on,,,,,4,0,2,,,,,1,,,67,92
960,note_on,,,,,4,0,6,,,,,5,,,60,92
960,note_on,,,,,4,0,7,,,,,6,,,48,75
960,note_on,,,,,64,0,5,,,,,4,,,64,92
960,note_on,,,,,4,0,4,,,,,3,,,67,127
1148,note_off,,,,,188,0,6,,,,,5,,,60,0
1148,note_off,,,,,188,0,5,,,,,4,,,64,0
1148,note_off,,,,,188,0,7,,,,,6,,,48,0
1148,note_off,,,,,188,0,2,,,,,1,,,67,0
1148,note_off,,,,,188,0,4,,,,,3,,,67,0
1152,note_on,,,,,4,0,4,,,,,3,,,67,127
1152,note_on,,,,,4,0,6,,,,,5,,,59,92
1152,note_on,,,,,4,0,7,,,,,6,,,47,75
1152,note_on,,,,,388,0,1,,,,,0,,,79,92
1152,note_on,,,,,4,0,2,,,,,1,,,67,92
1152,note_on,,,,,4,0,5,,,,,4,,,62,92
1152,note_on,,,,,0,0,8,,,,,7,,,59,60
1152,note_on,,,,,388,0,8,,,,,7,,,55,60
1152,note_on,,,,,388,0,3,,,,,2,,,79,127
1244,note_off,,,,,0,0,8,,,,,7,,,59,0
1244,note_off,,,,,92,0,8,,,,,7,,,55,0
1248,note_on,,,,,4,0,8,,,,,7,,,62,60
1340,note_off,,,,,92,0,8,,,,,7,,,62,0
1340,note_off,,,,,188,0,3,,,,,2,,,79,0
1340,note_off,,,,,188,0,6,,,,,5,,,59,0
1340,note_off,,,,,188,0,5,,,,,4,,,62,0
1340,note_off,,,,,188,0,1,,,,,0,,,79,0
1340,note_off,,,,,188,0,7,,,,,6,,,47,0
1344,note_on,,,,,4,0,1,,,,,0,,,67,92
1344,note_on,,,,,4,0,6,,,,,5,,,57,92
1344,note_on,,,,,4,0,3,,,,,2,,,67,127
1344,note_on,,,,,4,0,5,,,,,4,,,60,92
1344,note_on,,,,,4,0,7,,,,,6,,,45,75
1472,note_off,,,,,320,0,2,,,,,1,,,67,0
1472,note_off,,,,,320,0,4,,,,,3,,,67,0
1532,note_off,,,,,188,0,6,,,,,5,,,57,0
1532,note_off,,,,,188,0,1,,,,,0,,,67,0
1532,note_off,,,,,188,0,3,,,,,2,,,67,0
1532,note_off,,,,,188,0,5,,,,,4,,,60,0
1532,note_off,,,,,188,0,7,,,,,6,,,45,0
1536,note_on,,,,,4,0,7,,,,,6,,,43,75
1536,note_on,,,,,4,0,6,,,,,5,,,55,92
1536,note_on,,,,,4,0,5,,,,,4,,,59,92
1536,note_on,,,,,4,0,3,,,,,2,,,67,127
1536,note_on,,,,,4,0,1,,,,,0,,,67,92
1724,note_off,,,,,188,0,1,,,,,0,,,67,0
1724,note_off,,,,,188,0,7,,,,,6,,,43,0
1724,note_off,,,,,188,0,5,,,,,4,,,59,0
1724,note_off,,,,,188,0,3,,,,,2,,,67,0
1724,note_off,,,,,188,0,6,,,,,5,,,55,0
1728,note_on,,,,,4,0,1,,,,,0,,,76,92
1728,note_on,,,,,256,0,2,,,,,1,,,67,92
1728,note_on,,,,,4,0,5,,,,,4,,,64,92
1728,note_on,,,,,4,0,7,,,,,6,,,48,75
1728,note_on,,,,,4,0,3,,,,,2,,,76,127
1728,note_on,,,,,256,0,4,,,,,3,,,67,127
1728,note_on,,,,,4,0,6,,,,,5,,,60,92
1916,note_off,,,,,188,0,3,,,,,2,,,76,0
1916,note_off,,,,,188,0,4,,,,,3,,,67,0
1916,note_off,,,,,188,0,7,,,,,6,,,48,0
1916,note_off,,,,,188,0,5,,,,,4,,,64,0
1916,note_off,,,,,188,0,1,,,,,0,,,76,0
1916,note_off,,,,,188,0,2,,,,,1,,,67,0
1916,note_off,,,,,188,0,6,,,,,5,,,60,0
1920,note_on,,,,,4,0,6,,,,,5,,,54,92
1920,note_on,,,,,4,0,3,,,,,2,,,74,127
1920,note_on,,,,,4,0,1,,,,,0,,,74,92
1920,note_on,,,,,4,0,5,,,,,4,,,57,92
1920,note_on,,,,,4,0,7,,,,,6,,,42,75
1920,note_on,,,,,4,0,2,,,,,1,,,69,92
1920,note_on,,,,,580,0,8,,,,,7,,,54,60
1920,note_on,,,,,0,0,8,,,,,7,,,57,60
1920,note_on,,,,,4,0,4,,,,,3,,,69,127
2012,note_off,,,,,0,0,8,,,,,7,,,57,0
2012,note_off,,,,,92,0,8,,,,,7,,,54,0
2016,note_on,,,,,4,0,8,,,,,7,,,62,60
2108,note_off,,,,,188,0,2,,,,,1,,,69,0
2108,note_off,,,,,92,0,8,,,,,7,,,62,0
2108,note_off,,,,,188,0,5,,,,,4,,,57,0
2108,note_off,,,,,188,0,6,,,,,5,,,54,0
2108,note_off,,,,,188,0,7,,,,,6,,,42,0
2108,note_off,,,,,188,0,3,,,,,2,,,74,0
2108,note_off,,,,,188,0,4,,,,,3,,,69,0
2108,note_off,,,,,188,0,1,,,,,0,,,74,0
2304,note_on,,,,,196,0,5,,,,,4,,,67,92
2304,note_on,,,,,196,0,1,,,,,0,,,83,92
2304,note_on,,,,,196,0,3,,,,,2,,,83,127
2304,note_on,,,,,196,0,4,,,,,3,,,62,127
2304,note_on,,,,,196,0,2,,,,,1,,,62,92
2304,note_on,,,,,196,0,6,,,,,5,,,55,92
2304,note_on,,,,,196,0,7,,,,,6,,,43,75
2396,note_off,,,,,92,0,1,,,,,0,,,83,0
2396,note_off,,,,,92,0,3,,,,,2,,,83,0
2400,note_on,,,,,4,0,3,,,,,2,,,81,127
2400,note_on,,,,,4,0,1,,,,,0,,,81,92
2492,note_off,,,,,188,0,5,,,,,4,,,67,0
2492,note_off,,,,,188,0,7,,,,,6,,,43,0
2492,note_off,,,,,92,0,3,,,,,2,,,81,0
2492,note_off,,,,,92,0,1,,,,,0,,,81,0
2492,note_off,,,,,188,0,6,,,,,5,,,55,0
2496,note_on,,,,,0,0,8,,,,,7,,,50,60
2496,note_on,,,,,4,0,6,,,,,5,,,59,92
2496,note_on,,,,,4,0,3,,,,,2,,,79,127
2496,note_on,,,,,4,0,1,,,,,0,,,79,92
2496,note_on,,,,,4,0,5,,,,,4,,,62,92
2496,note_on,,,,,388,0,8,,,,,7,,,47,60
2496,note_on,,,,,4,0,7,,,,,6,,,47,75
2588,note_off,,,,,92,0,3,,,,,2,,,79,0
2588,note_off,,,,,92,0,8,,,,,7,,,47,0
2588,note_off,,,,,0,0,8,,,,,7,,,50,0
2588,note_off,,,,,92,0,1,,,,,0,,,79,0
2592,note_on,,,,,4,0,8,,,,,7,,,55,60
2592,note_on,,,,,4,0,3,,,,,2,,,78,127
2592,note_on,,,,,4,0,1,,,,,0,,,78,92
2624,note_off,,,,,320,0,2,,,,,1,,,62,0
2624,note_off,,,,,320,0,4,,,,,3,,,62,0
2684,note_off,,,,,188,0,7,,,,,6,,,47,0
2684,note_off,,,,,188,0,6,,,,,5,,,59,0
2684,note_off,,,,,92,0,3,,,,,2,,,78,0
2684,note_off,,,,,92,0,1,,,,,0,,,78,0
2684,note_off,,,,,92,0,8,,,,,7,,,55,0
2684,note_off,,,,,188,0,5,,,,,4,,,62,0
2688,note_on,,,,,4,0,7,,,,,6,,,43,75
2688,note_on,,,,,4,0,1,,,,,0,,,76,92
2688,note_on,,,,,4,0,3,,,,,2,,,76,127
2688,note_on,,,,,4,0,5,,,,,4,,,67,92
2688,note_on,,,,,4,0,6,,,,,5,,,55,92
2780,note_off,,,,,92,0,3,,,,,2,,,76,0
2780,note_off,,,,,92,0,1,,,,,0,,,76,0
2784,note_on,,,,,4,0,3,,,,,2,,,74,127
2784,note_on,,,,,4,0,1,,,,,0,,,74,92
2876,note_off,,,,,188,0,7,,,,,6,,,43,0
2876,note_off,,,,,188,0,6,,,,,5,,,55,0
2876,note_off,,,,,92,0,1,,,,,0,,,74,0
2876,note_off,,,,,92,0,3,,,,,2,,,74,0
2876,note_off,,,,,188,0,5,,,,,4,,,67,0
2880,note_on,,,,,4,0,7,,,,,6,,,48,75
2880,note_on,,,,,256,0,2,,,,,1,,,76,92
2880,note_on,,,,,4,0,1,,,,,0,,,72,92
2880,note_on,,,,,4,0,3,,,,,2,,,72,127
2880,note_on,,,,,4,0,5,,,,,4,,,67,92
2880,note_on,,,,,4,0,6,,,,,5,,,60,92
2880,note_on,,,,,256,0,4,,,,,3,,,76,127
2972,note_off,,,,,92,0,3,,,,,2,,,72,0
2972,note_off,,,,,92,0,2,,,,,1,,,76,0
2972,note_off,,,,,92,0,1,,,,,0,,,72,0
2972,note_off,,,,,92,0,4,,,,,3,,,76,0
2976,note_on,,,,,4,0,3,,,,,2,,,71,127
2976,note_on,,,,,4,0,2,,,,,1,,,74,92
2976,note_on,,,,,4,0,1,,,,,0,,,71,92
2976,note_on,,,,,4,0,4,,,,,3,,,74,127
3068,note_off,,,,,92,0,2,,,,,1,,,74,0
3068,note_off,,,,,188,0,6,,,,,5,,,60,0
3068,note_off,,,,,188,0,7,,,,,6,,,48,0
3068,note_off,,,,,92,0,3,,,,,2,,,71,0
3068,note_off,,,,,92,0,1,,,,,0,,,71,0
3068,note_off,,,,,188,0,5,,,,,4,,,67,0
3068,note_off,,,,,92,0,4,,,,,3,,,74,0
3072,note_on,,,,,4,0,1,,,,,0,,,69,92
3072,note_on,,,,,4,0,2,,,,,1,,,72,92
3072,note_on,,,,,4,0,5,,,,,4,,,69,92
3072,note_on,,,,,4,0,4,,,,,3,,,72,127
3072,note_on,,,,,4,0,6,,,,,5,,,48,92
3072,note_on,,,,,4,0,3,,,,,2,,,69,127
3072,note_on,,,,,4,0,7,,,,,6,,,36,75
3164,note_off,,,,,92,0,3,,,,,2,,,69,0
3164,note_off,,,,,92,0,4,,,,,3,,,72,0
3164,note_off,,,,,92,0,1,,,,,0,,,69,0
3164,note_off,,,,,92,0,2,,,,,1,,,72,0
3168,note_on,,,,,4,0,4,,,,,3,,,71,127
3168,note_on,,,,,4,0,1,,,,,0,,,67,92
3168,note_on,,,,,4,0,2,,,,,1,,,71,92
3168,note_on,,,,,4,0,3,,,,,2,,,67,127
3260,note_off,,,,,92,0,1,,,,,0,,,67,0
3260,note_off,,,,,92,0,3,,,,,2,,,67,0
3260,note_off,,,,,188,0,7,,,,,6,,,36,0
3260,note_off,,,,,188,0,5,,,,,4,,,69,0
3260,note_off,,,,,188,0,6,,,,,5,,,48,0
3260,note_off,,,,,92,0,2,,,,,1,,,71,0
3260,note_off,,,,,92,0,4,,,,,3,,,71,0
3264,note_on,,,,,4,0,3,,,,,2,,,66,127
3264,note_on,,,,,4,0,4,,,,,3,,,69,127
3264,note_on,,,,,4,0,1,,,,,0,,,66,92
3264,note_on,,,,,4,0,2,,,,,1,,,69,92
3356,note_off,,,,,92,0,3,,,,,2,,,66,0
3356,note_off,,,,,92,0,2,,,,,1,,,69,0
3356,note_off,,,,,92,0,1,,,,,0,,,66,0
3356,note_off,,,,,92,0,4,,,,,3,,,69,0
3360,note_on,,,,,4,0,1,,,,,0,,,64,92
3360,note_on,,,,,4,0,2,,,,,1,,,67,92
3360,note_on,,,,,4,0,4,,,,,3,,,67,127
3360,note_on,,,,,4,0,3,,,,,2,,,64,127
3452,note_off,,,,,92,0,4,,,,,3,,,67,0
3452,note_off,,,,,92,0,2,,,,,1,,,67,0
3452,note_off,,,,,92,0,1,,,,,0,,,64,0
3452,note_off,,,,,92,0,3,,,,,2,,,64,0
3456,note_on,,,,,4,0,2,,,,,1,,,66,92
3456,note_on,,,,,4,0,1,,,,,0,,,62,92
3456,note_on,,,,,196,0,7,,,,,6,,,38,75
3456,note_on,,,,,4,0,3,,,,,2,,,62,127
3456,note_on,,,,,196,0,5,,,,,4,,,69,92
3456,note_on,,,,,4,0,4,,,,,3,,,66,127
3456,note_on,,,,,196,0,6,,,,,5,,,50,92
3644,note_off,,,,,188,0,1,,,,,0,,,62,0
3644,note_off,,,,,188,0,2,,,,,1,,,66,0
3644,note_off,,,,,188,0,3,,,,,2,,,62,0
3644,note_off,,,,,188,0,5,,,,,4,,,69,0
3644,note_off,,,,,188,0,7,,,,,6,,,38,0
3644,note_off,,,,,188,0,4,,,,,3,,,66,0
3644,note_off,,,,,188,0,6,,,,,5,,,50,0
3648,note_on,,,,,4,0,6,,,,,5,,,42,92
3648,note_on,,,,,4,0,3,,,,,2,,,72,127
3648,note_on,,,,,4,0,7,,,,,6,,,30,75
3648,note_on,,,,,4,0,1,,,,,0,,,72,92
3648,note_on,,,,,4,0,4,,,,,3,,,69,127
3648,note_on,,,,,4,0,5,,,,,4,,,62,92
3648,note_on,,,,,4,0,2,,,,,1,,,69,92
3836,note_off,,,,,188,0,2,,,,,1,,,69,0
3836,note_off,,,,,188,0,4,,,,,3,,,69,0
3836,note_off,,,,,188,0,7,,,,,6,,,30,0
3836,note_off,,,,,188,0,6,,,,,5,,,42,0
3836,note_off,,,,,188,0,5,,,,,4,,,62,0
3836,note_off,,,,,188,0,3,,,,,2,,,72,0
3836,note_off,,,,,188,0,1,,,,,0,,,72,0
3840,note_on,,,,,4,0,6,,,,,5,,,43,92
3840,note_on,,,,,4,0,7,,,,,6,,,31,75
3840,note_on,,,,,4,0,2,,,,,1,,,67,92
3840,note_on,,,,,4,0,3,,,,,2,,,71,127
3840,note_on,,,,,4,0,4,,,,,3,,,67,127
3840,note_on,,,,,4,0,5,,,,,4,,,62,92
3840,note_on,,,,,1156,0,8,,,,,7,,,42,60
3840,note_on,,,,,0,0,8,,,,,7,,,48,60
3840,note_on,,,,,4,0,1,,,,,0,,,71,92
3932,note_off,,,,,0,0,8,,,,,7,,,48,0
3932,note_off,,,,,92,0,8,,,,,7,,,42,0
3936,note_on,,,,,4,0,8,,,,,7,,,50,60
4028,note_off,,,,,188,0,6,,,,,5,,,43,0
4028,note_off,,,,,188,0,3,,,,,2,,,71,0
4028,note_off,,,,,188,0,1,,,,,0,,,71,0
4028,note_off,,,,,188,0,7,,,,,6,,,31,0
4028,note_off,,,,,188,0,5,,,,,4,,,62,0
4028,note_off,,,,,188,0,4,,,,,3,,,67,0
4028,note_off,,,,,188,0,2,,,,,1,,,67,0
4028,note_off,,,,,92,0,8,,,,,7,,,50,0
4032,note_on,,,,,4,0,3,,,,,2,,,71,127
4032,note_on,,,,,4,0,6,,,,,5,,,50,92
4032,note_on,,,,,4,0,7,,,,,6,,,38,75
4032,note_on,,,,,4,0,4,,,,,3,,,67,127
4032,note_on,,,,,4,0,1,,,,,0,,,71,92
4032,note_on,,,,,4,0,5,,,,,4,,,62,92
4032,note_on,,,,,4,0,2,,,,,1,,,67,92
4076,note_off,,,,,44,0,3,,,,,2,,,71,0
4080,note_off,,,,,48,0,2,,,,,1,,,67,0
4080,note_off,,,,,48,0,4,,,,,3,,,67,0
4080,note_on,,,,,0,0,4,,,,,3,,,66,127
4080,note_on,,,,,4,0,3,,,,,2,,,69,127
4080,note_on,,,,,0,0,2,,,,,1,,,66,92
4080,note_off,,,,,48,0,1,,,,,0,,,71,0
4080,note_on,,,,,0,0,1,,,,,0,,,69,92
4124,note_off,,,,,44,0,3,,,,,2,,,69,0
4128,note_on,,,,,0,0,1,,,,,0,,,71,92
4128,note_on,,,,,0,0,2,,,,,1,,,67,92
4128,note_off,,,,,48,0,1,,,,,0,,,69,0
4128,note_on,,,,,4,0,3,,,,,2,,,71,127
4128,note_off,,,,,48,0,2,,,,,1,,,66,0
4128,note_off,,,,,48,0,4,,,,,3,,,66,0
4128,note_on,,,,,0,0,4,,,,,3,,,67,127
4172,note_off,,,,,44,0,3,,,,,2,,,71,0
4176,note_off,,,,,48,0,1,,,,,0,,,71,0
4176,note_on,,,,,0,0,1,,,,,0,,,69,92
4176,note_off,,,,,48,0,2,,,,,1,,,67,0
4176,note_on,,,,,4,0,3,,,,,2,,,69,127
4176,note_off,,,,,48,0,4,,,,,3,,,67,0
4176,note_on,,,,,0,0,4,,,,,3,,,66,127
4176,note_on,,,,,0,0,2,,,,,1,,,66,92
4220,note_off,,,,,44,0,3,,,,,2,,,69,0
4224,note_off,,,,,48,0,4,,,,,3,,,66,0
4224,note_off,,,,,48,0,1,,,,,0,,,69,0
4224,note_off,,,,,48,0,2,,,,,1,,,66,0
4224,note_on,,,,,0,0,1,,,,,0,,,71,92
4224,note_on,,,,,0,0,4,,,,,3,,,67,127
4224,note_on,,,,,4,0,3,,,,,2,,,71,127
4224,note_on,,,,,0,0,2,,,,,1,,,67,92
4268,note_off,,,,,44,0,3,,,,,2,,,71,0
4272,note_off,,,,,48,0,2,,,,,1,,,67,0
4272,note_on,,,,,0,0,2,,,,,1,,,66,92
4272,note_off,,,,,48,0,4,,,,,3,,,67,0
4272,note_off,,,,,48,0,1,,,,,0,,,71,0
4272,note_on,,,,,0,0,4,,,,,3,,,66,127
4272,note_on,,,,,0,0,1,,,,,0,,,69,92
4272,note_on,,,,,4,0,3,,,,,2,,,69,127
4352,note_off,,,,,320,0,5,,,,,4,,,62,0
4352,note_off,,,,,320,0,7,,,,,6,,,38,0
4352,note_off,,,,,320,0,6,,,,,5,,,50,0
4412,note_off,,,,,140,0,4,,,,,3,,,66,0
4412,note_off,,,,,140,0,3,,,,,2,,,69,0
4412,note_off,,,,,140,0,2,,,,,1,,,66,0
4412,note_off,,,,,140,0,1,,,,,0,,,69,0
4608,note_on,,,,,196,0,2,,,,,1,,,78,60
4608,note_on,,,,,196,0,1,,,,,0,,,81,60
4796,note_off,,,,,188,0,2,,,,,1,,,78,0
4796,note_off,,,,,188,0,1,,,,,0,,,81,0
4800,note_on,,,,,4,0,2,,,,,1,,,79,60
4800,note_on,,,,,4,0,1,,,,,0,,,83,60
4988,note_off,,,,,188,0,2,,,,,1,,,79,0
4988,note_off,,,,,188,0,1,,,,,0,,,83,0
4992,note_on,,,,,4,0,1,,,,,0,,,84,60
4992,note_on,,,,,4,0,2,,,,,1,,,81,60
5180,note_off,,,,,188,0,1,,,,,0,,,84,0
5180,note_off,,,,,188,0,2,,,,,1,,,81,0
5184,note_on,,,,,4,0,2,,,,,1,,,79,60
5184,note_on,,,,,4,0,1,,,,,0,,,83,60
5276,note_off,,,,,92,0,1,,,,,0,,,83,0
5276,note_off,,,,,92,0,2,,,,,1,,,79,0
5280,note_on,,,,,4,0,2,,,,,1,,,81,60
5280,note_on,,,,,4,0,1,,,,,0,,,84,60
5372,note_off,,,,,92,0,2,,,,,1,,,81,0
5372,note_off,,,,,92,0,1,,,,,0,,,84,0
5376,note_on,,,,,4,0,2,,,,,1,,,83,60
5376,note_on,,,,,4,0,1,,,,,0,,,86,60
5564,note_off,,,,,188,0,1,,,,,0,,,86,0
5564,note_off,,,,,188,0,2,,,,,1,,,83,0
5760,note_on,,,,,196,0,1,,,,,0,,,69,92
5760,note_on,,,,,196,0,2,,,,,1,,,66,92
5760,note_on,,,,,1408,0,6,,,,,5,,,50,92
5760,note_on,,,,,1408,0,5,,,,,4,,,62,92
5760,note_on,,,,,1348,0,3,,,,,2,,,69,127
5760,note_on,,,,,1348,0,4,,,,,3,,,66,127
5760,note_on,,,,,1408,0,7,,,,,6,,,38,75
5948,note_off,,,,,188,0,1,,,,,0,,,69,0
5948,note_off,,,,,188,0,6,,,,,5,,,50,0
5948,note_off,,,,,188,0,2,,,,,1,,,66,0
5948,note_off,,,,,188,0,5,,,,,4,,,62,0
5948,note_off,,,,,188,0,7,,,,,6,,,38,0
5948,note_off,,,,,188,0,4,,,,,3,,,66,0
5948,note_off,,,,,188,0,3,,,,,2,,,69,0
5952,note_on,,,,,4,0,7,,,,,6,,,43,75
5952,note_on,,,,,4,0,2,,,,,1,,,67,92
5952,note_on,,,,,4,0,5,,,,,4,,,62,92
5952,note_on,,,,,4,0,6,,,,,5,,,55,92
5952,note_on,,,,,4,0,4,,,,,3,,,67,127
5952,note_on,,,,,4,0,1,,,,,0,,,71,92
5952,note_on,,,,,4,0,3,,,,,2,,,71,127
6140,note_off,,,,,188,0,2,,,,,1,,,67,0
6140,note_off,,,,,188,0,6,,,,,5,,,55,0
6140,note_off,,,,,188,0,3,,,,,2,,,71,0
6140,note_off,,,,,188,0,1,,,,,0,,,71,0
6140,note_off,,,,,188,0,5,,,,,4,,,62,0
6140,note_off,,,,,188,0,4,,,,,3,,,67,0
6140,note_off,,,,,188,0,7,,,,,6,,,43,0
6144,note_on,,,,,4,0,4,,,,,3,,,69,127
6144,note_on,,,,,4,0,6,,,,,5,,,54,92
6144,note_on,,,,,4,0,7,,,,,6,,,42,75
6144,note_on,,,,,4,0,3,,,,,2,,,72,127
6144,note_on,,,,,2116,0,8,,,,,7,,,42,60
6144,note_on,,,,,4,0,2,,,,,1,,,69,92
6144,note_on,,,,,0,0,8,,,,,7,,,48,60
6144,note_on,,,,,4,0,5,,,,,4,,,62,92
6144,note_on,,,,,4,0,1,,,,,0,,,72,92
6236,note_off,,,,,0,0,8,,,,,7,,,48,0
6236,note_off,,,,,92,0,8,,,,,7,,,42,0
6240,note_on,,,,,4,0,8,,,,,7,,,50,60
6332,note_off,,,,,92,0,8,,,,,7,,,50,0
6332,note_off,,,,,188,0,1,,,,,0,,,72,0
6332,note_off,,,,,188,0,7,,,,,6,,,42,0
6332,note_off,,,,,188,0,6,,,,,5,,,54,0
6332,note_off,,,,,188,0,4,,,,,3,,,69,0
6332,note_off,,,,,188,0,3,,,,,2,,,72,0
6332,note_off,,,,,188,0,5,,,,,4,,,62,0
6332,note_off,,,,,188,0,2,,,,,1,,,69,0
6336,note_on,,,,,4,0,4,,,,,3,,,67,127
6336,note_on,,,,,4,0,6,,,,,5,,,55,92
6336,note_on,,,,,4,0,3,,,,,2,,,71,127
6336,note_on,,,,,4,0,7,,,,,6,,,43,75
6336,note_on,,,,,4,0,5,,,,,4,,,62,92
6336,note_on,,,,,4,0,1,,,,,0,,,71,92
6336,note_on,,,,,4,0,2,,,,,1,,,67,92
6524,note_off,,,,,188,0,4,,,,,3,,,67,0
6524,note_off,,,,,188,0,7,,,,,6,,,43,0
6524,note_off,,,,,188,0,5,,,,,4,,,62,0
6524,note_off,,,,,188,0,2,,,,,1,,,67,0
6524,note_off,,,,,188,0,6,,,,,5,,,55,0
6524,note_off,,,,,188,0,3,,,,,2,,,71,0
6524,note_off,,,,,188,0,1,,,,,0,,,71,0
6528,note_on,,,,,4,0,3,,,,,2,,,69,127
6528,note_on,,,,,4,0,2,,,,,1,,,66,92
6528,note_on,,,,,4,0,6,,,,,5,,,50,92
6528,note_on,,,,,4,0,7,,,,,6,,,38,75
6528,note_on,,,,,4,0,5,,,,,4,,,62,92
6528,note_on,,,,,4,0,4,,,,,3,,,66,127
6528,note_on,,,,,4,0,1,,,,,0,,,69,92
6716,note_off,,,,,188,0,4,,,,,3,,,66,0
6716,note_off,,,,,188,0,7,,,,,6,,,38,0
6716,note_off,,,,,188,0,3,,,,,2,,,69,0
6716,note_off,,,,,188,0,5,,,,,4,,,62,0
6716,note_off,,,,,188,0,6,,,,,5,,,50,0
6716,note_off,,,,,188,0,2,,,,,1,,,66,0
6716,note_off,,,,,188,0,1,,,,,0,,,69,0
6912,note_on,,,,,196,0,2,,,,,1,,,78,60
6912,note_on,,,,,196,0,1,,,,,0,,,81,60
7100,note_off,,,,,188,0,1,,,,,0,,,81,0
7100,note_off,,,,,188,0,2,,,,,1,,,78,0
7104,note_on,,,,,4,0,1,,,,,0,,,83,60
7104,note_on,,,,,4,0,2,,,,,1,,,79,60
7292,note_off,,,,,188,0,1,,,,,0,,,83,0
7292,note_off,,,,,188,0,2,,,,,1,,,79,0
7296,note_on,,,,,4,0,2,,,,,1,,,81,60
7296,note_on,,,,,4,0,1,,,,,0,,,84,60
7484,note_off,,,,,188,0,2,,,,,1,,,81,0
7484,note_off,,,,,188,0,1,,,,,0,,,84,0
7488,note_on,,,,,4,0,2,,,,,1,,,79,60
7488,note_on,,,,,4,0,1,,,,,0,,,83,60
7580,note_off,,,,,92,0,2,,,,,1,,,79,0
7580,note_off,,,,,92,0,1,,,,,0,,,83,0
7584,note_on,,,,,4,0,2,,,,,1,,,81,60
7584,note_on,,,,,4,0,1,,,,,0,,,84,60
7676,note_off,,,,,92,0,1,,,,,0,,,84,0
7676,note_off,,,,,92,0,2,,,,,1,,,81,0
7680,note_on,,,,,4,0,1,,,,,0,,,86,60
7680,note_on,,,,,4,0,2,,,,,1,,,83,60
7868,note_off,,,,,188,0,1,,,,,0,,,86,0
7868,note_off,,,,,188,0,2,,,,,1,,,83,0
8064,note_on,,,,,196,0,1,,,,,0,,,69,92
8064,note_on,,,,,1348,0,6,,,,,5,,,50,92
8064,note_on,,,,,1348,0,4,,,,,3,,,66,127
8064,note_on,,,,,1348,0,5,,,,,4,,,62,92
8064,note_on,,,,,1348,0,7,,,,,6,,,38,75
8064,note_on,,,,,1348,0,3,,,,,2,,,69,127
8064,note_on,,,,,196,0,2,,,,,1,,,66,92
8252,note_off,,,,,188,0,7,,,,,6,,,38,0
8252,note_off,,,,,188,0,1,,,,,0,,,69,0
8252,note_off,,,,,188,0,2,,,,,1,,,66,0
8252,note_off,,,,,188,0,5,,,,,4,,,62,0
8252,note_off,,,,,188,0,4,,,,,3,,,66,0
8252,note_off,,,,,188,0,3,,,,,2,,,69,0
8252,note_off,,,,,188,0,6,,,,,5,,,50,0
8256,note_on,,,,,4,0,7,,,,,6,,,43,75
8256,note_on,,,,,4,0,6,,,,,5,,,55,92
8256,note_on,,,,,4,0,1,,,,,0,,,71,92
8256,note_on,,,,,4,0,3,,,,,2,,,71,127
8256,note_on,,,,,4,0,4,,,,,3,,,67,127
8256,note_on,,,,,4,0,5,,,,,4,,,62,92
8256,note_on,,,,,4,0,2,,,,,1,,,67,92
8444,note_off,,,,,188,0,6,,,,,5,,,55,0
8444,note_off,,,,,188,0,5,,,,,4,,,62,0
8444,note_off,,,,,188,0,4,,,,,3,,,67,0
8444,note_off,,,,,188,0,2,,,,,1,,,67,0
8444,note_off,,,,,188,0,1,,,,,0,,,71,0
8444,note_off,,,,,188,0,3,,,,,2,,,71,0
8444,note_off,,,,,188,0,7,,,,,6,,,43,0
8448,note_on,,,,,4,0,5,,,,,4,,,62,92
8448,note_on,,,,,4,0,3,,,,,2,,,72,127
8448,note_on,,,,,4,0,7,,,,,6,,,42,75
8448,note_on,,,,,0,0,8,,,,,7,,,48,60
8448,note_on,,,,,4,0,2,,,,,1,,,69,92
8448,note_on,,,,,4,0,1,,,,,0,,,72,92
8448,note_on,,,,,4,0,6,,,,,5,,,54,92
8448,note_on,,,,,2116,0,8,,,,,7,,,42,60
8448,note_on,,,,,4,0,4,,,,,3,,,69,127
8540,note_off,,,,,0,0,8,,,,,7,,,48,0
8540,note_off,,,,,92,0,8,,,,,7,,,42,0
8544,note_on,,,,,4,0,8,,,,,7,,,50,60
8636,note_off,,,,,188,0,2,,,,,1,,,69,0
8636,note_off,,,,,188,0,7,,,,,6,,,42,0
8636,note_off,,,,,188,0,1,,,,,0,,,72,0
8636,note_off,,,,,188,0,6,,,,,5,,,54,0
8636,note_off,,,,,92,0,8,,,,,7,,,50,0
8636,note_off,,,,,188,0,4,,,,,3,,,69,0
8636,note_off,,,,,188,0,5,,,,,4,,,62,0
8636,note_off,,,,,188,0,3,,,,,2,,,72,0
8640,note_on,,,,,4,0,6,,,,,5,,,55,92
8640,note_on,,,,,4,0,1,,,,,0,,,71,92
8640,note_on,,,,,4,0,3,,,,,2,,,71,127
8640,note_on,,,,,4,0,2,,,,,1,,,67,92
8640,note_on,,,,,4,0,7,,,,,6,,,43,75
8640,note_on,,,,,4,0,4,,,,,3,,,67,127
8640,note_on,,,,,4,0,5,,,,,4,,,62,92
8828,note_off,,,,,188,0,1,,,,,0,,,71,0
8828,note_off,,,,,188,0,6,,,,,5,,,55,0
8828,note_off,,,,,188,0,3,,,,,2,,,71,0
8828,note_off,,,,,188,0,4,,,,,3,,,67,0
8828,note_off,,,,,188,0,5,,,,,4,,,62,0
8828,note_off,,,,,188,0,7,,,,,6,,,43,0
8828,note_off,,,,,188,0,2,,,,,1,,,67,0
8832,note_on,,,,,4,0,7,,,,,6,,,38,75
8832,note_on,,,,,4,0,1,,,,,0,,,69,92
8832,note_on,,,,,4,0,4,,,,,3,,,66,127
8832,note_on,,,,,4,0,3,,,,,2,,,69,127
8832,note_on,,,,,4,0,2,,,,,1,,,66,92
8832,note_on,,,,,4,0,5,,,,,4,,,62,92
8832,note_on,,,,,4,0,6,,,,,5,,,50,92
9020,note_off,,,,,188,0,5,,,,,4,,,62,0
9020,note_off,,,,,188,0,1,,,,,0,,,69,0
9020,note_off,,,,,188,0,6,,,,,5,,,50,0
9020,note_off,,,,,188,0,2,,,,,1,,,66,0
9020,note_off,,,,,188,0,4,,,,,3,,,66,0
9020,note_off,,,,,188,0,7,,,,,6,,,38,0
9020,note_off,,,,,188,0,3,,,,,2,,,69,0
9216,note_on,,,,,196,0,2,,,,,1,,,69,92
9216,note_on,,,,,196,0,4,,,,,3,,,69,127
9216,note_on,,,,,0,0,8,,,,,7,,,52,60
9216,note_on,,,,,580,0,8,,,,,7,,,49,60
9216,note_on,,,,,196,0,5,,,,,4,,,64,92
9216,note_on,,,,,196,0,6,,,,,5,,,49,92
9216,note_on,,,,,196,0,7,,,,,6,,,37,75
9308,note_off,,,,,92,0,8,,,,,7,,,49,0
9308,note_off,,,,,0,0,8,,,,,7,,,52,0
9312,note_on,,,,,292,0,1,,,,,0,,,76,92
9312,note_on,,,,,4,0,8,,,,,7,,,57,60
9312,note_on,,,,,292,0,3,,,,,2,,,76,127
9404,note_off,,,,,188,0,6,,,,,5,,,49,0
9404,note_off,,,,,188,0,7,,,,,6,,,37,0
9404,note_off,,,,,188,0,5,,,,,4,,,64,0
9404,note_off,,,,,92,0,8,,,,,7,,,57,0
9404,note_off,,,,,92,0,3,,,,,2,,,76,0
9404,note_off,,,,,188,0,2,,,,,1,,,69,0
9404,note_off,,,,,188,0,4,,,,,3,,,69,0
9404,note_off,,,,,92,0,1,,,,,0,,,76,0
9408,note_on,,,,,4,0,6,,,,,5,,,49,92
9408,note_on,,,,,4,0,5,,,,,4,,,64,92
9408,note_on,,,,,4,0,4,,,,,3,,,69,127
9408,note_on,,,,,4,0,2,,,,,1,,,69,92
9408,note_on,,,,,4,0,1,,,,,0,,,81,92
9408,note_on,,,,,4,0,3,,,,,2,,,81,127
9408,note_on,,,,,4,0,7,,,,,6,,,37,75
9500,note_off,,,,,92,0,1,,,,,0,,,81,0
9500,note_off,,,,,92,0,3,,,,,2,,,81,0
9504,note_on,,,,,4,0,3,,,,,2,,,79,127
9504,note_on,,,,,4,0,1,,,,,0,,,79,92
9596,note_off,,,,,188,0,5,,,,,4,,,64,0
9596,note_off,,,,,188,0,4,,,,,3,,,69,0
9596,note_off,,,,,92,0,3,,,,,2,,,79,0
9596,note_off,,,,,188,0,7,,,,,6,,,37,0
9596,note_off,,,,,188,0,6,,,,,5,,,49,0
9596,note_off,,,,,92,0,1,,,,,0,,,79,0
9596,note_off,,,,,188,0,2,,,,,1,,,69,0
9600,note_on,,,,,4,0,5,,,,,4,,,64,92
9600,note_on,,,,,4,0,1,,,,,0,,,78,92
9600,note_on,,,,,4,0,2,,,,,1,,,69,92
9600,note_on,,,,,4,0,7,,,,,6,,,37,75
9600,note_on,,,,,4,0,3,,,,,2,,,78,127
9600,note_on,,,,,4,0,6,,,,,5,,,49,92
9600,note_on,,,,,4,0,4,,,,,3,,,69,127
9692,note_off,,,,,92,0,1,,,,,0,,,78,0
9692,note_off,,,,,92,0,3,,,,,2,,,78,0
9696,note_on,,,,,4,0,3,,,,,2,,,76,127
9696,note_on,,,,,4,0,1,,,,,0,,,76,92
9788,note_off,,,,,188,0,4,,,,,3,,,69,0
9788,note_off,,,,,188,0,7,,,,,6,,,37,0
9788,note_off,,,,,92,0,3,,,,,2,,,76,0
9788,note_off,,,,,92,0,1,,,,,0,,,76,0
9788,note_off,,,,,188,0,5,,,,,4,,,64,0
9788,note_off,,,,,188,0,6,,,,,5,,,49,0
9788,note_off,,,,,188,0,2,,,,,1,,,69,0
9792,note_on,,,,,4,0,3,,,,,2,,,78,127
9792,note_on,,,,,4,0,6,,,,,5,,,50,92
9792,note_on,,,,,4,0,5,,,,,4,,,62,92
9792,note_on,,,,,4,0,2,,,,,1,,,81,92
9792,note_on,,,,,4,0,7,,,,,6,,,38,75
9792,note_on,,,,,4,0,1,,,,,0,,,78,92
9792,note_on,,,,,4,0,4,,,,,3,,,81,127
9884,note_off,,,,,92,0,4,,,,,3,,,81,0
9884,note_off,,,,,92,0,2,,,,,1,,,81,0
9888,note_on,,,,,4,0,4,,,,,3,,,69,127
9888,note_on,,,,,4,0,2,,,,,1,,,69,92
9980,note_off,,,,,92,0,2,,,,,1,,,69,0
9980,note_off,,,,,188,0,1,,,,,0,,,78,0
9980,note_off,,,,,188,0,7,,,,,6,,,38,0
9980,note_off,,,,,188,0,3,,,,,2,,,78,0
9980,note_off,,,,,188,0,5,,,,,4,,,62,0
9980,note_off,,,,,92,0,4,,,,,3,,,69,0
9980,note_off,,,,,188,0,6,,,,,5,,,50,0
9984,note_on,,,,,4,0,7,,,,,6,,,38,75
9984,note_on,,,,,4,0,2,,,,,1,,,74,92
9984,note_on,,,,,4,0,5,,,,,4,,,62,92
9984,note_on,,,,,4,0,6,,,,,5,,,50,92
9984,note_on,,,,,4,0,4,,,,,3,,,74,127
9984,note_on,,,,,4,0,3,,,,,2,,,81,127
9984,note_on,,,,,4,0,1,,,,,0,,,81,92
10076,note_off,,,,,92,0,2,,,,,1,,,74,0
10076,note_off,,,,,92,0,4,,,,,3,,,74,0
10080,note_on,,,,,4,0,2,,,,,1,,,78,92
10080,note_on,,,,,4,0,4,,,,,3,,,78,127
10172,note_off,,,,,92,0,4,,,,,3,,,78,0
10172,note_off,,,,,188,0,5,,,,,4,,,62,0
10172,note_off,,,,,188,0,3,,,,,2,,,81,0
10172,note_off,,,,,188,0,7,,,,,6,,,38,0
10172,note_off,,,,,188,0,6,,,,,5,,,50,0
10172,note_off,,,,,188,0,1,,,,,0,,,81,0
10172,note_off,,,,,92,0,2,,,,,1,,,78,0
10176,note_on,,,,,4,0,5,,,,,4,,,62,92
10176,note_on,,,,,4,0,6,,,,,5,,,50,92
10176,note_on,,,,,4,0,3,,,,,2,,,81,127
10176,note_on,,,,,4,0,1,,,,,0,,,81,92
10176,note_on,,,,,4,0,7,,,,,6,,,38,75
10176,note_on,,,,,4,0,2,,,,,1,,,76,92
10176,note_on,,,,,4,0,4,,,,,3,,,76,127
10268,note_off,,,,,92,0,2,,,,,1,,,76,0
10268,note_off,,,,,92,0,4,,,,,3,,,76,0
10272,note_on,,,,,4,0,2,,,,,1,,,74,92
10272,note_on,,,,,4,0,4,,,,,3,,,74,127
10364,note_off,,,,,188,0,1,,,,,0,,,81,0
10364,note_off,,,,,188,0,3,,,,,2,,,81,0
10364,note_off,,,,,188,0,6,,,,,5,,,50,0
10364,note_off,,,,,92,0,4,,,,,3,,,74,0
10364,note_off,,,,,188,0,5,,,,,4,,,62,0
10364,note_off,,,,,188,0,7,,,,,6,,,38,0
10364,note_off,,,,,92,0,2,,,,,1,,,74,0
10368,note_on,,,,,4,0,2,,,,,1,,,76,92
10368,note_on,,,,,4,0,6,,,,,5,,,49,92
10368,note_on,,,,,4,0,3,,,,,2,,,81,127
10368,note_on,,,,,4,0,7,,,,,6,,,37,75
10368,note_on,,,,,0,0,8,,,,,7,,,52,60
10368,note_on,,,,,964,0,8,,,,,7,,,49,60
10368,note_on,,,,,4,0,4,,,,,3,,,76,127
10368,note_on,,,,,4,0,1,,,,,0,,,81,92
10368,note_on,,,,,4,0,5,,,,,4,,,69,92
10460,note_off,,,,,0,0,8,,,,,7,,,52,0
10460,note_off,,,,,92,0,8,,,,,7,,,49,0
10460,note_off,,,,,92,0,3,,,,,2,,,81,0
10460,note_off,,,,,92,0,1,,,,,0,,,81,0
10464,note_on,,,,,4,0,3,,,,,2,,,69,127
10464,note_on,,,,,4,0,8,,,,,7,,,57,60
10464,note_on,,,,,4,0,1,,,,,0,,,69,92
10556,note_off,,,,,92,0,1,,,,,0,,,69,0
10556,note_off,,,,,188,0,2,,,,,1,,,76,0
10556,note_off,,,,,188,0,6,,,,,5,,,49,0
10556,note_off,,,,,92,0,3,,,,,2,,,69,0
10556,note_off,,,,,188,0,4,,,,,3,,,76,0
10556,note_off,,,,,92,0,8,,,,,7,,,57,0
10556,note_off,,,,,188,0,7,,,,,6,,,37,0
10556,note_off,,,,,188,0,5,,,,,4,,,69,0
10560,note_on,,,,,4,0,3,,,,,2,,,76,127
10560,note_on,,,,,4,0,7,,,,,6,,,37,75
10560,note_on,,,,,4,0,4,,,,,3,,,81,127
10560,note_on,,,,,4,0,2,,,,,1,,,81,92
10560,note_on,,,,,4,0,6,,,,,5,,,49,92
10560,note_on,,,,,4,0,5,,,,,4,,,69,92
10560,note_on,,,,,4,0,1,,,,,0,,,76,92
10652,note_off,,,,,92,0,1,,,,,0,,,76,0
10652,note_off,,,,,92,0,3,,,,,2,,,76,0
10656,note_on,,,,,4,0,3,,,,,2,,,79,127
10656,note_on,,,,,4,0,1,,,,,0,,,79,92
10748,note_off,,,,,188,0,2,,,,,1,,,81,0
10748,note_off,,,,,188,0,4,,,,,3,,,81,0
10748,note_off,,,,,188,0,6,,,,,5,,,49,0
10748,note_off,,,,,92,0,1,,,,,0,,,79,0
10748,note_off,,,,,188,0,7,,,,,6,,,37,0
10748,note_off,,,,,188,0,5,,,,,4,,,69,0
10748,note_off,,,,,92,0,3,,,,,2,,,79,0
10752,note_on,,,,,4,0,2,,,,,1,,,81,92
10752,note_on,,,,,4,0,7,,,,,6,,,37,75
10752,note_on,,,,,4,0,5,,,,,4,,,69,92
10752,note_on,,,,,4,0,6,,,,,5,,,49,92
10752,note_on,,,,,4,0,3,,,,,2,,,78,127
10752,note_on,,,,,4,0,4,,,,,3,,,81,127
10752,note_on,,,,,4,0,1,,,,,0,,,78,92
10844,note_off,,,,,92,0,1,,,,,0,,,78,0
10844,note_off,,,,,92,0,3,,,,,2,,,78,0
10848,note_on,,,,,4,0,1,,,,,0,,,76,92
10848,note_on,,,,,4,0,3,,,,,2,,,76,127
10940,note_off,,,,,188,0,4,,,,,3,,,81,0
10940,note_off,,,,,188,0,7,,,,,6,,,37,0
10940,note_off,,,,,188,0,2,,,,,1,,,81,0
10940,note_off,,,,,188,0,6,,,,,5,,,49,0
10940,note_off,,,,,188,0,5,,,,,4,,,69,0
10940,note_off,,,,,92,0,3,,,,,2,,,76,0
10940,note_off,,,,,92,0,1,,,,,0,,,76,0
10944,note_on,,,,,4,0,3,,,,,2,,,78,127
10944,note_on,,,,,4,0,2,,,,,1,,,81,92
10944,note_on,,,,,4,0,5,,,,,4,,,69,92
10944,note_on,,,,,4,0,7,,,,,6,,,38,75
10944,note_on,,,,,4,0,6,,,,,5,,,50,92
10944,note_on,,,,,4,0,4,,,,,3,,,81,127
10944,note_on,,,,,4,0,1,,,,,0,,,78,92
11036,note_off,,,,,92,0,4,,,,,3,,,81,0
11036,note_off,,,,,92,0,2,,,,,1,,,81,0
11040,note_on,,,,,4,0,4,,,,,3,,,69,127
11040,note_on,,,,,4,0,2,,,,,1,,,69,92
11132,note_off,,,,,92,0,2,,,,,1,,,69,0
11132,note_off,,,,,188,0,7,,,,,6,,,38,0
11132,note_off,,,,,188,0,3,,,,,2,,,78,0
11132,note_off,,,,,92,0,4,,,,,3,,,69,0
11132,note_off,,,,,188,0,5,,,,,4,,,69,0
11132,note_off,,,,,188,0,1,,,,,0,,,78,0
11132,note_off,,,,,188,0,6,,,,,5,,,50,0
11136,note_on,,,,,4,0,5,,,,,4,,,69,92
11136,note_on,,,,,4,0,6,,,,,5,,,50,92
11136,note_on,,,,,4,0,1,,,,,0,,,81,92
11136,note_on,,,,,4,0,3,,,,,2,,,81,127
11136,note_on,,,,,4,0,2,,,,,1,,,74,92
11136,note_on,,,,,4,0,4,,,,,3,,,74,127
11136,note_on,,,,,4,0,7,,,,,6,,,38,75
11228,note_off,,,,,92,0,4,,,,,3,,,74,0
11228,note_off,,,,,92,0,2,,,,,1,,,74,0
11232,note_on,,,,,4,0,4,,,,,3,,,78,127
11232,note_on,,,,,4,0,2,,,,,1,,,78,92
11324,note_off,,,,,188,0,1,,,,,0,,,81,0
11324,note_off,,,,,188,0,6,,,,,5,,,50,0
11324,note_off,,,,,188,0,7,,,,,6,,,38,0
11324,note_off,,,,,92,0,2,,,,,1,,,78,0
11324,note_off,,,,,188,0,5,,,,,4,,,69,0
11324,note_off,,,,,188,0,3,,,,,2,,,81,0
11324,note_off,,,,,92,0,4,,,,,3,,,78,0
11328,note_on,,,,,4,0,3,,,,,2,,,81,127
11328,note_on,,,,,4,0,4,,,,,3,,,76,127
11328,note_on,,,,,4,0,2,,,,,1,,,76,92
11328,note_on,,,,,4,0,7,,,,,6,,,38,75
11328,note_on,,,,,4,0,1,,,,,0,,,81,92
11328,note_on,,,,,4,0,6,,,,,5,,,50,92
11328,note_on,,,,,4,0,5,,,,,4,,,69,92
11420,note_off,,,,,92,0,2,,,,,1,,,76,0
11420,note_off,,,,,92,0,4,,,,,3,,,76,0
11424,note_on,,,,,4,0,2,,,,,1,,,79,92
11424,note_on,,,,,4,0,4,,,,,3,,,79,127
11516,note_off,,,,,188,0,5,,,,,4,,,69,0
11516,note_off,,,,,92,0,4,,,,,3,,,79,0
11516,note_off,,,,,188,0,7,,,,,6,,,38,0
11516,note_off,,,,,188,0,1,,,,,0,,,81,0
11516,note_off,,,,,188,0,3,,,,,2,,,81,0
11516,note_off,,,,,92,0,2,,,,,1,,,79,0
11516,note_off,,,,,188,0,6,,,,,5,,,50,0
11520,note_on,,,,,4,0,3,,,,,2,,,81,127
11520,note_on,,,,,4,0,7,,,,,6,,,39,75
11520,note_on,,,,,4,0,4,,,,,3,,,78,127
11520,note_on,,,,,4,0,1,,,,,0,,,81,92
11520,note_on,,,,,4,0,5,,,,,4,,,63,92
11520,note_on,,,,,4,0,2,,,,,1,,,78,92
11520,note_on,,,,,964,0,8,,,,,7,,,51,60
11520,note_on,,,,,0,0,8,,,,,7,,,57,60
11520,note_on,,,,,4,0,6,,,,,5,,,51,92
11612,note_off,,,,,92,0,3,,,,,2,,,81,0
11612,note_off,,,,,92,0,1,,,,,0,,,81,0
11612,note_off,,,,,92,0,8,,,,,7,,,51,0
11612,note_off,,,,,0,0,8,,,,,7,,,57,0
11616,note_on,,,,,4,0,1,,,,,0,,,71,92
11616,note_on,,,,,4,0,8,,,,,7,,,59,60
11616,note_on,,,,,4,0,3,,,,,2,,,71,127
11708,note_off,,,,,188,0,6,,,,,5,,,51,0
11708,note_off,,,,,92,0,1,,,,,0,,,71,0
11708,note_off,,,,,92,0,8,,,,,7,,,59,0
11708,note_off,,,,,92,0,3,,,,,2,,,71,0
11708,note_off,,,,,188,0,5,,,,,4,,,63,0
11708,note_off,,,,,188,0,2,,,,,1,,,78,0
11708,note_off,,,,,188,0,7,,,,,6,,,39,0
11708,note_off,,,,,188,0,4,,,,,3,,,78,0
11712,note_on,,,,,4,0,6,,,,,5,,,51,92
11712,note_on,,,,,4,0,7,,,,,6,,,39,75
11712,note_on,,,,,4,0,4,,,,,3,,,78,127
11712,note_on,,,,,4,0,3,,,,,2,,,83,127
11712,note_on,,,,,4,0,1,,,,,0,,,83,92
11712,note_on,,,,,4,0,5,,,,,4,,,63,92
11712,note_on,,,,,4,0,2,,,,,1,,,78,92
11804,note_off,,,,,92,0,1,,,,,0,,,83,0
11804,note_off,,,,,92,0,3,,,,,2,,,83,0
11808,note_on,,,,,4,0,3,,,,,2,,,81,127
11808,note_on,,,,,4,0,1,,,,,0,,,81,92
11900,note_off,,,,,188,0,4,,,,,3,,,78,0
11900,note_off,,,,,188,0,5,,,,,4,,,63,0
11900,note_off,,,,,92,0,3,,,,,2,,,81,0
11900,note_off,,,,,188,0,6,,,,,5,,,51,0
11900,note_off,,,,,188,0,7,,,,,6,,,39,0
11900,note_off,,,,,92,0,1,,,,,0,,,81,0
11900,note_off,,,,,188,0,2,,,,,1,,,78,0
11904,note_on,,,,,4,0,4,,,,,3,,,71,127
11904,note_on,,,,,4,0,1,,,,,0,,,79,92
11904,note_on,,,,,4,0,5,,,,,4,,,63,92
11904,note_on,,,,,4,0,2,,,,,1,,,71,92
11904,note_on,,,,,4,0,7,,,,,6,,,39,75
11904,note_on,,,,,4,0,3,,,,,2,,,79,127
11904,note_on,,,,,4,0,6,,,,,5,,,51,92
11996,note_off,,,,,92,0,1,,,,,0,,,79,0
11996,note_off,,,,,92,0,3,,,,,2,,,79,0
12000,note_on,,,,,4,0,3,,,,,2,,,78,127
12000,note_on,,,,,4,0,1,,,,,0,,,78,92
12092,note_off,,,,,188,0,4,,,,,3,,,71,0
12092,note_off,,,,,188,0,2,,,,,1,,,71,0
12092,note_off,,,,,188,0,7,,,,,6,,,39,0
12092,note_off,,,,,188,0,6,,,,,5,,,51,0
12092,note_off,,,,,92,0,3,,,,,2,,,78,0
12092,note_off,,,,,92,0,1,,,,,0,,,78,0
12092,note_off,,,,,188,0,5,,,,,4,,,63,0
12096,note_on,,,,,4,0,3,,,,,2,,,79,127
12096,note_on,,,,,4,0,1,,,,,0,,,79,92
12096,note_on,,,,,4,0,6,,,,,5,,,52,92
12096,note_on,,,,,4,0,5,,,,,4,,,71,92
12096,note_on,,,,,4,0,7,,,,,6,,,40,75
12192,note_on,,,,,100,0,4,,,,,3,,,71,127
12192,note_on,,,,,100,0,2,,,,,1,,,71,92
12284,note_off,,,,,188,0,7,,,,,6,,,40,0
12284,note_off,,,,,92,0,2,,,,,1,,,71,0
12284,note_off,,,,,188,0,3,,,,,2,,,79,0
12284,note_off,,,,,188,0,5,,,,,4,,,71,0
12284,note_off,,,,,92,0,4,,,,,3,,,71,0
12284,note_off,,,,,188,0,1,,,,,0,,,79,0
12284,note_off,,,,,188,0,6,,,,,5,,,52,0
12288,note_on,,,,,4,0,3,,,,,2,,,79,127
12288,note_on,,,,,4,0,4,,,,,3,,,76,127
12288,note_on,,,,,4,0,2,,,,,1,,,76,92
12288,note_on,,,,,4,0,6,,,,,5,,,52,92
12288,note_on,,,,,4,0,1,,,,,0,,,79,92
12288,note_on,,,,,4,0,5,,,,,4,,,71,92
12288,note_on,,,,,4,0,7,,,,,6,,,40,75
12380,note_off,,,,,92,0,2,,,,,1,,,76,0
12380,note_off,,,,,92,0,4,,,,,3,,,76,0
12384,note_on,,,,,4,0,4,,,,,3,,,74,127
12384,note_on,,,,,4,0,2,,,,,1,,,74,92
12476,note_off,,,,,188,0,3,,,,,2,,,79,0
12476,note_off,,,,,188,0,6,,,,,5,,,52,0
12476,note_off,,,,,92,0,2,,,,,1,,,74,0
12476,note_off,,,,,188,0,7,,,,,6,,,40,0
12476,note_off,,,,,92,0,4,,,,,3,,,74,0
12476,note_off,,,,,188,0,1,,,,,0,,,79,0
12476,note_off,,,,,188,0,5,,,,,4,,,71,0
12480,note_on,,,,,4,0,7,,,,,6,,,40,75
12480,note_on,,,,,4,0,2,,,,,1,,,73,92
12480,note_on,,,,,4,0,3,,,,,2,,,79,127
12480,note_on,,,,,4,0,6,,,,,5,,,52,92
12480,note_on,,,,,4,0,1,,,,,0,,,79,92
12480,note_on,,,,,4,0,4,,,,,3,,,73,127
12480,note_on,,,,,4,0,5,,,,,4,,,71,92
12572,note_off,,,,,92,0,4,,,,,3,,,73,0
12572,note_off,,,,,92,0,2,,,,,1,,,73,0
12576,note_on,,,,,4,0,4,,,,,3,,,71,127
12576,note_on,,,,,4,0,2,,,,,1,,,71,92
12668,note_off,,,,,188,0,6,,,,,5,,,52,0
12668,note_off,,,,,92,0,2,,,,,1,,,71,0
12668,note_off,,,,,188,0,1,,,,,0,,,79,0
12668,note_off,,,,,188,0,3,,,,,2,,,79,0
12668,note_off,,,,,188,0,7,,,,,6,,,40,0
12668,note_off,,,,,188,0,5,,,,,4,,,71,0
12668,note_off,,,,,92,0,4,,,,,3,,,71,0
12672,note_on,,,,,4,0,6,,,,,5,,,57,92
12672,note_on,,,,,4,0,4,,,,,3,,,73,127
12672,note_on,,,,,4,0,7,,,,,6,,,45,75
12672,note_on,,,,,4,0,5,,,,,4,,,69,92
12672,note_on,,,,,964,0,8,,,,,7,,,45,60
12672,note_on,,,,,4,0,3,,,,,2,,,79,127
12672,note_on,,,,,0,0,8,,,,,7,,,48,60
12672,note_on,,,,,4,0,2,,,,,1,,,73,92
12672,note_on,,,,,4,0,1,,,,,0,,,79,92
12764,note_off,,,,,92,0,3,,,,,2,,,79,0
12764,note_off,,,,,92,0,8,,,,,7,,,45,0
12764,note_off,,,,,0,0,8,,,,,7,,,48,0
12764,note_off,,,,,92,0,1,,,,,0,,,79,0
12768,note_on,,,,,4,0,8,,,,,7,,,55,60
12768,note_on,,,,,4,0,1,,,,,0,,,76,92
12768,note_on,,,,,4,0,3,,,,,2,,,76,127
12860,note_off,,,,,92,0,1,,,,,0,,,76,0
12860,note_off,,,,,188,0,5,,,,,4,,,69,0
12860,note_off,,,,,188,0,6,,,,,5,,,57,0
12860,note_off,,,,,188,0,2,,,,,1,,,73,0
12860,note_off,,,,,188,0,7,,,,,6,,,45,0
12860,note_off,,,,,92,0,3,,,,,2,,,76,0
12860,note_off,,,,,92,0,8,,,,,7,,,55,0
12860,note_off,,,,,188,0,4,,,,,3,,,73,0
12864,note_on,,,,,4,0,1,,,,,0,,,81,92
12864,note_on,,,,,4,0,2,,,,,1,,,73,92
12864,note_on,,,,,4,0,6,,,,,5,,,57,92
12864,note_on,,,,,4,0,4,,,,,3,,,73,127
12864,note_on,,,,,4,0,5,,,,,4,,,64,92
12864,note_on,,,,,4,0,7,,,,,6,,,45,75
12864,note_on,,,,,4,0,3,,,,,2,,,81,127
12956,note_off,,,,,92,0,1,,,,,0,,,81,0
12956,note_off,,,,,92,0,3,,,,,2,,,81,0
12960,note_on,,,,,4,0,3,,,,,2,,,79,127
12960,note_on,,,,,4,0,1,,,,,0,,,79,92
13052,note_off,,,,,92,0,1,,,,,0,,,79,0
13052,note_off,,,,,188,0,4,,,,,3,,,73,0
13052,note_off,,,,,188,0,6,,,,,5,,,57,0
13052,note_off,,,,,92,0,3,,,,,2,,,79,0
13052,note_off,,,,,188,0,5,,,,,4,,,64,0
13052,note_off,,,,,188,0,2,,,,,1,,,73,0
13052,note_off,,,,,188,0,7,,,,,6,,,45,0
13056,note_on,,,,,4,0,4,,,,,3,,,73,127
13056,note_on,,,,,4,0,7,,,,,6,,,45,75
13056,note_on,,,,,4,0,6,,,,,5,,,57,92
13056,note_on,,,,,4,0,3,,,,,2,,,78,127
13056,note_on,,,,,4,0,1,,,,,0,,,78,92
13056,note_on,,,,,4,0,2,,,,,1,,,73,92
13056,note_on,,,,,4,0,5,,,,,4,,,69,92
13148,note_off,,,,,92,0,1,,,,,0,,,78,0
13148,note_off,,,,,92,0,3,,,,,2,,,78,0
13152,note_on,,,,,4,0,1,,,,,0,,,76,92
13152,note_on,,,,,4,0,3,,,,,2,,,76,127
13244,note_off,,,,,188,0,6,,,,,5,,,57,0
13244,note_off,,,,,188,0,5,,,,,4,,,69,0
13244,note_off,,,,,188,0,7,,,,,6,,,45,0
13244,note_off,,,,,92,0,1,,,,,0,,,76,0
13244,note_off,,,,,188,0,2,,,,,1,,,73,0
13244,note_off,,,,,92,0,3,,,,,2,,,76,0
13244,note_off,,,,,188,0,4,,,,,3,,,73,0
13248,note_on,,,,,4,0,7,,,,,6,,,38,75
13248,note_on,,,,,4,0,3,,,,,2,,,78,127
13248,note_on,,,,,4,0,5,,,,,4,,,69,92
13248,note_on,,,,,4,0,1,,,,,0,,,78,92
13248,note_on,,,,,4,0,6,,,,,5,,,50,92
13344,note_on,,,,,100,0,2,,,,,1,,,69,92
13344,note_on,,,,,100,0,4,,,,,3,,,69,127
13436,note_off,,,,,188,0,7,,,,,6,,,38,0
13436,note_off,,,,,92,0,4,,,,,3,,,69,0
13436,note_off,,,,,188,0,5,,,,,4,,,69,0
13436,note_off,,,,,188,0,3,,,,,2,,,78,0
13436,note_off,,,,,188,0,1,,,,,0,,,78,0
13436,note_off,,,,,92,0,2,,,,,1,,,69,0
13436,note_off,,,,,188,0,6,,,,,5,,,50,0
13440,note_on,,,,,4,0,5,,,,,4,,,69,92
13440,note_on,,,,,4,0,2,,,,,1,,,74,92
13440,note_on,,,,,4,0,6,,,,,5,,,50,92
13440,note_on,,,,,4,0,4,,,,,3,,,74,127
13440,note_on,,,,,4,0,1,,,,,0,,,78,92
13440,note_on,,,,,4,0,3,,,,,2,,,78,127
13440,note_on,,,,,4,0,7,,,,,6,,,38,75
13532,note_off,,,,,92,0,2,,,,,1,,,74,0
13532,note_off,,,,,92,0,4,,,,,3,,,74,0
13536,note_on,,,,,4,0,4,,,,,3,,,73,127
13536,note_on,,,,,4,0,2,,,,,1,,,73,92
13628,note_off,,,,,92,0,2,,,,,1,,,73,0
13628,note_off,,,,,188,0,5,,,,,4,,,69,0
13628,note_off,,,,,188,0,7,,,,,6,,,38,0
13628,note_off,,,,,188,0,6,,,,,5,,,50,0
13628,note_off,,,,,188,0,1,,,,,0,,,78,0
13628,note_off,,,,,188,0,3,,,,,2,,,78,0
13628,note_off,,,,,92,0,4,,,,,3,,,73,0
13632,note_on,,,,,4,0,5,,,,,4,,,71,92
13632,note_on,,,,,4,0,7,,,,,6,,,38,75
13632,note_on,,,,,4,0,6,,,,,5,,,50,92
13632,note_on,,,,,4,0,2,,,,,1,,,71,92
13632,note_on,,,,,4,0,1,,,,,0,,,78,92
13632,note_on,,,,,4,0,3,,,,,2,,,78,127
13632,note_on,,,,,4,0,4,,,,,3,,,71,127
13724,note_off,,,,,92,0,2,,,,,1,,,71,0
13724,note_off,,,,,92,0,4,,,,,3,,,71,0
13728,note_on,,,,,4,0,4,,,,,3,,,69,127
13728,note_on,,,,,4,0,2,,,,,1,,,69,92
13820,note_off,,,,,188,0,3,,,,,2,,,78,0
13820,note_off,,,,,92,0,4,,,,,3,,,69,0
13820,note_off,,,,,188,0,7,,,,,6,,,38,0
13820,note_off,,,,,92,0,2,,,,,1,,,69,0
13820,note_off,,,,,188,0,6,,,,,5,,,50,0
13820,note_off,,,,,188,0,5,,,,,4,,,71,0
13820,note_off,,,,,188,0,1,,,,,0,,,78,0
13824,note_on,,,,,4,0,3,,,,,2,,,62,127
13824,note_on,,,,,4,0,7,,,,,6,,,35,75
13824,note_on,,,,,964,0,8,,,,,7,,,47,60
13824,note_on,,,,,4,0,6,,,,,5,,,47,92
13824,note_on,,,,,0,0,8,,,,,7,,,50,60
13824,note_on,,,,,4,0,1,,,,,0,,,62,92
13824,note_on,,,,,4,0,5,,,,,4,,,59,92
13824,note_on,,,,,4,0,2,,,,,1,,,68,92
13824,note_on,,,,,4,0,4,,,,,3,,,68,127
13916,note_off,,,,,92,0,4,,,,,3,,,68,0
13916,note_off,,,,,92,0,8,,,,,7,,,47,0
13916,note_off,,,,,0,0,8,,,,,7,,,50,0
13916,note_off,,,,,92,0,2,,,,,1,,,68,0
13920,note_on,,,,,4,0,2,,,,,1,,,69,92
13920,note_on,,,,,4,0,4,,,,,3,,,69,127
13920,note_on,,,,,4,0,8,,,,,7,,,56,60
14012,note_off,,,,,188,0,3,,,,,2,,,62,0
14012,note_off,,,,,188,0,5,,,,,4,,,59,0
14012,note_off,,,,,188,0,7,,,,,6,,,35,0
14012,note_off,,,,,188,0,1,,,,,0,,,62,0
14012,note_off,,,,,92,0,8,,,,,7,,,56,0
14012,note_off,,,,,188,0,6,,,,,5,,,47,0
14012,note_off,,,,,92,0,2,,,,,1,,,69,0
14012,note_off,,,,,92,0,4,,,,,3,,,69,0
14016,note_on,,,,,4,0,1,,,,,0,,,62,92
14016,note_on,,,,,4,0,5,,,,,4,,,68,92
14016,note_on,,,,,4,0,2,,,,,1,,,71,92
14016,note_on,,,,,4,0,3,,,,,2,,,62,127
14016,note_on,,,,,4,0,7,,,,,6,,,35,75
14016,note_on,,,,,4,0,4,,,,,3,,,71,127
14016,note_on,,,,,4,0,6,,,,,5,,,47,92
14204,note_off,,,,,188,0,7,,,,,6,,,35,0
14204,note_off,,,,,188,0,1,,,,,0,,,62,0
14204,note_off,,,,,188,0,3,,,,,2,,,62,0
14204,note_off,,,,,188,0,5,,,,,4,,,68,0
14204,note_off,,,,,188,0,6,,,,,5,,,47,0
14208,note_on,,,,,4,0,3,,,,,2,,,62,127
14208,note_on,,,,,4,0,7,,,,,6,,,35,75
14208,note_on,,,,,4,0,1,,,,,0,,,62,92
14208,note_on,,,,,4,0,5,,,,,4,,,68,92
14208,note_on,,,,,4,0,6,,,,,5,,,47,92
14336,note_off,,,,,320,0,2,,,,,1,,,71,0
14336,note_off,,,,,320,0,4,,,,,3,,,71,0
14396,note_off,,,,,188,0,7,,,,,6,,,35,0
14396,note_off,,,,,188,0,5,,,,,4,,,68,0
14396,note_off,,,,,188,0,6,,,,,5,,,47,0
14396,note_off,,,,,188,0,3,,,,,2,,,62,0
14396,note_off,,,,,188,0,1,,,,,0,,,62,0
14400,note_on,,,,,64,0,2,,,,,1,,,71,92
14400,note_on,,,,,4,0,1,,,,,0,,,80,92
14400,note_on,,,,,4,0,6,,,,,5,,,47,92
14400,note_on,,,,,64,0,4,,,,,3,,,71,127
14400,note_on,,,,,4,0,5,,,,,4,,,74,92
14400,note_on,,,,,4,0,7,,,,,6,,,35,75
14400,note_on,,,,,4,0,3,,,,,2,,,80,127
14492,note_off,,,,,92,0,2,,,,,1,,,71,0
14492,note_off,,,,,92,0,4,,,,,3,,,71,0
14492,note_off,,,,,92,0,1,,,,,0,,,80,0
14492,note_off,,,,,92,0,3,,,,,2,,,80,0
14496,note_on,,,,,4,0,3,,,,,2,,,81,127
14496,note_on,,,,,4,0,1,,,,,0,,,81,92
14496,note_on,,,,,4,0,4,,,,,3,,,73,127
14496,note_on,,,,,4,0,2,,,,,1,,,73,92
14588,note_off,,,,,188,0,7,,,,,6,,,35,0
14588,note_off,,,,,188,0,5,,,,,4,,,74,0
14588,note_off,,,,,188,0,6,,,,,5,,,47,0
14588,note_off,,,,,92,0,4,,,,,3,,,73,0
14588,note_off,,,,,92,0,1,,,,,0,,,81,0
14588,note_off,,,,,92,0,3,,,,,2,,,81,0
14588,note_off,,,,,92,0,2,,,,,1,,,73,0
14592,note_on,,,,,4,0,3,,,,,2,,,83,127
14592,note_on,,,,,4,0,4,,,,,3,,,74,127
14592,note_on,,,,,4,0,2,,,,,1,,,74,92
14592,note_on,,,,,4,0,6,,,,,5,,,47,92
14592,note_on,,,,,4,0,1,,,,,0,,,83,92
14592,note_on,,,,,4,0,5,,,,,4,,,68,92
14592,note_on,,,,,4,0,7,,,,,6,,,35,75
14780,note_off,,,,,188,0,6,,,,,5,,,47,0
14780,note_off,,,,,188,0,5,,,,,4,,,68,0
14780,note_off,,,,,188,0,7,,,,,6,,,35,0
14784,note_on,,,,,4,0,7,,,,,6,,,35,75
14784,note_on,,,,,4,0,5,,,,,4,,,68,92
14784,note_on,,,,,4,0,6,,,,,5,,,47,92
14912,note_off,,,,,320,0,1,,,,,0,,,83,0
14912,note_off,,,,,320,0,2,,,,,1,,,74,0
14912,note_off,,,,,320,0,4,,,,,3,,,74,0
14912,note_off,,,,,320,0,3,,,,,2,,,83,0
14972,note_off,,,,,188,0,5,,,,,4,,,68,0
14972,note_off,,,,,188,0,7,,,,,6,,,35,0
14972,note_off,,,,,188,0,6,,,,,5,,,47,0
14976,note_on,,,,,4,0,5,,,,,4,,,68,92
14976,note_on,,,,,64,0,1,,,,,0,,,74,92
14976,note_on,,,,,64,0,4,,,,,3,,,71,127
14976,note_on,,,,,64,0,2,,,,,1,,,71,92
14976,note_on,,,,,4,0,6,,,,,5,,,56,92
14976,note_on,,,,,0,0,8,,,,,7,,,50,60
14976,note_on,,,,,964,0,8,,,,,7,,,44,60
14976,note_on,,,,,4,0,7,,,,,6,,,44,75
14976,note_on,,,,,64,0,3,,,,,2,,,74,127
15068,note_off,,,,,92,0,2,,,,,1,,,71,0
15068,note_off,,,,,0,0,8,,,,,7,,,50,0
15068,note_off,,,,,92,0,8,,,,,7,,,44,0
15068,note_off,,,,,92,0,4,,,,,3,,,71,0
15068,note_off,,,,,92,0,3,,,,,2,,,74,0
15068,note_off,,,,,92,0,1,,,,,0,,,74,0
15072,note_on,,,,,4,0,2,,,,,1,,,73,92
15072,note_on,,,,,4,0,4,,,,,3,,,73,127
15072,note_on,,,,,4,0,3,,,,,2,,,76,127
15072,note_on,,,,,4,0,1,,,,,0,,,76,92
15072,note_on,,,,,4,0,8,,,,,7,,,52,60
15092,note_off,,,,,20,0,1,,,,,0,,,76,0
15092,note_off,,,,,20,0,4,,,,,3,,,73,0
15092,note_off,,,,,20,0,2,,,,,1,,,73,0
15092,note_off,,,,,20,0,3,,,,,2,,,76,0
15096,note_on,,,,,4,0,1,,,,,0,,,78,92
15096,note_on,,,,,4,0,2,,,,,1,,,74,92
15096,note_on,,,,,4,0,3,,,,,2,,,78,127
15096,note_on,,,,,4,0,4,,,,,3,,,74,127
15164,note_off,,,,,68,0,1,,,,,0,,,78,0
15164,note_off,,,,,92,0,8,,,,,7,,,52,0
15164,note_off,,,,,188,0,5,,,,,4,,,68,0
15164,note_off,,,,,188,0,7,,,,,6,,,44,0
15164,note_off,,,,,68,0,2,,,,,1,,,74,0
15164,note_off,,,,,68,0,3,,,,,2,,,78,0
15164,note_off,,,,,68,0,4,,,,,3,,,74,0
15164,note_off,,,,,188,0,6,,,,,5,,,56,0
15168,note_on,,,,,4,0,2,,,,,1,,,73,92
15168,note_on,,,,,4,0,1,,,,,0,,,76,92
15168,note_on,,,,,4,0,5,,,,,4,,,68,92
15168,note_on,,,,,4,0,7,,,,,6,,,44,75
15168,note_on,,,,,4,0,3,,,,,2,,,76,127
15168,note_on,,,,,4,0,4,,,,,3,,,73,127
15168,note_on,,,,,4,0,6,,,,,5,,,56,92
15356,note_off,,,,,188,0,7,,,,,6,,,44,0
15356,note_off,,,,,188,0,5,,,,,4,,,68,0
15356,note_off,,,,,188,0,4,,,,,3,,,73,0
15356,note_off,,,,,188,0,1,,,,,0,,,76,0
15356,note_off,,,,,188,0,2,,,,,1,,,73,0
15356,note_off,,,,,188,0,3,,,,,2,,,76,0
15356,note_off,,,,,188,0,6,,,,,5,,,56,0
15360,note_on,,,,,4,0,2,,,,,1,,,71,92
15360,note_on,,,,,4,0,6,,,,,5,,,56,92
15360,note_on,,,,,4,0,1,,,,,0,,,74,92
15360,note_on,,,,,4,0,4,,,,,3,,,71,127
15360,note_on,,,,,4,0,7,,,,,6,,,44,75
15360,note_on,,,,,0,0,8,,,,,7,,,49,60
15360,note_on,,,,,196,0,8,,,,,7,,,46,60
15360,note_on,,,,,4,0,5,,,,,4,,,68,92
15360,note_on,,,,,4,0,3,,,,,2,,,74,127
15452,note_off,,,,,92,0,8,,,,,7,,,46,0
15452,note_off,,,,,0,0,8,,,,,7,,,49,0
15456,note_on,,,,,4,0,8,,,,,7,,,54,60
15548,note_off,,,,,92,0,8,,,,,7,,,54,0
15548,note_off,,,,,188,0,5,,,,,4,,,68,0
15548,note_off,,,,,188,0,2,,,,,1,,,71,0
15548,note_off,,,,,188,0,7,,,,,6,,,44,0
15548,note_off,,,,,188,0,4,,,,,3,,,71,0
15548,note_off,,,,,188,0,6,,,,,5,,,56,0
15548,note_off,,,,,188,0,3,,,,,2,,,74,0
15548,note_off,,,,,188,0,1,,,,,0,,,74,0
15552,note_on,,,,,4,0,5,,,,,4,,,64,92
15552,note_on,,,,,4,0,3,,,,,2,,,73,127
15552,note_on,,,,,4,0,2,,,,,1,,,69,92
15552,note_on,,,,,4,0,1,,,,,0,,,73,92
15552,note_on,,,,,4,0,4,,,,,3,,,69,127
15552,note_on,,,,,4,0,6,,,,,5,,,57,92
15552,note_on,,,,,4,0,7,,,,,6,,,45,75
15644,note_off,,,,,92,0,4,,,,,3,,,69,0
15644,note_off,,,,,92,0,3,,,,,2,,,73,0
15644,note_off,,,,,92,0,1,,,,,0,,,73,0
15644,note_off,,,,,92,0,2,,,,,1,,,69,0
15648,note_on,,,,,4,0,4,,,,,3,,,71,127
15648,note_on,,,,,4,0,1,,,,,0,,,74,92
15648,note_on,,,,,4,0,3,,,,,2,,,74,127
15648,note_on,,,,,4,0,2,,,,,1,,,71,92
15740,note_off,,,,,188,0,5,,,,,4,,,64,0
15740,note_off,,,,,92,0,1,,,,,0,,,74,0
15740,note_off,,,,,188,0,6,,,,,5,,,57,0
15740,note_off,,,,,188,0,7,,,,,6,,,45,0
15740,note_off,,,,,92,0,2,,,,,1,,,71,0
15740,note_off,,,,,92,0,4,,,,,3,,,71,0
15740,note_off,,,,,92,0,3,,,,,2,,,74,0
15744,note_on,,,,,4,0,2,,,,,1,,,73,92
15744,note_on,,,,,4,0,1,,,,,0,,,76,92
15744,note_on,,,,,4,0,4,,,,,3,,,73,127
15744,note_on,,,,,4,0,7,,,,,6,,,45,75
15744,note_on,,,,,4,0,6,,,,,5,,,57,92
15744,note_on,,,,,4,0,3,,,,,2,,,76,127
15744,note_on,,,,,4,0,5,,,,,4,,,64,92
15932,note_off,,,,,188,0,5,,,,,4,,,64,0
15932,note_off,,,,,188,0,7,,,,,6,,,45,0
15932,note_off,,,,,188,0,6,,,,,5,,,57,0
15936,note_on,,,,,4,0,5,,,,,4,,,64,92
15936,note_on,,,,,4,0,6,,,,,5,,,57,92
15936,note_on,,,,,4,0,7,,,,,6,,,45,75
16064,note_off,,,,,320,0,3,,,,,2,,,76,0
16064,note_off,,,,,320,0,1,,,,,0,,,76,0
16064,note_off,,,,,320,0,2,,,,,1,,,73,0
16064,note_off,,,,,320,0,4,,,,,3,,,73,0
16124,note_off,,,,,188,0,6,,,,,5,,,57,0
16124,note_off,,,,,188,0,7,,,,,6,,,45,0
16124,note_off,,,,,188,0,5,,,,,4,,,64,0
16128,note_on,,,,,64,0,3,,,,,2,,,79,127
16128,note_on,,,,,64,0,4,,,,,3,,,76,127
16128,note_on,,,,,4,0,7,,,,,6,,,37,75
16128,note_on,,,,,64,0,1,,,,,0,,,79,92
16128,note_on,,,,,580,0,8,,,,,7,,,49,60
16128,note_on,,,,,0,0,8,,,,,7,,,55,60
16128,note_on,,,,,4,0,6,,,,,5,,,49,92
16128,note_on,,,,,64,0,2,,,,,1,,,76,92
16128,note_on,,,,,4,0,5,,,,,4,,,69,92
16220,note_off,,,,,92,0,3,,,,,2,,,79,0
16220,note_off,,,,,92,0,1,,,,,0,,,79,0
16220,note_off,,,,,0,0,8,,,,,7,,,55,0
16220,note_off,,,,,92,0,8,,,,,7,,,49,0
16220,note_off,,,,,92,0,4,,,,,3,,,76,0
16220,note_off,,,,,92,0,2,,,,,1,,,76,0
16224,note_on,,,,,4,0,2,,,,,1,,,78,92
16224,note_on,,,,,4,0,3,,,,,2,,,81,127
16224,note_on,,,,,4,0,8,,,,,7,,,57,60
16224,note_on,,,,,4,0,1,,,,,0,,,81,92
16224,note_on,,,,,4,0,4,,,,,3,,,78,127
16244,note_off,,,,,20,0,1,,,,,0,,,81,0
16244,note_off,,,,,20,0,3,,,,,2,,,81,0
16244,note_off,,,,,20,0,2,,,,,1,,,78,0
16244,note_off,,,,,20,0,4,,,,,3,,,78,0
16248,note_on,,,,,4,0,2,,,,,1,,,79,92
16248,note_on,,,,,4,0,4,,,,,3,,,79,127
16248,note_on,,,,,4,0,3,,,,,2,,,83,127
16248,note_on,,,,,4,0,1,,,,,0,,,83,92
16316,note_off,,,,,188,0,5,,,,,4,,,69,0
16316,note_off,,,,,188,0,6,,,,,5,,,49,0
16316,note_off,,,,,92,0,8,,,,,7,,,57,0
16316,note_off,,,,,68,0,2,,,,,1,,,79,0
16316,note_off,,,,,68,0,1,,,,,0,,,83,0
16316,note_off,,,,,188,0,7,,,,,6,,,37,0
16316,note_off,,,,,68,0,3,,,,,2,,,83,0
16316,note_off,,,,,68,0,4,,,,,3,,,79,0
16320,note_on,,,,,4,0,4,,,,,3,,,78,127
16320,note_on,,,,,4,0,1,,,,,0,,,81,92
16320,note_on,,,,,4,0,6,,,,,5,,,49,92
16320,note_on,,,,,4,0,3,,,,,2,,,81,127
16320,note_on,,,,,4,0,2,,,,,1,,,78,92
16320,note_on,,,,,4,0,5,,,,,4,,,69,92
16320,note_on,,,,,4,0,7,,,,,6,,,37,75
16508,note_off,,,,,188,0,6,,,,,5,,,49,0
16508,note_off,,,,,188,0,5,,,,,4,,,69,0
16508,note_off,,,,,188,0,2,,,,,1,,,78,0
16508,note_off,,,,,188,0,1,,,,,0,,,81,0
16508,note_off,,,,,188,0,3,,,,,2,,,81,0
16508,note_off,,,,,188,0,4,,,,,3,,,78,0
16508,note_off,,,,,188,0,7,,,,,6,,,37,0
16512,note_on,,,,,4,0,7,,,,,6,,,37,75
16512,note_on,,,,,4,0,5,,,,,4,,,69,92
16512,note_on,,,,,4,0,2,,,,,1,,,76,92
16512,note_on,,,,,4,0,6,,,,,5,,,49,92
16512,note_on,,,,,4,0,3,,,,,2,,,79,127
16512,note_on,,,,,4,0,4,,,,,3,,,76,127
16512,note_on,,,,,4,0,1,,,,,0,,,79,92
16700,note_off,,,,,188,0,5,,,,,4,,,69,0
16700,note_off,,,,,188,0,1,,,,,0,,,79,0
16700,note_off,,,,,188,0,3,,,,,2,,,79,0
16700,note_off,,,,,188,0,6,,,,,5,,,49,0
16700,note_off,,,,,188,0,2,,,,,1,,,76,0
16700,note_off,,,,,188,0,7,,,,,6,,,37,0
16700,note_off,,,,,188,0,4,,,,,3,,,76,0
16704,note_on,,,,,4,0,7,,,,,6,,,38,75
16704,note_on,,,,,4,0,1,,,,,0,,,78,92
16704,note_on,,,,,4,0,5,,,,,4,,,62,92
16704,note_on,,,,,4,0,4,,,,,3,,,69,127
16704,note_on,,,,,4,0,3,,,,,2,,,78,127
16704,note_on,,,,,4,0,2,,,,,1,,,69,92
16704,note_on,,,,,4,0,6,,,,,5,,,50,92
16796,note_off,,,,,92,0,4,,,,,3,,,69,0
16796,note_off,,,,,92,0,1,,,,,0,,,78,0
16796,note_off,,,,,92,0,2,,,,,1,,,69,0
16796,note_off,,,,,92,0,3,,,,,2,,,78,0
16800,note_on,,,,,4,0,1,,,,,0,,,74,92
16800,note_on,,,,,4,0,3,,,,,2,,,74,127
16800,note_on,,,,,4,0,4,,,,,3,,,66,127
16800,note_on,,,,,4,0,2,,,,,1,,,66,92
16892,note_off,,,,,188,0,7,,,,,6,,,38,0
16892,note_off,,,,,92,0,2,,,,,1,,,66,0
16892,note_off,,,,,188,0,5,,,,,4,,,62,0
16892,note_off,,,,,92,0,4,,,,,3,,,66,0
16892,note_off,,,,,92,0,1,,,,,0,,,74,0
16892,note_off,,,,,188,0,6,,,,,5,,,50,0
16892,note_off,,,,,92,0,3,,,,,2,,,74,0
16896,note_on,,,,,4,0,3,,,,,2,,,76,127
16896,note_on,,,,,4,0,4,,,,,3,,,67,127
16896,note_on,,,,,4,0,7,,,,,6,,,38,75
16896,note_on,,,,,4,0,1,,,,,0,,,76,92
16896,note_on,,,,,4,0,5,,,,,4,,,69,92
16896,note_on,,,,,4,0,6,,,,,5,,,50,92
16896,note_on,,,,,4,0,2,,,,,1,,,67,92
16988,note_off,,,,,92,0,3,,,,,2,,,76,0
16988,note_off,,,,,92,0,2,,,,,1,,,67,0
16988,note_off,,,,,92,0,4,,,,,3,,,67,0
16988,note_off,,,,,92,0,1,,,,,0,,,76,0
16992,note_on,,,,,4,0,2,,,,,1,,,64,92
16992,note_on,,,,,4,0,3,,,,,2,,,73,127
16992,note_on,,,,,4,0,4,,,,,3,,,64,127
16992,note_on,,,,,4,0,1,,,,,0,,,73,92
17084,note_off,,,,,188,0,7,,,,,6,,,38,0
17084,note_off,,,,,92,0,3,,,,,2,,,73,0
17084,note_off,,,,,92,0,4,,,,,3,,,64,0
17084,note_off,,,,,92,0,1,,,,,0,,,73,0
17084,note_off,,,,,188,0,5,,,,,4,,,69,0
17084,note_off,,,,,92,0,2,,,,,1,,,64,0
17084,note_off,,,,,188,0,6,,,,,5,,,50,0
17088,note_on,,,,,4,0,3,,,,,2,,,74,127
17088,note_on,,,,,4,0,6,,,,,5,,,50,92
17088,note_on,,,,,4,0,1,,,,,0,,,74,92
17088,note_on,,,,,4,0,2,,,,,1,,,66,92
17088,note_on,,,,,4,0,5,,,,,4,,,69,92
17088,note_on,,,,,4,0,4,,,,,3,,,66,127
17088,note_on,,,,,4,0,7,,,,,6,,,38,75
17180,note_off,,,,,92,0,3,,,,,2,,,74,0
17180,note_off,,,,,92,0,2,,,,,1,,,66,0
17180,note_off,,,,,92,0,4,,,,,3,,,66,0
17180,note_off,,,,,92,0,1,,,,,0,,,74,0
17184,note_on,,,,,4,0,1,,,,,0,,,78,92
17184,note_on,,,,,4,0,2,,,,,1,,,69,92
17184,note_on,,,,,4,0,3,,,,,2,,,78,127
17184,note_on,,,,,4,0,4,,,,,3,,,69,127
17276,note_off,,,,,188,0,6,,,,,5,,,50,0
17276,note_off,,,,,92,0,3,,,,,2,,,78,0
17276,note_off,,,,,92,0,2,,,,,1,,,69,0
17276,note_off,,,,,188,0,5,,,,,4,,,69,0
17276,note_off,,,,,92,0,1,,,,,0,,,78,0
17276,note_off,,,,,92,0,4,,,,,3,,,69,0
17276,note_off,,,,,188,0,7,,,,,6,,,38,0
17280,note_on,,,,,4,0,2,,,,,1,,,71,92
17280,note_on,,,,,4,0,5,,,,,4,,,76,92
17280,note_on,,,,,4,0,6,,,,,5,,,55,92
17280,note_on,,,,,4,0,4,,,,,3,,,71,127
17280,note_on,,,,,4,0,7,,,,,6,,,43,75
17280,note_on,,,,,0,0,8,,,,,7,,,47,60
17280,note_on,,,,,964,0,8,,,,,7,,,43,60
17280,note_on,,,,,4,0,3,,,,,2,,,79,127
17280,note_on,,,,,4,0,1,,,,,0,,,79,92
17372,note_off,,,,,92,0,4,,,,,3,,,71,0
17372,note_off,,,,,92,0,3,,,,,2,,,79,0
17372,note_off,,,,,92,0,2,,,,,1,,,71,0
17372,note_off,,,,,92,0,1,,,,,0,,,79,0
17372,note_off,,,,,92,0,8,,,,,7,,,43,0
17372,note_off,,,,,0,0,8,,,,,7,,,47,0
17376,note_on,,,,,4,0,1,,,,,0,,,76,92
17376,note_on,,,,,4,0,3,,,,,2,,,76,127
17376,note_on,,,,,4,0,2,,,,,1,,,67,92
17376,note_on,,,,,4,0,4,,,,,3,,,67,127
17376,note_on,,,,,4,0,8,,,,,7,,,52,60
17468,note_off,,,,,188,0,7,,,,,6,,,43,0
17468,note_off,,,,,92,0,8,,,,,7,,,52,0
17468,note_off,,,,,92,0,4,,,,,3,,,67,0
17468,note_off,,,,,92,0,1,,,,,0,,,76,0
17468,note_off,,,,,92,0,2,,,,,1,,,67,0
17468,note_off,,,,,92,0,3,,,,,2,,,76,0
17468,note_off,,,,,188,0,6,,,,,5,,,55,0
17468,note_off,,,,,188,0,5,,,,,4,,,76,0
17472,note_on,,,,,4,0,4,,,,,3,,,64,127
17472,note_on,,,,,4,0,1,,,,,0,,,74,92
17472,note_on,,,,,4,0,7,,,,,6,,,45,75
17472,note_on,,,,,4,0,3,,,,,2,,,74,127
17472,note_on,,,,,0,0,8,,,,,7,,,49,60
17472,note_on,,,,,4,0,8,,,,,7,,,46,60
17472,note_on,,,,,4,0,5,,,,,4,,,69,92
17472,note_on,,,,,4,0,2,,,,,1,,,64,92
17472,note_on,,,,,4,0,6,,,,,5,,,57,92
17520,note_on,,,,,0,0,1,,,,,0,,,73,92
17520,note_off,,,,,48,0,1,,,,,0,,,74,0
17520,note_off,,,,,48,0,3,,,,,2,,,74,0
17520,note_on,,,,,0,0,3,,,,,2,,,73,127
17564,note_off,,,,,0,0,8,,,,,7,,,49,0
17564,note_off,,,,,92,0,8,,,,,7,,,46,0
17568,note_off,,,,,48,0,3,,,,,2,,,73,0
17568,note_on,,,,,0,0,3,,,,,2,,,74,127
17568,note_on,,,,,0,0,1,,,,,0,,,74,92
17568,note_off,,,,,48,0,1,,,,,0,,,73,0
17568,note_on,,,,,4,0,8,,,,,7,,,54,60
17616,note_off,,,,,48,0,3,,,,,2,,,74,0
17616,note_on,,,,,0,0,3,,,,,2,,,73,127
17616,note_off,,,,,48,0,1,,,,,0,,,74,0
17616,note_on,,,,,0,0,1,,,,,0,,,73,92
17660,note_off,,,,,188,0,5,,,,,4,,,69,0
17660,note_off,,,,,188,0,7,,,,,6,,,45,0
17660,note_off,,,,,92,0,8,,,,,7,,,54,0
17660,note_off,,,,,188,0,4,,,,,3,,,64,0
17660,note_off,,,,,188,0,6,,,,,5,,,57,0
17660,note_off,,,,,188,0,2,,,,,1,,,64,0
17664,note_on,,,,,0,0,1,,,,,0,,,74,92
17664,note_on,,,,,4,0,6,,,,,5,,,45,92
17664,note_off,,,,,48,0,3,,,,,2,,,73,0
17664,note_off,,,,,48,0,1,,,,,0,,,73,0
17664,note_on,,,,,4,0,2,,,,,1,,,69,92
17664,note_on,,,,,4,0,7,,,,,6,,,33,75
17664,note_on,,,,,0,0,3,,,,,2,,,74,127
17664,note_on,,,,,4,0,5,,,,,4,,,64,92
17664,note_on,,,,,4,0,4,,,,,3,,,69,127
17712,note_off,,,,,48,0,3,,,,,2,,,74,0
17712,note_off,,,,,48,0,1,,,,,0,,,74,0
17712,note_on,,,,,0,0,1,,,,,0,,,73,92
17712,note_on,,,,,0,0,3,,,,,2,,,73,127
17756,note_off,,,,,92,0,5,,,,,4,,,64,0
17760,note_on,,,,,4,0,5,,,,,4,,,57,92
17852,note_off,,,,,188,0,6,,,,,5,,,45,0
17852,note_off,,,,,140,0,1,,,,,0,,,73,0
17852,note_off,,,,,92,0,5,,,,,4,,,57,0
17852,note_off,,,,,188,0,4,,,,,3,,,69,0
17852,note_off,,,,,188,0,2,,,,,1,,,69,0
17852,note_off,,,,,140,0,3,,,,,2,,,73,0
17852,note_off,,,,,188,0,7,,,,,6,,,33,0
17856,note_on,,,,,4,0,7,,,,,6,,,38,75
17856,note_on,,,,,4,0,4,,,,,3,,,66,127
17856,note_on,,,,,4,0,1,,,,,0,,,74,92
17856,note_on,,,,,4,0,3,,,,,2,,,74,127
17856,note_on,,,,,4,0,5,,,,,4,,,69,92
17856,note_on,,,,,4,0,6,,,,,5,,,50,92
17856,note_on,,,,,4,0,2,,,,,1,,,66,92
18044,note_off,,,,,188,0,2,,,,,1,,,66,0
18044,note_off,,,,,188,0,7,,,,,6,,,38,0
18044,note_off,,,,,188,0,5,,,,,4,,,69,0
18044,note_off,,,,,188,0,6,,,,,5,,,50,0
18044,note_off,,,,,188,0,4,,,,,3,,,66,0
18048,note_on,,,,,4,0,7,,,,,6,,,38,75
18048,note_on,,,,,4,0,6,,,,,5,,,50,92
18048,note_on,,,,,4,0,5,,,,,4,,,66,92
18048,note_on,,,,,4,0,4,,,,,3,,,81,127
18048,note_on,,,,,4,0,2,,,,,1,,,81,92
18176,note_off,,,,,320,0,1,,,,,0,,,74,0
18176,note_off,,,,,320,0,3,,,,,2,,,74,0
18236,note_off,,,,,188,0,7,,,,,6,,,38,0
18236,note_off,,,,,188,0,6,,,,,5,,,50,0
18236,note_off,,,,,188,0,5,,,,,4,,,66,0
18240,note_on,,,,,4,0,5,,,,,4,,,67,92
18240,note_on,,,,,0,0,8,,,,,7,,,55,60
18240,note_on,,,,,4,0,7,,,,,6,,,40,75
18240,note_on,,,,,0,0,2,,,,,1,,,73,92
18240,note_off,,,,,192,0,2,,,,,1,,,81,0
18240,note_off,,,,,192,0,4,,,,,3,,,81,0
18240,note_on,,,,,0,0,4,,,,,3,,,73,127
18240,note_on,,,,,4,0,6,,,,,5,,,52,92
18240,note_on,,,,,580,0,8,,,,,7,,,52,60
18332,note_off,,,,,92,0,8,,,,,7,,,52,0
18332,note_off,,,,,0,0,8,,,,,7,,,55,0
18336,note_on,,,,,4,0,8,,,,,7,,,61,60
18428,note_off,,,,,188,0,7,,,,,6,,,40,0
18428,note_off,,,,,188,0,5,,,,,4,,,67,0
18428,note_off,,,,,188,0,4,,,,,3,,,73,0
18428,note_off,,,,,92,0,8,,,,,7,,,61,0
18428,note_off,,,,,188,0,6,,,,,5,,,52,0
18428,note_off,,,,,188,0,2,,,,,1,,,73,0
18432,note_on,,,,,4,0,5,,,,,4,,,69,92
18432,note_on,,,,,4,0,4,,,,,3,,,74,127
18432,note_on,,,,,4,0,7,,,,,6,,,42,75
18432,note_on,,,,,4,0,6,,,,,5,,,54,92
18432,note_on,,,,,0,0,8,,,,,7,,,45,60
18432,note_on,,,,,4,0,8,,,,,7,,,42,60
18432,note_on,,,,,4,0,2,,,,,1,,,74,92
18524,note_off,,,,,0,0,8,,,,,7,,,45,0
18524,note_off,,,,,92,0,8,,,,,7,,,42,0
18528,note_on,,,,,4,0,8,,,,,7,,,50,60
18620,note_off,,,,,92,0,8,,,,,7,,,50,0
18620,note_off,,,,,188,0,5,,,,,4,,,69,0
18624,note_on,,,,,448,0,1,,,,,0,,,81,92
18624,note_on,,,,,4,0,5,,,,,4,,,62,92
18624,note_on,,,,,448,0,3,,,,,2,,,81,127
18752,note_off,,,,,320,0,2,,,,,1,,,74,0
18752,note_off,,,,,320,0,7,,,,,6,,,42,0
18752,note_off,,,,,320,0,6,,,,,5,,,54,0
18752,note_off,,,,,320,0,4,,,,,3,,,74,0
18812,note_off,,,,,188,0,3,,,,,2,,,81,0
18812,note_off,,,,,188,0,1,,,,,0,,,81,0
18812,note_off,,,,,188,0,5,,,,,4,,,62,0
18816,note_on,,,,,64,0,6,,,,,5,,,52,92
18816,note_on,,,,,196,0,8,,,,,7,,,52,60
18816,note_on,,,,,0,0,8,,,,,7,,,55,60
18816,note_on,,,,,4,0,3,,,,,2,,,73,127
18816,note_on,,,,,64,0,7,,,,,6,,,40,75
18816,note_on,,,,,4,0,5,,,,,4,,,67,92
18816,note_on,,,,,4,0,1,,,,,0,,,73,92
18908,note_off,,,,,92,0,8,,,,,7,,,52,0
18908,note_off,,,,,0,0,8,,,,,7,,,55,0
18912,note_on,,,,,4,0,8,,,,,7,,,61,60
19004,note_off,,,,,188,0,7,,,,,6,,,40,0
19004,note_off,,,,,188,0,1,,,,,0,,,73,0
19004,note_off,,,,,188,0,5,,,,,4,,,67,0
19004,note_off,,,,,92,0,8,,,,,7,,,61,0
19004,note_off,,,,,188,0,3,,,,,2,,,73,0
19004,note_off,,,,,188,0,6,,,,,5,,,52,0
19008,note_on,,,,,4,0,3,,,,,2,,,74,127
19008,note_on,,,,,4,0,1,,,,,0,,,74,92
19008,note_on,,,,,4,0,5,,,,,4,,,66,92
19008,note_on,,,,,4,0,6,,,,,5,,,50,92
19008,note_on,,,,,4,0,7,,,,,6,,,38,75
19196,note_off,,,,,188,0,5,,,,,4,,,66,0
19200,note_on,,,,,4,0,5,,,,,4,,,67,92
19200,note_on,,,,,448,0,4,,,,,3,,,81,127
19200,note_on,,,,,448,0,2,,,,,1,,,81,92
19328,note_off,,,,,320,0,7,,,,,6,,,38,0
19328,note_off,,,,,320,0,1,,,,,0,,,74,0
19328,note_off,,,,,320,0,6,,,,,5,,,50,0
19328,note_off,,,,,320,0,3,,,,,2,,,74,0
19388,note_off,,,,,188,0,5,,,,,4,,,67,0
19388,note_off,,,,,188,0,2,,,,,1,,,81,0
19388,note_off,,,,,188,0,4,,,,,3,,,81,0
19392,note_on,,,,,64,0,7,,,,,6,,,40,75
19392,note_on,,,,,4,0,2,,,,,1,,,73,92
19392,note_on,,,,,0,0,8,,,,,7,,,55,60
19392,note_on,,,,,388,0,8,,,,,7,,,52,60
19392,note_on,,,,,64,0,6,,,,,5,,,52,92
19392,note_on,,,,,4,0,5,,,,,4,,,67,92
19392,note_on,,,,,4,0,4,,,,,3,,,73,127
19484,note_off,,,,,0,0,8,,,,,7,,,55,0
19484,note_off,,,,,92,0,8,,,,,7,,,52,0
19488,note_on,,,,,4,0,8,,,,,7,,,61,60
19580,note_off,,,,,188,0,2,,,,,1,,,73,0
19580,note_off,,,,,188,0,5,,,,,4,,,67,0
19580,note_off,,,,,188,0,4,,,,,3,,,73,0
19580,note_off,,,,,188,0,6,,,,,5,,,52,0
19580,note_off,,,,,92,0,8,,,,,7,,,61,0
19580,note_off,,,,,188,0,7,,,,,6,,,40,0
19584,note_on,,,,,4,0,2,,,,,1,,,74,92
19584,note_on,,,,,4,0,6,,,,,5,,,54,92
19584,note_on,,,,,4,0,7,,,,,6,,,42,75
19584,note_on,,,,,4,0,5,,,,,4,,,69,92
19584,note_on,,,,,4,0,8,,,,,7,,,42,60
19584,note_on,,,,,4,0,4,,,,,3,,,74,127
19584,note_on,,,,,0,0,8,,,,,7,,,45,60
19676,note_off,,,,,0,0,8,,,,,7,,,45,0
19676,note_off,,,,,92,0,8,,,,,7,,,42,0
19680,note_on,,,,,4,0,8,,,,,7,,,50,60
19772,note_off,,,,,188,0,5,,,,,4,,,69,0
19772,note_off,,,,,92,0,8,,,,,7,,,50,0
19776,note_on,,,,,4,0,5,,,,,4,,,62,92
19776,note_on,,,,,448,0,3,,,,,2,,,81,127
19776,note_on,,,,,448,0,1,,,,,0,,,81,92
19904,note_off,,,,,320,0,6,,,,,5,,,54,0
19904,note_off,,,,,320,0,4,,,,,3,,,74,0
19904,note_off,,,,,320,0,2,,,,,1,,,74,0
19904,note_off,,,,,320,0,7,,,,,6,,,42,0
19964,note_off,,,,,188,0,3,,,,,2,,,81,0
19964,note_off,,,,,188,0,1,,,,,0,,,81,0
19964,note_off,,,,,188,0,5,,,,,4,,,62,0
19968,note_on,,,,,0,0,8,,,,,7,,,55,60
19968,note_on,,,,,64,0,6,,,,,5,,,52,92
19968,note_on,,,,,4,0,5,,,,,4,,,67,92
19968,note_on,,,,,4,0,1,,,,,0,,,73,92
19968,note_on,,,,,196,0,8,,,,,7,,,52,60
19968,note_on,,,,,4,0,3,,,,,2,,,73,127
19968,note_on,,,,,64,0,7,,,,,6,,,40,75
20060,note_off,,,,,0,0,8,,,,,7,,,55,0
20060,note_off,,,,,92,0,8,,,,,7,,,52,0
20064,note_on,,,,,4,0,8,,,,,7,,,61,60
20156,note_off,,,,,188,0,1,,,,,0,,,73,0
20156,note_off,,,,,92,0,8,,,,,7,,,61,0
20156,note_off,,,,,188,0,6,,,,,5,,,52,0
20156,note_off,,,,,188,0,5,,,,,4,,,67,0
20156,note_off,,,,,188,0,3,,,,,2,,,73,0
20156,note_off,,,,,188,0,7,,,,,6,,,40,0
20160,note_on,,,,,4,0,6,,,,,5,,,50,92
20160,note_on,,,,,4,0,5,,,,,4,,,66,92
20160,note_on,,,,,4,0,7,,,,,6,,,38,75
20160,note_on,,,,,4,0,1,,,,,0,,,74,92
20160,note_on,,,,,4,0,3,,,,,2,,,74,127
20348,note_off,,,,,188,0,5,,,,,4,,,66,0
20352,note_on,,,,,448,0,2,,,,,1,,,81,92
20352,note_on,,,,,4,0,5,,,,,4,,,67,92
20352,note_on,,,,,448,0,4,,,,,3,,,81,127
20480,note_off,,,,,320,0,3,,,,,2,,,74,0
20480,note_off,,,,,320,0,1,,,,,0,,,74,0
20480,note_off,,,,,320,0,7,,,,,6,,,38,0
20480,note_off,,,,,320,0,6,,,,,5,,,50,0
20540,note_off,,,,,188,0,5,,,,,4,,,67,0
20540,note_off,,,,,188,0,2,,,,,1,,,81,0
20540,note_off,,,,,188,0,4,,,,,3,,,81,0
20544,note_on,,,,,64,0,6,,,,,5,,,52,92
20544,note_on,,,,,4,0,5,,,,,4,,,67,92
20544,note_on,,,,,4,0,4,,,,,3,,,73,127
20544,note_on,,,,,388,0,8,,,,,7,,,52,60
20544,note_on,,,,,0,0,8,,,,,7,,,55,60
20544,note_on,,,,,64,0,7,,,,,6,,,40,75
20544,note_on,,,,,4,0,2,,,,,1,,,73,92
20636,note_off,,,,,92,0,8,,,,,7,,,52,0
20636,note_off,,,,,0,0,8,,,,,7,,,55,0
20640,note_on,,,,,4,0,8,,,,,7,,,61,60
20732,note_off,,,,,92,0,8,,,,,7,,,61,0
20732,note_off,,,,,188,0,4,,,,,3,,,73,0
20732,note_off,,,,,188,0,7,,,,,6,,,40,0
20732,note_off,,,,,188,0,6,,,,,5,,,52,0
20732,note_off,,,,,188,0,2,,,,,1,,,73,0
20732,note_off,,,,,188,0,5,,,,,4,,,67,0
20736,note_on,,,,,4,0,4,,,,,3,,,74,127
20736,note_on,,,,,256,0,3,,,,,2,,,74,127
20736,note_on,,,,,4,0,5,,,,,4,,,69,92
20736,note_on,,,,,4,0,6,,,,,5,,,54,92
20736,note_on,,,,,4,0,7,,,,,6,,,42,75
20736,note_on,,,,,256,0,1,,,,,0,,,74,92
20736,note_on,,,,,4,0,2,,,,,1,,,74,92
20736,note_on,,,,,4,0,8,,,,,7,,,42,60
20736,note_on,,,,,0,0,8,,,,,7,,,45,60
20828,note_off,,,,,92,0,3,,,,,2,,,74,0
20828,note_off,,,,,92,0,1,,,,,0,,,74,0
20828,note_off,,,,,0,0,8,,,,,7,,,45,0
20828,note_off,,,,,92,0,8,,,,,7,,,42,0
20832,note_on,,,,,4,0,8,,,,,7,,,50,60
20832,note_on,,,,,4,0,3,,,,,2,,,69,127
20832,note_on,,,,,4,0,1,,,,,0,,,69,92
20924,note_off,,,,,92,0,8,,,,,7,,,50,0
20924,note_off,,,,,92,0,1,,,,,0,,,69,0
20924,note_off,,,,,92,0,3,,,,,2,,,69,0
20928,note_on,,,,,4,0,1,,,,,0,,,78,92
20928,note_on,,,,,4,0,3,,,,,2,,,78,127
21020,note_off,,,,,92,0,3,,,,,2,,,78,0
21020,note_off,,,,,92,0,1,,,,,0,,,78,0
21024,note_on,,,,,4,0,3,,,,,2,,,74,127
21024,note_on,,,,,4,0,1,,,,,0,,,74,92
21056,note_off,,,,,320,0,6,,,,,5,,,54,0
21056,note_off,,,,,320,0,4,,,,,3,,,74,0
21056,note_off,,,,,320,0,2,,,,,1,,,74,0
21056,note_off,,,,,320,0,7,,,,,6,,,42,0
21056,note_off,,,,,320,0,5,,,,,4,,,69,0
21116,note_off,,,,,92,0,1,,,,,0,,,74,0
21116,note_off,,,,,92,0,3,,,,,2,,,74,0
21120,note_on,,,,,4,0,1,,,,,0,,,81,92
21120,note_on,,,,,4,0,3,,,,,2,,,81,127
21212,note_off,,,,,92,0,3,,,,,2,,,81,0
21212,note_off,,,,,92,0,1,,,,,0,,,81,0
21216,note_on,,,,,4,0,3,,,,,2,,,78,127
21216,note_on,,,,,4,0,1,,,,,0,,,78,92
21308,note_off,,,,,92,0,1,,,,,0,,,78,0
21308,note_off,,,,,92,0,3,,,,,2,,,78,0
21312,note_on,,,,,4,0,1,,,,,0,,,86,92
21312,note_on,,,,,256,0,4,,,,,3,,,66,127
21312,note_on,,,,,4,0,3,,,,,2,,,86,127
21312,note_on,,,,,256,0,2,,,,,1,,,66,92
21404,note_off,,,,,92,0,4,,,,,3,,,66,0
21404,note_off,,,,,92,0,2,,,,,1,,,66,0
21408,note_on,,,,,4,0,2,,,,,1,,,62,92
21408,note_on,,,,,4,0,4,,,,,3,,,62,127
21500,note_off,,,,,92,0,4,,,,,3,,,62,0
21500,note_off,,,,,92,0,2,,,,,1,,,62,0
21504,note_on,,,,,4,0,2,,,,,1,,,69,92
21504,note_on,,,,,4,0,4,,,,,3,,,69,127
21596,note_off,,,,,92,0,2,,,,,1,,,69,0
21596,note_off,,,,,92,0,4,,,,,3,,,69,0
21600,note_on,,,,,4,0,4,,,,,3,,,66,127
21600,note_on,,,,,4,0,2,,,,,1,,,66,92
21632,note_off,,,,,320,0,1,,,,,0,,,86,0
21632,note_off,,,,,320,0,3,,,,,2,,,86,0
21692,note_off,,,,,92,0,4,,,,,3,,,66,0
21692,note_off,,,,,92,0,2,,,,,1,,,66,0
21696,note_on,,,,,4,0,4,,,,,3,,,74,127
21696,note_on,,,,,4,0,2,,,,,1,,,74,92
21788,note_off,,,,,92,0,4,,,,,3,,,74,0
21788,note_off,,,,,92,0,2,,,,,1,,,74,0
21792,note_on,,,,,4,0,4,,,,,3,,,69,127
21792,note_on,,,,,4,0,2,,,,,1,,,69,92
21884,note_off,,,,,92,0,2,,,,,1,,,69,0
21884,note_off,,,,,92,0,4,,,,,3,,,69,0
21888,note_on,,,,,256,0,3,,,,,2,,,74,127
21888,note_on,,,,,832,0,7,,,,,6,,,38,75
21888,note_on,,,,,4,0,4,,,,,3,,,78,127
21888,note_on,,,,,4,0,2,,,,,1,,,78,92
21888,note_on,,,,,256,0,1,,,,,0,,,74,92
21888,note_on,,,,,832,0,6,,,,,5,,,50,92
21888,note_on,,,,,832,0,5,,,,,4,,,69,92
21980,note_off,,,,,92,0,3,,,,,2,,,74,0
21980,note_off,,,,,92,0,1,,,,,0,,,74,0
21984,note_on,,,,,4,0,3,,,,,2,,,69,127
21984,note_on,,,,,4,0,1,,,,,0,,,69,92
22076,note_off,,,,,92,0,3,,,,,2,,,69,0
22076,note_off,,,,,92,0,1,,,,,0,,,69,0
22080,note_on,,,,,4,0,3,,,,,2,,,78,127
22080,note_on,,,,,4,0,1,,,,,0,,,78,92
22172,note_off,,,,,92,0,1,,,,,0,,,78,0
22172,note_off,,,,,92,0,3,,,,,2,,,78,0
22176,note_on,,,,,4,0,3,,,,,2,,,74,127
22176,note_on,,,,,4,0,1,,,,,0,,,74,92
22208,note_off,,,,,320,0,6,,,,,5,,,50,0
22208,note_off,,,,,320,0,5,,,,,4,,,69,0
22208,note_off,,,,,320,0,7,,,,,6,,,38,0
22208,note_off,,,,,320,0,4,,,,,3,,,78,0
22208,note_off,,,,,320,0,2,,,,,1,,,78,0
22268,note_off,,,,,92,0,3,,,,,2,,,74,0
22268,note_off,,,,,92,0,1,,,,,0,,,74,0
22272,note_on,,,,,4,0,1,,,,,0,,,81,92
22272,note_on,,,,,4,0,3,,,,,2,,,81,127
22364,note_off,,,,,92,0,3,,,,,2,,,81,0
22364,note_off,,,,,92,0,1,,,,,0,,,81,0
22368,note_on,,,,,4,0,3,,,,,2,,,78,127
22368,note_on,,,,,4,0,1,,,,,0,,,78,92
22460,note_off,,,,,92,0,3,,,,,2,,,78,0
22460,note_off,,,,,92,0,1,,,,,0,,,78,0
22464,note_on,,,,,256,0,2,,,,,1,,,66,92
22464,note_on,,,,,4,0,1,,,,,0,,,86,92
22464,note_on,,,,,4,0,3,,,,,2,,,86,127
22464,note_on,,,,,256,0,4,,,,,3,,,66,127
22556,note_off,,,,,92,0,4,,,,,3,,,66,0
22556,note_off,,,,,92,0,2,,,,,1,,,66,0
22560,note_on,,,,,4,0,4,,,,,3,,,62,127
22560,note_on,,,,,4,0,2,,,,,1,,,62,92
22652,note_off,,,,,92,0,4,,,,,3,,,62,0
22652,note_off,,,,,92,0,2,,,,,1,,,62,0
22656,note_on,,,,,4,0,4,,,,,3,,,69,127
22656,note_on,,,,,4,0,2,,,,,1,,,69,92
22748,note_off,,,,,92,0,4,,,,,3,,,69,0
22748,note_off,,,,,92,0,2,,,,,1,,,69,0
22752,note_on,,,,,4,0,4,,,,,3,,,66,127
22752,note_on,,,,,4,0,2,,,,,1,,,66,92
22784,note_off,,,,,320,0,1,,,,,0,,,86,0
22784,note_off,,,,,320,0,3,,,,,2,,,86,0
22844,note_off,,,,,92,0,2,,,,,1,,,66,0
22844,note_off,,,,,92,0,4,,,,,3,,,66,0
22848,note_on,,,,,4,0,2,,,,,1,,,74,92
22848,note_on,,,,,4,0,4,,,,,3,,,74,127
22940,note_off,,,,,92,0,2,,,,,1,,,74,0
22940,note_off,,,,,92,0,4,,,,,3,,,74,0
22944,note_on,,,,,4,0,2,,,,,1,,,69,92
22944,note_on,,,,,4,0,4,,,,,3,,,69,127
23036,note_off,,,,,92,0,2,,,,,1,,,69,0
23036,note_off,,,,,92,0,4,,,,,3,,,69,0
23040,note_on,,,,,832,0,7,,,,,6,,,47,75
23040,note_on,,,,,4,0,4,,,,,3,,,78,127
23040,note_on,,,,,256,0,3,,,,,2,,,86,127
23040,note_on,,,,,832,0,5,,,,,4,,,62,92
23040,note_on,,,,,4,0,2,,,,,1,,,78,92
23040,note_on,,,,,256,0,1,,,,,0,,,86,92
23040,note_on,,,,,832,0,6,,,,,5,,,59,92
23228,note_off,,,,,188,0,2,,,,,1,,,78,0
23228,note_off,,,,,188,0,1,,,,,0,,,86,0
23228,note_off,,,,,188,0,5,,,,,4,,,62,0
23228,note_off,,,,,188,0,6,,,,,5,,,59,0
23228,note_off,,,,,188,0,3,,,,,2,,,86,0
23228,note_off,,,,,188,0,7,,,,,6,,,47,0
23228,note_off,,,,,188,0,4,,,,,3,,,78,0
23232,note_on,,,,,4,0,3,,,,,2,,,85,127
23232,note_on,,,,,4,0,1,,,,,0,,,85,92
23232,note_on,,,,,0,0,8,,,,,7,,,52,60
23232,note_on,,,,,2308,0,8,,,,,7,,,49,60
23232,note_on,,,,,4,0,6,,,,,5,,,61,92
23232,note_on,,,,,4,0,4,,,,,3,,,76,127
23232,note_on,,,,,4,0,7,,,,,6,,,49,75
23232,note_on,,,,,4,0,2,,,,,1,,,76,92
23232,note_on,,,,,4,0,5,,,,,4,,,69,92
23324,note_off,,,,,0,0,8,,,,,7,,,52,0
23324,note_off,,,,,92,0,8,,,,,7,,,49,0
23328,note_on,,,,,4,0,8,,,,,7,,,57,60
23420,note_off,,,,,188,0,1,,,,,0,,,85,0
23420,note_off,,,,,188,0,3,,,,,2,,,85,0
23420,note_off,,,,,188,0,2,,,,,1,,,76,0
23420,note_off,,,,,92,0,8,,,,,7,,,57,0
23420,note_off,,,,,188,0,4,,,,,3,,,76,0
23424,note_on,,,,,4,0,4,,,,,3,,,79,127
23424,note_on,,,,,4,0,3,,,,,2,,,83,127
23424,note_on,,,,,4,0,1,,,,,0,,,83,92
23424,note_on,,,,,4,0,2,,,,,1,,,79,92
23552,note_off,,,,,320,0,7,,,,,6,,,49,0
23552,note_off,,,,,320,0,6,,,,,5,,,61,0
23552,note_off,,,,,320,0,5,,,,,4,,,69,0
23612,note_off,,,,,188,0,2,,,,,1,,,79,0
23612,note_off,,,,,188,0,1,,,,,0,,,83,0
23612,note_off,,,,,188,0,3,,,,,2,,,83,0
23612,note_off,,,,,188,0,4,,,,,3,,,79,0
23616,note_on,,,,,64,0,7,,,,,6,,,50,75
23616,note_on,,,,,4,0,2,,,,,1,,,78,92
23616,note_on,,,,,4,0,3,,,,,2,,,81,127
23616,note_on,,,,,64,0,6,,,,,5,,,62,92
23616,note_on,,,,,4,0,1,,,,,0,,,81,92
23616,note_on,,,,,4,0,4,,,,,3,,,78,127
23616,note_on,,,,,64,0,5,,,,,4,,,62,92
23804,note_off,,,,,188,0,2,,,,,1,,,78,0
23804,note_off,,,,,188,0,6,,,,,5,,,62,0
23804,note_off,,,,,188,0,1,,,,,0,,,81,0
23804,note_off,,,,,188,0,7,,,,,6,,,50,0
23804,note_off,,,,,188,0,5,,,,,4,,,62,0
23804,note_off,,,,,188,0,4,,,,,3,,,78,0
23804,note_off,,,,,188,0,3,,,,,2,,,81,0
23808,note_on,,,,,4,0,3,,,,,2,,,79,127
23808,note_on,,,,,4,0,1,,,,,0,,,79,92
23808,note_on,,,,,4,0,5,,,,,4,,,74,92
23808,note_on,,,,,4,0,4,,,,,3,,,69,127
23808,note_on,,,,,4,0,2,,,,,1,,,69,92
23808,note_on,,,,,4,0,7,,,,,6,,,42,75
23808,note_on,,,,,4,0,6,,,,,5,,,54,92
23900,note_off,,,,,92,0,3,,,,,2,,,79,0
23900,note_off,,,,,92,0,1,,,,,0,,,79,0
23904,note_on,,,,,4,0,3,,,,,2,,,78,127
23904,note_on,,,,,4,0,1,,,,,0,,,78,92
23996,note_off,,,,,188,0,6,,,,,5,,,54,0
23996,note_off,,,,,92,0,3,,,,,2,,,78,0
23996,note_off,,,,,188,0,5,,,,,4,,,74,0
23996,note_off,,,,,92,0,1,,,,,0,,,78,0
23996,note_off,,,,,188,0,4,,,,,3,,,69,0
23996,note_off,,,,,188,0,2,,,,,1,,,69,0
23996,note_off,,,,,188,0,7,,,,,6,,,42,0
24000,note_on,,,,,4,0,5,,,,,4,,,71,92
24000,note_on,,,,,4,0,4,,,,,3,,,66,127
24000,note_on,,,,,4,0,3,,,,,2,,,76,127
24000,note_on,,,,,4,0,7,,,,,6,,,47,75
24000,note_on,,,,,4,0,2,,,,,1,,,66,92
24000,note_on,,,,,4,0,1,,,,,0,,,76,92
24000,note_on,,,,,4,0,6,,,,,5,,,59,92
24092,note_off,,,,,92,0,1,,,,,0,,,76,0
24092,note_off,,,,,92,0,3,,,,,2,,,76,0
24096,note_on,,,,,4,0,1,,,,,0,,,74,92
24096,note_on,,,,,4,0,3,,,,,2,,,74,127
24188,note_off,,,,,188,0,7,,,,,6,,,47,0
24188,note_off,,,,,188,0,6,,,,,5,,,59,0
24188,note_off,,,,,92,0,3,,,,,2,,,74,0
24188,note_off,,,,,188,0,5,,,,,4,,,71,0
24188,note_off,,,,,188,0,4,,,,,3,,,66,0
24188,note_off,,,,,188,0,2,,,,,1,,,66,0
24188,note_off,,,,,92,0,1,,,,,0,,,74,0
24192,note_on,,,,,4,0,7,,,,,6,,,43,75
24192,note_on,,,,,4,0,6,,,,,5,,,55,92
24192,note_on,,,,,772,0,8,,,,,7,,,43,60
24192,note_on,,,,,0,0,8,,,,,7,,,47,60
24192,note_on,,,,,4,0,3,,,,,2,,,76,127
24192,note_on,,,,,4,0,2,,,,,1,,,71,92
24192,note_on,,,,,4,0,5,,,,,4,,,64,92
24192,note_on,,,,,4,0,4,,,,,3,,,71,127
24192,note_on,,,,,4,0,1,,,,,0,,,76,92
24284,note_off,,,,,92,0,3,,,,,2,,,76,0
24284,note_off,,,,,0,0,8,,,,,7,,,47,0
24284,note_off,,,,,92,0,8,,,,,7,,,43,0
24284,note_off,,,,,92,0,1,,,,,0,,,76,0
24288,note_on,,,,,4,0,1,,,,,0,,,79,92
24288,note_on,,,,,4,0,3,,,,,2,,,79,127
24288,note_on,,,,,4,0,8,,,,,7,,,52,60
24380,note_off,,,,,188,0,4,,,,,3,,,71,0
24380,note_off,,,,,188,0,2,,,,,1,,,71,0
24380,note_off,,,,,92,0,3,,,,,2,,,79,0
24380,note_off,,,,,188,0,5,,,,,4,,,64,0
24380,note_off,,,,,92,0,8,,,,,7,,,52,0
24380,note_off,,,,,188,0,6,,,,,5,,,55,0
24380,note_off,,,,,188,0,7,,,,,6,,,43,0
24380,note_off,,,,,92,0,1,,,,,0,,,79,0
24384,note_on,,,,,4,0,8,,,,,7,,,45,60
24384,note_on,,,,,4,0,7,,,,,6,,,45,75
24384,note_on,,,,,4,0,5,,,,,4,,,69,92
24384,note_on,,,,,4,0,6,,,,,5,,,57,92
24384,note_on,,,,,0,0,8,,,,,7,,,49,60
24384,note_on,,,,,4,0,3,,,,,2,,,78,127
24384,note_on,,,,,4,0,2,,,,,1,,,69,92
24384,note_on,,,,,4,0,1,,,,,0,,,78,92
24384,note_on,,,,,4,0,4,,,,,3,,,69,127
24476,note_off,,,,,92,0,3,,,,,2,,,78,0
24476,note_off,,,,,0,0,8,,,,,7,,,49,0
24476,note_off,,,,,92,0,1,,,,,0,,,78,0
24476,note_off,,,,,92,0,2,,,,,1,,,69,0
24476,note_off,,,,,92,0,4,,,,,3,,,69,0
24476,note_off,,,,,92,0,8,,,,,7,,,45,0
24480,note_on,,,,,4,0,8,,,,,7,,,52,60
24480,note_on,,,,,4,0,3,,,,,2,,,76,127
24480,note_on,,,,,4,0,4,,,,,3,,,67,127
24480,note_on,,,,,4,0,2,,,,,1,,,67,92
24480,note_on,,,,,4,0,1,,,,,0,,,76,92
24572,note_off,,,,,92,0,1,,,,,0,,,76,0
24572,note_off,,,,,92,0,8,,,,,7,,,52,0
24572,note_off,,,,,188,0,7,,,,,6,,,45,0
24572,note_off,,,,,188,0,5,,,,,4,,,69,0
24572,note_off,,,,,92,0,3,,,,,2,,,76,0
24572,note_off,,,,,92,0,4,,,,,3,,,67,0
24572,note_off,,,,,92,0,2,,,,,1,,,67,0
24572,note_off,,,,,188,0,6,,,,,5,,,57,0
24576,note_on,,,,,4,0,2,,,,,1,,,66,92
24576,note_on,,,,,4,0,6,,,,,5,,,45,92
24576,note_on,,,,,4,0,3,,,,,2,,,74,127
24576,note_on,,,,,4,0,7,,,,,6,,,33,75
24576,note_on,,,,,4,0,4,,,,,3,,,66,127
24576,note_on,,,,,4,0,1,,,,,0,,,74,92
24576,note_on,,,,,4,0,5,,,,,4,,,69,92
24668,note_off,,,,,92,0,4,,,,,3,,,66,0
24668,note_off,,,,,92,0,2,,,,,1,,,66,0
24668,note_off,,,,,92,0,3,,,,,2,,,74,0
24668,note_off,,,,,92,0,1,,,,,0,,,74,0
24672,note_on,,,,,4,0,4,,,,,3,,,64,127
24672,note_on,,,,,4,0,2,,,,,1,,,64,92
24672,note_on,,,,,4,0,3,,,,,2,,,73,127
24672,note_on,,,,,4,0,1,,,,,0,,,73,92
24764,note_off,,,,,188,0,7,,,,,6,,,33,0
24764,note_off,,,,,188,0,5,,,,,4,,,69,0
24764,note_off,,,,,92,0,3,,,,,2,,,73,0
24764,note_off,,,,,92,0,1,,,,,0,,,73,0
24764,note_off,,,,,188,0,6,,,,,5,,,45,0
24764,note_off,,,,,92,0,2,,,,,1,,,64,0
24764,note_off,,,,,92,0,4,,,,,3,,,64,0
24768,note_on,,,,,4,0,5,,,,,4,,,69,92
24768,note_on,,,,,4,0,1,,,,,0,,,74,92
24768,note_on,,,,,4,0,4,,,,,3,,,66,127
24768,note_on,,,,,4,0,2,,,,,1,,,66,92
24768,note_on,,,,,4,0,3,,,,,2,,,74,127
24768,note_on,,,,,4,0,7,,,,,6,,,38,75
24768,note_on,,,,,4,0,6,,,,,5,,,50,92
24860,note_off,,,,,92,0,4,,,,,3,,,66,0
24860,note_off,,,,,92,0,2,,,,,1,,,66,0
24860,note_off,,,,,92,0,3,,,,,2,,,74,0
24860,note_off,,,,,92,0,1,,,,,0,,,74,0
24864,note_on,,,,,4,0,4,,,,,3,,,62,127
24864,note_on,,,,,4,0,1,,,,,0,,,66,92
24864,note_on,,,,,4,0,3,,,,,2,,,66,127
24864,note_on,,,,,4,0,2,,,,,1,,,62,92
24956,note_off,,,,,92,0,3,,,,,2,,,66,0
24956,note_off,,,,,92,0,2,,,,,1,,,62,0
24956,note_off,,,,,92,0,4,,,,,3,,,62,0
24956,note_off,,,,,92,0,1,,,,,0,,,66,0
24960,note_on,,,,,4,0,1,,,,,0,,,67,92
24960,note_on,,,,,4,0,4,,,,,3,,,64,127
24960,note_on,,,,,4,0,2,,,,,1,,,64,92
24960,note_on,,,,,4,0,3,,,,,2,,,67,127
25052,note_off,,,,,92,0,3,,,,,2,,,67,0
25052,note_off,,,,,92,0,2,,,,,1,,,64,0
25052,note_off,,,,,92,0,4,,,,,3,,,64,0
25052,note_off,,,,,92,0,1,,,,,0,,,67,0
25056,note_on,,,,,4,0,3,,,,,2,,,69,127
25056,note_on,,,,,4,0,1,,,,,0,,,69,92
25056,note_on,,,,,4,0,4,,,,,3,,,66,127
25056,note_on,,,,,4,0,2,,,,,1,,,66,92
25088,note_off,,,,,320,0,7,,,,,6,,,38,0
25088,note_off,,,,,320,0,5,,,,,4,,,69,0
25088,note_off,,,,,320,0,6,,,,,5,,,50,0
25148,note_off,,,,,92,0,3,,,,,2,,,69,0
25148,note_off,,,,,92,0,2,,,,,1,,,66,0
25148,note_off,,,,,92,0,1,,,,,0,,,69,0
25148,note_off,,,,,92,0,4,,,,,3,,,66,0
25152,note_on,,,,,4,0,3,,,,,2,,,71,127
25152,note_on,,,,,4,0,1,,,,,0,,,71,92
25152,note_on,,,,,4,0,4,,,,,3,,,67,127
25152,note_on,,,,,4,0,2,,,,,1,,,67,92
25244,note_off,,,,,92,0,3,,,,,2,,,71,0
25244,note_off,,,,,92,0,1,,,,,0,,,71,0
25244,note_off,,,,,92,0,4,,,,,3,,,67,0
25244,note_off,,,,,92,0,2,,,,,1,,,67,0
25248,note_on,,,,,4,0,1,,,,,0,,,73,92
25248,note_on,,,,,4,0,3,,,,,2,,,73,127
25248,note_on,,,,,4,0,4,,,,,3,,,64,127
25248,note_on,,,,,4,0,2,,,,,1,,,64,92
25340,note_off,,,,,92,0,3,,,,,2,,,73,0
25340,note_off,,,,,92,0,2,,,,,1,,,64,0
25340,note_off,,,,,92,0,1,,,,,0,,,73,0
25340,note_off,,,,,92,0,4,,,,,3,,,64,0
25344,note_on,,,,,4,0,2,,,,,1,,,66,92
25344,note_on,,,,,256,0,7,,,,,6,,,38,75
25344,note_on,,,,,4,0,1,,,,,0,,,74,92
25344,note_on,,,,,256,0,6,,,,,5,,,50,92
25344,note_on,,,,,4,0,3,,,,,2,,,74,127
25344,note_on,,,,,256,0,5,,,,,4,,,69,92
25344,note_on,,,,,4,0,4,,,,,3,,,66,127
25532,note_off,,,,,188,0,3,,,,,2,,,74,0
25532,note_off,,,,,188,0,4,,,,,3,,,66,0
25532,note_off,,,,,188,0,6,,,,,5,,,50,0
25532,note_off,,,,,188,0,1,,,,,0,,,74,0
25532,note_off,,,,,188,0,5,,,,,4,,,69,0
25532,note_off,,,,,188,0,2,,,,,1,,,66,0
25532,note_off,,,,,188,0,7,,,,,6,,,38,0
25536,note_on,,,,,964,0,8,,,,,7,,,52,60
25536,note_on,,,,,0,0,8,,,,,7,,,55,60
25536,note_on,,,,,4,0,2,,,,,1,,,64,92
25536,note_on,,,,,4,0,4,,,,,3,,,64,127
25536,note_on,,,,,4,0,5,,,,,4,,,67,92
25536,note_on,,,,,4,0,7,,,,,6,,,40,75
25536,note_on,,,,,4,0,1,,,,,0,,,73,92
25536,note_on,,,,,4,0,6,,,,,5,,,52,92
25536,note_on,,,,,4,0,3,,,,,2,,,73,127
25628,note_off,,,,,92,0,3,,,,,2,,,73,0
25628,note_off,,,,,92,0,1,,,,,0,,,73,0
25628,note_off,,,,,92,0,8,,,,,7,,,52,0
25628,note_off,,,,,92,0,2,,,,,1,,,64,0
25628,note_off,,,,,0,0,8,,,,,7,,,55,0
25628,note_off,,,,,92,0,4,,,,,3,,,64,0
25632,note_on,,,,,4,0,8,,,,,7,,,61,60
25632,note_on,,,,,4,0,1,,,,,0,,,71,92
25632,note_on,,,,,4,0,2,,,,,1,,,62,92
25632,note_on,,,,,4,0,3,,,,,2,,,71,127
25632,note_on,,,,,4,0,4,,,,,3,,,62,127
25724,note_off,,,,,92,0,8,,,,,7,,,61,0
25724,note_off,,,,,188,0,7,,,,,6,,,40,0
25724,note_off,,,,,188,0,6,,,,,5,,,52,0
25724,note_off,,,,,92,0,2,,,,,1,,,62,0
25724,note_off,,,,,92,0,1,,,,,0,,,71,0
25724,note_off,,,,,92,0,4,,,,,3,,,62,0
25724,note_off,,,,,92,0,3,,,,,2,,,71,0
25724,note_off,,,,,188,0,5,,,,,4,,,67,0
25728,note_on,,,,,4,0,5,,,,,4,,,64,92
25728,note_on,,,,,4,0,6,,,,,5,,,52,92
25728,note_on,,,,,4,0,3,,,,,2,,,69,127
25728,note_on,,,,,4,0,7,,,,,6,,,40,75
25728,note_on,,,,,4,0,1,,,,,0,,,69,92
25728,note_on,,,,,4,0,2,,,,,1,,,61,92
25728,note_on,,,,,4,0,4,,,,,3,,,61,127
25820,note_off,,,,,92,0,1,,,,,0,,,69,0
25820,note_off,,,,,92,0,3,,,,,2,,,69,0
25820,note_off,,,,,92,0,2,,,,,1,,,61,0
25820,note_off,,,,,92,0,4,,,,,3,,,61,0
25824,note_on,,,,,4,0,4,,,,,3,,,64,127
25824,note_on,,,,,4,0,1,,,,,0,,,67,92
25824,note_on,,,,,4,0,3,,,,,2,,,67,127
25824,note_on,,,,,4,0,2,,,,,1,,,64,92
25916,note_off,,,,,188,0,7,,,,,6,,,40,0
25916,note_off,,,,,92,0,2,,,,,1,,,64,0
25916,note_off,,,,,188,0,5,,,,,4,,,64,0
25916,note_off,,,,,92,0,4,,,,,3,,,64,0
25916,note_off,,,,,188,0,6,,,,,5,,,52,0
25916,note_off,,,,,92,0,1,,,,,0,,,67,0
25916,note_off,,,,,92,0,3,,,,,2,,,67,0
25920,note_on,,,,,4,0,2,,,,,1,,,57,92
25920,note_on,,,,,196,0,8,,,,,7,,,42,60
25920,note_on,,,,,4,0,1,,,,,0,,,66,92
25920,note_on,,,,,4,0,7,,,,,6,,,42,75
25920,note_on,,,,,4,0,3,,,,,2,,,66,127
25920,note_on,,,,,4,0,5,,,,,4,,,62,92
25920,note_on,,,,,4,0,6,,,,,5,,,54,92
25920,note_on,,,,,0,0,8,,,,,7,,,45,60
25920,note_on,,,,,4,0,4,,,,,3,,,57,127
26012,note_off,,,,,92,0,3,,,,,2,,,66,0
26012,note_off,,,,,92,0,4,,,,,3,,,57,0
26012,note_off,,,,,92,0,2,,,,,1,,,57,0
26012,note_off,,,,,0,0,8,,,,,7,,,45,0
26012,note_off,,,,,92,0,8,,,,,7,,,42,0
26012,note_off,,,,,92,0,1,,,,,0,,,66,0
26016,note_on,,,,,4,0,2,,,,,1,,,69,92
26016,note_on,,,,,4,0,4,,,,,3,,,69,127
26016,note_on,,,,,4,0,8,,,,,7,,,50,60
26016,note_on,,,,,4,0,1,,,,,0,,,74,92
26016,note_on,,,,,4,0,3,,,,,2,,,74,127
26108,note_off,,,,,92,0,2,,,,,1,,,69,0
26108,note_off,,,,,92,0,3,,,,,2,,,74,0
26108,note_off,,,,,188,0,5,,,,,4,,,62,0
26108,note_off,,,,,92,0,8,,,,,7,,,50,0
26108,note_off,,,,,92,0,4,,,,,3,,,69,0
26108,note_off,,,,,92,0,1,,,,,0,,,74,0
26108,note_off,,,,,188,0,7,,,,,6,,,42,0
26108,note_off,,,,,188,0,6,,,,,5,,,54,0
26112,note_on,,,,,0,0,8,,,,,7,,,55,60
26112,note_on,,,,,4,0,3,,,,,2,,,79,127
26112,note_on,,,,,4,0,4,,,,,3,,,71,127
26112,note_on,,,,,4,0,7,,,,,6,,,40,75
26112,note_on,,,,,4,0,6,,,,,5,,,52,92
26112,note_on,,,,,4,0,8,,,,,7,,,52,60
26112,note_on,,,,,4,0,5,,,,,4,,,67,92
26112,note_on,,,,,4,0,2,,,,,1,,,71,92
26112,note_on,,,,,4,0,1,,,,,0,,,79,92
26204,note_off,,,,,92,0,4,,,,,3,,,71,0
26204,note_off,,,,,92,0,8,,,,,7,,,52,0
26204,note_off,,,,,92,0,3,,,,,2,,,79,0
26204,note_off,,,,,92,0,2,,,,,1,,,71,0
26204,note_off,,,,,0,0,8,,,,,7,,,55,0
26204,note_off,,,,,92,0,1,,,,,0,,,79,0
26208,note_on,,,,,4,0,2,,,,,1,,,73,92
26208,note_on,,,,,4,0,8,,,,,7,,,61,60
26208,note_on,,,,,4,0,3,,,,,2,,,76,127
26208,note_on,,,,,4,0,1,,,,,0,,,76,92
26208,note_on,,,,,4,0,4,,,,,3,,,73,127
26300,note_off,,,,,188,0,6,,,,,5,,,52,0
26300,note_off,,,,,92,0,4,,,,,3,,,73,0
26300,note_off,,,,,92,0,8,,,,,7,,,61,0
26300,note_off,,,,,188,0,5,,,,,4,,,67,0
26300,note_off,,,,,92,0,3,,,,,2,,,76,0
26300,note_off,,,,,92,0,1,,,,,0,,,76,0
26300,note_off,,,,,188,0,7,,,,,6,,,40,0
26300,note_off,,,,,92,0,2,,,,,1,,,73,0
26304,note_on,,,,,4,0,1,,,,,0,,,78,92
26304,note_on,,,,,4,0,6,,,,,5,,,50,92
26304,note_on,,,,,4,0,7,,,,,6,,,38,75
26304,note_on,,,,,4,0,4,,,,,3,,,74,127
26304,note_on,,,,,4,0,5,,,,,4,,,69,92
26304,note_on,,,,,4,0,3,,,,,2,,,78,127
26304,note_on,,,,,4,0,2,,,,,1,,,74,92
26396,note_off,,,,,92,0,3,,,,,2,,,78,0
26396,note_off,,,,,92,0,1,,,,,0,,,78,0
26396,note_off,,,,,92,0,4,,,,,3,,,74,0
26396,note_off,,,,,92,0,2,,,,,1,,,74,0
26400,note_on,,,,,4,0,3,,,,,2,,,73,127
26400,note_on,,,,,4,0,4,,,,,3,,,69,127
26400,note_on,,,,,4,0,2,,,,,1,,,69,92
26400,note_on,,,,,4,0,1,,,,,0,,,73,92
26492,note_off,,,,,92,0,1,,,,,0,,,73,0
26492,note_off,,,,,188,0,7,,,,,6,,,38,0
26492,note_off,,,,,92,0,2,,,,,1,,,69,0
26492,note_off,,,,,92,0,4,,,,,3,,,69,0
26492,note_off,,,,,188,0,5,,,,,4,,,69,0
26492,note_off,,,,,92,0,3,,,,,2,,,73,0
26492,note_off,,,,,188,0,6,,,,,5,,,50,0
26496,note_on,,,,,4,0,2,,,,,1,,,71,92
26496,set_tempo,,,,,26496,1,0,,666666,,,,,,,
26496,note_on,,,,,4,0,5,,,,,4,,,67,92
26496,note_on,,,,,4,0,1,,,,,0,,,74,92
26496,note_on,,,,,4,0,4,,,,,3,,,71,127
26496,note_on,,,,,196,0,8,,,,,7,,,43,60
26496,note_on,,,,,0,0,8,,,,,7,,,47,60
26496,note_on,,,,,4,0,7,,,,,6,,,43,75
26496,note_on,,,,,4,0,3,,,,,2,,,74,127
26496,note_on,,,,,4,0,6,,,,,5,,,55,92
26588,note_off,,,,,0,0,8,,,,,7,,,47,0
26588,note_off,,,,,92,0,1,,,,,0,,,74,0
26588,note_off,,,,,92,0,3,,,,,2,,,74,0
26588,note_off,,,,,92,0,8,,,,,7,,,43,0
26592,note_on,,,,,4,0,8,,,,,7,,,52,60
26592,note_on,,,,,4,0,1,,,,,0,,,64,92
26592,note_on,,,,,4,0,3,,,,,2,,,64,127
26684,note_off,,,,,188,0,6,,,,,5,,,55,0
26684,note_off,,,,,188,0,4,,,,,3,,,71,0
26684,note_off,,,,,188,0,5,,,,,4,,,67,0
26684,note_off,,,,,188,0,7,,,,,6,,,43,0
26684,note_off,,,,,92,0,8,,,,,7,,,52,0
26684,note_off,,,,,92,0,3,,,,,2,,,64,0
26684,note_off,,,,,188,0,2,,,,,1,,,71,0
26684,note_off,,,,,92,0,1,,,,,0,,,64,0
26688,note_on,,,,,4,0,1,,,,,0,,,74,92
26688,note_on,,,,,4,0,8,,,,,7,,,45,60
26688,note_on,,,,,0,0,8,,,,,7,,,49,60
26688,note_on,,,,,4,0,6,,,,,5,,,57,92
26688,note_on,,,,,4,0,3,,,,,2,,,74,127
26688,note_on,,,,,4,0,2,,,,,1,,,71,92
26688,note_on,,,,,4,0,7,,,,,6,,,45,75
26688,note_on,,,,,4,0,5,,,,,4,,,64,92
26688,note_on,,,,,4,0,4,,,,,3,,,71,127
26736,note_on,,,,,0,0,3,,,,,2,,,73,127
26736,note_off,,,,,48,0,3,,,,,2,,,74,0
26736,note_off,,,,,48,0,1,,,,,0,,,74,0
26736,note_on,,,,,0,0,2,,,,,1,,,69,92
26736,note_off,,,,,48,0,4,,,,,3,,,71,0
26736,note_off,,,,,48,0,2,,,,,1,,,71,0
26736,note_on,,,,,0,0,4,,,,,3,,,69,127
26736,note_on,,,,,0,0,1,,,,,0,,,73,92
26780,note_off,,,,,92,0,8,,,,,7,,,45,0
26780,note_off,,,,,0,0,8,,,,,7,,,49,0
26784,note_on,,,,,4,0,8,,,,,7,,,52,60
26784,note_on,,,,,0,0,4,,,,,3,,,71,127
26784,note_off,,,,,48,0,4,,,,,3,,,69,0
26784,note_off,,,,,48,0,3,,,,,2,,,73,0
26784,note_on,,,,,0,0,3,,,,,2,,,74,127
26784,note_off,,,,,48,0,2,,,,,1,,,69,0
26784,note_on,,,,,0,0,2,,,,,1,,,71,92
26784,note_off,,,,,48,0,1,,,,,0,,,73,0
26784,note_on,,,,,0,0,1,,,,,0,,,74,92
26832,note_on,,,,,0,0,1,,,,,0,,,73,92
26832,note_off,,,,,48,0,2,,,,,1,,,71,0
26832,note_on,,,,,0,0,2,,,,,1,,,69,92
26832,note_off,,,,,48,0,4,,,,,3,,,71,0
26832,note_on,,,,,0,0,4,,,,,3,,,69,127
26832,note_off,,,,,48,0,3,,,,,2,,,74,0
26832,note_on,,,,,0,0,3,,,,,2,,,73,127
26832,note_off,,,,,48,0,1,,,,,0,,,74,0
26876,note_off,,,,,188,0,5,,,,,4,,,64,0
26876,note_off,,,,,188,0,7,,,,,6,,,45,0
26876,note_off,,,,,188,0,6,,,,,5,,,57,0
26876,note_off,,,,,92,0,8,,,,,7,,,52,0
26880,note_off,,,,,48,0,2,,,,,1,,,69,0
26880,note_on,,,,,0,0,2,,,,,1,,,71,92
26880,note_on,,,,,4,0,5,,,,,4,,,69,92
26880,note_off,,,,,48,0,4,,,,,3,,,69,0
26880,note_on,,,,,0,0,4,,,,,3,,,71,127
26880,note_on,,,,,4,0,7,,,,,6,,,33,75
26880,note_on,,,,,0,0,1,,,,,0,,,74,92
26880,note_off,,,,,48,0,1,,,,,0,,,73,0
26880,note_off,,,,,48,0,3,,,,,2,,,73,0
26880,note_on,,,,,0,0,3,,,,,2,,,74,127
26880,note_on,,,,,4,0,6,,,,,5,,,45,92
26928,note_on,,,,,0,0,4,,,,,3,,,69,127
26928,note_on,,,,,0,0,1,,,,,0,,,73,92
26928,note_off,,,,,48,0,3,,,,,2,,,74,0
26928,note_on,,,,,0,0,2,,,,,1,,,69,92
26928,note_off,,,,,48,0,2,,,,,1,,,71,0
26928,note_on,,,,,0,0,3,,,,,2,,,73,127
26928,note_off,,,,,48,0,1,,,,,0,,,74,0
26928,note_off,,,,,48,0,4,,,,,3,,,71,0
26972,note_off,,,,,44,0,1,,,,,0,,,73,0
26972,note_off,,,,,44,0,2,,,,,1,,,69,0
26972,note_off,,,,,44,0,4,,,,,3,,,69,0
26972,note_off,,,,,44,0,3,,,,,2,,,73,0
26976,note_on,,,,,4,0,2,,,,,1,,,67,92
26976,note_on,,,,,4,0,1,,,,,0,,,74,92
26976,note_on,,,,,4,0,4,,,,,3,,,67,127
26976,note_on,,,,,4,0,3,,,,,2,,,74,127
27068,note_off,,,,,92,0,1,,,,,0,,,74,0
27068,note_off,,,,,92,0,4,,,,,3,,,67,0
27068,note_off,,,,,188,0,5,,,,,4,,,69,0
27068,note_off,,,,,188,0,7,,,,,6,,,33,0
27068,note_off,,,,,92,0,2,,,,,1,,,67,0
27068,note_off,,,,,188,0,6,,,,,5,,,45,0
27068,note_off,,,,,92,0,3,,,,,2,,,74,0
27072,note_on,,,,,4,0,4,,,,,3,,,66,127
27072,note_on,,,,,4,0,7,,,,,6,,,38,75
27072,note_on,,,,,4,0,6,,,,,5,,,50,92
27072,note_on,,,,,4,0,2,,,,,1,,,66,92
27072,note_on,,,,,4,0,3,,,,,2,,,74,127
27072,note_on,,,,,4,0,5,,,,,4,,,69,92
27072,note_on,,,,,4,0,1,,,,,0,,,74,92
27584,note_off,,,,,512,0,1,,,,,0,,,74,0
27584,note_off,,,,,512,0,4,,,,,3,,,66,0
27584,note_off,,,,,512,0,3,,,,,2,,,74,0
27584,note_off,,,,,512,0,2,,,,,1,,,66,0
27584,note_off,,,,,512,0,5,,,,,4,,,69,0
27584,note_off,,,,,512,0,7,,,,,6,,,38,0
27584,note_off,,,,,512,0,6,,,,,5,,,50,0
27648,note_on,,,,,64,0,2,,,,,1,,,71,92
27648,note_on,,,,,64,0,7,,,,,6,,,31,75
27648,set_tempo,,,,,1152,1,0,,571428,,,,,,,
27648,note_on,,,,,64,0,4,,,,,3,,,71,127
27648,note_on,,,,,64,0,3,,,,,2,,,79,127
27648,note_on,,,,,64,0,5,,,,,4,,,62,92
27648,note_on,,,,,64,0,6,,,,,5,,,43,92
27648,note_on,,,,,64,0,1,,,,,0,,,79,92
27836,note_off,,,,,188,0,7,,,,,6,,,31,0
27836,note_off,,,,,188,0,1,,,,,0,,,79,0
27836,note_off,,,,,188,0,6,,,,,5,,,43,0
27836,note_off,,,,,188,0,5,,,,,4,,,62,0
27836,note_off,,,,,188,0,3,,,,,2,,,79,0
27840,note_on,,,,,4,0,1,,,,,0,,,67,92
27840,note_on,,,,,4,0,7,,,,,6,,,43,75
27840,note_on,,,,,4,0,3,,,,,2,,,67,127
27840,note_on,,,,,4,0,5,,,,,4,,,59,92
27840,note_on,,,,,4,0,6,,,,,5,,,55,92
27968,note_off,,,,,320,0,2,,,,,1,,,71,0
27968,note_off,,,,,320,0,4,,,,,3,,,71,0
28028,note_off,,,,,188,0,1,,,,,0,,,67,0
28028,note_off,,,,,188,0,3,,,,,2,,,67,0
28028,note_off,,,,,188,0,5,,,,,4,,,59,0
28028,note_off,,,,,188,0,7,,,,,6,,,43,0
28028,note_off,,,,,188,0,6,,,,,5,,,55,0
28032,note_on,,,,,4,0,6,,,,,5,,,54,92
28032,note_on,,,,,4,0,5,,,,,4,,,62,92
28032,note_on,,,,,4,0,7,,,,,6,,,42,75
28032,note_on,,,,,4,0,3,,,,,2,,,67,127
28032,note_on,,,,,4,0,1,,,,,0,,,67,92
28220,note_off,,,,,188,0,7,,,,,6,,,42,0
28220,note_off,,,,,188,0,6,,,,,5,,,54,0
28220,note_off,,,,,188,0,1,,,,,0,,,67,0
28220,note_off,,,,,188,0,5,,,,,4,,,62,0
28220,note_off,,,,,188,0,3,,,,,2,,,67,0
28224,note_on,,,,,4,0,7,,,,,6,,,40,75
28224,note_on,,,,,4,0,1,,,,,0,,,67,92
28224,note_on,,,,,256,0,2,,,,,1,,,79,92
28224,note_on,,,,,256,0,4,,,,,3,,,79,127
28224,note_on,,,,,4,0,6,,,,,5,,,52,92
28224,note_on,,,,,4,0,5,,,,,4,,,64,92
28224,note_on,,,,,4,0,3,,,,,2,,,67,127
28224,note_on,,,,,1348,0,8,,,,,7,,,52,60
28224,note_on,,,,,0,0,8,,,,,7,,,55,60
28316,note_off,,,,,0,0,8,,,,,7,,,55,0
28316,note_off,,,,,92,0,8,,,,,7,,,52,0
28320,note_on,,,,,4,0,8,,,,,7,,,60,60
28412,note_off,,,,,92,0,8,,,,,7,,,60,0
28412,note_off,,,,,188,0,2,,,,,1,,,79,0
28412,note_off,,,,,188,0,1,,,,,0,,,67,0
28412,note_off,,,,,188,0,4,,,,,3,,,79,0
28412,note_off,,,,,188,0,6,,,,,5,,,52,0
28412,note_off,,,,,188,0,7,,,,,6,,,40,0
28412,note_off,,,,,188,0,3,,,,,2,,,67,0
28416,note_on,,,,,4,0,2,,,,,1,,,67,92
28416,note_on,,,,,4,0,6,,,,,5,,,55,92
28416,note_on,,,,,4,0,7,,,,,6,,,43,75
28416,note_on,,,,,4,0,4,,,,,3,,,67,127
28544,note_off,,,,,320,0,5,,,,,4,,,64,0
28604,note_off,,,,,188,0,4,,,,,3,,,67,0
28604,note_off,,,,,188,0,2,,,,,1,,,67,0
28604,note_off,,,,,188,0,7,,,,,6,,,43,0
28604,note_off,,,,,188,0,6,,,,,5,,,55,0
28608,note_on,,,,,4,0,4,,,,,3,,,67,127
28608,note_on,,,,,4,0,2,,,,,1,,,67,92
28608,note_on,,,,,4,0,6,,,,,5,,,60,92
28608,note_on,,,,,4,0,7,,,,,6,,,48,75
28608,note_on,,,,,64,0,5,,,,,4,,,64,92
28796,note_off,,,,,188,0,6,,,,,5,,,60,0
28796,note_off,,,,,188,0,5,,,,,4,,,64,0
28796,note_off,,,,,188,0,2,,,,,1,,,67,0
28796,note_off,,,,,188,0,7,,,,,6,,,48,0
28796,note_off,,,,,188,0,4,,,,,3,,,67,0
28800,note_on,,,,,4,0,5,,,,,4,,,62,92
28800,note_on,,,,,388,0,1,,,,,0,,,79,92
28800,note_on,,,,,388,0,3,,,,,2,,,79,127
28800,note_on,,,,,388,0,8,,,,,7,,,55,60
28800,note_on,,,,,4,0,7,,,,,6,,,47,75
28800,note_on,,,,,0,0,8,,,,,7,,,59,60
28800,note_on,,,,,4,0,4,,,,,3,,,67,127
28800,note_on,,,,,4,0,6,,,,,5,,,59,92
28800,note_on,,,,,4,0,2,,,,,1,,,67,92
28892,note_off,,,,,92,0,8,,,,,7,,,55,0
28892,note_off,,,,,0,0,8,,,,,7,,,59,0
28896,note_on,,,,,4,0,8,,,,,7,,,62,60
28988,note_off,,,,,188,0,3,,,,,2,,,79,0
28988,note_off,,,,,188,0,1,,,,,0,,,79,0
28988,note_off,,,,,188,0,5,,,,,4,,,62,0
28988,note_off,,,,,188,0,6,,,,,5,,,59,0
28988,note_off,,,,,188,0,7,,,,,6,,,47,0
28988,note_off,,,,,92,0,8,,,,,7,,,62,0
28992,note_on,,,,,4,0,5,,,,,4,,,60,92
28992,note_on,,,,,4,0,1,,,,,0,,,67,92
28992,note_on,,,,,4,0,6,,,,,5,,,57,92
28992,note_on,,,,,4,0,7,,,,,6,,,45,75
28992,note_on,,,,,4,0,3,,,,,2,,,67,127
29120,note_off,,,,,320,0,2,,,,,1,,,67,0
29120,note_off,,,,,320,0,4,,,,,3,,,67,0
29180,note_off,,,,,188,0,3,,,,,2,,,67,0
29180,note_off,,,,,188,0,6,,,,,5,,,57,0
29180,note_off,,,,,188,0,1,,,,,0,,,67,0
29180,note_off,,,,,188,0,5,,,,,4,,,60,0
29180,note_off,,,,,188,0,7,,,,,6,,,45,0
29184,note_on,,,,,4,0,6,,,,,5,,,55,92
29184,note_on,,,,,4,0,7,,,,,6,,,43,75
29184,note_on,,,,,4,0,5,,,,,4,,,59,92
29184,note_on,,,,,4,0,1,,,,,0,,,67,92
29184,note_on,,,,,4,0,3,,,,,2,,,67,127
29372,note_off,,,,,188,0,3,,,,,2,,,67,0
29372,note_off,,,,,188,0,5,,,,,4,,,59,0
29372,note_off,,,,,188,0,6,,,,,5,,,55,0
29372,note_off,,,,,188,0,1,,,,,0,,,67,0
29372,note_off,,,,,188,0,7,,,,,6,,,43,0
29376,note_on,,,,,4,0,5,,,,,4,,,64,92
29376,note_on,,,,,256,0,4,,,,,3,,,67,127
29376,note_on,,,,,256,0,2,,,,,1,,,67,92
29376,note_on,,,,,4,0,7,,,,,6,,,48,75
29376,note_on,,,,,4,0,3,,,,,2,,,76,127
29376,note_on,,,,,4,0,6,,,,,5,,,60,92
29376,note_on,,,,,4,0,1,,,,,0,,,76,92
29564,note_off,,,,,188,0,4,,,,,3,,,67,0
29564,note_off,,,,,188,0,3,,,,,2,,,76,0
29564,note_off,,,,,188,0,6,,,,,5,,,60,0
29564,note_off,,,,,188,0,1,,,,,0,,,76,0
29564,note_off,,,,,188,0,7,,,,,6,,,48,0
29564,note_off,,,,,188,0,5,,,,,4,,,64,0
29564,note_off,,,,,188,0,2,,,,,1,,,67,0
29568,note_on,,,,,4,0,4,,,,,3,,,69,127
29568,note_on,,,,,4,0,6,,,,,5,,,54,92
29568,note_on,,,,,4,0,5,,,,,4,,,57,92
29568,note_on,,,,,580,0,8,,,,,7,,,54,60
29568,note_on,,,,,4,0,2,,,,,1,,,69,92
29568,note_on,,,,,0,0,8,,,,,7,,,57,60
29568,note_on,,,,,4,0,1,,,,,0,,,74,92
29568,note_on,,,,,4,0,7,,,,,6,,,42,75
29568,note_on,,,,,4,0,3,,,,,2,,,74,127
29660,note_off,,,,,0,0,8,,,,,7,,,57,0
29660,note_off,,,,,92,0,8,,,,,7,,,54,0
29664,note_on,,,,,4,0,8,,,,,7,,,62,60
29756,note_off,,,,,188,0,7,,,,,6,,,42,0
29756,note_off,,,,,92,0,8,,,,,7,,,62,0
29756,note_off,,,,,188,0,1,,,,,0,,,74,0
29756,note_off,,,,,188,0,2,,,,,1,,,69,0
29756,note_off,,,,,188,0,6,,,,,5,,,54,0
29756,note_off,,,,,188,0,3,,,,,2,,,74,0
29756,note_off,,,,,188,0,4,,,,,3,,,69,0
29756,note_off,,,,,188,0,5,,,,,4,,,57,0
29952,note_on,,,,,196,0,6,,,,,5,,,55,92
29952,note_on,,,,,196,0,3,,,,,2,,,83,127
29952,note_on,,,,,196,0,5,,,,,4,,,67,92
29952,note_on,,,,,196,0,7,,,,,6,,,43,75
29952,note_on,,,,,196,0,1,,,,,0,,,83,92
29952,note_on,,,,,196,0,2,,,,,1,,,62,92
29952,note_on,,,,,196,0,4,,,,,3,,,62,127
30044,note_off,,,,,92,0,3,,,,,2,,,83,0
30044,note_off,,,,,92,0,1,,,,,0,,,83,0
30048,note_on,,,,,4,0,3,,,,,2,,,81,127
30048,note_on,,,,,4,0,1,,,,,0,,,81,92
30140,note_off,,,,,188,0,5,,,,,4,,,67,0
30140,note_off,,,,,92,0,1,,,,,0,,,81,0
30140,note_off,,,,,188,0,6,,,,,5,,,55,0
30140,note_off,,,,,92,0,3,,,,,2,,,81,0
30140,note_off,,,,,188,0,7,,,,,6,,,43,0
30144,note_on,,,,,4,0,3,,,,,2,,,79,127
30144,note_on,,,,,4,0,1,,,,,0,,,79,92
30144,note_on,,,,,0,0,8,,,,,7,,,50,60
30144,note_on,,,,,4,0,5,,,,,4,,,62,92
30144,note_on,,,,,4,0,7,,,,,6,,,47,75
30144,note_on,,,,,388,0,8,,,,,7,,,47,60
30144,note_on,,,,,4,0,6,,,,,5,,,59,92
30236,note_off,,,,,92,0,8,,,,,7,,,47,0
30236,note_off,,,,,0,0,8,,,,,7,,,50,0
30236,note_off,,,,,92,0,3,,,,,2,,,79,0
30236,note_off,,,,,92,0,1,,,,,0,,,79,0
30240,note_on,,,,,4,0,8,,,,,7,,,55,60
30240,note_on,,,,,4,0,3,,,,,2,,,78,127
30240,note_on,,,,,4,0,1,,,,,0,,,78,92
30272,note_off,,,,,320,0,4,,,,,3,,,62,0
30272,note_off,,,,,320,0,2,,,,,1,,,62,0
30332,note_off,,,,,92,0,3,,,,,2,,,78,0
30332,note_off,,,,,188,0,7,,,,,6,,,47,0
30332,note_off,,,,,92,0,8,,,,,7,,,55,0
30332,note_off,,,,,92,0,1,,,,,0,,,78,0
30332,note_off,,,,,188,0,5,,,,,4,,,62,0
30332,note_off,,,,,188,0,6,,,,,5,,,59,0
30336,note_on,,,,,4,0,7,,,,,6,,,43,75
30336,note_on,,,,,4,0,3,,,,,2,,,76,127
30336,note_on,,,,,4,0,6,,,,,5,,,55,92
30336,note_on,,,,,4,0,1,,,,,0,,,76,92
30336,note_on,,,,,4,0,5,,,,,4,,,67,92
30428,note_off,,,,,92,0,1,,,,,0,,,76,0
30428,note_off,,,,,92,0,3,,,,,2,,,76,0
30432,note_on,,,,,4,0,3,,,,,2,,,74,127
30432,note_on,,,,,4,0,1,,,,,0,,,74,92
30524,note_off,,,,,188,0,5,,,,,4,,,67,0
30524,note_off,,,,,188,0,7,,,,,6,,,43,0
30524,note_off,,,,,92,0,3,,,,,2,,,74,0
30524,note_off,,,,,92,0,1,,,,,0,,,74,0
30524,note_off,,,,,188,0,6,,,,,5,,,55,0
30528,note_on,,,,,4,0,3,,,,,2,,,72,127
30528,note_on,,,,,4,0,7,,,,,6,,,48,75
30528,note_on,,,,,256,0,4,,,,,3,,,76,127
30528,note_on,,,,,256,0,2,,,,,1,,,76,92
30528,note_on,,,,,4,0,1,,,,,0,,,72,92
30528,note_on,,,,,4,0,5,,,,,4,,,67,92
30528,note_on,,,,,4,0,6,,,,,5,,,60,92
30620,note_off,,,,,92,0,4,,,,,3,,,76,0
30620,note_off,,,,,92,0,1,,,,,0,,,72,0
30620,note_off,,,,,92,0,2,,,,,1,,,76,0
30620,note_off,,,,,92,0,3,,,,,2,,,72,0
30624,note_on,,,,,4,0,2,,,,,1,,,74,92
30624,note_on,,,,,4,0,4,,,,,3,,,74,127
30624,note_on,,,,,4,0,3,,,,,2,,,71,127
30624,note_on,,,,,4,0,1,,,,,0,,,71,92
30716,note_off,,,,,92,0,1,,,,,0,,,71,0
30716,note_off,,,,,188,0,7,,,,,6,,,48,0
30716,note_off,,,,,188,0,6,,,,,5,,,60,0
30716,note_off,,,,,92,0,4,,,,,3,,,74,0
30716,note_off,,,,,188,0,5,,,,,4,,,67,0
30716,note_off,,,,,92,0,3,,,,,2,,,71,0
30716,note_off,,,,,92,0,2,,,,,1,,,74,0
30720,note_on,,,,,4,0,2,,,,,1,,,72,92
30720,note_on,,,,,4,0,7,,,,,6,,,36,75
30720,note_on,,,,,4,0,3,,,,,2,,,69,127
30720,note_on,,,,,4,0,4,,,,,3,,,72,127
30720,note_on,,,,,4,0,1,,,,,0,,,69,92
30720,note_on,,,,,4,0,5,,,,,4,,,69,92
30720,note_on,,,,,4,0,6,,,,,5,,,48,92
30812,note_off,,,,,92,0,2,,,,,1,,,72,0
30812,note_off,,,,,92,0,4,,,,,3,,,72,0
30812,note_off,,,,,92,0,1,,,,,0,,,69,0
30812,note_off,,,,,92,0,3,,,,,2,,,69,0
30816,note_on,,,,,4,0,2,,,,,1,,,71,92
30816,note_on,,,,,4,0,3,,,,,2,,,67,127
30816,note_on,,,,,4,0,1,,,,,0,,,67,92
30816,note_on,,,,,4,0,4,,,,,3,,,71,127
30908,note_off,,,,,92,0,2,,,,,1,,,71,0
30908,note_off,,,,,188,0,5,,,,,4,,,69,0
30908,note_off,,,,,188,0,6,,,,,5,,,48,0
30908,note_off,,,,,92,0,4,,,,,3,,,71,0
30908,note_off,,,,,92,0,1,,,,,0,,,67,0
30908,note_off,,,,,188,0,7,,,,,6,,,36,0
30908,note_off,,,,,92,0,3,,,,,2,,,67,0
30912,note_on,,,,,4,0,4,,,,,3,,,69,127
30912,note_on,,,,,4,0,1,,,,,0,,,66,92
30912,note_on,,,,,4,0,2,,,,,1,,,69,92
30912,note_on,,,,,4,0,3,,,,,2,,,66,127
31004,note_off,,,,,92,0,2,,,,,1,,,69,0
31004,note_off,,,,,92,0,3,,,,,2,,,66,0
31004,note_off,,,,,92,0,1,,,,,0,,,66,0
31004,note_off,,,,,92,0,4,,,,,3,,,69,0
31008,note_on,,,,,4,0,1,,,,,0,,,64,92
31008,note_on,,,,,4,0,3,,,,,2,,,64,127
31008,note_on,,,,,4,0,2,,,,,1,,,67,92
31008,note_on,,,,,4,0,4,,,,,3,,,67,127
31100,note_off,,,,,92,0,3,,,,,2,,,64,0
31100,note_off,,,,,92,0,1,,,,,0,,,64,0
31100,note_off,,,,,92,0,2,,,,,1,,,67,0
31100,note_off,,,,,92,0,4,,,,,3,,,67,0
31104,note_on,,,,,196,0,5,,,,,4,,,69,92
31104,note_on,,,,,4,0,2,,,,,1,,,66,92
31104,note_on,,,,,196,0,6,,,,,5,,,50,92
31104,note_on,,,,,4,0,1,,,,,0,,,62,92
31104,note_on,,,,,4,0,4,,,,,3,,,66,127
31104,note_on,,,,,4,0,3,,,,,2,,,62,127
31104,note_on,,,,,196,0,7,,,,,6,,,38,75
31292,note_off,,,,,188,0,1,,,,,0,,,62,0
31292,note_off,,,,,188,0,7,,,,,6,,,38,0
31292,note_off,,,,,188,0,3,,,,,2,,,62,0
31292,note_off,,,,,188,0,2,,,,,1,,,66,0
31292,note_off,,,,,188,0,4,,,,,3,,,66,0
31292,note_off,,,,,188,0,6,,,,,5,,,50,0
31292,note_off,,,,,188,0,5,,,,,4,,,69,0
31296,note_on,,,,,4,0,1,,,,,0,,,72,92
31296,note_on,,,,,4,0,2,,,,,1,,,69,92
31296,note_on,,,,,4,0,7,,,,,6,,,30,75
31296,note_on,,,,,4,0,4,,,,,3,,,69,127
31296,note_on,,,,,4,0,3,,,,,2,,,72,127
31296,note_on,,,,,4,0,6,,,,,5,,,42,92
31296,note_on,,,,,4,0,5,,,,,4,,,62,92
31484,note_off,,,,,188,0,1,,,,,0,,,72,0
31484,note_off,,,,,188,0,6,,,,,5,,,42,0
31484,note_off,,,,,188,0,5,,,,,4,,,62,0
31484,note_off,,,,,188,0,4,,,,,3,,,69,0
31484,note_off,,,,,188,0,3,,,,,2,,,72,0
31484,note_off,,,,,188,0,7,,,,,6,,,30,0
31484,note_off,,,,,188,0,2,,,,,1,,,69,0
31488,note_on,,,,,4,0,1,,,,,0,,,71,92
31488,note_on,,,,,4,0,3,,,,,2,,,71,127
31488,note_on,,,,,4,0,6,,,,,5,,,43,92
31488,note_on,,,,,4,0,2,,,,,1,,,67,92
31488,note_on,,,,,4,0,5,,,,,4,,,62,92
31488,note_on,,,,,0,0,8,,,,,7,,,48,60
31488,note_on,,,,,4,0,7,,,,,6,,,31,75
31488,note_on,,,,,4,0,4,,,,,3,,,67,127
31488,note_on,,,,,1156,0,8,,,,,7,,,42,60
31580,note_off,,,,,92,0,8,,,,,7,,,42,0
31580,note_off,,,,,0,0,8,,,,,7,,,48,0
31584,note_on,,,,,4,0,8,,,,,7,,,50,60
31676,note_off,,,,,188,0,2,,,,,1,,,67,0
31676,note_off,,,,,188,0,4,,,,,3,,,67,0
31676,note_off,,,,,188,0,1,,,,,0,,,71,0
31676,note_off,,,,,188,0,7,,,,,6,,,31,0
31676,note_off,,,,,92,0,8,,,,,7,,,50,0
31676,note_off,,,,,188,0,5,,,,,4,,,62,0
31676,note_off,,,,,188,0,6,,,,,5,,,43,0
31676,note_off,,,,,188,0,3,,,,,2,,,71,0
31680,note_on,,,,,4,0,6,,,,,5,,,50,92
31680,note_on,,,,,4,0,4,,,,,3,,,67,127
31680,note_on,,,,,4,0,1,,,,,0,,,71,92
31680,note_on,,,,,4,0,2,,,,,1,,,67,92
31680,note_on,,,,,4,0,3,,,,,2,,,71,127
31680,note_on,,,,,4,0,7,,,,,6,,,38,75
31680,note_on,,,,,4,0,5,,,,,4,,,62,92
31724,note_off,,,,,44,0,3,,,,,2,,,71,0
31728,note_on,,,,,0,0,2,,,,,1,,,66,92
31728,note_off,,,,,48,0,4,,,,,3,,,67,0
31728,note_on,,,,,0,0,4,,,,,3,,,66,127
31728,note_off,,,,,48,0,1,,,,,0,,,71,0
31728,note_on,,,,,0,0,1,,,,,0,,,69,92
31728,note_on,,,,,4,0,3,,,,,2,,,69,127
31728,note_off,,,,,48,0,2,,,,,1,,,67,0
31772,note_off,,,,,44,0,3,,,,,2,,,69,0
31776,note_on,,,,,0,0,2,,,,,1,,,67,92
31776,note_on,,,,,4,0,3,,,,,2,,,71,127
31776,note_off,,,,,48,0,2,,,,,1,,,66,0
31776,note_off,,,,,48,0,4,,,,,3,,,66,0
31776,note_on,,,,,0,0,1,,,,,0,,,71,92
31776,note_off,,,,,48,0,1,,,,,0,,,69,0
31776,note_on,,,,,0,0,4,,,,,3,,,67,127
31820,note_off,,,,,44,0,3,,,,,2,,,71,0
31824,note_on,,,,,4,0,3,,,,,2,,,69,127
31824,note_on,,,,,0,0,4,,,,,3,,,66,127
31824,note_on,,,,,0,0,1,,,,,0,,,69,92
31824,note_off,,,,,48,0,1,,,,,0,,,71,0
31824,note_off,,,,,48,0,4,,,,,3,,,67,0
31824,note_on,,,,,0,0,2,,,,,1,,,66,92
31824,note_off,,,,,48,0,2,,,,,1,,,67,0
31868,note_off,,,,,44,0,3,,,,,2,,,69,0
31872,note_on,,,,,0,0,2,,,,,1,,,67,92
31872,note_off,,,,,48,0,1,,,,,0,,,69,0
31872,note_on,,,,,4,0,3,,,,,2,,,71,127
31872,note_on,,,,,0,0,1,,,,,0,,,71,92
31872,note_off,,,,,48,0,2,,,,,1,,,66,0
31872,note_off,,,,,48,0,4,,,,,3,,,66,0
31872,note_on,,,,,0,0,4,,,,,3,,,67,127
31916,note_off,,,,,44,0,3,,,,,2,,,71,0
31920,note_off,,,,,48,0,1,,,,,0,,,71,0
31920,note_on,,,,,0,0,1,,,,,0,,,69,92
31920,note_off,,,,,48,0,2,,,,,1,,,67,0
31920,note_on,,,,,0,0,4,,,,,3,,,66,127
31920,note_on,,,,,4,0,3,,,,,2,,,69,127
31920,note_on,,,,,0,0,2,,,,,1,,,66,92
31920,note_off,,,,,48,0,4,,,,,3,,,67,0
32000,note_off,,,,,320,0,6,,,,,5,,,50,0
32000,note_off,,,,,320,0,5,,,,,4,,,62,0
32000,note_off,,,,,320,0,7,,,,,6,,,38,0
32060,note_off,,,,,140,0,1,,,,,0,,,69,0
32060,note_off,,,,,140,0,2,,,,,1,,,66,0
32060,note_off,,,,,140,0,4,,,,,3,,,66,0
32060,note_off,,,,,140,0,3,,,,,2,,,69,0
32256,note_on,,,,,196,0,2,,,,,1,,,78,60
32256,note_on,,,,,196,0,1,,,,,0,,,81,60
32444,note_off,,,,,188,0,2,,,,,1,,,78,0
32444,note_off,,,,,188,0,1,,,,,0,,,81,0
32448,note_on,,,,,4,0,1,,,,,0,,,83,60
32448,note_on,,,,,4,0,2,,,,,1,,,79,60
32636,note_off,,,,,188,0,2,,,,,1,,,79,0
32636,note_off,,,,,188,0,1,,,,,0,,,83,0
32640,note_on,,,,,4,0,2,,,,,1,,,81,60
32640,note_on,,,,,4,0,1,,,,,0,,,84,60
32828,note_off,,,,,188,0,1,,,,,0,,,84,0
32828,note_off,,,,,188,0,2,,,,,1,,,81,0
32832,note_on,,,,,4,0,2,,,,,1,,,79,60
32832,note_on,,,,,4,0,1,,,,,0,,,83,60
32924,note_off,,,,,92,0,2,,,,,1,,,79,0
32924,note_off,,,,,92,0,1,,,,,0,,,83,0
32928,note_on,,,,,4,0,1,,,,,0,,,84,60
32928,note_on,,,,,4,0,2,,,,,1,,,81,60
33020,note_off,,,,,92,0,1,,,,,0,,,84,0
33020,note_off,,,,,92,0,2,,,,,1,,,81,0
33024,note_on,,,,,4,0,2,,,,,1,,,83,60
33024,note_on,,,,,4,0,1,,,,,0,,,86,60
33212,note_off,,,,,188,0,2,,,,,1,,,83,0
33212,note_off,,,,,188,0,1,,,,,0,,,86,0
33408,note_on,,,,,1408,0,5,,,,,4,,,62,92
33408,note_on,,,,,196,0,2,,,,,1,,,66,92
33408,note_on,,,,,1408,0,6,,,,,5,,,50,92
33408,note_on,,,,,1348,0,4,,,,,3,,,66,127
33408,note_on,,,,,1348,0,3,,,,,2,,,69,127
33408,note_on,,,,,1408,0,7,,,,,6,,,38,75
33408,note_on,,,,,196,0,1,,,,,0,,,69,92
33596,note_off,,,,,188,0,1,,,,,0,,,69,0
33596,note_off,,,,,188,0,7,,,,,6,,,38,0
33596,note_off,,,,,188,0,4,,,,,3,,,66,0
33596,note_off,,,,,188,0,3,,,,,2,,,69,0
33596,note_off,,,,,188,0,6,,,,,5,,,50,0
33596,note_off,,,,,188,0,2,,,,,1,,,66,0
33596,note_off,,,,,188,0,5,,,,,4,,,62,0
33600,note_on,,,,,4,0,3,,,,,2,,,71,127
33600,note_on,,,,,4,0,2,,,,,1,,,67,92
33600,note_on,,,,,4,0,1,,,,,0,,,71,92
33600,note_on,,,,,4,0,4,,,,,3,,,67,127
33600,note_on,,,,,4,0,7,,,,,6,,,43,75
33600,note_on,,,,,4,0,6,,,,,5,,,55,92
33600,note_on,,,,,4,0,5,,,,,4,,,62,92
33788,note_off,,,,,188,0,3,,,,,2,,,71,0
33788,note_off,,,,,188,0,4,,,,,3,,,67,0
33788,note_off,,,,,188,0,2,,,,,1,,,67,0
33788,note_off,,,,,188,0,5,,,,,4,,,62,0
33788,note_off,,,,,188,0,7,,,,,6,,,43,0
33788,note_off,,,,,188,0,1,,,,,0,,,71,0
33788,note_off,,,,,188,0,6,,,,,5,,,55,0
33792,note_on,,,,,4,0,1,,,,,0,,,72,92
33792,note_on,,,,,0,0,8,,,,,7,,,48,60
33792,note_on,,,,,2116,0,8,,,,,7,,,42,60
33792,note_on,,,,,4,0,7,,,,,6,,,42,75
33792,note_on,,,,,4,0,6,,,,,5,,,54,92
33792,note_on,,,,,4,0,3,,,,,2,,,72,127
33792,note_on,,,,,4,0,2,,,,,1,,,69,92
33792,note_on,,,,,4,0,5,,,,,4,,,62,92
33792,note_on,,,,,4,0,4,,,,,3,,,69,127
33884,note_off,,,,,0,0,8,,,,,7,,,48,0
33884,note_off,,,,,92,0,8,,,,,7,,,42,0
33888,note_on,,,,,4,0,8,,,,,7,,,50,60
33980,note_off,,,,,188,0,7,,,,,6,,,42,0
33980,note_off,,,,,188,0,4,,,,,3,,,69,0
33980,note_off,,,,,92,0,8,,,,,7,,,50,0
33980,note_off,,,,,188,0,6,,,,,5,,,54,0
33980,note_off,,,,,188,0,3,,,,,2,,,72,0
33980,note_off,,,,,188,0,5,,,,,4,,,62,0
33980,note_off,,,,,188,0,1,,,,,0,,,72,0
33980,note_off,,,,,188,0,2,,,,,1,,,69,0
33984,note_on,,,,,4,0,6,,,,,5,,,55,92
33984,note_on,,,,,4,0,7,,,,,6,,,43,75
33984,note_on,,,,,4,0,5,,,,,4,,,62,92
33984,note_on,,,,,4,0,1,,,,,0,,,71,92
33984,note_on,,,,,4,0,4,,,,,3,,,67,127
33984,note_on,,,,,4,0,3,,,,,2,,,71,127
33984,note_on,,,,,4,0,2,,,,,1,,,67,92
34172,note_off,,,,,188,0,1,,,,,0,,,71,0
34172,note_off,,,,,188,0,4,,,,,3,,,67,0
34172,note_off,,,,,188,0,5,,,,,4,,,62,0
34172,note_off,,,,,188,0,3,,,,,2,,,71,0
34172,note_off,,,,,188,0,7,,,,,6,,,43,0
34172,note_off,,,,,188,0,6,,,,,5,,,55,0
34172,note_off,,,,,188,0,2,,,,,1,,,67,0
34176,note_on,,,,,4,0,7,,,,,6,,,38,75
34176,note_on,,,,,4,0,6,,,,,5,,,50,92
34176,note_on,,,,,4,0,2,,,,,1,,,66,92
34176,note_on,,,,,4,0,1,,,,,0,,,69,92
34176,note_on,,,,,4,0,5,,,,,4,,,62,92
34176,note_on,,,,,4,0,3,,,,,2,,,69,127
34176,note_on,,,,,4,0,4,,,,,3,,,66,127
34364,note_off,,,,,188,0,1,,,,,0,,,69,0
34364,note_off,,,,,188,0,3,,,,,2,,,69,0
34364,note_off,,,,,188,0,2,,,,,1,,,66,0
34364,note_off,,,,,188,0,5,,,,,4,,,62,0
34364,note_off,,,,,188,0,6,,,,,5,,,50,0
34364,note_off,,,,,188,0,7,,,,,6,,,38,0
34364,note_off,,,,,188,0,4,,,,,3,,,66,0
34560,note_on,,,,,196,0,1,,,,,0,,,81,60
34560,note_on,,,,,196,0,2,,,,,1,,,78,60
34748,note_off,,,,,188,0,2,,,,,1,,,78,0
34748,note_off,,,,,188,0,1,,,,,0,,,81,0
34752,note_on,,,,,4,0,2,,,,,1,,,79,60
34752,note_on,,,,,4,0,1,,,,,0,,,83,60
34940,note_off,,,,,188,0,2,,,,,1,,,79,0
34940,note_off,,,,,188,0,1,,,,,0,,,83,0
34944,note_on,,,,,4,0,1,,,,,0,,,84,60
34944,note_on,,,,,4,0,2,,,,,1,,,81,60
35132,note_off,,,,,188,0,2,,,,,1,,,81,0
35132,note_off,,,,,188,0,1,,,,,0,,,84,0
35136,note_on,,,,,4,0,2,,,,,1,,,79,60
35136,note_on,,,,,4,0,1,,,,,0,,,83,60
35228,note_off,,,,,92,0,2,,,,,1,,,79,0
35228,note_off,,,,,92,0,1,,,,,0,,,83,0
35232,note_on,,,,,4,0,1,,,,,0,,,84,60
35232,note_on,,,,,4,0,2,,,,,1,,,81,60
35324,note_off,,,,,92,0,1,,,,,0,,,84,0
35324,note_off,,,,,92,0,2,,,,,1,,,81,0
35328,note_on,,,,,4,0,2,,,,,1,,,83,60
35328,note_on,,,,,4,0,1,,,,,0,,,86,60
35516,note_off,,,,,188,0,1,,,,,0,,,86,0
35516,note_off,,,,,188,0,2,,,,,1,,,83,0
35712,note_on,,,,,1348,0,4,,,,,3,,,66,127
35712,note_on,,,,,196,0,2,,,,,1,,,66,92
35712,note_on,,,,,196,0,1,,,,,0,,,69,92
35712,note_on,,,,,1348,0,3,,,,,2,,,69,127
35712,note_on,,,,,1348,0,7,,,,,6,,,38,75
35712,note_on,,,,,1348,0,5,,,,,4,,,62,92
35712,note_on,,,,,1348,0,6,,,,,5,,,50,92
35900,note_off,,,,,188,0,6,,,,,5,,,50,0
35900,note_off,,,,,188,0,7,,,,,6,,,38,0
35900,note_off,,,,,188,0,5,,,,,4,,,62,0
35900,note_off,,,,,188,0,2,,,,,1,,,66,0
35900,note_off,,,,,188,0,1,,,,,0,,,69,0
35900,note_off,,,,,188,0,3,,,,,2,,,69,0
35900,note_off,,,,,188,0,4,,,,,3,,,66,0
35904,note_on,,,,,4,0,3,,,,,2,,,71,127
35904,note_on,,,,,4,0,2,,,,,1,,,67,92
35904,note_on,,,,,4,0,4,,,,,3,,,67,127
35904,note_on,,,,,4,0,5,,,,,4,,,62,92
35904,note_on,,,,,4,0,7,,,,,6,,,43,75
35904,note_on,,,,,4,0,6,,,,,5,,,55,92
35904,note_on,,,,,4,0,1,,,,,0,,,71,92
36092,note_off,,,,,188,0,4,,,,,3,,,67,0
36092,note_off,,,,,188,0,3,,,,,2,,,71,0
36092,note_off,,,,,188,0,5,,,,,4,,,62,0
36092,note_off,,,,,188,0,6,,,,,5,,,55,0
36092,note_off,,,,,188,0,2,,,,,1,,,67,0
36092,note_off,,,,,188,0,1,,,,,0,,,71,0
36092,note_off,,,,,188,0,7,,,,,6,,,43,0
36096,note_on,,,,,4,0,3,,,,,2,,,72,127
36096,note_on,,,,,4,0,4,,,,,3,,,69,127
36096,note_on,,,,,4,0,1,,,,,0,,,72,92
36096,note_on,,,,,4,0,5,,,,,4,,,62,92
36096,note_on,,,,,2116,0,8,,,,,7,,,42,60
36096,note_on,,,,,0,0,8,,,,,7,,,48,60
36096,note_on,,,,,4,0,7,,,,,6,,,42,75
36096,note_on,,,,,4,0,6,,,,,5,,,54,92
36096,note_on,,,,,4,0,2,,,,,1,,,69,92
36188,note_off,,,,,92,0,8,,,,,7,,,42,0
36188,note_off,,,,,0,0,8,,,,,7,,,48,0
36192,note_on,,,,,4,0,8,,,,,7,,,50,60
36284,note_off,,,,,188,0,4,,,,,3,,,69,0
36284,note_off,,,,,188,0,1,,,,,0,,,72,0
36284,note_off,,,,,188,0,7,,,,,6,,,42,0
36284,note_off,,,,,188,0,6,,,,,5,,,54,0
36284,note_off,,,,,92,0,8,,,,,7,,,50,0
36284,note_off,,,,,188,0,5,,,,,4,,,62,0
36284,note_off,,,,,188,0,3,,,,,2,,,72,0
36284,note_off,,,,,188,0,2,,,,,1,,,69,0
36288,note_on,,,,,4,0,4,,,,,3,,,67,127
36288,note_on,,,,,4,0,3,,,,,2,,,71,127
36288,note_on,,,,,4,0,6,,,,,5,,,55,92
36288,note_on,,,,,4,0,1,,,,,0,,,71,92
36288,note_on,,,,,4,0,5,,,,,4,,,62,92
36288,note_on,,,,,4,0,2,,,,,1,,,67,92
36288,note_on,,,,,4,0,7,,,,,6,,,43,75
36476,note_off,,,,,188,0,6,,,,,5,,,55,0
36476,note_off,,,,,188,0,2,,,,,1,,,67,0
36476,note_off,,,,,188,0,4,,,,,3,,,67,0
36476,note_off,,,,,188,0,5,,,,,4,,,62,0
36476,note_off,,,,,188,0,1,,,,,0,,,71,0
36476,note_off,,,,,188,0,3,,,,,2,,,71,0
36476,note_off,,,,,188,0,7,,,,,6,,,43,0
36480,note_on,,,,,4,0,2,,,,,1,,,66,92
36480,note_on,,,,,4,0,3,,,,,2,,,69,127
36480,note_on,,,,,4,0,1,,,,,0,,,69,92
36480,note_on,,,,,4,0,7,,,,,6,,,38,75
36480,note_on,,,,,4,0,6,,,,,5,,,50,92
36480,note_on,,,,,4,0,4,,,,,3,,,66,127
36480,note_on,,,,,4,0,5,,,,,4,,,62,92
36668,note_off,,,,,188,0,2,,,,,1,,,66,0
36668,note_off,,,,,188,0,3,,,,,2,,,69,0
36668,note_off,,,,,188,0,1,,,,,0,,,69,0
36668,note_off,,,,,188,0,6,,,,,5,,,50,0
36668,note_off,,,,,188,0,4,,,,,3,,,66,0
36668,note_off,,,,,188,0,7,,,,,6,,,38,0
36668,note_off,,,,,188,0,5,,,,,4,,,62,0
36864,note_on,,,,,0,0,8,,,,,7,,,52,60
36864,note_on,,,,,196,0,4,,,,,3,,,69,127
36864,note_on,,,,,196,0,7,,,,,6,,,37,75
36864,note_on,,,,,196,0,5,,,,,4,,,64,92
36864,note_on,,,,,580,0,8,,,,,7,,,49,60
36864,note_on,,,,,196,0,6,,,,,5,,,49,92
36864,note_on,,,,,196,0,2,,,,,1,,,69,92
36956,note_off,,,,,92,0,8,,,,,7,,,49,0
36956,note_off,,,,,0,0,8,,,,,7,,,52,0
36960,note_on,,,,,292,0,1,,,,,0,,,76,92
36960,note_on,,,,,292,0,3,,,,,2,,,76,127
36960,note_on,,,,,4,0,8,,,,,7,,,57,60
37052,note_off,,,,,92,0,1,,,,,0,,,76,0
37052,note_off,,,,,188,0,7,,,,,6,,,37,0
37052,note_off,,,,,188,0,6,,,,,5,,,49,0
37052,note_off,,,,,188,0,5,,,,,4,,,64,0
37052,note_off,,,,,188,0,4,,,,,3,,,69,0
37052,note_off,,,,,188,0,2,,,,,1,,,69,0
37052,note_off,,,,,92,0,3,,,,,2,,,76,0
37052,note_off,,,,,92,0,8,,,,,7,,,57,0
37056,note_on,,,,,4,0,3,,,,,2,,,81,127
37056,note_on,,,,,4,0,7,,,,,6,,,37,75
37056,note_on,,,,,4,0,6,,,,,5,,,49,92
37056,note_on,,,,,4,0,5,,,,,4,,,64,92
37056,note_on,,,,,4,0,4,,,,,3,,,69,127
37056,note_on,,,,,4,0,1,,,,,0,,,81,92
37056,note_on,,,,,4,0,2,,,,,1,,,69,92
37148,note_off,,,,,92,0,1,,,,,0,,,81,0
37148,note_off,,,,,92,0,3,,,,,2,,,81,0
37152,note_on,,,,,4,0,1,,,,,0,,,79,92
37152,note_on,,,,,4,0,3,,,,,2,,,79,127
37244,note_off,,,,,188,0,7,,,,,6,,,37,0
37244,note_off,,,,,188,0,2,,,,,1,,,69,0
37244,note_off,,,,,188,0,4,,,,,3,,,69,0
37244,note_off,,,,,92,0,1,,,,,0,,,79,0
37244,note_off,,,,,188,0,5,,,,,4,,,64,0
37244,note_off,,,,,188,0,6,,,,,5,,,49,0
37244,note_off,,,,,92,0,3,,,,,2,,,79,0
37248,note_on,,,,,4,0,1,,,,,0,,,78,92
37248,note_on,,,,,4,0,6,,,,,5,,,49,92
37248,note_on,,,,,4,0,3,,,,,2,,,78,127
37248,note_on,,,,,4,0,5,,,,,4,,,64,92
37248,note_on,,,,,4,0,2,,,,,1,,,69,92
37248,note_on,,,,,4,0,4,,,,,3,,,69,127
37248,note_on,,,,,4,0,7,,,,,6,,,37,75
37340,note_off,,,,,92,0,3,,,,,2,,,78,0
37340,note_off,,,,,92,0,1,,,,,0,,,78,0
37344,note_on,,,,,4,0,1,,,,,0,,,76,92
37344,note_on,,,,,4,0,3,,,,,2,,,76,127
37436,note_off,,,,,188,0,5,,,,,4,,,64,0
37436,note_off,,,,,188,0,2,,,,,1,,,69,0
37436,note_off,,,,,92,0,1,,,,,0,,,76,0
37436,note_off,,,,,188,0,4,,,,,3,,,69,0
37436,note_off,,,,,188,0,7,,,,,6,,,37,0
37436,note_off,,,,,188,0,6,,,,,5,,,49,0
37436,note_off,,,,,92,0,3,,,,,2,,,76,0
37440,note_on,,,,,4,0,2,,,,,1,,,81,92
37440,note_on,,,,,4,0,3,,,,,2,,,78,127
37440,note_on,,,,,4,0,6,,,,,5,,,50,92
37440,note_on,,,,,4,0,1,,,,,0,,,78,92
37440,note_on,,,,,4,0,4,,,,,3,,,81,127
37440,note_on,,,,,4,0,5,,,,,4,,,62,92
37440,note_on,,,,,4,0,7,,,,,6,,,38,75
37532,note_off,,,,,92,0,4,,,,,3,,,81,0
37532,note_off,,,,,92,0,2,,,,,1,,,81,0
37536,note_on,,,,,4,0,2,,,,,1,,,69,92
37536,note_on,,,,,4,0,4,,,,,3,,,69,127
37628,note_off,,,,,92,0,2,,,,,1,,,69,0
37628,note_off,,,,,188,0,1,,,,,0,,,78,0
37628,note_off,,,,,188,0,7,,,,,6,,,38,0
37628,note_off,,,,,188,0,3,,,,,2,,,78,0
37628,note_off,,,,,188,0,6,,,,,5,,,50,0
37628,note_off,,,,,188,0,5,,,,,4,,,62,0
37628,note_off,,,,,92,0,4,,,,,3,,,69,0
37632,note_on,,,,,4,0,2,,,,,1,,,74,92
37632,note_on,,,,,4,0,3,,,,,2,,,81,127
37632,note_on,,,,,4,0,5,,,,,4,,,62,92
37632,note_on,,,,,4,0,7,,,,,6,,,38,75
37632,note_on,,,,,4,0,1,,,,,0,,,81,92
37632,note_on,,,,,4,0,4,,,,,3,,,74,127
37632,note_on,,,,,4,0,6,,,,,5,,,50,92
37724,note_off,,,,,92,0,2,,,,,1,,,74,0
37724,note_off,,,,,92,0,4,,,,,3,,,74,0
37728,note_on,,,,,4,0,2,,,,,1,,,78,92
37728,note_on,,,,,4,0,4,,,,,3,,,78,127
37820,note_off,,,,,92,0,4,,,,,3,,,78,0
37820,note_off,,,,,188,0,6,,,,,5,,,50,0
37820,note_off,,,,,92,0,2,,,,,1,,,78,0
37820,note_off,,,,,188,0,7,,,,,6,,,38,0
37820,note_off,,,,,188,0,5,,,,,4,,,62,0
37820,note_off,,,,,188,0,1,,,,,0,,,81,0
37820,note_off,,,,,188,0,3,,,,,2,,,81,0
37824,note_on,,,,,4,0,6,,,,,5,,,50,92
37824,note_on,,,,,4,0,3,,,,,2,,,81,127
37824,note_on,,,,,4,0,7,,,,,6,,,38,75
37824,note_on,,,,,4,0,5,,,,,4,,,62,92
37824,note_on,,,,,4,0,1,,,,,0,,,81,92
37824,note_on,,,,,4,0,2,,,,,1,,,76,92
37824,note_on,,,,,4,0,4,,,,,3,,,76,127
37916,note_off,,,,,92,0,2,,,,,1,,,76,0
37916,note_off,,,,,92,0,4,,,,,3,,,76,0
37920,note_on,,,,,4,0,2,,,,,1,,,74,92
37920,note_on,,,,,4,0,4,,,,,3,,,74,127
38012,note_off,,,,,188,0,1,,,,,0,,,81,0
38012,note_off,,,,,92,0,4,,,,,3,,,74,0
38012,note_off,,,,,188,0,5,,,,,4,,,62,0
38012,note_off,,,,,188,0,3,,,,,2,,,81,0
38012,note_off,,,,,92,0,2,,,,,1,,,74,0
38012,note_off,,,,,188,0,6,,,,,5,,,50,0
38012,note_off,,,,,188,0,7,,,,,6,,,38,0
38016,note_on,,,,,0,0,8,,,,,7,,,52,60
38016,note_on,,,,,4,0,1,,,,,0,,,81,92
38016,note_on,,,,,4,0,4,,,,,3,,,76,127
38016,note_on,,,,,4,0,6,,,,,5,,,49,92
38016,note_on,,,,,964,0,8,,,,,7,,,49,60
38016,note_on,,,,,4,0,7,,,,,6,,,37,75
38016,note_on,,,,,4,0,3,,,,,2,,,81,127
38016,note_on,,,,,4,0,2,,,,,1,,,76,92
38016,note_on,,,,,4,0,5,,,,,4,,,69,92
38108,note_off,,,,,92,0,1,,,,,0,,,81,0
38108,note_off,,,,,0,0,8,,,,,7,,,52,0
38108,note_off,,,,,92,0,8,,,,,7,,,49,0
38108,note_off,,,,,92,0,3,,,,,2,,,81,0
38112,note_on,,,,,4,0,8,,,,,7,,,57,60
38112,note_on,,,,,4,0,1,,,,,0,,,69,92
38112,note_on,,,,,4,0,3,,,,,2,,,69,127
38204,note_off,,,,,188,0,7,,,,,6,,,37,0
38204,note_off,,,,,188,0,2,,,,,1,,,76,0
38204,note_off,,,,,92,0,3,,,,,2,,,69,0
38204,note_off,,,,,188,0,4,,,,,3,,,76,0
38204,note_off,,,,,92,0,1,,,,,0,,,69,0
38204,note_off,,,,,92,0,8,,,,,7,,,57,0
38204,note_off,,,,,188,0,5,,,,,4,,,69,0
38204,note_off,,,,,188,0,6,,,,,5,,,49,0
38208,note_on,,,,,4,0,6,,,,,5,,,49,92
38208,note_on,,,,,4,0,2,,,,,1,,,81,92
38208,note_on,,,,,4,0,1,,,,,0,,,76,92
38208,note_on,,,,,4,0,3,,,,,2,,,76,127
38208,note_on,,,,,4,0,4,,,,,3,,,81,127
38208,note_on,,,,,4,0,7,,,,,6,,,37,75
38208,note_on,,,,,4,0,5,,,,,4,,,69,92
38300,note_off,,,,,92,0,3,,,,,2,,,76,0
38300,note_off,,,,,92,0,1,,,,,0,,,76,0
38304,note_on,,,,,4,0,1,,,,,0,,,79,92
38304,note_on,,,,,4,0,3,,,,,2,,,79,127
38396,note_off,,,,,188,0,4,,,,,3,,,81,0
38396,note_off,,,,,188,0,7,,,,,6,,,37,0
38396,note_off,,,,,92,0,3,,,,,2,,,79,0
38396,note_off,,,,,188,0,2,,,,,1,,,81,0
38396,note_off,,,,,92,0,1,,,,,0,,,79,0
38396,note_off,,,,,188,0,5,,,,,4,,,69,0
38396,note_off,,,,,188,0,6,,,,,5,,,49,0
38400,note_on,,,,,4,0,7,,,,,6,,,37,75
38400,note_on,,,,,4,0,3,,,,,2,,,78,127
38400,note_on,,,,,4,0,1,,,,,0,,,78,92
38400,note_on,,,,,4,0,5,,,,,4,,,69,92
38400,note_on,,,,,4,0,4,,,,,3,,,81,127
38400,note_on,,,,,4,0,2,,,,,1,,,81,92
38400,note_on,,,,,4,0,6,,,,,5,,,49,92
38492,note_off,,,,,92,0,1,,,,,0,,,78,0
38492,note_off,,,,,92,0,3,,,,,2,,,78,0
38496,note_on,,,,,4,0,3,,,,,2,,,76,127
38496,note_on,,,,,4,0,1,,,,,0,,,76,92
38588,note_off,,,,,188,0,2,,,,,1,,,81,0
38588,note_off,,,,,188,0,5,,,,,4,,,69,0
38588,note_off,,,,,92,0,3,,,,,2,,,76,0
38588,note_off,,,,,188,0,7,,,,,6,,,37,0
38588,note_off,,,,,92,0,1,,,,,0,,,76,0
38588,note_off,,,,,188,0,4,,,,,3,,,81,0
38588,note_off,,,,,188,0,6,,,,,5,,,49,0
38592,note_on,,,,,4,0,3,,,,,2,,,78,127
38592,note_on,,,,,4,0,5,,,,,4,,,69,92
38592,note_on,,,,,4,0,1,,,,,0,,,78,92
38592,note_on,,,,,4,0,2,,,,,1,,,81,92
38592,note_on,,,,,4,0,6,,,,,5,,,50,92
38592,note_on,,,,,4,0,7,,,,,6,,,38,75
38592,note_on,,,,,4,0,4,,,,,3,,,81,127
38684,note_off,,,,,92,0,4,,,,,3,,,81,0
38684,note_off,,,,,92,0,2,,,,,1,,,81,0
38688,note_on,,,,,4,0,4,,,,,3,,,69,127
38688,note_on,,,,,4,0,2,,,,,1,,,69,92
38780,note_off,,,,,92,0,4,,,,,3,,,69,0
38780,note_off,,,,,188,0,6,,,,,5,,,50,0
38780,note_off,,,,,188,0,7,,,,,6,,,38,0
38780,note_off,,,,,92,0,2,,,,,1,,,69,0
38780,note_off,,,,,188,0,5,,,,,4,,,69,0
38780,note_off,,,,,188,0,3,,,,,2,,,78,0
38780,note_off,,,,,188,0,1,,,,,0,,,78,0
38784,note_on,,,,,4,0,1,,,,,0,,,81,92
38784,note_on,,,,,4,0,2,,,,,1,,,74,92
38784,note_on,,,,,4,0,5,,,,,4,,,69,92
38784,note_on,,,,,4,0,4,,,,,3,,,74,127
38784,note_on,,,,,4,0,6,,,,,5,,,50,92
38784,note_on,,,,,4,0,7,,,,,6,,,38,75
38784,note_on,,,,,4,0,3,,,,,2,,,81,127
38876,note_off,,,,,92,0,4,,,,,3,,,74,0
38876,note_off,,,,,92,0,2,,,,,1,,,74,0
38880,note_on,,,,,4,0,4,,,,,3,,,78,127
38880,note_on,,,,,4,0,2,,,,,1,,,78,92
38972,note_off,,,,,188,0,5,,,,,4,,,69,0
38972,note_off,,,,,188,0,7,,,,,6,,,38,0
38972,note_off,,,,,92,0,4,,,,,3,,,78,0
38972,note_off,,,,,188,0,1,,,,,0,,,81,0
38972,note_off,,,,,188,0,6,,,,,5,,,50,0
38972,note_off,,,,,188,0,3,,,,,2,,,81,0
38972,note_off,,,,,92,0,2,,,,,1,,,78,0
38976,note_on,,,,,4,0,4,,,,,3,,,76,127
38976,note_on,,,,,4,0,6,,,,,5,,,50,92
38976,note_on,,,,,4,0,3,,,,,2,,,81,127
38976,note_on,,,,,4,0,1,,,,,0,,,81,92
38976,note_on,,,,,4,0,7,,,,,6,,,38,75
38976,note_on,,,,,4,0,2,,,,,1,,,76,92
38976,note_on,,,,,4,0,5,,,,,4,,,69,92
39068,note_off,,,,,92,0,4,,,,,3,,,76,0
39068,note_off,,,,,92,0,2,,,,,1,,,76,0
39072,note_on,,,,,4,0,4,,,,,3,,,79,127
39072,note_on,,,,,4,0,2,,,,,1,,,79,92
39164,note_off,,,,,188,0,6,,,,,5,,,50,0
39164,note_off,,,,,188,0,1,,,,,0,,,81,0
39164,note_off,,,,,188,0,5,,,,,4,,,69,0
39164,note_off,,,,,188,0,7,,,,,6,,,38,0
39164,note_off,,,,,92,0,2,,,,,1,,,79,0
39164,note_off,,,,,92,0,4,,,,,3,,,79,0
39164,note_off,,,,,188,0,3,,,,,2,,,81,0
39168,note_on,,,,,4,0,5,,,,,4,,,63,92
39168,note_on,,,,,4,0,4,,,,,3,,,78,127
39168,note_on,,,,,0,0,8,,,,,7,,,57,60
39168,note_on,,,,,964,0,8,,,,,7,,,51,60
39168,note_on,,,,,4,0,6,,,,,5,,,51,92
39168,note_on,,,,,4,0,1,,,,,0,,,81,92
39168,note_on,,,,,4,0,3,,,,,2,,,81,127
39168,note_on,,,,,4,0,2,,,,,1,,,78,92
39168,note_on,,,,,4,0,7,,,,,6,,,39,75
39260,note_off,,,,,92,0,3,,,,,2,,,81,0
39260,note_off,,,,,92,0,1,,,,,0,,,81,0
39260,note_off,,,,,0,0,8,,,,,7,,,57,0
39260,note_off,,,,,92,0,8,,,,,7,,,51,0
39264,note_on,,,,,4,0,3,,,,,2,,,71,127
39264,note_on,,,,,4,0,8,,,,,7,,,59,60
39264,note_on,,,,,4,0,1,,,,,0,,,71,92
39356,note_off,,,,,188,0,6,,,,,5,,,51,0
39356,note_off,,,,,188,0,7,,,,,6,,,39,0
39356,note_off,,,,,188,0,5,,,,,4,,,63,0
39356,note_off,,,,,188,0,4,,,,,3,,,78,0
39356,note_off,,,,,188,0,2,,,,,1,,,78,0
39356,note_off,,,,,92,0,3,,,,,2,,,71,0
39356,note_off,,,,,92,0,8,,,,,7,,,59,0
39356,note_off,,,,,92,0,1,,,,,0,,,71,0
39360,note_on,,,,,4,0,7,,,,,6,,,39,75
39360,note_on,,,,,4,0,4,,,,,3,,,78,127
39360,note_on,,,,,4,0,1,,,,,0,,,83,92
39360,note_on,,,,,4,0,6,,,,,5,,,51,92
39360,note_on,,,,,4,0,5,,,,,4,,,63,92
39360,note_on,,,,,4,0,3,,,,,2,,,83,127
39360,note_on,,,,,4,0,2,,,,,1,,,78,92
39452,note_off,,,,,92,0,1,,,,,0,,,83,0
39452,note_off,,,,,92,0,3,,,,,2,,,83,0
39456,note_on,,,,,4,0,1,,,,,0,,,81,92
39456,note_on,,,,,4,0,3,,,,,2,,,81,127
39548,note_off,,,,,188,0,6,,,,,5,,,51,0
39548,note_off,,,,,188,0,5,,,,,4,,,63,0
39548,note_off,,,,,188,0,7,,,,,6,,,39,0
39548,note_off,,,,,188,0,2,,,,,1,,,78,0
39548,note_off,,,,,92,0,1,,,,,0,,,81,0
39548,note_off,,,,,92,0,3,,,,,2,,,81,0
39548,note_off,,,,,188,0,4,,,,,3,,,78,0
39552,note_on,,,,,4,0,2,,,,,1,,,71,92
39552,note_on,,,,,4,0,3,,,,,2,,,79,127
39552,note_on,,,,,4,0,5,,,,,4,,,63,92
39552,note_on,,,,,4,0,4,,,,,3,,,71,127
39552,note_on,,,,,4,0,7,,,,,6,,,39,75
39552,note_on,,,,,4,0,1,,,,,0,,,79,92
39552,note_on,,,,,4,0,6,,,,,5,,,51,92
39644,note_off,,,,,92,0,3,,,,,2,,,79,0
39644,note_off,,,,,92,0,1,,,,,0,,,79,0
39648,note_on,,,,,4,0,1,,,,,0,,,78,92
39648,note_on,,,,,4,0,3,,,,,2,,,78,127
39740,note_off,,,,,188,0,2,,,,,1,,,71,0
39740,note_off,,,,,188,0,5,,,,,4,,,63,0
39740,note_off,,,,,92,0,1,,,,,0,,,78,0
39740,note_off,,,,,188,0,6,,,,,5,,,51,0
39740,note_off,,,,,188,0,4,,,,,3,,,71,0
39740,note_off,,,,,92,0,3,,,,,2,,,78,0
39740,note_off,,,,,188,0,7,,,,,6,,,39,0
39744,note_on,,,,,4,0,1,,,,,0,,,79,92
39744,note_on,,,,,4,0,3,,,,,2,,,79,127
39744,note_on,,,,,4,0,7,,,,,6,,,40,75
39744,note_on,,,,,4,0,5,,,,,4,,,71,92
39744,note_on,,,,,4,0,6,,,,,5,,,52,92
39840,note_on,,,,,100,0,2,,,,,1,,,71,92
39840,note_on,,,,,100,0,4,,,,,3,,,71,127
39932,note_off,,,,,188,0,7,,,,,6,,,40,0
39932,note_off,,,,,188,0,1,,,,,0,,,79,0
39932,note_off,,,,,188,0,5,,,,,4,,,71,0
39932,note_off,,,,,92,0,4,,,,,3,,,71,0
39932,note_off,,,,,188,0,3,,,,,2,,,79,0
39932,note_off,,,,,188,0,6,,,,,5,,,52,0
39932,note_off,,,,,92,0,2,,,,,1,,,71,0
39936,note_on,,,,,4,0,7,,,,,6,,,40,75
39936,note_on,,,,,4,0,3,,,,,2,,,79,127
39936,note_on,,,,,4,0,2,,,,,1,,,76,92
39936,note_on,,,,,4,0,5,,,,,4,,,71,92
39936,note_on,,,,,4,0,6,,,,,5,,,52,92
39936,note_on,,,,,4,0,1,,,,,0,,,79,92
39936,note_on,,,,,4,0,4,,,,,3,,,76,127
40028,note_off,,,,,92,0,4,,,,,3,,,76,0
40028,note_off,,,,,92,0,2,,,,,1,,,76,0
40032,note_on,,,,,4,0,4,,,,,3,,,74,127
40032,note_on,,,,,4,0,2,,,,,1,,,74,92
40124,note_off,,,,,188,0,3,,,,,2,,,79,0
40124,note_off,,,,,188,0,6,,,,,5,,,52,0
40124,note_off,,,,,188,0,1,,,,,0,,,79,0
40124,note_off,,,,,188,0,7,,,,,6,,,40,0
40124,note_off,,,,,92,0,4,,,,,3,,,74,0
40124,note_off,,,,,92,0,2,,,,,1,,,74,0
40124,note_off,,,,,188,0,5,,,,,4,,,71,0
40128,note_on,,,,,4,0,5,,,,,4,,,71,92
40128,note_on,,,,,4,0,1,,,,,0,,,79,92
40128,note_on,,,,,4,0,2,,,,,1,,,73,92
40128,note_on,,,,,4,0,6,,,,,5,,,52,92
40128,note_on,,,,,4,0,7,,,,,6,,,40,75
40128,note_on,,,,,4,0,4,,,,,3,,,73,127
40128,note_on,,,,,4,0,3,,,,,2,,,79,127
40220,note_off,,,,,92,0,4,,,,,3,,,73,0
40220,note_off,,,,,92,0,2,,,,,1,,,73,0
40224,note_on,,,,,4,0,4,,,,,3,,,71,127
40224,note_on,,,,,4,0,2,,,,,1,,,71,92
40316,note_off,,,,,188,0,3,,,,,2,,,79,0
40316,note_off,,,,,188,0,5,,,,,4,,,71,0
40316,note_off,,,,,188,0,6,,,,,5,,,52,0
40316,note_off,,,,,92,0,4,,,,,3,,,71,0
40316,note_off,,,,,92,0,2,,,,,1,,,71,0
40316,note_off,,,,,188,0,7,,,,,6,,,40,0
40316,note_off,,,,,188,0,1,,,,,0,,,79,0
40320,note_on,,,,,4,0,2,,,,,1,,,73,92
40320,note_on,,,,,4,0,4,,,,,3,,,73,127
40320,note_on,,,,,0,0,8,,,,,7,,,48,60
40320,note_on,,,,,964,0,8,,,,,7,,,45,60
40320,note_on,,,,,4,0,6,,,,,5,,,57,92
40320,note_on,,,,,4,0,7,,,,,6,,,45,75
40320,note_on,,,,,4,0,3,,,,,2,,,79,127
40320,note_on,,,,,4,0,5,,,,,4,,,69,92
40320,note_on,,,,,4,0,1,,,,,0,,,79,92
40412,note_off,,,,,0,0,8,,,,,7,,,48,0
40412,note_off,,,,,92,0,8,,,,,7,,,45,0
40412,note_off,,,,,92,0,3,,,,,2,,,79,0
40412,note_off,,,,,92,0,1,,,,,0,,,79,0
40416,note_on,,,,,4,0,3,,,,,2,,,76,127
40416,note_on,,,,,4,0,1,,,,,0,,,76,92
40416,note_on,,,,,4,0,8,,,,,7,,,55,60
40508,note_off,,,,,188,0,5,,,,,4,,,69,0
40508,note_off,,,,,188,0,7,,,,,6,,,45,0
40508,note_off,,,,,92,0,3,,,,,2,,,76,0
40508,note_off,,,,,92,0,1,,,,,0,,,76,0
40508,note_off,,,,,188,0,6,,,,,5,,,57,0
40508,note_off,,,,,188,0,4,,,,,3,,,73,0
40508,note_off,,,,,92,0,8,,,,,7,,,55,0
40508,note_off,,,,,188,0,2,,,,,1,,,73,0
40512,note_on,,,,,4,0,1,,,,,0,,,81,92
40512,note_on,,,,,4,0,4,,,,,3,,,73,127
40512,note_on,,,,,4,0,2,,,,,1,,,73,92
40512,note_on,,,,,4,0,6,,,,,5,,,57,92
40512,note_on,,,,,4,0,3,,,,,2,,,81,127
40512,note_on,,,,,4,0,7,,,,,6,,,45,75
40512,note_on,,,,,4,0,5,,,,,4,,,64,92
40604,note_off,,,,,92,0,3,,,,,2,,,81,0
40604,note_off,,,,,92,0,1,,,,,0,,,81,0
40608,note_on,,,,,4,0,3,,,,,2,,,79,127
40608,note_on,,,,,4,0,1,,,,,0,,,79,92
40700,note_off,,,,,188,0,2,,,,,1,,,73,0
40700,note_off,,,,,188,0,6,,,,,5,,,57,0
40700,note_off,,,,,92,0,3,,,,,2,,,79,0
40700,note_off,,,,,92,0,1,,,,,0,,,79,0
40700,note_off,,,,,188,0,5,,,,,4,,,64,0
40700,note_off,,,,,188,0,7,,,,,6,,,45,0
40700,note_off,,,,,188,0,4,,,,,3,,,73,0
40704,note_on,,,,,4,0,7,,,,,6,,,45,75
40704,note_on,,,,,4,0,3,,,,,2,,,78,127
40704,note_on,,,,,4,0,2,,,,,1,,,73,92
40704,note_on,,,,,4,0,1,,,,,0,,,78,92
40704,note_on,,,,,4,0,5,,,,,4,,,69,92
40704,note_on,,,,,4,0,4,,,,,3,,,73,127
40704,note_on,,,,,4,0,6,,,,,5,,,57,92
40796,note_off,,,,,92,0,1,,,,,0,,,78,0
40796,note_off,,,,,92,0,3,,,,,2,,,78,0
40800,note_on,,,,,4,0,1,,,,,0,,,76,92
40800,note_on,,,,,4,0,3,,,,,2,,,76,127
40892,note_off,,,,,188,0,6,,,,,5,,,57,0
40892,note_off,,,,,92,0,1,,,,,0,,,76,0
40892,note_off,,,,,188,0,4,,,,,3,,,73,0
40892,note_off,,,,,92,0,3,,,,,2,,,76,0
40892,note_off,,,,,188,0,2,,,,,1,,,73,0
40892,note_off,,,,,188,0,7,,,,,6,,,45,0
40892,note_off,,,,,188,0,5,,,,,4,,,69,0
40896,note_on,,,,,4,0,1,,,,,0,,,78,92
40896,note_on,,,,,4,0,3,,,,,2,,,78,127
40896,note_on,,,,,4,0,6,,,,,5,,,50,92
40896,note_on,,,,,4,0,7,,,,,6,,,38,75
40896,note_on,,,,,4,0,5,,,,,4,,,69,92
40992,note_on,,,,,100,0,2,,,,,1,,,69,92
40992,note_on,,,,,100,0,4,,,,,3,,,69,127
41084,note_off,,,,,188,0,7,,,,,6,,,38,0
41084,note_off,,,,,188,0,5,,,,,4,,,69,0
41084,note_off,,,,,188,0,1,,,,,0,,,78,0
41084,note_off,,,,,188,0,6,,,,,5,,,50,0
41084,note_off,,,,,92,0,4,,,,,3,,,69,0
41084,note_off,,,,,92,0,2,,,,,1,,,69,0
41084,note_off,,,,,188,0,3,,,,,2,,,78,0
41088,note_on,,,,,4,0,5,,,,,4,,,69,92
41088,note_on,,,,,4,0,3,,,,,2,,,78,127
41088,note_on,,,,,4,0,7,,,,,6,,,38,75
41088,note_on,,,,,4,0,2,,,,,1,,,74,92
41088,note_on,,,,,4,0,6,,,,,5,,,50,92
41088,note_on,,,,,4,0,4,,,,,3,,,74,127
41088,note_on,,,,,4,0,1,,,,,0,,,78,92
41180,note_off,,,,,92,0,4,,,,,3,,,74,0
41180,note_off,,,,,92,0,2,,,,,1,,,74,0
41184,note_on,,,,,4,0,2,,,,,1,,,73,92
41184,note_on,,,,,4,0,4,,,,,3,,,73,127
41276,note_off,,,,,188,0,1,,,,,0,,,78,0
41276,note_off,,,,,188,0,5,,,,,4,,,69,0
41276,note_off,,,,,188,0,7,,,,,6,,,38,0
41276,note_off,,,,,188,0,6,,,,,5,,,50,0
41276,note_off,,,,,188,0,3,,,,,2,,,78,0
41276,note_off,,,,,92,0,4,,,,,3,,,73,0
41276,note_off,,,,,92,0,2,,,,,1,,,73,0
41280,note_on,,,,,4,0,7,,,,,6,,,38,75
41280,note_on,,,,,4,0,4,,,,,3,,,71,127
41280,note_on,,,,,4,0,3,,,,,2,,,78,127
41280,note_on,,,,,4,0,2,,,,,1,,,71,92
41280,note_on,,,,,4,0,1,,,,,0,,,78,92
41280,note_on,,,,,4,0,6,,,,,5,,,50,92
41280,note_on,,,,,4,0,5,,,,,4,,,71,92
41372,note_off,,,,,92,0,4,,,,,3,,,71,0
41372,note_off,,,,,92,0,2,,,,,1,,,71,0
41376,note_on,,,,,4,0,4,,,,,3,,,69,127
41376,note_on,,,,,4,0,2,,,,,1,,,69,92
41468,note_off,,,,,188,0,5,,,,,4,,,71,0
41468,note_off,,,,,188,0,1,,,,,0,,,78,0
41468,note_off,,,,,188,0,6,,,,,5,,,50,0
41468,note_off,,,,,92,0,2,,,,,1,,,69,0
41468,note_off,,,,,188,0,7,,,,,6,,,38,0
41468,note_off,,,,,188,0,3,,,,,2,,,78,0
41468,note_off,,,,,92,0,4,,,,,3,,,69,0
41472,note_on,,,,,4,0,6,,,,,5,,,47,92
41472,note_on,,,,,4,0,3,,,,,2,,,62,127
41472,note_on,,,,,0,0,8,,,,,7,,,50,60
41472,note_on,,,,,4,0,1,,,,,0,,,62,92
41472,note_on,,,,,964,0,8,,,,,7,,,47,60
41472,note_on,,,,,4,0,4,,,,,3,,,68,127
41472,note_on,,,,,4,0,7,,,,,6,,,35,75
41472,note_on,,,,,4,0,5,,,,,4,,,59,92
41472,note_on,,,,,4,0,2,,,,,1,,,68,92
41564,note_off,,,,,92,0,4,,,,,3,,,68,0
41564,note_off,,,,,92,0,2,,,,,1,,,68,0
41564,note_off,,,,,92,0,8,,,,,7,,,47,0
41564,note_off,,,,,0,0,8,,,,,7,,,50,0
41568,note_on,,,,,4,0,8,,,,,7,,,56,60
41568,note_on,,,,,4,0,4,,,,,3,,,69,127
41568,note_on,,,,,4,0,2,,,,,1,,,69,92
41660,note_off,,,,,92,0,4,,,,,3,,,69,0
41660,note_off,,,,,188,0,7,,,,,6,,,35,0
41660,note_off,,,,,188,0,6,,,,,5,,,47,0
41660,note_off,,,,,188,0,1,,,,,0,,,62,0
41660,note_off,,,,,92,0,2,,,,,1,,,69,0
41660,note_off,,,,,188,0,5,,,,,4,,,59,0
41660,note_off,,,,,188,0,3,,,,,2,,,62,0
41660,note_off,,,,,92,0,8,,,,,7,,,56,0
41664,note_on,,,,,4,0,2,,,,,1,,,71,92
41664,note_on,,,,,4,0,4,,,,,3,,,71,127
41664,note_on,,,,,4,0,5,,,,,4,,,68,92
41664,note_on,,,,,4,0,6,,,,,5,,,47,92
41664,note_on,,,,,4,0,3,,,,,2,,,62,127
41664,note_on,,,,,4,0,7,,,,,6,,,35,75
41664,note_on,,,,,4,0,1,,,,,0,,,62,92
41852,note_off,,,,,188,0,5,,,,,4,,,68,0
41852,note_off,,,,,188,0,1,,,,,0,,,62,0
41852,note_off,,,,,188,0,3,,,,,2,,,62,0
41852,note_off,,,,,188,0,7,,,,,6,,,35,0
41852,note_off,,,,,188,0,6,,,,,5,,,47,0
41856,note_on,,,,,4,0,7,,,,,6,,,35,75
41856,note_on,,,,,4,0,5,,,,,4,,,68,92
41856,note_on,,,,,4,0,6,,,,,5,,,47,92
41856,note_on,,,,,4,0,3,,,,,2,,,62,127
41856,note_on,,,,,4,0,1,,,,,0,,,62,92
41984,note_off,,,,,320,0,4,,,,,3,,,71,0
41984,note_off,,,,,320,0,2,,,,,1,,,71,0
42044,note_off,,,,,188,0,7,,,,,6,,,35,0
42044,note_off,,,,,188,0,1,,,,,0,,,62,0
42044,note_off,,,,,188,0,5,,,,,4,,,68,0
42044,note_off,,,,,188,0,6,,,,,5,,,47,0
42044,note_off,,,,,188,0,3,,,,,2,,,62,0
42048,note_on,,,,,4,0,1,,,,,0,,,80,92
42048,note_on,,,,,4,0,7,,,,,6,,,35,75
42048,note_on,,,,,4,0,3,,,,,2,,,80,127
42048,note_on,,,,,4,0,6,,,,,5,,,47,92
42048,note_on,,,,,64,0,2,,,,,1,,,71,92
42048,note_on,,,,,64,0,4,,,,,3,,,71,127
42048,note_on,,,,,4,0,5,,,,,4,,,74,92
42140,note_off,,,,,92,0,1,,,,,0,,,80,0
42140,note_off,,,,,92,0,3,,,,,2,,,80,0
42140,note_off,,,,,92,0,2,,,,,1,,,71,0
42140,note_off,,,,,92,0,4,,,,,3,,,71,0
42144,note_on,,,,,4,0,2,,,,,1,,,73,92
42144,note_on,,,,,4,0,4,,,,,3,,,73,127
42144,note_on,,,,,4,0,3,,,,,2,,,81,127
42144,note_on,,,,,4,0,1,,,,,0,,,81,92
42236,note_off,,,,,92,0,4,,,,,3,,,73,0
42236,note_off,,,,,92,0,1,,,,,0,,,81,0
42236,note_off,,,,,188,0,6,,,,,5,,,47,0
42236,note_off,,,,,188,0,7,,,,,6,,,35,0
42236,note_off,,,,,92,0,2,,,,,1,,,73,0
42236,note_off,,,,,92,0,3,,,,,2,,,81,0
42236,note_off,,,,,188,0,5,,,,,4,,,74,0
42240,note_on,,,,,4,0,2,,,,,1,,,74,92
42240,note_on,,,,,4,0,1,,,,,0,,,83,92
42240,note_on,,,,,4,0,4,,,,,3,,,74,127
42240,note_on,,,,,4,0,5,,,,,4,,,68,92
42240,note_on,,,,,4,0,7,,,,,6,,,35,75
42240,note_on,,,,,4,0,6,,,,,5,,,47,92
42240,note_on,,,,,4,0,3,,,,,2,,,83,127
42428,note_off,,,,,188,0,5,,,,,4,,,68,0
42428,note_off,,,,,188,0,7,,,,,6,,,35,0
42428,note_off,,,,,188,0,6,,,,,5,,,47,0
42432,note_on,,,,,4,0,5,,,,,4,,,68,92
42432,note_on,,,,,4,0,7,,,,,6,,,35,75
42432,note_on,,,,,4,0,6,,,,,5,,,47,92
42560,note_off,,,,,320,0,1,,,,,0,,,83,0
42560,note_off,,,,,320,0,3,,,,,2,,,83,0
42560,note_off,,,,,320,0,2,,,,,1,,,74,0
42560,note_off,,,,,320,0,4,,,,,3,,,74,0
42620,note_off,,,,,188,0,6,,,,,5,,,47,0
42620,note_off,,,,,188,0,5,,,,,4,,,68,0
42620,note_off,,,,,188,0,7,,,,,6,,,35,0
42624,note_on,,,,,4,0,6,,,,,5,,,56,92
42624,note_on,,,,,64,0,1,,,,,0,,,74,92
42624,note_on,,,,,64,0,3,,,,,2,,,74,127
42624,note_on,,,,,64,0,4,,,,,3,,,71,127
42624,note_on,,,,,964,0,8,,,,,7,,,44,60
42624,note_on,,,,,0,0,8,,,,,7,,,50,60
42624,note_on,,,,,4,0,5,,,,,4,,,68,92
42624,note_on,,,,,64,0,2,,,,,1,,,71,92
42624,note_on,,,,,4,0,7,,,,,6,,,44,75
42716,note_off,,,,,92,0,1,,,,,0,,,74,0
42716,note_off,,,,,92,0,4,,,,,3,,,71,0
42716,note_off,,,,,92,0,8,,,,,7,,,44,0
42716,note_off,,,,,0,0,8,,,,,7,,,50,0
42716,note_off,,,,,92,0,2,,,,,1,,,71,0
42716,note_off,,,,,92,0,3,,,,,2,,,74,0
42720,note_on,,,,,4,0,3,,,,,2,,,76,127
42720,note_on,,,,,4,0,8,,,,,7,,,52,60
42720,note_on,,,,,4,0,2,,,,,1,,,73,92
42720,note_on,,,,,4,0,4,,,,,3,,,73,127
42720,note_on,,,,,4,0,1,,,,,0,,,76,92
42740,note_off,,,,,20,0,4,,,,,3,,,73,0
42740,note_off,,,,,20,0,1,,,,,0,,,76,0
42740,note_off,,,,,20,0,3,,,,,2,,,76,0
42740,note_off,,,,,20,0,2,,,,,1,,,73,0
42744,note_on,,,,,4,0,3,,,,,2,,,78,127
42744,note_on,,,,,4,0,4,,,,,3,,,74,127
42744,note_on,,,,,4,0,1,,,,,0,,,78,92
42744,note_on,,,,,4,0,2,,,,,1,,,74,92
42812,note_off,,,,,68,0,2,,,,,1,,,74,0
42812,note_off,,,,,68,0,4,,,,,3,,,74,0
42812,note_off,,,,,92,0,8,,,,,7,,,52,0
42812,note_off,,,,,68,0,1,,,,,0,,,78,0
42812,note_off,,,,,68,0,3,,,,,2,,,78,0
42812,note_off,,,,,188,0,5,,,,,4,,,68,0
42812,note_off,,,,,188,0,7,,,,,6,,,44,0
42812,note_off,,,,,188,0,6,,,,,5,,,56,0
42816,note_on,,,,,4,0,3,,,,,2,,,76,127
42816,note_on,,,,,4,0,1,,,,,0,,,76,92
42816,note_on,,,,,4,0,5,,,,,4,,,68,92
42816,note_on,,,,,4,0,6,,,,,5,,,56,92
42816,note_on,,,,,4,0,4,,,,,3,,,73,127
42816,note_on,,,,,4,0,2,,,,,1,,,73,92
42816,note_on,,,,,4,0,7,,,,,6,,,44,75
43004,note_off,,,,,188,0,6,,,,,5,,,56,0
43004,note_off,,,,,188,0,2,,,,,1,,,73,0
43004,note_off,,,,,188,0,1,,,,,0,,,76,0
43004,note_off,,,,,188,0,7,,,,,6,,,44,0
43004,note_off,,,,,188,0,5,,,,,4,,,68,0
43004,note_off,,,,,188,0,4,,,,,3,,,73,0
43004,note_off,,,,,188,0,3,,,,,2,,,76,0
43008,note_on,,,,,0,0,8,,,,,7,,,49,60
43008,note_on,,,,,4,0,2,,,,,1,,,71,92
43008,note_on,,,,,4,0,5,,,,,4,,,68,92
43008,note_on,,,,,4,0,1,,,,,0,,,74,92
43008,note_on,,,,,4,0,3,,,,,2,,,74,127
43008,note_on,,,,,4,0,7,,,,,6,,,44,75
43008,note_on,,,,,4,0,6,,,,,5,,,56,92
43008,note_on,,,,,4,0,4,,,,,3,,,71,127
43008,note_on,,,,,196,0,8,,,,,7,,,46,60
43100,note_off,,,,,0,0,8,,,,,7,,,49,0
43100,note_off,,,,,92,0,8,,,,,7,,,46,0
43104,note_on,,,,,4,0,8,,,,,7,,,54,60
43196,note_off,,,,,188,0,6,,,,,5,,,56,0
43196,note_off,,,,,92,0,8,,,,,7,,,54,0
43196,note_off,,,,,188,0,7,,,,,6,,,44,0
43196,note_off,,,,,188,0,5,,,,,4,,,68,0
43196,note_off,,,,,188,0,1,,,,,0,,,74,0
43196,note_off,,,,,188,0,4,,,,,3,,,71,0
43196,note_off,,,,,188,0,2,,,,,1,,,71,0
43196,note_off,,,,,188,0,3,,,,,2,,,74,0
43200,note_on,,,,,4,0,2,,,,,1,,,69,92
43200,note_on,,,,,4,0,6,,,,,5,,,57,92
43200,note_on,,,,,4,0,1,,,,,0,,,73,92
43200,note_on,,,,,4,0,7,,,,,6,,,45,75
43200,note_on,,,,,4,0,4,,,,,3,,,69,127
43200,note_on,,,,,4,0,5,,,,,4,,,64,92
43200,note_on,,,,,4,0,3,,,,,2,,,73,127
43292,note_off,,,,,92,0,4,,,,,3,,,69,0
43292,note_off,,,,,92,0,3,,,,,2,,,73,0
43292,note_off,,,,,92,0,1,,,,,0,,,73,0
43292,note_off,,,,,92,0,2,,,,,1,,,69,0
43296,note_on,,,,,4,0,3,,,,,2,,,74,127
43296,note_on,,,,,4,0,1,,,,,0,,,74,92
43296,note_on,,,,,4,0,4,,,,,3,,,71,127
43296,note_on,,,,,4,0,2,,,,,1,,,71,92
43388,note_off,,,,,92,0,4,,,,,3,,,71,0
43388,note_off,,,,,92,0,2,,,,,1,,,71,0
43388,note_off,,,,,188,0,7,,,,,6,,,45,0
43388,note_off,,,,,188,0,5,,,,,4,,,64,0
43388,note_off,,,,,92,0,1,,,,,0,,,74,0
43388,note_off,,,,,188,0,6,,,,,5,,,57,0
43388,note_off,,,,,92,0,3,,,,,2,,,74,0
43392,note_on,,,,,4,0,1,,,,,0,,,76,92
43392,note_on,,,,,4,0,6,,,,,5,,,57,92
43392,note_on,,,,,4,0,5,,,,,4,,,64,92
43392,note_on,,,,,4,0,7,,,,,6,,,45,75
43392,note_on,,,,,4,0,3,,,,,2,,,76,127
43392,note_on,,,,,4,0,4,,,,,3,,,73,127
43392,note_on,,,,,4,0,2,,,,,1,,,73,92
43580,note_off,,,,,188,0,6,,,,,5,,,57,0
43580,note_off,,,,,188,0,5,,,,,4,,,64,0
43580,note_off,,,,,188,0,7,,,,,6,,,45,0
43584,note_on,,,,,4,0,5,,,,,4,,,64,92
43584,note_on,,,,,4,0,7,,,,,6,,,45,75
43584,note_on,,,,,4,0,6,,,,,5,,,57,92
43712,note_off,,,,,320,0,2,,,,,1,,,73,0
43712,note_off,,,,,320,0,1,,,,,0,,,76,0
43712,note_off,,,,,320,0,3,,,,,2,,,76,0
43712,note_off,,,,,320,0,4,,,,,3,,,73,0
43772,note_off,,,,,188,0,5,,,,,4,,,64,0
43772,note_off,,,,,188,0,6,,,,,5,,,57,0
43772,note_off,,,,,188,0,7,,,,,6,,,45,0
43776,note_on,,,,,64,0,2,,,,,1,,,76,92
43776,note_on,,,,,4,0,5,,,,,4,,,69,92
43776,note_on,,,,,0,0,8,,,,,7,,,55,60
43776,note_on,,,,,580,0,8,,,,,7,,,49,60
43776,note_on,,,,,4,0,7,,,,,6,,,37,75
43776,note_on,,,,,64,0,1,,,,,0,,,79,92
43776,note_on,,,,,4,0,6,,,,,5,,,49,92
43776,note_on,,,,,64,0,4,,,,,3,,,76,127
43776,note_on,,,,,64,0,3,,,,,2,,,79,127
43868,note_off,,,,,0,0,8,,,,,7,,,55,0
43868,note_off,,,,,92,0,1,,,,,0,,,79,0
43868,note_off,,,,,92,0,4,,,,,3,,,76,0
43868,note_off,,,,,92,0,3,,,,,2,,,79,0
43868,note_off,,,,,92,0,2,,,,,1,,,76,0
43868,note_off,,,,,92,0,8,,,,,7,,,49,0
43872,note_on,,,,,4,0,1,,,,,0,,,81,92
43872,note_on,,,,,4,0,4,,,,,3,,,78,127
43872,note_on,,,,,4,0,8,,,,,7,,,57,60
43872,note_on,,,,,4,0,2,,,,,1,,,78,92
43872,note_on,,,,,4,0,3,,,,,2,,,81,127
43892,note_off,,,,,20,0,3,,,,,2,,,81,0
43892,note_off,,,,,20,0,4,,,,,3,,,78,0
43892,note_off,,,,,20,0,2,,,,,1,,,78,0
43892,note_off,,,,,20,0,1,,,,,0,,,81,0
43896,note_on,,,,,4,0,3,,,,,2,,,83,127
43896,note_on,,,,,4,0,4,,,,,3,,,79,127
43896,note_on,,,,,4,0,1,,,,,0,,,83,92
43896,note_on,,,,,4,0,2,,,,,1,,,79,92
43964,note_off,,,,,68,0,3,,,,,2,,,83,0
43964,note_off,,,,,68,0,1,,,,,0,,,83,0
43964,note_off,,,,,68,0,2,,,,,1,,,79,0
43964,note_off,,,,,188,0,7,,,,,6,,,37,0
43964,note_off,,,,,92,0,8,,,,,7,,,57,0
43964,note_off,,,,,188,0,5,,,,,4,,,69,0
43964,note_off,,,,,188,0,6,,,,,5,,,49,0
43964,note_off,,,,,68,0,4,,,,,3,,,79,0
43968,note_on,,,,,4,0,2,,,,,1,,,78,92
43968,note_on,,,,,4,0,7,,,,,6,,,37,75
43968,note_on,,,,,4,0,5,,,,,4,,,69,92
43968,note_on,,,,,4,0,3,,,,,2,,,81,127
43968,note_on,,,,,4,0,6,,,,,5,,,49,92
43968,note_on,,,,,4,0,1,,,,,0,,,81,92
43968,note_on,,,,,4,0,4,,,,,3,,,78,127
44156,note_off,,,,,188,0,5,,,,,4,,,69,0
44156,note_off,,,,,188,0,3,,,,,2,,,81,0
44156,note_off,,,,,188,0,4,,,,,3,,,78,0
44156,note_off,,,,,188,0,2,,,,,1,,,78,0
44156,note_off,,,,,188,0,7,,,,,6,,,37,0
44156,note_off,,,,,188,0,1,,,,,0,,,81,0
44156,note_off,,,,,188,0,6,,,,,5,,,49,0
44160,note_on,,,,,4,0,4,,,,,3,,,76,127
44160,note_on,,,,,4,0,2,,,,,1,,,76,92
44160,note_on,,,,,4,0,7,,,,,6,,,37,75
44160,note_on,,,,,4,0,5,,,,,4,,,69,92
44160,note_on,,,,,4,0,1,,,,,0,,,79,92
44160,note_on,,,,,4,0,3,,,,,2,,,79,127
44160,note_on,,,,,4,0,6,,,,,5,,,49,92
44348,note_off,,,,,188,0,6,,,,,5,,,49,0
44348,note_off,,,,,188,0,5,,,,,4,,,69,0
44348,note_off,,,,,188,0,2,,,,,1,,,76,0
44348,note_off,,,,,188,0,1,,,,,0,,,79,0
44348,note_off,,,,,188,0,7,,,,,6,,,37,0
44348,note_off,,,,,188,0,3,,,,,2,,,79,0
44348,note_off,,,,,188,0,4,,,,,3,,,76,0
44352,note_on,,,,,4,0,2,,,,,1,,,69,92
44352,note_on,,,,,4,0,4,,,,,3,,,69,127
44352,note_on,,,,,4,0,3,,,,,2,,,78,127
44352,note_on,,,,,4,0,7,,,,,6,,,38,75
44352,note_on,,,,,4,0,1,,,,,0,,,78,92
44352,note_on,,,,,4,0,6,,,,,5,,,50,92
44352,note_on,,,,,4,0,5,,,,,4,,,62,92
44444,note_off,,,,,92,0,3,,,,,2,,,78,0
44444,note_off,,,,,92,0,2,,,,,1,,,69,0
44444,note_off,,,,,92,0,1,,,,,0,,,78,0
44444,note_off,,,,,92,0,4,,,,,3,,,69,0
44448,note_on,,,,,4,0,1,,,,,0,,,74,92
44448,note_on,,,,,4,0,3,,,,,2,,,74,127
44448,note_on,,,,,4,0,4,,,,,3,,,66,127
44448,note_on,,,,,4,0,2,,,,,1,,,66,92
44540,note_off,,,,,92,0,3,,,,,2,,,74,0
44540,note_off,,,,,92,0,1,,,,,0,,,74,0
44540,note_off,,,,,188,0,7,,,,,6,,,38,0
44540,note_off,,,,,188,0,5,,,,,4,,,62,0
44540,note_off,,,,,92,0,2,,,,,1,,,66,0
44540,note_off,,,,,92,0,4,,,,,3,,,66,0
44540,note_off,,,,,188,0,6,,,,,5,,,50,0
44544,note_on,,,,,4,0,1,,,,,0,,,76,92
44544,note_on,,,,,4,0,6,,,,,5,,,50,92
44544,note_on,,,,,4,0,5,,,,,4,,,69,92
44544,note_on,,,,,4,0,7,,,,,6,,,38,75
44544,note_on,,,,,4,0,3,,,,,2,,,76,127
44544,note_on,,,,,4,0,4,,,,,3,,,67,127
44544,note_on,,,,,4,0,2,,,,,1,,,67,92
44636,note_off,,,,,92,0,2,,,,,1,,,67,0
44636,note_off,,,,,92,0,1,,,,,0,,,76,0
44636,note_off,,,,,92,0,4,,,,,3,,,67,0
44636,note_off,,,,,92,0,3,,,,,2,,,76,0
44640,note_on,,,,,4,0,1,,,,,0,,,73,92
44640,note_on,,,,,4,0,2,,,,,1,,,64,92
44640,note_on,,,,,4,0,3,,,,,2,,,73,127
44640,note_on,,,,,4,0,4,,,,,3,,,64,127
44732,note_off,,,,,188,0,5,,,,,4,,,69,0
44732,note_off,,,,,188,0,7,,,,,6,,,38,0
44732,note_off,,,,,188,0,6,,,,,5,,,50,0
44732,note_off,,,,,92,0,4,,,,,3,,,64,0
44732,note_off,,,,,92,0,3,,,,,2,,,73,0
44732,note_off,,,,,92,0,1,,,,,0,,,73,0
44732,note_off,,,,,92,0,2,,,,,1,,,64,0
44736,note_on,,,,,4,0,1,,,,,0,,,74,92
44736,note_on,,,,,4,0,7,,,,,6,,,38,75
44736,note_on,,,,,4,0,3,,,,,2,,,74,127
44736,note_on,,,,,4,0,5,,,,,4,,,69,92
44736,note_on,,,,,4,0,4,,,,,3,,,66,127
44736,note_on,,,,,4,0,2,,,,,1,,,66,92
44736,note_on,,,,,4,0,6,,,,,5,,,50,92
44828,note_off,,,,,92,0,4,,,,,3,,,66,0
44828,note_off,,,,,92,0,3,,,,,2,,,74,0
44828,note_off,,,,,92,0,2,,,,,1,,,66,0
44828,note_off,,,,,92,0,1,,,,,0,,,74,0
44832,note_on,,,,,4,0,2,,,,,1,,,69,92
44832,note_on,,,,,4,0,4,,,,,3,,,69,127
44832,note_on,,,,,4,0,3,,,,,2,,,78,127
44832,note_on,,,,,4,0,1,,,,,0,,,78,92
44924,note_off,,,,,92,0,4,,,,,3,,,69,0
44924,note_off,,,,,188,0,5,,,,,4,,,69,0
44924,note_off,,,,,188,0,6,,,,,5,,,50,0
44924,note_off,,,,,92,0,2,,,,,1,,,69,0
44924,note_off,,,,,188,0,7,,,,,6,,,38,0
44924,note_off,,,,,92,0,3,,,,,2,,,78,0
44924,note_off,,,,,92,0,1,,,,,0,,,78,0
44928,note_on,,,,,4,0,5,,,,,4,,,76,92
44928,note_on,,,,,964,0,8,,,,,7,,,43,60
44928,note_on,,,,,0,0,8,,,,,7,,,47,60
44928,note_on,,,,,4,0,2,,,,,1,,,71,92
44928,note_on,,,,,4,0,6,,,,,5,,,55,92
44928,note_on,,,,,4,0,3,,,,,2,,,79,127
44928,note_on,,,,,4,0,1,,,,,0,,,79,92
44928,note_on,,,,,4,0,7,,,,,6,,,43,75
44928,note_on,,,,,4,0,4,,,,,3,,,71,127
45020,note_off,,,,,92,0,1,,,,,0,,,79,0
45020,note_off,,,,,92,0,8,,,,,7,,,43,0
45020,note_off,,,,,0,0,8,,,,,7,,,47,0
45020,note_off,,,,,92,0,2,,,,,1,,,71,0
45020,note_off,,,,,92,0,3,,,,,2,,,79,0
45020,note_off,,,,,92,0,4,,,,,3,,,71,0
45024,note_on,,,,,4,0,2,,,,,1,,,67,92
45024,note_on,,,,,4,0,3,,,,,2,,,76,127
45024,note_on,,,,,4,0,4,,,,,3,,,67,127
45024,note_on,,,,,4,0,1,,,,,0,,,76,92
45024,note_on,,,,,4,0,8,,,,,7,,,52,60
45116,note_off,,,,,188,0,6,,,,,5,,,55,0
45116,note_off,,,,,92,0,3,,,,,2,,,76,0
45116,note_off,,,,,188,0,5,,,,,4,,,76,0
45116,note_off,,,,,92,0,2,,,,,1,,,67,0
45116,note_off,,,,,92,0,4,,,,,3,,,67,0
45116,note_off,,,,,188,0,7,,,,,6,,,43,0
45116,note_off,,,,,92,0,1,,,,,0,,,76,0
45116,note_off,,,,,92,0,8,,,,,7,,,52,0
45120,note_on,,,,,4,0,8,,,,,7,,,46,60
45120,note_on,,,,,4,0,2,,,,,1,,,64,92
45120,note_on,,,,,4,0,3,,,,,2,,,74,127
45120,note_on,,,,,4,0,7,,,,,6,,,45,75
45120,note_on,,,,,4,0,4,,,,,3,,,64,127
45120,note_on,,,,,4,0,1,,,,,0,,,74,92
45120,note_on,,,,,4,0,5,,,,,4,,,69,92
45120,note_on,,,,,4,0,6,,,,,5,,,57,92
45120,note_on,,,,,0,0,8,,,,,7,,,49,60
45168,note_off,,,,,48,0,3,,,,,2,,,74,0
45168,note_on,,,,,0,0,3,,,,,2,,,73,127
45168,note_off,,,,,48,0,1,,,,,0,,,74,0
45168,note_on,,,,,0,0,1,,,,,0,,,73,92
45212,note_off,,,,,0,0,8,,,,,7,,,49,0
45212,note_off,,,,,92,0,8,,,,,7,,,46,0
45216,note_on,,,,,4,0,8,,,,,7,,,54,60
45216,note_off,,,,,48,0,3,,,,,2,,,73,0
45216,note_on,,,,,0,0,3,,,,,2,,,74,127
45216,note_on,,,,,0,0,1,,,,,0,,,74,92
45216,note_off,,,,,48,0,1,,,,,0,,,73,0
45264,note_on,,,,,0,0,3,,,,,2,,,73,127
45264,note_off,,,,,48,0,1,,,,,0,,,74,0
45264,note_on,,,,,0,0,1,,,,,0,,,73,92
45264,note_off,,,,,48,0,3,,,,,2,,,74,0
45308,note_off,,,,,188,0,5,,,,,4,,,69,0
45308,note_off,,,,,188,0,6,,,,,5,,,57,0
45308,note_off,,,,,188,0,4,,,,,3,,,64,0
45308,note_off,,,,,188,0,7,,,,,6,,,45,0
45308,note_off,,,,,188,0,2,,,,,1,,,64,0
45308,note_off,,,,,92,0,8,,,,,7,,,54,0
45312,note_off,,,,,48,0,1,,,,,0,,,73,0
45312,note_on,,,,,0,0,1,,,,,0,,,74,92
45312,note_on,,,,,0,0,3,,,,,2,,,74,127
45312,note_off,,,,,48,0,3,,,,,2,,,73,0
45312,note_on,,,,,4,0,4,,,,,3,,,69,127
45312,note_on,,,,,4,0,6,,,,,5,,,45,92
45312,note_on,,,,,4,0,2,,,,,1,,,69,92
45312,note_on,,,,,4,0,7,,,,,6,,,33,75
45312,note_on,,,,,4,0,5,,,,,4,,,64,92
45360,note_off,,,,,48,0,3,,,,,2,,,74,0
45360,note_on,,,,,0,0,1,,,,,0,,,73,92
45360,note_off,,,,,48,0,1,,,,,0,,,74,0
45360,note_on,,,,,0,0,3,,,,,2,,,73,127
45404,note_off,,,,,92,0,5,,,,,4,,,64,0
45408,note_on,,,,,4,0,5,,,,,4,,,57,92
45500,note_off,,,,,188,0,2,,,,,1,,,69,0
45500,note_off,,,,,140,0,1,,,,,0,,,73,0
45500,note_off,,,,,188,0,6,,,,,5,,,45,0
45500,note_off,,,,,188,0,7,,,,,6,,,33,0
45500,note_off,,,,,188,0,4,,,,,3,,,69,0
45500,note_off,,,,,140,0,3,,,,,2,,,73,0
45500,note_off,,,,,92,0,5,,,,,4,,,57,0
45504,note_on,,,,,4,0,7,,,,,6,,,38,75
45504,note_on,,,,,4,0,2,,,,,1,,,66,92
45504,note_on,,,,,4,0,5,,,,,4,,,69,92
45504,note_on,,,,,4,0,4,,,,,3,,,66,127
45504,note_on,,,,,4,0,3,,,,,2,,,74,127
45504,note_on,,,,,4,0,6,,,,,5,,,50,92
45504,note_on,,,,,4,0,1,,,,,0,,,74,92
45692,note_off,,,,,188,0,2,,,,,1,,,66,0
45692,note_off,,,,,188,0,6,,,,,5,,,50,0
45692,note_off,,,,,188,0,7,,,,,6,,,38,0
45692,note_off,,,,,188,0,5,,,,,4,,,69,0
45692,note_off,,,,,188,0,4,,,,,3,,,66,0
45696,note_on,,,,,4,0,6,,,,,5,,,50,92
45696,note_on,,,,,4,0,7,,,,,6,,,38,75
45696,note_on,,,,,4,0,5,,,,,4,,,66,92
45696,note_on,,,,,4,0,2,,,,,1,,,81,92
45696,note_on,,,,,4,0,4,,,,,3,,,81,127
45824,note_off,,,,,320,0,3,,,,,2,,,74,0
45824,note_off,,,,,320,0,1,,,,,0,,,74,0
45884,note_off,,,,,188,0,6,,,,,5,,,50,0
45884,note_off,,,,,188,0,7,,,,,6,,,38,0
45884,note_off,,,,,188,0,5,,,,,4,,,66,0
45888,note_on,,,,,580,0,8,,,,,7,,,52,60
45888,note_off,,,,,192,0,4,,,,,3,,,81,0
45888,note_on,,,,,0,0,4,,,,,3,,,73,127
45888,note_on,,,,,4,0,7,,,,,6,,,40,75
45888,note_on,,,,,0,0,2,,,,,1,,,73,92
45888,note_on,,,,,4,0,5,,,,,4,,,67,92
45888,note_on,,,,,4,0,6,,,,,5,,,52,92
45888,note_on,,,,,0,0,8,,,,,7,,,55,60
45888,note_off,,,,,192,0,2,,,,,1,,,81,0
45980,note_off,,,,,92,0,8,,,,,7,,,52,0
45980,note_off,,,,,0,0,8,,,,,7,,,55,0
45984,note_on,,,,,4,0,8,,,,,7,,,61,60
46076,note_off,,,,,188,0,7,,,,,6,,,40,0
46076,note_off,,,,,92,0,8,,,,,7,,,61,0
46076,note_off,,,,,188,0,6,,,,,5,,,52,0
46076,note_off,,,,,188,0,4,,,,,3,,,73,0
46076,note_off,,,,,188,0,2,,,,,1,,,73,0
46076,note_off,,,,,188,0,5,,,,,4,,,67,0
46080,note_on,,,,,4,0,6,,,,,5,,,54,92
46080,note_on,,,,,4,0,8,,,,,7,,,42,60
46080,note_on,,,,,4,0,4,,,,,3,,,74,127
46080,note_on,,,,,4,0,7,,,,,6,,,42,75
46080,note_on,,,,,0,0,8,,,,,7,,,45,60
46080,note_on,,,,,4,0,2,,,,,1,,,74,92
46080,note_on,,,,,4,0,5,,,,,4,,,69,92
46172,note_off,,,,,92,0,8,,,,,7,,,42,0
46172,note_off,,,,,0,0,8,,,,,7,,,45,0
46176,note_on,,,,,4,0,8,,,,,7,,,50,60
46268,note_off,,,,,92,0,8,,,,,7,,,50,0
46268,note_off,,,,,188,0,5,,,,,4,,,69,0
46272,note_on,,,,,448,0,1,,,,,0,,,81,92
46272,note_on,,,,,448,0,3,,,,,2,,,81,127
46272,note_on,,,,,4,0,5,,,,,4,,,62,92
46400,note_off,,,,,320,0,7,,,,,6,,,42,0
46400,note_off,,,,,320,0,6,,,,,5,,,54,0
46400,note_off,,,,,320,0,2,,,,,1,,,74,0
46400,note_off,,,,,320,0,4,,,,,3,,,74,0
46460,note_off,,,,,188,0,5,,,,,4,,,62,0
46460,note_off,,,,,188,0,1,,,,,0,,,81,0
46460,note_off,,,,,188,0,3,,,,,2,,,81,0
46464,note_on,,,,,64,0,7,,,,,6,,,40,75
46464,note_on,,,,,4,0,3,,,,,2,,,73,127
46464,note_on,,,,,64,0,6,,,,,5,,,52,92
46464,note_on,,,,,4,0,5,,,,,4,,,67,92
46464,note_on,,,,,4,0,1,,,,,0,,,73,92
46464,note_on,,,,,0,0,8,,,,,7,,,55,60
46464,note_on,,,,,196,0,8,,,,,7,,,52,60
46556,note_off,,,,,92,0,8,,,,,7,,,52,0
46556,note_off,,,,,0,0,8,,,,,7,,,55,0
46560,note_on,,,,,4,0,8,,,,,7,,,61,60
46652,note_off,,,,,188,0,6,,,,,5,,,52,0
46652,note_off,,,,,188,0,1,,,,,0,,,73,0
46652,note_off,,,,,92,0,8,,,,,7,,,61,0
46652,note_off,,,,,188,0,7,,,,,6,,,40,0
46652,note_off,,,,,188,0,3,,,,,2,,,73,0
46652,note_off,,,,,188,0,5,,,,,4,,,67,0
46656,note_on,,,,,4,0,6,,,,,5,,,50,92
46656,note_on,,,,,4,0,7,,,,,6,,,38,75
46656,note_on,,,,,4,0,3,,,,,2,,,74,127
46656,note_on,,,,,4,0,1,,,,,0,,,74,92
46656,note_on,,,,,4,0,5,,,,,4,,,66,92
46844,note_off,,,,,188,0,5,,,,,4,,,66,0
46848,note_on,,,,,448,0,4,,,,,3,,,81,127
46848,note_on,,,,,448,0,2,,,,,1,,,81,92
46848,note_on,,,,,4,0,5,,,,,4,,,67,92
46976,note_off,,,,,320,0,7,,,,,6,,,38,0
46976,note_off,,,,,320,0,1,,,,,0,,,74,0
46976,note_off,,,,,320,0,3,,,,,2,,,74,0
46976,note_off,,,,,320,0,6,,,,,5,,,50,0
47036,note_off,,,,,188,0,5,,,,,4,,,67,0
47036,note_off,,,,,188,0,2,,,,,1,,,81,0
47036,note_off,,,,,188,0,4,,,,,3,,,81,0
47040,note_on,,,,,388,0,8,,,,,7,,,52,60
47040,note_on,,,,,64,0,7,,,,,6,,,40,75
47040,note_on,,,,,64,0,6,,,,,5,,,52,92
47040,note_on,,,,,4,0,4,,,,,3,,,73,127
47040,note_on,,,,,4,0,2,,,,,1,,,73,92
47040,note_on,,,,,0,0,8,,,,,7,,,55,60
47040,note_on,,,,,4,0,5,,,,,4,,,67,92
47132,note_off,,,,,92,0,8,,,,,7,,,52,0
47132,note_off,,,,,0,0,8,,,,,7,,,55,0
47136,note_on,,,,,4,0,8,,,,,7,,,61,60
47228,note_off,,,,,188,0,7,,,,,6,,,40,0
47228,note_off,,,,,188,0,2,,,,,1,,,73,0
47228,note_off,,,,,92,0,8,,,,,7,,,61,0
47228,note_off,,,,,188,0,6,,,,,5,,,52,0
47228,note_off,,,,,188,0,4,,,,,3,,,73,0
47228,note_off,,,,,188,0,5,,,,,4,,,67,0
47232,note_on,,,,,4,0,8,,,,,7,,,42,60
47232,note_on,,,,,4,0,7,,,,,6,,,42,75
47232,note_on,,,,,4,0,6,,,,,5,,,54,92
47232,note_on,,,,,4,0,4,,,,,3,,,74,127
47232,note_on,,,,,4,0,2,,,,,1,,,74,92
47232,note_on,,,,,0,0,8,,,,,7,,,45,60
47232,note_on,,,,,4,0,5,,,,,4,,,69,92
47324,note_off,,,,,0,0,8,,,,,7,,,45,0
47324,note_off,,,,,92,0,8,,,,,7,,,42,0
47328,note_on,,,,,4,0,8,,,,,7,,,50,60
47420,note_off,,,,,92,0,8,,,,,7,,,50,0
47420,note_off,,,,,188,0,5,,,,,4,,,69,0
47424,note_on,,,,,448,0,3,,,,,2,,,81,127
47424,note_on,,,,,448,0,1,,,,,0,,,81,92
47424,note_on,,,,,4,0,5,,,,,4,,,62,92
47552,note_off,,,,,320,0,4,,,,,3,,,74,0
47552,note_off,,,,,320,0,2,,,,,1,,,74,0
47552,note_off,,,,,320,0,6,,,,,5,,,54,0
47552,note_off,,,,,320,0,7,,,,,6,,,42,0
47612,note_off,,,,,188,0,3,,,,,2,,,81,0
47612,note_off,,,,,188,0,1,,,,,0,,,81,0
47612,note_off,,,,,188,0,5,,,,,4,,,62,0
47616,note_on,,,,,64,0,6,,,,,5,,,52,92
47616,note_on,,,,,0,0,8,,,,,7,,,55,60
47616,note_on,,,,,64,0,7,,,,,6,,,40,75
47616,note_on,,,,,4,0,1,,,,,0,,,73,92
47616,note_on,,,,,196,0,8,,,,,7,,,52,60
47616,note_on,,,,,4,0,3,,,,,2,,,73,127
47616,note_on,,,,,4,0,5,,,,,4,,,67,92
47708,note_off,,,,,0,0,8,,,,,7,,,55,0
47708,note_off,,,,,92,0,8,,,,,7,,,52,0
47712,note_on,,,,,4,0,8,,,,,7,,,61,60
47804,note_off,,,,,188,0,5,,,,,4,,,67,0
47804,note_off,,,,,92,0,8,,,,,7,,,61,0
47804,note_off,,,,,188,0,1,,,,,0,,,73,0
47804,note_off,,,,,188,0,6,,,,,5,,,52,0
47804,note_off,,,,,188,0,3,,,,,2,,,73,0
47804,note_off,,,,,188,0,7,,,,,6,,,40,0
47808,note_on,,,,,4,0,6,,,,,5,,,50,92
47808,note_on,,,,,4,0,1,,,,,0,,,74,92
47808,note_on,,,,,4,0,7,,,,,6,,,38,75
47808,note_on,,,,,4,0,3,,,,,2,,,74,127
47808,note_on,,,,,4,0,5,,,,,4,,,66,92
47996,note_off,,,,,188,0,5,,,,,4,,,66,0
48000,note_on,,,,,448,0,4,,,,,3,,,81,127
48000,note_on,,,,,448,0,2,,,,,1,,,81,92
48000,note_on,,,,,4,0,5,,,,,4,,,67,92
48128,note_off,,,,,320,0,1,,,,,0,,,74,0
48128,note_off,,,,,320,0,7,,,,,6,,,38,0
48128,note_off,,,,,320,0,3,,,,,2,,,74,0
48128,note_off,,,,,320,0,6,,,,,5,,,50,0
48188,note_off,,,,,188,0,4,,,,,3,,,81,0
48188,note_off,,,,,188,0,2,,,,,1,,,81,0
48188,note_off,,,,,188,0,5,,,,,4,,,67,0
48192,note_on,,,,,64,0,7,,,,,6,,,40,75
48192,note_on,,,,,4,0,5,,,,,4,,,67,92
48192,note_on,,,,,0,0,8,,,,,7,,,55,60
48192,note_on,,,,,388,0,8,,,,,7,,,52,60
48192,note_on,,,,,4,0,4,,,,,3,,,73,127
48192,note_on,,,,,4,0,2,,,,,1,,,73,92
48192,note_on,,,,,64,0,6,,,,,5,,,52,92
48284,note_off,,,,,92,0,8,,,,,7,,,52,0
48284,note_off,,,,,0,0,8,,,,,7,,,55,0
48288,note_on,,,,,4,0,8,,,,,7,,,61,60
48380,note_off,,,,,188,0,7,,,,,6,,,40,0
48380,note_off,,,,,188,0,2,,,,,1,,,73,0
48380,note_off,,,,,188,0,4,,,,,3,,,73,0
48380,note_off,,,,,188,0,5,,,,,4,,,67,0
48380,note_off,,,,,92,0,8,,,,,7,,,61,0
48380,note_off,,,,,188,0,6,,,,,5,,,52,0
48384,note_on,,,,,256,0,1,,,,,0,,,74,92
48384,note_on,,,,,0,0,8,,,,,7,,,45,60
48384,note_on,,,,,4,0,7,,,,,6,,,42,75
48384,note_on,,,,,4,0,5,,,,,4,,,69,92
48384,note_on,,,,,256,0,3,,,,,2,,,74,127
48384,note_on,,,,,4,0,6,,,,,5,,,54,92
48384,note_on,,,,,4,0,2,,,,,1,,,74,92
48384,note_on,,,,,4,0,4,,,,,3,,,74,127
48384,note_on,,,,,4,0,8,,,,,7,,,42,60
48476,note_off,,,,,0,0,8,,,,,7,,,45,0
48476,note_off,,,,,92,0,3,,,,,2,,,74,0
48476,note_off,,,,,92,0,8,,,,,7,,,42,0
48476,note_off,,,,,92,0,1,,,,,0,,,74,0
48480,note_on,,,,,4,0,8,,,,,7,,,50,60
48480,note_on,,,,,4,0,1,,,,,0,,,69,92
48480,note_on,,,,,4,0,3,,,,,2,,,69,127
48572,note_off,,,,,92,0,8,,,,,7,,,50,0
48572,note_off,,,,,92,0,1,,,,,0,,,69,0
48572,note_off,,,,,92,0,3,,,,,2,,,69,0
48576,note_on,,,,,4,0,3,,,,,2,,,78,127
48576,note_on,,,,,4,0,1,,,,,0,,,78,92
48668,note_off,,,,,92,0,3,,,,,2,,,78,0
48668,note_off,,,,,92,0,1,,,,,0,,,78,0
48672,note_on,,,,,4,0,3,,,,,2,,,74,127
48672,note_on,,,,,4,0,1,,,,,0,,,74,92
48704,note_off,,,,,320,0,7,,,,,6,,,42,0
48704,note_off,,,,,320,0,4,,,,,3,,,74,0
48704,note_off,,,,,320,0,2,,,,,1,,,74,0
48704,note_off,,,,,320,0,5,,,,,4,,,69,0
48704,note_off,,,,,320,0,6,,,,,5,,,54,0
48764,note_off,,,,,92,0,3,,,,,2,,,74,0
48764,note_off,,,,,92,0,1,,,,,0,,,74,0
48768,note_on,,,,,4,0,1,,,,,0,,,81,92
48768,note_on,,,,,4,0,3,,,,,2,,,81,127
48860,note_off,,,,,92,0,1,,,,,0,,,81,0
48860,note_off,,,,,92,0,3,,,,,2,,,81,0
48864,note_on,,,,,4,0,3,,,,,2,,,78,127
48864,note_on,,,,,4,0,1,,,,,0,,,78,92
48956,note_off,,,,,92,0,1,,,,,0,,,78,0
48956,note_off,,,,,92,0,3,,,,,2,,,78,0
48960,note_on,,,,,4,0,1,,,,,0,,,86,92
48960,note_on,,,,,4,0,3,,,,,2,,,86,127
48960,note_on,,,,,256,0,4,,,,,3,,,66,127
48960,note_on,,,,,256,0,2,,,,,1,,,66,92
49052,note_off,,,,,92,0,4,,,,,3,,,66,0
49052,note_off,,,,,92,0,2,,,,,1,,,66,0
49056,note_on,,,,,4,0,2,,,,,1,,,62,92
49056,note_on,,,,,4,0,4,,,,,3,,,62,127
49148,note_off,,,,,92,0,4,,,,,3,,,62,0
49148,note_off,,,,,92,0,2,,,,,1,,,62,0
49152,note_on,,,,,4,0,2,,,,,1,,,69,92
49152,note_on,,,,,4,0,4,,,,,3,,,69,127
49244,note_off,,,,,92,0,2,,,,,1,,,69,0
49244,note_off,,,,,92,0,4,,,,,3,,,69,0
49248,note_on,,,,,4,0,4,,,,,3,,,66,127
49248,note_on,,,,,4,0,2,,,,,1,,,66,92
49280,note_off,,,,,320,0,3,,,,,2,,,86,0
49280,note_off,,,,,320,0,1,,,,,0,,,86,0
49340,note_off,,,,,92,0,2,,,,,1,,,66,0
49340,note_off,,,,,92,0,4,,,,,3,,,66,0
49344,note_on,,,,,4,0,2,,,,,1,,,74,92
49344,note_on,,,,,4,0,4,,,,,3,,,74,127
49436,note_off,,,,,92,0,4,,,,,3,,,74,0
49436,note_off,,,,,92,0,2,,,,,1,,,74,0
49440,note_on,,,,,4,0,4,,,,,3,,,69,127
49440,note_on,,,,,4,0,2,,,,,1,,,69,92
49532,note_off,,,,,92,0,2,,,,,1,,,69,0
49532,note_off,,,,,92,0,4,,,,,3,,,69,0
49536,note_on,,,,,4,0,2,,,,,1,,,78,92
49536,note_on,,,,,256,0,1,,,,,0,,,74,92
49536,note_on,,,,,832,0,7,,,,,6,,,38,75
49536,note_on,,,,,256,0,3,,,,,2,,,74,127
49536,note_on,,,,,832,0,6,,,,,5,,,50,92
49536,note_on,,,,,832,0,5,,,,,4,,,69,92
49536,note_on,,,,,4,0,4,,,,,3,,,78,127
49628,note_off,,,,,92,0,3,,,,,2,,,74,0
49628,note_off,,,,,92,0,1,,,,,0,,,74,0
49632,note_on,,,,,4,0,3,,,,,2,,,69,127
49632,note_on,,,,,4,0,1,,,,,0,,,69,92
49724,note_off,,,,,92,0,1,,,,,0,,,69,0
49724,note_off,,,,,92,0,3,,,,,2,,,69,0
49728,note_on,,,,,4,0,3,,,,,2,,,78,127
49728,note_on,,,,,4,0,1,,,,,0,,,78,92
49820,note_off,,,,,92,0,3,,,,,2,,,78,0
49820,note_off,,,,,92,0,1,,,,,0,,,78,0
49824,note_on,,,,,4,0,3,,,,,2,,,74,127
49824,note_on,,,,,4,0,1,,,,,0,,,74,92
49856,note_off,,,,,320,0,4,,,,,3,,,78,0
49856,note_off,,,,,320,0,7,,,,,6,,,38,0
49856,note_off,,,,,320,0,2,,,,,1,,,78,0
49856,note_off,,,,,320,0,6,,,,,5,,,50,0
49856,note_off,,,,,320,0,5,,,,,4,,,69,0
49916,note_off,,,,,92,0,3,,,,,2,,,74,0
49916,note_off,,,,,92,0,1,,,,,0,,,74,0
49920,note_on,,,,,4,0,3,,,,,2,,,81,127
49920,note_on,,,,,4,0,1,,,,,0,,,81,92
50012,note_off,,,,,92,0,1,,,,,0,,,81,0
50012,note_off,,,,,92,0,3,,,,,2,,,81,0
50016,note_on,,,,,4,0,1,,,,,0,,,78,92
50016,note_on,,,,,4,0,3,,,,,2,,,78,127
50108,note_off,,,,,92,0,1,,,,,0,,,78,0
50108,note_off,,,,,92,0,3,,,,,2,,,78,0
50112,note_on,,,,,256,0,4,,,,,3,,,66,127
50112,note_on,,,,,4,0,1,,,,,0,,,86,92
50112,note_on,,,,,4,0,3,,,,,2,,,86,127
50112,note_on,,,,,256,0,2,,,,,1,,,66,92
50204,note_off,,,,,92,0,2,,,,,1,,,66,0
50204,note_off,,,,,92,0,4,,,,,3,,,66,0
50208,note_on,,,,,4,0,2,,,,,1,,,62,92
50208,note_on,,,,,4,0,4,,,,,3,,,62,127
50300,note_off,,,,,92,0,2,,,,,1,,,62,0
50300,note_off,,,,,92,0,4,,,,,3,,,62,0
50304,note_on,,,,,4,0,2,,,,,1,,,69,92
50304,note_on,,,,,4,0,4,,,,,3,,,69,127
50396,note_off,,,,,92,0,2,,,,,1,,,69,0
50396,note_off,,,,,92,0,4,,,,,3,,,69,0
50400,note_on,,,,,4,0,4,,,,,3,,,66,127
50400,note_on,,,,,4,0,2,,,,,1,,,66,92
50432,note_off,,,,,320,0,3,,,,,2,,,86,0
50432,note_off,,,,,320,0,1,,,,,0,,,86,0
50492,note_off,,,,,92,0,2,,,,,1,,,66,0
50492,note_off,,,,,92,0,4,,,,,3,,,66,0
50496,note_on,,,,,4,0,4,,,,,3,,,74,127
50496,note_on,,,,,4,0,2,,,,,1,,,74,92
50588,note_off,,,,,92,0,2,,,,,1,,,74,0
50588,note_off,,,,,92,0,4,,,,,3,,,74,0
50592,note_on,,,,,4,0,2,,,,,1,,,69,92
50592,note_on,,,,,4,0,4,,,,,3,,,69,127
50684,note_off,,,,,92,0,4,,,,,3,,,69,0
50684,note_off,,,,,92,0,2,,,,,1,,,69,0
50688,note_on,,,,,4,0,4,,,,,3,,,78,127
50688,note_on,,,,,4,0,2,,,,,1,,,78,92
50688,note_on,,,,,832,0,7,,,,,6,,,47,75
50688,note_on,,,,,832,0,6,,,,,5,,,59,92
50688,note_on,,,,,256,0,1,,,,,0,,,86,92
50688,note_on,,,,,256,0,3,,,,,2,,,86,127
50688,note_on,,,,,832,0,5,,,,,4,,,62,92
50876,note_off,,,,,188,0,5,,,,,4,,,62,0
50876,note_off,,,,,188,0,6,,,,,5,,,59,0
50876,note_off,,,,,188,0,1,,,,,0,,,86,0
50876,note_off,,,,,188,0,7,,,,,6,,,47,0
50876,note_off,,,,,188,0,2,,,,,1,,,78,0
50876,note_off,,,,,188,0,3,,,,,2,,,86,0
50876,note_off,,,,,188,0,4,,,,,3,,,78,0
50880,note_on,,,,,4,0,2,,,,,1,,,76,92
50880,note_on,,,,,4,0,4,,,,,3,,,76,127
50880,note_on,,,,,4,0,7,,,,,6,,,49,75
50880,note_on,,,,,4,0,5,,,,,4,,,69,92
50880,note_on,,,,,2308,0,8,,,,,7,,,49,60
50880,note_on,,,,,4,0,6,,,,,5,,,61,92
50880,note_on,,,,,4,0,3,,,,,2,,,85,127
50880,note_on,,,,,0,0,8,,,,,7,,,52,60
50880,note_on,,,,,4,0,1,,,,,0,,,85,92
50972,note_off,,,,,0,0,8,,,,,7,,,52,0
50972,note_off,,,,,92,0,8,,,,,7,,,49,0
50976,note_on,,,,,4,0,8,,,,,7,,,57,60
51068,note_off,,,,,188,0,2,,,,,1,,,76,0
51068,note_off,,,,,92,0,8,,,,,7,,,57,0
51068,note_off,,,,,188,0,3,,,,,2,,,85,0
51068,note_off,,,,,188,0,4,,,,,3,,,76,0
51068,note_off,,,,,188,0,1,,,,,0,,,85,0
51072,note_on,,,,,4,0,2,,,,,1,,,79,92
51072,note_on,,,,,4,0,4,,,,,3,,,79,127
51072,note_on,,,,,4,0,3,,,,,2,,,83,127
51072,note_on,,,,,4,0,1,,,,,0,,,83,92
51200,note_off,,,,,320,0,6,,,,,5,,,61,0
51200,note_off,,,,,320,0,5,,,,,4,,,69,0
51200,note_off,,,,,320,0,7,,,,,6,,,49,0
51260,note_off,,,,,188,0,1,,,,,0,,,83,0
51260,note_off,,,,,188,0,4,,,,,3,,,79,0
51260,note_off,,,,,188,0,2,,,,,1,,,79,0
51260,note_off,,,,,188,0,3,,,,,2,,,83,0
51264,note_on,,,,,4,0,1,,,,,0,,,81,92
51264,note_on,,,,,4,0,4,,,,,3,,,78,127
51264,note_on,,,,,64,0,6,,,,,5,,,62,92
51264,note_on,,,,,64,0,7,,,,,6,,,50,75
51264,note_on,,,,,4,0,2,,,,,1,,,78,92
51264,note_on,,,,,64,0,5,,,,,4,,,62,92
51264,note_on,,,,,4,0,3,,,,,2,,,81,127
51452,note_off,,,,,188,0,5,,,,,4,,,62,0
51452,note_off,,,,,188,0,1,,,,,0,,,81,0
51452,note_off,,,,,188,0,6,,,,,5,,,62,0
51452,note_off,,,,,188,0,7,,,,,6,,,50,0
51452,note_off,,,,,188,0,4,,,,,3,,,78,0
51452,note_off,,,,,188,0,2,,,,,1,,,78,0
51452,note_off,,,,,188,0,3,,,,,2,,,81,0
51456,note_on,,,,,4,0,7,,,,,6,,,42,75
51456,note_on,,,,,4,0,5,,,,,4,,,74,92
51456,note_on,,,,,4,0,4,,,,,3,,,69,127
51456,note_on,,,,,4,0,2,,,,,1,,,69,92
51456,note_on,,,,,4,0,1,,,,,0,,,79,92
51456,note_on,,,,,4,0,3,,,,,2,,,79,127
51456,note_on,,,,,4,0,6,,,,,5,,,54,92
51548,note_off,,,,,92,0,1,,,,,0,,,79,0
51548,note_off,,,,,92,0,3,,,,,2,,,79,0
51552,note_on,,,,,4,0,3,,,,,2,,,78,127
51552,note_on,,,,,4,0,1,,,,,0,,,78,92
51644,note_off,,,,,188,0,7,,,,,6,,,42,0
51644,note_off,,,,,188,0,4,,,,,3,,,69,0
51644,note_off,,,,,92,0,1,,,,,0,,,78,0
51644,note_off,,,,,188,0,6,,,,,5,,,54,0
51644,note_off,,,,,188,0,5,,,,,4,,,74,0
51644,note_off,,,,,92,0,3,,,,,2,,,78,0
51644,note_off,,,,,188,0,2,,,,,1,,,69,0
51648,note_on,,,,,4,0,1,,,,,0,,,76,92
51648,note_on,,,,,4,0,4,,,,,3,,,66,127
51648,note_on,,,,,4,0,7,,,,,6,,,47,75
51648,note_on,,,,,4,0,5,,,,,4,,,71,92
51648,note_on,,,,,4,0,2,,,,,1,,,66,92
51648,note_on,,,,,4,0,6,,,,,5,,,59,92
51648,note_on,,,,,4,0,3,,,,,2,,,76,127
51740,note_off,,,,,92,0,3,,,,,2,,,76,0
51740,note_off,,,,,92,0,1,,,,,0,,,76,0
51744,note_on,,,,,4,0,3,,,,,2,,,74,127
51744,note_on,,,,,4,0,1,,,,,0,,,74,92
51836,note_off,,,,,92,0,1,,,,,0,,,74,0
51836,note_off,,,,,188,0,7,,,,,6,,,47,0
51836,note_off,,,,,92,0,3,,,,,2,,,74,0
51836,note_off,,,,,188,0,6,,,,,5,,,59,0
51836,note_off,,,,,188,0,2,,,,,1,,,66,0
51836,note_off,,,,,188,0,4,,,,,3,,,66,0
51836,note_off,,,,,188,0,5,,,,,4,,,71,0
51840,note_on,,,,,4,0,7,,,,,6,,,43,75
51840,note_on,,,,,4,0,1,,,,,0,,,76,92
51840,note_on,,,,,4,0,3,,,,,2,,,76,127
51840,note_on,,,,,772,0,8,,,,,7,,,43,60
51840,note_on,,,,,0,0,8,,,,,7,,,47,60
51840,note_on,,,,,4,0,2,,,,,1,,,71,92
51840,note_on,,,,,4,0,5,,,,,4,,,64,92
51840,note_on,,,,,4,0,4,,,,,3,,,71,127
51840,note_on,,,,,4,0,6,,,,,5,,,55,92
51932,note_off,,,,,92,0,3,,,,,2,,,76,0
51932,note_off,,,,,92,0,1,,,,,0,,,76,0
51932,note_off,,,,,92,0,8,,,,,7,,,43,0
51932,note_off,,,,,0,0,8,,,,,7,,,47,0
51936,note_on,,,,,4,0,8,,,,,7,,,52,60
51936,note_on,,,,,4,0,1,,,,,0,,,79,92
51936,note_on,,,,,4,0,3,,,,,2,,,79,127
52028,note_off,,,,,92,0,1,,,,,0,,,79,0
52028,note_off,,,,,188,0,4,,,,,3,,,71,0
52028,note_off,,,,,92,0,3,,,,,2,,,79,0
52028,note_off,,,,,92,0,8,,,,,7,,,52,0
52028,note_off,,,,,188,0,2,,,,,1,,,71,0
52028,note_off,,,,,188,0,5,,,,,4,,,64,0
52028,note_off,,,,,188,0,7,,,,,6,,,43,0
52028,note_off,,,,,188,0,6,,,,,5,,,55,0
52032,note_on,,,,,4,0,8,,,,,7,,,45,60
52032,note_on,,,,,4,0,2,,,,,1,,,69,92
52032,note_on,,,,,4,0,1,,,,,0,,,78,92
52032,note_on,,,,,4,0,7,,,,,6,,,45,75
52032,note_on,,,,,4,0,3,,,,,2,,,78,127
52032,note_on,,,,,4,0,5,,,,,4,,,69,92
52032,note_on,,,,,0,0,8,,,,,7,,,49,60
52032,note_on,,,,,4,0,4,,,,,3,,,69,127
52032,note_on,,,,,4,0,6,,,,,5,,,57,92
52124,note_off,,,,,92,0,3,,,,,2,,,78,0
52124,note_off,,,,,92,0,1,,,,,0,,,78,0
52124,note_off,,,,,92,0,4,,,,,3,,,69,0
52124,note_off,,,,,92,0,2,,,,,1,,,69,0
52124,note_off,,,,,0,0,8,,,,,7,,,49,0
52124,note_off,,,,,92,0,8,,,,,7,,,45,0
52128,note_on,,,,,4,0,2,,,,,1,,,67,92
52128,note_on,,,,,4,0,3,,,,,2,,,76,127
52128,note_on,,,,,4,0,4,,,,,3,,,67,127
52128,note_on,,,,,4,0,1,,,,,0,,,76,92
52128,note_on,,,,,4,0,8,,,,,7,,,52,60
52220,note_off,,,,,92,0,1,,,,,0,,,76,0
52220,note_off,,,,,92,0,4,,,,,3,,,67,0
52220,note_off,,,,,92,0,2,,,,,1,,,67,0
52220,note_off,,,,,92,0,8,,,,,7,,,52,0
52220,note_off,,,,,188,0,7,,,,,6,,,45,0
52220,note_off,,,,,188,0,6,,,,,5,,,57,0
52220,note_off,,,,,92,0,3,,,,,2,,,76,0
52220,note_off,,,,,188,0,5,,,,,4,,,69,0
52224,note_on,,,,,4,0,7,,,,,6,,,33,75
52224,note_on,,,,,4,0,2,,,,,1,,,66,92
52224,note_on,,,,,4,0,1,,,,,0,,,74,92
52224,note_on,,,,,4,0,6,,,,,5,,,45,92
52224,note_on,,,,,4,0,3,,,,,2,,,74,127
52224,note_on,,,,,4,0,5,,,,,4,,,69,92
52224,note_on,,,,,4,0,4,,,,,3,,,66,127
52316,note_off,,,,,92,0,1,,,,,0,,,74,0
52316,note_off,,,,,92,0,3,,,,,2,,,74,0
52316,note_off,,,,,92,0,2,,,,,1,,,66,0
52316,note_off,,,,,92,0,4,,,,,3,,,66,0
52320,note_on,,,,,4,0,3,,,,,2,,,73,127
52320,note_on,,,,,4,0,4,,,,,3,,,64,127
52320,note_on,,,,,4,0,1,,,,,0,,,73,92
52320,note_on,,,,,4,0,2,,,,,1,,,64,92
52412,note_off,,,,,188,0,5,,,,,4,,,69,0
52412,note_off,,,,,188,0,7,,,,,6,,,33,0
52412,note_off,,,,,92,0,2,,,,,1,,,64,0
52412,note_off,,,,,188,0,6,,,,,5,,,45,0
52412,note_off,,,,,92,0,1,,,,,0,,,73,0
52412,note_off,,,,,92,0,3,,,,,2,,,73,0
52412,note_off,,,,,92,0,4,,,,,3,,,64,0
52416,note_on,,,,,4,0,3,,,,,2,,,74,127
52416,note_on,,,,,4,0,7,,,,,6,,,38,75
52416,note_on,,,,,4,0,1,,,,,0,,,74,92
52416,note_on,,,,,4,0,2,,,,,1,,,66,92
52416,note_on,,,,,4,0,6,,,,,5,,,50,92
52416,note_on,,,,,4,0,5,,,,,4,,,69,92
52416,note_on,,,,,4,0,4,,,,,3,,,66,127
52508,note_off,,,,,92,0,2,,,,,1,,,66,0
52508,note_off,,,,,92,0,4,,,,,3,,,66,0
52508,note_off,,,,,92,0,3,,,,,2,,,74,0
52508,note_off,,,,,92,0,1,,,,,0,,,74,0
52512,note_on,,,,,4,0,2,,,,,1,,,62,92
52512,note_on,,,,,4,0,4,,,,,3,,,62,127
52512,note_on,,,,,4,0,1,,,,,0,,,66,92
52512,note_on,,,,,4,0,3,,,,,2,,,66,127
52604,note_off,,,,,92,0,2,,,,,1,,,62,0
52604,note_off,,,,,92,0,3,,,,,2,,,66,0
52604,note_off,,,,,92,0,1,,,,,0,,,66,0
52604,note_off,,,,,92,0,4,,,,,3,,,62,0
52608,note_on,,,,,4,0,3,,,,,2,,,67,127
52608,note_on,,,,,4,0,4,,,,,3,,,64,127
52608,note_on,,,,,4,0,2,,,,,1,,,64,92
52608,note_on,,,,,4,0,1,,,,,0,,,67,92
52700,note_off,,,,,92,0,3,,,,,2,,,67,0
52700,note_off,,,,,92,0,4,,,,,3,,,64,0
52700,note_off,,,,,92,0,2,,,,,1,,,64,0
52700,note_off,,,,,92,0,1,,,,,0,,,67,0
52704,note_on,,,,,4,0,2,,,,,1,,,66,92
52704,note_on,,,,,4,0,3,,,,,2,,,69,127
52704,note_on,,,,,4,0,1,,,,,0,,,69,92
52704,note_on,,,,,4,0,4,,,,,3,,,66,127
52736,note_off,,,,,320,0,5,,,,,4,,,69,0
52736,note_off,,,,,320,0,7,,,,,6,,,38,0
52736,note_off,,,,,320,0,6,,,,,5,,,50,0
52796,note_off,,,,,92,0,4,,,,,3,,,66,0
52796,note_off,,,,,92,0,2,,,,,1,,,66,0
52796,note_off,,,,,92,0,3,,,,,2,,,69,0
52796,note_off,,,,,92,0,1,,,,,0,,,69,0
52800,note_on,,,,,4,0,1,,,,,0,,,71,92
52800,note_on,,,,,4,0,2,,,,,1,,,67,92
52800,note_on,,,,,4,0,4,,,,,3,,,67,127
52800,note_on,,,,,4,0,3,,,,,2,,,71,127
52892,note_off,,,,,92,0,1,,,,,0,,,71,0
52892,note_off,,,,,92,0,2,,,,,1,,,67,0
52892,note_off,,,,,92,0,3,,,,,2,,,71,0
52892,note_off,,,,,92,0,4,,,,,3,,,67,0
52896,note_on,,,,,4,0,4,,,,,3,,,64,127
52896,note_on,,,,,4,0,2,,,,,1,,,64,92
52896,note_on,,,,,4,0,1,,,,,0,,,73,92
52896,note_on,,,,,4,0,3,,,,,2,,,73,127
52988,note_off,,,,,92,0,2,,,,,1,,,64,0
52988,note_off,,,,,92,0,1,,,,,0,,,73,0
52988,note_off,,,,,92,0,3,,,,,2,,,73,0
52988,note_off,,,,,92,0,4,,,,,3,,,64,0
52992,note_on,,,,,256,0,6,,,,,5,,,50,92
52992,note_on,,,,,4,0,1,,,,,0,,,74,92
52992,note_on,,,,,256,0,5,,,,,4,,,69,92
52992,note_on,,,,,4,0,3,,,,,2,,,74,127
52992,note_on,,,,,4,0,2,,,,,1,,,66,92
52992,note_on,,,,,256,0,7,,,,,6,,,38,75
52992,note_on,,,,,4,0,4,,,,,3,,,66,127
53180,note_off,,,,,188,0,3,,,,,2,,,74,0
53180,note_off,,,,,188,0,4,,,,,3,,,66,0
53180,note_off,,,,,188,0,1,,,,,0,,,74,0
53180,note_off,,,,,188,0,2,,,,,1,,,66,0
53180,note_off,,,,,188,0,7,,,,,6,,,38,0
53180,note_off,,,,,188,0,5,,,,,4,,,69,0
53180,note_off,,,,,188,0,6,,,,,5,,,50,0
53184,note_on,,,,,4,0,2,,,,,1,,,64,92
53184,note_on,,,,,964,0,8,,,,,7,,,52,60
53184,note_on,,,,,0,0,8,,,,,7,,,55,60
53184,note_on,,,,,4,0,7,,,,,6,,,40,75
53184,note_on,,,,,4,0,1,,,,,0,,,73,92
53184,note_on,,,,,4,0,3,,,,,2,,,73,127
53184,note_on,,,,,4,0,4,,,,,3,,,64,127
53184,note_on,,,,,4,0,5,,,,,4,,,67,92
53184,note_on,,,,,4,0,6,,,,,5,,,52,92
53276,note_off,,,,,92,0,3,,,,,2,,,73,0
53276,note_off,,,,,92,0,4,,,,,3,,,64,0
53276,note_off,,,,,92,0,2,,,,,1,,,64,0
53276,note_off,,,,,92,0,8,,,,,7,,,52,0
53276,note_off,,,,,0,0,8,,,,,7,,,55,0
53276,note_off,,,,,92,0,1,,,,,0,,,73,0
53280,note_on,,,,,4,0,2,,,,,1,,,62,92
53280,note_on,,,,,4,0,8,,,,,7,,,61,60
53280,note_on,,,,,4,0,3,,,,,2,,,71,127
53280,note_on,,,,,4,0,1,,,,,0,,,71,92
53280,note_on,,,,,4,0,4,,,,,3,,,62,127
53372,note_off,,,,,92,0,2,,,,,1,,,62,0
53372,note_off,,,,,92,0,1,,,,,0,,,71,0
53372,note_off,,,,,188,0,6,,,,,5,,,52,0
53372,note_off,,,,,92,0,4,,,,,3,,,62,0
53372,note_off,,,,,188,0,7,,,,,6,,,40,0
53372,note_off,,,,,92,0,3,,,,,2,,,71,0
53372,note_off,,,,,188,0,5,,,,,4,,,67,0
53372,note_off,,,,,92,0,8,,,,,7,,,61,0
53376,note_on,,,,,4,0,3,,,,,2,,,69,127
53376,note_on,,,,,4,0,6,,,,,5,,,52,92
53376,note_on,,,,,4,0,7,,,,,6,,,40,75
53376,note_on,,,,,4,0,1,,,,,0,,,69,92
53376,note_on,,,,,4,0,5,,,,,4,,,64,92
53376,note_on,,,,,4,0,4,,,,,3,,,61,127
53376,note_on,,,,,4,0,2,,,,,1,,,61,92
53468,note_off,,,,,92,0,1,,,,,0,,,69,0
53468,note_off,,,,,92,0,3,,,,,2,,,69,0
53468,note_off,,,,,92,0,2,,,,,1,,,61,0
53468,note_off,,,,,92,0,4,,,,,3,,,61,0
53472,note_on,,,,,4,0,2,,,,,1,,,64,92
53472,note_on,,,,,4,0,4,,,,,3,,,64,127
53472,note_on,,,,,4,0,3,,,,,2,,,67,127
53472,note_on,,,,,4,0,1,,,,,0,,,67,92
53564,note_off,,,,,188,0,6,,,,,5,,,52,0
53564,note_off,,,,,92,0,3,,,,,2,,,67,0
53564,note_off,,,,,92,0,1,,,,,0,,,67,0
53564,note_off,,,,,92,0,2,,,,,1,,,64,0
53564,note_off,,,,,188,0,5,,,,,4,,,64,0
53564,note_off,,,,,188,0,7,,,,,6,,,40,0
53564,note_off,,,,,92,0,4,,,,,3,,,64,0
53568,note_on,,,,,0,0,8,,,,,7,,,45,60
53568,note_on,,,,,4,0,4,,,,,3,,,57,127
53568,note_on,,,,,4,0,1,,,,,0,,,66,92
53568,note_on,,,,,4,0,3,,,,,2,,,66,127
53568,note_on,,,,,196,0,8,,,,,7,,,42,60
53568,note_on,,,,,4,0,5,,,,,4,,,62,92
53568,note_on,,,,,4,0,7,,,,,6,,,42,75
53568,note_on,,,,,4,0,6,,,,,5,,,54,92
53568,note_on,,,,,4,0,2,,,,,1,,,57,92
53660,note_off,,,,,92,0,3,,,,,2,,,66,0
53660,note_off,,,,,92,0,4,,,,,3,,,57,0
53660,note_off,,,,,92,0,8,,,,,7,,,42,0
53660,note_off,,,,,0,0,8,,,,,7,,,45,0
53660,note_off,,,,,92,0,1,,,,,0,,,66,0
53660,note_off,,,,,92,0,2,,,,,1,,,57,0
53664,note_on,,,,,4,0,4,,,,,3,,,69,127
53664,note_on,,,,,4,0,1,,,,,0,,,74,92
53664,note_on,,,,,4,0,2,,,,,1,,,69,92
53664,note_on,,,,,4,0,3,,,,,2,,,74,127
53664,note_on,,,,,4,0,8,,,,,7,,,50,60
53756,note_off,,,,,188,0,6,,,,,5,,,54,0
53756,note_off,,,,,188,0,5,,,,,4,,,62,0
53756,note_off,,,,,92,0,8,,,,,7,,,50,0
53756,note_off,,,,,92,0,3,,,,,2,,,74,0
53756,note_off,,,,,92,0,1,,,,,0,,,74,0
53756,note_off,,,,,92,0,2,,,,,1,,,69,0
53756,note_off,,,,,188,0,7,,,,,6,,,42,0
53756,note_off,,,,,92,0,4,,,,,3,,,69,0
53760,note_on,,,,,4,0,3,,,,,2,,,79,127
53760,note_on,,,,,4,0,1,,,,,0,,,79,92
53760,note_on,,,,,4,0,7,,,,,6,,,40,75
53760,note_on,,,,,4,0,5,,,,,4,,,67,92
53760,note_on,,,,,4,0,2,,,,,1,,,71,92
53760,note_on,,,,,4,0,8,,,,,7,,,52,60
53760,note_on,,,,,0,0,8,,,,,7,,,55,60
53760,note_on,,,,,4,0,4,,,,,3,,,71,127
53760,note_on,,,,,4,0,6,,,,,5,,,52,92
53852,note_off,,,,,92,0,8,,,,,7,,,52,0
53852,note_off,,,,,92,0,3,,,,,2,,,79,0
53852,note_off,,,,,92,0,2,,,,,1,,,71,0
53852,note_off,,,,,92,0,4,,,,,3,,,71,0
53852,note_off,,,,,92,0,1,,,,,0,,,79,0
53852,note_off,,,,,0,0,8,,,,,7,,,55,0
53856,note_on,,,,,4,0,4,,,,,3,,,73,127
53856,note_on,,,,,4,0,3,,,,,2,,,76,127
53856,note_on,,,,,4,0,8,,,,,7,,,61,60
53856,note_on,,,,,4,0,1,,,,,0,,,76,92
53856,note_on,,,,,4,0,2,,,,,1,,,73,92
53948,note_off,,,,,188,0,7,,,,,6,,,40,0
53948,note_off,,,,,92,0,8,,,,,7,,,61,0
53948,note_off,,,,,92,0,1,,,,,0,,,76,0
53948,note_off,,,,,92,0,4,,,,,3,,,73,0
53948,note_off,,,,,188,0,6,,,,,5,,,52,0
53948,note_off,,,,,92,0,3,,,,,2,,,76,0
53948,note_off,,,,,92,0,2,,,,,1,,,73,0
53948,note_off,,,,,188,0,5,,,,,4,,,67,0
53952,note_on,,,,,4,0,5,,,,,4,,,69,92
53952,note_on,,,,,4,0,7,,,,,6,,,38,75
53952,note_on,,,,,4,0,1,,,,,0,,,78,92
53952,note_on,,,,,4,0,6,,,,,5,,,50,92
53952,note_on,,,,,4,0,2,,,,,1,,,74,92
53952,note_on,,,,,4,0,3,,,,,2,,,78,127
53952,note_on,,,,,4,0,4,,,,,3,,,74,127
54044,note_off,,,,,92,0,2,,,,,1,,,74,0
54044,note_off,,,,,92,0,1,,,,,0,,,78,0
54044,note_off,,,,,92,0,3,,,,,2,,,78,0
54044,note_off,,,,,92,0,4,,,,,3,,,74,0
54048,note_on,,,,,4,0,2,,,,,1,,,69,92
54048,note_on,,,,,4,0,1,,,,,0,,,73,92
54048,note_on,,,,,4,0,3,,,,,2,,,73,127
54048,note_on,,,,,4,0,4,,,,,3,,,69,127
54140,note_off,,,,,92,0,4,,,,,3,,,69,0
54140,note_off,,,,,92,0,3,,,,,2,,,73,0
54140,note_off,,,,,92,0,1,,,,,0,,,73,0
54140,note_off,,,,,92,0,2,,,,,1,,,69,0
54140,note_off,,,,,188,0,5,,,,,4,,,69,0
54140,note_off,,,,,188,0,7,,,,,6,,,38,0
54140,note_off,,,,,188,0,6,,,,,5,,,50,0
54144,note_on,,,,,4,0,5,,,,,4,,,67,92
54144,note_on,,,,,4,0,7,,,,,6,,,43,75
54144,note_on,,,,,4,0,6,,,,,5,,,55,92
54144,note_on,,,,,4,0,3,,,,,2,,,74,127
54144,set_tempo,,,,,26496,1,0,,666666,,,,,,,
54144,note_on,,,,,4,0,4,,,,,3,,,71,127
54144,note_on,,,,,196,0,8,,,,,7,,,43,60
54144,note_on,,,,,0,0,8,,,,,7,,,47,60
54144,note_on,,,,,4,0,1,,,,,0,,,74,92
54144,note_on,,,,,4,0,2,,,,,1,,,71,92
54236,note_off,,,,,92,0,8,,,,,7,,,43,0
54236,note_off,,,,,0,0,8,,,,,7,,,47,0
54236,note_off,,,,,92,0,3,,,,,2,,,74,0
54236,note_off,,,,,92,0,1,,,,,0,,,74,0
54240,note_on,,,,,4,0,1,,,,,0,,,64,92
54240,note_on,,,,,4,0,3,,,,,2,,,64,127
54240,note_on,,,,,4,0,8,,,,,7,,,52,60
54332,note_off,,,,,92,0,3,,,,,2,,,64,0
54332,note_off,,,,,188,0,5,,,,,4,,,67,0
54332,note_off,,,,,92,0,8,,,,,7,,,52,0
54332,note_off,,,,,188,0,6,,,,,5,,,55,0
54332,note_off,,,,,92,0,1,,,,,0,,,64,0
54332,note_off,,,,,188,0,4,,,,,3,,,71,0
54332,note_off,,,,,188,0,7,,,,,6,,,43,0
54332,note_off,,,,,188,0,2,,,,,1,,,71,0
54336,note_on,,,,,4,0,2,,,,,1,,,71,92
54336,note_on,,,,,4,0,1,,,,,0,,,74,92
54336,note_on,,,,,4,0,4,,,,,3,,,71,127
54336,note_on,,,,,4,0,5,,,,,4,,,64,92
54336,note_on,,,,,4,0,7,,,,,6,,,45,75
54336,note_on,,,,,4,0,8,,,,,7,,,45,60
54336,note_on,,,,,0,0,8,,,,,7,,,49,60
54336,note_on,,,,,4,0,6,,,,,5,,,57,92
54336,note_on,,,,,4,0,3,,,,,2,,,74,127
54384,note_off,,,,,48,0,1,,,,,0,,,74,0
54384,note_on,,,,,0,0,1,,,,,0,,,73,92
54384,note_off,,,,,48,0,4,,,,,3,,,71,0
54384,note_on,,,,,0,0,3,,,,,2,,,73,127
54384,note_off,,,,,48,0,3,,,,,2,,,74,0
54384,note_off,,,,,48,0,2,,,,,1,,,71,0
54384,note_on,,,,,0,0,2,,,,,1,,,69,92
54384,note_on,,,,,0,0,4,,,,,3,,,69,127
54428,note_off,,,,,0,0,8,,,,,7,,,49,0
54428,note_off,,,,,92,0,8,,,,,7,,,45,0
54432,note_on,,,,,4,0,8,,,,,7,,,52,60
54432,note_off,,,,,48,0,3,,,,,2,,,73,0
54432,note_on,,,,,0,0,3,,,,,2,,,74,127
54432,note_on,,,,,0,0,1,,,,,0,,,74,92
54432,note_off,,,,,48,0,1,,,,,0,,,73,0
54432,note_on,,,,,0,0,2,,,,,1,,,71,92
54432,note_off,,,,,48,0,2,,,,,1,,,69,0
54432,note_on,,,,,0,0,4,,,,,3,,,71,127
54432,note_off,,,,,48,0,4,,,,,3,,,69,0
54480,note_on,,,,,0,0,3,,,,,2,,,73,127
54480,note_off,,,,,48,0,3,,,,,2,,,74,0
54480,note_off,,,,,48,0,4,,,,,3,,,71,0
54480,note_on,,,,,0,0,4,,,,,3,,,69,127
54480,note_on,,,,,0,0,1,,,,,0,,,73,92
54480,note_off,,,,,48,0,2,,,,,1,,,71,0
54480,note_on,,,,,0,0,2,,,,,1,,,69,92
54480,note_off,,,,,48,0,1,,,,,0,,,74,0
54524,note_off,,,,,188,0,6,,,,,5,,,57,0
54524,note_off,,,,,92,0,8,,,,,7,,,52,0
54524,note_off,,,,,188,0,5,,,,,4,,,64,0
54524,note_off,,,,,188,0,7,,,,,6,,,45,0
54528,note_on,,,,,0,0,3,,,,,2,,,74,127
54528,note_off,,,,,48,0,3,,,,,2,,,73,0
54528,note_off,,,,,48,0,2,,,,,1,,,69,0
54528,note_on,,,,,0,0,2,,,,,1,,,71,92
54528,note_on,,,,,0,0,4,,,,,3,,,71,127
54528,note_off,,,,,48,0,4,,,,,3,,,69,0
54528,note_on,,,,,4,0,7,,,,,6,,,33,75
54528,note_on,,,,,4,0,6,,,,,5,,,45,92
54528,note_on,,,,,4,0,5,,,,,4,,,69,92
54528,note_off,,,,,48,0,1,,,,,0,,,73,0
54528,note_on,,,,,0,0,1,,,,,0,,,74,92
54576,note_off,,,,,48,0,4,,,,,3,,,71,0
54576,note_on,,,,,0,0,4,,,,,3,,,69,127
54576,note_off,,,,,48,0,2,,,,,1,,,71,0
54576,note_off,,,,,48,0,1,,,,,0,,,74,0
54576,note_on,,,,,0,0,1,,,,,0,,,73,92
54576,note_on,,,,,0,0,2,,,,,1,,,69,92
54576,note_off,,,,,48,0,3,,,,,2,,,74,0
54576,note_on,,,,,0,0,3,,,,,2,,,73,127
54620,note_off,,,,,44,0,4,,,,,3,,,69,0
54620,note_off,,,,,44,0,1,,,,,0,,,73,0
54620,note_off,,,,,44,0,2,,,,,1,,,69,0
54620,note_off,,,,,44,0,3,,,,,2,,,73,0
54624,note_on,,,,,4,0,3,,,,,2,,,74,127
54624,note_on,,,,,4,0,4,,,,,3,,,67,127
54624,note_on,,,,,4,0,2,,,,,1,,,67,92
54624,note_on,,,,,4,0,1,,,,,0,,,74,92
54716,note_off,,,,,188,0,7,,,,,6,,,33,0
54716,note_off,,,,,188,0,6,,,,,5,,,45,0
54716,note_off,,,,,92,0,3,,,,,2,,,74,0
54716,note_off,,,,,92,0,4,,,,,3,,,67,0
54716,note_off,,,,,188,0,5,,,,,4,,,69,0
54716,note_off,,,,,92,0,2,,,,,1,,,67,0
54716,note_off,,,,,92,0,1,,,,,0,,,74,0
54720,note_on,,,,,4,0,7,,,,,6,,,38,75
54720,note_on,,,,,4,0,4,,,,,3,,,66,127
54720,note_on,,,,,4,0,3,,,,,2,,,74,127
54720,note_on,,,,,4,0,2,,,,,1,,,66,92
54720,note_on,,,,,4,0,6,,,,,5,,,50,92
54720,note_on,,,,,4,0,1,,,,,0,,,74,92
54720,note_on,,,,,4,0,5,,,,,4,,,69,92
55232,note_off,,,,,512,0,3,,,,,2,,,74,0
55232,note_off,,,,,512,0,7,,,,,6,,,38,0
55232,note_off,,,,,512,0,2,,,,,1,,,66,0
55232,note_off,,,,,512,0,1,,,,,0,,,74,0
55232,note_off,,,,,512,0,5,,,,,4,,,69,0
55232,note_off,,,,,512,0,6,,,,,5,,,50,0
55232,note_off,,,,,512,0,4,,,,,3,,,66,0
55296,note_on,,,,,64,0,2,,,,,1,,,66,92
55296,set_tempo,,,,,1152,1,0,,571428,,,,,,,
55296,note_on,,,,,64,0,3,,,,,2,,,74,127
55296,note_on,,,,,64,0,5,,,,,4,,,69,92
55296,note_on,,,,,64,0,1,,,,,0,,,74,92
55296,note_on,,,,,64,0,6,,,,,5,,,50,92
55296,note_on,,,,,64,0,7,,,,,6,,,38,75
55296,note_on,,,,,64,0,4,,,,,3,,,66,127
55484,note_off,,,,,188,0,3,,,,,2,,,74,0
55484,note_off,,,,,188,0,6,,,,,5,,,50,0
55484,note_off,,,,,188,0,7,,,,,6,,,38,0
55484,note_off,,,,,188,0,1,,,,,0,,,74,0
55488,note_on,,,,,4,0,6,,,,,5,,,62,92
55488,note_on,,,,,4,0,1,,,,,0,,,62,92
55488,note_on,,,,,4,0,3,,,,,2,,,62,127
55488,note_on,,,,,4,0,7,,,,,6,,,50,75
55616,note_off,,,,,320,0,5,,,,,4,,,69,0
55616,note_off,,,,,320,0,2,,,,,1,,,66,0
55616,note_off,,,,,320,0,4,,,,,3,,,66,0
55676,note_off,,,,,188,0,7,,,,,6,,,50,0
55676,note_off,,,,,188,0,6,,,,,5,,,62,0
55676,note_off,,,,,188,0,1,,,,,0,,,62,0
55676,note_off,,,,,188,0,3,,,,,2,,,62,0
55680,note_on,,,,,4,0,7,,,,,6,,,49,75
55680,note_on,,,,,4,0,3,,,,,2,,,62,127
55680,note_on,,,,,4,0,1,,,,,0,,,62,92
55680,note_on,,,,,4,0,6,,,,,5,,,61,92
55868,note_off,,,,,188,0,3,,,,,2,,,62,0
55868,note_off,,,,,188,0,7,,,,,6,,,49,0
55868,note_off,,,,,188,0,1,,,,,0,,,62,0
55868,note_off,,,,,188,0,6,,,,,5,,,61,0
55872,note_on,,,,,4,0,6,,,,,5,,,59,92
55872,note_on,,,,,256,0,4,,,,,3,,,74,127
55872,note_on,,,,,256,0,5,,,,,4,,,62,92
55872,note_on,,,,,256,0,2,,,,,1,,,74,92
55872,note_on,,,,,4,0,7,,,,,6,,,47,75
55872,note_on,,,,,4,0,3,,,,,2,,,62,127
55872,note_on,,,,,4,0,1,,,,,0,,,71,92
56060,note_off,,,,,188,0,4,,,,,3,,,74,0
56060,note_off,,,,,188,0,7,,,,,6,,,47,0
56060,note_off,,,,,188,0,3,,,,,2,,,62,0
56060,note_off,,,,,188,0,1,,,,,0,,,71,0
56060,note_off,,,,,188,0,5,,,,,4,,,62,0
56060,note_off,,,,,188,0,2,,,,,1,,,74,0
56060,note_off,,,,,188,0,6,,,,,5,,,59,0
56064,note_on,,,,,4,0,7,,,,,6,,,45,75
56064,note_on,,,,,4,0,5,,,,,4,,,61,92
56064,note_on,,,,,4,0,4,,,,,3,,,62,127
56064,note_on,,,,,4,0,6,,,,,5,,,57,92
56064,note_on,,,,,4,0,1,,,,,0,,,69,92
56064,note_on,,,,,4,0,2,,,,,1,,,62,92
56252,note_off,,,,,188,0,2,,,,,1,,,62,0
56252,note_off,,,,,188,0,4,,,,,3,,,62,0
56252,note_off,,,,,188,0,5,,,,,4,,,61,0
56252,note_off,,,,,188,0,1,,,,,0,,,69,0
56252,note_off,,,,,188,0,7,,,,,6,,,45,0
56252,note_off,,,,,188,0,6,,,,,5,,,57,0
56256,note_on,,,,,4,0,5,,,,,4,,,59,92
56256,note_on,,,,,4,0,6,,,,,5,,,55,92
56256,note_on,,,,,4,0,2,,,,,1,,,62,92
56256,note_on,,,,,4,0,7,,,,,6,,,43,75
56256,note_on,,,,,4,0,4,,,,,3,,,62,127
56444,note_off,,,,,188,0,6,,,,,5,,,55,0
56444,note_off,,,,,188,0,5,,,,,4,,,59,0
56444,note_off,,,,,188,0,4,,,,,3,,,62,0
56444,note_off,,,,,188,0,2,,,,,1,,,62,0
56444,note_off,,,,,188,0,7,,,,,6,,,43,0
56448,note_on,,,,,196,0,1,,,,,0,,,74,92
56448,note_on,,,,,1924,0,8,,,,,7,,,42,60
56448,note_on,,,,,0,0,8,,,,,7,,,45,60
56448,note_on,,,,,4,0,5,,,,,4,,,57,92
56448,note_on,,,,,4,0,4,,,,,3,,,62,127
56448,note_on,,,,,4,0,2,,,,,1,,,62,92
56448,note_on,,,,,388,0,3,,,,,2,,,74,127
56448,note_on,,,,,4,0,7,,,,,6,,,42,75
56448,note_on,,,,,4,0,6,,,,,5,,,54,92
56540,note_off,,,,,0,0,8,,,,,7,,,45,0
56540,note_off,,,,,92,0,8,,,,,7,,,42,0
56544,note_on,,,,,4,0,8,,,,,7,,,50,60
56636,note_off,,,,,188,0,6,,,,,5,,,54,0
56636,note_off,,,,,188,0,3,,,,,2,,,74,0
56636,note_off,,,,,188,0,1,,,,,0,,,74,0
56636,note_off,,,,,188,0,7,,,,,6,,,42,0
56636,note_off,,,,,92,0,8,,,,,7,,,50,0
56640,note_on,,,,,4,0,6,,,,,5,,,52,92
56640,note_on,,,,,4,0,3,,,,,2,,,62,127
56640,note_on,,,,,4,0,7,,,,,6,,,40,75
56640,note_on,,,,,4,0,1,,,,,0,,,62,92
56768,note_off,,,,,320,0,4,,,,,3,,,62,0
56768,note_off,,,,,320,0,5,,,,,4,,,57,0
56768,note_off,,,,,320,0,2,,,,,1,,,62,0
56828,note_off,,,,,188,0,7,,,,,6,,,40,0
56828,note_off,,,,,188,0,1,,,,,0,,,62,0
56828,note_off,,,,,188,0,3,,,,,2,,,62,0
56828,note_off,,,,,188,0,6,,,,,5,,,52,0
56832,note_on,,,,,4,0,6,,,,,5,,,50,92
56832,note_on,,,,,4,0,3,,,,,2,,,62,127
56832,note_on,,,,,4,0,7,,,,,6,,,38,75
56832,note_on,,,,,4,0,1,,,,,0,,,62,92
57020,note_off,,,,,188,0,7,,,,,6,,,38,0
57020,note_off,,,,,188,0,3,,,,,2,,,62,0
57020,note_off,,,,,188,0,6,,,,,5,,,50,0
57020,note_off,,,,,188,0,1,,,,,0,,,62,0
57024,note_on,,,,,4,0,1,,,,,0,,,71,92
57024,note_on,,,,,256,0,4,,,,,3,,,62,127
57024,note_on,,,,,256,0,5,,,,,4,,,59,92
57024,note_on,,,,,4,0,3,,,,,2,,,71,127
57024,note_on,,,,,4,0,7,,,,,6,,,43,75
57024,note_on,,,,,256,0,2,,,,,1,,,62,92
57024,note_on,,,,,4,0,6,,,,,5,,,55,92
57212,note_off,,,,,188,0,4,,,,,3,,,62,0
57212,note_off,,,,,188,0,5,,,,,4,,,59,0
57212,note_off,,,,,188,0,2,,,,,1,,,62,0
57212,note_off,,,,,188,0,1,,,,,0,,,71,0
57212,note_off,,,,,188,0,3,,,,,2,,,71,0
57212,note_off,,,,,188,0,7,,,,,6,,,43,0
57212,note_off,,,,,188,0,6,,,,,5,,,55,0
57216,note_on,,,,,580,0,8,,,,,7,,,49,60
57216,note_on,,,,,4,0,6,,,,,5,,,49,92
57216,note_on,,,,,4,0,1,,,,,0,,,69,92
57216,note_on,,,,,0,0,8,,,,,7,,,52,60
57216,note_on,,,,,4,0,4,,,,,3,,,64,127
57216,note_on,,,,,4,0,7,,,,,6,,,37,75
57216,note_on,,,,,4,0,3,,,,,2,,,69,127
57216,note_on,,,,,4,0,5,,,,,4,,,61,92
57216,note_on,,,,,4,0,2,,,,,1,,,64,92
57308,note_off,,,,,0,0,8,,,,,7,,,52,0
57308,note_off,,,,,92,0,8,,,,,7,,,49,0
57312,note_on,,,,,4,0,8,,,,,7,,,57,60
57404,note_off,,,,,188,0,2,,,,,1,,,64,0
57404,note_off,,,,,188,0,1,,,,,0,,,69,0
57404,note_off,,,,,188,0,4,,,,,3,,,64,0
57404,note_off,,,,,188,0,3,,,,,2,,,69,0
57404,note_off,,,,,188,0,6,,,,,5,,,49,0
57404,note_off,,,,,188,0,5,,,,,4,,,61,0
57404,note_off,,,,,92,0,8,,,,,7,,,57,0
57404,note_off,,,,,188,0,7,,,,,6,,,37,0
57600,note_on,,,,,196,0,4,,,,,3,,,66,127
57600,note_on,,,,,196,0,7,,,,,6,,,38,75
57600,note_on,,,,,196,0,6,,,,,5,,,50,92
57600,note_on,,,,,196,0,2,,,,,1,,,66,92
57600,note_on,,,,,196,0,1,,,,,0,,,62,92
57600,note_on,,,,,196,0,3,,,,,2,,,62,127
57600,note_on,,,,,196,0,5,,,,,4,,,57,92
57692,note_off,,,,,92,0,1,,,,,0,,,62,0
57692,note_off,,,,,92,0,3,,,,,2,,,62,0
57696,note_on,,,,,4,0,1,,,,,0,,,64,92
57696,note_on,,,,,4,0,3,,,,,2,,,64,127
57788,note_off,,,,,92,0,1,,,,,0,,,64,0
57788,note_off,,,,,188,0,7,,,,,6,,,38,0
57788,note_off,,,,,188,0,6,,,,,5,,,50,0
57788,note_off,,,,,92,0,3,,,,,2,,,64,0
57792,note_on,,,,,4,0,6,,,,,5,,,49,92
57792,note_on,,,,,4,0,1,,,,,0,,,66,92
57792,note_on,,,,,4,0,7,,,,,6,,,37,75
57792,note_on,,,,,4,0,3,,,,,2,,,66,127
57884,note_off,,,,,284,0,2,,,,,1,,,66,0
57884,note_off,,,,,92,0,3,,,,,2,,,66,0
57884,note_off,,,,,284,0,4,,,,,3,,,66,0
57884,note_off,,,,,92,0,1,,,,,0,,,66,0
57888,note_on,,,,,4,0,3,,,,,2,,,67,127
57888,note_on,,,,,4,0,1,,,,,0,,,67,92
57888,note_on,,,,,4,0,2,,,,,1,,,64,92
57888,note_on,,,,,4,0,4,,,,,3,,,64,127
57920,note_off,,,,,320,0,5,,,,,4,,,57,0
57980,note_off,,,,,188,0,7,,,,,6,,,37,0
57980,note_off,,,,,92,0,3,,,,,2,,,67,0
57980,note_off,,,,,92,0,2,,,,,1,,,64,0
57980,note_off,,,,,92,0,4,,,,,3,,,64,0
57980,note_off,,,,,92,0,1,,,,,0,,,67,0
57980,note_off,,,,,188,0,6,,,,,5,,,49,0
57984,note_on,,,,,4,0,2,,,,,1,,,66,92
57984,note_on,,,,,4,0,3,,,,,2,,,69,127
57984,note_on,,,,,4,0,7,,,,,6,,,35,75
57984,note_on,,,,,4,0,4,,,,,3,,,66,127
57984,note_on,,,,,64,0,5,,,,,4,,,62,92
57984,note_on,,,,,4,0,6,,,,,5,,,47,92
57984,note_on,,,,,4,0,1,,,,,0,,,69,92
58076,note_off,,,,,92,0,2,,,,,1,,,66,0
58076,note_off,,,,,92,0,1,,,,,0,,,69,0
58076,note_off,,,,,92,0,4,,,,,3,,,66,0
58076,note_off,,,,,92,0,3,,,,,2,,,69,0
58080,note_on,,,,,4,0,2,,,,,1,,,68,92
58080,note_on,,,,,4,0,3,,,,,2,,,71,127
58080,note_on,,,,,4,0,4,,,,,3,,,68,127
58080,note_on,,,,,4,0,1,,,,,0,,,71,92
58172,note_off,,,,,92,0,4,,,,,3,,,68,0
58172,note_off,,,,,188,0,7,,,,,6,,,35,0
58172,note_off,,,,,188,0,5,,,,,4,,,62,0
58172,note_off,,,,,188,0,6,,,,,5,,,47,0
58172,note_off,,,,,92,0,2,,,,,1,,,68,0
58172,note_off,,,,,92,0,1,,,,,0,,,71,0
58172,note_off,,,,,92,0,3,,,,,2,,,71,0
58176,note_on,,,,,4,0,7,,,,,6,,,33,75
58176,note_on,,,,,4,0,5,,,,,4,,,64,92
58176,note_on,,,,,4,0,6,,,,,5,,,45,92
58176,note_on,,,,,772,0,8,,,,,7,,,45,60
58176,note_on,,,,,4,0,4,,,,,3,,,69,127
58176,note_on,,,,,4,0,2,,,,,1,,,69,92
58176,note_on,,,,,4,0,1,,,,,0,,,73,92
58176,note_on,,,,,4,0,3,,,,,2,,,73,127
58176,note_on,,,,,0,0,8,,,,,7,,,49,60
58268,note_off,,,,,92,0,8,,,,,7,,,45,0
58268,note_off,,,,,0,0,8,,,,,7,,,49,0
58268,note_off,,,,,92,0,2,,,,,1,,,69,0
58268,note_off,,,,,92,0,3,,,,,2,,,73,0
58268,note_off,,,,,92,0,1,,,,,0,,,73,0
58268,note_off,,,,,92,0,4,,,,,3,,,69,0
58272,note_on,,,,,4,0,1,,,,,0,,,74,92
58272,note_on,,,,,4,0,3,,,,,2,,,74,127
58272,note_on,,,,,4,0,4,,,,,3,,,71,127
58272,note_on,,,,,4,0,2,,,,,1,,,71,92
58272,note_on,,,,,4,0,8,,,,,7,,,52,60
58364,note_off,,,,,188,0,5,,,,,4,,,64,0
58364,note_off,,,,,92,0,4,,,,,3,,,71,0
58364,note_off,,,,,92,0,1,,,,,0,,,74,0
58364,note_off,,,,,188,0,6,,,,,5,,,45,0
58364,note_off,,,,,92,0,3,,,,,2,,,74,0
58364,note_off,,,,,92,0,8,,,,,7,,,52,0
58364,note_off,,,,,92,0,2,,,,,1,,,71,0
58364,note_off,,,,,188,0,7,,,,,6,,,33,0
58368,note_on,,,,,4,0,6,,,,,5,,,57,92
58368,note_on,,,,,4,0,3,,,,,2,,,76,127
58368,note_on,,,,,4,0,1,,,,,0,,,76,92
58368,note_on,,,,,4,0,4,,,,,3,,,73,127
58368,note_on,,,,,4,0,7,,,,,6,,,45,75
58368,note_on,,,,,4,0,2,,,,,1,,,73,92
58368,note_on,,,,,4,0,5,,,,,4,,,64,92
58460,note_off,,,,,92,0,1,,,,,0,,,76,0
58460,note_off,,,,,92,0,2,,,,,1,,,73,0
58460,note_off,,,,,92,0,4,,,,,3,,,73,0
58460,note_off,,,,,92,0,3,,,,,2,,,76,0
58464,note_on,,,,,4,0,4,,,,,3,,,74,127
58464,note_on,,,,,4,0,1,,,,,0,,,78,92
58464,note_on,,,,,4,0,2,,,,,1,,,74,92
58464,note_on,,,,,4,0,3,,,,,2,,,78,127
58556,note_off,,,,,92,0,3,,,,,2,,,78,0
58556,note_off,,,,,92,0,1,,,,,0,,,78,0
58556,note_off,,,,,188,0,7,,,,,6,,,45,0
58556,note_off,,,,,92,0,4,,,,,3,,,74,0
58556,note_off,,,,,188,0,6,,,,,5,,,57,0
58556,note_off,,,,,92,0,2,,,,,1,,,74,0
58556,note_off,,,,,188,0,5,,,,,4,,,64,0
58560,note_on,,,,,4,0,5,,,,,4,,,64,92
58560,note_on,,,,,4,0,7,,,,,6,,,45,75
58560,note_on,,,,,4,0,2,,,,,1,,,76,92
58560,note_on,,,,,4,0,1,,,,,0,,,79,92
58560,note_on,,,,,4,0,6,,,,,5,,,57,92
58560,note_on,,,,,4,0,3,,,,,2,,,79,127
58560,note_on,,,,,4,0,4,,,,,3,,,76,127
58652,note_off,,,,,92,0,3,,,,,2,,,79,0
58652,note_off,,,,,92,0,1,,,,,0,,,79,0
58652,note_off,,,,,92,0,4,,,,,3,,,76,0
58652,note_off,,,,,92,0,2,,,,,1,,,76,0
58656,note_on,,,,,4,0,3,,,,,2,,,81,127
58656,note_on,,,,,4,0,4,,,,,3,,,78,127
58656,note_on,,,,,4,0,1,,,,,0,,,81,92
58656,note_on,,,,,4,0,2,,,,,1,,,78,92
58748,note_off,,,,,92,0,2,,,,,1,,,78,0
58748,note_off,,,,,92,0,4,,,,,3,,,78,0
58748,note_off,,,,,92,0,3,,,,,2,,,81,0
58748,note_off,,,,,188,0,6,,,,,5,,,57,0
58748,note_off,,,,,92,0,1,,,,,0,,,81,0
58748,note_off,,,,,188,0,7,,,,,6,,,45,0
58748,note_off,,,,,188,0,5,,,,,4,,,64,0
58752,note_on,,,,,4,0,4,,,,,3,,,79,127
58752,note_on,,,,,4,0,1,,,,,0,,,83,92
58752,note_on,,,,,4,0,5,,,,,4,,,64,92
58752,note_on,,,,,4,0,7,,,,,6,,,37,75
58752,note_on,,,,,4,0,2,,,,,1,,,79,92
58752,note_on,,,,,4,0,6,,,,,5,,,49,92
58752,note_on,,,,,4,0,3,,,,,2,,,83,127
58752,note_on,,,,,388,0,8,,,,,7,,,49,60
58752,note_on,,,,,0,0,8,,,,,7,,,55,60
58844,note_off,,,,,92,0,8,,,,,7,,,49,0
58844,note_off,,,,,0,0,8,,,,,7,,,55,0
58848,note_on,,,,,4,0,8,,,,,7,,,57,60
58940,note_off,,,,,188,0,7,,,,,6,,,37,0
58940,note_off,,,,,188,0,6,,,,,5,,,49,0
58940,note_off,,,,,188,0,3,,,,,2,,,83,0
58940,note_off,,,,,188,0,5,,,,,4,,,64,0
58940,note_off,,,,,188,0,2,,,,,1,,,79,0
58940,note_off,,,,,188,0,4,,,,,3,,,79,0
58940,note_off,,,,,188,0,1,,,,,0,,,83,0
58940,note_off,,,,,92,0,8,,,,,7,,,57,0
58944,note_on,,,,,4,0,7,,,,,6,,,37,75
58944,note_on,,,,,4,0,2,,,,,1,,,76,92
58944,note_on,,,,,4,0,1,,,,,0,,,79,92
58944,note_on,,,,,4,0,6,,,,,5,,,49,92
58944,note_on,,,,,4,0,4,,,,,3,,,76,127
58944,note_on,,,,,4,0,5,,,,,4,,,69,92
58944,note_on,,,,,4,0,3,,,,,2,,,79,127
59132,note_off,,,,,188,0,7,,,,,6,,,37,0
59132,note_off,,,,,188,0,1,,,,,0,,,79,0
59132,note_off,,,,,188,0,6,,,,,5,,,49,0
59132,note_off,,,,,188,0,4,,,,,3,,,76,0
59132,note_off,,,,,188,0,5,,,,,4,,,69,0
59132,note_off,,,,,188,0,3,,,,,2,,,79,0
59132,note_off,,,,,188,0,2,,,,,1,,,76,0
59136,note_on,,,,,4,0,4,,,,,3,,,74,127
59136,note_on,,,,,4,0,3,,,,,2,,,78,127
59136,note_on,,,,,4,0,7,,,,,6,,,38,75
59136,note_on,,,,,4,0,6,,,,,5,,,50,92
59136,note_on,,,,,4,0,5,,,,,4,,,69,92
59136,note_on,,,,,4,0,2,,,,,1,,,74,92
59136,note_on,,,,,4,0,1,,,,,0,,,78,92
59324,note_off,,,,,188,0,7,,,,,6,,,38,0
59324,note_off,,,,,188,0,2,,,,,1,,,74,0
59324,note_off,,,,,188,0,1,,,,,0,,,78,0
59324,note_off,,,,,188,0,6,,,,,5,,,50,0
59324,note_off,,,,,188,0,3,,,,,2,,,78,0
59324,note_off,,,,,188,0,5,,,,,4,,,69,0
59324,note_off,,,,,188,0,4,,,,,3,,,74,0
59328,note_on,,,,,4,0,2,,,,,1,,,74,92
59328,note_on,,,,,4,0,3,,,,,2,,,78,127
59328,note_on,,,,,4,0,6,,,,,5,,,45,92
59328,note_on,,,,,4,0,7,,,,,6,,,33,75
59328,note_on,,,,,0,0,8,,,,,7,,,49,60
59328,note_on,,,,,388,0,8,,,,,7,,,45,60
59328,note_on,,,,,4,0,4,,,,,3,,,74,127
59328,note_on,,,,,4,0,5,,,,,4,,,69,92
59328,note_on,,,,,4,0,1,,,,,0,,,78,92
59376,note_off,,,,,48,0,4,,,,,3,,,74,0
59376,note_on,,,,,0,0,4,,,,,3,,,73,127
59376,note_off,,,,,48,0,3,,,,,2,,,78,0
59376,note_on,,,,,0,0,1,,,,,0,,,76,92
59376,note_on,,,,,0,0,3,,,,,2,,,76,127
59376,note_off,,,,,48,0,2,,,,,1,,,74,0
59376,note_on,,,,,0,0,2,,,,,1,,,73,92
59376,note_off,,,,,48,0,1,,,,,0,,,78,0
59420,note_off,,,,,0,0,8,,,,,7,,,49,0
59420,note_off,,,,,92,0,8,,,,,7,,,45,0
59424,note_on,,,,,0,0,1,,,,,0,,,78,92
59424,note_off,,,,,48,0,2,,,,,1,,,73,0
59424,note_on,,,,,0,0,3,,,,,2,,,78,127
59424,note_off,,,,,48,0,3,,,,,2,,,76,0
59424,note_off,,,,,48,0,4,,,,,3,,,73,0
59424,note_on,,,,,0,0,4,,,,,3,,,74,127
59424,note_off,,,,,48,0,1,,,,,0,,,76,0
59424,note_on,,,,,4,0,8,,,,,7,,,52,60
59424,note_on,,,,,0,0,2,,,,,1,,,74,92
59472,note_on,,,,,0,0,3,,,,,2,,,76,127
59472,note_off,,,,,48,0,3,,,,,2,,,78,0
59472,note_off,,,,,48,0,1,,,,,0,,,78,0
59472,note_on,,,,,0,0,1,,,,,0,,,76,92
59472,note_on,,,,,0,0,4,,,,,3,,,73,127
59472,note_off,,,,,48,0,4,,,,,3,,,74,0
59472,note_off,,,,,48,0,2,,,,,1,,,74,0
59472,note_on,,,,,0,0,2,,,,,1,,,73,92
59516,note_off,,,,,92,0,8,,,,,7,,,52,0
59520,note_on,,,,,0,0,2,,,,,1,,,74,92
59520,note_on,,,,,0,0,4,,,,,3,,,74,127
59520,note_off,,,,,48,0,4,,,,,3,,,73,0
59520,note_off,,,,,48,0,1,,,,,0,,,76,0
59520,note_on,,,,,0,0,1,,,,,0,,,78,92
59520,note_off,,,,,48,0,2,,,,,1,,,73,0
59520,note_on,,,,,0,0,3,,,,,2,,,78,127
59520,note_off,,,,,48,0,3,,,,,2,,,76,0
59568,note_on,,,,,0,0,3,,,,,2,,,76,127
59568,note_off,,,,,48,0,3,,,,,2,,,78,0
59568,note_off,,,,,48,0,4,,,,,3,,,74,0
59568,note_off,,,,,48,0,2,,,,,1,,,74,0
59568,note_on,,,,,0,0,1,,,,,0,,,76,92
59568,note_off,,,,,48,0,1,,,,,0,,,78,0
59568,note_on,,,,,0,0,4,,,,,3,,,73,127
59568,note_on,,,,,0,0,2,,,,,1,,,73,92
59648,note_off,,,,,320,0,5,,,,,4,,,69,0
59648,note_off,,,,,320,0,7,,,,,6,,,33,0
59648,note_off,,,,,320,0,6,,,,,5,,,45,0
59708,note_off,,,,,140,0,3,,,,,2,,,76,0
59708,note_off,,,,,140,0,1,,,,,0,,,76,0
59708,note_off,,,,,140,0,4,,,,,3,,,73,0
59708,note_off,,,,,140,0,2,,,,,1,,,73,0
59904,note_on,,,,,196,0,1,,,,,0,,,76,60
59904,note_on,,,,,196,0,2,,,,,1,,,73,60
60092,note_off,,,,,188,0,2,,,,,1,,,73,0
60092,note_off,,,,,188,0,1,,,,,0,,,76,0
60096,note_on,,,,,4,0,2,,,,,1,,,74,60
60096,note_on,,,,,4,0,1,,,,,0,,,78,60
60284,note_off,,,,,188,0,2,,,,,1,,,74,0
60284,note_off,,,,,188,0,1,,,,,0,,,78,0
60288,note_on,,,,,4,0,2,,,,,1,,,76,60
60288,note_on,,,,,4,0,1,,,,,0,,,79,60
60476,note_off,,,,,188,0,2,,,,,1,,,76,0
60476,note_off,,,,,188,0,1,,,,,0,,,79,0
60480,note_on,,,,,4,0,1,,,,,0,,,78,60
60480,note_on,,,,,4,0,2,,,,,1,,,74,60
60572,note_off,,,,,92,0,1,,,,,0,,,78,0
60572,note_off,,,,,92,0,2,,,,,1,,,74,0
60576,note_on,,,,,4,0,1,,,,,0,,,79,60
60576,note_on,,,,,4,0,2,,,,,1,,,76,60
60668,note_off,,,,,92,0,1,,,,,0,,,79,0
60668,note_off,,,,,92,0,2,,,,,1,,,76,0
60672,note_on,,,,,4,0,2,,,,,1,,,78,60
60672,note_on,,,,,4,0,1,,,,,0,,,81,60
60860,note_off,,,,,188,0,2,,,,,1,,,78,0
60860,note_off,,,,,188,0,1,,,,,0,,,81,0
61056,note_on,,,,,1348,0,4,,,,,3,,,66,127
61056,note_on,,,,,196,0,2,,,,,1,,,66,92
61056,note_on,,,,,1408,0,5,,,,,4,,,62,92
61056,note_on,,,,,1348,0,3,,,,,2,,,69,127
61056,note_on,,,,,1408,0,6,,,,,5,,,50,92
61056,note_on,,,,,1408,0,7,,,,,6,,,38,75
61056,note_on,,,,,196,0,1,,,,,0,,,69,92
61244,note_off,,,,,188,0,3,,,,,2,,,69,0
61244,note_off,,,,,188,0,6,,,,,5,,,50,0
61244,note_off,,,,,188,0,2,,,,,1,,,66,0
61244,note_off,,,,,188,0,1,,,,,0,,,69,0
61244,note_off,,,,,188,0,4,,,,,3,,,66,0
61244,note_off,,,,,188,0,7,,,,,6,,,38,0
61244,note_off,,,,,188,0,5,,,,,4,,,62,0
61248,note_on,,,,,4,0,4,,,,,3,,,67,127
61248,note_on,,,,,4,0,6,,,,,5,,,55,92
61248,note_on,,,,,4,0,1,,,,,0,,,71,92
61248,note_on,,,,,4,0,2,,,,,1,,,67,92
61248,note_on,,,,,4,0,5,,,,,4,,,62,92
61248,note_on,,,,,4,0,3,,,,,2,,,71,127
61248,note_on,,,,,4,0,7,,,,,6,,,43,75
61436,note_off,,,,,188,0,4,,,,,3,,,67,0
61436,note_off,,,,,188,0,2,,,,,1,,,67,0
61436,note_off,,,,,188,0,5,,,,,4,,,62,0
61436,note_off,,,,,188,0,6,,,,,5,,,55,0
61436,note_off,,,,,188,0,3,,,,,2,,,71,0
61436,note_off,,,,,188,0,7,,,,,6,,,43,0
61436,note_off,,,,,188,0,1,,,,,0,,,71,0
61440,note_on,,,,,1924,0,8,,,,,7,,,42,60
61440,note_on,,,,,0,0,8,,,,,7,,,48,60
61440,note_on,,,,,4,0,7,,,,,6,,,42,75
61440,note_on,,,,,4,0,5,,,,,4,,,62,92
61440,note_on,,,,,4,0,1,,,,,0,,,72,92
61440,note_on,,,,,4,0,4,,,,,3,,,69,127
61440,note_on,,,,,4,0,3,,,,,2,,,72,127
61440,note_on,,,,,4,0,6,,,,,5,,,54,92
61440,note_on,,,,,4,0,2,,,,,1,,,69,92
61532,note_off,,,,,92,0,8,,,,,7,,,42,0
61532,note_off,,,,,0,0,8,,,,,7,,,48,0
61536,note_on,,,,,4,0,8,,,,,7,,,50,60
61628,note_off,,,,,188,0,1,,,,,0,,,72,0
61628,note_off,,,,,188,0,5,,,,,4,,,62,0
61628,note_off,,,,,188,0,2,,,,,1,,,69,0
61628,note_off,,,,,92,0,8,,,,,7,,,50,0
61628,note_off,,,,,188,0,7,,,,,6,,,42,0
61628,note_off,,,,,188,0,4,,,,,3,,,69,0
61628,note_off,,,,,188,0,3,,,,,2,,,72,0
61628,note_off,,,,,188,0,6,,,,,5,,,54,0
61632,note_on,,,,,4,0,3,,,,,2,,,71,127
61632,note_on,,,,,4,0,5,,,,,4,,,62,92
61632,note_on,,,,,4,0,2,,,,,1,,,67,92
61632,note_on,,,,,4,0,4,,,,,3,,,67,127
61632,note_on,,,,,4,0,6,,,,,5,,,55,92
61632,note_on,,,,,4,0,1,,,,,0,,,71,92
61632,note_on,,,,,4,0,7,,,,,6,,,43,75
61820,note_off,,,,,188,0,4,,,,,3,,,67,0
61820,note_off,,,,,188,0,3,,,,,2,,,71,0
61820,note_off,,,,,188,0,1,,,,,0,,,71,0
61820,note_off,,,,,188,0,5,,,,,4,,,62,0
61820,note_off,,,,,188,0,7,,,,,6,,,43,0
61820,note_off,,,,,188,0,2,,,,,1,,,67,0
61820,note_off,,,,,188,0,6,,,,,5,,,55,0
61824,note_on,,,,,4,0,1,,,,,0,,,69,92
61824,note_on,,,,,4,0,5,,,,,4,,,62,92
61824,note_on,,,,,4,0,3,,,,,2,,,69,127
61824,note_on,,,,,4,0,6,,,,,5,,,50,92
61824,note_on,,,,,4,0,7,,,,,6,,,38,75
61824,note_on,,,,,4,0,4,,,,,3,,,66,127
61824,note_on,,,,,4,0,2,,,,,1,,,66,92
62012,note_off,,,,,188,0,7,,,,,6,,,38,0
62012,note_off,,,,,188,0,3,,,,,2,,,69,0
62012,note_off,,,,,188,0,6,,,,,5,,,50,0
62012,note_off,,,,,188,0,5,,,,,4,,,62,0
62012,note_off,,,,,188,0,1,,,,,0,,,69,0
62012,note_off,,,,,188,0,4,,,,,3,,,66,0
62012,note_off,,,,,188,0,2,,,,,1,,,66,0
62208,note_on,,,,,196,0,1,,,,,0,,,81,60
62208,note_on,,,,,196,0,2,,,,,1,,,78,60
62396,note_off,,,,,188,0,2,,,,,1,,,78,0
62396,note_off,,,,,188,0,1,,,,,0,,,81,0
62400,note_on,,,,,4,0,1,,,,,0,,,83,60
62400,note_on,,,,,4,0,2,,,,,1,,,79,60
62588,note_off,,,,,188,0,1,,,,,0,,,83,0
62588,note_off,,,,,188,0,2,,,,,1,,,79,0
62592,note_on,,,,,4,0,1,,,,,0,,,84,60
62592,note_on,,,,,4,0,2,,,,,1,,,81,60
62780,note_off,,,,,188,0,1,,,,,0,,,84,0
62780,note_off,,,,,188,0,2,,,,,1,,,81,0
62784,note_on,,,,,4,0,2,,,,,1,,,79,60
62784,note_on,,,,,4,0,1,,,,,0,,,83,60
62876,note_off,,,,,92,0,1,,,,,0,,,83,0
62876,note_off,,,,,92,0,2,,,,,1,,,79,0
62880,note_on,,,,,4,0,2,,,,,1,,,81,60
62880,note_on,,,,,4,0,1,,,,,0,,,84,60
62972,note_off,,,,,92,0,2,,,,,1,,,81,0
62972,note_off,,,,,92,0,1,,,,,0,,,84,0
62976,note_on,,,,,4,0,2,,,,,1,,,83,60
62976,note_on,,,,,4,0,1,,,,,0,,,86,60
63164,note_off,,,,,188,0,2,,,,,1,,,83,0
63164,note_off,,,,,188,0,1,,,,,0,,,86,0
63360,note_on,,,,,1348,0,4,,,,,3,,,71,127
63360,note_on,,,,,196,0,1,,,,,0,,,74,92
63360,note_on,,,,,1348,0,3,,,,,2,,,74,127
63360,note_on,,,,,1348,0,5,,,,,4,,,67,92
63360,note_on,,,,,1348,0,6,,,,,5,,,55,92
63360,note_on,,,,,196,0,2,,,,,1,,,71,92
63360,note_on,,,,,1348,0,7,,,,,6,,,43,75
63548,note_off,,,,,188,0,5,,,,,4,,,67,0
63548,note_off,,,,,188,0,2,,,,,1,,,71,0
63548,note_off,,,,,188,0,7,,,,,6,,,43,0
63548,note_off,,,,,188,0,3,,,,,2,,,74,0
63548,note_off,,,,,188,0,6,,,,,5,,,55,0
63548,note_off,,,,,188,0,1,,,,,0,,,74,0
63548,note_off,,,,,188,0,4,,,,,3,,,71,0
63552,note_on,,,,,4,0,4,,,,,3,,,72,127
63552,note_on,,,,,4,0,7,,,,,6,,,48,75
63552,note_on,,,,,4,0,2,,,,,1,,,72,92
63552,note_on,,,,,4,0,3,,,,,2,,,76,127
63552,note_on,,,,,4,0,5,,,,,4,,,67,92
63552,note_on,,,,,4,0,6,,,,,5,,,60,92
63552,note_on,,,,,4,0,1,,,,,0,,,76,92
63740,note_off,,,,,188,0,2,,,,,1,,,72,0
63740,note_off,,,,,188,0,3,,,,,2,,,76,0
63740,note_off,,,,,188,0,6,,,,,5,,,60,0
63740,note_off,,,,,188,0,4,,,,,3,,,72,0
63740,note_off,,,,,188,0,7,,,,,6,,,48,0
63740,note_off,,,,,188,0,1,,,,,0,,,76,0
63740,note_off,,,,,188,0,5,,,,,4,,,67,0
63744,note_on,,,,,4,0,2,,,,,1,,,74,92
63744,note_on,,,,,2116,0,8,,,,,7,,,47,60
63744,note_on,,,,,0,0,8,,,,,7,,,53,60
63744,note_on,,,,,4,0,7,,,,,6,,,47,75
63744,note_on,,,,,4,0,4,,,,,3,,,74,127
63744,note_on,,,,,4,0,3,,,,,2,,,77,127
63744,note_on,,,,,4,0,6,,,,,5,,,59,92
63744,note_on,,,,,4,0,1,,,,,0,,,77,92
63744,note_on,,,,,4,0,5,,,,,4,,,67,92
63836,note_off,,,,,92,0,8,,,,,7,,,47,0
63836,note_off,,,,,0,0,8,,,,,7,,,53,0
63840,note_on,,,,,4,0,8,,,,,7,,,55,60
63932,note_off,,,,,188,0,3,,,,,2,,,77,0
63932,note_off,,,,,188,0,1,,,,,0,,,77,0
63932,note_off,,,,,188,0,2,,,,,1,,,74,0
63932,note_off,,,,,188,0,5,,,,,4,,,67,0
63932,note_off,,,,,188,0,6,,,,,5,,,59,0
63932,note_off,,,,,188,0,4,,,,,3,,,74,0
63932,note_off,,,,,188,0,7,,,,,6,,,47,0
63932,note_off,,,,,92,0,8,,,,,7,,,55,0
63936,note_on,,,,,4,0,4,,,,,3,,,72,127
63936,note_on,,,,,4,0,5,,,,,4,,,67,92
63936,note_on,,,,,4,0,3,,,,,2,,,76,127
63936,note_on,,,,,4,0,6,,,,,5,,,60,92
63936,note_on,,,,,4,0,2,,,,,1,,,72,92
63936,note_on,,,,,4,0,1,,,,,0,,,76,92
63936,note_on,,,,,4,0,7,,,,,6,,,48,75
64124,note_off,,,,,188,0,7,,,,,6,,,48,0
64124,note_off,,,,,188,0,4,,,,,3,,,72,0
64124,note_off,,,,,188,0,1,,,,,0,,,76,0
64124,note_off,,,,,188,0,2,,,,,1,,,72,0
64124,note_off,,,,,188,0,6,,,,,5,,,60,0
64124,note_off,,,,,188,0,3,,,,,2,,,76,0
64124,note_off,,,,,188,0,5,,,,,4,,,67,0
64128,note_on,,,,,4,0,6,,,,,5,,,55,92
64128,note_on,,,,,4,0,7,,,,,6,,,43,75
64128,note_on,,,,,4,0,2,,,,,1,,,71,92
64128,note_on,,,,,4,0,4,,,,,3,,,71,127
64128,note_on,,,,,4,0,1,,,,,0,,,74,92
64128,note_on,,,,,4,0,3,,,,,2,,,74,127
64128,note_on,,,,,4,0,5,,,,,4,,,67,92
64316,note_off,,,,,188,0,4,,,,,3,,,71,0
64316,note_off,,,,,188,0,1,,,,,0,,,74,0
64316,note_off,,,,,188,0,6,,,,,5,,,55,0
64316,note_off,,,,,188,0,3,,,,,2,,,74,0
64316,note_off,,,,,188,0,7,,,,,6,,,43,0
64316,note_off,,,,,188,0,2,,,,,1,,,71,0
64316,note_off,,,,,188,0,5,,,,,4,,,67,0
64512,note_on,,,,,0,0,8,,,,,7,,,50,60
64512,note_on,,,,,196,0,7,,,,,6,,,35,75
64512,note_on,,,,,580,0,8,,,,,7,,,47,60
64512,note_on,,,,,196,0,5,,,,,4,,,62,92
64512,note_on,,,,,196,0,4,,,,,3,,,67,127
64512,note_on,,,,,196,0,2,,,,,1,,,67,92
64512,note_on,,,,,196,0,6,,,,,5,,,47,92
64604,note_off,,,,,0,0,8,,,,,7,,,50,0
64604,note_off,,,,,92,0,8,,,,,7,,,47,0
64608,note_on,,,,,292,0,3,,,,,2,,,74,127
64608,note_on,,,,,4,0,8,,,,,7,,,55,60
64608,note_on,,,,,292,0,1,,,,,0,,,74,92
64700,note_off,,,,,92,0,3,,,,,2,,,74,0
64700,note_off,,,,,92,0,1,,,,,0,,,74,0
64700,note_off,,,,,188,0,6,,,,,5,,,47,0
64700,note_off,,,,,92,0,8,,,,,7,,,55,0
64700,note_off,,,,,188,0,4,,,,,3,,,67,0
64700,note_off,,,,,188,0,5,,,,,4,,,62,0
64700,note_off,,,,,188,0,7,,,,,6,,,35,0
64700,note_off,,,,,188,0,2,,,,,1,,,67,0
64704,note_on,,,,,4,0,6,,,,,5,,,47,92
64704,note_on,,,,,4,0,7,,,,,6,,,35,75
64704,note_on,,,,,4,0,4,,,,,3,,,67,127
64704,note_on,,,,,4,0,5,,,,,4,,,62,92
64704,note_on,,,,,4,0,1,,,,,0,,,79,92
64704,note_on,,,,,4,0,3,,,,,2,,,79,127
64704,note_on,,,,,4,0,2,,,,,1,,,67,92
64796,note_off,,,,,92,0,1,,,,,0,,,79,0
64796,note_off,,,,,92,0,3,,,,,2,,,79,0
64800,note_on,,,,,4,0,1,,,,,0,,,77,92
64800,note_on,,,,,4,0,3,,,,,2,,,77,127
64892,note_off,,,,,188,0,2,,,,,1,,,67,0
64892,note_off,,,,,92,0,1,,,,,0,,,77,0
64892,note_off,,,,,188,0,7,,,,,6,,,35,0
64892,note_off,,,,,92,0,3,,,,,2,,,77,0
64892,note_off,,,,,188,0,4,,,,,3,,,67,0
64892,note_off,,,,,188,0,6,,,,,5,,,47,0
64892,note_off,,,,,188,0,5,,,,,4,,,62,0
64896,note_on,,,,,4,0,6,,,,,5,,,47,92
64896,note_on,,,,,4,0,2,,,,,1,,,67,92
64896,note_on,,,,,4,0,4,,,,,3,,,67,127
64896,note_on,,,,,4,0,7,,,,,6,,,35,75
64896,note_on,,,,,4,0,3,,,,,2,,,76,127
64896,note_on,,,,,4,0,5,,,,,4,,,62,92
64896,note_on,,,,,4,0,1,,,,,0,,,76,92
64988,note_off,,,,,92,0,1,,,,,0,,,76,0
64988,note_off,,,,,92,0,3,,,,,2,,,76,0
64992,note_on,,,,,4,0,1,,,,,0,,,74,92
64992,note_on,,,,,4,0,3,,,,,2,,,74,127
65084,note_off,,,,,188,0,2,,,,,1,,,67,0
65084,note_off,,,,,188,0,6,,,,,5,,,47,0
65084,note_off,,,,,188,0,4,,,,,3,,,67,0
65084,note_off,,,,,188,0,5,,,,,4,,,62,0
65084,note_off,,,,,92,0,1,,,,,0,,,74,0
65084,note_off,,,,,188,0,7,,,,,6,,,35,0
65084,note_off,,,,,92,0,3,,,,,2,,,74,0
65088,note_on,,,,,4,0,6,,,,,5,,,48,92
65088,note_on,,,,,4,0,5,,,,,4,,,67,92
65088,note_on,,,,,4,0,3,,,,,2,,,76,127
65088,note_on,,,,,4,0,1,,,,,0,,,76,92
65088,note_on,,,,,4,0,7,,,,,6,,,36,75
65184,note_on,,,,,100,0,4,,,,,3,,,67,127
65184,note_on,,,,,100,0,2,,,,,1,,,67,92
65276,note_off,,,,,92,0,2,,,,,1,,,67,0
65276,note_off,,,,,188,0,6,,,,,5,,,48,0
65276,note_off,,,,,188,0,7,,,,,6,,,36,0
65276,note_off,,,,,188,0,3,,,,,2,,,76,0
65276,note_off,,,,,92,0,4,,,,,3,,,67,0
65276,note_off,,,,,188,0,1,,,,,0,,,76,0
65276,note_off,,,,,188,0,5,,,,,4,,,67,0
65280,note_on,,,,,4,0,3,,,,,2,,,76,127
65280,note_on,,,,,4,0,4,,,,,3,,,72,127
65280,note_on,,,,,4,0,1,,,,,0,,,76,92
65280,note_on,,,,,4,0,5,,,,,4,,,67,92
65280,note_on,,,,,4,0,7,,,,,6,,,36,75
65280,note_on,,,,,4,0,6,,,,,5,,,48,92
65280,note_on,,,,,4,0,2,,,,,1,,,72,92
65372,note_off,,,,,92,0,2,,,,,1,,,72,0
65372,note_off,,,,,92,0,4,,,,,3,,,72,0
65376,note_on,,,,,4,0,2,,,,,1,,,71,92
65376,note_on,,,,,4,0,4,,,,,3,,,71,127
65468,note_off,,,,,188,0,6,,,,,5,,,48,0
65468,note_off,,,,,92,0,4,,,,,3,,,71,0
65468,note_off,,,,,188,0,5,,,,,4,,,67,0
65468,note_off,,,,,188,0,3,,,,,2,,,76,0
65468,note_off,,,,,92,0,2,,,,,1,,,71,0
65468,note_off,,,,,188,0,7,,,,,6,,,36,0
65468,note_off,,,,,188,0,1,,,,,0,,,76,0
65472,note_on,,,,,4,0,6,,,,,5,,,48,92
65472,note_on,,,,,4,0,7,,,,,6,,,36,75
65472,note_on,,,,,4,0,1,,,,,0,,,76,92
65472,note_on,,,,,4,0,4,,,,,3,,,69,127
65472,note_on,,,,,4,0,2,,,,,1,,,69,92
65472,note_on,,,,,4,0,5,,,,,4,,,67,92
65472,note_on,,,,,4,0,3,,,,,2,,,76,127
65564,note_off,,,,,92,0,4,,,,,3,,,69,0
65564,note_off,,,,,92,0,2,,,,,1,,,69,0
65568,note_on,,,,,4,0,2,,,,,1,,,67,92
65568,note_on,,,,,4,0,4,,,,,3,,,67,127
65660,note_off,,,,,188,0,3,,,,,2,,,76,0
65660,note_off,,,,,92,0,4,,,,,3,,,67,0
65660,note_off,,,,,188,0,1,,,,,0,,,76,0
65660,note_off,,,,,188,0,6,,,,,5,,,48,0
65660,note_off,,,,,188,0,5,,,,,4,,,67,0
65660,note_off,,,,,188,0,7,,,,,6,,,36,0
65660,note_off,,,,,92,0,2,,,,,1,,,67,0
65664,note_on,,,,,4,0,4,,,,,3,,,66,127
65664,note_on,,,,,4,0,7,,,,,6,,,38,75
65664,note_on,,,,,4,0,5,,,,,4,,,62,92
65664,note_on,,,,,4,0,2,,,,,1,,,66,92
65664,note_on,,,,,4,0,3,,,,,2,,,69,127
65664,note_on,,,,,4,0,6,,,,,5,,,50,92
65664,note_on,,,,,4,0,1,,,,,0,,,69,92
65756,note_off,,,,,92,0,1,,,,,0,,,69,0
65756,note_off,,,,,92,0,3,,,,,2,,,69,0
65760,note_on,,,,,4,0,1,,,,,0,,,81,92
65760,note_on,,,,,4,0,3,,,,,2,,,81,127
65852,note_off,,,,,188,0,7,,,,,6,,,38,0
65852,note_off,,,,,92,0,1,,,,,0,,,81,0
65852,note_off,,,,,188,0,4,,,,,3,,,66,0
65852,note_off,,,,,92,0,3,,,,,2,,,81,0
65852,note_off,,,,,188,0,6,,,,,5,,,50,0
65852,note_off,,,,,188,0,5,,,,,4,,,62,0
65852,note_off,,,,,188,0,2,,,,,1,,,66,0
65856,note_on,,,,,4,0,6,,,,,5,,,50,92
65856,note_on,,,,,4,0,3,,,,,2,,,86,127
65856,note_on,,,,,4,0,4,,,,,3,,,66,127
65856,note_on,,,,,4,0,7,,,,,6,,,38,75
65856,note_on,,,,,4,0,5,,,,,4,,,62,92
65856,note_on,,,,,4,0,1,,,,,0,,,86,92
65856,note_on,,,,,4,0,2,,,,,1,,,66,92
65948,note_off,,,,,92,0,1,,,,,0,,,86,0
65948,note_off,,,,,92,0,3,,,,,2,,,86,0
65952,note_on,,,,,4,0,1,,,,,0,,,84,92
65952,note_on,,,,,4,0,3,,,,,2,,,84,127
66044,note_off,,,,,188,0,2,,,,,1,,,66,0
66044,note_off,,,,,188,0,5,,,,,4,,,62,0
66044,note_off,,,,,92,0,1,,,,,0,,,84,0
66044,note_off,,,,,188,0,6,,,,,5,,,50,0
66044,note_off,,,,,188,0,7,,,,,6,,,38,0
66044,note_off,,,,,188,0,4,,,,,3,,,66,0
66044,note_off,,,,,92,0,3,,,,,2,,,84,0
66048,note_on,,,,,4,0,1,,,,,0,,,83,92
66048,note_on,,,,,4,0,2,,,,,1,,,66,92
66048,note_on,,,,,4,0,7,,,,,6,,,38,75
66048,note_on,,,,,4,0,6,,,,,5,,,50,92
66048,note_on,,,,,4,0,5,,,,,4,,,62,92
66048,note_on,,,,,4,0,4,,,,,3,,,66,127
66048,note_on,,,,,4,0,3,,,,,2,,,83,127
66140,note_off,,,,,92,0,1,,,,,0,,,83,0
66140,note_off,,,,,92,0,3,,,,,2,,,83,0
66144,note_on,,,,,4,0,1,,,,,0,,,81,92
66144,note_on,,,,,4,0,3,,,,,2,,,81,127
66236,note_off,,,,,188,0,5,,,,,4,,,62,0
66236,note_off,,,,,92,0,1,,,,,0,,,81,0
66236,note_off,,,,,188,0,6,,,,,5,,,50,0
66236,note_off,,,,,188,0,4,,,,,3,,,66,0
66236,note_off,,,,,92,0,3,,,,,2,,,81,0
66236,note_off,,,,,188,0,7,,,,,6,,,38,0
66236,note_off,,,,,188,0,2,,,,,1,,,66,0
66240,note_on,,,,,4,0,3,,,,,2,,,83,127
66240,note_on,,,,,4,0,7,,,,,6,,,43,75
66240,note_on,,,,,4,0,1,,,,,0,,,83,92
66240,note_on,,,,,4,0,5,,,,,4,,,62,92
66240,note_on,,,,,4,0,6,,,,,5,,,55,92
66336,note_on,,,,,100,0,4,,,,,3,,,74,127
66336,note_on,,,,,100,0,2,,,,,1,,,74,92
66428,note_off,,,,,188,0,1,,,,,0,,,83,0
66428,note_off,,,,,188,0,6,,,,,5,,,55,0
66428,note_off,,,,,188,0,3,,,,,2,,,83,0
66428,note_off,,,,,92,0,4,,,,,3,,,74,0
66428,note_off,,,,,188,0,5,,,,,4,,,62,0
66428,note_off,,,,,188,0,7,,,,,6,,,43,0
66428,note_off,,,,,92,0,2,,,,,1,,,74,0
66432,note_on,,,,,4,0,2,,,,,1,,,79,92
66432,note_on,,,,,4,0,4,,,,,3,,,79,127
66432,note_on,,,,,4,0,1,,,,,0,,,83,92
66432,note_on,,,,,4,0,5,,,,,4,,,62,92
66432,note_on,,,,,4,0,3,,,,,2,,,83,127
66432,note_on,,,,,4,0,6,,,,,5,,,55,92
66432,note_on,,,,,4,0,7,,,,,6,,,43,75
66524,note_off,,,,,92,0,2,,,,,1,,,79,0
66524,note_off,,,,,92,0,4,,,,,3,,,79,0
66528,note_on,,,,,4,0,2,,,,,1,,,77,92
66528,note_on,,,,,4,0,4,,,,,3,,,77,127
66620,note_off,,,,,188,0,5,,,,,4,,,62,0
66620,note_off,,,,,188,0,1,,,,,0,,,83,0
66620,note_off,,,,,188,0,6,,,,,5,,,55,0
66620,note_off,,,,,92,0,2,,,,,1,,,77,0
66620,note_off,,,,,188,0,7,,,,,6,,,43,0
66620,note_off,,,,,188,0,3,,,,,2,,,83,0
66620,note_off,,,,,92,0,4,,,,,3,,,77,0
66624,note_on,,,,,4,0,7,,,,,6,,,43,75
66624,note_on,,,,,4,0,5,,,,,4,,,62,92
66624,note_on,,,,,4,0,3,,,,,2,,,83,127
66624,note_on,,,,,4,0,4,,,,,3,,,76,127
66624,note_on,,,,,4,0,2,,,,,1,,,76,92
66624,note_on,,,,,4,0,1,,,,,0,,,83,92
66624,note_on,,,,,4,0,6,,,,,5,,,55,92
66716,note_off,,,,,92,0,4,,,,,3,,,76,0
66716,note_off,,,,,92,0,2,,,,,1,,,76,0
66720,note_on,,,,,4,0,4,,,,,3,,,74,127
66720,note_on,,,,,4,0,2,,,,,1,,,74,92
66812,note_off,,,,,92,0,4,,,,,3,,,74,0
66812,note_off,,,,,188,0,3,,,,,2,,,83,0
66812,note_off,,,,,92,0,2,,,,,1,,,74,0
66812,note_off,,,,,188,0,7,,,,,6,,,43,0
66812,note_off,,,,,188,0,6,,,,,5,,,55,0
66812,note_off,,,,,188,0,5,,,,,4,,,62,0
66812,note_off,,,,,188,0,1,,,,,0,,,83,0
66816,note_on,,,,,4,0,2,,,,,1,,,76,92
66816,note_on,,,,,4,0,3,,,,,2,,,83,127
66816,note_on,,,,,4,0,5,,,,,4,,,71,92
66816,note_on,,,,,4,0,1,,,,,0,,,83,92
66816,note_on,,,,,4,0,6,,,,,5,,,56,92
66816,note_on,,,,,4,0,7,,,,,6,,,44,75
66816,note_on,,,,,2116,0,8,,,,,7,,,44,60
66816,note_on,,,,,4,0,4,,,,,3,,,76,127
66816,note_on,,,,,0,0,8,,,,,7,,,50,60
66908,note_off,,,,,92,0,1,,,,,0,,,83,0
66908,note_off,,,,,0,0,8,,,,,7,,,50,0
66908,note_off,,,,,92,0,8,,,,,7,,,44,0
66908,note_off,,,,,92,0,3,,,,,2,,,83,0
66912,note_on,,,,,4,0,1,,,,,0,,,71,92
66912,note_on,,,,,4,0,8,,,,,7,,,52,60
66912,note_on,,,,,4,0,3,,,,,2,,,71,127
67004,note_off,,,,,188,0,5,,,,,4,,,71,0
67004,note_off,,,,,92,0,3,,,,,2,,,71,0
67004,note_off,,,,,188,0,4,,,,,3,,,76,0
67004,note_off,,,,,188,0,2,,,,,1,,,76,0
67004,note_off,,,,,92,0,8,,,,,7,,,52,0
67004,note_off,,,,,188,0,6,,,,,5,,,56,0
67004,note_off,,,,,92,0,1,,,,,0,,,71,0
67004,note_off,,,,,188,0,7,,,,,6,,,44,0
67008,note_on,,,,,4,0,3,,,,,2,,,76,127
67008,note_on,,,,,4,0,7,,,,,6,,,44,75
67008,note_on,,,,,4,0,4,,,,,3,,,76,127
67008,note_on,,,,,4,0,6,,,,,5,,,56,92
67008,note_on,,,,,4,0,1,,,,,0,,,76,92
67008,note_on,,,,,4,0,5,,,,,4,,,71,92
67008,note_on,,,,,4,0,2,,,,,1,,,76,92
67100,note_off,,,,,92,0,1,,,,,0,,,76,0
67100,note_off,,,,,92,0,3,,,,,2,,,76,0
67104,note_on,,,,,4,0,3,,,,,2,,,74,127
67104,note_on,,,,,4,0,1,,,,,0,,,74,92
67196,note_off,,,,,92,0,3,,,,,2,,,74,0
67196,note_off,,,,,92,0,1,,,,,0,,,74,0
67196,note_off,,,,,188,0,5,,,,,4,,,71,0
67196,note_off,,,,,188,0,6,,,,,5,,,56,0
67196,note_off,,,,,188,0,7,,,,,6,,,44,0
67196,note_off,,,,,188,0,2,,,,,1,,,76,0
67196,note_off,,,,,188,0,4,,,,,3,,,76,0
67200,note_on,,,,,4,0,1,,,,,0,,,72,92
67200,note_on,,,,,4,0,7,,,,,6,,,44,75
67200,note_on,,,,,4,0,6,,,,,5,,,56,92
67200,note_on,,,,,4,0,3,,,,,2,,,72,127
67200,note_on,,,,,4,0,4,,,,,3,,,76,127
67200,note_on,,,,,4,0,2,,,,,1,,,76,92
67200,note_on,,,,,4,0,5,,,,,4,,,71,92
67292,note_off,,,,,92,0,1,,,,,0,,,72,0
67292,note_off,,,,,92,0,3,,,,,2,,,72,0
67296,note_on,,,,,4,0,3,,,,,2,,,71,127
67296,note_on,,,,,4,0,1,,,,,0,,,71,92
67388,note_off,,,,,188,0,4,,,,,3,,,76,0
67388,note_off,,,,,92,0,1,,,,,0,,,71,0
67388,note_off,,,,,188,0,5,,,,,4,,,71,0
67388,note_off,,,,,188,0,6,,,,,5,,,56,0
67388,note_off,,,,,92,0,3,,,,,2,,,71,0
67388,note_off,,,,,188,0,7,,,,,6,,,44,0
67388,note_off,,,,,188,0,2,,,,,1,,,76,0
67392,note_on,,,,,4,0,7,,,,,6,,,45,75
67392,note_on,,,,,4,0,4,,,,,3,,,76,127
67392,note_on,,,,,4,0,5,,,,,4,,,64,92
67392,note_on,,,,,4,0,1,,,,,0,,,72,92
67392,note_on,,,,,4,0,6,,,,,5,,,57,92
67392,note_on,,,,,4,0,3,,,,,2,,,72,127
67392,note_on,,,,,4,0,2,,,,,1,,,76,92
67484,note_off,,,,,92,0,2,,,,,1,,,76,0
67484,note_off,,,,,92,0,4,,,,,3,,,76,0
67488,note_on,,,,,4,0,2,,,,,1,,,64,92
67488,note_on,,,,,4,0,4,,,,,3,,,64,127
67580,note_off,,,,,188,0,6,,,,,5,,,57,0
67580,note_off,,,,,188,0,3,,,,,2,,,72,0
67580,note_off,,,,,188,0,1,,,,,0,,,72,0
67580,note_off,,,,,188,0,7,,,,,6,,,45,0
67580,note_off,,,,,92,0,2,,,,,1,,,64,0
67580,note_off,,,,,92,0,4,,,,,3,,,64,0
67580,note_off,,,,,188,0,5,,,,,4,,,64,0
67584,note_on,,,,,4,0,4,,,,,3,,,69,127
67584,note_on,,,,,4,0,1,,,,,0,,,72,92
67584,note_on,,,,,4,0,3,,,,,2,,,72,127
67584,note_on,,,,,4,0,2,,,,,1,,,69,92
67584,note_on,,,,,4,0,5,,,,,4,,,64,92
67584,note_on,,,,,4,0,6,,,,,5,,,57,92
67584,note_on,,,,,4,0,7,,,,,6,,,45,75
67676,note_off,,,,,92,0,2,,,,,1,,,69,0
67676,note_off,,,,,92,0,4,,,,,3,,,69,0
67680,note_on,,,,,4,0,4,,,,,3,,,67,127
67680,note_on,,,,,4,0,2,,,,,1,,,67,92
67772,note_off,,,,,92,0,4,,,,,3,,,67,0
67772,note_off,,,,,188,0,7,,,,,6,,,45,0
67772,note_off,,,,,92,0,2,,,,,1,,,67,0
67772,note_off,,,,,188,0,5,,,,,4,,,64,0
67772,note_off,,,,,188,0,3,,,,,2,,,72,0
67772,note_off,,,,,188,0,6,,,,,5,,,57,0
67772,note_off,,,,,188,0,1,,,,,0,,,72,0
67776,note_on,,,,,4,0,7,,,,,6,,,45,75
67776,note_on,,,,,4,0,5,,,,,4,,,69,92
67776,note_on,,,,,4,0,3,,,,,2,,,72,127
67776,note_on,,,,,4,0,2,,,,,1,,,66,92
67776,note_on,,,,,4,0,6,,,,,5,,,57,92
67776,note_on,,,,,4,0,1,,,,,0,,,72,92
67776,note_on,,,,,4,0,4,,,,,3,,,66,127
67868,note_off,,,,,92,0,2,,,,,1,,,66,0
67868,note_off,,,,,92,0,4,,,,,3,,,66,0
67872,note_on,,,,,4,0,2,,,,,1,,,64,92
67872,note_on,,,,,4,0,4,,,,,3,,,64,127
67964,note_off,,,,,92,0,2,,,,,1,,,64,0
67964,note_off,,,,,188,0,3,,,,,2,,,72,0
67964,note_off,,,,,188,0,1,,,,,0,,,72,0
67964,note_off,,,,,188,0,6,,,,,5,,,57,0
67964,note_off,,,,,188,0,5,,,,,4,,,69,0
67964,note_off,,,,,92,0,4,,,,,3,,,64,0
67964,note_off,,,,,188,0,7,,,,,6,,,45,0
67968,note_on,,,,,4,0,7,,,,,6,,,38,75
67968,note_on,,,,,4,0,5,,,,,4,,,69,92
67968,note_on,,,,,4,0,2,,,,,1,,,66,92
67968,note_on,,,,,4,0,3,,,,,2,,,72,127
67968,note_on,,,,,964,0,8,,,,,7,,,50,60
67968,note_on,,,,,4,0,6,,,,,5,,,50,92
67968,note_on,,,,,4,0,1,,,,,0,,,72,92
67968,note_on,,,,,4,0,4,,,,,3,,,66,127
67968,note_on,,,,,0,0,8,,,,,7,,,54,60
68060,note_off,,,,,92,0,1,,,,,0,,,72,0
68060,note_off,,,,,92,0,8,,,,,7,,,50,0
68060,note_off,,,,,0,0,8,,,,,7,,,54,0
68060,note_off,,,,,92,0,3,,,,,2,,,72,0
68064,note_on,,,,,4,0,1,,,,,0,,,69,92
68064,note_on,,,,,4,0,8,,,,,7,,,60,60
68064,note_on,,,,,4,0,3,,,,,2,,,69,127
68156,note_off,,,,,188,0,5,,,,,4,,,69,0
68156,note_off,,,,,188,0,7,,,,,6,,,38,0
68156,note_off,,,,,188,0,4,,,,,3,,,66,0
68156,note_off,,,,,188,0,2,,,,,1,,,66,0
68156,note_off,,,,,92,0,1,,,,,0,,,69,0
68156,note_off,,,,,92,0,3,,,,,2,,,69,0
68156,note_off,,,,,92,0,8,,,,,7,,,60,0
68156,note_off,,,,,188,0,6,,,,,5,,,50,0
68160,note_on,,,,,4,0,5,,,,,4,,,69,92
68160,note_on,,,,,4,0,2,,,,,1,,,66,92
68160,note_on,,,,,4,0,3,,,,,2,,,74,127
68160,note_on,,,,,4,0,4,,,,,3,,,66,127
68160,note_on,,,,,4,0,1,,,,,0,,,74,92
68160,note_on,,,,,4,0,7,,,,,6,,,38,75
68160,note_on,,,,,4,0,6,,,,,5,,,50,92
68252,note_off,,,,,92,0,3,,,,,2,,,74,0
68252,note_off,,,,,92,0,1,,,,,0,,,74,0
68256,note_on,,,,,4,0,3,,,,,2,,,72,127
68256,note_on,,,,,4,0,1,,,,,0,,,72,92
68348,note_off,,,,,188,0,2,,,,,1,,,66,0
68348,note_off,,,,,188,0,5,,,,,4,,,69,0
68348,note_off,,,,,188,0,7,,,,,6,,,38,0
68348,note_off,,,,,92,0,1,,,,,0,,,72,0
68348,note_off,,,,,92,0,3,,,,,2,,,72,0
68348,note_off,,,,,188,0,4,,,,,3,,,66,0
68348,note_off,,,,,188,0,6,,,,,5,,,50,0
68352,note_on,,,,,4,0,7,,,,,6,,,38,75
68352,note_on,,,,,4,0,6,,,,,5,,,50,92
68352,note_on,,,,,4,0,2,,,,,1,,,66,92
68352,note_on,,,,,4,0,1,,,,,0,,,71,92
68352,note_on,,,,,4,0,3,,,,,2,,,71,127
68352,note_on,,,,,4,0,4,,,,,3,,,66,127
68352,note_on,,,,,4,0,5,,,,,4,,,69,92
68444,note_off,,,,,92,0,3,,,,,2,,,71,0
68444,note_off,,,,,92,0,1,,,,,0,,,71,0
68448,note_on,,,,,4,0,1,,,,,0,,,69,92
68448,note_on,,,,,4,0,3,,,,,2,,,69,127
68540,note_off,,,,,188,0,5,,,,,4,,,69,0
68540,note_off,,,,,92,0,1,,,,,0,,,69,0
68540,note_off,,,,,188,0,2,,,,,1,,,66,0
68540,note_off,,,,,188,0,7,,,,,6,,,38,0
68540,note_off,,,,,92,0,3,,,,,2,,,69,0
68540,note_off,,,,,188,0,6,,,,,5,,,50,0
68540,note_off,,,,,188,0,4,,,,,3,,,66,0
68544,note_on,,,,,4,0,6,,,,,5,,,55,92
68544,note_on,,,,,4,0,5,,,,,4,,,62,92
68544,note_on,,,,,4,0,1,,,,,0,,,71,92
68544,note_on,,,,,4,0,7,,,,,6,,,43,75
68544,note_on,,,,,4,0,3,,,,,2,,,71,127
68640,note_on,,,,,100,0,2,,,,,1,,,62,92
68640,note_on,,,,,100,0,4,,,,,3,,,62,127
68732,note_off,,,,,188,0,7,,,,,6,,,43,0
68732,note_off,,,,,92,0,2,,,,,1,,,62,0
68732,note_off,,,,,188,0,5,,,,,4,,,62,0
68732,note_off,,,,,188,0,3,,,,,2,,,71,0
68732,note_off,,,,,92,0,4,,,,,3,,,62,0
68732,note_off,,,,,188,0,1,,,,,0,,,71,0
68732,note_off,,,,,188,0,6,,,,,5,,,55,0
68736,note_on,,,,,4,0,6,,,,,5,,,55,92
68736,note_on,,,,,4,0,2,,,,,1,,,67,92
68736,note_on,,,,,4,0,3,,,,,2,,,71,127
68736,note_on,,,,,4,0,7,,,,,6,,,43,75
68736,note_on,,,,,4,0,1,,,,,0,,,71,92
68736,note_on,,,,,4,0,5,,,,,4,,,62,92
68736,note_on,,,,,4,0,4,,,,,3,,,67,127
68828,note_off,,,,,92,0,2,,,,,1,,,67,0
68828,note_off,,,,,92,0,4,,,,,3,,,67,0
68832,note_on,,,,,4,0,4,,,,,3,,,66,127
68832,note_on,,,,,4,0,2,,,,,1,,,66,92
68924,note_off,,,,,188,0,5,,,,,4,,,62,0
68924,note_off,,,,,188,0,3,,,,,2,,,71,0
68924,note_off,,,,,92,0,4,,,,,3,,,66,0
68924,note_off,,,,,92,0,2,,,,,1,,,66,0
68924,note_off,,,,,188,0,6,,,,,5,,,55,0
68924,note_off,,,,,188,0,7,,,,,6,,,43,0
68924,note_off,,,,,188,0,1,,,,,0,,,71,0
68928,note_on,,,,,4,0,2,,,,,1,,,64,92
68928,note_on,,,,,4,0,5,,,,,4,,,55,92
68928,note_on,,,,,4,0,6,,,,,5,,,55,92
68928,note_on,,,,,4,0,4,,,,,3,,,64,127
68928,note_on,,,,,4,0,3,,,,,2,,,71,127
68928,note_on,,,,,4,0,7,,,,,6,,,43,75
68928,note_on,,,,,4,0,1,,,,,0,,,71,92
69020,note_off,,,,,92,0,4,,,,,3,,,64,0
69020,note_off,,,,,92,0,2,,,,,1,,,64,0
69024,note_on,,,,,4,0,2,,,,,1,,,62,92
69024,note_on,,,,,4,0,4,,,,,3,,,62,127
69116,note_off,,,,,188,0,1,,,,,0,,,71,0
69116,note_off,,,,,92,0,4,,,,,3,,,62,0
69116,note_off,,,,,188,0,5,,,,,4,,,55,0
69116,note_off,,,,,92,0,2,,,,,1,,,62,0
69116,note_off,,,,,188,0,6,,,,,5,,,55,0
69116,note_off,,,,,188,0,3,,,,,2,,,71,0
69116,note_off,,,,,188,0,7,,,,,6,,,43,0
69120,note_on,,,,,4,0,1,,,,,0,,,67,92
69120,note_on,,,,,4,0,2,,,,,1,,,61,92
69120,note_on,,,,,4,0,6,,,,,5,,,52,92
69120,note_on,,,,,4,0,3,,,,,2,,,67,127
69120,note_on,,,,,4,0,4,,,,,3,,,61,127
69120,note_on,,,,,964,0,8,,,,,7,,,52,60
69120,note_on,,,,,0,0,8,,,,,7,,,55,60
69120,note_on,,,,,4,0,7,,,,,6,,,40,75
69120,note_on,,,,,4,0,5,,,,,4,,,61,92
69212,note_off,,,,,0,0,8,,,,,7,,,55,0
69212,note_off,,,,,92,0,8,,,,,7,,,52,0
69212,note_off,,,,,92,0,4,,,,,3,,,61,0
69212,note_off,,,,,92,0,2,,,,,1,,,61,0
69216,note_on,,,,,4,0,2,,,,,1,,,62,92
69216,note_on,,,,,4,0,4,,,,,3,,,62,127
69216,note_on,,,,,4,0,8,,,,,7,,,61,60
69308,note_off,,,,,92,0,4,,,,,3,,,62,0
69308,note_off,,,,,188,0,1,,,,,0,,,67,0
69308,note_off,,,,,188,0,6,,,,,5,,,52,0
69308,note_off,,,,,92,0,2,,,,,1,,,62,0
69308,note_off,,,,,188,0,3,,,,,2,,,67,0
69308,note_off,,,,,188,0,5,,,,,4,,,61,0
69308,note_off,,,,,188,0,7,,,,,6,,,40,0
69308,note_off,,,,,92,0,8,,,,,7,,,61,0
69312,note_on,,,,,4,0,6,,,,,5,,,52,92
69312,note_on,,,,,4,0,5,,,,,4,,,61,92
69312,note_on,,,,,4,0,7,,,,,6,,,40,75
69312,note_on,,,,,4,0,4,,,,,3,,,64,127
69312,note_on,,,,,4,0,2,,,,,1,,,64,92
69312,note_on,,,,,4,0,1,,,,,0,,,67,92
69312,note_on,,,,,4,0,3,,,,,2,,,67,127
69500,note_off,,,,,188,0,1,,,,,0,,,67,0
69500,note_off,,,,,188,0,6,,,,,5,,,52,0
69500,note_off,,,,,188,0,5,,,,,4,,,61,0
69500,note_off,,,,,188,0,3,,,,,2,,,67,0
69500,note_off,,,,,188,0,7,,,,,6,,,40,0
69504,note_on,,,,,4,0,1,,,,,0,,,67,92
69504,note_on,,,,,4,0,5,,,,,4,,,61,92
69504,note_on,,,,,4,0,3,,,,,2,,,67,127
69504,note_on,,,,,4,0,6,,,,,5,,,52,92
69504,note_on,,,,,4,0,7,,,,,6,,,40,75
69632,note_off,,,,,320,0,2,,,,,1,,,64,0
69632,note_off,,,,,320,0,4,,,,,3,,,64,0
69692,note_off,,,,,188,0,3,,,,,2,,,67,0
69692,note_off,,,,,188,0,6,,,,,5,,,52,0
69692,note_off,,,,,188,0,7,,,,,6,,,40,0
69692,note_off,,,,,188,0,1,,,,,0,,,67,0
69692,note_off,,,,,188,0,5,,,,,4,,,61,0
69696,note_on,,,,,4,0,5,,,,,4,,,61,92
69696,note_on,,,,,4,0,1,,,,,0,,,73,92
69696,note_on,,,,,64,0,2,,,,,1,,,64,92
69696,note_on,,,,,4,0,6,,,,,5,,,52,92
69696,note_on,,,,,4,0,7,,,,,6,,,40,75
69696,note_on,,,,,4,0,3,,,,,2,,,73,127
69696,note_on,,,,,64,0,4,,,,,3,,,64,127
69788,note_off,,,,,92,0,3,,,,,2,,,73,0
69788,note_off,,,,,92,0,2,,,,,1,,,64,0
69788,note_off,,,,,92,0,4,,,,,3,,,64,0
69788,note_off,,,,,92,0,1,,,,,0,,,73,0
69792,note_on,,,,,4,0,3,,,,,2,,,74,127
69792,note_on,,,,,4,0,1,,,,,0,,,74,92
69792,note_on,,,,,4,0,2,,,,,1,,,66,92
69792,note_on,,,,,4,0,4,,,,,3,,,66,127
69884,note_off,,,,,188,0,7,,,,,6,,,40,0
69884,note_off,,,,,92,0,1,,,,,0,,,74,0
69884,note_off,,,,,92,0,3,,,,,2,,,74,0
69884,note_off,,,,,92,0,4,,,,,3,,,66,0
69884,note_off,,,,,188,0,6,,,,,5,,,52,0
69884,note_off,,,,,188,0,5,,,,,4,,,61,0
69884,note_off,,,,,92,0,2,,,,,1,,,66,0
69888,note_on,,,,,4,0,4,,,,,3,,,67,127
69888,note_on,,,,,4,0,5,,,,,4,,,61,92
69888,note_on,,,,,4,0,6,,,,,5,,,52,92
69888,note_on,,,,,4,0,3,,,,,2,,,76,127
69888,note_on,,,,,4,0,7,,,,,6,,,40,75
69888,note_on,,,,,4,0,1,,,,,0,,,76,92
69888,note_on,,,,,4,0,2,,,,,1,,,67,92
70076,note_off,,,,,188,0,5,,,,,4,,,61,0
70076,note_off,,,,,188,0,6,,,,,5,,,52,0
70076,note_off,,,,,188,0,7,,,,,6,,,40,0
70080,note_on,,,,,4,0,7,,,,,6,,,40,75
70080,note_on,,,,,4,0,6,,,,,5,,,52,92
70080,note_on,,,,,4,0,5,,,,,4,,,61,92
70208,note_off,,,,,320,0,4,,,,,3,,,67,0
70208,note_off,,,,,320,0,2,,,,,1,,,67,0
70208,note_off,,,,,320,0,1,,,,,0,,,76,0
70208,note_off,,,,,320,0,3,,,,,2,,,76,0
70268,note_off,,,,,188,0,5,,,,,4,,,61,0
70268,note_off,,,,,188,0,7,,,,,6,,,40,0
70268,note_off,,,,,188,0,6,,,,,5,,,52,0
70272,note_on,,,,,964,0,8,,,,,7,,,45,60
70272,note_on,,,,,0,0,8,,,,,7,,,49,60
70272,note_on,,,,,64,0,2,,,,,1,,,73,92
70272,note_on,,,,,64,0,3,,,,,2,,,76,127
70272,note_on,,,,,64,0,4,,,,,3,,,73,127
70272,note_on,,,,,64,0,1,,,,,0,,,76,92
70272,note_on,,,,,4,0,7,,,,,6,,,45,75
70272,note_on,,,,,4,0,5,,,,,4,,,61,92
70272,note_on,,,,,4,0,6,,,,,5,,,57,92
70364,note_off,,,,,92,0,1,,,,,0,,,76,0
70364,note_off,,,,,92,0,8,,,,,7,,,45,0
70364,note_off,,,,,92,0,4,,,,,3,,,73,0
70364,note_off,,,,,92,0,2,,,,,1,,,73,0
70364,note_off,,,,,92,0,3,,,,,2,,,76,0
70364,note_off,,,,,0,0,8,,,,,7,,,49,0
70368,note_on,,,,,4,0,4,,,,,3,,,74,127
70368,note_on,,,,,4,0,2,,,,,1,,,74,92
70368,note_on,,,,,4,0,3,,,,,2,,,78,127
70368,note_on,,,,,4,0,1,,,,,0,,,78,92
70368,note_on,,,,,4,0,8,,,,,7,,,52,60
70460,note_off,,,,,92,0,8,,,,,7,,,52,0
70460,note_off,,,,,188,0,7,,,,,6,,,45,0
70460,note_off,,,,,188,0,5,,,,,4,,,61,0
70460,note_off,,,,,92,0,4,,,,,3,,,74,0
70460,note_off,,,,,188,0,6,,,,,5,,,57,0
70460,note_off,,,,,92,0,2,,,,,1,,,74,0
70460,note_off,,,,,92,0,1,,,,,0,,,78,0
70460,note_off,,,,,92,0,3,,,,,2,,,78,0
70464,note_on,,,,,4,0,2,,,,,1,,,76,92
70464,note_on,,,,,4,0,5,,,,,4,,,61,92
70464,note_on,,,,,4,0,3,,,,,2,,,79,127
70464,note_on,,,,,4,0,7,,,,,6,,,45,75
70464,note_on,,,,,4,0,4,,,,,3,,,76,127
70464,note_on,,,,,4,0,6,,,,,5,,,57,92
70464,note_on,,,,,4,0,1,,,,,0,,,79,92
70652,note_off,,,,,188,0,6,,,,,5,,,57,0
70652,note_off,,,,,188,0,5,,,,,4,,,61,0
70652,note_off,,,,,188,0,7,,,,,6,,,45,0
70656,note_on,,,,,4,0,5,,,,,4,,,61,92
70656,note_on,,,,,4,0,6,,,,,5,,,57,92
70656,note_on,,,,,4,0,7,,,,,6,,,45,75
70784,note_off,,,,,320,0,4,,,,,3,,,76,0
70784,note_off,,,,,320,0,2,,,,,1,,,76,0
70784,note_off,,,,,320,0,3,,,,,2,,,79,0
70784,note_off,,,,,320,0,1,,,,,0,,,79,0
70844,note_off,,,,,188,0,6,,,,,5,,,57,0
70844,note_off,,,,,188,0,5,,,,,4,,,61,0
70844,note_off,,,,,188,0,7,,,,,6,,,45,0
70848,note_on,,,,,4,0,7,,,,,6,,,50,75
70848,note_on,,,,,64,0,4,,,,,3,,,74,127
70848,note_on,,,,,4,0,5,,,,,4,,,69,92
70848,note_on,,,,,4,0,6,,,,,5,,,62,92
70848,note_on,,,,,64,0,2,,,,,1,,,74,92
70848,note_on,,,,,64,0,3,,,,,2,,,78,127
70848,note_on,,,,,64,0,1,,,,,0,,,78,92
70940,note_off,,,,,92,0,1,,,,,0,,,78,0
70940,note_off,,,,,92,0,3,,,,,2,,,78,0
70940,note_off,,,,,92,0,2,,,,,1,,,74,0
70940,note_off,,,,,92,0,4,,,,,3,,,74,0
70944,note_on,,,,,4,0,3,,,,,2,,,79,127
70944,note_on,,,,,4,0,1,,,,,0,,,79,92
70944,note_on,,,,,4,0,2,,,,,1,,,76,92
70944,note_on,,,,,4,0,4,,,,,3,,,76,127
71036,note_off,,,,,188,0,5,,,,,4,,,69,0
71036,note_off,,,,,92,0,1,,,,,0,,,79,0
71036,note_off,,,,,188,0,7,,,,,6,,,50,0
71036,note_off,,,,,92,0,3,,,,,2,,,79,0
71036,note_off,,,,,188,0,6,,,,,5,,,62,0
71036,note_off,,,,,92,0,2,,,,,1,,,76,0
71036,note_off,,,,,92,0,4,,,,,3,,,76,0
71040,note_on,,,,,4,0,4,,,,,3,,,78,127
71040,note_on,,,,,4,0,5,,,,,4,,,69,92
71040,note_on,,,,,4,0,2,,,,,1,,,78,92
71040,note_on,,,,,4,0,7,,,,,6,,,50,75
71040,note_on,,,,,4,0,1,,,,,0,,,81,92
71040,note_on,,,,,4,0,3,,,,,2,,,81,127
71040,note_on,,,,,4,0,6,,,,,5,,,62,92
71228,note_off,,,,,188,0,7,,,,,6,,,50,0
71228,note_off,,,,,188,0,6,,,,,5,,,62,0
71228,note_off,,,,,188,0,5,,,,,4,,,69,0
71232,note_on,,,,,4,0,5,,,,,4,,,69,92
71232,note_on,,,,,4,0,7,,,,,6,,,50,75
71232,note_on,,,,,4,0,6,,,,,5,,,62,92
71360,note_off,,,,,320,0,1,,,,,0,,,81,0
71360,note_off,,,,,320,0,4,,,,,3,,,78,0
71360,note_off,,,,,320,0,2,,,,,1,,,78,0
71360,note_off,,,,,320,0,3,,,,,2,,,81,0
71420,note_off,,,,,188,0,7,,,,,6,,,50,0
71420,note_off,,,,,188,0,5,,,,,4,,,69,0
71420,note_off,,,,,188,0,6,,,,,5,,,62,0
71424,note_on,,,,,64,0,3,,,,,2,,,81,127
71424,note_on,,,,,64,0,2,,,,,1,,,78,92
71424,note_on,,,,,64,0,4,,,,,3,,,78,127
71424,note_on,,,,,4,0,6,,,,,5,,,54,92
71424,note_on,,,,,964,0,8,,,,,7,,,42,60
71424,note_on,,,,,0,0,8,,,,,7,,,45,60
71424,note_on,,,,,4,0,5,,,,,4,,,62,92
71424,note_on,,,,,64,0,1,,,,,0,,,81,92
71424,note_on,,,,,4,0,7,,,,,6,,,42,75
71516,note_off,,,,,92,0,1,,,,,0,,,81,0
71516,note_off,,,,,92,0,8,,,,,7,,,42,0
71516,note_off,,,,,0,0,8,,,,,7,,,45,0
71516,note_off,,,,,92,0,2,,,,,1,,,78,0
71516,note_off,,,,,92,0,4,,,,,3,,,78,0
71516,note_off,,,,,92,0,3,,,,,2,,,81,0
71520,note_on,,,,,4,0,1,,,,,0,,,83,92
71520,note_on,,,,,4,0,3,,,,,2,,,83,127
71520,note_on,,,,,4,0,2,,,,,1,,,79,92
71520,note_on,,,,,4,0,8,,,,,7,,,50,60
71520,note_on,,,,,4,0,4,,,,,3,,,79,127
71612,note_off,,,,,188,0,6,,,,,5,,,54,0
71612,note_off,,,,,92,0,3,,,,,2,,,83,0
71612,note_off,,,,,188,0,5,,,,,4,,,62,0
71612,note_off,,,,,92,0,8,,,,,7,,,50,0
71612,note_off,,,,,92,0,1,,,,,0,,,83,0
71612,note_off,,,,,188,0,7,,,,,6,,,42,0
71612,note_off,,,,,92,0,4,,,,,3,,,79,0
71612,note_off,,,,,92,0,2,,,,,1,,,79,0
71616,note_on,,,,,4,0,3,,,,,2,,,84,127
71616,note_on,,,,,4,0,7,,,,,6,,,42,75
71616,note_on,,,,,4,0,2,,,,,1,,,81,92
71616,note_on,,,,,4,0,4,,,,,3,,,81,127
71616,note_on,,,,,4,0,6,,,,,5,,,54,92
71616,note_on,,,,,4,0,1,,,,,0,,,84,92
71616,note_on,,,,,4,0,5,,,,,4,,,62,92
71804,note_off,,,,,188,0,6,,,,,5,,,54,0
71804,note_off,,,,,188,0,7,,,,,6,,,42,0
71804,note_off,,,,,188,0,5,,,,,4,,,62,0
71808,note_on,,,,,4,0,7,,,,,6,,,42,75
71808,note_on,,,,,4,0,5,,,,,4,,,62,92
71808,note_on,,,,,4,0,6,,,,,5,,,54,92
71936,note_off,,,,,320,0,3,,,,,2,,,84,0
71936,note_off,,,,,320,0,4,,,,,3,,,81,0
71936,note_off,,,,,320,0,1,,,,,0,,,84,0
71936,note_off,,,,,320,0,2,,,,,1,,,81,0
71996,note_off,,,,,188,0,7,,,,,6,,,42,0
71996,note_off,,,,,188,0,5,,,,,4,,,62,0
71996,note_off,,,,,188,0,6,,,,,5,,,54,0
72000,note_on,,,,,4,0,7,,,,,6,,,43,75
72000,note_on,,,,,4,0,6,,,,,5,,,55,92
72000,note_on,,,,,64,0,3,,,,,2,,,83,127
72000,note_on,,,,,4,0,5,,,,,4,,,67,92
72000,note_on,,,,,64,0,1,,,,,0,,,83,92
72000,note_on,,,,,64,0,2,,,,,1,,,74,92
72000,note_on,,,,,64,0,4,,,,,3,,,74,127
72092,note_off,,,,,92,0,4,,,,,3,,,74,0
72092,note_off,,,,,92,0,1,,,,,0,,,83,0
72092,note_off,,,,,92,0,2,,,,,1,,,74,0
72092,note_off,,,,,92,0,3,,,,,2,,,83,0
72096,note_on,,,,,4,0,4,,,,,3,,,71,127
72096,note_on,,,,,4,0,2,,,,,1,,,71,92
72096,note_on,,,,,4,0,1,,,,,0,,,79,92
72096,note_on,,,,,4,0,3,,,,,2,,,79,127
72188,note_off,,,,,188,0,5,,,,,4,,,67,0
72188,note_off,,,,,92,0,3,,,,,2,,,79,0
72188,note_off,,,,,188,0,6,,,,,5,,,55,0
72188,note_off,,,,,92,0,1,,,,,0,,,79,0
72188,note_off,,,,,92,0,2,,,,,1,,,71,0
72188,note_off,,,,,92,0,4,,,,,3,,,71,0
72188,note_off,,,,,188,0,7,,,,,6,,,43,0
72192,note_on,,,,,4,0,7,,,,,6,,,43,75
72192,note_on,,,,,4,0,5,,,,,4,,,62,92
72192,note_on,,,,,4,0,3,,,,,2,,,81,127
72192,note_on,,,,,4,0,6,,,,,5,,,55,92
72192,note_on,,,,,4,0,2,,,,,1,,,72,92
72192,note_on,,,,,4,0,1,,,,,0,,,81,92
72192,note_on,,,,,4,0,4,,,,,3,,,72,127
72284,note_off,,,,,92,0,4,,,,,3,,,72,0
72284,note_off,,,,,92,0,1,,,,,0,,,81,0
72284,note_off,,,,,92,0,2,,,,,1,,,72,0
72284,note_off,,,,,92,0,3,,,,,2,,,81,0
72288,note_on,,,,,4,0,4,,,,,3,,,69,127
72288,note_on,,,,,4,0,1,,,,,0,,,78,92
72288,note_on,,,,,4,0,2,,,,,1,,,69,92
72288,note_on,,,,,4,0,3,,,,,2,,,78,127
72380,note_off,,,,,92,0,1,,,,,0,,,78,0
72380,note_off,,,,,188,0,7,,,,,6,,,43,0
72380,note_off,,,,,92,0,4,,,,,3,,,69,0
72380,note_off,,,,,92,0,3,,,,,2,,,78,0
72380,note_off,,,,,188,0,6,,,,,5,,,55,0
72380,note_off,,,,,92,0,2,,,,,1,,,69,0
72380,note_off,,,,,188,0,5,,,,,4,,,62,0
72384,note_on,,,,,4,0,3,,,,,2,,,79,127
72384,note_on,,,,,4,0,4,,,,,3,,,71,127
72384,note_on,,,,,4,0,5,,,,,4,,,62,92
72384,note_on,,,,,4,0,2,,,,,1,,,71,92
72384,note_on,,,,,4,0,6,,,,,5,,,55,92
72384,note_on,,,,,4,0,1,,,,,0,,,79,92
72384,note_on,,,,,4,0,7,,,,,6,,,43,75
72476,note_off,,,,,92,0,3,,,,,2,,,79,0
72476,note_off,,,,,92,0,1,,,,,0,,,79,0
72480,note_on,,,,,4,0,1,,,,,0,,,74,92
72480,note_on,,,,,4,0,3,,,,,2,,,74,127
72572,note_off,,,,,188,0,2,,,,,1,,,71,0
72572,note_off,,,,,188,0,6,,,,,5,,,55,0
72572,note_off,,,,,188,0,4,,,,,3,,,71,0
72572,note_off,,,,,188,0,5,,,,,4,,,62,0
72572,note_off,,,,,188,0,7,,,,,6,,,43,0
72572,note_off,,,,,92,0,1,,,,,0,,,74,0
72572,note_off,,,,,92,0,3,,,,,2,,,74,0
72576,note_on,,,,,4,0,3,,,,,2,,,76,127
72576,note_on,,,,,4,0,5,,,,,4,,,72,92
72576,note_on,,,,,4,0,2,,,,,1,,,69,92
72576,note_on,,,,,4,0,7,,,,,6,,,48,75
72576,note_on,,,,,0,0,8,,,,,7,,,52,60
72576,note_on,,,,,964,0,8,,,,,7,,,48,60
72576,note_on,,,,,4,0,1,,,,,0,,,76,92
72576,note_on,,,,,4,0,6,,,,,5,,,60,92
72576,note_on,,,,,4,0,4,,,,,3,,,69,127
72668,note_off,,,,,92,0,5,,,,,4,,,72,0
72668,note_off,,,,,0,0,8,,,,,7,,,52,0
72668,note_off,,,,,92,0,8,,,,,7,,,48,0
72668,note_off,,,,,92,0,4,,,,,3,,,69,0
72668,note_off,,,,,92,0,1,,,,,0,,,76,0
72668,note_off,,,,,92,0,2,,,,,1,,,69,0
72668,note_off,,,,,92,0,3,,,,,2,,,76,0
72672,note_on,,,,,4,0,8,,,,,7,,,57,60
72672,note_on,,,,,4,0,1,,,,,0,,,81,92
72672,note_on,,,,,4,0,2,,,,,1,,,72,92
72672,note_on,,,,,4,0,3,,,,,2,,,81,127
72672,note_on,,,,,4,0,5,,,,,4,,,64,92
72672,note_on,,,,,4,0,4,,,,,3,,,72,127
72764,note_off,,,,,92,0,4,,,,,3,,,72,0
72764,note_off,,,,,188,0,7,,,,,6,,,48,0
72764,note_off,,,,,92,0,1,,,,,0,,,81,0
72764,note_off,,,,,92,0,2,,,,,1,,,72,0
72764,note_off,,,,,92,0,3,,,,,2,,,81,0
72764,note_off,,,,,92,0,8,,,,,7,,,57,0
72764,note_off,,,,,92,0,5,,,,,4,,,64,0
72764,note_off,,,,,188,0,6,,,,,5,,,60,0
72768,note_on,,,,,4,0,1,,,,,0,,,79,92
72768,note_on,,,,,4,0,5,,,,,4,,,66,92
72768,note_on,,,,,4,0,3,,,,,2,,,79,127
72768,note_on,,,,,4,0,2,,,,,1,,,69,92
72768,note_on,,,,,4,0,7,,,,,6,,,50,75
72768,note_on,,,,,4,0,4,,,,,3,,,69,127
72768,note_on,,,,,4,0,6,,,,,5,,,62,92
72816,note_off,,,,,48,0,1,,,,,0,,,79,0
72816,note_on,,,,,0,0,1,,,,,0,,,78,92
72816,note_on,,,,,0,0,3,,,,,2,,,78,127
72816,note_off,,,,,48,0,3,,,,,2,,,79,0
72864,note_off,,,,,48,0,3,,,,,2,,,78,0
72864,note_on,,,,,0,0,3,,,,,2,,,79,127
72864,note_on,,,,,0,0,1,,,,,0,,,79,92
72864,note_off,,,,,48,0,1,,,,,0,,,78,0
72912,note_off,,,,,48,0,1,,,,,0,,,79,0
72912,note_off,,,,,48,0,3,,,,,2,,,79,0
72912,note_on,,,,,0,0,3,,,,,2,,,78,127
72912,note_on,,,,,0,0,1,,,,,0,,,78,92
72956,note_off,,,,,188,0,7,,,,,6,,,50,0
72956,note_off,,,,,188,0,2,,,,,1,,,69,0
72956,note_off,,,,,188,0,6,,,,,5,,,62,0
72956,note_off,,,,,188,0,4,,,,,3,,,69,0
72956,note_off,,,,,188,0,5,,,,,4,,,66,0
72960,note_on,,,,,4,0,2,,,,,1,,,74,92
72960,note_on,,,,,4,0,7,,,,,6,,,38,75
72960,note_on,,,,,0,0,1,,,,,0,,,79,92
72960,note_off,,,,,48,0,1,,,,,0,,,78,0
72960,note_on,,,,,4,0,6,,,,,5,,,50,92
72960,note_on,,,,,0,0,3,,,,,2,,,79,127
72960,note_off,,,,,48,0,3,,,,,2,,,78,0
72960,note_on,,,,,4,0,4,,,,,3,,,74,127
72960,note_on,,,,,4,0,5,,,,,4,,,69,92
73008,note_on,,,,,0,0,3,,,,,2,,,78,127
73008,note_off,,,,,48,0,3,,,,,2,,,79,0
73008,note_on,,,,,0,0,1,,,,,0,,,78,92
73008,note_off,,,,,48,0,1,,,,,0,,,79,0
73052,note_off,,,,,92,0,5,,,,,4,,,69,0
73056,note_on,,,,,4,0,5,,,,,4,,,62,92
73056,note_on,,,,,0,0,1,,,,,0,,,79,92
73056,note_off,,,,,48,0,1,,,,,0,,,78,0
73056,note_on,,,,,0,0,3,,,,,2,,,79,127
73056,note_off,,,,,48,0,3,,,,,2,,,78,0
73104,note_on,,,,,0,0,1,,,,,0,,,78,92
73104,note_off,,,,,48,0,3,,,,,2,,,79,0
73104,note_on,,,,,0,0,3,,,,,2,,,78,127
73104,note_off,,,,,48,0,1,,,,,0,,,79,0
73148,note_off,,,,,188,0,6,,,,,5,,,50,0
73148,note_off,,,,,188,0,7,,,,,6,,,38,0
73148,note_off,,,,,188,0,2,,,,,1,,,74,0
73148,note_off,,,,,92,0,5,,,,,4,,,62,0
73148,note_off,,,,,188,0,4,,,,,3,,,74,0
73152,note_on,,,,,4,0,6,,,,,5,,,55,92
73152,note_on,,,,,4,0,7,,,,,6,,,43,75
73152,note_on,,,,,4,0,4,,,,,3,,,71,127
73152,note_on,,,,,4,0,2,,,,,1,,,71,92
73152,note_on,,,,,4,0,5,,,,,4,,,62,92
73152,note_on,,,,,0,0,3,,,,,2,,,79,127
73152,note_off,,,,,48,0,3,,,,,2,,,78,0
73152,note_off,,,,,48,0,1,,,,,0,,,78,0
73152,note_on,,,,,0,0,1,,,,,0,,,79,92
73248,note_off,,,,,96,0,3,,,,,2,,,79,0
73248,note_on,,,,,0,0,3,,,,,2,,,79,127
73248,note_off,,,,,96,0,1,,,,,0,,,79,0
73248,note_on,,,,,0,0,1,,,,,0,,,79,92
73340,note_off,,,,,188,0,5,,,,,4,,,62,0
73340,note_off,,,,,188,0,4,,,,,3,,,71,0
73340,note_off,,,,,188,0,2,,,,,1,,,71,0
73340,note_off,,,,,188,0,6,,,,,5,,,55,0
73340,note_off,,,,,188,0,7,,,,,6,,,43,0
73344,note_on,,,,,4,0,4,,,,,3,,,74,127
73344,note_on,,,,,4,0,7,,,,,6,,,43,75
73344,note_on,,,,,4,0,6,,,,,5,,,55,92
73344,note_on,,,,,4,0,2,,,,,1,,,74,92
73344,note_on,,,,,4,0,5,,,,,4,,,59,92
73532,note_off,,,,,284,0,3,,,,,2,,,79,0
73532,note_off,,,,,188,0,2,,,,,1,,,74,0
73532,note_off,,,,,188,0,7,,,,,6,,,43,0
73532,note_off,,,,,284,0,1,,,,,0,,,79,0
73532,note_off,,,,,188,0,6,,,,,5,,,55,0
73532,note_off,,,,,188,0,5,,,,,4,,,59,0
73532,note_off,,,,,188,0,4,,,,,3,,,74,0
73536,note_on,,,,,4,0,4,,,,,3,,,66,127
73536,note_on,,,,,4,0,7,,,,,6,,,45,75
73536,note_on,,,,,4,0,6,,,,,5,,,57,92
73536,note_on,,,,,772,0,8,,,,,7,,,45,60
73536,note_on,,,,,0,0,8,,,,,7,,,48,60
73536,note_on,,,,,4,0,2,,,,,1,,,66,92
73536,note_on,,,,,4,0,5,,,,,4,,,60,92
73628,note_off,,,,,0,0,8,,,,,7,,,48,0
73628,note_off,,,,,92,0,8,,,,,7,,,45,0
73632,note_on,,,,,4,0,8,,,,,7,,,54,60
73724,note_off,,,,,188,0,7,,,,,6,,,45,0
73724,note_off,,,,,188,0,2,,,,,1,,,66,0
73724,note_off,,,,,188,0,5,,,,,4,,,60,0
73724,note_off,,,,,188,0,6,,,,,5,,,57,0
73724,note_off,,,,,92,0,8,,,,,7,,,54,0
73724,note_off,,,,,188,0,4,,,,,3,,,66,0
73728,note_on,,,,,4,0,7,,,,,6,,,47,75
73728,note_on,,,,,4,0,5,,,,,4,,,62,92
73728,note_on,,,,,0,0,8,,,,,7,,,50,60
73728,note_on,,,,,4,0,6,,,,,5,,,59,92
73728,note_on,,,,,4,0,8,,,,,7,,,47,60
73728,note_on,,,,,4,0,2,,,,,1,,,67,92
73728,note_on,,,,,4,0,4,,,,,3,,,67,127
73820,note_off,,,,,0,0,8,,,,,7,,,50,0
73820,note_off,,,,,92,0,8,,,,,7,,,47,0
73824,note_on,,,,,4,0,8,,,,,7,,,55,60
73916,note_off,,,,,92,0,8,,,,,7,,,55,0
73916,note_off,,,,,188,0,5,,,,,4,,,62,0
73920,note_on,,,,,388,0,3,,,,,2,,,86,127
73920,note_on,,,,,388,0,1,,,,,0,,,86,92
73920,note_on,,,,,4,0,5,,,,,4,,,74,92
74048,note_off,,,,,320,0,4,,,,,3,,,67,0
74048,note_off,,,,,320,0,2,,,,,1,,,67,0
74048,note_off,,,,,320,0,7,,,,,6,,,47,0
74048,note_off,,,,,320,0,6,,,,,5,,,59,0
74108,note_off,,,,,188,0,3,,,,,2,,,86,0
74108,note_off,,,,,188,0,1,,,,,0,,,86,0
74108,note_off,,,,,188,0,5,,,,,4,,,74,0
74112,note_on,,,,,4,0,1,,,,,0,,,78,92
74112,note_on,,,,,0,0,8,,,,,7,,,48,60
74112,note_on,,,,,64,0,6,,,,,5,,,57,92
74112,note_on,,,,,4,0,5,,,,,4,,,72,92
74112,note_on,,,,,4,0,3,,,,,2,,,78,127
74112,note_on,,,,,64,0,7,,,,,6,,,45,75
74112,note_on,,,,,196,0,8,,,,,7,,,45,60
74204,note_off,,,,,92,0,8,,,,,7,,,45,0
74204,note_off,,,,,0,0,8,,,,,7,,,48,0
74208,note_on,,,,,4,0,8,,,,,7,,,54,60
74300,note_off,,,,,188,0,1,,,,,0,,,78,0
74300,note_off,,,,,188,0,5,,,,,4,,,72,0
74300,note_off,,,,,188,0,6,,,,,5,,,57,0
74300,note_off,,,,,188,0,7,,,,,6,,,45,0
74300,note_off,,,,,92,0,8,,,,,7,,,54,0
74300,note_off,,,,,188,0,3,,,,,2,,,78,0
74304,note_on,,,,,4,0,6,,,,,5,,,55,92
74304,note_on,,,,,4,0,5,,,,,4,,,71,92
74304,note_on,,,,,4,0,7,,,,,6,,,43,75
74304,note_on,,,,,4,0,1,,,,,0,,,79,92
74304,note_on,,,,,4,0,3,,,,,2,,,79,127
74492,note_off,,,,,188,0,5,,,,,4,,,71,0
74496,note_on,,,,,448,0,4,,,,,3,,,74,127
74496,note_on,,,,,4,0,5,,,,,4,,,59,92
74496,note_on,,,,,448,0,2,,,,,1,,,74,92
74624,note_off,,,,,320,0,1,,,,,0,,,79,0
74624,note_off,,,,,320,0,6,,,,,5,,,55,0
74624,note_off,,,,,320,0,3,,,,,2,,,79,0
74624,note_off,,,,,320,0,7,,,,,6,,,43,0
74684,note_off,,,,,188,0,5,,,,,4,,,59,0
74684,note_off,,,,,188,0,4,,,,,3,,,74,0
74684,note_off,,,,,188,0,2,,,,,1,,,74,0
74688,note_on,,,,,388,0,8,,,,,7,,,45,60
74688,note_on,,,,,0,0,8,,,,,7,,,48,60
74688,note_on,,,,,4,0,4,,,,,3,,,66,127
74688,note_on,,,,,64,0,6,,,,,5,,,57,92
74688,note_on,,,,,4,0,5,,,,,4,,,60,92
74688,note_on,,,,,4,0,2,,,,,1,,,66,92
74688,note_on,,,,,64,0,7,,,,,6,,,45,75
74780,note_off,,,,,92,0,8,,,,,7,,,45,0
74780,note_off,,,,,0,0,8,,,,,7,,,48,0
74784,note_on,,,,,4,0,8,,,,,7,,,54,60
74876,note_off,,,,,188,0,2,,,,,1,,,66,0
74876,note_off,,,,,188,0,5,,,,,4,,,60,0
74876,note_off,,,,,92,0,8,,,,,7,,,54,0
74876,note_off,,,,,188,0,7,,,,,6,,,45,0
74876,note_off,,,,,188,0,4,,,,,3,,,66,0
74876,note_off,,,,,188,0,6,,,,,5,,,57,0
74880,note_on,,,,,4,0,7,,,,,6,,,47,75
74880,note_on,,,,,4,0,5,,,,,4,,,62,92
74880,note_on,,,,,4,0,8,,,,,7,,,47,60
74880,note_on,,,,,4,0,2,,,,,1,,,67,92
74880,note_on,,,,,0,0,8,,,,,7,,,50,60
74880,note_on,,,,,4,0,4,,,,,3,,,67,127
74880,note_on,,,,,4,0,6,,,,,5,,,59,92
74972,note_off,,,,,92,0,8,,,,,7,,,47,0
74972,note_off,,,,,0,0,8,,,,,7,,,50,0
74976,note_on,,,,,4,0,8,,,,,7,,,55,60
75068,note_off,,,,,92,0,8,,,,,7,,,55,0
75068,note_off,,,,,188,0,5,,,,,4,,,62,0
75072,note_on,,,,,448,0,3,,,,,2,,,86,127
75072,note_on,,,,,448,0,1,,,,,0,,,86,92
75072,note_on,,,,,4,0,5,,,,,4,,,74,92
75200,note_off,,,,,320,0,4,,,,,3,,,67,0
75200,note_off,,,,,320,0,6,,,,,5,,,59,0
75200,note_off,,,,,320,0,7,,,,,6,,,47,0
75200,note_off,,,,,320,0,2,,,,,1,,,67,0
75260,note_off,,,,,188,0,3,,,,,2,,,86,0
75260,note_off,,,,,188,0,1,,,,,0,,,86,0
75260,note_off,,,,,188,0,5,,,,,4,,,74,0
75264,note_on,,,,,4,0,5,,,,,4,,,72,92
75264,note_on,,,,,4,0,3,,,,,2,,,78,127
75264,note_on,,,,,196,0,8,,,,,7,,,45,60
75264,note_on,,,,,64,0,7,,,,,6,,,45,75
75264,note_on,,,,,4,0,1,,,,,0,,,78,92
75264,note_on,,,,,64,0,6,,,,,5,,,57,92
75264,note_on,,,,,0,0,8,,,,,7,,,48,60
75356,note_off,,,,,92,0,8,,,,,7,,,45,0
75356,note_off,,,,,0,0,8,,,,,7,,,48,0
75360,note_on,,,,,4,0,8,,,,,7,,,54,60
75452,note_off,,,,,92,0,8,,,,,7,,,54,0
75452,note_off,,,,,188,0,6,,,,,5,,,57,0
75452,note_off,,,,,188,0,5,,,,,4,,,72,0
75452,note_off,,,,,188,0,7,,,,,6,,,45,0
75452,note_off,,,,,188,0,3,,,,,2,,,78,0
75452,note_off,,,,,188,0,1,,,,,0,,,78,0
75456,note_on,,,,,4,0,3,,,,,2,,,79,127
75456,note_on,,,,,4,0,7,,,,,6,,,43,75
75456,note_on,,,,,4,0,1,,,,,0,,,79,92
75456,note_on,,,,,4,0,5,,,,,4,,,71,92
75456,note_on,,,,,4,0,6,,,,,5,,,55,92
75644,note_off,,,,,188,0,5,,,,,4,,,71,0
75648,note_on,,,,,448,0,4,,,,,3,,,74,127
75648,note_on,,,,,4,0,5,,,,,4,,,59,92
75648,note_on,,,,,448,0,2,,,,,1,,,74,92
75776,note_off,,,,,320,0,1,,,,,0,,,79,0
75776,note_off,,,,,320,0,3,,,,,2,,,79,0
75776,note_off,,,,,320,0,6,,,,,5,,,55,0
75776,note_off,,,,,320,0,7,,,,,6,,,43,0
75836,note_off,,,,,188,0,4,,,,,3,,,74,0
75836,note_off,,,,,188,0,5,,,,,4,,,59,0
75836,note_off,,,,,188,0,2,,,,,1,,,74,0
75840,note_on,,,,,4,0,5,,,,,4,,,60,92
75840,note_on,,,,,4,0,2,,,,,1,,,66,92
75840,note_on,,,,,64,0,6,,,,,5,,,57,92
75840,note_on,,,,,64,0,7,,,,,6,,,45,75
75840,note_on,,,,,388,0,8,,,,,7,,,45,60
75840,note_on,,,,,0,0,8,,,,,7,,,48,60
75840,note_on,,,,,4,0,4,,,,,3,,,66,127
75932,note_off,,,,,92,0,8,,,,,7,,,45,0
75932,note_off,,,,,0,0,8,,,,,7,,,48,0
75936,note_on,,,,,4,0,8,,,,,7,,,54,60
76028,note_off,,,,,188,0,7,,,,,6,,,45,0
76028,note_off,,,,,188,0,2,,,,,1,,,66,0
76028,note_off,,,,,188,0,6,,,,,5,,,57,0
76028,note_off,,,,,188,0,4,,,,,3,,,66,0
76028,note_off,,,,,92,0,8,,,,,7,,,54,0
76028,note_off,,,,,188,0,5,,,,,4,,,60,0
76032,note_on,,,,,4,0,7,,,,,6,,,47,75
76032,note_on,,,,,4,0,2,,,,,1,,,67,92
76032,note_on,,,,,256,0,1,,,,,0,,,67,92
76032,note_on,,,,,4,0,5,,,,,4,,,62,92
76032,note_on,,,,,0,0,8,,,,,7,,,50,60
76032,note_on,,,,,4,0,6,,,,,5,,,59,92
76032,note_on,,,,,4,0,8,,,,,7,,,47,60
76032,note_on,,,,,4,0,4,,,,,3,,,67,127
76032,note_on,,,,,256,0,3,,,,,2,,,67,127
76124,note_off,,,,,92,0,8,,,,,7,,,47,0
76124,note_off,,,,,0,0,8,,,,,7,,,50,0
76124,note_off,,,,,92,0,1,,,,,0,,,67,0
76124,note_off,,,,,92,0,3,,,,,2,,,67,0
76128,note_on,,,,,4,0,8,,,,,7,,,55,60
76128,note_on,,,,,4,0,1,,,,,0,,,62,92
76128,note_on,,,,,4,0,3,,,,,2,,,62,127
76220,note_off,,,,,92,0,1,,,,,0,,,62,0
76220,note_off,,,,,92,0,3,,,,,2,,,62,0
76220,note_off,,,,,92,0,8,,,,,7,,,55,0
76224,note_on,,,,,4,0,3,,,,,2,,,71,127
76224,note_on,,,,,4,0,1,,,,,0,,,71,92
76316,note_off,,,,,92,0,3,,,,,2,,,71,0
76316,note_off,,,,,92,0,1,,,,,0,,,71,0
76320,note_on,,,,,4,0,1,,,,,0,,,67,92
76320,note_on,,,,,4,0,3,,,,,2,,,67,127
76352,note_off,,,,,320,0,5,,,,,4,,,62,0
76352,note_off,,,,,320,0,2,,,,,1,,,67,0
76352,note_off,,,,,320,0,7,,,,,6,,,47,0
76352,note_off,,,,,320,0,4,,,,,3,,,67,0
76352,note_off,,,,,320,0,6,,,,,5,,,59,0
76412,note_off,,,,,92,0,3,,,,,2,,,67,0
76412,note_off,,,,,92,0,1,,,,,0,,,67,0
76416,note_on,,,,,4,0,1,,,,,0,,,74,92
76416,note_on,,,,,4,0,3,,,,,2,,,74,127
76508,note_off,,,,,92,0,1,,,,,0,,,74,0
76508,note_off,,,,,92,0,3,,,,,2,,,74,0
76512,note_on,,,,,4,0,1,,,,,0,,,71,92
76512,note_on,,,,,4,0,3,,,,,2,,,71,127
76604,note_off,,,,,92,0,1,,,,,0,,,71,0
76604,note_off,,,,,92,0,3,,,,,2,,,71,0
76608,note_on,,,,,256,0,4,,,,,3,,,59,127
76608,note_on,,,,,4,0,1,,,,,0,,,79,92
76608,note_on,,,,,256,0,2,,,,,1,,,59,92
76608,note_on,,,,,4,0,3,,,,,2,,,79,127
76700,note_off,,,,,92,0,4,,,,,3,,,59,0
76700,note_off,,,,,92,0,2,,,,,1,,,59,0
76704,note_on,,,,,4,0,2,,,,,1,,,55,92
76704,note_on,,,,,4,0,4,,,,,3,,,55,127
76796,note_off,,,,,92,0,2,,,,,1,,,55,0
76796,note_off,,,,,92,0,4,,,,,3,,,55,0
76800,note_on,,,,,4,0,2,,,,,1,,,62,92
76800,note_on,,,,,4,0,4,,,,,3,,,62,127
76892,note_off,,,,,92,0,4,,,,,3,,,62,0
76892,note_off,,,,,92,0,2,,,,,1,,,62,0
76896,note_on,,,,,4,0,2,,,,,1,,,59,92
76896,note_on,,,,,4,0,4,,,,,3,,,59,127
76928,note_off,,,,,320,0,1,,,,,0,,,79,0
76928,note_off,,,,,320,0,3,,,,,2,,,79,0
76988,note_off,,,,,92,0,2,,,,,1,,,59,0
76988,note_off,,,,,92,0,4,,,,,3,,,59,0
76992,note_on,,,,,4,0,2,,,,,1,,,67,92
76992,note_on,,,,,4,0,4,,,,,3,,,67,127
77084,note_off,,,,,92,0,2,,,,,1,,,67,0
77084,note_off,,,,,92,0,4,,,,,3,,,67,0
77088,note_on,,,,,4,0,2,,,,,1,,,62,92
77088,note_on,,,,,4,0,4,,,,,3,,,62,127
77180,note_off,,,,,92,0,2,,,,,1,,,62,0
77180,note_off,,,,,92,0,4,,,,,3,,,62,0
77184,note_on,,,,,832,0,7,,,,,6,,,43,75
77184,note_on,,,,,4,0,4,,,,,3,,,71,127
77184,note_on,,,,,832,0,6,,,,,5,,,55,92
77184,note_on,,,,,256,0,3,,,,,2,,,67,127
77184,note_on,,,,,256,0,1,,,,,0,,,67,92
77184,note_on,,,,,4,0,2,,,,,1,,,71,92
77184,note_on,,,,,832,0,5,,,,,4,,,62,92
77276,note_off,,,,,92,0,1,,,,,0,,,67,0
77276,note_off,,,,,92,0,3,,,,,2,,,67,0
77280,note_on,,,,,4,0,3,,,,,2,,,62,127
77280,note_on,,,,,4,0,1,,,,,0,,,62,92
77372,note_off,,,,,92,0,3,,,,,2,,,62,0
77372,note_off,,,,,92,0,1,,,,,0,,,62,0
77376,note_on,,,,,4,0,3,,,,,2,,,71,127
77376,note_on,,,,,4,0,1,,,,,0,,,71,92
77468,note_off,,,,,92,0,3,,,,,2,,,71,0
77468,note_off,,,,,92,0,1,,,,,0,,,71,0
77472,note_on,,,,,4,0,3,,,,,2,,,67,127
77472,note_on,,,,,4,0,1,,,,,0,,,67,92
77504,note_off,,,,,320,0,4,,,,,3,,,71,0
77504,note_off,,,,,320,0,6,,,,,5,,,55,0
77504,note_off,,,,,320,0,5,,,,,4,,,62,0
77504,note_off,,,,,320,0,2,,,,,1,,,71,0
77504,note_off,,,,,320,0,7,,,,,6,,,43,0
77564,note_off,,,,,92,0,1,,,,,0,,,67,0
77564,note_off,,,,,92,0,3,,,,,2,,,67,0
77568,note_on,,,,,4,0,1,,,,,0,,,74,92
77568,note_on,,,,,4,0,3,,,,,2,,,74,127
77660,note_off,,,,,92,0,3,,,,,2,,,74,0
77660,note_off,,,,,92,0,1,,,,,0,,,74,0
77664,note_on,,,,,4,0,1,,,,,0,,,71,92
77664,note_on,,,,,4,0,3,,,,,2,,,71,127
77756,note_off,,,,,92,0,3,,,,,2,,,71,0
77756,note_off,,,,,92,0,1,,,,,0,,,71,0
77760,note_on,,,,,4,0,3,,,,,2,,,79,127
77760,note_on,,,,,256,0,4,,,,,3,,,59,127
77760,note_on,,,,,256,0,2,,,,,1,,,59,92
77760,note_on,,,,,4,0,1,,,,,0,,,79,92
77852,note_off,,,,,92,0,4,,,,,3,,,59,0
77852,note_off,,,,,92,0,2,,,,,1,,,59,0
77856,note_on,,,,,4,0,4,,,,,3,,,55,127
77856,note_on,,,,,4,0,2,,,,,1,,,55,92
77948,note_off,,,,,92,0,2,,,,,1,,,55,0
77948,note_off,,,,,92,0,4,,,,,3,,,55,0
77952,note_on,,,,,4,0,2,,,,,1,,,62,92
77952,note_on,,,,,4,0,4,,,,,3,,,62,127
78044,note_off,,,,,92,0,2,,,,,1,,,62,0
78044,note_off,,,,,92,0,4,,,,,3,,,62,0
78048,note_on,,,,,4,0,2,,,,,1,,,59,92
78048,note_on,,,,,4,0,4,,,,,3,,,59,127
78080,note_off,,,,,320,0,3,,,,,2,,,79,0
78080,note_off,,,,,320,0,1,,,,,0,,,79,0
78140,note_off,,,,,92,0,4,,,,,3,,,59,0
78140,note_off,,,,,92,0,2,,,,,1,,,59,0
78144,note_on,,,,,4,0,4,,,,,3,,,67,127
78144,note_on,,,,,4,0,2,,,,,1,,,67,92
78236,note_off,,,,,92,0,4,,,,,3,,,67,0
78236,note_off,,,,,92,0,2,,,,,1,,,67,0
78240,note_on,,,,,4,0,4,,,,,3,,,62,127
78240,note_on,,,,,4,0,2,,,,,1,,,62,92
78332,note_off,,,,,92,0,4,,,,,3,,,62,0
78332,note_off,,,,,92,0,2,,,,,1,,,62,0
78336,note_on,,,,,256,0,3,,,,,2,,,86,127
78336,note_on,,,,,832,0,6,,,,,5,,,55,92
78336,note_on,,,,,832,0,5,,,,,4,,,67,92
78336,note_on,,,,,832,0,7,,,,,6,,,43,75
78336,note_on,,,,,4,0,2,,,,,1,,,71,92
78336,note_on,,,,,256,0,1,,,,,0,,,86,92
78336,note_on,,,,,4,0,4,,,,,3,,,71,127
78524,note_off,,,,,188,0,7,,,,,6,,,43,0
78524,note_off,,,,,188,0,5,,,,,4,,,67,0
78524,note_off,,,,,188,0,2,,,,,1,,,71,0
78524,note_off,,,,,188,0,3,,,,,2,,,86,0
78524,note_off,,,,,188,0,1,,,,,0,,,86,0
78524,note_off,,,,,188,0,6,,,,,5,,,55,0
78524,note_off,,,,,188,0,4,,,,,3,,,71,0
78528,note_on,,,,,4,0,7,,,,,6,,,36,75
78528,note_on,,,,,4,0,5,,,,,4,,,67,92
78528,note_on,,,,,4,0,2,,,,,1,,,76,92
78528,note_on,,,,,4,0,1,,,,,0,,,84,92
78528,note_on,,,,,4,0,6,,,,,5,,,48,92
78528,note_on,,,,,4,0,3,,,,,2,,,84,127
78528,note_on,,,,,4,0,4,,,,,3,,,76,127
78620,note_off,,,,,92,0,1,,,,,0,,,84,0
78620,note_off,,,,,92,0,2,,,,,1,,,76,0
78620,note_off,,,,,92,0,3,,,,,2,,,84,0
78620,note_off,,,,,92,0,4,,,,,3,,,76,0
78624,note_on,,,,,4,0,1,,,,,0,,,83,92
78624,note_on,,,,,4,0,4,,,,,3,,,74,127
78624,note_on,,,,,4,0,2,,,,,1,,,74,92
78624,note_on,,,,,4,0,3,,,,,2,,,83,127
78716,note_off,,,,,188,0,5,,,,,4,,,67,0
78716,note_off,,,,,92,0,1,,,,,0,,,83,0
78716,note_off,,,,,188,0,6,,,,,5,,,48,0
78716,note_off,,,,,92,0,4,,,,,3,,,74,0
78716,note_off,,,,,92,0,3,,,,,2,,,83,0
78716,note_off,,,,,92,0,2,,,,,1,,,74,0
78716,note_off,,,,,188,0,7,,,,,6,,,36,0
78720,note_on,,,,,4,0,2,,,,,1,,,72,92
78720,note_on,,,,,0,0,8,,,,,7,,,52,60
78720,note_on,,,,,2500,0,8,,,,,7,,,48,60
78720,note_on,,,,,4,0,1,,,,,0,,,81,92
78720,note_on,,,,,4,0,5,,,,,4,,,69,92
78720,note_on,,,,,4,0,7,,,,,6,,,48,75
78720,note_on,,,,,4,0,4,,,,,3,,,72,127
78720,note_on,,,,,4,0,6,,,,,5,,,60,92
78720,note_on,,,,,4,0,3,,,,,2,,,81,127
78812,note_off,,,,,92,0,3,,,,,2,,,81,0
78812,note_off,,,,,92,0,4,,,,,3,,,72,0
78812,note_off,,,,,0,0,8,,,,,7,,,52,0
78812,note_off,,,,,92,0,1,,,,,0,,,81,0
78812,note_off,,,,,92,0,2,,,,,1,,,72,0
78812,note_off,,,,,92,0,8,,,,,7,,,48,0
78816,note_on,,,,,4,0,3,,,,,2,,,79,127
78816,note_on,,,,,4,0,4,,,,,3,,,71,127
78816,note_on,,,,,4,0,2,,,,,1,,,71,92
78816,note_on,,,,,4,0,1,,,,,0,,,79,92
78816,note_on,,,,,4,0,8,,,,,7,,,57,60
78908,note_off,,,,,188,0,6,,,,,5,,,60,0
78908,note_off,,,,,92,0,8,,,,,7,,,57,0
78908,note_off,,,,,92,0,4,,,,,3,,,71,0
78908,note_off,,,,,188,0,7,,,,,6,,,48,0
78908,note_off,,,,,92,0,3,,,,,2,,,79,0
78908,note_off,,,,,92,0,1,,,,,0,,,79,0
78908,note_off,,,,,92,0,2,,,,,1,,,71,0
78908,note_off,,,,,188,0,5,,,,,4,,,69,0
78912,note_on,,,,,4,0,4,,,,,3,,,69,127
78912,note_on,,,,,4,0,6,,,,,5,,,62,92
78912,note_on,,,,,4,0,1,,,,,0,,,78,92
78912,note_on,,,,,4,0,7,,,,,6,,,50,75
78912,note_on,,,,,4,0,3,,,,,2,,,78,127
78912,note_on,,,,,4,0,5,,,,,4,,,69,92
78912,note_on,,,,,4,0,2,,,,,1,,,69,92
79004,note_off,,,,,92,0,3,,,,,2,,,78,0
79004,note_off,,,,,92,0,1,,,,,0,,,78,0
79008,note_on,,,,,4,0,3,,,,,2,,,76,127
79008,note_on,,,,,4,0,1,,,,,0,,,76,92
79100,note_off,,,,,188,0,5,,,,,4,,,69,0
79100,note_off,,,,,188,0,7,,,,,6,,,50,0
79100,note_off,,,,,188,0,2,,,,,1,,,69,0
79100,note_off,,,,,92,0,3,,,,,2,,,76,0
79100,note_off,,,,,188,0,4,,,,,3,,,69,0
79100,note_off,,,,,92,0,1,,,,,0,,,76,0
79100,note_off,,,,,188,0,6,,,,,5,,,62,0
79104,note_on,,,,,4,0,4,,,,,3,,,81,127
79104,note_on,,,,,4,0,3,,,,,2,,,74,127
79104,note_on,,,,,4,0,5,,,,,4,,,62,92
79104,note_on,,,,,4,0,2,,,,,1,,,81,92
79104,note_on,,,,,196,0,8,,,,,7,,,42,60
79104,note_on,,,,,0,0,8,,,,,7,,,45,60
79104,note_on,,,,,4,0,1,,,,,0,,,74,92
79104,note_on,,,,,4,0,6,,,,,5,,,54,92
79104,note_on,,,,,4,0,7,,,,,6,,,42,75
79196,note_off,,,,,92,0,3,,,,,2,,,74,0
79196,note_off,,,,,92,0,1,,,,,0,,,74,0
79196,note_off,,,,,92,0,8,,,,,7,,,42,0
79196,note_off,,,,,0,0,8,,,,,7,,,45,0
79200,note_on,,,,,4,0,3,,,,,2,,,84,127
79200,note_on,,,,,4,0,8,,,,,7,,,50,60
79200,note_on,,,,,4,0,1,,,,,0,,,84,92
79292,note_off,,,,,188,0,2,,,,,1,,,81,0
79292,note_off,,,,,188,0,4,,,,,3,,,81,0
79292,note_off,,,,,188,0,5,,,,,4,,,62,0
79292,note_off,,,,,92,0,8,,,,,7,,,50,0
79292,note_off,,,,,92,0,3,,,,,2,,,84,0
79292,note_off,,,,,188,0,7,,,,,6,,,42,0
79292,note_off,,,,,92,0,1,,,,,0,,,84,0
79292,note_off,,,,,188,0,6,,,,,5,,,54,0
79296,note_on,,,,,4,0,1,,,,,0,,,83,92
79296,note_on,,,,,4,0,6,,,,,5,,,55,92
79296,note_on,,,,,4,0,4,,,,,3,,,74,127
79296,note_on,,,,,4,0,2,,,,,1,,,74,92
79296,note_on,,,,,4,0,7,,,,,6,,,43,75
79296,note_on,,,,,4,0,5,,,,,4,,,62,92
79296,note_on,,,,,4,0,3,,,,,2,,,83,127
79484,note_off,,,,,188,0,4,,,,,3,,,74,0
79484,note_off,,,,,188,0,6,,,,,5,,,55,0
79484,note_off,,,,,188,0,7,,,,,6,,,43,0
79484,note_off,,,,,188,0,1,,,,,0,,,83,0
79484,note_off,,,,,188,0,2,,,,,1,,,74,0
79484,note_off,,,,,188,0,5,,,,,4,,,62,0
79484,note_off,,,,,188,0,3,,,,,2,,,83,0
79488,note_on,,,,,0,0,8,,,,,7,,,52,60
79488,note_on,,,,,4,0,1,,,,,0,,,84,92
79488,note_on,,,,,4,0,2,,,,,1,,,76,92
79488,note_on,,,,,4,0,6,,,,,5,,,60,92
79488,note_on,,,,,4,0,4,,,,,3,,,76,127
79488,note_on,,,,,4,0,3,,,,,2,,,84,127
79488,note_on,,,,,4,0,5,,,,,4,,,69,92
79488,note_on,,,,,4,0,7,,,,,6,,,48,75
79488,note_on,,,,,196,0,8,,,,,7,,,48,60
79580,note_off,,,,,92,0,1,,,,,0,,,84,0
79580,note_off,,,,,92,0,3,,,,,2,,,84,0
79580,note_off,,,,,92,0,8,,,,,7,,,48,0
79580,note_off,,,,,0,0,8,,,,,7,,,52,0
79584,note_on,,,,,4,0,8,,,,,7,,,57,60
79584,note_on,,,,,4,0,1,,,,,0,,,81,92
79584,note_on,,,,,4,0,3,,,,,2,,,81,127
79676,note_off,,,,,188,0,7,,,,,6,,,48,0
79676,note_off,,,,,188,0,6,,,,,5,,,60,0
79676,note_off,,,,,92,0,8,,,,,7,,,57,0
79676,note_off,,,,,188,0,2,,,,,1,,,76,0
79676,note_off,,,,,92,0,1,,,,,0,,,81,0
79676,note_off,,,,,188,0,4,,,,,3,,,76,0
79676,note_off,,,,,188,0,5,,,,,4,,,69,0
79676,note_off,,,,,92,0,3,,,,,2,,,81,0
79680,note_on,,,,,4,0,4,,,,,3,,,74,127
79680,note_on,,,,,4,0,2,,,,,1,,,74,92
79680,note_on,,,,,4,0,1,,,,,0,,,83,92
79680,note_on,,,,,4,0,8,,,,,7,,,50,60
79680,note_on,,,,,0,0,8,,,,,7,,,55,60
79680,note_on,,,,,4,0,5,,,,,4,,,62,92
79680,note_on,,,,,4,0,6,,,,,5,,,62,92
79680,note_on,,,,,4,0,7,,,,,6,,,50,75
79680,note_on,,,,,4,0,3,,,,,2,,,83,127
79772,note_off,,,,,92,0,8,,,,,7,,,50,0
79772,note_off,,,,,0,0,8,,,,,7,,,55,0
79772,note_off,,,,,92,0,1,,,,,0,,,83,0
79772,note_off,,,,,92,0,2,,,,,1,,,74,0
79772,note_off,,,,,92,0,4,,,,,3,,,74,0
79772,note_off,,,,,92,0,3,,,,,2,,,83,0
79776,note_on,,,,,4,0,8,,,,,7,,,57,60
79776,note_on,,,,,4,0,2,,,,,1,,,71,92
79776,note_on,,,,,4,0,4,,,,,3,,,71,127
79776,note_on,,,,,4,0,1,,,,,0,,,79,92
79776,note_on,,,,,4,0,3,,,,,2,,,79,127
79868,note_off,,,,,92,0,3,,,,,2,,,79,0
79868,note_off,,,,,188,0,5,,,,,4,,,62,0
79868,note_off,,,,,92,0,1,,,,,0,,,79,0
79868,note_off,,,,,92,0,8,,,,,7,,,57,0
79868,note_off,,,,,92,0,2,,,,,1,,,71,0
79868,note_off,,,,,188,0,7,,,,,6,,,50,0
79868,note_off,,,,,92,0,4,,,,,3,,,71,0
79868,note_off,,,,,188,0,6,,,,,5,,,62,0
79872,note_on,,,,,4,0,1,,,,,0,,,81,92
79872,note_on,,,,,4,0,2,,,,,1,,,72,92
79872,note_on,,,,,4,0,6,,,,,5,,,50,92
79872,note_on,,,,,0,0,8,,,,,7,,,54,60
79872,note_on,,,,,4,0,8,,,,,7,,,50,60
79872,note_on,,,,,4,0,4,,,,,3,,,72,127
79872,note_on,,,,,4,0,3,,,,,2,,,81,127
79872,note_on,,,,,4,0,5,,,,,4,,,62,92
79872,note_on,,,,,4,0,7,,,,,6,,,38,75
79964,note_off,,,,,0,0,8,,,,,7,,,54,0
79964,note_off,,,,,92,0,8,,,,,7,,,50,0
79964,note_off,,,,,92,0,2,,,,,1,,,72,0
79964,note_off,,,,,92,0,1,,,,,0,,,81,0
79964,note_off,,,,,92,0,4,,,,,3,,,72,0
79964,note_off,,,,,92,0,3,,,,,2,,,81,0
79968,note_on,,,,,4,0,1,,,,,0,,,78,92
79968,note_on,,,,,4,0,3,,,,,2,,,78,127
79968,note_on,,,,,4,0,2,,,,,1,,,69,92
79968,note_on,,,,,4,0,8,,,,,7,,,57,60
79968,note_on,,,,,4,0,4,,,,,3,,,69,127
80060,note_off,,,,,92,0,2,,,,,1,,,69,0
80060,note_off,,,,,92,0,3,,,,,2,,,78,0
80060,note_off,,,,,188,0,6,,,,,5,,,50,0
80060,note_off,,,,,92,0,8,,,,,7,,,57,0
80060,note_off,,,,,92,0,4,,,,,3,,,69,0
80060,note_off,,,,,92,0,1,,,,,0,,,78,0
80060,note_off,,,,,188,0,5,,,,,4,,,62,0
80060,note_off,,,,,188,0,7,,,,,6,,,38,0
80064,note_on,,,,,4,0,4,,,,,3,,,71,127
80064,note_on,,,,,4,0,3,,,,,2,,,79,127
80064,note_on,,,,,4,0,5,,,,,4,,,62,92
80064,note_on,,,,,4,0,7,,,,,6,,,43,75
80064,note_on,,,,,4,0,1,,,,,0,,,79,92
80064,note_on,,,,,4,0,6,,,,,5,,,55,92
80064,note_on,,,,,4,0,2,,,,,1,,,71,92
80156,note_off,,,,,92,0,4,,,,,3,,,71,0
80156,note_off,,,,,92,0,3,,,,,2,,,79,0
80156,note_off,,,,,92,0,1,,,,,0,,,79,0
80156,note_off,,,,,92,0,2,,,,,1,,,71,0
80160,note_on,,,,,4,0,3,,,,,2,,,71,127
80160,note_on,,,,,4,0,2,,,,,1,,,67,92
80160,note_on,,,,,4,0,1,,,,,0,,,71,92
80160,note_on,,,,,4,0,4,,,,,3,,,67,127
80252,note_off,,,,,92,0,4,,,,,3,,,67,0
80252,note_off,,,,,92,0,1,,,,,0,,,71,0
80252,note_off,,,,,92,0,3,,,,,2,,,71,0
80252,note_off,,,,,92,0,2,,,,,1,,,67,0
80256,note_on,,,,,4,0,2,,,,,1,,,69,92
80256,note_on,,,,,4,0,4,,,,,3,,,69,127
80256,note_on,,,,,4,0,1,,,,,0,,,72,92
80256,note_on,,,,,4,0,3,,,,,2,,,72,127
80348,note_off,,,,,92,0,2,,,,,1,,,69,0
80348,note_off,,,,,92,0,4,,,,,3,,,69,0
80348,note_off,,,,,92,0,3,,,,,2,,,72,0
80348,note_off,,,,,92,0,1,,,,,0,,,72,0
80352,note_on,,,,,4,0,4,,,,,3,,,71,127
80352,note_on,,,,,4,0,2,,,,,1,,,71,92
80352,note_on,,,,,4,0,1,,,,,0,,,74,92
80352,note_on,,,,,4,0,3,,,,,2,,,74,127
80384,note_off,,,,,320,0,7,,,,,6,,,43,0
80384,note_off,,,,,320,0,6,,,,,5,,,55,0
80384,note_off,,,,,320,0,5,,,,,4,,,62,0
80444,note_off,,,,,92,0,3,,,,,2,,,74,0
80444,note_off,,,,,92,0,2,,,,,1,,,71,0
80444,note_off,,,,,92,0,4,,,,,3,,,71,0
80444,note_off,,,,,92,0,1,,,,,0,,,74,0
80448,note_on,,,,,4,0,3,,,,,2,,,76,127
80448,note_on,,,,,4,0,4,,,,,3,,,72,127
80448,note_on,,,,,4,0,1,,,,,0,,,76,92
80448,note_on,,,,,4,0,2,,,,,1,,,72,92
80540,note_off,,,,,92,0,4,,,,,3,,,72,0
80540,note_off,,,,,92,0,3,,,,,2,,,76,0
80540,note_off,,,,,92,0,1,,,,,0,,,76,0
80540,note_off,,,,,92,0,2,,,,,1,,,72,0
80544,note_on,,,,,4,0,3,,,,,2,,,78,127
80544,note_on,,,,,4,0,4,,,,,3,,,69,127
80544,note_on,,,,,4,0,2,,,,,1,,,69,92
80544,note_on,,,,,4,0,1,,,,,0,,,78,92
80636,note_off,,,,,92,0,3,,,,,2,,,78,0
80636,note_off,,,,,92,0,1,,,,,0,,,78,0
80636,note_off,,,,,92,0,2,,,,,1,,,69,0
80636,note_off,,,,,92,0,4,,,,,3,,,69,0
80640,note_on,,,,,4,0,1,,,,,0,,,79,92
80640,note_on,,,,,4,0,3,,,,,2,,,79,127
80640,note_on,,,,,4,0,2,,,,,1,,,71,92
80640,note_on,,,,,256,0,5,,,,,4,,,62,92
80640,note_on,,,,,256,0,6,,,,,5,,,43,92
80640,note_on,,,,,4,0,4,,,,,3,,,71,127
80640,note_on,,,,,256,0,7,,,,,6,,,31,75
80828,note_off,,,,,188,0,4,,,,,3,,,71,0
80828,note_off,,,,,188,0,2,,,,,1,,,71,0
80828,note_off,,,,,188,0,5,,,,,4,,,62,0
80828,note_off,,,,,188,0,7,,,,,6,,,31,0
80828,note_off,,,,,188,0,1,,,,,0,,,79,0
80828,note_off,,,,,188,0,6,,,,,5,,,43,0
80828,note_off,,,,,188,0,3,,,,,2,,,79,0
80832,note_on,,,,,4,0,1,,,,,0,,,78,92
80832,note_on,,,,,0,0,8,,,,,7,,,48,60
80832,note_on,,,,,772,0,8,,,,,7,,,45,60
80832,note_on,,,,,4,0,4,,,,,3,,,69,127
80832,note_on,,,,,4,0,3,,,,,2,,,78,127
80832,note_on,,,,,4,0,6,,,,,5,,,45,92
80832,note_on,,,,,4,0,2,,,,,1,,,69,92
80832,note_on,,,,,4,0,7,,,,,6,,,33,75
80832,note_on,,,,,4,0,5,,,,,4,,,60,92
80924,note_off,,,,,92,0,2,,,,,1,,,69,0
80924,note_off,,,,,92,0,4,,,,,3,,,69,0
80924,note_off,,,,,92,0,1,,,,,0,,,78,0
80924,note_off,,,,,92,0,8,,,,,7,,,45,0
80924,note_off,,,,,0,0,8,,,,,7,,,48,0
80924,note_off,,,,,92,0,3,,,,,2,,,78,0
80928,note_on,,,,,4,0,3,,,,,2,,,76,127
80928,note_on,,,,,4,0,4,,,,,3,,,67,127
80928,note_on,,,,,4,0,1,,,,,0,,,76,92
80928,note_on,,,,,4,0,8,,,,,7,,,54,60
80928,note_on,,,,,4,0,2,,,,,1,,,67,92
81020,note_off,,,,,188,0,6,,,,,5,,,45,0
81020,note_off,,,,,92,0,8,,,,,7,,,54,0
81020,note_off,,,,,188,0,5,,,,,4,,,60,0
81020,note_off,,,,,92,0,1,,,,,0,,,76,0
81020,note_off,,,,,188,0,7,,,,,6,,,33,0
81020,note_off,,,,,92,0,4,,,,,3,,,67,0
81020,note_off,,,,,92,0,3,,,,,2,,,76,0
81020,note_off,,,,,92,0,2,,,,,1,,,67,0
81024,note_on,,,,,4,0,6,,,,,5,,,57,92
81024,note_on,,,,,4,0,5,,,,,4,,,69,92
81024,note_on,,,,,4,0,4,,,,,3,,,66,127
81024,note_on,,,,,4,0,1,,,,,0,,,74,92
81024,note_on,,,,,4,0,3,,,,,2,,,74,127
81024,note_on,,,,,4,0,2,,,,,1,,,66,92
81024,note_on,,,,,4,0,7,,,,,6,,,45,75
81116,note_off,,,,,92,0,4,,,,,3,,,66,0
81116,note_off,,,,,92,0,3,,,,,2,,,74,0
81116,note_off,,,,,92,0,2,,,,,1,,,66,0
81116,note_off,,,,,92,0,1,,,,,0,,,74,0
81120,note_on,,,,,4,0,2,,,,,1,,,69,92
81120,note_on,,,,,4,0,1,,,,,0,,,72,92
81120,note_on,,,,,4,0,4,,,,,3,,,69,127
81120,note_on,,,,,4,0,3,,,,,2,,,72,127
81212,note_off,,,,,188,0,7,,,,,6,,,45,0
81212,note_off,,,,,188,0,6,,,,,5,,,57,0
81212,note_off,,,,,92,0,1,,,,,0,,,72,0
81212,note_off,,,,,188,0,5,,,,,4,,,69,0
81212,note_off,,,,,92,0,3,,,,,2,,,72,0
81212,note_off,,,,,92,0,4,,,,,3,,,69,0
81212,note_off,,,,,92,0,2,,,,,1,,,69,0
81216,note_on,,,,,4,0,4,,,,,3,,,67,127
81216,note_on,,,,,4,0,3,,,,,2,,,71,127
81216,note_on,,,,,4,0,5,,,,,4,,,62,92
81216,note_on,,,,,4,0,7,,,,,6,,,47,75
81216,note_on,,,,,4,0,2,,,,,1,,,67,92
81216,note_on,,,,,0,0,8,,,,,7,,,50,60
81216,note_on,,,,,196,0,8,,,,,7,,,47,60
81216,note_on,,,,,4,0,1,,,,,0,,,71,92
81216,note_on,,,,,4,0,6,,,,,5,,,59,92
81308,note_off,,,,,92,0,3,,,,,2,,,71,0
81308,note_off,,,,,92,0,8,,,,,7,,,47,0
81308,note_off,,,,,0,0,8,,,,,7,,,50,0
81308,note_off,,,,,92,0,2,,,,,1,,,67,0
81308,note_off,,,,,92,0,1,,,,,0,,,71,0
81308,note_off,,,,,92,0,4,,,,,3,,,67,0
81312,note_on,,,,,4,0,2,,,,,1,,,62,92
81312,note_on,,,,,4,0,1,,,,,0,,,67,92
81312,note_on,,,,,4,0,3,,,,,2,,,67,127
81312,note_on,,,,,4,0,4,,,,,3,,,62,127
81312,note_on,,,,,4,0,8,,,,,7,,,55,60
81404,note_off,,,,,188,0,7,,,,,6,,,47,0
81404,note_off,,,,,92,0,4,,,,,3,,,62,0
81404,note_off,,,,,92,0,1,,,,,0,,,67,0
81404,note_off,,,,,92,0,2,,,,,1,,,62,0
81404,note_off,,,,,188,0,6,,,,,5,,,59,0
81404,note_off,,,,,92,0,3,,,,,2,,,67,0
81404,note_off,,,,,92,0,8,,,,,7,,,55,0
81404,note_off,,,,,188,0,5,,,,,4,,,62,0
81408,note_on,,,,,4,0,5,,,,,4,,,60,92
81408,note_on,,,,,4,0,2,,,,,1,,,64,92
81408,note_on,,,,,4,0,7,,,,,6,,,45,75
81408,note_on,,,,,4,0,8,,,,,7,,,45,60
81408,note_on,,,,,4,0,1,,,,,0,,,72,92
81408,note_on,,,,,4,0,6,,,,,5,,,57,92
81408,note_on,,,,,4,0,4,,,,,3,,,64,127
81408,note_on,,,,,0,0,8,,,,,7,,,48,60
81408,note_on,,,,,4,0,3,,,,,2,,,72,127
81500,note_off,,,,,92,0,2,,,,,1,,,64,0
81500,note_off,,,,,92,0,1,,,,,0,,,72,0
81500,note_off,,,,,92,0,8,,,,,7,,,45,0
81500,note_off,,,,,92,0,4,,,,,3,,,64,0
81500,note_off,,,,,92,0,3,,,,,2,,,72,0
81500,note_off,,,,,0,0,8,,,,,7,,,48,0
81504,note_on,,,,,4,0,8,,,,,7,,,54,60
81504,note_on,,,,,4,0,1,,,,,0,,,69,92
81504,note_on,,,,,4,0,2,,,,,1,,,66,92
81504,note_on,,,,,4,0,3,,,,,2,,,69,127
81504,note_on,,,,,4,0,4,,,,,3,,,66,127
81596,note_off,,,,,92,0,4,,,,,3,,,66,0
81596,note_off,,,,,188,0,6,,,,,5,,,57,0
81596,note_off,,,,,188,0,5,,,,,4,,,60,0
81596,note_off,,,,,92,0,8,,,,,7,,,54,0
81596,note_off,,,,,92,0,1,,,,,0,,,69,0
81596,note_off,,,,,92,0,3,,,,,2,,,69,0
81596,note_off,,,,,92,0,2,,,,,1,,,66,0
81596,note_off,,,,,188,0,7,,,,,6,,,45,0
81600,note_on,,,,,4,0,7,,,,,6,,,43,75
81600,note_on,,,,,4,0,4,,,,,3,,,67,127
81600,note_on,,,,,4,0,3,,,,,2,,,71,127
81600,note_on,,,,,4,0,2,,,,,1,,,67,92
81600,note_on,,,,,4,0,5,,,,,4,,,62,92
81600,note_on,,,,,4,0,6,,,,,5,,,55,92
81600,note_on,,,,,4,0,1,,,,,0,,,71,92
81692,note_off,,,,,92,0,4,,,,,3,,,67,0
81692,note_off,,,,,92,0,2,,,,,1,,,67,0
81696,note_on,,,,,4,0,2,,,,,1,,,62,92
81696,note_on,,,,,4,0,4,,,,,3,,,62,127
81788,note_off,,,,,188,0,5,,,,,4,,,62,0
81788,note_off,,,,,92,0,4,,,,,3,,,62,0
81788,note_off,,,,,188,0,6,,,,,5,,,55,0
81788,note_off,,,,,188,0,1,,,,,0,,,71,0
81788,note_off,,,,,188,0,7,,,,,6,,,43,0
81788,note_off,,,,,188,0,3,,,,,2,,,71,0
81788,note_off,,,,,92,0,2,,,,,1,,,62,0
81792,note_on,,,,,4,0,6,,,,,5,,,48,92
81792,note_on,,,,,4,0,3,,,,,2,,,69,127
81792,note_on,,,,,4,0,1,,,,,0,,,69,92
81792,note_on,,,,,4,0,7,,,,,6,,,36,75
81792,set_tempo,,,,,26496,1,0,,666666,,,,,,,
81792,note_on,,,,,4,0,5,,,,,4,,,64,92
81792,note_on,,,,,4,0,2,,,,,1,,,60,92
81792,note_on,,,,,4,0,4,,,,,3,,,60,127
81884,note_off,,,,,92,0,3,,,,,2,,,69,0
81884,note_off,,,,,92,0,2,,,,,1,,,60,0
81884,note_off,,,,,92,0,1,,,,,0,,,69,0
81884,note_off,,,,,92,0,4,,,,,3,,,60,0
81888,note_on,,,,,4,0,3,,,,,2,,,67,127
81888,note_on,,,,,4,0,2,,,,,1,,,59,92
81888,note_on,,,,,4,0,4,,,,,3,,,59,127
81888,note_on,,,,,4,0,1,,,,,0,,,67,92
81980,note_off,,,,,92,0,3,,,,,2,,,67,0
81980,note_off,,,,,188,0,7,,,,,6,,,36,0
81980,note_off,,,,,92,0,4,,,,,3,,,59,0
81980,note_off,,,,,188,0,6,,,,,5,,,48,0
81980,note_off,,,,,92,0,1,,,,,0,,,67,0
81980,note_off,,,,,92,0,2,,,,,1,,,59,0
81980,note_off,,,,,188,0,5,,,,,4,,,64,0
81984,note_on,,,,,4,0,4,,,,,3,,,57,127
81984,note_on,,,,,4,0,2,,,,,1,,,57,92
81984,note_on,,,,,4,0,6,,,,,5,,,50,92
81984,note_on,,,,,4,0,1,,,,,0,,,66,92
81984,note_on,,,,,4,0,7,,,,,6,,,38,75
81984,note_on,,,,,4,0,5,,,,,4,,,62,92
81984,note_on,,,,,4,0,3,,,,,2,,,66,127
82172,note_off,,,,,188,0,5,,,,,4,,,62,0
82172,note_off,,,,,188,0,6,,,,,5,,,50,0
82172,note_off,,,,,188,0,4,,,,,3,,,57,0
82172,note_off,,,,,188,0,2,,,,,1,,,57,0
82172,note_off,,,,,188,0,7,,,,,6,,,38,0
82176,note_on,,,,,4,0,5,,,,,4,,,62,92
82176,note_on,,,,,4,0,2,,,,,1,,,62,92
82176,note_on,,,,,4,0,4,,,,,3,,,62,127
82176,note_on,,,,,4,0,6,,,,,5,,,38,92
82176,note_on,,,,,4,0,7,,,,,6,,,26,75
82268,note_off,,,,,284,0,1,,,,,0,,,66,0
82268,note_off,,,,,284,0,3,,,,,2,,,66,0
82272,note_on,,,,,4,0,3,,,,,2,,,67,127
82272,note_on,,,,,4,0,1,,,,,0,,,67,92
82364,note_off,,,,,92,0,3,,,,,2,,,67,0
82364,note_off,,,,,188,0,6,,,,,5,,,38,0
82364,note_off,,,,,188,0,7,,,,,6,,,26,0
82364,note_off,,,,,92,0,1,,,,,0,,,67,0
82364,note_off,,,,,188,0,5,,,,,4,,,62,0
82364,note_off,,,,,188,0,2,,,,,1,,,62,0
82364,note_off,,,,,188,0,4,,,,,3,,,62,0
82368,note_on,,,,,4,0,6,,,,,5,,,43,92
82368,note_on,,,,,4,0,3,,,,,2,,,67,127
82368,note_on,,,,,4,0,5,,,,,4,,,62,92
82368,note_on,,,,,4,0,1,,,,,0,,,67,92
82368,note_on,,,,,4,0,7,,,,,6,,,31,75
82368,note_on,,,,,4,0,2,,,,,1,,,59,92
82368,note_on,,,,,4,0,4,,,,,3,,,59,127
82880,note_off,,,,,512,0,7,,,,,6,,,31,0
82880,note_off,,,,,512,0,5,,,,,4,,,62,0
82880,note_off,,,,,512,0,1,,,,,0,,,67,0
82880,note_off,,,,,512,0,6,,,,,5,,,43,0
82880,note_off,,,,,512,0,3,,,,,2,,,67,0
82880,note_off,,,,,512,0,4,,,,,3,,,59,0
82880,note_off,,,,,512,0,2,,,,,1,,,59,0
82944,note_on,,,,,64,0,1,,,,,0,,,74,92
82944,note_on,,,,,64,0,5,,,,,4,,,69,92
82944,note_on,,,,,64,0,3,,,,,2,,,74,127
82944,note_on,,,,,64,0,4,,,,,3,,,66,127
82944,note_on,,,,,64,0,6,,,,,5,,,50,92
82944,set_tempo,,,,,1152,1,0,,571428,,,,,,,
82944,note_on,,,,,64,0,7,,,,,6,,,38,75
82944,note_on,,,,,64,0,2,,,,,1,,,66,92
83132,note_off,,,,,188,0,3,,,,,2,,,74,0
83132,note_off,,,,,188,0,6,,,,,5,,,50,0
83132,note_off,,,,,188,0,1,,,,,0,,,74,0
83132,note_off,,,,,188,0,7,,,,,6,,,38,0
83136,note_on,,,,,4,0,3,,,,,2,,,62,127
83136,note_on,,,,,4,0,6,,,,,5,,,62,92
83136,note_on,,,,,4,0,1,,,,,0,,,62,92
83136,note_on,,,,,4,0,7,,,,,6,,,50,75
83264,note_off,,,,,320,0,5,,,,,4,,,69,0
83264,note_off,,,,,320,0,4,,,,,3,,,66,0
83264,note_off,,,,,320,0,2,,,,,1,,,66,0
83324,note_off,,,,,188,0,1,,,,,0,,,62,0
83324,note_off,,,,,188,0,3,,,,,2,,,62,0
83324,note_off,,,,,188,0,7,,,,,6,,,50,0
83324,note_off,,,,,188,0,6,,,,,5,,,62,0
83328,note_on,,,,,4,0,6,,,,,5,,,61,92
83328,note_on,,,,,4,0,7,,,,,6,,,49,75
83328,note_on,,,,,4,0,1,,,,,0,,,62,92
83328,note_on,,,,,4,0,3,,,,,2,,,62,127
83516,note_off,,,,,188,0,3,,,,,2,,,62,0
83516,note_off,,,,,188,0,7,,,,,6,,,49,0
83516,note_off,,,,,188,0,1,,,,,0,,,62,0
83516,note_off,,,,,188,0,6,,,,,5,,,61,0
83520,note_on,,,,,256,0,5,,,,,4,,,62,92
83520,note_on,,,,,4,0,6,,,,,5,,,59,92
83520,note_on,,,,,4,0,1,,,,,0,,,71,92
83520,note_on,,,,,256,0,2,,,,,1,,,74,92
83520,note_on,,,,,256,0,4,,,,,3,,,74,127
83520,note_on,,,,,4,0,7,,,,,6,,,47,75
83520,note_on,,,,,4,0,3,,,,,2,,,62,127
83708,note_off,,,,,188,0,6,,,,,5,,,59,0
83708,note_off,,,,,188,0,7,,,,,6,,,47,0
83708,note_off,,,,,188,0,1,,,,,0,,,71,0
83708,note_off,,,,,188,0,2,,,,,1,,,74,0
83708,note_off,,,,,188,0,5,,,,,4,,,62,0
83708,note_off,,,,,188,0,3,,,,,2,,,62,0
83708,note_off,,,,,188,0,4,,,,,3,,,74,0
83712,note_on,,,,,4,0,1,,,,,0,,,69,92
83712,note_on,,,,,4,0,2,,,,,1,,,62,92
83712,note_on,,,,,4,0,7,,,,,6,,,45,75
83712,note_on,,,,,4,0,4,,,,,3,,,62,127
83712,note_on,,,,,4,0,5,,,,,4,,,61,92
83712,note_on,,,,,4,0,6,,,,,5,,,57,92
83900,note_off,,,,,188,0,6,,,,,5,,,57,0
83900,note_off,,,,,188,0,5,,,,,4,,,61,0
83900,note_off,,,,,188,0,2,,,,,1,,,62,0
83900,note_off,,,,,188,0,1,,,,,0,,,69,0
83900,note_off,,,,,188,0,7,,,,,6,,,45,0
83900,note_off,,,,,188,0,4,,,,,3,,,62,0
83904,note_on,,,,,4,0,6,,,,,5,,,55,92
83904,note_on,,,,,4,0,2,,,,,1,,,62,92
83904,note_on,,,,,4,0,7,,,,,6,,,43,75
83904,note_on,,,,,4,0,5,,,,,4,,,59,92
83904,note_on,,,,,4,0,4,,,,,3,,,62,127
84092,note_off,,,,,188,0,5,,,,,4,,,59,0
84092,note_off,,,,,188,0,7,,,,,6,,,43,0
84092,note_off,,,,,188,0,2,,,,,1,,,62,0
84092,note_off,,,,,188,0,6,,,,,5,,,55,0
84092,note_off,,,,,188,0,4,,,,,3,,,62,0
84096,note_on,,,,,4,0,2,,,,,1,,,62,92
84096,note_on,,,,,2500,0,8,,,,,7,,,42,60
84096,note_on,,,,,4,0,7,,,,,6,,,42,75
84096,note_on,,,,,196,0,1,,,,,0,,,74,92
84096,note_on,,,,,4,0,4,,,,,3,,,62,127
84096,note_on,,,,,4,0,6,,,,,5,,,54,92
84096,note_on,,,,,0,0,8,,,,,7,,,45,60
84096,note_on,,,,,4,0,5,,,,,4,,,57,92
84096,note_on,,,,,388,0,3,,,,,2,,,74,127
84188,note_off,,,,,0,0,8,,,,,7,,,45,0
84188,note_off,,,,,92,0,8,,,,,7,,,42,0
84192,note_on,,,,,4,0,8,,,,,7,,,50,60
84284,note_off,,,,,188,0,6,,,,,5,,,54,0
84284,note_off,,,,,188,0,7,,,,,6,,,42,0
84284,note_off,,,,,188,0,3,,,,,2,,,74,0
84284,note_off,,,,,92,0,8,,,,,7,,,50,0
84284,note_off,,,,,188,0,1,,,,,0,,,74,0
84288,note_on,,,,,4,0,1,,,,,0,,,62,92
84288,note_on,,,,,4,0,7,,,,,6,,,40,75
84288,note_on,,,,,4,0,3,,,,,2,,,62,127
84288,note_on,,,,,4,0,6,,,,,5,,,52,92
84416,note_off,,,,,320,0,4,,,,,3,,,62,0
84416,note_off,,,,,320,0,5,,,,,4,,,57,0
84416,note_off,,,,,320,0,2,,,,,1,,,62,0
84476,note_off,,,,,188,0,3,,,,,2,,,62,0
84476,note_off,,,,,188,0,1,,,,,0,,,62,0
84476,note_off,,,,,188,0,7,,,,,6,,,40,0
84476,note_off,,,,,188,0,6,,,,,5,,,52,0
84480,note_on,,,,,4,0,3,,,,,2,,,62,127
84480,note_on,,,,,4,0,7,,,,,6,,,38,75
84480,note_on,,,,,4,0,1,,,,,0,,,62,92
84480,note_on,,,,,4,0,6,,,,,5,,,50,92
84668,note_off,,,,,188,0,1,,,,,0,,,62,0
84668,note_off,,,,,188,0,6,,,,,5,,,50,0
84668,note_off,,,,,188,0,7,,,,,6,,,38,0
84668,note_off,,,,,188,0,3,,,,,2,,,62,0
84672,note_on,,,,,4,0,7,,,,,6,,,43,75
84672,note_on,,,,,4,0,3,,,,,2,,,71,127
84672,note_on,,,,,256,0,2,,,,,1,,,62,92
84672,note_on,,,,,256,0,5,,,,,4,,,59,92
84672,note_on,,,,,4,0,1,,,,,0,,,71,92
84672,note_on,,,,,4,0,6,,,,,5,,,55,92
84672,note_on,,,,,256,0,4,,,,,3,,,62,127
84860,note_off,,,,,188,0,1,,,,,0,,,71,0
84860,note_off,,,,,188,0,4,,,,,3,,,62,0
84860,note_off,,,,,188,0,6,,,,,5,,,55,0
84860,note_off,,,,,188,0,5,,,,,4,,,59,0
84860,note_off,,,,,188,0,2,,,,,1,,,62,0
84860,note_off,,,,,188,0,3,,,,,2,,,71,0
84860,note_off,,,,,188,0,7,,,,,6,,,43,0
84864,note_on,,,,,0,0,8,,,,,7,,,52,60
84864,note_on,,,,,580,0,8,,,,,7,,,49,60
84864,note_on,,,,,4,0,6,,,,,5,,,49,92
84864,note_on,,,,,4,0,3,,,,,2,,,69,127
84864,note_on,,,,,4,0,1,,,,,0,,,69,92
84864,note_on,,,,,4,0,5,,,,,4,,,61,92
84864,note_on,,,,,4,0,2,,,,,1,,,64,92
84864,note_on,,,,,4,0,4,,,,,3,,,64,127
84864,note_on,,,,,4,0,7,,,,,6,,,37,75
84956,note_off,,,,,0,0,8,,,,,7,,,52,0
84956,note_off,,,,,92,0,8,,,,,7,,,49,0
84960,note_on,,,,,4,0,8,,,,,7,,,57,60
85052,note_off,,,,,188,0,2,,,,,1,,,64,0
85052,note_off,,,,,188,0,1,,,,,0,,,69,0
85052,note_off,,,,,188,0,5,,,,,4,,,61,0
85052,note_off,,,,,188,0,3,,,,,2,,,69,0
85052,note_off,,,,,188,0,6,,,,,5,,,49,0
85052,note_off,,,,,188,0,4,,,,,3,,,64,0
85052,note_off,,,,,188,0,7,,,,,6,,,37,0
85052,note_off,,,,,92,0,8,,,,,7,,,57,0
85248,note_on,,,,,196,0,2,,,,,1,,,66,92
85248,note_on,,,,,196,0,6,,,,,5,,,50,92
85248,note_on,,,,,196,0,1,,,,,0,,,62,92
85248,note_on,,,,,196,0,5,,,,,4,,,57,92
85248,note_on,,,,,196,0,3,,,,,2,,,62,127
85248,note_on,,,,,196,0,4,,,,,3,,,66,127
85248,note_on,,,,,196,0,7,,,,,6,,,38,75
85340,note_off,,,,,92,0,1,,,,,0,,,62,0
85340,note_off,,,,,92,0,3,,,,,2,,,62,0
85344,note_on,,,,,4,0,1,,,,,0,,,64,92
85344,note_on,,,,,4,0,3,,,,,2,,,64,127
85436,note_off,,,,,188,0,7,,,,,6,,,38,0
85436,note_off,,,,,92,0,1,,,,,0,,,64,0
85436,note_off,,,,,188,0,6,,,,,5,,,50,0
85436,note_off,,,,,92,0,3,,,,,2,,,64,0
85440,note_on,,,,,4,0,1,,,,,0,,,66,92
85440,note_on,,,,,4,0,3,,,,,2,,,66,127
85440,note_on,,,,,4,0,7,,,,,6,,,37,75
85440,note_on,,,,,4,0,6,,,,,5,,,49,92
85532,note_off,,,,,284,0,4,,,,,3,,,66,0
85532,note_off,,,,,284,0,2,,,,,1,,,66,0
85532,note_off,,,,,92,0,1,,,,,0,,,66,0
85532,note_off,,,,,92,0,3,,,,,2,,,66,0
85536,note_on,,,,,4,0,2,,,,,1,,,64,92
85536,note_on,,,,,4,0,1,,,,,0,,,67,92
85536,note_on,,,,,4,0,4,,,,,3,,,64,127
85536,note_on,,,,,4,0,3,,,,,2,,,67,127
85568,note_off,,,,,320,0,5,,,,,4,,,57,0
85628,note_off,,,,,92,0,4,,,,,3,,,64,0
85628,note_off,,,,,188,0,6,,,,,5,,,49,0
85628,note_off,,,,,188,0,7,,,,,6,,,37,0
85628,note_off,,,,,92,0,1,,,,,0,,,67,0
85628,note_off,,,,,92,0,2,,,,,1,,,64,0
85628,note_off,,,,,92,0,3,,,,,2,,,67,0
85632,note_on,,,,,4,0,4,,,,,3,,,66,127
85632,note_on,,,,,4,0,1,,,,,0,,,69,92
85632,note_on,,,,,64,0,5,,,,,4,,,62,92
85632,note_on,,,,,4,0,6,,,,,5,,,47,92
85632,note_on,,,,,4,0,2,,,,,1,,,66,92
85632,note_on,,,,,4,0,3,,,,,2,,,69,127
85632,note_on,,,,,4,0,7,,,,,6,,,35,75
85724,note_off,,,,,92,0,2,,,,,1,,,66,0
85724,note_off,,,,,92,0,3,,,,,2,,,69,0
85724,note_off,,,,,92,0,1,,,,,0,,,69,0
85724,note_off,,,,,92,0,4,,,,,3,,,66,0
85728,note_on,,,,,4,0,1,,,,,0,,,71,92
85728,note_on,,,,,4,0,4,,,,,3,,,68,127
85728,note_on,,,,,4,0,2,,,,,1,,,68,92
85728,note_on,,,,,4,0,3,,,,,2,,,71,127
85820,note_off,,,,,188,0,5,,,,,4,,,62,0
85820,note_off,,,,,188,0,6,,,,,5,,,47,0
85820,note_off,,,,,92,0,3,,,,,2,,,71,0
85820,note_off,,,,,92,0,2,,,,,1,,,68,0
85820,note_off,,,,,92,0,1,,,,,0,,,71,0
85820,note_off,,,,,92,0,4,,,,,3,,,68,0
85820,note_off,,,,,188,0,7,,,,,6,,,35,0
85824,note_on,,,,,4,0,4,,,,,3,,,69,127
85824,note_on,,,,,4,0,6,,,,,5,,,45,92
85824,note_on,,,,,772,0,8,,,,,7,,,45,60
85824,note_on,,,,,4,0,1,,,,,0,,,73,92
85824,note_on,,,,,0,0,8,,,,,7,,,49,60
85824,note_on,,,,,4,0,5,,,,,4,,,64,92
85824,note_on,,,,,4,0,3,,,,,2,,,73,127
85824,note_on,,,,,4,0,7,,,,,6,,,33,75
85824,note_on,,,,,4,0,2,,,,,1,,,69,92
85916,note_off,,,,,92,0,4,,,,,3,,,69,0
85916,note_off,,,,,92,0,1,,,,,0,,,73,0
85916,note_off,,,,,92,0,2,,,,,1,,,69,0
85916,note_off,,,,,92,0,3,,,,,2,,,73,0
85916,note_off,,,,,92,0,8,,,,,7,,,45,0
85916,note_off,,,,,0,0,8,,,,,7,,,49,0
85920,note_on,,,,,4,0,1,,,,,0,,,74,92
85920,note_on,,,,,4,0,4,,,,,3,,,71,127
85920,note_on,,,,,4,0,2,,,,,1,,,71,92
85920,note_on,,,,,4,0,3,,,,,2,,,74,127
85920,note_on,,,,,4,0,8,,,,,7,,,52,60
86012,note_off,,,,,92,0,4,,,,,3,,,71,0
86012,note_off,,,,,92,0,3,,,,,2,,,74,0
86012,note_off,,,,,188,0,5,,,,,4,,,64,0
86012,note_off,,,,,92,0,1,,,,,0,,,74,0
86012,note_off,,,,,92,0,8,,,,,7,,,52,0
86012,note_off,,,,,188,0,7,,,,,6,,,33,0
86012,note_off,,,,,188,0,6,,,,,5,,,45,0
86012,note_off,,,,,92,0,2,,,,,1,,,71,0
86016,note_on,,,,,4,0,7,,,,,6,,,45,75
86016,note_on,,,,,4,0,4,,,,,3,,,73,127
86016,note_on,,,,,4,0,2,,,,,1,,,73,92
86016,note_on,,,,,4,0,5,,,,,4,,,64,92
86016,note_on,,,,,4,0,1,,,,,0,,,76,92
86016,note_on,,,,,4,0,3,,,,,2,,,76,127
86016,note_on,,,,,4,0,6,,,,,5,,,57,92
86108,note_off,,,,,92,0,2,,,,,1,,,73,0
86108,note_off,,,,,92,0,3,,,,,2,,,76,0
86108,note_off,,,,,92,0,4,,,,,3,,,73,0
86108,note_off,,,,,92,0,1,,,,,0,,,76,0
86112,note_on,,,,,4,0,3,,,,,2,,,78,127
86112,note_on,,,,,4,0,2,,,,,1,,,74,92
86112,note_on,,,,,4,0,1,,,,,0,,,78,92
86112,note_on,,,,,4,0,4,,,,,3,,,74,127
86204,note_off,,,,,92,0,4,,,,,3,,,74,0
86204,note_off,,,,,92,0,3,,,,,2,,,78,0
86204,note_off,,,,,188,0,6,,,,,5,,,57,0
86204,note_off,,,,,188,0,7,,,,,6,,,45,0
86204,note_off,,,,,92,0,1,,,,,0,,,78,0
86204,note_off,,,,,188,0,5,,,,,4,,,64,0
86204,note_off,,,,,92,0,2,,,,,1,,,74,0
86208,note_on,,,,,4,0,7,,,,,6,,,45,75
86208,note_on,,,,,4,0,3,,,,,2,,,79,127
86208,note_on,,,,,4,0,5,,,,,4,,,64,92
86208,note_on,,,,,4,0,2,,,,,1,,,76,92
86208,note_on,,,,,4,0,1,,,,,0,,,79,92
86208,note_on,,,,,4,0,6,,,,,5,,,57,92
86208,note_on,,,,,4,0,4,,,,,3,,,76,127
86300,note_off,,,,,92,0,4,,,,,3,,,76,0
86300,note_off,,,,,92,0,2,,,,,1,,,76,0
86300,note_off,,,,,92,0,3,,,,,2,,,79,0
86300,note_off,,,,,92,0,1,,,,,0,,,79,0
86304,note_on,,,,,4,0,2,,,,,1,,,78,92
86304,note_on,,,,,4,0,4,,,,,3,,,78,127
86304,note_on,,,,,4,0,1,,,,,0,,,81,92
86304,note_on,,,,,4,0,3,,,,,2,,,81,127
86396,note_off,,,,,92,0,1,,,,,0,,,81,0
86396,note_off,,,,,188,0,6,,,,,5,,,57,0
86396,note_off,,,,,188,0,5,,,,,4,,,64,0
86396,note_off,,,,,188,0,7,,,,,6,,,45,0
86396,note_off,,,,,92,0,3,,,,,2,,,81,0
86396,note_off,,,,,92,0,4,,,,,3,,,78,0
86396,note_off,,,,,92,0,2,,,,,1,,,78,0
86400,note_on,,,,,0,0,8,,,,,7,,,55,60
86400,note_on,,,,,388,0,8,,,,,7,,,49,60
86400,note_on,,,,,4,0,1,,,,,0,,,83,92
86400,note_on,,,,,4,0,4,,,,,3,,,79,127
86400,note_on,,,,,4,0,3,,,,,2,,,83,127
86400,note_on,,,,,4,0,2,,,,,1,,,79,92
86400,note_on,,,,,4,0,6,,,,,5,,,49,92
86400,note_on,,,,,4,0,5,,,,,4,,,64,92
86400,note_on,,,,,4,0,7,,,,,6,,,37,75
86492,note_off,,,,,92,0,8,,,,,7,,,49,0
86492,note_off,,,,,0,0,8,,,,,7,,,55,0
86496,note_on,,,,,4,0,8,,,,,7,,,57,60
86588,note_off,,,,,188,0,7,,,,,6,,,37,0
86588,note_off,,,,,188,0,2,,,,,1,,,79,0
86588,note_off,,,,,188,0,6,,,,,5,,,49,0
86588,note_off,,,,,92,0,8,,,,,7,,,57,0
86588,note_off,,,,,188,0,1,,,,,0,,,83,0
86588,note_off,,,,,188,0,5,,,,,4,,,64,0
86588,note_off,,,,,188,0,3,,,,,2,,,83,0
86588,note_off,,,,,188,0,4,,,,,3,,,79,0
86592,note_on,,,,,4,0,7,,,,,6,,,37,75
86592,note_on,,,,,4,0,4,,,,,3,,,76,127
86592,note_on,,,,,4,0,5,,,,,4,,,69,92
86592,note_on,,,,,4,0,3,,,,,2,,,79,127
86592,note_on,,,,,4,0,2,,,,,1,,,76,92
86592,note_on,,,,,4,0,6,,,,,5,,,49,92
86592,note_on,,,,,4,0,1,,,,,0,,,79,92
86780,note_off,,,,,188,0,6,,,,,5,,,49,0
86780,note_off,,,,,188,0,7,,,,,6,,,37,0
86780,note_off,,,,,188,0,1,,,,,0,,,79,0
86780,note_off,,,,,188,0,4,,,,,3,,,76,0
86780,note_off,,,,,188,0,3,,,,,2,,,79,0
86780,note_off,,,,,188,0,5,,,,,4,,,69,0
86780,note_off,,,,,188,0,2,,,,,1,,,76,0
86784,note_on,,,,,4,0,1,,,,,0,,,78,92
86784,note_on,,,,,4,0,4,,,,,3,,,74,127
86784,note_on,,,,,4,0,3,,,,,2,,,78,127
86784,note_on,,,,,4,0,5,,,,,4,,,69,92
86784,note_on,,,,,4,0,6,,,,,5,,,50,92
86784,note_on,,,,,4,0,2,,,,,1,,,74,92
86784,note_on,,,,,4,0,7,,,,,6,,,38,75
86972,note_off,,,,,188,0,5,,,,,4,,,69,0
86972,note_off,,,,,188,0,4,,,,,3,,,74,0
86972,note_off,,,,,188,0,3,,,,,2,,,78,0
86972,note_off,,,,,188,0,7,,,,,6,,,38,0
86972,note_off,,,,,188,0,6,,,,,5,,,50,0
86972,note_off,,,,,188,0,1,,,,,0,,,78,0
86972,note_off,,,,,188,0,2,,,,,1,,,74,0
86976,note_on,,,,,0,0,8,,,,,7,,,49,60
86976,note_on,,,,,4,0,4,,,,,3,,,74,127
86976,note_on,,,,,4,0,6,,,,,5,,,45,92
86976,note_on,,,,,4,0,5,,,,,4,,,69,92
86976,note_on,,,,,388,0,8,,,,,7,,,45,60
86976,note_on,,,,,4,0,2,,,,,1,,,74,92
86976,note_on,,,,,4,0,7,,,,,6,,,33,75
86976,note_on,,,,,4,0,3,,,,,2,,,78,127
86976,note_on,,,,,4,0,1,,,,,0,,,78,92
87024,note_on,,,,,0,0,2,,,,,1,,,73,92
87024,note_off,,,,,48,0,1,,,,,0,,,78,0
87024,note_on,,,,,0,0,1,,,,,0,,,76,92
87024,note_off,,,,,48,0,2,,,,,1,,,74,0
87024,note_off,,,,,48,0,3,,,,,2,,,78,0
87024,note_on,,,,,0,0,3,,,,,2,,,76,127
87024,note_off,,,,,48,0,4,,,,,3,,,74,0
87024,note_on,,,,,0,0,4,,,,,3,,,73,127
87068,note_off,,,,,92,0,8,,,,,7,,,45,0
87068,note_off,,,,,0,0,8,,,,,7,,,49,0
87072,note_off,,,,,48,0,1,,,,,0,,,76,0
87072,note_on,,,,,0,0,1,,,,,0,,,78,92
87072,note_on,,,,,4,0,8,,,,,7,,,52,60
87072,note_off,,,,,48,0,4,,,,,3,,,73,0
87072,note_on,,,,,0,0,4,,,,,3,,,74,127
87072,note_off,,,,,48,0,2,,,,,1,,,73,0
87072,note_on,,,,,0,0,2,,,,,1,,,74,92
87072,note_off,,,,,48,0,3,,,,,2,,,76,0
87072,note_on,,,,,0,0,3,,,,,2,,,78,127
87120,note_on,,,,,0,0,3,,,,,2,,,76,127
87120,note_off,,,,,48,0,4,,,,,3,,,74,0
87120,note_on,,,,,0,0,4,,,,,3,,,73,127
87120,note_off,,,,,48,0,2,,,,,1,,,74,0
87120,note_on,,,,,0,0,2,,,,,1,,,73,92
87120,note_off,,,,,48,0,3,,,,,2,,,78,0
87120,note_off,,,,,48,0,1,,,,,0,,,78,0
87120,note_on,,,,,0,0,1,,,,,0,,,76,92
87164,note_off,,,,,92,0,8,,,,,7,,,52,0
87168,note_on,,,,,0,0,3,,,,,2,,,78,127
87168,note_on,,,,,0,0,2,,,,,1,,,74,92
87168,note_on,,,,,0,0,4,,,,,3,,,74,127
87168,note_off,,,,,48,0,4,,,,,3,,,73,0
87168,note_off,,,,,48,0,1,,,,,0,,,76,0
87168,note_off,,,,,48,0,2,,,,,1,,,73,0
87168,note_on,,,,,0,0,1,,,,,0,,,78,92
87168,note_off,,,,,48,0,3,,,,,2,,,76,0
87216,note_off,,,,,48,0,1,,,,,0,,,78,0
87216,note_on,,,,,0,0,4,,,,,3,,,73,127
87216,note_off,,,,,48,0,4,,,,,3,,,74,0
87216,note_off,,,,,48,0,2,,,,,1,,,74,0
87216,note_on,,,,,0,0,3,,,,,2,,,76,127
87216,note_off,,,,,48,0,3,,,,,2,,,78,0
87216,note_on,,,,,0,0,1,,,,,0,,,76,92
87216,note_on,,,,,0,0,2,,,,,1,,,73,92
87296,note_off,,,,,320,0,7,,,,,6,,,33,0
87296,note_off,,,,,320,0,5,,,,,4,,,69,0
87296,note_off,,,,,320,0,6,,,,,5,,,45,0
87356,note_off,,,,,140,0,2,,,,,1,,,73,0
87356,note_off,,,,,140,0,1,,,,,0,,,76,0
87356,note_off,,,,,140,0,4,,,,,3,,,73,0
87356,note_off,,,,,140,0,3,,,,,2,,,76,0
87552,note_on,,,,,196,0,1,,,,,0,,,76,60
87552,note_on,,,,,196,0,2,,,,,1,,,73,60
87740,note_off,,,,,188,0,1,,,,,0,,,76,0
87740,note_off,,,,,188,0,2,,,,,1,,,73,0
87744,note_on,,,,,4,0,1,,,,,0,,,78,60
87744,note_on,,,,,4,0,2,,,,,1,,,74,60
87932,note_off,,,,,188,0,1,,,,,0,,,78,0
87932,note_off,,,,,188,0,2,,,,,1,,,74,0
87936,note_on,,,,,4,0,1,,,,,0,,,79,60
87936,note_on,,,,,4,0,2,,,,,1,,,76,60
88124,note_off,,,,,188,0,1,,,,,0,,,79,0
88124,note_off,,,,,188,0,2,,,,,1,,,76,0
88128,note_on,,,,,4,0,1,,,,,0,,,78,60
88128,note_on,,,,,4,0,2,,,,,1,,,74,60
88220,note_off,,,,,92,0,1,,,,,0,,,78,0
88220,note_off,,,,,92,0,2,,,,,1,,,74,0
88224,note_on,,,,,4,0,1,,,,,0,,,79,60
88224,note_on,,,,,4,0,2,,,,,1,,,76,60
88316,note_off,,,,,92,0,2,,,,,1,,,76,0
88316,note_off,,,,,92,0,1,,,,,0,,,79,0
88320,note_on,,,,,4,0,2,,,,,1,,,78,60
88320,note_on,,,,,4,0,1,,,,,0,,,81,60
88508,note_off,,,,,188,0,1,,,,,0,,,81,0
88508,note_off,,,,,188,0,2,,,,,1,,,78,0
88704,note_on,,,,,1408,0,6,,,,,5,,,50,92
88704,note_on,,,,,1408,0,5,,,,,4,,,62,92
88704,note_on,,,,,196,0,1,,,,,0,,,69,92
88704,note_on,,,,,1348,0,3,,,,,2,,,69,127
88704,note_on,,,,,1408,0,7,,,,,6,,,38,75
88704,note_on,,,,,196,0,2,,,,,1,,,66,92
88704,note_on,,,,,1348,0,4,,,,,3,,,66,127
88892,note_off,,,,,188,0,7,,,,,6,,,38,0
88892,note_off,,,,,188,0,1,,,,,0,,,69,0
88892,note_off,,,,,188,0,6,,,,,5,,,50,0
88892,note_off,,,,,188,0,4,,,,,3,,,66,0
88892,note_off,,,,,188,0,3,,,,,2,,,69,0
88892,note_off,,,,,188,0,5,,,,,4,,,62,0
88892,note_off,,,,,188,0,2,,,,,1,,,66,0
88896,note_on,,,,,4,0,1,,,,,0,,,71,92
88896,note_on,,,,,4,0,6,,,,,5,,,55,92
88896,note_on,,,,,4,0,2,,,,,1,,,67,92
88896,note_on,,,,,4,0,3,,,,,2,,,71,127
88896,note_on,,,,,4,0,5,,,,,4,,,62,92
88896,note_on,,,,,4,0,4,,,,,3,,,67,127
88896,note_on,,,,,4,0,7,,,,,6,,,43,75
89084,note_off,,,,,188,0,4,,,,,3,,,67,0
89084,note_off,,,,,188,0,5,,,,,4,,,62,0
89084,note_off,,,,,188,0,2,,,,,1,,,67,0
89084,note_off,,,,,188,0,6,,,,,5,,,55,0
89084,note_off,,,,,188,0,3,,,,,2,,,71,0
89084,note_off,,,,,188,0,1,,,,,0,,,71,0
89084,note_off,,,,,188,0,7,,,,,6,,,43,0
89088,note_on,,,,,4,0,6,,,,,5,,,54,92
89088,note_on,,,,,4,0,4,,,,,3,,,69,127
89088,note_on,,,,,4,0,7,,,,,6,,,42,75
89088,note_on,,,,,4,0,2,,,,,1,,,69,92
89088,note_on,,,,,1924,0,8,,,,,7,,,42,60
89088,note_on,,,,,0,0,8,,,,,7,,,48,60
89088,note_on,,,,,4,0,5,,,,,4,,,62,92
89088,note_on,,,,,4,0,3,,,,,2,,,72,127
89088,note_on,,,,,4,0,1,,,,,0,,,72,92
89180,note_off,,,,,92,0,8,,,,,7,,,42,0
89180,note_off,,,,,0,0,8,,,,,7,,,48,0
89184,note_on,,,,,4,0,8,,,,,7,,,50,60
89276,note_off,,,,,92,0,8,,,,,7,,,50,0
89276,note_off,,,,,188,0,1,,,,,0,,,72,0
89276,note_off,,,,,188,0,3,,,,,2,,,72,0
89276,note_off,,,,,188,0,6,,,,,5,,,54,0
89276,note_off,,,,,188,0,2,,,,,1,,,69,0
89276,note_off,,,,,188,0,5,,,,,4,,,62,0
89276,note_off,,,,,188,0,4,,,,,3,,,69,0
89276,note_off,,,,,188,0,7,,,,,6,,,42,0
89280,note_on,,,,,4,0,4,,,,,3,,,67,127
89280,note_on,,,,,4,0,2,,,,,1,,,67,92
89280,note_on,,,,,4,0,1,,,,,0,,,71,92
89280,note_on,,,,,4,0,3,,,,,2,,,71,127
89280,note_on,,,,,4,0,6,,,,,5,,,55,92
89280,note_on,,,,,4,0,5,,,,,4,,,62,92
89280,note_on,,,,,4,0,7,,,,,6,,,43,75
89468,note_off,,,,,188,0,7,,,,,6,,,43,0
89468,note_off,,,,,188,0,1,,,,,0,,,71,0
89468,note_off,,,,,188,0,4,,,,,3,,,67,0
89468,note_off,,,,,188,0,6,,,,,5,,,55,0
89468,note_off,,,,,188,0,3,,,,,2,,,71,0
89468,note_off,,,,,188,0,2,,,,,1,,,67,0
89468,note_off,,,,,188,0,5,,,,,4,,,62,0
89472,note_on,,,,,4,0,7,,,,,6,,,38,75
89472,note_on,,,,,4,0,1,,,,,0,,,69,92
89472,note_on,,,,,4,0,4,,,,,3,,,66,127
89472,note_on,,,,,4,0,2,,,,,1,,,66,92
89472,note_on,,,,,4,0,3,,,,,2,,,69,127
89472,note_on,,,,,4,0,5,,,,,4,,,62,92
89472,note_on,,,,,4,0,6,,,,,5,,,50,92
89660,note_off,,,,,188,0,6,,,,,5,,,50,0
89660,note_off,,,,,188,0,2,,,,,1,,,66,0
89660,note_off,,,,,188,0,3,,,,,2,,,69,0
89660,note_off,,,,,188,0,7,,,,,6,,,38,0
89660,note_off,,,,,188,0,4,,,,,3,,,66,0
89660,note_off,,,,,188,0,5,,,,,4,,,62,0
89660,note_off,,,,,188,0,1,,,,,0,,,69,0
89856,note_on,,,,,196,0,2,,,,,1,,,78,60
89856,note_on,,,,,196,0,1,,,,,0,,,81,60
90044,note_off,,,,,188,0,1,,,,,0,,,81,0
90044,note_off,,,,,188,0,2,,,,,1,,,78,0
90048,note_on,,,,,4,0,2,,,,,1,,,79,60
90048,note_on,,,,,4,0,1,,,,,0,,,83,60
90236,note_off,,,,,188,0,2,,,,,1,,,79,0
90236,note_off,,,,,188,0,1,,,,,0,,,83,0
90240,note_on,,,,,4,0,2,,,,,1,,,81,60
90240,note_on,,,,,4,0,1,,,,,0,,,84,60
90428,note_off,,,,,188,0,2,,,,,1,,,81,0
90428,note_off,,,,,188,0,1,,,,,0,,,84,0
90432,note_on,,,,,4,0,2,,,,,1,,,79,60
90432,note_on,,,,,4,0,1,,,,,0,,,83,60
90524,note_off,,,,,92,0,2,,,,,1,,,79,0
90524,note_off,,,,,92,0,1,,,,,0,,,83,0
90528,note_on,,,,,4,0,1,,,,,0,,,84,60
90528,note_on,,,,,4,0,2,,,,,1,,,81,60
90620,note_off,,,,,92,0,2,,,,,1,,,81,0
90620,note_off,,,,,92,0,1,,,,,0,,,84,0
90624,note_on,,,,,4,0,1,,,,,0,,,86,60
90624,note_on,,,,,4,0,2,,,,,1,,,83,60
90812,note_off,,,,,188,0,2,,,,,1,,,83,0
90812,note_off,,,,,188,0,1,,,,,0,,,86,0
91008,note_on,,,,,196,0,2,,,,,1,,,71,92
91008,note_on,,,,,1348,0,4,,,,,3,,,71,127
91008,note_on,,,,,1348,0,5,,,,,4,,,67,92
91008,note_on,,,,,196,0,1,,,,,0,,,74,92
91008,note_on,,,,,1348,0,6,,,,,5,,,55,92
91008,note_on,,,,,1348,0,7,,,,,6,,,43,75
91008,note_on,,,,,1348,0,3,,,,,2,,,74,127
91196,note_off,,,,,188,0,5,,,,,4,,,67,0
91196,note_off,,,,,188,0,2,,,,,1,,,71,0
91196,note_off,,,,,188,0,1,,,,,0,,,74,0
91196,note_off,,,,,188,0,4,,,,,3,,,71,0
91196,note_off,,,,,188,0,7,,,,,6,,,43,0
91196,note_off,,,,,188,0,6,,,,,5,,,55,0
91196,note_off,,,,,188,0,3,,,,,2,,,74,0
91200,note_on,,,,,4,0,2,,,,,1,,,72,92
91200,note_on,,,,,4,0,7,,,,,6,,,48,75
91200,note_on,,,,,4,0,5,,,,,4,,,67,92
91200,note_on,,,,,4,0,6,,,,,5,,,60,92
91200,note_on,,,,,4,0,4,,,,,3,,,72,127
91200,note_on,,,,,4,0,3,,,,,2,,,76,127
91200,note_on,,,,,4,0,1,,,,,0,,,76,92
91388,note_off,,,,,188,0,3,,,,,2,,,76,0
91388,note_off,,,,,188,0,5,,,,,4,,,67,0
91388,note_off,,,,,188,0,4,,,,,3,,,72,0
91388,note_off,,,,,188,0,1,,,,,0,,,76,0
91388,note_off,,,,,188,0,2,,,,,1,,,72,0
91388,note_off,,,,,188,0,7,,,,,6,,,48,0
91388,note_off,,,,,188,0,6,,,,,5,,,60,0
91392,note_on,,,,,4,0,7,,,,,6,,,47,75
91392,note_on,,,,,4,0,3,,,,,2,,,77,127
91392,note_on,,,,,4,0,2,,,,,1,,,74,92
91392,note_on,,,,,4,0,1,,,,,0,,,77,92
91392,note_on,,,,,2116,0,8,,,,,7,,,47,60
91392,note_on,,,,,0,0,8,,,,,7,,,53,60
91392,note_on,,,,,4,0,4,,,,,3,,,74,127
91392,note_on,,,,,4,0,5,,,,,4,,,67,92
91392,note_on,,,,,4,0,6,,,,,5,,,59,92
91484,note_off,,,,,0,0,8,,,,,7,,,53,0
91484,note_off,,,,,92,0,8,,,,,7,,,47,0
91488,note_on,,,,,4,0,8,,,,,7,,,55,60
91580,note_off,,,,,188,0,2,,,,,1,,,74,0
91580,note_off,,,,,188,0,4,,,,,3,,,74,0
91580,note_off,,,,,188,0,3,,,,,2,,,77,0
91580,note_off,,,,,188,0,1,,,,,0,,,77,0
91580,note_off,,,,,92,0,8,,,,,7,,,55,0
91580,note_off,,,,,188,0,7,,,,,6,,,47,0
91580,note_off,,,,,188,0,6,,,,,5,,,59,0
91580,note_off,,,,,188,0,5,,,,,4,,,67,0
91584,note_on,,,,,4,0,3,,,,,2,,,76,127
91584,note_on,,,,,4,0,5,,,,,4,,,67,92
91584,note_on,,,,,4,0,2,,,,,1,,,72,92
91584,note_on,,,,,4,0,7,,,,,6,,,48,75
91584,note_on,,,,,4,0,4,,,,,3,,,72,127
91584,note_on,,,,,4,0,1,,,,,0,,,76,92
91584,note_on,,,,,4,0,6,,,,,5,,,60,92
91772,note_off,,,,,188,0,5,,,,,4,,,67,0
91772,note_off,,,,,188,0,7,,,,,6,,,48,0
91772,note_off,,,,,188,0,3,,,,,2,,,76,0
91772,note_off,,,,,188,0,4,,,,,3,,,72,0
91772,note_off,,,,,188,0,1,,,,,0,,,76,0
91772,note_off,,,,,188,0,2,,,,,1,,,72,0
91772,note_off,,,,,188,0,6,,,,,5,,,60,0
91776,note_on,,,,,4,0,3,,,,,2,,,74,127
91776,note_on,,,,,4,0,1,,,,,0,,,74,92
91776,note_on,,,,,4,0,2,,,,,1,,,71,92
91776,note_on,,,,,4,0,4,,,,,3,,,71,127
91776,note_on,,,,,4,0,7,,,,,6,,,43,75
91776,note_on,,,,,4,0,5,,,,,4,,,67,92
91776,note_on,,,,,4,0,6,,,,,5,,,55,92
91964,note_off,,,,,188,0,5,,,,,4,,,67,0
91964,note_off,,,,,188,0,2,,,,,1,,,71,0
91964,note_off,,,,,188,0,7,,,,,6,,,43,0
91964,note_off,,,,,188,0,3,,,,,2,,,74,0
91964,note_off,,,,,188,0,4,,,,,3,,,71,0
91964,note_off,,,,,188,0,1,,,,,0,,,74,0
91964,note_off,,,,,188,0,6,,,,,5,,,55,0
92160,note_on,,,,,196,0,4,,,,,3,,,67,127
92160,note_on,,,,,196,0,5,,,,,4,,,62,92
92160,note_on,,,,,196,0,7,,,,,6,,,35,75
92160,note_on,,,,,196,0,6,,,,,5,,,47,92
92160,note_on,,,,,0,0,8,,,,,7,,,50,60
92160,note_on,,,,,580,0,8,,,,,7,,,47,60
92160,note_on,,,,,196,0,2,,,,,1,,,67,92
92252,note_off,,,,,0,0,8,,,,,7,,,50,0
92252,note_off,,,,,92,0,8,,,,,7,,,47,0
92256,note_on,,,,,4,0,8,,,,,7,,,55,60
92256,note_on,,,,,292,0,3,,,,,2,,,74,127
92256,note_on,,,,,292,0,1,,,,,0,,,74,92
92348,note_off,,,,,188,0,4,,,,,3,,,67,0
92348,note_off,,,,,92,0,1,,,,,0,,,74,0
92348,note_off,,,,,188,0,6,,,,,5,,,47,0
92348,note_off,,,,,188,0,7,,,,,6,,,35,0
92348,note_off,,,,,92,0,3,,,,,2,,,74,0
92348,note_off,,,,,92,0,8,,,,,7,,,55,0
92348,note_off,,,,,188,0,2,,,,,1,,,67,0
92348,note_off,,,,,188,0,5,,,,,4,,,62,0
92352,note_on,,,,,4,0,2,,,,,1,,,67,92
92352,note_on,,,,,4,0,1,,,,,0,,,79,92
92352,note_on,,,,,4,0,7,,,,,6,,,35,75
92352,note_on,,,,,4,0,3,,,,,2,,,79,127
92352,note_on,,,,,4,0,4,,,,,3,,,67,127
92352,note_on,,,,,4,0,5,,,,,4,,,62,92
92352,note_on,,,,,4,0,6,,,,,5,,,47,92
92444,note_off,,,,,92,0,1,,,,,0,,,79,0
92444,note_off,,,,,92,0,3,,,,,2,,,79,0
92448,note_on,,,,,4,0,1,,,,,0,,,77,92
92448,note_on,,,,,4,0,3,,,,,2,,,77,127
92540,note_off,,,,,92,0,1,,,,,0,,,77,0
92540,note_off,,,,,188,0,7,,,,,6,,,35,0
92540,note_off,,,,,188,0,6,,,,,5,,,47,0
92540,note_off,,,,,92,0,3,,,,,2,,,77,0
92540,note_off,,,,,188,0,5,,,,,4,,,62,0
92540,note_off,,,,,188,0,2,,,,,1,,,67,0
92540,note_off,,,,,188,0,4,,,,,3,,,67,0
92544,note_on,,,,,4,0,7,,,,,6,,,35,75
92544,note_on,,,,,4,0,3,,,,,2,,,76,127
92544,note_on,,,,,4,0,1,,,,,0,,,76,92
92544,note_on,,,,,4,0,2,,,,,1,,,67,92
92544,note_on,,,,,4,0,4,,,,,3,,,67,127
92544,note_on,,,,,4,0,5,,,,,4,,,62,92
92544,note_on,,,,,4,0,6,,,,,5,,,47,92
92636,note_off,,,,,92,0,3,,,,,2,,,76,0
92636,note_off,,,,,92,0,1,,,,,0,,,76,0
92640,note_on,,,,,4,0,3,,,,,2,,,74,127
92640,note_on,,,,,4,0,1,,,,,0,,,74,92
92732,note_off,,,,,92,0,3,,,,,2,,,74,0
92732,note_off,,,,,188,0,7,,,,,6,,,35,0
92732,note_off,,,,,188,0,6,,,,,5,,,47,0
92732,note_off,,,,,188,0,2,,,,,1,,,67,0
92732,note_off,,,,,188,0,5,,,,,4,,,62,0
92732,note_off,,,,,92,0,1,,,,,0,,,74,0
92732,note_off,,,,,188,0,4,,,,,3,,,67,0
92736,note_on,,,,,4,0,6,,,,,5,,,48,92
92736,note_on,,,,,4,0,7,,,,,6,,,36,75
92736,note_on,,,,,4,0,3,,,,,2,,,76,127
92736,note_on,,,,,4,0,1,,,,,0,,,76,92
92736,note_on,,,,,4,0,5,,,,,4,,,67,92
92832,note_on,,,,,100,0,2,,,,,1,,,67,92
92832,note_on,,,,,100,0,4,,,,,3,,,67,127
92924,note_off,,,,,188,0,7,,,,,6,,,36,0
92924,note_off,,,,,188,0,6,,,,,5,,,48,0
92924,note_off,,,,,92,0,4,,,,,3,,,67,0
92924,note_off,,,,,188,0,3,,,,,2,,,76,0
92924,note_off,,,,,92,0,2,,,,,1,,,67,0
92924,note_off,,,,,188,0,1,,,,,0,,,76,0
92924,note_off,,,,,188,0,5,,,,,4,,,67,0
92928,note_on,,,,,4,0,2,,,,,1,,,72,92
92928,note_on,,,,,4,0,5,,,,,4,,,67,92
92928,note_on,,,,,4,0,3,,,,,2,,,76,127
92928,note_on,,,,,4,0,6,,,,,5,,,48,92
92928,note_on,,,,,4,0,7,,,,,6,,,36,75
92928,note_on,,,,,4,0,4,,,,,3,,,72,127
92928,note_on,,,,,4,0,1,,,,,0,,,76,92
93020,note_off,,,,,92,0,4,,,,,3,,,72,0
93020,note_off,,,,,92,0,2,,,,,1,,,72,0
93024,note_on,,,,,4,0,4,,,,,3,,,71,127
93024,note_on,,,,,4,0,2,,,,,1,,,71,92
93116,note_off,,,,,92,0,4,,,,,3,,,71,0
93116,note_off,,,,,188,0,3,,,,,2,,,76,0
93116,note_off,,,,,92,0,2,,,,,1,,,71,0
93116,note_off,,,,,188,0,1,,,,,0,,,76,0
93116,note_off,,,,,188,0,7,,,,,6,,,36,0
93116,note_off,,,,,188,0,6,,,,,5,,,48,0
93116,note_off,,,,,188,0,5,,,,,4,,,67,0
93120,note_on,,,,,4,0,2,,,,,1,,,69,92
93120,note_on,,,,,4,0,7,,,,,6,,,36,75
93120,note_on,,,,,4,0,3,,,,,2,,,76,127
93120,note_on,,,,,4,0,6,,,,,5,,,48,92
93120,note_on,,,,,4,0,4,,,,,3,,,69,127
93120,note_on,,,,,4,0,1,,,,,0,,,76,92
93120,note_on,,,,,4,0,5,,,,,4,,,67,92
93212,note_off,,,,,92,0,4,,,,,3,,,69,0
93212,note_off,,,,,92,0,2,,,,,1,,,69,0
93216,note_on,,,,,4,0,4,,,,,3,,,67,127
93216,note_on,,,,,4,0,2,,,,,1,,,67,92
93308,note_off,,,,,188,0,7,,,,,6,,,36,0
93308,note_off,,,,,188,0,6,,,,,5,,,48,0
93308,note_off,,,,,92,0,4,,,,,3,,,67,0
93308,note_off,,,,,92,0,2,,,,,1,,,67,0
93308,note_off,,,,,188,0,1,,,,,0,,,76,0
93308,note_off,,,,,188,0,3,,,,,2,,,76,0
93308,note_off,,,,,188,0,5,,,,,4,,,67,0
93312,note_on,,,,,4,0,1,,,,,0,,,69,92
93312,note_on,,,,,4,0,7,,,,,6,,,38,75
93312,note_on,,,,,4,0,6,,,,,5,,,50,92
93312,note_on,,,,,4,0,3,,,,,2,,,69,127
93312,note_on,,,,,4,0,2,,,,,1,,,66,92
93312,note_on,,,,,4,0,5,,,,,4,,,62,92
93312,note_on,,,,,4,0,4,,,,,3,,,66,127
93404,note_off,,,,,92,0,1,,,,,0,,,69,0
93404,note_off,,,,,92,0,3,,,,,2,,,69,0
93408,note_on,,,,,4,0,1,,,,,0,,,81,92
93408,note_on,,,,,4,0,3,,,,,2,,,81,127
93500,note_off,,,,,188,0,5,,,,,4,,,62,0
93500,note_off,,,,,188,0,7,,,,,6,,,38,0
93500,note_off,,,,,188,0,2,,,,,1,,,66,0
93500,note_off,,,,,92,0,3,,,,,2,,,81,0
93500,note_off,,,,,188,0,6,,,,,5,,,50,0
93500,note_off,,,,,188,0,4,,,,,3,,,66,0
93500,note_off,,,,,92,0,1,,,,,0,,,81,0
93504,note_on,,,,,4,0,4,,,,,3,,,66,127
93504,note_on,,,,,4,0,6,,,,,5,,,50,92
93504,note_on,,,,,4,0,5,,,,,4,,,62,92
93504,note_on,,,,,4,0,7,,,,,6,,,38,75
93504,note_on,,,,,4,0,3,,,,,2,,,86,127
93504,note_on,,,,,4,0,2,,,,,1,,,66,92
93504,note_on,,,,,4,0,1,,,,,0,,,86,92
93596,note_off,,,,,92,0,1,,,,,0,,,86,0
93596,note_off,,,,,92,0,3,,,,,2,,,86,0
93600,note_on,,,,,4,0,3,,,,,2,,,84,127
93600,note_on,,,,,4,0,1,,,,,0,,,84,92
93692,note_off,,,,,188,0,4,,,,,3,,,66,0
93692,note_off,,,,,188,0,2,,,,,1,,,66,0
93692,note_off,,,,,188,0,6,,,,,5,,,50,0
93692,note_off,,,,,92,0,3,,,,,2,,,84,0
93692,note_off,,,,,188,0,7,,,,,6,,,38,0
93692,note_off,,,,,92,0,1,,,,,0,,,84,0
93692,note_off,,,,,188,0,5,,,,,4,,,62,0
93696,note_on,,,,,4,0,3,,,,,2,,,83,127
93696,note_on,,,,,4,0,7,,,,,6,,,38,75
93696,note_on,,,,,4,0,4,,,,,3,,,66,127
93696,note_on,,,,,4,0,2,,,,,1,,,66,92
93696,note_on,,,,,4,0,1,,,,,0,,,83,92
93696,note_on,,,,,4,0,6,,,,,5,,,50,92
93696,note_on,,,,,4,0,5,,,,,4,,,62,92
93788,note_off,,,,,92,0,3,,,,,2,,,83,0
93788,note_off,,,,,92,0,1,,,,,0,,,83,0
93792,note_on,,,,,4,0,1,,,,,0,,,81,92
93792,note_on,,,,,4,0,3,,,,,2,,,81,127
93884,note_off,,,,,188,0,4,,,,,3,,,66,0
93884,note_off,,,,,188,0,6,,,,,5,,,50,0
93884,note_off,,,,,92,0,1,,,,,0,,,81,0
93884,note_off,,,,,188,0,7,,,,,6,,,38,0
93884,note_off,,,,,188,0,5,,,,,4,,,62,0
93884,note_off,,,,,188,0,2,,,,,1,,,66,0
93884,note_off,,,,,92,0,3,,,,,2,,,81,0
93888,note_on,,,,,4,0,6,,,,,5,,,55,92
93888,note_on,,,,,4,0,7,,,,,6,,,43,75
93888,note_on,,,,,4,0,5,,,,,4,,,62,92
93888,note_on,,,,,4,0,1,,,,,0,,,83,92
93888,note_on,,,,,4,0,3,,,,,2,,,83,127
93984,note_on,,,,,100,0,4,,,,,3,,,74,127
93984,note_on,,,,,100,0,2,,,,,1,,,74,92
94076,note_off,,,,,92,0,4,,,,,3,,,74,0
94076,note_off,,,,,188,0,6,,,,,5,,,55,0
94076,note_off,,,,,92,0,2,,,,,1,,,74,0
94076,note_off,,,,,188,0,7,,,,,6,,,43,0
94076,note_off,,,,,188,0,1,,,,,0,,,83,0
94076,note_off,,,,,188,0,3,,,,,2,,,83,0
94076,note_off,,,,,188,0,5,,,,,4,,,62,0
94080,note_on,,,,,4,0,6,,,,,5,,,55,92
94080,note_on,,,,,4,0,7,,,,,6,,,43,75
94080,note_on,,,,,4,0,5,,,,,4,,,62,92
94080,note_on,,,,,4,0,3,,,,,2,,,83,127
94080,note_on,,,,,4,0,1,,,,,0,,,83,92
94080,note_on,,,,,4,0,2,,,,,1,,,79,92
94080,note_on,,,,,4,0,4,,,,,3,,,79,127
94172,note_off,,,,,92,0,4,,,,,3,,,79,0
94172,note_off,,,,,92,0,2,,,,,1,,,79,0
94176,note_on,,,,,4,0,2,,,,,1,,,77,92
94176,note_on,,,,,4,0,4,,,,,3,,,77,127
94268,note_off,,,,,188,0,1,,,,,0,,,83,0
94268,note_off,,,,,92,0,2,,,,,1,,,77,0
94268,note_off,,,,,188,0,3,,,,,2,,,83,0
94268,note_off,,,,,188,0,6,,,,,5,,,55,0
94268,note_off,,,,,188,0,5,,,,,4,,,62,0
94268,note_off,,,,,188,0,7,,,,,6,,,43,0
94268,note_off,,,,,92,0,4,,,,,3,,,77,0
94272,note_on,,,,,4,0,2,,,,,1,,,76,92
94272,note_on,,,,,4,0,5,,,,,4,,,62,92
94272,note_on,,,,,4,0,4,,,,,3,,,76,127
94272,note_on,,,,,4,0,1,,,,,0,,,83,92
94272,note_on,,,,,4,0,3,,,,,2,,,83,127
94272,note_on,,,,,4,0,6,,,,,5,,,55,92
94272,note_on,,,,,4,0,7,,,,,6,,,43,75
94364,note_off,,,,,92,0,2,,,,,1,,,76,0
94364,note_off,,,,,92,0,4,,,,,3,,,76,0
94368,note_on,,,,,4,0,4,,,,,3,,,74,127
94368,note_on,,,,,4,0,2,,,,,1,,,74,92
94460,note_off,,,,,188,0,1,,,,,0,,,83,0
94460,note_off,,,,,188,0,3,,,,,2,,,83,0
94460,note_off,,,,,92,0,4,,,,,3,,,74,0
94460,note_off,,,,,92,0,2,,,,,1,,,74,0
94460,note_off,,,,,188,0,5,,,,,4,,,62,0
94460,note_off,,,,,188,0,7,,,,,6,,,43,0
94460,note_off,,,,,188,0,6,,,,,5,,,55,0
94464,note_on,,,,,4,0,2,,,,,1,,,76,92
94464,note_on,,,,,4,0,6,,,,,5,,,56,92
94464,note_on,,,,,4,0,1,,,,,0,,,83,92
94464,note_on,,,,,4,0,5,,,,,4,,,71,92
94464,note_on,,,,,4,0,4,,,,,3,,,76,127
94464,note_on,,,,,2116,0,8,,,,,7,,,44,60
94464,note_on,,,,,4,0,7,,,,,6,,,44,75
94464,note_on,,,,,4,0,3,,,,,2,,,83,127
94464,note_on,,,,,0,0,8,,,,,7,,,50,60
94556,note_off,,,,,92,0,8,,,,,7,,,44,0
94556,note_off,,,,,92,0,1,,,,,0,,,83,0
94556,note_off,,,,,92,0,3,,,,,2,,,83,0
94556,note_off,,,,,0,0,8,,,,,7,,,50,0
94560,note_on,,,,,4,0,8,,,,,7,,,52,60
94560,note_on,,,,,4,0,1,,,,,0,,,71,92
94560,note_on,,,,,4,0,3,,,,,2,,,71,127
94652,note_off,,,,,92,0,3,,,,,2,,,71,0
94652,note_off,,,,,92,0,8,,,,,7,,,52,0
94652,note_off,,,,,188,0,2,,,,,1,,,76,0
94652,note_off,,,,,188,0,6,,,,,5,,,56,0
94652,note_off,,,,,188,0,7,,,,,6,,,44,0
94652,note_off,,,,,188,0,4,,,,,3,,,76,0
94652,note_off,,,,,188,0,5,,,,,4,,,71,0
94652,note_off,,,,,92,0,1,,,,,0,,,71,0
94656,note_on,,,,,4,0,2,,,,,1,,,76,92
94656,note_on,,,,,4,0,3,,,,,2,,,76,127
94656,note_on,,,,,4,0,1,,,,,0,,,76,92
94656,note_on,,,,,4,0,5,,,,,4,,,71,92
94656,note_on,,,,,4,0,4,,,,,3,,,76,127
94656,note_on,,,,,4,0,7,,,,,6,,,44,75
94656,note_on,,,,,4,0,6,,,,,5,,,56,92
94748,note_off,,,,,92,0,3,,,,,2,,,76,0
94748,note_off,,,,,92,0,1,,,,,0,,,76,0
94752,note_on,,,,,4,0,1,,,,,0,,,74,92
94752,note_on,,,,,4,0,3,,,,,2,,,74,127
94844,note_off,,,,,188,0,4,,,,,3,,,76,0
94844,note_off,,,,,188,0,2,,,,,1,,,76,0
94844,note_off,,,,,188,0,5,,,,,4,,,71,0
94844,note_off,,,,,92,0,1,,,,,0,,,74,0
94844,note_off,,,,,188,0,7,,,,,6,,,44,0
94844,note_off,,,,,188,0,6,,,,,5,,,56,0
94844,note_off,,,,,92,0,3,,,,,2,,,74,0
94848,note_on,,,,,4,0,2,,,,,1,,,76,92
94848,note_on,,,,,4,0,7,,,,,6,,,44,75
94848,note_on,,,,,4,0,6,,,,,5,,,56,92
94848,note_on,,,,,4,0,3,,,,,2,,,72,127
94848,note_on,,,,,4,0,1,,,,,0,,,72,92
94848,note_on,,,,,4,0,4,,,,,3,,,76,127
94848,note_on,,,,,4,0,5,,,,,4,,,71,92
94940,note_off,,,,,92,0,3,,,,,2,,,72,0
94940,note_off,,,,,92,0,1,,,,,0,,,72,0
94944,note_on,,,,,4,0,3,,,,,2,,,71,127
94944,note_on,,,,,4,0,1,,,,,0,,,71,92
95036,note_off,,,,,188,0,5,,,,,4,,,71,0
95036,note_off,,,,,188,0,4,,,,,3,,,76,0
95036,note_off,,,,,188,0,7,,,,,6,,,44,0
95036,note_off,,,,,188,0,6,,,,,5,,,56,0
95036,note_off,,,,,188,0,2,,,,,1,,,76,0
95036,note_off,,,,,92,0,3,,,,,2,,,71,0
95036,note_off,,,,,92,0,1,,,,,0,,,71,0
95040,note_on,,,,,4,0,7,,,,,6,,,45,75
95040,note_on,,,,,4,0,2,,,,,1,,,76,92
95040,note_on,,,,,4,0,6,,,,,5,,,57,92
95040,note_on,,,,,4,0,5,,,,,4,,,64,92
95040,note_on,,,,,4,0,3,,,,,2,,,72,127
95040,note_on,,,,,4,0,1,,,,,0,,,72,92
95040,note_on,,,,,4,0,4,,,,,3,,,76,127
95132,note_off,,,,,92,0,2,,,,,1,,,76,0
95132,note_off,,,,,92,0,4,,,,,3,,,76,0
95136,note_on,,,,,4,0,4,,,,,3,,,64,127
95136,note_on,,,,,4,0,2,,,,,1,,,64,92
95228,note_off,,,,,188,0,3,,,,,2,,,72,0
95228,note_off,,,,,92,0,4,,,,,3,,,64,0
95228,note_off,,,,,188,0,6,,,,,5,,,57,0
95228,note_off,,,,,188,0,1,,,,,0,,,72,0
95228,note_off,,,,,188,0,5,,,,,4,,,64,0
95228,note_off,,,,,92,0,2,,,,,1,,,64,0
95228,note_off,,,,,188,0,7,,,,,6,,,45,0
95232,note_on,,,,,4,0,3,,,,,2,,,72,127
95232,note_on,,,,,4,0,2,,,,,1,,,69,92
95232,note_on,,,,,4,0,1,,,,,0,,,72,92
95232,note_on,,,,,4,0,4,,,,,3,,,69,127
95232,note_on,,,,,4,0,7,,,,,6,,,45,75
95232,note_on,,,,,4,0,6,,,,,5,,,57,92
95232,note_on,,,,,4,0,5,,,,,4,,,64,92
95324,note_off,,,,,92,0,2,,,,,1,,,69,0
95324,note_off,,,,,92,0,4,,,,,3,,,69,0
95328,note_on,,,,,4,0,2,,,,,1,,,67,92
95328,note_on,,,,,4,0,4,,,,,3,,,67,127
95420,note_off,,,,,188,0,5,,,,,4,,,64,0
95420,note_off,,,,,92,0,2,,,,,1,,,67,0
95420,note_off,,,,,188,0,7,,,,,6,,,45,0
95420,note_off,,,,,188,0,1,,,,,0,,,72,0
95420,note_off,,,,,188,0,3,,,,,2,,,72,0
95420,note_off,,,,,92,0,4,,,,,3,,,67,0
95420,note_off,,,,,188,0,6,,,,,5,,,57,0
95424,note_on,,,,,4,0,4,,,,,3,,,66,127
95424,note_on,,,,,4,0,3,,,,,2,,,72,127
95424,note_on,,,,,4,0,5,,,,,4,,,69,92
95424,note_on,,,,,4,0,7,,,,,6,,,45,75
95424,note_on,,,,,4,0,1,,,,,0,,,72,92
95424,note_on,,,,,4,0,6,,,,,5,,,57,92
95424,note_on,,,,,4,0,2,,,,,1,,,66,92
95516,note_off,,,,,92,0,2,,,,,1,,,66,0
95516,note_off,,,,,92,0,4,,,,,3,,,66,0
95520,note_on,,,,,4,0,2,,,,,1,,,64,92
95520,note_on,,,,,4,0,4,,,,,3,,,64,127
95612,note_off,,,,,188,0,6,,,,,5,,,57,0
95612,note_off,,,,,188,0,1,,,,,0,,,72,0
95612,note_off,,,,,92,0,2,,,,,1,,,64,0
95612,note_off,,,,,92,0,4,,,,,3,,,64,0
95612,note_off,,,,,188,0,7,,,,,6,,,45,0
95612,note_off,,,,,188,0,5,,,,,4,,,69,0
95612,note_off,,,,,188,0,3,,,,,2,,,72,0
95616,note_on,,,,,4,0,4,,,,,3,,,66,127
95616,note_on,,,,,4,0,5,,,,,4,,,69,92
95616,note_on,,,,,4,0,6,,,,,5,,,50,92
95616,note_on,,,,,964,0,8,,,,,7,,,50,60
95616,note_on,,,,,4,0,2,,,,,1,,,66,92
95616,note_on,,,,,4,0,1,,,,,0,,,72,92
95616,note_on,,,,,4,0,3,,,,,2,,,72,127
95616,note_on,,,,,4,0,7,,,,,6,,,38,75
95616,note_on,,,,,0,0,8,,,,,7,,,54,60
95708,note_off,,,,,92,0,1,,,,,0,,,72,0
95708,note_off,,,,,92,0,3,,,,,2,,,72,0
95708,note_off,,,,,0,0,8,,,,,7,,,54,0
95708,note_off,,,,,92,0,8,,,,,7,,,50,0
95712,note_on,,,,,4,0,8,,,,,7,,,60,60
95712,note_on,,,,,4,0,1,,,,,0,,,69,92
95712,note_on,,,,,4,0,3,,,,,2,,,69,127
95804,note_off,,,,,92,0,1,,,,,0,,,69,0
95804,note_off,,,,,188,0,5,,,,,4,,,69,0
95804,note_off,,,,,92,0,8,,,,,7,,,60,0
95804,note_off,,,,,188,0,7,,,,,6,,,38,0
95804,note_off,,,,,188,0,6,,,,,5,,,50,0
95804,note_off,,,,,188,0,4,,,,,3,,,66,0
95804,note_off,,,,,92,0,3,,,,,2,,,69,0
95804,note_off,,,,,188,0,2,,,,,1,,,66,0
95808,note_on,,,,,4,0,7,,,,,6,,,38,75
95808,note_on,,,,,4,0,3,,,,,2,,,74,127
95808,note_on,,,,,4,0,1,,,,,0,,,74,92
95808,note_on,,,,,4,0,4,,,,,3,,,66,127
95808,note_on,,,,,4,0,2,,,,,1,,,66,92
95808,note_on,,,,,4,0,5,,,,,4,,,69,92
95808,note_on,,,,,4,0,6,,,,,5,,,50,92
95900,note_off,,,,,92,0,1,,,,,0,,,74,0
95900,note_off,,,,,92,0,3,,,,,2,,,74,0
95904,note_on,,,,,4,0,1,,,,,0,,,72,92
95904,note_on,,,,,4,0,3,,,,,2,,,72,127
95996,note_off,,,,,188,0,4,,,,,3,,,66,0
95996,note_off,,,,,188,0,5,,,,,4,,,69,0
95996,note_off,,,,,92,0,1,,,,,0,,,72,0
95996,note_off,,,,,188,0,6,,,,,5,,,50,0
95996,note_off,,,,,188,0,2,,,,,1,,,66,0
95996,note_off,,,,,92,0,3,,,,,2,,,72,0
95996,note_off,,,,,188,0,7,,,,,6,,,38,0
96000,note_on,,,,,4,0,2,,,,,1,,,66,92
96000,note_on,,,,,4,0,5,,,,,4,,,69,92
96000,note_on,,,,,4,0,1,,,,,0,,,71,92
96000,note_on,,,,,4,0,4,,,,,3,,,66,127
96000,note_on,,,,,4,0,3,,,,,2,,,71,127
96000,note_on,,,,,4,0,7,,,,,6,,,38,75
96000,note_on,,,,,4,0,6,,,,,5,,,50,92
96092,note_off,,,,,92,0,1,,,,,0,,,71,0
96092,note_off,,,,,92,0,3,,,,,2,,,71,0
96096,note_on,,,,,4,0,3,,,,,2,,,69,127
96096,note_on,,,,,4,0,1,,,,,0,,,69,92
96188,note_off,,,,,188,0,4,,,,,3,,,66,0
96188,note_off,,,,,188,0,6,,,,,5,,,50,0
96188,note_off,,,,,188,0,2,,,,,1,,,66,0
96188,note_off,,,,,188,0,7,,,,,6,,,38,0
96188,note_off,,,,,188,0,5,,,,,4,,,69,0
96188,note_off,,,,,92,0,1,,,,,0,,,69,0
96188,note_off,,,,,92,0,3,,,,,2,,,69,0
96192,note_on,,,,,4,0,7,,,,,6,,,43,75
96192,note_on,,,,,4,0,1,,,,,0,,,71,92
96192,note_on,,,,,4,0,5,,,,,4,,,62,92
96192,note_on,,,,,4,0,6,,,,,5,,,55,92
96192,note_on,,,,,4,0,3,,,,,2,,,71,127
96288,note_on,,,,,100,0,4,,,,,3,,,62,127
96288,note_on,,,,,100,0,2,,,,,1,,,62,92
96380,note_off,,,,,188,0,3,,,,,2,,,71,0
96380,note_off,,,,,188,0,5,,,,,4,,,62,0
96380,note_off,,,,,92,0,4,,,,,3,,,62,0
96380,note_off,,,,,188,0,7,,,,,6,,,43,0
96380,note_off,,,,,92,0,2,,,,,1,,,62,0
96380,note_off,,,,,188,0,1,,,,,0,,,71,0
96380,note_off,,,,,188,0,6,,,,,5,,,55,0
96384,note_on,,,,,4,0,2,,,,,1,,,67,92
96384,note_on,,,,,4,0,1,,,,,0,,,71,92
96384,note_on,,,,,4,0,3,,,,,2,,,71,127
96384,note_on,,,,,4,0,6,,,,,5,,,55,92
96384,note_on,,,,,4,0,5,,,,,4,,,62,92
96384,note_on,,,,,4,0,4,,,,,3,,,67,127
96384,note_on,,,,,4,0,7,,,,,6,,,43,75
96476,note_off,,,,,92,0,2,,,,,1,,,67,0
96476,note_off,,,,,92,0,4,,,,,3,,,67,0
96480,note_on,,,,,4,0,4,,,,,3,,,66,127
96480,note_on,,,,,4,0,2,,,,,1,,,66,92
96572,note_off,,,,,188,0,6,,,,,5,,,55,0
96572,note_off,,,,,188,0,5,,,,,4,,,62,0
96572,note_off,,,,,188,0,1,,,,,0,,,71,0
96572,note_off,,,,,92,0,2,,,,,1,,,66,0
96572,note_off,,,,,188,0,7,,,,,6,,,43,0
96572,note_off,,,,,188,0,3,,,,,2,,,71,0
96572,note_off,,,,,92,0,4,,,,,3,,,66,0
96576,note_on,,,,,4,0,7,,,,,6,,,43,75
96576,note_on,,,,,4,0,5,,,,,4,,,55,92
96576,note_on,,,,,4,0,4,,,,,3,,,64,127
96576,note_on,,,,,4,0,6,,,,,5,,,55,92
96576,note_on,,,,,4,0,3,,,,,2,,,71,127
96576,note_on,,,,,4,0,2,,,,,1,,,64,92
96576,note_on,,,,,4,0,1,,,,,0,,,71,92
96668,note_off,,,,,92,0,2,,,,,1,,,64,0
96668,note_off,,,,,92,0,4,,,,,3,,,64,0
96672,note_on,,,,,4,0,2,,,,,1,,,62,92
96672,note_on,,,,,4,0,4,,,,,3,,,62,127
96764,note_off,,,,,92,0,4,,,,,3,,,62,0
96764,note_off,,,,,188,0,5,,,,,4,,,55,0
96764,note_off,,,,,188,0,7,,,,,6,,,43,0
96764,note_off,,,,,92,0,2,,,,,1,,,62,0
96764,note_off,,,,,188,0,3,,,,,2,,,71,0
96764,note_off,,,,,188,0,6,,,,,5,,,55,0
96764,note_off,,,,,188,0,1,,,,,0,,,71,0
96768,note_on,,,,,964,0,8,,,,,7,,,52,60
96768,note_on,,,,,4,0,3,,,,,2,,,67,127
96768,note_on,,,,,4,0,1,,,,,0,,,67,92
96768,note_on,,,,,0,0,8,,,,,7,,,55,60
96768,note_on,,,,,4,0,2,,,,,1,,,61,92
96768,note_on,,,,,4,0,6,,,,,5,,,52,92
96768,note_on,,,,,4,0,4,,,,,3,,,61,127
96768,note_on,,,,,4,0,7,,,,,6,,,40,75
96768,note_on,,,,,4,0,5,,,,,4,,,61,92
96860,note_off,,,,,92,0,4,,,,,3,,,61,0
96860,note_off,,,,,92,0,2,,,,,1,,,61,0
96860,note_off,,,,,92,0,8,,,,,7,,,52,0
96860,note_off,,,,,0,0,8,,,,,7,,,55,0
96864,note_on,,,,,4,0,2,,,,,1,,,62,92
96864,note_on,,,,,4,0,4,,,,,3,,,62,127
96864,note_on,,,,,4,0,8,,,,,7,,,61,60
96956,note_off,,,,,92,0,4,,,,,3,,,62,0
96956,note_off,,,,,188,0,5,,,,,4,,,61,0
96956,note_off,,,,,188,0,3,,,,,2,,,67,0
96956,note_off,,,,,188,0,6,,,,,5,,,52,0
96956,note_off,,,,,188,0,7,,,,,6,,,40,0
96956,note_off,,,,,188,0,1,,,,,0,,,67,0
96956,note_off,,,,,92,0,8,,,,,7,,,61,0
96956,note_off,,,,,92,0,2,,,,,1,,,62,0
96960,note_on,,,,,4,0,6,,,,,5,,,52,92
96960,note_on,,,,,4,0,4,,,,,3,,,64,127
96960,note_on,,,,,4,0,1,,,,,0,,,67,92
96960,note_on,,,,,4,0,5,,,,,4,,,61,92
96960,note_on,,,,,4,0,3,,,,,2,,,67,127
96960,note_on,,,,,4,0,2,,,,,1,,,64,92
96960,note_on,,,,,4,0,7,,,,,6,,,40,75
97148,note_off,,,,,188,0,5,,,,,4,,,61,0
97148,note_off,,,,,188,0,3,,,,,2,,,67,0
97148,note_off,,,,,188,0,1,,,,,0,,,67,0
97148,note_off,,,,,188,0,7,,,,,6,,,40,0
97148,note_off,,,,,188,0,6,,,,,5,,,52,0
97152,note_on,,,,,4,0,6,,,,,5,,,52,92
97152,note_on,,,,,4,0,5,,,,,4,,,61,92
97152,note_on,,,,,4,0,3,,,,,2,,,67,127
97152,note_on,,,,,4,0,7,,,,,6,,,40,75
97152,note_on,,,,,4,0,1,,,,,0,,,67,92
97280,note_off,,,,,320,0,2,,,,,1,,,64,0
97280,note_off,,,,,320,0,4,,,,,3,,,64,0
97340,note_off,,,,,188,0,6,,,,,5,,,52,0
97340,note_off,,,,,188,0,5,,,,,4,,,61,0
97340,note_off,,,,,188,0,7,,,,,6,,,40,0
97340,note_off,,,,,188,0,3,,,,,2,,,67,0
97340,note_off,,,,,188,0,1,,,,,0,,,67,0
97344,note_on,,,,,4,0,7,,,,,6,,,40,75
97344,note_on,,,,,64,0,4,,,,,3,,,64,127
97344,note_on,,,,,4,0,3,,,,,2,,,73,127
97344,note_on,,,,,64,0,2,,,,,1,,,64,92
97344,note_on,,,,,4,0,5,,,,,4,,,61,92
97344,note_on,,,,,4,0,1,,,,,0,,,73,92
97344,note_on,,,,,4,0,6,,,,,5,,,52,92
97436,note_off,,,,,92,0,2,,,,,1,,,64,0
97436,note_off,,,,,92,0,1,,,,,0,,,73,0
97436,note_off,,,,,92,0,4,,,,,3,,,64,0
97436,note_off,,,,,92,0,3,,,,,2,,,73,0
97440,note_on,,,,,4,0,2,,,,,1,,,66,92
97440,note_on,,,,,4,0,4,,,,,3,,,66,127
97440,note_on,,,,,4,0,1,,,,,0,,,74,92
97440,note_on,,,,,4,0,3,,,,,2,,,74,127
97532,note_off,,,,,92,0,4,,,,,3,,,66,0
97532,note_off,,,,,188,0,6,,,,,5,,,52,0
97532,note_off,,,,,92,0,1,,,,,0,,,74,0
97532,note_off,,,,,92,0,2,,,,,1,,,66,0
97532,note_off,,,,,188,0,5,,,,,4,,,61,0
97532,note_off,,,,,188,0,7,,,,,6,,,40,0
97532,note_off,,,,,92,0,3,,,,,2,,,74,0
97536,note_on,,,,,4,0,6,,,,,5,,,52,92
97536,note_on,,,,,4,0,4,,,,,3,,,67,127
97536,note_on,,,,,4,0,2,,,,,1,,,67,92
97536,note_on,,,,,4,0,3,,,,,2,,,76,127
97536,note_on,,,,,4,0,5,,,,,4,,,61,92
97536,note_on,,,,,4,0,1,,,,,0,,,76,92
97536,note_on,,,,,4,0,7,,,,,6,,,40,75
97724,note_off,,,,,188,0,6,,,,,5,,,52,0
97724,note_off,,,,,188,0,5,,,,,4,,,61,0
97724,note_off,,,,,188,0,7,,,,,6,,,40,0
97728,note_on,,,,,4,0,7,,,,,6,,,40,75
97728,note_on,,,,,4,0,5,,,,,4,,,61,92
97728,note_on,,,,,4,0,6,,,,,5,,,52,92
97856,note_off,,,,,320,0,1,,,,,0,,,76,0
97856,note_off,,,,,320,0,3,,,,,2,,,76,0
97856,note_off,,,,,320,0,4,,,,,3,,,67,0
97856,note_off,,,,,320,0,2,,,,,1,,,67,0
97916,note_off,,,,,188,0,6,,,,,5,,,52,0
97916,note_off,,,,,188,0,7,,,,,6,,,40,0
97916,note_off,,,,,188,0,5,,,,,4,,,61,0
97920,note_on,,,,,64,0,2,,,,,1,,,73,92
97920,note_on,,,,,964,0,8,,,,,7,,,45,60
97920,note_on,,,,,4,0,7,,,,,6,,,45,75
97920,note_on,,,,,64,0,3,,,,,2,,,76,127
97920,note_on,,,,,4,0,5,,,,,4,,,61,92
97920,note_on,,,,,64,0,1,,,,,0,,,76,92
97920,note_on,,,,,4,0,6,,,,,5,,,57,92
97920,note_on,,,,,0,0,8,,,,,7,,,49,60
97920,note_on,,,,,64,0,4,,,,,3,,,73,127
98012,note_off,,,,,92,0,2,,,,,1,,,73,0
98012,note_off,,,,,92,0,4,,,,,3,,,73,0
98012,note_off,,,,,92,0,3,,,,,2,,,76,0
98012,note_off,,,,,0,0,8,,,,,7,,,49,0
98012,note_off,,,,,92,0,8,,,,,7,,,45,0
98012,note_off,,,,,92,0,1,,,,,0,,,76,0
98016,note_on,,,,,4,0,3,,,,,2,,,78,127
98016,note_on,,,,,4,0,1,,,,,0,,,78,92
98016,note_on,,,,,4,0,8,,,,,7,,,52,60
98016,note_on,,,,,4,0,2,,,,,1,,,74,92
98016,note_on,,,,,4,0,4,,,,,3,,,74,127
98108,note_off,,,,,188,0,6,,,,,5,,,57,0
98108,note_off,,,,,188,0,7,,,,,6,,,45,0
98108,note_off,,,,,92,0,1,,,,,0,,,78,0
98108,note_off,,,,,92,0,4,,,,,3,,,74,0
98108,note_off,,,,,188,0,5,,,,,4,,,61,0
98108,note_off,,,,,92,0,3,,,,,2,,,78,0
98108,note_off,,,,,92,0,8,,,,,7,,,52,0
98108,note_off,,,,,92,0,2,,,,,1,,,74,0
98112,note_on,,,,,4,0,7,,,,,6,,,45,75
98112,note_on,,,,,4,0,4,,,,,3,,,76,127
98112,note_on,,,,,4,0,3,,,,,2,,,79,127
98112,note_on,,,,,4,0,6,,,,,5,,,57,92
98112,note_on,,,,,4,0,1,,,,,0,,,79,92
98112,note_on,,,,,4,0,2,,,,,1,,,76,92
98112,note_on,,,,,4,0,5,,,,,4,,,61,92
98300,note_off,,,,,188,0,7,,,,,6,,,45,0
98300,note_off,,,,,188,0,6,,,,,5,,,57,0
98300,note_off,,,,,188,0,5,,,,,4,,,61,0
98304,note_on,,,,,4,0,6,,,,,5,,,57,92
98304,note_on,,,,,4,0,7,,,,,6,,,45,75
98304,note_on,,,,,4,0,5,,,,,4,,,61,92
98432,note_off,,,,,320,0,3,,,,,2,,,79,0
98432,note_off,,,,,320,0,4,,,,,3,,,76,0
98432,note_off,,,,,320,0,2,,,,,1,,,76,0
98432,note_off,,,,,320,0,1,,,,,0,,,79,0
98492,note_off,,,,,188,0,5,,,,,4,,,61,0
98492,note_off,,,,,188,0,7,,,,,6,,,45,0
98492,note_off,,,,,188,0,6,,,,,5,,,57,0
98496,note_on,,,,,64,0,3,,,,,2,,,78,127
98496,note_on,,,,,64,0,1,,,,,0,,,78,92
98496,note_on,,,,,64,0,4,,,,,3,,,74,127
98496,note_on,,,,,4,0,6,,,,,5,,,62,92
98496,note_on,,,,,64,0,2,,,,,1,,,74,92
98496,note_on,,,,,4,0,5,,,,,4,,,69,92
98496,note_on,,,,,4,0,7,,,,,6,,,50,75
98588,note_off,,,,,92,0,2,,,,,1,,,74,0
98588,note_off,,,,,92,0,1,,,,,0,,,78,0
98588,note_off,,,,,92,0,3,,,,,2,,,78,0
98588,note_off,,,,,92,0,4,,,,,3,,,74,0
98592,note_on,,,,,4,0,3,,,,,2,,,79,127
98592,note_on,,,,,4,0,4,,,,,3,,,76,127
98592,note_on,,,,,4,0,1,,,,,0,,,79,92
98592,note_on,,,,,4,0,2,,,,,1,,,76,92
98684,note_off,,,,,188,0,7,,,,,6,,,50,0
98684,note_off,,,,,188,0,6,,,,,5,,,62,0
98684,note_off,,,,,92,0,3,,,,,2,,,79,0
98684,note_off,,,,,92,0,2,,,,,1,,,76,0
98684,note_off,,,,,188,0,5,,,,,4,,,69,0
98684,note_off,,,,,92,0,1,,,,,0,,,79,0
98684,note_off,,,,,92,0,4,,,,,3,,,76,0
98688,note_on,,,,,4,0,5,,,,,4,,,69,92
98688,note_on,,,,,4,0,6,,,,,5,,,62,92
98688,note_on,,,,,4,0,1,,,,,0,,,81,92
98688,note_on,,,,,4,0,7,,,,,6,,,50,75
98688,note_on,,,,,4,0,2,,,,,1,,,78,92
98688,note_on,,,,,4,0,3,,,,,2,,,81,127
98688,note_on,,,,,4,0,4,,,,,3,,,78,127
98876,note_off,,,,,188,0,6,,,,,5,,,62,0
98876,note_off,,,,,188,0,7,,,,,6,,,50,0
98876,note_off,,,,,188,0,5,,,,,4,,,69,0
98880,note_on,,,,,4,0,6,,,,,5,,,62,92
98880,note_on,,,,,4,0,7,,,,,6,,,50,75
98880,note_on,,,,,4,0,5,,,,,4,,,69,92
99008,note_off,,,,,320,0,3,,,,,2,,,81,0
99008,note_off,,,,,320,0,2,,,,,1,,,78,0
99008,note_off,,,,,320,0,1,,,,,0,,,81,0
99008,note_off,,,,,320,0,4,,,,,3,,,78,0
99068,note_off,,,,,188,0,7,,,,,6,,,50,0
99068,note_off,,,,,188,0,5,,,,,4,,,69,0
99068,note_off,,,,,188,0,6,,,,,5,,,62,0
99072,note_on,,,,,4,0,6,,,,,5,,,54,92
99072,note_on,,,,,64,0,2,,,,,1,,,78,92
99072,note_on,,,,,64,0,1,,,,,0,,,81,92
99072,note_on,,,,,64,0,3,,,,,2,,,81,127
99072,note_on,,,,,64,0,4,,,,,3,,,78,127
99072,note_on,,,,,4,0,7,,,,,6,,,42,75
99072,note_on,,,,,4,0,5,,,,,4,,,62,92
99072,note_on,,,,,964,0,8,,,,,7,,,42,60
99072,note_on,,,,,0,0,8,,,,,7,,,45,60
99164,note_off,,,,,92,0,4,,,,,3,,,78,0
99164,note_off,,,,,92,0,1,,,,,0,,,81,0
99164,note_off,,,,,92,0,3,,,,,2,,,81,0
99164,note_off,,,,,92,0,8,,,,,7,,,42,0
99164,note_off,,,,,0,0,8,,,,,7,,,45,0
99164,note_off,,,,,92,0,2,,,,,1,,,78,0
99168,note_on,,,,,4,0,4,,,,,3,,,79,127
99168,note_on,,,,,4,0,3,,,,,2,,,83,127
99168,note_on,,,,,4,0,2,,,,,1,,,79,92
99168,note_on,,,,,4,0,1,,,,,0,,,83,92
99168,note_on,,,,,4,0,8,,,,,7,,,50,60
99260,note_off,,,,,92,0,4,,,,,3,,,79,0
99260,note_off,,,,,188,0,6,,,,,5,,,54,0
99260,note_off,,,,,92,0,8,,,,,7,,,50,0
99260,note_off,,,,,92,0,1,,,,,0,,,83,0
99260,note_off,,,,,92,0,2,,,,,1,,,79,0
99260,note_off,,,,,188,0,5,,,,,4,,,62,0
99260,note_off,,,,,92,0,3,,,,,2,,,83,0
99260,note_off,,,,,188,0,7,,,,,6,,,42,0
99264,note_on,,,,,4,0,1,,,,,0,,,84,92
99264,note_on,,,,,4,0,5,,,,,4,,,62,92
99264,note_on,,,,,4,0,6,,,,,5,,,54,92
99264,note_on,,,,,4,0,4,,,,,3,,,81,127
99264,note_on,,,,,4,0,7,,,,,6,,,42,75
99264,note_on,,,,,4,0,3,,,,,2,,,84,127
99264,note_on,,,,,4,0,2,,,,,1,,,81,92
99452,note_off,,,,,188,0,6,,,,,5,,,54,0
99452,note_off,,,,,188,0,5,,,,,4,,,62,0
99452,note_off,,,,,188,0,7,,,,,6,,,42,0
99456,note_on,,,,,4,0,7,,,,,6,,,42,75
99456,note_on,,,,,4,0,5,,,,,4,,,62,92
99456,note_on,,,,,4,0,6,,,,,5,,,54,92
99584,note_off,,,,,320,0,1,,,,,0,,,84,0
99584,note_off,,,,,320,0,2,,,,,1,,,81,0
99584,note_off,,,,,320,0,4,,,,,3,,,81,0
99584,note_off,,,,,320,0,3,,,,,2,,,84,0
99644,note_off,,,,,188,0,6,,,,,5,,,54,0
99644,note_off,,,,,188,0,5,,,,,4,,,62,0
99644,note_off,,,,,188,0,7,,,,,6,,,42,0
99648,note_on,,,,,64,0,4,,,,,3,,,74,127
99648,note_on,,,,,64,0,2,,,,,1,,,74,92
99648,note_on,,,,,64,0,1,,,,,0,,,83,92
99648,note_on,,,,,4,0,6,,,,,5,,,55,92
99648,note_on,,,,,4,0,7,,,,,6,,,43,75
99648,note_on,,,,,4,0,5,,,,,4,,,67,92
99648,note_on,,,,,64,0,3,,,,,2,,,83,127
99740,note_off,,,,,92,0,1,,,,,0,,,83,0
99740,note_off,,,,,92,0,4,,,,,3,,,74,0
99740,note_off,,,,,92,0,2,,,,,1,,,74,0
99740,note_off,,,,,92,0,3,,,,,2,,,83,0
99744,note_on,,,,,4,0,2,,,,,1,,,71,92
99744,note_on,,,,,4,0,3,,,,,2,,,79,127
99744,note_on,,,,,4,0,1,,,,,0,,,79,92
99744,note_on,,,,,4,0,4,,,,,3,,,71,127
99836,note_off,,,,,92,0,4,,,,,3,,,71,0
99836,note_off,,,,,188,0,6,,,,,5,,,55,0
99836,note_off,,,,,92,0,1,,,,,0,,,79,0
99836,note_off,,,,,188,0,5,,,,,4,,,67,0
99836,note_off,,,,,92,0,2,,,,,1,,,71,0
99836,note_off,,,,,188,0,7,,,,,6,,,43,0
99836,note_off,,,,,92,0,3,,,,,2,,,79,0
99840,note_on,,,,,4,0,4,,,,,3,,,72,127
99840,note_on,,,,,4,0,7,,,,,6,,,43,75
99840,note_on,,,,,4,0,2,,,,,1,,,72,92
99840,note_on,,,,,4,0,3,,,,,2,,,81,127
99840,note_on,,,,,4,0,6,,,,,5,,,55,92
99840,note_on,,,,,4,0,5,,,,,4,,,62,92
99840,note_on,,,,,4,0,1,,,,,0,,,81,92
99932,note_off,,,,,92,0,1,,,,,0,,,81,0
99932,note_off,,,,,92,0,3,,,,,2,,,81,0
99932,note_off,,,,,92,0,2,,,,,1,,,72,0
99932,note_off,,,,,92,0,4,,,,,3,,,72,0
99936,note_on,,,,,4,0,1,,,,,0,,,78,92
99936,note_on,,,,,4,0,3,,,,,2,,,78,127
99936,note_on,,,,,4,0,2,,,,,1,,,69,92
99936,note_on,,,,,4,0,4,,,,,3,,,69,127
100028,note_off,,,,,188,0,6,,,,,5,,,55,0
100028,note_off,,,,,188,0,7,,,,,6,,,43,0
100028,note_off,,,,,92,0,1,,,,,0,,,78,0
100028,note_off,,,,,92,0,4,,,,,3,,,69,0
100028,note_off,,,,,92,0,3,,,,,2,,,78,0
100028,note_off,,,,,188,0,5,,,,,4,,,62,0
100028,note_off,,,,,92,0,2,,,,,1,,,69,0
100032,note_on,,,,,4,0,5,,,,,4,,,62,92
100032,note_on,,,,,4,0,3,,,,,2,,,79,127
100032,note_on,,,,,4,0,1,,,,,0,,,79,92
100032,note_on,,,,,4,0,6,,,,,5,,,55,92
100032,note_on,,,,,4,0,7,,,,,6,,,43,75
100032,note_on,,,,,4,0,4,,,,,3,,,71,127
100032,note_on,,,,,4,0,2,,,,,1,,,71,92
100124,note_off,,,,,92,0,3,,,,,2,,,79,0
100124,note_off,,,,,92,0,1,,,,,0,,,79,0
100128,note_on,,,,,4,0,1,,,,,0,,,74,92
100128,note_on,,,,,4,0,3,,,,,2,,,74,127
100220,note_off,,,,,188,0,6,,,,,5,,,55,0
100220,note_off,,,,,188,0,5,,,,,4,,,62,0
100220,note_off,,,,,188,0,4,,,,,3,,,71,0
100220,note_off,,,,,92,0,3,,,,,2,,,74,0
100220,note_off,,,,,188,0,7,,,,,6,,,43,0
100220,note_off,,,,,92,0,1,,,,,0,,,74,0
100220,note_off,,,,,188,0,2,,,,,1,,,71,0
100224,note_on,,,,,4,0,7,,,,,6,,,48,75
100224,note_on,,,,,4,0,4,,,,,3,,,69,127
100224,note_on,,,,,4,0,5,,,,,4,,,72,92
100224,note_on,,,,,4,0,6,,,,,5,,,60,92
100224,note_on,,,,,4,0,2,,,,,1,,,69,92
100224,note_on,,,,,0,0,8,,,,,7,,,52,60
100224,note_on,,,,,964,0,8,,,,,7,,,48,60
100224,note_on,,,,,4,0,1,,,,,0,,,76,92
100224,note_on,,,,,4,0,3,,,,,2,,,76,127
100316,note_off,,,,,92,0,3,,,,,2,,,76,0
100316,note_off,,,,,92,0,5,,,,,4,,,72,0
100316,note_off,,,,,92,0,4,,,,,3,,,69,0
100316,note_off,,,,,92,0,2,,,,,1,,,69,0
100316,note_off,,,,,0,0,8,,,,,7,,,52,0
100316,note_off,,,,,92,0,8,,,,,7,,,48,0
100316,note_off,,,,,92,0,1,,,,,0,,,76,0
100320,note_on,,,,,4,0,2,,,,,1,,,72,92
100320,note_on,,,,,4,0,1,,,,,0,,,81,92
100320,note_on,,,,,4,0,8,,,,,7,,,57,60
100320,note_on,,,,,4,0,5,,,,,4,,,64,92
100320,note_on,,,,,4,0,3,,,,,2,,,81,127
100320,note_on,,,,,4,0,4,,,,,3,,,72,127
100412,note_off,,,,,188,0,7,,,,,6,,,48,0
100412,note_off,,,,,92,0,1,,,,,0,,,81,0
100412,note_off,,,,,92,0,8,,,,,7,,,57,0
100412,note_off,,,,,92,0,4,,,,,3,,,72,0
100412,note_off,,,,,92,0,3,,,,,2,,,81,0
100412,note_off,,,,,92,0,5,,,,,4,,,64,0
100412,note_off,,,,,188,0,6,,,,,5,,,60,0
100412,note_off,,,,,92,0,2,,,,,1,,,72,0
100416,note_on,,,,,4,0,6,,,,,5,,,62,92
100416,note_on,,,,,4,0,3,,,,,2,,,79,127
100416,note_on,,,,,4,0,4,,,,,3,,,69,127
100416,note_on,,,,,4,0,1,,,,,0,,,79,92
100416,note_on,,,,,4,0,7,,,,,6,,,50,75
100416,note_on,,,,,4,0,2,,,,,1,,,69,92
100416,note_on,,,,,4,0,5,,,,,4,,,66,92
100464,note_off,,,,,48,0,1,,,,,0,,,79,0
100464,note_on,,,,,0,0,1,,,,,0,,,78,92
100464,note_off,,,,,48,0,3,,,,,2,,,79,0
100464,note_on,,,,,0,0,3,,,,,2,,,78,127
100512,note_off,,,,,48,0,1,,,,,0,,,78,0
100512,note_off,,,,,48,0,3,,,,,2,,,78,0
100512,note_on,,,,,0,0,3,,,,,2,,,79,127
100512,note_on,,,,,0,0,1,,,,,0,,,79,92
100560,note_off,,,,,48,0,1,,,,,0,,,79,0
100560,note_off,,,,,48,0,3,,,,,2,,,79,0
100560,note_on,,,,,0,0,3,,,,,2,,,78,127
100560,note_on,,,,,0,0,1,,,,,0,,,78,92
100604,note_off,,,,,188,0,6,,,,,5,,,62,0
100604,note_off,,,,,188,0,2,,,,,1,,,69,0
100604,note_off,,,,,188,0,7,,,,,6,,,50,0
100604,note_off,,,,,188,0,5,,,,,4,,,66,0
100604,note_off,,,,,188,0,4,,,,,3,,,69,0
100608,note_on,,,,,0,0,1,,,,,0,,,79,92
100608,note_off,,,,,48,0,1,,,,,0,,,78,0
100608,note_on,,,,,4,0,5,,,,,4,,,69,92
100608,note_on,,,,,4,0,4,,,,,3,,,74,127
100608,note_off,,,,,48,0,3,,,,,2,,,78,0
100608,note_on,,,,,4,0,2,,,,,1,,,74,92
100608,note_on,,,,,4,0,6,,,,,5,,,50,92
100608,note_on,,,,,0,0,3,,,,,2,,,79,127
100608,note_on,,,,,4,0,7,,,,,6,,,38,75
100656,note_off,,,,,48,0,1,,,,,0,,,79,0
100656,note_on,,,,,0,0,3,,,,,2,,,78,127
100656,note_off,,,,,48,0,3,,,,,2,,,79,0
100656,note_on,,,,,0,0,1,,,,,0,,,78,92
100700,note_off,,,,,92,0,5,,,,,4,,,69,0
100704,note_on,,,,,0,0,1,,,,,0,,,79,92
100704,note_on,,,,,4,0,5,,,,,4,,,62,92
100704,note_off,,,,,48,0,3,,,,,2,,,78,0
100704,note_on,,,,,0,0,3,,,,,2,,,79,127
100704,note_off,,,,,48,0,1,,,,,0,,,78,0
100752,note_on,,,,,0,0,3,,,,,2,,,78,127
100752,note_off,,,,,48,0,3,,,,,2,,,79,0
100752,note_on,,,,,0,0,1,,,,,0,,,78,92
100752,note_off,,,,,48,0,1,,,,,0,,,79,0
100796,note_off,,,,,92,0,5,,,,,4,,,62,0
100796,note_off,,,,,188,0,2,,,,,1,,,74,0
100796,note_off,,,,,188,0,4,,,,,3,,,74,0
100796,note_off,,,,,188,0,7,,,,,6,,,38,0
100796,note_off,,,,,188,0,6,,,,,5,,,50,0
100800,note_off,,,,,48,0,3,,,,,2,,,78,0
100800,note_on,,,,,4,0,5,,,,,4,,,62,92
100800,note_on,,,,,4,0,2,,,,,1,,,71,92
100800,note_on,,,,,4,0,7,,,,,6,,,43,75
100800,note_on,,,,,4,0,6,,,,,5,,,55,92
100800,note_on,,,,,0,0,3,,,,,2,,,79,127
100800,note_off,,,,,48,0,1,,,,,0,,,78,0
100800,note_on,,,,,0,0,1,,,,,0,,,79,92
100800,note_on,,,,,4,0,4,,,,,3,,,71,127
100896,note_off,,,,,96,0,3,,,,,2,,,79,0
100896,note_on,,,,,0,0,1,,,,,0,,,79,92
100896,note_off,,,,,96,0,1,,,,,0,,,79,0
100896,note_on,,,,,0,0,3,,,,,2,,,79,127
100988,note_off,,,,,188,0,4,,,,,3,,,71,0
100988,note_off,,,,,188,0,6,,,,,5,,,55,0
100988,note_off,,,,,188,0,7,,,,,6,,,43,0
100988,note_off,,,,,188,0,5,,,,,4,,,62,0
100988,note_off,,,,,188,0,2,,,,,1,,,71,0
100992,note_on,,,,,4,0,6,,,,,5,,,55,92
100992,note_on,,,,,4,0,4,,,,,3,,,74,127
100992,note_on,,,,,4,0,7,,,,,6,,,43,75
100992,note_on,,,,,4,0,5,,,,,4,,,59,92
100992,note_on,,,,,4,0,2,,,,,1,,,74,92
101180,note_off,,,,,188,0,2,,,,,1,,,74,0
101180,note_off,,,,,188,0,5,,,,,4,,,59,0
101180,note_off,,,,,188,0,6,,,,,5,,,55,0
101180,note_off,,,,,188,0,7,,,,,6,,,43,0
101180,note_off,,,,,284,0,1,,,,,0,,,79,0
101180,note_off,,,,,188,0,4,,,,,3,,,74,0
101180,note_off,,,,,284,0,3,,,,,2,,,79,0
101184,note_on,,,,,4,0,4,,,,,3,,,66,127
101184,note_on,,,,,4,0,6,,,,,5,,,57,92
101184,note_on,,,,,772,0,8,,,,,7,,,45,60
101184,note_on,,,,,4,0,2,,,,,1,,,66,92
101184,note_on,,,,,0,0,8,,,,,7,,,48,60
101184,note_on,,,,,4,0,5,,,,,4,,,60,92
101184,note_on,,,,,4,0,7,,,,,6,,,45,75
101276,note_off,,,,,0,0,8,,,,,7,,,48,0
101276,note_off,,,,,92,0,8,,,,,7,,,45,0
101280,note_on,,,,,4,0,8,,,,,7,,,54,60
101372,note_off,,,,,188,0,2,,,,,1,,,66,0
101372,note_off,,,,,92,0,8,,,,,7,,,54,0
101372,note_off,,,,,188,0,4,,,,,3,,,66,0
101372,note_off,,,,,188,0,7,,,,,6,,,45,0
101372,note_off,,,,,188,0,6,,,,,5,,,57,0
101372,note_off,,,,,188,0,5,,,,,4,,,60,0
101376,note_on,,,,,4,0,2,,,,,1,,,67,92
101376,note_on,,,,,4,0,7,,,,,6,,,47,75
101376,note_on,,,,,4,0,6,,,,,5,,,59,92
101376,note_on,,,,,4,0,5,,,,,4,,,62,92
101376,note_on,,,,,4,0,8,,,,,7,,,47,60
101376,note_on,,,,,4,0,4,,,,,3,,,67,127
101376,note_on,,,,,0,0,8,,,,,7,,,50,60
101468,note_off,,,,,92,0,8,,,,,7,,,47,0
101468,note_off,,,,,0,0,8,,,,,7,,,50,0
101472,note_on,,,,,4,0,8,,,,,7,,,55,60
101564,note_off,,,,,188,0,5,,,,,4,,,62,0
101564,note_off,,,,,92,0,8,,,,,7,,,55,0
101568,note_on,,,,,388,0,3,,,,,2,,,86,127
101568,note_on,,,,,4,0,5,,,,,4,,,74,92
101568,note_on,,,,,388,0,1,,,,,0,,,86,92
101696,note_off,,,,,320,0,7,,,,,6,,,47,0
101696,note_off,,,,,320,0,6,,,,,5,,,59,0
101696,note_off,,,,,320,0,2,,,,,1,,,67,0
101696,note_off,,,,,320,0,4,,,,,3,,,67,0
101756,note_off,,,,,188,0,3,,,,,2,,,86,0
101756,note_off,,,,,188,0,5,,,,,4,,,74,0
101756,note_off,,,,,188,0,1,,,,,0,,,86,0
101760,note_on,,,,,64,0,7,,,,,6,,,45,75
101760,note_on,,,,,4,0,5,,,,,4,,,72,92
101760,note_on,,,,,4,0,1,,,,,0,,,78,92
101760,note_on,,,,,0,0,8,,,,,7,,,48,60
101760,note_on,,,,,196,0,8,,,,,7,,,45,60
101760,note_on,,,,,4,0,3,,,,,2,,,78,127
101760,note_on,,,,,64,0,6,,,,,5,,,57,92
101852,note_off,,,,,92,0,8,,,,,7,,,45,0
101852,note_off,,,,,0,0,8,,,,,7,,,48,0
101856,note_on,,,,,4,0,8,,,,,7,,,54,60
101948,note_off,,,,,188,0,5,,,,,4,,,72,0
101948,note_off,,,,,188,0,1,,,,,0,,,78,0
101948,note_off,,,,,92,0,8,,,,,7,,,54,0
101948,note_off,,,,,188,0,6,,,,,5,,,57,0
101948,note_off,,,,,188,0,7,,,,,6,,,45,0
101948,note_off,,,,,188,0,3,,,,,2,,,78,0
101952,note_on,,,,,4,0,7,,,,,6,,,43,75
101952,note_on,,,,,4,0,1,,,,,0,,,79,92
101952,note_on,,,,,4,0,3,,,,,2,,,79,127
101952,note_on,,,,,4,0,5,,,,,4,,,71,92
101952,note_on,,,,,4,0,6,,,,,5,,,55,92
102140,note_off,,,,,188,0,5,,,,,4,,,71,0
102144,note_on,,,,,448,0,2,,,,,1,,,74,92
102144,note_on,,,,,4,0,5,,,,,4,,,59,92
102144,note_on,,,,,448,0,4,,,,,3,,,74,127
102272,note_off,,,,,320,0,3,,,,,2,,,79,0
102272,note_off,,,,,320,0,7,,,,,6,,,43,0
102272,note_off,,,,,320,0,6,,,,,5,,,55,0
102272,note_off,,,,,320,0,1,,,,,0,,,79,0
102332,note_off,,,,,188,0,4,,,,,3,,,74,0
102332,note_off,,,,,188,0,5,,,,,4,,,59,0
102332,note_off,,,,,188,0,2,,,,,1,,,74,0
102336,note_on,,,,,4,0,5,,,,,4,,,60,92
102336,note_on,,,,,0,0,8,,,,,7,,,48,60
102336,note_on,,,,,388,0,8,,,,,7,,,45,60
102336,note_on,,,,,64,0,7,,,,,6,,,45,75
102336,note_on,,,,,64,0,6,,,,,5,,,57,92
102336,note_on,,,,,4,0,2,,,,,1,,,66,92
102336,note_on,,,,,4,0,4,,,,,3,,,66,127
102428,note_off,,,,,92,0,8,,,,,7,,,45,0
102428,note_off,,,,,0,0,8,,,,,7,,,48,0
102432,note_on,,,,,4,0,8,,,,,7,,,54,60
102524,note_off,,,,,188,0,2,,,,,1,,,66,0
102524,note_off,,,,,188,0,6,,,,,5,,,57,0
102524,note_off,,,,,188,0,5,,,,,4,,,60,0
102524,note_off,,,,,92,0,8,,,,,7,,,54,0
102524,note_off,,,,,188,0,4,,,,,3,,,66,0
102524,note_off,,,,,188,0,7,,,,,6,,,45,0
102528,note_on,,,,,0,0,8,,,,,7,,,50,60
102528,note_on,,,,,4,0,8,,,,,7,,,47,60
102528,note_on,,,,,4,0,5,,,,,4,,,62,92
102528,note_on,,,,,4,0,4,,,,,3,,,67,127
102528,note_on,,,,,4,0,7,,,,,6,,,47,75
102528,note_on,,,,,4,0,2,,,,,1,,,67,92
102528,note_on,,,,,4,0,6,,,,,5,,,59,92
102620,note_off,,,,,0,0,8,,,,,7,,,50,0
102620,note_off,,,,,92,0,8,,,,,7,,,47,0
102624,note_on,,,,,4,0,8,,,,,7,,,55,60
102716,note_off,,,,,92,0,8,,,,,7,,,55,0
102716,note_off,,,,,188,0,5,,,,,4,,,62,0
102720,note_on,,,,,4,0,5,,,,,4,,,74,92
102720,note_on,,,,,448,0,3,,,,,2,,,86,127
102720,note_on,,,,,448,0,1,,,,,0,,,86,92
102848,note_off,,,,,320,0,7,,,,,6,,,47,0
102848,note_off,,,,,320,0,2,,,,,1,,,67,0
102848,note_off,,,,,320,0,6,,,,,5,,,59,0
102848,note_off,,,,,320,0,4,,,,,3,,,67,0
102908,note_off,,,,,188,0,5,,,,,4,,,74,0
102908,note_off,,,,,188,0,3,,,,,2,,,86,0
102908,note_off,,,,,188,0,1,,,,,0,,,86,0
102912,note_on,,,,,196,0,8,,,,,7,,,45,60
102912,note_on,,,,,4,0,3,,,,,2,,,78,127
102912,note_on,,,,,64,0,7,,,,,6,,,45,75
102912,note_on,,,,,0,0,8,,,,,7,,,48,60
102912,note_on,,,,,4,0,1,,,,,0,,,78,92
102912,note_on,,,,,64,0,6,,,,,5,,,57,92
102912,note_on,,,,,4,0,5,,,,,4,,,72,92
103004,note_off,,,,,0,0,8,,,,,7,,,48,0
103004,note_off,,,,,92,0,8,,,,,7,,,45,0
103008,note_on,,,,,4,0,8,,,,,7,,,54,60
103100,note_off,,,,,92,0,8,,,,,7,,,54,0
103100,note_off,,,,,188,0,5,,,,,4,,,72,0
103100,note_off,,,,,188,0,6,,,,,5,,,57,0
103100,note_off,,,,,188,0,3,,,,,2,,,78,0
103100,note_off,,,,,188,0,7,,,,,6,,,45,0
103100,note_off,,,,,188,0,1,,,,,0,,,78,0
103104,note_on,,,,,4,0,7,,,,,6,,,43,75
103104,note_on,,,,,4,0,3,,,,,2,,,79,127
103104,note_on,,,,,4,0,6,,,,,5,,,55,92
103104,note_on,,,,,4,0,5,,,,,4,,,71,92
103104,note_on,,,,,4,0,1,,,,,0,,,79,92
103292,note_off,,,,,188,0,5,,,,,4,,,71,0
103296,note_on,,,,,448,0,2,,,,,1,,,74,92
103296,note_on,,,,,448,0,4,,,,,3,,,74,127
103296,note_on,,,,,4,0,5,,,,,4,,,59,92
103424,note_off,,,,,320,0,1,,,,,0,,,79,0
103424,note_off,,,,,320,0,3,,,,,2,,,79,0
103424,note_off,,,,,320,0,7,,,,,6,,,43,0
103424,note_off,,,,,320,0,6,,,,,5,,,55,0
103484,note_off,,,,,188,0,2,,,,,1,,,74,0
103484,note_off,,,,,188,0,5,,,,,4,,,59,0
103484,note_off,,,,,188,0,4,,,,,3,,,74,0
103488,note_on,,,,,4,0,5,,,,,4,,,60,92
103488,note_on,,,,,64,0,7,,,,,6,,,45,75
103488,note_on,,,,,4,0,4,,,,,3,,,66,127
103488,note_on,,,,,64,0,6,,,,,5,,,57,92
103488,note_on,,,,,4,0,2,,,,,1,,,66,92
103488,note_on,,,,,0,0,8,,,,,7,,,48,60
103488,note_on,,,,,388,0,8,,,,,7,,,45,60
103580,note_off,,,,,0,0,8,,,,,7,,,48,0
103580,note_off,,,,,92,0,8,,,,,7,,,45,0
103584,note_on,,,,,4,0,8,,,,,7,,,54,60
103676,note_off,,,,,92,0,8,,,,,7,,,54,0
103676,note_off,,,,,188,0,7,,,,,6,,,45,0
103676,note_off,,,,,188,0,6,,,,,5,,,57,0
103676,note_off,,,,,188,0,5,,,,,4,,,60,0
103676,note_off,,,,,188,0,2,,,,,1,,,66,0
103676,note_off,,,,,188,0,4,,,,,3,,,66,0
103680,note_on,,,,,4,0,8,,,,,7,,,47,60
103680,note_on,,,,,0,0,8,,,,,7,,,50,60
103680,note_on,,,,,4,0,7,,,,,6,,,47,75
103680,note_on,,,,,4,0,6,,,,,5,,,59,92
103680,note_on,,,,,256,0,1,,,,,0,,,67,92
103680,note_on,,,,,4,0,4,,,,,3,,,67,127
103680,note_on,,,,,4,0,2,,,,,1,,,67,92
103680,note_on,,,,,4,0,5,,,,,4,,,62,92
103680,note_on,,,,,256,0,3,,,,,2,,,67,127
103772,note_off,,,,,0,0,8,,,,,7,,,50,0
103772,note_off,,,,,92,0,8,,,,,7,,,47,0
103772,note_off,,,,,92,0,1,,,,,0,,,67,0
103772,note_off,,,,,92,0,3,,,,,2,,,67,0
103776,note_on,,,,,4,0,3,,,,,2,,,62,127
103776,note_on,,,,,4,0,8,,,,,7,,,55,60
103776,note_on,,,,,4,0,1,,,,,0,,,62,92
103868,note_off,,,,,92,0,3,,,,,2,,,62,0
103868,note_off,,,,,92,0,8,,,,,7,,,55,0
103868,note_off,,,,,92,0,1,,,,,0,,,62,0
103872,note_on,,,,,4,0,1,,,,,0,,,71,92
103872,note_on,,,,,4,0,3,,,,,2,,,71,127
103964,note_off,,,,,92,0,1,,,,,0,,,71,0
103964,note_off,,,,,92,0,3,,,,,2,,,71,0
103968,note_on,,,,,4,0,3,,,,,2,,,67,127
103968,note_on,,,,,4,0,1,,,,,0,,,67,92
104000,note_off,,,,,320,0,4,,,,,3,,,67,0
104000,note_off,,,,,320,0,6,,,,,5,,,59,0
104000,note_off,,,,,320,0,2,,,,,1,,,67,0
104000,note_off,,,,,320,0,5,,,,,4,,,62,0
104000,note_off,,,,,320,0,7,,,,,6,,,47,0
104060,note_off,,,,,92,0,1,,,,,0,,,67,0
104060,note_off,,,,,92,0,3,,,,,2,,,67,0
104064,note_on,,,,,4,0,1,,,,,0,,,74,92
104064,note_on,,,,,4,0,3,,,,,2,,,74,127
104156,note_off,,,,,92,0,1,,,,,0,,,74,0
104156,note_off,,,,,92,0,3,,,,,2,,,74,0
104160,note_on,,,,,4,0,1,,,,,0,,,71,92
104160,note_on,,,,,4,0,3,,,,,2,,,71,127
104252,note_off,,,,,92,0,3,,,,,2,,,71,0
104252,note_off,,,,,92,0,1,,,,,0,,,71,0
104256,note_on,,,,,4,0,3,,,,,2,,,79,127
104256,note_on,,,,,256,0,2,,,,,1,,,59,92
104256,note_on,,,,,256,0,4,,,,,3,,,59,127
104256,note_on,,,,,4,0,1,,,,,0,,,79,92
104348,note_off,,,,,92,0,2,,,,,1,,,59,0
104348,note_off,,,,,92,0,4,,,,,3,,,59,0
104352,note_on,,,,,4,0,2,,,,,1,,,55,92
104352,note_on,,,,,4,0,4,,,,,3,,,55,127
104444,note_off,,,,,92,0,2,,,,,1,,,55,0
104444,note_off,,,,,92,0,4,,,,,3,,,55,0
104448,note_on,,,,,4,0,2,,,,,1,,,62,92
104448,note_on,,,,,4,0,4,,,,,3,,,62,127
104540,note_off,,,,,92,0,2,,,,,1,,,62,0
104540,note_off,,,,,92,0,4,,,,,3,,,62,0
104544,note_on,,,,,4,0,2,,,,,1,,,59,92
104544,note_on,,,,,4,0,4,,,,,3,,,59,127
104576,note_off,,,,,320,0,1,,,,,0,,,79,0
104576,note_off,,,,,320,0,3,,,,,2,,,79,0
104636,note_off,,,,,92,0,2,,,,,1,,,59,0
104636,note_off,,,,,92,0,4,,,,,3,,,59,0
104640,note_on,,,,,4,0,2,,,,,1,,,67,92
104640,note_on,,,,,4,0,4,,,,,3,,,67,127
104732,note_off,,,,,92,0,2,,,,,1,,,67,0
104732,note_off,,,,,92,0,4,,,,,3,,,67,0
104736,note_on,,,,,4,0,2,,,,,1,,,62,92
104736,note_on,,,,,4,0,4,,,,,3,,,62,127
104828,note_off,,,,,92,0,2,,,,,1,,,62,0
104828,note_off,,,,,92,0,4,,,,,3,,,62,0
104832,note_on,,,,,256,0,3,,,,,2,,,67,127
104832,note_on,,,,,4,0,4,,,,,3,,,71,127
104832,note_on,,,,,832,0,7,,,,,6,,,43,75
104832,note_on,,,,,256,0,1,,,,,0,,,67,92
104832,note_on,,,,,4,0,2,,,,,1,,,71,92
104832,note_on,,,,,832,0,5,,,,,4,,,62,92
104832,note_on,,,,,832,0,6,,,,,5,,,55,92
104924,note_off,,,,,92,0,1,,,,,0,,,67,0
104924,note_off,,,,,92,0,3,,,,,2,,,67,0
104928,note_on,,,,,4,0,3,,,,,2,,,62,127
104928,note_on,,,,,4,0,1,,,,,0,,,62,92
105020,note_off,,,,,92,0,3,,,,,2,,,62,0
105020,note_off,,,,,92,0,1,,,,,0,,,62,0
105024,note_on,,,,,4,0,3,,,,,2,,,71,127
105024,note_on,,,,,4,0,1,,,,,0,,,71,92
105116,note_off,,,,,92,0,1,,,,,0,,,71,0
105116,note_off,,,,,92,0,3,,,,,2,,,71,0
105120,note_on,,,,,4,0,1,,,,,0,,,67,92
105120,note_on,,,,,4,0,3,,,,,2,,,67,127
105152,note_off,,,,,320,0,2,,,,,1,,,71,0
105152,note_off,,,,,320,0,4,,,,,3,,,71,0
105152,note_off,,,,,320,0,6,,,,,5,,,55,0
105152,note_off,,,,,320,0,5,,,,,4,,,62,0
105152,note_off,,,,,320,0,7,,,,,6,,,43,0
105212,note_off,,,,,92,0,1,,,,,0,,,67,0
105212,note_off,,,,,92,0,3,,,,,2,,,67,0
105216,note_on,,,,,4,0,3,,,,,2,,,74,127
105216,note_on,,,,,4,0,1,,,,,0,,,74,92
105308,note_off,,,,,92,0,3,,,,,2,,,74,0
105308,note_off,,,,,92,0,1,,,,,0,,,74,0
105312,note_on,,,,,4,0,3,,,,,2,,,71,127
105312,note_on,,,,,4,0,1,,,,,0,,,71,92
105404,note_off,,,,,92,0,1,,,,,0,,,71,0
105404,note_off,,,,,92,0,3,,,,,2,,,71,0
105408,note_on,,,,,4,0,1,,,,,0,,,79,92
105408,note_on,,,,,256,0,4,,,,,3,,,59,127
105408,note_on,,,,,4,0,3,,,,,2,,,79,127
105408,note_on,,,,,256,0,2,,,,,1,,,59,92
105500,note_off,,,,,92,0,2,,,,,1,,,59,0
105500,note_off,,,,,92,0,4,,,,,3,,,59,0
105504,note_on,,,,,4,0,2,,,,,1,,,55,92
105504,note_on,,,,,4,0,4,,,,,3,,,55,127
105596,note_off,,,,,92,0,2,,,,,1,,,55,0
105596,note_off,,,,,92,0,4,,,,,3,,,55,0
105600,note_on,,,,,4,0,2,,,,,1,,,62,92
105600,note_on,,,,,4,0,4,,,,,3,,,62,127
105692,note_off,,,,,92,0,4,,,,,3,,,62,0
105692,note_off,,,,,92,0,2,,,,,1,,,62,0
105696,note_on,,,,,4,0,2,,,,,1,,,59,92
105696,note_on,,,,,4,0,4,,,,,3,,,59,127
105728,note_off,,,,,320,0,1,,,,,0,,,79,0
105728,note_off,,,,,320,0,3,,,,,2,,,79,0
105788,note_off,,,,,92,0,2,,,,,1,,,59,0
105788,note_off,,,,,92,0,4,,,,,3,,,59,0
105792,note_on,,,,,4,0,4,,,,,3,,,67,127
105792,note_on,,,,,4,0,2,,,,,1,,,67,92
105884,note_off,,,,,92,0,4,,,,,3,,,67,0
105884,note_off,,,,,92,0,2,,,,,1,,,67,0
105888,note_on,,,,,4,0,4,,,,,3,,,62,127
105888,note_on,,,,,4,0,2,,,,,1,,,62,92
105980,note_off,,,,,92,0,2,,,,,1,,,62,0
105980,note_off,,,,,92,0,4,,,,,3,,,62,0
105984,note_on,,,,,832,0,7,,,,,6,,,43,75
105984,note_on,,,,,832,0,5,,,,,4,,,67,92
105984,note_on,,,,,832,0,6,,,,,5,,,55,92
105984,note_on,,,,,256,0,1,,,,,0,,,86,92
105984,note_on,,,,,256,0,3,,,,,2,,,86,127
105984,note_on,,,,,4,0,2,,,,,1,,,71,92
105984,note_on,,,,,4,0,4,,,,,3,,,71,127
106172,note_off,,,,,188,0,4,,,,,3,,,71,0
106172,note_off,,,,,188,0,2,,,,,1,,,71,0
106172,note_off,,,,,188,0,3,,,,,2,,,86,0
106172,note_off,,,,,188,0,5,,,,,4,,,67,0
106172,note_off,,,,,188,0,7,,,,,6,,,43,0
106172,note_off,,,,,188,0,6,,,,,5,,,55,0
106172,note_off,,,,,188,0,1,,,,,0,,,86,0
106176,note_on,,,,,4,0,1,,,,,0,,,84,92
106176,note_on,,,,,4,0,7,,,,,6,,,36,75
106176,note_on,,,,,4,0,4,,,,,3,,,76,127
106176,note_on,,,,,4,0,2,,,,,1,,,76,92
106176,note_on,,,,,4,0,5,,,,,4,,,67,92
106176,note_on,,,,,4,0,6,,,,,5,,,48,92
106176,note_on,,,,,4,0,3,,,,,2,,,84,127
106268,note_off,,,,,92,0,1,,,,,0,,,84,0
106268,note_off,,,,,92,0,2,,,,,1,,,76,0
106268,note_off,,,,,92,0,4,,,,,3,,,76,0
106268,note_off,,,,,92,0,3,,,,,2,,,84,0
106272,note_on,,,,,4,0,3,,,,,2,,,83,127
106272,note_on,,,,,4,0,4,,,,,3,,,74,127
106272,note_on,,,,,4,0,1,,,,,0,,,83,92
106272,note_on,,,,,4,0,2,,,,,1,,,74,92
106364,note_off,,,,,188,0,5,,,,,4,,,67,0
106364,note_off,,,,,92,0,3,,,,,2,,,83,0
106364,note_off,,,,,188,0,7,,,,,6,,,36,0
106364,note_off,,,,,92,0,2,,,,,1,,,74,0
106364,note_off,,,,,188,0,6,,,,,5,,,48,0
106364,note_off,,,,,92,0,1,,,,,0,,,83,0
106364,note_off,,,,,92,0,4,,,,,3,,,74,0
106368,note_on,,,,,4,0,7,,,,,6,,,48,75
106368,note_on,,,,,0,0,8,,,,,7,,,52,60
106368,note_on,,,,,2500,0,8,,,,,7,,,48,60
106368,note_on,,,,,4,0,1,,,,,0,,,81,92
106368,note_on,,,,,4,0,2,,,,,1,,,72,92
106368,note_on,,,,,4,0,5,,,,,4,,,69,92
106368,note_on,,,,,4,0,6,,,,,5,,,60,92
106368,note_on,,,,,4,0,4,,,,,3,,,72,127
106368,note_on,,,,,4,0,3,,,,,2,,,81,127
106460,note_off,,,,,92,0,3,,,,,2,,,81,0
106460,note_off,,,,,92,0,1,,,,,0,,,81,0
106460,note_off,,,,,92,0,4,,,,,3,,,72,0
106460,note_off,,,,,92,0,2,,,,,1,,,72,0
106460,note_off,,,,,92,0,8,,,,,7,,,48,0
106460,note_off,,,,,0,0,8,,,,,7,,,52,0
106464,note_on,,,,,4,0,8,,,,,7,,,57,60
106464,note_on,,,,,4,0,2,,,,,1,,,71,92
106464,note_on,,,,,4,0,1,,,,,0,,,79,92
106464,note_on,,,,,4,0,4,,,,,3,,,71,127
106464,note_on,,,,,4,0,3,,,,,2,,,79,127
106556,note_off,,,,,188,0,7,,,,,6,,,48,0
106556,note_off,,,,,92,0,4,,,,,3,,,71,0
106556,note_off,,,,,92,0,3,,,,,2,,,79,0
106556,note_off,,,,,188,0,5,,,,,4,,,69,0
106556,note_off,,,,,92,0,8,,,,,7,,,57,0
106556,note_off,,,,,188,0,6,,,,,5,,,60,0
106556,note_off,,,,,92,0,2,,,,,1,,,71,0
106556,note_off,,,,,92,0,1,,,,,0,,,79,0
106560,note_on,,,,,4,0,4,,,,,3,,,69,127
106560,note_on,,,,,4,0,1,,,,,0,,,78,92
106560,note_on,,,,,4,0,2,,,,,1,,,69,92
106560,note_on,,,,,4,0,3,,,,,2,,,78,127
106560,note_on,,,,,4,0,5,,,,,4,,,69,92
106560,note_on,,,,,4,0,6,,,,,5,,,62,92
106560,note_on,,,,,4,0,7,,,,,6,,,50,75
106652,note_off,,,,,92,0,3,,,,,2,,,78,0
106652,note_off,,,,,92,0,1,,,,,0,,,78,0
106656,note_on,,,,,4,0,3,,,,,2,,,76,127
106656,note_on,,,,,4,0,1,,,,,0,,,76,92
106748,note_off,,,,,188,0,7,,,,,6,,,50,0
106748,note_off,,,,,188,0,2,,,,,1,,,69,0
106748,note_off,,,,,92,0,3,,,,,2,,,76,0
106748,note_off,,,,,92,0,1,,,,,0,,,76,0
106748,note_off,,,,,188,0,5,,,,,4,,,69,0
106748,note_off,,,,,188,0,6,,,,,5,,,62,0
106748,note_off,,,,,188,0,4,,,,,3,,,69,0
106752,note_on,,,,,4,0,4,,,,,3,,,81,127
106752,note_on,,,,,4,0,3,,,,,2,,,74,127
106752,note_on,,,,,4,0,5,,,,,4,,,62,92
106752,note_on,,,,,4,0,6,,,,,5,,,54,92
106752,note_on,,,,,0,0,8,,,,,7,,,45,60
106752,note_on,,,,,4,0,1,,,,,0,,,74,92
106752,note_on,,,,,196,0,8,,,,,7,,,42,60
106752,note_on,,,,,4,0,7,,,,,6,,,42,75
106752,note_on,,,,,4,0,2,,,,,1,,,81,92
106844,note_off,,,,,92,0,3,,,,,2,,,74,0
106844,note_off,,,,,0,0,8,,,,,7,,,45,0
106844,note_off,,,,,92,0,1,,,,,0,,,74,0
106844,note_off,,,,,92,0,8,,,,,7,,,42,0
106848,note_on,,,,,4,0,1,,,,,0,,,84,92
106848,note_on,,,,,4,0,3,,,,,2,,,84,127
106848,note_on,,,,,4,0,8,,,,,7,,,50,60
106940,note_off,,,,,188,0,7,,,,,6,,,42,0
106940,note_off,,,,,92,0,8,,,,,7,,,50,0
106940,note_off,,,,,188,0,4,,,,,3,,,81,0
106940,note_off,,,,,188,0,6,,,,,5,,,54,0
106940,note_off,,,,,92,0,1,,,,,0,,,84,0
106940,note_off,,,,,188,0,5,,,,,4,,,62,0
106940,note_off,,,,,92,0,3,,,,,2,,,84,0
106940,note_off,,,,,188,0,2,,,,,1,,,81,0
106944,note_on,,,,,4,0,6,,,,,5,,,55,92
106944,note_on,,,,,4,0,5,,,,,4,,,62,92
106944,note_on,,,,,4,0,2,,,,,1,,,74,92
106944,note_on,,,,,4,0,7,,,,,6,,,43,75
106944,note_on,,,,,4,0,3,,,,,2,,,83,127
106944,note_on,,,,,4,0,1,,,,,0,,,83,92
106944,note_on,,,,,4,0,4,,,,,3,,,74,127
107132,note_off,,,,,188,0,2,,,,,1,,,74,0
107132,note_off,,,,,188,0,1,,,,,0,,,83,0
107132,note_off,,,,,188,0,4,,,,,3,,,74,0
107132,note_off,,,,,188,0,3,,,,,2,,,83,0
107132,note_off,,,,,188,0,6,,,,,5,,,55,0
107132,note_off,,,,,188,0,5,,,,,4,,,62,0
107132,note_off,,,,,188,0,7,,,,,6,,,43,0
107136,note_on,,,,,4,0,7,,,,,6,,,48,75
107136,note_on,,,,,4,0,2,,,,,1,,,76,92
107136,note_on,,,,,4,0,1,,,,,0,,,84,92
107136,note_on,,,,,0,0,8,,,,,7,,,52,60
107136,note_on,,,,,196,0,8,,,,,7,,,48,60
107136,note_on,,,,,4,0,4,,,,,3,,,76,127
107136,note_on,,,,,4,0,6,,,,,5,,,60,92
107136,note_on,,,,,4,0,5,,,,,4,,,69,92
107136,note_on,,,,,4,0,3,,,,,2,,,84,127
107228,note_off,,,,,92,0,3,,,,,2,,,84,0
107228,note_off,,,,,92,0,8,,,,,7,,,48,0
107228,note_off,,,,,92,0,1,,,,,0,,,84,0
107228,note_off,,,,,0,0,8,,,,,7,,,52,0
107232,note_on,,,,,4,0,3,,,,,2,,,81,127
107232,note_on,,,,,4,0,1,,,,,0,,,81,92
107232,note_on,,,,,4,0,8,,,,,7,,,57,60
107324,note_off,,,,,92,0,3,,,,,2,,,81,0
107324,note_off,,,,,188,0,4,,,,,3,,,76,0
107324,note_off,,,,,92,0,1,,,,,0,,,81,0
107324,note_off,,,,,188,0,5,,,,,4,,,69,0
107324,note_off,,,,,188,0,2,,,,,1,,,76,0
107324,note_off,,,,,92,0,8,,,,,7,,,57,0
107324,note_off,,,,,188,0,6,,,,,5,,,60,0
107324,note_off,,,,,188,0,7,,,,,6,,,48,0
107328,note_on,,,,,4,0,1,,,,,0,,,83,92
107328,note_on,,,,,4,0,5,,,,,4,,,62,92
107328,note_on,,,,,4,0,6,,,,,5,,,62,92
107328,note_on,,,,,0,0,8,,,,,7,,,55,60
107328,note_on,,,,,4,0,4,,,,,3,,,74,127
107328,note_on,,,,,4,0,3,,,,,2,,,83,127
107328,note_on,,,,,4,0,8,,,,,7,,,50,60
107328,note_on,,,,,4,0,2,,,,,1,,,74,92
107328,note_on,,,,,4,0,7,,,,,6,,,50,75
107420,note_off,,,,,92,0,1,,,,,0,,,83,0
107420,note_off,,,,,92,0,3,,,,,2,,,83,0
107420,note_off,,,,,92,0,4,,,,,3,,,74,0
107420,note_off,,,,,0,0,8,,,,,7,,,55,0
107420,note_off,,,,,92,0,8,,,,,7,,,50,0
107420,note_off,,,,,92,0,2,,,,,1,,,74,0
107424,note_on,,,,,4,0,8,,,,,7,,,57,60
107424,note_on,,,,,4,0,3,,,,,2,,,79,127
107424,note_on,,,,,4,0,1,,,,,0,,,79,92
107424,note_on,,,,,4,0,4,,,,,3,,,71,127
107424,note_on,,,,,4,0,2,,,,,1,,,71,92
107516,note_off,,,,,92,0,4,,,,,3,,,71,0
107516,note_off,,,,,92,0,3,,,,,2,,,79,0
107516,note_off,,,,,92,0,1,,,,,0,,,79,0
107516,note_off,,,,,92,0,2,,,,,1,,,71,0
107516,note_off,,,,,188,0,6,,,,,5,,,62,0
107516,note_off,,,,,188,0,5,,,,,4,,,62,0
107516,note_off,,,,,92,0,8,,,,,7,,,57,0
107516,note_off,,,,,188,0,7,,,,,6,,,50,0
107520,note_on,,,,,4,0,1,,,,,0,,,81,92
107520,note_on,,,,,4,0,5,,,,,4,,,62,92
107520,note_on,,,,,0,0,8,,,,,7,,,54,60
107520,note_on,,,,,4,0,8,,,,,7,,,50,60
107520,note_on,,,,,4,0,7,,,,,6,,,38,75
107520,note_on,,,,,4,0,2,,,,,1,,,72,92
107520,note_on,,,,,4,0,3,,,,,2,,,81,127
107520,note_on,,,,,4,0,6,,,,,5,,,50,92
107520,note_on,,,,,4,0,4,,,,,3,,,72,127
107612,note_off,,,,,92,0,8,,,,,7,,,50,0
107612,note_off,,,,,92,0,1,,,,,0,,,81,0
107612,note_off,,,,,0,0,8,,,,,7,,,54,0
107612,note_off,,,,,92,0,3,,,,,2,,,81,0
107612,note_off,,,,,92,0,4,,,,,3,,,72,0
107612,note_off,,,,,92,0,2,,,,,1,,,72,0
107616,note_on,,,,,4,0,4,,,,,3,,,69,127
107616,note_on,,,,,4,0,8,,,,,7,,,57,60
107616,note_on,,,,,4,0,3,,,,,2,,,78,127
107616,note_on,,,,,4,0,1,,,,,0,,,78,92
107616,note_on,,,,,4,0,2,,,,,1,,,69,92
107708,note_off,,,,,92,0,8,,,,,7,,,57,0
107708,note_off,,,,,92,0,4,,,,,3,,,69,0
107708,note_off,,,,,188,0,5,,,,,4,,,62,0
107708,note_off,,,,,92,0,1,,,,,0,,,78,0
107708,note_off,,,,,92,0,3,,,,,2,,,78,0
107708,note_off,,,,,188,0,7,,,,,6,,,38,0
107708,note_off,,,,,92,0,2,,,,,1,,,69,0
107708,note_off,,,,,188,0,6,,,,,5,,,50,0
107712,note_on,,,,,4,0,7,,,,,6,,,43,75
107712,note_on,,,,,4,0,6,,,,,5,,,55,92
107712,note_on,,,,,4,0,4,,,,,3,,,71,127
107712,note_on,,,,,4,0,5,,,,,4,,,62,92
107712,note_on,,,,,4,0,2,,,,,1,,,71,92
107712,note_on,,,,,4,0,3,,,,,2,,,79,127
107712,note_on,,,,,4,0,1,,,,,0,,,79,92
107804,note_off,,,,,92,0,3,,,,,2,,,79,0
107804,note_off,,,,,92,0,4,,,,,3,,,71,0
107804,note_off,,,,,92,0,1,,,,,0,,,79,0
107804,note_off,,,,,92,0,2,,,,,1,,,71,0
107808,note_on,,,,,4,0,3,,,,,2,,,71,127
107808,note_on,,,,,4,0,4,,,,,3,,,67,127
107808,note_on,,,,,4,0,1,,,,,0,,,71,92
107808,note_on,,,,,4,0,2,,,,,1,,,67,92
107900,note_off,,,,,92,0,4,,,,,3,,,67,0
107900,note_off,,,,,92,0,3,,,,,2,,,71,0
107900,note_off,,,,,92,0,1,,,,,0,,,71,0
107900,note_off,,,,,92,0,2,,,,,1,,,67,0
107904,note_on,,,,,4,0,1,,,,,0,,,72,92
107904,note_on,,,,,4,0,4,,,,,3,,,69,127
107904,note_on,,,,,4,0,2,,,,,1,,,69,92
107904,note_on,,,,,4,0,3,,,,,2,,,72,127
107996,note_off,,,,,92,0,1,,,,,0,,,72,0
107996,note_off,,,,,92,0,2,,,,,1,,,69,0
107996,note_off,,,,,92,0,4,,,,,3,,,69,0
107996,note_off,,,,,92,0,3,,,,,2,,,72,0
108000,note_on,,,,,4,0,4,,,,,3,,,71,127
108000,note_on,,,,,4,0,3,,,,,2,,,74,127
108000,note_on,,,,,4,0,1,,,,,0,,,74,92
108000,note_on,,,,,4,0,2,,,,,1,,,71,92
108032,note_off,,,,,320,0,7,,,,,6,,,43,0
108032,note_off,,,,,320,0,5,,,,,4,,,62,0
108032,note_off,,,,,320,0,6,,,,,5,,,55,0
108092,note_off,,,,,92,0,1,,,,,0,,,74,0
108092,note_off,,,,,92,0,4,,,,,3,,,71,0
108092,note_off,,,,,92,0,2,,,,,1,,,71,0
108092,note_off,,,,,92,0,3,,,,,2,,,74,0
108096,note_on,,,,,4,0,4,,,,,3,,,72,127
108096,note_on,,,,,4,0,3,,,,,2,,,76,127
108096,note_on,,,,,4,0,2,,,,,1,,,72,92
108096,note_on,,,,,4,0,1,,,,,0,,,76,92
108188,note_off,,,,,92,0,1,,,,,0,,,76,0
108188,note_off,,,,,92,0,3,,,,,2,,,76,0
108188,note_off,,,,,92,0,4,,,,,3,,,72,0
108188,note_off,,,,,92,0,2,,,,,1,,,72,0
108192,note_on,,,,,4,0,3,,,,,2,,,78,127
108192,note_on,,,,,4,0,1,,,,,0,,,78,92
108192,note_on,,,,,4,0,2,,,,,1,,,69,92
108192,note_on,,,,,4,0,4,,,,,3,,,69,127
108284,note_off,,,,,92,0,1,,,,,0,,,78,0
108284,note_off,,,,,92,0,4,,,,,3,,,69,0
108284,note_off,,,,,92,0,3,,,,,2,,,78,0
108284,note_off,,,,,92,0,2,,,,,1,,,69,0
108288,note_on,,,,,4,0,4,,,,,3,,,71,127
108288,note_on,,,,,256,0,5,,,,,4,,,62,92
108288,note_on,,,,,4,0,2,,,,,1,,,71,92
108288,note_on,,,,,4,0,3,,,,,2,,,79,127
108288,set_tempo,,,,,25344,1,0,,666666,,,,,,,
108288,note_on,,,,,256,0,6,,,,,5,,,43,92
108288,note_on,,,,,4,0,1,,,,,0,,,79,92
108288,note_on,,,,,256,0,7,,,,,6,,,31,75
108476,note_off,,,,,188,0,7,,,,,6,,,31,0
108476,note_off,,,,,188,0,2,,,,,1,,,71,0
108476,note_off,,,,,188,0,3,,,,,2,,,79,0
108476,note_off,,,,,188,0,1,,,,,0,,,79,0
108476,note_off,,,,,188,0,5,,,,,4,,,62,0
108476,note_off,,,,,188,0,6,,,,,5,,,43,0
108476,note_off,,,,,188,0,4,,,,,3,,,71,0
108480,note_on,,,,,4,0,6,,,,,5,,,45,92
108480,note_on,,,,,772,0,8,,,,,7,,,45,60
108480,note_on,,,,,4,0,1,,,,,0,,,78,92
108480,note_on,,,,,4,0,5,,,,,4,,,60,92
108480,note_on,,,,,4,0,3,,,,,2,,,78,127
108480,note_on,,,,,4,0,2,,,,,1,,,69,92
108480,note_on,,,,,4,0,7,,,,,6,,,33,75
108480,note_on,,,,,4,0,4,,,,,3,,,69,127
108480,note_on,,,,,0,0,8,,,,,7,,,48,60
108572,note_off,,,,,92,0,4,,,,,3,,,69,0
108572,note_off,,,,,92,0,2,,,,,1,,,69,0
108572,note_off,,,,,92,0,1,,,,,0,,,78,0
108572,note_off,,,,,0,0,8,,,,,7,,,48,0
108572,note_off,,,,,92,0,8,,,,,7,,,45,0
108572,note_off,,,,,92,0,3,,,,,2,,,78,0
108576,note_on,,,,,4,0,4,,,,,3,,,67,127
108576,note_on,,,,,4,0,3,,,,,2,,,76,127
108576,note_on,,,,,4,0,1,,,,,0,,,76,92
108576,note_on,,,,,4,0,8,,,,,7,,,54,60
108576,note_on,,,,,4,0,2,,,,,1,,,67,92
108668,note_off,,,,,92,0,4,,,,,3,,,67,0
108668,note_off,,,,,92,0,8,,,,,7,,,54,0
108668,note_off,,,,,92,0,1,,,,,0,,,76,0
108668,note_off,,,,,92,0,3,,,,,2,,,76,0
108668,note_off,,,,,188,0,7,,,,,6,,,33,0
108668,note_off,,,,,188,0,6,,,,,5,,,45,0
108668,note_off,,,,,188,0,5,,,,,4,,,60,0
108668,note_off,,,,,92,0,2,,,,,1,,,67,0
108672,note_on,,,,,4,0,2,,,,,1,,,66,92
108672,note_on,,,,,4,0,7,,,,,6,,,45,75
108672,note_on,,,,,4,0,1,,,,,0,,,74,92
108672,note_on,,,,,4,0,5,,,,,4,,,69,92
108672,note_on,,,,,4,0,3,,,,,2,,,74,127
108672,note_on,,,,,4,0,6,,,,,5,,,57,92
108672,note_on,,,,,4,0,4,,,,,3,,,66,127
108764,note_off,,,,,92,0,2,,,,,1,,,66,0
108764,note_off,,,,,92,0,3,,,,,2,,,74,0
108764,note_off,,,,,92,0,4,,,,,3,,,66,0
108764,note_off,,,,,92,0,1,,,,,0,,,74,0
108768,note_on,,,,,4,0,2,,,,,1,,,69,92
108768,note_on,,,,,4,0,4,,,,,3,,,69,127
108768,note_on,,,,,4,0,3,,,,,2,,,72,127
108768,note_on,,,,,4,0,1,,,,,0,,,72,92
108860,note_off,,,,,92,0,1,,,,,0,,,72,0
108860,note_off,,,,,92,0,4,,,,,3,,,69,0
108860,note_off,,,,,188,0,5,,,,,4,,,69,0
108860,note_off,,,,,188,0,6,,,,,5,,,57,0
108860,note_off,,,,,188,0,7,,,,,6,,,45,0
108860,note_off,,,,,92,0,3,,,,,2,,,72,0
108860,note_off,,,,,92,0,2,,,,,1,,,69,0
108864,note_on,,,,,4,0,3,,,,,2,,,71,127
108864,note_on,,,,,4,0,4,,,,,3,,,67,127
108864,note_on,,,,,4,0,1,,,,,0,,,71,92
108864,note_on,,,,,0,0,8,,,,,7,,,50,60
108864,note_on,,,,,4,0,6,,,,,5,,,59,92
108864,note_on,,,,,196,0,8,,,,,7,,,47,60
108864,note_on,,,,,4,0,7,,,,,6,,,47,75
108864,note_on,,,,,4,0,5,,,,,4,,,62,92
108864,note_on,,,,,4,0,2,,,,,1,,,67,92
108956,note_off,,,,,92,0,3,,,,,2,,,71,0
108956,note_off,,,,,92,0,2,,,,,1,,,67,0
108956,note_off,,,,,92,0,8,,,,,7,,,47,0
108956,note_off,,,,,0,0,8,,,,,7,,,50,0
108956,note_off,,,,,92,0,1,,,,,0,,,71,0
108956,note_off,,,,,92,0,4,,,,,3,,,67,0
108960,note_on,,,,,4,0,4,,,,,3,,,62,127
108960,note_on,,,,,4,0,1,,,,,0,,,67,92
108960,note_on,,,,,4,0,2,,,,,1,,,62,92
108960,note_on,,,,,4,0,3,,,,,2,,,67,127
108960,note_on,,,,,4,0,8,,,,,7,,,55,60
109052,note_off,,,,,92,0,1,,,,,0,,,67,0
109052,note_off,,,,,92,0,4,,,,,3,,,62,0
109052,note_off,,,,,92,0,3,,,,,2,,,67,0
109052,note_off,,,,,188,0,5,,,,,4,,,62,0
109052,note_off,,,,,92,0,2,,,,,1,,,62,0
109052,note_off,,,,,188,0,7,,,,,6,,,47,0
109052,note_off,,,,,92,0,8,,,,,7,,,55,0
109052,note_off,,,,,188,0,6,,,,,5,,,59,0
109056,note_on,,,,,0,0,8,,,,,7,,,48,60
109056,note_on,,,,,4,0,7,,,,,6,,,45,75
109056,note_on,,,,,4,0,8,,,,,7,,,45,60
109056,note_on,,,,,4,0,6,,,,,5,,,57,92
109056,note_on,,,,,4,0,3,,,,,2,,,72,127
109056,note_on,,,,,4,0,5,,,,,4,,,60,92
109056,note_on,,,,,4,0,1,,,,,0,,,72,92
109056,note_on,,,,,4,0,4,,,,,3,,,64,127
109056,note_on,,,,,4,0,2,,,,,1,,,64,92
109148,note_off,,,,,92,0,3,,,,,2,,,72,0
109148,note_off,,,,,92,0,1,,,,,0,,,72,0
109148,note_off,,,,,0,0,8,,,,,7,,,48,0
109148,note_off,,,,,92,0,2,,,,,1,,,64,0
109148,note_off,,,,,92,0,8,,,,,7,,,45,0
109148,note_off,,,,,92,0,4,,,,,3,,,64,0
109152,note_on,,,,,4,0,8,,,,,7,,,54,60
109152,note_on,,,,,4,0,4,,,,,3,,,66,127
109152,note_on,,,,,4,0,3,,,,,2,,,69,127
109152,note_on,,,,,4,0,1,,,,,0,,,69,92
109152,note_on,,,,,4,0,2,,,,,1,,,66,92
109244,note_off,,,,,188,0,7,,,,,6,,,45,0
109244,end_of_track,,,,,0,1,8,,,,,,,,,
109244,note_off,,,,,188,0,5,,,,,4,,,60,0
109244,note_off,,,,,92,0,3,,,,,2,,,69,0
109244,note_off,,,,,92,0,8,,,,,7,,,54,0
109244,note_off,,,,,92,0,4,,,,,3,,,66,0
109244,note_off,,,,,92,0,2,,,,,1,,,66,0
109244,note_off,,,,,92,0,1,,,,,0,,,69,0
109244,note_off,,,,,188,0,6,,,,,5,,,57,0
109248,note_on,,,,,4,0,2,,,,,1,,,67,92
109248,note_on,,,,,4,0,6,,,,,5,,,55,92
109248,note_on,,,,,4,0,1,,,,,0,,,71,92
109248,note_on,,,,,4,0,4,,,,,3,,,67,127
109248,note_on,,,,,4,0,5,,,,,4,,,62,92
109248,note_on,,,,,4,0,7,,,,,6,,,43,75
109248,note_on,,,,,4,0,3,,,,,2,,,71,127
109340,note_off,,,,,92,0,4,,,,,3,,,67,0
109340,note_off,,,,,92,0,2,,,,,1,,,67,0
109344,note_on,,,,,4,0,2,,,,,1,,,62,92
109344,note_on,,,,,4,0,4,,,,,3,,,62,127
109436,note_off,,,,,188,0,1,,,,,0,,,71,0
109436,note_off,,,,,92,0,2,,,,,1,,,62,0
109436,note_off,,,,,188,0,3,,,,,2,,,71,0
109436,note_off,,,,,92,0,4,,,,,3,,,62,0
109436,note_off,,,,,188,0,5,,,,,4,,,62,0
109436,note_off,,,,,188,0,7,,,,,6,,,43,0
109436,note_off,,,,,188,0,6,,,,,5,,,55,0
109440,note_on,,,,,4,0,4,,,,,3,,,60,127
109440,note_on,,,,,4,0,5,,,,,4,,,64,92
109440,note_on,,,,,4,0,1,,,,,0,,,69,92
109440,note_on,,,,,4,0,7,,,,,6,,,36,75
109440,note_on,,,,,4,0,3,,,,,2,,,69,127
109440,note_on,,,,,4,0,6,,,,,5,,,48,92
109440,note_on,,,,,4,0,2,,,,,1,,,60,92
109532,note_off,,,,,92,0,2,,,,,1,,,60,0
109532,note_off,,,,,92,0,1,,,,,0,,,69,0
109532,note_off,,,,,92,0,4,,,,,3,,,60,0
109532,note_off,,,,,92,0,3,,,,,2,,,69,0
109536,note_on,,,,,4,0,4,,,,,3,,,59,127
109536,note_on,,,,,4,0,2,,,,,1,,,59,92
109536,note_on,,,,,4,0,3,,,,,2,,,67,127
109536,note_on,,,,,4,0,1,,,,,0,,,67,92
109628,note_off,,,,,92,0,3,,,,,2,,,67,0
109628,note_off,,,,,188,0,6,,,,,5,,,48,0
109628,note_off,,,,,188,0,5,,,,,4,,,64,0
109628,note_off,,,,,92,0,1,,,,,0,,,67,0
109628,note_off,,,,,92,0,4,,,,,3,,,59,0
109628,note_off,,,,,92,0,2,,,,,1,,,59,0
109628,note_off,,,,,188,0,7,,,,,6,,,36,0
109632,note_on,,,,,4,0,6,,,,,5,,,50,92
109632,note_on,,,,,4,0,3,,,,,2,,,66,127
109632,note_on,,,,,4,0,5,,,,,4,,,62,92
109632,note_on,,,,,4,0,2,,,,,1,,,57,92
109632,note_on,,,,,4,0,4,,,,,3,,,57,127
109632,note_on,,,,,4,0,1,,,,,0,,,66,92
109632,note_on,,,,,4,0,7,,,,,6,,,38,75
109820,note_off,,,,,188,0,7,,,,,6,,,38,0
109820,note_off,,,,,188,0,6,,,,,5,,,50,0
109820,note_off,,,,,188,0,4,,,,,3,,,57,0
109820,note_off,,,,,188,0,5,,,,,4,,,62,0
109820,note_off,,,,,188,0,2,,,,,1,,,57,0
109824,note_on,,,,,4,0,7,,,,,6,,,26,75
109824,note_on,,,,,4,0,2,,,,,1,,,62,92
109824,note_on,,,,,4,0,6,,,,,5,,,38,92
109824,note_on,,,,,4,0,5,,,,,4,,,62,92
109824,note_on,,,,,4,0,4,,,,,3,,,62,127
109916,note_off,,,,,284,0,1,,,,,0,,,66,0
109916,note_off,,,,,284,0,3,,,,,2,,,66,0
109920,note_on,,,,,4,0,3,,,,,2,,,67,127
109920,note_on,,,,,4,0,1,,,,,0,,,67,92
110012,note_off,,,,,188,0,7,,,,,6,,,26,0
110012,note_off,,,,,188,0,2,,,,,1,,,62,0
110012,note_off,,,,,188,0,5,,,,,4,,,62,0
110012,note_off,,,,,92,0,3,,,,,2,,,67,0
110012,note_off,,,,,188,0,4,,,,,3,,,62,0
110012,note_off,,,,,92,0,1,,,,,0,,,67,0
110012,note_off,,,,,188,0,6,,,,,5,,,38,0
110016,note_on,,,,,4,0,6,,,,,5,,,43,92
110016,note_on,,,,,4,0,5,,,,,4,,,62,92
110016,note_on,,,,,4,0,2,,,,,1,,,59,92
110016,end_of_track,,,,,0,1,0,,,,,,,,,
110016,set_tempo,,,,,1728,1,0,,1000000,,,,,,,
110016,note_on,,,,,4,0,4,,,,,3,,,59,127
110016,note_on,,,,,4,0,3,,,,,2,,,67,127
110016,note_on,,,,,4,0,7,,,,,6,,,31,75
110016,note_on,,,,,4,0,1,,,,,0,,,67,92
110528,note_off,,,,,512,0,7,,,,,6,,,31,0
110528,note_off,,,,,512,0,1,,,,,0,,,67,0
110528,end_of_track,,,,,0,1,7,,,,,,,,,
110528,note_off,,,,,512,0,3,,,,,2,,,67,0
110528,end_of_track,,,,,0,1,3,,,,,,,,,
110528,note_off,,,,,512,0,4,,,,,3,,,59,0
110528,end_of_track,,,,,0,1,4,,,,,,,,,
110528,end_of_track,,,,,0,1,2,,,,,,,,,
110528,note_off,,,,,512,0,5,,,,,4,,,62,0
110528,end_of_track,,,,,0,1,5,,,,,,,,,
110528,note_off,,,,,512,0,6,,,,,5,,,43,0
110528,end_of_track,,,,,0,1,6,,,,,,,,,
110528,end_of_track,,,,,0,1,1,,,,,,,,,
110528,note_off,,,,,512,0,2,,,,,1,,,59,0
