tick,type,numerator,denominator,clocks_per_click,notated_32nd_notes_per_beat,time,meta,track,data,tempo,control,value,channel,program,key,note,velocity
0,time_signature,4,4,96,8,0,1,0,,,,,,,,,
0,control_change,,,,,0,0,6,,,10,21,5,,,,
0,control_change,,,,,0,0,6,,,0,0,5,,,,
0,track_name,,,,,0,1,6,,,,,,,,,
0,key_signature,,,,,0,1,5,,,,,,,Em,,
0,program_change,,,,,0,0,5,,,,,4,41,,,
0,control_change,,,,,0,0,5,,,7,127,4,,,,
0,control_change,,,,,0,0,5,,,121,0,4,,,,
0,control_change,,,,,0,0,5,,,10,105,4,,,,
0,control_change,,,,,0,0,5,,,0,0,4,,,,
0,track_name,,,,,0,1,5,,,,,,,,,
0,key_signature,,,,,0,1,15,,,,,,,C,,
0,key_signature,,,,,0,1,4,,,,,,,Em,,
0,program_change,,,,,0,0,4,,,,,3,48,,,
0,control_change,,,,,0,0,4,,,7,127,3,,,,
0,control_change,,,,,0,0,6,,,121,0,5,,,,
0,control_change,,,,,0,0,4,,,121,0,3,,,,
0,control_change,,,,,0,0,4,,,0,0,3,,,,
0,track_name,,,,,0,1,4,,,,,,,,,
0,key_signature,,,,,0,1,3,,,,,,,Em,,
0,program_change,,,,,0,0,3,,,,,2,48,,,
0,control_change,,,,,0,0,3,,,7,127,2,,,,
0,control_change,,,,,0,0,3,,,121,0,2,,,,
0,control_change,,,,,0,0,3,,,10,24,2,,,,
0,control_change,,,,,0,0,3,,,0,0,2,,,,
0,track_name,,,,,0,1,3,,,,,,,,,
0,key_signature,,,,,0,1,2,,,,,,,Em,,
0,program_change,,,,,0,0,2,,,,,1,40,,,
0,control_change,,,,,0,0,2,,,7,127,1,,,,
0,control_change,,,,,0,0,2,,,121,0,1,,,,
0,control_change,,,,,0,0,2,,,10,109,1,,,,
0,control_change,,,,,0,0,4,,,10,105,3,,,,
0,control_change,,,,,0,0,6,,,7,127,5,,,,
0,program_change,,,,,0,0,6,,,,,5,42,,,
0,key_signature,,,,,0,1,6,,,,,,,Em,,
0,end_of_track,,,,,0,1,14,,,,,,,,,
0,key_signature,,,,,0,1,14,,,,,,,C,,
0,end_of_track,,,,,0,1,13,,,,,,,,,
0,key_signature,,,,,0,1,13,,,,,,,C,,
0,track_name,,,,,0,1,13,,,,,,,,,
0,end_of_track,,,,,0,1,12,,,,,,,,,
0,key_signature,,,,,0,1,12,,,,,,,C,,
0,track_name,,,,,0,1,12,,,,,,,,,
0,end_of_track,,,,,0,1,11,,,,,,,,,
0,key_signature,,,,,0,1,11,,,,,,,C,,
0,track_name,,,,,0,1,11,,,,,,,,,
0,end_of_track,,,,,0,1,10,,,,,,,,,
0,key_signature,,,,,0,1,10,,,,,,,C,,
0,track_name,,,,,0,1,10,,,,,,,,,
0,end_of_track,,,,,0,1,9,,,,,,,,,
0,key_signature,,,,,0,1,9,,,,,,,C,,
0,track_name,,,,,0,1,9,,,,,,,,,
0,track_name,,,,,0,1,7,,,,,,,,,
0,control_change,,,,,0,0,7,,,0,0,6,,,,
0,control_change,,,,,0,0,7,,,10,63,6,,,,
0,control_change,,,,,0,0,7,,,121,0,6,,,,
0,control_change,,,,,0,0,7,,,7,127,6,,,,
0,program_change,,,,,0,0,7,,,,,6,43,,,
0,control_change,,,,,0,0,2,,,0,0,1,,,,
0,key_signature,,,,,0,1,7,,,,,,,Em,,
0,control_change,,,,,0,0,8,,,0,0,7,,,,
0,control_change,,,,,0,0,8,,,10,63,7,,,,
0,control_change,,,,,0,0,8,,,121,0,7,,,,
0,control_change,,,,,0,0,8,,,7,127,7,,,,
0,program_change,,,,,0,0,8,,,,,7,6,,,
0,key_signature,,,,,0,1,8,,,,,,,Em,,
0,track_name,,,,,0,1,8,,,,,,,,,
0,track_name,,,,,0,1,2,,,,,,,,,
0,end_of_track,,,,,0,1,15,,,,,,,,,
0,set_tempo,,,,,0,1,0,,545454,,,,,,,
0,end_of_track,,,,,0,1,0,,,,,,,,,
0,track_name,,,,,0,1,1,,,,,,,,,
0,control_change,,,,,0,0,1,,,0,0,0,,,,
0,control_change,,,,,0,0,1,,,10,21,0,,,,
0,sequencer_specific,,,,,0,1,0,"(0, 0, 65)",,,,,,,,
0,control_change,,,,,0,0,1,,,121,0,0,,,,
0,control_change,,,,,0,0,1,,,7,127,0,,,,
0,program_change,,,,,0,0,1,,,,,0,40,,,
0,key_signature,,,,,0,1,1,,,,,,,Em,,
1344,note_on,,,,,1344,0,7,,,,,6,,,47,77
1344,note_on,,,,,1344,0,8,,,,,7,,,59,63
1344,note_on,,,,,1344,0,6,,,,,5,,,59,86
1344,note_on,,,,,1344,0,5,,,,,4,,,71,87
1344,note_on,,,,,1344,0,2,,,,,1,,,71,93
1344,note_on,,,,,1344,0,1,,,,,0,,,71,93
1344,note_on,,,,,1344,0,3,,,,,2,,,71,125
1344,note_on,,,,,1344,0,4,,,,,3,,,71,125
1532,note_off,,,,,188,0,1,,,,,0,,,71,59
1532,note_off,,,,,188,0,5,,,,,4,,,71,55
1532,note_off,,,,,188,0,2,,,,,1,,,71,59
1532,note_off,,,,,188,0,7,,,,,6,,,47,51
1532,note_off,,,,,188,0,6,,,,,5,,,59,57
1532,note_off,,,,,188,0,3,,,,,2,,,71,79
1532,note_off,,,,,188,0,8,,,,,7,,,59,32
1532,note_off,,,,,188,0,4,,,,,3,,,71,79
1536,note_on,,,,,4,0,1,,,,,0,,,76,93
1536,note_on,,,,,4,0,6,,,,,5,,,64,86
1536,note_on,,,,,4,0,4,,,,,3,,,76,125
1536,note_on,,,,,4,0,8,,,,,7,,,64,63
1536,note_on,,,,,4,0,7,,,,,6,,,52,77
1536,note_on,,,,,4,0,5,,,,,4,,,76,87
1536,note_on,,,,,4,0,3,,,,,2,,,76,125
1536,note_on,,,,,4,0,2,,,,,1,,,76,93
1724,note_off,,,,,188,0,8,,,,,7,,,64,32
1724,note_off,,,,,188,0,7,,,,,6,,,52,51
1724,note_off,,,,,188,0,6,,,,,5,,,64,57
1724,note_off,,,,,188,0,2,,,,,1,,,76,59
1724,note_off,,,,,188,0,3,,,,,2,,,76,79
1724,note_off,,,,,188,0,4,,,,,3,,,76,79
1724,note_off,,,,,188,0,5,,,,,4,,,76,55
1724,note_off,,,,,188,0,1,,,,,0,,,76,59
1728,note_on,,,,,4,0,8,,,,,7,,,55,63
1728,note_on,,,,,4,0,2,,,,,1,,,67,93
1728,note_on,,,,,4,0,3,,,,,2,,,67,125
1728,note_on,,,,,4,0,5,,,,,4,,,67,87
1728,note_on,,,,,4,0,1,,,,,0,,,67,93
1728,note_on,,,,,4,0,4,,,,,3,,,67,125
1728,note_on,,,,,4,0,7,,,,,6,,,43,77
1728,note_on,,,,,4,0,6,,,,,5,,,55,86
1916,note_off,,,,,188,0,1,,,,,0,,,67,59
1916,note_off,,,,,188,0,4,,,,,3,,,67,79
1916,note_off,,,,,188,0,3,,,,,2,,,67,79
1916,note_off,,,,,188,0,7,,,,,6,,,43,51
1916,note_off,,,,,188,0,5,,,,,4,,,67,55
1916,note_off,,,,,188,0,6,,,,,5,,,55,57
1916,note_off,,,,,188,0,2,,,,,1,,,67,59
1916,note_off,,,,,188,0,8,,,,,7,,,55,32
1920,note_on,,,,,4,0,7,,,,,6,,,42,77
1920,note_on,,,,,4,0,2,,,,,1,,,66,93
1920,note_on,,,,,4,0,4,,,,,3,,,66,125
1920,note_on,,,,,4,0,1,,,,,0,,,66,93
1920,note_on,,,,,4,0,8,,,,,7,,,54,63
1920,note_on,,,,,4,0,5,,,,,4,,,66,87
1920,note_on,,,,,4,0,3,,,,,2,,,66,125
1920,note_on,,,,,4,0,6,,,,,5,,,54,86
2108,note_off,,,,,188,0,2,,,,,1,,,66,59
2108,note_off,,,,,188,0,5,,,,,4,,,66,55
2108,note_off,,,,,188,0,7,,,,,6,,,42,51
2108,note_off,,,,,188,0,6,,,,,5,,,54,57
2108,note_off,,,,,188,0,3,,,,,2,,,66,79
2108,note_off,,,,,188,0,8,,,,,7,,,54,32
2108,note_off,,,,,188,0,4,,,,,3,,,66,79
2108,note_off,,,,,188,0,1,,,,,0,,,66,59
2112,note_on,,,,,4,0,5,,,,,4,,,75,87
2112,note_on,,,,,4,0,3,,,,,2,,,75,125
2112,note_on,,,,,4,0,4,,,,,3,,,75,125
2112,note_on,,,,,4,0,8,,,,,7,,,63,63
2112,note_on,,,,,4,0,6,,,,,5,,,63,86
2112,note_on,,,,,4,0,7,,,,,6,,,51,77
2112,note_on,,,,,4,0,1,,,,,0,,,75,93
2112,note_on,,,,,4,0,2,,,,,1,,,75,93
2300,note_off,,,,,188,0,1,,,,,0,,,75,59
2300,note_off,,,,,188,0,8,,,,,7,,,63,32
2300,note_off,,,,,188,0,6,,,,,5,,,63,57
2300,note_off,,,,,188,0,4,,,,,3,,,75,79
2300,note_off,,,,,188,0,5,,,,,4,,,75,55
2300,note_off,,,,,188,0,2,,,,,1,,,75,59
2300,note_off,,,,,188,0,7,,,,,6,,,51,51
2300,note_off,,,,,188,0,3,,,,,2,,,75,79
2304,note_on,,,,,4,0,5,,,,,4,,,76,87
2304,note_on,,,,,4,0,4,,,,,3,,,76,125
2304,note_on,,,,,4,0,7,,,,,6,,,52,77
2304,note_on,,,,,4,0,3,,,,,2,,,76,125
2304,note_on,,,,,4,0,8,,,,,7,,,64,63
2304,note_on,,,,,4,0,2,,,,,1,,,76,93
2304,note_on,,,,,4,0,1,,,,,0,,,76,93
2304,note_on,,,,,4,0,6,,,,,5,,,64,86
2492,note_off,,,,,188,0,3,,,,,2,,,76,79
2492,note_off,,,,,188,0,4,,,,,3,,,76,79
2492,note_off,,,,,188,0,7,,,,,6,,,52,51
2492,note_off,,,,,188,0,2,,,,,1,,,76,59
2492,note_off,,,,,188,0,8,,,,,7,,,64,32
2492,note_off,,,,,188,0,5,,,,,4,,,76,55
2492,note_off,,,,,188,0,1,,,,,0,,,76,59
2492,note_off,,,,,188,0,6,,,,,5,,,64,57
2496,note_on,,,,,4,0,1,,,,,0,,,64,93
2496,note_on,,,,,4,0,2,,,,,1,,,64,93
2496,note_on,,,,,4,0,5,,,,,4,,,64,87
2496,note_on,,,,,4,0,4,,,,,3,,,64,125
2496,note_on,,,,,4,0,3,,,,,2,,,64,125
2496,note_on,,,,,4,0,7,,,,,6,,,40,77
2496,note_on,,,,,4,0,6,,,,,5,,,52,86
2496,note_on,,,,,4,0,8,,,,,7,,,52,63
2588,note_off,,,,,92,0,7,,,,,6,,,40,51
2588,note_off,,,,,92,0,6,,,,,5,,,52,57
2588,note_off,,,,,92,0,4,,,,,3,,,64,79
2588,note_off,,,,,92,0,1,,,,,0,,,64,59
2588,note_off,,,,,92,0,5,,,,,4,,,64,55
2588,note_off,,,,,92,0,2,,,,,1,,,64,59
2588,note_off,,,,,92,0,3,,,,,2,,,64,79
2592,note_on,,,,,4,0,5,,,,,4,,,66,87
2592,note_on,,,,,4,0,6,,,,,5,,,54,86
2592,note_on,,,,,4,0,1,,,,,0,,,66,93
2592,note_on,,,,,4,0,2,,,,,1,,,66,93
2592,note_on,,,,,4,0,7,,,,,6,,,42,77
2592,note_on,,,,,4,0,4,,,,,3,,,66,125
2592,note_on,,,,,4,0,3,,,,,2,,,66,125
2684,note_off,,,,,92,0,5,,,,,4,,,66,55
2684,note_off,,,,,92,0,6,,,,,5,,,54,57
2684,note_off,,,,,92,0,3,,,,,2,,,66,79
2684,note_off,,,,,188,0,8,,,,,7,,,52,32
2684,note_off,,,,,92,0,2,,,,,1,,,66,59
2684,note_off,,,,,92,0,7,,,,,6,,,42,51
2684,note_off,,,,,92,0,1,,,,,0,,,66,59
2684,note_off,,,,,92,0,4,,,,,3,,,66,79
2688,note_on,,,,,4,0,3,,,,,2,,,67,125
2688,note_on,,,,,4,0,4,,,,,3,,,67,125
2688,note_on,,,,,4,0,7,,,,,6,,,43,77
2688,note_on,,,,,4,0,5,,,,,4,,,67,87
2688,note_on,,,,,4,0,8,,,,,7,,,55,63
2688,note_on,,,,,4,0,2,,,,,1,,,67,93
2688,note_on,,,,,4,0,6,,,,,5,,,55,86
2688,note_on,,,,,4,0,1,,,,,0,,,67,93
2780,note_off,,,,,92,0,4,,,,,3,,,67,79
2780,note_off,,,,,92,0,2,,,,,1,,,67,59
2780,note_off,,,,,92,0,3,,,,,2,,,67,79
2780,note_off,,,,,92,0,7,,,,,6,,,43,51
2780,note_off,,,,,92,0,6,,,,,5,,,55,57
2780,note_off,,,,,92,0,5,,,,,4,,,67,55
2780,note_off,,,,,92,0,1,,,,,0,,,67,59
2784,note_on,,,,,4,0,5,,,,,4,,,69,87
2784,note_on,,,,,4,0,1,,,,,0,,,69,93
2784,note_on,,,,,4,0,6,,,,,5,,,57,86
2784,note_on,,,,,4,0,2,,,,,1,,,69,93
2784,note_on,,,,,4,0,3,,,,,2,,,69,125
2784,note_on,,,,,4,0,4,,,,,3,,,69,125
2784,note_on,,,,,4,0,7,,,,,6,,,45,77
2876,note_off,,,,,92,0,2,,,,,1,,,69,59
2876,note_off,,,,,92,0,5,,,,,4,,,69,55
2876,note_off,,,,,92,0,7,,,,,6,,,45,51
2876,note_off,,,,,92,0,1,,,,,0,,,69,59
2876,note_off,,,,,188,0,8,,,,,7,,,55,32
2876,note_off,,,,,92,0,3,,,,,2,,,69,79
2876,note_off,,,,,92,0,4,,,,,3,,,69,79
2876,note_off,,,,,92,0,6,,,,,5,,,57,57
2880,note_on,,,,,4,0,3,,,,,2,,,71,125
2880,note_on,,,,,4,0,7,,,,,6,,,47,77
2880,note_on,,,,,4,0,4,,,,,3,,,71,125
2880,note_on,,,,,4,0,8,,,,,7,,,59,63
2880,note_on,,,,,4,0,1,,,,,0,,,71,93
2880,note_on,,,,,4,0,5,,,,,4,,,71,87
2880,note_on,,,,,4,0,2,,,,,1,,,71,93
2880,note_on,,,,,4,0,6,,,,,5,,,59,86
2972,note_off,,,,,92,0,4,,,,,3,,,71,79
2972,note_off,,,,,92,0,5,,,,,4,,,71,55
2972,note_off,,,,,92,0,3,,,,,2,,,71,79
2972,note_off,,,,,92,0,6,,,,,5,,,59,57
2972,note_off,,,,,92,0,1,,,,,0,,,71,59
2972,note_off,,,,,92,0,2,,,,,1,,,71,59
2972,note_off,,,,,92,0,7,,,,,6,,,47,51
2976,note_on,,,,,4,0,1,,,,,0,,,73,93
2976,note_on,,,,,4,0,2,,,,,1,,,73,93
2976,note_on,,,,,4,0,6,,,,,5,,,61,86
2976,note_on,,,,,4,0,7,,,,,6,,,49,77
2976,note_on,,,,,4,0,3,,,,,2,,,73,125
2976,note_on,,,,,4,0,5,,,,,4,,,73,87
2976,note_on,,,,,4,0,4,,,,,3,,,73,125
3068,note_off,,,,,92,0,3,,,,,2,,,73,79
3068,note_off,,,,,92,0,5,,,,,4,,,73,55
3068,note_off,,,,,92,0,1,,,,,0,,,73,59
3068,note_off,,,,,92,0,6,,,,,5,,,61,57
3068,note_off,,,,,188,0,8,,,,,7,,,59,32
3068,note_off,,,,,92,0,7,,,,,6,,,49,51
3068,note_off,,,,,92,0,4,,,,,3,,,73,79
3068,note_off,,,,,92,0,2,,,,,1,,,73,59
3072,note_on,,,,,4,0,6,,,,,5,,,62,86
3072,note_on,,,,,4,0,3,,,,,2,,,74,125
3072,note_on,,,,,4,0,1,,,,,0,,,74,93
3072,note_on,,,,,4,0,2,,,,,1,,,74,93
3072,note_on,,,,,4,0,7,,,,,6,,,50,77
3072,note_on,,,,,4,0,8,,,,,7,,,62,63
3072,note_on,,,,,4,0,4,,,,,3,,,74,125
3072,note_on,,,,,4,0,5,,,,,4,,,74,87
3260,note_off,,,,,188,0,3,,,,,2,,,74,79
3260,note_off,,,,,188,0,8,,,,,7,,,62,32
3260,note_off,,,,,188,0,4,,,,,3,,,74,79
3260,note_off,,,,,188,0,2,,,,,1,,,74,59
3260,note_off,,,,,188,0,1,,,,,0,,,74,59
3260,note_off,,,,,188,0,6,,,,,5,,,62,57
3260,note_off,,,,,188,0,5,,,,,4,,,74,55
3260,note_off,,,,,188,0,7,,,,,6,,,50,51
3264,note_on,,,,,4,0,2,,,,,1,,,66,93
3264,note_on,,,,,4,0,6,,,,,5,,,54,86
3264,note_on,,,,,4,0,8,,,,,7,,,54,63
3264,note_on,,,,,4,0,5,,,,,4,,,66,87
3264,note_on,,,,,4,0,4,,,,,3,,,66,125
3264,note_on,,,,,4,0,3,,,,,2,,,66,125
3264,note_on,,,,,4,0,1,,,,,0,,,66,93
3264,note_on,,,,,4,0,7,,,,,6,,,42,77
3452,note_off,,,,,188,0,7,,,,,6,,,42,51
3452,note_off,,,,,188,0,6,,,,,5,,,54,57
3452,note_off,,,,,188,0,5,,,,,4,,,66,55
3452,note_off,,,,,188,0,4,,,,,3,,,66,79
3452,note_off,,,,,188,0,3,,,,,2,,,66,79
3452,note_off,,,,,188,0,2,,,,,1,,,66,59
3452,note_off,,,,,188,0,1,,,,,0,,,66,59
3452,note_off,,,,,188,0,8,,,,,7,,,54,32
3456,note_on,,,,,4,0,7,,,,,6,,,40,77
3456,note_on,,,,,4,0,6,,,,,5,,,52,86
3456,note_on,,,,,4,0,5,,,,,4,,,64,87
3456,note_on,,,,,4,0,2,,,,,1,,,64,93
3456,note_on,,,,,4,0,4,,,,,3,,,64,125
3456,note_on,,,,,4,0,1,,,,,0,,,64,93
3456,note_on,,,,,4,0,8,,,,,7,,,52,63
3456,note_on,,,,,4,0,3,,,,,2,,,64,125
3644,note_off,,,,,188,0,4,,,,,3,,,64,79
3644,note_off,,,,,188,0,6,,,,,5,,,52,57
3644,note_off,,,,,188,0,8,,,,,7,,,52,32
3644,note_off,,,,,188,0,2,,,,,1,,,64,59
3644,note_off,,,,,188,0,3,,,,,2,,,64,79
3644,note_off,,,,,188,0,7,,,,,6,,,40,51
3644,note_off,,,,,188,0,1,,,,,0,,,64,59
3644,note_off,,,,,188,0,5,,,,,4,,,64,55
3648,note_on,,,,,4,0,7,,,,,6,,,49,77
3648,note_on,,,,,4,0,1,,,,,0,,,73,93
3648,note_on,,,,,4,0,4,,,,,3,,,73,125
3648,note_on,,,,,4,0,3,,,,,2,,,73,125
3648,note_on,,,,,4,0,2,,,,,1,,,73,93
3648,note_on,,,,,4,0,6,,,,,5,,,61,86
3648,note_on,,,,,4,0,5,,,,,4,,,73,87
3648,note_on,,,,,4,0,8,,,,,7,,,61,63
3836,note_off,,,,,188,0,1,,,,,0,,,73,59
3836,note_off,,,,,188,0,4,,,,,3,,,73,79
3836,note_off,,,,,188,0,2,,,,,1,,,73,59
3836,note_off,,,,,188,0,6,,,,,5,,,61,57
3836,note_off,,,,,188,0,5,,,,,4,,,73,55
3836,note_off,,,,,188,0,8,,,,,7,,,61,32
3836,note_off,,,,,188,0,7,,,,,6,,,49,51
3836,note_off,,,,,188,0,3,,,,,2,,,73,79
3840,note_on,,,,,4,0,8,,,,,7,,,62,63
3840,note_on,,,,,4,0,2,,,,,1,,,74,93
3840,note_on,,,,,4,0,5,,,,,4,,,74,87
3840,note_on,,,,,4,0,1,,,,,0,,,74,93
3840,note_on,,,,,4,0,4,,,,,3,,,74,125
3840,note_on,,,,,4,0,6,,,,,5,,,62,86
3840,note_on,,,,,4,0,7,,,,,6,,,50,77
3840,note_on,,,,,4,0,3,,,,,2,,,74,125
4028,note_off,,,,,188,0,6,,,,,5,,,62,57
4028,note_off,,,,,188,0,3,,,,,2,,,74,79
4028,note_off,,,,,188,0,4,,,,,3,,,74,79
4028,note_off,,,,,188,0,1,,,,,0,,,74,59
4028,note_off,,,,,188,0,7,,,,,6,,,50,51
4028,note_off,,,,,188,0,2,,,,,1,,,74,59
4028,note_off,,,,,188,0,8,,,,,7,,,62,32
4028,note_off,,,,,188,0,5,,,,,4,,,74,55
4032,note_on,,,,,4,0,5,,,,,4,,,62,87
4032,note_on,,,,,4,0,4,,,,,3,,,62,125
4032,note_on,,,,,4,0,7,,,,,6,,,38,77
4032,note_on,,,,,4,0,3,,,,,2,,,62,125
4032,note_on,,,,,4,0,6,,,,,5,,,50,86
4032,note_on,,,,,4,0,8,,,,,7,,,50,63
4032,note_on,,,,,4,0,1,,,,,0,,,62,93
4032,note_on,,,,,4,0,2,,,,,1,,,62,93
4124,note_off,,,,,92,0,3,,,,,2,,,62,79
4124,note_off,,,,,92,0,6,,,,,5,,,50,57
4124,note_off,,,,,92,0,2,,,,,1,,,62,59
4124,note_off,,,,,92,0,7,,,,,6,,,38,51
4124,note_off,,,,,92,0,5,,,,,4,,,62,55
4124,note_off,,,,,92,0,4,,,,,3,,,62,79
4124,note_off,,,,,92,0,1,,,,,0,,,62,59
4128,note_on,,,,,4,0,3,,,,,2,,,64,125
4128,note_on,,,,,4,0,5,,,,,4,,,64,87
4128,note_on,,,,,4,0,6,,,,,5,,,52,86
4128,note_on,,,,,4,0,1,,,,,0,,,64,93
4128,note_on,,,,,4,0,4,,,,,3,,,64,125
4128,note_on,,,,,4,0,7,,,,,6,,,40,77
4128,note_on,,,,,4,0,2,,,,,1,,,64,93
4220,note_off,,,,,92,0,6,,,,,5,,,52,57
4220,note_off,,,,,92,0,3,,,,,2,,,64,79
4220,note_off,,,,,92,0,2,,,,,1,,,64,59
4220,note_off,,,,,92,0,7,,,,,6,,,40,51
4220,note_off,,,,,92,0,4,,,,,3,,,64,79
4220,note_off,,,,,92,0,1,,,,,0,,,64,59
4220,note_off,,,,,92,0,5,,,,,4,,,64,55
4220,note_off,,,,,188,0,8,,,,,7,,,50,32
4224,note_on,,,,,4,0,1,,,,,0,,,66,93
4224,note_on,,,,,4,0,2,,,,,1,,,66,93
4224,note_on,,,,,4,0,6,,,,,5,,,54,86
4224,note_on,,,,,4,0,3,,,,,2,,,66,125
4224,note_on,,,,,4,0,7,,,,,6,,,42,77
4224,note_on,,,,,4,0,5,,,,,4,,,66,87
4224,note_on,,,,,4,0,4,,,,,3,,,66,125
4224,note_on,,,,,4,0,8,,,,,7,,,54,63
4316,note_off,,,,,92,0,3,,,,,2,,,66,79
4316,note_off,,,,,92,0,2,,,,,1,,,66,59
4316,note_off,,,,,92,0,5,,,,,4,,,66,55
4316,note_off,,,,,92,0,7,,,,,6,,,42,51
4316,note_off,,,,,92,0,1,,,,,0,,,66,59
4316,note_off,,,,,92,0,4,,,,,3,,,66,79
4316,note_off,,,,,92,0,6,,,,,5,,,54,57
4320,note_on,,,,,4,0,3,,,,,2,,,67,125
4320,note_on,,,,,4,0,1,,,,,0,,,67,93
4320,note_on,,,,,4,0,5,,,,,4,,,67,87
4320,note_on,,,,,4,0,4,,,,,3,,,67,125
4320,note_on,,,,,4,0,7,,,,,6,,,43,77
4320,note_on,,,,,4,0,2,,,,,1,,,67,93
4320,note_on,,,,,4,0,6,,,,,5,,,55,86
4412,note_off,,,,,188,0,8,,,,,7,,,54,32
4412,note_off,,,,,92,0,5,,,,,4,,,67,55
4412,note_off,,,,,92,0,3,,,,,2,,,67,79
4412,note_off,,,,,92,0,2,,,,,1,,,67,59
4412,note_off,,,,,92,0,4,,,,,3,,,67,79
4412,note_off,,,,,92,0,1,,,,,0,,,67,59
4412,note_off,,,,,92,0,7,,,,,6,,,43,51
4412,note_off,,,,,92,0,6,,,,,5,,,55,57
4416,note_on,,,,,4,0,6,,,,,5,,,57,86
4416,note_on,,,,,4,0,8,,,,,7,,,57,63
4416,note_on,,,,,4,0,2,,,,,1,,,69,93
4416,note_on,,,,,4,0,4,,,,,3,,,69,125
4416,note_on,,,,,4,0,1,,,,,0,,,69,93
4416,note_on,,,,,4,0,7,,,,,6,,,45,77
4416,note_on,,,,,4,0,5,,,,,4,,,69,87
4416,note_on,,,,,4,0,3,,,,,2,,,69,125
4508,note_off,,,,,92,0,4,,,,,3,,,69,79
4508,note_off,,,,,92,0,5,,,,,4,,,69,55
4508,note_off,,,,,92,0,1,,,,,0,,,69,59
4508,note_off,,,,,92,0,7,,,,,6,,,45,51
4508,note_off,,,,,92,0,3,,,,,2,,,69,79
4508,note_off,,,,,92,0,2,,,,,1,,,69,59
4508,note_off,,,,,92,0,6,,,,,5,,,57,57
4512,note_on,,,,,4,0,1,,,,,0,,,71,93
4512,note_on,,,,,4,0,5,,,,,4,,,71,87
4512,note_on,,,,,4,0,3,,,,,2,,,71,125
4512,note_on,,,,,4,0,6,,,,,5,,,59,86
4512,note_on,,,,,4,0,4,,,,,3,,,71,125
4512,note_on,,,,,4,0,7,,,,,6,,,47,77
4512,note_on,,,,,4,0,2,,,,,1,,,71,93
4604,note_off,,,,,92,0,3,,,,,2,,,71,79
4604,note_off,,,,,92,0,2,,,,,1,,,71,59
4604,note_off,,,,,92,0,5,,,,,4,,,71,55
4604,note_off,,,,,92,0,6,,,,,5,,,59,57
4604,note_off,,,,,188,0,8,,,,,7,,,57,32
4604,note_off,,,,,92,0,4,,,,,3,,,71,79
4604,note_off,,,,,92,0,7,,,,,6,,,47,51
4604,note_off,,,,,92,0,1,,,,,0,,,71,59
4608,note_on,,,,,4,0,1,,,,,0,,,72,93
4608,note_on,,,,,4,0,5,,,,,4,,,72,87
4608,note_on,,,,,4,0,6,,,,,5,,,60,86
4608,note_on,,,,,4,0,8,,,,,7,,,60,63
4608,note_on,,,,,4,0,7,,,,,6,,,48,77
4608,note_on,,,,,4,0,2,,,,,1,,,72,93
4608,note_on,,,,,4,0,4,,,,,3,,,72,125
4608,note_on,,,,,4,0,3,,,,,2,,,72,125
4796,note_off,,,,,188,0,6,,,,,5,,,60,57
4796,note_off,,,,,188,0,2,,,,,1,,,72,59
4796,note_off,,,,,188,0,1,,,,,0,,,72,59
4796,note_off,,,,,188,0,7,,,,,6,,,48,51
4796,note_off,,,,,188,0,4,,,,,3,,,72,79
4796,note_off,,,,,188,0,3,,,,,2,,,72,79
4796,note_off,,,,,188,0,8,,,,,7,,,60,32
4796,note_off,,,,,188,0,5,,,,,4,,,72,55
4800,note_on,,,,,4,0,1,,,,,0,,,60,93
4800,note_on,,,,,4,0,7,,,,,6,,,36,77
4800,note_on,,,,,4,0,5,,,,,4,,,60,87
4800,note_on,,,,,4,0,2,,,,,1,,,60,93
4800,note_on,,,,,4,0,8,,,,,7,,,48,63
4800,note_on,,,,,4,0,6,,,,,5,,,48,86
4800,note_on,,,,,4,0,3,,,,,2,,,60,125
4800,note_on,,,,,4,0,4,,,,,3,,,60,125
4988,note_off,,,,,188,0,8,,,,,7,,,48,32
4988,note_off,,,,,188,0,7,,,,,6,,,36,51
4988,note_off,,,,,188,0,1,,,,,0,,,60,59
4988,note_off,,,,,188,0,6,,,,,5,,,48,57
4988,note_off,,,,,188,0,5,,,,,4,,,60,55
4988,note_off,,,,,188,0,3,,,,,2,,,60,79
4988,note_off,,,,,188,0,2,,,,,1,,,60,59
4988,note_off,,,,,188,0,4,,,,,3,,,60,79
4992,note_on,,,,,4,0,7,,,,,6,,,35,77
4992,note_on,,,,,4,0,3,,,,,2,,,59,125
4992,note_on,,,,,4,0,4,,,,,3,,,59,125
4992,note_on,,,,,4,0,8,,,,,7,,,47,63
4992,note_on,,,,,4,0,6,,,,,5,,,47,86
4992,note_on,,,,,4,0,1,,,,,0,,,59,93
4992,note_on,,,,,4,0,2,,,,,1,,,59,93
4992,note_on,,,,,4,0,5,,,,,4,,,59,87
5180,note_off,,,,,188,0,1,,,,,0,,,59,59
5180,note_off,,,,,188,0,2,,,,,1,,,59,59
5180,note_off,,,,,188,0,8,,,,,7,,,47,32
5180,note_off,,,,,188,0,3,,,,,2,,,59,79
5180,note_off,,,,,188,0,5,,,,,4,,,59,55
5180,note_off,,,,,188,0,4,,,,,3,,,59,79
5180,note_off,,,,,188,0,6,,,,,5,,,47,57
5180,note_off,,,,,188,0,7,,,,,6,,,35,51
5184,note_on,,,,,4,0,6,,,,,5,,,59,86
5184,note_on,,,,,4,0,3,,,,,2,,,71,125
5184,note_on,,,,,4,0,2,,,,,1,,,71,93
5184,note_on,,,,,4,0,1,,,,,0,,,71,93
5184,note_on,,,,,4,0,8,,,,,7,,,59,63
5184,note_on,,,,,4,0,7,,,,,6,,,47,77
5184,note_on,,,,,4,0,4,,,,,3,,,71,125
5184,note_on,,,,,4,0,5,,,,,4,,,71,87
5372,note_off,,,,,188,0,3,,,,,2,,,71,79
5372,note_off,,,,,188,0,1,,,,,0,,,71,59
5372,note_off,,,,,188,0,2,,,,,1,,,71,59
5372,note_off,,,,,188,0,5,,,,,4,,,71,55
5372,note_off,,,,,188,0,4,,,,,3,,,71,79
5372,note_off,,,,,188,0,7,,,,,6,,,47,51
5372,note_off,,,,,188,0,8,,,,,7,,,59,32
5372,note_off,,,,,188,0,6,,,,,5,,,59,57
5376,note_on,,,,,4,0,1,,,,,0,,,69,93
5376,note_on,,,,,4,0,8,,,,,7,,,57,63
5376,note_on,,,,,4,0,7,,,,,6,,,45,77
5376,note_on,,,,,4,0,4,,,,,3,,,69,125
5376,note_on,,,,,4,0,5,,,,,4,,,69,87
5376,note_on,,,,,4,0,3,,,,,2,,,69,125
5376,note_on,,,,,4,0,6,,,,,5,,,57,86
5376,note_on,,,,,4,0,2,,,,,1,,,69,93
5564,note_off,,,,,188,0,6,,,,,5,,,57,57
5564,note_off,,,,,188,0,3,,,,,2,,,69,79
5564,note_off,,,,,188,0,7,,,,,6,,,45,51
5564,note_off,,,,,188,0,8,,,,,7,,,57,32
5564,note_off,,,,,188,0,4,,,,,3,,,69,79
5564,note_off,,,,,188,0,5,,,,,4,,,69,55
5564,note_off,,,,,188,0,1,,,,,0,,,69,59
5564,note_off,,,,,188,0,2,,,,,1,,,69,59
5568,note_on,,,,,4,0,6,,,,,5,,,45,86
5568,note_on,,,,,4,0,7,,,,,6,,,33,77
5568,note_on,,,,,4,0,1,,,,,0,,,57,93
5568,note_on,,,,,4,0,5,,,,,4,,,57,87
5568,note_on,,,,,4,0,4,,,,,3,,,57,125
5568,note_on,,,,,4,0,3,,,,,2,,,57,125
5568,note_on,,,,,4,0,2,,,,,1,,,57,93
5568,note_on,,,,,4,0,8,,,,,7,,,45,63
5756,note_off,,,,,188,0,6,,,,,5,,,45,57
5756,note_off,,,,,188,0,2,,,,,1,,,57,59
5756,note_off,,,,,188,0,4,,,,,3,,,57,79
5756,note_off,,,,,188,0,1,,,,,0,,,57,59
5756,note_off,,,,,188,0,8,,,,,7,,,45,32
5756,note_off,,,,,188,0,7,,,,,6,,,33,51
5756,note_off,,,,,188,0,5,,,,,4,,,57,55
5756,note_off,,,,,188,0,3,,,,,2,,,57,79
5760,note_on,,,,,4,0,3,,,,,2,,,55,125
5760,note_on,,,,,4,0,2,,,,,1,,,55,93
5760,note_on,,,,,4,0,6,,,,,5,,,43,86
5760,note_on,,,,,4,0,4,,,,,3,,,55,125
5760,note_on,,,,,4,0,7,,,,,6,,,31,77
5760,note_on,,,,,4,0,5,,,,,4,,,55,87
5760,note_on,,,,,4,0,8,,,,,7,,,43,63
5760,note_on,,,,,4,0,1,,,,,0,,,55,93
5948,note_off,,,,,188,0,3,,,,,2,,,55,79
5948,note_off,,,,,188,0,4,,,,,3,,,55,79
5948,note_off,,,,,188,0,5,,,,,4,,,55,55
5948,note_off,,,,,188,0,2,,,,,1,,,55,59
5948,note_off,,,,,188,0,6,,,,,5,,,43,57
5948,note_off,,,,,188,0,1,,,,,0,,,55,59
5948,note_off,,,,,188,0,8,,,,,7,,,43,32
5948,note_off,,,,,188,0,7,,,,,6,,,31,51
5952,note_on,,,,,4,0,6,,,,,5,,,55,86
5952,note_on,,,,,4,0,3,,,,,2,,,67,125
5952,note_on,,,,,4,0,1,,,,,0,,,67,93
5952,note_on,,,,,4,0,8,,,,,7,,,55,63
5952,note_on,,,,,4,0,5,,,,,4,,,67,87
5952,note_on,,,,,4,0,7,,,,,6,,,43,77
5952,note_on,,,,,4,0,4,,,,,3,,,67,125
5952,note_on,,,,,4,0,2,,,,,1,,,67,93
6140,note_off,,,,,188,0,3,,,,,2,,,67,79
6140,note_off,,,,,188,0,2,,,,,1,,,67,59
6140,note_off,,,,,188,0,5,,,,,4,,,67,55
6140,note_off,,,,,188,0,4,,,,,3,,,67,79
6140,note_off,,,,,188,0,1,,,,,0,,,67,59
6140,note_off,,,,,188,0,6,,,,,5,,,55,57
6140,note_off,,,,,188,0,7,,,,,6,,,43,51
6140,note_off,,,,,188,0,8,,,,,7,,,55,32
6144,note_on,,,,,4,0,4,,,,,3,,,66,125
6144,note_on,,,,,4,0,7,,,,,6,,,42,77
6144,note_on,,,,,4,0,3,,,,,2,,,66,125
6144,note_on,,,,,4,0,2,,,,,1,,,66,93
6144,note_on,,,,,4,0,8,,,,,7,,,54,63
6144,note_on,,,,,4,0,1,,,,,0,,,66,93
6144,note_on,,,,,4,0,5,,,,,4,,,66,87
6144,note_on,,,,,4,0,6,,,,,5,,,54,86
6332,note_off,,,,,188,0,5,,,,,4,,,66,55
6332,note_off,,,,,188,0,3,,,,,2,,,66,79
6332,note_off,,,,,188,0,1,,,,,0,,,66,59
6332,note_off,,,,,188,0,2,,,,,1,,,66,59
6332,note_off,,,,,188,0,4,,,,,3,,,66,79
6332,note_off,,,,,188,0,8,,,,,7,,,54,32
6332,note_off,,,,,188,0,7,,,,,6,,,42,51
6332,note_off,,,,,188,0,6,,,,,5,,,54,57
6336,note_on,,,,,4,0,6,,,,,5,,,52,86
6336,note_on,,,,,4,0,5,,,,,4,,,64,87
6336,note_on,,,,,4,0,7,,,,,6,,,40,77
6336,note_on,,,,,4,0,3,,,,,2,,,64,125
6336,note_on,,,,,4,0,1,,,,,0,,,64,93
6336,note_on,,,,,4,0,2,,,,,1,,,64,93
6336,note_on,,,,,4,0,4,,,,,3,,,64,125
6336,note_on,,,,,4,0,8,,,,,7,,,52,63
6524,note_off,,,,,188,0,1,,,,,0,,,64,59
6524,note_off,,,,,188,0,4,,,,,3,,,64,79
6524,note_off,,,,,188,0,6,,,,,5,,,52,57
6524,note_off,,,,,188,0,8,,,,,7,,,52,32
6524,note_off,,,,,188,0,2,,,,,1,,,64,59
6524,note_off,,,,,188,0,5,,,,,4,,,64,55
6524,note_off,,,,,188,0,7,,,,,6,,,40,51
6524,note_off,,,,,188,0,3,,,,,2,,,64,79
6528,note_on,,,,,4,0,8,,,,,7,,,59,63
6528,note_on,,,,,4,0,5,,,,,4,,,59,87
6528,note_on,,,,,4,0,7,,,,,6,,,47,77
6528,note_on,,,,,4,0,3,,,,,2,,,71,125
6528,note_on,,,,,4,0,4,,,,,3,,,71,125
6528,note_on,,,,,4,0,1,,,,,0,,,71,93
6528,note_on,,,,,4,0,2,,,,,1,,,71,93
6528,note_on,,,,,4,0,6,,,,,5,,,59,86
6716,note_off,,,,,188,0,4,,,,,3,,,71,79
6716,note_off,,,,,188,0,1,,,,,0,,,71,59
6716,note_off,,,,,188,0,2,,,,,1,,,71,59
6716,note_off,,,,,188,0,8,,,,,7,,,59,32
6716,note_off,,,,,188,0,5,,,,,4,,,59,55
6716,note_off,,,,,188,0,6,,,,,5,,,59,57
6716,note_off,,,,,188,0,7,,,,,6,,,47,51
6716,note_off,,,,,188,0,3,,,,,2,,,71,79
6720,note_on,,,,,4,0,2,,,,,1,,,75,93
6720,note_on,,,,,4,0,8,,,,,7,,,47,63
6720,note_on,,,,,4,0,5,,,,,4,,,63,87
6720,note_on,,,,,4,0,7,,,,,6,,,35,77
6720,note_on,,,,,4,0,6,,,,,5,,,47,86
6720,note_on,,,,,4,0,3,,,,,2,,,75,125
6720,note_on,,,,,4,0,1,,,,,0,,,75,93
6720,note_on,,,,,4,0,4,,,,,3,,,75,125
6908,note_off,,,,,188,0,3,,,,,2,,,75,79
6908,note_off,,,,,188,0,4,,,,,3,,,75,79
6908,note_off,,,,,188,0,6,,,,,5,,,47,57
6908,note_off,,,,,188,0,2,,,,,1,,,75,59
6908,note_off,,,,,188,0,8,,,,,7,,,47,32
6908,note_off,,,,,188,0,7,,,,,6,,,35,51
6908,note_off,,,,,188,0,5,,,,,4,,,63,55
6908,note_off,,,,,188,0,1,,,,,0,,,75,59
6912,note_on,,,,,4,0,7,,,,,6,,,40,77
6912,note_on,,,,,4,0,5,,,,,4,,,64,87
6912,note_on,,,,,4,0,1,,,,,0,,,76,93
6912,note_on,,,,,4,0,2,,,,,1,,,76,93
6912,note_on,,,,,4,0,8,,,,,7,,,52,63
6912,note_on,,,,,4,0,6,,,,,5,,,52,86
6912,note_on,,,,,4,0,3,,,,,2,,,76,125
6912,note_on,,,,,4,0,4,,,,,3,,,76,125
7100,note_off,,,,,188,0,1,,,,,0,,,76,59
7100,note_off,,,,,188,0,3,,,,,2,,,76,79
7100,note_off,,,,,188,0,4,,,,,3,,,76,79
7100,note_off,,,,,188,0,2,,,,,1,,,76,59
7104,note_on,,,,,4,0,3,,,,,2,,,64,125
7104,note_on,,,,,4,0,1,,,,,0,,,64,93
7104,note_on,,,,,4,0,4,,,,,3,,,64,125
7104,note_on,,,,,4,0,2,,,,,1,,,64,93
7292,note_off,,,,,188,0,2,,,,,1,,,64,59
7292,note_off,,,,,188,0,4,,,,,3,,,64,79
7292,note_off,,,,,188,0,1,,,,,0,,,64,59
7292,note_off,,,,,188,0,3,,,,,2,,,64,79
7296,note_off,,,,,384,0,6,,,,,5,,,52,57
7296,note_off,,,,,384,0,5,,,,,4,,,64,55
7296,note_off,,,,,384,0,7,,,,,6,,,40,51
7296,note_off,,,,,384,0,8,,,,,7,,,52,32
7488,note_on,,,,,196,0,3,,,,,2,,,76,79
7488,note_on,,,,,196,0,2,,,,,1,,,76,59
7488,note_on,,,,,196,0,1,,,,,0,,,76,59
7488,note_on,,,,,196,0,4,,,,,3,,,76,79
7676,note_off,,,,,188,0,1,,,,,0,,,76,59
7676,note_off,,,,,188,0,4,,,,,3,,,76,79
7676,note_off,,,,,188,0,2,,,,,1,,,76,59
7676,note_off,,,,,188,0,3,,,,,2,,,76,79
7680,note_on,,,,,4,0,3,,,,,2,,,83,62
7680,note_on,,,,,4,0,4,,,,,3,,,83,62
7680,note_on,,,,,4,0,2,,,,,1,,,83,46
7680,note_on,,,,,4,0,1,,,,,0,,,83,46
7868,note_off,,,,,188,0,2,,,,,1,,,83,59
7868,note_off,,,,,188,0,3,,,,,2,,,83,79
7868,note_off,,,,,188,0,1,,,,,0,,,83,59
7868,note_off,,,,,188,0,4,,,,,3,,,83,79
7872,note_on,,,,,4,0,3,,,,,2,,,83,65
7872,note_on,,,,,4,0,1,,,,,0,,,83,49
7872,note_on,,,,,4,0,2,,,,,1,,,83,49
7872,note_on,,,,,4,0,4,,,,,3,,,83,65
8060,note_off,,,,,188,0,4,,,,,3,,,83,79
8060,note_off,,,,,188,0,1,,,,,0,,,83,59
8060,note_off,,,,,188,0,3,,,,,2,,,83,79
8060,note_off,,,,,188,0,2,,,,,1,,,83,59
8064,note_on,,,,,4,0,2,,,,,1,,,83,53
8064,note_on,,,,,4,0,1,,,,,0,,,83,53
8064,note_on,,,,,4,0,4,,,,,3,,,83,71
8064,note_on,,,,,4,0,3,,,,,2,,,83,71
8252,note_off,,,,,188,0,2,,,,,1,,,83,59
8252,note_off,,,,,188,0,4,,,,,3,,,83,79
8252,note_off,,,,,188,0,1,,,,,0,,,83,59
8252,note_off,,,,,188,0,3,,,,,2,,,83,79
8256,note_on,,,,,4,0,2,,,,,1,,,83,56
8256,note_on,,,,,4,0,3,,,,,2,,,83,75
8256,note_on,,,,,4,0,4,,,,,3,,,83,75
8256,note_on,,,,,4,0,1,,,,,0,,,83,56
8444,note_off,,,,,188,0,4,,,,,3,,,83,79
8444,note_off,,,,,188,0,3,,,,,2,,,83,79
8444,note_off,,,,,188,0,1,,,,,0,,,83,59
8444,note_off,,,,,188,0,2,,,,,1,,,83,59
8448,note_on,,,,,4,0,4,,,,,3,,,83,80
8448,note_on,,,,,4,0,1,,,,,0,,,83,60
8448,note_on,,,,,4,0,2,,,,,1,,,83,60
8448,note_on,,,,,4,0,3,,,,,2,,,83,80
8636,note_off,,,,,188,0,4,,,,,3,,,83,79
8636,note_off,,,,,188,0,3,,,,,2,,,83,79
8636,note_off,,,,,188,0,2,,,,,1,,,83,59
8636,note_off,,,,,188,0,1,,,,,0,,,83,59
8640,note_on,,,,,4,0,2,,,,,1,,,83,63
8640,note_on,,,,,4,0,3,,,,,2,,,83,85
8640,note_on,,,,,4,0,4,,,,,3,,,83,85
8640,note_on,,,,,4,0,1,,,,,0,,,83,63
8828,note_off,,,,,188,0,2,,,,,1,,,83,59
8828,note_off,,,,,188,0,3,,,,,2,,,83,79
8828,note_off,,,,,188,0,4,,,,,3,,,83,79
8828,note_off,,,,,188,0,1,,,,,0,,,83,59
8832,note_on,,,,,4,0,2,,,,,1,,,83,66
8832,note_on,,,,,4,0,3,,,,,2,,,83,89
8832,note_on,,,,,4,0,4,,,,,3,,,83,89
8832,note_on,,,,,4,0,1,,,,,0,,,83,66
9020,note_off,,,,,188,0,2,,,,,1,,,83,59
9020,note_off,,,,,188,0,4,,,,,3,,,83,79
9020,note_off,,,,,188,0,1,,,,,0,,,83,59
9020,note_off,,,,,188,0,3,,,,,2,,,83,79
9024,note_on,,,,,4,0,4,,,,,3,,,83,94
9024,note_on,,,,,4,0,1,,,,,0,,,83,70
9024,note_on,,,,,4,0,3,,,,,2,,,83,94
9024,note_on,,,,,1728,0,7,,,,,6,,,51,57
9024,note_on,,,,,1728,0,6,,,,,5,,,63,64
9024,note_on,,,,,4,0,2,,,,,1,,,83,70
9024,note_on,,,,,1728,0,5,,,,,4,,,66,66
9024,note_on,,,,,1728,0,8,,,,,7,,,63,63
9212,note_off,,,,,188,0,4,,,,,3,,,83,79
9212,note_off,,,,,188,0,6,,,,,5,,,63,57
9212,note_off,,,,,188,0,5,,,,,4,,,66,55
9212,note_off,,,,,188,0,3,,,,,2,,,83,79
9212,note_off,,,,,188,0,8,,,,,7,,,63,32
9212,note_off,,,,,188,0,1,,,,,0,,,83,59
9212,note_off,,,,,188,0,7,,,,,6,,,51,51
9212,note_off,,,,,188,0,2,,,,,1,,,83,59
9216,note_on,,,,,4,0,4,,,,,3,,,79,100
9216,note_on,,,,,4,0,1,,,,,0,,,79,74
9216,note_on,,,,,4,0,6,,,,,5,,,64,68
9216,note_on,,,,,4,0,7,,,,,6,,,52,61
9216,note_on,,,,,4,0,8,,,,,7,,,64,63
9216,note_on,,,,,4,0,3,,,,,2,,,79,100
9216,note_on,,,,,4,0,2,,,,,1,,,79,74
9216,note_on,,,,,4,0,5,,,,,4,,,71,69
9404,note_off,,,,,188,0,5,,,,,4,,,71,55
9404,note_off,,,,,188,0,4,,,,,3,,,79,79
9404,note_off,,,,,188,0,3,,,,,2,,,79,79
9404,note_off,,,,,188,0,8,,,,,7,,,64,32
9404,note_off,,,,,188,0,1,,,,,0,,,79,59
9404,note_off,,,,,188,0,6,,,,,5,,,64,57
9404,note_off,,,,,188,0,2,,,,,1,,,79,59
9404,note_off,,,,,188,0,7,,,,,6,,,52,51
9408,note_on,,,,,4,0,3,,,,,2,,,78,100
9408,note_on,,,,,4,0,1,,,,,0,,,78,74
9408,note_on,,,,,4,0,4,,,,,3,,,78,100
9408,note_on,,,,,4,0,7,,,,,6,,,43,61
9408,note_on,,,,,4,0,8,,,,,7,,,55,63
9408,note_on,,,,,4,0,6,,,,,5,,,55,68
9408,note_on,,,,,4,0,2,,,,,1,,,78,74
9408,note_on,,,,,4,0,5,,,,,4,,,71,69
9500,note_off,,,,,92,0,1,,,,,0,,,78,59
9500,note_off,,,,,92,0,2,,,,,1,,,78,59
9500,note_off,,,,,92,0,3,,,,,2,,,78,79
9500,note_off,,,,,92,0,4,,,,,3,,,78,79
9504,note_on,,,,,4,0,4,,,,,3,,,76,100
9504,note_on,,,,,4,0,1,,,,,0,,,76,74
9504,note_on,,,,,4,0,2,,,,,1,,,76,74
9504,note_on,,,,,4,0,3,,,,,2,,,76,100
9596,note_off,,,,,188,0,6,,,,,5,,,55,57
9596,note_off,,,,,92,0,2,,,,,1,,,76,59
9596,note_off,,,,,188,0,5,,,,,4,,,71,55
9596,note_off,,,,,92,0,4,,,,,3,,,76,79
9596,note_off,,,,,188,0,8,,,,,7,,,55,32
9596,note_off,,,,,92,0,3,,,,,2,,,76,79
9596,note_off,,,,,92,0,1,,,,,0,,,76,59
9596,note_off,,,,,188,0,7,,,,,6,,,43,51
9600,note_on,,,,,4,0,1,,,,,0,,,75,74
9600,note_on,,,,,4,0,4,,,,,3,,,75,100
9600,note_on,,,,,4,0,5,,,,,4,,,66,69
9600,note_on,,,,,4,0,8,,,,,7,,,54,63
9600,note_on,,,,,4,0,7,,,,,6,,,42,61
9600,note_on,,,,,4,0,6,,,,,5,,,54,68
9600,note_on,,,,,4,0,2,,,,,1,,,75,74
9600,note_on,,,,,4,0,3,,,,,2,,,75,100
9788,note_off,,,,,188,0,2,,,,,1,,,75,59
9788,note_off,,,,,188,0,4,,,,,3,,,75,79
9788,note_off,,,,,188,0,1,,,,,0,,,75,59
9788,note_off,,,,,188,0,3,,,,,2,,,75,79
9788,note_off,,,,,188,0,8,,,,,7,,,54,32
9788,note_off,,,,,188,0,6,,,,,5,,,54,57
9788,note_off,,,,,188,0,5,,,,,4,,,66,55
9788,note_off,,,,,188,0,7,,,,,6,,,42,51
9792,note_on,,,,,4,0,5,,,,,4,,,66,69
9792,note_on,,,,,4,0,4,,,,,3,,,83,100
9792,note_on,,,,,4,0,1,,,,,0,,,83,74
9792,note_on,,,,,4,0,6,,,,,5,,,63,68
9792,note_on,,,,,4,0,3,,,,,2,,,83,100
9792,note_on,,,,,4,0,2,,,,,1,,,83,74
9792,note_on,,,,,4,0,8,,,,,7,,,63,63
9792,note_on,,,,,4,0,7,,,,,6,,,51,61
9980,note_off,,,,,188,0,1,,,,,0,,,83,59
9980,note_off,,,,,188,0,4,,,,,3,,,83,79
9980,note_off,,,,,188,0,2,,,,,1,,,83,59
9980,note_off,,,,,188,0,8,,,,,7,,,63,32
9980,note_off,,,,,188,0,7,,,,,6,,,51,51
9980,note_off,,,,,188,0,5,,,,,4,,,66,55
9980,note_off,,,,,188,0,6,,,,,5,,,63,57
9980,note_off,,,,,188,0,3,,,,,2,,,83,79
9984,note_on,,,,,4,0,3,,,,,2,,,79,100
9984,note_on,,,,,4,0,4,,,,,3,,,79,100
9984,note_on,,,,,4,0,2,,,,,1,,,79,74
9984,note_on,,,,,4,0,1,,,,,0,,,79,74
9984,note_on,,,,,4,0,8,,,,,7,,,64,63
9984,note_on,,,,,4,0,6,,,,,5,,,64,68
9984,note_on,,,,,4,0,5,,,,,4,,,71,69
9984,note_on,,,,,4,0,7,,,,,6,,,52,61
10172,note_off,,,,,188,0,2,,,,,1,,,79,59
10172,note_off,,,,,188,0,5,,,,,4,,,71,55
10172,note_off,,,,,188,0,1,,,,,0,,,79,59
10172,note_off,,,,,188,0,3,,,,,2,,,79,79
10172,note_off,,,,,188,0,6,,,,,5,,,64,57
10172,note_off,,,,,188,0,8,,,,,7,,,64,32
10172,note_off,,,,,188,0,7,,,,,6,,,52,51
10172,note_off,,,,,188,0,4,,,,,3,,,79,79
10176,note_on,,,,,4,0,6,,,,,5,,,52,68
10176,note_on,,,,,4,0,3,,,,,2,,,76,100
10176,note_on,,,,,4,0,5,,,,,4,,,67,69
10176,note_on,,,,,4,0,7,,,,,6,,,40,61
10176,note_on,,,,,4,0,8,,,,,7,,,52,63
10176,note_on,,,,,4,0,1,,,,,0,,,76,74
10176,note_on,,,,,4,0,2,,,,,1,,,76,74
10176,note_on,,,,,4,0,4,,,,,3,,,76,100
10364,note_off,,,,,188,0,6,,,,,5,,,52,57
10364,note_off,,,,,188,0,1,,,,,0,,,76,59
10364,note_off,,,,,188,0,5,,,,,4,,,67,55
10364,note_off,,,,,188,0,8,,,,,7,,,52,32
10364,note_off,,,,,188,0,3,,,,,2,,,76,79
10364,note_off,,,,,188,0,7,,,,,6,,,40,51
10364,note_off,,,,,188,0,2,,,,,1,,,76,59
10364,note_off,,,,,188,0,4,,,,,3,,,76,79
10560,note_on,,,,,196,0,4,,,,,3,,,75,100
10560,note_on,,,,,196,0,5,,,,,4,,,75,69
10560,note_on,,,,,196,0,3,,,,,2,,,83,100
10560,note_on,,,,,196,0,2,,,,,1,,,75,74
10560,note_on,,,,,196,0,1,,,,,0,,,83,74
10748,note_off,,,,,188,0,1,,,,,0,,,83,59
10748,note_off,,,,,188,0,3,,,,,2,,,83,79
10748,note_off,,,,,188,0,2,,,,,1,,,75,59
10748,note_off,,,,,188,0,5,,,,,4,,,75,55
10748,note_off,,,,,188,0,4,,,,,3,,,75,79
10752,note_on,,,,,4,0,1,,,,,0,,,79,74
10752,note_on,,,,,4,0,5,,,,,4,,,76,69
10752,note_on,,,,,4,0,4,,,,,3,,,76,100
10752,note_on,,,,,4,0,3,,,,,2,,,79,100
10752,note_on,,,,,4,0,2,,,,,1,,,76,74
10940,note_off,,,,,188,0,5,,,,,4,,,76,55
10940,note_off,,,,,188,0,4,,,,,3,,,76,79
10940,note_off,,,,,188,0,1,,,,,0,,,79,59
10940,note_off,,,,,188,0,3,,,,,2,,,79,79
10940,note_off,,,,,188,0,2,,,,,1,,,76,59
10944,note_on,,,,,4,0,3,,,,,2,,,78,100
10944,note_on,,,,,4,0,1,,,,,0,,,78,74
10944,note_on,,,,,4,0,4,,,,,3,,,67,100
10944,note_on,,,,,4,0,2,,,,,1,,,67,74
10944,note_on,,,,,4,0,5,,,,,4,,,67,69
11036,note_off,,,,,92,0,3,,,,,2,,,78,79
11036,note_off,,,,,92,0,1,,,,,0,,,78,59
11040,note_on,,,,,4,0,1,,,,,0,,,76,74
11040,note_on,,,,,4,0,3,,,,,2,,,76,100
11132,note_off,,,,,92,0,3,,,,,2,,,76,79
11132,note_off,,,,,188,0,4,,,,,3,,,67,79
11132,note_off,,,,,92,0,1,,,,,0,,,76,59
11132,note_off,,,,,188,0,5,,,,,4,,,67,55
11132,note_off,,,,,188,0,2,,,,,1,,,67,59
11136,note_on,,,,,4,0,2,,,,,1,,,66,74
11136,note_on,,,,,4,0,3,,,,,2,,,75,100
11136,note_on,,,,,4,0,4,,,,,3,,,66,100
11136,note_on,,,,,4,0,5,,,,,4,,,66,69
11136,note_on,,,,,4,0,1,,,,,0,,,75,74
11324,note_off,,,,,188,0,3,,,,,2,,,75,79
11324,note_off,,,,,188,0,1,,,,,0,,,75,59
11324,note_off,,,,,188,0,5,,,,,4,,,66,55
11324,note_off,,,,,188,0,2,,,,,1,,,66,59
11324,note_off,,,,,188,0,4,,,,,3,,,66,79
11328,note_on,,,,,4,0,2,,,,,1,,,75,74
11328,note_on,,,,,4,0,5,,,,,4,,,75,69
11328,note_on,,,,,4,0,4,,,,,3,,,75,100
11328,note_on,,,,,4,0,1,,,,,0,,,83,74
11328,note_on,,,,,4,0,3,,,,,2,,,83,100
11516,note_off,,,,,188,0,3,,,,,2,,,83,79
11516,note_off,,,,,188,0,4,,,,,3,,,75,79
11516,note_off,,,,,188,0,1,,,,,0,,,83,59
11516,note_off,,,,,188,0,2,,,,,1,,,75,59
11516,note_off,,,,,188,0,5,,,,,4,,,75,55
11520,note_on,,,,,4,0,1,,,,,0,,,79,74
11520,note_on,,,,,4,0,5,,,,,4,,,76,69
11520,note_on,,,,,4,0,3,,,,,2,,,79,100
11520,note_on,,,,,4,0,2,,,,,1,,,76,74
11520,note_on,,,,,4,0,4,,,,,3,,,76,100
11612,note_off,,,,,92,0,3,,,,,2,,,79,79
11612,note_off,,,,,92,0,1,,,,,0,,,79,59
11616,note_on,,,,,4,0,3,,,,,2,,,78,100
11616,note_on,,,,,4,0,1,,,,,0,,,78,74
11708,note_off,,,,,188,0,4,,,,,3,,,76,79
11708,note_off,,,,,188,0,2,,,,,1,,,76,59
11708,note_off,,,,,188,0,5,,,,,4,,,76,55
11708,note_off,,,,,92,0,1,,,,,0,,,78,59
11708,note_off,,,,,92,0,3,,,,,2,,,78,79
11712,note_on,,,,,4,0,4,,,,,3,,,67,100
11712,note_on,,,,,4,0,2,,,,,1,,,67,74
11712,note_on,,,,,4,0,5,,,,,4,,,67,69
11712,note_on,,,,,4,0,3,,,,,2,,,76,100
11712,note_on,,,,,4,0,1,,,,,0,,,76,74
11804,note_off,,,,,92,0,3,,,,,2,,,76,79
11804,note_off,,,,,92,0,1,,,,,0,,,76,59
11808,note_on,,,,,4,0,1,,,,,0,,,83,74
11808,note_on,,,,,4,0,3,,,,,2,,,83,100
11900,note_off,,,,,188,0,5,,,,,4,,,67,55
11900,note_off,,,,,188,0,2,,,,,1,,,67,59
11900,note_off,,,,,92,0,3,,,,,2,,,83,79
11900,note_off,,,,,188,0,4,,,,,3,,,67,79
11900,note_off,,,,,92,0,1,,,,,0,,,83,59
11904,note_on,,,,,4,0,2,,,,,1,,,66,74
11904,note_on,,,,,4,0,1,,,,,0,,,81,74
11904,note_on,,,,,4,0,5,,,,,4,,,66,69
11904,note_on,,,,,4,0,4,,,,,3,,,66,100
11904,note_on,,,,,4,0,3,,,,,2,,,81,100
11996,note_off,,,,,92,0,1,,,,,0,,,81,59
11996,note_off,,,,,92,0,3,,,,,2,,,81,79
12000,note_on,,,,,4,0,3,,,,,2,,,79,100
12000,note_on,,,,,4,0,1,,,,,0,,,79,74
12092,note_off,,,,,92,0,3,,,,,2,,,79,79
12092,note_off,,,,,92,0,1,,,,,0,,,79,59
12092,note_off,,,,,188,0,5,,,,,4,,,66,55
12092,note_off,,,,,188,0,4,,,,,3,,,66,79
12092,note_off,,,,,188,0,2,,,,,1,,,66,59
12096,note_on,,,,,4,0,1,,,,,0,,,78,74
12096,note_on,,,,,4,0,4,,,,,3,,,75,100
12096,note_on,,,,,4,0,3,,,,,2,,,78,100
12096,note_on,,,,,4,0,5,,,,,4,,,75,69
12096,note_on,,,,,4,0,2,,,,,1,,,75,74
12188,note_off,,,,,92,0,1,,,,,0,,,78,59
12188,note_off,,,,,92,0,3,,,,,2,,,78,79
12192,note_on,,,,,4,0,1,,,,,0,,,83,74
12192,note_on,,,,,4,0,3,,,,,2,,,83,100
12284,note_off,,,,,92,0,1,,,,,0,,,83,59
12284,note_off,,,,,188,0,4,,,,,3,,,75,79
12284,note_off,,,,,188,0,2,,,,,1,,,75,59
12284,note_off,,,,,188,0,5,,,,,4,,,75,55
12284,note_off,,,,,92,0,3,,,,,2,,,83,79
12288,note_on,,,,,4,0,1,,,,,0,,,79,74
12288,note_on,,,,,4,0,4,,,,,3,,,76,100
12288,note_on,,,,,4,0,5,,,,,4,,,76,69
12288,note_on,,,,,4,0,3,,,,,2,,,79,100
12288,note_on,,,,,4,0,2,,,,,1,,,76,74
12380,note_off,,,,,92,0,1,,,,,0,,,79,59
12380,note_off,,,,,92,0,3,,,,,2,,,79,79
12384,note_on,,,,,4,0,3,,,,,2,,,78,100
12384,note_on,,,,,4,0,1,,,,,0,,,78,74
12476,note_off,,,,,92,0,1,,,,,0,,,78,59
12476,note_off,,,,,188,0,5,,,,,4,,,76,55
12476,note_off,,,,,188,0,2,,,,,1,,,76,59
12476,note_off,,,,,92,0,3,,,,,2,,,78,79
12476,note_off,,,,,188,0,4,,,,,3,,,76,79
12480,note_on,,,,,4,0,5,,,,,4,,,67,69
12480,note_on,,,,,4,0,2,,,,,1,,,67,74
12480,note_on,,,,,4,0,3,,,,,2,,,76,100
12480,note_on,,,,,4,0,4,,,,,3,,,67,100
12480,note_on,,,,,4,0,1,,,,,0,,,76,74
12572,note_off,,,,,92,0,1,,,,,0,,,76,59
12572,note_off,,,,,92,0,3,,,,,2,,,76,79
12576,note_on,,,,,4,0,3,,,,,2,,,83,100
12576,note_on,,,,,4,0,1,,,,,0,,,83,74
12668,note_off,,,,,188,0,5,,,,,4,,,67,55
12668,note_off,,,,,188,0,2,,,,,1,,,67,59
12668,note_off,,,,,92,0,1,,,,,0,,,83,59
12668,note_off,,,,,92,0,3,,,,,2,,,83,79
12668,note_off,,,,,188,0,4,,,,,3,,,67,79
12672,note_on,,,,,4,0,1,,,,,0,,,81,74
12672,note_on,,,,,4,0,2,,,,,1,,,66,74
12672,note_on,,,,,4,0,5,,,,,4,,,66,69
12672,note_on,,,,,4,0,3,,,,,2,,,81,100
12672,note_on,,,,,4,0,4,,,,,3,,,66,100
12764,note_off,,,,,92,0,1,,,,,0,,,81,59
12764,note_off,,,,,92,0,3,,,,,2,,,81,79
12768,note_on,,,,,4,0,1,,,,,0,,,79,74
12768,note_on,,,,,4,0,3,,,,,2,,,79,100
12860,note_off,,,,,92,0,1,,,,,0,,,79,59
12860,note_off,,,,,92,0,3,,,,,2,,,79,79
12860,note_off,,,,,188,0,2,,,,,1,,,66,59
12860,note_off,,,,,188,0,5,,,,,4,,,66,55
12860,note_off,,,,,188,0,4,,,,,3,,,66,79
12864,note_on,,,,,2500,0,8,,,,,7,,,59,63
12864,note_on,,,,,4,0,1,,,,,0,,,78,74
12864,note_on,,,,,4,0,3,,,,,2,,,78,100
12864,note_on,,,,,2500,0,6,,,,,5,,,59,68
12864,note_on,,,,,4,0,5,,,,,4,,,75,69
12864,note_on,,,,,2500,0,7,,,,,6,,,47,61
12864,note_on,,,,,4,0,2,,,,,1,,,75,74
12864,note_on,,,,,4,0,4,,,,,3,,,75,100
12956,note_off,,,,,92,0,3,,,,,2,,,78,79
12956,note_off,,,,,92,0,1,,,,,0,,,78,59
12960,note_on,,,,,4,0,3,,,,,2,,,83,100
12960,note_on,,,,,4,0,1,,,,,0,,,83,74
13052,note_off,,,,,188,0,4,,,,,3,,,75,79
13052,note_off,,,,,188,0,6,,,,,5,,,59,57
13052,note_off,,,,,188,0,8,,,,,7,,,59,32
13052,note_off,,,,,188,0,5,,,,,4,,,75,55
13052,note_off,,,,,92,0,3,,,,,2,,,83,79
13052,note_off,,,,,188,0,7,,,,,6,,,47,51
13052,note_off,,,,,92,0,1,,,,,0,,,83,59
13052,note_off,,,,,188,0,2,,,,,1,,,75,59
13056,note_on,,,,,4,0,7,,,,,6,,,52,61
13056,note_on,,,,,4,0,4,,,,,3,,,76,100
13056,note_on,,,,,4,0,3,,,,,2,,,79,100
13056,note_on,,,,,4,0,5,,,,,4,,,76,69
13056,note_on,,,,,4,0,2,,,,,1,,,76,74
13056,note_on,,,,,4,0,8,,,,,7,,,64,63
13056,note_on,,,,,4,0,1,,,,,0,,,79,74
13056,note_on,,,,,4,0,6,,,,,5,,,64,68
13244,note_off,,,,,188,0,2,,,,,1,,,76,59
13244,note_off,,,,,188,0,5,,,,,4,,,76,55
13244,note_off,,,,,188,0,1,,,,,0,,,79,59
13244,note_off,,,,,188,0,3,,,,,2,,,79,79
13244,note_off,,,,,188,0,7,,,,,6,,,52,51
13244,note_off,,,,,188,0,4,,,,,3,,,76,79
13244,note_off,,,,,188,0,6,,,,,5,,,64,57
13244,note_off,,,,,188,0,8,,,,,7,,,64,32
13248,note_on,,,,,4,0,6,,,,,5,,,52,68
13248,note_on,,,,,4,0,7,,,,,6,,,40,61
13248,note_on,,,,,4,0,2,,,,,1,,,64,74
13248,note_on,,,,,4,0,3,,,,,2,,,76,100
13248,note_on,,,,,4,0,5,,,,,4,,,64,69
13248,note_on,,,,,4,0,4,,,,,3,,,64,100
13248,note_on,,,,,4,0,1,,,,,0,,,76,74
13248,note_on,,,,,4,0,8,,,,,7,,,52,63
13340,note_off,,,,,92,0,5,,,,,4,,,64,55
13340,note_off,,,,,92,0,2,,,,,1,,,64,59
13340,note_off,,,,,92,0,7,,,,,6,,,40,51
13340,note_off,,,,,92,0,4,,,,,3,,,64,79
13340,note_off,,,,,92,0,6,,,,,5,,,52,57
13344,note_on,,,,,4,0,2,,,,,1,,,66,74
13344,note_on,,,,,4,0,7,,,,,6,,,42,61
13344,note_on,,,,,4,0,5,,,,,4,,,66,69
13344,note_on,,,,,4,0,6,,,,,5,,,54,68
13344,note_on,,,,,4,0,4,,,,,3,,,66,100
13436,note_off,,,,,92,0,5,,,,,4,,,66,55
13436,note_off,,,,,188,0,8,,,,,7,,,52,32
13436,note_off,,,,,92,0,4,,,,,3,,,66,79
13436,note_off,,,,,92,0,6,,,,,5,,,54,57
13436,note_off,,,,,92,0,2,,,,,1,,,66,59
13436,note_off,,,,,188,0,3,,,,,2,,,76,79
13436,note_off,,,,,188,0,1,,,,,0,,,76,59
13436,note_off,,,,,92,0,7,,,,,6,,,42,51
13440,note_on,,,,,4,0,6,,,,,5,,,55,68
13440,note_on,,,,,4,0,8,,,,,7,,,55,63
13440,note_on,,,,,4,0,7,,,,,6,,,43,61
13440,note_on,,,,,4,0,4,,,,,3,,,67,100
13440,note_on,,,,,4,0,2,,,,,1,,,67,74
13440,note_on,,,,,4,0,5,,,,,4,,,67,69
13532,note_off,,,,,92,0,5,,,,,4,,,67,55
13532,note_off,,,,,92,0,2,,,,,1,,,67,59
13532,note_off,,,,,92,0,7,,,,,6,,,43,51
13532,note_off,,,,,92,0,6,,,,,5,,,55,57
13532,note_off,,,,,92,0,4,,,,,3,,,67,79
13536,note_on,,,,,4,0,7,,,,,6,,,45,61
13536,note_on,,,,,4,0,5,,,,,4,,,69,69
13536,note_on,,,,,4,0,6,,,,,5,,,57,68
13536,note_on,,,,,4,0,2,,,,,1,,,69,74
13536,note_on,,,,,4,0,4,,,,,3,,,69,100
13628,note_off,,,,,188,0,8,,,,,7,,,55,32
13628,note_off,,,,,92,0,6,,,,,5,,,57,57
13628,note_off,,,,,92,0,4,,,,,3,,,69,79
13628,note_off,,,,,92,0,7,,,,,6,,,45,51
13628,note_off,,,,,92,0,2,,,,,1,,,69,59
13628,note_off,,,,,92,0,5,,,,,4,,,69,55
13632,note_on,,,,,196,0,1,,,,,0,,,81,74
13632,note_on,,,,,4,0,6,,,,,5,,,59,68
13632,note_on,,,,,4,0,2,,,,,1,,,71,74
13632,note_on,,,,,4,0,5,,,,,4,,,71,69
13632,note_on,,,,,4,0,4,,,,,3,,,71,100
13632,note_on,,,,,4,0,7,,,,,6,,,47,61
13632,note_on,,,,,4,0,8,,,,,7,,,61,63
13632,note_on,,,,,196,0,3,,,,,2,,,81,100
13724,note_off,,,,,92,0,7,,,,,6,,,47,51
13724,note_off,,,,,92,0,5,,,,,4,,,71,55
13724,note_off,,,,,92,0,4,,,,,3,,,71,79
13724,note_off,,,,,92,0,6,,,,,5,,,59,57
13724,note_off,,,,,92,0,2,,,,,1,,,71,59
13728,note_on,,,,,4,0,7,,,,,6,,,49,61
13728,note_on,,,,,4,0,4,,,,,3,,,73,100
13728,note_on,,,,,4,0,5,,,,,4,,,73,69
13728,note_on,,,,,4,0,6,,,,,5,,,61,68
13728,note_on,,,,,4,0,2,,,,,1,,,73,74
13820,note_off,,,,,92,0,4,,,,,3,,,73,79
13820,note_off,,,,,92,0,6,,,,,5,,,61,57
13820,note_off,,,,,92,0,2,,,,,1,,,73,59
13820,note_off,,,,,188,0,1,,,,,0,,,81,59
13820,note_off,,,,,188,0,3,,,,,2,,,81,79
13820,note_off,,,,,92,0,5,,,,,4,,,73,55
13820,note_off,,,,,92,0,7,,,,,6,,,49,51
13820,note_off,,,,,188,0,8,,,,,7,,,61,32
13824,note_on,,,,,4,0,6,,,,,5,,,62,68
13824,note_on,,,,,4,0,8,,,,,7,,,62,63
13824,note_on,,,,,4,0,3,,,,,2,,,78,100
13824,note_on,,,,,4,0,5,,,,,4,,,74,69
13824,note_on,,,,,4,0,2,,,,,1,,,74,74
13824,note_on,,,,,4,0,4,,,,,3,,,74,100
13824,note_on,,,,,4,0,7,,,,,6,,,50,61
13824,note_on,,,,,4,0,1,,,,,0,,,78,74
13916,note_off,,,,,92,0,1,,,,,0,,,78,59
13916,note_off,,,,,92,0,3,,,,,2,,,78,79
13920,note_on,,,,,4,0,1,,,,,0,,,76,74
13920,note_on,,,,,4,0,3,,,,,2,,,76,100
14012,note_off,,,,,188,0,5,,,,,4,,,74,55
14012,note_off,,,,,188,0,7,,,,,6,,,50,51
14012,note_off,,,,,92,0,1,,,,,0,,,76,59
14012,note_off,,,,,188,0,2,,,,,1,,,74,59
14012,note_off,,,,,92,0,3,,,,,2,,,76,79
14012,note_off,,,,,188,0,6,,,,,5,,,62,57
14012,note_off,,,,,188,0,4,,,,,3,,,74,79
14012,note_off,,,,,188,0,8,,,,,7,,,62,32
14016,note_on,,,,,4,0,5,,,,,4,,,66,69
14016,note_on,,,,,4,0,4,,,,,3,,,66,100
14016,note_on,,,,,4,0,1,,,,,0,,,74,74
14016,note_on,,,,,4,0,2,,,,,1,,,66,74
14016,note_on,,,,,4,0,6,,,,,5,,,50,68
14016,note_on,,,,,4,0,7,,,,,6,,,38,61
14016,note_on,,,,,4,0,8,,,,,7,,,50,63
14016,note_on,,,,,4,0,3,,,,,2,,,74,100
14108,note_off,,,,,92,0,3,,,,,2,,,74,79
14108,note_off,,,,,92,0,1,,,,,0,,,74,59
14112,note_on,,,,,4,0,1,,,,,0,,,81,74
14112,note_on,,,,,4,0,3,,,,,2,,,81,100
14204,note_off,,,,,92,0,1,,,,,0,,,81,59
14204,note_off,,,,,188,0,8,,,,,7,,,50,32
14204,note_off,,,,,188,0,2,,,,,1,,,66,59
14204,note_off,,,,,188,0,5,,,,,4,,,66,55
14204,note_off,,,,,188,0,7,,,,,6,,,38,51
14204,note_off,,,,,92,0,3,,,,,2,,,81,79
14204,note_off,,,,,188,0,4,,,,,3,,,66,79
14204,note_off,,,,,188,0,6,,,,,5,,,50,57
14208,note_on,,,,,4,0,3,,,,,2,,,79,100
14208,note_on,,,,,4,0,4,,,,,3,,,64,100
14208,note_on,,,,,4,0,5,,,,,4,,,64,69
14208,note_on,,,,,4,0,1,,,,,0,,,79,74
14208,note_on,,,,,4,0,2,,,,,1,,,64,74
14300,note_off,,,,,92,0,1,,,,,0,,,79,59
14300,note_off,,,,,92,0,3,,,,,2,,,79,79
14304,note_on,,,,,4,0,1,,,,,0,,,78,74
14304,note_on,,,,,4,0,3,,,,,2,,,78,100
14396,note_off,,,,,188,0,2,,,,,1,,,64,59
14396,note_off,,,,,92,0,3,,,,,2,,,78,79
14396,note_off,,,,,188,0,5,,,,,4,,,64,55
14396,note_off,,,,,188,0,4,,,,,3,,,64,79
14396,note_off,,,,,92,0,1,,,,,0,,,78,59
14400,note_on,,,,,4,0,5,,,,,4,,,73,69
14400,note_on,,,,,4,0,2,,,,,1,,,73,74
14400,note_on,,,,,4,0,3,,,,,2,,,76,100
14400,note_on,,,,,4,0,1,,,,,0,,,76,74
14400,note_on,,,,,4,0,4,,,,,3,,,73,100
14492,note_off,,,,,92,0,3,,,,,2,,,76,79
14492,note_off,,,,,92,0,1,,,,,0,,,76,59
14496,note_on,,,,,4,0,3,,,,,2,,,81,100
14496,note_on,,,,,4,0,1,,,,,0,,,81,74
14588,note_off,,,,,92,0,3,,,,,2,,,81,79
14588,note_off,,,,,188,0,2,,,,,1,,,73,59
14588,note_off,,,,,188,0,4,,,,,3,,,73,79
14588,note_off,,,,,92,0,1,,,,,0,,,81,59
14588,note_off,,,,,188,0,5,,,,,4,,,73,55
14592,note_on,,,,,4,0,3,,,,,2,,,78,100
14592,note_on,,,,,4,0,1,,,,,0,,,78,74
14592,note_on,,,,,4,0,2,,,,,1,,,74,74
14592,note_on,,,,,4,0,4,,,,,3,,,74,100
14592,note_on,,,,,4,0,5,,,,,4,,,74,69
14684,note_off,,,,,92,0,3,,,,,2,,,78,79
14684,note_off,,,,,92,0,1,,,,,0,,,78,59
14688,note_on,,,,,4,0,3,,,,,2,,,76,100
14688,note_on,,,,,4,0,1,,,,,0,,,76,74
14780,note_off,,,,,92,0,3,,,,,2,,,76,79
14780,note_off,,,,,188,0,4,,,,,3,,,74,79
14780,note_off,,,,,92,0,1,,,,,0,,,76,59
14780,note_off,,,,,188,0,5,,,,,4,,,74,55
14780,note_off,,,,,188,0,2,,,,,1,,,74,59
14784,note_on,,,,,4,0,5,,,,,4,,,66,69
14784,note_on,,,,,4,0,2,,,,,1,,,66,74
14784,note_on,,,,,4,0,1,,,,,0,,,74,74
14784,note_on,,,,,4,0,4,,,,,3,,,66,100
14784,note_on,,,,,4,0,3,,,,,2,,,74,100
14876,note_off,,,,,92,0,3,,,,,2,,,74,79
14876,note_off,,,,,92,0,1,,,,,0,,,74,59
14880,note_on,,,,,4,0,3,,,,,2,,,81,100
14880,note_on,,,,,4,0,1,,,,,0,,,81,74
14972,note_off,,,,,92,0,3,,,,,2,,,81,79
14972,note_off,,,,,188,0,5,,,,,4,,,66,55
14972,note_off,,,,,188,0,4,,,,,3,,,66,79
14972,note_off,,,,,188,0,2,,,,,1,,,66,59
14972,note_off,,,,,92,0,1,,,,,0,,,81,59
14976,note_on,,,,,4,0,1,,,,,0,,,79,74
14976,note_on,,,,,4,0,4,,,,,3,,,64,100
14976,note_on,,,,,4,0,2,,,,,1,,,64,74
14976,note_on,,,,,4,0,3,,,,,2,,,79,100
14976,note_on,,,,,4,0,5,,,,,4,,,64,69
15068,note_off,,,,,92,0,1,,,,,0,,,79,59
15068,note_off,,,,,92,0,3,,,,,2,,,79,79
15072,note_on,,,,,4,0,3,,,,,2,,,78,100
15072,note_on,,,,,4,0,1,,,,,0,,,78,74
15164,note_off,,,,,188,0,2,,,,,1,,,64,59
15164,note_off,,,,,92,0,1,,,,,0,,,78,59
15164,note_off,,,,,92,0,3,,,,,2,,,78,79
15164,note_off,,,,,188,0,5,,,,,4,,,64,55
15164,note_off,,,,,188,0,4,,,,,3,,,64,79
15168,note_on,,,,,4,0,3,,,,,2,,,76,100
15168,note_on,,,,,4,0,4,,,,,3,,,73,100
15168,note_on,,,,,4,0,2,,,,,1,,,73,74
15168,note_on,,,,,4,0,5,,,,,4,,,73,69
15168,note_on,,,,,4,0,1,,,,,0,,,76,74
15260,note_off,,,,,92,0,3,,,,,2,,,76,79
15260,note_off,,,,,92,0,1,,,,,0,,,76,59
15264,note_on,,,,,4,0,1,,,,,0,,,81,74
15264,note_on,,,,,4,0,3,,,,,2,,,81,100
15356,note_off,,,,,92,0,3,,,,,2,,,81,79
15356,note_off,,,,,188,0,4,,,,,3,,,73,79
15356,note_off,,,,,188,0,5,,,,,4,,,73,55
15356,note_off,,,,,188,0,2,,,,,1,,,73,59
15356,note_off,,,,,92,0,1,,,,,0,,,81,59
15360,note_on,,,,,4,0,5,,,,,4,,,74,69
15360,note_on,,,,,4,0,1,,,,,0,,,78,74
15360,note_on,,,,,4,0,4,,,,,3,,,74,100
15360,note_on,,,,,4,0,2,,,,,1,,,74,74
15360,note_on,,,,,4,0,3,,,,,2,,,78,100
15452,note_off,,,,,92,0,3,,,,,2,,,78,79
15452,note_off,,,,,92,0,1,,,,,0,,,78,59
15456,note_on,,,,,4,0,3,,,,,2,,,76,100
15456,note_on,,,,,4,0,1,,,,,0,,,76,74
15548,note_off,,,,,92,0,3,,,,,2,,,76,79
15548,note_off,,,,,188,0,5,,,,,4,,,74,55
15548,note_off,,,,,188,0,2,,,,,1,,,74,59
15548,note_off,,,,,92,0,1,,,,,0,,,76,59
15548,note_off,,,,,188,0,4,,,,,3,,,74,79
15552,note_on,,,,,4,0,1,,,,,0,,,74,74
15552,note_on,,,,,4,0,5,,,,,4,,,66,69
15552,note_on,,,,,4,0,3,,,,,2,,,74,100
15552,note_on,,,,,4,0,2,,,,,1,,,66,74
15552,note_on,,,,,4,0,4,,,,,3,,,66,100
15644,note_off,,,,,92,0,1,,,,,0,,,74,59
15644,note_off,,,,,92,0,3,,,,,2,,,74,79
15648,note_on,,,,,4,0,1,,,,,0,,,81,74
15648,note_on,,,,,4,0,3,,,,,2,,,81,100
15740,note_off,,,,,92,0,1,,,,,0,,,81,59
15740,note_off,,,,,188,0,5,,,,,4,,,66,55
15740,note_off,,,,,92,0,3,,,,,2,,,81,79
15740,note_off,,,,,188,0,4,,,,,3,,,66,79
15740,note_off,,,,,188,0,2,,,,,1,,,66,59
15744,note_on,,,,,4,0,2,,,,,1,,,64,74
15744,note_on,,,,,4,0,1,,,,,0,,,79,74
15744,note_on,,,,,4,0,5,,,,,4,,,64,69
15744,note_on,,,,,4,0,4,,,,,3,,,64,100
15744,note_on,,,,,4,0,3,,,,,2,,,79,100
15836,note_off,,,,,92,0,1,,,,,0,,,79,59
15836,note_off,,,,,92,0,3,,,,,2,,,79,79
15840,note_on,,,,,4,0,3,,,,,2,,,78,100
15840,note_on,,,,,4,0,1,,,,,0,,,78,74
15932,note_off,,,,,188,0,5,,,,,4,,,64,55
15932,note_off,,,,,188,0,2,,,,,1,,,64,59
15932,note_off,,,,,188,0,4,,,,,3,,,64,79
15932,note_off,,,,,92,0,1,,,,,0,,,78,59
15932,note_off,,,,,92,0,3,,,,,2,,,78,79
15936,note_on,,,,,1732,0,7,,,,,6,,,49,61
15936,note_on,,,,,4,0,1,,,,,0,,,76,74
15936,note_on,,,,,4,0,3,,,,,2,,,76,100
15936,note_on,,,,,1732,0,6,,,,,5,,,61,68
15936,note_on,,,,,4,0,5,,,,,4,,,73,69
15936,note_on,,,,,4,0,4,,,,,3,,,73,100
15936,note_on,,,,,4,0,2,,,,,1,,,73,74
15936,note_on,,,,,1732,0,8,,,,,7,,,61,63
16028,note_off,,,,,92,0,3,,,,,2,,,76,79
16028,note_off,,,,,92,0,1,,,,,0,,,76,59
16032,note_on,,,,,4,0,3,,,,,2,,,81,100
16032,note_on,,,,,4,0,1,,,,,0,,,81,74
16124,note_off,,,,,92,0,3,,,,,2,,,81,79
16124,note_off,,,,,188,0,4,,,,,3,,,73,79
16124,note_off,,,,,188,0,7,,,,,6,,,49,51
16124,note_off,,,,,188,0,6,,,,,5,,,61,57
16124,note_off,,,,,92,0,1,,,,,0,,,81,59
16124,note_off,,,,,188,0,2,,,,,1,,,73,59
16124,note_off,,,,,188,0,8,,,,,7,,,61,32
16124,note_off,,,,,188,0,5,,,,,4,,,73,55
16128,note_on,,,,,4,0,4,,,,,3,,,74,100
16128,note_on,,,,,4,0,6,,,,,5,,,62,68
16128,note_on,,,,,4,0,2,,,,,1,,,74,74
16128,note_on,,,,,4,0,8,,,,,7,,,62,63
16128,note_on,,,,,4,0,1,,,,,0,,,78,74
16128,note_on,,,,,4,0,5,,,,,4,,,74,69
16128,note_on,,,,,4,0,3,,,,,2,,,78,100
16128,note_on,,,,,4,0,7,,,,,6,,,50,61
16316,note_off,,,,,188,0,6,,,,,5,,,62,57
16316,note_off,,,,,188,0,4,,,,,3,,,74,79
16316,note_off,,,,,188,0,3,,,,,2,,,78,79
16316,note_off,,,,,188,0,7,,,,,6,,,50,51
16316,note_off,,,,,188,0,5,,,,,4,,,74,55
16316,note_off,,,,,188,0,1,,,,,0,,,78,59
16316,note_off,,,,,188,0,8,,,,,7,,,62,32
16316,note_off,,,,,188,0,2,,,,,1,,,74,59
16320,note_on,,,,,4,0,3,,,,,2,,,74,100
16320,note_on,,,,,4,0,8,,,,,7,,,50,63
16320,note_on,,,,,4,0,2,,,,,1,,,62,74
16320,note_on,,,,,4,0,6,,,,,5,,,50,68
16320,note_on,,,,,4,0,4,,,,,3,,,62,100
16320,note_on,,,,,4,0,1,,,,,0,,,74,74
16320,note_on,,,,,4,0,5,,,,,4,,,62,69
16320,note_on,,,,,4,0,7,,,,,6,,,38,61
16412,note_off,,,,,92,0,2,,,,,1,,,62,59
16412,note_off,,,,,92,0,5,,,,,4,,,62,55
16412,note_off,,,,,92,0,4,,,,,3,,,62,79
16412,note_off,,,,,92,0,7,,,,,6,,,38,51
16412,note_off,,,,,92,0,6,,,,,5,,,50,57
16416,note_on,,,,,4,0,5,,,,,4,,,64,69
16416,note_on,,,,,4,0,6,,,,,5,,,52,68
16416,note_on,,,,,4,0,2,,,,,1,,,64,74
16416,note_on,,,,,4,0,7,,,,,6,,,40,61
16416,note_on,,,,,4,0,4,,,,,3,,,64,100
16508,note_off,,,,,92,0,5,,,,,4,,,64,55
16508,note_off,,,,,188,0,3,,,,,2,,,74,79
16508,note_off,,,,,92,0,4,,,,,3,,,64,79
16508,note_off,,,,,92,0,6,,,,,5,,,52,57
16508,note_off,,,,,188,0,8,,,,,7,,,50,32
16508,note_off,,,,,92,0,2,,,,,1,,,64,59
16508,note_off,,,,,92,0,7,,,,,6,,,40,51
16508,note_off,,,,,188,0,1,,,,,0,,,74,59
16512,note_on,,,,,4,0,7,,,,,6,,,42,61
16512,note_on,,,,,4,0,8,,,,,7,,,54,63
16512,note_on,,,,,4,0,4,,,,,3,,,66,100
16512,note_on,,,,,4,0,2,,,,,1,,,66,74
16512,note_on,,,,,4,0,5,,,,,4,,,66,69
16512,note_on,,,,,4,0,6,,,,,5,,,54,68
16604,note_off,,,,,92,0,2,,,,,1,,,66,59
16604,note_off,,,,,92,0,6,,,,,5,,,54,57
16604,note_off,,,,,92,0,4,,,,,3,,,66,79
16604,note_off,,,,,92,0,7,,,,,6,,,42,51
16604,note_off,,,,,92,0,5,,,,,4,,,66,55
16608,note_on,,,,,4,0,2,,,,,1,,,67,74
16608,note_on,,,,,4,0,6,,,,,5,,,55,68
16608,note_on,,,,,4,0,7,,,,,6,,,43,61
16608,note_on,,,,,4,0,4,,,,,3,,,67,100
16608,note_on,,,,,4,0,5,,,,,4,,,67,69
16700,note_off,,,,,92,0,7,,,,,6,,,43,51
16700,note_off,,,,,92,0,4,,,,,3,,,67,79
16700,note_off,,,,,92,0,2,,,,,1,,,67,59
16700,note_off,,,,,92,0,6,,,,,5,,,55,57
16700,note_off,,,,,188,0,8,,,,,7,,,54,32
16700,note_off,,,,,92,0,5,,,,,4,,,67,55
16704,note_on,,,,,4,0,4,,,,,3,,,69,100
16704,note_on,,,,,4,0,8,,,,,7,,,57,63
16704,note_on,,,,,196,0,1,,,,,0,,,79,74
16704,note_on,,,,,4,0,2,,,,,1,,,69,74
16704,note_on,,,,,4,0,5,,,,,4,,,69,69
16704,note_on,,,,,4,0,7,,,,,6,,,45,61
16704,note_on,,,,,196,0,3,,,,,2,,,79,100
16704,note_on,,,,,4,0,6,,,,,5,,,57,68
16796,note_off,,,,,92,0,5,,,,,4,,,69,55
16796,note_off,,,,,92,0,4,,,,,3,,,69,79
16796,note_off,,,,,92,0,6,,,,,5,,,57,57
16796,note_off,,,,,92,0,8,,,,,7,,,57,32
16796,note_off,,,,,92,0,7,,,,,6,,,45,51
16796,note_off,,,,,92,0,2,,,,,1,,,69,59
16800,note_on,,,,,4,0,8,,,,,7,,,59,63
16800,note_on,,,,,4,0,6,,,,,5,,,59,68
16800,note_on,,,,,4,0,2,,,,,1,,,71,74
16800,note_on,,,,,4,0,4,,,,,3,,,71,100
16800,note_on,,,,,4,0,5,,,,,4,,,71,69
16800,note_on,,,,,4,0,7,,,,,6,,,47,61
16892,note_off,,,,,92,0,2,,,,,1,,,71,59
16892,note_off,,,,,188,0,3,,,,,2,,,79,79
16892,note_off,,,,,188,0,1,,,,,0,,,79,59
16892,note_off,,,,,92,0,5,,,,,4,,,71,55
16892,note_off,,,,,92,0,4,,,,,3,,,71,79
16892,note_off,,,,,92,0,6,,,,,5,,,59,57
16892,note_off,,,,,92,0,7,,,,,6,,,47,51
16892,note_off,,,,,92,0,8,,,,,7,,,59,32
16896,note_on,,,,,4,0,4,,,,,3,,,72,100
16896,note_on,,,,,4,0,2,,,,,1,,,72,74
16896,note_on,,,,,4,0,6,,,,,5,,,60,68
16896,note_on,,,,,4,0,3,,,,,2,,,76,100
16896,note_on,,,,,4,0,5,,,,,4,,,72,69
16896,note_on,,,,,4,0,1,,,,,0,,,76,74
16896,note_on,,,,,4,0,7,,,,,6,,,48,61
16896,note_on,,,,,4,0,8,,,,,7,,,60,63
16988,note_off,,,,,92,0,1,,,,,0,,,76,59
16988,note_off,,,,,92,0,3,,,,,2,,,76,79
16992,note_on,,,,,4,0,3,,,,,2,,,81,100
16992,note_on,,,,,4,0,1,,,,,0,,,81,74
17084,note_off,,,,,92,0,3,,,,,2,,,81,79
17084,note_off,,,,,188,0,4,,,,,3,,,72,79
17084,note_off,,,,,188,0,7,,,,,6,,,48,51
17084,note_off,,,,,188,0,6,,,,,5,,,60,57
17084,note_off,,,,,188,0,2,,,,,1,,,72,59
17084,note_off,,,,,188,0,5,,,,,4,,,72,55
17084,note_off,,,,,92,0,1,,,,,0,,,81,59
17084,note_off,,,,,188,0,8,,,,,7,,,60,32
17088,note_on,,,,,4,0,7,,,,,6,,,36,61
17088,note_on,,,,,4,0,4,,,,,3,,,76,100
17088,note_on,,,,,4,0,3,,,,,2,,,79,100
17088,note_on,,,,,4,0,8,,,,,7,,,48,63
17088,note_on,,,,,4,0,6,,,,,5,,,48,68
17088,note_on,,,,,4,0,2,,,,,1,,,76,74
17088,note_on,,,,,4,0,5,,,,,4,,,79,69
17088,note_on,,,,,4,0,1,,,,,0,,,79,74
17180,note_off,,,,,92,0,3,,,,,2,,,79,79
17180,note_off,,,,,92,0,1,,,,,0,,,79,59
17184,note_on,,,,,4,0,3,,,,,2,,,81,100
17184,note_on,,,,,4,0,1,,,,,0,,,81,74
17276,note_off,,,,,188,0,6,,,,,5,,,48,57
17276,note_off,,,,,188,0,8,,,,,7,,,48,32
17276,note_off,,,,,188,0,4,,,,,3,,,76,79
17276,note_off,,,,,92,0,3,,,,,2,,,81,79
17276,note_off,,,,,188,0,5,,,,,4,,,79,55
17276,note_off,,,,,188,0,7,,,,,6,,,36,51
17276,note_off,,,,,92,0,1,,,,,0,,,81,59
17276,note_off,,,,,188,0,2,,,,,1,,,76,59
17280,note_on,,,,,4,0,5,,,,,4,,,78,69
17280,note_on,,,,,4,0,6,,,,,5,,,47,68
17280,note_on,,,,,4,0,1,,,,,0,,,74,74
17280,note_on,,,,,4,0,4,,,,,3,,,74,100
17280,note_on,,,,,4,0,8,,,,,7,,,47,63
17280,note_on,,,,,4,0,7,,,,,6,,,35,61
17280,note_on,,,,,4,0,3,,,,,2,,,74,100
17280,note_on,,,,,4,0,2,,,,,1,,,74,74
17372,note_off,,,,,92,0,3,,,,,2,,,74,79
17372,note_off,,,,,92,0,1,,,,,0,,,74,59
17376,note_on,,,,,4,0,1,,,,,0,,,79,74
17376,note_on,,,,,4,0,3,,,,,2,,,79,100
17468,note_off,,,,,188,0,2,,,,,1,,,74,59
17468,note_off,,,,,188,0,4,,,,,3,,,74,79
17468,note_off,,,,,188,0,8,,,,,7,,,47,32
17468,note_off,,,,,188,0,7,,,,,6,,,35,51
17468,note_off,,,,,188,0,5,,,,,4,,,78,55
17468,note_off,,,,,92,0,3,,,,,2,,,79,79
17468,note_off,,,,,92,0,1,,,,,0,,,79,59
17468,note_off,,,,,188,0,6,,,,,5,,,47,57
17472,note_on,,,,,4,0,1,,,,,0,,,78,74
17472,note_on,,,,,4,0,7,,,,,6,,,47,61
17472,note_on,,,,,4,0,8,,,,,7,,,59,63
17472,note_on,,,,,4,0,6,,,,,5,,,59,68
17472,note_on,,,,,4,0,4,,,,,3,,,62,100
17472,note_on,,,,,4,0,2,,,,,1,,,62,74
17472,note_on,,,,,4,0,5,,,,,4,,,62,69
17472,note_on,,,,,4,0,3,,,,,2,,,78,100
17564,note_off,,,,,92,0,3,,,,,2,,,78,79
17564,note_off,,,,,92,0,1,,,,,0,,,78,59
17568,note_on,,,,,4,0,3,,,,,2,,,79,100
17568,note_on,,,,,4,0,1,,,,,0,,,79,74
17660,note_off,,,,,188,0,2,,,,,1,,,62,59
17660,note_off,,,,,188,0,6,,,,,5,,,59,57
17660,note_off,,,,,92,0,3,,,,,2,,,79,79
17660,note_off,,,,,188,0,8,,,,,7,,,59,32
17660,note_off,,,,,188,0,7,,,,,6,,,47,51
17660,note_off,,,,,188,0,5,,,,,4,,,62,55
17660,note_off,,,,,92,0,1,,,,,0,,,79,59
17660,note_off,,,,,188,0,4,,,,,3,,,62,79
17664,note_on,,,,,4,0,6,,,,,5,,,60,68
17664,note_on,,,,,4,0,5,,,,,4,,,60,69
17664,note_on,,,,,4,0,7,,,,,6,,,48,61
17664,note_on,,,,,4,0,3,,,,,2,,,76,100
17664,note_on,,,,,4,0,2,,,,,1,,,60,74
17664,note_on,,,,,4,0,8,,,,,7,,,60,63
17664,note_on,,,,,4,0,1,,,,,0,,,76,74
17664,note_on,,,,,4,0,4,,,,,3,,,60,100
17756,note_off,,,,,92,0,3,,,,,2,,,76,79
17756,note_off,,,,,92,0,1,,,,,0,,,76,59
17760,note_on,,,,,4,0,3,,,,,2,,,81,100
17760,note_on,,,,,4,0,1,,,,,0,,,81,74
17852,note_off,,,,,92,0,3,,,,,2,,,81,79
17852,note_off,,,,,188,0,4,,,,,3,,,60,79
17852,note_off,,,,,188,0,6,,,,,5,,,60,57
17852,note_off,,,,,188,0,2,,,,,1,,,60,59
17852,note_off,,,,,188,0,8,,,,,7,,,60,32
17852,note_off,,,,,92,0,1,,,,,0,,,81,59
17852,note_off,,,,,188,0,5,,,,,4,,,60,55
17852,note_off,,,,,188,0,7,,,,,6,,,48,51
17856,note_on,,,,,4,0,8,,,,,7,,,48,63
17856,note_on,,,,,4,0,2,,,,,1,,,76,74
17856,note_on,,,,,4,0,7,,,,,6,,,36,61
17856,note_on,,,,,4,0,4,,,,,3,,,76,100
17856,note_on,,,,,4,0,5,,,,,4,,,79,69
17856,note_on,,,,,4,0,6,,,,,5,,,48,68
17856,note_on,,,,,4,0,3,,,,,2,,,79,100
17856,note_on,,,,,4,0,1,,,,,0,,,79,74
17948,note_off,,,,,92,0,3,,,,,2,,,79,79
17948,note_off,,,,,92,0,1,,,,,0,,,79,59
17952,note_on,,,,,4,0,3,,,,,2,,,81,100
17952,note_on,,,,,4,0,1,,,,,0,,,81,74
18044,note_off,,,,,92,0,1,,,,,0,,,81,59
18044,note_off,,,,,188,0,2,,,,,1,,,76,59
18044,note_off,,,,,188,0,4,,,,,3,,,76,79
18044,note_off,,,,,92,0,3,,,,,2,,,81,79
18044,note_off,,,,,188,0,5,,,,,4,,,79,55
18044,note_off,,,,,188,0,6,,,,,5,,,48,57
18044,note_off,,,,,188,0,8,,,,,7,,,48,32
18044,note_off,,,,,188,0,7,,,,,6,,,36,51
18048,note_on,,,,,4,0,1,,,,,0,,,74,74
18048,note_on,,,,,4,0,3,,,,,2,,,74,100
18048,note_on,,,,,4,0,8,,,,,7,,,47,63
18048,note_on,,,,,4,0,5,,,,,4,,,78,69
18048,note_on,,,,,4,0,6,,,,,5,,,47,68
18048,note_on,,,,,4,0,4,,,,,3,,,74,100
18048,note_on,,,,,4,0,2,,,,,1,,,74,74
18048,note_on,,,,,4,0,7,,,,,6,,,35,61
18140,note_off,,,,,92,0,1,,,,,0,,,74,59
18140,note_off,,,,,92,0,3,,,,,2,,,74,79
18144,note_on,,,,,4,0,1,,,,,0,,,79,74
18144,note_on,,,,,4,0,3,,,,,2,,,79,100
18236,note_off,,,,,92,0,1,,,,,0,,,79,59
18236,note_off,,,,,188,0,4,,,,,3,,,74,79
18236,note_off,,,,,188,0,8,,,,,7,,,47,32
18236,note_off,,,,,188,0,2,,,,,1,,,74,59
18236,note_off,,,,,188,0,6,,,,,5,,,47,57
18236,note_off,,,,,188,0,5,,,,,4,,,78,55
18236,note_off,,,,,92,0,3,,,,,2,,,79,79
18236,note_off,,,,,188,0,7,,,,,6,,,35,51
18240,note_on,,,,,4,0,3,,,,,2,,,78,100
18240,note_on,,,,,4,0,8,,,,,7,,,59,63
18240,note_on,,,,,4,0,4,,,,,3,,,62,100
18240,note_on,,,,,4,0,6,,,,,5,,,59,68
18240,note_on,,,,,4,0,2,,,,,1,,,62,74
18240,note_on,,,,,4,0,1,,,,,0,,,78,74
18240,note_on,,,,,4,0,7,,,,,6,,,47,61
18240,note_on,,,,,4,0,5,,,,,4,,,62,69
18332,note_off,,,,,92,0,1,,,,,0,,,78,59
18332,note_off,,,,,92,0,3,,,,,2,,,78,79
18336,note_on,,,,,4,0,1,,,,,0,,,79,74
18336,note_on,,,,,4,0,3,,,,,2,,,79,100
18428,note_off,,,,,188,0,2,,,,,1,,,62,59
18428,note_off,,,,,188,0,4,,,,,3,,,62,79
18428,note_off,,,,,92,0,3,,,,,2,,,79,79
18428,note_off,,,,,188,0,6,,,,,5,,,59,57
18428,note_off,,,,,188,0,8,,,,,7,,,59,32
18428,note_off,,,,,92,0,1,,,,,0,,,79,59
18428,note_off,,,,,188,0,7,,,,,6,,,47,51
18428,note_off,,,,,188,0,5,,,,,4,,,62,55
18432,note_on,,,,,4,0,4,,,,,3,,,67,100
18432,note_on,,,,,4,0,6,,,,,5,,,60,68
18432,note_on,,,,,4,0,5,,,,,4,,,67,69
18432,note_on,,,,,4,0,3,,,,,2,,,76,100
18432,note_on,,,,,4,0,8,,,,,7,,,60,63
18432,note_on,,,,,4,0,2,,,,,1,,,67,74
18432,note_on,,,,,4,0,7,,,,,6,,,48,61
18432,note_on,,,,,4,0,1,,,,,0,,,76,74
18524,note_off,,,,,92,0,3,,,,,2,,,76,79
18524,note_off,,,,,92,0,1,,,,,0,,,76,59
18528,note_on,,,,,4,0,1,,,,,0,,,79,74
18528,note_on,,,,,4,0,3,,,,,2,,,79,100
18620,note_off,,,,,188,0,6,,,,,5,,,60,57
18620,note_off,,,,,188,0,8,,,,,7,,,60,32
18620,note_off,,,,,188,0,5,,,,,4,,,67,55
18620,note_off,,,,,92,0,3,,,,,2,,,79,79
18620,note_off,,,,,188,0,2,,,,,1,,,67,59
18620,note_off,,,,,92,0,1,,,,,0,,,79,59
18620,note_off,,,,,188,0,7,,,,,6,,,48,51
18620,note_off,,,,,188,0,4,,,,,3,,,67,79
18624,note_on,,,,,4,0,2,,,,,1,,,79,74
18624,note_on,,,,,4,0,8,,,,,7,,,59,63
18624,note_on,,,,,4,0,3,,,,,2,,,81,100
18624,note_on,,,,,4,0,1,,,,,0,,,81,74
18624,note_on,,,,,4,0,6,,,,,5,,,59,68
18624,note_on,,,,,4,0,5,,,,,4,,,74,69
18624,note_on,,,,,4,0,7,,,,,6,,,47,61
18624,note_on,,,,,4,0,4,,,,,3,,,79,100
18716,note_off,,,,,92,0,3,,,,,2,,,81,79
18716,note_off,,,,,92,0,1,,,,,0,,,81,59
18720,note_on,,,,,4,0,1,,,,,0,,,83,74
18720,note_on,,,,,4,0,3,,,,,2,,,83,100
18812,note_off,,,,,188,0,4,,,,,3,,,79,79
18812,note_off,,,,,92,0,1,,,,,0,,,83,59
18812,note_off,,,,,188,0,7,,,,,6,,,47,51
18812,note_off,,,,,188,0,6,,,,,5,,,59,57
18812,note_off,,,,,188,0,2,,,,,1,,,79,59
18812,note_off,,,,,188,0,8,,,,,7,,,59,32
18812,note_off,,,,,188,0,5,,,,,4,,,74,55
18812,note_off,,,,,92,0,3,,,,,2,,,83,79
18816,note_on,,,,,4,0,7,,,,,6,,,45,61
18816,note_on,,,,,4,0,3,,,,,2,,,84,100
18816,note_on,,,,,4,0,2,,,,,1,,,78,74
18816,note_on,,,,,4,0,1,,,,,0,,,84,74
18816,note_on,,,,,4,0,6,,,,,5,,,57,68
18816,note_on,,,,,4,0,8,,,,,7,,,57,63
18816,note_on,,,,,4,0,4,,,,,3,,,78,100
18816,note_on,,,,,4,0,5,,,,,4,,,72,69
19004,note_off,,,,,188,0,1,,,,,0,,,84,59
19004,note_off,,,,,188,0,3,,,,,2,,,84,79
19004,note_off,,,,,188,0,2,,,,,1,,,78,59
19004,note_off,,,,,188,0,7,,,,,6,,,45,51
19004,note_off,,,,,188,0,8,,,,,7,,,57,32
19004,note_off,,,,,188,0,5,,,,,4,,,72,55
19004,note_off,,,,,188,0,4,,,,,3,,,78,79
19004,note_off,,,,,188,0,6,,,,,5,,,57,57
19008,note_on,,,,,4,0,1,,,,,0,,,83,74
19008,note_on,,,,,4,0,3,,,,,2,,,83,100
19008,note_on,,,,,4,0,5,,,,,4,,,74,69
19008,note_on,,,,,4,0,2,,,,,1,,,79,74
19008,note_on,,,,,4,0,7,,,,,6,,,43,61
19008,note_on,,,,,4,0,8,,,,,7,,,55,63
19008,note_on,,,,,4,0,4,,,,,3,,,79,100
19008,note_on,,,,,4,0,6,,,,,5,,,55,68
19196,note_off,,,,,188,0,2,,,,,1,,,79,59
19196,note_off,,,,,188,0,4,,,,,3,,,79,79
19196,note_off,,,,,188,0,8,,,,,7,,,55,32
19196,note_off,,,,,188,0,3,,,,,2,,,83,79
19196,note_off,,,,,188,0,6,,,,,5,,,55,57
19196,note_off,,,,,188,0,7,,,,,6,,,43,51
19196,note_off,,,,,188,0,1,,,,,0,,,83,59
19196,note_off,,,,,188,0,5,,,,,4,,,74,55
19200,note_on,,,,,4,0,1,,,,,0,,,81,74
19200,note_on,,,,,4,0,6,,,,,5,,,62,68
19200,note_on,,,,,4,0,7,,,,,6,,,50,61
19200,note_on,,,,,4,0,5,,,,,4,,,62,69
19200,note_on,,,,,4,0,4,,,,,3,,,78,100
19200,note_on,,,,,4,0,2,,,,,1,,,78,74
19200,note_on,,,,,4,0,8,,,,,7,,,62,63
19200,note_on,,,,,4,0,3,,,,,2,,,81,100
19388,note_off,,,,,188,0,1,,,,,0,,,81,59
19388,note_off,,,,,188,0,6,,,,,5,,,62,57
19388,note_off,,,,,188,0,3,,,,,2,,,81,79
19388,note_off,,,,,188,0,7,,,,,6,,,50,51
19388,note_off,,,,,188,0,8,,,,,7,,,62,32
19392,note_on,,,,,4,0,1,,,,,0,,,74,74
19392,note_on,,,,,4,0,6,,,,,5,,,50,68
19392,note_on,,,,,4,0,7,,,,,6,,,38,61
19392,note_on,,,,,4,0,8,,,,,7,,,50,63
19392,note_on,,,,,4,0,3,,,,,2,,,74,100
19580,note_off,,,,,188,0,7,,,,,6,,,38,51
19580,note_off,,,,,188,0,3,,,,,2,,,74,79
19580,note_off,,,,,188,0,8,,,,,7,,,50,32
19580,note_off,,,,,188,0,6,,,,,5,,,50,57
19580,note_off,,,,,188,0,1,,,,,0,,,74,59
19584,note_off,,,,,384,0,5,,,,,4,,,62,55
19584,note_off,,,,,384,0,2,,,,,1,,,78,59
19584,note_off,,,,,384,0,4,,,,,3,,,78,79
19776,note_on,,,,,196,0,1,,,,,0,,,74,74
19776,note_on,,,,,196,0,6,,,,,5,,,66,68
19776,note_on,,,,,196,0,7,,,,,6,,,54,61
19776,note_on,,,,,192,0,4,,,,,3,,,69,100
19776,note_on,,,,,192,0,2,,,,,1,,,69,74
19964,note_off,,,,,188,0,6,,,,,5,,,66,57
19964,note_off,,,,,188,0,1,,,,,0,,,74,59
19964,note_off,,,,,188,0,2,,,,,1,,,69,59
19964,note_off,,,,,188,0,7,,,,,6,,,54,51
19964,note_off,,,,,188,0,4,,,,,3,,,69,79
19968,note_on,,,,,4,0,7,,,,,6,,,55,49
19968,note_on,,,,,4,0,2,,,,,1,,,74,59
19968,note_on,,,,,4,0,6,,,,,5,,,67,54
19968,note_on,,,,,4,0,1,,,,,0,,,71,59
20060,note_off,,,,,92,0,1,,,,,0,,,71,59
20064,note_on,,,,,4,0,1,,,,,0,,,69,59
20156,note_off,,,,,188,0,2,,,,,1,,,74,59
20156,note_off,,,,,188,0,6,,,,,5,,,67,57
20156,note_off,,,,,188,0,7,,,,,6,,,55,51
20156,note_off,,,,,92,0,1,,,,,0,,,69,59
20160,note_on,,,,,4,0,7,,,,,6,,,55,49
20160,note_on,,,,,4,0,1,,,,,0,,,67,59
20160,note_on,,,,,4,0,2,,,,,1,,,71,59
20160,note_on,,,,,4,0,6,,,,,5,,,67,54
20252,note_off,,,,,92,0,1,,,,,0,,,67,59
20256,note_on,,,,,4,0,1,,,,,0,,,79,59
20348,note_off,,,,,188,0,6,,,,,5,,,67,57
20348,note_off,,,,,188,0,2,,,,,1,,,71,59
20348,note_off,,,,,92,0,1,,,,,0,,,79,59
20348,note_off,,,,,188,0,7,,,,,6,,,55,51
20352,note_on,,,,,4,0,6,,,,,5,,,67,54
20352,note_on,,,,,4,0,2,,,,,1,,,71,59
20352,note_on,,,,,4,0,7,,,,,6,,,55,49
20352,note_on,,,,,4,0,1,,,,,0,,,74,59
20444,note_off,,,,,92,0,1,,,,,0,,,74,59
20448,note_on,,,,,4,0,1,,,,,0,,,72,59
20540,note_off,,,,,188,0,2,,,,,1,,,71,59
20540,note_off,,,,,92,0,1,,,,,0,,,72,59
20540,note_off,,,,,188,0,7,,,,,6,,,55,51
20540,note_off,,,,,188,0,6,,,,,5,,,67,57
20544,note_on,,,,,4,0,1,,,,,0,,,71,59
20544,note_on,,,,,4,0,7,,,,,6,,,55,49
20544,note_on,,,,,4,0,2,,,,,1,,,67,59
20544,note_on,,,,,4,0,6,,,,,5,,,67,54
20636,note_off,,,,,92,0,1,,,,,0,,,71,59
20640,note_on,,,,,4,0,1,,,,,0,,,74,59
20732,note_off,,,,,92,0,1,,,,,0,,,74,59
20732,note_off,,,,,188,0,7,,,,,6,,,55,51
20732,note_off,,,,,188,0,2,,,,,1,,,67,59
20732,note_off,,,,,188,0,6,,,,,5,,,67,57
20736,note_on,,,,,4,0,6,,,,,5,,,65,54
20736,note_on,,,,,4,0,2,,,,,1,,,74,59
20736,note_on,,,,,4,0,1,,,,,0,,,71,59
20736,note_on,,,,,4,0,7,,,,,6,,,53,49
20828,note_off,,,,,92,0,1,,,,,0,,,71,59
20832,note_on,,,,,4,0,1,,,,,0,,,69,59
20924,note_off,,,,,188,0,6,,,,,5,,,65,57
20924,note_off,,,,,92,0,1,,,,,0,,,69,59
20924,note_off,,,,,188,0,2,,,,,1,,,74,59
20924,note_off,,,,,188,0,7,,,,,6,,,53,51
20928,note_on,,,,,4,0,2,,,,,1,,,71,59
20928,note_on,,,,,4,0,7,,,,,6,,,53,49
20928,note_on,,,,,4,0,1,,,,,0,,,67,59
20928,note_on,,,,,4,0,6,,,,,5,,,65,54
21020,note_off,,,,,92,0,1,,,,,0,,,67,59
21024,note_on,,,,,4,0,1,,,,,0,,,79,59
21116,note_off,,,,,188,0,6,,,,,5,,,65,57
21116,note_off,,,,,188,0,2,,,,,1,,,71,59
21116,note_off,,,,,92,0,1,,,,,0,,,79,59
21116,note_off,,,,,188,0,7,,,,,6,,,53,51
21120,note_on,,,,,4,0,2,,,,,1,,,71,59
21120,note_on,,,,,4,0,1,,,,,0,,,74,59
21120,note_on,,,,,4,0,7,,,,,6,,,53,49
21120,note_on,,,,,4,0,6,,,,,5,,,65,54
21212,note_off,,,,,92,0,1,,,,,0,,,74,59
21216,note_on,,,,,4,0,1,,,,,0,,,72,59
21308,note_off,,,,,188,0,2,,,,,1,,,71,59
21308,note_off,,,,,188,0,7,,,,,6,,,53,51
21308,note_off,,,,,188,0,6,,,,,5,,,65,57
21308,note_off,,,,,92,0,1,,,,,0,,,72,59
21312,note_on,,,,,4,0,2,,,,,1,,,67,59
21312,note_on,,,,,4,0,7,,,,,6,,,53,49
21312,note_on,,,,,4,0,1,,,,,0,,,71,59
21312,note_on,,,,,4,0,6,,,,,5,,,65,54
21404,note_off,,,,,92,0,1,,,,,0,,,71,59
21408,note_on,,,,,4,0,1,,,,,0,,,74,59
21500,note_off,,,,,188,0,2,,,,,1,,,67,59
21500,note_off,,,,,188,0,7,,,,,6,,,53,51
21500,note_off,,,,,188,0,6,,,,,5,,,65,57
21500,note_off,,,,,92,0,1,,,,,0,,,74,59
21504,note_on,,,,,4,0,6,,,,,5,,,65,54
21504,note_on,,,,,4,0,7,,,,,6,,,53,49
21504,note_on,,,,,4,0,2,,,,,1,,,74,59
21504,note_on,,,,,4,0,1,,,,,0,,,71,59
21596,note_off,,,,,92,0,1,,,,,0,,,71,59
21600,note_on,,,,,4,0,1,,,,,0,,,69,59
21692,note_off,,,,,188,0,7,,,,,6,,,53,51
21692,note_off,,,,,188,0,2,,,,,1,,,74,59
21692,note_off,,,,,92,0,1,,,,,0,,,69,59
21692,note_off,,,,,188,0,6,,,,,5,,,65,57
21696,note_on,,,,,4,0,2,,,,,1,,,71,59
21696,note_on,,,,,4,0,6,,,,,5,,,65,54
21696,note_on,,,,,4,0,1,,,,,0,,,67,59
21696,note_on,,,,,4,0,7,,,,,6,,,53,49
21788,note_off,,,,,92,0,1,,,,,0,,,67,59
21792,note_on,,,,,4,0,1,,,,,0,,,79,59
21884,note_off,,,,,188,0,2,,,,,1,,,71,59
21884,note_off,,,,,92,0,1,,,,,0,,,79,59
21884,note_off,,,,,188,0,6,,,,,5,,,65,57
21884,note_off,,,,,188,0,7,,,,,6,,,53,51
21888,note_on,,,,,4,0,1,,,,,0,,,74,59
21888,note_on,,,,,4,0,6,,,,,5,,,65,54
21888,note_on,,,,,4,0,7,,,,,6,,,53,49
21888,note_on,,,,,4,0,2,,,,,1,,,71,59
21980,note_off,,,,,92,0,1,,,,,0,,,74,59
21984,note_on,,,,,4,0,1,,,,,0,,,72,59
22076,note_off,,,,,188,0,2,,,,,1,,,71,59
22076,note_off,,,,,92,0,1,,,,,0,,,72,59
22076,note_off,,,,,188,0,6,,,,,5,,,65,57
22076,note_off,,,,,188,0,7,,,,,6,,,53,51
22080,note_on,,,,,4,0,6,,,,,5,,,65,54
22080,note_on,,,,,4,0,1,,,,,0,,,71,59
22080,note_on,,,,,4,0,7,,,,,6,,,53,49
22080,note_on,,,,,4,0,2,,,,,1,,,74,59
22172,note_off,,,,,92,0,1,,,,,0,,,71,59
22176,note_on,,,,,4,0,1,,,,,0,,,74,59
22268,note_off,,,,,188,0,7,,,,,6,,,53,51
22268,note_off,,,,,188,0,2,,,,,1,,,74,59
22268,note_off,,,,,92,0,1,,,,,0,,,74,59
22268,note_off,,,,,188,0,6,,,,,5,,,65,57
22272,note_on,,,,,4,0,7,,,,,6,,,52,49
22272,note_on,,,,,4,0,1,,,,,0,,,79,59
22272,note_on,,,,,4,0,6,,,,,5,,,64,54
22272,note_on,,,,,4,0,2,,,,,1,,,72,59
22364,note_off,,,,,92,0,1,,,,,0,,,79,59
22368,note_on,,,,,4,0,1,,,,,0,,,76,59
22460,note_off,,,,,92,0,1,,,,,0,,,76,59
22460,note_off,,,,,188,0,2,,,,,1,,,72,59
22460,note_off,,,,,188,0,7,,,,,6,,,52,51
22460,note_off,,,,,188,0,6,,,,,5,,,64,57
22464,note_on,,,,,4,0,2,,,,,1,,,67,59
22464,note_on,,,,,4,0,1,,,,,0,,,77,59
22556,note_off,,,,,92,0,1,,,,,0,,,77,59
22560,note_on,,,,,4,0,1,,,,,0,,,74,59
22652,note_off,,,,,188,0,2,,,,,1,,,67,59
22652,note_off,,,,,92,0,1,,,,,0,,,74,59
22656,note_on,,,,,4,0,1,,,,,0,,,72,59
22656,note_on,,,,,4,0,2,,,,,1,,,76,59
22748,note_off,,,,,92,0,1,,,,,0,,,72,59
22752,note_on,,,,,4,0,1,,,,,0,,,79,59
22844,note_off,,,,,92,0,1,,,,,0,,,79,59
22844,note_off,,,,,188,0,2,,,,,1,,,76,59
22848,note_on,,,,,388,0,6,,,,,5,,,64,54
22848,note_on,,,,,4,0,1,,,,,0,,,76,59
22848,note_on,,,,,4,0,2,,,,,1,,,67,59
22848,note_on,,,,,388,0,7,,,,,6,,,52,49
22940,note_off,,,,,92,0,1,,,,,0,,,76,59
22944,note_on,,,,,4,0,1,,,,,0,,,79,59
23036,note_off,,,,,92,0,1,,,,,0,,,79,59
23036,note_off,,,,,188,0,7,,,,,6,,,52,51
23036,note_off,,,,,188,0,6,,,,,5,,,64,57
23036,note_off,,,,,188,0,2,,,,,1,,,67,59
23040,note_on,,,,,4,0,7,,,,,6,,,55,49
23040,note_on,,,,,4,0,2,,,,,1,,,76,59
23040,note_on,,,,,4,0,1,,,,,0,,,73,59
23040,note_on,,,,,4,0,6,,,,,5,,,67,54
23132,note_off,,,,,92,0,1,,,,,0,,,73,59
23136,note_on,,,,,4,0,1,,,,,0,,,71,59
23228,note_off,,,,,188,0,7,,,,,6,,,55,51
23228,note_off,,,,,188,0,2,,,,,1,,,76,59
23228,note_off,,,,,188,0,6,,,,,5,,,67,57
23228,note_off,,,,,92,0,1,,,,,0,,,71,59
23232,note_on,,,,,4,0,7,,,,,6,,,55,49
23232,note_on,,,,,4,0,2,,,,,1,,,73,59
23232,note_on,,,,,4,0,6,,,,,5,,,67,54
23232,note_on,,,,,4,0,1,,,,,0,,,69,59
23324,note_off,,,,,92,0,1,,,,,0,,,69,59
23328,note_on,,,,,4,0,1,,,,,0,,,81,59
23420,note_off,,,,,188,0,7,,,,,6,,,55,51
23420,note_off,,,,,188,0,6,,,,,5,,,67,57
23420,note_off,,,,,92,0,1,,,,,0,,,81,59
23420,note_off,,,,,188,0,2,,,,,1,,,73,59
23424,note_on,,,,,4,0,6,,,,,5,,,67,54
23424,note_on,,,,,4,0,1,,,,,0,,,76,59
23424,note_on,,,,,4,0,2,,,,,1,,,73,59
23424,note_on,,,,,4,0,7,,,,,6,,,55,49
23516,note_off,,,,,92,0,1,,,,,0,,,76,59
23520,note_on,,,,,4,0,1,,,,,0,,,74,59
23612,note_off,,,,,92,0,1,,,,,0,,,74,59
23612,note_off,,,,,188,0,6,,,,,5,,,67,57
23612,note_off,,,,,188,0,2,,,,,1,,,73,59
23612,note_off,,,,,188,0,7,,,,,6,,,55,51
23616,note_on,,,,,4,0,6,,,,,5,,,67,54
23616,note_on,,,,,4,0,1,,,,,0,,,73,59
23616,note_on,,,,,4,0,2,,,,,1,,,69,59
23616,note_on,,,,,4,0,7,,,,,6,,,55,49
23708,note_off,,,,,92,0,1,,,,,0,,,73,59
23712,note_on,,,,,4,0,1,,,,,0,,,76,59
23804,note_off,,,,,188,0,7,,,,,6,,,55,51
23804,note_off,,,,,188,0,2,,,,,1,,,69,59
23804,note_off,,,,,92,0,1,,,,,0,,,76,59
23804,note_off,,,,,188,0,6,,,,,5,,,67,57
23808,note_on,,,,,4,0,6,,,,,5,,,67,54
23808,note_on,,,,,4,0,7,,,,,6,,,55,49
23808,note_on,,,,,4,0,1,,,,,0,,,73,59
23808,note_on,,,,,4,0,2,,,,,1,,,76,59
23900,note_off,,,,,92,0,1,,,,,0,,,73,59
23904,note_on,,,,,4,0,1,,,,,0,,,71,59
23996,note_off,,,,,188,0,7,,,,,6,,,55,51
23996,note_off,,,,,92,0,1,,,,,0,,,71,59
23996,note_off,,,,,188,0,6,,,,,5,,,67,57
23996,note_off,,,,,188,0,2,,,,,1,,,76,59
24000,note_on,,,,,4,0,2,,,,,1,,,73,59
24000,note_on,,,,,4,0,6,,,,,5,,,67,54
24000,note_on,,,,,4,0,1,,,,,0,,,69,59
24000,note_on,,,,,4,0,7,,,,,6,,,55,49
24092,note_off,,,,,92,0,1,,,,,0,,,69,59
24096,note_on,,,,,4,0,1,,,,,0,,,81,59
24188,note_off,,,,,92,0,1,,,,,0,,,81,59
24188,note_off,,,,,188,0,6,,,,,5,,,67,57
24188,note_off,,,,,188,0,2,,,,,1,,,73,59
24188,note_off,,,,,188,0,7,,,,,6,,,55,51
24192,note_on,,,,,4,0,7,,,,,6,,,55,49
24192,note_on,,,,,4,0,6,,,,,5,,,67,54
24192,note_on,,,,,4,0,1,,,,,0,,,76,59
24192,note_on,,,,,4,0,2,,,,,1,,,73,59
24284,note_off,,,,,92,0,1,,,,,0,,,76,59
24288,note_on,,,,,4,0,1,,,,,0,,,74,59
24380,note_off,,,,,188,0,7,,,,,6,,,55,51
24380,note_off,,,,,92,0,1,,,,,0,,,74,59
24380,note_off,,,,,188,0,2,,,,,1,,,73,59
24380,note_off,,,,,188,0,6,,,,,5,,,67,57
24384,note_on,,,,,4,0,1,,,,,0,,,73,59
24384,note_on,,,,,4,0,7,,,,,6,,,55,49
24384,note_on,,,,,4,0,2,,,,,1,,,69,59
24384,note_on,,,,,4,0,6,,,,,5,,,67,54
24476,note_off,,,,,92,0,1,,,,,0,,,73,59
24480,note_on,,,,,4,0,1,,,,,0,,,76,59
24572,note_off,,,,,188,0,6,,,,,5,,,67,57
24572,note_off,,,,,188,0,2,,,,,1,,,69,59
24572,note_off,,,,,188,0,7,,,,,6,,,55,51
24572,note_off,,,,,92,0,1,,,,,0,,,76,59
24576,note_on,,,,,4,0,2,,,,,1,,,76,59
24576,note_on,,,,,4,0,7,,,,,6,,,55,49
24576,note_on,,,,,4,0,6,,,,,5,,,67,54
24576,note_on,,,,,4,0,1,,,,,0,,,73,59
24668,note_off,,,,,92,0,1,,,,,0,,,73,59
24672,note_on,,,,,4,0,1,,,,,0,,,71,60
24764,note_off,,,,,188,0,6,,,,,5,,,67,57
24764,note_off,,,,,188,0,7,,,,,6,,,55,51
24764,note_off,,,,,188,0,2,,,,,1,,,76,59
24764,note_off,,,,,92,0,1,,,,,0,,,71,59
24768,note_on,,,,,4,0,7,,,,,6,,,55,50
24768,note_on,,,,,4,0,6,,,,,5,,,67,56
24768,note_on,,,,,4,0,1,,,,,0,,,69,61
24768,note_on,,,,,4,0,2,,,,,1,,,73,61
24860,note_off,,,,,92,0,1,,,,,0,,,69,59
24864,note_on,,,,,4,0,1,,,,,0,,,81,62
24956,note_off,,,,,92,0,1,,,,,0,,,81,59
24956,note_off,,,,,188,0,6,,,,,5,,,67,57
24956,note_off,,,,,188,0,2,,,,,1,,,73,59
24956,note_off,,,,,188,0,7,,,,,6,,,55,51
24960,note_on,,,,,4,0,6,,,,,5,,,67,58
24960,note_on,,,,,4,0,1,,,,,0,,,76,63
24960,note_on,,,,,4,0,7,,,,,6,,,55,52
24960,note_on,,,,,4,0,2,,,,,1,,,73,63
25052,note_off,,,,,92,0,1,,,,,0,,,76,59
25056,note_on,,,,,4,0,1,,,,,0,,,74,64
25148,note_off,,,,,188,0,2,,,,,1,,,73,59
25148,note_off,,,,,188,0,7,,,,,6,,,55,51
25148,note_off,,,,,92,0,1,,,,,0,,,74,59
25148,note_off,,,,,188,0,6,,,,,5,,,67,57
25152,note_on,,,,,4,0,2,,,,,1,,,76,65
25152,note_on,,,,,4,0,7,,,,,6,,,55,53
25152,note_on,,,,,4,0,1,,,,,0,,,73,65
25152,note_on,,,,,4,0,6,,,,,5,,,67,60
25244,note_off,,,,,92,0,1,,,,,0,,,73,59
25248,note_on,,,,,4,0,1,,,,,0,,,76,66
25340,note_off,,,,,188,0,7,,,,,6,,,55,51
25340,note_off,,,,,188,0,6,,,,,5,,,67,57
25340,note_off,,,,,188,0,2,,,,,1,,,76,59
25340,note_off,,,,,92,0,1,,,,,0,,,76,59
25344,note_on,,,,,4,0,1,,,,,0,,,81,66
25344,note_on,,,,,4,0,2,,,,,1,,,74,66
25344,note_on,,,,,4,0,6,,,,,5,,,66,62
25344,note_on,,,,,4,0,7,,,,,6,,,54,55
25436,note_off,,,,,92,0,1,,,,,0,,,81,59
25440,note_on,,,,,4,0,1,,,,,0,,,78,67
25532,note_off,,,,,188,0,2,,,,,1,,,74,59
25532,note_off,,,,,92,0,1,,,,,0,,,78,59
25536,note_on,,,,,4,0,2,,,,,1,,,69,68
25536,note_on,,,,,4,0,1,,,,,0,,,74,68
25628,note_off,,,,,92,0,1,,,,,0,,,74,59
25632,note_on,,,,,4,0,1,,,,,0,,,76,69
25724,note_off,,,,,92,0,1,,,,,0,,,76,59
25724,note_off,,,,,188,0,2,,,,,1,,,69,59
25728,note_on,,,,,4,0,1,,,,,0,,,78,70
25728,note_off,,,,,384,0,6,,,,,5,,,66,57
25728,note_on,,,,,4,0,2,,,,,1,,,74,70
25728,note_off,,,,,384,0,7,,,,,6,,,54,51
25820,note_off,,,,,92,0,1,,,,,0,,,78,59
25824,note_on,,,,,4,0,1,,,,,0,,,79,71
25916,note_off,,,,,188,0,2,,,,,1,,,74,59
25916,note_off,,,,,92,0,1,,,,,0,,,79,59
25920,note_on,,,,,5956,0,4,,,,,3,,,78,97
25920,note_on,,,,,192,0,6,,,,,5,,,62,66
25920,note_on,,,,,6336,0,5,,,,,4,,,62,67
25920,note_on,,,,,192,0,7,,,,,6,,,50,59
25920,note_on,,,,,6340,0,3,,,,,2,,,81,97
25920,note_on,,,,,6340,0,8,,,,,7,,,62,63
25920,note_on,,,,,4,0,2,,,,,1,,,78,72
25920,note_on,,,,,4,0,1,,,,,0,,,81,72
26012,note_off,,,,,92,0,3,,,,,2,,,81,79
26012,note_off,,,,,92,0,1,,,,,0,,,81,59
26016,note_on,,,,,4,0,3,,,,,2,,,83,98
26016,note_on,,,,,4,0,1,,,,,0,,,83,73
26108,note_off,,,,,188,0,7,,,,,6,,,50,51
26108,note_off,,,,,92,0,3,,,,,2,,,83,79
26108,note_off,,,,,188,0,5,,,,,4,,,62,55
26108,note_off,,,,,188,0,2,,,,,1,,,78,59
26108,note_off,,,,,188,0,4,,,,,3,,,78,79
26108,note_off,,,,,188,0,6,,,,,5,,,62,57
26108,note_off,,,,,188,0,8,,,,,7,,,62,32
26108,note_off,,,,,92,0,1,,,,,0,,,83,59
26112,note_on,,,,,4,0,1,,,,,0,,,84,74
26112,note_on,,,,,4,0,6,,,,,5,,,64,68
26112,note_on,,,,,4,0,7,,,,,6,,,52,61
26112,note_on,,,,,4,0,8,,,,,7,,,64,63
26112,note_on,,,,,4,0,3,,,,,2,,,84,100
26112,note_on,,,,,4,0,4,,,,,3,,,79,100
26112,note_on,,,,,4,0,2,,,,,1,,,79,74
26112,note_on,,,,,4,0,5,,,,,4,,,67,69
26204,note_off,,,,,92,0,4,,,,,3,,,79,79
26204,note_off,,,,,92,0,2,,,,,1,,,79,59
26208,note_on,,,,,4,0,4,,,,,3,,,81,101
26208,note_on,,,,,4,0,2,,,,,1,,,81,75
26300,note_off,,,,,188,0,1,,,,,0,,,84,59
26300,note_off,,,,,188,0,7,,,,,6,,,52,51
26300,note_off,,,,,188,0,5,,,,,4,,,67,55
26300,note_off,,,,,92,0,4,,,,,3,,,81,79
26300,note_off,,,,,92,0,2,,,,,1,,,81,59
26300,note_off,,,,,188,0,8,,,,,7,,,64,32
26300,note_off,,,,,188,0,6,,,,,5,,,64,57
26300,note_off,,,,,188,0,3,,,,,2,,,84,79
26304,note_on,,,,,4,0,1,,,,,0,,,72,76
26304,note_on,,,,,4,0,8,,,,,7,,,52,63
26304,note_on,,,,,4,0,5,,,,,4,,,55,71
26304,note_on,,,,,4,0,3,,,,,2,,,72,102
26304,note_on,,,,,4,0,6,,,,,5,,,52,70
26304,note_on,,,,,4,0,4,,,,,3,,,79,102
26304,note_on,,,,,4,0,7,,,,,6,,,40,62
26304,note_on,,,,,4,0,2,,,,,1,,,79,76
26396,note_off,,,,,92,0,2,,,,,1,,,79,59
26396,note_off,,,,,92,0,4,,,,,3,,,79,79
26400,note_on,,,,,4,0,2,,,,,1,,,81,77
26400,note_on,,,,,4,0,4,,,,,3,,,81,103
26492,note_off,,,,,188,0,1,,,,,0,,,72,59
26492,note_off,,,,,92,0,4,,,,,3,,,81,79
26492,note_off,,,,,188,0,6,,,,,5,,,52,57
26492,note_off,,,,,188,0,3,,,,,2,,,72,79
26492,note_off,,,,,188,0,5,,,,,4,,,55,55
26492,note_off,,,,,92,0,2,,,,,1,,,81,59
26492,note_off,,,,,188,0,8,,,,,7,,,52,32
26492,note_off,,,,,188,0,7,,,,,6,,,40,51
26496,note_on,,,,,4,0,4,,,,,3,,,83,105
26496,note_on,,,,,4,0,5,,,,,4,,,54,73
26496,note_on,,,,,4,0,1,,,,,0,,,71,79
26496,note_on,,,,,4,0,8,,,,,7,,,50,63
26496,note_on,,,,,4,0,7,,,,,6,,,38,65
26496,note_on,,,,,4,0,3,,,,,2,,,71,105
26496,note_on,,,,,4,0,6,,,,,5,,,50,72
26496,note_on,,,,,4,0,2,,,,,1,,,83,79
26588,note_off,,,,,92,0,4,,,,,3,,,83,79
26588,note_off,,,,,92,0,2,,,,,1,,,83,59
26592,note_on,,,,,4,0,2,,,,,1,,,78,79
26592,note_on,,,,,4,0,4,,,,,3,,,78,106
26684,note_off,,,,,92,0,4,,,,,3,,,78,79
26684,note_off,,,,,188,0,6,,,,,5,,,50,57
26684,note_off,,,,,188,0,3,,,,,2,,,71,79
26684,note_off,,,,,92,0,2,,,,,1,,,78,59
26684,note_off,,,,,188,0,5,,,,,4,,,54,55
26684,note_off,,,,,188,0,1,,,,,0,,,71,59
26684,note_off,,,,,188,0,8,,,,,7,,,50,32
26684,note_off,,,,,188,0,7,,,,,6,,,38,51
26688,note_on,,,,,4,0,5,,,,,4,,,66,75
26688,note_on,,,,,4,0,7,,,,,6,,,50,66
26688,note_on,,,,,4,0,2,,,,,1,,,79,80
26688,note_on,,,,,4,0,1,,,,,0,,,83,80
26688,note_on,,,,,4,0,8,,,,,7,,,62,63
26688,note_on,,,,,4,0,6,,,,,5,,,62,74
26688,note_on,,,,,4,0,4,,,,,3,,,79,108
26688,note_on,,,,,4,0,3,,,,,2,,,83,108
26780,note_off,,,,,92,0,2,,,,,1,,,79,59
26780,note_off,,,,,92,0,4,,,,,3,,,79,79
26784,note_on,,,,,4,0,4,,,,,3,,,78,109
26784,note_on,,,,,4,0,2,,,,,1,,,78,81
26876,note_off,,,,,92,0,2,,,,,1,,,78,59
26876,note_off,,,,,188,0,5,,,,,4,,,66,55
26876,note_off,,,,,188,0,1,,,,,0,,,83,59
26876,note_off,,,,,188,0,3,,,,,2,,,83,79
26876,note_off,,,,,188,0,6,,,,,5,,,62,57
26876,note_off,,,,,188,0,7,,,,,6,,,50,51
26876,note_off,,,,,92,0,4,,,,,3,,,78,79
26876,note_off,,,,,188,0,8,,,,,7,,,62,32
26880,note_on,,,,,4,0,4,,,,,3,,,76,112
26880,note_on,,,,,4,0,5,,,,,4,,,64,78
26880,note_on,,,,,4,0,2,,,,,1,,,76,83
26880,note_on,,,,,4,0,6,,,,,5,,,60,77
26880,note_on,,,,,4,0,8,,,,,7,,,60,63
26880,note_on,,,,,4,0,7,,,,,6,,,48,68
26880,note_on,,,,,4,0,3,,,,,2,,,81,112
26880,note_on,,,,,4,0,1,,,,,0,,,81,83
26972,note_off,,,,,92,0,4,,,,,3,,,76,79
26972,note_off,,,,,92,0,2,,,,,1,,,76,59
26976,note_on,,,,,4,0,4,,,,,3,,,78,113
26976,note_on,,,,,4,0,2,,,,,1,,,78,84
27068,note_off,,,,,92,0,4,,,,,3,,,78,79
27068,note_off,,,,,188,0,7,,,,,6,,,48,51
27068,note_off,,,,,188,0,1,,,,,0,,,81,59
27068,note_off,,,,,188,0,8,,,,,7,,,60,32
27068,note_off,,,,,188,0,6,,,,,5,,,60,57
27068,note_off,,,,,188,0,3,,,,,2,,,81,79
27068,note_off,,,,,188,0,5,,,,,4,,,64,55
27068,note_off,,,,,92,0,2,,,,,1,,,78,59
27072,note_on,,,,,4,0,2,,,,,1,,,76,85
27072,note_on,,,,,4,0,6,,,,,5,,,48,79
27072,note_on,,,,,4,0,7,,,,,6,,,36,70
27072,note_on,,,,,4,0,8,,,,,7,,,48,63
27072,note_on,,,,,4,0,4,,,,,3,,,76,115
27072,note_on,,,,,4,0,5,,,,,4,,,52,80
27072,note_on,,,,,4,0,1,,,,,0,,,69,85
27072,note_on,,,,,4,0,3,,,,,2,,,69,115
27164,note_off,,,,,92,0,2,,,,,1,,,76,59
27164,note_off,,,,,92,0,4,,,,,3,,,76,79
27168,note_on,,,,,4,0,2,,,,,1,,,78,86
27168,note_on,,,,,4,0,4,,,,,3,,,78,116
27260,note_off,,,,,92,0,2,,,,,1,,,78,59
27260,note_off,,,,,92,0,4,,,,,3,,,78,79
27260,note_off,,,,,188,0,6,,,,,5,,,48,57
27260,note_off,,,,,188,0,8,,,,,7,,,48,32
27260,note_off,,,,,188,0,7,,,,,6,,,36,51
27260,note_off,,,,,188,0,3,,,,,2,,,69,79
27260,note_off,,,,,188,0,1,,,,,0,,,69,59
27260,note_off,,,,,188,0,5,,,,,4,,,52,55
27264,note_on,,,,,4,0,7,,,,,6,,,35,73
27264,note_on,,,,,4,0,8,,,,,7,,,47,63
27264,note_on,,,,,4,0,1,,,,,0,,,67,88
27264,note_on,,,,,4,0,6,,,,,5,,,47,81
27264,note_on,,,,,4,0,2,,,,,1,,,79,88
27264,note_on,,,,,4,0,5,,,,,4,,,50,82
27264,note_on,,,,,4,0,4,,,,,3,,,79,118
27264,note_on,,,,,4,0,3,,,,,2,,,67,118
27356,note_off,,,,,92,0,2,,,,,1,,,79,59
27356,note_off,,,,,92,0,4,,,,,3,,,79,79
27360,note_on,,,,,4,0,2,,,,,1,,,74,89
27360,note_on,,,,,4,0,4,,,,,3,,,74,119
27452,note_off,,,,,188,0,1,,,,,0,,,67,59
27452,note_off,,,,,188,0,8,,,,,7,,,47,32
27452,note_off,,,,,188,0,6,,,,,5,,,47,57
27452,note_off,,,,,188,0,7,,,,,6,,,35,51
27452,note_off,,,,,188,0,3,,,,,2,,,67,79
27452,note_off,,,,,188,0,5,,,,,4,,,50,55
27452,note_off,,,,,92,0,2,,,,,1,,,74,59
27452,note_off,,,,,92,0,4,,,,,3,,,74,79
27456,note_on,,,,,4,0,3,,,,,2,,,79,120
27456,note_on,,,,,4,0,2,,,,,1,,,76,90
27456,note_on,,,,,4,0,6,,,,,5,,,59,83
27456,note_on,,,,,4,0,4,,,,,3,,,76,120
27456,note_on,,,,,4,0,1,,,,,0,,,79,90
27456,note_on,,,,,4,0,5,,,,,4,,,62,84
27456,note_on,,,,,4,0,8,,,,,7,,,59,63
27456,note_on,,,,,4,0,7,,,,,6,,,47,74
27548,note_off,,,,,92,0,4,,,,,3,,,76,79
27548,note_off,,,,,92,0,2,,,,,1,,,76,59
27552,note_on,,,,,4,0,2,,,,,1,,,74,91
27552,note_on,,,,,4,0,4,,,,,3,,,74,121
27644,note_off,,,,,92,0,2,,,,,1,,,74,59
27644,note_off,,,,,188,0,3,,,,,2,,,79,79
27644,note_off,,,,,188,0,8,,,,,7,,,59,32
27644,note_off,,,,,188,0,6,,,,,5,,,59,57
27644,note_off,,,,,188,0,7,,,,,6,,,47,51
27644,note_off,,,,,188,0,5,,,,,4,,,62,55
27644,note_off,,,,,92,0,4,,,,,3,,,74,79
27644,note_off,,,,,188,0,1,,,,,0,,,79,59
27648,note_on,,,,,4,0,7,,,,,6,,,45,77
27648,note_on,,,,,4,0,2,,,,,1,,,76,93
27648,note_on,,,,,4,0,4,,,,,3,,,76,125
27648,note_on,,,,,4,0,5,,,,,4,,,69,87
27648,note_on,,,,,4,0,6,,,,,5,,,57,86
27648,note_on,,,,,4,0,1,,,,,0,,,84,93
27648,note_on,,,,,4,0,8,,,,,7,,,57,63
27648,note_on,,,,,4,0,3,,,,,2,,,84,125
27740,note_off,,,,,92,0,1,,,,,0,,,84,59
27740,note_off,,,,,92,0,4,,,,,3,,,76,79
27740,note_off,,,,,92,0,2,,,,,1,,,76,59
27740,note_off,,,,,92,0,3,,,,,2,,,84,79
27744,note_on,,,,,4,0,4,,,,,3,,,78,123
27744,note_on,,,,,4,0,2,,,,,1,,,78,92
27744,note_on,,,,,4,0,1,,,,,0,,,86,92
27744,note_on,,,,,4,0,3,,,,,2,,,86,123
27836,note_off,,,,,92,0,3,,,,,2,,,86,79
27836,note_off,,,,,92,0,2,,,,,1,,,78,59
27836,note_off,,,,,188,0,8,,,,,7,,,57,32
27836,note_off,,,,,188,0,5,,,,,4,,,69,55
27836,note_off,,,,,188,0,6,,,,,5,,,57,57
27836,note_off,,,,,92,0,4,,,,,3,,,78,79
27836,note_off,,,,,188,0,7,,,,,6,,,45,51
27836,note_off,,,,,92,0,1,,,,,0,,,86,59
27840,note_on,,,,,4,0,2,,,,,1,,,76,91
27840,note_on,,,,,4,0,6,,,,,5,,,45,84
27840,note_on,,,,,4,0,5,,,,,4,,,60,85
27840,note_on,,,,,4,0,4,,,,,3,,,76,121
27840,note_on,,,,,4,0,8,,,,,7,,,45,63
27840,note_on,,,,,4,0,3,,,,,2,,,84,121
27840,note_on,,,,,4,0,1,,,,,0,,,84,91
27840,note_on,,,,,4,0,7,,,,,6,,,33,75
27932,note_off,,,,,92,0,1,,,,,0,,,84,59
27932,note_off,,,,,92,0,4,,,,,3,,,76,79
27932,note_off,,,,,92,0,2,,,,,1,,,76,59
27932,note_off,,,,,92,0,3,,,,,2,,,84,79
27936,note_on,,,,,4,0,3,,,,,2,,,86,120
27936,note_on,,,,,4,0,4,,,,,3,,,78,120
27936,note_on,,,,,4,0,1,,,,,0,,,86,90
27936,note_on,,,,,4,0,2,,,,,1,,,78,90
28028,note_off,,,,,92,0,4,,,,,3,,,78,79
28028,note_off,,,,,92,0,3,,,,,2,,,86,79
28028,note_off,,,,,92,0,2,,,,,1,,,78,59
28028,note_off,,,,,188,0,6,,,,,5,,,45,57
28028,note_off,,,,,92,0,1,,,,,0,,,86,59
28028,note_off,,,,,188,0,8,,,,,7,,,45,32
28028,note_off,,,,,188,0,7,,,,,6,,,33,51
28028,note_off,,,,,188,0,5,,,,,4,,,60,55
28032,note_on,,,,,4,0,7,,,,,6,,,31,74
28032,note_on,,,,,4,0,3,,,,,2,,,83,119
28032,note_on,,,,,4,0,6,,,,,5,,,43,82
28032,note_on,,,,,4,0,5,,,,,4,,,62,83
28032,note_on,,,,,4,0,8,,,,,7,,,43,63
28032,note_on,,,,,4,0,4,,,,,3,,,79,119
28032,note_on,,,,,4,0,2,,,,,1,,,79,89
28032,note_on,,,,,4,0,1,,,,,0,,,83,89
28124,note_off,,,,,92,0,1,,,,,0,,,83,59
28124,note_off,,,,,92,0,3,,,,,2,,,83,79
28128,note_on,,,,,4,0,1,,,,,0,,,84,88
28128,note_on,,,,,4,0,3,,,,,2,,,84,118
28220,note_off,,,,,188,0,2,,,,,1,,,79,59
28220,note_off,,,,,188,0,4,,,,,3,,,79,79
28220,note_off,,,,,188,0,8,,,,,7,,,43,32
28220,note_off,,,,,188,0,5,,,,,4,,,62,55
28220,note_off,,,,,188,0,7,,,,,6,,,31,51
28220,note_off,,,,,188,0,6,,,,,5,,,43,57
28220,note_off,,,,,92,0,1,,,,,0,,,84,59
28220,note_off,,,,,92,0,3,,,,,2,,,84,79
28224,note_on,,,,,4,0,5,,,,,4,,,62,81
28224,note_on,,,,,4,0,8,,,,,7,,,55,63
28224,note_on,,,,,4,0,4,,,,,3,,,71,117
28224,note_on,,,,,4,0,3,,,,,2,,,83,117
28224,note_on,,,,,4,0,2,,,,,1,,,71,87
28224,note_on,,,,,4,0,6,,,,,5,,,55,81
28224,note_on,,,,,4,0,1,,,,,0,,,83,87
28224,note_on,,,,,4,0,7,,,,,6,,,43,72
28316,note_off,,,,,92,0,1,,,,,0,,,83,59
28316,note_off,,,,,92,0,3,,,,,2,,,83,79
28320,note_on,,,,,4,0,1,,,,,0,,,84,86
28320,note_on,,,,,4,0,3,,,,,2,,,84,116
28412,note_off,,,,,188,0,7,,,,,6,,,43,51
28412,note_off,,,,,92,0,3,,,,,2,,,84,79
28412,note_off,,,,,188,0,5,,,,,4,,,62,55
28412,note_off,,,,,92,0,1,,,,,0,,,84,59
28412,note_off,,,,,188,0,4,,,,,3,,,71,79
28412,note_off,,,,,188,0,8,,,,,7,,,55,32
28412,note_off,,,,,188,0,2,,,,,1,,,71,59
28412,note_off,,,,,188,0,6,,,,,5,,,55,57
28416,note_on,,,,,4,0,6,,,,,5,,,60,78
28416,note_on,,,,,4,0,1,,,,,0,,,81,84
28416,note_on,,,,,4,0,3,,,,,2,,,81,113
28416,note_on,,,,,4,0,7,,,,,6,,,48,69
28416,note_on,,,,,4,0,5,,,,,4,,,64,79
28416,note_on,,,,,4,0,2,,,,,1,,,76,84
28416,note_on,,,,,4,0,4,,,,,3,,,76,113
28416,note_on,,,,,4,0,8,,,,,7,,,60,63
28508,note_off,,,,,92,0,3,,,,,2,,,81,79
28508,note_off,,,,,92,0,1,,,,,0,,,81,59
28508,note_off,,,,,92,0,5,,,,,4,,,64,55
28512,note_on,,,,,4,0,1,,,,,0,,,83,83
28512,note_on,,,,,4,0,5,,,,,4,,,66,78
28512,note_on,,,,,4,0,3,,,,,2,,,83,112
28604,note_off,,,,,188,0,8,,,,,7,,,60,32
28604,note_off,,,,,188,0,4,,,,,3,,,76,79
28604,note_off,,,,,92,0,5,,,,,4,,,66,55
28604,note_off,,,,,92,0,3,,,,,2,,,83,79
28604,note_off,,,,,92,0,1,,,,,0,,,83,59
28604,note_off,,,,,188,0,7,,,,,6,,,48,51
28604,note_off,,,,,188,0,6,,,,,5,,,60,57
28604,note_off,,,,,188,0,2,,,,,1,,,76,59
28608,note_on,,,,,4,0,3,,,,,2,,,81,111
28608,note_on,,,,,4,0,1,,,,,0,,,81,82
28608,note_on,,,,,4,0,5,,,,,4,,,64,77
28608,note_on,,,,,4,0,7,,,,,6,,,36,67
28608,note_on,,,,,4,0,4,,,,,3,,,64,111
28608,note_on,,,,,4,0,2,,,,,1,,,64,82
28608,note_on,,,,,4,0,8,,,,,7,,,48,63
28608,note_on,,,,,4,0,6,,,,,5,,,48,76
28700,note_off,,,,,92,0,5,,,,,4,,,64,55
28700,note_off,,,,,92,0,1,,,,,0,,,81,59
28700,note_off,,,,,92,0,3,,,,,2,,,81,79
28704,note_on,,,,,4,0,5,,,,,4,,,66,76
28704,note_on,,,,,4,0,1,,,,,0,,,83,81
28704,note_on,,,,,4,0,3,,,,,2,,,83,109
28796,note_off,,,,,188,0,2,,,,,1,,,64,59
28796,note_off,,,,,188,0,4,,,,,3,,,64,79
28796,note_off,,,,,188,0,8,,,,,7,,,48,32
28796,note_off,,,,,188,0,7,,,,,6,,,36,51
28796,note_off,,,,,188,0,6,,,,,5,,,48,57
28796,note_off,,,,,92,0,5,,,,,4,,,66,55
28796,note_off,,,,,92,0,3,,,,,2,,,83,79
28796,note_off,,,,,92,0,1,,,,,0,,,83,59
28800,note_on,,,,,4,0,3,,,,,2,,,79,108
28800,note_on,,,,,4,0,2,,,,,1,,,62,80
28800,note_on,,,,,4,0,4,,,,,3,,,62,108
28800,note_on,,,,,4,0,5,,,,,4,,,67,75
28800,note_on,,,,,4,0,8,,,,,7,,,47,63
28800,note_on,,,,,4,0,1,,,,,0,,,79,80
28800,note_on,,,,,4,0,7,,,,,6,,,35,66
28800,note_on,,,,,4,0,6,,,,,5,,,47,74
28892,note_off,,,,,92,0,3,,,,,2,,,79,79
28892,note_off,,,,,92,0,1,,,,,0,,,79,59
28896,note_on,,,,,4,0,1,,,,,0,,,81,79
28896,note_on,,,,,4,0,3,,,,,2,,,81,106
28988,note_off,,,,,188,0,6,,,,,5,,,47,57
28988,note_off,,,,,92,0,1,,,,,0,,,81,59
28988,note_off,,,,,188,0,2,,,,,1,,,62,59
28988,note_off,,,,,188,0,8,,,,,7,,,47,32
28988,note_off,,,,,92,0,3,,,,,2,,,81,79
28988,note_off,,,,,188,0,4,,,,,3,,,62,79
28988,note_off,,,,,188,0,7,,,,,6,,,35,51
28988,note_off,,,,,188,0,5,,,,,4,,,67,55
28992,note_on,,,,,4,0,5,,,,,4,,,67,73
28992,note_on,,,,,4,0,1,,,,,0,,,79,79
28992,note_on,,,,,4,0,7,,,,,6,,,47,65
28992,note_on,,,,,4,0,6,,,,,5,,,59,72
28992,note_on,,,,,4,0,8,,,,,7,,,59,63
28992,note_on,,,,,4,0,2,,,,,1,,,74,79
28992,note_on,,,,,4,0,3,,,,,2,,,79,105
28992,note_on,,,,,4,0,4,,,,,3,,,74,105
29084,note_off,,,,,92,0,1,,,,,0,,,79,59
29084,note_off,,,,,92,0,3,,,,,2,,,79,79
29088,note_on,,,,,4,0,1,,,,,0,,,81,78
29088,note_on,,,,,4,0,3,,,,,2,,,81,104
29180,note_off,,,,,92,0,1,,,,,0,,,81,59
29180,note_off,,,,,188,0,4,,,,,3,,,74,79
29180,note_off,,,,,188,0,2,,,,,1,,,74,59
29180,note_off,,,,,188,0,7,,,,,6,,,47,51
29180,note_off,,,,,188,0,6,,,,,5,,,59,57
29180,note_off,,,,,92,0,3,,,,,2,,,81,79
29180,note_off,,,,,188,0,8,,,,,7,,,59,32
29180,note_off,,,,,188,0,5,,,,,4,,,67,55
29184,note_on,,,,,4,0,3,,,,,2,,,72,125
29184,note_on,,,,,4,0,6,,,,,5,,,64,86
29184,note_on,,,,,4,0,4,,,,,3,,,67,125
29184,note_on,,,,,4,0,7,,,,,6,,,52,77
29184,note_on,,,,,4,0,1,,,,,0,,,72,93
29184,note_on,,,,,4,0,5,,,,,4,,,72,87
29184,note_on,,,,,4,0,8,,,,,7,,,64,63
29184,note_on,,,,,4,0,2,,,,,1,,,67,93
29276,note_off,,,,,92,0,3,,,,,2,,,72,79
29276,note_off,,,,,92,0,1,,,,,0,,,72,59
29280,note_on,,,,,4,0,3,,,,,2,,,74,121
29280,note_on,,,,,4,0,1,,,,,0,,,74,91
29372,note_off,,,,,188,0,7,,,,,6,,,52,51
29372,note_off,,,,,188,0,8,,,,,7,,,64,32
29372,note_off,,,,,92,0,3,,,,,2,,,74,79
29372,note_off,,,,,188,0,6,,,,,5,,,64,57
29372,note_off,,,,,92,0,1,,,,,0,,,74,59
29376,note_on,,,,,4,0,1,,,,,0,,,72,89
29376,note_on,,,,,4,0,7,,,,,6,,,40,74
29376,note_on,,,,,4,0,6,,,,,5,,,52,82
29376,note_on,,,,,4,0,8,,,,,7,,,52,63
29376,note_on,,,,,4,0,3,,,,,2,,,72,119
29468,note_off,,,,,92,0,3,,,,,2,,,72,79
29468,note_off,,,,,92,0,1,,,,,0,,,72,59
29472,note_on,,,,,4,0,3,,,,,2,,,74,117
29472,note_on,,,,,4,0,1,,,,,0,,,74,87
29564,note_off,,,,,188,0,7,,,,,6,,,40,51
29564,note_off,,,,,380,0,5,,,,,4,,,72,55
29564,note_off,,,,,188,0,6,,,,,5,,,52,57
29564,note_off,,,,,380,0,2,,,,,1,,,67,59
29564,note_off,,,,,380,0,4,,,,,3,,,67,79
29564,note_off,,,,,92,0,3,,,,,2,,,74,79
29564,note_off,,,,,188,0,8,,,,,7,,,52,32
29564,note_off,,,,,92,0,1,,,,,0,,,74,59
29568,note_on,,,,,4,0,3,,,,,2,,,71,113
29568,note_on,,,,,4,0,2,,,,,1,,,66,84
29568,note_on,,,,,4,0,6,,,,,5,,,50,78
29568,note_on,,,,,4,0,1,,,,,0,,,71,84
29568,note_on,,,,,4,0,4,,,,,3,,,66,113
29568,note_on,,,,,4,0,5,,,,,4,,,62,79
29568,note_on,,,,,4,0,7,,,,,6,,,38,69
29568,note_on,,,,,4,0,8,,,,,7,,,50,63
29660,note_off,,,,,92,0,3,,,,,2,,,71,79
29660,note_off,,,,,92,0,1,,,,,0,,,71,59
29664,note_on,,,,,4,0,3,,,,,2,,,72,111
29664,note_on,,,,,4,0,1,,,,,0,,,72,82
29756,note_off,,,,,188,0,6,,,,,5,,,50,57
29756,note_off,,,,,188,0,8,,,,,7,,,50,32
29756,note_off,,,,,92,0,1,,,,,0,,,72,59
29756,note_off,,,,,92,0,3,,,,,2,,,72,79
29756,note_off,,,,,188,0,7,,,,,6,,,38,51
29760,note_on,,,,,4,0,8,,,,,7,,,62,63
29760,note_on,,,,,4,0,1,,,,,0,,,71,80
29760,note_on,,,,,4,0,6,,,,,5,,,62,74
29760,note_on,,,,,4,0,3,,,,,2,,,71,108
29760,note_on,,,,,4,0,7,,,,,6,,,50,66
29852,note_off,,,,,92,0,3,,,,,2,,,71,79
29852,note_off,,,,,92,0,1,,,,,0,,,71,59
29856,note_on,,,,,4,0,1,,,,,0,,,72,79
29856,note_on,,,,,4,0,3,,,,,2,,,72,105
29948,note_off,,,,,380,0,5,,,,,4,,,62,55
29948,note_off,,,,,92,0,1,,,,,0,,,72,59
29948,note_off,,,,,380,0,2,,,,,1,,,66,59
29948,note_off,,,,,188,0,8,,,,,7,,,62,32
29948,note_off,,,,,188,0,7,,,,,6,,,50,51
29948,note_off,,,,,380,0,4,,,,,3,,,66,79
29948,note_off,,,,,92,0,3,,,,,2,,,72,79
29948,note_off,,,,,188,0,6,,,,,5,,,62,57
29952,note_on,,,,,4,0,2,,,,,1,,,64,76
29952,note_on,,,,,4,0,7,,,,,6,,,48,62
29952,note_on,,,,,4,0,4,,,,,3,,,64,102
29952,note_on,,,,,4,0,8,,,,,7,,,60,63
29952,note_on,,,,,4,0,1,,,,,0,,,69,76
29952,note_on,,,,,4,0,6,,,,,5,,,60,70
29952,note_on,,,,,4,0,3,,,,,2,,,69,102
29952,note_on,,,,,4,0,5,,,,,4,,,64,71
30044,note_off,,,,,92,0,3,,,,,2,,,69,79
30044,note_off,,,,,92,0,1,,,,,0,,,69,59
30048,note_on,,,,,4,0,3,,,,,2,,,71,100
30048,note_on,,,,,4,0,1,,,,,0,,,71,74
30140,note_off,,,,,188,0,6,,,,,5,,,60,57
30140,note_off,,,,,188,0,8,,,,,7,,,60,32
30140,note_off,,,,,92,0,3,,,,,2,,,71,79
30140,note_off,,,,,188,0,7,,,,,6,,,48,51
30140,note_off,,,,,92,0,1,,,,,0,,,71,59
30144,note_on,,,,,4,0,7,,,,,6,,,36,59
30144,note_on,,,,,4,0,6,,,,,5,,,48,66
30144,note_on,,,,,4,0,8,,,,,7,,,48,63
30144,note_on,,,,,4,0,1,,,,,0,,,69,72
30144,note_on,,,,,4,0,3,,,,,2,,,69,97
30236,note_off,,,,,92,0,1,,,,,0,,,69,59
30236,note_off,,,,,92,0,3,,,,,2,,,69,79
30240,note_on,,,,,4,0,3,,,,,2,,,71,94
30240,note_on,,,,,4,0,1,,,,,0,,,71,70
30332,note_off,,,,,92,0,1,,,,,0,,,71,59
30332,note_off,,,,,380,0,5,,,,,4,,,64,55
30332,note_off,,,,,188,0,7,,,,,6,,,36,51
30332,note_off,,,,,188,0,8,,,,,7,,,48,32
30332,note_off,,,,,188,0,6,,,,,5,,,48,57
30332,note_off,,,,,380,0,4,,,,,3,,,64,79
30332,note_off,,,,,380,0,2,,,,,1,,,64,59
30332,note_off,,,,,92,0,3,,,,,2,,,71,79
30336,note_on,,,,,4,0,8,,,,,7,,,47,63
30336,note_on,,,,,4,0,6,,,,,5,,,47,63
30336,note_on,,,,,4,0,4,,,,,3,,,62,90
30336,note_on,,,,,4,0,3,,,,,2,,,67,90
30336,note_on,,,,,4,0,7,,,,,6,,,35,55
30336,note_on,,,,,4,0,2,,,,,1,,,62,67
30336,note_on,,,,,4,0,1,,,,,0,,,67,67
30336,note_on,,,,,4,0,5,,,,,4,,,59,63
30428,note_off,,,,,92,0,3,,,,,2,,,67,79
30428,note_off,,,,,92,0,1,,,,,0,,,67,59
30432,note_on,,,,,4,0,3,,,,,2,,,69,88
30432,note_on,,,,,4,0,1,,,,,0,,,69,66
30524,note_off,,,,,188,0,8,,,,,7,,,47,32
30524,note_off,,,,,188,0,6,,,,,5,,,47,57
30524,note_off,,,,,188,0,7,,,,,6,,,35,51
30524,note_off,,,,,92,0,1,,,,,0,,,69,59
30524,note_off,,,,,92,0,3,,,,,2,,,69,79
30528,note_on,,,,,4,0,3,,,,,2,,,67,86
30528,note_on,,,,,4,0,8,,,,,7,,,59,63
30528,note_on,,,,,4,0,6,,,,,5,,,59,59
30528,note_on,,,,,4,0,1,,,,,0,,,67,64
30528,note_on,,,,,4,0,7,,,,,6,,,47,53
30620,note_off,,,,,92,0,1,,,,,0,,,67,59
30620,note_off,,,,,92,0,3,,,,,2,,,67,79
30624,note_on,,,,,4,0,1,,,,,0,,,69,62
30624,note_on,,,,,4,0,3,,,,,2,,,69,83
30716,note_off,,,,,380,0,4,,,,,3,,,62,79
30716,note_off,,,,,188,0,7,,,,,6,,,47,51
30716,note_off,,,,,380,0,2,,,,,1,,,62,59
30716,note_off,,,,,188,0,8,,,,,7,,,59,32
30716,note_off,,,,,188,0,6,,,,,5,,,59,57
30716,note_off,,,,,380,0,5,,,,,4,,,59,55
30716,note_off,,,,,92,0,3,,,,,2,,,69,79
30716,note_off,,,,,92,0,1,,,,,0,,,69,59
30720,note_on,,,,,4,0,2,,,,,1,,,60,46
30720,note_on,,,,,4,0,5,,,,,4,,,60,43
30720,note_on,,,,,4,0,7,,,,,6,,,45,38
30720,note_on,,,,,4,0,6,,,,,5,,,57,43
30720,note_on,,,,,4,0,1,,,,,0,,,66,46
30720,note_on,,,,,4,0,3,,,,,2,,,66,62
30720,note_on,,,,,4,0,4,,,,,3,,,60,62
30720,note_on,,,,,4,0,8,,,,,7,,,57,49
30812,note_off,,,,,92,0,3,,,,,2,,,66,79
30812,note_off,,,,,92,0,1,,,,,0,,,66,59
30816,note_on,,,,,4,0,1,,,,,0,,,67,49
30816,note_on,,,,,4,0,3,,,,,2,,,67,65
30908,note_off,,,,,188,0,6,,,,,5,,,57,57
30908,note_off,,,,,92,0,1,,,,,0,,,67,59
30908,note_off,,,,,188,0,7,,,,,6,,,45,51
30908,note_off,,,,,188,0,8,,,,,7,,,57,32
30908,note_off,,,,,92,0,3,,,,,2,,,67,79
30912,note_on,,,,,4,0,6,,,,,5,,,45,47
30912,note_on,,,,,4,0,7,,,,,6,,,33,42
30912,note_on,,,,,4,0,1,,,,,0,,,66,52
30912,note_on,,,,,4,0,8,,,,,7,,,45,54
30912,note_on,,,,,4,0,3,,,,,2,,,66,70
31004,note_off,,,,,92,0,1,,,,,0,,,66,59
31004,note_off,,,,,92,0,3,,,,,2,,,66,79
31008,note_on,,,,,4,0,1,,,,,0,,,67,54
31008,note_on,,,,,4,0,3,,,,,2,,,67,73
31100,note_off,,,,,380,0,4,,,,,3,,,60,79
31100,note_off,,,,,380,0,5,,,,,4,,,60,55
31100,note_off,,,,,92,0,3,,,,,2,,,67,79
31100,note_off,,,,,380,0,2,,,,,1,,,60,59
31100,note_off,,,,,92,0,1,,,,,0,,,67,59
31100,note_off,,,,,188,0,8,,,,,7,,,45,32
31100,note_off,,,,,188,0,7,,,,,6,,,33,51
31100,note_off,,,,,188,0,6,,,,,5,,,45,57
31104,note_on,,,,,4,0,1,,,,,0,,,64,57
31104,note_on,,,,,4,0,7,,,,,6,,,31,47
31104,note_on,,,,,4,0,4,,,,,3,,,59,77
31104,note_on,,,,,4,0,3,,,,,2,,,64,77
31104,note_on,,,,,4,0,8,,,,,7,,,43,60
31104,note_on,,,,,4,0,5,,,,,4,,,55,53
31104,note_on,,,,,4,0,6,,,,,5,,,43,53
31104,note_on,,,,,4,0,2,,,,,1,,,59,57
31196,note_off,,,,,92,0,3,,,,,2,,,64,79
31196,note_off,,,,,92,0,1,,,,,0,,,64,59
31200,note_on,,,,,4,0,1,,,,,0,,,66,60
31200,note_on,,,,,4,0,3,,,,,2,,,66,80
31292,note_off,,,,,92,0,3,,,,,2,,,66,79
31292,note_off,,,,,188,0,7,,,,,6,,,31,51
31292,note_off,,,,,92,0,1,,,,,0,,,66,59
31292,note_off,,,,,188,0,8,,,,,7,,,43,32
31292,note_off,,,,,188,0,6,,,,,5,,,43,57
31296,note_on,,,,,4,0,8,,,,,7,,,55,63
31296,note_on,,,,,4,0,7,,,,,6,,,43,52
31296,note_on,,,,,4,0,6,,,,,5,,,55,58
31296,note_on,,,,,4,0,3,,,,,2,,,64,85
31296,note_on,,,,,4,0,1,,,,,0,,,64,63
31388,note_off,,,,,92,0,1,,,,,0,,,64,59
31388,note_off,,,,,92,0,3,,,,,2,,,64,79
31392,note_on,,,,,4,0,3,,,,,2,,,66,88
31392,note_on,,,,,4,0,1,,,,,0,,,66,66
31484,note_off,,,,,92,0,1,,,,,0,,,66,59
31484,note_off,,,,,92,0,3,,,,,2,,,66,79
31484,note_off,,,,,380,0,5,,,,,4,,,55,55
31484,note_off,,,,,380,0,2,,,,,1,,,59,59
31484,note_off,,,,,188,0,7,,,,,6,,,43,51
31484,note_off,,,,,188,0,8,,,,,7,,,55,32
31484,note_off,,,,,380,0,4,,,,,3,,,59,79
31484,note_off,,,,,188,0,6,,,,,5,,,55,57
31488,note_on,,,,,4,0,1,,,,,0,,,62,69
31488,note_on,,,,,4,0,2,,,,,1,,,57,69
31488,note_on,,,,,4,0,8,,,,,7,,,54,63
31488,note_on,,,,,4,0,4,,,,,3,,,57,93
31488,note_on,,,,,4,0,3,,,,,2,,,62,93
31488,note_on,,,,,4,0,7,,,,,6,,,42,57
31488,note_on,,,,,4,0,5,,,,,4,,,57,65
31488,note_on,,,,,4,0,6,,,,,5,,,54,64
31580,note_off,,,,,92,0,1,,,,,0,,,62,59
31580,note_off,,,,,92,0,3,,,,,2,,,62,79
31584,note_on,,,,,4,0,3,,,,,2,,,64,97
31584,note_on,,,,,4,0,1,,,,,0,,,64,72
31676,note_off,,,,,92,0,1,,,,,0,,,64,59
31676,note_off,,,,,188,0,6,,,,,5,,,54,57
31676,note_off,,,,,188,0,4,,,,,3,,,57,79
31676,note_off,,,,,92,0,3,,,,,2,,,64,79
31676,note_off,,,,,188,0,2,,,,,1,,,57,59
31676,note_off,,,,,188,0,7,,,,,6,,,42,51
31676,note_off,,,,,188,0,8,,,,,7,,,54,32
31680,note_on,,,,,4,0,6,,,,,5,,,50,69
31680,note_on,,,,,4,0,1,,,,,0,,,66,75
31680,note_on,,,,,4,0,3,,,,,2,,,66,101
31680,note_on,,,,,4,0,2,,,,,1,,,62,75
31680,note_on,,,,,4,0,7,,,,,6,,,38,61
31680,note_on,,,,,4,0,4,,,,,3,,,62,101
31680,note_on,,,,,4,0,8,,,,,7,,,50,63
31772,note_off,,,,,92,0,3,,,,,2,,,66,79
31772,note_off,,,,,92,0,4,,,,,3,,,62,79
31772,note_off,,,,,92,0,1,,,,,0,,,66,59
31772,note_off,,,,,92,0,2,,,,,1,,,62,59
31776,note_on,,,,,4,0,3,,,,,2,,,67,104
31776,note_on,,,,,4,0,4,,,,,3,,,64,104
31776,note_on,,,,,4,0,2,,,,,1,,,64,78
31776,note_on,,,,,4,0,1,,,,,0,,,67,78
31868,note_off,,,,,188,0,6,,,,,5,,,50,57
31868,note_off,,,,,380,0,5,,,,,4,,,57,55
31868,note_off,,,,,92,0,2,,,,,1,,,64,59
31868,note_off,,,,,188,0,8,,,,,7,,,50,32
31868,note_off,,,,,92,0,4,,,,,3,,,64,79
31868,note_off,,,,,188,0,7,,,,,6,,,38,51
31868,note_off,,,,,92,0,3,,,,,2,,,67,79
31868,note_off,,,,,92,0,1,,,,,0,,,67,59
31872,note_on,,,,,4,0,3,,,,,2,,,69,108
31872,note_on,,,,,4,0,2,,,,,1,,,66,80
31872,note_on,,,,,4,0,1,,,,,0,,,69,80
31872,note_on,,,,,4,0,4,,,,,3,,,66,108
31964,note_off,,,,,92,0,1,,,,,0,,,69,59
31964,note_off,,,,,92,0,3,,,,,2,,,69,79
31964,note_off,,,,,92,0,2,,,,,1,,,66,59
31964,note_off,,,,,92,0,4,,,,,3,,,66,79
31968,note_on,,,,,4,0,1,,,,,0,,,71,83
31968,note_on,,,,,4,0,4,,,,,3,,,67,112
31968,note_on,,,,,4,0,3,,,,,2,,,71,112
31968,note_on,,,,,4,0,2,,,,,1,,,67,83
32060,note_off,,,,,92,0,4,,,,,3,,,67,79
32060,note_off,,,,,92,0,2,,,,,1,,,67,59
32060,note_off,,,,,92,0,3,,,,,2,,,71,79
32060,note_off,,,,,92,0,1,,,,,0,,,71,59
32064,note_on,,,,,4,0,2,,,,,1,,,69,86
32064,note_on,,,,,196,0,5,,,,,4,,,62,80
32064,note_on,,,,,4,0,3,,,,,2,,,72,116
32064,note_on,,,,,196,0,6,,,,,5,,,50,80
32064,note_on,,,,,4,0,4,,,,,3,,,69,116
32064,note_on,,,,,196,0,7,,,,,6,,,38,71
32064,note_on,,,,,196,0,8,,,,,7,,,50,63
32064,note_on,,,,,4,0,1,,,,,0,,,72,86
32156,note_off,,,,,92,0,4,,,,,3,,,69,79
32156,note_off,,,,,92,0,3,,,,,2,,,72,79
32156,note_off,,,,,92,0,2,,,,,1,,,69,59
32156,note_off,,,,,92,0,1,,,,,0,,,72,59
32160,note_on,,,,,4,0,1,,,,,0,,,74,89
32160,note_on,,,,,4,0,3,,,,,2,,,74,119
32160,note_on,,,,,4,0,2,,,,,1,,,66,89
32160,note_on,,,,,4,0,4,,,,,3,,,66,119
32252,note_off,,,,,92,0,1,,,,,0,,,74,59
32252,note_off,,,,,188,0,8,,,,,7,,,50,32
32252,note_off,,,,,92,0,4,,,,,3,,,66,79
32252,note_off,,,,,188,0,7,,,,,6,,,38,51
32252,note_off,,,,,188,0,5,,,,,4,,,62,55
32252,note_off,,,,,92,0,2,,,,,1,,,66,59
32252,note_off,,,,,92,0,3,,,,,2,,,74,79
32252,note_off,,,,,188,0,6,,,,,5,,,50,57
32256,note_on,,,,,4,0,7,,,,,6,,,43,77
32256,note_on,,,,,4,0,2,,,,,1,,,62,93
32256,note_on,,,,,4,0,6,,,,,5,,,55,86
32256,note_on,,,,,4,0,3,,,,,2,,,71,125
32256,note_on,,,,,4,0,1,,,,,0,,,71,93
32256,note_on,,,,,4,0,8,,,,,7,,,55,63
32256,note_on,,,,,4,0,5,,,,,4,,,67,87
32256,note_on,,,,,4,0,4,,,,,3,,,62,125
32444,note_off,,,,,188,0,1,,,,,0,,,71,59
32444,note_off,,,,,188,0,8,,,,,7,,,55,32
32444,note_off,,,,,188,0,7,,,,,6,,,43,51
32444,note_off,,,,,188,0,3,,,,,2,,,71,79
32444,note_off,,,,,188,0,2,,,,,1,,,62,59
32444,note_off,,,,,188,0,4,,,,,3,,,62,79
32444,note_off,,,,,188,0,5,,,,,4,,,67,55
32444,note_off,,,,,188,0,6,,,,,5,,,55,57
32448,note_on,,,,,4,0,4,,,,,3,,,64,125
32448,note_on,,,,,4,0,8,,,,,7,,,52,63
32448,note_on,,,,,4,0,5,,,,,4,,,71,87
32448,note_on,,,,,4,0,2,,,,,1,,,64,93
32448,note_on,,,,,4,0,7,,,,,6,,,40,77
32448,note_on,,,,,4,0,1,,,,,0,,,79,93
32448,note_on,,,,,4,0,6,,,,,5,,,52,86
32448,note_on,,,,,4,0,3,,,,,2,,,79,125
32636,note_off,,,,,188,0,1,,,,,0,,,79,59
32636,note_off,,,,,188,0,8,,,,,7,,,52,32
32636,note_off,,,,,188,0,4,,,,,3,,,64,79
32636,note_off,,,,,188,0,6,,,,,5,,,52,57
32636,note_off,,,,,188,0,5,,,,,4,,,71,55
32636,note_off,,,,,188,0,2,,,,,1,,,64,59
32636,note_off,,,,,188,0,7,,,,,6,,,40,51
32636,note_off,,,,,188,0,3,,,,,2,,,79,79
32640,note_on,,,,,4,0,6,,,,,5,,,48,86
32640,note_on,,,,,4,0,2,,,,,1,,,64,93
32640,note_on,,,,,4,0,5,,,,,4,,,69,87
32640,note_on,,,,,4,0,7,,,,,6,,,36,77
32640,note_on,,,,,4,0,8,,,,,7,,,48,63
32640,note_on,,,,,4,0,3,,,,,2,,,69,125
32640,note_on,,,,,4,0,1,,,,,0,,,69,93
32640,note_on,,,,,4,0,4,,,,,3,,,64,125
32828,note_off,,,,,188,0,6,,,,,5,,,48,57
32828,note_off,,,,,188,0,3,,,,,2,,,69,79
32828,note_off,,,,,188,0,8,,,,,7,,,48,32
32828,note_off,,,,,188,0,1,,,,,0,,,69,59
32828,note_off,,,,,188,0,2,,,,,1,,,64,59
32828,note_off,,,,,188,0,7,,,,,6,,,36,51
32828,note_off,,,,,188,0,5,,,,,4,,,69,55
32828,note_off,,,,,188,0,4,,,,,3,,,64,79
32832,note_on,,,,,4,0,2,,,,,1,,,62,93
32832,note_on,,,,,4,0,1,,,,,0,,,78,93
32832,note_on,,,,,4,0,6,,,,,5,,,50,86
32832,note_on,,,,,4,0,8,,,,,7,,,50,63
32832,note_on,,,,,4,0,7,,,,,6,,,38,77
32832,note_on,,,,,4,0,5,,,,,4,,,69,87
32832,note_on,,,,,4,0,3,,,,,2,,,78,125
32832,note_on,,,,,4,0,4,,,,,3,,,62,125
33020,note_off,,,,,188,0,4,,,,,3,,,62,79
33020,note_off,,,,,188,0,6,,,,,5,,,50,57
33020,note_off,,,,,188,0,5,,,,,4,,,69,55
33020,note_off,,,,,188,0,8,,,,,7,,,50,32
33020,note_off,,,,,188,0,3,,,,,2,,,78,79
33020,note_off,,,,,188,0,7,,,,,6,,,38,51
33020,note_off,,,,,188,0,2,,,,,1,,,62,59
33020,note_off,,,,,188,0,1,,,,,0,,,78,59
33024,note_on,,,,,4,0,2,,,,,1,,,74,93
33024,note_on,,,,,4,0,3,,,,,2,,,79,125
33024,note_on,,,,,4,0,5,,,,,4,,,67,87
33024,note_on,,,,,4,0,7,,,,,6,,,35,77
33024,note_on,,,,,4,0,1,,,,,0,,,79,93
33024,note_on,,,,,4,0,4,,,,,3,,,74,125
33024,note_on,,,,,4,0,6,,,,,5,,,47,86
33024,note_on,,,,,4,0,8,,,,,7,,,47,63
33212,note_off,,,,,188,0,4,,,,,3,,,74,79
33212,note_off,,,,,188,0,8,,,,,7,,,47,32
33212,note_off,,,,,188,0,2,,,,,1,,,74,59
33212,note_off,,,,,188,0,1,,,,,0,,,79,59
33212,note_off,,,,,188,0,3,,,,,2,,,79,79
33212,note_off,,,,,188,0,7,,,,,6,,,35,51
33212,note_off,,,,,188,0,5,,,,,4,,,67,55
33212,note_off,,,,,188,0,6,,,,,5,,,47,57
33216,note_on,,,,,4,0,4,,,,,3,,,67,125
33216,note_on,,,,,4,0,7,,,,,6,,,40,77
33216,note_on,,,,,4,0,3,,,,,2,,,71,125
33216,note_on,,,,,4,0,5,,,,,4,,,71,87
33216,note_on,,,,,4,0,6,,,,,5,,,52,86
33216,note_on,,,,,4,0,1,,,,,0,,,71,93
33216,note_on,,,,,4,0,8,,,,,7,,,52,63
33216,note_on,,,,,4,0,2,,,,,1,,,67,93
33404,note_off,,,,,188,0,1,,,,,0,,,71,59
33404,note_off,,,,,188,0,6,,,,,5,,,52,57
33404,note_off,,,,,188,0,4,,,,,3,,,67,79
33404,note_off,,,,,188,0,7,,,,,6,,,40,51
33404,note_off,,,,,188,0,8,,,,,7,,,52,32
33404,note_off,,,,,188,0,5,,,,,4,,,71,55
33404,note_off,,,,,188,0,3,,,,,2,,,71,79
33404,note_off,,,,,188,0,2,,,,,1,,,67,59
33408,note_on,,,,,4,0,5,,,,,4,,,64,87
33408,note_on,,,,,4,0,7,,,,,6,,,36,77
33408,note_on,,,,,4,0,1,,,,,0,,,69,93
33408,note_on,,,,,4,0,6,,,,,5,,,48,86
33408,note_on,,,,,4,0,2,,,,,1,,,67,93
33408,note_on,,,,,4,0,8,,,,,7,,,48,63
33408,note_on,,,,,4,0,4,,,,,3,,,67,125
33408,note_on,,,,,4,0,3,,,,,2,,,69,125
33596,note_off,,,,,188,0,2,,,,,1,,,67,59
33596,note_off,,,,,188,0,1,,,,,0,,,69,59
33596,note_off,,,,,188,0,3,,,,,2,,,69,79
33596,note_off,,,,,188,0,5,,,,,4,,,64,55
33596,note_off,,,,,188,0,8,,,,,7,,,48,32
33596,note_off,,,,,188,0,6,,,,,5,,,48,57
33596,note_off,,,,,188,0,7,,,,,6,,,36,51
33596,note_off,,,,,188,0,4,,,,,3,,,67,79
33600,note_on,,,,,4,0,6,,,,,5,,,50,86
33600,note_on,,,,,4,0,3,,,,,2,,,78,125
33600,note_on,,,,,4,0,4,,,,,3,,,66,125
33600,note_on,,,,,4,0,8,,,,,7,,,50,63
33600,note_on,,,,,4,0,2,,,,,1,,,66,93
33600,note_on,,,,,4,0,1,,,,,0,,,78,93
33600,note_on,,,,,4,0,7,,,,,6,,,38,77
33600,note_on,,,,,4,0,5,,,,,4,,,57,87
33788,note_off,,,,,188,0,6,,,,,5,,,50,57
33788,note_off,,,,,188,0,7,,,,,6,,,38,51
33788,note_off,,,,,188,0,8,,,,,7,,,50,32
33788,note_off,,,,,188,0,1,,,,,0,,,78,59
33788,note_off,,,,,188,0,4,,,,,3,,,66,79
33788,note_off,,,,,188,0,5,,,,,4,,,57,55
33788,note_off,,,,,188,0,3,,,,,2,,,78,79
33788,note_off,,,,,188,0,2,,,,,1,,,66,59
33792,note_on,,,,,4,0,1,,,,,0,,,79,93
33792,note_on,,,,,4,0,7,,,,,6,,,35,77
33792,note_on,,,,,4,0,5,,,,,4,,,55,87
33792,note_on,,,,,4,0,3,,,,,2,,,79,125
33792,note_on,,,,,4,0,2,,,,,1,,,74,93
33792,note_on,,,,,4,0,4,,,,,3,,,74,125
33792,note_on,,,,,4,0,6,,,,,5,,,47,86
33792,note_on,,,,,4,0,8,,,,,7,,,47,63
33980,note_off,,,,,188,0,1,,,,,0,,,79,59
33980,note_off,,,,,188,0,8,,,,,7,,,47,32
33980,note_off,,,,,188,0,2,,,,,1,,,74,59
33980,note_off,,,,,188,0,6,,,,,5,,,47,57
33980,note_off,,,,,188,0,3,,,,,2,,,79,79
33980,note_off,,,,,188,0,4,,,,,3,,,74,79
33980,note_off,,,,,188,0,5,,,,,4,,,55,55
33980,note_off,,,,,188,0,7,,,,,6,,,35,51
33984,note_on,,,,,4,0,6,,,,,5,,,52,86
33984,note_on,,,,,4,0,2,,,,,1,,,67,93
33984,note_on,,,,,4,0,8,,,,,7,,,52,63
33984,note_on,,,,,4,0,1,,,,,0,,,71,93
33984,note_on,,,,,4,0,3,,,,,2,,,71,125
33984,note_on,,,,,4,0,5,,,,,4,,,67,87
33984,note_on,,,,,4,0,7,,,,,6,,,40,77
33984,note_on,,,,,4,0,4,,,,,3,,,67,125
34172,note_off,,,,,188,0,3,,,,,2,,,71,79
34172,note_off,,,,,188,0,2,,,,,1,,,67,59
34172,note_off,,,,,188,0,4,,,,,3,,,67,79
34172,note_off,,,,,188,0,6,,,,,5,,,52,57
34172,note_off,,,,,188,0,8,,,,,7,,,52,32
34172,note_off,,,,,188,0,7,,,,,6,,,40,51
34172,note_off,,,,,188,0,5,,,,,4,,,67,55
34172,note_off,,,,,188,0,1,,,,,0,,,71,59
34176,note_on,,,,,4,0,7,,,,,6,,,36,77
34176,note_on,,,,,4,0,5,,,,,4,,,64,87
34176,note_on,,,,,4,0,1,,,,,0,,,69,93
34176,note_on,,,,,4,0,4,,,,,3,,,67,125
34176,note_on,,,,,4,0,2,,,,,1,,,67,93
34176,note_on,,,,,4,0,6,,,,,5,,,48,86
34176,note_on,,,,,4,0,3,,,,,2,,,69,125
34176,note_on,,,,,4,0,8,,,,,7,,,48,63
34364,note_off,,,,,188,0,8,,,,,7,,,48,32
34364,note_off,,,,,188,0,5,,,,,4,,,64,55
34364,note_off,,,,,188,0,2,,,,,1,,,67,59
34364,note_off,,,,,188,0,6,,,,,5,,,48,57
34364,note_off,,,,,188,0,7,,,,,6,,,36,51
34364,note_off,,,,,188,0,1,,,,,0,,,69,59
34364,note_off,,,,,188,0,3,,,,,2,,,69,79
34364,note_off,,,,,188,0,4,,,,,3,,,67,79
34368,note_on,,,,,4,0,4,,,,,3,,,66,125
34368,note_on,,,,,4,0,2,,,,,1,,,66,93
34368,note_on,,,,,4,0,6,,,,,5,,,50,86
34368,note_on,,,,,4,0,7,,,,,6,,,38,77
34368,note_on,,,,,4,0,1,,,,,0,,,78,93
34368,note_on,,,,,4,0,5,,,,,4,,,62,87
34368,note_on,,,,,4,0,8,,,,,7,,,50,63
34368,note_on,,,,,4,0,3,,,,,2,,,78,125
34556,note_off,,,,,188,0,2,,,,,1,,,66,59
34556,note_off,,,,,188,0,8,,,,,7,,,50,32
34556,note_off,,,,,188,0,6,,,,,5,,,50,57
34556,note_off,,,,,188,0,3,,,,,2,,,78,79
34556,note_off,,,,,188,0,7,,,,,6,,,38,51
34556,note_off,,,,,188,0,5,,,,,4,,,62,55
34556,note_off,,,,,188,0,4,,,,,3,,,66,79
34556,note_off,,,,,188,0,1,,,,,0,,,78,59
34560,note_on,,,,,4,0,1,,,,,0,,,79,93
34560,note_on,,,,,4,0,3,,,,,2,,,79,125
34560,note_on,,,,,4,0,4,,,,,3,,,71,125
34560,note_on,,,,,4,0,5,,,,,4,,,62,87
34560,note_on,,,,,4,0,2,,,,,1,,,71,93
34560,note_on,,,,,4,0,6,,,,,5,,,43,86
34560,note_on,,,,,4,0,7,,,,,6,,,31,77
34560,note_on,,,,,4,0,8,,,,,7,,,43,63
34748,note_off,,,,,188,0,6,,,,,5,,,43,57
34748,note_off,,,,,188,0,7,,,,,6,,,31,51
34748,note_off,,,,,188,0,1,,,,,0,,,79,59
34748,note_off,,,,,188,0,8,,,,,7,,,43,32
34748,note_off,,,,,188,0,3,,,,,2,,,79,79
34752,note_on,,,,,4,0,3,,,,,2,,,67,125
34752,note_on,,,,,4,0,1,,,,,0,,,67,93
34940,note_off,,,,,188,0,3,,,,,2,,,67,79
34940,note_off,,,,,188,0,1,,,,,0,,,67,59
34944,note_off,,,,,384,0,2,,,,,1,,,71,59
34944,note_off,,,,,384,0,4,,,,,3,,,71,79
34944,note_off,,,,,384,0,5,,,,,4,,,62,55
35184,note_on,,,,,240,0,2,,,,,1,,,62,93
35184,note_on,,,,,436,0,6,,,,,5,,,50,86
35184,note_on,,,,,240,0,4,,,,,3,,,62,125
35184,note_on,,,,,240,0,5,,,,,4,,,62,87
35184,note_on,,,,,436,0,7,,,,,6,,,38,77
35184,note_on,,,,,436,0,8,,,,,7,,,50,63
35184,note_on,,,,,244,0,3,,,,,2,,,62,125
35184,note_on,,,,,244,0,1,,,,,0,,,62,93
35228,note_off,,,,,44,0,6,,,,,5,,,50,57
35228,note_off,,,,,44,0,3,,,,,2,,,62,79
35228,note_off,,,,,44,0,2,,,,,1,,,62,59
35228,note_off,,,,,44,0,8,,,,,7,,,50,32
35228,note_off,,,,,44,0,4,,,,,3,,,62,79
35228,note_off,,,,,44,0,1,,,,,0,,,62,59
35228,note_off,,,,,44,0,7,,,,,6,,,38,51
35228,note_off,,,,,44,0,5,,,,,4,,,62,55
35232,note_on,,,,,4,0,4,,,,,3,,,64,125
35232,note_on,,,,,4,0,7,,,,,6,,,40,77
35232,note_on,,,,,4,0,3,,,,,2,,,64,125
35232,note_on,,,,,4,0,8,,,,,7,,,52,63
35232,note_on,,,,,4,0,5,,,,,4,,,64,87
35232,note_on,,,,,4,0,2,,,,,1,,,64,93
35232,note_on,,,,,4,0,6,,,,,5,,,52,86
35232,note_on,,,,,4,0,1,,,,,0,,,64,93
35276,note_off,,,,,44,0,8,,,,,7,,,52,32
35276,note_off,,,,,44,0,6,,,,,5,,,52,57
35276,note_off,,,,,44,0,1,,,,,0,,,64,59
35276,note_off,,,,,44,0,4,,,,,3,,,64,79
35276,note_off,,,,,44,0,2,,,,,1,,,64,59
35276,note_off,,,,,44,0,3,,,,,2,,,64,79
35276,note_off,,,,,44,0,7,,,,,6,,,40,51
35276,note_off,,,,,44,0,5,,,,,4,,,64,55
35280,note_on,,,,,4,0,3,,,,,2,,,66,125
35280,note_on,,,,,4,0,4,,,,,3,,,66,125
35280,note_on,,,,,4,0,7,,,,,6,,,42,77
35280,note_on,,,,,4,0,2,,,,,1,,,66,93
35280,note_on,,,,,4,0,1,,,,,0,,,66,93
35280,note_on,,,,,4,0,8,,,,,7,,,54,63
35280,note_on,,,,,4,0,6,,,,,5,,,54,86
35280,note_on,,,,,4,0,5,,,,,4,,,66,87
35324,note_off,,,,,44,0,5,,,,,4,,,66,55
35324,note_off,,,,,44,0,8,,,,,7,,,54,32
35324,note_off,,,,,44,0,1,,,,,0,,,66,59
35324,note_off,,,,,44,0,4,,,,,3,,,66,79
35324,note_off,,,,,44,0,7,,,,,6,,,42,51
35324,note_off,,,,,44,0,2,,,,,1,,,66,59
35324,note_off,,,,,44,0,3,,,,,2,,,66,79
35324,note_off,,,,,44,0,6,,,,,5,,,54,57
35328,note_on,,,,,4,0,5,,,,,4,,,67,87
35328,note_on,,,,,4,0,4,,,,,3,,,67,125
35328,note_on,,,,,4,0,6,,,,,5,,,55,86
35328,note_on,,,,,4,0,2,,,,,1,,,67,93
35328,note_on,,,,,4,0,3,,,,,2,,,67,125
35328,note_on,,,,,4,0,1,,,,,0,,,67,93
35328,note_on,,,,,4,0,8,,,,,7,,,55,63
35328,note_on,,,,,4,0,7,,,,,6,,,43,77
35516,note_off,,,,,188,0,6,,,,,5,,,55,57
35516,note_off,,,,,188,0,8,,,,,7,,,55,32
35516,note_off,,,,,188,0,7,,,,,6,,,43,51
35516,note_off,,,,,188,0,4,,,,,3,,,67,79
35516,note_off,,,,,188,0,2,,,,,1,,,67,59
35516,note_off,,,,,188,0,1,,,,,0,,,67,59
35516,note_off,,,,,188,0,3,,,,,2,,,67,79
35516,note_off,,,,,188,0,5,,,,,4,,,67,55
35520,note_on,,,,,4,0,5,,,,,4,,,59,87
35520,note_on,,,,,4,0,7,,,,,6,,,35,77
35520,note_on,,,,,4,0,3,,,,,2,,,59,125
35520,note_on,,,,,4,0,8,,,,,7,,,47,63
35520,note_on,,,,,4,0,6,,,,,5,,,47,86
35520,note_on,,,,,4,0,2,,,,,1,,,59,93
35520,note_on,,,,,4,0,1,,,,,0,,,59,93
35520,note_on,,,,,4,0,4,,,,,3,,,59,125
35708,note_off,,,,,188,0,6,,,,,5,,,47,57
35708,note_off,,,,,188,0,8,,,,,7,,,47,32
35708,note_off,,,,,188,0,2,,,,,1,,,59,59
35708,note_off,,,,,188,0,1,,,,,0,,,59,59
35708,note_off,,,,,188,0,4,,,,,3,,,59,79
35708,note_off,,,,,188,0,7,,,,,6,,,35,51
35708,note_off,,,,,188,0,3,,,,,2,,,59,79
35708,note_off,,,,,188,0,5,,,,,4,,,59,55
35712,note_on,,,,,4,0,8,,,,,7,,,45,63
35712,note_on,,,,,4,0,2,,,,,1,,,57,93
35712,note_on,,,,,4,0,1,,,,,0,,,57,93
35712,note_on,,,,,4,0,5,,,,,4,,,57,87
35712,note_on,,,,,4,0,7,,,,,6,,,33,77
35712,note_on,,,,,4,0,4,,,,,3,,,57,125
35712,note_on,,,,,4,0,6,,,,,5,,,45,86
35712,note_on,,,,,4,0,3,,,,,2,,,57,125
35900,note_off,,,,,188,0,3,,,,,2,,,57,79
35900,note_off,,,,,188,0,2,,,,,1,,,57,59
35900,note_off,,,,,188,0,1,,,,,0,,,57,59
35900,note_off,,,,,188,0,4,,,,,3,,,57,79
35900,note_off,,,,,188,0,7,,,,,6,,,33,51
35900,note_off,,,,,188,0,5,,,,,4,,,57,55
35900,note_off,,,,,188,0,6,,,,,5,,,45,57
35900,note_off,,,,,188,0,8,,,,,7,,,45,32
35904,note_on,,,,,4,0,2,,,,,1,,,66,93
35904,note_on,,,,,4,0,1,,,,,0,,,66,93
35904,note_on,,,,,4,0,3,,,,,2,,,66,125
35904,note_on,,,,,4,0,4,,,,,3,,,66,125
35904,note_on,,,,,4,0,5,,,,,4,,,66,87
35904,note_on,,,,,4,0,6,,,,,5,,,54,86
35904,note_on,,,,,4,0,7,,,,,6,,,42,77
35904,note_on,,,,,4,0,8,,,,,7,,,54,63
36092,note_off,,,,,188,0,3,,,,,2,,,66,79
36092,note_off,,,,,188,0,8,,,,,7,,,54,32
36092,note_off,,,,,188,0,6,,,,,5,,,54,57
36092,note_off,,,,,188,0,4,,,,,3,,,66,79
36092,note_off,,,,,188,0,2,,,,,1,,,66,59
36092,note_off,,,,,188,0,5,,,,,4,,,66,55
36092,note_off,,,,,188,0,7,,,,,6,,,42,51
36092,note_off,,,,,188,0,1,,,,,0,,,66,59
36096,note_on,,,,,4,0,4,,,,,3,,,67,125
36096,note_on,,,,,4,0,5,,,,,4,,,67,87
36096,note_on,,,,,4,0,1,,,,,0,,,67,93
36096,note_on,,,,,4,0,2,,,,,1,,,67,93
36096,note_on,,,,,4,0,6,,,,,5,,,55,86
36096,note_on,,,,,4,0,8,,,,,7,,,55,63
36096,note_on,,,,,4,0,7,,,,,6,,,43,77
36096,note_on,,,,,4,0,3,,,,,2,,,67,125
36188,note_off,,,,,92,0,1,,,,,0,,,67,59
36188,note_off,,,,,92,0,3,,,,,2,,,67,79
36192,note_on,,,,,4,0,3,,,,,2,,,62,125
36192,note_on,,,,,4,0,1,,,,,0,,,62,93
36284,note_off,,,,,188,0,6,,,,,5,,,55,57
36284,note_off,,,,,188,0,2,,,,,1,,,67,59
36284,note_off,,,,,188,0,7,,,,,6,,,43,51
36284,note_off,,,,,92,0,1,,,,,0,,,62,59
36284,note_off,,,,,188,0,5,,,,,4,,,67,55
36284,note_off,,,,,92,0,3,,,,,2,,,62,79
36284,note_off,,,,,188,0,4,,,,,3,,,67,79
36284,note_off,,,,,188,0,8,,,,,7,,,55,32
36288,note_on,,,,,4,0,6,,,,,5,,,43,86
36288,note_on,,,,,4,0,8,,,,,7,,,43,63
36288,note_on,,,,,4,0,7,,,,,6,,,31,77
36288,note_on,,,,,4,0,4,,,,,3,,,55,125
36288,note_on,,,,,4,0,3,,,,,2,,,64,125
36288,note_on,,,,,4,0,5,,,,,4,,,55,87
36288,note_on,,,,,4,0,1,,,,,0,,,64,93
36288,note_on,,,,,4,0,2,,,,,1,,,55,93
36380,note_off,,,,,92,0,1,,,,,0,,,64,59
36380,note_off,,,,,92,0,3,,,,,2,,,64,79
36384,note_on,,,,,4,0,3,,,,,2,,,66,125
36384,note_on,,,,,4,0,1,,,,,0,,,66,93
36476,note_off,,,,,92,0,1,,,,,0,,,66,59
36476,note_off,,,,,188,0,4,,,,,3,,,55,79
36476,note_off,,,,,188,0,5,,,,,4,,,55,55
36476,note_off,,,,,188,0,2,,,,,1,,,55,59
36476,note_off,,,,,188,0,8,,,,,7,,,43,32
36476,note_off,,,,,188,0,7,,,,,6,,,31,51
36476,note_off,,,,,188,0,6,,,,,5,,,43,57
36476,note_off,,,,,92,0,3,,,,,2,,,66,79
36480,note_on,,,,,4,0,3,,,,,2,,,67,125
36480,note_on,,,,,4,0,1,,,,,0,,,67,93
36572,note_off,,,,,92,0,1,,,,,0,,,67,59
36572,note_off,,,,,92,0,3,,,,,2,,,67,79
36576,note_on,,,,,4,0,3,,,,,2,,,69,125
36576,note_on,,,,,4,0,1,,,,,0,,,69,93
36668,note_off,,,,,92,0,3,,,,,2,,,69,79
36668,note_off,,,,,92,0,1,,,,,0,,,69,59
36672,note_on,,,,,4,0,3,,,,,2,,,71,125
36672,note_on,,,,,4,0,1,,,,,0,,,71,93
36672,note_on,,,,,196,0,4,,,,,3,,,67,125
36672,note_on,,,,,196,0,2,,,,,1,,,67,93
36764,note_off,,,,,92,0,4,,,,,3,,,67,79
36764,note_off,,,,,92,0,3,,,,,2,,,71,79
36764,note_off,,,,,92,0,1,,,,,0,,,71,59
36764,note_off,,,,,92,0,2,,,,,1,,,67,59
36768,note_on,,,,,4,0,1,,,,,0,,,72,93
36768,note_on,,,,,4,0,2,,,,,1,,,69,93
36768,note_on,,,,,4,0,4,,,,,3,,,69,125
36768,note_on,,,,,4,0,3,,,,,2,,,72,125
36860,note_off,,,,,92,0,4,,,,,3,,,69,79
36860,note_off,,,,,92,0,2,,,,,1,,,69,59
36860,note_off,,,,,92,0,1,,,,,0,,,72,59
36860,note_off,,,,,92,0,3,,,,,2,,,72,79
36864,note_on,,,,,4,0,2,,,,,1,,,71,93
36864,note_on,,,,,4,0,3,,,,,2,,,74,125
36864,note_on,,,,,4,0,4,,,,,3,,,71,125
36864,note_on,,,,,4,0,1,,,,,0,,,74,93
36956,note_off,,,,,92,0,1,,,,,0,,,74,59
36956,note_off,,,,,92,0,3,,,,,2,,,74,79
36956,note_off,,,,,92,0,4,,,,,3,,,71,79
36956,note_off,,,,,92,0,2,,,,,1,,,71,59
36960,note_on,,,,,4,0,3,,,,,2,,,72,125
36960,note_on,,,,,4,0,1,,,,,0,,,72,93
36960,note_on,,,,,4,0,2,,,,,1,,,69,93
36960,note_on,,,,,4,0,4,,,,,3,,,69,125
37052,note_off,,,,,92,0,3,,,,,2,,,72,79
37052,note_off,,,,,92,0,2,,,,,1,,,69,59
37052,note_off,,,,,92,0,4,,,,,3,,,69,79
37052,note_off,,,,,92,0,1,,,,,0,,,72,59
37056,note_on,,,,,4,0,4,,,,,3,,,67,125
37056,note_on,,,,,4,0,2,,,,,1,,,67,93
37056,note_on,,,,,4,0,3,,,,,2,,,71,125
37056,note_on,,,,,4,0,1,,,,,0,,,71,93
37148,note_off,,,,,92,0,1,,,,,0,,,71,59
37148,note_off,,,,,92,0,4,,,,,3,,,67,79
37148,note_off,,,,,92,0,2,,,,,1,,,67,59
37148,note_off,,,,,92,0,3,,,,,2,,,71,79
37152,note_on,,,,,4,0,3,,,,,2,,,74,125
37152,note_on,,,,,4,0,2,,,,,1,,,71,93
37152,note_on,,,,,4,0,4,,,,,3,,,71,125
37152,note_on,,,,,4,0,1,,,,,0,,,74,93
37244,note_off,,,,,92,0,1,,,,,0,,,74,59
37244,note_off,,,,,92,0,2,,,,,1,,,71,59
37244,note_off,,,,,92,0,4,,,,,3,,,71,79
37244,note_off,,,,,92,0,3,,,,,2,,,74,79
37248,note_on,,,,,4,0,2,,,,,1,,,69,93
37248,note_on,,,,,4,0,4,,,,,3,,,69,125
37248,note_on,,,,,4,0,1,,,,,0,,,72,93
37248,note_on,,,,,4,0,3,,,,,2,,,72,125
37340,note_off,,,,,92,0,2,,,,,1,,,69,59
37340,note_off,,,,,92,0,3,,,,,2,,,72,79
37340,note_off,,,,,92,0,1,,,,,0,,,72,59
37340,note_off,,,,,92,0,4,,,,,3,,,69,79
37344,note_on,,,,,4,0,2,,,,,1,,,67,93
37344,note_on,,,,,4,0,4,,,,,3,,,67,125
37344,note_on,,,,,4,0,3,,,,,2,,,71,125
37344,note_on,,,,,4,0,1,,,,,0,,,71,93
37436,note_off,,,,,92,0,4,,,,,3,,,67,79
37436,note_off,,,,,92,0,1,,,,,0,,,71,59
37436,note_off,,,,,92,0,2,,,,,1,,,67,59
37436,note_off,,,,,92,0,3,,,,,2,,,71,79
37440,note_on,,,,,4,0,1,,,,,0,,,69,93
37440,note_on,,,,,4,0,2,,,,,1,,,66,93
37440,note_on,,,,,4,0,4,,,,,3,,,66,125
37440,note_on,,,,,4,0,3,,,,,2,,,69,125
37532,note_off,,,,,92,0,4,,,,,3,,,66,79
37532,note_off,,,,,92,0,3,,,,,2,,,69,79
37532,note_off,,,,,92,0,1,,,,,0,,,69,59
37532,note_off,,,,,92,0,2,,,,,1,,,66,59
37536,note_on,,,,,4,0,1,,,,,0,,,72,93
37536,note_on,,,,,4,0,2,,,,,1,,,69,93
37536,note_on,,,,,4,0,4,,,,,3,,,69,125
37536,note_on,,,,,4,0,3,,,,,2,,,72,125
37628,note_off,,,,,92,0,2,,,,,1,,,69,59
37628,note_off,,,,,92,0,4,,,,,3,,,69,79
37628,note_off,,,,,92,0,1,,,,,0,,,72,59
37628,note_off,,,,,92,0,3,,,,,2,,,72,79
37632,note_on,,,,,4,0,2,,,,,1,,,67,93
37632,note_on,,,,,4,0,1,,,,,0,,,71,93
37632,note_on,,,,,4,0,3,,,,,2,,,71,125
37632,note_on,,,,,4,0,4,,,,,3,,,67,125
37820,note_off,,,,,188,0,1,,,,,0,,,71,59
37820,note_off,,,,,188,0,2,,,,,1,,,67,59
37820,note_off,,,,,188,0,3,,,,,2,,,71,79
37820,note_off,,,,,188,0,4,,,,,3,,,67,79
37824,note_on,,,,,4,0,2,,,,,1,,,55,93
37824,note_on,,,,,4,0,3,,,,,2,,,59,125
37824,note_on,,,,,4,0,1,,,,,0,,,59,93
37824,note_on,,,,,4,0,4,,,,,3,,,55,125
38012,note_off,,,,,188,0,4,,,,,3,,,55,79
38012,note_off,,,,,188,0,2,,,,,1,,,55,59
38012,note_off,,,,,188,0,3,,,,,2,,,59,79
38012,note_off,,,,,188,0,1,,,,,0,,,59,59
38256,note_on,,,,,244,0,2,,,,,1,,,64,93
38256,note_on,,,,,244,0,1,,,,,0,,,64,93
38256,note_on,,,,,1780,0,7,,,,,6,,,40,77
38256,note_on,,,,,1780,0,5,,,,,4,,,64,87
38256,note_on,,,,,1780,0,6,,,,,5,,,52,86
38256,note_on,,,,,244,0,3,,,,,2,,,64,125
38256,note_on,,,,,1780,0,8,,,,,7,,,52,63
38256,note_on,,,,,244,0,4,,,,,3,,,64,125
38300,note_off,,,,,44,0,3,,,,,2,,,64,79
38300,note_off,,,,,44,0,5,,,,,4,,,64,55
38300,note_off,,,,,44,0,8,,,,,7,,,52,32
38300,note_off,,,,,44,0,6,,,,,5,,,52,57
38300,note_off,,,,,44,0,7,,,,,6,,,40,51
38300,note_off,,,,,44,0,2,,,,,1,,,64,59
38300,note_off,,,,,44,0,1,,,,,0,,,64,59
38300,note_off,,,,,44,0,4,,,,,3,,,64,79
38304,note_on,,,,,4,0,8,,,,,7,,,54,63
38304,note_on,,,,,4,0,1,,,,,0,,,66,93
38304,note_on,,,,,4,0,4,,,,,3,,,66,125
38304,note_on,,,,,4,0,3,,,,,2,,,66,125
38304,note_on,,,,,4,0,2,,,,,1,,,66,93
38304,note_on,,,,,4,0,7,,,,,6,,,42,77
38304,note_on,,,,,4,0,5,,,,,4,,,66,87
38304,note_on,,,,,4,0,6,,,,,5,,,54,86
38348,note_off,,,,,44,0,2,,,,,1,,,66,59
38348,note_off,,,,,44,0,8,,,,,7,,,54,32
38348,note_off,,,,,44,0,5,,,,,4,,,66,55
38348,note_off,,,,,44,0,1,,,,,0,,,66,59
38348,note_off,,,,,44,0,6,,,,,5,,,54,57
38348,note_off,,,,,44,0,3,,,,,2,,,66,79
38348,note_off,,,,,44,0,4,,,,,3,,,66,79
38348,note_off,,,,,44,0,7,,,,,6,,,42,51
38352,note_on,,,,,4,0,4,,,,,3,,,68,125
38352,note_on,,,,,4,0,1,,,,,0,,,68,93
38352,note_on,,,,,4,0,6,,,,,5,,,56,86
38352,note_on,,,,,4,0,5,,,,,4,,,68,87
38352,note_on,,,,,4,0,7,,,,,6,,,44,77
38352,note_on,,,,,4,0,2,,,,,1,,,68,93
38352,note_on,,,,,4,0,8,,,,,7,,,56,63
38352,note_on,,,,,4,0,3,,,,,2,,,68,125
38396,note_off,,,,,44,0,1,,,,,0,,,68,59
38396,note_off,,,,,44,0,4,,,,,3,,,68,79
38396,note_off,,,,,44,0,6,,,,,5,,,56,57
38396,note_off,,,,,44,0,7,,,,,6,,,44,51
38396,note_off,,,,,44,0,8,,,,,7,,,56,32
38396,note_off,,,,,44,0,3,,,,,2,,,68,79
38396,note_off,,,,,44,0,5,,,,,4,,,68,55
38396,note_off,,,,,44,0,2,,,,,1,,,68,59
38400,note_on,,,,,4,0,3,,,,,2,,,69,125
38400,note_on,,,,,4,0,1,,,,,0,,,69,93
38400,note_on,,,,,4,0,4,,,,,3,,,69,125
38400,note_on,,,,,4,0,2,,,,,1,,,69,93
38400,note_on,,,,,4,0,7,,,,,6,,,45,77
38400,note_on,,,,,4,0,6,,,,,5,,,57,86
38400,note_on,,,,,4,0,5,,,,,4,,,69,87
38400,note_on,,,,,4,0,8,,,,,7,,,57,63
38588,note_off,,,,,188,0,6,,,,,5,,,57,57
38588,note_off,,,,,188,0,2,,,,,1,,,69,59
38588,note_off,,,,,188,0,5,,,,,4,,,69,55
38588,note_off,,,,,188,0,1,,,,,0,,,69,59
38588,note_off,,,,,188,0,3,,,,,2,,,69,79
38588,note_off,,,,,188,0,7,,,,,6,,,45,51
38588,note_off,,,,,188,0,4,,,,,3,,,69,79
38588,note_off,,,,,188,0,8,,,,,7,,,57,32
38592,note_on,,,,,4,0,3,,,,,2,,,60,125
38592,note_on,,,,,4,0,7,,,,,6,,,36,77
38592,note_on,,,,,4,0,1,,,,,0,,,60,93
38592,note_on,,,,,4,0,6,,,,,5,,,48,86
38592,note_on,,,,,4,0,2,,,,,1,,,60,93
38592,note_on,,,,,4,0,4,,,,,3,,,60,125
38592,note_on,,,,,4,0,5,,,,,4,,,60,87
38592,note_on,,,,,4,0,8,,,,,7,,,48,63
38780,note_off,,,,,188,0,4,,,,,3,,,60,79
38780,note_off,,,,,188,0,5,,,,,4,,,60,55
38780,note_off,,,,,188,0,6,,,,,5,,,48,57
38780,note_off,,,,,188,0,1,,,,,0,,,60,59
38780,note_off,,,,,188,0,7,,,,,6,,,36,51
38780,note_off,,,,,188,0,2,,,,,1,,,60,59
38780,note_off,,,,,188,0,3,,,,,2,,,60,79
38780,note_off,,,,,188,0,8,,,,,7,,,48,32
38784,note_on,,,,,4,0,1,,,,,0,,,59,93
38784,note_on,,,,,4,0,4,,,,,3,,,59,125
38784,note_on,,,,,4,0,7,,,,,6,,,35,77
38784,note_on,,,,,4,0,2,,,,,1,,,59,93
38784,note_on,,,,,4,0,8,,,,,7,,,47,63
38784,note_on,,,,,4,0,3,,,,,2,,,59,125
38784,note_on,,,,,4,0,6,,,,,5,,,47,86
38784,note_on,,,,,4,0,5,,,,,4,,,59,87
38972,note_off,,,,,188,0,2,,,,,1,,,59,59
38972,note_off,,,,,188,0,3,,,,,2,,,59,79
38972,note_off,,,,,188,0,7,,,,,6,,,35,51
38972,note_off,,,,,188,0,8,,,,,7,,,47,32
38972,note_off,,,,,188,0,4,,,,,3,,,59,79
38972,note_off,,,,,188,0,6,,,,,5,,,47,57
38972,note_off,,,,,188,0,5,,,,,4,,,59,55
38972,note_off,,,,,188,0,1,,,,,0,,,59,59
38976,note_on,,,,,4,0,2,,,,,1,,,68,93
38976,note_on,,,,,4,0,3,,,,,2,,,68,125
38976,note_on,,,,,4,0,6,,,,,5,,,56,86
38976,note_on,,,,,4,0,5,,,,,4,,,68,87
38976,note_on,,,,,4,0,1,,,,,0,,,68,93
38976,note_on,,,,,4,0,8,,,,,7,,,56,63
38976,note_on,,,,,4,0,7,,,,,6,,,44,77
38976,note_on,,,,,4,0,4,,,,,3,,,68,125
39164,note_off,,,,,188,0,7,,,,,6,,,44,51
39164,note_off,,,,,188,0,8,,,,,7,,,56,32
39164,note_off,,,,,188,0,6,,,,,5,,,56,57
39164,note_off,,,,,188,0,1,,,,,0,,,68,59
39164,note_off,,,,,188,0,5,,,,,4,,,68,55
39164,note_off,,,,,188,0,4,,,,,3,,,68,79
39164,note_off,,,,,188,0,3,,,,,2,,,68,79
39164,note_off,,,,,188,0,2,,,,,1,,,68,59
39168,note_on,,,,,4,0,7,,,,,6,,,45,77
39168,note_on,,,,,4,0,4,,,,,3,,,69,125
39168,note_on,,,,,4,0,6,,,,,5,,,57,86
39168,note_on,,,,,4,0,2,,,,,1,,,69,93
39168,note_on,,,,,4,0,8,,,,,7,,,57,63
39168,note_on,,,,,4,0,5,,,,,4,,,69,87
39168,note_on,,,,,4,0,3,,,,,2,,,69,125
39168,note_on,,,,,4,0,1,,,,,0,,,69,93
39260,note_off,,,,,92,0,1,,,,,0,,,69,59
39260,note_off,,,,,92,0,3,,,,,2,,,69,79
39264,note_on,,,,,4,0,3,,,,,2,,,64,125
39264,note_on,,,,,4,0,1,,,,,0,,,64,93
39356,note_off,,,,,188,0,8,,,,,7,,,57,32
39356,note_off,,,,,188,0,2,,,,,1,,,69,59
39356,note_off,,,,,92,0,3,,,,,2,,,64,79
39356,note_off,,,,,188,0,4,,,,,3,,,69,79
39356,note_off,,,,,188,0,6,,,,,5,,,57,57
39356,note_off,,,,,188,0,7,,,,,6,,,45,51
39356,note_off,,,,,188,0,5,,,,,4,,,69,55
39356,note_off,,,,,92,0,1,,,,,0,,,64,59
39360,note_on,,,,,4,0,5,,,,,4,,,57,87
39360,note_on,,,,,4,0,6,,,,,5,,,45,86
39360,note_on,,,,,4,0,1,,,,,0,,,66,93
39360,note_on,,,,,4,0,4,,,,,3,,,57,125
39360,note_on,,,,,4,0,2,,,,,1,,,57,93
39360,note_on,,,,,4,0,7,,,,,6,,,33,77
39360,note_on,,,,,4,0,8,,,,,7,,,45,63
39360,note_on,,,,,4,0,3,,,,,2,,,66,125
39452,note_off,,,,,92,0,3,,,,,2,,,66,79
39452,note_off,,,,,92,0,1,,,,,0,,,66,59
39456,note_on,,,,,4,0,3,,,,,2,,,68,125
39456,note_on,,,,,4,0,1,,,,,0,,,68,93
39548,note_off,,,,,92,0,1,,,,,0,,,68,59
39548,note_off,,,,,188,0,7,,,,,6,,,33,51
39548,note_off,,,,,188,0,8,,,,,7,,,45,32
39548,note_off,,,,,188,0,5,,,,,4,,,57,55
39548,note_off,,,,,188,0,2,,,,,1,,,57,59
39548,note_off,,,,,188,0,4,,,,,3,,,57,79
39548,note_off,,,,,188,0,6,,,,,5,,,45,57
39548,note_off,,,,,92,0,3,,,,,2,,,68,79
39552,note_on,,,,,4,0,3,,,,,2,,,69,125
39552,note_on,,,,,4,0,1,,,,,0,,,69,93
39644,note_off,,,,,92,0,1,,,,,0,,,69,59
39644,note_off,,,,,92,0,3,,,,,2,,,69,79
39648,note_on,,,,,4,0,1,,,,,0,,,71,93
39648,note_on,,,,,4,0,3,,,,,2,,,71,125
39740,note_off,,,,,92,0,1,,,,,0,,,71,59
39740,note_off,,,,,92,0,3,,,,,2,,,71,79
39744,note_on,,,,,4,0,1,,,,,0,,,72,93
39744,note_on,,,,,196,0,4,,,,,3,,,69,125
39744,note_on,,,,,4,0,3,,,,,2,,,72,125
39744,note_on,,,,,196,0,2,,,,,1,,,69,93
39836,note_off,,,,,92,0,4,,,,,3,,,69,79
39836,note_off,,,,,92,0,3,,,,,2,,,72,79
39836,note_off,,,,,92,0,2,,,,,1,,,69,59
39836,note_off,,,,,92,0,1,,,,,0,,,72,59
39840,note_on,,,,,4,0,2,,,,,1,,,71,93
39840,note_on,,,,,4,0,1,,,,,0,,,74,93
39840,note_on,,,,,4,0,4,,,,,3,,,71,125
39840,note_on,,,,,4,0,3,,,,,2,,,74,125
39932,note_off,,,,,92,0,2,,,,,1,,,71,59
39932,note_off,,,,,92,0,3,,,,,2,,,74,79
39932,note_off,,,,,92,0,4,,,,,3,,,71,79
39932,note_off,,,,,92,0,1,,,,,0,,,74,59
39936,note_on,,,,,4,0,4,,,,,3,,,72,125
39936,note_on,,,,,4,0,2,,,,,1,,,72,93
39936,note_on,,,,,4,0,3,,,,,2,,,76,125
39936,note_on,,,,,4,0,1,,,,,0,,,76,93
40028,note_off,,,,,92,0,1,,,,,0,,,76,59
40028,note_off,,,,,92,0,3,,,,,2,,,76,79
40028,note_off,,,,,92,0,2,,,,,1,,,72,59
40028,note_off,,,,,92,0,4,,,,,3,,,72,79
40032,note_on,,,,,4,0,4,,,,,3,,,71,125
40032,note_on,,,,,4,0,3,,,,,2,,,74,125
40032,note_on,,,,,4,0,2,,,,,1,,,71,93
40032,note_on,,,,,4,0,1,,,,,0,,,74,93
40124,note_off,,,,,92,0,4,,,,,3,,,71,79
40124,note_off,,,,,92,0,2,,,,,1,,,71,59
40124,note_off,,,,,92,0,3,,,,,2,,,74,79
40124,note_off,,,,,92,0,1,,,,,0,,,74,59
40128,note_on,,,,,4,0,1,,,,,0,,,72,93
40128,note_on,,,,,4,0,3,,,,,2,,,72,125
40128,note_on,,,,,4,0,2,,,,,1,,,69,93
40128,note_on,,,,,4,0,4,,,,,3,,,69,125
40220,note_off,,,,,92,0,1,,,,,0,,,72,59
40220,note_off,,,,,92,0,2,,,,,1,,,69,59
40220,note_off,,,,,92,0,4,,,,,3,,,69,79
40220,note_off,,,,,92,0,3,,,,,2,,,72,79
40224,note_on,,,,,4,0,4,,,,,3,,,72,125
40224,note_on,,,,,4,0,1,,,,,0,,,76,93
40224,note_on,,,,,4,0,2,,,,,1,,,72,93
40224,note_on,,,,,4,0,3,,,,,2,,,76,125
40316,note_off,,,,,92,0,2,,,,,1,,,72,59
40316,note_off,,,,,92,0,4,,,,,3,,,72,79
40316,note_off,,,,,92,0,1,,,,,0,,,76,59
40316,note_off,,,,,92,0,3,,,,,2,,,76,79
40320,note_on,,,,,4,0,4,,,,,3,,,71,125
40320,note_on,,,,,4,0,2,,,,,1,,,71,93
40320,note_on,,,,,4,0,1,,,,,0,,,74,93
40320,note_on,,,,,4,0,3,,,,,2,,,74,125
40412,note_off,,,,,92,0,4,,,,,3,,,71,79
40412,note_off,,,,,92,0,2,,,,,1,,,71,59
40412,note_off,,,,,92,0,3,,,,,2,,,74,79
40412,note_off,,,,,92,0,1,,,,,0,,,74,59
40416,note_on,,,,,4,0,2,,,,,1,,,69,93
40416,note_on,,,,,4,0,1,,,,,0,,,72,93
40416,note_on,,,,,4,0,4,,,,,3,,,69,125
40416,note_on,,,,,4,0,3,,,,,2,,,72,125
40508,note_off,,,,,92,0,2,,,,,1,,,69,59
40508,note_off,,,,,92,0,1,,,,,0,,,72,59
40508,note_off,,,,,92,0,3,,,,,2,,,72,79
40508,note_off,,,,,92,0,4,,,,,3,,,69,79
40512,note_on,,,,,4,0,3,,,,,2,,,71,125
40512,note_on,,,,,4,0,2,,,,,1,,,68,93
40512,note_on,,,,,4,0,4,,,,,3,,,68,125
40512,note_on,,,,,4,0,1,,,,,0,,,71,93
40604,note_off,,,,,92,0,3,,,,,2,,,71,79
40604,note_off,,,,,92,0,1,,,,,0,,,71,59
40604,note_off,,,,,92,0,2,,,,,1,,,68,59
40604,note_off,,,,,92,0,4,,,,,3,,,68,79
40608,note_on,,,,,4,0,1,,,,,0,,,74,93
40608,note_on,,,,,4,0,4,,,,,3,,,71,125
40608,note_on,,,,,4,0,2,,,,,1,,,71,93
40608,note_on,,,,,4,0,3,,,,,2,,,74,125
40700,note_off,,,,,92,0,2,,,,,1,,,71,59
40700,note_off,,,,,92,0,3,,,,,2,,,74,79
40700,note_off,,,,,92,0,1,,,,,0,,,74,59
40700,note_off,,,,,92,0,4,,,,,3,,,71,79
40704,note_on,,,,,4,0,2,,,,,1,,,69,93
40704,note_on,,,,,4,0,1,,,,,0,,,72,93
40704,note_on,,,,,4,0,3,,,,,2,,,72,125
40704,note_on,,,,,4,0,4,,,,,3,,,69,125
40892,note_off,,,,,188,0,3,,,,,2,,,72,79
40892,note_off,,,,,188,0,1,,,,,0,,,72,59
40892,note_off,,,,,188,0,2,,,,,1,,,69,59
40892,note_off,,,,,188,0,4,,,,,3,,,69,79
40896,note_on,,,,,4,0,4,,,,,3,,,57,125
40896,note_on,,,,,4,0,3,,,,,2,,,60,125
40896,note_on,,,,,4,0,2,,,,,1,,,57,93
40896,note_on,,,,,4,0,1,,,,,0,,,60,93
41084,note_off,,,,,188,0,4,,,,,3,,,57,79
41084,note_off,,,,,188,0,1,,,,,0,,,60,59
41084,note_off,,,,,188,0,3,,,,,2,,,60,79
41084,note_off,,,,,188,0,2,,,,,1,,,57,59
41328,note_on,,,,,244,0,1,,,,,0,,,66,93
41328,note_on,,,,,1780,0,5,,,,,4,,,66,87
41328,note_on,,,,,1780,0,8,,,,,7,,,54,63
41328,note_on,,,,,1780,0,7,,,,,6,,,42,77
41328,note_on,,,,,244,0,4,,,,,3,,,66,125
41328,note_on,,,,,1780,0,6,,,,,5,,,54,86
41328,note_on,,,,,244,0,3,,,,,2,,,66,125
41328,note_on,,,,,244,0,2,,,,,1,,,66,93
41372,note_off,,,,,44,0,3,,,,,2,,,66,79
41372,note_off,,,,,44,0,7,,,,,6,,,42,51
41372,note_off,,,,,44,0,1,,,,,0,,,66,59
41372,note_off,,,,,44,0,6,,,,,5,,,54,57
41372,note_off,,,,,44,0,4,,,,,3,,,66,79
41372,note_off,,,,,44,0,5,,,,,4,,,66,55
41372,note_off,,,,,44,0,2,,,,,1,,,66,59
41372,note_off,,,,,44,0,8,,,,,7,,,54,32
41376,note_on,,,,,4,0,5,,,,,4,,,68,87
41376,note_on,,,,,4,0,6,,,,,5,,,56,86
41376,note_on,,,,,4,0,8,,,,,7,,,56,63
41376,note_on,,,,,4,0,3,,,,,2,,,68,125
41376,note_on,,,,,4,0,4,,,,,3,,,68,125
41376,note_on,,,,,4,0,7,,,,,6,,,44,77
41376,note_on,,,,,4,0,1,,,,,0,,,68,93
41376,note_on,,,,,4,0,2,,,,,1,,,68,93
41420,note_off,,,,,44,0,7,,,,,6,,,44,51
41420,note_off,,,,,44,0,1,,,,,0,,,68,59
41420,note_off,,,,,44,0,2,,,,,1,,,68,59
41420,note_off,,,,,44,0,8,,,,,7,,,56,32
41420,note_off,,,,,44,0,6,,,,,5,,,56,57
41420,note_off,,,,,44,0,4,,,,,3,,,68,79
41420,note_off,,,,,44,0,3,,,,,2,,,68,79
41420,note_off,,,,,44,0,5,,,,,4,,,68,55
41424,note_on,,,,,4,0,5,,,,,4,,,70,87
41424,note_on,,,,,4,0,7,,,,,6,,,46,77
41424,note_on,,,,,4,0,6,,,,,5,,,58,86
41424,note_on,,,,,4,0,4,,,,,3,,,70,125
41424,note_on,,,,,4,0,3,,,,,2,,,70,125
41424,note_on,,,,,4,0,8,,,,,7,,,58,63
41424,note_on,,,,,4,0,1,,,,,0,,,70,93
41424,note_on,,,,,4,0,2,,,,,1,,,70,93
41468,note_off,,,,,44,0,8,,,,,7,,,58,32
41468,note_off,,,,,44,0,1,,,,,0,,,70,59
41468,note_off,,,,,44,0,7,,,,,6,,,46,51
41468,note_off,,,,,44,0,4,,,,,3,,,70,79
41468,note_off,,,,,44,0,6,,,,,5,,,58,57
41468,note_off,,,,,44,0,3,,,,,2,,,70,79
41468,note_off,,,,,44,0,5,,,,,4,,,70,55
41468,note_off,,,,,44,0,2,,,,,1,,,70,59
41472,note_on,,,,,4,0,2,,,,,1,,,71,93
41472,note_on,,,,,4,0,4,,,,,3,,,71,125
41472,note_on,,,,,4,0,5,,,,,4,,,71,87
41472,note_on,,,,,4,0,3,,,,,2,,,71,125
41472,note_on,,,,,4,0,8,,,,,7,,,59,63
41472,note_on,,,,,4,0,1,,,,,0,,,71,93
41472,note_on,,,,,4,0,6,,,,,5,,,59,86
41472,note_on,,,,,4,0,7,,,,,6,,,47,77
41660,note_off,,,,,188,0,7,,,,,6,,,47,51
41660,note_off,,,,,188,0,4,,,,,3,,,71,79
41660,note_off,,,,,188,0,1,,,,,0,,,71,59
41660,note_off,,,,,188,0,8,,,,,7,,,59,32
41660,note_off,,,,,188,0,5,,,,,4,,,71,55
41660,note_off,,,,,188,0,3,,,,,2,,,71,79
41660,note_off,,,,,188,0,6,,,,,5,,,59,57
41660,note_off,,,,,188,0,2,,,,,1,,,71,59
41664,note_on,,,,,4,0,2,,,,,1,,,62,93
41664,note_on,,,,,4,0,5,,,,,4,,,62,87
41664,note_on,,,,,4,0,8,,,,,7,,,50,63
41664,note_on,,,,,4,0,7,,,,,6,,,38,77
41664,note_on,,,,,4,0,3,,,,,2,,,62,125
41664,note_on,,,,,4,0,1,,,,,0,,,62,93
41664,note_on,,,,,4,0,6,,,,,5,,,50,86
41664,note_on,,,,,4,0,4,,,,,3,,,62,125
41852,note_off,,,,,188,0,2,,,,,1,,,62,59
41852,note_off,,,,,188,0,5,,,,,4,,,62,55
41852,note_off,,,,,188,0,4,,,,,3,,,62,79
41852,note_off,,,,,188,0,1,,,,,0,,,62,59
41852,note_off,,,,,188,0,3,,,,,2,,,62,79
41852,note_off,,,,,188,0,8,,,,,7,,,50,32
41852,note_off,,,,,188,0,7,,,,,6,,,38,51
41852,note_off,,,,,188,0,6,,,,,5,,,50,57
41856,note_on,,,,,4,0,1,,,,,0,,,61,93
41856,note_on,,,,,4,0,5,,,,,4,,,61,87
41856,note_on,,,,,4,0,2,,,,,1,,,61,93
41856,note_on,,,,,4,0,4,,,,,3,,,61,125
41856,note_on,,,,,4,0,3,,,,,2,,,61,125
41856,note_on,,,,,4,0,8,,,,,7,,,49,63
41856,note_on,,,,,4,0,6,,,,,5,,,49,86
41856,note_on,,,,,4,0,7,,,,,6,,,37,77
42044,note_off,,,,,188,0,8,,,,,7,,,49,32
42044,note_off,,,,,188,0,3,,,,,2,,,61,79
42044,note_off,,,,,188,0,6,,,,,5,,,49,57
42044,note_off,,,,,188,0,1,,,,,0,,,61,59
42044,note_off,,,,,188,0,2,,,,,1,,,61,59
42044,note_off,,,,,188,0,5,,,,,4,,,61,55
42044,note_off,,,,,188,0,7,,,,,6,,,37,51
42044,note_off,,,,,188,0,4,,,,,3,,,61,79
42048,note_on,,,,,4,0,4,,,,,3,,,70,125
42048,note_on,,,,,4,0,8,,,,,7,,,58,63
42048,note_on,,,,,4,0,6,,,,,5,,,58,86
42048,note_on,,,,,4,0,2,,,,,1,,,70,93
42048,note_on,,,,,4,0,5,,,,,4,,,70,87
42048,note_on,,,,,4,0,3,,,,,2,,,70,125
42048,note_on,,,,,4,0,7,,,,,6,,,46,77
42048,note_on,,,,,4,0,1,,,,,0,,,70,93
42236,note_off,,,,,188,0,6,,,,,5,,,58,57
42236,note_off,,,,,188,0,3,,,,,2,,,70,79
42236,note_off,,,,,188,0,8,,,,,7,,,58,32
42236,note_off,,,,,188,0,7,,,,,6,,,46,51
42236,note_off,,,,,188,0,4,,,,,3,,,70,79
42236,note_off,,,,,188,0,5,,,,,4,,,70,55
42236,note_off,,,,,188,0,1,,,,,0,,,70,59
42236,note_off,,,,,188,0,2,,,,,1,,,70,59
42240,note_on,,,,,4,0,8,,,,,7,,,59,63
42240,note_on,,,,,4,0,7,,,,,6,,,47,77
42240,note_on,,,,,4,0,2,,,,,1,,,71,93
42240,note_on,,,,,4,0,3,,,,,2,,,71,125
42240,note_on,,,,,4,0,6,,,,,5,,,59,86
42240,note_on,,,,,4,0,4,,,,,3,,,71,125
42240,note_on,,,,,4,0,1,,,,,0,,,71,93
42240,note_on,,,,,4,0,5,,,,,4,,,71,87
42332,note_off,,,,,92,0,3,,,,,2,,,71,79
42332,note_off,,,,,92,0,1,,,,,0,,,71,59
42336,note_on,,,,,4,0,1,,,,,0,,,66,93
42336,note_on,,,,,4,0,3,,,,,2,,,66,125
42428,note_off,,,,,188,0,6,,,,,5,,,59,57
42428,note_off,,,,,188,0,5,,,,,4,,,71,55
42428,note_off,,,,,92,0,3,,,,,2,,,66,79
42428,note_off,,,,,188,0,2,,,,,1,,,71,59
42428,note_off,,,,,188,0,4,,,,,3,,,71,79
42428,note_off,,,,,188,0,8,,,,,7,,,59,32
42428,note_off,,,,,92,0,1,,,,,0,,,66,59
42428,note_off,,,,,188,0,7,,,,,6,,,47,51
42432,note_on,,,,,4,0,5,,,,,4,,,59,87
42432,note_on,,,,,4,0,2,,,,,1,,,59,93
42432,note_on,,,,,4,0,7,,,,,6,,,35,77
42432,note_on,,,,,4,0,1,,,,,0,,,68,93
42432,note_on,,,,,4,0,3,,,,,2,,,68,125
42432,note_on,,,,,4,0,6,,,,,5,,,47,86
42432,note_on,,,,,4,0,8,,,,,7,,,47,63
42432,note_on,,,,,4,0,4,,,,,3,,,59,125
42524,note_off,,,,,92,0,1,,,,,0,,,68,59
42524,note_off,,,,,92,0,3,,,,,2,,,68,79
42528,note_on,,,,,4,0,3,,,,,2,,,70,125
42528,note_on,,,,,4,0,1,,,,,0,,,70,93
42620,note_off,,,,,92,0,3,,,,,2,,,70,79
42620,note_off,,,,,188,0,5,,,,,4,,,59,55
42620,note_off,,,,,188,0,2,,,,,1,,,59,59
42620,note_off,,,,,188,0,6,,,,,5,,,47,57
42620,note_off,,,,,188,0,4,,,,,3,,,59,79
42620,note_off,,,,,188,0,7,,,,,6,,,35,51
42620,note_off,,,,,188,0,8,,,,,7,,,47,32
42620,note_off,,,,,92,0,1,,,,,0,,,70,59
42624,note_on,,,,,4,0,3,,,,,2,,,71,125
42624,note_on,,,,,4,0,1,,,,,0,,,71,93
42716,note_off,,,,,92,0,1,,,,,0,,,71,59
42716,note_off,,,,,92,0,3,,,,,2,,,71,79
42720,note_on,,,,,100,0,2,,,,,1,,,70,93
42720,note_on,,,,,100,0,4,,,,,3,,,70,125
42720,note_on,,,,,4,0,1,,,,,0,,,73,93
42720,note_on,,,,,4,0,3,,,,,2,,,73,125
42812,note_off,,,,,92,0,2,,,,,1,,,70,59
42812,note_off,,,,,92,0,1,,,,,0,,,73,59
42812,note_off,,,,,92,0,4,,,,,3,,,70,79
42812,note_off,,,,,92,0,3,,,,,2,,,73,79
42816,note_on,,,,,4,0,1,,,,,0,,,74,93
42816,note_on,,,,,4,0,3,,,,,2,,,74,125
42816,note_on,,,,,4,0,2,,,,,1,,,71,93
42816,note_on,,,,,4,0,4,,,,,3,,,71,125
42908,note_off,,,,,92,0,2,,,,,1,,,71,59
42908,note_off,,,,,92,0,4,,,,,3,,,71,79
42908,note_off,,,,,92,0,1,,,,,0,,,74,59
42908,note_off,,,,,92,0,3,,,,,2,,,74,79
42912,note_on,,,,,4,0,1,,,,,0,,,76,93
42912,note_on,,,,,4,0,3,,,,,2,,,76,125
42912,note_on,,,,,4,0,2,,,,,1,,,73,93
42912,note_on,,,,,4,0,4,,,,,3,,,73,125
43004,note_off,,,,,92,0,2,,,,,1,,,73,59
43004,note_off,,,,,92,0,4,,,,,3,,,73,79
43004,note_off,,,,,92,0,1,,,,,0,,,76,59
43004,note_off,,,,,92,0,3,,,,,2,,,76,79
43008,note_on,,,,,4,0,2,,,,,1,,,74,93
43008,note_on,,,,,4,0,3,,,,,2,,,78,125
43008,note_on,,,,,4,0,1,,,,,0,,,78,93
43008,note_on,,,,,4,0,4,,,,,3,,,74,125
43100,note_off,,,,,92,0,1,,,,,0,,,78,59
43100,note_off,,,,,92,0,4,,,,,3,,,74,79
43100,note_off,,,,,92,0,2,,,,,1,,,74,59
43100,note_off,,,,,92,0,3,,,,,2,,,78,79
43104,note_on,,,,,4,0,2,,,,,1,,,73,93
43104,note_on,,,,,4,0,1,,,,,0,,,76,93
43104,note_on,,,,,4,0,3,,,,,2,,,76,125
43104,note_on,,,,,4,0,4,,,,,3,,,73,125
43196,note_off,,,,,92,0,4,,,,,3,,,73,79
43196,note_off,,,,,92,0,1,,,,,0,,,76,59
43196,note_off,,,,,92,0,3,,,,,2,,,76,79
43196,note_off,,,,,92,0,2,,,,,1,,,73,59
43200,note_on,,,,,4,0,2,,,,,1,,,71,93
43200,note_on,,,,,4,0,3,,,,,2,,,74,125
43200,note_on,,,,,4,0,1,,,,,0,,,74,93
43200,note_on,,,,,4,0,4,,,,,3,,,71,125
43292,note_off,,,,,92,0,4,,,,,3,,,71,79
43292,note_off,,,,,92,0,2,,,,,1,,,71,59
43292,note_off,,,,,92,0,3,,,,,2,,,74,79
43292,note_off,,,,,92,0,1,,,,,0,,,74,59
43296,note_on,,,,,4,0,2,,,,,1,,,74,93
43296,note_on,,,,,4,0,1,,,,,0,,,78,93
43296,note_on,,,,,4,0,3,,,,,2,,,78,125
43296,note_on,,,,,4,0,4,,,,,3,,,74,125
43388,note_off,,,,,92,0,4,,,,,3,,,74,79
43388,note_off,,,,,92,0,1,,,,,0,,,78,59
43388,note_off,,,,,92,0,3,,,,,2,,,78,79
43388,note_off,,,,,92,0,2,,,,,1,,,74,59
43392,note_on,,,,,4,0,4,,,,,3,,,73,125
43392,note_on,,,,,4,0,2,,,,,1,,,73,93
43392,note_on,,,,,4,0,1,,,,,0,,,76,93
43392,note_on,,,,,4,0,3,,,,,2,,,76,125
43484,note_off,,,,,92,0,2,,,,,1,,,73,59
43484,note_off,,,,,92,0,1,,,,,0,,,76,59
43484,note_off,,,,,92,0,4,,,,,3,,,73,79
43484,note_off,,,,,92,0,3,,,,,2,,,76,79
43488,note_on,,,,,4,0,3,,,,,2,,,74,125
43488,note_on,,,,,4,0,4,,,,,3,,,71,125
43488,note_on,,,,,4,0,1,,,,,0,,,74,93
43488,note_on,,,,,4,0,2,,,,,1,,,71,93
43580,note_off,,,,,92,0,1,,,,,0,,,74,59
43580,note_off,,,,,92,0,3,,,,,2,,,74,79
43580,note_off,,,,,92,0,4,,,,,3,,,71,79
43580,note_off,,,,,92,0,2,,,,,1,,,71,59
43584,note_on,,,,,4,0,1,,,,,0,,,73,93
43584,note_on,,,,,4,0,4,,,,,3,,,70,125
43584,note_on,,,,,4,0,2,,,,,1,,,70,93
43584,note_on,,,,,4,0,3,,,,,2,,,73,125
43676,note_off,,,,,92,0,3,,,,,2,,,73,79
43676,note_off,,,,,92,0,4,,,,,3,,,70,79
43676,note_off,,,,,92,0,1,,,,,0,,,73,59
43676,note_off,,,,,92,0,2,,,,,1,,,70,59
43680,note_on,,,,,4,0,1,,,,,0,,,76,93
43680,note_on,,,,,4,0,4,,,,,3,,,73,125
43680,note_on,,,,,4,0,3,,,,,2,,,76,125
43680,note_on,,,,,4,0,2,,,,,1,,,73,93
43772,note_off,,,,,92,0,2,,,,,1,,,73,59
43772,note_off,,,,,92,0,3,,,,,2,,,76,79
43772,note_off,,,,,92,0,1,,,,,0,,,76,59
43772,note_off,,,,,92,0,4,,,,,3,,,73,79
43776,note_on,,,,,4,0,3,,,,,2,,,74,125
43776,note_on,,,,,4,0,1,,,,,0,,,74,93
43776,note_on,,,,,4,0,4,,,,,3,,,71,125
43776,note_on,,,,,4,0,2,,,,,1,,,71,93
43964,note_off,,,,,188,0,4,,,,,3,,,71,79
43964,note_off,,,,,188,0,1,,,,,0,,,74,59
43964,note_off,,,,,188,0,2,,,,,1,,,71,59
43964,note_off,,,,,188,0,3,,,,,2,,,74,79
43968,note_on,,,,,4,0,1,,,,,0,,,71,93
43968,note_on,,,,,4,0,2,,,,,1,,,74,93
43968,note_on,,,,,1348,0,7,,,,,6,,,47,38
43968,note_on,,,,,1348,0,5,,,,,4,,,59,43
43968,note_on,,,,,4,0,3,,,,,2,,,71,125
43968,note_on,,,,,1348,0,6,,,,,5,,,59,43
43968,note_on,,,,,4,0,4,,,,,3,,,66,125
44156,note_off,,,,,188,0,1,,,,,0,,,71,59
44156,note_off,,,,,188,0,2,,,,,1,,,74,59
44156,note_off,,,,,188,0,3,,,,,2,,,71,79
44156,note_off,,,,,188,0,6,,,,,5,,,59,57
44156,note_off,,,,,188,0,5,,,,,4,,,59,55
44156,note_off,,,,,188,0,4,,,,,3,,,66,79
44156,note_off,,,,,188,0,7,,,,,6,,,47,51
44160,note_on,,,,,4,0,2,,,,,1,,,78,93
44160,note_on,,,,,4,0,5,,,,,4,,,62,43
44348,note_off,,,,,188,0,5,,,,,4,,,62,55
44348,note_off,,,,,188,0,2,,,,,1,,,78,59
44352,note_on,,,,,4,0,5,,,,,4,,,59,43
44352,note_on,,,,,196,0,6,,,,,5,,,59,43
44352,note_on,,,,,4,0,2,,,,,1,,,74,93
44352,note_on,,,,,196,0,1,,,,,0,,,78,74
44352,note_on,,,,,196,0,7,,,,,6,,,47,38
44540,note_off,,,,,188,0,5,,,,,4,,,59,55
44540,note_off,,,,,188,0,1,,,,,0,,,78,59
44540,note_off,,,,,188,0,6,,,,,5,,,59,57
44540,note_off,,,,,188,0,2,,,,,1,,,74,59
44540,note_off,,,,,188,0,7,,,,,6,,,47,51
44544,note_on,,,,,4,0,1,,,,,0,,,79,74
44636,note_off,,,,,92,0,1,,,,,0,,,79,59
44640,note_on,,,,,4,0,1,,,,,0,,,78,74
44732,note_off,,,,,92,0,1,,,,,0,,,78,59
44736,note_on,,,,,4,0,1,,,,,0,,,79,74
44736,note_on,,,,,580,0,4,,,,,3,,,64,62
44736,note_on,,,,,580,0,3,,,,,2,,,67,62
44736,note_on,,,,,196,0,5,,,,,4,,,64,43
44828,note_off,,,,,92,0,1,,,,,0,,,79,59
44832,note_on,,,,,4,0,1,,,,,0,,,83,74
44924,note_off,,,,,188,0,4,,,,,3,,,64,79
44924,note_off,,,,,92,0,1,,,,,0,,,83,59
44924,note_off,,,,,188,0,5,,,,,4,,,64,55
44924,note_off,,,,,188,0,3,,,,,2,,,67,79
44928,note_on,,,,,4,0,5,,,,,4,,,67,43
44928,note_on,,,,,4,0,1,,,,,0,,,79,74
44928,note_on,,,,,4,0,4,,,,,3,,,67,62
44928,note_on,,,,,4,0,3,,,,,2,,,71,62
45020,note_off,,,,,92,0,1,,,,,0,,,79,59
45024,note_on,,,,,4,0,1,,,,,0,,,78,74
45116,note_off,,,,,188,0,4,,,,,3,,,67,79
45116,note_off,,,,,188,0,5,,,,,4,,,67,55
45116,note_off,,,,,92,0,1,,,,,0,,,78,59
45116,note_off,,,,,188,0,3,,,,,2,,,71,79
45120,note_on,,,,,4,0,4,,,,,3,,,64,62
45120,note_on,,,,,4,0,5,,,,,4,,,64,43
45120,note_on,,,,,4,0,1,,,,,0,,,79,74
45120,note_on,,,,,4,0,3,,,,,2,,,67,62
45212,note_off,,,,,92,0,1,,,,,0,,,79,59
45216,note_on,,,,,4,0,1,,,,,0,,,83,74
45308,note_off,,,,,92,0,1,,,,,0,,,83,59
45308,note_off,,,,,188,0,4,,,,,3,,,64,79
45308,note_off,,,,,188,0,5,,,,,4,,,64,55
45308,note_off,,,,,188,0,3,,,,,2,,,67,79
45312,note_on,,,,,4,0,1,,,,,0,,,73,74
45404,note_off,,,,,92,0,1,,,,,0,,,73,59
45408,note_on,,,,,4,0,1,,,,,0,,,71,74
45500,note_off,,,,,92,0,1,,,,,0,,,71,59
45504,note_on,,,,,964,0,2,,,,,1,,,73,46
45504,note_on,,,,,964,0,7,,,,,6,,,45,38
45504,note_on,,,,,4,0,1,,,,,0,,,73,74
45504,note_on,,,,,196,0,5,,,,,4,,,57,43
45504,note_on,,,,,964,0,6,,,,,5,,,57,43
45596,note_off,,,,,92,0,1,,,,,0,,,73,59
45600,note_on,,,,,4,0,1,,,,,0,,,76,74
45692,note_off,,,,,188,0,7,,,,,6,,,45,51
45692,note_off,,,,,188,0,2,,,,,1,,,73,59
45692,note_off,,,,,188,0,5,,,,,4,,,57,55
45692,note_off,,,,,188,0,6,,,,,5,,,57,57
45692,note_off,,,,,92,0,1,,,,,0,,,76,59
45696,note_on,,,,,4,0,7,,,,,6,,,49,38
45696,note_on,,,,,4,0,1,,,,,0,,,73,74
45696,note_on,,,,,4,0,5,,,,,4,,,61,43
45696,note_on,,,,,4,0,6,,,,,5,,,61,43
45696,note_on,,,,,4,0,2,,,,,1,,,76,46
45788,note_off,,,,,92,0,1,,,,,0,,,73,59
45792,note_on,,,,,4,0,1,,,,,0,,,71,74
45884,note_off,,,,,188,0,5,,,,,4,,,61,55
45884,note_off,,,,,188,0,7,,,,,6,,,49,51
45884,note_off,,,,,92,0,1,,,,,0,,,71,59
45884,note_off,,,,,188,0,2,,,,,1,,,76,59
45884,note_off,,,,,188,0,6,,,,,5,,,61,57
45888,note_on,,,,,4,0,7,,,,,6,,,45,38
45888,note_on,,,,,4,0,2,,,,,1,,,73,46
45888,note_on,,,,,4,0,6,,,,,5,,,57,43
45888,note_on,,,,,4,0,5,,,,,4,,,57,43
45888,note_on,,,,,4,0,1,,,,,0,,,73,74
45980,note_off,,,,,92,0,1,,,,,0,,,73,59
45984,note_on,,,,,4,0,1,,,,,0,,,76,74
46076,note_off,,,,,188,0,5,,,,,4,,,57,55
46076,note_off,,,,,188,0,7,,,,,6,,,45,51
46076,note_off,,,,,188,0,6,,,,,5,,,57,57
46076,note_off,,,,,92,0,1,,,,,0,,,76,59
46076,note_off,,,,,188,0,2,,,,,1,,,73,59
46080,note_on,,,,,4,0,1,,,,,0,,,78,74
46172,note_off,,,,,92,0,1,,,,,0,,,78,59
46176,note_on,,,,,4,0,1,,,,,0,,,76,74
46268,note_off,,,,,92,0,1,,,,,0,,,76,59
46272,note_on,,,,,4,0,1,,,,,0,,,78,74
46272,note_on,,,,,964,0,4,,,,,3,,,62,62
46272,note_on,,,,,964,0,3,,,,,2,,,69,62
46272,note_on,,,,,196,0,5,,,,,4,,,62,43
46364,note_off,,,,,92,0,1,,,,,0,,,78,59
46368,note_on,,,,,4,0,1,,,,,0,,,81,74
46460,note_off,,,,,188,0,3,,,,,2,,,69,79
46460,note_off,,,,,188,0,5,,,,,4,,,62,55
46460,note_off,,,,,92,0,1,,,,,0,,,81,59
46460,note_off,,,,,188,0,4,,,,,3,,,62,79
46464,note_on,,,,,4,0,3,,,,,2,,,74,62
46464,note_on,,,,,4,0,4,,,,,3,,,66,62
46464,note_on,,,,,4,0,5,,,,,4,,,66,43
46464,note_on,,,,,4,0,1,,,,,0,,,78,74
46556,note_off,,,,,92,0,1,,,,,0,,,78,59
46560,note_on,,,,,4,0,1,,,,,0,,,76,74
46652,note_off,,,,,92,0,1,,,,,0,,,76,59
46652,note_off,,,,,188,0,4,,,,,3,,,66,79
46652,note_off,,,,,188,0,5,,,,,4,,,66,55
46652,note_off,,,,,188,0,3,,,,,2,,,74,79
46656,note_on,,,,,4,0,4,,,,,3,,,62,62
46656,note_on,,,,,4,0,5,,,,,4,,,62,43
46656,note_on,,,,,4,0,3,,,,,2,,,69,62
46656,note_on,,,,,4,0,1,,,,,0,,,78,74
46748,note_off,,,,,92,0,1,,,,,0,,,78,59
46752,note_on,,,,,4,0,1,,,,,0,,,81,74
46844,note_off,,,,,188,0,4,,,,,3,,,62,79
46844,note_off,,,,,188,0,5,,,,,4,,,62,55
46844,note_off,,,,,188,0,3,,,,,2,,,69,79
46844,note_off,,,,,92,0,1,,,,,0,,,81,59
46848,note_on,,,,,4,0,1,,,,,0,,,74,74
46940,note_off,,,,,92,0,1,,,,,0,,,74,59
46944,note_on,,,,,4,0,1,,,,,0,,,73,74
47036,note_off,,,,,92,0,1,,,,,0,,,73,59
47040,note_on,,,,,196,0,5,,,,,4,,,59,43
47040,note_on,,,,,4,0,1,,,,,0,,,74,74
47040,note_on,,,,,964,0,6,,,,,5,,,59,43
47040,note_on,,,,,964,0,2,,,,,1,,,66,46
47040,note_on,,,,,964,0,7,,,,,6,,,47,38
47132,note_off,,,,,92,0,1,,,,,0,,,74,59
47136,note_on,,,,,4,0,1,,,,,0,,,78,74
47228,note_off,,,,,188,0,5,,,,,4,,,59,55
47228,note_off,,,,,92,0,1,,,,,0,,,78,59
47228,note_off,,,,,188,0,6,,,,,5,,,59,57
47228,note_off,,,,,188,0,2,,,,,1,,,66,59
47228,note_off,,,,,188,0,7,,,,,6,,,47,51
47232,note_on,,,,,4,0,5,,,,,4,,,62,43
47232,note_on,,,,,4,0,2,,,,,1,,,71,46
47232,note_on,,,,,4,0,1,,,,,0,,,74,74
47232,note_on,,,,,4,0,7,,,,,6,,,50,38
47232,note_on,,,,,4,0,6,,,,,5,,,62,43
47324,note_off,,,,,92,0,1,,,,,0,,,74,59
47328,note_on,,,,,4,0,1,,,,,0,,,73,74
47420,note_off,,,,,188,0,7,,,,,6,,,50,51
47420,note_off,,,,,188,0,2,,,,,1,,,71,59
47420,note_off,,,,,92,0,1,,,,,0,,,73,59
47420,note_off,,,,,188,0,6,,,,,5,,,62,57
47420,note_off,,,,,188,0,5,,,,,4,,,62,55
47424,note_on,,,,,4,0,1,,,,,0,,,74,74
47424,note_on,,,,,4,0,7,,,,,6,,,47,38
47424,note_on,,,,,4,0,2,,,,,1,,,66,46
47424,note_on,,,,,4,0,5,,,,,4,,,59,43
47424,note_on,,,,,4,0,6,,,,,5,,,59,43
47516,note_off,,,,,92,0,1,,,,,0,,,74,59
47520,note_on,,,,,4,0,1,,,,,0,,,78,74
47612,note_off,,,,,188,0,6,,,,,5,,,59,57
47612,note_off,,,,,92,0,1,,,,,0,,,78,59
47612,note_off,,,,,188,0,7,,,,,6,,,47,51
47612,note_off,,,,,188,0,2,,,,,1,,,66,59
47612,note_off,,,,,188,0,5,,,,,4,,,59,55
47616,note_on,,,,,4,0,1,,,,,0,,,76,74
47708,note_off,,,,,92,0,1,,,,,0,,,76,59
47712,note_on,,,,,4,0,1,,,,,0,,,74,74
47804,note_off,,,,,92,0,1,,,,,0,,,74,59
47808,note_on,,,,,964,0,4,,,,,3,,,73,62
47808,note_on,,,,,196,0,5,,,,,4,,,73,43
47808,note_on,,,,,4,0,1,,,,,0,,,76,74
47808,note_on,,,,,964,0,3,,,,,2,,,76,62
47900,note_off,,,,,92,0,1,,,,,0,,,76,59
47904,note_on,,,,,4,0,1,,,,,0,,,79,74
47996,note_off,,,,,188,0,5,,,,,4,,,73,55
47996,note_off,,,,,188,0,3,,,,,2,,,76,79
47996,note_off,,,,,188,0,4,,,,,3,,,73,79
47996,note_off,,,,,92,0,1,,,,,0,,,79,59
48000,note_on,,,,,4,0,3,,,,,2,,,79,62
48000,note_on,,,,,4,0,1,,,,,0,,,76,74
48000,note_on,,,,,4,0,4,,,,,3,,,76,62
48000,note_on,,,,,4,0,5,,,,,4,,,76,43
48092,note_off,,,,,92,0,1,,,,,0,,,76,59
48096,note_on,,,,,4,0,1,,,,,0,,,74,74
48188,note_off,,,,,188,0,3,,,,,2,,,79,79
48188,note_off,,,,,92,0,1,,,,,0,,,74,59
48188,note_off,,,,,188,0,4,,,,,3,,,76,79
48188,note_off,,,,,188,0,5,,,,,4,,,76,55
48192,note_on,,,,,4,0,3,,,,,2,,,76,62
48192,note_on,,,,,4,0,4,,,,,3,,,73,62
48192,note_on,,,,,4,0,1,,,,,0,,,76,74
48192,note_on,,,,,4,0,5,,,,,4,,,73,43
48284,note_off,,,,,92,0,1,,,,,0,,,76,59
48288,note_on,,,,,4,0,1,,,,,0,,,85,74
48380,note_off,,,,,92,0,1,,,,,0,,,85,59
48380,note_off,,,,,188,0,4,,,,,3,,,73,79
48380,note_off,,,,,188,0,5,,,,,4,,,73,55
48380,note_off,,,,,188,0,3,,,,,2,,,76,79
48384,note_on,,,,,4,0,1,,,,,0,,,76,74
48476,note_off,,,,,92,0,1,,,,,0,,,76,59
48480,note_on,,,,,4,0,1,,,,,0,,,74,74
48572,note_off,,,,,92,0,1,,,,,0,,,74,59
48576,note_on,,,,,964,0,2,,,,,1,,,73,46
48576,note_on,,,,,196,0,5,,,,,4,,,58,43
48576,note_on,,,,,4,0,1,,,,,0,,,76,74
48576,note_on,,,,,964,0,6,,,,,5,,,58,43
48576,note_on,,,,,964,0,7,,,,,6,,,46,38
48668,note_off,,,,,92,0,1,,,,,0,,,76,59
48672,note_on,,,,,4,0,1,,,,,0,,,85,74
48764,note_off,,,,,188,0,5,,,,,4,,,58,55
48764,note_off,,,,,188,0,6,,,,,5,,,58,57
48764,note_off,,,,,188,0,7,,,,,6,,,46,51
48764,note_off,,,,,92,0,1,,,,,0,,,85,59
48764,note_off,,,,,188,0,2,,,,,1,,,73,59
48768,note_on,,,,,4,0,1,,,,,0,,,76,74
48768,note_on,,,,,4,0,5,,,,,4,,,61,43
48768,note_on,,,,,4,0,7,,,,,6,,,49,38
48768,note_on,,,,,4,0,6,,,,,5,,,61,43
48768,note_on,,,,,4,0,2,,,,,1,,,82,46
48860,note_off,,,,,92,0,1,,,,,0,,,76,59
48864,note_on,,,,,4,0,1,,,,,0,,,74,74
48956,note_off,,,,,188,0,2,,,,,1,,,82,59
48956,note_off,,,,,92,0,1,,,,,0,,,74,59
48956,note_off,,,,,188,0,7,,,,,6,,,49,51
48956,note_off,,,,,188,0,6,,,,,5,,,61,57
48956,note_off,,,,,188,0,5,,,,,4,,,61,55
48960,note_on,,,,,4,0,5,,,,,4,,,58,43
48960,note_on,,,,,4,0,7,,,,,6,,,46,38
48960,note_on,,,,,4,0,6,,,,,5,,,58,43
48960,note_on,,,,,4,0,2,,,,,1,,,73,46
48960,note_on,,,,,4,0,1,,,,,0,,,76,74
49052,note_off,,,,,92,0,1,,,,,0,,,76,59
49056,note_on,,,,,4,0,1,,,,,0,,,85,74
49148,note_off,,,,,188,0,2,,,,,1,,,73,59
49148,note_off,,,,,188,0,7,,,,,6,,,46,51
49148,note_off,,,,,188,0,5,,,,,4,,,58,55
49148,note_off,,,,,188,0,6,,,,,5,,,58,57
49148,note_off,,,,,92,0,1,,,,,0,,,85,59
49152,note_on,,,,,4,0,1,,,,,0,,,86,74
49244,note_off,,,,,92,0,1,,,,,0,,,86,59
49248,note_on,,,,,4,0,1,,,,,0,,,85,74
49340,note_off,,,,,92,0,1,,,,,0,,,85,59
49344,note_on,,,,,4,0,1,,,,,0,,,86,74
49344,note_on,,,,,964,0,3,,,,,2,,,74,62
49344,note_on,,,,,196,0,5,,,,,4,,,71,43
49344,note_on,,,,,964,0,4,,,,,3,,,71,62
49436,note_off,,,,,92,0,1,,,,,0,,,86,59
49440,note_on,,,,,4,0,1,,,,,0,,,74,74
49532,note_off,,,,,188,0,5,,,,,4,,,71,55
49532,note_off,,,,,188,0,4,,,,,3,,,71,79
49532,note_off,,,,,188,0,3,,,,,2,,,74,79
49532,note_off,,,,,92,0,1,,,,,0,,,74,59
49536,note_on,,,,,4,0,4,,,,,3,,,74,62
49536,note_on,,,,,4,0,5,,,,,4,,,74,43
49536,note_on,,,,,4,0,1,,,,,0,,,86,74
49536,note_on,,,,,4,0,3,,,,,2,,,78,62
49628,note_off,,,,,92,0,1,,,,,0,,,86,59
49632,note_on,,,,,4,0,1,,,,,0,,,85,74
49724,note_off,,,,,92,0,1,,,,,0,,,85,59
49724,note_off,,,,,188,0,5,,,,,4,,,74,55
49724,note_off,,,,,188,0,3,,,,,2,,,78,79
49724,note_off,,,,,188,0,4,,,,,3,,,74,79
49728,note_on,,,,,4,0,4,,,,,3,,,71,62
49728,note_on,,,,,4,0,3,,,,,2,,,74,62
49728,note_on,,,,,4,0,1,,,,,0,,,86,74
49728,note_on,,,,,4,0,5,,,,,4,,,71,43
49820,note_off,,,,,92,0,1,,,,,0,,,86,59
49824,note_on,,,,,4,0,1,,,,,0,,,74,74
49916,note_off,,,,,92,0,1,,,,,0,,,74,59
49916,note_off,,,,,188,0,4,,,,,3,,,71,79
49916,note_off,,,,,188,0,3,,,,,2,,,74,79
49916,note_off,,,,,188,0,5,,,,,4,,,71,55
49920,note_on,,,,,4,0,1,,,,,0,,,78,74
50012,note_off,,,,,92,0,1,,,,,0,,,78,59
50016,note_on,,,,,4,0,1,,,,,0,,,76,74
50108,note_off,,,,,92,0,1,,,,,0,,,76,59
50112,note_on,,,,,4,0,1,,,,,0,,,78,74
50112,note_on,,,,,964,0,7,,,,,6,,,47,38
50112,note_on,,,,,964,0,2,,,,,1,,,78,46
50112,note_on,,,,,196,0,5,,,,,4,,,59,43
50112,note_on,,,,,964,0,6,,,,,5,,,59,43
50204,note_off,,,,,92,0,1,,,,,0,,,78,59
50208,note_on,,,,,4,0,1,,,,,0,,,86,74
50300,note_off,,,,,188,0,6,,,,,5,,,59,57
50300,note_off,,,,,92,0,1,,,,,0,,,86,59
50300,note_off,,,,,188,0,7,,,,,6,,,47,51
50300,note_off,,,,,188,0,5,,,,,4,,,59,55
50300,note_off,,,,,188,0,2,,,,,1,,,78,59
50304,note_on,,,,,4,0,2,,,,,1,,,83,46
50304,note_on,,,,,4,0,6,,,,,5,,,62,43
50304,note_on,,,,,4,0,7,,,,,6,,,50,38
50304,note_on,,,,,4,0,1,,,,,0,,,78,74
50304,note_on,,,,,4,0,5,,,,,4,,,62,43
50396,note_off,,,,,92,0,1,,,,,0,,,78,59
50400,note_on,,,,,4,0,1,,,,,0,,,76,74
50492,note_off,,,,,188,0,5,,,,,4,,,62,55
50492,note_off,,,,,92,0,1,,,,,0,,,76,59
50492,note_off,,,,,188,0,7,,,,,6,,,50,51
50492,note_off,,,,,188,0,2,,,,,1,,,83,59
50492,note_off,,,,,188,0,6,,,,,5,,,62,57
50496,note_on,,,,,4,0,7,,,,,6,,,47,38
50496,note_on,,,,,4,0,2,,,,,1,,,74,46
50496,note_on,,,,,4,0,1,,,,,0,,,78,74
50496,note_on,,,,,4,0,5,,,,,4,,,59,43
50496,note_on,,,,,4,0,6,,,,,5,,,59,43
50588,note_off,,,,,92,0,1,,,,,0,,,78,59
50592,note_on,,,,,4,0,1,,,,,0,,,86,74
50684,note_off,,,,,188,0,6,,,,,5,,,59,57
50684,note_off,,,,,188,0,2,,,,,1,,,74,59
50684,note_off,,,,,188,0,7,,,,,6,,,47,51
50684,note_off,,,,,188,0,5,,,,,4,,,59,55
50684,note_off,,,,,92,0,1,,,,,0,,,86,59
50688,note_on,,,,,4,0,2,,,,,1,,,74,46
50688,note_on,,,,,4,0,7,,,,,6,,,44,38
50688,note_on,,,,,4,0,1,,,,,0,,,76,74
50688,note_on,,,,,4,0,5,,,,,4,,,56,43
50688,note_on,,,,,4,0,6,,,,,5,,,56,43
50780,note_off,,,,,92,0,1,,,,,0,,,76,59
50784,note_on,,,,,4,0,1,,,,,0,,,74,74
50876,note_off,,,,,92,0,1,,,,,0,,,74,59
50876,note_off,,,,,188,0,2,,,,,1,,,74,59
50876,note_off,,,,,188,0,5,,,,,4,,,56,55
50876,note_off,,,,,188,0,6,,,,,5,,,56,57
50876,note_off,,,,,188,0,7,,,,,6,,,44,51
50880,note_on,,,,,964,0,3,,,,,2,,,71,62
50880,note_on,,,,,4,0,5,,,,,4,,,56,43
50880,note_on,,,,,4,0,6,,,,,5,,,56,43
50880,note_on,,,,,4,0,7,,,,,6,,,44,38
50880,note_on,,,,,4,0,1,,,,,0,,,76,74
50880,note_on,,,,,964,0,4,,,,,3,,,68,62
50880,note_on,,,,,4,0,2,,,,,1,,,74,46
50972,note_off,,,,,92,0,1,,,,,0,,,76,59
50976,note_on,,,,,4,0,1,,,,,0,,,86,74
51068,note_off,,,,,188,0,7,,,,,6,,,44,51
51068,note_off,,,,,188,0,5,,,,,4,,,56,55
51068,note_off,,,,,188,0,2,,,,,1,,,74,59
51068,note_off,,,,,92,0,1,,,,,0,,,86,59
51068,note_off,,,,,188,0,4,,,,,3,,,68,79
51068,note_off,,,,,188,0,3,,,,,2,,,71,79
51068,note_off,,,,,188,0,6,,,,,5,,,56,57
51072,note_on,,,,,4,0,2,,,,,1,,,74,46
51072,note_on,,,,,4,0,7,,,,,6,,,44,38
51072,note_on,,,,,4,0,4,,,,,3,,,71,62
51072,note_on,,,,,4,0,5,,,,,4,,,56,43
51072,note_on,,,,,4,0,3,,,,,2,,,76,62
51072,note_on,,,,,4,0,1,,,,,0,,,76,74
51072,note_on,,,,,4,0,6,,,,,5,,,56,43
51164,note_off,,,,,92,0,1,,,,,0,,,76,59
51168,note_on,,,,,4,0,1,,,,,0,,,74,74
51260,note_off,,,,,188,0,3,,,,,2,,,76,79
51260,note_off,,,,,188,0,4,,,,,3,,,71,79
51260,note_off,,,,,188,0,5,,,,,4,,,56,55
51260,note_off,,,,,188,0,7,,,,,6,,,44,51
51260,note_off,,,,,92,0,1,,,,,0,,,74,59
51260,note_off,,,,,188,0,6,,,,,5,,,56,57
51260,note_off,,,,,188,0,2,,,,,1,,,74,59
51264,note_on,,,,,4,0,3,,,,,2,,,71,62
51264,note_on,,,,,4,0,4,,,,,3,,,68,62
51264,note_on,,,,,4,0,6,,,,,5,,,56,43
51264,note_on,,,,,4,0,2,,,,,1,,,74,46
51264,note_on,,,,,4,0,1,,,,,0,,,76,74
51264,note_on,,,,,4,0,7,,,,,6,,,44,38
51264,note_on,,,,,4,0,5,,,,,4,,,56,43
51356,note_off,,,,,92,0,1,,,,,0,,,76,59
51360,note_on,,,,,4,0,1,,,,,0,,,86,74
51452,note_off,,,,,188,0,7,,,,,6,,,44,51
51452,note_off,,,,,188,0,6,,,,,5,,,56,57
51452,note_off,,,,,188,0,5,,,,,4,,,56,55
51452,note_off,,,,,188,0,3,,,,,2,,,71,79
51452,note_off,,,,,188,0,4,,,,,3,,,68,79
51452,note_off,,,,,188,0,2,,,,,1,,,74,59
51452,note_off,,,,,92,0,1,,,,,0,,,86,59
51456,note_on,,,,,4,0,7,,,,,6,,,46,38
51456,note_on,,,,,4,0,5,,,,,4,,,58,43
51456,note_on,,,,,4,0,2,,,,,1,,,73,46
51456,note_on,,,,,4,0,6,,,,,5,,,58,43
51456,note_on,,,,,4,0,1,,,,,0,,,76,74
51548,note_off,,,,,92,0,1,,,,,0,,,76,59
51552,note_on,,,,,4,0,1,,,,,0,,,74,74
51644,note_off,,,,,188,0,2,,,,,1,,,73,59
51644,note_off,,,,,188,0,6,,,,,5,,,58,57
51644,note_off,,,,,188,0,5,,,,,4,,,58,55
51644,note_off,,,,,188,0,7,,,,,6,,,46,51
51644,note_off,,,,,92,0,1,,,,,0,,,74,59
51648,note_on,,,,,4,0,6,,,,,5,,,58,43
51648,note_on,,,,,196,0,3,,,,,2,,,73,62
51648,note_on,,,,,4,0,7,,,,,6,,,46,38
51648,note_on,,,,,4,0,5,,,,,4,,,58,43
51648,note_on,,,,,4,0,1,,,,,0,,,76,74
51648,note_on,,,,,196,0,4,,,,,3,,,70,62
51648,note_on,,,,,4,0,2,,,,,1,,,73,46
51740,note_off,,,,,92,0,1,,,,,0,,,76,59
51744,note_on,,,,,4,0,1,,,,,0,,,85,74
51836,note_off,,,,,188,0,2,,,,,1,,,73,59
51836,note_off,,,,,188,0,7,,,,,6,,,46,51
51836,note_off,,,,,188,0,4,,,,,3,,,70,79
51836,note_off,,,,,92,0,1,,,,,0,,,85,59
51836,note_off,,,,,188,0,6,,,,,5,,,58,57
51836,note_off,,,,,188,0,5,,,,,4,,,58,55
51836,note_off,,,,,188,0,3,,,,,2,,,73,79
51840,note_on,,,,,4,0,3,,,,,2,,,76,62
51840,note_on,,,,,4,0,1,,,,,0,,,76,74
51840,note_on,,,,,4,0,6,,,,,5,,,58,43
51840,note_on,,,,,4,0,2,,,,,1,,,73,46
51840,note_on,,,,,4,0,7,,,,,6,,,46,38
51840,note_on,,,,,4,0,4,,,,,3,,,73,62
51840,note_on,,,,,4,0,5,,,,,4,,,58,43
51932,note_off,,,,,92,0,1,,,,,0,,,76,59
51936,note_on,,,,,4,0,1,,,,,0,,,74,74
52028,note_off,,,,,188,0,2,,,,,1,,,73,59
52028,note_off,,,,,188,0,7,,,,,6,,,46,51
52028,note_off,,,,,188,0,3,,,,,2,,,76,79
52028,note_off,,,,,188,0,4,,,,,3,,,73,79
52028,note_off,,,,,188,0,5,,,,,4,,,58,55
52028,note_off,,,,,188,0,6,,,,,5,,,58,57
52028,note_off,,,,,92,0,1,,,,,0,,,74,59
52032,note_on,,,,,4,0,6,,,,,5,,,58,43
52032,note_on,,,,,4,0,4,,,,,3,,,70,62
52032,note_on,,,,,4,0,5,,,,,4,,,58,43
52032,note_on,,,,,4,0,3,,,,,2,,,73,62
52032,note_on,,,,,4,0,1,,,,,0,,,76,74
52032,note_on,,,,,4,0,7,,,,,6,,,46,38
52032,note_on,,,,,4,0,2,,,,,1,,,73,46
52124,note_off,,,,,92,0,1,,,,,0,,,76,59
52128,note_on,,,,,4,0,1,,,,,0,,,85,74
52220,note_off,,,,,188,0,5,,,,,4,,,58,55
52220,note_off,,,,,188,0,7,,,,,6,,,46,51
52220,note_off,,,,,188,0,4,,,,,3,,,70,79
52220,note_off,,,,,188,0,3,,,,,2,,,73,79
52220,note_off,,,,,188,0,6,,,,,5,,,58,57
52220,note_off,,,,,92,0,1,,,,,0,,,85,59
52220,note_off,,,,,188,0,2,,,,,1,,,73,59
52224,note_on,,,,,4,0,2,,,,,1,,,73,46
52224,note_on,,,,,4,0,5,,,,,4,,,59,43
52224,note_on,,,,,4,0,7,,,,,6,,,47,38
52224,note_on,,,,,4,0,6,,,,,5,,,59,43
52224,note_on,,,,,4,0,1,,,,,0,,,74,74
52316,note_off,,,,,92,0,1,,,,,0,,,74,59
52320,note_on,,,,,4,0,1,,,,,0,,,73,74
52412,note_off,,,,,188,0,2,,,,,1,,,73,59
52412,note_off,,,,,188,0,6,,,,,5,,,59,57
52412,note_off,,,,,188,0,7,,,,,6,,,47,51
52412,note_off,,,,,92,0,1,,,,,0,,,73,59
52412,note_off,,,,,188,0,5,,,,,4,,,59,55
52416,note_on,,,,,4,0,6,,,,,5,,,59,43
52416,note_on,,,,,196,0,3,,,,,2,,,66,62
52416,note_on,,,,,4,0,1,,,,,0,,,74,74
52416,note_on,,,,,4,0,7,,,,,6,,,47,38
52416,note_on,,,,,196,0,4,,,,,3,,,59,62
52416,note_on,,,,,4,0,2,,,,,1,,,73,46
52416,note_on,,,,,4,0,5,,,,,4,,,59,43
52508,note_off,,,,,92,0,1,,,,,0,,,74,59
52512,note_on,,,,,4,0,1,,,,,0,,,85,74
52604,note_off,,,,,188,0,2,,,,,1,,,73,59
52604,note_off,,,,,188,0,4,,,,,3,,,59,79
52604,note_off,,,,,188,0,7,,,,,6,,,47,51
52604,note_off,,,,,188,0,3,,,,,2,,,66,79
52604,note_off,,,,,188,0,5,,,,,4,,,59,55
52604,note_off,,,,,188,0,6,,,,,5,,,59,57
52604,note_off,,,,,92,0,1,,,,,0,,,85,59
52608,note_on,,,,,4,0,6,,,,,5,,,59,43
52608,note_on,,,,,4,0,7,,,,,6,,,47,38
52608,note_on,,,,,4,0,3,,,,,2,,,66,62
52608,note_on,,,,,4,0,2,,,,,1,,,73,46
52608,note_on,,,,,4,0,4,,,,,3,,,62,62
52608,note_on,,,,,4,0,5,,,,,4,,,59,43
52608,note_on,,,,,4,0,1,,,,,0,,,74,74
52700,note_off,,,,,92,0,1,,,,,0,,,74,59
52704,note_on,,,,,4,0,1,,,,,0,,,73,74
52796,note_off,,,,,188,0,4,,,,,3,,,62,79
52796,note_off,,,,,188,0,2,,,,,1,,,73,59
52796,note_off,,,,,92,0,1,,,,,0,,,73,59
52796,note_off,,,,,188,0,7,,,,,6,,,47,51
52796,note_off,,,,,188,0,3,,,,,2,,,66,79
52796,note_off,,,,,188,0,6,,,,,5,,,59,57
52796,note_off,,,,,188,0,5,,,,,4,,,59,55
52800,note_on,,,,,4,0,5,,,,,4,,,59,43
52800,note_on,,,,,4,0,7,,,,,6,,,47,38
52800,note_on,,,,,4,0,6,,,,,5,,,59,43
52800,note_on,,,,,4,0,4,,,,,3,,,59,62
52800,note_on,,,,,4,0,2,,,,,1,,,73,46
52800,note_on,,,,,4,0,1,,,,,0,,,74,74
52800,note_on,,,,,4,0,3,,,,,2,,,66,62
52892,note_off,,,,,92,0,1,,,,,0,,,74,59
52896,note_on,,,,,4,0,1,,,,,0,,,85,74
52988,note_off,,,,,188,0,5,,,,,4,,,59,55
52988,note_off,,,,,188,0,4,,,,,3,,,59,79
52988,note_off,,,,,188,0,6,,,,,5,,,59,57
52988,note_off,,,,,92,0,1,,,,,0,,,85,59
52988,note_off,,,,,188,0,3,,,,,2,,,66,79
52988,note_off,,,,,188,0,2,,,,,1,,,73,59
52988,note_off,,,,,188,0,7,,,,,6,,,47,51
52992,note_on,,,,,10372,0,8,,,,,7,,,50,49
52992,note_on,,,,,4,0,7,,,,,6,,,38,38
52992,note_on,,,,,4,0,4,,,,,3,,,71,62
52992,note_on,,,,,4,0,2,,,,,1,,,71,46
52992,note_on,,,,,4,0,3,,,,,2,,,74,62
52992,note_on,,,,,4,0,5,,,,,4,,,66,43
52992,note_on,,,,,4,0,1,,,,,0,,,74,74
52992,note_on,,,,,4,0,6,,,,,5,,,50,43
53084,note_off,,,,,92,0,1,,,,,0,,,74,59
53088,note_on,,,,,4,0,1,,,,,0,,,73,74
53180,note_off,,,,,188,0,4,,,,,3,,,71,79
53180,note_off,,,,,188,0,3,,,,,2,,,74,79
53180,note_off,,,,,92,0,1,,,,,0,,,73,59
53180,note_off,,,,,188,0,7,,,,,6,,,38,51
53180,note_off,,,,,188,0,2,,,,,1,,,71,59
53180,note_off,,,,,188,0,8,,,,,7,,,50,32
53180,note_off,,,,,188,0,6,,,,,5,,,50,57
53180,note_off,,,,,188,0,5,,,,,4,,,66,55
53184,note_on,,,,,4,0,6,,,,,5,,,50,43
53184,note_on,,,,,4,0,4,,,,,3,,,71,62
53184,note_on,,,,,4,0,1,,,,,0,,,74,74
53184,note_on,,,,,4,0,7,,,,,6,,,38,38
53184,note_on,,,,,4,0,8,,,,,7,,,50,49
53184,note_on,,,,,4,0,3,,,,,2,,,74,62
53184,note_on,,,,,4,0,2,,,,,1,,,71,46
53184,note_on,,,,,4,0,5,,,,,4,,,66,43
53276,note_off,,,,,92,0,1,,,,,0,,,74,59
53280,note_on,,,,,4,0,1,,,,,0,,,83,74
53372,note_off,,,,,188,0,3,,,,,2,,,74,79
53372,note_off,,,,,188,0,4,,,,,3,,,71,79
53372,note_off,,,,,188,0,2,,,,,1,,,71,59
53372,note_off,,,,,92,0,1,,,,,0,,,83,59
53372,note_off,,,,,188,0,8,,,,,7,,,50,32
53372,note_off,,,,,188,0,5,,,,,4,,,66,55
53372,note_off,,,,,188,0,7,,,,,6,,,38,51
53372,note_off,,,,,188,0,6,,,,,5,,,50,57
53376,note_on,,,,,4,0,8,,,,,7,,,50,49
53376,note_on,,,,,4,0,7,,,,,6,,,38,38
53376,note_on,,,,,4,0,1,,,,,0,,,74,74
53376,note_on,,,,,4,0,5,,,,,4,,,66,43
53376,note_on,,,,,4,0,3,,,,,2,,,74,62
53376,note_on,,,,,4,0,6,,,,,5,,,50,43
53376,note_on,,,,,4,0,4,,,,,3,,,71,62
53376,note_on,,,,,4,0,2,,,,,1,,,71,46
53468,note_off,,,,,92,0,1,,,,,0,,,74,59
53472,note_on,,,,,4,0,1,,,,,0,,,73,74
53564,note_off,,,,,188,0,5,,,,,4,,,66,55
53564,note_off,,,,,188,0,4,,,,,3,,,71,79
53564,note_off,,,,,92,0,1,,,,,0,,,73,59
53564,note_off,,,,,188,0,2,,,,,1,,,71,59
53564,note_off,,,,,188,0,8,,,,,7,,,50,32
53564,note_off,,,,,188,0,3,,,,,2,,,74,79
53564,note_off,,,,,188,0,7,,,,,6,,,38,51
53564,note_off,,,,,188,0,6,,,,,5,,,50,57
53568,note_on,,,,,4,0,1,,,,,0,,,74,74
53568,note_on,,,,,4,0,8,,,,,7,,,50,49
53568,note_on,,,,,4,0,6,,,,,5,,,50,43
53568,note_on,,,,,4,0,5,,,,,4,,,66,43
53568,note_on,,,,,4,0,4,,,,,3,,,71,62
53568,note_on,,,,,4,0,2,,,,,1,,,71,46
53568,note_on,,,,,4,0,7,,,,,6,,,38,38
53568,note_on,,,,,4,0,3,,,,,2,,,74,62
53660,note_off,,,,,92,0,1,,,,,0,,,74,59
53664,note_on,,,,,4,0,1,,,,,0,,,83,74
53756,note_off,,,,,188,0,8,,,,,7,,,50,32
53756,note_off,,,,,188,0,7,,,,,6,,,38,51
53756,note_off,,,,,188,0,2,,,,,1,,,71,59
53756,note_off,,,,,188,0,5,,,,,4,,,66,55
53756,note_off,,,,,188,0,6,,,,,5,,,50,57
53756,note_off,,,,,188,0,3,,,,,2,,,74,79
53756,note_off,,,,,188,0,4,,,,,3,,,71,79
53756,note_off,,,,,92,0,1,,,,,0,,,83,59
53760,note_on,,,,,4,0,2,,,,,1,,,71,46
53760,note_on,,,,,4,0,7,,,,,6,,,40,38
53760,note_on,,,,,4,0,4,,,,,3,,,71,62
53760,note_on,,,,,4,0,5,,,,,4,,,67,43
53760,note_on,,,,,4,0,3,,,,,2,,,73,62
53760,note_on,,,,,4,0,8,,,,,7,,,52,49
53760,note_on,,,,,4,0,1,,,,,0,,,73,46
53760,note_on,,,,,4,0,6,,,,,5,,,52,43
53948,note_off,,,,,188,0,8,,,,,7,,,52,32
53948,note_off,,,,,188,0,3,,,,,2,,,73,79
53948,note_off,,,,,188,0,4,,,,,3,,,71,79
53948,note_off,,,,,188,0,1,,,,,0,,,73,59
53948,note_off,,,,,188,0,2,,,,,1,,,71,59
53948,note_off,,,,,188,0,6,,,,,5,,,52,57
53948,note_off,,,,,188,0,5,,,,,4,,,67,55
53948,note_off,,,,,188,0,7,,,,,6,,,40,51
53952,note_on,,,,,4,0,3,,,,,2,,,73,65
53952,note_on,,,,,4,0,6,,,,,5,,,54,45
53952,note_on,,,,,4,0,2,,,,,1,,,71,49
53952,note_on,,,,,4,0,5,,,,,4,,,66,46
53952,note_on,,,,,4,0,7,,,,,6,,,42,39
53952,note_on,,,,,4,0,4,,,,,3,,,71,65
53952,note_on,,,,,4,0,1,,,,,0,,,73,49
53952,note_on,,,,,4,0,8,,,,,7,,,54,51
54140,note_off,,,,,188,0,7,,,,,6,,,42,51
54140,note_off,,,,,188,0,1,,,,,0,,,73,59
54140,note_off,,,,,188,0,2,,,,,1,,,71,59
54140,note_off,,,,,188,0,8,,,,,7,,,54,32
54140,note_off,,,,,188,0,3,,,,,2,,,73,79
54140,note_off,,,,,188,0,4,,,,,3,,,71,79
54140,note_off,,,,,188,0,5,,,,,4,,,66,55
54140,note_off,,,,,188,0,6,,,,,5,,,54,57
54144,note_on,,,,,4,0,1,,,,,0,,,73,52
54144,note_on,,,,,4,0,8,,,,,7,,,55,54
54144,note_on,,,,,4,0,5,,,,,4,,,64,48
54144,note_on,,,,,4,0,2,,,,,1,,,71,52
54144,note_on,,,,,4,0,7,,,,,6,,,43,42
54144,note_on,,,,,4,0,6,,,,,5,,,55,47
54144,note_on,,,,,4,0,4,,,,,3,,,71,70
54144,note_on,,,,,4,0,3,,,,,2,,,73,70
54332,note_off,,,,,188,0,2,,,,,1,,,71,59
54332,note_off,,,,,188,0,7,,,,,6,,,43,51
54332,note_off,,,,,188,0,3,,,,,2,,,73,79
54332,note_off,,,,,188,0,6,,,,,5,,,55,57
54332,note_off,,,,,188,0,5,,,,,4,,,64,55
54332,note_off,,,,,188,0,8,,,,,7,,,55,32
54332,note_off,,,,,188,0,4,,,,,3,,,71,79
54332,note_off,,,,,188,0,1,,,,,0,,,73,59
54336,note_on,,,,,4,0,5,,,,,4,,,66,51
54336,note_on,,,,,4,0,2,,,,,1,,,71,54
54336,note_on,,,,,4,0,1,,,,,0,,,73,54
54336,note_on,,,,,4,0,3,,,,,2,,,73,73
54336,note_on,,,,,4,0,7,,,,,6,,,42,44
54336,note_on,,,,,4,0,8,,,,,7,,,54,57
54336,note_on,,,,,4,0,6,,,,,5,,,54,50
54336,note_on,,,,,4,0,4,,,,,3,,,71,73
54524,note_off,,,,,188,0,8,,,,,7,,,54,32
54524,note_off,,,,,188,0,1,,,,,0,,,73,59
54524,note_off,,,,,188,0,6,,,,,5,,,54,57
54524,note_off,,,,,188,0,2,,,,,1,,,71,59
54524,note_off,,,,,188,0,3,,,,,2,,,73,79
54524,note_off,,,,,188,0,7,,,,,6,,,42,51
54524,note_off,,,,,188,0,4,,,,,3,,,71,79
54524,note_off,,,,,188,0,5,,,,,4,,,66,55
54528,note_on,,,,,4,0,6,,,,,5,,,52,53
54528,note_on,,,,,4,0,3,,,,,2,,,73,77
54528,note_on,,,,,4,0,8,,,,,7,,,52,60
54528,note_on,,,,,4,0,4,,,,,3,,,71,77
54528,note_on,,,,,4,0,5,,,,,4,,,67,53
54528,note_on,,,,,4,0,1,,,,,0,,,73,57
54528,note_on,,,,,4,0,2,,,,,1,,,71,57
54528,note_on,,,,,4,0,7,,,,,6,,,40,47
54716,note_off,,,,,188,0,6,,,,,5,,,52,57
54716,note_off,,,,,188,0,8,,,,,7,,,52,32
54716,note_off,,,,,188,0,5,,,,,4,,,67,55
54716,note_off,,,,,188,0,3,,,,,2,,,73,79
54716,note_off,,,,,188,0,2,,,,,1,,,71,59
54716,note_off,,,,,188,0,7,,,,,6,,,40,51
54716,note_off,,,,,188,0,4,,,,,3,,,71,79
54716,note_off,,,,,188,0,1,,,,,0,,,73,59
54720,note_on,,,,,4,0,1,,,,,0,,,73,60
54720,note_on,,,,,4,0,3,,,,,2,,,73,80
54720,note_on,,,,,4,0,6,,,,,5,,,54,55
54720,note_on,,,,,4,0,7,,,,,6,,,42,49
54720,note_on,,,,,4,0,2,,,,,1,,,71,60
54720,note_on,,,,,4,0,5,,,,,4,,,66,56
54720,note_on,,,,,4,0,8,,,,,7,,,54,63
54720,note_on,,,,,4,0,4,,,,,3,,,71,80
54908,note_off,,,,,188,0,5,,,,,4,,,66,55
54908,note_off,,,,,188,0,2,,,,,1,,,71,59
54908,note_off,,,,,188,0,6,,,,,5,,,54,57
54908,note_off,,,,,188,0,1,,,,,0,,,73,59
54908,note_off,,,,,188,0,8,,,,,7,,,54,32
54908,note_off,,,,,188,0,7,,,,,6,,,42,51
54908,note_off,,,,,188,0,3,,,,,2,,,73,79
54908,note_off,,,,,188,0,4,,,,,3,,,71,79
54912,note_on,,,,,4,0,1,,,,,0,,,73,63
54912,note_on,,,,,4,0,6,,,,,5,,,55,58
54912,note_on,,,,,4,0,3,,,,,2,,,73,85
54912,note_on,,,,,4,0,7,,,,,6,,,43,52
54912,note_on,,,,,4,0,5,,,,,4,,,64,59
54912,note_on,,,,,4,0,8,,,,,7,,,55,63
54912,note_on,,,,,4,0,2,,,,,1,,,71,63
54912,note_on,,,,,4,0,4,,,,,3,,,71,85
55100,note_off,,,,,188,0,2,,,,,1,,,71,59
55100,note_off,,,,,188,0,3,,,,,2,,,73,79
55100,note_off,,,,,188,0,6,,,,,5,,,55,57
55100,note_off,,,,,188,0,4,,,,,3,,,71,79
55100,note_off,,,,,188,0,1,,,,,0,,,73,59
55100,note_off,,,,,188,0,8,,,,,7,,,55,32
55100,note_off,,,,,188,0,7,,,,,6,,,43,51
55100,note_off,,,,,188,0,5,,,,,4,,,64,55
55104,note_on,,,,,4,0,6,,,,,5,,,54,61
55104,note_on,,,,,4,0,1,,,,,0,,,73,66
55104,note_on,,,,,4,0,7,,,,,6,,,42,54
55104,note_on,,,,,4,0,3,,,,,2,,,73,88
55104,note_on,,,,,4,0,2,,,,,1,,,71,66
55104,note_on,,,,,4,0,5,,,,,4,,,66,61
55104,note_on,,,,,4,0,8,,,,,7,,,54,63
55104,note_on,,,,,4,0,4,,,,,3,,,71,88
55292,note_off,,,,,188,0,6,,,,,5,,,54,57
55292,note_off,,,,,188,0,4,,,,,3,,,71,79
55292,note_off,,,,,188,0,5,,,,,4,,,66,55
55292,note_off,,,,,188,0,3,,,,,2,,,73,79
55292,note_off,,,,,188,0,7,,,,,6,,,42,51
55292,note_off,,,,,188,0,8,,,,,7,,,54,32
55292,note_off,,,,,188,0,1,,,,,0,,,73,59
55292,note_off,,,,,188,0,2,,,,,1,,,71,59
55296,note_on,,,,,4,0,1,,,,,0,,,73,69
55296,note_on,,,,,4,0,2,,,,,1,,,71,69
55296,note_on,,,,,4,0,3,,,,,2,,,73,93
55296,note_on,,,,,4,0,8,,,,,7,,,52,63
55296,note_on,,,,,4,0,7,,,,,6,,,40,57
55296,note_on,,,,,4,0,5,,,,,4,,,67,65
55296,note_on,,,,,4,0,4,,,,,3,,,71,93
55296,note_on,,,,,4,0,6,,,,,5,,,52,64
55484,note_off,,,,,188,0,5,,,,,4,,,67,55
55484,note_off,,,,,188,0,2,,,,,1,,,71,59
55484,note_off,,,,,188,0,6,,,,,5,,,52,57
55484,note_off,,,,,188,0,8,,,,,7,,,52,32
55484,note_off,,,,,188,0,4,,,,,3,,,71,79
55484,note_off,,,,,188,0,3,,,,,2,,,73,79
55484,note_off,,,,,188,0,7,,,,,6,,,40,51
55484,note_off,,,,,188,0,1,,,,,0,,,73,59
55488,note_on,,,,,4,0,1,,,,,0,,,73,72
55488,note_on,,,,,4,0,2,,,,,1,,,71,72
55488,note_on,,,,,4,0,3,,,,,2,,,73,97
55488,note_on,,,,,4,0,5,,,,,4,,,66,67
55488,note_on,,,,,4,0,4,,,,,3,,,71,97
55488,note_on,,,,,4,0,8,,,,,7,,,54,63
55488,note_on,,,,,4,0,6,,,,,5,,,54,66
55488,note_on,,,,,4,0,7,,,,,6,,,42,59
55676,note_off,,,,,188,0,6,,,,,5,,,54,57
55676,note_off,,,,,188,0,1,,,,,0,,,73,59
55676,note_off,,,,,188,0,5,,,,,4,,,66,55
55676,note_off,,,,,188,0,4,,,,,3,,,71,79
55676,note_off,,,,,188,0,8,,,,,7,,,54,32
55676,note_off,,,,,188,0,3,,,,,2,,,73,79
55676,note_off,,,,,188,0,2,,,,,1,,,71,59
55676,note_off,,,,,188,0,7,,,,,6,,,42,51
55680,note_on,,,,,4,0,7,,,,,6,,,43,61
55680,note_on,,,,,4,0,2,,,,,1,,,71,75
55680,note_on,,,,,4,0,5,,,,,4,,,64,70
55680,note_on,,,,,4,0,1,,,,,0,,,73,75
55680,note_on,,,,,4,0,4,,,,,3,,,71,101
55680,note_on,,,,,4,0,6,,,,,5,,,55,69
55680,note_on,,,,,4,0,3,,,,,2,,,73,101
55680,note_on,,,,,4,0,8,,,,,7,,,55,63
55868,note_off,,,,,188,0,8,,,,,7,,,55,32
55868,note_off,,,,,188,0,5,,,,,4,,,64,55
55868,note_off,,,,,188,0,2,,,,,1,,,71,59
55868,note_off,,,,,188,0,6,,,,,5,,,55,57
55868,note_off,,,,,188,0,7,,,,,6,,,43,51
55868,note_off,,,,,188,0,3,,,,,2,,,73,79
55868,note_off,,,,,188,0,4,,,,,3,,,71,79
55868,note_off,,,,,188,0,1,,,,,0,,,73,59
55872,note_on,,,,,4,0,5,,,,,4,,,67,73
55872,note_on,,,,,4,0,2,,,,,1,,,71,78
55872,note_on,,,,,4,0,6,,,,,5,,,52,72
55872,note_on,,,,,4,0,3,,,,,2,,,73,104
55872,note_on,,,,,4,0,1,,,,,0,,,73,78
55872,note_on,,,,,4,0,4,,,,,3,,,71,104
55872,note_on,,,,,4,0,7,,,,,6,,,40,64
55872,note_on,,,,,4,0,8,,,,,7,,,52,63
56060,note_off,,,,,188,0,4,,,,,3,,,71,79
56060,note_off,,,,,188,0,1,,,,,0,,,73,59
56060,note_off,,,,,188,0,2,,,,,1,,,71,59
56060,note_off,,,,,188,0,6,,,,,5,,,52,57
56060,note_off,,,,,188,0,8,,,,,7,,,52,32
56060,note_off,,,,,188,0,5,,,,,4,,,67,55
56060,note_off,,,,,188,0,7,,,,,6,,,40,51
56060,note_off,,,,,188,0,3,,,,,2,,,73,79
56064,note_on,,,,,4,0,4,,,,,3,,,70,108
56064,note_on,,,,,4,0,6,,,,,5,,,54,74
56064,note_on,,,,,4,0,3,,,,,2,,,73,108
56064,note_on,,,,,4,0,8,,,,,7,,,54,63
56064,note_on,,,,,4,0,7,,,,,6,,,42,66
56064,note_on,,,,,4,0,1,,,,,0,,,73,80
56064,note_on,,,,,4,0,5,,,,,4,,,66,75
56064,note_on,,,,,4,0,2,,,,,1,,,70,80
56252,note_off,,,,,188,0,3,,,,,2,,,73,79
56252,note_off,,,,,188,0,7,,,,,6,,,42,51
56252,note_off,,,,,188,0,4,,,,,3,,,70,79
56252,note_off,,,,,188,0,5,,,,,4,,,66,55
56252,note_off,,,,,188,0,8,,,,,7,,,54,32
56252,note_off,,,,,188,0,1,,,,,0,,,73,59
56252,note_off,,,,,188,0,6,,,,,5,,,54,57
56252,note_off,,,,,188,0,2,,,,,1,,,70,59
56256,note_on,,,,,4,0,6,,,,,5,,,56,77
56256,note_on,,,,,4,0,1,,,,,0,,,73,83
56256,note_on,,,,,4,0,8,,,,,7,,,56,63
56256,note_on,,,,,4,0,4,,,,,3,,,68,112
56256,note_on,,,,,4,0,5,,,,,4,,,61,78
56256,note_on,,,,,4,0,3,,,,,2,,,73,112
56256,note_on,,,,,4,0,2,,,,,1,,,68,83
56256,note_on,,,,,4,0,7,,,,,6,,,44,68
56444,note_off,,,,,188,0,5,,,,,4,,,61,55
56444,note_off,,,,,188,0,6,,,,,5,,,56,57
56444,note_off,,,,,188,0,1,,,,,0,,,73,59
56444,note_off,,,,,188,0,4,,,,,3,,,68,79
56444,note_off,,,,,188,0,8,,,,,7,,,56,32
56444,note_off,,,,,188,0,7,,,,,6,,,44,51
56444,note_off,,,,,188,0,2,,,,,1,,,68,59
56444,note_off,,,,,188,0,3,,,,,2,,,73,79
56448,note_on,,,,,4,0,6,,,,,5,,,58,80
56448,note_on,,,,,4,0,1,,,,,0,,,73,86
56448,note_on,,,,,4,0,5,,,,,4,,,66,80
56448,note_on,,,,,4,0,4,,,,,3,,,66,116
56448,note_on,,,,,4,0,7,,,,,6,,,46,71
56448,note_on,,,,,4,0,2,,,,,1,,,66,86
56448,note_on,,,,,4,0,3,,,,,2,,,73,116
56448,note_on,,,,,4,0,8,,,,,7,,,58,63
56636,note_off,,,,,188,0,4,,,,,3,,,66,79
56636,note_off,,,,,188,0,6,,,,,5,,,58,57
56636,note_off,,,,,188,0,1,,,,,0,,,73,59
56636,note_off,,,,,188,0,7,,,,,6,,,46,51
56636,note_off,,,,,188,0,8,,,,,7,,,58,32
56636,note_off,,,,,188,0,3,,,,,2,,,73,79
56636,note_off,,,,,188,0,5,,,,,4,,,66,55
56636,note_off,,,,,188,0,2,,,,,1,,,66,59
56640,note_on,,,,,4,0,1,,,,,0,,,78,89
56640,note_on,,,,,4,0,3,,,,,2,,,78,119
56640,note_on,,,,,4,0,2,,,,,1,,,73,89
56640,note_on,,,,,4,0,4,,,,,3,,,73,119
56640,note_on,,,,,4,0,6,,,,,5,,,54,82
56640,note_on,,,,,4,0,8,,,,,7,,,54,63
56640,note_on,,,,,4,0,5,,,,,4,,,70,83
56640,note_on,,,,,4,0,7,,,,,6,,,42,74
56828,note_off,,,,,188,0,8,,,,,7,,,54,32
56828,note_off,,,,,188,0,1,,,,,0,,,78,59
56828,note_off,,,,,188,0,5,,,,,4,,,70,55
56828,note_off,,,,,188,0,7,,,,,6,,,42,51
56828,note_off,,,,,188,0,4,,,,,3,,,73,79
56828,note_off,,,,,188,0,6,,,,,5,,,54,57
56828,note_off,,,,,188,0,2,,,,,1,,,73,59
56828,note_off,,,,,188,0,3,,,,,2,,,78,79
56832,note_on,,,,,4,0,4,,,,,3,,,74,125
56832,note_on,,,,,4,0,5,,,,,4,,,71,87
56832,note_on,,,,,4,0,7,,,,,6,,,47,77
56832,note_on,,,,,4,0,2,,,,,1,,,74,93
56832,note_on,,,,,4,0,8,,,,,7,,,59,63
56832,note_on,,,,,4,0,1,,,,,0,,,79,93
56832,note_on,,,,,4,0,3,,,,,2,,,79,125
56832,note_on,,,,,4,0,6,,,,,5,,,59,86
56924,note_off,,,,,92,0,4,,,,,3,,,74,79
56924,note_off,,,,,92,0,2,,,,,1,,,74,59
56928,note_on,,,,,4,0,4,,,,,3,,,76,125
56928,note_on,,,,,4,0,2,,,,,1,,,76,93
57020,note_off,,,,,188,0,8,,,,,7,,,59,32
57020,note_off,,,,,188,0,7,,,,,6,,,47,51
57020,note_off,,,,,188,0,3,,,,,2,,,79,79
57020,note_off,,,,,92,0,4,,,,,3,,,76,79
57020,note_off,,,,,188,0,6,,,,,5,,,59,57
57020,note_off,,,,,92,0,2,,,,,1,,,76,59
57020,note_off,,,,,188,0,1,,,,,0,,,79,59
57024,note_on,,,,,4,0,8,,,,,7,,,47,63
57024,note_on,,,,,4,0,7,,,,,6,,,35,77
57024,note_on,,,,,4,0,2,,,,,1,,,74,93
57024,note_on,,,,,4,0,6,,,,,5,,,47,86
57024,note_on,,,,,4,0,1,,,,,0,,,67,93
57024,note_on,,,,,4,0,4,,,,,3,,,74,125
57024,note_on,,,,,4,0,3,,,,,2,,,67,125
57116,note_off,,,,,92,0,2,,,,,1,,,74,59
57116,note_off,,,,,92,0,4,,,,,3,,,74,79
57120,note_on,,,,,4,0,2,,,,,1,,,76,93
57120,note_on,,,,,4,0,4,,,,,3,,,76,125
57212,note_off,,,,,92,0,4,,,,,3,,,76,79
57212,note_off,,,,,188,0,7,,,,,6,,,35,51
57212,note_off,,,,,188,0,3,,,,,2,,,67,79
57212,note_off,,,,,380,0,5,,,,,4,,,71,55
57212,note_off,,,,,188,0,1,,,,,0,,,67,59
57212,note_off,,,,,188,0,8,,,,,7,,,47,32
57212,note_off,,,,,188,0,6,,,,,5,,,47,57
57212,note_off,,,,,92,0,2,,,,,1,,,76,59
57216,note_on,,,,,4,0,4,,,,,3,,,78,125
57216,note_on,,,,,4,0,3,,,,,2,,,66,125
57216,note_on,,,,,4,0,2,,,,,1,,,78,93
57216,note_on,,,,,4,0,7,,,,,6,,,33,77
57216,note_on,,,,,4,0,6,,,,,5,,,45,86
57216,note_on,,,,,4,0,8,,,,,7,,,45,63
57216,note_on,,,,,4,0,1,,,,,0,,,66,93
57216,note_on,,,,,4,0,5,,,,,4,,,73,87
57308,note_off,,,,,92,0,2,,,,,1,,,78,59
57308,note_off,,,,,92,0,4,,,,,3,,,78,79
57312,note_on,,,,,4,0,2,,,,,1,,,73,93
57312,note_on,,,,,4,0,4,,,,,3,,,73,125
57404,note_off,,,,,92,0,4,,,,,3,,,73,79
57404,note_off,,,,,188,0,6,,,,,5,,,45,57
57404,note_off,,,,,188,0,8,,,,,7,,,45,32
57404,note_off,,,,,188,0,1,,,,,0,,,66,59
57404,note_off,,,,,92,0,2,,,,,1,,,73,59
57404,note_off,,,,,188,0,3,,,,,2,,,66,79
57404,note_off,,,,,188,0,7,,,,,6,,,33,51
57408,note_on,,,,,4,0,4,,,,,3,,,74,125
57408,note_on,,,,,4,0,7,,,,,6,,,45,77
57408,note_on,,,,,4,0,8,,,,,7,,,57,63
57408,note_on,,,,,4,0,3,,,,,2,,,78,125
57408,note_on,,,,,4,0,1,,,,,0,,,78,93
57408,note_on,,,,,4,0,6,,,,,5,,,57,86
57408,note_on,,,,,4,0,2,,,,,1,,,74,93
57500,note_off,,,,,92,0,2,,,,,1,,,74,59
57500,note_off,,,,,92,0,4,,,,,3,,,74,79
57504,note_on,,,,,4,0,2,,,,,1,,,73,93
57504,note_on,,,,,4,0,4,,,,,3,,,73,125
57596,note_off,,,,,188,0,3,,,,,2,,,78,79
57596,note_off,,,,,92,0,4,,,,,3,,,73,79
57596,note_off,,,,,380,0,5,,,,,4,,,73,55
57596,note_off,,,,,92,0,2,,,,,1,,,73,59
57596,note_off,,,,,188,0,6,,,,,5,,,57,57
57596,note_off,,,,,188,0,7,,,,,6,,,45,51
57596,note_off,,,,,188,0,1,,,,,0,,,78,59
57596,note_off,,,,,188,0,8,,,,,7,,,57,32
57600,note_on,,,,,4,0,7,,,,,6,,,43,77
57600,note_on,,,,,4,0,5,,,,,4,,,64,87
57600,note_on,,,,,4,0,6,,,,,5,,,55,86
57600,note_on,,,,,4,0,1,,,,,0,,,76,93
57600,note_on,,,,,4,0,3,,,,,2,,,76,125
57600,note_on,,,,,4,0,4,,,,,3,,,71,125
57600,note_on,,,,,4,0,2,,,,,1,,,71,93
57600,note_on,,,,,4,0,8,,,,,7,,,55,63
57692,note_off,,,,,92,0,4,,,,,3,,,71,79
57692,note_off,,,,,92,0,2,,,,,1,,,71,59
57696,note_on,,,,,4,0,4,,,,,3,,,73,125
57696,note_on,,,,,4,0,2,,,,,1,,,73,93
57788,note_off,,,,,188,0,7,,,,,6,,,43,51
57788,note_off,,,,,92,0,4,,,,,3,,,73,79
57788,note_off,,,,,92,0,2,,,,,1,,,73,59
57788,note_off,,,,,188,0,8,,,,,7,,,55,32
57788,note_off,,,,,188,0,1,,,,,0,,,76,59
57788,note_off,,,,,188,0,3,,,,,2,,,76,79
57788,note_off,,,,,188,0,6,,,,,5,,,55,57
57792,note_on,,,,,4,0,4,,,,,3,,,71,125
57792,note_on,,,,,4,0,2,,,,,1,,,71,93
57792,note_on,,,,,4,0,6,,,,,5,,,43,86
57792,note_on,,,,,4,0,7,,,,,6,,,31,77
57792,note_on,,,,,4,0,3,,,,,2,,,64,125
57792,note_on,,,,,4,0,1,,,,,0,,,64,93
57792,note_on,,,,,4,0,8,,,,,7,,,43,63
57884,note_off,,,,,92,0,2,,,,,1,,,71,59
57884,note_off,,,,,92,0,4,,,,,3,,,71,79
57888,note_on,,,,,4,0,2,,,,,1,,,73,93
57888,note_on,,,,,4,0,4,,,,,3,,,73,125
57980,note_off,,,,,188,0,3,,,,,2,,,64,79
57980,note_off,,,,,380,0,5,,,,,4,,,64,55
57980,note_off,,,,,188,0,8,,,,,7,,,43,32
57980,note_off,,,,,188,0,7,,,,,6,,,31,51
57980,note_off,,,,,188,0,6,,,,,5,,,43,57
57980,note_off,,,,,92,0,4,,,,,3,,,73,79
57980,note_off,,,,,92,0,2,,,,,1,,,73,59
57980,note_off,,,,,188,0,1,,,,,0,,,64,59
57984,note_on,,,,,4,0,5,,,,,4,,,69,87
57984,note_on,,,,,4,0,2,,,,,1,,,74,93
57984,note_on,,,,,4,0,8,,,,,7,,,42,63
57984,note_on,,,,,4,0,3,,,,,2,,,62,125
57984,note_on,,,,,4,0,7,,,,,6,,,30,77
57984,note_on,,,,,4,0,6,,,,,5,,,42,86
57984,note_on,,,,,4,0,4,,,,,3,,,74,125
57984,note_on,,,,,4,0,1,,,,,0,,,62,93
58076,note_off,,,,,92,0,2,,,,,1,,,74,59
58076,note_off,,,,,92,0,4,,,,,3,,,74,79
58080,note_on,,,,,4,0,4,,,,,3,,,69,125
58080,note_on,,,,,4,0,2,,,,,1,,,69,93
58172,note_off,,,,,188,0,8,,,,,7,,,42,32
58172,note_off,,,,,92,0,4,,,,,3,,,69,79
58172,note_off,,,,,188,0,1,,,,,0,,,62,59
58172,note_off,,,,,188,0,6,,,,,5,,,42,57
58172,note_off,,,,,188,0,7,,,,,6,,,30,51
58172,note_off,,,,,188,0,3,,,,,2,,,62,79
58172,note_off,,,,,92,0,2,,,,,1,,,69,59
58176,note_on,,,,,4,0,6,,,,,5,,,54,86
58176,note_on,,,,,4,0,7,,,,,6,,,42,77
58176,note_on,,,,,4,0,4,,,,,3,,,71,125
58176,note_on,,,,,4,0,2,,,,,1,,,71,93
58176,note_on,,,,,4,0,3,,,,,2,,,74,125
58176,note_on,,,,,4,0,1,,,,,0,,,74,93
58176,note_on,,,,,4,0,8,,,,,7,,,54,63
58268,note_off,,,,,92,0,4,,,,,3,,,71,79
58268,note_off,,,,,92,0,2,,,,,1,,,71,59
58272,note_on,,,,,4,0,4,,,,,3,,,69,125
58272,note_on,,,,,4,0,2,,,,,1,,,69,93
58364,note_off,,,,,92,0,4,,,,,3,,,69,79
58364,note_off,,,,,188,0,8,,,,,7,,,54,32
58364,note_off,,,,,188,0,1,,,,,0,,,74,59
58364,note_off,,,,,188,0,6,,,,,5,,,54,57
58364,note_off,,,,,380,0,5,,,,,4,,,69,55
58364,note_off,,,,,188,0,7,,,,,6,,,42,51
58364,note_off,,,,,92,0,2,,,,,1,,,69,59
58364,note_off,,,,,188,0,3,,,,,2,,,74,79
58368,note_on,,,,,4,0,1,,,,,0,,,72,93
58368,note_on,,,,,4,0,2,,,,,1,,,67,93
58368,note_on,,,,,4,0,3,,,,,2,,,72,125
58368,note_on,,,,,4,0,4,,,,,3,,,67,125
58368,note_on,,,,,4,0,6,,,,,5,,,52,86
58368,note_on,,,,,4,0,8,,,,,7,,,52,63
58368,note_on,,,,,4,0,7,,,,,6,,,40,77
58368,note_on,,,,,4,0,5,,,,,4,,,64,87
58460,note_off,,,,,92,0,4,,,,,3,,,67,79
58460,note_off,,,,,92,0,2,,,,,1,,,67,59
58464,note_on,,,,,4,0,4,,,,,3,,,69,125
58464,note_on,,,,,4,0,2,,,,,1,,,69,93
58556,note_off,,,,,92,0,2,,,,,1,,,69,59
58556,note_off,,,,,188,0,7,,,,,6,,,40,51
58556,note_off,,,,,188,0,3,,,,,2,,,72,79
58556,note_off,,,,,188,0,1,,,,,0,,,72,59
58556,note_off,,,,,188,0,6,,,,,5,,,52,57
58556,note_off,,,,,188,0,8,,,,,7,,,52,32
58556,note_off,,,,,92,0,4,,,,,3,,,69,79
58560,note_on,,,,,4,0,6,,,,,5,,,40,86
58560,note_on,,,,,4,0,7,,,,,6,,,28,77
58560,note_on,,,,,4,0,4,,,,,3,,,67,125
58560,note_on,,,,,4,0,3,,,,,2,,,60,125
58560,note_on,,,,,4,0,2,,,,,1,,,67,93
58560,note_on,,,,,4,0,8,,,,,7,,,40,63
58560,note_on,,,,,4,0,1,,,,,0,,,60,93
58652,note_off,,,,,92,0,4,,,,,3,,,67,79
58652,note_off,,,,,92,0,2,,,,,1,,,67,59
58656,note_on,,,,,4,0,4,,,,,3,,,69,125
58656,note_on,,,,,4,0,2,,,,,1,,,69,93
58748,note_off,,,,,380,0,5,,,,,4,,,64,55
58748,note_off,,,,,188,0,8,,,,,7,,,40,32
58748,note_off,,,,,188,0,3,,,,,2,,,60,79
58748,note_off,,,,,92,0,4,,,,,3,,,69,79
58748,note_off,,,,,188,0,1,,,,,0,,,60,59
58748,note_off,,,,,188,0,7,,,,,6,,,28,51
58748,note_off,,,,,188,0,6,,,,,5,,,40,57
58748,note_off,,,,,92,0,2,,,,,1,,,69,59
58752,note_on,,,,,4,0,8,,,,,7,,,38,63
58752,note_on,,,,,4,0,5,,,,,4,,,66,87
58752,note_on,,,,,4,0,6,,,,,5,,,38,86
58752,note_on,,,,,4,0,1,,,,,0,,,59,93
58752,note_on,,,,,4,0,3,,,,,2,,,59,125
58752,note_on,,,,,4,0,4,,,,,3,,,71,125
58752,note_on,,,,,4,0,7,,,,,6,,,26,77
58752,note_on,,,,,4,0,2,,,,,1,,,71,93
58844,note_off,,,,,92,0,2,,,,,1,,,71,59
58844,note_off,,,,,92,0,4,,,,,3,,,71,79
58848,note_on,,,,,4,0,2,,,,,1,,,66,93
58848,note_on,,,,,4,0,4,,,,,3,,,66,125
58940,note_off,,,,,188,0,6,,,,,5,,,38,57
58940,note_off,,,,,188,0,5,,,,,4,,,66,55
58940,note_off,,,,,188,0,3,,,,,2,,,59,79
58940,note_off,,,,,188,0,1,,,,,0,,,59,59
58940,note_off,,,,,92,0,2,,,,,1,,,66,59
58940,note_off,,,,,188,0,8,,,,,7,,,38,32
58940,note_off,,,,,92,0,4,,,,,3,,,66,79
58940,note_off,,,,,188,0,7,,,,,6,,,26,51
58944,note_on,,,,,4,0,3,,,,,2,,,71,125
58944,note_on,,,,,4,0,2,,,,,1,,,67,93
58944,note_on,,,,,4,0,7,,,,,6,,,38,77
58944,note_on,,,,,4,0,6,,,,,5,,,50,86
58944,note_on,,,,,4,0,4,,,,,3,,,67,125
58944,note_on,,,,,4,0,1,,,,,0,,,71,93
58944,note_on,,,,,4,0,8,,,,,7,,,50,63
58944,note_on,,,,,4,0,5,,,,,4,,,71,87
59036,note_off,,,,,92,0,4,,,,,3,,,67,79
59036,note_off,,,,,92,0,2,,,,,1,,,67,59
59040,note_on,,,,,4,0,4,,,,,3,,,66,125
59040,note_on,,,,,4,0,2,,,,,1,,,66,93
59132,note_off,,,,,188,0,3,,,,,2,,,71,79
59132,note_off,,,,,92,0,4,,,,,3,,,66,79
59132,note_off,,,,,188,0,5,,,,,4,,,71,55
59132,note_off,,,,,188,0,7,,,,,6,,,38,51
59132,note_off,,,,,92,0,2,,,,,1,,,66,59
59132,note_off,,,,,188,0,8,,,,,7,,,50,32
59132,note_off,,,,,188,0,6,,,,,5,,,50,57
59132,note_off,,,,,188,0,1,,,,,0,,,71,59
59136,note_on,,,,,4,0,4,,,,,3,,,64,125
59136,note_on,,,,,4,0,2,,,,,1,,,64,93
59136,note_on,,,,,4,0,5,,,,,4,,,70,87
59136,note_on,,,,,4,0,6,,,,,5,,,49,86
59136,note_on,,,,,4,0,7,,,,,6,,,37,77
59136,note_on,,,,,4,0,3,,,,,2,,,76,125
59136,note_on,,,,,4,0,8,,,,,7,,,49,63
59136,note_on,,,,,4,0,1,,,,,0,,,76,93
59228,note_off,,,,,92,0,1,,,,,0,,,76,59
59228,note_off,,,,,92,0,3,,,,,2,,,76,79
59232,note_on,,,,,4,0,1,,,,,0,,,78,93
59232,note_on,,,,,4,0,3,,,,,2,,,78,125
59324,note_off,,,,,188,0,5,,,,,4,,,70,55
59324,note_off,,,,,188,0,6,,,,,5,,,49,57
59324,note_off,,,,,92,0,1,,,,,0,,,78,59
59324,note_off,,,,,188,0,7,,,,,6,,,37,51
59324,note_off,,,,,188,0,8,,,,,7,,,49,32
59324,note_off,,,,,188,0,2,,,,,1,,,64,59
59324,note_off,,,,,92,0,3,,,,,2,,,78,79
59324,note_off,,,,,188,0,4,,,,,3,,,64,79
59328,note_on,,,,,4,0,8,,,,,7,,,61,63
59328,note_on,,,,,4,0,7,,,,,6,,,49,77
59328,note_on,,,,,4,0,5,,,,,4,,,70,87
59328,note_on,,,,,4,0,6,,,,,5,,,61,86
59328,note_on,,,,,4,0,2,,,,,1,,,64,93
59328,note_on,,,,,4,0,4,,,,,3,,,64,125
59328,note_on,,,,,4,0,3,,,,,2,,,76,125
59328,note_on,,,,,4,0,1,,,,,0,,,76,93
59420,note_off,,,,,92,0,3,,,,,2,,,76,79
59420,note_off,,,,,92,0,1,,,,,0,,,76,59
59424,note_on,,,,,4,0,3,,,,,2,,,78,125
59424,note_on,,,,,4,0,1,,,,,0,,,78,93
59516,note_off,,,,,188,0,6,,,,,5,,,61,57
59516,note_off,,,,,188,0,8,,,,,7,,,61,32
59516,note_off,,,,,92,0,3,,,,,2,,,78,79
59516,note_off,,,,,188,0,7,,,,,6,,,49,51
59516,note_off,,,,,92,0,1,,,,,0,,,78,59
59516,note_off,,,,,188,0,4,,,,,3,,,64,79
59516,note_off,,,,,188,0,2,,,,,1,,,64,59
59516,note_off,,,,,188,0,5,,,,,4,,,70,55
59520,note_on,,,,,4,0,5,,,,,4,,,71,87
59520,note_on,,,,,4,0,3,,,,,2,,,76,125
59520,note_on,,,,,4,0,7,,,,,6,,,47,77
59520,note_on,,,,,4,0,1,,,,,0,,,76,93
59520,note_on,,,,,4,0,2,,,,,1,,,67,93
59520,note_on,,,,,4,0,6,,,,,5,,,59,86
59520,note_on,,,,,4,0,8,,,,,7,,,59,63
59520,note_on,,,,,4,0,4,,,,,3,,,67,125
59612,note_off,,,,,92,0,3,,,,,2,,,76,79
59612,note_off,,,,,92,0,1,,,,,0,,,76,59
59616,note_on,,,,,4,0,3,,,,,2,,,78,125
59616,note_on,,,,,4,0,1,,,,,0,,,78,93
59708,note_off,,,,,188,0,4,,,,,3,,,67,79
59708,note_off,,,,,188,0,5,,,,,4,,,71,55
59708,note_off,,,,,92,0,3,,,,,2,,,78,79
59708,note_off,,,,,188,0,2,,,,,1,,,67,59
59708,note_off,,,,,92,0,1,,,,,0,,,78,59
59708,note_off,,,,,188,0,7,,,,,6,,,47,51
59708,note_off,,,,,188,0,6,,,,,5,,,59,57
59708,note_off,,,,,188,0,8,,,,,7,,,59,32
59712,note_on,,,,,4,0,5,,,,,4,,,64,87
59712,note_on,,,,,4,0,1,,,,,0,,,76,93
59712,note_on,,,,,4,0,7,,,,,6,,,49,77
59712,note_on,,,,,4,0,8,,,,,7,,,61,63
59712,note_on,,,,,4,0,2,,,,,1,,,67,93
59712,note_on,,,,,4,0,3,,,,,2,,,76,125
59712,note_on,,,,,4,0,4,,,,,3,,,67,125
59712,note_on,,,,,4,0,6,,,,,5,,,61,86
59804,note_off,,,,,92,0,3,,,,,2,,,76,79
59804,note_off,,,,,92,0,1,,,,,0,,,76,59
59808,note_on,,,,,4,0,3,,,,,2,,,78,125
59808,note_on,,,,,4,0,1,,,,,0,,,78,93
59900,note_off,,,,,188,0,4,,,,,3,,,67,79
59900,note_off,,,,,92,0,3,,,,,2,,,78,79
59900,note_off,,,,,188,0,7,,,,,6,,,49,51
59900,note_off,,,,,188,0,8,,,,,7,,,61,32
59900,note_off,,,,,188,0,5,,,,,4,,,64,55
59900,note_off,,,,,92,0,1,,,,,0,,,78,59
59900,note_off,,,,,188,0,6,,,,,5,,,61,57
59900,note_off,,,,,188,0,2,,,,,1,,,67,59
59904,note_on,,,,,4,0,8,,,,,7,,,58,63
59904,note_on,,,,,4,0,6,,,,,5,,,58,86
59904,note_on,,,,,4,0,1,,,,,0,,,76,93
59904,note_on,,,,,4,0,4,,,,,3,,,66,125
59904,note_on,,,,,4,0,7,,,,,6,,,46,77
59904,note_on,,,,,4,0,5,,,,,4,,,66,87
59904,note_on,,,,,4,0,2,,,,,1,,,66,93
59904,note_on,,,,,4,0,3,,,,,2,,,76,125
59996,note_off,,,,,92,0,1,,,,,0,,,76,59
59996,note_off,,,,,92,0,3,,,,,2,,,76,79
60000,note_on,,,,,4,0,3,,,,,2,,,78,125
60000,note_on,,,,,4,0,1,,,,,0,,,78,93
60092,note_off,,,,,188,0,7,,,,,6,,,46,51
60092,note_off,,,,,188,0,2,,,,,1,,,66,59
60092,note_off,,,,,92,0,3,,,,,2,,,78,79
60092,note_off,,,,,188,0,8,,,,,7,,,58,32
60092,note_off,,,,,188,0,4,,,,,3,,,66,79
60092,note_off,,,,,188,0,6,,,,,5,,,58,57
60092,note_off,,,,,188,0,5,,,,,4,,,66,55
60092,note_off,,,,,92,0,1,,,,,0,,,78,59
60096,note_on,,,,,4,0,3,,,,,2,,,76,125
60096,note_on,,,,,4,0,2,,,,,1,,,70,93
60096,note_on,,,,,4,0,1,,,,,0,,,76,93
60096,note_on,,,,,4,0,7,,,,,6,,,49,77
60096,note_on,,,,,4,0,4,,,,,3,,,70,125
60096,note_on,,,,,4,0,8,,,,,7,,,61,63
60096,note_on,,,,,4,0,5,,,,,4,,,61,87
60096,note_on,,,,,4,0,6,,,,,5,,,61,86
60188,note_off,,,,,92,0,3,,,,,2,,,76,79
60188,note_off,,,,,92,0,1,,,,,0,,,76,59
60192,note_on,,,,,4,0,3,,,,,2,,,78,125
60192,note_on,,,,,4,0,1,,,,,0,,,78,93
60284,note_off,,,,,92,0,3,,,,,2,,,78,79
60284,note_off,,,,,188,0,8,,,,,7,,,61,32
60284,note_off,,,,,188,0,4,,,,,3,,,70,79
60284,note_off,,,,,188,0,5,,,,,4,,,61,55
60284,note_off,,,,,188,0,2,,,,,1,,,70,59
60284,note_off,,,,,188,0,7,,,,,6,,,49,51
60284,note_off,,,,,188,0,6,,,,,5,,,61,57
60284,note_off,,,,,92,0,1,,,,,0,,,78,59
60288,note_on,,,,,4,0,5,,,,,4,,,59,87
60288,note_on,,,,,4,0,8,,,,,7,,,56,63
60288,note_on,,,,,4,0,6,,,,,5,,,56,86
60288,note_on,,,,,4,0,7,,,,,6,,,44,77
60288,note_on,,,,,4,0,1,,,,,0,,,76,93
60288,note_on,,,,,4,0,2,,,,,1,,,71,93
60288,note_on,,,,,4,0,4,,,,,3,,,71,125
60288,note_on,,,,,4,0,3,,,,,2,,,76,125
60380,note_off,,,,,92,0,1,,,,,0,,,76,59
60380,note_off,,,,,92,0,3,,,,,2,,,76,79
60384,note_on,,,,,4,0,3,,,,,2,,,78,125
60384,note_on,,,,,4,0,1,,,,,0,,,78,93
60476,note_off,,,,,92,0,3,,,,,2,,,78,79
60476,note_off,,,,,188,0,4,,,,,3,,,71,79
60476,note_off,,,,,188,0,7,,,,,6,,,44,51
60476,note_off,,,,,92,0,1,,,,,0,,,78,59
60476,note_off,,,,,188,0,6,,,,,5,,,56,57
60476,note_off,,,,,188,0,2,,,,,1,,,71,59
60476,note_off,,,,,188,0,5,,,,,4,,,59,55
60476,note_off,,,,,188,0,8,,,,,7,,,56,32
60480,note_on,,,,,4,0,4,,,,,3,,,73,125
60480,note_on,,,,,4,0,6,,,,,5,,,61,86
60480,note_on,,,,,4,0,7,,,,,6,,,49,77
60480,note_on,,,,,4,0,3,,,,,2,,,76,125
60480,note_on,,,,,4,0,1,,,,,0,,,76,93
60480,note_on,,,,,4,0,2,,,,,1,,,73,93
60480,note_on,,,,,4,0,5,,,,,4,,,68,87
60480,note_on,,,,,4,0,8,,,,,7,,,61,63
60572,note_off,,,,,92,0,1,,,,,0,,,76,59
60572,note_off,,,,,92,0,3,,,,,2,,,76,79
60576,note_on,,,,,4,0,3,,,,,2,,,78,125
60576,note_on,,,,,4,0,1,,,,,0,,,78,93
60668,note_off,,,,,92,0,3,,,,,2,,,78,79
60668,note_off,,,,,188,0,7,,,,,6,,,49,51
60668,note_off,,,,,92,0,1,,,,,0,,,78,59
60668,note_off,,,,,188,0,8,,,,,7,,,61,32
60668,note_off,,,,,188,0,2,,,,,1,,,73,59
60668,note_off,,,,,188,0,6,,,,,5,,,61,57
60668,note_off,,,,,188,0,4,,,,,3,,,73,79
60668,note_off,,,,,188,0,5,,,,,4,,,68,55
60672,note_on,,,,,4,0,1,,,,,0,,,76,93
60672,note_on,,,,,4,0,8,,,,,7,,,54,63
60672,note_on,,,,,4,0,7,,,,,6,,,42,77
60672,note_on,,,,,4,0,2,,,,,1,,,70,93
60672,note_on,,,,,4,0,3,,,,,2,,,76,125
60672,note_on,,,,,4,0,4,,,,,3,,,70,125
60672,note_on,,,,,4,0,6,,,,,5,,,54,86
60672,note_on,,,,,4,0,5,,,,,4,,,66,87
60764,note_off,,,,,92,0,3,,,,,2,,,76,79
60764,note_off,,,,,92,0,1,,,,,0,,,76,59
60768,note_on,,,,,4,0,1,,,,,0,,,78,93
60768,note_on,,,,,4,0,3,,,,,2,,,78,125
60860,note_off,,,,,92,0,1,,,,,0,,,78,59
60860,note_off,,,,,188,0,2,,,,,1,,,70,59
60860,note_off,,,,,188,0,4,,,,,3,,,70,79
60860,note_off,,,,,92,0,3,,,,,2,,,78,79
60860,note_off,,,,,188,0,7,,,,,6,,,42,51
60860,note_off,,,,,188,0,6,,,,,5,,,54,57
60860,note_off,,,,,188,0,5,,,,,4,,,66,55
60860,note_off,,,,,188,0,8,,,,,7,,,54,32
60864,note_on,,,,,4,0,4,,,,,3,,,76,125
60864,note_on,,,,,4,0,7,,,,,6,,,49,77
60864,note_on,,,,,4,0,1,,,,,0,,,76,93
60864,note_on,,,,,4,0,5,,,,,4,,,70,87
60864,note_on,,,,,4,0,2,,,,,1,,,76,93
60864,note_on,,,,,4,0,8,,,,,7,,,61,63
60864,note_on,,,,,4,0,3,,,,,2,,,76,125
60864,note_on,,,,,4,0,6,,,,,5,,,61,86
60956,note_off,,,,,92,0,1,,,,,0,,,76,59
60956,note_off,,,,,92,0,3,,,,,2,,,76,79
60960,note_on,,,,,4,0,1,,,,,0,,,78,93
60960,note_on,,,,,4,0,3,,,,,2,,,78,125
61052,note_off,,,,,188,0,8,,,,,7,,,61,32
61052,note_off,,,,,188,0,5,,,,,4,,,70,55
61052,note_off,,,,,92,0,3,,,,,2,,,78,79
61052,note_off,,,,,188,0,4,,,,,3,,,76,79
61052,note_off,,,,,92,0,1,,,,,0,,,78,59
61052,note_off,,,,,188,0,2,,,,,1,,,76,59
61052,note_off,,,,,188,0,6,,,,,5,,,61,57
61052,note_off,,,,,188,0,7,,,,,6,,,49,51
61056,note_on,,,,,4,0,7,,,,,6,,,46,77
61056,note_on,,,,,4,0,2,,,,,1,,,73,93
61056,note_on,,,,,4,0,1,,,,,0,,,76,93
61056,note_on,,,,,4,0,8,,,,,7,,,58,63
61056,note_on,,,,,4,0,3,,,,,2,,,76,125
61056,note_on,,,,,4,0,5,,,,,4,,,61,87
61056,note_on,,,,,4,0,4,,,,,3,,,73,125
61056,note_on,,,,,4,0,6,,,,,5,,,58,86
61148,note_off,,,,,92,0,3,,,,,2,,,76,79
61148,note_off,,,,,92,0,1,,,,,0,,,76,59
61152,note_on,,,,,4,0,1,,,,,0,,,78,93
61152,note_on,,,,,4,0,3,,,,,2,,,78,125
61244,note_off,,,,,188,0,2,,,,,1,,,73,59
61244,note_off,,,,,188,0,7,,,,,6,,,46,51
61244,note_off,,,,,92,0,3,,,,,2,,,78,79
61244,note_off,,,,,92,0,1,,,,,0,,,78,59
61244,note_off,,,,,188,0,4,,,,,3,,,73,79
61244,note_off,,,,,188,0,5,,,,,4,,,61,55
61244,note_off,,,,,188,0,8,,,,,7,,,58,32
61244,note_off,,,,,188,0,6,,,,,5,,,58,57
61248,note_on,,,,,4,0,2,,,,,1,,,70,93
61248,note_on,,,,,4,0,8,,,,,7,,,54,63
61248,note_on,,,,,4,0,5,,,,,4,,,61,87
61248,note_on,,,,,4,0,1,,,,,0,,,76,93
61248,note_on,,,,,4,0,7,,,,,6,,,42,77
61248,note_on,,,,,4,0,6,,,,,5,,,54,86
61248,note_on,,,,,4,0,4,,,,,3,,,70,125
61248,note_on,,,,,4,0,3,,,,,2,,,76,125
61340,note_off,,,,,92,0,3,,,,,2,,,76,79
61340,note_off,,,,,92,0,1,,,,,0,,,76,59
61344,note_on,,,,,4,0,3,,,,,2,,,78,125
61344,note_on,,,,,4,0,1,,,,,0,,,78,93
61436,note_off,,,,,92,0,1,,,,,0,,,78,59
61436,note_off,,,,,188,0,6,,,,,5,,,54,57
61436,note_off,,,,,188,0,5,,,,,4,,,61,55
61436,note_off,,,,,188,0,4,,,,,3,,,70,79
61436,note_off,,,,,188,0,8,,,,,7,,,54,32
61436,note_off,,,,,92,0,3,,,,,2,,,78,79
61436,note_off,,,,,188,0,7,,,,,6,,,42,51
61436,note_off,,,,,188,0,2,,,,,1,,,70,59
61440,note_on,,,,,4,0,5,,,,,4,,,62,87
61440,note_on,,,,,4,0,7,,,,,6,,,47,77
61440,note_on,,,,,4,0,1,,,,,0,,,74,93
61440,note_on,,,,,4,0,8,,,,,7,,,59,63
61440,note_on,,,,,4,0,2,,,,,1,,,66,93
61440,note_on,,,,,4,0,4,,,,,3,,,66,125
61440,note_on,,,,,4,0,6,,,,,5,,,59,86
61440,note_on,,,,,4,0,3,,,,,2,,,74,125
61628,note_off,,,,,188,0,7,,,,,6,,,47,51
61628,note_off,,,,,188,0,6,,,,,5,,,59,57
61628,note_off,,,,,188,0,5,,,,,4,,,62,55
61628,note_off,,,,,188,0,4,,,,,3,,,66,79
61628,note_off,,,,,188,0,8,,,,,7,,,59,32
61628,note_off,,,,,188,0,1,,,,,0,,,74,59
61628,note_off,,,,,188,0,3,,,,,2,,,74,79
61628,note_off,,,,,188,0,2,,,,,1,,,66,59
61632,note_on,,,,,4,0,6,,,,,5,,,50,86
61632,note_on,,,,,4,0,7,,,,,6,,,38,77
61632,note_on,,,,,4,0,4,,,,,3,,,66,125
61632,note_on,,,,,4,0,8,,,,,7,,,50,63
61632,note_on,,,,,4,0,1,,,,,0,,,83,93
61632,note_on,,,,,4,0,3,,,,,2,,,83,125
61632,note_on,,,,,4,0,5,,,,,4,,,66,87
61632,note_on,,,,,4,0,2,,,,,1,,,66,93
61820,note_off,,,,,188,0,2,,,,,1,,,66,59
61820,note_off,,,,,188,0,3,,,,,2,,,83,79
61820,note_off,,,,,188,0,7,,,,,6,,,38,51
61820,note_off,,,,,188,0,6,,,,,5,,,50,57
61820,note_off,,,,,188,0,5,,,,,4,,,66,55
61820,note_off,,,,,188,0,4,,,,,3,,,66,79
61820,note_off,,,,,188,0,8,,,,,7,,,50,32
61820,note_off,,,,,188,0,1,,,,,0,,,83,59
61824,note_on,,,,,4,0,1,,,,,0,,,73,93
61824,note_on,,,,,4,0,6,,,,,5,,,52,86
61824,note_on,,,,,4,0,4,,,,,3,,,67,125
61824,note_on,,,,,4,0,5,,,,,4,,,64,87
61824,note_on,,,,,4,0,8,,,,,7,,,52,63
61824,note_on,,,,,4,0,2,,,,,1,,,67,93
61824,note_on,,,,,4,0,3,,,,,2,,,73,125
61824,note_on,,,,,4,0,7,,,,,6,,,40,77
62012,note_off,,,,,188,0,3,,,,,2,,,73,79
62012,note_off,,,,,188,0,4,,,,,3,,,67,79
62012,note_off,,,,,188,0,2,,,,,1,,,67,59
62012,note_off,,,,,188,0,8,,,,,7,,,52,32
62012,note_off,,,,,188,0,7,,,,,6,,,40,51
62012,note_off,,,,,188,0,5,,,,,4,,,64,55
62012,note_off,,,,,188,0,1,,,,,0,,,73,59
62012,note_off,,,,,188,0,6,,,,,5,,,52,57
62016,note_on,,,,,4,0,3,,,,,2,,,82,125
62016,note_on,,,,,4,0,1,,,,,0,,,82,93
62016,note_on,,,,,4,0,6,,,,,5,,,54,86
62016,note_on,,,,,4,0,7,,,,,6,,,42,77
62016,note_on,,,,,4,0,5,,,,,4,,,61,87
62016,note_on,,,,,4,0,8,,,,,7,,,54,63
62016,note_on,,,,,4,0,2,,,,,1,,,66,93
62016,note_on,,,,,4,0,4,,,,,3,,,66,125
62108,note_off,,,,,92,0,5,,,,,4,,,61,55
62108,note_off,,,,,92,0,4,,,,,3,,,66,79
62108,note_off,,,,,92,0,2,,,,,1,,,66,59
62112,note_on,,,,,4,0,5,,,,,4,,,66,87
62112,note_on,,,,,4,0,4,,,,,3,,,64,125
62112,note_on,,,,,4,0,2,,,,,1,,,64,93
62204,note_off,,,,,188,0,6,,,,,5,,,54,57
62204,note_off,,,,,92,0,2,,,,,1,,,64,59
62204,note_off,,,,,188,0,7,,,,,6,,,42,51
62204,note_off,,,,,188,0,8,,,,,7,,,54,32
62204,note_off,,,,,92,0,5,,,,,4,,,66,55
62204,note_off,,,,,188,0,1,,,,,0,,,82,59
62204,note_off,,,,,188,0,3,,,,,2,,,82,79
62204,note_off,,,,,92,0,4,,,,,3,,,64,79
62208,note_on,,,,,4,0,7,,,,,6,,,35,77
62208,note_on,,,,,4,0,8,,,,,7,,,47,63
62208,note_on,,,,,4,0,5,,,,,4,,,66,87
62208,note_on,,,,,4,0,1,,,,,0,,,83,93
62208,note_on,,,,,4,0,2,,,,,1,,,62,93
62208,note_on,,,,,4,0,6,,,,,5,,,47,86
62208,note_on,,,,,4,0,3,,,,,2,,,83,125
62208,note_on,,,,,4,0,4,,,,,3,,,62,125
62396,note_off,,,,,188,0,1,,,,,0,,,83,59
62396,note_off,,,,,188,0,3,,,,,2,,,83,79
62396,note_off,,,,,188,0,7,,,,,6,,,35,51
62396,note_off,,,,,188,0,6,,,,,5,,,47,57
62396,note_off,,,,,188,0,5,,,,,4,,,66,55
62400,note_on,,,,,4,0,7,,,,,6,,,47,77
62400,note_on,,,,,4,0,5,,,,,4,,,59,87
62400,note_on,,,,,4,0,6,,,,,5,,,59,86
62400,note_on,,,,,4,0,1,,,,,0,,,71,93
62400,note_on,,,,,4,0,3,,,,,2,,,71,125
62588,note_off,,,,,188,0,7,,,,,6,,,47,51
62588,note_off,,,,,380,0,2,,,,,1,,,62,59
62588,note_off,,,,,188,0,6,,,,,5,,,59,57
62588,note_off,,,,,188,0,1,,,,,0,,,71,59
62588,note_off,,,,,188,0,3,,,,,2,,,71,79
62588,note_off,,,,,380,0,4,,,,,3,,,62,79
62588,note_off,,,,,188,0,5,,,,,4,,,59,55
62592,note_on,,,,,4,0,7,,,,,6,,,50,77
62592,note_on,,,,,4,0,6,,,,,5,,,62,86
62592,note_on,,,,,4,0,5,,,,,4,,,62,87
62592,note_off,,,,,384,0,8,,,,,7,,,47,32
62780,note_off,,,,,188,0,5,,,,,4,,,62,55
62780,note_off,,,,,188,0,6,,,,,5,,,62,57
62780,note_off,,,,,188,0,7,,,,,6,,,50,51
62784,note_on,,,,,4,0,7,,,,,6,,,47,38
62784,note_on,,,,,196,0,1,,,,,0,,,78,46
62784,note_on,,,,,4,0,6,,,,,5,,,59,43
62784,note_on,,,,,4,0,5,,,,,4,,,59,43
62784,note_on,,,,,196,0,3,,,,,2,,,78,62
62972,note_off,,,,,188,0,1,,,,,0,,,78,59
62972,note_off,,,,,188,0,3,,,,,2,,,78,79
62972,note_off,,,,,188,0,7,,,,,6,,,47,51
62972,note_off,,,,,188,0,6,,,,,5,,,59,57
62972,note_off,,,,,188,0,5,,,,,4,,,59,55
62976,note_on,,,,,4,0,1,,,,,0,,,86,46
62976,note_on,,,,,4,0,3,,,,,2,,,86,62
63164,note_off,,,,,188,0,1,,,,,0,,,86,59
63164,note_off,,,,,188,0,3,,,,,2,,,86,79
63168,note_on,,,,,580,0,4,,,,,3,,,68,62
63168,note_on,,,,,4,0,3,,,,,2,,,86,62
63168,note_on,,,,,4,0,1,,,,,0,,,86,46
63168,note_on,,,,,580,0,2,,,,,1,,,68,46
63356,note_off,,,,,188,0,4,,,,,3,,,68,79
63356,note_off,,,,,188,0,3,,,,,2,,,86,79
63356,note_off,,,,,188,0,1,,,,,0,,,86,59
63356,note_off,,,,,188,0,2,,,,,1,,,68,59
63360,note_on,,,,,4,0,2,,,,,1,,,71,46
63360,note_on,,,,,4,0,3,,,,,2,,,86,62
63360,note_on,,,,,4,0,1,,,,,0,,,86,46
63360,note_on,,,,,4,0,4,,,,,3,,,71,62
63548,note_off,,,,,188,0,2,,,,,1,,,71,59
63548,note_off,,,,,188,0,1,,,,,0,,,86,59
63548,note_off,,,,,188,0,4,,,,,3,,,71,79
63548,note_off,,,,,188,0,3,,,,,2,,,86,79
63552,note_on,,,,,4,0,1,,,,,0,,,86,46
63552,note_on,,,,,4,0,3,,,,,2,,,86,62
63552,note_on,,,,,4,0,2,,,,,1,,,68,46
63552,note_on,,,,,4,0,4,,,,,3,,,68,62
63740,note_off,,,,,188,0,1,,,,,0,,,86,59
63740,note_off,,,,,188,0,4,,,,,3,,,68,79
63740,note_off,,,,,188,0,3,,,,,2,,,86,79
63740,note_off,,,,,188,0,2,,,,,1,,,68,59
63744,note_on,,,,,4,0,1,,,,,0,,,76,46
63744,note_on,,,,,4,0,3,,,,,2,,,76,62
63932,note_off,,,,,188,0,1,,,,,0,,,76,59
63932,note_off,,,,,188,0,3,,,,,2,,,76,79
63936,note_on,,,,,4,0,3,,,,,2,,,86,62
63936,note_on,,,,,964,0,6,,,,,5,,,56,43
63936,note_on,,,,,4,0,1,,,,,0,,,86,46
63936,note_on,,,,,964,0,5,,,,,4,,,56,43
63936,note_on,,,,,964,0,7,,,,,6,,,44,38
64124,note_off,,,,,188,0,1,,,,,0,,,86,59
64124,note_off,,,,,188,0,3,,,,,2,,,86,79
64124,note_off,,,,,188,0,6,,,,,5,,,56,57
64124,note_off,,,,,188,0,7,,,,,6,,,44,51
64124,note_off,,,,,188,0,5,,,,,4,,,56,55
64128,note_on,,,,,4,0,6,,,,,5,,,59,43
64128,note_on,,,,,4,0,5,,,,,4,,,59,43
64128,note_on,,,,,4,0,1,,,,,0,,,86,46
64128,note_on,,,,,4,0,3,,,,,2,,,86,62
64128,note_on,,,,,4,0,7,,,,,6,,,47,38
64316,note_off,,,,,188,0,3,,,,,2,,,86,79
64316,note_off,,,,,188,0,5,,,,,4,,,59,55
64316,note_off,,,,,188,0,1,,,,,0,,,86,59
64316,note_off,,,,,188,0,7,,,,,6,,,47,51
64316,note_off,,,,,188,0,6,,,,,5,,,59,57
64320,note_on,,,,,4,0,7,,,,,6,,,44,38
64320,note_on,,,,,4,0,1,,,,,0,,,86,46
64320,note_on,,,,,4,0,3,,,,,2,,,86,62
64320,note_on,,,,,4,0,6,,,,,5,,,56,43
64320,note_on,,,,,4,0,5,,,,,4,,,56,43
64508,note_off,,,,,188,0,3,,,,,2,,,86,79
64508,note_off,,,,,188,0,7,,,,,6,,,44,51
64508,note_off,,,,,188,0,1,,,,,0,,,86,59
64508,note_off,,,,,188,0,6,,,,,5,,,56,57
64508,note_off,,,,,188,0,5,,,,,4,,,56,55
64512,note_on,,,,,4,0,1,,,,,0,,,80,46
64512,note_on,,,,,4,0,3,,,,,2,,,80,62
64700,note_off,,,,,188,0,1,,,,,0,,,80,59
64700,note_off,,,,,188,0,3,,,,,2,,,80,79
64704,note_on,,,,,4,0,3,,,,,2,,,86,62
64704,note_on,,,,,964,0,2,,,,,1,,,64,46
64704,note_on,,,,,4,0,1,,,,,0,,,86,46
64704,note_on,,,,,964,0,4,,,,,3,,,64,62
64892,note_off,,,,,188,0,4,,,,,3,,,64,79
64892,note_off,,,,,188,0,1,,,,,0,,,86,59
64892,note_off,,,,,188,0,2,,,,,1,,,64,59
64892,note_off,,,,,188,0,3,,,,,2,,,86,79
64896,note_on,,,,,4,0,2,,,,,1,,,68,46
64896,note_on,,,,,4,0,3,,,,,2,,,86,62
64896,note_on,,,,,4,0,4,,,,,3,,,68,62
64896,note_on,,,,,4,0,1,,,,,0,,,86,46
65084,note_off,,,,,188,0,3,,,,,2,,,86,79
65084,note_off,,,,,188,0,1,,,,,0,,,86,59
65084,note_off,,,,,188,0,4,,,,,3,,,68,79
65084,note_off,,,,,188,0,2,,,,,1,,,68,59
65088,note_on,,,,,4,0,3,,,,,2,,,84,62
65088,note_on,,,,,4,0,1,,,,,0,,,84,46
65088,note_on,,,,,4,0,4,,,,,3,,,64,62
65088,note_on,,,,,4,0,2,,,,,1,,,64,46
65180,note_off,,,,,92,0,3,,,,,2,,,84,79
65180,note_off,,,,,92,0,1,,,,,0,,,84,59
65184,note_on,,,,,4,0,1,,,,,0,,,83,46
65184,note_on,,,,,4,0,3,,,,,2,,,83,62
65276,note_off,,,,,188,0,2,,,,,1,,,64,59
65276,note_off,,,,,188,0,4,,,,,3,,,64,79
65276,note_off,,,,,92,0,1,,,,,0,,,83,59
65276,note_off,,,,,92,0,3,,,,,2,,,83,79
65280,note_on,,,,,4,0,1,,,,,0,,,84,46
65280,note_on,,,,,4,0,3,,,,,2,,,84,62
65372,note_off,,,,,92,0,3,,,,,2,,,84,79
65372,note_off,,,,,92,0,1,,,,,0,,,84,59
65376,note_on,,,,,4,0,3,,,,,2,,,83,62
65376,note_on,,,,,4,0,1,,,,,0,,,83,46
65468,note_off,,,,,92,0,1,,,,,0,,,83,59
65468,note_off,,,,,92,0,3,,,,,2,,,83,79
65472,note_on,,,,,4,0,1,,,,,0,,,81,46
65472,note_on,,,,,4,0,3,,,,,2,,,81,62
65472,note_on,,,,,964,0,5,,,,,4,,,60,43
65472,note_on,,,,,964,0,6,,,,,5,,,60,43
65472,note_on,,,,,964,0,7,,,,,6,,,48,38
65660,note_off,,,,,188,0,6,,,,,5,,,60,57
65660,note_off,,,,,188,0,7,,,,,6,,,48,51
65660,note_off,,,,,188,0,5,,,,,4,,,60,55
65664,note_off,,,,,192,0,1,,,,,0,,,81,59
65664,note_on,,,,,4,0,7,,,,,6,,,52,38
65664,note_on,,,,,4,0,5,,,,,4,,,64,43
65664,note_off,,,,,192,0,3,,,,,2,,,81,79
65664,note_on,,,,,4,0,6,,,,,5,,,64,43
65852,note_off,,,,,188,0,5,,,,,4,,,64,55
65852,note_off,,,,,188,0,7,,,,,6,,,52,51
65852,note_off,,,,,188,0,6,,,,,5,,,64,57
65856,note_on,,,,,4,0,5,,,,,4,,,60,43
65856,note_on,,,,,580,0,4,,,,,3,,,76,62
65856,note_on,,,,,4,0,7,,,,,6,,,48,38
65856,note_on,,,,,580,0,2,,,,,1,,,76,46
65856,note_on,,,,,4,0,6,,,,,5,,,60,43
66044,note_off,,,,,188,0,6,,,,,5,,,60,57
66044,note_off,,,,,188,0,7,,,,,6,,,48,51
66044,note_off,,,,,188,0,5,,,,,4,,,60,55
66044,note_off,,,,,188,0,4,,,,,3,,,76,79
66044,note_off,,,,,188,0,2,,,,,1,,,76,59
66048,note_on,,,,,4,0,4,,,,,3,,,84,62
66048,note_on,,,,,4,0,2,,,,,1,,,84,46
66236,note_off,,,,,188,0,2,,,,,1,,,84,59
66236,note_off,,,,,188,0,4,,,,,3,,,84,79
66240,note_on,,,,,576,0,3,,,,,2,,,69,62
66240,note_on,,,,,4,0,4,,,,,3,,,84,62
66240,note_on,,,,,576,0,1,,,,,0,,,69,46
66240,note_on,,,,,4,0,2,,,,,1,,,84,46
66428,note_off,,,,,188,0,3,,,,,2,,,69,79
66428,note_off,,,,,188,0,2,,,,,1,,,84,59
66428,note_off,,,,,188,0,1,,,,,0,,,69,59
66428,note_off,,,,,188,0,4,,,,,3,,,84,79
66432,note_on,,,,,4,0,3,,,,,2,,,72,62
66432,note_on,,,,,4,0,2,,,,,1,,,84,46
66432,note_on,,,,,4,0,1,,,,,0,,,72,46
66432,note_on,,,,,4,0,4,,,,,3,,,84,62
66620,note_off,,,,,188,0,1,,,,,0,,,72,59
66620,note_off,,,,,188,0,3,,,,,2,,,72,79
66620,note_off,,,,,188,0,2,,,,,1,,,84,59
66620,note_off,,,,,188,0,4,,,,,3,,,84,79
66624,note_on,,,,,4,0,3,,,,,2,,,69,62
66624,note_on,,,,,4,0,2,,,,,1,,,84,46
66624,note_on,,,,,4,0,4,,,,,3,,,84,62
66624,note_on,,,,,4,0,1,,,,,0,,,69,46
66812,note_off,,,,,188,0,3,,,,,2,,,69,79
66812,note_off,,,,,188,0,1,,,,,0,,,69,59
66812,note_off,,,,,188,0,2,,,,,1,,,84,59
66812,note_off,,,,,188,0,4,,,,,3,,,84,79
66816,note_on,,,,,4,0,2,,,,,1,,,74,46
66816,note_on,,,,,4,0,4,,,,,3,,,74,62
67004,note_off,,,,,188,0,4,,,,,3,,,74,79
67004,note_off,,,,,188,0,2,,,,,1,,,74,59
67008,note_on,,,,,964,0,6,,,,,5,,,54,43
67008,note_on,,,,,4,0,2,,,,,1,,,84,46
67008,note_on,,,,,964,0,5,,,,,4,,,54,43
67008,note_on,,,,,4,0,4,,,,,3,,,84,62
67008,note_on,,,,,964,0,7,,,,,6,,,42,38
67196,note_off,,,,,188,0,7,,,,,6,,,42,51
67196,note_off,,,,,188,0,2,,,,,1,,,84,59
67196,note_off,,,,,188,0,5,,,,,4,,,54,55
67196,note_off,,,,,188,0,4,,,,,3,,,84,79
67196,note_off,,,,,188,0,6,,,,,5,,,54,57
67200,note_on,,,,,4,0,5,,,,,4,,,57,43
67200,note_on,,,,,4,0,6,,,,,5,,,57,43
67200,note_on,,,,,4,0,2,,,,,1,,,84,46
67200,note_on,,,,,4,0,7,,,,,6,,,45,38
67200,note_on,,,,,4,0,4,,,,,3,,,84,62
67388,note_off,,,,,188,0,7,,,,,6,,,45,51
67388,note_off,,,,,188,0,2,,,,,1,,,84,59
67388,note_off,,,,,188,0,4,,,,,3,,,84,79
67388,note_off,,,,,188,0,5,,,,,4,,,57,55
67388,note_off,,,,,188,0,6,,,,,5,,,57,57
67392,note_on,,,,,4,0,2,,,,,1,,,84,46
67392,note_on,,,,,4,0,5,,,,,4,,,54,43
67392,note_on,,,,,4,0,7,,,,,6,,,42,38
67392,note_on,,,,,4,0,6,,,,,5,,,54,43
67392,note_on,,,,,4,0,4,,,,,3,,,84,62
67580,note_off,,,,,188,0,5,,,,,4,,,54,55
67580,note_off,,,,,188,0,7,,,,,6,,,42,51
67580,note_off,,,,,188,0,4,,,,,3,,,84,79
67580,note_off,,,,,188,0,2,,,,,1,,,84,59
67580,note_off,,,,,188,0,6,,,,,5,,,54,57
67584,note_on,,,,,4,0,2,,,,,1,,,78,46
67584,note_on,,,,,4,0,4,,,,,3,,,78,62
67772,note_off,,,,,188,0,4,,,,,3,,,78,79
67772,note_off,,,,,188,0,2,,,,,1,,,78,59
67776,note_on,,,,,4,0,4,,,,,3,,,84,62
67776,note_on,,,,,4,0,2,,,,,1,,,84,46
67776,note_on,,,,,964,0,3,,,,,2,,,74,62
67776,note_on,,,,,964,0,1,,,,,0,,,74,46
67964,note_off,,,,,188,0,2,,,,,1,,,84,59
67964,note_off,,,,,188,0,3,,,,,2,,,74,79
67964,note_off,,,,,188,0,4,,,,,3,,,84,79
67964,note_off,,,,,188,0,1,,,,,0,,,74,59
67968,note_on,,,,,4,0,1,,,,,0,,,78,46
67968,note_on,,,,,4,0,2,,,,,1,,,84,46
67968,note_on,,,,,4,0,4,,,,,3,,,84,62
67968,note_on,,,,,4,0,3,,,,,2,,,78,62
68156,note_off,,,,,188,0,2,,,,,1,,,84,59
68156,note_off,,,,,188,0,3,,,,,2,,,78,79
68156,note_off,,,,,188,0,1,,,,,0,,,78,59
68156,note_off,,,,,188,0,4,,,,,3,,,84,79
68160,note_on,,,,,4,0,3,,,,,2,,,74,62
68160,note_on,,,,,4,0,4,,,,,3,,,83,62
68160,note_on,,,,,4,0,1,,,,,0,,,74,46
68160,note_on,,,,,4,0,2,,,,,1,,,83,46
68252,note_off,,,,,92,0,4,,,,,3,,,83,79
68252,note_off,,,,,92,0,2,,,,,1,,,83,59
68256,note_on,,,,,4,0,2,,,,,1,,,81,46
68256,note_on,,,,,4,0,4,,,,,3,,,81,62
68348,note_off,,,,,92,0,2,,,,,1,,,81,59
68348,note_off,,,,,188,0,3,,,,,2,,,74,79
68348,note_off,,,,,92,0,4,,,,,3,,,81,79
68348,note_off,,,,,188,0,1,,,,,0,,,74,59
68352,note_on,,,,,4,0,2,,,,,1,,,83,46
68352,note_on,,,,,4,0,4,,,,,3,,,83,62
68444,note_off,,,,,92,0,2,,,,,1,,,83,59
68444,note_off,,,,,92,0,4,,,,,3,,,83,79
68448,note_on,,,,,4,0,4,,,,,3,,,81,62
68448,note_on,,,,,4,0,2,,,,,1,,,81,46
68540,note_off,,,,,92,0,2,,,,,1,,,81,59
68540,note_off,,,,,92,0,4,,,,,3,,,81,79
68544,note_on,,,,,4,0,2,,,,,1,,,79,46
68544,note_on,,,,,964,0,7,,,,,6,,,43,38
68544,note_on,,,,,196,0,3,,,,,2,,,71,62
68544,note_on,,,,,964,0,5,,,,,4,,,55,43
68544,note_on,,,,,4,0,4,,,,,3,,,79,62
68544,note_on,,,,,964,0,6,,,,,5,,,55,43
68636,note_off,,,,,92,0,2,,,,,1,,,79,59
68732,note_off,,,,,188,0,6,,,,,5,,,55,57
68732,note_off,,,,,188,0,3,,,,,2,,,71,79
68732,note_off,,,,,188,0,5,,,,,4,,,55,55
68732,note_off,,,,,188,0,7,,,,,6,,,43,51
68736,note_on,,,,,4,0,3,,,,,2,,,74,62
68736,note_on,,,,,4,0,5,,,,,4,,,59,43
68736,note_on,,,,,0,0,4,,,,,3,,,67,62
68736,note_on,,,,,4,0,6,,,,,5,,,59,43
68736,note_on,,,,,4,0,7,,,,,6,,,47,38
68736,note_off,,,,,192,0,4,,,,,3,,,79,79
68924,note_off,,,,,188,0,7,,,,,6,,,47,51
68924,note_off,,,,,188,0,6,,,,,5,,,59,57
68924,note_off,,,,,188,0,3,,,,,2,,,74,79
68924,note_off,,,,,188,0,5,,,,,4,,,59,55
68928,note_on,,,,,4,0,6,,,,,5,,,55,43
68928,note_on,,,,,4,0,7,,,,,6,,,43,38
68928,note_on,,,,,4,0,3,,,,,2,,,71,62
68928,note_on,,,,,580,0,1,,,,,0,,,74,74
68928,note_on,,,,,292,0,2,,,,,1,,,71,46
68928,note_on,,,,,4,0,5,,,,,4,,,55,43
69116,note_off,,,,,188,0,7,,,,,6,,,43,51
69116,note_off,,,,,188,0,6,,,,,5,,,55,57
69116,note_off,,,,,188,0,5,,,,,4,,,55,55
69116,note_off,,,,,188,0,2,,,,,1,,,71,59
69116,note_off,,,,,188,0,1,,,,,0,,,74,59
69116,note_off,,,,,188,0,3,,,,,2,,,71,79
69120,note_on,,,,,4,0,2,,,,,1,,,64,59
69120,note_off,,,,,384,0,4,,,,,3,,,67,79
69120,note_on,,,,,4,0,1,,,,,0,,,76,74
69120,note_on,,,,,4,0,7,,,,,6,,,48,61
69120,note_on,,,,,4,0,6,,,,,5,,,60,68
69212,note_off,,,,,92,0,1,,,,,0,,,76,59
69216,note_on,,,,,4,0,1,,,,,0,,,72,74
69308,note_off,,,,,188,0,7,,,,,6,,,48,51
69308,note_off,,,,,188,0,2,,,,,1,,,64,59
69308,note_off,,,,,92,0,1,,,,,0,,,72,59
69308,note_off,,,,,188,0,6,,,,,5,,,60,57
69312,note_on,,,,,4,0,7,,,,,6,,,48,61
69312,note_on,,,,,4,0,1,,,,,0,,,71,74
69312,note_on,,,,,4,0,2,,,,,1,,,76,59
69312,note_on,,,,,4,0,6,,,,,5,,,60,68
69404,note_off,,,,,92,0,1,,,,,0,,,71,59
69408,note_on,,,,,4,0,1,,,,,0,,,69,74
69500,note_off,,,,,92,0,1,,,,,0,,,69,59
69500,note_off,,,,,188,0,6,,,,,5,,,60,57
69500,note_off,,,,,188,0,2,,,,,1,,,76,59
69500,note_off,,,,,188,0,7,,,,,6,,,48,51
69504,note_on,,,,,4,0,7,,,,,6,,,45,61
69504,note_on,,,,,4,0,6,,,,,5,,,57,68
69504,note_on,,,,,4,0,1,,,,,0,,,81,74
69504,note_on,,,,,4,0,2,,,,,1,,,72,59
69596,note_off,,,,,92,0,1,,,,,0,,,81,59
69600,note_on,,,,,4,0,1,,,,,0,,,76,74
69692,note_off,,,,,92,0,1,,,,,0,,,76,59
69692,note_off,,,,,188,0,2,,,,,1,,,72,59
69692,note_off,,,,,188,0,6,,,,,5,,,57,57
69692,note_off,,,,,188,0,7,,,,,6,,,45,51
69696,note_on,,,,,4,0,7,,,,,6,,,45,61
69696,note_on,,,,,4,0,6,,,,,5,,,57,68
69696,note_on,,,,,4,0,2,,,,,1,,,69,59
69696,note_on,,,,,4,0,1,,,,,0,,,74,74
69788,note_off,,,,,92,0,1,,,,,0,,,74,59
69792,note_on,,,,,4,0,1,,,,,0,,,72,74
69884,note_off,,,,,188,0,2,,,,,1,,,69,59
69884,note_off,,,,,92,0,1,,,,,0,,,72,59
69884,note_off,,,,,188,0,6,,,,,5,,,57,57
69884,note_off,,,,,188,0,7,,,,,6,,,45,51
69888,note_on,,,,,4,0,7,,,,,6,,,47,61
69888,note_on,,,,,4,0,1,,,,,0,,,74,74
69888,note_on,,,,,4,0,6,,,,,5,,,59,68
69980,note_off,,,,,92,0,1,,,,,0,,,74,59
69984,note_on,,,,,4,0,1,,,,,0,,,71,74
70076,note_off,,,,,188,0,6,,,,,5,,,59,57
70076,note_off,,,,,92,0,1,,,,,0,,,71,59
70076,note_off,,,,,188,0,7,,,,,6,,,47,51
70080,note_on,,,,,196,0,2,,,,,1,,,74,59
70080,note_on,,,,,4,0,7,,,,,6,,,47,61
70080,note_on,,,,,4,0,6,,,,,5,,,59,68
70080,note_on,,,,,4,0,1,,,,,0,,,69,74
70172,note_off,,,,,92,0,1,,,,,0,,,69,59
70176,note_on,,,,,4,0,1,,,,,0,,,67,74
70268,note_off,,,,,188,0,7,,,,,6,,,47,51
70268,note_off,,,,,188,0,6,,,,,5,,,59,57
70268,note_off,,,,,188,0,2,,,,,1,,,74,59
70268,note_off,,,,,92,0,1,,,,,0,,,67,59
70272,note_on,,,,,4,0,6,,,,,5,,,55,68
70272,note_on,,,,,4,0,2,,,,,1,,,71,59
70272,note_on,,,,,4,0,7,,,,,6,,,43,61
70272,note_on,,,,,4,0,1,,,,,0,,,79,74
70364,note_off,,,,,92,0,1,,,,,0,,,79,59
70368,note_on,,,,,4,0,1,,,,,0,,,74,74
70460,note_off,,,,,188,0,2,,,,,1,,,71,59
70460,note_off,,,,,188,0,6,,,,,5,,,55,57
70460,note_off,,,,,92,0,1,,,,,0,,,74,59
70460,note_off,,,,,188,0,7,,,,,6,,,43,51
70464,note_on,,,,,4,0,2,,,,,1,,,67,59
70464,note_on,,,,,4,0,7,,,,,6,,,43,61
70464,note_on,,,,,4,0,6,,,,,5,,,55,68
70464,note_on,,,,,4,0,1,,,,,0,,,72,74
70556,note_off,,,,,92,0,1,,,,,0,,,72,59
70560,note_on,,,,,4,0,1,,,,,0,,,71,74
70652,note_off,,,,,188,0,2,,,,,1,,,67,59
70652,note_off,,,,,188,0,6,,,,,5,,,55,57
70652,note_off,,,,,92,0,1,,,,,0,,,71,59
70652,note_off,,,,,188,0,7,,,,,6,,,43,51
70656,note_on,,,,,4,0,6,,,,,5,,,60,68
70656,note_on,,,,,4,0,7,,,,,6,,,48,61
70656,note_on,,,,,4,0,1,,,,,0,,,76,74
70748,note_off,,,,,92,0,1,,,,,0,,,76,59
70752,note_on,,,,,4,0,1,,,,,0,,,72,74
70844,note_off,,,,,188,0,7,,,,,6,,,48,51
70844,note_off,,,,,92,0,1,,,,,0,,,72,59
70844,note_off,,,,,188,0,6,,,,,5,,,60,57
70848,note_on,,,,,4,0,1,,,,,0,,,71,74
70848,note_on,,,,,196,0,2,,,,,1,,,76,59
70848,note_on,,,,,4,0,6,,,,,5,,,60,68
70848,note_on,,,,,4,0,7,,,,,6,,,48,61
70940,note_off,,,,,92,0,1,,,,,0,,,71,59
70944,note_on,,,,,4,0,1,,,,,0,,,69,74
71036,note_off,,,,,188,0,6,,,,,5,,,60,57
71036,note_off,,,,,188,0,7,,,,,6,,,48,51
71036,note_off,,,,,92,0,1,,,,,0,,,69,59
71036,note_off,,,,,188,0,2,,,,,1,,,76,59
71040,note_on,,,,,4,0,2,,,,,1,,,72,59
71040,note_on,,,,,4,0,6,,,,,5,,,57,68
71040,note_on,,,,,4,0,1,,,,,0,,,81,74
71040,note_on,,,,,4,0,7,,,,,6,,,45,61
71132,note_off,,,,,92,0,1,,,,,0,,,81,59
71136,note_on,,,,,4,0,1,,,,,0,,,76,74
71228,note_off,,,,,188,0,2,,,,,1,,,72,59
71228,note_off,,,,,92,0,1,,,,,0,,,76,59
71228,note_off,,,,,188,0,6,,,,,5,,,57,57
71228,note_off,,,,,188,0,7,,,,,6,,,45,51
71232,note_on,,,,,4,0,6,,,,,5,,,57,68
71232,note_on,,,,,4,0,7,,,,,6,,,45,61
71232,note_on,,,,,4,0,2,,,,,1,,,69,59
71232,note_on,,,,,4,0,1,,,,,0,,,74,74
71324,note_off,,,,,92,0,1,,,,,0,,,74,59
71328,note_on,,,,,4,0,1,,,,,0,,,72,74
71420,note_off,,,,,188,0,7,,,,,6,,,45,51
71420,note_off,,,,,188,0,6,,,,,5,,,57,57
71420,note_off,,,,,92,0,1,,,,,0,,,72,59
71420,note_off,,,,,188,0,2,,,,,1,,,69,59
71424,note_on,,,,,4,0,7,,,,,6,,,47,61
71424,note_on,,,,,4,0,6,,,,,5,,,59,68
71424,note_on,,,,,4,0,1,,,,,0,,,74,74
71516,note_off,,,,,92,0,1,,,,,0,,,74,59
71520,note_on,,,,,4,0,1,,,,,0,,,71,74
71612,note_off,,,,,92,0,1,,,,,0,,,71,59
71612,note_off,,,,,188,0,6,,,,,5,,,59,57
71612,note_off,,,,,188,0,7,,,,,6,,,47,51
71616,note_on,,,,,4,0,1,,,,,0,,,69,74
71616,note_on,,,,,4,0,6,,,,,5,,,59,68
71616,note_on,,,,,4,0,7,,,,,6,,,47,61
71616,note_on,,,,,196,0,2,,,,,1,,,74,59
71708,note_off,,,,,92,0,1,,,,,0,,,69,59
71712,note_on,,,,,4,0,1,,,,,0,,,67,74
71804,note_off,,,,,188,0,2,,,,,1,,,74,59
71804,note_off,,,,,188,0,7,,,,,6,,,47,51
71804,note_off,,,,,92,0,1,,,,,0,,,67,59
71804,note_off,,,,,188,0,6,,,,,5,,,59,57
71808,note_on,,,,,4,0,2,,,,,1,,,71,59
71808,note_on,,,,,4,0,7,,,,,6,,,43,61
71808,note_on,,,,,4,0,6,,,,,5,,,55,68
71808,note_on,,,,,4,0,1,,,,,0,,,79,74
71900,note_off,,,,,92,0,1,,,,,0,,,79,59
71904,note_on,,,,,4,0,1,,,,,0,,,74,74
71996,note_off,,,,,188,0,2,,,,,1,,,71,59
71996,note_off,,,,,92,0,1,,,,,0,,,74,59
71996,note_off,,,,,188,0,7,,,,,6,,,43,51
71996,note_off,,,,,188,0,6,,,,,5,,,55,57
72000,note_on,,,,,4,0,6,,,,,5,,,55,68
72000,note_on,,,,,4,0,2,,,,,1,,,67,59
72000,note_on,,,,,4,0,1,,,,,0,,,72,74
72000,note_on,,,,,4,0,7,,,,,6,,,43,61
72092,note_off,,,,,92,0,1,,,,,0,,,72,59
72096,note_on,,,,,4,0,1,,,,,0,,,71,74
72188,note_off,,,,,188,0,2,,,,,1,,,67,59
72188,note_off,,,,,92,0,1,,,,,0,,,71,59
72188,note_off,,,,,188,0,7,,,,,6,,,43,51
72188,note_off,,,,,188,0,6,,,,,5,,,55,57
72192,note_on,,,,,4,0,1,,,,,0,,,76,74
72192,note_on,,,,,4,0,6,,,,,5,,,60,68
72192,note_on,,,,,4,0,2,,,,,1,,,67,59
72192,note_on,,,,,4,0,7,,,,,6,,,48,61
72284,note_off,,,,,92,0,1,,,,,0,,,76,59
72288,note_on,,,,,4,0,1,,,,,0,,,79,74
72380,note_off,,,,,188,0,7,,,,,6,,,48,51
72380,note_off,,,,,188,0,6,,,,,5,,,60,57
72380,note_off,,,,,92,0,1,,,,,0,,,79,59
72380,note_off,,,,,188,0,2,,,,,1,,,67,59
72384,note_on,,,,,4,0,7,,,,,6,,,48,61
72384,note_on,,,,,4,0,6,,,,,5,,,60,68
72384,note_on,,,,,4,0,2,,,,,1,,,76,59
72384,note_on,,,,,4,0,1,,,,,0,,,78,74
72476,note_off,,,,,92,0,1,,,,,0,,,78,59
72480,note_on,,,,,4,0,1,,,,,0,,,79,74
72572,note_off,,,,,188,0,7,,,,,6,,,48,51
72572,note_off,,,,,188,0,6,,,,,5,,,60,57
72572,note_off,,,,,92,0,1,,,,,0,,,79,59
72572,note_off,,,,,188,0,2,,,,,1,,,76,59
72576,note_on,,,,,4,0,6,,,,,5,,,57,68
72576,note_on,,,,,4,0,1,,,,,0,,,81,74
72576,note_on,,,,,4,0,7,,,,,6,,,45,61
72576,note_on,,,,,4,0,2,,,,,1,,,72,59
72668,note_off,,,,,92,0,1,,,,,0,,,81,59
72672,note_on,,,,,4,0,1,,,,,0,,,76,74
72764,note_off,,,,,188,0,2,,,,,1,,,72,59
72764,note_off,,,,,188,0,7,,,,,6,,,45,51
72764,note_off,,,,,92,0,1,,,,,0,,,76,59
72764,note_off,,,,,188,0,6,,,,,5,,,57,57
72768,note_on,,,,,4,0,6,,,,,5,,,57,68
72768,note_on,,,,,4,0,2,,,,,1,,,69,59
72768,note_on,,,,,4,0,7,,,,,6,,,45,61
72768,note_on,,,,,4,0,1,,,,,0,,,78,74
72860,note_off,,,,,92,0,1,,,,,0,,,78,59
72864,note_on,,,,,4,0,1,,,,,0,,,79,74
72956,note_off,,,,,188,0,6,,,,,5,,,57,57
72956,note_off,,,,,188,0,2,,,,,1,,,69,59
72956,note_off,,,,,92,0,1,,,,,0,,,79,59
72956,note_off,,,,,188,0,7,,,,,6,,,45,51
72960,note_on,,,,,4,0,6,,,,,5,,,62,68
72960,note_on,,,,,4,0,1,,,,,0,,,78,74
72960,note_on,,,,,4,0,2,,,,,1,,,69,59
72960,note_on,,,,,4,0,7,,,,,6,,,50,61
73052,note_off,,,,,92,0,1,,,,,0,,,78,59
73056,note_on,,,,,4,0,1,,,,,0,,,81,74
73148,note_off,,,,,188,0,2,,,,,1,,,69,59
73148,note_off,,,,,92,0,1,,,,,0,,,81,59
73148,note_off,,,,,188,0,7,,,,,6,,,50,51
73148,note_off,,,,,188,0,6,,,,,5,,,62,57
73152,note_on,,,,,4,0,2,,,,,1,,,78,59
73152,note_on,,,,,4,0,7,,,,,6,,,50,61
73152,note_on,,,,,4,0,6,,,,,5,,,62,68
73152,note_on,,,,,4,0,1,,,,,0,,,79,74
73244,note_off,,,,,92,0,1,,,,,0,,,79,59
73248,note_on,,,,,4,0,1,,,,,0,,,81,74
73340,note_off,,,,,188,0,2,,,,,1,,,78,59
73340,note_off,,,,,92,0,1,,,,,0,,,81,59
73340,note_off,,,,,188,0,6,,,,,5,,,62,57
73340,note_off,,,,,188,0,7,,,,,6,,,50,51
73344,note_on,,,,,4,0,2,,,,,1,,,74,59
73344,note_on,,,,,4,0,1,,,,,0,,,83,74
73344,note_on,,,,,4,0,6,,,,,5,,,59,68
73344,note_on,,,,,4,0,7,,,,,6,,,47,61
73436,note_off,,,,,92,0,1,,,,,0,,,83,59
73440,note_on,,,,,4,0,1,,,,,0,,,78,74
73532,note_off,,,,,92,0,1,,,,,0,,,78,59
73532,note_off,,,,,188,0,6,,,,,5,,,59,57
73532,note_off,,,,,188,0,7,,,,,6,,,47,51
73532,note_off,,,,,188,0,2,,,,,1,,,74,59
73536,note_on,,,,,4,0,1,,,,,0,,,79,74
73536,note_on,,,,,4,0,2,,,,,1,,,71,59
73536,note_on,,,,,4,0,6,,,,,5,,,59,68
73536,note_on,,,,,4,0,7,,,,,6,,,47,61
73628,note_off,,,,,92,0,1,,,,,0,,,79,59
73632,note_on,,,,,4,0,1,,,,,0,,,81,74
73724,note_off,,,,,188,0,7,,,,,6,,,47,51
73724,note_off,,,,,188,0,6,,,,,5,,,59,57
73724,note_off,,,,,188,0,2,,,,,1,,,71,59
73724,note_off,,,,,92,0,1,,,,,0,,,81,59
73728,note_on,,,,,4,0,7,,,,,6,,,52,38
73728,note_on,,,,,4,0,2,,,,,1,,,71,46
73728,note_on,,,,,4,0,1,,,,,0,,,79,74
73728,note_on,,,,,4608,0,4,,,,,3,,,71,62
73728,note_on,,,,,4,0,6,,,,,5,,,64,43
73820,note_off,,,,,92,0,1,,,,,0,,,79,59
73824,note_on,,,,,4,0,1,,,,,0,,,83,75
73916,note_off,,,,,188,0,4,,,,,3,,,71,79
73916,note_off,,,,,188,0,6,,,,,5,,,64,57
73916,note_off,,,,,188,0,7,,,,,6,,,52,51
73916,note_off,,,,,92,0,1,,,,,0,,,83,59
73916,note_off,,,,,188,0,2,,,,,1,,,71,59
73920,note_on,,,,,4,0,1,,,,,0,,,81,76
73920,note_on,,,,,4,0,2,,,,,1,,,79,52
73920,note_on,,,,,4,0,4,,,,,3,,,79,70
73920,note_on,,,,,4,0,7,,,,,6,,,52,42
73920,note_on,,,,,4,0,6,,,,,5,,,64,47
74012,note_off,,,,,92,0,1,,,,,0,,,81,59
74016,note_on,,,,,4,0,1,,,,,0,,,83,77
74108,note_off,,,,,92,0,1,,,,,0,,,83,59
74108,note_off,,,,,188,0,4,,,,,3,,,79,79
74108,note_off,,,,,188,0,7,,,,,6,,,52,51
74108,note_off,,,,,188,0,2,,,,,1,,,79,59
74108,note_off,,,,,188,0,6,,,,,5,,,64,57
74112,note_on,,,,,4,0,1,,,,,0,,,76,79
74112,note_on,,,,,4,0,2,,,,,1,,,72,57
74112,note_on,,,,,4,0,7,,,,,6,,,48,47
74112,note_on,,,,,4,0,6,,,,,5,,,60,53
74112,note_on,,,,,4,0,4,,,,,3,,,72,77
74204,note_off,,,,,92,0,1,,,,,0,,,76,59
74208,note_on,,,,,4,0,1,,,,,0,,,81,79
74300,note_off,,,,,188,0,2,,,,,1,,,72,59
74300,note_off,,,,,92,0,1,,,,,0,,,81,59
74300,note_off,,,,,188,0,4,,,,,3,,,72,79
74300,note_off,,,,,188,0,7,,,,,6,,,48,51
74300,note_off,,,,,188,0,6,,,,,5,,,60,57
74304,note_on,,,,,4,0,6,,,,,5,,,60,58
74304,note_on,,,,,4,0,1,,,,,0,,,79,80
74304,note_on,,,,,4,0,7,,,,,6,,,48,52
74304,note_on,,,,,4,0,4,,,,,3,,,76,85
74304,note_on,,,,,4,0,2,,,,,1,,,76,63
74396,note_off,,,,,92,0,1,,,,,0,,,79,59
74400,note_on,,,,,4,0,1,,,,,0,,,81,81
74492,note_off,,,,,188,0,6,,,,,5,,,60,57
74492,note_off,,,,,188,0,2,,,,,1,,,76,59
74492,note_off,,,,,188,0,4,,,,,3,,,76,79
74492,note_off,,,,,92,0,1,,,,,0,,,81,59
74492,note_off,,,,,188,0,7,,,,,6,,,48,51
74496,note_on,,,,,4,0,7,,,,,6,,,50,57
74496,note_on,,,,,4,0,2,,,,,1,,,69,69
74496,note_on,,,,,4,0,6,,,,,5,,,62,64
74496,note_on,,,,,4,0,1,,,,,0,,,78,83
74496,note_on,,,,,4,0,4,,,,,3,,,69,93
74588,note_off,,,,,92,0,1,,,,,0,,,78,59
74592,note_on,,,,,4,0,1,,,,,0,,,74,84
74684,note_off,,,,,92,0,1,,,,,0,,,74,59
74688,note_on,,,,,4,0,1,,,,,0,,,78,85
74780,note_off,,,,,92,0,1,,,,,0,,,78,59
74784,note_on,,,,,4,0,1,,,,,0,,,81,86
74876,note_off,,,,,92,0,1,,,,,0,,,81,59
74880,note_off,,,,,384,0,2,,,,,1,,,69,59
74880,note_off,,,,,384,0,4,,,,,3,,,69,79
74880,note_off,,,,,384,0,6,,,,,5,,,62,57
74880,note_on,,,,,4,0,1,,,,,0,,,74,88
74880,note_off,,,,,384,0,7,,,,,6,,,50,51
74972,note_off,,,,,92,0,1,,,,,0,,,74,59
74976,note_on,,,,,4,0,1,,,,,0,,,83,89
74976,note_on,,,,,5860,0,3,,,,,2,,,83,112
75068,note_off,,,,,92,0,3,,,,,2,,,83,79
75068,note_off,,,,,92,0,1,,,,,0,,,83,59
75072,note_on,,,,,4,0,1,,,,,0,,,81,90
75072,note_on,,,,,192,0,4,,,,,3,,,78,116
75072,note_on,,,,,4,0,3,,,,,2,,,81,116
75072,note_on,,,,,12480,0,8,,,,,7,,,50,63
75072,note_on,,,,,192,0,7,,,,,6,,,38,71
75072,note_on,,,,,5956,0,5,,,,,4,,,71,80
75072,note_on,,,,,192,0,2,,,,,1,,,78,86
75072,note_on,,,,,192,0,6,,,,,5,,,50,80
75164,note_off,,,,,92,0,1,,,,,0,,,81,59
75164,note_off,,,,,92,0,3,,,,,2,,,81,79
75168,note_on,,,,,4,0,1,,,,,0,,,83,91
75168,note_on,,,,,4,0,3,,,,,2,,,83,119
75260,note_off,,,,,188,0,7,,,,,6,,,38,51
75260,note_off,,,,,92,0,3,,,,,2,,,83,79
75260,note_off,,,,,188,0,5,,,,,4,,,71,55
75260,note_off,,,,,92,0,1,,,,,0,,,83,59
75260,note_off,,,,,188,0,2,,,,,1,,,78,59
75260,note_off,,,,,188,0,8,,,,,7,,,50,32
75260,note_off,,,,,188,0,6,,,,,5,,,50,57
75260,note_off,,,,,188,0,4,,,,,3,,,78,79
75264,note_on,,,,,4,0,4,,,,,3,,,71,125
75264,note_on,,,,,4,0,8,,,,,7,,,62,63
75264,note_on,,,,,4,0,2,,,,,1,,,71,93
75264,note_on,,,,,4,0,3,,,,,2,,,80,125
75264,note_on,,,,,4,0,1,,,,,0,,,80,93
75264,note_on,,,,,4,0,5,,,,,4,,,76,87
75264,note_on,,,,,4,0,7,,,,,6,,,50,77
75264,note_on,,,,,4,0,6,,,,,5,,,62,86
75356,note_off,,,,,92,0,1,,,,,0,,,80,59
75356,note_off,,,,,92,0,3,,,,,2,,,80,79
75360,note_on,,,,,4,0,1,,,,,0,,,78,93
75360,note_on,,,,,4,0,3,,,,,2,,,78,125
75452,note_off,,,,,188,0,8,,,,,7,,,62,32
75452,note_off,,,,,188,0,6,,,,,5,,,62,57
75452,note_off,,,,,188,0,7,,,,,6,,,50,51
75452,note_off,,,,,188,0,4,,,,,3,,,71,79
75452,note_off,,,,,92,0,1,,,,,0,,,78,59
75452,note_off,,,,,188,0,5,,,,,4,,,76,55
75452,note_off,,,,,92,0,3,,,,,2,,,78,79
75452,note_off,,,,,188,0,2,,,,,1,,,71,59
75456,note_on,,,,,4,0,7,,,,,6,,,50,77
75456,note_on,,,,,4,0,6,,,,,5,,,62,86
75456,note_on,,,,,4,0,8,,,,,7,,,62,63
75456,note_on,,,,,4,0,2,,,,,1,,,71,93
75456,note_on,,,,,4,0,1,,,,,0,,,80,93
75456,note_on,,,,,4,0,3,,,,,2,,,80,125
75456,note_on,,,,,4,0,5,,,,,4,,,76,87
75456,note_on,,,,,4,0,4,,,,,3,,,71,125
75548,note_off,,,,,92,0,1,,,,,0,,,80,59
75548,note_off,,,,,92,0,3,,,,,2,,,80,79
75552,note_on,,,,,4,0,1,,,,,0,,,83,93
75552,note_on,,,,,4,0,3,,,,,2,,,83,125
75644,note_off,,,,,92,0,3,,,,,2,,,83,79
75644,note_off,,,,,188,0,7,,,,,6,,,50,51
75644,note_off,,,,,188,0,2,,,,,1,,,71,59
75644,note_off,,,,,188,0,5,,,,,4,,,76,55
75644,note_off,,,,,188,0,8,,,,,7,,,62,32
75644,note_off,,,,,92,0,1,,,,,0,,,83,59
75644,note_off,,,,,188,0,6,,,,,5,,,62,57
75644,note_off,,,,,188,0,4,,,,,3,,,71,79
75648,note_on,,,,,4,0,1,,,,,0,,,76,93
75648,note_on,,,,,4,0,8,,,,,7,,,62,63
75648,note_on,,,,,4,0,2,,,,,1,,,80,93
75648,note_on,,,,,4,0,7,,,,,6,,,50,77
75648,note_on,,,,,4,0,4,,,,,3,,,80,125
75648,note_on,,,,,4,0,3,,,,,2,,,76,125
75648,note_on,,,,,4,0,5,,,,,4,,,71,87
75648,note_on,,,,,4,0,6,,,,,5,,,62,86
75740,note_off,,,,,92,0,3,,,,,2,,,76,79
75740,note_off,,,,,92,0,1,,,,,0,,,76,59
75740,note_off,,,,,92,0,4,,,,,3,,,80,79
75740,note_off,,,,,92,0,2,,,,,1,,,80,59
75744,note_on,,,,,4,0,3,,,,,2,,,74,125
75744,note_on,,,,,4,0,1,,,,,0,,,74,93
75744,note_on,,,,,4,0,4,,,,,3,,,78,125
75744,note_on,,,,,4,0,2,,,,,1,,,78,93
75836,note_off,,,,,92,0,1,,,,,0,,,74,59
75836,note_off,,,,,188,0,7,,,,,6,,,50,51
75836,note_off,,,,,92,0,3,,,,,2,,,74,79
75836,note_off,,,,,188,0,6,,,,,5,,,62,57
75836,note_off,,,,,92,0,4,,,,,3,,,78,79
75836,note_off,,,,,188,0,5,,,,,4,,,71,55
75836,note_off,,,,,188,0,8,,,,,7,,,62,32
75836,note_off,,,,,92,0,2,,,,,1,,,78,59
75840,note_on,,,,,4,0,2,,,,,1,,,80,93
75840,note_on,,,,,4,0,6,,,,,5,,,62,86
75840,note_on,,,,,4,0,8,,,,,7,,,62,63
75840,note_on,,,,,4,0,1,,,,,0,,,76,93
75840,note_on,,,,,4,0,4,,,,,3,,,80,125
75840,note_on,,,,,4,0,7,,,,,6,,,50,77
75840,note_on,,,,,4,0,5,,,,,4,,,71,87
75840,note_on,,,,,4,0,3,,,,,2,,,76,125
75932,note_off,,,,,92,0,1,,,,,0,,,76,59
75932,note_off,,,,,92,0,3,,,,,2,,,76,79
75932,note_off,,,,,92,0,2,,,,,1,,,80,59
75932,note_off,,,,,92,0,4,,,,,3,,,80,79
75936,note_on,,,,,4,0,1,,,,,0,,,83,93
75936,note_on,,,,,4,0,3,,,,,2,,,83,125
75936,note_on,,,,,4,0,4,,,,,3,,,83,125
75936,note_on,,,,,4,0,2,,,,,1,,,83,93
76028,note_off,,,,,188,0,7,,,,,6,,,50,51
76028,note_off,,,,,92,0,1,,,,,0,,,83,59
76028,note_off,,,,,188,0,6,,,,,5,,,62,57
76028,note_off,,,,,188,0,5,,,,,4,,,71,55
76028,note_off,,,,,188,0,8,,,,,7,,,62,32
76028,note_off,,,,,92,0,3,,,,,2,,,83,79
76028,note_off,,,,,92,0,4,,,,,3,,,83,79
76028,note_off,,,,,92,0,2,,,,,1,,,83,59
76032,note_on,,,,,4,0,4,,,,,3,,,76,125
76032,note_on,,,,,4,0,5,,,,,4,,,68,87
76032,note_on,,,,,4,0,2,,,,,1,,,76,93
76032,note_on,,,,,4,0,1,,,,,0,,,71,93
76032,note_on,,,,,4,0,6,,,,,5,,,62,86
76032,note_on,,,,,4,0,3,,,,,2,,,71,125
76032,note_on,,,,,4,0,7,,,,,6,,,50,77
76032,note_on,,,,,4,0,8,,,,,7,,,62,63
76124,note_off,,,,,92,0,3,,,,,2,,,71,79
76124,note_off,,,,,92,0,1,,,,,0,,,71,59
76124,note_off,,,,,92,0,5,,,,,4,,,68,55
76128,note_on,,,,,4,0,3,,,,,2,,,69,125
76128,note_on,,,,,4,0,5,,,,,4,,,66,87
76128,note_on,,,,,4,0,1,,,,,0,,,69,93
76220,note_off,,,,,92,0,1,,,,,0,,,69,59
76220,note_off,,,,,92,0,3,,,,,2,,,69,79
76220,note_off,,,,,188,0,7,,,,,6,,,50,51
76220,note_off,,,,,188,0,2,,,,,1,,,76,59
76220,note_off,,,,,188,0,8,,,,,7,,,62,32
76220,note_off,,,,,188,0,4,,,,,3,,,76,79
76220,note_off,,,,,188,0,6,,,,,5,,,62,57
76220,note_off,,,,,92,0,5,,,,,4,,,66,55
76224,note_on,,,,,4,0,4,,,,,3,,,76,125
76224,note_on,,,,,4,0,7,,,,,6,,,50,77
76224,note_on,,,,,4,0,8,,,,,7,,,62,63
76224,note_on,,,,,4,0,2,,,,,1,,,76,93
76224,note_on,,,,,4,0,1,,,,,0,,,71,93
76224,note_on,,,,,4,0,3,,,,,2,,,71,125
76224,note_on,,,,,4,0,5,,,,,4,,,68,87
76224,note_on,,,,,4,0,6,,,,,5,,,62,86
76316,note_off,,,,,92,0,5,,,,,4,,,68,55
76316,note_off,,,,,92,0,1,,,,,0,,,71,59
76316,note_off,,,,,92,0,3,,,,,2,,,71,79
76320,note_on,,,,,4,0,1,,,,,0,,,76,93
76320,note_on,,,,,4,0,3,,,,,2,,,76,125
76320,note_on,,,,,4,0,5,,,,,4,,,71,87
76412,note_off,,,,,188,0,6,,,,,5,,,62,57
76412,note_off,,,,,92,0,5,,,,,4,,,71,55
76412,note_off,,,,,92,0,3,,,,,2,,,76,79
76412,note_off,,,,,188,0,7,,,,,6,,,50,51
76412,note_off,,,,,92,0,1,,,,,0,,,76,59
76412,note_off,,,,,188,0,2,,,,,1,,,76,59
76412,note_off,,,,,188,0,4,,,,,3,,,76,79
76412,note_off,,,,,188,0,8,,,,,7,,,62,32
76416,note_on,,,,,4,0,5,,,,,4,,,64,87
76416,note_on,,,,,4,0,2,,,,,1,,,71,93
76416,note_on,,,,,4,0,3,,,,,2,,,68,125
76416,note_on,,,,,4,0,7,,,,,6,,,50,77
76416,note_on,,,,,4,0,4,,,,,3,,,71,125
76416,note_on,,,,,4,0,8,,,,,7,,,62,63
76416,note_on,,,,,4,0,6,,,,,5,,,62,86
76416,note_on,,,,,4,0,1,,,,,0,,,68,93
76508,note_off,,,,,92,0,4,,,,,3,,,71,79
76508,note_off,,,,,92,0,3,,,,,2,,,68,79
76508,note_off,,,,,92,0,2,,,,,1,,,71,59
76508,note_off,,,,,92,0,1,,,,,0,,,68,59
76512,note_on,,,,,4,0,4,,,,,3,,,69,125
76512,note_on,,,,,4,0,3,,,,,2,,,66,125
76512,note_on,,,,,4,0,1,,,,,0,,,66,93
76512,note_on,,,,,4,0,2,,,,,1,,,69,93
76604,note_off,,,,,188,0,5,,,,,4,,,64,55
76604,note_off,,,,,92,0,3,,,,,2,,,66,79
76604,note_off,,,,,188,0,7,,,,,6,,,50,51
76604,note_off,,,,,92,0,2,,,,,1,,,69,59
76604,note_off,,,,,92,0,4,,,,,3,,,69,79
76604,note_off,,,,,92,0,1,,,,,0,,,66,59
76604,note_off,,,,,188,0,6,,,,,5,,,62,57
76604,note_off,,,,,188,0,8,,,,,7,,,62,32
76608,note_on,,,,,4,0,1,,,,,0,,,68,93
76608,note_on,,,,,4,0,7,,,,,6,,,50,77
76608,note_on,,,,,4,0,5,,,,,4,,,64,87
76608,note_on,,,,,4,0,6,,,,,5,,,62,86
76608,note_on,,,,,4,0,8,,,,,7,,,62,63
76608,note_on,,,,,4,0,3,,,,,2,,,68,125
76608,note_on,,,,,4,0,2,,,,,1,,,71,93
76608,note_on,,,,,4,0,4,,,,,3,,,71,125
76700,note_off,,,,,92,0,1,,,,,0,,,68,59
76700,note_off,,,,,92,0,4,,,,,3,,,71,79
76700,note_off,,,,,92,0,2,,,,,1,,,71,59
76700,note_off,,,,,92,0,3,,,,,2,,,68,79
76704,note_on,,,,,4,0,3,,,,,2,,,71,125
76704,note_on,,,,,4,0,1,,,,,0,,,71,93
76704,note_on,,,,,4,0,2,,,,,1,,,76,93
76704,note_on,,,,,4,0,4,,,,,3,,,76,125
76796,note_off,,,,,188,0,7,,,,,6,,,50,51
76796,note_off,,,,,92,0,3,,,,,2,,,71,79
76796,note_off,,,,,188,0,5,,,,,4,,,64,55
76796,note_off,,,,,188,0,8,,,,,7,,,62,32
76796,note_off,,,,,92,0,2,,,,,1,,,76,59
76796,note_off,,,,,92,0,1,,,,,0,,,71,59
76796,note_off,,,,,92,0,4,,,,,3,,,76,79
76796,note_off,,,,,188,0,6,,,,,5,,,62,57
76800,note_on,,,,,4,0,2,,,,,1,,,68,93
76800,note_on,,,,,4,0,4,,,,,3,,,68,125
76800,note_on,,,,,4,0,6,,,,,5,,,62,86
76800,note_on,,,,,4,0,3,,,,,2,,,64,125
76800,note_on,,,,,4,0,1,,,,,0,,,64,93
76800,note_on,,,,,4,0,8,,,,,7,,,62,63
76800,note_on,,,,,4,0,7,,,,,6,,,50,77
76800,note_on,,,,,4,0,5,,,,,4,,,71,87
76892,note_off,,,,,92,0,4,,,,,3,,,68,79
76892,note_off,,,,,92,0,2,,,,,1,,,68,59
76896,note_on,,,,,4,0,4,,,,,3,,,66,125
76896,note_on,,,,,4,0,2,,,,,1,,,66,93
76988,note_off,,,,,92,0,2,,,,,1,,,66,59
76988,note_off,,,,,188,0,3,,,,,2,,,64,79
76988,note_off,,,,,92,0,4,,,,,3,,,66,79
76988,note_off,,,,,188,0,5,,,,,4,,,71,55
76988,note_off,,,,,188,0,6,,,,,5,,,62,57
76988,note_off,,,,,188,0,8,,,,,7,,,62,32
76988,note_off,,,,,188,0,7,,,,,6,,,50,51
76988,note_off,,,,,188,0,1,,,,,0,,,64,59
76992,note_on,,,,,4,0,3,,,,,2,,,76,125
76992,note_on,,,,,4,0,8,,,,,7,,,50,63
76992,note_on,,,,,4,0,6,,,,,5,,,50,86
76992,note_on,,,,,4,0,4,,,,,3,,,68,125
76992,note_on,,,,,4,0,5,,,,,4,,,71,87
76992,note_on,,,,,4,0,2,,,,,1,,,68,93
76992,note_on,,,,,4,0,1,,,,,0,,,76,93
76992,note_on,,,,,4,0,7,,,,,6,,,38,77
77084,note_off,,,,,92,0,4,,,,,3,,,68,79
77084,note_off,,,,,92,0,2,,,,,1,,,68,59
77088,note_on,,,,,4,0,4,,,,,3,,,71,125
77088,note_on,,,,,4,0,2,,,,,1,,,71,93
77180,note_off,,,,,188,0,3,,,,,2,,,76,79
77180,note_off,,,,,188,0,1,,,,,0,,,76,59
77180,note_off,,,,,188,0,7,,,,,6,,,38,51
77180,note_off,,,,,188,0,5,,,,,4,,,71,55
77180,note_off,,,,,92,0,2,,,,,1,,,71,59
77180,note_off,,,,,92,0,4,,,,,3,,,71,79
77180,note_off,,,,,188,0,8,,,,,7,,,50,32
77180,note_off,,,,,188,0,6,,,,,5,,,50,57
77184,note_on,,,,,4,0,7,,,,,6,,,50,77
77184,note_on,,,,,4,0,3,,,,,2,,,76,125
77184,note_on,,,,,4,0,8,,,,,7,,,62,63
77184,note_on,,,,,4,0,1,,,,,0,,,76,93
77184,note_on,,,,,4,0,4,,,,,3,,,64,125
77184,note_on,,,,,4,0,6,,,,,5,,,62,86
77184,note_on,,,,,4,0,2,,,,,1,,,64,93
77184,note_on,,,,,4,0,5,,,,,4,,,68,87
77276,note_off,,,,,92,0,5,,,,,4,,,68,55
77280,note_on,,,,,4,0,5,,,,,4,,,66,87
77372,note_off,,,,,188,0,3,,,,,2,,,76,79
77372,note_off,,,,,188,0,6,,,,,5,,,62,57
77372,note_off,,,,,188,0,7,,,,,6,,,50,51
77372,note_off,,,,,92,0,5,,,,,4,,,66,55
77372,note_off,,,,,188,0,8,,,,,7,,,62,32
77372,note_off,,,,,188,0,4,,,,,3,,,64,79
77372,note_off,,,,,188,0,2,,,,,1,,,64,59
77372,note_off,,,,,188,0,1,,,,,0,,,76,59
77376,note_on,,,,,4,0,3,,,,,2,,,76,125
77376,note_on,,,,,4,0,6,,,,,5,,,60,86
77376,note_on,,,,,4,0,1,,,,,0,,,76,93
77376,note_on,,,,,4,0,7,,,,,6,,,48,77
77376,note_on,,,,,4,0,2,,,,,1,,,67,93
77376,note_on,,,,,4,0,4,,,,,3,,,67,125
77376,note_on,,,,,4,0,5,,,,,4,,,68,87
77376,note_on,,,,,4,0,8,,,,,7,,,60,63
77468,note_off,,,,,92,0,7,,,,,6,,,48,51
77468,note_off,,,,,92,0,5,,,,,4,,,68,55
77468,note_off,,,,,92,0,8,,,,,7,,,60,32
77468,note_off,,,,,92,0,6,,,,,5,,,60,57
77472,note_on,,,,,4,0,7,,,,,6,,,47,77
77472,note_on,,,,,4,0,5,,,,,4,,,71,87
77472,note_on,,,,,4,0,8,,,,,7,,,59,63
77472,note_on,,,,,4,0,6,,,,,5,,,59,86
77564,note_off,,,,,188,0,2,,,,,1,,,67,59
77564,note_off,,,,,188,0,1,,,,,0,,,76,59
77564,note_off,,,,,92,0,7,,,,,6,,,47,51
77564,note_off,,,,,92,0,8,,,,,7,,,59,32
77564,note_off,,,,,92,0,5,,,,,4,,,71,55
77564,note_off,,,,,188,0,3,,,,,2,,,76,79
77564,note_off,,,,,92,0,6,,,,,5,,,59,57
77564,note_off,,,,,188,0,4,,,,,3,,,67,79
77568,note_on,,,,,4,0,6,,,,,5,,,60,86
77568,note_on,,,,,4,0,2,,,,,1,,,69,93
77568,note_on,,,,,4,0,8,,,,,7,,,60,63
77568,note_on,,,,,4,0,3,,,,,2,,,76,125
77568,note_on,,,,,4,0,5,,,,,4,,,64,87
77568,note_on,,,,,4,0,7,,,,,6,,,48,77
77568,note_on,,,,,4,0,4,,,,,3,,,69,125
77568,note_on,,,,,4,0,1,,,,,0,,,76,93
77756,note_off,,,,,188,0,1,,,,,0,,,76,59
77756,note_off,,,,,188,0,7,,,,,6,,,48,51
77756,note_off,,,,,188,0,3,,,,,2,,,76,79
77756,note_off,,,,,188,0,8,,,,,7,,,60,32
77756,note_off,,,,,188,0,4,,,,,3,,,69,79
77756,note_off,,,,,188,0,5,,,,,4,,,64,55
77756,note_off,,,,,188,0,2,,,,,1,,,69,59
77756,note_off,,,,,188,0,6,,,,,5,,,60,57
77760,note_on,,,,,4,0,5,,,,,4,,,60,87
77760,note_on,,,,,4,0,7,,,,,6,,,36,77
77760,note_on,,,,,4,0,1,,,,,0,,,76,93
77760,note_on,,,,,4,0,2,,,,,1,,,57,93
77760,note_on,,,,,4,0,6,,,,,5,,,48,86
77760,note_on,,,,,4,0,8,,,,,7,,,48,63
77760,note_on,,,,,4,0,4,,,,,3,,,57,125
77760,note_on,,,,,4,0,3,,,,,2,,,76,125
77948,note_off,,,,,188,0,5,,,,,4,,,60,55
77948,note_off,,,,,188,0,1,,,,,0,,,76,59
77948,note_off,,,,,188,0,8,,,,,7,,,48,32
77948,note_off,,,,,188,0,6,,,,,5,,,48,57
77948,note_off,,,,,188,0,4,,,,,3,,,57,79
77948,note_off,,,,,188,0,3,,,,,2,,,76,79
77948,note_off,,,,,188,0,7,,,,,6,,,36,51
77948,note_off,,,,,188,0,2,,,,,1,,,57,59
77952,note_on,,,,,4,0,1,,,,,0,,,76,93
77952,note_on,,,,,4,0,3,,,,,2,,,76,125
78140,note_off,,,,,188,0,3,,,,,2,,,76,79
78140,note_off,,,,,188,0,1,,,,,0,,,76,59
78144,note_on,,,,,4,0,1,,,,,0,,,76,93
78144,note_on,,,,,196,0,6,,,,,5,,,48,86
78144,note_on,,,,,196,0,4,,,,,3,,,69,125
78144,note_on,,,,,196,0,7,,,,,6,,,36,77
78144,note_on,,,,,196,0,8,,,,,7,,,48,63
78144,note_on,,,,,196,0,2,,,,,1,,,69,93
78144,note_on,,,,,196,0,5,,,,,4,,,60,87
78144,note_on,,,,,4,0,3,,,,,2,,,76,125
78332,note_off,,,,,188,0,5,,,,,4,,,60,55
78332,note_off,,,,,188,0,3,,,,,2,,,76,79
78332,note_off,,,,,188,0,4,,,,,3,,,69,79
78332,note_off,,,,,188,0,2,,,,,1,,,69,59
78332,note_off,,,,,188,0,6,,,,,5,,,48,57
78332,note_off,,,,,188,0,8,,,,,7,,,48,32
78332,note_off,,,,,188,0,7,,,,,6,,,36,51
78332,note_off,,,,,188,0,1,,,,,0,,,76,59
78336,note_on,,,,,4,0,6,,,,,5,,,60,86
78336,note_on,,,,,4,0,4,,,,,3,,,76,125
78336,note_on,,,,,4,0,7,,,,,6,,,48,77
78336,note_on,,,,,4,0,8,,,,,7,,,60,63
78336,note_on,,,,,4,0,1,,,,,0,,,81,93
78336,note_on,,,,,4,0,5,,,,,4,,,60,87
78336,note_on,,,,,4,0,2,,,,,1,,,76,93
78336,note_on,,,,,4,0,3,,,,,2,,,81,125
78428,note_off,,,,,92,0,1,,,,,0,,,81,59
78428,note_off,,,,,92,0,3,,,,,2,,,81,79
78432,note_on,,,,,4,0,1,,,,,0,,,79,93
78432,note_on,,,,,4,0,3,,,,,2,,,79,125
78524,note_off,,,,,188,0,6,,,,,5,,,60,57
78524,note_off,,,,,188,0,7,,,,,6,,,48,51
78524,note_off,,,,,188,0,4,,,,,3,,,76,79
78524,note_off,,,,,188,0,5,,,,,4,,,60,55
78524,note_off,,,,,188,0,8,,,,,7,,,60,32
78524,note_off,,,,,92,0,3,,,,,2,,,79,79
78524,note_off,,,,,92,0,1,,,,,0,,,79,59
78524,note_off,,,,,188,0,2,,,,,1,,,76,59
78528,note_on,,,,,4,0,4,,,,,3,,,76,125
78528,note_on,,,,,4,0,1,,,,,0,,,81,93
78528,note_on,,,,,4,0,5,,,,,4,,,60,87
78528,note_on,,,,,4,0,3,,,,,2,,,81,125
78528,note_on,,,,,4,0,6,,,,,5,,,60,86
78528,note_on,,,,,4,0,7,,,,,6,,,48,77
78528,note_on,,,,,4,0,8,,,,,7,,,60,63
78528,note_on,,,,,4,0,2,,,,,1,,,76,93
78620,note_off,,,,,92,0,1,,,,,0,,,81,59
78620,note_off,,,,,92,0,3,,,,,2,,,81,79
78624,note_on,,,,,4,0,1,,,,,0,,,84,93
78624,note_on,,,,,4,0,3,,,,,2,,,84,125
78716,note_off,,,,,188,0,2,,,,,1,,,76,59
78716,note_off,,,,,92,0,3,,,,,2,,,84,79
78716,note_off,,,,,188,0,6,,,,,5,,,60,57
78716,note_off,,,,,188,0,7,,,,,6,,,48,51
78716,note_off,,,,,188,0,5,,,,,4,,,60,55
78716,note_off,,,,,188,0,8,,,,,7,,,60,32
78716,note_off,,,,,188,0,4,,,,,3,,,76,79
78716,note_off,,,,,92,0,1,,,,,0,,,84,59
78720,note_on,,,,,4,0,6,,,,,5,,,60,86
78720,note_on,,,,,4,0,3,,,,,2,,,76,125
78720,note_on,,,,,4,0,8,,,,,7,,,60,63
78720,note_on,,,,,4,0,4,,,,,3,,,72,125
78720,note_on,,,,,4,0,2,,,,,1,,,72,93
78720,note_on,,,,,4,0,5,,,,,4,,,69,87
78720,note_on,,,,,4,0,1,,,,,0,,,76,93
78720,note_on,,,,,4,0,7,,,,,6,,,48,77
78812,note_off,,,,,92,0,3,,,,,2,,,76,79
78812,note_off,,,,,92,0,2,,,,,1,,,72,59
78812,note_off,,,,,92,0,1,,,,,0,,,76,59
78812,note_off,,,,,92,0,4,,,,,3,,,72,79
78816,note_on,,,,,4,0,3,,,,,2,,,74,125
78816,note_on,,,,,4,0,2,,,,,1,,,71,93
78816,note_on,,,,,4,0,4,,,,,3,,,71,125
78816,note_on,,,,,4,0,1,,,,,0,,,74,93
78908,note_off,,,,,188,0,7,,,,,6,,,48,51
78908,note_off,,,,,92,0,3,,,,,2,,,74,79
78908,note_off,,,,,92,0,4,,,,,3,,,71,79
78908,note_off,,,,,188,0,5,,,,,4,,,69,55
78908,note_off,,,,,188,0,6,,,,,5,,,60,57
78908,note_off,,,,,92,0,2,,,,,1,,,71,59
78908,note_off,,,,,188,0,8,,,,,7,,,60,32
78908,note_off,,,,,92,0,1,,,,,0,,,74,59
78912,note_on,,,,,4,0,7,,,,,6,,,48,77
78912,note_on,,,,,4,0,3,,,,,2,,,76,125
78912,note_on,,,,,4,0,2,,,,,1,,,72,93
78912,note_on,,,,,4,0,4,,,,,3,,,72,125
78912,note_on,,,,,4,0,1,,,,,0,,,76,93
78912,note_on,,,,,4,0,8,,,,,7,,,60,63
78912,note_on,,,,,4,0,5,,,,,4,,,69,87
78912,note_on,,,,,4,0,6,,,,,5,,,60,86
79004,note_off,,,,,92,0,1,,,,,0,,,76,59
79004,note_off,,,,,92,0,3,,,,,2,,,76,79
79004,note_off,,,,,92,0,4,,,,,3,,,72,79
79004,note_off,,,,,92,0,2,,,,,1,,,72,59
79008,note_on,,,,,4,0,2,,,,,1,,,76,93
79008,note_on,,,,,4,0,4,,,,,3,,,76,125
79008,note_on,,,,,4,0,1,,,,,0,,,79,93
79008,note_on,,,,,4,0,3,,,,,2,,,79,125
79100,note_off,,,,,188,0,5,,,,,4,,,69,55
79100,note_off,,,,,188,0,7,,,,,6,,,48,51
79100,note_off,,,,,92,0,2,,,,,1,,,76,59
79100,note_off,,,,,92,0,3,,,,,2,,,79,79
79100,note_off,,,,,188,0,8,,,,,7,,,60,32
79100,note_off,,,,,92,0,1,,,,,0,,,79,59
79100,note_off,,,,,92,0,4,,,,,3,,,76,79
79100,note_off,,,,,188,0,6,,,,,5,,,60,57
79104,note_on,,,,,4,0,5,,,,,4,,,74,87
79104,note_on,,,,,4,0,4,,,,,3,,,69,125
79104,note_on,,,,,4,0,3,,,,,2,,,78,125
79104,note_on,,,,,4,0,7,,,,,6,,,48,77
79104,note_on,,,,,4,0,8,,,,,7,,,60,63
79104,note_on,,,,,4,0,1,,,,,0,,,78,93
79104,note_on,,,,,4,0,2,,,,,1,,,69,93
79104,note_on,,,,,4,0,6,,,,,5,,,60,86
79196,note_off,,,,,92,0,1,,,,,0,,,78,59
79196,note_off,,,,,92,0,2,,,,,1,,,69,59
79196,note_off,,,,,92,0,4,,,,,3,,,69,79
79196,note_off,,,,,92,0,3,,,,,2,,,78,79
79200,note_on,,,,,4,0,4,,,,,3,,,67,125
79200,note_on,,,,,4,0,2,,,,,1,,,67,93
79200,note_on,,,,,4,0,3,,,,,2,,,76,125
79200,note_on,,,,,4,0,1,,,,,0,,,76,93
79292,note_off,,,,,92,0,2,,,,,1,,,67,59
79292,note_off,,,,,92,0,4,,,,,3,,,67,79
79292,note_off,,,,,188,0,7,,,,,6,,,48,51
79292,note_off,,,,,188,0,5,,,,,4,,,74,55
79292,note_off,,,,,188,0,6,,,,,5,,,60,57
79292,note_off,,,,,188,0,8,,,,,7,,,60,32
79292,note_off,,,,,92,0,3,,,,,2,,,76,79
79292,note_off,,,,,92,0,1,,,,,0,,,76,59
79296,note_on,,,,,4,0,2,,,,,1,,,69,93
79296,note_on,,,,,4,0,3,,,,,2,,,78,125
79296,note_on,,,,,4,0,8,,,,,7,,,60,63
79296,note_on,,,,,4,0,1,,,,,0,,,78,93
79296,note_on,,,,,4,0,7,,,,,6,,,48,77
79296,note_on,,,,,4,0,6,,,,,5,,,60,86
79296,note_on,,,,,4,0,5,,,,,4,,,74,87
79296,note_on,,,,,4,0,4,,,,,3,,,69,125
79388,note_off,,,,,92,0,1,,,,,0,,,78,59
79388,note_off,,,,,92,0,2,,,,,1,,,69,59
79388,note_off,,,,,92,0,4,,,,,3,,,69,79
79388,note_off,,,,,92,0,3,,,,,2,,,78,79
79392,note_on,,,,,4,0,4,,,,,3,,,74,125
79392,note_on,,,,,4,0,3,,,,,2,,,81,125
79392,note_on,,,,,4,0,1,,,,,0,,,81,93
79392,note_on,,,,,4,0,2,,,,,1,,,74,93
79484,note_off,,,,,188,0,7,,,,,6,,,48,51
79484,note_off,,,,,92,0,4,,,,,3,,,74,79
79484,note_off,,,,,188,0,5,,,,,4,,,74,55
79484,note_off,,,,,188,0,6,,,,,5,,,60,57
79484,note_off,,,,,188,0,8,,,,,7,,,60,32
79484,note_off,,,,,92,0,1,,,,,0,,,81,59
79484,note_off,,,,,92,0,3,,,,,2,,,81,79
79484,note_off,,,,,92,0,2,,,,,1,,,74,59
79488,note_on,,,,,4,0,7,,,,,6,,,48,77
79488,note_on,,,,,4,0,3,,,,,2,,,69,125
79488,note_on,,,,,4,0,4,,,,,3,,,66,125
79488,note_on,,,,,4,0,1,,,,,0,,,69,93
79488,note_on,,,,,4,0,2,,,,,1,,,66,93
79488,note_on,,,,,4,0,8,,,,,7,,,60,63
79488,note_on,,,,,4,0,5,,,,,4,,,62,87
79488,note_on,,,,,4,0,6,,,,,5,,,60,86
79580,note_off,,,,,92,0,2,,,,,1,,,66,59
79580,note_off,,,,,92,0,4,,,,,3,,,66,79
79580,note_off,,,,,92,0,3,,,,,2,,,69,79
79580,note_off,,,,,92,0,1,,,,,0,,,69,59
79584,note_on,,,,,4,0,4,,,,,3,,,64,125
79584,note_on,,,,,4,0,2,,,,,1,,,64,93
79584,note_on,,,,,4,0,1,,,,,0,,,67,93
79584,note_on,,,,,4,0,3,,,,,2,,,67,125
79676,note_off,,,,,188,0,5,,,,,4,,,62,55
79676,note_off,,,,,188,0,7,,,,,6,,,48,51
79676,note_off,,,,,92,0,3,,,,,2,,,67,79
79676,note_off,,,,,92,0,2,,,,,1,,,64,59
79676,note_off,,,,,92,0,1,,,,,0,,,67,59
79676,note_off,,,,,188,0,8,,,,,7,,,60,32
79676,note_off,,,,,92,0,4,,,,,3,,,64,79
79676,note_off,,,,,188,0,6,,,,,5,,,60,57
79680,note_on,,,,,4,0,6,,,,,5,,,60,86
79680,note_on,,,,,4,0,2,,,,,1,,,66,93
79680,note_on,,,,,4,0,1,,,,,0,,,69,93
79680,note_on,,,,,4,0,3,,,,,2,,,69,125
79680,note_on,,,,,4,0,7,,,,,6,,,48,77
79680,note_on,,,,,4,0,5,,,,,4,,,62,87
79680,note_on,,,,,4,0,8,,,,,7,,,60,63
79680,note_on,,,,,4,0,4,,,,,3,,,66,125
79772,note_off,,,,,92,0,2,,,,,1,,,66,59
79772,note_off,,,,,92,0,4,,,,,3,,,66,79
79772,note_off,,,,,92,0,3,,,,,2,,,69,79
79772,note_off,,,,,92,0,1,,,,,0,,,69,59
79776,note_on,,,,,4,0,1,,,,,0,,,74,93
79776,note_on,,,,,4,0,4,,,,,3,,,69,125
79776,note_on,,,,,4,0,2,,,,,1,,,69,93
79776,note_on,,,,,4,0,3,,,,,2,,,74,125
79868,note_off,,,,,188,0,5,,,,,4,,,62,55
79868,note_off,,,,,188,0,6,,,,,5,,,60,57
79868,note_off,,,,,92,0,4,,,,,3,,,69,79
79868,note_off,,,,,188,0,8,,,,,7,,,60,32
79868,note_off,,,,,188,0,7,,,,,6,,,48,51
79868,note_off,,,,,92,0,2,,,,,1,,,69,59
79868,note_off,,,,,92,0,1,,,,,0,,,74,59
79868,note_off,,,,,92,0,3,,,,,2,,,74,79
79872,note_on,,,,,4,0,1,,,,,0,,,66,93
79872,note_on,,,,,4,0,2,,,,,1,,,62,93
79872,note_on,,,,,4,0,5,,,,,4,,,69,87
79872,note_on,,,,,4,0,7,,,,,6,,,48,77
79872,note_on,,,,,4,0,4,,,,,3,,,62,125
79872,note_on,,,,,4,0,3,,,,,2,,,66,125
79872,note_on,,,,,4,0,6,,,,,5,,,60,86
79872,note_on,,,,,4,0,8,,,,,7,,,60,63
79964,note_off,,,,,92,0,3,,,,,2,,,66,79
79964,note_off,,,,,92,0,1,,,,,0,,,66,59
79968,note_on,,,,,4,0,1,,,,,0,,,64,93
79968,note_on,,,,,4,0,3,,,,,2,,,64,125
80060,note_off,,,,,188,0,5,,,,,4,,,69,55
80060,note_off,,,,,188,0,6,,,,,5,,,60,57
80060,note_off,,,,,188,0,4,,,,,3,,,62,79
80060,note_off,,,,,92,0,3,,,,,2,,,64,79
80060,note_off,,,,,92,0,1,,,,,0,,,64,59
80060,note_off,,,,,188,0,7,,,,,6,,,48,51
80060,note_off,,,,,188,0,8,,,,,7,,,60,32
80060,note_off,,,,,188,0,2,,,,,1,,,62,59
80064,note_on,,,,,4,0,2,,,,,1,,,74,93
80064,note_on,,,,,4,0,6,,,,,5,,,48,86
80064,note_on,,,,,4,0,4,,,,,3,,,74,125
80064,note_on,,,,,4,0,8,,,,,7,,,48,63
80064,note_on,,,,,4,0,7,,,,,6,,,36,77
80064,note_on,,,,,4,0,5,,,,,4,,,69,87
80064,note_on,,,,,4,0,1,,,,,0,,,66,93
80064,note_on,,,,,4,0,3,,,,,2,,,66,125
80156,note_off,,,,,92,0,3,,,,,2,,,66,79
80156,note_off,,,,,92,0,1,,,,,0,,,66,59
80160,note_on,,,,,4,0,1,,,,,0,,,69,93
80160,note_on,,,,,4,0,3,,,,,2,,,69,125
80252,note_off,,,,,92,0,3,,,,,2,,,69,79
80252,note_off,,,,,188,0,5,,,,,4,,,69,55
80252,note_off,,,,,188,0,7,,,,,6,,,36,51
80252,note_off,,,,,188,0,2,,,,,1,,,74,59
80252,note_off,,,,,92,0,1,,,,,0,,,69,59
80252,note_off,,,,,188,0,6,,,,,5,,,48,57
80252,note_off,,,,,188,0,8,,,,,7,,,48,32
80252,note_off,,,,,188,0,4,,,,,3,,,74,79
80256,note_on,,,,,4,0,3,,,,,2,,,62,125
80256,note_on,,,,,4,0,6,,,,,5,,,60,86
80256,note_on,,,,,4,0,8,,,,,7,,,60,63
80256,note_on,,,,,4,0,5,,,,,4,,,69,87
80256,note_on,,,,,4,0,2,,,,,1,,,66,93
80256,note_on,,,,,4,0,4,,,,,3,,,66,125
80256,note_on,,,,,4,0,1,,,,,0,,,62,93
80256,note_on,,,,,4,0,7,,,,,6,,,48,77
80348,note_off,,,,,92,0,4,,,,,3,,,66,79
80348,note_off,,,,,92,0,2,,,,,1,,,66,59
80352,note_on,,,,,4,0,4,,,,,3,,,64,125
80352,note_on,,,,,4,0,2,,,,,1,,,64,93
80444,note_off,,,,,188,0,5,,,,,4,,,69,55
80444,note_off,,,,,188,0,6,,,,,5,,,60,57
80444,note_off,,,,,188,0,3,,,,,2,,,62,79
80444,note_off,,,,,188,0,1,,,,,0,,,62,59
80444,note_off,,,,,92,0,4,,,,,3,,,64,79
80444,note_off,,,,,188,0,7,,,,,6,,,48,51
80444,note_off,,,,,92,0,2,,,,,1,,,64,59
80444,note_off,,,,,188,0,8,,,,,7,,,60,32
80448,note_on,,,,,4,0,4,,,,,3,,,66,125
80448,note_on,,,,,4,0,6,,,,,5,,,59,86
80448,note_on,,,,,4,0,3,,,,,2,,,66,125
80448,note_on,,,,,4,0,2,,,,,1,,,66,93
80448,note_on,,,,,4,0,7,,,,,6,,,47,77
80448,note_on,,,,,4,0,5,,,,,4,,,60,87
80448,note_on,,,,,4,0,1,,,,,0,,,66,93
80448,note_on,,,,,4,0,8,,,,,7,,,59,63
80540,note_off,,,,,92,0,4,,,,,3,,,66,79
80540,note_off,,,,,92,0,8,,,,,7,,,59,32
80540,note_off,,,,,92,0,2,,,,,1,,,66,59
80540,note_off,,,,,92,0,6,,,,,5,,,59,57
80540,note_off,,,,,92,0,7,,,,,6,,,47,51
80544,note_on,,,,,4,0,7,,,,,6,,,45,77
80544,note_on,,,,,4,0,6,,,,,5,,,57,86
80544,note_on,,,,,4,0,8,,,,,7,,,57,63
80544,note_on,,,,,4,0,2,,,,,1,,,69,93
80544,note_on,,,,,4,0,4,,,,,3,,,69,125
80636,note_off,,,,,188,0,3,,,,,2,,,66,79
80636,note_off,,,,,92,0,6,,,,,5,,,57,57
80636,note_off,,,,,92,0,7,,,,,6,,,45,51
80636,note_off,,,,,92,0,4,,,,,3,,,69,79
80636,note_off,,,,,92,0,8,,,,,7,,,57,32
80636,note_off,,,,,188,0,1,,,,,0,,,66,59
80636,note_off,,,,,188,0,5,,,,,4,,,60,55
80636,note_off,,,,,92,0,2,,,,,1,,,69,59
80640,note_on,,,,,4,0,7,,,,,6,,,47,77
80640,note_on,,,,,4,0,3,,,,,2,,,67,125
80640,note_on,,,,,4,0,1,,,,,0,,,67,93
80640,note_on,,,,,4,0,5,,,,,4,,,59,87
80640,note_on,,,,,4,0,8,,,,,7,,,59,63
80640,note_on,,,,,4,0,6,,,,,5,,,59,86
80640,note_on,,,,,4,0,4,,,,,3,,,62,125
80640,note_on,,,,,4,0,2,,,,,1,,,62,93
80828,note_off,,,,,188,0,2,,,,,1,,,62,59
80828,note_off,,,,,188,0,3,,,,,2,,,67,79
80828,note_off,,,,,188,0,1,,,,,0,,,67,59
80828,note_off,,,,,188,0,7,,,,,6,,,47,51
80828,note_off,,,,,188,0,4,,,,,3,,,62,79
80828,note_off,,,,,188,0,5,,,,,4,,,59,55
80828,note_off,,,,,188,0,6,,,,,5,,,59,57
80828,note_off,,,,,188,0,8,,,,,7,,,59,32
80832,note_on,,,,,4,0,8,,,,,7,,,47,63
80832,note_on,,,,,4,0,4,,,,,3,,,74,125
80832,note_on,,,,,4,0,3,,,,,2,,,55,125
80832,note_on,,,,,4,0,6,,,,,5,,,47,86
80832,note_on,,,,,4,0,1,,,,,0,,,55,93
80832,note_on,,,,,4,0,5,,,,,4,,,71,87
80832,note_on,,,,,4,0,7,,,,,6,,,35,77
80832,note_on,,,,,4,0,2,,,,,1,,,74,93
81020,note_off,,,,,188,0,4,,,,,3,,,74,79
81020,note_off,,,,,188,0,2,,,,,1,,,74,59
81020,note_off,,,,,188,0,7,,,,,6,,,35,51
81020,note_off,,,,,188,0,5,,,,,4,,,71,55
81020,note_off,,,,,188,0,3,,,,,2,,,55,79
81020,note_off,,,,,188,0,1,,,,,0,,,55,59
81020,note_off,,,,,188,0,6,,,,,5,,,47,57
81020,note_off,,,,,188,0,8,,,,,7,,,47,32
81024,note_on,,,,,4,0,4,,,,,3,,,71,125
81024,note_on,,,,,4,0,5,,,,,4,,,67,87
81024,note_on,,,,,4,0,2,,,,,1,,,71,93
81212,note_off,,,,,188,0,2,,,,,1,,,71,59
81212,note_off,,,,,188,0,5,,,,,4,,,67,55
81212,note_off,,,,,188,0,4,,,,,3,,,71,79
81216,note_on,,,,,196,0,6,,,,,5,,,59,86
81216,note_on,,,,,4,0,4,,,,,3,,,67,125
81216,note_on,,,,,4,0,5,,,,,4,,,62,87
81216,note_on,,,,,4,0,2,,,,,1,,,67,93
81216,note_on,,,,,196,0,8,,,,,7,,,59,63
81216,note_on,,,,,196,0,3,,,,,2,,,79,125
81216,note_on,,,,,196,0,1,,,,,0,,,79,93
81216,note_on,,,,,196,0,7,,,,,6,,,47,77
81404,note_off,,,,,188,0,6,,,,,5,,,59,57
81404,note_off,,,,,188,0,2,,,,,1,,,67,59
81404,note_off,,,,,188,0,3,,,,,2,,,79,79
81404,note_off,,,,,188,0,5,,,,,4,,,62,55
81404,note_off,,,,,188,0,7,,,,,6,,,47,51
81404,note_off,,,,,188,0,8,,,,,7,,,59,32
81404,note_off,,,,,188,0,1,,,,,0,,,79,59
81404,note_off,,,,,188,0,4,,,,,3,,,67,79
81408,note_on,,,,,4,0,7,,,,,6,,,45,77
81408,note_on,,,,,4,0,1,,,,,0,,,77,93
81408,note_on,,,,,4,0,5,,,,,4,,,72,87
81408,note_on,,,,,4,0,3,,,,,2,,,77,125
81408,note_on,,,,,4,0,6,,,,,5,,,57,86
81408,note_on,,,,,4,0,8,,,,,7,,,57,63
81500,note_off,,,,,92,0,3,,,,,2,,,77,79
81500,note_off,,,,,92,0,1,,,,,0,,,77,59
81504,note_on,,,,,4,0,3,,,,,2,,,79,125
81504,note_on,,,,,4,0,1,,,,,0,,,79,93
81596,note_off,,,,,188,0,6,,,,,5,,,57,57
81596,note_off,,,,,92,0,3,,,,,2,,,79,79
81596,note_off,,,,,188,0,8,,,,,7,,,57,32
81596,note_off,,,,,188,0,7,,,,,6,,,45,51
81596,note_off,,,,,92,0,1,,,,,0,,,79,59
81596,note_off,,,,,188,0,5,,,,,4,,,72,55
81600,note_on,,,,,4,0,3,,,,,2,,,77,125
81600,note_on,,,,,4,0,6,,,,,5,,,45,86
81600,note_on,,,,,4,0,1,,,,,0,,,77,93
81600,note_on,,,,,4,0,8,,,,,7,,,45,63
81600,note_on,,,,,4,0,5,,,,,4,,,60,87
81600,note_on,,,,,4,0,7,,,,,6,,,33,77
81692,note_off,,,,,92,0,3,,,,,2,,,77,79
81692,note_off,,,,,92,0,1,,,,,0,,,77,59
81696,note_on,,,,,4,0,3,,,,,2,,,79,125
81696,note_on,,,,,4,0,1,,,,,0,,,79,93
81788,note_off,,,,,92,0,1,,,,,0,,,79,59
81788,note_off,,,,,188,0,8,,,,,7,,,45,32
81788,note_off,,,,,92,0,3,,,,,2,,,79,79
81788,note_off,,,,,188,0,6,,,,,5,,,45,57
81788,note_off,,,,,188,0,5,,,,,4,,,60,55
81788,note_off,,,,,188,0,7,,,,,6,,,33,51
81792,note_on,,,,,4,0,1,,,,,0,,,76,93
81792,note_on,,,,,4,0,3,,,,,2,,,76,125
81792,note_on,,,,,4,0,8,,,,,7,,,43,63
81792,note_on,,,,,4,0,5,,,,,4,,,59,87
81792,note_on,,,,,4,0,6,,,,,5,,,43,86
81792,note_on,,,,,4,0,7,,,,,6,,,31,77
81980,note_off,,,,,188,0,6,,,,,5,,,43,57
81980,note_off,,,,,188,0,3,,,,,2,,,76,79
81980,note_off,,,,,188,0,7,,,,,6,,,31,51
81980,note_off,,,,,188,0,8,,,,,7,,,43,32
81980,note_off,,,,,188,0,5,,,,,4,,,59,55
81980,note_off,,,,,188,0,1,,,,,0,,,76,59
81984,note_on,,,,,4,0,6,,,,,5,,,55,86
81984,note_on,,,,,4,0,8,,,,,7,,,55,63
81984,note_on,,,,,4,0,5,,,,,4,,,71,87
81984,note_on,,,,,4,0,3,,,,,2,,,64,125
81984,note_on,,,,,580,0,2,,,,,1,,,79,93
81984,note_on,,,,,4,0,7,,,,,6,,,43,77
81984,note_on,,,,,580,0,4,,,,,3,,,79,125
81984,note_on,,,,,4,0,1,,,,,0,,,64,93
82172,note_off,,,,,188,0,6,,,,,5,,,55,57
82172,note_off,,,,,188,0,8,,,,,7,,,55,32
82172,note_off,,,,,188,0,2,,,,,1,,,79,59
82172,note_off,,,,,188,0,4,,,,,3,,,79,79
82172,note_off,,,,,188,0,3,,,,,2,,,64,79
82172,note_off,,,,,188,0,5,,,,,4,,,71,55
82172,note_off,,,,,188,0,7,,,,,6,,,43,51
82172,note_off,,,,,188,0,1,,,,,0,,,64,59
82176,note_on,,,,,4,0,7,,,,,6,,,45,77
82176,note_on,,,,,4,0,8,,,,,7,,,57,63
82176,note_on,,,,,4,0,5,,,,,4,,,72,87
82176,note_on,,,,,4,0,6,,,,,5,,,57,86
82176,note_on,,,,,4,0,2,,,,,1,,,77,93
82176,note_on,,,,,4,0,4,,,,,3,,,77,125
82268,note_off,,,,,92,0,2,,,,,1,,,77,59
82268,note_off,,,,,92,0,4,,,,,3,,,77,79
82272,note_on,,,,,4,0,2,,,,,1,,,79,93
82272,note_on,,,,,4,0,4,,,,,3,,,79,125
82364,note_off,,,,,188,0,5,,,,,4,,,72,55
82364,note_off,,,,,188,0,8,,,,,7,,,57,32
82364,note_off,,,,,188,0,7,,,,,6,,,45,51
82364,note_off,,,,,92,0,4,,,,,3,,,79,79
82364,note_off,,,,,92,0,2,,,,,1,,,79,59
82364,note_off,,,,,188,0,6,,,,,5,,,57,57
82368,note_on,,,,,4,0,7,,,,,6,,,33,77
82368,note_on,,,,,4,0,2,,,,,1,,,77,93
82368,note_on,,,,,4,0,5,,,,,4,,,60,87
82368,note_on,,,,,4,0,4,,,,,3,,,77,125
82368,note_on,,,,,4,0,8,,,,,7,,,45,63
82368,note_on,,,,,4,0,6,,,,,5,,,45,86
82460,note_off,,,,,92,0,2,,,,,1,,,77,59
82460,note_off,,,,,92,0,4,,,,,3,,,77,79
82464,note_on,,,,,4,0,2,,,,,1,,,79,93
82464,note_on,,,,,4,0,4,,,,,3,,,79,125
82556,note_off,,,,,188,0,7,,,,,6,,,33,51
82556,note_off,,,,,188,0,5,,,,,4,,,60,55
82556,note_off,,,,,188,0,6,,,,,5,,,45,57
82556,note_off,,,,,92,0,4,,,,,3,,,79,79
82556,note_off,,,,,188,0,8,,,,,7,,,45,32
82556,note_off,,,,,92,0,2,,,,,1,,,79,59
82560,note_on,,,,,4,0,7,,,,,6,,,31,77
82560,note_on,,,,,4,0,6,,,,,5,,,43,86
82560,note_on,,,,,4,0,4,,,,,3,,,76,125
82560,note_on,,,,,4,0,5,,,,,4,,,59,87
82560,note_on,,,,,4,0,8,,,,,7,,,43,63
82560,note_on,,,,,4,0,2,,,,,1,,,76,93
82748,note_off,,,,,188,0,4,,,,,3,,,76,79
82748,note_off,,,,,188,0,2,,,,,1,,,76,59
82748,note_off,,,,,188,0,7,,,,,6,,,31,51
82748,note_off,,,,,188,0,6,,,,,5,,,43,57
82748,note_off,,,,,188,0,8,,,,,7,,,43,32
82748,note_off,,,,,188,0,5,,,,,4,,,59,55
82752,note_on,,,,,4,0,7,,,,,6,,,43,77
82752,note_on,,,,,4,0,4,,,,,3,,,64,125
82752,note_on,,,,,4,0,2,,,,,1,,,64,93
82752,note_on,,,,,4,0,5,,,,,4,,,71,87
82752,note_on,,,,,580,0,1,,,,,0,,,79,93
82752,note_on,,,,,4,0,6,,,,,5,,,55,86
82752,note_on,,,,,580,0,3,,,,,2,,,79,125
82752,note_on,,,,,4,0,8,,,,,7,,,55,63
82940,note_off,,,,,188,0,1,,,,,0,,,79,59
82940,note_off,,,,,188,0,2,,,,,1,,,64,59
82940,note_off,,,,,188,0,6,,,,,5,,,55,57
82940,note_off,,,,,188,0,3,,,,,2,,,79,79
82940,note_off,,,,,188,0,5,,,,,4,,,71,55
82940,note_off,,,,,188,0,8,,,,,7,,,55,32
82940,note_off,,,,,188,0,7,,,,,6,,,43,51
82940,note_off,,,,,188,0,4,,,,,3,,,64,79
82944,note_on,,,,,4,0,7,,,,,6,,,45,77
82944,note_on,,,,,4,0,6,,,,,5,,,57,86
82944,note_on,,,,,4,0,8,,,,,7,,,57,63
82944,note_on,,,,,4,0,3,,,,,2,,,77,125
82944,note_on,,,,,4,0,1,,,,,0,,,77,93
82944,note_on,,,,,4,0,5,,,,,4,,,72,87
83036,note_off,,,,,92,0,3,,,,,2,,,77,79
83036,note_off,,,,,92,0,1,,,,,0,,,77,59
83040,note_on,,,,,4,0,1,,,,,0,,,79,93
83040,note_on,,,,,4,0,3,,,,,2,,,79,125
83132,note_off,,,,,188,0,8,,,,,7,,,57,32
83132,note_off,,,,,188,0,6,,,,,5,,,57,57
83132,note_off,,,,,92,0,3,,,,,2,,,79,79
83132,note_off,,,,,188,0,7,,,,,6,,,45,51
83132,note_off,,,,,92,0,1,,,,,0,,,79,59
83132,note_off,,,,,188,0,5,,,,,4,,,72,55
83136,note_on,,,,,4,0,8,,,,,7,,,45,63
83136,note_on,,,,,4,0,3,,,,,2,,,77,125
83136,note_on,,,,,4,0,6,,,,,5,,,45,86
83136,note_on,,,,,4,0,7,,,,,6,,,33,77
83136,note_on,,,,,4,0,5,,,,,4,,,60,87
83136,note_on,,,,,4,0,1,,,,,0,,,77,93
83228,note_off,,,,,92,0,1,,,,,0,,,77,59
83228,note_off,,,,,92,0,3,,,,,2,,,77,79
83232,note_on,,,,,4,0,1,,,,,0,,,79,93
83232,note_on,,,,,4,0,3,,,,,2,,,79,125
83324,note_off,,,,,188,0,5,,,,,4,,,60,55
83324,note_off,,,,,188,0,8,,,,,7,,,45,32
83324,note_off,,,,,92,0,1,,,,,0,,,79,59
83324,note_off,,,,,188,0,6,,,,,5,,,45,57
83324,note_off,,,,,188,0,7,,,,,6,,,33,51
83324,note_off,,,,,92,0,3,,,,,2,,,79,79
83328,note_on,,,,,4,0,1,,,,,0,,,76,93
83328,note_on,,,,,4,0,3,,,,,2,,,76,125
83328,note_on,,,,,4,0,7,,,,,6,,,31,77
83328,note_on,,,,,4,0,8,,,,,7,,,43,63
83328,note_on,,,,,4,0,5,,,,,4,,,59,87
83328,note_on,,,,,4,0,6,,,,,5,,,43,86
83516,note_off,,,,,188,0,3,,,,,2,,,76,79
83516,note_off,,,,,188,0,6,,,,,5,,,43,57
83516,note_off,,,,,188,0,8,,,,,7,,,43,32
83516,note_off,,,,,188,0,1,,,,,0,,,76,59
83516,note_off,,,,,188,0,5,,,,,4,,,59,55
83516,note_off,,,,,188,0,7,,,,,6,,,31,51
83520,note_on,,,,,580,0,2,,,,,1,,,83,93
83520,note_on,,,,,4,0,8,,,,,7,,,55,63
83520,note_on,,,,,4,0,1,,,,,0,,,64,93
83520,note_on,,,,,580,0,4,,,,,3,,,83,125
83520,note_on,,,,,4,0,6,,,,,5,,,55,86
83520,note_on,,,,,4,0,3,,,,,2,,,64,125
83520,note_on,,,,,4,0,5,,,,,4,,,64,87
83520,note_on,,,,,4,0,7,,,,,6,,,43,77
83708,note_off,,,,,188,0,7,,,,,6,,,43,51
83708,note_off,,,,,188,0,2,,,,,1,,,83,59
83708,note_off,,,,,188,0,3,,,,,2,,,64,79
83708,note_off,,,,,188,0,5,,,,,4,,,64,55
83708,note_off,,,,,188,0,8,,,,,7,,,55,32
83708,note_off,,,,,188,0,4,,,,,3,,,83,79
83708,note_off,,,,,188,0,1,,,,,0,,,64,59
83708,note_off,,,,,188,0,6,,,,,5,,,55,57
83712,note_on,,,,,4,0,4,,,,,3,,,81,125
83712,note_on,,,,,4,0,6,,,,,5,,,54,86
83712,note_on,,,,,4,0,7,,,,,6,,,42,77
83712,note_on,,,,,4,0,2,,,,,1,,,81,93
83712,note_on,,,,,4,0,8,,,,,7,,,54,63
83712,note_on,,,,,4,0,5,,,,,4,,,63,87
83804,note_off,,,,,92,0,2,,,,,1,,,81,59
83804,note_off,,,,,92,0,4,,,,,3,,,81,79
83808,note_on,,,,,4,0,2,,,,,1,,,83,93
83808,note_on,,,,,4,0,4,,,,,3,,,83,125
83900,note_off,,,,,188,0,5,,,,,4,,,63,55
83900,note_off,,,,,188,0,6,,,,,5,,,54,57
83900,note_off,,,,,188,0,7,,,,,6,,,42,51
83900,note_off,,,,,92,0,4,,,,,3,,,83,79
83900,note_off,,,,,188,0,8,,,,,7,,,54,32
83900,note_off,,,,,92,0,2,,,,,1,,,83,59
83904,note_on,,,,,4,0,7,,,,,6,,,30,77
83904,note_on,,,,,4,0,8,,,,,7,,,42,63
83904,note_on,,,,,4,0,5,,,,,4,,,75,87
83904,note_on,,,,,4,0,6,,,,,5,,,42,86
83904,note_on,,,,,4,0,4,,,,,3,,,81,125
83904,note_on,,,,,4,0,2,,,,,1,,,81,93
83996,note_off,,,,,92,0,2,,,,,1,,,81,59
83996,note_off,,,,,92,0,4,,,,,3,,,81,79
84000,note_on,,,,,4,0,4,,,,,3,,,83,125
84000,note_on,,,,,4,0,2,,,,,1,,,83,93
84092,note_off,,,,,188,0,8,,,,,7,,,42,32
84092,note_off,,,,,92,0,2,,,,,1,,,83,59
84092,note_off,,,,,188,0,7,,,,,6,,,30,51
84092,note_off,,,,,92,0,4,,,,,3,,,83,79
84092,note_off,,,,,188,0,5,,,,,4,,,75,55
84092,note_off,,,,,188,0,6,,,,,5,,,42,57
84096,note_on,,,,,4,0,6,,,,,5,,,40,86
84096,note_on,,,,,4,0,5,,,,,4,,,76,87
84096,note_on,,,,,4,0,8,,,,,7,,,40,63
84096,note_on,,,,,4,0,2,,,,,1,,,79,93
84096,note_on,,,,,4,0,7,,,,,6,,,28,77
84096,note_on,,,,,4,0,4,,,,,3,,,79,125
84284,note_off,,,,,188,0,2,,,,,1,,,79,59
84284,note_off,,,,,188,0,6,,,,,5,,,40,57
84284,note_off,,,,,188,0,7,,,,,6,,,28,51
84284,note_off,,,,,188,0,5,,,,,4,,,76,55
84284,note_off,,,,,188,0,8,,,,,7,,,40,32
84284,note_off,,,,,188,0,4,,,,,3,,,79,79
84288,note_on,,,,,4,0,2,,,,,1,,,67,93
84288,note_on,,,,,4,0,5,,,,,4,,,71,87
84288,note_on,,,,,580,0,1,,,,,0,,,83,93
84288,note_on,,,,,4,0,4,,,,,3,,,67,125
84288,note_on,,,,,4,0,6,,,,,5,,,52,86
84288,note_on,,,,,4,0,8,,,,,7,,,52,63
84288,note_on,,,,,580,0,3,,,,,2,,,83,125
84288,note_on,,,,,4,0,7,,,,,6,,,40,77
84476,note_off,,,,,188,0,1,,,,,0,,,83,59
84476,note_off,,,,,188,0,6,,,,,5,,,52,57
84476,note_off,,,,,188,0,8,,,,,7,,,52,32
84476,note_off,,,,,188,0,7,,,,,6,,,40,51
84476,note_off,,,,,188,0,2,,,,,1,,,67,59
84476,note_off,,,,,188,0,5,,,,,4,,,71,55
84476,note_off,,,,,188,0,3,,,,,2,,,83,79
84476,note_off,,,,,188,0,4,,,,,3,,,67,79
84480,note_on,,,,,4,0,7,,,,,6,,,48,77
84480,note_on,,,,,4,0,5,,,,,4,,,72,87
84480,note_on,,,,,4,0,3,,,,,2,,,81,125
84480,note_on,,,,,4,0,2,,,,,1,,,76,93
84480,note_on,,,,,4,0,4,,,,,3,,,76,125
84480,note_on,,,,,4,0,6,,,,,5,,,60,86
84480,note_on,,,,,4,0,1,,,,,0,,,81,93
84480,note_on,,,,,4,0,8,,,,,7,,,60,63
84572,note_off,,,,,92,0,1,,,,,0,,,81,59
84572,note_off,,,,,92,0,3,,,,,2,,,81,79
84576,note_on,,,,,4,0,3,,,,,2,,,83,125
84576,note_on,,,,,4,0,1,,,,,0,,,83,93
84668,note_off,,,,,188,0,6,,,,,5,,,60,57
84668,note_off,,,,,188,0,7,,,,,6,,,48,51
84668,note_off,,,,,188,0,4,,,,,3,,,76,79
84668,note_off,,,,,188,0,5,,,,,4,,,72,55
84668,note_off,,,,,188,0,8,,,,,7,,,60,32
84668,note_off,,,,,92,0,3,,,,,2,,,83,79
84668,note_off,,,,,188,0,2,,,,,1,,,76,59
84668,note_off,,,,,92,0,1,,,,,0,,,83,59
84672,note_on,,,,,4,0,6,,,,,5,,,48,86
84672,note_on,,,,,4,0,5,,,,,4,,,64,87
84672,note_on,,,,,4,0,3,,,,,2,,,81,125
84672,note_on,,,,,4,0,4,,,,,3,,,64,125
84672,note_on,,,,,4,0,2,,,,,1,,,64,93
84672,note_on,,,,,4,0,1,,,,,0,,,81,93
84672,note_on,,,,,4,0,7,,,,,6,,,36,77
84672,note_on,,,,,4,0,8,,,,,7,,,48,63
84764,note_off,,,,,92,0,3,,,,,2,,,81,79
84764,note_off,,,,,92,0,1,,,,,0,,,81,59
84768,note_on,,,,,4,0,3,,,,,2,,,83,125
84768,note_on,,,,,4,0,1,,,,,0,,,83,93
84860,note_off,,,,,188,0,2,,,,,1,,,64,59
84860,note_off,,,,,188,0,7,,,,,6,,,36,51
84860,note_off,,,,,188,0,8,,,,,7,,,48,32
84860,note_off,,,,,188,0,6,,,,,5,,,48,57
84860,note_off,,,,,92,0,3,,,,,2,,,83,79
84860,note_off,,,,,188,0,5,,,,,4,,,64,55
84860,note_off,,,,,188,0,4,,,,,3,,,64,79
84860,note_off,,,,,92,0,1,,,,,0,,,83,59
84864,note_on,,,,,4,0,3,,,,,2,,,79,125
84864,note_on,,,,,4,0,1,,,,,0,,,79,93
84864,note_on,,,,,4,0,2,,,,,1,,,62,93
84864,note_on,,,,,4,0,4,,,,,3,,,62,125
84864,note_on,,,,,4,0,5,,,,,4,,,67,87
84864,note_on,,,,,4,0,7,,,,,6,,,35,77
84864,note_on,,,,,4,0,8,,,,,7,,,47,63
84864,note_on,,,,,4,0,6,,,,,5,,,47,86
84956,note_off,,,,,92,0,1,,,,,0,,,79,59
84956,note_off,,,,,92,0,3,,,,,2,,,79,79
84960,note_on,,,,,4,0,3,,,,,2,,,81,125
84960,note_on,,,,,4,0,1,,,,,0,,,81,93
85052,note_off,,,,,188,0,4,,,,,3,,,62,79
85052,note_off,,,,,188,0,8,,,,,7,,,47,32
85052,note_off,,,,,188,0,7,,,,,6,,,35,51
85052,note_off,,,,,188,0,6,,,,,5,,,47,57
85052,note_off,,,,,188,0,5,,,,,4,,,67,55
85052,note_off,,,,,188,0,2,,,,,1,,,62,59
85052,note_off,,,,,92,0,3,,,,,2,,,81,79
85052,note_off,,,,,92,0,1,,,,,0,,,81,59
85056,note_on,,,,,4,0,3,,,,,2,,,79,125
85056,note_on,,,,,4,0,6,,,,,5,,,59,86
85056,note_on,,,,,4,0,5,,,,,4,,,62,87
85056,note_on,,,,,4,0,7,,,,,6,,,47,77
85056,note_on,,,,,4,0,4,,,,,3,,,74,125
85056,note_on,,,,,4,0,1,,,,,0,,,79,93
85056,note_on,,,,,4,0,8,,,,,7,,,59,63
85056,note_on,,,,,4,0,2,,,,,1,,,74,93
85148,note_off,,,,,92,0,1,,,,,0,,,79,59
85148,note_off,,,,,92,0,3,,,,,2,,,79,79
85152,note_on,,,,,4,0,3,,,,,2,,,81,125
85152,note_on,,,,,4,0,1,,,,,0,,,81,93
85244,note_off,,,,,92,0,1,,,,,0,,,81,59
85244,note_off,,,,,188,0,8,,,,,7,,,59,32
85244,note_off,,,,,188,0,6,,,,,5,,,59,57
85244,note_off,,,,,188,0,7,,,,,6,,,47,51
85244,note_off,,,,,188,0,5,,,,,4,,,62,55
85244,note_off,,,,,188,0,2,,,,,1,,,74,59
85244,note_off,,,,,188,0,4,,,,,3,,,74,79
85244,note_off,,,,,92,0,3,,,,,2,,,81,79
85248,note_on,,,,,4,0,5,,,,,4,,,69,87
85248,note_on,,,,,4,0,7,,,,,6,,,45,77
85248,note_on,,,,,4,0,6,,,,,5,,,57,86
85248,note_on,,,,,4,0,3,,,,,2,,,77,125
85248,note_on,,,,,4,0,2,,,,,1,,,72,93
85248,note_on,,,,,4,0,4,,,,,3,,,72,125
85248,note_on,,,,,4,0,1,,,,,0,,,77,93
85248,note_on,,,,,4,0,8,,,,,7,,,57,63
85340,note_off,,,,,92,0,3,,,,,2,,,77,79
85340,note_off,,,,,92,0,1,,,,,0,,,77,59
85344,note_on,,,,,4,0,1,,,,,0,,,79,93
85344,note_on,,,,,4,0,3,,,,,2,,,79,125
85436,note_off,,,,,188,0,6,,,,,5,,,57,57
85436,note_off,,,,,188,0,4,,,,,3,,,72,79
85436,note_off,,,,,188,0,2,,,,,1,,,72,59
85436,note_off,,,,,92,0,1,,,,,0,,,79,59
85436,note_off,,,,,188,0,7,,,,,6,,,45,51
85436,note_off,,,,,92,0,3,,,,,2,,,79,79
85436,note_off,,,,,188,0,8,,,,,7,,,57,32
85436,note_off,,,,,188,0,5,,,,,4,,,69,55
85440,note_on,,,,,4,0,7,,,,,6,,,33,77
85440,note_on,,,,,4,0,3,,,,,2,,,77,125
85440,note_on,,,,,4,0,6,,,,,5,,,45,86
85440,note_on,,,,,4,0,8,,,,,7,,,45,63
85440,note_on,,,,,4,0,4,,,,,3,,,60,125
85440,note_on,,,,,4,0,5,,,,,4,,,60,87
85440,note_on,,,,,4,0,2,,,,,1,,,60,93
85440,note_on,,,,,4,0,1,,,,,0,,,77,93
85532,note_off,,,,,92,0,1,,,,,0,,,77,59
85532,note_off,,,,,92,0,3,,,,,2,,,77,79
85536,note_on,,,,,4,0,1,,,,,0,,,79,93
85536,note_on,,,,,4,0,3,,,,,2,,,79,125
85628,note_off,,,,,92,0,1,,,,,0,,,79,59
85628,note_off,,,,,188,0,6,,,,,5,,,45,57
85628,note_off,,,,,188,0,7,,,,,6,,,33,51
85628,note_off,,,,,188,0,2,,,,,1,,,60,59
85628,note_off,,,,,92,0,3,,,,,2,,,79,79
85628,note_off,,,,,188,0,8,,,,,7,,,45,32
85628,note_off,,,,,188,0,4,,,,,3,,,60,79
85628,note_off,,,,,188,0,5,,,,,4,,,60,55
85632,note_on,,,,,4,0,1,,,,,0,,,76,93
85632,note_on,,,,,4,0,6,,,,,5,,,43,86
85632,note_on,,,,,4,0,4,,,,,3,,,59,125
85632,note_on,,,,,4,0,7,,,,,6,,,31,77
85632,note_on,,,,,4,0,3,,,,,2,,,76,125
85632,note_on,,,,,4,0,8,,,,,7,,,43,63
85632,note_on,,,,,4,0,2,,,,,1,,,59,93
85632,note_on,,,,,4,0,5,,,,,4,,,64,87
85820,note_off,,,,,188,0,3,,,,,2,,,76,79
85820,note_off,,,,,188,0,6,,,,,5,,,43,57
85820,note_off,,,,,188,0,8,,,,,7,,,43,32
85820,note_off,,,,,188,0,7,,,,,6,,,31,51
85820,note_off,,,,,188,0,4,,,,,3,,,59,79
85820,note_off,,,,,188,0,5,,,,,4,,,64,55
85820,note_off,,,,,188,0,1,,,,,0,,,76,59
85820,note_off,,,,,188,0,2,,,,,1,,,59,59
85824,note_on,,,,,4,0,4,,,,,3,,,71,125
85824,note_on,,,,,4,0,6,,,,,5,,,55,86
85824,note_on,,,,,4,0,2,,,,,1,,,71,93
85824,note_on,,,,,4,0,1,,,,,0,,,64,93
85824,note_on,,,,,4,0,3,,,,,2,,,64,125
85824,note_on,,,,,4,0,8,,,,,7,,,55,63
85824,note_on,,,,,4,0,7,,,,,6,,,43,77
85824,note_on,,,,,4,0,5,,,,,4,,,67,87
86012,note_off,,,,,188,0,7,,,,,6,,,43,51
86012,note_off,,,,,188,0,6,,,,,5,,,55,57
86012,note_off,,,,,188,0,2,,,,,1,,,71,59
86012,note_off,,,,,188,0,1,,,,,0,,,64,59
86012,note_off,,,,,188,0,5,,,,,4,,,67,55
86012,note_off,,,,,188,0,8,,,,,7,,,55,32
86012,note_off,,,,,188,0,3,,,,,2,,,64,79
86012,note_off,,,,,188,0,4,,,,,3,,,71,79
86016,note_on,,,,,4,0,1,,,,,0,,,63,93
86016,note_on,,,,,4,0,7,,,,,6,,,42,77
86016,note_on,,,,,4,0,3,,,,,2,,,63,125
86016,note_on,,,,,4,0,6,,,,,5,,,54,86
86016,note_on,,,,,4,0,5,,,,,4,,,69,87
86016,note_on,,,,,4,0,4,,,,,3,,,69,125
86016,note_on,,,,,4,0,8,,,,,7,,,54,63
86016,note_on,,,,,4,0,2,,,,,1,,,69,93
86108,note_off,,,,,92,0,2,,,,,1,,,69,59
86108,note_off,,,,,92,0,4,,,,,3,,,69,79
86112,note_on,,,,,4,0,4,,,,,3,,,71,125
86112,note_on,,,,,4,0,2,,,,,1,,,71,93
86204,note_off,,,,,92,0,4,,,,,3,,,71,79
86204,note_off,,,,,188,0,3,,,,,2,,,63,79
86204,note_off,,,,,188,0,1,,,,,0,,,63,59
86204,note_off,,,,,188,0,8,,,,,7,,,54,32
86204,note_off,,,,,92,0,2,,,,,1,,,71,59
86204,note_off,,,,,188,0,6,,,,,5,,,54,57
86204,note_off,,,,,188,0,7,,,,,6,,,42,51
86204,note_off,,,,,188,0,5,,,,,4,,,69,55
86208,note_on,,,,,4,0,6,,,,,5,,,42,86
86208,note_on,,,,,4,0,2,,,,,1,,,69,93
86208,note_on,,,,,4,0,1,,,,,0,,,75,93
86208,note_on,,,,,4,0,8,,,,,7,,,42,63
86208,note_on,,,,,4,0,4,,,,,3,,,69,125
86208,note_on,,,,,4,0,3,,,,,2,,,75,125
86208,note_on,,,,,4,0,7,,,,,6,,,30,77
86208,note_on,,,,,4,0,5,,,,,4,,,66,87
86300,note_off,,,,,92,0,2,,,,,1,,,69,59
86300,note_off,,,,,92,0,4,,,,,3,,,69,79
86304,note_on,,,,,4,0,2,,,,,1,,,71,93
86304,note_on,,,,,4,0,4,,,,,3,,,71,125
86396,note_off,,,,,92,0,4,,,,,3,,,71,79
86396,note_off,,,,,188,0,8,,,,,7,,,42,32
86396,note_off,,,,,188,0,1,,,,,0,,,75,59
86396,note_off,,,,,92,0,2,,,,,1,,,71,59
86396,note_off,,,,,188,0,3,,,,,2,,,75,79
86396,note_off,,,,,188,0,6,,,,,5,,,42,57
86396,note_off,,,,,188,0,5,,,,,4,,,66,55
86396,note_off,,,,,188,0,7,,,,,6,,,30,51
86400,note_on,,,,,4,0,3,,,,,2,,,76,125
86400,note_on,,,,,4,0,4,,,,,3,,,67,125
86400,note_on,,,,,4,0,6,,,,,5,,,40,86
86400,note_on,,,,,4,0,2,,,,,1,,,67,93
86400,note_on,,,,,4,0,7,,,,,6,,,28,77
86400,note_on,,,,,4,0,1,,,,,0,,,76,93
86400,note_on,,,,,4,0,5,,,,,4,,,59,87
86400,note_on,,,,,4,0,8,,,,,7,,,40,63
86492,note_off,,,,,92,0,4,,,,,3,,,67,79
86492,note_off,,,,,92,0,2,,,,,1,,,67,59
86496,note_on,,,,,4,0,2,,,,,1,,,69,93
86496,note_on,,,,,4,0,4,,,,,3,,,69,125
86588,note_off,,,,,188,0,7,,,,,6,,,28,51
86588,note_off,,,,,92,0,4,,,,,3,,,69,79
86588,note_off,,,,,92,0,2,,,,,1,,,69,59
86588,note_off,,,,,188,0,5,,,,,4,,,59,55
86588,note_off,,,,,188,0,6,,,,,5,,,40,57
86588,note_off,,,,,188,0,8,,,,,7,,,40,32
86588,note_off,,,,,188,0,1,,,,,0,,,76,59
86588,note_off,,,,,188,0,3,,,,,2,,,76,79
86592,note_on,,,,,4,0,3,,,,,2,,,64,125
86592,note_on,,,,,4,0,2,,,,,1,,,67,93
86592,note_on,,,,,4,0,7,,,,,6,,,40,77
86592,note_on,,,,,4,0,4,,,,,3,,,67,125
86592,note_on,,,,,4,0,6,,,,,5,,,52,86
86592,note_on,,,,,4,0,8,,,,,7,,,52,63
86592,note_on,,,,,4,0,1,,,,,0,,,64,93
86592,note_on,,,,,4,0,5,,,,,4,,,59,87
86684,note_off,,,,,92,0,4,,,,,3,,,67,79
86684,note_off,,,,,92,0,2,,,,,1,,,67,59
86688,note_on,,,,,4,0,4,,,,,3,,,69,125
86688,note_on,,,,,4,0,2,,,,,1,,,69,93
86780,note_off,,,,,188,0,1,,,,,0,,,64,59
86780,note_off,,,,,188,0,6,,,,,5,,,52,57
86780,note_off,,,,,188,0,5,,,,,4,,,59,55
86780,note_off,,,,,188,0,8,,,,,7,,,52,32
86780,note_off,,,,,92,0,4,,,,,3,,,69,79
86780,note_off,,,,,92,0,2,,,,,1,,,69,59
86780,note_off,,,,,188,0,3,,,,,2,,,64,79
86780,note_off,,,,,188,0,7,,,,,6,,,40,51
86784,note_on,,,,,4,0,4,,,,,3,,,66,125
86784,note_on,,,,,4,0,3,,,,,2,,,63,125
86784,note_on,,,,,4,0,1,,,,,0,,,63,93
86784,note_on,,,,,4,0,6,,,,,5,,,59,86
86784,note_on,,,,,4,0,2,,,,,1,,,66,93
86784,note_on,,,,,4,0,8,,,,,7,,,59,63
86784,note_on,,,,,4,0,7,,,,,6,,,47,77
86784,note_on,,,,,4,0,5,,,,,4,,,59,87
86972,note_off,,,,,188,0,5,,,,,4,,,59,55
86972,note_off,,,,,188,0,8,,,,,7,,,59,32
86972,note_off,,,,,188,0,1,,,,,0,,,63,59
86972,note_off,,,,,188,0,6,,,,,5,,,59,57
86972,note_off,,,,,188,0,7,,,,,6,,,47,51
86972,note_off,,,,,188,0,3,,,,,2,,,63,79
86976,note_on,,,,,4,0,6,,,,,5,,,47,86
86976,note_on,,,,,4,0,7,,,,,6,,,35,77
86976,note_on,,,,,4,0,1,,,,,0,,,71,93
86976,note_on,,,,,4,0,8,,,,,7,,,47,63
86976,note_on,,,,,4,0,3,,,,,2,,,71,125
86976,note_on,,,,,4,0,5,,,,,4,,,71,87
87164,note_off,,,,,188,0,7,,,,,6,,,35,51
87164,note_off,,,,,380,0,2,,,,,1,,,66,59
87164,note_off,,,,,188,0,8,,,,,7,,,47,32
87164,note_off,,,,,188,0,3,,,,,2,,,71,79
87164,note_off,,,,,380,0,4,,,,,3,,,66,79
87164,note_off,,,,,188,0,1,,,,,0,,,71,59
87164,note_off,,,,,188,0,6,,,,,5,,,47,57
87168,note_on,,,,,4,0,1,,,,,0,,,72,93
87168,note_on,,,,,4,0,3,,,,,2,,,72,125
87356,note_off,,,,,188,0,3,,,,,2,,,72,79
87360,note_on,,,,,196,0,4,,,,,3,,,69,125
87360,note_on,,,,,196,0,7,,,,,6,,,45,77
87360,note_on,,,,,196,0,8,,,,,7,,,57,63
87360,note_on,,,,,196,0,2,,,,,1,,,69,93
87360,note_on,,,,,196,0,6,,,,,5,,,57,86
87360,note_off,,,,,384,0,5,,,,,4,,,71,55
87360,note_on,,,,,0,0,5,,,,,4,,,69,87
87452,note_off,,,,,92,0,7,,,,,6,,,45,51
87452,note_off,,,,,92,0,8,,,,,7,,,57,32
87452,note_off,,,,,92,0,4,,,,,3,,,69,79
87452,note_off,,,,,92,0,6,,,,,5,,,57,57
87452,note_off,,,,,92,0,2,,,,,1,,,69,59
87452,note_off,,,,,92,0,5,,,,,4,,,69,55
87456,note_on,,,,,4,0,6,,,,,5,,,56,86
87456,note_on,,,,,4,0,4,,,,,3,,,68,125
87456,note_on,,,,,4,0,8,,,,,7,,,56,63
87456,note_on,,,,,4,0,2,,,,,1,,,68,93
87456,note_on,,,,,4,0,7,,,,,6,,,44,77
87456,note_on,,,,,4,0,5,,,,,4,,,68,87
87548,note_off,,,,,92,0,4,,,,,3,,,68,79
87548,note_off,,,,,92,0,6,,,,,5,,,56,57
87548,note_off,,,,,92,0,8,,,,,7,,,56,32
87548,note_off,,,,,92,0,2,,,,,1,,,68,59
87548,note_off,,,,,92,0,7,,,,,6,,,44,51
87548,note_off,,,,,92,0,5,,,,,4,,,68,55
87552,note_on,,,,,4,0,6,,,,,5,,,57,86
87552,note_on,,,,,4,0,5,,,,,4,,,69,87
87552,note_on,,,,,4,0,8,,,,,7,,,57,63
87552,note_on,,,,,4,0,4,,,,,3,,,69,125
87552,note_on,,,,,4,0,2,,,,,1,,,69,93
87552,note_on,,,,,4,0,7,,,,,6,,,45,77
87648,note_on,,,,,292,0,3,,,,,2,,,71,125
87648,note_off,,,,,480,0,1,,,,,0,,,72,59
87648,note_on,,,,,0,0,1,,,,,0,,,71,93
87740,note_off,,,,,92,0,1,,,,,0,,,71,59
87740,note_off,,,,,92,0,3,,,,,2,,,71,79
87740,note_off,,,,,188,0,7,,,,,6,,,45,51
87740,note_off,,,,,188,0,2,,,,,1,,,69,59
87740,note_off,,,,,188,0,6,,,,,5,,,57,57
87740,note_off,,,,,188,0,8,,,,,7,,,57,32
87740,note_off,,,,,188,0,5,,,,,4,,,69,55
87740,note_off,,,,,188,0,4,,,,,3,,,69,79
87744,note_on,,,,,4,0,3,,,,,2,,,69,125
87744,note_on,,,,,4,0,7,,,,,6,,,36,77
87744,note_on,,,,,4,0,2,,,,,1,,,60,93
87744,note_on,,,,,4,0,6,,,,,5,,,48,86
87744,note_on,,,,,4,0,5,,,,,4,,,60,87
87744,note_on,,,,,4,0,4,,,,,3,,,60,125
87744,note_on,,,,,4,0,8,,,,,7,,,48,63
87744,note_on,,,,,4,0,1,,,,,0,,,69,93
87836,note_off,,,,,92,0,1,,,,,0,,,69,59
87836,note_off,,,,,92,0,3,,,,,2,,,69,79
87840,note_on,,,,,4,0,1,,,,,0,,,76,93
87840,note_on,,,,,4,0,3,,,,,2,,,76,125
87932,note_off,,,,,188,0,7,,,,,6,,,36,51
87932,note_off,,,,,188,0,2,,,,,1,,,60,59
87932,note_off,,,,,188,0,8,,,,,7,,,48,32
87932,note_off,,,,,188,0,5,,,,,4,,,60,55
87932,note_off,,,,,92,0,1,,,,,0,,,76,59
87932,note_off,,,,,92,0,3,,,,,2,,,76,79
87932,note_off,,,,,188,0,6,,,,,5,,,48,57
87932,note_off,,,,,188,0,4,,,,,3,,,60,79
87936,note_on,,,,,4,0,8,,,,,7,,,47,63
87936,note_on,,,,,4,0,2,,,,,1,,,59,93
87936,note_on,,,,,4,0,7,,,,,6,,,35,77
87936,note_on,,,,,4,0,5,,,,,4,,,59,87
87936,note_on,,,,,4,0,6,,,,,5,,,47,86
87936,note_on,,,,,4,0,1,,,,,0,,,74,93
87936,note_on,,,,,4,0,4,,,,,3,,,59,125
87936,note_on,,,,,4,0,3,,,,,2,,,74,125
88028,note_off,,,,,92,0,3,,,,,2,,,74,79
88028,note_off,,,,,92,0,1,,,,,0,,,74,59
88032,note_on,,,,,4,0,3,,,,,2,,,72,125
88032,note_on,,,,,4,0,1,,,,,0,,,72,93
88124,note_off,,,,,92,0,3,,,,,2,,,72,79
88124,note_off,,,,,188,0,7,,,,,6,,,35,51
88124,note_off,,,,,188,0,6,,,,,5,,,47,57
88124,note_off,,,,,188,0,4,,,,,3,,,59,79
88124,note_off,,,,,188,0,2,,,,,1,,,59,59
88124,note_off,,,,,92,0,1,,,,,0,,,72,59
88124,note_off,,,,,188,0,5,,,,,4,,,59,55
88124,note_off,,,,,188,0,8,,,,,7,,,47,32
88128,note_on,,,,,4,0,4,,,,,3,,,68,125
88128,note_on,,,,,4,0,6,,,,,5,,,56,86
88128,note_on,,,,,4,0,7,,,,,6,,,44,77
88128,note_on,,,,,4,0,8,,,,,7,,,56,63
88128,note_on,,,,,4,0,5,,,,,4,,,68,87
88128,note_on,,,,,4,0,1,,,,,0,,,71,93
88128,note_on,,,,,4,0,2,,,,,1,,,68,93
88128,note_on,,,,,4,0,3,,,,,2,,,71,125
88220,note_off,,,,,92,0,3,,,,,2,,,71,79
88220,note_off,,,,,92,0,1,,,,,0,,,71,59
88224,note_on,,,,,4,0,3,,,,,2,,,74,125
88224,note_on,,,,,4,0,1,,,,,0,,,74,93
88316,note_off,,,,,188,0,5,,,,,4,,,68,55
88316,note_off,,,,,92,0,3,,,,,2,,,74,79
88316,note_off,,,,,188,0,8,,,,,7,,,56,32
88316,note_off,,,,,188,0,6,,,,,5,,,56,57
88316,note_off,,,,,188,0,2,,,,,1,,,68,59
88316,note_off,,,,,92,0,1,,,,,0,,,74,59
88316,note_off,,,,,188,0,7,,,,,6,,,44,51
88316,note_off,,,,,188,0,4,,,,,3,,,68,79
88320,note_on,,,,,4,0,8,,,,,7,,,57,63
88320,note_on,,,,,4,0,1,,,,,0,,,72,93
88320,note_on,,,,,4,0,5,,,,,4,,,69,87
88320,note_on,,,,,4,0,2,,,,,1,,,69,93
88320,note_on,,,,,4,0,6,,,,,5,,,57,86
88320,note_on,,,,,4,0,3,,,,,2,,,72,125
88320,note_on,,,,,4,0,4,,,,,3,,,69,125
88320,note_on,,,,,4,0,7,,,,,6,,,45,77
88412,note_off,,,,,92,0,1,,,,,0,,,72,59
88412,note_off,,,,,92,0,3,,,,,2,,,72,79
88416,note_on,,,,,4,0,3,,,,,2,,,71,125
88416,note_on,,,,,4,0,1,,,,,0,,,71,93
88508,note_off,,,,,92,0,3,,,,,2,,,71,79
88508,note_off,,,,,188,0,5,,,,,4,,,69,55
88508,note_off,,,,,188,0,8,,,,,7,,,57,32
88508,note_off,,,,,188,0,7,,,,,6,,,45,51
88508,note_off,,,,,188,0,4,,,,,3,,,69,79
88508,note_off,,,,,188,0,6,,,,,5,,,57,57
88508,note_off,,,,,188,0,2,,,,,1,,,69,59
88508,note_off,,,,,92,0,1,,,,,0,,,71,59
88512,note_on,,,,,4,0,5,,,,,4,,,57,87
88512,note_on,,,,,4,0,2,,,,,1,,,57,93
88512,note_on,,,,,4,0,4,,,,,3,,,57,125
88512,note_on,,,,,4,0,3,,,,,2,,,69,125
88512,note_on,,,,,4,0,7,,,,,6,,,33,77
88512,note_on,,,,,4,0,8,,,,,7,,,45,63
88512,note_on,,,,,4,0,6,,,,,5,,,45,86
88512,note_on,,,,,4,0,1,,,,,0,,,69,93
88604,note_off,,,,,92,0,5,,,,,4,,,57,55
88604,note_off,,,,,92,0,6,,,,,5,,,45,57
88604,note_off,,,,,92,0,3,,,,,2,,,69,79
88604,note_off,,,,,92,0,7,,,,,6,,,33,51
88604,note_off,,,,,92,0,2,,,,,1,,,57,59
88604,note_off,,,,,92,0,4,,,,,3,,,57,79
88604,note_off,,,,,92,0,1,,,,,0,,,69,59
88608,note_on,,,,,4,0,3,,,,,2,,,68,125
88608,note_on,,,,,4,0,7,,,,,6,,,35,77
88608,note_on,,,,,4,0,1,,,,,0,,,68,93
88608,note_on,,,,,4,0,6,,,,,5,,,47,86
88608,note_on,,,,,4,0,5,,,,,4,,,59,87
88608,note_on,,,,,4,0,4,,,,,3,,,59,125
88608,note_on,,,,,4,0,2,,,,,1,,,59,93
88700,note_off,,,,,92,0,4,,,,,3,,,59,79
88700,note_off,,,,,92,0,5,,,,,4,,,59,55
88700,note_off,,,,,92,0,3,,,,,2,,,68,79
88700,note_off,,,,,92,0,7,,,,,6,,,35,51
88700,note_off,,,,,92,0,6,,,,,5,,,47,57
88700,note_off,,,,,92,0,1,,,,,0,,,68,59
88700,note_off,,,,,92,0,2,,,,,1,,,59,59
88704,note_on,,,,,4,0,2,,,,,1,,,60,93
88704,note_on,,,,,4,0,4,,,,,3,,,60,125
88704,note_on,,,,,4,0,3,,,,,2,,,69,125
88704,note_on,,,,,4,0,7,,,,,6,,,36,77
88704,note_on,,,,,4,0,1,,,,,0,,,69,93
88704,note_off,,,,,192,0,8,,,,,7,,,45,32
88704,note_on,,,,,0,0,8,,,,,7,,,48,63
88704,note_on,,,,,4,0,6,,,,,5,,,48,86
88704,note_on,,,,,4,0,5,,,,,4,,,60,87
88796,note_off,,,,,92,0,5,,,,,4,,,60,55
88796,note_off,,,,,92,0,4,,,,,3,,,60,79
88796,note_off,,,,,92,0,1,,,,,0,,,69,59
88796,note_off,,,,,92,0,6,,,,,5,,,48,57
88796,note_off,,,,,92,0,7,,,,,6,,,36,51
88796,note_off,,,,,92,0,3,,,,,2,,,69,79
88796,note_off,,,,,92,0,2,,,,,1,,,60,59
88800,note_on,,,,,4,0,1,,,,,0,,,71,93
88800,note_on,,,,,4,0,7,,,,,6,,,38,77
88800,note_on,,,,,4,0,5,,,,,4,,,62,87
88800,note_on,,,,,4,0,6,,,,,5,,,50,86
88800,note_on,,,,,4,0,4,,,,,3,,,62,125
88800,note_on,,,,,4,0,2,,,,,1,,,62,93
88800,note_on,,,,,4,0,3,,,,,2,,,71,125
88892,note_off,,,,,92,0,4,,,,,3,,,62,79
88892,note_off,,,,,92,0,5,,,,,4,,,62,55
88892,note_off,,,,,92,0,7,,,,,6,,,38,51
88892,note_off,,,,,92,0,3,,,,,2,,,71,79
88892,note_off,,,,,92,0,6,,,,,5,,,50,57
88892,note_off,,,,,92,0,2,,,,,1,,,62,59
88892,note_off,,,,,92,0,1,,,,,0,,,71,59
88896,note_on,,,,,4,0,7,,,,,6,,,40,77
88896,note_on,,,,,4,0,2,,,,,1,,,64,93
88896,note_off,,,,,192,0,8,,,,,7,,,48,32
88896,note_on,,,,,0,0,8,,,,,7,,,52,63
88896,note_on,,,,,4,0,5,,,,,4,,,64,87
88896,note_on,,,,,4,0,3,,,,,2,,,72,125
88896,note_on,,,,,4,0,1,,,,,0,,,72,93
88896,note_on,,,,,4,0,4,,,,,3,,,64,125
88896,note_on,,,,,4,0,6,,,,,5,,,52,86
88988,note_off,,,,,92,0,2,,,,,1,,,64,59
88988,note_off,,,,,92,0,7,,,,,6,,,40,51
88988,note_off,,,,,92,0,8,,,,,7,,,52,32
88988,note_off,,,,,92,0,4,,,,,3,,,64,79
88988,note_off,,,,,92,0,5,,,,,4,,,64,55
88988,note_off,,,,,92,0,6,,,,,5,,,52,57
88988,note_off,,,,,92,0,1,,,,,0,,,72,59
88988,note_off,,,,,92,0,3,,,,,2,,,72,79
88992,note_on,,,,,4,0,3,,,,,2,,,74,125
88992,note_on,,,,,4,0,4,,,,,3,,,66,125
88992,note_on,,,,,4,0,5,,,,,4,,,66,87
88992,note_on,,,,,4,0,6,,,,,5,,,54,86
88992,note_on,,,,,4,0,1,,,,,0,,,74,93
88992,note_on,,,,,4,0,2,,,,,1,,,66,93
88992,note_on,,,,,4,0,8,,,,,7,,,54,63
88992,note_on,,,,,4,0,7,,,,,6,,,42,77
89084,note_off,,,,,92,0,4,,,,,3,,,66,79
89084,note_off,,,,,92,0,2,,,,,1,,,66,59
89084,note_off,,,,,92,0,6,,,,,5,,,54,57
89084,note_off,,,,,92,0,7,,,,,6,,,42,51
89084,note_off,,,,,92,0,5,,,,,4,,,66,55
89084,note_off,,,,,92,0,1,,,,,0,,,74,59
89084,note_off,,,,,92,0,3,,,,,2,,,74,79
89084,note_off,,,,,92,0,8,,,,,7,,,54,32
89088,note_on,,,,,4,0,7,,,,,6,,,43,77
89088,note_on,,,,,4,0,1,,,,,0,,,71,93
89088,note_on,,,,,4,0,4,,,,,3,,,67,125
89088,note_on,,,,,4,0,5,,,,,4,,,67,87
89088,note_on,,,,,4,0,8,,,,,7,,,55,63
89088,note_on,,,,,4,0,3,,,,,2,,,71,125
89088,note_on,,,,,4,0,6,,,,,5,,,55,86
89088,note_on,,,,,4,0,2,,,,,1,,,67,93
89180,note_off,,,,,92,0,1,,,,,0,,,71,59
89180,note_off,,,,,92,0,3,,,,,2,,,71,79
89184,note_on,,,,,4,0,3,,,,,2,,,69,125
89184,note_on,,,,,4,0,1,,,,,0,,,69,93
89276,note_off,,,,,188,0,5,,,,,4,,,67,55
89276,note_off,,,,,92,0,1,,,,,0,,,69,59
89276,note_off,,,,,92,0,3,,,,,2,,,69,79
89276,note_off,,,,,188,0,8,,,,,7,,,55,32
89276,note_off,,,,,188,0,7,,,,,6,,,43,51
89276,note_off,,,,,188,0,4,,,,,3,,,67,79
89276,note_off,,,,,188,0,6,,,,,5,,,55,57
89276,note_off,,,,,188,0,2,,,,,1,,,67,59
89280,note_on,,,,,4,0,7,,,,,6,,,35,77
89280,note_on,,,,,4,0,5,,,,,4,,,59,87
89280,note_on,,,,,4,0,1,,,,,0,,,67,93
89280,note_on,,,,,4,0,4,,,,,3,,,59,125
89280,note_on,,,,,4,0,6,,,,,5,,,47,86
89280,note_on,,,,,4,0,3,,,,,2,,,67,125
89280,note_on,,,,,4,0,8,,,,,7,,,47,63
89280,note_on,,,,,4,0,2,,,,,1,,,59,93
89372,note_off,,,,,92,0,1,,,,,0,,,67,59
89372,note_off,,,,,92,0,3,,,,,2,,,67,79
89376,note_on,,,,,4,0,3,,,,,2,,,74,125
89376,note_on,,,,,4,0,1,,,,,0,,,74,93
89468,note_off,,,,,92,0,3,,,,,2,,,74,79
89468,note_off,,,,,188,0,2,,,,,1,,,59,59
89468,note_off,,,,,188,0,7,,,,,6,,,35,51
89468,note_off,,,,,188,0,4,,,,,3,,,59,79
89468,note_off,,,,,188,0,5,,,,,4,,,59,55
89468,note_off,,,,,188,0,8,,,,,7,,,47,32
89468,note_off,,,,,92,0,1,,,,,0,,,74,59
89468,note_off,,,,,188,0,6,,,,,5,,,47,57
89472,note_on,,,,,4,0,8,,,,,7,,,45,63
89472,note_on,,,,,4,0,3,,,,,2,,,72,125
89472,note_on,,,,,4,0,5,,,,,4,,,57,87
89472,note_on,,,,,4,0,4,,,,,3,,,57,125
89472,note_on,,,,,4,0,2,,,,,1,,,57,93
89472,note_on,,,,,4,0,7,,,,,6,,,33,77
89472,note_on,,,,,4,0,6,,,,,5,,,45,86
89472,note_on,,,,,4,0,1,,,,,0,,,72,93
89564,note_off,,,,,92,0,1,,,,,0,,,72,59
89564,note_off,,,,,92,0,3,,,,,2,,,72,79
89568,note_on,,,,,4,0,1,,,,,0,,,71,93
89568,note_on,,,,,4,0,3,,,,,2,,,71,125
89660,note_off,,,,,188,0,5,,,,,4,,,57,55
89660,note_off,,,,,92,0,1,,,,,0,,,71,59
89660,note_off,,,,,188,0,7,,,,,6,,,33,51
89660,note_off,,,,,188,0,2,,,,,1,,,57,59
89660,note_off,,,,,92,0,3,,,,,2,,,71,79
89660,note_off,,,,,188,0,6,,,,,5,,,45,57
89660,note_off,,,,,188,0,4,,,,,3,,,57,79
89660,note_off,,,,,188,0,8,,,,,7,,,45,32
89664,note_on,,,,,4,0,6,,,,,5,,,54,86
89664,note_on,,,,,4,0,4,,,,,3,,,66,125
89664,note_on,,,,,4,0,8,,,,,7,,,54,63
89664,note_on,,,,,4,0,5,,,,,4,,,66,87
89664,note_on,,,,,4,0,2,,,,,1,,,66,93
89664,note_on,,,,,4,0,3,,,,,2,,,69,125
89664,note_on,,,,,4,0,1,,,,,0,,,69,93
89664,note_on,,,,,4,0,7,,,,,6,,,42,77
89756,note_off,,,,,92,0,3,,,,,2,,,69,79
89756,note_off,,,,,92,0,1,,,,,0,,,69,59
89760,note_on,,,,,4,0,3,,,,,2,,,72,125
89760,note_on,,,,,4,0,1,,,,,0,,,72,93
89852,note_off,,,,,188,0,8,,,,,7,,,54,32
89852,note_off,,,,,188,0,5,,,,,4,,,66,55
89852,note_off,,,,,92,0,1,,,,,0,,,72,59
89852,note_off,,,,,92,0,3,,,,,2,,,72,79
89852,note_off,,,,,188,0,6,,,,,5,,,54,57
89852,note_off,,,,,188,0,2,,,,,1,,,66,59
89852,note_off,,,,,188,0,4,,,,,3,,,66,79
89852,note_off,,,,,188,0,7,,,,,6,,,42,51
89856,note_on,,,,,4,0,4,,,,,3,,,67,125
89856,note_on,,,,,4,0,6,,,,,5,,,55,86
89856,note_on,,,,,4,0,2,,,,,1,,,67,93
89856,note_on,,,,,4,0,1,,,,,0,,,71,93
89856,note_on,,,,,4,0,7,,,,,6,,,43,77
89856,note_on,,,,,4,0,3,,,,,2,,,71,125
89856,note_on,,,,,4,0,8,,,,,7,,,55,63
89856,note_on,,,,,4,0,5,,,,,4,,,67,87
89948,note_off,,,,,92,0,1,,,,,0,,,71,59
89948,note_off,,,,,92,0,3,,,,,2,,,71,79
89952,note_on,,,,,4,0,3,,,,,2,,,74,125
89952,note_on,,,,,4,0,1,,,,,0,,,74,93
90044,note_off,,,,,188,0,6,,,,,5,,,55,57
90044,note_off,,,,,188,0,8,,,,,7,,,55,32
90044,note_off,,,,,92,0,3,,,,,2,,,74,79
90044,note_off,,,,,92,0,1,,,,,0,,,74,59
90044,note_off,,,,,188,0,5,,,,,4,,,67,55
90044,note_off,,,,,188,0,2,,,,,1,,,67,59
90044,note_off,,,,,188,0,4,,,,,3,,,67,79
90044,note_off,,,,,188,0,7,,,,,6,,,43,51
90048,note_on,,,,,4,0,8,,,,,7,,,43,63
90048,note_on,,,,,4,0,6,,,,,5,,,43,86
90048,note_on,,,,,4,0,5,,,,,4,,,55,87
90048,note_on,,,,,4,0,7,,,,,6,,,31,77
90048,note_on,,,,,4,0,2,,,,,1,,,55,93
90048,note_on,,,,,4,0,3,,,,,2,,,76,125
90048,note_on,,,,,4,0,1,,,,,0,,,76,93
90048,note_on,,,,,4,0,4,,,,,3,,,55,125
90140,note_off,,,,,92,0,6,,,,,5,,,43,57
90140,note_off,,,,,92,0,3,,,,,2,,,76,79
90140,note_off,,,,,92,0,1,,,,,0,,,76,59
90140,note_off,,,,,92,0,8,,,,,7,,,43,32
90140,note_off,,,,,92,0,7,,,,,6,,,31,51
90144,note_on,,,,,4,0,7,,,,,6,,,33,77
90144,note_on,,,,,4,0,1,,,,,0,,,78,93
90144,note_on,,,,,4,0,8,,,,,7,,,45,63
90144,note_on,,,,,4,0,3,,,,,2,,,78,125
90144,note_on,,,,,4,0,6,,,,,5,,,45,86
90236,note_off,,,,,92,0,3,,,,,2,,,78,79
90236,note_off,,,,,188,0,2,,,,,1,,,55,59
90236,note_off,,,,,92,0,1,,,,,0,,,78,59
90236,note_off,,,,,188,0,4,,,,,3,,,55,79
90236,note_off,,,,,92,0,6,,,,,5,,,45,57
90236,note_off,,,,,188,0,5,,,,,4,,,55,55
90236,note_off,,,,,92,0,7,,,,,6,,,33,51
90236,note_off,,,,,92,0,8,,,,,7,,,45,32
90240,note_on,,,,,4,0,5,,,,,4,,,62,87
90240,note_on,,,,,4,0,6,,,,,5,,,47,86
90240,note_on,,,,,4,0,8,,,,,7,,,47,63
90240,note_on,,,,,4,0,7,,,,,6,,,35,77
90240,note_on,,,,,4,0,1,,,,,0,,,79,93
90240,note_on,,,,,4,0,3,,,,,2,,,79,125
90336,note_on,,,,,100,0,4,,,,,3,,,71,125
90336,note_on,,,,,100,0,2,,,,,1,,,71,93
90428,note_off,,,,,92,0,4,,,,,3,,,71,79
90428,note_off,,,,,188,0,8,,,,,7,,,47,32
90428,note_off,,,,,188,0,6,,,,,5,,,47,57
90428,note_off,,,,,92,0,2,,,,,1,,,71,59
90428,note_off,,,,,188,0,3,,,,,2,,,79,79
90428,note_off,,,,,188,0,5,,,,,4,,,62,55
90428,note_off,,,,,188,0,7,,,,,6,,,35,51
90428,note_off,,,,,188,0,1,,,,,0,,,79,59
90432,note_on,,,,,4,0,1,,,,,0,,,76,93
90432,note_on,,,,,4,0,6,,,,,5,,,43,86
90432,note_on,,,,,4,0,5,,,,,4,,,59,87
90432,note_on,,,,,4,0,3,,,,,2,,,76,125
90432,note_on,,,,,4,0,4,,,,,3,,,73,125
90432,note_on,,,,,4,0,7,,,,,6,,,31,77
90432,note_on,,,,,4,0,2,,,,,1,,,73,93
90432,note_on,,,,,4,0,8,,,,,7,,,43,63
90524,note_off,,,,,92,0,4,,,,,3,,,73,79
90524,note_off,,,,,92,0,2,,,,,1,,,73,59
90528,note_on,,,,,4,0,4,,,,,3,,,74,125
90528,note_on,,,,,4,0,2,,,,,1,,,74,93
90620,note_off,,,,,92,0,4,,,,,3,,,74,79
90620,note_off,,,,,188,0,6,,,,,5,,,43,57
90620,note_off,,,,,188,0,1,,,,,0,,,76,59
90620,note_off,,,,,188,0,5,,,,,4,,,59,55
90620,note_off,,,,,188,0,7,,,,,6,,,31,51
90620,note_off,,,,,188,0,3,,,,,2,,,76,79
90620,note_off,,,,,92,0,2,,,,,1,,,74,59
90620,note_off,,,,,188,0,8,,,,,7,,,43,32
90624,note_on,,,,,4,0,5,,,,,4,,,64,87
90624,note_on,,,,,4,0,6,,,,,5,,,45,86
90624,note_on,,,,,4,0,8,,,,,7,,,45,63
90624,note_on,,,,,4,0,4,,,,,3,,,73,125
90624,note_on,,,,,4,0,2,,,,,1,,,73,93
90624,note_on,,,,,4,0,7,,,,,6,,,33,77
90720,note_on,,,,,100,0,3,,,,,2,,,76,125
90720,note_on,,,,,100,0,1,,,,,0,,,76,93
90812,note_off,,,,,92,0,1,,,,,0,,,76,59
90812,note_off,,,,,188,0,6,,,,,5,,,45,57
90812,note_off,,,,,188,0,7,,,,,6,,,33,51
90812,note_off,,,,,188,0,2,,,,,1,,,73,59
90812,note_off,,,,,188,0,4,,,,,3,,,73,79
90812,note_off,,,,,92,0,3,,,,,2,,,76,79
90812,note_off,,,,,188,0,8,,,,,7,,,45,32
90816,note_on,,,,,4,0,4,,,,,3,,,61,125
90816,note_on,,,,,4,0,6,,,,,5,,,57,86
90816,note_on,,,,,4,0,3,,,,,2,,,78,125
90816,note_on,,,,,4,0,8,,,,,7,,,57,63
90816,note_on,,,,,4,0,2,,,,,1,,,61,93
90816,note_on,,,,,4,0,1,,,,,0,,,78,93
90816,note_on,,,,,4,0,7,,,,,6,,,45,77
90908,note_off,,,,,92,0,6,,,,,5,,,57,57
90908,note_off,,,,,92,0,7,,,,,6,,,45,51
90908,note_off,,,,,92,0,1,,,,,0,,,78,59
90908,note_off,,,,,92,0,3,,,,,2,,,78,79
90908,note_off,,,,,92,0,8,,,,,7,,,57,32
90912,note_on,,,,,4,0,7,,,,,6,,,43,77
90912,note_on,,,,,4,0,1,,,,,0,,,79,93
90912,note_on,,,,,4,0,3,,,,,2,,,79,125
90912,note_on,,,,,4,0,8,,,,,7,,,55,63
90912,note_on,,,,,4,0,6,,,,,5,,,55,86
91004,note_off,,,,,188,0,4,,,,,3,,,61,79
91004,note_off,,,,,92,0,3,,,,,2,,,79,79
91004,note_off,,,,,380,0,5,,,,,4,,,64,55
91004,note_off,,,,,92,0,6,,,,,5,,,55,57
91004,note_off,,,,,188,0,2,,,,,1,,,61,59
91004,note_off,,,,,92,0,7,,,,,6,,,43,51
91004,note_off,,,,,92,0,1,,,,,0,,,79,59
91004,note_off,,,,,92,0,8,,,,,7,,,55,32
91008,note_on,,,,,4,0,7,,,,,6,,,42,77
91008,note_on,,,,,4,0,5,,,,,4,,,66,87
91008,note_on,,,,,4,0,6,,,,,5,,,54,86
91008,note_on,,,,,4,0,8,,,,,7,,,54,63
91008,note_on,,,,,4,0,1,,,,,0,,,81,93
91008,note_on,,,,,4,0,3,,,,,2,,,81,125
91104,note_on,,,,,100,0,4,,,,,3,,,73,125
91104,note_on,,,,,100,0,2,,,,,1,,,73,93
91196,note_off,,,,,188,0,6,,,,,5,,,54,57
91196,note_off,,,,,92,0,4,,,,,3,,,73,79
91196,note_off,,,,,92,0,2,,,,,1,,,73,59
91196,note_off,,,,,188,0,8,,,,,7,,,54,32
91196,note_off,,,,,188,0,7,,,,,6,,,42,51
91196,note_off,,,,,188,0,1,,,,,0,,,81,59
91196,note_off,,,,,188,0,3,,,,,2,,,81,79
91200,note_on,,,,,4,0,3,,,,,2,,,78,125
91200,note_on,,,,,4,0,2,,,,,1,,,75,93
91200,note_on,,,,,4,0,7,,,,,6,,,30,77
91200,note_on,,,,,4,0,8,,,,,7,,,42,63
91200,note_on,,,,,4,0,6,,,,,5,,,42,86
91200,note_on,,,,,4,0,1,,,,,0,,,78,93
91200,note_on,,,,,4,0,4,,,,,3,,,75,125
91292,note_off,,,,,92,0,4,,,,,3,,,75,79
91292,note_off,,,,,92,0,2,,,,,1,,,75,59
91296,note_on,,,,,4,0,4,,,,,3,,,76,125
91296,note_on,,,,,4,0,2,,,,,1,,,76,93
91388,note_off,,,,,188,0,6,,,,,5,,,42,57
91388,note_off,,,,,188,0,1,,,,,0,,,78,59
91388,note_off,,,,,92,0,2,,,,,1,,,76,59
91388,note_off,,,,,188,0,8,,,,,7,,,42,32
91388,note_off,,,,,92,0,4,,,,,3,,,76,79
91388,note_off,,,,,188,0,7,,,,,6,,,30,51
91388,note_off,,,,,188,0,3,,,,,2,,,78,79
91392,note_on,,,,,4,0,7,,,,,6,,,35,77
91392,note_on,,,,,4,0,4,,,,,3,,,75,125
91392,note_on,,,,,4,0,8,,,,,7,,,47,63
91392,note_on,,,,,4,0,6,,,,,5,,,47,86
91392,note_on,,,,,4,0,2,,,,,1,,,75,93
91488,note_on,,,,,100,0,1,,,,,0,,,78,93
91488,note_on,,,,,100,0,3,,,,,2,,,78,125
91580,note_off,,,,,188,0,2,,,,,1,,,75,59
91580,note_off,,,,,188,0,6,,,,,5,,,47,57
91580,note_off,,,,,92,0,3,,,,,2,,,78,79
91580,note_off,,,,,188,0,4,,,,,3,,,75,79
91580,note_off,,,,,188,0,7,,,,,6,,,35,51
91580,note_off,,,,,92,0,1,,,,,0,,,78,59
91580,note_off,,,,,188,0,8,,,,,7,,,47,32
91584,note_on,,,,,4,0,3,,,,,2,,,79,125
91584,note_on,,,,,4,0,2,,,,,1,,,63,93
91584,note_on,,,,,4,0,1,,,,,0,,,79,93
91584,note_on,,,,,4,0,8,,,,,7,,,59,63
91584,note_on,,,,,4,0,6,,,,,5,,,59,86
91584,note_on,,,,,4,0,7,,,,,6,,,47,77
91584,note_on,,,,,4,0,4,,,,,3,,,63,125
91676,note_off,,,,,92,0,7,,,,,6,,,47,51
91676,note_off,,,,,92,0,8,,,,,7,,,59,32
91676,note_off,,,,,92,0,6,,,,,5,,,59,57
91676,note_off,,,,,92,0,1,,,,,0,,,79,59
91676,note_off,,,,,92,0,3,,,,,2,,,79,79
91680,note_on,,,,,4,0,7,,,,,6,,,45,77
91680,note_on,,,,,4,0,6,,,,,5,,,57,86
91680,note_on,,,,,4,0,8,,,,,7,,,57,63
91680,note_on,,,,,4,0,1,,,,,0,,,81,93
91680,note_on,,,,,4,0,3,,,,,2,,,81,125
91772,note_off,,,,,92,0,6,,,,,5,,,57,57
91772,note_off,,,,,188,0,2,,,,,1,,,63,59
91772,note_off,,,,,92,0,7,,,,,6,,,45,51
91772,note_off,,,,,92,0,1,,,,,0,,,81,59
91772,note_off,,,,,92,0,3,,,,,2,,,81,79
91772,note_off,,,,,188,0,4,,,,,3,,,63,79
91772,note_off,,,,,92,0,8,,,,,7,,,57,32
91776,note_on,,,,,4,0,8,,,,,7,,,55,63
91776,note_on,,,,,4,0,1,,,,,0,,,83,93
91776,note_on,,,,,4,0,3,,,,,2,,,83,125
91776,note_on,,,,,4,0,6,,,,,5,,,55,86
91776,note_on,,,,,0,0,5,,,,,4,,,67,87
91776,note_on,,,,,4,0,7,,,,,6,,,43,77
91776,note_off,,,,,768,0,5,,,,,4,,,66,55
91872,note_on,,,,,100,0,4,,,,,3,,,75,125
91872,note_on,,,,,100,0,2,,,,,1,,,75,93
91964,note_off,,,,,92,0,4,,,,,3,,,75,79
91964,note_off,,,,,188,0,7,,,,,6,,,43,51
91964,note_off,,,,,188,0,1,,,,,0,,,83,59
91964,note_off,,,,,188,0,8,,,,,7,,,55,32
91964,note_off,,,,,188,0,6,,,,,5,,,55,57
91964,note_off,,,,,92,0,2,,,,,1,,,75,59
91964,note_off,,,,,188,0,3,,,,,2,,,83,79
91968,note_on,,,,,4,0,2,,,,,1,,,76,93
91968,note_on,,,,,4,0,7,,,,,6,,,35,77
91968,note_on,,,,,4,0,8,,,,,7,,,47,63
91968,note_on,,,,,4,0,6,,,,,5,,,47,86
91968,note_on,,,,,4,0,1,,,,,0,,,79,93
91968,note_on,,,,,4,0,3,,,,,2,,,79,125
91968,note_on,,,,,4,0,4,,,,,3,,,76,125
92060,note_off,,,,,92,0,4,,,,,3,,,76,79
92060,note_off,,,,,92,0,2,,,,,1,,,76,59
92064,note_on,,,,,4,0,2,,,,,1,,,78,93
92064,note_on,,,,,4,0,4,,,,,3,,,78,125
92156,note_off,,,,,188,0,1,,,,,0,,,79,59
92156,note_off,,,,,188,0,7,,,,,6,,,35,51
92156,note_off,,,,,188,0,8,,,,,7,,,47,32
92156,note_off,,,,,92,0,2,,,,,1,,,78,59
92156,note_off,,,,,188,0,6,,,,,5,,,47,57
92156,note_off,,,,,188,0,3,,,,,2,,,79,79
92156,note_off,,,,,92,0,4,,,,,3,,,78,79
92160,note_on,,,,,4,0,2,,,,,1,,,76,93
92160,note_on,,,,,4,0,6,,,,,5,,,48,86
92160,note_on,,,,,4,0,8,,,,,7,,,48,63
92160,note_on,,,,,4,0,7,,,,,6,,,36,77
92160,note_on,,,,,4,0,4,,,,,3,,,76,125
92256,note_on,,,,,100,0,3,,,,,2,,,81,125
92256,note_on,,,,,100,0,1,,,,,0,,,81,93
92348,note_off,,,,,92,0,1,,,,,0,,,81,59
92348,note_off,,,,,188,0,7,,,,,6,,,36,51
92348,note_off,,,,,188,0,6,,,,,5,,,48,57
92348,note_off,,,,,188,0,8,,,,,7,,,48,32
92348,note_off,,,,,92,0,3,,,,,2,,,81,79
92348,note_off,,,,,188,0,4,,,,,3,,,76,79
92348,note_off,,,,,188,0,2,,,,,1,,,76,59
92352,note_on,,,,,0,0,5,,,,,4,,,64,87
92352,note_off,,,,,576,0,5,,,,,4,,,67,55
92352,note_on,,,,,4,0,7,,,,,6,,,48,77
92352,note_on,,,,,4,0,6,,,,,5,,,60,86
92352,note_on,,,,,4,0,3,,,,,2,,,83,125
92352,note_on,,,,,4,0,1,,,,,0,,,83,93
92352,note_on,,,,,4,0,2,,,,,1,,,81,93
92352,note_on,,,,,4,0,4,,,,,3,,,81,125
92352,note_on,,,,,4,0,8,,,,,7,,,60,63
92444,note_off,,,,,92,0,1,,,,,0,,,83,59
92444,note_off,,,,,92,0,3,,,,,2,,,83,79
92448,note_on,,,,,4,0,3,,,,,2,,,84,125
92448,note_on,,,,,4,0,1,,,,,0,,,84,93
92540,note_off,,,,,188,0,6,,,,,5,,,60,57
92540,note_off,,,,,92,0,1,,,,,0,,,84,59
92540,note_off,,,,,188,0,8,,,,,7,,,60,32
92540,note_off,,,,,188,0,5,,,,,4,,,64,55
92540,note_off,,,,,92,0,3,,,,,2,,,84,79
92540,note_off,,,,,188,0,7,,,,,6,,,48,51
92544,note_on,,,,,4,0,7,,,,,6,,,47,77
92544,note_on,,,,,4,0,3,,,,,2,,,86,125
92544,note_on,,,,,4,0,5,,,,,4,,,62,87
92544,note_on,,,,,4,0,1,,,,,0,,,86,93
92544,note_on,,,,,4,0,8,,,,,7,,,59,63
92544,note_on,,,,,4,0,6,,,,,5,,,59,86
92640,note_off,,,,,288,0,4,,,,,3,,,81,79
92640,note_on,,,,,0,0,2,,,,,1,,,80,93
92640,note_off,,,,,288,0,2,,,,,1,,,81,59
92640,note_on,,,,,0,0,4,,,,,3,,,80,125
92732,note_off,,,,,92,0,4,,,,,3,,,80,79
92732,note_off,,,,,92,0,2,,,,,1,,,80,59
92732,note_off,,,,,188,0,8,,,,,7,,,59,32
92732,note_off,,,,,188,0,7,,,,,6,,,47,51
92732,note_off,,,,,188,0,1,,,,,0,,,86,59
92732,note_off,,,,,188,0,5,,,,,4,,,62,55
92732,note_off,,,,,188,0,3,,,,,2,,,86,79
92732,note_off,,,,,188,0,6,,,,,5,,,59,57
92736,note_on,,,,,4,0,1,,,,,0,,,74,93
92736,note_on,,,,,4,0,2,,,,,1,,,81,93
92736,note_on,,,,,4,0,4,,,,,3,,,81,125
92736,note_on,,,,,4,0,6,,,,,5,,,47,86
92736,note_on,,,,,4,0,7,,,,,6,,,35,77
92736,note_on,,,,,4,0,8,,,,,7,,,47,63
92736,note_on,,,,,4,0,5,,,,,4,,,68,87
92736,note_on,,,,,4,0,3,,,,,2,,,74,125
92828,note_off,,,,,92,0,2,,,,,1,,,81,59
92828,note_off,,,,,92,0,4,,,,,3,,,81,79
92832,note_on,,,,,4,0,4,,,,,3,,,83,125
92832,note_on,,,,,4,0,2,,,,,1,,,83,93
92924,note_off,,,,,92,0,4,,,,,3,,,83,79
92924,note_off,,,,,188,0,5,,,,,4,,,68,55
92924,note_off,,,,,188,0,1,,,,,0,,,74,59
92924,note_off,,,,,188,0,3,,,,,2,,,74,79
92924,note_off,,,,,92,0,2,,,,,1,,,83,59
92924,note_off,,,,,188,0,7,,,,,6,,,35,51
92924,note_off,,,,,188,0,6,,,,,5,,,47,57
92924,note_off,,,,,188,0,8,,,,,7,,,47,32
92928,note_on,,,,,4,0,3,,,,,2,,,72,125
92928,note_on,,,,,4,0,1,,,,,0,,,72,93
92928,note_on,,,,,4,0,6,,,,,5,,,45,86
92928,note_on,,,,,4,0,8,,,,,7,,,45,63
92928,note_on,,,,,4,0,7,,,,,6,,,33,77
92928,note_on,,,,,4,0,2,,,,,1,,,76,93
92928,note_on,,,,,4,0,4,,,,,3,,,76,125
92928,note_on,,,,,4,0,5,,,,,4,,,69,87
93020,note_off,,,,,92,0,2,,,,,1,,,76,59
93020,note_off,,,,,92,0,4,,,,,3,,,76,79
93024,note_on,,,,,4,0,4,,,,,3,,,78,125
93024,note_on,,,,,4,0,2,,,,,1,,,78,93
93116,note_off,,,,,92,0,2,,,,,1,,,78,59
93116,note_off,,,,,188,0,8,,,,,7,,,45,32
93116,note_off,,,,,188,0,3,,,,,2,,,72,79
93116,note_off,,,,,188,0,6,,,,,5,,,45,57
93116,note_off,,,,,92,0,4,,,,,3,,,78,79
93116,note_off,,,,,188,0,5,,,,,4,,,69,55
93116,note_off,,,,,188,0,7,,,,,6,,,33,51
93116,note_off,,,,,188,0,1,,,,,0,,,72,59
93120,note_on,,,,,4,0,6,,,,,5,,,57,86
93120,note_on,,,,,4,0,3,,,,,2,,,84,125
93120,note_on,,,,,4,0,7,,,,,6,,,45,77
93120,note_on,,,,,4,0,5,,,,,4,,,69,87
93120,note_on,,,,,4,0,1,,,,,0,,,84,93
93120,note_on,,,,,4,0,8,,,,,7,,,57,63
93120,note_on,,,,,4,0,2,,,,,1,,,76,93
93120,note_on,,,,,4,0,4,,,,,3,,,76,125
93212,note_off,,,,,92,0,4,,,,,3,,,76,79
93212,note_off,,,,,92,0,2,,,,,1,,,76,59
93216,note_on,,,,,4,0,2,,,,,1,,,78,93
93216,note_on,,,,,4,0,4,,,,,3,,,78,125
93308,note_off,,,,,188,0,8,,,,,7,,,57,32
93308,note_off,,,,,188,0,5,,,,,4,,,69,55
93308,note_off,,,,,92,0,4,,,,,3,,,78,79
93308,note_off,,,,,188,0,7,,,,,6,,,45,51
93308,note_off,,,,,188,0,6,,,,,5,,,57,57
93308,note_off,,,,,92,0,2,,,,,1,,,78,59
93308,note_off,,,,,188,0,1,,,,,0,,,84,59
93308,note_off,,,,,188,0,3,,,,,2,,,84,79
93312,note_on,,,,,4,0,2,,,,,1,,,80,93
93312,note_on,,,,,4,0,1,,,,,0,,,83,93
93312,note_on,,,,,4,0,8,,,,,7,,,55,63
93312,note_on,,,,,4,0,3,,,,,2,,,83,125
93312,note_on,,,,,4,0,4,,,,,3,,,80,125
93312,note_on,,,,,4,0,7,,,,,6,,,43,77
93312,note_on,,,,,4,0,5,,,,,4,,,71,87
93312,note_on,,,,,4,0,6,,,,,5,,,55,86
93404,note_off,,,,,92,0,1,,,,,0,,,83,59
93404,note_off,,,,,92,0,3,,,,,2,,,83,79
93408,note_on,,,,,4,0,3,,,,,2,,,76,125
93408,note_on,,,,,4,0,1,,,,,0,,,76,93
93500,note_off,,,,,92,0,1,,,,,0,,,76,59
93500,note_off,,,,,188,0,6,,,,,5,,,55,57
93500,note_off,,,,,188,0,4,,,,,3,,,80,79
93500,note_off,,,,,188,0,8,,,,,7,,,55,32
93500,note_off,,,,,188,0,5,,,,,4,,,71,55
93500,note_off,,,,,92,0,3,,,,,2,,,76,79
93500,note_off,,,,,188,0,2,,,,,1,,,80,59
93500,note_off,,,,,188,0,7,,,,,6,,,43,51
93504,note_on,,,,,4,0,5,,,,,4,,,64,87
93504,note_on,,,,,4,0,6,,,,,5,,,43,86
93504,note_on,,,,,4,0,3,,,,,2,,,78,125
93504,note_on,,,,,4,0,7,,,,,6,,,31,77
93504,note_on,,,,,4,0,2,,,,,1,,,71,93
93504,note_on,,,,,4,0,8,,,,,7,,,43,63
93504,note_on,,,,,4,0,4,,,,,3,,,71,125
93504,note_on,,,,,4,0,1,,,,,0,,,78,93
93596,note_off,,,,,92,0,3,,,,,2,,,78,79
93596,note_off,,,,,92,0,1,,,,,0,,,78,59
93600,note_on,,,,,4,0,3,,,,,2,,,79,125
93600,note_on,,,,,4,0,1,,,,,0,,,79,93
93692,note_off,,,,,92,0,3,,,,,2,,,79,79
93692,note_off,,,,,188,0,4,,,,,3,,,71,79
93692,note_off,,,,,188,0,6,,,,,5,,,43,57
93692,note_off,,,,,188,0,2,,,,,1,,,71,59
93692,note_off,,,,,188,0,7,,,,,6,,,31,51
93692,note_off,,,,,188,0,8,,,,,7,,,43,32
93692,note_off,,,,,188,0,5,,,,,4,,,64,55
93692,note_off,,,,,92,0,1,,,,,0,,,79,59
93696,note_on,,,,,4,0,8,,,,,7,,,42,63
93696,note_on,,,,,4,0,5,,,,,4,,,63,87
93696,note_on,,,,,4,0,3,,,,,2,,,81,125
93696,note_on,,,,,4,0,4,,,,,3,,,75,125
93696,note_on,,,,,4,0,2,,,,,1,,,75,93
93696,note_on,,,,,4,0,6,,,,,5,,,42,86
93696,note_on,,,,,4,0,1,,,,,0,,,81,93
93696,note_on,,,,,4,0,7,,,,,6,,,30,77
93788,note_off,,,,,92,0,1,,,,,0,,,81,59
93788,note_off,,,,,92,0,3,,,,,2,,,81,79
93792,note_on,,,,,4,0,3,,,,,2,,,79,120
93792,note_on,,,,,4,0,1,,,,,0,,,79,90
93884,note_off,,,,,188,0,7,,,,,6,,,30,51
93884,note_off,,,,,188,0,5,,,,,4,,,63,55
93884,note_off,,,,,188,0,4,,,,,3,,,75,79
93884,note_off,,,,,92,0,1,,,,,0,,,79,59
93884,note_off,,,,,188,0,6,,,,,5,,,42,57
93884,note_off,,,,,92,0,3,,,,,2,,,79,79
93884,note_off,,,,,188,0,8,,,,,7,,,42,32
93884,note_off,,,,,188,0,2,,,,,1,,,75,59
93888,note_on,,,,,4,0,4,,,,,3,,,75,117
93888,note_on,,,,,4,0,1,,,,,0,,,78,87
93888,note_on,,,,,4,0,8,,,,,7,,,47,63
93888,note_on,,,,,4,0,6,,,,,5,,,47,81
93888,note_on,,,,,4,0,5,,,,,4,,,71,81
93888,note_on,,,,,4,0,2,,,,,1,,,75,87
93888,note_on,,,,,4,0,7,,,,,6,,,35,72
93888,note_on,,,,,4,0,3,,,,,2,,,78,117
93980,note_off,,,,,92,0,3,,,,,2,,,78,79
93980,note_off,,,,,92,0,1,,,,,0,,,78,59
93984,note_on,,,,,4,0,1,,,,,0,,,81,84
93984,note_on,,,,,4,0,3,,,,,2,,,81,113
94076,note_off,,,,,92,0,1,,,,,0,,,81,59
94076,note_off,,,,,92,0,3,,,,,2,,,81,79
94076,note_off,,,,,188,0,8,,,,,7,,,47,32
94076,note_off,,,,,188,0,6,,,,,5,,,47,57
94076,note_off,,,,,188,0,5,,,,,4,,,71,55
94076,note_off,,,,,188,0,2,,,,,1,,,75,59
94076,note_off,,,,,188,0,7,,,,,6,,,35,51
94076,note_off,,,,,188,0,4,,,,,3,,,75,79
94080,note_on,,,,,4,0,6,,,,,5,,,52,75
94080,note_on,,,,,4,0,4,,,,,3,,,76,109
94080,note_on,,,,,4,0,5,,,,,4,,,71,76
94080,note_on,,,,,4,0,3,,,,,2,,,79,109
94080,note_on,,,,,4,0,7,,,,,6,,,40,67
94080,note_on,,,,,4,0,2,,,,,1,,,76,81
94080,note_on,,,,,4,0,1,,,,,0,,,79,81
94080,note_on,,,,,4,0,8,,,,,7,,,52,63
94172,note_off,,,,,92,0,3,,,,,2,,,79,79
94172,note_off,,,,,92,0,1,,,,,0,,,79,59
94176,note_on,,,,,4,0,1,,,,,0,,,78,79
94176,note_on,,,,,4,0,3,,,,,2,,,78,105
94268,note_off,,,,,188,0,2,,,,,1,,,76,59
94268,note_off,,,,,92,0,1,,,,,0,,,78,59
94268,note_off,,,,,188,0,5,,,,,4,,,71,55
94268,note_off,,,,,92,0,3,,,,,2,,,78,79
94268,note_off,,,,,188,0,8,,,,,7,,,52,32
94268,note_off,,,,,188,0,7,,,,,6,,,40,51
94268,note_off,,,,,188,0,4,,,,,3,,,76,79
94268,note_off,,,,,188,0,6,,,,,5,,,52,57
94272,note_on,,,,,4,0,2,,,,,1,,,76,76
94272,note_on,,,,,4,0,8,,,,,7,,,55,63
94272,note_on,,,,,4,0,7,,,,,6,,,43,62
94272,note_on,,,,,4,0,1,,,,,0,,,76,76
94272,note_on,,,,,4,0,6,,,,,5,,,55,70
94272,note_on,,,,,4,0,5,,,,,4,,,71,71
94272,note_on,,,,,4,0,4,,,,,3,,,76,102
94272,note_on,,,,,4,0,3,,,,,2,,,76,102
94364,note_off,,,,,92,0,1,,,,,0,,,76,59
94364,note_off,,,,,92,0,3,,,,,2,,,76,79
94368,note_on,,,,,4,0,3,,,,,2,,,79,98
94368,note_on,,,,,4,0,1,,,,,0,,,79,73
94460,note_off,,,,,92,0,3,,,,,2,,,79,79
94460,note_off,,,,,188,0,8,,,,,7,,,55,32
94460,note_off,,,,,188,0,7,,,,,6,,,43,51
94460,note_off,,,,,188,0,2,,,,,1,,,76,59
94460,note_off,,,,,188,0,6,,,,,5,,,55,57
94460,note_off,,,,,92,0,1,,,,,0,,,79,59
94460,note_off,,,,,188,0,4,,,,,3,,,76,79
94460,note_off,,,,,188,0,5,,,,,4,,,71,55
94464,note_on,,,,,4,0,6,,,,,5,,,57,64
94464,note_on,,,,,4,0,7,,,,,6,,,45,57
94464,note_on,,,,,4,0,3,,,,,2,,,78,93
94464,note_on,,,,,4,0,2,,,,,1,,,76,69
94464,note_on,,,,,4,0,5,,,,,4,,,72,65
94464,note_on,,,,,4,0,1,,,,,0,,,78,69
94464,note_on,,,,,4,0,4,,,,,3,,,76,93
94464,note_on,,,,,4,0,8,,,,,7,,,57,63
94652,note_off,,,,,188,0,5,,,,,4,,,72,55
94652,note_off,,,,,188,0,4,,,,,3,,,76,79
94652,note_off,,,,,188,0,2,,,,,1,,,76,59
94652,note_off,,,,,188,0,6,,,,,5,,,57,57
94652,note_off,,,,,188,0,1,,,,,0,,,78,59
94652,note_off,,,,,188,0,3,,,,,2,,,78,79
94652,note_off,,,,,188,0,7,,,,,6,,,45,51
94652,note_off,,,,,188,0,8,,,,,7,,,57,32
94656,note_on,,,,,4,0,8,,,,,7,,,59,63
94656,note_on,,,,,4,0,7,,,,,6,,,47,53
94656,note_on,,,,,4,0,5,,,,,4,,,71,60
94656,note_on,,,,,4,0,6,,,,,5,,,59,59
94656,note_on,,,,,4,0,4,,,,,3,,,76,86
94656,note_on,,,,,4,0,3,,,,,2,,,78,86
94656,note_on,,,,,4,0,1,,,,,0,,,78,64
94656,note_on,,,,,4,0,2,,,,,1,,,76,64
94844,note_off,,,,,188,0,4,,,,,3,,,76,79
94844,note_off,,,,,188,0,7,,,,,6,,,47,51
94844,note_off,,,,,188,0,2,,,,,1,,,76,59
94844,note_off,,,,,188,0,1,,,,,0,,,78,59
94844,note_off,,,,,188,0,6,,,,,5,,,59,57
94844,note_off,,,,,188,0,3,,,,,2,,,78,79
94844,note_off,,,,,188,0,8,,,,,7,,,59,32
94844,note_off,,,,,188,0,5,,,,,4,,,71,55
94848,note_on,,,,,4,0,4,,,,,3,,,76,78
94848,note_on,,,,,4,0,3,,,,,2,,,78,78
94848,note_on,,,,,4,0,7,,,,,6,,,48,48
94848,note_on,,,,,4,0,5,,,,,4,,,69,54
94848,note_on,,,,,4,0,8,,,,,7,,,60,61
94848,note_on,,,,,4,0,6,,,,,5,,,60,54
94848,note_on,,,,,4,0,1,,,,,0,,,78,58
94848,note_on,,,,,4,0,2,,,,,1,,,76,58
95036,note_off,,,,,188,0,8,,,,,7,,,60,32
95036,note_off,,,,,188,0,2,,,,,1,,,76,59
95036,note_off,,,,,188,0,6,,,,,5,,,60,57
95036,note_off,,,,,188,0,5,,,,,4,,,69,55
95036,note_off,,,,,188,0,3,,,,,2,,,78,79
95036,note_off,,,,,188,0,1,,,,,0,,,78,59
95036,note_off,,,,,188,0,7,,,,,6,,,48,51
95036,note_off,,,,,188,0,4,,,,,3,,,76,79
95040,note_on,,,,,4,0,8,,,,,7,,,59,55
95040,note_on,,,,,4,0,5,,,,,4,,,71,49
95040,note_on,,,,,4,0,1,,,,,0,,,78,53
95040,note_on,,,,,4,0,6,,,,,5,,,59,48
95040,note_on,,,,,4,0,4,,,,,3,,,76,71
95040,note_on,,,,,4,0,3,,,,,2,,,78,71
95040,note_on,,,,,4,0,7,,,,,6,,,47,42
95040,note_on,,,,,4,0,2,,,,,1,,,76,53
95228,note_off,,,,,188,0,4,,,,,3,,,76,79
95228,note_off,,,,,188,0,5,,,,,4,,,71,55
95228,note_off,,,,,188,0,3,,,,,2,,,78,79
95228,note_off,,,,,188,0,2,,,,,1,,,76,59
95228,note_off,,,,,188,0,8,,,,,7,,,59,32
95228,note_off,,,,,188,0,1,,,,,0,,,78,59
95228,note_off,,,,,188,0,6,,,,,5,,,59,57
95228,note_off,,,,,188,0,7,,,,,6,,,47,51
95232,note_on,,,,,4,0,3,,,,,2,,,78,62
95232,note_on,,,,,4,0,8,,,,,7,,,57,49
95232,note_on,,,,,4,0,2,,,,,1,,,76,46
95232,note_on,,,,,4,0,7,,,,,6,,,45,38
95232,note_on,,,,,4,0,1,,,,,0,,,78,46
95232,note_on,,,,,4,0,5,,,,,4,,,72,43
95232,note_on,,,,,4,0,6,,,,,5,,,57,43
95232,note_on,,,,,4,0,4,,,,,3,,,76,62
95420,note_off,,,,,188,0,7,,,,,6,,,45,51
95420,note_off,,,,,188,0,2,,,,,1,,,76,59
95420,note_off,,,,,188,0,1,,,,,0,,,78,59
95420,note_off,,,,,188,0,5,,,,,4,,,72,55
95420,note_off,,,,,188,0,6,,,,,5,,,57,57
95420,note_off,,,,,188,0,3,,,,,2,,,78,79
95420,note_off,,,,,188,0,4,,,,,3,,,76,79
95420,note_off,,,,,188,0,8,,,,,7,,,57,32
95424,note_on,,,,,4,0,8,,,,,7,,,59,50
95424,note_on,,,,,4,0,6,,,,,5,,,59,44
95424,note_on,,,,,4,0,1,,,,,0,,,78,48
95424,note_on,,,,,4,0,7,,,,,6,,,47,39
95424,note_on,,,,,4,0,3,,,,,2,,,78,64
95424,note_on,,,,,4,0,4,,,,,3,,,76,64
95424,note_on,,,,,4,0,2,,,,,1,,,76,48
95424,note_on,,,,,4,0,5,,,,,4,,,71,45
95612,note_off,,,,,188,0,4,,,,,3,,,76,79
95612,note_off,,,,,188,0,2,,,,,1,,,76,59
95612,note_off,,,,,188,0,5,,,,,4,,,71,55
95612,note_off,,,,,188,0,8,,,,,7,,,59,32
95612,note_off,,,,,188,0,7,,,,,6,,,47,51
95612,note_off,,,,,188,0,3,,,,,2,,,78,79
95612,note_off,,,,,188,0,6,,,,,5,,,59,57
95612,note_off,,,,,188,0,1,,,,,0,,,78,59
95616,note_on,,,,,4,0,8,,,,,7,,,60,52
95616,note_on,,,,,4,0,7,,,,,6,,,48,40
95616,note_on,,,,,4,0,2,,,,,1,,,76,50
95616,note_on,,,,,4,0,3,,,,,2,,,78,66
95616,note_on,,,,,4,0,4,,,,,3,,,76,66
95616,note_on,,,,,4,0,1,,,,,0,,,78,50
95616,note_on,,,,,4,0,5,,,,,4,,,69,46
95616,note_on,,,,,4,0,6,,,,,5,,,60,45
95804,note_off,,,,,188,0,7,,,,,6,,,48,51
95804,note_off,,,,,188,0,4,,,,,3,,,76,79
95804,note_off,,,,,188,0,3,,,,,2,,,78,79
95804,note_off,,,,,188,0,1,,,,,0,,,78,59
95804,note_off,,,,,188,0,8,,,,,7,,,60,32
95804,note_off,,,,,188,0,6,,,,,5,,,60,57
95804,note_off,,,,,188,0,2,,,,,1,,,76,59
95804,note_off,,,,,188,0,5,,,,,4,,,69,55
95808,note_on,,,,,4,0,6,,,,,5,,,59,47
95808,note_on,,,,,4,0,3,,,,,2,,,78,70
95808,note_on,,,,,4,0,7,,,,,6,,,47,42
95808,note_on,,,,,4,0,2,,,,,1,,,76,52
95808,note_on,,,,,4,0,8,,,,,7,,,59,54
95808,note_on,,,,,4,0,4,,,,,3,,,76,70
95808,note_on,,,,,4,0,1,,,,,0,,,78,52
95808,note_on,,,,,4,0,5,,,,,4,,,71,48
95996,note_off,,,,,188,0,4,,,,,3,,,76,79
95996,note_off,,,,,188,0,7,,,,,6,,,47,51
95996,note_off,,,,,188,0,1,,,,,0,,,78,59
95996,note_off,,,,,188,0,2,,,,,1,,,76,59
95996,note_off,,,,,188,0,3,,,,,2,,,78,79
95996,note_off,,,,,188,0,8,,,,,7,,,59,32
95996,note_off,,,,,188,0,5,,,,,4,,,71,55
95996,note_off,,,,,188,0,6,,,,,5,,,59,57
96000,note_on,,,,,4,0,5,,,,,4,,,72,50
96000,note_on,,,,,4,0,8,,,,,7,,,57,56
96000,note_on,,,,,4,0,2,,,,,1,,,76,53
96000,note_on,,,,,4,0,4,,,,,3,,,76,72
96000,note_on,,,,,4,0,6,,,,,5,,,57,49
96000,note_on,,,,,4,0,7,,,,,6,,,45,43
96000,note_on,,,,,4,0,3,,,,,2,,,78,72
96000,note_on,,,,,4,0,1,,,,,0,,,78,53
96188,note_off,,,,,188,0,7,,,,,6,,,45,51
96188,note_off,,,,,188,0,6,,,,,5,,,57,57
96188,note_off,,,,,188,0,3,,,,,2,,,78,79
96188,note_off,,,,,188,0,2,,,,,1,,,76,59
96188,note_off,,,,,188,0,8,,,,,7,,,57,32
96188,note_off,,,,,188,0,1,,,,,0,,,78,59
96188,note_off,,,,,188,0,5,,,,,4,,,72,55
96188,note_off,,,,,188,0,4,,,,,3,,,76,79
96192,note_on,,,,,4,0,8,,,,,7,,,59,58
96192,note_on,,,,,4,0,4,,,,,3,,,76,74
96192,note_on,,,,,4,0,7,,,,,6,,,47,45
96192,note_on,,,,,4,0,6,,,,,5,,,59,51
96192,note_on,,,,,4,0,1,,,,,0,,,78,55
96192,note_on,,,,,4,0,2,,,,,1,,,76,55
96192,note_on,,,,,4,0,5,,,,,4,,,71,52
96192,note_on,,,,,4,0,3,,,,,2,,,78,74
96380,note_off,,,,,188,0,3,,,,,2,,,78,79
96380,note_off,,,,,188,0,7,,,,,6,,,47,51
96380,note_off,,,,,188,0,8,,,,,7,,,59,32
96380,note_off,,,,,188,0,1,,,,,0,,,78,59
96380,note_off,,,,,188,0,5,,,,,4,,,71,55
96380,note_off,,,,,188,0,4,,,,,3,,,76,79
96380,note_off,,,,,188,0,2,,,,,1,,,76,59
96380,note_off,,,,,188,0,6,,,,,5,,,59,57
96384,note_on,,,,,4,0,7,,,,,6,,,48,47
96384,note_on,,,,,4,0,5,,,,,4,,,69,53
96384,note_on,,,,,4,0,4,,,,,3,,,76,77
96384,note_on,,,,,4,0,3,,,,,2,,,78,77
96384,note_on,,,,,4,0,1,,,,,0,,,78,57
96384,note_on,,,,,4,0,8,,,,,7,,,60,60
96384,note_on,,,,,4,0,6,,,,,5,,,60,53
96384,note_on,,,,,4,0,2,,,,,1,,,76,57
96572,note_off,,,,,188,0,4,,,,,3,,,76,79
96572,note_off,,,,,188,0,3,,,,,2,,,78,79
96572,note_off,,,,,188,0,5,,,,,4,,,69,55
96572,note_off,,,,,188,0,2,,,,,1,,,76,59
96572,note_off,,,,,188,0,1,,,,,0,,,78,59
96572,note_off,,,,,188,0,6,,,,,5,,,60,57
96572,note_off,,,,,188,0,7,,,,,6,,,48,51
96572,note_off,,,,,188,0,8,,,,,7,,,60,32
96576,note_on,,,,,4,0,2,,,,,1,,,76,59
96576,note_on,,,,,4,0,7,,,,,6,,,45,49
96576,note_on,,,,,4,0,1,,,,,0,,,78,59
96576,note_on,,,,,4,0,5,,,,,4,,,72,55
96576,note_on,,,,,4,0,8,,,,,7,,,57,62
96576,note_on,,,,,4,0,4,,,,,3,,,76,79
96576,note_on,,,,,4,0,6,,,,,5,,,57,54
96576,note_on,,,,,4,0,3,,,,,2,,,78,79
96764,note_off,,,,,188,0,1,,,,,0,,,78,59
96764,note_off,,,,,188,0,6,,,,,5,,,57,57
96764,note_off,,,,,188,0,3,,,,,2,,,78,79
96764,note_off,,,,,188,0,8,,,,,7,,,57,32
96764,note_off,,,,,188,0,7,,,,,6,,,45,51
96764,note_off,,,,,188,0,5,,,,,4,,,72,55
96764,note_off,,,,,188,0,2,,,,,1,,,76,59
96764,note_off,,,,,188,0,4,,,,,3,,,76,79
96768,note_on,,,,,4,0,7,,,,,6,,,47,50
96768,note_on,,,,,4,0,1,,,,,0,,,78,61
96768,note_on,,,,,4,0,4,,,,,3,,,75,81
96768,note_on,,,,,4,0,2,,,,,1,,,75,61
96768,note_on,,,,,4,0,3,,,,,2,,,78,81
96768,note_on,,,,,4,0,5,,,,,4,,,71,57
96768,note_on,,,,,4,0,6,,,,,5,,,59,56
96768,note_on,,,,,4,0,8,,,,,7,,,59,63
96956,note_off,,,,,188,0,1,,,,,0,,,78,59
96956,note_off,,,,,188,0,3,,,,,2,,,78,79
96956,note_off,,,,,188,0,5,,,,,4,,,71,55
96956,note_off,,,,,188,0,7,,,,,6,,,47,51
96956,note_off,,,,,188,0,6,,,,,5,,,59,57
96956,note_off,,,,,188,0,8,,,,,7,,,59,32
96960,note_on,,,,,4,0,5,,,,,4,,,63,59
96960,note_on,,,,,4,0,6,,,,,5,,,57,58
96960,note_on,,,,,4,0,8,,,,,7,,,57,63
96960,note_on,,,,,4,0,7,,,,,6,,,45,52
96960,note_on,,,,,4,0,1,,,,,0,,,84,63
96960,note_on,,,,,4,0,3,,,,,2,,,84,85
97148,note_off,,,,,188,0,7,,,,,6,,,45,51
97148,note_off,,,,,188,0,1,,,,,0,,,84,59
97148,note_off,,,,,188,0,5,,,,,4,,,63,55
97148,note_off,,,,,188,0,3,,,,,2,,,84,79
97148,note_off,,,,,380,0,4,,,,,3,,,75,79
97148,note_off,,,,,188,0,8,,,,,7,,,57,32
97148,note_off,,,,,380,0,2,,,,,1,,,75,59
97148,note_off,,,,,188,0,6,,,,,5,,,57,57
97152,note_on,,,,,4,0,5,,,,,4,,,64,60
97152,note_on,,,,,4,0,7,,,,,6,,,43,53
97152,note_on,,,,,4,0,3,,,,,2,,,83,87
97152,note_on,,,,,4,0,6,,,,,5,,,55,60
97152,note_on,,,,,4,0,1,,,,,0,,,83,65
97152,note_on,,,,,4,0,8,,,,,7,,,55,63
97244,note_off,,,,,92,0,3,,,,,2,,,83,79
97244,note_off,,,,,92,0,1,,,,,0,,,83,59
97248,note_on,,,,,4,0,3,,,,,2,,,81,88
97248,note_on,,,,,4,0,1,,,,,0,,,81,66
97340,note_off,,,,,188,0,8,,,,,7,,,55,32
97340,note_off,,,,,188,0,5,,,,,4,,,64,55
97340,note_off,,,,,92,0,3,,,,,2,,,81,79
97340,note_off,,,,,188,0,6,,,,,5,,,55,57
97340,note_off,,,,,188,0,7,,,,,6,,,43,51
97340,note_off,,,,,92,0,1,,,,,0,,,81,59
97344,note_on,,,,,4,0,5,,,,,4,,,72,62
97344,note_on,,,,,4,0,1,,,,,0,,,79,66
97344,note_on,,,,,4,0,8,,,,,7,,,57,63
97344,note_on,,,,,4,0,7,,,,,6,,,45,55
97344,note_on,,,,,4,0,6,,,,,5,,,57,62
97344,note_on,,,,,4,0,3,,,,,2,,,79,89
97436,note_off,,,,,92,0,1,,,,,0,,,79,59
97436,note_off,,,,,92,0,3,,,,,2,,,79,79
97440,note_on,,,,,4,0,1,,,,,0,,,78,67
97440,note_on,,,,,4,0,3,,,,,2,,,78,90
97532,note_off,,,,,92,0,3,,,,,2,,,78,79
97532,note_off,,,,,92,0,1,,,,,0,,,78,59
97532,note_off,,,,,188,0,5,,,,,4,,,72,55
97532,note_off,,,,,188,0,8,,,,,7,,,57,32
97532,note_off,,,,,188,0,6,,,,,5,,,57,57
97532,note_off,,,,,188,0,7,,,,,6,,,45,51
97536,note_on,,,,,4,0,1,,,,,0,,,79,69
97536,note_on,,,,,4,0,3,,,,,2,,,79,93
97536,note_on,,,,,4,0,8,,,,,7,,,59,63
97536,note_on,,,,,4,0,7,,,,,6,,,47,57
97536,note_on,,,,,4,0,5,,,,,4,,,71,65
97536,note_on,,,,,4,0,6,,,,,5,,,59,64
97724,note_off,,,,,188,0,1,,,,,0,,,79,59
97724,note_off,,,,,188,0,7,,,,,6,,,47,51
97724,note_off,,,,,188,0,8,,,,,7,,,59,32
97724,note_off,,,,,188,0,6,,,,,5,,,59,57
97724,note_off,,,,,188,0,3,,,,,2,,,79,79
97724,note_off,,,,,188,0,5,,,,,4,,,71,55
97728,note_on,,,,,4,0,1,,,,,0,,,81,71
97728,note_on,,,,,4,0,6,,,,,5,,,57,65
97728,note_on,,,,,4,0,8,,,,,7,,,57,63
97728,note_on,,,,,4,0,5,,,,,4,,,64,66
97728,note_on,,,,,4,0,7,,,,,6,,,45,58
97728,note_on,,,,,4,0,3,,,,,2,,,81,95
97824,note_on,,,,,676,0,4,,,,,3,,,72,97
97824,note_on,,,,,676,0,2,,,,,1,,,72,72
97916,note_off,,,,,188,0,5,,,,,4,,,64,55
97916,note_off,,,,,188,0,6,,,,,5,,,57,57
97916,note_off,,,,,188,0,1,,,,,0,,,81,59
97916,note_off,,,,,92,0,2,,,,,1,,,72,59
97916,note_off,,,,,188,0,3,,,,,2,,,81,79
97916,note_off,,,,,92,0,4,,,,,3,,,72,79
97916,note_off,,,,,188,0,7,,,,,6,,,45,51
97916,note_off,,,,,188,0,8,,,,,7,,,57,32
97920,note_on,,,,,4,0,1,,,,,0,,,79,73
97920,note_on,,,,,4,0,5,,,,,4,,,59,68
97920,note_on,,,,,4,0,4,,,,,3,,,71,98
97920,note_on,,,,,4,0,2,,,,,1,,,71,73
97920,note_on,,,,,4,0,7,,,,,6,,,47,60
97920,note_on,,,,,4,0,6,,,,,5,,,59,67
97920,note_on,,,,,4,0,8,,,,,7,,,59,63
97920,note_on,,,,,4,0,3,,,,,2,,,79,98
98012,note_off,,,,,92,0,3,,,,,2,,,79,79
98012,note_off,,,,,92,0,4,,,,,3,,,71,79
98012,note_off,,,,,92,0,1,,,,,0,,,79,59
98012,note_off,,,,,92,0,2,,,,,1,,,71,59
98016,note_on,,,,,4,0,3,,,,,2,,,78,100
98016,note_on,,,,,4,0,4,,,,,3,,,69,100
98016,note_on,,,,,4,0,2,,,,,1,,,69,74
98016,note_on,,,,,4,0,1,,,,,0,,,78,74
98108,note_off,,,,,92,0,2,,,,,1,,,69,59
98108,note_off,,,,,188,0,6,,,,,5,,,59,57
98108,note_off,,,,,188,0,7,,,,,6,,,47,51
98108,note_off,,,,,188,0,5,,,,,4,,,59,55
98108,note_off,,,,,92,0,1,,,,,0,,,78,59
98108,note_off,,,,,188,0,8,,,,,7,,,59,32
98108,note_off,,,,,92,0,3,,,,,2,,,78,79
98108,note_off,,,,,92,0,4,,,,,3,,,69,79
98112,note_on,,,,,4,0,4,,,,,3,,,67,101
98112,note_on,,,,,4,0,8,,,,,7,,,47,63
98112,note_on,,,,,4,0,7,,,,,6,,,35,61
98112,note_on,,,,,4,0,1,,,,,0,,,76,75
98112,note_on,,,,,4,0,6,,,,,5,,,47,69
98112,note_on,,,,,4,0,2,,,,,1,,,67,75
98112,note_on,,,,,4,0,3,,,,,2,,,76,101
98204,note_off,,,,,92,0,1,,,,,0,,,76,59
98204,note_off,,,,,92,0,4,,,,,3,,,67,79
98204,note_off,,,,,92,0,3,,,,,2,,,76,79
98204,note_off,,,,,92,0,2,,,,,1,,,67,59
98208,note_on,,,,,4,0,3,,,,,2,,,75,102
98208,note_on,,,,,4,0,4,,,,,3,,,66,102
98208,note_on,,,,,4,0,2,,,,,1,,,66,76
98208,note_on,,,,,4,0,1,,,,,0,,,75,76
98300,note_off,,,,,92,0,1,,,,,0,,,75,59
98300,note_off,,,,,188,0,7,,,,,6,,,35,51
98300,note_off,,,,,92,0,3,,,,,2,,,75,79
98300,note_off,,,,,188,0,8,,,,,7,,,47,32
98300,note_off,,,,,92,0,4,,,,,3,,,66,79
98300,note_off,,,,,92,0,2,,,,,1,,,66,59
98300,note_off,,,,,188,0,6,,,,,5,,,47,57
98304,note_on,,,,,196,0,5,,,,,4,,,64,72
98304,note_on,,,,,4,0,6,,,,,5,,,48,71
98304,note_on,,,,,4,0,4,,,,,3,,,64,103
98304,note_on,,,,,4,0,2,,,,,1,,,64,77
98304,note_on,,,,,4,0,3,,,,,2,,,76,103
98304,note_on,,,,,4,0,1,,,,,0,,,76,77
98304,note_on,,,,,4,0,8,,,,,7,,,48,63
98304,note_on,,,,,4,0,7,,,,,6,,,36,63
98492,note_off,,,,,188,0,6,,,,,5,,,48,57
98492,note_off,,,,,188,0,8,,,,,7,,,48,32
98492,note_off,,,,,188,0,7,,,,,6,,,36,51
98492,note_off,,,,,188,0,3,,,,,2,,,76,79
98492,note_off,,,,,188,0,1,,,,,0,,,76,59
98496,note_on,,,,,4,0,3,,,,,2,,,72,105
98496,note_on,,,,,4,0,8,,,,,7,,,45,63
98496,note_on,,,,,4,0,7,,,,,6,,,33,65
98496,note_on,,,,,4,0,1,,,,,0,,,72,79
98496,note_on,,,,,4,0,6,,,,,5,,,45,72
98684,note_off,,,,,188,0,7,,,,,6,,,33,51
98684,note_off,,,,,188,0,1,,,,,0,,,72,59
98684,note_off,,,,,380,0,2,,,,,1,,,64,59
98684,note_off,,,,,188,0,3,,,,,2,,,72,79
98684,note_off,,,,,188,0,8,,,,,7,,,45,32
98684,note_off,,,,,380,0,4,,,,,3,,,64,79
98684,note_off,,,,,188,0,6,,,,,5,,,45,57
98684,note_off,,,,,380,0,5,,,,,4,,,64,55
98688,note_on,,,,,4,0,6,,,,,5,,,52,74
98688,note_on,,,,,4,0,8,,,,,7,,,52,63
98688,note_on,,,,,4,0,1,,,,,0,,,71,80
98688,note_on,,,,,4,0,7,,,,,6,,,40,66
98688,note_on,,,,,4,0,5,,,,,4,,,55,75
98688,note_on,,,,,4,0,3,,,,,2,,,71,108
98780,note_off,,,,,92,0,1,,,,,0,,,71,59
98780,note_off,,,,,92,0,3,,,,,2,,,71,79
98784,note_on,,,,,4,0,3,,,,,2,,,69,109
98784,note_on,,,,,4,0,1,,,,,0,,,69,81
98876,note_off,,,,,188,0,6,,,,,5,,,52,57
98876,note_off,,,,,188,0,5,,,,,4,,,55,55
98876,note_off,,,,,92,0,3,,,,,2,,,69,79
98876,note_off,,,,,92,0,1,,,,,0,,,69,59
98876,note_off,,,,,188,0,7,,,,,6,,,40,51
98876,note_off,,,,,188,0,8,,,,,7,,,52,32
98880,note_on,,,,,4,0,1,,,,,0,,,67,82
98880,note_on,,,,,4,0,8,,,,,7,,,54,63
98880,note_on,,,,,4,0,3,,,,,2,,,67,111
98880,note_on,,,,,4,0,6,,,,,5,,,54,76
98880,note_on,,,,,4,0,5,,,,,4,,,57,77
98880,note_on,,,,,4,0,7,,,,,6,,,42,67
98972,note_off,,,,,92,0,3,,,,,2,,,67,79
98972,note_off,,,,,92,0,1,,,,,0,,,67,59
98976,note_on,,,,,4,0,1,,,,,0,,,66,83
98976,note_on,,,,,4,0,3,,,,,2,,,66,112
99068,note_off,,,,,188,0,6,,,,,5,,,54,57
99068,note_off,,,,,188,0,5,,,,,4,,,57,55
99068,note_off,,,,,188,0,8,,,,,7,,,54,32
99068,note_off,,,,,92,0,3,,,,,2,,,66,79
99068,note_off,,,,,92,0,1,,,,,0,,,66,59
99068,note_off,,,,,188,0,7,,,,,6,,,42,51
99072,note_on,,,,,4,0,6,,,,,5,,,55,78
99072,note_on,,,,,4,0,1,,,,,0,,,64,84
99072,note_on,,,,,4,0,3,,,,,2,,,64,113
99072,note_on,,,,,4,0,5,,,,,4,,,59,79
99072,note_on,,,,,4,0,7,,,,,6,,,43,69
99072,note_on,,,,,4,0,8,,,,,7,,,55,63
99260,note_off,,,,,188,0,8,,,,,7,,,55,32
99260,note_off,,,,,188,0,1,,,,,0,,,64,59
99260,note_off,,,,,188,0,6,,,,,5,,,55,57
99260,note_off,,,,,188,0,7,,,,,6,,,43,51
99260,note_off,,,,,188,0,3,,,,,2,,,64,79
99260,note_off,,,,,188,0,5,,,,,4,,,59,55
99264,note_on,,,,,4,0,6,,,,,5,,,57,80
99264,note_on,,,,,4,0,3,,,,,2,,,81,116
99264,note_on,,,,,4,0,5,,,,,4,,,64,80
99264,note_on,,,,,4,0,7,,,,,6,,,45,71
99264,note_on,,,,,4,0,1,,,,,0,,,81,86
99264,note_on,,,,,4,0,8,,,,,7,,,57,63
99360,note_on,,,,,676,0,4,,,,,3,,,72,117
99360,note_on,,,,,676,0,2,,,,,1,,,72,87
99452,note_off,,,,,188,0,8,,,,,7,,,57,32
99452,note_off,,,,,188,0,5,,,,,4,,,64,55
99452,note_off,,,,,188,0,3,,,,,2,,,81,79
99452,note_off,,,,,188,0,6,,,,,5,,,57,57
99452,note_off,,,,,188,0,7,,,,,6,,,45,51
99452,note_off,,,,,188,0,1,,,,,0,,,81,59
99452,note_off,,,,,92,0,4,,,,,3,,,72,79
99452,note_off,,,,,92,0,2,,,,,1,,,72,59
99456,note_on,,,,,4,0,3,,,,,2,,,79,118
99456,note_on,,,,,4,0,8,,,,,7,,,59,63
99456,note_on,,,,,4,0,5,,,,,4,,,71,82
99456,note_on,,,,,4,0,2,,,,,1,,,71,88
99456,note_on,,,,,4,0,4,,,,,3,,,71,118
99456,note_on,,,,,4,0,7,,,,,6,,,47,73
99456,note_on,,,,,4,0,6,,,,,5,,,59,81
99456,note_on,,,,,4,0,1,,,,,0,,,79,88
99548,note_off,,,,,92,0,4,,,,,3,,,71,79
99548,note_off,,,,,92,0,2,,,,,1,,,71,59
99548,note_off,,,,,92,0,3,,,,,2,,,79,79
99548,note_off,,,,,92,0,1,,,,,0,,,79,59
99552,note_on,,,,,4,0,3,,,,,2,,,78,119
99552,note_on,,,,,4,0,4,,,,,3,,,69,119
99552,note_on,,,,,4,0,1,,,,,0,,,78,89
99552,note_on,,,,,4,0,2,,,,,1,,,69,89
99644,note_off,,,,,188,0,7,,,,,6,,,47,51
99644,note_off,,,,,188,0,5,,,,,4,,,71,55
99644,note_off,,,,,188,0,6,,,,,5,,,59,57
99644,note_off,,,,,92,0,1,,,,,0,,,78,59
99644,note_off,,,,,92,0,3,,,,,2,,,78,79
99644,note_off,,,,,92,0,2,,,,,1,,,69,59
99644,note_off,,,,,188,0,8,,,,,7,,,59,32
99644,note_off,,,,,92,0,4,,,,,3,,,69,79
99648,note_on,,,,,4,0,4,,,,,3,,,67,120
99648,note_on,,,,,4,0,2,,,,,1,,,67,90
99648,note_on,,,,,4,0,1,,,,,0,,,76,90
99648,note_on,,,,,4,0,3,,,,,2,,,76,120
99648,note_on,,,,,4,0,8,,,,,7,,,63,63
99648,note_on,,,,,4,0,5,,,,,4,,,71,84
99648,note_on,,,,,4,0,7,,,,,6,,,51,74
99648,note_on,,,,,4,0,6,,,,,5,,,63,83
99740,note_off,,,,,92,0,2,,,,,1,,,67,59
99740,note_off,,,,,92,0,1,,,,,0,,,76,59
99740,note_off,,,,,92,0,4,,,,,3,,,67,79
99740,note_off,,,,,92,0,3,,,,,2,,,76,79
99744,note_on,,,,,4,0,1,,,,,0,,,75,91
99744,note_on,,,,,4,0,2,,,,,1,,,66,91
99744,note_on,,,,,4,0,4,,,,,3,,,66,121
99744,note_on,,,,,4,0,3,,,,,2,,,75,121
99836,note_off,,,,,92,0,1,,,,,0,,,75,59
99836,note_off,,,,,188,0,5,,,,,4,,,71,55
99836,note_off,,,,,92,0,4,,,,,3,,,66,79
99836,note_off,,,,,188,0,7,,,,,6,,,51,51
99836,note_off,,,,,188,0,8,,,,,7,,,63,32
99836,note_off,,,,,188,0,6,,,,,5,,,63,57
99836,note_off,,,,,92,0,3,,,,,2,,,75,79
99836,note_off,,,,,92,0,2,,,,,1,,,66,59
99840,note_on,,,,,4,0,3,,,,,2,,,76,125
99840,note_on,,,,,4,0,7,,,,,6,,,52,77
99840,note_on,,,,,4,0,8,,,,,7,,,64,63
99840,note_on,,,,,4,0,4,,,,,3,,,76,125
99840,note_on,,,,,4,0,2,,,,,1,,,76,93
99840,note_on,,,,,4,0,5,,,,,4,,,76,87
99840,note_on,,,,,4,0,6,,,,,5,,,64,86
99840,note_on,,,,,4,0,1,,,,,0,,,76,93
100028,note_off,,,,,188,0,1,,,,,0,,,76,59
100028,note_off,,,,,188,0,5,,,,,4,,,76,55
100028,note_off,,,,,188,0,8,,,,,7,,,64,32
100028,note_off,,,,,188,0,6,,,,,5,,,64,57
100028,note_off,,,,,188,0,2,,,,,1,,,76,59
100028,note_off,,,,,188,0,3,,,,,2,,,76,79
100028,note_off,,,,,188,0,7,,,,,6,,,52,51
100028,note_off,,,,,188,0,4,,,,,3,,,76,79
100032,note_on,,,,,4,0,1,,,,,0,,,67,93
100032,note_on,,,,,4,0,6,,,,,5,,,55,86
100032,note_on,,,,,4,0,5,,,,,4,,,67,87
100032,note_on,,,,,4,0,2,,,,,1,,,67,93
100032,note_on,,,,,4,0,4,,,,,3,,,67,125
100032,note_on,,,,,4,0,7,,,,,6,,,43,77
100032,note_on,,,,,4,0,3,,,,,2,,,67,125
100032,note_on,,,,,4,0,8,,,,,7,,,55,63
100220,note_off,,,,,188,0,7,,,,,6,,,43,51
100220,note_off,,,,,188,0,4,,,,,3,,,67,79
100220,note_off,,,,,188,0,3,,,,,2,,,67,79
100220,note_off,,,,,188,0,6,,,,,5,,,55,57
100220,note_off,,,,,188,0,1,,,,,0,,,67,59
100220,note_off,,,,,188,0,2,,,,,1,,,67,59
100220,note_off,,,,,188,0,8,,,,,7,,,55,32
100220,note_off,,,,,188,0,5,,,,,4,,,67,55
100224,note_on,,,,,4,0,7,,,,,6,,,42,77
100224,note_on,,,,,4,0,1,,,,,0,,,66,93
100224,note_on,,,,,4,0,3,,,,,2,,,66,125
100224,note_on,,,,,4,0,2,,,,,1,,,66,93
100224,note_on,,,,,4,0,8,,,,,7,,,54,63
100224,note_on,,,,,4,0,4,,,,,3,,,66,125
100224,note_on,,,,,4,0,5,,,,,4,,,66,87
100224,note_on,,,,,4,0,6,,,,,5,,,54,86
100412,note_off,,,,,188,0,5,,,,,4,,,66,55
100412,note_off,,,,,188,0,1,,,,,0,,,66,59
100412,note_off,,,,,188,0,8,,,,,7,,,54,32
100412,note_off,,,,,188,0,3,,,,,2,,,66,79
100412,note_off,,,,,188,0,6,,,,,5,,,54,57
100412,note_off,,,,,188,0,4,,,,,3,,,66,79
100412,note_off,,,,,188,0,2,,,,,1,,,66,59
100412,note_off,,,,,188,0,7,,,,,6,,,42,51
100416,note_on,,,,,4,0,3,,,,,2,,,75,125
100416,note_on,,,,,4,0,4,,,,,3,,,75,125
100416,note_on,,,,,4,0,2,,,,,1,,,75,93
100416,note_on,,,,,4,0,6,,,,,5,,,63,86
100416,note_on,,,,,4,0,7,,,,,6,,,51,77
100416,note_on,,,,,4,0,1,,,,,0,,,75,93
100416,note_on,,,,,4,0,5,,,,,4,,,75,87
100416,note_on,,,,,4,0,8,,,,,7,,,63,63
100604,note_off,,,,,188,0,2,,,,,1,,,75,59
100604,note_off,,,,,188,0,6,,,,,5,,,63,57
100604,note_off,,,,,188,0,4,,,,,3,,,75,79
100604,note_off,,,,,188,0,5,,,,,4,,,75,55
100604,note_off,,,,,188,0,8,,,,,7,,,63,32
100604,note_off,,,,,188,0,3,,,,,2,,,75,79
100604,note_off,,,,,188,0,7,,,,,6,,,51,51
100604,note_off,,,,,188,0,1,,,,,0,,,75,59
100608,note_on,,,,,4,0,8,,,,,7,,,64,63
100608,note_on,,,,,4,0,3,,,,,2,,,76,125
100608,note_on,,,,,4,0,2,,,,,1,,,76,93
100608,note_on,,,,,4,0,4,,,,,3,,,76,125
100608,note_on,,,,,4,0,1,,,,,0,,,76,93
100608,note_on,,,,,4,0,6,,,,,5,,,64,86
100608,note_on,,,,,4,0,5,,,,,4,,,76,87
100608,note_on,,,,,4,0,7,,,,,6,,,52,77
100796,note_off,,,,,188,0,5,,,,,4,,,76,55
100796,note_off,,,,,188,0,2,,,,,1,,,76,59
100796,note_off,,,,,188,0,7,,,,,6,,,52,51
100796,note_off,,,,,188,0,1,,,,,0,,,76,59
100796,note_off,,,,,188,0,8,,,,,7,,,64,32
100796,note_off,,,,,188,0,4,,,,,3,,,76,79
100796,note_off,,,,,188,0,6,,,,,5,,,64,57
100796,note_off,,,,,188,0,3,,,,,2,,,76,79
100800,note_on,,,,,4,0,1,,,,,0,,,64,93
100800,note_on,,,,,4,0,2,,,,,1,,,64,93
100800,note_on,,,,,4,0,4,,,,,3,,,64,125
100800,note_on,,,,,4,0,7,,,,,6,,,40,77
100800,note_on,,,,,4,0,6,,,,,5,,,52,86
100800,note_on,,,,,4,0,5,,,,,4,,,64,87
100800,note_on,,,,,4,0,3,,,,,2,,,64,125
100800,note_on,,,,,4,0,8,,,,,7,,,52,63
100892,note_off,,,,,92,0,4,,,,,3,,,64,79
100892,note_off,,,,,92,0,1,,,,,0,,,64,59
100892,note_off,,,,,92,0,5,,,,,4,,,64,55
100892,note_off,,,,,92,0,3,,,,,2,,,64,79
100892,note_off,,,,,92,0,7,,,,,6,,,40,51
100892,note_off,,,,,92,0,6,,,,,5,,,52,57
100892,note_off,,,,,92,0,2,,,,,1,,,64,59
100896,note_on,,,,,4,0,5,,,,,4,,,66,87
100896,note_on,,,,,4,0,7,,,,,6,,,42,77
100896,note_on,,,,,4,0,1,,,,,0,,,66,93
100896,note_on,,,,,4,0,6,,,,,5,,,54,86
100896,note_on,,,,,4,0,3,,,,,2,,,66,125
100896,note_on,,,,,4,0,2,,,,,1,,,66,93
100896,note_on,,,,,4,0,4,,,,,3,,,66,125
100988,note_off,,,,,92,0,6,,,,,5,,,54,57
100988,note_off,,,,,92,0,5,,,,,4,,,66,55
100988,note_off,,,,,92,0,4,,,,,3,,,66,79
100988,note_off,,,,,92,0,7,,,,,6,,,42,51
100988,note_off,,,,,92,0,3,,,,,2,,,66,79
100988,note_off,,,,,92,0,1,,,,,0,,,66,59
100988,note_off,,,,,92,0,2,,,,,1,,,66,59
100992,note_on,,,,,4,0,4,,,,,3,,,67,125
100992,note_on,,,,,4,0,5,,,,,4,,,67,87
100992,note_on,,,,,4,0,3,,,,,2,,,67,125
100992,note_on,,,,,0,0,8,,,,,7,,,55,63
100992,note_on,,,,,4,0,7,,,,,6,,,43,77
100992,note_on,,,,,4,0,2,,,,,1,,,67,93
100992,note_on,,,,,4,0,1,,,,,0,,,67,93
100992,note_off,,,,,192,0,8,,,,,7,,,52,32
100992,note_on,,,,,4,0,6,,,,,5,,,55,86
101084,note_off,,,,,92,0,3,,,,,2,,,67,79
101084,note_off,,,,,92,0,1,,,,,0,,,67,59
101084,note_off,,,,,92,0,4,,,,,3,,,67,79
101084,note_off,,,,,92,0,6,,,,,5,,,55,57
101084,note_off,,,,,92,0,2,,,,,1,,,67,59
101084,note_off,,,,,92,0,5,,,,,4,,,67,55
101084,note_off,,,,,92,0,7,,,,,6,,,43,51
101088,note_on,,,,,4,0,1,,,,,0,,,69,93
101088,note_on,,,,,4,0,2,,,,,1,,,69,93
101088,note_on,,,,,4,0,3,,,,,2,,,69,125
101088,note_on,,,,,4,0,6,,,,,5,,,57,86
101088,note_on,,,,,4,0,4,,,,,3,,,69,125
101088,note_on,,,,,4,0,7,,,,,6,,,45,77
101088,note_on,,,,,4,0,5,,,,,4,,,69,87
101180,note_off,,,,,92,0,5,,,,,4,,,69,55
101180,note_off,,,,,92,0,4,,,,,3,,,69,79
101180,note_off,,,,,92,0,2,,,,,1,,,69,59
101180,note_off,,,,,92,0,7,,,,,6,,,45,51
101180,note_off,,,,,92,0,6,,,,,5,,,57,57
101180,note_off,,,,,92,0,3,,,,,2,,,69,79
101180,note_off,,,,,92,0,1,,,,,0,,,69,59
101184,note_on,,,,,4,0,1,,,,,0,,,71,93
101184,note_on,,,,,0,0,8,,,,,7,,,59,63
101184,note_on,,,,,4,0,2,,,,,1,,,71,93
101184,note_on,,,,,4,0,6,,,,,5,,,59,86
101184,note_on,,,,,4,0,3,,,,,2,,,71,125
101184,note_on,,,,,4,0,4,,,,,3,,,71,125
101184,note_off,,,,,192,0,8,,,,,7,,,55,32
101184,note_on,,,,,4,0,7,,,,,6,,,47,77
101184,note_on,,,,,4,0,5,,,,,4,,,71,87
101276,note_off,,,,,92,0,3,,,,,2,,,71,79
101276,note_off,,,,,92,0,2,,,,,1,,,71,59
101276,note_off,,,,,92,0,7,,,,,6,,,47,51
101276,note_off,,,,,92,0,5,,,,,4,,,71,55
101276,note_off,,,,,92,0,6,,,,,5,,,59,57
101276,note_off,,,,,92,0,1,,,,,0,,,71,59
101276,note_off,,,,,92,0,8,,,,,7,,,59,32
101276,note_off,,,,,92,0,4,,,,,3,,,71,79
101280,note_on,,,,,4,0,2,,,,,1,,,73,93
101280,note_on,,,,,4,0,8,,,,,7,,,61,63
101280,note_on,,,,,4,0,7,,,,,6,,,49,77
101280,note_on,,,,,4,0,1,,,,,0,,,73,93
101280,note_on,,,,,4,0,3,,,,,2,,,73,125
101280,note_on,,,,,4,0,5,,,,,4,,,73,87
101280,note_on,,,,,4,0,4,,,,,3,,,73,125
101280,note_on,,,,,4,0,6,,,,,5,,,61,86
101372,note_off,,,,,92,0,4,,,,,3,,,73,79
101372,note_off,,,,,92,0,7,,,,,6,,,49,51
101372,note_off,,,,,92,0,8,,,,,7,,,61,32
101372,note_off,,,,,92,0,1,,,,,0,,,73,59
101372,note_off,,,,,92,0,3,,,,,2,,,73,79
101372,note_off,,,,,92,0,6,,,,,5,,,61,57
101372,note_off,,,,,92,0,2,,,,,1,,,73,59
101372,note_off,,,,,92,0,5,,,,,4,,,73,55
101376,note_on,,,,,4,0,3,,,,,2,,,74,125
101376,note_on,,,,,4,0,1,,,,,0,,,74,93
101376,note_on,,,,,4,0,6,,,,,5,,,62,86
101376,note_on,,,,,4,0,5,,,,,4,,,74,87
101376,note_on,,,,,4,0,7,,,,,6,,,50,77
101376,note_on,,,,,4,0,8,,,,,7,,,62,63
101376,note_on,,,,,4,0,4,,,,,3,,,74,125
101376,note_on,,,,,4,0,2,,,,,1,,,74,93
101564,note_off,,,,,188,0,2,,,,,1,,,74,59
101564,note_off,,,,,188,0,5,,,,,4,,,74,55
101564,note_off,,,,,188,0,7,,,,,6,,,50,51
101564,note_off,,,,,188,0,8,,,,,7,,,62,32
101564,note_off,,,,,188,0,3,,,,,2,,,74,79
101564,note_off,,,,,188,0,1,,,,,0,,,74,59
101564,note_off,,,,,188,0,6,,,,,5,,,62,57
101564,note_off,,,,,188,0,4,,,,,3,,,74,79
101568,note_on,,,,,4,0,4,,,,,3,,,66,125
101568,note_on,,,,,4,0,8,,,,,7,,,54,63
101568,note_on,,,,,4,0,3,,,,,2,,,66,125
101568,note_on,,,,,4,0,7,,,,,6,,,42,77
101568,note_on,,,,,4,0,5,,,,,4,,,66,87
101568,note_on,,,,,4,0,1,,,,,0,,,66,93
101568,note_on,,,,,4,0,6,,,,,5,,,54,86
101568,note_on,,,,,4,0,2,,,,,1,,,66,93
101756,note_off,,,,,188,0,8,,,,,7,,,54,32
101756,note_off,,,,,188,0,7,,,,,6,,,42,51
101756,note_off,,,,,188,0,4,,,,,3,,,66,79
101756,note_off,,,,,188,0,5,,,,,4,,,66,55
101756,note_off,,,,,188,0,1,,,,,0,,,66,59
101756,note_off,,,,,188,0,6,,,,,5,,,54,57
101756,note_off,,,,,188,0,2,,,,,1,,,66,59
101756,note_off,,,,,188,0,3,,,,,2,,,66,79
101760,note_on,,,,,4,0,1,,,,,0,,,64,93
101760,note_on,,,,,4,0,5,,,,,4,,,64,87
101760,note_on,,,,,4,0,7,,,,,6,,,40,77
101760,note_on,,,,,4,0,6,,,,,5,,,52,86
101760,note_on,,,,,4,0,8,,,,,7,,,52,63
101760,note_on,,,,,4,0,3,,,,,2,,,64,125
101760,note_on,,,,,4,0,4,,,,,3,,,64,125
101760,note_on,,,,,4,0,2,,,,,1,,,64,93
101948,note_off,,,,,188,0,7,,,,,6,,,40,51
101948,note_off,,,,,188,0,5,,,,,4,,,64,55
101948,note_off,,,,,188,0,4,,,,,3,,,64,79
101948,note_off,,,,,188,0,3,,,,,2,,,64,79
101948,note_off,,,,,188,0,6,,,,,5,,,52,57
101948,note_off,,,,,188,0,8,,,,,7,,,52,32
101948,note_off,,,,,188,0,2,,,,,1,,,64,59
101948,note_off,,,,,188,0,1,,,,,0,,,64,59
101952,note_on,,,,,4,0,8,,,,,7,,,61,63
101952,note_on,,,,,4,0,6,,,,,5,,,61,86
101952,note_on,,,,,4,0,1,,,,,0,,,73,93
101952,note_on,,,,,4,0,4,,,,,3,,,73,125
101952,note_on,,,,,4,0,7,,,,,6,,,49,77
101952,note_on,,,,,4,0,3,,,,,2,,,73,125
101952,note_on,,,,,4,0,5,,,,,4,,,73,87
101952,note_on,,,,,4,0,2,,,,,1,,,73,93
102140,note_off,,,,,188,0,8,,,,,7,,,61,32
102140,note_off,,,,,188,0,7,,,,,6,,,49,51
102140,note_off,,,,,188,0,5,,,,,4,,,73,55
102140,note_off,,,,,188,0,3,,,,,2,,,73,79
102140,note_off,,,,,188,0,2,,,,,1,,,73,59
102140,note_off,,,,,188,0,1,,,,,0,,,73,59
102140,note_off,,,,,188,0,6,,,,,5,,,61,57
102140,note_off,,,,,188,0,4,,,,,3,,,73,79
102144,note_on,,,,,4,0,2,,,,,1,,,74,93
102144,note_on,,,,,4,0,1,,,,,0,,,74,93
102144,note_on,,,,,4,0,6,,,,,5,,,62,86
102144,note_on,,,,,4,0,8,,,,,7,,,62,63
102144,note_on,,,,,4,0,5,,,,,4,,,74,87
102144,note_on,,,,,4,0,3,,,,,2,,,74,125
102144,note_on,,,,,4,0,4,,,,,3,,,74,125
102144,note_on,,,,,4,0,7,,,,,6,,,50,77
102332,note_off,,,,,188,0,3,,,,,2,,,74,79
102332,note_off,,,,,188,0,5,,,,,4,,,74,55
102332,note_off,,,,,188,0,6,,,,,5,,,62,57
102332,note_off,,,,,188,0,7,,,,,6,,,50,51
102332,note_off,,,,,188,0,2,,,,,1,,,74,59
102332,note_off,,,,,188,0,4,,,,,3,,,74,79
102332,note_off,,,,,188,0,1,,,,,0,,,74,59
102332,note_off,,,,,188,0,8,,,,,7,,,62,32
102336,note_on,,,,,4,0,7,,,,,6,,,38,77
102336,note_on,,,,,4,0,3,,,,,2,,,62,125
102336,note_on,,,,,4,0,2,,,,,1,,,62,93
102336,note_on,,,,,4,0,1,,,,,0,,,62,93
102336,note_on,,,,,4,0,5,,,,,4,,,62,87
102336,note_on,,,,,4,0,8,,,,,7,,,50,63
102336,note_on,,,,,4,0,4,,,,,3,,,62,125
102336,note_on,,,,,4,0,6,,,,,5,,,50,86
102428,note_off,,,,,92,0,5,,,,,4,,,62,55
102428,note_off,,,,,92,0,1,,,,,0,,,62,59
102428,note_off,,,,,92,0,3,,,,,2,,,62,79
102428,note_off,,,,,92,0,2,,,,,1,,,62,59
102428,note_off,,,,,92,0,7,,,,,6,,,38,51
102428,note_off,,,,,92,0,4,,,,,3,,,62,79
102428,note_off,,,,,92,0,6,,,,,5,,,50,57
102432,note_on,,,,,4,0,6,,,,,5,,,52,86
102432,note_on,,,,,4,0,7,,,,,6,,,40,77
102432,note_on,,,,,4,0,1,,,,,0,,,64,93
102432,note_on,,,,,4,0,4,,,,,3,,,64,125
102432,note_on,,,,,4,0,2,,,,,1,,,64,93
102432,note_on,,,,,4,0,3,,,,,2,,,64,125
102432,note_on,,,,,4,0,5,,,,,4,,,64,87
102524,note_off,,,,,92,0,1,,,,,0,,,64,59
102524,note_off,,,,,92,0,5,,,,,4,,,64,55
102524,note_off,,,,,92,0,2,,,,,1,,,64,59
102524,note_off,,,,,92,0,7,,,,,6,,,40,51
102524,note_off,,,,,92,0,3,,,,,2,,,64,79
102524,note_off,,,,,92,0,6,,,,,5,,,52,57
102524,note_off,,,,,92,0,4,,,,,3,,,64,79
102528,note_on,,,,,4,0,2,,,,,1,,,66,93
102528,note_on,,,,,4,0,6,,,,,5,,,54,86
102528,note_on,,,,,4,0,5,,,,,4,,,66,87
102528,note_on,,,,,4,0,4,,,,,3,,,66,125
102528,note_on,,,,,4,0,1,,,,,0,,,66,93
102528,note_on,,,,,4,0,7,,,,,6,,,42,77
102528,note_on,,,,,4,0,3,,,,,2,,,66,125
102528,note_on,,,,,0,0,8,,,,,7,,,54,63
102528,note_off,,,,,192,0,8,,,,,7,,,50,32
102620,note_off,,,,,92,0,1,,,,,0,,,66,59
102620,note_off,,,,,92,0,7,,,,,6,,,42,51
102620,note_off,,,,,92,0,2,,,,,1,,,66,59
102620,note_off,,,,,92,0,3,,,,,2,,,66,79
102620,note_off,,,,,92,0,5,,,,,4,,,66,55
102620,note_off,,,,,92,0,6,,,,,5,,,54,57
102620,note_off,,,,,92,0,4,,,,,3,,,66,79
102624,note_on,,,,,4,0,5,,,,,4,,,67,87
102624,note_on,,,,,4,0,7,,,,,6,,,43,77
102624,note_on,,,,,4,0,3,,,,,2,,,67,125
102624,note_on,,,,,4,0,6,,,,,5,,,55,86
102624,note_on,,,,,4,0,4,,,,,3,,,67,125
102624,note_on,,,,,4,0,2,,,,,1,,,67,93
102624,note_on,,,,,4,0,1,,,,,0,,,67,93
102716,note_off,,,,,92,0,5,,,,,4,,,67,55
102716,note_off,,,,,92,0,1,,,,,0,,,67,59
102716,note_off,,,,,92,0,3,,,,,2,,,67,79
102716,note_off,,,,,92,0,7,,,,,6,,,43,51
102716,note_off,,,,,92,0,2,,,,,1,,,67,59
102716,note_off,,,,,92,0,6,,,,,5,,,55,57
102716,note_off,,,,,92,0,4,,,,,3,,,67,79
102720,note_on,,,,,4,0,1,,,,,0,,,69,93
102720,note_on,,,,,4,0,4,,,,,3,,,69,125
102720,note_on,,,,,4,0,3,,,,,2,,,69,125
102720,note_on,,,,,4,0,6,,,,,5,,,57,86
102720,note_on,,,,,4,0,7,,,,,6,,,45,77
102720,note_on,,,,,4,0,2,,,,,1,,,69,93
102720,note_off,,,,,192,0,8,,,,,7,,,54,32
102720,note_on,,,,,0,0,8,,,,,7,,,57,63
102720,note_on,,,,,4,0,5,,,,,4,,,69,87
102812,note_off,,,,,92,0,7,,,,,6,,,45,51
102812,note_off,,,,,92,0,8,,,,,7,,,57,32
102812,note_off,,,,,92,0,1,,,,,0,,,69,59
102812,note_off,,,,,92,0,5,,,,,4,,,69,55
102812,note_off,,,,,92,0,3,,,,,2,,,69,79
102812,note_off,,,,,92,0,6,,,,,5,,,57,57
102812,note_off,,,,,92,0,4,,,,,3,,,69,79
102812,note_off,,,,,92,0,2,,,,,1,,,69,59
102816,note_on,,,,,4,0,5,,,,,4,,,71,87
102816,note_on,,,,,4,0,2,,,,,1,,,71,93
102816,note_on,,,,,4,0,1,,,,,0,,,71,93
102816,note_on,,,,,4,0,3,,,,,2,,,71,125
102816,note_on,,,,,4,0,8,,,,,7,,,59,63
102816,note_on,,,,,4,0,7,,,,,6,,,47,77
102816,note_on,,,,,4,0,6,,,,,5,,,59,86
102816,note_on,,,,,4,0,4,,,,,3,,,71,125
102908,note_off,,,,,92,0,3,,,,,2,,,71,79
102908,note_off,,,,,92,0,6,,,,,5,,,59,57
102908,note_off,,,,,92,0,7,,,,,6,,,47,51
102908,note_off,,,,,92,0,8,,,,,7,,,59,32
102908,note_off,,,,,92,0,2,,,,,1,,,71,59
102908,note_off,,,,,92,0,5,,,,,4,,,71,55
102908,note_off,,,,,92,0,4,,,,,3,,,71,79
102908,note_off,,,,,92,0,1,,,,,0,,,71,59
102912,note_on,,,,,4,0,8,,,,,7,,,60,63
102912,note_on,,,,,4,0,7,,,,,6,,,48,77
102912,note_on,,,,,4,0,1,,,,,0,,,72,93
102912,note_on,,,,,4,0,5,,,,,4,,,72,87
102912,note_on,,,,,4,0,6,,,,,5,,,60,86
102912,note_on,,,,,4,0,3,,,,,2,,,72,125
102912,note_on,,,,,4,0,4,,,,,3,,,72,125
102912,note_on,,,,,4,0,2,,,,,1,,,72,93
103100,note_off,,,,,188,0,4,,,,,3,,,72,79
103100,note_off,,,,,188,0,2,,,,,1,,,72,59
103100,note_off,,,,,188,0,1,,,,,0,,,72,59
103100,note_off,,,,,188,0,5,,,,,4,,,72,55
103100,note_off,,,,,188,0,6,,,,,5,,,60,57
103100,note_off,,,,,188,0,8,,,,,7,,,60,32
103100,note_off,,,,,188,0,3,,,,,2,,,72,79
103100,note_off,,,,,188,0,7,,,,,6,,,48,51
103104,note_on,,,,,4,0,8,,,,,7,,,48,63
103104,note_on,,,,,4,0,3,,,,,2,,,60,125
103104,note_on,,,,,4,0,6,,,,,5,,,48,86
103104,note_on,,,,,4,0,4,,,,,3,,,60,125
103104,note_on,,,,,4,0,5,,,,,4,,,60,87
103104,note_on,,,,,4,0,7,,,,,6,,,36,77
103104,note_on,,,,,4,0,2,,,,,1,,,60,93
103104,note_on,,,,,4,0,1,,,,,0,,,60,93
103292,note_off,,,,,188,0,3,,,,,2,,,60,79
103292,note_off,,,,,188,0,5,,,,,4,,,60,55
103292,note_off,,,,,188,0,1,,,,,0,,,60,59
103292,note_off,,,,,188,0,6,,,,,5,,,48,57
103292,note_off,,,,,188,0,2,,,,,1,,,60,59
103292,note_off,,,,,188,0,8,,,,,7,,,48,32
103292,note_off,,,,,188,0,7,,,,,6,,,36,51
103292,note_off,,,,,188,0,4,,,,,3,,,60,79
103296,note_on,,,,,4,0,2,,,,,1,,,59,93
103296,note_on,,,,,4,0,7,,,,,6,,,35,77
103296,note_on,,,,,4,0,6,,,,,5,,,47,86
103296,note_on,,,,,4,0,4,,,,,3,,,59,125
103296,note_on,,,,,4,0,3,,,,,2,,,59,125
103296,note_on,,,,,4,0,5,,,,,4,,,59,87
103296,note_on,,,,,4,0,1,,,,,0,,,59,93
103296,note_on,,,,,4,0,8,,,,,7,,,47,63
103484,note_off,,,,,188,0,4,,,,,3,,,59,79
103484,note_off,,,,,188,0,3,,,,,2,,,59,79
103484,note_off,,,,,188,0,5,,,,,4,,,59,55
103484,note_off,,,,,188,0,7,,,,,6,,,35,51
103484,note_off,,,,,188,0,1,,,,,0,,,59,59
103484,note_off,,,,,188,0,2,,,,,1,,,59,59
103484,note_off,,,,,188,0,6,,,,,5,,,47,57
103484,note_off,,,,,188,0,8,,,,,7,,,47,32
103488,note_on,,,,,4,0,3,,,,,2,,,71,125
103488,note_on,,,,,4,0,7,,,,,6,,,47,77
103488,note_on,,,,,4,0,6,,,,,5,,,59,86
103488,note_on,,,,,4,0,8,,,,,7,,,59,63
103488,note_on,,,,,4,0,1,,,,,0,,,71,93
103488,note_on,,,,,4,0,2,,,,,1,,,71,93
103488,note_on,,,,,4,0,5,,,,,4,,,71,87
103488,note_on,,,,,4,0,4,,,,,3,,,71,125
103676,note_off,,,,,188,0,2,,,,,1,,,71,59
103676,note_off,,,,,188,0,8,,,,,7,,,59,32
103676,note_off,,,,,188,0,1,,,,,0,,,71,59
103676,note_off,,,,,188,0,7,,,,,6,,,47,51
103676,note_off,,,,,188,0,5,,,,,4,,,71,55
103676,note_off,,,,,188,0,3,,,,,2,,,71,79
103676,note_off,,,,,188,0,4,,,,,3,,,71,79
103676,note_off,,,,,188,0,6,,,,,5,,,59,57
103680,note_on,,,,,4,0,1,,,,,0,,,69,93
103680,note_on,,,,,4,0,5,,,,,4,,,69,87
103680,note_on,,,,,4,0,6,,,,,5,,,57,86
103680,note_on,,,,,4,0,2,,,,,1,,,69,93
103680,note_on,,,,,4,0,7,,,,,6,,,45,77
103680,note_on,,,,,4,0,8,,,,,7,,,57,63
103680,note_on,,,,,4,0,3,,,,,2,,,69,125
103680,note_on,,,,,4,0,4,,,,,3,,,69,125
103868,note_off,,,,,188,0,6,,,,,5,,,57,57
103868,note_off,,,,,188,0,8,,,,,7,,,57,32
103868,note_off,,,,,188,0,5,,,,,4,,,69,55
103868,note_off,,,,,188,0,4,,,,,3,,,69,79
103868,note_off,,,,,188,0,3,,,,,2,,,69,79
103868,note_off,,,,,188,0,7,,,,,6,,,45,51
103868,note_off,,,,,188,0,1,,,,,0,,,69,59
103868,note_off,,,,,188,0,2,,,,,1,,,69,59
103872,note_on,,,,,4,0,3,,,,,2,,,57,125
103872,note_on,,,,,4,0,2,,,,,1,,,57,93
103872,note_on,,,,,4,0,7,,,,,6,,,33,77
103872,note_on,,,,,4,0,4,,,,,3,,,57,125
103872,note_on,,,,,4,0,6,,,,,5,,,45,86
103872,note_on,,,,,4,0,5,,,,,4,,,57,87
103872,note_on,,,,,4,0,1,,,,,0,,,57,93
103872,note_on,,,,,4,0,8,,,,,7,,,45,63
104060,note_off,,,,,188,0,3,,,,,2,,,57,79
104060,note_off,,,,,188,0,5,,,,,4,,,57,55
104060,note_off,,,,,188,0,4,,,,,3,,,57,79
104060,note_off,,,,,188,0,1,,,,,0,,,57,59
104060,note_off,,,,,188,0,7,,,,,6,,,33,51
104060,note_off,,,,,188,0,2,,,,,1,,,57,59
104060,note_off,,,,,188,0,6,,,,,5,,,45,57
104060,note_off,,,,,188,0,8,,,,,7,,,45,32
104064,note_on,,,,,4,0,8,,,,,7,,,43,63
104064,note_on,,,,,4,0,1,,,,,0,,,55,93
104064,note_on,,,,,4,0,5,,,,,4,,,55,87
104064,note_on,,,,,4,0,6,,,,,5,,,43,86
104064,note_on,,,,,4,0,7,,,,,6,,,31,77
104064,note_on,,,,,4,0,4,,,,,3,,,55,125
104064,note_on,,,,,4,0,3,,,,,2,,,55,125
104064,note_on,,,,,4,0,2,,,,,1,,,55,93
104252,note_off,,,,,188,0,5,,,,,4,,,55,55
104252,note_off,,,,,188,0,6,,,,,5,,,43,57
104252,note_off,,,,,188,0,4,,,,,3,,,55,79
104252,note_off,,,,,188,0,7,,,,,6,,,31,51
104252,note_off,,,,,188,0,2,,,,,1,,,55,59
104252,note_off,,,,,188,0,8,,,,,7,,,43,32
104252,note_off,,,,,188,0,1,,,,,0,,,55,59
104252,note_off,,,,,188,0,3,,,,,2,,,55,79
104256,note_on,,,,,4,0,5,,,,,4,,,67,87
104256,note_on,,,,,4,0,2,,,,,1,,,67,93
104256,note_on,,,,,4,0,6,,,,,5,,,55,86
104256,note_on,,,,,4,0,8,,,,,7,,,55,63
104256,note_on,,,,,4,0,7,,,,,6,,,43,77
104256,note_on,,,,,4,0,3,,,,,2,,,67,125
104256,note_on,,,,,4,0,1,,,,,0,,,67,93
104256,note_on,,,,,4,0,4,,,,,3,,,67,125
104444,note_off,,,,,188,0,4,,,,,3,,,67,79
104444,note_off,,,,,188,0,3,,,,,2,,,67,79
104444,note_off,,,,,188,0,1,,,,,0,,,67,59
104444,note_off,,,,,188,0,7,,,,,6,,,43,51
104444,note_off,,,,,188,0,6,,,,,5,,,55,57
104444,note_off,,,,,188,0,5,,,,,4,,,67,55
104444,note_off,,,,,188,0,2,,,,,1,,,67,59
104444,note_off,,,,,188,0,8,,,,,7,,,55,32
104448,note_on,,,,,4,0,1,,,,,0,,,66,93
104448,note_on,,,,,4,0,4,,,,,3,,,66,125
104448,note_on,,,,,4,0,2,,,,,1,,,66,93
104448,note_on,,,,,4,0,6,,,,,5,,,54,86
104448,note_on,,,,,4,0,8,,,,,7,,,54,63
104448,note_on,,,,,4,0,5,,,,,4,,,66,87
104448,note_on,,,,,4,0,7,,,,,6,,,42,77
104448,note_on,,,,,4,0,3,,,,,2,,,66,125
104636,note_off,,,,,188,0,8,,,,,7,,,54,32
104636,note_off,,,,,188,0,2,,,,,1,,,66,59
104636,note_off,,,,,188,0,1,,,,,0,,,66,59
104636,note_off,,,,,188,0,5,,,,,4,,,66,55
104636,note_off,,,,,188,0,6,,,,,5,,,54,57
104636,note_off,,,,,188,0,3,,,,,2,,,66,79
104636,note_off,,,,,188,0,4,,,,,3,,,66,79
104636,note_off,,,,,188,0,7,,,,,6,,,42,51
104640,note_on,,,,,4,0,4,,,,,3,,,64,125
104640,note_on,,,,,4,0,2,,,,,1,,,64,93
104640,note_on,,,,,4,0,1,,,,,0,,,64,93
104640,note_on,,,,,4,0,3,,,,,2,,,64,125
104640,note_on,,,,,4,0,7,,,,,6,,,40,77
104640,note_on,,,,,4,0,8,,,,,7,,,52,63
104640,note_on,,,,,4,0,5,,,,,4,,,64,87
104640,note_on,,,,,4,0,6,,,,,5,,,52,86
104828,note_off,,,,,188,0,8,,,,,7,,,52,32
104828,note_off,,,,,188,0,1,,,,,0,,,64,59
104828,note_off,,,,,188,0,5,,,,,4,,,64,55
104828,note_off,,,,,188,0,4,,,,,3,,,64,79
104828,note_off,,,,,188,0,2,,,,,1,,,64,59
104828,note_off,,,,,188,0,6,,,,,5,,,52,57
104828,note_off,,,,,188,0,3,,,,,2,,,64,79
104828,note_off,,,,,188,0,7,,,,,6,,,40,51
104832,note_on,,,,,4,0,7,,,,,6,,,47,77
104832,note_on,,,,,4,0,5,,,,,4,,,71,87
104832,note_on,,,,,4,0,6,,,,,5,,,59,86
104832,note_on,,,,,4,0,8,,,,,7,,,59,63
104832,note_on,,,,,4,0,1,,,,,0,,,71,93
104832,note_on,,,,,4,0,3,,,,,2,,,71,125
104832,note_on,,,,,4,0,2,,,,,1,,,71,93
104832,note_on,,,,,4,0,4,,,,,3,,,71,125
105020,note_off,,,,,188,0,8,,,,,7,,,59,32
105020,note_off,,,,,188,0,4,,,,,3,,,71,79
105020,note_off,,,,,188,0,5,,,,,4,,,71,55
105020,note_off,,,,,188,0,6,,,,,5,,,59,57
105020,note_off,,,,,188,0,2,,,,,1,,,71,59
105020,note_off,,,,,188,0,1,,,,,0,,,71,59
105020,note_off,,,,,188,0,3,,,,,2,,,71,79
105020,note_off,,,,,188,0,7,,,,,6,,,47,51
105024,note_on,,,,,4,0,3,,,,,2,,,75,125
105024,note_on,,,,,4,0,4,,,,,3,,,75,125
105024,note_on,,,,,4,0,7,,,,,6,,,35,77
105024,note_on,,,,,4,0,8,,,,,7,,,47,63
105024,note_on,,,,,4,0,2,,,,,1,,,75,93
105024,note_on,,,,,4,0,6,,,,,5,,,47,86
105024,note_on,,,,,4,0,1,,,,,0,,,75,93
105024,note_on,,,,,4,0,5,,,,,4,,,75,87
105212,note_off,,,,,188,0,5,,,,,4,,,75,55
105212,note_off,,,,,188,0,6,,,,,5,,,47,57
105212,note_off,,,,,188,0,8,,,,,7,,,47,32
105212,note_off,,,,,188,0,7,,,,,6,,,35,51
105212,note_off,,,,,188,0,1,,,,,0,,,75,59
105212,note_off,,,,,188,0,4,,,,,3,,,75,79
105212,note_off,,,,,188,0,2,,,,,1,,,75,59
105212,note_off,,,,,188,0,3,,,,,2,,,75,79
105216,note_on,,,,,4,0,5,,,,,4,,,76,87
105216,note_on,,,,,4,0,1,,,,,0,,,76,93
105216,note_on,,,,,4,0,8,,,,,7,,,40,63
105216,note_on,,,,,4,0,3,,,,,2,,,76,125
105216,note_on,,,,,4,0,2,,,,,1,,,76,93
105216,note_on,,,,,4,0,6,,,,,5,,,40,86
105216,note_on,,,,,4,0,4,,,,,3,,,76,125
105216,note_on,,,,,4,0,7,,,,,6,,,28,77
105404,note_off,,,,,188,0,5,,,,,4,,,76,55
105404,note_off,,,,,188,0,3,,,,,2,,,76,79
105404,note_off,,,,,188,0,4,,,,,3,,,76,79
105404,note_off,,,,,188,0,2,,,,,1,,,76,59
105404,note_off,,,,,188,0,1,,,,,0,,,76,59
105408,note_on,,,,,4,0,1,,,,,0,,,64,93
105408,note_on,,,,,4,0,3,,,,,2,,,64,125
105408,note_on,,,,,4,0,5,,,,,4,,,64,87
105408,note_on,,,,,4,0,4,,,,,3,,,64,125
105408,note_on,,,,,4,0,2,,,,,1,,,64,93
105596,note_off,,,,,188,0,1,,,,,0,,,64,59
105596,end_of_track,,,,,0,1,1,,,,,,,,,
105596,end_of_track,,,,,0,1,2,,,,,,,,,
105596,note_off,,,,,188,0,5,,,,,4,,,64,55
105596,note_off,,,,,188,0,3,,,,,2,,,64,79
105596,end_of_track,,,,,0,1,5,,,,,,,,,
105596,end_of_track,,,,,0,1,4,,,,,,,,,
105596,note_off,,,,,188,0,4,,,,,3,,,64,79
105596,end_of_track,,,,,0,1,3,,,,,,,,,
105596,note_off,,,,,188,0,2,,,,,1,,,64,59
105600,note_off,,,,,384,0,6,,,,,5,,,40,57
105600,end_of_track,,,,,0,1,8,,,,,,,,,
105600,note_off,,,,,384,0,8,,,,,7,,,40,32
105600,end_of_track,,,,,0,1,7,,,,,,,,,
105600,note_off,,,,,384,0,7,,,,,6,,,28,51
105600,end_of_track,,,,,0,1,6,,,,,,,,,
