tick,type,numerator,denominator,clocks_per_click,notated_32nd_notes_per_beat,time,meta,track,data,tempo,control,value,channel,program,key,note,velocity
0,time_signature,4,4,96,8,0,1,0,,,,,,,,,
0,key_signature,,,,,0,1,15,,,,,,,C,,
0,track_name,,,,,0,1,5,,,,,,,,,
0,control_change,,,,,0,0,5,,,0,0,3,,,,
0,control_change,,,,,0,0,5,,,10,104,3,,,,
0,control_change,,,,,0,0,5,,,7,127,3,,,,
0,program_change,,,,,0,0,5,,,,,3,48,,,
0,note_on,,,,,0,0,4,,,,,2,,,77,108
0,key_signature,,,,,0,1,5,,,,,,,Eb,,
0,control_change,,,,,0,0,6,,,0,0,4,,,,
0,control_change,,,,,0,0,6,,,10,104,4,,,,
0,control_change,,,,,0,0,6,,,7,127,4,,,,
0,program_change,,,,,0,0,6,,,,,4,41,,,
0,key_signature,,,,,0,1,6,,,,,,,Eb,,
0,note_on,,,,,0,0,6,,,,,4,,,72,92
0,track_name,,,,,0,1,6,,,,,,,,,
0,track_name,,,,,0,1,7,,,,,,,,,
0,key_signature,,,,,0,1,4,,,,,,,Eb,,
0,control_change,,,,,0,0,4,,,7,127,2,,,,
0,control_change,,,,,0,0,2,,,10,104,1,,,,
0,control_change,,,,,0,0,2,,,7,127,1,,,,
0,program_change,,,,,0,0,2,,,,,1,40,,,
0,key_signature,,,,,0,1,2,,,,,,,Eb,,
0,track_name,,,,,0,1,3,,,,,,,,,
0,control_change,,,,,0,0,3,,,0,0,8,,,,
0,program_change,,,,,0,0,4,,,,,2,48,,,
0,control_change,,,,,0,0,3,,,10,64,8,,,,
0,program_change,,,,,0,0,3,,,,,8,42,,,
0,key_signature,,,,,0,1,3,,,,,,,Eb,,
0,note_on,,,,,0,0,3,,,,,8,,,48,92
0,track_name,,,,,0,1,4,,,,,,,,,
0,control_change,,,,,0,0,4,,,0,0,2,,,,
0,control_change,,,,,0,0,4,,,10,24,2,,,,
0,control_change,,,,,0,0,3,,,7,127,8,,,,
0,control_change,,,,,0,0,7,,,0,0,5,,,,
0,control_change,,,,,0,0,7,,,10,24,5,,,,
0,control_change,,,,,0,0,7,,,7,127,5,,,,
0,end_of_track,,,,,0,1,10,,,,,,,,,
0,track_name,,,,,0,1,11,,,,,,,,,
0,key_signature,,,,,0,1,11,,,,,,,C,,
0,end_of_track,,,,,0,1,11,,,,,,,,,
0,track_name,,,,,0,1,12,,,,,,,,,
0,key_signature,,,,,0,1,12,,,,,,,C,,
0,key_signature,,,,,0,1,10,,,,,,,C,,
0,end_of_track,,,,,0,1,12,,,,,,,,,
0,key_signature,,,,,0,1,13,,,,,,,C,,
0,end_of_track,,,,,0,1,13,,,,,,,,,
0,track_name,,,,,0,1,14,,,,,,,,,
0,key_signature,,,,,0,1,14,,,,,,,C,,
0,end_of_track,,,,,0,1,14,,,,,,,,,
0,track_name,,,,,0,1,15,,,,,,,,,
0,track_name,,,,,0,1,13,,,,,,,,,
0,track_name,,,,,0,1,10,,,,,,,,,
0,note_on,,,,,0,0,9,,,,,7,,,48,60
0,key_signature,,,,,0,1,9,,,,,,,Eb,,
0,program_change,,,,,0,0,7,,,,,5,42,,,
0,key_signature,,,,,0,1,7,,,,,,,Eb,,
0,note_on,,,,,0,0,7,,,,,5,,,48,92
0,track_name,,,,,0,1,8,,,,,,,,,
0,control_change,,,,,0,0,8,,,0,0,6,,,,
0,control_change,,,,,0,0,8,,,10,64,6,,,,
0,control_change,,,,,0,0,8,,,7,127,6,,,,
0,program_change,,,,,0,0,8,,,,,6,43,,,
0,key_signature,,,,,0,1,8,,,,,,,Eb,,
0,note_on,,,,,0,0,8,,,,,6,,,36,75
0,track_name,,,,,0,1,9,,,,,,,,,
0,control_change,,,,,0,0,9,,,0,0,7,,,,
0,control_change,,,,,0,0,9,,,10,64,7,,,,
0,control_change,,,,,0,0,9,,,7,127,7,,,,
0,program_change,,,,,0,0,9,,,,,7,6,,,
0,control_change,,,,,0,0,2,,,0,0,1,,,,
0,track_name,,,,,0,1,2,,,,,,,,,
0,end_of_track,,,,,0,1,15,,,,,,,,,
0,sequencer_specific,,,,,0,1,0,"(0, 0, 65)",,,,,,,,
0,note_on,,,,,0,0,1,,,,,0,,,77,92
0,key_signature,,,,,0,1,1,,,,,,,Eb,,
0,program_change,,,,,0,0,1,,,,,0,40,,,
0,control_change,,,,,0,0,1,,,7,127,0,,,,
0,control_change,,,,,0,0,1,,,10,24,0,,,,
0,control_change,,,,,0,0,1,,,0,0,0,,,,
0,track_name,,,,,0,1,1,,,,,,,,,
0,end_of_track,,,,,0,1,0,,,,,,,,,
0,set_tempo,,,,,0,1,0,,750000,,,,,,,
48,note_on,,,,,0,0,4,,,,,2,,,79,108
48,note_off,,,,,48,0,4,,,,,2,,,77,0
48,note_on,,,,,0,0,1,,,,,0,,,79,92
48,note_off,,,,,48,0,1,,,,,0,,,77,0
96,note_on,,,,,0,0,1,,,,,0,,,80,92
96,note_off,,,,,48,0,1,,,,,0,,,79,0
96,note_on,,,,,0,0,4,,,,,2,,,80,108
96,note_off,,,,,48,0,4,,,,,2,,,79,0
188,note_off,,,,,188,0,9,,,,,7,,,48,0
188,note_off,,,,,92,0,1,,,,,0,,,80,0
188,note_off,,,,,188,0,8,,,,,6,,,36,0
188,note_off,,,,,92,0,4,,,,,2,,,80,0
188,note_off,,,,,188,0,3,,,,,8,,,48,0
188,note_off,,,,,188,0,7,,,,,5,,,48,0
192,note_on,,,,,4,0,8,,,,,6,,,38,75
192,note_on,,,,,4,0,9,,,,,7,,,50,60
192,note_on,,,,,4,0,7,,,,,5,,,50,92
192,note_on,,,,,4,0,4,,,,,2,,,72,108
192,note_on,,,,,4,0,1,,,,,0,,,72,92
192,note_on,,,,,4,0,3,,,,,8,,,50,92
320,note_off,,,,,320,0,6,,,,,4,,,72,0
380,note_off,,,,,188,0,8,,,,,6,,,38,0
380,note_off,,,,,188,0,1,,,,,0,,,72,0
380,note_off,,,,,188,0,9,,,,,7,,,50,0
380,note_off,,,,,188,0,3,,,,,8,,,50,0
380,note_off,,,,,188,0,4,,,,,2,,,72,0
380,note_off,,,,,188,0,7,,,,,5,,,50,0
384,note_on,,,,,4,0,3,,,,,8,,,51,92
384,note_on,,,,,384,0,2,,,,,1,,,63,92
384,note_on,,,,,4,0,8,,,,,6,,,39,75
384,note_on,,,,,4,0,9,,,,,7,,,51,60
384,note_on,,,,,64,0,6,,,,,4,,,60,92
384,note_on,,,,,4,0,7,,,,,5,,,51,92
384,note_on,,,,,384,0,5,,,,,3,,,63,108
432,note_off,,,,,48,0,5,,,,,3,,,63,0
432,note_on,,,,,0,0,5,,,,,3,,,65,108
432,note_on,,,,,0,0,2,,,,,1,,,65,92
432,note_off,,,,,48,0,2,,,,,1,,,63,0
480,note_on,,,,,0,0,2,,,,,1,,,67,92
480,note_off,,,,,48,0,5,,,,,3,,,65,0
480,note_off,,,,,48,0,2,,,,,1,,,65,0
480,note_on,,,,,0,0,5,,,,,3,,,67,108
572,note_off,,,,,92,0,2,,,,,1,,,67,0
572,note_off,,,,,92,0,5,,,,,3,,,67,0
572,note_off,,,,,188,0,3,,,,,8,,,51,0
572,note_off,,,,,188,0,9,,,,,7,,,51,0
572,note_off,,,,,188,0,7,,,,,5,,,51,0
572,note_off,,,,,188,0,8,,,,,6,,,39,0
576,note_on,,,,,4,0,2,,,,,1,,,60,92
576,note_on,,,,,4,0,9,,,,,7,,,53,60
576,note_on,,,,,4,0,7,,,,,5,,,53,92
576,note_on,,,,,4,0,3,,,,,8,,,53,92
576,note_on,,,,,4,0,5,,,,,3,,,60,108
576,note_on,,,,,4,0,8,,,,,6,,,41,75
704,note_off,,,,,320,0,6,,,,,4,,,60,0
764,note_off,,,,,188,0,3,,,,,8,,,53,0
764,note_off,,,,,188,0,5,,,,,3,,,60,0
764,note_off,,,,,188,0,7,,,,,5,,,53,0
764,note_off,,,,,188,0,8,,,,,6,,,41,0
764,note_off,,,,,188,0,2,,,,,1,,,60,0
764,note_off,,,,,188,0,9,,,,,7,,,53,0
768,note_on,,,,,388,0,1,,,,,0,,,83,92
768,note_on,,,,,4,0,3,,,,,8,,,55,92
768,note_on,,,,,4,0,7,,,,,5,,,55,92
768,note_on,,,,,4,0,9,,,,,7,,,55,60
768,note_on,,,,,4,0,8,,,,,6,,,43,75
768,note_on,,,,,64,0,6,,,,,4,,,67,92
768,note_on,,,,,388,0,4,,,,,2,,,83,108
816,note_off,,,,,48,0,4,,,,,2,,,83,0
816,note_on,,,,,0,0,1,,,,,0,,,84,92
816,note_off,,,,,48,0,1,,,,,0,,,83,0
816,note_on,,,,,0,0,4,,,,,2,,,84,108
864,note_on,,,,,0,0,1,,,,,0,,,86,92
864,note_on,,,,,0,0,4,,,,,2,,,86,108
864,note_off,,,,,48,0,1,,,,,0,,,84,0
864,note_off,,,,,48,0,4,,,,,2,,,84,0
956,note_off,,,,,188,0,8,,,,,6,,,43,0
956,note_off,,,,,188,0,9,,,,,7,,,55,0
956,note_off,,,,,92,0,4,,,,,2,,,86,0
956,note_off,,,,,188,0,7,,,,,5,,,55,0
956,note_off,,,,,92,0,1,,,,,0,,,86,0
956,note_off,,,,,188,0,3,,,,,8,,,55,0
960,note_on,,,,,4,0,9,,,,,7,,,57,60
960,note_on,,,,,4,0,7,,,,,5,,,57,92
960,note_on,,,,,4,0,1,,,,,0,,,77,92
960,note_on,,,,,4,0,4,,,,,2,,,77,108
960,note_on,,,,,4,0,8,,,,,6,,,45,75
960,note_on,,,,,4,0,3,,,,,8,,,57,92
1088,note_off,,,,,320,0,6,,,,,4,,,67,0
1148,note_off,,,,,188,0,1,,,,,0,,,77,0
1148,note_off,,,,,188,0,4,,,,,2,,,77,0
1148,note_off,,,,,188,0,9,,,,,7,,,57,0
1148,note_off,,,,,188,0,7,,,,,5,,,57,0
1148,note_off,,,,,188,0,3,,,,,8,,,57,0
1148,note_off,,,,,188,0,8,,,,,6,,,45,0
1152,note_on,,,,,4,0,9,,,,,7,,,59,60
1152,note_on,,,,,388,0,5,,,,,3,,,71,108
1152,note_on,,,,,64,0,6,,,,,4,,,62,92
1152,note_on,,,,,4,0,3,,,,,8,,,59,92
1152,note_on,,,,,4,0,8,,,,,6,,,47,75
1152,note_on,,,,,388,0,2,,,,,1,,,71,92
1152,note_on,,,,,4,0,7,,,,,5,,,59,92
1200,note_on,,,,,0,0,2,,,,,1,,,72,92
1200,note_off,,,,,48,0,2,,,,,1,,,71,0
1200,note_on,,,,,0,0,5,,,,,3,,,72,108
1200,note_off,,,,,48,0,5,,,,,3,,,71,0
1248,note_on,,,,,0,0,2,,,,,1,,,74,92
1248,note_off,,,,,48,0,2,,,,,1,,,72,0
1248,note_on,,,,,0,0,5,,,,,3,,,74,108
1248,note_off,,,,,48,0,5,,,,,3,,,72,0
1340,note_off,,,,,188,0,3,,,,,8,,,59,0
1340,note_off,,,,,188,0,9,,,,,7,,,59,0
1340,note_off,,,,,92,0,5,,,,,3,,,74,0
1340,note_off,,,,,188,0,8,,,,,6,,,47,0
1340,note_off,,,,,188,0,7,,,,,5,,,59,0
1340,note_off,,,,,92,0,2,,,,,1,,,74,0
1344,note_on,,,,,4,0,3,,,,,8,,,47,92
1344,note_on,,,,,4,0,7,,,,,5,,,47,92
1344,note_on,,,,,4,0,8,,,,,6,,,35,75
1344,note_on,,,,,4,0,5,,,,,3,,,65,108
1344,note_on,,,,,4,0,2,,,,,1,,,65,92
1344,note_on,,,,,4,0,9,,,,,7,,,47,60
1472,note_off,,,,,320,0,6,,,,,4,,,62,0
1532,note_off,,,,,188,0,9,,,,,7,,,47,0
1532,note_off,,,,,188,0,2,,,,,1,,,65,0
1532,note_off,,,,,188,0,8,,,,,6,,,35,0
1532,note_off,,,,,188,0,3,,,,,8,,,47,0
1532,note_off,,,,,188,0,5,,,,,3,,,65,0
1532,note_off,,,,,188,0,7,,,,,5,,,47,0
1536,note_on,,,,,4,0,8,,,,,6,,,36,75
1536,note_on,,,,,388,0,1,,,,,0,,,77,92
1536,note_on,,,,,4,0,7,,,,,5,,,48,92
1536,note_on,,,,,388,0,4,,,,,2,,,77,108
1536,note_on,,,,,64,0,6,,,,,4,,,67,92
1536,note_on,,,,,4,0,3,,,,,8,,,48,92
1536,note_on,,,,,4,0,9,,,,,7,,,48,60
1584,note_on,,,,,0,0,4,,,,,2,,,79,108
1584,note_off,,,,,48,0,4,,,,,2,,,77,0
1584,note_off,,,,,48,0,1,,,,,0,,,77,0
1584,note_on,,,,,0,0,1,,,,,0,,,79,92
1632,note_on,,,,,0,0,4,,,,,2,,,80,108
1632,note_off,,,,,48,0,4,,,,,2,,,79,0
1632,note_off,,,,,48,0,1,,,,,0,,,79,0
1632,note_on,,,,,0,0,1,,,,,0,,,80,92
1724,note_off,,,,,188,0,9,,,,,7,,,48,0
1724,note_off,,,,,92,0,4,,,,,2,,,80,0
1724,note_off,,,,,188,0,7,,,,,5,,,48,0
1724,note_off,,,,,188,0,3,,,,,8,,,48,0
1724,note_off,,,,,92,0,1,,,,,0,,,80,0
1724,note_off,,,,,188,0,8,,,,,6,,,36,0
1728,note_on,,,,,4,0,4,,,,,2,,,72,108
1728,note_on,,,,,4,0,9,,,,,7,,,50,60
1728,note_on,,,,,4,0,3,,,,,8,,,50,92
1728,note_on,,,,,4,0,1,,,,,0,,,72,92
1728,note_on,,,,,4,0,8,,,,,6,,,38,75
1728,note_on,,,,,4,0,7,,,,,5,,,50,92
1856,note_off,,,,,320,0,6,,,,,4,,,67,0
1916,note_off,,,,,188,0,4,,,,,2,,,72,0
1916,note_off,,,,,188,0,1,,,,,0,,,72,0
1916,note_off,,,,,188,0,7,,,,,5,,,50,0
1916,note_off,,,,,188,0,8,,,,,6,,,38,0
1916,note_off,,,,,188,0,3,,,,,8,,,50,0
1916,note_off,,,,,188,0,9,,,,,7,,,50,0
1920,note_on,,,,,388,0,5,,,,,3,,,63,108
1920,note_on,,,,,4,0,7,,,,,5,,,51,92
1920,note_on,,,,,388,0,2,,,,,1,,,63,92
1920,note_on,,,,,4,0,3,,,,,8,,,51,92
1920,note_on,,,,,64,0,6,,,,,4,,,60,92
1920,note_on,,,,,4,0,9,,,,,7,,,51,60
1920,note_on,,,,,4,0,8,,,,,6,,,39,75
1968,note_off,,,,,48,0,5,,,,,3,,,63,0
1968,note_on,,,,,0,0,2,,,,,1,,,65,92
1968,note_off,,,,,48,0,2,,,,,1,,,63,0
1968,note_on,,,,,0,0,5,,,,,3,,,65,108
2016,note_off,,,,,48,0,2,,,,,1,,,65,0
2016,note_on,,,,,0,0,2,,,,,1,,,67,92
2016,note_off,,,,,48,0,5,,,,,3,,,65,0
2016,note_on,,,,,0,0,5,,,,,3,,,67,108
2108,note_off,,,,,92,0,5,,,,,3,,,67,0
2108,note_off,,,,,92,0,2,,,,,1,,,67,0
2108,note_off,,,,,188,0,3,,,,,8,,,51,0
2108,note_off,,,,,188,0,7,,,,,5,,,51,0
2108,note_off,,,,,188,0,9,,,,,7,,,51,0
2108,note_off,,,,,188,0,8,,,,,6,,,39,0
2112,note_on,,,,,4,0,5,,,,,3,,,60,108
2112,note_on,,,,,4,0,9,,,,,7,,,53,60
2112,note_on,,,,,4,0,3,,,,,8,,,53,92
2112,note_on,,,,,4,0,8,,,,,6,,,41,75
2112,note_on,,,,,4,0,7,,,,,5,,,53,92
2112,note_on,,,,,4,0,2,,,,,1,,,60,92
2240,note_off,,,,,320,0,6,,,,,4,,,60,0
2300,note_off,,,,,188,0,2,,,,,1,,,60,0
2300,note_off,,,,,188,0,9,,,,,7,,,53,0
2300,note_off,,,,,188,0,5,,,,,3,,,60,0
2300,note_off,,,,,188,0,3,,,,,8,,,53,0
2300,note_off,,,,,188,0,8,,,,,6,,,41,0
2300,note_off,,,,,188,0,7,,,,,5,,,53,0
2304,note_on,,,,,4,0,7,,,,,5,,,55,92
2304,note_on,,,,,4,0,3,,,,,8,,,55,92
2304,note_on,,,,,4,0,9,,,,,7,,,55,60
2304,note_on,,,,,4,0,8,,,,,6,,,43,75
2304,note_on,,,,,64,0,6,,,,,4,,,67,92
2400,note_on,,,,,100,0,5,,,,,3,,,72,127
2400,note_on,,,,,484,0,4,,,,,2,,,75,127
2400,note_on,,,,,100,0,2,,,,,1,,,72,92
2400,note_on,,,,,484,0,1,,,,,0,,,75,92
2492,note_off,,,,,188,0,3,,,,,8,,,55,0
2492,note_off,,,,,92,0,4,,,,,2,,,75,0
2492,note_off,,,,,92,0,2,,,,,1,,,72,0
2492,note_off,,,,,92,0,5,,,,,3,,,72,0
2492,note_off,,,,,92,0,1,,,,,0,,,75,0
2496,note_on,,,,,4,0,5,,,,,3,,,71,127
2496,note_on,,,,,4,0,2,,,,,1,,,71,92
2496,note_on,,,,,4,0,3,,,,,8,,,43,92
2496,note_on,,,,,4,0,1,,,,,0,,,74,92
2496,note_on,,,,,4,0,4,,,,,2,,,74,127
2588,note_off,,,,,92,0,4,,,,,2,,,74,0
2588,note_off,,,,,92,0,1,,,,,0,,,74,0
2588,note_off,,,,,92,0,2,,,,,1,,,71,0
2588,note_off,,,,,92,0,5,,,,,3,,,71,0
2592,note_on,,,,,4,0,4,,,,,2,,,72,127
2592,note_on,,,,,4,0,2,,,,,1,,,69,92
2592,note_on,,,,,4,0,1,,,,,0,,,72,92
2592,note_on,,,,,4,0,5,,,,,3,,,69,127
2624,note_off,,,,,320,0,9,,,,,7,,,55,0
2624,note_off,,,,,320,0,6,,,,,4,,,67,0
2624,note_off,,,,,320,0,8,,,,,6,,,43,0
2624,note_off,,,,,320,0,7,,,,,5,,,55,0
2684,note_off,,,,,92,0,1,,,,,0,,,72,0
2684,note_off,,,,,188,0,3,,,,,8,,,43,0
2684,note_off,,,,,92,0,4,,,,,2,,,72,0
2684,note_off,,,,,92,0,5,,,,,3,,,69,0
2684,note_off,,,,,92,0,2,,,,,1,,,69,0
2688,note_on,,,,,64,0,9,,,,,7,,,43,60
2688,note_on,,,,,4,0,5,,,,,3,,,71,127
2688,note_on,,,,,64,0,6,,,,,4,,,62,92
2688,note_on,,,,,4,0,2,,,,,1,,,71,92
2688,note_on,,,,,64,0,8,,,,,6,,,31,75
2688,note_on,,,,,4,0,4,,,,,2,,,74,127
2688,note_on,,,,,64,0,7,,,,,5,,,43,92
2688,note_on,,,,,4,0,3,,,,,8,,,55,92
2688,note_on,,,,,4,0,1,,,,,0,,,74,92
2780,note_off,,,,,92,0,2,,,,,1,,,71,0
2780,note_off,,,,,92,0,4,,,,,2,,,74,0
2780,note_off,,,,,92,0,1,,,,,0,,,74,0
2780,note_off,,,,,92,0,5,,,,,3,,,71,0
2784,note_on,,,,,4,0,2,,,,,1,,,74,92
2784,note_on,,,,,4,0,4,,,,,2,,,71,127
2784,note_on,,,,,4,0,5,,,,,3,,,74,127
2784,note_on,,,,,4,0,1,,,,,0,,,71,92
2876,note_off,,,,,92,0,2,,,,,1,,,74,0
2876,note_off,,,,,92,0,1,,,,,0,,,71,0
2876,note_off,,,,,92,0,5,,,,,3,,,74,0
2876,note_off,,,,,188,0,3,,,,,8,,,55,0
2876,note_off,,,,,92,0,4,,,,,2,,,71,0
2880,note_on,,,,,4,0,1,,,,,0,,,67,92
2880,note_on,,,,,4,0,5,,,,,3,,,79,127
2880,note_on,,,,,4,0,3,,,,,8,,,59,92
2880,note_on,,,,,4,0,2,,,,,1,,,79,92
2880,note_on,,,,,4,0,4,,,,,2,,,67,127
3008,note_off,,,,,320,0,9,,,,,7,,,43,0
3008,note_off,,,,,320,0,6,,,,,4,,,62,0
3008,note_off,,,,,320,0,7,,,,,5,,,43,0
3008,note_off,,,,,320,0,8,,,,,6,,,31,0
3068,note_off,,,,,188,0,2,,,,,1,,,79,0
3068,note_off,,,,,188,0,1,,,,,0,,,67,0
3068,note_off,,,,,188,0,5,,,,,3,,,79,0
3068,note_off,,,,,188,0,4,,,,,2,,,67,0
3068,note_off,,,,,188,0,3,,,,,8,,,59,0
3072,note_on,,,,,4,0,1,,,,,0,,,75,75
3072,note_on,,,,,4,0,2,,,,,1,,,67,75
3072,note_on,,,,,4,0,3,,,,,8,,,60,75
3260,note_off,,,,,188,0,2,,,,,1,,,67,0
3260,note_off,,,,,188,0,1,,,,,0,,,75,0
3260,note_off,,,,,188,0,3,,,,,8,,,60,0
3264,note_on,,,,,4,0,1,,,,,0,,,75,75
3264,note_on,,,,,4,0,2,,,,,1,,,67,75
3264,note_on,,,,,4,0,3,,,,,8,,,62,75
3452,note_off,,,,,188,0,3,,,,,8,,,62,0
3452,note_off,,,,,188,0,1,,,,,0,,,75,0
3452,note_off,,,,,188,0,2,,,,,1,,,67,0
3456,note_on,,,,,4,0,3,,,,,8,,,63,75
3456,note_on,,,,,4,0,2,,,,,1,,,72,75
3456,note_on,,,,,4,0,1,,,,,0,,,75,75
3644,note_off,,,,,188,0,3,,,,,8,,,63,0
3644,note_off,,,,,188,0,2,,,,,1,,,72,0
3644,note_off,,,,,188,0,1,,,,,0,,,75,0
3648,note_on,,,,,4,0,2,,,,,1,,,72,75
3648,note_on,,,,,4,0,1,,,,,0,,,75,75
3648,note_on,,,,,4,0,3,,,,,8,,,60,75
3836,note_off,,,,,188,0,2,,,,,1,,,72,0
3836,note_off,,,,,188,0,1,,,,,0,,,75,0
3836,note_off,,,,,188,0,3,,,,,8,,,60,0
3840,note_on,,,,,4,0,2,,,,,1,,,72,75
3840,note_on,,,,,4,0,1,,,,,0,,,74,75
3840,note_on,,,,,4,0,3,,,,,8,,,65,75
4028,note_off,,,,,188,0,1,,,,,0,,,74,0
4028,note_off,,,,,188,0,3,,,,,8,,,65,0
4028,note_off,,,,,188,0,2,,,,,1,,,72,0
4032,note_on,,,,,4,0,1,,,,,0,,,74,75
4032,note_on,,,,,4,0,3,,,,,8,,,62,75
4032,note_on,,,,,4,0,2,,,,,1,,,72,75
4220,note_off,,,,,188,0,2,,,,,1,,,72,0
4220,note_off,,,,,188,0,1,,,,,0,,,74,0
4220,note_off,,,,,188,0,3,,,,,8,,,62,0
4224,note_on,,,,,4,0,1,,,,,0,,,74,75
4224,note_on,,,,,4,0,2,,,,,1,,,71,75
4224,note_on,,,,,4,0,3,,,,,8,,,67,75
4412,note_off,,,,,188,0,1,,,,,0,,,74,0
4412,note_off,,,,,188,0,2,,,,,1,,,71,0
4412,note_off,,,,,188,0,3,,,,,8,,,67,0
4416,note_on,,,,,4,0,1,,,,,0,,,74,75
4416,note_on,,,,,4,0,2,,,,,1,,,71,75
4416,note_on,,,,,4,0,3,,,,,8,,,55,75
4604,note_off,,,,,188,0,2,,,,,1,,,71,0
4604,note_off,,,,,188,0,3,,,,,8,,,55,0
4604,note_off,,,,,188,0,1,,,,,0,,,74,0
4608,note_on,,,,,4,0,2,,,,,1,,,75,75
4608,note_on,,,,,4,0,1,,,,,0,,,74,75
4608,note_on,,,,,4,0,3,,,,,8,,,60,75
4796,note_off,,,,,188,0,3,,,,,8,,,60,0
4796,note_off,,,,,188,0,2,,,,,1,,,75,0
4796,note_off,,,,,188,0,1,,,,,0,,,74,0
4800,note_on,,,,,4,0,3,,,,,8,,,48,75
4800,note_on,,,,,4,0,1,,,,,0,,,67,75
4800,note_on,,,,,4,0,2,,,,,1,,,75,75
4988,note_off,,,,,188,0,1,,,,,0,,,67,0
4988,note_off,,,,,188,0,2,,,,,1,,,75,0
4988,note_off,,,,,188,0,3,,,,,8,,,48,0
4992,note_on,,,,,4,0,1,,,,,0,,,72,75
4992,note_on,,,,,4,0,3,,,,,8,,,51,75
4992,note_on,,,,,4,0,2,,,,,1,,,75,75
5180,note_off,,,,,188,0,1,,,,,0,,,72,0
5180,note_off,,,,,188,0,3,,,,,8,,,51,0
5180,note_off,,,,,188,0,2,,,,,1,,,75,0
5184,note_on,,,,,4,0,2,,,,,1,,,75,75
5184,note_on,,,,,4,0,1,,,,,0,,,72,75
5184,note_on,,,,,4,0,3,,,,,8,,,48,75
5372,note_off,,,,,188,0,2,,,,,1,,,75,0
5372,note_off,,,,,188,0,1,,,,,0,,,72,0
5372,note_off,,,,,188,0,3,,,,,8,,,48,0
5376,note_on,,,,,4,0,3,,,,,8,,,55,75
5376,note_on,,,,,4,0,2,,,,,1,,,74,75
5376,note_on,,,,,4,0,1,,,,,0,,,72,75
5564,note_off,,,,,188,0,1,,,,,0,,,72,0
5564,note_off,,,,,188,0,2,,,,,1,,,74,0
5564,note_off,,,,,188,0,3,,,,,8,,,55,0
5568,note_on,,,,,4,0,2,,,,,1,,,74,75
5568,note_on,,,,,4,0,3,,,,,8,,,62,75
5568,note_on,,,,,4,0,1,,,,,0,,,71,75
5756,note_off,,,,,188,0,3,,,,,8,,,62,0
5756,note_off,,,,,188,0,2,,,,,1,,,74,0
5756,note_off,,,,,188,0,1,,,,,0,,,71,0
5760,note_on,,,,,4,0,3,,,,,8,,,59,75
5760,note_on,,,,,4,0,1,,,,,0,,,79,75
5760,note_on,,,,,4,0,2,,,,,1,,,74,75
5948,note_off,,,,,188,0,1,,,,,0,,,79,0
5948,note_off,,,,,188,0,3,,,,,8,,,59,0
5948,note_off,,,,,188,0,2,,,,,1,,,74,0
5952,note_on,,,,,4,0,1,,,,,0,,,77,75
5952,note_on,,,,,4,0,3,,,,,8,,,55,75
5952,note_on,,,,,4,0,2,,,,,1,,,74,75
6140,note_off,,,,,188,0,1,,,,,0,,,77,0
6140,note_off,,,,,188,0,3,,,,,8,,,55,0
6140,note_off,,,,,188,0,2,,,,,1,,,74,0
6144,note_on,,,,,4,0,3,,,,,8,,,60,75
6144,note_on,,,,,4,0,2,,,,,1,,,74,75
6144,note_on,,,,,4,0,1,,,,,0,,,75,75
6332,note_off,,,,,188,0,2,,,,,1,,,74,0
6332,note_off,,,,,188,0,1,,,,,0,,,75,0
6332,note_off,,,,,188,0,3,,,,,8,,,60,0
6336,note_on,,,,,4,0,1,,,,,0,,,77,75
6336,note_on,,,,,4,0,3,,,,,8,,,62,75
6336,note_on,,,,,4,0,2,,,,,1,,,74,75
6524,note_off,,,,,188,0,2,,,,,1,,,74,0
6524,note_off,,,,,188,0,1,,,,,0,,,77,0
6524,note_off,,,,,188,0,3,,,,,8,,,62,0
6528,note_on,,,,,4,0,2,,,,,1,,,72,75
6528,note_on,,,,,4,0,3,,,,,8,,,63,75
6528,note_on,,,,,4,0,1,,,,,0,,,79,75
6716,note_off,,,,,188,0,3,,,,,8,,,63,0
6716,note_off,,,,,188,0,2,,,,,1,,,72,0
6716,note_off,,,,,188,0,1,,,,,0,,,79,0
6720,note_on,,,,,4,0,3,,,,,8,,,60,75
6720,note_on,,,,,4,0,1,,,,,0,,,79,75
6720,note_on,,,,,4,0,2,,,,,1,,,70,75
6908,note_off,,,,,188,0,3,,,,,8,,,60,0
6908,note_off,,,,,188,0,1,,,,,0,,,79,0
6908,note_off,,,,,188,0,2,,,,,1,,,70,0
6912,note_on,,,,,4,0,3,,,,,8,,,53,75
6912,note_on,,,,,4,0,2,,,,,1,,,68,75
6912,note_on,,,,,4,0,1,,,,,0,,,79,75
7100,note_off,,,,,188,0,1,,,,,0,,,79,0
7100,note_off,,,,,188,0,2,,,,,1,,,68,0
7100,note_off,,,,,188,0,3,,,,,8,,,53,0
7104,note_on,,,,,4,0,3,,,,,8,,,55,75
7104,note_on,,,,,4,0,1,,,,,0,,,79,75
7104,note_on,,,,,4,0,2,,,,,1,,,70,75
7292,note_off,,,,,188,0,1,,,,,0,,,79,0
7292,note_off,,,,,188,0,2,,,,,1,,,70,0
7292,note_off,,,,,188,0,3,,,,,8,,,55,0
7296,note_on,,,,,4,0,1,,,,,0,,,77,75
7296,note_on,,,,,4,0,2,,,,,1,,,72,75
7296,note_on,,,,,4,0,3,,,,,8,,,56,75
7484,note_off,,,,,188,0,2,,,,,1,,,72,0
7484,note_off,,,,,188,0,1,,,,,0,,,77,0
7484,note_off,,,,,188,0,3,,,,,8,,,56,0
7488,note_on,,,,,4,0,2,,,,,1,,,72,75
7488,note_on,,,,,4,0,1,,,,,0,,,75,75
7488,note_on,,,,,4,0,3,,,,,8,,,53,75
7676,note_off,,,,,188,0,2,,,,,1,,,72,0
7676,note_off,,,,,188,0,1,,,,,0,,,75,0
7676,note_off,,,,,188,0,3,,,,,8,,,53,0
7680,note_on,,,,,4,0,3,,,,,8,,,58,75
7680,note_on,,,,,4,0,2,,,,,1,,,72,75
7680,note_on,,,,,4,0,1,,,,,0,,,74,75
7868,note_off,,,,,188,0,1,,,,,0,,,74,0
7868,note_off,,,,,188,0,2,,,,,1,,,72,0
7868,note_off,,,,,188,0,3,,,,,8,,,58,0
7872,note_on,,,,,4,0,1,,,,,0,,,75,75
7872,note_on,,,,,4,0,2,,,,,1,,,72,75
7872,note_on,,,,,4,0,3,,,,,8,,,60,75
8060,note_off,,,,,188,0,3,,,,,8,,,60,0
8060,note_off,,,,,188,0,1,,,,,0,,,75,0
8060,note_off,,,,,188,0,2,,,,,1,,,72,0
8064,note_on,,,,,4,0,3,,,,,8,,,62,75
8064,note_on,,,,,4,0,1,,,,,0,,,77,75
8064,note_on,,,,,4,0,2,,,,,1,,,70,75
8252,note_off,,,,,188,0,1,,,,,0,,,77,0
8252,note_off,,,,,188,0,2,,,,,1,,,70,0
8252,note_off,,,,,188,0,3,,,,,8,,,62,0
8256,note_on,,,,,4,0,3,,,,,8,,,58,75
8256,note_on,,,,,4,0,1,,,,,0,,,77,75
8256,note_on,,,,,4,0,2,,,,,1,,,68,75
8444,note_off,,,,,188,0,1,,,,,0,,,77,0
8444,note_off,,,,,188,0,2,,,,,1,,,68,0
8444,note_off,,,,,188,0,3,,,,,8,,,58,0
8448,note_on,,,,,4,0,2,,,,,1,,,67,75
8448,note_on,,,,,4,0,1,,,,,0,,,77,75
8448,note_on,,,,,4,0,3,,,,,8,,,51,75
8636,note_off,,,,,188,0,1,,,,,0,,,77,0
8636,note_off,,,,,188,0,2,,,,,1,,,67,0
8636,note_off,,,,,188,0,3,,,,,8,,,51,0
8640,note_on,,,,,4,0,3,,,,,8,,,53,75
8640,note_on,,,,,4,0,1,,,,,0,,,77,75
8640,note_on,,,,,4,0,2,,,,,1,,,80,75
8828,note_off,,,,,188,0,3,,,,,8,,,53,0
8828,note_off,,,,,188,0,2,,,,,1,,,80,0
8828,note_off,,,,,188,0,1,,,,,0,,,77,0
8832,note_on,,,,,4,0,3,,,,,8,,,55,75
8832,note_on,,,,,4,0,1,,,,,0,,,75,75
8832,note_on,,,,,4,0,2,,,,,1,,,79,75
9020,note_off,,,,,188,0,2,,,,,1,,,79,0
9020,note_off,,,,,188,0,3,,,,,8,,,55,0
9020,note_off,,,,,188,0,1,,,,,0,,,75,0
9024,note_on,,,,,4,0,2,,,,,1,,,79,75
9024,note_on,,,,,4,0,3,,,,,8,,,51,75
9024,note_on,,,,,4,0,1,,,,,0,,,74,75
9212,note_off,,,,,188,0,1,,,,,0,,,74,0
9212,note_off,,,,,188,0,2,,,,,1,,,79,0
9212,note_off,,,,,188,0,3,,,,,8,,,51,0
9216,note_on,,,,,4,0,1,,,,,0,,,72,75
9216,note_on,,,,,4,0,2,,,,,1,,,80,75
9216,note_on,,,,,4,0,3,,,,,8,,,53,75
9404,note_off,,,,,188,0,2,,,,,1,,,80,0
9404,note_off,,,,,188,0,1,,,,,0,,,72,0
9404,note_off,,,,,188,0,3,,,,,8,,,53,0
9408,note_on,,,,,4,0,1,,,,,0,,,71,75
9408,note_on,,,,,4,0,2,,,,,1,,,79,75
9408,note_on,,,,,4,0,3,,,,,8,,,55,75
9596,note_off,,,,,188,0,2,,,,,1,,,79,0
9596,note_off,,,,,188,0,3,,,,,8,,,55,0
9596,note_off,,,,,188,0,1,,,,,0,,,71,0
9600,note_on,,,,,4,0,3,,,,,8,,,56,75
9600,note_on,,,,,4,0,2,,,,,1,,,77,75
9600,note_on,,,,,4,0,1,,,,,0,,,72,75
9788,note_off,,,,,188,0,1,,,,,0,,,72,0
9788,note_off,,,,,188,0,2,,,,,1,,,77,0
9788,note_off,,,,,188,0,3,,,,,8,,,56,0
9792,note_on,,,,,4,0,1,,,,,0,,,74,75
9792,note_on,,,,,4,0,2,,,,,1,,,77,75
9792,note_on,,,,,4,0,3,,,,,8,,,53,75
9980,note_off,,,,,188,0,3,,,,,8,,,53,0
9980,note_off,,,,,188,0,1,,,,,0,,,74,0
9980,note_off,,,,,188,0,2,,,,,1,,,77,0
9984,note_on,,,,,4,0,2,,,,,1,,,77,75
9984,note_on,,,,,4,0,3,,,,,8,,,55,75
9984,note_on,,,,,4,0,1,,,,,0,,,71,75
10172,note_off,,,,,188,0,2,,,,,1,,,77,0
10172,note_off,,,,,188,0,3,,,,,8,,,55,0
10172,note_off,,,,,188,0,1,,,,,0,,,71,0
10176,note_on,,,,,7168,0,8,,,,,6,,,41,75
10176,note_on,,,,,7168,0,7,,,,,5,,,53,92
10176,note_on,,,,,7168,0,6,,,,,4,,,62,92
10176,note_on,,,,,7168,0,9,,,,,7,,,53,60
10176,note_on,,,,,7108,0,4,,,,,2,,,80,127
10176,note_on,,,,,4,0,1,,,,,0,,,80,92
10176,note_on,,,,,7108,0,5,,,,,3,,,71,127
10176,note_on,,,,,4,0,3,,,,,8,,,53,92
10176,note_on,,,,,4,0,2,,,,,1,,,71,92
10364,note_off,,,,,188,0,8,,,,,6,,,41,0
10364,note_off,,,,,188,0,1,,,,,0,,,80,0
10364,note_off,,,,,188,0,7,,,,,5,,,53,0
10364,note_off,,,,,188,0,6,,,,,4,,,62,0
10364,note_off,,,,,188,0,9,,,,,7,,,53,0
10364,note_off,,,,,188,0,4,,,,,2,,,80,0
10364,note_off,,,,,188,0,2,,,,,1,,,71,0
10364,note_off,,,,,188,0,3,,,,,8,,,53,0
10364,note_off,,,,,188,0,5,,,,,3,,,71,0
10368,note_on,,,,,4,0,8,,,,,6,,,39,75
10368,note_on,,,,,4,0,2,,,,,1,,,72,92
10368,note_on,,,,,4,0,9,,,,,7,,,51,60
10368,note_on,,,,,4,0,7,,,,,5,,,51,92
10368,note_on,,,,,4,0,3,,,,,8,,,51,92
10368,note_on,,,,,4,0,6,,,,,4,,,63,92
10368,note_on,,,,,4,0,4,,,,,2,,,79,127
10368,note_on,,,,,4,0,1,,,,,0,,,79,92
10368,note_on,,,,,4,0,5,,,,,3,,,72,127
10556,note_off,,,,,188,0,3,,,,,8,,,51,0
10556,note_off,,,,,188,0,9,,,,,7,,,51,0
10556,note_off,,,,,188,0,4,,,,,2,,,79,0
10556,note_off,,,,,188,0,2,,,,,1,,,72,0
10556,note_off,,,,,188,0,5,,,,,3,,,72,0
10556,note_off,,,,,188,0,7,,,,,5,,,51,0
10556,note_off,,,,,188,0,1,,,,,0,,,79,0
10556,note_off,,,,,188,0,6,,,,,4,,,63,0
10556,note_off,,,,,188,0,8,,,,,6,,,39,0
10560,note_on,,,,,4,0,8,,,,,6,,,38,75
10560,note_on,,,,,4,0,2,,,,,1,,,74,92
10560,note_on,,,,,4,0,9,,,,,7,,,50,60
10560,note_on,,,,,4,0,3,,,,,8,,,50,92
10560,note_on,,,,,4,0,7,,,,,5,,,50,92
10560,note_on,,,,,4,0,4,,,,,2,,,77,127
10560,note_on,,,,,4,0,6,,,,,4,,,65,92
10560,note_on,,,,,4,0,5,,,,,3,,,74,127
10560,note_on,,,,,4,0,1,,,,,0,,,77,92
10748,note_off,,,,,188,0,6,,,,,4,,,65,0
10748,note_off,,,,,188,0,5,,,,,3,,,74,0
10748,note_off,,,,,188,0,9,,,,,7,,,50,0
10748,note_off,,,,,188,0,2,,,,,1,,,74,0
10748,note_off,,,,,188,0,1,,,,,0,,,77,0
10748,note_off,,,,,188,0,7,,,,,5,,,50,0
10748,note_off,,,,,188,0,8,,,,,6,,,38,0
10748,note_off,,,,,188,0,3,,,,,8,,,50,0
10748,note_off,,,,,188,0,4,,,,,2,,,77,0
10752,note_on,,,,,4,0,1,,,,,0,,,75,92
10752,note_on,,,,,4,0,5,,,,,3,,,67,108
10752,note_on,,,,,4,0,6,,,,,4,,,67,92
10752,note_on,,,,,4,0,2,,,,,1,,,67,92
10752,note_on,,,,,4,0,8,,,,,6,,,36,75
10752,note_on,,,,,4,0,9,,,,,7,,,48,60
10752,note_on,,,,,4,0,4,,,,,2,,,75,108
10752,note_on,,,,,4,0,3,,,,,8,,,48,92
10752,note_on,,,,,4,0,7,,,,,5,,,48,92
10940,note_off,,,,,188,0,8,,,,,6,,,36,0
10940,note_off,,,,,188,0,5,,,,,3,,,67,0
10940,note_off,,,,,188,0,6,,,,,4,,,67,0
10940,note_off,,,,,188,0,2,,,,,1,,,67,0
10940,note_off,,,,,188,0,9,,,,,7,,,48,0
10940,note_off,,,,,188,0,7,,,,,5,,,48,0
10940,note_off,,,,,188,0,3,,,,,8,,,48,0
10944,note_on,,,,,4,0,5,,,,,3,,,72,108
10944,note_on,,,,,4,0,2,,,,,1,,,72,92
10944,note_on,,,,,4,0,8,,,,,6,,,44,75
10944,note_on,,,,,4,0,9,,,,,7,,,56,60
10944,note_on,,,,,4,0,6,,,,,4,,,68,92
10944,note_on,,,,,4,0,7,,,,,5,,,56,92
10944,note_on,,,,,4,0,3,,,,,8,,,56,92
11036,note_off,,,,,284,0,1,,,,,0,,,75,0
11036,note_off,,,,,284,0,4,,,,,2,,,75,0
11040,note_on,,,,,4,0,4,,,,,2,,,74,108
11040,note_on,,,,,4,0,1,,,,,0,,,74,92
11132,note_off,,,,,92,0,4,,,,,2,,,74,0
11132,note_off,,,,,188,0,8,,,,,6,,,44,0
11132,note_off,,,,,92,0,1,,,,,0,,,74,0
11132,note_off,,,,,188,0,3,,,,,8,,,56,0
11132,note_off,,,,,188,0,7,,,,,5,,,56,0
11132,note_off,,,,,188,0,9,,,,,7,,,56,0
11132,note_off,,,,,188,0,6,,,,,4,,,68,0
11136,note_on,,,,,4,0,7,,,,,5,,,53,92
11136,note_on,,,,,4,0,6,,,,,4,,,68,92
11136,note_on,,,,,4,0,8,,,,,6,,,41,75
11136,note_on,,,,,4,0,3,,,,,8,,,53,92
11136,note_on,,,,,4,0,4,,,,,2,,,74,108
11136,note_on,,,,,4,0,1,,,,,0,,,74,92
11136,note_on,,,,,4,0,9,,,,,7,,,53,60
11264,note_off,,,,,320,0,2,,,,,1,,,72,0
11264,note_off,,,,,320,0,5,,,,,3,,,72,0
11324,note_off,,,,,188,0,9,,,,,7,,,53,0
11324,note_off,,,,,188,0,3,,,,,8,,,53,0
11324,note_off,,,,,188,0,7,,,,,5,,,53,0
11324,note_off,,,,,188,0,6,,,,,4,,,68,0
11324,note_off,,,,,188,0,8,,,,,6,,,41,0
11328,note_on,,,,,4,0,8,,,,,6,,,43,75
11328,note_on,,,,,4,0,7,,,,,5,,,55,92
11328,note_on,,,,,4,0,9,,,,,7,,,55,60
11328,note_on,,,,,64,0,5,,,,,3,,,71,108
11328,note_on,,,,,4,0,6,,,,,4,,,67,92
11328,note_on,,,,,4,0,3,,,,,8,,,55,92
11328,note_on,,,,,64,0,2,,,,,1,,,71,92
11420,note_off,,,,,284,0,4,,,,,2,,,74,0
11420,note_off,,,,,284,0,1,,,,,0,,,74,0
11424,note_on,,,,,4,0,1,,,,,0,,,72,92
11424,note_on,,,,,4,0,4,,,,,2,,,72,108
11516,note_off,,,,,188,0,5,,,,,3,,,71,0
11516,note_off,,,,,188,0,2,,,,,1,,,71,0
11516,note_off,,,,,188,0,6,,,,,4,,,67,0
11516,note_off,,,,,188,0,3,,,,,8,,,55,0
11516,note_off,,,,,188,0,8,,,,,6,,,43,0
11516,note_off,,,,,188,0,7,,,,,5,,,55,0
11516,note_off,,,,,92,0,1,,,,,0,,,72,0
11516,note_off,,,,,188,0,9,,,,,7,,,55,0
11516,note_off,,,,,92,0,4,,,,,2,,,72,0
11520,note_on,,,,,4,0,9,,,,,7,,,48,60
11520,note_on,,,,,4,0,2,,,,,1,,,72,92
11520,note_on,,,,,4,0,8,,,,,6,,,36,75
11520,note_on,,,,,4,0,7,,,,,5,,,48,92
11520,note_on,,,,,4,0,4,,,,,2,,,72,108
11520,note_on,,,,,4,0,6,,,,,4,,,63,92
11520,note_on,,,,,4,0,1,,,,,0,,,72,92
11520,note_on,,,,,4,0,3,,,,,8,,,48,92
11520,note_on,,,,,4,0,5,,,,,3,,,72,108
11708,note_off,,,,,188,0,1,,,,,0,,,72,0
11708,note_off,,,,,188,0,2,,,,,1,,,72,0
11712,note_on,,,,,4,0,1,,,,,0,,,80,92
11712,note_on,,,,,4,0,2,,,,,1,,,77,92
11840,note_off,,,,,320,0,4,,,,,2,,,72,0
11840,note_off,,,,,320,0,7,,,,,5,,,48,0
11840,note_off,,,,,320,0,6,,,,,4,,,63,0
11840,note_off,,,,,320,0,3,,,,,8,,,48,0
11840,note_off,,,,,320,0,8,,,,,6,,,36,0
11840,note_off,,,,,320,0,9,,,,,7,,,48,0
11840,note_off,,,,,320,0,5,,,,,3,,,72,0
11900,note_off,,,,,188,0,2,,,,,1,,,77,0
11900,note_off,,,,,188,0,1,,,,,0,,,80,0
11904,note_on,,,,,4,0,1,,,,,0,,,79,92
11904,note_on,,,,,4,0,2,,,,,1,,,75,92
12092,note_off,,,,,188,0,1,,,,,0,,,79,0
12092,note_off,,,,,188,0,2,,,,,1,,,75,0
12096,note_on,,,,,4,0,2,,,,,1,,,74,92
12096,note_on,,,,,4,0,1,,,,,0,,,77,92
12284,note_off,,,,,188,0,1,,,,,0,,,77,0
12284,note_off,,,,,188,0,2,,,,,1,,,74,0
12288,note_on,,,,,448,0,6,,,,,4,,,60,75
12288,note_on,,,,,448,0,5,,,,,3,,,72,75
12288,note_on,,,,,448,0,4,,,,,2,,,75,75
12288,note_on,,,,,4,0,1,,,,,0,,,75,75
12288,note_on,,,,,4,0,2,,,,,1,,,75,75
12336,note_off,,,,,48,0,2,,,,,1,,,75,0
12336,note_on,,,,,0,0,2,,,,,1,,,77,75
12336,note_off,,,,,48,0,1,,,,,0,,,75,0
12336,note_on,,,,,0,0,1,,,,,0,,,77,75
12384,note_off,,,,,48,0,1,,,,,0,,,77,0
12384,note_on,,,,,0,0,1,,,,,0,,,79,75
12384,note_off,,,,,48,0,2,,,,,1,,,77,0
12384,note_on,,,,,0,0,2,,,,,1,,,79,75
12476,note_off,,,,,92,0,2,,,,,1,,,79,0
12476,note_off,,,,,188,0,4,,,,,2,,,75,0
12476,note_off,,,,,92,0,1,,,,,0,,,79,0
12476,note_off,,,,,188,0,6,,,,,4,,,60,0
12476,note_off,,,,,188,0,5,,,,,3,,,72,0
12480,note_on,,,,,4,0,4,,,,,2,,,75,75
12480,note_on,,,,,4,0,5,,,,,3,,,72,75
12480,note_on,,,,,4,0,2,,,,,1,,,72,75
12480,note_on,,,,,4,0,6,,,,,4,,,60,75
12480,note_on,,,,,4,0,1,,,,,0,,,72,75
12668,note_off,,,,,188,0,4,,,,,2,,,75,0
12668,note_off,,,,,188,0,2,,,,,1,,,72,0
12668,note_off,,,,,188,0,6,,,,,4,,,60,0
12668,note_off,,,,,188,0,5,,,,,3,,,72,0
12668,note_off,,,,,188,0,1,,,,,0,,,72,0
12672,note_on,,,,,832,0,3,,,,,8,,,51,75
12672,note_on,,,,,4,0,4,,,,,2,,,75,75
12672,note_on,,,,,832,0,8,,,,,6,,,39,45
12672,note_on,,,,,4,0,5,,,,,3,,,72,75
12672,note_on,,,,,4,0,6,,,,,4,,,67,75
12672,note_on,,,,,832,0,9,,,,,7,,,51,45
12672,note_on,,,,,832,0,7,,,,,5,,,51,45
12764,note_off,,,,,92,0,3,,,,,8,,,51,0
12764,note_off,,,,,92,0,8,,,,,6,,,39,0
12764,note_off,,,,,92,0,7,,,,,5,,,51,0
12764,note_off,,,,,92,0,9,,,,,7,,,51,0
12768,note_on,,,,,4,0,9,,,,,7,,,55,45
12768,note_on,,,,,4,0,8,,,,,6,,,43,45
12768,note_on,,,,,4,0,7,,,,,5,,,55,45
12768,note_on,,,,,4,0,3,,,,,8,,,55,75
12860,note_off,,,,,188,0,5,,,,,3,,,72,0
12860,note_off,,,,,92,0,9,,,,,7,,,55,0
12860,note_off,,,,,188,0,4,,,,,2,,,75,0
12860,note_off,,,,,92,0,8,,,,,6,,,43,0
12860,note_off,,,,,92,0,7,,,,,5,,,55,0
12860,note_off,,,,,92,0,3,,,,,8,,,55,0
12860,note_off,,,,,188,0,6,,,,,4,,,67,0
12864,note_on,,,,,4,0,8,,,,,6,,,36,45
12864,note_on,,,,,4,0,3,,,,,8,,,48,75
12864,note_on,,,,,4,0,9,,,,,7,,,48,45
12864,note_on,,,,,4,0,5,,,,,3,,,72,75
12864,note_on,,,,,4,0,4,,,,,2,,,75,75
12864,note_on,,,,,4,0,7,,,,,5,,,48,45
12864,note_on,,,,,4,0,6,,,,,4,,,67,75
13052,note_off,,,,,188,0,6,,,,,4,,,67,0
13052,note_off,,,,,188,0,4,,,,,2,,,75,0
13052,note_off,,,,,188,0,8,,,,,6,,,36,0
13052,note_off,,,,,188,0,5,,,,,3,,,72,0
13052,note_off,,,,,188,0,3,,,,,8,,,48,0
13052,note_off,,,,,188,0,9,,,,,7,,,48,0
13052,note_off,,,,,188,0,7,,,,,5,,,48,0
13056,note_on,,,,,4,0,5,,,,,3,,,71,75
13056,note_on,,,,,388,0,1,,,,,0,,,71,75
13056,note_on,,,,,388,0,2,,,,,1,,,71,75
13056,note_on,,,,,4,0,6,,,,,4,,,67,75
13056,note_on,,,,,4,0,4,,,,,2,,,74,75
13104,note_off,,,,,48,0,1,,,,,0,,,71,0
13104,note_on,,,,,0,0,1,,,,,0,,,72,75
13104,note_off,,,,,48,0,2,,,,,1,,,71,0
13104,note_on,,,,,0,0,2,,,,,1,,,72,75
13152,note_off,,,,,48,0,1,,,,,0,,,72,0
13152,note_off,,,,,48,0,2,,,,,1,,,72,0
13152,note_on,,,,,0,0,2,,,,,1,,,74,75
13152,note_on,,,,,0,0,1,,,,,0,,,74,75
13244,note_off,,,,,92,0,1,,,,,0,,,74,0
13244,note_off,,,,,188,0,6,,,,,4,,,67,0
13244,note_off,,,,,92,0,2,,,,,1,,,74,0
13244,note_off,,,,,188,0,5,,,,,3,,,71,0
13244,note_off,,,,,188,0,4,,,,,2,,,74,0
13248,note_on,,,,,4,0,1,,,,,0,,,67,75
13248,note_on,,,,,4,0,4,,,,,2,,,74,75
13248,note_on,,,,,4,0,2,,,,,1,,,67,75
13248,note_on,,,,,4,0,6,,,,,4,,,67,75
13248,note_on,,,,,4,0,5,,,,,3,,,71,75
13436,note_off,,,,,188,0,4,,,,,2,,,74,0
13436,note_off,,,,,188,0,1,,,,,0,,,67,0
13436,note_off,,,,,188,0,2,,,,,1,,,67,0
13436,note_off,,,,,188,0,6,,,,,4,,,67,0
13436,note_off,,,,,188,0,5,,,,,3,,,71,0
13440,note_on,,,,,388,0,7,,,,,5,,,59,45
13440,note_on,,,,,4,0,4,,,,,2,,,79,75
13440,note_on,,,,,4,0,5,,,,,3,,,74,75
13440,note_on,,,,,4,0,6,,,,,4,,,67,75
13440,note_on,,,,,388,0,3,,,,,8,,,59,75
13440,note_on,,,,,388,0,9,,,,,7,,,59,45
13440,note_on,,,,,388,0,8,,,,,6,,,47,45
13484,note_off,,,,,44,0,3,,,,,8,,,59,0
13488,note_on,,,,,4,0,3,,,,,8,,,60,75
13532,note_off,,,,,92,0,7,,,,,5,,,59,0
13532,note_off,,,,,92,0,9,,,,,7,,,59,0
13532,note_off,,,,,92,0,8,,,,,6,,,47,0
13532,note_off,,,,,44,0,3,,,,,8,,,60,0
13536,note_on,,,,,4,0,3,,,,,8,,,62,75
13536,note_on,,,,,4,0,7,,,,,5,,,62,45
13536,note_on,,,,,4,0,8,,,,,6,,,50,45
13536,note_on,,,,,4,0,9,,,,,7,,,62,45
13628,note_off,,,,,92,0,3,,,,,8,,,62,0
13628,note_off,,,,,188,0,5,,,,,3,,,74,0
13628,note_off,,,,,188,0,4,,,,,2,,,79,0
13628,note_off,,,,,188,0,6,,,,,4,,,67,0
13628,note_off,,,,,92,0,9,,,,,7,,,62,0
13628,note_off,,,,,92,0,8,,,,,6,,,50,0
13628,note_off,,,,,92,0,7,,,,,5,,,62,0
13632,note_on,,,,,4,0,5,,,,,3,,,74,75
13632,note_on,,,,,4,0,9,,,,,7,,,55,45
13632,note_on,,,,,4,0,4,,,,,2,,,79,75
13632,note_on,,,,,4,0,8,,,,,6,,,43,45
13632,note_on,,,,,4,0,7,,,,,5,,,55,45
13632,note_on,,,,,4,0,6,,,,,4,,,67,75
13632,note_on,,,,,4,0,3,,,,,8,,,55,75
13820,note_off,,,,,188,0,9,,,,,7,,,55,0
13820,note_off,,,,,188,0,3,,,,,8,,,55,0
13820,note_off,,,,,188,0,7,,,,,5,,,55,0
13820,note_off,,,,,188,0,5,,,,,3,,,74,0
13820,note_off,,,,,188,0,8,,,,,6,,,43,0
13820,note_off,,,,,188,0,4,,,,,2,,,79,0
13820,note_off,,,,,188,0,6,,,,,4,,,67,0
13824,note_on,,,,,4,0,6,,,,,4,,,67,75
13824,note_on,,,,,4,0,5,,,,,3,,,74,75
13824,note_on,,,,,388,0,2,,,,,1,,,63,75
13824,note_on,,,,,388,0,1,,,,,0,,,63,75
13824,note_on,,,,,4,0,4,,,,,2,,,75,75
13872,note_on,,,,,0,0,2,,,,,1,,,65,75
13872,note_on,,,,,0,0,1,,,,,0,,,65,75
13872,note_off,,,,,48,0,1,,,,,0,,,63,0
13872,note_off,,,,,48,0,2,,,,,1,,,63,0
13920,note_on,,,,,0,0,1,,,,,0,,,67,75
13920,note_on,,,,,0,0,2,,,,,1,,,67,75
13920,note_off,,,,,48,0,2,,,,,1,,,65,0
13920,note_off,,,,,48,0,1,,,,,0,,,65,0
14012,note_off,,,,,188,0,5,,,,,3,,,74,0
14012,note_off,,,,,92,0,1,,,,,0,,,67,0
14012,note_off,,,,,92,0,2,,,,,1,,,67,0
14012,note_off,,,,,188,0,6,,,,,4,,,67,0
14012,note_off,,,,,188,0,4,,,,,2,,,75,0
14016,note_on,,,,,4,0,1,,,,,0,,,60,75
14016,note_on,,,,,4,0,5,,,,,3,,,74,75
14016,note_on,,,,,4,0,4,,,,,2,,,75,75
14016,note_on,,,,,4,0,2,,,,,1,,,60,75
14016,note_on,,,,,4,0,6,,,,,4,,,67,75
14204,note_off,,,,,188,0,5,,,,,3,,,74,0
14204,note_off,,,,,188,0,2,,,,,1,,,60,0
14204,note_off,,,,,188,0,1,,,,,0,,,60,0
14204,note_off,,,,,188,0,4,,,,,2,,,75,0
14204,note_off,,,,,188,0,6,,,,,4,,,67,0
14208,note_on,,,,,388,0,7,,,,,5,,,51,45
14208,note_on,,,,,4,0,4,,,,,2,,,75,75
14208,note_on,,,,,388,0,8,,,,,6,,,39,45
14208,note_on,,,,,4,0,6,,,,,4,,,67,75
14208,note_on,,,,,388,0,3,,,,,8,,,51,75
14208,note_on,,,,,388,0,9,,,,,7,,,51,45
14208,note_on,,,,,4,0,5,,,,,3,,,72,75
14252,note_off,,,,,44,0,3,,,,,8,,,51,0
14256,note_on,,,,,4,0,3,,,,,8,,,53,75
14300,note_off,,,,,44,0,3,,,,,8,,,53,0
14304,note_on,,,,,4,0,3,,,,,8,,,55,75
14396,note_off,,,,,92,0,3,,,,,8,,,55,0
14396,note_off,,,,,188,0,4,,,,,2,,,75,0
14396,note_off,,,,,188,0,9,,,,,7,,,51,0
14396,note_off,,,,,188,0,5,,,,,3,,,72,0
14396,note_off,,,,,188,0,6,,,,,4,,,67,0
14396,note_off,,,,,188,0,8,,,,,6,,,39,0
14396,note_off,,,,,188,0,7,,,,,5,,,51,0
14400,note_on,,,,,4,0,9,,,,,7,,,48,45
14400,note_on,,,,,4,0,3,,,,,8,,,48,75
14400,note_on,,,,,4,0,6,,,,,4,,,67,75
14400,note_on,,,,,4,0,8,,,,,6,,,36,45
14400,note_on,,,,,4,0,7,,,,,5,,,48,45
14400,note_on,,,,,4,0,4,,,,,2,,,75,75
14400,note_on,,,,,4,0,5,,,,,3,,,72,75
14588,note_off,,,,,188,0,5,,,,,3,,,72,0
14588,note_off,,,,,188,0,8,,,,,6,,,36,0
14588,note_off,,,,,188,0,6,,,,,4,,,67,0
14588,note_off,,,,,188,0,3,,,,,8,,,48,0
14588,note_off,,,,,188,0,7,,,,,5,,,48,0
14588,note_off,,,,,188,0,4,,,,,2,,,75,0
14588,note_off,,,,,188,0,9,,,,,7,,,48,0
14592,note_on,,,,,4,0,5,,,,,3,,,71,75
14592,note_on,,,,,4,0,4,,,,,2,,,74,75
14592,note_on,,,,,388,0,1,,,,,0,,,59,75
14592,note_on,,,,,388,0,2,,,,,1,,,59,75
14592,note_on,,,,,4,0,6,,,,,4,,,67,75
14640,note_off,,,,,48,0,1,,,,,0,,,59,0
14640,note_on,,,,,0,0,1,,,,,0,,,60,75
14640,note_off,,,,,48,0,2,,,,,1,,,59,0
14640,note_on,,,,,0,0,2,,,,,1,,,60,75
14688,note_off,,,,,48,0,2,,,,,1,,,60,0
14688,note_on,,,,,0,0,2,,,,,1,,,62,75
14688,note_off,,,,,48,0,1,,,,,0,,,60,0
14688,note_on,,,,,0,0,1,,,,,0,,,62,75
14780,note_off,,,,,92,0,2,,,,,1,,,62,0
14780,note_off,,,,,188,0,5,,,,,3,,,71,0
14780,note_off,,,,,92,0,1,,,,,0,,,62,0
14780,note_off,,,,,188,0,6,,,,,4,,,67,0
14780,note_off,,,,,188,0,4,,,,,2,,,74,0
14784,note_on,,,,,4,0,5,,,,,3,,,71,75
14784,note_on,,,,,4,0,1,,,,,0,,,55,75
14784,note_on,,,,,4,0,6,,,,,4,,,67,75
14784,note_on,,,,,4,0,2,,,,,1,,,55,75
14784,note_on,,,,,4,0,4,,,,,2,,,74,75
14972,note_off,,,,,188,0,6,,,,,4,,,67,0
14972,note_off,,,,,188,0,2,,,,,1,,,55,0
14972,note_off,,,,,188,0,5,,,,,3,,,71,0
14972,note_off,,,,,188,0,4,,,,,2,,,74,0
14972,note_off,,,,,188,0,1,,,,,0,,,55,0
14976,note_on,,,,,388,0,8,,,,,6,,,35,45
14976,note_on,,,,,4,0,5,,,,,3,,,71,75
14976,note_on,,,,,388,0,3,,,,,8,,,47,75
14976,note_on,,,,,4,0,6,,,,,4,,,67,75
14976,note_on,,,,,388,0,7,,,,,5,,,47,45
14976,note_on,,,,,4,0,4,,,,,2,,,74,75
14976,note_on,,,,,388,0,9,,,,,7,,,47,45
15020,note_off,,,,,44,0,3,,,,,8,,,47,0
15024,note_on,,,,,4,0,3,,,,,8,,,48,75
15068,note_off,,,,,44,0,3,,,,,8,,,48,0
15072,note_on,,,,,4,0,3,,,,,8,,,50,75
15164,note_off,,,,,188,0,7,,,,,5,,,47,0
15164,note_off,,,,,92,0,3,,,,,8,,,50,0
15164,note_off,,,,,188,0,4,,,,,2,,,74,0
15164,note_off,,,,,188,0,8,,,,,6,,,35,0
15164,note_off,,,,,188,0,6,,,,,4,,,67,0
15164,note_off,,,,,188,0,9,,,,,7,,,47,0
15164,note_off,,,,,188,0,5,,,,,3,,,71,0
15168,note_on,,,,,4,0,7,,,,,5,,,43,45
15168,note_on,,,,,4,0,3,,,,,8,,,43,75
15168,note_on,,,,,4,0,6,,,,,4,,,67,75
15168,note_on,,,,,4,0,8,,,,,6,,,31,45
15168,note_on,,,,,4,0,4,,,,,2,,,74,75
15168,note_on,,,,,4,0,9,,,,,7,,,43,45
15168,note_on,,,,,4,0,5,,,,,3,,,71,75
15356,note_off,,,,,188,0,4,,,,,2,,,74,0
15356,note_off,,,,,188,0,7,,,,,5,,,43,0
15356,note_off,,,,,188,0,6,,,,,4,,,67,0
15356,note_off,,,,,188,0,3,,,,,8,,,43,0
15356,note_off,,,,,188,0,9,,,,,7,,,43,0
15356,note_off,,,,,188,0,5,,,,,3,,,71,0
15356,note_off,,,,,188,0,8,,,,,6,,,31,0
15360,note_on,,,,,388,0,2,,,,,1,,,75,75
15360,note_on,,,,,388,0,1,,,,,0,,,79,75
15360,note_on,,,,,4,0,3,,,,,8,,,48,75
15548,note_off,,,,,188,0,2,,,,,1,,,75,0
15548,note_off,,,,,188,0,3,,,,,8,,,48,0
15548,note_off,,,,,188,0,1,,,,,0,,,79,0
15552,note_on,,,,,4,0,2,,,,,1,,,77,75
15552,note_on,,,,,4,0,1,,,,,0,,,79,75
15552,note_on,,,,,4,0,3,,,,,8,,,50,75
15740,note_off,,,,,188,0,1,,,,,0,,,79,0
15740,note_off,,,,,188,0,3,,,,,8,,,50,0
15740,note_off,,,,,188,0,2,,,,,1,,,77,0
15744,note_on,,,,,4,0,1,,,,,0,,,84,75
15744,note_on,,,,,4,0,3,,,,,8,,,51,75
15744,note_on,,,,,4,0,2,,,,,1,,,79,75
15932,note_off,,,,,188,0,2,,,,,1,,,79,0
15932,note_off,,,,,188,0,1,,,,,0,,,84,0
15932,note_off,,,,,188,0,3,,,,,8,,,51,0
15936,note_on,,,,,4,0,2,,,,,1,,,79,75
15936,note_on,,,,,4,0,3,,,,,8,,,52,75
15936,note_on,,,,,4,0,1,,,,,0,,,82,75
16124,note_off,,,,,188,0,2,,,,,1,,,79,0
16124,note_off,,,,,188,0,3,,,,,8,,,52,0
16124,note_off,,,,,188,0,1,,,,,0,,,82,0
16128,note_on,,,,,4,0,3,,,,,8,,,53,75
16128,note_on,,,,,4,0,2,,,,,1,,,79,75
16128,note_on,,,,,4,0,1,,,,,0,,,80,75
16316,note_off,,,,,188,0,1,,,,,0,,,80,0
16316,note_off,,,,,188,0,3,,,,,8,,,53,0
16316,note_off,,,,,188,0,2,,,,,1,,,79,0
16320,note_on,,,,,4,0,3,,,,,8,,,55,75
16320,note_on,,,,,4,0,2,,,,,1,,,79,75
16320,note_on,,,,,4,0,1,,,,,0,,,82,75
16508,note_off,,,,,188,0,3,,,,,8,,,55,0
16508,note_off,,,,,188,0,2,,,,,1,,,79,0
16508,note_off,,,,,188,0,1,,,,,0,,,82,0
16512,note_on,,,,,4,0,3,,,,,8,,,56,75
16512,note_on,,,,,4,0,2,,,,,1,,,77,75
16512,note_on,,,,,4,0,1,,,,,0,,,84,75
16700,note_off,,,,,188,0,3,,,,,8,,,56,0
16700,note_off,,,,,188,0,2,,,,,1,,,77,0
16700,note_off,,,,,188,0,1,,,,,0,,,84,0
16704,note_on,,,,,4,0,3,,,,,8,,,57,75
16704,note_on,,,,,4,0,2,,,,,1,,,75,75
16704,note_on,,,,,4,0,1,,,,,0,,,84,75
16892,note_off,,,,,188,0,3,,,,,8,,,57,0
16892,note_off,,,,,188,0,2,,,,,1,,,75,0
16892,note_off,,,,,188,0,1,,,,,0,,,84,0
16896,note_on,,,,,4,0,1,,,,,0,,,84,75
16896,note_on,,,,,4,0,2,,,,,1,,,74,75
16896,note_on,,,,,4,0,3,,,,,8,,,58,75
17084,note_off,,,,,188,0,3,,,,,8,,,58,0
17084,note_off,,,,,188,0,2,,,,,1,,,74,0
17084,note_off,,,,,188,0,1,,,,,0,,,84,0
17088,note_on,,,,,4,0,3,,,,,8,,,60,75
17088,note_on,,,,,4,0,2,,,,,1,,,75,75
17088,note_on,,,,,4,0,1,,,,,0,,,84,75
17276,note_off,,,,,188,0,2,,,,,1,,,75,0
17276,note_off,,,,,188,0,1,,,,,0,,,84,0
17276,note_off,,,,,188,0,3,,,,,8,,,60,0
17280,note_on,,,,,4,0,1,,,,,0,,,82,75
17280,note_on,,,,,4,0,2,,,,,1,,,77,75
17280,note_on,,,,,4,0,3,,,,,8,,,62,75
17468,note_off,,,,,188,0,3,,,,,8,,,62,0
17468,note_off,,,,,188,0,2,,,,,1,,,77,0
17468,note_off,,,,,188,0,1,,,,,0,,,82,0
17472,note_on,,,,,4,0,3,,,,,8,,,58,75
17472,note_on,,,,,4,0,2,,,,,1,,,77,75
17472,note_on,,,,,4,0,1,,,,,0,,,80,75
17660,note_off,,,,,188,0,2,,,,,1,,,77,0
17660,note_off,,,,,188,0,3,,,,,8,,,58,0
17660,note_off,,,,,188,0,1,,,,,0,,,80,0
17664,note_on,,,,,4,0,1,,,,,0,,,79,75
17664,note_on,,,,,4,0,3,,,,,8,,,63,75
17664,note_on,,,,,4,0,2,,,,,1,,,77,75
17852,note_off,,,,,188,0,3,,,,,8,,,63,0
17852,note_off,,,,,188,0,1,,,,,0,,,79,0
17852,note_off,,,,,188,0,2,,,,,1,,,77,0
17856,note_on,,,,,4,0,3,,,,,8,,,65,75
17856,note_on,,,,,4,0,1,,,,,0,,,80,75
17856,note_on,,,,,4,0,2,,,,,1,,,77,75
18044,note_off,,,,,188,0,2,,,,,1,,,77,0
18044,note_off,,,,,188,0,3,,,,,8,,,65,0
18044,note_off,,,,,188,0,1,,,,,0,,,80,0
18048,note_on,,,,,4,0,1,,,,,0,,,82,75
18048,note_on,,,,,4,0,2,,,,,1,,,75,75
18048,note_on,,,,,4,0,3,,,,,8,,,67,75
18236,note_off,,,,,188,0,1,,,,,0,,,82,0
18236,note_off,,,,,188,0,2,,,,,1,,,75,0
18236,note_off,,,,,188,0,3,,,,,8,,,67,0
18240,note_on,,,,,4,0,1,,,,,0,,,82,75
18240,note_on,,,,,4,0,2,,,,,1,,,74,75
18240,note_on,,,,,4,0,3,,,,,8,,,55,75
18428,note_off,,,,,188,0,2,,,,,1,,,74,0
18428,note_off,,,,,188,0,3,,,,,8,,,55,0
18428,note_off,,,,,188,0,1,,,,,0,,,82,0
18432,note_on,,,,,4,0,2,,,,,1,,,72,75
18432,note_on,,,,,4,0,3,,,,,8,,,56,75
18432,note_on,,,,,4,0,1,,,,,0,,,82,75
18620,note_off,,,,,188,0,3,,,,,8,,,56,0
18620,note_off,,,,,188,0,2,,,,,1,,,72,0
18620,note_off,,,,,188,0,1,,,,,0,,,82,0
18624,note_on,,,,,4,0,1,,,,,0,,,82,75
18624,note_on,,,,,4,0,2,,,,,1,,,74,75
18624,note_on,,,,,4,0,3,,,,,8,,,58,75
18812,note_off,,,,,188,0,1,,,,,0,,,82,0
18812,note_off,,,,,188,0,2,,,,,1,,,74,0
18812,note_off,,,,,188,0,3,,,,,8,,,58,0
18816,note_on,,,,,4,0,1,,,,,0,,,80,75
18816,note_on,,,,,4,0,2,,,,,1,,,75,75
18816,note_on,,,,,4,0,3,,,,,8,,,60,75
19004,note_off,,,,,188,0,3,,,,,8,,,60,0
19004,note_off,,,,,188,0,1,,,,,0,,,80,0
19004,note_off,,,,,188,0,2,,,,,1,,,75,0
19008,note_on,,,,,4,0,3,,,,,8,,,56,75
19008,note_on,,,,,4,0,1,,,,,0,,,80,75
19008,note_on,,,,,4,0,2,,,,,1,,,72,75
19196,note_off,,,,,188,0,1,,,,,0,,,80,0
19196,note_off,,,,,188,0,3,,,,,8,,,56,0
19196,note_off,,,,,188,0,2,,,,,1,,,72,0
19200,note_on,,,,,4,0,2,,,,,1,,,74,75
19200,note_on,,,,,4,0,3,,,,,8,,,58,75
19200,note_on,,,,,4,0,1,,,,,0,,,80,75
19388,note_off,,,,,188,0,2,,,,,1,,,74,0
19388,note_off,,,,,188,0,3,,,,,8,,,58,0
19388,note_off,,,,,188,0,1,,,,,0,,,80,0
19392,note_on,,,,,4,0,1,,,,,0,,,84,92
19392,note_on,,,,,4,0,2,,,,,1,,,74,92
19392,note_on,,,,,4036,0,8,,,,,6,,,44,75
19392,note_on,,,,,4036,0,4,,,,,2,,,84,108
19392,note_on,,,,,4036,0,6,,,,,4,,,65,92
19392,note_on,,,,,4,0,3,,,,,8,,,56,92
19392,note_on,,,,,4036,0,5,,,,,3,,,74,108
19392,note_on,,,,,4036,0,9,,,,,7,,,56,45
19392,note_on,,,,,4036,0,7,,,,,5,,,56,92
19580,note_off,,,,,188,0,8,,,,,6,,,44,0
19580,note_off,,,,,188,0,2,,,,,1,,,74,0
19580,note_off,,,,,188,0,3,,,,,8,,,56,0
19580,note_off,,,,,188,0,1,,,,,0,,,84,0
19580,note_off,,,,,188,0,5,,,,,3,,,74,0
19580,note_off,,,,,188,0,6,,,,,4,,,65,0
19580,note_off,,,,,188,0,4,,,,,2,,,84,0
19580,note_off,,,,,188,0,9,,,,,7,,,56,0
19580,note_off,,,,,188,0,7,,,,,5,,,56,0
19584,note_on,,,,,4,0,9,,,,,7,,,55,45
19584,note_on,,,,,4,0,1,,,,,0,,,82,92
19584,note_on,,,,,4,0,2,,,,,1,,,75,92
19584,note_on,,,,,4,0,4,,,,,2,,,82,108
19584,note_on,,,,,4,0,8,,,,,6,,,43,75
19584,note_on,,,,,4,0,5,,,,,3,,,75,108
19584,note_on,,,,,4,0,6,,,,,4,,,67,92
19584,note_on,,,,,4,0,7,,,,,5,,,55,92
19584,note_on,,,,,4,0,3,,,,,8,,,55,92
19772,note_off,,,,,188,0,9,,,,,7,,,55,0
19772,note_off,,,,,188,0,6,,,,,4,,,67,0
19772,note_off,,,,,188,0,7,,,,,5,,,55,0
19772,note_off,,,,,188,0,4,,,,,2,,,82,0
19772,note_off,,,,,188,0,1,,,,,0,,,82,0
19772,note_off,,,,,188,0,5,,,,,3,,,75,0
19772,note_off,,,,,188,0,8,,,,,6,,,43,0
19772,note_off,,,,,188,0,2,,,,,1,,,75,0
19772,note_off,,,,,188,0,3,,,,,8,,,55,0
19776,note_on,,,,,4,0,2,,,,,1,,,77,92
19776,note_on,,,,,4,0,3,,,,,8,,,53,92
19776,note_on,,,,,4,0,8,,,,,6,,,41,75
19776,note_on,,,,,4,0,1,,,,,0,,,80,92
19776,note_on,,,,,4,0,7,,,,,5,,,53,92
19776,note_on,,,,,4,0,9,,,,,7,,,53,45
19776,note_on,,,,,4,0,4,,,,,2,,,80,108
19776,note_on,,,,,4,0,5,,,,,3,,,77,108
19776,note_on,,,,,4,0,6,,,,,4,,,68,92
19964,note_off,,,,,188,0,3,,,,,8,,,53,0
19964,note_off,,,,,188,0,2,,,,,1,,,77,0
19964,note_off,,,,,188,0,4,,,,,2,,,80,0
19964,note_off,,,,,188,0,8,,,,,6,,,41,0
19964,note_off,,,,,188,0,5,,,,,3,,,77,0
19964,note_off,,,,,188,0,9,,,,,7,,,53,0
19964,note_off,,,,,188,0,6,,,,,4,,,68,0
19964,note_off,,,,,188,0,7,,,,,5,,,53,0
19964,note_off,,,,,188,0,1,,,,,0,,,80,0
19968,note_on,,,,,4,0,2,,,,,1,,,70,92
19968,note_on,,,,,4,0,4,,,,,2,,,79,108
19968,note_on,,,,,4,0,5,,,,,3,,,70,108
19968,note_on,,,,,4,0,9,,,,,7,,,51,45
19968,note_on,,,,,4,0,6,,,,,4,,,70,92
19968,note_on,,,,,4,0,3,,,,,8,,,51,92
19968,note_on,,,,,4,0,7,,,,,5,,,51,92
19968,note_on,,,,,4,0,1,,,,,0,,,79,92
19968,note_on,,,,,4,0,8,,,,,6,,,39,75
20156,note_off,,,,,188,0,5,,,,,3,,,70,0
20156,note_off,,,,,188,0,9,,,,,7,,,51,0
20156,note_off,,,,,188,0,7,,,,,5,,,51,0
20156,note_off,,,,,188,0,8,,,,,6,,,39,0
20156,note_off,,,,,188,0,2,,,,,1,,,70,0
20156,note_off,,,,,188,0,3,,,,,8,,,51,0
20156,note_off,,,,,188,0,6,,,,,4,,,70,0
20160,note_on,,,,,4,0,2,,,,,1,,,75,92
20160,note_on,,,,,4,0,7,,,,,5,,,60,92
20160,note_on,,,,,4,0,6,,,,,4,,,72,92
20160,note_on,,,,,4,0,3,,,,,8,,,60,92
20160,note_on,,,,,4,0,5,,,,,3,,,75,108
20160,note_on,,,,,4,0,8,,,,,6,,,48,75
20160,note_on,,,,,4,0,9,,,,,7,,,60,45
20252,note_off,,,,,284,0,4,,,,,2,,,79,0
20252,note_off,,,,,284,0,1,,,,,0,,,79,0
20256,note_on,,,,,4,0,1,,,,,0,,,77,92
20256,note_on,,,,,4,0,4,,,,,2,,,77,108
20348,note_off,,,,,92,0,1,,,,,0,,,77,0
20348,note_off,,,,,92,0,4,,,,,2,,,77,0
20348,note_off,,,,,188,0,7,,,,,5,,,60,0
20348,note_off,,,,,188,0,9,,,,,7,,,60,0
20348,note_off,,,,,188,0,3,,,,,8,,,60,0
20348,note_off,,,,,188,0,8,,,,,6,,,48,0
20348,note_off,,,,,188,0,6,,,,,4,,,72,0
20352,note_on,,,,,4,0,4,,,,,2,,,77,108
20352,note_on,,,,,4,0,1,,,,,0,,,77,92
20352,note_on,,,,,4,0,7,,,,,5,,,56,92
20352,note_on,,,,,4,0,6,,,,,4,,,72,92
20352,note_on,,,,,4,0,9,,,,,7,,,56,45
20352,note_on,,,,,4,0,8,,,,,6,,,44,75
20352,note_on,,,,,4,0,3,,,,,8,,,56,92
20480,note_off,,,,,320,0,2,,,,,1,,,75,0
20480,note_off,,,,,320,0,5,,,,,3,,,75,0
20540,note_off,,,,,188,0,8,,,,,6,,,44,0
20540,note_off,,,,,188,0,9,,,,,7,,,56,0
20540,note_off,,,,,188,0,3,,,,,8,,,56,0
20540,note_off,,,,,188,0,7,,,,,5,,,56,0
20540,note_off,,,,,188,0,6,,,,,4,,,72,0
20544,note_on,,,,,4,0,6,,,,,4,,,70,92
20544,note_on,,,,,4,0,9,,,,,7,,,58,45
20544,note_on,,,,,4,0,3,,,,,8,,,58,92
20544,note_on,,,,,4,0,7,,,,,5,,,58,92
20544,note_on,,,,,4,0,8,,,,,6,,,46,75
20544,note_on,,,,,64,0,2,,,,,1,,,74,92
20544,note_on,,,,,64,0,5,,,,,3,,,74,108
20636,note_off,,,,,284,0,1,,,,,0,,,77,0
20636,note_off,,,,,284,0,4,,,,,2,,,77,0
20640,note_on,,,,,4,0,4,,,,,2,,,75,108
20640,note_on,,,,,4,0,1,,,,,0,,,75,92
20732,note_off,,,,,188,0,7,,,,,5,,,58,0
20732,note_off,,,,,92,0,1,,,,,0,,,75,0
20732,note_off,,,,,188,0,2,,,,,1,,,74,0
20732,note_off,,,,,188,0,5,,,,,3,,,74,0
20732,note_off,,,,,188,0,9,,,,,7,,,58,0
20732,note_off,,,,,188,0,8,,,,,6,,,46,0
20732,note_off,,,,,188,0,6,,,,,4,,,70,0
20732,note_off,,,,,92,0,4,,,,,2,,,75,0
20732,note_off,,,,,188,0,3,,,,,8,,,58,0
20736,note_on,,,,,4,0,9,,,,,7,,,51,45
20736,note_on,,,,,4,0,5,,,,,3,,,75,108
20736,note_on,,,,,4,0,1,,,,,0,,,75,92
20736,note_on,,,,,4,0,6,,,,,4,,,70,92
20736,note_on,,,,,4,0,8,,,,,6,,,39,75
20736,note_on,,,,,4,0,2,,,,,1,,,75,92
20736,note_on,,,,,4,0,3,,,,,8,,,51,92
20736,note_on,,,,,4,0,4,,,,,2,,,75,108
20736,note_on,,,,,4,0,7,,,,,5,,,51,92
20924,note_off,,,,,188,0,1,,,,,0,,,75,0
20924,note_off,,,,,188,0,2,,,,,1,,,75,0
20928,note_on,,,,,4,0,1,,,,,0,,,72,92
20928,note_on,,,,,4,0,2,,,,,1,,,80,92
21056,note_off,,,,,320,0,8,,,,,6,,,39,0
21056,note_off,,,,,320,0,9,,,,,7,,,51,0
21056,note_off,,,,,320,0,3,,,,,8,,,51,0
21056,note_off,,,,,320,0,4,,,,,2,,,75,0
21056,note_off,,,,,320,0,6,,,,,4,,,70,0
21056,note_off,,,,,320,0,5,,,,,3,,,75,0
21056,note_off,,,,,320,0,7,,,,,5,,,51,0
21116,note_off,,,,,188,0,1,,,,,0,,,72,0
21116,note_off,,,,,188,0,2,,,,,1,,,80,0
21120,note_on,,,,,4,0,2,,,,,1,,,79,92
21120,note_on,,,,,4,0,1,,,,,0,,,70,92
21308,note_off,,,,,188,0,2,,,,,1,,,79,0
21308,note_off,,,,,188,0,1,,,,,0,,,70,0
21312,note_on,,,,,4,0,1,,,,,0,,,68,92
21312,note_on,,,,,4,0,2,,,,,1,,,77,92
21500,note_off,,,,,188,0,1,,,,,0,,,68,0
21500,note_off,,,,,188,0,2,,,,,1,,,77,0
21504,note_on,,,,,448,0,4,,,,,2,,,79,108
21504,note_on,,,,,448,0,5,,,,,3,,,79,108
21504,note_on,,,,,4,0,1,,,,,0,,,79,92
21504,note_on,,,,,4,0,2,,,,,1,,,75,92
21548,note_off,,,,,44,0,5,,,,,3,,,79,0
21548,note_off,,,,,44,0,4,,,,,2,,,79,0
21552,note_on,,,,,4,0,4,,,,,2,,,80,108
21552,note_on,,,,,4,0,5,,,,,3,,,80,108
21596,note_off,,,,,44,0,4,,,,,2,,,80,0
21596,note_off,,,,,44,0,5,,,,,3,,,80,0
21600,note_on,,,,,4,0,4,,,,,2,,,82,108
21600,note_on,,,,,4,0,5,,,,,3,,,82,108
21692,note_off,,,,,188,0,2,,,,,1,,,75,0
21692,note_off,,,,,92,0,4,,,,,2,,,82,0
21692,note_off,,,,,92,0,5,,,,,3,,,82,0
21692,note_off,,,,,188,0,1,,,,,0,,,79,0
21696,note_on,,,,,4,0,1,,,,,0,,,79,92
21696,note_on,,,,,4,0,5,,,,,3,,,75,108
21696,note_on,,,,,4,0,4,,,,,2,,,75,108
21696,note_on,,,,,4,0,2,,,,,1,,,75,92
21884,note_off,,,,,188,0,4,,,,,2,,,75,0
21884,note_off,,,,,188,0,2,,,,,1,,,75,0
21884,note_off,,,,,188,0,5,,,,,3,,,75,0
21884,note_off,,,,,188,0,1,,,,,0,,,79,0
21888,note_on,,,,,4,0,2,,,,,1,,,75,92
21888,note_on,,,,,832,0,8,,,,,6,,,43,75
21888,note_on,,,,,4,0,1,,,,,0,,,79,92
21888,note_on,,,,,832,0,3,,,,,8,,,56,92
21888,note_on,,,,,832,0,6,,,,,4,,,55,92
21888,note_on,,,,,832,0,7,,,,,5,,,55,92
21888,note_on,,,,,832,0,9,,,,,7,,,55,60
21932,note_off,,,,,44,0,6,,,,,4,,,55,0
21932,note_off,,,,,44,0,3,,,,,8,,,56,0
21936,note_on,,,,,4,0,3,,,,,8,,,58,92
21936,note_on,,,,,4,0,6,,,,,4,,,56,92
21980,note_off,,,,,44,0,3,,,,,8,,,58,0
21980,note_off,,,,,44,0,6,,,,,4,,,56,0
21984,note_on,,,,,4,0,6,,,,,4,,,58,92
21984,note_on,,,,,4,0,3,,,,,8,,,60,92
22076,note_off,,,,,92,0,6,,,,,4,,,58,0
22076,note_off,,,,,188,0,7,,,,,5,,,55,0
22076,note_off,,,,,188,0,8,,,,,6,,,43,0
22076,note_off,,,,,188,0,1,,,,,0,,,79,0
22076,note_off,,,,,92,0,3,,,,,8,,,60,0
22076,note_off,,,,,188,0,9,,,,,7,,,55,0
22076,note_off,,,,,188,0,2,,,,,1,,,75,0
22080,note_on,,,,,4,0,8,,,,,6,,,39,75
22080,note_on,,,,,4,0,3,,,,,8,,,51,92
22080,note_on,,,,,4,0,2,,,,,1,,,75,92
22080,note_on,,,,,4,0,6,,,,,4,,,51,92
22080,note_on,,,,,4,0,9,,,,,7,,,51,60
22080,note_on,,,,,4,0,1,,,,,0,,,79,92
22080,note_on,,,,,4,0,7,,,,,5,,,51,92
22268,note_off,,,,,188,0,1,,,,,0,,,79,0
22268,note_off,,,,,188,0,9,,,,,7,,,51,0
22268,note_off,,,,,188,0,3,,,,,8,,,51,0
22268,note_off,,,,,188,0,7,,,,,5,,,51,0
22268,note_off,,,,,188,0,6,,,,,4,,,51,0
22268,note_off,,,,,188,0,8,,,,,6,,,39,0
22268,note_off,,,,,188,0,2,,,,,1,,,75,0
22272,note_on,,,,,388,0,5,,,,,3,,,74,108
22272,note_on,,,,,388,0,4,,,,,2,,,74,108
22272,note_on,,,,,4,0,1,,,,,0,,,77,92
22272,note_on,,,,,4,0,2,,,,,1,,,74,92
22316,note_off,,,,,44,0,5,,,,,3,,,74,0
22316,note_off,,,,,44,0,4,,,,,2,,,74,0
22320,note_on,,,,,4,0,5,,,,,3,,,75,108
22320,note_on,,,,,4,0,4,,,,,2,,,75,108
22364,note_off,,,,,44,0,4,,,,,2,,,75,0
22364,note_off,,,,,44,0,5,,,,,3,,,75,0
22368,note_on,,,,,4,0,5,,,,,3,,,77,108
22368,note_on,,,,,4,0,4,,,,,2,,,77,108
22460,note_off,,,,,92,0,5,,,,,3,,,77,0
22460,note_off,,,,,188,0,2,,,,,1,,,74,0
22460,note_off,,,,,188,0,1,,,,,0,,,77,0
22460,note_off,,,,,92,0,4,,,,,2,,,77,0
22464,note_on,,,,,4,0,4,,,,,2,,,70,108
22464,note_on,,,,,4,0,2,,,,,1,,,74,92
22464,note_on,,,,,4,0,5,,,,,3,,,70,108
22464,note_on,,,,,4,0,1,,,,,0,,,77,92
22652,note_off,,,,,188,0,1,,,,,0,,,77,0
22652,note_off,,,,,188,0,2,,,,,1,,,74,0
22652,note_off,,,,,188,0,4,,,,,2,,,70,0
22652,note_off,,,,,188,0,5,,,,,3,,,70,0
22656,note_on,,,,,388,0,9,,,,,7,,,62,60
22656,note_on,,,,,388,0,3,,,,,8,,,50,92
22656,note_on,,,,,4,0,2,,,,,1,,,74,92
22656,note_on,,,,,388,0,7,,,,,5,,,62,92
22656,note_on,,,,,4,0,1,,,,,0,,,77,92
22656,note_on,,,,,388,0,6,,,,,4,,,62,92
22656,note_on,,,,,388,0,8,,,,,6,,,50,75
22700,note_off,,,,,44,0,3,,,,,8,,,50,0
22700,note_off,,,,,44,0,6,,,,,4,,,62,0
22704,note_on,,,,,4,0,3,,,,,8,,,51,92
22704,note_on,,,,,4,0,6,,,,,4,,,63,92
22748,note_off,,,,,44,0,6,,,,,4,,,63,0
22748,note_off,,,,,44,0,3,,,,,8,,,51,0
22752,note_on,,,,,4,0,3,,,,,8,,,53,92
22752,note_on,,,,,4,0,6,,,,,4,,,65,92
22844,note_off,,,,,188,0,2,,,,,1,,,74,0
22844,note_off,,,,,188,0,8,,,,,6,,,50,0
22844,note_off,,,,,188,0,7,,,,,5,,,62,0
22844,note_off,,,,,92,0,6,,,,,4,,,65,0
22844,note_off,,,,,188,0,1,,,,,0,,,77,0
22844,note_off,,,,,188,0,9,,,,,7,,,62,0
22844,note_off,,,,,92,0,3,,,,,8,,,53,0
22848,note_on,,,,,4,0,7,,,,,5,,,58,92
22848,note_on,,,,,4,0,6,,,,,4,,,58,92
22848,note_on,,,,,4,0,2,,,,,1,,,74,92
22848,note_on,,,,,4,0,9,,,,,7,,,58,60
22848,note_on,,,,,4,0,1,,,,,0,,,77,92
22848,note_on,,,,,4,0,8,,,,,6,,,46,75
22848,note_on,,,,,4,0,3,,,,,8,,,46,92
23036,note_off,,,,,188,0,7,,,,,5,,,58,0
23036,note_off,,,,,188,0,8,,,,,6,,,46,0
23036,note_off,,,,,188,0,9,,,,,7,,,58,0
23036,note_off,,,,,188,0,6,,,,,4,,,58,0
23036,note_off,,,,,188,0,2,,,,,1,,,74,0
23036,note_off,,,,,188,0,3,,,,,8,,,46,0
23036,note_off,,,,,188,0,1,,,,,0,,,77,0
23040,note_on,,,,,388,0,4,,,,,2,,,67,60
23040,note_on,,,,,388,0,5,,,,,3,,,63,60
23040,note_on,,,,,4,0,3,,,,,8,,,51,60
23040,note_on,,,,,4,0,2,,,,,1,,,75,60
23040,note_on,,,,,4,0,1,,,,,0,,,79,60
23084,note_off,,,,,44,0,2,,,,,1,,,75,0
23084,note_off,,,,,44,0,1,,,,,0,,,79,0
23088,note_on,,,,,4,0,2,,,,,1,,,77,60
23088,note_on,,,,,4,0,1,,,,,0,,,80,60
23132,note_off,,,,,44,0,1,,,,,0,,,80,0
23132,note_off,,,,,44,0,2,,,,,1,,,77,0
23136,note_on,,,,,4,0,1,,,,,0,,,82,60
23136,note_on,,,,,4,0,2,,,,,1,,,79,60
23228,note_off,,,,,92,0,1,,,,,0,,,82,0
23228,note_off,,,,,188,0,4,,,,,2,,,67,0
23228,note_off,,,,,188,0,3,,,,,8,,,51,0
23228,note_off,,,,,188,0,5,,,,,3,,,63,0
23228,note_off,,,,,92,0,2,,,,,1,,,79,0
23232,note_on,,,,,4,0,2,,,,,1,,,70,60
23232,note_on,,,,,4,0,5,,,,,3,,,63,60
23232,note_on,,,,,4,0,4,,,,,2,,,67,60
23232,note_on,,,,,4,0,1,,,,,0,,,75,60
23232,note_on,,,,,4,0,3,,,,,8,,,53,60
23420,note_off,,,,,188,0,1,,,,,0,,,75,0
23420,note_off,,,,,188,0,3,,,,,8,,,53,0
23420,note_off,,,,,188,0,2,,,,,1,,,70,0
23420,note_off,,,,,188,0,4,,,,,2,,,67,0
23420,note_off,,,,,188,0,5,,,,,3,,,63,0
23424,note_on,,,,,4,0,4,,,,,2,,,67,60
23424,note_on,,,,,388,0,7,,,,,5,,,43,60
23424,note_on,,,,,4,0,5,,,,,3,,,63,60
23424,note_on,,,,,4,0,2,,,,,1,,,67,60
23424,note_on,,,,,388,0,6,,,,,4,,,63,60
23424,note_on,,,,,388,0,9,,,,,7,,,43,45
23424,note_on,,,,,388,0,8,,,,,6,,,31,45
23424,note_on,,,,,4,0,1,,,,,0,,,70,60
23424,note_on,,,,,4,0,3,,,,,8,,,55,60
23468,note_off,,,,,44,0,2,,,,,1,,,67,0
23472,note_off,,,,,48,0,6,,,,,4,,,63,0
23472,note_on,,,,,4,0,2,,,,,1,,,68,60
23472,note_on,,,,,0,0,6,,,,,4,,,65,60
23516,note_off,,,,,44,0,2,,,,,1,,,68,0
23520,note_off,,,,,48,0,6,,,,,4,,,65,0
23520,note_on,,,,,4,0,2,,,,,1,,,70,60
23520,note_on,,,,,0,0,6,,,,,4,,,67,60
23612,note_off,,,,,92,0,6,,,,,4,,,67,0
23612,note_off,,,,,188,0,5,,,,,3,,,63,0
23612,note_off,,,,,188,0,8,,,,,6,,,31,0
23612,note_off,,,,,188,0,1,,,,,0,,,70,0
23612,note_off,,,,,188,0,7,,,,,5,,,43,0
23612,note_off,,,,,92,0,2,,,,,1,,,70,0
23612,note_off,,,,,188,0,4,,,,,2,,,67,0
23612,note_off,,,,,188,0,3,,,,,8,,,55,0
23612,note_off,,,,,188,0,9,,,,,7,,,43,0
23616,note_on,,,,,4,0,3,,,,,8,,,51,60
23616,note_on,,,,,4,0,7,,,,,5,,,39,60
23616,note_on,,,,,4,0,6,,,,,4,,,58,60
23616,note_on,,,,,4,0,2,,,,,1,,,58,60
23616,note_on,,,,,4,0,8,,,,,6,,,27,45
23616,note_on,,,,,4,0,5,,,,,3,,,63,60
23616,note_on,,,,,4,0,4,,,,,2,,,67,60
23616,note_on,,,,,4,0,9,,,,,7,,,39,45
23616,note_on,,,,,4,0,1,,,,,0,,,79,60
23804,note_off,,,,,188,0,8,,,,,6,,,27,0
23804,note_off,,,,,188,0,9,,,,,7,,,39,0
23804,note_off,,,,,188,0,4,,,,,2,,,67,0
23804,note_off,,,,,188,0,2,,,,,1,,,58,0
23804,note_off,,,,,188,0,3,,,,,8,,,51,0
23804,note_off,,,,,188,0,6,,,,,4,,,58,0
23804,note_off,,,,,188,0,7,,,,,5,,,39,0
23804,note_off,,,,,188,0,1,,,,,0,,,79,0
23804,note_off,,,,,188,0,5,,,,,3,,,63,0
23808,note_on,,,,,4,0,2,,,,,1,,,70,60
23808,note_on,,,,,4,0,5,,,,,3,,,62,60
23808,note_on,,,,,4,0,1,,,,,0,,,74,60
23808,note_on,,,,,4,0,4,,,,,2,,,65,60
23808,note_on,,,,,4,0,3,,,,,8,,,58,60
23852,note_off,,,,,44,0,2,,,,,1,,,70,0
23852,note_off,,,,,44,0,1,,,,,0,,,74,0
23856,note_on,,,,,4,0,2,,,,,1,,,72,60
23856,note_on,,,,,4,0,1,,,,,0,,,75,60
23900,note_off,,,,,44,0,2,,,,,1,,,72,0
23900,note_off,,,,,44,0,1,,,,,0,,,75,0
23904,note_on,,,,,4,0,1,,,,,0,,,77,60
23904,note_on,,,,,4,0,2,,,,,1,,,74,60
23996,note_off,,,,,188,0,3,,,,,8,,,58,0
23996,note_off,,,,,188,0,5,,,,,3,,,62,0
23996,note_off,,,,,92,0,1,,,,,0,,,77,0
23996,note_off,,,,,188,0,4,,,,,2,,,65,0
23996,note_off,,,,,92,0,2,,,,,1,,,74,0
24000,note_on,,,,,4,0,3,,,,,8,,,62,60
24000,note_on,,,,,4,0,1,,,,,0,,,70,60
24000,note_on,,,,,4,0,2,,,,,1,,,65,60
24000,note_on,,,,,4,0,4,,,,,2,,,65,60
24000,note_on,,,,,4,0,5,,,,,3,,,62,60
24188,note_off,,,,,188,0,4,,,,,2,,,65,0
24188,note_off,,,,,188,0,3,,,,,8,,,62,0
24188,note_off,,,,,188,0,5,,,,,3,,,62,0
24188,note_off,,,,,188,0,2,,,,,1,,,65,0
24188,note_off,,,,,188,0,1,,,,,0,,,70,0
24192,note_on,,,,,4,0,1,,,,,0,,,65,60
24192,note_on,,,,,4,0,3,,,,,8,,,50,60
24192,note_on,,,,,388,0,9,,,,,7,,,50,45
24192,note_on,,,,,4,0,5,,,,,3,,,62,60
24192,note_on,,,,,388,0,6,,,,,4,,,62,60
24192,note_on,,,,,388,0,7,,,,,5,,,50,60
24192,note_on,,,,,4,0,4,,,,,2,,,65,60
24192,note_on,,,,,4,0,2,,,,,1,,,62,60
24192,note_on,,,,,388,0,8,,,,,6,,,38,45
24240,note_on,,,,,0,0,6,,,,,4,,,63,60
24240,note_off,,,,,48,0,6,,,,,4,,,62,0
24288,note_on,,,,,0,0,6,,,,,4,,,65,60
24288,note_off,,,,,48,0,6,,,,,4,,,63,0
24380,note_off,,,,,188,0,7,,,,,5,,,50,0
24380,note_off,,,,,188,0,3,,,,,8,,,50,0
24380,note_off,,,,,188,0,8,,,,,6,,,38,0
24380,note_off,,,,,188,0,4,,,,,2,,,65,0
24380,note_off,,,,,188,0,2,,,,,1,,,62,0
24380,note_off,,,,,188,0,1,,,,,0,,,65,0
24380,note_off,,,,,92,0,6,,,,,4,,,65,0
24380,note_off,,,,,188,0,9,,,,,7,,,50,0
24380,note_off,,,,,188,0,5,,,,,3,,,62,0
24384,note_on,,,,,4,0,4,,,,,2,,,65,60
24384,note_on,,,,,4,0,6,,,,,4,,,58,60
24384,note_on,,,,,4,0,1,,,,,0,,,70,60
24384,note_on,,,,,4,0,7,,,,,5,,,46,60
24384,note_on,,,,,4,0,9,,,,,7,,,46,45
24384,note_on,,,,,4,0,2,,,,,1,,,67,60
24384,note_on,,,,,4,0,5,,,,,3,,,62,60
24384,note_on,,,,,4,0,8,,,,,6,,,34,45
24384,note_on,,,,,4,0,3,,,,,8,,,46,60
24572,note_off,,,,,188,0,8,,,,,6,,,34,0
24572,note_off,,,,,188,0,5,,,,,3,,,62,0
24572,note_off,,,,,188,0,6,,,,,4,,,58,0
24572,note_off,,,,,188,0,4,,,,,2,,,65,0
24572,note_off,,,,,188,0,7,,,,,5,,,46,0
24572,note_off,,,,,188,0,9,,,,,7,,,46,0
24572,note_off,,,,,188,0,2,,,,,1,,,67,0
24572,note_off,,,,,188,0,3,,,,,8,,,46,0
24572,note_off,,,,,188,0,1,,,,,0,,,70,0
24576,note_on,,,,,4,0,6,,,,,4,,,65,92
24576,note_on,,,,,4,0,5,,,,,3,,,77,108
24576,note_on,,,,,4,0,2,,,,,1,,,77,92
24576,note_on,,,,,4,0,1,,,,,0,,,80,92
24576,note_on,,,,,4,0,4,,,,,2,,,80,108
24624,note_off,,,,,48,0,4,,,,,2,,,80,0
24624,note_on,,,,,0,0,4,,,,,2,,,82,108
24624,note_on,,,,,0,0,5,,,,,3,,,79,108
24624,note_off,,,,,48,0,5,,,,,3,,,77,0
24672,note_on,,,,,0,0,5,,,,,3,,,80,108
24672,note_off,,,,,48,0,4,,,,,2,,,82,0
24672,note_on,,,,,0,0,4,,,,,2,,,84,108
24672,note_off,,,,,48,0,5,,,,,3,,,79,0
24764,note_off,,,,,92,0,5,,,,,3,,,80,0
24764,note_off,,,,,188,0,2,,,,,1,,,77,0
24764,note_off,,,,,188,0,1,,,,,0,,,80,0
24764,note_off,,,,,92,0,4,,,,,2,,,84,0
24768,note_on,,,,,4,0,5,,,,,3,,,77,108
24768,note_on,,,,,4,0,2,,,,,1,,,77,92
24768,note_on,,,,,4,0,1,,,,,0,,,80,92
24768,note_on,,,,,4,0,4,,,,,2,,,77,108
24896,note_off,,,,,320,0,6,,,,,4,,,65,0
24956,note_off,,,,,188,0,2,,,,,1,,,77,0
24956,note_off,,,,,188,0,5,,,,,3,,,77,0
24956,note_off,,,,,188,0,4,,,,,2,,,77,0
24956,note_off,,,,,188,0,1,,,,,0,,,80,0
24960,note_on,,,,,388,0,9,,,,,7,,,56,60
24960,note_on,,,,,4,0,1,,,,,0,,,80,92
24960,note_on,,,,,388,0,3,,,,,8,,,56,92
24960,note_on,,,,,4,0,2,,,,,1,,,77,92
24960,note_on,,,,,64,0,6,,,,,4,,,56,92
24960,note_on,,,,,388,0,7,,,,,5,,,56,92
24960,note_on,,,,,388,0,8,,,,,6,,,44,75
25004,note_off,,,,,44,0,3,,,,,8,,,56,0
25008,note_off,,,,,48,0,6,,,,,4,,,56,0
25008,note_on,,,,,0,0,6,,,,,4,,,58,92
25008,note_on,,,,,4,0,3,,,,,8,,,58,92
25052,note_off,,,,,92,0,9,,,,,7,,,56,0
25052,note_off,,,,,92,0,7,,,,,5,,,56,0
25052,note_off,,,,,92,0,8,,,,,6,,,44,0
25052,note_off,,,,,44,0,3,,,,,8,,,58,0
25056,note_off,,,,,48,0,6,,,,,4,,,58,0
25056,note_on,,,,,4,0,3,,,,,8,,,60,92
25056,note_on,,,,,0,0,6,,,,,4,,,60,92
25056,note_on,,,,,4,0,9,,,,,7,,,60,60
25056,note_on,,,,,4,0,8,,,,,6,,,48,75
25056,note_on,,,,,4,0,7,,,,,5,,,60,92
25148,note_off,,,,,92,0,9,,,,,7,,,60,0
25148,note_off,,,,,188,0,2,,,,,1,,,77,0
25148,note_off,,,,,92,0,6,,,,,4,,,60,0
25148,note_off,,,,,188,0,1,,,,,0,,,80,0
25148,note_off,,,,,92,0,3,,,,,8,,,60,0
25148,note_off,,,,,92,0,8,,,,,6,,,48,0
25148,note_off,,,,,92,0,7,,,,,5,,,60,0
25152,note_on,,,,,4,0,6,,,,,4,,,53,92
25152,note_on,,,,,4,0,3,,,,,8,,,53,92
25152,note_on,,,,,4,0,7,,,,,5,,,53,92
25152,note_on,,,,,4,0,8,,,,,6,,,41,75
25152,note_on,,,,,4,0,9,,,,,7,,,53,60
25152,note_on,,,,,4,0,2,,,,,1,,,77,92
25152,note_on,,,,,4,0,1,,,,,0,,,80,92
25340,note_off,,,,,188,0,2,,,,,1,,,77,0
25340,note_off,,,,,188,0,3,,,,,8,,,53,0
25340,note_off,,,,,188,0,7,,,,,5,,,53,0
25340,note_off,,,,,188,0,8,,,,,6,,,41,0
25340,note_off,,,,,188,0,1,,,,,0,,,80,0
25340,note_off,,,,,188,0,6,,,,,4,,,53,0
25340,note_off,,,,,188,0,9,,,,,7,,,53,0
25344,note_on,,,,,4,0,1,,,,,0,,,79,92
25344,note_on,,,,,388,0,5,,,,,3,,,67,108
25344,note_on,,,,,388,0,4,,,,,2,,,76,108
25344,note_on,,,,,4,0,2,,,,,1,,,76,92
25388,note_off,,,,,44,0,4,,,,,2,,,76,0
25392,note_on,,,,,4,0,4,,,,,2,,,77,108
25436,note_off,,,,,92,0,5,,,,,3,,,67,0
25436,note_off,,,,,44,0,4,,,,,2,,,77,0
25440,note_on,,,,,4,0,4,,,,,2,,,79,108
25440,note_on,,,,,4,0,5,,,,,3,,,72,108
25532,note_off,,,,,188,0,2,,,,,1,,,76,0
25532,note_off,,,,,188,0,1,,,,,0,,,79,0
25532,note_off,,,,,92,0,4,,,,,2,,,79,0
25532,note_off,,,,,92,0,5,,,,,3,,,72,0
25536,note_on,,,,,4,0,2,,,,,1,,,76,92
25536,note_on,,,,,4,0,5,,,,,3,,,64,108
25536,note_on,,,,,4,0,4,,,,,2,,,72,108
25536,note_on,,,,,4,0,1,,,,,0,,,79,92
25724,note_off,,,,,188,0,5,,,,,3,,,64,0
25724,note_off,,,,,188,0,2,,,,,1,,,76,0
25724,note_off,,,,,188,0,1,,,,,0,,,79,0
25724,note_off,,,,,188,0,4,,,,,2,,,72,0
25728,note_on,,,,,388,0,8,,,,,6,,,40,75
25728,note_on,,,,,4,0,1,,,,,0,,,79,92
25728,note_on,,,,,388,0,7,,,,,5,,,52,92
25728,note_on,,,,,4,0,2,,,,,1,,,76,92
25728,note_on,,,,,388,0,6,,,,,4,,,67,92
25728,note_on,,,,,388,0,3,,,,,8,,,52,92
25728,note_on,,,,,388,0,9,,,,,7,,,52,60
25776,note_off,,,,,48,0,3,,,,,8,,,52,0
25776,note_on,,,,,0,0,3,,,,,8,,,53,92
25820,note_off,,,,,92,0,6,,,,,4,,,67,0
25824,note_off,,,,,96,0,9,,,,,7,,,52,0
25824,note_on,,,,,0,0,8,,,,,6,,,43,75
25824,note_on,,,,,0,0,9,,,,,7,,,55,60
25824,note_off,,,,,96,0,8,,,,,6,,,40,0
25824,note_on,,,,,0,0,7,,,,,5,,,55,92
25824,note_on,,,,,4,0,6,,,,,4,,,72,92
25824,note_off,,,,,48,0,3,,,,,8,,,53,0
25824,note_on,,,,,0,0,3,,,,,8,,,55,92
25824,note_off,,,,,96,0,7,,,,,5,,,52,0
25916,note_off,,,,,92,0,7,,,,,5,,,55,0
25916,note_off,,,,,188,0,2,,,,,1,,,76,0
25916,note_off,,,,,92,0,6,,,,,4,,,72,0
25916,note_off,,,,,188,0,1,,,,,0,,,79,0
25916,note_off,,,,,92,0,3,,,,,8,,,55,0
25916,note_off,,,,,92,0,8,,,,,6,,,43,0
25916,note_off,,,,,92,0,9,,,,,7,,,55,0
25920,note_on,,,,,4,0,2,,,,,1,,,76,92
25920,note_on,,,,,4,0,6,,,,,4,,,64,92
25920,note_on,,,,,4,0,9,,,,,7,,,48,60
25920,note_on,,,,,4,0,8,,,,,6,,,36,75
25920,note_on,,,,,4,0,1,,,,,0,,,79,92
25920,note_on,,,,,4,0,7,,,,,5,,,48,92
25920,note_on,,,,,4,0,3,,,,,8,,,48,92
26108,note_off,,,,,188,0,7,,,,,5,,,48,0
26108,note_off,,,,,188,0,9,,,,,7,,,48,0
26108,note_off,,,,,188,0,1,,,,,0,,,79,0
26108,note_off,,,,,188,0,8,,,,,6,,,36,0
26108,note_off,,,,,188,0,6,,,,,4,,,64,0
26108,note_off,,,,,188,0,2,,,,,1,,,76,0
26108,note_off,,,,,188,0,3,,,,,8,,,48,0
26112,note_on,,,,,4,0,1,,,,,0,,,80,60
26112,note_on,,,,,4,0,3,,,,,8,,,53,92
26112,note_on,,,,,388,0,4,,,,,2,,,68,60
26112,note_on,,,,,388,0,5,,,,,3,,,65,60
26112,note_on,,,,,4,0,2,,,,,1,,,77,60
26160,note_off,,,,,48,0,1,,,,,0,,,80,0
26160,note_on,,,,,0,0,1,,,,,0,,,82,60
26160,note_on,,,,,0,0,2,,,,,1,,,79,60
26160,note_off,,,,,48,0,2,,,,,1,,,77,0
26208,note_on,,,,,0,0,2,,,,,1,,,80,60
26208,note_off,,,,,48,0,1,,,,,0,,,82,0
26208,note_off,,,,,48,0,2,,,,,1,,,79,0
26208,note_on,,,,,0,0,1,,,,,0,,,84,60
26300,note_off,,,,,92,0,2,,,,,1,,,80,0
26300,note_off,,,,,188,0,5,,,,,3,,,65,0
26300,note_off,,,,,188,0,3,,,,,8,,,53,0
26300,note_off,,,,,92,0,1,,,,,0,,,84,0
26300,note_off,,,,,188,0,4,,,,,2,,,68,0
26304,note_on,,,,,4,0,5,,,,,3,,,65,60
26304,note_on,,,,,4,0,3,,,,,8,,,55,92
26304,note_on,,,,,4,0,2,,,,,1,,,74,60
26304,note_on,,,,,4,0,4,,,,,2,,,68,60
26304,note_on,,,,,4,0,1,,,,,0,,,77,60
26492,note_off,,,,,188,0,2,,,,,1,,,74,0
26492,note_off,,,,,188,0,4,,,,,2,,,68,0
26492,note_off,,,,,188,0,3,,,,,8,,,55,0
26492,note_off,,,,,188,0,5,,,,,3,,,65,0
26492,note_off,,,,,188,0,1,,,,,0,,,77,0
26496,note_on,,,,,388,0,8,,,,,6,,,32,45
26496,note_on,,,,,4,0,2,,,,,1,,,68,60
26496,note_on,,,,,388,0,6,,,,,4,,,65,92
26496,note_on,,,,,388,0,9,,,,,7,,,44,45
26496,note_on,,,,,4,0,4,,,,,2,,,68,60
26496,note_on,,,,,388,0,7,,,,,5,,,44,60
26496,note_on,,,,,4,0,3,,,,,8,,,56,92
26496,note_on,,,,,4,0,1,,,,,0,,,72,60
26496,note_on,,,,,4,0,5,,,,,3,,,65,60
26540,note_off,,,,,44,0,6,,,,,4,,,65,0
26540,note_off,,,,,44,0,2,,,,,1,,,68,0
26544,note_on,,,,,4,0,2,,,,,1,,,70,60
26544,note_on,,,,,4,0,6,,,,,4,,,67,92
26588,note_off,,,,,44,0,2,,,,,1,,,70,0
26588,note_off,,,,,44,0,6,,,,,4,,,67,0
26592,note_on,,,,,4,0,2,,,,,1,,,72,60
26592,note_on,,,,,4,0,6,,,,,4,,,68,92
26684,note_off,,,,,92,0,2,,,,,1,,,72,0
26684,note_off,,,,,188,0,3,,,,,8,,,56,0
26684,note_off,,,,,188,0,7,,,,,5,,,44,0
26684,note_off,,,,,188,0,4,,,,,2,,,68,0
26684,note_off,,,,,92,0,6,,,,,4,,,68,0
26684,note_off,,,,,188,0,5,,,,,3,,,65,0
26684,note_off,,,,,188,0,1,,,,,0,,,72,0
26684,note_off,,,,,188,0,8,,,,,6,,,32,0
26684,note_off,,,,,188,0,9,,,,,7,,,44,0
26688,note_on,,,,,4,0,3,,,,,8,,,53,92
26688,note_on,,,,,4,0,5,,,,,3,,,65,60
26688,note_on,,,,,4,0,7,,,,,5,,,41,60
26688,note_on,,,,,4,0,2,,,,,1,,,60,60
26688,note_on,,,,,4,0,9,,,,,7,,,41,45
26688,note_on,,,,,4,0,6,,,,,4,,,60,92
26688,note_on,,,,,4,0,8,,,,,6,,,29,45
26688,note_on,,,,,4,0,1,,,,,0,,,80,60
26688,note_on,,,,,4,0,4,,,,,2,,,68,60
26876,note_off,,,,,188,0,5,,,,,3,,,65,0
26876,note_off,,,,,188,0,6,,,,,4,,,60,0
26876,note_off,,,,,188,0,8,,,,,6,,,29,0
26876,note_off,,,,,188,0,7,,,,,5,,,41,0
26876,note_off,,,,,188,0,9,,,,,7,,,41,0
26876,note_off,,,,,188,0,4,,,,,2,,,68,0
26876,note_off,,,,,188,0,3,,,,,8,,,53,0
26876,note_off,,,,,188,0,1,,,,,0,,,80,0
26876,note_off,,,,,188,0,2,,,,,1,,,60,0
26880,note_on,,,,,4,0,5,,,,,3,,,64,60
26880,note_on,,,,,4,0,3,,,,,8,,,60,92
26880,note_on,,,,,4,0,2,,,,,1,,,72,60
26880,note_on,,,,,4,0,1,,,,,0,,,76,60
26880,note_on,,,,,4,0,4,,,,,2,,,67,60
26924,note_off,,,,,44,0,2,,,,,1,,,72,0
26924,note_off,,,,,44,0,1,,,,,0,,,76,0
26928,note_on,,,,,4,0,2,,,,,1,,,74,60
26928,note_on,,,,,4,0,1,,,,,0,,,77,60
26972,note_off,,,,,44,0,1,,,,,0,,,77,0
26972,note_off,,,,,44,0,2,,,,,1,,,74,0
26976,note_on,,,,,4,0,2,,,,,1,,,76,60
26976,note_on,,,,,4,0,1,,,,,0,,,79,60
27068,note_off,,,,,188,0,5,,,,,3,,,64,0
27068,note_off,,,,,92,0,1,,,,,0,,,79,0
27068,note_off,,,,,188,0,4,,,,,2,,,67,0
27068,note_off,,,,,188,0,3,,,,,8,,,60,0
27068,note_off,,,,,92,0,2,,,,,1,,,76,0
27072,note_on,,,,,4,0,4,,,,,2,,,67,60
27072,note_on,,,,,4,0,5,,,,,3,,,64,60
27072,note_on,,,,,4,0,1,,,,,0,,,72,60
27072,note_on,,,,,4,0,2,,,,,1,,,68,60
27072,note_on,,,,,4,0,3,,,,,8,,,64,92
27260,note_off,,,,,188,0,4,,,,,2,,,67,0
27260,note_off,,,,,188,0,1,,,,,0,,,72,0
27260,note_off,,,,,188,0,2,,,,,1,,,68,0
27260,note_off,,,,,188,0,5,,,,,3,,,64,0
27260,note_off,,,,,188,0,3,,,,,8,,,64,0
27264,note_on,,,,,4,0,5,,,,,3,,,64,60
27264,note_on,,,,,388,0,8,,,,,6,,,40,45
27264,note_on,,,,,388,0,7,,,,,5,,,52,60
27264,note_on,,,,,4,0,1,,,,,0,,,67,60
27264,note_on,,,,,388,0,9,,,,,7,,,52,45
27264,note_on,,,,,388,0,6,,,,,4,,,64,92
27264,note_on,,,,,4,0,3,,,,,8,,,52,92
27264,note_on,,,,,4,0,2,,,,,1,,,64,60
27264,note_on,,,,,4,0,4,,,,,2,,,67,60
27308,note_off,,,,,44,0,6,,,,,4,,,64,0
27312,note_on,,,,,4,0,6,,,,,4,,,65,92
27356,note_off,,,,,44,0,6,,,,,4,,,65,0
27360,note_on,,,,,4,0,6,,,,,4,,,67,92
27452,note_off,,,,,92,0,6,,,,,4,,,67,0
27452,note_off,,,,,188,0,9,,,,,7,,,52,0
27452,note_off,,,,,188,0,1,,,,,0,,,67,0
27452,note_off,,,,,188,0,3,,,,,8,,,52,0
27452,note_off,,,,,188,0,4,,,,,2,,,67,0
27452,note_off,,,,,188,0,5,,,,,3,,,64,0
27452,note_off,,,,,188,0,2,,,,,1,,,64,0
27452,note_off,,,,,188,0,7,,,,,5,,,52,0
27452,note_off,,,,,188,0,8,,,,,6,,,40,0
27456,note_on,,,,,4,0,8,,,,,6,,,36,45
27456,note_on,,,,,4,0,3,,,,,8,,,48,92
27456,note_on,,,,,4,0,4,,,,,2,,,67,60
27456,note_on,,,,,4,0,2,,,,,1,,,67,60
27456,note_on,,,,,4,0,5,,,,,3,,,64,60
27456,note_on,,,,,4,0,6,,,,,4,,,60,92
27456,note_on,,,,,4,0,7,,,,,5,,,48,60
27456,note_on,,,,,4,0,1,,,,,0,,,72,60
27456,note_on,,,,,4,0,9,,,,,7,,,48,45
27644,note_off,,,,,188,0,6,,,,,4,,,60,0
27644,note_off,,,,,188,0,8,,,,,6,,,36,0
27644,note_off,,,,,188,0,7,,,,,5,,,48,0
27644,note_off,,,,,188,0,3,,,,,8,,,48,0
27644,note_off,,,,,188,0,2,,,,,1,,,67,0
27644,note_off,,,,,188,0,9,,,,,7,,,48,0
27644,note_off,,,,,188,0,5,,,,,3,,,64,0
27644,note_off,,,,,188,0,4,,,,,2,,,67,0
27644,note_off,,,,,188,0,1,,,,,0,,,72,0
27648,note_on,,,,,4,0,4,,,,,2,,,82,108
27648,note_on,,,,,4,0,9,,,,,7,,,55,60
27648,note_on,,,,,4,0,5,,,,,3,,,79,108
27648,note_on,,,,,4,0,6,,,,,4,,,67,92
27648,note_on,,,,,4,0,3,,,,,8,,,55,92
27648,note_on,,,,,4,0,8,,,,,6,,,43,75
27648,note_on,,,,,4,0,7,,,,,5,,,55,92
27648,note_on,,,,,4,0,1,,,,,0,,,82,92
27648,note_on,,,,,4,0,2,,,,,1,,,79,92
27696,note_off,,,,,48,0,4,,,,,2,,,82,0
27696,note_on,,,,,0,0,4,,,,,2,,,84,108
27696,note_off,,,,,48,0,5,,,,,3,,,79,0
27696,note_on,,,,,0,0,5,,,,,3,,,81,108
27744,note_on,,,,,0,0,4,,,,,2,,,86,108
27744,note_off,,,,,48,0,4,,,,,2,,,84,0
27744,note_on,,,,,0,0,5,,,,,3,,,82,108
27744,note_off,,,,,48,0,5,,,,,3,,,81,0
27836,note_off,,,,,92,0,4,,,,,2,,,86,0
27836,note_off,,,,,188,0,1,,,,,0,,,82,0
27836,note_off,,,,,188,0,2,,,,,1,,,79,0
27836,note_off,,,,,92,0,5,,,,,3,,,82,0
27840,note_on,,,,,4,0,1,,,,,0,,,82,92
27840,note_on,,,,,4,0,4,,,,,2,,,79,108
27840,note_on,,,,,4,0,2,,,,,1,,,79,92
27840,note_on,,,,,4,0,5,,,,,3,,,74,108
27968,note_off,,,,,320,0,7,,,,,5,,,55,0
27968,note_off,,,,,320,0,9,,,,,7,,,55,0
27968,note_off,,,,,320,0,6,,,,,4,,,67,0
27968,note_off,,,,,320,0,8,,,,,6,,,43,0
27968,note_off,,,,,320,0,3,,,,,8,,,55,0
28028,note_off,,,,,188,0,1,,,,,0,,,82,0
28028,note_off,,,,,188,0,4,,,,,2,,,79,0
28028,note_off,,,,,188,0,2,,,,,1,,,79,0
28028,note_off,,,,,188,0,5,,,,,3,,,74,0
28032,note_on,,,,,64,0,3,,,,,8,,,58,92
28032,note_on,,,,,64,0,8,,,,,6,,,46,75
28032,note_on,,,,,4,0,2,,,,,1,,,79,92
28032,note_on,,,,,64,0,7,,,,,5,,,58,92
28032,note_on,,,,,64,0,9,,,,,7,,,58,60
28032,note_on,,,,,64,0,6,,,,,4,,,59,92
28032,note_on,,,,,4,0,1,,,,,0,,,82,92
28076,note_off,,,,,44,0,6,,,,,4,,,59,0
28076,note_off,,,,,44,0,3,,,,,8,,,58,0
28080,note_on,,,,,4,0,3,,,,,8,,,60,92
28080,note_on,,,,,4,0,6,,,,,4,,,60,92
28124,note_off,,,,,44,0,6,,,,,4,,,60,0
28124,note_off,,,,,44,0,3,,,,,8,,,60,0
28124,note_off,,,,,92,0,7,,,,,5,,,58,0
28124,note_off,,,,,92,0,9,,,,,7,,,58,0
28124,note_off,,,,,92,0,8,,,,,6,,,46,0
28128,note_on,,,,,4,0,9,,,,,7,,,62,60
28128,note_on,,,,,4,0,6,,,,,4,,,62,92
28128,note_on,,,,,4,0,7,,,,,5,,,62,92
28128,note_on,,,,,4,0,3,,,,,8,,,62,92
28128,note_on,,,,,4,0,8,,,,,6,,,50,75
28220,note_off,,,,,92,0,9,,,,,7,,,62,0
28220,note_off,,,,,92,0,3,,,,,8,,,62,0
28220,note_off,,,,,188,0,2,,,,,1,,,79,0
28220,note_off,,,,,92,0,8,,,,,6,,,50,0
28220,note_off,,,,,188,0,1,,,,,0,,,82,0
28220,note_off,,,,,92,0,7,,,,,5,,,62,0
28220,note_off,,,,,92,0,6,,,,,4,,,62,0
28224,note_on,,,,,4,0,9,,,,,7,,,55,60
28224,note_on,,,,,4,0,7,,,,,5,,,55,92
28224,note_on,,,,,4,0,2,,,,,1,,,79,92
28224,note_on,,,,,4,0,1,,,,,0,,,82,92
28224,note_on,,,,,4,0,6,,,,,4,,,55,92
28224,note_on,,,,,4,0,8,,,,,6,,,43,75
28224,note_on,,,,,4,0,3,,,,,8,,,55,92
28412,note_off,,,,,188,0,9,,,,,7,,,55,0
28412,note_off,,,,,188,0,8,,,,,6,,,43,0
28412,note_off,,,,,188,0,2,,,,,1,,,79,0
28412,note_off,,,,,188,0,3,,,,,8,,,55,0
28412,note_off,,,,,188,0,6,,,,,4,,,55,0
28412,note_off,,,,,188,0,1,,,,,0,,,82,0
28412,note_off,,,,,188,0,7,,,,,5,,,55,0
28416,note_on,,,,,388,0,5,,,,,3,,,69,108
28416,note_on,,,,,388,0,4,,,,,2,,,78,108
28416,note_on,,,,,4,0,1,,,,,0,,,81,92
28416,note_on,,,,,4,0,2,,,,,1,,,78,92
28464,note_on,,,,,0,0,4,,,,,2,,,79,108
28464,note_off,,,,,48,0,4,,,,,2,,,78,0
28508,note_off,,,,,92,0,5,,,,,3,,,69,0
28512,note_on,,,,,4,0,5,,,,,3,,,74,108
28512,note_on,,,,,0,0,4,,,,,2,,,81,108
28512,note_off,,,,,48,0,4,,,,,2,,,79,0
28604,note_off,,,,,188,0,1,,,,,0,,,81,0
28604,note_off,,,,,188,0,2,,,,,1,,,78,0
28604,note_off,,,,,92,0,5,,,,,3,,,74,0
28604,note_off,,,,,92,0,4,,,,,2,,,81,0
28608,note_on,,,,,4,0,4,,,,,2,,,74,108
28608,note_on,,,,,4,0,1,,,,,0,,,81,92
28608,note_on,,,,,4,0,2,,,,,1,,,78,92
28608,note_on,,,,,4,0,5,,,,,3,,,66,108
28796,note_off,,,,,188,0,5,,,,,3,,,66,0
28796,note_off,,,,,188,0,2,,,,,1,,,78,0
28796,note_off,,,,,188,0,1,,,,,0,,,81,0
28796,note_off,,,,,188,0,4,,,,,2,,,74,0
28800,note_on,,,,,388,0,8,,,,,6,,,42,75
28800,note_on,,,,,388,0,3,,,,,8,,,54,92
28800,note_on,,,,,388,0,9,,,,,7,,,54,60
28800,note_on,,,,,388,0,7,,,,,5,,,54,92
28800,note_on,,,,,388,0,6,,,,,4,,,69,92
28800,note_on,,,,,4,0,2,,,,,1,,,78,92
28800,note_on,,,,,4,0,1,,,,,0,,,81,92
28844,note_off,,,,,44,0,3,,,,,8,,,54,0
28848,note_on,,,,,4,0,3,,,,,8,,,55,92
28892,note_off,,,,,92,0,6,,,,,4,,,69,0
28892,note_off,,,,,92,0,9,,,,,7,,,54,0
28892,note_off,,,,,92,0,7,,,,,5,,,54,0
28892,note_off,,,,,92,0,8,,,,,6,,,42,0
28892,note_off,,,,,44,0,3,,,,,8,,,55,0
28896,note_on,,,,,4,0,7,,,,,5,,,57,92
28896,note_on,,,,,4,0,3,,,,,8,,,57,92
28896,note_on,,,,,4,0,9,,,,,7,,,57,60
28896,note_on,,,,,4,0,8,,,,,6,,,45,75
28896,note_on,,,,,4,0,6,,,,,4,,,74,92
28988,note_off,,,,,92,0,8,,,,,6,,,45,0
28988,note_off,,,,,92,0,3,,,,,8,,,57,0
28988,note_off,,,,,92,0,7,,,,,5,,,57,0
28988,note_off,,,,,92,0,6,,,,,4,,,74,0
28988,note_off,,,,,188,0,2,,,,,1,,,78,0
28988,note_off,,,,,92,0,9,,,,,7,,,57,0
28988,note_off,,,,,188,0,1,,,,,0,,,81,0
28992,note_on,,,,,4,0,3,,,,,8,,,50,92
28992,note_on,,,,,4,0,6,,,,,4,,,66,92
28992,note_on,,,,,4,0,8,,,,,6,,,38,75
28992,note_on,,,,,4,0,2,,,,,1,,,78,92
28992,note_on,,,,,4,0,7,,,,,5,,,50,92
28992,note_on,,,,,4,0,1,,,,,0,,,81,92
28992,note_on,,,,,4,0,9,,,,,7,,,50,60
29180,note_off,,,,,188,0,7,,,,,5,,,50,0
29180,note_off,,,,,188,0,3,,,,,8,,,50,0
29180,note_off,,,,,188,0,6,,,,,4,,,66,0
29180,note_off,,,,,188,0,2,,,,,1,,,78,0
29180,note_off,,,,,188,0,1,,,,,0,,,81,0
29180,note_off,,,,,188,0,9,,,,,7,,,50,0
29180,note_off,,,,,188,0,8,,,,,6,,,38,0
29184,note_on,,,,,4,0,1,,,,,0,,,82,60
29184,note_on,,,,,388,0,4,,,,,2,,,70,60
29184,note_on,,,,,4,0,2,,,,,1,,,79,60
29184,note_on,,,,,388,0,5,,,,,3,,,67,60
29184,note_on,,,,,4,0,3,,,,,8,,,55,75
29228,note_off,,,,,44,0,2,,,,,1,,,79,0
29228,note_off,,,,,44,0,1,,,,,0,,,82,0
29232,note_on,,,,,4,0,1,,,,,0,,,84,60
29232,note_on,,,,,4,0,2,,,,,1,,,81,60
29276,note_off,,,,,44,0,2,,,,,1,,,81,0
29276,note_off,,,,,44,0,1,,,,,0,,,84,0
29280,note_on,,,,,4,0,2,,,,,1,,,82,60
29280,note_on,,,,,4,0,1,,,,,0,,,86,60
29372,note_off,,,,,188,0,4,,,,,2,,,70,0
29372,note_off,,,,,92,0,1,,,,,0,,,86,0
29372,note_off,,,,,188,0,3,,,,,8,,,55,0
29372,note_off,,,,,92,0,2,,,,,1,,,82,0
29372,note_off,,,,,188,0,5,,,,,3,,,67,0
29376,note_on,,,,,4,0,1,,,,,0,,,79,60
29376,note_on,,,,,4,0,4,,,,,2,,,70,60
29376,note_on,,,,,4,0,5,,,,,3,,,67,60
29376,note_on,,,,,4,0,2,,,,,1,,,74,60
29376,note_on,,,,,4,0,3,,,,,8,,,57,75
29564,note_off,,,,,188,0,4,,,,,2,,,70,0
29564,note_off,,,,,188,0,5,,,,,3,,,67,0
29564,note_off,,,,,188,0,1,,,,,0,,,79,0
29564,note_off,,,,,188,0,3,,,,,8,,,57,0
29564,note_off,,,,,188,0,2,,,,,1,,,74,0
29568,note_on,,,,,4,0,5,,,,,3,,,67,60
29568,note_on,,,,,4,0,4,,,,,2,,,70,60
29568,note_on,,,,,4,0,3,,,,,8,,,58,75
29568,note_on,,,,,4,0,2,,,,,1,,,70,60
29568,note_on,,,,,388,0,9,,,,,7,,,46,45
29568,note_on,,,,,388,0,8,,,,,6,,,34,45
29568,note_on,,,,,388,0,6,,,,,4,,,67,75
29568,note_on,,,,,388,0,7,,,,,5,,,46,45
29568,note_on,,,,,4,0,1,,,,,0,,,74,60
29612,note_off,,,,,44,0,6,,,,,4,,,67,0
29612,note_off,,,,,44,0,2,,,,,1,,,70,0
29616,note_on,,,,,4,0,2,,,,,1,,,72,60
29616,note_on,,,,,4,0,6,,,,,4,,,69,75
29660,note_off,,,,,44,0,6,,,,,4,,,69,0
29660,note_off,,,,,44,0,2,,,,,1,,,72,0
29664,note_on,,,,,4,0,6,,,,,4,,,70,75
29664,note_on,,,,,4,0,2,,,,,1,,,74,60
29756,note_off,,,,,188,0,8,,,,,6,,,34,0
29756,note_off,,,,,92,0,6,,,,,4,,,70,0
29756,note_off,,,,,188,0,1,,,,,0,,,74,0
29756,note_off,,,,,188,0,5,,,,,3,,,67,0
29756,note_off,,,,,188,0,4,,,,,2,,,70,0
29756,note_off,,,,,92,0,2,,,,,1,,,74,0
29756,note_off,,,,,188,0,7,,,,,5,,,46,0
29756,note_off,,,,,188,0,3,,,,,8,,,58,0
29756,note_off,,,,,188,0,9,,,,,7,,,46,0
29760,note_on,,,,,4,0,6,,,,,4,,,62,75
29760,note_on,,,,,4,0,4,,,,,2,,,70,60
29760,note_on,,,,,4,0,9,,,,,7,,,43,45
29760,note_on,,,,,4,0,3,,,,,8,,,55,75
29760,note_on,,,,,4,0,8,,,,,6,,,31,45
29760,note_on,,,,,4,0,7,,,,,5,,,43,45
29760,note_on,,,,,4,0,2,,,,,1,,,62,60
29760,note_on,,,,,4,0,5,,,,,3,,,67,60
29760,note_on,,,,,4,0,1,,,,,0,,,82,60
29948,note_off,,,,,188,0,2,,,,,1,,,62,0
29948,note_off,,,,,188,0,5,,,,,3,,,67,0
29948,note_off,,,,,188,0,9,,,,,7,,,43,0
29948,note_off,,,,,188,0,7,,,,,5,,,43,0
29948,note_off,,,,,188,0,6,,,,,4,,,62,0
29948,note_off,,,,,188,0,8,,,,,6,,,31,0
29948,note_off,,,,,188,0,1,,,,,0,,,82,0
29948,note_off,,,,,188,0,3,,,,,8,,,55,0
29948,note_off,,,,,188,0,4,,,,,2,,,70,0
29952,note_on,,,,,4,0,4,,,,,2,,,69,60
29952,note_on,,,,,4,0,1,,,,,0,,,78,60
29952,note_on,,,,,4,0,5,,,,,3,,,66,60
29952,note_on,,,,,4,0,2,,,,,1,,,74,60
29952,note_on,,,,,4,0,3,,,,,8,,,62,75
29996,note_off,,,,,44,0,2,,,,,1,,,74,0
29996,note_off,,,,,44,0,1,,,,,0,,,78,0
30000,note_on,,,,,4,0,2,,,,,1,,,76,60
30000,note_on,,,,,4,0,1,,,,,0,,,79,60
30044,note_off,,,,,44,0,2,,,,,1,,,76,0
30044,note_off,,,,,44,0,1,,,,,0,,,79,0
30048,note_on,,,,,4,0,2,,,,,1,,,78,60
30048,note_on,,,,,4,0,1,,,,,0,,,81,60
30140,note_off,,,,,188,0,5,,,,,3,,,66,0
30140,note_off,,,,,188,0,3,,,,,8,,,62,0
30140,note_off,,,,,92,0,1,,,,,0,,,81,0
30140,note_off,,,,,188,0,4,,,,,2,,,69,0
30140,note_off,,,,,92,0,2,,,,,1,,,78,0
30144,note_on,,,,,4,0,5,,,,,3,,,66,60
30144,note_on,,,,,4,0,3,,,,,8,,,54,75
30144,note_on,,,,,4,0,2,,,,,1,,,69,60
30144,note_on,,,,,4,0,4,,,,,2,,,69,60
30144,note_on,,,,,4,0,1,,,,,0,,,74,60
30332,note_off,,,,,188,0,5,,,,,3,,,66,0
30332,note_off,,,,,188,0,2,,,,,1,,,69,0
30332,note_off,,,,,188,0,4,,,,,2,,,69,0
30332,note_off,,,,,188,0,1,,,,,0,,,74,0
30332,note_off,,,,,188,0,3,,,,,8,,,54,0
30336,note_on,,,,,388,0,7,,,,,5,,,50,45
30336,note_on,,,,,4,0,3,,,,,8,,,50,75
30336,note_on,,,,,4,0,2,,,,,1,,,66,60
30336,note_on,,,,,388,0,9,,,,,7,,,50,45
30336,note_on,,,,,4,0,5,,,,,3,,,66,60
30336,note_on,,,,,388,0,6,,,,,4,,,66,75
30336,note_on,,,,,4,0,1,,,,,0,,,69,60
30336,note_on,,,,,388,0,8,,,,,6,,,38,45
30336,note_on,,,,,4,0,4,,,,,2,,,69,60
30380,note_off,,,,,44,0,6,,,,,4,,,66,0
30384,note_on,,,,,4,0,6,,,,,4,,,67,75
30428,note_off,,,,,44,0,6,,,,,4,,,67,0
30432,note_on,,,,,4,0,6,,,,,4,,,69,75
30524,note_off,,,,,188,0,5,,,,,3,,,66,0
30524,note_off,,,,,188,0,9,,,,,7,,,50,0
30524,note_off,,,,,92,0,6,,,,,4,,,69,0
30524,note_off,,,,,188,0,8,,,,,6,,,38,0
30524,note_off,,,,,188,0,2,,,,,1,,,66,0
30524,note_off,,,,,188,0,1,,,,,0,,,69,0
30524,note_off,,,,,188,0,3,,,,,8,,,50,0
30524,note_off,,,,,188,0,7,,,,,5,,,50,0
30524,note_off,,,,,188,0,4,,,,,2,,,69,0
30528,note_on,,,,,4,0,2,,,,,1,,,69,60
30528,note_on,,,,,4,0,3,,,,,8,,,54,75
30528,note_on,,,,,4,0,1,,,,,0,,,74,60
30528,note_on,,,,,4,0,9,,,,,7,,,54,45
30528,note_on,,,,,4,0,4,,,,,2,,,69,60
30528,note_on,,,,,4,0,5,,,,,3,,,66,60
30528,note_on,,,,,4,0,8,,,,,6,,,42,45
30528,note_on,,,,,4,0,6,,,,,4,,,62,75
30528,note_on,,,,,4,0,7,,,,,5,,,54,45
30716,note_off,,,,,188,0,6,,,,,4,,,62,0
30716,note_off,,,,,188,0,9,,,,,7,,,54,0
30716,note_off,,,,,188,0,4,,,,,2,,,69,0
30716,note_off,,,,,188,0,5,,,,,3,,,66,0
30716,note_off,,,,,188,0,2,,,,,1,,,69,0
30716,note_off,,,,,188,0,1,,,,,0,,,74,0
30716,note_off,,,,,188,0,3,,,,,8,,,54,0
30716,note_off,,,,,188,0,7,,,,,5,,,54,0
30716,note_off,,,,,188,0,8,,,,,6,,,42,0
30720,note_on,,,,,4,0,8,,,,,6,,,43,45
30720,note_on,,,,,4,0,2,,,,,1,,,74,60
30720,note_on,,,,,4,0,1,,,,,0,,,82,60
30720,note_on,,,,,4,0,6,,,,,4,,,62,75
30720,note_on,,,,,4,0,4,,,,,2,,,67,60
30720,note_on,,,,,4,0,5,,,,,3,,,70,60
30720,note_on,,,,,4,0,3,,,,,8,,,55,75
30720,note_on,,,,,4,0,7,,,,,5,,,55,45
30720,note_on,,,,,4,0,9,,,,,7,,,55,45
30908,note_off,,,,,188,0,3,,,,,8,,,55,0
30908,note_off,,,,,188,0,1,,,,,0,,,82,0
30912,note_on,,,,,4,0,3,,,,,8,,,57,75
30912,note_on,,,,,4,0,1,,,,,0,,,84,60
31040,note_off,,,,,320,0,5,,,,,3,,,70,0
31040,note_off,,,,,320,0,7,,,,,5,,,55,0
31040,note_off,,,,,320,0,6,,,,,4,,,62,0
31040,note_off,,,,,320,0,4,,,,,2,,,67,0
31040,note_off,,,,,320,0,2,,,,,1,,,74,0
31040,note_off,,,,,320,0,9,,,,,7,,,55,0
31040,note_off,,,,,320,0,8,,,,,6,,,43,0
31100,note_off,,,,,188,0,3,,,,,8,,,57,0
31100,note_off,,,,,188,0,1,,,,,0,,,84,0
31104,note_on,,,,,4,0,3,,,,,8,,,58,75
31104,note_on,,,,,64,0,2,,,,,1,,,79,60
31104,note_on,,,,,4,0,1,,,,,0,,,86,60
31292,note_off,,,,,188,0,3,,,,,8,,,58,0
31292,note_off,,,,,188,0,2,,,,,1,,,79,0
31296,note_on,,,,,4,0,3,,,,,8,,,59,75
31296,note_on,,,,,4,0,2,,,,,1,,,77,60
31484,note_off,,,,,188,0,3,,,,,8,,,59,0
31484,note_off,,,,,188,0,2,,,,,1,,,77,0
31488,note_on,,,,,4,0,3,,,,,8,,,60,75
31488,note_on,,,,,4,0,2,,,,,1,,,76,60
31676,note_off,,,,,188,0,3,,,,,8,,,60,0
31680,note_on,,,,,4,0,3,,,,,8,,,48,75
31776,note_off,,,,,672,0,1,,,,,0,,,86,0
31808,note_off,,,,,320,0,2,,,,,1,,,76,0
31868,note_off,,,,,188,0,3,,,,,8,,,48,0
31872,note_on,,,,,96,0,1,,,,,0,,,84,60
31872,note_on,,,,,832,0,6,,,,,4,,,57,75
31872,note_on,,,,,832,0,7,,,,,5,,,48,45
31872,note_on,,,,,4,0,3,,,,,8,,,60,75
31872,note_on,,,,,832,0,8,,,,,6,,,36,45
31872,note_on,,,,,832,0,9,,,,,7,,,48,45
31872,note_on,,,,,832,0,4,,,,,2,,,69,60
31872,note_on,,,,,832,0,5,,,,,3,,,64,60
31872,note_on,,,,,64,0,2,,,,,1,,,81,60
31920,note_off,,,,,48,0,4,,,,,2,,,69,0
31920,note_on,,,,,0,0,4,,,,,2,,,70,60
31968,note_on,,,,,0,0,4,,,,,2,,,72,60
31968,note_off,,,,,48,0,4,,,,,2,,,70,0
32060,note_off,,,,,188,0,5,,,,,3,,,64,0
32060,note_off,,,,,92,0,4,,,,,2,,,72,0
32060,note_off,,,,,188,0,9,,,,,7,,,48,0
32060,note_off,,,,,188,0,3,,,,,8,,,60,0
32060,note_off,,,,,188,0,6,,,,,4,,,57,0
32060,note_off,,,,,188,0,7,,,,,5,,,48,0
32060,note_off,,,,,188,0,2,,,,,1,,,81,0
32060,note_off,,,,,188,0,8,,,,,6,,,36,0
32064,note_on,,,,,4,0,8,,,,,6,,,33,45
32064,note_on,,,,,4,0,4,,,,,2,,,64,60
32064,note_on,,,,,4,0,6,,,,,4,,,60,75
32064,note_on,,,,,4,0,9,,,,,7,,,45,45
32064,note_on,,,,,4,0,7,,,,,5,,,45,45
32064,note_on,,,,,4,0,3,,,,,8,,,57,75
32064,note_on,,,,,4,0,2,,,,,1,,,79,60
32064,note_on,,,,,4,0,5,,,,,3,,,60,60
32252,note_off,,,,,188,0,8,,,,,6,,,33,0
32252,note_off,,,,,188,0,7,,,,,5,,,45,0
32252,note_off,,,,,188,0,3,,,,,8,,,57,0
32252,note_off,,,,,188,0,6,,,,,4,,,60,0
32252,note_off,,,,,188,0,5,,,,,3,,,60,0
32252,note_off,,,,,188,0,9,,,,,7,,,45,0
32252,note_off,,,,,188,0,2,,,,,1,,,79,0
32252,note_off,,,,,188,0,4,,,,,2,,,64,0
32256,note_on,,,,,4,0,3,,,,,8,,,62,75
32256,note_on,,,,,4,0,2,,,,,1,,,78,60
32444,note_off,,,,,188,0,3,,,,,8,,,62,0
32444,note_off,,,,,188,0,2,,,,,1,,,78,0
32448,note_on,,,,,4,0,2,,,,,1,,,79,60
32448,note_on,,,,,4,0,3,,,,,8,,,64,75
32576,note_off,,,,,704,0,1,,,,,0,,,84,0
32636,note_off,,,,,188,0,3,,,,,8,,,64,0
32636,note_off,,,,,188,0,2,,,,,1,,,79,0
32640,note_on,,,,,64,0,1,,,,,0,,,86,60
32640,note_on,,,,,4,0,3,,,,,8,,,66,75
32640,note_on,,,,,4,0,2,,,,,1,,,81,60
32828,note_off,,,,,188,0,1,,,,,0,,,86,0
32828,note_off,,,,,188,0,3,,,,,8,,,66,0
32828,note_off,,,,,188,0,2,,,,,1,,,81,0
32832,note_on,,,,,4,0,2,,,,,1,,,78,60
32832,note_on,,,,,4,0,1,,,,,0,,,84,60
32832,note_on,,,,,4,0,3,,,,,8,,,62,75
33020,note_off,,,,,188,0,1,,,,,0,,,84,0
33020,note_off,,,,,188,0,3,,,,,8,,,62,0
33020,note_off,,,,,188,0,2,,,,,1,,,78,0
33024,note_on,,,,,4,0,3,,,,,8,,,67,75
33024,note_on,,,,,4,0,1,,,,,0,,,82,60
33024,note_on,,,,,4,0,2,,,,,1,,,79,60
33212,note_off,,,,,188,0,3,,,,,8,,,67,0
33212,note_off,,,,,188,0,1,,,,,0,,,82,0
33216,note_on,,,,,4,0,1,,,,,0,,,81,60
33216,note_on,,,,,4,0,3,,,,,8,,,62,75
33344,note_off,,,,,320,0,2,,,,,1,,,79,0
33404,note_off,,,,,188,0,1,,,,,0,,,81,0
33404,note_off,,,,,188,0,3,,,,,8,,,62,0
33408,note_on,,,,,1156,0,4,,,,,2,,,67,60
33408,note_on,,,,,64,0,2,,,,,1,,,74,60
33408,note_on,,,,,1156,0,7,,,,,5,,,46,45
33408,note_on,,,,,1156,0,5,,,,,3,,,62,60
33408,note_on,,,,,4,0,1,,,,,0,,,79,60
33408,note_on,,,,,4,0,3,,,,,8,,,58,75
33408,note_on,,,,,1156,0,9,,,,,7,,,46,45
33408,note_on,,,,,1156,0,6,,,,,4,,,55,75
33408,note_on,,,,,1156,0,8,,,,,6,,,34,45
33456,note_off,,,,,48,0,4,,,,,2,,,67,0
33456,note_on,,,,,0,0,4,,,,,2,,,69,60
33504,note_off,,,,,48,0,4,,,,,2,,,69,0
33504,note_on,,,,,0,0,4,,,,,2,,,70,60
33596,note_off,,,,,188,0,5,,,,,3,,,62,0
33596,note_off,,,,,92,0,4,,,,,2,,,70,0
33596,note_off,,,,,188,0,6,,,,,4,,,55,0
33596,note_off,,,,,188,0,7,,,,,5,,,46,0
33596,note_off,,,,,188,0,3,,,,,8,,,58,0
33596,note_off,,,,,188,0,8,,,,,6,,,34,0
33596,note_off,,,,,188,0,9,,,,,7,,,46,0
33600,note_on,,,,,4,0,8,,,,,6,,,31,45
33600,note_on,,,,,4,0,3,,,,,8,,,55,75
33600,note_on,,,,,4,0,4,,,,,2,,,62,60
33600,note_on,,,,,4,0,6,,,,,4,,,58,75
33600,note_on,,,,,4,0,5,,,,,3,,,58,60
33600,note_on,,,,,4,0,9,,,,,7,,,43,45
33600,note_on,,,,,4,0,7,,,,,5,,,43,45
33728,note_off,,,,,320,0,1,,,,,0,,,79,0
33728,note_off,,,,,320,0,2,,,,,1,,,74,0
33788,note_off,,,,,188,0,5,,,,,3,,,58,0
33788,note_off,,,,,188,0,4,,,,,2,,,62,0
33788,note_off,,,,,188,0,3,,,,,8,,,55,0
33788,note_off,,,,,188,0,6,,,,,4,,,58,0
33788,note_off,,,,,188,0,9,,,,,7,,,43,0
33788,note_off,,,,,188,0,8,,,,,6,,,31,0
33788,note_off,,,,,188,0,7,,,,,5,,,43,0
33792,note_on,,,,,4,0,3,,,,,8,,,43,92
33792,note_on,,,,,4,0,5,,,,,3,,,70,108
33792,note_on,,,,,4,0,4,,,,,2,,,74,108
33792,note_on,,,,,64,0,2,,,,,1,,,70,92
33792,note_on,,,,,4,0,7,,,,,5,,,55,92
33792,note_on,,,,,4,0,6,,,,,4,,,67,92
33792,note_on,,,,,4,0,8,,,,,6,,,43,75
33792,note_on,,,,,4,0,9,,,,,7,,,55,60
33792,note_on,,,,,64,0,1,,,,,0,,,74,92
33980,note_off,,,,,188,0,5,,,,,3,,,70,0
33980,note_off,,,,,188,0,3,,,,,8,,,43,0
33980,note_off,,,,,188,0,9,,,,,7,,,55,0
33980,note_off,,,,,188,0,8,,,,,6,,,43,0
33980,note_off,,,,,188,0,2,,,,,1,,,70,0
33980,note_off,,,,,188,0,7,,,,,5,,,55,0
33984,note_on,,,,,4,0,5,,,,,3,,,72,108
33984,note_on,,,,,4,0,9,,,,,7,,,57,60
33984,note_on,,,,,4,0,8,,,,,6,,,45,75
33984,note_on,,,,,4,0,2,,,,,1,,,72,92
33984,note_on,,,,,4,0,7,,,,,5,,,57,92
33984,note_on,,,,,4,0,3,,,,,8,,,45,92
34112,note_off,,,,,320,0,6,,,,,4,,,67,0
34112,note_off,,,,,320,0,1,,,,,0,,,74,0
34112,note_off,,,,,320,0,4,,,,,2,,,74,0
34172,note_off,,,,,188,0,2,,,,,1,,,72,0
34172,note_off,,,,,188,0,3,,,,,8,,,45,0
34172,note_off,,,,,188,0,7,,,,,5,,,57,0
34172,note_off,,,,,188,0,5,,,,,3,,,72,0
34172,note_off,,,,,188,0,9,,,,,7,,,57,0
34172,note_off,,,,,188,0,8,,,,,6,,,45,0
34176,note_on,,,,,64,0,4,,,,,2,,,79,108
34176,note_on,,,,,64,0,1,,,,,0,,,79,92
34176,note_on,,,,,4,0,5,,,,,3,,,74,108
34176,note_on,,,,,4,0,2,,,,,1,,,74,92
34176,note_on,,,,,64,0,6,,,,,4,,,62,92
34176,note_on,,,,,4,0,3,,,,,8,,,46,92
34176,note_on,,,,,4,0,7,,,,,5,,,58,92
34176,note_on,,,,,4,0,9,,,,,7,,,58,60
34176,note_on,,,,,4,0,8,,,,,6,,,46,75
34364,note_off,,,,,188,0,3,,,,,8,,,46,0
34364,note_off,,,,,188,0,7,,,,,5,,,58,0
34364,note_off,,,,,188,0,8,,,,,6,,,46,0
34364,note_off,,,,,188,0,2,,,,,1,,,74,0
34364,note_off,,,,,188,0,5,,,,,3,,,74,0
34364,note_off,,,,,188,0,9,,,,,7,,,58,0
34364,note_off,,,,,188,0,6,,,,,4,,,62,0
34364,note_off,,,,,188,0,1,,,,,0,,,79,0
34364,note_off,,,,,188,0,4,,,,,2,,,79,0
34368,note_on,,,,,4,0,6,,,,,4,,,67,92
34368,note_on,,,,,4,0,7,,,,,5,,,55,92
34368,note_on,,,,,4,0,8,,,,,6,,,43,75
34368,note_on,,,,,4,0,2,,,,,1,,,74,92
34368,note_on,,,,,4,0,3,,,,,8,,,43,92
34368,note_on,,,,,4,0,4,,,,,2,,,77,108
34368,note_on,,,,,4,0,1,,,,,0,,,77,92
34368,note_on,,,,,4,0,5,,,,,3,,,74,108
34368,note_on,,,,,4,0,9,,,,,7,,,55,60
34556,note_off,,,,,188,0,4,,,,,2,,,77,0
34556,note_off,,,,,188,0,3,,,,,8,,,43,0
34556,note_off,,,,,188,0,5,,,,,3,,,74,0
34556,note_off,,,,,188,0,8,,,,,6,,,43,0
34556,note_off,,,,,188,0,2,,,,,1,,,74,0
34556,note_off,,,,,188,0,1,,,,,0,,,77,0
34556,note_off,,,,,188,0,9,,,,,7,,,55,0
34556,note_off,,,,,188,0,6,,,,,4,,,67,0
34556,note_off,,,,,188,0,7,,,,,5,,,55,0
34560,note_on,,,,,4,0,2,,,,,1,,,74,92
34560,note_on,,,,,4,0,7,,,,,5,,,48,92
34560,note_on,,,,,4,0,5,,,,,3,,,74,108
34560,note_on,,,,,4,0,4,,,,,2,,,75,108
34560,note_on,,,,,4,0,9,,,,,7,,,48,60
34560,note_on,,,,,4,0,1,,,,,0,,,75,92
34560,note_on,,,,,4,0,8,,,,,6,,,36,75
34560,note_on,,,,,4,0,3,,,,,8,,,48,92
34560,note_on,,,,,4,0,6,,,,,4,,,67,92
34748,note_off,,,,,188,0,2,,,,,1,,,74,0
34748,note_off,,,,,188,0,1,,,,,0,,,75,0
34748,note_off,,,,,188,0,5,,,,,3,,,74,0
34748,note_off,,,,,188,0,7,,,,,5,,,48,0
34748,note_off,,,,,188,0,4,,,,,2,,,75,0
34748,note_off,,,,,188,0,8,,,,,6,,,36,0
34748,note_off,,,,,188,0,3,,,,,8,,,48,0
34748,note_off,,,,,188,0,9,,,,,7,,,48,0
34752,note_on,,,,,4,0,2,,,,,1,,,74,92
34752,note_on,,,,,4,0,5,,,,,3,,,74,108
34752,note_on,,,,,4,0,7,,,,,5,,,50,92
34752,note_on,,,,,4,0,1,,,,,0,,,77,92
34752,note_on,,,,,4,0,8,,,,,6,,,38,75
34752,note_on,,,,,4,0,4,,,,,2,,,77,108
34752,note_on,,,,,4,0,9,,,,,7,,,50,60
34752,note_on,,,,,4,0,3,,,,,8,,,50,92
34880,note_off,,,,,320,0,6,,,,,4,,,67,0
34940,note_off,,,,,188,0,5,,,,,3,,,74,0
34940,note_off,,,,,188,0,1,,,,,0,,,77,0
34940,note_off,,,,,188,0,4,,,,,2,,,77,0
34940,note_off,,,,,188,0,8,,,,,6,,,38,0
34940,note_off,,,,,188,0,7,,,,,5,,,50,0
34940,note_off,,,,,188,0,9,,,,,7,,,50,0
34940,note_off,,,,,188,0,3,,,,,8,,,50,0
34940,note_off,,,,,188,0,2,,,,,1,,,74,0
34944,note_on,,,,,64,0,6,,,,,4,,,60,92
34944,note_on,,,,,4,0,3,,,,,8,,,51,92
34944,note_on,,,,,4,0,1,,,,,0,,,79,92
34944,note_on,,,,,4,0,2,,,,,1,,,72,92
34944,note_on,,,,,4,0,7,,,,,5,,,51,92
34944,note_on,,,,,4,0,9,,,,,7,,,51,60
34944,note_on,,,,,4,0,5,,,,,3,,,72,108
34944,note_on,,,,,4,0,4,,,,,2,,,79,108
34944,note_on,,,,,4,0,8,,,,,6,,,39,75
35132,note_off,,,,,188,0,1,,,,,0,,,79,0
35132,note_off,,,,,188,0,3,,,,,8,,,51,0
35132,note_off,,,,,188,0,4,,,,,2,,,79,0
35132,note_off,,,,,188,0,8,,,,,6,,,39,0
35132,note_off,,,,,188,0,7,,,,,5,,,51,0
35132,note_off,,,,,188,0,2,,,,,1,,,72,0
35132,note_off,,,,,188,0,5,,,,,3,,,72,0
35132,note_off,,,,,188,0,9,,,,,7,,,51,0
35136,note_on,,,,,4,0,3,,,,,8,,,48,92
35136,note_on,,,,,4,0,4,,,,,2,,,79,108
35136,note_on,,,,,4,0,5,,,,,3,,,70,108
35136,note_on,,,,,4,0,7,,,,,5,,,48,92
35136,note_on,,,,,4,0,2,,,,,1,,,70,92
35136,note_on,,,,,4,0,1,,,,,0,,,79,92
35136,note_on,,,,,4,0,9,,,,,7,,,48,60
35136,note_on,,,,,4,0,8,,,,,6,,,36,75
35264,note_off,,,,,320,0,6,,,,,4,,,60,0
35324,note_off,,,,,188,0,2,,,,,1,,,70,0
35324,note_off,,,,,188,0,9,,,,,7,,,48,0
35324,note_off,,,,,188,0,1,,,,,0,,,79,0
35324,note_off,,,,,188,0,4,,,,,2,,,79,0
35324,note_off,,,,,188,0,7,,,,,5,,,48,0
35324,note_off,,,,,188,0,3,,,,,8,,,48,0
35324,note_off,,,,,188,0,8,,,,,6,,,36,0
35324,note_off,,,,,188,0,5,,,,,3,,,70,0
35328,note_on,,,,,4,0,2,,,,,1,,,69,92
35328,note_on,,,,,4,0,9,,,,,7,,,53,60
35328,note_on,,,,,4,0,1,,,,,0,,,79,92
35328,note_on,,,,,4,0,3,,,,,8,,,53,92
35328,note_on,,,,,4,0,5,,,,,3,,,69,108
35328,note_on,,,,,4,0,8,,,,,6,,,41,75
35328,note_on,,,,,64,0,6,,,,,4,,,60,92
35328,note_on,,,,,4,0,4,,,,,2,,,79,108
35328,note_on,,,,,4,0,7,,,,,5,,,53,92
35516,note_off,,,,,188,0,8,,,,,6,,,41,0
35516,note_off,,,,,188,0,1,,,,,0,,,79,0
35516,note_off,,,,,188,0,7,,,,,5,,,53,0
35516,note_off,,,,,188,0,9,,,,,7,,,53,0
35516,note_off,,,,,188,0,4,,,,,2,,,79,0
35516,note_off,,,,,188,0,3,,,,,8,,,53,0
35516,note_off,,,,,188,0,2,,,,,1,,,69,0
35516,note_off,,,,,188,0,5,,,,,3,,,69,0
35520,note_on,,,,,4,0,4,,,,,2,,,79,108
35520,note_on,,,,,4,0,8,,,,,6,,,43,75
35520,note_on,,,,,4,0,5,,,,,3,,,70,108
35520,note_on,,,,,4,0,1,,,,,0,,,79,92
35520,note_on,,,,,4,0,7,,,,,5,,,55,92
35520,note_on,,,,,4,0,9,,,,,7,,,55,60
35520,note_on,,,,,4,0,3,,,,,8,,,55,92
35520,note_on,,,,,4,0,2,,,,,1,,,70,92
35648,note_off,,,,,320,0,6,,,,,4,,,60,0
35708,note_off,,,,,188,0,7,,,,,5,,,55,0
35708,note_off,,,,,188,0,2,,,,,1,,,70,0
35708,note_off,,,,,188,0,9,,,,,7,,,55,0
35708,note_off,,,,,188,0,4,,,,,2,,,79,0
35708,note_off,,,,,188,0,1,,,,,0,,,79,0
35708,note_off,,,,,188,0,8,,,,,6,,,43,0
35708,note_off,,,,,188,0,3,,,,,8,,,55,0
35708,note_off,,,,,188,0,5,,,,,3,,,70,0
35712,note_on,,,,,4,0,9,,,,,7,,,57,60
35712,note_on,,,,,4,0,8,,,,,6,,,45,75
35712,note_on,,,,,4,0,3,,,,,8,,,57,92
35712,note_on,,,,,4,0,7,,,,,5,,,57,92
35712,note_on,,,,,4,0,1,,,,,0,,,77,92
35712,note_on,,,,,64,0,6,,,,,4,,,65,92
35712,note_on,,,,,4,0,2,,,,,1,,,72,92
35712,note_on,,,,,4,0,4,,,,,2,,,77,108
35712,note_on,,,,,4,0,5,,,,,3,,,72,108
35900,note_off,,,,,188,0,6,,,,,4,,,65,0
35900,note_off,,,,,188,0,8,,,,,6,,,45,0
35900,note_off,,,,,188,0,7,,,,,5,,,57,0
35900,note_off,,,,,188,0,4,,,,,2,,,77,0
35900,note_off,,,,,188,0,3,,,,,8,,,57,0
35900,note_off,,,,,188,0,1,,,,,0,,,77,0
35900,note_off,,,,,188,0,2,,,,,1,,,72,0
35900,note_off,,,,,188,0,9,,,,,7,,,57,0
35900,note_off,,,,,188,0,5,,,,,3,,,72,0
35904,note_on,,,,,4,0,9,,,,,7,,,53,60
35904,note_on,,,,,4,0,7,,,,,5,,,53,92
35904,note_on,,,,,4,0,8,,,,,6,,,41,75
35904,note_on,,,,,4,0,2,,,,,1,,,72,92
35904,note_on,,,,,4,0,3,,,,,8,,,53,92
35904,note_on,,,,,4,0,5,,,,,3,,,72,108
35904,note_on,,,,,4,0,4,,,,,2,,,75,108
35904,note_on,,,,,4,0,6,,,,,4,,,69,92
35904,note_on,,,,,4,0,1,,,,,0,,,75,92
36092,note_off,,,,,188,0,9,,,,,7,,,53,0
36092,note_off,,,,,188,0,6,,,,,4,,,69,0
36092,note_off,,,,,188,0,7,,,,,5,,,53,0
36092,note_off,,,,,188,0,2,,,,,1,,,72,0
36092,note_off,,,,,188,0,8,,,,,6,,,41,0
36092,note_off,,,,,188,0,5,,,,,3,,,72,0
36092,note_off,,,,,188,0,4,,,,,2,,,75,0
36092,note_off,,,,,188,0,3,,,,,8,,,53,0
36092,note_off,,,,,188,0,1,,,,,0,,,75,0
36096,note_on,,,,,4,0,1,,,,,0,,,74,92
36096,note_on,,,,,4,0,9,,,,,7,,,46,60
36096,note_on,,,,,4,0,8,,,,,6,,,34,75
36096,note_on,,,,,4,0,7,,,,,5,,,46,92
36096,note_on,,,,,4,0,2,,,,,1,,,72,92
36096,note_on,,,,,4,0,6,,,,,4,,,65,92
36096,note_on,,,,,4,0,5,,,,,3,,,72,108
36096,note_on,,,,,4,0,4,,,,,2,,,74,108
36096,note_on,,,,,4,0,3,,,,,8,,,46,92
36284,note_off,,,,,188,0,6,,,,,4,,,65,0
36284,note_off,,,,,188,0,7,,,,,5,,,46,0
36284,note_off,,,,,188,0,1,,,,,0,,,74,0
36284,note_off,,,,,188,0,3,,,,,8,,,46,0
36284,note_off,,,,,188,0,9,,,,,7,,,46,0
36284,note_off,,,,,188,0,2,,,,,1,,,72,0
36284,note_off,,,,,188,0,4,,,,,2,,,74,0
36284,note_off,,,,,188,0,5,,,,,3,,,72,0
36284,note_off,,,,,188,0,8,,,,,6,,,34,0
36288,note_on,,,,,4,0,4,,,,,2,,,75,108
36288,note_on,,,,,4,0,5,,,,,3,,,72,108
36288,note_on,,,,,4,0,9,,,,,7,,,48,60
36288,note_on,,,,,4,0,6,,,,,4,,,63,92
36288,note_on,,,,,4,0,7,,,,,5,,,48,92
36288,note_on,,,,,4,0,8,,,,,6,,,36,75
36288,note_on,,,,,4,0,1,,,,,0,,,75,92
36288,note_on,,,,,4,0,3,,,,,8,,,48,92
36288,note_on,,,,,4,0,2,,,,,1,,,72,92
36476,note_off,,,,,188,0,7,,,,,5,,,48,0
36476,note_off,,,,,188,0,2,,,,,1,,,72,0
36476,note_off,,,,,188,0,9,,,,,7,,,48,0
36476,note_off,,,,,188,0,1,,,,,0,,,75,0
36476,note_off,,,,,188,0,5,,,,,3,,,72,0
36476,note_off,,,,,188,0,4,,,,,2,,,75,0
36476,note_off,,,,,188,0,3,,,,,8,,,48,0
36476,note_off,,,,,188,0,8,,,,,6,,,36,0
36476,note_off,,,,,188,0,6,,,,,4,,,63,0
36480,note_on,,,,,4,0,9,,,,,7,,,50,60
36480,note_on,,,,,4,0,4,,,,,2,,,77,108
36480,note_on,,,,,4,0,5,,,,,3,,,70,108
36480,note_on,,,,,4,0,6,,,,,4,,,62,92
36480,note_on,,,,,4,0,7,,,,,5,,,50,92
36480,note_on,,,,,4,0,8,,,,,6,,,38,75
36480,note_on,,,,,4,0,1,,,,,0,,,77,92
36480,note_on,,,,,4,0,3,,,,,8,,,50,92
36480,note_on,,,,,4,0,2,,,,,1,,,70,92
36668,note_off,,,,,188,0,3,,,,,8,,,50,0
36668,note_off,,,,,188,0,5,,,,,3,,,70,0
36668,note_off,,,,,188,0,8,,,,,6,,,38,0
36668,note_off,,,,,188,0,2,,,,,1,,,70,0
36668,note_off,,,,,188,0,1,,,,,0,,,77,0
36668,note_off,,,,,188,0,7,,,,,5,,,50,0
36668,note_off,,,,,188,0,6,,,,,4,,,62,0
36668,note_off,,,,,188,0,9,,,,,7,,,50,0
36668,note_off,,,,,188,0,4,,,,,2,,,77,0
36672,note_on,,,,,4,0,2,,,,,1,,,69,92
36672,note_on,,,,,4,0,8,,,,,6,,,34,75
36672,note_on,,,,,4,0,3,,,,,8,,,46,92
36672,note_on,,,,,4,0,5,,,,,3,,,69,108
36672,note_on,,,,,4,0,7,,,,,5,,,46,92
36672,note_on,,,,,4,0,1,,,,,0,,,77,92
36672,note_on,,,,,4,0,9,,,,,7,,,46,60
36672,note_on,,,,,4,0,4,,,,,2,,,77,108
36672,note_on,,,,,4,0,6,,,,,4,,,62,92
36860,note_off,,,,,188,0,9,,,,,7,,,46,0
36860,note_off,,,,,188,0,2,,,,,1,,,69,0
36860,note_off,,,,,188,0,1,,,,,0,,,77,0
36860,note_off,,,,,188,0,4,,,,,2,,,77,0
36860,note_off,,,,,188,0,5,,,,,3,,,69,0
36860,note_off,,,,,188,0,3,,,,,8,,,46,0
36860,note_off,,,,,188,0,8,,,,,6,,,34,0
36860,note_off,,,,,188,0,7,,,,,5,,,46,0
36860,note_off,,,,,188,0,6,,,,,4,,,62,0
36864,note_on,,,,,4,0,8,,,,,6,,,39,75
36864,note_on,,,,,4,0,4,,,,,2,,,77,108
36864,note_on,,,,,4,0,2,,,,,1,,,67,92
36864,note_on,,,,,4,0,7,,,,,5,,,51,92
36864,note_on,,,,,4,0,5,,,,,3,,,67,108
36864,note_on,,,,,4,0,1,,,,,0,,,77,92
36864,note_on,,,,,4,0,9,,,,,7,,,51,60
36864,note_on,,,,,4,0,3,,,,,8,,,51,92
36864,note_on,,,,,4,0,6,,,,,4,,,70,92
37052,note_off,,,,,188,0,1,,,,,0,,,77,0
37052,note_off,,,,,188,0,8,,,,,6,,,39,0
37052,note_off,,,,,188,0,3,,,,,8,,,51,0
37052,note_off,,,,,188,0,7,,,,,5,,,51,0
37052,note_off,,,,,188,0,9,,,,,7,,,51,0
37052,note_off,,,,,188,0,4,,,,,2,,,77,0
37056,note_on,,,,,4,0,4,,,,,2,,,77,108
37056,note_on,,,,,4,0,3,,,,,8,,,53,92
37056,note_on,,,,,4,0,8,,,,,6,,,41,75
37056,note_on,,,,,4,0,7,,,,,5,,,53,92
37056,note_on,,,,,4,0,1,,,,,0,,,77,92
37056,note_on,,,,,4,0,9,,,,,7,,,53,60
37184,note_off,,,,,320,0,2,,,,,1,,,67,0
37184,note_off,,,,,320,0,5,,,,,3,,,67,0
37184,note_off,,,,,320,0,6,,,,,4,,,70,0
37244,note_off,,,,,188,0,9,,,,,7,,,53,0
37244,note_off,,,,,188,0,1,,,,,0,,,77,0
37244,note_off,,,,,188,0,4,,,,,2,,,77,0
37244,note_off,,,,,188,0,3,,,,,8,,,53,0
37244,note_off,,,,,188,0,7,,,,,5,,,53,0
37244,note_off,,,,,188,0,8,,,,,6,,,41,0
37248,note_on,,,,,4,0,8,,,,,6,,,43,75
37248,note_on,,,,,64,0,5,,,,,3,,,82,108
37248,note_on,,,,,4,0,9,,,,,7,,,55,60
37248,note_on,,,,,4,0,1,,,,,0,,,75,92
37248,note_on,,,,,4,0,3,,,,,8,,,55,92
37248,note_on,,,,,4,0,4,,,,,2,,,75,108
37248,note_on,,,,,64,0,2,,,,,1,,,82,92
37248,note_on,,,,,4,0,7,,,,,5,,,55,92
37248,note_on,,,,,64,0,6,,,,,4,,,63,92
37436,note_off,,,,,188,0,1,,,,,0,,,75,0
37436,note_off,,,,,188,0,3,,,,,8,,,55,0
37436,note_off,,,,,188,0,7,,,,,5,,,55,0
37436,note_off,,,,,188,0,8,,,,,6,,,43,0
37436,note_off,,,,,188,0,4,,,,,2,,,75,0
37436,note_off,,,,,188,0,9,,,,,7,,,55,0
37440,note_on,,,,,4,0,4,,,,,2,,,74,108
37440,note_on,,,,,4,0,1,,,,,0,,,74,92
37440,note_on,,,,,4,0,9,,,,,7,,,51,60
37440,note_on,,,,,4,0,8,,,,,6,,,39,75
37440,note_on,,,,,4,0,7,,,,,5,,,51,92
37440,note_on,,,,,4,0,3,,,,,8,,,51,92
37568,note_off,,,,,320,0,6,,,,,4,,,63,0
37628,note_off,,,,,188,0,3,,,,,8,,,51,0
37628,note_off,,,,,188,0,9,,,,,7,,,51,0
37628,note_off,,,,,188,0,8,,,,,6,,,39,0
37628,note_off,,,,,188,0,1,,,,,0,,,74,0
37628,note_off,,,,,188,0,4,,,,,2,,,74,0
37628,note_off,,,,,188,0,7,,,,,5,,,51,0
37632,note_on,,,,,4,0,1,,,,,0,,,72,92
37632,note_on,,,,,4,0,7,,,,,5,,,45,92
37632,note_on,,,,,4,0,9,,,,,7,,,45,60
37632,note_on,,,,,4,0,3,,,,,8,,,45,92
37632,note_on,,,,,4,0,4,,,,,2,,,72,108
37632,note_on,,,,,64,0,6,,,,,4,,,63,92
37632,note_on,,,,,4,0,8,,,,,6,,,33,75
37820,note_off,,,,,188,0,3,,,,,8,,,45,0
37820,note_off,,,,,572,0,2,,,,,1,,,82,0
37820,note_off,,,,,572,0,5,,,,,3,,,82,0
37820,note_off,,,,,188,0,9,,,,,7,,,45,0
37820,note_off,,,,,188,0,6,,,,,4,,,63,0
37820,note_off,,,,,188,0,7,,,,,5,,,45,0
37820,note_off,,,,,188,0,4,,,,,2,,,72,0
37820,note_off,,,,,188,0,8,,,,,6,,,33,0
37820,note_off,,,,,188,0,1,,,,,0,,,72,0
37824,note_on,,,,,4,0,5,,,,,3,,,82,108
37824,note_on,,,,,4,0,1,,,,,0,,,74,92
37824,note_on,,,,,4,0,7,,,,,5,,,46,92
37824,note_on,,,,,4,0,4,,,,,2,,,74,108
37824,note_on,,,,,4,0,8,,,,,6,,,34,75
37824,note_on,,,,,4,0,6,,,,,4,,,62,92
37824,note_on,,,,,4,0,2,,,,,1,,,82,92
37824,note_on,,,,,4,0,3,,,,,8,,,46,92
37824,note_on,,,,,4,0,9,,,,,7,,,46,60
38012,note_off,,,,,188,0,4,,,,,2,,,74,0
38012,note_off,,,,,188,0,1,,,,,0,,,74,0
38012,note_off,,,,,188,0,5,,,,,3,,,82,0
38012,note_off,,,,,188,0,3,,,,,8,,,46,0
38012,note_off,,,,,188,0,9,,,,,7,,,46,0
38012,note_off,,,,,188,0,2,,,,,1,,,82,0
38012,note_off,,,,,188,0,7,,,,,5,,,46,0
38012,note_off,,,,,188,0,6,,,,,4,,,62,0
38012,note_off,,,,,188,0,8,,,,,6,,,34,0
38016,note_on,,,,,4,0,7,,,,,5,,,48,92
38016,note_on,,,,,4,0,2,,,,,1,,,81,92
38016,note_on,,,,,4,0,9,,,,,7,,,48,60
38016,note_on,,,,,4,0,3,,,,,8,,,48,92
38016,note_on,,,,,4,0,5,,,,,3,,,81,108
38016,note_on,,,,,4,0,1,,,,,0,,,75,92
38016,note_on,,,,,4,0,4,,,,,2,,,75,108
38016,note_on,,,,,4,0,8,,,,,6,,,36,75
38016,note_on,,,,,4,0,6,,,,,4,,,60,92
38204,note_off,,,,,188,0,5,,,,,3,,,81,0
38204,note_off,,,,,188,0,4,,,,,2,,,75,0
38204,note_off,,,,,188,0,8,,,,,6,,,36,0
38204,note_off,,,,,188,0,7,,,,,5,,,48,0
38204,note_off,,,,,188,0,9,,,,,7,,,48,0
38204,note_off,,,,,188,0,1,,,,,0,,,75,0
38204,note_off,,,,,188,0,3,,,,,8,,,48,0
38204,note_off,,,,,188,0,2,,,,,1,,,81,0
38208,note_on,,,,,4,0,9,,,,,7,,,45,60
38208,note_on,,,,,4,0,3,,,,,8,,,45,92
38208,note_on,,,,,4,0,1,,,,,0,,,75,92
38208,note_on,,,,,4,0,8,,,,,6,,,33,75
38208,note_on,,,,,4,0,4,,,,,2,,,75,108
38208,note_on,,,,,4,0,7,,,,,5,,,45,92
38208,note_on,,,,,4,0,5,,,,,3,,,79,108
38208,note_on,,,,,4,0,2,,,,,1,,,79,92
38336,note_off,,,,,320,0,6,,,,,4,,,60,0
38396,note_off,,,,,188,0,3,,,,,8,,,45,0
38396,note_off,,,,,188,0,8,,,,,6,,,33,0
38396,note_off,,,,,188,0,7,,,,,5,,,45,0
38396,note_off,,,,,188,0,5,,,,,3,,,79,0
38396,note_off,,,,,188,0,9,,,,,7,,,45,0
38396,note_off,,,,,188,0,2,,,,,1,,,79,0
38400,note_on,,,,,4,0,7,,,,,5,,,50,92
38400,note_on,,,,,0,0,1,,,,,0,,,75,92
38400,note_off,,,,,192,0,1,,,,,0,,,75,0
38400,note_on,,,,,0,0,4,,,,,2,,,75,108
38400,note_on,,,,,4,0,3,,,,,8,,,50,92
38400,note_on,,,,,4,0,2,,,,,1,,,78,92
38400,note_off,,,,,192,0,4,,,,,2,,,75,0
38400,note_on,,,,,4,0,8,,,,,6,,,38,75
38400,note_on,,,,,4,0,5,,,,,3,,,78,108
38400,note_on,,,,,64,0,6,,,,,4,,,69,92
38400,note_on,,,,,4,0,9,,,,,7,,,50,60
38588,note_off,,,,,188,0,7,,,,,5,,,50,0
38588,note_off,,,,,188,0,3,,,,,8,,,50,0
38588,note_off,,,,,188,0,6,,,,,4,,,69,0
38588,note_off,,,,,188,0,1,,,,,0,,,75,0
38588,note_off,,,,,188,0,9,,,,,7,,,50,0
38588,note_off,,,,,188,0,4,,,,,2,,,75,0
38588,note_off,,,,,188,0,5,,,,,3,,,78,0
38588,note_off,,,,,188,0,8,,,,,6,,,38,0
38588,note_off,,,,,188,0,2,,,,,1,,,78,0
38592,note_on,,,,,4,0,6,,,,,4,,,67,92
38592,note_on,,,,,4,0,8,,,,,6,,,43,75
38592,note_on,,,,,4,0,1,,,,,0,,,75,92
38592,note_on,,,,,4,0,4,,,,,2,,,75,108
38592,note_on,,,,,4,0,7,,,,,5,,,55,92
38592,note_on,,,,,4,0,9,,,,,7,,,55,60
38592,note_on,,,,,4,0,3,,,,,8,,,55,92
38592,note_on,,,,,4,0,5,,,,,3,,,79,108
38592,note_on,,,,,4,0,2,,,,,1,,,79,92
38780,note_off,,,,,188,0,2,,,,,1,,,79,0
38780,note_off,,,,,188,0,1,,,,,0,,,75,0
38780,note_off,,,,,188,0,8,,,,,6,,,43,0
38780,note_off,,,,,188,0,9,,,,,7,,,55,0
38780,note_off,,,,,188,0,4,,,,,2,,,75,0
38780,note_off,,,,,188,0,5,,,,,3,,,79,0
38780,note_off,,,,,188,0,6,,,,,4,,,67,0
38780,note_off,,,,,188,0,3,,,,,8,,,55,0
38780,note_off,,,,,188,0,7,,,,,5,,,55,0
38784,note_on,,,,,4,0,9,,,,,7,,,54,60
38784,note_on,,,,,4,0,5,,,,,3,,,81,108
38784,note_on,,,,,4,0,4,,,,,2,,,74,108
38784,note_on,,,,,4,0,3,,,,,8,,,54,92
38784,note_on,,,,,4,0,2,,,,,1,,,81,92
38784,note_on,,,,,4,0,8,,,,,6,,,42,75
38784,note_on,,,,,4,0,7,,,,,5,,,54,92
38784,note_on,,,,,4,0,1,,,,,0,,,74,92
38784,note_on,,,,,4,0,6,,,,,4,,,62,92
38972,note_off,,,,,188,0,9,,,,,7,,,54,0
38972,note_off,,,,,188,0,7,,,,,5,,,54,0
38972,note_off,,,,,188,0,8,,,,,6,,,42,0
38972,note_off,,,,,188,0,1,,,,,0,,,74,0
38972,note_off,,,,,188,0,3,,,,,8,,,54,0
38972,note_off,,,,,188,0,4,,,,,2,,,74,0
38976,note_on,,,,,4,0,7,,,,,5,,,50,92
38976,note_on,,,,,4,0,9,,,,,7,,,50,60
38976,note_on,,,,,4,0,8,,,,,6,,,38,75
38976,note_on,,,,,4,0,3,,,,,8,,,50,92
38976,note_on,,,,,4,0,4,,,,,2,,,72,108
38976,note_on,,,,,4,0,1,,,,,0,,,72,92
39104,note_off,,,,,320,0,6,,,,,4,,,62,0
39164,note_off,,,,,188,0,1,,,,,0,,,72,0
39164,note_off,,,,,188,0,7,,,,,5,,,50,0
39164,note_off,,,,,188,0,9,,,,,7,,,50,0
39164,note_off,,,,,188,0,4,,,,,2,,,72,0
39164,note_off,,,,,188,0,8,,,,,6,,,38,0
39164,note_off,,,,,188,0,3,,,,,8,,,50,0
39168,note_on,,,,,64,0,6,,,,,4,,,62,92
39168,note_on,,,,,4,0,7,,,,,5,,,55,92
39168,note_on,,,,,4,0,3,,,,,8,,,55,92
39168,note_on,,,,,4,0,8,,,,,6,,,43,75
39168,note_on,,,,,4,0,9,,,,,7,,,55,60
39168,note_on,,,,,4,0,1,,,,,0,,,70,92
39168,note_on,,,,,4,0,4,,,,,2,,,70,108
39356,note_off,,,,,188,0,3,,,,,8,,,55,0
39356,note_off,,,,,188,0,7,,,,,5,,,55,0
39356,note_off,,,,,572,0,5,,,,,3,,,81,0
39356,note_off,,,,,572,0,2,,,,,1,,,81,0
39356,note_off,,,,,188,0,8,,,,,6,,,43,0
39356,note_off,,,,,188,0,9,,,,,7,,,55,0
39360,note_on,,,,,4,0,8,,,,,6,,,45,75
39360,note_on,,,,,4,0,7,,,,,5,,,57,92
39360,note_on,,,,,4,0,3,,,,,8,,,57,92
39360,note_on,,,,,4,0,9,,,,,7,,,57,60
39360,note_on,,,,,4,0,5,,,,,3,,,78,108
39360,note_on,,,,,4,0,2,,,,,1,,,78,92
39488,note_off,,,,,320,0,1,,,,,0,,,70,0
39488,note_off,,,,,320,0,4,,,,,2,,,70,0
39488,note_off,,,,,320,0,6,,,,,4,,,62,0
39548,note_off,,,,,188,0,8,,,,,6,,,45,0
39548,note_off,,,,,188,0,3,,,,,8,,,57,0
39548,note_off,,,,,188,0,2,,,,,1,,,78,0
39548,note_off,,,,,188,0,5,,,,,3,,,78,0
39548,note_off,,,,,188,0,9,,,,,7,,,57,0
39548,note_off,,,,,188,0,7,,,,,5,,,57,0
39552,note_on,,,,,4,0,2,,,,,1,,,79,92
39552,note_on,,,,,64,0,4,,,,,2,,,86,108
39552,note_on,,,,,4,0,3,,,,,8,,,58,92
39552,note_on,,,,,4,0,7,,,,,5,,,58,92
39552,note_on,,,,,64,0,1,,,,,0,,,86,92
39552,note_on,,,,,4,0,8,,,,,6,,,46,75
39552,note_on,,,,,4,0,5,,,,,3,,,79,108
39552,note_on,,,,,4,0,9,,,,,7,,,58,60
39552,note_on,,,,,64,0,6,,,,,4,,,67,92
39740,note_off,,,,,188,0,9,,,,,7,,,58,0
39740,note_off,,,,,188,0,5,,,,,3,,,79,0
39740,note_off,,,,,188,0,3,,,,,8,,,58,0
39740,note_off,,,,,188,0,8,,,,,6,,,46,0
39740,note_off,,,,,188,0,7,,,,,5,,,58,0
39740,note_off,,,,,188,0,2,,,,,1,,,79,0
39744,note_on,,,,,4,0,3,,,,,8,,,46,92
39744,note_on,,,,,4,0,2,,,,,1,,,74,92
39744,note_on,,,,,4,0,7,,,,,5,,,46,92
39744,note_on,,,,,4,0,8,,,,,6,,,34,75
39744,note_on,,,,,4,0,5,,,,,3,,,74,108
39744,note_on,,,,,4,0,9,,,,,7,,,46,60
39872,note_off,,,,,320,0,6,,,,,4,,,67,0
39932,note_off,,,,,188,0,2,,,,,1,,,74,0
39932,note_off,,,,,188,0,8,,,,,6,,,34,0
39932,note_off,,,,,188,0,7,,,,,5,,,46,0
39932,note_off,,,,,188,0,9,,,,,7,,,46,0
39932,note_off,,,,,188,0,3,,,,,8,,,46,0
39932,note_off,,,,,188,0,5,,,,,3,,,74,0
39936,note_on,,,,,4,0,9,,,,,7,,,48,60
39936,note_on,,,,,4,0,5,,,,,3,,,76,108
39936,note_on,,,,,4,0,8,,,,,6,,,36,75
39936,note_on,,,,,4,0,2,,,,,1,,,76,92
39936,note_on,,,,,4,0,7,,,,,5,,,48,92
39936,note_on,,,,,4,0,3,,,,,8,,,48,92
39936,note_on,,,,,64,0,6,,,,,4,,,67,92
40124,note_off,,,,,572,0,1,,,,,0,,,86,0
40124,note_off,,,,,572,0,4,,,,,2,,,86,0
40128,note_on,,,,,4,0,1,,,,,0,,,79,92
40128,note_on,,,,,4,0,4,,,,,2,,,79,108
40256,note_off,,,,,320,0,9,,,,,7,,,48,0
40256,note_off,,,,,320,0,8,,,,,6,,,36,0
40256,note_off,,,,,320,0,7,,,,,5,,,48,0
40256,note_off,,,,,320,0,3,,,,,8,,,48,0
40256,note_off,,,,,320,0,6,,,,,4,,,67,0
40316,note_off,,,,,188,0,1,,,,,0,,,79,0
40316,note_off,,,,,188,0,4,,,,,2,,,79,0
40320,note_on,,,,,4,0,1,,,,,0,,,84,92
40320,note_on,,,,,4,0,4,,,,,2,,,84,108
40448,note_off,,,,,512,0,2,,,,,1,,,76,0
40448,note_off,,,,,512,0,5,,,,,3,,,76,0
40512,note_on,,,,,256,0,9,,,,,7,,,60,60
40512,note_on,,,,,256,0,8,,,,,6,,,48,75
40512,note_on,,,,,256,0,3,,,,,8,,,60,92
40512,note_on,,,,,256,0,6,,,,,4,,,64,92
40512,note_on,,,,,64,0,5,,,,,3,,,81,108
40512,note_on,,,,,64,0,2,,,,,1,,,81,92
40512,note_on,,,,,256,0,7,,,,,5,,,60,92
40700,note_off,,,,,188,0,7,,,,,5,,,60,0
40700,note_off,,,,,188,0,3,,,,,8,,,60,0
40700,note_off,,,,,188,0,8,,,,,6,,,48,0
40700,note_off,,,,,188,0,5,,,,,3,,,81,0
40700,note_off,,,,,188,0,9,,,,,7,,,60,0
40700,note_off,,,,,188,0,6,,,,,4,,,64,0
40700,note_off,,,,,188,0,2,,,,,1,,,81,0
40704,note_on,,,,,4,0,9,,,,,7,,,62,60
40704,note_on,,,,,4,0,7,,,,,5,,,62,92
40704,note_on,,,,,4,0,2,,,,,1,,,78,92
40704,note_on,,,,,4,0,5,,,,,3,,,78,108
40704,note_on,,,,,4,0,3,,,,,8,,,62,92
40704,note_on,,,,,4,0,6,,,,,4,,,69,92
40704,note_on,,,,,4,0,8,,,,,6,,,50,75
40892,note_off,,,,,188,0,8,,,,,6,,,50,0
40892,note_off,,,,,188,0,5,,,,,3,,,78,0
40892,note_off,,,,,188,0,2,,,,,1,,,78,0
40892,note_off,,,,,572,0,4,,,,,2,,,84,0
40892,note_off,,,,,188,0,6,,,,,4,,,69,0
40892,note_off,,,,,188,0,9,,,,,7,,,62,0
40892,note_off,,,,,188,0,7,,,,,5,,,62,0
40892,note_off,,,,,188,0,3,,,,,8,,,62,0
40892,note_off,,,,,572,0,1,,,,,0,,,84,0
40896,note_on,,,,,4,0,5,,,,,3,,,74,108
40896,note_on,,,,,4,0,2,,,,,1,,,74,92
40896,note_on,,,,,4,0,3,,,,,8,,,50,92
40896,note_on,,,,,4,0,6,,,,,4,,,66,92
40896,note_on,,,,,4,0,1,,,,,0,,,86,92
40896,note_on,,,,,4,0,9,,,,,7,,,50,60
40896,note_on,,,,,4,0,7,,,,,5,,,50,92
40896,note_on,,,,,4,0,4,,,,,2,,,86,108
40896,note_on,,,,,4,0,8,,,,,6,,,38,75
41084,note_off,,,,,188,0,7,,,,,5,,,50,0
41084,note_off,,,,,188,0,2,,,,,1,,,74,0
41084,note_off,,,,,188,0,8,,,,,6,,,38,0
41084,note_off,,,,,188,0,3,,,,,8,,,50,0
41084,note_off,,,,,188,0,1,,,,,0,,,86,0
41084,note_off,,,,,188,0,4,,,,,2,,,86,0
41084,note_off,,,,,188,0,6,,,,,4,,,66,0
41084,note_off,,,,,188,0,5,,,,,3,,,74,0
41084,note_off,,,,,188,0,9,,,,,7,,,50,0
41088,note_on,,,,,4,0,1,,,,,0,,,82,92
41088,note_on,,,,,4,0,9,,,,,7,,,51,60
41088,note_on,,,,,4,0,3,,,,,8,,,51,92
41088,note_on,,,,,4,0,4,,,,,2,,,82,108
41088,note_on,,,,,4,0,7,,,,,5,,,51,92
41088,note_on,,,,,4,0,6,,,,,4,,,67,92
41088,note_on,,,,,4,0,5,,,,,3,,,79,108
41088,note_on,,,,,4,0,2,,,,,1,,,79,92
41088,note_on,,,,,4,0,8,,,,,6,,,39,75
41276,note_off,,,,,188,0,1,,,,,0,,,82,0
41276,note_off,,,,,188,0,7,,,,,5,,,51,0
41276,note_off,,,,,188,0,6,,,,,4,,,67,0
41276,note_off,,,,,188,0,9,,,,,7,,,51,0
41276,note_off,,,,,188,0,8,,,,,6,,,39,0
41276,note_off,,,,,188,0,4,,,,,2,,,82,0
41276,note_off,,,,,188,0,3,,,,,8,,,51,0
41280,note_on,,,,,4,0,7,,,,,5,,,48,92
41280,note_on,,,,,4,0,9,,,,,7,,,48,60
41280,note_on,,,,,4,0,3,,,,,8,,,48,92
41280,note_on,,,,,4,0,6,,,,,4,,,64,92
41280,note_on,,,,,4,0,8,,,,,6,,,36,75
41280,note_on,,,,,4,0,4,,,,,2,,,81,108
41280,note_on,,,,,4,0,1,,,,,0,,,81,92
41468,note_off,,,,,188,0,9,,,,,7,,,48,0
41468,note_off,,,,,188,0,1,,,,,0,,,81,0
41468,note_off,,,,,188,0,6,,,,,4,,,64,0
41468,note_off,,,,,188,0,7,,,,,5,,,48,0
41468,note_off,,,,,188,0,4,,,,,2,,,81,0
41468,note_off,,,,,188,0,8,,,,,6,,,36,0
41468,note_off,,,,,188,0,3,,,,,8,,,48,0
41472,note_on,,,,,4,0,9,,,,,7,,,50,60
41472,note_on,,,,,4,0,7,,,,,5,,,50,92
41472,note_on,,,,,4,0,1,,,,,0,,,82,92
41472,note_on,,,,,4,0,8,,,,,6,,,38,75
41472,note_on,,,,,4,0,6,,,,,4,,,62,92
41472,note_on,,,,,4,0,3,,,,,8,,,50,92
41472,note_on,,,,,4,0,4,,,,,2,,,82,108
41660,note_off,,,,,188,0,9,,,,,7,,,50,0
41660,note_off,,,,,188,0,8,,,,,6,,,38,0
41660,note_off,,,,,188,0,3,,,,,8,,,50,0
41660,note_off,,,,,188,0,7,,,,,5,,,50,0
41664,note_on,,,,,4,0,7,,,,,5,,,48,92
41664,note_on,,,,,4,0,3,,,,,8,,,48,92
41664,note_on,,,,,4,0,9,,,,,7,,,48,60
41664,note_on,,,,,4,0,8,,,,,6,,,36,75
41792,note_off,,,,,320,0,4,,,,,2,,,82,0
41792,note_off,,,,,320,0,1,,,,,0,,,82,0
41792,note_off,,,,,704,0,2,,,,,1,,,79,0
41792,note_off,,,,,320,0,6,,,,,4,,,62,0
41792,note_off,,,,,704,0,5,,,,,3,,,79,0
41852,note_off,,,,,188,0,3,,,,,8,,,48,0
41852,note_off,,,,,188,0,9,,,,,7,,,48,0
41852,note_off,,,,,188,0,8,,,,,6,,,36,0
41852,note_off,,,,,188,0,7,,,,,5,,,48,0
41856,note_on,,,,,4,0,9,,,,,7,,,50,60
41856,note_on,,,,,64,0,4,,,,,2,,,81,108
41856,note_on,,,,,64,0,6,,,,,4,,,62,92
41856,note_on,,,,,4,0,3,,,,,8,,,50,92
41856,note_on,,,,,64,0,2,,,,,1,,,78,92
41856,note_on,,,,,64,0,1,,,,,0,,,81,92
41856,note_on,,,,,64,0,5,,,,,3,,,78,108
41856,note_on,,,,,4,0,8,,,,,6,,,38,75
41856,note_on,,,,,4,0,7,,,,,5,,,50,92
42044,note_off,,,,,188,0,8,,,,,6,,,38,0
42044,note_off,,,,,188,0,3,,,,,8,,,50,0
42044,note_off,,,,,188,0,7,,,,,5,,,50,0
42044,note_off,,,,,188,0,9,,,,,7,,,50,0
42048,note_on,,,,,4,0,8,,,,,6,,,26,75
42048,note_on,,,,,4,0,3,,,,,8,,,38,92
42048,note_on,,,,,4,0,7,,,,,5,,,38,92
42048,note_on,,,,,4,0,9,,,,,7,,,38,60
42176,note_off,,,,,320,0,1,,,,,0,,,81,0
42176,note_off,,,,,320,0,5,,,,,3,,,78,0
42176,note_off,,,,,320,0,6,,,,,4,,,62,0
42176,note_off,,,,,320,0,2,,,,,1,,,78,0
42176,note_off,,,,,320,0,4,,,,,2,,,81,0
42236,note_off,,,,,188,0,7,,,,,5,,,38,0
42236,note_off,,,,,188,0,3,,,,,8,,,38,0
42236,note_off,,,,,188,0,8,,,,,6,,,26,0
42236,note_off,,,,,188,0,9,,,,,7,,,38,0
42240,note_on,,,,,4,0,9,,,,,7,,,43,60
42240,note_on,,,,,4,0,7,,,,,5,,,43,92
42240,note_on,,,,,4,0,8,,,,,6,,,31,75
42240,note_on,,,,,4,0,3,,,,,8,,,43,92
42336,note_on,,,,,160,0,2,,,,,1,,,67,92
42336,note_on,,,,,160,0,5,,,,,3,,,67,127
42336,note_on,,,,,160,0,1,,,,,0,,,71,92
42336,note_on,,,,,160,0,4,,,,,2,,,71,127
42428,note_off,,,,,188,0,8,,,,,6,,,31,0
42428,note_off,,,,,188,0,9,,,,,7,,,43,0
42428,note_off,,,,,92,0,4,,,,,2,,,71,0
42428,note_off,,,,,188,0,7,,,,,5,,,43,0
42428,note_off,,,,,92,0,2,,,,,1,,,67,0
42428,note_off,,,,,92,0,1,,,,,0,,,71,0
42428,note_off,,,,,92,0,5,,,,,3,,,67,0
42428,note_off,,,,,188,0,3,,,,,8,,,43,0
42432,note_on,,,,,256,0,6,,,,,4,,,62,92
42432,note_on,,,,,4,0,7,,,,,5,,,50,92
42432,note_on,,,,,4,0,4,,,,,2,,,72,127
42432,note_on,,,,,4,0,3,,,,,8,,,50,92
42432,note_on,,,,,4,0,9,,,,,7,,,50,60
42432,note_on,,,,,4,0,1,,,,,0,,,72,92
42432,note_on,,,,,4,0,8,,,,,6,,,38,75
42432,note_on,,,,,4,0,5,,,,,3,,,69,127
42432,note_on,,,,,4,0,2,,,,,1,,,69,92
42524,note_off,,,,,92,0,1,,,,,0,,,72,0
42524,note_off,,,,,92,0,2,,,,,1,,,69,0
42524,note_off,,,,,92,0,4,,,,,2,,,72,0
42524,note_off,,,,,92,0,5,,,,,3,,,69,0
42528,note_on,,,,,4,0,1,,,,,0,,,69,92
42528,note_on,,,,,4,0,5,,,,,3,,,66,127
42528,note_on,,,,,4,0,4,,,,,2,,,69,127
42528,note_on,,,,,4,0,2,,,,,1,,,66,92
42620,note_off,,,,,188,0,3,,,,,8,,,50,0
42620,note_off,,,,,188,0,6,,,,,4,,,62,0
42620,note_off,,,,,188,0,9,,,,,7,,,50,0
42620,note_off,,,,,92,0,5,,,,,3,,,66,0
42620,note_off,,,,,92,0,4,,,,,2,,,69,0
42620,note_off,,,,,92,0,1,,,,,0,,,69,0
42620,note_off,,,,,188,0,7,,,,,5,,,50,0
42620,note_off,,,,,188,0,8,,,,,6,,,38,0
42620,note_off,,,,,92,0,2,,,,,1,,,66,0
42624,note_on,,,,,4,0,4,,,,,2,,,71,127
42624,note_on,,,,,4,0,9,,,,,7,,,55,60
42624,note_on,,,,,4,0,7,,,,,5,,,55,92
42624,note_on,,,,,4,0,3,,,,,8,,,55,92
42624,note_on,,,,,4,0,1,,,,,0,,,71,92
42624,note_on,,,,,4,0,2,,,,,1,,,67,92
42624,note_on,,,,,4,0,5,,,,,3,,,67,127
42624,note_on,,,,,4,0,6,,,,,4,,,62,92
42624,note_on,,,,,4,0,8,,,,,6,,,43,75
42716,note_off,,,,,92,0,2,,,,,1,,,67,0
42716,note_off,,,,,92,0,5,,,,,3,,,67,0
42716,note_off,,,,,92,0,4,,,,,2,,,71,0
42716,note_off,,,,,92,0,1,,,,,0,,,71,0
42720,note_on,,,,,4,0,1,,,,,0,,,74,92
42720,note_on,,,,,4,0,5,,,,,3,,,71,127
42720,note_on,,,,,4,0,2,,,,,1,,,71,92
42720,note_on,,,,,4,0,4,,,,,2,,,74,127
42812,note_off,,,,,92,0,4,,,,,2,,,74,0
42812,note_off,,,,,188,0,7,,,,,5,,,55,0
42812,note_off,,,,,188,0,9,,,,,7,,,55,0
42812,note_off,,,,,92,0,5,,,,,3,,,71,0
42812,note_off,,,,,188,0,6,,,,,4,,,62,0
42812,note_off,,,,,92,0,1,,,,,0,,,74,0
42812,note_off,,,,,188,0,8,,,,,6,,,43,0
42812,note_off,,,,,188,0,3,,,,,8,,,55,0
42812,note_off,,,,,92,0,2,,,,,1,,,71,0
42816,note_on,,,,,4,0,5,,,,,3,,,74,127
42816,note_on,,,,,4,0,2,,,,,1,,,74,92
42816,note_on,,,,,4,0,4,,,,,2,,,79,127
42816,note_on,,,,,4,0,3,,,,,8,,,47,92
42816,note_on,,,,,4,0,1,,,,,0,,,79,92
42816,note_on,,,,,4,0,6,,,,,4,,,62,92
42816,note_on,,,,,4,0,7,,,,,5,,,47,92
42816,note_on,,,,,4,0,8,,,,,6,,,35,75
42816,note_on,,,,,4,0,9,,,,,7,,,47,60
43004,note_off,,,,,188,0,5,,,,,3,,,74,0
43004,note_off,,,,,188,0,8,,,,,6,,,35,0
43004,note_off,,,,,188,0,4,,,,,2,,,79,0
43004,note_off,,,,,188,0,3,,,,,8,,,47,0
43004,note_off,,,,,188,0,7,,,,,5,,,47,0
43004,note_off,,,,,188,0,2,,,,,1,,,74,0
43004,note_off,,,,,188,0,9,,,,,7,,,47,0
43004,note_off,,,,,188,0,1,,,,,0,,,79,0
43004,note_off,,,,,188,0,6,,,,,4,,,62,0
43008,note_on,,,,,4,0,2,,,,,1,,,76,92
43008,note_on,,,,,4,0,3,,,,,8,,,48,92
43008,note_on,,,,,4,0,4,,,,,2,,,76,108
43008,note_on,,,,,4,0,9,,,,,7,,,48,60
43008,note_on,,,,,4,0,7,,,,,5,,,48,92
43008,note_on,,,,,4,0,1,,,,,0,,,79,92
43008,note_on,,,,,4,0,8,,,,,6,,,36,75
43056,note_on,,,,,0,0,4,,,,,2,,,77,108
43056,note_off,,,,,48,0,4,,,,,2,,,76,0
43104,note_off,,,,,48,0,4,,,,,2,,,77,0
43104,note_on,,,,,0,0,4,,,,,2,,,79,108
43196,note_off,,,,,188,0,3,,,,,8,,,48,0
43196,note_off,,,,,188,0,8,,,,,6,,,36,0
43196,note_off,,,,,188,0,9,,,,,7,,,48,0
43196,note_off,,,,,188,0,7,,,,,5,,,48,0
43196,note_off,,,,,92,0,4,,,,,2,,,79,0
43200,note_on,,,,,4,0,9,,,,,7,,,50,60
43200,note_on,,,,,4,0,3,,,,,8,,,50,92
43200,note_on,,,,,4,0,8,,,,,6,,,38,75
43200,note_on,,,,,4,0,7,,,,,5,,,50,92
43200,note_on,,,,,4,0,4,,,,,2,,,70,108
43388,note_off,,,,,188,0,3,,,,,8,,,50,0
43388,note_off,,,,,188,0,9,,,,,7,,,50,0
43388,note_off,,,,,188,0,8,,,,,6,,,38,0
43388,note_off,,,,,188,0,4,,,,,2,,,70,0
43388,note_off,,,,,188,0,7,,,,,5,,,50,0
43392,note_on,,,,,4,0,3,,,,,8,,,52,92
43392,note_on,,,,,4,0,9,,,,,7,,,52,60
43392,note_on,,,,,4,0,7,,,,,5,,,52,92
43392,note_on,,,,,4,0,8,,,,,6,,,40,75
43392,note_on,,,,,388,0,6,,,,,4,,,64,92
43392,note_on,,,,,388,0,5,,,,,3,,,67,108
43436,note_off,,,,,44,0,6,,,,,4,,,64,0
43440,note_off,,,,,48,0,5,,,,,3,,,67,0
43440,note_on,,,,,0,0,5,,,,,3,,,68,108
43440,note_on,,,,,4,0,6,,,,,4,,,65,92
43484,note_off,,,,,44,0,6,,,,,4,,,65,0
43488,note_off,,,,,48,0,5,,,,,3,,,68,0
43488,note_on,,,,,4,0,6,,,,,4,,,67,92
43488,note_on,,,,,0,0,5,,,,,3,,,70,108
43520,note_off,,,,,512,0,2,,,,,1,,,76,0
43520,note_off,,,,,512,0,1,,,,,0,,,79,0
43580,note_off,,,,,188,0,3,,,,,8,,,52,0
43580,note_off,,,,,188,0,8,,,,,6,,,40,0
43580,note_off,,,,,92,0,6,,,,,4,,,67,0
43580,note_off,,,,,92,0,5,,,,,3,,,70,0
43580,note_off,,,,,188,0,7,,,,,5,,,52,0
43580,note_off,,,,,188,0,9,,,,,7,,,52,0
43584,note_on,,,,,4,0,5,,,,,3,,,64,108
43584,note_on,,,,,4,0,6,,,,,4,,,55,92
43584,note_on,,,,,64,0,2,,,,,1,,,76,92
43584,note_on,,,,,4,0,8,,,,,6,,,36,75
43584,note_on,,,,,64,0,1,,,,,0,,,79,92
43584,note_on,,,,,4,0,7,,,,,5,,,48,92
43584,note_on,,,,,4,0,9,,,,,7,,,48,60
43584,note_on,,,,,4,0,3,,,,,8,,,48,92
43772,note_off,,,,,188,0,7,,,,,5,,,48,0
43772,note_off,,,,,188,0,8,,,,,6,,,36,0
43772,note_off,,,,,188,0,9,,,,,7,,,48,0
43772,note_off,,,,,188,0,1,,,,,0,,,79,0
43772,note_off,,,,,188,0,2,,,,,1,,,76,0
43772,note_off,,,,,188,0,3,,,,,8,,,48,0
43772,note_off,,,,,188,0,6,,,,,4,,,55,0
43772,note_off,,,,,188,0,5,,,,,3,,,64,0
43776,note_on,,,,,4,0,3,,,,,8,,,53,92
43776,note_on,,,,,4,0,9,,,,,7,,,53,60
43776,note_on,,,,,4,0,8,,,,,6,,,41,75
43776,note_on,,,,,4,0,1,,,,,0,,,80,92
43776,note_on,,,,,4,0,2,,,,,1,,,77,92
43776,note_on,,,,,4,0,5,,,,,3,,,60,108
43776,note_on,,,,,388,0,4,,,,,2,,,68,108
43776,note_on,,,,,4,0,7,,,,,5,,,53,92
43824,note_on,,,,,0,0,4,,,,,2,,,70,108
43824,note_off,,,,,48,0,4,,,,,2,,,68,0
43872,note_on,,,,,0,0,4,,,,,2,,,72,108
43872,note_off,,,,,48,0,4,,,,,2,,,70,0
43964,note_off,,,,,188,0,3,,,,,8,,,53,0
43964,note_off,,,,,188,0,7,,,,,5,,,53,0
43964,note_off,,,,,92,0,4,,,,,2,,,72,0
43964,note_off,,,,,188,0,8,,,,,6,,,41,0
43964,note_off,,,,,188,0,9,,,,,7,,,53,0
43968,note_on,,,,,4,0,8,,,,,6,,,43,75
43968,note_on,,,,,4,0,4,,,,,2,,,65,108
43968,note_on,,,,,4,0,9,,,,,7,,,55,60
43968,note_on,,,,,4,0,7,,,,,5,,,55,92
43968,note_on,,,,,4,0,3,,,,,8,,,55,92
44096,note_off,,,,,320,0,5,,,,,3,,,60,0
44156,note_off,,,,,188,0,7,,,,,5,,,55,0
44156,note_off,,,,,188,0,8,,,,,6,,,43,0
44156,note_off,,,,,188,0,4,,,,,2,,,65,0
44156,note_off,,,,,188,0,9,,,,,7,,,55,0
44156,note_off,,,,,188,0,3,,,,,8,,,55,0
44160,note_on,,,,,388,0,6,,,,,4,,,65,92
44160,note_on,,,,,4,0,8,,,,,6,,,44,75
44160,note_on,,,,,4,0,3,,,,,8,,,56,92
44160,note_on,,,,,4,0,9,,,,,7,,,56,60
44160,note_on,,,,,4,0,7,,,,,5,,,56,92
44204,note_off,,,,,44,0,3,,,,,8,,,56,0
44204,note_off,,,,,44,0,6,,,,,4,,,65,0
44208,note_on,,,,,4,0,3,,,,,8,,,58,92
44208,note_on,,,,,4,0,6,,,,,4,,,67,92
44252,note_off,,,,,44,0,3,,,,,8,,,58,0
44252,note_off,,,,,92,0,8,,,,,6,,,44,0
44252,note_off,,,,,92,0,7,,,,,5,,,56,0
44252,note_off,,,,,92,0,9,,,,,7,,,56,0
44252,note_off,,,,,44,0,6,,,,,4,,,67,0
44256,note_on,,,,,4,0,9,,,,,7,,,60,60
44256,note_on,,,,,4,0,6,,,,,4,,,68,92
44256,note_on,,,,,4,0,7,,,,,5,,,60,92
44256,note_on,,,,,4,0,3,,,,,8,,,60,92
44256,note_on,,,,,4,0,8,,,,,6,,,48,75
44288,note_off,,,,,512,0,1,,,,,0,,,80,0
44288,note_off,,,,,512,0,2,,,,,1,,,77,0
44348,note_off,,,,,92,0,6,,,,,4,,,68,0
44348,note_off,,,,,92,0,3,,,,,8,,,60,0
44348,note_off,,,,,92,0,7,,,,,5,,,60,0
44348,note_off,,,,,92,0,9,,,,,7,,,60,0
44348,note_off,,,,,92,0,8,,,,,6,,,48,0
44352,note_on,,,,,256,0,5,,,,,3,,,77,108
44352,note_on,,,,,64,0,1,,,,,0,,,80,92
44352,note_on,,,,,4,0,7,,,,,5,,,53,92
44352,note_on,,,,,64,0,2,,,,,1,,,72,92
44352,note_on,,,,,196,0,4,,,,,2,,,80,108
44352,note_on,,,,,4,0,6,,,,,4,,,60,92
44352,note_on,,,,,4,0,9,,,,,7,,,53,60
44352,note_on,,,,,4,0,3,,,,,8,,,53,92
44352,note_on,,,,,4,0,8,,,,,6,,,41,75
44540,note_off,,,,,188,0,8,,,,,6,,,41,0
44540,note_off,,,,,188,0,2,,,,,1,,,72,0
44540,note_off,,,,,188,0,1,,,,,0,,,80,0
44540,note_off,,,,,188,0,5,,,,,3,,,77,0
44540,note_off,,,,,188,0,3,,,,,8,,,53,0
44540,note_off,,,,,188,0,4,,,,,2,,,80,0
44540,note_off,,,,,188,0,7,,,,,5,,,53,0
44540,note_off,,,,,188,0,6,,,,,4,,,60,0
44540,note_off,,,,,188,0,9,,,,,7,,,53,0
44544,note_on,,,,,4,0,9,,,,,7,,,58,60
44544,note_on,,,,,4,0,3,,,,,8,,,58,92
44544,note_on,,,,,4,0,4,,,,,2,,,79,108
44544,note_on,,,,,4,0,6,,,,,4,,,67,92
44544,note_on,,,,,4,0,5,,,,,3,,,73,108
44544,note_on,,,,,4,0,1,,,,,0,,,79,92
44544,note_on,,,,,4,0,8,,,,,6,,,46,75
44544,note_on,,,,,4,0,7,,,,,5,,,58,92
44544,note_on,,,,,4,0,2,,,,,1,,,73,92
44732,note_off,,,,,188,0,9,,,,,7,,,58,0
44732,note_off,,,,,188,0,4,,,,,2,,,79,0
44732,note_off,,,,,188,0,6,,,,,4,,,67,0
44732,note_off,,,,,188,0,1,,,,,0,,,79,0
44732,note_off,,,,,188,0,8,,,,,6,,,46,0
44732,note_off,,,,,188,0,3,,,,,8,,,58,0
44732,note_off,,,,,188,0,7,,,,,5,,,58,0
44732,note_off,,,,,188,0,2,,,,,1,,,73,0
44732,note_off,,,,,188,0,5,,,,,3,,,73,0
44736,note_on,,,,,4,0,4,,,,,2,,,77,108
44736,note_on,,,,,4,0,8,,,,,6,,,49,75
44736,note_on,,,,,4,0,6,,,,,4,,,70,92
44736,note_on,,,,,4,0,2,,,,,1,,,70,92
44736,note_on,,,,,4,0,9,,,,,7,,,61,60
44736,note_on,,,,,4,0,3,,,,,8,,,61,92
44736,note_on,,,,,4,0,1,,,,,0,,,77,92
44736,note_on,,,,,4,0,7,,,,,5,,,61,92
44736,note_on,,,,,4,0,5,,,,,3,,,70,108
44924,note_off,,,,,188,0,4,,,,,2,,,77,0
44924,note_off,,,,,188,0,7,,,,,5,,,61,0
44924,note_off,,,,,188,0,3,,,,,8,,,61,0
44924,note_off,,,,,188,0,1,,,,,0,,,77,0
44924,note_off,,,,,188,0,8,,,,,6,,,49,0
44924,note_off,,,,,188,0,9,,,,,7,,,61,0
44924,note_off,,,,,188,0,6,,,,,4,,,70,0
44924,note_off,,,,,188,0,5,,,,,3,,,70,0
44924,note_off,,,,,188,0,2,,,,,1,,,70,0
44928,note_on,,,,,4,0,8,,,,,6,,,48,75
44928,note_on,,,,,4,0,9,,,,,7,,,60,60
44928,note_on,,,,,4,0,5,,,,,3,,,72,108
44928,note_on,,,,,4,0,1,,,,,0,,,76,92
44928,note_on,,,,,4,0,4,,,,,2,,,76,108
44928,note_on,,,,,4,0,6,,,,,4,,,67,92
44928,note_on,,,,,4,0,7,,,,,5,,,60,92
44928,note_on,,,,,4,0,3,,,,,8,,,60,92
44928,note_on,,,,,4,0,2,,,,,1,,,72,92
45116,note_off,,,,,188,0,7,,,,,5,,,60,0
45116,note_off,,,,,188,0,3,,,,,8,,,60,0
45116,note_off,,,,,188,0,9,,,,,7,,,60,0
45116,note_off,,,,,188,0,6,,,,,4,,,67,0
45116,note_off,,,,,188,0,8,,,,,6,,,48,0
45116,note_off,,,,,188,0,2,,,,,1,,,72,0
45116,note_off,,,,,188,0,5,,,,,3,,,72,0
45120,note_on,,,,,4,0,6,,,,,4,,,60,92
45120,note_on,,,,,4,0,8,,,,,6,,,36,75
45120,note_on,,,,,4,0,7,,,,,5,,,48,92
45120,note_on,,,,,4,0,3,,,,,8,,,48,92
45120,note_on,,,,,4,0,2,,,,,1,,,67,92
45120,note_on,,,,,4,0,9,,,,,7,,,48,60
45120,note_on,,,,,4,0,5,,,,,3,,,67,108
45248,note_off,,,,,320,0,1,,,,,0,,,76,0
45248,note_off,,,,,320,0,4,,,,,2,,,76,0
45308,note_off,,,,,188,0,9,,,,,7,,,48,0
45308,note_off,,,,,188,0,5,,,,,3,,,67,0
45308,note_off,,,,,188,0,2,,,,,1,,,67,0
45308,note_off,,,,,188,0,8,,,,,6,,,36,0
45308,note_off,,,,,188,0,6,,,,,4,,,60,0
45308,note_off,,,,,188,0,7,,,,,5,,,48,0
45308,note_off,,,,,188,0,3,,,,,8,,,48,0
45312,note_on,,,,,4,0,8,,,,,6,,,41,75
45312,note_on,,,,,4,0,7,,,,,5,,,53,92
45312,note_on,,,,,4,0,9,,,,,7,,,53,60
45312,note_on,,,,,4,0,3,,,,,8,,,53,92
45408,note_on,,,,,160,0,4,,,,,2,,,65,127
45408,note_on,,,,,100,0,5,,,,,3,,,68,127
45408,note_on,,,,,160,0,1,,,,,0,,,65,92
45408,note_on,,,,,100,0,2,,,,,1,,,68,92
45500,note_off,,,,,92,0,4,,,,,2,,,65,0
45500,note_off,,,,,188,0,8,,,,,6,,,41,0
45500,note_off,,,,,188,0,3,,,,,8,,,53,0
45500,note_off,,,,,188,0,9,,,,,7,,,53,0
45500,note_off,,,,,92,0,5,,,,,3,,,68,0
45500,note_off,,,,,92,0,1,,,,,0,,,65,0
45500,note_off,,,,,188,0,7,,,,,5,,,53,0
45500,note_off,,,,,92,0,2,,,,,1,,,68,0
45504,note_on,,,,,4,0,7,,,,,5,,,48,92
45504,note_on,,,,,4,0,5,,,,,3,,,70,127
45504,note_on,,,,,4,0,1,,,,,0,,,67,92
45504,note_on,,,,,4,0,2,,,,,1,,,70,92
45504,note_on,,,,,4,0,4,,,,,2,,,67,127
45504,note_on,,,,,4,0,3,,,,,8,,,48,92
45504,note_on,,,,,196,0,6,,,,,4,,,60,92
45504,note_on,,,,,4,0,9,,,,,7,,,48,60
45504,note_on,,,,,4,0,8,,,,,6,,,36,75
45596,note_off,,,,,92,0,1,,,,,0,,,67,0
45596,note_off,,,,,92,0,2,,,,,1,,,70,0
45596,note_off,,,,,92,0,5,,,,,3,,,70,0
45596,note_off,,,,,92,0,4,,,,,2,,,67,0
45600,note_on,,,,,4,0,4,,,,,2,,,64,127
45600,note_on,,,,,4,0,1,,,,,0,,,64,92
45600,note_on,,,,,4,0,5,,,,,3,,,67,127
45600,note_on,,,,,4,0,2,,,,,1,,,67,92
45692,note_off,,,,,188,0,9,,,,,7,,,48,0
45692,note_off,,,,,92,0,2,,,,,1,,,67,0
45692,note_off,,,,,188,0,6,,,,,4,,,60,0
45692,note_off,,,,,188,0,8,,,,,6,,,36,0
45692,note_off,,,,,188,0,7,,,,,5,,,48,0
45692,note_off,,,,,92,0,4,,,,,2,,,64,0
45692,note_off,,,,,92,0,5,,,,,3,,,67,0
45692,note_off,,,,,188,0,3,,,,,8,,,48,0
45692,note_off,,,,,92,0,1,,,,,0,,,64,0
45696,note_on,,,,,4,0,2,,,,,1,,,68,92
45696,note_on,,,,,4,0,5,,,,,3,,,68,127
45696,note_on,,,,,4,0,6,,,,,4,,,60,92
45696,note_on,,,,,4,0,9,,,,,7,,,44,60
45696,note_on,,,,,4,0,1,,,,,0,,,65,92
45696,note_on,,,,,4,0,7,,,,,5,,,44,92
45696,note_on,,,,,4,0,3,,,,,8,,,44,92
45696,note_on,,,,,4,0,4,,,,,2,,,65,127
45696,note_on,,,,,4,0,8,,,,,6,,,32,75
45788,note_off,,,,,92,0,1,,,,,0,,,65,0
45788,note_off,,,,,92,0,4,,,,,2,,,65,0
45788,note_off,,,,,92,0,2,,,,,1,,,68,0
45788,note_off,,,,,92,0,5,,,,,3,,,68,0
45792,note_on,,,,,4,0,1,,,,,0,,,68,92
45792,note_on,,,,,4,0,2,,,,,1,,,72,92
45792,note_on,,,,,4,0,5,,,,,3,,,72,127
45792,note_on,,,,,4,0,4,,,,,2,,,68,127
45884,note_off,,,,,188,0,3,,,,,8,,,44,0
45884,note_off,,,,,188,0,7,,,,,5,,,44,0
45884,note_off,,,,,188,0,6,,,,,4,,,60,0
45884,note_off,,,,,92,0,5,,,,,3,,,72,0
45884,note_off,,,,,188,0,9,,,,,7,,,44,0
45884,note_off,,,,,92,0,2,,,,,1,,,72,0
45884,note_off,,,,,92,0,4,,,,,2,,,68,0
45884,note_off,,,,,188,0,8,,,,,6,,,32,0
45884,note_off,,,,,92,0,1,,,,,0,,,68,0
45888,note_on,,,,,4,0,9,,,,,7,,,41,60
45888,note_on,,,,,4,0,5,,,,,3,,,77,127
45888,note_on,,,,,4,0,2,,,,,1,,,77,92
45888,note_on,,,,,4,0,4,,,,,2,,,72,127
45888,note_on,,,,,4,0,7,,,,,5,,,41,92
45888,note_on,,,,,4,0,1,,,,,0,,,72,92
45888,note_on,,,,,4,0,3,,,,,8,,,41,92
45888,note_on,,,,,4,0,6,,,,,4,,,68,92
45888,note_on,,,,,4,0,8,,,,,6,,,29,75
46076,note_off,,,,,188,0,2,,,,,1,,,77,0
46076,note_off,,,,,188,0,5,,,,,3,,,77,0
46076,note_off,,,,,188,0,3,,,,,8,,,41,0
46076,note_off,,,,,188,0,4,,,,,2,,,72,0
46076,note_off,,,,,188,0,6,,,,,4,,,68,0
46076,note_off,,,,,188,0,8,,,,,6,,,29,0
46076,note_off,,,,,188,0,1,,,,,0,,,72,0
46076,note_off,,,,,188,0,9,,,,,7,,,41,0
46076,note_off,,,,,188,0,7,,,,,5,,,41,0
46080,note_on,,,,,4,0,4,,,,,2,,,77,108
46080,note_on,,,,,4,0,6,,,,,4,,,70,92
46080,note_on,,,,,4,0,1,,,,,0,,,74,92
46080,note_on,,,,,4,0,5,,,,,3,,,74,108
46080,note_on,,,,,4,0,2,,,,,1,,,74,92
46128,note_off,,,,,48,0,1,,,,,0,,,74,0
46128,note_on,,,,,0,0,2,,,,,1,,,75,92
46128,note_on,,,,,0,0,1,,,,,0,,,75,92
46128,note_off,,,,,48,0,2,,,,,1,,,74,0
46176,note_off,,,,,48,0,2,,,,,1,,,75,0
46176,note_off,,,,,48,0,1,,,,,0,,,75,0
46176,note_on,,,,,0,0,1,,,,,0,,,77,92
46176,note_on,,,,,0,0,2,,,,,1,,,77,92
46268,note_off,,,,,188,0,5,,,,,3,,,74,0
46268,note_off,,,,,92,0,2,,,,,1,,,77,0
46268,note_off,,,,,188,0,6,,,,,4,,,70,0
46268,note_off,,,,,92,0,1,,,,,0,,,77,0
46268,note_off,,,,,188,0,4,,,,,2,,,77,0
46272,note_on,,,,,4,0,4,,,,,2,,,77,108
46272,note_on,,,,,4,0,5,,,,,3,,,74,108
46272,note_on,,,,,4,0,2,,,,,1,,,70,92
46272,note_on,,,,,4,0,6,,,,,4,,,70,92
46272,note_on,,,,,4,0,1,,,,,0,,,70,92
46460,note_off,,,,,188,0,6,,,,,4,,,70,0
46460,note_off,,,,,188,0,4,,,,,2,,,77,0
46460,note_off,,,,,188,0,5,,,,,3,,,74,0
46460,note_off,,,,,188,0,1,,,,,0,,,70,0
46460,note_off,,,,,188,0,2,,,,,1,,,70,0
46464,note_on,,,,,388,0,8,,,,,6,,,50,45
46464,note_on,,,,,388,0,7,,,,,5,,,62,45
46464,note_on,,,,,388,0,3,,,,,8,,,62,45
46464,note_on,,,,,4,0,4,,,,,2,,,77,108
46464,note_on,,,,,4,0,5,,,,,3,,,74,108
46464,note_on,,,,,388,0,9,,,,,7,,,62,45
46464,note_on,,,,,4,0,6,,,,,4,,,70,92
46508,note_off,,,,,44,0,3,,,,,8,,,62,0
46512,note_on,,,,,4,0,3,,,,,8,,,63,45
46556,note_off,,,,,44,0,3,,,,,8,,,63,0
46556,note_off,,,,,92,0,7,,,,,5,,,62,0
46556,note_off,,,,,92,0,9,,,,,7,,,62,0
46556,note_off,,,,,92,0,8,,,,,6,,,50,0
46560,note_on,,,,,4,0,8,,,,,6,,,53,45
46560,note_on,,,,,4,0,9,,,,,7,,,65,45
46560,note_on,,,,,4,0,7,,,,,5,,,65,45
46560,note_on,,,,,4,0,3,,,,,8,,,65,45
46652,note_off,,,,,92,0,3,,,,,8,,,65,0
46652,note_off,,,,,92,0,7,,,,,5,,,65,0
46652,note_off,,,,,92,0,9,,,,,7,,,65,0
46652,note_off,,,,,188,0,6,,,,,4,,,70,0
46652,note_off,,,,,188,0,5,,,,,3,,,74,0
46652,note_off,,,,,188,0,4,,,,,2,,,77,0
46652,note_off,,,,,92,0,8,,,,,6,,,53,0
46656,note_on,,,,,4,0,5,,,,,3,,,74,108
46656,note_on,,,,,4,0,3,,,,,8,,,58,45
46656,note_on,,,,,4,0,4,,,,,2,,,77,108
46656,note_on,,,,,4,0,8,,,,,6,,,46,45
46656,note_on,,,,,4,0,7,,,,,5,,,58,45
46656,note_on,,,,,4,0,6,,,,,4,,,70,92
46656,note_on,,,,,4,0,9,,,,,7,,,58,45
46844,note_off,,,,,188,0,3,,,,,8,,,58,0
46844,note_off,,,,,188,0,8,,,,,6,,,46,0
46844,note_off,,,,,188,0,7,,,,,5,,,58,0
46844,note_off,,,,,188,0,9,,,,,7,,,58,0
46844,note_off,,,,,188,0,6,,,,,4,,,70,0
46844,note_off,,,,,188,0,5,,,,,3,,,74,0
46844,note_off,,,,,188,0,4,,,,,2,,,77,0
46848,note_on,,,,,388,0,2,,,,,1,,,79,92
46848,note_on,,,,,4,0,5,,,,,3,,,75,108
46848,note_on,,,,,4,0,6,,,,,4,,,63,92
46848,note_on,,,,,388,0,1,,,,,0,,,79,92
46848,note_on,,,,,4,0,4,,,,,2,,,79,108
46896,note_on,,,,,0,0,1,,,,,0,,,80,92
46896,note_on,,,,,0,0,2,,,,,1,,,80,92
46896,note_off,,,,,48,0,2,,,,,1,,,79,0
46896,note_off,,,,,48,0,1,,,,,0,,,79,0
46944,note_off,,,,,48,0,2,,,,,1,,,80,0
46944,note_off,,,,,48,0,1,,,,,0,,,80,0
46944,note_on,,,,,0,0,1,,,,,0,,,82,92
46944,note_on,,,,,0,0,2,,,,,1,,,82,92
47036,note_off,,,,,92,0,1,,,,,0,,,82,0
47036,note_off,,,,,92,0,2,,,,,1,,,82,0
47036,note_off,,,,,188,0,4,,,,,2,,,79,0
47036,note_off,,,,,188,0,5,,,,,3,,,75,0
47036,note_off,,,,,188,0,6,,,,,4,,,63,0
47040,note_on,,,,,4,0,1,,,,,0,,,75,92
47040,note_on,,,,,4,0,5,,,,,3,,,75,108
47040,note_on,,,,,4,0,2,,,,,1,,,75,92
47040,note_on,,,,,4,0,6,,,,,4,,,63,92
47040,note_on,,,,,4,0,4,,,,,2,,,79,108
47228,note_off,,,,,188,0,6,,,,,4,,,63,0
47228,note_off,,,,,188,0,2,,,,,1,,,75,0
47228,note_off,,,,,188,0,5,,,,,3,,,75,0
47228,note_off,,,,,188,0,1,,,,,0,,,75,0
47228,note_off,,,,,188,0,4,,,,,2,,,79,0
47232,note_on,,,,,388,0,7,,,,,5,,,55,45
47232,note_on,,,,,4,0,4,,,,,2,,,79,108
47232,note_on,,,,,4,0,5,,,,,3,,,75,108
47232,note_on,,,,,388,0,8,,,,,6,,,43,45
47232,note_on,,,,,388,0,9,,,,,7,,,55,45
47232,note_on,,,,,4,0,6,,,,,4,,,70,92
47232,note_on,,,,,388,0,3,,,,,8,,,55,45
47276,note_off,,,,,44,0,3,,,,,8,,,55,0
47280,note_on,,,,,4,0,3,,,,,8,,,56,45
47324,note_off,,,,,44,0,3,,,,,8,,,56,0
47324,note_off,,,,,92,0,9,,,,,7,,,55,0
47324,note_off,,,,,92,0,8,,,,,6,,,43,0
47324,note_off,,,,,92,0,7,,,,,5,,,55,0
47328,note_on,,,,,4,0,9,,,,,7,,,58,45
47328,note_on,,,,,4,0,8,,,,,6,,,46,45
47328,note_on,,,,,4,0,7,,,,,5,,,58,45
47328,note_on,,,,,4,0,3,,,,,8,,,58,45
47420,note_off,,,,,188,0,5,,,,,3,,,75,0
47420,note_off,,,,,92,0,9,,,,,7,,,58,0
47420,note_off,,,,,92,0,3,,,,,8,,,58,0
47420,note_off,,,,,188,0,6,,,,,4,,,70,0
47420,note_off,,,,,188,0,4,,,,,2,,,79,0
47420,note_off,,,,,92,0,7,,,,,5,,,58,0
47420,note_off,,,,,92,0,8,,,,,6,,,46,0
47424,note_on,,,,,196,0,2,,,,,1,,,70,92
47424,note_on,,,,,4,0,7,,,,,5,,,51,92
47424,note_on,,,,,4,0,6,,,,,4,,,70,92
47424,note_on,,,,,196,0,1,,,,,0,,,79,92
47424,note_on,,,,,4,0,8,,,,,6,,,39,75
47424,note_on,,,,,4,0,3,,,,,8,,,51,92
47424,note_on,,,,,4,0,9,,,,,7,,,51,60
47424,note_on,,,,,4,0,4,,,,,2,,,79,108
47424,note_on,,,,,4,0,5,,,,,3,,,75,108
47612,note_off,,,,,188,0,5,,,,,3,,,75,0
47612,note_off,,,,,188,0,2,,,,,1,,,70,0
47612,note_off,,,,,188,0,8,,,,,6,,,39,0
47612,note_off,,,,,188,0,9,,,,,7,,,51,0
47612,note_off,,,,,188,0,1,,,,,0,,,79,0
47612,note_off,,,,,188,0,6,,,,,4,,,70,0
47612,note_off,,,,,188,0,3,,,,,8,,,51,0
47612,note_off,,,,,188,0,4,,,,,2,,,79,0
47612,note_off,,,,,188,0,7,,,,,5,,,51,0
47616,note_on,,,,,4,0,8,,,,,6,,,44,75
47616,note_on,,,,,4,0,3,,,,,8,,,56,92
47616,note_on,,,,,4,0,4,,,,,2,,,77,108
47616,note_on,,,,,4,0,9,,,,,7,,,56,60
47616,note_on,,,,,4,0,5,,,,,3,,,72,108
47616,note_on,,,,,4,0,7,,,,,5,,,56,92
47616,note_on,,,,,4,0,2,,,,,1,,,72,92
47616,note_on,,,,,4,0,1,,,,,0,,,77,92
47616,note_on,,,,,4,0,6,,,,,4,,,68,92
47804,note_off,,,,,188,0,3,,,,,8,,,56,0
47804,note_off,,,,,188,0,6,,,,,4,,,68,0
47804,note_off,,,,,188,0,2,,,,,1,,,72,0
47804,note_off,,,,,188,0,8,,,,,6,,,44,0
47804,note_off,,,,,188,0,1,,,,,0,,,77,0
47804,note_off,,,,,188,0,4,,,,,2,,,77,0
47804,note_off,,,,,188,0,9,,,,,7,,,56,0
47804,note_off,,,,,188,0,7,,,,,5,,,56,0
47804,note_off,,,,,188,0,5,,,,,3,,,72,0
47808,note_on,,,,,4,0,4,,,,,2,,,75,108
47808,note_on,,,,,4,0,6,,,,,4,,,68,92
47808,note_on,,,,,4,0,9,,,,,7,,,60,60
47808,note_on,,,,,4,0,2,,,,,1,,,68,92
47808,note_on,,,,,4,0,8,,,,,6,,,48,75
47808,note_on,,,,,4,0,3,,,,,8,,,60,92
47808,note_on,,,,,4,0,1,,,,,0,,,75,92
47808,note_on,,,,,4,0,5,,,,,3,,,68,108
47808,note_on,,,,,4,0,7,,,,,5,,,60,92
47996,note_off,,,,,188,0,8,,,,,6,,,48,0
47996,note_off,,,,,188,0,1,,,,,0,,,75,0
47996,note_off,,,,,188,0,3,,,,,8,,,60,0
47996,note_off,,,,,188,0,4,,,,,2,,,75,0
47996,note_off,,,,,188,0,6,,,,,4,,,68,0
47996,note_off,,,,,188,0,9,,,,,7,,,60,0
47996,note_off,,,,,188,0,5,,,,,3,,,68,0
47996,note_off,,,,,188,0,2,,,,,1,,,68,0
47996,note_off,,,,,188,0,7,,,,,5,,,60,0
48000,note_on,,,,,4,0,4,,,,,2,,,74,108
48000,note_on,,,,,4,0,6,,,,,4,,,70,92
48000,note_on,,,,,4,0,2,,,,,1,,,65,92
48000,note_on,,,,,4,0,5,,,,,3,,,65,108
48000,note_on,,,,,4,0,9,,,,,7,,,58,60
48000,note_on,,,,,4,0,8,,,,,6,,,46,75
48000,note_on,,,,,4,0,3,,,,,8,,,58,92
48000,note_on,,,,,4,0,1,,,,,0,,,74,92
48000,note_on,,,,,4,0,7,,,,,5,,,58,92
48188,note_off,,,,,188,0,9,,,,,7,,,58,0
48188,note_off,,,,,188,0,3,,,,,8,,,58,0
48188,note_off,,,,,188,0,8,,,,,6,,,46,0
48188,note_off,,,,,188,0,7,,,,,5,,,58,0
48192,note_on,,,,,4,0,3,,,,,8,,,46,92
48192,note_on,,,,,4,0,8,,,,,6,,,34,75
48192,note_on,,,,,4,0,7,,,,,5,,,46,92
48192,note_on,,,,,4,0,9,,,,,7,,,46,60
48320,note_off,,,,,320,0,5,,,,,3,,,65,0
48320,note_off,,,,,320,0,6,,,,,4,,,70,0
48320,note_off,,,,,320,0,1,,,,,0,,,74,0
48320,note_off,,,,,320,0,4,,,,,2,,,74,0
48320,note_off,,,,,320,0,2,,,,,1,,,65,0
48380,note_off,,,,,188,0,7,,,,,5,,,46,0
48380,note_off,,,,,188,0,9,,,,,7,,,46,0
48380,note_off,,,,,188,0,8,,,,,6,,,34,0
48380,note_off,,,,,188,0,3,,,,,8,,,46,0
48384,note_on,,,,,4,0,3,,,,,8,,,51,92
48384,note_on,,,,,4,0,7,,,,,5,,,51,92
48384,note_on,,,,,4,0,8,,,,,6,,,39,75
48384,note_on,,,,,4,0,9,,,,,7,,,51,60
48480,note_on,,,,,160,0,5,,,,,3,,,63,127
48480,note_on,,,,,160,0,1,,,,,0,,,67,92
48480,note_on,,,,,160,0,4,,,,,2,,,67,127
48480,note_on,,,,,160,0,2,,,,,1,,,63,92
48572,note_off,,,,,92,0,2,,,,,1,,,63,0
48572,note_off,,,,,92,0,1,,,,,0,,,67,0
48572,note_off,,,,,188,0,7,,,,,5,,,51,0
48572,note_off,,,,,188,0,9,,,,,7,,,51,0
48572,note_off,,,,,188,0,8,,,,,6,,,39,0
48572,note_off,,,,,188,0,3,,,,,8,,,51,0
48572,note_off,,,,,92,0,4,,,,,2,,,67,0
48572,note_off,,,,,92,0,5,,,,,3,,,63,0
48576,note_on,,,,,256,0,6,,,,,4,,,58,92
48576,note_on,,,,,4,0,9,,,,,7,,,46,60
48576,note_on,,,,,4,0,4,,,,,2,,,68,127
48576,note_on,,,,,4,0,2,,,,,1,,,65,92
48576,note_on,,,,,4,0,1,,,,,0,,,68,92
48576,note_on,,,,,4,0,3,,,,,8,,,46,92
48576,note_on,,,,,4,0,5,,,,,3,,,65,127
48576,note_on,,,,,4,0,8,,,,,6,,,34,75
48576,note_on,,,,,4,0,7,,,,,5,,,46,92
48668,note_off,,,,,92,0,2,,,,,1,,,65,0
48668,note_off,,,,,92,0,5,,,,,3,,,65,0
48668,note_off,,,,,92,0,4,,,,,2,,,68,0
48668,note_off,,,,,92,0,1,,,,,0,,,68,0
48672,note_on,,,,,4,0,2,,,,,1,,,62,92
48672,note_on,,,,,4,0,1,,,,,0,,,65,92
48672,note_on,,,,,4,0,5,,,,,3,,,62,127
48672,note_on,,,,,4,0,4,,,,,2,,,65,127
48764,note_off,,,,,92,0,5,,,,,3,,,62,0
48764,note_off,,,,,92,0,2,,,,,1,,,62,0
48764,note_off,,,,,188,0,6,,,,,4,,,58,0
48764,note_off,,,,,188,0,3,,,,,8,,,46,0
48764,note_off,,,,,92,0,1,,,,,0,,,65,0
48764,note_off,,,,,188,0,8,,,,,6,,,34,0
48764,note_off,,,,,92,0,4,,,,,2,,,65,0
48764,note_off,,,,,188,0,7,,,,,5,,,46,0
48764,note_off,,,,,188,0,9,,,,,7,,,46,0
48768,note_on,,,,,4,0,8,,,,,6,,,31,75
48768,note_on,,,,,4,0,9,,,,,7,,,43,60
48768,note_on,,,,,4,0,7,,,,,5,,,43,92
48768,note_on,,,,,4,0,3,,,,,8,,,43,92
48768,note_on,,,,,4,0,2,,,,,1,,,63,92
48768,note_on,,,,,4,0,4,,,,,2,,,67,127
48768,note_on,,,,,4,0,5,,,,,3,,,63,127
48768,note_on,,,,,4,0,6,,,,,4,,,58,92
48768,note_on,,,,,4,0,1,,,,,0,,,67,92
48860,note_off,,,,,92,0,4,,,,,2,,,67,0
48860,note_off,,,,,92,0,1,,,,,0,,,67,0
48860,note_off,,,,,92,0,2,,,,,1,,,63,0
48860,note_off,,,,,92,0,5,,,,,3,,,63,0
48864,note_on,,,,,4,0,5,,,,,3,,,67,127
48864,note_on,,,,,4,0,1,,,,,0,,,70,92
48864,note_on,,,,,4,0,4,,,,,2,,,70,127
48864,note_on,,,,,4,0,2,,,,,1,,,67,92
48956,note_off,,,,,188,0,7,,,,,5,,,43,0
48956,note_off,,,,,188,0,9,,,,,7,,,43,0
48956,note_off,,,,,188,0,6,,,,,4,,,58,0
48956,note_off,,,,,188,0,8,,,,,6,,,31,0
48956,note_off,,,,,188,0,3,,,,,8,,,43,0
48956,note_off,,,,,92,0,2,,,,,1,,,67,0
48956,note_off,,,,,92,0,5,,,,,3,,,67,0
48956,note_off,,,,,92,0,1,,,,,0,,,70,0
48956,note_off,,,,,92,0,4,,,,,2,,,70,0
48960,note_on,,,,,4,0,4,,,,,2,,,75,127
48960,note_on,,,,,4,0,3,,,,,8,,,39,92
48960,note_on,,,,,4,0,7,,,,,5,,,39,92
48960,note_on,,,,,4,0,1,,,,,0,,,75,92
48960,note_on,,,,,4,0,2,,,,,1,,,70,92
48960,note_on,,,,,4,0,5,,,,,3,,,70,127
48960,note_on,,,,,4,0,8,,,,,6,,,27,75
48960,note_on,,,,,4,0,6,,,,,4,,,55,92
48960,note_on,,,,,4,0,9,,,,,7,,,39,60
49148,note_off,,,,,188,0,6,,,,,4,,,55,0
49148,note_off,,,,,188,0,1,,,,,0,,,75,0
49148,note_off,,,,,188,0,5,,,,,3,,,70,0
49148,note_off,,,,,188,0,9,,,,,7,,,39,0
49148,note_off,,,,,188,0,2,,,,,1,,,70,0
49148,note_off,,,,,188,0,8,,,,,6,,,27,0
49148,note_off,,,,,188,0,3,,,,,8,,,39,0
49148,note_off,,,,,188,0,7,,,,,5,,,39,0
49148,note_off,,,,,188,0,4,,,,,2,,,75,0
49152,note_on,,,,,4,0,3,,,,,8,,,51,92
49152,note_on,,,,,4,0,7,,,,,5,,,51,92
49152,note_on,,,,,4,0,6,,,,,4,,,51,92
49152,note_on,,,,,4,0,9,,,,,7,,,51,60
49152,note_on,,,,,4,0,8,,,,,6,,,39,75
49200,note_off,,,,,48,0,3,,,,,8,,,51,0
49200,note_off,,,,,48,0,6,,,,,4,,,51,0
49200,note_on,,,,,0,0,3,,,,,8,,,53,92
49200,note_on,,,,,0,0,6,,,,,4,,,53,92
49244,note_off,,,,,92,0,7,,,,,5,,,51,0
49244,note_off,,,,,92,0,9,,,,,7,,,51,0
49244,note_off,,,,,92,0,8,,,,,6,,,39,0
49248,note_on,,,,,0,0,3,,,,,8,,,55,92
49248,note_off,,,,,48,0,3,,,,,8,,,53,0
49248,note_on,,,,,0,0,6,,,,,4,,,55,92
49248,note_off,,,,,48,0,6,,,,,4,,,53,0
49248,note_on,,,,,4,0,9,,,,,7,,,55,60
49248,note_on,,,,,4,0,8,,,,,6,,,43,75
49248,note_on,,,,,4,0,7,,,,,5,,,55,92
49340,note_off,,,,,92,0,6,,,,,4,,,55,0
49340,note_off,,,,,92,0,8,,,,,6,,,43,0
49340,note_off,,,,,92,0,9,,,,,7,,,55,0
49340,note_off,,,,,92,0,7,,,,,5,,,55,0
49340,note_off,,,,,92,0,3,,,,,8,,,55,0
49344,note_on,,,,,4,0,8,,,,,6,,,36,75
49344,note_on,,,,,196,0,4,,,,,2,,,67,108
49344,note_on,,,,,196,0,1,,,,,0,,,67,92
49344,note_on,,,,,4,0,9,,,,,7,,,48,60
49344,note_on,,,,,4,0,6,,,,,4,,,48,92
49344,note_on,,,,,4,0,7,,,,,5,,,48,92
49344,note_on,,,,,4,0,3,,,,,8,,,48,92
49532,note_off,,,,,188,0,3,,,,,8,,,48,0
49532,note_off,,,,,188,0,8,,,,,6,,,36,0
49532,note_off,,,,,188,0,9,,,,,7,,,48,0
49532,note_off,,,,,188,0,1,,,,,0,,,67,0
49532,note_off,,,,,188,0,6,,,,,4,,,48,0
49532,note_off,,,,,188,0,7,,,,,5,,,48,0
49532,note_off,,,,,188,0,4,,,,,2,,,67,0
49536,note_on,,,,,4,0,4,,,,,2,,,72,108
49536,note_on,,,,,388,0,5,,,,,3,,,63,108
49536,note_on,,,,,388,0,2,,,,,1,,,63,92
49536,note_on,,,,,4,0,1,,,,,0,,,72,92
49584,note_off,,,,,48,0,5,,,,,3,,,63,0
49584,note_on,,,,,0,0,5,,,,,3,,,65,108
49584,note_on,,,,,0,0,2,,,,,1,,,65,92
49584,note_off,,,,,48,0,2,,,,,1,,,63,0
49632,note_off,,,,,48,0,5,,,,,3,,,65,0
49632,note_on,,,,,0,0,5,,,,,3,,,67,108
49632,note_on,,,,,0,0,2,,,,,1,,,67,92
49632,note_off,,,,,48,0,2,,,,,1,,,65,0
49724,note_off,,,,,188,0,4,,,,,2,,,72,0
49724,note_off,,,,,92,0,5,,,,,3,,,67,0
49724,note_off,,,,,188,0,1,,,,,0,,,72,0
49724,note_off,,,,,92,0,2,,,,,1,,,67,0
49728,note_on,,,,,4,0,4,,,,,2,,,75,108
49728,note_on,,,,,4,0,5,,,,,3,,,60,108
49728,note_on,,,,,4,0,2,,,,,1,,,60,92
49728,note_on,,,,,4,0,1,,,,,0,,,75,92
49916,note_off,,,,,188,0,4,,,,,2,,,75,0
49916,note_off,,,,,188,0,2,,,,,1,,,60,0
49916,note_off,,,,,188,0,5,,,,,3,,,60,0
49916,note_off,,,,,188,0,1,,,,,0,,,75,0
49920,note_on,,,,,388,0,8,,,,,6,,,41,75
49920,note_on,,,,,388,0,3,,,,,8,,,53,92
49920,note_on,,,,,388,0,9,,,,,7,,,53,60
49920,note_on,,,,,388,0,7,,,,,5,,,53,92
49920,note_on,,,,,388,0,6,,,,,4,,,53,92
49968,note_on,,,,,0,0,3,,,,,8,,,55,92
49968,note_off,,,,,48,0,6,,,,,4,,,53,0
49968,note_off,,,,,48,0,3,,,,,8,,,53,0
49968,note_on,,,,,0,0,6,,,,,4,,,55,92
50012,note_off,,,,,92,0,9,,,,,7,,,53,0
50012,note_off,,,,,92,0,7,,,,,5,,,53,0
50012,note_off,,,,,92,0,8,,,,,6,,,41,0
50016,note_off,,,,,48,0,6,,,,,4,,,55,0
50016,note_off,,,,,48,0,3,,,,,8,,,55,0
50016,note_on,,,,,0,0,6,,,,,4,,,57,92
50016,note_on,,,,,0,0,3,,,,,8,,,57,92
50016,note_on,,,,,4,0,9,,,,,7,,,57,60
50016,note_on,,,,,4,0,7,,,,,5,,,57,92
50016,note_on,,,,,4,0,8,,,,,6,,,45,75
50108,note_off,,,,,92,0,3,,,,,8,,,57,0
50108,note_off,,,,,92,0,7,,,,,5,,,57,0
50108,note_off,,,,,92,0,6,,,,,4,,,57,0
50108,note_off,,,,,92,0,8,,,,,6,,,45,0
50108,note_off,,,,,92,0,9,,,,,7,,,57,0
50112,note_on,,,,,4,0,9,,,,,7,,,50,60
50112,note_on,,,,,196,0,1,,,,,0,,,69,92
50112,note_on,,,,,4,0,3,,,,,8,,,50,92
50112,note_on,,,,,196,0,4,,,,,2,,,69,108
50112,note_on,,,,,4,0,8,,,,,6,,,38,75
50112,note_on,,,,,4,0,6,,,,,4,,,50,92
50112,note_on,,,,,4,0,7,,,,,5,,,50,92
50300,note_off,,,,,188,0,7,,,,,5,,,50,0
50300,note_off,,,,,188,0,8,,,,,6,,,38,0
50300,note_off,,,,,188,0,4,,,,,2,,,69,0
50300,note_off,,,,,188,0,9,,,,,7,,,50,0
50300,note_off,,,,,188,0,3,,,,,8,,,50,0
50300,note_off,,,,,188,0,1,,,,,0,,,69,0
50300,note_off,,,,,188,0,6,,,,,4,,,50,0
50304,note_on,,,,,4,0,1,,,,,0,,,74,92
50304,note_on,,,,,388,0,2,,,,,1,,,65,92
50304,note_on,,,,,388,0,5,,,,,3,,,65,108
50304,note_on,,,,,4,0,4,,,,,2,,,74,108
50352,note_on,,,,,0,0,5,,,,,3,,,67,108
50352,note_off,,,,,48,0,2,,,,,1,,,65,0
50352,note_on,,,,,0,0,2,,,,,1,,,67,92
50352,note_off,,,,,48,0,5,,,,,3,,,65,0
50400,note_on,,,,,0,0,2,,,,,1,,,69,92
50400,note_off,,,,,48,0,5,,,,,3,,,67,0
50400,note_on,,,,,0,0,5,,,,,3,,,69,108
50400,note_off,,,,,48,0,2,,,,,1,,,67,0
50492,note_off,,,,,92,0,2,,,,,1,,,69,0
50492,note_off,,,,,92,0,5,,,,,3,,,69,0
50492,note_off,,,,,188,0,1,,,,,0,,,74,0
50492,note_off,,,,,188,0,4,,,,,2,,,74,0
50496,note_on,,,,,4,0,4,,,,,2,,,77,108
50496,note_on,,,,,4,0,1,,,,,0,,,77,92
50496,note_on,,,,,4,0,5,,,,,3,,,62,108
50496,note_on,,,,,4,0,2,,,,,1,,,62,92
50684,note_off,,,,,188,0,1,,,,,0,,,77,0
50684,note_off,,,,,188,0,5,,,,,3,,,62,0
50684,note_off,,,,,188,0,4,,,,,2,,,77,0
50684,note_off,,,,,188,0,2,,,,,1,,,62,0
50688,note_on,,,,,388,0,7,,,,,5,,,59,92
50688,note_on,,,,,388,0,8,,,,,6,,,47,75
50688,note_on,,,,,388,0,6,,,,,4,,,59,92
50688,note_on,,,,,388,0,3,,,,,8,,,59,92
50688,note_on,,,,,388,0,9,,,,,7,,,59,60
50736,note_off,,,,,48,0,3,,,,,8,,,59,0
50736,note_off,,,,,48,0,6,,,,,4,,,59,0
50736,note_on,,,,,0,0,3,,,,,8,,,60,92
50736,note_on,,,,,0,0,6,,,,,4,,,60,92
50780,note_off,,,,,92,0,7,,,,,5,,,59,0
50780,note_off,,,,,92,0,8,,,,,6,,,47,0
50780,note_off,,,,,92,0,9,,,,,7,,,59,0
50784,note_on,,,,,0,0,3,,,,,8,,,62,92
50784,note_on,,,,,4,0,8,,,,,6,,,50,75
50784,note_on,,,,,4,0,9,,,,,7,,,62,60
50784,note_off,,,,,48,0,3,,,,,8,,,60,0
50784,note_off,,,,,48,0,6,,,,,4,,,60,0
50784,note_on,,,,,0,0,6,,,,,4,,,62,92
50784,note_on,,,,,4,0,7,,,,,5,,,62,92
50876,note_off,,,,,92,0,9,,,,,7,,,62,0
50876,note_off,,,,,92,0,8,,,,,6,,,50,0
50876,note_off,,,,,92,0,3,,,,,8,,,62,0
50876,note_off,,,,,92,0,7,,,,,5,,,62,0
50876,note_off,,,,,92,0,6,,,,,4,,,62,0
50880,note_on,,,,,4,0,6,,,,,4,,,55,92
50880,note_on,,,,,4,0,7,,,,,5,,,55,92
50880,note_on,,,,,196,0,4,,,,,2,,,71,108
50880,note_on,,,,,4,0,9,,,,,7,,,55,60
50880,note_on,,,,,4,0,8,,,,,6,,,43,75
50880,note_on,,,,,196,0,1,,,,,0,,,71,92
50880,note_on,,,,,4,0,3,,,,,8,,,55,92
51068,note_off,,,,,188,0,1,,,,,0,,,71,0
51068,note_off,,,,,188,0,8,,,,,6,,,43,0
51068,note_off,,,,,188,0,4,,,,,2,,,71,0
51068,note_off,,,,,188,0,6,,,,,4,,,55,0
51068,note_off,,,,,188,0,7,,,,,5,,,55,0
51068,note_off,,,,,188,0,3,,,,,8,,,55,0
51068,note_off,,,,,188,0,9,,,,,7,,,55,0
51072,note_on,,,,,4,0,4,,,,,2,,,74,108
51072,note_on,,,,,388,0,5,,,,,3,,,71,108
51072,note_on,,,,,388,0,2,,,,,1,,,71,92
51072,note_on,,,,,4,0,1,,,,,0,,,74,92
51120,note_off,,,,,48,0,2,,,,,1,,,71,0
51120,note_on,,,,,0,0,5,,,,,3,,,72,108
51120,note_off,,,,,48,0,5,,,,,3,,,71,0
51120,note_on,,,,,0,0,2,,,,,1,,,72,92
51168,note_off,,,,,48,0,2,,,,,1,,,72,0
51168,note_off,,,,,48,0,5,,,,,3,,,72,0
51168,note_on,,,,,0,0,5,,,,,3,,,74,108
51168,note_on,,,,,0,0,2,,,,,1,,,74,92
51260,note_off,,,,,188,0,1,,,,,0,,,74,0
51260,note_off,,,,,92,0,2,,,,,1,,,74,0
51260,note_off,,,,,188,0,4,,,,,2,,,74,0
51260,note_off,,,,,92,0,5,,,,,3,,,74,0
51264,note_on,,,,,4,0,2,,,,,1,,,59,92
51264,note_on,,,,,4,0,4,,,,,2,,,79,108
51264,note_on,,,,,4,0,1,,,,,0,,,79,92
51264,note_on,,,,,4,0,5,,,,,3,,,59,108
51452,note_off,,,,,188,0,4,,,,,2,,,79,0
51452,note_off,,,,,188,0,5,,,,,3,,,59,0
51452,note_off,,,,,188,0,1,,,,,0,,,79,0
51452,note_off,,,,,188,0,2,,,,,1,,,59,0
51456,note_on,,,,,388,0,8,,,,,6,,,39,75
51456,note_on,,,,,388,0,9,,,,,7,,,51,60
51456,note_on,,,,,388,0,3,,,,,8,,,51,92
51456,note_on,,,,,388,0,6,,,,,4,,,51,92
51456,note_on,,,,,388,0,7,,,,,5,,,51,92
51504,note_on,,,,,0,0,3,,,,,8,,,53,92
51504,note_off,,,,,48,0,3,,,,,8,,,51,0
51504,note_on,,,,,0,0,6,,,,,4,,,53,92
51504,note_off,,,,,48,0,6,,,,,4,,,51,0
51548,note_off,,,,,92,0,9,,,,,7,,,51,0
51548,note_off,,,,,92,0,7,,,,,5,,,51,0
51548,note_off,,,,,92,0,8,,,,,6,,,39,0
51552,note_off,,,,,48,0,6,,,,,4,,,53,0
51552,note_on,,,,,4,0,8,,,,,6,,,43,75
51552,note_on,,,,,0,0,6,,,,,4,,,55,92
51552,note_on,,,,,4,0,7,,,,,5,,,55,92
51552,note_on,,,,,4,0,9,,,,,7,,,55,60
51552,note_off,,,,,48,0,3,,,,,8,,,53,0
51552,note_on,,,,,0,0,3,,,,,8,,,55,92
51644,note_off,,,,,92,0,6,,,,,4,,,55,0
51644,note_off,,,,,92,0,9,,,,,7,,,55,0
51644,note_off,,,,,92,0,3,,,,,8,,,55,0
51644,note_off,,,,,92,0,7,,,,,5,,,55,0
51644,note_off,,,,,92,0,8,,,,,6,,,43,0
51648,note_on,,,,,4,0,6,,,,,4,,,48,92
51648,note_on,,,,,196,0,1,,,,,0,,,67,92
51648,note_on,,,,,4,0,9,,,,,7,,,48,60
51648,note_on,,,,,4,0,7,,,,,5,,,48,92
51648,note_on,,,,,196,0,4,,,,,2,,,67,108
51648,note_on,,,,,4,0,8,,,,,6,,,36,75
51648,note_on,,,,,4,0,3,,,,,8,,,48,92
51836,note_off,,,,,188,0,7,,,,,5,,,48,0
51836,note_off,,,,,188,0,6,,,,,4,,,48,0
51836,note_off,,,,,188,0,4,,,,,2,,,67,0
51836,note_off,,,,,188,0,8,,,,,6,,,36,0
51836,note_off,,,,,188,0,1,,,,,0,,,67,0
51836,note_off,,,,,188,0,3,,,,,8,,,48,0
51836,note_off,,,,,188,0,9,,,,,7,,,48,0
51840,note_on,,,,,4,0,4,,,,,2,,,72,108
51840,note_on,,,,,388,0,2,,,,,1,,,63,92
51840,note_on,,,,,4,0,1,,,,,0,,,72,92
51840,note_on,,,,,388,0,5,,,,,3,,,63,108
51888,note_off,,,,,48,0,5,,,,,3,,,63,0
51888,note_on,,,,,0,0,2,,,,,1,,,65,92
51888,note_off,,,,,48,0,2,,,,,1,,,63,0
51888,note_on,,,,,0,0,5,,,,,3,,,65,108
51936,note_off,,,,,48,0,2,,,,,1,,,65,0
51936,note_on,,,,,0,0,2,,,,,1,,,67,92
51936,note_on,,,,,0,0,5,,,,,3,,,67,108
51936,note_off,,,,,48,0,5,,,,,3,,,65,0
52028,note_off,,,,,92,0,5,,,,,3,,,67,0
52028,note_off,,,,,188,0,4,,,,,2,,,72,0
52028,note_off,,,,,92,0,2,,,,,1,,,67,0
52028,note_off,,,,,188,0,1,,,,,0,,,72,0
52032,note_on,,,,,4,0,2,,,,,1,,,55,92
52032,note_on,,,,,4,0,4,,,,,2,,,74,108
52032,note_on,,,,,4,0,5,,,,,3,,,55,108
52032,note_on,,,,,4,0,1,,,,,0,,,74,92
52220,note_off,,,,,188,0,4,,,,,2,,,74,0
52220,note_off,,,,,188,0,5,,,,,3,,,55,0
52220,note_off,,,,,188,0,2,,,,,1,,,55,0
52220,note_off,,,,,188,0,1,,,,,0,,,74,0
52224,note_on,,,,,388,0,6,,,,,4,,,60,92
52224,note_on,,,,,4,0,1,,,,,0,,,75,92
52224,note_on,,,,,4,0,5,,,,,3,,,67,108
52224,note_on,,,,,4,0,4,,,,,2,,,75,108
52224,note_on,,,,,388,0,9,,,,,7,,,48,60
52224,note_on,,,,,388,0,7,,,,,5,,,48,92
52224,note_on,,,,,388,0,8,,,,,6,,,36,75
52224,note_on,,,,,4,0,2,,,,,1,,,67,92
52224,note_on,,,,,388,0,3,,,,,8,,,48,92
52412,note_off,,,,,188,0,1,,,,,0,,,75,0
52412,note_off,,,,,188,0,4,,,,,2,,,75,0
52412,note_off,,,,,188,0,7,,,,,5,,,48,0
52412,note_off,,,,,188,0,9,,,,,7,,,48,0
52412,note_off,,,,,188,0,8,,,,,6,,,36,0
52412,note_off,,,,,188,0,3,,,,,8,,,48,0
52416,note_on,,,,,4,0,1,,,,,0,,,77,92
52416,note_on,,,,,4,0,7,,,,,5,,,50,92
52416,note_on,,,,,4,0,8,,,,,6,,,38,75
52416,note_on,,,,,4,0,4,,,,,2,,,77,108
52416,note_on,,,,,4,0,3,,,,,8,,,50,92
52416,note_on,,,,,4,0,9,,,,,7,,,50,60
52544,note_off,,,,,320,0,2,,,,,1,,,67,0
52544,note_off,,,,,320,0,5,,,,,3,,,67,0
52544,note_off,,,,,320,0,6,,,,,4,,,60,0
52604,note_off,,,,,188,0,4,,,,,2,,,77,0
52604,note_off,,,,,188,0,3,,,,,8,,,50,0
52604,note_off,,,,,188,0,9,,,,,7,,,50,0
52604,note_off,,,,,188,0,1,,,,,0,,,77,0
52604,note_off,,,,,188,0,7,,,,,5,,,50,0
52604,note_off,,,,,188,0,8,,,,,6,,,38,0
52608,note_on,,,,,64,0,6,,,,,4,,,67,92
52608,note_on,,,,,4,0,4,,,,,2,,,79,108
52608,note_on,,,,,4,0,3,,,,,8,,,51,92
52608,note_on,,,,,64,0,2,,,,,1,,,72,92
52608,note_on,,,,,4,0,7,,,,,5,,,51,92
52608,note_on,,,,,64,0,5,,,,,3,,,72,108
52608,note_on,,,,,4,0,9,,,,,7,,,51,60
52608,note_on,,,,,4,0,1,,,,,0,,,79,92
52608,note_on,,,,,4,0,8,,,,,6,,,39,75
52796,note_off,,,,,188,0,2,,,,,1,,,72,0
52796,note_off,,,,,188,0,6,,,,,4,,,67,0
52796,note_off,,,,,188,0,7,,,,,5,,,51,0
52796,note_off,,,,,188,0,9,,,,,7,,,51,0
52796,note_off,,,,,188,0,3,,,,,8,,,51,0
52796,note_off,,,,,188,0,5,,,,,3,,,72,0
52796,note_off,,,,,188,0,8,,,,,6,,,39,0
52800,note_on,,,,,4,0,3,,,,,8,,,48,92
52800,note_on,,,,,4,0,5,,,,,3,,,70,108
52800,note_on,,,,,4,0,7,,,,,5,,,48,92
52800,note_on,,,,,4,0,8,,,,,6,,,36,75
52800,note_on,,,,,4,0,2,,,,,1,,,70,92
52800,note_on,,,,,4,0,9,,,,,7,,,48,60
52800,note_on,,,,,4,0,6,,,,,4,,,63,92
52988,note_off,,,,,188,0,9,,,,,7,,,48,0
52988,note_off,,,,,188,0,5,,,,,3,,,70,0
52988,note_off,,,,,188,0,8,,,,,6,,,36,0
52988,note_off,,,,,188,0,7,,,,,5,,,48,0
52988,note_off,,,,,188,0,6,,,,,4,,,63,0
52988,note_off,,,,,188,0,3,,,,,8,,,48,0
52988,note_off,,,,,188,0,2,,,,,1,,,70,0
52992,note_on,,,,,4,0,7,,,,,5,,,53,92
52992,note_on,,,,,4,0,5,,,,,3,,,68,108
52992,note_on,,,,,4,0,8,,,,,6,,,41,75
52992,note_on,,,,,4,0,9,,,,,7,,,53,60
52992,note_on,,,,,4,0,3,,,,,8,,,53,92
52992,note_on,,,,,4,0,6,,,,,4,,,60,92
52992,note_on,,,,,4,0,2,,,,,1,,,68,92
53180,note_off,,,,,188,0,2,,,,,1,,,68,0
53180,note_off,,,,,188,0,3,,,,,8,,,53,0
53180,note_off,,,,,188,0,9,,,,,7,,,53,0
53180,note_off,,,,,188,0,8,,,,,6,,,41,0
53180,note_off,,,,,188,0,5,,,,,3,,,68,0
53180,note_off,,,,,572,0,4,,,,,2,,,79,0
53180,note_off,,,,,188,0,7,,,,,5,,,53,0
53180,note_off,,,,,572,0,1,,,,,0,,,79,0
53184,note_on,,,,,4,0,8,,,,,6,,,43,75
53184,note_on,,,,,4,0,3,,,,,8,,,55,92
53184,note_on,,,,,4,0,5,,,,,3,,,70,108
53184,note_on,,,,,4,0,7,,,,,5,,,55,92
53184,note_on,,,,,4,0,4,,,,,2,,,79,108
53184,note_on,,,,,4,0,9,,,,,7,,,55,60
53184,note_on,,,,,4,0,2,,,,,1,,,70,92
53184,note_on,,,,,4,0,1,,,,,0,,,79,92
53312,note_off,,,,,320,0,6,,,,,4,,,60,0
53372,note_off,,,,,188,0,2,,,,,1,,,70,0
53372,note_off,,,,,188,0,4,,,,,2,,,79,0
53372,note_off,,,,,188,0,5,,,,,3,,,70,0
53372,note_off,,,,,188,0,3,,,,,8,,,55,0
53372,note_off,,,,,188,0,8,,,,,6,,,43,0
53372,note_off,,,,,188,0,1,,,,,0,,,79,0
53372,note_off,,,,,188,0,7,,,,,5,,,55,0
53372,note_off,,,,,188,0,9,,,,,7,,,55,0
53376,note_on,,,,,64,0,6,,,,,4,,,65,92
53376,note_on,,,,,4,0,2,,,,,1,,,72,92
53376,note_on,,,,,4,0,3,,,,,8,,,56,92
53376,note_on,,,,,4,0,4,,,,,2,,,77,108
53376,note_on,,,,,4,0,7,,,,,5,,,56,92
53376,note_on,,,,,4,0,9,,,,,7,,,56,60
53376,note_on,,,,,4,0,1,,,,,0,,,77,92
53376,note_on,,,,,4,0,5,,,,,3,,,72,108
53376,note_on,,,,,4,0,8,,,,,6,,,44,75
53564,note_off,,,,,188,0,4,,,,,2,,,77,0
53564,note_off,,,,,188,0,1,,,,,0,,,77,0
53564,note_off,,,,,188,0,3,,,,,8,,,56,0
53564,note_off,,,,,188,0,8,,,,,6,,,44,0
53564,note_off,,,,,188,0,7,,,,,5,,,56,0
53564,note_off,,,,,188,0,9,,,,,7,,,56,0
53568,note_on,,,,,4,0,9,,,,,7,,,53,60
53568,note_on,,,,,4,0,8,,,,,6,,,41,75
53568,note_on,,,,,4,0,4,,,,,2,,,75,108
53568,note_on,,,,,4,0,1,,,,,0,,,75,92
53568,note_on,,,,,4,0,7,,,,,5,,,53,92
53568,note_on,,,,,4,0,3,,,,,8,,,53,92
53696,note_off,,,,,320,0,6,,,,,4,,,65,0
53756,note_off,,,,,188,0,8,,,,,6,,,41,0
53756,note_off,,,,,188,0,1,,,,,0,,,75,0
53756,note_off,,,,,188,0,7,,,,,5,,,53,0
53756,note_off,,,,,188,0,9,,,,,7,,,53,0
53756,note_off,,,,,188,0,3,,,,,8,,,53,0
53756,note_off,,,,,188,0,4,,,,,2,,,75,0
53760,note_on,,,,,4,0,7,,,,,5,,,46,92
53760,note_on,,,,,4,0,9,,,,,7,,,46,60
53760,note_on,,,,,4,0,3,,,,,8,,,46,92
53760,note_on,,,,,64,0,6,,,,,4,,,65,92
53760,note_on,,,,,4,0,4,,,,,2,,,74,108
53760,note_on,,,,,4,0,8,,,,,6,,,34,75
53760,note_on,,,,,4,0,1,,,,,0,,,74,92
53948,note_off,,,,,188,0,7,,,,,5,,,46,0
53948,note_off,,,,,188,0,1,,,,,0,,,74,0
53948,note_off,,,,,572,0,2,,,,,1,,,72,0
53948,note_off,,,,,188,0,9,,,,,7,,,46,0
53948,note_off,,,,,188,0,4,,,,,2,,,74,0
53948,note_off,,,,,188,0,8,,,,,6,,,34,0
53948,note_off,,,,,572,0,5,,,,,3,,,72,0
53948,note_off,,,,,188,0,3,,,,,8,,,46,0
53952,note_on,,,,,4,0,5,,,,,3,,,72,108
53952,note_on,,,,,4,0,7,,,,,5,,,48,92
53952,note_on,,,,,4,0,1,,,,,0,,,75,92
53952,note_on,,,,,4,0,2,,,,,1,,,72,92
53952,note_on,,,,,4,0,9,,,,,7,,,48,60
53952,note_on,,,,,4,0,3,,,,,8,,,48,92
53952,note_on,,,,,4,0,8,,,,,6,,,36,75
53952,note_on,,,,,4,0,4,,,,,2,,,75,108
54140,note_off,,,,,188,0,5,,,,,3,,,72,0
54140,note_off,,,,,188,0,7,,,,,5,,,48,0
54140,note_off,,,,,188,0,4,,,,,2,,,75,0
54140,note_off,,,,,188,0,2,,,,,1,,,72,0
54140,note_off,,,,,188,0,3,,,,,8,,,48,0
54140,note_off,,,,,188,0,8,,,,,6,,,36,0
54140,note_off,,,,,188,0,1,,,,,0,,,75,0
54140,note_off,,,,,188,0,9,,,,,7,,,48,0
54144,note_on,,,,,4,0,4,,,,,2,,,77,108
54144,note_on,,,,,4,0,2,,,,,1,,,70,92
54144,note_on,,,,,4,0,7,,,,,5,,,50,92
54144,note_on,,,,,4,0,5,,,,,3,,,70,108
54144,note_on,,,,,4,0,1,,,,,0,,,77,92
54144,note_on,,,,,4,0,3,,,,,8,,,50,92
54144,note_on,,,,,4,0,9,,,,,7,,,50,60
54144,note_on,,,,,4,0,8,,,,,6,,,38,75
54272,note_off,,,,,512,0,6,,,,,4,,,65,0
54332,note_off,,,,,188,0,5,,,,,3,,,70,0
54332,note_off,,,,,188,0,3,,,,,8,,,50,0
54332,note_off,,,,,188,0,2,,,,,1,,,70,0
54332,note_off,,,,,188,0,9,,,,,7,,,50,0
54332,note_off,,,,,188,0,8,,,,,6,,,38,0
54332,note_off,,,,,188,0,7,,,,,5,,,50,0
54336,note_on,,,,,64,0,6,,,,,4,,,62,92
54336,note_on,,,,,4,0,8,,,,,6,,,34,75
54336,note_on,,,,,4,0,3,,,,,8,,,46,92
54336,note_on,,,,,4,0,7,,,,,5,,,46,92
54336,note_on,,,,,4,0,5,,,,,3,,,68,108
54336,note_on,,,,,4,0,9,,,,,7,,,46,60
54336,note_on,,,,,4,0,2,,,,,1,,,68,92
54524,note_off,,,,,188,0,6,,,,,4,,,62,0
54524,note_off,,,,,188,0,2,,,,,1,,,68,0
54524,note_off,,,,,188,0,8,,,,,6,,,34,0
54524,note_off,,,,,188,0,5,,,,,3,,,68,0
54524,note_off,,,,,188,0,7,,,,,5,,,46,0
54524,note_off,,,,,188,0,3,,,,,8,,,46,0
54524,note_off,,,,,188,0,9,,,,,7,,,46,0
54528,note_on,,,,,4,0,3,,,,,8,,,51,92
54528,note_on,,,,,4,0,9,,,,,7,,,51,60
54528,note_on,,,,,4,0,6,,,,,4,,,58,92
54528,note_on,,,,,4,0,5,,,,,3,,,67,108
54528,note_on,,,,,4,0,8,,,,,6,,,39,75
54528,note_on,,,,,4,0,2,,,,,1,,,67,92
54528,note_on,,,,,4,0,7,,,,,5,,,51,92
54716,note_off,,,,,188,0,7,,,,,5,,,51,0
54716,note_off,,,,,188,0,5,,,,,3,,,67,0
54716,note_off,,,,,188,0,8,,,,,6,,,39,0
54716,note_off,,,,,572,0,1,,,,,0,,,77,0
54716,note_off,,,,,572,0,4,,,,,2,,,77,0
54716,note_off,,,,,188,0,3,,,,,8,,,51,0
54716,note_off,,,,,188,0,9,,,,,7,,,51,0
54716,note_off,,,,,188,0,2,,,,,1,,,67,0
54720,note_on,,,,,4,0,4,,,,,2,,,77,108
54720,note_on,,,,,4,0,8,,,,,6,,,41,75
54720,note_on,,,,,4,0,5,,,,,3,,,68,108
54720,note_on,,,,,4,0,1,,,,,0,,,77,92
54720,note_on,,,,,4,0,9,,,,,7,,,53,60
54720,note_on,,,,,4,0,2,,,,,1,,,68,92
54720,note_on,,,,,4,0,3,,,,,8,,,53,92
54720,note_on,,,,,4,0,7,,,,,5,,,53,92
54848,note_off,,,,,320,0,6,,,,,4,,,58,0
54908,note_off,,,,,188,0,5,,,,,3,,,68,0
54908,note_off,,,,,188,0,4,,,,,2,,,77,0
54908,note_off,,,,,188,0,3,,,,,8,,,53,0
54908,note_off,,,,,188,0,8,,,,,6,,,41,0
54908,note_off,,,,,188,0,2,,,,,1,,,68,0
54908,note_off,,,,,188,0,1,,,,,0,,,77,0
54908,note_off,,,,,188,0,9,,,,,7,,,53,0
54908,note_off,,,,,188,0,7,,,,,5,,,53,0
54912,note_on,,,,,4,0,4,,,,,2,,,75,108
54912,note_on,,,,,4,0,1,,,,,0,,,75,92
54912,note_on,,,,,4,0,7,,,,,5,,,55,92
54912,note_on,,,,,4,0,5,,,,,3,,,70,108
54912,note_on,,,,,4,0,2,,,,,1,,,70,92
54912,note_on,,,,,4,0,9,,,,,7,,,55,60
54912,note_on,,,,,64,0,6,,,,,4,,,67,92
54912,note_on,,,,,4,0,8,,,,,6,,,43,75
54912,note_on,,,,,4,0,3,,,,,8,,,55,92
55100,note_off,,,,,188,0,9,,,,,7,,,55,0
55100,note_off,,,,,188,0,7,,,,,5,,,55,0
55100,note_off,,,,,188,0,6,,,,,4,,,67,0
55100,note_off,,,,,188,0,8,,,,,6,,,43,0
55100,note_off,,,,,188,0,4,,,,,2,,,75,0
55100,note_off,,,,,188,0,3,,,,,8,,,55,0
55100,note_off,,,,,188,0,1,,,,,0,,,75,0
55104,note_on,,,,,4,0,8,,,,,6,,,39,75
55104,note_on,,,,,4,0,3,,,,,8,,,51,92
55104,note_on,,,,,4,0,6,,,,,4,,,70,92
55104,note_on,,,,,4,0,7,,,,,5,,,51,92
55104,note_on,,,,,4,0,9,,,,,7,,,51,60
55104,note_on,,,,,4,0,4,,,,,2,,,74,108
55104,note_on,,,,,4,0,1,,,,,0,,,74,92
55232,note_off,,,,,320,0,2,,,,,1,,,70,0
55232,note_off,,,,,320,0,5,,,,,3,,,70,0
55292,note_off,,,,,188,0,4,,,,,2,,,74,0
55292,note_off,,,,,188,0,8,,,,,6,,,39,0
55292,note_off,,,,,188,0,1,,,,,0,,,74,0
55292,note_off,,,,,188,0,7,,,,,5,,,51,0
55292,note_off,,,,,188,0,3,,,,,8,,,51,0
55292,note_off,,,,,188,0,6,,,,,4,,,70,0
55292,note_off,,,,,188,0,9,,,,,7,,,51,0
55296,note_on,,,,,4,0,8,,,,,6,,,44,75
55296,note_on,,,,,4,0,3,,,,,8,,,56,92
55296,note_on,,,,,4,0,1,,,,,0,,,72,92
55296,note_on,,,,,4,0,6,,,,,4,,,65,92
55296,note_on,,,,,4,0,7,,,,,5,,,56,92
55296,note_on,,,,,4,0,4,,,,,2,,,72,127
55296,note_on,,,,,4,0,9,,,,,7,,,56,60
55388,note_off,,,,,92,0,4,,,,,2,,,72,0
55388,note_off,,,,,92,0,1,,,,,0,,,72,0
55392,note_on,,,,,4,0,4,,,,,2,,,79,127
55392,note_on,,,,,160,0,5,,,,,3,,,72,127
55392,note_on,,,,,160,0,2,,,,,1,,,72,92
55392,note_on,,,,,4,0,1,,,,,0,,,79,92
55484,note_off,,,,,92,0,4,,,,,2,,,79,0
55484,note_off,,,,,188,0,3,,,,,8,,,56,0
55484,note_off,,,,,92,0,1,,,,,0,,,79,0
55484,note_off,,,,,188,0,9,,,,,7,,,56,0
55484,note_off,,,,,92,0,5,,,,,3,,,72,0
55484,note_off,,,,,188,0,7,,,,,5,,,56,0
55484,note_off,,,,,188,0,8,,,,,6,,,44,0
55484,note_off,,,,,92,0,2,,,,,1,,,72,0
55488,note_on,,,,,4,0,3,,,,,8,,,53,92
55488,note_on,,,,,4,0,8,,,,,6,,,41,75
55488,note_on,,,,,4,0,9,,,,,7,,,53,60
55488,note_on,,,,,4,0,2,,,,,1,,,77,92
55488,note_on,,,,,4,0,1,,,,,0,,,80,92
55488,note_on,,,,,4,0,4,,,,,2,,,80,127
55488,note_on,,,,,4,0,5,,,,,3,,,77,127
55488,note_on,,,,,4,0,7,,,,,5,,,53,92
55580,note_off,,,,,92,0,4,,,,,2,,,80,0
55580,note_off,,,,,92,0,2,,,,,1,,,77,0
55580,note_off,,,,,92,0,1,,,,,0,,,80,0
55580,note_off,,,,,92,0,5,,,,,3,,,77,0
55584,note_on,,,,,4,0,2,,,,,1,,,74,92
55584,note_on,,,,,4,0,1,,,,,0,,,77,92
55584,note_on,,,,,4,0,5,,,,,3,,,74,127
55584,note_on,,,,,4,0,4,,,,,2,,,77,127
55616,note_off,,,,,320,0,6,,,,,4,,,65,0
55676,note_off,,,,,92,0,5,,,,,3,,,74,0
55676,note_off,,,,,188,0,9,,,,,7,,,53,0
55676,note_off,,,,,188,0,7,,,,,5,,,53,0
55676,note_off,,,,,188,0,3,,,,,8,,,53,0
55676,note_off,,,,,92,0,4,,,,,2,,,77,0
55676,note_off,,,,,92,0,1,,,,,0,,,77,0
55676,note_off,,,,,188,0,8,,,,,6,,,41,0
55676,note_off,,,,,92,0,2,,,,,1,,,74,0
55680,note_on,,,,,4,0,8,,,,,6,,,48,75
55680,note_on,,,,,4,0,4,,,,,2,,,75,127
55680,note_on,,,,,4,0,3,,,,,8,,,60,92
55680,note_on,,,,,4,0,5,,,,,3,,,72,127
55680,note_on,,,,,4,0,9,,,,,7,,,60,60
55680,note_on,,,,,64,0,6,,,,,4,,,67,92
55680,note_on,,,,,4,0,7,,,,,5,,,60,92
55680,note_on,,,,,4,0,1,,,,,0,,,75,92
55680,note_on,,,,,4,0,2,,,,,1,,,72,92
55772,note_off,,,,,92,0,4,,,,,2,,,75,0
55772,note_off,,,,,92,0,2,,,,,1,,,72,0
55772,note_off,,,,,92,0,1,,,,,0,,,75,0
55772,note_off,,,,,92,0,5,,,,,3,,,72,0
55776,note_on,,,,,4,0,2,,,,,1,,,75,92
55776,note_on,,,,,4,0,5,,,,,3,,,75,127
55776,note_on,,,,,4,0,1,,,,,0,,,79,92
55776,note_on,,,,,4,0,4,,,,,2,,,79,127
55868,note_off,,,,,188,0,9,,,,,7,,,60,0
55868,note_off,,,,,92,0,1,,,,,0,,,79,0
55868,note_off,,,,,92,0,2,,,,,1,,,75,0
55868,note_off,,,,,92,0,4,,,,,2,,,79,0
55868,note_off,,,,,188,0,7,,,,,5,,,60,0
55868,note_off,,,,,92,0,5,,,,,3,,,75,0
55868,note_off,,,,,188,0,3,,,,,8,,,60,0
55868,note_off,,,,,188,0,8,,,,,6,,,48,0
55872,note_on,,,,,4,0,8,,,,,6,,,39,75
55872,note_on,,,,,4,0,1,,,,,0,,,84,92
55872,note_on,,,,,4,0,7,,,,,5,,,51,92
55872,note_on,,,,,4,0,9,,,,,7,,,51,60
55872,note_on,,,,,4,0,4,,,,,2,,,84,127
55872,note_on,,,,,4,0,5,,,,,3,,,79,127
55872,note_on,,,,,4,0,3,,,,,8,,,51,92
55872,note_on,,,,,4,0,2,,,,,1,,,79,92
56000,note_off,,,,,320,0,6,,,,,4,,,67,0
56060,note_off,,,,,188,0,2,,,,,1,,,79,0
56060,note_off,,,,,188,0,3,,,,,8,,,51,0
56060,note_off,,,,,188,0,5,,,,,3,,,79,0
56060,note_off,,,,,188,0,7,,,,,5,,,51,0
56060,note_off,,,,,188,0,8,,,,,6,,,39,0
56060,note_off,,,,,188,0,1,,,,,0,,,84,0
56060,note_off,,,,,188,0,4,,,,,2,,,84,0
56060,note_off,,,,,188,0,9,,,,,7,,,51,0
56064,note_on,,,,,4,0,8,,,,,6,,,38,75
56064,note_on,,,,,4,0,3,,,,,8,,,50,92
56064,note_on,,,,,4,0,7,,,,,5,,,50,92
56064,note_on,,,,,64,0,6,,,,,4,,,68,92
56064,note_on,,,,,4,0,9,,,,,7,,,50,60
56160,note_on,,,,,100,0,5,,,,,3,,,65,108
56160,note_on,,,,,100,0,1,,,,,0,,,71,92
56160,note_on,,,,,100,0,4,,,,,2,,,71,108
56160,note_on,,,,,100,0,2,,,,,1,,,65,92
56252,note_off,,,,,188,0,9,,,,,7,,,50,0
56252,note_off,,,,,92,0,4,,,,,2,,,71,0
56252,note_off,,,,,188,0,6,,,,,4,,,68,0
56252,note_off,,,,,92,0,1,,,,,0,,,71,0
56252,note_off,,,,,188,0,8,,,,,6,,,38,0
56252,note_off,,,,,92,0,2,,,,,1,,,65,0
56252,note_off,,,,,188,0,3,,,,,8,,,50,0
56252,note_off,,,,,188,0,7,,,,,5,,,50,0
56252,note_off,,,,,92,0,5,,,,,3,,,65,0
56256,note_on,,,,,4,0,6,,,,,4,,,67,92
56256,note_on,,,,,4,0,3,,,,,8,,,55,92
56256,note_on,,,,,4,0,5,,,,,3,,,71,108
56256,note_on,,,,,4,0,1,,,,,0,,,74,92
56256,note_on,,,,,4,0,7,,,,,5,,,55,92
56256,note_on,,,,,4,0,2,,,,,1,,,71,92
56256,note_on,,,,,4,0,4,,,,,2,,,74,108
56256,note_on,,,,,4,0,9,,,,,7,,,55,60
56256,note_on,,,,,4,0,8,,,,,6,,,43,75
56348,note_off,,,,,92,0,2,,,,,1,,,71,0
56348,note_off,,,,,92,0,5,,,,,3,,,71,0
56348,note_off,,,,,92,0,4,,,,,2,,,74,0
56348,note_off,,,,,92,0,1,,,,,0,,,74,0
56352,note_on,,,,,4,0,5,,,,,3,,,74,108
56352,note_on,,,,,4,0,2,,,,,1,,,74,92
56352,note_on,,,,,4,0,1,,,,,0,,,77,92
56352,note_on,,,,,4,0,4,,,,,2,,,77,108
56444,note_off,,,,,92,0,5,,,,,3,,,74,0
56444,note_off,,,,,92,0,2,,,,,1,,,74,0
56444,note_off,,,,,188,0,3,,,,,8,,,55,0
56444,note_off,,,,,92,0,1,,,,,0,,,77,0
56444,note_off,,,,,188,0,6,,,,,4,,,67,0
56444,note_off,,,,,188,0,9,,,,,7,,,55,0
56444,note_off,,,,,92,0,4,,,,,2,,,77,0
56444,note_off,,,,,188,0,7,,,,,5,,,55,0
56444,note_off,,,,,188,0,8,,,,,6,,,43,0
56448,note_on,,,,,4,0,9,,,,,7,,,48,60
56448,note_on,,,,,4,0,7,,,,,5,,,48,92
56448,note_on,,,,,4,0,1,,,,,0,,,75,92
56448,note_on,,,,,4,0,2,,,,,1,,,72,92
56448,note_on,,,,,4,0,8,,,,,6,,,36,75
56448,note_on,,,,,4,0,6,,,,,4,,,67,92
56448,note_on,,,,,4,0,3,,,,,8,,,48,92
56448,note_on,,,,,4,0,5,,,,,3,,,72,108
56448,note_on,,,,,4,0,4,,,,,2,,,75,108
56540,note_off,,,,,92,0,5,,,,,3,,,72,0
56540,note_off,,,,,92,0,1,,,,,0,,,75,0
56540,note_off,,,,,92,0,2,,,,,1,,,72,0
56540,note_off,,,,,92,0,4,,,,,2,,,75,0
56544,note_on,,,,,4,0,1,,,,,0,,,72,92
56544,note_on,,,,,4,0,2,,,,,1,,,67,92
56544,note_on,,,,,4,0,4,,,,,2,,,72,108
56544,note_on,,,,,4,0,5,,,,,3,,,67,108
56636,note_off,,,,,188,0,3,,,,,8,,,48,0
56636,note_off,,,,,92,0,2,,,,,1,,,67,0
56636,note_off,,,,,188,0,6,,,,,4,,,67,0
56636,note_off,,,,,92,0,1,,,,,0,,,72,0
56636,note_off,,,,,188,0,8,,,,,6,,,36,0
56636,note_off,,,,,92,0,5,,,,,3,,,67,0
56636,note_off,,,,,188,0,7,,,,,5,,,48,0
56636,note_off,,,,,188,0,9,,,,,7,,,48,0
56636,note_off,,,,,92,0,4,,,,,2,,,72,0
56640,note_on,,,,,4,0,5,,,,,3,,,60,108
56640,note_on,,,,,4,0,4,,,,,2,,,67,108
56640,note_on,,,,,4,0,6,,,,,4,,,63,92
56640,note_on,,,,,4,0,1,,,,,0,,,67,92
56640,note_on,,,,,4,0,9,,,,,7,,,51,60
56640,note_on,,,,,4,0,2,,,,,1,,,60,92
56640,note_on,,,,,4,0,7,,,,,5,,,51,92
56640,note_on,,,,,4,0,8,,,,,6,,,39,75
56640,note_on,,,,,4,0,3,,,,,8,,,51,92
56828,note_off,,,,,188,0,7,,,,,5,,,51,0
56828,note_off,,,,,188,0,1,,,,,0,,,67,0
56828,note_off,,,,,188,0,9,,,,,7,,,51,0
56828,note_off,,,,,188,0,5,,,,,3,,,60,0
56828,note_off,,,,,188,0,6,,,,,4,,,63,0
56828,note_off,,,,,188,0,8,,,,,6,,,39,0
56828,note_off,,,,,188,0,4,,,,,2,,,67,0
56828,note_off,,,,,188,0,3,,,,,8,,,51,0
56828,note_off,,,,,188,0,2,,,,,1,,,60,0
56832,note_on,,,,,4,0,8,,,,,6,,,41,75
56832,note_on,,,,,4,0,3,,,,,8,,,53,92
56832,note_on,,,,,4,0,9,,,,,7,,,53,60
56832,note_on,,,,,4,0,1,,,,,0,,,80,92
56832,note_on,,,,,4,0,4,,,,,2,,,80,108
56832,note_on,,,,,4,0,6,,,,,4,,,60,92
56832,note_on,,,,,4,0,7,,,,,5,,,53,92
56880,note_off,,,,,48,0,4,,,,,2,,,80,0
56880,note_on,,,,,0,0,4,,,,,2,,,82,108
56880,note_off,,,,,48,0,1,,,,,0,,,80,0
56880,note_on,,,,,0,0,1,,,,,0,,,82,92
56928,note_on,,,,,0,0,1,,,,,0,,,84,92
56928,note_on,,,,,0,0,4,,,,,2,,,84,108
56928,note_off,,,,,48,0,1,,,,,0,,,82,0
56928,note_off,,,,,48,0,4,,,,,2,,,82,0
57020,note_off,,,,,188,0,8,,,,,6,,,41,0
57020,note_off,,,,,92,0,1,,,,,0,,,84,0
57020,note_off,,,,,92,0,4,,,,,2,,,84,0
57020,note_off,,,,,188,0,3,,,,,8,,,53,0
57020,note_off,,,,,188,0,9,,,,,7,,,53,0
57020,note_off,,,,,188,0,7,,,,,5,,,53,0
57024,note_on,,,,,4,0,8,,,,,6,,,44,75
57024,note_on,,,,,4,0,1,,,,,0,,,77,92
57024,note_on,,,,,4,0,4,,,,,2,,,77,108
57024,note_on,,,,,4,0,3,,,,,8,,,56,92
57024,note_on,,,,,4,0,7,,,,,5,,,56,92
57024,note_on,,,,,4,0,9,,,,,7,,,56,60
57152,note_off,,,,,320,0,6,,,,,4,,,60,0
57212,note_off,,,,,188,0,4,,,,,2,,,77,0
57212,note_off,,,,,188,0,7,,,,,5,,,56,0
57212,note_off,,,,,188,0,9,,,,,7,,,56,0
57212,note_off,,,,,188,0,1,,,,,0,,,77,0
57212,note_off,,,,,188,0,3,,,,,8,,,56,0
57212,note_off,,,,,188,0,8,,,,,6,,,44,0
57216,note_on,,,,,4,0,8,,,,,6,,,48,75
57216,note_on,,,,,64,0,6,,,,,4,,,72,92
57216,note_on,,,,,4,0,3,,,,,8,,,60,92
57216,note_on,,,,,388,0,5,,,,,3,,,63,108
57216,note_on,,,,,388,0,2,,,,,1,,,63,92
57216,note_on,,,,,4,0,7,,,,,5,,,60,92
57216,note_on,,,,,4,0,9,,,,,7,,,60,60
57264,note_off,,,,,48,0,2,,,,,1,,,63,0
57264,note_on,,,,,0,0,2,,,,,1,,,65,92
57264,note_on,,,,,0,0,5,,,,,3,,,65,108
57264,note_off,,,,,48,0,5,,,,,3,,,63,0
57312,note_on,,,,,0,0,2,,,,,1,,,67,92
57312,note_on,,,,,0,0,5,,,,,3,,,67,108
57312,note_off,,,,,48,0,5,,,,,3,,,65,0
57312,note_off,,,,,48,0,2,,,,,1,,,65,0
57404,note_off,,,,,188,0,3,,,,,8,,,60,0
57404,note_off,,,,,92,0,5,,,,,3,,,67,0
57404,note_off,,,,,188,0,7,,,,,5,,,60,0
57404,note_off,,,,,188,0,8,,,,,6,,,48,0
57404,note_off,,,,,92,0,2,,,,,1,,,67,0
57404,note_off,,,,,188,0,9,,,,,7,,,60,0
57408,note_on,,,,,4,0,3,,,,,8,,,51,92
57408,note_on,,,,,4,0,5,,,,,3,,,60,108
57408,note_on,,,,,4,0,2,,,,,1,,,60,92
57408,note_on,,,,,4,0,9,,,,,7,,,51,60
57408,note_on,,,,,4,0,7,,,,,5,,,51,92
57408,note_on,,,,,4,0,8,,,,,6,,,39,75
57536,note_off,,,,,320,0,6,,,,,4,,,72,0
57596,note_off,,,,,188,0,3,,,,,8,,,51,0
57596,note_off,,,,,188,0,9,,,,,7,,,51,0
57596,note_off,,,,,188,0,5,,,,,3,,,60,0
57596,note_off,,,,,188,0,2,,,,,1,,,60,0
57596,note_off,,,,,188,0,7,,,,,5,,,51,0
57596,note_off,,,,,188,0,8,,,,,6,,,39,0
57600,note_on,,,,,4,0,8,,,,,6,,,43,75
57600,note_on,,,,,64,0,6,,,,,4,,,62,92
57600,note_on,,,,,4,0,7,,,,,5,,,55,92
57600,note_on,,,,,388,0,4,,,,,2,,,83,108
57600,note_on,,,,,4,0,9,,,,,7,,,55,60
57600,note_on,,,,,388,0,1,,,,,0,,,83,92
57600,note_on,,,,,4,0,3,,,,,8,,,55,92
57648,note_off,,,,,48,0,4,,,,,2,,,83,0
57648,note_on,,,,,0,0,4,,,,,2,,,84,108
57648,note_off,,,,,48,0,1,,,,,0,,,83,0
57648,note_on,,,,,0,0,1,,,,,0,,,84,92
57696,note_off,,,,,48,0,4,,,,,2,,,84,0
57696,note_on,,,,,0,0,4,,,,,2,,,86,108
57696,note_off,,,,,48,0,1,,,,,0,,,84,0
57696,note_on,,,,,0,0,1,,,,,0,,,86,92
57788,note_off,,,,,188,0,7,,,,,5,,,55,0
57788,note_off,,,,,188,0,9,,,,,7,,,55,0
57788,note_off,,,,,92,0,1,,,,,0,,,86,0
57788,note_off,,,,,188,0,3,,,,,8,,,55,0
57788,note_off,,,,,92,0,4,,,,,2,,,86,0
57788,note_off,,,,,188,0,8,,,,,6,,,43,0
57792,note_on,,,,,4,0,3,,,,,8,,,47,92
57792,note_on,,,,,4,0,7,,,,,5,,,47,92
57792,note_on,,,,,4,0,4,,,,,2,,,79,108
57792,note_on,,,,,4,0,9,,,,,7,,,47,60
57792,note_on,,,,,4,0,1,,,,,0,,,79,92
57792,note_on,,,,,4,0,8,,,,,6,,,35,75
57920,note_off,,,,,320,0,6,,,,,4,,,62,0
57980,note_off,,,,,188,0,1,,,,,0,,,79,0
57980,note_off,,,,,188,0,8,,,,,6,,,35,0
57980,note_off,,,,,188,0,9,,,,,7,,,47,0
57980,note_off,,,,,188,0,4,,,,,2,,,79,0
57980,note_off,,,,,188,0,3,,,,,8,,,47,0
57980,note_off,,,,,188,0,7,,,,,5,,,47,0
57984,note_on,,,,,4,0,3,,,,,8,,,43,92
57984,note_on,,,,,388,0,2,,,,,1,,,59,92
57984,note_on,,,,,64,0,6,,,,,4,,,50,92
57984,note_on,,,,,388,0,5,,,,,3,,,59,108
57984,note_on,,,,,4,0,7,,,,,5,,,43,92
57984,note_on,,,,,4,0,8,,,,,6,,,31,75
57984,note_on,,,,,4,0,9,,,,,7,,,43,60
58032,note_on,,,,,0,0,5,,,,,3,,,60,108
58032,note_on,,,,,0,0,2,,,,,1,,,60,92
58032,note_off,,,,,48,0,2,,,,,1,,,59,0
58032,note_off,,,,,48,0,5,,,,,3,,,59,0
58080,note_off,,,,,48,0,2,,,,,1,,,60,0
58080,note_on,,,,,0,0,5,,,,,3,,,62,108
58080,note_off,,,,,48,0,5,,,,,3,,,60,0
58080,note_on,,,,,0,0,2,,,,,1,,,62,92
58172,note_off,,,,,188,0,3,,,,,8,,,43,0
58172,note_off,,,,,92,0,2,,,,,1,,,62,0
58172,note_off,,,,,188,0,8,,,,,6,,,31,0
58172,note_off,,,,,188,0,9,,,,,7,,,43,0
58172,note_off,,,,,188,0,7,,,,,5,,,43,0
58172,note_off,,,,,92,0,5,,,,,3,,,62,0
58176,note_on,,,,,4,0,8,,,,,6,,,35,75
58176,note_on,,,,,4,0,7,,,,,5,,,47,92
58176,note_on,,,,,4,0,2,,,,,1,,,55,92
58176,note_on,,,,,4,0,5,,,,,3,,,55,108
58176,note_on,,,,,4,0,9,,,,,7,,,47,60
58176,note_on,,,,,4,0,3,,,,,8,,,47,92
58304,note_off,,,,,320,0,6,,,,,4,,,50,0
58364,note_off,,,,,188,0,3,,,,,8,,,47,0
58364,note_off,,,,,188,0,2,,,,,1,,,55,0
58364,note_off,,,,,188,0,5,,,,,3,,,55,0
58364,note_off,,,,,188,0,8,,,,,6,,,35,0
58364,note_off,,,,,188,0,7,,,,,5,,,47,0
58364,note_off,,,,,188,0,9,,,,,7,,,47,0
58368,note_on,,,,,4,0,9,,,,,7,,,48,45
58368,note_on,,,,,4,0,3,,,,,8,,,48,45
58368,note_on,,,,,388,0,1,,,,,0,,,75,45
58368,note_on,,,,,4,0,5,,,,,3,,,72,60
58368,note_on,,,,,388,0,4,,,,,2,,,75,60
58368,note_on,,,,,4,0,8,,,,,6,,,36,45
58368,note_on,,,,,4,0,7,,,,,5,,,48,45
58368,note_on,,,,,4,0,2,,,,,1,,,72,45
58368,note_on,,,,,64,0,6,,,,,4,,,67,45
58556,note_off,,,,,188,0,3,,,,,8,,,48,0
58556,note_off,,,,,188,0,5,,,,,3,,,72,0
58556,note_off,,,,,188,0,2,,,,,1,,,72,0
58556,note_off,,,,,188,0,4,,,,,2,,,75,0
58556,note_off,,,,,188,0,1,,,,,0,,,75,0
58556,note_off,,,,,188,0,9,,,,,7,,,48,0
58556,note_off,,,,,188,0,6,,,,,4,,,67,0
58556,note_off,,,,,188,0,8,,,,,6,,,36,0
58556,note_off,,,,,188,0,7,,,,,5,,,48,0
58560,note_on,,,,,4,0,9,,,,,7,,,50,45
58560,note_on,,,,,4,0,3,,,,,8,,,50,45
58560,note_on,,,,,4,0,4,,,,,2,,,75,60
58560,note_on,,,,,4,0,1,,,,,0,,,75,45
58560,note_on,,,,,4,0,8,,,,,6,,,38,45
58560,note_on,,,,,4,0,2,,,,,1,,,72,45
58560,note_on,,,,,4,0,5,,,,,3,,,72,60
58560,note_on,,,,,4,0,6,,,,,4,,,67,45
58560,note_on,,,,,4,0,7,,,,,5,,,50,45
58748,note_off,,,,,188,0,1,,,,,0,,,75,0
58748,note_off,,,,,188,0,3,,,,,8,,,50,0
58748,note_off,,,,,188,0,8,,,,,6,,,38,0
58748,note_off,,,,,188,0,9,,,,,7,,,50,0
58748,note_off,,,,,188,0,5,,,,,3,,,72,0
58748,note_off,,,,,188,0,7,,,,,5,,,50,0
58748,note_off,,,,,188,0,4,,,,,2,,,75,0
58748,note_off,,,,,188,0,2,,,,,1,,,72,0
58748,note_off,,,,,188,0,6,,,,,4,,,67,0
58752,note_on,,,,,4,0,6,,,,,4,,,67,45
58752,note_on,,,,,4,0,1,,,,,0,,,75,45
58752,note_on,,,,,4,0,7,,,,,5,,,51,45
58752,note_on,,,,,4,0,3,,,,,8,,,51,45
58752,note_on,,,,,4,0,4,,,,,2,,,75,60
58752,note_on,,,,,4,0,5,,,,,3,,,72,60
58752,note_on,,,,,4,0,8,,,,,6,,,39,45
58752,note_on,,,,,4,0,2,,,,,1,,,72,45
58752,note_on,,,,,4,0,9,,,,,7,,,51,45
58940,note_off,,,,,188,0,9,,,,,7,,,51,0
58940,note_off,,,,,188,0,4,,,,,2,,,75,0
58940,note_off,,,,,188,0,1,,,,,0,,,75,0
58940,note_off,,,,,188,0,2,,,,,1,,,72,0
58940,note_off,,,,,188,0,6,,,,,4,,,67,0
58940,note_off,,,,,188,0,3,,,,,8,,,51,0
58940,note_off,,,,,188,0,7,,,,,5,,,51,0
58940,note_off,,,,,188,0,5,,,,,3,,,72,0
58940,note_off,,,,,188,0,8,,,,,6,,,39,0
58944,note_on,,,,,4,0,2,,,,,1,,,72,45
58944,note_on,,,,,4,0,1,,,,,0,,,75,45
58944,note_on,,,,,4,0,3,,,,,8,,,48,45
58944,note_on,,,,,4,0,9,,,,,7,,,48,45
58944,note_on,,,,,4,0,5,,,,,3,,,72,60
58944,note_on,,,,,4,0,6,,,,,4,,,67,45
58944,note_on,,,,,4,0,4,,,,,2,,,75,60
58944,note_on,,,,,4,0,8,,,,,6,,,36,45
58944,note_on,,,,,4,0,7,,,,,5,,,48,45
59132,note_off,,,,,188,0,3,,,,,8,,,48,0
59132,note_off,,,,,188,0,6,,,,,4,,,67,0
59132,note_off,,,,,188,0,2,,,,,1,,,72,0
59132,note_off,,,,,188,0,8,,,,,6,,,36,0
59132,note_off,,,,,188,0,1,,,,,0,,,75,0
59132,note_off,,,,,188,0,4,,,,,2,,,75,0
59132,note_off,,,,,188,0,7,,,,,5,,,48,0
59132,note_off,,,,,188,0,9,,,,,7,,,48,0
59132,note_off,,,,,188,0,5,,,,,3,,,72,0
59136,note_on,,,,,4,0,4,,,,,2,,,74,60
59136,note_on,,,,,4,0,1,,,,,0,,,74,45
59136,note_on,,,,,4,0,8,,,,,6,,,41,45
59136,note_on,,,,,4,0,9,,,,,7,,,53,45
59136,note_on,,,,,4,0,2,,,,,1,,,72,45
59136,note_on,,,,,4,0,3,,,,,8,,,53,45
59136,note_on,,,,,4,0,7,,,,,5,,,53,45
59136,note_on,,,,,4,0,5,,,,,3,,,72,60
59136,note_on,,,,,4,0,6,,,,,4,,,68,45
59324,note_off,,,,,188,0,2,,,,,1,,,72,0
59324,note_off,,,,,188,0,3,,,,,8,,,53,0
59324,note_off,,,,,188,0,7,,,,,5,,,53,0
59324,note_off,,,,,188,0,5,,,,,3,,,72,0
59324,note_off,,,,,188,0,6,,,,,4,,,68,0
59324,note_off,,,,,188,0,8,,,,,6,,,41,0
59324,note_off,,,,,188,0,9,,,,,7,,,53,0
59324,note_off,,,,,188,0,1,,,,,0,,,74,0
59324,note_off,,,,,188,0,4,,,,,2,,,74,0
59328,note_on,,,,,4,0,6,,,,,4,,,68,45
59328,note_on,,,,,4,0,7,,,,,5,,,50,45
59328,note_on,,,,,4,0,5,,,,,3,,,72,60
59328,note_on,,,,,4,0,8,,,,,6,,,38,45
59328,note_on,,,,,4,0,9,,,,,7,,,50,45
59328,note_on,,,,,4,0,3,,,,,8,,,50,45
59328,note_on,,,,,4,0,1,,,,,0,,,74,45
59328,note_on,,,,,4,0,2,,,,,1,,,72,45
59328,note_on,,,,,4,0,4,,,,,2,,,74,60
59516,note_off,,,,,188,0,2,,,,,1,,,72,0
59516,note_off,,,,,188,0,8,,,,,6,,,38,0
59516,note_off,,,,,188,0,7,,,,,5,,,50,0
59516,note_off,,,,,188,0,3,,,,,8,,,50,0
59516,note_off,,,,,188,0,5,,,,,3,,,72,0
59516,note_off,,,,,188,0,9,,,,,7,,,50,0
59516,note_off,,,,,188,0,1,,,,,0,,,74,0
59516,note_off,,,,,188,0,6,,,,,4,,,68,0
59516,note_off,,,,,188,0,4,,,,,2,,,74,0
59520,note_on,,,,,4,0,9,,,,,7,,,55,45
59520,note_on,,,,,4,0,5,,,,,3,,,71,60
59520,note_on,,,,,4,0,4,,,,,2,,,74,60
59520,note_on,,,,,4,0,7,,,,,5,,,55,45
59520,note_on,,,,,4,0,1,,,,,0,,,74,45
59520,note_on,,,,,4,0,6,,,,,4,,,67,45
59520,note_on,,,,,4,0,8,,,,,6,,,43,45
59520,note_on,,,,,4,0,2,,,,,1,,,71,45
59520,note_on,,,,,4,0,3,,,,,8,,,55,45
59708,note_off,,,,,188,0,7,,,,,5,,,55,0
59708,note_off,,,,,188,0,4,,,,,2,,,74,0
59708,note_off,,,,,188,0,1,,,,,0,,,74,0
59708,note_off,,,,,188,0,9,,,,,7,,,55,0
59708,note_off,,,,,188,0,2,,,,,1,,,71,0
59708,note_off,,,,,188,0,5,,,,,3,,,71,0
59708,note_off,,,,,188,0,8,,,,,6,,,43,0
59708,note_off,,,,,188,0,3,,,,,8,,,55,0
59708,note_off,,,,,188,0,6,,,,,4,,,67,0
59712,note_on,,,,,4,0,2,,,,,1,,,71,45
59712,note_on,,,,,4,0,1,,,,,0,,,74,45
59712,note_on,,,,,4,0,9,,,,,7,,,43,45
59712,note_on,,,,,4,0,8,,,,,6,,,31,45
59712,note_on,,,,,4,0,3,,,,,8,,,43,45
59712,note_on,,,,,4,0,6,,,,,4,,,67,45
59712,note_on,,,,,4,0,4,,,,,2,,,74,60
59712,note_on,,,,,4,0,5,,,,,3,,,71,60
59712,note_on,,,,,4,0,7,,,,,5,,,43,45
59900,note_off,,,,,188,0,3,,,,,8,,,43,0
59900,note_off,,,,,188,0,9,,,,,7,,,43,0
59900,note_off,,,,,188,0,4,,,,,2,,,74,0
59900,note_off,,,,,188,0,1,,,,,0,,,74,0
59900,note_off,,,,,188,0,6,,,,,4,,,67,0
59900,note_off,,,,,188,0,2,,,,,1,,,71,0
59900,note_off,,,,,188,0,8,,,,,6,,,31,0
59900,note_off,,,,,188,0,5,,,,,3,,,71,0
59900,note_off,,,,,188,0,7,,,,,5,,,43,0
59904,note_on,,,,,4,0,8,,,,,6,,,50,45
59904,note_on,,,,,4,0,4,,,,,2,,,77,60
59904,note_on,,,,,4,0,7,,,,,5,,,62,45
59904,note_on,,,,,4,0,3,,,,,8,,,62,45
59904,note_on,,,,,4,0,6,,,,,4,,,71,45
59904,note_on,,,,,4,0,5,,,,,3,,,74,60
59904,note_on,,,,,4,0,1,,,,,0,,,77,45
59904,note_on,,,,,4,0,2,,,,,1,,,74,45
59904,note_on,,,,,4,0,9,,,,,7,,,62,45
60092,note_off,,,,,188,0,5,,,,,3,,,74,0
60092,note_off,,,,,188,0,4,,,,,2,,,77,0
60092,note_off,,,,,188,0,7,,,,,5,,,62,0
60092,note_off,,,,,188,0,8,,,,,6,,,50,0
60092,note_off,,,,,188,0,9,,,,,7,,,62,0
60092,note_off,,,,,188,0,3,,,,,8,,,62,0
60092,note_off,,,,,188,0,1,,,,,0,,,77,0
60092,note_off,,,,,188,0,2,,,,,1,,,74,0
60092,note_off,,,,,188,0,6,,,,,4,,,71,0
60096,note_on,,,,,4,0,8,,,,,6,,,43,45
60096,note_on,,,,,4,0,4,,,,,2,,,77,60
60096,note_on,,,,,4,0,3,,,,,8,,,55,45
60096,note_on,,,,,4,0,5,,,,,3,,,74,60
60096,note_on,,,,,4,0,6,,,,,4,,,71,45
60096,note_on,,,,,4,0,1,,,,,0,,,77,45
60096,note_on,,,,,4,0,2,,,,,1,,,74,45
60096,note_on,,,,,4,0,9,,,,,7,,,55,45
60096,note_on,,,,,4,0,7,,,,,5,,,55,45
60284,note_off,,,,,188,0,1,,,,,0,,,77,0
60284,note_off,,,,,188,0,7,,,,,5,,,55,0
60284,note_off,,,,,188,0,5,,,,,3,,,74,0
60284,note_off,,,,,188,0,6,,,,,4,,,71,0
60284,note_off,,,,,188,0,3,,,,,8,,,55,0
60284,note_off,,,,,188,0,2,,,,,1,,,74,0
60284,note_off,,,,,188,0,8,,,,,6,,,43,0
60284,note_off,,,,,188,0,9,,,,,7,,,55,0
60284,note_off,,,,,188,0,4,,,,,2,,,77,0
60288,note_on,,,,,4,0,3,,,,,8,,,59,45
60288,note_on,,,,,4,0,2,,,,,1,,,74,45
60288,note_on,,,,,4,0,1,,,,,0,,,77,45
60288,note_on,,,,,4,0,7,,,,,5,,,59,45
60288,note_on,,,,,4,0,8,,,,,6,,,47,45
60288,note_on,,,,,4,0,4,,,,,2,,,77,60
60288,note_on,,,,,4,0,5,,,,,3,,,74,60
60288,note_on,,,,,4,0,9,,,,,7,,,59,45
60288,note_on,,,,,4,0,6,,,,,4,,,71,45
60476,note_off,,,,,188,0,1,,,,,0,,,77,0
60476,note_off,,,,,188,0,5,,,,,3,,,74,0
60476,note_off,,,,,188,0,3,,,,,8,,,59,0
60476,note_off,,,,,188,0,8,,,,,6,,,47,0
60476,note_off,,,,,188,0,6,,,,,4,,,71,0
60476,note_off,,,,,188,0,4,,,,,2,,,77,0
60476,note_off,,,,,188,0,7,,,,,5,,,59,0
60476,note_off,,,,,188,0,9,,,,,7,,,59,0
60476,note_off,,,,,188,0,2,,,,,1,,,74,0
60480,note_on,,,,,4,0,4,,,,,2,,,77,60
60480,note_on,,,,,4,0,8,,,,,6,,,43,45
60480,note_on,,,,,4,0,6,,,,,4,,,71,45
60480,note_on,,,,,4,0,5,,,,,3,,,74,60
60480,note_on,,,,,4,0,9,,,,,7,,,55,45
60480,note_on,,,,,4,0,2,,,,,1,,,74,45
60480,note_on,,,,,4,0,1,,,,,0,,,77,45
60480,note_on,,,,,4,0,7,,,,,5,,,55,45
60480,note_on,,,,,4,0,3,,,,,8,,,55,45
60668,note_off,,,,,188,0,6,,,,,4,,,71,0
60668,note_off,,,,,188,0,1,,,,,0,,,77,0
60668,note_off,,,,,188,0,7,,,,,5,,,55,0
60668,note_off,,,,,188,0,2,,,,,1,,,74,0
60668,note_off,,,,,188,0,5,,,,,3,,,74,0
60668,note_off,,,,,188,0,4,,,,,2,,,77,0
60668,note_off,,,,,188,0,3,,,,,8,,,55,0
60668,note_off,,,,,188,0,9,,,,,7,,,55,0
60668,note_off,,,,,188,0,8,,,,,6,,,43,0
60672,note_on,,,,,4,0,2,,,,,1,,,74,45
60672,note_on,,,,,4,0,7,,,,,5,,,60,45
60672,note_on,,,,,4,0,5,,,,,3,,,74,60
60672,note_on,,,,,4,0,3,,,,,8,,,60,45
60672,note_on,,,,,4,0,1,,,,,0,,,77,45
60672,note_on,,,,,4,0,8,,,,,6,,,48,45
60672,note_on,,,,,4,0,6,,,,,4,,,67,45
60672,note_on,,,,,4,0,4,,,,,2,,,77,60
60672,note_on,,,,,4,0,9,,,,,7,,,60,45
60860,note_off,,,,,188,0,7,,,,,5,,,60,0
60860,note_off,,,,,188,0,9,,,,,7,,,60,0
60860,note_off,,,,,188,0,3,,,,,8,,,60,0
60860,note_off,,,,,188,0,4,,,,,2,,,77,0
60860,note_off,,,,,188,0,5,,,,,3,,,74,0
60860,note_off,,,,,188,0,6,,,,,4,,,67,0
60860,note_off,,,,,188,0,1,,,,,0,,,77,0
60860,note_off,,,,,188,0,2,,,,,1,,,74,0
60860,note_off,,,,,188,0,8,,,,,6,,,48,0
60864,note_on,,,,,4,0,9,,,,,7,,,48,45
60864,note_on,,,,,4,0,8,,,,,6,,,36,45
60864,note_on,,,,,4,0,4,,,,,2,,,75,60
60864,note_on,,,,,4,0,1,,,,,0,,,75,45
60864,note_on,,,,,4,0,6,,,,,4,,,67,45
60864,note_on,,,,,4,0,5,,,,,3,,,72,60
60864,note_on,,,,,4,0,3,,,,,8,,,48,45
60864,note_on,,,,,4,0,2,,,,,1,,,72,45
60864,note_on,,,,,4,0,7,,,,,5,,,48,45
61052,note_off,,,,,188,0,8,,,,,6,,,36,0
61052,note_off,,,,,188,0,5,,,,,3,,,72,0
61052,note_off,,,,,188,0,1,,,,,0,,,75,0
61052,note_off,,,,,188,0,7,,,,,5,,,48,0
61052,note_off,,,,,188,0,9,,,,,7,,,48,0
61052,note_off,,,,,188,0,6,,,,,4,,,67,0
61052,note_off,,,,,188,0,2,,,,,1,,,72,0
61052,note_off,,,,,188,0,4,,,,,2,,,75,0
61052,note_off,,,,,188,0,3,,,,,8,,,48,0
61056,note_on,,,,,4,0,9,,,,,7,,,51,45
61056,note_on,,,,,4,0,5,,,,,3,,,72,60
61056,note_on,,,,,4,0,2,,,,,1,,,72,45
61056,note_on,,,,,4,0,4,,,,,2,,,75,60
61056,note_on,,,,,4,0,8,,,,,6,,,39,45
61056,note_on,,,,,4,0,1,,,,,0,,,75,45
61056,note_on,,,,,4,0,7,,,,,5,,,51,45
61056,note_on,,,,,4,0,6,,,,,4,,,67,45
61056,note_on,,,,,4,0,3,,,,,8,,,51,45
61244,note_off,,,,,188,0,4,,,,,2,,,75,0
61244,note_off,,,,,188,0,7,,,,,5,,,51,0
61244,note_off,,,,,188,0,2,,,,,1,,,72,0
61244,note_off,,,,,188,0,9,,,,,7,,,51,0
61244,note_off,,,,,188,0,1,,,,,0,,,75,0
61244,note_off,,,,,188,0,6,,,,,4,,,67,0
61244,note_off,,,,,188,0,3,,,,,8,,,51,0
61244,note_off,,,,,188,0,5,,,,,3,,,72,0
61244,note_off,,,,,188,0,8,,,,,6,,,39,0
61248,note_on,,,,,4,0,5,,,,,3,,,72,60
61248,note_on,,,,,4,0,6,,,,,4,,,67,45
61248,note_on,,,,,4,0,8,,,,,6,,,36,45
61248,note_on,,,,,4,0,1,,,,,0,,,75,45
61248,note_on,,,,,4,0,4,,,,,2,,,75,60
61248,note_on,,,,,4,0,7,,,,,5,,,48,45
61248,note_on,,,,,4,0,3,,,,,8,,,48,45
61248,note_on,,,,,4,0,9,,,,,7,,,48,45
61248,note_on,,,,,4,0,2,,,,,1,,,72,45
61436,note_off,,,,,188,0,8,,,,,6,,,36,0
61436,note_off,,,,,188,0,7,,,,,5,,,48,0
61436,note_off,,,,,188,0,1,,,,,0,,,75,0
61436,note_off,,,,,188,0,9,,,,,7,,,48,0
61436,note_off,,,,,188,0,3,,,,,8,,,48,0
61436,note_off,,,,,188,0,6,,,,,4,,,67,0
61436,note_off,,,,,188,0,5,,,,,3,,,72,0
61436,note_off,,,,,188,0,2,,,,,1,,,72,0
61436,note_off,,,,,188,0,4,,,,,2,,,75,0
61440,note_on,,,,,4,0,1,,,,,0,,,80,127
61440,note_on,,,,,4,0,5,,,,,3,,,72,127
61440,note_on,,,,,4,0,9,,,,,7,,,53,60
61440,note_on,,,,,4,0,2,,,,,1,,,72,127
61440,note_on,,,,,4,0,8,,,,,6,,,41,105
61440,note_on,,,,,4,0,6,,,,,4,,,65,127
61440,note_on,,,,,4,0,3,,,,,8,,,53,127
61440,note_on,,,,,4,0,7,,,,,5,,,53,127
61440,note_on,,,,,4,0,4,,,,,2,,,80,127
61628,note_off,,,,,188,0,1,,,,,0,,,80,0
61628,note_off,,,,,188,0,4,,,,,2,,,80,0
61728,note_on,,,,,100,0,1,,,,,0,,,79,92
61728,note_on,,,,,100,0,4,,,,,2,,,79,108
61760,note_off,,,,,320,0,9,,,,,7,,,53,0
61760,note_off,,,,,320,0,2,,,,,1,,,72,0
61760,note_off,,,,,320,0,3,,,,,8,,,53,0
61760,note_off,,,,,320,0,7,,,,,5,,,53,0
61760,note_off,,,,,320,0,8,,,,,6,,,41,0
61760,note_off,,,,,320,0,6,,,,,4,,,65,0
61760,note_off,,,,,320,0,5,,,,,3,,,72,0
61820,note_off,,,,,92,0,1,,,,,0,,,79,0
61820,note_off,,,,,92,0,4,,,,,2,,,79,0
61824,note_on,,,,,4,0,1,,,,,0,,,77,92
61824,note_on,,,,,4,0,4,,,,,2,,,77,108
61916,note_off,,,,,92,0,1,,,,,0,,,77,0
61916,note_off,,,,,92,0,4,,,,,2,,,77,0
61920,note_on,,,,,4,0,1,,,,,0,,,75,92
61920,note_on,,,,,4,0,4,,,,,2,,,75,108
62012,note_off,,,,,92,0,4,,,,,2,,,75,0
62012,note_off,,,,,92,0,1,,,,,0,,,75,0
62016,note_on,,,,,256,0,2,,,,,1,,,65,92
62016,note_on,,,,,256,0,5,,,,,3,,,65,108
62016,note_on,,,,,4,0,4,,,,,2,,,74,108
62016,note_on,,,,,256,0,8,,,,,6,,,44,75
62016,note_on,,,,,256,0,9,,,,,7,,,56,60
62016,note_on,,,,,256,0,3,,,,,8,,,56,92
62016,note_on,,,,,256,0,6,,,,,4,,,65,92
62016,note_on,,,,,256,0,7,,,,,5,,,56,92
62016,note_on,,,,,4,0,1,,,,,0,,,74,92
62108,note_off,,,,,92,0,4,,,,,2,,,74,0
62108,note_off,,,,,92,0,1,,,,,0,,,74,0
62112,note_on,,,,,4,0,4,,,,,2,,,72,108
62112,note_on,,,,,4,0,1,,,,,0,,,72,92
62204,note_off,,,,,188,0,5,,,,,3,,,65,0
62204,note_off,,,,,188,0,8,,,,,6,,,44,0
62204,note_off,,,,,92,0,1,,,,,0,,,72,0
62204,note_off,,,,,188,0,2,,,,,1,,,65,0
62204,note_off,,,,,188,0,9,,,,,7,,,56,0
62204,note_off,,,,,92,0,4,,,,,2,,,72,0
62204,note_off,,,,,188,0,3,,,,,8,,,56,0
62204,note_off,,,,,188,0,7,,,,,5,,,56,0
62204,note_off,,,,,188,0,6,,,,,4,,,65,0
62208,note_on,,,,,4,0,8,,,,,6,,,43,75
62208,note_on,,,,,4,0,7,,,,,5,,,55,92
62208,note_on,,,,,4,0,5,,,,,3,,,67,108
62208,note_on,,,,,4,0,2,,,,,1,,,67,92
62208,note_on,,,,,4,0,4,,,,,2,,,71,108
62208,note_on,,,,,4,0,3,,,,,8,,,55,92
62208,note_on,,,,,4,0,6,,,,,4,,,62,92
62208,note_on,,,,,4,0,1,,,,,0,,,71,92
62208,note_on,,,,,4,0,9,,,,,7,,,55,60
62396,note_off,,,,,188,0,9,,,,,7,,,55,0
62396,note_off,,,,,188,0,3,,,,,8,,,55,0
62396,note_off,,,,,188,0,6,,,,,4,,,62,0
62396,note_off,,,,,188,0,8,,,,,6,,,43,0
62396,note_off,,,,,188,0,7,,,,,5,,,55,0
62396,note_off,,,,,188,0,5,,,,,3,,,67,0
62396,note_off,,,,,188,0,2,,,,,1,,,67,0
62396,note_off,,,,,188,0,4,,,,,2,,,71,0
62396,note_off,,,,,188,0,1,,,,,0,,,71,0
62400,note_on,,,,,4,0,2,,,,,1,,,71,92
62400,note_on,,,,,4,0,6,,,,,4,,,62,92
62400,note_on,,,,,4,0,8,,,,,6,,,41,75
62400,note_on,,,,,4,0,1,,,,,0,,,80,92
62400,note_on,,,,,4,0,9,,,,,7,,,53,60
62400,note_on,,,,,4,0,3,,,,,8,,,53,92
62400,note_on,,,,,4,0,5,,,,,3,,,71,108
62400,note_on,,,,,4,0,4,,,,,2,,,80,108
62400,note_on,,,,,4,0,7,,,,,5,,,53,92
62588,note_off,,,,,188,0,3,,,,,8,,,53,0
62588,note_off,,,,,188,0,1,,,,,0,,,80,0
62588,note_off,,,,,188,0,4,,,,,2,,,80,0
62588,note_off,,,,,188,0,8,,,,,6,,,41,0
62588,note_off,,,,,188,0,5,,,,,3,,,71,0
62588,note_off,,,,,188,0,9,,,,,7,,,53,0
62588,note_off,,,,,188,0,6,,,,,4,,,62,0
62588,note_off,,,,,188,0,7,,,,,5,,,53,0
62588,note_off,,,,,188,0,2,,,,,1,,,71,0
62592,note_on,,,,,4,0,5,,,,,3,,,72,108
62592,note_on,,,,,4,0,6,,,,,4,,,63,92
62592,note_on,,,,,4,0,8,,,,,6,,,39,75
62592,note_on,,,,,4,0,1,,,,,0,,,79,92
62592,note_on,,,,,4,0,7,,,,,5,,,51,92
62592,note_on,,,,,4,0,2,,,,,1,,,72,92
62592,note_on,,,,,4,0,4,,,,,2,,,79,108
62592,note_on,,,,,4,0,3,,,,,8,,,51,92
62592,note_on,,,,,4,0,9,,,,,7,,,51,60
62780,note_off,,,,,188,0,4,,,,,2,,,79,0
62780,note_off,,,,,188,0,8,,,,,6,,,39,0
62780,note_off,,,,,188,0,9,,,,,7,,,51,0
62780,note_off,,,,,188,0,3,,,,,8,,,51,0
62780,note_off,,,,,188,0,1,,,,,0,,,79,0
62780,note_off,,,,,188,0,2,,,,,1,,,72,0
62780,note_off,,,,,188,0,6,,,,,4,,,63,0
62780,note_off,,,,,188,0,5,,,,,3,,,72,0
62780,note_off,,,,,188,0,7,,,,,5,,,51,0
62784,note_on,,,,,4,0,4,,,,,2,,,77,108
62784,note_on,,,,,4,0,8,,,,,6,,,41,75
62784,note_on,,,,,4,0,9,,,,,7,,,53,60
62784,note_on,,,,,4,0,2,,,,,1,,,72,92
62784,note_on,,,,,4,0,6,,,,,4,,,68,92
62784,note_on,,,,,4,0,5,,,,,3,,,72,108
62784,note_on,,,,,4,0,3,,,,,8,,,53,92
62784,note_on,,,,,4,0,7,,,,,5,,,53,92
62784,note_on,,,,,4,0,1,,,,,0,,,77,92
62972,note_off,,,,,188,0,7,,,,,5,,,53,0
62972,note_off,,,,,188,0,1,,,,,0,,,77,0
62972,note_off,,,,,188,0,3,,,,,8,,,53,0
62972,note_off,,,,,188,0,9,,,,,7,,,53,0
62972,note_off,,,,,188,0,2,,,,,1,,,72,0
62972,note_off,,,,,188,0,5,,,,,3,,,72,0
62972,note_off,,,,,188,0,4,,,,,2,,,77,0
62972,note_off,,,,,188,0,6,,,,,4,,,68,0
62972,note_off,,,,,188,0,8,,,,,6,,,41,0
62976,note_on,,,,,4,0,6,,,,,4,,,67,92
62976,note_on,,,,,4,0,7,,,,,5,,,55,92
62976,note_on,,,,,4,0,9,,,,,7,,,55,60
62976,note_on,,,,,4,0,1,,,,,0,,,75,92
62976,note_on,,,,,4,0,5,,,,,3,,,72,108
62976,note_on,,,,,4,0,3,,,,,8,,,55,92
62976,note_on,,,,,4,0,2,,,,,1,,,72,92
62976,note_on,,,,,4,0,4,,,,,2,,,75,108
62976,note_on,,,,,4,0,8,,,,,6,,,43,75
63260,note_off,,,,,284,0,1,,,,,0,,,75,0
63260,note_off,,,,,284,0,4,,,,,2,,,75,0
63264,note_on,,,,,4,0,1,,,,,0,,,74,92
63264,note_on,,,,,4,0,4,,,,,2,,,74,108
63296,note_off,,,,,320,0,8,,,,,6,,,43,0
63296,note_off,,,,,320,0,2,,,,,1,,,72,0
63296,note_off,,,,,320,0,7,,,,,5,,,55,0
63296,note_off,,,,,320,0,6,,,,,4,,,67,0
63296,note_off,,,,,320,0,9,,,,,7,,,55,0
63296,note_off,,,,,320,0,3,,,,,8,,,55,0
63296,note_off,,,,,320,0,5,,,,,3,,,72,0
63356,note_off,,,,,92,0,4,,,,,2,,,74,0
63356,note_off,,,,,92,0,1,,,,,0,,,74,0
63360,note_on,,,,,4,0,4,,,,,2,,,74,108
63360,note_on,,,,,64,0,2,,,,,1,,,71,92
63360,note_on,,,,,64,0,3,,,,,8,,,43,92
63360,note_on,,,,,64,0,7,,,,,5,,,43,92
63360,note_on,,,,,4,0,1,,,,,0,,,74,92
63360,note_on,,,,,64,0,6,,,,,4,,,65,92
63360,note_on,,,,,64,0,8,,,,,6,,,31,75
63360,note_on,,,,,64,0,9,,,,,7,,,43,60
63360,note_on,,,,,64,0,5,,,,,3,,,71,108
63644,note_off,,,,,284,0,4,,,,,2,,,74,0
63644,note_off,,,,,284,0,1,,,,,0,,,74,0
63648,note_on,,,,,4,0,4,,,,,2,,,72,108
63648,note_on,,,,,4,0,1,,,,,0,,,72,92
63680,note_off,,,,,320,0,9,,,,,7,,,43,0
63680,note_off,,,,,320,0,6,,,,,4,,,65,0
63680,note_off,,,,,320,0,3,,,,,8,,,43,0
63680,note_off,,,,,320,0,7,,,,,5,,,43,0
63680,note_off,,,,,320,0,8,,,,,6,,,31,0
63680,note_off,,,,,320,0,5,,,,,3,,,71,0
63680,note_off,,,,,320,0,2,,,,,1,,,71,0
63740,note_off,,,,,92,0,1,,,,,0,,,72,0
63740,note_off,,,,,92,0,4,,,,,2,,,72,0
63744,note_on,,,,,4,0,4,,,,,2,,,72,108
63744,note_on,,,,,4,0,1,,,,,0,,,72,92
63744,note_on,,,,,64,0,6,,,,,4,,,63,92
63744,note_on,,,,,64,0,2,,,,,1,,,72,92
63744,note_on,,,,,64,0,5,,,,,3,,,72,108
63744,note_on,,,,,64,0,7,,,,,5,,,48,92
63744,note_on,,,,,64,0,3,,,,,8,,,48,92
63744,note_on,,,,,64,0,8,,,,,6,,,36,75
63744,note_on,,,,,64,0,9,,,,,7,,,48,60
64416,note_off,,,,,672,0,4,,,,,2,,,72,0
64416,note_off,,,,,672,0,1,,,,,0,,,72,0
64416,end_of_track,,,,,0,1,1,,,,,,,,,
64416,end_of_track,,,,,0,1,4,,,,,,,,,
64416,note_off,,,,,672,0,6,,,,,4,,,63,0
64416,end_of_track,,,,,0,1,6,,,,,,,,,
64416,note_off,,,,,672,0,8,,,,,6,,,36,0
64416,note_off,,,,,672,0,2,,,,,1,,,72,0
64416,note_off,,,,,672,0,9,,,,,7,,,48,0
64416,note_off,,,,,672,0,5,,,,,3,,,72,0
64416,end_of_track,,,,,0,1,8,,,,,,,,,
64416,end_of_track,,,,,0,1,3,,,,,,,,,
64416,note_off,,,,,672,0,3,,,,,8,,,48,0
64416,note_off,,,,,672,0,7,,,,,5,,,48,0
64416,end_of_track,,,,,0,1,7,,,,,,,,,
64416,end_of_track,,,,,0,1,9,,,,,,,,,
64416,end_of_track,,,,,0,1,5,,,,,,,,,
64416,end_of_track,,,,,0,1,2,,,,,,,,,
