tick,type,numerator,denominator,clocks_per_click,notated_32nd_notes_per_beat,time,meta,track,data,tempo,control,value,channel,program,key,note,velocity
0,time_signature,4,4,96,8,0,1,0,,,,,,,,,
0,control_change,,,,,0,0,5,,,10,109,3,,,,
0,control_change,,,,,0,0,5,,,7,127,3,,,,
0,program_change,,,,,0,0,5,,,,,3,48,,,
0,key_signature,,,,,0,1,5,,,,,,,D,,
0,key_signature,,,,,0,1,16,,,,,,,C,,
0,track_name,,,,,0,1,6,,,,,,,,,
0,control_change,,,,,0,0,5,,,0,0,3,,,,
0,control_change,,,,,0,0,6,,,0,0,4,,,,
0,control_change,,,,,0,0,6,,,7,127,4,,,,
0,program_change,,,,,0,0,6,,,,,4,41,,,
0,key_signature,,,,,0,1,6,,,,,,,D,,
0,track_name,,,,,0,1,7,,,,,,,,,
0,control_change,,,,,0,0,7,,,0,0,5,,,,
0,control_change,,,,,0,0,7,,,10,63,5,,,,
0,control_change,,,,,0,0,6,,,10,109,4,,,,
0,track_name,,,,,0,1,5,,,,,,,,,
0,note_on,,,,,0,0,4,,,,,2,,,71,108
0,key_signature,,,,,0,1,4,,,,,,,D,,
0,control_change,,,,,0,0,2,,,10,105,1,,,,
0,control_change,,,,,0,0,2,,,7,127,1,,,,
0,program_change,,,,,0,0,2,,,,,1,40,,,
0,key_signature,,,,,0,1,2,,,,,,,D,,
0,track_name,,,,,0,1,3,,,,,,,,,
0,control_change,,,,,0,0,3,,,0,0,8,,,,
0,control_change,,,,,0,0,3,,,10,21,8,,,,
0,control_change,,,,,0,0,3,,,7,127,8,,,,
0,program_change,,,,,0,0,3,,,,,8,42,,,
0,key_signature,,,,,0,1,3,,,,,,,D,,
0,track_name,,,,,0,1,4,,,,,,,,,
0,control_change,,,,,0,0,4,,,0,0,2,,,,
0,control_change,,,,,0,0,4,,,10,24,2,,,,
0,control_change,,,,,0,0,4,,,7,127,2,,,,
0,program_change,,,,,0,0,4,,,,,2,48,,,
0,control_change,,,,,0,0,7,,,7,127,5,,,,
0,control_change,,,,,0,0,2,,,0,0,1,,,,
0,program_change,,,,,0,0,7,,,,,5,42,,,
0,track_name,,,,,0,1,8,,,,,,,,,
0,end_of_track,,,,,0,1,11,,,,,,,,,
0,track_name,,,,,0,1,12,,,,,,,,,
0,key_signature,,,,,0,1,12,,,,,,,C,,
0,end_of_track,,,,,0,1,12,,,,,,,,,
0,track_name,,,,,0,1,13,,,,,,,,,
0,key_signature,,,,,0,1,13,,,,,,,C,,
0,key_signature,,,,,0,1,11,,,,,,,C,,
0,end_of_track,,,,,0,1,13,,,,,,,,,
0,key_signature,,,,,0,1,14,,,,,,,C,,
0,end_of_track,,,,,0,1,14,,,,,,,,,
0,track_name,,,,,0,1,15,,,,,,,,,
0,key_signature,,,,,0,1,15,,,,,,,C,,
0,end_of_track,,,,,0,1,15,,,,,,,,,
0,track_name,,,,,0,1,16,,,,,,,,,
0,track_name,,,,,0,1,14,,,,,,,,,
0,track_name,,,,,0,1,11,,,,,,,,,
0,key_signature,,,,,0,1,10,,,,,,,D,,
0,program_change,,,,,0,0,10,,,,,7,6,,,
0,control_change,,,,,0,0,8,,,0,0,6,,,,
0,control_change,,,,,0,0,8,,,10,64,6,,,,
0,control_change,,,,,0,0,8,,,7,127,6,,,,
0,program_change,,,,,0,0,8,,,,,6,43,,,
0,key_signature,,,,,0,1,8,,,,,,,D,,
0,track_name,,,,,0,1,9,,,,,,,,,
0,control_change,,,,,0,0,9,,,0,0,7,,,,
0,control_change,,,,,0,0,9,,,10,63,7,,,,
0,control_change,,,,,0,0,9,,,7,127,7,,,,
0,program_change,,,,,0,0,9,,,,,7,6,,,
0,key_signature,,,,,0,1,9,,,,,,,D,,
0,track_name,,,,,0,1,10,,,,,,,,,
0,control_change,,,,,0,0,10,,,0,0,7,,,,
0,control_change,,,,,0,0,10,,,10,63,7,,,,
0,control_change,,,,,0,0,10,,,7,127,7,,,,
0,key_signature,,,,,0,1,7,,,,,,,D,,
0,track_name,,,,,0,1,2,,,,,,,,,
0,end_of_track,,,,,0,1,16,,,,,,,,,
0,sequencer_specific,,,,,0,1,0,"(0, 0, 65)",,,,,,,,
0,control_change,,,,,0,0,1,,,0,0,0,,,,
0,control_change,,,,,0,0,1,,,10,24,0,,,,
0,control_change,,,,,0,0,1,,,7,127,0,,,,
0,track_name,,,,,0,1,1,,,,,,,,,
0,program_change,,,,,0,0,1,,,,,0,40,,,
0,key_signature,,,,,0,1,1,,,,,,,D,,
0,note_on,,,,,0,0,1,,,,,0,,,71,90
0,set_tempo,,,,,0,1,0,,545454,,,,,,,
284,note_off,,,,,284,0,1,,,,,0,,,71,0
284,note_off,,,,,284,0,4,,,,,2,,,71,0
288,note_on,,,,,4,0,1,,,,,0,,,71,90
288,note_on,,,,,4,0,4,,,,,2,,,71,108
380,note_off,,,,,92,0,1,,,,,0,,,71,0
380,note_off,,,,,92,0,4,,,,,2,,,71,0
384,note_on,,,,,4,0,1,,,,,0,,,73,90
384,note_on,,,,,4,0,4,,,,,2,,,73,108
668,note_off,,,,,284,0,1,,,,,0,,,73,0
668,note_off,,,,,284,0,4,,,,,2,,,73,0
672,note_on,,,,,4,0,4,,,,,2,,,73,108
672,note_on,,,,,4,0,1,,,,,0,,,73,90
764,note_off,,,,,92,0,4,,,,,2,,,73,0
764,note_off,,,,,92,0,1,,,,,0,,,73,0
768,note_on,,,,,4,0,4,,,,,2,,,74,108
768,note_on,,,,,4,0,1,,,,,0,,,74,90
1052,note_off,,,,,284,0,1,,,,,0,,,74,0
1052,note_off,,,,,284,0,4,,,,,2,,,74,0
1056,note_on,,,,,4,0,4,,,,,2,,,78,108
1056,note_on,,,,,4,0,1,,,,,0,,,78,90
1148,note_off,,,,,92,0,4,,,,,2,,,78,0
1148,note_off,,,,,92,0,1,,,,,0,,,78,0
1152,note_on,,,,,4,0,4,,,,,2,,,71,108
1152,note_on,,,,,4,0,1,,,,,0,,,71,90
1436,note_off,,,,,284,0,4,,,,,2,,,71,0
1436,note_off,,,,,284,0,1,,,,,0,,,71,0
1440,note_on,,,,,4,0,4,,,,,2,,,71,108
1440,note_on,,,,,4,0,1,,,,,0,,,71,90
1532,note_off,,,,,92,0,4,,,,,2,,,71,0
1532,note_off,,,,,92,0,1,,,,,0,,,71,0
1536,note_on,,,,,4,0,1,,,,,0,,,73,90
1536,note_on,,,,,4,0,4,,,,,2,,,73,108
1820,note_off,,,,,284,0,1,,,,,0,,,73,0
1820,note_off,,,,,284,0,4,,,,,2,,,73,0
1824,note_on,,,,,4,0,1,,,,,0,,,73,90
1824,note_on,,,,,4,0,4,,,,,2,,,73,108
1916,note_off,,,,,92,0,1,,,,,0,,,73,0
1916,note_off,,,,,92,0,4,,,,,2,,,73,0
1920,note_on,,,,,4,0,1,,,,,0,,,74,90
1920,note_on,,,,,4,0,4,,,,,2,,,74,108
2204,note_off,,,,,284,0,4,,,,,2,,,74,0
2204,note_off,,,,,284,0,1,,,,,0,,,74,0
2208,note_on,,,,,4,0,4,,,,,2,,,74,108
2208,note_on,,,,,4,0,1,,,,,0,,,74,90
2300,note_off,,,,,92,0,1,,,,,0,,,74,0
2300,note_off,,,,,92,0,4,,,,,2,,,74,0
2304,note_on,,,,,4,0,1,,,,,0,,,76,90
2304,note_on,,,,,4,0,4,,,,,2,,,76,108
2588,note_off,,,,,284,0,1,,,,,0,,,76,0
2588,note_off,,,,,284,0,4,,,,,2,,,76,0
2592,note_on,,,,,4,0,4,,,,,2,,,79,108
2592,note_on,,,,,4,0,1,,,,,0,,,79,90
2684,note_off,,,,,92,0,4,,,,,2,,,79,0
2684,note_off,,,,,92,0,1,,,,,0,,,79,0
2688,note_on,,,,,4,0,1,,,,,0,,,73,90
2688,note_on,,,,,4,0,4,,,,,2,,,73,108
2972,note_off,,,,,284,0,4,,,,,2,,,73,0
2972,note_off,,,,,284,0,1,,,,,0,,,73,0
2976,note_on,,,,,4,0,1,,,,,0,,,76,90
2976,note_on,,,,,4,0,4,,,,,2,,,76,108
3068,note_off,,,,,92,0,4,,,,,2,,,76,0
3068,note_off,,,,,92,0,1,,,,,0,,,76,0
3072,note_on,,,,,4,0,4,,,,,2,,,70,108
3072,note_on,,,,,4,0,1,,,,,0,,,70,90
3356,note_off,,,,,284,0,1,,,,,0,,,70,0
3356,note_off,,,,,284,0,4,,,,,2,,,70,0
3360,note_on,,,,,4,0,4,,,,,2,,,73,108
3360,note_on,,,,,4,0,1,,,,,0,,,73,90
3452,note_off,,,,,92,0,1,,,,,0,,,73,0
3452,note_off,,,,,92,0,4,,,,,2,,,73,0
3456,note_on,,,,,4,0,4,,,,,2,,,66,108
3456,note_on,,,,,4,0,1,,,,,0,,,66,90
3740,note_off,,,,,284,0,4,,,,,2,,,66,0
3740,note_off,,,,,284,0,1,,,,,0,,,66,0
3744,note_on,,,,,4,0,4,,,,,2,,,70,108
3744,note_on,,,,,4,0,1,,,,,0,,,70,90
3836,note_off,,,,,92,0,1,,,,,0,,,70,0
3836,note_off,,,,,92,0,4,,,,,2,,,70,0
3840,note_on,,,,,4,0,4,,,,,2,,,71,108
3840,note_on,,,,,4,0,1,,,,,0,,,71,90
4124,note_off,,,,,284,0,1,,,,,0,,,71,0
4124,note_off,,,,,284,0,4,,,,,2,,,71,0
4128,note_on,,,,,4,0,1,,,,,0,,,73,90
4128,note_on,,,,,4,0,4,,,,,2,,,73,108
4220,note_off,,,,,92,0,1,,,,,0,,,73,0
4220,note_off,,,,,92,0,4,,,,,2,,,73,0
4224,note_on,,,,,4,0,4,,,,,2,,,74,108
4224,note_on,,,,,4,0,1,,,,,0,,,74,90
4508,note_off,,,,,284,0,1,,,,,0,,,74,0
4508,note_off,,,,,284,0,4,,,,,2,,,74,0
4512,note_on,,,,,4,0,4,,,,,2,,,76,108
4512,note_on,,,,,4,0,1,,,,,0,,,76,90
4604,note_off,,,,,92,0,4,,,,,2,,,76,0
4604,note_off,,,,,92,0,1,,,,,0,,,76,0
4608,note_on,,,,,4,0,1,,,,,0,,,78,90
4608,note_on,,,,,4,0,4,,,,,2,,,78,108
4892,note_off,,,,,284,0,4,,,,,2,,,78,0
4892,note_off,,,,,284,0,1,,,,,0,,,78,0
4896,note_on,,,,,4,0,1,,,,,0,,,73,90
4896,note_on,,,,,4,0,4,,,,,2,,,73,108
4988,note_off,,,,,92,0,1,,,,,0,,,73,0
4988,note_off,,,,,92,0,4,,,,,2,,,73,0
4992,note_on,,,,,4,0,1,,,,,0,,,78,90
4992,note_on,,,,,4,0,4,,,,,2,,,78,108
5276,note_off,,,,,284,0,1,,,,,0,,,78,0
5276,note_off,,,,,284,0,4,,,,,2,,,78,0
5280,note_on,,,,,4,0,4,,,,,2,,,76,108
5280,note_on,,,,,4,0,1,,,,,0,,,76,90
5372,note_off,,,,,92,0,1,,,,,0,,,76,0
5372,note_off,,,,,92,0,4,,,,,2,,,76,0
5376,note_on,,,,,4,0,1,,,,,0,,,74,90
5376,note_on,,,,,4,0,4,,,,,2,,,74,108
5660,note_off,,,,,284,0,1,,,,,0,,,74,0
5660,note_off,,,,,284,0,4,,,,,2,,,74,0
5664,note_on,,,,,4,0,1,,,,,0,,,73,90
5664,note_on,,,,,4,0,4,,,,,2,,,73,108
5756,note_off,,,,,92,0,1,,,,,0,,,73,0
5756,note_off,,,,,92,0,4,,,,,2,,,73,0
5760,note_on,,,,,4,0,1,,,,,0,,,71,90
5760,note_on,,,,,4,0,4,,,,,2,,,71,108
6044,note_off,,,,,284,0,1,,,,,0,,,71,0
6044,note_off,,,,,284,0,4,,,,,2,,,71,0
6048,note_on,,,,,4,0,4,,,,,2,,,83,108
6048,note_on,,,,,4,0,1,,,,,0,,,83,90
6140,note_off,,,,,92,0,4,,,,,2,,,83,0
6140,note_off,,,,,92,0,1,,,,,0,,,83,0
6144,note_on,,,,,4,0,1,,,,,0,,,81,90
6144,note_on,,,,,6144,0,2,,,,,1,,,66,90
6144,note_on,,,,,4,0,4,,,,,2,,,81,108
6144,note_on,,,,,6144,0,5,,,,,3,,,66,108
6428,note_off,,,,,284,0,4,,,,,2,,,81,0
6428,note_off,,,,,284,0,2,,,,,1,,,66,0
6428,note_off,,,,,284,0,5,,,,,3,,,66,0
6428,note_off,,,,,284,0,1,,,,,0,,,81,0
6432,note_on,,,,,4,0,2,,,,,1,,,66,90
6432,note_on,,,,,4,0,4,,,,,2,,,81,108
6432,note_on,,,,,4,0,1,,,,,0,,,81,90
6432,note_on,,,,,4,0,5,,,,,3,,,66,108
6524,note_off,,,,,92,0,1,,,,,0,,,81,0
6524,note_off,,,,,92,0,4,,,,,2,,,81,0
6524,note_off,,,,,92,0,5,,,,,3,,,66,0
6524,note_off,,,,,92,0,2,,,,,1,,,66,0
6528,note_on,,,,,4,0,1,,,,,0,,,80,90
6528,note_on,,,,,4,0,4,,,,,2,,,80,108
6528,note_on,,,,,4,0,2,,,,,1,,,68,90
6528,note_on,,,,,4,0,5,,,,,3,,,68,108
6812,note_off,,,,,284,0,4,,,,,2,,,80,0
6812,note_off,,,,,284,0,5,,,,,3,,,68,0
6812,note_off,,,,,284,0,1,,,,,0,,,80,0
6812,note_off,,,,,284,0,2,,,,,1,,,68,0
6816,note_on,,,,,4,0,5,,,,,3,,,66,108
6816,note_on,,,,,4,0,2,,,,,1,,,66,90
6816,note_on,,,,,4,0,4,,,,,2,,,80,108
6816,note_on,,,,,4,0,1,,,,,0,,,80,90
6908,note_off,,,,,92,0,5,,,,,3,,,66,0
6908,note_off,,,,,92,0,4,,,,,2,,,80,0
6908,note_off,,,,,92,0,1,,,,,0,,,80,0
6908,note_off,,,,,92,0,2,,,,,1,,,66,0
6912,note_on,,,,,4,0,2,,,,,1,,,69,90
6912,note_on,,,,,4,0,5,,,,,3,,,69,108
6912,note_on,,,,,4,0,1,,,,,0,,,78,90
6912,note_on,,,,,4,0,4,,,,,2,,,78,108
7196,note_off,,,,,284,0,2,,,,,1,,,69,0
7196,note_off,,,,,284,0,5,,,,,3,,,69,0
7200,note_on,,,,,4,0,5,,,,,3,,,73,108
7200,note_on,,,,,4,0,2,,,,,1,,,73,90
7232,note_off,,,,,320,0,4,,,,,2,,,78,0
7232,note_off,,,,,320,0,1,,,,,0,,,78,0
7292,note_off,,,,,92,0,5,,,,,3,,,73,0
7292,note_off,,,,,92,0,2,,,,,1,,,73,0
7296,note_on,,,,,4,0,5,,,,,3,,,66,108
7296,note_on,,,,,4,0,2,,,,,1,,,66,90
7580,note_off,,,,,284,0,2,,,,,1,,,66,0
7580,note_off,,,,,284,0,5,,,,,3,,,66,0
7584,note_on,,,,,4,0,5,,,,,3,,,66,108
7584,note_on,,,,,4,0,2,,,,,1,,,66,90
7676,note_off,,,,,92,0,2,,,,,1,,,66,0
7676,note_off,,,,,92,0,5,,,,,3,,,66,0
7680,note_on,,,,,4,0,5,,,,,3,,,68,108
7680,note_on,,,,,448,0,1,,,,,0,,,83,90
7680,note_on,,,,,4,0,2,,,,,1,,,68,90
7680,note_on,,,,,448,0,4,,,,,2,,,83,108
7964,note_off,,,,,284,0,5,,,,,3,,,68,0
7964,note_off,,,,,284,0,2,,,,,1,,,68,0
7964,note_off,,,,,284,0,1,,,,,0,,,83,0
7964,note_off,,,,,284,0,4,,,,,2,,,83,0
7968,note_on,,,,,4,0,1,,,,,0,,,83,90
7968,note_on,,,,,4,0,4,,,,,2,,,83,108
7968,note_on,,,,,4,0,2,,,,,1,,,68,90
7968,note_on,,,,,4,0,5,,,,,3,,,68,108
8060,note_off,,,,,92,0,4,,,,,2,,,83,0
8060,note_off,,,,,92,0,1,,,,,0,,,83,0
8060,note_off,,,,,92,0,2,,,,,1,,,68,0
8060,note_off,,,,,92,0,5,,,,,3,,,68,0
8064,note_on,,,,,4,0,2,,,,,1,,,69,90
8064,note_on,,,,,4,0,4,,,,,2,,,81,108
8064,note_on,,,,,4,0,1,,,,,0,,,81,90
8064,note_on,,,,,4,0,5,,,,,3,,,69,108
8348,note_off,,,,,284,0,4,,,,,2,,,81,0
8348,note_off,,,,,284,0,1,,,,,0,,,81,0
8348,note_off,,,,,284,0,5,,,,,3,,,69,0
8348,note_off,,,,,284,0,2,,,,,1,,,69,0
8352,note_on,,,,,4,0,5,,,,,3,,,69,108
8352,note_on,,,,,4,0,1,,,,,0,,,81,90
8352,note_on,,,,,4,0,4,,,,,2,,,81,108
8352,note_on,,,,,4,0,2,,,,,1,,,69,90
8444,note_off,,,,,92,0,2,,,,,1,,,69,0
8444,note_off,,,,,92,0,1,,,,,0,,,81,0
8444,note_off,,,,,92,0,4,,,,,2,,,81,0
8444,note_off,,,,,92,0,5,,,,,3,,,69,0
8448,note_on,,,,,4,0,4,,,,,2,,,80,108
8448,note_on,,,,,4,0,1,,,,,0,,,80,90
8448,note_on,,,,,4,0,5,,,,,3,,,71,108
8448,note_on,,,,,4,0,2,,,,,1,,,71,90
8732,note_off,,,,,284,0,5,,,,,3,,,71,0
8732,note_off,,,,,284,0,2,,,,,1,,,71,0
8736,note_on,,,,,4,0,5,,,,,3,,,74,108
8736,note_on,,,,,4,0,2,,,,,1,,,74,90
8768,note_off,,,,,320,0,1,,,,,0,,,80,0
8768,note_off,,,,,320,0,4,,,,,2,,,80,0
8828,note_off,,,,,92,0,2,,,,,1,,,74,0
8828,note_off,,,,,92,0,5,,,,,3,,,74,0
8832,note_on,,,,,4,0,2,,,,,1,,,68,90
8832,note_on,,,,,4,0,5,,,,,3,,,68,108
9116,note_off,,,,,284,0,5,,,,,3,,,68,0
9116,note_off,,,,,284,0,2,,,,,1,,,68,0
9120,note_on,,,,,4,0,2,,,,,1,,,71,90
9120,note_on,,,,,4,0,5,,,,,3,,,71,108
9212,note_off,,,,,92,0,2,,,,,1,,,71,0
9212,note_off,,,,,92,0,5,,,,,3,,,71,0
9216,note_on,,,,,448,0,1,,,,,0,,,85,90
9216,note_on,,,,,4,0,2,,,,,1,,,65,90
9216,note_on,,,,,4,0,5,,,,,3,,,65,108
9216,note_on,,,,,448,0,4,,,,,2,,,85,108
9500,note_off,,,,,284,0,4,,,,,2,,,85,0
9500,note_off,,,,,284,0,5,,,,,3,,,65,0
9500,note_off,,,,,284,0,1,,,,,0,,,85,0
9500,note_off,,,,,284,0,2,,,,,1,,,65,0
9504,note_on,,,,,4,0,1,,,,,0,,,85,90
9504,note_on,,,,,4,0,4,,,,,2,,,85,108
9504,note_on,,,,,4,0,5,,,,,3,,,68,108
9504,note_on,,,,,4,0,2,,,,,1,,,68,90
9596,note_off,,,,,92,0,4,,,,,2,,,85,0
9596,note_off,,,,,92,0,1,,,,,0,,,85,0
9596,note_off,,,,,92,0,5,,,,,3,,,68,0
9596,note_off,,,,,92,0,2,,,,,1,,,68,0
9600,note_on,,,,,4,0,2,,,,,1,,,61,90
9600,note_on,,,,,4,0,1,,,,,0,,,83,90
9600,note_on,,,,,4,0,5,,,,,3,,,61,108
9600,note_on,,,,,4,0,4,,,,,2,,,83,108
9884,note_off,,,,,284,0,5,,,,,3,,,61,0
9884,note_off,,,,,284,0,1,,,,,0,,,83,0
9884,note_off,,,,,284,0,4,,,,,2,,,83,0
9884,note_off,,,,,284,0,2,,,,,1,,,61,0
9888,note_on,,,,,4,0,2,,,,,1,,,65,90
9888,note_on,,,,,4,0,5,,,,,3,,,65,108
9888,note_on,,,,,4,0,4,,,,,2,,,83,108
9888,note_on,,,,,4,0,1,,,,,0,,,83,90
9980,note_off,,,,,92,0,5,,,,,3,,,65,0
9980,note_off,,,,,92,0,2,,,,,1,,,65,0
9980,note_off,,,,,92,0,4,,,,,2,,,83,0
9980,note_off,,,,,92,0,1,,,,,0,,,83,0
9984,note_on,,,,,4,0,2,,,,,1,,,66,90
9984,note_on,,,,,4,0,5,,,,,3,,,66,108
9984,note_on,,,,,4,0,4,,,,,2,,,81,108
9984,note_on,,,,,4,0,1,,,,,0,,,81,90
10268,note_off,,,,,284,0,1,,,,,0,,,81,0
10268,note_off,,,,,284,0,2,,,,,1,,,66,0
10268,note_off,,,,,284,0,4,,,,,2,,,81,0
10268,note_off,,,,,284,0,5,,,,,3,,,66,0
10272,note_on,,,,,4,0,5,,,,,3,,,68,108
10272,note_on,,,,,4,0,2,,,,,1,,,68,90
10272,note_on,,,,,4,0,1,,,,,0,,,80,90
10272,note_on,,,,,4,0,4,,,,,2,,,80,108
10364,note_off,,,,,92,0,1,,,,,0,,,80,0
10364,note_off,,,,,92,0,4,,,,,2,,,80,0
10364,note_off,,,,,92,0,5,,,,,3,,,68,0
10364,note_off,,,,,92,0,2,,,,,1,,,68,0
10368,note_on,,,,,4,0,1,,,,,0,,,78,90
10368,note_on,,,,,4,0,4,,,,,2,,,78,108
10368,note_on,,,,,4,0,2,,,,,1,,,69,90
10368,note_on,,,,,4,0,5,,,,,3,,,69,108
10652,note_off,,,,,284,0,4,,,,,2,,,78,0
10652,note_off,,,,,284,0,5,,,,,3,,,69,0
10652,note_off,,,,,284,0,2,,,,,1,,,69,0
10652,note_off,,,,,284,0,1,,,,,0,,,78,0
10656,note_on,,,,,4,0,5,,,,,3,,,71,108
10656,note_on,,,,,4,0,1,,,,,0,,,78,90
10656,note_on,,,,,4,0,4,,,,,2,,,78,108
10656,note_on,,,,,4,0,2,,,,,1,,,71,90
10748,note_off,,,,,92,0,2,,,,,1,,,71,0
10748,note_off,,,,,92,0,5,,,,,3,,,71,0
10748,note_off,,,,,92,0,1,,,,,0,,,78,0
10748,note_off,,,,,92,0,4,,,,,2,,,78,0
10752,note_on,,,,,4,0,4,,,,,2,,,78,108
10752,note_on,,,,,4,0,2,,,,,1,,,73,90
10752,note_on,,,,,4,0,5,,,,,3,,,73,108
10752,note_on,,,,,4,0,1,,,,,0,,,78,90
11036,note_off,,,,,284,0,2,,,,,1,,,73,0
11036,note_off,,,,,284,0,4,,,,,2,,,78,0
11036,note_off,,,,,284,0,5,,,,,3,,,73,0
11036,note_off,,,,,284,0,1,,,,,0,,,78,0
11040,note_on,,,,,4,0,2,,,,,1,,,68,90
11040,note_on,,,,,4,0,4,,,,,2,,,80,108
11040,note_on,,,,,4,0,5,,,,,3,,,68,108
11040,note_on,,,,,4,0,1,,,,,0,,,80,90
11132,note_off,,,,,92,0,4,,,,,2,,,80,0
11132,note_off,,,,,92,0,2,,,,,1,,,68,0
11132,note_off,,,,,92,0,5,,,,,3,,,68,0
11132,note_off,,,,,92,0,1,,,,,0,,,80,0
11136,note_on,,,,,4,0,2,,,,,1,,,73,90
11136,note_on,,,,,4,0,1,,,,,0,,,78,90
11136,note_on,,,,,4,0,4,,,,,2,,,78,108
11136,note_on,,,,,4,0,5,,,,,3,,,73,108
11180,note_off,,,,,44,0,1,,,,,0,,,78,0
11180,note_off,,,,,44,0,4,,,,,2,,,78,0
11184,note_on,,,,,4,0,1,,,,,0,,,77,90
11184,note_on,,,,,4,0,4,,,,,2,,,77,108
11228,note_off,,,,,44,0,1,,,,,0,,,77,0
11228,note_off,,,,,44,0,4,,,,,2,,,77,0
11232,note_on,,,,,4,0,4,,,,,2,,,78,108
11232,note_on,,,,,4,0,1,,,,,0,,,78,90
11276,note_off,,,,,44,0,1,,,,,0,,,78,0
11276,note_off,,,,,44,0,4,,,,,2,,,78,0
11280,note_on,,,,,4,0,1,,,,,0,,,77,90
11280,note_on,,,,,4,0,4,,,,,2,,,77,108
11324,note_off,,,,,44,0,1,,,,,0,,,77,0
11324,note_off,,,,,44,0,4,,,,,2,,,77,0
11328,note_on,,,,,4,0,1,,,,,0,,,78,90
11328,note_on,,,,,4,0,4,,,,,2,,,78,108
11372,note_off,,,,,44,0,1,,,,,0,,,78,0
11372,note_off,,,,,44,0,4,,,,,2,,,78,0
11376,note_on,,,,,4,0,1,,,,,0,,,77,90
11376,note_on,,,,,4,0,4,,,,,2,,,77,108
11420,note_off,,,,,44,0,1,,,,,0,,,77,0
11420,note_off,,,,,44,0,4,,,,,2,,,77,0
11420,note_off,,,,,284,0,2,,,,,1,,,73,0
11420,note_off,,,,,284,0,5,,,,,3,,,73,0
11424,note_on,,,,,4,0,4,,,,,2,,,78,108
11424,note_on,,,,,4,0,5,,,,,3,,,71,108
11424,note_on,,,,,4,0,2,,,,,1,,,71,90
11424,note_on,,,,,4,0,1,,,,,0,,,78,90
11468,note_off,,,,,44,0,4,,,,,2,,,78,0
11468,note_off,,,,,44,0,1,,,,,0,,,78,0
11472,note_on,,,,,4,0,1,,,,,0,,,77,90
11472,note_on,,,,,4,0,4,,,,,2,,,77,108
11516,note_off,,,,,92,0,2,,,,,1,,,71,0
11516,note_off,,,,,92,0,5,,,,,3,,,71,0
11516,note_off,,,,,44,0,4,,,,,2,,,77,0
11516,note_off,,,,,44,0,1,,,,,0,,,77,0
11520,note_on,,,,,4,0,1,,,,,0,,,78,90
11520,note_on,,,,,4,0,2,,,,,1,,,70,90
11520,note_on,,,,,4,0,4,,,,,2,,,78,108
11520,note_on,,,,,4,0,5,,,,,3,,,70,108
11804,note_off,,,,,284,0,5,,,,,3,,,70,0
11804,note_off,,,,,284,0,2,,,,,1,,,70,0
11808,note_on,,,,,4,0,5,,,,,3,,,66,108
11808,note_on,,,,,4,0,2,,,,,1,,,66,90
11840,note_off,,,,,320,0,1,,,,,0,,,78,0
11840,note_off,,,,,320,0,4,,,,,2,,,78,0
11900,note_off,,,,,92,0,2,,,,,1,,,66,0
11900,note_off,,,,,92,0,5,,,,,3,,,66,0
11904,note_on,,,,,4,0,5,,,,,3,,,68,108
11904,note_on,,,,,4,0,2,,,,,1,,,68,90
12188,note_off,,,,,284,0,2,,,,,1,,,68,0
12188,note_off,,,,,284,0,5,,,,,3,,,68,0
12192,note_on,,,,,4,0,5,,,,,3,,,70,108
12192,note_on,,,,,4,0,2,,,,,1,,,70,90
12284,note_off,,,,,92,0,5,,,,,3,,,70,0
12284,note_off,,,,,92,0,2,,,,,1,,,70,0
12288,note_on,,,,,4,0,2,,,,,1,,,71,90
12288,note_on,,,,,12288,0,9,,,,,7,,,59,60
12288,note_on,,,,,4,0,5,,,,,3,,,71,108
12288,note_on,,,,,448,0,1,,,,,0,,,74,90
12288,note_on,,,,,12288,0,6,,,,,4,,,59,92
12288,note_on,,,,,448,0,4,,,,,2,,,74,108
12572,note_off,,,,,284,0,9,,,,,7,,,59,0
12572,note_off,,,,,284,0,2,,,,,1,,,71,0
12572,note_off,,,,,284,0,6,,,,,4,,,59,0
12572,note_off,,,,,284,0,1,,,,,0,,,74,0
12572,note_off,,,,,284,0,5,,,,,3,,,71,0
12572,note_off,,,,,284,0,4,,,,,2,,,74,0
12576,note_on,,,,,4,0,9,,,,,7,,,59,60
12576,note_on,,,,,4,0,1,,,,,0,,,74,90
12576,note_on,,,,,4,0,2,,,,,1,,,66,90
12576,note_on,,,,,4,0,6,,,,,4,,,59,92
12576,note_on,,,,,4,0,5,,,,,3,,,66,108
12576,note_on,,,,,4,0,4,,,,,2,,,74,108
12668,note_off,,,,,92,0,2,,,,,1,,,66,0
12668,note_off,,,,,92,0,4,,,,,2,,,74,0
12668,note_off,,,,,92,0,9,,,,,7,,,59,0
12668,note_off,,,,,92,0,5,,,,,3,,,66,0
12668,note_off,,,,,92,0,1,,,,,0,,,74,0
12668,note_off,,,,,92,0,6,,,,,4,,,59,0
12672,note_on,,,,,4,0,5,,,,,3,,,64,108
12672,note_on,,,,,4,0,9,,,,,7,,,61,60
12672,note_on,,,,,0,0,9,,,,,7,,,67,60
12672,note_on,,,,,4,0,6,,,,,4,,,61,92
12672,note_on,,,,,4,0,2,,,,,1,,,64,90
12672,note_on,,,,,4,0,4,,,,,2,,,73,108
12672,note_on,,,,,4,0,1,,,,,0,,,73,90
12956,note_off,,,,,284,0,6,,,,,4,,,61,0
12956,note_off,,,,,284,0,2,,,,,1,,,64,0
12956,note_off,,,,,284,0,5,,,,,3,,,64,0
12956,note_off,,,,,284,0,4,,,,,2,,,73,0
12956,note_off,,,,,284,0,1,,,,,0,,,73,0
12956,note_off,,,,,284,0,9,,,,,7,,,61,0
12956,note_off,,,,,0,0,9,,,,,7,,,67,0
12960,note_on,,,,,4,0,6,,,,,4,,,61,92
12960,note_on,,,,,4,0,9,,,,,7,,,61,60
12960,note_on,,,,,4,0,4,,,,,2,,,73,108
12960,note_on,,,,,4,0,1,,,,,0,,,73,90
12960,note_on,,,,,4,0,2,,,,,1,,,70,90
12960,note_on,,,,,4,0,5,,,,,3,,,70,108
13052,note_off,,,,,92,0,9,,,,,7,,,61,0
13052,note_off,,,,,92,0,6,,,,,4,,,61,0
13052,note_off,,,,,92,0,1,,,,,0,,,73,0
13052,note_off,,,,,92,0,4,,,,,2,,,73,0
13052,note_off,,,,,92,0,2,,,,,1,,,70,0
13052,note_off,,,,,92,0,5,,,,,3,,,70,0
13056,note_on,,,,,4,0,5,,,,,3,,,71,108
13056,note_on,,,,,4,0,9,,,,,7,,,62,60
13056,note_on,,,,,4,0,1,,,,,0,,,71,90
13056,note_on,,,,,4,0,2,,,,,1,,,71,90
13056,note_on,,,,,4,0,6,,,,,4,,,62,92
13056,note_on,,,,,4,0,4,,,,,2,,,71,108
13056,note_on,,,,,0,0,9,,,,,7,,,71,60
13340,note_off,,,,,284,0,6,,,,,4,,,62,0
13340,note_off,,,,,284,0,9,,,,,7,,,62,0
13340,note_off,,,,,284,0,5,,,,,3,,,71,0
13340,note_off,,,,,0,0,9,,,,,7,,,71,0
13340,note_off,,,,,284,0,2,,,,,1,,,71,0
13344,note_on,,,,,4,0,6,,,,,4,,,66,92
13344,note_on,,,,,4,0,5,,,,,3,,,73,108
13344,note_on,,,,,4,0,2,,,,,1,,,73,90
13344,note_on,,,,,4,0,9,,,,,7,,,66,60
13376,note_off,,,,,320,0,4,,,,,2,,,71,0
13376,note_off,,,,,320,0,1,,,,,0,,,71,0
13436,note_off,,,,,92,0,9,,,,,7,,,66,0
13436,note_off,,,,,92,0,5,,,,,3,,,73,0
13436,note_off,,,,,92,0,2,,,,,1,,,73,0
13436,note_off,,,,,92,0,6,,,,,4,,,66,0
13440,note_on,,,,,4,0,9,,,,,7,,,59,60
13440,note_on,,,,,4,0,6,,,,,4,,,59,92
13440,note_on,,,,,4,0,5,,,,,3,,,66,108
13440,note_on,,,,,4,0,2,,,,,1,,,66,90
13724,note_off,,,,,284,0,2,,,,,1,,,66,0
13724,note_off,,,,,284,0,5,,,,,3,,,66,0
13724,note_off,,,,,284,0,9,,,,,7,,,59,0
13724,note_off,,,,,284,0,6,,,,,4,,,59,0
13728,note_on,,,,,4,0,6,,,,,4,,,59,92
13728,note_on,,,,,4,0,9,,,,,7,,,59,60
13728,note_on,,,,,4,0,2,,,,,1,,,71,90
13728,note_on,,,,,4,0,5,,,,,3,,,71,108
13820,note_off,,,,,92,0,6,,,,,4,,,59,0
13820,note_off,,,,,92,0,2,,,,,1,,,71,0
13820,note_off,,,,,92,0,9,,,,,7,,,59,0
13820,note_off,,,,,92,0,5,,,,,3,,,71,0
13824,note_on,,,,,448,0,4,,,,,2,,,76,108
13824,note_on,,,,,4,0,2,,,,,1,,,70,90
13824,note_on,,,,,4,0,6,,,,,4,,,61,92
13824,note_on,,,,,4,0,5,,,,,3,,,70,108
13824,note_on,,,,,4,0,9,,,,,7,,,61,60
13824,note_on,,,,,448,0,1,,,,,0,,,76,90
14108,note_off,,,,,284,0,5,,,,,3,,,70,0
14108,note_off,,,,,284,0,1,,,,,0,,,76,0
14108,note_off,,,,,284,0,9,,,,,7,,,61,0
14108,note_off,,,,,284,0,4,,,,,2,,,76,0
14108,note_off,,,,,284,0,6,,,,,4,,,61,0
14108,note_off,,,,,284,0,2,,,,,1,,,70,0
14112,note_on,,,,,4,0,1,,,,,0,,,76,90
14112,note_on,,,,,4,0,6,,,,,4,,,61,92
14112,note_on,,,,,4,0,9,,,,,7,,,61,60
14112,note_on,,,,,4,0,5,,,,,3,,,70,108
14112,note_on,,,,,4,0,2,,,,,1,,,70,90
14112,note_on,,,,,4,0,4,,,,,2,,,76,108
14204,note_off,,,,,92,0,9,,,,,7,,,61,0
14204,note_off,,,,,92,0,1,,,,,0,,,76,0
14204,note_off,,,,,92,0,4,,,,,2,,,76,0
14204,note_off,,,,,92,0,6,,,,,4,,,61,0
14204,note_off,,,,,92,0,5,,,,,3,,,70,0
14204,note_off,,,,,92,0,2,,,,,1,,,70,0
14208,note_on,,,,,4,0,4,,,,,2,,,74,108
14208,note_on,,,,,4,0,9,,,,,7,,,62,60
14208,note_on,,,,,4,0,1,,,,,0,,,74,90
14208,note_on,,,,,4,0,6,,,,,4,,,62,92
14208,note_on,,,,,4,0,5,,,,,3,,,71,108
14208,note_on,,,,,4,0,2,,,,,1,,,71,90
14492,note_off,,,,,284,0,1,,,,,0,,,74,0
14492,note_off,,,,,284,0,2,,,,,1,,,71,0
14492,note_off,,,,,284,0,9,,,,,7,,,62,0
14492,note_off,,,,,284,0,4,,,,,2,,,74,0
14492,note_off,,,,,284,0,6,,,,,4,,,62,0
14492,note_off,,,,,284,0,5,,,,,3,,,71,0
14496,note_on,,,,,4,0,5,,,,,3,,,71,108
14496,note_on,,,,,4,0,2,,,,,1,,,71,90
14496,note_on,,,,,4,0,9,,,,,7,,,62,60
14496,note_on,,,,,4,0,1,,,,,0,,,74,90
14496,note_on,,,,,4,0,4,,,,,2,,,74,108
14496,note_on,,,,,4,0,6,,,,,4,,,62,92
14588,note_off,,,,,92,0,2,,,,,1,,,71,0
14588,note_off,,,,,92,0,5,,,,,3,,,71,0
14588,note_off,,,,,92,0,1,,,,,0,,,74,0
14588,note_off,,,,,92,0,6,,,,,4,,,62,0
14588,note_off,,,,,92,0,9,,,,,7,,,62,0
14588,note_off,,,,,92,0,4,,,,,2,,,74,0
14592,note_on,,,,,4,0,4,,,,,2,,,73,108
14592,note_on,,,,,4,0,1,,,,,0,,,73,90
14592,note_on,,,,,4,0,5,,,,,3,,,73,108
14592,note_on,,,,,4,0,6,,,,,4,,,64,92
14592,note_on,,,,,4,0,9,,,,,7,,,64,60
14592,note_on,,,,,4,0,2,,,,,1,,,73,90
14876,note_off,,,,,284,0,5,,,,,3,,,73,0
14876,note_off,,,,,284,0,6,,,,,4,,,64,0
14876,note_off,,,,,284,0,2,,,,,1,,,73,0
14876,note_off,,,,,284,0,9,,,,,7,,,64,0
14880,note_on,,,,,4,0,5,,,,,3,,,76,108
14880,note_on,,,,,4,0,9,,,,,7,,,67,60
14880,note_on,,,,,4,0,6,,,,,4,,,67,92
14880,note_on,,,,,4,0,2,,,,,1,,,76,90
14912,note_off,,,,,320,0,1,,,,,0,,,73,0
14912,note_off,,,,,320,0,4,,,,,2,,,73,0
14972,note_off,,,,,92,0,6,,,,,4,,,67,0
14972,note_off,,,,,92,0,9,,,,,7,,,67,0
14972,note_off,,,,,92,0,5,,,,,3,,,76,0
14972,note_off,,,,,92,0,2,,,,,1,,,76,0
14976,note_on,,,,,4,0,9,,,,,7,,,61,60
14976,note_on,,,,,4,0,5,,,,,3,,,64,108
14976,note_on,,,,,4,0,2,,,,,1,,,64,90
14976,note_on,,,,,4,0,6,,,,,4,,,61,92
15260,note_off,,,,,284,0,2,,,,,1,,,64,0
15260,note_off,,,,,284,0,5,,,,,3,,,64,0
15260,note_off,,,,,284,0,9,,,,,7,,,61,0
15260,note_off,,,,,284,0,6,,,,,4,,,61,0
15264,note_on,,,,,4,0,5,,,,,3,,,66,108
15264,note_on,,,,,4,0,9,,,,,7,,,64,60
15264,note_on,,,,,4,0,2,,,,,1,,,66,90
15264,note_on,,,,,4,0,6,,,,,4,,,62,92
15356,note_off,,,,,92,0,5,,,,,3,,,66,0
15356,note_off,,,,,92,0,9,,,,,7,,,64,0
15356,note_off,,,,,92,0,2,,,,,1,,,66,0
15356,note_off,,,,,92,0,6,,,,,4,,,62,0
15360,note_on,,,,,4,0,6,,,,,4,,,58,92
15360,note_on,,,,,4,0,5,,,,,3,,,73,108
15360,note_on,,,,,448,0,4,,,,,2,,,78,108
15360,note_on,,,,,4,0,2,,,,,1,,,73,90
15360,note_on,,,,,448,0,1,,,,,0,,,78,90
15360,note_on,,,,,0,0,9,,,,,7,,,66,60
15360,note_on,,,,,4,0,9,,,,,7,,,58,60
15644,note_off,,,,,0,0,9,,,,,7,,,66,0
15644,note_off,,,,,284,0,9,,,,,7,,,58,0
15644,note_off,,,,,284,0,4,,,,,2,,,78,0
15644,note_off,,,,,284,0,5,,,,,3,,,73,0
15644,note_off,,,,,284,0,6,,,,,4,,,58,0
15644,note_off,,,,,284,0,2,,,,,1,,,73,0
15644,note_off,,,,,284,0,1,,,,,0,,,78,0
15648,note_on,,,,,4,0,5,,,,,3,,,73,108
15648,note_on,,,,,4,0,2,,,,,1,,,73,90
15648,note_on,,,,,4,0,1,,,,,0,,,78,90
15648,note_on,,,,,4,0,6,,,,,4,,,61,92
15648,note_on,,,,,4,0,4,,,,,2,,,78,108
15648,note_on,,,,,4,0,9,,,,,7,,,61,60
15740,note_off,,,,,92,0,6,,,,,4,,,61,0
15740,note_off,,,,,92,0,1,,,,,0,,,78,0
15740,note_off,,,,,92,0,4,,,,,2,,,78,0
15740,note_off,,,,,92,0,5,,,,,3,,,73,0
15740,note_off,,,,,92,0,2,,,,,1,,,73,0
15740,note_off,,,,,92,0,9,,,,,7,,,61,0
15744,note_on,,,,,4,0,5,,,,,3,,,70,108
15744,note_on,,,,,4,0,2,,,,,1,,,70,90
15744,note_on,,,,,4,0,1,,,,,0,,,76,90
15744,note_on,,,,,0,0,9,,,,,7,,,64,60
15744,note_on,,,,,4,0,4,,,,,2,,,76,108
15744,note_on,,,,,4,0,9,,,,,7,,,54,60
15744,note_on,,,,,4,0,6,,,,,4,,,54,92
16028,note_off,,,,,284,0,1,,,,,0,,,76,0
16028,note_off,,,,,284,0,6,,,,,4,,,54,0
16028,note_off,,,,,284,0,5,,,,,3,,,70,0
16028,note_off,,,,,284,0,4,,,,,2,,,76,0
16028,note_off,,,,,284,0,9,,,,,7,,,54,0
16028,note_off,,,,,0,0,9,,,,,7,,,64,0
16028,note_off,,,,,284,0,2,,,,,1,,,70,0
16032,note_on,,,,,4,0,9,,,,,7,,,58,60
16032,note_on,,,,,4,0,4,,,,,2,,,76,108
16032,note_on,,,,,4,0,1,,,,,0,,,76,90
16032,note_on,,,,,4,0,5,,,,,3,,,73,108
16032,note_on,,,,,4,0,2,,,,,1,,,73,90
16032,note_on,,,,,4,0,6,,,,,4,,,58,92
16124,note_off,,,,,92,0,9,,,,,7,,,58,0
16124,note_off,,,,,92,0,4,,,,,2,,,76,0
16124,note_off,,,,,92,0,6,,,,,4,,,58,0
16124,note_off,,,,,92,0,5,,,,,3,,,73,0
16124,note_off,,,,,92,0,1,,,,,0,,,76,0
16124,note_off,,,,,92,0,2,,,,,1,,,73,0
16128,note_on,,,,,4,0,1,,,,,0,,,74,90
16128,note_on,,,,,4,0,4,,,,,2,,,74,108
16128,note_on,,,,,4,0,9,,,,,7,,,59,60
16128,note_on,,,,,4,0,6,,,,,4,,,59,92
16128,note_on,,,,,4,0,5,,,,,3,,,66,108
16128,note_on,,,,,4,0,2,,,,,1,,,66,90
16412,note_off,,,,,284,0,2,,,,,1,,,66,0
16412,note_off,,,,,284,0,5,,,,,3,,,66,0
16412,note_off,,,,,284,0,4,,,,,2,,,74,0
16412,note_off,,,,,284,0,1,,,,,0,,,74,0
16412,note_off,,,,,284,0,6,,,,,4,,,59,0
16412,note_off,,,,,284,0,9,,,,,7,,,59,0
16416,note_on,,,,,4,0,6,,,,,4,,,61,92
16416,note_on,,,,,4,0,2,,,,,1,,,70,90
16416,note_on,,,,,4,0,4,,,,,2,,,73,108
16416,note_on,,,,,4,0,1,,,,,0,,,73,90
16416,note_on,,,,,4,0,5,,,,,3,,,70,108
16416,note_on,,,,,4,0,9,,,,,7,,,61,60
16508,note_off,,,,,92,0,2,,,,,1,,,70,0
16508,note_off,,,,,92,0,4,,,,,2,,,73,0
16508,note_off,,,,,92,0,9,,,,,7,,,61,0
16508,note_off,,,,,92,0,5,,,,,3,,,70,0
16508,note_off,,,,,92,0,1,,,,,0,,,73,0
16508,note_off,,,,,92,0,6,,,,,4,,,61,0
16512,note_on,,,,,4,0,1,,,,,0,,,71,90
16512,note_on,,,,,4,0,6,,,,,4,,,62,92
16512,note_on,,,,,4,0,9,,,,,7,,,62,60
16512,note_on,,,,,0,0,9,,,,,7,,,71,60
16512,note_on,,,,,4,0,4,,,,,2,,,71,108
16512,note_on,,,,,4,0,5,,,,,3,,,71,108
16512,note_on,,,,,4,0,2,,,,,1,,,71,90
16796,note_off,,,,,284,0,4,,,,,2,,,71,0
16796,note_off,,,,,284,0,2,,,,,1,,,71,0
16796,note_off,,,,,284,0,5,,,,,3,,,71,0
16796,note_off,,,,,0,0,9,,,,,7,,,71,0
16796,note_off,,,,,284,0,1,,,,,0,,,71,0
16796,note_off,,,,,284,0,9,,,,,7,,,62,0
16796,note_off,,,,,284,0,6,,,,,4,,,62,0
16800,note_on,,,,,4,0,1,,,,,0,,,83,90
16800,note_on,,,,,4,0,5,,,,,3,,,79,108
16800,note_on,,,,,4,0,6,,,,,4,,,64,92
16800,note_on,,,,,4,0,9,,,,,7,,,64,60
16800,note_on,,,,,4,0,2,,,,,1,,,79,90
16800,note_on,,,,,4,0,4,,,,,2,,,83,108
16892,note_off,,,,,92,0,1,,,,,0,,,83,0
16892,note_off,,,,,92,0,6,,,,,4,,,64,0
16892,note_off,,,,,92,0,5,,,,,3,,,79,0
16892,note_off,,,,,92,0,4,,,,,2,,,83,0
16892,note_off,,,,,92,0,2,,,,,1,,,79,0
16892,note_off,,,,,92,0,9,,,,,7,,,64,0
16896,note_on,,,,,0,0,9,,,,,7,,,71,60
16896,note_on,,,,,4,0,9,,,,,7,,,66,60
16896,note_on,,,,,4,0,6,,,,,4,,,66,92
16896,note_on,,,,,4,0,2,,,,,1,,,73,90
16896,note_on,,,,,4,0,4,,,,,2,,,83,108
16896,note_on,,,,,4,0,1,,,,,0,,,83,90
16896,note_on,,,,,4,0,5,,,,,3,,,73,108
17180,note_off,,,,,284,0,6,,,,,4,,,66,0
17180,note_off,,,,,284,0,2,,,,,1,,,73,0
17180,note_off,,,,,284,0,1,,,,,0,,,83,0
17180,note_off,,,,,284,0,9,,,,,7,,,66,0
17180,note_off,,,,,0,0,9,,,,,7,,,71,0
17180,note_off,,,,,284,0,4,,,,,2,,,83,0
17180,note_off,,,,,284,0,5,,,,,3,,,73,0
17184,note_on,,,,,4,0,6,,,,,4,,,54,92
17184,note_on,,,,,4,0,4,,,,,2,,,83,108
17184,note_on,,,,,4,0,1,,,,,0,,,83,90
17184,note_on,,,,,4,0,9,,,,,7,,,54,60
17184,note_on,,,,,4,0,2,,,,,1,,,73,90
17184,note_on,,,,,4,0,5,,,,,3,,,73,108
17276,note_off,,,,,92,0,5,,,,,3,,,73,0
17276,note_off,,,,,92,0,6,,,,,4,,,54,0
17276,note_off,,,,,92,0,1,,,,,0,,,83,0
17276,note_off,,,,,92,0,2,,,,,1,,,73,0
17276,note_off,,,,,92,0,9,,,,,7,,,54,0
17276,note_off,,,,,92,0,4,,,,,2,,,83,0
17280,note_on,,,,,4,0,6,,,,,4,,,66,92
17280,note_on,,,,,0,0,9,,,,,7,,,69,60
17280,note_on,,,,,4,0,9,,,,,7,,,66,60
17280,note_on,,,,,4,0,4,,,,,2,,,81,108
17280,note_on,,,,,4,0,1,,,,,0,,,81,90
17280,note_on,,,,,4,0,2,,,,,1,,,73,90
17280,note_on,,,,,4,0,5,,,,,3,,,73,108
17564,note_off,,,,,284,0,2,,,,,1,,,73,0
17564,note_off,,,,,0,0,9,,,,,7,,,69,0
17564,note_off,,,,,284,0,4,,,,,2,,,81,0
17564,note_off,,,,,284,0,5,,,,,3,,,73,0
17564,note_off,,,,,284,0,1,,,,,0,,,81,0
17564,note_off,,,,,284,0,6,,,,,4,,,66,0
17564,note_off,,,,,284,0,9,,,,,7,,,66,0
17568,note_on,,,,,4,0,1,,,,,0,,,81,90
17568,note_on,,,,,4,0,2,,,,,1,,,73,90
17568,note_on,,,,,4,0,9,,,,,7,,,64,60
17568,note_on,,,,,4,0,4,,,,,2,,,81,108
17568,note_on,,,,,4,0,6,,,,,4,,,64,92
17568,note_on,,,,,4,0,5,,,,,3,,,73,108
17660,note_off,,,,,92,0,9,,,,,7,,,64,0
17660,note_off,,,,,92,0,1,,,,,0,,,81,0
17660,note_off,,,,,92,0,4,,,,,2,,,81,0
17660,note_off,,,,,92,0,5,,,,,3,,,73,0
17660,note_off,,,,,92,0,2,,,,,1,,,73,0
17660,note_off,,,,,92,0,6,,,,,4,,,64,0
17664,note_on,,,,,4,0,6,,,,,4,,,63,92
17664,note_on,,,,,4,0,4,,,,,2,,,81,108
17664,note_on,,,,,4,0,5,,,,,3,,,78,108
17664,note_on,,,,,4,0,2,,,,,1,,,78,90
17664,note_on,,,,,4,0,9,,,,,7,,,63,60
17664,note_on,,,,,0,0,9,,,,,7,,,69,60
17664,note_on,,,,,0,0,9,,,,,7,,,71,60
17664,note_on,,,,,4,0,1,,,,,0,,,81,90
17948,note_off,,,,,284,0,4,,,,,2,,,81,0
17948,note_off,,,,,284,0,5,,,,,3,,,78,0
17948,note_off,,,,,0,0,9,,,,,7,,,71,0
17948,note_off,,,,,284,0,2,,,,,1,,,78,0
17948,note_off,,,,,284,0,1,,,,,0,,,81,0
17948,note_off,,,,,0,0,9,,,,,7,,,69,0
17948,note_off,,,,,284,0,6,,,,,4,,,63,0
17948,note_off,,,,,284,0,9,,,,,7,,,63,0
17952,note_on,,,,,4,0,1,,,,,0,,,83,90
17952,note_on,,,,,4,0,2,,,,,1,,,75,90
17952,note_on,,,,,4,0,5,,,,,3,,,75,108
17952,note_on,,,,,4,0,4,,,,,2,,,83,108
17952,note_on,,,,,4,0,6,,,,,4,,,59,92
17952,note_on,,,,,4,0,9,,,,,7,,,59,60
17996,note_off,,,,,44,0,1,,,,,0,,,83,0
17996,note_off,,,,,44,0,4,,,,,2,,,83,0
18000,note_on,,,,,4,0,1,,,,,0,,,78,90
18000,note_on,,,,,4,0,4,,,,,2,,,78,108
18044,note_off,,,,,92,0,5,,,,,3,,,75,0
18044,note_off,,,,,44,0,1,,,,,0,,,78,0
18044,note_off,,,,,92,0,6,,,,,4,,,59,0
18044,note_off,,,,,44,0,4,,,,,2,,,78,0
18044,note_off,,,,,92,0,2,,,,,1,,,75,0
18044,note_off,,,,,92,0,9,,,,,7,,,59,0
18048,note_on,,,,,4,0,4,,,,,2,,,79,108
18048,note_on,,,,,4,0,9,,,,,7,,,64,60
18048,note_on,,,,,4,0,6,,,,,4,,,64,92
18048,note_on,,,,,4,0,1,,,,,0,,,79,90
18048,note_on,,,,,4,0,2,,,,,1,,,71,90
18048,note_on,,,,,4,0,5,,,,,3,,,71,108
18332,note_off,,,,,284,0,2,,,,,1,,,71,0
18332,note_off,,,,,284,0,9,,,,,7,,,64,0
18332,note_off,,,,,284,0,5,,,,,3,,,71,0
18332,note_off,,,,,284,0,4,,,,,2,,,79,0
18332,note_off,,,,,284,0,6,,,,,4,,,64,0
18332,note_off,,,,,284,0,1,,,,,0,,,79,0
18336,note_on,,,,,4,0,4,,,,,2,,,79,108
18336,note_on,,,,,4,0,5,,,,,3,,,71,108
18336,note_on,,,,,4,0,1,,,,,0,,,79,90
18336,note_on,,,,,4,0,9,,,,,7,,,62,60
18336,note_on,,,,,4,0,2,,,,,1,,,71,90
18336,note_on,,,,,4,0,6,,,,,4,,,62,92
18428,note_off,,,,,92,0,2,,,,,1,,,71,0
18428,note_off,,,,,92,0,4,,,,,2,,,79,0
18428,note_off,,,,,92,0,1,,,,,0,,,79,0
18428,note_off,,,,,92,0,9,,,,,7,,,62,0
18428,note_off,,,,,92,0,5,,,,,3,,,71,0
18428,note_off,,,,,92,0,6,,,,,4,,,62,0
18432,note_on,,,,,4,0,6,,,,,4,,,61,92
18432,note_on,,,,,4,0,9,,,,,7,,,61,60
18432,note_on,,,,,4,0,4,,,,,2,,,79,108
18432,note_on,,,,,0,0,9,,,,,7,,,67,60
18432,note_on,,,,,0,0,9,,,,,7,,,69,60
18432,note_on,,,,,4,0,2,,,,,1,,,76,90
18432,note_on,,,,,4,0,5,,,,,3,,,76,108
18432,note_on,,,,,4,0,1,,,,,0,,,79,90
18716,note_off,,,,,0,0,9,,,,,7,,,67,0
18716,note_off,,,,,284,0,1,,,,,0,,,79,0
18716,note_off,,,,,284,0,5,,,,,3,,,76,0
18716,note_off,,,,,284,0,2,,,,,1,,,76,0
18716,note_off,,,,,0,0,9,,,,,7,,,69,0
18716,note_off,,,,,284,0,6,,,,,4,,,61,0
18716,note_off,,,,,284,0,9,,,,,7,,,61,0
18716,note_off,,,,,284,0,4,,,,,2,,,79,0
18720,note_on,,,,,4,0,5,,,,,3,,,73,108
18720,note_on,,,,,4,0,6,,,,,4,,,57,92
18720,note_on,,,,,4,0,9,,,,,7,,,57,60
18720,note_on,,,,,4,0,2,,,,,1,,,73,90
18720,note_on,,,,,4,0,4,,,,,2,,,81,108
18720,note_on,,,,,4,0,1,,,,,0,,,81,90
18764,note_off,,,,,44,0,4,,,,,2,,,81,0
18764,note_off,,,,,44,0,1,,,,,0,,,81,0
18768,note_on,,,,,4,0,1,,,,,0,,,76,90
18768,note_on,,,,,4,0,4,,,,,2,,,76,108
18812,note_off,,,,,92,0,5,,,,,3,,,73,0
18812,note_off,,,,,92,0,2,,,,,1,,,73,0
18812,note_off,,,,,44,0,1,,,,,0,,,76,0
18812,note_off,,,,,92,0,6,,,,,4,,,57,0
18812,note_off,,,,,92,0,9,,,,,7,,,57,0
18812,note_off,,,,,44,0,4,,,,,2,,,76,0
18816,note_on,,,,,4,0,6,,,,,4,,,62,92
18816,note_on,,,,,4,0,5,,,,,3,,,69,108
18816,note_on,,,,,4,0,2,,,,,1,,,69,90
18816,note_on,,,,,4,0,4,,,,,2,,,78,108
18816,note_on,,,,,4,0,1,,,,,0,,,78,90
18816,note_on,,,,,4,0,9,,,,,7,,,62,60
19100,note_off,,,,,284,0,2,,,,,1,,,69,0
19100,note_off,,,,,284,0,6,,,,,4,,,62,0
19100,note_off,,,,,284,0,5,,,,,3,,,69,0
19100,note_off,,,,,284,0,1,,,,,0,,,78,0
19100,note_off,,,,,284,0,9,,,,,7,,,62,0
19100,note_off,,,,,284,0,4,,,,,2,,,78,0
19104,note_on,,,,,4,0,1,,,,,0,,,78,90
19104,note_on,,,,,4,0,4,,,,,2,,,78,108
19104,note_on,,,,,4,0,9,,,,,7,,,61,60
19104,note_on,,,,,4,0,2,,,,,1,,,69,90
19104,note_on,,,,,4,0,6,,,,,4,,,61,92
19104,note_on,,,,,4,0,5,,,,,3,,,69,108
19196,note_off,,,,,92,0,4,,,,,2,,,78,0
19196,note_off,,,,,92,0,9,,,,,7,,,61,0
19196,note_off,,,,,92,0,6,,,,,4,,,61,0
19196,note_off,,,,,92,0,1,,,,,0,,,78,0
19196,note_off,,,,,92,0,2,,,,,1,,,69,0
19196,note_off,,,,,92,0,5,,,,,3,,,69,0
19200,note_on,,,,,0,0,9,,,,,7,,,67,60
19200,note_on,,,,,4,0,9,,,,,7,,,59,60
19200,note_on,,,,,4,0,2,,,,,1,,,74,90
19200,note_on,,,,,4,0,5,,,,,3,,,74,108
19200,note_on,,,,,4,0,6,,,,,4,,,59,92
19200,note_on,,,,,4,0,1,,,,,0,,,79,90
19200,note_on,,,,,4,0,4,,,,,2,,,79,108
19484,note_off,,,,,284,0,1,,,,,0,,,79,0
19484,note_off,,,,,284,0,2,,,,,1,,,74,0
19484,note_off,,,,,284,0,9,,,,,7,,,59,0
19484,note_off,,,,,0,0,9,,,,,7,,,67,0
19484,note_off,,,,,284,0,6,,,,,4,,,59,0
19484,note_off,,,,,284,0,5,,,,,3,,,74,0
19484,note_off,,,,,284,0,4,,,,,2,,,79,0
19488,note_on,,,,,4,0,1,,,,,0,,,78,90
19488,note_on,,,,,4,0,9,,,,,7,,,57,60
19488,note_on,,,,,4,0,4,,,,,2,,,78,108
19488,note_on,,,,,4,0,5,,,,,3,,,73,108
19488,note_on,,,,,4,0,2,,,,,1,,,73,90
19488,note_on,,,,,4,0,6,,,,,4,,,57,92
19580,note_off,,,,,92,0,1,,,,,0,,,78,0
19580,note_off,,,,,92,0,9,,,,,7,,,57,0
19580,note_off,,,,,92,0,2,,,,,1,,,73,0
19580,note_off,,,,,92,0,6,,,,,4,,,57,0
19580,note_off,,,,,92,0,5,,,,,3,,,73,0
19580,note_off,,,,,92,0,4,,,,,2,,,78,0
19584,note_on,,,,,4,0,2,,,,,1,,,71,90
19584,note_on,,,,,4,0,4,,,,,2,,,83,108
19584,note_on,,,,,4,0,5,,,,,3,,,71,108
19584,note_on,,,,,4,0,1,,,,,0,,,83,90
19584,note_on,,,,,4,0,6,,,,,4,,,55,92
19584,note_on,,,,,4,0,9,,,,,7,,,55,60
19868,note_off,,,,,284,0,5,,,,,3,,,71,0
19868,note_off,,,,,284,0,6,,,,,4,,,55,0
19868,note_off,,,,,284,0,1,,,,,0,,,83,0
19868,note_off,,,,,284,0,2,,,,,1,,,71,0
19868,note_off,,,,,284,0,4,,,,,2,,,83,0
19872,note_on,,,,,4,0,5,,,,,3,,,71,108
19872,note_on,,,,,4,0,4,,,,,2,,,76,108
19872,note_on,,,,,4,0,6,,,,,4,,,67,92
19872,note_on,,,,,4,0,2,,,,,1,,,71,90
19872,note_on,,,,,4,0,1,,,,,0,,,76,90
19904,note_off,,,,,320,0,9,,,,,7,,,55,0
19964,note_off,,,,,92,0,4,,,,,2,,,76,0
19964,note_off,,,,,92,0,2,,,,,1,,,71,0
19964,note_off,,,,,92,0,6,,,,,4,,,67,0
19964,note_off,,,,,92,0,5,,,,,3,,,71,0
19964,note_off,,,,,92,0,1,,,,,0,,,76,0
19968,note_on,,,,,4,0,2,,,,,1,,,69,90
19968,note_on,,,,,19968,0,8,,,,,6,,,42,92
19968,note_on,,,,,64,0,9,,,,,7,,,54,60
19968,note_on,,,,,4,0,6,,,,,4,,,61,92
19968,note_on,,,,,19968,0,10,,,,,7,,,54,60
19968,note_on,,,,,4,0,4,,,,,2,,,78,108
19968,note_on,,,,,19968,0,7,,,,,5,,,54,92
19968,note_on,,,,,4,0,1,,,,,0,,,78,90
19968,note_on,,,,,4,0,5,,,,,3,,,69,108
19968,note_on,,,,,19968,0,3,,,,,8,,,54,92
20252,note_off,,,,,284,0,1,,,,,0,,,78,0
20252,note_off,,,,,284,0,8,,,,,6,,,42,0
20252,note_off,,,,,284,0,3,,,,,8,,,54,0
20252,note_off,,,,,284,0,10,,,,,7,,,54,0
20252,note_off,,,,,284,0,4,,,,,2,,,78,0
20252,note_off,,,,,284,0,5,,,,,3,,,69,0
20252,note_off,,,,,284,0,9,,,,,7,,,54,0
20252,note_off,,,,,284,0,6,,,,,4,,,61,0
20252,note_off,,,,,284,0,7,,,,,5,,,54,0
20252,note_off,,,,,284,0,2,,,,,1,,,69,0
20256,note_on,,,,,4,0,5,,,,,3,,,69,108
20256,note_on,,,,,4,0,8,,,,,6,,,42,92
20256,note_on,,,,,4,0,3,,,,,8,,,54,92
20256,note_on,,,,,4,0,6,,,,,4,,,61,92
20256,note_on,,,,,4,0,7,,,,,5,,,54,92
20256,note_on,,,,,4,0,10,,,,,7,,,54,60
20256,note_on,,,,,4,0,1,,,,,0,,,73,90
20256,note_on,,,,,4,0,9,,,,,7,,,54,60
20256,note_on,,,,,4,0,4,,,,,2,,,73,108
20256,note_on,,,,,4,0,2,,,,,1,,,69,90
20348,note_off,,,,,92,0,6,,,,,4,,,61,0
20348,note_off,,,,,92,0,9,,,,,7,,,54,0
20348,note_off,,,,,92,0,10,,,,,7,,,54,0
20348,note_off,,,,,92,0,5,,,,,3,,,69,0
20348,note_off,,,,,92,0,4,,,,,2,,,73,0
20348,note_off,,,,,92,0,2,,,,,1,,,69,0
20348,note_off,,,,,92,0,1,,,,,0,,,73,0
20348,note_off,,,,,92,0,8,,,,,6,,,42,0
20348,note_off,,,,,92,0,3,,,,,8,,,54,0
20348,note_off,,,,,92,0,7,,,,,5,,,54,0
20352,note_on,,,,,4,0,7,,,,,5,,,56,92
20352,note_on,,,,,4,0,8,,,,,6,,,44,92
20352,note_on,,,,,0,0,10,,,,,7,,,59,60
20352,note_on,,,,,4,0,10,,,,,7,,,56,60
20352,note_on,,,,,0,0,10,,,,,7,,,64,60
20352,note_on,,,,,4,0,3,,,,,8,,,56,92
20352,note_on,,,,,4,0,2,,,,,1,,,65,90
20352,note_on,,,,,4,0,9,,,,,7,,,56,60
20352,note_on,,,,,4,0,4,,,,,2,,,71,108
20352,note_on,,,,,4,0,1,,,,,0,,,71,90
20352,note_on,,,,,4,0,5,,,,,3,,,65,108
20352,note_on,,,,,4,0,6,,,,,4,,,68,92
20636,note_off,,,,,284,0,8,,,,,6,,,44,0
20636,note_off,,,,,284,0,10,,,,,7,,,56,0
20636,note_off,,,,,0,0,10,,,,,7,,,59,0
20636,note_off,,,,,0,0,10,,,,,7,,,64,0
20636,note_off,,,,,284,0,2,,,,,1,,,65,0
20636,note_off,,,,,284,0,9,,,,,7,,,56,0
20636,note_off,,,,,284,0,7,,,,,5,,,56,0
20636,note_off,,,,,284,0,3,,,,,8,,,56,0
20636,note_off,,,,,284,0,6,,,,,4,,,68,0
20636,note_off,,,,,284,0,4,,,,,2,,,71,0
20636,note_off,,,,,284,0,5,,,,,3,,,65,0
20636,note_off,,,,,284,0,1,,,,,0,,,71,0
20640,note_on,,,,,4,0,3,,,,,8,,,56,92
20640,note_on,,,,,4,0,9,,,,,7,,,56,60
20640,note_on,,,,,4,0,5,,,,,3,,,65,108
20640,note_on,,,,,4,0,4,,,,,2,,,71,108
20640,note_on,,,,,4,0,6,,,,,4,,,68,92
20640,note_on,,,,,4,0,8,,,,,6,,,44,92
20640,note_on,,,,,4,0,2,,,,,1,,,65,90
20640,note_on,,,,,4,0,1,,,,,0,,,71,90
20640,note_on,,,,,4,0,7,,,,,5,,,56,92
20640,note_on,,,,,4,0,10,,,,,7,,,56,60
20732,note_off,,,,,92,0,9,,,,,7,,,56,0
20732,note_off,,,,,92,0,4,,,,,2,,,71,0
20732,note_off,,,,,92,0,5,,,,,3,,,65,0
20732,note_off,,,,,92,0,2,,,,,1,,,65,0
20732,note_off,,,,,92,0,1,,,,,0,,,71,0
20732,note_off,,,,,92,0,7,,,,,5,,,56,0
20732,note_off,,,,,92,0,8,,,,,6,,,44,0
20732,note_off,,,,,92,0,3,,,,,8,,,56,0
20732,note_off,,,,,92,0,10,,,,,7,,,56,0
20732,note_off,,,,,92,0,6,,,,,4,,,68,0
20736,note_on,,,,,4,0,4,,,,,2,,,73,108
20736,note_on,,,,,4,0,2,,,,,1,,,66,90
20736,note_on,,,,,4,0,7,,,,,5,,,57,92
20736,note_on,,,,,4,0,8,,,,,6,,,45,92
20736,note_on,,,,,4,0,6,,,,,4,,,61,92
20736,note_on,,,,,4,0,10,,,,,7,,,57,60
20736,note_on,,,,,0,0,10,,,,,7,,,66,60
20736,note_on,,,,,4,0,1,,,,,0,,,73,90
20736,note_on,,,,,4,0,5,,,,,3,,,66,108
20736,note_on,,,,,4,0,3,,,,,8,,,57,92
20736,note_on,,,,,4,0,9,,,,,7,,,57,60
21020,note_off,,,,,284,0,9,,,,,7,,,57,0
21020,note_off,,,,,284,0,7,,,,,5,,,57,0
21020,note_off,,,,,284,0,6,,,,,4,,,61,0
21020,note_off,,,,,284,0,3,,,,,8,,,57,0
21020,note_off,,,,,284,0,1,,,,,0,,,73,0
21020,note_off,,,,,284,0,5,,,,,3,,,66,0
21020,note_off,,,,,284,0,8,,,,,6,,,45,0
21020,note_off,,,,,0,0,10,,,,,7,,,66,0
21020,note_off,,,,,284,0,10,,,,,7,,,57,0
21020,note_off,,,,,284,0,2,,,,,1,,,66,0
21020,note_off,,,,,284,0,4,,,,,2,,,73,0
21024,note_on,,,,,4,0,1,,,,,0,,,69,90
21024,note_on,,,,,4,0,5,,,,,3,,,66,108
21024,note_on,,,,,4,0,3,,,,,8,,,61,92
21024,note_on,,,,,4,0,10,,,,,7,,,61,60
21024,note_on,,,,,4,0,2,,,,,1,,,66,90
21024,note_on,,,,,4,0,8,,,,,6,,,49,92
21024,note_on,,,,,4,0,9,,,,,7,,,61,60
21024,note_on,,,,,4,0,4,,,,,2,,,69,108
21024,note_on,,,,,4,0,7,,,,,5,,,61,92
21024,note_on,,,,,4,0,6,,,,,4,,,61,92
21116,note_off,,,,,92,0,2,,,,,1,,,66,0
21116,note_off,,,,,92,0,1,,,,,0,,,69,0
21116,note_off,,,,,92,0,10,,,,,7,,,61,0
21116,note_off,,,,,92,0,3,,,,,8,,,61,0
21116,note_off,,,,,92,0,7,,,,,5,,,61,0
21116,note_off,,,,,92,0,8,,,,,6,,,49,0
21116,note_off,,,,,92,0,5,,,,,3,,,66,0
21116,note_off,,,,,92,0,6,,,,,4,,,61,0
21116,note_off,,,,,92,0,9,,,,,7,,,61,0
21116,note_off,,,,,92,0,4,,,,,2,,,69,0
21120,note_on,,,,,4,0,9,,,,,7,,,54,60
21120,note_on,,,,,4,0,5,,,,,3,,,69,108
21120,note_on,,,,,4,0,2,,,,,1,,,69,90
21120,note_on,,,,,4,0,10,,,,,7,,,54,60
21120,note_on,,,,,4,0,6,,,,,4,,,61,92
21120,note_on,,,,,4,0,7,,,,,5,,,54,92
21120,note_on,,,,,4,0,4,,,,,2,,,73,108
21120,note_on,,,,,4,0,1,,,,,0,,,73,90
21120,note_on,,,,,4,0,8,,,,,6,,,42,92
21120,note_on,,,,,4,0,3,,,,,8,,,54,92
21404,note_off,,,,,284,0,4,,,,,2,,,73,0
21404,note_off,,,,,284,0,10,,,,,7,,,54,0
21404,note_off,,,,,284,0,5,,,,,3,,,69,0
21404,note_off,,,,,284,0,8,,,,,6,,,42,0
21404,note_off,,,,,284,0,2,,,,,1,,,69,0
21404,note_off,,,,,284,0,9,,,,,7,,,54,0
21404,note_off,,,,,284,0,7,,,,,5,,,54,0
21404,note_off,,,,,284,0,6,,,,,4,,,61,0
21404,note_off,,,,,284,0,1,,,,,0,,,73,0
21404,note_off,,,,,284,0,3,,,,,8,,,54,0
21408,note_on,,,,,4,0,10,,,,,7,,,54,60
21408,note_on,,,,,4,0,1,,,,,0,,,78,90
21408,note_on,,,,,4,0,9,,,,,7,,,54,60
21408,note_on,,,,,4,0,6,,,,,4,,,61,92
21408,note_on,,,,,4,0,8,,,,,6,,,42,92
21408,note_on,,,,,4,0,3,,,,,8,,,54,92
21408,note_on,,,,,4,0,4,,,,,2,,,78,108
21408,note_on,,,,,4,0,2,,,,,1,,,69,90
21408,note_on,,,,,4,0,7,,,,,5,,,54,92
21408,note_on,,,,,4,0,5,,,,,3,,,69,108
21500,note_off,,,,,92,0,7,,,,,5,,,54,0
21500,note_off,,,,,92,0,8,,,,,6,,,42,0
21500,note_off,,,,,92,0,4,,,,,2,,,78,0
21500,note_off,,,,,92,0,6,,,,,4,,,61,0
21500,note_off,,,,,92,0,2,,,,,1,,,69,0
21500,note_off,,,,,92,0,9,,,,,7,,,54,0
21500,note_off,,,,,92,0,1,,,,,0,,,78,0
21500,note_off,,,,,92,0,10,,,,,7,,,54,0
21500,note_off,,,,,92,0,5,,,,,3,,,69,0
21500,note_off,,,,,92,0,3,,,,,8,,,54,0
21504,note_on,,,,,4,0,5,,,,,3,,,71,108
21504,note_on,,,,,4,0,1,,,,,0,,,76,90
21504,note_on,,,,,4,0,2,,,,,1,,,71,90
21504,note_on,,,,,4,0,4,,,,,2,,,76,108
21504,note_on,,,,,4,0,7,,,,,5,,,56,92
21504,note_on,,,,,4,0,8,,,,,6,,,44,92
21504,note_on,,,,,4,0,6,,,,,4,,,59,92
21504,note_on,,,,,0,0,10,,,,,7,,,64,60
21504,note_on,,,,,4,0,9,,,,,7,,,56,60
21504,note_on,,,,,4,0,10,,,,,7,,,56,60
21504,note_on,,,,,4,0,3,,,,,8,,,56,92
21788,note_off,,,,,284,0,3,,,,,8,,,56,0
21788,note_off,,,,,284,0,7,,,,,5,,,56,0
21788,note_off,,,,,284,0,2,,,,,1,,,71,0
21788,note_off,,,,,284,0,9,,,,,7,,,56,0
21788,note_off,,,,,284,0,8,,,,,6,,,44,0
21788,note_off,,,,,284,0,1,,,,,0,,,76,0
21788,note_off,,,,,0,0,10,,,,,7,,,64,0
21788,note_off,,,,,284,0,10,,,,,7,,,56,0
21788,note_off,,,,,284,0,5,,,,,3,,,71,0
21788,note_off,,,,,284,0,6,,,,,4,,,59,0
21788,note_off,,,,,284,0,4,,,,,2,,,76,0
21792,note_on,,,,,4,0,5,,,,,3,,,71,108
21792,note_on,,,,,4,0,4,,,,,2,,,76,108
21792,note_on,,,,,4,0,2,,,,,1,,,71,90
21792,note_on,,,,,4,0,1,,,,,0,,,76,90
21792,note_on,,,,,4,0,3,,,,,8,,,56,92
21792,note_on,,,,,4,0,7,,,,,5,,,56,92
21792,note_on,,,,,4,0,9,,,,,7,,,56,60
21792,note_on,,,,,4,0,10,,,,,7,,,56,60
21792,note_on,,,,,4,0,6,,,,,4,,,59,92
21792,note_on,,,,,4,0,8,,,,,6,,,44,92
21884,note_off,,,,,92,0,1,,,,,0,,,76,0
21884,note_off,,,,,92,0,3,,,,,8,,,56,0
21884,note_off,,,,,92,0,4,,,,,2,,,76,0
21884,note_off,,,,,92,0,2,,,,,1,,,71,0
21884,note_off,,,,,92,0,6,,,,,4,,,59,0
21884,note_off,,,,,92,0,10,,,,,7,,,56,0
21884,note_off,,,,,92,0,5,,,,,3,,,71,0
21884,note_off,,,,,92,0,9,,,,,7,,,56,0
21884,note_off,,,,,92,0,8,,,,,6,,,44,0
21884,note_off,,,,,92,0,7,,,,,5,,,56,0
21888,note_on,,,,,4,0,3,,,,,8,,,57,92
21888,note_on,,,,,4,0,1,,,,,0,,,74,90
21888,note_on,,,,,4,0,4,,,,,2,,,74,108
21888,note_on,,,,,4,0,8,,,,,6,,,45,92
21888,note_on,,,,,4,0,9,,,,,7,,,57,60
21888,note_on,,,,,4,0,6,,,,,4,,,69,92
21888,note_on,,,,,4,0,2,,,,,1,,,66,90
21888,note_on,,,,,4,0,5,,,,,3,,,66,108
21888,note_on,,,,,4,0,7,,,,,5,,,57,92
21888,note_on,,,,,0,0,10,,,,,7,,,66,60
21888,note_on,,,,,4,0,10,,,,,7,,,57,60
22172,note_off,,,,,284,0,3,,,,,8,,,57,0
22172,note_off,,,,,284,0,7,,,,,5,,,57,0
22172,note_off,,,,,284,0,1,,,,,0,,,74,0
22172,note_off,,,,,284,0,4,,,,,2,,,74,0
22172,note_off,,,,,0,0,10,,,,,7,,,66,0
22172,note_off,,,,,284,0,5,,,,,3,,,66,0
22172,note_off,,,,,284,0,8,,,,,6,,,45,0
22172,note_off,,,,,284,0,2,,,,,1,,,66,0
22172,note_off,,,,,284,0,9,,,,,7,,,57,0
22172,note_off,,,,,284,0,6,,,,,4,,,69,0
22172,note_off,,,,,284,0,10,,,,,7,,,57,0
22176,note_on,,,,,4,0,4,,,,,2,,,73,108
22176,note_on,,,,,4,0,1,,,,,0,,,73,90
22176,note_on,,,,,4,0,3,,,,,8,,,57,92
22176,note_on,,,,,4,0,9,,,,,7,,,57,60
22176,note_on,,,,,4,0,2,,,,,1,,,66,90
22176,note_on,,,,,4,0,8,,,,,6,,,45,92
22176,note_on,,,,,4,0,10,,,,,7,,,57,60
22176,note_on,,,,,4,0,5,,,,,3,,,66,108
22176,note_on,,,,,4,0,7,,,,,5,,,57,92
22176,note_on,,,,,4,0,6,,,,,4,,,69,92
22268,note_off,,,,,92,0,1,,,,,0,,,73,0
22268,note_off,,,,,92,0,10,,,,,7,,,57,0
22268,note_off,,,,,92,0,5,,,,,3,,,66,0
22268,note_off,,,,,92,0,3,,,,,8,,,57,0
22268,note_off,,,,,92,0,7,,,,,5,,,57,0
22268,note_off,,,,,92,0,6,,,,,4,,,69,0
22268,note_off,,,,,92,0,4,,,,,2,,,73,0
22268,note_off,,,,,92,0,8,,,,,6,,,45,0
22268,note_off,,,,,92,0,9,,,,,7,,,57,0
22268,note_off,,,,,92,0,2,,,,,1,,,66,0
22272,note_on,,,,,4,0,9,,,,,7,,,59,60
22272,note_on,,,,,4,0,3,,,,,8,,,59,92
22272,note_on,,,,,4,0,7,,,,,5,,,59,92
22272,note_on,,,,,4,0,10,,,,,7,,,59,60
22272,note_on,,,,,4,0,6,,,,,4,,,66,92
22272,note_on,,,,,4,0,1,,,,,0,,,74,90
22272,note_on,,,,,4,0,5,,,,,3,,,62,108
22272,note_on,,,,,4,0,8,,,,,6,,,47,92
22272,note_on,,,,,4,0,2,,,,,1,,,62,90
22272,note_on,,,,,4,0,4,,,,,2,,,74,108
22556,note_off,,,,,284,0,8,,,,,6,,,47,0
22556,note_off,,,,,284,0,5,,,,,3,,,62,0
22556,note_off,,,,,284,0,9,,,,,7,,,59,0
22556,note_off,,,,,284,0,7,,,,,5,,,59,0
22556,note_off,,,,,284,0,2,,,,,1,,,62,0
22556,note_off,,,,,284,0,3,,,,,8,,,59,0
22556,note_off,,,,,284,0,6,,,,,4,,,66,0
22556,note_off,,,,,284,0,10,,,,,7,,,59,0
22560,note_on,,,,,4,0,10,,,,,7,,,62,60
22560,note_on,,,,,4,0,7,,,,,5,,,62,92
22560,note_on,,,,,4,0,6,,,,,4,,,62,92
22560,note_on,,,,,4,0,2,,,,,1,,,66,90
22560,note_on,,,,,4,0,9,,,,,7,,,62,60
22560,note_on,,,,,4,0,3,,,,,8,,,62,92
22560,note_on,,,,,4,0,8,,,,,6,,,50,92
22560,note_on,,,,,4,0,5,,,,,3,,,66,108
22652,note_off,,,,,92,0,10,,,,,7,,,62,0
22652,note_off,,,,,92,0,5,,,,,3,,,66,0
22652,note_off,,,,,92,0,6,,,,,4,,,62,0
22652,note_off,,,,,92,0,9,,,,,7,,,62,0
22652,note_off,,,,,92,0,8,,,,,6,,,50,0
22652,note_off,,,,,92,0,3,,,,,8,,,62,0
22652,note_off,,,,,92,0,7,,,,,5,,,62,0
22652,note_off,,,,,92,0,2,,,,,1,,,66,0
22656,note_on,,,,,4,0,8,,,,,6,,,44,92
22656,note_on,,,,,4,0,7,,,,,5,,,56,92
22656,note_on,,,,,4,0,3,,,,,8,,,56,92
22656,note_on,,,,,4,0,2,,,,,1,,,71,90
22656,note_on,,,,,4,0,9,,,,,7,,,56,60
22656,note_on,,,,,0,0,10,,,,,7,,,62,60
22656,note_on,,,,,4,0,10,,,,,7,,,56,60
22656,note_on,,,,,4,0,5,,,,,3,,,71,108
22656,note_on,,,,,4,0,6,,,,,4,,,62,92
22784,note_off,,,,,512,0,4,,,,,2,,,74,0
22784,note_off,,,,,512,0,1,,,,,0,,,74,0
22848,note_on,,,,,64,0,1,,,,,0,,,74,90
22848,note_on,,,,,64,0,4,,,,,2,,,74,108
22940,note_off,,,,,284,0,2,,,,,1,,,71,0
22940,note_off,,,,,284,0,8,,,,,6,,,44,0
22940,note_off,,,,,284,0,5,,,,,3,,,71,0
22940,note_off,,,,,284,0,6,,,,,4,,,62,0
22940,note_off,,,,,284,0,7,,,,,5,,,56,0
22940,note_off,,,,,0,0,10,,,,,7,,,62,0
22940,note_off,,,,,284,0,9,,,,,7,,,56,0
22940,note_off,,,,,284,0,3,,,,,8,,,56,0
22940,note_off,,,,,284,0,10,,,,,7,,,56,0
22944,note_on,,,,,4,0,8,,,,,6,,,47,92
22944,note_on,,,,,4,0,6,,,,,4,,,59,92
22944,note_on,,,,,4,0,10,,,,,7,,,59,60
22944,note_on,,,,,4,0,5,,,,,3,,,74,108
22944,note_on,,,,,4,0,7,,,,,5,,,59,92
22944,note_on,,,,,4,0,2,,,,,1,,,74,90
22944,note_on,,,,,4,0,3,,,,,8,,,59,92
22944,note_on,,,,,4,0,9,,,,,7,,,59,60
23036,note_off,,,,,92,0,9,,,,,7,,,59,0
23036,note_off,,,,,92,0,7,,,,,5,,,59,0
23036,note_off,,,,,92,0,10,,,,,7,,,59,0
23036,note_off,,,,,92,0,8,,,,,6,,,47,0
23036,note_off,,,,,92,0,3,,,,,8,,,59,0
23036,note_off,,,,,92,0,5,,,,,3,,,74,0
23036,note_off,,,,,92,0,6,,,,,4,,,59,0
23036,note_off,,,,,188,0,1,,,,,0,,,74,0
23036,note_off,,,,,92,0,2,,,,,1,,,74,0
23036,note_off,,,,,188,0,4,,,,,2,,,74,0
23040,note_on,,,,,0,0,10,,,,,7,,,62,60
23040,note_on,,,,,4,0,3,,,,,8,,,53,92
23040,note_on,,,,,4,0,1,,,,,0,,,74,90
23040,note_on,,,,,4,0,9,,,,,7,,,53,60
23040,note_on,,,,,4,0,7,,,,,5,,,53,92
23040,note_on,,,,,4,0,5,,,,,3,,,68,108
23040,note_on,,,,,4,0,2,,,,,1,,,68,90
23040,note_on,,,,,4,0,4,,,,,2,,,74,108
23040,note_on,,,,,4,0,8,,,,,6,,,41,92
23040,note_on,,,,,4,0,6,,,,,4,,,59,92
23040,note_on,,,,,4,0,10,,,,,7,,,53,60
23324,note_off,,,,,284,0,8,,,,,6,,,41,0
23324,note_off,,,,,284,0,5,,,,,3,,,68,0
23324,note_off,,,,,284,0,9,,,,,7,,,53,0
23324,note_off,,,,,284,0,6,,,,,4,,,59,0
23324,note_off,,,,,0,0,10,,,,,7,,,62,0
23324,note_off,,,,,284,0,10,,,,,7,,,53,0
23324,note_off,,,,,284,0,1,,,,,0,,,74,0
23324,note_off,,,,,284,0,7,,,,,5,,,53,0
23324,note_off,,,,,284,0,4,,,,,2,,,74,0
23324,note_off,,,,,284,0,2,,,,,1,,,68,0
23324,note_off,,,,,284,0,3,,,,,8,,,53,0
23328,note_on,,,,,4,0,10,,,,,7,,,56,60
23328,note_on,,,,,4,0,9,,,,,7,,,55,60
23328,note_on,,,,,4,0,6,,,,,4,,,59,92
23328,note_on,,,,,4,0,8,,,,,6,,,44,92
23328,note_on,,,,,4,0,2,,,,,1,,,68,90
23328,note_on,,,,,4,0,1,,,,,0,,,74,90
23328,note_on,,,,,4,0,7,,,,,5,,,56,92
23328,note_on,,,,,4,0,4,,,,,2,,,74,108
23328,note_on,,,,,4,0,5,,,,,3,,,68,108
23328,note_on,,,,,4,0,3,,,,,8,,,56,92
23420,note_off,,,,,92,0,6,,,,,4,,,59,0
23420,note_off,,,,,92,0,7,,,,,5,,,56,0
23420,note_off,,,,,92,0,1,,,,,0,,,74,0
23420,note_off,,,,,92,0,8,,,,,6,,,44,0
23420,note_off,,,,,92,0,2,,,,,1,,,68,0
23420,note_off,,,,,92,0,4,,,,,2,,,74,0
23420,note_off,,,,,92,0,10,,,,,7,,,56,0
23420,note_off,,,,,92,0,5,,,,,3,,,68,0
23420,note_off,,,,,92,0,9,,,,,7,,,55,0
23420,note_off,,,,,92,0,3,,,,,8,,,56,0
23424,note_on,,,,,4,0,5,,,,,3,,,65,108
23424,note_on,,,,,4,0,3,,,,,8,,,49,92
23424,note_on,,,,,4,0,9,,,,,7,,,49,60
23424,note_on,,,,,4,0,2,,,,,1,,,65,90
23424,note_on,,,,,4,0,4,,,,,2,,,73,108
23424,note_on,,,,,4,0,6,,,,,4,,,68,92
23424,note_on,,,,,4,0,8,,,,,6,,,37,92
23424,note_on,,,,,4,0,10,,,,,7,,,49,60
23424,note_on,,,,,4,0,1,,,,,0,,,73,90
23424,note_on,,,,,4,0,7,,,,,5,,,49,92
23708,note_off,,,,,284,0,7,,,,,5,,,49,0
23708,note_off,,,,,284,0,2,,,,,1,,,65,0
23708,note_off,,,,,284,0,3,,,,,8,,,49,0
23708,note_off,,,,,284,0,8,,,,,6,,,37,0
23708,note_off,,,,,284,0,6,,,,,4,,,68,0
23708,note_off,,,,,284,0,10,,,,,7,,,49,0
23708,note_off,,,,,284,0,4,,,,,2,,,73,0
23708,note_off,,,,,284,0,9,,,,,7,,,49,0
23708,note_off,,,,,284,0,1,,,,,0,,,73,0
23708,note_off,,,,,284,0,5,,,,,3,,,65,0
23712,note_on,,,,,4,0,2,,,,,1,,,68,90
23712,note_on,,,,,4,0,9,,,,,7,,,53,60
23712,note_on,,,,,4,0,8,,,,,6,,,41,92
23712,note_on,,,,,4,0,5,,,,,3,,,68,108
23712,note_on,,,,,4,0,10,,,,,7,,,53,60
23712,note_on,,,,,4,0,3,,,,,8,,,53,92
23712,note_on,,,,,4,0,7,,,,,5,,,53,92
23712,note_on,,,,,4,0,6,,,,,4,,,61,92
23712,note_on,,,,,4,0,4,,,,,2,,,71,108
23712,note_on,,,,,4,0,1,,,,,0,,,71,90
23804,note_off,,,,,92,0,1,,,,,0,,,71,0
23804,note_off,,,,,92,0,10,,,,,7,,,53,0
23804,note_off,,,,,92,0,6,,,,,4,,,61,0
23804,note_off,,,,,92,0,9,,,,,7,,,53,0
23804,note_off,,,,,92,0,8,,,,,6,,,41,0
23804,note_off,,,,,92,0,4,,,,,2,,,71,0
23804,note_off,,,,,92,0,3,,,,,8,,,53,0
23804,note_off,,,,,92,0,7,,,,,5,,,53,0
23804,note_off,,,,,92,0,5,,,,,3,,,68,0
23804,note_off,,,,,92,0,2,,,,,1,,,68,0
23808,note_on,,,,,4,0,1,,,,,0,,,69,90
23808,note_on,,,,,4,0,10,,,,,7,,,54,60
23808,note_on,,,,,4,0,3,,,,,8,,,54,92
23808,note_on,,,,,4,0,7,,,,,5,,,54,92
23808,note_on,,,,,4,0,8,,,,,6,,,42,92
23808,note_on,,,,,4,0,6,,,,,4,,,61,92
23808,note_on,,,,,4,0,9,,,,,7,,,54,60
23808,note_on,,,,,4,0,5,,,,,3,,,61,108
23808,note_on,,,,,4,0,2,,,,,1,,,61,90
23808,note_on,,,,,4,0,4,,,,,2,,,69,108
24092,note_off,,,,,284,0,8,,,,,6,,,42,0
24092,note_off,,,,,284,0,9,,,,,7,,,54,0
24092,note_off,,,,,284,0,7,,,,,5,,,54,0
24092,note_off,,,,,284,0,6,,,,,4,,,61,0
24092,note_off,,,,,284,0,4,,,,,2,,,69,0
24092,note_off,,,,,284,0,1,,,,,0,,,69,0
24092,note_off,,,,,284,0,3,,,,,8,,,54,0
24092,note_off,,,,,284,0,10,,,,,7,,,54,0
24096,note_on,,,,,4,0,7,,,,,5,,,56,92
24096,note_on,,,,,4,0,6,,,,,4,,,65,92
24096,note_on,,,,,4,0,9,,,,,7,,,56,60
24096,note_on,,,,,4,0,1,,,,,0,,,68,90
24096,note_on,,,,,4,0,10,,,,,7,,,56,60
24096,note_on,,,,,4,0,4,,,,,2,,,68,108
24096,note_on,,,,,4,0,8,,,,,6,,,44,92
24096,note_on,,,,,4,0,3,,,,,8,,,56,92
24128,note_off,,,,,320,0,5,,,,,3,,,61,0
24128,note_off,,,,,320,0,2,,,,,1,,,61,0
24188,note_off,,,,,92,0,1,,,,,0,,,68,0
24188,note_off,,,,,92,0,4,,,,,2,,,68,0
24188,note_off,,,,,92,0,9,,,,,7,,,56,0
24188,note_off,,,,,92,0,6,,,,,4,,,65,0
24188,note_off,,,,,92,0,3,,,,,8,,,56,0
24188,note_off,,,,,92,0,10,,,,,7,,,56,0
24188,note_off,,,,,92,0,8,,,,,6,,,44,0
24188,note_off,,,,,92,0,7,,,,,5,,,56,0
24192,note_on,,,,,4,0,10,,,,,7,,,57,60
24192,note_on,,,,,0,0,10,,,,,7,,,66,60
24192,note_on,,,,,4,0,1,,,,,0,,,66,90
24192,note_on,,,,,4,0,6,,,,,4,,,66,92
24192,note_on,,,,,4,0,9,,,,,7,,,57,60
24192,note_on,,,,,4,0,3,,,,,8,,,57,92
24192,note_on,,,,,4,0,8,,,,,6,,,45,92
24192,note_on,,,,,4,0,4,,,,,2,,,66,108
24192,note_on,,,,,4,0,7,,,,,5,,,57,92
24476,note_off,,,,,284,0,1,,,,,0,,,66,0
24476,note_off,,,,,0,0,10,,,,,7,,,66,0
24476,note_off,,,,,284,0,10,,,,,7,,,57,0
24476,note_off,,,,,284,0,8,,,,,6,,,45,0
24476,note_off,,,,,284,0,6,,,,,4,,,66,0
24476,note_off,,,,,284,0,3,,,,,8,,,57,0
24476,note_off,,,,,284,0,9,,,,,7,,,57,0
24476,note_off,,,,,284,0,4,,,,,2,,,66,0
24476,note_off,,,,,284,0,7,,,,,5,,,57,0
24480,note_on,,,,,4,0,9,,,,,7,,,59,60
24480,note_on,,,,,4,0,10,,,,,7,,,59,60
24480,note_on,,,,,4,0,4,,,,,2,,,68,108
24480,note_on,,,,,4,0,1,,,,,0,,,68,90
24480,note_on,,,,,4,0,8,,,,,6,,,47,92
24480,note_on,,,,,4,0,6,,,,,4,,,62,92
24480,note_on,,,,,4,0,7,,,,,5,,,59,92
24480,note_on,,,,,4,0,3,,,,,8,,,59,92
24572,note_off,,,,,92,0,8,,,,,6,,,47,0
24572,note_off,,,,,92,0,7,,,,,5,,,59,0
24572,note_off,,,,,92,0,4,,,,,2,,,68,0
24572,note_off,,,,,92,0,10,,,,,7,,,59,0
24572,note_off,,,,,92,0,9,,,,,7,,,59,0
24572,note_off,,,,,92,0,3,,,,,8,,,59,0
24572,note_off,,,,,92,0,6,,,,,4,,,62,0
24572,note_off,,,,,92,0,1,,,,,0,,,68,0
24576,note_on,,,,,4,0,3,,,,,8,,,61,92
24576,note_on,,,,,4,0,8,,,,,6,,,49,92
24576,note_on,,,,,4,0,6,,,,,4,,,61,92
24576,note_on,,,,,4,0,1,,,,,0,,,65,90
24576,note_on,,,,,4,0,7,,,,,5,,,61,92
24576,note_on,,,,,4,0,4,,,,,2,,,65,108
24576,note_on,,,,,4,0,9,,,,,7,,,61,60
24576,note_on,,,,,4,0,10,,,,,7,,,61,60
24860,note_off,,,,,284,0,8,,,,,6,,,49,0
24860,note_off,,,,,284,0,10,,,,,7,,,61,0
24860,note_off,,,,,284,0,3,,,,,8,,,61,0
24860,note_off,,,,,284,0,9,,,,,7,,,61,0
24860,note_off,,,,,284,0,7,,,,,5,,,61,0
24864,note_on,,,,,4,0,9,,,,,7,,,56,60
24864,note_on,,,,,4,0,8,,,,,6,,,44,92
24864,note_on,,,,,4,0,10,,,,,7,,,56,60
24864,note_on,,,,,4,0,3,,,,,8,,,56,92
24864,note_on,,,,,4,0,7,,,,,5,,,56,92
24956,note_off,,,,,92,0,10,,,,,7,,,56,0
24956,note_off,,,,,92,0,9,,,,,7,,,56,0
24956,note_off,,,,,92,0,3,,,,,8,,,56,0
24956,note_off,,,,,92,0,7,,,,,5,,,56,0
24956,note_off,,,,,92,0,8,,,,,6,,,44,0
24960,note_on,,,,,4,0,3,,,,,8,,,61,92
24960,note_on,,,,,4,0,7,,,,,5,,,61,92
24960,note_on,,,,,4,0,10,,,,,7,,,61,60
24960,note_on,,,,,4,0,8,,,,,6,,,49,92
24960,note_on,,,,,4,0,9,,,,,7,,,61,60
25088,note_off,,,,,512,0,6,,,,,4,,,61,0
25088,note_off,,,,,512,0,4,,,,,2,,,65,0
25088,note_off,,,,,512,0,1,,,,,0,,,65,0
25152,note_on,,,,,64,0,6,,,,,4,,,61,92
25152,note_on,,,,,64,0,4,,,,,2,,,65,108
25152,note_on,,,,,64,0,1,,,,,0,,,65,90
25244,note_off,,,,,284,0,3,,,,,8,,,61,0
25244,note_off,,,,,284,0,8,,,,,6,,,49,0
25244,note_off,,,,,284,0,7,,,,,5,,,61,0
25244,note_off,,,,,284,0,10,,,,,7,,,61,0
25244,note_off,,,,,284,0,9,,,,,7,,,61,0
25248,note_on,,,,,1120,0,2,,,,,1,,,73,90
25248,note_on,,,,,4,0,3,,,,,8,,,59,92
25248,note_on,,,,,4,0,8,,,,,6,,,47,92
25248,note_on,,,,,4,0,7,,,,,5,,,59,92
25248,note_on,,,,,4,0,9,,,,,7,,,59,60
25248,note_on,,,,,4,0,10,,,,,7,,,59,60
25248,note_on,,,,,1120,0,5,,,,,3,,,73,108
25340,note_off,,,,,92,0,7,,,,,5,,,59,0
25340,note_off,,,,,92,0,10,,,,,7,,,59,0
25340,note_off,,,,,92,0,5,,,,,3,,,73,0
25340,note_off,,,,,92,0,2,,,,,1,,,73,0
25340,note_off,,,,,92,0,9,,,,,7,,,59,0
25340,note_off,,,,,188,0,6,,,,,4,,,61,0
25340,note_off,,,,,188,0,1,,,,,0,,,65,0
25340,note_off,,,,,92,0,3,,,,,8,,,59,0
25340,note_off,,,,,92,0,8,,,,,6,,,47,0
25340,note_off,,,,,188,0,4,,,,,2,,,65,0
25344,note_on,,,,,4,0,10,,,,,7,,,58,60
25344,note_on,,,,,4,0,4,,,,,2,,,66,108
25344,note_on,,,,,4,0,1,,,,,0,,,66,90
25344,note_on,,,,,0,0,10,,,,,7,,,66,60
25344,note_on,,,,,4,0,3,,,,,8,,,58,92
25344,note_on,,,,,4,0,9,,,,,7,,,58,60
25344,note_on,,,,,4,0,8,,,,,6,,,46,92
25344,note_on,,,,,4,0,7,,,,,5,,,58,92
25344,note_on,,,,,4,0,6,,,,,4,,,61,92
25344,note_on,,,,,4,0,2,,,,,1,,,78,90
25344,note_on,,,,,4,0,5,,,,,3,,,78,108
25628,note_off,,,,,284,0,5,,,,,3,,,78,0
25628,note_off,,,,,284,0,2,,,,,1,,,78,0
25632,note_on,,,,,4,0,5,,,,,3,,,73,108
25632,note_on,,,,,4,0,2,,,,,1,,,73,90
25664,note_off,,,,,320,0,1,,,,,0,,,66,0
25664,note_off,,,,,320,0,4,,,,,2,,,66,0
25724,note_off,,,,,92,0,2,,,,,1,,,73,0
25724,note_off,,,,,92,0,5,,,,,3,,,73,0
25728,note_on,,,,,4,0,5,,,,,3,,,78,108
25728,note_on,,,,,4,0,2,,,,,1,,,78,90
25856,note_off,,,,,512,0,9,,,,,7,,,58,0
25856,note_off,,,,,512,0,7,,,,,5,,,58,0
25856,note_off,,,,,0,0,10,,,,,7,,,66,0
25856,note_off,,,,,512,0,8,,,,,6,,,46,0
25856,note_off,,,,,512,0,6,,,,,4,,,61,0
25856,note_off,,,,,512,0,3,,,,,8,,,58,0
25856,note_off,,,,,512,0,10,,,,,7,,,58,0
26012,note_off,,,,,284,0,2,,,,,1,,,78,0
26012,note_off,,,,,284,0,5,,,,,3,,,78,0
26016,note_on,,,,,160,0,9,,,,,7,,,54,60
26016,note_on,,,,,160,0,6,,,,,4,,,70,92
26016,note_on,,,,,4,0,2,,,,,1,,,76,90
26016,note_on,,,,,4,0,5,,,,,3,,,76,108
26016,note_on,,,,,160,0,10,,,,,7,,,54,60
26016,note_on,,,,,0,0,10,,,,,7,,,64,60
26016,note_on,,,,,160,0,7,,,,,5,,,54,92
26016,note_on,,,,,160,0,3,,,,,8,,,54,92
26016,note_on,,,,,160,0,8,,,,,6,,,42,92
26108,note_off,,,,,92,0,6,,,,,4,,,70,0
26108,note_off,,,,,92,0,5,,,,,3,,,76,0
26108,note_off,,,,,92,0,9,,,,,7,,,54,0
26108,note_off,,,,,92,0,10,,,,,7,,,54,0
26108,note_off,,,,,0,0,10,,,,,7,,,64,0
26108,note_off,,,,,92,0,8,,,,,6,,,42,0
26108,note_off,,,,,92,0,3,,,,,8,,,54,0
26108,note_off,,,,,92,0,7,,,,,5,,,54,0
26108,note_off,,,,,92,0,2,,,,,1,,,76,0
26112,note_on,,,,,4,0,3,,,,,8,,,59,92
26112,note_on,,,,,4,0,10,,,,,7,,,60,60
26112,note_on,,,,,4,0,7,,,,,5,,,59,92
26112,note_on,,,,,4,0,9,,,,,7,,,59,60
26112,note_on,,,,,4,0,6,,,,,4,,,66,92
26112,note_on,,,,,4,0,5,,,,,3,,,75,108
26112,note_on,,,,,4,0,2,,,,,1,,,75,90
26112,note_on,,,,,4,0,8,,,,,6,,,47,92
26396,note_off,,,,,284,0,9,,,,,7,,,59,0
26396,note_off,,,,,284,0,8,,,,,6,,,47,0
26396,note_off,,,,,284,0,3,,,,,8,,,59,0
26396,note_off,,,,,284,0,10,,,,,7,,,60,0
26396,note_off,,,,,284,0,7,,,,,5,,,59,0
26400,note_on,,,,,4,0,9,,,,,7,,,54,60
26400,note_on,,,,,4,0,8,,,,,6,,,42,92
26400,note_on,,,,,4,0,3,,,,,8,,,54,92
26400,note_on,,,,,4,0,10,,,,,7,,,54,60
26400,note_on,,,,,4,0,7,,,,,5,,,54,92
26492,note_off,,,,,92,0,7,,,,,5,,,54,0
26492,note_off,,,,,92,0,9,,,,,7,,,54,0
26492,note_off,,,,,92,0,3,,,,,8,,,54,0
26492,note_off,,,,,92,0,8,,,,,6,,,42,0
26492,note_off,,,,,92,0,10,,,,,7,,,54,0
26496,note_on,,,,,4,0,10,,,,,7,,,60,60
26496,note_on,,,,,4,0,9,,,,,7,,,59,60
26496,note_on,,,,,4,0,8,,,,,6,,,47,92
26496,note_on,,,,,4,0,7,,,,,5,,,59,92
26496,note_on,,,,,4,0,3,,,,,8,,,59,92
26624,note_off,,,,,512,0,6,,,,,4,,,66,0
26624,note_off,,,,,512,0,5,,,,,3,,,75,0
26624,note_off,,,,,512,0,2,,,,,1,,,75,0
26688,note_on,,,,,64,0,6,,,,,4,,,63,92
26688,note_on,,,,,64,0,5,,,,,3,,,73,108
26688,note_on,,,,,64,0,2,,,,,1,,,73,90
26780,note_off,,,,,284,0,10,,,,,7,,,60,0
26780,note_off,,,,,92,0,5,,,,,3,,,73,0
26780,note_off,,,,,284,0,9,,,,,7,,,59,0
26780,note_off,,,,,92,0,2,,,,,1,,,73,0
26780,note_off,,,,,284,0,3,,,,,8,,,59,0
26780,note_off,,,,,284,0,8,,,,,6,,,47,0
26780,note_off,,,,,284,0,7,,,,,5,,,59,0
26784,note_on,,,,,4,0,9,,,,,7,,,57,60
26784,note_on,,,,,4,0,5,,,,,3,,,71,108
26784,note_on,,,,,4,0,7,,,,,5,,,57,92
26784,note_on,,,,,4,0,3,,,,,8,,,57,92
26784,note_on,,,,,4,0,2,,,,,1,,,71,90
26784,note_on,,,,,4,0,10,,,,,7,,,57,60
26784,note_on,,,,,4,0,8,,,,,6,,,45,92
26876,note_off,,,,,92,0,8,,,,,6,,,45,0
26876,note_off,,,,,92,0,2,,,,,1,,,71,0
26876,note_off,,,,,92,0,7,,,,,5,,,57,0
26876,note_off,,,,,92,0,10,,,,,7,,,57,0
26876,note_off,,,,,188,0,6,,,,,4,,,63,0
26876,note_off,,,,,92,0,9,,,,,7,,,57,0
26876,note_off,,,,,92,0,5,,,,,3,,,71,0
26876,note_off,,,,,92,0,3,,,,,8,,,57,0
26880,note_on,,,,,0,0,10,,,,,7,,,64,60
26880,note_on,,,,,4,0,10,,,,,7,,,56,60
26880,note_on,,,,,4,0,9,,,,,7,,,56,60
26880,note_on,,,,,4,0,8,,,,,6,,,44,92
26880,note_on,,,,,4,0,5,,,,,3,,,76,108
26880,note_on,,,,,4,0,6,,,,,4,,,59,92
26880,note_on,,,,,4,0,7,,,,,5,,,56,92
26880,note_on,,,,,4,0,3,,,,,8,,,56,92
26880,note_on,,,,,4,0,2,,,,,1,,,76,90
27164,note_off,,,,,284,0,5,,,,,3,,,76,0
27164,note_off,,,,,284,0,2,,,,,1,,,76,0
27168,note_on,,,,,4,0,2,,,,,1,,,71,90
27168,note_on,,,,,4,0,5,,,,,3,,,71,108
27260,note_off,,,,,92,0,2,,,,,1,,,71,0
27260,note_off,,,,,92,0,5,,,,,3,,,71,0
27264,note_on,,,,,4,0,2,,,,,1,,,76,90
27264,note_on,,,,,4,0,5,,,,,3,,,76,108
27392,note_off,,,,,512,0,3,,,,,8,,,56,0
27392,note_off,,,,,0,0,10,,,,,7,,,64,0
27392,note_off,,,,,512,0,10,,,,,7,,,56,0
27392,note_off,,,,,512,0,7,,,,,5,,,56,0
27392,note_off,,,,,512,0,6,,,,,4,,,59,0
27392,note_off,,,,,512,0,8,,,,,6,,,44,0
27392,note_off,,,,,512,0,9,,,,,7,,,56,0
27456,note_on,,,,,64,0,3,,,,,8,,,54,92
27456,note_on,,,,,64,0,10,,,,,7,,,54,60
27456,note_on,,,,,64,0,8,,,,,6,,,42,92
27456,note_on,,,,,64,0,9,,,,,7,,,54,60
27456,note_on,,,,,64,0,7,,,,,5,,,54,92
27456,note_on,,,,,64,0,6,,,,,4,,,68,92
27548,note_off,,,,,92,0,7,,,,,5,,,54,0
27548,note_off,,,,,284,0,5,,,,,3,,,76,0
27548,note_off,,,,,284,0,2,,,,,1,,,76,0
27548,note_off,,,,,92,0,3,,,,,8,,,54,0
27548,note_off,,,,,92,0,10,,,,,7,,,54,0
27548,note_off,,,,,92,0,8,,,,,6,,,42,0
27548,note_off,,,,,92,0,9,,,,,7,,,54,0
27552,note_on,,,,,4,0,2,,,,,1,,,74,90
27552,note_on,,,,,4,0,5,,,,,3,,,74,108
27552,note_on,,,,,4,0,8,,,,,6,,,40,92
27552,note_on,,,,,4,0,10,,,,,7,,,52,60
27552,note_on,,,,,4,0,3,,,,,8,,,52,92
27552,note_on,,,,,4,0,9,,,,,7,,,52,60
27552,note_on,,,,,4,0,7,,,,,5,,,52,92
27644,note_off,,,,,92,0,7,,,,,5,,,52,0
27644,note_off,,,,,92,0,5,,,,,3,,,74,0
27644,note_off,,,,,188,0,6,,,,,4,,,68,0
27644,note_off,,,,,92,0,3,,,,,8,,,52,0
27644,note_off,,,,,92,0,2,,,,,1,,,74,0
27644,note_off,,,,,92,0,9,,,,,7,,,52,0
27644,note_off,,,,,92,0,10,,,,,7,,,52,0
27644,note_off,,,,,92,0,8,,,,,6,,,40,0
27648,note_on,,,,,4,0,6,,,,,4,,,64,92
27648,note_on,,,,,4,0,3,,,,,8,,,57,92
27648,note_on,,,,,4,0,7,,,,,5,,,57,92
27648,note_on,,,,,4,0,2,,,,,1,,,73,90
27648,note_on,,,,,4,0,9,,,,,7,,,57,60
27648,note_on,,,,,4,0,10,,,,,7,,,57,60
27648,note_on,,,,,4,0,8,,,,,6,,,45,92
27648,note_on,,,,,4,0,5,,,,,3,,,73,108
27932,note_off,,,,,284,0,7,,,,,5,,,57,0
27932,note_off,,,,,284,0,10,,,,,7,,,57,0
27932,note_off,,,,,284,0,3,,,,,8,,,57,0
27932,note_off,,,,,284,0,8,,,,,6,,,45,0
27932,note_off,,,,,284,0,9,,,,,7,,,57,0
27932,note_off,,,,,284,0,6,,,,,4,,,64,0
27936,note_on,,,,,4,0,3,,,,,8,,,52,92
27936,note_on,,,,,4,0,7,,,,,5,,,52,92
27936,note_on,,,,,4,0,6,,,,,4,,,68,92
27936,note_on,,,,,4,0,10,,,,,7,,,52,60
27936,note_on,,,,,4,0,8,,,,,6,,,40,92
27936,note_on,,,,,4,0,9,,,,,7,,,52,60
28028,note_off,,,,,92,0,3,,,,,8,,,52,0
28028,note_off,,,,,92,0,10,,,,,7,,,52,0
28028,note_off,,,,,92,0,9,,,,,7,,,52,0
28028,note_off,,,,,92,0,7,,,,,5,,,52,0
28028,note_off,,,,,92,0,6,,,,,4,,,68,0
28028,note_off,,,,,92,0,8,,,,,6,,,40,0
28032,note_on,,,,,4,0,6,,,,,4,,,73,92
28032,note_on,,,,,4,0,3,,,,,8,,,57,92
28032,note_on,,,,,4,0,8,,,,,6,,,45,92
28032,note_on,,,,,4,0,7,,,,,5,,,57,92
28032,note_on,,,,,4,0,10,,,,,7,,,57,60
28032,note_on,,,,,4,0,9,,,,,7,,,57,60
28160,note_off,,,,,512,0,2,,,,,1,,,73,0
28160,note_off,,,,,512,0,5,,,,,3,,,73,0
28316,note_off,,,,,284,0,3,,,,,8,,,57,0
28316,note_off,,,,,284,0,8,,,,,6,,,45,0
28316,note_off,,,,,284,0,6,,,,,4,,,73,0
28316,note_off,,,,,284,0,7,,,,,5,,,57,0
28316,note_off,,,,,284,0,9,,,,,7,,,57,0
28316,note_off,,,,,284,0,10,,,,,7,,,57,0
28320,note_on,,,,,4,0,7,,,,,5,,,56,92
28320,note_on,,,,,160,0,2,,,,,1,,,76,90
28320,note_on,,,,,4,0,3,,,,,8,,,56,92
28320,note_on,,,,,4,0,8,,,,,6,,,44,92
28320,note_on,,,,,4,0,9,,,,,7,,,56,60
28320,note_on,,,,,160,0,5,,,,,3,,,76,108
28320,note_on,,,,,4,0,6,,,,,4,,,71,92
28320,note_on,,,,,4,0,10,,,,,7,,,56,60
28412,note_off,,,,,92,0,5,,,,,3,,,76,0
28412,note_off,,,,,92,0,9,,,,,7,,,56,0
28412,note_off,,,,,92,0,8,,,,,6,,,44,0
28412,note_off,,,,,92,0,7,,,,,5,,,56,0
28412,note_off,,,,,92,0,3,,,,,8,,,56,0
28412,note_off,,,,,92,0,2,,,,,1,,,76,0
28412,note_off,,,,,92,0,6,,,,,4,,,71,0
28412,note_off,,,,,92,0,10,,,,,7,,,56,0
28416,note_on,,,,,4,0,9,,,,,7,,,54,60
28416,note_on,,,,,4,0,8,,,,,6,,,42,92
28416,note_on,,,,,4,0,6,,,,,4,,,69,92
28416,note_on,,,,,4,0,5,,,,,3,,,81,108
28416,note_on,,,,,4,0,7,,,,,5,,,54,92
28416,note_on,,,,,4,0,3,,,,,8,,,54,92
28416,note_on,,,,,4,0,2,,,,,1,,,81,90
28416,note_on,,,,,4,0,10,,,,,7,,,54,60
28700,note_off,,,,,284,0,3,,,,,8,,,54,0
28700,note_off,,,,,284,0,9,,,,,7,,,54,0
28700,note_off,,,,,284,0,10,,,,,7,,,54,0
28700,note_off,,,,,284,0,5,,,,,3,,,81,0
28700,note_off,,,,,284,0,8,,,,,6,,,42,0
28700,note_off,,,,,284,0,7,,,,,5,,,54,0
28700,note_off,,,,,284,0,2,,,,,1,,,81,0
28704,note_on,,,,,4,0,3,,,,,8,,,49,92
28704,note_on,,,,,4,0,9,,,,,7,,,49,60
28704,note_on,,,,,4,0,8,,,,,6,,,37,92
28704,note_on,,,,,4,0,2,,,,,1,,,76,90
28704,note_on,,,,,4,0,5,,,,,3,,,76,108
28704,note_on,,,,,4,0,10,,,,,7,,,49,60
28704,note_on,,,,,4,0,7,,,,,5,,,49,92
28796,note_off,,,,,92,0,5,,,,,3,,,76,0
28796,note_off,,,,,92,0,8,,,,,6,,,37,0
28796,note_off,,,,,92,0,10,,,,,7,,,49,0
28796,note_off,,,,,92,0,3,,,,,8,,,49,0
28796,note_off,,,,,92,0,9,,,,,7,,,49,0
28796,note_off,,,,,92,0,2,,,,,1,,,76,0
28796,note_off,,,,,92,0,7,,,,,5,,,49,0
28800,note_on,,,,,4,0,10,,,,,7,,,54,60
28800,note_on,,,,,4,0,8,,,,,6,,,42,92
28800,note_on,,,,,4,0,2,,,,,1,,,81,90
28800,note_on,,,,,4,0,9,,,,,7,,,54,60
28800,note_on,,,,,4,0,7,,,,,5,,,54,92
28800,note_on,,,,,4,0,3,,,,,8,,,54,92
28800,note_on,,,,,4,0,5,,,,,3,,,81,108
28928,note_off,,,,,512,0,6,,,,,4,,,69,0
28992,note_on,,,,,64,0,6,,,,,4,,,69,92
29084,note_off,,,,,284,0,8,,,,,6,,,42,0
29084,note_off,,,,,284,0,5,,,,,3,,,81,0
29084,note_off,,,,,284,0,3,,,,,8,,,54,0
29084,note_off,,,,,284,0,7,,,,,5,,,54,0
29084,note_off,,,,,284,0,2,,,,,1,,,81,0
29084,note_off,,,,,284,0,9,,,,,7,,,54,0
29084,note_off,,,,,284,0,10,,,,,7,,,54,0
29088,note_on,,,,,4,0,3,,,,,8,,,52,92
29088,note_on,,,,,4,0,8,,,,,6,,,40,92
29088,note_on,,,,,4,0,2,,,,,1,,,80,90
29088,note_on,,,,,4,0,5,,,,,3,,,80,108
29088,note_on,,,,,4,0,9,,,,,7,,,52,60
29088,note_on,,,,,4,0,7,,,,,5,,,52,92
29088,note_on,,,,,4,0,10,,,,,7,,,52,60
29180,note_off,,,,,92,0,10,,,,,7,,,52,0
29180,note_off,,,,,92,0,3,,,,,8,,,52,0
29180,note_off,,,,,188,0,6,,,,,4,,,69,0
29180,note_off,,,,,92,0,7,,,,,5,,,52,0
29180,note_off,,,,,92,0,9,,,,,7,,,52,0
29180,note_off,,,,,92,0,8,,,,,6,,,40,0
29180,note_off,,,,,92,0,5,,,,,3,,,80,0
29180,note_off,,,,,92,0,2,,,,,1,,,80,0
29184,note_on,,,,,4,0,6,,,,,4,,,69,92
29184,note_on,,,,,4,0,9,,,,,7,,,50,60
29184,note_on,,,,,4,0,10,,,,,7,,,50,60
29184,note_on,,,,,4,0,3,,,,,8,,,50,92
29184,note_on,,,,,4,0,7,,,,,5,,,50,92
29184,note_on,,,,,4,0,5,,,,,3,,,78,108
29184,note_on,,,,,4,0,2,,,,,1,,,78,90
29184,note_on,,,,,4,0,8,,,,,6,,,38,92
29308,note_off,,,,,124,0,2,,,,,1,,,78,0
29308,note_off,,,,,124,0,5,,,,,3,,,78,0
29312,note_on,,,,,4,0,2,,,,,1,,,80,90
29312,note_on,,,,,4,0,5,,,,,3,,,80,108
29436,note_off,,,,,124,0,2,,,,,1,,,80,0
29436,note_off,,,,,124,0,5,,,,,3,,,80,0
29440,note_on,,,,,4,0,2,,,,,1,,,81,90
29440,note_on,,,,,4,0,5,,,,,3,,,81,108
29468,note_off,,,,,284,0,10,,,,,7,,,50,0
29468,note_off,,,,,284,0,9,,,,,7,,,50,0
29468,note_off,,,,,284,0,3,,,,,8,,,50,0
29468,note_off,,,,,284,0,7,,,,,5,,,50,0
29468,note_off,,,,,284,0,8,,,,,6,,,38,0
29472,note_on,,,,,4,0,9,,,,,7,,,50,60
29472,note_on,,,,,4,0,7,,,,,5,,,50,92
29472,note_on,,,,,4,0,8,,,,,6,,,38,92
29472,note_on,,,,,4,0,3,,,,,8,,,50,92
29472,note_on,,,,,4,0,10,,,,,7,,,50,60
29564,note_off,,,,,124,0,5,,,,,3,,,81,0
29564,note_off,,,,,124,0,2,,,,,1,,,81,0
29564,note_off,,,,,92,0,10,,,,,7,,,50,0
29564,note_off,,,,,92,0,9,,,,,7,,,50,0
29564,note_off,,,,,92,0,3,,,,,8,,,50,0
29564,note_off,,,,,92,0,8,,,,,6,,,38,0
29564,note_off,,,,,92,0,7,,,,,5,,,50,0
29568,note_on,,,,,4,0,10,,,,,7,,,49,60
29568,note_on,,,,,4,0,8,,,,,6,,,37,92
29568,note_on,,,,,4,0,5,,,,,3,,,76,108
29568,note_on,,,,,4,0,9,,,,,7,,,49,60
29568,note_on,,,,,0,0,10,,,,,7,,,57,60
29568,note_on,,,,,4,0,2,,,,,1,,,76,90
29568,note_on,,,,,4,0,7,,,,,5,,,49,92
29568,note_on,,,,,4,0,3,,,,,8,,,49,92
29696,note_off,,,,,512,0,6,,,,,4,,,69,0
29760,note_on,,,,,64,0,6,,,,,4,,,69,92
29852,note_off,,,,,284,0,8,,,,,6,,,37,0
29852,note_off,,,,,284,0,9,,,,,7,,,49,0
29852,note_off,,,,,284,0,3,,,,,8,,,49,0
29852,note_off,,,,,284,0,2,,,,,1,,,76,0
29852,note_off,,,,,284,0,10,,,,,7,,,49,0
29852,note_off,,,,,284,0,7,,,,,5,,,49,0
29852,note_off,,,,,284,0,5,,,,,3,,,76,0
29852,note_off,,,,,0,0,10,,,,,7,,,57,0
29856,note_on,,,,,4,0,3,,,,,8,,,49,92
29856,note_on,,,,,4,0,5,,,,,3,,,81,108
29856,note_on,,,,,4,0,2,,,,,1,,,81,90
29856,note_on,,,,,4,0,10,,,,,7,,,49,60
29856,note_on,,,,,4,0,8,,,,,6,,,37,92
29856,note_on,,,,,4,0,9,,,,,7,,,49,60
29856,note_on,,,,,4,0,7,,,,,5,,,49,92
29948,note_off,,,,,92,0,9,,,,,7,,,49,0
29948,note_off,,,,,92,0,3,,,,,8,,,49,0
29948,note_off,,,,,92,0,10,,,,,7,,,49,0
29948,note_off,,,,,92,0,5,,,,,3,,,81,0
29948,note_off,,,,,92,0,7,,,,,5,,,49,0
29948,note_off,,,,,92,0,2,,,,,1,,,81,0
29948,note_off,,,,,188,0,6,,,,,4,,,69,0
29948,note_off,,,,,92,0,8,,,,,6,,,37,0
29952,note_on,,,,,0,0,10,,,,,7,,,57,60
29952,note_on,,,,,4,0,10,,,,,7,,,47,60
29952,note_on,,,,,4,0,8,,,,,6,,,35,92
29952,note_on,,,,,4,0,7,,,,,5,,,47,92
29952,note_on,,,,,4,0,5,,,,,3,,,74,108
29952,note_on,,,,,4,0,3,,,,,8,,,47,92
29952,note_on,,,,,4,0,9,,,,,7,,,47,60
29952,note_on,,,,,4,0,2,,,,,1,,,74,90
29952,note_on,,,,,4,0,6,,,,,4,,,69,92
30272,note_off,,,,,320,0,7,,,,,5,,,47,0
30272,note_off,,,,,320,0,9,,,,,7,,,47,0
30272,note_off,,,,,320,0,8,,,,,6,,,35,0
30272,note_off,,,,,320,0,6,,,,,4,,,69,0
30272,note_off,,,,,0,0,10,,,,,7,,,57,0
30272,note_off,,,,,320,0,10,,,,,7,,,47,0
30272,note_off,,,,,320,0,3,,,,,8,,,47,0
30336,note_on,,,,,64,0,6,,,,,4,,,68,92
30336,note_on,,,,,64,0,7,,,,,5,,,52,92
30336,note_on,,,,,64,0,3,,,,,8,,,52,92
30336,note_on,,,,,0,0,10,,,,,7,,,62,60
30336,note_on,,,,,64,0,9,,,,,7,,,52,60
30336,note_on,,,,,64,0,10,,,,,7,,,53,60
30336,note_on,,,,,64,0,8,,,,,6,,,40,92
30624,note_off,,,,,672,0,2,,,,,1,,,74,0
30624,note_off,,,,,672,0,5,,,,,3,,,74,0
30656,note_off,,,,,320,0,7,,,,,5,,,52,0
30656,note_off,,,,,320,0,8,,,,,6,,,40,0
30656,note_off,,,,,0,0,10,,,,,7,,,62,0
30656,note_off,,,,,320,0,10,,,,,7,,,53,0
30656,note_off,,,,,320,0,9,,,,,7,,,52,0
30656,note_off,,,,,320,0,6,,,,,4,,,68,0
30656,note_off,,,,,320,0,3,,,,,8,,,52,0
30720,note_on,,,,,64,0,9,,,,,7,,,45,60
30720,note_on,,,,,96,0,5,,,,,3,,,73,108
30720,note_on,,,,,64,0,8,,,,,6,,,33,92
30720,note_on,,,,,64,0,6,,,,,4,,,69,92
30720,note_on,,,,,96,0,2,,,,,1,,,73,90
30720,note_on,,,,,64,0,10,,,,,7,,,45,60
30720,note_on,,,,,5056,0,4,,,,,2,,,69,108
30720,note_on,,,,,64,0,7,,,,,5,,,45,92
30720,note_on,,,,,5056,0,1,,,,,0,,,69,90
30720,note_on,,,,,64,0,3,,,,,8,,,45,92
31004,note_off,,,,,284,0,2,,,,,1,,,73,0
31004,note_off,,,,,284,0,4,,,,,2,,,69,0
31004,note_off,,,,,284,0,5,,,,,3,,,73,0
31004,note_off,,,,,284,0,1,,,,,0,,,69,0
31008,note_on,,,,,4,0,1,,,,,0,,,69,90
31008,note_on,,,,,4,0,5,,,,,3,,,85,108
31008,note_on,,,,,4,0,4,,,,,2,,,69,108
31008,note_on,,,,,4,0,2,,,,,1,,,85,90
31040,note_off,,,,,320,0,3,,,,,8,,,45,0
31040,note_off,,,,,320,0,9,,,,,7,,,45,0
31040,note_off,,,,,320,0,10,,,,,7,,,45,0
31040,note_off,,,,,320,0,6,,,,,4,,,69,0
31040,note_off,,,,,320,0,8,,,,,6,,,33,0
31040,note_off,,,,,320,0,7,,,,,5,,,45,0
31100,note_off,,,,,92,0,2,,,,,1,,,85,0
31100,note_off,,,,,92,0,1,,,,,0,,,69,0
31100,note_off,,,,,92,0,5,,,,,3,,,85,0
31100,note_off,,,,,92,0,4,,,,,2,,,69,0
31104,note_on,,,,,4,0,2,,,,,1,,,83,90
31104,note_on,,,,,4,0,1,,,,,0,,,71,90
31104,note_on,,,,,4,0,5,,,,,3,,,83,108
31104,note_on,,,,,4,0,4,,,,,2,,,71,108
31388,note_off,,,,,284,0,4,,,,,2,,,71,0
31388,note_off,,,,,284,0,1,,,,,0,,,71,0
31388,note_off,,,,,284,0,2,,,,,1,,,83,0
31388,note_off,,,,,284,0,5,,,,,3,,,83,0
31392,note_on,,,,,4,0,4,,,,,2,,,71,108
31392,note_on,,,,,4,0,1,,,,,0,,,71,90
31392,note_on,,,,,4,0,2,,,,,1,,,83,90
31392,note_on,,,,,4,0,5,,,,,3,,,83,108
31484,note_off,,,,,92,0,1,,,,,0,,,71,0
31484,note_off,,,,,92,0,5,,,,,3,,,83,0
31484,note_off,,,,,92,0,2,,,,,1,,,83,0
31484,note_off,,,,,92,0,4,,,,,2,,,71,0
31488,note_on,,,,,4,0,5,,,,,3,,,81,108
31488,note_on,,,,,4,0,2,,,,,1,,,81,90
31488,note_on,,,,,4,0,1,,,,,0,,,73,90
31488,note_on,,,,,4,0,4,,,,,2,,,73,108
31772,note_off,,,,,284,0,1,,,,,0,,,73,0
31772,note_off,,,,,284,0,4,,,,,2,,,73,0
31776,note_on,,,,,4,0,4,,,,,2,,,76,108
31776,note_on,,,,,4,0,1,,,,,0,,,76,90
31868,note_off,,,,,92,0,1,,,,,0,,,76,0
31868,note_off,,,,,92,0,4,,,,,2,,,76,0
31872,note_on,,,,,4,0,1,,,,,0,,,69,90
31872,note_on,,,,,4,0,4,,,,,2,,,69,108
32000,note_off,,,,,512,0,2,,,,,1,,,81,0
32000,note_off,,,,,512,0,5,,,,,3,,,81,0
32156,note_off,,,,,284,0,1,,,,,0,,,69,0
32156,note_off,,,,,284,0,4,,,,,2,,,69,0
32160,note_on,,,,,4,0,4,,,,,2,,,69,108
32160,note_on,,,,,160,0,2,,,,,1,,,81,90
32160,note_on,,,,,160,0,5,,,,,3,,,81,108
32160,note_on,,,,,4,0,1,,,,,0,,,69,90
32252,note_off,,,,,92,0,2,,,,,1,,,81,0
32252,note_off,,,,,92,0,4,,,,,2,,,69,0
32252,note_off,,,,,92,0,1,,,,,0,,,69,0
32252,note_off,,,,,92,0,5,,,,,3,,,81,0
32256,note_on,,,,,4,0,5,,,,,3,,,81,108
32256,note_on,,,,,4,0,2,,,,,1,,,81,90
32256,note_on,,,,,4,0,4,,,,,2,,,71,108
32256,note_on,,,,,4,0,1,,,,,0,,,71,90
32348,note_off,,,,,92,0,2,,,,,1,,,81,0
32348,note_off,,,,,92,0,5,,,,,3,,,81,0
32352,note_on,,,,,4,0,5,,,,,3,,,79,108
32352,note_on,,,,,4,0,2,,,,,1,,,79,90
32444,note_off,,,,,92,0,2,,,,,1,,,79,0
32444,note_off,,,,,92,0,5,,,,,3,,,79,0
32448,note_on,,,,,4,0,5,,,,,3,,,81,108
32448,note_on,,,,,4,0,2,,,,,1,,,81,90
32540,note_off,,,,,92,0,5,,,,,3,,,81,0
32540,note_off,,,,,284,0,1,,,,,0,,,71,0
32540,note_off,,,,,284,0,4,,,,,2,,,71,0
32540,note_off,,,,,92,0,2,,,,,1,,,81,0
32544,note_on,,,,,4,0,5,,,,,3,,,79,108
32544,note_on,,,,,4,0,1,,,,,0,,,71,90
32544,note_on,,,,,4,0,4,,,,,2,,,71,108
32544,note_on,,,,,4,0,2,,,,,1,,,79,90
32636,note_off,,,,,92,0,1,,,,,0,,,71,0
32636,note_off,,,,,92,0,2,,,,,1,,,79,0
32636,note_off,,,,,92,0,5,,,,,3,,,79,0
32636,note_off,,,,,92,0,4,,,,,2,,,71,0
32640,note_on,,,,,4,0,1,,,,,0,,,73,90
32640,note_on,,,,,4,0,4,,,,,2,,,73,108
32640,note_on,,,,,4,0,5,,,,,3,,,81,108
32640,note_on,,,,,4,0,2,,,,,1,,,81,90
32732,note_off,,,,,92,0,5,,,,,3,,,81,0
32732,note_off,,,,,92,0,2,,,,,1,,,81,0
32736,note_on,,,,,4,0,5,,,,,3,,,79,108
32736,note_on,,,,,4,0,2,,,,,1,,,79,90
32828,note_off,,,,,92,0,2,,,,,1,,,79,0
32828,note_off,,,,,92,0,5,,,,,3,,,79,0
32832,note_on,,,,,4,0,2,,,,,1,,,78,90
32832,note_on,,,,,4,0,5,,,,,3,,,78,108
32924,note_off,,,,,92,0,2,,,,,1,,,78,0
32924,note_off,,,,,284,0,1,,,,,0,,,73,0
32924,note_off,,,,,284,0,4,,,,,2,,,73,0
32924,note_off,,,,,92,0,5,,,,,3,,,78,0
32928,note_on,,,,,4,0,4,,,,,2,,,73,108
32928,note_on,,,,,4,0,1,,,,,0,,,73,90
32928,note_on,,,,,4,0,5,,,,,3,,,79,108
32928,note_on,,,,,4,0,2,,,,,1,,,79,90
33020,note_off,,,,,92,0,1,,,,,0,,,73,0
33020,note_off,,,,,92,0,5,,,,,3,,,79,0
33020,note_off,,,,,92,0,4,,,,,2,,,73,0
33020,note_off,,,,,92,0,2,,,,,1,,,79,0
33024,note_on,,,,,4,0,2,,,,,1,,,78,90
33024,note_on,,,,,4,0,1,,,,,0,,,74,90
33024,note_on,,,,,4,0,4,,,,,2,,,74,108
33024,note_on,,,,,4,0,5,,,,,3,,,78,108
33308,note_off,,,,,284,0,1,,,,,0,,,74,0
33308,note_off,,,,,284,0,4,,,,,2,,,74,0
33312,note_on,,,,,4,0,1,,,,,0,,,78,90
33312,note_on,,,,,4,0,4,,,,,2,,,78,108
33344,note_off,,,,,320,0,5,,,,,3,,,78,0
33344,note_off,,,,,320,0,2,,,,,1,,,78,0
33404,note_off,,,,,92,0,4,,,,,2,,,78,0
33404,note_off,,,,,92,0,1,,,,,0,,,78,0
33408,note_on,,,,,64,0,5,,,,,3,,,86,108
33408,note_on,,,,,4,0,4,,,,,2,,,71,108
33408,note_on,,,,,64,0,2,,,,,1,,,86,90
33408,note_on,,,,,4,0,1,,,,,0,,,71,90
33692,note_off,,,,,284,0,4,,,,,2,,,71,0
33692,note_off,,,,,284,0,1,,,,,0,,,71,0
33696,note_on,,,,,4,0,4,,,,,2,,,74,108
33696,note_on,,,,,4,0,1,,,,,0,,,74,90
33788,note_off,,,,,92,0,4,,,,,2,,,74,0
33788,note_off,,,,,92,0,1,,,,,0,,,74,0
33792,note_on,,,,,4,0,4,,,,,2,,,68,108
33792,note_on,,,,,4,0,1,,,,,0,,,68,90
34076,note_off,,,,,668,0,5,,,,,3,,,86,0
34076,note_off,,,,,284,0,4,,,,,2,,,68,0
34076,note_off,,,,,668,0,2,,,,,1,,,86,0
34076,note_off,,,,,284,0,1,,,,,0,,,68,0
34080,note_on,,,,,4,0,2,,,,,1,,,86,90
34080,note_on,,,,,4,0,5,,,,,3,,,86,108
34080,note_on,,,,,4,0,4,,,,,2,,,71,108
34080,note_on,,,,,4,0,1,,,,,0,,,71,90
34172,note_off,,,,,92,0,4,,,,,2,,,71,0
34172,note_off,,,,,92,0,5,,,,,3,,,86,0
34172,note_off,,,,,92,0,2,,,,,1,,,86,0
34172,note_off,,,,,92,0,1,,,,,0,,,71,0
34176,note_on,,,,,4,0,4,,,,,2,,,64,108
34176,note_on,,,,,4,0,2,,,,,1,,,85,90
34176,note_on,,,,,4,0,1,,,,,0,,,64,90
34176,note_on,,,,,4,0,5,,,,,3,,,85,108
34460,note_off,,,,,284,0,5,,,,,3,,,85,0
34460,note_off,,,,,284,0,4,,,,,2,,,64,0
34460,note_off,,,,,284,0,2,,,,,1,,,85,0
34460,note_off,,,,,284,0,1,,,,,0,,,64,0
34464,note_on,,,,,4,0,2,,,,,1,,,83,90
34464,note_on,,,,,4,0,1,,,,,0,,,68,90
34464,note_on,,,,,4,0,4,,,,,2,,,68,108
34464,note_on,,,,,4,0,5,,,,,3,,,83,108
34556,note_off,,,,,92,0,4,,,,,2,,,68,0
34556,note_off,,,,,92,0,5,,,,,3,,,83,0
34556,note_off,,,,,92,0,1,,,,,0,,,68,0
34556,note_off,,,,,92,0,2,,,,,1,,,83,0
34560,note_on,,,,,4,0,5,,,,,3,,,85,108
34560,note_on,,,,,4,0,2,,,,,1,,,85,90
34560,note_on,,,,,4,0,4,,,,,2,,,69,108
34560,note_on,,,,,4,0,1,,,,,0,,,69,90
34844,note_off,,,,,284,0,4,,,,,2,,,69,0
34844,note_off,,,,,284,0,1,,,,,0,,,69,0
34844,note_off,,,,,284,0,5,,,,,3,,,85,0
34844,note_off,,,,,284,0,2,,,,,1,,,85,0
34848,note_on,,,,,4,0,1,,,,,0,,,71,90
34848,note_on,,,,,4,0,4,,,,,2,,,71,108
34848,note_on,,,,,4,0,5,,,,,3,,,83,108
34848,note_on,,,,,4,0,2,,,,,1,,,83,90
34940,note_off,,,,,92,0,1,,,,,0,,,71,0
34940,note_off,,,,,92,0,4,,,,,2,,,71,0
34940,note_off,,,,,92,0,5,,,,,3,,,83,0
34940,note_off,,,,,92,0,2,,,,,1,,,83,0
34944,note_on,,,,,4,0,4,,,,,2,,,73,108
34944,note_on,,,,,4,0,5,,,,,3,,,81,108
34944,note_on,,,,,4,0,2,,,,,1,,,81,90
34944,note_on,,,,,4,0,1,,,,,0,,,73,90
35228,note_off,,,,,284,0,2,,,,,1,,,81,0
35228,note_off,,,,,284,0,1,,,,,0,,,73,0
35228,note_off,,,,,284,0,5,,,,,3,,,81,0
35228,note_off,,,,,284,0,4,,,,,2,,,73,0
35232,note_on,,,,,4,0,2,,,,,1,,,83,90
35232,note_on,,,,,4,0,5,,,,,3,,,83,108
35232,note_on,,,,,4,0,1,,,,,0,,,74,90
35232,note_on,,,,,4,0,4,,,,,2,,,74,108
35324,note_off,,,,,92,0,2,,,,,1,,,83,0
35324,note_off,,,,,92,0,5,,,,,3,,,83,0
35324,note_off,,,,,92,0,1,,,,,0,,,74,0
35324,note_off,,,,,92,0,4,,,,,2,,,74,0
35328,note_on,,,,,4,0,5,,,,,3,,,80,108
35328,note_on,,,,,4,0,4,,,,,2,,,76,108
35328,note_on,,,,,4,0,1,,,,,0,,,76,90
35328,note_on,,,,,4,0,2,,,,,1,,,80,90
35612,note_off,,,,,284,0,4,,,,,2,,,76,0
35612,note_off,,,,,284,0,1,,,,,0,,,76,0
35616,note_on,,,,,4,0,4,,,,,2,,,71,108
35616,note_on,,,,,4,0,1,,,,,0,,,71,90
35708,note_off,,,,,92,0,4,,,,,2,,,71,0
35708,note_off,,,,,92,0,1,,,,,0,,,71,0
35712,note_on,,,,,4,0,1,,,,,0,,,76,90
35712,note_on,,,,,4,0,4,,,,,2,,,76,108
35996,note_off,,,,,284,0,1,,,,,0,,,76,0
35996,note_off,,,,,284,0,4,,,,,2,,,76,0
36000,note_on,,,,,4,0,4,,,,,2,,,74,108
36000,note_on,,,,,4,0,1,,,,,0,,,74,90
36000,note_off,,,,,672,0,5,,,,,3,,,80,0
36000,note_off,,,,,672,0,2,,,,,1,,,80,0
36092,note_off,,,,,92,0,1,,,,,0,,,74,0
36092,note_off,,,,,92,0,4,,,,,2,,,74,0
36096,note_on,,,,,96,0,2,,,,,1,,,81,90
36096,note_on,,,,,4,0,1,,,,,0,,,73,90
36096,note_on,,,,,4,0,4,,,,,2,,,73,108
36096,note_on,,,,,96,0,5,,,,,3,,,81,108
36380,note_off,,,,,284,0,1,,,,,0,,,73,0
36380,note_off,,,,,284,0,5,,,,,3,,,81,0
36380,note_off,,,,,284,0,4,,,,,2,,,73,0
36380,note_off,,,,,284,0,2,,,,,1,,,81,0
36384,note_on,,,,,4,0,5,,,,,3,,,76,108
36384,note_on,,,,,4,0,2,,,,,1,,,76,90
36384,note_on,,,,,4,0,4,,,,,2,,,76,108
36384,note_on,,,,,4,0,1,,,,,0,,,76,90
36476,note_off,,,,,92,0,4,,,,,2,,,76,0
36476,note_off,,,,,92,0,2,,,,,1,,,76,0
36476,note_off,,,,,92,0,1,,,,,0,,,76,0
36476,note_off,,,,,92,0,5,,,,,3,,,76,0
36480,note_on,,,,,4,0,5,,,,,3,,,73,108
36480,note_on,,,,,4,0,2,,,,,1,,,73,90
36480,note_on,,,,,4,0,4,,,,,2,,,81,108
36480,note_on,,,,,4,0,1,,,,,0,,,81,90
36764,note_off,,,,,284,0,5,,,,,3,,,73,0
36764,note_off,,,,,284,0,1,,,,,0,,,81,0
36764,note_off,,,,,284,0,2,,,,,1,,,73,0
36764,note_off,,,,,284,0,4,,,,,2,,,81,0
36768,note_on,,,,,4,0,1,,,,,0,,,79,90
36768,note_on,,,,,4,0,5,,,,,3,,,76,108
36768,note_on,,,,,4,0,4,,,,,2,,,79,108
36768,note_on,,,,,4,0,2,,,,,1,,,76,90
36860,note_off,,,,,92,0,4,,,,,2,,,79,0
36860,note_off,,,,,92,0,2,,,,,1,,,76,0
36860,note_off,,,,,92,0,1,,,,,0,,,79,0
36860,note_off,,,,,92,0,5,,,,,3,,,76,0
36864,note_on,,,,,5824,0,7,,,,,5,,,50,92
36864,note_on,,,,,5824,0,10,,,,,7,,,50,60
36864,note_on,,,,,5824,0,8,,,,,6,,,38,92
36864,note_on,,,,,5824,0,3,,,,,8,,,50,92
36864,note_on,,,,,4,0,1,,,,,0,,,78,90
36864,note_on,,,,,5824,0,6,,,,,4,,,66,92
36864,note_on,,,,,5824,0,9,,,,,7,,,50,60
36864,note_on,,,,,4,0,4,,,,,2,,,78,108
36864,note_on,,,,,4,0,2,,,,,1,,,69,90
36864,note_on,,,,,4,0,5,,,,,3,,,69,108
36988,note_off,,,,,124,0,2,,,,,1,,,69,0
36988,note_off,,,,,124,0,4,,,,,2,,,78,0
36988,note_off,,,,,124,0,5,,,,,3,,,69,0
36988,note_off,,,,,124,0,1,,,,,0,,,78,0
36992,note_on,,,,,4,0,4,,,,,2,,,79,108
36992,note_on,,,,,4,0,2,,,,,1,,,71,90
36992,note_on,,,,,4,0,1,,,,,0,,,79,90
36992,note_on,,,,,4,0,5,,,,,3,,,71,108
37116,note_off,,,,,124,0,5,,,,,3,,,71,0
37116,note_off,,,,,124,0,4,,,,,2,,,79,0
37116,note_off,,,,,124,0,1,,,,,0,,,79,0
37116,note_off,,,,,124,0,2,,,,,1,,,71,0
37120,note_on,,,,,4,0,4,,,,,2,,,78,108
37120,note_on,,,,,4,0,2,,,,,1,,,69,90
37120,note_on,,,,,4,0,1,,,,,0,,,78,90
37120,note_on,,,,,4,0,5,,,,,3,,,69,108
37148,note_off,,,,,284,0,6,,,,,4,,,66,0
37148,note_off,,,,,284,0,9,,,,,7,,,50,0
37148,note_off,,,,,284,0,3,,,,,8,,,50,0
37148,note_off,,,,,284,0,10,,,,,7,,,50,0
37148,note_off,,,,,284,0,8,,,,,6,,,38,0
37148,note_off,,,,,284,0,7,,,,,5,,,50,0
37152,note_on,,,,,4,0,8,,,,,6,,,38,92
37152,note_on,,,,,4,0,3,,,,,8,,,50,92
37152,note_on,,,,,4,0,7,,,,,5,,,50,92
37152,note_on,,,,,4,0,9,,,,,7,,,50,60
37152,note_on,,,,,4,0,10,,,,,7,,,50,60
37152,note_on,,,,,4,0,6,,,,,4,,,66,92
37244,note_off,,,,,92,0,8,,,,,6,,,38,0
37244,note_off,,,,,124,0,5,,,,,3,,,69,0
37244,note_off,,,,,124,0,1,,,,,0,,,78,0
37244,note_off,,,,,124,0,2,,,,,1,,,69,0
37244,note_off,,,,,92,0,3,,,,,8,,,50,0
37244,note_off,,,,,124,0,4,,,,,2,,,78,0
37244,note_off,,,,,92,0,6,,,,,4,,,66,0
37244,note_off,,,,,92,0,7,,,,,5,,,50,0
37244,note_off,,,,,92,0,10,,,,,7,,,50,0
37244,note_off,,,,,92,0,9,,,,,7,,,50,0
37248,note_on,,,,,4,0,9,,,,,7,,,52,60
37248,note_on,,,,,4,0,5,,,,,3,,,67,108
37248,note_on,,,,,4,0,2,,,,,1,,,67,90
37248,note_on,,,,,4,0,3,,,,,8,,,52,92
37248,note_on,,,,,4,0,7,,,,,5,,,52,92
37248,note_on,,,,,4,0,6,,,,,4,,,67,92
37248,note_on,,,,,4,0,4,,,,,2,,,76,108
37248,note_on,,,,,4,0,1,,,,,0,,,76,90
37248,note_on,,,,,4,0,8,,,,,6,,,40,92
37248,note_on,,,,,0,0,10,,,,,7,,,61,60
37248,note_on,,,,,4,0,10,,,,,7,,,52,60
37372,note_off,,,,,124,0,4,,,,,2,,,76,0
37372,note_off,,,,,124,0,1,,,,,0,,,76,0
37372,note_off,,,,,124,0,2,,,,,1,,,67,0
37372,note_off,,,,,124,0,5,,,,,3,,,67,0
37376,note_on,,,,,4,0,4,,,,,2,,,78,108
37376,note_on,,,,,4,0,5,,,,,3,,,69,108
37376,note_on,,,,,4,0,1,,,,,0,,,78,90
37376,note_on,,,,,4,0,2,,,,,1,,,69,90
37500,note_off,,,,,124,0,2,,,,,1,,,69,0
37500,note_off,,,,,124,0,5,,,,,3,,,69,0
37500,note_off,,,,,124,0,1,,,,,0,,,78,0
37500,note_off,,,,,124,0,4,,,,,2,,,78,0
37504,note_on,,,,,4,0,4,,,,,2,,,76,108
37504,note_on,,,,,4,0,5,,,,,3,,,67,108
37504,note_on,,,,,4,0,2,,,,,1,,,67,90
37504,note_on,,,,,4,0,1,,,,,0,,,76,90
37532,note_off,,,,,284,0,6,,,,,4,,,67,0
37532,note_off,,,,,284,0,10,,,,,7,,,52,0
37532,note_off,,,,,284,0,9,,,,,7,,,52,0
37532,note_off,,,,,284,0,7,,,,,5,,,52,0
37532,note_off,,,,,284,0,8,,,,,6,,,40,0
37532,note_off,,,,,284,0,3,,,,,8,,,52,0
37532,note_off,,,,,0,0,10,,,,,7,,,61,0
37536,note_on,,,,,4,0,7,,,,,5,,,52,92
37536,note_on,,,,,4,0,8,,,,,6,,,40,92
37536,note_on,,,,,4,0,10,,,,,7,,,52,60
37536,note_on,,,,,4,0,6,,,,,4,,,67,92
37536,note_on,,,,,4,0,3,,,,,8,,,52,92
37536,note_on,,,,,4,0,9,,,,,7,,,52,60
37628,note_off,,,,,92,0,8,,,,,6,,,40,0
37628,note_off,,,,,92,0,6,,,,,4,,,67,0
37628,note_off,,,,,124,0,4,,,,,2,,,76,0
37628,note_off,,,,,124,0,5,,,,,3,,,67,0
37628,note_off,,,,,92,0,3,,,,,8,,,52,0
37628,note_off,,,,,92,0,9,,,,,7,,,52,0
37628,note_off,,,,,124,0,1,,,,,0,,,76,0
37628,note_off,,,,,92,0,10,,,,,7,,,52,0
37628,note_off,,,,,92,0,7,,,,,5,,,52,0
37628,note_off,,,,,124,0,2,,,,,1,,,67,0
37632,note_on,,,,,4,0,2,,,,,1,,,66,90
37632,note_on,,,,,4,0,4,,,,,2,,,74,108
37632,note_on,,,,,4,0,3,,,,,8,,,54,92
37632,note_on,,,,,4,0,7,,,,,5,,,54,92
37632,note_on,,,,,4,0,9,,,,,7,,,54,60
37632,note_on,,,,,4,0,8,,,,,6,,,42,92
37632,note_on,,,,,4,0,1,,,,,0,,,74,90
37632,note_on,,,,,4,0,5,,,,,3,,,66,108
37632,note_on,,,,,4,0,6,,,,,4,,,69,92
37632,note_on,,,,,4,0,10,,,,,7,,,54,60
37632,note_on,,,,,0,0,10,,,,,7,,,62,60
37916,note_off,,,,,284,0,10,,,,,7,,,54,0
37916,note_off,,,,,284,0,1,,,,,0,,,74,0
37916,note_off,,,,,0,0,10,,,,,7,,,62,0
37916,note_off,,,,,284,0,3,,,,,8,,,54,0
37916,note_off,,,,,284,0,4,,,,,2,,,74,0
37916,note_off,,,,,284,0,8,,,,,6,,,42,0
37916,note_off,,,,,284,0,7,,,,,5,,,54,0
37916,note_off,,,,,284,0,9,,,,,7,,,54,0
37920,note_on,,,,,4,0,3,,,,,8,,,57,92
37920,note_on,,,,,4,0,10,,,,,7,,,57,60
37920,note_on,,,,,4,0,8,,,,,6,,,45,92
37920,note_on,,,,,4,0,1,,,,,0,,,78,90
37920,note_on,,,,,4,0,9,,,,,7,,,57,60
37920,note_on,,,,,4,0,7,,,,,5,,,57,92
37920,note_on,,,,,4,0,4,,,,,2,,,78,108
38012,note_off,,,,,92,0,4,,,,,2,,,78,0
38012,note_off,,,,,92,0,1,,,,,0,,,78,0
38012,note_off,,,,,92,0,8,,,,,6,,,45,0
38012,note_off,,,,,92,0,3,,,,,8,,,57,0
38012,note_off,,,,,92,0,7,,,,,5,,,57,0
38012,note_off,,,,,92,0,10,,,,,7,,,57,0
38012,note_off,,,,,92,0,9,,,,,7,,,57,0
38016,note_on,,,,,4,0,7,,,,,5,,,50,92
38016,note_on,,,,,4,0,8,,,,,6,,,38,92
38016,note_on,,,,,4,0,4,,,,,2,,,81,108
38016,note_on,,,,,4,0,3,,,,,8,,,50,92
38016,note_on,,,,,4,0,9,,,,,7,,,50,60
38016,note_on,,,,,4,0,10,,,,,7,,,50,60
38016,note_on,,,,,4,0,1,,,,,0,,,81,90
38144,note_off,,,,,512,0,5,,,,,3,,,66,0
38144,note_off,,,,,512,0,2,,,,,1,,,66,0
38144,note_off,,,,,512,0,6,,,,,4,,,69,0
38300,note_off,,,,,284,0,3,,,,,8,,,50,0
38300,note_off,,,,,284,0,9,,,,,7,,,50,0
38300,note_off,,,,,284,0,4,,,,,2,,,81,0
38300,note_off,,,,,284,0,7,,,,,5,,,50,0
38300,note_off,,,,,284,0,1,,,,,0,,,81,0
38300,note_off,,,,,284,0,10,,,,,7,,,50,0
38300,note_off,,,,,284,0,8,,,,,6,,,38,0
38304,note_on,,,,,160,0,2,,,,,1,,,66,90
38304,note_on,,,,,4,0,7,,,,,5,,,50,92
38304,note_on,,,,,4,0,9,,,,,7,,,50,60
38304,note_on,,,,,4,0,1,,,,,0,,,74,90
38304,note_on,,,,,160,0,6,,,,,4,,,69,92
38304,note_on,,,,,4,0,4,,,,,2,,,74,108
38304,note_on,,,,,4,0,3,,,,,8,,,50,92
38304,note_on,,,,,160,0,5,,,,,3,,,66,108
38304,note_on,,,,,4,0,10,,,,,7,,,50,60
38304,note_on,,,,,4,0,8,,,,,6,,,38,92
38396,note_off,,,,,92,0,4,,,,,2,,,74,0
38396,note_off,,,,,92,0,5,,,,,3,,,66,0
38396,note_off,,,,,92,0,2,,,,,1,,,66,0
38396,note_off,,,,,92,0,1,,,,,0,,,74,0
38396,note_off,,,,,92,0,9,,,,,7,,,50,0
38396,note_off,,,,,92,0,6,,,,,4,,,69,0
38396,note_off,,,,,92,0,8,,,,,6,,,38,0
38396,note_off,,,,,92,0,10,,,,,7,,,50,0
38396,note_off,,,,,92,0,3,,,,,8,,,50,0
38396,note_off,,,,,92,0,7,,,,,5,,,50,0
38400,note_on,,,,,4,0,8,,,,,6,,,40,92
38400,note_on,,,,,4,0,6,,,,,4,,,64,92
38400,note_on,,,,,4,0,7,,,,,5,,,52,92
38400,note_on,,,,,4,0,5,,,,,3,,,67,108
38400,note_on,,,,,4,0,4,,,,,2,,,74,108
38400,note_on,,,,,4,0,3,,,,,8,,,52,92
38400,note_on,,,,,4,0,10,,,,,7,,,52,60
38400,note_on,,,,,0,0,10,,,,,7,,,60,60
38400,note_on,,,,,4,0,2,,,,,1,,,67,90
38400,note_on,,,,,4,0,9,,,,,7,,,52,60
38400,note_on,,,,,4,0,1,,,,,0,,,74,90
38444,note_off,,,,,44,0,4,,,,,2,,,74,0
38444,note_off,,,,,44,0,1,,,,,0,,,74,0
38448,note_on,,,,,4,0,4,,,,,2,,,72,108
38448,note_on,,,,,4,0,1,,,,,0,,,72,90
38492,note_off,,,,,44,0,4,,,,,2,,,72,0
38492,note_off,,,,,44,0,1,,,,,0,,,72,0
38496,note_on,,,,,4,0,4,,,,,2,,,74,108
38496,note_on,,,,,4,0,1,,,,,0,,,74,90
38524,note_off,,,,,124,0,2,,,,,1,,,67,0
38524,note_off,,,,,124,0,5,,,,,3,,,67,0
38528,note_on,,,,,4,0,2,,,,,1,,,69,90
38528,note_on,,,,,4,0,5,,,,,3,,,69,108
38540,note_off,,,,,44,0,4,,,,,2,,,74,0
38540,note_off,,,,,44,0,1,,,,,0,,,74,0
38544,note_on,,,,,4,0,1,,,,,0,,,72,90
38544,note_on,,,,,4,0,4,,,,,2,,,72,108
38588,note_off,,,,,44,0,1,,,,,0,,,72,0
38588,note_off,,,,,44,0,4,,,,,2,,,72,0
38592,note_on,,,,,4,0,1,,,,,0,,,74,90
38592,note_on,,,,,4,0,4,,,,,2,,,74,108
38636,note_off,,,,,44,0,1,,,,,0,,,74,0
38636,note_off,,,,,44,0,4,,,,,2,,,74,0
38640,note_on,,,,,4,0,4,,,,,2,,,72,108
38640,note_on,,,,,4,0,1,,,,,0,,,72,90
38652,note_off,,,,,124,0,5,,,,,3,,,69,0
38652,note_off,,,,,124,0,2,,,,,1,,,69,0
38656,note_on,,,,,4,0,2,,,,,1,,,67,90
38656,note_on,,,,,4,0,5,,,,,3,,,67,108
38684,note_off,,,,,284,0,9,,,,,7,,,52,0
38684,note_off,,,,,284,0,6,,,,,4,,,64,0
38684,note_off,,,,,284,0,7,,,,,5,,,52,0
38684,note_off,,,,,44,0,4,,,,,2,,,72,0
38684,note_off,,,,,284,0,8,,,,,6,,,40,0
38684,note_off,,,,,0,0,10,,,,,7,,,60,0
38684,note_off,,,,,284,0,3,,,,,8,,,52,0
38684,note_off,,,,,44,0,1,,,,,0,,,72,0
38684,note_off,,,,,284,0,10,,,,,7,,,52,0
38688,note_on,,,,,4,0,1,,,,,0,,,71,90
38688,note_on,,,,,4,0,9,,,,,7,,,52,60
38688,note_on,,,,,4,0,4,,,,,2,,,71,108
38688,note_on,,,,,4,0,10,,,,,7,,,52,60
38688,note_on,,,,,4,0,7,,,,,5,,,52,92
38688,note_on,,,,,4,0,3,,,,,8,,,52,92
38688,note_on,,,,,4,0,8,,,,,6,,,40,92
38688,note_on,,,,,4,0,6,,,,,4,,,64,92
38780,note_off,,,,,92,0,3,,,,,8,,,52,0
38780,note_off,,,,,92,0,9,,,,,7,,,52,0
38780,note_off,,,,,92,0,1,,,,,0,,,71,0
38780,note_off,,,,,92,0,7,,,,,5,,,52,0
38780,note_off,,,,,92,0,10,,,,,7,,,52,0
38780,note_off,,,,,92,0,4,,,,,2,,,71,0
38780,note_off,,,,,92,0,6,,,,,4,,,64,0
38780,note_off,,,,,92,0,8,,,,,6,,,40,0
38780,note_off,,,,,124,0,5,,,,,3,,,67,0
38780,note_off,,,,,124,0,2,,,,,1,,,67,0
38784,note_on,,,,,4,0,3,,,,,8,,,54,92
38784,note_on,,,,,4,0,5,,,,,3,,,69,108
38784,note_on,,,,,4,0,4,,,,,2,,,72,108
38784,note_on,,,,,4,0,8,,,,,6,,,42,92
38784,note_on,,,,,4,0,10,,,,,7,,,54,60
38784,note_on,,,,,4,0,6,,,,,4,,,62,92
38784,note_on,,,,,0,0,10,,,,,7,,,60,60
38784,note_on,,,,,4,0,2,,,,,1,,,69,90
38784,note_on,,,,,4,0,7,,,,,5,,,54,92
38784,note_on,,,,,4,0,1,,,,,0,,,72,90
38784,note_on,,,,,4,0,9,,,,,7,,,54,60
38784,note_on,,,,,0,0,10,,,,,7,,,62,60
38908,note_off,,,,,124,0,5,,,,,3,,,69,0
38908,note_off,,,,,124,0,2,,,,,1,,,69,0
38912,note_on,,,,,4,0,5,,,,,3,,,71,108
38912,note_on,,,,,4,0,2,,,,,1,,,71,90
39036,note_off,,,,,124,0,2,,,,,1,,,71,0
39036,note_off,,,,,124,0,5,,,,,3,,,71,0
39040,note_on,,,,,4,0,5,,,,,3,,,69,108
39040,note_on,,,,,4,0,2,,,,,1,,,69,90
39068,note_off,,,,,284,0,6,,,,,4,,,62,0
39068,note_off,,,,,284,0,8,,,,,6,,,42,0
39068,note_off,,,,,284,0,9,,,,,7,,,54,0
39068,note_off,,,,,284,0,3,,,,,8,,,54,0
39068,note_off,,,,,284,0,7,,,,,5,,,54,0
39068,note_off,,,,,284,0,10,,,,,7,,,54,0
39068,note_off,,,,,0,0,10,,,,,7,,,62,0
39068,note_off,,,,,0,0,10,,,,,7,,,60,0
39072,note_on,,,,,4,0,10,,,,,7,,,54,60
39072,note_on,,,,,4,0,3,,,,,8,,,54,92
39072,note_on,,,,,4,0,7,,,,,5,,,54,92
39072,note_on,,,,,4,0,6,,,,,4,,,62,92
39072,note_on,,,,,4,0,9,,,,,7,,,54,60
39072,note_on,,,,,4,0,8,,,,,6,,,42,92
39104,note_off,,,,,320,0,1,,,,,0,,,72,0
39104,note_off,,,,,320,0,4,,,,,2,,,72,0
39164,note_off,,,,,124,0,5,,,,,3,,,69,0
39164,note_off,,,,,92,0,3,,,,,8,,,54,0
39164,note_off,,,,,92,0,6,,,,,4,,,62,0
39164,note_off,,,,,92,0,7,,,,,5,,,54,0
39164,note_off,,,,,92,0,9,,,,,7,,,54,0
39164,note_off,,,,,92,0,10,,,,,7,,,54,0
39164,note_off,,,,,124,0,2,,,,,1,,,69,0
39164,note_off,,,,,92,0,8,,,,,6,,,42,0
39168,note_on,,,,,4,0,6,,,,,4,,,62,92
39168,note_on,,,,,64,0,4,,,,,2,,,71,108
39168,note_on,,,,,4,0,7,,,,,5,,,55,92
39168,note_on,,,,,4,0,3,,,,,8,,,55,92
39168,note_on,,,,,4,0,8,,,,,6,,,43,92
39168,note_on,,,,,64,0,1,,,,,0,,,71,90
39168,note_on,,,,,4,0,2,,,,,1,,,62,90
39168,note_on,,,,,4,0,9,,,,,7,,,55,60
39168,note_on,,,,,4,0,5,,,,,3,,,62,108
39168,note_on,,,,,4,0,10,,,,,7,,,55,60
39452,note_off,,,,,284,0,8,,,,,6,,,43,0
39452,note_off,,,,,284,0,3,,,,,8,,,55,0
39452,note_off,,,,,284,0,10,,,,,7,,,55,0
39452,note_off,,,,,284,0,7,,,,,5,,,55,0
39452,note_off,,,,,284,0,9,,,,,7,,,55,0
39456,note_on,,,,,4,0,8,,,,,6,,,47,92
39456,note_on,,,,,4,0,10,,,,,7,,,59,60
39456,note_on,,,,,4,0,7,,,,,5,,,59,92
39456,note_on,,,,,4,0,3,,,,,8,,,59,92
39456,note_on,,,,,4,0,9,,,,,7,,,59,60
39488,note_off,,,,,320,0,1,,,,,0,,,71,0
39488,note_off,,,,,320,0,4,,,,,2,,,71,0
39548,note_off,,,,,92,0,10,,,,,7,,,59,0
39548,note_off,,,,,92,0,3,,,,,8,,,59,0
39548,note_off,,,,,92,0,7,,,,,5,,,59,0
39548,note_off,,,,,92,0,8,,,,,6,,,47,0
39548,note_off,,,,,92,0,9,,,,,7,,,59,0
39552,note_on,,,,,64,0,4,,,,,2,,,79,108
39552,note_on,,,,,4,0,3,,,,,8,,,52,92
39552,note_on,,,,,64,0,1,,,,,0,,,79,90
39552,note_on,,,,,4,0,9,,,,,7,,,52,60
39552,note_on,,,,,4,0,10,,,,,7,,,52,60
39552,note_on,,,,,4,0,7,,,,,5,,,52,92
39552,note_on,,,,,4,0,8,,,,,6,,,40,92
39680,note_off,,,,,512,0,6,,,,,4,,,62,0
39680,note_off,,,,,512,0,2,,,,,1,,,62,0
39680,note_off,,,,,512,0,5,,,,,3,,,62,0
39836,note_off,,,,,284,0,9,,,,,7,,,52,0
39836,note_off,,,,,284,0,10,,,,,7,,,52,0
39836,note_off,,,,,284,0,3,,,,,8,,,52,0
39836,note_off,,,,,284,0,8,,,,,6,,,40,0
39836,note_off,,,,,284,0,7,,,,,5,,,52,0
39840,note_on,,,,,4,0,8,,,,,6,,,43,92
39840,note_on,,,,,160,0,6,,,,,4,,,64,92
39840,note_on,,,,,160,0,5,,,,,3,,,71,108
39840,note_on,,,,,4,0,9,,,,,7,,,55,60
39840,note_on,,,,,4,0,3,,,,,8,,,55,92
39840,note_on,,,,,4,0,10,,,,,7,,,55,60
39840,note_on,,,,,160,0,2,,,,,1,,,71,90
39840,note_on,,,,,4,0,7,,,,,5,,,55,92
39932,note_off,,,,,92,0,7,,,,,5,,,55,0
39932,note_off,,,,,92,0,6,,,,,4,,,64,0
39932,note_off,,,,,92,0,8,,,,,6,,,43,0
39932,note_off,,,,,92,0,5,,,,,3,,,71,0
39932,note_off,,,,,92,0,2,,,,,1,,,71,0
39932,note_off,,,,,92,0,10,,,,,7,,,55,0
39932,note_off,,,,,92,0,9,,,,,7,,,55,0
39932,note_off,,,,,92,0,3,,,,,8,,,55,0
39936,note_on,,,,,4,0,7,,,,,5,,,49,92
39936,note_on,,,,,4,0,8,,,,,6,,,37,92
39936,note_on,,,,,4,0,9,,,,,7,,,49,60
39936,note_on,,,,,0,0,10,,,,,7,,,57,60
39936,note_on,,,,,0,0,10,,,,,7,,,55,60
39936,note_on,,,,,4,0,6,,,,,4,,,64,92
39936,note_on,,,,,4,0,2,,,,,1,,,69,90
39936,note_on,,,,,4,0,5,,,,,3,,,69,108
39936,note_on,,,,,4,0,3,,,,,8,,,49,92
39936,note_on,,,,,4,0,10,,,,,7,,,49,60
40220,note_off,,,,,284,0,2,,,,,1,,,69,0
40220,note_off,,,,,668,0,1,,,,,0,,,79,0
40220,note_off,,,,,668,0,4,,,,,2,,,79,0
40220,note_off,,,,,284,0,9,,,,,7,,,49,0
40220,note_off,,,,,284,0,8,,,,,6,,,37,0
40220,note_off,,,,,0,0,10,,,,,7,,,55,0
40220,note_off,,,,,0,0,10,,,,,7,,,57,0
40220,note_off,,,,,284,0,7,,,,,5,,,49,0
40220,note_off,,,,,284,0,10,,,,,7,,,49,0
40220,note_off,,,,,284,0,5,,,,,3,,,69,0
40220,note_off,,,,,284,0,6,,,,,4,,,64,0
40220,note_off,,,,,284,0,3,,,,,8,,,49,0
40224,note_on,,,,,4,0,5,,,,,3,,,69,108
40224,note_on,,,,,4,0,1,,,,,0,,,79,90
40224,note_on,,,,,4,0,6,,,,,4,,,64,92
40224,note_on,,,,,4,0,8,,,,,6,,,40,92
40224,note_on,,,,,4,0,2,,,,,1,,,69,90
40224,note_on,,,,,4,0,3,,,,,8,,,52,92
40224,note_on,,,,,4,0,9,,,,,7,,,52,60
40224,note_on,,,,,4,0,4,,,,,2,,,79,108
40224,note_on,,,,,4,0,10,,,,,7,,,52,60
40224,note_on,,,,,4,0,7,,,,,5,,,52,92
40316,note_off,,,,,92,0,6,,,,,4,,,64,0
40316,note_off,,,,,92,0,8,,,,,6,,,40,0
40316,note_off,,,,,92,0,10,,,,,7,,,52,0
40316,note_off,,,,,92,0,2,,,,,1,,,69,0
40316,note_off,,,,,92,0,7,,,,,5,,,52,0
40316,note_off,,,,,92,0,5,,,,,3,,,69,0
40316,note_off,,,,,92,0,4,,,,,2,,,79,0
40316,note_off,,,,,92,0,1,,,,,0,,,79,0
40316,note_off,,,,,92,0,9,,,,,7,,,52,0
40316,note_off,,,,,92,0,3,,,,,8,,,52,0
40320,note_on,,,,,4,0,8,,,,,6,,,33,92
40320,note_on,,,,,4,0,6,,,,,4,,,61,92
40320,note_on,,,,,4,0,4,,,,,2,,,78,108
40320,note_on,,,,,4,0,2,,,,,1,,,73,90
40320,note_on,,,,,4,0,7,,,,,5,,,45,92
40320,note_on,,,,,4,0,3,,,,,8,,,45,92
40320,note_on,,,,,4,0,9,,,,,7,,,45,60
40320,note_on,,,,,4,0,10,,,,,7,,,45,60
40320,note_on,,,,,4,0,5,,,,,3,,,73,108
40320,note_on,,,,,4,0,1,,,,,0,,,78,90
40604,note_off,,,,,284,0,2,,,,,1,,,73,0
40604,note_off,,,,,284,0,10,,,,,7,,,45,0
40604,note_off,,,,,284,0,6,,,,,4,,,61,0
40604,note_off,,,,,284,0,8,,,,,6,,,33,0
40604,note_off,,,,,284,0,3,,,,,8,,,45,0
40604,note_off,,,,,284,0,7,,,,,5,,,45,0
40604,note_off,,,,,284,0,5,,,,,3,,,73,0
40604,note_off,,,,,284,0,4,,,,,2,,,78,0
40604,note_off,,,,,284,0,9,,,,,7,,,45,0
40604,note_off,,,,,284,0,1,,,,,0,,,78,0
40608,note_on,,,,,4,0,5,,,,,3,,,73,108
40608,note_on,,,,,4,0,9,,,,,7,,,49,60
40608,note_on,,,,,4,0,10,,,,,7,,,49,60
40608,note_on,,,,,4,0,3,,,,,8,,,49,92
40608,note_on,,,,,4,0,4,,,,,2,,,76,108
40608,note_on,,,,,4,0,1,,,,,0,,,76,90
40608,note_on,,,,,4,0,2,,,,,1,,,73,90
40608,note_on,,,,,4,0,6,,,,,4,,,69,92
40608,note_on,,,,,4,0,8,,,,,6,,,37,92
40608,note_on,,,,,4,0,7,,,,,5,,,49,92
40700,note_off,,,,,92,0,3,,,,,8,,,49,0
40700,note_off,,,,,92,0,2,,,,,1,,,73,0
40700,note_off,,,,,92,0,6,,,,,4,,,69,0
40700,note_off,,,,,92,0,9,,,,,7,,,49,0
40700,note_off,,,,,92,0,8,,,,,6,,,37,0
40700,note_off,,,,,92,0,10,,,,,7,,,49,0
40700,note_off,,,,,92,0,4,,,,,2,,,76,0
40700,note_off,,,,,92,0,1,,,,,0,,,76,0
40700,note_off,,,,,92,0,5,,,,,3,,,73,0
40700,note_off,,,,,92,0,7,,,,,5,,,49,0
40704,note_on,,,,,4,0,5,,,,,3,,,69,108
40704,note_on,,,,,4,0,2,,,,,1,,,69,90
40704,note_on,,,,,4,0,7,,,,,5,,,50,92
40704,note_on,,,,,4,0,1,,,,,0,,,78,90
40704,note_on,,,,,4,0,4,,,,,2,,,78,108
40704,note_on,,,,,4,0,6,,,,,4,,,69,92
40704,note_on,,,,,4,0,8,,,,,6,,,38,92
40704,note_on,,,,,4,0,9,,,,,7,,,50,60
40704,note_on,,,,,4,0,10,,,,,7,,,50,60
40704,note_on,,,,,4,0,3,,,,,8,,,50,92
40988,note_off,,,,,284,0,5,,,,,3,,,69,0
40988,note_off,,,,,284,0,6,,,,,4,,,69,0
40988,note_off,,,,,284,0,3,,,,,8,,,50,0
40988,note_off,,,,,284,0,1,,,,,0,,,78,0
40988,note_off,,,,,284,0,8,,,,,6,,,38,0
40988,note_off,,,,,284,0,9,,,,,7,,,50,0
40988,note_off,,,,,284,0,7,,,,,5,,,50,0
40988,note_off,,,,,284,0,10,,,,,7,,,50,0
40988,note_off,,,,,284,0,2,,,,,1,,,69,0
40988,note_off,,,,,284,0,4,,,,,2,,,78,0
40992,note_on,,,,,4,0,2,,,,,1,,,67,90
40992,note_on,,,,,4,0,1,,,,,0,,,76,90
40992,note_on,,,,,4,0,9,,,,,7,,,52,60
40992,note_on,,,,,4,0,4,,,,,2,,,76,108
40992,note_on,,,,,4,0,5,,,,,3,,,67,108
40992,note_on,,,,,4,0,10,,,,,7,,,52,60
40992,note_on,,,,,4,0,7,,,,,5,,,52,92
40992,note_on,,,,,4,0,3,,,,,8,,,52,92
40992,note_on,,,,,4,0,8,,,,,6,,,40,92
40992,note_on,,,,,4,0,6,,,,,4,,,61,92
41084,note_off,,,,,92,0,2,,,,,1,,,67,0
41084,note_off,,,,,92,0,1,,,,,0,,,76,0
41084,note_off,,,,,92,0,7,,,,,5,,,52,0
41084,note_off,,,,,92,0,5,,,,,3,,,67,0
41084,note_off,,,,,92,0,4,,,,,2,,,76,0
41084,note_off,,,,,92,0,6,,,,,4,,,61,0
41084,note_off,,,,,92,0,8,,,,,6,,,40,0
41084,note_off,,,,,92,0,9,,,,,7,,,52,0
41084,note_off,,,,,92,0,10,,,,,7,,,52,0
41084,note_off,,,,,92,0,3,,,,,8,,,52,0
41088,note_on,,,,,4,0,9,,,,,7,,,54,60
41088,note_on,,,,,4,0,2,,,,,1,,,69,90
41088,note_on,,,,,4,0,7,,,,,5,,,54,92
41088,note_on,,,,,4,0,1,,,,,0,,,74,90
41088,note_on,,,,,4,0,8,,,,,6,,,42,92
41088,note_on,,,,,4,0,5,,,,,3,,,69,108
41088,note_on,,,,,4,0,6,,,,,4,,,62,92
41088,note_on,,,,,4,0,4,,,,,2,,,74,108
41088,note_on,,,,,4,0,10,,,,,7,,,54,60
41088,note_on,,,,,4,0,3,,,,,8,,,54,92
41088,note_on,,,,,0,0,10,,,,,7,,,62,60
41372,note_off,,,,,284,0,3,,,,,8,,,54,0
41372,note_off,,,,,284,0,6,,,,,4,,,62,0
41372,note_off,,,,,0,0,10,,,,,7,,,62,0
41372,note_off,,,,,284,0,2,,,,,1,,,69,0
41372,note_off,,,,,284,0,7,,,,,5,,,54,0
41372,note_off,,,,,284,0,10,,,,,7,,,54,0
41372,note_off,,,,,284,0,1,,,,,0,,,74,0
41372,note_off,,,,,284,0,9,,,,,7,,,54,0
41372,note_off,,,,,284,0,8,,,,,6,,,42,0
41372,note_off,,,,,284,0,4,,,,,2,,,74,0
41372,note_off,,,,,284,0,5,,,,,3,,,69,0
41376,note_on,,,,,4,0,5,,,,,3,,,71,108
41376,note_on,,,,,4,0,3,,,,,8,,,55,92
41376,note_on,,,,,4,0,6,,,,,4,,,67,92
41376,note_on,,,,,4,0,2,,,,,1,,,71,90
41376,note_on,,,,,4,0,10,,,,,7,,,55,60
41376,note_on,,,,,4,0,7,,,,,5,,,55,92
41376,note_on,,,,,4,0,8,,,,,6,,,43,92
41376,note_on,,,,,4,0,1,,,,,0,,,76,90
41376,note_on,,,,,4,0,4,,,,,2,,,76,108
41376,note_on,,,,,4,0,9,,,,,7,,,55,60
41468,note_off,,,,,92,0,1,,,,,0,,,76,0
41468,note_off,,,,,92,0,7,,,,,5,,,55,0
41468,note_off,,,,,92,0,4,,,,,2,,,76,0
41468,note_off,,,,,92,0,10,,,,,7,,,55,0
41468,note_off,,,,,92,0,8,,,,,6,,,43,0
41468,note_off,,,,,92,0,3,,,,,8,,,55,0
41468,note_off,,,,,92,0,5,,,,,3,,,71,0
41468,note_off,,,,,92,0,2,,,,,1,,,71,0
41468,note_off,,,,,92,0,9,,,,,7,,,55,0
41468,note_off,,,,,92,0,6,,,,,4,,,67,0
41472,note_on,,,,,4,0,1,,,,,0,,,74,90
41472,note_on,,,,,4,0,4,,,,,2,,,74,108
41472,note_on,,,,,4,0,6,,,,,4,,,64,92
41472,note_on,,,,,4,0,10,,,,,7,,,57,60
41472,note_on,,,,,4,0,5,,,,,3,,,69,108
41472,note_on,,,,,4,0,3,,,,,8,,,57,92
41472,note_on,,,,,4,0,9,,,,,7,,,57,60
41472,note_on,,,,,4,0,7,,,,,5,,,57,92
41472,note_on,,,,,4,0,2,,,,,1,,,69,90
41472,note_on,,,,,4,0,8,,,,,6,,,45,92
41516,note_off,,,,,44,0,1,,,,,0,,,74,0
41516,note_off,,,,,44,0,4,,,,,2,,,74,0
41520,note_on,,,,,4,0,4,,,,,2,,,73,108
41520,note_on,,,,,4,0,1,,,,,0,,,73,90
41564,note_off,,,,,44,0,1,,,,,0,,,73,0
41564,note_off,,,,,44,0,4,,,,,2,,,73,0
41568,note_on,,,,,4,0,1,,,,,0,,,74,90
41568,note_on,,,,,4,0,4,,,,,2,,,74,108
41612,note_off,,,,,44,0,1,,,,,0,,,74,0
41612,note_off,,,,,44,0,4,,,,,2,,,74,0
41616,note_on,,,,,4,0,1,,,,,0,,,73,90
41616,note_on,,,,,4,0,4,,,,,2,,,73,108
41660,note_off,,,,,44,0,4,,,,,2,,,73,0
41660,note_off,,,,,44,0,1,,,,,0,,,73,0
41664,note_on,,,,,4,0,4,,,,,2,,,74,108
41664,note_on,,,,,4,0,1,,,,,0,,,74,90
41708,note_off,,,,,44,0,1,,,,,0,,,74,0
41708,note_off,,,,,44,0,4,,,,,2,,,74,0
41712,note_on,,,,,4,0,1,,,,,0,,,73,90
41712,note_on,,,,,4,0,4,,,,,2,,,73,108
41756,note_off,,,,,284,0,8,,,,,6,,,45,0
41756,note_off,,,,,284,0,10,,,,,7,,,57,0
41756,note_off,,,,,284,0,3,,,,,8,,,57,0
41756,note_off,,,,,284,0,9,,,,,7,,,57,0
41756,note_off,,,,,284,0,7,,,,,5,,,57,0
41756,note_off,,,,,44,0,1,,,,,0,,,73,0
41756,note_off,,,,,44,0,4,,,,,2,,,73,0
41760,note_on,,,,,4,0,9,,,,,7,,,54,60
41760,note_on,,,,,4,0,8,,,,,6,,,42,92
41760,note_on,,,,,4,0,1,,,,,0,,,74,90
41760,note_on,,,,,4,0,4,,,,,2,,,74,108
41760,note_on,,,,,4,0,3,,,,,8,,,54,92
41760,note_on,,,,,4,0,10,,,,,7,,,54,60
41760,note_on,,,,,4,0,7,,,,,5,,,54,92
41804,note_off,,,,,44,0,1,,,,,0,,,74,0
41804,note_off,,,,,44,0,4,,,,,2,,,74,0
41808,note_on,,,,,4,0,4,,,,,2,,,73,108
41808,note_on,,,,,4,0,1,,,,,0,,,73,90
41852,note_off,,,,,92,0,3,,,,,8,,,54,0
41852,note_off,,,,,44,0,4,,,,,2,,,73,0
41852,note_off,,,,,92,0,7,,,,,5,,,54,0
41852,note_off,,,,,92,0,8,,,,,6,,,42,0
41852,note_off,,,,,92,0,10,,,,,7,,,54,0
41852,note_off,,,,,44,0,1,,,,,0,,,73,0
41852,note_off,,,,,92,0,9,,,,,7,,,54,0
41856,note_on,,,,,4,0,4,,,,,2,,,74,108
41856,note_on,,,,,4,0,7,,,,,5,,,57,92
41856,note_on,,,,,4,0,3,,,,,8,,,57,92
41856,note_on,,,,,4,0,1,,,,,0,,,74,90
41856,note_on,,,,,4,0,10,,,,,7,,,57,60
41856,note_on,,,,,4,0,8,,,,,6,,,45,92
41856,note_on,,,,,4,0,9,,,,,7,,,57,60
41900,note_off,,,,,44,0,1,,,,,0,,,74,0
41900,note_off,,,,,44,0,4,,,,,2,,,74,0
41904,note_on,,,,,4,0,1,,,,,0,,,73,90
41904,note_on,,,,,4,0,4,,,,,2,,,73,108
41984,note_off,,,,,512,0,5,,,,,3,,,69,0
41984,note_off,,,,,512,0,2,,,,,1,,,69,0
41984,note_off,,,,,512,0,6,,,,,4,,,64,0
42044,note_off,,,,,140,0,1,,,,,0,,,73,0
42044,note_off,,,,,140,0,4,,,,,2,,,73,0
42048,note_on,,,,,4,0,1,,,,,0,,,74,90
42048,note_on,,,,,4,0,4,,,,,2,,,74,108
42140,note_off,,,,,284,0,8,,,,,6,,,45,0
42140,note_off,,,,,284,0,10,,,,,7,,,57,0
42140,note_off,,,,,284,0,9,,,,,7,,,57,0
42140,note_off,,,,,284,0,3,,,,,8,,,57,0
42140,note_off,,,,,92,0,4,,,,,2,,,74,0
42140,note_off,,,,,92,0,1,,,,,0,,,74,0
42140,note_off,,,,,284,0,7,,,,,5,,,57,0
42144,note_on,,,,,4,0,7,,,,,5,,,55,92
42144,note_on,,,,,160,0,5,,,,,3,,,69,108
42144,note_on,,,,,4,0,3,,,,,8,,,55,92
42144,note_on,,,,,4,0,10,,,,,7,,,55,60
42144,note_on,,,,,4,0,4,,,,,2,,,73,108
42144,note_on,,,,,160,0,2,,,,,1,,,69,90
42144,note_on,,,,,160,0,6,,,,,4,,,64,92
42144,note_on,,,,,4,0,1,,,,,0,,,73,90
42144,note_on,,,,,4,0,8,,,,,6,,,43,92
42144,note_on,,,,,4,0,9,,,,,7,,,55,60
42236,note_off,,,,,92,0,1,,,,,0,,,73,0
42236,note_off,,,,,92,0,7,,,,,5,,,55,0
42236,note_off,,,,,92,0,10,,,,,7,,,55,0
42236,note_off,,,,,92,0,4,,,,,2,,,73,0
42236,note_off,,,,,92,0,3,,,,,8,,,55,0
42236,note_off,,,,,92,0,6,,,,,4,,,64,0
42236,note_off,,,,,92,0,2,,,,,1,,,69,0
42236,note_off,,,,,92,0,9,,,,,7,,,55,0
42236,note_off,,,,,92,0,8,,,,,6,,,43,0
42236,note_off,,,,,92,0,5,,,,,3,,,69,0
42240,note_on,,,,,4,0,1,,,,,0,,,74,90
42240,note_on,,,,,4,0,3,,,,,8,,,54,92
42240,note_on,,,,,4,0,6,,,,,4,,,62,92
42240,note_on,,,,,4,0,9,,,,,7,,,54,60
42240,note_on,,,,,4,0,8,,,,,6,,,42,92
42240,note_on,,,,,4,0,5,,,,,3,,,69,108
42240,note_on,,,,,0,0,10,,,,,7,,,62,60
42240,note_on,,,,,4,0,7,,,,,5,,,54,92
42240,note_on,,,,,4,0,2,,,,,1,,,69,90
42240,note_on,,,,,4,0,4,,,,,2,,,74,108
42240,note_on,,,,,4,0,10,,,,,7,,,54,60
42524,note_off,,,,,284,0,4,,,,,2,,,74,0
42524,note_off,,,,,284,0,1,,,,,0,,,74,0
42528,note_on,,,,,4,0,4,,,,,2,,,69,108
42528,note_on,,,,,4,0,1,,,,,0,,,69,90
42620,note_off,,,,,92,0,1,,,,,0,,,69,0
42620,note_off,,,,,92,0,4,,,,,2,,,69,0
42624,note_on,,,,,4,0,1,,,,,0,,,74,90
42624,note_on,,,,,4,0,4,,,,,2,,,74,108
42752,note_off,,,,,512,0,2,,,,,1,,,69,0
42752,note_off,,,,,512,0,3,,,,,8,,,54,0
42752,note_off,,,,,512,0,6,,,,,4,,,62,0
42752,note_off,,,,,512,0,5,,,,,3,,,69,0
42752,note_off,,,,,512,0,9,,,,,7,,,54,0
42752,note_off,,,,,512,0,10,,,,,7,,,54,0
42752,note_off,,,,,0,0,10,,,,,7,,,62,0
42752,note_off,,,,,512,0,8,,,,,6,,,42,0
42752,note_off,,,,,512,0,7,,,,,5,,,54,0
42908,note_off,,,,,284,0,1,,,,,0,,,74,0
42908,note_off,,,,,284,0,4,,,,,2,,,74,0
42912,note_on,,,,,160,0,10,,,,,7,,,54,60
42912,note_on,,,,,4,0,4,,,,,2,,,78,108
42912,note_on,,,,,160,0,2,,,,,1,,,69,90
42912,note_on,,,,,160,0,8,,,,,6,,,42,92
42912,note_on,,,,,4,0,1,,,,,0,,,78,90
42912,note_on,,,,,160,0,9,,,,,7,,,54,60
42912,note_on,,,,,160,0,3,,,,,8,,,54,92
42912,note_on,,,,,160,0,5,,,,,3,,,69,108
42912,note_on,,,,,160,0,7,,,,,5,,,54,92
42912,note_on,,,,,160,0,6,,,,,4,,,62,92
43004,note_off,,,,,92,0,10,,,,,7,,,54,0
43004,note_off,,,,,92,0,2,,,,,1,,,69,0
43004,note_off,,,,,92,0,3,,,,,8,,,54,0
43004,note_off,,,,,92,0,5,,,,,3,,,69,0
43004,note_off,,,,,92,0,9,,,,,7,,,54,0
43004,note_off,,,,,92,0,7,,,,,5,,,54,0
43004,note_off,,,,,92,0,4,,,,,2,,,78,0
43004,note_off,,,,,92,0,6,,,,,4,,,62,0
43004,note_off,,,,,92,0,1,,,,,0,,,78,0
43004,note_off,,,,,92,0,8,,,,,6,,,42,0
43008,note_on,,,,,4,0,6,,,,,4,,,71,92
43008,note_on,,,,,4,0,10,,,,,7,,,60,60
43008,note_on,,,,,4,0,5,,,,,3,,,66,108
43008,note_on,,,,,4,0,9,,,,,7,,,59,60
43008,note_on,,,,,4,0,7,,,,,5,,,59,92
43008,note_on,,,,,4,0,3,,,,,8,,,59,92
43008,note_on,,,,,4,0,2,,,,,1,,,66,90
43008,note_on,,,,,4,0,1,,,,,0,,,76,90
43008,note_on,,,,,4,0,8,,,,,6,,,47,92
43008,note_on,,,,,4,0,4,,,,,2,,,76,108
43052,note_off,,,,,44,0,4,,,,,2,,,76,0
43052,note_off,,,,,44,0,1,,,,,0,,,76,0
43056,note_on,,,,,4,0,4,,,,,2,,,75,108
43056,note_on,,,,,4,0,1,,,,,0,,,75,90
43100,note_off,,,,,44,0,1,,,,,0,,,75,0
43100,note_off,,,,,44,0,4,,,,,2,,,75,0
43104,note_on,,,,,4,0,1,,,,,0,,,76,90
43104,note_on,,,,,4,0,4,,,,,2,,,76,108
43148,note_off,,,,,44,0,1,,,,,0,,,76,0
43148,note_off,,,,,44,0,4,,,,,2,,,76,0
43152,note_on,,,,,4,0,1,,,,,0,,,75,90
43152,note_on,,,,,4,0,4,,,,,2,,,75,108
43196,note_off,,,,,44,0,1,,,,,0,,,75,0
43196,note_off,,,,,44,0,4,,,,,2,,,75,0
43200,note_on,,,,,4,0,4,,,,,2,,,76,108
43200,note_on,,,,,4,0,1,,,,,0,,,76,90
43244,note_off,,,,,44,0,4,,,,,2,,,76,0
43244,note_off,,,,,44,0,1,,,,,0,,,76,0
43248,note_on,,,,,4,0,4,,,,,2,,,75,108
43248,note_on,,,,,4,0,1,,,,,0,,,75,90
43292,note_off,,,,,284,0,3,,,,,8,,,59,0
43292,note_off,,,,,284,0,10,,,,,7,,,60,0
43292,note_off,,,,,44,0,4,,,,,2,,,75,0
43292,note_off,,,,,284,0,9,,,,,7,,,59,0
43292,note_off,,,,,284,0,8,,,,,6,,,47,0
43292,note_off,,,,,44,0,1,,,,,0,,,75,0
43292,note_off,,,,,284,0,7,,,,,5,,,59,0
43296,note_on,,,,,4,0,9,,,,,7,,,55,60
43296,note_on,,,,,4,0,4,,,,,2,,,76,108
43296,note_on,,,,,4,0,7,,,,,5,,,55,92
43296,note_on,,,,,4,0,3,,,,,8,,,55,92
43296,note_on,,,,,4,0,1,,,,,0,,,76,90
43296,note_on,,,,,4,0,8,,,,,6,,,43,92
43296,note_on,,,,,4,0,10,,,,,7,,,55,60
43340,note_off,,,,,44,0,1,,,,,0,,,76,0
43340,note_off,,,,,44,0,4,,,,,2,,,76,0
43344,note_on,,,,,4,0,4,,,,,2,,,75,108
43344,note_on,,,,,4,0,1,,,,,0,,,75,90
43388,note_off,,,,,92,0,8,,,,,6,,,43,0
43388,note_off,,,,,92,0,10,,,,,7,,,55,0
43388,note_off,,,,,92,0,9,,,,,7,,,55,0
43388,note_off,,,,,92,0,7,,,,,5,,,55,0
43388,note_off,,,,,44,0,1,,,,,0,,,75,0
43388,note_off,,,,,92,0,3,,,,,8,,,55,0
43388,note_off,,,,,44,0,4,,,,,2,,,75,0
43392,note_on,,,,,4,0,4,,,,,2,,,76,108
43392,note_on,,,,,4,0,3,,,,,8,,,59,92
43392,note_on,,,,,4,0,9,,,,,7,,,59,60
43392,note_on,,,,,4,0,1,,,,,0,,,76,90
43392,note_on,,,,,4,0,7,,,,,5,,,59,92
43392,note_on,,,,,4,0,8,,,,,6,,,47,92
43392,note_on,,,,,4,0,10,,,,,7,,,60,60
43436,note_off,,,,,44,0,4,,,,,2,,,76,0
43436,note_off,,,,,44,0,1,,,,,0,,,76,0
43440,note_on,,,,,4,0,1,,,,,0,,,75,90
43440,note_on,,,,,4,0,4,,,,,2,,,75,108
43520,note_off,,,,,512,0,6,,,,,4,,,71,0
43520,note_off,,,,,512,0,5,,,,,3,,,66,0
43520,note_off,,,,,512,0,2,,,,,1,,,66,0
43580,note_off,,,,,140,0,4,,,,,2,,,75,0
43580,note_off,,,,,140,0,1,,,,,0,,,75,0
43584,note_on,,,,,4,0,1,,,,,0,,,76,90
43584,note_on,,,,,4,0,4,,,,,2,,,76,108
43676,note_off,,,,,284,0,3,,,,,8,,,59,0
43676,note_off,,,,,92,0,4,,,,,2,,,76,0
43676,note_off,,,,,284,0,9,,,,,7,,,59,0
43676,note_off,,,,,284,0,8,,,,,6,,,47,0
43676,note_off,,,,,284,0,7,,,,,5,,,59,0
43676,note_off,,,,,284,0,10,,,,,7,,,60,0
43676,note_off,,,,,92,0,1,,,,,0,,,76,0
43680,note_on,,,,,4,0,10,,,,,7,,,57,60
43680,note_on,,,,,160,0,2,,,,,1,,,66,90
43680,note_on,,,,,4,0,4,,,,,2,,,75,108
43680,note_on,,,,,4,0,7,,,,,5,,,57,92
43680,note_on,,,,,4,0,8,,,,,6,,,45,92
43680,note_on,,,,,160,0,5,,,,,3,,,66,108
43680,note_on,,,,,4,0,9,,,,,7,,,57,60
43680,note_on,,,,,160,0,6,,,,,4,,,71,92
43680,note_on,,,,,4,0,1,,,,,0,,,75,90
43680,note_on,,,,,4,0,3,,,,,8,,,57,92
43772,note_off,,,,,92,0,1,,,,,0,,,75,0
43772,note_off,,,,,92,0,9,,,,,7,,,57,0
43772,note_off,,,,,92,0,10,,,,,7,,,57,0
43772,note_off,,,,,92,0,5,,,,,3,,,66,0
43772,note_off,,,,,92,0,2,,,,,1,,,66,0
43772,note_off,,,,,92,0,6,,,,,4,,,71,0
43772,note_off,,,,,92,0,4,,,,,2,,,75,0
43772,note_off,,,,,92,0,3,,,,,8,,,57,0
43772,note_off,,,,,92,0,8,,,,,6,,,45,0
43772,note_off,,,,,92,0,7,,,,,5,,,57,0
43776,note_on,,,,,4,0,1,,,,,0,,,76,90
43776,note_on,,,,,4,0,9,,,,,7,,,56,60
43776,note_on,,,,,4,0,7,,,,,5,,,56,92
43776,note_on,,,,,4,0,6,,,,,4,,,59,92
43776,note_on,,,,,4,0,5,,,,,3,,,71,108
43776,note_on,,,,,4,0,4,,,,,2,,,76,108
43776,note_on,,,,,4,0,2,,,,,1,,,71,90
43776,note_on,,,,,4,0,3,,,,,8,,,56,92
43776,note_on,,,,,0,0,10,,,,,7,,,64,60
43776,note_on,,,,,4,0,10,,,,,7,,,56,60
43776,note_on,,,,,4,0,8,,,,,6,,,44,92
44060,note_off,,,,,284,0,1,,,,,0,,,76,0
44060,note_off,,,,,284,0,4,,,,,2,,,76,0
44064,note_on,,,,,4,0,4,,,,,2,,,71,108
44064,note_on,,,,,4,0,1,,,,,0,,,71,90
44156,note_off,,,,,92,0,4,,,,,2,,,71,0
44156,note_off,,,,,92,0,1,,,,,0,,,71,0
44160,note_on,,,,,4,0,1,,,,,0,,,76,90
44160,note_on,,,,,4,0,4,,,,,2,,,76,108
44288,note_off,,,,,512,0,5,,,,,3,,,71,0
44288,note_off,,,,,512,0,3,,,,,8,,,56,0
44288,note_off,,,,,512,0,8,,,,,6,,,44,0
44288,note_off,,,,,512,0,9,,,,,7,,,56,0
44288,note_off,,,,,512,0,2,,,,,1,,,71,0
44288,note_off,,,,,512,0,6,,,,,4,,,59,0
44288,note_off,,,,,512,0,10,,,,,7,,,56,0
44288,note_off,,,,,0,0,10,,,,,7,,,64,0
44288,note_off,,,,,512,0,7,,,,,5,,,56,0
44444,note_off,,,,,284,0,4,,,,,2,,,76,0
44444,note_off,,,,,284,0,1,,,,,0,,,76,0
44448,note_on,,,,,160,0,5,,,,,3,,,71,108
44448,note_on,,,,,160,0,3,,,,,8,,,56,92
44448,note_on,,,,,160,0,8,,,,,6,,,44,92
44448,note_on,,,,,160,0,2,,,,,1,,,71,90
44448,note_on,,,,,160,0,10,,,,,7,,,56,60
44448,note_on,,,,,160,0,9,,,,,7,,,56,60
44448,note_on,,,,,160,0,6,,,,,4,,,74,92
44448,note_on,,,,,160,0,7,,,,,5,,,56,92
44448,note_on,,,,,4,0,1,,,,,0,,,78,90
44448,note_on,,,,,4,0,4,,,,,2,,,78,108
44540,note_off,,,,,92,0,3,,,,,8,,,56,0
44540,note_off,,,,,92,0,7,,,,,5,,,56,0
44540,note_off,,,,,92,0,5,,,,,3,,,71,0
44540,note_off,,,,,92,0,2,,,,,1,,,71,0
44540,note_off,,,,,92,0,1,,,,,0,,,78,0
44540,note_off,,,,,92,0,10,,,,,7,,,56,0
44540,note_off,,,,,92,0,4,,,,,2,,,78,0
44540,note_off,,,,,92,0,8,,,,,6,,,44,0
44540,note_off,,,,,92,0,6,,,,,4,,,74,0
44540,note_off,,,,,92,0,9,,,,,7,,,56,0
44544,note_on,,,,,4,0,8,,,,,6,,,49,92
44544,note_on,,,,,4,0,2,,,,,1,,,68,90
44544,note_on,,,,,4,0,1,,,,,0,,,78,90
44544,note_on,,,,,4,0,10,,,,,7,,,61,60
44544,note_on,,,,,4,0,3,,,,,8,,,61,92
44544,note_on,,,,,4,0,7,,,,,5,,,61,92
44544,note_on,,,,,4,0,6,,,,,4,,,73,92
44544,note_on,,,,,4,0,9,,,,,7,,,61,60
44544,note_on,,,,,4,0,4,,,,,2,,,78,108
44544,note_on,,,,,4,0,5,,,,,3,,,68,108
44588,note_off,,,,,44,0,4,,,,,2,,,78,0
44588,note_off,,,,,44,0,1,,,,,0,,,78,0
44592,note_on,,,,,4,0,1,,,,,0,,,77,90
44592,note_on,,,,,4,0,4,,,,,2,,,77,108
44636,note_off,,,,,44,0,4,,,,,2,,,77,0
44636,note_off,,,,,44,0,1,,,,,0,,,77,0
44640,note_on,,,,,4,0,1,,,,,0,,,78,90
44640,note_on,,,,,4,0,4,,,,,2,,,78,108
44684,note_off,,,,,44,0,4,,,,,2,,,78,0
44684,note_off,,,,,44,0,1,,,,,0,,,78,0
44688,note_on,,,,,4,0,4,,,,,2,,,77,108
44688,note_on,,,,,4,0,1,,,,,0,,,77,90
44732,note_off,,,,,44,0,4,,,,,2,,,77,0
44732,note_off,,,,,44,0,1,,,,,0,,,77,0
44736,note_on,,,,,4,0,1,,,,,0,,,78,90
44736,note_on,,,,,4,0,4,,,,,2,,,78,108
44780,note_off,,,,,44,0,4,,,,,2,,,78,0
44780,note_off,,,,,44,0,1,,,,,0,,,78,0
44784,note_on,,,,,4,0,1,,,,,0,,,77,90
44784,note_on,,,,,4,0,4,,,,,2,,,77,108
44828,note_off,,,,,284,0,3,,,,,8,,,61,0
44828,note_off,,,,,284,0,9,,,,,7,,,61,0
44828,note_off,,,,,284,0,10,,,,,7,,,61,0
44828,note_off,,,,,284,0,7,,,,,5,,,61,0
44828,note_off,,,,,284,0,8,,,,,6,,,49,0
44828,note_off,,,,,44,0,1,,,,,0,,,77,0
44828,note_off,,,,,44,0,4,,,,,2,,,77,0
44832,note_on,,,,,4,0,7,,,,,5,,,55,92
44832,note_on,,,,,4,0,4,,,,,2,,,78,108
44832,note_on,,,,,4,0,9,,,,,7,,,55,60
44832,note_on,,,,,4,0,3,,,,,8,,,55,92
44832,note_on,,,,,4,0,8,,,,,6,,,43,92
44832,note_on,,,,,4,0,1,,,,,0,,,78,90
44832,note_on,,,,,4,0,10,,,,,7,,,55,60
44876,note_off,,,,,44,0,4,,,,,2,,,78,0
44876,note_off,,,,,44,0,1,,,,,0,,,78,0
44880,note_on,,,,,4,0,1,,,,,0,,,77,90
44880,note_on,,,,,4,0,4,,,,,2,,,77,108
44924,note_off,,,,,92,0,3,,,,,8,,,55,0
44924,note_off,,,,,44,0,1,,,,,0,,,77,0
44924,note_off,,,,,92,0,9,,,,,7,,,55,0
44924,note_off,,,,,44,0,4,,,,,2,,,77,0
44924,note_off,,,,,92,0,7,,,,,5,,,55,0
44924,note_off,,,,,92,0,8,,,,,6,,,43,0
44924,note_off,,,,,92,0,10,,,,,7,,,55,0
44928,note_on,,,,,4,0,9,,,,,7,,,61,60
44928,note_on,,,,,4,0,4,,,,,2,,,78,108
44928,note_on,,,,,4,0,10,,,,,7,,,61,60
44928,note_on,,,,,4,0,7,,,,,5,,,61,92
44928,note_on,,,,,4,0,8,,,,,6,,,49,92
44928,note_on,,,,,4,0,3,,,,,8,,,61,92
44928,note_on,,,,,4,0,1,,,,,0,,,78,90
44972,note_off,,,,,44,0,4,,,,,2,,,78,0
44972,note_off,,,,,44,0,1,,,,,0,,,78,0
44976,note_on,,,,,4,0,4,,,,,2,,,77,108
44976,note_on,,,,,4,0,1,,,,,0,,,77,90
45056,note_off,,,,,512,0,5,,,,,3,,,68,0
45056,note_off,,,,,512,0,2,,,,,1,,,68,0
45056,note_off,,,,,512,0,6,,,,,4,,,73,0
45116,note_off,,,,,140,0,1,,,,,0,,,77,0
45116,note_off,,,,,140,0,4,,,,,2,,,77,0
45120,note_on,,,,,4,0,1,,,,,0,,,77,90
45120,note_on,,,,,4,0,4,,,,,2,,,77,108
45212,note_off,,,,,284,0,3,,,,,8,,,61,0
45212,note_off,,,,,284,0,10,,,,,7,,,61,0
45212,note_off,,,,,284,0,7,,,,,5,,,61,0
45212,note_off,,,,,284,0,9,,,,,7,,,61,0
45212,note_off,,,,,284,0,8,,,,,6,,,49,0
45216,note_on,,,,,4,0,8,,,,,6,,,47,92
45216,note_on,,,,,160,0,5,,,,,3,,,68,108
45216,note_on,,,,,4,0,7,,,,,5,,,59,92
45216,note_on,,,,,4,0,3,,,,,8,,,59,92
45216,note_on,,,,,160,0,2,,,,,1,,,68,90
45216,note_on,,,,,4,0,9,,,,,7,,,59,60
45216,note_on,,,,,160,0,6,,,,,4,,,73,92
45216,note_on,,,,,4,0,10,,,,,7,,,59,60
45308,note_off,,,,,188,0,1,,,,,0,,,77,0
45308,note_off,,,,,92,0,7,,,,,5,,,59,0
45308,note_off,,,,,92,0,6,,,,,4,,,73,0
45308,note_off,,,,,92,0,8,,,,,6,,,47,0
45308,note_off,,,,,92,0,3,,,,,8,,,59,0
45308,note_off,,,,,92,0,10,,,,,7,,,59,0
45308,note_off,,,,,92,0,5,,,,,3,,,68,0
45308,note_off,,,,,92,0,9,,,,,7,,,59,0
45308,note_off,,,,,92,0,2,,,,,1,,,68,0
45308,note_off,,,,,188,0,4,,,,,2,,,77,0
45312,note_on,,,,,4,0,7,,,,,5,,,58,92
45312,note_on,,,,,4,0,9,,,,,7,,,58,60
45312,note_on,,,,,4,0,10,,,,,7,,,58,60
45312,note_on,,,,,0,0,10,,,,,7,,,66,60
45312,note_on,,,,,4,0,5,,,,,3,,,73,108
45312,note_on,,,,,4,0,8,,,,,6,,,46,92
45312,note_on,,,,,4,0,1,,,,,0,,,78,90
45312,note_on,,,,,4,0,2,,,,,1,,,73,90
45312,note_on,,,,,4,0,4,,,,,2,,,78,108
45312,note_on,,,,,4,0,3,,,,,8,,,58,92
45312,note_on,,,,,4,0,6,,,,,4,,,66,92
45596,note_off,,,,,284,0,1,,,,,0,,,78,0
45596,note_off,,,,,284,0,4,,,,,2,,,78,0
45600,note_on,,,,,4,0,1,,,,,0,,,73,90
45600,note_on,,,,,4,0,4,,,,,2,,,73,108
45632,note_off,,,,,320,0,9,,,,,7,,,58,0
45632,note_off,,,,,320,0,3,,,,,8,,,58,0
45632,note_off,,,,,320,0,2,,,,,1,,,73,0
45632,note_off,,,,,320,0,8,,,,,6,,,46,0
45632,note_off,,,,,320,0,7,,,,,5,,,58,0
45632,note_off,,,,,320,0,5,,,,,3,,,73,0
45632,note_off,,,,,320,0,10,,,,,7,,,58,0
45632,note_off,,,,,0,0,10,,,,,7,,,66,0
45632,note_off,,,,,320,0,6,,,,,4,,,66,0
45692,note_off,,,,,92,0,1,,,,,0,,,73,0
45692,note_off,,,,,92,0,4,,,,,2,,,73,0
45696,note_on,,,,,64,0,8,,,,,6,,,42,92
45696,note_on,,,,,64,0,10,,,,,7,,,54,60
45696,note_on,,,,,64,0,7,,,,,5,,,54,92
45696,note_on,,,,,4,0,1,,,,,0,,,82,90
45696,note_on,,,,,64,0,9,,,,,7,,,54,60
45696,note_on,,,,,64,0,3,,,,,8,,,54,92
45696,note_on,,,,,64,0,6,,,,,4,,,61,92
45696,note_on,,,,,4,0,4,,,,,2,,,82,108
45980,note_off,,,,,284,0,4,,,,,2,,,82,0
45980,note_off,,,,,284,0,1,,,,,0,,,82,0
45984,note_on,,,,,4,0,1,,,,,0,,,78,90
45984,note_on,,,,,4,0,4,,,,,2,,,78,108
46016,note_off,,,,,320,0,10,,,,,7,,,54,0
46016,note_off,,,,,320,0,7,,,,,5,,,54,0
46016,note_off,,,,,320,0,6,,,,,4,,,61,0
46016,note_off,,,,,320,0,9,,,,,7,,,54,0
46016,note_off,,,,,320,0,8,,,,,6,,,42,0
46016,note_off,,,,,320,0,3,,,,,8,,,54,0
46076,note_off,,,,,92,0,4,,,,,2,,,78,0
46076,note_off,,,,,92,0,1,,,,,0,,,78,0
46080,note_on,,,,,448,0,2,,,,,1,,,59,90
46080,note_on,,,,,4,0,1,,,,,0,,,86,90
46080,note_on,,,,,448,0,5,,,,,3,,,59,108
46080,note_on,,,,,4,0,4,,,,,2,,,86,108
46364,note_off,,,,,284,0,2,,,,,1,,,59,0
46364,note_off,,,,,284,0,1,,,,,0,,,86,0
46364,note_off,,,,,284,0,4,,,,,2,,,86,0
46364,note_off,,,,,284,0,5,,,,,3,,,59,0
46368,note_on,,,,,4,0,1,,,,,0,,,86,90
46368,note_on,,,,,4,0,2,,,,,1,,,59,90
46368,note_on,,,,,4,0,5,,,,,3,,,59,108
46368,note_on,,,,,4,0,4,,,,,2,,,86,108
46460,note_off,,,,,92,0,1,,,,,0,,,86,0
46460,note_off,,,,,92,0,2,,,,,1,,,59,0
46460,note_off,,,,,92,0,5,,,,,3,,,59,0
46460,note_off,,,,,92,0,4,,,,,2,,,86,0
46464,note_on,,,,,4,0,1,,,,,0,,,85,90
46464,note_on,,,,,4,0,2,,,,,1,,,61,90
46464,note_on,,,,,4,0,5,,,,,3,,,61,108
46464,note_on,,,,,4,0,4,,,,,2,,,85,108
46748,note_off,,,,,284,0,5,,,,,3,,,61,0
46748,note_off,,,,,284,0,1,,,,,0,,,85,0
46748,note_off,,,,,284,0,2,,,,,1,,,61,0
46748,note_off,,,,,284,0,4,,,,,2,,,85,0
46752,note_on,,,,,4,0,5,,,,,3,,,61,108
46752,note_on,,,,,4,0,4,,,,,2,,,85,108
46752,note_on,,,,,4,0,2,,,,,1,,,61,90
46752,note_on,,,,,4,0,1,,,,,0,,,85,90
46844,note_off,,,,,92,0,1,,,,,0,,,85,0
46844,note_off,,,,,92,0,2,,,,,1,,,61,0
46844,note_off,,,,,92,0,4,,,,,2,,,85,0
46844,note_off,,,,,92,0,5,,,,,3,,,61,0
46848,note_on,,,,,4,0,4,,,,,2,,,83,108
46848,note_on,,,,,4,0,2,,,,,1,,,62,90
46848,note_on,,,,,4,0,1,,,,,0,,,83,90
46848,note_on,,,,,4,0,5,,,,,3,,,62,108
47132,note_off,,,,,284,0,5,,,,,3,,,62,0
47132,note_off,,,,,284,0,2,,,,,1,,,62,0
47136,note_on,,,,,4,0,5,,,,,3,,,66,108
47136,note_on,,,,,4,0,2,,,,,1,,,66,90
47228,note_off,,,,,92,0,5,,,,,3,,,66,0
47228,note_off,,,,,92,0,2,,,,,1,,,66,0
47232,note_on,,,,,4,0,5,,,,,3,,,59,108
47232,note_on,,,,,4,0,2,,,,,1,,,59,90
47360,note_off,,,,,512,0,1,,,,,0,,,83,0
47360,note_off,,,,,512,0,4,,,,,2,,,83,0
47516,note_off,,,,,284,0,2,,,,,1,,,59,0
47516,note_off,,,,,284,0,5,,,,,3,,,59,0
47520,note_on,,,,,160,0,1,,,,,0,,,83,90
47520,note_on,,,,,4,0,2,,,,,1,,,59,90
47520,note_on,,,,,4,0,5,,,,,3,,,59,108
47520,note_on,,,,,160,0,4,,,,,2,,,83,108
47612,note_off,,,,,92,0,2,,,,,1,,,59,0
47612,note_off,,,,,92,0,5,,,,,3,,,59,0
47612,note_off,,,,,92,0,4,,,,,2,,,83,0
47612,note_off,,,,,92,0,1,,,,,0,,,83,0
47616,note_on,,,,,4,0,5,,,,,3,,,61,108
47616,note_on,,,,,4,0,1,,,,,0,,,81,90
47616,note_on,,,,,4,0,2,,,,,1,,,61,90
47616,note_on,,,,,4,0,4,,,,,2,,,81,108
47740,note_off,,,,,124,0,1,,,,,0,,,81,0
47740,note_off,,,,,124,0,4,,,,,2,,,81,0
47744,note_on,,,,,4,0,4,,,,,2,,,83,108
47744,note_on,,,,,4,0,1,,,,,0,,,83,90
47868,note_off,,,,,124,0,1,,,,,0,,,83,0
47868,note_off,,,,,124,0,4,,,,,2,,,83,0
47872,note_on,,,,,4,0,1,,,,,0,,,81,90
47872,note_on,,,,,4,0,4,,,,,2,,,81,108
47900,note_off,,,,,284,0,5,,,,,3,,,61,0
47900,note_off,,,,,284,0,2,,,,,1,,,61,0
47904,note_on,,,,,4,0,2,,,,,1,,,61,90
47904,note_on,,,,,4,0,5,,,,,3,,,61,108
47996,note_off,,,,,92,0,2,,,,,1,,,61,0
47996,note_off,,,,,124,0,1,,,,,0,,,81,0
47996,note_off,,,,,124,0,4,,,,,2,,,81,0
47996,note_off,,,,,92,0,5,,,,,3,,,61,0
48000,note_on,,,,,4,0,1,,,,,0,,,79,90
48000,note_on,,,,,4,0,2,,,,,1,,,63,90
48000,note_on,,,,,4,0,4,,,,,2,,,79,108
48000,note_on,,,,,4,0,5,,,,,3,,,63,108
48284,note_off,,,,,284,0,2,,,,,1,,,63,0
48284,note_off,,,,,284,0,4,,,,,2,,,79,0
48284,note_off,,,,,284,0,1,,,,,0,,,79,0
48284,note_off,,,,,284,0,5,,,,,3,,,63,0
48288,note_on,,,,,4,0,4,,,,,2,,,78,108
48288,note_on,,,,,4,0,2,,,,,1,,,63,90
48288,note_on,,,,,4,0,1,,,,,0,,,78,90
48288,note_on,,,,,4,0,5,,,,,3,,,63,108
48380,note_off,,,,,92,0,5,,,,,3,,,63,0
48380,note_off,,,,,92,0,4,,,,,2,,,78,0
48380,note_off,,,,,92,0,2,,,,,1,,,63,0
48380,note_off,,,,,92,0,1,,,,,0,,,78,0
48384,note_on,,,,,4,0,2,,,,,1,,,64,90
48384,note_on,,,,,4,0,1,,,,,0,,,79,90
48384,note_on,,,,,4,0,5,,,,,3,,,64,108
48384,note_on,,,,,4,0,4,,,,,2,,,79,108
48668,note_off,,,,,284,0,2,,,,,1,,,64,0
48668,note_off,,,,,284,0,5,,,,,3,,,64,0
48672,note_on,,,,,4,0,5,,,,,3,,,67,108
48672,note_on,,,,,4,0,2,,,,,1,,,67,90
48764,note_off,,,,,92,0,2,,,,,1,,,67,0
48764,note_off,,,,,92,0,5,,,,,3,,,67,0
48768,note_on,,,,,4,0,5,,,,,3,,,61,108
48768,note_on,,,,,4,0,2,,,,,1,,,61,90
48896,note_off,,,,,512,0,1,,,,,0,,,79,0
48896,note_off,,,,,512,0,4,,,,,2,,,79,0
49052,note_off,,,,,284,0,5,,,,,3,,,61,0
49052,note_off,,,,,284,0,2,,,,,1,,,61,0
49056,note_on,,,,,160,0,4,,,,,2,,,79,108
49056,note_on,,,,,4,0,2,,,,,1,,,64,90
49056,note_on,,,,,160,0,1,,,,,0,,,79,90
49056,note_on,,,,,4,0,5,,,,,3,,,64,108
49148,note_off,,,,,92,0,2,,,,,1,,,64,0
49148,note_off,,,,,92,0,4,,,,,2,,,79,0
49148,note_off,,,,,92,0,5,,,,,3,,,64,0
49148,note_off,,,,,92,0,1,,,,,0,,,79,0
49152,note_on,,,,,4,0,4,,,,,2,,,78,108
49152,note_on,,,,,4,0,5,,,,,3,,,58,108
49152,note_on,,,,,4,0,2,,,,,1,,,58,90
49152,note_on,,,,,4,0,1,,,,,0,,,78,90
49276,note_off,,,,,124,0,4,,,,,2,,,78,0
49276,note_off,,,,,124,0,1,,,,,0,,,78,0
49280,note_on,,,,,4,0,4,,,,,2,,,79,108
49280,note_on,,,,,4,0,1,,,,,0,,,79,90
49404,note_off,,,,,124,0,4,,,,,2,,,79,0
49404,note_off,,,,,124,0,1,,,,,0,,,79,0
49408,note_on,,,,,4,0,1,,,,,0,,,78,90
49408,note_on,,,,,4,0,4,,,,,2,,,78,108
49436,note_off,,,,,284,0,2,,,,,1,,,58,0
49436,note_off,,,,,284,0,5,,,,,3,,,58,0
49440,note_on,,,,,4,0,2,,,,,1,,,70,90
49440,note_on,,,,,4,0,5,,,,,3,,,70,108
49532,note_off,,,,,124,0,4,,,,,2,,,78,0
49532,note_off,,,,,92,0,2,,,,,1,,,70,0
49532,note_off,,,,,124,0,1,,,,,0,,,78,0
49532,note_off,,,,,92,0,5,,,,,3,,,70,0
49536,note_on,,,,,4,0,2,,,,,1,,,73,90
49536,note_on,,,,,4,0,1,,,,,0,,,76,90
49536,note_on,,,,,4,0,5,,,,,3,,,73,108
49536,note_on,,,,,4,0,4,,,,,2,,,76,108
49660,note_off,,,,,124,0,4,,,,,2,,,76,0
49660,note_off,,,,,124,0,1,,,,,0,,,76,0
49664,note_on,,,,,4,0,1,,,,,0,,,78,90
49664,note_on,,,,,4,0,4,,,,,2,,,78,108
49788,note_off,,,,,124,0,1,,,,,0,,,78,0
49788,note_off,,,,,124,0,4,,,,,2,,,78,0
49792,note_on,,,,,4,0,1,,,,,0,,,73,90
49792,note_on,,,,,4,0,4,,,,,2,,,73,108
49820,note_off,,,,,284,0,5,,,,,3,,,73,0
49820,note_off,,,,,284,0,2,,,,,1,,,73,0
49824,note_on,,,,,4,0,5,,,,,3,,,66,108
49824,note_on,,,,,4,0,2,,,,,1,,,66,90
49916,note_off,,,,,124,0,4,,,,,2,,,73,0
49916,note_off,,,,,92,0,2,,,,,1,,,66,0
49916,note_off,,,,,124,0,1,,,,,0,,,73,0
49916,note_off,,,,,92,0,5,,,,,3,,,66,0
49920,note_on,,,,,4,0,2,,,,,1,,,71,90
49920,note_on,,,,,4,0,1,,,,,0,,,74,90
49920,note_on,,,,,4,0,4,,,,,2,,,74,108
49920,note_on,,,,,4,0,5,,,,,3,,,71,108
50044,note_off,,,,,124,0,4,,,,,2,,,74,0
50044,note_off,,,,,124,0,5,,,,,3,,,71,0
50044,note_off,,,,,124,0,2,,,,,1,,,71,0
50044,note_off,,,,,124,0,1,,,,,0,,,74,0
50048,note_on,,,,,4,0,5,,,,,3,,,73,108
50048,note_on,,,,,4,0,2,,,,,1,,,73,90
50048,note_on,,,,,4,0,4,,,,,2,,,76,108
50048,note_on,,,,,4,0,1,,,,,0,,,76,90
50172,note_off,,,,,124,0,5,,,,,3,,,73,0
50172,note_off,,,,,124,0,1,,,,,0,,,76,0
50172,note_off,,,,,124,0,4,,,,,2,,,76,0
50172,note_off,,,,,124,0,2,,,,,1,,,73,0
50176,note_on,,,,,4,0,1,,,,,0,,,74,90
50176,note_on,,,,,4,0,2,,,,,1,,,71,90
50176,note_on,,,,,4,0,4,,,,,2,,,74,108
50176,note_on,,,,,4,0,5,,,,,3,,,71,108
50300,note_off,,,,,124,0,1,,,,,0,,,74,0
50300,note_off,,,,,124,0,2,,,,,1,,,71,0
50300,note_off,,,,,124,0,4,,,,,2,,,74,0
50300,note_off,,,,,124,0,5,,,,,3,,,71,0
50304,note_on,,,,,4,0,5,,,,,3,,,69,108
50304,note_on,,,,,4,0,4,,,,,2,,,73,108
50304,note_on,,,,,4,0,2,,,,,1,,,69,90
50304,note_on,,,,,4,0,1,,,,,0,,,73,90
50588,note_off,,,,,284,0,1,,,,,0,,,73,0
50588,note_off,,,,,284,0,4,,,,,2,,,73,0
50588,note_off,,,,,284,0,5,,,,,3,,,69,0
50588,note_off,,,,,284,0,2,,,,,1,,,69,0
50592,note_on,,,,,4,0,1,,,,,0,,,78,90
50592,note_on,,,,,4,0,2,,,,,1,,,66,90
50592,note_on,,,,,4,0,5,,,,,3,,,66,108
50592,note_on,,,,,4,0,4,,,,,2,,,78,108
50684,note_off,,,,,92,0,5,,,,,3,,,66,0
50684,note_off,,,,,92,0,2,,,,,1,,,66,0
50684,note_off,,,,,92,0,1,,,,,0,,,78,0
50684,note_off,,,,,92,0,4,,,,,2,,,78,0
50688,note_on,,,,,4,0,4,,,,,2,,,71,108
50688,note_on,,,,,4,0,5,,,,,3,,,67,108
50688,note_on,,,,,4,0,1,,,,,0,,,71,90
50688,note_on,,,,,4,0,2,,,,,1,,,67,90
50972,note_off,,,,,284,0,5,,,,,3,,,67,0
50972,note_off,,,,,284,0,2,,,,,1,,,67,0
50976,note_on,,,,,4,0,5,,,,,3,,,66,108
50976,note_on,,,,,4,0,2,,,,,1,,,66,90
51068,note_off,,,,,92,0,2,,,,,1,,,66,0
51068,note_off,,,,,92,0,5,,,,,3,,,66,0
51072,note_on,,,,,4,0,2,,,,,1,,,67,90
51072,note_on,,,,,4,0,5,,,,,3,,,67,108
51356,note_off,,,,,284,0,2,,,,,1,,,67,0
51356,note_off,,,,,284,0,5,,,,,3,,,67,0
51360,note_on,,,,,4,0,2,,,,,1,,,64,90
51360,note_off,,,,,672,0,4,,,,,2,,,71,0
51360,note_off,,,,,672,0,1,,,,,0,,,71,0
51360,note_on,,,,,4,0,5,,,,,3,,,64,108
51452,note_off,,,,,92,0,5,,,,,3,,,64,0
51452,note_off,,,,,92,0,2,,,,,1,,,64,0
51456,note_on,,,,,96,0,4,,,,,2,,,70,108
51456,note_on,,,,,4,0,5,,,,,3,,,66,108
51456,note_on,,,,,4,0,2,,,,,1,,,66,90
51456,note_on,,,,,96,0,1,,,,,0,,,70,90
51740,note_off,,,,,284,0,5,,,,,3,,,66,0
51740,note_off,,,,,284,0,2,,,,,1,,,66,0
51744,note_on,,,,,4,0,2,,,,,1,,,64,90
51744,note_on,,,,,4,0,5,,,,,3,,,64,108
51836,note_off,,,,,92,0,2,,,,,1,,,64,0
51836,note_off,,,,,92,0,5,,,,,3,,,64,0
51840,note_on,,,,,4,0,2,,,,,1,,,62,90
51840,note_on,,,,,4,0,5,,,,,3,,,62,108
51968,note_off,,,,,512,0,4,,,,,2,,,70,0
51968,note_off,,,,,512,0,1,,,,,0,,,70,0
52124,note_off,,,,,284,0,2,,,,,1,,,62,0
52124,note_off,,,,,284,0,5,,,,,3,,,62,0
52128,note_on,,,,,4,0,2,,,,,1,,,61,90
52128,note_on,,,,,160,0,1,,,,,0,,,73,90
52128,note_on,,,,,160,0,4,,,,,2,,,73,108
52128,note_on,,,,,4,0,5,,,,,3,,,61,108
52220,note_off,,,,,92,0,2,,,,,1,,,61,0
52220,note_off,,,,,92,0,1,,,,,0,,,73,0
52220,note_off,,,,,92,0,4,,,,,2,,,73,0
52220,note_off,,,,,92,0,5,,,,,3,,,61,0
52224,note_on,,,,,4,0,1,,,,,0,,,74,90
52224,note_on,,,,,4,0,5,,,,,3,,,59,108
52224,note_on,,,,,4,0,4,,,,,2,,,74,108
52224,note_on,,,,,4,0,2,,,,,1,,,59,90
52348,note_off,,,,,124,0,1,,,,,0,,,74,0
52348,note_off,,,,,124,0,4,,,,,2,,,74,0
52352,note_on,,,,,4,0,4,,,,,2,,,76,108
52352,note_on,,,,,4,0,1,,,,,0,,,76,90
52476,note_off,,,,,124,0,4,,,,,2,,,76,0
52476,note_off,,,,,124,0,1,,,,,0,,,76,0
52480,note_on,,,,,4,0,1,,,,,0,,,74,90
52480,note_on,,,,,4,0,4,,,,,2,,,74,108
52604,note_off,,,,,124,0,4,,,,,2,,,74,0
52604,note_off,,,,,124,0,1,,,,,0,,,74,0
52608,note_on,,,,,4,0,1,,,,,0,,,73,90
52608,note_on,,,,,4,0,4,,,,,2,,,73,108
52732,note_off,,,,,124,0,1,,,,,0,,,73,0
52732,note_off,,,,,124,0,4,,,,,2,,,73,0
52736,note_off,,,,,512,0,5,,,,,3,,,59,0
52736,note_on,,,,,4,0,4,,,,,2,,,74,108
52736,note_off,,,,,512,0,2,,,,,1,,,59,0
52736,note_on,,,,,4,0,1,,,,,0,,,74,90
52860,note_off,,,,,124,0,4,,,,,2,,,74,0
52860,note_off,,,,,124,0,1,,,,,0,,,74,0
52864,note_on,,,,,4,0,1,,,,,0,,,73,90
52864,note_on,,,,,4,0,4,,,,,2,,,73,108
52896,note_on,,,,,160,0,2,,,,,1,,,66,90
52896,note_on,,,,,160,0,5,,,,,3,,,66,108
52988,note_off,,,,,92,0,2,,,,,1,,,66,0
52988,note_off,,,,,124,0,1,,,,,0,,,73,0
52988,note_off,,,,,92,0,5,,,,,3,,,66,0
52988,note_off,,,,,124,0,4,,,,,2,,,73,0
52992,note_on,,,,,4,0,1,,,,,0,,,71,90
52992,note_on,,,,,4,0,4,,,,,2,,,71,108
52992,note_on,,,,,4,0,5,,,,,3,,,67,108
52992,note_on,,,,,4,0,2,,,,,1,,,67,90
53116,note_off,,,,,124,0,5,,,,,3,,,67,0
53116,note_off,,,,,124,0,2,,,,,1,,,67,0
53120,note_on,,,,,4,0,2,,,,,1,,,69,90
53120,note_on,,,,,4,0,5,,,,,3,,,69,108
53244,note_off,,,,,124,0,5,,,,,3,,,69,0
53244,note_off,,,,,124,0,2,,,,,1,,,69,0
53248,note_on,,,,,4,0,5,,,,,3,,,67,108
53248,note_on,,,,,4,0,2,,,,,1,,,67,90
53372,note_off,,,,,124,0,5,,,,,3,,,67,0
53372,note_off,,,,,124,0,2,,,,,1,,,67,0
53376,note_on,,,,,4,0,5,,,,,3,,,66,108
53376,note_on,,,,,4,0,2,,,,,1,,,66,90
53500,note_off,,,,,124,0,5,,,,,3,,,66,0
53500,note_off,,,,,124,0,2,,,,,1,,,66,0
53504,note_on,,,,,4,0,2,,,,,1,,,67,90
53504,note_off,,,,,512,0,1,,,,,0,,,71,0
53504,note_off,,,,,512,0,4,,,,,2,,,71,0
53504,note_on,,,,,4,0,5,,,,,3,,,67,108
53628,note_off,,,,,124,0,2,,,,,1,,,67,0
53628,note_off,,,,,124,0,5,,,,,3,,,67,0
53632,note_on,,,,,4,0,2,,,,,1,,,66,90
53632,note_on,,,,,4,0,5,,,,,3,,,66,108
53664,note_on,,,,,160,0,1,,,,,0,,,75,90
53664,note_on,,,,,160,0,4,,,,,2,,,75,108
53756,note_off,,,,,124,0,2,,,,,1,,,66,0
53756,note_off,,,,,92,0,4,,,,,2,,,75,0
53756,note_off,,,,,92,0,1,,,,,0,,,75,0
53756,note_off,,,,,124,0,5,,,,,3,,,66,0
53760,note_on,,,,,4,0,5,,,,,3,,,64,108
53760,note_on,,,,,4,0,4,,,,,2,,,76,108
53760,note_on,,,,,4,0,2,,,,,1,,,64,90
53760,note_on,,,,,4,0,1,,,,,0,,,76,90
53884,note_off,,,,,124,0,1,,,,,0,,,76,0
53884,note_off,,,,,124,0,4,,,,,2,,,76,0
53888,note_on,,,,,4,0,4,,,,,2,,,78,108
53888,note_on,,,,,4,0,1,,,,,0,,,78,90
54012,note_off,,,,,124,0,1,,,,,0,,,78,0
54012,note_off,,,,,124,0,4,,,,,2,,,78,0
54016,note_on,,,,,4,0,1,,,,,0,,,76,90
54016,note_on,,,,,4,0,4,,,,,2,,,76,108
54140,note_off,,,,,124,0,1,,,,,0,,,76,0
54140,note_off,,,,,124,0,4,,,,,2,,,76,0
54144,note_on,,,,,4,0,4,,,,,2,,,74,108
54144,note_on,,,,,4,0,1,,,,,0,,,74,90
54268,note_off,,,,,124,0,4,,,,,2,,,74,0
54268,note_off,,,,,124,0,1,,,,,0,,,74,0
54272,note_off,,,,,512,0,5,,,,,3,,,64,0
54272,note_on,,,,,4,0,4,,,,,2,,,76,108
54272,note_off,,,,,512,0,2,,,,,1,,,64,0
54272,note_on,,,,,4,0,1,,,,,0,,,76,90
54396,note_off,,,,,124,0,4,,,,,2,,,76,0
54396,note_off,,,,,124,0,1,,,,,0,,,76,0
54400,note_on,,,,,4,0,1,,,,,0,,,74,90
54400,note_on,,,,,4,0,4,,,,,2,,,74,108
54432,note_on,,,,,160,0,2,,,,,1,,,68,90
54432,note_on,,,,,160,0,5,,,,,3,,,68,108
54524,note_off,,,,,124,0,1,,,,,0,,,74,0
54524,note_off,,,,,92,0,5,,,,,3,,,68,0
54524,note_off,,,,,124,0,4,,,,,2,,,74,0
54524,note_off,,,,,92,0,2,,,,,1,,,68,0
54528,note_on,,,,,4,0,1,,,,,0,,,73,90
54528,note_on,,,,,4,0,5,,,,,3,,,69,108
54528,note_on,,,,,4,0,2,,,,,1,,,69,90
54528,note_on,,,,,4,0,4,,,,,2,,,73,108
54652,note_off,,,,,124,0,5,,,,,3,,,69,0
54652,note_off,,,,,124,0,2,,,,,1,,,69,0
54656,note_on,,,,,4,0,2,,,,,1,,,71,90
54656,note_on,,,,,4,0,5,,,,,3,,,71,108
54780,note_off,,,,,124,0,2,,,,,1,,,71,0
54780,note_off,,,,,124,0,5,,,,,3,,,71,0
54784,note_on,,,,,4,0,5,,,,,3,,,69,108
54784,note_on,,,,,4,0,2,,,,,1,,,69,90
54908,note_off,,,,,124,0,5,,,,,3,,,69,0
54908,note_off,,,,,124,0,2,,,,,1,,,69,0
54912,note_on,,,,,4,0,5,,,,,3,,,67,108
54912,note_on,,,,,4,0,2,,,,,1,,,67,90
55036,note_off,,,,,124,0,2,,,,,1,,,67,0
55036,note_off,,,,,124,0,5,,,,,3,,,67,0
55040,note_on,,,,,4,0,2,,,,,1,,,69,90
55040,note_off,,,,,512,0,4,,,,,2,,,73,0
55040,note_on,,,,,4,0,5,,,,,3,,,69,108
55040,note_off,,,,,512,0,1,,,,,0,,,73,0
55164,note_off,,,,,124,0,2,,,,,1,,,69,0
55164,note_off,,,,,124,0,5,,,,,3,,,69,0
55168,note_on,,,,,4,0,2,,,,,1,,,67,90
55168,note_on,,,,,4,0,5,,,,,3,,,67,108
55200,note_on,,,,,160,0,1,,,,,0,,,76,90
55200,note_on,,,,,160,0,4,,,,,2,,,76,108
55292,note_off,,,,,124,0,5,,,,,3,,,67,0
55292,note_off,,,,,92,0,1,,,,,0,,,76,0
55292,note_off,,,,,124,0,2,,,,,1,,,67,0
55292,note_off,,,,,92,0,4,,,,,2,,,76,0
55296,note_on,,,,,4,0,5,,,,,3,,,66,108
55296,note_on,,,,,4,0,2,,,,,1,,,66,90
55296,note_on,,,,,4,0,4,,,,,2,,,78,108
55296,note_on,,,,,4,0,1,,,,,0,,,78,90
55420,note_off,,,,,124,0,1,,,,,0,,,78,0
55420,note_off,,,,,124,0,4,,,,,2,,,78,0
55424,note_on,,,,,4,0,4,,,,,2,,,79,108
55424,note_on,,,,,4,0,1,,,,,0,,,79,90
55548,note_off,,,,,124,0,1,,,,,0,,,79,0
55548,note_off,,,,,124,0,4,,,,,2,,,79,0
55552,note_on,,,,,4,0,1,,,,,0,,,78,90
55552,note_on,,,,,4,0,4,,,,,2,,,78,108
55676,note_off,,,,,124,0,1,,,,,0,,,78,0
55676,note_off,,,,,124,0,4,,,,,2,,,78,0
55680,note_on,,,,,4,0,1,,,,,0,,,76,90
55680,note_on,,,,,4,0,4,,,,,2,,,76,108
55804,note_off,,,,,124,0,4,,,,,2,,,76,0
55804,note_off,,,,,124,0,1,,,,,0,,,76,0
55808,note_on,,,,,4,0,1,,,,,0,,,78,90
55808,note_off,,,,,512,0,5,,,,,3,,,66,0
55808,note_off,,,,,512,0,2,,,,,1,,,66,0
55808,note_on,,,,,4,0,4,,,,,2,,,78,108
55932,note_off,,,,,124,0,1,,,,,0,,,78,0
55932,note_off,,,,,124,0,4,,,,,2,,,78,0
55936,note_on,,,,,4,0,1,,,,,0,,,76,90
55936,note_on,,,,,4,0,4,,,,,2,,,76,108
55968,note_on,,,,,160,0,2,,,,,1,,,70,90
55968,note_on,,,,,160,0,5,,,,,3,,,70,108
56060,note_off,,,,,92,0,2,,,,,1,,,70,0
56060,note_off,,,,,92,0,5,,,,,3,,,70,0
56060,note_off,,,,,124,0,4,,,,,2,,,76,0
56060,note_off,,,,,124,0,1,,,,,0,,,76,0
56064,note_on,,,,,4,0,4,,,,,2,,,75,108
56064,note_on,,,,,4,0,2,,,,,1,,,71,90
56064,note_on,,,,,4,0,1,,,,,0,,,75,90
56064,note_on,,,,,4,0,5,,,,,3,,,71,108
56188,note_off,,,,,124,0,5,,,,,3,,,71,0
56188,note_off,,,,,124,0,2,,,,,1,,,71,0
56192,note_on,,,,,4,0,5,,,,,3,,,73,108
56192,note_on,,,,,4,0,2,,,,,1,,,73,90
56316,note_off,,,,,124,0,5,,,,,3,,,73,0
56316,note_off,,,,,124,0,2,,,,,1,,,73,0
56320,note_on,,,,,4,0,5,,,,,3,,,71,108
56320,note_on,,,,,4,0,2,,,,,1,,,71,90
56444,note_off,,,,,124,0,5,,,,,3,,,71,0
56444,note_off,,,,,124,0,2,,,,,1,,,71,0
56448,note_on,,,,,4,0,2,,,,,1,,,69,90
56448,note_on,,,,,4,0,5,,,,,3,,,69,108
56572,note_off,,,,,124,0,5,,,,,3,,,69,0
56572,note_off,,,,,124,0,2,,,,,1,,,69,0
56576,note_off,,,,,512,0,4,,,,,2,,,75,0
56576,note_on,,,,,4,0,5,,,,,3,,,71,108
56576,note_off,,,,,512,0,1,,,,,0,,,75,0
56576,note_on,,,,,4,0,2,,,,,1,,,71,90
56700,note_off,,,,,124,0,2,,,,,1,,,71,0
56700,note_off,,,,,124,0,5,,,,,3,,,71,0
56704,note_on,,,,,4,0,2,,,,,1,,,69,90
56704,note_on,,,,,4,0,5,,,,,3,,,69,108
56736,note_on,,,,,160,0,4,,,,,2,,,78,108
56736,note_on,,,,,160,0,1,,,,,0,,,78,90
56828,note_off,,,,,92,0,1,,,,,0,,,78,0
56828,note_off,,,,,92,0,4,,,,,2,,,78,0
56828,note_off,,,,,124,0,2,,,,,1,,,69,0
56828,note_off,,,,,124,0,5,,,,,3,,,69,0
56832,note_on,,,,,4,0,4,,,,,2,,,71,108
56832,note_on,,,,,4,0,1,,,,,0,,,71,90
56832,note_on,,,,,4,0,5,,,,,3,,,67,108
56832,note_on,,,,,4,0,2,,,,,1,,,67,90
56956,note_off,,,,,124,0,5,,,,,3,,,67,0
56956,note_off,,,,,124,0,2,,,,,1,,,67,0
56956,note_off,,,,,124,0,4,,,,,2,,,71,0
56956,note_off,,,,,124,0,1,,,,,0,,,71,0
56960,note_on,,,,,4,0,2,,,,,1,,,69,90
56960,note_on,,,,,4,0,1,,,,,0,,,72,90
56960,note_on,,,,,4,0,4,,,,,2,,,72,108
56960,note_on,,,,,4,0,5,,,,,3,,,69,108
57084,note_off,,,,,124,0,1,,,,,0,,,72,0
57084,note_off,,,,,124,0,5,,,,,3,,,69,0
57084,note_off,,,,,124,0,2,,,,,1,,,69,0
57084,note_off,,,,,124,0,4,,,,,2,,,72,0
57088,note_on,,,,,4,0,1,,,,,0,,,71,90
57088,note_on,,,,,4,0,5,,,,,3,,,67,108
57088,note_on,,,,,4,0,2,,,,,1,,,67,90
57088,note_on,,,,,4,0,4,,,,,2,,,71,108
57212,note_off,,,,,124,0,5,,,,,3,,,67,0
57212,note_off,,,,,124,0,2,,,,,1,,,67,0
57212,note_off,,,,,124,0,4,,,,,2,,,71,0
57212,note_off,,,,,124,0,1,,,,,0,,,71,0
57216,note_on,,,,,4,0,4,,,,,2,,,69,108
57216,note_on,,,,,4,0,5,,,,,3,,,66,108
57216,note_on,,,,,4,0,1,,,,,0,,,69,90
57216,note_on,,,,,4,0,2,,,,,1,,,66,90
57340,note_off,,,,,124,0,4,,,,,2,,,69,0
57340,note_off,,,,,124,0,5,,,,,3,,,66,0
57340,note_off,,,,,124,0,1,,,,,0,,,69,0
57340,note_off,,,,,124,0,2,,,,,1,,,66,0
57344,note_on,,,,,4,0,1,,,,,0,,,71,90
57344,note_on,,,,,4,0,4,,,,,2,,,71,108
57344,note_on,,,,,4,0,2,,,,,1,,,67,90
57344,note_on,,,,,4,0,5,,,,,3,,,67,108
57468,note_off,,,,,124,0,1,,,,,0,,,71,0
57468,note_off,,,,,124,0,4,,,,,2,,,71,0
57468,note_off,,,,,124,0,2,,,,,1,,,67,0
57468,note_off,,,,,124,0,5,,,,,3,,,67,0
57472,note_on,,,,,4,0,1,,,,,0,,,69,90
57472,note_on,,,,,4,0,4,,,,,2,,,69,108
57472,note_on,,,,,4,0,2,,,,,1,,,66,90
57472,note_on,,,,,4,0,5,,,,,3,,,66,108
57596,note_off,,,,,124,0,2,,,,,1,,,66,0
57596,note_off,,,,,124,0,1,,,,,0,,,69,0
57596,note_off,,,,,124,0,4,,,,,2,,,69,0
57596,note_off,,,,,124,0,5,,,,,3,,,66,0
57600,note_on,,,,,4,0,5,,,,,3,,,71,108
57600,note_on,,,,,4,0,2,,,,,1,,,71,90
57600,note_on,,,,,4,0,4,,,,,2,,,67,108
57600,note_on,,,,,4,0,1,,,,,0,,,67,90
57724,note_off,,,,,124,0,5,,,,,3,,,71,0
57724,note_off,,,,,124,0,2,,,,,1,,,71,0
57728,note_on,,,,,4,0,5,,,,,3,,,72,108
57728,note_on,,,,,4,0,2,,,,,1,,,72,90
57852,note_off,,,,,124,0,2,,,,,1,,,72,0
57852,note_off,,,,,124,0,5,,,,,3,,,72,0
57856,note_on,,,,,4,0,2,,,,,1,,,71,90
57856,note_on,,,,,4,0,5,,,,,3,,,71,108
57920,note_off,,,,,320,0,1,,,,,0,,,67,0
57920,note_off,,,,,320,0,4,,,,,2,,,67,0
57980,note_off,,,,,124,0,5,,,,,3,,,71,0
57980,note_off,,,,,124,0,2,,,,,1,,,71,0
57984,note_on,,,,,4,0,5,,,,,3,,,69,108
57984,note_on,,,,,4,0,2,,,,,1,,,69,90
58108,note_off,,,,,124,0,5,,,,,3,,,69,0
58108,note_off,,,,,124,0,2,,,,,1,,,69,0
58112,note_on,,,,,4,0,2,,,,,1,,,71,90
58112,note_on,,,,,4,0,5,,,,,3,,,71,108
58236,note_off,,,,,124,0,2,,,,,1,,,71,0
58236,note_off,,,,,124,0,5,,,,,3,,,71,0
58240,note_on,,,,,4,0,2,,,,,1,,,69,90
58240,note_on,,,,,4,0,5,,,,,3,,,69,108
58364,note_off,,,,,124,0,5,,,,,3,,,69,0
58364,note_off,,,,,124,0,2,,,,,1,,,69,0
58368,note_on,,,,,12352,0,3,,,,,8,,,52,92
58368,note_on,,,,,12352,0,8,,,,,6,,,40,92
58368,note_on,,,,,4,0,2,,,,,1,,,76,90
58368,note_on,,,,,12352,0,10,,,,,7,,,52,60
58368,note_on,,,,,4,0,5,,,,,3,,,76,108
58368,note_on,,,,,448,0,4,,,,,2,,,79,108
58368,note_on,,,,,12352,0,7,,,,,5,,,52,92
58368,note_on,,,,,448,0,1,,,,,0,,,79,90
58368,note_on,,,,,12352,0,9,,,,,7,,,52,60
58368,note_on,,,,,12352,0,6,,,,,4,,,71,92
58492,note_off,,,,,124,0,2,,,,,1,,,76,0
58492,note_off,,,,,124,0,1,,,,,0,,,79,0
58492,note_off,,,,,124,0,5,,,,,3,,,76,0
58492,note_off,,,,,124,0,4,,,,,2,,,79,0
58496,note_on,,,,,4,0,5,,,,,3,,,78,108
58496,note_on,,,,,4,0,4,,,,,2,,,81,108
58496,note_on,,,,,4,0,2,,,,,1,,,78,90
58496,note_on,,,,,4,0,1,,,,,0,,,81,90
58620,note_off,,,,,124,0,4,,,,,2,,,81,0
58620,note_off,,,,,124,0,2,,,,,1,,,78,0
58620,note_off,,,,,124,0,1,,,,,0,,,81,0
58620,note_off,,,,,124,0,5,,,,,3,,,78,0
58624,note_on,,,,,4,0,5,,,,,3,,,76,108
58624,note_on,,,,,4,0,2,,,,,1,,,76,90
58624,note_on,,,,,4,0,1,,,,,0,,,79,90
58624,note_on,,,,,4,0,4,,,,,2,,,79,108
58652,note_off,,,,,284,0,9,,,,,7,,,52,0
58652,note_off,,,,,284,0,3,,,,,8,,,52,0
58652,note_off,,,,,284,0,10,,,,,7,,,52,0
58652,note_off,,,,,284,0,7,,,,,5,,,52,0
58652,note_off,,,,,284,0,8,,,,,6,,,40,0
58652,note_off,,,,,284,0,6,,,,,4,,,71,0
58656,note_on,,,,,4,0,10,,,,,7,,,52,60
58656,note_on,,,,,4,0,7,,,,,5,,,52,92
58656,note_on,,,,,4,0,9,,,,,7,,,52,60
58656,note_on,,,,,4,0,3,,,,,8,,,52,92
58656,note_on,,,,,4,0,8,,,,,6,,,40,92
58656,note_on,,,,,4,0,6,,,,,4,,,71,92
58748,note_off,,,,,92,0,9,,,,,7,,,52,0
58748,note_off,,,,,92,0,6,,,,,4,,,71,0
58748,note_off,,,,,124,0,2,,,,,1,,,76,0
58748,note_off,,,,,124,0,1,,,,,0,,,79,0
58748,note_off,,,,,124,0,4,,,,,2,,,79,0
58748,note_off,,,,,92,0,3,,,,,8,,,52,0
58748,note_off,,,,,124,0,5,,,,,3,,,76,0
58748,note_off,,,,,92,0,7,,,,,5,,,52,0
58748,note_off,,,,,92,0,10,,,,,7,,,52,0
58748,note_off,,,,,92,0,8,,,,,6,,,40,0
58752,note_on,,,,,4,0,4,,,,,2,,,78,108
58752,note_on,,,,,4,0,6,,,,,4,,,69,92
58752,note_on,,,,,4,0,10,,,,,7,,,54,60
58752,note_on,,,,,0,0,10,,,,,7,,,62,60
58752,note_on,,,,,4,0,9,,,,,7,,,54,60
58752,note_on,,,,,4,0,1,,,,,0,,,78,90
58752,note_on,,,,,0,0,10,,,,,7,,,57,60
58752,note_on,,,,,4,0,2,,,,,1,,,75,90
58752,note_on,,,,,4,0,8,,,,,6,,,42,92
58752,note_on,,,,,4,0,3,,,,,8,,,54,92
58752,note_on,,,,,4,0,5,,,,,3,,,75,108
58752,note_on,,,,,4,0,7,,,,,5,,,54,92
58876,note_off,,,,,124,0,1,,,,,0,,,78,0
58876,note_off,,,,,124,0,4,,,,,2,,,78,0
58876,note_off,,,,,124,0,5,,,,,3,,,75,0
58876,note_off,,,,,124,0,2,,,,,1,,,75,0
58880,note_on,,,,,4,0,4,,,,,2,,,79,108
58880,note_on,,,,,4,0,5,,,,,3,,,76,108
58880,note_on,,,,,4,0,1,,,,,0,,,79,90
58880,note_on,,,,,4,0,2,,,,,1,,,76,90
59004,note_off,,,,,124,0,5,,,,,3,,,76,0
59004,note_off,,,,,124,0,4,,,,,2,,,79,0
59004,note_off,,,,,124,0,1,,,,,0,,,79,0
59004,note_off,,,,,124,0,2,,,,,1,,,76,0
59008,note_on,,,,,4,0,2,,,,,1,,,75,90
59008,note_on,,,,,4,0,5,,,,,3,,,75,108
59008,note_on,,,,,4,0,1,,,,,0,,,78,90
59008,note_on,,,,,4,0,4,,,,,2,,,78,108
59036,note_off,,,,,284,0,7,,,,,5,,,54,0
59036,note_off,,,,,284,0,8,,,,,6,,,42,0
59036,note_off,,,,,284,0,3,,,,,8,,,54,0
59036,note_off,,,,,0,0,10,,,,,7,,,62,0
59036,note_off,,,,,284,0,9,,,,,7,,,54,0
59036,note_off,,,,,284,0,10,,,,,7,,,54,0
59036,note_off,,,,,0,0,10,,,,,7,,,57,0
59036,note_off,,,,,284,0,6,,,,,4,,,69,0
59040,note_on,,,,,4,0,9,,,,,7,,,54,60
59040,note_on,,,,,4,0,8,,,,,6,,,42,92
59040,note_on,,,,,4,0,7,,,,,5,,,54,92
59040,note_on,,,,,4,0,6,,,,,4,,,69,92
59040,note_on,,,,,4,0,3,,,,,8,,,54,92
59040,note_on,,,,,4,0,10,,,,,7,,,54,60
59132,note_off,,,,,124,0,2,,,,,1,,,75,0
59132,note_off,,,,,92,0,6,,,,,4,,,69,0
59132,note_off,,,,,124,0,5,,,,,3,,,75,0
59132,note_off,,,,,92,0,9,,,,,7,,,54,0
59132,note_off,,,,,124,0,1,,,,,0,,,78,0
59132,note_off,,,,,92,0,3,,,,,8,,,54,0
59132,note_off,,,,,124,0,4,,,,,2,,,78,0
59132,note_off,,,,,92,0,7,,,,,5,,,54,0
59132,note_off,,,,,92,0,8,,,,,6,,,42,0
59132,note_off,,,,,92,0,10,,,,,7,,,54,0
59136,note_on,,,,,4,0,2,,,,,1,,,76,90
59136,note_on,,,,,4,0,6,,,,,4,,,71,92
59136,note_on,,,,,4,0,8,,,,,6,,,43,92
59136,note_on,,,,,4,0,9,,,,,7,,,55,60
59136,note_on,,,,,4,0,4,,,,,2,,,76,108
59136,note_on,,,,,4,0,7,,,,,5,,,55,92
59136,note_on,,,,,4,0,1,,,,,0,,,76,90
59136,note_on,,,,,4,0,5,,,,,3,,,76,108
59136,note_on,,,,,0,0,10,,,,,7,,,64,60
59136,note_on,,,,,4,0,3,,,,,8,,,55,92
59136,note_on,,,,,4,0,10,,,,,7,,,55,60
59420,note_off,,,,,284,0,10,,,,,7,,,55,0
59420,note_off,,,,,284,0,3,,,,,8,,,55,0
59420,note_off,,,,,284,0,9,,,,,7,,,55,0
59420,note_off,,,,,0,0,10,,,,,7,,,64,0
59420,note_off,,,,,284,0,8,,,,,6,,,43,0
59420,note_off,,,,,284,0,7,,,,,5,,,55,0
59424,note_on,,,,,4,0,3,,,,,8,,,59,92
59424,note_on,,,,,4,0,9,,,,,7,,,59,60
59424,note_on,,,,,4,0,10,,,,,7,,,59,60
59424,note_on,,,,,4,0,7,,,,,5,,,59,92
59424,note_on,,,,,4,0,8,,,,,6,,,47,92
59456,note_off,,,,,320,0,2,,,,,1,,,76,0
59456,note_off,,,,,320,0,6,,,,,4,,,71,0
59456,note_off,,,,,320,0,1,,,,,0,,,76,0
59456,note_off,,,,,320,0,5,,,,,3,,,76,0
59456,note_off,,,,,320,0,4,,,,,2,,,76,0
59516,note_off,,,,,92,0,9,,,,,7,,,59,0
59516,note_off,,,,,92,0,3,,,,,8,,,59,0
59516,note_off,,,,,92,0,7,,,,,5,,,59,0
59516,note_off,,,,,92,0,10,,,,,7,,,59,0
59516,note_off,,,,,92,0,8,,,,,6,,,47,0
59520,note_on,,,,,4,0,8,,,,,6,,,40,92
59520,note_on,,,,,4,0,10,,,,,7,,,52,60
59520,note_on,,,,,4,0,9,,,,,7,,,52,60
59520,note_on,,,,,4,0,3,,,,,8,,,52,92
59520,note_on,,,,,4,0,7,,,,,5,,,52,92
59804,note_off,,,,,284,0,9,,,,,7,,,52,0
59804,note_off,,,,,284,0,8,,,,,6,,,40,0
59804,note_off,,,,,284,0,10,,,,,7,,,52,0
59804,note_off,,,,,284,0,7,,,,,5,,,52,0
59804,note_off,,,,,284,0,3,,,,,8,,,52,0
59808,note_on,,,,,4,0,9,,,,,7,,,52,60
59808,note_on,,,,,4,0,10,,,,,7,,,52,60
59808,note_on,,,,,4,0,7,,,,,5,,,52,92
59808,note_on,,,,,4,0,3,,,,,8,,,52,92
59808,note_on,,,,,4,0,8,,,,,6,,,40,92
59900,note_off,,,,,92,0,9,,,,,7,,,52,0
59900,note_off,,,,,92,0,7,,,,,5,,,52,0
59900,note_off,,,,,92,0,8,,,,,6,,,40,0
59900,note_off,,,,,92,0,10,,,,,7,,,52,0
59900,note_off,,,,,92,0,3,,,,,8,,,52,0
59904,note_on,,,,,4,0,3,,,,,8,,,54,92
59904,note_on,,,,,448,0,1,,,,,0,,,81,90
59904,note_on,,,,,4,0,7,,,,,5,,,54,92
59904,note_on,,,,,448,0,6,,,,,4,,,69,92
59904,note_on,,,,,448,0,2,,,,,1,,,75,90
59904,note_on,,,,,4,0,9,,,,,7,,,54,60
59904,note_on,,,,,0,0,10,,,,,7,,,62,60
59904,note_on,,,,,448,0,4,,,,,2,,,81,108
59904,note_on,,,,,0,0,10,,,,,7,,,57,60
59904,note_on,,,,,448,0,5,,,,,3,,,75,108
59904,note_on,,,,,4,0,10,,,,,7,,,54,60
59904,note_on,,,,,4,0,8,,,,,6,,,42,92
60028,note_off,,,,,124,0,4,,,,,2,,,81,0
60028,note_off,,,,,124,0,1,,,,,0,,,81,0
60032,note_on,,,,,4,0,4,,,,,2,,,83,108
60032,note_on,,,,,4,0,1,,,,,0,,,83,90
60156,note_off,,,,,124,0,1,,,,,0,,,83,0
60156,note_off,,,,,124,0,4,,,,,2,,,83,0
60160,note_on,,,,,4,0,1,,,,,0,,,81,90
60160,note_on,,,,,4,0,4,,,,,2,,,81,108
60188,note_off,,,,,284,0,5,,,,,3,,,75,0
60188,note_off,,,,,284,0,3,,,,,8,,,54,0
60188,note_off,,,,,284,0,2,,,,,1,,,75,0
60188,note_off,,,,,284,0,8,,,,,6,,,42,0
60188,note_off,,,,,0,0,10,,,,,7,,,62,0
60188,note_off,,,,,0,0,10,,,,,7,,,57,0
60188,note_off,,,,,284,0,6,,,,,4,,,69,0
60188,note_off,,,,,284,0,10,,,,,7,,,54,0
60188,note_off,,,,,284,0,7,,,,,5,,,54,0
60188,note_off,,,,,284,0,9,,,,,7,,,54,0
60192,note_on,,,,,4,0,3,,,,,8,,,54,92
60192,note_on,,,,,4,0,5,,,,,3,,,75,108
60192,note_on,,,,,4,0,6,,,,,4,,,69,92
60192,note_on,,,,,4,0,2,,,,,1,,,75,90
60192,note_on,,,,,4,0,7,,,,,5,,,54,92
60192,note_on,,,,,4,0,8,,,,,6,,,42,92
60192,note_on,,,,,4,0,10,,,,,7,,,54,60
60192,note_on,,,,,4,0,9,,,,,7,,,54,60
60284,note_off,,,,,92,0,10,,,,,7,,,54,0
60284,note_off,,,,,92,0,3,,,,,8,,,54,0
60284,note_off,,,,,124,0,1,,,,,0,,,81,0
60284,note_off,,,,,92,0,5,,,,,3,,,75,0
60284,note_off,,,,,92,0,8,,,,,6,,,42,0
60284,note_off,,,,,92,0,9,,,,,7,,,54,0
60284,note_off,,,,,124,0,4,,,,,2,,,81,0
60284,note_off,,,,,92,0,2,,,,,1,,,75,0
60284,note_off,,,,,92,0,6,,,,,4,,,69,0
60284,note_off,,,,,92,0,7,,,,,5,,,54,0
60288,note_on,,,,,4,0,1,,,,,0,,,79,90
60288,note_on,,,,,4,0,6,,,,,4,,,71,92
60288,note_on,,,,,4,0,2,,,,,1,,,76,90
60288,note_on,,,,,4,0,7,,,,,5,,,55,92
60288,note_on,,,,,4,0,9,,,,,7,,,55,60
60288,note_on,,,,,4,0,10,,,,,7,,,55,60
60288,note_on,,,,,0,0,10,,,,,7,,,64,60
60288,note_on,,,,,4,0,4,,,,,2,,,79,108
60288,note_on,,,,,4,0,5,,,,,3,,,76,108
60288,note_on,,,,,4,0,8,,,,,6,,,43,92
60288,note_on,,,,,4,0,3,,,,,8,,,55,92
60412,note_off,,,,,124,0,4,,,,,2,,,79,0
60412,note_off,,,,,124,0,1,,,,,0,,,79,0
60416,note_on,,,,,4,0,4,,,,,2,,,81,108
60416,note_on,,,,,4,0,1,,,,,0,,,81,90
60540,note_off,,,,,124,0,4,,,,,2,,,81,0
60540,note_off,,,,,124,0,1,,,,,0,,,81,0
60544,note_on,,,,,4,0,1,,,,,0,,,79,90
60544,note_on,,,,,4,0,4,,,,,2,,,79,108
60572,note_off,,,,,0,0,10,,,,,7,,,64,0
60572,note_off,,,,,284,0,10,,,,,7,,,55,0
60572,note_off,,,,,284,0,2,,,,,1,,,76,0
60572,note_off,,,,,284,0,5,,,,,3,,,76,0
60572,note_off,,,,,284,0,8,,,,,6,,,43,0
60572,note_off,,,,,284,0,9,,,,,7,,,55,0
60572,note_off,,,,,284,0,6,,,,,4,,,71,0
60572,note_off,,,,,284,0,7,,,,,5,,,55,0
60572,note_off,,,,,284,0,3,,,,,8,,,55,0
60576,note_on,,,,,4,0,9,,,,,7,,,55,60
60576,note_on,,,,,4,0,7,,,,,5,,,55,92
60576,note_on,,,,,4,0,10,,,,,7,,,55,60
60576,note_on,,,,,4,0,8,,,,,6,,,43,92
60576,note_on,,,,,4,0,6,,,,,4,,,71,92
60576,note_on,,,,,4,0,2,,,,,1,,,76,90
60576,note_on,,,,,4,0,5,,,,,3,,,76,108
60576,note_on,,,,,4,0,3,,,,,8,,,55,92
60668,note_off,,,,,92,0,2,,,,,1,,,76,0
60668,note_off,,,,,92,0,6,,,,,4,,,71,0
60668,note_off,,,,,124,0,1,,,,,0,,,79,0
60668,note_off,,,,,92,0,10,,,,,7,,,55,0
60668,note_off,,,,,92,0,7,,,,,5,,,55,0
60668,note_off,,,,,92,0,5,,,,,3,,,76,0
60668,note_off,,,,,124,0,4,,,,,2,,,79,0
60668,note_off,,,,,92,0,9,,,,,7,,,55,0
60668,note_off,,,,,92,0,3,,,,,8,,,55,0
60668,note_off,,,,,92,0,8,,,,,6,,,43,0
60672,note_on,,,,,4,0,3,,,,,8,,,57,92
60672,note_on,,,,,4,0,2,,,,,1,,,76,90
60672,note_on,,,,,4,0,7,,,,,5,,,57,92
60672,note_on,,,,,4,0,1,,,,,0,,,78,90
60672,note_on,,,,,4,0,8,,,,,6,,,45,92
60672,note_on,,,,,4,0,5,,,,,3,,,76,108
60672,note_on,,,,,4,0,9,,,,,7,,,57,60
60672,note_on,,,,,0,0,10,,,,,7,,,64,60
60672,note_on,,,,,4,0,6,,,,,4,,,60,92
60672,note_on,,,,,0,0,10,,,,,7,,,66,60
60672,note_on,,,,,4,0,10,,,,,7,,,57,60
60672,note_on,,,,,4,0,4,,,,,2,,,78,108
60796,note_off,,,,,124,0,5,,,,,3,,,76,0
60796,note_off,,,,,124,0,2,,,,,1,,,76,0
60800,note_on,,,,,4,0,5,,,,,3,,,78,108
60800,note_on,,,,,4,0,2,,,,,1,,,78,90
60924,note_off,,,,,124,0,2,,,,,1,,,78,0
60924,note_off,,,,,124,0,5,,,,,3,,,78,0
60928,note_on,,,,,4,0,2,,,,,1,,,76,90
60928,note_on,,,,,4,0,5,,,,,3,,,76,108
60956,note_off,,,,,284,0,9,,,,,7,,,57,0
60956,note_off,,,,,0,0,10,,,,,7,,,66,0
60956,note_off,,,,,0,0,10,,,,,7,,,64,0
60956,note_off,,,,,284,0,10,,,,,7,,,57,0
60956,note_off,,,,,284,0,8,,,,,6,,,45,0
60956,note_off,,,,,284,0,7,,,,,5,,,57,0
60956,note_off,,,,,284,0,3,,,,,8,,,57,0
60960,note_on,,,,,4,0,10,,,,,7,,,60,60
60960,note_on,,,,,4,0,7,,,,,5,,,60,92
60960,note_on,,,,,4,0,9,,,,,7,,,60,60
60960,note_on,,,,,4,0,3,,,,,8,,,60,92
60960,note_on,,,,,4,0,8,,,,,6,,,48,92
60992,note_off,,,,,320,0,1,,,,,0,,,78,0
60992,note_off,,,,,320,0,4,,,,,2,,,78,0
60992,note_off,,,,,320,0,6,,,,,4,,,60,0
61052,note_off,,,,,92,0,8,,,,,6,,,48,0
61052,note_off,,,,,92,0,9,,,,,7,,,60,0
61052,note_off,,,,,92,0,3,,,,,8,,,60,0
61052,note_off,,,,,92,0,10,,,,,7,,,60,0
61052,note_off,,,,,124,0,5,,,,,3,,,76,0
61052,note_off,,,,,92,0,7,,,,,5,,,60,0
61052,note_off,,,,,124,0,2,,,,,1,,,76,0
61056,note_on,,,,,4,0,9,,,,,7,,,54,60
61056,note_on,,,,,4,0,7,,,,,5,,,54,92
61056,note_on,,,,,4,0,2,,,,,1,,,75,90
61056,note_on,,,,,4,0,5,,,,,3,,,75,108
61056,note_on,,,,,4,0,3,,,,,8,,,54,92
61056,note_on,,,,,4,0,10,,,,,7,,,54,60
61056,note_on,,,,,0,0,10,,,,,7,,,62,60
61056,note_on,,,,,4,0,8,,,,,6,,,42,92
61056,note_on,,,,,0,0,10,,,,,7,,,57,60
61340,note_off,,,,,0,0,10,,,,,7,,,57,0
61340,note_off,,,,,0,0,10,,,,,7,,,62,0
61340,note_off,,,,,284,0,2,,,,,1,,,75,0
61340,note_off,,,,,284,0,5,,,,,3,,,75,0
61340,note_off,,,,,284,0,7,,,,,5,,,54,0
61340,note_off,,,,,284,0,3,,,,,8,,,54,0
61340,note_off,,,,,284,0,9,,,,,7,,,54,0
61340,note_off,,,,,284,0,10,,,,,7,,,54,0
61340,note_off,,,,,284,0,8,,,,,6,,,42,0
61344,note_on,,,,,4,0,10,,,,,7,,,57,60
61344,note_on,,,,,4,0,8,,,,,6,,,45,92
61344,note_on,,,,,4,0,9,,,,,7,,,57,60
61344,note_on,,,,,4,0,3,,,,,8,,,57,92
61344,note_on,,,,,4,0,7,,,,,5,,,57,92
61344,note_on,,,,,4,0,5,,,,,3,,,73,108
61344,note_on,,,,,4,0,2,,,,,1,,,73,90
61436,note_off,,,,,92,0,9,,,,,7,,,57,0
61436,note_off,,,,,92,0,7,,,,,5,,,57,0
61436,note_off,,,,,92,0,2,,,,,1,,,73,0
61436,note_off,,,,,92,0,5,,,,,3,,,73,0
61436,note_off,,,,,92,0,8,,,,,6,,,45,0
61436,note_off,,,,,92,0,3,,,,,8,,,57,0
61436,note_off,,,,,92,0,10,,,,,7,,,57,0
61440,note_on,,,,,448,0,4,,,,,2,,,83,108
61440,note_on,,,,,4,0,3,,,,,8,,,51,92
61440,note_on,,,,,0,0,10,,,,,7,,,59,60
61440,note_on,,,,,4,0,10,,,,,7,,,51,60
61440,note_on,,,,,448,0,6,,,,,4,,,59,92
61440,note_on,,,,,448,0,1,,,,,0,,,83,90
61440,note_on,,,,,4,0,7,,,,,5,,,51,92
61440,note_on,,,,,4,0,5,,,,,3,,,78,108
61440,note_on,,,,,4,0,8,,,,,6,,,39,92
61440,note_on,,,,,4,0,9,,,,,7,,,51,60
61440,note_on,,,,,4,0,2,,,,,1,,,78,90
61564,note_off,,,,,124,0,4,,,,,2,,,83,0
61564,note_off,,,,,124,0,1,,,,,0,,,83,0
61568,note_on,,,,,4,0,1,,,,,0,,,84,90
61568,note_on,,,,,4,0,4,,,,,2,,,84,108
61692,note_off,,,,,124,0,4,,,,,2,,,84,0
61692,note_off,,,,,124,0,1,,,,,0,,,84,0
61696,note_on,,,,,4,0,1,,,,,0,,,83,90
61696,note_on,,,,,4,0,4,,,,,2,,,83,108
61724,note_off,,,,,0,0,10,,,,,7,,,59,0
61724,note_off,,,,,284,0,9,,,,,7,,,51,0
61724,note_off,,,,,284,0,8,,,,,6,,,39,0
61724,note_off,,,,,284,0,3,,,,,8,,,51,0
61724,note_off,,,,,284,0,10,,,,,7,,,51,0
61724,note_off,,,,,284,0,6,,,,,4,,,59,0
61724,note_off,,,,,284,0,7,,,,,5,,,51,0
61728,note_on,,,,,4,0,10,,,,,7,,,54,60
61728,note_on,,,,,4,0,7,,,,,5,,,54,92
61728,note_on,,,,,4,0,6,,,,,4,,,66,92
61728,note_on,,,,,4,0,8,,,,,6,,,42,92
61728,note_on,,,,,4,0,9,,,,,7,,,54,60
61728,note_on,,,,,4,0,3,,,,,8,,,54,92
61760,note_off,,,,,320,0,2,,,,,1,,,78,0
61760,note_off,,,,,320,0,5,,,,,3,,,78,0
61820,note_off,,,,,92,0,6,,,,,4,,,66,0
61820,note_off,,,,,92,0,8,,,,,6,,,42,0
61820,note_off,,,,,92,0,9,,,,,7,,,54,0
61820,note_off,,,,,92,0,7,,,,,5,,,54,0
61820,note_off,,,,,124,0,1,,,,,0,,,83,0
61820,note_off,,,,,124,0,4,,,,,2,,,83,0
61820,note_off,,,,,92,0,10,,,,,7,,,54,0
61820,note_off,,,,,92,0,3,,,,,8,,,54,0
61824,note_on,,,,,4,0,7,,,,,5,,,47,92
61824,note_on,,,,,4,0,4,,,,,2,,,81,108
61824,note_on,,,,,64,0,2,,,,,1,,,75,90
61824,note_on,,,,,4,0,10,,,,,7,,,48,60
61824,note_on,,,,,4,0,8,,,,,6,,,35,92
61824,note_on,,,,,4,0,9,,,,,7,,,47,60
61824,note_on,,,,,4,0,6,,,,,4,,,66,92
61824,note_on,,,,,64,0,5,,,,,3,,,75,108
61824,note_on,,,,,4,0,1,,,,,0,,,81,90
61824,note_on,,,,,4,0,3,,,,,8,,,47,92
61948,note_off,,,,,124,0,1,,,,,0,,,81,0
61948,note_off,,,,,124,0,4,,,,,2,,,81,0
61952,note_on,,,,,4,0,4,,,,,2,,,83,108
61952,note_on,,,,,4,0,1,,,,,0,,,83,90
62076,note_off,,,,,124,0,4,,,,,2,,,83,0
62076,note_off,,,,,124,0,1,,,,,0,,,83,0
62080,note_on,,,,,4,0,4,,,,,2,,,81,108
62080,note_on,,,,,4,0,1,,,,,0,,,81,90
62108,note_off,,,,,284,0,8,,,,,6,,,35,0
62108,note_off,,,,,284,0,5,,,,,3,,,75,0
62108,note_off,,,,,284,0,9,,,,,7,,,47,0
62108,note_off,,,,,284,0,10,,,,,7,,,48,0
62108,note_off,,,,,284,0,7,,,,,5,,,47,0
62108,note_off,,,,,284,0,3,,,,,8,,,47,0
62108,note_off,,,,,284,0,2,,,,,1,,,75,0
62108,note_off,,,,,284,0,6,,,,,4,,,66,0
62112,note_on,,,,,4,0,10,,,,,7,,,51,60
62112,note_on,,,,,4,0,6,,,,,4,,,71,92
62112,note_on,,,,,4,0,5,,,,,3,,,78,108
62112,note_on,,,,,4,0,9,,,,,7,,,51,60
62112,note_on,,,,,4,0,8,,,,,6,,,39,92
62112,note_on,,,,,4,0,7,,,,,5,,,51,92
62112,note_on,,,,,4,0,2,,,,,1,,,78,90
62112,note_on,,,,,4,0,3,,,,,8,,,51,92
62204,note_off,,,,,92,0,5,,,,,3,,,78,0
62204,note_off,,,,,92,0,2,,,,,1,,,78,0
62204,note_off,,,,,92,0,10,,,,,7,,,51,0
62204,note_off,,,,,92,0,9,,,,,7,,,51,0
62204,note_off,,,,,124,0,4,,,,,2,,,81,0
62204,note_off,,,,,92,0,6,,,,,4,,,71,0
62204,note_off,,,,,124,0,1,,,,,0,,,81,0
62204,note_off,,,,,92,0,8,,,,,6,,,39,0
62204,note_off,,,,,92,0,3,,,,,8,,,51,0
62204,note_off,,,,,92,0,7,,,,,5,,,51,0
62208,note_on,,,,,4,0,9,,,,,7,,,52,60
62208,note_on,,,,,4,0,3,,,,,8,,,52,92
62208,note_on,,,,,4,0,10,,,,,7,,,52,60
62208,note_on,,,,,4,0,5,,,,,3,,,76,108
62208,note_on,,,,,4,0,6,,,,,4,,,71,92
62208,note_on,,,,,4,0,8,,,,,6,,,40,92
62208,note_on,,,,,4,0,4,,,,,2,,,79,108
62208,note_on,,,,,4,0,1,,,,,0,,,79,90
62208,note_on,,,,,4,0,2,,,,,1,,,76,90
62208,note_on,,,,,4,0,7,,,,,5,,,52,92
62492,note_off,,,,,284,0,8,,,,,6,,,40,0
62492,note_off,,,,,284,0,9,,,,,7,,,52,0
62492,note_off,,,,,284,0,1,,,,,0,,,79,0
62492,note_off,,,,,284,0,3,,,,,8,,,52,0
62492,note_off,,,,,284,0,6,,,,,4,,,71,0
62492,note_off,,,,,284,0,4,,,,,2,,,79,0
62492,note_off,,,,,284,0,2,,,,,1,,,76,0
62492,note_off,,,,,284,0,10,,,,,7,,,52,0
62492,note_off,,,,,284,0,5,,,,,3,,,76,0
62492,note_off,,,,,284,0,7,,,,,5,,,52,0
62496,note_on,,,,,4,0,2,,,,,1,,,75,90
62496,note_on,,,,,4,0,8,,,,,6,,,42,92
62496,note_on,,,,,4,0,3,,,,,8,,,54,92
62496,note_on,,,,,4,0,5,,,,,3,,,75,108
62496,note_on,,,,,4,0,7,,,,,5,,,54,92
62496,note_on,,,,,4,0,1,,,,,0,,,78,90
62496,note_on,,,,,4,0,4,,,,,2,,,78,108
62496,note_on,,,,,4,0,9,,,,,7,,,54,60
62496,note_on,,,,,4,0,6,,,,,4,,,69,92
62496,note_on,,,,,4,0,10,,,,,7,,,54,60
62588,note_off,,,,,92,0,9,,,,,7,,,54,0
62588,note_off,,,,,92,0,1,,,,,0,,,78,0
62588,note_off,,,,,92,0,10,,,,,7,,,54,0
62588,note_off,,,,,92,0,5,,,,,3,,,75,0
62588,note_off,,,,,92,0,8,,,,,6,,,42,0
62588,note_off,,,,,92,0,4,,,,,2,,,78,0
62588,note_off,,,,,92,0,3,,,,,8,,,54,0
62588,note_off,,,,,92,0,7,,,,,5,,,54,0
62588,note_off,,,,,92,0,2,,,,,1,,,75,0
62588,note_off,,,,,92,0,6,,,,,4,,,69,0
62592,note_on,,,,,0,0,10,,,,,7,,,64,60
62592,note_on,,,,,4,0,9,,,,,7,,,55,60
62592,note_on,,,,,4,0,1,,,,,0,,,76,90
62592,note_on,,,,,4,0,10,,,,,7,,,55,60
62592,note_on,,,,,4,0,3,,,,,8,,,55,92
62592,note_on,,,,,4,0,7,,,,,5,,,55,92
62592,note_on,,,,,4,0,6,,,,,4,,,71,92
62592,note_on,,,,,4,0,2,,,,,1,,,76,90
62592,note_on,,,,,4,0,8,,,,,6,,,43,92
62592,note_on,,,,,4,0,5,,,,,3,,,76,108
62592,note_on,,,,,4,0,4,,,,,2,,,76,108
62876,note_off,,,,,284,0,5,,,,,3,,,76,0
62876,note_off,,,,,284,0,8,,,,,6,,,43,0
62876,note_off,,,,,284,0,6,,,,,4,,,71,0
62876,note_off,,,,,284,0,7,,,,,5,,,55,0
62876,note_off,,,,,284,0,10,,,,,7,,,55,0
62876,note_off,,,,,284,0,2,,,,,1,,,76,0
62876,note_off,,,,,284,0,4,,,,,2,,,76,0
62876,note_off,,,,,0,0,10,,,,,7,,,64,0
62876,note_off,,,,,284,0,1,,,,,0,,,76,0
62876,note_off,,,,,284,0,9,,,,,7,,,55,0
62876,note_off,,,,,284,0,3,,,,,8,,,55,0
62880,note_on,,,,,4,0,2,,,,,1,,,72,90
62880,note_on,,,,,4,0,10,,,,,7,,,57,60
62880,note_on,,,,,4,0,8,,,,,6,,,45,92
62880,note_on,,,,,4,0,7,,,,,5,,,57,92
62880,note_on,,,,,4,0,6,,,,,4,,,72,92
62880,note_on,,,,,4,0,9,,,,,7,,,57,60
62880,note_on,,,,,4,0,1,,,,,0,,,78,90
62880,note_on,,,,,4,0,4,,,,,2,,,78,108
62880,note_on,,,,,4,0,5,,,,,3,,,72,108
62880,note_on,,,,,4,0,3,,,,,8,,,57,92
62972,note_off,,,,,92,0,3,,,,,8,,,57,0
62972,note_off,,,,,92,0,2,,,,,1,,,72,0
62972,note_off,,,,,92,0,10,,,,,7,,,57,0
62972,note_off,,,,,92,0,4,,,,,2,,,78,0
62972,note_off,,,,,92,0,8,,,,,6,,,45,0
62972,note_off,,,,,92,0,7,,,,,5,,,57,0
62972,note_off,,,,,92,0,5,,,,,3,,,72,0
62972,note_off,,,,,92,0,1,,,,,0,,,78,0
62972,note_off,,,,,92,0,9,,,,,7,,,57,0
62972,note_off,,,,,92,0,6,,,,,4,,,72,0
62976,note_on,,,,,4,0,1,,,,,0,,,75,90
62976,note_on,,,,,4,0,3,,,,,8,,,59,92
62976,note_on,,,,,4,0,2,,,,,1,,,71,90
62976,note_on,,,,,4,0,10,,,,,7,,,60,60
62976,note_on,,,,,4,0,9,,,,,7,,,59,60
62976,note_on,,,,,4,0,8,,,,,6,,,47,92
62976,note_on,,,,,4,0,4,,,,,2,,,75,108
62976,note_on,,,,,4,0,6,,,,,4,,,66,92
62976,note_on,,,,,4,0,7,,,,,5,,,59,92
62976,note_on,,,,,4,0,5,,,,,3,,,71,108
63260,note_off,,,,,284,0,9,,,,,7,,,59,0
63260,note_off,,,,,284,0,7,,,,,5,,,59,0
63260,note_off,,,,,284,0,10,,,,,7,,,60,0
63260,note_off,,,,,284,0,3,,,,,8,,,59,0
63260,note_off,,,,,284,0,8,,,,,6,,,47,0
63264,note_on,,,,,4,0,8,,,,,6,,,42,92
63264,note_on,,,,,4,0,9,,,,,7,,,54,60
63264,note_on,,,,,4,0,10,,,,,7,,,54,60
63264,note_on,,,,,4,0,7,,,,,5,,,54,92
63264,note_on,,,,,4,0,3,,,,,8,,,54,92
63356,note_off,,,,,92,0,10,,,,,7,,,54,0
63356,note_off,,,,,92,0,7,,,,,5,,,54,0
63356,note_off,,,,,92,0,8,,,,,6,,,42,0
63356,note_off,,,,,92,0,9,,,,,7,,,54,0
63356,note_off,,,,,92,0,3,,,,,8,,,54,0
63360,note_on,,,,,4,0,8,,,,,6,,,47,92
63360,note_on,,,,,4,0,9,,,,,7,,,59,60
63360,note_on,,,,,4,0,7,,,,,5,,,59,92
63360,note_on,,,,,4,0,10,,,,,7,,,60,60
63360,note_on,,,,,4,0,3,,,,,8,,,59,92
63488,note_off,,,,,512,0,5,,,,,3,,,71,0
63488,note_off,,,,,512,0,2,,,,,1,,,71,0
63488,note_off,,,,,512,0,6,,,,,4,,,66,0
63552,note_on,,,,,64,0,2,,,,,1,,,71,90
63552,note_on,,,,,64,0,6,,,,,4,,,66,92
63552,note_on,,,,,64,0,5,,,,,3,,,71,108
63644,note_off,,,,,284,0,7,,,,,5,,,59,0
63644,note_off,,,,,284,0,10,,,,,7,,,60,0
63644,note_off,,,,,284,0,3,,,,,8,,,59,0
63644,note_off,,,,,284,0,9,,,,,7,,,59,0
63644,note_off,,,,,284,0,8,,,,,6,,,47,0
63648,note_on,,,,,4,0,3,,,,,8,,,57,92
63648,note_off,,,,,672,0,1,,,,,0,,,75,0
63648,note_on,,,,,4,0,9,,,,,7,,,57,60
63648,note_on,,,,,4,0,7,,,,,5,,,57,92
63648,note_on,,,,,4,0,10,,,,,7,,,57,60
63648,note_on,,,,,4,0,8,,,,,6,,,45,92
63648,note_off,,,,,672,0,4,,,,,2,,,75,0
63740,note_off,,,,,92,0,9,,,,,7,,,57,0
63740,note_off,,,,,188,0,2,,,,,1,,,71,0
63740,note_off,,,,,92,0,10,,,,,7,,,57,0
63740,note_off,,,,,92,0,3,,,,,8,,,57,0
63740,note_off,,,,,188,0,5,,,,,3,,,71,0
63740,note_off,,,,,92,0,7,,,,,5,,,57,0
63740,note_off,,,,,188,0,6,,,,,4,,,66,0
63740,note_off,,,,,92,0,8,,,,,6,,,45,0
63744,note_on,,,,,4,0,10,,,,,7,,,55,60
63744,note_on,,,,,4,0,9,,,,,7,,,55,60
63744,note_on,,,,,4,0,7,,,,,5,,,55,92
63744,note_on,,,,,4,0,3,,,,,8,,,55,92
63744,note_on,,,,,4,0,8,,,,,6,,,43,92
63744,note_on,,,,,4,0,5,,,,,3,,,71,108
63744,note_on,,,,,0,0,10,,,,,7,,,64,60
63744,note_on,,,,,4,0,6,,,,,4,,,71,92
63744,note_on,,,,,96,0,1,,,,,0,,,76,90
63744,note_on,,,,,96,0,4,,,,,2,,,76,108
63744,note_on,,,,,4,0,2,,,,,1,,,71,90
64028,note_off,,,,,284,0,7,,,,,5,,,55,0
64028,note_off,,,,,284,0,9,,,,,7,,,55,0
64028,note_off,,,,,0,0,10,,,,,7,,,64,0
64028,note_off,,,,,284,0,8,,,,,6,,,43,0
64028,note_off,,,,,284,0,6,,,,,4,,,71,0
64028,note_off,,,,,284,0,10,,,,,7,,,55,0
64028,note_off,,,,,284,0,3,,,,,8,,,55,0
64032,note_on,,,,,4,0,10,,,,,7,,,54,60
64032,note_on,,,,,4,0,6,,,,,4,,,69,92
64032,note_on,,,,,4,0,3,,,,,8,,,54,92
64032,note_on,,,,,4,0,8,,,,,6,,,42,92
64032,note_on,,,,,4,0,9,,,,,7,,,54,60
64032,note_on,,,,,4,0,7,,,,,5,,,54,92
64064,note_off,,,,,320,0,5,,,,,3,,,71,0
64064,note_off,,,,,320,0,2,,,,,1,,,71,0
64124,note_off,,,,,92,0,9,,,,,7,,,54,0
64124,note_off,,,,,92,0,10,,,,,7,,,54,0
64124,note_off,,,,,92,0,6,,,,,4,,,69,0
64124,note_off,,,,,92,0,3,,,,,8,,,54,0
64124,note_off,,,,,92,0,8,,,,,6,,,42,0
64124,note_off,,,,,92,0,7,,,,,5,,,54,0
64128,note_on,,,,,4,0,10,,,,,7,,,52,60
64128,note_on,,,,,4,0,3,,,,,8,,,52,92
64128,note_on,,,,,4,0,8,,,,,6,,,40,92
64128,note_on,,,,,4,0,9,,,,,7,,,52,60
64128,note_on,,,,,4,0,6,,,,,4,,,67,92
64128,note_on,,,,,4,0,7,,,,,5,,,52,92
64256,note_off,,,,,512,0,4,,,,,2,,,76,0
64256,note_off,,,,,512,0,1,,,,,0,,,76,0
64412,note_off,,,,,284,0,6,,,,,4,,,67,0
64416,note_on,,,,,160,0,4,,,,,2,,,78,108
64416,note_on,,,,,160,0,1,,,,,0,,,78,90
64416,note_on,,,,,4,0,6,,,,,4,,,66,92
64448,note_off,,,,,320,0,3,,,,,8,,,52,0
64448,note_off,,,,,320,0,8,,,,,6,,,40,0
64448,note_off,,,,,320,0,9,,,,,7,,,52,0
64448,note_off,,,,,320,0,7,,,,,5,,,52,0
64448,note_off,,,,,320,0,10,,,,,7,,,52,0
64508,note_off,,,,,92,0,1,,,,,0,,,78,0
64508,note_off,,,,,92,0,6,,,,,4,,,66,0
64508,note_off,,,,,92,0,4,,,,,2,,,78,0
64512,note_on,,,,,4,0,1,,,,,0,,,79,90
64512,note_on,,,,,4,0,6,,,,,4,,,64,92
64512,note_on,,,,,4,0,4,,,,,2,,,79,108
64636,note_off,,,,,124,0,4,,,,,2,,,79,0
64636,note_off,,,,,124,0,1,,,,,0,,,79,0
64640,note_on,,,,,4,0,4,,,,,2,,,81,108
64640,note_on,,,,,4,0,1,,,,,0,,,81,90
64764,note_off,,,,,124,0,1,,,,,0,,,81,0
64764,note_off,,,,,124,0,4,,,,,2,,,81,0
64768,note_on,,,,,4,0,4,,,,,2,,,79,108
64768,note_on,,,,,4,0,1,,,,,0,,,79,90
64832,note_off,,,,,320,0,6,,,,,4,,,64,0
64892,note_off,,,,,124,0,1,,,,,0,,,79,0
64892,note_off,,,,,124,0,4,,,,,2,,,79,0
64896,note_on,,,,,4,0,1,,,,,0,,,78,90
64896,note_on,,,,,4,0,4,,,,,2,,,78,108
65020,note_off,,,,,124,0,1,,,,,0,,,78,0
65020,note_off,,,,,124,0,4,,,,,2,,,78,0
65024,note_on,,,,,4,0,1,,,,,0,,,79,90
65024,note_on,,,,,4,0,4,,,,,2,,,79,108
65148,note_off,,,,,124,0,4,,,,,2,,,79,0
65148,note_off,,,,,124,0,1,,,,,0,,,79,0
65152,note_on,,,,,4,0,1,,,,,0,,,78,90
65152,note_on,,,,,4,0,4,,,,,2,,,78,108
65184,note_on,,,,,1120,0,2,,,,,1,,,66,90
65184,note_on,,,,,1120,0,5,,,,,3,,,66,108
65276,note_off,,,,,92,0,5,,,,,3,,,66,0
65276,note_off,,,,,92,0,2,,,,,1,,,66,0
65276,note_off,,,,,124,0,1,,,,,0,,,78,0
65276,note_off,,,,,124,0,4,,,,,2,,,78,0
65280,note_on,,,,,4,0,4,,,,,2,,,76,108
65280,note_on,,,,,4,0,1,,,,,0,,,76,90
65280,note_on,,,,,4,0,5,,,,,3,,,67,108
65280,note_on,,,,,4,0,2,,,,,1,,,67,90
65404,note_off,,,,,124,0,4,,,,,2,,,76,0
65404,note_off,,,,,124,0,5,,,,,3,,,67,0
65404,note_off,,,,,124,0,2,,,,,1,,,67,0
65404,note_off,,,,,124,0,1,,,,,0,,,76,0
65408,note_on,,,,,4,0,4,,,,,2,,,78,108
65408,note_on,,,,,4,0,5,,,,,3,,,69,108
65408,note_on,,,,,4,0,1,,,,,0,,,78,90
65408,note_on,,,,,4,0,2,,,,,1,,,69,90
65532,note_off,,,,,124,0,5,,,,,3,,,69,0
65532,note_off,,,,,124,0,2,,,,,1,,,69,0
65532,note_off,,,,,124,0,1,,,,,0,,,78,0
65532,note_off,,,,,124,0,4,,,,,2,,,78,0
65536,note_on,,,,,4,0,2,,,,,1,,,67,90
65536,note_on,,,,,4,0,1,,,,,0,,,76,90
65536,note_on,,,,,4,0,5,,,,,3,,,67,108
65536,note_on,,,,,4,0,4,,,,,2,,,76,108
65660,note_off,,,,,124,0,2,,,,,1,,,67,0
65660,note_off,,,,,124,0,4,,,,,2,,,76,0
65660,note_off,,,,,124,0,5,,,,,3,,,67,0
65660,note_off,,,,,124,0,1,,,,,0,,,76,0
65664,note_on,,,,,4,0,5,,,,,3,,,66,108
65664,note_on,,,,,4,0,2,,,,,1,,,66,90
65664,note_on,,,,,4,0,1,,,,,0,,,74,90
65664,note_on,,,,,4,0,4,,,,,2,,,74,108
65788,note_off,,,,,124,0,5,,,,,3,,,66,0
65788,note_off,,,,,124,0,1,,,,,0,,,74,0
65788,note_off,,,,,124,0,4,,,,,2,,,74,0
65788,note_off,,,,,124,0,2,,,,,1,,,66,0
65792,note_on,,,,,4,0,1,,,,,0,,,76,90
65792,note_on,,,,,4,0,5,,,,,3,,,67,108
65792,note_on,,,,,4,0,4,,,,,2,,,76,108
65792,note_on,,,,,4,0,2,,,,,1,,,67,90
65916,note_off,,,,,124,0,5,,,,,3,,,67,0
65916,note_off,,,,,124,0,4,,,,,2,,,76,0
65916,note_off,,,,,124,0,2,,,,,1,,,67,0
65916,note_off,,,,,124,0,1,,,,,0,,,76,0
65920,note_on,,,,,4,0,5,,,,,3,,,66,108
65920,note_on,,,,,4,0,4,,,,,2,,,74,108
65920,note_on,,,,,4,0,1,,,,,0,,,74,90
65920,note_on,,,,,4,0,2,,,,,1,,,66,90
66044,note_off,,,,,124,0,4,,,,,2,,,74,0
66044,note_off,,,,,124,0,2,,,,,1,,,66,0
66044,note_off,,,,,124,0,5,,,,,3,,,66,0
66044,note_off,,,,,124,0,1,,,,,0,,,74,0
66048,note_on,,,,,4,0,2,,,,,1,,,64,90
66048,note_on,,,,,4,0,5,,,,,3,,,64,108
66048,note_on,,,,,4,0,1,,,,,0,,,79,90
66048,note_on,,,,,4,0,4,,,,,2,,,79,108
66172,note_off,,,,,124,0,5,,,,,3,,,64,0
66172,note_off,,,,,124,0,1,,,,,0,,,79,0
66172,note_off,,,,,124,0,4,,,,,2,,,79,0
66172,note_off,,,,,124,0,2,,,,,1,,,64,0
66176,note_on,,,,,4,0,1,,,,,0,,,81,90
66176,note_on,,,,,4,0,4,,,,,2,,,81,108
66176,note_on,,,,,4,0,5,,,,,3,,,66,108
66176,note_on,,,,,4,0,2,,,,,1,,,66,90
66300,note_off,,,,,124,0,5,,,,,3,,,66,0
66300,note_off,,,,,124,0,1,,,,,0,,,81,0
66300,note_off,,,,,124,0,2,,,,,1,,,66,0
66300,note_off,,,,,124,0,4,,,,,2,,,81,0
66304,note_on,,,,,4,0,1,,,,,0,,,79,90
66304,note_on,,,,,4,0,2,,,,,1,,,64,90
66304,note_on,,,,,4,0,4,,,,,2,,,79,108
66304,note_on,,,,,4,0,5,,,,,3,,,64,108
66428,note_off,,,,,124,0,1,,,,,0,,,79,0
66428,note_off,,,,,124,0,5,,,,,3,,,64,0
66428,note_off,,,,,124,0,4,,,,,2,,,79,0
66428,note_off,,,,,124,0,2,,,,,1,,,64,0
66432,note_on,,,,,4,0,1,,,,,0,,,78,90
66432,note_on,,,,,4,0,5,,,,,3,,,62,108
66432,note_on,,,,,4,0,4,,,,,2,,,78,108
66432,note_on,,,,,4,0,2,,,,,1,,,62,90
66556,note_off,,,,,124,0,2,,,,,1,,,62,0
66556,note_off,,,,,124,0,5,,,,,3,,,62,0
66556,note_off,,,,,124,0,4,,,,,2,,,78,0
66556,note_off,,,,,124,0,1,,,,,0,,,78,0
66560,note_on,,,,,4,0,5,,,,,3,,,64,108
66560,note_on,,,,,4,0,2,,,,,1,,,64,90
66560,note_on,,,,,4,0,1,,,,,0,,,79,90
66560,note_on,,,,,4,0,4,,,,,2,,,79,108
66684,note_off,,,,,124,0,1,,,,,0,,,79,0
66684,note_off,,,,,124,0,5,,,,,3,,,64,0
66684,note_off,,,,,124,0,4,,,,,2,,,79,0
66684,note_off,,,,,124,0,2,,,,,1,,,64,0
66688,note_on,,,,,4,0,1,,,,,0,,,78,90
66688,note_on,,,,,4,0,5,,,,,3,,,62,108
66688,note_on,,,,,4,0,4,,,,,2,,,78,108
66688,note_on,,,,,4,0,2,,,,,1,,,62,90
66812,note_off,,,,,124,0,2,,,,,1,,,62,0
66812,note_off,,,,,124,0,5,,,,,3,,,62,0
66812,note_off,,,,,124,0,4,,,,,2,,,78,0
66812,note_off,,,,,124,0,1,,,,,0,,,78,0
66816,note_on,,,,,4,0,2,,,,,1,,,67,90
66816,note_on,,,,,4,0,1,,,,,0,,,76,90
66816,note_on,,,,,4,0,4,,,,,2,,,76,108
66816,note_on,,,,,4,0,5,,,,,3,,,67,108
66940,note_off,,,,,124,0,4,,,,,2,,,76,0
66940,note_off,,,,,124,0,1,,,,,0,,,76,0
66940,note_off,,,,,124,0,2,,,,,1,,,67,0
66940,note_off,,,,,124,0,5,,,,,3,,,67,0
66944,note_on,,,,,4,0,5,,,,,3,,,69,108
66944,note_on,,,,,4,0,4,,,,,2,,,78,108
66944,note_on,,,,,4,0,1,,,,,0,,,78,90
66944,note_on,,,,,4,0,2,,,,,1,,,69,90
67068,note_off,,,,,124,0,5,,,,,3,,,69,0
67068,note_off,,,,,124,0,2,,,,,1,,,69,0
67068,note_off,,,,,124,0,4,,,,,2,,,78,0
67068,note_off,,,,,124,0,1,,,,,0,,,78,0
67072,note_on,,,,,4,0,5,,,,,3,,,67,108
67072,note_on,,,,,4,0,1,,,,,0,,,76,90
67072,note_on,,,,,4,0,2,,,,,1,,,67,90
67072,note_on,,,,,4,0,4,,,,,2,,,76,108
67196,note_off,,,,,124,0,1,,,,,0,,,76,0
67196,note_off,,,,,124,0,2,,,,,1,,,67,0
67196,note_off,,,,,124,0,5,,,,,3,,,67,0
67196,note_off,,,,,124,0,4,,,,,2,,,76,0
67200,note_on,,,,,4,0,4,,,,,2,,,74,108
67200,note_on,,,,,4,0,2,,,,,1,,,66,90
67200,note_on,,,,,4,0,1,,,,,0,,,74,90
67200,note_on,,,,,4,0,5,,,,,3,,,66,108
67324,note_off,,,,,124,0,1,,,,,0,,,74,0
67324,note_off,,,,,124,0,2,,,,,1,,,66,0
67324,note_off,,,,,124,0,5,,,,,3,,,66,0
67324,note_off,,,,,124,0,4,,,,,2,,,74,0
67328,note_on,,,,,4,0,4,,,,,2,,,76,108
67328,note_on,,,,,4,0,1,,,,,0,,,76,90
67328,note_on,,,,,4,0,2,,,,,1,,,67,90
67328,note_on,,,,,4,0,5,,,,,3,,,67,108
67452,note_off,,,,,124,0,5,,,,,3,,,67,0
67452,note_off,,,,,124,0,2,,,,,1,,,67,0
67452,note_off,,,,,124,0,4,,,,,2,,,76,0
67452,note_off,,,,,124,0,1,,,,,0,,,76,0
67456,note_on,,,,,4,0,2,,,,,1,,,66,90
67456,note_on,,,,,4,0,1,,,,,0,,,74,90
67456,note_on,,,,,4,0,4,,,,,2,,,74,108
67456,note_on,,,,,4,0,5,,,,,3,,,66,108
67580,note_off,,,,,124,0,5,,,,,3,,,66,0
67580,note_off,,,,,124,0,4,,,,,2,,,74,0
67580,note_off,,,,,124,0,2,,,,,1,,,66,0
67580,note_off,,,,,124,0,1,,,,,0,,,74,0
67584,note_on,,,,,4,0,2,,,,,1,,,71,90
67584,note_on,,,,,4,0,5,,,,,3,,,71,108
67584,note_on,,,,,4,0,1,,,,,0,,,79,90
67584,note_on,,,,,4,0,4,,,,,2,,,79,108
67708,note_off,,,,,124,0,2,,,,,1,,,71,0
67708,note_off,,,,,124,0,4,,,,,2,,,79,0
67708,note_off,,,,,124,0,1,,,,,0,,,79,0
67708,note_off,,,,,124,0,5,,,,,3,,,71,0
67712,note_on,,,,,4,0,4,,,,,2,,,81,108
67712,note_on,,,,,4,0,1,,,,,0,,,81,90
67712,note_on,,,,,4,0,5,,,,,3,,,72,108
67712,note_on,,,,,4,0,2,,,,,1,,,72,90
67836,note_off,,,,,124,0,2,,,,,1,,,72,0
67836,note_off,,,,,124,0,5,,,,,3,,,72,0
67836,note_off,,,,,124,0,4,,,,,2,,,81,0
67836,note_off,,,,,124,0,1,,,,,0,,,81,0
67840,note_on,,,,,4,0,5,,,,,3,,,71,108
67840,note_on,,,,,4,0,1,,,,,0,,,79,90
67840,note_on,,,,,4,0,4,,,,,2,,,79,108
67840,note_on,,,,,4,0,2,,,,,1,,,71,90
67964,note_off,,,,,124,0,1,,,,,0,,,79,0
67964,note_off,,,,,124,0,5,,,,,3,,,71,0
67964,note_off,,,,,124,0,4,,,,,2,,,79,0
67964,note_off,,,,,124,0,2,,,,,1,,,71,0
67968,note_on,,,,,4,0,1,,,,,0,,,78,90
67968,note_on,,,,,4,0,5,,,,,3,,,69,108
67968,note_on,,,,,4,0,2,,,,,1,,,69,90
67968,note_on,,,,,4,0,4,,,,,2,,,78,108
68092,note_off,,,,,124,0,4,,,,,2,,,78,0
68092,note_off,,,,,124,0,5,,,,,3,,,69,0
68092,note_off,,,,,124,0,2,,,,,1,,,69,0
68092,note_off,,,,,124,0,1,,,,,0,,,78,0
68096,note_on,,,,,4,0,2,,,,,1,,,71,90
68096,note_on,,,,,4,0,5,,,,,3,,,71,108
68096,note_on,,,,,4,0,1,,,,,0,,,79,90
68096,note_on,,,,,4,0,4,,,,,2,,,79,108
68220,note_off,,,,,124,0,1,,,,,0,,,79,0
68220,note_off,,,,,124,0,5,,,,,3,,,71,0
68220,note_off,,,,,124,0,4,,,,,2,,,79,0
68220,note_off,,,,,124,0,2,,,,,1,,,71,0
68224,note_on,,,,,4,0,5,,,,,3,,,69,108
68224,note_on,,,,,4,0,4,,,,,2,,,78,108
68224,note_on,,,,,4,0,1,,,,,0,,,78,90
68224,note_on,,,,,4,0,2,,,,,1,,,69,90
68348,note_off,,,,,124,0,4,,,,,2,,,78,0
68348,note_off,,,,,124,0,1,,,,,0,,,78,0
68348,note_off,,,,,124,0,5,,,,,3,,,69,0
68348,note_off,,,,,124,0,2,,,,,1,,,69,0
68352,note_on,,,,,4,0,5,,,,,3,,,67,108
68352,note_on,,,,,4,0,2,,,,,1,,,67,90
68352,note_on,,,,,4,0,1,,,,,0,,,76,90
68352,note_on,,,,,4,0,4,,,,,2,,,76,108
68476,note_off,,,,,124,0,5,,,,,3,,,67,0
68476,note_off,,,,,124,0,1,,,,,0,,,76,0
68476,note_off,,,,,124,0,4,,,,,2,,,76,0
68476,note_off,,,,,124,0,2,,,,,1,,,67,0
68480,note_on,,,,,4,0,2,,,,,1,,,69,90
68480,note_on,,,,,4,0,4,,,,,2,,,78,108
68480,note_on,,,,,4,0,1,,,,,0,,,78,90
68480,note_on,,,,,4,0,5,,,,,3,,,69,108
68604,note_off,,,,,124,0,2,,,,,1,,,69,0
68604,note_off,,,,,124,0,5,,,,,3,,,69,0
68604,note_off,,,,,124,0,4,,,,,2,,,78,0
68604,note_off,,,,,124,0,1,,,,,0,,,78,0
68608,note_on,,,,,4,0,2,,,,,1,,,67,90
68608,note_on,,,,,4,0,1,,,,,0,,,76,90
68608,note_on,,,,,4,0,5,,,,,3,,,67,108
68608,note_on,,,,,4,0,4,,,,,2,,,76,108
68732,note_off,,,,,124,0,2,,,,,1,,,67,0
68732,note_off,,,,,124,0,4,,,,,2,,,76,0
68732,note_off,,,,,124,0,5,,,,,3,,,67,0
68732,note_off,,,,,124,0,1,,,,,0,,,76,0
68736,note_on,,,,,4,0,1,,,,,0,,,74,90
68736,note_on,,,,,4,0,5,,,,,3,,,66,108
68736,note_on,,,,,4,0,4,,,,,2,,,74,108
68736,note_on,,,,,4,0,2,,,,,1,,,66,90
68860,note_off,,,,,124,0,1,,,,,0,,,74,0
68860,note_off,,,,,124,0,2,,,,,1,,,66,0
68860,note_off,,,,,124,0,4,,,,,2,,,74,0
68860,note_off,,,,,124,0,5,,,,,3,,,66,0
68864,note_on,,,,,4,0,4,,,,,2,,,76,108
68864,note_on,,,,,4,0,1,,,,,0,,,76,90
68864,note_on,,,,,4,0,5,,,,,3,,,67,108
68864,note_on,,,,,4,0,2,,,,,1,,,67,90
68988,note_off,,,,,124,0,1,,,,,0,,,76,0
68988,note_off,,,,,124,0,2,,,,,1,,,67,0
68988,note_off,,,,,124,0,4,,,,,2,,,76,0
68988,note_off,,,,,124,0,5,,,,,3,,,67,0
68992,note_on,,,,,4,0,5,,,,,3,,,66,108
68992,note_on,,,,,4,0,1,,,,,0,,,74,90
68992,note_on,,,,,4,0,4,,,,,2,,,74,108
68992,note_on,,,,,4,0,2,,,,,1,,,66,90
69116,note_off,,,,,124,0,2,,,,,1,,,66,0
69116,note_off,,,,,124,0,1,,,,,0,,,74,0
69116,note_off,,,,,124,0,4,,,,,2,,,74,0
69116,note_off,,,,,124,0,5,,,,,3,,,66,0
69120,note_on,,,,,4,0,4,,,,,2,,,72,108
69120,note_on,,,,,4,0,2,,,,,1,,,64,90
69120,note_on,,,,,4,0,5,,,,,3,,,64,108
69120,note_on,,,,,4,0,1,,,,,0,,,72,90
69244,note_off,,,,,124,0,4,,,,,2,,,72,0
69244,note_off,,,,,124,0,1,,,,,0,,,72,0
69248,note_on,,,,,4,0,4,,,,,2,,,74,108
69248,note_on,,,,,4,0,1,,,,,0,,,74,90
69372,note_off,,,,,124,0,4,,,,,2,,,74,0
69372,note_off,,,,,124,0,1,,,,,0,,,74,0
69376,note_on,,,,,4,0,1,,,,,0,,,72,90
69376,note_on,,,,,4,0,4,,,,,2,,,72,108
69404,note_off,,,,,284,0,2,,,,,1,,,64,0
69404,note_off,,,,,284,0,5,,,,,3,,,64,0
69408,note_on,,,,,4,0,2,,,,,1,,,66,90
69408,note_on,,,,,4,0,5,,,,,3,,,66,108
69500,note_off,,,,,124,0,1,,,,,0,,,72,0
69500,note_off,,,,,92,0,2,,,,,1,,,66,0
69500,note_off,,,,,92,0,5,,,,,3,,,66,0
69500,note_off,,,,,124,0,4,,,,,2,,,72,0
69504,note_on,,,,,4,0,1,,,,,0,,,71,90
69504,note_on,,,,,4,0,4,,,,,2,,,71,108
69504,note_on,,,,,4,0,5,,,,,3,,,67,108
69504,note_on,,,,,4,0,2,,,,,1,,,67,90
69788,note_off,,,,,284,0,2,,,,,1,,,67,0
69788,note_off,,,,,284,0,1,,,,,0,,,71,0
69788,note_off,,,,,284,0,5,,,,,3,,,67,0
69788,note_off,,,,,284,0,4,,,,,2,,,71,0
69792,note_on,,,,,4,0,2,,,,,1,,,64,90
69792,note_on,,,,,4,0,1,,,,,0,,,79,90
69792,note_on,,,,,4,0,5,,,,,3,,,64,108
69792,note_on,,,,,4,0,4,,,,,2,,,79,108
69884,note_off,,,,,92,0,2,,,,,1,,,64,0
69884,note_off,,,,,92,0,5,,,,,3,,,64,0
69884,note_off,,,,,92,0,1,,,,,0,,,79,0
69884,note_off,,,,,92,0,4,,,,,2,,,79,0
69888,note_on,,,,,4,0,2,,,,,1,,,66,90
69888,note_on,,,,,4,0,1,,,,,0,,,70,90
69888,note_on,,,,,4,0,4,,,,,2,,,70,108
69888,note_on,,,,,4,0,5,,,,,3,,,66,108
70172,note_off,,,,,284,0,2,,,,,1,,,66,0
70172,note_off,,,,,284,0,5,,,,,3,,,66,0
70176,note_on,,,,,4,0,5,,,,,3,,,61,108
70176,note_on,,,,,4,0,2,,,,,1,,,61,90
70208,note_off,,,,,320,0,1,,,,,0,,,70,0
70208,note_off,,,,,320,0,4,,,,,2,,,70,0
70268,note_off,,,,,92,0,5,,,,,3,,,61,0
70268,note_off,,,,,92,0,2,,,,,1,,,61,0
70272,note_on,,,,,4,0,5,,,,,3,,,70,108
70272,note_on,,,,,4,0,2,,,,,1,,,70,90
70556,note_off,,,,,284,0,5,,,,,3,,,70,0
70556,note_off,,,,,284,0,2,,,,,1,,,70,0
70560,note_on,,,,,4,0,5,,,,,3,,,73,108
70560,note_on,,,,,4,0,2,,,,,1,,,73,90
70652,note_off,,,,,92,0,2,,,,,1,,,73,0
70652,note_off,,,,,92,0,5,,,,,3,,,73,0
70656,note_on,,,,,4,0,2,,,,,1,,,66,90
70656,note_on,,,,,6208,0,10,,,,,7,,,47,60
70656,note_on,,,,,6208,0,9,,,,,7,,,47,60
70656,note_on,,,,,6208,0,3,,,,,8,,,47,92
70656,note_on,,,,,448,0,4,,,,,2,,,74,108
70656,note_on,,,,,4,0,5,,,,,3,,,66,108
70656,note_on,,,,,6208,0,8,,,,,6,,,35,92
70656,note_on,,,,,448,0,1,,,,,0,,,74,90
70656,note_on,,,,,6208,0,7,,,,,5,,,47,92
70780,note_off,,,,,124,0,5,,,,,3,,,66,0
70780,note_off,,,,,124,0,4,,,,,2,,,74,0
70780,note_off,,,,,124,0,2,,,,,1,,,66,0
70780,note_off,,,,,124,0,1,,,,,0,,,74,0
70784,note_on,,,,,4,0,1,,,,,0,,,76,90
70784,note_on,,,,,4,0,4,,,,,2,,,76,108
70784,note_on,,,,,4,0,5,,,,,3,,,67,108
70784,note_on,,,,,4,0,2,,,,,1,,,67,90
70908,note_off,,,,,124,0,5,,,,,3,,,67,0
70908,note_off,,,,,124,0,2,,,,,1,,,67,0
70908,note_off,,,,,124,0,1,,,,,0,,,76,0
70908,note_off,,,,,124,0,4,,,,,2,,,76,0
70912,note_on,,,,,4,0,5,,,,,3,,,66,108
70912,note_on,,,,,4,0,2,,,,,1,,,66,90
70912,note_on,,,,,4,0,4,,,,,2,,,74,108
70912,note_on,,,,,4,0,1,,,,,0,,,74,90
70940,note_off,,,,,284,0,10,,,,,7,,,47,0
70940,note_off,,,,,284,0,8,,,,,6,,,35,0
70940,note_off,,,,,284,0,3,,,,,8,,,47,0
70940,note_off,,,,,284,0,9,,,,,7,,,47,0
70940,note_off,,,,,284,0,7,,,,,5,,,47,0
70944,note_on,,,,,4,0,8,,,,,6,,,35,92
70944,note_on,,,,,4,0,10,,,,,7,,,47,60
70944,note_on,,,,,4,0,3,,,,,8,,,47,92
70944,note_on,,,,,4,0,9,,,,,7,,,47,60
70944,note_on,,,,,4,0,7,,,,,5,,,47,92
71036,note_off,,,,,124,0,5,,,,,3,,,66,0
71036,note_off,,,,,92,0,3,,,,,8,,,47,0
71036,note_off,,,,,92,0,7,,,,,5,,,47,0
71036,note_off,,,,,92,0,10,,,,,7,,,47,0
71036,note_off,,,,,124,0,4,,,,,2,,,74,0
71036,note_off,,,,,92,0,9,,,,,7,,,47,0
71036,note_off,,,,,92,0,8,,,,,6,,,35,0
71036,note_off,,,,,124,0,1,,,,,0,,,74,0
71036,note_off,,,,,124,0,2,,,,,1,,,66,0
71040,note_on,,,,,4,0,2,,,,,1,,,64,90
71040,note_on,,,,,4,0,4,,,,,2,,,73,108
71040,note_on,,,,,4,0,9,,,,,7,,,49,60
71040,note_on,,,,,4,0,8,,,,,6,,,37,92
71040,note_on,,,,,4,0,7,,,,,5,,,49,92
71040,note_on,,,,,0,0,10,,,,,7,,,57,60
71040,note_on,,,,,4,0,5,,,,,3,,,64,108
71040,note_on,,,,,4,0,10,,,,,7,,,49,60
71040,note_on,,,,,0,0,10,,,,,7,,,52,60
71040,note_on,,,,,4,0,1,,,,,0,,,73,90
71040,note_on,,,,,4,0,3,,,,,8,,,49,92
71164,note_off,,,,,124,0,1,,,,,0,,,73,0
71164,note_off,,,,,124,0,5,,,,,3,,,64,0
71164,note_off,,,,,124,0,2,,,,,1,,,64,0
71164,note_off,,,,,124,0,4,,,,,2,,,73,0
71168,note_on,,,,,4,0,2,,,,,1,,,66,90
71168,note_on,,,,,4,0,1,,,,,0,,,74,90
71168,note_on,,,,,4,0,5,,,,,3,,,66,108
71168,note_on,,,,,4,0,4,,,,,2,,,74,108
71292,note_off,,,,,124,0,1,,,,,0,,,74,0
71292,note_off,,,,,124,0,5,,,,,3,,,66,0
71292,note_off,,,,,124,0,4,,,,,2,,,74,0
71292,note_off,,,,,124,0,2,,,,,1,,,66,0
71296,note_on,,,,,4,0,4,,,,,2,,,73,108
71296,note_on,,,,,4,0,2,,,,,1,,,64,90
71296,note_on,,,,,4,0,1,,,,,0,,,73,90
71296,note_on,,,,,4,0,5,,,,,3,,,64,108
71324,note_off,,,,,0,0,10,,,,,7,,,57,0
71324,note_off,,,,,0,0,10,,,,,7,,,52,0
71324,note_off,,,,,284,0,10,,,,,7,,,49,0
71324,note_off,,,,,284,0,7,,,,,5,,,49,0
71324,note_off,,,,,284,0,9,,,,,7,,,49,0
71324,note_off,,,,,284,0,8,,,,,6,,,37,0
71324,note_off,,,,,284,0,3,,,,,8,,,49,0
71328,note_on,,,,,4,0,8,,,,,6,,,37,92
71328,note_on,,,,,4,0,9,,,,,7,,,49,60
71328,note_on,,,,,4,0,7,,,,,5,,,49,92
71328,note_on,,,,,4,0,3,,,,,8,,,49,92
71328,note_on,,,,,4,0,10,,,,,7,,,49,60
71420,note_off,,,,,92,0,3,,,,,8,,,49,0
71420,note_off,,,,,124,0,1,,,,,0,,,73,0
71420,note_off,,,,,124,0,2,,,,,1,,,64,0
71420,note_off,,,,,92,0,7,,,,,5,,,49,0
71420,note_off,,,,,92,0,8,,,,,6,,,37,0
71420,note_off,,,,,124,0,5,,,,,3,,,64,0
71420,note_off,,,,,124,0,4,,,,,2,,,73,0
71420,note_off,,,,,92,0,9,,,,,7,,,49,0
71420,note_off,,,,,92,0,10,,,,,7,,,49,0
71424,note_on,,,,,4,0,4,,,,,2,,,71,108
71424,note_on,,,,,0,0,10,,,,,7,,,59,60
71424,note_on,,,,,4,0,8,,,,,6,,,38,92
71424,note_on,,,,,4,0,2,,,,,1,,,62,90
71424,note_on,,,,,4,0,10,,,,,7,,,50,60
71424,note_on,,,,,4,0,5,,,,,3,,,62,108
71424,note_on,,,,,4,0,3,,,,,8,,,50,92
71424,note_on,,,,,4,0,7,,,,,5,,,50,92
71424,note_on,,,,,4,0,1,,,,,0,,,71,90
71424,note_on,,,,,4,0,9,,,,,7,,,50,60
71708,note_off,,,,,284,0,8,,,,,6,,,38,0
71708,note_off,,,,,284,0,7,,,,,5,,,50,0
71708,note_off,,,,,284,0,3,,,,,8,,,50,0
71708,note_off,,,,,284,0,9,,,,,7,,,50,0
71708,note_off,,,,,0,0,10,,,,,7,,,59,0
71708,note_off,,,,,284,0,10,,,,,7,,,50,0
71712,note_on,,,,,4,0,8,,,,,6,,,42,92
71712,note_on,,,,,4,0,7,,,,,5,,,54,92
71712,note_on,,,,,4,0,3,,,,,8,,,54,92
71712,note_on,,,,,4,0,10,,,,,7,,,54,60
71712,note_on,,,,,4,0,9,,,,,7,,,54,60
71744,note_off,,,,,320,0,1,,,,,0,,,71,0
71744,note_off,,,,,320,0,5,,,,,3,,,62,0
71744,note_off,,,,,320,0,2,,,,,1,,,62,0
71744,note_off,,,,,320,0,4,,,,,2,,,71,0
71804,note_off,,,,,92,0,9,,,,,7,,,54,0
71804,note_off,,,,,92,0,8,,,,,6,,,42,0
71804,note_off,,,,,92,0,10,,,,,7,,,54,0
71804,note_off,,,,,92,0,7,,,,,5,,,54,0
71804,note_off,,,,,92,0,3,,,,,8,,,54,0
71808,note_on,,,,,4,0,3,,,,,8,,,47,92
71808,note_on,,,,,4,0,9,,,,,7,,,47,60
71808,note_on,,,,,4,0,10,,,,,7,,,47,60
71808,note_on,,,,,4,0,8,,,,,6,,,35,92
71808,note_on,,,,,4,0,7,,,,,5,,,47,92
72092,note_off,,,,,284,0,7,,,,,5,,,47,0
72092,note_off,,,,,284,0,3,,,,,8,,,47,0
72092,note_off,,,,,284,0,10,,,,,7,,,47,0
72092,note_off,,,,,284,0,8,,,,,6,,,35,0
72092,note_off,,,,,284,0,9,,,,,7,,,47,0
72096,note_on,,,,,4,0,3,,,,,8,,,47,92
72096,note_on,,,,,4,0,7,,,,,5,,,47,92
72096,note_on,,,,,4,0,8,,,,,6,,,35,92
72096,note_on,,,,,4,0,10,,,,,7,,,47,60
72096,note_on,,,,,4,0,9,,,,,7,,,47,60
72188,note_off,,,,,92,0,3,,,,,8,,,47,0
72188,note_off,,,,,92,0,7,,,,,5,,,47,0
72188,note_off,,,,,92,0,8,,,,,6,,,35,0
72188,note_off,,,,,92,0,9,,,,,7,,,47,0
72188,note_off,,,,,92,0,10,,,,,7,,,47,0
72192,note_on,,,,,4,0,9,,,,,7,,,49,60
72192,note_on,,,,,448,0,4,,,,,2,,,76,108
72192,note_on,,,,,448,0,1,,,,,0,,,76,90
72192,note_on,,,,,0,0,10,,,,,7,,,57,60
72192,note_on,,,,,0,0,10,,,,,7,,,52,60
72192,note_on,,,,,4,0,10,,,,,7,,,49,60
72192,note_on,,,,,4,0,8,,,,,6,,,37,92
72192,note_on,,,,,448,0,2,,,,,1,,,73,90
72192,note_on,,,,,448,0,5,,,,,3,,,73,108
72192,note_on,,,,,4,0,3,,,,,8,,,49,92
72192,note_on,,,,,4,0,7,,,,,5,,,49,92
72192,note_on,,,,,7360,0,6,,,,,4,,,71,92
72316,note_off,,,,,124,0,1,,,,,0,,,76,0
72316,note_off,,,,,124,0,2,,,,,1,,,73,0
72316,note_off,,,,,124,0,4,,,,,2,,,76,0
72316,note_off,,,,,124,0,5,,,,,3,,,73,0
72320,note_on,,,,,4,0,1,,,,,0,,,78,90
72320,note_on,,,,,4,0,5,,,,,3,,,74,108
72320,note_on,,,,,4,0,4,,,,,2,,,78,108
72320,note_on,,,,,4,0,2,,,,,1,,,74,90
72444,note_off,,,,,124,0,1,,,,,0,,,78,0
72444,note_off,,,,,124,0,2,,,,,1,,,74,0
72444,note_off,,,,,124,0,4,,,,,2,,,78,0
72444,note_off,,,,,124,0,5,,,,,3,,,74,0
72448,note_on,,,,,4,0,5,,,,,3,,,73,108
72448,note_on,,,,,4,0,4,,,,,2,,,76,108
72448,note_on,,,,,4,0,1,,,,,0,,,76,90
72448,note_on,,,,,4,0,2,,,,,1,,,73,90
72476,note_off,,,,,284,0,8,,,,,6,,,37,0
72476,note_off,,,,,284,0,3,,,,,8,,,49,0
72476,note_off,,,,,0,0,10,,,,,7,,,57,0
72476,note_off,,,,,0,0,10,,,,,7,,,52,0
72476,note_off,,,,,284,0,9,,,,,7,,,49,0
72476,note_off,,,,,284,0,7,,,,,5,,,49,0
72476,note_off,,,,,284,0,10,,,,,7,,,49,0
72476,note_off,,,,,284,0,6,,,,,4,,,71,0
72480,note_on,,,,,4,0,7,,,,,5,,,49,92
72480,note_on,,,,,4,0,6,,,,,4,,,71,92
72480,note_on,,,,,4,0,10,,,,,7,,,49,60
72480,note_on,,,,,4,0,3,,,,,8,,,49,92
72480,note_on,,,,,4,0,8,,,,,6,,,37,92
72480,note_on,,,,,4,0,9,,,,,7,,,49,60
72572,note_off,,,,,124,0,1,,,,,0,,,76,0
72572,note_off,,,,,92,0,9,,,,,7,,,49,0
72572,note_off,,,,,92,0,10,,,,,7,,,49,0
72572,note_off,,,,,92,0,6,,,,,4,,,71,0
72572,note_off,,,,,92,0,8,,,,,6,,,37,0
72572,note_off,,,,,124,0,4,,,,,2,,,76,0
72572,note_off,,,,,124,0,5,,,,,3,,,73,0
72572,note_off,,,,,92,0,7,,,,,5,,,49,0
72572,note_off,,,,,92,0,3,,,,,8,,,49,0
72572,note_off,,,,,124,0,2,,,,,1,,,73,0
72576,note_on,,,,,4,0,9,,,,,7,,,50,60
72576,note_on,,,,,4,0,8,,,,,6,,,38,92
72576,note_on,,,,,4,0,10,,,,,7,,,50,60
72576,note_on,,,,,0,0,10,,,,,7,,,59,60
72576,note_on,,,,,4,0,3,,,,,8,,,50,92
72576,note_on,,,,,4,0,6,,,,,4,,,70,92
72576,note_on,,,,,4,0,2,,,,,1,,,71,90
72576,note_on,,,,,4,0,5,,,,,3,,,71,108
72576,note_on,,,,,4,0,4,,,,,2,,,74,108
72576,note_on,,,,,4,0,7,,,,,5,,,50,92
72576,note_on,,,,,4,0,1,,,,,0,,,74,90
72700,note_off,,,,,124,0,5,,,,,3,,,71,0
72700,note_off,,,,,124,0,2,,,,,1,,,71,0
72700,note_off,,,,,124,0,1,,,,,0,,,74,0
72700,note_off,,,,,124,0,4,,,,,2,,,74,0
72704,note_on,,,,,4,0,2,,,,,1,,,73,90
72704,note_on,,,,,4,0,5,,,,,3,,,73,108
72704,note_on,,,,,4,0,4,,,,,2,,,76,108
72704,note_on,,,,,4,0,1,,,,,0,,,76,90
72828,note_off,,,,,124,0,1,,,,,0,,,76,0
72828,note_off,,,,,124,0,2,,,,,1,,,73,0
72828,note_off,,,,,124,0,4,,,,,2,,,76,0
72828,note_off,,,,,124,0,5,,,,,3,,,73,0
72832,note_on,,,,,4,0,2,,,,,1,,,71,90
72832,note_on,,,,,4,0,1,,,,,0,,,74,90
72832,note_on,,,,,4,0,5,,,,,3,,,71,108
72832,note_on,,,,,4,0,4,,,,,2,,,74,108
72860,note_off,,,,,284,0,9,,,,,7,,,50,0
72860,note_off,,,,,284,0,10,,,,,7,,,50,0
72860,note_off,,,,,0,0,10,,,,,7,,,59,0
72860,note_off,,,,,284,0,6,,,,,4,,,70,0
72860,note_off,,,,,284,0,3,,,,,8,,,50,0
72860,note_off,,,,,284,0,7,,,,,5,,,50,0
72860,note_off,,,,,284,0,8,,,,,6,,,38,0
72864,note_on,,,,,4,0,8,,,,,6,,,38,92
72864,note_on,,,,,4,0,3,,,,,8,,,50,92
72864,note_on,,,,,4,0,9,,,,,7,,,50,60
72864,note_on,,,,,4,0,7,,,,,5,,,50,92
72864,note_on,,,,,4,0,6,,,,,4,,,70,92
72864,note_on,,,,,4,0,10,,,,,7,,,50,60
72956,note_off,,,,,124,0,2,,,,,1,,,71,0
72956,note_off,,,,,92,0,8,,,,,6,,,38,0
72956,note_off,,,,,92,0,6,,,,,4,,,70,0
72956,note_off,,,,,92,0,10,,,,,7,,,50,0
72956,note_off,,,,,92,0,3,,,,,8,,,50,0
72956,note_off,,,,,124,0,4,,,,,2,,,74,0
72956,note_off,,,,,92,0,7,,,,,5,,,50,0
72956,note_off,,,,,124,0,1,,,,,0,,,74,0
72956,note_off,,,,,124,0,5,,,,,3,,,71,0
72956,note_off,,,,,92,0,9,,,,,7,,,50,0
72960,note_on,,,,,4,0,4,,,,,2,,,73,108
72960,note_on,,,,,4,0,3,,,,,8,,,52,92
72960,note_on,,,,,4,0,6,,,,,4,,,66,92
72960,note_on,,,,,4,0,2,,,,,1,,,70,90
72960,note_on,,,,,4,0,9,,,,,7,,,52,60
72960,note_on,,,,,4,0,8,,,,,6,,,40,92
72960,note_on,,,,,0,0,10,,,,,7,,,57,60
72960,note_on,,,,,0,0,10,,,,,7,,,54,60
72960,note_on,,,,,4,0,10,,,,,7,,,52,60
72960,note_on,,,,,4,0,7,,,,,5,,,52,92
72960,note_on,,,,,4,0,1,,,,,0,,,73,90
72960,note_on,,,,,4,0,5,,,,,3,,,70,108
73244,note_off,,,,,284,0,8,,,,,6,,,40,0
73244,note_off,,,,,284,0,7,,,,,5,,,52,0
73244,note_off,,,,,284,0,10,,,,,7,,,52,0
73244,note_off,,,,,0,0,10,,,,,7,,,54,0
73244,note_off,,,,,0,0,10,,,,,7,,,57,0
73244,note_off,,,,,284,0,3,,,,,8,,,52,0
73244,note_off,,,,,284,0,9,,,,,7,,,52,0
73248,note_on,,,,,4,0,9,,,,,7,,,55,60
73248,note_on,,,,,4,0,10,,,,,7,,,55,60
73248,note_on,,,,,4,0,8,,,,,6,,,43,92
73248,note_on,,,,,4,0,7,,,,,5,,,55,92
73248,note_on,,,,,4,0,3,,,,,8,,,55,92
73280,note_off,,,,,320,0,6,,,,,4,,,66,0
73280,note_off,,,,,320,0,5,,,,,3,,,70,0
73280,note_off,,,,,320,0,1,,,,,0,,,73,0
73280,note_off,,,,,320,0,4,,,,,2,,,73,0
73280,note_off,,,,,320,0,2,,,,,1,,,70,0
73340,note_off,,,,,92,0,7,,,,,5,,,55,0
73340,note_off,,,,,92,0,10,,,,,7,,,55,0
73340,note_off,,,,,92,0,8,,,,,6,,,43,0
73340,note_off,,,,,92,0,3,,,,,8,,,55,0
73340,note_off,,,,,92,0,9,,,,,7,,,55,0
73344,note_on,,,,,4,0,3,,,,,8,,,49,92
73344,note_on,,,,,4,0,7,,,,,5,,,49,92
73344,note_on,,,,,4,0,9,,,,,7,,,49,60
73344,note_on,,,,,4,0,10,,,,,7,,,49,60
73344,note_on,,,,,4,0,8,,,,,6,,,37,92
73628,note_off,,,,,284,0,7,,,,,5,,,49,0
73628,note_off,,,,,284,0,8,,,,,6,,,37,0
73628,note_off,,,,,284,0,10,,,,,7,,,49,0
73628,note_off,,,,,284,0,3,,,,,8,,,49,0
73628,note_off,,,,,284,0,9,,,,,7,,,49,0
73632,note_on,,,,,4,0,8,,,,,6,,,40,92
73632,note_on,,,,,4,0,9,,,,,7,,,52,60
73632,note_on,,,,,4,0,10,,,,,7,,,52,60
73632,note_on,,,,,4,0,3,,,,,8,,,52,92
73632,note_on,,,,,4,0,7,,,,,5,,,52,92
73724,note_off,,,,,92,0,7,,,,,5,,,52,0
73724,note_off,,,,,92,0,10,,,,,7,,,52,0
73724,note_off,,,,,92,0,3,,,,,8,,,52,0
73724,note_off,,,,,92,0,8,,,,,6,,,40,0
73724,note_off,,,,,92,0,9,,,,,7,,,52,0
73728,note_on,,,,,0,0,10,,,,,7,,,54,60
73728,note_on,,,,,448,0,4,,,,,2,,,78,108
73728,note_on,,,,,4,0,10,,,,,7,,,46,60
73728,note_on,,,,,448,0,1,,,,,0,,,78,90
73728,note_on,,,,,448,0,5,,,,,3,,,73,108
73728,note_on,,,,,4,0,7,,,,,5,,,46,92
73728,note_on,,,,,4,0,9,,,,,7,,,46,60
73728,note_on,,,,,448,0,2,,,,,1,,,73,90
73728,note_on,,,,,4,0,8,,,,,6,,,34,92
73728,note_on,,,,,4,0,3,,,,,8,,,46,92
73728,note_on,,,,,448,0,6,,,,,4,,,70,92
73852,note_off,,,,,124,0,4,,,,,2,,,78,0
73852,note_off,,,,,124,0,1,,,,,0,,,78,0
73856,note_on,,,,,4,0,4,,,,,2,,,79,108
73856,note_on,,,,,4,0,1,,,,,0,,,79,90
73980,note_off,,,,,124,0,4,,,,,2,,,79,0
73980,note_off,,,,,124,0,1,,,,,0,,,79,0
73984,note_on,,,,,4,0,1,,,,,0,,,78,90
73984,note_on,,,,,4,0,4,,,,,2,,,78,108
74012,note_off,,,,,284,0,8,,,,,6,,,34,0
74012,note_off,,,,,284,0,6,,,,,4,,,70,0
74012,note_off,,,,,284,0,7,,,,,5,,,46,0
74012,note_off,,,,,284,0,2,,,,,1,,,73,0
74012,note_off,,,,,284,0,3,,,,,8,,,46,0
74012,note_off,,,,,284,0,9,,,,,7,,,46,0
74012,note_off,,,,,284,0,5,,,,,3,,,73,0
74012,note_off,,,,,284,0,10,,,,,7,,,46,0
74012,note_off,,,,,0,0,10,,,,,7,,,54,0
74016,note_on,,,,,4,0,6,,,,,4,,,70,92
74016,note_on,,,,,4,0,9,,,,,7,,,49,60
74016,note_on,,,,,4,0,7,,,,,5,,,49,92
74016,note_on,,,,,4,0,10,,,,,7,,,49,60
74016,note_on,,,,,4,0,3,,,,,8,,,49,92
74016,note_on,,,,,4,0,8,,,,,6,,,37,92
74016,note_on,,,,,4,0,2,,,,,1,,,73,90
74016,note_on,,,,,4,0,5,,,,,3,,,73,108
74108,note_off,,,,,124,0,1,,,,,0,,,78,0
74108,note_off,,,,,92,0,9,,,,,7,,,49,0
74108,note_off,,,,,92,0,3,,,,,8,,,49,0
74108,note_off,,,,,92,0,6,,,,,4,,,70,0
74108,note_off,,,,,92,0,7,,,,,5,,,49,0
74108,note_off,,,,,92,0,2,,,,,1,,,73,0
74108,note_off,,,,,92,0,8,,,,,6,,,37,0
74108,note_off,,,,,124,0,4,,,,,2,,,78,0
74108,note_off,,,,,92,0,5,,,,,3,,,73,0
74108,note_off,,,,,92,0,10,,,,,7,,,49,0
74112,note_on,,,,,4,0,1,,,,,0,,,76,90
74112,note_on,,,,,4,0,2,,,,,1,,,70,90
74112,note_on,,,,,4,0,6,,,,,4,,,66,92
74112,note_on,,,,,4,0,8,,,,,6,,,30,92
74112,note_on,,,,,4,0,4,,,,,2,,,76,108
74112,note_on,,,,,4,0,9,,,,,7,,,42,60
74112,note_on,,,,,4,0,5,,,,,3,,,70,108
74112,note_on,,,,,4,0,10,,,,,7,,,42,60
74112,note_on,,,,,4,0,3,,,,,8,,,42,92
74112,note_on,,,,,4,0,7,,,,,5,,,42,92
74236,note_off,,,,,124,0,1,,,,,0,,,76,0
74236,note_off,,,,,124,0,4,,,,,2,,,76,0
74240,note_on,,,,,4,0,4,,,,,2,,,78,108
74240,note_on,,,,,4,0,1,,,,,0,,,78,90
74364,note_off,,,,,124,0,1,,,,,0,,,78,0
74364,note_off,,,,,124,0,4,,,,,2,,,78,0
74368,note_on,,,,,4,0,4,,,,,2,,,76,108
74368,note_on,,,,,4,0,1,,,,,0,,,76,90
74396,note_off,,,,,284,0,5,,,,,3,,,70,0
74396,note_off,,,,,284,0,9,,,,,7,,,42,0
74396,note_off,,,,,284,0,3,,,,,8,,,42,0
74396,note_off,,,,,284,0,8,,,,,6,,,30,0
74396,note_off,,,,,284,0,7,,,,,5,,,42,0
74396,note_off,,,,,284,0,6,,,,,4,,,66,0
74396,note_off,,,,,284,0,2,,,,,1,,,70,0
74396,note_off,,,,,284,0,10,,,,,7,,,42,0
74400,note_on,,,,,4,0,8,,,,,6,,,34,92
74400,note_on,,,,,4,0,5,,,,,3,,,70,108
74400,note_on,,,,,4,0,6,,,,,4,,,66,92
74400,note_on,,,,,4,0,2,,,,,1,,,70,90
74400,note_on,,,,,4,0,9,,,,,7,,,46,60
74400,note_on,,,,,4,0,3,,,,,8,,,46,92
74400,note_on,,,,,4,0,7,,,,,5,,,46,92
74400,note_on,,,,,4,0,10,,,,,7,,,46,60
74492,note_off,,,,,92,0,10,,,,,7,,,46,0
74492,note_off,,,,,92,0,5,,,,,3,,,70,0
74492,note_off,,,,,92,0,7,,,,,5,,,46,0
74492,note_off,,,,,92,0,6,,,,,4,,,66,0
74492,note_off,,,,,124,0,1,,,,,0,,,76,0
74492,note_off,,,,,124,0,4,,,,,2,,,76,0
74492,note_off,,,,,92,0,8,,,,,6,,,34,0
74492,note_off,,,,,92,0,3,,,,,8,,,46,0
74492,note_off,,,,,92,0,2,,,,,1,,,70,0
74492,note_off,,,,,92,0,9,,,,,7,,,46,0
74496,note_on,,,,,4,0,7,,,,,5,,,47,92
74496,note_on,,,,,4,0,10,,,,,7,,,47,60
74496,note_on,,,,,4,0,2,,,,,1,,,66,90
74496,note_on,,,,,4,0,8,,,,,6,,,35,92
74496,note_on,,,,,4,0,1,,,,,0,,,74,90
74496,note_on,,,,,4,0,5,,,,,3,,,66,108
74496,note_on,,,,,4,0,9,,,,,7,,,47,60
74496,note_on,,,,,4,0,3,,,,,8,,,47,92
74496,note_on,,,,,4,0,4,,,,,2,,,74,108
74496,note_on,,,,,4,0,6,,,,,4,,,64,92
74780,note_off,,,,,284,0,8,,,,,6,,,35,0
74780,note_off,,,,,284,0,10,,,,,7,,,47,0
74780,note_off,,,,,284,0,9,,,,,7,,,47,0
74780,note_off,,,,,284,0,3,,,,,8,,,47,0
74780,note_off,,,,,284,0,7,,,,,5,,,47,0
74780,note_off,,,,,284,0,4,,,,,2,,,74,0
74780,note_off,,,,,284,0,1,,,,,0,,,74,0
74784,note_on,,,,,4,0,8,,,,,6,,,37,92
74784,note_on,,,,,4,0,10,,,,,7,,,49,60
74784,note_on,,,,,4,0,4,,,,,2,,,78,108
74784,note_on,,,,,4,0,7,,,,,5,,,49,92
74784,note_on,,,,,4,0,3,,,,,8,,,49,92
74784,note_on,,,,,4,0,1,,,,,0,,,78,90
74784,note_on,,,,,4,0,9,,,,,7,,,49,60
74816,note_off,,,,,320,0,6,,,,,4,,,64,0
74876,note_off,,,,,92,0,10,,,,,7,,,49,0
74876,note_off,,,,,92,0,3,,,,,8,,,49,0
74876,note_off,,,,,92,0,1,,,,,0,,,78,0
74876,note_off,,,,,92,0,9,,,,,7,,,49,0
74876,note_off,,,,,92,0,4,,,,,2,,,78,0
74876,note_off,,,,,92,0,8,,,,,6,,,37,0
74876,note_off,,,,,92,0,7,,,,,5,,,49,0
74880,note_on,,,,,4,0,3,,,,,8,,,50,92
74880,note_on,,,,,4,0,9,,,,,7,,,50,60
74880,note_on,,,,,4,0,10,,,,,7,,,50,60
74880,note_on,,,,,4,0,1,,,,,0,,,71,90
74880,note_on,,,,,4,0,4,,,,,2,,,71,108
74880,note_on,,,,,4,0,7,,,,,5,,,50,92
74880,note_on,,,,,0,0,10,,,,,7,,,59,60
74880,note_on,,,,,4,0,8,,,,,6,,,38,92
75008,note_off,,,,,512,0,2,,,,,1,,,66,0
75008,note_off,,,,,512,0,5,,,,,3,,,66,0
75164,note_off,,,,,284,0,3,,,,,8,,,50,0
75164,note_off,,,,,284,0,1,,,,,0,,,71,0
75164,note_off,,,,,0,0,10,,,,,7,,,59,0
75164,note_off,,,,,284,0,7,,,,,5,,,50,0
75164,note_off,,,,,284,0,8,,,,,6,,,38,0
75164,note_off,,,,,284,0,9,,,,,7,,,50,0
75164,note_off,,,,,284,0,10,,,,,7,,,50,0
75164,note_off,,,,,284,0,4,,,,,2,,,71,0
75168,note_on,,,,,4,0,1,,,,,0,,,83,90
75168,note_on,,,,,160,0,5,,,,,3,,,74,108
75168,note_on,,,,,4,0,4,,,,,2,,,83,108
75168,note_on,,,,,4,0,8,,,,,6,,,40,92
75168,note_on,,,,,4,0,7,,,,,5,,,52,92
75168,note_on,,,,,4,0,10,,,,,7,,,52,60
75168,note_on,,,,,160,0,2,,,,,1,,,74,90
75168,note_on,,,,,4,0,3,,,,,8,,,52,92
75168,note_on,,,,,4,0,9,,,,,7,,,52,60
75260,note_off,,,,,92,0,4,,,,,2,,,83,0
75260,note_off,,,,,92,0,5,,,,,3,,,74,0
75260,note_off,,,,,92,0,10,,,,,7,,,52,0
75260,note_off,,,,,92,0,3,,,,,8,,,52,0
75260,note_off,,,,,92,0,2,,,,,1,,,74,0
75260,note_off,,,,,92,0,9,,,,,7,,,52,0
75260,note_off,,,,,92,0,8,,,,,6,,,40,0
75260,note_off,,,,,92,0,1,,,,,0,,,83,0
75260,note_off,,,,,92,0,7,,,,,5,,,52,0
75264,note_on,,,,,4,0,10,,,,,7,,,54,60
75264,note_on,,,,,4,0,5,,,,,3,,,73,108
75264,note_on,,,,,4,0,3,,,,,8,,,54,92
75264,note_on,,,,,4,0,9,,,,,7,,,54,60
75264,note_on,,,,,4,0,1,,,,,0,,,81,90
75264,note_on,,,,,4,0,7,,,,,5,,,54,92
75264,note_on,,,,,448,0,6,,,,,4,,,59,92
75264,note_on,,,,,4,0,4,,,,,2,,,81,108
75264,note_on,,,,,4,0,2,,,,,1,,,73,90
75264,note_on,,,,,4,0,8,,,,,6,,,42,92
75388,note_off,,,,,124,0,1,,,,,0,,,81,0
75388,note_off,,,,,124,0,4,,,,,2,,,81,0
75392,note_on,,,,,4,0,1,,,,,0,,,83,90
75392,note_on,,,,,4,0,4,,,,,2,,,83,108
75516,note_off,,,,,124,0,1,,,,,0,,,83,0
75516,note_off,,,,,124,0,4,,,,,2,,,83,0
75520,note_on,,,,,4,0,4,,,,,2,,,81,108
75520,note_on,,,,,4,0,1,,,,,0,,,81,90
75548,note_off,,,,,284,0,7,,,,,5,,,54,0
75548,note_off,,,,,284,0,5,,,,,3,,,73,0
75548,note_off,,,,,284,0,3,,,,,8,,,54,0
75548,note_off,,,,,284,0,8,,,,,6,,,42,0
75548,note_off,,,,,284,0,2,,,,,1,,,73,0
75548,note_off,,,,,284,0,9,,,,,7,,,54,0
75548,note_off,,,,,284,0,6,,,,,4,,,59,0
75548,note_off,,,,,284,0,10,,,,,7,,,54,0
75552,note_on,,,,,4,0,7,,,,,5,,,54,92
75552,note_on,,,,,4,0,10,,,,,7,,,54,60
75552,note_on,,,,,4,0,8,,,,,6,,,42,92
75552,note_on,,,,,4,0,2,,,,,1,,,78,90
75552,note_on,,,,,4,0,9,,,,,7,,,54,60
75552,note_on,,,,,4,0,3,,,,,8,,,54,92
75552,note_on,,,,,4,0,6,,,,,4,,,59,92
75552,note_on,,,,,4,0,5,,,,,3,,,78,108
75644,note_off,,,,,92,0,3,,,,,8,,,54,0
75644,note_off,,,,,124,0,4,,,,,2,,,81,0
75644,note_off,,,,,124,0,1,,,,,0,,,81,0
75644,note_off,,,,,92,0,8,,,,,6,,,42,0
75644,note_off,,,,,92,0,9,,,,,7,,,54,0
75644,note_off,,,,,92,0,6,,,,,4,,,59,0
75644,note_off,,,,,92,0,2,,,,,1,,,78,0
75644,note_off,,,,,92,0,5,,,,,3,,,78,0
75644,note_off,,,,,92,0,7,,,,,5,,,54,0
75644,note_off,,,,,92,0,10,,,,,7,,,54,0
75648,note_on,,,,,4,0,8,,,,,6,,,47,92
75648,note_on,,,,,4,0,2,,,,,1,,,76,90
75648,note_on,,,,,4,0,5,,,,,3,,,76,108
75648,note_on,,,,,4,0,10,,,,,7,,,59,60
75648,note_on,,,,,4,0,9,,,,,7,,,59,60
75648,note_on,,,,,4,0,1,,,,,0,,,79,90
75648,note_on,,,,,4,0,3,,,,,8,,,59,92
75648,note_on,,,,,4,0,4,,,,,2,,,79,108
75648,note_on,,,,,4,0,6,,,,,4,,,73,92
75648,note_on,,,,,4,0,7,,,,,5,,,59,92
75932,note_off,,,,,284,0,7,,,,,5,,,59,0
75932,note_off,,,,,284,0,3,,,,,8,,,59,0
75932,note_off,,,,,284,0,5,,,,,3,,,76,0
75932,note_off,,,,,284,0,2,,,,,1,,,76,0
75932,note_off,,,,,284,0,8,,,,,6,,,47,0
75932,note_off,,,,,284,0,1,,,,,0,,,79,0
75932,note_off,,,,,284,0,4,,,,,2,,,79,0
75932,note_off,,,,,284,0,9,,,,,7,,,59,0
75932,note_off,,,,,284,0,10,,,,,7,,,59,0
75932,note_off,,,,,284,0,6,,,,,4,,,73,0
75936,note_on,,,,,4,0,6,,,,,4,,,73,92
75936,note_on,,,,,4,0,9,,,,,7,,,59,60
75936,note_on,,,,,4,0,3,,,,,8,,,59,92
75936,note_on,,,,,4,0,8,,,,,6,,,47,92
75936,note_on,,,,,4,0,4,,,,,2,,,78,108
75936,note_on,,,,,4,0,1,,,,,0,,,78,90
75936,note_on,,,,,4,0,2,,,,,1,,,75,90
75936,note_on,,,,,4,0,5,,,,,3,,,75,108
75936,note_on,,,,,4,0,10,,,,,7,,,60,60
75936,note_on,,,,,4,0,7,,,,,5,,,59,92
76028,note_off,,,,,92,0,10,,,,,7,,,60,0
76028,note_off,,,,,92,0,9,,,,,7,,,59,0
76028,note_off,,,,,92,0,8,,,,,6,,,47,0
76028,note_off,,,,,92,0,1,,,,,0,,,78,0
76028,note_off,,,,,92,0,3,,,,,8,,,59,0
76028,note_off,,,,,92,0,4,,,,,2,,,78,0
76028,note_off,,,,,92,0,5,,,,,3,,,75,0
76028,note_off,,,,,92,0,6,,,,,4,,,73,0
76028,note_off,,,,,92,0,2,,,,,1,,,75,0
76028,note_off,,,,,92,0,7,,,,,5,,,59,0
76032,note_on,,,,,4,0,7,,,,,5,,,52,92
76032,note_on,,,,,4,0,1,,,,,0,,,79,90
76032,note_on,,,,,4,0,5,,,,,3,,,76,108
76032,note_on,,,,,4,0,6,,,,,4,,,71,92
76032,note_on,,,,,4,0,3,,,,,8,,,52,92
76032,note_on,,,,,4,0,8,,,,,6,,,40,92
76032,note_on,,,,,4,0,4,,,,,2,,,79,108
76032,note_on,,,,,4,0,2,,,,,1,,,76,90
76032,note_on,,,,,4,0,9,,,,,7,,,52,60
76032,note_on,,,,,4,0,10,,,,,7,,,52,60
76316,note_off,,,,,284,0,2,,,,,1,,,76,0
76316,note_off,,,,,284,0,5,,,,,3,,,76,0
76320,note_on,,,,,4,0,5,,,,,3,,,71,108
76320,note_on,,,,,4,0,2,,,,,1,,,71,90
76412,note_off,,,,,92,0,2,,,,,1,,,71,0
76412,note_off,,,,,92,0,5,,,,,3,,,71,0
76416,note_on,,,,,4,0,2,,,,,1,,,71,90
76416,note_on,,,,,4,0,5,,,,,3,,,71,108
76540,note_off,,,,,124,0,2,,,,,1,,,71,0
76540,note_off,,,,,124,0,5,,,,,3,,,71,0
76544,note_off,,,,,512,0,9,,,,,7,,,52,0
76544,note_off,,,,,512,0,10,,,,,7,,,52,0
76544,note_off,,,,,512,0,3,,,,,8,,,52,0
76544,note_on,,,,,4,0,5,,,,,3,,,73,108
76544,note_off,,,,,512,0,8,,,,,6,,,40,0
76544,note_off,,,,,512,0,4,,,,,2,,,79,0
76544,note_off,,,,,512,0,6,,,,,4,,,71,0
76544,note_on,,,,,4,0,2,,,,,1,,,73,90
76544,note_off,,,,,512,0,1,,,,,0,,,79,0
76544,note_off,,,,,512,0,7,,,,,5,,,52,0
76668,note_off,,,,,124,0,5,,,,,3,,,73,0
76668,note_off,,,,,124,0,2,,,,,1,,,73,0
76672,note_on,,,,,4,0,2,,,,,1,,,71,90
76672,note_on,,,,,4,0,5,,,,,3,,,71,108
76704,note_on,,,,,160,0,3,,,,,8,,,52,92
76704,note_on,,,,,160,0,4,,,,,2,,,79,108
76704,note_on,,,,,160,0,9,,,,,7,,,52,60
76704,note_on,,,,,160,0,1,,,,,0,,,79,90
76704,note_on,,,,,160,0,6,,,,,4,,,71,92
76704,note_on,,,,,160,0,8,,,,,6,,,40,92
76704,note_on,,,,,160,0,7,,,,,5,,,52,92
76704,note_on,,,,,160,0,10,,,,,7,,,52,60
76796,note_off,,,,,124,0,5,,,,,3,,,71,0
76796,note_off,,,,,92,0,6,,,,,4,,,71,0
76796,note_off,,,,,92,0,4,,,,,2,,,79,0
76796,note_off,,,,,92,0,10,,,,,7,,,52,0
76796,note_off,,,,,92,0,9,,,,,7,,,52,0
76796,note_off,,,,,92,0,7,,,,,5,,,52,0
76796,note_off,,,,,92,0,8,,,,,6,,,40,0
76796,note_off,,,,,92,0,3,,,,,8,,,52,0
76796,note_off,,,,,92,0,1,,,,,0,,,79,0
76796,note_off,,,,,124,0,2,,,,,1,,,71,0
76800,note_on,,,,,4,0,5,,,,,3,,,71,108
76800,note_on,,,,,4,0,10,,,,,7,,,50,60
76800,note_on,,,,,0,0,10,,,,,7,,,59,60
76800,note_on,,,,,4,0,2,,,,,1,,,71,90
76800,note_on,,,,,4,0,1,,,,,0,,,78,90
76800,note_on,,,,,4,0,7,,,,,5,,,50,92
76800,note_on,,,,,4,0,6,,,,,4,,,66,92
76800,note_on,,,,,4,0,4,,,,,2,,,78,108
76800,note_on,,,,,4,0,3,,,,,8,,,50,92
76800,note_on,,,,,4,0,9,,,,,7,,,50,60
76800,note_on,,,,,4,0,8,,,,,6,,,38,92
77084,note_off,,,,,284,0,4,,,,,2,,,78,0
77084,note_off,,,,,284,0,1,,,,,0,,,78,0
77088,note_on,,,,,4,0,1,,,,,0,,,77,90
77088,note_on,,,,,4,0,4,,,,,2,,,77,108
77180,note_off,,,,,92,0,1,,,,,0,,,77,0
77180,note_off,,,,,92,0,4,,,,,2,,,77,0
77184,note_on,,,,,4,0,1,,,,,0,,,78,90
77184,note_on,,,,,4,0,4,,,,,2,,,78,108
77312,note_off,,,,,512,0,3,,,,,8,,,50,0
77312,note_off,,,,,512,0,6,,,,,4,,,66,0
77312,note_off,,,,,512,0,8,,,,,6,,,38,0
77312,note_off,,,,,512,0,2,,,,,1,,,71,0
77312,note_off,,,,,512,0,5,,,,,3,,,71,0
77312,note_off,,,,,512,0,9,,,,,7,,,50,0
77312,note_off,,,,,512,0,7,,,,,5,,,50,0
77312,note_off,,,,,512,0,10,,,,,7,,,50,0
77312,note_off,,,,,0,0,10,,,,,7,,,59,0
77468,note_off,,,,,284,0,4,,,,,2,,,78,0
77468,note_off,,,,,284,0,1,,,,,0,,,78,0
77472,note_on,,,,,4,0,4,,,,,2,,,80,108
77472,note_on,,,,,4,0,1,,,,,0,,,80,90
77472,note_on,,,,,160,0,3,,,,,8,,,50,92
77472,note_on,,,,,160,0,5,,,,,3,,,71,108
77472,note_on,,,,,160,0,2,,,,,1,,,71,90
77472,note_on,,,,,160,0,7,,,,,5,,,50,92
77472,note_on,,,,,160,0,6,,,,,4,,,61,92
77472,note_on,,,,,160,0,8,,,,,6,,,38,92
77472,note_on,,,,,160,0,9,,,,,7,,,50,60
77472,note_on,,,,,160,0,10,,,,,7,,,50,60
77564,note_off,,,,,92,0,9,,,,,7,,,50,0
77564,note_off,,,,,92,0,1,,,,,0,,,80,0
77564,note_off,,,,,92,0,2,,,,,1,,,71,0
77564,note_off,,,,,92,0,10,,,,,7,,,50,0
77564,note_off,,,,,92,0,5,,,,,3,,,71,0
77564,note_off,,,,,92,0,6,,,,,4,,,61,0
77564,note_off,,,,,92,0,8,,,,,6,,,38,0
77564,note_off,,,,,92,0,3,,,,,8,,,50,0
77564,note_off,,,,,92,0,4,,,,,2,,,80,0
77564,note_off,,,,,92,0,7,,,,,5,,,50,0
77568,note_on,,,,,4,0,4,,,,,2,,,77,108
77568,note_on,,,,,4,0,2,,,,,1,,,71,90
77568,note_on,,,,,4,0,6,,,,,4,,,68,92
77568,note_on,,,,,4,0,10,,,,,7,,,49,60
77568,note_on,,,,,4,0,3,,,,,8,,,49,92
77568,note_on,,,,,4,0,1,,,,,0,,,77,90
77568,note_on,,,,,4,0,7,,,,,5,,,49,92
77568,note_on,,,,,4,0,5,,,,,3,,,71,108
77568,note_on,,,,,4,0,9,,,,,7,,,49,60
77568,note_on,,,,,4,0,8,,,,,6,,,37,92
77692,note_off,,,,,124,0,5,,,,,3,,,71,0
77692,note_off,,,,,124,0,2,,,,,1,,,71,0
77696,note_on,,,,,4,0,5,,,,,3,,,73,108
77696,note_on,,,,,4,0,2,,,,,1,,,73,90
77820,note_off,,,,,124,0,2,,,,,1,,,73,0
77820,note_off,,,,,124,0,5,,,,,3,,,73,0
77824,note_on,,,,,4,0,5,,,,,3,,,71,108
77824,note_on,,,,,4,0,2,,,,,1,,,71,90
77888,note_off,,,,,320,0,3,,,,,8,,,49,0
77888,note_off,,,,,320,0,4,,,,,2,,,77,0
77888,note_off,,,,,320,0,7,,,,,5,,,49,0
77888,note_off,,,,,320,0,8,,,,,6,,,37,0
77888,note_off,,,,,320,0,1,,,,,0,,,77,0
77888,note_off,,,,,320,0,10,,,,,7,,,49,0
77888,note_off,,,,,320,0,9,,,,,7,,,49,0
77948,note_off,,,,,124,0,2,,,,,1,,,71,0
77948,note_off,,,,,124,0,5,,,,,3,,,71,0
77952,note_on,,,,,4,0,2,,,,,1,,,69,90
77952,note_on,,,,,4,0,5,,,,,3,,,69,108
78076,note_off,,,,,124,0,5,,,,,3,,,69,0
78076,note_off,,,,,124,0,2,,,,,1,,,69,0
78080,note_on,,,,,4,0,2,,,,,1,,,71,90
78080,note_on,,,,,4,0,5,,,,,3,,,71,108
78080,note_off,,,,,512,0,6,,,,,4,,,68,0
78204,note_off,,,,,124,0,5,,,,,3,,,71,0
78204,note_off,,,,,124,0,2,,,,,1,,,71,0
78208,note_on,,,,,4,0,5,,,,,3,,,68,108
78208,note_on,,,,,4,0,2,,,,,1,,,68,90
78240,note_on,,,,,160,0,6,,,,,4,,,71,92
78332,note_off,,,,,124,0,5,,,,,3,,,68,0
78332,note_off,,,,,124,0,2,,,,,1,,,68,0
78332,note_off,,,,,92,0,6,,,,,4,,,71,0
78336,note_on,,,,,4,0,5,,,,,3,,,73,108
78336,note_on,,,,,4,0,2,,,,,1,,,73,90
78336,note_on,,,,,4,0,6,,,,,4,,,69,92
78460,note_off,,,,,124,0,5,,,,,3,,,73,0
78460,note_off,,,,,124,0,2,,,,,1,,,73,0
78460,note_off,,,,,124,0,6,,,,,4,,,69,0
78464,note_on,,,,,4,0,5,,,,,3,,,74,108
78464,note_on,,,,,4,0,6,,,,,4,,,71,92
78464,note_on,,,,,4,0,2,,,,,1,,,74,90
78588,note_off,,,,,124,0,6,,,,,4,,,71,0
78588,note_off,,,,,124,0,2,,,,,1,,,74,0
78588,note_off,,,,,124,0,5,,,,,3,,,74,0
78592,note_on,,,,,4,0,5,,,,,3,,,73,108
78592,note_on,,,,,4,0,6,,,,,4,,,69,92
78592,note_on,,,,,4,0,2,,,,,1,,,73,90
78716,note_off,,,,,124,0,6,,,,,4,,,69,0
78716,note_off,,,,,124,0,2,,,,,1,,,73,0
78716,note_off,,,,,124,0,5,,,,,3,,,73,0
78720,note_on,,,,,4,0,6,,,,,4,,,68,92
78720,note_on,,,,,4,0,2,,,,,1,,,71,90
78720,note_on,,,,,4,0,5,,,,,3,,,71,108
78844,note_off,,,,,124,0,5,,,,,3,,,71,0
78844,note_off,,,,,124,0,2,,,,,1,,,71,0
78844,note_off,,,,,124,0,6,,,,,4,,,68,0
78848,note_on,,,,,4,0,2,,,,,1,,,73,90
78848,note_on,,,,,4,0,6,,,,,4,,,69,92
78848,note_on,,,,,4,0,5,,,,,3,,,73,108
78972,note_off,,,,,124,0,5,,,,,3,,,73,0
78972,note_off,,,,,124,0,6,,,,,4,,,69,0
78972,note_off,,,,,124,0,2,,,,,1,,,73,0
78976,note_on,,,,,4,0,2,,,,,1,,,69,90
78976,note_on,,,,,4,0,5,,,,,3,,,69,108
78976,note_on,,,,,4,0,6,,,,,4,,,66,92
79100,note_off,,,,,124,0,5,,,,,3,,,69,0
79100,note_off,,,,,124,0,6,,,,,4,,,66,0
79100,note_off,,,,,124,0,2,,,,,1,,,69,0
79104,note_on,,,,,4,0,2,,,,,1,,,71,90
79104,note_on,,,,,4,0,6,,,,,4,,,68,92
79104,note_on,,,,,4,0,5,,,,,3,,,71,108
79228,note_off,,,,,124,0,2,,,,,1,,,71,0
79228,note_off,,,,,124,0,6,,,,,4,,,68,0
79228,note_off,,,,,124,0,5,,,,,3,,,71,0
79232,note_on,,,,,4,0,2,,,,,1,,,73,90
79232,note_on,,,,,4,0,6,,,,,4,,,69,92
79232,note_on,,,,,4,0,5,,,,,3,,,73,108
79356,note_off,,,,,124,0,5,,,,,3,,,73,0
79356,note_off,,,,,124,0,2,,,,,1,,,73,0
79356,note_off,,,,,124,0,6,,,,,4,,,69,0
79360,note_on,,,,,4,0,2,,,,,1,,,71,90
79360,note_on,,,,,4,0,6,,,,,4,,,68,92
79360,note_on,,,,,4,0,5,,,,,3,,,71,108
79484,note_off,,,,,124,0,6,,,,,4,,,68,0
79484,note_off,,,,,124,0,2,,,,,1,,,71,0
79484,note_off,,,,,124,0,5,,,,,3,,,71,0
79488,note_on,,,,,4,0,6,,,,,4,,,66,92
79488,note_on,,,,,4,0,2,,,,,1,,,69,90
79488,note_on,,,,,4,0,5,,,,,3,,,69,108
79612,note_off,,,,,124,0,2,,,,,1,,,69,0
79612,note_off,,,,,124,0,5,,,,,3,,,69,0
79612,note_off,,,,,124,0,6,,,,,4,,,66,0
79616,note_on,,,,,4,0,5,,,,,3,,,71,108
79616,note_on,,,,,4,0,6,,,,,4,,,68,92
79616,note_on,,,,,4,0,2,,,,,1,,,71,90
79740,note_off,,,,,124,0,2,,,,,1,,,71,0
79740,note_off,,,,,124,0,5,,,,,3,,,71,0
79740,note_off,,,,,124,0,6,,,,,4,,,68,0
79744,note_on,,,,,4,0,5,,,,,3,,,68,108
79744,note_on,,,,,4,0,6,,,,,4,,,65,92
79744,note_on,,,,,4,0,2,,,,,1,,,68,90
79868,note_off,,,,,124,0,5,,,,,3,,,68,0
79868,note_off,,,,,124,0,2,,,,,1,,,68,0
79868,note_off,,,,,124,0,6,,,,,4,,,65,0
79872,note_on,,,,,1984,0,1,,,,,0,,,78,90
79872,note_on,,,,,1984,0,8,,,,,6,,,45,92
79872,note_on,,,,,4,0,6,,,,,4,,,66,92
79872,note_on,,,,,1984,0,4,,,,,2,,,78,108
79872,note_on,,,,,1984,0,10,,,,,7,,,57,60
79872,note_on,,,,,1984,0,9,,,,,7,,,57,60
79872,note_on,,,,,0,0,10,,,,,7,,,66,60
79872,note_on,,,,,4,0,2,,,,,1,,,73,90
79872,note_on,,,,,4,0,5,,,,,3,,,73,108
79872,note_on,,,,,1984,0,7,,,,,5,,,57,92
79872,note_on,,,,,1984,0,3,,,,,8,,,57,92
79996,note_off,,,,,124,0,10,,,,,7,,,57,0
79996,note_off,,,,,124,0,3,,,,,8,,,57,0
79996,note_off,,,,,0,0,10,,,,,7,,,66,0
79996,note_off,,,,,124,0,7,,,,,5,,,57,0
79996,note_off,,,,,124,0,8,,,,,6,,,45,0
79996,note_off,,,,,124,0,9,,,,,7,,,57,0
80000,note_on,,,,,4,0,8,,,,,6,,,47,92
80000,note_on,,,,,4,0,7,,,,,5,,,59,92
80000,note_on,,,,,4,0,3,,,,,8,,,59,92
80000,note_on,,,,,4,0,10,,,,,7,,,59,60
80000,note_on,,,,,4,0,9,,,,,7,,,59,60
80124,note_off,,,,,124,0,9,,,,,7,,,59,0
80124,note_off,,,,,124,0,3,,,,,8,,,59,0
80124,note_off,,,,,124,0,7,,,,,5,,,59,0
80124,note_off,,,,,124,0,10,,,,,7,,,59,0
80124,note_off,,,,,124,0,8,,,,,6,,,47,0
80128,note_on,,,,,4,0,3,,,,,8,,,57,92
80128,note_on,,,,,4,0,10,,,,,7,,,57,60
80128,note_on,,,,,4,0,7,,,,,5,,,57,92
80128,note_on,,,,,4,0,8,,,,,6,,,45,92
80128,note_on,,,,,4,0,9,,,,,7,,,57,60
80156,note_off,,,,,284,0,5,,,,,3,,,73,0
80156,note_off,,,,,284,0,4,,,,,2,,,78,0
80156,note_off,,,,,284,0,2,,,,,1,,,73,0
80156,note_off,,,,,284,0,1,,,,,0,,,78,0
80156,note_off,,,,,284,0,6,,,,,4,,,66,0
80160,note_on,,,,,4,0,4,,,,,2,,,78,108
80160,note_on,,,,,4,0,6,,,,,4,,,66,92
80160,note_on,,,,,4,0,5,,,,,3,,,73,108
80160,note_on,,,,,4,0,2,,,,,1,,,73,90
80160,note_on,,,,,4,0,1,,,,,0,,,78,90
80252,note_off,,,,,124,0,8,,,,,6,,,45,0
80252,note_off,,,,,124,0,3,,,,,8,,,57,0
80252,note_off,,,,,92,0,6,,,,,4,,,66,0
80252,note_off,,,,,124,0,9,,,,,7,,,57,0
80252,note_off,,,,,92,0,4,,,,,2,,,78,0
80252,note_off,,,,,92,0,2,,,,,1,,,73,0
80252,note_off,,,,,92,0,1,,,,,0,,,78,0
80252,note_off,,,,,124,0,10,,,,,7,,,57,0
80252,note_off,,,,,92,0,5,,,,,3,,,73,0
80252,note_off,,,,,124,0,7,,,,,5,,,57,0
80256,note_on,,,,,4,0,8,,,,,6,,,44,92
80256,note_on,,,,,0,0,10,,,,,7,,,64,60
80256,note_on,,,,,0,0,10,,,,,7,,,59,60
80256,note_on,,,,,4,0,10,,,,,7,,,56,60
80256,note_on,,,,,4,0,9,,,,,7,,,56,60
80256,note_on,,,,,4,0,5,,,,,3,,,77,108
80256,note_on,,,,,4,0,3,,,,,8,,,56,92
80256,note_on,,,,,4,0,1,,,,,0,,,80,90
80256,note_on,,,,,4,0,2,,,,,1,,,77,90
80256,note_on,,,,,4,0,4,,,,,2,,,80,108
80256,note_on,,,,,4,0,7,,,,,5,,,56,92
80256,note_on,,,,,4,0,6,,,,,4,,,71,92
80380,note_off,,,,,124,0,7,,,,,5,,,56,0
80380,note_off,,,,,124,0,9,,,,,7,,,56,0
80380,note_off,,,,,124,0,3,,,,,8,,,56,0
80380,note_off,,,,,124,0,10,,,,,7,,,56,0
80380,note_off,,,,,0,0,10,,,,,7,,,59,0
80380,note_off,,,,,124,0,8,,,,,6,,,44,0
80380,note_off,,,,,0,0,10,,,,,7,,,64,0
80384,note_on,,,,,4,0,3,,,,,8,,,57,92
80384,note_on,,,,,4,0,10,,,,,7,,,57,60
80384,note_on,,,,,4,0,9,,,,,7,,,57,60
80384,note_on,,,,,4,0,7,,,,,5,,,57,92
80384,note_on,,,,,4,0,8,,,,,6,,,45,92
80508,note_off,,,,,124,0,9,,,,,7,,,57,0
80508,note_off,,,,,124,0,10,,,,,7,,,57,0
80508,note_off,,,,,124,0,8,,,,,6,,,45,0
80508,note_off,,,,,124,0,7,,,,,5,,,57,0
80508,note_off,,,,,124,0,3,,,,,8,,,57,0
80512,note_on,,,,,4,0,7,,,,,5,,,56,92
80512,note_on,,,,,4,0,9,,,,,7,,,56,60
80512,note_on,,,,,4,0,10,,,,,7,,,56,60
80512,note_on,,,,,4,0,8,,,,,6,,,44,92
80512,note_on,,,,,4,0,3,,,,,8,,,56,92
80540,note_off,,,,,284,0,5,,,,,3,,,77,0
80540,note_off,,,,,284,0,1,,,,,0,,,80,0
80540,note_off,,,,,284,0,4,,,,,2,,,80,0
80540,note_off,,,,,284,0,2,,,,,1,,,77,0
80540,note_off,,,,,284,0,6,,,,,4,,,71,0
80544,note_on,,,,,4,0,2,,,,,1,,,77,90
80544,note_on,,,,,4,0,5,,,,,3,,,77,108
80544,note_on,,,,,4,0,4,,,,,2,,,80,108
80544,note_on,,,,,4,0,6,,,,,4,,,71,92
80544,note_on,,,,,4,0,1,,,,,0,,,80,90
80636,note_off,,,,,92,0,1,,,,,0,,,80,0
80636,note_off,,,,,124,0,8,,,,,6,,,44,0
80636,note_off,,,,,124,0,10,,,,,7,,,56,0
80636,note_off,,,,,92,0,4,,,,,2,,,80,0
80636,note_off,,,,,92,0,2,,,,,1,,,77,0
80636,note_off,,,,,124,0,7,,,,,5,,,56,0
80636,note_off,,,,,92,0,6,,,,,4,,,71,0
80636,note_off,,,,,92,0,5,,,,,3,,,77,0
80636,note_off,,,,,124,0,9,,,,,7,,,56,0
80636,note_off,,,,,124,0,3,,,,,8,,,56,0
80640,note_on,,,,,4,0,2,,,,,1,,,78,90
80640,note_on,,,,,4,0,4,,,,,2,,,81,108
80640,note_on,,,,,4,0,1,,,,,0,,,81,90
80640,note_on,,,,,4,0,5,,,,,3,,,78,108
80640,note_on,,,,,4,0,8,,,,,6,,,42,92
80640,note_on,,,,,4,0,6,,,,,4,,,73,92
80640,note_on,,,,,4,0,9,,,,,7,,,54,60
80640,note_on,,,,,4,0,3,,,,,8,,,54,92
80640,note_on,,,,,4,0,10,,,,,7,,,54,60
80640,note_on,,,,,4,0,7,,,,,5,,,54,92
80924,note_off,,,,,284,0,1,,,,,0,,,81,0
80924,note_off,,,,,284,0,4,,,,,2,,,81,0
80928,note_on,,,,,4,0,4,,,,,2,,,85,108
80928,note_on,,,,,4,0,1,,,,,0,,,85,90
80960,note_off,,,,,320,0,2,,,,,1,,,78,0
80960,note_off,,,,,320,0,7,,,,,5,,,54,0
80960,note_off,,,,,320,0,3,,,,,8,,,54,0
80960,note_off,,,,,320,0,9,,,,,7,,,54,0
80960,note_off,,,,,320,0,8,,,,,6,,,42,0
80960,note_off,,,,,320,0,10,,,,,7,,,54,0
80960,note_off,,,,,320,0,6,,,,,4,,,73,0
80960,note_off,,,,,320,0,5,,,,,3,,,78,0
81020,note_off,,,,,92,0,4,,,,,2,,,85,0
81020,note_off,,,,,92,0,1,,,,,0,,,85,0
81024,note_on,,,,,4,0,4,,,,,2,,,78,108
81024,note_on,,,,,4,0,1,,,,,0,,,78,90
81308,note_off,,,,,284,0,4,,,,,2,,,78,0
81308,note_off,,,,,284,0,1,,,,,0,,,78,0
81312,note_on,,,,,4,0,4,,,,,2,,,78,108
81312,note_on,,,,,4,0,1,,,,,0,,,78,90
81404,note_off,,,,,92,0,4,,,,,2,,,78,0
81404,note_off,,,,,92,0,1,,,,,0,,,78,0
81408,note_on,,,,,448,0,5,,,,,3,,,74,108
81408,note_on,,,,,448,0,8,,,,,6,,,47,92
81408,note_on,,,,,448,0,6,,,,,4,,,68,92
81408,note_on,,,,,448,0,2,,,,,1,,,74,90
81408,note_on,,,,,4,0,4,,,,,2,,,80,108
81408,note_on,,,,,0,0,10,,,,,7,,,67,60
81408,note_on,,,,,0,0,10,,,,,7,,,62,60
81408,note_on,,,,,448,0,10,,,,,7,,,59,60
81408,note_on,,,,,448,0,9,,,,,7,,,59,60
81408,note_on,,,,,4,0,1,,,,,0,,,80,90
81408,note_on,,,,,448,0,7,,,,,5,,,59,92
81408,note_on,,,,,448,0,3,,,,,8,,,59,92
81532,note_off,,,,,124,0,7,,,,,5,,,59,0
81532,note_off,,,,,0,0,10,,,,,7,,,62,0
81532,note_off,,,,,124,0,10,,,,,7,,,59,0
81532,note_off,,,,,124,0,5,,,,,3,,,74,0
81532,note_off,,,,,0,0,10,,,,,7,,,67,0
81532,note_off,,,,,124,0,3,,,,,8,,,59,0
81532,note_off,,,,,124,0,9,,,,,7,,,59,0
81532,note_off,,,,,124,0,2,,,,,1,,,74,0
81532,note_off,,,,,124,0,8,,,,,6,,,47,0
81536,note_on,,,,,4,0,9,,,,,7,,,61,60
81536,note_on,,,,,4,0,7,,,,,5,,,61,92
81536,note_on,,,,,4,0,2,,,,,1,,,76,90
81536,note_on,,,,,4,0,8,,,,,6,,,49,92
81536,note_on,,,,,4,0,5,,,,,3,,,76,108
81536,note_on,,,,,4,0,10,,,,,7,,,61,60
81536,note_on,,,,,4,0,3,,,,,8,,,61,92
81660,note_off,,,,,124,0,3,,,,,8,,,61,0
81660,note_off,,,,,124,0,8,,,,,6,,,49,0
81660,note_off,,,,,124,0,2,,,,,1,,,76,0
81660,note_off,,,,,124,0,7,,,,,5,,,61,0
81660,note_off,,,,,124,0,5,,,,,3,,,76,0
81660,note_off,,,,,124,0,10,,,,,7,,,61,0
81660,note_off,,,,,124,0,9,,,,,7,,,61,0
81664,note_on,,,,,4,0,10,,,,,7,,,59,60
81664,note_on,,,,,4,0,2,,,,,1,,,74,90
81664,note_on,,,,,4,0,7,,,,,5,,,59,92
81664,note_on,,,,,4,0,5,,,,,3,,,74,108
81664,note_on,,,,,4,0,3,,,,,8,,,59,92
81664,note_on,,,,,4,0,9,,,,,7,,,59,60
81664,note_on,,,,,4,0,8,,,,,6,,,47,92
81692,note_off,,,,,284,0,4,,,,,2,,,80,0
81692,note_off,,,,,284,0,1,,,,,0,,,80,0
81692,note_off,,,,,284,0,6,,,,,4,,,68,0
81696,note_on,,,,,4,0,1,,,,,0,,,80,90
81696,note_on,,,,,4,0,6,,,,,4,,,68,92
81696,note_on,,,,,4,0,4,,,,,2,,,80,108
81788,note_off,,,,,124,0,3,,,,,8,,,59,0
81788,note_off,,,,,124,0,8,,,,,6,,,47,0
81788,note_off,,,,,92,0,4,,,,,2,,,80,0
81788,note_off,,,,,124,0,7,,,,,5,,,59,0
81788,note_off,,,,,124,0,10,,,,,7,,,59,0
81788,note_off,,,,,124,0,9,,,,,7,,,59,0
81788,note_off,,,,,92,0,6,,,,,4,,,68,0
81788,note_off,,,,,124,0,2,,,,,1,,,74,0
81788,note_off,,,,,92,0,1,,,,,0,,,80,0
81788,note_off,,,,,124,0,5,,,,,3,,,74,0
81792,note_on,,,,,4,0,4,,,,,2,,,81,108
81792,note_on,,,,,4,0,8,,,,,6,,,45,92
81792,note_on,,,,,4,0,3,,,,,8,,,57,92
81792,note_on,,,,,4,0,10,,,,,7,,,57,60
81792,note_on,,,,,0,0,10,,,,,7,,,66,60
81792,note_on,,,,,4,0,2,,,,,1,,,73,90
81792,note_on,,,,,4,0,6,,,,,4,,,66,92
81792,note_on,,,,,4,0,9,,,,,7,,,57,60
81792,note_on,,,,,4,0,1,,,,,0,,,81,90
81792,note_on,,,,,4,0,7,,,,,5,,,57,92
81792,note_on,,,,,4,0,5,,,,,3,,,73,108
81916,note_off,,,,,124,0,3,,,,,8,,,57,0
81916,note_off,,,,,124,0,9,,,,,7,,,57,0
81916,note_off,,,,,124,0,5,,,,,3,,,73,0
81916,note_off,,,,,124,0,10,,,,,7,,,57,0
81916,note_off,,,,,124,0,2,,,,,1,,,73,0
81916,note_off,,,,,124,0,8,,,,,6,,,45,0
81916,note_off,,,,,0,0,10,,,,,7,,,66,0
81916,note_off,,,,,124,0,7,,,,,5,,,57,0
81920,note_on,,,,,4,0,7,,,,,5,,,59,92
81920,note_on,,,,,4,0,10,,,,,7,,,59,60
81920,note_on,,,,,4,0,3,,,,,8,,,59,92
81920,note_on,,,,,4,0,9,,,,,7,,,59,60
81920,note_on,,,,,4,0,5,,,,,3,,,74,108
81920,note_on,,,,,4,0,2,,,,,1,,,74,90
81920,note_on,,,,,4,0,8,,,,,6,,,47,92
82044,note_off,,,,,124,0,7,,,,,5,,,59,0
82044,note_off,,,,,124,0,10,,,,,7,,,59,0
82044,note_off,,,,,124,0,5,,,,,3,,,74,0
82044,note_off,,,,,124,0,2,,,,,1,,,74,0
82044,note_off,,,,,124,0,3,,,,,8,,,59,0
82044,note_off,,,,,124,0,9,,,,,7,,,59,0
82044,note_off,,,,,124,0,8,,,,,6,,,47,0
82048,note_on,,,,,4,0,8,,,,,6,,,45,92
82048,note_on,,,,,4,0,7,,,,,5,,,57,92
82048,note_on,,,,,4,0,9,,,,,7,,,57,60
82048,note_on,,,,,4,0,5,,,,,3,,,73,108
82048,note_on,,,,,4,0,3,,,,,8,,,57,92
82048,note_on,,,,,4,0,2,,,,,1,,,73,90
82048,note_on,,,,,4,0,10,,,,,7,,,57,60
82076,note_off,,,,,284,0,4,,,,,2,,,81,0
82076,note_off,,,,,284,0,1,,,,,0,,,81,0
82076,note_off,,,,,284,0,6,,,,,4,,,66,0
82080,note_on,,,,,4,0,4,,,,,2,,,81,108
82080,note_on,,,,,4,0,1,,,,,0,,,81,90
82080,note_on,,,,,4,0,6,,,,,4,,,66,92
82172,note_off,,,,,124,0,9,,,,,7,,,57,0
82172,note_off,,,,,124,0,7,,,,,5,,,57,0
82172,note_off,,,,,124,0,10,,,,,7,,,57,0
82172,note_off,,,,,92,0,1,,,,,0,,,81,0
82172,note_off,,,,,124,0,3,,,,,8,,,57,0
82172,note_off,,,,,92,0,6,,,,,4,,,66,0
82172,note_off,,,,,124,0,5,,,,,3,,,73,0
82172,note_off,,,,,124,0,8,,,,,6,,,45,0
82172,note_off,,,,,92,0,4,,,,,2,,,81,0
82172,note_off,,,,,124,0,2,,,,,1,,,73,0
82176,note_on,,,,,4,0,10,,,,,7,,,56,60
82176,note_on,,,,,4,0,7,,,,,5,,,56,92
82176,note_on,,,,,0,0,10,,,,,7,,,59,60
82176,note_on,,,,,0,0,10,,,,,7,,,64,60
82176,note_on,,,,,4,0,2,,,,,1,,,71,90
82176,note_on,,,,,4,0,9,,,,,7,,,56,60
82176,note_on,,,,,4,0,5,,,,,3,,,71,108
82176,note_on,,,,,4,0,6,,,,,4,,,65,92
82176,note_on,,,,,4,0,8,,,,,6,,,44,92
82176,note_on,,,,,4,0,4,,,,,2,,,83,108
82176,note_on,,,,,4,0,3,,,,,8,,,56,92
82176,note_on,,,,,4,0,1,,,,,0,,,83,90
82460,note_off,,,,,284,0,4,,,,,2,,,83,0
82460,note_off,,,,,284,0,1,,,,,0,,,83,0
82464,note_on,,,,,4,0,4,,,,,2,,,86,108
82464,note_on,,,,,4,0,1,,,,,0,,,86,90
82496,note_off,,,,,320,0,8,,,,,6,,,44,0
82496,note_off,,,,,320,0,7,,,,,5,,,56,0
82496,note_off,,,,,0,0,10,,,,,7,,,64,0
82496,note_off,,,,,320,0,10,,,,,7,,,56,0
82496,note_off,,,,,320,0,5,,,,,3,,,71,0
82496,note_off,,,,,320,0,6,,,,,4,,,65,0
82496,note_off,,,,,320,0,2,,,,,1,,,71,0
82496,note_off,,,,,320,0,3,,,,,8,,,56,0
82496,note_off,,,,,320,0,9,,,,,7,,,56,0
82496,note_off,,,,,0,0,10,,,,,7,,,59,0
82556,note_off,,,,,92,0,4,,,,,2,,,86,0
82556,note_off,,,,,92,0,1,,,,,0,,,86,0
82560,note_on,,,,,4,0,1,,,,,0,,,80,90
82560,note_on,,,,,4,0,4,,,,,2,,,80,108
82844,note_off,,,,,284,0,1,,,,,0,,,80,0
82844,note_off,,,,,284,0,4,,,,,2,,,80,0
82848,note_on,,,,,4,0,4,,,,,2,,,83,108
82848,note_on,,,,,4,0,1,,,,,0,,,83,90
82940,note_off,,,,,92,0,1,,,,,0,,,83,0
82940,note_off,,,,,92,0,4,,,,,2,,,83,0
82944,note_on,,,,,4,0,4,,,,,2,,,77,108
82944,note_on,,,,,4,0,1,,,,,0,,,77,90
82944,note_on,,,,,448,0,5,,,,,3,,,73,108
82944,note_on,,,,,448,0,2,,,,,1,,,73,90
82944,note_on,,,,,448,0,10,,,,,7,,,61,60
82944,note_on,,,,,448,0,6,,,,,4,,,68,92
82944,note_on,,,,,448,0,9,,,,,7,,,61,60
82944,note_on,,,,,448,0,7,,,,,5,,,61,92
82944,note_on,,,,,448,0,8,,,,,6,,,49,92
82944,note_on,,,,,448,0,3,,,,,8,,,61,92
83068,note_off,,,,,124,0,9,,,,,7,,,61,0
83068,note_off,,,,,124,0,7,,,,,5,,,61,0
83068,note_off,,,,,124,0,8,,,,,6,,,49,0
83068,note_off,,,,,124,0,3,,,,,8,,,61,0
83068,note_off,,,,,124,0,10,,,,,7,,,61,0
83072,note_on,,,,,4,0,10,,,,,7,,,62,60
83072,note_on,,,,,4,0,3,,,,,8,,,62,92
83072,note_on,,,,,4,0,9,,,,,7,,,62,60
83072,note_on,,,,,4,0,7,,,,,5,,,62,92
83072,note_on,,,,,4,0,8,,,,,6,,,50,92
83196,note_off,,,,,124,0,8,,,,,6,,,50,0
83196,note_off,,,,,124,0,10,,,,,7,,,62,0
83196,note_off,,,,,124,0,3,,,,,8,,,62,0
83196,note_off,,,,,124,0,9,,,,,7,,,62,0
83196,note_off,,,,,124,0,7,,,,,5,,,62,0
83200,note_on,,,,,4,0,7,,,,,5,,,61,92
83200,note_on,,,,,4,0,3,,,,,8,,,61,92
83200,note_on,,,,,4,0,9,,,,,7,,,61,60
83200,note_on,,,,,4,0,10,,,,,7,,,61,60
83200,note_on,,,,,4,0,8,,,,,6,,,49,92
83228,note_off,,,,,284,0,1,,,,,0,,,77,0
83228,note_off,,,,,284,0,6,,,,,4,,,68,0
83228,note_off,,,,,284,0,4,,,,,2,,,77,0
83228,note_off,,,,,284,0,5,,,,,3,,,73,0
83228,note_off,,,,,284,0,2,,,,,1,,,73,0
83232,note_on,,,,,4,0,1,,,,,0,,,80,90
83232,note_on,,,,,4,0,6,,,,,4,,,68,92
83232,note_on,,,,,4,0,2,,,,,1,,,73,90
83232,note_on,,,,,4,0,5,,,,,3,,,73,108
83232,note_on,,,,,4,0,4,,,,,2,,,80,108
83324,note_off,,,,,92,0,4,,,,,2,,,80,0
83324,note_off,,,,,124,0,10,,,,,7,,,61,0
83324,note_off,,,,,124,0,8,,,,,6,,,49,0
83324,note_off,,,,,92,0,6,,,,,4,,,68,0
83324,note_off,,,,,92,0,1,,,,,0,,,80,0
83324,note_off,,,,,92,0,2,,,,,1,,,73,0
83324,note_off,,,,,124,0,3,,,,,8,,,61,0
83324,note_off,,,,,92,0,5,,,,,3,,,73,0
83324,note_off,,,,,124,0,9,,,,,7,,,61,0
83324,note_off,,,,,124,0,7,,,,,5,,,61,0
83328,note_on,,,,,4,0,6,,,,,4,,,65,92
83328,note_on,,,,,4,0,1,,,,,0,,,73,90
83328,note_on,,,,,4,0,8,,,,,6,,,47,92
83328,note_on,,,,,0,0,10,,,,,7,,,61,60
83328,note_on,,,,,4,0,7,,,,,5,,,59,92
83328,note_on,,,,,4,0,9,,,,,7,,,59,60
83328,note_on,,,,,4,0,2,,,,,1,,,68,90
83328,note_on,,,,,0,0,10,,,,,7,,,64,60
83328,note_on,,,,,4,0,4,,,,,2,,,73,108
83328,note_on,,,,,4,0,5,,,,,3,,,68,108
83328,note_on,,,,,4,0,3,,,,,8,,,59,92
83328,note_on,,,,,4,0,10,,,,,7,,,59,60
83452,note_off,,,,,124,0,10,,,,,7,,,59,0
83452,note_off,,,,,124,0,7,,,,,5,,,59,0
83452,note_off,,,,,0,0,10,,,,,7,,,61,0
83452,note_off,,,,,124,0,8,,,,,6,,,47,0
83452,note_off,,,,,124,0,9,,,,,7,,,59,0
83452,note_off,,,,,124,0,3,,,,,8,,,59,0
83452,note_off,,,,,0,0,10,,,,,7,,,64,0
83456,note_on,,,,,4,0,7,,,,,5,,,61,92
83456,note_on,,,,,4,0,9,,,,,7,,,61,60
83456,note_on,,,,,4,0,10,,,,,7,,,61,60
83456,note_on,,,,,4,0,3,,,,,8,,,61,92
83456,note_on,,,,,4,0,8,,,,,6,,,49,92
83580,note_off,,,,,124,0,8,,,,,6,,,49,0
83580,note_off,,,,,124,0,9,,,,,7,,,61,0
83580,note_off,,,,,124,0,3,,,,,8,,,61,0
83580,note_off,,,,,124,0,10,,,,,7,,,61,0
83580,note_off,,,,,124,0,7,,,,,5,,,61,0
83584,note_on,,,,,4,0,8,,,,,6,,,47,92
83584,note_on,,,,,4,0,10,,,,,7,,,59,60
83584,note_on,,,,,4,0,9,,,,,7,,,59,60
83584,note_on,,,,,4,0,7,,,,,5,,,59,92
83584,note_on,,,,,4,0,3,,,,,8,,,59,92
83612,note_off,,,,,284,0,5,,,,,3,,,68,0
83612,note_off,,,,,284,0,1,,,,,0,,,73,0
83612,note_off,,,,,284,0,4,,,,,2,,,73,0
83612,note_off,,,,,284,0,2,,,,,1,,,68,0
83612,note_off,,,,,284,0,6,,,,,4,,,65,0
83616,note_on,,,,,4,0,4,,,,,2,,,77,108
83616,note_on,,,,,4,0,6,,,,,4,,,68,92
83616,note_on,,,,,4,0,1,,,,,0,,,77,90
83616,note_on,,,,,4,0,5,,,,,3,,,73,108
83616,note_on,,,,,4,0,2,,,,,1,,,73,90
83708,note_off,,,,,92,0,4,,,,,2,,,77,0
83708,note_off,,,,,124,0,3,,,,,8,,,59,0
83708,note_off,,,,,124,0,8,,,,,6,,,47,0
83708,note_off,,,,,92,0,6,,,,,4,,,68,0
83708,note_off,,,,,92,0,1,,,,,0,,,77,0
83708,note_off,,,,,124,0,10,,,,,7,,,59,0
83708,note_off,,,,,92,0,5,,,,,3,,,73,0
83708,note_off,,,,,124,0,9,,,,,7,,,59,0
83708,note_off,,,,,124,0,7,,,,,5,,,59,0
83708,note_off,,,,,92,0,2,,,,,1,,,73,0
83712,note_on,,,,,4,0,2,,,,,1,,,73,90
83712,note_on,,,,,4,0,4,,,,,2,,,78,108
83712,note_on,,,,,4,0,1,,,,,0,,,78,90
83712,note_on,,,,,4,0,9,,,,,7,,,58,60
83712,note_on,,,,,4,0,6,,,,,4,,,70,92
83712,note_on,,,,,4,0,8,,,,,6,,,46,92
83712,note_on,,,,,4,0,5,,,,,3,,,73,108
83712,note_on,,,,,4,0,3,,,,,8,,,58,92
83712,note_on,,,,,4,0,7,,,,,5,,,58,92
83712,note_on,,,,,0,0,10,,,,,7,,,66,60
83712,note_on,,,,,4,0,10,,,,,7,,,58,60
83836,note_off,,,,,124,0,1,,,,,0,,,78,0
83836,note_off,,,,,124,0,4,,,,,2,,,78,0
83840,note_on,,,,,4,0,4,,,,,2,,,80,108
83840,note_on,,,,,4,0,1,,,,,0,,,80,90
83964,note_off,,,,,124,0,4,,,,,2,,,80,0
83964,note_off,,,,,124,0,1,,,,,0,,,80,0
83968,note_on,,,,,4,0,1,,,,,0,,,78,90
83968,note_on,,,,,4,0,4,,,,,2,,,78,108
84032,note_off,,,,,320,0,6,,,,,4,,,70,0
84032,note_off,,,,,320,0,3,,,,,8,,,58,0
84032,note_off,,,,,0,0,10,,,,,7,,,66,0
84032,note_off,,,,,320,0,2,,,,,1,,,73,0
84032,note_off,,,,,320,0,9,,,,,7,,,58,0
84032,note_off,,,,,320,0,5,,,,,3,,,73,0
84032,note_off,,,,,320,0,10,,,,,7,,,58,0
84032,note_off,,,,,320,0,7,,,,,5,,,58,0
84032,note_off,,,,,320,0,8,,,,,6,,,46,0
84092,note_off,,,,,124,0,4,,,,,2,,,78,0
84092,note_off,,,,,124,0,1,,,,,0,,,78,0
84096,note_on,,,,,4,0,1,,,,,0,,,70,90
84096,note_on,,,,,4,0,4,,,,,2,,,70,108
84380,note_off,,,,,284,0,1,,,,,0,,,70,0
84380,note_off,,,,,284,0,4,,,,,2,,,70,0
84384,note_on,,,,,4,0,1,,,,,0,,,73,90
84384,note_on,,,,,4,0,4,,,,,2,,,73,108
84476,note_off,,,,,92,0,4,,,,,2,,,73,0
84476,note_off,,,,,92,0,1,,,,,0,,,73,0
84480,note_on,,,,,4,0,4,,,,,2,,,66,108
84480,note_on,,,,,448,0,5,,,,,3,,,71,108
84480,note_on,,,,,448,0,9,,,,,7,,,62,60
84480,note_on,,,,,0,0,10,,,,,7,,,71,60
84480,note_on,,,,,448,0,10,,,,,7,,,62,60
84480,note_on,,,,,448,0,7,,,,,5,,,62,92
84480,note_on,,,,,448,0,3,,,,,8,,,62,92
84480,note_on,,,,,448,0,2,,,,,1,,,71,90
84480,note_on,,,,,4,0,1,,,,,0,,,66,90
84480,note_on,,,,,448,0,8,,,,,6,,,50,92
84480,note_on,,,,,448,0,6,,,,,4,,,71,92
84604,note_off,,,,,124,0,1,,,,,0,,,66,0
84604,note_off,,,,,0,0,10,,,,,7,,,71,0
84604,note_off,,,,,124,0,8,,,,,6,,,50,0
84604,note_off,,,,,124,0,3,,,,,8,,,62,0
84604,note_off,,,,,124,0,7,,,,,5,,,62,0
84604,note_off,,,,,124,0,10,,,,,7,,,62,0
84604,note_off,,,,,124,0,9,,,,,7,,,62,0
84604,note_off,,,,,124,0,4,,,,,2,,,66,0
84608,note_on,,,,,4,0,7,,,,,5,,,64,92
84608,note_on,,,,,4,0,4,,,,,2,,,67,108
84608,note_on,,,,,4,0,8,,,,,6,,,52,92
84608,note_on,,,,,4,0,10,,,,,7,,,64,60
84608,note_on,,,,,4,0,1,,,,,0,,,67,90
84608,note_on,,,,,4,0,9,,,,,7,,,64,60
84608,note_on,,,,,4,0,3,,,,,8,,,64,92
84732,note_off,,,,,124,0,8,,,,,6,,,52,0
84732,note_off,,,,,124,0,4,,,,,2,,,67,0
84732,note_off,,,,,124,0,9,,,,,7,,,64,0
84732,note_off,,,,,124,0,1,,,,,0,,,67,0
84732,note_off,,,,,124,0,3,,,,,8,,,64,0
84732,note_off,,,,,124,0,10,,,,,7,,,64,0
84732,note_off,,,,,124,0,7,,,,,5,,,64,0
84736,note_on,,,,,4,0,10,,,,,7,,,62,60
84736,note_on,,,,,4,0,7,,,,,5,,,62,92
84736,note_on,,,,,4,0,1,,,,,0,,,66,90
84736,note_on,,,,,4,0,8,,,,,6,,,50,92
84736,note_on,,,,,4,0,4,,,,,2,,,66,108
84736,note_on,,,,,4,0,9,,,,,7,,,62,60
84736,note_on,,,,,4,0,3,,,,,8,,,62,92
84764,note_off,,,,,284,0,2,,,,,1,,,71,0
84764,note_off,,,,,284,0,5,,,,,3,,,71,0
84764,note_off,,,,,284,0,6,,,,,4,,,71,0
84768,note_on,,,,,4,0,5,,,,,3,,,71,108
84768,note_on,,,,,4,0,2,,,,,1,,,71,90
84768,note_on,,,,,4,0,6,,,,,4,,,71,92
84860,note_off,,,,,124,0,9,,,,,7,,,62,0
84860,note_off,,,,,92,0,5,,,,,3,,,71,0
84860,note_off,,,,,92,0,6,,,,,4,,,71,0
84860,note_off,,,,,124,0,10,,,,,7,,,62,0
84860,note_off,,,,,124,0,1,,,,,0,,,66,0
84860,note_off,,,,,92,0,2,,,,,1,,,71,0
84860,note_off,,,,,124,0,3,,,,,8,,,62,0
84860,note_off,,,,,124,0,8,,,,,6,,,50,0
84860,note_off,,,,,124,0,7,,,,,5,,,62,0
84860,note_off,,,,,124,0,4,,,,,2,,,66,0
84864,note_on,,,,,4,0,6,,,,,4,,,70,92
84864,note_on,,,,,4,0,1,,,,,0,,,64,90
84864,note_on,,,,,4,0,7,,,,,5,,,61,92
84864,note_on,,,,,4,0,10,,,,,7,,,61,60
84864,note_on,,,,,0,0,10,,,,,7,,,64,60
84864,note_on,,,,,0,0,10,,,,,7,,,69,60
84864,note_on,,,,,4,0,4,,,,,2,,,64,108
84864,note_on,,,,,4,0,2,,,,,1,,,73,90
84864,note_on,,,,,4,0,3,,,,,8,,,61,92
84864,note_on,,,,,4,0,9,,,,,7,,,61,60
84864,note_on,,,,,4,0,8,,,,,6,,,49,92
84864,note_on,,,,,4,0,5,,,,,3,,,73,108
84988,note_off,,,,,124,0,7,,,,,5,,,61,0
84988,note_off,,,,,124,0,1,,,,,0,,,64,0
84988,note_off,,,,,124,0,9,,,,,7,,,61,0
84988,note_off,,,,,124,0,8,,,,,6,,,49,0
84988,note_off,,,,,124,0,10,,,,,7,,,61,0
84988,note_off,,,,,0,0,10,,,,,7,,,69,0
84988,note_off,,,,,0,0,10,,,,,7,,,64,0
84988,note_off,,,,,124,0,3,,,,,8,,,61,0
84988,note_off,,,,,124,0,4,,,,,2,,,64,0
84992,note_on,,,,,4,0,8,,,,,6,,,50,92
84992,note_on,,,,,4,0,1,,,,,0,,,66,90
84992,note_on,,,,,4,0,4,,,,,2,,,66,108
84992,note_on,,,,,4,0,9,,,,,7,,,62,60
84992,note_on,,,,,4,0,7,,,,,5,,,62,92
84992,note_on,,,,,4,0,10,,,,,7,,,62,60
84992,note_on,,,,,4,0,3,,,,,8,,,62,92
85116,note_off,,,,,124,0,3,,,,,8,,,62,0
85116,note_off,,,,,124,0,9,,,,,7,,,62,0
85116,note_off,,,,,124,0,1,,,,,0,,,66,0
85116,note_off,,,,,124,0,8,,,,,6,,,50,0
85116,note_off,,,,,124,0,4,,,,,2,,,66,0
85116,note_off,,,,,124,0,7,,,,,5,,,62,0
85116,note_off,,,,,124,0,10,,,,,7,,,62,0
85120,note_on,,,,,4,0,8,,,,,6,,,49,92
85120,note_on,,,,,4,0,3,,,,,8,,,61,92
85120,note_on,,,,,4,0,10,,,,,7,,,61,60
85120,note_on,,,,,4,0,1,,,,,0,,,64,90
85120,note_on,,,,,4,0,4,,,,,2,,,64,108
85120,note_on,,,,,4,0,7,,,,,5,,,61,92
85120,note_on,,,,,4,0,9,,,,,7,,,61,60
85148,note_off,,,,,284,0,5,,,,,3,,,73,0
85148,note_off,,,,,284,0,6,,,,,4,,,70,0
85148,note_off,,,,,284,0,2,,,,,1,,,73,0
85152,note_on,,,,,4,0,6,,,,,4,,,70,92
85152,note_on,,,,,4,0,5,,,,,3,,,73,108
85152,note_on,,,,,4,0,2,,,,,1,,,73,90
85244,note_off,,,,,124,0,10,,,,,7,,,61,0
85244,note_off,,,,,124,0,4,,,,,2,,,64,0
85244,note_off,,,,,124,0,3,,,,,8,,,61,0
85244,note_off,,,,,124,0,7,,,,,5,,,61,0
85244,note_off,,,,,124,0,9,,,,,7,,,61,0
85244,note_off,,,,,124,0,8,,,,,6,,,49,0
85244,note_off,,,,,124,0,1,,,,,0,,,64,0
85244,note_off,,,,,92,0,6,,,,,4,,,70,0
85244,note_off,,,,,92,0,2,,,,,1,,,73,0
85244,note_off,,,,,92,0,5,,,,,3,,,73,0
85248,note_on,,,,,4,0,10,,,,,7,,,59,60
85248,note_on,,,,,4,0,4,,,,,2,,,62,108
85248,note_on,,,,,4,0,6,,,,,4,,,66,92
85248,note_on,,,,,4,0,5,,,,,3,,,74,108
85248,note_on,,,,,4,0,3,,,,,8,,,59,92
85248,note_on,,,,,4,0,8,,,,,6,,,47,92
85248,note_on,,,,,4,0,1,,,,,0,,,62,90
85248,note_on,,,,,4,0,2,,,,,1,,,74,90
85248,note_on,,,,,4,0,9,,,,,7,,,59,60
85248,note_on,,,,,4,0,7,,,,,5,,,59,92
85532,note_off,,,,,284,0,2,,,,,1,,,74,0
85532,note_off,,,,,284,0,5,,,,,3,,,74,0
85536,note_on,,,,,4,0,5,,,,,3,,,78,108
85536,note_on,,,,,4,0,2,,,,,1,,,78,90
85568,note_off,,,,,320,0,1,,,,,0,,,62,0
85568,note_off,,,,,320,0,4,,,,,2,,,62,0
85628,note_off,,,,,92,0,2,,,,,1,,,78,0
85628,note_off,,,,,92,0,5,,,,,3,,,78,0
85632,note_on,,,,,4,0,5,,,,,3,,,71,108
85632,note_on,,,,,4,0,2,,,,,1,,,71,90
85760,note_off,,,,,512,0,9,,,,,7,,,59,0
85760,note_off,,,,,512,0,3,,,,,8,,,59,0
85760,note_off,,,,,512,0,6,,,,,4,,,66,0
85760,note_off,,,,,512,0,10,,,,,7,,,59,0
85760,note_off,,,,,512,0,8,,,,,6,,,47,0
85760,note_off,,,,,512,0,7,,,,,5,,,59,0
85916,note_off,,,,,284,0,5,,,,,3,,,71,0
85916,note_off,,,,,284,0,2,,,,,1,,,71,0
85920,note_on,,,,,160,0,10,,,,,7,,,59,60
85920,note_on,,,,,160,0,6,,,,,4,,,66,92
85920,note_on,,,,,160,0,9,,,,,7,,,59,60
85920,note_on,,,,,160,0,3,,,,,8,,,59,92
85920,note_on,,,,,4,0,5,,,,,3,,,71,108
85920,note_on,,,,,4,0,2,,,,,1,,,71,90
85920,note_on,,,,,160,0,7,,,,,5,,,59,92
85920,note_on,,,,,160,0,8,,,,,6,,,47,92
86012,note_off,,,,,92,0,7,,,,,5,,,59,0
86012,note_off,,,,,92,0,6,,,,,4,,,66,0
86012,note_off,,,,,92,0,10,,,,,7,,,59,0
86012,note_off,,,,,92,0,9,,,,,7,,,59,0
86012,note_off,,,,,92,0,8,,,,,6,,,47,0
86012,note_off,,,,,92,0,2,,,,,1,,,71,0
86012,note_off,,,,,92,0,5,,,,,3,,,71,0
86012,note_off,,,,,92,0,3,,,,,8,,,59,0
86016,note_on,,,,,4,0,10,,,,,7,,,57,60
86016,note_on,,,,,448,0,4,,,,,2,,,66,108
86016,note_on,,,,,4,0,9,,,,,7,,,57,60
86016,note_on,,,,,4,0,7,,,,,5,,,57,92
86016,note_on,,,,,4,0,5,,,,,3,,,73,108
86016,note_on,,,,,4,0,2,,,,,1,,,73,90
86016,note_on,,,,,4,0,8,,,,,6,,,45,92
86016,note_on,,,,,0,0,10,,,,,7,,,66,60
86016,note_on,,,,,4,0,6,,,,,4,,,69,92
86016,note_on,,,,,448,0,1,,,,,0,,,66,90
86016,note_on,,,,,4,0,3,,,,,8,,,57,92
86140,note_off,,,,,124,0,1,,,,,0,,,66,0
86140,note_off,,,,,124,0,9,,,,,7,,,57,0
86140,note_off,,,,,124,0,3,,,,,8,,,57,0
86140,note_off,,,,,0,0,10,,,,,7,,,66,0
86140,note_off,,,,,124,0,4,,,,,2,,,66,0
86140,note_off,,,,,124,0,10,,,,,7,,,57,0
86140,note_off,,,,,124,0,8,,,,,6,,,45,0
86140,note_off,,,,,124,0,7,,,,,5,,,57,0
86144,note_on,,,,,4,0,8,,,,,6,,,47,92
86144,note_on,,,,,4,0,1,,,,,0,,,67,90
86144,note_on,,,,,4,0,9,,,,,7,,,59,60
86144,note_on,,,,,4,0,7,,,,,5,,,59,92
86144,note_on,,,,,4,0,3,,,,,8,,,59,92
86144,note_on,,,,,4,0,10,,,,,7,,,59,60
86144,note_on,,,,,4,0,4,,,,,2,,,67,108
86268,note_off,,,,,124,0,1,,,,,0,,,67,0
86268,note_off,,,,,124,0,9,,,,,7,,,59,0
86268,note_off,,,,,124,0,10,,,,,7,,,59,0
86268,note_off,,,,,124,0,4,,,,,2,,,67,0
86268,note_off,,,,,124,0,3,,,,,8,,,59,0
86268,note_off,,,,,124,0,7,,,,,5,,,59,0
86268,note_off,,,,,124,0,8,,,,,6,,,47,0
86272,note_on,,,,,4,0,1,,,,,0,,,66,90
86272,note_on,,,,,4,0,3,,,,,8,,,57,92
86272,note_on,,,,,4,0,4,,,,,2,,,66,108
86272,note_on,,,,,4,0,10,,,,,7,,,57,60
86272,note_on,,,,,4,0,9,,,,,7,,,57,60
86272,note_on,,,,,4,0,7,,,,,5,,,57,92
86272,note_on,,,,,4,0,8,,,,,6,,,45,92
86300,note_off,,,,,284,0,6,,,,,4,,,69,0
86300,note_off,,,,,284,0,2,,,,,1,,,73,0
86300,note_off,,,,,284,0,5,,,,,3,,,73,0
86304,note_on,,,,,4,0,5,,,,,3,,,73,108
86304,note_on,,,,,4,0,6,,,,,4,,,69,92
86304,note_on,,,,,4,0,2,,,,,1,,,73,90
86396,note_off,,,,,92,0,2,,,,,1,,,73,0
86396,note_off,,,,,92,0,5,,,,,3,,,73,0
86396,note_off,,,,,92,0,6,,,,,4,,,69,0
86396,note_off,,,,,124,0,4,,,,,2,,,66,0
86396,note_off,,,,,124,0,9,,,,,7,,,57,0
86396,note_off,,,,,124,0,1,,,,,0,,,66,0
86396,note_off,,,,,124,0,8,,,,,6,,,45,0
86396,note_off,,,,,124,0,3,,,,,8,,,57,0
86396,note_off,,,,,124,0,10,,,,,7,,,57,0
86396,note_off,,,,,124,0,7,,,,,5,,,57,0
86400,note_on,,,,,4,0,5,,,,,3,,,75,108
86400,note_on,,,,,4,0,6,,,,,4,,,63,92
86400,note_on,,,,,4,0,2,,,,,1,,,75,90
86400,note_on,,,,,4,0,10,,,,,7,,,60,60
86400,note_on,,,,,4,0,1,,,,,0,,,66,90
86400,note_on,,,,,4,0,7,,,,,5,,,59,92
86400,note_on,,,,,4,0,3,,,,,8,,,59,92
86400,note_on,,,,,4,0,9,,,,,7,,,59,60
86400,note_on,,,,,4,0,8,,,,,6,,,47,92
86400,note_on,,,,,4,0,4,,,,,2,,,66,108
86684,note_off,,,,,284,0,7,,,,,5,,,59,0
86684,note_off,,,,,284,0,3,,,,,8,,,59,0
86684,note_off,,,,,284,0,5,,,,,3,,,75,0
86684,note_off,,,,,284,0,4,,,,,2,,,66,0
86684,note_off,,,,,284,0,9,,,,,7,,,59,0
86684,note_off,,,,,284,0,10,,,,,7,,,60,0
86684,note_off,,,,,284,0,1,,,,,0,,,66,0
86684,note_off,,,,,284,0,6,,,,,4,,,63,0
86684,note_off,,,,,284,0,8,,,,,6,,,47,0
86684,note_off,,,,,284,0,2,,,,,1,,,75,0
86688,note_on,,,,,4,0,2,,,,,1,,,75,90
86688,note_on,,,,,4,0,7,,,,,5,,,54,92
86688,note_on,,,,,4,0,6,,,,,4,,,69,92
86688,note_on,,,,,4,0,8,,,,,6,,,42,92
86688,note_on,,,,,4,0,10,,,,,7,,,54,60
86688,note_on,,,,,4,0,5,,,,,3,,,75,108
86688,note_on,,,,,4,0,3,,,,,8,,,54,92
86688,note_on,,,,,4,0,4,,,,,2,,,66,108
86688,note_on,,,,,4,0,1,,,,,0,,,66,90
86688,note_on,,,,,4,0,9,,,,,7,,,54,60
86780,note_off,,,,,92,0,4,,,,,2,,,66,0
86780,note_off,,,,,92,0,2,,,,,1,,,75,0
86780,note_off,,,,,92,0,3,,,,,8,,,54,0
86780,note_off,,,,,92,0,7,,,,,5,,,54,0
86780,note_off,,,,,92,0,5,,,,,3,,,75,0
86780,note_off,,,,,92,0,6,,,,,4,,,69,0
86780,note_off,,,,,92,0,1,,,,,0,,,66,0
86780,note_off,,,,,92,0,9,,,,,7,,,54,0
86780,note_off,,,,,92,0,8,,,,,6,,,42,0
86780,note_off,,,,,92,0,10,,,,,7,,,54,0
86784,note_on,,,,,4,0,9,,,,,7,,,55,60
86784,note_on,,,,,4,0,2,,,,,1,,,76,90
86784,note_on,,,,,4,0,1,,,,,0,,,71,90
86784,note_on,,,,,4,0,8,,,,,6,,,43,92
86784,note_on,,,,,4,0,5,,,,,3,,,76,108
86784,note_on,,,,,4,0,4,,,,,2,,,71,108
86784,note_on,,,,,0,0,10,,,,,7,,,64,60
86784,note_on,,,,,4,0,3,,,,,8,,,55,92
86784,note_on,,,,,4,0,6,,,,,4,,,67,92
86784,note_on,,,,,4,0,10,,,,,7,,,55,60
86784,note_on,,,,,4,0,7,,,,,5,,,55,92
87068,note_off,,,,,284,0,2,,,,,1,,,76,0
87068,note_off,,,,,284,0,5,,,,,3,,,76,0
87072,note_on,,,,,4,0,2,,,,,1,,,79,90
87072,note_on,,,,,4,0,5,,,,,3,,,79,108
87164,note_off,,,,,92,0,2,,,,,1,,,79,0
87164,note_off,,,,,92,0,5,,,,,3,,,79,0
87168,note_on,,,,,4,0,5,,,,,3,,,73,108
87168,note_on,,,,,4,0,2,,,,,1,,,73,90
87296,note_off,,,,,512,0,6,,,,,4,,,67,0
87296,note_off,,,,,512,0,9,,,,,7,,,55,0
87296,note_off,,,,,512,0,1,,,,,0,,,71,0
87296,note_off,,,,,512,0,7,,,,,5,,,55,0
87296,note_off,,,,,512,0,3,,,,,8,,,55,0
87296,note_off,,,,,512,0,4,,,,,2,,,71,0
87296,note_off,,,,,512,0,10,,,,,7,,,55,0
87296,note_off,,,,,512,0,8,,,,,6,,,43,0
87296,note_off,,,,,0,0,10,,,,,7,,,64,0
87452,note_off,,,,,284,0,2,,,,,1,,,73,0
87452,note_off,,,,,284,0,5,,,,,3,,,73,0
87456,note_on,,,,,0,0,10,,,,,7,,,64,60
87456,note_on,,,,,160,0,10,,,,,7,,,55,60
87456,note_on,,,,,160,0,3,,,,,8,,,55,92
87456,note_on,,,,,160,0,1,,,,,0,,,76,90
87456,note_on,,,,,160,0,7,,,,,5,,,55,92
87456,note_on,,,,,160,0,8,,,,,6,,,43,92
87456,note_on,,,,,160,0,6,,,,,4,,,71,92
87456,note_on,,,,,160,0,9,,,,,7,,,55,60
87456,note_on,,,,,160,0,4,,,,,2,,,76,108
87456,note_on,,,,,4,0,5,,,,,3,,,76,108
87456,note_on,,,,,4,0,2,,,,,1,,,76,90
87548,note_off,,,,,92,0,6,,,,,4,,,71,0
87548,note_off,,,,,92,0,9,,,,,7,,,55,0
87548,note_off,,,,,92,0,2,,,,,1,,,76,0
87548,note_off,,,,,92,0,1,,,,,0,,,76,0
87548,note_off,,,,,92,0,5,,,,,3,,,76,0
87548,note_off,,,,,92,0,8,,,,,6,,,43,0
87548,note_off,,,,,92,0,7,,,,,5,,,55,0
87548,note_off,,,,,92,0,4,,,,,2,,,76,0
87548,note_off,,,,,0,0,10,,,,,7,,,64,0
87548,note_off,,,,,92,0,10,,,,,7,,,55,0
87548,note_off,,,,,92,0,3,,,,,8,,,55,0
87552,note_on,,,,,4,0,5,,,,,3,,,66,108
87552,note_on,,,,,4,0,3,,,,,8,,,54,92
87552,note_on,,,,,4,0,6,,,,,4,,,61,92
87552,note_on,,,,,4,0,7,,,,,5,,,54,92
87552,note_on,,,,,4,0,4,,,,,2,,,83,108
87552,note_on,,,,,4,0,8,,,,,6,,,42,92
87552,note_on,,,,,4,0,9,,,,,7,,,54,60
87552,note_on,,,,,4,0,10,,,,,7,,,54,60
87552,note_on,,,,,4,0,2,,,,,1,,,66,90
87552,note_on,,,,,4,0,1,,,,,0,,,83,90
87596,note_off,,,,,44,0,1,,,,,0,,,83,0
87596,note_off,,,,,44,0,4,,,,,2,,,83,0
87600,note_on,,,,,4,0,1,,,,,0,,,82,90
87600,note_on,,,,,4,0,4,,,,,2,,,82,108
87644,note_off,,,,,44,0,1,,,,,0,,,82,0
87644,note_off,,,,,44,0,4,,,,,2,,,82,0
87648,note_on,,,,,4,0,1,,,,,0,,,83,90
87648,note_on,,,,,4,0,4,,,,,2,,,83,108
87676,note_off,,,,,124,0,10,,,,,7,,,54,0
87676,note_off,,,,,124,0,9,,,,,7,,,54,0
87676,note_off,,,,,124,0,7,,,,,5,,,54,0
87676,note_off,,,,,124,0,3,,,,,8,,,54,0
87676,note_off,,,,,124,0,8,,,,,6,,,42,0
87680,note_on,,,,,4,0,8,,,,,6,,,43,92
87680,note_on,,,,,4,0,3,,,,,8,,,55,92
87680,note_on,,,,,4,0,7,,,,,5,,,55,92
87680,note_on,,,,,4,0,10,,,,,7,,,55,60
87680,note_on,,,,,4,0,9,,,,,7,,,55,60
87692,note_off,,,,,44,0,1,,,,,0,,,83,0
87692,note_off,,,,,44,0,4,,,,,2,,,83,0
87696,note_on,,,,,4,0,4,,,,,2,,,82,108
87696,note_on,,,,,4,0,1,,,,,0,,,82,90
87740,note_off,,,,,44,0,1,,,,,0,,,82,0
87740,note_off,,,,,44,0,4,,,,,2,,,82,0
87744,note_on,,,,,4,0,1,,,,,0,,,83,90
87744,note_on,,,,,4,0,4,,,,,2,,,83,108
87788,note_off,,,,,44,0,4,,,,,2,,,83,0
87788,note_off,,,,,44,0,1,,,,,0,,,83,0
87792,note_on,,,,,4,0,1,,,,,0,,,82,90
87792,note_on,,,,,4,0,4,,,,,2,,,82,108
87804,note_off,,,,,124,0,3,,,,,8,,,55,0
87804,note_off,,,,,124,0,7,,,,,5,,,55,0
87804,note_off,,,,,124,0,8,,,,,6,,,43,0
87804,note_off,,,,,124,0,9,,,,,7,,,55,0
87804,note_off,,,,,124,0,10,,,,,7,,,55,0
87808,note_on,,,,,4,0,7,,,,,5,,,54,92
87808,note_on,,,,,4,0,8,,,,,6,,,42,92
87808,note_on,,,,,4,0,9,,,,,7,,,54,60
87808,note_on,,,,,4,0,10,,,,,7,,,54,60
87808,note_on,,,,,4,0,3,,,,,8,,,54,92
87836,note_off,,,,,284,0,2,,,,,1,,,66,0
87836,note_off,,,,,284,0,5,,,,,3,,,66,0
87836,note_off,,,,,284,0,6,,,,,4,,,61,0
87840,note_on,,,,,4,0,2,,,,,1,,,78,90
87840,note_on,,,,,4,0,5,,,,,3,,,78,108
87840,note_on,,,,,4,0,6,,,,,4,,,61,92
87932,note_off,,,,,124,0,8,,,,,6,,,42,0
87932,note_off,,,,,92,0,6,,,,,4,,,61,0
87932,note_off,,,,,140,0,4,,,,,2,,,82,0
87932,note_off,,,,,124,0,7,,,,,5,,,54,0
87932,note_off,,,,,124,0,10,,,,,7,,,54,0
87932,note_off,,,,,92,0,5,,,,,3,,,78,0
87932,note_off,,,,,124,0,9,,,,,7,,,54,0
87932,note_off,,,,,140,0,1,,,,,0,,,82,0
87932,note_off,,,,,124,0,3,,,,,8,,,54,0
87932,note_off,,,,,92,0,2,,,,,1,,,78,0
87936,note_on,,,,,0,0,10,,,,,7,,,54,60
87936,note_on,,,,,0,0,10,,,,,7,,,57,60
87936,note_on,,,,,4,0,1,,,,,0,,,82,90
87936,note_on,,,,,4,0,10,,,,,7,,,52,60
87936,note_on,,,,,4,0,5,,,,,3,,,73,108
87936,note_on,,,,,4,0,8,,,,,6,,,40,92
87936,note_on,,,,,4,0,2,,,,,1,,,73,90
87936,note_on,,,,,4,0,9,,,,,7,,,52,60
87936,note_on,,,,,4,0,3,,,,,8,,,52,92
87936,note_on,,,,,4,0,6,,,,,4,,,66,92
87936,note_on,,,,,4,0,4,,,,,2,,,82,108
87936,note_on,,,,,4,0,7,,,,,5,,,52,92
88060,note_off,,,,,124,0,10,,,,,7,,,52,0
88060,note_off,,,,,124,0,9,,,,,7,,,52,0
88060,note_off,,,,,124,0,3,,,,,8,,,52,0
88060,note_off,,,,,124,0,7,,,,,5,,,52,0
88060,note_off,,,,,124,0,8,,,,,6,,,40,0
88060,note_off,,,,,0,0,10,,,,,7,,,57,0
88060,note_off,,,,,0,0,10,,,,,7,,,54,0
88064,note_on,,,,,4,0,3,,,,,8,,,54,92
88064,note_on,,,,,4,0,10,,,,,7,,,54,60
88064,note_on,,,,,4,0,9,,,,,7,,,54,60
88064,note_on,,,,,4,0,7,,,,,5,,,54,92
88064,note_on,,,,,4,0,8,,,,,6,,,42,92
88124,note_off,,,,,188,0,4,,,,,2,,,82,0
88124,note_off,,,,,188,0,1,,,,,0,,,82,0
88128,note_on,,,,,4,0,1,,,,,0,,,83,90
88128,note_on,,,,,4,0,4,,,,,2,,,83,108
88188,note_off,,,,,124,0,7,,,,,5,,,54,0
88188,note_off,,,,,124,0,8,,,,,6,,,42,0
88188,note_off,,,,,124,0,3,,,,,8,,,54,0
88188,note_off,,,,,124,0,9,,,,,7,,,54,0
88188,note_off,,,,,124,0,10,,,,,7,,,54,0
88192,note_on,,,,,4,0,9,,,,,7,,,52,60
88192,note_on,,,,,4,0,8,,,,,6,,,40,92
88192,note_on,,,,,4,0,7,,,,,5,,,52,92
88192,note_on,,,,,4,0,3,,,,,8,,,52,92
88192,note_on,,,,,4,0,10,,,,,7,,,52,60
88220,note_off,,,,,92,0,4,,,,,2,,,83,0
88220,note_off,,,,,284,0,6,,,,,4,,,66,0
88220,note_off,,,,,92,0,1,,,,,0,,,83,0
88220,note_off,,,,,284,0,5,,,,,3,,,73,0
88220,note_off,,,,,284,0,2,,,,,1,,,73,0
88224,note_on,,,,,4,0,4,,,,,2,,,82,108
88224,note_on,,,,,4,0,2,,,,,1,,,73,90
88224,note_on,,,,,4,0,1,,,,,0,,,82,90
88224,note_on,,,,,4,0,5,,,,,3,,,73,108
88224,note_on,,,,,4,0,6,,,,,4,,,66,92
88316,note_off,,,,,124,0,10,,,,,7,,,52,0
88316,note_off,,,,,124,0,3,,,,,8,,,52,0
88316,note_off,,,,,124,0,9,,,,,7,,,52,0
88316,note_off,,,,,92,0,4,,,,,2,,,82,0
88316,note_off,,,,,124,0,7,,,,,5,,,52,0
88316,note_off,,,,,92,0,2,,,,,1,,,73,0
88316,note_off,,,,,92,0,5,,,,,3,,,73,0
88316,note_off,,,,,124,0,8,,,,,6,,,40,0
88316,note_off,,,,,92,0,1,,,,,0,,,82,0
88316,note_off,,,,,92,0,6,,,,,4,,,66,0
88320,note_on,,,,,4,0,7,,,,,5,,,50,92
88320,note_on,,,,,4,0,10,,,,,7,,,50,60
88320,note_on,,,,,4,0,2,,,,,1,,,66,90
88320,note_on,,,,,4,0,5,,,,,3,,,66,108
88320,note_on,,,,,4,0,8,,,,,6,,,38,92
88320,note_on,,,,,4,0,1,,,,,0,,,83,90
88320,note_on,,,,,4,0,4,,,,,2,,,83,108
88320,note_on,,,,,0,0,10,,,,,7,,,59,60
88320,note_on,,,,,4,0,9,,,,,7,,,50,60
88320,note_on,,,,,4,0,3,,,,,8,,,50,92
88320,note_on,,,,,4,0,6,,,,,4,,,71,92
88604,note_off,,,,,284,0,1,,,,,0,,,83,0
88604,note_off,,,,,284,0,4,,,,,2,,,83,0
88608,note_on,,,,,4,0,1,,,,,0,,,78,90
88608,note_on,,,,,4,0,4,,,,,2,,,78,108
88700,note_off,,,,,92,0,1,,,,,0,,,78,0
88700,note_off,,,,,92,0,4,,,,,2,,,78,0
88704,note_on,,,,,4,0,1,,,,,0,,,83,90
88704,note_on,,,,,4,0,4,,,,,2,,,83,108
88832,note_off,,,,,512,0,10,,,,,7,,,50,0
88832,note_off,,,,,0,0,10,,,,,7,,,59,0
88832,note_off,,,,,512,0,2,,,,,1,,,66,0
88832,note_off,,,,,512,0,9,,,,,7,,,50,0
88832,note_off,,,,,512,0,8,,,,,6,,,38,0
88832,note_off,,,,,512,0,5,,,,,3,,,66,0
88832,note_off,,,,,512,0,7,,,,,5,,,50,0
88832,note_off,,,,,512,0,3,,,,,8,,,50,0
88832,note_off,,,,,512,0,6,,,,,4,,,71,0
88988,note_off,,,,,284,0,1,,,,,0,,,83,0
88988,note_off,,,,,284,0,4,,,,,2,,,83,0
88992,note_on,,,,,4,0,1,,,,,0,,,85,90
88992,note_on,,,,,160,0,3,,,,,8,,,59,92
88992,note_on,,,,,160,0,6,,,,,4,,,71,92
88992,note_on,,,,,160,0,10,,,,,7,,,59,60
88992,note_on,,,,,160,0,2,,,,,1,,,78,90
88992,note_on,,,,,160,0,8,,,,,6,,,47,92
88992,note_on,,,,,160,0,5,,,,,3,,,78,108
88992,note_on,,,,,4,0,4,,,,,2,,,85,108
88992,note_on,,,,,160,0,9,,,,,7,,,59,60
88992,note_on,,,,,160,0,7,,,,,5,,,59,92
89084,note_off,,,,,92,0,6,,,,,4,,,71,0
89084,note_off,,,,,92,0,9,,,,,7,,,59,0
89084,note_off,,,,,92,0,4,,,,,2,,,85,0
89084,note_off,,,,,92,0,2,,,,,1,,,78,0
89084,note_off,,,,,92,0,10,,,,,7,,,59,0
89084,note_off,,,,,92,0,8,,,,,6,,,47,0
89084,note_off,,,,,92,0,5,,,,,3,,,78,0
89084,note_off,,,,,92,0,1,,,,,0,,,85,0
89084,note_off,,,,,92,0,7,,,,,5,,,59,0
89084,note_off,,,,,92,0,3,,,,,8,,,59,0
89088,note_on,,,,,4,0,10,,,,,7,,,58,60
89088,note_on,,,,,0,0,10,,,,,7,,,66,60
89088,note_on,,,,,4,0,3,,,,,8,,,58,92
89088,note_on,,,,,4,0,7,,,,,5,,,58,92
89088,note_on,,,,,4,0,9,,,,,7,,,58,60
89088,note_on,,,,,4,0,5,,,,,3,,,78,108
89088,note_on,,,,,4,0,8,,,,,6,,,46,92
89088,note_on,,,,,4,0,1,,,,,0,,,85,90
89088,note_on,,,,,4,0,6,,,,,4,,,73,92
89088,note_on,,,,,4,0,4,,,,,2,,,85,108
89088,note_on,,,,,4,0,2,,,,,1,,,78,90
89372,note_off,,,,,284,0,8,,,,,6,,,46,0
89372,note_off,,,,,284,0,7,,,,,5,,,58,0
89372,note_off,,,,,284,0,6,,,,,4,,,73,0
89372,note_off,,,,,284,0,9,,,,,7,,,58,0
89372,note_off,,,,,284,0,2,,,,,1,,,78,0
89372,note_off,,,,,284,0,3,,,,,8,,,58,0
89372,note_off,,,,,284,0,10,,,,,7,,,58,0
89372,note_off,,,,,0,0,10,,,,,7,,,66,0
89372,note_off,,,,,284,0,5,,,,,3,,,78,0
89376,note_on,,,,,4,0,6,,,,,4,,,73,92
89376,note_on,,,,,4,0,2,,,,,1,,,76,90
89376,note_on,,,,,4,0,3,,,,,8,,,61,92
89376,note_on,,,,,4,0,8,,,,,6,,,49,92
89376,note_on,,,,,4,0,7,,,,,5,,,61,92
89376,note_on,,,,,4,0,9,,,,,7,,,61,60
89376,note_on,,,,,4,0,5,,,,,3,,,76,108
89376,note_on,,,,,4,0,10,,,,,7,,,61,60
89468,note_off,,,,,92,0,5,,,,,3,,,76,0
89468,note_off,,,,,92,0,8,,,,,6,,,49,0
89468,note_off,,,,,92,0,6,,,,,4,,,73,0
89468,note_off,,,,,92,0,2,,,,,1,,,76,0
89468,note_off,,,,,92,0,7,,,,,5,,,61,0
89468,note_off,,,,,92,0,3,,,,,8,,,61,0
89468,note_off,,,,,92,0,9,,,,,7,,,61,0
89468,note_off,,,,,92,0,10,,,,,7,,,61,0
89472,note_on,,,,,4,0,9,,,,,7,,,54,60
89472,note_on,,,,,4,0,7,,,,,5,,,54,92
89472,note_on,,,,,4,0,8,,,,,6,,,42,92
89472,note_on,,,,,4,0,2,,,,,1,,,78,90
89472,note_on,,,,,4,0,5,,,,,3,,,78,108
89472,note_on,,,,,4,0,3,,,,,8,,,54,92
89472,note_on,,,,,4,0,6,,,,,4,,,70,92
89472,note_on,,,,,4,0,10,,,,,7,,,54,60
89600,note_off,,,,,512,0,4,,,,,2,,,85,0
89600,note_off,,,,,512,0,1,,,,,0,,,85,0
89664,note_on,,,,,64,0,4,,,,,2,,,86,108
89664,note_on,,,,,64,0,1,,,,,0,,,86,90
89756,note_off,,,,,284,0,8,,,,,6,,,42,0
89756,note_off,,,,,92,0,1,,,,,0,,,86,0
89756,note_off,,,,,284,0,5,,,,,3,,,78,0
89756,note_off,,,,,284,0,10,,,,,7,,,54,0
89756,note_off,,,,,284,0,6,,,,,4,,,70,0
89756,note_off,,,,,92,0,4,,,,,2,,,86,0
89756,note_off,,,,,284,0,3,,,,,8,,,54,0
89756,note_off,,,,,284,0,9,,,,,7,,,54,0
89756,note_off,,,,,284,0,2,,,,,1,,,78,0
89756,note_off,,,,,284,0,7,,,,,5,,,54,0
89760,note_on,,,,,4,0,1,,,,,0,,,85,90
89760,note_on,,,,,4,0,5,,,,,3,,,66,108
89760,note_on,,,,,4,0,2,,,,,1,,,66,90
89760,note_on,,,,,4,0,4,,,,,2,,,85,108
89760,note_on,,,,,4,0,9,,,,,7,,,58,60
89760,note_on,,,,,4,0,7,,,,,5,,,58,92
89760,note_on,,,,,4,0,6,,,,,4,,,73,92
89760,note_on,,,,,4,0,8,,,,,6,,,46,92
89760,note_on,,,,,4,0,3,,,,,8,,,58,92
89760,note_on,,,,,4,0,10,,,,,7,,,58,60
89852,note_off,,,,,92,0,5,,,,,3,,,66,0
89852,note_off,,,,,92,0,1,,,,,0,,,85,0
89852,note_off,,,,,92,0,7,,,,,5,,,58,0
89852,note_off,,,,,92,0,3,,,,,8,,,58,0
89852,note_off,,,,,92,0,4,,,,,2,,,85,0
89852,note_off,,,,,92,0,6,,,,,4,,,73,0
89852,note_off,,,,,92,0,2,,,,,1,,,66,0
89852,note_off,,,,,92,0,9,,,,,7,,,58,0
89852,note_off,,,,,92,0,8,,,,,6,,,46,0
89852,note_off,,,,,92,0,10,,,,,7,,,58,0
89856,note_on,,,,,4,0,6,,,,,4,,,71,92
89856,note_on,,,,,4,0,8,,,,,6,,,47,92
89856,note_on,,,,,4,0,4,,,,,2,,,86,108
89856,note_on,,,,,4,0,2,,,,,1,,,66,90
89856,note_on,,,,,4,0,3,,,,,8,,,59,92
89856,note_on,,,,,4,0,10,,,,,7,,,59,60
89856,note_on,,,,,0,0,10,,,,,7,,,66,60
89856,note_on,,,,,4,0,5,,,,,3,,,66,108
89856,note_on,,,,,4,0,1,,,,,0,,,86,90
89856,note_on,,,,,4,0,7,,,,,5,,,59,92
89856,note_on,,,,,4,0,9,,,,,7,,,59,60
90140,note_off,,,,,284,0,1,,,,,0,,,86,0
90140,note_off,,,,,284,0,4,,,,,2,,,86,0
90144,note_on,,,,,4,0,1,,,,,0,,,78,90
90144,note_on,,,,,4,0,4,,,,,2,,,78,108
90176,note_off,,,,,320,0,5,,,,,3,,,66,0
90176,note_off,,,,,0,0,10,,,,,7,,,66,0
90176,note_off,,,,,320,0,10,,,,,7,,,59,0
90176,note_off,,,,,320,0,3,,,,,8,,,59,0
90176,note_off,,,,,320,0,2,,,,,1,,,66,0
90176,note_off,,,,,320,0,8,,,,,6,,,47,0
90176,note_off,,,,,320,0,6,,,,,4,,,71,0
90176,note_off,,,,,320,0,9,,,,,7,,,59,0
90176,note_off,,,,,320,0,7,,,,,5,,,59,0
90236,note_off,,,,,92,0,4,,,,,2,,,78,0
90236,note_off,,,,,92,0,1,,,,,0,,,78,0
90240,note_on,,,,,4,0,1,,,,,0,,,79,90
90240,note_on,,,,,4,0,4,,,,,2,,,79,108
90432,note_on,,,,,256,0,3,,,,,8,,,59,92
90432,note_on,,,,,256,0,5,,,,,3,,,74,108
90432,note_on,,,,,256,0,6,,,,,4,,,71,92
90432,note_on,,,,,256,0,8,,,,,6,,,47,92
90432,note_on,,,,,256,0,9,,,,,7,,,59,60
90432,note_on,,,,,0,0,10,,,,,7,,,67,60
90432,note_on,,,,,256,0,10,,,,,7,,,59,60
90432,note_on,,,,,256,0,7,,,,,5,,,59,92
90432,note_on,,,,,256,0,2,,,,,1,,,74,90
90620,note_off,,,,,188,0,7,,,,,5,,,59,0
90620,note_off,,,,,188,0,5,,,,,3,,,74,0
90620,note_off,,,,,0,0,10,,,,,7,,,67,0
90620,note_off,,,,,188,0,9,,,,,7,,,59,0
90620,note_off,,,,,188,0,8,,,,,6,,,47,0
90620,note_off,,,,,188,0,10,,,,,7,,,59,0
90620,note_off,,,,,188,0,3,,,,,8,,,59,0
90620,note_off,,,,,188,0,2,,,,,1,,,74,0
90620,note_off,,,,,188,0,6,,,,,4,,,71,0
90624,note_on,,,,,4,0,7,,,,,5,,,57,92
90624,note_on,,,,,4,0,8,,,,,6,,,45,92
90624,note_on,,,,,4,0,2,,,,,1,,,73,90
90624,note_on,,,,,4,0,5,,,,,3,,,73,108
90624,note_on,,,,,4,0,6,,,,,4,,,73,92
90624,note_on,,,,,4,0,10,,,,,7,,,57,60
90624,note_on,,,,,0,0,10,,,,,7,,,67,60
90624,note_on,,,,,4,0,9,,,,,7,,,57,60
90624,note_on,,,,,4,0,3,,,,,8,,,57,92
90748,note_off,,,,,124,0,5,,,,,3,,,73,0
90748,note_off,,,,,124,0,9,,,,,7,,,57,0
90748,note_off,,,,,0,0,10,,,,,7,,,67,0
90748,note_off,,,,,124,0,8,,,,,6,,,45,0
90748,note_off,,,,,124,0,3,,,,,8,,,57,0
90748,note_off,,,,,124,0,7,,,,,5,,,57,0
90748,note_off,,,,,124,0,2,,,,,1,,,73,0
90748,note_off,,,,,124,0,10,,,,,7,,,57,0
90752,note_on,,,,,4,0,10,,,,,7,,,59,60
90752,note_on,,,,,4,0,2,,,,,1,,,74,90
90752,note_on,,,,,4,0,9,,,,,7,,,59,60
90752,note_on,,,,,4,0,8,,,,,6,,,47,92
90752,note_on,,,,,4,0,3,,,,,8,,,59,92
90752,note_on,,,,,4,0,5,,,,,3,,,74,108
90752,note_on,,,,,4,0,7,,,,,5,,,59,92
90876,note_off,,,,,124,0,5,,,,,3,,,74,0
90876,note_off,,,,,124,0,8,,,,,6,,,47,0
90876,note_off,,,,,124,0,7,,,,,5,,,59,0
90876,note_off,,,,,124,0,2,,,,,1,,,74,0
90876,note_off,,,,,124,0,3,,,,,8,,,59,0
90876,note_off,,,,,124,0,10,,,,,7,,,59,0
90876,note_off,,,,,124,0,9,,,,,7,,,59,0
90880,note_on,,,,,4,0,8,,,,,6,,,45,92
90880,note_on,,,,,4,0,3,,,,,8,,,57,92
90880,note_on,,,,,4,0,5,,,,,3,,,73,108
90880,note_on,,,,,4,0,9,,,,,7,,,57,60
90880,note_on,,,,,4,0,10,,,,,7,,,57,60
90880,note_on,,,,,0,0,10,,,,,7,,,66,60
90880,note_on,,,,,4,0,2,,,,,1,,,73,90
90880,note_on,,,,,4,0,7,,,,,5,,,57,92
90908,note_off,,,,,668,0,1,,,,,0,,,79,0
90908,note_off,,,,,668,0,4,,,,,2,,,79,0
90908,note_off,,,,,284,0,6,,,,,4,,,73,0
90912,note_on,,,,,4,0,6,,,,,4,,,66,92
90912,note_on,,,,,4,0,1,,,,,0,,,78,90
90912,note_on,,,,,4,0,4,,,,,2,,,78,108
91004,note_off,,,,,124,0,8,,,,,6,,,45,0
91004,note_off,,,,,124,0,9,,,,,7,,,57,0
91004,note_off,,,,,124,0,2,,,,,1,,,73,0
91004,note_off,,,,,124,0,3,,,,,8,,,57,0
91004,note_off,,,,,124,0,5,,,,,3,,,73,0
91004,note_off,,,,,124,0,10,,,,,7,,,57,0
91004,note_off,,,,,124,0,7,,,,,5,,,57,0
91004,note_off,,,,,92,0,4,,,,,2,,,78,0
91004,note_off,,,,,92,0,6,,,,,4,,,66,0
91004,note_off,,,,,92,0,1,,,,,0,,,78,0
91004,note_off,,,,,0,0,10,,,,,7,,,66,0
91008,note_on,,,,,4,0,7,,,,,5,,,55,92
91008,note_on,,,,,4,0,9,,,,,7,,,55,60
91008,note_on,,,,,4,0,8,,,,,6,,,43,92
91008,note_on,,,,,4,0,4,,,,,2,,,78,108
91008,note_on,,,,,4,0,3,,,,,8,,,55,92
91008,note_on,,,,,4,0,1,,,,,0,,,78,90
91008,note_on,,,,,4,0,2,,,,,1,,,71,90
91008,note_on,,,,,0,0,10,,,,,7,,,66,60
91008,note_on,,,,,4,0,10,,,,,7,,,55,60
91008,note_on,,,,,4,0,6,,,,,4,,,67,92
91008,note_on,,,,,4,0,5,,,,,3,,,71,108
91132,note_off,,,,,124,0,3,,,,,8,,,55,0
91132,note_off,,,,,124,0,2,,,,,1,,,71,0
91132,note_off,,,,,0,0,10,,,,,7,,,66,0
91132,note_off,,,,,124,0,10,,,,,7,,,55,0
91132,note_off,,,,,124,0,8,,,,,6,,,43,0
91132,note_off,,,,,124,0,7,,,,,5,,,55,0
91132,note_off,,,,,124,0,5,,,,,3,,,71,0
91132,note_off,,,,,124,0,9,,,,,7,,,55,0
91136,note_on,,,,,4,0,2,,,,,1,,,73,90
91136,note_on,,,,,4,0,9,,,,,7,,,57,60
91136,note_on,,,,,4,0,10,,,,,7,,,57,60
91136,note_on,,,,,4,0,3,,,,,8,,,57,92
91136,note_on,,,,,4,0,7,,,,,5,,,57,92
91136,note_on,,,,,4,0,8,,,,,6,,,45,92
91136,note_on,,,,,4,0,5,,,,,3,,,73,108
91260,note_off,,,,,124,0,7,,,,,5,,,57,0
91260,note_off,,,,,124,0,2,,,,,1,,,73,0
91260,note_off,,,,,124,0,9,,,,,7,,,57,0
91260,note_off,,,,,124,0,3,,,,,8,,,57,0
91260,note_off,,,,,124,0,5,,,,,3,,,73,0
91260,note_off,,,,,124,0,10,,,,,7,,,57,0
91260,note_off,,,,,124,0,8,,,,,6,,,45,0
91264,note_on,,,,,4,0,3,,,,,8,,,55,92
91264,note_on,,,,,4,0,10,,,,,7,,,55,60
91264,note_on,,,,,4,0,5,,,,,3,,,71,108
91264,note_on,,,,,4,0,7,,,,,5,,,55,92
91264,note_on,,,,,4,0,2,,,,,1,,,71,90
91264,note_on,,,,,4,0,9,,,,,7,,,55,60
91264,note_on,,,,,4,0,8,,,,,6,,,43,92
91264,note_on,,,,,0,0,10,,,,,7,,,64,60
91292,note_off,,,,,284,0,6,,,,,4,,,67,0
91292,note_off,,,,,284,0,1,,,,,0,,,78,0
91292,note_off,,,,,284,0,4,,,,,2,,,78,0
91296,note_on,,,,,4,0,4,,,,,2,,,76,108
91296,note_on,,,,,4,0,6,,,,,4,,,67,92
91296,note_on,,,,,4,0,1,,,,,0,,,76,90
91388,note_off,,,,,92,0,1,,,,,0,,,76,0
91388,note_off,,,,,124,0,7,,,,,5,,,55,0
91388,note_off,,,,,124,0,3,,,,,8,,,55,0
91388,note_off,,,,,124,0,2,,,,,1,,,71,0
91388,note_off,,,,,124,0,9,,,,,7,,,55,0
91388,note_off,,,,,92,0,4,,,,,2,,,76,0
91388,note_off,,,,,124,0,5,,,,,3,,,71,0
91388,note_off,,,,,92,0,6,,,,,4,,,67,0
91388,note_off,,,,,124,0,8,,,,,6,,,43,0
91388,note_off,,,,,124,0,10,,,,,7,,,55,0
91388,note_off,,,,,0,0,10,,,,,7,,,64,0
91392,note_on,,,,,4,0,10,,,,,7,,,54,60
91392,note_on,,,,,4,0,1,,,,,0,,,78,90
91392,note_on,,,,,4,0,8,,,,,6,,,42,92
91392,note_on,,,,,4,0,7,,,,,5,,,54,92
91392,note_on,,,,,4,0,4,,,,,2,,,78,108
91392,note_on,,,,,4,0,5,,,,,3,,,70,108
91392,note_on,,,,,4,0,6,,,,,4,,,61,92
91392,note_on,,,,,4,0,3,,,,,8,,,54,92
91392,note_on,,,,,4,0,2,,,,,1,,,70,90
91392,note_on,,,,,4,0,9,,,,,7,,,54,60
91676,note_off,,,,,284,0,1,,,,,0,,,78,0
91676,note_off,,,,,284,0,4,,,,,2,,,78,0
91680,note_on,,,,,4,0,4,,,,,2,,,73,108
91680,note_on,,,,,4,0,1,,,,,0,,,73,90
91712,note_off,,,,,320,0,7,,,,,5,,,54,0
91712,note_off,,,,,320,0,6,,,,,4,,,61,0
91712,note_off,,,,,320,0,2,,,,,1,,,70,0
91712,note_off,,,,,320,0,3,,,,,8,,,54,0
91712,note_off,,,,,320,0,8,,,,,6,,,42,0
91712,note_off,,,,,320,0,9,,,,,7,,,54,0
91712,note_off,,,,,320,0,10,,,,,7,,,54,0
91712,note_off,,,,,320,0,5,,,,,3,,,70,0
91772,note_off,,,,,92,0,4,,,,,2,,,73,0
91772,note_off,,,,,92,0,1,,,,,0,,,73,0
91776,note_on,,,,,4,0,4,,,,,2,,,73,108
91776,note_on,,,,,4,0,1,,,,,0,,,73,90
91900,note_off,,,,,124,0,4,,,,,2,,,73,0
91900,note_off,,,,,124,0,1,,,,,0,,,73,0
91904,note_on,,,,,4,0,4,,,,,2,,,74,108
91904,note_on,,,,,4,0,1,,,,,0,,,74,90
91968,note_on,,,,,256,0,10,,,,,7,,,54,60
91968,note_on,,,,,256,0,6,,,,,4,,,66,92
91968,note_on,,,,,256,0,3,,,,,8,,,54,92
91968,note_on,,,,,256,0,5,,,,,3,,,70,108
91968,note_on,,,,,256,0,8,,,,,6,,,42,92
91968,note_on,,,,,256,0,9,,,,,7,,,54,60
91968,note_on,,,,,256,0,7,,,,,5,,,54,92
91968,note_on,,,,,256,0,2,,,,,1,,,70,90
92028,note_off,,,,,124,0,4,,,,,2,,,74,0
92028,note_off,,,,,124,0,1,,,,,0,,,74,0
92032,note_on,,,,,4,0,1,,,,,0,,,73,90
92032,note_on,,,,,4,0,4,,,,,2,,,73,108
92156,note_off,,,,,188,0,9,,,,,7,,,54,0
92156,note_off,,,,,124,0,1,,,,,0,,,73,0
92156,note_off,,,,,124,0,4,,,,,2,,,73,0
92156,note_off,,,,,188,0,6,,,,,4,,,66,0
92156,note_off,,,,,188,0,8,,,,,6,,,42,0
92156,note_off,,,,,188,0,10,,,,,7,,,54,0
92156,note_off,,,,,188,0,5,,,,,3,,,70,0
92156,note_off,,,,,188,0,7,,,,,5,,,54,0
92156,note_off,,,,,188,0,3,,,,,8,,,54,0
92156,note_off,,,,,188,0,2,,,,,1,,,70,0
92160,note_on,,,,,4,0,5,,,,,3,,,71,108
92160,note_on,,,,,4,0,3,,,,,8,,,59,92
92160,note_on,,,,,4,0,8,,,,,6,,,47,92
92160,note_on,,,,,4,0,9,,,,,7,,,59,60
92160,note_on,,,,,4,0,2,,,,,1,,,71,90
92160,note_on,,,,,4,0,7,,,,,5,,,59,92
92160,note_on,,,,,4,0,4,,,,,2,,,74,108
92160,note_on,,,,,4,0,10,,,,,7,,,59,60
92160,note_on,,,,,4,0,6,,,,,4,,,66,92
92160,note_on,,,,,4,0,1,,,,,0,,,74,90
92284,note_off,,,,,124,0,9,,,,,7,,,59,0
92284,note_off,,,,,124,0,7,,,,,5,,,59,0
92284,note_off,,,,,124,0,1,,,,,0,,,74,0
92284,note_off,,,,,124,0,8,,,,,6,,,47,0
92284,note_off,,,,,124,0,3,,,,,8,,,59,0
92284,note_off,,,,,124,0,10,,,,,7,,,59,0
92284,note_off,,,,,124,0,4,,,,,2,,,74,0
92288,note_on,,,,,4,0,8,,,,,6,,,49,92
92288,note_on,,,,,4,0,10,,,,,7,,,61,60
92288,note_on,,,,,4,0,3,,,,,8,,,61,92
92288,note_on,,,,,4,0,9,,,,,7,,,61,60
92288,note_on,,,,,4,0,4,,,,,2,,,76,108
92288,note_on,,,,,4,0,7,,,,,5,,,61,92
92288,note_on,,,,,4,0,1,,,,,0,,,76,90
92412,note_off,,,,,124,0,1,,,,,0,,,76,0
92412,note_off,,,,,124,0,3,,,,,8,,,61,0
92412,note_off,,,,,124,0,7,,,,,5,,,61,0
92412,note_off,,,,,124,0,9,,,,,7,,,61,0
92412,note_off,,,,,124,0,8,,,,,6,,,49,0
92412,note_off,,,,,124,0,10,,,,,7,,,61,0
92412,note_off,,,,,124,0,4,,,,,2,,,76,0
92416,note_on,,,,,4,0,10,,,,,7,,,59,60
92416,note_on,,,,,4,0,7,,,,,5,,,59,92
92416,note_on,,,,,4,0,9,,,,,7,,,59,60
92416,note_on,,,,,4,0,4,,,,,2,,,74,108
92416,note_on,,,,,4,0,1,,,,,0,,,74,90
92416,note_on,,,,,4,0,3,,,,,8,,,59,92
92416,note_on,,,,,4,0,8,,,,,6,,,47,92
92444,note_off,,,,,284,0,6,,,,,4,,,66,0
92444,note_off,,,,,284,0,5,,,,,3,,,71,0
92444,note_off,,,,,284,0,2,,,,,1,,,71,0
92448,note_on,,,,,4,0,6,,,,,4,,,66,92
92448,note_on,,,,,4,0,5,,,,,3,,,71,108
92448,note_on,,,,,4,0,2,,,,,1,,,71,90
92540,note_off,,,,,124,0,1,,,,,0,,,74,0
92540,note_off,,,,,124,0,7,,,,,5,,,59,0
92540,note_off,,,,,124,0,9,,,,,7,,,59,0
92540,note_off,,,,,124,0,4,,,,,2,,,74,0
92540,note_off,,,,,92,0,6,,,,,4,,,66,0
92540,note_off,,,,,92,0,5,,,,,3,,,71,0
92540,note_off,,,,,124,0,10,,,,,7,,,59,0
92540,note_off,,,,,124,0,8,,,,,6,,,47,0
92540,note_off,,,,,92,0,2,,,,,1,,,71,0
92540,note_off,,,,,124,0,3,,,,,8,,,59,0
92544,note_on,,,,,4,0,1,,,,,0,,,75,90
92544,note_on,,,,,4,0,9,,,,,7,,,57,60
92544,note_on,,,,,4,0,2,,,,,1,,,71,90
92544,note_on,,,,,4,0,4,,,,,2,,,75,108
92544,note_on,,,,,4,0,3,,,,,8,,,57,92
92544,note_on,,,,,4,0,10,,,,,7,,,57,60
92544,note_on,,,,,4,0,6,,,,,4,,,66,92
92544,note_on,,,,,4,0,5,,,,,3,,,71,108
92544,note_on,,,,,4,0,8,,,,,6,,,45,92
92544,note_on,,,,,0,0,10,,,,,7,,,63,60
92544,note_on,,,,,4,0,7,,,,,5,,,57,92
92544,note_on,,,,,0,0,10,,,,,7,,,59,60
92668,note_off,,,,,0,0,10,,,,,7,,,63,0
92668,note_off,,,,,0,0,10,,,,,7,,,59,0
92668,note_off,,,,,124,0,10,,,,,7,,,57,0
92668,note_off,,,,,124,0,3,,,,,8,,,57,0
92668,note_off,,,,,124,0,9,,,,,7,,,57,0
92668,note_off,,,,,124,0,8,,,,,6,,,45,0
92668,note_off,,,,,124,0,7,,,,,5,,,57,0
92672,note_on,,,,,4,0,7,,,,,5,,,59,92
92672,note_on,,,,,4,0,8,,,,,6,,,47,92
92672,note_on,,,,,4,0,9,,,,,7,,,59,60
92672,note_on,,,,,4,0,3,,,,,8,,,59,92
92672,note_on,,,,,4,0,10,,,,,7,,,59,60
92796,note_off,,,,,124,0,10,,,,,7,,,59,0
92796,note_off,,,,,124,0,3,,,,,8,,,59,0
92796,note_off,,,,,124,0,8,,,,,6,,,47,0
92796,note_off,,,,,124,0,7,,,,,5,,,59,0
92796,note_off,,,,,124,0,9,,,,,7,,,59,0
92800,note_on,,,,,4,0,7,,,,,5,,,57,92
92800,note_on,,,,,4,0,8,,,,,6,,,45,92
92800,note_on,,,,,4,0,9,,,,,7,,,57,60
92800,note_on,,,,,4,0,10,,,,,7,,,57,60
92800,note_on,,,,,4,0,3,,,,,8,,,57,92
92828,note_off,,,,,284,0,6,,,,,4,,,66,0
92828,note_off,,,,,284,0,4,,,,,2,,,75,0
92828,note_off,,,,,284,0,5,,,,,3,,,71,0
92828,note_off,,,,,284,0,2,,,,,1,,,71,0
92828,note_off,,,,,284,0,1,,,,,0,,,75,0
92832,note_on,,,,,4,0,6,,,,,4,,,66,92
92832,note_on,,,,,4,0,5,,,,,3,,,71,108
92832,note_on,,,,,4,0,4,,,,,2,,,75,108
92832,note_on,,,,,4,0,2,,,,,1,,,71,90
92832,note_on,,,,,4,0,1,,,,,0,,,75,90
92924,note_off,,,,,92,0,1,,,,,0,,,75,0
92924,note_off,,,,,124,0,8,,,,,6,,,45,0
92924,note_off,,,,,124,0,10,,,,,7,,,57,0
92924,note_off,,,,,92,0,5,,,,,3,,,71,0
92924,note_off,,,,,92,0,4,,,,,2,,,75,0
92924,note_off,,,,,124,0,7,,,,,5,,,57,0
92924,note_off,,,,,124,0,9,,,,,7,,,57,0
92924,note_off,,,,,124,0,3,,,,,8,,,57,0
92924,note_off,,,,,92,0,2,,,,,1,,,71,0
92924,note_off,,,,,92,0,6,,,,,4,,,66,0
92928,note_on,,,,,4,0,5,,,,,3,,,71,108
92928,note_on,,,,,4,0,4,,,,,2,,,76,108
92928,note_on,,,,,4,0,3,,,,,8,,,55,92
92928,note_on,,,,,4,0,9,,,,,7,,,55,60
92928,note_on,,,,,0,0,10,,,,,7,,,64,60
92928,note_on,,,,,4,0,8,,,,,6,,,43,92
92928,note_on,,,,,4,0,2,,,,,1,,,71,90
92928,note_on,,,,,4,0,10,,,,,7,,,55,60
92928,note_on,,,,,4,0,1,,,,,0,,,76,90
92928,note_on,,,,,4,0,6,,,,,4,,,67,92
92928,note_on,,,,,4,0,7,,,,,5,,,55,92
93052,note_off,,,,,124,0,8,,,,,6,,,43,0
93052,note_off,,,,,124,0,3,,,,,8,,,55,0
93052,note_off,,,,,0,0,10,,,,,7,,,64,0
93052,note_off,,,,,124,0,4,,,,,2,,,76,0
93052,note_off,,,,,124,0,7,,,,,5,,,55,0
93052,note_off,,,,,124,0,1,,,,,0,,,76,0
93052,note_off,,,,,124,0,10,,,,,7,,,55,0
93052,note_off,,,,,124,0,9,,,,,7,,,55,0
93056,note_on,,,,,4,0,3,,,,,8,,,57,92
93056,note_on,,,,,4,0,9,,,,,7,,,57,60
93056,note_on,,,,,4,0,4,,,,,2,,,78,108
93056,note_on,,,,,4,0,7,,,,,5,,,57,92
93056,note_on,,,,,4,0,1,,,,,0,,,78,90
93056,note_on,,,,,4,0,8,,,,,6,,,45,92
93056,note_on,,,,,4,0,10,,,,,7,,,57,60
93180,note_off,,,,,124,0,7,,,,,5,,,57,0
93180,note_off,,,,,124,0,9,,,,,7,,,57,0
93180,note_off,,,,,124,0,1,,,,,0,,,78,0
93180,note_off,,,,,124,0,4,,,,,2,,,78,0
93180,note_off,,,,,124,0,10,,,,,7,,,57,0
93180,note_off,,,,,124,0,3,,,,,8,,,57,0
93180,note_off,,,,,124,0,8,,,,,6,,,45,0
93184,note_on,,,,,4,0,7,,,,,5,,,55,92
93184,note_on,,,,,4,0,10,,,,,7,,,55,60
93184,note_on,,,,,4,0,8,,,,,6,,,43,92
93184,note_on,,,,,4,0,1,,,,,0,,,76,90
93184,note_on,,,,,4,0,9,,,,,7,,,55,60
93184,note_on,,,,,4,0,3,,,,,8,,,55,92
93184,note_on,,,,,4,0,4,,,,,2,,,76,108
93212,note_off,,,,,284,0,6,,,,,4,,,67,0
93212,note_off,,,,,284,0,5,,,,,3,,,71,0
93212,note_off,,,,,284,0,2,,,,,1,,,71,0
93216,note_on,,,,,4,0,2,,,,,1,,,71,90
93216,note_on,,,,,4,0,5,,,,,3,,,71,108
93216,note_on,,,,,4,0,6,,,,,4,,,67,92
93308,note_off,,,,,92,0,5,,,,,3,,,71,0
93308,note_off,,,,,124,0,1,,,,,0,,,76,0
93308,note_off,,,,,124,0,7,,,,,5,,,55,0
93308,note_off,,,,,124,0,4,,,,,2,,,76,0
93308,note_off,,,,,92,0,2,,,,,1,,,71,0
93308,note_off,,,,,92,0,6,,,,,4,,,67,0
93308,note_off,,,,,124,0,9,,,,,7,,,55,0
93308,note_off,,,,,124,0,3,,,,,8,,,55,0
93308,note_off,,,,,124,0,8,,,,,6,,,43,0
93308,note_off,,,,,124,0,10,,,,,7,,,55,0
93312,note_on,,,,,4,0,6,,,,,4,,,69,92
93312,note_on,,,,,4,0,1,,,,,0,,,78,90
93312,note_on,,,,,4,0,9,,,,,7,,,54,60
93312,note_on,,,,,4,0,3,,,,,8,,,54,92
93312,note_on,,,,,4,0,4,,,,,2,,,78,108
93312,note_on,,,,,0,0,10,,,,,7,,,63,60
93312,note_on,,,,,4,0,10,,,,,7,,,54,60
93312,note_on,,,,,4,0,7,,,,,5,,,54,92
93312,note_on,,,,,4,0,8,,,,,6,,,42,92
93312,note_on,,,,,4,0,5,,,,,3,,,75,108
93312,note_on,,,,,4,0,2,,,,,1,,,75,90
93436,note_off,,,,,124,0,8,,,,,6,,,42,0
93436,note_off,,,,,124,0,3,,,,,8,,,54,0
93436,note_off,,,,,0,0,10,,,,,7,,,63,0
93436,note_off,,,,,124,0,7,,,,,5,,,54,0
93436,note_off,,,,,124,0,9,,,,,7,,,54,0
93436,note_off,,,,,124,0,10,,,,,7,,,54,0
93440,note_on,,,,,4,0,8,,,,,6,,,43,92
93440,note_on,,,,,4,0,3,,,,,8,,,55,92
93440,note_on,,,,,4,0,7,,,,,5,,,55,92
93440,note_on,,,,,4,0,9,,,,,7,,,55,60
93440,note_on,,,,,4,0,10,,,,,7,,,55,60
93564,note_off,,,,,124,0,8,,,,,6,,,43,0
93564,note_off,,,,,124,0,9,,,,,7,,,55,0
93564,note_off,,,,,124,0,7,,,,,5,,,55,0
93564,note_off,,,,,124,0,10,,,,,7,,,55,0
93564,note_off,,,,,124,0,3,,,,,8,,,55,0
93568,note_on,,,,,4,0,10,,,,,7,,,54,60
93568,note_on,,,,,4,0,9,,,,,7,,,54,60
93568,note_on,,,,,4,0,3,,,,,8,,,54,92
93568,note_on,,,,,4,0,8,,,,,6,,,42,92
93568,note_on,,,,,4,0,7,,,,,5,,,54,92
93596,note_off,,,,,284,0,1,,,,,0,,,78,0
93596,note_off,,,,,284,0,6,,,,,4,,,69,0
93596,note_off,,,,,284,0,4,,,,,2,,,78,0
93596,note_off,,,,,284,0,2,,,,,1,,,75,0
93596,note_off,,,,,284,0,5,,,,,3,,,75,0
93600,note_on,,,,,4,0,2,,,,,1,,,75,90
93600,note_on,,,,,4,0,6,,,,,4,,,69,92
93600,note_on,,,,,4,0,1,,,,,0,,,78,90
93600,note_on,,,,,4,0,4,,,,,2,,,78,108
93600,note_on,,,,,4,0,5,,,,,3,,,75,108
93692,note_off,,,,,124,0,3,,,,,8,,,54,0
93692,note_off,,,,,124,0,9,,,,,7,,,54,0
93692,note_off,,,,,124,0,10,,,,,7,,,54,0
93692,note_off,,,,,92,0,6,,,,,4,,,69,0
93692,note_off,,,,,92,0,4,,,,,2,,,78,0
93692,note_off,,,,,92,0,2,,,,,1,,,75,0
93692,note_off,,,,,92,0,5,,,,,3,,,75,0
93692,note_off,,,,,92,0,1,,,,,0,,,78,0
93692,note_off,,,,,124,0,8,,,,,6,,,42,0
93692,note_off,,,,,124,0,7,,,,,5,,,54,0
93696,note_on,,,,,4,0,7,,,,,5,,,52,92
93696,note_on,,,,,4,0,5,,,,,3,,,76,108
93696,note_on,,,,,4,0,9,,,,,7,,,52,60
93696,note_on,,,,,4,0,1,,,,,0,,,79,90
93696,note_on,,,,,4,0,8,,,,,6,,,40,92
93696,note_on,,,,,4,0,3,,,,,8,,,52,92
93696,note_on,,,,,4,0,4,,,,,2,,,79,108
93696,note_on,,,,,4,0,10,,,,,7,,,52,60
93696,note_on,,,,,0,0,10,,,,,7,,,55,60
93696,note_on,,,,,4,0,6,,,,,4,,,71,92
93696,note_on,,,,,4,0,2,,,,,1,,,76,90
93820,note_off,,,,,124,0,9,,,,,7,,,52,0
93820,note_off,,,,,124,0,3,,,,,8,,,52,0
93820,note_off,,,,,124,0,7,,,,,5,,,52,0
93820,note_off,,,,,124,0,10,,,,,7,,,52,0
93820,note_off,,,,,0,0,10,,,,,7,,,55,0
93820,note_off,,,,,124,0,4,,,,,2,,,79,0
93820,note_off,,,,,124,0,1,,,,,0,,,79,0
93820,note_off,,,,,124,0,8,,,,,6,,,40,0
93824,note_on,,,,,4,0,8,,,,,6,,,42,92
93824,note_on,,,,,4,0,9,,,,,7,,,54,60
93824,note_on,,,,,4,0,1,,,,,0,,,81,90
93824,note_on,,,,,4,0,7,,,,,5,,,54,92
93824,note_on,,,,,4,0,10,,,,,7,,,54,60
93824,note_on,,,,,4,0,3,,,,,8,,,54,92
93824,note_on,,,,,4,0,4,,,,,2,,,81,108
93948,note_off,,,,,124,0,10,,,,,7,,,54,0
93948,note_off,,,,,124,0,1,,,,,0,,,81,0
93948,note_off,,,,,124,0,4,,,,,2,,,81,0
93948,note_off,,,,,124,0,9,,,,,7,,,54,0
93948,note_off,,,,,124,0,8,,,,,6,,,42,0
93948,note_off,,,,,124,0,7,,,,,5,,,54,0
93948,note_off,,,,,124,0,3,,,,,8,,,54,0
93952,note_on,,,,,4,0,4,,,,,2,,,79,108
93952,note_on,,,,,4,0,9,,,,,7,,,52,60
93952,note_on,,,,,4,0,3,,,,,8,,,52,92
93952,note_on,,,,,4,0,10,,,,,7,,,52,60
93952,note_on,,,,,4,0,1,,,,,0,,,79,90
93952,note_on,,,,,4,0,8,,,,,6,,,40,92
93952,note_on,,,,,4,0,7,,,,,5,,,52,92
93980,note_off,,,,,284,0,6,,,,,4,,,71,0
93980,note_off,,,,,284,0,2,,,,,1,,,76,0
93980,note_off,,,,,284,0,5,,,,,3,,,76,0
93984,note_on,,,,,4,0,6,,,,,4,,,71,92
93984,note_on,,,,,4,0,5,,,,,3,,,76,108
93984,note_on,,,,,4,0,2,,,,,1,,,76,90
94076,note_off,,,,,124,0,4,,,,,2,,,79,0
94076,note_off,,,,,124,0,1,,,,,0,,,79,0
94076,note_off,,,,,124,0,10,,,,,7,,,52,0
94076,note_off,,,,,92,0,6,,,,,4,,,71,0
94076,note_off,,,,,124,0,7,,,,,5,,,52,0
94076,note_off,,,,,124,0,3,,,,,8,,,52,0
94076,note_off,,,,,124,0,8,,,,,6,,,40,0
94076,note_off,,,,,92,0,5,,,,,3,,,76,0
94076,note_off,,,,,124,0,9,,,,,7,,,52,0
94076,note_off,,,,,92,0,2,,,,,1,,,76,0
94080,note_on,,,,,4,0,6,,,,,4,,,71,92
94080,note_on,,,,,4,0,2,,,,,1,,,76,90
94080,note_on,,,,,4,0,4,,,,,2,,,80,108
94080,note_on,,,,,0,0,10,,,,,7,,,52,60
94080,note_on,,,,,4,0,10,,,,,7,,,50,60
94080,note_on,,,,,4,0,8,,,,,6,,,38,92
94080,note_on,,,,,0,0,10,,,,,7,,,56,60
94080,note_on,,,,,4,0,3,,,,,8,,,50,92
94080,note_on,,,,,4,0,1,,,,,0,,,80,90
94080,note_on,,,,,4,0,9,,,,,7,,,50,60
94080,note_on,,,,,4,0,5,,,,,3,,,76,108
94080,note_on,,,,,4,0,7,,,,,5,,,50,92
94204,note_off,,,,,0,0,10,,,,,7,,,52,0
94204,note_off,,,,,124,0,8,,,,,6,,,38,0
94204,note_off,,,,,124,0,3,,,,,8,,,50,0
94204,note_off,,,,,124,0,10,,,,,7,,,50,0
94204,note_off,,,,,124,0,7,,,,,5,,,50,0
94204,note_off,,,,,124,0,9,,,,,7,,,50,0
94204,note_off,,,,,0,0,10,,,,,7,,,56,0
94208,note_on,,,,,4,0,8,,,,,6,,,40,92
94208,note_on,,,,,4,0,3,,,,,8,,,52,92
94208,note_on,,,,,4,0,7,,,,,5,,,52,92
94208,note_on,,,,,4,0,10,,,,,7,,,52,60
94208,note_on,,,,,4,0,9,,,,,7,,,52,60
94332,note_off,,,,,124,0,7,,,,,5,,,52,0
94332,note_off,,,,,124,0,3,,,,,8,,,52,0
94332,note_off,,,,,124,0,8,,,,,6,,,40,0
94332,note_off,,,,,124,0,10,,,,,7,,,52,0
94332,note_off,,,,,124,0,9,,,,,7,,,52,0
94336,note_on,,,,,4,0,3,,,,,8,,,50,92
94336,note_on,,,,,4,0,10,,,,,7,,,50,60
94336,note_on,,,,,4,0,7,,,,,5,,,50,92
94336,note_on,,,,,4,0,8,,,,,6,,,38,92
94336,note_on,,,,,4,0,9,,,,,7,,,50,60
94364,note_off,,,,,284,0,2,,,,,1,,,76,0
94364,note_off,,,,,284,0,6,,,,,4,,,71,0
94364,note_off,,,,,284,0,5,,,,,3,,,76,0
94364,note_off,,,,,284,0,4,,,,,2,,,80,0
94364,note_off,,,,,284,0,1,,,,,0,,,80,0
94368,note_on,,,,,4,0,2,,,,,1,,,76,90
94368,note_on,,,,,4,0,1,,,,,0,,,80,90
94368,note_on,,,,,4,0,6,,,,,4,,,71,92
94368,note_on,,,,,4,0,5,,,,,3,,,76,108
94368,note_on,,,,,4,0,4,,,,,2,,,80,108
94460,note_off,,,,,92,0,2,,,,,1,,,76,0
94460,note_off,,,,,92,0,1,,,,,0,,,80,0
94460,note_off,,,,,124,0,9,,,,,7,,,50,0
94460,note_off,,,,,92,0,4,,,,,2,,,80,0
94460,note_off,,,,,92,0,5,,,,,3,,,76,0
94460,note_off,,,,,124,0,7,,,,,5,,,50,0
94460,note_off,,,,,124,0,10,,,,,7,,,50,0
94460,note_off,,,,,92,0,6,,,,,4,,,71,0
94460,note_off,,,,,124,0,8,,,,,6,,,38,0
94460,note_off,,,,,124,0,3,,,,,8,,,50,0
94464,note_on,,,,,4,0,8,,,,,6,,,37,92
94464,note_on,,,,,4,0,6,,,,,4,,,73,92
94464,note_on,,,,,4,0,5,,,,,3,,,76,108
94464,note_on,,,,,4,0,1,,,,,0,,,82,90
94464,note_on,,,,,4,0,2,,,,,1,,,76,90
94464,note_on,,,,,4,0,9,,,,,7,,,49,60
94464,note_on,,,,,4,0,3,,,,,8,,,49,92
94464,note_on,,,,,4,0,7,,,,,5,,,49,92
94464,note_on,,,,,4,0,10,,,,,7,,,49,60
94464,note_on,,,,,0,0,10,,,,,7,,,52,60
94464,note_on,,,,,0,0,10,,,,,7,,,57,60
94464,note_on,,,,,4,0,4,,,,,2,,,82,108
94588,note_off,,,,,124,0,1,,,,,0,,,82,0
94588,note_off,,,,,124,0,7,,,,,5,,,49,0
94588,note_off,,,,,124,0,10,,,,,7,,,49,0
94588,note_off,,,,,124,0,4,,,,,2,,,82,0
94588,note_off,,,,,124,0,8,,,,,6,,,37,0
94588,note_off,,,,,0,0,10,,,,,7,,,52,0
94588,note_off,,,,,0,0,10,,,,,7,,,57,0
94588,note_off,,,,,124,0,3,,,,,8,,,49,0
94588,note_off,,,,,124,0,9,,,,,7,,,49,0
94592,note_on,,,,,4,0,1,,,,,0,,,83,90
94592,note_on,,,,,4,0,3,,,,,8,,,50,92
94592,note_on,,,,,4,0,9,,,,,7,,,50,60
94592,note_on,,,,,4,0,8,,,,,6,,,38,92
94592,note_on,,,,,4,0,7,,,,,5,,,50,92
94592,note_on,,,,,4,0,4,,,,,2,,,83,108
94592,note_on,,,,,4,0,10,,,,,7,,,50,60
94716,note_off,,,,,124,0,4,,,,,2,,,83,0
94716,note_off,,,,,124,0,8,,,,,6,,,38,0
94716,note_off,,,,,124,0,3,,,,,8,,,50,0
94716,note_off,,,,,124,0,10,,,,,7,,,50,0
94716,note_off,,,,,124,0,7,,,,,5,,,50,0
94716,note_off,,,,,124,0,9,,,,,7,,,50,0
94716,note_off,,,,,124,0,1,,,,,0,,,83,0
94720,note_on,,,,,4,0,7,,,,,5,,,49,92
94720,note_on,,,,,4,0,8,,,,,6,,,37,92
94720,note_on,,,,,4,0,4,,,,,2,,,82,108
94720,note_on,,,,,4,0,3,,,,,8,,,49,92
94720,note_on,,,,,4,0,9,,,,,7,,,49,60
94720,note_on,,,,,4,0,10,,,,,7,,,49,60
94720,note_on,,,,,4,0,1,,,,,0,,,82,90
94748,note_off,,,,,284,0,5,,,,,3,,,76,0
94748,note_off,,,,,284,0,2,,,,,1,,,76,0
94748,note_off,,,,,284,0,6,,,,,4,,,73,0
94752,note_on,,,,,4,0,6,,,,,4,,,73,92
94752,note_on,,,,,4,0,5,,,,,3,,,76,108
94752,note_on,,,,,4,0,2,,,,,1,,,76,90
94844,note_off,,,,,124,0,3,,,,,8,,,49,0
94844,note_off,,,,,92,0,5,,,,,3,,,76,0
94844,note_off,,,,,124,0,4,,,,,2,,,82,0
94844,note_off,,,,,124,0,10,,,,,7,,,49,0
94844,note_off,,,,,124,0,1,,,,,0,,,82,0
94844,note_off,,,,,124,0,9,,,,,7,,,49,0
94844,note_off,,,,,124,0,8,,,,,6,,,37,0
94844,note_off,,,,,92,0,6,,,,,4,,,73,0
94844,note_off,,,,,92,0,2,,,,,1,,,76,0
94844,note_off,,,,,124,0,7,,,,,5,,,49,0
94848,note_on,,,,,4,0,1,,,,,0,,,83,90
94848,note_on,,,,,4,0,5,,,,,3,,,74,108
94848,note_on,,,,,4,0,2,,,,,1,,,74,90
94848,note_on,,,,,4,0,10,,,,,7,,,47,60
94848,note_on,,,,,4,0,4,,,,,2,,,83,108
94848,note_on,,,,,4,0,3,,,,,8,,,47,92
94848,note_on,,,,,4,0,6,,,,,4,,,66,92
94848,note_on,,,,,4,0,9,,,,,7,,,47,60
94848,note_on,,,,,4,0,7,,,,,5,,,47,92
94848,note_on,,,,,4,0,8,,,,,6,,,35,92
94972,note_off,,,,,124,0,3,,,,,8,,,47,0
94972,note_off,,,,,124,0,9,,,,,7,,,47,0
94972,note_off,,,,,124,0,8,,,,,6,,,35,0
94972,note_off,,,,,124,0,10,,,,,7,,,47,0
94972,note_off,,,,,124,0,7,,,,,5,,,47,0
94976,note_on,,,,,4,0,3,,,,,8,,,49,92
94976,note_on,,,,,4,0,7,,,,,5,,,49,92
94976,note_on,,,,,4,0,8,,,,,6,,,37,92
94976,note_on,,,,,4,0,9,,,,,7,,,49,60
94976,note_on,,,,,4,0,10,,,,,7,,,49,60
95100,note_off,,,,,124,0,8,,,,,6,,,37,0
95100,note_off,,,,,124,0,9,,,,,7,,,49,0
95100,note_off,,,,,124,0,3,,,,,8,,,49,0
95100,note_off,,,,,124,0,10,,,,,7,,,49,0
95100,note_off,,,,,124,0,7,,,,,5,,,49,0
95104,note_on,,,,,4,0,9,,,,,7,,,47,60
95104,note_on,,,,,4,0,3,,,,,8,,,47,92
95104,note_on,,,,,4,0,8,,,,,6,,,35,92
95104,note_on,,,,,4,0,7,,,,,5,,,47,92
95104,note_on,,,,,4,0,10,,,,,7,,,47,60
95132,note_off,,,,,284,0,5,,,,,3,,,74,0
95132,note_off,,,,,284,0,6,,,,,4,,,66,0
95132,note_off,,,,,284,0,2,,,,,1,,,74,0
95132,note_off,,,,,284,0,1,,,,,0,,,83,0
95132,note_off,,,,,284,0,4,,,,,2,,,83,0
95136,note_on,,,,,4,0,5,,,,,3,,,74,108
95136,note_on,,,,,4,0,6,,,,,4,,,66,92
95136,note_on,,,,,4,0,1,,,,,0,,,83,90
95136,note_on,,,,,4,0,2,,,,,1,,,74,90
95136,note_on,,,,,4,0,4,,,,,2,,,83,108
95228,note_off,,,,,92,0,5,,,,,3,,,74,0
95228,note_off,,,,,124,0,7,,,,,5,,,47,0
95228,note_off,,,,,92,0,6,,,,,4,,,66,0
95228,note_off,,,,,124,0,3,,,,,8,,,47,0
95228,note_off,,,,,124,0,8,,,,,6,,,35,0
95228,note_off,,,,,124,0,10,,,,,7,,,47,0
95228,note_off,,,,,92,0,2,,,,,1,,,74,0
95228,note_off,,,,,92,0,4,,,,,2,,,83,0
95228,note_off,,,,,92,0,1,,,,,0,,,83,0
95228,note_off,,,,,124,0,9,,,,,7,,,47,0
95232,note_on,,,,,4,0,3,,,,,8,,,46,92
95232,note_on,,,,,4,0,1,,,,,0,,,85,90
95232,note_on,,,,,4,0,5,,,,,3,,,73,108
95232,note_on,,,,,4,0,8,,,,,6,,,34,92
95232,note_on,,,,,4,0,4,,,,,2,,,85,108
95232,note_on,,,,,4,0,2,,,,,1,,,73,90
95232,note_on,,,,,4,0,9,,,,,7,,,46,60
95232,note_on,,,,,4,0,7,,,,,5,,,46,92
95232,note_on,,,,,4,0,10,,,,,7,,,46,60
95232,note_on,,,,,0,0,10,,,,,7,,,54,60
95232,note_on,,,,,4,0,6,,,,,4,,,66,92
95356,note_off,,,,,124,0,1,,,,,0,,,85,0
95356,note_off,,,,,124,0,4,,,,,2,,,85,0
95360,note_on,,,,,4,0,4,,,,,2,,,86,108
95360,note_on,,,,,4,0,1,,,,,0,,,86,90
95484,note_off,,,,,124,0,4,,,,,2,,,86,0
95484,note_off,,,,,124,0,1,,,,,0,,,86,0
95488,note_on,,,,,4,0,4,,,,,2,,,85,108
95488,note_on,,,,,4,0,1,,,,,0,,,85,90
95516,note_off,,,,,284,0,8,,,,,6,,,34,0
95516,note_off,,,,,284,0,6,,,,,4,,,66,0
95516,note_off,,,,,284,0,9,,,,,7,,,46,0
95516,note_off,,,,,284,0,2,,,,,1,,,73,0
95516,note_off,,,,,284,0,3,,,,,8,,,46,0
95516,note_off,,,,,284,0,10,,,,,7,,,46,0
95516,note_off,,,,,0,0,10,,,,,7,,,54,0
95516,note_off,,,,,284,0,5,,,,,3,,,73,0
95516,note_off,,,,,284,0,7,,,,,5,,,46,0
95520,note_on,,,,,4,0,9,,,,,7,,,46,60
95520,note_on,,,,,4,0,10,,,,,7,,,46,60
95520,note_on,,,,,4,0,6,,,,,4,,,66,92
95520,note_on,,,,,4,0,3,,,,,8,,,46,92
95520,note_on,,,,,4,0,7,,,,,5,,,46,92
95520,note_on,,,,,4,0,5,,,,,3,,,73,108
95520,note_on,,,,,4,0,8,,,,,6,,,34,92
95520,note_on,,,,,4,0,2,,,,,1,,,73,90
95612,note_off,,,,,92,0,6,,,,,4,,,66,0
95612,note_off,,,,,92,0,7,,,,,5,,,46,0
95612,note_off,,,,,92,0,2,,,,,1,,,73,0
95612,note_off,,,,,92,0,5,,,,,3,,,73,0
95612,note_off,,,,,124,0,1,,,,,0,,,85,0
95612,note_off,,,,,92,0,8,,,,,6,,,34,0
95612,note_off,,,,,92,0,10,,,,,7,,,46,0
95612,note_off,,,,,92,0,3,,,,,8,,,46,0
95612,note_off,,,,,92,0,9,,,,,7,,,46,0
95612,note_off,,,,,124,0,4,,,,,2,,,85,0
95616,note_on,,,,,4,0,6,,,,,4,,,66,92
95616,note_on,,,,,4,0,5,,,,,3,,,71,108
95616,note_on,,,,,4,0,2,,,,,1,,,71,90
95616,note_on,,,,,4,0,10,,,,,7,,,47,60
95616,note_on,,,,,4,0,1,,,,,0,,,86,90
95616,note_on,,,,,4,0,7,,,,,5,,,47,92
95616,note_on,,,,,4,0,4,,,,,2,,,86,108
95616,note_on,,,,,4,0,3,,,,,8,,,47,92
95616,note_on,,,,,4,0,9,,,,,7,,,47,60
95616,note_on,,,,,4,0,8,,,,,6,,,35,92
95900,note_off,,,,,284,0,1,,,,,0,,,86,0
95900,note_off,,,,,284,0,7,,,,,5,,,47,0
95900,note_off,,,,,284,0,4,,,,,2,,,86,0
95900,note_off,,,,,284,0,9,,,,,7,,,47,0
95900,note_off,,,,,284,0,8,,,,,6,,,35,0
95900,note_off,,,,,284,0,10,,,,,7,,,47,0
95900,note_off,,,,,284,0,2,,,,,1,,,71,0
95900,note_off,,,,,284,0,5,,,,,3,,,71,0
95900,note_off,,,,,284,0,3,,,,,8,,,47,0
95900,note_off,,,,,284,0,6,,,,,4,,,66,0
95904,note_on,,,,,4,0,8,,,,,6,,,35,92
95904,note_on,,,,,4,0,5,,,,,3,,,71,108
95904,note_on,,,,,4,0,1,,,,,0,,,86,90
95904,note_on,,,,,4,0,2,,,,,1,,,71,90
95904,note_on,,,,,4,0,7,,,,,5,,,47,92
95904,note_on,,,,,4,0,10,,,,,7,,,47,60
95904,note_on,,,,,4,0,3,,,,,8,,,47,92
95904,note_on,,,,,4,0,4,,,,,2,,,86,108
95904,note_on,,,,,4,0,9,,,,,7,,,47,60
95904,note_on,,,,,4,0,6,,,,,4,,,66,92
95996,note_off,,,,,92,0,10,,,,,7,,,47,0
95996,note_off,,,,,92,0,3,,,,,8,,,47,0
95996,note_off,,,,,92,0,4,,,,,2,,,86,0
95996,note_off,,,,,92,0,5,,,,,3,,,71,0
95996,note_off,,,,,92,0,9,,,,,7,,,47,0
95996,note_off,,,,,92,0,7,,,,,5,,,47,0
95996,note_off,,,,,92,0,1,,,,,0,,,86,0
95996,note_off,,,,,92,0,6,,,,,4,,,66,0
95996,note_off,,,,,92,0,2,,,,,1,,,71,0
95996,note_off,,,,,92,0,8,,,,,6,,,35,0
96000,note_on,,,,,4,0,8,,,,,6,,,42,92
96000,note_on,,,,,4,0,1,,,,,0,,,82,90
96000,note_on,,,,,4,0,5,,,,,3,,,73,108
96000,note_on,,,,,4,0,9,,,,,7,,,54,60
96000,note_on,,,,,4,0,4,,,,,2,,,82,108
96000,note_on,,,,,4,0,2,,,,,1,,,73,90
96000,note_on,,,,,4,0,10,,,,,7,,,54,60
96000,note_on,,,,,4,0,6,,,,,4,,,66,92
96000,note_on,,,,,4,0,7,,,,,5,,,54,92
96000,note_on,,,,,4,0,3,,,,,8,,,54,92
96284,note_off,,,,,284,0,3,,,,,8,,,54,0
96284,note_off,,,,,284,0,2,,,,,1,,,73,0
96284,note_off,,,,,284,0,4,,,,,2,,,82,0
96284,note_off,,,,,284,0,9,,,,,7,,,54,0
96284,note_off,,,,,284,0,7,,,,,5,,,54,0
96284,note_off,,,,,284,0,1,,,,,0,,,82,0
96284,note_off,,,,,284,0,8,,,,,6,,,42,0
96284,note_off,,,,,284,0,5,,,,,3,,,73,0
96284,note_off,,,,,284,0,10,,,,,7,,,54,0
96284,note_off,,,,,284,0,6,,,,,4,,,66,0
96288,note_on,,,,,4,0,5,,,,,3,,,73,108
96288,note_on,,,,,4,0,1,,,,,0,,,82,90
96288,note_on,,,,,4,0,6,,,,,4,,,66,92
96288,note_on,,,,,4,0,3,,,,,8,,,54,92
96288,note_on,,,,,4,0,10,,,,,7,,,54,60
96288,note_on,,,,,4,0,9,,,,,7,,,54,60
96288,note_on,,,,,4,0,4,,,,,2,,,82,108
96288,note_on,,,,,4,0,2,,,,,1,,,73,90
96288,note_on,,,,,4,0,8,,,,,6,,,42,92
96288,note_on,,,,,4,0,7,,,,,5,,,54,92
96380,note_off,,,,,92,0,9,,,,,7,,,54,0
96380,note_off,,,,,92,0,4,,,,,2,,,82,0
96380,note_off,,,,,92,0,5,,,,,3,,,73,0
96380,note_off,,,,,92,0,2,,,,,1,,,73,0
96380,note_off,,,,,92,0,7,,,,,5,,,54,0
96380,note_off,,,,,92,0,1,,,,,0,,,82,0
96380,note_off,,,,,92,0,10,,,,,7,,,54,0
96380,note_off,,,,,92,0,6,,,,,4,,,66,0
96380,note_off,,,,,92,0,8,,,,,6,,,42,0
96380,note_off,,,,,92,0,3,,,,,8,,,54,0
96384,note_on,,,,,4,0,7,,,,,5,,,55,92
96384,note_on,,,,,4,0,6,,,,,4,,,62,92
96384,note_on,,,,,4,0,9,,,,,7,,,55,60
96384,note_on,,,,,4,0,5,,,,,3,,,71,108
96384,note_on,,,,,4,0,8,,,,,6,,,43,92
96384,note_on,,,,,4,0,3,,,,,8,,,55,92
96384,note_on,,,,,4,0,4,,,,,2,,,83,108
96384,note_on,,,,,4,0,1,,,,,0,,,83,90
96384,note_on,,,,,4,0,2,,,,,1,,,71,90
96384,note_on,,,,,4,0,10,,,,,7,,,55,60
96668,note_off,,,,,284,0,9,,,,,7,,,55,0
96668,note_off,,,,,284,0,5,,,,,3,,,71,0
96668,note_off,,,,,284,0,6,,,,,4,,,62,0
96668,note_off,,,,,284,0,3,,,,,8,,,55,0
96668,note_off,,,,,284,0,2,,,,,1,,,71,0
96668,note_off,,,,,284,0,8,,,,,6,,,43,0
96668,note_off,,,,,284,0,10,,,,,7,,,55,0
96668,note_off,,,,,284,0,1,,,,,0,,,83,0
96668,note_off,,,,,284,0,4,,,,,2,,,83,0
96668,note_off,,,,,284,0,7,,,,,5,,,55,0
96672,note_on,,,,,4,0,1,,,,,0,,,83,90
96672,note_on,,,,,4,0,4,,,,,2,,,83,108
96672,note_on,,,,,4,0,5,,,,,3,,,71,108
96672,note_on,,,,,4,0,10,,,,,7,,,55,60
96672,note_on,,,,,4,0,8,,,,,6,,,43,92
96672,note_on,,,,,4,0,7,,,,,5,,,55,92
96672,note_on,,,,,4,0,3,,,,,8,,,55,92
96672,note_on,,,,,4,0,9,,,,,7,,,55,60
96672,note_on,,,,,4,0,2,,,,,1,,,71,90
96672,note_on,,,,,4,0,6,,,,,4,,,62,92
96764,note_off,,,,,92,0,10,,,,,7,,,55,0
96764,note_off,,,,,92,0,4,,,,,2,,,83,0
96764,note_off,,,,,92,0,5,,,,,3,,,71,0
96764,note_off,,,,,92,0,6,,,,,4,,,62,0
96764,note_off,,,,,92,0,9,,,,,7,,,55,0
96764,note_off,,,,,92,0,2,,,,,1,,,71,0
96764,note_off,,,,,92,0,7,,,,,5,,,55,0
96764,note_off,,,,,92,0,1,,,,,0,,,83,0
96764,note_off,,,,,92,0,8,,,,,6,,,43,0
96764,note_off,,,,,92,0,3,,,,,8,,,55,0
96768,note_on,,,,,4,0,8,,,,,6,,,38,92
96768,note_on,,,,,4,0,6,,,,,4,,,62,92
96768,note_on,,,,,0,0,10,,,,,7,,,59,60
96768,note_on,,,,,4,0,10,,,,,7,,,50,60
96768,note_on,,,,,4,0,3,,,,,8,,,50,92
96768,note_on,,,,,4,0,1,,,,,0,,,78,90
96768,note_on,,,,,4,0,5,,,,,3,,,71,108
96768,note_on,,,,,4,0,2,,,,,1,,,71,90
96768,note_on,,,,,4,0,9,,,,,7,,,50,60
96768,note_on,,,,,4,0,4,,,,,2,,,78,108
96768,note_on,,,,,4,0,7,,,,,5,,,50,92
97052,note_off,,,,,284,0,9,,,,,7,,,50,0
97052,note_off,,,,,284,0,5,,,,,3,,,71,0
97052,note_off,,,,,284,0,2,,,,,1,,,71,0
97052,note_off,,,,,284,0,3,,,,,8,,,50,0
97052,note_off,,,,,284,0,1,,,,,0,,,78,0
97052,note_off,,,,,284,0,8,,,,,6,,,38,0
97052,note_off,,,,,284,0,10,,,,,7,,,50,0
97052,note_off,,,,,284,0,4,,,,,2,,,78,0
97052,note_off,,,,,284,0,7,,,,,5,,,50,0
97052,note_off,,,,,284,0,6,,,,,4,,,62,0
97052,note_off,,,,,0,0,10,,,,,7,,,59,0
97056,note_on,,,,,4,0,8,,,,,6,,,38,92
97056,note_on,,,,,4,0,9,,,,,7,,,50,60
97056,note_on,,,,,4,0,1,,,,,0,,,78,90
97056,note_on,,,,,4,0,5,,,,,3,,,71,108
97056,note_on,,,,,4,0,4,,,,,2,,,78,108
97056,note_on,,,,,4,0,6,,,,,4,,,62,92
97056,note_on,,,,,4,0,7,,,,,5,,,50,92
97056,note_on,,,,,4,0,2,,,,,1,,,71,90
97056,note_on,,,,,4,0,10,,,,,7,,,50,60
97056,note_on,,,,,4,0,3,,,,,8,,,50,92
97148,note_off,,,,,92,0,10,,,,,7,,,50,0
97148,note_off,,,,,92,0,4,,,,,2,,,78,0
97148,note_off,,,,,92,0,6,,,,,4,,,62,0
97148,note_off,,,,,92,0,8,,,,,6,,,38,0
97148,note_off,,,,,92,0,7,,,,,5,,,50,0
97148,note_off,,,,,92,0,3,,,,,8,,,50,0
97148,note_off,,,,,92,0,1,,,,,0,,,78,0
97148,note_off,,,,,92,0,9,,,,,7,,,50,0
97148,note_off,,,,,92,0,5,,,,,3,,,71,0
97148,note_off,,,,,92,0,2,,,,,1,,,71,0
97152,note_on,,,,,4,0,10,,,,,7,,,52,60
97152,note_on,,,,,4,0,5,,,,,3,,,71,108
97152,note_on,,,,,4,0,4,,,,,2,,,79,108
97152,note_on,,,,,4,0,2,,,,,1,,,71,90
97152,note_on,,,,,4,0,6,,,,,4,,,67,92
97152,note_on,,,,,4,0,7,,,,,5,,,52,92
97152,note_on,,,,,4,0,1,,,,,0,,,79,90
97152,note_on,,,,,4,0,8,,,,,6,,,40,92
97152,note_on,,,,,4,0,3,,,,,8,,,52,92
97152,note_on,,,,,4,0,9,,,,,7,,,52,60
97436,note_off,,,,,284,0,7,,,,,5,,,52,0
97436,note_off,,,,,284,0,8,,,,,6,,,40,0
97436,note_off,,,,,284,0,10,,,,,7,,,52,0
97436,note_off,,,,,284,0,6,,,,,4,,,67,0
97436,note_off,,,,,284,0,9,,,,,7,,,52,0
97436,note_off,,,,,284,0,5,,,,,3,,,71,0
97436,note_off,,,,,284,0,4,,,,,2,,,79,0
97436,note_off,,,,,284,0,2,,,,,1,,,71,0
97436,note_off,,,,,284,0,3,,,,,8,,,52,0
97436,note_off,,,,,284,0,1,,,,,0,,,79,0
97440,note_on,,,,,4,0,8,,,,,6,,,40,92
97440,note_on,,,,,4,0,10,,,,,7,,,52,60
97440,note_on,,,,,4,0,1,,,,,0,,,79,90
97440,note_on,,,,,4,0,4,,,,,2,,,79,108
97440,note_on,,,,,4,0,2,,,,,1,,,71,90
97440,note_on,,,,,4,0,5,,,,,3,,,71,108
97440,note_on,,,,,4,0,6,,,,,4,,,67,92
97440,note_on,,,,,4,0,9,,,,,7,,,52,60
97440,note_on,,,,,4,0,7,,,,,5,,,52,92
97440,note_on,,,,,4,0,3,,,,,8,,,52,92
97532,note_off,,,,,92,0,10,,,,,7,,,52,0
97532,note_off,,,,,92,0,5,,,,,3,,,71,0
97532,note_off,,,,,92,0,8,,,,,6,,,40,0
97532,note_off,,,,,92,0,7,,,,,5,,,52,0
97532,note_off,,,,,92,0,3,,,,,8,,,52,0
97532,note_off,,,,,92,0,4,,,,,2,,,79,0
97532,note_off,,,,,92,0,1,,,,,0,,,79,0
97532,note_off,,,,,92,0,2,,,,,1,,,71,0
97532,note_off,,,,,92,0,9,,,,,7,,,52,0
97532,note_off,,,,,92,0,6,,,,,4,,,67,0
97536,note_on,,,,,4,0,3,,,,,8,,,42,127
97536,note_on,,,,,4,0,5,,,,,3,,,66,127
97536,note_on,,,,,4,0,1,,,,,0,,,70,106
97536,note_on,,,,,4,0,9,,,,,7,,,42,84
97536,note_on,,,,,4,0,7,,,,,5,,,42,127
97536,note_on,,,,,4,0,4,,,,,2,,,70,127
97536,note_on,,,,,4,0,10,,,,,7,,,42,84
97536,note_on,,,,,4,0,2,,,,,1,,,66,106
97536,note_on,,,,,4,0,8,,,,,6,,,30,127
97536,note_on,,,,,4,0,6,,,,,4,,,61,127
97856,note_off,,,,,320,0,10,,,,,7,,,42,0
97856,note_off,,,,,320,0,9,,,,,7,,,42,0
97856,note_off,,,,,320,0,7,,,,,5,,,42,0
97856,note_off,,,,,320,0,4,,,,,2,,,70,0
97856,note_off,,,,,320,0,3,,,,,8,,,42,0
97856,note_off,,,,,320,0,2,,,,,1,,,66,0
97856,note_off,,,,,320,0,8,,,,,6,,,30,0
97856,note_off,,,,,320,0,1,,,,,0,,,70,0
97856,note_off,,,,,320,0,6,,,,,4,,,61,0
97856,note_off,,,,,320,0,5,,,,,3,,,66,0
98304,note_on,,,,,448,0,9,,,,,7,,,42,60
98304,end_of_track,,,,,0,1,0,,,,,,,,,
98304,set_tempo,,,,,98304,1,0,,750000,,,,,,,
98304,note_on,,,,,448,0,10,,,,,7,,,42,60
98348,note_off,,,,,44,0,10,,,,,7,,,42,0
98352,note_on,,,,,4,0,10,,,,,7,,,43,60
98396,note_off,,,,,44,0,10,,,,,7,,,43,0
98400,note_on,,,,,4,0,10,,,,,7,,,45,60
98444,note_off,,,,,44,0,10,,,,,7,,,45,0
98448,note_on,,,,,4,0,10,,,,,7,,,47,60
98492,note_off,,,,,44,0,10,,,,,7,,,47,0
98496,note_on,,,,,4,0,10,,,,,7,,,49,60
98540,note_off,,,,,44,0,10,,,,,7,,,49,0
98544,note_on,,,,,4,0,10,,,,,7,,,50,60
98588,note_off,,,,,44,0,10,,,,,7,,,50,0
98592,note_on,,,,,4,0,10,,,,,7,,,52,60
98636,note_off,,,,,44,0,10,,,,,7,,,52,0
98640,note_on,,,,,4,0,10,,,,,7,,,54,60
98976,note_off,,,,,672,0,9,,,,,7,,,42,0
99008,note_off,,,,,368,0,10,,,,,7,,,54,0
99360,note_on,,,,,0,0,10,,,,,7,,,54,60
99360,note_on,,,,,0,0,10,,,,,7,,,58,60
99360,note_on,,,,,352,0,10,,,,,7,,,52,60
99360,note_on,,,,,1504,0,5,,,,,3,,,70,108
99360,note_on,,,,,1504,0,7,,,,,5,,,52,92
99360,note_on,,,,,1504,0,1,,,,,0,,,79,90
99360,note_on,,,,,384,0,9,,,,,7,,,52,60
99360,note_on,,,,,1504,0,2,,,,,1,,,70,90
99360,note_on,,,,,1504,0,4,,,,,2,,,79,108
99360,note_on,,,,,1504,0,3,,,,,8,,,52,92
99360,note_on,,,,,1504,0,6,,,,,4,,,64,92
99360,note_on,,,,,1504,0,8,,,,,6,,,40,92
99452,note_off,,,,,92,0,3,,,,,8,,,52,0
99452,note_off,,,,,92,0,1,,,,,0,,,79,0
99452,note_off,,,,,92,0,2,,,,,1,,,70,0
99452,note_off,,,,,92,0,10,,,,,7,,,52,0
99452,note_off,,,,,0,0,10,,,,,7,,,54,0
99452,note_off,,,,,92,0,6,,,,,4,,,64,0
99452,note_off,,,,,92,0,7,,,,,5,,,52,0
99452,note_off,,,,,92,0,8,,,,,6,,,40,0
99452,note_off,,,,,0,0,10,,,,,7,,,58,0
99452,note_off,,,,,92,0,4,,,,,2,,,79,0
99452,note_off,,,,,92,0,5,,,,,3,,,70,0
99452,note_off,,,,,92,0,9,,,,,7,,,52,0
99456,note_on,,,,,4,0,9,,,,,7,,,50,60
99456,note_on,,,,,4,0,4,,,,,2,,,78,108
99456,note_on,,,,,4,0,1,,,,,0,,,78,90
99456,note_on,,,,,4,0,3,,,,,8,,,50,92
99456,note_on,,,,,4,0,7,,,,,5,,,50,92
99456,note_on,,,,,4,0,5,,,,,3,,,71,108
99456,note_on,,,,,4,0,2,,,,,1,,,71,90
99456,note_on,,,,,4,0,6,,,,,4,,,66,92
99456,note_on,,,,,0,0,10,,,,,7,,,59,60
99456,note_on,,,,,4,0,10,,,,,7,,,50,60
99456,note_on,,,,,4,0,8,,,,,6,,,38,92
99740,note_off,,,,,284,0,5,,,,,3,,,71,0
99740,note_off,,,,,284,0,2,,,,,1,,,71,0
99740,note_off,,,,,284,0,9,,,,,7,,,50,0
99740,note_off,,,,,0,0,10,,,,,7,,,59,0
99740,note_off,,,,,284,0,1,,,,,0,,,78,0
99740,note_off,,,,,284,0,3,,,,,8,,,50,0
99740,note_off,,,,,284,0,4,,,,,2,,,78,0
99740,note_off,,,,,284,0,6,,,,,4,,,66,0
99740,note_off,,,,,284,0,8,,,,,6,,,38,0
99740,note_off,,,,,284,0,10,,,,,7,,,50,0
99740,note_off,,,,,284,0,7,,,,,5,,,50,0
99744,note_on,,,,,4,0,3,,,,,8,,,49,92
99744,note_on,,,,,0,0,10,,,,,7,,,58,60
99744,note_on,,,,,4,0,5,,,,,3,,,73,108
99744,note_on,,,,,4,0,7,,,,,5,,,49,92
99744,note_on,,,,,4,0,10,,,,,7,,,49,60
99744,note_on,,,,,4,0,9,,,,,7,,,49,60
99744,note_on,,,,,4,0,1,,,,,0,,,76,90
99744,note_on,,,,,0,0,10,,,,,7,,,52,60
99744,note_on,,,,,4,0,4,,,,,2,,,76,108
99744,note_on,,,,,4,0,2,,,,,1,,,73,90
99744,note_on,,,,,4,0,6,,,,,4,,,58,92
99744,note_on,,,,,4,0,8,,,,,6,,,37,92
99836,note_off,,,,,92,0,1,,,,,0,,,76,0
99836,note_off,,,,,92,0,2,,,,,1,,,73,0
99836,note_off,,,,,92,0,9,,,,,7,,,49,0
99836,note_off,,,,,92,0,6,,,,,4,,,58,0
99836,note_off,,,,,92,0,8,,,,,6,,,37,0
99836,note_off,,,,,92,0,5,,,,,3,,,73,0
99836,note_off,,,,,92,0,10,,,,,7,,,49,0
99836,note_off,,,,,0,0,10,,,,,7,,,52,0
99836,note_off,,,,,0,0,10,,,,,7,,,58,0
99836,note_off,,,,,92,0,7,,,,,5,,,49,0
99836,note_off,,,,,92,0,4,,,,,2,,,76,0
99836,note_off,,,,,92,0,3,,,,,8,,,49,0
99840,note_on,,,,,4,0,8,,,,,6,,,35,92
99840,note_on,,,,,4,0,9,,,,,7,,,47,60
99840,note_on,,,,,4,0,7,,,,,5,,,47,92
99840,note_on,,,,,4,0,4,,,,,2,,,74,108
99840,note_on,,,,,4,0,5,,,,,3,,,66,108
99840,note_on,,,,,4,0,3,,,,,8,,,47,92
99840,note_on,,,,,4,0,1,,,,,0,,,74,90
99840,note_on,,,,,4,0,10,,,,,7,,,47,60
99840,note_on,,,,,4,0,2,,,,,1,,,66,90
99840,note_on,,,,,4,0,6,,,,,4,,,59,92
100160,note_off,,,,,320,0,2,,,,,1,,,66,0
100160,note_off,,,,,320,0,9,,,,,7,,,47,0
100160,note_off,,,,,320,0,1,,,,,0,,,74,0
100160,note_off,,,,,320,0,7,,,,,5,,,47,0
100160,note_off,,,,,320,0,4,,,,,2,,,74,0
100160,note_off,,,,,320,0,10,,,,,7,,,47,0
100160,note_off,,,,,320,0,6,,,,,4,,,59,0
100160,note_off,,,,,320,0,3,,,,,8,,,47,0
100160,note_off,,,,,320,0,8,,,,,6,,,35,0
100160,note_off,,,,,320,0,5,,,,,3,,,66,0
100224,note_on,,,,,0,0,10,,,,,7,,,59,60
100224,note_on,,,,,64,0,7,,,,,5,,,52,92
100224,note_on,,,,,64,0,1,,,,,0,,,73,90
100224,note_on,,,,,0,0,10,,,,,7,,,61,60
100224,note_on,,,,,64,0,5,,,,,3,,,67,108
100224,note_on,,,,,64,0,6,,,,,4,,,61,92
100224,note_on,,,,,64,0,8,,,,,6,,,40,92
100224,note_on,,,,,64,0,2,,,,,1,,,67,90
100224,note_on,,,,,64,0,9,,,,,7,,,52,60
100224,note_on,,,,,64,0,3,,,,,8,,,52,92
100224,note_on,,,,,64,0,10,,,,,7,,,52,60
100224,note_on,,,,,64,0,4,,,,,2,,,73,108
100508,note_off,,,,,284,0,1,,,,,0,,,73,0
100508,note_off,,,,,284,0,4,,,,,2,,,73,0
100512,note_on,,,,,4,0,1,,,,,0,,,71,90
100512,note_on,,,,,4,0,4,,,,,2,,,71,108
100544,note_off,,,,,320,0,5,,,,,3,,,67,0
100544,note_off,,,,,320,0,8,,,,,6,,,40,0
100544,note_off,,,,,320,0,2,,,,,1,,,67,0
100544,note_off,,,,,320,0,9,,,,,7,,,52,0
100544,note_off,,,,,320,0,7,,,,,5,,,52,0
100544,note_off,,,,,320,0,3,,,,,8,,,52,0
100544,note_off,,,,,320,0,6,,,,,4,,,61,0
100544,note_off,,,,,320,0,10,,,,,7,,,52,0
100544,note_off,,,,,0,0,10,,,,,7,,,61,0
100544,note_off,,,,,0,0,10,,,,,7,,,59,0
100604,note_off,,,,,92,0,4,,,,,2,,,71,0
100604,note_off,,,,,92,0,1,,,,,0,,,71,0
100608,note_on,,,,,64,0,10,,,,,7,,,54,60
100608,note_on,,,,,64,0,5,,,,,3,,,61,108
100608,note_on,,,,,64,0,2,,,,,1,,,61,90
100608,note_on,,,,,4,0,1,,,,,0,,,70,90
100608,note_on,,,,,4,0,4,,,,,2,,,70,108
100608,note_on,,,,,64,0,9,,,,,7,,,54,60
100608,note_on,,,,,64,0,6,,,,,4,,,66,92
100608,note_on,,,,,64,0,3,,,,,8,,,54,92
100608,note_on,,,,,64,0,7,,,,,5,,,54,92
100608,note_on,,,,,64,0,8,,,,,6,,,42,92
100928,note_off,,,,,320,0,10,,,,,7,,,54,0
100928,note_off,,,,,320,0,9,,,,,7,,,54,0
100928,note_off,,,,,320,0,8,,,,,6,,,42,0
100928,note_off,,,,,320,0,7,,,,,5,,,54,0
100928,note_off,,,,,320,0,6,,,,,4,,,66,0
100928,note_off,,,,,320,0,3,,,,,8,,,54,0
100992,note_on,,,,,64,0,9,,,,,7,,,42,60
100992,note_on,,,,,64,0,6,,,,,4,,,66,92
100992,note_on,,,,,64,0,7,,,,,5,,,42,92
100992,note_on,,,,,64,0,10,,,,,7,,,42,60
100992,note_on,,,,,64,0,3,,,,,8,,,42,92
100992,note_on,,,,,64,0,8,,,,,6,,,30,92
101120,note_off,,,,,512,0,5,,,,,3,,,61,0
101120,note_off,,,,,512,0,4,,,,,2,,,70,0
101120,note_off,,,,,512,0,2,,,,,1,,,61,0
101120,note_off,,,,,512,0,1,,,,,0,,,70,0
101184,note_on,,,,,64,0,2,,,,,1,,,66,90
101184,note_on,,,,,64,0,4,,,,,2,,,71,108
101184,note_on,,,,,64,0,1,,,,,0,,,71,90
101184,note_on,,,,,64,0,5,,,,,3,,,66,108
101312,note_off,,,,,320,0,10,,,,,7,,,42,0
101312,note_off,,,,,320,0,7,,,,,5,,,42,0
101312,note_off,,,,,320,0,8,,,,,6,,,30,0
101312,note_off,,,,,320,0,9,,,,,7,,,42,0
101312,note_off,,,,,320,0,3,,,,,8,,,42,0
101312,note_off,,,,,320,0,6,,,,,4,,,66,0
101372,note_off,,,,,188,0,2,,,,,1,,,66,0
101372,note_off,,,,,188,0,4,,,,,2,,,71,0
101372,note_off,,,,,188,0,5,,,,,3,,,66,0
101372,note_off,,,,,188,0,1,,,,,0,,,71,0
101376,note_on,,,,,4,0,5,,,,,3,,,62,108
101376,note_on,,,,,64,0,8,,,,,6,,,35,92
101376,note_on,,,,,4,0,1,,,,,0,,,71,90
101376,note_on,,,,,64,0,9,,,,,7,,,47,60
101376,note_on,,,,,64,0,7,,,,,5,,,47,92
101376,note_on,,,,,4,0,4,,,,,2,,,71,108
101376,note_on,,,,,64,0,3,,,,,8,,,47,92
101376,note_on,,,,,64,0,10,,,,,7,,,47,60
101376,note_on,,,,,4,0,2,,,,,1,,,62,90
101376,note_on,,,,,64,0,6,,,,,4,,,66,92
102816,note_off,,,,,1440,0,8,,,,,6,,,35,0
102816,end_of_track,,,,,0,1,8,,,,,,,,,
102816,end_of_track,,,,,0,1,5,,,,,,,,,
102816,end_of_track,,,,,0,1,1,,,,,,,,,
102816,note_off,,,,,1440,0,10,,,,,7,,,47,0
102816,note_off,,,,,1440,0,5,,,,,3,,,62,0
102816,note_off,,,,,1440,0,4,,,,,2,,,71,0
102816,end_of_track,,,,,0,1,4,,,,,,,,,
102816,note_off,,,,,1440,0,6,,,,,4,,,66,0
102816,end_of_track,,,,,0,1,3,,,,,,,,,
102816,end_of_track,,,,,0,1,2,,,,,,,,,
102816,note_off,,,,,1440,0,2,,,,,1,,,62,0
102816,note_off,,,,,1440,0,9,,,,,7,,,47,0
102816,end_of_track,,,,,0,1,9,,,,,,,,,
102816,note_off,,,,,1440,0,1,,,,,0,,,71,0
102816,end_of_track,,,,,0,1,7,,,,,,,,,
102816,note_off,,,,,1440,0,7,,,,,5,,,47,0
102816,end_of_track,,,,,0,1,6,,,,,,,,,
102816,end_of_track,,,,,0,1,10,,,,,,,,,
102816,note_off,,,,,1440,0,3,,,,,8,,,47,0
