tick,type,numerator,denominator,clocks_per_click,notated_32nd_notes_per_beat,time,meta,track,data,tempo,control,value,channel,program,key,note,velocity
0,time_signature,4,4,96,8,0,1,0,,,,,,,,,
0,key_signature,,,,,0,1,15,,,,,,,C,,
0,track_name,,,,,0,1,5,,,,,,,,,
0,control_change,,,,,0,0,5,,,0,0,4,,,,
0,control_change,,,,,0,0,5,,,10,109,4,,,,
0,control_change,,,,,0,0,5,,,7,127,4,,,,
0,program_change,,,,,0,0,5,,,,,4,41,,,
0,key_signature,,,,,0,1,5,,,,,,,C,,
0,note_on,,,,,0,0,5,,,,,4,,,64,92
0,track_name,,,,,0,1,6,,,,,,,,,
0,control_change,,,,,0,0,6,,,0,0,5,,,,
0,control_change,,,,,0,0,6,,,10,21,5,,,,
0,control_change,,,,,0,0,6,,,7,127,5,,,,
0,program_change,,,,,0,0,6,,,,,5,42,,,
0,key_signature,,,,,0,1,6,,,,,,,C,,
0,note_on,,,,,0,0,6,,,,,5,,,57,92
0,note_on,,,,,0,0,4,,,,,3,,,72,108
0,track_name,,,,,0,1,7,,,,,,,,,
0,key_signature,,,,,0,1,4,,,,,,,C,,
0,control_change,,,,,0,0,4,,,7,127,3,,,,
0,control_change,,,,,0,0,2,,,10,109,1,,,,
0,control_change,,,,,0,0,2,,,7,127,1,,,,
0,program_change,,,,,0,0,2,,,,,1,40,,,
0,key_signature,,,,,0,1,2,,,,,,,C,,
0,note_on,,,,,0,0,2,,,,,1,,,81,92
0,track_name,,,,,0,1,3,,,,,,,,,
0,control_change,,,,,0,0,3,,,0,0,2,,,,
0,control_change,,,,,0,0,3,,,10,21,2,,,,
0,control_change,,,,,0,0,3,,,7,127,2,,,,
0,program_change,,,,,0,0,3,,,,,2,48,,,
0,key_signature,,,,,0,1,3,,,,,,,C,,
0,note_on,,,,,0,0,3,,,,,2,,,81,108
0,track_name,,,,,0,1,4,,,,,,,,,
0,control_change,,,,,0,0,4,,,0,0,3,,,,
0,control_change,,,,,0,0,4,,,10,109,3,,,,
0,program_change,,,,,0,0,4,,,,,3,48,,,
0,control_change,,,,,0,0,2,,,0,0,1,,,,
0,control_change,,,,,0,0,7,,,0,0,6,,,,
0,control_change,,,,,0,0,7,,,7,127,6,,,,
0,key_signature,,,,,0,1,10,,,,,,,C,,
0,end_of_track,,,,,0,1,10,,,,,,,,,
0,track_name,,,,,0,1,11,,,,,,,,,
0,key_signature,,,,,0,1,11,,,,,,,C,,
0,end_of_track,,,,,0,1,11,,,,,,,,,
0,track_name,,,,,0,1,12,,,,,,,,,
0,key_signature,,,,,0,1,12,,,,,,,C,,
0,end_of_track,,,,,0,1,12,,,,,,,,,
0,track_name,,,,,0,1,13,,,,,,,,,
0,key_signature,,,,,0,1,13,,,,,,,C,,
0,end_of_track,,,,,0,1,13,,,,,,,,,
0,track_name,,,,,0,1,14,,,,,,,,,
0,key_signature,,,,,0,1,14,,,,,,,C,,
0,end_of_track,,,,,0,1,14,,,,,,,,,
0,track_name,,,,,0,1,15,,,,,,,,,
0,track_name,,,,,0,1,10,,,,,,,,,
0,control_change,,,,,0,0,7,,,10,64,6,,,,
0,note_on,,,,,0,0,9,,,,,8,,,57,60
0,program_change,,,,,0,0,9,,,,,8,6,,,
0,program_change,,,,,0,0,7,,,,,6,43,,,
0,key_signature,,,,,0,1,7,,,,,,,C,,
0,note_on,,,,,0,0,7,,,,,6,,,45,75
0,track_name,,,,,0,1,8,,,,,,,,,
0,control_change,,,,,0,0,8,,,0,0,7,,,,
0,control_change,,,,,0,0,8,,,10,75,7,,,,
0,control_change,,,,,0,0,8,,,7,127,7,,,,
0,program_change,,,,,0,0,8,,,,,7,6,,,
0,key_signature,,,,,0,1,8,,,,,,,C,,
0,note_on,,,,,0,0,8,,,,,7,,,60,60
0,note_on,,,,,0,0,8,,,,,7,,,64,60
0,track_name,,,,,0,1,9,,,,,,,,,
0,control_change,,,,,0,0,9,,,0,0,8,,,,
0,control_change,,,,,0,0,9,,,10,51,8,,,,
0,control_change,,,,,0,0,9,,,7,127,8,,,,
0,key_signature,,,,,0,1,9,,,,,,,C,,
0,track_name,,,,,0,1,2,,,,,,,,,
0,end_of_track,,,,,0,1,15,,,,,,,,,
0,track_name,,,,,0,1,1,,,,,,,,,
0,control_change,,,,,0,0,1,,,0,0,0,,,,
0,control_change,,,,,0,0,1,,,10,21,0,,,,
0,control_change,,,,,0,0,1,,,7,127,0,,,,
0,program_change,,,,,0,0,1,,,,,0,40,,,
0,key_signature,,,,,0,1,1,,,,,,,C,,
0,set_tempo,,,,,0,1,0,,1578947,,,,,,,
0,note_on,,,,,0,0,1,,,,,0,,,81,92
0,sequencer_specific,,,,,0,1,0,"(0, 0, 65)",,,,,,,,
188,note_off,,,,,188,0,7,,,,,6,,,45,0
188,note_off,,,,,0,0,8,,,,,7,,,64,0
188,note_off,,,,,188,0,8,,,,,7,,,60,0
192,note_off,,,,,192,0,6,,,,,5,,,57,0
192,note_on,,,,,0,0,6,,,,,5,,,57,92
192,note_off,,,,,192,0,4,,,,,3,,,72,0
192,note_on,,,,,0,0,4,,,,,3,,,72,108
192,note_off,,,,,192,0,5,,,,,4,,,64,0
192,note_on,,,,,0,0,9,,,,,8,,,57,60
192,note_off,,,,,192,0,9,,,,,8,,,57,0
192,note_on,,,,,0,0,8,,,,,7,,,64,60
192,note_on,,,,,4,0,8,,,,,7,,,60,60
192,note_on,,,,,4,0,7,,,,,6,,,45,75
192,note_on,,,,,0,0,5,,,,,4,,,64,92
288,note_off,,,,,288,0,2,,,,,1,,,81,0
288,note_on,,,,,0,0,1,,,,,0,,,72,92
288,note_off,,,,,288,0,3,,,,,2,,,81,0
288,note_on,,,,,0,0,3,,,,,2,,,72,108
288,note_off,,,,,288,0,1,,,,,0,,,81,0
288,note_on,,,,,0,0,2,,,,,1,,,72,92
380,note_off,,,,,188,0,4,,,,,3,,,72,0
380,note_off,,,,,188,0,6,,,,,5,,,57,0
380,note_off,,,,,188,0,5,,,,,4,,,64,0
380,note_off,,,,,188,0,8,,,,,7,,,60,0
380,note_off,,,,,0,0,8,,,,,7,,,64,0
380,note_off,,,,,188,0,9,,,,,8,,,57,0
380,note_off,,,,,188,0,7,,,,,6,,,45,0
384,note_on,,,,,4,0,9,,,,,8,,,55,60
384,note_on,,,,,4,0,5,,,,,4,,,64,92
384,note_off,,,,,96,0,1,,,,,0,,,72,0
384,note_on,,,,,4,0,4,,,,,3,,,64,108
384,note_off,,,,,96,0,3,,,,,2,,,72,0
384,note_on,,,,,0,0,3,,,,,2,,,72,108
384,note_on,,,,,4,0,6,,,,,5,,,55,92
384,note_on,,,,,0,0,8,,,,,7,,,64,60
384,note_off,,,,,96,0,2,,,,,1,,,72,0
384,note_on,,,,,4,0,7,,,,,6,,,43,75
384,note_on,,,,,0,0,1,,,,,0,,,72,92
384,note_on,,,,,0,0,2,,,,,1,,,72,92
384,note_on,,,,,4,0,8,,,,,7,,,59,60
480,note_off,,,,,96,0,2,,,,,1,,,72,0
480,note_on,,,,,0,0,1,,,,,0,,,71,92
480,note_on,,,,,0,0,2,,,,,1,,,71,92
480,note_off,,,,,96,0,1,,,,,0,,,72,0
480,note_on,,,,,0,0,3,,,,,2,,,71,108
480,note_off,,,,,96,0,3,,,,,2,,,72,0
572,note_off,,,,,188,0,7,,,,,6,,,43,0
572,note_off,,,,,188,0,4,,,,,3,,,64,0
572,note_off,,,,,0,0,8,,,,,7,,,64,0
572,note_off,,,,,188,0,8,,,,,7,,,59,0
576,note_on,,,,,0,0,1,,,,,0,,,77,92
576,note_off,,,,,192,0,5,,,,,4,,,64,0
576,note_off,,,,,96,0,1,,,,,0,,,71,0
576,note_off,,,,,96,0,3,,,,,2,,,71,0
576,note_on,,,,,0,0,5,,,,,4,,,64,92
576,note_on,,,,,0,0,3,,,,,2,,,77,108
576,note_off,,,,,192,0,6,,,,,5,,,55,0
576,note_on,,,,,0,0,2,,,,,1,,,77,92
576,note_on,,,,,4,0,7,,,,,6,,,43,75
576,note_on,,,,,4,0,8,,,,,7,,,59,60
576,note_off,,,,,96,0,2,,,,,1,,,71,0
576,note_on,,,,,0,0,8,,,,,7,,,64,60
576,note_on,,,,,4,0,4,,,,,3,,,71,108
576,note_off,,,,,192,0,9,,,,,8,,,55,0
576,note_on,,,,,0,0,9,,,,,8,,,55,60
576,note_on,,,,,0,0,6,,,,,5,,,55,92
672,note_on,,,,,0,0,2,,,,,1,,,76,92
672,note_off,,,,,96,0,2,,,,,1,,,77,0
672,note_on,,,,,0,0,1,,,,,0,,,76,92
672,note_off,,,,,96,0,1,,,,,0,,,77,0
672,note_on,,,,,0,0,3,,,,,2,,,76,108
672,note_off,,,,,96,0,3,,,,,2,,,77,0
764,note_off,,,,,188,0,5,,,,,4,,,64,0
764,note_off,,,,,188,0,9,,,,,8,,,55,0
764,note_off,,,,,188,0,8,,,,,7,,,59,0
764,note_off,,,,,188,0,4,,,,,3,,,71,0
764,note_off,,,,,188,0,7,,,,,6,,,43,0
764,note_off,,,,,0,0,8,,,,,7,,,64,0
764,note_off,,,,,188,0,6,,,,,5,,,55,0
768,note_off,,,,,96,0,1,,,,,0,,,76,0
768,note_on,,,,,4,0,5,,,,,4,,,65,92
768,note_on,,,,,0,0,8,,,,,7,,,65,60
768,note_on,,,,,4,0,7,,,,,6,,,41,75
768,note_on,,,,,4,0,8,,,,,7,,,57,60
768,note_on,,,,,0,0,1,,,,,0,,,81,92
768,note_on,,,,,0,0,2,,,,,1,,,81,92
768,note_off,,,,,96,0,2,,,,,1,,,76,0
768,note_on,,,,,0,0,3,,,,,2,,,81,108
768,note_off,,,,,96,0,3,,,,,2,,,76,0
768,note_on,,,,,0,0,8,,,,,7,,,62,60
768,note_on,,,,,4,0,9,,,,,8,,,53,60
768,note_on,,,,,4,0,6,,,,,5,,,53,92
768,note_on,,,,,4,0,4,,,,,3,,,69,108
956,note_off,,,,,188,0,7,,,,,6,,,41,0
956,note_off,,,,,188,0,8,,,,,7,,,57,0
956,note_off,,,,,0,0,8,,,,,7,,,65,0
956,note_off,,,,,0,0,8,,,,,7,,,62,0
960,note_on,,,,,0,0,4,,,,,3,,,69,108
960,note_off,,,,,192,0,4,,,,,3,,,69,0
960,note_on,,,,,0,0,6,,,,,5,,,53,92
960,note_on,,,,,0,0,8,,,,,7,,,62,60
960,note_on,,,,,0,0,8,,,,,7,,,69,60
960,note_off,,,,,192,0,9,,,,,8,,,53,0
960,note_on,,,,,0,0,9,,,,,8,,,53,60
960,note_off,,,,,192,0,5,,,,,4,,,65,0
960,note_on,,,,,0,0,5,,,,,4,,,62,92
960,note_on,,,,,4,0,7,,,,,6,,,41,75
960,note_on,,,,,4,0,8,,,,,7,,,57,60
960,note_off,,,,,192,0,6,,,,,5,,,53,0
1056,note_off,,,,,288,0,2,,,,,1,,,81,0
1056,note_on,,,,,0,0,1,,,,,0,,,72,92
1056,note_on,,,,,0,0,2,,,,,1,,,72,92
1056,note_off,,,,,288,0,1,,,,,0,,,81,0
1056,note_on,,,,,0,0,3,,,,,2,,,72,108
1056,note_off,,,,,288,0,3,,,,,2,,,81,0
1148,note_off,,,,,188,0,9,,,,,8,,,53,0
1148,note_off,,,,,188,0,5,,,,,4,,,62,0
1148,note_off,,,,,188,0,8,,,,,7,,,57,0
1148,note_off,,,,,188,0,7,,,,,6,,,41,0
1148,note_off,,,,,0,0,8,,,,,7,,,62,0
1148,note_off,,,,,0,0,8,,,,,7,,,69,0
1148,note_off,,,,,188,0,6,,,,,5,,,53,0
1152,note_off,,,,,192,0,4,,,,,3,,,69,0
1152,note_on,,,,,0,0,8,,,,,7,,,64,60
1152,note_on,,,,,0,0,8,,,,,7,,,69,60
1152,note_on,,,,,0,0,4,,,,,3,,,69,108
1152,note_on,,,,,4,0,8,,,,,7,,,60,60
1152,note_on,,,,,4,0,9,,,,,8,,,52,60
1152,note_on,,,,,0,0,1,,,,,0,,,72,92
1152,note_on,,,,,4,0,7,,,,,6,,,40,75
1152,note_on,,,,,0,0,2,,,,,1,,,72,92
1152,note_off,,,,,96,0,2,,,,,1,,,72,0
1152,note_off,,,,,96,0,1,,,,,0,,,72,0
1152,note_on,,,,,4,0,6,,,,,5,,,52,92
1152,note_off,,,,,96,0,3,,,,,2,,,72,0
1152,note_on,,,,,0,0,3,,,,,2,,,72,108
1152,note_on,,,,,4,0,5,,,,,4,,,64,92
1248,note_on,,,,,0,0,1,,,,,0,,,71,92
1248,note_on,,,,,0,0,3,,,,,2,,,71,108
1248,note_off,,,,,96,0,3,,,,,2,,,72,0
1248,note_off,,,,,96,0,2,,,,,1,,,72,0
1248,note_on,,,,,0,0,2,,,,,1,,,71,92
1248,note_off,,,,,96,0,1,,,,,0,,,72,0
1340,note_off,,,,,0,0,8,,,,,7,,,69,0
1340,note_off,,,,,188,0,7,,,,,6,,,40,0
1340,note_off,,,,,188,0,8,,,,,7,,,60,0
1340,note_off,,,,,0,0,8,,,,,7,,,64,0
1344,note_off,,,,,192,0,4,,,,,3,,,69,0
1344,note_on,,,,,4,0,7,,,,,6,,,40,75
1344,note_off,,,,,192,0,9,,,,,8,,,52,0
1344,note_on,,,,,0,0,9,,,,,8,,,52,60
1344,note_on,,,,,0,0,2,,,,,1,,,77,92
1344,note_off,,,,,96,0,2,,,,,1,,,71,0
1344,note_off,,,,,96,0,1,,,,,0,,,71,0
1344,note_on,,,,,0,0,1,,,,,0,,,77,92
1344,note_off,,,,,96,0,3,,,,,2,,,71,0
1344,note_on,,,,,0,0,4,,,,,3,,,69,108
1344,note_on,,,,,0,0,6,,,,,5,,,52,92
1344,note_off,,,,,192,0,6,,,,,5,,,52,0
1344,note_on,,,,,0,0,3,,,,,2,,,77,108
1344,note_on,,,,,0,0,5,,,,,4,,,64,92
1344,note_off,,,,,192,0,5,,,,,4,,,64,0
1344,note_on,,,,,4,0,8,,,,,7,,,60,60
1344,note_on,,,,,0,0,8,,,,,7,,,64,60
1344,note_on,,,,,0,0,8,,,,,7,,,69,60
1440,note_off,,,,,96,0,3,,,,,2,,,77,0
1440,note_on,,,,,0,0,1,,,,,0,,,76,92
1440,note_off,,,,,96,0,1,,,,,0,,,77,0
1440,note_off,,,,,96,0,2,,,,,1,,,77,0
1440,note_on,,,,,0,0,2,,,,,1,,,76,92
1440,note_on,,,,,0,0,3,,,,,2,,,76,108
1532,note_off,,,,,188,0,6,,,,,5,,,52,0
1532,note_off,,,,,188,0,8,,,,,7,,,60,0
1532,note_off,,,,,0,0,8,,,,,7,,,64,0
1532,note_off,,,,,188,0,9,,,,,8,,,52,0
1532,note_off,,,,,0,0,8,,,,,7,,,69,0
1532,note_off,,,,,188,0,4,,,,,3,,,69,0
1532,note_off,,,,,188,0,5,,,,,4,,,64,0
1532,note_off,,,,,188,0,7,,,,,6,,,40,0
1536,note_on,,,,,0,0,1,,,,,0,,,81,92
1536,note_on,,,,,4,0,4,,,,,3,,,69,108
1536,note_on,,,,,0,0,3,,,,,2,,,81,108
1536,note_off,,,,,96,0,1,,,,,0,,,76,0
1536,note_on,,,,,0,0,2,,,,,1,,,81,92
1536,note_off,,,,,96,0,2,,,,,1,,,76,0
1536,note_on,,,,,4,0,6,,,,,5,,,50,92
1536,note_on,,,,,4,0,5,,,,,4,,,65,92
1536,note_off,,,,,96,0,3,,,,,2,,,76,0
1536,note_on,,,,,4,0,9,,,,,8,,,50,60
1536,note_on,,,,,4,0,8,,,,,7,,,59,60
1536,note_on,,,,,0,0,8,,,,,7,,,65,60
1536,note_on,,,,,0,0,8,,,,,7,,,69,60
1536,note_on,,,,,4,0,7,,,,,6,,,38,75
1724,note_off,,,,,0,0,8,,,,,7,,,65,0
1724,note_off,,,,,0,0,8,,,,,7,,,69,0
1724,note_off,,,,,188,0,7,,,,,6,,,38,0
1724,note_off,,,,,188,0,8,,,,,7,,,59,0
1728,note_on,,,,,4,0,8,,,,,7,,,59,60
1728,note_on,,,,,0,0,8,,,,,7,,,65,60
1728,note_on,,,,,0,0,8,,,,,7,,,69,60
1728,note_off,,,,,192,0,5,,,,,4,,,65,0
1728,note_on,,,,,0,0,5,,,,,4,,,62,92
1728,note_on,,,,,0,0,9,,,,,8,,,50,60
1728,note_off,,,,,192,0,6,,,,,5,,,50,0
1728,note_on,,,,,0,0,6,,,,,5,,,50,92
1728,note_off,,,,,192,0,4,,,,,3,,,69,0
1728,note_on,,,,,0,0,4,,,,,3,,,69,108
1728,note_on,,,,,4,0,7,,,,,6,,,38,75
1728,note_off,,,,,192,0,9,,,,,8,,,50,0
1824,note_off,,,,,288,0,3,,,,,2,,,81,0
1824,note_on,,,,,0,0,3,,,,,2,,,77,108
1824,note_off,,,,,288,0,1,,,,,0,,,81,0
1824,note_off,,,,,288,0,2,,,,,1,,,81,0
1824,note_on,,,,,0,0,2,,,,,1,,,77,92
1824,note_on,,,,,0,0,1,,,,,0,,,77,92
1916,note_off,,,,,0,0,8,,,,,7,,,69,0
1916,note_off,,,,,0,0,8,,,,,7,,,65,0
1916,note_off,,,,,188,0,7,,,,,6,,,38,0
1916,note_off,,,,,188,0,8,,,,,7,,,59,0
1916,note_off,,,,,188,0,9,,,,,8,,,50,0
1916,note_off,,,,,188,0,6,,,,,5,,,50,0
1916,note_off,,,,,188,0,4,,,,,3,,,69,0
1916,note_off,,,,,188,0,5,,,,,4,,,62,0
1920,note_on,,,,,0,0,8,,,,,7,,,64,60
1920,note_on,,,,,4,0,8,,,,,7,,,59,60
1920,note_on,,,,,0,0,3,,,,,2,,,77,108
1920,note_off,,,,,96,0,3,,,,,2,,,77,0
1920,note_on,,,,,4,0,4,,,,,3,,,68,108
1920,note_on,,,,,4,0,5,,,,,4,,,59,92
1920,note_on,,,,,0,0,1,,,,,0,,,77,92
1920,note_off,,,,,96,0,1,,,,,0,,,77,0
1920,note_on,,,,,4,0,6,,,,,5,,,52,92
1920,note_on,,,,,4,0,7,,,,,6,,,40,75
1920,note_on,,,,,0,0,2,,,,,1,,,77,92
1920,note_off,,,,,96,0,2,,,,,1,,,77,0
1920,note_on,,,,,0,0,8,,,,,7,,,68,60
1920,note_on,,,,,4,0,9,,,,,8,,,52,60
2016,note_on,,,,,0,0,1,,,,,0,,,76,92
2016,note_off,,,,,96,0,1,,,,,0,,,77,0
2016,note_off,,,,,96,0,3,,,,,2,,,77,0
2016,note_on,,,,,0,0,3,,,,,2,,,76,108
2016,note_on,,,,,0,0,2,,,,,1,,,76,92
2016,note_off,,,,,96,0,2,,,,,1,,,77,0
2108,note_off,,,,,188,0,7,,,,,6,,,40,0
2108,note_off,,,,,188,0,8,,,,,7,,,59,0
2108,note_off,,,,,0,0,8,,,,,7,,,64,0
2108,note_off,,,,,0,0,8,,,,,7,,,68,0
2112,note_off,,,,,192,0,5,,,,,4,,,59,0
2112,note_on,,,,,0,0,5,,,,,4,,,64,92
2112,note_off,,,,,192,0,4,,,,,3,,,68,0
2112,note_on,,,,,0,0,4,,,,,3,,,71,108
2112,note_off,,,,,192,0,9,,,,,8,,,52,0
2112,note_on,,,,,0,0,9,,,,,8,,,56,60
2112,note_off,,,,,96,0,3,,,,,2,,,76,0
2112,note_on,,,,,0,0,3,,,,,2,,,76,108
2112,note_on,,,,,0,0,1,,,,,0,,,76,92
2112,note_on,,,,,4,0,8,,,,,7,,,59,60
2112,note_off,,,,,96,0,1,,,,,0,,,76,0
2112,note_off,,,,,192,0,6,,,,,5,,,52,0
2112,note_off,,,,,96,0,2,,,,,1,,,76,0
2112,note_on,,,,,0,0,2,,,,,1,,,76,92
2112,note_on,,,,,0,0,8,,,,,7,,,64,60
2112,note_on,,,,,4,0,7,,,,,6,,,44,75
2112,note_on,,,,,0,0,6,,,,,5,,,56,92
2208,note_on,,,,,0,0,3,,,,,2,,,86,108
2208,note_on,,,,,0,0,2,,,,,1,,,86,92
2208,note_off,,,,,96,0,2,,,,,1,,,76,0
2208,note_off,,,,,96,0,1,,,,,0,,,76,0
2208,note_off,,,,,96,0,3,,,,,2,,,76,0
2208,note_on,,,,,0,0,1,,,,,0,,,86,92
2300,note_off,,,,,188,0,6,,,,,5,,,56,0
2300,note_off,,,,,188,0,9,,,,,8,,,56,0
2300,note_off,,,,,188,0,7,,,,,6,,,44,0
2300,note_off,,,,,188,0,5,,,,,4,,,64,0
2300,note_off,,,,,188,0,8,,,,,7,,,59,0
2300,note_off,,,,,0,0,8,,,,,7,,,64,0
2300,note_off,,,,,188,0,4,,,,,3,,,71,0
2304,note_on,,,,,4,0,9,,,,,8,,,57,60
2304,note_on,,,,,4,0,6,,,,,5,,,57,92
2304,note_on,,,,,0,0,3,,,,,2,,,84,108
2304,note_off,,,,,96,0,3,,,,,2,,,86,0
2304,note_on,,,,,4,0,4,,,,,3,,,72,108
2304,note_on,,,,,0,0,2,,,,,1,,,84,92
2304,note_on,,,,,0,0,8,,,,,7,,,64,60
2304,note_off,,,,,96,0,2,,,,,1,,,86,0
2304,note_off,,,,,96,0,1,,,,,0,,,86,0
2304,note_on,,,,,4,0,5,,,,,4,,,64,92
2304,note_on,,,,,4,0,7,,,,,6,,,45,75
2304,note_on,,,,,0,0,1,,,,,0,,,84,92
2304,note_on,,,,,4,0,8,,,,,7,,,60,60
2400,note_on,,,,,0,0,1,,,,,0,,,76,92
2400,note_off,,,,,96,0,1,,,,,0,,,84,0
2400,note_on,,,,,0,0,2,,,,,1,,,76,92
2400,note_off,,,,,96,0,2,,,,,1,,,84,0
2400,note_off,,,,,96,0,3,,,,,2,,,84,0
2400,note_on,,,,,0,0,3,,,,,2,,,76,108
2492,note_off,,,,,188,0,4,,,,,3,,,72,0
2492,note_off,,,,,188,0,7,,,,,6,,,45,0
2492,note_off,,,,,188,0,8,,,,,7,,,60,0
2496,note_on,,,,,0,0,3,,,,,2,,,83,108
2496,note_off,,,,,96,0,1,,,,,0,,,76,0
2496,note_off,,,,,192,0,5,,,,,4,,,64,0
2496,note_on,,,,,0,0,9,,,,,8,,,55,60
2496,note_on,,,,,0,0,5,,,,,4,,,64,92
2496,note_off,,,,,96,0,3,,,,,2,,,76,0
2496,note_on,,,,,0,0,2,,,,,1,,,83,92
2496,note_on,,,,,4,0,8,,,,,7,,,59,60
2496,note_on,,,,,0,0,6,,,,,5,,,55,92
2496,note_off,,,,,192,0,6,,,,,5,,,57,0
2496,note_on,,,,,4,0,4,,,,,3,,,64,108
2496,note_on,,,,,0,0,1,,,,,0,,,83,92
2496,note_on,,,,,4,0,7,,,,,6,,,43,75
2496,note_off,,,,,96,0,2,,,,,1,,,76,0
2496,note_off,,,,,192,0,9,,,,,8,,,57,0
2592,note_off,,,,,96,0,2,,,,,1,,,83,0
2592,note_on,,,,,0,0,2,,,,,1,,,84,92
2592,note_off,,,,,96,0,1,,,,,0,,,83,0
2592,note_on,,,,,0,0,3,,,,,2,,,84,108
2592,note_on,,,,,0,0,1,,,,,0,,,84,92
2592,note_off,,,,,96,0,3,,,,,2,,,83,0
2684,note_off,,,,,188,0,5,,,,,4,,,64,0
2684,note_off,,,,,188,0,8,,,,,7,,,59,0
2684,note_off,,,,,188,0,4,,,,,3,,,64,0
2684,note_off,,,,,188,0,9,,,,,8,,,55,0
2684,note_off,,,,,188,0,6,,,,,5,,,55,0
2684,note_off,,,,,188,0,7,,,,,6,,,43,0
2688,note_on,,,,,4,0,5,,,,,4,,,57,92
2688,note_off,,,,,96,0,1,,,,,0,,,84,0
2688,note_on,,,,,4,0,4,,,,,3,,,64,108
2688,note_on,,,,,0,0,1,,,,,0,,,81,92
2688,note_on,,,,,0,0,3,,,,,2,,,81,108
2688,note_off,,,,,96,0,3,,,,,2,,,84,0
2688,note_on,,,,,4,0,9,,,,,8,,,53,60
2688,note_off,,,,,96,0,2,,,,,1,,,84,0
2688,note_on,,,,,0,0,2,,,,,1,,,81,92
2688,note_on,,,,,4,0,8,,,,,7,,,57,60
2688,note_on,,,,,4,0,7,,,,,6,,,41,75
2688,note_on,,,,,4,0,6,,,,,5,,,53,92
2816,note_off,,,,,128,0,8,,,,,7,,,64,0
2876,note_off,,,,,188,0,4,,,,,3,,,64,0
2880,note_on,,,,,64,0,8,,,,,7,,,62,60
2880,note_on,,,,,4,0,4,,,,,3,,,62,108
2976,note_on,,,,,0,0,1,,,,,0,,,80,92
2976,note_on,,,,,0,0,2,,,,,1,,,80,92
2976,note_on,,,,,0,0,3,,,,,2,,,80,108
2976,note_off,,,,,288,0,2,,,,,1,,,81,0
2976,note_off,,,,,288,0,3,,,,,2,,,81,0
2976,note_off,,,,,288,0,1,,,,,0,,,81,0
3008,note_off,,,,,320,0,6,,,,,5,,,53,0
3008,note_off,,,,,320,0,5,,,,,4,,,57,0
3008,note_off,,,,,320,0,9,,,,,8,,,53,0
3008,note_off,,,,,320,0,7,,,,,6,,,41,0
3068,note_off,,,,,188,0,4,,,,,3,,,62,0
3068,note_off,,,,,0,0,8,,,,,7,,,62,0
3068,note_off,,,,,188,0,8,,,,,7,,,57,0
3072,note_on,,,,,64,0,7,,,,,6,,,40,75
3072,note_off,,,,,96,0,2,,,,,1,,,80,0
3072,note_off,,,,,96,0,3,,,,,2,,,80,0
3072,note_on,,,,,0,0,3,,,,,2,,,80,108
3072,note_on,,,,,0,0,2,,,,,1,,,80,92
3072,note_on,,,,,0,0,8,,,,,7,,,64,60
3072,note_on,,,,,0,0,8,,,,,7,,,59,60
3072,note_on,,,,,4,0,8,,,,,7,,,56,60
3072,note_off,,,,,96,0,1,,,,,0,,,80,0
3072,note_on,,,,,4,0,4,,,,,3,,,64,108
3072,note_on,,,,,64,0,5,,,,,4,,,59,92
3072,note_on,,,,,64,0,6,,,,,5,,,52,92
3072,note_on,,,,,64,0,9,,,,,8,,,52,60
3072,note_on,,,,,0,0,1,,,,,0,,,80,92
3392,note_off,,,,,320,0,4,,,,,3,,,64,0
3392,note_off,,,,,320,0,8,,,,,7,,,56,0
3392,note_off,,,,,0,0,8,,,,,7,,,59,0
3392,note_off,,,,,0,0,8,,,,,7,,,64,0
3392,note_off,,,,,320,0,5,,,,,4,,,59,0
3392,note_off,,,,,320,0,6,,,,,5,,,52,0
3392,note_off,,,,,320,0,7,,,,,6,,,40,0
3392,note_off,,,,,320,0,9,,,,,8,,,52,0
3456,note_off,,,,,384,0,2,,,,,1,,,80,0
3456,note_off,,,,,384,0,3,,,,,2,,,80,0
3456,note_off,,,,,384,0,1,,,,,0,,,80,0
3648,note_on,,,,,192,0,1,,,,,0,,,64,92
3648,note_on,,,,,192,0,2,,,,,1,,,64,92
3648,note_on,,,,,192,0,3,,,,,2,,,64,108
3840,note_off,,,,,192,0,2,,,,,1,,,64,0
3840,note_on,,,,,0,0,2,,,,,1,,,72,92
3840,note_on,,,,,0,0,1,,,,,0,,,72,92
3840,note_off,,,,,192,0,1,,,,,0,,,64,0
3840,note_off,,,,,192,0,3,,,,,2,,,64,0
3840,note_on,,,,,0,0,3,,,,,2,,,72,108
3936,note_off,,,,,96,0,2,,,,,1,,,72,0
3936,note_on,,,,,0,0,2,,,,,1,,,71,92
3936,note_on,,,,,0,0,1,,,,,0,,,71,92
3936,note_on,,,,,0,0,3,,,,,2,,,71,108
3936,note_off,,,,,96,0,3,,,,,2,,,72,0
3936,note_off,,,,,96,0,1,,,,,0,,,72,0
4032,note_off,,,,,96,0,1,,,,,0,,,71,0
4032,note_off,,,,,96,0,2,,,,,1,,,71,0
4032,note_on,,,,,0,0,2,,,,,1,,,76,92
4032,note_on,,,,,0,0,3,,,,,2,,,76,108
4032,note_on,,,,,0,0,1,,,,,0,,,76,92
4032,note_off,,,,,96,0,3,,,,,2,,,71,0
4128,note_off,,,,,96,0,2,,,,,1,,,76,0
4128,note_on,,,,,0,0,2,,,,,1,,,74,92
4128,note_off,,,,,96,0,3,,,,,2,,,76,0
4128,note_on,,,,,0,0,1,,,,,0,,,74,92
4128,note_off,,,,,96,0,1,,,,,0,,,76,0
4128,note_on,,,,,0,0,3,,,,,2,,,74,108
4224,note_on,,,,,0,0,2,,,,,1,,,77,92
4224,note_off,,,,,96,0,2,,,,,1,,,74,0
4224,note_on,,,,,0,0,1,,,,,0,,,77,92
4224,note_on,,,,,0,0,3,,,,,2,,,77,108
4224,note_off,,,,,96,0,3,,,,,2,,,74,0
4224,note_off,,,,,96,0,1,,,,,0,,,74,0
4320,note_on,,,,,0,0,3,,,,,2,,,76,108
4320,note_on,,,,,0,0,2,,,,,1,,,76,92
4320,note_off,,,,,96,0,2,,,,,1,,,77,0
4320,note_on,,,,,0,0,1,,,,,0,,,76,92
4320,note_off,,,,,96,0,1,,,,,0,,,77,0
4320,note_off,,,,,96,0,3,,,,,2,,,77,0
4416,note_on,,,,,0,0,2,,,,,1,,,81,92
4416,note_on,,,,,0,0,3,,,,,2,,,81,108
4416,note_off,,,,,96,0,3,,,,,2,,,76,0
4416,note_off,,,,,96,0,2,,,,,1,,,76,0
4416,note_off,,,,,96,0,1,,,,,0,,,76,0
4416,note_on,,,,,0,0,1,,,,,0,,,81,92
4512,note_off,,,,,96,0,1,,,,,0,,,81,0
4512,note_on,,,,,0,0,1,,,,,0,,,79,92
4512,note_on,,,,,0,0,2,,,,,1,,,79,92
4512,note_off,,,,,96,0,2,,,,,1,,,81,0
4512,note_on,,,,,0,0,3,,,,,2,,,79,108
4512,note_off,,,,,96,0,3,,,,,2,,,81,0
4608,note_off,,,,,96,0,2,,,,,1,,,79,0
4608,note_on,,,,,0,0,3,,,,,2,,,84,108
4608,note_off,,,,,96,0,3,,,,,2,,,79,0
4608,note_on,,,,,0,0,2,,,,,1,,,84,92
4608,note_on,,,,,1216,0,5,,,,,4,,,64,92
4608,note_on,,,,,1216,0,8,,,,,7,,,64,60
4608,note_on,,,,,1216,0,6,,,,,5,,,60,92
4608,note_on,,,,,1216,0,4,,,,,3,,,67,108
4608,note_on,,,,,1216,0,7,,,,,6,,,48,75
4608,note_on,,,,,1216,0,9,,,,,8,,,60,60
4608,note_on,,,,,0,0,1,,,,,0,,,84,92
4608,note_off,,,,,96,0,1,,,,,0,,,79,0
4608,note_on,,,,,0,0,8,,,,,7,,,67,60
4796,note_off,,,,,188,0,8,,,,,7,,,64,0
4796,note_off,,,,,188,0,4,,,,,3,,,67,0
4796,note_off,,,,,0,0,8,,,,,7,,,67,0
4796,note_off,,,,,188,0,7,,,,,6,,,48,0
4796,note_off,,,,,188,0,9,,,,,8,,,60,0
4796,note_off,,,,,188,0,6,,,,,5,,,60,0
4800,note_on,,,,,4,0,6,,,,,5,,,60,92
4800,note_off,,,,,192,0,5,,,,,4,,,64,0
4800,note_on,,,,,0,0,5,,,,,4,,,64,92
4800,note_on,,,,,4,0,7,,,,,6,,,48,75
4800,note_on,,,,,4,0,9,,,,,8,,,60,60
4800,note_on,,,,,0,0,8,,,,,7,,,67,60
4800,note_on,,,,,4,0,8,,,,,7,,,64,60
4800,note_on,,,,,4,0,4,,,,,3,,,67,108
4896,note_off,,,,,288,0,1,,,,,0,,,84,0
4896,note_on,,,,,0,0,1,,,,,0,,,76,92
4896,note_off,,,,,288,0,3,,,,,2,,,84,0
4896,note_on,,,,,0,0,3,,,,,2,,,76,108
4896,note_on,,,,,0,0,2,,,,,1,,,76,92
4896,note_off,,,,,288,0,2,,,,,1,,,84,0
4988,note_off,,,,,188,0,4,,,,,3,,,67,0
4988,note_off,,,,,188,0,7,,,,,6,,,48,0
4988,note_off,,,,,188,0,5,,,,,4,,,64,0
4988,note_off,,,,,188,0,8,,,,,7,,,64,0
4988,note_off,,,,,188,0,9,,,,,8,,,60,0
4988,note_off,,,,,0,0,8,,,,,7,,,67,0
4988,note_off,,,,,188,0,6,,,,,5,,,60,0
4992,note_on,,,,,4,0,6,,,,,5,,,59,92
4992,note_on,,,,,4,0,5,,,,,4,,,67,92
4992,note_on,,,,,0,0,3,,,,,2,,,76,108
4992,note_on,,,,,4,0,4,,,,,3,,,67,108
4992,note_on,,,,,0,0,1,,,,,0,,,76,92
4992,note_off,,,,,96,0,3,,,,,2,,,76,0
4992,note_on,,,,,4,0,7,,,,,6,,,47,75
4992,note_off,,,,,96,0,2,,,,,1,,,76,0
4992,note_on,,,,,4,0,9,,,,,8,,,59,60
4992,note_off,,,,,96,0,1,,,,,0,,,76,0
4992,note_on,,,,,0,0,2,,,,,1,,,76,92
4992,note_on,,,,,4,0,8,,,,,7,,,62,60
4992,note_on,,,,,0,0,8,,,,,7,,,67,60
5088,note_on,,,,,0,0,2,,,,,1,,,74,92
5088,note_off,,,,,96,0,2,,,,,1,,,76,0
5088,note_off,,,,,96,0,3,,,,,2,,,76,0
5088,note_on,,,,,0,0,1,,,,,0,,,74,92
5088,note_off,,,,,96,0,1,,,,,0,,,76,0
5088,note_on,,,,,0,0,3,,,,,2,,,74,108
5180,note_off,,,,,0,0,8,,,,,7,,,67,0
5180,note_off,,,,,188,0,6,,,,,5,,,59,0
5180,note_off,,,,,188,0,4,,,,,3,,,67,0
5180,note_off,,,,,188,0,8,,,,,7,,,62,0
5180,note_off,,,,,188,0,9,,,,,8,,,59,0
5180,note_off,,,,,188,0,7,,,,,6,,,47,0
5184,note_off,,,,,192,0,5,,,,,4,,,67,0
5184,note_on,,,,,0,0,5,,,,,4,,,62,92
5184,note_off,,,,,96,0,1,,,,,0,,,74,0
5184,note_on,,,,,0,0,1,,,,,0,,,81,92
5184,note_on,,,,,4,0,8,,,,,7,,,62,60
5184,note_on,,,,,0,0,8,,,,,7,,,67,60
5184,note_on,,,,,4,0,4,,,,,3,,,67,108
5184,note_off,,,,,96,0,3,,,,,2,,,74,0
5184,note_on,,,,,0,0,3,,,,,2,,,81,108
5184,note_on,,,,,4,0,7,,,,,6,,,47,75
5184,note_on,,,,,4,0,6,,,,,5,,,59,92
5184,note_on,,,,,4,0,9,,,,,8,,,59,60
5184,note_off,,,,,96,0,2,,,,,1,,,74,0
5184,note_on,,,,,0,0,2,,,,,1,,,81,92
5280,note_off,,,,,96,0,1,,,,,0,,,81,0
5280,note_on,,,,,0,0,1,,,,,0,,,79,92
5280,note_off,,,,,96,0,3,,,,,2,,,81,0
5280,note_on,,,,,0,0,3,,,,,2,,,79,108
5280,note_off,,,,,96,0,2,,,,,1,,,81,0
5280,note_on,,,,,0,0,2,,,,,1,,,79,92
5372,note_off,,,,,188,0,6,,,,,5,,,59,0
5372,note_off,,,,,188,0,4,,,,,3,,,67,0
5372,note_off,,,,,188,0,9,,,,,8,,,59,0
5372,note_off,,,,,188,0,7,,,,,6,,,47,0
5372,note_off,,,,,188,0,5,,,,,4,,,62,0
5372,note_off,,,,,0,0,8,,,,,7,,,67,0
5372,note_off,,,,,188,0,8,,,,,7,,,62,0
5376,note_off,,,,,96,0,1,,,,,0,,,79,0
5376,note_on,,,,,4,0,7,,,,,6,,,45,75
5376,note_on,,,,,4,0,4,,,,,3,,,65,108
5376,note_on,,,,,0,0,1,,,,,0,,,84,92
5376,note_on,,,,,4,0,6,,,,,5,,,57,92
5376,note_on,,,,,4,0,5,,,,,4,,,60,92
5376,note_on,,,,,0,0,3,,,,,2,,,84,108
5376,note_on,,,,,4,0,9,,,,,8,,,57,60
5376,note_off,,,,,96,0,3,,,,,2,,,79,0
5376,note_on,,,,,0,0,2,,,,,1,,,84,92
5376,note_off,,,,,96,0,2,,,,,1,,,79,0
5376,note_on,,,,,4,0,8,,,,,7,,,60,60
5376,note_on,,,,,0,0,8,,,,,7,,,65,60
5564,note_off,,,,,188,0,9,,,,,8,,,57,0
5564,note_off,,,,,188,0,8,,,,,7,,,60,0
5564,note_off,,,,,188,0,7,,,,,6,,,45,0
5564,note_off,,,,,188,0,6,,,,,5,,,57,0
5564,note_off,,,,,0,0,8,,,,,7,,,65,0
5564,note_off,,,,,188,0,4,,,,,3,,,65,0
5568,note_off,,,,,192,0,5,,,,,4,,,60,0
5568,note_on,,,,,4,0,6,,,,,5,,,57,92
5568,note_on,,,,,4,0,4,,,,,3,,,65,108
5568,note_on,,,,,0,0,8,,,,,7,,,65,60
5568,note_on,,,,,0,0,5,,,,,4,,,60,92
5568,note_on,,,,,4,0,8,,,,,7,,,60,60
5568,note_on,,,,,4,0,7,,,,,6,,,45,75
5568,note_on,,,,,4,0,9,,,,,8,,,57,60
5664,note_on,,,,,0,0,2,,,,,1,,,77,92
5664,note_off,,,,,288,0,1,,,,,0,,,84,0
5664,note_on,,,,,0,0,3,,,,,2,,,77,108
5664,note_off,,,,,288,0,3,,,,,2,,,84,0
5664,note_off,,,,,288,0,2,,,,,1,,,84,0
5664,note_on,,,,,0,0,1,,,,,0,,,77,92
5756,note_off,,,,,188,0,6,,,,,5,,,57,0
5756,note_off,,,,,188,0,4,,,,,3,,,65,0
5756,note_off,,,,,188,0,9,,,,,8,,,57,0
5756,note_off,,,,,188,0,5,,,,,4,,,60,0
5756,note_off,,,,,188,0,7,,,,,6,,,45,0
5756,note_off,,,,,188,0,8,,,,,7,,,60,0
5756,note_off,,,,,0,0,8,,,,,7,,,65,0
5760,note_on,,,,,4,0,4,,,,,3,,,67,108
5760,note_on,,,,,4,0,5,,,,,4,,,60,92
5760,note_off,,,,,96,0,3,,,,,2,,,77,0
5760,note_on,,,,,0,0,3,,,,,2,,,77,108
5760,note_on,,,,,0,0,2,,,,,1,,,77,92
5760,note_off,,,,,96,0,1,,,,,0,,,77,0
5760,note_on,,,,,0,0,1,,,,,0,,,77,92
5760,note_on,,,,,4,0,8,,,,,7,,,60,60
5760,note_on,,,,,0,0,8,,,,,7,,,64,60
5760,note_on,,,,,4,0,6,,,,,5,,,55,92
5760,note_on,,,,,0,0,8,,,,,7,,,67,60
5760,note_on,,,,,4,0,9,,,,,8,,,55,60
5760,note_off,,,,,96,0,2,,,,,1,,,77,0
5760,note_on,,,,,4,0,7,,,,,6,,,43,75
5856,note_off,,,,,96,0,2,,,,,1,,,77,0
5856,note_on,,,,,0,0,3,,,,,2,,,76,108
5856,note_off,,,,,96,0,3,,,,,2,,,77,0
5856,note_on,,,,,0,0,1,,,,,0,,,76,92
5856,note_off,,,,,96,0,1,,,,,0,,,77,0
5856,note_on,,,,,0,0,2,,,,,1,,,76,92
5948,note_off,,,,,188,0,7,,,,,6,,,43,0
5948,note_off,,,,,188,0,6,,,,,5,,,55,0
5948,note_off,,,,,0,0,8,,,,,7,,,64,0
5948,note_off,,,,,188,0,8,,,,,7,,,60,0
5948,note_off,,,,,0,0,8,,,,,7,,,67,0
5948,note_off,,,,,188,0,9,,,,,8,,,55,0
5948,note_off,,,,,188,0,4,,,,,3,,,67,0
5952,note_on,,,,,4,0,9,,,,,8,,,55,60
5952,note_on,,,,,0,0,5,,,,,4,,,60,92
5952,note_on,,,,,0,0,3,,,,,2,,,81,108
5952,note_off,,,,,96,0,3,,,,,2,,,76,0
5952,note_on,,,,,4,0,6,,,,,5,,,55,92
5952,note_off,,,,,192,0,5,,,,,4,,,60,0
5952,note_on,,,,,4,0,4,,,,,3,,,67,108
5952,note_on,,,,,0,0,8,,,,,7,,,67,60
5952,note_on,,,,,0,0,8,,,,,7,,,64,60
5952,note_on,,,,,4,0,8,,,,,7,,,60,60
5952,note_off,,,,,96,0,1,,,,,0,,,76,0
5952,note_on,,,,,0,0,1,,,,,0,,,81,92
5952,note_off,,,,,96,0,2,,,,,1,,,76,0
5952,note_on,,,,,0,0,2,,,,,1,,,81,92
5952,note_on,,,,,4,0,7,,,,,6,,,43,75
6048,note_on,,,,,0,0,3,,,,,2,,,79,108
6048,note_off,,,,,96,0,1,,,,,0,,,81,0
6048,note_off,,,,,96,0,2,,,,,1,,,81,0
6048,note_on,,,,,0,0,1,,,,,0,,,79,92
6048,note_on,,,,,0,0,2,,,,,1,,,79,92
6048,note_off,,,,,96,0,3,,,,,2,,,81,0
6140,note_off,,,,,188,0,9,,,,,8,,,55,0
6140,note_off,,,,,188,0,4,,,,,3,,,67,0
6140,note_off,,,,,188,0,7,,,,,6,,,43,0
6140,note_off,,,,,0,0,8,,,,,7,,,67,0
6140,note_off,,,,,0,0,8,,,,,7,,,64,0
6140,note_off,,,,,188,0,8,,,,,7,,,60,0
6140,note_off,,,,,188,0,5,,,,,4,,,60,0
6140,note_off,,,,,188,0,6,,,,,5,,,55,0
6144,note_on,,,,,4,0,6,,,,,5,,,53,92
6144,note_on,,,,,4,0,4,,,,,3,,,69,108
6144,note_on,,,,,4,0,9,,,,,8,,,53,60
6144,note_on,,,,,4,0,8,,,,,7,,,60,60
6144,note_off,,,,,96,0,3,,,,,2,,,79,0
6144,note_on,,,,,4,0,7,,,,,6,,,41,75
6144,note_on,,,,,0,0,8,,,,,7,,,65,60
6144,note_on,,,,,0,0,8,,,,,7,,,69,60
6144,note_on,,,,,4,0,5,,,,,4,,,60,92
6144,note_off,,,,,96,0,1,,,,,0,,,79,0
6144,note_on,,,,,0,0,1,,,,,0,,,84,92
6144,note_on,,,,,0,0,2,,,,,1,,,69,92
6144,note_off,,,,,96,0,2,,,,,1,,,79,0
6144,note_on,,,,,0,0,3,,,,,2,,,84,108
6332,note_off,,,,,188,0,8,,,,,7,,,60,0
6332,note_off,,,,,188,0,5,,,,,4,,,60,0
6332,note_off,,,,,0,0,8,,,,,7,,,65,0
6332,note_off,,,,,0,0,8,,,,,7,,,69,0
6332,note_off,,,,,188,0,6,,,,,5,,,53,0
6332,note_off,,,,,188,0,7,,,,,6,,,41,0
6332,note_off,,,,,188,0,9,,,,,8,,,53,0
6336,note_on,,,,,4,0,6,,,,,5,,,53,92
6336,note_off,,,,,192,0,2,,,,,1,,,69,0
6336,note_on,,,,,0,0,2,,,,,1,,,69,92
6336,note_on,,,,,4,0,8,,,,,7,,,60,60
6336,note_on,,,,,4,0,9,,,,,8,,,53,60
6336,note_on,,,,,4,0,7,,,,,6,,,41,75
6336,note_on,,,,,0,0,8,,,,,7,,,65,60
6336,note_on,,,,,0,0,8,,,,,7,,,69,60
6336,note_on,,,,,0,0,4,,,,,3,,,69,108
6336,note_off,,,,,192,0,4,,,,,3,,,69,0
6336,note_on,,,,,4,0,5,,,,,4,,,60,92
6432,note_off,,,,,288,0,1,,,,,0,,,84,0
6432,note_off,,,,,288,0,3,,,,,2,,,84,0
6432,note_on,,,,,0,0,3,,,,,2,,,81,108
6432,note_on,,,,,0,0,1,,,,,0,,,81,92
6524,note_off,,,,,188,0,9,,,,,8,,,53,0
6524,note_off,,,,,188,0,7,,,,,6,,,41,0
6524,note_off,,,,,188,0,6,,,,,5,,,53,0
6524,note_off,,,,,0,0,8,,,,,7,,,69,0
6524,note_off,,,,,188,0,5,,,,,4,,,60,0
6524,note_off,,,,,188,0,8,,,,,7,,,60,0
6524,note_off,,,,,0,0,8,,,,,7,,,65,0
6528,note_on,,,,,0,0,1,,,,,0,,,81,92
6528,note_off,,,,,96,0,3,,,,,2,,,81,0
6528,note_on,,,,,0,0,3,,,,,2,,,81,108
6528,note_on,,,,,0,0,8,,,,,7,,,67,60
6528,note_off,,,,,192,0,2,,,,,1,,,69,0
6528,note_on,,,,,0,0,8,,,,,7,,,72,60
6528,note_on,,,,,4,0,7,,,,,6,,,40,75
6528,note_on,,,,,4,0,6,,,,,5,,,52,92
6528,note_on,,,,,0,0,2,,,,,1,,,64,92
6528,note_on,,,,,0,0,4,,,,,3,,,64,108
6528,note_on,,,,,4,0,9,,,,,8,,,52,60
6528,note_off,,,,,192,0,4,,,,,3,,,69,0
6528,note_on,,,,,4,0,5,,,,,4,,,60,92
6528,note_off,,,,,96,0,1,,,,,0,,,81,0
6528,note_on,,,,,4,0,8,,,,,7,,,60,60
6624,note_on,,,,,0,0,1,,,,,0,,,79,92
6624,note_off,,,,,96,0,1,,,,,0,,,81,0
6624,note_off,,,,,96,0,3,,,,,2,,,81,0
6624,note_on,,,,,0,0,3,,,,,2,,,79,108
6716,note_off,,,,,188,0,9,,,,,8,,,52,0
6716,note_off,,,,,0,0,8,,,,,7,,,67,0
6716,note_off,,,,,188,0,5,,,,,4,,,60,0
6716,note_off,,,,,188,0,6,,,,,5,,,52,0
6716,note_off,,,,,188,0,7,,,,,6,,,40,0
6716,note_off,,,,,0,0,8,,,,,7,,,72,0
6716,note_off,,,,,188,0,8,,,,,7,,,60,0
6720,note_on,,,,,0,0,2,,,,,1,,,67,92
6720,note_off,,,,,192,0,2,,,,,1,,,64,0
6720,note_on,,,,,4,0,6,,,,,5,,,52,92
6720,note_on,,,,,4,0,5,,,,,4,,,60,92
6720,note_on,,,,,4,0,7,,,,,6,,,40,75
6720,note_on,,,,,0,0,1,,,,,0,,,84,92
6720,note_on,,,,,0,0,4,,,,,3,,,67,108
6720,note_on,,,,,4,0,9,,,,,8,,,52,60
6720,note_on,,,,,4,0,8,,,,,7,,,60,60
6720,note_on,,,,,0,0,8,,,,,7,,,67,60
6720,note_off,,,,,96,0,1,,,,,0,,,79,0
6720,note_off,,,,,96,0,3,,,,,2,,,79,0
6720,note_on,,,,,0,0,3,,,,,2,,,84,108
6720,note_on,,,,,0,0,8,,,,,7,,,72,60
6720,note_off,,,,,192,0,4,,,,,3,,,64,0
6816,note_off,,,,,96,0,3,,,,,2,,,84,0
6816,note_off,,,,,96,0,1,,,,,0,,,84,0
6816,note_on,,,,,0,0,1,,,,,0,,,72,92
6816,note_on,,,,,0,0,3,,,,,2,,,72,108
6908,note_off,,,,,188,0,7,,,,,6,,,40,0
6908,note_off,,,,,188,0,9,,,,,8,,,52,0
6908,note_off,,,,,0,0,8,,,,,7,,,72,0
6908,note_off,,,,,188,0,5,,,,,4,,,60,0
6908,note_off,,,,,188,0,8,,,,,7,,,60,0
6908,note_off,,,,,0,0,8,,,,,7,,,67,0
6908,note_off,,,,,188,0,6,,,,,5,,,52,0
6912,note_on,,,,,0,0,8,,,,,7,,,65,60
6912,note_on,,,,,0,0,8,,,,,7,,,72,60
6912,note_off,,,,,192,0,4,,,,,3,,,67,0
6912,note_on,,,,,4,0,5,,,,,4,,,62,92
6912,note_off,,,,,192,0,2,,,,,1,,,67,0
6912,note_on,,,,,0,0,2,,,,,1,,,65,92
6912,note_on,,,,,4,0,8,,,,,7,,,62,60
6912,note_off,,,,,96,0,1,,,,,0,,,72,0
6912,note_on,,,,,0,0,1,,,,,0,,,72,92
6912,note_on,,,,,0,0,4,,,,,3,,,65,108
6912,note_on,,,,,4,0,9,,,,,8,,,50,60
6912,note_off,,,,,96,0,3,,,,,2,,,72,0
6912,note_on,,,,,0,0,3,,,,,2,,,72,108
6912,note_on,,,,,4,0,7,,,,,6,,,38,75
6912,note_on,,,,,4,0,6,,,,,5,,,50,92
7008,note_off,,,,,96,0,3,,,,,2,,,72,0
7008,note_off,,,,,96,0,1,,,,,0,,,72,0
7008,note_on,,,,,0,0,1,,,,,0,,,71,92
7008,note_on,,,,,0,0,3,,,,,2,,,71,108
7100,note_off,,,,,188,0,7,,,,,6,,,38,0
7100,note_off,,,,,188,0,5,,,,,4,,,62,0
7100,note_off,,,,,188,0,9,,,,,8,,,50,0
7100,note_off,,,,,188,0,8,,,,,7,,,62,0
7100,note_off,,,,,0,0,8,,,,,7,,,65,0
7100,note_off,,,,,0,0,8,,,,,7,,,72,0
7100,note_off,,,,,188,0,6,,,,,5,,,50,0
7104,note_on,,,,,0,0,8,,,,,7,,,65,60
7104,note_on,,,,,4,0,9,,,,,8,,,50,60
7104,note_on,,,,,4,0,7,,,,,6,,,38,75
7104,note_off,,,,,192,0,4,,,,,3,,,65,0
7104,note_on,,,,,4,0,8,,,,,7,,,62,60
7104,note_off,,,,,192,0,2,,,,,1,,,65,0
7104,note_on,,,,,0,0,8,,,,,7,,,71,60
7104,note_off,,,,,96,0,3,,,,,2,,,71,0
7104,note_on,,,,,4,0,6,,,,,5,,,50,92
7104,note_off,,,,,96,0,1,,,,,0,,,71,0
7200,note_on,,,,,96,0,3,,,,,2,,,77,108
7200,note_on,,,,,96,0,4,,,,,3,,,71,108
7200,note_on,,,,,100,0,5,,,,,4,,,74,92
7200,note_on,,,,,96,0,2,,,,,1,,,71,92
7200,note_on,,,,,96,0,1,,,,,0,,,77,92
7292,note_off,,,,,92,0,5,,,,,4,,,74,0
7292,note_off,,,,,188,0,6,,,,,5,,,50,0
7292,note_off,,,,,188,0,9,,,,,8,,,50,0
7292,note_off,,,,,188,0,7,,,,,6,,,38,0
7292,note_off,,,,,0,0,8,,,,,7,,,71,0
7292,note_off,,,,,0,0,8,,,,,7,,,65,0
7292,note_off,,,,,188,0,8,,,,,7,,,62,0
7296,note_on,,,,,4,0,6,,,,,5,,,48,92
7296,note_on,,,,,0,0,8,,,,,7,,,72,60
7296,note_on,,,,,4,0,8,,,,,7,,,64,60
7296,note_on,,,,,4,0,7,,,,,6,,,36,75
7296,note_off,,,,,96,0,1,,,,,0,,,77,0
7296,note_on,,,,,0,0,1,,,,,0,,,77,92
7296,note_on,,,,,0,0,8,,,,,7,,,67,60
7296,note_off,,,,,96,0,4,,,,,3,,,71,0
7296,note_on,,,,,0,0,4,,,,,3,,,74,108
7296,note_off,,,,,96,0,2,,,,,1,,,71,0
7296,note_on,,,,,0,0,2,,,,,1,,,74,92
7296,note_on,,,,,0,0,3,,,,,2,,,77,108
7296,note_off,,,,,96,0,3,,,,,2,,,77,0
7296,note_on,,,,,4,0,5,,,,,4,,,67,92
7296,note_on,,,,,4,0,9,,,,,8,,,48,60
7320,note_on,,,,,0,0,3,,,,,2,,,76,108
7320,note_off,,,,,24,0,3,,,,,2,,,77,0
7320,note_off,,,,,24,0,4,,,,,3,,,74,0
7320,note_on,,,,,0,0,4,,,,,3,,,72,108
7320,note_off,,,,,24,0,1,,,,,0,,,77,0
7320,note_off,,,,,24,0,2,,,,,1,,,74,0
7320,note_on,,,,,0,0,1,,,,,0,,,76,92
7320,note_on,,,,,0,0,2,,,,,1,,,72,92
7344,note_on,,,,,0,0,3,,,,,2,,,77,108
7344,note_off,,,,,24,0,3,,,,,2,,,76,0
7344,note_off,,,,,24,0,4,,,,,3,,,72,0
7344,note_on,,,,,0,0,4,,,,,3,,,74,108
7344,note_on,,,,,0,0,1,,,,,0,,,77,92
7344,note_off,,,,,24,0,1,,,,,0,,,76,0
7344,note_on,,,,,0,0,2,,,,,1,,,74,92
7344,note_off,,,,,24,0,2,,,,,1,,,72,0
7368,note_on,,,,,0,0,3,,,,,2,,,76,108
7368,note_off,,,,,24,0,3,,,,,2,,,77,0
7368,note_off,,,,,24,0,1,,,,,0,,,77,0
7368,note_on,,,,,0,0,1,,,,,0,,,76,92
7368,note_on,,,,,0,0,4,,,,,3,,,72,108
7368,note_off,,,,,24,0,4,,,,,3,,,74,0
7368,note_on,,,,,0,0,2,,,,,1,,,72,92
7368,note_off,,,,,24,0,2,,,,,1,,,74,0
7392,note_on,,,,,0,0,4,,,,,3,,,74,108
7392,note_off,,,,,24,0,4,,,,,3,,,72,0
7392,note_off,,,,,24,0,1,,,,,0,,,76,0
7392,note_on,,,,,0,0,2,,,,,1,,,74,92
7392,note_on,,,,,0,0,1,,,,,0,,,77,92
7392,note_off,,,,,24,0,3,,,,,2,,,76,0
7392,note_on,,,,,0,0,3,,,,,2,,,77,108
7392,note_off,,,,,24,0,2,,,,,1,,,72,0
7416,note_off,,,,,24,0,3,,,,,2,,,77,0
7416,note_on,,,,,0,0,4,,,,,3,,,72,108
7416,note_on,,,,,0,0,3,,,,,2,,,76,108
7416,note_on,,,,,0,0,2,,,,,1,,,72,92
7416,note_off,,,,,24,0,1,,,,,0,,,77,0
7416,note_on,,,,,0,0,1,,,,,0,,,76,92
7416,note_off,,,,,24,0,2,,,,,1,,,74,0
7416,note_off,,,,,24,0,4,,,,,3,,,74,0
7440,note_on,,,,,0,0,2,,,,,1,,,74,92
7440,note_off,,,,,24,0,4,,,,,3,,,72,0
7440,note_on,,,,,0,0,4,,,,,3,,,74,108
7440,note_off,,,,,24,0,3,,,,,2,,,76,0
7440,note_on,,,,,0,0,3,,,,,2,,,77,108
7440,note_on,,,,,0,0,1,,,,,0,,,77,92
7440,note_off,,,,,24,0,1,,,,,0,,,76,0
7440,note_off,,,,,24,0,2,,,,,1,,,72,0
7464,note_on,,,,,0,0,1,,,,,0,,,76,92
7464,note_on,,,,,0,0,4,,,,,3,,,72,108
7464,note_off,,,,,24,0,4,,,,,3,,,74,0
7464,note_off,,,,,24,0,1,,,,,0,,,77,0
7464,note_off,,,,,24,0,2,,,,,1,,,74,0
7464,note_on,,,,,0,0,2,,,,,1,,,72,92
7464,note_on,,,,,0,0,3,,,,,2,,,76,108
7464,note_off,,,,,24,0,3,,,,,2,,,77,0
7484,note_off,,,,,188,0,9,,,,,8,,,48,0
7484,note_off,,,,,188,0,8,,,,,7,,,64,0
7484,note_off,,,,,188,0,7,,,,,6,,,36,0
7484,note_off,,,,,0,0,8,,,,,7,,,67,0
7484,note_off,,,,,188,0,6,,,,,5,,,48,0
7484,note_off,,,,,0,0,8,,,,,7,,,72,0
7484,note_off,,,,,188,0,5,,,,,4,,,67,0
7488,note_off,,,,,24,0,4,,,,,3,,,72,0
7488,note_on,,,,,4,0,9,,,,,8,,,48,60
7488,note_off,,,,,24,0,1,,,,,0,,,76,0
7488,note_on,,,,,0,0,1,,,,,0,,,77,92
7488,note_on,,,,,0,0,8,,,,,7,,,72,60
7488,note_on,,,,,4,0,5,,,,,4,,,67,92
7488,note_on,,,,,4,0,6,,,,,5,,,48,92
7488,note_off,,,,,24,0,3,,,,,2,,,76,0
7488,note_on,,,,,4,0,8,,,,,7,,,64,60
7488,note_on,,,,,0,0,8,,,,,7,,,67,60
7488,note_off,,,,,24,0,2,,,,,1,,,72,0
7488,note_on,,,,,4,0,7,,,,,6,,,36,75
7488,note_on,,,,,0,0,2,,,,,1,,,74,92
7488,note_on,,,,,0,0,3,,,,,2,,,77,108
7488,note_on,,,,,0,0,4,,,,,3,,,74,108
7512,note_off,,,,,24,0,3,,,,,2,,,77,0
7512,note_on,,,,,0,0,3,,,,,2,,,76,108
7512,note_on,,,,,0,0,4,,,,,3,,,72,108
7512,note_off,,,,,24,0,1,,,,,0,,,77,0
7512,note_on,,,,,0,0,1,,,,,0,,,76,92
7512,note_off,,,,,24,0,2,,,,,1,,,74,0
7512,note_on,,,,,0,0,2,,,,,1,,,72,92
7512,note_off,,,,,24,0,4,,,,,3,,,74,0
7584,note_off,,,,,72,0,1,,,,,0,,,76,0
7584,note_on,,,,,0,0,1,,,,,0,,,74,92
7584,note_off,,,,,72,0,2,,,,,1,,,72,0
7584,note_on,,,,,0,0,2,,,,,1,,,71,92
7584,note_off,,,,,72,0,3,,,,,2,,,76,0
7584,note_on,,,,,0,0,3,,,,,2,,,74,108
7584,note_on,,,,,0,0,4,,,,,3,,,71,108
7584,note_off,,,,,72,0,4,,,,,3,,,72,0
7676,note_off,,,,,188,0,9,,,,,8,,,48,0
7676,note_off,,,,,188,0,6,,,,,5,,,48,0
7676,note_off,,,,,0,0,8,,,,,7,,,72,0
7676,note_off,,,,,0,0,8,,,,,7,,,67,0
7676,note_off,,,,,188,0,8,,,,,7,,,64,0
7676,note_off,,,,,188,0,5,,,,,4,,,67,0
7676,note_off,,,,,188,0,7,,,,,6,,,36,0
7680,note_on,,,,,0,0,2,,,,,1,,,71,92
7680,note_off,,,,,96,0,2,,,,,1,,,71,0
7680,note_on,,,,,4,0,9,,,,,8,,,55,60
7680,note_on,,,,,0,0,1,,,,,0,,,74,92
7680,note_on,,,,,0,0,3,,,,,2,,,74,108
7680,note_off,,,,,96,0,3,,,,,2,,,74,0
7680,note_on,,,,,0,0,8,,,,,7,,,67,60
7680,note_on,,,,,4,0,6,,,,,5,,,55,92
7680,note_on,,,,,4,0,8,,,,,7,,,62,60
7680,note_off,,,,,96,0,4,,,,,3,,,71,0
7680,note_on,,,,,0,0,8,,,,,7,,,71,60
7680,note_on,,,,,0,0,4,,,,,3,,,71,108
7680,note_off,,,,,96,0,1,,,,,0,,,74,0
7680,note_on,,,,,4,0,7,,,,,6,,,43,75
7680,note_on,,,,,4,0,5,,,,,4,,,67,92
8000,note_off,,,,,320,0,5,,,,,4,,,67,0
8000,note_off,,,,,320,0,9,,,,,8,,,55,0
8000,note_off,,,,,320,0,7,,,,,6,,,43,0
8000,note_off,,,,,0,0,8,,,,,7,,,71,0
8000,note_off,,,,,0,0,8,,,,,7,,,67,0
8000,note_off,,,,,320,0,8,,,,,7,,,62,0
8000,note_off,,,,,320,0,6,,,,,5,,,55,0
8064,note_off,,,,,384,0,2,,,,,1,,,71,0
8064,note_off,,,,,384,0,1,,,,,0,,,74,0
8064,note_off,,,,,384,0,3,,,,,2,,,74,0
8064,note_off,,,,,384,0,4,,,,,3,,,71,0
8256,note_on,,,,,192,0,1,,,,,0,,,67,92
8256,note_on,,,,,192,0,3,,,,,2,,,67,108
8448,note_off,,,,,192,0,1,,,,,0,,,67,0
8448,note_on,,,,,0,0,3,,,,,2,,,69,108
8448,note_off,,,,,192,0,3,,,,,2,,,67,0
8448,note_on,,,,,0,0,1,,,,,0,,,69,92
8544,note_on,,,,,0,0,1,,,,,0,,,67,92
8544,note_off,,,,,96,0,1,,,,,0,,,69,0
8544,note_on,,,,,0,0,3,,,,,2,,,67,108
8544,note_off,,,,,96,0,3,,,,,2,,,69,0
8640,note_on,,,,,0,0,1,,,,,0,,,72,92
8640,note_off,,,,,96,0,1,,,,,0,,,67,0
8640,note_off,,,,,96,0,3,,,,,2,,,67,0
8640,note_on,,,,,0,0,3,,,,,2,,,72,108
8736,note_on,,,,,0,0,3,,,,,2,,,71,108
8736,note_off,,,,,96,0,3,,,,,2,,,72,0
8736,note_off,,,,,96,0,1,,,,,0,,,72,0
8736,note_on,,,,,0,0,1,,,,,0,,,71,92
8832,note_off,,,,,96,0,3,,,,,2,,,71,0
8832,note_on,,,,,0,0,3,,,,,2,,,74,108
8832,note_off,,,,,96,0,1,,,,,0,,,71,0
8832,note_on,,,,,0,0,1,,,,,0,,,74,92
8928,note_off,,,,,96,0,1,,,,,0,,,74,0
8928,note_on,,,,,0,0,1,,,,,0,,,72,92
8928,note_off,,,,,96,0,3,,,,,2,,,74,0
8928,note_on,,,,,0,0,3,,,,,2,,,72,108
9024,note_off,,,,,96,0,3,,,,,2,,,72,0
9024,note_on,,,,,960,0,4,,,,,3,,,72,108
9024,note_on,,,,,1024,0,7,,,,,6,,,40,75
9024,note_on,,,,,960,0,2,,,,,1,,,72,92
9024,note_on,,,,,1024,0,8,,,,,7,,,60,60
9024,note_on,,,,,1024,0,9,,,,,8,,,52,60
9024,note_on,,,,,0,0,8,,,,,7,,,67,60
9024,note_on,,,,,0,0,8,,,,,7,,,72,60
9024,note_on,,,,,1024,0,6,,,,,5,,,52,92
9024,note_on,,,,,0,0,3,,,,,2,,,81,108
9024,note_on,,,,,1024,0,5,,,,,4,,,60,92
9024,note_on,,,,,0,0,1,,,,,0,,,81,92
9024,note_off,,,,,96,0,1,,,,,0,,,72,0
9120,note_off,,,,,96,0,3,,,,,2,,,81,0
9120,note_on,,,,,0,0,1,,,,,0,,,79,92
9120,note_on,,,,,0,0,3,,,,,2,,,79,108
9120,note_off,,,,,96,0,1,,,,,0,,,81,0
9212,note_off,,,,,188,0,9,,,,,8,,,52,0
9212,note_off,,,,,188,0,6,,,,,5,,,52,0
9212,note_off,,,,,188,0,8,,,,,7,,,60,0
9212,note_off,,,,,188,0,7,,,,,6,,,40,0
9212,note_off,,,,,0,0,8,,,,,7,,,67,0
9212,note_off,,,,,188,0,5,,,,,4,,,60,0
9212,note_off,,,,,0,0,8,,,,,7,,,72,0
9216,note_on,,,,,0,0,8,,,,,7,,,65,60
9216,note_on,,,,,4,0,8,,,,,7,,,60,60
9216,note_on,,,,,0,0,8,,,,,7,,,69,60
9216,note_on,,,,,4,0,7,,,,,6,,,41,75
9216,note_on,,,,,4,0,6,,,,,5,,,53,92
9216,note_on,,,,,4,0,9,,,,,8,,,53,60
9216,note_off,,,,,192,0,2,,,,,1,,,72,0
9216,note_off,,,,,96,0,3,,,,,2,,,79,0
9216,note_on,,,,,0,0,2,,,,,1,,,65,92
9216,note_off,,,,,192,0,4,,,,,3,,,72,0
9216,note_on,,,,,0,0,4,,,,,3,,,65,108
9216,note_on,,,,,0,0,3,,,,,2,,,70,108
9216,note_off,,,,,96,0,1,,,,,0,,,79,0
9216,note_on,,,,,0,0,1,,,,,0,,,70,92
9216,note_on,,,,,4,0,5,,,,,4,,,60,92
9312,note_off,,,,,96,0,3,,,,,2,,,70,0
9312,note_off,,,,,96,0,1,,,,,0,,,70,0
9312,note_on,,,,,0,0,1,,,,,0,,,69,92
9312,note_on,,,,,0,0,3,,,,,2,,,69,108
9404,note_off,,,,,188,0,9,,,,,8,,,53,0
9404,note_off,,,,,188,0,7,,,,,6,,,41,0
9404,note_off,,,,,188,0,8,,,,,7,,,60,0
9404,note_off,,,,,0,0,8,,,,,7,,,69,0
9404,note_off,,,,,0,0,8,,,,,7,,,65,0
9404,note_off,,,,,188,0,6,,,,,5,,,53,0
9404,note_off,,,,,188,0,5,,,,,4,,,60,0
9408,note_on,,,,,0,0,8,,,,,7,,,65,60
9408,note_on,,,,,4,0,8,,,,,7,,,60,60
9408,note_on,,,,,0,0,3,,,,,2,,,81,108
9408,note_off,,,,,96,0,3,,,,,2,,,69,0
9408,note_off,,,,,96,0,1,,,,,0,,,69,0
9408,note_off,,,,,192,0,4,,,,,3,,,65,0
9408,note_on,,,,,0,0,2,,,,,1,,,65,92
9408,note_off,,,,,192,0,2,,,,,1,,,65,0
9408,note_on,,,,,0,0,1,,,,,0,,,81,92
9408,note_on,,,,,0,0,4,,,,,3,,,65,108
9408,note_on,,,,,4,0,5,,,,,4,,,60,92
9408,note_on,,,,,0,0,8,,,,,7,,,69,60
9408,note_on,,,,,4,0,9,,,,,8,,,53,60
9408,note_on,,,,,4,0,7,,,,,6,,,41,75
9408,note_on,,,,,4,0,6,,,,,5,,,53,92
9504,note_off,,,,,96,0,1,,,,,0,,,81,0
9504,note_off,,,,,96,0,3,,,,,2,,,81,0
9504,note_on,,,,,0,0,1,,,,,0,,,79,92
9504,note_on,,,,,0,0,3,,,,,2,,,79,108
9596,note_off,,,,,188,0,7,,,,,6,,,41,0
9596,note_off,,,,,188,0,5,,,,,4,,,60,0
9596,note_off,,,,,188,0,9,,,,,8,,,53,0
9596,note_off,,,,,0,0,8,,,,,7,,,65,0
9596,note_off,,,,,188,0,8,,,,,7,,,60,0
9596,note_off,,,,,0,0,8,,,,,7,,,69,0
9596,note_off,,,,,188,0,6,,,,,5,,,53,0
9600,note_on,,,,,4,0,9,,,,,8,,,54,60
9600,note_off,,,,,96,0,3,,,,,2,,,79,0
9600,note_off,,,,,192,0,4,,,,,3,,,65,0
9600,note_on,,,,,0,0,3,,,,,2,,,74,108
9600,note_on,,,,,0,0,2,,,,,1,,,62,92
9600,note_on,,,,,4,0,8,,,,,7,,,62,60
9600,note_off,,,,,192,0,2,,,,,1,,,65,0
9600,note_on,,,,,4,0,5,,,,,4,,,57,92
9600,note_on,,,,,4,0,7,,,,,6,,,42,75
9600,note_on,,,,,4,0,6,,,,,5,,,54,92
9600,note_off,,,,,96,0,1,,,,,0,,,79,0
9600,note_on,,,,,0,0,1,,,,,0,,,74,92
9600,note_on,,,,,0,0,8,,,,,7,,,69,60
9600,note_on,,,,,0,0,4,,,,,3,,,62,108
9696,note_off,,,,,96,0,1,,,,,0,,,74,0
9696,note_on,,,,,0,0,3,,,,,2,,,72,108
9696,note_off,,,,,96,0,3,,,,,2,,,74,0
9696,note_on,,,,,0,0,1,,,,,0,,,72,92
9788,note_off,,,,,188,0,6,,,,,5,,,54,0
9788,note_off,,,,,188,0,7,,,,,6,,,42,0
9788,note_off,,,,,188,0,5,,,,,4,,,57,0
9788,note_off,,,,,188,0,9,,,,,8,,,54,0
9788,note_off,,,,,0,0,8,,,,,7,,,69,0
9788,note_off,,,,,188,0,8,,,,,7,,,62,0
9792,note_off,,,,,192,0,4,,,,,3,,,62,0
9792,note_on,,,,,4,0,6,,,,,5,,,54,92
9792,note_on,,,,,4,0,7,,,,,6,,,42,75
9792,note_off,,,,,192,0,2,,,,,1,,,62,0
9792,note_on,,,,,0,0,2,,,,,1,,,62,92
9792,note_on,,,,,0,0,1,,,,,0,,,81,92
9792,note_off,,,,,96,0,1,,,,,0,,,72,0
9792,note_on,,,,,4,0,5,,,,,4,,,57,92
9792,note_on,,,,,4,0,9,,,,,8,,,54,60
9792,note_off,,,,,96,0,3,,,,,2,,,72,0
9792,note_on,,,,,0,0,3,,,,,2,,,81,108
9792,note_on,,,,,0,0,4,,,,,3,,,62,108
9792,note_on,,,,,0,0,8,,,,,7,,,69,60
9792,note_on,,,,,4,0,8,,,,,7,,,62,60
9888,note_on,,,,,0,0,1,,,,,0,,,79,92
9888,note_off,,,,,96,0,3,,,,,2,,,81,0
9888,note_on,,,,,0,0,3,,,,,2,,,79,108
9888,note_off,,,,,96,0,1,,,,,0,,,81,0
9980,note_off,,,,,188,0,5,,,,,4,,,57,0
9980,note_off,,,,,188,0,7,,,,,6,,,42,0
9980,note_off,,,,,188,0,6,,,,,5,,,54,0
9980,note_off,,,,,0,0,8,,,,,7,,,69,0
9980,note_off,,,,,188,0,8,,,,,7,,,62,0
9980,note_off,,,,,188,0,9,,,,,8,,,54,0
9984,note_on,,,,,4,0,7,,,,,6,,,43,75
9984,note_on,,,,,0,0,8,,,,,7,,,71,60
9984,note_on,,,,,0,0,8,,,,,7,,,67,60
9984,note_on,,,,,4,0,9,,,,,8,,,55,60
9984,note_on,,,,,4,0,8,,,,,7,,,62,60
9984,note_on,,,,,4,0,5,,,,,4,,,62,92
9984,note_on,,,,,0,0,2,,,,,1,,,62,92
9984,note_on,,,,,0,0,3,,,,,2,,,72,108
9984,note_off,,,,,192,0,2,,,,,1,,,62,0
9984,note_on,,,,,0,0,1,,,,,0,,,72,92
9984,note_off,,,,,96,0,1,,,,,0,,,79,0
9984,note_on,,,,,4,0,6,,,,,5,,,55,92
9984,note_off,,,,,96,0,3,,,,,2,,,79,0
9984,note_off,,,,,192,0,4,,,,,3,,,62,0
9984,note_on,,,,,0,0,4,,,,,3,,,62,108
10080,note_off,,,,,96,0,3,,,,,2,,,72,0
10080,note_on,,,,,0,0,3,,,,,2,,,71,108
10080,note_on,,,,,0,0,1,,,,,0,,,71,92
10080,note_off,,,,,96,0,1,,,,,0,,,72,0
10172,note_off,,,,,188,0,5,,,,,4,,,62,0
10172,note_off,,,,,188,0,6,,,,,5,,,55,0
10172,note_off,,,,,0,0,8,,,,,7,,,67,0
10172,note_off,,,,,0,0,8,,,,,7,,,71,0
10172,note_off,,,,,188,0,7,,,,,6,,,43,0
10172,note_off,,,,,188,0,8,,,,,7,,,62,0
10172,note_off,,,,,188,0,9,,,,,8,,,55,0
10176,note_on,,,,,4,0,9,,,,,8,,,55,60
10176,note_on,,,,,0,0,1,,,,,0,,,81,92
10176,note_on,,,,,4,0,6,,,,,5,,,55,92
10176,note_on,,,,,0,0,2,,,,,1,,,62,92
10176,note_off,,,,,192,0,2,,,,,1,,,62,0
10176,note_off,,,,,96,0,1,,,,,0,,,71,0
10176,note_off,,,,,96,0,3,,,,,2,,,71,0
10176,note_on,,,,,0,0,3,,,,,2,,,81,108
10176,note_on,,,,,0,0,8,,,,,7,,,71,60
10176,note_on,,,,,4,0,7,,,,,6,,,43,75
10176,note_on,,,,,0,0,4,,,,,3,,,62,108
10176,note_off,,,,,192,0,4,,,,,3,,,62,0
10176,note_on,,,,,4,0,5,,,,,4,,,59,92
10176,note_on,,,,,4,0,8,,,,,7,,,62,60
10176,note_on,,,,,0,0,8,,,,,7,,,67,60
10272,note_on,,,,,0,0,1,,,,,0,,,79,92
10272,note_off,,,,,96,0,3,,,,,2,,,81,0
10272,note_on,,,,,0,0,3,,,,,2,,,79,108
10272,note_off,,,,,96,0,1,,,,,0,,,81,0
10364,note_off,,,,,0,0,8,,,,,7,,,71,0
10364,note_off,,,,,188,0,9,,,,,8,,,55,0
10364,note_off,,,,,0,0,8,,,,,7,,,67,0
10364,note_off,,,,,188,0,6,,,,,5,,,55,0
10364,note_off,,,,,188,0,7,,,,,6,,,43,0
10364,note_off,,,,,188,0,8,,,,,7,,,62,0
10364,note_off,,,,,188,0,5,,,,,4,,,59,0
10368,note_on,,,,,0,0,4,,,,,3,,,65,108
10368,note_off,,,,,96,0,3,,,,,2,,,79,0
10368,note_on,,,,,0,0,3,,,,,2,,,74,108
10368,note_on,,,,,4,0,6,,,,,5,,,57,92
10368,note_off,,,,,192,0,2,,,,,1,,,62,0
10368,note_off,,,,,96,0,1,,,,,0,,,79,0
10368,note_on,,,,,4,0,5,,,,,4,,,57,92
10368,note_on,,,,,0,0,2,,,,,1,,,65,92
10368,note_on,,,,,0,0,1,,,,,0,,,74,92
10368,note_on,,,,,4,0,9,,,,,8,,,57,60
10368,note_off,,,,,192,0,4,,,,,3,,,62,0
10368,note_on,,,,,4,0,7,,,,,6,,,45,75
10368,note_on,,,,,4,0,8,,,,,7,,,60,60
10368,note_on,,,,,0,0,8,,,,,7,,,65,60
10368,note_on,,,,,0,0,8,,,,,7,,,72,60
10464,note_on,,,,,0,0,3,,,,,2,,,72,108
10464,note_on,,,,,0,0,1,,,,,0,,,72,92
10464,note_off,,,,,96,0,1,,,,,0,,,74,0
10464,note_off,,,,,96,0,3,,,,,2,,,74,0
10556,note_off,,,,,188,0,5,,,,,4,,,57,0
10556,note_off,,,,,0,0,8,,,,,7,,,72,0
10556,note_off,,,,,0,0,8,,,,,7,,,65,0
10556,note_off,,,,,188,0,8,,,,,7,,,60,0
10556,note_off,,,,,188,0,7,,,,,6,,,45,0
10556,note_off,,,,,188,0,9,,,,,8,,,57,0
10556,note_off,,,,,188,0,6,,,,,5,,,57,0
10560,note_on,,,,,4,0,6,,,,,5,,,57,92
10560,note_on,,,,,0,0,2,,,,,1,,,69,92
10560,note_off,,,,,192,0,2,,,,,1,,,65,0
10560,note_on,,,,,0,0,4,,,,,3,,,69,108
10560,note_on,,,,,0,0,3,,,,,2,,,81,108
10560,note_on,,,,,0,0,1,,,,,0,,,81,92
10560,note_off,,,,,96,0,1,,,,,0,,,72,0
10560,note_on,,,,,4,0,7,,,,,6,,,45,75
10560,note_off,,,,,192,0,4,,,,,3,,,65,0
10560,note_on,,,,,4,0,9,,,,,8,,,57,60
10560,note_on,,,,,4,0,8,,,,,7,,,60,60
10560,note_off,,,,,96,0,3,,,,,2,,,72,0
10560,note_on,,,,,4,0,5,,,,,4,,,60,92
10560,note_on,,,,,0,0,8,,,,,7,,,65,60
10560,note_on,,,,,0,0,8,,,,,7,,,72,60
10656,note_on,,,,,0,0,1,,,,,0,,,79,92
10656,note_off,,,,,96,0,1,,,,,0,,,81,0
10656,note_off,,,,,96,0,3,,,,,2,,,81,0
10656,note_on,,,,,0,0,3,,,,,2,,,79,108
10748,note_off,,,,,0,0,8,,,,,7,,,65,0
10748,note_off,,,,,0,0,8,,,,,7,,,72,0
10748,note_off,,,,,188,0,6,,,,,5,,,57,0
10748,note_off,,,,,188,0,5,,,,,4,,,60,0
10748,note_off,,,,,188,0,7,,,,,6,,,45,0
10748,note_off,,,,,188,0,9,,,,,8,,,57,0
10748,note_off,,,,,188,0,8,,,,,7,,,60,0
10752,note_off,,,,,96,0,1,,,,,0,,,79,0
10752,note_on,,,,,0,0,1,,,,,0,,,86,92
10752,note_on,,,,,4,0,7,,,,,6,,,47,75
10752,note_off,,,,,96,0,3,,,,,2,,,79,0
10752,note_on,,,,,0,0,3,,,,,2,,,86,108
10752,note_on,,,,,0,0,4,,,,,3,,,67,108
10752,note_on,,,,,0,0,2,,,,,1,,,67,92
10752,note_on,,,,,4,0,5,,,,,4,,,62,92
10752,note_on,,,,,4,0,9,,,,,8,,,59,60
10752,note_off,,,,,192,0,4,,,,,3,,,69,0
10752,note_on,,,,,4,0,6,,,,,5,,,59,92
10752,note_on,,,,,0,0,8,,,,,7,,,67,60
10752,note_on,,,,,4,0,8,,,,,7,,,62,60
10752,note_off,,,,,192,0,2,,,,,1,,,69,0
10940,note_off,,,,,188,0,6,,,,,5,,,59,0
10940,note_off,,,,,188,0,5,,,,,4,,,62,0
10940,note_off,,,,,188,0,7,,,,,6,,,47,0
10940,note_off,,,,,0,0,8,,,,,7,,,67,0
10940,note_off,,,,,188,0,8,,,,,7,,,62,0
10940,note_off,,,,,188,0,9,,,,,8,,,59,0
10944,note_on,,,,,0,0,8,,,,,7,,,67,60
10944,note_on,,,,,4,0,7,,,,,6,,,47,75
10944,note_on,,,,,0,0,2,,,,,1,,,67,92
10944,note_off,,,,,192,0,2,,,,,1,,,67,0
10944,note_on,,,,,0,0,4,,,,,3,,,67,108
10944,note_on,,,,,4,0,8,,,,,7,,,62,60
10944,note_off,,,,,192,0,4,,,,,3,,,67,0
10944,note_on,,,,,4,0,9,,,,,8,,,59,60
10944,note_on,,,,,4,0,6,,,,,5,,,59,92
10944,note_on,,,,,4,0,5,,,,,4,,,62,92
11040,note_on,,,,,0,0,3,,,,,2,,,84,108
11040,note_off,,,,,288,0,3,,,,,2,,,86,0
11040,note_off,,,,,288,0,1,,,,,0,,,86,0
11040,note_on,,,,,0,0,1,,,,,0,,,84,92
11132,note_off,,,,,188,0,9,,,,,8,,,59,0
11132,note_off,,,,,188,0,7,,,,,6,,,47,0
11132,note_off,,,,,0,0,8,,,,,7,,,67,0
11132,note_off,,,,,188,0,8,,,,,7,,,62,0
11132,note_off,,,,,188,0,5,,,,,4,,,62,0
11132,note_off,,,,,188,0,6,,,,,5,,,59,0
11136,note_off,,,,,192,0,4,,,,,3,,,67,0
11136,note_on,,,,,0,0,8,,,,,7,,,67,60
11136,note_on,,,,,0,0,8,,,,,7,,,71,60
11136,note_off,,,,,96,0,1,,,,,0,,,84,0
11136,note_on,,,,,4,0,8,,,,,7,,,62,60
11136,note_on,,,,,0,0,1,,,,,0,,,83,92
11136,note_off,,,,,96,0,3,,,,,2,,,84,0
11136,note_on,,,,,0,0,3,,,,,2,,,83,108
11136,note_on,,,,,4,0,5,,,,,4,,,62,92
11136,note_on,,,,,4,0,9,,,,,8,,,55,60
11136,note_off,,,,,192,0,2,,,,,1,,,67,0
11136,note_on,,,,,0,0,2,,,,,1,,,67,92
11136,note_on,,,,,4,0,7,,,,,6,,,43,75
11136,note_on,,,,,4,0,6,,,,,5,,,55,92
11136,note_on,,,,,0,0,4,,,,,3,,,67,108
11200,note_off,,,,,64,0,3,,,,,2,,,83,0
11200,note_off,,,,,64,0,1,,,,,0,,,83,0
11200,note_on,,,,,0,0,1,,,,,0,,,81,92
11200,note_on,,,,,0,0,3,,,,,2,,,81,108
11264,note_on,,,,,0,0,1,,,,,0,,,79,92
11264,note_off,,,,,64,0,1,,,,,0,,,81,0
11264,note_on,,,,,0,0,3,,,,,2,,,79,108
11264,note_off,,,,,64,0,3,,,,,2,,,81,0
11324,note_off,,,,,188,0,9,,,,,8,,,55,0
11324,note_off,,,,,0,0,8,,,,,7,,,71,0
11324,note_off,,,,,0,0,8,,,,,7,,,67,0
11324,note_off,,,,,188,0,7,,,,,6,,,43,0
11324,note_off,,,,,188,0,8,,,,,7,,,62,0
11324,note_off,,,,,188,0,6,,,,,5,,,55,0
11324,note_off,,,,,188,0,5,,,,,4,,,62,0
11328,note_on,,,,,0,0,2,,,,,1,,,71,92
11328,note_on,,,,,0,0,8,,,,,7,,,71,60
11328,note_on,,,,,0,0,8,,,,,7,,,67,60
11328,note_on,,,,,4,0,8,,,,,7,,,62,60
11328,note_off,,,,,192,0,2,,,,,1,,,67,0
11328,note_on,,,,,0,0,3,,,,,2,,,77,108
11328,note_on,,,,,4,0,5,,,,,4,,,67,92
11328,note_on,,,,,4,0,6,,,,,5,,,55,92
11328,note_off,,,,,64,0,1,,,,,0,,,79,0
11328,note_on,,,,,0,0,1,,,,,0,,,77,92
11328,note_off,,,,,192,0,4,,,,,3,,,67,0
11328,note_on,,,,,0,0,4,,,,,3,,,71,108
11328,note_off,,,,,64,0,3,,,,,2,,,79,0
11328,note_on,,,,,4,0,7,,,,,6,,,43,75
11328,note_on,,,,,4,0,9,,,,,8,,,55,60
11392,note_on,,,,,0,0,1,,,,,0,,,76,92
11392,note_off,,,,,64,0,3,,,,,2,,,77,0
11392,note_on,,,,,0,0,3,,,,,2,,,76,108
11392,note_off,,,,,64,0,1,,,,,0,,,77,0
11456,note_on,,,,,0,0,3,,,,,2,,,74,108
11456,note_off,,,,,64,0,3,,,,,2,,,76,0
11456,note_off,,,,,64,0,1,,,,,0,,,76,0
11456,note_on,,,,,0,0,1,,,,,0,,,74,92
11516,note_off,,,,,188,0,9,,,,,8,,,55,0
11516,note_off,,,,,188,0,6,,,,,5,,,55,0
11516,note_off,,,,,188,0,8,,,,,7,,,62,0
11516,note_off,,,,,0,0,8,,,,,7,,,67,0
11516,note_off,,,,,188,0,7,,,,,6,,,43,0
11516,note_off,,,,,188,0,5,,,,,4,,,67,0
11516,note_off,,,,,0,0,8,,,,,7,,,71,0
11520,note_on,,,,,4,0,9,,,,,8,,,57,60
11520,note_on,,,,,0,0,1,,,,,0,,,84,92
11520,note_off,,,,,64,0,1,,,,,0,,,74,0
11520,note_on,,,,,4,0,6,,,,,5,,,57,92
11520,note_on,,,,,4,0,8,,,,,7,,,60,60
11520,note_on,,,,,4,0,5,,,,,4,,,64,92
11520,note_off,,,,,192,0,4,,,,,3,,,71,0
11520,note_on,,,,,0,0,4,,,,,3,,,69,108
11520,note_on,,,,,0,0,2,,,,,1,,,69,92
11520,note_off,,,,,192,0,2,,,,,1,,,71,0
11520,note_on,,,,,0,0,3,,,,,2,,,84,108
11520,note_on,,,,,4,0,7,,,,,6,,,45,75
11520,note_off,,,,,64,0,3,,,,,2,,,74,0
11520,note_on,,,,,0,0,8,,,,,7,,,69,60
11520,note_on,,,,,0,0,8,,,,,7,,,64,60
11708,note_off,,,,,188,0,6,,,,,5,,,57,0
11708,note_off,,,,,188,0,5,,,,,4,,,64,0
11708,note_off,,,,,0,0,8,,,,,7,,,64,0
11708,note_off,,,,,188,0,8,,,,,7,,,60,0
11708,note_off,,,,,0,0,8,,,,,7,,,69,0
11708,note_off,,,,,188,0,9,,,,,8,,,57,0
11708,note_off,,,,,188,0,7,,,,,6,,,45,0
11712,note_on,,,,,0,0,2,,,,,1,,,67,92
11712,note_on,,,,,4,0,8,,,,,7,,,60,60
11712,note_on,,,,,0,0,8,,,,,7,,,67,60
11712,note_off,,,,,192,0,4,,,,,3,,,69,0
11712,note_on,,,,,0,0,4,,,,,3,,,67,108
11712,note_off,,,,,192,0,2,,,,,1,,,69,0
11712,note_on,,,,,4,0,7,,,,,6,,,40,75
11712,note_on,,,,,4,0,6,,,,,5,,,52,92
11712,note_on,,,,,4,0,5,,,,,4,,,64,92
11712,note_on,,,,,4,0,9,,,,,8,,,52,60
11808,note_off,,,,,288,0,3,,,,,2,,,84,0
11808,note_on,,,,,0,0,1,,,,,0,,,83,92
11808,note_off,,,,,288,0,1,,,,,0,,,84,0
11808,note_on,,,,,0,0,3,,,,,2,,,83,108
11900,note_off,,,,,188,0,7,,,,,6,,,40,0
11900,note_off,,,,,0,0,8,,,,,7,,,67,0
11900,note_off,,,,,188,0,9,,,,,8,,,52,0
11900,note_off,,,,,188,0,5,,,,,4,,,64,0
11900,note_off,,,,,188,0,8,,,,,7,,,60,0
11900,note_off,,,,,188,0,6,,,,,5,,,52,0
11904,note_on,,,,,4,0,6,,,,,5,,,53,92
11904,note_on,,,,,0,0,3,,,,,2,,,81,108
11904,note_off,,,,,192,0,4,,,,,3,,,67,0
11904,note_on,,,,,4,0,5,,,,,4,,,60,92
11904,note_off,,,,,96,0,3,,,,,2,,,83,0
11904,note_on,,,,,0,0,4,,,,,3,,,69,108
11904,note_off,,,,,192,0,2,,,,,1,,,67,0
11904,note_on,,,,,0,0,8,,,,,7,,,65,60
11904,note_on,,,,,0,0,8,,,,,7,,,69,60
11904,note_on,,,,,4,0,9,,,,,8,,,53,60
11904,note_off,,,,,96,0,1,,,,,0,,,83,0
11904,note_on,,,,,0,0,1,,,,,0,,,81,92
11904,note_on,,,,,4,0,7,,,,,6,,,41,75
11904,note_on,,,,,4,0,8,,,,,7,,,60,60
11904,note_on,,,,,0,0,2,,,,,1,,,69,92
11968,note_on,,,,,0,0,3,,,,,2,,,79,108
11968,note_on,,,,,0,0,1,,,,,0,,,79,92
11968,note_off,,,,,64,0,1,,,,,0,,,81,0
11968,note_off,,,,,64,0,3,,,,,2,,,81,0
12032,note_on,,,,,0,0,1,,,,,0,,,77,92
12032,note_off,,,,,64,0,1,,,,,0,,,79,0
12032,note_on,,,,,0,0,3,,,,,2,,,77,108
12032,note_off,,,,,64,0,3,,,,,2,,,79,0
12092,note_off,,,,,188,0,6,,,,,5,,,53,0
12092,note_off,,,,,0,0,8,,,,,7,,,69,0
12092,note_off,,,,,0,0,8,,,,,7,,,65,0
12092,note_off,,,,,188,0,8,,,,,7,,,60,0
12092,note_off,,,,,188,0,9,,,,,8,,,53,0
12092,note_off,,,,,188,0,5,,,,,4,,,60,0
12092,note_off,,,,,188,0,7,,,,,6,,,41,0
12096,note_off,,,,,192,0,4,,,,,3,,,69,0
12096,note_on,,,,,0,0,4,,,,,3,,,71,108
12096,note_on,,,,,4,0,8,,,,,7,,,59,60
12096,note_on,,,,,0,0,8,,,,,7,,,62,60
12096,note_on,,,,,0,0,2,,,,,1,,,71,92
12096,note_off,,,,,192,0,2,,,,,1,,,69,0
12096,note_on,,,,,4,0,6,,,,,5,,,55,92
12096,note_on,,,,,4,0,5,,,,,4,,,67,92
12096,note_off,,,,,64,0,3,,,,,2,,,77,0
12096,note_on,,,,,0,0,3,,,,,2,,,76,108
12096,note_on,,,,,4,0,7,,,,,6,,,43,75
12096,note_on,,,,,4,0,9,,,,,8,,,55,60
12096,note_on,,,,,0,0,8,,,,,7,,,67,60
12096,note_on,,,,,0,0,1,,,,,0,,,76,92
12096,note_off,,,,,64,0,1,,,,,0,,,77,0
12160,note_on,,,,,0,0,3,,,,,2,,,74,108
12160,note_off,,,,,64,0,3,,,,,2,,,76,0
12160,note_on,,,,,0,0,1,,,,,0,,,74,92
12160,note_off,,,,,64,0,1,,,,,0,,,76,0
12224,note_on,,,,,0,0,3,,,,,2,,,72,108
12224,note_off,,,,,64,0,1,,,,,0,,,74,0
12224,note_on,,,,,0,0,1,,,,,0,,,72,92
12224,note_off,,,,,64,0,3,,,,,2,,,74,0
12284,note_off,,,,,188,0,6,,,,,5,,,55,0
12284,note_off,,,,,188,0,9,,,,,8,,,55,0
12284,note_off,,,,,188,0,7,,,,,6,,,43,0
12284,note_off,,,,,188,0,8,,,,,7,,,59,0
12284,note_off,,,,,0,0,8,,,,,7,,,62,0
12284,note_off,,,,,0,0,8,,,,,7,,,67,0
12284,note_off,,,,,188,0,5,,,,,4,,,67,0
12288,note_on,,,,,4,0,6,,,,,5,,,57,92
12288,note_on,,,,,4,0,8,,,,,7,,,60,60
12288,note_off,,,,,192,0,2,,,,,1,,,71,0
12288,note_on,,,,,4,0,9,,,,,8,,,57,60
12288,note_on,,,,,0,0,2,,,,,1,,,69,92
12288,note_on,,,,,0,0,8,,,,,7,,,64,60
12288,note_off,,,,,192,0,4,,,,,3,,,71,0
12288,note_on,,,,,0,0,4,,,,,3,,,69,108
12288,note_on,,,,,0,0,3,,,,,2,,,72,108
12288,note_off,,,,,64,0,1,,,,,0,,,72,0
12288,note_on,,,,,0,0,1,,,,,0,,,72,92
12288,note_on,,,,,4,0,5,,,,,4,,,64,92
12288,note_on,,,,,4,0,7,,,,,6,,,45,75
12288,note_off,,,,,64,0,3,,,,,2,,,72,0
12476,note_off,,,,,188,0,8,,,,,7,,,60,0
12476,note_off,,,,,188,0,9,,,,,8,,,57,0
12476,note_off,,,,,188,0,7,,,,,6,,,45,0
12476,note_off,,,,,0,0,8,,,,,7,,,64,0
12476,note_off,,,,,188,0,6,,,,,5,,,57,0
12476,note_off,,,,,188,0,5,,,,,4,,,64,0
12480,note_on,,,,,0,0,8,,,,,7,,,69,60
12480,note_off,,,,,192,0,4,,,,,3,,,69,0
12480,note_on,,,,,0,0,4,,,,,3,,,72,108
12480,note_off,,,,,192,0,2,,,,,1,,,69,0
12480,note_on,,,,,0,0,2,,,,,1,,,72,92
12480,note_on,,,,,4,0,9,,,,,8,,,53,60
12480,note_on,,,,,4,0,7,,,,,6,,,41,75
12480,note_on,,,,,4,0,5,,,,,4,,,69,92
12480,note_on,,,,,0,0,8,,,,,7,,,65,60
12480,note_on,,,,,4,0,8,,,,,7,,,60,60
12480,note_on,,,,,4,0,6,,,,,5,,,53,92
12576,note_on,,,,,0,0,1,,,,,0,,,74,92
12576,note_off,,,,,288,0,3,,,,,2,,,72,0
12576,note_on,,,,,0,0,3,,,,,2,,,74,108
12576,note_off,,,,,288,0,1,,,,,0,,,72,0
12668,note_off,,,,,188,0,6,,,,,5,,,53,0
12668,note_off,,,,,0,0,8,,,,,7,,,65,0
12668,note_off,,,,,188,0,5,,,,,4,,,69,0
12668,note_off,,,,,0,0,8,,,,,7,,,69,0
12668,note_off,,,,,188,0,8,,,,,7,,,60,0
12668,note_off,,,,,188,0,9,,,,,8,,,53,0
12668,note_off,,,,,188,0,7,,,,,6,,,41,0
12672,note_off,,,,,96,0,3,,,,,2,,,74,0
12672,note_off,,,,,192,0,2,,,,,1,,,72,0
12672,note_on,,,,,0,0,2,,,,,1,,,72,92
12672,note_on,,,,,4,0,5,,,,,4,,,67,92
12672,note_on,,,,,0,0,3,,,,,2,,,76,108
12672,note_on,,,,,4,0,7,,,,,6,,,43,75
12672,note_on,,,,,4,0,6,,,,,5,,,55,92
12672,note_off,,,,,96,0,1,,,,,0,,,74,0
12672,note_on,,,,,4,0,9,,,,,8,,,55,60
12672,note_on,,,,,0,0,1,,,,,0,,,76,92
12672,note_on,,,,,4,0,8,,,,,7,,,60,60
12672,note_on,,,,,0,0,8,,,,,7,,,64,60
12672,note_on,,,,,0,0,8,,,,,7,,,67,60
12672,note_on,,,,,0,0,4,,,,,3,,,72,108
12672,note_off,,,,,192,0,4,,,,,3,,,72,0
12860,note_off,,,,,188,0,7,,,,,6,,,43,0
12860,note_off,,,,,188,0,8,,,,,7,,,60,0
12860,note_off,,,,,188,0,5,,,,,4,,,67,0
12860,note_off,,,,,0,0,8,,,,,7,,,67,0
12860,note_off,,,,,0,0,8,,,,,7,,,64,0
12860,note_off,,,,,188,0,9,,,,,8,,,55,0
12860,note_off,,,,,188,0,6,,,,,5,,,55,0
12864,note_on,,,,,4,0,5,,,,,4,,,65,92
12864,note_on,,,,,4,0,7,,,,,6,,,31,75
12864,note_on,,,,,4,0,9,,,,,8,,,43,60
12864,note_on,,,,,4,0,6,,,,,5,,,43,92
12864,note_on,,,,,0,0,1,,,,,0,,,76,92
12864,note_on,,,,,0,0,3,,,,,2,,,76,108
12864,note_off,,,,,192,0,3,,,,,2,,,76,0
12864,note_on,,,,,0,0,4,,,,,3,,,71,108
12864,note_off,,,,,192,0,4,,,,,3,,,72,0
12864,note_on,,,,,0,0,2,,,,,1,,,71,92
12864,note_off,,,,,192,0,1,,,,,0,,,76,0
12864,note_on,,,,,0,0,8,,,,,7,,,71,60
12864,note_on,,,,,4,0,8,,,,,7,,,62,60
12864,note_off,,,,,192,0,2,,,,,1,,,72,0
12888,note_on,,,,,0,0,3,,,,,2,,,74,108
12888,note_off,,,,,24,0,3,,,,,2,,,76,0
12888,note_off,,,,,24,0,1,,,,,0,,,76,0
12888,note_on,,,,,0,0,1,,,,,0,,,74,92
12912,note_off,,,,,24,0,3,,,,,2,,,74,0
12912,note_on,,,,,0,0,3,,,,,2,,,76,108
12912,note_on,,,,,0,0,1,,,,,0,,,76,92
12912,note_off,,,,,24,0,1,,,,,0,,,74,0
12936,note_on,,,,,0,0,3,,,,,2,,,74,108
12936,note_off,,,,,24,0,3,,,,,2,,,76,0
12936,note_off,,,,,24,0,1,,,,,0,,,76,0
12936,note_on,,,,,0,0,1,,,,,0,,,74,92
12960,note_off,,,,,24,0,1,,,,,0,,,74,0
12960,note_on,,,,,0,0,3,,,,,2,,,76,108
12960,note_on,,,,,0,0,1,,,,,0,,,76,92
12960,note_off,,,,,24,0,3,,,,,2,,,74,0
12984,note_on,,,,,0,0,3,,,,,2,,,74,108
12984,note_on,,,,,0,0,1,,,,,0,,,74,92
12984,note_off,,,,,24,0,3,,,,,2,,,76,0
12984,note_off,,,,,24,0,1,,,,,0,,,76,0
13008,note_off,,,,,24,0,3,,,,,2,,,74,0
13008,note_on,,,,,0,0,3,,,,,2,,,72,108
13008,note_off,,,,,24,0,1,,,,,0,,,74,0
13008,note_on,,,,,0,0,1,,,,,0,,,72,92
13052,note_off,,,,,188,0,9,,,,,8,,,43,0
13052,note_off,,,,,188,0,8,,,,,7,,,62,0
13052,note_off,,,,,0,0,8,,,,,7,,,71,0
13052,note_off,,,,,188,0,5,,,,,4,,,65,0
13052,note_off,,,,,188,0,7,,,,,6,,,31,0
13052,note_off,,,,,188,0,6,,,,,5,,,43,0
13056,note_off,,,,,48,0,3,,,,,2,,,72,0
13056,note_on,,,,,0,0,3,,,,,2,,,72,108
13056,note_on,,,,,4,0,6,,,,,5,,,48,92
13056,note_off,,,,,192,0,4,,,,,3,,,71,0
13056,note_on,,,,,0,0,2,,,,,1,,,72,92
13056,note_off,,,,,192,0,2,,,,,1,,,71,0
13056,note_on,,,,,0,0,8,,,,,7,,,72,60
13056,note_on,,,,,4,0,8,,,,,7,,,64,60
13056,note_on,,,,,4,0,7,,,,,6,,,36,75
13056,note_on,,,,,4,0,9,,,,,8,,,48,60
13056,note_on,,,,,0,0,1,,,,,0,,,72,92
13056,note_off,,,,,48,0,1,,,,,0,,,72,0
13056,note_on,,,,,4,0,5,,,,,4,,,64,92
13056,note_on,,,,,0,0,4,,,,,3,,,72,108
13248,note_off,,,,,192,0,3,,,,,2,,,72,0
13248,note_on,,,,,0,0,3,,,,,2,,,76,108
13248,note_off,,,,,192,0,1,,,,,0,,,72,0
13248,note_on,,,,,0,0,1,,,,,0,,,76,92
13376,note_off,,,,,320,0,8,,,,,7,,,64,0
13376,note_off,,,,,320,0,6,,,,,5,,,48,0
13376,note_off,,,,,320,0,7,,,,,6,,,36,0
13376,note_off,,,,,0,0,8,,,,,7,,,72,0
13376,note_off,,,,,320,0,9,,,,,8,,,48,0
13376,note_off,,,,,320,0,5,,,,,4,,,64,0
13440,note_off,,,,,192,0,1,,,,,0,,,76,0
13440,note_off,,,,,192,0,3,,,,,2,,,76,0
13440,note_off,,,,,384,0,4,,,,,3,,,72,0
13440,note_on,,,,,0,0,3,,,,,2,,,76,108
13440,note_off,,,,,384,0,2,,,,,1,,,72,0
13440,note_on,,,,,0,0,1,,,,,0,,,76,92
13632,note_on,,,,,256,0,9,,,,,8,,,47,60
13632,note_on,,,,,256,0,6,,,,,5,,,47,92
13632,note_on,,,,,192,0,4,,,,,3,,,67,108
13632,note_on,,,,,192,0,2,,,,,1,,,67,92
13632,note_on,,,,,256,0,8,,,,,7,,,59,60
13632,note_on,,,,,0,0,8,,,,,7,,,64,60
13632,note_on,,,,,0,0,8,,,,,7,,,67,60
13632,note_on,,,,,256,0,7,,,,,6,,,35,75
13632,note_on,,,,,256,0,5,,,,,4,,,55,92
13820,note_off,,,,,0,0,8,,,,,7,,,67,0
13820,note_off,,,,,188,0,9,,,,,8,,,47,0
13820,note_off,,,,,188,0,8,,,,,7,,,59,0
13820,note_off,,,,,0,0,8,,,,,7,,,64,0
13820,note_off,,,,,188,0,5,,,,,4,,,55,0
13820,note_off,,,,,188,0,6,,,,,5,,,47,0
13820,note_off,,,,,188,0,7,,,,,6,,,35,0
13824,note_on,,,,,4,0,8,,,,,7,,,63,60
13824,note_on,,,,,4,0,6,,,,,5,,,46,92
13824,note_on,,,,,0,0,8,,,,,7,,,66,60
13824,note_on,,,,,0,0,2,,,,,1,,,66,92
13824,note_on,,,,,4,0,9,,,,,8,,,46,60
13824,note_on,,,,,0,0,4,,,,,3,,,66,108
13824,note_off,,,,,192,0,4,,,,,3,,,67,0
13824,note_off,,,,,192,0,2,,,,,1,,,67,0
13824,note_on,,,,,4,0,7,,,,,6,,,34,75
13824,note_on,,,,,0,0,8,,,,,7,,,64,60
13824,note_on,,,,,4,0,5,,,,,4,,,61,92
14016,note_on,,,,,0,0,3,,,,,2,,,67,108
14016,note_off,,,,,576,0,1,,,,,0,,,76,0
14016,note_on,,,,,0,0,1,,,,,0,,,67,92
14016,note_off,,,,,576,0,3,,,,,2,,,76,0
14112,note_off,,,,,96,0,3,,,,,2,,,67,0
14112,note_on,,,,,0,0,3,,,,,2,,,66,108
14112,note_on,,,,,0,0,1,,,,,0,,,66,92
14112,note_off,,,,,96,0,1,,,,,0,,,67,0
14144,note_off,,,,,320,0,5,,,,,4,,,61,0
14144,note_off,,,,,0,0,8,,,,,7,,,66,0
14144,note_off,,,,,0,0,8,,,,,7,,,64,0
14144,note_off,,,,,320,0,8,,,,,7,,,63,0
14144,note_off,,,,,320,0,6,,,,,5,,,46,0
14144,note_off,,,,,320,0,7,,,,,6,,,34,0
14144,note_off,,,,,320,0,9,,,,,8,,,46,0
14208,note_off,,,,,384,0,2,,,,,1,,,66,0
14208,note_off,,,,,96,0,3,,,,,2,,,66,0
14208,note_off,,,,,384,0,4,,,,,3,,,66,0
14208,note_off,,,,,96,0,1,,,,,0,,,66,0
14208,note_on,,,,,0,0,3,,,,,2,,,76,108
14208,note_on,,,,,0,0,1,,,,,0,,,76,92
14304,note_off,,,,,96,0,3,,,,,2,,,76,0
14304,note_on,,,,,0,0,3,,,,,2,,,75,108
14304,note_off,,,,,96,0,1,,,,,0,,,76,0
14304,note_on,,,,,0,0,1,,,,,0,,,75,92
14400,note_on,,,,,256,0,5,,,,,4,,,61,92
14400,note_on,,,,,0,0,1,,,,,0,,,78,92
14400,note_off,,,,,96,0,1,,,,,0,,,75,0
14400,note_on,,,,,0,0,8,,,,,7,,,73,60
14400,note_on,,,,,256,0,9,,,,,8,,,58,60
14400,note_on,,,,,256,0,7,,,,,6,,,46,75
14400,note_on,,,,,192,0,4,,,,,3,,,66,108
14400,note_on,,,,,256,0,6,,,,,5,,,58,92
14400,note_on,,,,,256,0,8,,,,,7,,,60,60
14400,note_on,,,,,192,0,2,,,,,1,,,66,92
14400,note_on,,,,,0,0,8,,,,,7,,,66,60
14400,note_off,,,,,96,0,3,,,,,2,,,75,0
14400,note_on,,,,,0,0,3,,,,,2,,,78,108
14496,note_off,,,,,96,0,1,,,,,0,,,78,0
14496,note_on,,,,,0,0,3,,,,,2,,,76,108
14496,note_off,,,,,96,0,3,,,,,2,,,78,0
14496,note_on,,,,,0,0,1,,,,,0,,,76,92
14588,note_off,,,,,188,0,9,,,,,8,,,58,0
14588,note_off,,,,,188,0,5,,,,,4,,,61,0
14588,note_off,,,,,188,0,6,,,,,5,,,58,0
14588,note_off,,,,,188,0,7,,,,,6,,,46,0
14588,note_off,,,,,0,0,8,,,,,7,,,73,0
14588,note_off,,,,,0,0,8,,,,,7,,,66,0
14588,note_off,,,,,188,0,8,,,,,7,,,60,0
14592,note_on,,,,,4,0,8,,,,,7,,,63,60
14592,note_off,,,,,96,0,3,,,,,2,,,76,0
14592,note_on,,,,,0,0,8,,,,,7,,,71,60
14592,note_on,,,,,4,0,6,,,,,5,,,59,92
14592,note_on,,,,,0,0,4,,,,,3,,,66,108
14592,note_on,,,,,0,0,3,,,,,2,,,75,108
14592,note_on,,,,,0,0,2,,,,,1,,,66,92
14592,note_off,,,,,192,0,2,,,,,1,,,66,0
14592,note_off,,,,,192,0,4,,,,,3,,,66,0
14592,note_on,,,,,4,0,9,,,,,8,,,59,60
14592,note_on,,,,,0,0,8,,,,,7,,,66,60
14592,note_on,,,,,0,0,1,,,,,0,,,75,92
14592,note_off,,,,,96,0,1,,,,,0,,,76,0
14592,note_on,,,,,4,0,7,,,,,6,,,47,75
14592,note_on,,,,,4,0,5,,,,,4,,,63,92
14780,note_off,,,,,188,0,6,,,,,5,,,59,0
14780,note_off,,,,,188,0,9,,,,,8,,,59,0
14780,note_off,,,,,188,0,8,,,,,7,,,63,0
14780,note_off,,,,,188,0,7,,,,,6,,,47,0
14780,note_off,,,,,0,0,8,,,,,7,,,66,0
14780,note_off,,,,,0,0,8,,,,,7,,,71,0
14780,note_off,,,,,188,0,5,,,,,4,,,63,0
14784,note_off,,,,,192,0,3,,,,,2,,,75,0
14784,note_on,,,,,4,0,6,,,,,5,,,59,92
14784,note_off,,,,,192,0,1,,,,,0,,,75,0
14784,note_off,,,,,192,0,4,,,,,3,,,66,0
14784,note_on,,,,,0,0,2,,,,,1,,,66,92
14784,note_off,,,,,192,0,2,,,,,1,,,66,0
14784,note_on,,,,,0,0,4,,,,,3,,,66,108
14784,note_on,,,,,4,0,5,,,,,4,,,63,92
14784,note_on,,,,,0,0,8,,,,,7,,,66,60
14784,note_on,,,,,0,0,8,,,,,7,,,71,60
14784,note_on,,,,,4,0,7,,,,,6,,,47,75
14784,note_on,,,,,0,0,1,,,,,0,,,71,92
14784,note_on,,,,,4,0,9,,,,,8,,,59,60
14784,note_on,,,,,0,0,3,,,,,2,,,71,108
14784,note_on,,,,,4,0,8,,,,,7,,,63,60
14972,note_off,,,,,188,0,8,,,,,7,,,63,0
14972,note_off,,,,,0,0,8,,,,,7,,,66,0
14972,note_off,,,,,0,0,8,,,,,7,,,71,0
14972,note_off,,,,,188,0,6,,,,,5,,,59,0
14972,note_off,,,,,188,0,5,,,,,4,,,63,0
14972,note_off,,,,,188,0,9,,,,,8,,,59,0
14972,note_off,,,,,188,0,7,,,,,6,,,47,0
14976,note_on,,,,,4,0,9,,,,,8,,,55,60
14976,note_off,,,,,192,0,1,,,,,0,,,71,0
14976,note_on,,,,,4,0,7,,,,,6,,,43,75
14976,note_off,,,,,192,0,3,,,,,2,,,71,0
14976,note_on,,,,,4,0,5,,,,,4,,,59,92
14976,note_off,,,,,192,0,2,,,,,1,,,66,0
14976,note_on,,,,,0,0,4,,,,,3,,,64,108
14976,note_on,,,,,4,0,6,,,,,5,,,55,92
14976,note_on,,,,,0,0,8,,,,,7,,,71,60
14976,note_off,,,,,192,0,4,,,,,3,,,66,0
14976,note_on,,,,,0,0,2,,,,,1,,,64,92
14976,note_on,,,,,4,0,8,,,,,7,,,64,60
15164,note_off,,,,,188,0,7,,,,,6,,,43,0
15164,note_off,,,,,188,0,5,,,,,4,,,59,0
15164,note_off,,,,,188,0,9,,,,,8,,,55,0
15164,note_off,,,,,188,0,8,,,,,7,,,64,0
15164,note_off,,,,,188,0,6,,,,,5,,,55,0
15164,note_off,,,,,0,0,8,,,,,7,,,71,0
15168,note_on,,,,,4,0,8,,,,,7,,,64,60
15168,note_on,,,,,4,0,7,,,,,6,,,43,75
15168,note_on,,,,,0,0,2,,,,,1,,,64,92
15168,note_off,,,,,192,0,2,,,,,1,,,64,0
15168,note_on,,,,,4,0,5,,,,,4,,,59,92
15168,note_off,,,,,192,0,4,,,,,3,,,64,0
15168,note_on,,,,,4,0,6,,,,,5,,,55,92
15168,note_on,,,,,192,0,1,,,,,0,,,83,92
15168,note_on,,,,,4,0,9,,,,,8,,,55,60
15168,note_on,,,,,0,0,8,,,,,7,,,71,60
15168,note_on,,,,,192,0,3,,,,,2,,,83,108
15168,note_on,,,,,0,0,4,,,,,3,,,64,108
15264,note_off,,,,,96,0,3,,,,,2,,,83,0
15264,note_on,,,,,0,0,3,,,,,2,,,71,108
15264,note_on,,,,,0,0,1,,,,,0,,,71,92
15264,note_off,,,,,96,0,1,,,,,0,,,83,0
15356,note_off,,,,,188,0,7,,,,,6,,,43,0
15356,note_off,,,,,188,0,9,,,,,8,,,55,0
15356,note_off,,,,,188,0,8,,,,,7,,,64,0
15356,note_off,,,,,188,0,5,,,,,4,,,59,0
15356,note_off,,,,,0,0,8,,,,,7,,,71,0
15356,note_off,,,,,188,0,6,,,,,5,,,55,0
15360,note_on,,,,,0,0,4,,,,,3,,,64,108
15360,note_on,,,,,4,0,9,,,,,8,,,57,60
15360,note_on,,,,,4,0,8,,,,,7,,,61,60
15360,note_off,,,,,96,0,1,,,,,0,,,71,0
15360,note_on,,,,,0,0,1,,,,,0,,,74,92
15360,note_on,,,,,0,0,3,,,,,2,,,74,108
15360,note_off,,,,,96,0,3,,,,,2,,,71,0
15360,note_on,,,,,0,0,8,,,,,7,,,64,60
15360,note_on,,,,,4,0,6,,,,,5,,,57,92
15360,note_on,,,,,0,0,8,,,,,7,,,71,60
15360,note_on,,,,,4,0,5,,,,,4,,,57,92
15360,note_off,,,,,192,0,2,,,,,1,,,64,0
15360,note_on,,,,,4,0,7,,,,,6,,,45,75
15360,note_off,,,,,192,0,4,,,,,3,,,64,0
15360,note_on,,,,,0,0,2,,,,,1,,,64,92
15456,note_on,,,,,0,0,1,,,,,0,,,73,92
15456,note_off,,,,,96,0,1,,,,,0,,,74,0
15456,note_on,,,,,0,0,3,,,,,2,,,73,108
15456,note_off,,,,,96,0,3,,,,,2,,,74,0
15548,note_off,,,,,188,0,6,,,,,5,,,57,0
15548,note_off,,,,,188,0,8,,,,,7,,,61,0
15548,note_off,,,,,188,0,9,,,,,8,,,57,0
15548,note_off,,,,,188,0,7,,,,,6,,,45,0
15548,note_off,,,,,0,0,8,,,,,7,,,64,0
15548,note_off,,,,,0,0,8,,,,,7,,,71,0
15548,note_off,,,,,188,0,5,,,,,4,,,57,0
15552,note_on,,,,,0,0,1,,,,,0,,,83,92
15552,note_off,,,,,96,0,1,,,,,0,,,73,0
15552,note_off,,,,,192,0,4,,,,,3,,,64,0
15552,note_on,,,,,0,0,4,,,,,3,,,64,108
15552,note_on,,,,,4,0,6,,,,,5,,,57,92
15552,note_on,,,,,4,0,7,,,,,6,,,45,75
15552,note_on,,,,,4,0,8,,,,,7,,,61,60
15552,note_on,,,,,0,0,8,,,,,7,,,64,60
15552,note_on,,,,,0,0,8,,,,,7,,,69,60
15552,note_on,,,,,4,0,5,,,,,4,,,57,92
15552,note_on,,,,,4,0,9,,,,,8,,,57,60
15552,note_on,,,,,0,0,2,,,,,1,,,64,92
15552,note_off,,,,,192,0,2,,,,,1,,,64,0
15552,note_on,,,,,0,0,3,,,,,2,,,83,108
15552,note_off,,,,,96,0,3,,,,,2,,,73,0
15648,note_on,,,,,0,0,3,,,,,2,,,81,108
15648,note_off,,,,,96,0,3,,,,,2,,,83,0
15648,note_off,,,,,96,0,1,,,,,0,,,83,0
15648,note_on,,,,,0,0,1,,,,,0,,,81,92
15740,note_off,,,,,188,0,5,,,,,4,,,57,0
15740,note_off,,,,,188,0,7,,,,,6,,,45,0
15740,note_off,,,,,188,0,9,,,,,8,,,57,0
15740,note_off,,,,,0,0,8,,,,,7,,,69,0
15740,note_off,,,,,188,0,6,,,,,5,,,57,0
15740,note_off,,,,,0,0,8,,,,,7,,,64,0
15740,note_off,,,,,188,0,8,,,,,7,,,61,0
15744,note_on,,,,,4,0,9,,,,,8,,,59,60
15744,note_on,,,,,0,0,1,,,,,0,,,76,92
15744,note_off,,,,,96,0,1,,,,,0,,,81,0
15744,note_on,,,,,4,0,8,,,,,7,,,63,60
15744,note_on,,,,,4,0,6,,,,,5,,,59,92
15744,note_on,,,,,0,0,8,,,,,7,,,69,60
15744,note_off,,,,,192,0,2,,,,,1,,,64,0
15744,note_off,,,,,192,0,4,,,,,3,,,64,0
15744,note_on,,,,,0,0,4,,,,,3,,,64,108
15744,note_off,,,,,96,0,3,,,,,2,,,81,0
15744,note_on,,,,,0,0,3,,,,,2,,,76,108
15744,note_on,,,,,0,0,2,,,,,1,,,64,92
15744,note_on,,,,,4,0,5,,,,,4,,,66,92
15744,note_on,,,,,4,0,7,,,,,6,,,47,75
15840,note_on,,,,,0,0,1,,,,,0,,,75,92
15840,note_off,,,,,96,0,1,,,,,0,,,76,0
15840,note_off,,,,,96,0,3,,,,,2,,,76,0
15840,note_on,,,,,0,0,3,,,,,2,,,75,108
15932,note_off,,,,,188,0,6,,,,,5,,,59,0
15932,note_off,,,,,188,0,8,,,,,7,,,63,0
15932,note_off,,,,,0,0,8,,,,,7,,,69,0
15932,note_off,,,,,188,0,9,,,,,8,,,59,0
15932,note_off,,,,,188,0,7,,,,,6,,,47,0
15932,note_off,,,,,188,0,5,,,,,4,,,66,0
15936,note_off,,,,,192,0,4,,,,,3,,,64,0
15936,note_on,,,,,4,0,5,,,,,4,,,66,92
15936,note_on,,,,,4,0,6,,,,,5,,,59,92
15936,note_on,,,,,4,0,7,,,,,6,,,47,75
15936,note_on,,,,,0,0,2,,,,,1,,,64,92
15936,note_on,,,,,0,0,3,,,,,2,,,83,108
15936,note_off,,,,,192,0,2,,,,,1,,,64,0
15936,note_on,,,,,4,0,8,,,,,7,,,63,60
15936,note_on,,,,,0,0,8,,,,,7,,,69,60
15936,note_on,,,,,0,0,1,,,,,0,,,83,92
15936,note_on,,,,,0,0,4,,,,,3,,,64,108
15936,note_off,,,,,96,0,1,,,,,0,,,75,0
15936,note_on,,,,,4,0,9,,,,,8,,,59,60
15936,note_off,,,,,96,0,3,,,,,2,,,75,0
16032,note_off,,,,,96,0,3,,,,,2,,,83,0
16032,note_off,,,,,96,0,1,,,,,0,,,83,0
16032,note_on,,,,,0,0,1,,,,,0,,,81,92
16032,note_on,,,,,0,0,3,,,,,2,,,81,108
16124,note_off,,,,,188,0,6,,,,,5,,,59,0
16124,note_off,,,,,188,0,7,,,,,6,,,47,0
16124,note_off,,,,,188,0,9,,,,,8,,,59,0
16124,note_off,,,,,0,0,8,,,,,7,,,69,0
16124,note_off,,,,,188,0,5,,,,,4,,,66,0
16124,note_off,,,,,188,0,8,,,,,7,,,63,0
16128,note_on,,,,,0,0,2,,,,,1,,,64,92
16128,note_on,,,,,4,0,7,,,,,6,,,48,75
16128,note_on,,,,,0,0,4,,,,,3,,,64,108
16128,note_off,,,,,192,0,4,,,,,3,,,64,0
16128,note_on,,,,,0,0,8,,,,,7,,,69,60
16128,note_off,,,,,192,0,2,,,,,1,,,64,0
16128,note_on,,,,,4,0,5,,,,,4,,,66,92
16128,note_on,,,,,4,0,8,,,,,7,,,64,60
16128,note_off,,,,,96,0,1,,,,,0,,,81,0
16128,note_on,,,,,0,0,3,,,,,2,,,78,108
16128,note_off,,,,,96,0,3,,,,,2,,,81,0
16128,note_on,,,,,4,0,9,,,,,8,,,60,60
16128,note_on,,,,,4,0,6,,,,,5,,,60,92
16128,note_on,,,,,0,0,1,,,,,0,,,78,92
16224,note_off,,,,,96,0,3,,,,,2,,,78,0
16224,note_on,,,,,0,0,3,,,,,2,,,76,108
16224,note_on,,,,,0,0,1,,,,,0,,,76,92
16224,note_off,,,,,96,0,1,,,,,0,,,78,0
16316,note_off,,,,,188,0,9,,,,,8,,,60,0
16316,note_off,,,,,188,0,7,,,,,6,,,48,0
16316,note_off,,,,,188,0,6,,,,,5,,,60,0
16316,note_off,,,,,0,0,8,,,,,7,,,69,0
16316,note_off,,,,,188,0,8,,,,,7,,,64,0
16316,note_off,,,,,188,0,5,,,,,4,,,66,0
16320,note_off,,,,,96,0,1,,,,,0,,,76,0
16320,note_on,,,,,4,0,7,,,,,6,,,48,75
16320,note_on,,,,,0,0,1,,,,,0,,,83,92
16320,note_on,,,,,4,0,9,,,,,8,,,60,60
16320,note_off,,,,,192,0,4,,,,,3,,,64,0
16320,note_on,,,,,0,0,4,,,,,3,,,64,108
16320,note_on,,,,,0,0,8,,,,,7,,,69,60
16320,note_on,,,,,4,0,8,,,,,7,,,64,60
16320,note_on,,,,,4,0,5,,,,,4,,,66,92
16320,note_on,,,,,0,0,3,,,,,2,,,83,108
16320,note_on,,,,,4,0,6,,,,,5,,,60,92
16320,note_on,,,,,0,0,2,,,,,1,,,64,92
16320,note_off,,,,,96,0,3,,,,,2,,,76,0
16320,note_off,,,,,192,0,2,,,,,1,,,64,0
16416,note_off,,,,,96,0,1,,,,,0,,,83,0
16416,note_off,,,,,96,0,3,,,,,2,,,83,0
16416,note_on,,,,,0,0,1,,,,,0,,,81,92
16416,note_on,,,,,0,0,3,,,,,2,,,81,108
16508,note_off,,,,,188,0,8,,,,,7,,,64,0
16508,note_off,,,,,188,0,5,,,,,4,,,66,0
16508,note_off,,,,,188,0,7,,,,,6,,,48,0
16508,note_off,,,,,188,0,6,,,,,5,,,60,0
16508,note_off,,,,,0,0,8,,,,,7,,,69,0
16508,note_off,,,,,188,0,9,,,,,8,,,60,0
16512,note_on,,,,,0,0,1,,,,,0,,,78,92
16512,note_on,,,,,4,0,7,,,,,6,,,49,75
16512,note_on,,,,,0,0,4,,,,,3,,,64,108
16512,note_on,,,,,0,0,2,,,,,1,,,64,92
16512,note_off,,,,,192,0,2,,,,,1,,,64,0
16512,note_off,,,,,192,0,4,,,,,3,,,64,0
16512,note_on,,,,,0,0,3,,,,,2,,,78,108
16512,note_on,,,,,4,0,9,,,,,8,,,61,60
16512,note_on,,,,,4,0,5,,,,,4,,,66,92
16512,note_on,,,,,0,0,8,,,,,7,,,70,60
16512,note_on,,,,,4,0,8,,,,,7,,,64,60
16512,note_on,,,,,4,0,6,,,,,5,,,61,92
16512,note_off,,,,,96,0,3,,,,,2,,,81,0
16512,note_off,,,,,96,0,1,,,,,0,,,81,0
16608,note_on,,,,,0,0,3,,,,,2,,,76,108
16608,note_off,,,,,96,0,1,,,,,0,,,78,0
16608,note_on,,,,,0,0,1,,,,,0,,,76,92
16608,note_off,,,,,96,0,3,,,,,2,,,78,0
16700,note_off,,,,,188,0,8,,,,,7,,,64,0
16700,note_off,,,,,188,0,9,,,,,8,,,61,0
16700,note_off,,,,,188,0,5,,,,,4,,,66,0
16700,note_off,,,,,0,0,8,,,,,7,,,70,0
16700,note_off,,,,,188,0,6,,,,,5,,,61,0
16700,note_off,,,,,188,0,7,,,,,6,,,49,0
16704,note_off,,,,,192,0,4,,,,,3,,,64,0
16704,note_on,,,,,0,0,4,,,,,3,,,64,108
16704,note_off,,,,,96,0,1,,,,,0,,,76,0
16704,note_on,,,,,0,0,1,,,,,0,,,83,92
16704,note_off,,,,,192,0,2,,,,,1,,,64,0
16704,note_on,,,,,0,0,2,,,,,1,,,64,92
16704,note_on,,,,,4,0,9,,,,,8,,,61,60
16704,note_on,,,,,4,0,6,,,,,5,,,61,92
16704,note_off,,,,,96,0,3,,,,,2,,,76,0
16704,note_on,,,,,0,0,3,,,,,2,,,83,108
16704,note_on,,,,,4,0,8,,,,,7,,,64,60
16704,note_on,,,,,0,0,8,,,,,7,,,70,60
16704,note_on,,,,,4,0,5,,,,,4,,,66,92
16704,note_on,,,,,4,0,7,,,,,6,,,49,75
16800,note_on,,,,,0,0,1,,,,,0,,,82,92
16800,note_off,,,,,96,0,3,,,,,2,,,83,0
16800,note_on,,,,,0,0,3,,,,,2,,,82,108
16800,note_off,,,,,96,0,1,,,,,0,,,83,0
16892,note_off,,,,,188,0,7,,,,,6,,,49,0
16892,note_off,,,,,188,0,5,,,,,4,,,66,0
16892,note_off,,,,,188,0,6,,,,,5,,,61,0
16892,note_off,,,,,0,0,8,,,,,7,,,70,0
16892,note_off,,,,,188,0,8,,,,,7,,,64,0
16892,note_off,,,,,188,0,9,,,,,8,,,61,0
16896,note_on,,,,,0,0,8,,,,,7,,,71,60
16896,note_on,,,,,0,0,1,,,,,0,,,83,92
16896,note_off,,,,,96,0,1,,,,,0,,,82,0
16896,note_on,,,,,4,0,7,,,,,6,,,51,75
16896,note_on,,,,,0,0,2,,,,,1,,,63,92
16896,note_off,,,,,192,0,2,,,,,1,,,64,0
16896,note_on,,,,,4,0,5,,,,,4,,,66,92
16896,note_on,,,,,4,0,9,,,,,8,,,63,60
16896,note_on,,,,,4,0,8,,,,,7,,,66,60
16896,note_off,,,,,96,0,3,,,,,2,,,82,0
16896,note_on,,,,,0,0,3,,,,,2,,,83,108
16896,note_off,,,,,192,0,4,,,,,3,,,64,0
16896,note_on,,,,,4,0,6,,,,,5,,,63,92
16896,note_on,,,,,0,0,4,,,,,3,,,63,108
16992,note_on,,,,,0,0,1,,,,,0,,,78,92
16992,note_off,,,,,96,0,1,,,,,0,,,83,0
16992,note_on,,,,,0,0,3,,,,,2,,,78,108
16992,note_off,,,,,96,0,3,,,,,2,,,83,0
17084,note_off,,,,,188,0,8,,,,,7,,,66,0
17084,note_off,,,,,188,0,7,,,,,6,,,51,0
17084,note_off,,,,,188,0,5,,,,,4,,,66,0
17084,note_off,,,,,188,0,6,,,,,5,,,63,0
17084,note_off,,,,,188,0,9,,,,,8,,,63,0
17088,note_on,,,,,4,0,9,,,,,8,,,64,60
17088,note_on,,,,,0,0,1,,,,,0,,,79,92
17088,note_off,,,,,96,0,1,,,,,0,,,78,0
17088,note_off,,,,,192,0,4,,,,,3,,,63,0
17088,note_on,,,,,0,0,4,,,,,3,,,71,108
17088,note_off,,,,,96,0,3,,,,,2,,,78,0
17088,note_on,,,,,0,0,2,,,,,1,,,71,92
17088,note_on,,,,,4,0,8,,,,,7,,,67,60
17088,note_on,,,,,0,0,3,,,,,2,,,79,108
17088,note_on,,,,,4,0,6,,,,,5,,,64,92
17088,note_off,,,,,192,0,2,,,,,1,,,63,0
17088,note_on,,,,,4,0,7,,,,,6,,,52,75
17088,note_on,,,,,4,0,5,,,,,4,,,64,92
17216,note_off,,,,,128,0,8,,,,,7,,,71,0
17232,note_off,,,,,144,0,3,,,,,2,,,79,0
17232,note_on,,,,,0,0,3,,,,,2,,,81,108
17232,note_off,,,,,144,0,1,,,,,0,,,79,0
17232,note_on,,,,,0,0,1,,,,,0,,,81,92
17276,note_off,,,,,188,0,7,,,,,6,,,52,0
17276,note_off,,,,,60,0,8,,,,,7,,,67,0
17276,note_off,,,,,188,0,5,,,,,4,,,64,0
17276,note_off,,,,,188,0,6,,,,,5,,,64,0
17276,note_off,,,,,188,0,9,,,,,8,,,64,0
17280,note_on,,,,,0,0,2,,,,,1,,,71,92
17280,note_on,,,,,0,0,3,,,,,2,,,76,108
17280,note_off,,,,,48,0,3,,,,,2,,,81,0
17280,note_on,,,,,0,0,8,,,,,7,,,71,60
17280,note_on,,,,,4,0,5,,,,,4,,,66,92
17280,note_on,,,,,4,0,7,,,,,6,,,47,75
17280,note_off,,,,,192,0,2,,,,,1,,,71,0
17280,note_on,,,,,4,0,6,,,,,5,,,59,92
17280,note_off,,,,,48,0,1,,,,,0,,,81,0
17280,note_on,,,,,4,0,8,,,,,7,,,63,60
17280,note_on,,,,,0,0,8,,,,,7,,,66,60
17280,note_off,,,,,192,0,4,,,,,3,,,71,0
17280,note_on,,,,,0,0,4,,,,,3,,,71,108
17280,note_on,,,,,0,0,1,,,,,0,,,76,92
17280,note_on,,,,,4,0,9,,,,,8,,,59,60
17304,note_off,,,,,24,0,3,,,,,2,,,76,0
17304,note_on,,,,,0,0,1,,,,,0,,,75,92
17304,note_off,,,,,24,0,1,,,,,0,,,76,0
17304,note_on,,,,,0,0,3,,,,,2,,,75,108
17328,note_on,,,,,0,0,3,,,,,2,,,76,108
17328,note_off,,,,,24,0,1,,,,,0,,,75,0
17328,note_on,,,,,0,0,1,,,,,0,,,76,92
17328,note_off,,,,,24,0,3,,,,,2,,,75,0
17352,note_on,,,,,0,0,1,,,,,0,,,75,92
17352,note_off,,,,,24,0,1,,,,,0,,,76,0
17352,note_on,,,,,0,0,3,,,,,2,,,75,108
17352,note_off,,,,,24,0,3,,,,,2,,,76,0
17376,note_off,,,,,24,0,1,,,,,0,,,75,0
17376,note_on,,,,,0,0,1,,,,,0,,,76,92
17376,note_on,,,,,0,0,3,,,,,2,,,76,108
17376,note_off,,,,,24,0,3,,,,,2,,,75,0
17400,note_on,,,,,0,0,3,,,,,2,,,75,108
17400,note_off,,,,,24,0,3,,,,,2,,,76,0
17400,note_on,,,,,0,0,1,,,,,0,,,75,92
17400,note_off,,,,,24,0,1,,,,,0,,,76,0
17424,note_off,,,,,24,0,1,,,,,0,,,75,0
17424,note_on,,,,,0,0,3,,,,,2,,,76,108
17424,note_off,,,,,24,0,3,,,,,2,,,75,0
17424,note_on,,,,,0,0,1,,,,,0,,,76,92
17448,note_off,,,,,24,0,1,,,,,0,,,76,0
17448,note_on,,,,,0,0,3,,,,,2,,,75,108
17448,note_off,,,,,24,0,3,,,,,2,,,76,0
17448,note_on,,,,,0,0,1,,,,,0,,,75,92
17468,note_off,,,,,188,0,7,,,,,6,,,47,0
17468,note_off,,,,,188,0,5,,,,,4,,,66,0
17468,note_off,,,,,188,0,6,,,,,5,,,59,0
17472,note_on,,,,,4,0,6,,,,,5,,,47,92
17472,note_on,,,,,4,0,7,,,,,6,,,35,75
17472,note_off,,,,,192,0,4,,,,,3,,,71,0
17472,note_on,,,,,0,0,4,,,,,3,,,66,108
17472,note_on,,,,,192,0,9,,,,,8,,,47,60
17472,note_on,,,,,0,0,2,,,,,1,,,66,92
17472,note_on,,,,,0,0,1,,,,,0,,,76,92
17472,note_off,,,,,24,0,1,,,,,0,,,75,0
17472,note_on,,,,,4,0,5,,,,,4,,,59,92
17472,note_off,,,,,24,0,3,,,,,2,,,75,0
17472,note_off,,,,,192,0,2,,,,,1,,,71,0
17472,note_on,,,,,0,0,3,,,,,2,,,76,108
17496,note_off,,,,,24,0,1,,,,,0,,,76,0
17496,note_on,,,,,0,0,3,,,,,2,,,75,108
17496,note_on,,,,,0,0,1,,,,,0,,,75,92
17496,note_off,,,,,24,0,3,,,,,2,,,76,0
17568,note_on,,,,,0,0,3,,,,,2,,,76,108
17568,note_off,,,,,72,0,3,,,,,2,,,75,0
17568,note_off,,,,,72,0,1,,,,,0,,,75,0
17568,note_on,,,,,0,0,1,,,,,0,,,76,92
17600,note_off,,,,,320,0,8,,,,,7,,,63,0
17600,note_off,,,,,0,0,8,,,,,7,,,71,0
17600,note_off,,,,,0,0,8,,,,,7,,,66,0
17660,note_off,,,,,188,0,9,,,,,8,,,59,0
17660,note_off,,,,,188,0,6,,,,,5,,,47,0
17660,note_off,,,,,188,0,7,,,,,6,,,35,0
17660,note_off,,,,,188,0,5,,,,,4,,,59,0
17660,note_off,,,,,0,0,9,,,,,8,,,47,0
17664,note_on,,,,,0,0,3,,,,,2,,,76,108
17664,note_on,,,,,0,0,1,,,,,0,,,76,92
17664,note_on,,,,,0,0,9,,,,,8,,,59,60
17664,note_on,,,,,4,0,9,,,,,8,,,52,60
17664,note_on,,,,,4,0,6,,,,,5,,,52,92
17664,note_off,,,,,192,0,2,,,,,1,,,66,0
17664,note_on,,,,,0,0,2,,,,,1,,,67,92
17664,note_off,,,,,96,0,1,,,,,0,,,76,0
17664,note_on,,,,,4,0,5,,,,,4,,,59,92
17664,note_on,,,,,0,0,8,,,,,7,,,67,60
17664,note_on,,,,,64,0,8,,,,,7,,,64,60
17664,note_on,,,,,4,0,7,,,,,6,,,40,75
17664,note_off,,,,,96,0,3,,,,,2,,,76,0
17664,note_off,,,,,192,0,4,,,,,3,,,66,0
17664,note_on,,,,,0,0,4,,,,,3,,,67,108
17984,note_off,,,,,0,0,8,,,,,7,,,67,0
17984,note_off,,,,,320,0,5,,,,,4,,,59,0
17984,note_off,,,,,320,0,6,,,,,5,,,52,0
17984,note_off,,,,,320,0,9,,,,,8,,,52,0
17984,note_off,,,,,320,0,8,,,,,7,,,64,0
17984,note_off,,,,,320,0,7,,,,,6,,,40,0
17984,note_off,,,,,0,0,9,,,,,8,,,59,0
18048,note_off,,,,,384,0,2,,,,,1,,,67,0
18048,note_off,,,,,384,0,4,,,,,3,,,67,0
18048,note_off,,,,,384,0,3,,,,,2,,,76,0
18048,note_off,,,,,384,0,1,,,,,0,,,76,0
18240,note_on,,,,,192,0,1,,,,,0,,,62,92
18240,note_on,,,,,192,0,3,,,,,2,,,62,108
18432,note_off,,,,,192,0,1,,,,,0,,,62,0
18432,note_on,,,,,0,0,1,,,,,0,,,62,92
18432,note_off,,,,,192,0,3,,,,,2,,,62,0
18432,note_on,,,,,0,0,3,,,,,2,,,62,108
18528,note_on,,,,,0,0,1,,,,,0,,,61,92
18528,note_off,,,,,96,0,1,,,,,0,,,62,0
18528,note_on,,,,,0,0,3,,,,,2,,,61,108
18528,note_off,,,,,96,0,3,,,,,2,,,62,0
18624,note_off,,,,,96,0,1,,,,,0,,,61,0
18624,note_on,,,,,0,0,1,,,,,0,,,67,92
18624,note_on,,,,,0,0,3,,,,,2,,,67,108
18624,note_off,,,,,96,0,3,,,,,2,,,61,0
18720,note_on,,,,,0,0,1,,,,,0,,,66,92
18720,note_off,,,,,96,0,1,,,,,0,,,67,0
18720,note_off,,,,,96,0,3,,,,,2,,,67,0
18720,note_on,,,,,0,0,3,,,,,2,,,66,108
18816,note_off,,,,,96,0,3,,,,,2,,,66,0
18816,note_off,,,,,96,0,1,,,,,0,,,66,0
18816,note_on,,,,,0,0,3,,,,,2,,,70,108
18816,note_on,,,,,0,0,1,,,,,0,,,70,92
18912,note_off,,,,,96,0,1,,,,,0,,,70,0
18912,note_off,,,,,96,0,3,,,,,2,,,70,0
18912,note_on,,,,,0,0,1,,,,,0,,,69,92
18912,note_on,,,,,0,0,3,,,,,2,,,69,108
19008,note_off,,,,,96,0,1,,,,,0,,,69,0
19008,note_on,,,,,0,0,1,,,,,0,,,74,92
19008,note_off,,,,,96,0,3,,,,,2,,,69,0
19008,note_on,,,,,0,0,3,,,,,2,,,74,108
19104,note_on,,,,,0,0,3,,,,,2,,,73,108
19104,note_on,,,,,0,0,1,,,,,0,,,73,92
19104,note_off,,,,,96,0,3,,,,,2,,,74,0
19104,note_off,,,,,96,0,1,,,,,0,,,74,0
19200,note_on,,,,,0,0,1,,,,,0,,,79,92
19200,note_on,,,,,0,0,3,,,,,2,,,79,108
19200,note_off,,,,,96,0,1,,,,,0,,,73,0
19200,note_off,,,,,96,0,3,,,,,2,,,73,0
19296,note_off,,,,,96,0,3,,,,,2,,,79,0
19296,note_on,,,,,0,0,1,,,,,0,,,78,92
19296,note_off,,,,,96,0,1,,,,,0,,,79,0
19296,note_on,,,,,0,0,3,,,,,2,,,78,108
19392,note_off,,,,,96,0,3,,,,,2,,,78,0
19392,note_on,,,,,0,0,3,,,,,2,,,82,108
19392,note_off,,,,,96,0,1,,,,,0,,,78,0
19392,note_on,,,,,0,0,1,,,,,0,,,82,92
19488,note_on,,,,,0,0,1,,,,,0,,,81,92
19488,note_on,,,,,0,0,3,,,,,2,,,81,108
19488,note_off,,,,,96,0,3,,,,,2,,,82,0
19488,note_off,,,,,96,0,1,,,,,0,,,82,0
19584,note_on,,,,,0,0,1,,,,,0,,,79,92
19584,note_off,,,,,96,0,3,,,,,2,,,81,0
19584,note_on,,,,,0,0,3,,,,,2,,,79,108
19584,note_off,,,,,96,0,1,,,,,0,,,81,0
19776,note_on,,,,,1792,0,7,,,,,6,,,49,75
19776,note_on,,,,,1792,0,5,,,,,4,,,64,92
19776,note_on,,,,,1792,0,9,,,,,8,,,61,60
19776,note_on,,,,,1728,0,4,,,,,3,,,69,108
19776,note_on,,,,,1792,0,8,,,,,7,,,64,60
19776,note_on,,,,,0,0,8,,,,,7,,,69,60
19776,note_on,,,,,1728,0,2,,,,,1,,,69,92
19776,note_on,,,,,1792,0,6,,,,,5,,,61,92
19872,note_on,,,,,0,0,1,,,,,0,,,81,92
19872,note_on,,,,,0,0,3,,,,,2,,,81,108
19872,note_off,,,,,288,0,3,,,,,2,,,79,0
19872,note_off,,,,,288,0,1,,,,,0,,,79,0
19964,note_off,,,,,188,0,8,,,,,7,,,64,0
19964,note_off,,,,,188,0,5,,,,,4,,,64,0
19964,note_off,,,,,0,0,8,,,,,7,,,69,0
19964,note_off,,,,,188,0,9,,,,,8,,,61,0
19964,note_off,,,,,188,0,6,,,,,5,,,61,0
19964,note_off,,,,,188,0,7,,,,,6,,,49,0
19968,note_on,,,,,4,0,9,,,,,8,,,62,60
19968,note_off,,,,,192,0,2,,,,,1,,,69,0
19968,note_off,,,,,96,0,3,,,,,2,,,81,0
19968,note_on,,,,,0,0,3,,,,,2,,,77,108
19968,note_on,,,,,0,0,2,,,,,1,,,69,92
19968,note_on,,,,,4,0,6,,,,,5,,,62,92
19968,note_off,,,,,192,0,4,,,,,3,,,69,0
19968,note_on,,,,,4,0,8,,,,,7,,,65,60
19968,note_on,,,,,4,0,7,,,,,6,,,50,75
19968,note_on,,,,,4,0,5,,,,,4,,,65,92
19968,note_on,,,,,0,0,4,,,,,3,,,69,108
19968,note_on,,,,,0,0,8,,,,,7,,,69,60
19968,note_off,,,,,96,0,1,,,,,0,,,81,0
19968,note_on,,,,,0,0,1,,,,,0,,,77,92
20156,note_off,,,,,188,0,7,,,,,6,,,50,0
20156,note_off,,,,,188,0,6,,,,,5,,,62,0
20156,note_off,,,,,0,0,8,,,,,7,,,69,0
20156,note_off,,,,,188,0,8,,,,,7,,,65,0
20156,note_off,,,,,188,0,5,,,,,4,,,65,0
20156,note_off,,,,,188,0,9,,,,,8,,,62,0
20160,note_off,,,,,192,0,2,,,,,1,,,69,0
20160,note_on,,,,,0,0,8,,,,,7,,,70,60
20160,note_on,,,,,4,0,8,,,,,7,,,64,60
20160,note_on,,,,,0,0,2,,,,,1,,,70,92
20160,note_on,,,,,4,0,7,,,,,6,,,43,75
20160,note_on,,,,,0,0,3,,,,,2,,,76,108
20160,note_on,,,,,0,0,4,,,,,3,,,70,108
20160,note_off,,,,,192,0,4,,,,,3,,,69,0
20160,note_on,,,,,4,0,9,,,,,8,,,55,60
20160,note_on,,,,,0,0,1,,,,,0,,,76,92
20160,note_off,,,,,192,0,1,,,,,0,,,77,0
20160,note_off,,,,,192,0,3,,,,,2,,,77,0
20160,note_on,,,,,4,0,5,,,,,4,,,67,92
20160,note_on,,,,,4,0,6,,,,,5,,,55,92
20256,note_off,,,,,96,0,1,,,,,0,,,76,0
20256,note_off,,,,,96,0,3,,,,,2,,,76,0
20256,note_on,,,,,0,0,3,,,,,2,,,74,108
20256,note_on,,,,,0,0,1,,,,,0,,,74,92
20348,note_off,,,,,188,0,6,,,,,5,,,55,0
20348,note_off,,,,,188,0,5,,,,,4,,,67,0
20348,note_off,,,,,188,0,9,,,,,8,,,55,0
20348,note_off,,,,,188,0,7,,,,,6,,,43,0
20348,note_off,,,,,188,0,8,,,,,7,,,64,0
20348,note_off,,,,,0,0,8,,,,,7,,,70,0
20352,note_off,,,,,192,0,4,,,,,3,,,70,0
20352,note_off,,,,,96,0,3,,,,,2,,,74,0
20352,note_on,,,,,4,0,5,,,,,4,,,64,92
20352,note_on,,,,,4,0,6,,,,,5,,,57,92
20352,note_off,,,,,96,0,1,,,,,0,,,74,0
20352,note_on,,,,,0,0,1,,,,,0,,,74,92
20352,note_on,,,,,0,0,3,,,,,2,,,74,108
20352,note_on,,,,,0,0,4,,,,,3,,,69,108
20352,note_on,,,,,4,0,7,,,,,6,,,45,75
20352,note_on,,,,,4,0,8,,,,,7,,,61,60
20352,note_on,,,,,0,0,8,,,,,7,,,64,60
20352,note_on,,,,,0,0,8,,,,,7,,,70,60
20352,note_off,,,,,192,0,2,,,,,1,,,70,0
20352,note_on,,,,,0,0,2,,,,,1,,,69,92
20352,note_on,,,,,4,0,9,,,,,8,,,57,60
20376,note_off,,,,,24,0,1,,,,,0,,,74,0
20376,note_on,,,,,0,0,3,,,,,2,,,73,108
20376,note_off,,,,,24,0,3,,,,,2,,,74,0
20376,note_on,,,,,0,0,1,,,,,0,,,73,92
20400,note_on,,,,,0,0,1,,,,,0,,,74,92
20400,note_off,,,,,24,0,1,,,,,0,,,73,0
20400,note_off,,,,,24,0,3,,,,,2,,,73,0
20400,note_on,,,,,0,0,3,,,,,2,,,74,108
20424,note_off,,,,,24,0,3,,,,,2,,,74,0
20424,note_on,,,,,0,0,3,,,,,2,,,73,108
20424,note_off,,,,,24,0,1,,,,,0,,,74,0
20424,note_on,,,,,0,0,1,,,,,0,,,73,92
20448,note_off,,,,,24,0,3,,,,,2,,,73,0
20448,note_off,,,,,24,0,1,,,,,0,,,73,0
20448,note_on,,,,,0,0,1,,,,,0,,,74,92
20448,note_on,,,,,0,0,3,,,,,2,,,74,108
20472,note_on,,,,,0,0,3,,,,,2,,,73,108
20472,note_off,,,,,24,0,1,,,,,0,,,74,0
20472,note_on,,,,,0,0,1,,,,,0,,,73,92
20472,note_off,,,,,24,0,3,,,,,2,,,74,0
20496,note_off,,,,,24,0,3,,,,,2,,,73,0
20496,note_on,,,,,0,0,3,,,,,2,,,74,108
20496,note_on,,,,,0,0,1,,,,,0,,,74,92
20496,note_off,,,,,24,0,1,,,,,0,,,73,0
20520,note_off,,,,,24,0,3,,,,,2,,,74,0
20520,note_on,,,,,0,0,3,,,,,2,,,73,108
20520,note_off,,,,,24,0,1,,,,,0,,,74,0
20520,note_on,,,,,0,0,1,,,,,0,,,73,92
20540,note_off,,,,,188,0,7,,,,,6,,,45,0
20540,note_off,,,,,188,0,9,,,,,8,,,57,0
20540,note_off,,,,,188,0,5,,,,,4,,,64,0
20540,note_off,,,,,188,0,6,,,,,5,,,57,0
20544,note_off,,,,,192,0,4,,,,,3,,,69,0
20544,note_on,,,,,0,0,4,,,,,3,,,64,108
20544,note_on,,,,,0,0,1,,,,,0,,,74,92
20544,note_on,,,,,0,0,2,,,,,1,,,64,92
20544,note_on,,,,,4,0,7,,,,,6,,,33,75
20544,note_on,,,,,4,0,5,,,,,4,,,69,92
20544,note_on,,,,,4,0,6,,,,,5,,,45,92
20544,note_off,,,,,24,0,1,,,,,0,,,73,0
20544,note_off,,,,,192,0,2,,,,,1,,,69,0
20544,note_on,,,,,4,0,9,,,,,8,,,45,60
20544,note_off,,,,,24,0,3,,,,,2,,,73,0
20544,note_on,,,,,0,0,3,,,,,2,,,74,108
20568,note_off,,,,,24,0,3,,,,,2,,,74,0
20568,note_on,,,,,0,0,3,,,,,2,,,73,108
20568,note_off,,,,,24,0,1,,,,,0,,,74,0
20568,note_on,,,,,0,0,1,,,,,0,,,73,92
20640,note_off,,,,,72,0,1,,,,,0,,,73,0
20640,note_off,,,,,72,0,3,,,,,2,,,73,0
20640,note_on,,,,,0,0,3,,,,,2,,,74,108
20640,note_on,,,,,0,0,1,,,,,0,,,74,92
20672,note_off,,,,,0,0,8,,,,,7,,,70,0
20672,note_off,,,,,320,0,8,,,,,7,,,61,0
20672,note_off,,,,,0,0,8,,,,,7,,,64,0
20732,note_off,,,,,188,0,6,,,,,5,,,45,0
20732,note_off,,,,,188,0,5,,,,,4,,,69,0
20732,note_off,,,,,188,0,7,,,,,6,,,33,0
20732,note_off,,,,,188,0,9,,,,,8,,,45,0
20736,note_on,,,,,4,0,5,,,,,4,,,69,92
20736,note_on,,,,,4,0,7,,,,,6,,,38,75
20736,note_on,,,,,0,0,2,,,,,1,,,65,92
20736,note_on,,,,,0,0,8,,,,,7,,,65,60
20736,note_off,,,,,96,0,1,,,,,0,,,74,0
20736,note_on,,,,,0,0,1,,,,,0,,,74,92
20736,note_off,,,,,192,0,4,,,,,3,,,64,0
20736,note_on,,,,,0,0,4,,,,,3,,,65,108
20736,note_on,,,,,4,0,6,,,,,5,,,50,92
20736,note_on,,,,,0,0,8,,,,,7,,,70,60
20736,note_off,,,,,96,0,3,,,,,2,,,74,0
20736,note_off,,,,,192,0,2,,,,,1,,,64,0
20736,note_on,,,,,64,0,8,,,,,7,,,62,60
20736,note_on,,,,,0,0,3,,,,,2,,,74,108
20736,note_on,,,,,4,0,9,,,,,8,,,50,60
20928,note_off,,,,,192,0,3,,,,,2,,,74,0
20928,note_on,,,,,0,0,3,,,,,2,,,77,108
20928,note_off,,,,,192,0,1,,,,,0,,,74,0
20928,note_on,,,,,0,0,1,,,,,0,,,77,92
21024,note_off,,,,,96,0,1,,,,,0,,,77,0
21024,note_on,,,,,0,0,3,,,,,2,,,74,108
21024,note_off,,,,,96,0,3,,,,,2,,,77,0
21024,note_on,,,,,0,0,1,,,,,0,,,74,92
21056,note_off,,,,,320,0,6,,,,,5,,,50,0
21056,note_off,,,,,320,0,8,,,,,7,,,62,0
21056,note_off,,,,,320,0,5,,,,,4,,,69,0
21056,note_off,,,,,320,0,9,,,,,8,,,50,0
21056,note_off,,,,,0,0,8,,,,,7,,,65,0
21056,note_off,,,,,320,0,7,,,,,6,,,38,0
21056,note_off,,,,,0,0,8,,,,,7,,,70,0
21120,note_off,,,,,384,0,2,,,,,1,,,65,0
21120,note_on,,,,,0,0,1,,,,,0,,,70,92
21120,note_off,,,,,96,0,1,,,,,0,,,74,0
21120,note_off,,,,,96,0,3,,,,,2,,,74,0
21120,note_on,,,,,0,0,3,,,,,2,,,70,108
21120,note_off,,,,,384,0,4,,,,,3,,,65,0
21312,note_on,,,,,192,0,2,,,,,1,,,65,92
21312,note_on,,,,,256,0,6,,,,,5,,,50,92
21312,note_on,,,,,256,0,5,,,,,4,,,62,92
21312,note_on,,,,,0,0,8,,,,,7,,,71,60
21312,note_on,,,,,256,0,7,,,,,6,,,38,75
21312,note_on,,,,,256,0,8,,,,,7,,,65,60
21312,note_on,,,,,192,0,4,,,,,3,,,65,108
21312,note_on,,,,,256,0,9,,,,,8,,,50,60
21456,note_off,,,,,144,0,4,,,,,3,,,65,0
21456,note_on,,,,,0,0,4,,,,,3,,,64,108
21456,note_off,,,,,144,0,2,,,,,1,,,65,0
21456,note_on,,,,,0,0,2,,,,,1,,,64,92
21500,note_off,,,,,188,0,6,,,,,5,,,50,0
21500,note_off,,,,,0,0,8,,,,,7,,,71,0
21500,note_off,,,,,188,0,9,,,,,8,,,50,0
21500,note_off,,,,,188,0,5,,,,,4,,,62,0
21500,note_off,,,,,188,0,7,,,,,6,,,38,0
21500,note_off,,,,,188,0,8,,,,,7,,,65,0
21504,note_on,,,,,4,0,5,,,,,4,,,64,92
21504,note_off,,,,,48,0,2,,,,,1,,,64,0
21504,note_on,,,,,0,0,2,,,,,1,,,64,92
21504,note_on,,,,,4,0,7,,,,,6,,,36,75
21504,note_on,,,,,4,0,6,,,,,5,,,48,92
21504,note_on,,,,,0,0,8,,,,,7,,,70,60
21504,note_off,,,,,48,0,4,,,,,3,,,64,0
21504,note_on,,,,,0,0,4,,,,,3,,,64,108
21504,note_on,,,,,4,0,9,,,,,8,,,48,60
21504,note_on,,,,,4,0,8,,,,,7,,,64,60
21696,note_off,,,,,576,0,3,,,,,2,,,70,0
21696,note_on,,,,,0,0,3,,,,,2,,,76,108
21696,note_off,,,,,576,0,1,,,,,0,,,70,0
21696,note_on,,,,,0,0,1,,,,,0,,,76,92
21792,note_on,,,,,0,0,1,,,,,0,,,72,92
21792,note_off,,,,,96,0,3,,,,,2,,,76,0
21792,note_on,,,,,0,0,3,,,,,2,,,72,108
21792,note_off,,,,,96,0,1,,,,,0,,,76,0
21824,note_off,,,,,320,0,5,,,,,4,,,64,0
21824,note_off,,,,,320,0,6,,,,,5,,,48,0
21824,note_off,,,,,320,0,8,,,,,7,,,70,0
21824,note_off,,,,,320,0,9,,,,,8,,,48,0
21824,note_off,,,,,320,0,7,,,,,6,,,36,0
21888,note_off,,,,,384,0,2,,,,,1,,,64,0
21888,note_on,,,,,0,0,3,,,,,2,,,69,108
21888,note_off,,,,,384,0,4,,,,,3,,,64,0
21888,note_off,,,,,96,0,3,,,,,2,,,72,0
21888,note_on,,,,,0,0,1,,,,,0,,,69,92
21888,note_off,,,,,96,0,1,,,,,0,,,72,0
21888,note_on,,,,,64,0,8,,,,,7,,,69,60
22016,note_off,,,,,128,0,8,,,,,7,,,64,0
22076,note_off,,,,,60,0,8,,,,,7,,,69,0
22080,note_on,,,,,256,0,7,,,,,6,,,48,75
22080,note_on,,,,,0,0,8,,,,,7,,,69,60
22080,note_on,,,,,256,0,6,,,,,5,,,60,92
22080,note_on,,,,,4,0,8,,,,,7,,,64,60
22080,note_on,,,,,192,0,4,,,,,3,,,64,108
22080,note_on,,,,,256,0,9,,,,,8,,,60,60
22080,note_on,,,,,256,0,5,,,,,4,,,69,92
22080,note_on,,,,,192,0,2,,,,,1,,,64,92
22176,note_on,,,,,0,0,1,,,,,0,,,64,92
22176,note_on,,,,,0,0,3,,,,,2,,,64,108
22176,note_off,,,,,288,0,3,,,,,2,,,69,0
22176,note_off,,,,,288,0,1,,,,,0,,,69,0
22268,note_off,,,,,188,0,9,,,,,8,,,60,0
22268,note_off,,,,,188,0,8,,,,,7,,,64,0
22268,note_off,,,,,0,0,8,,,,,7,,,69,0
22268,note_off,,,,,188,0,6,,,,,5,,,60,0
22268,note_off,,,,,188,0,7,,,,,6,,,48,0
22268,note_off,,,,,188,0,5,,,,,4,,,69,0
22272,note_on,,,,,4,0,6,,,,,5,,,62,92
22272,note_on,,,,,4,0,5,,,,,4,,,65,92
22272,note_off,,,,,96,0,3,,,,,2,,,64,0
22272,note_on,,,,,0,0,3,,,,,2,,,65,108
22272,note_on,,,,,4,0,9,,,,,8,,,62,60
22272,note_on,,,,,0,0,4,,,,,3,,,62,108
22272,note_off,,,,,192,0,2,,,,,1,,,64,0
22272,note_on,,,,,0,0,1,,,,,0,,,65,92
22272,note_on,,,,,4,0,7,,,,,6,,,50,75
22272,note_on,,,,,0,0,2,,,,,1,,,62,92
22272,note_off,,,,,192,0,4,,,,,3,,,64,0
22272,note_off,,,,,96,0,1,,,,,0,,,64,0
22272,note_on,,,,,0,0,8,,,,,7,,,69,60
22272,note_on,,,,,4,0,8,,,,,7,,,65,60
22368,note_off,,,,,96,0,1,,,,,0,,,65,0
22368,note_on,,,,,0,0,1,,,,,0,,,64,92
22368,note_off,,,,,96,0,3,,,,,2,,,65,0
22368,note_on,,,,,0,0,3,,,,,2,,,64,108
22460,note_off,,,,,188,0,6,,,,,5,,,62,0
22460,note_off,,,,,188,0,5,,,,,4,,,65,0
22460,note_off,,,,,188,0,8,,,,,7,,,65,0
22460,note_off,,,,,188,0,9,,,,,8,,,62,0
22460,note_off,,,,,188,0,7,,,,,6,,,50,0
22464,note_off,,,,,192,0,4,,,,,3,,,62,0
22464,note_on,,,,,0,0,1,,,,,0,,,69,92
22464,note_off,,,,,96,0,1,,,,,0,,,64,0
22464,note_off,,,,,96,0,3,,,,,2,,,64,0
22464,note_on,,,,,0,0,3,,,,,2,,,69,108
22464,note_on,,,,,4,0,7,,,,,6,,,48,75
22464,note_off,,,,,192,0,2,,,,,1,,,62,0
22464,note_on,,,,,0,0,2,,,,,1,,,64,92
22464,note_on,,,,,4,0,5,,,,,4,,,64,92
22464,note_on,,,,,4,0,6,,,,,5,,,60,92
22464,note_on,,,,,4,0,9,,,,,8,,,60,60
22464,note_on,,,,,0,0,4,,,,,3,,,64,108
22464,note_on,,,,,4,0,8,,,,,7,,,64,60
22560,note_on,,,,,0,0,3,,,,,2,,,68,108
22560,note_off,,,,,96,0,3,,,,,2,,,69,0
22560,note_off,,,,,96,0,1,,,,,0,,,69,0
22560,note_on,,,,,0,0,1,,,,,0,,,68,92
22592,note_off,,,,,128,0,8,,,,,7,,,69,0
22652,note_off,,,,,188,0,9,,,,,8,,,60,0
22652,note_off,,,,,188,0,7,,,,,6,,,48,0
22652,note_off,,,,,188,0,5,,,,,4,,,64,0
22652,note_off,,,,,188,0,6,,,,,5,,,60,0
22652,note_off,,,,,60,0,8,,,,,7,,,64,0
22656,note_on,,,,,4,0,5,,,,,4,,,62,92
22656,note_on,,,,,4,0,6,,,,,5,,,59,92
22656,note_on,,,,,0,0,3,,,,,2,,,74,108
22656,note_on,,,,,4,0,7,,,,,6,,,47,75
22656,note_off,,,,,96,0,3,,,,,2,,,68,0
22656,note_on,,,,,4,0,8,,,,,7,,,62,60
22656,note_on,,,,,0,0,8,,,,,7,,,68,60
22656,note_on,,,,,0,0,2,,,,,1,,,68,92
22656,note_off,,,,,192,0,2,,,,,1,,,64,0
22656,note_on,,,,,0,0,1,,,,,0,,,74,92
22656,note_on,,,,,4,0,9,,,,,8,,,59,60
22656,note_off,,,,,192,0,4,,,,,3,,,64,0
22656,note_on,,,,,0,0,4,,,,,3,,,68,108
22656,note_off,,,,,96,0,1,,,,,0,,,68,0
22752,note_on,,,,,0,0,3,,,,,2,,,73,108
22752,note_on,,,,,0,0,1,,,,,0,,,73,92
22752,note_off,,,,,96,0,1,,,,,0,,,74,0
22752,note_off,,,,,96,0,3,,,,,2,,,74,0
22844,note_off,,,,,0,0,8,,,,,7,,,68,0
22844,note_off,,,,,188,0,8,,,,,7,,,62,0
22844,note_off,,,,,188,0,6,,,,,5,,,59,0
22844,note_off,,,,,188,0,7,,,,,6,,,47,0
22844,note_off,,,,,188,0,9,,,,,8,,,59,0
22844,note_off,,,,,188,0,5,,,,,4,,,62,0
22848,note_off,,,,,96,0,3,,,,,2,,,73,0
22848,note_on,,,,,0,0,3,,,,,2,,,77,108
22848,note_on,,,,,4,0,8,,,,,7,,,60,60
22848,note_on,,,,,0,0,8,,,,,7,,,64,60
22848,note_on,,,,,0,0,8,,,,,7,,,69,60
22848,note_on,,,,,0,0,1,,,,,0,,,77,92
22848,note_on,,,,,4,0,7,,,,,6,,,45,75
22848,note_on,,,,,4,0,9,,,,,8,,,57,60
22848,note_off,,,,,192,0,4,,,,,3,,,68,0
22848,note_on,,,,,0,0,4,,,,,3,,,69,108
22848,note_off,,,,,192,0,2,,,,,1,,,68,0
22848,note_on,,,,,0,0,2,,,,,1,,,69,92
22848,note_on,,,,,4,0,5,,,,,4,,,60,92
22848,note_off,,,,,96,0,1,,,,,0,,,73,0
22848,note_on,,,,,4,0,6,,,,,5,,,57,92
22944,note_on,,,,,0,0,3,,,,,2,,,76,108
22944,note_off,,,,,96,0,3,,,,,2,,,77,0
22944,note_on,,,,,0,0,1,,,,,0,,,76,92
22944,note_off,,,,,96,0,1,,,,,0,,,77,0
23036,note_off,,,,,0,0,8,,,,,7,,,69,0
23036,note_off,,,,,188,0,5,,,,,4,,,60,0
23036,note_off,,,,,0,0,8,,,,,7,,,64,0
23036,note_off,,,,,188,0,8,,,,,7,,,60,0
23036,note_off,,,,,188,0,7,,,,,6,,,45,0
23036,note_off,,,,,188,0,9,,,,,8,,,57,0
23036,note_off,,,,,188,0,6,,,,,5,,,57,0
23040,note_on,,,,,0,0,8,,,,,7,,,64,60
23040,note_on,,,,,4,0,8,,,,,7,,,59,60
23040,note_on,,,,,0,0,8,,,,,7,,,71,60
23040,note_off,,,,,96,0,3,,,,,2,,,76,0
23040,note_on,,,,,4,0,9,,,,,8,,,56,60
23040,note_on,,,,,0,0,3,,,,,2,,,83,108
23040,note_on,,,,,0,0,2,,,,,1,,,64,92
23040,note_on,,,,,4,0,5,,,,,4,,,59,92
23040,note_off,,,,,192,0,4,,,,,3,,,69,0
23040,note_on,,,,,0,0,4,,,,,3,,,64,108
23040,note_on,,,,,4,0,7,,,,,6,,,44,75
23040,note_on,,,,,0,0,1,,,,,0,,,83,92
23040,note_off,,,,,96,0,1,,,,,0,,,76,0
23040,note_off,,,,,192,0,2,,,,,1,,,69,0
23040,note_on,,,,,4,0,6,,,,,5,,,56,92
23228,note_off,,,,,188,0,9,,,,,8,,,56,0
23228,note_off,,,,,188,0,7,,,,,6,,,44,0
23228,note_off,,,,,188,0,8,,,,,7,,,71,0
23228,note_off,,,,,188,0,6,,,,,5,,,56,0
23232,note_on,,,,,4,0,6,,,,,5,,,52,92
23232,note_on,,,,,4,0,8,,,,,7,,,68,60
23232,note_off,,,,,192,0,4,,,,,3,,,64,0
23232,note_off,,,,,192,0,2,,,,,1,,,64,0
23232,note_on,,,,,0,0,4,,,,,3,,,68,108
23232,note_on,,,,,4,0,7,,,,,6,,,40,75
23232,note_on,,,,,4,0,9,,,,,8,,,52,60
23232,note_on,,,,,0,0,2,,,,,1,,,68,92
23328,note_off,,,,,288,0,1,,,,,0,,,83,0
23328,note_on,,,,,0,0,1,,,,,0,,,81,92
23328,note_off,,,,,288,0,3,,,,,2,,,83,0
23328,note_on,,,,,0,0,3,,,,,2,,,81,108
23360,note_off,,,,,320,0,5,,,,,4,,,59,0
23360,note_off,,,,,128,0,8,,,,,7,,,59,0
23360,note_off,,,,,0,0,8,,,,,7,,,64,0
23420,note_off,,,,,188,0,7,,,,,6,,,40,0
23420,note_off,,,,,188,0,6,,,,,5,,,52,0
23420,note_off,,,,,60,0,8,,,,,7,,,68,0
23420,note_off,,,,,188,0,9,,,,,8,,,52,0
23424,note_off,,,,,192,0,2,,,,,1,,,68,0
23424,note_off,,,,,96,0,1,,,,,0,,,81,0
23424,note_off,,,,,192,0,4,,,,,3,,,68,0
23424,note_on,,,,,0,0,3,,,,,2,,,80,108
23424,note_off,,,,,96,0,3,,,,,2,,,81,0
23424,note_on,,,,,0,0,1,,,,,0,,,80,92
23520,note_off,,,,,96,0,3,,,,,2,,,80,0
23520,note_on,,,,,0,0,3,,,,,2,,,78,108
23520,note_off,,,,,96,0,1,,,,,0,,,80,0
23520,note_on,,,,,0,0,1,,,,,0,,,78,92
23568,note_on,,,,,0,0,3,,,,,2,,,76,108
23568,note_off,,,,,48,0,3,,,,,2,,,78,0
23568,note_on,,,,,0,0,1,,,,,0,,,76,92
23568,note_off,,,,,48,0,1,,,,,0,,,78,0
23616,note_on,,,,,196,0,6,,,,,5,,,56,92
23616,note_off,,,,,48,0,3,,,,,2,,,76,0
23616,note_on,,,,,0,0,3,,,,,2,,,74,108
23616,note_on,,,,,196,0,9,,,,,8,,,56,60
23616,note_on,,,,,196,0,7,,,,,6,,,44,75
23616,note_on,,,,,192,0,4,,,,,3,,,71,108
23616,note_on,,,,,0,0,8,,,,,7,,,64,60
23616,note_on,,,,,196,0,8,,,,,7,,,59,60
23616,note_off,,,,,48,0,1,,,,,0,,,76,0
23616,note_on,,,,,0,0,1,,,,,0,,,74,92
23616,note_on,,,,,256,0,5,,,,,4,,,64,92
23616,note_on,,,,,0,0,8,,,,,7,,,71,60
23616,note_on,,,,,192,0,2,,,,,1,,,71,92
23712,note_off,,,,,96,0,1,,,,,0,,,74,0
23712,note_on,,,,,0,0,3,,,,,2,,,72,108
23712,note_off,,,,,96,0,3,,,,,2,,,74,0
23712,note_on,,,,,0,0,1,,,,,0,,,72,92
23760,note_off,,,,,48,0,1,,,,,0,,,72,0
23760,note_on,,,,,0,0,3,,,,,2,,,71,108
23760,note_off,,,,,48,0,3,,,,,2,,,72,0
23760,note_on,,,,,0,0,1,,,,,0,,,71,92
23804,note_off,,,,,0,0,8,,,,,7,,,71,0
23804,note_off,,,,,188,0,7,,,,,6,,,44,0
23804,note_off,,,,,188,0,9,,,,,8,,,56,0
23804,note_off,,,,,188,0,5,,,,,4,,,64,0
23804,note_off,,,,,0,0,8,,,,,7,,,64,0
23804,note_off,,,,,188,0,6,,,,,5,,,56,0
23804,note_off,,,,,188,0,8,,,,,7,,,59,0
23808,note_on,,,,,4,0,9,,,,,8,,,57,60
23808,note_off,,,,,48,0,1,,,,,0,,,71,0
23808,note_on,,,,,0,0,3,,,,,2,,,72,108
23808,note_on,,,,,4,0,5,,,,,4,,,64,92
23808,note_on,,,,,4,0,6,,,,,5,,,57,92
23808,note_off,,,,,192,0,4,,,,,3,,,71,0
23808,note_on,,,,,0,0,4,,,,,3,,,69,108
23808,note_off,,,,,48,0,3,,,,,2,,,71,0
23808,note_on,,,,,4,0,7,,,,,6,,,45,75
23808,note_on,,,,,0,0,2,,,,,1,,,69,92
23808,note_on,,,,,0,0,1,,,,,0,,,72,92
23808,note_off,,,,,192,0,2,,,,,1,,,71,0
23808,note_on,,,,,0,0,8,,,,,7,,,69,60
23808,note_on,,,,,0,0,8,,,,,7,,,64,60
23808,note_on,,,,,4,0,8,,,,,7,,,60,60
23996,note_off,,,,,188,0,7,,,,,6,,,45,0
23996,note_off,,,,,0,0,8,,,,,7,,,69,0
23996,note_off,,,,,188,0,5,,,,,4,,,64,0
23996,note_off,,,,,188,0,8,,,,,7,,,60,0
23996,note_off,,,,,188,0,9,,,,,8,,,57,0
23996,note_off,,,,,188,0,6,,,,,5,,,57,0
24000,note_on,,,,,0,0,8,,,,,7,,,71,60
24000,note_on,,,,,0,0,3,,,,,2,,,74,108
24000,note_on,,,,,4,0,6,,,,,5,,,56,92
24000,note_off,,,,,192,0,4,,,,,3,,,69,0
24000,note_on,,,,,0,0,4,,,,,3,,,71,108
24000,note_on,,,,,4,0,9,,,,,8,,,56,60
24000,note_off,,,,,192,0,3,,,,,2,,,72,0
24000,note_on,,,,,4,0,8,,,,,7,,,62,60
24000,note_on,,,,,4,0,5,,,,,4,,,64,92
24000,note_on,,,,,0,0,1,,,,,0,,,74,92
24000,note_off,,,,,192,0,1,,,,,0,,,72,0
24000,note_on,,,,,0,0,2,,,,,1,,,71,92
24000,note_on,,,,,4,0,7,,,,,6,,,44,75
24000,note_off,,,,,192,0,2,,,,,1,,,69,0
24188,note_off,,,,,0,0,8,,,,,7,,,62,0
24188,note_off,,,,,188,0,8,,,,,7,,,64,0
24188,note_off,,,,,0,0,8,,,,,7,,,71,0
24188,note_off,,,,,188,0,5,,,,,4,,,64,0
24188,note_off,,,,,188,0,6,,,,,5,,,56,0
24188,note_off,,,,,188,0,9,,,,,8,,,56,0
24188,note_off,,,,,188,0,7,,,,,6,,,44,0
24192,note_on,,,,,4,0,6,,,,,5,,,57,92
24192,note_off,,,,,192,0,4,,,,,3,,,71,0
24192,note_on,,,,,0,0,8,,,,,7,,,69,60
24192,note_on,,,,,0,0,8,,,,,7,,,64,60
24192,note_on,,,,,4,0,8,,,,,7,,,60,60
24192,note_on,,,,,4,0,7,,,,,6,,,45,75
24192,note_off,,,,,192,0,2,,,,,1,,,71,0
24192,note_on,,,,,4,0,9,,,,,8,,,57,60
24192,note_on,,,,,0,0,4,,,,,3,,,71,108
24192,note_on,,,,,0,0,2,,,,,1,,,71,92
24192,note_off,,,,,192,0,1,,,,,0,,,74,0
24192,note_on,,,,,0,0,1,,,,,0,,,74,92
24192,note_on,,,,,4,0,5,,,,,4,,,64,92
24192,note_on,,,,,0,0,3,,,,,2,,,74,108
24192,note_off,,,,,192,0,3,,,,,2,,,74,0
24216,note_off,,,,,24,0,3,,,,,2,,,74,0
24216,note_on,,,,,0,0,3,,,,,2,,,72,108
24216,note_off,,,,,24,0,2,,,,,1,,,71,0
24216,note_on,,,,,0,0,1,,,,,0,,,72,92
24216,note_off,,,,,24,0,1,,,,,0,,,74,0
24216,note_on,,,,,0,0,2,,,,,1,,,69,92
24216,note_off,,,,,24,0,4,,,,,3,,,71,0
24216,note_on,,,,,0,0,4,,,,,3,,,69,108
24240,note_off,,,,,24,0,2,,,,,1,,,69,0
24240,note_on,,,,,0,0,2,,,,,1,,,71,92
24240,note_on,,,,,0,0,1,,,,,0,,,74,92
24240,note_on,,,,,0,0,4,,,,,3,,,71,108
24240,note_off,,,,,24,0,1,,,,,0,,,72,0
24240,note_on,,,,,0,0,3,,,,,2,,,74,108
24240,note_off,,,,,24,0,3,,,,,2,,,72,0
24240,note_off,,,,,24,0,4,,,,,3,,,69,0
24264,note_off,,,,,24,0,3,,,,,2,,,74,0
24264,note_on,,,,,0,0,3,,,,,2,,,72,108
24264,note_on,,,,,0,0,2,,,,,1,,,69,92
24264,note_off,,,,,24,0,1,,,,,0,,,74,0
24264,note_on,,,,,0,0,4,,,,,3,,,69,108
24264,note_off,,,,,24,0,4,,,,,3,,,71,0
24264,note_off,,,,,24,0,2,,,,,1,,,71,0
24264,note_on,,,,,0,0,1,,,,,0,,,72,92
24288,note_on,,,,,0,0,4,,,,,3,,,71,108
24288,note_off,,,,,24,0,4,,,,,3,,,69,0
24288,note_on,,,,,0,0,3,,,,,2,,,74,108
24288,note_on,,,,,0,0,2,,,,,1,,,71,92
24288,note_off,,,,,24,0,2,,,,,1,,,69,0
24288,note_off,,,,,24,0,3,,,,,2,,,72,0
24288,note_off,,,,,24,0,1,,,,,0,,,72,0
24288,note_on,,,,,0,0,1,,,,,0,,,74,92
24312,note_off,,,,,24,0,3,,,,,2,,,74,0
24312,note_on,,,,,0,0,1,,,,,0,,,72,92
24312,note_off,,,,,24,0,4,,,,,3,,,71,0
24312,note_on,,,,,0,0,4,,,,,3,,,69,108
24312,note_off,,,,,24,0,2,,,,,1,,,71,0
24312,note_on,,,,,0,0,2,,,,,1,,,69,92
24312,note_off,,,,,24,0,1,,,,,0,,,74,0
24312,note_on,,,,,0,0,3,,,,,2,,,72,108
24336,note_off,,,,,24,0,4,,,,,3,,,69,0
24336,note_off,,,,,24,0,2,,,,,1,,,69,0
24336,note_off,,,,,24,0,1,,,,,0,,,72,0
24336,note_on,,,,,0,0,1,,,,,0,,,74,92
24336,note_off,,,,,24,0,3,,,,,2,,,72,0
24336,note_on,,,,,0,0,3,,,,,2,,,74,108
24336,note_on,,,,,0,0,4,,,,,3,,,71,108
24336,note_on,,,,,0,0,2,,,,,1,,,71,92
24360,note_off,,,,,24,0,2,,,,,1,,,71,0
24360,note_on,,,,,0,0,2,,,,,1,,,69,92
24360,note_off,,,,,24,0,3,,,,,2,,,74,0
24360,note_on,,,,,0,0,3,,,,,2,,,72,108
24360,note_on,,,,,0,0,4,,,,,3,,,69,108
24360,note_off,,,,,24,0,4,,,,,3,,,71,0
24360,note_on,,,,,0,0,1,,,,,0,,,72,92
24360,note_off,,,,,24,0,1,,,,,0,,,74,0
24380,note_off,,,,,188,0,6,,,,,5,,,57,0
24380,note_off,,,,,188,0,9,,,,,8,,,57,0
24380,note_off,,,,,188,0,7,,,,,6,,,45,0
24384,note_on,,,,,4,0,6,,,,,5,,,45,92
24384,note_on,,,,,4,0,9,,,,,8,,,45,60
24384,note_on,,,,,0,0,4,,,,,3,,,71,108
24384,note_on,,,,,0,0,2,,,,,1,,,71,92
24384,note_off,,,,,24,0,2,,,,,1,,,69,0
24384,note_on,,,,,4,0,7,,,,,6,,,33,75
24384,note_on,,,,,0,0,3,,,,,2,,,74,108
24384,note_off,,,,,24,0,3,,,,,2,,,72,0
24384,note_off,,,,,24,0,4,,,,,3,,,69,0
24384,note_off,,,,,24,0,1,,,,,0,,,72,0
24384,note_on,,,,,0,0,1,,,,,0,,,74,92
24408,note_on,,,,,0,0,4,,,,,3,,,69,108
24408,note_off,,,,,24,0,1,,,,,0,,,74,0
24408,note_on,,,,,0,0,1,,,,,0,,,72,92
24408,note_on,,,,,0,0,3,,,,,2,,,72,108
24408,note_off,,,,,24,0,3,,,,,2,,,74,0
24408,note_off,,,,,24,0,4,,,,,3,,,71,0
24408,note_off,,,,,24,0,2,,,,,1,,,71,0
24408,note_on,,,,,0,0,2,,,,,1,,,69,92
24480,note_on,,,,,0,0,3,,,,,2,,,71,108
24480,note_off,,,,,72,0,4,,,,,3,,,69,0
24480,note_on,,,,,0,0,2,,,,,1,,,68,92
24480,note_off,,,,,72,0,1,,,,,0,,,72,0
24480,note_on,,,,,0,0,1,,,,,0,,,71,92
24480,note_off,,,,,72,0,2,,,,,1,,,69,0
24480,note_off,,,,,72,0,3,,,,,2,,,72,0
24480,note_on,,,,,0,0,4,,,,,3,,,68,108
24512,note_off,,,,,0,0,8,,,,,7,,,69,0
24512,note_off,,,,,0,0,8,,,,,7,,,64,0
24512,note_off,,,,,320,0,8,,,,,7,,,60,0
24512,note_off,,,,,320,0,5,,,,,4,,,64,0
24572,note_off,,,,,188,0,6,,,,,5,,,45,0
24572,note_off,,,,,188,0,9,,,,,8,,,45,0
24572,note_off,,,,,188,0,7,,,,,6,,,33,0
24576,note_off,,,,,96,0,3,,,,,2,,,71,0
24576,note_on,,,,,0,0,3,,,,,2,,,71,108
24576,note_on,,,,,64,0,5,,,,,4,,,64,92
24576,note_on,,,,,0,0,8,,,,,7,,,64,60
24576,note_on,,,,,4,0,6,,,,,5,,,52,92
24576,note_off,,,,,96,0,1,,,,,0,,,71,0
24576,note_on,,,,,4,0,9,,,,,8,,,52,60
24576,note_on,,,,,0,0,1,,,,,0,,,71,92
24576,note_on,,,,,64,0,8,,,,,7,,,59,60
24576,note_off,,,,,96,0,4,,,,,3,,,68,0
24576,note_on,,,,,0,0,8,,,,,7,,,68,60
24576,note_on,,,,,4,0,7,,,,,6,,,40,75
24576,note_on,,,,,0,0,2,,,,,1,,,68,92
24576,note_off,,,,,96,0,2,,,,,1,,,68,0
24576,note_on,,,,,0,0,4,,,,,3,,,68,108
24764,note_off,,,,,188,0,6,,,,,5,,,52,0
24764,note_off,,,,,188,0,9,,,,,8,,,52,0
24764,note_off,,,,,188,0,7,,,,,6,,,40,0
24768,note_on,,,,,4,0,9,,,,,8,,,50,60
24768,note_on,,,,,0,0,4,,,,,3,,,71,108
24768,note_off,,,,,192,0,4,,,,,3,,,68,0
24768,note_on,,,,,4,0,7,,,,,6,,,38,75
24768,note_off,,,,,192,0,2,,,,,1,,,68,0
24768,note_on,,,,,0,0,2,,,,,1,,,71,92
24768,note_on,,,,,4,0,6,,,,,5,,,50,92
24864,note_off,,,,,96,0,4,,,,,3,,,71,0
24864,note_on,,,,,0,0,4,,,,,3,,,68,108
24864,note_off,,,,,96,0,2,,,,,1,,,71,0
24864,note_on,,,,,0,0,2,,,,,1,,,68,92
24896,note_off,,,,,320,0,8,,,,,7,,,59,0
24896,note_off,,,,,0,0,8,,,,,7,,,64,0
24896,note_off,,,,,0,0,8,,,,,7,,,68,0
24896,note_off,,,,,320,0,5,,,,,4,,,64,0
24956,note_off,,,,,188,0,9,,,,,8,,,50,0
24956,note_off,,,,,188,0,7,,,,,6,,,38,0
24956,note_off,,,,,188,0,6,,,,,5,,,50,0
24960,note_on,,,,,0,0,4,,,,,3,,,64,108
24960,note_on,,,,,4,0,9,,,,,8,,,49,60
24960,note_on,,,,,64,0,8,,,,,7,,,57,60
24960,note_off,,,,,384,0,1,,,,,0,,,71,0
24960,note_off,,,,,96,0,2,,,,,1,,,68,0
24960,note_off,,,,,384,0,3,,,,,2,,,71,0
24960,note_on,,,,,0,0,2,,,,,1,,,64,92
24960,note_on,,,,,0,0,8,,,,,7,,,69,60
24960,note_off,,,,,96,0,4,,,,,3,,,68,0
24960,note_on,,,,,0,0,8,,,,,7,,,64,60
24960,note_on,,,,,4,0,7,,,,,6,,,37,75
24960,note_on,,,,,4,0,6,,,,,5,,,49,92
25152,note_on,,,,,192,0,3,,,,,2,,,76,108
25152,note_on,,,,,256,0,5,,,,,4,,,57,92
25152,note_on,,,,,192,0,1,,,,,0,,,76,92
25248,note_off,,,,,96,0,3,,,,,2,,,76,0
25248,note_on,,,,,0,0,1,,,,,0,,,67,92
25248,note_off,,,,,96,0,1,,,,,0,,,76,0
25248,note_on,,,,,0,0,3,,,,,2,,,67,108
25280,note_off,,,,,320,0,8,,,,,7,,,57,0
25280,note_off,,,,,320,0,7,,,,,6,,,37,0
25280,note_off,,,,,0,0,8,,,,,7,,,64,0
25280,note_off,,,,,0,0,8,,,,,7,,,69,0
25280,note_off,,,,,320,0,6,,,,,5,,,49,0
25280,note_off,,,,,320,0,9,,,,,8,,,49,0
25340,note_off,,,,,188,0,5,,,,,4,,,57,0
25344,note_on,,,,,64,0,9,,,,,8,,,50,60
25344,note_off,,,,,96,0,3,,,,,2,,,67,0
25344,note_on,,,,,0,0,3,,,,,2,,,67,108
25344,note_on,,,,,0,0,2,,,,,1,,,62,92
25344,note_off,,,,,384,0,2,,,,,1,,,64,0
25344,note_on,,,,,0,0,1,,,,,0,,,67,92
25344,note_on,,,,,64,0,7,,,,,6,,,38,75
25344,note_off,,,,,96,0,1,,,,,0,,,67,0
25344,note_on,,,,,0,0,8,,,,,7,,,66,60
25344,note_on,,,,,64,0,6,,,,,5,,,50,92
25344,note_on,,,,,64,0,8,,,,,7,,,57,60
25344,note_off,,,,,384,0,4,,,,,3,,,64,0
25344,note_on,,,,,0,0,4,,,,,3,,,62,108
25344,note_on,,,,,4,0,5,,,,,4,,,57,92
25344,note_on,,,,,0,0,8,,,,,7,,,62,60
25440,note_on,,,,,0,0,1,,,,,0,,,66,92
25440,note_off,,,,,96,0,3,,,,,2,,,67,0
25440,note_on,,,,,0,0,3,,,,,2,,,66,108
25440,note_off,,,,,96,0,1,,,,,0,,,67,0
25532,note_off,,,,,188,0,7,,,,,6,,,38,0
25532,note_off,,,,,188,0,9,,,,,8,,,50,0
25532,note_off,,,,,188,0,6,,,,,5,,,50,0
25536,note_off,,,,,192,0,2,,,,,1,,,62,0
25536,note_on,,,,,4,0,9,,,,,8,,,48,60
25536,note_off,,,,,96,0,3,,,,,2,,,66,0
25536,note_on,,,,,0,0,2,,,,,1,,,69,92
25536,note_off,,,,,96,0,1,,,,,0,,,66,0
25536,note_off,,,,,192,0,4,,,,,3,,,62,0
25536,note_on,,,,,0,0,4,,,,,3,,,69,108
25536,note_on,,,,,4,0,7,,,,,6,,,36,75
25536,note_on,,,,,4,0,6,,,,,5,,,48,92
25632,note_on,,,,,0,0,4,,,,,3,,,66,108
25632,note_off,,,,,96,0,4,,,,,3,,,69,0
25632,note_on,,,,,0,0,2,,,,,1,,,66,92
25632,note_off,,,,,96,0,2,,,,,1,,,69,0
25664,note_off,,,,,320,0,8,,,,,7,,,57,0
25664,note_off,,,,,320,0,5,,,,,4,,,57,0
25664,note_off,,,,,0,0,8,,,,,7,,,66,0
25664,note_off,,,,,0,0,8,,,,,7,,,62,0
25724,note_off,,,,,188,0,6,,,,,5,,,48,0
25724,note_off,,,,,188,0,9,,,,,8,,,48,0
25724,note_off,,,,,188,0,7,,,,,6,,,36,0
25728,note_on,,,,,0,0,8,,,,,7,,,67,60
25728,note_on,,,,,0,0,8,,,,,7,,,62,60
25728,note_on,,,,,0,0,2,,,,,1,,,62,92
25728,note_on,,,,,4,0,9,,,,,8,,,47,60
25728,note_on,,,,,4,0,6,,,,,5,,,47,92
25728,note_on,,,,,4,0,7,,,,,6,,,35,75
25728,note_on,,,,,64,0,8,,,,,7,,,56,60
25728,note_on,,,,,0,0,4,,,,,3,,,62,108
25728,note_off,,,,,96,0,4,,,,,3,,,66,0
25728,note_off,,,,,96,0,2,,,,,1,,,66,0
25920,note_on,,,,,256,0,5,,,,,4,,,55,92
25920,note_on,,,,,384,0,3,,,,,2,,,74,108
25920,note_on,,,,,384,0,1,,,,,0,,,74,92
26016,note_off,,,,,96,0,1,,,,,0,,,74,0
26016,note_on,,,,,0,0,1,,,,,0,,,65,92
26016,note_off,,,,,96,0,3,,,,,2,,,74,0
26016,note_on,,,,,0,0,3,,,,,2,,,65,108
26048,note_off,,,,,320,0,7,,,,,6,,,35,0
26048,note_off,,,,,320,0,8,,,,,7,,,56,0
26048,note_off,,,,,320,0,6,,,,,5,,,47,0
26048,note_off,,,,,0,0,8,,,,,7,,,62,0
26048,note_off,,,,,0,0,8,,,,,7,,,67,0
26048,note_off,,,,,320,0,9,,,,,8,,,47,0
26108,note_off,,,,,188,0,5,,,,,4,,,55,0
26112,note_on,,,,,64,0,9,,,,,8,,,48,60
26112,note_on,,,,,0,0,8,,,,,7,,,64,60
26112,note_on,,,,,64,0,8,,,,,7,,,55,60
26112,note_on,,,,,0,0,2,,,,,1,,,60,92
26112,note_off,,,,,96,0,3,,,,,2,,,65,0
26112,note_on,,,,,0,0,8,,,,,7,,,60,60
26112,note_on,,,,,0,0,3,,,,,2,,,65,108
26112,note_off,,,,,384,0,2,,,,,1,,,62,0
26112,note_off,,,,,384,0,4,,,,,3,,,62,0
26112,note_on,,,,,64,0,7,,,,,6,,,36,75
26112,note_on,,,,,4,0,5,,,,,4,,,55,92
26112,note_off,,,,,96,0,1,,,,,0,,,65,0
26112,note_on,,,,,0,0,4,,,,,3,,,60,108
26112,note_on,,,,,64,0,6,,,,,5,,,48,92
26112,note_on,,,,,0,0,1,,,,,0,,,65,92
26208,note_on,,,,,0,0,1,,,,,0,,,64,92
26208,note_off,,,,,96,0,1,,,,,0,,,65,0
26208,note_on,,,,,0,0,3,,,,,2,,,64,108
26208,note_off,,,,,96,0,3,,,,,2,,,65,0
26300,note_off,,,,,188,0,9,,,,,8,,,48,0
26300,note_off,,,,,188,0,6,,,,,5,,,48,0
26300,note_off,,,,,188,0,7,,,,,6,,,36,0
26304,note_on,,,,,0,0,2,,,,,1,,,67,92
26304,note_off,,,,,96,0,1,,,,,0,,,64,0
26304,note_off,,,,,192,0,2,,,,,1,,,60,0
26304,note_on,,,,,4,0,6,,,,,5,,,47,92
26304,note_off,,,,,96,0,3,,,,,2,,,64,0
26304,note_on,,,,,0,0,4,,,,,3,,,67,108
26304,note_off,,,,,192,0,4,,,,,3,,,60,0
26304,note_on,,,,,4,0,7,,,,,6,,,35,75
26304,note_on,,,,,4,0,9,,,,,8,,,47,60
26400,note_on,,,,,0,0,2,,,,,1,,,64,92
26400,note_off,,,,,96,0,2,,,,,1,,,67,0
26400,note_off,,,,,96,0,4,,,,,3,,,67,0
26400,note_on,,,,,0,0,4,,,,,3,,,64,108
26432,note_off,,,,,320,0,8,,,,,7,,,55,0
26432,note_off,,,,,0,0,8,,,,,7,,,60,0
26432,note_off,,,,,0,0,8,,,,,7,,,64,0
26432,note_off,,,,,320,0,5,,,,,4,,,55,0
26492,note_off,,,,,188,0,7,,,,,6,,,35,0
26492,note_off,,,,,188,0,6,,,,,5,,,47,0
26492,note_off,,,,,188,0,9,,,,,8,,,47,0
26496,note_off,,,,,96,0,2,,,,,1,,,64,0
26496,note_on,,,,,4,0,9,,,,,8,,,48,60
26496,note_on,,,,,4,0,7,,,,,6,,,36,75
26496,note_on,,,,,64,0,8,,,,,7,,,57,60
26496,note_on,,,,,0,0,8,,,,,7,,,64,60
26496,note_on,,,,,64,0,5,,,,,4,,,64,92
26496,note_on,,,,,4,0,6,,,,,5,,,48,92
26496,note_on,,,,,0,0,4,,,,,3,,,60,108
26496,note_off,,,,,96,0,4,,,,,3,,,64,0
26496,note_on,,,,,0,0,2,,,,,1,,,60,92
26684,note_off,,,,,188,0,5,,,,,4,,,64,0
26684,note_off,,,,,0,0,8,,,,,7,,,64,0
26684,note_off,,,,,188,0,8,,,,,7,,,57,0
26684,note_off,,,,,188,0,7,,,,,6,,,36,0
26684,note_off,,,,,188,0,6,,,,,5,,,48,0
26684,note_off,,,,,188,0,9,,,,,8,,,48,0
26688,note_on,,,,,0,0,2,,,,,1,,,64,92
26688,note_on,,,,,4,0,7,,,,,6,,,33,75
26688,note_on,,,,,4,0,9,,,,,8,,,45,60
26688,note_on,,,,,0,0,8,,,,,7,,,72,60
26688,note_on,,,,,0,0,8,,,,,7,,,69,60
26688,note_on,,,,,4,0,8,,,,,7,,,64,60
26688,note_on,,,,,4,0,5,,,,,4,,,60,92
26688,note_on,,,,,384,0,1,,,,,0,,,81,92
26688,note_on,,,,,4,0,6,,,,,5,,,45,92
26688,note_off,,,,,192,0,2,,,,,1,,,60,0
26688,note_off,,,,,192,0,4,,,,,3,,,60,0
26688,note_on,,,,,0,0,4,,,,,3,,,64,108
26688,note_on,,,,,384,0,3,,,,,2,,,81,108
26784,note_off,,,,,96,0,3,,,,,2,,,81,0
26784,note_on,,,,,0,0,3,,,,,2,,,72,108
26784,note_on,,,,,0,0,1,,,,,0,,,72,92
26784,note_off,,,,,96,0,1,,,,,0,,,81,0
26876,note_off,,,,,188,0,7,,,,,6,,,33,0
26876,note_off,,,,,0,0,8,,,,,7,,,72,0
26876,note_off,,,,,188,0,8,,,,,7,,,64,0
26876,note_off,,,,,0,0,8,,,,,7,,,69,0
26876,note_off,,,,,188,0,9,,,,,8,,,45,0
26876,note_off,,,,,188,0,5,,,,,4,,,60,0
26876,note_off,,,,,188,0,6,,,,,5,,,45,0
26880,note_on,,,,,0,0,3,,,,,2,,,72,108
26880,note_on,,,,,4,0,9,,,,,8,,,50,60
26880,note_off,,,,,96,0,1,,,,,0,,,72,0
26880,note_off,,,,,96,0,3,,,,,2,,,72,0
26880,note_on,,,,,0,0,4,,,,,3,,,65,108
26880,note_on,,,,,0,0,1,,,,,0,,,72,92
26880,note_on,,,,,4,0,7,,,,,6,,,38,75
26880,note_on,,,,,0,0,8,,,,,7,,,70,60
26880,note_on,,,,,0,0,8,,,,,7,,,69,60
26880,note_on,,,,,4,0,8,,,,,7,,,65,60
26880,note_off,,,,,192,0,2,,,,,1,,,64,0
26880,note_on,,,,,0,0,2,,,,,1,,,65,92
26880,note_off,,,,,192,0,4,,,,,3,,,64,0
26880,note_on,,,,,4,0,6,,,,,5,,,50,92
26880,note_on,,,,,4,0,5,,,,,4,,,62,92
26976,note_off,,,,,96,0,1,,,,,0,,,72,0
26976,note_on,,,,,0,0,3,,,,,2,,,70,108
26976,note_off,,,,,96,0,3,,,,,2,,,72,0
26976,note_on,,,,,0,0,1,,,,,0,,,70,92
27068,note_off,,,,,188,0,5,,,,,4,,,62,0
27068,note_off,,,,,0,0,8,,,,,7,,,69,0
27068,note_off,,,,,0,0,8,,,,,7,,,70,0
27068,note_off,,,,,188,0,6,,,,,5,,,50,0
27068,note_off,,,,,188,0,7,,,,,6,,,38,0
27068,note_off,,,,,188,0,9,,,,,8,,,50,0
27068,note_off,,,,,188,0,8,,,,,7,,,65,0
27072,note_on,,,,,0,0,8,,,,,7,,,70,60
27072,note_on,,,,,0,0,4,,,,,3,,,65,108
27072,note_on,,,,,0,0,8,,,,,7,,,69,60
27072,note_on,,,,,4,0,8,,,,,7,,,65,60
27072,note_off,,,,,192,0,4,,,,,3,,,65,0
27072,note_off,,,,,96,0,3,,,,,2,,,70,0
27072,note_on,,,,,4,0,7,,,,,6,,,38,75
27072,note_on,,,,,0,0,3,,,,,2,,,81,108
27072,note_on,,,,,4,0,5,,,,,4,,,62,92
27072,note_off,,,,,192,0,2,,,,,1,,,65,0
27072,note_on,,,,,0,0,1,,,,,0,,,81,92
27072,note_on,,,,,0,0,2,,,,,1,,,65,92
27072,note_on,,,,,4,0,9,,,,,8,,,50,60
27072,note_on,,,,,4,0,6,,,,,5,,,50,92
27072,note_off,,,,,96,0,1,,,,,0,,,70,0
27168,note_off,,,,,96,0,1,,,,,0,,,81,0
27168,note_on,,,,,0,0,1,,,,,0,,,79,92
27168,note_off,,,,,96,0,3,,,,,2,,,81,0
27168,note_on,,,,,0,0,3,,,,,2,,,79,108
27260,note_off,,,,,188,0,6,,,,,5,,,50,0
27260,note_off,,,,,188,0,9,,,,,8,,,50,0
27260,note_off,,,,,188,0,8,,,,,7,,,65,0
27260,note_off,,,,,188,0,7,,,,,6,,,38,0
27260,note_off,,,,,0,0,8,,,,,7,,,69,0
27260,note_off,,,,,0,0,8,,,,,7,,,70,0
27260,note_off,,,,,188,0,5,,,,,4,,,62,0
27264,note_on,,,,,0,0,2,,,,,1,,,67,92
27264,note_off,,,,,192,0,4,,,,,3,,,65,0
27264,note_on,,,,,4,0,6,,,,,5,,,52,92
27264,note_on,,,,,4,0,5,,,,,4,,,60,92
27264,note_on,,,,,0,0,1,,,,,0,,,72,92
27264,note_on,,,,,4,0,9,,,,,8,,,52,60
27264,note_on,,,,,0,0,4,,,,,3,,,67,108
27264,note_on,,,,,0,0,3,,,,,2,,,72,108
27264,note_off,,,,,96,0,1,,,,,0,,,79,0
27264,note_off,,,,,96,0,3,,,,,2,,,79,0
27264,note_on,,,,,4,0,8,,,,,7,,,60,60
27264,note_on,,,,,4,0,7,,,,,6,,,40,75
27264,note_off,,,,,192,0,2,,,,,1,,,65,0
27264,note_on,,,,,0,0,8,,,,,7,,,70,60
27264,note_on,,,,,0,0,8,,,,,7,,,67,60
27360,note_off,,,,,96,0,1,,,,,0,,,72,0
27360,note_on,,,,,0,0,1,,,,,0,,,70,92
27360,note_off,,,,,96,0,3,,,,,2,,,72,0
27360,note_on,,,,,0,0,3,,,,,2,,,70,108
27452,note_off,,,,,188,0,8,,,,,7,,,60,0
27452,note_off,,,,,188,0,7,,,,,6,,,40,0
27452,note_off,,,,,188,0,6,,,,,5,,,52,0
27452,note_off,,,,,188,0,5,,,,,4,,,60,0
27452,note_off,,,,,188,0,9,,,,,8,,,52,0
27452,note_off,,,,,0,0,8,,,,,7,,,70,0
27452,note_off,,,,,0,0,8,,,,,7,,,67,0
27456,note_on,,,,,4,0,5,,,,,4,,,60,92
27456,note_on,,,,,0,0,3,,,,,2,,,81,108
27456,note_off,,,,,96,0,3,,,,,2,,,70,0
27456,note_off,,,,,192,0,2,,,,,1,,,67,0
27456,note_on,,,,,0,0,8,,,,,7,,,70,60
27456,note_on,,,,,0,0,2,,,,,1,,,67,92
27456,note_on,,,,,4,0,6,,,,,5,,,52,92
27456,note_off,,,,,96,0,1,,,,,0,,,70,0
27456,note_on,,,,,0,0,1,,,,,0,,,81,92
27456,note_off,,,,,192,0,4,,,,,3,,,67,0
27456,note_on,,,,,4,0,9,,,,,8,,,52,60
27456,note_on,,,,,4,0,7,,,,,6,,,40,75
27456,note_on,,,,,4,0,8,,,,,7,,,60,60
27456,note_on,,,,,0,0,8,,,,,7,,,67,60
27456,note_on,,,,,0,0,4,,,,,3,,,67,108
27552,note_on,,,,,0,0,3,,,,,2,,,79,108
27552,note_off,,,,,96,0,1,,,,,0,,,81,0
27552,note_on,,,,,0,0,1,,,,,0,,,79,92
27552,note_off,,,,,96,0,3,,,,,2,,,81,0
27644,note_off,,,,,0,0,8,,,,,7,,,70,0
27644,note_off,,,,,0,0,8,,,,,7,,,67,0
27644,note_off,,,,,188,0,9,,,,,8,,,52,0
27644,note_off,,,,,188,0,5,,,,,4,,,60,0
27644,note_off,,,,,188,0,6,,,,,5,,,52,0
27644,note_off,,,,,188,0,7,,,,,6,,,40,0
27644,note_off,,,,,188,0,8,,,,,7,,,60,0
27648,note_off,,,,,96,0,3,,,,,2,,,79,0
27648,note_on,,,,,0,0,3,,,,,2,,,70,108
27648,note_on,,,,,4,0,9,,,,,8,,,53,60
27648,note_on,,,,,4,0,7,,,,,6,,,41,75
27648,note_on,,,,,4,0,6,,,,,5,,,53,92
27648,note_off,,,,,192,0,4,,,,,3,,,67,0
27648,note_on,,,,,0,0,4,,,,,3,,,65,108
27648,note_on,,,,,0,0,8,,,,,7,,,70,60
27648,note_on,,,,,0,0,8,,,,,7,,,65,60
27648,note_on,,,,,4,0,5,,,,,4,,,60,92
27648,note_off,,,,,96,0,1,,,,,0,,,79,0
27648,note_on,,,,,4,0,8,,,,,7,,,60,60
27648,note_on,,,,,0,0,1,,,,,0,,,70,92
27648,note_off,,,,,192,0,2,,,,,1,,,67,0
27648,note_on,,,,,0,0,2,,,,,1,,,65,92
27744,note_on,,,,,0,0,1,,,,,0,,,69,92
27744,note_off,,,,,96,0,3,,,,,2,,,70,0
27744,note_off,,,,,96,0,1,,,,,0,,,70,0
27744,note_on,,,,,0,0,3,,,,,2,,,69,108
27836,note_off,,,,,188,0,9,,,,,8,,,53,0
27836,note_off,,,,,188,0,5,,,,,4,,,60,0
27836,note_off,,,,,188,0,7,,,,,6,,,41,0
27836,note_off,,,,,188,0,8,,,,,7,,,60,0
27836,note_off,,,,,0,0,8,,,,,7,,,65,0
27836,note_off,,,,,0,0,8,,,,,7,,,70,0
27836,note_off,,,,,188,0,6,,,,,5,,,53,0
27840,note_off,,,,,192,0,2,,,,,1,,,65,0
27840,note_on,,,,,0,0,2,,,,,1,,,64,92
27840,note_off,,,,,96,0,3,,,,,2,,,69,0
27840,note_on,,,,,0,0,4,,,,,3,,,64,108
27840,note_on,,,,,0,0,8,,,,,7,,,64,60
27840,note_on,,,,,4,0,8,,,,,7,,,60,60
27840,note_on,,,,,0,0,3,,,,,2,,,79,108
27840,note_on,,,,,4,0,5,,,,,4,,,60,92
27840,note_on,,,,,4,0,6,,,,,5,,,53,92
27840,note_off,,,,,96,0,1,,,,,0,,,69,0
27840,note_on,,,,,0,0,8,,,,,7,,,69,60
27840,note_on,,,,,0,0,1,,,,,0,,,79,92
27840,note_off,,,,,192,0,4,,,,,3,,,65,0
27840,note_on,,,,,4,0,7,,,,,6,,,41,75
27840,note_on,,,,,4,0,9,,,,,8,,,53,60
27936,note_off,,,,,96,0,1,,,,,0,,,79,0
27936,note_on,,,,,0,0,1,,,,,0,,,77,92
27936,note_on,,,,,0,0,3,,,,,2,,,77,108
27936,note_off,,,,,96,0,3,,,,,2,,,79,0
28028,note_off,,,,,0,0,8,,,,,7,,,69,0
28028,note_off,,,,,188,0,8,,,,,7,,,60,0
28028,note_off,,,,,188,0,7,,,,,6,,,41,0
28028,note_off,,,,,188,0,5,,,,,4,,,60,0
28028,note_off,,,,,188,0,6,,,,,5,,,53,0
28028,note_off,,,,,188,0,9,,,,,8,,,53,0
28028,note_off,,,,,0,0,8,,,,,7,,,64,0
28032,note_on,,,,,4,0,5,,,,,4,,,57,92
28032,note_on,,,,,4,0,6,,,,,5,,,54,92
28032,note_on,,,,,4,0,9,,,,,8,,,54,60
28032,note_off,,,,,96,0,1,,,,,0,,,77,0
28032,note_on,,,,,0,0,1,,,,,0,,,71,92
28032,note_on,,,,,0,0,3,,,,,2,,,71,108
28032,note_on,,,,,0,0,2,,,,,1,,,63,92
28032,note_off,,,,,192,0,2,,,,,1,,,64,0
28032,note_off,,,,,96,0,3,,,,,2,,,77,0
28032,note_on,,,,,4,0,7,,,,,6,,,42,75
28032,note_on,,,,,4,0,8,,,,,7,,,57,60
28032,note_on,,,,,0,0,4,,,,,3,,,63,108
28032,note_off,,,,,192,0,4,,,,,3,,,64,0
28032,note_on,,,,,0,0,8,,,,,7,,,63,60
28032,note_on,,,,,0,0,8,,,,,7,,,69,60
28128,note_on,,,,,0,0,3,,,,,2,,,69,108
28128,note_on,,,,,0,0,1,,,,,0,,,69,92
28128,note_off,,,,,96,0,1,,,,,0,,,71,0
28128,note_off,,,,,96,0,3,,,,,2,,,71,0
28220,note_off,,,,,0,0,8,,,,,7,,,69,0
28220,note_off,,,,,188,0,8,,,,,7,,,57,0
28220,note_off,,,,,188,0,7,,,,,6,,,42,0
28220,note_off,,,,,188,0,5,,,,,4,,,57,0
28220,note_off,,,,,188,0,6,,,,,5,,,54,0
28220,note_off,,,,,188,0,9,,,,,8,,,54,0
28220,note_off,,,,,0,0,8,,,,,7,,,63,0
28224,note_on,,,,,4,0,5,,,,,4,,,66,92
28224,note_on,,,,,4,0,6,,,,,5,,,54,92
28224,note_off,,,,,96,0,1,,,,,0,,,69,0
28224,note_on,,,,,0,0,2,,,,,1,,,69,92
28224,note_on,,,,,4,0,9,,,,,8,,,54,60
28224,note_off,,,,,192,0,2,,,,,1,,,63,0
28224,note_on,,,,,0,0,3,,,,,2,,,76,108
28224,note_on,,,,,4,0,7,,,,,6,,,42,75
28224,note_on,,,,,0,0,1,,,,,0,,,76,92
28224,note_on,,,,,0,0,4,,,,,3,,,69,108
28224,note_on,,,,,4,0,8,,,,,7,,,57,60
28224,note_on,,,,,0,0,8,,,,,7,,,63,60
28224,note_off,,,,,96,0,3,,,,,2,,,69,0
28224,note_off,,,,,192,0,4,,,,,3,,,63,0
28320,note_off,,,,,96,0,3,,,,,2,,,76,0
28320,note_off,,,,,96,0,1,,,,,0,,,76,0
28320,note_on,,,,,0,0,1,,,,,0,,,75,92
28320,note_on,,,,,0,0,3,,,,,2,,,75,108
28412,note_off,,,,,188,0,9,,,,,8,,,54,0
28412,note_off,,,,,188,0,7,,,,,6,,,42,0
28412,note_off,,,,,188,0,6,,,,,5,,,54,0
28412,note_off,,,,,188,0,5,,,,,4,,,66,0
28412,note_off,,,,,188,0,8,,,,,7,,,57,0
28412,note_off,,,,,0,0,8,,,,,7,,,63,0
28416,note_on,,,,,0,0,3,,,,,2,,,76,108
28416,note_off,,,,,192,0,4,,,,,3,,,69,0
28416,note_on,,,,,4,0,6,,,,,5,,,56,92
28416,note_on,,,,,4,0,7,,,,,6,,,44,75
28416,note_on,,,,,4,0,9,,,,,8,,,56,60
28416,note_on,,,,,4,0,5,,,,,4,,,59,92
28416,note_on,,,,,4,0,8,,,,,7,,,59,60
28416,note_on,,,,,0,0,8,,,,,7,,,64,60
28416,note_off,,,,,96,0,1,,,,,0,,,75,0
28416,note_off,,,,,96,0,3,,,,,2,,,75,0
28416,note_on,,,,,0,0,2,,,,,1,,,64,92
28416,note_off,,,,,192,0,2,,,,,1,,,69,0
28416,note_on,,,,,0,0,4,,,,,3,,,64,108
28416,note_on,,,,,0,0,1,,,,,0,,,76,92
28512,note_off,,,,,96,0,3,,,,,2,,,76,0
28512,note_on,,,,,0,0,1,,,,,0,,,71,92
28512,note_off,,,,,96,0,1,,,,,0,,,76,0
28512,note_on,,,,,0,0,3,,,,,2,,,71,108
28604,note_off,,,,,188,0,6,,,,,5,,,56,0
28604,note_off,,,,,188,0,9,,,,,8,,,56,0
28604,note_off,,,,,188,0,8,,,,,7,,,59,0
28604,note_off,,,,,188,0,7,,,,,6,,,44,0
28604,note_off,,,,,188,0,5,,,,,4,,,59,0
28608,note_on,,,,,0,0,1,,,,,0,,,72,92
28608,note_on,,,,,0,0,4,,,,,3,,,64,108
28608,note_off,,,,,96,0,3,,,,,2,,,71,0
28608,note_on,,,,,4,0,8,,,,,7,,,60,60
28608,note_on,,,,,4,0,5,,,,,4,,,57,92
28608,note_on,,,,,4,0,9,,,,,8,,,57,60
28608,note_off,,,,,96,0,1,,,,,0,,,71,0
28608,note_on,,,,,0,0,3,,,,,2,,,72,108
28608,note_off,,,,,192,0,4,,,,,3,,,64,0
28608,note_on,,,,,4,0,6,,,,,5,,,57,92
28608,note_on,,,,,4,0,7,,,,,6,,,45,75
28608,note_on,,,,,0,0,2,,,,,1,,,64,92
28608,note_off,,,,,192,0,2,,,,,1,,,64,0
28704,note_on,,,,,0,0,1,,,,,0,,,74,92
28704,note_on,,,,,0,0,3,,,,,2,,,74,108
28704,note_off,,,,,96,0,1,,,,,0,,,72,0
28704,note_off,,,,,96,0,3,,,,,2,,,72,0
28796,note_off,,,,,188,0,8,,,,,7,,,64,0
28796,note_off,,,,,0,0,8,,,,,7,,,60,0
28796,note_off,,,,,188,0,7,,,,,6,,,45,0
28796,note_off,,,,,188,0,6,,,,,5,,,57,0
28796,note_off,,,,,188,0,9,,,,,8,,,57,0
28796,note_off,,,,,188,0,5,,,,,4,,,57,0
28800,note_on,,,,,4,0,6,,,,,5,,,52,92
28800,note_off,,,,,96,0,1,,,,,0,,,74,0
28800,note_on,,,,,0,0,1,,,,,0,,,69,92
28800,note_off,,,,,192,0,4,,,,,3,,,64,0
28800,note_on,,,,,0,0,8,,,,,7,,,64,60
28800,note_on,,,,,4,0,9,,,,,8,,,52,60
28800,note_on,,,,,4,0,8,,,,,7,,,56,60
28800,note_on,,,,,0,0,8,,,,,7,,,59,60
28800,note_off,,,,,96,0,3,,,,,2,,,74,0
28800,note_on,,,,,0,0,3,,,,,2,,,69,108
28800,note_on,,,,,4,0,7,,,,,6,,,40,75
28800,note_on,,,,,0,0,2,,,,,1,,,64,92
28800,note_off,,,,,192,0,2,,,,,1,,,64,0
28800,note_on,,,,,0,0,4,,,,,3,,,64,108
28800,note_on,,,,,4,0,5,,,,,4,,,59,92
28824,note_on,,,,,0,0,3,,,,,2,,,68,108
28824,note_off,,,,,24,0,3,,,,,2,,,69,0
28824,note_off,,,,,24,0,1,,,,,0,,,69,0
28824,note_on,,,,,0,0,1,,,,,0,,,68,92
28848,note_off,,,,,24,0,3,,,,,2,,,68,0
28848,note_off,,,,,24,0,1,,,,,0,,,68,0
28848,note_on,,,,,0,0,1,,,,,0,,,69,92
28848,note_on,,,,,0,0,3,,,,,2,,,69,108
28872,note_off,,,,,24,0,3,,,,,2,,,69,0
28872,note_on,,,,,0,0,3,,,,,2,,,68,108
28872,note_on,,,,,0,0,1,,,,,0,,,68,92
28872,note_off,,,,,24,0,1,,,,,0,,,69,0
28896,note_on,,,,,0,0,1,,,,,0,,,69,92
28896,note_off,,,,,24,0,1,,,,,0,,,68,0
28896,note_off,,,,,24,0,3,,,,,2,,,68,0
28896,note_on,,,,,0,0,3,,,,,2,,,69,108
28920,note_off,,,,,24,0,1,,,,,0,,,69,0
28920,note_on,,,,,0,0,1,,,,,0,,,68,92
28920,note_off,,,,,24,0,3,,,,,2,,,69,0
28920,note_on,,,,,0,0,3,,,,,2,,,68,108
28944,note_off,,,,,24,0,3,,,,,2,,,68,0
28944,note_on,,,,,0,0,3,,,,,2,,,69,108
28944,note_on,,,,,0,0,1,,,,,0,,,69,92
28944,note_off,,,,,24,0,1,,,,,0,,,68,0
28968,note_on,,,,,0,0,3,,,,,2,,,68,108
28968,note_on,,,,,0,0,1,,,,,0,,,68,92
28968,note_off,,,,,24,0,1,,,,,0,,,69,0
28968,note_off,,,,,24,0,3,,,,,2,,,69,0
28988,note_off,,,,,188,0,5,,,,,4,,,59,0
28988,note_off,,,,,188,0,6,,,,,5,,,52,0
28988,note_off,,,,,188,0,7,,,,,6,,,40,0
28988,note_off,,,,,188,0,9,,,,,8,,,52,0
28992,note_off,,,,,192,0,4,,,,,3,,,64,0
28992,note_on,,,,,0,0,3,,,,,2,,,69,108
28992,note_on,,,,,0,0,1,,,,,0,,,69,92
28992,note_off,,,,,24,0,1,,,,,0,,,68,0
28992,note_off,,,,,24,0,3,,,,,2,,,68,0
28992,note_on,,,,,4,0,6,,,,,5,,,40,92
28992,note_on,,,,,4,0,7,,,,,6,,,28,75
28992,note_on,,,,,0,0,4,,,,,3,,,59,108
28992,note_off,,,,,192,0,2,,,,,1,,,64,0
28992,note_on,,,,,4,0,9,,,,,8,,,40,60
28992,note_on,,,,,4,0,5,,,,,4,,,64,92
28992,note_on,,,,,0,0,2,,,,,1,,,59,92
29016,note_on,,,,,0,0,3,,,,,2,,,68,108
29016,note_off,,,,,24,0,3,,,,,2,,,69,0
29016,note_off,,,,,24,0,1,,,,,0,,,69,0
29016,note_on,,,,,0,0,1,,,,,0,,,68,92
29088,note_on,,,,,0,0,3,,,,,2,,,69,108
29088,note_off,,,,,72,0,3,,,,,2,,,68,0
29088,note_off,,,,,72,0,1,,,,,0,,,68,0
29088,note_on,,,,,0,0,1,,,,,0,,,69,92
29120,note_off,,,,,0,0,8,,,,,7,,,64,0
29120,note_off,,,,,0,0,8,,,,,7,,,59,0
29120,note_off,,,,,320,0,8,,,,,7,,,56,0
29180,note_off,,,,,188,0,9,,,,,8,,,40,0
29180,note_off,,,,,188,0,6,,,,,5,,,40,0
29180,note_off,,,,,188,0,5,,,,,4,,,64,0
29180,note_off,,,,,188,0,7,,,,,6,,,28,0
29184,note_on,,,,,0,0,3,,,,,2,,,69,108
29184,note_on,,,,,4,0,9,,,,,8,,,45,60
29184,note_on,,,,,0,0,2,,,,,1,,,60,92
29184,note_off,,,,,192,0,2,,,,,1,,,59,0
29184,note_on,,,,,4,0,5,,,,,4,,,64,92
29184,note_off,,,,,96,0,1,,,,,0,,,69,0
29184,note_on,,,,,0,0,1,,,,,0,,,69,92
29184,note_on,,,,,0,0,8,,,,,7,,,60,60
29184,note_off,,,,,192,0,4,,,,,3,,,59,0
29184,note_on,,,,,0,0,4,,,,,3,,,60,108
29184,note_on,,,,,0,0,8,,,,,7,,,57,60
29184,note_off,,,,,96,0,3,,,,,2,,,69,0
29184,note_on,,,,,4,0,6,,,,,5,,,45,92
29184,note_on,,,,,4,0,7,,,,,6,,,33,75
29184,note_on,,,,,64,0,8,,,,,7,,,53,60
29504,note_off,,,,,320,0,7,,,,,6,,,33,0
29504,note_off,,,,,320,0,9,,,,,8,,,45,0
29504,note_off,,,,,320,0,8,,,,,7,,,53,0
29504,note_off,,,,,0,0,8,,,,,7,,,57,0
29504,note_off,,,,,0,0,8,,,,,7,,,60,0
29504,note_off,,,,,320,0,6,,,,,5,,,45,0
29504,note_off,,,,,320,0,5,,,,,4,,,64,0
29568,note_off,,,,,384,0,3,,,,,2,,,69,0
29568,note_off,,,,,384,0,2,,,,,1,,,60,0
29568,note_off,,,,,384,0,1,,,,,0,,,69,0
29568,note_off,,,,,384,0,4,,,,,3,,,60,0
29760,note_on,,,,,192,0,1,,,,,0,,,64,92
29760,note_on,,,,,192,0,3,,,,,2,,,64,108
29952,note_on,,,,,0,0,3,,,,,2,,,65,108
29952,note_off,,,,,192,0,3,,,,,2,,,64,0
29952,note_on,,,,,0,0,1,,,,,0,,,65,92
29952,note_off,,,,,192,0,1,,,,,0,,,64,0
30048,note_off,,,,,96,0,1,,,,,0,,,65,0
30048,note_on,,,,,0,0,1,,,,,0,,,64,92
30048,note_on,,,,,0,0,3,,,,,2,,,64,108
30048,note_off,,,,,96,0,3,,,,,2,,,65,0
30144,note_off,,,,,96,0,3,,,,,2,,,64,0
30144,note_off,,,,,96,0,1,,,,,0,,,64,0
30144,note_on,,,,,0,0,1,,,,,0,,,69,92
30144,note_on,,,,,0,0,3,,,,,2,,,69,108
30240,note_on,,,,,0,0,1,,,,,0,,,68,92
30240,note_off,,,,,96,0,1,,,,,0,,,69,0
30240,note_on,,,,,0,0,3,,,,,2,,,68,108
30240,note_off,,,,,96,0,3,,,,,2,,,69,0
30336,note_off,,,,,96,0,3,,,,,2,,,68,0
30336,note_off,,,,,96,0,1,,,,,0,,,68,0
30336,note_on,,,,,0,0,1,,,,,0,,,72,92
30336,note_on,,,,,0,0,3,,,,,2,,,72,108
30432,note_on,,,,,0,0,3,,,,,2,,,71,108
30432,note_off,,,,,96,0,1,,,,,0,,,72,0
30432,note_on,,,,,0,0,1,,,,,0,,,71,92
30432,note_off,,,,,96,0,3,,,,,2,,,72,0
30528,note_on,,,,,0,0,1,,,,,0,,,74,92
30528,note_off,,,,,96,0,1,,,,,0,,,71,0
30528,note_on,,,,,0,0,3,,,,,2,,,74,108
30528,note_off,,,,,96,0,3,,,,,2,,,71,0
30624,note_off,,,,,96,0,3,,,,,2,,,74,0
30624,note_on,,,,,0,0,3,,,,,2,,,72,108
30624,note_on,,,,,0,0,1,,,,,0,,,72,92
30624,note_off,,,,,96,0,1,,,,,0,,,74,0
30720,note_off,,,,,96,0,1,,,,,0,,,72,0
30720,note_on,,,,,0,0,1,,,,,0,,,77,92
30720,note_off,,,,,96,0,3,,,,,2,,,72,0
30720,note_on,,,,,0,0,3,,,,,2,,,77,108
30816,note_on,,,,,0,0,3,,,,,2,,,76,108
30816,note_off,,,,,96,0,3,,,,,2,,,77,0
30816,note_off,,,,,96,0,1,,,,,0,,,77,0
30816,note_on,,,,,0,0,1,,,,,0,,,76,92
30912,note_off,,,,,96,0,3,,,,,2,,,76,0
30912,note_off,,,,,96,0,1,,,,,0,,,76,0
30912,note_on,,,,,0,0,1,,,,,0,,,81,92
30912,note_on,,,,,0,0,3,,,,,2,,,81,108
31008,note_on,,,,,0,0,3,,,,,2,,,80,108
31008,note_on,,,,,0,0,1,,,,,0,,,80,92
31008,note_off,,,,,96,0,1,,,,,0,,,81,0
31008,note_off,,,,,96,0,3,,,,,2,,,81,0
31104,note_on,,,,,0,0,1,,,,,0,,,84,92
31104,note_off,,,,,96,0,3,,,,,2,,,80,0
31104,note_on,,,,,0,0,3,,,,,2,,,84,108
31104,note_off,,,,,96,0,1,,,,,0,,,80,0
31296,note_on,,,,,1728,0,2,,,,,1,,,64,92
31296,note_on,,,,,1792,0,5,,,,,4,,,64,92
31296,note_on,,,,,0,0,8,,,,,7,,,69,60
31296,note_on,,,,,1792,0,9,,,,,8,,,57,60
31296,note_on,,,,,1728,0,4,,,,,3,,,64,108
31296,note_on,,,,,1792,0,6,,,,,5,,,57,92
31296,note_on,,,,,1792,0,8,,,,,7,,,60,60
31296,note_on,,,,,0,0,8,,,,,7,,,64,60
31296,note_on,,,,,1792,0,7,,,,,6,,,45,75
31484,note_off,,,,,188,0,8,,,,,7,,,64,0
31484,note_off,,,,,188,0,9,,,,,8,,,57,0
31484,note_off,,,,,188,0,5,,,,,4,,,64,0
31484,note_off,,,,,188,0,7,,,,,6,,,45,0
31484,note_off,,,,,188,0,6,,,,,5,,,57,0
31484,note_off,,,,,0,0,8,,,,,7,,,69,0
31488,note_on,,,,,4,0,5,,,,,4,,,63,92
31488,note_on,,,,,4,0,8,,,,,7,,,66,60
31488,note_on,,,,,0,0,8,,,,,7,,,69,60
31488,note_on,,,,,4,0,9,,,,,8,,,51,60
31488,note_on,,,,,4,0,6,,,,,5,,,51,92
31488,note_off,,,,,192,0,2,,,,,1,,,64,0
31488,note_off,,,,,192,0,4,,,,,3,,,64,0
31488,note_on,,,,,0,0,4,,,,,3,,,66,108
31488,note_on,,,,,0,0,2,,,,,1,,,66,92
31488,note_on,,,,,4,0,7,,,,,6,,,39,75
31676,note_off,,,,,188,0,8,,,,,7,,,60,0
31680,note_on,,,,,0,0,3,,,,,2,,,83,108
31680,note_off,,,,,576,0,3,,,,,2,,,84,0
31680,note_on,,,,,0,0,1,,,,,0,,,83,92
31680,note_off,,,,,576,0,1,,,,,0,,,84,0
31680,note_on,,,,,4,0,8,,,,,7,,,59,60
31808,note_off,,,,,320,0,6,,,,,5,,,51,0
31808,note_off,,,,,128,0,8,,,,,7,,,66,0
31808,note_off,,,,,0,0,8,,,,,7,,,69,0
31808,note_off,,,,,320,0,7,,,,,6,,,39,0
31808,note_off,,,,,320,0,9,,,,,8,,,51,0
31808,note_off,,,,,320,0,5,,,,,4,,,63,0
31868,note_off,,,,,60,0,8,,,,,7,,,59,0
31872,note_off,,,,,384,0,4,,,,,3,,,66,0
31872,note_off,,,,,192,0,3,,,,,2,,,83,0
31872,note_on,,,,,0,0,3,,,,,2,,,83,108
31872,note_off,,,,,192,0,1,,,,,0,,,83,0
31872,note_on,,,,,0,0,1,,,,,0,,,83,92
31872,note_off,,,,,384,0,2,,,,,1,,,66,0
32064,note_on,,,,,256,0,7,,,,,6,,,39,75
32064,note_on,,,,,196,0,8,,,,,7,,,59,60
32064,note_on,,,,,0,0,8,,,,,7,,,66,60
32064,note_on,,,,,256,0,5,,,,,4,,,71,92
32064,note_on,,,,,0,0,8,,,,,7,,,71,60
32064,note_on,,,,,256,0,6,,,,,5,,,51,92
32064,note_on,,,,,192,0,2,,,,,1,,,66,92
32064,note_on,,,,,256,0,9,,,,,8,,,51,60
32064,note_on,,,,,192,0,4,,,,,3,,,66,108
32064,note_on,,,,,0,0,1,,,,,0,,,83,92
32064,note_off,,,,,192,0,1,,,,,0,,,83,0
32064,note_on,,,,,0,0,3,,,,,2,,,83,108
32064,note_off,,,,,192,0,3,,,,,2,,,83,0
32088,note_off,,,,,24,0,3,,,,,2,,,83,0
32088,note_on,,,,,0,0,3,,,,,2,,,81,108
32088,note_off,,,,,24,0,1,,,,,0,,,83,0
32088,note_on,,,,,0,0,1,,,,,0,,,81,92
32112,note_off,,,,,24,0,3,,,,,2,,,81,0
32112,note_on,,,,,0,0,3,,,,,2,,,83,108
32112,note_on,,,,,0,0,1,,,,,0,,,83,92
32112,note_off,,,,,24,0,1,,,,,0,,,81,0
32136,note_off,,,,,24,0,1,,,,,0,,,83,0
32136,note_on,,,,,0,0,3,,,,,2,,,81,108
32136,note_off,,,,,24,0,3,,,,,2,,,83,0
32136,note_on,,,,,0,0,1,,,,,0,,,81,92
32160,note_off,,,,,24,0,1,,,,,0,,,81,0
32160,note_off,,,,,24,0,3,,,,,2,,,81,0
32160,note_on,,,,,0,0,3,,,,,2,,,83,108
32160,note_on,,,,,0,0,1,,,,,0,,,83,92
32184,note_off,,,,,24,0,1,,,,,0,,,83,0
32184,note_on,,,,,0,0,1,,,,,0,,,81,92
32184,note_off,,,,,24,0,3,,,,,2,,,83,0
32184,note_on,,,,,0,0,3,,,,,2,,,81,108
32208,note_off,,,,,24,0,3,,,,,2,,,81,0
32208,note_on,,,,,0,0,1,,,,,0,,,80,92
32208,note_off,,,,,24,0,1,,,,,0,,,81,0
32208,note_on,,,,,0,0,3,,,,,2,,,80,108
32252,note_off,,,,,188,0,9,,,,,8,,,51,0
32252,note_off,,,,,188,0,5,,,,,4,,,71,0
32252,note_off,,,,,188,0,8,,,,,7,,,59,0
32252,note_off,,,,,0,0,8,,,,,7,,,66,0
32252,note_off,,,,,0,0,8,,,,,7,,,71,0
32252,note_off,,,,,188,0,7,,,,,6,,,39,0
32252,note_off,,,,,188,0,6,,,,,5,,,51,0
32256,note_on,,,,,0,0,8,,,,,7,,,64,60
32256,note_off,,,,,48,0,3,,,,,2,,,80,0
32256,note_off,,,,,192,0,4,,,,,3,,,66,0
32256,note_on,,,,,4,0,6,,,,,5,,,52,92
32256,note_on,,,,,0,0,8,,,,,7,,,68,60
32256,note_on,,,,,4,0,8,,,,,7,,,59,60
32256,note_on,,,,,4,0,5,,,,,4,,,64,92
32256,note_on,,,,,4,0,9,,,,,8,,,52,60
32256,note_on,,,,,0,0,3,,,,,2,,,80,108
32256,note_on,,,,,4,0,7,,,,,6,,,40,75
32256,note_on,,,,,0,0,4,,,,,3,,,71,108
32256,note_on,,,,,0,0,1,,,,,0,,,80,92
32256,note_on,,,,,0,0,2,,,,,1,,,71,92
32256,note_off,,,,,48,0,1,,,,,0,,,80,0
32256,note_off,,,,,192,0,2,,,,,1,,,66,0
32576,note_off,,,,,320,0,9,,,,,8,,,52,0
32576,note_off,,,,,0,0,8,,,,,7,,,68,0
32576,note_off,,,,,0,0,8,,,,,7,,,64,0
32576,note_off,,,,,320,0,5,,,,,4,,,64,0
32576,note_off,,,,,320,0,7,,,,,6,,,40,0
32576,note_off,,,,,320,0,6,,,,,5,,,52,0
32576,note_off,,,,,320,0,8,,,,,7,,,59,0
32640,note_off,,,,,384,0,4,,,,,3,,,71,0
32640,note_off,,,,,384,0,3,,,,,2,,,80,0
32640,note_off,,,,,384,0,1,,,,,0,,,80,0
32640,note_off,,,,,384,0,2,,,,,1,,,71,0
32832,note_on,,,,,256,0,8,,,,,7,,,60,60
32832,note_on,,,,,256,0,6,,,,,5,,,48,92
32832,note_on,,,,,0,0,8,,,,,7,,,64,60
32832,note_on,,,,,192,0,3,,,,,2,,,76,108
32832,note_on,,,,,192,0,1,,,,,0,,,76,92
32832,note_on,,,,,256,0,7,,,,,6,,,36,75
32832,note_on,,,,,256,0,5,,,,,4,,,57,92
32832,note_on,,,,,192,0,4,,,,,3,,,60,108
32832,note_on,,,,,256,0,9,,,,,8,,,48,60
32832,note_on,,,,,192,0,2,,,,,1,,,60,92
32832,note_on,,,,,0,0,8,,,,,7,,,69,60
32928,note_on,,,,,0,0,3,,,,,2,,,64,108
32928,note_off,,,,,96,0,3,,,,,2,,,76,0
32928,note_off,,,,,96,0,1,,,,,0,,,76,0
32928,note_on,,,,,0,0,1,,,,,0,,,64,92
33020,note_off,,,,,0,0,8,,,,,7,,,64,0
33020,note_off,,,,,188,0,8,,,,,7,,,60,0
33020,note_off,,,,,188,0,5,,,,,4,,,57,0
33020,note_off,,,,,0,0,8,,,,,7,,,69,0
33020,note_off,,,,,188,0,9,,,,,8,,,48,0
33020,note_off,,,,,188,0,7,,,,,6,,,36,0
33020,note_off,,,,,188,0,6,,,,,5,,,48,0
33024,note_on,,,,,4,0,5,,,,,4,,,57,92
33024,note_on,,,,,0,0,4,,,,,3,,,60,108
33024,note_on,,,,,4,0,6,,,,,5,,,50,92
33024,note_on,,,,,0,0,2,,,,,1,,,60,92
33024,note_on,,,,,4,0,7,,,,,6,,,38,75
33024,note_off,,,,,96,0,3,,,,,2,,,64,0
33024,note_off,,,,,192,0,4,,,,,3,,,60,0
33024,note_off,,,,,192,0,2,,,,,1,,,60,0
33024,note_on,,,,,4,0,9,,,,,8,,,50,60
33024,note_off,,,,,96,0,1,,,,,0,,,64,0
33024,note_on,,,,,0,0,8,,,,,7,,,66,60
33024,note_on,,,,,0,0,8,,,,,7,,,64,60
33024,note_on,,,,,4,0,8,,,,,7,,,60,60
33024,note_on,,,,,0,0,3,,,,,2,,,67,108
33024,note_on,,,,,0,0,1,,,,,0,,,67,92
33120,note_off,,,,,96,0,1,,,,,0,,,67,0
33120,note_on,,,,,0,0,1,,,,,0,,,66,92
33120,note_on,,,,,0,0,3,,,,,2,,,66,108
33120,note_off,,,,,96,0,3,,,,,2,,,67,0
33212,note_off,,,,,188,0,6,,,,,5,,,50,0
33212,note_off,,,,,188,0,7,,,,,6,,,38,0
33212,note_off,,,,,0,0,8,,,,,7,,,66,0
33212,note_off,,,,,0,0,8,,,,,7,,,64,0
33212,note_off,,,,,188,0,8,,,,,7,,,60,0
33212,note_off,,,,,188,0,5,,,,,4,,,57,0
33212,note_off,,,,,188,0,9,,,,,8,,,50,0
33216,note_off,,,,,192,0,4,,,,,3,,,60,0
33216,note_on,,,,,0,0,4,,,,,3,,,59,108
33216,note_on,,,,,4,0,9,,,,,8,,,50,60
33216,note_on,,,,,4,0,7,,,,,6,,,38,75
33216,note_on,,,,,0,0,3,,,,,2,,,76,108
33216,note_off,,,,,96,0,3,,,,,2,,,66,0
33216,note_off,,,,,192,0,2,,,,,1,,,60,0
33216,note_off,,,,,96,0,1,,,,,0,,,66,0
33216,note_on,,,,,0,0,1,,,,,0,,,76,92
33216,note_on,,,,,4,0,5,,,,,4,,,66,92
33216,note_on,,,,,4,0,8,,,,,7,,,59,60
33216,note_on,,,,,0,0,8,,,,,7,,,64,60
33216,note_on,,,,,0,0,8,,,,,7,,,66,60
33216,note_on,,,,,0,0,2,,,,,1,,,59,92
33216,note_on,,,,,4,0,6,,,,,5,,,50,92
33312,note_on,,,,,0,0,3,,,,,2,,,74,108
33312,note_off,,,,,96,0,3,,,,,2,,,76,0
33312,note_off,,,,,96,0,1,,,,,0,,,76,0
33312,note_on,,,,,0,0,1,,,,,0,,,74,92
33404,note_off,,,,,188,0,9,,,,,8,,,50,0
33404,note_off,,,,,188,0,8,,,,,7,,,59,0
33404,note_off,,,,,188,0,7,,,,,6,,,38,0
33404,note_off,,,,,188,0,5,,,,,4,,,66,0
33404,note_off,,,,,188,0,6,,,,,5,,,50,0
33404,note_off,,,,,0,0,8,,,,,7,,,64,0
33404,note_off,,,,,0,0,8,,,,,7,,,66,0
33408,note_on,,,,,4,0,8,,,,,7,,,59,60
33408,note_on,,,,,0,0,8,,,,,7,,,62,60
33408,note_on,,,,,0,0,8,,,,,7,,,68,60
33408,note_on,,,,,0,0,1,,,,,0,,,69,92
33408,note_off,,,,,96,0,1,,,,,0,,,74,0
33408,note_on,,,,,4,0,9,,,,,8,,,52,60
33408,note_on,,,,,4,0,5,,,,,4,,,64,92
33408,note_on,,,,,4,0,6,,,,,5,,,52,92
33408,note_off,,,,,192,0,4,,,,,3,,,59,0
33408,note_on,,,,,0,0,4,,,,,3,,,59,108
33408,note_on,,,,,0,0,2,,,,,1,,,59,92
33408,note_on,,,,,4,0,7,,,,,6,,,40,75
33408,note_on,,,,,0,0,3,,,,,2,,,69,108
33408,note_off,,,,,96,0,3,,,,,2,,,74,0
33408,note_off,,,,,192,0,2,,,,,1,,,59,0
33504,note_on,,,,,0,0,1,,,,,0,,,68,92
33504,note_off,,,,,96,0,1,,,,,0,,,69,0
33504,note_on,,,,,0,0,3,,,,,2,,,68,108
33504,note_off,,,,,96,0,3,,,,,2,,,69,0
33596,note_off,,,,,188,0,7,,,,,6,,,40,0
33596,note_off,,,,,0,0,8,,,,,7,,,68,0
33596,note_off,,,,,0,0,8,,,,,7,,,62,0
33596,note_off,,,,,188,0,5,,,,,4,,,64,0
33596,note_off,,,,,188,0,8,,,,,7,,,59,0
33596,note_off,,,,,188,0,9,,,,,8,,,52,0
33596,note_off,,,,,188,0,6,,,,,5,,,52,0
33600,note_on,,,,,0,0,3,,,,,2,,,76,108
33600,note_off,,,,,192,0,4,,,,,3,,,59,0
33600,note_off,,,,,96,0,3,,,,,2,,,68,0
33600,note_on,,,,,4,0,9,,,,,8,,,52,60
33600,note_off,,,,,96,0,1,,,,,0,,,68,0
33600,note_on,,,,,0,0,1,,,,,0,,,76,92
33600,note_on,,,,,0,0,4,,,,,3,,,68,108
33600,note_on,,,,,0,0,8,,,,,7,,,68,60
33600,note_off,,,,,192,0,2,,,,,1,,,59,0
33600,note_on,,,,,0,0,2,,,,,1,,,68,92
33600,note_on,,,,,0,0,8,,,,,7,,,62,60
33600,note_on,,,,,4,0,8,,,,,7,,,59,60
33600,note_on,,,,,4,0,7,,,,,6,,,40,75
33600,note_on,,,,,4,0,5,,,,,4,,,59,92
33600,note_on,,,,,4,0,6,,,,,5,,,52,92
33696,note_on,,,,,0,0,3,,,,,2,,,74,108
33696,note_off,,,,,96,0,1,,,,,0,,,76,0
33696,note_off,,,,,96,0,3,,,,,2,,,76,0
33696,note_on,,,,,0,0,1,,,,,0,,,74,92
33788,note_off,,,,,0,0,8,,,,,7,,,62,0
33788,note_off,,,,,188,0,8,,,,,7,,,59,0
33788,note_off,,,,,0,0,8,,,,,7,,,68,0
33788,note_off,,,,,188,0,7,,,,,6,,,40,0
33788,note_off,,,,,188,0,5,,,,,4,,,59,0
33788,note_off,,,,,188,0,6,,,,,5,,,52,0
33788,note_off,,,,,188,0,9,,,,,8,,,52,0
33792,note_on,,,,,4,0,9,,,,,8,,,53,60
33792,note_on,,,,,4,0,6,,,,,5,,,53,92
33792,note_on,,,,,0,0,2,,,,,1,,,69,92
33792,note_off,,,,,192,0,2,,,,,1,,,68,0
33792,note_on,,,,,0,0,4,,,,,3,,,69,108
33792,note_off,,,,,192,0,4,,,,,3,,,68,0
33792,note_on,,,,,4,0,8,,,,,7,,,57,60
33792,note_on,,,,,0,0,8,,,,,7,,,62,60
33792,note_on,,,,,0,0,8,,,,,7,,,69,60
33792,note_on,,,,,0,0,1,,,,,0,,,71,92
33792,note_off,,,,,96,0,1,,,,,0,,,74,0
33792,note_off,,,,,96,0,3,,,,,2,,,74,0
33792,note_on,,,,,0,0,3,,,,,2,,,71,108
33792,note_on,,,,,4,0,5,,,,,4,,,62,92
33792,note_on,,,,,4,0,7,,,,,6,,,41,75
33888,note_on,,,,,0,0,1,,,,,0,,,69,92
33888,note_off,,,,,96,0,1,,,,,0,,,71,0
33888,note_off,,,,,96,0,3,,,,,2,,,71,0
33888,note_on,,,,,0,0,3,,,,,2,,,69,108
33980,note_off,,,,,188,0,5,,,,,4,,,62,0
33980,note_off,,,,,188,0,7,,,,,6,,,41,0
33980,note_off,,,,,188,0,9,,,,,8,,,53,0
33980,note_off,,,,,0,0,8,,,,,7,,,69,0
33980,note_off,,,,,0,0,8,,,,,7,,,62,0
33980,note_off,,,,,188,0,8,,,,,7,,,57,0
33980,note_off,,,,,188,0,6,,,,,5,,,53,0
33984,note_on,,,,,4,0,7,,,,,6,,,41,75
33984,note_on,,,,,4,0,9,,,,,8,,,53,60
33984,note_on,,,,,0,0,1,,,,,0,,,76,92
33984,note_off,,,,,192,0,2,,,,,1,,,69,0
33984,note_on,,,,,0,0,2,,,,,1,,,69,92
33984,note_off,,,,,96,0,1,,,,,0,,,69,0
33984,note_on,,,,,4,0,6,,,,,5,,,53,92
33984,note_on,,,,,0,0,3,,,,,2,,,76,108
33984,note_off,,,,,96,0,3,,,,,2,,,69,0
33984,note_off,,,,,192,0,4,,,,,3,,,69,0
33984,note_on,,,,,0,0,4,,,,,3,,,69,108
33984,note_on,,,,,4,0,8,,,,,7,,,57,60
33984,note_on,,,,,0,0,8,,,,,7,,,62,60
33984,note_on,,,,,0,0,8,,,,,7,,,69,60
33984,note_on,,,,,4,0,5,,,,,4,,,57,92
34080,note_on,,,,,0,0,3,,,,,2,,,74,108
34080,note_off,,,,,96,0,3,,,,,2,,,76,0
34080,note_off,,,,,96,0,1,,,,,0,,,76,0
34080,note_on,,,,,0,0,1,,,,,0,,,74,92
34172,note_off,,,,,0,0,8,,,,,7,,,69,0
34172,note_off,,,,,188,0,9,,,,,8,,,53,0
34172,note_off,,,,,188,0,7,,,,,6,,,41,0
34172,note_off,,,,,188,0,8,,,,,7,,,57,0
34172,note_off,,,,,188,0,6,,,,,5,,,53,0
34172,note_off,,,,,188,0,5,,,,,4,,,57,0
34172,note_off,,,,,0,0,8,,,,,7,,,62,0
34176,note_on,,,,,0,0,1,,,,,0,,,83,92
34176,note_on,,,,,0,0,8,,,,,7,,,69,60
34176,note_on,,,,,0,0,8,,,,,7,,,63,60
34176,note_on,,,,,4,0,6,,,,,5,,,54,92
34176,note_off,,,,,192,0,2,,,,,1,,,69,0
34176,note_on,,,,,0,0,2,,,,,1,,,63,92
34176,note_on,,,,,4,0,5,,,,,4,,,57,92
34176,note_off,,,,,96,0,1,,,,,0,,,74,0
34176,note_on,,,,,4,0,8,,,,,7,,,57,60
34176,note_on,,,,,4,0,7,,,,,6,,,42,75
34176,note_off,,,,,192,0,4,,,,,3,,,69,0
34176,note_off,,,,,96,0,3,,,,,2,,,74,0
34176,note_on,,,,,4,0,9,,,,,8,,,54,60
34176,note_on,,,,,0,0,3,,,,,2,,,83,108
34176,note_on,,,,,0,0,4,,,,,3,,,63,108
34272,note_off,,,,,96,0,1,,,,,0,,,83,0
34272,note_on,,,,,0,0,1,,,,,0,,,81,92
34272,note_on,,,,,0,0,3,,,,,2,,,81,108
34272,note_off,,,,,96,0,3,,,,,2,,,83,0
34364,note_off,,,,,0,0,8,,,,,7,,,69,0
34364,note_off,,,,,188,0,9,,,,,8,,,54,0
34364,note_off,,,,,188,0,7,,,,,6,,,42,0
34364,note_off,,,,,188,0,5,,,,,4,,,57,0
34364,note_off,,,,,188,0,8,,,,,7,,,57,0
34364,note_off,,,,,188,0,6,,,,,5,,,54,0
34364,note_off,,,,,0,0,8,,,,,7,,,63,0
34368,note_on,,,,,4,0,8,,,,,7,,,57,60
34368,note_on,,,,,4,0,6,,,,,5,,,54,92
34368,note_on,,,,,0,0,2,,,,,1,,,69,92
34368,note_off,,,,,192,0,2,,,,,1,,,63,0
34368,note_off,,,,,96,0,3,,,,,2,,,81,0
34368,note_on,,,,,0,0,1,,,,,0,,,76,92
34368,note_on,,,,,4,0,9,,,,,8,,,54,60
34368,note_on,,,,,4,0,7,,,,,6,,,42,75
34368,note_off,,,,,192,0,4,,,,,3,,,63,0
34368,note_off,,,,,96,0,1,,,,,0,,,81,0
34368,note_on,,,,,0,0,4,,,,,3,,,69,108
34368,note_on,,,,,0,0,8,,,,,7,,,63,60
34368,note_on,,,,,4,0,5,,,,,4,,,66,92
34368,note_on,,,,,0,0,3,,,,,2,,,76,108
34464,note_off,,,,,96,0,1,,,,,0,,,76,0
34464,note_off,,,,,96,0,3,,,,,2,,,76,0
34464,note_on,,,,,0,0,1,,,,,0,,,75,92
34464,note_on,,,,,0,0,3,,,,,2,,,75,108
34556,note_off,,,,,188,0,9,,,,,8,,,54,0
34556,note_off,,,,,188,0,6,,,,,5,,,54,0
34556,note_off,,,,,188,0,7,,,,,6,,,42,0
34556,note_off,,,,,188,0,8,,,,,7,,,57,0
34556,note_off,,,,,188,0,5,,,,,4,,,66,0
34556,note_off,,,,,0,0,8,,,,,7,,,63,0
34560,note_on,,,,,4,0,5,,,,,4,,,59,92
34560,note_on,,,,,0,0,4,,,,,3,,,64,108
34560,note_off,,,,,96,0,1,,,,,0,,,75,0
34560,note_off,,,,,96,0,3,,,,,2,,,75,0
34560,note_on,,,,,0,0,1,,,,,0,,,76,92
34560,note_off,,,,,192,0,4,,,,,3,,,69,0
34560,note_on,,,,,0,0,2,,,,,1,,,64,92
34560,note_off,,,,,192,0,2,,,,,1,,,69,0
34560,note_on,,,,,4,0,9,,,,,8,,,56,60
34560,note_on,,,,,4,0,6,,,,,5,,,56,92
34560,note_on,,,,,4,0,8,,,,,7,,,59,60
34560,note_on,,,,,0,0,8,,,,,7,,,64,60
34560,note_on,,,,,4,0,7,,,,,6,,,44,75
34560,note_on,,,,,0,0,3,,,,,2,,,76,108
34656,note_on,,,,,0,0,1,,,,,0,,,71,92
34656,note_off,,,,,96,0,1,,,,,0,,,76,0
34656,note_off,,,,,96,0,3,,,,,2,,,76,0
34656,note_on,,,,,0,0,3,,,,,2,,,71,108
34748,note_off,,,,,188,0,8,,,,,7,,,59,0
34748,note_off,,,,,188,0,5,,,,,4,,,59,0
34748,note_off,,,,,188,0,6,,,,,5,,,56,0
34748,note_off,,,,,188,0,9,,,,,8,,,56,0
34748,note_off,,,,,188,0,7,,,,,6,,,44,0
34752,note_off,,,,,96,0,3,,,,,2,,,71,0
34752,note_on,,,,,0,0,3,,,,,2,,,72,108
34752,note_on,,,,,4,0,5,,,,,4,,,57,92
34752,note_on,,,,,0,0,4,,,,,3,,,64,108
34752,note_off,,,,,192,0,2,,,,,1,,,64,0
34752,note_on,,,,,0,0,2,,,,,1,,,64,92
34752,note_on,,,,,4,0,7,,,,,6,,,45,75
34752,note_off,,,,,192,0,4,,,,,3,,,64,0
34752,note_on,,,,,0,0,1,,,,,0,,,72,92
34752,note_on,,,,,4,0,6,,,,,5,,,57,92
34752,note_off,,,,,96,0,1,,,,,0,,,71,0
34752,note_on,,,,,4,0,9,,,,,8,,,57,60
34752,note_on,,,,,4,0,8,,,,,7,,,60,60
34848,note_off,,,,,96,0,1,,,,,0,,,72,0
34848,note_on,,,,,0,0,1,,,,,0,,,74,92
34848,note_on,,,,,0,0,3,,,,,2,,,74,108
34848,note_off,,,,,96,0,3,,,,,2,,,72,0
34940,note_off,,,,,188,0,6,,,,,5,,,57,0
34940,note_off,,,,,0,0,8,,,,,7,,,60,0
34940,note_off,,,,,188,0,5,,,,,4,,,57,0
34940,note_off,,,,,188,0,9,,,,,8,,,57,0
34940,note_off,,,,,188,0,8,,,,,7,,,64,0
34940,note_off,,,,,188,0,7,,,,,6,,,45,0
34944,note_off,,,,,192,0,2,,,,,1,,,64,0
34944,note_on,,,,,4,0,7,,,,,6,,,40,75
34944,note_on,,,,,4,0,8,,,,,7,,,56,60
34944,note_on,,,,,0,0,8,,,,,7,,,59,60
34944,note_on,,,,,0,0,8,,,,,7,,,64,60
34944,note_on,,,,,0,0,2,,,,,1,,,64,92
34944,note_off,,,,,96,0,3,,,,,2,,,74,0
34944,note_on,,,,,0,0,3,,,,,2,,,69,108
34944,note_on,,,,,4,0,9,,,,,8,,,52,60
34944,note_on,,,,,0,0,4,,,,,3,,,64,108
34944,note_off,,,,,192,0,4,,,,,3,,,64,0
34944,note_on,,,,,4,0,6,,,,,5,,,52,92
34944,note_off,,,,,96,0,1,,,,,0,,,74,0
34944,note_on,,,,,0,0,1,,,,,0,,,69,92
34944,note_on,,,,,4,0,5,,,,,4,,,59,92
34968,note_off,,,,,24,0,1,,,,,0,,,69,0
34968,note_on,,,,,0,0,1,,,,,0,,,68,92
34968,note_off,,,,,24,0,3,,,,,2,,,69,0
34968,note_on,,,,,0,0,3,,,,,2,,,68,108
34992,note_off,,,,,24,0,1,,,,,0,,,68,0
34992,note_on,,,,,0,0,1,,,,,0,,,69,92
34992,note_on,,,,,0,0,3,,,,,2,,,69,108
34992,note_off,,,,,24,0,3,,,,,2,,,68,0
35016,note_off,,,,,24,0,1,,,,,0,,,69,0
35016,note_on,,,,,0,0,1,,,,,0,,,68,92
35016,note_off,,,,,24,0,3,,,,,2,,,69,0
35016,note_on,,,,,0,0,3,,,,,2,,,68,108
35040,note_off,,,,,24,0,3,,,,,2,,,68,0
35040,note_on,,,,,0,0,1,,,,,0,,,69,92
35040,note_off,,,,,24,0,1,,,,,0,,,68,0
35040,note_on,,,,,0,0,3,,,,,2,,,69,108
35064,note_on,,,,,0,0,1,,,,,0,,,68,92
35064,note_off,,,,,24,0,1,,,,,0,,,69,0
35064,note_on,,,,,0,0,3,,,,,2,,,68,108
35064,note_off,,,,,24,0,3,,,,,2,,,69,0
35088,note_on,,,,,0,0,1,,,,,0,,,69,92
35088,note_off,,,,,24,0,3,,,,,2,,,68,0
35088,note_on,,,,,0,0,3,,,,,2,,,69,108
35088,note_off,,,,,24,0,1,,,,,0,,,68,0
35112,note_off,,,,,24,0,3,,,,,2,,,69,0
35112,note_on,,,,,0,0,3,,,,,2,,,68,108
35112,note_on,,,,,0,0,1,,,,,0,,,68,92
35112,note_off,,,,,24,0,1,,,,,0,,,69,0
35132,note_off,,,,,188,0,6,,,,,5,,,52,0
35132,note_off,,,,,188,0,5,,,,,4,,,59,0
35132,note_off,,,,,188,0,7,,,,,6,,,40,0
35132,note_off,,,,,188,0,9,,,,,8,,,52,0
35136,note_on,,,,,4,0,6,,,,,5,,,40,92
35136,note_on,,,,,0,0,1,,,,,0,,,69,92
35136,note_on,,,,,4,0,7,,,,,6,,,28,75
35136,note_on,,,,,0,0,4,,,,,3,,,59,108
35136,note_off,,,,,192,0,4,,,,,3,,,64,0
35136,note_on,,,,,4,0,9,,,,,8,,,40,60
35136,note_on,,,,,0,0,2,,,,,1,,,59,92
35136,note_on,,,,,4,0,5,,,,,4,,,64,92
35136,note_off,,,,,24,0,1,,,,,0,,,68,0
35136,note_off,,,,,24,0,3,,,,,2,,,68,0
35136,note_off,,,,,192,0,2,,,,,1,,,64,0
35136,note_on,,,,,0,0,3,,,,,2,,,69,108
35160,note_on,,,,,0,0,1,,,,,0,,,68,92
35160,note_off,,,,,24,0,1,,,,,0,,,69,0
35160,note_off,,,,,24,0,3,,,,,2,,,69,0
35160,note_on,,,,,0,0,3,,,,,2,,,68,108
35232,note_off,,,,,72,0,3,,,,,2,,,68,0
35232,note_on,,,,,0,0,3,,,,,2,,,69,108
35232,note_off,,,,,72,0,1,,,,,0,,,68,0
35232,note_on,,,,,0,0,1,,,,,0,,,69,92
35264,note_off,,,,,320,0,8,,,,,7,,,56,0
35264,note_off,,,,,0,0,8,,,,,7,,,59,0
35264,note_off,,,,,0,0,8,,,,,7,,,64,0
35324,note_off,,,,,188,0,5,,,,,4,,,64,0
35324,note_off,,,,,188,0,6,,,,,5,,,40,0
35324,note_off,,,,,188,0,9,,,,,8,,,40,0
35324,note_off,,,,,188,0,7,,,,,6,,,28,0
35328,note_on,,,,,4,0,9,,,,,8,,,45,60
35328,note_off,,,,,192,0,2,,,,,1,,,59,0
35328,note_off,,,,,192,0,4,,,,,3,,,59,0
35328,note_on,,,,,0,0,4,,,,,3,,,60,108
35328,note_on,,,,,4,0,7,,,,,6,,,33,75
35328,note_on,,,,,0,0,2,,,,,1,,,60,92
35328,note_on,,,,,4,0,6,,,,,5,,,45,92
35328,note_on,,,,,4,0,5,,,,,4,,,64,92
35328,note_on,,,,,0,0,3,,,,,2,,,69,108
35328,note_on,,,,,0,0,8,,,,,7,,,64,60
35328,note_on,,,,,64,0,8,,,,,7,,,57,60
35328,note_on,,,,,0,0,8,,,,,7,,,60,60
35328,note_on,,,,,0,0,1,,,,,0,,,69,92
35328,note_off,,,,,96,0,3,,,,,2,,,69,0
35328,note_off,,,,,96,0,1,,,,,0,,,69,0
35648,note_off,,,,,320,0,9,,,,,8,,,45,0
35648,note_off,,,,,320,0,8,,,,,7,,,57,0
35648,note_off,,,,,320,0,5,,,,,4,,,64,0
35648,note_off,,,,,320,0,7,,,,,6,,,33,0
35648,note_off,,,,,0,0,8,,,,,7,,,64,0
35648,note_off,,,,,0,0,8,,,,,7,,,60,0
35648,note_off,,,,,320,0,6,,,,,5,,,45,0
35712,note_off,,,,,384,0,1,,,,,0,,,69,0
35712,note_on,,,,,0,0,1,,,,,0,,,76,92
35712,note_on,,,,,0,0,3,,,,,2,,,76,108
35712,note_on,,,,,64,0,9,,,,,8,,,55,60
35712,note_on,,,,,64,0,5,,,,,4,,,64,92
35712,note_on,,,,,64,0,6,,,,,5,,,55,92
35712,note_on,,,,,64,0,7,,,,,6,,,43,75
35712,note_on,,,,,0,0,2,,,,,1,,,71,92
35712,note_off,,,,,384,0,2,,,,,1,,,60,0
35712,note_off,,,,,384,0,3,,,,,2,,,69,0
35712,note_on,,,,,0,0,4,,,,,3,,,71,108
35712,note_off,,,,,384,0,4,,,,,3,,,60,0
35712,note_on,,,,,0,0,8,,,,,7,,,64,60
35712,note_on,,,,,64,0,8,,,,,7,,,59,60
36032,note_off,,,,,320,0,6,,,,,5,,,55,0
36032,note_off,,,,,0,0,8,,,,,7,,,64,0
36032,note_off,,,,,320,0,8,,,,,7,,,59,0
36032,note_off,,,,,320,0,5,,,,,4,,,64,0
36032,note_off,,,,,320,0,7,,,,,6,,,43,0
36032,note_off,,,,,320,0,9,,,,,8,,,55,0
36096,note_on,,,,,64,0,9,,,,,8,,,41,60
36096,set_tempo,,,,,36096,1,0,,1500000,,,,,,,
36096,note_off,,,,,384,0,2,,,,,1,,,71,0
36096,note_off,,,,,384,0,1,,,,,0,,,76,0
36096,note_off,,,,,384,0,4,,,,,3,,,71,0
36096,note_off,,,,,384,0,3,,,,,2,,,76,0
36096,note_on,,,,,0,0,9,,,,,8,,,53,60
36140,note_off,,,,,44,0,9,,,,,8,,,41,0
36140,note_off,,,,,0,0,9,,,,,8,,,53,0
36144,note_on,,,,,0,0,9,,,,,8,,,55,60
36144,note_on,,,,,4,0,9,,,,,8,,,43,60
36188,note_off,,,,,0,0,9,,,,,8,,,55,0
36188,note_off,,,,,44,0,9,,,,,8,,,43,0
36192,note_on,,,,,0,0,9,,,,,8,,,57,60
36192,note_on,,,,,4,0,9,,,,,8,,,45,60
36236,note_off,,,,,0,0,9,,,,,8,,,57,0
36236,note_off,,,,,44,0,9,,,,,8,,,45,0
36240,note_on,,,,,4,0,9,,,,,8,,,47,60
36240,note_on,,,,,0,0,9,,,,,8,,,59,60
36284,note_off,,,,,44,0,9,,,,,8,,,47,0
36284,note_off,,,,,0,0,9,,,,,8,,,59,0
36288,note_on,,,,,4,0,9,,,,,8,,,48,60
36288,note_on,,,,,0,0,9,,,,,8,,,60,60
36332,note_off,,,,,0,0,9,,,,,8,,,60,0
36332,note_off,,,,,44,0,9,,,,,8,,,48,0
36336,note_on,,,,,4,0,9,,,,,8,,,50,60
36336,note_on,,,,,0,0,9,,,,,8,,,62,60
36380,note_off,,,,,44,0,9,,,,,8,,,50,0
36380,note_off,,,,,0,0,9,,,,,8,,,62,0
36384,note_on,,,,,4,0,9,,,,,8,,,52,60
36384,note_on,,,,,0,0,9,,,,,8,,,64,60
36428,note_off,,,,,44,0,9,,,,,8,,,52,0
36428,note_off,,,,,0,0,9,,,,,8,,,64,0
36432,note_on,,,,,0,0,9,,,,,8,,,65,60
36432,note_on,,,,,4,0,9,,,,,8,,,53,60
36476,note_off,,,,,44,0,9,,,,,8,,,53,0
36476,note_off,,,,,0,0,9,,,,,8,,,65,0
36480,note_on,,,,,384,0,1,,,,,0,,,76,92
36480,note_on,,,,,448,0,7,,,,,6,,,41,75
36480,set_tempo,,,,,384,1,0,,2000000,,,,,,,
36480,note_on,,,,,448,0,8,,,,,7,,,57,60
36480,note_on,,,,,0,0,8,,,,,7,,,62,60
36480,note_on,,,,,0,0,8,,,,,7,,,69,60
36480,note_on,,,,,448,0,6,,,,,5,,,53,92
36480,note_on,,,,,384,0,2,,,,,1,,,71,92
36480,note_on,,,,,384,0,4,,,,,3,,,71,108
36480,note_on,,,,,4,0,9,,,,,8,,,55,60
36480,note_on,,,,,448,0,5,,,,,4,,,65,92
36480,note_on,,,,,384,0,3,,,,,2,,,76,108
36500,note_off,,,,,20,0,9,,,,,8,,,55,0
36504,note_on,,,,,0,0,1,,,,,0,,,74,92
36504,note_off,,,,,24,0,1,,,,,0,,,76,0
36504,note_on,,,,,0,0,2,,,,,1,,,69,92
36504,note_off,,,,,24,0,2,,,,,1,,,71,0
36504,note_off,,,,,24,0,3,,,,,2,,,76,0
36504,note_on,,,,,4,0,9,,,,,8,,,53,60
36504,note_off,,,,,24,0,4,,,,,3,,,71,0
36504,note_on,,,,,0,0,3,,,,,2,,,74,108
36504,note_on,,,,,0,0,4,,,,,3,,,69,108
36524,note_off,,,,,20,0,9,,,,,8,,,53,0
36528,note_off,,,,,24,0,3,,,,,2,,,74,0
36528,note_on,,,,,4,0,9,,,,,8,,,55,60
36528,note_off,,,,,24,0,4,,,,,3,,,69,0
36528,note_on,,,,,0,0,3,,,,,2,,,76,108
36528,note_on,,,,,0,0,4,,,,,3,,,71,108
36528,note_off,,,,,24,0,1,,,,,0,,,74,0
36528,note_off,,,,,24,0,2,,,,,1,,,69,0
36528,note_on,,,,,0,0,2,,,,,1,,,71,92
36528,note_on,,,,,0,0,1,,,,,0,,,76,92
36548,note_off,,,,,20,0,9,,,,,8,,,55,0
36552,note_off,,,,,24,0,2,,,,,1,,,71,0
36552,note_on,,,,,0,0,2,,,,,1,,,69,92
36552,note_on,,,,,4,0,9,,,,,8,,,53,60
36552,note_on,,,,,0,0,1,,,,,0,,,74,92
36552,note_off,,,,,24,0,1,,,,,0,,,76,0
36552,note_off,,,,,24,0,3,,,,,2,,,76,0
36552,note_on,,,,,0,0,3,,,,,2,,,74,108
36552,note_on,,,,,0,0,4,,,,,3,,,69,108
36552,note_off,,,,,24,0,4,,,,,3,,,71,0
36572,note_off,,,,,20,0,9,,,,,8,,,53,0
36576,note_on,,,,,0,0,1,,,,,0,,,76,92
36576,note_on,,,,,4,0,9,,,,,8,,,55,60
36576,note_on,,,,,0,0,3,,,,,2,,,76,108
36576,note_off,,,,,24,0,3,,,,,2,,,74,0
36576,note_on,,,,,0,0,2,,,,,1,,,71,92
36576,note_off,,,,,24,0,2,,,,,1,,,69,0
36576,note_on,,,,,0,0,4,,,,,3,,,71,108
36576,note_off,,,,,24,0,4,,,,,3,,,69,0
36576,note_off,,,,,24,0,1,,,,,0,,,74,0
36596,note_off,,,,,20,0,9,,,,,8,,,55,0
36600,note_on,,,,,0,0,2,,,,,1,,,69,92
36600,note_off,,,,,24,0,2,,,,,1,,,71,0
36600,note_on,,,,,0,0,4,,,,,3,,,69,108
36600,note_off,,,,,24,0,4,,,,,3,,,71,0
36600,note_off,,,,,24,0,1,,,,,0,,,76,0
36600,note_on,,,,,0,0,1,,,,,0,,,74,92
36600,note_off,,,,,24,0,3,,,,,2,,,76,0
36600,note_on,,,,,0,0,3,,,,,2,,,74,108
36600,note_on,,,,,4,0,9,,,,,8,,,53,60
36620,note_off,,,,,20,0,9,,,,,8,,,53,0
36624,note_off,,,,,24,0,3,,,,,2,,,74,0
36624,note_on,,,,,0,0,3,,,,,2,,,76,108
36624,note_off,,,,,24,0,4,,,,,3,,,69,0
36624,note_on,,,,,4,0,9,,,,,8,,,55,60
36624,note_on,,,,,0,0,2,,,,,1,,,71,92
36624,note_off,,,,,24,0,2,,,,,1,,,69,0
36624,note_on,,,,,0,0,4,,,,,3,,,71,108
36624,note_off,,,,,24,0,1,,,,,0,,,74,0
36624,note_on,,,,,0,0,1,,,,,0,,,76,92
36644,note_off,,,,,20,0,9,,,,,8,,,55,0
36648,note_on,,,,,0,0,2,,,,,1,,,69,92
36648,note_off,,,,,24,0,3,,,,,2,,,76,0
36648,note_off,,,,,24,0,2,,,,,1,,,71,0
36648,note_on,,,,,0,0,4,,,,,3,,,69,108
36648,note_on,,,,,0,0,1,,,,,0,,,74,92
36648,note_off,,,,,24,0,1,,,,,0,,,76,0
36648,note_off,,,,,24,0,4,,,,,3,,,71,0
36648,note_on,,,,,4,0,9,,,,,8,,,53,60
36648,note_on,,,,,0,0,3,,,,,2,,,74,108
36668,note_off,,,,,20,0,9,,,,,8,,,53,0
36672,note_on,,,,,0,0,4,,,,,3,,,71,108
36672,note_off,,,,,24,0,4,,,,,3,,,69,0
36672,note_on,,,,,0,0,1,,,,,0,,,76,92
36672,note_off,,,,,24,0,1,,,,,0,,,74,0
36672,note_off,,,,,24,0,3,,,,,2,,,74,0
36672,note_on,,,,,0,0,3,,,,,2,,,76,108
36672,note_on,,,,,0,0,2,,,,,1,,,71,92
36672,note_off,,,,,24,0,2,,,,,1,,,69,0
36672,note_on,,,,,4,0,9,,,,,8,,,55,60
36692,note_off,,,,,20,0,9,,,,,8,,,55,0
36696,note_on,,,,,0,0,3,,,,,2,,,74,108
36696,note_off,,,,,24,0,4,,,,,3,,,71,0
36696,note_off,,,,,24,0,2,,,,,1,,,71,0
36696,note_on,,,,,4,0,9,,,,,8,,,53,60
36696,note_on,,,,,0,0,2,,,,,1,,,69,92
36696,note_on,,,,,0,0,4,,,,,3,,,69,108
36696,note_on,,,,,0,0,1,,,,,0,,,74,92
36696,note_off,,,,,24,0,1,,,,,0,,,76,0
36696,note_off,,,,,24,0,3,,,,,2,,,76,0
36764,note_off,,,,,284,0,5,,,,,4,,,65,0
36764,note_off,,,,,68,0,9,,,,,8,,,53,0
36764,note_off,,,,,284,0,7,,,,,6,,,41,0
36764,note_off,,,,,284,0,6,,,,,5,,,53,0
36768,note_on,,,,,0,0,2,,,,,1,,,68,92
36768,note_off,,,,,72,0,2,,,,,1,,,69,0
36768,note_on,,,,,4,0,9,,,,,8,,,52,60
36768,note_on,,,,,0,0,4,,,,,3,,,68,108
36768,note_on,,,,,4,0,6,,,,,5,,,52,92
36768,note_off,,,,,72,0,3,,,,,2,,,74,0
36768,note_on,,,,,0,0,3,,,,,2,,,76,108
36768,note_on,,,,,4,0,5,,,,,4,,,59,92
36768,note_on,,,,,0,0,1,,,,,0,,,76,92
36768,note_off,,,,,72,0,1,,,,,0,,,74,0
36768,note_off,,,,,72,0,4,,,,,3,,,69,0
36768,note_on,,,,,4,0,7,,,,,6,,,40,75
36800,note_off,,,,,0,0,8,,,,,7,,,62,0
36800,note_off,,,,,320,0,8,,,,,7,,,57,0
36800,note_off,,,,,0,0,8,,,,,7,,,69,0
36860,note_off,,,,,92,0,6,,,,,5,,,52,0
36860,note_off,,,,,92,0,9,,,,,8,,,52,0
36860,note_off,,,,,92,0,7,,,,,6,,,40,0
36860,note_off,,,,,92,0,5,,,,,4,,,59,0
36864,end_of_track,,,,,0,1,0,,,,,,,,,
36864,note_on,,,,,0,0,2,,,,,1,,,68,92
36864,note_off,,,,,96,0,2,,,,,1,,,68,0
36864,note_on,,,,,4,0,7,,,,,6,,,40,75
36864,note_on,,,,,4,0,5,,,,,4,,,59,92
36864,note_on,,,,,64,0,8,,,,,7,,,59,60
36864,note_on,,,,,0,0,8,,,,,7,,,64,60
36864,note_on,,,,,0,0,8,,,,,7,,,68,60
36864,note_on,,,,,4,0,6,,,,,5,,,52,92
36864,note_on,,,,,4,0,9,,,,,8,,,52,60
36864,note_off,,,,,96,0,4,,,,,3,,,68,0
36864,set_tempo,,,,,384,1,0,,857142,,,,,,,
36864,note_on,,,,,0,0,4,,,,,3,,,68,108
36864,note_off,,,,,96,0,3,,,,,2,,,76,0
36864,note_on,,,,,0,0,3,,,,,2,,,76,108
36864,note_on,,,,,0,0,1,,,,,0,,,76,92
36864,note_off,,,,,96,0,1,,,,,0,,,76,0
38304,end_of_track,,,,,0,1,7,,,,,,,,,
38304,note_off,,,,,1440,0,7,,,,,6,,,40,0
38304,note_off,,,,,1440,0,8,,,,,7,,,59,0
38304,end_of_track,,,,,0,1,8,,,,,,,,,
38304,note_off,,,,,1440,0,5,,,,,4,,,59,0
38304,end_of_track,,,,,0,1,6,,,,,,,,,
38304,end_of_track,,,,,0,1,9,,,,,,,,,
38304,note_off,,,,,1440,0,9,,,,,8,,,52,0
38304,note_off,,,,,0,0,8,,,,,7,,,68,0
38304,note_off,,,,,0,0,8,,,,,7,,,64,0
38304,end_of_track,,,,,0,1,5,,,,,,,,,
38304,note_off,,,,,1440,0,6,,,,,5,,,52,0
38400,end_of_track,,,,,0,1,1,,,,,,,,,
38400,end_of_track,,,,,0,1,3,,,,,,,,,
38400,note_off,,,,,1536,0,3,,,,,2,,,76,0
38400,end_of_track,,,,,0,1,4,,,,,,,,,
38400,note_off,,,,,1536,0,4,,,,,3,,,68,0
38400,note_off,,,,,1536,0,2,,,,,1,,,68,0
38400,end_of_track,,,,,0,1,2,,,,,,,,,
38400,note_off,,,,,1536,0,1,,,,,0,,,76,0
