tick,type,numerator,denominator,clocks_per_click,notated_32nd_notes_per_beat,time,meta,track,data,tempo,control,value,channel,program,key,note,velocity
0,time_signature,1,4,96,8,0,1,0,,,,,,,,,
0,key_signature,,,,,0,1,6,,,,,,,Eb,,
0,program_change,,,,,0,0,6,,,,,5,42,,,
0,control_change,,,,,0,0,6,,,7,127,5,,,,
0,control_change,,,,,0,0,6,,,10,24,5,,,,
0,control_change,,,,,0,0,6,,,0,0,5,,,,
0,track_name,,,,,0,1,6,,,,,,,,,
0,key_signature,,,,,0,1,15,,,,,,,C,,
0,key_signature,,,,,0,1,5,,,,,,,Eb,,
0,program_change,,,,,0,0,5,,,,,4,41,,,
0,control_change,,,,,0,0,5,,,7,127,4,,,,
0,control_change,,,,,0,0,5,,,10,104,4,,,,
0,control_change,,,,,0,0,5,,,0,0,4,,,,
0,track_name,,,,,0,1,5,,,,,,,,,
0,key_signature,,,,,0,1,4,,,,,,,Eb,,
0,program_change,,,,,0,0,4,,,,,3,48,,,
0,control_change,,,,,0,0,4,,,7,127,3,,,,
0,control_change,,,,,0,0,4,,,10,104,3,,,,
0,control_change,,,,,0,0,4,,,0,0,3,,,,
0,track_name,,,,,0,1,4,,,,,,,,,
0,key_signature,,,,,0,1,3,,,,,,,Eb,,
0,program_change,,,,,0,0,3,,,,,2,48,,,
0,control_change,,,,,0,0,3,,,7,127,2,,,,
0,control_change,,,,,0,0,3,,,10,24,2,,,,
0,control_change,,,,,0,0,3,,,0,0,2,,,,
0,track_name,,,,,0,1,3,,,,,,,,,
0,key_signature,,,,,0,1,2,,,,,,,Eb,,
0,program_change,,,,,0,0,2,,,,,1,40,,,
0,control_change,,,,,0,0,2,,,7,127,1,,,,
0,control_change,,,,,0,0,2,,,10,104,1,,,,
0,track_name,,,,,0,1,7,,,,,,,,,
0,control_change,,,,,0,0,7,,,0,0,6,,,,
0,control_change,,,,,0,0,7,,,10,64,6,,,,
0,control_change,,,,,0,0,7,,,7,127,6,,,,
0,track_name,,,,,0,1,15,,,,,,,,,
0,end_of_track,,,,,0,1,14,,,,,,,,,
0,key_signature,,,,,0,1,14,,,,,,,C,,
0,track_name,,,,,0,1,14,,,,,,,,,
0,end_of_track,,,,,0,1,13,,,,,,,,,
0,key_signature,,,,,0,1,13,,,,,,,C,,
0,track_name,,,,,0,1,13,,,,,,,,,
0,end_of_track,,,,,0,1,12,,,,,,,,,
0,key_signature,,,,,0,1,12,,,,,,,C,,
0,track_name,,,,,0,1,12,,,,,,,,,
0,end_of_track,,,,,0,1,11,,,,,,,,,
0,key_signature,,,,,0,1,11,,,,,,,C,,
0,track_name,,,,,0,1,11,,,,,,,,,
0,end_of_track,,,,,0,1,10,,,,,,,,,
0,control_change,,,,,0,0,2,,,0,0,1,,,,
0,key_signature,,,,,0,1,10,,,,,,,C,,
0,key_signature,,,,,0,1,9,,,,,,,Eb,,
0,program_change,,,,,0,0,9,,,,,8,6,,,
0,control_change,,,,,0,0,9,,,7,127,8,,,,
0,control_change,,,,,0,0,9,,,10,63,8,,,,
0,control_change,,,,,0,0,9,,,0,0,8,,,,
0,track_name,,,,,0,1,9,,,,,,,,,
0,key_signature,,,,,0,1,8,,,,,,,Eb,,
0,program_change,,,,,0,0,8,,,,,7,6,,,
0,control_change,,,,,0,0,8,,,7,127,7,,,,
0,control_change,,,,,0,0,8,,,10,63,7,,,,
0,control_change,,,,,0,0,8,,,0,0,7,,,,
0,track_name,,,,,0,1,8,,,,,,,,,
0,key_signature,,,,,0,1,7,,,,,,,Eb,,
0,program_change,,,,,0,0,7,,,,,6,43,,,
0,track_name,,,,,0,1,10,,,,,,,,,
0,track_name,,,,,0,1,2,,,,,,,,,
0,end_of_track,,,,,0,1,15,,,,,,,,,
0,sequencer_specific,,,,,0,1,0,"(0, 0, 65)",,,,,,,,
0,set_tempo,,,,,0,1,0,,631578,,,,,,,
0,track_name,,,,,0,1,1,,,,,,,,,
0,control_change,,,,,0,0,1,,,0,0,0,,,,
0,control_change,,,,,0,0,1,,,10,24,0,,,,
0,control_change,,,,,0,0,1,,,7,127,0,,,,
0,program_change,,,,,0,0,1,,,,,0,40,,,
0,key_signature,,,,,0,1,1,,,,,,,Eb,,
192,note_on,,,,,192,0,3,,,,,2,,,79,108
192,note_on,,,,,192,0,1,,,,,0,,,79,63
192,note_on,,,,,192,0,2,,,,,1,,,79,63
380,note_off,,,,,188,0,3,,,,,2,,,79,0
380,note_off,,,,,188,0,1,,,,,0,,,79,0
380,note_off,,,,,188,0,2,,,,,1,,,79,0
384,note_on,,,,,4,0,1,,,,,0,,,84,63
384,note_on,,,,,4,0,2,,,,,1,,,84,63
384,note_on,,,,,4,0,3,,,,,2,,,84,108
384,time_signature,4,4,96,8,384,1,0,,,,,,,,,
572,note_off,,,,,188,0,1,,,,,0,,,84,0
572,note_off,,,,,188,0,2,,,,,1,,,84,0
572,note_off,,,,,188,0,3,,,,,2,,,84,0
576,note_on,,,,,4,0,2,,,,,1,,,79,63
576,note_on,,,,,4,0,1,,,,,0,,,79,63
576,note_on,,,,,4,0,3,,,,,2,,,79,108
668,note_off,,,,,92,0,1,,,,,0,,,79,0
668,note_off,,,,,92,0,2,,,,,1,,,79,0
668,note_off,,,,,92,0,3,,,,,2,,,79,0
672,note_on,,,,,4,0,1,,,,,0,,,77,63
672,note_on,,,,,4,0,2,,,,,1,,,77,63
672,note_on,,,,,4,0,3,,,,,2,,,77,108
764,note_off,,,,,92,0,2,,,,,1,,,77,0
764,note_off,,,,,92,0,1,,,,,0,,,77,0
764,note_off,,,,,92,0,3,,,,,2,,,77,0
768,note_on,,,,,4,0,1,,,,,0,,,75,63
768,note_on,,,,,4,0,2,,,,,1,,,75,63
768,note_on,,,,,4,0,3,,,,,2,,,75,108
956,note_off,,,,,188,0,3,,,,,2,,,75,0
956,note_off,,,,,188,0,1,,,,,0,,,75,0
956,note_off,,,,,188,0,2,,,,,1,,,75,0
960,note_on,,,,,0,0,8,,,,,7,,,50,50
960,note_on,,,,,0,0,8,,,,,7,,,46,50
960,note_on,,,,,960,0,8,,,,,7,,,41,50
960,note_on,,,,,960,0,6,,,,,5,,,55,92
960,note_on,,,,,4,0,2,,,,,1,,,74,63
960,note_on,,,,,960,0,4,,,,,3,,,71,127
960,note_on,,,,,4,0,3,,,,,2,,,74,108
960,note_on,,,,,4,0,1,,,,,0,,,74,63
960,note_on,,,,,960,0,7,,,,,6,,,43,75
960,note_on,,,,,960,0,5,,,,,4,,,62,92
960,note_on,,,,,960,0,9,,,,,8,,,55,50
1052,note_off,,,,,92,0,2,,,,,1,,,74,0
1052,note_off,,,,,92,0,1,,,,,0,,,74,0
1052,note_off,,,,,92,0,3,,,,,2,,,74,0
1056,note_on,,,,,4,0,3,,,,,2,,,75,108
1056,note_on,,,,,4,0,2,,,,,1,,,75,63
1056,note_on,,,,,4,0,1,,,,,0,,,75,63
1148,note_off,,,,,188,0,4,,,,,3,,,71,0
1148,note_off,,,,,188,0,6,,,,,5,,,55,0
1148,note_off,,,,,0,0,8,,,,,7,,,50,0
1148,note_off,,,,,0,0,8,,,,,7,,,46,0
1148,note_off,,,,,188,0,8,,,,,7,,,41,0
1148,note_off,,,,,188,0,5,,,,,4,,,62,0
1148,note_off,,,,,92,0,2,,,,,1,,,75,0
1148,note_off,,,,,92,0,3,,,,,2,,,75,0
1148,note_off,,,,,188,0,7,,,,,6,,,43,0
1148,note_off,,,,,188,0,9,,,,,8,,,55,0
1148,note_off,,,,,92,0,1,,,,,0,,,75,0
1152,note_on,,,,,4,0,1,,,,,0,,,72,63
1152,note_on,,,,,4,0,5,,,,,4,,,63,92
1152,note_on,,,,,4,0,9,,,,,8,,,60,50
1152,note_on,,,,,4,0,6,,,,,5,,,60,92
1152,note_on,,,,,0,0,8,,,,,7,,,51,50
1152,note_on,,,,,0,0,8,,,,,7,,,46,50
1152,note_on,,,,,4,0,8,,,,,7,,,43,50
1152,note_on,,,,,4,0,2,,,,,1,,,72,63
1152,note_on,,,,,4,0,7,,,,,6,,,48,75
1152,note_on,,,,,4,0,3,,,,,2,,,72,108
1152,note_on,,,,,4,0,4,,,,,3,,,67,127
1340,note_off,,,,,188,0,7,,,,,6,,,48,0
1340,note_off,,,,,188,0,6,,,,,5,,,60,0
1340,note_off,,,,,188,0,9,,,,,8,,,60,0
1344,note_on,,,,,4,0,6,,,,,5,,,55,92
1344,note_on,,,,,4,0,7,,,,,6,,,43,75
1344,note_on,,,,,4,0,9,,,,,8,,,55,50
1436,note_off,,,,,92,0,7,,,,,6,,,43,0
1436,note_off,,,,,92,0,9,,,,,8,,,55,0
1436,note_off,,,,,92,0,6,,,,,5,,,55,0
1440,note_on,,,,,4,0,7,,,,,6,,,41,75
1440,note_on,,,,,4,0,9,,,,,8,,,53,50
1440,note_on,,,,,4,0,6,,,,,5,,,53,92
1472,note_off,,,,,320,0,4,,,,,3,,,67,0
1472,note_off,,,,,320,0,1,,,,,0,,,72,0
1472,note_off,,,,,320,0,3,,,,,2,,,72,0
1472,note_off,,,,,320,0,2,,,,,1,,,72,0
1472,note_off,,,,,320,0,8,,,,,7,,,43,0
1472,note_off,,,,,0,0,8,,,,,7,,,46,0
1472,note_off,,,,,0,0,8,,,,,7,,,51,0
1472,note_off,,,,,320,0,5,,,,,4,,,63,0
1532,note_off,,,,,92,0,7,,,,,6,,,41,0
1532,note_off,,,,,92,0,6,,,,,5,,,53,0
1532,note_off,,,,,92,0,9,,,,,8,,,53,0
1536,note_on,,,,,4,0,9,,,,,8,,,51,50
1536,note_on,,,,,0,0,8,,,,,7,,,46,50
1536,note_on,,,,,64,0,8,,,,,7,,,39,50
1536,note_on,,,,,4,0,7,,,,,6,,,39,75
1536,note_on,,,,,4,0,6,,,,,5,,,51,92
1724,note_off,,,,,188,0,6,,,,,5,,,51,0
1724,note_off,,,,,188,0,7,,,,,6,,,39,0
1724,note_off,,,,,0,0,8,,,,,7,,,46,0
1724,note_off,,,,,188,0,8,,,,,7,,,39,0
1724,note_off,,,,,188,0,9,,,,,8,,,51,0
1728,note_on,,,,,0,0,8,,,,,7,,,44,50
1728,note_on,,,,,4,0,8,,,,,7,,,34,50
1728,note_on,,,,,4,0,9,,,,,8,,,50,50
1728,note_on,,,,,0,0,8,,,,,7,,,38,50
1728,note_on,,,,,256,0,4,,,,,3,,,62,127
1728,note_on,,,,,256,0,5,,,,,4,,,59,92
1728,note_on,,,,,4,0,6,,,,,5,,,50,92
1728,note_on,,,,,4,0,7,,,,,6,,,38,75
1728,note_on,,,,,256,0,1,,,,,0,,,67,63
1728,note_on,,,,,256,0,3,,,,,2,,,67,108
1728,note_on,,,,,256,0,2,,,,,1,,,67,63
1820,note_off,,,,,92,0,6,,,,,5,,,50,0
1820,note_off,,,,,92,0,7,,,,,6,,,38,0
1820,note_off,,,,,92,0,9,,,,,8,,,50,0
1824,note_on,,,,,4,0,6,,,,,5,,,51,92
1824,note_on,,,,,4,0,7,,,,,6,,,39,75
1824,note_on,,,,,4,0,9,,,,,8,,,51,50
1916,note_off,,,,,188,0,5,,,,,4,,,59,0
1916,note_off,,,,,188,0,1,,,,,0,,,67,0
1916,note_off,,,,,92,0,9,,,,,8,,,51,0
1916,note_off,,,,,92,0,7,,,,,6,,,39,0
1916,note_off,,,,,188,0,3,,,,,2,,,67,0
1916,note_off,,,,,188,0,2,,,,,1,,,67,0
1916,note_off,,,,,188,0,8,,,,,7,,,34,0
1916,note_off,,,,,92,0,6,,,,,5,,,51,0
1916,note_off,,,,,0,0,8,,,,,7,,,44,0
1916,note_off,,,,,0,0,8,,,,,7,,,38,0
1916,note_off,,,,,188,0,4,,,,,3,,,62,0
1920,note_on,,,,,4,0,6,,,,,5,,,48,92
1920,note_on,,,,,0,0,8,,,,,7,,,43,50
1920,note_on,,,,,0,0,8,,,,,7,,,39,50
1920,note_on,,,,,4,0,8,,,,,7,,,34,50
1920,note_on,,,,,4,0,7,,,,,6,,,36,75
1920,note_on,,,,,4,0,4,,,,,3,,,63,127
1920,note_on,,,,,4,0,1,,,,,0,,,72,63
1920,note_on,,,,,4,0,2,,,,,1,,,72,63
1920,note_on,,,,,4,0,9,,,,,8,,,48,50
1920,note_on,,,,,4,0,5,,,,,4,,,67,92
1920,note_on,,,,,4,0,3,,,,,2,,,72,108
2108,note_off,,,,,188,0,1,,,,,0,,,72,0
2108,note_off,,,,,188,0,3,,,,,2,,,72,0
2108,note_off,,,,,188,0,2,,,,,1,,,72,0
2112,note_on,,,,,4,0,2,,,,,1,,,67,63
2112,note_on,,,,,4,0,1,,,,,0,,,67,63
2112,note_on,,,,,4,0,3,,,,,2,,,67,108
2204,note_off,,,,,92,0,3,,,,,2,,,67,0
2204,note_off,,,,,92,0,1,,,,,0,,,67,0
2204,note_off,,,,,92,0,2,,,,,1,,,67,0
2208,note_on,,,,,4,0,1,,,,,0,,,65,63
2208,note_on,,,,,4,0,2,,,,,1,,,65,63
2208,note_on,,,,,4,0,3,,,,,2,,,65,108
2240,note_off,,,,,320,0,6,,,,,5,,,48,0
2240,note_off,,,,,320,0,4,,,,,3,,,63,0
2240,note_off,,,,,320,0,5,,,,,4,,,67,0
2240,note_off,,,,,320,0,7,,,,,6,,,36,0
2240,note_off,,,,,320,0,9,,,,,8,,,48,0
2240,note_off,,,,,320,0,8,,,,,7,,,34,0
2240,note_off,,,,,0,0,8,,,,,7,,,39,0
2240,note_off,,,,,0,0,8,,,,,7,,,43,0
2300,note_off,,,,,92,0,1,,,,,0,,,65,0
2300,note_off,,,,,92,0,3,,,,,2,,,65,0
2300,note_off,,,,,92,0,2,,,,,1,,,65,0
2304,note_on,,,,,4,0,2,,,,,1,,,63,63
2304,note_on,,,,,4,0,3,,,,,2,,,63,108
2304,note_on,,,,,4,0,1,,,,,0,,,63,63
2492,note_off,,,,,188,0,1,,,,,0,,,63,0
2492,note_off,,,,,188,0,2,,,,,1,,,63,0
2492,note_off,,,,,188,0,3,,,,,2,,,63,0
2496,note_on,,,,,256,0,5,,,,,4,,,55,92
2496,note_on,,,,,256,0,7,,,,,6,,,31,75
2496,note_on,,,,,4,0,3,,,,,2,,,62,108
2496,note_on,,,,,256,0,9,,,,,8,,,43,50
2496,note_on,,,,,256,0,8,,,,,7,,,55,50
2496,note_on,,,,,0,0,8,,,,,7,,,59,50
2496,note_on,,,,,4,0,2,,,,,1,,,62,63
2496,note_on,,,,,256,0,6,,,,,5,,,43,92
2496,note_on,,,,,256,0,4,,,,,3,,,59,127
2496,note_on,,,,,4,0,1,,,,,0,,,62,63
2588,note_off,,,,,92,0,1,,,,,0,,,62,0
2588,note_off,,,,,92,0,2,,,,,1,,,62,0
2588,note_off,,,,,92,0,3,,,,,2,,,62,0
2592,note_on,,,,,4,0,2,,,,,1,,,63,63
2592,note_on,,,,,4,0,1,,,,,0,,,63,63
2592,note_on,,,,,4,0,3,,,,,2,,,63,108
2684,note_off,,,,,188,0,6,,,,,5,,,43,0
2684,note_off,,,,,188,0,7,,,,,6,,,31,0
2684,note_off,,,,,188,0,5,,,,,4,,,55,0
2684,note_off,,,,,188,0,4,,,,,3,,,59,0
2684,note_off,,,,,92,0,1,,,,,0,,,63,0
2684,note_off,,,,,188,0,9,,,,,8,,,43,0
2684,note_off,,,,,92,0,2,,,,,1,,,63,0
2684,note_off,,,,,188,0,8,,,,,7,,,55,0
2684,note_off,,,,,0,0,8,,,,,7,,,59,0
2684,note_off,,,,,92,0,3,,,,,2,,,63,0
2688,note_on,,,,,4,0,4,,,,,3,,,55,127
2688,note_on,,,,,4,0,7,,,,,6,,,36,75
2688,note_on,,,,,4,0,3,,,,,2,,,60,108
2688,note_on,,,,,0,0,8,,,,,7,,,60,50
2688,note_on,,,,,0,0,8,,,,,7,,,55,50
2688,note_on,,,,,4,0,6,,,,,5,,,48,92
2688,note_on,,,,,4,0,5,,,,,4,,,51,92
2688,note_on,,,,,4,0,1,,,,,0,,,60,63
2688,note_on,,,,,4,0,2,,,,,1,,,60,63
2688,note_on,,,,,4,0,9,,,,,8,,,48,50
2688,note_on,,,,,4,0,8,,,,,7,,,51,50
2876,note_off,,,,,188,0,9,,,,,8,,,48,0
2876,note_off,,,,,188,0,7,,,,,6,,,36,0
2876,note_off,,,,,188,0,6,,,,,5,,,48,0
2880,note_on,,,,,4,0,7,,,,,6,,,31,75
2880,note_on,,,,,4,0,6,,,,,5,,,43,92
2880,note_on,,,,,4,0,9,,,,,8,,,43,50
2972,note_off,,,,,92,0,7,,,,,6,,,31,0
2972,note_off,,,,,92,0,9,,,,,8,,,43,0
2972,note_off,,,,,92,0,6,,,,,5,,,43,0
2976,note_on,,,,,4,0,6,,,,,5,,,41,92
2976,note_on,,,,,4,0,9,,,,,8,,,41,50
2976,note_on,,,,,4,0,7,,,,,6,,,29,75
3008,note_off,,,,,320,0,4,,,,,3,,,55,0
3008,note_off,,,,,320,0,3,,,,,2,,,60,0
3008,note_off,,,,,320,0,1,,,,,0,,,60,0
3008,note_off,,,,,0,0,8,,,,,7,,,60,0
3008,note_off,,,,,0,0,8,,,,,7,,,55,0
3008,note_off,,,,,320,0,8,,,,,7,,,51,0
3008,note_off,,,,,320,0,5,,,,,4,,,51,0
3008,note_off,,,,,320,0,2,,,,,1,,,60,0
3068,note_off,,,,,92,0,9,,,,,8,,,41,0
3068,note_off,,,,,92,0,7,,,,,6,,,29,0
3068,note_off,,,,,92,0,6,,,,,5,,,41,0
3072,note_on,,,,,4,0,7,,,,,6,,,27,75
3072,note_on,,,,,64,0,8,,,,,7,,,55,50
3072,note_on,,,,,0,0,8,,,,,7,,,60,50
3072,note_on,,,,,4,0,6,,,,,5,,,39,92
3072,note_on,,,,,4,0,9,,,,,8,,,39,50
3260,note_off,,,,,188,0,7,,,,,6,,,27,0
3260,note_off,,,,,188,0,6,,,,,5,,,39,0
3260,note_off,,,,,0,0,8,,,,,7,,,60,0
3260,note_off,,,,,188,0,9,,,,,8,,,39,0
3260,note_off,,,,,188,0,8,,,,,7,,,55,0
3264,note_on,,,,,4,0,8,,,,,7,,,53,50
3264,note_on,,,,,4,0,6,,,,,5,,,38,92
3264,note_on,,,,,256,0,1,,,,,0,,,62,63
3264,note_on,,,,,4,0,7,,,,,6,,,26,75
3264,note_on,,,,,256,0,5,,,,,4,,,53,92
3264,note_on,,,,,4,0,9,,,,,8,,,38,50
3264,note_on,,,,,0,0,8,,,,,7,,,59,50
3264,note_on,,,,,0,0,8,,,,,7,,,62,50
3264,note_on,,,,,256,0,4,,,,,3,,,59,127
3264,note_on,,,,,256,0,2,,,,,1,,,62,63
3264,note_on,,,,,256,0,3,,,,,2,,,62,108
3356,note_off,,,,,92,0,9,,,,,8,,,38,0
3356,note_off,,,,,92,0,6,,,,,5,,,38,0
3356,note_off,,,,,92,0,7,,,,,6,,,26,0
3360,note_on,,,,,4,0,9,,,,,8,,,39,50
3360,note_on,,,,,4,0,6,,,,,5,,,39,92
3360,note_on,,,,,4,0,7,,,,,6,,,27,75
3452,note_off,,,,,188,0,5,,,,,4,,,53,0
3452,note_off,,,,,188,0,1,,,,,0,,,62,0
3452,note_off,,,,,188,0,3,,,,,2,,,62,0
3452,note_off,,,,,188,0,2,,,,,1,,,62,0
3452,note_off,,,,,92,0,6,,,,,5,,,39,0
3452,note_off,,,,,92,0,7,,,,,6,,,27,0
3452,note_off,,,,,188,0,4,,,,,3,,,59,0
3452,note_off,,,,,0,0,8,,,,,7,,,59,0
3452,note_off,,,,,0,0,8,,,,,7,,,62,0
3452,note_off,,,,,92,0,9,,,,,8,,,39,0
3452,note_off,,,,,188,0,8,,,,,7,,,53,0
3456,note_on,,,,,4,0,7,,,,,6,,,24,75
3456,note_on,,,,,4,0,3,,,,,2,,,63,108
3456,note_on,,,,,4,0,8,,,,,7,,,55,50
3456,note_on,,,,,4,0,1,,,,,0,,,63,63
3456,note_on,,,,,4,0,9,,,,,8,,,36,50
3456,note_on,,,,,4,0,6,,,,,5,,,36,92
3456,note_on,,,,,4,0,2,,,,,1,,,63,63
3456,note_on,,,,,0,0,8,,,,,7,,,60,50
3456,note_on,,,,,4,0,4,,,,,3,,,60,127
3456,note_on,,,,,0,0,8,,,,,7,,,63,50
3456,note_on,,,,,4,0,5,,,,,4,,,55,92
3548,note_off,,,,,92,0,2,,,,,1,,,63,0
3548,note_off,,,,,92,0,3,,,,,2,,,63,0
3548,note_off,,,,,92,0,1,,,,,0,,,63,0
3552,note_on,,,,,4,0,1,,,,,0,,,67,63
3552,note_on,,,,,4,0,3,,,,,2,,,67,108
3552,note_on,,,,,4,0,2,,,,,1,,,67,63
3644,note_off,,,,,92,0,3,,,,,2,,,67,0
3644,note_off,,,,,92,0,1,,,,,0,,,67,0
3644,note_off,,,,,92,0,2,,,,,1,,,67,0
3648,note_on,,,,,4,0,3,,,,,2,,,60,108
3648,note_on,,,,,4,0,2,,,,,1,,,60,63
3648,note_on,,,,,4,0,1,,,,,0,,,60,63
3740,note_off,,,,,92,0,1,,,,,0,,,60,0
3740,note_off,,,,,92,0,3,,,,,2,,,60,0
3740,note_off,,,,,92,0,2,,,,,1,,,60,0
3744,note_on,,,,,4,0,2,,,,,1,,,62,63
3744,note_on,,,,,4,0,1,,,,,0,,,62,63
3744,note_on,,,,,4,0,3,,,,,2,,,62,108
3776,note_off,,,,,320,0,7,,,,,6,,,24,0
3776,note_off,,,,,320,0,5,,,,,4,,,55,0
3776,note_off,,,,,0,0,8,,,,,7,,,60,0
3776,note_off,,,,,320,0,8,,,,,7,,,55,0
3776,note_off,,,,,320,0,6,,,,,5,,,36,0
3776,note_off,,,,,320,0,4,,,,,3,,,60,0
3776,note_off,,,,,320,0,9,,,,,8,,,36,0
3776,note_off,,,,,0,0,8,,,,,7,,,63,0
3836,note_off,,,,,92,0,1,,,,,0,,,62,0
3836,note_off,,,,,92,0,3,,,,,2,,,62,0
3836,note_off,,,,,92,0,2,,,,,1,,,62,0
3840,note_on,,,,,4,0,2,,,,,1,,,63,63
3840,note_on,,,,,4,0,1,,,,,0,,,63,63
3840,note_on,,,,,4,0,3,,,,,2,,,63,108
3932,note_off,,,,,92,0,1,,,,,0,,,63,0
3932,note_off,,,,,92,0,2,,,,,1,,,63,0
3932,note_off,,,,,92,0,3,,,,,2,,,63,0
3936,note_on,,,,,4,0,1,,,,,0,,,65,63
3936,note_on,,,,,4,0,2,,,,,1,,,65,63
3936,note_on,,,,,4,0,3,,,,,2,,,65,108
4028,note_off,,,,,92,0,1,,,,,0,,,65,0
4028,note_off,,,,,92,0,2,,,,,1,,,65,0
4028,note_off,,,,,92,0,3,,,,,2,,,65,0
4032,note_on,,,,,256,0,8,,,,,7,,,60,50
4032,note_on,,,,,4,0,1,,,,,0,,,67,63
4032,note_on,,,,,256,0,9,,,,,8,,,53,50
4032,note_on,,,,,256,0,6,,,,,5,,,53,92
4032,note_on,,,,,0,0,8,,,,,7,,,65,50
4032,note_on,,,,,4,0,2,,,,,1,,,67,63
4032,note_on,,,,,256,0,7,,,,,6,,,41,75
4032,note_on,,,,,4,0,3,,,,,2,,,67,108
4032,note_on,,,,,256,0,4,,,,,3,,,63,127
4032,note_on,,,,,256,0,5,,,,,4,,,60,92
4124,note_off,,,,,92,0,2,,,,,1,,,67,0
4124,note_off,,,,,92,0,3,,,,,2,,,67,0
4124,note_off,,,,,92,0,1,,,,,0,,,67,0
4128,note_on,,,,,4,0,1,,,,,0,,,69,63
4128,note_on,,,,,4,0,3,,,,,2,,,69,108
4128,note_on,,,,,4,0,2,,,,,1,,,69,63
4220,note_off,,,,,92,0,2,,,,,1,,,69,0
4220,note_off,,,,,92,0,1,,,,,0,,,69,0
4220,note_off,,,,,188,0,7,,,,,6,,,41,0
4220,note_off,,,,,92,0,3,,,,,2,,,69,0
4220,note_off,,,,,188,0,8,,,,,7,,,60,0
4220,note_off,,,,,188,0,4,,,,,3,,,63,0
4220,note_off,,,,,0,0,8,,,,,7,,,65,0
4220,note_off,,,,,188,0,9,,,,,8,,,53,0
4220,note_off,,,,,188,0,5,,,,,4,,,60,0
4220,note_off,,,,,188,0,6,,,,,5,,,53,0
4224,note_on,,,,,4,0,2,,,,,1,,,70,63
4224,note_on,,,,,4,0,8,,,,,7,,,62,50
4224,note_on,,,,,0,0,8,,,,,7,,,65,50
4224,note_on,,,,,4,0,7,,,,,6,,,46,75
4224,note_on,,,,,4,0,1,,,,,0,,,70,63
4224,note_on,,,,,4,0,3,,,,,2,,,70,108
4224,note_on,,,,,4,0,6,,,,,5,,,58,92
4224,note_on,,,,,4,0,5,,,,,4,,,58,92
4224,note_on,,,,,4,0,9,,,,,8,,,58,50
4224,note_on,,,,,4,0,4,,,,,3,,,62,127
4412,note_off,,,,,188,0,9,,,,,8,,,58,0
4412,note_off,,,,,188,0,6,,,,,5,,,58,0
4412,note_off,,,,,188,0,7,,,,,6,,,46,0
4416,note_on,,,,,4,0,9,,,,,8,,,53,50
4416,note_on,,,,,4,0,6,,,,,5,,,53,92
4416,note_on,,,,,4,0,7,,,,,6,,,41,75
4508,note_off,,,,,92,0,7,,,,,6,,,41,0
4508,note_off,,,,,92,0,6,,,,,5,,,53,0
4508,note_off,,,,,92,0,9,,,,,8,,,53,0
4512,note_on,,,,,4,0,7,,,,,6,,,39,75
4512,note_on,,,,,4,0,6,,,,,5,,,51,92
4512,note_on,,,,,4,0,9,,,,,8,,,51,50
4544,note_off,,,,,320,0,8,,,,,7,,,62,0
4544,note_off,,,,,0,0,8,,,,,7,,,65,0
4544,note_off,,,,,320,0,1,,,,,0,,,70,0
4544,note_off,,,,,320,0,3,,,,,2,,,70,0
4544,note_off,,,,,320,0,4,,,,,3,,,62,0
4544,note_off,,,,,320,0,2,,,,,1,,,70,0
4544,note_off,,,,,320,0,5,,,,,4,,,58,0
4604,note_off,,,,,92,0,7,,,,,6,,,39,0
4604,note_off,,,,,92,0,9,,,,,8,,,51,0
4604,note_off,,,,,92,0,6,,,,,5,,,51,0
4608,note_on,,,,,4,0,9,,,,,8,,,50,50
4608,note_on,,,,,4,0,6,,,,,5,,,50,92
4608,note_on,,,,,4,0,7,,,,,6,,,38,75
4608,note_on,,,,,0,0,8,,,,,7,,,70,50
4608,note_on,,,,,0,0,8,,,,,7,,,65,50
4608,note_on,,,,,64,0,8,,,,,7,,,62,50
4796,note_off,,,,,188,0,9,,,,,8,,,50,0
4796,note_off,,,,,0,0,8,,,,,7,,,70,0
4796,note_off,,,,,188,0,8,,,,,7,,,62,0
4796,note_off,,,,,0,0,8,,,,,7,,,65,0
4796,note_off,,,,,188,0,6,,,,,5,,,50,0
4796,note_off,,,,,188,0,7,,,,,6,,,38,0
4800,note_on,,,,,4,0,7,,,,,6,,,36,75
4800,note_on,,,,,256,0,2,,,,,1,,,72,63
4800,note_on,,,,,256,0,1,,,,,0,,,72,63
4800,note_on,,,,,4,0,8,,,,,7,,,63,50
4800,note_on,,,,,0,0,8,,,,,7,,,69,50
4800,note_on,,,,,4,0,9,,,,,8,,,48,50
4800,note_on,,,,,4,0,6,,,,,5,,,48,92
4800,note_on,,,,,256,0,4,,,,,3,,,69,127
4800,note_on,,,,,256,0,5,,,,,4,,,63,92
4800,note_on,,,,,256,0,3,,,,,2,,,72,108
4892,note_off,,,,,92,0,9,,,,,8,,,48,0
4892,note_off,,,,,92,0,7,,,,,6,,,36,0
4892,note_off,,,,,92,0,6,,,,,5,,,48,0
4896,note_on,,,,,4,0,9,,,,,8,,,50,50
4896,note_on,,,,,4,0,6,,,,,5,,,50,92
4896,note_on,,,,,4,0,7,,,,,6,,,38,75
4988,note_off,,,,,188,0,4,,,,,3,,,69,0
4988,note_off,,,,,0,0,8,,,,,7,,,69,0
4988,note_off,,,,,188,0,8,,,,,7,,,63,0
4988,note_off,,,,,92,0,6,,,,,5,,,50,0
4988,note_off,,,,,92,0,9,,,,,8,,,50,0
4988,note_off,,,,,92,0,7,,,,,6,,,38,0
4988,note_off,,,,,188,0,3,,,,,2,,,72,0
4988,note_off,,,,,188,0,2,,,,,1,,,72,0
4988,note_off,,,,,188,0,5,,,,,4,,,63,0
4988,note_off,,,,,188,0,1,,,,,0,,,72,0
4992,note_on,,,,,4,0,9,,,,,8,,,46,50
4992,note_on,,,,,4,0,2,,,,,1,,,74,63
4992,note_on,,,,,4,0,6,,,,,5,,,46,92
4992,note_on,,,,,4,0,8,,,,,7,,,62,50
4992,note_on,,,,,0,0,8,,,,,7,,,65,50
4992,note_on,,,,,0,0,8,,,,,7,,,70,50
4992,note_on,,,,,4,0,4,,,,,3,,,70,127
4992,note_on,,,,,4,0,3,,,,,2,,,74,108
4992,note_on,,,,,4,0,5,,,,,4,,,65,92
4992,note_on,,,,,4,0,7,,,,,6,,,34,75
4992,note_on,,,,,4,0,1,,,,,0,,,74,63
5084,note_off,,,,,92,0,3,,,,,2,,,74,0
5084,note_off,,,,,92,0,1,,,,,0,,,74,0
5084,note_off,,,,,92,0,2,,,,,1,,,74,0
5088,note_on,,,,,4,0,2,,,,,1,,,77,63
5088,note_on,,,,,4,0,1,,,,,0,,,77,63
5088,note_on,,,,,4,0,3,,,,,2,,,77,108
5180,note_off,,,,,92,0,3,,,,,2,,,77,0
5180,note_off,,,,,92,0,1,,,,,0,,,77,0
5180,note_off,,,,,92,0,2,,,,,1,,,77,0
5184,note_on,,,,,4,0,2,,,,,1,,,70,63
5184,note_on,,,,,4,0,3,,,,,2,,,70,108
5184,note_on,,,,,4,0,1,,,,,0,,,70,63
5276,note_off,,,,,92,0,1,,,,,0,,,70,0
5276,note_off,,,,,92,0,3,,,,,2,,,70,0
5276,note_off,,,,,92,0,2,,,,,1,,,70,0
5280,note_on,,,,,4,0,2,,,,,1,,,72,63
5280,note_on,,,,,4,0,3,,,,,2,,,72,108
5280,note_on,,,,,4,0,1,,,,,0,,,72,63
5312,note_off,,,,,320,0,9,,,,,8,,,46,0
5312,note_off,,,,,0,0,8,,,,,7,,,65,0
5312,note_off,,,,,320,0,4,,,,,3,,,70,0
5312,note_off,,,,,320,0,6,,,,,5,,,46,0
5312,note_off,,,,,320,0,5,,,,,4,,,65,0
5312,note_off,,,,,320,0,7,,,,,6,,,34,0
5312,note_off,,,,,320,0,8,,,,,7,,,62,0
5312,note_off,,,,,0,0,8,,,,,7,,,70,0
5372,note_off,,,,,92,0,3,,,,,2,,,72,0
5372,note_off,,,,,92,0,2,,,,,1,,,72,0
5372,note_off,,,,,92,0,1,,,,,0,,,72,0
5376,note_on,,,,,4,0,1,,,,,0,,,74,63
5376,note_on,,,,,4,0,3,,,,,2,,,74,108
5376,note_on,,,,,4,0,2,,,,,1,,,74,63
5468,note_off,,,,,92,0,1,,,,,0,,,74,0
5468,note_off,,,,,92,0,3,,,,,2,,,74,0
5468,note_off,,,,,92,0,2,,,,,1,,,74,0
5472,note_on,,,,,4,0,2,,,,,1,,,75,63
5472,note_on,,,,,4,0,1,,,,,0,,,75,63
5472,note_on,,,,,4,0,3,,,,,2,,,75,108
5564,note_off,,,,,92,0,1,,,,,0,,,75,0
5564,note_off,,,,,92,0,3,,,,,2,,,75,0
5564,note_off,,,,,92,0,2,,,,,1,,,75,0
5568,note_on,,,,,0,0,8,,,,,7,,,65,50
5568,note_on,,,,,256,0,8,,,,,7,,,62,50
5568,note_on,,,,,256,0,6,,,,,5,,,58,92
5568,note_on,,,,,256,0,4,,,,,3,,,70,127
5568,note_on,,,,,256,0,9,,,,,8,,,58,50
5568,note_on,,,,,4,0,1,,,,,0,,,77,63
5568,note_on,,,,,4,0,2,,,,,1,,,77,63
5568,note_on,,,,,256,0,7,,,,,6,,,46,75
5568,note_on,,,,,256,0,5,,,,,4,,,62,92
5568,note_on,,,,,4,0,3,,,,,2,,,77,108
5660,note_off,,,,,92,0,1,,,,,0,,,77,0
5660,note_off,,,,,92,0,3,,,,,2,,,77,0
5660,note_off,,,,,92,0,2,,,,,1,,,77,0
5664,note_on,,,,,4,0,2,,,,,1,,,79,63
5664,note_on,,,,,4,0,1,,,,,0,,,79,63
5664,note_on,,,,,4,0,3,,,,,2,,,79,108
5756,note_off,,,,,92,0,1,,,,,0,,,79,0
5756,note_off,,,,,92,0,2,,,,,1,,,79,0
5756,note_off,,,,,0,0,8,,,,,7,,,65,0
5756,note_off,,,,,188,0,8,,,,,7,,,62,0
5756,note_off,,,,,188,0,4,,,,,3,,,70,0
5756,note_off,,,,,92,0,3,,,,,2,,,79,0
5756,note_off,,,,,188,0,5,,,,,4,,,62,0
5756,note_off,,,,,188,0,9,,,,,8,,,58,0
5756,note_off,,,,,188,0,6,,,,,5,,,58,0
5756,note_off,,,,,188,0,7,,,,,6,,,46,0
5760,note_on,,,,,4,0,1,,,,,0,,,80,63
5760,note_on,,,,,4,0,2,,,,,1,,,80,63
5760,note_on,,,,,4,0,7,,,,,6,,,41,75
5760,note_on,,,,,4,0,3,,,,,2,,,80,108
5760,note_on,,,,,4,0,4,,,,,3,,,68,127
5760,note_on,,,,,4,0,6,,,,,5,,,53,92
5760,note_on,,,,,0,0,8,,,,,7,,,68,50
5760,note_on,,,,,4,0,9,,,,,8,,,53,50
5760,note_on,,,,,4,0,8,,,,,7,,,60,50
5760,note_on,,,,,0,0,8,,,,,7,,,62,50
5760,note_on,,,,,4,0,5,,,,,4,,,62,92
5948,note_off,,,,,188,0,6,,,,,5,,,53,0
5948,note_off,,,,,188,0,1,,,,,0,,,80,0
5948,note_off,,,,,188,0,9,,,,,8,,,53,0
5948,note_off,,,,,188,0,7,,,,,6,,,41,0
5948,note_off,,,,,188,0,3,,,,,2,,,80,0
5948,note_off,,,,,188,0,2,,,,,1,,,80,0
5952,note_on,,,,,4,0,6,,,,,5,,,41,92
5952,note_on,,,,,4,0,2,,,,,1,,,72,63
5952,note_on,,,,,4,0,9,,,,,8,,,41,50
5952,note_on,,,,,4,0,1,,,,,0,,,72,63
5952,note_on,,,,,4,0,7,,,,,6,,,29,75
5952,note_on,,,,,4,0,3,,,,,2,,,72,108
6080,note_off,,,,,0,0,8,,,,,7,,,68,0
6080,note_off,,,,,0,0,8,,,,,7,,,62,0
6080,note_off,,,,,320,0,8,,,,,7,,,60,0
6080,note_off,,,,,320,0,4,,,,,3,,,68,0
6080,note_off,,,,,320,0,5,,,,,4,,,62,0
6140,note_off,,,,,188,0,7,,,,,6,,,29,0
6140,note_off,,,,,188,0,6,,,,,5,,,41,0
6140,note_off,,,,,188,0,1,,,,,0,,,72,0
6140,note_off,,,,,188,0,2,,,,,1,,,72,0
6140,note_off,,,,,188,0,3,,,,,2,,,72,0
6140,note_off,,,,,188,0,9,,,,,8,,,41,0
6144,note_on,,,,,64,0,4,,,,,3,,,67,127
6144,note_on,,,,,64,0,8,,,,,7,,,58,50
6144,note_on,,,,,0,0,8,,,,,7,,,62,50
6144,note_on,,,,,0,0,8,,,,,7,,,67,50
6144,note_on,,,,,4,0,1,,,,,0,,,71,63
6144,note_on,,,,,4,0,9,,,,,8,,,43,50
6144,note_on,,,,,4,0,3,,,,,2,,,71,108
6144,note_on,,,,,4,0,6,,,,,5,,,43,92
6144,note_on,,,,,4,0,2,,,,,1,,,71,63
6144,note_on,,,,,64,0,5,,,,,4,,,62,92
6144,note_on,,,,,4,0,7,,,,,6,,,31,75
6332,note_off,,,,,188,0,3,,,,,2,,,71,0
6332,note_off,,,,,188,0,2,,,,,1,,,71,0
6332,note_off,,,,,188,0,1,,,,,0,,,71,0
6332,note_off,,,,,188,0,9,,,,,8,,,43,0
6332,note_off,,,,,188,0,6,,,,,5,,,43,0
6332,note_off,,,,,188,0,7,,,,,6,,,31,0
6336,note_on,,,,,4,0,9,,,,,8,,,55,50
6336,note_on,,,,,4,0,2,,,,,1,,,79,63
6336,note_on,,,,,4,0,3,,,,,2,,,79,108
6336,note_on,,,,,4,0,7,,,,,6,,,43,75
6336,note_on,,,,,4,0,6,,,,,5,,,55,92
6336,note_on,,,,,4,0,1,,,,,0,,,79,63
6464,note_off,,,,,0,0,8,,,,,7,,,62,0
6464,note_off,,,,,320,0,8,,,,,7,,,58,0
6464,note_off,,,,,0,0,8,,,,,7,,,67,0
6464,note_off,,,,,320,0,4,,,,,3,,,67,0
6464,note_off,,,,,320,0,5,,,,,4,,,62,0
6524,note_off,,,,,188,0,7,,,,,6,,,43,0
6524,note_off,,,,,188,0,9,,,,,8,,,55,0
6524,note_off,,,,,188,0,1,,,,,0,,,79,0
6524,note_off,,,,,188,0,6,,,,,5,,,55,0
6524,note_off,,,,,188,0,2,,,,,1,,,79,0
6524,note_off,,,,,188,0,3,,,,,2,,,79,0
6528,note_on,,,,,4,0,6,,,,,5,,,56,92
6528,note_on,,,,,4,0,2,,,,,1,,,72,63
6528,note_on,,,,,0,0,8,,,,,7,,,63,50
6528,note_on,,,,,64,0,8,,,,,7,,,60,50
6528,note_on,,,,,64,0,4,,,,,3,,,63,127
6528,note_on,,,,,4,0,3,,,,,2,,,72,108
6528,note_on,,,,,4,0,7,,,,,6,,,44,75
6528,note_on,,,,,64,0,5,,,,,4,,,60,92
6528,note_on,,,,,4,0,1,,,,,0,,,72,63
6528,note_on,,,,,4,0,9,,,,,8,,,56,50
6716,note_off,,,,,188,0,4,,,,,3,,,63,0
6716,note_off,,,,,188,0,3,,,,,2,,,72,0
6716,note_off,,,,,188,0,6,,,,,5,,,56,0
6716,note_off,,,,,0,0,8,,,,,7,,,63,0
6716,note_off,,,,,188,0,8,,,,,7,,,60,0
6716,note_off,,,,,188,0,5,,,,,4,,,60,0
6716,note_off,,,,,188,0,1,,,,,0,,,72,0
6716,note_off,,,,,188,0,2,,,,,1,,,72,0
6716,note_off,,,,,188,0,7,,,,,6,,,44,0
6716,note_off,,,,,188,0,9,,,,,8,,,56,0
6720,note_on,,,,,4,0,9,,,,,8,,,53,50
6720,note_on,,,,,4,0,3,,,,,2,,,80,108
6720,note_on,,,,,4,0,7,,,,,6,,,41,75
6720,note_on,,,,,4,0,4,,,,,3,,,65,127
6720,note_on,,,,,4,0,8,,,,,7,,,62,50
6720,note_on,,,,,4,0,5,,,,,4,,,62,92
6720,note_on,,,,,4,0,6,,,,,5,,,53,92
6720,note_on,,,,,4,0,1,,,,,0,,,80,63
6720,note_on,,,,,0,0,8,,,,,7,,,65,50
6720,note_on,,,,,4,0,2,,,,,1,,,80,63
6812,note_off,,,,,92,0,3,,,,,2,,,80,0
6812,note_off,,,,,92,0,2,,,,,1,,,80,0
6812,note_off,,,,,92,0,1,,,,,0,,,80,0
6816,note_on,,,,,4,0,1,,,,,0,,,79,63
6816,note_on,,,,,4,0,3,,,,,2,,,79,108
6816,note_on,,,,,4,0,2,,,,,1,,,79,63
6908,note_off,,,,,0,0,8,,,,,7,,,65,0
6908,note_off,,,,,92,0,1,,,,,0,,,79,0
6908,note_off,,,,,92,0,3,,,,,2,,,79,0
6908,note_off,,,,,188,0,7,,,,,6,,,41,0
6908,note_off,,,,,188,0,9,,,,,8,,,53,0
6908,note_off,,,,,188,0,8,,,,,7,,,62,0
6908,note_off,,,,,188,0,5,,,,,4,,,62,0
6908,note_off,,,,,188,0,4,,,,,3,,,65,0
6908,note_off,,,,,92,0,2,,,,,1,,,79,0
6908,note_off,,,,,188,0,6,,,,,5,,,53,0
6912,note_on,,,,,4,0,8,,,,,7,,,59,50
6912,note_on,,,,,4,0,2,,,,,1,,,77,63
6912,note_on,,,,,4,0,1,,,,,0,,,77,63
6912,note_on,,,,,4,0,3,,,,,2,,,77,108
6912,note_on,,,,,4,0,7,,,,,6,,,43,75
6912,note_on,,,,,0,0,8,,,,,7,,,62,50
6912,note_on,,,,,4,0,9,,,,,8,,,55,50
6912,note_on,,,,,4,0,6,,,,,5,,,55,92
7004,note_off,,,,,92,0,1,,,,,0,,,77,0
7004,note_off,,,,,92,0,2,,,,,1,,,77,0
7004,note_off,,,,,92,0,3,,,,,2,,,77,0
7008,note_on,,,,,4,0,1,,,,,0,,,75,63
7008,note_on,,,,,4,0,3,,,,,2,,,75,108
7008,note_on,,,,,4,0,2,,,,,1,,,75,63
7100,note_off,,,,,188,0,8,,,,,7,,,59,0
7100,note_off,,,,,92,0,2,,,,,1,,,75,0
7100,note_off,,,,,92,0,1,,,,,0,,,75,0
7100,note_off,,,,,188,0,9,,,,,8,,,55,0
7100,note_off,,,,,92,0,3,,,,,2,,,75,0
7100,note_off,,,,,188,0,7,,,,,6,,,43,0
7100,note_off,,,,,188,0,6,,,,,5,,,55,0
7104,note_on,,,,,4,0,8,,,,,7,,,60,50
7104,note_on,,,,,196,0,4,,,,,3,,,65,127
7104,note_on,,,,,4,0,3,,,,,2,,,74,108
7104,note_on,,,,,4,0,9,,,,,8,,,56,50
7104,note_on,,,,,4,0,6,,,,,5,,,56,92
7104,note_on,,,,,4,0,1,,,,,0,,,74,63
7104,note_on,,,,,4,0,2,,,,,1,,,74,63
7104,note_on,,,,,4,0,7,,,,,6,,,44,75
7104,note_on,,,,,196,0,5,,,,,4,,,62,92
7196,note_off,,,,,92,0,2,,,,,1,,,74,0
7196,note_off,,,,,92,0,1,,,,,0,,,74,0
7196,note_off,,,,,92,0,3,,,,,2,,,74,0
7200,note_on,,,,,4,0,2,,,,,1,,,72,63
7200,note_on,,,,,4,0,1,,,,,0,,,72,63
7200,note_on,,,,,4,0,3,,,,,2,,,72,108
7232,note_off,,,,,128,0,8,,,,,7,,,62,0
7292,note_off,,,,,188,0,5,,,,,4,,,62,0
7292,note_off,,,,,188,0,9,,,,,8,,,56,0
7292,note_off,,,,,92,0,1,,,,,0,,,72,0
7292,note_off,,,,,92,0,2,,,,,1,,,72,0
7292,note_off,,,,,188,0,4,,,,,3,,,65,0
7292,note_off,,,,,92,0,3,,,,,2,,,72,0
7292,note_off,,,,,188,0,6,,,,,5,,,56,0
7292,note_off,,,,,60,0,8,,,,,7,,,60,0
7292,note_off,,,,,188,0,7,,,,,6,,,44,0
7296,note_on,,,,,4,0,3,,,,,2,,,71,108
7296,note_on,,,,,4,0,2,,,,,1,,,71,63
7296,note_on,,,,,4,0,9,,,,,8,,,55,50
7296,note_on,,,,,0,0,8,,,,,7,,,62,50
7296,note_on,,,,,4,0,8,,,,,7,,,59,50
7296,note_on,,,,,0,0,8,,,,,7,,,67,50
7296,note_on,,,,,4,0,5,,,,,4,,,62,92
7296,note_on,,,,,4,0,7,,,,,6,,,43,75
7296,note_on,,,,,4,0,4,,,,,3,,,67,127
7296,note_on,,,,,4,0,6,,,,,5,,,55,92
7296,note_on,,,,,4,0,1,,,,,0,,,71,63
7484,note_off,,,,,188,0,7,,,,,6,,,43,0
7484,note_off,,,,,188,0,6,,,,,5,,,55,0
7484,note_off,,,,,188,0,9,,,,,8,,,55,0
7488,note_on,,,,,4,0,9,,,,,8,,,50,50
7488,note_on,,,,,4,0,6,,,,,5,,,50,92
7488,note_on,,,,,4,0,7,,,,,6,,,38,75
7580,note_off,,,,,92,0,9,,,,,8,,,50,0
7580,note_off,,,,,92,0,7,,,,,6,,,38,0
7580,note_off,,,,,92,0,6,,,,,5,,,50,0
7584,note_on,,,,,4,0,9,,,,,8,,,48,50
7584,note_on,,,,,4,0,7,,,,,6,,,36,75
7584,note_on,,,,,4,0,6,,,,,5,,,48,92
7616,note_off,,,,,320,0,1,,,,,0,,,71,0
7616,note_off,,,,,320,0,3,,,,,2,,,71,0
7616,note_off,,,,,320,0,2,,,,,1,,,71,0
7616,note_off,,,,,0,0,8,,,,,7,,,62,0
7616,note_off,,,,,320,0,8,,,,,7,,,59,0
7616,note_off,,,,,0,0,8,,,,,7,,,67,0
7616,note_off,,,,,320,0,5,,,,,4,,,62,0
7616,note_off,,,,,320,0,4,,,,,3,,,67,0
7676,note_off,,,,,92,0,9,,,,,8,,,48,0
7676,note_off,,,,,92,0,7,,,,,6,,,36,0
7676,note_off,,,,,92,0,6,,,,,5,,,48,0
7680,note_on,,,,,4,0,9,,,,,8,,,47,50
7680,note_on,,,,,64,0,8,,,,,7,,,62,50
7680,note_on,,,,,0,0,8,,,,,7,,,67,50
7680,note_on,,,,,4,0,6,,,,,5,,,47,92
7680,note_on,,,,,4,0,7,,,,,6,,,35,75
7776,note_on,,,,,160,0,3,,,,,2,,,74,108
7776,note_on,,,,,160,0,1,,,,,0,,,74,63
7776,note_on,,,,,160,0,2,,,,,1,,,74,63
7868,note_off,,,,,188,0,6,,,,,5,,,47,0
7868,note_off,,,,,92,0,1,,,,,0,,,74,0
7868,note_off,,,,,92,0,2,,,,,1,,,74,0
7868,note_off,,,,,188,0,7,,,,,6,,,35,0
7868,note_off,,,,,92,0,3,,,,,2,,,74,0
7868,note_off,,,,,0,0,8,,,,,7,,,67,0
7868,note_off,,,,,188,0,9,,,,,8,,,47,0
7868,note_off,,,,,188,0,8,,,,,7,,,62,0
7872,note_on,,,,,256,0,5,,,,,4,,,65,92
7872,note_on,,,,,4,0,9,,,,,8,,,45,50
7872,note_on,,,,,4,0,2,,,,,1,,,72,63
7872,note_on,,,,,4,0,7,,,,,6,,,33,75
7872,note_on,,,,,4,0,6,,,,,5,,,45,92
7872,note_on,,,,,256,0,4,,,,,3,,,60,127
7872,note_on,,,,,4,0,3,,,,,2,,,72,108
7872,note_on,,,,,0,0,8,,,,,7,,,69,50
7872,note_on,,,,,0,0,8,,,,,7,,,66,50
7872,note_on,,,,,4,0,8,,,,,7,,,60,50
7872,note_on,,,,,4,0,1,,,,,0,,,72,63
7964,note_off,,,,,92,0,9,,,,,8,,,45,0
7964,note_off,,,,,92,0,1,,,,,0,,,72,0
7964,note_off,,,,,92,0,6,,,,,5,,,45,0
7964,note_off,,,,,92,0,2,,,,,1,,,72,0
7964,note_off,,,,,92,0,7,,,,,6,,,33,0
7964,note_off,,,,,92,0,3,,,,,2,,,72,0
7968,note_on,,,,,4,0,3,,,,,2,,,74,108
7968,note_on,,,,,4,0,2,,,,,1,,,74,63
7968,note_on,,,,,4,0,7,,,,,6,,,35,75
7968,note_on,,,,,4,0,1,,,,,0,,,74,63
7968,note_on,,,,,4,0,9,,,,,8,,,47,50
7968,note_on,,,,,4,0,6,,,,,5,,,47,92
8060,note_off,,,,,0,0,8,,,,,7,,,69,0
8060,note_off,,,,,0,0,8,,,,,7,,,66,0
8060,note_off,,,,,92,0,6,,,,,5,,,47,0
8060,note_off,,,,,92,0,7,,,,,6,,,35,0
8060,note_off,,,,,188,0,4,,,,,3,,,60,0
8060,note_off,,,,,188,0,5,,,,,4,,,65,0
8060,note_off,,,,,92,0,1,,,,,0,,,74,0
8060,note_off,,,,,92,0,2,,,,,1,,,74,0
8060,note_off,,,,,92,0,9,,,,,8,,,47,0
8060,note_off,,,,,92,0,3,,,,,2,,,74,0
8060,note_off,,,,,188,0,8,,,,,7,,,60,0
8064,note_on,,,,,4,0,1,,,,,0,,,71,63
8064,note_on,,,,,4,0,5,,,,,4,,,67,92
8064,note_on,,,,,4,0,4,,,,,3,,,62,127
8064,note_on,,,,,4,0,2,,,,,1,,,71,63
8064,note_on,,,,,4,0,3,,,,,2,,,71,108
8064,note_on,,,,,4,0,6,,,,,5,,,43,92
8064,note_on,,,,,4,0,7,,,,,6,,,31,75
8064,note_on,,,,,4,0,9,,,,,8,,,43,50
8064,note_on,,,,,0,0,8,,,,,7,,,67,50
8064,note_on,,,,,4,0,8,,,,,7,,,62,50
8064,note_on,,,,,0,0,8,,,,,7,,,71,50
8156,note_off,,,,,92,0,1,,,,,0,,,71,0
8156,note_off,,,,,92,0,2,,,,,1,,,71,0
8156,note_off,,,,,92,0,3,,,,,2,,,71,0
8160,note_on,,,,,4,0,2,,,,,1,,,67,63
8160,note_on,,,,,4,0,3,,,,,2,,,67,108
8160,note_on,,,,,4,0,1,,,,,0,,,67,63
8252,note_off,,,,,92,0,1,,,,,0,,,67,0
8252,note_off,,,,,92,0,3,,,,,2,,,67,0
8252,note_off,,,,,92,0,2,,,,,1,,,67,0
8256,note_on,,,,,4,0,1,,,,,0,,,71,63
8256,note_on,,,,,4,0,3,,,,,2,,,71,108
8256,note_on,,,,,4,0,2,,,,,1,,,71,63
8348,note_off,,,,,92,0,3,,,,,2,,,71,0
8348,note_off,,,,,92,0,1,,,,,0,,,71,0
8348,note_off,,,,,92,0,2,,,,,1,,,71,0
8352,note_on,,,,,4,0,2,,,,,1,,,74,63
8352,note_on,,,,,4,0,1,,,,,0,,,74,63
8352,note_on,,,,,4,0,3,,,,,2,,,74,108
8384,note_off,,,,,320,0,8,,,,,7,,,62,0
8384,note_off,,,,,0,0,8,,,,,7,,,71,0
8384,note_off,,,,,320,0,7,,,,,6,,,31,0
8384,note_off,,,,,0,0,8,,,,,7,,,67,0
8384,note_off,,,,,320,0,6,,,,,5,,,43,0
8384,note_off,,,,,320,0,5,,,,,4,,,67,0
8384,note_off,,,,,320,0,4,,,,,3,,,62,0
8384,note_off,,,,,320,0,9,,,,,8,,,43,0
8444,note_off,,,,,92,0,1,,,,,0,,,74,0
8444,note_off,,,,,92,0,2,,,,,1,,,74,0
8444,note_off,,,,,92,0,3,,,,,2,,,74,0
8448,note_on,,,,,4,0,2,,,,,1,,,79,63
8448,note_on,,,,,4,0,3,,,,,2,,,79,108
8448,note_on,,,,,4,0,1,,,,,0,,,79,63
8540,note_off,,,,,92,0,1,,,,,0,,,79,0
8540,note_off,,,,,92,0,3,,,,,2,,,79,0
8540,note_off,,,,,92,0,2,,,,,1,,,79,0
8544,note_on,,,,,4,0,2,,,,,1,,,74,63
8544,note_on,,,,,4,0,1,,,,,0,,,74,63
8544,note_on,,,,,4,0,3,,,,,2,,,74,108
8636,note_off,,,,,92,0,2,,,,,1,,,74,0
8636,note_off,,,,,92,0,3,,,,,2,,,74,0
8636,note_off,,,,,92,0,1,,,,,0,,,74,0
8640,note_on,,,,,4,0,1,,,,,0,,,75,63
8640,note_on,,,,,256,0,6,,,,,5,,,55,92
8640,note_on,,,,,256,0,5,,,,,4,,,67,92
8640,note_on,,,,,256,0,4,,,,,3,,,71,127
8640,note_on,,,,,256,0,9,,,,,8,,,55,50
8640,note_on,,,,,4,0,3,,,,,2,,,75,108
8640,note_on,,,,,256,0,7,,,,,6,,,43,75
8640,note_on,,,,,0,0,8,,,,,7,,,67,50
8640,note_on,,,,,0,0,8,,,,,7,,,71,50
8640,note_on,,,,,4,0,2,,,,,1,,,75,63
8640,note_on,,,,,256,0,8,,,,,7,,,62,50
8732,note_off,,,,,92,0,3,,,,,2,,,75,0
8732,note_off,,,,,92,0,2,,,,,1,,,75,0
8732,note_off,,,,,92,0,1,,,,,0,,,75,0
8736,note_on,,,,,4,0,2,,,,,1,,,77,63
8736,note_on,,,,,4,0,1,,,,,0,,,77,63
8736,note_on,,,,,4,0,3,,,,,2,,,77,108
8828,note_off,,,,,188,0,8,,,,,7,,,62,0
8828,note_off,,,,,188,0,5,,,,,4,,,67,0
8828,note_off,,,,,188,0,7,,,,,6,,,43,0
8828,note_off,,,,,188,0,9,,,,,8,,,55,0
8828,note_off,,,,,188,0,6,,,,,5,,,55,0
8828,note_off,,,,,188,0,4,,,,,3,,,71,0
8828,note_off,,,,,92,0,2,,,,,1,,,77,0
8828,note_off,,,,,0,0,8,,,,,7,,,67,0
8828,note_off,,,,,92,0,1,,,,,0,,,77,0
8828,note_off,,,,,92,0,3,,,,,2,,,77,0
8828,note_off,,,,,0,0,8,,,,,7,,,71,0
8832,note_on,,,,,4,0,1,,,,,0,,,75,63
8832,note_on,,,,,4,0,5,,,,,4,,,67,92
8832,note_on,,,,,4,0,6,,,,,5,,,60,92
8832,note_on,,,,,4,0,3,,,,,2,,,75,108
8832,note_on,,,,,0,0,8,,,,,7,,,67,50
8832,note_on,,,,,4,0,2,,,,,1,,,75,63
8832,note_on,,,,,4,0,8,,,,,7,,,63,50
8832,note_on,,,,,0,0,8,,,,,7,,,72,50
8832,note_on,,,,,4,0,4,,,,,3,,,72,127
8832,note_on,,,,,4,0,7,,,,,6,,,48,75
8832,note_on,,,,,4,0,9,,,,,8,,,60,50
9020,note_off,,,,,188,0,6,,,,,5,,,60,0
9020,note_off,,,,,188,0,9,,,,,8,,,60,0
9020,note_off,,,,,188,0,7,,,,,6,,,48,0
9024,note_on,,,,,4,0,6,,,,,5,,,55,92
9024,note_on,,,,,4,0,7,,,,,6,,,43,75
9024,note_on,,,,,4,0,9,,,,,8,,,55,50
9116,note_off,,,,,92,0,6,,,,,5,,,55,0
9116,note_off,,,,,92,0,9,,,,,8,,,55,0
9116,note_off,,,,,92,0,7,,,,,6,,,43,0
9120,note_on,,,,,4,0,9,,,,,8,,,53,50
9120,note_on,,,,,4,0,7,,,,,6,,,41,75
9120,note_on,,,,,4,0,6,,,,,5,,,53,92
9152,note_off,,,,,320,0,8,,,,,7,,,63,0
9152,note_off,,,,,0,0,8,,,,,7,,,67,0
9152,note_off,,,,,320,0,1,,,,,0,,,75,0
9152,note_off,,,,,320,0,4,,,,,3,,,72,0
9152,note_off,,,,,320,0,5,,,,,4,,,67,0
9152,note_off,,,,,320,0,2,,,,,1,,,75,0
9152,note_off,,,,,320,0,3,,,,,2,,,75,0
9152,note_off,,,,,0,0,8,,,,,7,,,72,0
9212,note_off,,,,,92,0,9,,,,,8,,,53,0
9212,note_off,,,,,92,0,7,,,,,6,,,41,0
9212,note_off,,,,,92,0,6,,,,,5,,,53,0
9216,note_on,,,,,4,0,7,,,,,6,,,39,75
9216,note_on,,,,,4,0,9,,,,,8,,,51,50
9216,note_on,,,,,4,0,6,,,,,5,,,51,92
9216,note_on,,,,,64,0,8,,,,,7,,,60,50
9216,note_on,,,,,0,0,8,,,,,7,,,67,50
9312,note_on,,,,,160,0,3,,,,,2,,,79,108
9312,note_on,,,,,160,0,2,,,,,1,,,79,63
9312,note_on,,,,,160,0,1,,,,,0,,,79,63
9404,note_off,,,,,92,0,1,,,,,0,,,79,0
9404,note_off,,,,,0,0,8,,,,,7,,,67,0
9404,note_off,,,,,188,0,8,,,,,7,,,60,0
9404,note_off,,,,,92,0,3,,,,,2,,,79,0
9404,note_off,,,,,188,0,7,,,,,6,,,39,0
9404,note_off,,,,,188,0,9,,,,,8,,,51,0
9404,note_off,,,,,92,0,2,,,,,1,,,79,0
9404,note_off,,,,,188,0,6,,,,,5,,,51,0
9408,note_on,,,,,4,0,7,,,,,6,,,38,75
9408,note_on,,,,,0,0,8,,,,,7,,,71,50
9408,note_on,,,,,0,0,8,,,,,7,,,65,50
9408,note_on,,,,,4,0,1,,,,,0,,,77,63
9408,note_on,,,,,4,0,9,,,,,8,,,50,50
9408,note_on,,,,,4,0,6,,,,,5,,,50,92
9408,note_on,,,,,4,0,2,,,,,1,,,77,63
9408,note_on,,,,,4,0,8,,,,,7,,,62,50
9408,note_on,,,,,256,0,4,,,,,3,,,65,127
9408,note_on,,,,,4,0,3,,,,,2,,,77,108
9408,note_on,,,,,256,0,5,,,,,4,,,71,92
9500,note_off,,,,,92,0,1,,,,,0,,,77,0
9500,note_off,,,,,92,0,3,,,,,2,,,77,0
9500,note_off,,,,,92,0,2,,,,,1,,,77,0
9500,note_off,,,,,92,0,7,,,,,6,,,38,0
9500,note_off,,,,,92,0,9,,,,,8,,,50,0
9500,note_off,,,,,92,0,6,,,,,5,,,50,0
9504,note_on,,,,,4,0,6,,,,,5,,,51,92
9504,note_on,,,,,4,0,3,,,,,2,,,79,108
9504,note_on,,,,,4,0,7,,,,,6,,,39,75
9504,note_on,,,,,4,0,1,,,,,0,,,79,63
9504,note_on,,,,,4,0,9,,,,,8,,,51,50
9504,note_on,,,,,4,0,2,,,,,1,,,79,63
9596,note_off,,,,,0,0,8,,,,,7,,,71,0
9596,note_off,,,,,92,0,3,,,,,2,,,79,0
9596,note_off,,,,,92,0,1,,,,,0,,,79,0
9596,note_off,,,,,92,0,6,,,,,5,,,51,0
9596,note_off,,,,,0,0,8,,,,,7,,,65,0
9596,note_off,,,,,188,0,5,,,,,4,,,71,0
9596,note_off,,,,,188,0,4,,,,,3,,,65,0
9596,note_off,,,,,92,0,7,,,,,6,,,39,0
9596,note_off,,,,,92,0,9,,,,,8,,,51,0
9596,note_off,,,,,92,0,2,,,,,1,,,79,0
9596,note_off,,,,,188,0,8,,,,,7,,,62,0
9600,note_on,,,,,4,0,5,,,,,4,,,72,92
9600,note_on,,,,,4,0,1,,,,,0,,,75,63
9600,note_on,,,,,4,0,6,,,,,5,,,48,92
9600,note_on,,,,,4,0,3,,,,,2,,,75,108
9600,note_on,,,,,4,0,4,,,,,3,,,67,127
9600,note_on,,,,,0,0,8,,,,,7,,,72,50
9600,note_on,,,,,4,0,8,,,,,7,,,63,50
9600,note_on,,,,,0,0,8,,,,,7,,,67,50
9600,note_on,,,,,4,0,9,,,,,8,,,48,50
9600,note_on,,,,,4,0,7,,,,,6,,,36,75
9600,note_on,,,,,4,0,2,,,,,1,,,75,63
9692,note_off,,,,,92,0,3,,,,,2,,,75,0
9692,note_off,,,,,92,0,2,,,,,1,,,75,0
9692,note_off,,,,,92,0,1,,,,,0,,,75,0
9696,note_on,,,,,4,0,3,,,,,2,,,72,108
9696,note_on,,,,,4,0,2,,,,,1,,,72,63
9696,note_on,,,,,4,0,1,,,,,0,,,72,63
9788,note_off,,,,,92,0,1,,,,,0,,,72,0
9788,note_off,,,,,92,0,3,,,,,2,,,72,0
9788,note_off,,,,,92,0,2,,,,,1,,,72,0
9792,note_on,,,,,4,0,1,,,,,0,,,75,63
9792,note_on,,,,,4,0,2,,,,,1,,,75,63
9792,note_on,,,,,4,0,3,,,,,2,,,75,108
9884,note_off,,,,,92,0,3,,,,,2,,,75,0
9884,note_off,,,,,92,0,1,,,,,0,,,75,0
9884,note_off,,,,,92,0,2,,,,,1,,,75,0
9888,note_on,,,,,4,0,1,,,,,0,,,79,63
9888,note_on,,,,,4,0,3,,,,,2,,,79,108
9888,note_on,,,,,4,0,2,,,,,1,,,79,63
9920,note_off,,,,,320,0,7,,,,,6,,,36,0
9920,note_off,,,,,0,0,8,,,,,7,,,67,0
9920,note_off,,,,,320,0,4,,,,,3,,,67,0
9920,note_off,,,,,320,0,6,,,,,5,,,48,0
9920,note_off,,,,,320,0,5,,,,,4,,,72,0
9920,note_off,,,,,320,0,9,,,,,8,,,48,0
9920,note_off,,,,,320,0,8,,,,,7,,,63,0
9920,note_off,,,,,0,0,8,,,,,7,,,72,0
9980,note_off,,,,,92,0,3,,,,,2,,,79,0
9980,note_off,,,,,92,0,2,,,,,1,,,79,0
9980,note_off,,,,,92,0,1,,,,,0,,,79,0
9984,note_on,,,,,4,0,3,,,,,2,,,84,108
9984,note_on,,,,,4,0,1,,,,,0,,,84,63
9984,note_on,,,,,4,0,2,,,,,1,,,84,63
10076,note_off,,,,,92,0,1,,,,,0,,,84,0
10076,note_off,,,,,92,0,2,,,,,1,,,84,0
10076,note_off,,,,,92,0,3,,,,,2,,,84,0
10080,note_on,,,,,4,0,1,,,,,0,,,79,63
10080,note_on,,,,,4,0,3,,,,,2,,,79,108
10080,note_on,,,,,4,0,2,,,,,1,,,79,63
10172,note_off,,,,,92,0,2,,,,,1,,,79,0
10172,note_off,,,,,92,0,3,,,,,2,,,79,0
10172,note_off,,,,,92,0,1,,,,,0,,,79,0
10176,note_on,,,,,4,0,3,,,,,2,,,80,108
10176,note_on,,,,,0,0,8,,,,,7,,,72,50
10176,note_on,,,,,256,0,9,,,,,8,,,60,50
10176,note_on,,,,,256,0,5,,,,,4,,,72,92
10176,note_on,,,,,0,0,8,,,,,7,,,67,50
10176,note_on,,,,,4,0,1,,,,,0,,,80,63
10176,note_on,,,,,256,0,6,,,,,5,,,60,92
10176,note_on,,,,,256,0,4,,,,,3,,,76,127
10176,note_on,,,,,4,0,2,,,,,1,,,80,63
10176,note_on,,,,,256,0,8,,,,,7,,,64,50
10176,note_on,,,,,256,0,7,,,,,6,,,48,75
10268,note_off,,,,,92,0,1,,,,,0,,,80,0
10268,note_off,,,,,92,0,3,,,,,2,,,80,0
10268,note_off,,,,,92,0,2,,,,,1,,,80,0
10272,note_on,,,,,4,0,1,,,,,0,,,82,63
10272,note_on,,,,,4,0,2,,,,,1,,,82,63
10272,note_on,,,,,4,0,3,,,,,2,,,82,108
10364,note_off,,,,,188,0,7,,,,,6,,,48,0
10364,note_off,,,,,92,0,2,,,,,1,,,82,0
10364,note_off,,,,,188,0,9,,,,,8,,,60,0
10364,note_off,,,,,188,0,5,,,,,4,,,72,0
10364,note_off,,,,,92,0,3,,,,,2,,,82,0
10364,note_off,,,,,0,0,8,,,,,7,,,67,0
10364,note_off,,,,,188,0,4,,,,,3,,,76,0
10364,note_off,,,,,0,0,8,,,,,7,,,72,0
10364,note_off,,,,,188,0,8,,,,,7,,,64,0
10364,note_off,,,,,92,0,1,,,,,0,,,82,0
10364,note_off,,,,,188,0,6,,,,,5,,,60,0
10368,note_on,,,,,4,0,1,,,,,0,,,80,63
10368,note_on,,,,,4,0,4,,,,,3,,,77,127
10368,note_on,,,,,4,0,9,,,,,8,,,65,50
10368,note_on,,,,,4,0,2,,,,,1,,,80,63
10368,note_on,,,,,0,0,8,,,,,7,,,72,50
10368,note_on,,,,,0,0,8,,,,,7,,,68,50
10368,note_on,,,,,4,0,8,,,,,7,,,65,50
10368,note_on,,,,,4,0,7,,,,,6,,,53,75
10368,note_on,,,,,4,0,3,,,,,2,,,80,108
10368,note_on,,,,,4,0,6,,,,,5,,,65,92
10368,note_on,,,,,4,0,5,,,,,4,,,72,92
10556,note_off,,,,,188,0,9,,,,,8,,,65,0
10556,note_off,,,,,188,0,7,,,,,6,,,53,0
10556,note_off,,,,,188,0,6,,,,,5,,,65,0
10560,note_on,,,,,4,0,6,,,,,5,,,60,92
10560,note_on,,,,,4,0,7,,,,,6,,,48,75
10560,note_on,,,,,4,0,9,,,,,8,,,60,50
10652,note_off,,,,,92,0,6,,,,,5,,,60,0
10652,note_off,,,,,92,0,7,,,,,6,,,48,0
10652,note_off,,,,,92,0,9,,,,,8,,,60,0
10656,note_on,,,,,4,0,7,,,,,6,,,46,75
10656,note_on,,,,,4,0,9,,,,,8,,,58,50
10656,note_on,,,,,4,0,6,,,,,5,,,58,92
10688,note_off,,,,,0,0,8,,,,,7,,,68,0
10688,note_off,,,,,320,0,2,,,,,1,,,80,0
10688,note_off,,,,,0,0,8,,,,,7,,,72,0
10688,note_off,,,,,320,0,4,,,,,3,,,77,0
10688,note_off,,,,,320,0,1,,,,,0,,,80,0
10688,note_off,,,,,320,0,8,,,,,7,,,65,0
10688,note_off,,,,,320,0,5,,,,,4,,,72,0
10688,note_off,,,,,320,0,3,,,,,2,,,80,0
10748,note_off,,,,,92,0,7,,,,,6,,,46,0
10748,note_off,,,,,92,0,6,,,,,5,,,58,0
10748,note_off,,,,,92,0,9,,,,,8,,,58,0
10752,note_on,,,,,64,0,8,,,,,7,,,60,50
10752,note_on,,,,,0,0,8,,,,,7,,,65,50
10752,note_on,,,,,4,0,6,,,,,5,,,56,92
10752,note_on,,,,,4,0,7,,,,,6,,,44,75
10752,note_on,,,,,4,0,9,,,,,8,,,56,50
10848,note_on,,,,,160,0,2,,,,,1,,,72,63
10848,note_on,,,,,160,0,3,,,,,2,,,72,108
10848,note_on,,,,,160,0,1,,,,,0,,,72,63
10940,note_off,,,,,188,0,6,,,,,5,,,56,0
10940,note_off,,,,,188,0,7,,,,,6,,,44,0
10940,note_off,,,,,92,0,1,,,,,0,,,72,0
10940,note_off,,,,,0,0,8,,,,,7,,,65,0
10940,note_off,,,,,92,0,2,,,,,1,,,72,0
10940,note_off,,,,,92,0,3,,,,,2,,,72,0
10940,note_off,,,,,188,0,8,,,,,7,,,60,0
10940,note_off,,,,,188,0,9,,,,,8,,,56,0
10944,note_on,,,,,4,0,8,,,,,7,,,58,50
10944,note_on,,,,,4,0,1,,,,,0,,,70,63
10944,note_on,,,,,256,0,4,,,,,3,,,64,127
10944,note_on,,,,,4,0,7,,,,,6,,,43,75
10944,note_on,,,,,4,0,6,,,,,5,,,55,92
10944,note_on,,,,,0,0,8,,,,,7,,,64,50
10944,note_on,,,,,4,0,2,,,,,1,,,70,63
10944,note_on,,,,,4,0,3,,,,,2,,,70,108
10944,note_on,,,,,0,0,8,,,,,7,,,67,50
10944,note_on,,,,,256,0,5,,,,,4,,,58,92
10944,note_on,,,,,4,0,9,,,,,8,,,55,50
11036,note_off,,,,,92,0,2,,,,,1,,,70,0
11036,note_off,,,,,92,0,3,,,,,2,,,70,0
11036,note_off,,,,,92,0,7,,,,,6,,,43,0
11036,note_off,,,,,92,0,9,,,,,8,,,55,0
11036,note_off,,,,,92,0,6,,,,,5,,,55,0
11036,note_off,,,,,92,0,1,,,,,0,,,70,0
11040,note_on,,,,,4,0,2,,,,,1,,,72,63
11040,note_on,,,,,4,0,6,,,,,5,,,56,92
11040,note_on,,,,,4,0,1,,,,,0,,,72,63
11040,note_on,,,,,4,0,3,,,,,2,,,72,108
11040,note_on,,,,,4,0,9,,,,,8,,,56,50
11040,note_on,,,,,4,0,7,,,,,6,,,44,75
11132,note_off,,,,,92,0,9,,,,,8,,,56,0
11132,note_off,,,,,92,0,1,,,,,0,,,72,0
11132,note_off,,,,,92,0,7,,,,,6,,,44,0
11132,note_off,,,,,188,0,4,,,,,3,,,64,0
11132,note_off,,,,,92,0,3,,,,,2,,,72,0
11132,note_off,,,,,188,0,8,,,,,7,,,58,0
11132,note_off,,,,,0,0,8,,,,,7,,,64,0
11132,note_off,,,,,0,0,8,,,,,7,,,67,0
11132,note_off,,,,,92,0,6,,,,,5,,,56,0
11132,note_off,,,,,188,0,5,,,,,4,,,58,0
11132,note_off,,,,,92,0,2,,,,,1,,,72,0
11136,note_on,,,,,4,0,9,,,,,8,,,53,50
11136,note_on,,,,,4,0,8,,,,,7,,,60,50
11136,note_on,,,,,4,0,5,,,,,4,,,60,92
11136,note_on,,,,,0,0,8,,,,,7,,,65,50
11136,note_on,,,,,0,0,8,,,,,7,,,68,50
11136,note_on,,,,,4,0,3,,,,,2,,,68,108
11136,note_on,,,,,4,0,1,,,,,0,,,68,63
11136,note_on,,,,,4,0,2,,,,,1,,,68,63
11136,note_on,,,,,4,0,7,,,,,6,,,41,75
11136,note_on,,,,,4,0,6,,,,,5,,,53,92
11136,note_on,,,,,4,0,4,,,,,3,,,65,127
11228,note_off,,,,,92,0,1,,,,,0,,,68,0
11228,note_off,,,,,92,0,3,,,,,2,,,68,0
11228,note_off,,,,,92,0,2,,,,,1,,,68,0
11232,note_on,,,,,4,0,2,,,,,1,,,65,63
11232,note_on,,,,,4,0,1,,,,,0,,,65,63
11232,note_on,,,,,4,0,3,,,,,2,,,65,108
11324,note_off,,,,,92,0,1,,,,,0,,,65,0
11324,note_off,,,,,92,0,3,,,,,2,,,65,0
11324,note_off,,,,,92,0,2,,,,,1,,,65,0
11328,note_on,,,,,4,0,2,,,,,1,,,68,63
11328,note_on,,,,,4,0,1,,,,,0,,,68,63
11328,note_on,,,,,4,0,3,,,,,2,,,68,108
11420,note_off,,,,,92,0,1,,,,,0,,,68,0
11420,note_off,,,,,92,0,3,,,,,2,,,68,0
11420,note_off,,,,,92,0,2,,,,,1,,,68,0
11424,note_on,,,,,4,0,3,,,,,2,,,72,108
11424,note_on,,,,,4,0,2,,,,,1,,,72,63
11424,note_on,,,,,4,0,1,,,,,0,,,72,63
11456,note_off,,,,,320,0,9,,,,,8,,,53,0
11456,note_off,,,,,320,0,6,,,,,5,,,53,0
11456,note_off,,,,,320,0,8,,,,,7,,,60,0
11456,note_off,,,,,0,0,8,,,,,7,,,68,0
11456,note_off,,,,,320,0,4,,,,,3,,,65,0
11456,note_off,,,,,0,0,8,,,,,7,,,65,0
11456,note_off,,,,,320,0,5,,,,,4,,,60,0
11456,note_off,,,,,320,0,7,,,,,6,,,41,0
11516,note_off,,,,,92,0,2,,,,,1,,,72,0
11516,note_off,,,,,92,0,1,,,,,0,,,72,0
11516,note_off,,,,,92,0,3,,,,,2,,,72,0
11520,note_on,,,,,4,0,2,,,,,1,,,77,63
11520,note_on,,,,,4,0,3,,,,,2,,,77,108
11520,note_on,,,,,4,0,1,,,,,0,,,77,63
11612,note_off,,,,,92,0,1,,,,,0,,,77,0
11612,note_off,,,,,92,0,2,,,,,1,,,77,0
11612,note_off,,,,,92,0,3,,,,,2,,,77,0
11616,note_on,,,,,4,0,2,,,,,1,,,72,63
11616,note_on,,,,,4,0,1,,,,,0,,,72,63
11616,note_on,,,,,4,0,3,,,,,2,,,72,108
11708,note_off,,,,,92,0,3,,,,,2,,,72,0
11708,note_off,,,,,92,0,2,,,,,1,,,72,0
11708,note_off,,,,,92,0,1,,,,,0,,,72,0
11712,note_on,,,,,256,0,7,,,,,6,,,41,75
11712,note_on,,,,,4,0,1,,,,,0,,,74,63
11712,note_on,,,,,256,0,9,,,,,8,,,53,50
11712,note_on,,,,,256,0,5,,,,,4,,,65,92
11712,note_on,,,,,4,0,2,,,,,1,,,74,63
11712,note_on,,,,,256,0,4,,,,,3,,,69,127
11712,note_on,,,,,4,0,3,,,,,2,,,74,108
11712,note_on,,,,,256,0,8,,,,,7,,,60,50
11712,note_on,,,,,256,0,6,,,,,5,,,53,92
11712,note_on,,,,,0,0,8,,,,,7,,,65,50
11712,note_on,,,,,0,0,8,,,,,7,,,69,50
11804,note_off,,,,,92,0,1,,,,,0,,,74,0
11804,note_off,,,,,92,0,2,,,,,1,,,74,0
11804,note_off,,,,,92,0,3,,,,,2,,,74,0
11808,note_on,,,,,4,0,3,,,,,2,,,75,108
11808,note_on,,,,,4,0,2,,,,,1,,,75,63
11808,note_on,,,,,4,0,1,,,,,0,,,75,63
11900,note_off,,,,,0,0,8,,,,,7,,,69,0
11900,note_off,,,,,92,0,3,,,,,2,,,75,0
11900,note_off,,,,,188,0,7,,,,,6,,,41,0
11900,note_off,,,,,188,0,8,,,,,7,,,60,0
11900,note_off,,,,,188,0,4,,,,,3,,,69,0
11900,note_off,,,,,188,0,5,,,,,4,,,65,0
11900,note_off,,,,,188,0,9,,,,,8,,,53,0
11900,note_off,,,,,188,0,6,,,,,5,,,53,0
11900,note_off,,,,,92,0,1,,,,,0,,,75,0
11900,note_off,,,,,92,0,2,,,,,1,,,75,0
11900,note_off,,,,,0,0,8,,,,,7,,,65,0
11904,note_on,,,,,4,0,9,,,,,8,,,58,50
11904,note_on,,,,,4,0,3,,,,,2,,,74,108
11904,note_on,,,,,4,0,6,,,,,5,,,58,92
11904,note_on,,,,,0,0,8,,,,,7,,,70,50
11904,note_on,,,,,4,0,4,,,,,3,,,70,127
11904,note_on,,,,,0,0,8,,,,,7,,,65,50
11904,note_on,,,,,4,0,5,,,,,4,,,65,92
11904,note_on,,,,,4,0,7,,,,,6,,,46,75
11904,note_on,,,,,4,0,8,,,,,7,,,62,50
11904,note_on,,,,,4,0,2,,,,,1,,,74,63
11904,note_on,,,,,4,0,1,,,,,0,,,74,63
12092,note_off,,,,,188,0,6,,,,,5,,,58,0
12092,note_off,,,,,188,0,9,,,,,8,,,58,0
12092,note_off,,,,,188,0,7,,,,,6,,,46,0
12096,note_on,,,,,4,0,7,,,,,6,,,41,75
12096,note_on,,,,,4,0,9,,,,,8,,,53,50
12096,note_on,,,,,4,0,6,,,,,5,,,53,92
12188,note_off,,,,,92,0,6,,,,,5,,,53,0
12188,note_off,,,,,92,0,9,,,,,8,,,53,0
12188,note_off,,,,,92,0,7,,,,,6,,,41,0
12192,note_on,,,,,4,0,7,,,,,6,,,39,75
12192,note_on,,,,,4,0,9,,,,,8,,,51,50
12192,note_on,,,,,4,0,6,,,,,5,,,51,92
12224,note_off,,,,,320,0,1,,,,,0,,,74,0
12224,note_off,,,,,320,0,2,,,,,1,,,74,0
12224,note_off,,,,,320,0,5,,,,,4,,,65,0
12224,note_off,,,,,0,0,8,,,,,7,,,70,0
12224,note_off,,,,,320,0,3,,,,,2,,,74,0
12224,note_off,,,,,320,0,4,,,,,3,,,70,0
12224,note_off,,,,,320,0,8,,,,,7,,,62,0
12224,note_off,,,,,0,0,8,,,,,7,,,65,0
12284,note_off,,,,,92,0,9,,,,,8,,,51,0
12284,note_off,,,,,92,0,7,,,,,6,,,39,0
12284,note_off,,,,,92,0,6,,,,,5,,,51,0
12288,note_on,,,,,4,0,7,,,,,6,,,38,75
12288,note_on,,,,,4,0,6,,,,,5,,,50,92
12288,note_on,,,,,64,0,8,,,,,7,,,58,50
12288,note_on,,,,,0,0,8,,,,,7,,,65,50
12288,note_on,,,,,4,0,9,,,,,8,,,50,50
12384,note_on,,,,,160,0,3,,,,,2,,,77,108
12384,note_on,,,,,160,0,1,,,,,0,,,77,63
12384,note_on,,,,,160,0,2,,,,,1,,,77,63
12476,note_off,,,,,188,0,6,,,,,5,,,50,0
12476,note_off,,,,,92,0,3,,,,,2,,,77,0
12476,note_off,,,,,188,0,9,,,,,8,,,50,0
12476,note_off,,,,,92,0,2,,,,,1,,,77,0
12476,note_off,,,,,92,0,1,,,,,0,,,77,0
12476,note_off,,,,,188,0,7,,,,,6,,,38,0
12476,note_off,,,,,188,0,8,,,,,7,,,58,0
12476,note_off,,,,,0,0,8,,,,,7,,,65,0
12480,note_on,,,,,4,0,6,,,,,5,,,48,92
12480,note_on,,,,,4,0,3,,,,,2,,,75,108
12480,note_on,,,,,4,0,1,,,,,0,,,75,63
12480,note_on,,,,,4,0,7,,,,,6,,,36,75
12480,note_on,,,,,256,0,4,,,,,3,,,69,127
12480,note_on,,,,,4,0,8,,,,,7,,,60,50
12480,note_on,,,,,256,0,5,,,,,4,,,63,92
12480,note_on,,,,,4,0,2,,,,,1,,,75,63
12480,note_on,,,,,0,0,8,,,,,7,,,69,50
12480,note_on,,,,,4,0,9,,,,,8,,,48,50
12480,note_on,,,,,0,0,8,,,,,7,,,63,50
12572,note_off,,,,,92,0,2,,,,,1,,,75,0
12572,note_off,,,,,92,0,3,,,,,2,,,75,0
12572,note_off,,,,,92,0,7,,,,,6,,,36,0
12572,note_off,,,,,92,0,6,,,,,5,,,48,0
12572,note_off,,,,,92,0,1,,,,,0,,,75,0
12572,note_off,,,,,92,0,9,,,,,8,,,48,0
12576,note_on,,,,,4,0,9,,,,,8,,,50,50
12576,note_on,,,,,4,0,6,,,,,5,,,50,92
12576,note_on,,,,,4,0,1,,,,,0,,,77,63
12576,note_on,,,,,4,0,2,,,,,1,,,77,63
12576,note_on,,,,,4,0,3,,,,,2,,,77,108
12576,note_on,,,,,4,0,7,,,,,6,,,38,75
12668,note_off,,,,,188,0,5,,,,,4,,,63,0
12668,note_off,,,,,188,0,8,,,,,7,,,60,0
12668,note_off,,,,,92,0,3,,,,,2,,,77,0
12668,note_off,,,,,92,0,1,,,,,0,,,77,0
12668,note_off,,,,,92,0,2,,,,,1,,,77,0
12668,note_off,,,,,92,0,7,,,,,6,,,38,0
12668,note_off,,,,,92,0,6,,,,,5,,,50,0
12668,note_off,,,,,0,0,8,,,,,7,,,69,0
12668,note_off,,,,,0,0,8,,,,,7,,,63,0
12668,note_off,,,,,92,0,9,,,,,8,,,50,0
12668,note_off,,,,,188,0,4,,,,,3,,,69,0
12672,note_on,,,,,4,0,2,,,,,1,,,74,63
12672,note_on,,,,,0,0,8,,,,,7,,,70,50
12672,note_on,,,,,4,0,6,,,,,5,,,46,92
12672,note_on,,,,,0,0,8,,,,,7,,,65,50
12672,note_on,,,,,4,0,1,,,,,0,,,74,63
12672,note_on,,,,,4,0,9,,,,,8,,,46,50
12672,note_on,,,,,4,0,7,,,,,6,,,34,75
12672,note_on,,,,,4,0,3,,,,,2,,,74,108
12672,note_on,,,,,4,0,5,,,,,4,,,65,92
12672,note_on,,,,,4,0,4,,,,,3,,,70,127
12672,note_on,,,,,4,0,8,,,,,7,,,62,50
12764,note_off,,,,,92,0,3,,,,,2,,,74,0
12764,note_off,,,,,92,0,2,,,,,1,,,74,0
12764,note_off,,,,,92,0,1,,,,,0,,,74,0
12768,note_on,,,,,4,0,3,,,,,2,,,70,108
12768,note_on,,,,,4,0,2,,,,,1,,,70,63
12768,note_on,,,,,4,0,1,,,,,0,,,70,63
12860,note_off,,,,,92,0,1,,,,,0,,,70,0
12860,note_off,,,,,92,0,3,,,,,2,,,70,0
12860,note_off,,,,,92,0,2,,,,,1,,,70,0
12864,note_on,,,,,4,0,2,,,,,1,,,74,63
12864,note_on,,,,,4,0,1,,,,,0,,,74,63
12864,note_on,,,,,4,0,3,,,,,2,,,74,108
12956,note_off,,,,,92,0,1,,,,,0,,,74,0
12956,note_off,,,,,92,0,3,,,,,2,,,74,0
12956,note_off,,,,,92,0,2,,,,,1,,,74,0
12960,note_on,,,,,4,0,3,,,,,2,,,77,108
12960,note_on,,,,,4,0,2,,,,,1,,,77,63
12960,note_on,,,,,4,0,1,,,,,0,,,77,63
12992,note_off,,,,,320,0,7,,,,,6,,,34,0
12992,note_off,,,,,320,0,5,,,,,4,,,65,0
12992,note_off,,,,,320,0,4,,,,,3,,,70,0
12992,note_off,,,,,320,0,9,,,,,8,,,46,0
12992,note_off,,,,,320,0,8,,,,,7,,,62,0
12992,note_off,,,,,0,0,8,,,,,7,,,65,0
12992,note_off,,,,,320,0,6,,,,,5,,,46,0
12992,note_off,,,,,0,0,8,,,,,7,,,70,0
13052,note_off,,,,,92,0,3,,,,,2,,,77,0
13052,note_off,,,,,92,0,1,,,,,0,,,77,0
13052,note_off,,,,,92,0,2,,,,,1,,,77,0
13056,note_on,,,,,4,0,2,,,,,1,,,82,63
13056,note_on,,,,,4,0,3,,,,,2,,,82,108
13056,note_on,,,,,4,0,1,,,,,0,,,82,63
13148,note_off,,,,,92,0,2,,,,,1,,,82,0
13148,note_off,,,,,92,0,3,,,,,2,,,82,0
13148,note_off,,,,,92,0,1,,,,,0,,,82,0
13152,note_on,,,,,4,0,2,,,,,1,,,77,63
13152,note_on,,,,,4,0,3,,,,,2,,,77,108
13152,note_on,,,,,4,0,1,,,,,0,,,77,63
13244,note_off,,,,,92,0,3,,,,,2,,,77,0
13244,note_off,,,,,92,0,1,,,,,0,,,77,0
13244,note_off,,,,,92,0,2,,,,,1,,,77,0
13248,note_on,,,,,256,0,9,,,,,8,,,58,50
13248,note_on,,,,,256,0,5,,,,,4,,,74,92
13248,note_on,,,,,256,0,7,,,,,6,,,46,75
13248,note_on,,,,,4,0,2,,,,,1,,,79,63
13248,note_on,,,,,0,0,8,,,,,7,,,70,50
13248,note_on,,,,,0,0,8,,,,,7,,,65,50
13248,note_on,,,,,256,0,8,,,,,7,,,62,50
13248,note_on,,,,,256,0,6,,,,,5,,,58,92
13248,note_on,,,,,256,0,4,,,,,3,,,77,127
13248,note_on,,,,,4,0,1,,,,,0,,,79,63
13248,note_on,,,,,4,0,3,,,,,2,,,79,108
13340,note_off,,,,,92,0,2,,,,,1,,,79,0
13340,note_off,,,,,92,0,3,,,,,2,,,79,0
13340,note_off,,,,,92,0,1,,,,,0,,,79,0
13344,note_on,,,,,4,0,2,,,,,1,,,80,63
13344,note_on,,,,,4,0,1,,,,,0,,,80,63
13344,note_on,,,,,4,0,3,,,,,2,,,80,108
13436,note_off,,,,,92,0,1,,,,,0,,,80,0
13436,note_off,,,,,188,0,8,,,,,7,,,62,0
13436,note_off,,,,,0,0,8,,,,,7,,,65,0
13436,note_off,,,,,0,0,8,,,,,7,,,70,0
13436,note_off,,,,,188,0,5,,,,,4,,,74,0
13436,note_off,,,,,188,0,4,,,,,3,,,77,0
13436,note_off,,,,,188,0,9,,,,,8,,,58,0
13436,note_off,,,,,188,0,7,,,,,6,,,46,0
13436,note_off,,,,,188,0,6,,,,,5,,,58,0
13436,note_off,,,,,92,0,2,,,,,1,,,80,0
13436,note_off,,,,,92,0,3,,,,,2,,,80,0
13440,note_on,,,,,4,0,1,,,,,0,,,79,63
13440,note_on,,,,,4,0,4,,,,,3,,,75,127
13440,note_on,,,,,4,0,9,,,,,8,,,63,50
13440,note_on,,,,,4,0,5,,,,,4,,,70,92
13440,note_on,,,,,4,0,7,,,,,6,,,51,75
13440,note_on,,,,,4,0,2,,,,,1,,,79,63
13440,note_on,,,,,0,0,8,,,,,7,,,67,50
13440,note_on,,,,,4,0,6,,,,,5,,,63,92
13440,note_on,,,,,4,0,8,,,,,7,,,63,50
13440,note_on,,,,,0,0,8,,,,,7,,,70,50
13440,note_on,,,,,4,0,3,,,,,2,,,79,108
13628,note_off,,,,,188,0,7,,,,,6,,,51,0
13628,note_off,,,,,188,0,6,,,,,5,,,63,0
13628,note_off,,,,,188,0,9,,,,,8,,,63,0
13632,note_on,,,,,4,0,9,,,,,8,,,58,50
13632,note_on,,,,,4,0,6,,,,,5,,,58,92
13632,note_on,,,,,4,0,7,,,,,6,,,46,75
13724,note_off,,,,,92,0,6,,,,,5,,,58,0
13724,note_off,,,,,92,0,7,,,,,6,,,46,0
13724,note_off,,,,,92,0,9,,,,,8,,,58,0
13728,note_on,,,,,4,0,9,,,,,8,,,56,50
13728,note_on,,,,,4,0,6,,,,,5,,,56,92
13728,note_on,,,,,4,0,7,,,,,6,,,44,75
13760,note_off,,,,,320,0,3,,,,,2,,,79,0
13760,note_off,,,,,320,0,2,,,,,1,,,79,0
13760,note_off,,,,,0,0,8,,,,,7,,,70,0
13760,note_off,,,,,320,0,1,,,,,0,,,79,0
13760,note_off,,,,,320,0,8,,,,,7,,,63,0
13760,note_off,,,,,320,0,5,,,,,4,,,70,0
13760,note_off,,,,,0,0,8,,,,,7,,,67,0
13760,note_off,,,,,320,0,4,,,,,3,,,75,0
13820,note_off,,,,,92,0,6,,,,,5,,,56,0
13820,note_off,,,,,92,0,9,,,,,8,,,56,0
13820,note_off,,,,,92,0,7,,,,,6,,,44,0
13824,note_on,,,,,4,0,7,,,,,6,,,43,75
13824,note_on,,,,,64,0,8,,,,,7,,,58,50
13824,note_on,,,,,0,0,8,,,,,7,,,63,50
13824,note_on,,,,,4,0,6,,,,,5,,,55,92
13824,note_on,,,,,4,0,9,,,,,8,,,55,50
13920,note_on,,,,,160,0,3,,,,,2,,,70,108
13920,note_on,,,,,160,0,2,,,,,1,,,70,63
13920,note_on,,,,,160,0,1,,,,,0,,,70,63
14012,note_off,,,,,92,0,2,,,,,1,,,70,0
14012,note_off,,,,,188,0,7,,,,,6,,,43,0
14012,note_off,,,,,188,0,8,,,,,7,,,58,0
14012,note_off,,,,,188,0,9,,,,,8,,,55,0
14012,note_off,,,,,0,0,8,,,,,7,,,63,0
14012,note_off,,,,,92,0,3,,,,,2,,,70,0
14012,note_off,,,,,92,0,1,,,,,0,,,70,0
14012,note_off,,,,,188,0,6,,,,,5,,,55,0
14016,note_on,,,,,4,0,7,,,,,6,,,41,75
14016,note_on,,,,,4,0,1,,,,,0,,,68,63
14016,note_on,,,,,0,0,8,,,,,7,,,62,50
14016,note_on,,,,,0,0,8,,,,,7,,,65,50
14016,note_on,,,,,4,0,3,,,,,2,,,68,108
14016,note_on,,,,,256,0,5,,,,,4,,,56,92
14016,note_on,,,,,4,0,9,,,,,8,,,53,50
14016,note_on,,,,,4,0,8,,,,,7,,,56,50
14016,note_on,,,,,4,0,2,,,,,1,,,68,63
14016,note_on,,,,,4,0,6,,,,,5,,,53,92
14016,note_on,,,,,256,0,4,,,,,3,,,62,127
14108,note_off,,,,,92,0,7,,,,,6,,,41,0
14108,note_off,,,,,92,0,1,,,,,0,,,68,0
14108,note_off,,,,,92,0,9,,,,,8,,,53,0
14108,note_off,,,,,92,0,6,,,,,5,,,53,0
14108,note_off,,,,,92,0,3,,,,,2,,,68,0
14108,note_off,,,,,92,0,2,,,,,1,,,68,0
14112,note_on,,,,,4,0,3,,,,,2,,,70,108
14112,note_on,,,,,4,0,2,,,,,1,,,70,63
14112,note_on,,,,,4,0,9,,,,,8,,,55,50
14112,note_on,,,,,4,0,6,,,,,5,,,55,92
14112,note_on,,,,,4,0,1,,,,,0,,,70,63
14112,note_on,,,,,4,0,7,,,,,6,,,43,75
14204,note_off,,,,,92,0,2,,,,,1,,,70,0
14204,note_off,,,,,92,0,6,,,,,5,,,55,0
14204,note_off,,,,,188,0,4,,,,,3,,,62,0
14204,note_off,,,,,0,0,8,,,,,7,,,65,0
14204,note_off,,,,,92,0,7,,,,,6,,,43,0
14204,note_off,,,,,92,0,1,,,,,0,,,70,0
14204,note_off,,,,,188,0,5,,,,,4,,,56,0
14204,note_off,,,,,188,0,8,,,,,7,,,56,0
14204,note_off,,,,,0,0,8,,,,,7,,,62,0
14204,note_off,,,,,92,0,3,,,,,2,,,70,0
14204,note_off,,,,,92,0,9,,,,,8,,,55,0
14208,note_on,,,,,4,0,8,,,,,7,,,58,50
14208,note_on,,,,,4,0,5,,,,,4,,,58,92
14208,note_on,,,,,4,0,6,,,,,5,,,51,92
14208,note_on,,,,,0,0,8,,,,,7,,,63,50
14208,note_on,,,,,0,0,8,,,,,7,,,67,50
14208,note_on,,,,,4,0,1,,,,,0,,,67,63
14208,note_on,,,,,4,0,9,,,,,8,,,51,50
14208,note_on,,,,,4,0,3,,,,,2,,,67,108
14208,note_on,,,,,4,0,4,,,,,3,,,62,127
14208,note_on,,,,,4,0,7,,,,,6,,,39,75
14208,note_on,,,,,4,0,2,,,,,1,,,67,63
14300,note_off,,,,,92,0,2,,,,,1,,,67,0
14300,note_off,,,,,92,0,3,,,,,2,,,67,0
14300,note_off,,,,,92,0,1,,,,,0,,,67,0
14304,note_on,,,,,4,0,3,,,,,2,,,63,108
14304,note_on,,,,,4,0,1,,,,,0,,,63,63
14304,note_on,,,,,4,0,2,,,,,1,,,63,63
14396,note_off,,,,,92,0,1,,,,,0,,,63,0
14396,note_off,,,,,92,0,3,,,,,2,,,63,0
14396,note_off,,,,,92,0,2,,,,,1,,,63,0
14400,note_on,,,,,4,0,1,,,,,0,,,67,63
14400,note_on,,,,,4,0,2,,,,,1,,,67,63
14400,note_on,,,,,4,0,3,,,,,2,,,67,108
14492,note_off,,,,,92,0,1,,,,,0,,,67,0
14492,note_off,,,,,92,0,2,,,,,1,,,67,0
14492,note_off,,,,,92,0,3,,,,,2,,,67,0
14496,note_on,,,,,4,0,2,,,,,1,,,70,63
14496,note_on,,,,,4,0,3,,,,,2,,,70,108
14496,note_on,,,,,4,0,1,,,,,0,,,70,63
14528,note_off,,,,,0,0,8,,,,,7,,,67,0
14528,note_off,,,,,0,0,8,,,,,7,,,63,0
14528,note_off,,,,,320,0,8,,,,,7,,,58,0
14528,note_off,,,,,320,0,5,,,,,4,,,58,0
14528,note_off,,,,,320,0,6,,,,,5,,,51,0
14528,note_off,,,,,320,0,7,,,,,6,,,39,0
14528,note_off,,,,,320,0,4,,,,,3,,,62,0
14528,note_off,,,,,320,0,9,,,,,8,,,51,0
14588,note_off,,,,,92,0,1,,,,,0,,,70,0
14588,note_off,,,,,92,0,2,,,,,1,,,70,0
14588,note_off,,,,,92,0,3,,,,,2,,,70,0
14592,note_on,,,,,4,0,1,,,,,0,,,75,63
14592,note_on,,,,,64,0,6,,,,,5,,,43,92
14592,note_on,,,,,64,0,8,,,,,7,,,58,50
14592,note_on,,,,,0,0,8,,,,,7,,,63,50
14592,note_on,,,,,4,0,2,,,,,1,,,75,63
14592,note_on,,,,,4,0,3,,,,,2,,,75,108
14592,note_on,,,,,64,0,7,,,,,6,,,31,75
14592,note_on,,,,,0,0,8,,,,,7,,,70,50
14592,note_on,,,,,64,0,5,,,,,4,,,58,92
14592,note_on,,,,,64,0,4,,,,,3,,,67,127
14592,note_on,,,,,64,0,9,,,,,8,,,43,50
14684,note_off,,,,,92,0,2,,,,,1,,,75,0
14684,note_off,,,,,92,0,1,,,,,0,,,75,0
14684,note_off,,,,,92,0,3,,,,,2,,,75,0
14688,note_on,,,,,4,0,3,,,,,2,,,70,108
14688,note_on,,,,,4,0,1,,,,,0,,,70,63
14688,note_on,,,,,4,0,2,,,,,1,,,70,63
14780,note_off,,,,,92,0,2,,,,,1,,,70,0
14780,note_off,,,,,92,0,1,,,,,0,,,70,0
14780,note_off,,,,,92,0,3,,,,,2,,,70,0
14784,note_on,,,,,4,0,3,,,,,2,,,72,108
14784,note_on,,,,,4,0,2,,,,,1,,,72,63
14784,note_on,,,,,4,0,1,,,,,0,,,72,63
14876,note_off,,,,,92,0,1,,,,,0,,,72,0
14876,note_off,,,,,92,0,3,,,,,2,,,72,0
14876,note_off,,,,,92,0,2,,,,,1,,,72,0
14880,note_on,,,,,4,0,2,,,,,1,,,73,63
14880,note_on,,,,,4,0,3,,,,,2,,,73,108
14880,note_on,,,,,4,0,1,,,,,0,,,73,63
14912,note_off,,,,,320,0,7,,,,,6,,,31,0
14912,note_off,,,,,320,0,4,,,,,3,,,67,0
14912,note_off,,,,,320,0,6,,,,,5,,,43,0
14912,note_off,,,,,320,0,9,,,,,8,,,43,0
14912,note_off,,,,,320,0,5,,,,,4,,,58,0
14912,note_off,,,,,0,0,8,,,,,7,,,70,0
14912,note_off,,,,,0,0,8,,,,,7,,,63,0
14912,note_off,,,,,320,0,8,,,,,7,,,58,0
14972,note_off,,,,,92,0,1,,,,,0,,,73,0
14972,note_off,,,,,92,0,3,,,,,2,,,73,0
14972,note_off,,,,,92,0,2,,,,,1,,,73,0
14976,note_on,,,,,64,0,4,,,,,3,,,63,127
14976,note_on,,,,,64,0,8,,,,,7,,,60,50
14976,note_on,,,,,4,0,2,,,,,1,,,72,63
14976,note_on,,,,,64,0,9,,,,,8,,,44,50
14976,note_on,,,,,0,0,8,,,,,7,,,63,50
14976,note_on,,,,,64,0,7,,,,,6,,,32,75
14976,note_on,,,,,64,0,6,,,,,5,,,44,92
14976,note_on,,,,,64,0,5,,,,,4,,,60,92
14976,note_on,,,,,4,0,1,,,,,0,,,72,63
14976,note_on,,,,,4,0,3,,,,,2,,,72,108
15068,note_off,,,,,92,0,3,,,,,2,,,72,0
15068,note_off,,,,,92,0,1,,,,,0,,,72,0
15068,note_off,,,,,92,0,2,,,,,1,,,72,0
15072,note_on,,,,,4,0,1,,,,,0,,,65,63
15072,note_on,,,,,4,0,3,,,,,2,,,65,108
15072,note_on,,,,,4,0,2,,,,,1,,,65,63
15164,note_off,,,,,92,0,1,,,,,0,,,65,0
15164,note_off,,,,,92,0,2,,,,,1,,,65,0
15164,note_off,,,,,92,0,3,,,,,2,,,65,0
15168,note_on,,,,,4,0,1,,,,,0,,,68,63
15168,note_on,,,,,4,0,2,,,,,1,,,68,63
15168,note_on,,,,,4,0,3,,,,,2,,,68,108
15260,note_off,,,,,92,0,1,,,,,0,,,68,0
15260,note_off,,,,,92,0,3,,,,,2,,,68,0
15260,note_off,,,,,92,0,2,,,,,1,,,68,0
15264,note_on,,,,,4,0,2,,,,,1,,,72,63
15264,note_on,,,,,4,0,1,,,,,0,,,72,63
15264,note_on,,,,,4,0,3,,,,,2,,,72,108
15296,note_off,,,,,320,0,7,,,,,6,,,32,0
15296,note_off,,,,,320,0,5,,,,,4,,,60,0
15296,note_off,,,,,320,0,6,,,,,5,,,44,0
15296,note_off,,,,,320,0,9,,,,,8,,,44,0
15296,note_off,,,,,0,0,8,,,,,7,,,63,0
15296,note_off,,,,,320,0,8,,,,,7,,,60,0
15296,note_off,,,,,320,0,4,,,,,3,,,63,0
15356,note_off,,,,,92,0,3,,,,,2,,,72,0
15356,note_off,,,,,92,0,1,,,,,0,,,72,0
15356,note_off,,,,,92,0,2,,,,,1,,,72,0
15360,note_on,,,,,64,0,4,,,,,3,,,67,127
15360,note_on,,,,,64,0,8,,,,,7,,,60,50
15360,note_on,,,,,0,0,8,,,,,7,,,65,50
15360,note_on,,,,,4,0,2,,,,,1,,,77,63
15360,note_on,,,,,64,0,7,,,,,6,,,44,75
15360,note_on,,,,,64,0,9,,,,,8,,,56,50
15360,note_on,,,,,4,0,1,,,,,0,,,77,63
15360,note_on,,,,,4,0,3,,,,,2,,,77,108
15360,note_on,,,,,64,0,6,,,,,5,,,56,92
15360,note_on,,,,,64,0,5,,,,,4,,,60,92
15452,note_off,,,,,92,0,1,,,,,0,,,77,0
15452,note_off,,,,,92,0,2,,,,,1,,,77,0
15452,note_off,,,,,92,0,3,,,,,2,,,77,0
15456,note_on,,,,,4,0,1,,,,,0,,,72,63
15456,note_on,,,,,4,0,3,,,,,2,,,72,108
15456,note_on,,,,,4,0,2,,,,,1,,,72,63
15548,note_off,,,,,92,0,3,,,,,2,,,72,0
15548,note_off,,,,,92,0,1,,,,,0,,,72,0
15548,note_off,,,,,92,0,2,,,,,1,,,72,0
15552,note_on,,,,,4,0,2,,,,,1,,,74,63
15552,note_on,,,,,4,0,3,,,,,2,,,74,108
15552,note_on,,,,,4,0,1,,,,,0,,,74,63
15644,note_off,,,,,92,0,3,,,,,2,,,74,0
15644,note_off,,,,,92,0,1,,,,,0,,,74,0
15644,note_off,,,,,92,0,2,,,,,1,,,74,0
15648,note_on,,,,,4,0,1,,,,,0,,,75,63
15648,note_on,,,,,4,0,3,,,,,2,,,75,108
15648,note_on,,,,,4,0,2,,,,,1,,,75,63
15680,note_off,,,,,320,0,6,,,,,5,,,56,0
15680,note_off,,,,,0,0,8,,,,,7,,,65,0
15680,note_off,,,,,320,0,8,,,,,7,,,60,0
15680,note_off,,,,,320,0,7,,,,,6,,,44,0
15680,note_off,,,,,320,0,9,,,,,8,,,56,0
15680,note_off,,,,,320,0,4,,,,,3,,,67,0
15680,note_off,,,,,320,0,5,,,,,4,,,60,0
15740,note_off,,,,,92,0,2,,,,,1,,,75,0
15740,note_off,,,,,92,0,3,,,,,2,,,75,0
15740,note_off,,,,,92,0,1,,,,,0,,,75,0
15744,note_on,,,,,64,0,7,,,,,6,,,46,75
15744,note_on,,,,,4,0,1,,,,,0,,,74,63
15744,note_on,,,,,64,0,4,,,,,3,,,62,127
15744,note_on,,,,,4,0,2,,,,,1,,,74,63
15744,note_on,,,,,64,0,8,,,,,7,,,62,50
15744,note_on,,,,,0,0,8,,,,,7,,,65,50
15744,note_on,,,,,64,0,6,,,,,5,,,58,92
15744,note_on,,,,,4,0,3,,,,,2,,,74,108
15744,note_on,,,,,64,0,5,,,,,4,,,67,92
15744,note_on,,,,,64,0,9,,,,,8,,,58,50
15836,note_off,,,,,92,0,3,,,,,2,,,74,0
15836,note_off,,,,,92,0,1,,,,,0,,,74,0
15836,note_off,,,,,92,0,2,,,,,1,,,74,0
15840,note_on,,,,,4,0,3,,,,,2,,,67,108
15840,note_on,,,,,4,0,1,,,,,0,,,67,63
15840,note_on,,,,,4,0,2,,,,,1,,,67,63
15932,note_off,,,,,92,0,3,,,,,2,,,67,0
15932,note_off,,,,,92,0,1,,,,,0,,,67,0
15932,note_off,,,,,92,0,2,,,,,1,,,67,0
15936,note_on,,,,,4,0,3,,,,,2,,,70,108
15936,note_on,,,,,4,0,1,,,,,0,,,70,63
15936,note_on,,,,,4,0,2,,,,,1,,,70,63
16028,note_off,,,,,92,0,1,,,,,0,,,70,0
16028,note_off,,,,,92,0,2,,,,,1,,,70,0
16028,note_off,,,,,92,0,3,,,,,2,,,70,0
16032,note_on,,,,,4,0,1,,,,,0,,,74,63
16032,note_on,,,,,4,0,3,,,,,2,,,74,108
16032,note_on,,,,,4,0,2,,,,,1,,,74,63
16064,note_off,,,,,0,0,8,,,,,7,,,65,0
16064,note_off,,,,,320,0,8,,,,,7,,,62,0
16064,note_off,,,,,320,0,4,,,,,3,,,62,0
16064,note_off,,,,,320,0,7,,,,,6,,,46,0
16064,note_off,,,,,320,0,5,,,,,4,,,67,0
16064,note_off,,,,,320,0,9,,,,,8,,,58,0
16064,note_off,,,,,320,0,6,,,,,5,,,58,0
16124,note_off,,,,,92,0,1,,,,,0,,,74,0
16124,note_off,,,,,92,0,3,,,,,2,,,74,0
16124,note_off,,,,,92,0,2,,,,,1,,,74,0
16128,note_on,,,,,64,0,6,,,,,5,,,46,92
16128,note_on,,,,,64,0,7,,,,,6,,,34,75
16128,note_on,,,,,64,0,9,,,,,8,,,46,50
16128,note_on,,,,,4,0,2,,,,,1,,,79,63
16128,note_on,,,,,0,0,8,,,,,7,,,67,50
16128,note_on,,,,,64,0,8,,,,,7,,,62,50
16128,note_on,,,,,4,0,3,,,,,2,,,79,108
16128,note_on,,,,,4,0,1,,,,,0,,,79,63
16220,note_off,,,,,92,0,1,,,,,0,,,79,0
16220,note_off,,,,,92,0,2,,,,,1,,,79,0
16220,note_off,,,,,92,0,3,,,,,2,,,79,0
16224,note_on,,,,,4,0,2,,,,,1,,,74,63
16224,note_on,,,,,4,0,1,,,,,0,,,74,63
16224,note_on,,,,,4,0,3,,,,,2,,,74,108
16316,note_off,,,,,92,0,2,,,,,1,,,74,0
16316,note_off,,,,,92,0,1,,,,,0,,,74,0
16316,note_off,,,,,92,0,3,,,,,2,,,74,0
16320,note_on,,,,,4,0,2,,,,,1,,,75,63
16320,note_on,,,,,4,0,3,,,,,2,,,75,108
16320,note_on,,,,,256,0,5,,,,,4,,,67,92
16320,note_on,,,,,4,0,1,,,,,0,,,75,63
16320,note_on,,,,,256,0,4,,,,,3,,,74,127
16412,note_off,,,,,92,0,2,,,,,1,,,75,0
16412,note_off,,,,,92,0,3,,,,,2,,,75,0
16412,note_off,,,,,92,0,1,,,,,0,,,75,0
16416,note_on,,,,,4,0,1,,,,,0,,,77,63
16416,note_on,,,,,4,0,2,,,,,1,,,77,63
16416,note_on,,,,,4,0,3,,,,,2,,,77,108
16448,note_off,,,,,0,0,8,,,,,7,,,67,0
16448,note_off,,,,,320,0,8,,,,,7,,,62,0
16448,note_off,,,,,320,0,6,,,,,5,,,46,0
16448,note_off,,,,,320,0,7,,,,,6,,,34,0
16448,note_off,,,,,320,0,9,,,,,8,,,46,0
16508,note_off,,,,,92,0,1,,,,,0,,,77,0
16508,note_off,,,,,92,0,2,,,,,1,,,77,0
16508,note_off,,,,,188,0,5,,,,,4,,,67,0
16508,note_off,,,,,188,0,4,,,,,3,,,74,0
16508,note_off,,,,,92,0,3,,,,,2,,,77,0
16512,note_on,,,,,4,0,2,,,,,1,,,75,63
16512,note_on,,,,,64,0,9,,,,,8,,,48,50
16512,note_on,,,,,64,0,7,,,,,6,,,36,75
16512,note_on,,,,,4,0,1,,,,,0,,,75,63
16512,note_on,,,,,0,0,8,,,,,7,,,67,50
16512,note_on,,,,,4,0,4,,,,,3,,,75,127
16512,note_on,,,,,4,0,5,,,,,4,,,67,92
16512,note_on,,,,,64,0,6,,,,,5,,,48,92
16512,note_on,,,,,64,0,8,,,,,7,,,63,50
16512,note_on,,,,,4,0,3,,,,,2,,,75,108
16604,note_off,,,,,92,0,1,,,,,0,,,75,0
16604,note_off,,,,,92,0,3,,,,,2,,,75,0
16604,note_off,,,,,92,0,2,,,,,1,,,75,0
16608,note_on,,,,,4,0,3,,,,,2,,,79,108
16608,note_on,,,,,4,0,1,,,,,0,,,79,63
16608,note_on,,,,,4,0,2,,,,,1,,,79,63
16700,note_off,,,,,92,0,2,,,,,1,,,79,0
16700,note_off,,,,,92,0,3,,,,,2,,,79,0
16700,note_off,,,,,92,0,1,,,,,0,,,79,0
16704,note_on,,,,,4,0,2,,,,,1,,,77,63
16704,note_on,,,,,4,0,1,,,,,0,,,77,63
16704,note_on,,,,,4,0,3,,,,,2,,,77,108
16796,note_off,,,,,92,0,2,,,,,1,,,77,0
16796,note_off,,,,,92,0,3,,,,,2,,,77,0
16796,note_off,,,,,92,0,1,,,,,0,,,77,0
16800,note_on,,,,,4,0,2,,,,,1,,,79,63
16800,note_on,,,,,4,0,3,,,,,2,,,79,108
16800,note_on,,,,,4,0,1,,,,,0,,,79,63
16832,note_off,,,,,0,0,8,,,,,7,,,67,0
16832,note_off,,,,,320,0,8,,,,,7,,,63,0
16832,note_off,,,,,320,0,4,,,,,3,,,75,0
16832,note_off,,,,,320,0,9,,,,,8,,,48,0
16832,note_off,,,,,320,0,5,,,,,4,,,67,0
16832,note_off,,,,,320,0,7,,,,,6,,,36,0
16832,note_off,,,,,320,0,6,,,,,5,,,48,0
16892,note_off,,,,,92,0,1,,,,,0,,,79,0
16892,note_off,,,,,92,0,3,,,,,2,,,79,0
16892,note_off,,,,,92,0,2,,,,,1,,,79,0
16896,note_on,,,,,0,0,8,,,,,7,,,70,50
16896,note_on,,,,,64,0,8,,,,,7,,,63,50
16896,note_on,,,,,4,0,2,,,,,1,,,75,63
16896,note_on,,,,,64,0,6,,,,,5,,,55,92
16896,note_on,,,,,4,0,1,,,,,0,,,75,63
16896,note_on,,,,,64,0,7,,,,,6,,,43,75
16896,note_on,,,,,64,0,9,,,,,8,,,55,50
16896,note_on,,,,,4,0,3,,,,,2,,,75,108
16896,note_on,,,,,0,0,8,,,,,7,,,67,50
16896,note_on,,,,,64,0,5,,,,,4,,,70,92
16988,note_off,,,,,92,0,1,,,,,0,,,75,0
16988,note_off,,,,,92,0,3,,,,,2,,,75,0
16988,note_off,,,,,92,0,2,,,,,1,,,75,0
16992,note_on,,,,,4,0,3,,,,,2,,,82,108
16992,note_on,,,,,4,0,1,,,,,0,,,82,63
16992,note_on,,,,,4,0,2,,,,,1,,,82,63
17084,note_off,,,,,92,0,1,,,,,0,,,82,0
17084,note_off,,,,,92,0,3,,,,,2,,,82,0
17084,note_off,,,,,92,0,2,,,,,1,,,82,0
17088,note_on,,,,,4,0,3,,,,,2,,,80,108
17088,note_on,,,,,4,0,2,,,,,1,,,80,63
17088,note_on,,,,,4,0,1,,,,,0,,,80,63
17180,note_off,,,,,92,0,3,,,,,2,,,80,0
17180,note_off,,,,,92,0,2,,,,,1,,,80,0
17180,note_off,,,,,92,0,1,,,,,0,,,80,0
17184,note_on,,,,,4,0,3,,,,,2,,,82,108
17184,note_on,,,,,4,0,2,,,,,1,,,82,63
17184,note_on,,,,,4,0,1,,,,,0,,,82,63
17216,note_off,,,,,0,0,8,,,,,7,,,70,0
17216,note_off,,,,,320,0,5,,,,,4,,,70,0
17216,note_off,,,,,0,0,8,,,,,7,,,67,0
17216,note_off,,,,,320,0,8,,,,,7,,,63,0
17216,note_off,,,,,320,0,9,,,,,8,,,55,0
17216,note_off,,,,,320,0,6,,,,,5,,,55,0
17216,note_off,,,,,320,0,7,,,,,6,,,43,0
17276,note_off,,,,,92,0,3,,,,,2,,,82,0
17276,note_off,,,,,92,0,2,,,,,1,,,82,0
17276,note_off,,,,,92,0,1,,,,,0,,,82,0
17280,note_on,,,,,4,0,2,,,,,1,,,75,63
17280,note_on,,,,,4,0,1,,,,,0,,,75,63
17280,note_on,,,,,4,0,3,,,,,2,,,75,108
17280,note_on,,,,,0,0,8,,,,,7,,,67,50
17280,note_on,,,,,64,0,7,,,,,6,,,44,75
17280,note_on,,,,,64,0,6,,,,,5,,,56,92
17280,note_on,,,,,64,0,5,,,,,4,,,72,92
17280,note_on,,,,,64,0,9,,,,,8,,,56,50
17280,note_on,,,,,0,0,8,,,,,7,,,72,50
17280,note_on,,,,,64,0,8,,,,,7,,,63,50
17376,note_on,,,,,544,0,4,,,,,3,,,79,127
17468,note_off,,,,,92,0,4,,,,,3,,,79,0
17472,note_on,,,,,4,0,4,,,,,3,,,77,127
17564,note_off,,,,,92,0,4,,,,,3,,,77,0
17568,note_on,,,,,4,0,4,,,,,3,,,79,127
17600,note_off,,,,,320,0,9,,,,,8,,,56,0
17600,note_off,,,,,0,0,8,,,,,7,,,72,0
17600,note_off,,,,,0,0,8,,,,,7,,,67,0
17600,note_off,,,,,320,0,6,,,,,5,,,56,0
17600,note_off,,,,,320,0,2,,,,,1,,,75,0
17600,note_off,,,,,320,0,1,,,,,0,,,75,0
17600,note_off,,,,,320,0,8,,,,,7,,,63,0
17600,note_off,,,,,320,0,5,,,,,4,,,72,0
17600,note_off,,,,,320,0,3,,,,,2,,,75,0
17600,note_off,,,,,320,0,7,,,,,6,,,44,0
17660,note_off,,,,,92,0,4,,,,,3,,,79,0
17664,note_on,,,,,0,0,8,,,,,7,,,70,50
17664,note_on,,,,,64,0,5,,,,,4,,,58,92
17664,note_on,,,,,64,0,6,,,,,5,,,58,92
17664,note_on,,,,,4,0,4,,,,,3,,,75,127
17664,note_on,,,,,64,0,9,,,,,8,,,58,50
17664,note_on,,,,,64,0,8,,,,,7,,,63,50
17664,note_on,,,,,0,0,8,,,,,7,,,67,50
17664,note_on,,,,,64,0,7,,,,,6,,,46,75
17756,note_off,,,,,92,0,4,,,,,3,,,75,0
17760,note_on,,,,,4,0,4,,,,,3,,,82,127
17852,note_off,,,,,92,0,4,,,,,3,,,82,0
17856,note_on,,,,,4,0,4,,,,,3,,,80,127
17948,note_off,,,,,92,0,4,,,,,3,,,80,0
17952,note_on,,,,,4,0,4,,,,,3,,,82,127
17984,note_off,,,,,0,0,8,,,,,7,,,70,0
17984,note_off,,,,,0,0,8,,,,,7,,,67,0
17984,note_off,,,,,320,0,8,,,,,7,,,63,0
17984,note_off,,,,,320,0,5,,,,,4,,,58,0
17984,note_off,,,,,320,0,9,,,,,8,,,58,0
17984,note_off,,,,,320,0,7,,,,,6,,,46,0
17984,note_off,,,,,320,0,6,,,,,5,,,58,0
18044,note_off,,,,,92,0,4,,,,,3,,,82,0
18048,note_on,,,,,4,0,4,,,,,3,,,75,127
18048,note_on,,,,,64,0,9,,,,,8,,,60,50
18048,note_on,,,,,64,0,5,,,,,4,,,67,92
18048,note_on,,,,,64,0,7,,,,,6,,,48,75
18048,note_on,,,,,64,0,6,,,,,5,,,60,92
18048,note_on,,,,,64,0,8,,,,,7,,,63,50
18048,note_on,,,,,0,0,8,,,,,7,,,67,50
18144,note_on,,,,,544,0,3,,,,,2,,,79,108
18144,note_on,,,,,544,0,2,,,,,1,,,79,63
18144,note_on,,,,,544,0,1,,,,,0,,,79,63
18236,note_off,,,,,92,0,2,,,,,1,,,79,0
18236,note_off,,,,,92,0,1,,,,,0,,,79,0
18236,note_off,,,,,92,0,3,,,,,2,,,79,0
18240,note_on,,,,,4,0,3,,,,,2,,,77,108
18240,note_on,,,,,4,0,1,,,,,0,,,77,63
18240,note_on,,,,,4,0,2,,,,,1,,,77,63
18332,note_off,,,,,92,0,1,,,,,0,,,77,0
18332,note_off,,,,,92,0,3,,,,,2,,,77,0
18332,note_off,,,,,92,0,2,,,,,1,,,77,0
18336,note_on,,,,,4,0,3,,,,,2,,,79,108
18336,note_on,,,,,4,0,1,,,,,0,,,79,63
18336,note_on,,,,,4,0,2,,,,,1,,,79,63
18368,note_off,,,,,320,0,6,,,,,5,,,60,0
18368,note_off,,,,,320,0,7,,,,,6,,,48,0
18368,note_off,,,,,320,0,8,,,,,7,,,63,0
18368,note_off,,,,,0,0,8,,,,,7,,,67,0
18368,note_off,,,,,320,0,5,,,,,4,,,67,0
18368,note_off,,,,,320,0,9,,,,,8,,,60,0
18428,note_off,,,,,92,0,3,,,,,2,,,79,0
18428,note_off,,,,,92,0,1,,,,,0,,,79,0
18428,note_off,,,,,92,0,2,,,,,1,,,79,0
18432,note_on,,,,,64,0,5,,,,,4,,,70,92
18432,note_on,,,,,64,0,8,,,,,7,,,63,50
18432,note_on,,,,,64,0,7,,,,,6,,,43,75
18432,note_on,,,,,0,0,8,,,,,7,,,70,50
18432,note_on,,,,,64,0,6,,,,,5,,,55,92
18432,note_on,,,,,4,0,2,,,,,1,,,75,63
18432,note_on,,,,,64,0,9,,,,,8,,,55,50
18432,note_on,,,,,4,0,1,,,,,0,,,75,63
18432,note_on,,,,,4,0,3,,,,,2,,,75,108
18524,note_off,,,,,92,0,2,,,,,1,,,75,0
18524,note_off,,,,,92,0,3,,,,,2,,,75,0
18524,note_off,,,,,92,0,1,,,,,0,,,75,0
18528,note_on,,,,,4,0,3,,,,,2,,,82,108
18528,note_on,,,,,4,0,1,,,,,0,,,82,63
18528,note_on,,,,,4,0,2,,,,,1,,,82,63
18620,note_off,,,,,92,0,3,,,,,2,,,82,0
18620,note_off,,,,,92,0,1,,,,,0,,,82,0
18620,note_off,,,,,92,0,2,,,,,1,,,82,0
18624,note_on,,,,,4,0,2,,,,,1,,,80,63
18624,note_on,,,,,4,0,1,,,,,0,,,80,63
18624,note_on,,,,,4,0,3,,,,,2,,,80,108
18716,note_off,,,,,92,0,3,,,,,2,,,80,0
18716,note_off,,,,,92,0,2,,,,,1,,,80,0
18716,note_off,,,,,92,0,1,,,,,0,,,80,0
18720,note_on,,,,,4,0,1,,,,,0,,,82,63
18720,note_on,,,,,4,0,2,,,,,1,,,82,63
18720,note_on,,,,,4,0,3,,,,,2,,,82,108
18752,note_off,,,,,0,0,8,,,,,7,,,70,0
18752,note_off,,,,,320,0,7,,,,,6,,,43,0
18752,note_off,,,,,320,0,9,,,,,8,,,55,0
18752,note_off,,,,,320,0,5,,,,,4,,,70,0
18752,note_off,,,,,320,0,8,,,,,7,,,63,0
18752,note_off,,,,,320,0,6,,,,,5,,,55,0
18812,note_off,,,,,92,0,2,,,,,1,,,82,0
18812,note_off,,,,,92,0,1,,,,,0,,,82,0
18812,note_off,,,,,92,0,3,,,,,2,,,82,0
18816,note_on,,,,,64,0,8,,,,,7,,,63,50
18816,note_on,,,,,0,0,8,,,,,7,,,72,50
18816,note_on,,,,,0,0,8,,,,,7,,,65,50
18816,note_on,,,,,4,0,1,,,,,0,,,77,63
18816,note_on,,,,,64,0,9,,,,,8,,,56,50
18816,note_on,,,,,64,0,5,,,,,4,,,72,92
18816,note_on,,,,,64,0,6,,,,,5,,,56,92
18816,note_on,,,,,64,0,7,,,,,6,,,44,75
18816,note_on,,,,,4,0,3,,,,,2,,,77,108
18816,note_on,,,,,4,0,2,,,,,1,,,77,63
18908,note_off,,,,,860,0,4,,,,,3,,,75,0
18908,note_off,,,,,92,0,2,,,,,1,,,77,0
18908,note_off,,,,,92,0,1,,,,,0,,,77,0
18908,note_off,,,,,92,0,3,,,,,2,,,77,0
18912,note_on,,,,,4,0,4,,,,,3,,,77,127
18912,note_on,,,,,4,0,2,,,,,1,,,80,63
18912,note_on,,,,,4,0,1,,,,,0,,,80,63
18912,note_on,,,,,4,0,3,,,,,2,,,80,108
19004,note_off,,,,,92,0,4,,,,,3,,,77,0
19004,note_off,,,,,92,0,2,,,,,1,,,80,0
19004,note_off,,,,,92,0,1,,,,,0,,,80,0
19004,note_off,,,,,92,0,3,,,,,2,,,80,0
19008,note_on,,,,,4,0,3,,,,,2,,,79,108
19008,note_on,,,,,4,0,2,,,,,1,,,79,63
19008,note_on,,,,,4,0,4,,,,,3,,,75,127
19008,note_on,,,,,4,0,1,,,,,0,,,79,63
19100,note_off,,,,,92,0,1,,,,,0,,,79,0
19100,note_off,,,,,92,0,4,,,,,3,,,75,0
19100,note_off,,,,,92,0,2,,,,,1,,,79,0
19100,note_off,,,,,92,0,3,,,,,2,,,79,0
19104,note_on,,,,,4,0,4,,,,,3,,,77,127
19104,note_on,,,,,4,0,3,,,,,2,,,80,108
19104,note_on,,,,,4,0,1,,,,,0,,,80,63
19104,note_on,,,,,4,0,2,,,,,1,,,80,63
19136,note_off,,,,,320,0,6,,,,,5,,,56,0
19136,note_off,,,,,320,0,5,,,,,4,,,72,0
19136,note_off,,,,,0,0,8,,,,,7,,,72,0
19136,note_off,,,,,320,0,9,,,,,8,,,56,0
19136,note_off,,,,,320,0,7,,,,,6,,,44,0
19136,note_off,,,,,320,0,8,,,,,7,,,63,0
19136,note_off,,,,,0,0,8,,,,,7,,,65,0
19196,note_off,,,,,92,0,2,,,,,1,,,80,0
19196,note_off,,,,,92,0,3,,,,,2,,,80,0
19196,note_off,,,,,92,0,4,,,,,3,,,77,0
19196,note_off,,,,,92,0,1,,,,,0,,,80,0
19200,note_on,,,,,64,0,9,,,,,8,,,58,50
19200,note_on,,,,,4,0,3,,,,,2,,,77,108
19200,note_on,,,,,4,0,2,,,,,1,,,77,63
19200,note_on,,,,,4,0,4,,,,,3,,,74,127
19200,note_on,,,,,4,0,1,,,,,0,,,77,63
19200,note_on,,,,,64,0,7,,,,,6,,,46,75
19200,note_on,,,,,0,0,8,,,,,7,,,70,50
19200,note_on,,,,,0,0,8,,,,,7,,,65,50
19200,note_on,,,,,64,0,8,,,,,7,,,62,50
19200,note_on,,,,,64,0,5,,,,,4,,,62,92
19200,note_on,,,,,64,0,6,,,,,5,,,58,92
19292,note_off,,,,,92,0,1,,,,,0,,,77,0
19292,note_off,,,,,92,0,3,,,,,2,,,77,0
19292,note_off,,,,,92,0,2,,,,,1,,,77,0
19296,note_on,,,,,4,0,3,,,,,2,,,82,108
19296,note_on,,,,,4,0,1,,,,,0,,,82,63
19296,note_on,,,,,4,0,2,,,,,1,,,82,63
19388,note_off,,,,,92,0,3,,,,,2,,,82,0
19388,note_off,,,,,92,0,1,,,,,0,,,82,0
19388,note_off,,,,,92,0,2,,,,,1,,,82,0
19388,note_off,,,,,188,0,4,,,,,3,,,74,0
19392,note_on,,,,,4,0,3,,,,,2,,,80,108
19392,note_on,,,,,4,0,1,,,,,0,,,80,63
19392,note_on,,,,,4,0,4,,,,,3,,,70,127
19392,note_on,,,,,4,0,2,,,,,1,,,80,63
19484,note_off,,,,,92,0,1,,,,,0,,,80,0
19484,note_off,,,,,92,0,2,,,,,1,,,80,0
19484,note_off,,,,,92,0,3,,,,,2,,,80,0
19488,note_on,,,,,4,0,1,,,,,0,,,82,63
19488,note_on,,,,,4,0,2,,,,,1,,,82,63
19488,note_on,,,,,4,0,3,,,,,2,,,82,108
19520,note_off,,,,,0,0,8,,,,,7,,,65,0
19520,note_off,,,,,0,0,8,,,,,7,,,70,0
19520,note_off,,,,,320,0,5,,,,,4,,,62,0
19520,note_off,,,,,320,0,6,,,,,5,,,58,0
19520,note_off,,,,,320,0,7,,,,,6,,,46,0
19520,note_off,,,,,320,0,9,,,,,8,,,58,0
19520,note_off,,,,,320,0,8,,,,,7,,,62,0
19580,note_off,,,,,188,0,4,,,,,3,,,70,0
19580,note_off,,,,,92,0,1,,,,,0,,,82,0
19580,note_off,,,,,92,0,2,,,,,1,,,82,0
19580,note_off,,,,,92,0,3,,,,,2,,,82,0
19584,note_on,,,,,64,0,5,,,,,4,,,63,92
19584,note_on,,,,,64,0,7,,,,,6,,,48,75
19584,note_on,,,,,64,0,6,,,,,5,,,60,92
19584,note_on,,,,,0,0,8,,,,,7,,,67,50
19584,note_on,,,,,64,0,8,,,,,7,,,63,50
19584,note_on,,,,,4,0,2,,,,,1,,,75,63
19584,note_on,,,,,64,0,9,,,,,8,,,60,50
19584,note_on,,,,,4,0,1,,,,,0,,,75,63
19584,note_on,,,,,4,0,3,,,,,2,,,75,108
19584,note_on,,,,,4,0,4,,,,,3,,,67,127
19676,note_off,,,,,92,0,4,,,,,3,,,67,0
19680,note_on,,,,,4,0,4,,,,,3,,,63,127
19772,note_off,,,,,92,0,4,,,,,3,,,63,0
19776,note_on,,,,,4,0,4,,,,,3,,,62,127
19868,note_off,,,,,92,0,4,,,,,3,,,62,0
19872,note_on,,,,,4,0,4,,,,,3,,,63,127
19904,note_off,,,,,320,0,6,,,,,5,,,60,0
19904,note_off,,,,,320,0,5,,,,,4,,,63,0
19904,note_off,,,,,320,0,7,,,,,6,,,48,0
19904,note_off,,,,,320,0,9,,,,,8,,,60,0
19904,note_off,,,,,320,0,8,,,,,7,,,63,0
19904,note_off,,,,,0,0,8,,,,,7,,,67,0
19964,note_off,,,,,92,0,4,,,,,3,,,63,0
19968,note_on,,,,,64,0,6,,,,,5,,,55,92
19968,note_on,,,,,64,0,7,,,,,6,,,43,75
19968,note_on,,,,,64,0,9,,,,,8,,,55,50
19968,note_on,,,,,0,0,8,,,,,7,,,70,50
19968,note_on,,,,,0,0,8,,,,,7,,,63,50
19968,note_on,,,,,4,0,4,,,,,3,,,58,127
19968,note_on,,,,,64,0,8,,,,,7,,,58,50
20060,note_off,,,,,476,0,2,,,,,1,,,75,0
20060,note_off,,,,,476,0,3,,,,,2,,,75,0
20060,note_off,,,,,476,0,1,,,,,0,,,75,0
20064,note_on,,,,,4,0,1,,,,,0,,,75,63
20064,note_on,,,,,4,0,3,,,,,2,,,75,108
20064,note_on,,,,,4,0,2,,,,,1,,,75,63
20156,note_off,,,,,92,0,1,,,,,0,,,75,0
20156,note_off,,,,,92,0,3,,,,,2,,,75,0
20156,note_off,,,,,188,0,7,,,,,6,,,43,0
20156,note_off,,,,,188,0,4,,,,,3,,,58,0
20156,note_off,,,,,188,0,6,,,,,5,,,55,0
20156,note_off,,,,,188,0,9,,,,,8,,,55,0
20156,note_off,,,,,92,0,2,,,,,1,,,75,0
20160,note_on,,,,,4,0,3,,,,,2,,,74,108
20160,note_on,,,,,4,0,9,,,,,8,,,43,50
20160,note_on,,,,,4,0,4,,,,,3,,,70,127
20160,note_on,,,,,4,0,6,,,,,5,,,43,92
20160,note_on,,,,,4,0,7,,,,,6,,,31,75
20160,note_on,,,,,4,0,1,,,,,0,,,74,63
20160,note_on,,,,,4,0,2,,,,,1,,,74,63
20160,note_on,,,,,256,0,5,,,,,4,,,63,92
20252,note_off,,,,,92,0,2,,,,,1,,,74,0
20252,note_off,,,,,92,0,1,,,,,0,,,74,0
20252,note_off,,,,,92,0,3,,,,,2,,,74,0
20256,note_on,,,,,4,0,3,,,,,2,,,75,108
20256,note_on,,,,,4,0,1,,,,,0,,,75,63
20256,note_on,,,,,4,0,2,,,,,1,,,75,63
20288,note_off,,,,,0,0,8,,,,,7,,,70,0
20288,note_off,,,,,320,0,8,,,,,7,,,58,0
20288,note_off,,,,,0,0,8,,,,,7,,,63,0
20348,note_off,,,,,188,0,7,,,,,6,,,31,0
20348,note_off,,,,,92,0,3,,,,,2,,,75,0
20348,note_off,,,,,92,0,1,,,,,0,,,75,0
20348,note_off,,,,,188,0,5,,,,,4,,,63,0
20348,note_off,,,,,92,0,2,,,,,1,,,75,0
20348,note_off,,,,,188,0,9,,,,,8,,,43,0
20348,note_off,,,,,188,0,4,,,,,3,,,70,0
20348,note_off,,,,,188,0,6,,,,,5,,,43,0
20352,note_on,,,,,4,0,1,,,,,0,,,72,63
20352,note_on,,,,,4,0,5,,,,,4,,,63,92
20352,note_on,,,,,64,0,8,,,,,7,,,60,50
20352,note_on,,,,,0,0,8,,,,,7,,,63,50
20352,note_on,,,,,4,0,2,,,,,1,,,72,63
20352,note_on,,,,,0,0,8,,,,,7,,,68,50
20352,note_on,,,,,4,0,3,,,,,2,,,72,108
20352,note_on,,,,,4,0,4,,,,,3,,,68,127
20352,note_on,,,,,4,0,7,,,,,6,,,32,75
20352,note_on,,,,,4,0,6,,,,,5,,,44,92
20352,note_on,,,,,4,0,9,,,,,8,,,44,50
20540,note_off,,,,,188,0,6,,,,,5,,,44,0
20540,note_off,,,,,188,0,7,,,,,6,,,32,0
20540,note_off,,,,,188,0,9,,,,,8,,,44,0
20544,note_on,,,,,4,0,9,,,,,8,,,46,50
20544,note_on,,,,,4,0,6,,,,,5,,,46,92
20544,note_on,,,,,4,0,7,,,,,6,,,34,75
20636,note_off,,,,,284,0,2,,,,,1,,,72,0
20636,note_off,,,,,284,0,3,,,,,2,,,72,0
20636,note_off,,,,,284,0,1,,,,,0,,,72,0
20640,note_on,,,,,4,0,2,,,,,1,,,70,63
20640,note_on,,,,,4,0,1,,,,,0,,,70,63
20640,note_on,,,,,4,0,3,,,,,2,,,70,108
20672,note_off,,,,,320,0,8,,,,,7,,,60,0
20672,note_off,,,,,320,0,5,,,,,4,,,63,0
20672,note_off,,,,,320,0,4,,,,,3,,,68,0
20672,note_off,,,,,0,0,8,,,,,7,,,68,0
20672,note_off,,,,,0,0,8,,,,,7,,,63,0
20732,note_off,,,,,92,0,2,,,,,1,,,70,0
20732,note_off,,,,,92,0,1,,,,,0,,,70,0
20732,note_off,,,,,188,0,9,,,,,8,,,46,0
20732,note_off,,,,,188,0,7,,,,,6,,,34,0
20732,note_off,,,,,92,0,3,,,,,2,,,70,0
20732,note_off,,,,,188,0,6,,,,,5,,,46,0
20736,note_on,,,,,4,0,2,,,,,1,,,68,63
20736,note_on,,,,,4,0,6,,,,,5,,,48,92
20736,note_on,,,,,4,0,9,,,,,8,,,48,50
20736,note_on,,,,,4,0,3,,,,,2,,,68,108
20736,note_on,,,,,4,0,7,,,,,6,,,36,75
20736,note_on,,,,,0,0,8,,,,,7,,,63,50
20736,note_on,,,,,64,0,8,,,,,7,,,60,50
20736,note_on,,,,,4,0,1,,,,,0,,,68,63
20736,note_on,,,,,0,0,8,,,,,7,,,68,50
20828,note_off,,,,,92,0,2,,,,,1,,,68,0
20828,note_off,,,,,92,0,3,,,,,2,,,68,0
20828,note_off,,,,,92,0,1,,,,,0,,,68,0
20832,note_on,,,,,4,0,3,,,,,2,,,67,108
20832,note_on,,,,,4,0,1,,,,,0,,,67,63
20832,note_on,,,,,4,0,2,,,,,1,,,67,63
20924,note_off,,,,,188,0,8,,,,,7,,,63,0
20924,note_off,,,,,188,0,7,,,,,6,,,36,0
20924,note_off,,,,,188,0,9,,,,,8,,,48,0
20924,note_off,,,,,188,0,6,,,,,5,,,48,0
20924,note_off,,,,,92,0,3,,,,,2,,,67,0
20924,note_off,,,,,92,0,1,,,,,0,,,67,0
20924,note_off,,,,,92,0,2,,,,,1,,,67,0
20928,note_on,,,,,4,0,3,,,,,2,,,65,108
20928,note_on,,,,,4,0,9,,,,,8,,,44,50
20928,note_on,,,,,4,0,6,,,,,5,,,44,92
20928,note_on,,,,,256,0,5,,,,,4,,,60,92
20928,note_on,,,,,4,0,8,,,,,7,,,65,50
20928,note_on,,,,,4,0,7,,,,,6,,,32,75
20928,note_on,,,,,4,0,1,,,,,0,,,65,63
20928,note_on,,,,,256,0,4,,,,,3,,,68,127
20928,note_on,,,,,4,0,2,,,,,1,,,65,63
21020,note_off,,,,,92,0,2,,,,,1,,,65,0
21020,note_off,,,,,92,0,1,,,,,0,,,65,0
21020,note_off,,,,,92,0,3,,,,,2,,,65,0
21024,note_on,,,,,4,0,1,,,,,0,,,63,63
21024,note_on,,,,,4,0,3,,,,,2,,,63,108
21024,note_on,,,,,4,0,2,,,,,1,,,63,63
21116,note_off,,,,,0,0,8,,,,,7,,,68,0
21116,note_off,,,,,188,0,5,,,,,4,,,60,0
21116,note_off,,,,,188,0,7,,,,,6,,,32,0
21116,note_off,,,,,92,0,3,,,,,2,,,63,0
21116,note_off,,,,,188,0,4,,,,,3,,,68,0
21116,note_off,,,,,0,0,8,,,,,7,,,65,0
21116,note_off,,,,,188,0,6,,,,,5,,,44,0
21116,note_off,,,,,92,0,1,,,,,0,,,63,0
21116,note_off,,,,,188,0,9,,,,,8,,,44,0
21116,note_off,,,,,92,0,2,,,,,1,,,63,0
21116,note_off,,,,,188,0,8,,,,,7,,,60,0
21120,note_on,,,,,4,0,1,,,,,0,,,62,63
21120,note_on,,,,,4,0,2,,,,,1,,,62,63
21120,note_on,,,,,4,0,8,,,,,7,,,62,50
21120,note_on,,,,,0,0,8,,,,,7,,,65,50
21120,note_on,,,,,4,0,9,,,,,8,,,46,50
21120,note_on,,,,,4,0,3,,,,,2,,,62,108
21120,note_on,,,,,4,0,4,,,,,3,,,65,127
21120,note_on,,,,,4,0,6,,,,,5,,,46,92
21120,note_on,,,,,4,0,7,,,,,6,,,34,75
21120,note_on,,,,,4,0,5,,,,,4,,,62,92
21308,note_off,,,,,188,0,8,,,,,7,,,65,0
21308,note_off,,,,,188,0,6,,,,,5,,,46,0
21308,note_off,,,,,188,0,3,,,,,2,,,62,0
21308,note_off,,,,,188,0,2,,,,,1,,,62,0
21308,note_off,,,,,188,0,9,,,,,8,,,46,0
21308,note_off,,,,,188,0,4,,,,,3,,,65,0
21308,note_off,,,,,188,0,1,,,,,0,,,62,0
21308,note_off,,,,,188,0,7,,,,,6,,,34,0
21312,note_on,,,,,0,0,8,,,,,7,,,67,50
21312,note_on,,,,,4,0,8,,,,,7,,,58,50
21312,note_on,,,,,4,0,6,,,,,5,,,43,92
21312,note_on,,,,,4,0,7,,,,,6,,,31,75
21312,note_on,,,,,4,0,2,,,,,1,,,70,63
21312,note_on,,,,,4,0,9,,,,,8,,,43,50
21312,note_on,,,,,4,0,4,,,,,3,,,67,127
21312,note_on,,,,,4,0,3,,,,,2,,,70,108
21312,note_on,,,,,4,0,1,,,,,0,,,70,63
21440,note_off,,,,,320,0,5,,,,,4,,,62,0
21500,note_off,,,,,188,0,4,,,,,3,,,67,0
21500,note_off,,,,,188,0,3,,,,,2,,,70,0
21500,note_off,,,,,188,0,6,,,,,5,,,43,0
21500,note_off,,,,,188,0,7,,,,,6,,,31,0
21500,note_off,,,,,0,0,8,,,,,7,,,58,0
21500,note_off,,,,,188,0,8,,,,,7,,,62,0
21500,note_off,,,,,188,0,2,,,,,1,,,70,0
21500,note_off,,,,,188,0,9,,,,,8,,,43,0
21500,note_off,,,,,0,0,8,,,,,7,,,67,0
21500,note_off,,,,,188,0,1,,,,,0,,,70,0
21504,note_on,,,,,64,0,5,,,,,4,,,63,92
21504,note_on,,,,,4,0,6,,,,,5,,,48,92
21504,note_on,,,,,4,0,2,,,,,1,,,63,63
21504,note_on,,,,,4,0,7,,,,,6,,,36,75
21504,note_on,,,,,0,0,8,,,,,7,,,60,50
21504,note_on,,,,,4,0,9,,,,,8,,,48,50
21504,note_on,,,,,4,0,1,,,,,0,,,63,63
21504,note_on,,,,,0,0,8,,,,,7,,,63,50
21504,note_on,,,,,4,0,8,,,,,7,,,55,50
21504,note_on,,,,,4,0,3,,,,,2,,,63,108
21692,note_off,,,,,0,0,8,,,,,7,,,60,0
21692,note_off,,,,,188,0,8,,,,,7,,,55,0
21692,note_off,,,,,188,0,6,,,,,5,,,48,0
21692,note_off,,,,,188,0,2,,,,,1,,,63,0
21692,note_off,,,,,188,0,5,,,,,4,,,63,0
21692,note_off,,,,,188,0,1,,,,,0,,,63,0
21692,note_off,,,,,188,0,3,,,,,2,,,63,0
21692,note_off,,,,,188,0,9,,,,,8,,,48,0
21692,note_off,,,,,0,0,8,,,,,7,,,63,0
21692,note_off,,,,,188,0,7,,,,,6,,,36,0
21696,note_on,,,,,4,0,3,,,,,2,,,68,108
21696,note_on,,,,,4,0,7,,,,,6,,,32,75
21696,note_on,,,,,4,0,9,,,,,8,,,44,50
21696,note_on,,,,,4,0,6,,,,,5,,,44,92
21696,note_on,,,,,4,0,5,,,,,4,,,60,92
21696,note_on,,,,,4,0,1,,,,,0,,,68,63
21696,note_on,,,,,4,0,8,,,,,7,,,60,50
21696,note_on,,,,,0,0,8,,,,,7,,,63,50
21696,note_on,,,,,4,0,2,,,,,1,,,68,63
21696,note_on,,,,,196,0,4,,,,,3,,,63,127
21884,note_off,,,,,188,0,9,,,,,8,,,44,0
21884,note_off,,,,,188,0,7,,,,,6,,,32,0
21884,note_off,,,,,188,0,4,,,,,3,,,63,0
21884,note_off,,,,,188,0,2,,,,,1,,,68,0
21884,note_off,,,,,188,0,5,,,,,4,,,60,0
21884,note_off,,,,,188,0,3,,,,,2,,,68,0
21884,note_off,,,,,0,0,8,,,,,7,,,63,0
21884,note_off,,,,,188,0,1,,,,,0,,,68,0
21884,note_off,,,,,188,0,6,,,,,5,,,44,0
21884,note_off,,,,,188,0,8,,,,,7,,,60,0
21888,note_on,,,,,4,0,6,,,,,5,,,46,92
21888,note_on,,,,,4,0,5,,,,,4,,,58,92
21888,note_on,,,,,4,0,2,,,,,1,,,67,63
21888,note_on,,,,,0,0,8,,,,,7,,,63,50
21888,note_on,,,,,4,0,8,,,,,7,,,58,50
21888,note_on,,,,,4,0,1,,,,,0,,,67,63
21888,note_on,,,,,4,0,3,,,,,2,,,67,108
21888,note_on,,,,,4,0,4,,,,,3,,,63,127
21888,note_on,,,,,4,0,7,,,,,6,,,34,75
21888,note_on,,,,,4,0,9,,,,,8,,,46,50
22076,note_off,,,,,188,0,8,,,,,7,,,63,0
22076,note_off,,,,,188,0,1,,,,,0,,,67,0
22076,note_off,,,,,188,0,3,,,,,2,,,67,0
22076,note_off,,,,,188,0,4,,,,,3,,,63,0
22076,note_off,,,,,188,0,2,,,,,1,,,67,0
22080,note_on,,,,,4,0,8,,,,,7,,,62,50
22080,note_on,,,,,4,0,2,,,,,1,,,65,63
22080,note_on,,,,,4,0,3,,,,,2,,,65,108
22080,note_on,,,,,4,0,1,,,,,0,,,65,63
22080,note_on,,,,,4,0,4,,,,,3,,,62,127
22172,note_off,,,,,92,0,3,,,,,2,,,65,0
22172,note_off,,,,,92,0,2,,,,,1,,,65,0
22172,note_off,,,,,92,0,1,,,,,0,,,65,0
22176,note_on,,,,,4,0,3,,,,,2,,,63,108
22176,note_on,,,,,4,0,1,,,,,0,,,63,63
22176,note_on,,,,,4,0,2,,,,,1,,,63,63
22208,note_off,,,,,320,0,7,,,,,6,,,34,0
22208,note_off,,,,,320,0,9,,,,,8,,,46,0
22208,note_off,,,,,320,0,5,,,,,4,,,58,0
22208,note_off,,,,,320,0,6,,,,,5,,,46,0
22208,note_off,,,,,128,0,8,,,,,7,,,58,0
22268,note_off,,,,,92,0,3,,,,,2,,,63,0
22268,note_off,,,,,92,0,2,,,,,1,,,63,0
22268,note_off,,,,,92,0,1,,,,,0,,,63,0
22268,note_off,,,,,60,0,8,,,,,7,,,62,0
22268,note_off,,,,,188,0,4,,,,,3,,,62,0
22272,note_on,,,,,4,0,1,,,,,0,,,58,63
22272,note_on,,,,,4,0,2,,,,,1,,,58,63
22272,note_on,,,,,4,0,3,,,,,2,,,58,108
22460,note_off,,,,,188,0,2,,,,,1,,,58,0
22460,note_off,,,,,188,0,1,,,,,0,,,58,0
22460,note_off,,,,,188,0,3,,,,,2,,,58,0
22464,note_on,,,,,4,0,2,,,,,1,,,62,63
22464,note_on,,,,,4,0,1,,,,,0,,,62,63
22464,note_on,,,,,4,0,3,,,,,2,,,62,108
22652,note_off,,,,,188,0,1,,,,,0,,,62,0
22652,note_off,,,,,188,0,3,,,,,2,,,62,0
22652,note_off,,,,,188,0,2,,,,,1,,,62,0
22656,note_on,,,,,448,0,9,,,,,8,,,58,50
22656,note_on,,,,,4,0,1,,,,,0,,,76,88
22656,note_on,,,,,4,0,2,,,,,1,,,76,88
22656,note_on,,,,,388,0,4,,,,,3,,,72,127
22656,note_on,,,,,448,0,7,,,,,6,,,46,75
22656,note_on,,,,,448,0,5,,,,,4,,,67,92
22656,note_on,,,,,0,0,8,,,,,7,,,67,50
22656,note_on,,,,,388,0,8,,,,,7,,,60,50
22656,note_on,,,,,4,0,3,,,,,2,,,76,127
22656,note_on,,,,,448,0,6,,,,,5,,,58,92
22656,note_on,,,,,0,0,8,,,,,7,,,64,50
22976,note_off,,,,,320,0,5,,,,,4,,,67,0
22976,note_off,,,,,320,0,1,,,,,0,,,76,0
22976,note_off,,,,,320,0,4,,,,,3,,,72,0
22976,note_off,,,,,320,0,2,,,,,1,,,76,0
22976,note_off,,,,,320,0,7,,,,,6,,,46,0
22976,note_off,,,,,0,0,8,,,,,7,,,67,0
22976,note_off,,,,,0,0,8,,,,,7,,,64,0
22976,note_off,,,,,320,0,8,,,,,7,,,60,0
22976,note_off,,,,,320,0,3,,,,,2,,,76,0
22976,note_off,,,,,320,0,6,,,,,5,,,58,0
22976,note_off,,,,,320,0,9,,,,,8,,,58,0
23232,note_on,,,,,256,0,4,,,,,3,,,67,75
23232,note_on,,,,,256,0,5,,,,,4,,,67,60
23420,note_off,,,,,188,0,5,,,,,4,,,67,0
23420,note_off,,,,,188,0,4,,,,,3,,,67,0
23424,note_on,,,,,4,0,5,,,,,4,,,72,60
23424,note_on,,,,,4,0,4,,,,,3,,,72,75
23612,note_off,,,,,188,0,5,,,,,4,,,72,0
23612,note_off,,,,,188,0,4,,,,,3,,,72,0
23616,note_on,,,,,4,0,4,,,,,3,,,67,75
23616,note_on,,,,,4,0,5,,,,,4,,,67,60
23708,note_off,,,,,92,0,4,,,,,3,,,67,0
23708,note_off,,,,,92,0,5,,,,,4,,,67,0
23712,note_on,,,,,4,0,5,,,,,4,,,65,60
23712,note_on,,,,,4,0,4,,,,,3,,,65,75
23804,note_off,,,,,92,0,4,,,,,3,,,65,0
23804,note_off,,,,,92,0,5,,,,,4,,,65,0
23808,note_on,,,,,4,0,4,,,,,3,,,64,75
23808,note_on,,,,,4,0,5,,,,,4,,,64,60
23996,note_off,,,,,188,0,4,,,,,3,,,64,0
23996,note_off,,,,,188,0,5,,,,,4,,,64,0
24000,note_on,,,,,4,0,5,,,,,4,,,62,60
24000,note_on,,,,,4,0,4,,,,,3,,,62,75
24092,note_off,,,,,92,0,5,,,,,4,,,62,0
24092,note_off,,,,,92,0,4,,,,,3,,,62,0
24096,note_on,,,,,4,0,4,,,,,3,,,64,75
24096,note_on,,,,,4,0,5,,,,,4,,,64,60
24188,note_off,,,,,92,0,4,,,,,3,,,64,0
24188,note_off,,,,,92,0,5,,,,,4,,,64,0
24192,note_on,,,,,4,0,5,,,,,4,,,60,60
24192,note_on,,,,,4,0,4,,,,,3,,,60,75
24512,note_off,,,,,320,0,5,,,,,4,,,60,0
24512,note_off,,,,,320,0,4,,,,,3,,,60,0
24768,note_on,,,,,1792,0,8,,,,,7,,,64,50
24768,note_on,,,,,1792,0,1,,,,,0,,,76,63
24768,note_on,,,,,1792,0,9,,,,,8,,,46,50
24768,note_on,,,,,1792,0,2,,,,,1,,,76,63
24768,note_on,,,,,1792,0,6,,,,,5,,,46,92
24768,note_on,,,,,0,0,8,,,,,7,,,67,50
24768,note_on,,,,,256,0,4,,,,,3,,,67,127
24768,note_on,,,,,0,0,8,,,,,7,,,72,50
24768,note_on,,,,,1792,0,3,,,,,2,,,76,108
24768,note_on,,,,,1792,0,7,,,,,6,,,34,75
24768,note_on,,,,,256,0,5,,,,,4,,,60,92
24956,note_off,,,,,0,0,8,,,,,7,,,67,0
24956,note_off,,,,,188,0,4,,,,,3,,,67,0
24956,note_off,,,,,188,0,9,,,,,8,,,46,0
24956,note_off,,,,,188,0,3,,,,,2,,,76,0
24956,note_off,,,,,188,0,5,,,,,4,,,60,0
24956,note_off,,,,,188,0,8,,,,,7,,,64,0
24956,note_off,,,,,188,0,6,,,,,5,,,46,0
24956,note_off,,,,,188,0,7,,,,,6,,,34,0
24956,note_off,,,,,188,0,1,,,,,0,,,76,0
24956,note_off,,,,,188,0,2,,,,,1,,,76,0
24956,note_off,,,,,0,0,8,,,,,7,,,72,0
24960,note_on,,,,,4,0,7,,,,,6,,,32,75
24960,note_on,,,,,4,0,5,,,,,4,,,60,92
24960,note_on,,,,,0,0,8,,,,,7,,,72,50
24960,note_on,,,,,4,0,2,,,,,1,,,77,63
24960,note_on,,,,,4,0,6,,,,,5,,,44,92
24960,note_on,,,,,4,0,4,,,,,3,,,72,127
24960,note_on,,,,,4,0,8,,,,,7,,,60,50
24960,note_on,,,,,4,0,3,,,,,2,,,77,108
24960,note_on,,,,,0,0,8,,,,,7,,,65,50
24960,note_on,,,,,4,0,1,,,,,0,,,77,63
24960,note_on,,,,,4,0,9,,,,,8,,,44,50
25244,note_off,,,,,284,0,3,,,,,2,,,77,0
25244,note_off,,,,,284,0,1,,,,,0,,,77,0
25244,note_off,,,,,284,0,2,,,,,1,,,77,0
25248,note_on,,,,,4,0,2,,,,,1,,,75,63
25248,note_on,,,,,4,0,1,,,,,0,,,75,63
25248,note_on,,,,,4,0,3,,,,,2,,,75,108
25280,note_off,,,,,0,0,8,,,,,7,,,65,0
25280,note_off,,,,,320,0,8,,,,,7,,,60,0
25280,note_off,,,,,320,0,9,,,,,8,,,44,0
25280,note_off,,,,,320,0,4,,,,,3,,,72,0
25280,note_off,,,,,0,0,8,,,,,7,,,72,0
25280,note_off,,,,,320,0,7,,,,,6,,,32,0
25280,note_off,,,,,320,0,5,,,,,4,,,60,0
25280,note_off,,,,,320,0,6,,,,,5,,,44,0
25292,note_off,,,,,44,0,1,,,,,0,,,75,0
25292,note_off,,,,,44,0,2,,,,,1,,,75,0
25292,note_off,,,,,44,0,3,,,,,2,,,75,0
25296,note_on,,,,,4,0,1,,,,,0,,,73,63
25296,note_on,,,,,4,0,3,,,,,2,,,73,108
25296,note_on,,,,,4,0,2,,,,,1,,,73,63
25340,note_off,,,,,44,0,1,,,,,0,,,73,0
25340,note_off,,,,,44,0,2,,,,,1,,,73,0
25340,note_off,,,,,44,0,3,,,,,2,,,73,0
25344,note_on,,,,,4,0,1,,,,,0,,,72,63
25344,note_on,,,,,4,0,3,,,,,2,,,72,108
25344,note_on,,,,,4,0,2,,,,,1,,,72,63
25532,note_off,,,,,188,0,3,,,,,2,,,72,0
25532,note_off,,,,,188,0,2,,,,,1,,,72,0
25532,note_off,,,,,188,0,1,,,,,0,,,72,0
25536,note_on,,,,,4,0,3,,,,,2,,,72,108
25536,note_on,,,,,4,0,1,,,,,0,,,72,63
25536,note_on,,,,,256,0,4,,,,,3,,,65,127
25536,note_on,,,,,256,0,7,,,,,6,,,32,75
25536,note_on,,,,,256,0,5,,,,,4,,,68,92
25536,note_on,,,,,256,0,8,,,,,7,,,60,50
25536,note_on,,,,,256,0,6,,,,,5,,,44,92
25536,note_on,,,,,256,0,9,,,,,8,,,44,50
25536,note_on,,,,,0,0,8,,,,,7,,,65,50
25536,note_on,,,,,4,0,2,,,,,1,,,72,63
25724,note_off,,,,,188,0,6,,,,,5,,,44,0
25724,note_off,,,,,188,0,4,,,,,3,,,65,0
25724,note_off,,,,,188,0,8,,,,,7,,,60,0
25724,note_off,,,,,188,0,9,,,,,8,,,44,0
25724,note_off,,,,,188,0,1,,,,,0,,,72,0
25724,note_off,,,,,188,0,2,,,,,1,,,72,0
25724,note_off,,,,,188,0,3,,,,,2,,,72,0
25724,note_off,,,,,188,0,5,,,,,4,,,68,0
25724,note_off,,,,,0,0,8,,,,,7,,,65,0
25724,note_off,,,,,188,0,7,,,,,6,,,32,0
25728,note_on,,,,,4,0,7,,,,,6,,,34,75
25728,note_on,,,,,4,0,9,,,,,8,,,46,50
25728,note_on,,,,,4,0,8,,,,,7,,,58,50
25728,note_on,,,,,0,0,8,,,,,7,,,65,50
25728,note_on,,,,,4,0,5,,,,,4,,,61,92
25728,note_on,,,,,4,0,4,,,,,3,,,65,127
25728,note_on,,,,,4,0,1,,,,,0,,,73,63
25728,note_on,,,,,4,0,2,,,,,1,,,73,63
25728,note_on,,,,,4,0,3,,,,,2,,,73,108
25728,note_on,,,,,4,0,6,,,,,5,,,46,92
25728,note_on,,,,,0,0,8,,,,,7,,,61,50
25916,note_off,,,,,188,0,9,,,,,8,,,46,0
25916,note_off,,,,,0,0,8,,,,,7,,,61,0
25916,note_off,,,,,188,0,4,,,,,3,,,65,0
25916,note_off,,,,,188,0,7,,,,,6,,,34,0
25916,note_off,,,,,0,0,8,,,,,7,,,65,0
25916,note_off,,,,,188,0,6,,,,,5,,,46,0
25916,note_off,,,,,188,0,8,,,,,7,,,58,0
25916,note_off,,,,,188,0,5,,,,,4,,,61,0
25920,note_on,,,,,4,0,4,,,,,3,,,64,127
25920,note_on,,,,,4,0,7,,,,,6,,,36,75
25920,note_on,,,,,0,0,8,,,,,7,,,64,50
25920,note_on,,,,,0,0,8,,,,,7,,,60,50
25920,note_on,,,,,4,0,8,,,,,7,,,55,50
25920,note_on,,,,,4,0,9,,,,,8,,,48,50
25920,note_on,,,,,4,0,6,,,,,5,,,48,92
25920,note_on,,,,,4,0,5,,,,,4,,,55,92
26012,note_off,,,,,284,0,1,,,,,0,,,73,0
26012,note_off,,,,,284,0,2,,,,,1,,,73,0
26012,note_off,,,,,284,0,3,,,,,2,,,73,0
26016,note_on,,,,,4,0,1,,,,,0,,,72,63
26016,note_on,,,,,4,0,2,,,,,1,,,72,63
26016,note_on,,,,,4,0,3,,,,,2,,,72,108
26108,note_off,,,,,188,0,9,,,,,8,,,48,0
26108,note_off,,,,,188,0,6,,,,,5,,,48,0
26108,note_off,,,,,92,0,2,,,,,1,,,72,0
26108,note_off,,,,,0,0,8,,,,,7,,,64,0
26108,note_off,,,,,188,0,4,,,,,3,,,64,0
26108,note_off,,,,,188,0,5,,,,,4,,,55,0
26108,note_off,,,,,92,0,1,,,,,0,,,72,0
26108,note_off,,,,,188,0,7,,,,,6,,,36,0
26108,note_off,,,,,0,0,8,,,,,7,,,60,0
26108,note_off,,,,,92,0,3,,,,,2,,,72,0
26108,note_off,,,,,188,0,8,,,,,7,,,55,0
26112,note_on,,,,,4,0,8,,,,,7,,,53,50
26112,note_on,,,,,0,0,8,,,,,7,,,58,50
26112,note_on,,,,,0,0,8,,,,,7,,,65,50
26112,note_on,,,,,4,0,4,,,,,3,,,65,127
26112,note_on,,,,,4,0,1,,,,,0,,,70,63
26112,note_on,,,,,4,0,9,,,,,8,,,49,50
26112,note_on,,,,,4,0,7,,,,,6,,,37,75
26112,note_on,,,,,4,0,5,,,,,4,,,53,92
26112,note_on,,,,,4,0,3,,,,,2,,,70,108
26112,note_on,,,,,4,0,6,,,,,5,,,49,92
26112,note_on,,,,,4,0,2,,,,,1,,,70,63
26204,note_off,,,,,92,0,2,,,,,1,,,70,0
26204,note_off,,,,,92,0,1,,,,,0,,,70,0
26204,note_off,,,,,92,0,3,,,,,2,,,70,0
26208,note_on,,,,,4,0,1,,,,,0,,,68,63
26208,note_on,,,,,4,0,2,,,,,1,,,68,63
26208,note_on,,,,,4,0,3,,,,,2,,,68,108
26300,note_off,,,,,188,0,5,,,,,4,,,53,0
26300,note_off,,,,,0,0,8,,,,,7,,,58,0
26300,note_off,,,,,188,0,8,,,,,7,,,53,0
26300,note_off,,,,,92,0,3,,,,,2,,,68,0
26300,note_off,,,,,92,0,2,,,,,1,,,68,0
26300,note_off,,,,,188,0,9,,,,,8,,,49,0
26300,note_off,,,,,92,0,1,,,,,0,,,68,0
26300,note_off,,,,,188,0,4,,,,,3,,,65,0
26300,note_off,,,,,188,0,7,,,,,6,,,37,0
26300,note_off,,,,,188,0,6,,,,,5,,,49,0
26304,note_on,,,,,4,0,7,,,,,6,,,34,75
26304,note_on,,,,,4,0,9,,,,,8,,,46,50
26304,note_on,,,,,4,0,1,,,,,0,,,67,63
26304,note_on,,,,,4,0,4,,,,,3,,,61,127
26304,note_on,,,,,4,0,5,,,,,4,,,58,92
26304,note_on,,,,,4,0,8,,,,,7,,,55,50
26304,note_on,,,,,4,0,6,,,,,5,,,46,92
26304,note_on,,,,,4,0,3,,,,,2,,,67,108
26304,note_on,,,,,4,0,2,,,,,1,,,67,63
26304,note_on,,,,,0,0,8,,,,,7,,,61,50
26396,note_off,,,,,92,0,2,,,,,1,,,67,0
26396,note_off,,,,,92,0,3,,,,,2,,,67,0
26396,note_off,,,,,92,0,1,,,,,0,,,67,0
26400,note_on,,,,,4,0,2,,,,,1,,,65,63
26400,note_on,,,,,4,0,1,,,,,0,,,65,63
26400,note_on,,,,,4,0,3,,,,,2,,,65,108
26492,note_off,,,,,92,0,2,,,,,1,,,65,0
26492,note_off,,,,,188,0,6,,,,,5,,,46,0
26492,note_off,,,,,92,0,1,,,,,0,,,65,0
26492,note_off,,,,,188,0,9,,,,,8,,,46,0
26492,note_off,,,,,92,0,3,,,,,2,,,65,0
26492,note_off,,,,,188,0,8,,,,,7,,,65,0
26492,note_off,,,,,188,0,4,,,,,3,,,61,0
26492,note_off,,,,,188,0,5,,,,,4,,,58,0
26492,note_off,,,,,0,0,8,,,,,7,,,61,0
26492,note_off,,,,,0,0,8,,,,,7,,,55,0
26492,note_off,,,,,188,0,7,,,,,6,,,34,0
26496,note_on,,,,,4,0,3,,,,,2,,,64,108
26496,note_on,,,,,4,0,6,,,,,5,,,48,92
26496,note_on,,,,,4,0,5,,,,,4,,,55,92
26496,note_on,,,,,4,0,4,,,,,3,,,60,127
26496,note_on,,,,,4,0,8,,,,,7,,,55,50
26496,note_on,,,,,0,0,8,,,,,7,,,60,50
26496,note_on,,,,,4,0,7,,,,,6,,,36,75
26496,note_on,,,,,0,0,8,,,,,7,,,64,50
26496,note_on,,,,,4,0,2,,,,,1,,,64,63
26496,note_on,,,,,4,0,1,,,,,0,,,64,63
26496,note_on,,,,,4,0,9,,,,,8,,,48,50
26684,note_off,,,,,188,0,3,,,,,2,,,64,0
26684,note_off,,,,,188,0,1,,,,,0,,,64,0
26684,note_off,,,,,188,0,2,,,,,1,,,64,0
26688,note_on,,,,,4,0,3,,,,,2,,,65,108
26688,note_on,,,,,4,0,2,,,,,1,,,65,63
26688,note_on,,,,,4,0,1,,,,,0,,,65,63
26816,note_off,,,,,320,0,9,,,,,8,,,48,0
26816,note_off,,,,,320,0,8,,,,,7,,,55,0
26816,note_off,,,,,0,0,8,,,,,7,,,64,0
26816,note_off,,,,,320,0,4,,,,,3,,,60,0
26816,note_off,,,,,320,0,7,,,,,6,,,36,0
26816,note_off,,,,,320,0,5,,,,,4,,,55,0
26816,note_off,,,,,0,0,8,,,,,7,,,60,0
26816,note_off,,,,,320,0,6,,,,,5,,,48,0
26876,note_off,,,,,188,0,3,,,,,2,,,65,0
26876,note_off,,,,,188,0,1,,,,,0,,,65,0
26876,note_off,,,,,188,0,2,,,,,1,,,65,0
26880,note_on,,,,,4,0,1,,,,,0,,,55,63
26880,note_on,,,,,64,0,8,,,,,7,,,52,50
26880,note_on,,,,,64,0,6,,,,,5,,,36,92
26880,note_on,,,,,0,0,8,,,,,7,,,60,50
26880,note_on,,,,,64,0,7,,,,,6,,,24,75
26880,note_on,,,,,0,0,8,,,,,7,,,55,50
26880,note_on,,,,,4,0,2,,,,,1,,,55,63
26880,note_on,,,,,64,0,9,,,,,8,,,36,50
26880,note_on,,,,,4,0,3,,,,,2,,,55,108
27068,note_off,,,,,188,0,3,,,,,2,,,55,0
27068,note_off,,,,,188,0,1,,,,,0,,,55,0
27068,note_off,,,,,188,0,2,,,,,1,,,55,0
27072,note_on,,,,,4,0,1,,,,,0,,,64,63
27072,note_on,,,,,4,0,2,,,,,1,,,64,63
27072,note_on,,,,,4,0,3,,,,,2,,,64,108
27200,note_off,,,,,0,0,8,,,,,7,,,60,0
27200,note_off,,,,,0,0,8,,,,,7,,,55,0
27200,note_off,,,,,320,0,9,,,,,8,,,36,0
27200,note_off,,,,,320,0,7,,,,,6,,,24,0
27200,note_off,,,,,320,0,8,,,,,7,,,52,0
27200,note_off,,,,,320,0,6,,,,,5,,,36,0
27260,note_off,,,,,188,0,2,,,,,1,,,64,0
27260,note_off,,,,,188,0,3,,,,,2,,,64,0
27260,note_off,,,,,188,0,1,,,,,0,,,64,0
27264,note_on,,,,,0,0,8,,,,,7,,,74,50
27264,note_on,,,,,64,0,6,,,,,5,,,60,92
27264,note_on,,,,,0,0,8,,,,,7,,,68,50
27264,note_on,,,,,4,0,1,,,,,0,,,78,88
27264,note_on,,,,,64,0,9,,,,,8,,,60,50
27264,note_on,,,,,448,0,5,,,,,4,,,69,92
27264,note_on,,,,,64,0,8,,,,,7,,,66,50
27264,note_on,,,,,64,0,7,,,,,6,,,48,75
27264,note_on,,,,,448,0,4,,,,,3,,,75,127
27264,note_on,,,,,4,0,3,,,,,2,,,78,127
27264,note_on,,,,,4,0,2,,,,,1,,,78,88
27584,note_off,,,,,320,0,4,,,,,3,,,75,0
27584,note_off,,,,,320,0,3,,,,,2,,,78,0
27584,note_off,,,,,320,0,2,,,,,1,,,78,0
27584,note_off,,,,,320,0,9,,,,,8,,,60,0
27584,note_off,,,,,0,0,8,,,,,7,,,74,0
27584,note_off,,,,,320,0,5,,,,,4,,,69,0
27584,note_off,,,,,0,0,8,,,,,7,,,68,0
27584,note_off,,,,,320,0,7,,,,,6,,,48,0
27584,note_off,,,,,320,0,8,,,,,7,,,66,0
27584,note_off,,,,,320,0,6,,,,,5,,,60,0
27584,note_off,,,,,320,0,1,,,,,0,,,78,0
27840,note_on,,,,,256,0,5,,,,,4,,,69,60
27840,note_on,,,,,256,0,4,,,,,3,,,69,75
28028,note_off,,,,,188,0,5,,,,,4,,,69,0
28028,note_off,,,,,188,0,4,,,,,3,,,69,0
28032,note_on,,,,,4,0,4,,,,,3,,,74,75
28032,note_on,,,,,4,0,5,,,,,4,,,74,60
28220,note_off,,,,,188,0,5,,,,,4,,,74,0
28220,note_off,,,,,188,0,4,,,,,3,,,74,0
28224,note_on,,,,,4,0,4,,,,,3,,,69,75
28224,note_on,,,,,4,0,5,,,,,4,,,69,60
28316,note_off,,,,,92,0,4,,,,,3,,,69,0
28316,note_off,,,,,92,0,5,,,,,4,,,69,0
28320,note_on,,,,,4,0,4,,,,,3,,,67,75
28320,note_on,,,,,4,0,5,,,,,4,,,67,60
28412,note_off,,,,,92,0,4,,,,,3,,,67,0
28412,note_off,,,,,92,0,5,,,,,4,,,67,0
28416,note_on,,,,,4,0,5,,,,,4,,,66,60
28416,note_on,,,,,4,0,4,,,,,3,,,66,75
28604,note_off,,,,,188,0,5,,,,,4,,,66,0
28604,note_off,,,,,188,0,4,,,,,3,,,66,0
28608,note_on,,,,,4,0,5,,,,,4,,,64,60
28608,note_on,,,,,4,0,4,,,,,3,,,64,75
28700,note_off,,,,,92,0,5,,,,,4,,,64,0
28700,note_off,,,,,92,0,4,,,,,3,,,64,0
28704,note_on,,,,,4,0,4,,,,,3,,,66,75
28704,note_on,,,,,4,0,5,,,,,4,,,66,60
28796,note_off,,,,,92,0,4,,,,,3,,,66,0
28796,note_off,,,,,92,0,5,,,,,4,,,66,0
28800,note_on,,,,,4,0,4,,,,,3,,,62,75
28800,note_on,,,,,4,0,5,,,,,4,,,62,60
29120,note_off,,,,,320,0,5,,,,,4,,,62,0
29120,note_off,,,,,320,0,4,,,,,3,,,62,0
29376,note_on,,,,,1792,0,8,,,,,7,,,66,50
29376,note_on,,,,,1792,0,1,,,,,0,,,78,63
29376,note_on,,,,,0,0,8,,,,,7,,,69,50
29376,note_on,,,,,0,0,8,,,,,7,,,74,50
29376,note_on,,,,,1792,0,3,,,,,2,,,78,108
29376,note_on,,,,,256,0,5,,,,,4,,,62,92
29376,note_on,,,,,1792,0,2,,,,,1,,,78,63
29376,note_on,,,,,1792,0,7,,,,,6,,,36,75
29376,note_on,,,,,1792,0,9,,,,,8,,,48,50
29376,note_on,,,,,1792,0,6,,,,,5,,,48,92
29376,note_on,,,,,256,0,4,,,,,3,,,69,127
29564,note_off,,,,,0,0,8,,,,,7,,,74,0
29564,note_off,,,,,188,0,4,,,,,3,,,69,0
29564,note_off,,,,,0,0,8,,,,,7,,,69,0
29564,note_off,,,,,188,0,8,,,,,7,,,66,0
29564,note_off,,,,,188,0,5,,,,,4,,,62,0
29564,note_off,,,,,188,0,7,,,,,6,,,36,0
29564,note_off,,,,,188,0,2,,,,,1,,,78,0
29564,note_off,,,,,188,0,3,,,,,2,,,78,0
29564,note_off,,,,,188,0,6,,,,,5,,,48,0
29564,note_off,,,,,188,0,1,,,,,0,,,78,0
29564,note_off,,,,,188,0,9,,,,,8,,,48,0
29568,note_on,,,,,4,0,3,,,,,2,,,79,108
29568,note_on,,,,,4,0,7,,,,,6,,,34,75
29568,note_on,,,,,4,0,8,,,,,7,,,62,50
29568,note_on,,,,,0,0,8,,,,,7,,,67,50
29568,note_on,,,,,0,0,8,,,,,7,,,74,50
29568,note_on,,,,,4,0,9,,,,,8,,,46,50
29568,note_on,,,,,4,0,5,,,,,4,,,62,92
29568,note_on,,,,,4,0,4,,,,,3,,,74,127
29568,note_on,,,,,4,0,1,,,,,0,,,79,63
29568,note_on,,,,,4,0,6,,,,,5,,,46,92
29568,note_on,,,,,4,0,2,,,,,1,,,79,63
29852,note_off,,,,,284,0,1,,,,,0,,,79,0
29852,note_off,,,,,284,0,2,,,,,1,,,79,0
29852,note_off,,,,,284,0,3,,,,,2,,,79,0
29856,note_on,,,,,4,0,1,,,,,0,,,77,63
29856,note_on,,,,,4,0,2,,,,,1,,,77,63
29856,note_on,,,,,4,0,3,,,,,2,,,77,108
29888,note_off,,,,,320,0,4,,,,,3,,,74,0
29888,note_off,,,,,320,0,6,,,,,5,,,46,0
29888,note_off,,,,,320,0,9,,,,,8,,,46,0
29888,note_off,,,,,320,0,5,,,,,4,,,62,0
29888,note_off,,,,,0,0,8,,,,,7,,,74,0
29888,note_off,,,,,320,0,7,,,,,6,,,34,0
29888,note_off,,,,,0,0,8,,,,,7,,,67,0
29888,note_off,,,,,320,0,8,,,,,7,,,62,0
29900,note_off,,,,,44,0,1,,,,,0,,,77,0
29900,note_off,,,,,44,0,2,,,,,1,,,77,0
29900,note_off,,,,,44,0,3,,,,,2,,,77,0
29904,note_on,,,,,4,0,1,,,,,0,,,75,63
29904,note_on,,,,,4,0,3,,,,,2,,,75,108
29904,note_on,,,,,4,0,2,,,,,1,,,75,63
29948,note_off,,,,,44,0,3,,,,,2,,,75,0
29948,note_off,,,,,44,0,2,,,,,1,,,75,0
29948,note_off,,,,,44,0,1,,,,,0,,,75,0
29952,note_on,,,,,4,0,2,,,,,1,,,74,63
29952,note_on,,,,,4,0,1,,,,,0,,,74,63
29952,note_on,,,,,4,0,3,,,,,2,,,74,108
30140,note_off,,,,,188,0,1,,,,,0,,,74,0
30140,note_off,,,,,188,0,2,,,,,1,,,74,0
30140,note_off,,,,,188,0,3,,,,,2,,,74,0
30144,note_on,,,,,4,0,1,,,,,0,,,74,63
30144,note_on,,,,,0,0,8,,,,,7,,,67,50
30144,note_on,,,,,4,0,3,,,,,2,,,74,108
30144,note_on,,,,,256,0,9,,,,,8,,,46,50
30144,note_on,,,,,4,0,2,,,,,1,,,74,63
30144,note_on,,,,,256,0,7,,,,,6,,,34,75
30144,note_on,,,,,256,0,5,,,,,4,,,62,92
30144,note_on,,,,,256,0,6,,,,,5,,,46,92
30144,note_on,,,,,256,0,4,,,,,3,,,67,127
30144,note_on,,,,,256,0,8,,,,,7,,,62,50
30332,note_off,,,,,188,0,6,,,,,5,,,46,0
30332,note_off,,,,,188,0,9,,,,,8,,,46,0
30332,note_off,,,,,188,0,2,,,,,1,,,74,0
30332,note_off,,,,,188,0,4,,,,,3,,,67,0
30332,note_off,,,,,188,0,3,,,,,2,,,74,0
30332,note_off,,,,,0,0,8,,,,,7,,,67,0
30332,note_off,,,,,188,0,5,,,,,4,,,62,0
30332,note_off,,,,,188,0,7,,,,,6,,,34,0
30332,note_off,,,,,188,0,1,,,,,0,,,74,0
30332,note_off,,,,,188,0,8,,,,,7,,,62,0
30336,note_on,,,,,4,0,9,,,,,8,,,51,50
30336,note_on,,,,,4,0,4,,,,,3,,,67,127
30336,note_on,,,,,0,0,8,,,,,7,,,67,50
30336,note_on,,,,,4,0,7,,,,,6,,,39,75
30336,note_on,,,,,4,0,8,,,,,7,,,60,50
30336,note_on,,,,,4,0,1,,,,,0,,,79,63
30336,note_on,,,,,4,0,2,,,,,1,,,79,63
30336,note_on,,,,,4,0,6,,,,,5,,,51,92
30336,note_on,,,,,4,0,5,,,,,4,,,60,92
30336,note_on,,,,,4,0,3,,,,,2,,,79,108
30620,note_off,,,,,284,0,2,,,,,1,,,79,0
30620,note_off,,,,,284,0,3,,,,,2,,,79,0
30620,note_off,,,,,284,0,1,,,,,0,,,79,0
30624,note_on,,,,,4,0,3,,,,,2,,,77,108
30624,note_on,,,,,4,0,1,,,,,0,,,77,63
30624,note_on,,,,,4,0,2,,,,,1,,,77,63
30656,note_off,,,,,320,0,6,,,,,5,,,51,0
30656,note_off,,,,,0,0,8,,,,,7,,,67,0
30656,note_off,,,,,320,0,8,,,,,7,,,60,0
30656,note_off,,,,,320,0,9,,,,,8,,,51,0
30656,note_off,,,,,320,0,5,,,,,4,,,60,0
30656,note_off,,,,,320,0,4,,,,,3,,,67,0
30656,note_off,,,,,320,0,7,,,,,6,,,39,0
30668,note_off,,,,,44,0,1,,,,,0,,,77,0
30668,note_off,,,,,44,0,2,,,,,1,,,77,0
30668,note_off,,,,,44,0,3,,,,,2,,,77,0
30672,note_on,,,,,4,0,1,,,,,0,,,75,63
30672,note_on,,,,,4,0,3,,,,,2,,,75,108
30672,note_on,,,,,4,0,2,,,,,1,,,75,63
30716,note_off,,,,,44,0,2,,,,,1,,,75,0
30716,note_off,,,,,44,0,1,,,,,0,,,75,0
30716,note_off,,,,,44,0,3,,,,,2,,,75,0
30720,note_on,,,,,4,0,2,,,,,1,,,74,63
30720,note_on,,,,,4,0,3,,,,,2,,,74,108
30720,note_on,,,,,64,0,4,,,,,3,,,67,127
30720,note_on,,,,,64,0,7,,,,,6,,,34,75
30720,note_on,,,,,0,0,8,,,,,7,,,67,50
30720,note_on,,,,,64,0,5,,,,,4,,,62,92
30720,note_on,,,,,64,0,8,,,,,7,,,62,50
30720,note_on,,,,,64,0,6,,,,,5,,,46,92
30720,note_on,,,,,4,0,1,,,,,0,,,74,63
30720,note_on,,,,,64,0,9,,,,,8,,,46,50
30908,note_off,,,,,188,0,7,,,,,6,,,34,0
30908,note_off,,,,,188,0,2,,,,,1,,,74,0
30908,note_off,,,,,188,0,8,,,,,7,,,62,0
30908,note_off,,,,,188,0,1,,,,,0,,,74,0
30908,note_off,,,,,188,0,4,,,,,3,,,67,0
30908,note_off,,,,,188,0,9,,,,,8,,,46,0
30908,note_off,,,,,188,0,3,,,,,2,,,74,0
30908,note_off,,,,,188,0,5,,,,,4,,,62,0
30908,note_off,,,,,188,0,6,,,,,5,,,46,0
30912,note_on,,,,,4,0,9,,,,,8,,,48,50
30912,note_on,,,,,4,0,4,,,,,3,,,67,127
30912,note_on,,,,,4,0,6,,,,,5,,,48,92
30912,note_on,,,,,4,0,1,,,,,0,,,72,63
30912,note_on,,,,,4,0,5,,,,,4,,,63,92
30912,note_on,,,,,4,0,8,,,,,7,,,63,50
30912,note_on,,,,,4,0,2,,,,,1,,,72,63
30912,note_on,,,,,4,0,7,,,,,6,,,36,75
30912,note_on,,,,,4,0,3,,,,,2,,,72,108
31100,note_off,,,,,188,0,6,,,,,5,,,48,0
31100,note_off,,,,,188,0,5,,,,,4,,,63,0
31100,note_off,,,,,188,0,1,,,,,0,,,72,0
31100,note_off,,,,,188,0,8,,,,,7,,,67,0
31100,note_off,,,,,0,0,8,,,,,7,,,63,0
31100,note_off,,,,,188,0,9,,,,,8,,,48,0
31100,note_off,,,,,188,0,7,,,,,6,,,36,0
31100,note_off,,,,,188,0,4,,,,,3,,,67,0
31100,note_off,,,,,188,0,3,,,,,2,,,72,0
31100,note_off,,,,,188,0,2,,,,,1,,,72,0
31104,note_on,,,,,0,0,8,,,,,7,,,67,50
31104,note_on,,,,,4,0,3,,,,,2,,,70,108
31104,note_on,,,,,0,0,8,,,,,7,,,62,50
31104,note_on,,,,,4,0,1,,,,,0,,,70,63
31104,note_on,,,,,4,0,6,,,,,5,,,50,92
31104,note_on,,,,,4,0,9,,,,,8,,,50,50
31104,note_on,,,,,4,0,8,,,,,7,,,58,50
31104,note_on,,,,,4,0,7,,,,,6,,,38,75
31104,note_on,,,,,4,0,4,,,,,3,,,67,127
31104,note_on,,,,,4,0,5,,,,,4,,,62,92
31104,note_on,,,,,4,0,2,,,,,1,,,70,63
31424,note_off,,,,,320,0,6,,,,,5,,,50,0
31424,note_off,,,,,320,0,5,,,,,4,,,62,0
31424,note_off,,,,,320,0,8,,,,,7,,,58,0
31424,note_off,,,,,0,0,8,,,,,7,,,62,0
31424,note_off,,,,,0,0,8,,,,,7,,,67,0
31424,note_off,,,,,320,0,1,,,,,0,,,70,0
31424,note_off,,,,,320,0,3,,,,,2,,,70,0
31424,note_off,,,,,320,0,9,,,,,8,,,50,0
31424,note_off,,,,,320,0,7,,,,,6,,,38,0
31424,note_off,,,,,320,0,4,,,,,3,,,67,0
31424,note_off,,,,,320,0,2,,,,,1,,,70,0
31488,note_on,,,,,64,0,1,,,,,0,,,69,63
31488,note_on,,,,,64,0,4,,,,,3,,,66,127
31488,note_on,,,,,0,0,8,,,,,7,,,66,50
31488,note_on,,,,,64,0,8,,,,,7,,,57,50
31488,note_on,,,,,0,0,8,,,,,7,,,62,50
31488,note_on,,,,,64,0,6,,,,,5,,,38,92
31488,note_on,,,,,64,0,5,,,,,4,,,62,92
31488,note_on,,,,,64,0,3,,,,,2,,,69,108
31488,note_on,,,,,64,0,9,,,,,8,,,38,50
31488,note_on,,,,,64,0,7,,,,,6,,,26,75
31488,note_on,,,,,64,0,2,,,,,1,,,69,63
31808,note_off,,,,,320,0,9,,,,,8,,,38,0
31808,note_off,,,,,320,0,3,,,,,2,,,69,0
31808,note_off,,,,,320,0,1,,,,,0,,,69,0
31808,note_off,,,,,320,0,2,,,,,1,,,69,0
31808,note_off,,,,,0,0,8,,,,,7,,,66,0
31808,note_off,,,,,0,0,8,,,,,7,,,62,0
31808,note_off,,,,,320,0,8,,,,,7,,,57,0
31808,note_off,,,,,320,0,6,,,,,5,,,38,0
31808,note_off,,,,,320,0,7,,,,,6,,,26,0
31808,note_off,,,,,320,0,5,,,,,4,,,62,0
31808,note_off,,,,,320,0,4,,,,,3,,,66,0
31872,note_on,,,,,64,0,4,,,,,3,,,67,127
31872,note_on,,,,,64,0,5,,,,,4,,,62,92
31872,note_on,,,,,64,0,3,,,,,2,,,67,108
31872,note_on,,,,,0,0,8,,,,,7,,,62,50
31872,note_on,,,,,64,0,7,,,,,6,,,31,75
31872,note_on,,,,,64,0,2,,,,,1,,,67,63
31872,note_on,,,,,64,0,6,,,,,5,,,43,92
31872,note_on,,,,,64,0,8,,,,,7,,,58,50
31872,note_on,,,,,64,0,9,,,,,8,,,43,50
31872,note_on,,,,,64,0,1,,,,,0,,,67,63
31872,note_on,,,,,0,0,8,,,,,7,,,67,50
32192,note_off,,,,,320,0,8,,,,,7,,,58,0
32192,note_off,,,,,320,0,2,,,,,1,,,67,0
32192,note_off,,,,,320,0,3,,,,,2,,,67,0
32192,note_off,,,,,320,0,7,,,,,6,,,31,0
32192,note_off,,,,,0,0,8,,,,,7,,,67,0
32192,note_off,,,,,0,0,8,,,,,7,,,62,0
32192,note_off,,,,,320,0,5,,,,,4,,,62,0
32192,note_off,,,,,320,0,6,,,,,5,,,43,0
32192,note_off,,,,,320,0,4,,,,,3,,,67,0
32192,note_off,,,,,320,0,9,,,,,8,,,43,0
32192,note_off,,,,,320,0,1,,,,,0,,,67,0
32448,note_on,,,,,256,0,1,,,,,0,,,79,63
32448,note_on,,,,,256,0,2,,,,,1,,,79,63
32448,note_on,,,,,256,0,3,,,,,2,,,79,108
32636,note_off,,,,,188,0,2,,,,,1,,,79,0
32636,note_off,,,,,188,0,1,,,,,0,,,79,0
32636,note_off,,,,,188,0,3,,,,,2,,,79,0
32640,note_on,,,,,4,0,1,,,,,0,,,84,63
32640,note_on,,,,,4,0,3,,,,,2,,,84,108
32640,note_on,,,,,4,0,2,,,,,1,,,84,63
32828,note_off,,,,,188,0,3,,,,,2,,,84,0
32828,note_off,,,,,188,0,1,,,,,0,,,84,0
32828,note_off,,,,,188,0,2,,,,,1,,,84,0
32832,note_on,,,,,4,0,1,,,,,0,,,79,63
32832,note_on,,,,,4,0,3,,,,,2,,,79,108
32832,note_on,,,,,4,0,2,,,,,1,,,79,63
32924,note_off,,,,,92,0,1,,,,,0,,,79,0
32924,note_off,,,,,92,0,3,,,,,2,,,79,0
32924,note_off,,,,,92,0,2,,,,,1,,,79,0
32928,note_on,,,,,4,0,2,,,,,1,,,77,63
32928,note_on,,,,,4,0,1,,,,,0,,,77,63
32928,note_on,,,,,4,0,3,,,,,2,,,77,108
33020,note_off,,,,,92,0,1,,,,,0,,,77,0
33020,note_off,,,,,92,0,3,,,,,2,,,77,0
33020,note_off,,,,,92,0,2,,,,,1,,,77,0
33024,note_on,,,,,4,0,3,,,,,2,,,75,108
33024,note_on,,,,,4,0,2,,,,,1,,,75,63
33024,note_on,,,,,4,0,1,,,,,0,,,75,63
33212,note_off,,,,,188,0,1,,,,,0,,,75,0
33212,note_off,,,,,188,0,2,,,,,1,,,75,0
33212,note_off,,,,,188,0,3,,,,,2,,,75,0
33216,note_on,,,,,4,0,3,,,,,2,,,74,108
33216,note_on,,,,,1024,0,8,,,,,7,,,62,50
33216,note_on,,,,,1024,0,9,,,,,8,,,55,50
33216,note_on,,,,,1024,0,5,,,,,4,,,62,92
33216,note_on,,,,,1024,0,7,,,,,6,,,43,75
33216,note_on,,,,,1024,0,6,,,,,5,,,55,92
33216,note_on,,,,,0,0,8,,,,,7,,,67,50
33216,note_on,,,,,0,0,8,,,,,7,,,71,50
33216,note_on,,,,,1024,0,4,,,,,3,,,71,127
33216,note_on,,,,,4,0,2,,,,,1,,,74,63
33216,note_on,,,,,4,0,1,,,,,0,,,74,63
33308,note_off,,,,,92,0,3,,,,,2,,,74,0
33308,note_off,,,,,92,0,1,,,,,0,,,74,0
33308,note_off,,,,,92,0,2,,,,,1,,,74,0
33312,note_on,,,,,4,0,2,,,,,1,,,75,63
33312,note_on,,,,,4,0,1,,,,,0,,,75,63
33312,note_on,,,,,4,0,3,,,,,2,,,75,108
33404,note_off,,,,,92,0,3,,,,,2,,,75,0
33404,note_off,,,,,188,0,4,,,,,3,,,71,0
33404,note_off,,,,,188,0,6,,,,,5,,,55,0
33404,note_off,,,,,188,0,5,,,,,4,,,62,0
33404,note_off,,,,,188,0,9,,,,,8,,,55,0
33404,note_off,,,,,0,0,8,,,,,7,,,67,0
33404,note_off,,,,,92,0,2,,,,,1,,,75,0
33404,note_off,,,,,188,0,8,,,,,7,,,62,0
33404,note_off,,,,,188,0,7,,,,,6,,,43,0
33404,note_off,,,,,92,0,1,,,,,0,,,75,0
33404,note_off,,,,,0,0,8,,,,,7,,,71,0
33408,note_on,,,,,4,0,6,,,,,5,,,60,92
33408,note_on,,,,,0,0,8,,,,,7,,,72,50
33408,note_on,,,,,4,0,7,,,,,6,,,48,75
33408,note_on,,,,,0,0,8,,,,,7,,,67,50
33408,note_on,,,,,4,0,2,,,,,1,,,72,63
33408,note_on,,,,,4,0,3,,,,,2,,,72,108
33408,note_on,,,,,4,0,4,,,,,3,,,67,127
33408,note_on,,,,,4,0,1,,,,,0,,,72,63
33408,note_on,,,,,4,0,9,,,,,8,,,60,50
33408,note_on,,,,,4,0,5,,,,,4,,,63,92
33408,note_on,,,,,4,0,8,,,,,7,,,63,50
33596,note_off,,,,,188,0,6,,,,,5,,,60,0
33596,note_off,,,,,188,0,9,,,,,8,,,60,0
33596,note_off,,,,,188,0,7,,,,,6,,,48,0
33600,note_on,,,,,4,0,6,,,,,5,,,55,92
33600,note_on,,,,,4,0,9,,,,,8,,,55,50
33600,note_on,,,,,4,0,7,,,,,6,,,43,75
33692,note_off,,,,,92,0,6,,,,,5,,,55,0
33692,note_off,,,,,92,0,7,,,,,6,,,43,0
33692,note_off,,,,,92,0,9,,,,,8,,,55,0
33696,note_on,,,,,4,0,7,,,,,6,,,41,75
33696,note_on,,,,,4,0,9,,,,,8,,,53,50
33696,note_on,,,,,4,0,6,,,,,5,,,53,92
33728,note_off,,,,,320,0,5,,,,,4,,,63,0
33728,note_off,,,,,320,0,4,,,,,3,,,67,0
33728,note_off,,,,,320,0,2,,,,,1,,,72,0
33728,note_off,,,,,320,0,1,,,,,0,,,72,0
33728,note_off,,,,,320,0,3,,,,,2,,,72,0
33728,note_off,,,,,0,0,8,,,,,7,,,67,0
33728,note_off,,,,,320,0,8,,,,,7,,,63,0
33728,note_off,,,,,0,0,8,,,,,7,,,72,0
33788,note_off,,,,,92,0,6,,,,,5,,,53,0
33788,note_off,,,,,92,0,9,,,,,8,,,53,0
33788,note_off,,,,,92,0,7,,,,,6,,,41,0
33792,note_on,,,,,4,0,6,,,,,5,,,51,92
33792,note_on,,,,,64,0,8,,,,,7,,,60,50
33792,note_on,,,,,0,0,8,,,,,7,,,67,50
33792,note_on,,,,,4,0,9,,,,,8,,,51,50
33792,note_on,,,,,4,0,7,,,,,6,,,39,75
33980,note_off,,,,,188,0,9,,,,,8,,,51,0
33980,note_off,,,,,0,0,8,,,,,7,,,67,0
33980,note_off,,,,,188,0,7,,,,,6,,,39,0
33980,note_off,,,,,188,0,6,,,,,5,,,51,0
33980,note_off,,,,,188,0,8,,,,,7,,,60,0
33984,note_on,,,,,256,0,2,,,,,1,,,67,63
33984,note_on,,,,,4,0,7,,,,,6,,,38,75
33984,note_on,,,,,256,0,4,,,,,3,,,62,127
33984,note_on,,,,,256,0,3,,,,,2,,,67,108
33984,note_on,,,,,256,0,5,,,,,4,,,59,92
33984,note_on,,,,,4,0,9,,,,,8,,,50,50
33984,note_on,,,,,0,0,8,,,,,7,,,59,50
33984,note_on,,,,,4,0,8,,,,,7,,,55,50
33984,note_on,,,,,256,0,1,,,,,0,,,67,63
33984,note_on,,,,,4,0,6,,,,,5,,,50,92
33984,note_on,,,,,0,0,8,,,,,7,,,65,50
34076,note_off,,,,,92,0,9,,,,,8,,,50,0
34076,note_off,,,,,92,0,7,,,,,6,,,38,0
34076,note_off,,,,,92,0,6,,,,,5,,,50,0
34080,note_on,,,,,4,0,9,,,,,8,,,51,50
34080,note_on,,,,,4,0,7,,,,,6,,,39,75
34080,note_on,,,,,4,0,6,,,,,5,,,51,92
34172,note_off,,,,,188,0,3,,,,,2,,,67,0
34172,note_off,,,,,92,0,6,,,,,5,,,51,0
34172,note_off,,,,,188,0,4,,,,,3,,,62,0
34172,note_off,,,,,188,0,1,,,,,0,,,67,0
34172,note_off,,,,,188,0,8,,,,,7,,,55,0
34172,note_off,,,,,92,0,9,,,,,8,,,51,0
34172,note_off,,,,,0,0,8,,,,,7,,,59,0
34172,note_off,,,,,92,0,7,,,,,6,,,39,0
34172,note_off,,,,,188,0,5,,,,,4,,,59,0
34172,note_off,,,,,188,0,2,,,,,1,,,67,0
34172,note_off,,,,,0,0,8,,,,,7,,,65,0
34176,note_on,,,,,4,0,8,,,,,7,,,55,50
34176,note_on,,,,,4,0,7,,,,,6,,,36,75
34176,note_on,,,,,0,0,8,,,,,7,,,60,50
34176,note_on,,,,,4,0,9,,,,,8,,,48,50
34176,note_on,,,,,0,0,8,,,,,7,,,63,50
34176,note_on,,,,,4,0,1,,,,,0,,,72,63
34176,note_on,,,,,4,0,4,,,,,3,,,63,127
34176,note_on,,,,,4,0,5,,,,,4,,,67,92
34176,note_on,,,,,4,0,6,,,,,5,,,48,92
34176,note_on,,,,,4,0,2,,,,,1,,,72,63
34176,note_on,,,,,4,0,3,,,,,2,,,72,108
34364,note_off,,,,,188,0,2,,,,,1,,,72,0
34364,note_off,,,,,188,0,3,,,,,2,,,72,0
34364,note_off,,,,,188,0,1,,,,,0,,,72,0
34368,note_on,,,,,4,0,2,,,,,1,,,67,63
34368,note_on,,,,,4,0,1,,,,,0,,,67,63
34368,note_on,,,,,4,0,3,,,,,2,,,67,108
34460,note_off,,,,,92,0,2,,,,,1,,,67,0
34460,note_off,,,,,92,0,1,,,,,0,,,67,0
34460,note_off,,,,,92,0,3,,,,,2,,,67,0
34464,note_on,,,,,4,0,2,,,,,1,,,65,63
34464,note_on,,,,,4,0,3,,,,,2,,,65,108
34464,note_on,,,,,4,0,1,,,,,0,,,65,63
34496,note_off,,,,,320,0,5,,,,,4,,,67,0
34496,note_off,,,,,320,0,9,,,,,8,,,48,0
34496,note_off,,,,,0,0,8,,,,,7,,,63,0
34496,note_off,,,,,0,0,8,,,,,7,,,60,0
34496,note_off,,,,,320,0,8,,,,,7,,,55,0
34496,note_off,,,,,320,0,7,,,,,6,,,36,0
34496,note_off,,,,,320,0,4,,,,,3,,,63,0
34496,note_off,,,,,320,0,6,,,,,5,,,48,0
34556,note_off,,,,,92,0,1,,,,,0,,,65,0
34556,note_off,,,,,92,0,2,,,,,1,,,65,0
34556,note_off,,,,,92,0,3,,,,,2,,,65,0
34560,note_on,,,,,4,0,1,,,,,0,,,63,63
34560,note_on,,,,,4,0,2,,,,,1,,,63,63
34560,note_on,,,,,4,0,3,,,,,2,,,63,108
34748,note_off,,,,,188,0,2,,,,,1,,,63,0
34748,note_off,,,,,188,0,1,,,,,0,,,63,0
34748,note_off,,,,,188,0,3,,,,,2,,,63,0
34752,note_on,,,,,256,0,8,,,,,7,,,55,50
34752,note_on,,,,,256,0,7,,,,,6,,,31,75
34752,note_on,,,,,0,0,8,,,,,7,,,59,50
34752,note_on,,,,,256,0,6,,,,,5,,,43,92
34752,note_on,,,,,4,0,1,,,,,0,,,62,63
34752,note_on,,,,,256,0,9,,,,,8,,,43,50
34752,note_on,,,,,4,0,2,,,,,1,,,62,63
34752,note_on,,,,,256,0,5,,,,,4,,,55,92
34752,note_on,,,,,256,0,4,,,,,3,,,59,127
34752,note_on,,,,,4,0,3,,,,,2,,,62,108
34844,note_off,,,,,92,0,1,,,,,0,,,62,0
34844,note_off,,,,,92,0,2,,,,,1,,,62,0
34844,note_off,,,,,92,0,3,,,,,2,,,62,0
34848,note_on,,,,,4,0,2,,,,,1,,,63,63
34848,note_on,,,,,4,0,3,,,,,2,,,63,108
34848,note_on,,,,,4,0,1,,,,,0,,,63,63
34940,note_off,,,,,188,0,7,,,,,6,,,31,0
34940,note_off,,,,,188,0,8,,,,,7,,,55,0
34940,note_off,,,,,0,0,8,,,,,7,,,59,0
34940,note_off,,,,,188,0,9,,,,,8,,,43,0
34940,note_off,,,,,188,0,5,,,,,4,,,55,0
34940,note_off,,,,,92,0,2,,,,,1,,,63,0
34940,note_off,,,,,188,0,6,,,,,5,,,43,0
34940,note_off,,,,,92,0,1,,,,,0,,,63,0
34940,note_off,,,,,92,0,3,,,,,2,,,63,0
34940,note_off,,,,,188,0,4,,,,,3,,,59,0
34944,note_on,,,,,4,0,4,,,,,3,,,55,127
34944,note_on,,,,,4,0,7,,,,,6,,,36,75
34944,note_on,,,,,4,0,3,,,,,2,,,60,108
34944,note_on,,,,,4,0,9,,,,,8,,,48,50
34944,note_on,,,,,4,0,8,,,,,7,,,51,50
34944,note_on,,,,,0,0,8,,,,,7,,,55,50
34944,note_on,,,,,4,0,5,,,,,4,,,51,92
34944,note_on,,,,,4,0,6,,,,,5,,,48,92
34944,note_on,,,,,4,0,1,,,,,0,,,60,63
34944,note_on,,,,,0,0,8,,,,,7,,,60,50
34944,note_on,,,,,4,0,2,,,,,1,,,60,63
35132,note_off,,,,,188,0,7,,,,,6,,,36,0
35132,note_off,,,,,188,0,9,,,,,8,,,48,0
35132,note_off,,,,,188,0,6,,,,,5,,,48,0
35136,note_on,,,,,4,0,7,,,,,6,,,31,75
35136,note_on,,,,,4,0,9,,,,,8,,,43,50
35136,note_on,,,,,4,0,6,,,,,5,,,43,92
35228,note_off,,,,,92,0,7,,,,,6,,,31,0
35228,note_off,,,,,92,0,9,,,,,8,,,43,0
35228,note_off,,,,,92,0,6,,,,,5,,,43,0
35232,note_on,,,,,4,0,9,,,,,8,,,41,50
35232,note_on,,,,,4,0,6,,,,,5,,,41,92
35232,note_on,,,,,4,0,7,,,,,6,,,29,75
35264,note_off,,,,,320,0,8,,,,,7,,,51,0
35264,note_off,,,,,320,0,1,,,,,0,,,60,0
35264,note_off,,,,,320,0,4,,,,,3,,,55,0
35264,note_off,,,,,0,0,8,,,,,7,,,60,0
35264,note_off,,,,,320,0,3,,,,,2,,,60,0
35264,note_off,,,,,320,0,2,,,,,1,,,60,0
35264,note_off,,,,,0,0,8,,,,,7,,,55,0
35264,note_off,,,,,320,0,5,,,,,4,,,51,0
35324,note_off,,,,,92,0,9,,,,,8,,,41,0
35324,note_off,,,,,92,0,7,,,,,6,,,29,0
35324,note_off,,,,,92,0,6,,,,,5,,,41,0
35328,note_on,,,,,0,0,8,,,,,7,,,60,50
35328,note_on,,,,,64,0,8,,,,,7,,,55,50
35328,note_on,,,,,4,0,6,,,,,5,,,39,92
35328,note_on,,,,,4,0,9,,,,,8,,,39,50
35328,note_on,,,,,4,0,7,,,,,6,,,27,75
35516,note_off,,,,,188,0,9,,,,,8,,,39,0
35516,note_off,,,,,0,0,8,,,,,7,,,60,0
35516,note_off,,,,,188,0,7,,,,,6,,,27,0
35516,note_off,,,,,188,0,8,,,,,7,,,55,0
35516,note_off,,,,,188,0,6,,,,,5,,,39,0
35520,note_on,,,,,4,0,8,,,,,7,,,53,50
35520,note_on,,,,,0,0,8,,,,,7,,,59,50
35520,note_on,,,,,0,0,8,,,,,7,,,62,50
35520,note_on,,,,,256,0,4,,,,,3,,,59,127
35520,note_on,,,,,256,0,1,,,,,0,,,62,63
35520,note_on,,,,,256,0,3,,,,,2,,,62,108
35520,note_on,,,,,4,0,7,,,,,6,,,26,75
35520,note_on,,,,,256,0,2,,,,,1,,,62,63
35520,note_on,,,,,4,0,6,,,,,5,,,38,92
35520,note_on,,,,,256,0,5,,,,,4,,,53,92
35520,note_on,,,,,4,0,9,,,,,8,,,38,50
35612,note_off,,,,,92,0,7,,,,,6,,,26,0
35612,note_off,,,,,92,0,9,,,,,8,,,38,0
35612,note_off,,,,,92,0,6,,,,,5,,,38,0
35616,note_on,,,,,4,0,9,,,,,8,,,39,50
35616,note_on,,,,,4,0,6,,,,,5,,,39,92
35616,note_on,,,,,4,0,7,,,,,6,,,27,75
35708,note_off,,,,,92,0,6,,,,,5,,,39,0
35708,note_off,,,,,188,0,8,,,,,7,,,53,0
35708,note_off,,,,,0,0,8,,,,,7,,,59,0
35708,note_off,,,,,0,0,8,,,,,7,,,62,0
35708,note_off,,,,,188,0,1,,,,,0,,,62,0
35708,note_off,,,,,188,0,2,,,,,1,,,62,0
35708,note_off,,,,,188,0,4,,,,,3,,,59,0
35708,note_off,,,,,92,0,7,,,,,6,,,27,0
35708,note_off,,,,,188,0,3,,,,,2,,,62,0
35708,note_off,,,,,92,0,9,,,,,8,,,39,0
35708,note_off,,,,,188,0,5,,,,,4,,,53,0
35712,note_on,,,,,4,0,4,,,,,3,,,60,127
35712,note_on,,,,,4,0,1,,,,,0,,,63,63
35712,note_on,,,,,4,0,7,,,,,6,,,24,75
35712,note_on,,,,,4,0,8,,,,,7,,,55,50
35712,note_on,,,,,4,0,9,,,,,8,,,36,50
35712,note_on,,,,,4,0,2,,,,,1,,,63,63
35712,note_on,,,,,4,0,6,,,,,5,,,36,92
35712,note_on,,,,,4,0,3,,,,,2,,,63,108
35712,note_on,,,,,0,0,8,,,,,7,,,60,50
35712,note_on,,,,,0,0,8,,,,,7,,,63,50
35712,note_on,,,,,4,0,5,,,,,4,,,55,92
35804,note_off,,,,,92,0,2,,,,,1,,,63,0
35804,note_off,,,,,92,0,3,,,,,2,,,63,0
35804,note_off,,,,,92,0,1,,,,,0,,,63,0
35808,note_on,,,,,4,0,1,,,,,0,,,67,63
35808,note_on,,,,,4,0,3,,,,,2,,,67,108
35808,note_on,,,,,4,0,2,,,,,1,,,67,63
35900,note_off,,,,,92,0,1,,,,,0,,,67,0
35900,note_off,,,,,92,0,3,,,,,2,,,67,0
35900,note_off,,,,,92,0,2,,,,,1,,,67,0
35904,note_on,,,,,4,0,1,,,,,0,,,60,63
35904,note_on,,,,,4,0,2,,,,,1,,,60,63
35904,note_on,,,,,4,0,3,,,,,2,,,60,108
35996,note_off,,,,,92,0,3,,,,,2,,,60,0
35996,note_off,,,,,92,0,1,,,,,0,,,60,0
35996,note_off,,,,,92,0,2,,,,,1,,,60,0
36000,note_on,,,,,4,0,1,,,,,0,,,62,63
36000,note_on,,,,,4,0,2,,,,,1,,,62,63
36000,note_on,,,,,4,0,3,,,,,2,,,62,108
36032,note_off,,,,,320,0,6,,,,,5,,,36,0
36032,note_off,,,,,320,0,4,,,,,3,,,60,0
36032,note_off,,,,,320,0,8,,,,,7,,,55,0
36032,note_off,,,,,320,0,5,,,,,4,,,55,0
36032,note_off,,,,,320,0,9,,,,,8,,,36,0
36032,note_off,,,,,0,0,8,,,,,7,,,63,0
36032,note_off,,,,,320,0,7,,,,,6,,,24,0
36032,note_off,,,,,0,0,8,,,,,7,,,60,0
36092,note_off,,,,,92,0,2,,,,,1,,,62,0
36092,note_off,,,,,92,0,1,,,,,0,,,62,0
36092,note_off,,,,,92,0,3,,,,,2,,,62,0
36096,note_on,,,,,4,0,3,,,,,2,,,63,108
36096,note_on,,,,,4,0,2,,,,,1,,,63,63
36096,note_on,,,,,4,0,1,,,,,0,,,63,63
36188,note_off,,,,,92,0,3,,,,,2,,,63,0
36188,note_off,,,,,92,0,2,,,,,1,,,63,0
36188,note_off,,,,,92,0,1,,,,,0,,,63,0
36192,note_on,,,,,4,0,1,,,,,0,,,65,63
36192,note_on,,,,,4,0,3,,,,,2,,,65,108
36192,note_on,,,,,4,0,2,,,,,1,,,65,63
36284,note_off,,,,,92,0,1,,,,,0,,,65,0
36284,note_off,,,,,92,0,3,,,,,2,,,65,0
36284,note_off,,,,,92,0,2,,,,,1,,,65,0
36288,note_on,,,,,4,0,3,,,,,2,,,67,108
36288,note_on,,,,,256,0,4,,,,,3,,,63,127
36288,note_on,,,,,256,0,7,,,,,6,,,41,75
36288,note_on,,,,,256,0,8,,,,,7,,,60,50
36288,note_on,,,,,0,0,8,,,,,7,,,65,50
36288,note_on,,,,,256,0,9,,,,,8,,,53,50
36288,note_on,,,,,256,0,5,,,,,4,,,60,92
36288,note_on,,,,,256,0,6,,,,,5,,,53,92
36288,note_on,,,,,4,0,2,,,,,1,,,67,63
36288,note_on,,,,,4,0,1,,,,,0,,,67,63
36380,note_off,,,,,92,0,1,,,,,0,,,67,0
36380,note_off,,,,,92,0,3,,,,,2,,,67,0
36380,note_off,,,,,92,0,2,,,,,1,,,67,0
36384,note_on,,,,,4,0,1,,,,,0,,,69,63
36384,note_on,,,,,4,0,3,,,,,2,,,69,108
36384,note_on,,,,,4,0,2,,,,,1,,,69,63
36476,note_off,,,,,188,0,8,,,,,7,,,60,0
36476,note_off,,,,,0,0,8,,,,,7,,,65,0
36476,note_off,,,,,188,0,5,,,,,4,,,60,0
36476,note_off,,,,,188,0,6,,,,,5,,,53,0
36476,note_off,,,,,92,0,2,,,,,1,,,69,0
36476,note_off,,,,,188,0,7,,,,,6,,,41,0
36476,note_off,,,,,92,0,3,,,,,2,,,69,0
36476,note_off,,,,,188,0,9,,,,,8,,,53,0
36476,note_off,,,,,188,0,4,,,,,3,,,63,0
36476,note_off,,,,,92,0,1,,,,,0,,,69,0
36480,note_on,,,,,4,0,5,,,,,4,,,58,92
36480,note_on,,,,,4,0,9,,,,,8,,,58,50
36480,note_on,,,,,4,0,1,,,,,0,,,70,63
36480,note_on,,,,,4,0,4,,,,,3,,,62,127
36480,note_on,,,,,4,0,8,,,,,7,,,62,50
36480,note_on,,,,,4,0,7,,,,,6,,,46,75
36480,note_on,,,,,4,0,2,,,,,1,,,70,63
36480,note_on,,,,,4,0,6,,,,,5,,,58,92
36480,note_on,,,,,4,0,3,,,,,2,,,70,108
36480,note_on,,,,,0,0,8,,,,,7,,,65,50
36668,note_off,,,,,188,0,6,,,,,5,,,58,0
36668,note_off,,,,,188,0,7,,,,,6,,,46,0
36668,note_off,,,,,188,0,9,,,,,8,,,58,0
36672,note_on,,,,,4,0,7,,,,,6,,,41,75
36672,note_on,,,,,4,0,9,,,,,8,,,53,50
36672,note_on,,,,,4,0,6,,,,,5,,,53,92
36764,note_off,,,,,92,0,6,,,,,5,,,53,0
36764,note_off,,,,,92,0,9,,,,,8,,,53,0
36764,note_off,,,,,92,0,7,,,,,6,,,41,0
36768,note_on,,,,,4,0,6,,,,,5,,,51,92
36768,note_on,,,,,4,0,9,,,,,8,,,51,50
36768,note_on,,,,,4,0,7,,,,,6,,,39,75
36800,note_off,,,,,320,0,3,,,,,2,,,70,0
36800,note_off,,,,,320,0,2,,,,,1,,,70,0
36800,note_off,,,,,320,0,8,,,,,7,,,62,0
36800,note_off,,,,,320,0,1,,,,,0,,,70,0
36800,note_off,,,,,0,0,8,,,,,7,,,65,0
36800,note_off,,,,,320,0,4,,,,,3,,,62,0
36800,note_off,,,,,320,0,5,,,,,4,,,58,0
36860,note_off,,,,,92,0,6,,,,,5,,,51,0
36860,note_off,,,,,92,0,7,,,,,6,,,39,0
36860,note_off,,,,,92,0,9,,,,,8,,,51,0
36864,note_on,,,,,0,0,8,,,,,7,,,70,50
36864,note_on,,,,,4,0,6,,,,,5,,,50,92
36864,note_on,,,,,4,0,7,,,,,6,,,38,75
36864,note_on,,,,,64,0,8,,,,,7,,,62,50
36864,note_on,,,,,0,0,8,,,,,7,,,65,50
36864,note_on,,,,,4,0,9,,,,,8,,,50,50
37052,note_off,,,,,188,0,8,,,,,7,,,62,0
37052,note_off,,,,,188,0,6,,,,,5,,,50,0
37052,note_off,,,,,0,0,8,,,,,7,,,70,0
37052,note_off,,,,,188,0,9,,,,,8,,,50,0
37052,note_off,,,,,0,0,8,,,,,7,,,65,0
37052,note_off,,,,,188,0,7,,,,,6,,,38,0
37056,note_on,,,,,4,0,6,,,,,5,,,48,92
37056,note_on,,,,,256,0,2,,,,,1,,,72,63
37056,note_on,,,,,4,0,9,,,,,8,,,48,50
37056,note_on,,,,,0,0,8,,,,,7,,,69,50
37056,note_on,,,,,4,0,8,,,,,7,,,63,50
37056,note_on,,,,,256,0,4,,,,,3,,,69,127
37056,note_on,,,,,4,0,7,,,,,6,,,36,75
37056,note_on,,,,,256,0,3,,,,,2,,,72,108
37056,note_on,,,,,256,0,1,,,,,0,,,72,63
37056,note_on,,,,,256,0,5,,,,,4,,,63,92
37148,note_off,,,,,92,0,9,,,,,8,,,48,0
37148,note_off,,,,,92,0,7,,,,,6,,,36,0
37148,note_off,,,,,92,0,6,,,,,5,,,48,0
37152,note_on,,,,,4,0,9,,,,,8,,,50,50
37152,note_on,,,,,4,0,7,,,,,6,,,38,75
37152,note_on,,,,,4,0,6,,,,,5,,,50,92
37244,note_off,,,,,0,0,8,,,,,7,,,69,0
37244,note_off,,,,,188,0,2,,,,,1,,,72,0
37244,note_off,,,,,188,0,3,,,,,2,,,72,0
37244,note_off,,,,,188,0,8,,,,,7,,,63,0
37244,note_off,,,,,92,0,9,,,,,8,,,50,0
37244,note_off,,,,,188,0,5,,,,,4,,,63,0
37244,note_off,,,,,188,0,1,,,,,0,,,72,0
37244,note_off,,,,,92,0,7,,,,,6,,,38,0
37244,note_off,,,,,188,0,4,,,,,3,,,69,0
37244,note_off,,,,,92,0,6,,,,,5,,,50,0
37248,note_on,,,,,4,0,6,,,,,5,,,46,92
37248,note_on,,,,,4,0,9,,,,,8,,,46,50
37248,note_on,,,,,4,0,5,,,,,4,,,65,92
37248,note_on,,,,,0,0,8,,,,,7,,,70,50
37248,note_on,,,,,0,0,8,,,,,7,,,65,50
37248,note_on,,,,,4,0,8,,,,,7,,,62,50
37248,note_on,,,,,4,0,3,,,,,2,,,74,108
37248,note_on,,,,,4,0,1,,,,,0,,,74,63
37248,note_on,,,,,4,0,4,,,,,3,,,70,127
37248,note_on,,,,,4,0,2,,,,,1,,,74,63
37248,note_on,,,,,4,0,7,,,,,6,,,34,75
37340,note_off,,,,,92,0,2,,,,,1,,,74,0
37340,note_off,,,,,92,0,3,,,,,2,,,74,0
37340,note_off,,,,,92,0,1,,,,,0,,,74,0
37344,note_on,,,,,4,0,3,,,,,2,,,77,108
37344,note_on,,,,,4,0,1,,,,,0,,,77,63
37344,note_on,,,,,4,0,2,,,,,1,,,77,63
37436,note_off,,,,,92,0,2,,,,,1,,,77,0
37436,note_off,,,,,92,0,3,,,,,2,,,77,0
37436,note_off,,,,,92,0,1,,,,,0,,,77,0
37440,note_on,,,,,4,0,2,,,,,1,,,70,63
37440,note_on,,,,,4,0,3,,,,,2,,,70,108
37440,note_on,,,,,4,0,1,,,,,0,,,70,63
37532,note_off,,,,,92,0,2,,,,,1,,,70,0
37532,note_off,,,,,92,0,3,,,,,2,,,70,0
37532,note_off,,,,,92,0,1,,,,,0,,,70,0
37536,note_on,,,,,4,0,1,,,,,0,,,72,63
37536,note_on,,,,,4,0,2,,,,,1,,,72,63
37536,note_on,,,,,4,0,3,,,,,2,,,72,108
37568,note_off,,,,,320,0,8,,,,,7,,,62,0
37568,note_off,,,,,0,0,8,,,,,7,,,65,0
37568,note_off,,,,,320,0,6,,,,,5,,,46,0
37568,note_off,,,,,0,0,8,,,,,7,,,70,0
37568,note_off,,,,,320,0,5,,,,,4,,,65,0
37568,note_off,,,,,320,0,4,,,,,3,,,70,0
37568,note_off,,,,,320,0,9,,,,,8,,,46,0
37568,note_off,,,,,320,0,7,,,,,6,,,34,0
37628,note_off,,,,,92,0,1,,,,,0,,,72,0
37628,note_off,,,,,92,0,2,,,,,1,,,72,0
37628,note_off,,,,,92,0,3,,,,,2,,,72,0
37632,note_on,,,,,4,0,2,,,,,1,,,74,63
37632,note_on,,,,,4,0,3,,,,,2,,,74,108
37632,note_on,,,,,4,0,1,,,,,0,,,74,63
37724,note_off,,,,,92,0,1,,,,,0,,,74,0
37724,note_off,,,,,92,0,2,,,,,1,,,74,0
37724,note_off,,,,,92,0,3,,,,,2,,,74,0
37728,note_on,,,,,4,0,2,,,,,1,,,75,63
37728,note_on,,,,,4,0,3,,,,,2,,,75,108
37728,note_on,,,,,4,0,1,,,,,0,,,75,63
37820,note_off,,,,,92,0,1,,,,,0,,,75,0
37820,note_off,,,,,92,0,3,,,,,2,,,75,0
37820,note_off,,,,,92,0,2,,,,,1,,,75,0
37824,note_on,,,,,256,0,5,,,,,4,,,62,92
37824,note_on,,,,,256,0,8,,,,,7,,,62,50
37824,note_on,,,,,256,0,4,,,,,3,,,70,127
37824,note_on,,,,,256,0,7,,,,,6,,,46,75
37824,note_on,,,,,256,0,6,,,,,5,,,58,92
37824,note_on,,,,,0,0,8,,,,,7,,,65,50
37824,note_on,,,,,256,0,9,,,,,8,,,58,50
37824,note_on,,,,,4,0,3,,,,,2,,,77,108
37824,note_on,,,,,4,0,2,,,,,1,,,77,63
37824,note_on,,,,,4,0,1,,,,,0,,,77,63
37916,note_off,,,,,92,0,3,,,,,2,,,77,0
37916,note_off,,,,,92,0,2,,,,,1,,,77,0
37916,note_off,,,,,92,0,1,,,,,0,,,77,0
37920,note_on,,,,,4,0,3,,,,,2,,,79,108
37920,note_on,,,,,4,0,1,,,,,0,,,79,63
37920,note_on,,,,,4,0,2,,,,,1,,,79,63
38012,note_off,,,,,188,0,4,,,,,3,,,70,0
38012,note_off,,,,,92,0,2,,,,,1,,,79,0
38012,note_off,,,,,188,0,6,,,,,5,,,58,0
38012,note_off,,,,,188,0,7,,,,,6,,,46,0
38012,note_off,,,,,92,0,3,,,,,2,,,79,0
38012,note_off,,,,,188,0,5,,,,,4,,,62,0
38012,note_off,,,,,92,0,1,,,,,0,,,79,0
38012,note_off,,,,,0,0,8,,,,,7,,,65,0
38012,note_off,,,,,188,0,8,,,,,7,,,62,0
38012,note_off,,,,,188,0,9,,,,,8,,,58,0
38016,note_on,,,,,4,0,8,,,,,7,,,60,50
38016,note_on,,,,,4,0,9,,,,,8,,,53,50
38016,note_on,,,,,0,0,8,,,,,7,,,68,50
38016,note_on,,,,,4,0,4,,,,,3,,,68,127
38016,note_on,,,,,4,0,6,,,,,5,,,53,92
38016,note_on,,,,,4,0,1,,,,,0,,,80,63
38016,note_on,,,,,0,0,8,,,,,7,,,62,50
38016,note_on,,,,,4,0,3,,,,,2,,,80,108
38016,note_on,,,,,4,0,2,,,,,1,,,80,63
38016,note_on,,,,,4,0,5,,,,,4,,,62,92
38016,note_on,,,,,4,0,7,,,,,6,,,41,75
38204,note_off,,,,,188,0,3,,,,,2,,,80,0
38204,note_off,,,,,188,0,1,,,,,0,,,80,0
38204,note_off,,,,,188,0,2,,,,,1,,,80,0
38204,note_off,,,,,188,0,9,,,,,8,,,53,0
38204,note_off,,,,,188,0,7,,,,,6,,,41,0
38204,note_off,,,,,188,0,6,,,,,5,,,53,0
38208,note_on,,,,,4,0,1,,,,,0,,,72,63
38208,note_on,,,,,4,0,2,,,,,1,,,72,63
38208,note_on,,,,,4,0,9,,,,,8,,,41,50
38208,note_on,,,,,4,0,7,,,,,6,,,29,75
38208,note_on,,,,,4,0,3,,,,,2,,,72,108
38208,note_on,,,,,4,0,6,,,,,5,,,41,92
38336,note_off,,,,,320,0,8,,,,,7,,,60,0
38336,note_off,,,,,320,0,5,,,,,4,,,62,0
38336,note_off,,,,,0,0,8,,,,,7,,,68,0
38336,note_off,,,,,320,0,4,,,,,3,,,68,0
38336,note_off,,,,,0,0,8,,,,,7,,,62,0
38396,note_off,,,,,188,0,1,,,,,0,,,72,0
38396,note_off,,,,,188,0,9,,,,,8,,,41,0
38396,note_off,,,,,188,0,2,,,,,1,,,72,0
38396,note_off,,,,,188,0,3,,,,,2,,,72,0
38396,note_off,,,,,188,0,6,,,,,5,,,41,0
38396,note_off,,,,,188,0,7,,,,,6,,,29,0
38400,note_on,,,,,64,0,4,,,,,3,,,67,127
38400,note_on,,,,,4,0,1,,,,,0,,,71,63
38400,note_on,,,,,64,0,8,,,,,7,,,58,50
38400,note_on,,,,,4,0,7,,,,,6,,,31,75
38400,note_on,,,,,4,0,9,,,,,8,,,43,50
38400,note_on,,,,,4,0,6,,,,,5,,,43,92
38400,note_on,,,,,0,0,8,,,,,7,,,62,50
38400,note_on,,,,,4,0,2,,,,,1,,,71,63
38400,note_on,,,,,4,0,3,,,,,2,,,71,108
38400,note_on,,,,,64,0,5,,,,,4,,,62,92
38400,note_on,,,,,0,0,8,,,,,7,,,67,50
38588,note_off,,,,,188,0,7,,,,,6,,,31,0
38588,note_off,,,,,188,0,1,,,,,0,,,71,0
38588,note_off,,,,,188,0,9,,,,,8,,,43,0
38588,note_off,,,,,188,0,6,,,,,5,,,43,0
38588,note_off,,,,,188,0,3,,,,,2,,,71,0
38588,note_off,,,,,188,0,2,,,,,1,,,71,0
38592,note_on,,,,,4,0,1,,,,,0,,,79,63
38592,note_on,,,,,4,0,7,,,,,6,,,43,75
38592,note_on,,,,,4,0,2,,,,,1,,,79,63
38592,note_on,,,,,4,0,3,,,,,2,,,79,108
38592,note_on,,,,,4,0,9,,,,,8,,,55,50
38592,note_on,,,,,4,0,6,,,,,5,,,55,92
38720,note_off,,,,,320,0,4,,,,,3,,,67,0
38720,note_off,,,,,320,0,5,,,,,4,,,62,0
38720,note_off,,,,,0,0,8,,,,,7,,,62,0
38720,note_off,,,,,320,0,8,,,,,7,,,58,0
38720,note_off,,,,,0,0,8,,,,,7,,,67,0
38780,note_off,,,,,188,0,2,,,,,1,,,79,0
38780,note_off,,,,,188,0,1,,,,,0,,,79,0
38780,note_off,,,,,188,0,6,,,,,5,,,55,0
38780,note_off,,,,,188,0,9,,,,,8,,,55,0
38780,note_off,,,,,188,0,3,,,,,2,,,79,0
38780,note_off,,,,,188,0,7,,,,,6,,,43,0
38784,note_on,,,,,4,0,7,,,,,6,,,44,75
38784,note_on,,,,,64,0,8,,,,,7,,,60,50
38784,note_on,,,,,0,0,8,,,,,7,,,63,50
38784,note_on,,,,,4,0,1,,,,,0,,,72,63
38784,note_on,,,,,64,0,5,,,,,4,,,60,92
38784,note_on,,,,,4,0,9,,,,,8,,,56,50
38784,note_on,,,,,4,0,3,,,,,2,,,72,108
38784,note_on,,,,,4,0,6,,,,,5,,,56,92
38784,note_on,,,,,4,0,2,,,,,1,,,72,63
38784,note_on,,,,,64,0,4,,,,,3,,,63,127
38972,note_off,,,,,188,0,2,,,,,1,,,72,0
38972,note_off,,,,,188,0,8,,,,,7,,,60,0
38972,note_off,,,,,188,0,7,,,,,6,,,44,0
38972,note_off,,,,,188,0,1,,,,,0,,,72,0
38972,note_off,,,,,188,0,4,,,,,3,,,63,0
38972,note_off,,,,,0,0,8,,,,,7,,,63,0
38972,note_off,,,,,188,0,9,,,,,8,,,56,0
38972,note_off,,,,,188,0,6,,,,,5,,,56,0
38972,note_off,,,,,188,0,3,,,,,2,,,72,0
38972,note_off,,,,,188,0,5,,,,,4,,,60,0
38976,note_on,,,,,4,0,4,,,,,3,,,65,127
38976,note_on,,,,,4,0,3,,,,,2,,,80,108
38976,note_on,,,,,4,0,5,,,,,4,,,62,92
38976,note_on,,,,,0,0,8,,,,,7,,,65,50
38976,note_on,,,,,4,0,7,,,,,6,,,41,75
38976,note_on,,,,,4,0,8,,,,,7,,,62,50
38976,note_on,,,,,4,0,6,,,,,5,,,53,92
38976,note_on,,,,,4,0,9,,,,,8,,,53,50
38976,note_on,,,,,4,0,1,,,,,0,,,80,63
38976,note_on,,,,,4,0,2,,,,,1,,,80,63
39068,note_off,,,,,92,0,3,,,,,2,,,80,0
39068,note_off,,,,,92,0,1,,,,,0,,,80,0
39068,note_off,,,,,92,0,2,,,,,1,,,80,0
39072,note_on,,,,,4,0,1,,,,,0,,,79,63
39072,note_on,,,,,4,0,3,,,,,2,,,79,108
39072,note_on,,,,,4,0,2,,,,,1,,,79,63
39164,note_off,,,,,188,0,7,,,,,6,,,41,0
39164,note_off,,,,,188,0,4,,,,,3,,,65,0
39164,note_off,,,,,92,0,2,,,,,1,,,79,0
39164,note_off,,,,,0,0,8,,,,,7,,,65,0
39164,note_off,,,,,188,0,6,,,,,5,,,53,0
39164,note_off,,,,,188,0,5,,,,,4,,,62,0
39164,note_off,,,,,188,0,8,,,,,7,,,62,0
39164,note_off,,,,,188,0,9,,,,,8,,,53,0
39164,note_off,,,,,92,0,3,,,,,2,,,79,0
39164,note_off,,,,,92,0,1,,,,,0,,,79,0
39168,note_on,,,,,4,0,9,,,,,8,,,55,50
39168,note_on,,,,,4,0,3,,,,,2,,,77,108
39168,note_on,,,,,4,0,8,,,,,7,,,59,50
39168,note_on,,,,,0,0,8,,,,,7,,,62,50
39168,note_on,,,,,4,0,7,,,,,6,,,43,75
39168,note_on,,,,,4,0,2,,,,,1,,,77,63
39168,note_on,,,,,4,0,6,,,,,5,,,55,92
39168,note_on,,,,,4,0,1,,,,,0,,,77,63
39260,note_off,,,,,92,0,2,,,,,1,,,77,0
39260,note_off,,,,,92,0,1,,,,,0,,,77,0
39260,note_off,,,,,92,0,3,,,,,2,,,77,0
39264,note_on,,,,,4,0,2,,,,,1,,,75,63
39264,note_on,,,,,4,0,3,,,,,2,,,75,108
39264,note_on,,,,,4,0,1,,,,,0,,,75,63
39356,note_off,,,,,188,0,7,,,,,6,,,43,0
39356,note_off,,,,,188,0,6,,,,,5,,,55,0
39356,note_off,,,,,188,0,8,,,,,7,,,59,0
39356,note_off,,,,,188,0,9,,,,,8,,,55,0
39356,note_off,,,,,92,0,2,,,,,1,,,75,0
39356,note_off,,,,,92,0,1,,,,,0,,,75,0
39356,note_off,,,,,92,0,3,,,,,2,,,75,0
39360,note_on,,,,,4,0,6,,,,,5,,,56,92
39360,note_on,,,,,4,0,8,,,,,7,,,60,50
39360,note_on,,,,,196,0,5,,,,,4,,,62,92
39360,note_on,,,,,4,0,2,,,,,1,,,74,63
39360,note_on,,,,,4,0,9,,,,,8,,,56,50
39360,note_on,,,,,196,0,4,,,,,3,,,65,127
39360,note_on,,,,,4,0,3,,,,,2,,,74,108
39360,note_on,,,,,4,0,1,,,,,0,,,74,63
39360,note_on,,,,,4,0,7,,,,,6,,,44,75
39452,note_off,,,,,92,0,3,,,,,2,,,74,0
39452,note_off,,,,,92,0,1,,,,,0,,,74,0
39452,note_off,,,,,92,0,2,,,,,1,,,74,0
39456,note_on,,,,,4,0,2,,,,,1,,,72,63
39456,note_on,,,,,4,0,3,,,,,2,,,72,108
39456,note_on,,,,,4,0,1,,,,,0,,,72,63
39488,note_off,,,,,128,0,8,,,,,7,,,62,0
39548,note_off,,,,,92,0,3,,,,,2,,,72,0
39548,note_off,,,,,188,0,9,,,,,8,,,56,0
39548,note_off,,,,,92,0,1,,,,,0,,,72,0
39548,note_off,,,,,188,0,4,,,,,3,,,65,0
39548,note_off,,,,,188,0,7,,,,,6,,,44,0
39548,note_off,,,,,92,0,2,,,,,1,,,72,0
39548,note_off,,,,,60,0,8,,,,,7,,,60,0
39548,note_off,,,,,188,0,6,,,,,5,,,56,0
39548,note_off,,,,,188,0,5,,,,,4,,,62,0
39552,note_on,,,,,4,0,8,,,,,7,,,59,50
39552,note_on,,,,,4,0,2,,,,,1,,,71,63
39552,note_on,,,,,4,0,7,,,,,6,,,43,75
39552,note_on,,,,,4,0,3,,,,,2,,,71,108
39552,note_on,,,,,0,0,8,,,,,7,,,62,50
39552,note_on,,,,,4,0,4,,,,,3,,,67,127
39552,note_on,,,,,4,0,6,,,,,5,,,55,92
39552,note_on,,,,,4,0,5,,,,,4,,,62,92
39552,note_on,,,,,4,0,9,,,,,8,,,55,50
39552,note_on,,,,,0,0,8,,,,,7,,,67,50
39552,note_on,,,,,4,0,1,,,,,0,,,71,63
39740,note_off,,,,,188,0,6,,,,,5,,,55,0
39740,note_off,,,,,188,0,9,,,,,8,,,55,0
39740,note_off,,,,,188,0,7,,,,,6,,,43,0
39744,note_on,,,,,4,0,6,,,,,5,,,50,92
39744,note_on,,,,,4,0,9,,,,,8,,,50,50
39744,note_on,,,,,4,0,7,,,,,6,,,38,75
39836,note_off,,,,,92,0,6,,,,,5,,,50,0
39836,note_off,,,,,92,0,7,,,,,6,,,38,0
39836,note_off,,,,,92,0,9,,,,,8,,,50,0
39840,note_on,,,,,4,0,6,,,,,5,,,48,92
39840,note_on,,,,,4,0,9,,,,,8,,,48,50
39840,note_on,,,,,4,0,7,,,,,6,,,36,75
39872,note_off,,,,,320,0,3,,,,,2,,,71,0
39872,note_off,,,,,320,0,2,,,,,1,,,71,0
39872,note_off,,,,,320,0,5,,,,,4,,,62,0
39872,note_off,,,,,320,0,1,,,,,0,,,71,0
39872,note_off,,,,,320,0,4,,,,,3,,,67,0
39872,note_off,,,,,320,0,8,,,,,7,,,59,0
39872,note_off,,,,,0,0,8,,,,,7,,,62,0
39872,note_off,,,,,0,0,8,,,,,7,,,67,0
39932,note_off,,,,,92,0,6,,,,,5,,,48,0
39932,note_off,,,,,92,0,7,,,,,6,,,36,0
39932,note_off,,,,,92,0,9,,,,,8,,,48,0
39936,note_on,,,,,64,0,8,,,,,7,,,62,50
39936,note_on,,,,,0,0,8,,,,,7,,,67,50
39936,note_on,,,,,4,0,7,,,,,6,,,35,75
39936,note_on,,,,,4,0,9,,,,,8,,,47,50
39936,note_on,,,,,4,0,6,,,,,5,,,47,92
40032,note_on,,,,,160,0,3,,,,,2,,,74,108
40032,note_on,,,,,160,0,2,,,,,1,,,74,63
40032,note_on,,,,,160,0,1,,,,,0,,,74,63
40124,note_off,,,,,92,0,1,,,,,0,,,74,0
40124,note_off,,,,,188,0,7,,,,,6,,,35,0
40124,note_off,,,,,188,0,8,,,,,7,,,62,0
40124,note_off,,,,,0,0,8,,,,,7,,,67,0
40124,note_off,,,,,188,0,6,,,,,5,,,47,0
40124,note_off,,,,,188,0,9,,,,,8,,,47,0
40124,note_off,,,,,92,0,2,,,,,1,,,74,0
40124,note_off,,,,,92,0,3,,,,,2,,,74,0
40128,note_on,,,,,4,0,1,,,,,0,,,72,63
40128,note_on,,,,,4,0,6,,,,,5,,,45,92
40128,note_on,,,,,4,0,3,,,,,2,,,72,108
40128,note_on,,,,,4,0,2,,,,,1,,,72,63
40128,note_on,,,,,0,0,8,,,,,7,,,66,50
40128,note_on,,,,,4,0,8,,,,,7,,,60,50
40128,note_on,,,,,256,0,4,,,,,3,,,60,127
40128,note_on,,,,,0,0,8,,,,,7,,,69,50
40128,note_on,,,,,4,0,9,,,,,8,,,45,50
40128,note_on,,,,,256,0,5,,,,,4,,,65,92
40128,note_on,,,,,4,0,7,,,,,6,,,33,75
40220,note_off,,,,,92,0,1,,,,,0,,,72,0
40220,note_off,,,,,92,0,6,,,,,5,,,45,0
40220,note_off,,,,,92,0,7,,,,,6,,,33,0
40220,note_off,,,,,92,0,3,,,,,2,,,72,0
40220,note_off,,,,,92,0,9,,,,,8,,,45,0
40220,note_off,,,,,92,0,2,,,,,1,,,72,0
40224,note_on,,,,,4,0,9,,,,,8,,,47,50
40224,note_on,,,,,4,0,6,,,,,5,,,47,92
40224,note_on,,,,,4,0,1,,,,,0,,,74,63
40224,note_on,,,,,4,0,3,,,,,2,,,74,108
40224,note_on,,,,,4,0,7,,,,,6,,,35,75
40224,note_on,,,,,4,0,2,,,,,1,,,74,63
40316,note_off,,,,,188,0,5,,,,,4,,,65,0
40316,note_off,,,,,92,0,3,,,,,2,,,74,0
40316,note_off,,,,,92,0,7,,,,,6,,,35,0
40316,note_off,,,,,92,0,2,,,,,1,,,74,0
40316,note_off,,,,,0,0,8,,,,,7,,,69,0
40316,note_off,,,,,0,0,8,,,,,7,,,66,0
40316,note_off,,,,,188,0,8,,,,,7,,,60,0
40316,note_off,,,,,188,0,4,,,,,3,,,60,0
40316,note_off,,,,,92,0,1,,,,,0,,,74,0
40316,note_off,,,,,92,0,9,,,,,8,,,47,0
40316,note_off,,,,,92,0,6,,,,,5,,,47,0
40320,note_on,,,,,4,0,2,,,,,1,,,71,63
40320,note_on,,,,,0,0,8,,,,,7,,,71,50
40320,note_on,,,,,0,0,8,,,,,7,,,67,50
40320,note_on,,,,,4,0,7,,,,,6,,,31,75
40320,note_on,,,,,4,0,8,,,,,7,,,62,50
40320,note_on,,,,,4,0,4,,,,,3,,,62,127
40320,note_on,,,,,4,0,5,,,,,4,,,67,92
40320,note_on,,,,,4,0,9,,,,,8,,,43,50
40320,note_on,,,,,4,0,6,,,,,5,,,43,92
40320,note_on,,,,,4,0,3,,,,,2,,,71,108
40320,note_on,,,,,4,0,1,,,,,0,,,71,63
40412,note_off,,,,,92,0,1,,,,,0,,,71,0
40412,note_off,,,,,92,0,3,,,,,2,,,71,0
40412,note_off,,,,,92,0,2,,,,,1,,,71,0
40416,note_on,,,,,4,0,1,,,,,0,,,67,63
40416,note_on,,,,,4,0,3,,,,,2,,,67,108
40416,note_on,,,,,4,0,2,,,,,1,,,67,63
40508,note_off,,,,,92,0,2,,,,,1,,,67,0
40508,note_off,,,,,92,0,3,,,,,2,,,67,0
40508,note_off,,,,,92,0,1,,,,,0,,,67,0
40512,note_on,,,,,4,0,3,,,,,2,,,71,108
40512,note_on,,,,,4,0,1,,,,,0,,,71,63
40512,note_on,,,,,4,0,2,,,,,1,,,71,63
40604,note_off,,,,,92,0,1,,,,,0,,,71,0
40604,note_off,,,,,92,0,3,,,,,2,,,71,0
40604,note_off,,,,,92,0,2,,,,,1,,,71,0
40608,note_on,,,,,4,0,3,,,,,2,,,74,108
40608,note_on,,,,,4,0,1,,,,,0,,,74,63
40608,note_on,,,,,4,0,2,,,,,1,,,74,63
40640,note_off,,,,,0,0,8,,,,,7,,,71,0
40640,note_off,,,,,320,0,8,,,,,7,,,62,0
40640,note_off,,,,,320,0,4,,,,,3,,,62,0
40640,note_off,,,,,320,0,5,,,,,4,,,67,0
40640,note_off,,,,,0,0,8,,,,,7,,,67,0
40640,note_off,,,,,320,0,7,,,,,6,,,31,0
40640,note_off,,,,,320,0,9,,,,,8,,,43,0
40640,note_off,,,,,320,0,6,,,,,5,,,43,0
40700,note_off,,,,,92,0,2,,,,,1,,,74,0
40700,note_off,,,,,92,0,1,,,,,0,,,74,0
40700,note_off,,,,,92,0,3,,,,,2,,,74,0
40704,note_on,,,,,4,0,1,,,,,0,,,79,63
40704,note_on,,,,,4,0,2,,,,,1,,,79,63
40704,note_on,,,,,4,0,3,,,,,2,,,79,108
40796,note_off,,,,,92,0,2,,,,,1,,,79,0
40796,note_off,,,,,92,0,1,,,,,0,,,79,0
40796,note_off,,,,,92,0,3,,,,,2,,,79,0
40800,note_on,,,,,4,0,2,,,,,1,,,74,63
40800,note_on,,,,,4,0,1,,,,,0,,,74,63
40800,note_on,,,,,4,0,3,,,,,2,,,74,108
40892,note_off,,,,,92,0,2,,,,,1,,,74,0
40892,note_off,,,,,92,0,1,,,,,0,,,74,0
40892,note_off,,,,,92,0,3,,,,,2,,,74,0
40896,note_on,,,,,256,0,7,,,,,6,,,43,75
40896,note_on,,,,,4,0,1,,,,,0,,,75,63
40896,note_on,,,,,256,0,6,,,,,5,,,55,92
40896,note_on,,,,,4,0,2,,,,,1,,,75,63
40896,note_on,,,,,256,0,5,,,,,4,,,67,92
40896,note_on,,,,,4,0,3,,,,,2,,,75,108
40896,note_on,,,,,256,0,9,,,,,8,,,55,50
40896,note_on,,,,,256,0,8,,,,,7,,,62,50
40896,note_on,,,,,0,0,8,,,,,7,,,71,50
40896,note_on,,,,,0,0,8,,,,,7,,,67,50
40896,note_on,,,,,256,0,4,,,,,3,,,71,127
40988,note_off,,,,,92,0,2,,,,,1,,,75,0
40988,note_off,,,,,92,0,1,,,,,0,,,75,0
40988,note_off,,,,,92,0,3,,,,,2,,,75,0
40992,note_on,,,,,4,0,3,,,,,2,,,77,108
40992,note_on,,,,,4,0,2,,,,,1,,,77,63
40992,note_on,,,,,4,0,1,,,,,0,,,77,63
41084,note_off,,,,,0,0,8,,,,,7,,,67,0
41084,note_off,,,,,188,0,8,,,,,7,,,62,0
41084,note_off,,,,,188,0,4,,,,,3,,,71,0
41084,note_off,,,,,188,0,5,,,,,4,,,67,0
41084,note_off,,,,,0,0,8,,,,,7,,,71,0
41084,note_off,,,,,92,0,2,,,,,1,,,77,0
41084,note_off,,,,,188,0,6,,,,,5,,,55,0
41084,note_off,,,,,188,0,7,,,,,6,,,43,0
41084,note_off,,,,,92,0,3,,,,,2,,,77,0
41084,note_off,,,,,92,0,1,,,,,0,,,77,0
41084,note_off,,,,,188,0,9,,,,,8,,,55,0
41088,note_on,,,,,4,0,7,,,,,6,,,48,75
41088,note_on,,,,,4,0,5,,,,,4,,,67,92
41088,note_on,,,,,4,0,6,,,,,5,,,60,92
41088,note_on,,,,,4,0,3,,,,,2,,,75,108
41088,note_on,,,,,4,0,9,,,,,8,,,60,50
41088,note_on,,,,,4,0,8,,,,,7,,,63,50
41088,note_on,,,,,4,0,4,,,,,3,,,72,127
41088,note_on,,,,,0,0,8,,,,,7,,,72,50
41088,note_on,,,,,4,0,1,,,,,0,,,75,63
41088,note_on,,,,,0,0,8,,,,,7,,,67,50
41088,note_on,,,,,4,0,2,,,,,1,,,75,63
41276,note_off,,,,,188,0,9,,,,,8,,,60,0
41276,note_off,,,,,188,0,7,,,,,6,,,48,0
41276,note_off,,,,,188,0,6,,,,,5,,,60,0
41280,note_on,,,,,4,0,9,,,,,8,,,55,50
41280,note_on,,,,,4,0,7,,,,,6,,,43,75
41280,note_on,,,,,4,0,6,,,,,5,,,55,92
41372,note_off,,,,,92,0,9,,,,,8,,,55,0
41372,note_off,,,,,92,0,6,,,,,5,,,55,0
41372,note_off,,,,,92,0,7,,,,,6,,,43,0
41376,note_on,,,,,4,0,6,,,,,5,,,53,92
41376,note_on,,,,,4,0,7,,,,,6,,,41,75
41376,note_on,,,,,4,0,9,,,,,8,,,53,50
41408,note_off,,,,,320,0,2,,,,,1,,,75,0
41408,note_off,,,,,320,0,1,,,,,0,,,75,0
41408,note_off,,,,,320,0,4,,,,,3,,,72,0
41408,note_off,,,,,0,0,8,,,,,7,,,72,0
41408,note_off,,,,,320,0,8,,,,,7,,,63,0
41408,note_off,,,,,320,0,5,,,,,4,,,67,0
41408,note_off,,,,,0,0,8,,,,,7,,,67,0
41408,note_off,,,,,320,0,3,,,,,2,,,75,0
41468,note_off,,,,,92,0,7,,,,,6,,,41,0
41468,note_off,,,,,92,0,9,,,,,8,,,53,0
41468,note_off,,,,,92,0,6,,,,,5,,,53,0
41472,note_on,,,,,4,0,7,,,,,6,,,39,75
41472,note_on,,,,,4,0,9,,,,,8,,,51,50
41472,note_on,,,,,64,0,8,,,,,7,,,60,50
41472,note_on,,,,,0,0,8,,,,,7,,,67,50
41472,note_on,,,,,4,0,6,,,,,5,,,51,92
41568,note_on,,,,,160,0,3,,,,,2,,,79,108
41568,note_on,,,,,160,0,2,,,,,1,,,79,63
41568,note_on,,,,,160,0,1,,,,,0,,,79,63
41660,note_off,,,,,0,0,8,,,,,7,,,67,0
41660,note_off,,,,,92,0,1,,,,,0,,,79,0
41660,note_off,,,,,188,0,8,,,,,7,,,60,0
41660,note_off,,,,,188,0,9,,,,,8,,,51,0
41660,note_off,,,,,92,0,3,,,,,2,,,79,0
41660,note_off,,,,,92,0,2,,,,,1,,,79,0
41660,note_off,,,,,188,0,6,,,,,5,,,51,0
41660,note_off,,,,,188,0,7,,,,,6,,,39,0
41664,note_on,,,,,4,0,2,,,,,1,,,77,63
41664,note_on,,,,,4,0,6,,,,,5,,,50,92
41664,note_on,,,,,4,0,8,,,,,7,,,62,50
41664,note_on,,,,,0,0,8,,,,,7,,,65,50
41664,note_on,,,,,0,0,8,,,,,7,,,71,50
41664,note_on,,,,,256,0,5,,,,,4,,,71,92
41664,note_on,,,,,4,0,7,,,,,6,,,38,75
41664,note_on,,,,,256,0,4,,,,,3,,,65,127
41664,note_on,,,,,4,0,3,,,,,2,,,77,108
41664,note_on,,,,,4,0,1,,,,,0,,,77,63
41664,note_on,,,,,4,0,9,,,,,8,,,50,50
41756,note_off,,,,,92,0,2,,,,,1,,,77,0
41756,note_off,,,,,92,0,9,,,,,8,,,50,0
41756,note_off,,,,,92,0,1,,,,,0,,,77,0
41756,note_off,,,,,92,0,7,,,,,6,,,38,0
41756,note_off,,,,,92,0,6,,,,,5,,,50,0
41756,note_off,,,,,92,0,3,,,,,2,,,77,0
41760,note_on,,,,,4,0,2,,,,,1,,,79,63
41760,note_on,,,,,4,0,3,,,,,2,,,79,108
41760,note_on,,,,,4,0,9,,,,,8,,,51,50
41760,note_on,,,,,4,0,1,,,,,0,,,79,63
41760,note_on,,,,,4,0,7,,,,,6,,,39,75
41760,note_on,,,,,4,0,6,,,,,5,,,51,92
41852,note_off,,,,,92,0,6,,,,,5,,,51,0
41852,note_off,,,,,92,0,7,,,,,6,,,39,0
41852,note_off,,,,,0,0,8,,,,,7,,,65,0
41852,note_off,,,,,188,0,4,,,,,3,,,65,0
41852,note_off,,,,,0,0,8,,,,,7,,,71,0
41852,note_off,,,,,92,0,2,,,,,1,,,79,0
41852,note_off,,,,,188,0,5,,,,,4,,,71,0
41852,note_off,,,,,92,0,9,,,,,8,,,51,0
41852,note_off,,,,,92,0,3,,,,,2,,,79,0
41852,note_off,,,,,188,0,8,,,,,7,,,62,0
41852,note_off,,,,,92,0,1,,,,,0,,,79,0
41856,note_on,,,,,4,0,8,,,,,7,,,63,50
41856,note_on,,,,,0,0,8,,,,,7,,,67,50
41856,note_on,,,,,0,0,8,,,,,7,,,72,50
41856,note_on,,,,,4,0,3,,,,,2,,,75,108
41856,note_on,,,,,4,0,1,,,,,0,,,75,63
41856,note_on,,,,,4,0,6,,,,,5,,,48,92
41856,note_on,,,,,4,0,7,,,,,6,,,36,75
41856,note_on,,,,,4,0,2,,,,,1,,,75,63
41856,note_on,,,,,4,0,9,,,,,8,,,48,50
41856,note_on,,,,,4,0,4,,,,,3,,,67,127
41856,note_on,,,,,4,0,5,,,,,4,,,72,92
41948,note_off,,,,,92,0,3,,,,,2,,,75,0
41948,note_off,,,,,92,0,1,,,,,0,,,75,0
41948,note_off,,,,,92,0,2,,,,,1,,,75,0
41952,note_on,,,,,4,0,1,,,,,0,,,72,63
41952,note_on,,,,,4,0,2,,,,,1,,,72,63
41952,note_on,,,,,4,0,3,,,,,2,,,72,108
42044,note_off,,,,,92,0,2,,,,,1,,,72,0
42044,note_off,,,,,92,0,1,,,,,0,,,72,0
42044,note_off,,,,,92,0,3,,,,,2,,,72,0
42048,note_on,,,,,4,0,2,,,,,1,,,75,63
42048,note_on,,,,,4,0,1,,,,,0,,,75,63
42048,note_on,,,,,4,0,3,,,,,2,,,75,108
42140,note_off,,,,,92,0,1,,,,,0,,,75,0
42140,note_off,,,,,92,0,2,,,,,1,,,75,0
42140,note_off,,,,,92,0,3,,,,,2,,,75,0
42144,note_on,,,,,4,0,2,,,,,1,,,79,63
42144,note_on,,,,,4,0,3,,,,,2,,,79,108
42144,note_on,,,,,4,0,1,,,,,0,,,79,63
42176,note_off,,,,,0,0,8,,,,,7,,,67,0
42176,note_off,,,,,320,0,4,,,,,3,,,67,0
42176,note_off,,,,,320,0,6,,,,,5,,,48,0
42176,note_off,,,,,320,0,5,,,,,4,,,72,0
42176,note_off,,,,,320,0,8,,,,,7,,,63,0
42176,note_off,,,,,320,0,7,,,,,6,,,36,0
42176,note_off,,,,,320,0,9,,,,,8,,,48,0
42176,note_off,,,,,0,0,8,,,,,7,,,72,0
42236,note_off,,,,,92,0,2,,,,,1,,,79,0
42236,note_off,,,,,92,0,1,,,,,0,,,79,0
42236,note_off,,,,,92,0,3,,,,,2,,,79,0
42240,note_on,,,,,4,0,3,,,,,2,,,84,108
42240,note_on,,,,,4,0,1,,,,,0,,,84,63
42240,note_on,,,,,4,0,2,,,,,1,,,84,63
42332,note_off,,,,,92,0,1,,,,,0,,,84,0
42332,note_off,,,,,92,0,2,,,,,1,,,84,0
42332,note_off,,,,,92,0,3,,,,,2,,,84,0
42336,note_on,,,,,4,0,1,,,,,0,,,79,63
42336,note_on,,,,,4,0,3,,,,,2,,,79,108
42336,note_on,,,,,4,0,2,,,,,1,,,79,63
42428,note_off,,,,,92,0,3,,,,,2,,,79,0
42428,note_off,,,,,92,0,2,,,,,1,,,79,0
42428,note_off,,,,,92,0,1,,,,,0,,,79,0
42432,note_on,,,,,4,0,2,,,,,1,,,80,63
42432,note_on,,,,,256,0,7,,,,,6,,,48,75
42432,note_on,,,,,4,0,3,,,,,2,,,80,108
42432,note_on,,,,,256,0,9,,,,,8,,,60,50
42432,note_on,,,,,256,0,4,,,,,3,,,76,127
42432,note_on,,,,,256,0,8,,,,,7,,,64,50
42432,note_on,,,,,256,0,5,,,,,4,,,72,92
42432,note_on,,,,,0,0,8,,,,,7,,,67,50
42432,note_on,,,,,0,0,8,,,,,7,,,72,50
42432,note_on,,,,,256,0,6,,,,,5,,,60,92
42432,note_on,,,,,4,0,1,,,,,0,,,80,63
42524,note_off,,,,,92,0,2,,,,,1,,,80,0
42524,note_off,,,,,92,0,1,,,,,0,,,80,0
42524,note_off,,,,,92,0,3,,,,,2,,,80,0
42528,note_on,,,,,4,0,3,,,,,2,,,82,108
42528,note_on,,,,,4,0,2,,,,,1,,,82,63
42528,note_on,,,,,4,0,1,,,,,0,,,82,63
42620,note_off,,,,,188,0,6,,,,,5,,,60,0
42620,note_off,,,,,92,0,2,,,,,1,,,82,0
42620,note_off,,,,,92,0,3,,,,,2,,,82,0
42620,note_off,,,,,188,0,7,,,,,6,,,48,0
42620,note_off,,,,,188,0,4,,,,,3,,,76,0
42620,note_off,,,,,0,0,8,,,,,7,,,72,0
42620,note_off,,,,,0,0,8,,,,,7,,,67,0
42620,note_off,,,,,188,0,8,,,,,7,,,64,0
42620,note_off,,,,,92,0,1,,,,,0,,,82,0
42620,note_off,,,,,188,0,9,,,,,8,,,60,0
42620,note_off,,,,,188,0,5,,,,,4,,,72,0
42624,note_on,,,,,4,0,7,,,,,6,,,53,75
42624,note_on,,,,,4,0,9,,,,,8,,,65,50
42624,note_on,,,,,4,0,3,,,,,2,,,80,108
42624,note_on,,,,,4,0,4,,,,,3,,,77,127
42624,note_on,,,,,4,0,2,,,,,1,,,80,63
42624,note_on,,,,,4,0,5,,,,,4,,,72,92
42624,note_on,,,,,4,0,1,,,,,0,,,80,63
42624,note_on,,,,,4,0,8,,,,,7,,,65,50
42624,note_on,,,,,0,0,8,,,,,7,,,72,50
42624,note_on,,,,,4,0,6,,,,,5,,,65,92
42624,note_on,,,,,0,0,8,,,,,7,,,68,50
42812,note_off,,,,,188,0,6,,,,,5,,,65,0
42812,note_off,,,,,188,0,9,,,,,8,,,65,0
42812,note_off,,,,,188,0,7,,,,,6,,,53,0
42816,note_on,,,,,4,0,6,,,,,5,,,60,92
42816,note_on,,,,,4,0,9,,,,,8,,,60,50
42816,note_on,,,,,4,0,7,,,,,6,,,48,75
42908,note_off,,,,,92,0,6,,,,,5,,,60,0
42908,note_off,,,,,92,0,7,,,,,6,,,48,0
42908,note_off,,,,,92,0,9,,,,,8,,,60,0
42912,note_on,,,,,4,0,9,,,,,8,,,58,50
42912,note_on,,,,,4,0,7,,,,,6,,,46,75
42912,note_on,,,,,4,0,6,,,,,5,,,58,92
42944,note_off,,,,,0,0,8,,,,,7,,,72,0
42944,note_off,,,,,320,0,3,,,,,2,,,80,0
42944,note_off,,,,,320,0,1,,,,,0,,,80,0
42944,note_off,,,,,320,0,5,,,,,4,,,72,0
42944,note_off,,,,,0,0,8,,,,,7,,,68,0
42944,note_off,,,,,320,0,8,,,,,7,,,65,0
42944,note_off,,,,,320,0,4,,,,,3,,,77,0
42944,note_off,,,,,320,0,2,,,,,1,,,80,0
43004,note_off,,,,,92,0,6,,,,,5,,,58,0
43004,note_off,,,,,92,0,7,,,,,6,,,46,0
43004,note_off,,,,,92,0,9,,,,,8,,,58,0
43008,note_on,,,,,4,0,9,,,,,8,,,56,50
43008,note_on,,,,,4,0,6,,,,,5,,,56,92
43008,note_on,,,,,0,0,8,,,,,7,,,65,50
43008,note_on,,,,,64,0,8,,,,,7,,,60,50
43008,note_on,,,,,4,0,7,,,,,6,,,44,75
43104,note_on,,,,,160,0,1,,,,,0,,,72,63
43104,note_on,,,,,160,0,3,,,,,2,,,72,108
43104,note_on,,,,,160,0,2,,,,,1,,,72,63
43196,note_off,,,,,188,0,6,,,,,5,,,56,0
43196,note_off,,,,,92,0,1,,,,,0,,,72,0
43196,note_off,,,,,0,0,8,,,,,7,,,65,0
43196,note_off,,,,,188,0,8,,,,,7,,,60,0
43196,note_off,,,,,92,0,2,,,,,1,,,72,0
43196,note_off,,,,,92,0,3,,,,,2,,,72,0
43196,note_off,,,,,188,0,7,,,,,6,,,44,0
43196,note_off,,,,,188,0,9,,,,,8,,,56,0
43200,note_on,,,,,4,0,9,,,,,8,,,55,50
43200,note_on,,,,,4,0,3,,,,,2,,,70,108
43200,note_on,,,,,4,0,8,,,,,7,,,58,50
43200,note_on,,,,,4,0,7,,,,,6,,,43,75
43200,note_on,,,,,4,0,1,,,,,0,,,70,63
43200,note_on,,,,,256,0,5,,,,,4,,,58,92
43200,note_on,,,,,0,0,8,,,,,7,,,64,50
43200,note_on,,,,,4,0,6,,,,,5,,,55,92
43200,note_on,,,,,4,0,2,,,,,1,,,70,63
43200,note_on,,,,,256,0,4,,,,,3,,,64,127
43200,note_on,,,,,0,0,8,,,,,7,,,67,50
43292,note_off,,,,,92,0,3,,,,,2,,,70,0
43292,note_off,,,,,92,0,7,,,,,6,,,43,0
43292,note_off,,,,,92,0,1,,,,,0,,,70,0
43292,note_off,,,,,92,0,9,,,,,8,,,55,0
43292,note_off,,,,,92,0,6,,,,,5,,,55,0
43292,note_off,,,,,92,0,2,,,,,1,,,70,0
43296,note_on,,,,,4,0,9,,,,,8,,,56,50
43296,note_on,,,,,4,0,1,,,,,0,,,72,63
43296,note_on,,,,,4,0,3,,,,,2,,,72,108
43296,note_on,,,,,4,0,6,,,,,5,,,56,92
43296,note_on,,,,,4,0,2,,,,,1,,,72,63
43296,note_on,,,,,4,0,7,,,,,6,,,44,75
43388,note_off,,,,,92,0,1,,,,,0,,,72,0
43388,note_off,,,,,188,0,5,,,,,4,,,58,0
43388,note_off,,,,,0,0,8,,,,,7,,,67,0
43388,note_off,,,,,188,0,4,,,,,3,,,64,0
43388,note_off,,,,,188,0,8,,,,,7,,,58,0
43388,note_off,,,,,92,0,7,,,,,6,,,44,0
43388,note_off,,,,,0,0,8,,,,,7,,,64,0
43388,note_off,,,,,92,0,2,,,,,1,,,72,0
43388,note_off,,,,,92,0,9,,,,,8,,,56,0
43388,note_off,,,,,92,0,6,,,,,5,,,56,0
43388,note_off,,,,,92,0,3,,,,,2,,,72,0
43392,note_on,,,,,4,0,2,,,,,1,,,68,63
43392,note_on,,,,,4,0,9,,,,,8,,,53,50
43392,note_on,,,,,4,0,1,,,,,0,,,68,63
43392,note_on,,,,,4,0,5,,,,,4,,,60,92
43392,note_on,,,,,4,0,7,,,,,6,,,41,75
43392,note_on,,,,,4,0,3,,,,,2,,,68,108
43392,note_on,,,,,0,0,8,,,,,7,,,65,50
43392,note_on,,,,,0,0,8,,,,,7,,,68,50
43392,note_on,,,,,4,0,4,,,,,3,,,65,127
43392,note_on,,,,,4,0,6,,,,,5,,,53,92
43392,note_on,,,,,4,0,8,,,,,7,,,60,50
43484,note_off,,,,,92,0,3,,,,,2,,,68,0
43484,note_off,,,,,92,0,1,,,,,0,,,68,0
43484,note_off,,,,,92,0,2,,,,,1,,,68,0
43488,note_on,,,,,4,0,3,,,,,2,,,65,108
43488,note_on,,,,,4,0,1,,,,,0,,,65,63
43488,note_on,,,,,4,0,2,,,,,1,,,65,63
43580,note_off,,,,,92,0,1,,,,,0,,,65,0
43580,note_off,,,,,92,0,2,,,,,1,,,65,0
43580,note_off,,,,,92,0,3,,,,,2,,,65,0
43584,note_on,,,,,4,0,1,,,,,0,,,68,63
43584,note_on,,,,,4,0,3,,,,,2,,,68,108
43584,note_on,,,,,4,0,2,,,,,1,,,68,63
43676,note_off,,,,,92,0,2,,,,,1,,,68,0
43676,note_off,,,,,92,0,3,,,,,2,,,68,0
43676,note_off,,,,,92,0,1,,,,,0,,,68,0
43680,note_on,,,,,4,0,3,,,,,2,,,72,108
43680,note_on,,,,,4,0,2,,,,,1,,,72,63
43680,note_on,,,,,4,0,1,,,,,0,,,72,63
43712,note_off,,,,,320,0,4,,,,,3,,,65,0
43712,note_off,,,,,320,0,7,,,,,6,,,41,0
43712,note_off,,,,,320,0,5,,,,,4,,,60,0
43712,note_off,,,,,320,0,8,,,,,7,,,60,0
43712,note_off,,,,,0,0,8,,,,,7,,,65,0
43712,note_off,,,,,0,0,8,,,,,7,,,68,0
43712,note_off,,,,,320,0,9,,,,,8,,,53,0
43712,note_off,,,,,320,0,6,,,,,5,,,53,0
43772,note_off,,,,,92,0,2,,,,,1,,,72,0
43772,note_off,,,,,92,0,1,,,,,0,,,72,0
43772,note_off,,,,,92,0,3,,,,,2,,,72,0
43776,note_on,,,,,4,0,1,,,,,0,,,77,63
43776,note_on,,,,,4,0,2,,,,,1,,,77,63
43776,note_on,,,,,4,0,3,,,,,2,,,77,108
43868,note_off,,,,,92,0,2,,,,,1,,,77,0
43868,note_off,,,,,92,0,3,,,,,2,,,77,0
43868,note_off,,,,,92,0,1,,,,,0,,,77,0
43872,note_on,,,,,4,0,3,,,,,2,,,72,108
43872,note_on,,,,,4,0,1,,,,,0,,,72,63
43872,note_on,,,,,4,0,2,,,,,1,,,72,63
43964,note_off,,,,,92,0,3,,,,,2,,,72,0
43964,note_off,,,,,92,0,1,,,,,0,,,72,0
43964,note_off,,,,,92,0,2,,,,,1,,,72,0
43968,note_on,,,,,0,0,8,,,,,7,,,65,50
43968,note_on,,,,,4,0,2,,,,,1,,,74,63
43968,note_on,,,,,4,0,1,,,,,0,,,74,63
43968,note_on,,,,,256,0,9,,,,,8,,,53,50
43968,note_on,,,,,0,0,8,,,,,7,,,69,50
43968,note_on,,,,,256,0,4,,,,,3,,,69,127
43968,note_on,,,,,256,0,8,,,,,7,,,60,50
43968,note_on,,,,,256,0,7,,,,,6,,,41,75
43968,note_on,,,,,256,0,5,,,,,4,,,65,92
43968,note_on,,,,,256,0,6,,,,,5,,,53,92
43968,note_on,,,,,4,0,3,,,,,2,,,74,108
44060,note_off,,,,,92,0,2,,,,,1,,,74,0
44060,note_off,,,,,92,0,1,,,,,0,,,74,0
44060,note_off,,,,,92,0,3,,,,,2,,,74,0
44064,note_on,,,,,4,0,2,,,,,1,,,75,63
44064,note_on,,,,,4,0,3,,,,,2,,,75,108
44064,note_on,,,,,4,0,1,,,,,0,,,75,63
44156,note_off,,,,,92,0,3,,,,,2,,,75,0
44156,note_off,,,,,188,0,4,,,,,3,,,69,0
44156,note_off,,,,,0,0,8,,,,,7,,,65,0
44156,note_off,,,,,188,0,8,,,,,7,,,60,0
44156,note_off,,,,,92,0,2,,,,,1,,,75,0
44156,note_off,,,,,92,0,1,,,,,0,,,75,0
44156,note_off,,,,,188,0,5,,,,,4,,,65,0
44156,note_off,,,,,0,0,8,,,,,7,,,69,0
44156,note_off,,,,,188,0,7,,,,,6,,,41,0
44156,note_off,,,,,188,0,9,,,,,8,,,53,0
44156,note_off,,,,,188,0,6,,,,,5,,,53,0
44160,note_on,,,,,4,0,6,,,,,5,,,58,92
44160,note_on,,,,,4,0,5,,,,,4,,,65,92
44160,note_on,,,,,4,0,8,,,,,7,,,62,50
44160,note_on,,,,,4,0,9,,,,,8,,,58,50
44160,note_on,,,,,4,0,2,,,,,1,,,74,63
44160,note_on,,,,,4,0,7,,,,,6,,,46,75
44160,note_on,,,,,4,0,3,,,,,2,,,74,108
44160,note_on,,,,,0,0,8,,,,,7,,,65,50
44160,note_on,,,,,4,0,1,,,,,0,,,74,63
44160,note_on,,,,,4,0,4,,,,,3,,,70,127
44160,note_on,,,,,0,0,8,,,,,7,,,70,50
44348,note_off,,,,,188,0,6,,,,,5,,,58,0
44348,note_off,,,,,188,0,9,,,,,8,,,58,0
44348,note_off,,,,,188,0,7,,,,,6,,,46,0
44352,note_on,,,,,4,0,9,,,,,8,,,53,50
44352,note_on,,,,,4,0,6,,,,,5,,,53,92
44352,note_on,,,,,4,0,7,,,,,6,,,41,75
44444,note_off,,,,,92,0,7,,,,,6,,,41,0
44444,note_off,,,,,92,0,6,,,,,5,,,53,0
44444,note_off,,,,,92,0,9,,,,,8,,,53,0
44448,note_on,,,,,4,0,7,,,,,6,,,39,75
44448,note_on,,,,,4,0,6,,,,,5,,,51,92
44448,note_on,,,,,4,0,9,,,,,8,,,51,50
44480,note_off,,,,,320,0,4,,,,,3,,,70,0
44480,note_off,,,,,320,0,2,,,,,1,,,74,0
44480,note_off,,,,,320,0,8,,,,,7,,,62,0
44480,note_off,,,,,0,0,8,,,,,7,,,65,0
44480,note_off,,,,,320,0,1,,,,,0,,,74,0
44480,note_off,,,,,0,0,8,,,,,7,,,70,0
44480,note_off,,,,,320,0,3,,,,,2,,,74,0
44480,note_off,,,,,320,0,5,,,,,4,,,65,0
44540,note_off,,,,,92,0,6,,,,,5,,,51,0
44540,note_off,,,,,92,0,9,,,,,8,,,51,0
44540,note_off,,,,,92,0,7,,,,,6,,,39,0
44544,note_on,,,,,4,0,6,,,,,5,,,50,92
44544,note_on,,,,,4,0,7,,,,,6,,,38,75
44544,note_on,,,,,0,0,8,,,,,7,,,65,50
44544,note_on,,,,,64,0,8,,,,,7,,,58,50
44544,note_on,,,,,4,0,9,,,,,8,,,50,50
44640,note_on,,,,,160,0,3,,,,,2,,,77,108
44640,note_on,,,,,160,0,2,,,,,1,,,77,63
44640,note_on,,,,,160,0,1,,,,,0,,,77,63
44732,note_off,,,,,188,0,6,,,,,5,,,50,0
44732,note_off,,,,,0,0,8,,,,,7,,,65,0
44732,note_off,,,,,188,0,8,,,,,7,,,58,0
44732,note_off,,,,,92,0,2,,,,,1,,,77,0
44732,note_off,,,,,92,0,3,,,,,2,,,77,0
44732,note_off,,,,,188,0,9,,,,,8,,,50,0
44732,note_off,,,,,188,0,7,,,,,6,,,38,0
44732,note_off,,,,,92,0,1,,,,,0,,,77,0
44736,note_on,,,,,0,0,8,,,,,7,,,63,50
44736,note_on,,,,,0,0,8,,,,,7,,,69,50
44736,note_on,,,,,256,0,4,,,,,3,,,69,127
44736,note_on,,,,,4,0,3,,,,,2,,,75,108
44736,note_on,,,,,4,0,9,,,,,8,,,48,50
44736,note_on,,,,,4,0,7,,,,,6,,,36,75
44736,note_on,,,,,4,0,6,,,,,5,,,48,92
44736,note_on,,,,,256,0,5,,,,,4,,,63,92
44736,note_on,,,,,4,0,1,,,,,0,,,75,63
44736,note_on,,,,,4,0,2,,,,,1,,,75,63
44736,note_on,,,,,4,0,8,,,,,7,,,60,50
44828,note_off,,,,,92,0,3,,,,,2,,,75,0
44828,note_off,,,,,92,0,6,,,,,5,,,48,0
44828,note_off,,,,,92,0,2,,,,,1,,,75,0
44828,note_off,,,,,92,0,9,,,,,8,,,48,0
44828,note_off,,,,,92,0,1,,,,,0,,,75,0
44828,note_off,,,,,92,0,7,,,,,6,,,36,0
44832,note_on,,,,,4,0,1,,,,,0,,,77,63
44832,note_on,,,,,4,0,3,,,,,2,,,77,108
44832,note_on,,,,,4,0,6,,,,,5,,,50,92
44832,note_on,,,,,4,0,2,,,,,1,,,77,63
44832,note_on,,,,,4,0,7,,,,,6,,,38,75
44832,note_on,,,,,4,0,9,,,,,8,,,50,50
44924,note_off,,,,,188,0,4,,,,,3,,,69,0
44924,note_off,,,,,92,0,3,,,,,2,,,77,0
44924,note_off,,,,,92,0,7,,,,,6,,,38,0
44924,note_off,,,,,188,0,5,,,,,4,,,63,0
44924,note_off,,,,,188,0,8,,,,,7,,,60,0
44924,note_off,,,,,92,0,6,,,,,5,,,50,0
44924,note_off,,,,,92,0,9,,,,,8,,,50,0
44924,note_off,,,,,92,0,2,,,,,1,,,77,0
44924,note_off,,,,,0,0,8,,,,,7,,,69,0
44924,note_off,,,,,92,0,1,,,,,0,,,77,0
44924,note_off,,,,,0,0,8,,,,,7,,,63,0
44928,note_on,,,,,0,0,8,,,,,7,,,70,50
44928,note_on,,,,,4,0,3,,,,,2,,,74,108
44928,note_on,,,,,4,0,9,,,,,8,,,46,50
44928,note_on,,,,,4,0,1,,,,,0,,,74,63
44928,note_on,,,,,4,0,4,,,,,3,,,70,127
44928,note_on,,,,,0,0,8,,,,,7,,,65,50
44928,note_on,,,,,4,0,6,,,,,5,,,46,92
44928,note_on,,,,,4,0,2,,,,,1,,,74,63
44928,note_on,,,,,4,0,5,,,,,4,,,65,92
44928,note_on,,,,,4,0,7,,,,,6,,,34,75
44928,note_on,,,,,4,0,8,,,,,7,,,62,50
45020,note_off,,,,,92,0,1,,,,,0,,,74,0
45020,note_off,,,,,92,0,2,,,,,1,,,74,0
45020,note_off,,,,,92,0,3,,,,,2,,,74,0
45024,note_on,,,,,4,0,3,,,,,2,,,70,108
45024,note_on,,,,,4,0,1,,,,,0,,,70,63
45024,note_on,,,,,4,0,2,,,,,1,,,70,63
45116,note_off,,,,,92,0,3,,,,,2,,,70,0
45116,note_off,,,,,92,0,1,,,,,0,,,70,0
45116,note_off,,,,,92,0,2,,,,,1,,,70,0
45120,note_on,,,,,4,0,1,,,,,0,,,74,63
45120,note_on,,,,,4,0,2,,,,,1,,,74,63
45120,note_on,,,,,4,0,3,,,,,2,,,74,108
45212,note_off,,,,,92,0,2,,,,,1,,,74,0
45212,note_off,,,,,92,0,1,,,,,0,,,74,0
45212,note_off,,,,,92,0,3,,,,,2,,,74,0
45216,note_on,,,,,4,0,2,,,,,1,,,77,63
45216,note_on,,,,,4,0,1,,,,,0,,,77,63
45216,note_on,,,,,4,0,3,,,,,2,,,77,108
45248,note_off,,,,,320,0,4,,,,,3,,,70,0
45248,note_off,,,,,320,0,6,,,,,5,,,46,0
45248,note_off,,,,,320,0,5,,,,,4,,,65,0
45248,note_off,,,,,320,0,7,,,,,6,,,34,0
45248,note_off,,,,,320,0,9,,,,,8,,,46,0
45248,note_off,,,,,0,0,8,,,,,7,,,70,0
45248,note_off,,,,,0,0,8,,,,,7,,,65,0
45248,note_off,,,,,320,0,8,,,,,7,,,62,0
45308,note_off,,,,,92,0,1,,,,,0,,,77,0
45308,note_off,,,,,92,0,2,,,,,1,,,77,0
45308,note_off,,,,,92,0,3,,,,,2,,,77,0
45312,note_on,,,,,4,0,2,,,,,1,,,82,63
45312,note_on,,,,,4,0,1,,,,,0,,,82,63
45312,note_on,,,,,4,0,3,,,,,2,,,82,108
45404,note_off,,,,,92,0,2,,,,,1,,,82,0
45404,note_off,,,,,92,0,1,,,,,0,,,82,0
45404,note_off,,,,,92,0,3,,,,,2,,,82,0
45408,note_on,,,,,4,0,3,,,,,2,,,77,108
45408,note_on,,,,,4,0,1,,,,,0,,,77,63
45408,note_on,,,,,4,0,2,,,,,1,,,77,63
45500,note_off,,,,,92,0,1,,,,,0,,,77,0
45500,note_off,,,,,92,0,3,,,,,2,,,77,0
45500,note_off,,,,,92,0,2,,,,,1,,,77,0
45504,note_on,,,,,256,0,9,,,,,8,,,58,50
45504,note_on,,,,,256,0,7,,,,,6,,,46,75
45504,note_on,,,,,4,0,1,,,,,0,,,79,63
45504,note_on,,,,,256,0,5,,,,,4,,,74,92
45504,note_on,,,,,256,0,4,,,,,3,,,77,127
45504,note_on,,,,,256,0,6,,,,,5,,,58,92
45504,note_on,,,,,0,0,8,,,,,7,,,70,50
45504,note_on,,,,,0,0,8,,,,,7,,,65,50
45504,note_on,,,,,256,0,8,,,,,7,,,62,50
45504,note_on,,,,,4,0,2,,,,,1,,,79,63
45504,note_on,,,,,4,0,3,,,,,2,,,79,108
45596,note_off,,,,,92,0,1,,,,,0,,,79,0
45596,note_off,,,,,92,0,3,,,,,2,,,79,0
45596,note_off,,,,,92,0,2,,,,,1,,,79,0
45600,note_on,,,,,4,0,1,,,,,0,,,80,63
45600,note_on,,,,,4,0,3,,,,,2,,,80,108
45600,note_on,,,,,4,0,2,,,,,1,,,80,63
45692,note_off,,,,,0,0,8,,,,,7,,,70,0
45692,note_off,,,,,188,0,7,,,,,6,,,46,0
45692,note_off,,,,,188,0,5,,,,,4,,,74,0
45692,note_off,,,,,92,0,3,,,,,2,,,80,0
45692,note_off,,,,,92,0,2,,,,,1,,,80,0
45692,note_off,,,,,0,0,8,,,,,7,,,65,0
45692,note_off,,,,,188,0,8,,,,,7,,,62,0
45692,note_off,,,,,188,0,4,,,,,3,,,77,0
45692,note_off,,,,,188,0,6,,,,,5,,,58,0
45692,note_off,,,,,92,0,1,,,,,0,,,80,0
45692,note_off,,,,,188,0,9,,,,,8,,,58,0
45696,note_on,,,,,4,0,3,,,,,2,,,79,108
45696,note_on,,,,,4,0,2,,,,,1,,,79,63
45696,note_on,,,,,4,0,7,,,,,6,,,51,75
45696,note_on,,,,,4,0,6,,,,,5,,,63,92
45696,note_on,,,,,4,0,4,,,,,3,,,75,127
45696,note_on,,,,,4,0,9,,,,,8,,,63,50
45696,note_on,,,,,4,0,5,,,,,4,,,70,92
45696,note_on,,,,,0,0,8,,,,,7,,,70,50
45696,note_on,,,,,4,0,1,,,,,0,,,79,63
45696,note_on,,,,,0,0,8,,,,,7,,,67,50
45696,note_on,,,,,4,0,8,,,,,7,,,63,50
45884,note_off,,,,,188,0,9,,,,,8,,,63,0
45884,note_off,,,,,188,0,7,,,,,6,,,51,0
45884,note_off,,,,,188,0,6,,,,,5,,,63,0
45888,note_on,,,,,4,0,6,,,,,5,,,58,92
45888,note_on,,,,,4,0,9,,,,,8,,,58,50
45888,note_on,,,,,4,0,7,,,,,6,,,46,75
45980,note_off,,,,,92,0,7,,,,,6,,,46,0
45980,note_off,,,,,92,0,9,,,,,8,,,58,0
45980,note_off,,,,,92,0,6,,,,,5,,,58,0
45984,note_on,,,,,4,0,6,,,,,5,,,56,92
45984,note_on,,,,,4,0,7,,,,,6,,,44,75
45984,note_on,,,,,4,0,9,,,,,8,,,56,50
46016,note_off,,,,,320,0,8,,,,,7,,,63,0
46016,note_off,,,,,0,0,8,,,,,7,,,70,0
46016,note_off,,,,,320,0,4,,,,,3,,,75,0
46016,note_off,,,,,320,0,3,,,,,2,,,79,0
46016,note_off,,,,,320,0,1,,,,,0,,,79,0
46016,note_off,,,,,320,0,5,,,,,4,,,70,0
46016,note_off,,,,,0,0,8,,,,,7,,,67,0
46016,note_off,,,,,320,0,2,,,,,1,,,79,0
46076,note_off,,,,,92,0,9,,,,,8,,,56,0
46076,note_off,,,,,92,0,7,,,,,6,,,44,0
46076,note_off,,,,,92,0,6,,,,,5,,,56,0
46080,note_on,,,,,4,0,9,,,,,8,,,55,50
46080,note_on,,,,,4,0,7,,,,,6,,,43,75
46080,note_on,,,,,0,0,8,,,,,7,,,63,50
46080,note_on,,,,,4,0,6,,,,,5,,,55,92
46080,note_on,,,,,64,0,8,,,,,7,,,58,50
46176,note_on,,,,,160,0,3,,,,,2,,,70,108
46176,note_on,,,,,160,0,1,,,,,0,,,70,63
46176,note_on,,,,,160,0,2,,,,,1,,,70,63
46268,note_off,,,,,92,0,1,,,,,0,,,70,0
46268,note_off,,,,,188,0,9,,,,,8,,,55,0
46268,note_off,,,,,92,0,2,,,,,1,,,70,0
46268,note_off,,,,,92,0,3,,,,,2,,,70,0
46268,note_off,,,,,0,0,8,,,,,7,,,63,0
46268,note_off,,,,,188,0,6,,,,,5,,,55,0
46268,note_off,,,,,188,0,7,,,,,6,,,43,0
46268,note_off,,,,,188,0,8,,,,,7,,,58,0
46272,note_on,,,,,0,0,8,,,,,7,,,65,50
46272,note_on,,,,,0,0,8,,,,,7,,,62,50
46272,note_on,,,,,256,0,4,,,,,3,,,62,127
46272,note_on,,,,,4,0,9,,,,,8,,,53,50
46272,note_on,,,,,4,0,7,,,,,6,,,41,75
46272,note_on,,,,,4,0,8,,,,,7,,,56,50
46272,note_on,,,,,4,0,6,,,,,5,,,53,92
46272,note_on,,,,,4,0,2,,,,,1,,,68,63
46272,note_on,,,,,4,0,3,,,,,2,,,68,108
46272,note_on,,,,,256,0,5,,,,,4,,,56,92
46272,note_on,,,,,4,0,1,,,,,0,,,68,63
46364,note_off,,,,,92,0,3,,,,,2,,,68,0
46364,note_off,,,,,92,0,6,,,,,5,,,53,0
46364,note_off,,,,,92,0,9,,,,,8,,,53,0
46364,note_off,,,,,92,0,7,,,,,6,,,41,0
46364,note_off,,,,,92,0,2,,,,,1,,,68,0
46364,note_off,,,,,92,0,1,,,,,0,,,68,0
46368,note_on,,,,,4,0,1,,,,,0,,,70,63
46368,note_on,,,,,4,0,7,,,,,6,,,43,75
46368,note_on,,,,,4,0,2,,,,,1,,,70,63
46368,note_on,,,,,4,0,6,,,,,5,,,55,92
46368,note_on,,,,,4,0,9,,,,,8,,,55,50
46368,note_on,,,,,4,0,3,,,,,2,,,70,108
46460,note_off,,,,,92,0,7,,,,,6,,,43,0
46460,note_off,,,,,92,0,9,,,,,8,,,55,0
46460,note_off,,,,,92,0,3,,,,,2,,,70,0
46460,note_off,,,,,92,0,6,,,,,5,,,55,0
46460,note_off,,,,,188,0,8,,,,,7,,,56,0
46460,note_off,,,,,188,0,5,,,,,4,,,56,0
46460,note_off,,,,,0,0,8,,,,,7,,,62,0
46460,note_off,,,,,0,0,8,,,,,7,,,65,0
46460,note_off,,,,,188,0,4,,,,,3,,,62,0
46460,note_off,,,,,92,0,2,,,,,1,,,70,0
46460,note_off,,,,,92,0,1,,,,,0,,,70,0
46464,note_on,,,,,4,0,1,,,,,0,,,67,63
46464,note_on,,,,,4,0,6,,,,,5,,,51,92
46464,note_on,,,,,4,0,7,,,,,6,,,39,75
46464,note_on,,,,,4,0,8,,,,,7,,,58,50
46464,note_on,,,,,0,0,8,,,,,7,,,63,50
46464,note_on,,,,,4,0,4,,,,,3,,,62,127
46464,note_on,,,,,4,0,2,,,,,1,,,67,63
46464,note_on,,,,,4,0,3,,,,,2,,,67,108
46464,note_on,,,,,4,0,5,,,,,4,,,58,92
46464,note_on,,,,,4,0,9,,,,,8,,,51,50
46464,note_on,,,,,0,0,8,,,,,7,,,67,50
46556,note_off,,,,,92,0,2,,,,,1,,,67,0
46556,note_off,,,,,92,0,3,,,,,2,,,67,0
46556,note_off,,,,,92,0,1,,,,,0,,,67,0
46560,note_on,,,,,4,0,3,,,,,2,,,63,108
46560,note_on,,,,,4,0,1,,,,,0,,,63,63
46560,note_on,,,,,4,0,2,,,,,1,,,63,63
46652,note_off,,,,,92,0,3,,,,,2,,,63,0
46652,note_off,,,,,92,0,1,,,,,0,,,63,0
46652,note_off,,,,,92,0,2,,,,,1,,,63,0
46656,note_on,,,,,4,0,3,,,,,2,,,67,108
46656,note_on,,,,,4,0,2,,,,,1,,,67,63
46656,note_on,,,,,4,0,1,,,,,0,,,67,63
46748,note_off,,,,,92,0,2,,,,,1,,,67,0
46748,note_off,,,,,92,0,3,,,,,2,,,67,0
46748,note_off,,,,,92,0,1,,,,,0,,,67,0
46752,note_on,,,,,4,0,2,,,,,1,,,70,63
46752,note_on,,,,,4,0,3,,,,,2,,,70,108
46752,note_on,,,,,4,0,1,,,,,0,,,70,63
46784,note_off,,,,,320,0,4,,,,,3,,,62,0
46784,note_off,,,,,320,0,6,,,,,5,,,51,0
46784,note_off,,,,,320,0,8,,,,,7,,,58,0
46784,note_off,,,,,0,0,8,,,,,7,,,63,0
46784,note_off,,,,,0,0,8,,,,,7,,,67,0
46784,note_off,,,,,320,0,9,,,,,8,,,51,0
46784,note_off,,,,,320,0,5,,,,,4,,,58,0
46784,note_off,,,,,320,0,7,,,,,6,,,39,0
46844,note_off,,,,,92,0,1,,,,,0,,,70,0
46844,note_off,,,,,92,0,2,,,,,1,,,70,0
46844,note_off,,,,,92,0,3,,,,,2,,,70,0
46848,note_on,,,,,64,0,9,,,,,8,,,43,50
46848,note_on,,,,,64,0,4,,,,,3,,,67,127
46848,note_on,,,,,64,0,5,,,,,4,,,58,92
46848,note_on,,,,,64,0,6,,,,,5,,,43,92
46848,note_on,,,,,0,0,8,,,,,7,,,70,50
46848,note_on,,,,,0,0,8,,,,,7,,,63,50
46848,note_on,,,,,64,0,8,,,,,7,,,58,50
46848,note_on,,,,,64,0,7,,,,,6,,,31,75
46848,note_on,,,,,4,0,3,,,,,2,,,75,108
46848,note_on,,,,,4,0,2,,,,,1,,,75,63
46848,note_on,,,,,4,0,1,,,,,0,,,75,63
46940,note_off,,,,,92,0,3,,,,,2,,,75,0
46940,note_off,,,,,92,0,2,,,,,1,,,75,0
46940,note_off,,,,,92,0,1,,,,,0,,,75,0
46944,note_on,,,,,4,0,2,,,,,1,,,70,63
46944,note_on,,,,,4,0,1,,,,,0,,,70,63
46944,note_on,,,,,4,0,3,,,,,2,,,70,108
47036,note_off,,,,,92,0,1,,,,,0,,,70,0
47036,note_off,,,,,92,0,3,,,,,2,,,70,0
47036,note_off,,,,,92,0,2,,,,,1,,,70,0
47040,note_on,,,,,4,0,1,,,,,0,,,72,63
47040,note_on,,,,,4,0,3,,,,,2,,,72,108
47040,note_on,,,,,4,0,2,,,,,1,,,72,63
47132,note_off,,,,,92,0,3,,,,,2,,,72,0
47132,note_off,,,,,92,0,1,,,,,0,,,72,0
47132,note_off,,,,,92,0,2,,,,,1,,,72,0
47136,note_on,,,,,4,0,1,,,,,0,,,73,63
47136,note_on,,,,,4,0,2,,,,,1,,,73,63
47136,note_on,,,,,4,0,3,,,,,2,,,73,108
47168,note_off,,,,,320,0,5,,,,,4,,,58,0
47168,note_off,,,,,0,0,8,,,,,7,,,63,0
47168,note_off,,,,,320,0,9,,,,,8,,,43,0
47168,note_off,,,,,320,0,4,,,,,3,,,67,0
47168,note_off,,,,,320,0,8,,,,,7,,,58,0
47168,note_off,,,,,320,0,6,,,,,5,,,43,0
47168,note_off,,,,,320,0,7,,,,,6,,,31,0
47168,note_off,,,,,0,0,8,,,,,7,,,70,0
47228,note_off,,,,,92,0,1,,,,,0,,,73,0
47228,note_off,,,,,92,0,2,,,,,1,,,73,0
47228,note_off,,,,,92,0,3,,,,,2,,,73,0
47232,note_on,,,,,4,0,2,,,,,1,,,72,63
47232,note_on,,,,,64,0,9,,,,,8,,,44,50
47232,note_on,,,,,64,0,7,,,,,6,,,32,75
47232,note_on,,,,,64,0,5,,,,,4,,,60,92
47232,note_on,,,,,64,0,4,,,,,3,,,63,127
47232,note_on,,,,,4,0,3,,,,,2,,,72,108
47232,note_on,,,,,4,0,1,,,,,0,,,72,63
47232,note_on,,,,,64,0,8,,,,,7,,,60,50
47232,note_on,,,,,0,0,8,,,,,7,,,63,50
47232,note_on,,,,,64,0,6,,,,,5,,,44,92
47324,note_off,,,,,92,0,3,,,,,2,,,72,0
47324,note_off,,,,,92,0,1,,,,,0,,,72,0
47324,note_off,,,,,92,0,2,,,,,1,,,72,0
47328,note_on,,,,,4,0,1,,,,,0,,,65,63
47328,note_on,,,,,4,0,3,,,,,2,,,65,108
47328,note_on,,,,,4,0,2,,,,,1,,,65,63
47420,note_off,,,,,92,0,2,,,,,1,,,65,0
47420,note_off,,,,,92,0,3,,,,,2,,,65,0
47420,note_off,,,,,92,0,1,,,,,0,,,65,0
47424,note_on,,,,,4,0,2,,,,,1,,,68,63
47424,note_on,,,,,4,0,1,,,,,0,,,68,63
47424,note_on,,,,,4,0,3,,,,,2,,,68,108
47516,note_off,,,,,92,0,1,,,,,0,,,68,0
47516,note_off,,,,,92,0,3,,,,,2,,,68,0
47516,note_off,,,,,92,0,2,,,,,1,,,68,0
47520,note_on,,,,,4,0,2,,,,,1,,,72,63
47520,note_on,,,,,4,0,3,,,,,2,,,72,108
47520,note_on,,,,,4,0,1,,,,,0,,,72,63
47552,note_off,,,,,320,0,7,,,,,6,,,32,0
47552,note_off,,,,,320,0,5,,,,,4,,,60,0
47552,note_off,,,,,320,0,6,,,,,5,,,44,0
47552,note_off,,,,,320,0,9,,,,,8,,,44,0
47552,note_off,,,,,320,0,4,,,,,3,,,63,0
47552,note_off,,,,,0,0,8,,,,,7,,,63,0
47552,note_off,,,,,320,0,8,,,,,7,,,60,0
47612,note_off,,,,,92,0,2,,,,,1,,,72,0
47612,note_off,,,,,92,0,1,,,,,0,,,72,0
47612,note_off,,,,,92,0,3,,,,,2,,,72,0
47616,note_on,,,,,64,0,9,,,,,8,,,56,50
47616,note_on,,,,,64,0,4,,,,,3,,,67,127
47616,note_on,,,,,4,0,1,,,,,0,,,77,63
47616,note_on,,,,,0,0,8,,,,,7,,,65,50
47616,note_on,,,,,64,0,8,,,,,7,,,60,50
47616,note_on,,,,,4,0,3,,,,,2,,,77,108
47616,note_on,,,,,64,0,5,,,,,4,,,60,92
47616,note_on,,,,,64,0,6,,,,,5,,,56,92
47616,note_on,,,,,4,0,2,,,,,1,,,77,63
47616,note_on,,,,,64,0,7,,,,,6,,,44,75
47708,note_off,,,,,92,0,2,,,,,1,,,77,0
47708,note_off,,,,,92,0,1,,,,,0,,,77,0
47708,note_off,,,,,92,0,3,,,,,2,,,77,0
47712,note_on,,,,,4,0,2,,,,,1,,,72,63
47712,note_on,,,,,4,0,1,,,,,0,,,72,63
47712,note_on,,,,,4,0,3,,,,,2,,,72,108
47804,note_off,,,,,92,0,2,,,,,1,,,72,0
47804,note_off,,,,,92,0,3,,,,,2,,,72,0
47804,note_off,,,,,92,0,1,,,,,0,,,72,0
47808,note_on,,,,,4,0,3,,,,,2,,,74,108
47808,note_on,,,,,4,0,1,,,,,0,,,74,63
47808,note_on,,,,,4,0,2,,,,,1,,,74,63
47900,note_off,,,,,92,0,1,,,,,0,,,74,0
47900,note_off,,,,,92,0,2,,,,,1,,,74,0
47900,note_off,,,,,92,0,3,,,,,2,,,74,0
47904,note_on,,,,,4,0,2,,,,,1,,,75,63
47904,note_on,,,,,4,0,1,,,,,0,,,75,63
47904,note_on,,,,,4,0,3,,,,,2,,,75,108
47936,note_off,,,,,320,0,6,,,,,5,,,56,0
47936,note_off,,,,,320,0,5,,,,,4,,,60,0
47936,note_off,,,,,320,0,9,,,,,8,,,56,0
47936,note_off,,,,,320,0,4,,,,,3,,,67,0
47936,note_off,,,,,0,0,8,,,,,7,,,65,0
47936,note_off,,,,,320,0,8,,,,,7,,,60,0
47936,note_off,,,,,320,0,7,,,,,6,,,44,0
47996,note_off,,,,,92,0,2,,,,,1,,,75,0
47996,note_off,,,,,92,0,1,,,,,0,,,75,0
47996,note_off,,,,,92,0,3,,,,,2,,,75,0
48000,note_on,,,,,64,0,6,,,,,5,,,58,92
48000,note_on,,,,,64,0,8,,,,,7,,,62,50
48000,note_on,,,,,0,0,8,,,,,7,,,65,50
48000,note_on,,,,,64,0,4,,,,,3,,,62,127
48000,note_on,,,,,64,0,7,,,,,6,,,46,75
48000,note_on,,,,,4,0,2,,,,,1,,,74,63
48000,note_on,,,,,4,0,1,,,,,0,,,74,63
48000,note_on,,,,,64,0,5,,,,,4,,,67,92
48000,note_on,,,,,4,0,3,,,,,2,,,74,108
48000,note_on,,,,,64,0,9,,,,,8,,,58,50
48092,note_off,,,,,92,0,2,,,,,1,,,74,0
48092,note_off,,,,,92,0,3,,,,,2,,,74,0
48092,note_off,,,,,92,0,1,,,,,0,,,74,0
48096,note_on,,,,,4,0,2,,,,,1,,,67,63
48096,note_on,,,,,4,0,3,,,,,2,,,67,108
48096,note_on,,,,,4,0,1,,,,,0,,,67,63
48188,note_off,,,,,92,0,2,,,,,1,,,67,0
48188,note_off,,,,,92,0,3,,,,,2,,,67,0
48188,note_off,,,,,92,0,1,,,,,0,,,67,0
48192,note_on,,,,,4,0,3,,,,,2,,,70,108
48192,note_on,,,,,4,0,2,,,,,1,,,70,63
48192,note_on,,,,,4,0,1,,,,,0,,,70,63
48284,note_off,,,,,92,0,2,,,,,1,,,70,0
48284,note_off,,,,,92,0,3,,,,,2,,,70,0
48284,note_off,,,,,92,0,1,,,,,0,,,70,0
48288,note_on,,,,,4,0,2,,,,,1,,,74,63
48288,note_on,,,,,4,0,1,,,,,0,,,74,63
48288,note_on,,,,,4,0,3,,,,,2,,,74,108
48320,note_off,,,,,320,0,5,,,,,4,,,67,0
48320,note_off,,,,,320,0,6,,,,,5,,,58,0
48320,note_off,,,,,320,0,8,,,,,7,,,62,0
48320,note_off,,,,,320,0,4,,,,,3,,,62,0
48320,note_off,,,,,320,0,7,,,,,6,,,46,0
48320,note_off,,,,,320,0,9,,,,,8,,,58,0
48320,note_off,,,,,0,0,8,,,,,7,,,65,0
48380,note_off,,,,,92,0,3,,,,,2,,,74,0
48380,note_off,,,,,92,0,1,,,,,0,,,74,0
48380,note_off,,,,,92,0,2,,,,,1,,,74,0
48384,note_on,,,,,4,0,1,,,,,0,,,79,63
48384,note_on,,,,,64,0,7,,,,,6,,,34,75
48384,note_on,,,,,64,0,9,,,,,8,,,46,50
48384,note_on,,,,,0,0,8,,,,,7,,,67,50
48384,note_on,,,,,64,0,6,,,,,5,,,46,92
48384,note_on,,,,,4,0,3,,,,,2,,,79,108
48384,note_on,,,,,64,0,8,,,,,7,,,62,50
48384,note_on,,,,,4,0,2,,,,,1,,,79,63
48476,note_off,,,,,92,0,2,,,,,1,,,79,0
48476,note_off,,,,,92,0,3,,,,,2,,,79,0
48476,note_off,,,,,92,0,1,,,,,0,,,79,0
48480,note_on,,,,,4,0,2,,,,,1,,,74,63
48480,note_on,,,,,4,0,1,,,,,0,,,74,63
48480,note_on,,,,,4,0,3,,,,,2,,,74,108
48572,note_off,,,,,92,0,1,,,,,0,,,74,0
48572,note_off,,,,,92,0,3,,,,,2,,,74,0
48572,note_off,,,,,92,0,2,,,,,1,,,74,0
48576,note_on,,,,,256,0,4,,,,,3,,,74,127
48576,note_on,,,,,256,0,5,,,,,4,,,67,92
48576,note_on,,,,,4,0,1,,,,,0,,,75,63
48576,note_on,,,,,4,0,2,,,,,1,,,75,63
48576,note_on,,,,,4,0,3,,,,,2,,,75,108
48668,note_off,,,,,92,0,1,,,,,0,,,75,0
48668,note_off,,,,,92,0,3,,,,,2,,,75,0
48668,note_off,,,,,92,0,2,,,,,1,,,75,0
48672,note_on,,,,,4,0,1,,,,,0,,,77,63
48672,note_on,,,,,4,0,3,,,,,2,,,77,108
48672,note_on,,,,,4,0,2,,,,,1,,,77,63
48704,note_off,,,,,0,0,8,,,,,7,,,67,0
48704,note_off,,,,,320,0,8,,,,,7,,,62,0
48704,note_off,,,,,320,0,7,,,,,6,,,34,0
48704,note_off,,,,,320,0,9,,,,,8,,,46,0
48704,note_off,,,,,320,0,6,,,,,5,,,46,0
48764,note_off,,,,,92,0,2,,,,,1,,,77,0
48764,note_off,,,,,92,0,3,,,,,2,,,77,0
48764,note_off,,,,,188,0,5,,,,,4,,,67,0
48764,note_off,,,,,92,0,1,,,,,0,,,77,0
48764,note_off,,,,,188,0,4,,,,,3,,,74,0
48768,note_on,,,,,4,0,3,,,,,2,,,75,108
48768,note_on,,,,,0,0,8,,,,,7,,,67,50
48768,note_on,,,,,64,0,8,,,,,7,,,63,50
48768,note_on,,,,,64,0,7,,,,,6,,,36,75
48768,note_on,,,,,64,0,6,,,,,5,,,48,92
48768,note_on,,,,,4,0,4,,,,,3,,,75,127
48768,note_on,,,,,4,0,1,,,,,0,,,75,63
48768,note_on,,,,,4,0,5,,,,,4,,,67,92
48768,note_on,,,,,64,0,9,,,,,8,,,48,50
48768,note_on,,,,,4,0,2,,,,,1,,,75,63
48860,note_off,,,,,92,0,3,,,,,2,,,75,0
48860,note_off,,,,,92,0,1,,,,,0,,,75,0
48860,note_off,,,,,92,0,2,,,,,1,,,75,0
48864,note_on,,,,,4,0,1,,,,,0,,,79,63
48864,note_on,,,,,4,0,3,,,,,2,,,79,108
48864,note_on,,,,,4,0,2,,,,,1,,,79,63
48956,note_off,,,,,92,0,1,,,,,0,,,79,0
48956,note_off,,,,,92,0,3,,,,,2,,,79,0
48956,note_off,,,,,92,0,2,,,,,1,,,79,0
48960,note_on,,,,,4,0,3,,,,,2,,,77,108
48960,note_on,,,,,4,0,1,,,,,0,,,77,63
48960,note_on,,,,,4,0,2,,,,,1,,,77,63
49052,note_off,,,,,92,0,2,,,,,1,,,77,0
49052,note_off,,,,,92,0,1,,,,,0,,,77,0
49052,note_off,,,,,92,0,3,,,,,2,,,77,0
49056,note_on,,,,,4,0,1,,,,,0,,,79,63
49056,note_on,,,,,4,0,3,,,,,2,,,79,108
49056,note_on,,,,,4,0,2,,,,,1,,,79,63
49088,note_off,,,,,320,0,7,,,,,6,,,36,0
49088,note_off,,,,,320,0,9,,,,,8,,,48,0
49088,note_off,,,,,320,0,8,,,,,7,,,63,0
49088,note_off,,,,,320,0,6,,,,,5,,,48,0
49088,note_off,,,,,0,0,8,,,,,7,,,67,0
49088,note_off,,,,,320,0,4,,,,,3,,,75,0
49088,note_off,,,,,320,0,5,,,,,4,,,67,0
49148,note_off,,,,,92,0,2,,,,,1,,,79,0
49148,note_off,,,,,92,0,3,,,,,2,,,79,0
49148,note_off,,,,,92,0,1,,,,,0,,,79,0
49152,note_on,,,,,4,0,3,,,,,2,,,75,108
49152,note_on,,,,,4,0,1,,,,,0,,,75,63
49152,note_on,,,,,4,0,2,,,,,1,,,75,63
49152,note_on,,,,,64,0,8,,,,,7,,,63,50
49152,note_on,,,,,0,0,8,,,,,7,,,67,50
49152,note_on,,,,,64,0,9,,,,,8,,,55,50
49152,note_on,,,,,64,0,5,,,,,4,,,70,92
49152,note_on,,,,,64,0,6,,,,,5,,,55,92
49152,note_on,,,,,64,0,7,,,,,6,,,43,75
49152,note_on,,,,,0,0,8,,,,,7,,,70,50
49244,note_off,,,,,92,0,2,,,,,1,,,75,0
49244,note_off,,,,,92,0,1,,,,,0,,,75,0
49244,note_off,,,,,92,0,3,,,,,2,,,75,0
49248,note_on,,,,,4,0,3,,,,,2,,,82,108
49248,note_on,,,,,4,0,2,,,,,1,,,82,63
49248,note_on,,,,,4,0,1,,,,,0,,,82,63
49340,note_off,,,,,92,0,3,,,,,2,,,82,0
49340,note_off,,,,,92,0,1,,,,,0,,,82,0
49340,note_off,,,,,92,0,2,,,,,1,,,82,0
49344,note_on,,,,,4,0,3,,,,,2,,,80,108
49344,note_on,,,,,4,0,2,,,,,1,,,80,63
49344,note_on,,,,,4,0,1,,,,,0,,,80,63
49436,note_off,,,,,92,0,3,,,,,2,,,80,0
49436,note_off,,,,,92,0,2,,,,,1,,,80,0
49436,note_off,,,,,92,0,1,,,,,0,,,80,0
49440,note_on,,,,,4,0,2,,,,,1,,,82,63
49440,note_on,,,,,4,0,1,,,,,0,,,82,63
49440,note_on,,,,,4,0,3,,,,,2,,,82,108
49472,note_off,,,,,320,0,7,,,,,6,,,43,0
49472,note_off,,,,,320,0,5,,,,,4,,,70,0
49472,note_off,,,,,0,0,8,,,,,7,,,67,0
49472,note_off,,,,,320,0,9,,,,,8,,,55,0
49472,note_off,,,,,320,0,6,,,,,5,,,55,0
49472,note_off,,,,,0,0,8,,,,,7,,,70,0
49472,note_off,,,,,320,0,8,,,,,7,,,63,0
49532,note_off,,,,,92,0,3,,,,,2,,,82,0
49532,note_off,,,,,92,0,1,,,,,0,,,82,0
49532,note_off,,,,,92,0,2,,,,,1,,,82,0
49536,note_on,,,,,64,0,6,,,,,5,,,56,92
49536,note_on,,,,,0,0,8,,,,,7,,,72,50
49536,note_on,,,,,4,0,3,,,,,2,,,75,108
49536,note_on,,,,,0,0,8,,,,,7,,,67,50
49536,note_on,,,,,64,0,7,,,,,6,,,44,75
49536,note_on,,,,,64,0,8,,,,,7,,,63,50
49536,note_on,,,,,4,0,1,,,,,0,,,75,63
49536,note_on,,,,,4,0,2,,,,,1,,,75,63
49536,note_on,,,,,64,0,5,,,,,4,,,72,92
49536,note_on,,,,,64,0,9,,,,,8,,,56,50
49632,note_on,,,,,544,0,4,,,,,3,,,79,127
49724,note_off,,,,,92,0,4,,,,,3,,,79,0
49728,note_on,,,,,4,0,4,,,,,3,,,77,127
49820,note_off,,,,,92,0,4,,,,,3,,,77,0
49824,note_on,,,,,4,0,4,,,,,3,,,79,127
49856,note_off,,,,,320,0,2,,,,,1,,,75,0
49856,note_off,,,,,320,0,8,,,,,7,,,63,0
49856,note_off,,,,,320,0,9,,,,,8,,,56,0
49856,note_off,,,,,320,0,1,,,,,0,,,75,0
49856,note_off,,,,,320,0,7,,,,,6,,,44,0
49856,note_off,,,,,320,0,6,,,,,5,,,56,0
49856,note_off,,,,,0,0,8,,,,,7,,,72,0
49856,note_off,,,,,320,0,5,,,,,4,,,72,0
49856,note_off,,,,,0,0,8,,,,,7,,,67,0
49856,note_off,,,,,320,0,3,,,,,2,,,75,0
49916,note_off,,,,,92,0,4,,,,,3,,,79,0
49920,note_on,,,,,64,0,7,,,,,6,,,46,75
49920,note_on,,,,,64,0,8,,,,,7,,,63,50
49920,note_on,,,,,0,0,8,,,,,7,,,67,50
49920,note_on,,,,,0,0,8,,,,,7,,,70,50
49920,note_on,,,,,64,0,9,,,,,8,,,58,50
49920,note_on,,,,,4,0,4,,,,,3,,,75,127
49920,note_on,,,,,64,0,5,,,,,4,,,58,92
49920,note_on,,,,,64,0,6,,,,,5,,,58,92
50012,note_off,,,,,92,0,4,,,,,3,,,75,0
50016,note_on,,,,,4,0,4,,,,,3,,,82,127
50108,note_off,,,,,92,0,4,,,,,3,,,82,0
50112,note_on,,,,,4,0,4,,,,,3,,,80,127
50204,note_off,,,,,92,0,4,,,,,3,,,80,0
50208,note_on,,,,,4,0,4,,,,,3,,,82,127
50240,note_off,,,,,0,0,8,,,,,7,,,67,0
50240,note_off,,,,,320,0,7,,,,,6,,,46,0
50240,note_off,,,,,320,0,6,,,,,5,,,58,0
50240,note_off,,,,,320,0,8,,,,,7,,,63,0
50240,note_off,,,,,320,0,5,,,,,4,,,58,0
50240,note_off,,,,,320,0,9,,,,,8,,,58,0
50240,note_off,,,,,0,0,8,,,,,7,,,70,0
50300,note_off,,,,,92,0,4,,,,,3,,,82,0
50304,note_on,,,,,64,0,7,,,,,6,,,48,75
50304,note_on,,,,,64,0,6,,,,,5,,,60,92
50304,note_on,,,,,64,0,9,,,,,8,,,60,50
50304,note_on,,,,,0,0,8,,,,,7,,,67,50
50304,note_on,,,,,64,0,5,,,,,4,,,67,92
50304,note_on,,,,,4,0,4,,,,,3,,,75,127
50304,note_on,,,,,64,0,8,,,,,7,,,63,50
50400,note_on,,,,,544,0,1,,,,,0,,,79,63
50400,note_on,,,,,544,0,3,,,,,2,,,79,108
50400,note_on,,,,,544,0,2,,,,,1,,,79,63
50492,note_off,,,,,92,0,3,,,,,2,,,79,0
50492,note_off,,,,,92,0,2,,,,,1,,,79,0
50492,note_off,,,,,92,0,1,,,,,0,,,79,0
50496,note_on,,,,,4,0,2,,,,,1,,,77,63
50496,note_on,,,,,4,0,1,,,,,0,,,77,63
50496,note_on,,,,,4,0,3,,,,,2,,,77,108
50588,note_off,,,,,92,0,3,,,,,2,,,77,0
50588,note_off,,,,,92,0,2,,,,,1,,,77,0
50588,note_off,,,,,92,0,1,,,,,0,,,77,0
50592,note_on,,,,,4,0,3,,,,,2,,,79,108
50592,note_on,,,,,4,0,2,,,,,1,,,79,63
50592,note_on,,,,,4,0,1,,,,,0,,,79,63
50624,note_off,,,,,320,0,7,,,,,6,,,48,0
50624,note_off,,,,,320,0,8,,,,,7,,,63,0
50624,note_off,,,,,320,0,9,,,,,8,,,60,0
50624,note_off,,,,,0,0,8,,,,,7,,,67,0
50624,note_off,,,,,320,0,5,,,,,4,,,67,0
50624,note_off,,,,,320,0,6,,,,,5,,,60,0
50684,note_off,,,,,92,0,3,,,,,2,,,79,0
50684,note_off,,,,,92,0,1,,,,,0,,,79,0
50684,note_off,,,,,92,0,2,,,,,1,,,79,0
50688,note_on,,,,,4,0,1,,,,,0,,,75,63
50688,note_on,,,,,64,0,6,,,,,5,,,55,92
50688,note_on,,,,,0,0,8,,,,,7,,,70,50
50688,note_on,,,,,4,0,2,,,,,1,,,75,63
50688,note_on,,,,,64,0,8,,,,,7,,,63,50
50688,note_on,,,,,64,0,9,,,,,8,,,55,50
50688,note_on,,,,,64,0,7,,,,,6,,,43,75
50688,note_on,,,,,4,0,3,,,,,2,,,75,108
50688,note_on,,,,,64,0,5,,,,,4,,,70,92
50780,note_off,,,,,92,0,2,,,,,1,,,75,0
50780,note_off,,,,,92,0,1,,,,,0,,,75,0
50780,note_off,,,,,92,0,3,,,,,2,,,75,0
50784,note_on,,,,,4,0,2,,,,,1,,,82,63
50784,note_on,,,,,4,0,3,,,,,2,,,82,108
50784,note_on,,,,,4,0,1,,,,,0,,,82,63
50876,note_off,,,,,92,0,2,,,,,1,,,82,0
50876,note_off,,,,,92,0,1,,,,,0,,,82,0
50876,note_off,,,,,92,0,3,,,,,2,,,82,0
50880,note_on,,,,,4,0,3,,,,,2,,,80,108
50880,note_on,,,,,4,0,1,,,,,0,,,80,63
50880,note_on,,,,,4,0,2,,,,,1,,,80,63
50972,note_off,,,,,92,0,3,,,,,2,,,80,0
50972,note_off,,,,,92,0,2,,,,,1,,,80,0
50972,note_off,,,,,92,0,1,,,,,0,,,80,0
50976,note_on,,,,,4,0,3,,,,,2,,,82,108
50976,note_on,,,,,4,0,1,,,,,0,,,82,63
50976,note_on,,,,,4,0,2,,,,,1,,,82,63
51008,note_off,,,,,320,0,9,,,,,8,,,55,0
51008,note_off,,,,,320,0,7,,,,,6,,,43,0
51008,note_off,,,,,320,0,8,,,,,7,,,63,0
51008,note_off,,,,,0,0,8,,,,,7,,,70,0
51008,note_off,,,,,320,0,5,,,,,4,,,70,0
51008,note_off,,,,,320,0,6,,,,,5,,,55,0
51068,note_off,,,,,92,0,3,,,,,2,,,82,0
51068,note_off,,,,,92,0,2,,,,,1,,,82,0
51068,note_off,,,,,92,0,1,,,,,0,,,82,0
51072,note_on,,,,,0,0,8,,,,,7,,,72,50
51072,note_on,,,,,0,0,8,,,,,7,,,65,50
51072,note_on,,,,,64,0,8,,,,,7,,,63,50
51072,note_on,,,,,4,0,1,,,,,0,,,77,63
51072,note_on,,,,,64,0,5,,,,,4,,,72,92
51072,note_on,,,,,4,0,3,,,,,2,,,77,108
51072,note_on,,,,,64,0,6,,,,,5,,,56,92
51072,note_on,,,,,64,0,9,,,,,8,,,56,50
51072,note_on,,,,,64,0,7,,,,,6,,,44,75
51072,note_on,,,,,4,0,2,,,,,1,,,77,63
51164,note_off,,,,,92,0,2,,,,,1,,,77,0
51164,note_off,,,,,860,0,4,,,,,3,,,75,0
51164,note_off,,,,,92,0,1,,,,,0,,,77,0
51164,note_off,,,,,92,0,3,,,,,2,,,77,0
51168,note_on,,,,,4,0,2,,,,,1,,,80,63
51168,note_on,,,,,4,0,1,,,,,0,,,80,63
51168,note_on,,,,,4,0,4,,,,,3,,,77,127
51168,note_on,,,,,4,0,3,,,,,2,,,80,108
51260,note_off,,,,,92,0,3,,,,,2,,,80,0
51260,note_off,,,,,92,0,1,,,,,0,,,80,0
51260,note_off,,,,,92,0,4,,,,,3,,,77,0
51260,note_off,,,,,92,0,2,,,,,1,,,80,0
51264,note_on,,,,,4,0,4,,,,,3,,,75,127
51264,note_on,,,,,4,0,1,,,,,0,,,79,63
51264,note_on,,,,,4,0,2,,,,,1,,,79,63
51264,note_on,,,,,4,0,3,,,,,2,,,79,108
51356,note_off,,,,,92,0,1,,,,,0,,,79,0
51356,note_off,,,,,92,0,2,,,,,1,,,79,0
51356,note_off,,,,,92,0,3,,,,,2,,,79,0
51356,note_off,,,,,92,0,4,,,,,3,,,75,0
51360,note_on,,,,,4,0,1,,,,,0,,,80,63
51360,note_on,,,,,4,0,4,,,,,3,,,77,127
51360,note_on,,,,,4,0,3,,,,,2,,,80,108
51360,note_on,,,,,4,0,2,,,,,1,,,80,63
51392,note_off,,,,,0,0,8,,,,,7,,,72,0
51392,note_off,,,,,320,0,9,,,,,8,,,56,0
51392,note_off,,,,,320,0,8,,,,,7,,,63,0
51392,note_off,,,,,320,0,7,,,,,6,,,44,0
51392,note_off,,,,,320,0,6,,,,,5,,,56,0
51392,note_off,,,,,320,0,5,,,,,4,,,72,0
51392,note_off,,,,,0,0,8,,,,,7,,,65,0
51452,note_off,,,,,92,0,2,,,,,1,,,80,0
51452,note_off,,,,,92,0,1,,,,,0,,,80,0
51452,note_off,,,,,92,0,3,,,,,2,,,80,0
51452,note_off,,,,,92,0,4,,,,,3,,,77,0
51456,note_on,,,,,4,0,3,,,,,2,,,77,108
51456,note_on,,,,,4,0,4,,,,,3,,,74,127
51456,note_on,,,,,4,0,2,,,,,1,,,77,63
51456,note_on,,,,,64,0,5,,,,,4,,,62,92
51456,note_on,,,,,0,0,8,,,,,7,,,65,50
51456,note_on,,,,,64,0,6,,,,,5,,,58,92
51456,note_on,,,,,4,0,1,,,,,0,,,77,63
51456,note_on,,,,,64,0,9,,,,,8,,,58,50
51456,note_on,,,,,64,0,8,,,,,7,,,62,50
51456,note_on,,,,,64,0,7,,,,,6,,,46,75
51456,note_on,,,,,0,0,8,,,,,7,,,70,50
51548,note_off,,,,,92,0,2,,,,,1,,,77,0
51548,note_off,,,,,92,0,3,,,,,2,,,77,0
51548,note_off,,,,,92,0,1,,,,,0,,,77,0
51552,note_on,,,,,4,0,2,,,,,1,,,82,63
51552,note_on,,,,,4,0,3,,,,,2,,,82,108
51552,note_on,,,,,4,0,1,,,,,0,,,82,63
51644,note_off,,,,,92,0,3,,,,,2,,,82,0
51644,note_off,,,,,188,0,4,,,,,3,,,74,0
51644,note_off,,,,,92,0,1,,,,,0,,,82,0
51644,note_off,,,,,92,0,2,,,,,1,,,82,0
51648,note_on,,,,,4,0,3,,,,,2,,,80,108
51648,note_on,,,,,4,0,4,,,,,3,,,70,127
51648,note_on,,,,,4,0,1,,,,,0,,,80,63
51648,note_on,,,,,4,0,2,,,,,1,,,80,63
51740,note_off,,,,,92,0,2,,,,,1,,,80,0
51740,note_off,,,,,92,0,1,,,,,0,,,80,0
51740,note_off,,,,,92,0,3,,,,,2,,,80,0
51744,note_on,,,,,4,0,2,,,,,1,,,82,63
51744,note_on,,,,,4,0,1,,,,,0,,,82,63
51744,note_on,,,,,4,0,3,,,,,2,,,82,108
51776,note_off,,,,,320,0,6,,,,,5,,,58,0
51776,note_off,,,,,320,0,5,,,,,4,,,62,0
51776,note_off,,,,,0,0,8,,,,,7,,,70,0
51776,note_off,,,,,0,0,8,,,,,7,,,65,0
51776,note_off,,,,,320,0,8,,,,,7,,,62,0
51776,note_off,,,,,320,0,7,,,,,6,,,46,0
51776,note_off,,,,,320,0,9,,,,,8,,,58,0
51836,note_off,,,,,92,0,3,,,,,2,,,82,0
51836,note_off,,,,,92,0,2,,,,,1,,,82,0
51836,note_off,,,,,188,0,4,,,,,3,,,70,0
51836,note_off,,,,,92,0,1,,,,,0,,,82,0
51840,note_on,,,,,64,0,6,,,,,5,,,60,92
51840,note_on,,,,,4,0,3,,,,,2,,,75,108
51840,note_on,,,,,64,0,5,,,,,4,,,63,92
51840,note_on,,,,,64,0,9,,,,,8,,,60,50
51840,note_on,,,,,4,0,1,,,,,0,,,75,63
51840,note_on,,,,,4,0,2,,,,,1,,,75,63
51840,note_on,,,,,4,0,4,,,,,3,,,67,127
51840,note_on,,,,,64,0,7,,,,,6,,,48,75
51840,note_on,,,,,0,0,8,,,,,7,,,67,50
51840,note_on,,,,,64,0,8,,,,,7,,,63,50
51932,note_off,,,,,92,0,4,,,,,3,,,67,0
51936,note_on,,,,,4,0,4,,,,,3,,,63,127
52028,note_off,,,,,92,0,4,,,,,3,,,63,0
52032,note_on,,,,,4,0,4,,,,,3,,,62,127
52124,note_off,,,,,92,0,4,,,,,3,,,62,0
52128,note_on,,,,,4,0,4,,,,,3,,,63,127
52160,note_off,,,,,320,0,6,,,,,5,,,60,0
52160,note_off,,,,,320,0,5,,,,,4,,,63,0
52160,note_off,,,,,320,0,7,,,,,6,,,48,0
52160,note_off,,,,,0,0,8,,,,,7,,,67,0
52160,note_off,,,,,320,0,8,,,,,7,,,63,0
52160,note_off,,,,,320,0,9,,,,,8,,,60,0
52220,note_off,,,,,92,0,4,,,,,3,,,63,0
52224,note_on,,,,,64,0,8,,,,,7,,,58,50
52224,note_on,,,,,64,0,6,,,,,5,,,55,92
52224,note_on,,,,,4,0,4,,,,,3,,,58,127
52224,note_on,,,,,64,0,7,,,,,6,,,43,75
52224,note_on,,,,,64,0,9,,,,,8,,,55,50
52224,note_on,,,,,0,0,8,,,,,7,,,63,50
52224,note_on,,,,,0,0,8,,,,,7,,,70,50
52316,note_off,,,,,476,0,1,,,,,0,,,75,0
52316,note_off,,,,,476,0,2,,,,,1,,,75,0
52316,note_off,,,,,476,0,3,,,,,2,,,75,0
52320,note_on,,,,,4,0,1,,,,,0,,,75,63
52320,note_on,,,,,4,0,2,,,,,1,,,75,63
52320,note_on,,,,,4,0,3,,,,,2,,,75,108
52412,note_off,,,,,188,0,6,,,,,5,,,55,0
52412,note_off,,,,,92,0,2,,,,,1,,,75,0
52412,note_off,,,,,92,0,3,,,,,2,,,75,0
52412,note_off,,,,,188,0,7,,,,,6,,,43,0
52412,note_off,,,,,92,0,1,,,,,0,,,75,0
52412,note_off,,,,,188,0,4,,,,,3,,,58,0
52412,note_off,,,,,188,0,9,,,,,8,,,55,0
52416,note_on,,,,,4,0,3,,,,,2,,,74,108
52416,note_on,,,,,256,0,5,,,,,4,,,63,92
52416,note_on,,,,,4,0,4,,,,,3,,,70,127
52416,note_on,,,,,4,0,6,,,,,5,,,43,92
52416,note_on,,,,,4,0,1,,,,,0,,,74,63
52416,note_on,,,,,4,0,2,,,,,1,,,74,63
52416,note_on,,,,,4,0,7,,,,,6,,,31,75
52416,note_on,,,,,4,0,9,,,,,8,,,43,50
52508,note_off,,,,,92,0,2,,,,,1,,,74,0
52508,note_off,,,,,92,0,1,,,,,0,,,74,0
52508,note_off,,,,,92,0,3,,,,,2,,,74,0
52512,note_on,,,,,4,0,1,,,,,0,,,75,63
52512,note_on,,,,,4,0,3,,,,,2,,,75,108
52512,note_on,,,,,4,0,2,,,,,1,,,75,63
52544,note_off,,,,,0,0,8,,,,,7,,,63,0
52544,note_off,,,,,0,0,8,,,,,7,,,70,0
52544,note_off,,,,,320,0,8,,,,,7,,,58,0
52604,note_off,,,,,188,0,6,,,,,5,,,43,0
52604,note_off,,,,,92,0,3,,,,,2,,,75,0
52604,note_off,,,,,188,0,7,,,,,6,,,31,0
52604,note_off,,,,,92,0,2,,,,,1,,,75,0
52604,note_off,,,,,92,0,1,,,,,0,,,75,0
52604,note_off,,,,,188,0,4,,,,,3,,,70,0
52604,note_off,,,,,188,0,5,,,,,4,,,63,0
52604,note_off,,,,,188,0,9,,,,,8,,,43,0
52608,note_on,,,,,4,0,6,,,,,5,,,44,92
52608,note_on,,,,,4,0,4,,,,,3,,,68,127
52608,note_on,,,,,64,0,8,,,,,7,,,60,50
52608,note_on,,,,,0,0,8,,,,,7,,,63,50
52608,note_on,,,,,0,0,8,,,,,7,,,68,50
52608,note_on,,,,,4,0,9,,,,,8,,,44,50
52608,note_on,,,,,4,0,2,,,,,1,,,72,63
52608,note_on,,,,,4,0,7,,,,,6,,,32,75
52608,note_on,,,,,4,0,3,,,,,2,,,72,108
52608,note_on,,,,,4,0,1,,,,,0,,,72,63
52608,note_on,,,,,4,0,5,,,,,4,,,63,92
52796,note_off,,,,,188,0,7,,,,,6,,,32,0
52796,note_off,,,,,188,0,9,,,,,8,,,44,0
52796,note_off,,,,,188,0,6,,,,,5,,,44,0
52800,note_on,,,,,4,0,9,,,,,8,,,46,50
52800,note_on,,,,,4,0,7,,,,,6,,,34,75
52800,note_on,,,,,4,0,6,,,,,5,,,46,92
52892,note_off,,,,,284,0,2,,,,,1,,,72,0
52892,note_off,,,,,284,0,3,,,,,2,,,72,0
52892,note_off,,,,,284,0,1,,,,,0,,,72,0
52896,note_on,,,,,4,0,1,,,,,0,,,70,63
52896,note_on,,,,,4,0,3,,,,,2,,,70,108
52896,note_on,,,,,4,0,2,,,,,1,,,70,63
52928,note_off,,,,,320,0,4,,,,,3,,,68,0
52928,note_off,,,,,0,0,8,,,,,7,,,68,0
52928,note_off,,,,,0,0,8,,,,,7,,,63,0
52928,note_off,,,,,320,0,8,,,,,7,,,60,0
52928,note_off,,,,,320,0,5,,,,,4,,,63,0
52988,note_off,,,,,92,0,3,,,,,2,,,70,0
52988,note_off,,,,,92,0,1,,,,,0,,,70,0
52988,note_off,,,,,188,0,9,,,,,8,,,46,0
52988,note_off,,,,,188,0,6,,,,,5,,,46,0
52988,note_off,,,,,188,0,7,,,,,6,,,34,0
52988,note_off,,,,,92,0,2,,,,,1,,,70,0
52992,note_on,,,,,4,0,3,,,,,2,,,68,108
52992,note_on,,,,,64,0,8,,,,,7,,,60,50
52992,note_on,,,,,4,0,6,,,,,5,,,48,92
52992,note_on,,,,,4,0,2,,,,,1,,,68,63
52992,note_on,,,,,0,0,8,,,,,7,,,63,50
52992,note_on,,,,,0,0,8,,,,,7,,,68,50
52992,note_on,,,,,4,0,7,,,,,6,,,36,75
52992,note_on,,,,,4,0,9,,,,,8,,,48,50
52992,note_on,,,,,4,0,1,,,,,0,,,68,63
53084,note_off,,,,,92,0,1,,,,,0,,,68,0
53084,note_off,,,,,92,0,3,,,,,2,,,68,0
53084,note_off,,,,,92,0,2,,,,,1,,,68,0
53088,note_on,,,,,4,0,3,,,,,2,,,67,108
53088,note_on,,,,,4,0,2,,,,,1,,,67,63
53088,note_on,,,,,4,0,1,,,,,0,,,67,63
53180,note_off,,,,,188,0,7,,,,,6,,,36,0
53180,note_off,,,,,92,0,2,,,,,1,,,67,0
53180,note_off,,,,,188,0,9,,,,,8,,,48,0
53180,note_off,,,,,92,0,1,,,,,0,,,67,0
53180,note_off,,,,,188,0,6,,,,,5,,,48,0
53180,note_off,,,,,188,0,8,,,,,7,,,63,0
53180,note_off,,,,,92,0,3,,,,,2,,,67,0
53184,note_on,,,,,4,0,2,,,,,1,,,65,63
53184,note_on,,,,,256,0,4,,,,,3,,,68,127
53184,note_on,,,,,4,0,3,,,,,2,,,65,108
53184,note_on,,,,,4,0,7,,,,,6,,,32,75
53184,note_on,,,,,4,0,8,,,,,7,,,65,50
53184,note_on,,,,,4,0,9,,,,,8,,,44,50
53184,note_on,,,,,4,0,1,,,,,0,,,65,63
53184,note_on,,,,,256,0,5,,,,,4,,,60,92
53184,note_on,,,,,4,0,6,,,,,5,,,44,92
53276,note_off,,,,,92,0,3,,,,,2,,,65,0
53276,note_off,,,,,92,0,2,,,,,1,,,65,0
53276,note_off,,,,,92,0,1,,,,,0,,,65,0
53280,note_on,,,,,4,0,2,,,,,1,,,63,63
53280,note_on,,,,,4,0,1,,,,,0,,,63,63
53280,note_on,,,,,4,0,3,,,,,2,,,63,108
53372,note_off,,,,,92,0,2,,,,,1,,,63,0
53372,note_off,,,,,188,0,4,,,,,3,,,68,0
53372,note_off,,,,,92,0,1,,,,,0,,,63,0
53372,note_off,,,,,92,0,3,,,,,2,,,63,0
53372,note_off,,,,,188,0,6,,,,,5,,,44,0
53372,note_off,,,,,188,0,7,,,,,6,,,32,0
53372,note_off,,,,,188,0,5,,,,,4,,,60,0
53372,note_off,,,,,0,0,8,,,,,7,,,65,0
53372,note_off,,,,,0,0,8,,,,,7,,,68,0
53372,note_off,,,,,188,0,8,,,,,7,,,60,0
53372,note_off,,,,,188,0,9,,,,,8,,,44,0
53376,note_on,,,,,4,0,2,,,,,1,,,62,63
53376,note_on,,,,,4,0,3,,,,,2,,,62,108
53376,note_on,,,,,4,0,5,,,,,4,,,62,92
53376,note_on,,,,,4,0,4,,,,,3,,,65,127
53376,note_on,,,,,4,0,9,,,,,8,,,46,50
53376,note_on,,,,,4,0,6,,,,,5,,,46,92
53376,note_on,,,,,4,0,1,,,,,0,,,62,63
53376,note_on,,,,,0,0,8,,,,,7,,,65,50
53376,note_on,,,,,4,0,7,,,,,6,,,34,75
53376,note_on,,,,,4,0,8,,,,,7,,,62,50
53564,note_off,,,,,188,0,9,,,,,8,,,46,0
53564,note_off,,,,,188,0,7,,,,,6,,,34,0
53564,note_off,,,,,188,0,6,,,,,5,,,46,0
53564,note_off,,,,,188,0,4,,,,,3,,,65,0
53564,note_off,,,,,188,0,8,,,,,7,,,65,0
53564,note_off,,,,,188,0,3,,,,,2,,,62,0
53564,note_off,,,,,188,0,1,,,,,0,,,62,0
53564,note_off,,,,,188,0,2,,,,,1,,,62,0
53568,note_on,,,,,0,0,8,,,,,7,,,67,50
53568,note_on,,,,,4,0,8,,,,,7,,,58,50
53568,note_on,,,,,4,0,1,,,,,0,,,70,63
53568,note_on,,,,,4,0,2,,,,,1,,,70,63
53568,note_on,,,,,4,0,7,,,,,6,,,31,75
53568,note_on,,,,,4,0,4,,,,,3,,,67,127
53568,note_on,,,,,4,0,9,,,,,8,,,43,50
53568,note_on,,,,,4,0,6,,,,,5,,,43,92
53568,note_on,,,,,4,0,3,,,,,2,,,70,108
53696,note_off,,,,,320,0,5,,,,,4,,,62,0
53756,note_off,,,,,188,0,4,,,,,3,,,67,0
53756,note_off,,,,,188,0,2,,,,,1,,,70,0
53756,note_off,,,,,188,0,8,,,,,7,,,62,0
53756,note_off,,,,,0,0,8,,,,,7,,,58,0
53756,note_off,,,,,0,0,8,,,,,7,,,67,0
53756,note_off,,,,,188,0,1,,,,,0,,,70,0
53756,note_off,,,,,188,0,7,,,,,6,,,31,0
53756,note_off,,,,,188,0,3,,,,,2,,,70,0
53756,note_off,,,,,188,0,6,,,,,5,,,43,0
53756,note_off,,,,,188,0,9,,,,,8,,,43,0
53760,note_on,,,,,0,0,8,,,,,7,,,63,50
53760,note_on,,,,,0,0,8,,,,,7,,,60,50
53760,note_on,,,,,4,0,8,,,,,7,,,55,50
53760,note_on,,,,,4,0,2,,,,,1,,,63,63
53760,note_on,,,,,4,0,3,,,,,2,,,63,108
53760,note_on,,,,,4,0,6,,,,,5,,,48,92
53760,note_on,,,,,64,0,5,,,,,4,,,63,92
53760,note_on,,,,,4,0,7,,,,,6,,,36,75
53760,note_on,,,,,4,0,1,,,,,0,,,63,63
53760,note_on,,,,,4,0,9,,,,,8,,,48,50
53948,note_off,,,,,188,0,6,,,,,5,,,48,0
53948,note_off,,,,,188,0,9,,,,,8,,,48,0
53948,note_off,,,,,188,0,2,,,,,1,,,63,0
53948,note_off,,,,,188,0,7,,,,,6,,,36,0
53948,note_off,,,,,188,0,1,,,,,0,,,63,0
53948,note_off,,,,,188,0,3,,,,,2,,,63,0
53948,note_off,,,,,0,0,8,,,,,7,,,63,0
53948,note_off,,,,,0,0,8,,,,,7,,,60,0
53948,note_off,,,,,188,0,8,,,,,7,,,55,0
53948,note_off,,,,,188,0,5,,,,,4,,,63,0
53952,note_on,,,,,196,0,4,,,,,3,,,63,127
53952,note_on,,,,,4,0,3,,,,,2,,,68,108
53952,note_on,,,,,4,0,1,,,,,0,,,68,63
53952,note_on,,,,,4,0,6,,,,,5,,,44,92
53952,note_on,,,,,0,0,8,,,,,7,,,63,50
53952,note_on,,,,,4,0,8,,,,,7,,,60,50
53952,note_on,,,,,4,0,9,,,,,8,,,44,50
53952,note_on,,,,,4,0,2,,,,,1,,,68,63
53952,note_on,,,,,4,0,5,,,,,4,,,60,92
53952,note_on,,,,,4,0,7,,,,,6,,,32,75
54140,note_off,,,,,188,0,4,,,,,3,,,63,0
54140,note_off,,,,,188,0,1,,,,,0,,,68,0
54140,note_off,,,,,188,0,8,,,,,7,,,60,0
54140,note_off,,,,,0,0,8,,,,,7,,,63,0
54140,note_off,,,,,188,0,2,,,,,1,,,68,0
54140,note_off,,,,,188,0,9,,,,,8,,,44,0
54140,note_off,,,,,188,0,5,,,,,4,,,60,0
54140,note_off,,,,,188,0,7,,,,,6,,,32,0
54140,note_off,,,,,188,0,3,,,,,2,,,68,0
54140,note_off,,,,,188,0,6,,,,,5,,,44,0
54144,note_on,,,,,4,0,7,,,,,6,,,34,75
54144,note_on,,,,,0,0,8,,,,,7,,,63,50
54144,note_on,,,,,4,0,1,,,,,0,,,67,63
54144,note_on,,,,,4,0,8,,,,,7,,,58,50
54144,note_on,,,,,4,0,6,,,,,5,,,46,92
54144,note_on,,,,,4,0,5,,,,,4,,,58,92
54144,note_on,,,,,4,0,3,,,,,2,,,67,108
54144,note_on,,,,,4,0,4,,,,,3,,,63,127
54144,note_on,,,,,4,0,2,,,,,1,,,67,63
54144,note_on,,,,,4,0,9,,,,,8,,,46,50
54332,note_off,,,,,188,0,2,,,,,1,,,67,0
54332,note_off,,,,,188,0,4,,,,,3,,,63,0
54332,note_off,,,,,188,0,1,,,,,0,,,67,0
54332,note_off,,,,,188,0,8,,,,,7,,,63,0
54332,note_off,,,,,188,0,3,,,,,2,,,67,0
54336,note_on,,,,,4,0,3,,,,,2,,,65,108
54336,note_on,,,,,4,0,8,,,,,7,,,62,50
54336,note_on,,,,,4,0,2,,,,,1,,,65,63
54336,note_on,,,,,4,0,4,,,,,3,,,62,127
54336,note_on,,,,,4,0,1,,,,,0,,,65,63
54428,note_off,,,,,92,0,2,,,,,1,,,65,0
54428,note_off,,,,,92,0,1,,,,,0,,,65,0
54428,note_off,,,,,92,0,3,,,,,2,,,65,0
54432,note_on,,,,,4,0,1,,,,,0,,,63,63
54432,note_on,,,,,4,0,2,,,,,1,,,63,63
54432,note_on,,,,,4,0,3,,,,,2,,,63,108
54464,note_off,,,,,320,0,6,,,,,5,,,46,0
54464,note_off,,,,,320,0,5,,,,,4,,,58,0
54464,note_off,,,,,128,0,8,,,,,7,,,58,0
54464,note_off,,,,,320,0,7,,,,,6,,,34,0
54464,note_off,,,,,320,0,9,,,,,8,,,46,0
54524,note_off,,,,,188,0,4,,,,,3,,,62,0
54524,note_off,,,,,92,0,2,,,,,1,,,63,0
54524,note_off,,,,,92,0,3,,,,,2,,,63,0
54524,note_off,,,,,92,0,1,,,,,0,,,63,0
54524,note_off,,,,,60,0,8,,,,,7,,,62,0
54528,note_on,,,,,4,0,3,,,,,2,,,58,108
54528,note_on,,,,,4,0,2,,,,,1,,,58,63
54528,note_on,,,,,4,0,1,,,,,0,,,58,63
54716,note_off,,,,,188,0,2,,,,,1,,,58,0
54716,note_off,,,,,188,0,3,,,,,2,,,58,0
54716,note_off,,,,,188,0,1,,,,,0,,,58,0
54720,note_on,,,,,4,0,1,,,,,0,,,62,63
54720,note_on,,,,,4,0,3,,,,,2,,,62,108
54720,note_on,,,,,4,0,2,,,,,1,,,62,63
54908,note_off,,,,,188,0,2,,,,,1,,,62,0
54908,note_off,,,,,188,0,1,,,,,0,,,62,0
54908,note_off,,,,,188,0,3,,,,,2,,,62,0
54912,note_on,,,,,388,0,8,,,,,7,,,60,50
54912,note_on,,,,,448,0,9,,,,,8,,,58,50
54912,note_on,,,,,4,0,2,,,,,1,,,76,88
54912,note_on,,,,,448,0,6,,,,,5,,,58,92
54912,note_on,,,,,448,0,7,,,,,6,,,46,75
54912,note_on,,,,,0,0,8,,,,,7,,,64,50
54912,note_on,,,,,0,0,8,,,,,7,,,67,50
54912,note_on,,,,,4,0,1,,,,,0,,,76,88
54912,note_on,,,,,4,0,3,,,,,2,,,76,127
54912,note_on,,,,,448,0,5,,,,,4,,,67,92
54912,note_on,,,,,388,0,4,,,,,3,,,72,127
55232,note_off,,,,,320,0,6,,,,,5,,,58,0
55232,note_off,,,,,320,0,3,,,,,2,,,76,0
55232,note_off,,,,,320,0,2,,,,,1,,,76,0
55232,note_off,,,,,320,0,7,,,,,6,,,46,0
55232,note_off,,,,,320,0,1,,,,,0,,,76,0
55232,note_off,,,,,0,0,8,,,,,7,,,64,0
55232,note_off,,,,,320,0,4,,,,,3,,,72,0
55232,note_off,,,,,0,0,8,,,,,7,,,67,0
55232,note_off,,,,,320,0,8,,,,,7,,,60,0
55232,note_off,,,,,320,0,5,,,,,4,,,67,0
55232,note_off,,,,,320,0,9,,,,,8,,,58,0
55488,note_on,,,,,256,0,4,,,,,3,,,67,75
55488,note_on,,,,,256,0,5,,,,,4,,,67,60
55676,note_off,,,,,188,0,4,,,,,3,,,67,0
55676,note_off,,,,,188,0,5,,,,,4,,,67,0
55680,note_on,,,,,4,0,4,,,,,3,,,72,75
55680,note_on,,,,,4,0,5,,,,,4,,,72,60
55868,note_off,,,,,188,0,5,,,,,4,,,72,0
55868,note_off,,,,,188,0,4,,,,,3,,,72,0
55872,note_on,,,,,4,0,4,,,,,3,,,67,75
55872,note_on,,,,,4,0,5,,,,,4,,,67,60
55964,note_off,,,,,92,0,5,,,,,4,,,67,0
55964,note_off,,,,,92,0,4,,,,,3,,,67,0
55968,note_on,,,,,4,0,4,,,,,3,,,65,75
55968,note_on,,,,,4,0,5,,,,,4,,,65,60
56060,note_off,,,,,92,0,4,,,,,3,,,65,0
56060,note_off,,,,,92,0,5,,,,,4,,,65,0
56064,note_on,,,,,4,0,4,,,,,3,,,64,75
56064,note_on,,,,,4,0,5,,,,,4,,,64,60
56252,note_off,,,,,188,0,5,,,,,4,,,64,0
56252,note_off,,,,,188,0,4,,,,,3,,,64,0
56256,note_on,,,,,4,0,5,,,,,4,,,62,60
56256,note_on,,,,,4,0,4,,,,,3,,,62,75
56348,note_off,,,,,92,0,4,,,,,3,,,62,0
56348,note_off,,,,,92,0,5,,,,,4,,,62,0
56352,note_on,,,,,4,0,4,,,,,3,,,64,75
56352,note_on,,,,,4,0,5,,,,,4,,,64,60
56444,note_off,,,,,92,0,5,,,,,4,,,64,0
56444,note_off,,,,,92,0,4,,,,,3,,,64,0
56448,note_on,,,,,4,0,5,,,,,4,,,60,60
56448,note_on,,,,,4,0,4,,,,,3,,,60,75
56768,note_off,,,,,320,0,4,,,,,3,,,60,0
56768,note_off,,,,,320,0,5,,,,,4,,,60,0
57024,note_on,,,,,1792,0,1,,,,,0,,,76,63
57024,note_on,,,,,1792,0,3,,,,,2,,,76,108
57024,note_on,,,,,1792,0,6,,,,,5,,,46,92
57024,note_on,,,,,1792,0,7,,,,,6,,,34,75
57024,note_on,,,,,256,0,4,,,,,3,,,67,127
57024,note_on,,,,,1792,0,9,,,,,8,,,46,50
57024,note_on,,,,,256,0,5,,,,,4,,,60,92
57024,note_on,,,,,0,0,8,,,,,7,,,72,50
57024,note_on,,,,,0,0,8,,,,,7,,,67,50
57024,note_on,,,,,1792,0,8,,,,,7,,,64,50
57024,note_on,,,,,1792,0,2,,,,,1,,,76,63
57212,note_off,,,,,188,0,7,,,,,6,,,34,0
57212,note_off,,,,,0,0,8,,,,,7,,,72,0
57212,note_off,,,,,188,0,9,,,,,8,,,46,0
57212,note_off,,,,,188,0,4,,,,,3,,,67,0
57212,note_off,,,,,188,0,3,,,,,2,,,76,0
57212,note_off,,,,,188,0,6,,,,,5,,,46,0
57212,note_off,,,,,0,0,8,,,,,7,,,67,0
57212,note_off,,,,,188,0,8,,,,,7,,,64,0
57212,note_off,,,,,188,0,1,,,,,0,,,76,0
57212,note_off,,,,,188,0,5,,,,,4,,,60,0
57212,note_off,,,,,188,0,2,,,,,1,,,76,0
57216,note_on,,,,,0,0,8,,,,,7,,,72,50
57216,note_on,,,,,4,0,5,,,,,4,,,60,92
57216,note_on,,,,,4,0,4,,,,,3,,,72,127
57216,note_on,,,,,4,0,7,,,,,6,,,32,75
57216,note_on,,,,,4,0,6,,,,,5,,,44,92
57216,note_on,,,,,0,0,8,,,,,7,,,65,50
57216,note_on,,,,,4,0,3,,,,,2,,,77,108
57216,note_on,,,,,4,0,8,,,,,7,,,60,50
57216,note_on,,,,,4,0,1,,,,,0,,,77,63
57216,note_on,,,,,4,0,9,,,,,8,,,44,50
57216,note_on,,,,,4,0,2,,,,,1,,,77,63
57500,note_off,,,,,284,0,1,,,,,0,,,77,0
57500,note_off,,,,,284,0,2,,,,,1,,,77,0
57500,note_off,,,,,284,0,3,,,,,2,,,77,0
57504,note_on,,,,,4,0,3,,,,,2,,,75,108
57504,note_on,,,,,4,0,1,,,,,0,,,75,63
57504,note_on,,,,,4,0,2,,,,,1,,,75,63
57536,note_off,,,,,320,0,5,,,,,4,,,60,0
57536,note_off,,,,,320,0,7,,,,,6,,,32,0
57536,note_off,,,,,320,0,6,,,,,5,,,44,0
57536,note_off,,,,,0,0,8,,,,,7,,,65,0
57536,note_off,,,,,320,0,8,,,,,7,,,60,0
57536,note_off,,,,,320,0,9,,,,,8,,,44,0
57536,note_off,,,,,320,0,4,,,,,3,,,72,0
57536,note_off,,,,,0,0,8,,,,,7,,,72,0
57548,note_off,,,,,44,0,3,,,,,2,,,75,0
57548,note_off,,,,,44,0,1,,,,,0,,,75,0
57548,note_off,,,,,44,0,2,,,,,1,,,75,0
57552,note_on,,,,,4,0,1,,,,,0,,,73,63
57552,note_on,,,,,4,0,3,,,,,2,,,73,108
57552,note_on,,,,,4,0,2,,,,,1,,,73,63
57596,note_off,,,,,44,0,3,,,,,2,,,73,0
57596,note_off,,,,,44,0,2,,,,,1,,,73,0
57596,note_off,,,,,44,0,1,,,,,0,,,73,0
57600,note_on,,,,,4,0,3,,,,,2,,,72,108
57600,note_on,,,,,4,0,1,,,,,0,,,72,63
57600,note_on,,,,,4,0,2,,,,,1,,,72,63
57788,note_off,,,,,188,0,3,,,,,2,,,72,0
57788,note_off,,,,,188,0,2,,,,,1,,,72,0
57788,note_off,,,,,188,0,1,,,,,0,,,72,0
57792,note_on,,,,,256,0,4,,,,,3,,,65,127
57792,note_on,,,,,4,0,3,,,,,2,,,72,108
57792,note_on,,,,,4,0,1,,,,,0,,,72,63
57792,note_on,,,,,4,0,2,,,,,1,,,72,63
57792,note_on,,,,,256,0,9,,,,,8,,,44,50
57792,note_on,,,,,0,0,8,,,,,7,,,65,50
57792,note_on,,,,,256,0,8,,,,,7,,,60,50
57792,note_on,,,,,256,0,5,,,,,4,,,68,92
57792,note_on,,,,,256,0,6,,,,,5,,,44,92
57792,note_on,,,,,256,0,7,,,,,6,,,32,75
57980,note_off,,,,,188,0,2,,,,,1,,,72,0
57980,note_off,,,,,188,0,4,,,,,3,,,65,0
57980,note_off,,,,,188,0,9,,,,,8,,,44,0
57980,note_off,,,,,188,0,5,,,,,4,,,68,0
57980,note_off,,,,,188,0,6,,,,,5,,,44,0
57980,note_off,,,,,188,0,3,,,,,2,,,72,0
57980,note_off,,,,,188,0,1,,,,,0,,,72,0
57980,note_off,,,,,0,0,8,,,,,7,,,65,0
57980,note_off,,,,,188,0,8,,,,,7,,,60,0
57980,note_off,,,,,188,0,7,,,,,6,,,32,0
57984,note_on,,,,,4,0,4,,,,,3,,,65,127
57984,note_on,,,,,4,0,6,,,,,5,,,46,92
57984,note_on,,,,,4,0,5,,,,,4,,,61,92
57984,note_on,,,,,0,0,8,,,,,7,,,65,50
57984,note_on,,,,,0,0,8,,,,,7,,,61,50
57984,note_on,,,,,4,0,8,,,,,7,,,58,50
57984,note_on,,,,,4,0,2,,,,,1,,,73,63
57984,note_on,,,,,4,0,9,,,,,8,,,46,50
57984,note_on,,,,,4,0,3,,,,,2,,,73,108
57984,note_on,,,,,4,0,7,,,,,6,,,34,75
57984,note_on,,,,,4,0,1,,,,,0,,,73,63
58172,note_off,,,,,188,0,9,,,,,8,,,46,0
58172,note_off,,,,,188,0,4,,,,,3,,,65,0
58172,note_off,,,,,188,0,8,,,,,7,,,58,0
58172,note_off,,,,,0,0,8,,,,,7,,,61,0
58172,note_off,,,,,0,0,8,,,,,7,,,65,0
58172,note_off,,,,,188,0,7,,,,,6,,,34,0
58172,note_off,,,,,188,0,5,,,,,4,,,61,0
58172,note_off,,,,,188,0,6,,,,,5,,,46,0
58176,note_on,,,,,4,0,4,,,,,3,,,64,127
58176,note_on,,,,,4,0,8,,,,,7,,,55,50
58176,note_on,,,,,0,0,8,,,,,7,,,60,50
58176,note_on,,,,,0,0,8,,,,,7,,,64,50
58176,note_on,,,,,4,0,6,,,,,5,,,48,92
58176,note_on,,,,,4,0,9,,,,,8,,,48,50
58176,note_on,,,,,4,0,7,,,,,6,,,36,75
58176,note_on,,,,,4,0,5,,,,,4,,,55,92
58268,note_off,,,,,284,0,2,,,,,1,,,73,0
58268,note_off,,,,,284,0,1,,,,,0,,,73,0
58268,note_off,,,,,284,0,3,,,,,2,,,73,0
58272,note_on,,,,,4,0,3,,,,,2,,,72,108
58272,note_on,,,,,4,0,2,,,,,1,,,72,63
58272,note_on,,,,,4,0,1,,,,,0,,,72,63
58364,note_off,,,,,0,0,8,,,,,7,,,64,0
58364,note_off,,,,,0,0,8,,,,,7,,,60,0
58364,note_off,,,,,188,0,8,,,,,7,,,55,0
58364,note_off,,,,,188,0,6,,,,,5,,,48,0
58364,note_off,,,,,92,0,1,,,,,0,,,72,0
58364,note_off,,,,,188,0,7,,,,,6,,,36,0
58364,note_off,,,,,188,0,9,,,,,8,,,48,0
58364,note_off,,,,,188,0,4,,,,,3,,,64,0
58364,note_off,,,,,92,0,3,,,,,2,,,72,0
58364,note_off,,,,,188,0,5,,,,,4,,,55,0
58364,note_off,,,,,92,0,2,,,,,1,,,72,0
58368,note_on,,,,,4,0,1,,,,,0,,,70,63
58368,note_on,,,,,4,0,5,,,,,4,,,53,92
58368,note_on,,,,,4,0,7,,,,,6,,,37,75
58368,note_on,,,,,0,0,8,,,,,7,,,65,50
58368,note_on,,,,,0,0,8,,,,,7,,,58,50
58368,note_on,,,,,4,0,9,,,,,8,,,49,50
58368,note_on,,,,,4,0,3,,,,,2,,,70,108
58368,note_on,,,,,4,0,6,,,,,5,,,49,92
58368,note_on,,,,,4,0,2,,,,,1,,,70,63
58368,note_on,,,,,4,0,8,,,,,7,,,53,50
58368,note_on,,,,,4,0,4,,,,,3,,,65,127
58460,note_off,,,,,92,0,1,,,,,0,,,70,0
58460,note_off,,,,,92,0,2,,,,,1,,,70,0
58460,note_off,,,,,92,0,3,,,,,2,,,70,0
58464,note_on,,,,,4,0,2,,,,,1,,,68,63
58464,note_on,,,,,4,0,3,,,,,2,,,68,108
58464,note_on,,,,,4,0,1,,,,,0,,,68,63
58556,note_off,,,,,188,0,4,,,,,3,,,65,0
58556,note_off,,,,,92,0,3,,,,,2,,,68,0
58556,note_off,,,,,188,0,5,,,,,4,,,53,0
58556,note_off,,,,,92,0,2,,,,,1,,,68,0
58556,note_off,,,,,188,0,8,,,,,7,,,53,0
58556,note_off,,,,,188,0,9,,,,,8,,,49,0
58556,note_off,,,,,0,0,8,,,,,7,,,58,0
58556,note_off,,,,,188,0,6,,,,,5,,,49,0
58556,note_off,,,,,188,0,7,,,,,6,,,37,0
58556,note_off,,,,,92,0,1,,,,,0,,,68,0
58560,note_on,,,,,4,0,6,,,,,5,,,46,92
58560,note_on,,,,,4,0,2,,,,,1,,,67,63
58560,note_on,,,,,0,0,8,,,,,7,,,61,50
58560,note_on,,,,,4,0,5,,,,,4,,,58,92
58560,note_on,,,,,4,0,8,,,,,7,,,55,50
58560,note_on,,,,,4,0,7,,,,,6,,,34,75
58560,note_on,,,,,4,0,9,,,,,8,,,46,50
58560,note_on,,,,,4,0,1,,,,,0,,,67,63
58560,note_on,,,,,4,0,3,,,,,2,,,67,108
58560,note_on,,,,,4,0,4,,,,,3,,,61,127
58652,note_off,,,,,92,0,3,,,,,2,,,67,0
58652,note_off,,,,,92,0,1,,,,,0,,,67,0
58652,note_off,,,,,92,0,2,,,,,1,,,67,0
58656,note_on,,,,,4,0,3,,,,,2,,,65,108
58656,note_on,,,,,4,0,2,,,,,1,,,65,63
58656,note_on,,,,,4,0,1,,,,,0,,,65,63
58748,note_off,,,,,188,0,7,,,,,6,,,34,0
58748,note_off,,,,,92,0,2,,,,,1,,,65,0
58748,note_off,,,,,188,0,6,,,,,5,,,46,0
58748,note_off,,,,,188,0,4,,,,,3,,,61,0
58748,note_off,,,,,188,0,9,,,,,8,,,46,0
58748,note_off,,,,,92,0,1,,,,,0,,,65,0
58748,note_off,,,,,92,0,3,,,,,2,,,65,0
58748,note_off,,,,,0,0,8,,,,,7,,,55,0
58748,note_off,,,,,0,0,8,,,,,7,,,61,0
58748,note_off,,,,,188,0,8,,,,,7,,,65,0
58748,note_off,,,,,188,0,5,,,,,4,,,58,0
58752,note_on,,,,,4,0,2,,,,,1,,,64,63
58752,note_on,,,,,4,0,3,,,,,2,,,64,108
58752,note_on,,,,,4,0,6,,,,,5,,,48,92
58752,note_on,,,,,4,0,9,,,,,8,,,48,50
58752,note_on,,,,,4,0,4,,,,,3,,,60,127
58752,note_on,,,,,4,0,8,,,,,7,,,55,50
58752,note_on,,,,,4,0,5,,,,,4,,,55,92
58752,note_on,,,,,4,0,1,,,,,0,,,64,63
58752,note_on,,,,,0,0,8,,,,,7,,,60,50
58752,note_on,,,,,0,0,8,,,,,7,,,64,50
58752,note_on,,,,,4,0,7,,,,,6,,,36,75
58940,note_off,,,,,188,0,1,,,,,0,,,64,0
58940,note_off,,,,,188,0,3,,,,,2,,,64,0
58940,note_off,,,,,188,0,2,,,,,1,,,64,0
58944,note_on,,,,,4,0,1,,,,,0,,,65,63
58944,note_on,,,,,4,0,3,,,,,2,,,65,108
58944,note_on,,,,,4,0,2,,,,,1,,,65,63
59072,note_off,,,,,320,0,5,,,,,4,,,55,0
59072,note_off,,,,,0,0,8,,,,,7,,,60,0
59072,note_off,,,,,320,0,8,,,,,7,,,55,0
59072,note_off,,,,,320,0,4,,,,,3,,,60,0
59072,note_off,,,,,320,0,9,,,,,8,,,48,0
59072,note_off,,,,,320,0,6,,,,,5,,,48,0
59072,note_off,,,,,320,0,7,,,,,6,,,36,0
59072,note_off,,,,,0,0,8,,,,,7,,,64,0
59132,note_off,,,,,188,0,2,,,,,1,,,65,0
59132,note_off,,,,,188,0,3,,,,,2,,,65,0
59132,note_off,,,,,188,0,1,,,,,0,,,65,0
59136,note_on,,,,,0,0,8,,,,,7,,,55,50
59136,note_on,,,,,4,0,3,,,,,2,,,55,108
59136,note_on,,,,,64,0,9,,,,,8,,,36,50
59136,note_on,,,,,4,0,2,,,,,1,,,55,63
59136,note_on,,,,,64,0,6,,,,,5,,,36,92
59136,note_on,,,,,64,0,8,,,,,7,,,52,50
59136,note_on,,,,,0,0,8,,,,,7,,,60,50
59136,note_on,,,,,4,0,1,,,,,0,,,55,63
59136,note_on,,,,,64,0,7,,,,,6,,,24,75
59324,note_off,,,,,188,0,3,,,,,2,,,55,0
59324,note_off,,,,,188,0,1,,,,,0,,,55,0
59324,note_off,,,,,188,0,2,,,,,1,,,55,0
59328,note_on,,,,,4,0,1,,,,,0,,,64,63
59328,note_on,,,,,4,0,3,,,,,2,,,64,108
59328,note_on,,,,,4,0,2,,,,,1,,,64,63
59456,note_off,,,,,320,0,6,,,,,5,,,36,0
59456,note_off,,,,,0,0,8,,,,,7,,,60,0
59456,note_off,,,,,320,0,9,,,,,8,,,36,0
59456,note_off,,,,,320,0,7,,,,,6,,,24,0
59456,note_off,,,,,0,0,8,,,,,7,,,55,0
59456,note_off,,,,,320,0,8,,,,,7,,,52,0
59516,note_off,,,,,188,0,3,,,,,2,,,64,0
59516,note_off,,,,,188,0,1,,,,,0,,,64,0
59516,note_off,,,,,188,0,2,,,,,1,,,64,0
59520,note_on,,,,,64,0,9,,,,,8,,,60,50
59520,note_on,,,,,448,0,4,,,,,3,,,75,127
59520,note_on,,,,,0,0,8,,,,,7,,,74,50
59520,note_on,,,,,64,0,7,,,,,6,,,48,75
59520,note_on,,,,,0,0,8,,,,,7,,,68,50
59520,note_on,,,,,64,0,8,,,,,7,,,66,50
59520,note_on,,,,,4,0,3,,,,,2,,,78,127
59520,note_on,,,,,4,0,2,,,,,1,,,78,88
59520,note_on,,,,,448,0,5,,,,,4,,,69,92
59520,note_on,,,,,4,0,1,,,,,0,,,78,88
59520,note_on,,,,,64,0,6,,,,,5,,,60,92
59840,note_off,,,,,320,0,1,,,,,0,,,78,0
59840,note_off,,,,,320,0,2,,,,,1,,,78,0
59840,note_off,,,,,320,0,9,,,,,8,,,60,0
59840,note_off,,,,,320,0,6,,,,,5,,,60,0
59840,note_off,,,,,320,0,8,,,,,7,,,66,0
59840,note_off,,,,,320,0,7,,,,,6,,,48,0
59840,note_off,,,,,320,0,3,,,,,2,,,78,0
59840,note_off,,,,,320,0,5,,,,,4,,,69,0
59840,note_off,,,,,0,0,8,,,,,7,,,74,0
59840,note_off,,,,,0,0,8,,,,,7,,,68,0
59840,note_off,,,,,320,0,4,,,,,3,,,75,0
60096,note_on,,,,,256,0,5,,,,,4,,,69,60
60096,note_on,,,,,256,0,4,,,,,3,,,69,75
60284,note_off,,,,,188,0,4,,,,,3,,,69,0
60284,note_off,,,,,188,0,5,,,,,4,,,69,0
60288,note_on,,,,,4,0,5,,,,,4,,,74,60
60288,note_on,,,,,4,0,4,,,,,3,,,74,75
60476,note_off,,,,,188,0,5,,,,,4,,,74,0
60476,note_off,,,,,188,0,4,,,,,3,,,74,0
60480,note_on,,,,,4,0,5,,,,,4,,,69,60
60480,note_on,,,,,4,0,4,,,,,3,,,69,75
60572,note_off,,,,,92,0,5,,,,,4,,,69,0
60572,note_off,,,,,92,0,4,,,,,3,,,69,0
60576,note_on,,,,,4,0,4,,,,,3,,,67,75
60576,note_on,,,,,4,0,5,,,,,4,,,67,60
60668,note_off,,,,,92,0,5,,,,,4,,,67,0
60668,note_off,,,,,92,0,4,,,,,3,,,67,0
60672,note_on,,,,,4,0,4,,,,,3,,,66,75
60672,note_on,,,,,4,0,5,,,,,4,,,66,60
60860,note_off,,,,,188,0,4,,,,,3,,,66,0
60860,note_off,,,,,188,0,5,,,,,4,,,66,0
60864,note_on,,,,,4,0,5,,,,,4,,,64,60
60864,note_on,,,,,4,0,4,,,,,3,,,64,75
60956,note_off,,,,,92,0,4,,,,,3,,,64,0
60956,note_off,,,,,92,0,5,,,,,4,,,64,0
60960,note_on,,,,,4,0,4,,,,,3,,,66,75
60960,note_on,,,,,4,0,5,,,,,4,,,66,60
61052,note_off,,,,,92,0,5,,,,,4,,,66,0
61052,note_off,,,,,92,0,4,,,,,3,,,66,0
61056,note_on,,,,,4,0,4,,,,,3,,,62,75
61056,note_on,,,,,4,0,5,,,,,4,,,62,60
61376,note_off,,,,,320,0,4,,,,,3,,,62,0
61376,note_off,,,,,320,0,5,,,,,4,,,62,0
61632,note_on,,,,,1792,0,2,,,,,1,,,78,63
61632,note_on,,,,,1792,0,3,,,,,2,,,78,108
61632,note_on,,,,,1792,0,7,,,,,6,,,36,75
61632,note_on,,,,,256,0,5,,,,,4,,,62,92
61632,note_on,,,,,256,0,4,,,,,3,,,69,127
61632,note_on,,,,,1792,0,9,,,,,8,,,48,50
61632,note_on,,,,,0,0,8,,,,,7,,,74,50
61632,note_on,,,,,1792,0,1,,,,,0,,,78,63
61632,note_on,,,,,0,0,8,,,,,7,,,69,50
61632,note_on,,,,,1792,0,6,,,,,5,,,48,92
61632,note_on,,,,,1792,0,8,,,,,7,,,66,50
61820,note_off,,,,,188,0,1,,,,,0,,,78,0
61820,note_off,,,,,188,0,5,,,,,4,,,62,0
61820,note_off,,,,,188,0,4,,,,,3,,,69,0
61820,note_off,,,,,0,0,8,,,,,7,,,74,0
61820,note_off,,,,,0,0,8,,,,,7,,,69,0
61820,note_off,,,,,188,0,8,,,,,7,,,66,0
61820,note_off,,,,,188,0,7,,,,,6,,,36,0
61820,note_off,,,,,188,0,2,,,,,1,,,78,0
61820,note_off,,,,,188,0,9,,,,,8,,,48,0
61820,note_off,,,,,188,0,3,,,,,2,,,78,0
61820,note_off,,,,,188,0,6,,,,,5,,,48,0
61824,note_on,,,,,4,0,7,,,,,6,,,34,75
61824,note_on,,,,,4,0,2,,,,,1,,,79,63
61824,note_on,,,,,4,0,5,,,,,4,,,62,92
61824,note_on,,,,,4,0,4,,,,,3,,,74,127
61824,note_on,,,,,4,0,1,,,,,0,,,79,63
61824,note_on,,,,,0,0,8,,,,,7,,,74,50
61824,note_on,,,,,0,0,8,,,,,7,,,67,50
61824,note_on,,,,,4,0,8,,,,,7,,,62,50
61824,note_on,,,,,4,0,3,,,,,2,,,79,108
61824,note_on,,,,,4,0,9,,,,,8,,,46,50
61824,note_on,,,,,4,0,6,,,,,5,,,46,92
62108,note_off,,,,,284,0,2,,,,,1,,,79,0
62108,note_off,,,,,284,0,3,,,,,2,,,79,0
62108,note_off,,,,,284,0,1,,,,,0,,,79,0
62112,note_on,,,,,4,0,2,,,,,1,,,77,63
62112,note_on,,,,,4,0,1,,,,,0,,,77,63
62112,note_on,,,,,4,0,3,,,,,2,,,77,108
62144,note_off,,,,,320,0,6,,,,,5,,,46,0
62144,note_off,,,,,320,0,7,,,,,6,,,34,0
62144,note_off,,,,,320,0,4,,,,,3,,,74,0
62144,note_off,,,,,0,0,8,,,,,7,,,74,0
62144,note_off,,,,,0,0,8,,,,,7,,,67,0
62144,note_off,,,,,320,0,5,,,,,4,,,62,0
62144,note_off,,,,,320,0,9,,,,,8,,,46,0
62144,note_off,,,,,320,0,8,,,,,7,,,62,0
62156,note_off,,,,,44,0,1,,,,,0,,,77,0
62156,note_off,,,,,44,0,2,,,,,1,,,77,0
62156,note_off,,,,,44,0,3,,,,,2,,,77,0
62160,note_on,,,,,4,0,1,,,,,0,,,75,63
62160,note_on,,,,,4,0,2,,,,,1,,,75,63
62160,note_on,,,,,4,0,3,,,,,2,,,75,108
62204,note_off,,,,,44,0,3,,,,,2,,,75,0
62204,note_off,,,,,44,0,1,,,,,0,,,75,0
62204,note_off,,,,,44,0,2,,,,,1,,,75,0
62208,note_on,,,,,4,0,3,,,,,2,,,74,108
62208,note_on,,,,,4,0,2,,,,,1,,,74,63
62208,note_on,,,,,4,0,1,,,,,0,,,74,63
62396,note_off,,,,,188,0,2,,,,,1,,,74,0
62396,note_off,,,,,188,0,3,,,,,2,,,74,0
62396,note_off,,,,,188,0,1,,,,,0,,,74,0
62400,note_on,,,,,256,0,7,,,,,6,,,34,75
62400,note_on,,,,,4,0,1,,,,,0,,,74,63
62400,note_on,,,,,0,0,8,,,,,7,,,67,50
62400,note_on,,,,,256,0,8,,,,,7,,,62,50
62400,note_on,,,,,256,0,9,,,,,8,,,46,50
62400,note_on,,,,,256,0,5,,,,,4,,,62,92
62400,note_on,,,,,256,0,4,,,,,3,,,67,127
62400,note_on,,,,,256,0,6,,,,,5,,,46,92
62400,note_on,,,,,4,0,2,,,,,1,,,74,63
62400,note_on,,,,,4,0,3,,,,,2,,,74,108
62588,note_off,,,,,188,0,8,,,,,7,,,62,0
62588,note_off,,,,,0,0,8,,,,,7,,,67,0
62588,note_off,,,,,188,0,5,,,,,4,,,62,0
62588,note_off,,,,,188,0,4,,,,,3,,,67,0
62588,note_off,,,,,188,0,1,,,,,0,,,74,0
62588,note_off,,,,,188,0,3,,,,,2,,,74,0
62588,note_off,,,,,188,0,9,,,,,8,,,46,0
62588,note_off,,,,,188,0,2,,,,,1,,,74,0
62588,note_off,,,,,188,0,6,,,,,5,,,46,0
62588,note_off,,,,,188,0,7,,,,,6,,,34,0
62592,note_on,,,,,4,0,3,,,,,2,,,79,108
62592,note_on,,,,,4,0,6,,,,,5,,,51,92
62592,note_on,,,,,4,0,4,,,,,3,,,67,127
62592,note_on,,,,,4,0,2,,,,,1,,,79,63
62592,note_on,,,,,4,0,5,,,,,4,,,60,92
62592,note_on,,,,,4,0,9,,,,,8,,,51,50
62592,note_on,,,,,4,0,7,,,,,6,,,39,75
62592,note_on,,,,,4,0,8,,,,,7,,,60,50
62592,note_on,,,,,4,0,1,,,,,0,,,79,63
62592,note_on,,,,,0,0,8,,,,,7,,,67,50
62876,note_off,,,,,284,0,3,,,,,2,,,79,0
62876,note_off,,,,,284,0,1,,,,,0,,,79,0
62876,note_off,,,,,284,0,2,,,,,1,,,79,0
62880,note_on,,,,,4,0,2,,,,,1,,,77,63
62880,note_on,,,,,4,0,3,,,,,2,,,77,108
62880,note_on,,,,,4,0,1,,,,,0,,,77,63
62912,note_off,,,,,0,0,8,,,,,7,,,67,0
62912,note_off,,,,,320,0,8,,,,,7,,,60,0
62912,note_off,,,,,320,0,6,,,,,5,,,51,0
62912,note_off,,,,,320,0,4,,,,,3,,,67,0
62912,note_off,,,,,320,0,5,,,,,4,,,60,0
62912,note_off,,,,,320,0,9,,,,,8,,,51,0
62912,note_off,,,,,320,0,7,,,,,6,,,39,0
62924,note_off,,,,,44,0,3,,,,,2,,,77,0
62924,note_off,,,,,44,0,1,,,,,0,,,77,0
62924,note_off,,,,,44,0,2,,,,,1,,,77,0
62928,note_on,,,,,4,0,1,,,,,0,,,75,63
62928,note_on,,,,,4,0,2,,,,,1,,,75,63
62928,note_on,,,,,4,0,3,,,,,2,,,75,108
62972,note_off,,,,,44,0,2,,,,,1,,,75,0
62972,note_off,,,,,44,0,1,,,,,0,,,75,0
62972,note_off,,,,,44,0,3,,,,,2,,,75,0
62976,note_on,,,,,4,0,1,,,,,0,,,74,63
62976,note_on,,,,,64,0,4,,,,,3,,,67,127
62976,note_on,,,,,4,0,3,,,,,2,,,74,108
62976,note_on,,,,,4,0,2,,,,,1,,,74,63
62976,note_on,,,,,64,0,8,,,,,7,,,62,50
62976,note_on,,,,,0,0,8,,,,,7,,,67,50
62976,note_on,,,,,64,0,7,,,,,6,,,34,75
62976,note_on,,,,,64,0,5,,,,,4,,,62,92
62976,note_on,,,,,64,0,6,,,,,5,,,46,92
62976,note_on,,,,,64,0,9,,,,,8,,,46,50
63164,note_off,,,,,188,0,2,,,,,1,,,74,0
63164,note_off,,,,,188,0,1,,,,,0,,,74,0
63164,note_off,,,,,188,0,4,,,,,3,,,67,0
63164,note_off,,,,,188,0,7,,,,,6,,,34,0
63164,note_off,,,,,188,0,9,,,,,8,,,46,0
63164,note_off,,,,,188,0,3,,,,,2,,,74,0
63164,note_off,,,,,188,0,8,,,,,7,,,62,0
63164,note_off,,,,,188,0,6,,,,,5,,,46,0
63164,note_off,,,,,188,0,5,,,,,4,,,62,0
63168,note_on,,,,,4,0,2,,,,,1,,,72,63
63168,note_on,,,,,4,0,4,,,,,3,,,67,127
63168,note_on,,,,,4,0,3,,,,,2,,,72,108
63168,note_on,,,,,4,0,5,,,,,4,,,63,92
63168,note_on,,,,,4,0,7,,,,,6,,,36,75
63168,note_on,,,,,4,0,1,,,,,0,,,72,63
63168,note_on,,,,,4,0,9,,,,,8,,,48,50
63168,note_on,,,,,4,0,6,,,,,5,,,48,92
63168,note_on,,,,,4,0,8,,,,,7,,,63,50
63356,note_off,,,,,0,0,8,,,,,7,,,63,0
63356,note_off,,,,,188,0,9,,,,,8,,,48,0
63356,note_off,,,,,188,0,7,,,,,6,,,36,0
63356,note_off,,,,,188,0,6,,,,,5,,,48,0
63356,note_off,,,,,188,0,4,,,,,3,,,67,0
63356,note_off,,,,,188,0,1,,,,,0,,,72,0
63356,note_off,,,,,188,0,8,,,,,7,,,67,0
63356,note_off,,,,,188,0,3,,,,,2,,,72,0
63356,note_off,,,,,188,0,2,,,,,1,,,72,0
63356,note_off,,,,,188,0,5,,,,,4,,,63,0
63360,note_on,,,,,0,0,8,,,,,7,,,62,50
63360,note_on,,,,,4,0,2,,,,,1,,,70,63
63360,note_on,,,,,0,0,8,,,,,7,,,67,50
63360,note_on,,,,,4,0,9,,,,,8,,,50,50
63360,note_on,,,,,4,0,1,,,,,0,,,70,63
63360,note_on,,,,,4,0,4,,,,,3,,,67,127
63360,note_on,,,,,4,0,5,,,,,4,,,62,92
63360,note_on,,,,,4,0,7,,,,,6,,,38,75
63360,note_on,,,,,4,0,6,,,,,5,,,50,92
63360,note_on,,,,,4,0,8,,,,,7,,,58,50
63360,note_on,,,,,4,0,3,,,,,2,,,70,108
63680,note_off,,,,,320,0,2,,,,,1,,,70,0
63680,note_off,,,,,0,0,8,,,,,7,,,67,0
63680,note_off,,,,,320,0,1,,,,,0,,,70,0
63680,note_off,,,,,320,0,3,,,,,2,,,70,0
63680,note_off,,,,,320,0,6,,,,,5,,,50,0
63680,note_off,,,,,320,0,8,,,,,7,,,58,0
63680,note_off,,,,,320,0,4,,,,,3,,,67,0
63680,note_off,,,,,320,0,7,,,,,6,,,38,0
63680,note_off,,,,,320,0,5,,,,,4,,,62,0
63680,note_off,,,,,0,0,8,,,,,7,,,62,0
63680,note_off,,,,,320,0,9,,,,,8,,,50,0
63744,note_on,,,,,64,0,8,,,,,7,,,57,50
63744,note_on,,,,,0,0,8,,,,,7,,,62,50
63744,note_on,,,,,64,0,3,,,,,2,,,69,108
63744,note_on,,,,,64,0,6,,,,,5,,,38,92
63744,note_on,,,,,0,0,8,,,,,7,,,66,50
63744,note_on,,,,,64,0,2,,,,,1,,,69,63
63744,note_on,,,,,64,0,7,,,,,6,,,26,75
63744,note_on,,,,,64,0,4,,,,,3,,,66,127
63744,note_on,,,,,64,0,5,,,,,4,,,62,92
63744,note_on,,,,,64,0,9,,,,,8,,,38,50
63744,note_on,,,,,64,0,1,,,,,0,,,69,63
64064,note_off,,,,,320,0,6,,,,,5,,,38,0
64064,note_off,,,,,320,0,7,,,,,6,,,26,0
64064,note_off,,,,,320,0,2,,,,,1,,,69,0
64064,note_off,,,,,320,0,1,,,,,0,,,69,0
64064,note_off,,,,,320,0,8,,,,,7,,,57,0
64064,note_off,,,,,0,0,8,,,,,7,,,62,0
64064,note_off,,,,,0,0,8,,,,,7,,,66,0
64064,note_off,,,,,320,0,5,,,,,4,,,62,0
64064,note_off,,,,,320,0,4,,,,,3,,,66,0
64064,note_off,,,,,320,0,3,,,,,2,,,69,0
64064,note_off,,,,,320,0,9,,,,,8,,,38,0
64128,note_on,,,,,64,0,1,,,,,0,,,67,63
64128,note_on,,,,,64,0,3,,,,,2,,,67,108
64128,note_on,,,,,64,0,5,,,,,4,,,62,92
64128,note_on,,,,,64,0,8,,,,,7,,,58,50
64128,note_on,,,,,0,0,8,,,,,7,,,67,50
64128,note_on,,,,,64,0,9,,,,,8,,,43,50
64128,note_on,,,,,64,0,7,,,,,6,,,31,75
64128,note_on,,,,,64,0,2,,,,,1,,,67,63
64128,note_on,,,,,64,0,6,,,,,5,,,43,92
64128,note_on,,,,,0,0,8,,,,,7,,,62,50
64128,note_on,,,,,64,0,4,,,,,3,,,67,127
64448,note_off,,,,,320,0,4,,,,,3,,,67,0
64448,note_off,,,,,320,0,7,,,,,6,,,31,0
64448,note_off,,,,,320,0,5,,,,,4,,,62,0
64448,note_off,,,,,0,0,8,,,,,7,,,67,0
64448,note_off,,,,,0,0,8,,,,,7,,,62,0
64448,note_off,,,,,320,0,9,,,,,8,,,43,0
64448,note_off,,,,,320,0,2,,,,,1,,,67,0
64448,note_off,,,,,320,0,6,,,,,5,,,43,0
64448,note_off,,,,,320,0,1,,,,,0,,,67,0
64448,note_off,,,,,320,0,3,,,,,2,,,67,0
64448,note_off,,,,,320,0,8,,,,,7,,,58,0
64704,note_on,,,,,256,0,2,,,,,1,,,70,63
64704,note_on,,,,,256,0,1,,,,,0,,,70,63
64704,note_on,,,,,256,0,3,,,,,2,,,70,108
64892,note_off,,,,,188,0,3,,,,,2,,,70,0
64892,note_off,,,,,188,0,1,,,,,0,,,70,0
64892,note_off,,,,,188,0,2,,,,,1,,,70,0
64896,note_on,,,,,4,0,1,,,,,0,,,75,63
64896,note_on,,,,,4,0,2,,,,,1,,,75,63
64896,note_on,,,,,4,0,3,,,,,2,,,75,108
65084,note_off,,,,,188,0,2,,,,,1,,,75,0
65084,note_off,,,,,188,0,1,,,,,0,,,75,0
65084,note_off,,,,,188,0,3,,,,,2,,,75,0
65088,note_on,,,,,4,0,3,,,,,2,,,70,108
65088,note_on,,,,,4,0,2,,,,,1,,,70,63
65088,note_on,,,,,4,0,1,,,,,0,,,70,63
65180,note_off,,,,,92,0,2,,,,,1,,,70,0
65180,note_off,,,,,92,0,3,,,,,2,,,70,0
65180,note_off,,,,,92,0,1,,,,,0,,,70,0
65184,note_on,,,,,4,0,1,,,,,0,,,68,63
65184,note_on,,,,,4,0,2,,,,,1,,,68,63
65184,note_on,,,,,4,0,3,,,,,2,,,68,108
65276,note_off,,,,,92,0,2,,,,,1,,,68,0
65276,note_off,,,,,92,0,3,,,,,2,,,68,0
65276,note_off,,,,,92,0,1,,,,,0,,,68,0
65280,note_on,,,,,4,0,2,,,,,1,,,67,63
65280,note_on,,,,,4,0,3,,,,,2,,,67,108
65280,note_on,,,,,4,0,1,,,,,0,,,67,63
65468,note_off,,,,,188,0,2,,,,,1,,,67,0
65468,note_off,,,,,188,0,1,,,,,0,,,67,0
65468,note_off,,,,,188,0,3,,,,,2,,,67,0
65472,note_on,,,,,4,0,3,,,,,2,,,65,108
65472,note_on,,,,,1024,0,5,,,,,4,,,58,92
65472,note_on,,,,,1024,0,4,,,,,3,,,62,127
65472,note_on,,,,,0,0,8,,,,,7,,,58,50
65472,note_on,,,,,0,0,8,,,,,7,,,62,50
65472,note_on,,,,,4,0,2,,,,,1,,,65,63
65472,note_on,,,,,4,0,1,,,,,0,,,65,63
65472,note_on,,,,,1024,0,6,,,,,5,,,46,92
65472,note_on,,,,,1024,0,7,,,,,6,,,34,75
65472,note_on,,,,,1024,0,9,,,,,8,,,46,50
65472,note_on,,,,,1024,0,8,,,,,7,,,53,50
65564,note_off,,,,,92,0,2,,,,,1,,,65,0
65564,note_off,,,,,92,0,3,,,,,2,,,65,0
65564,note_off,,,,,92,0,1,,,,,0,,,65,0
65568,note_on,,,,,4,0,3,,,,,2,,,67,108
65568,note_on,,,,,4,0,2,,,,,1,,,67,63
65568,note_on,,,,,4,0,1,,,,,0,,,67,63
65660,note_off,,,,,188,0,7,,,,,6,,,34,0
65660,note_off,,,,,92,0,2,,,,,1,,,67,0
65660,note_off,,,,,188,0,6,,,,,5,,,46,0
65660,note_off,,,,,188,0,9,,,,,8,,,46,0
65660,note_off,,,,,0,0,8,,,,,7,,,62,0
65660,note_off,,,,,0,0,8,,,,,7,,,58,0
65660,note_off,,,,,188,0,5,,,,,4,,,58,0
65660,note_off,,,,,188,0,8,,,,,7,,,53,0
65660,note_off,,,,,92,0,3,,,,,2,,,67,0
65660,note_off,,,,,188,0,4,,,,,3,,,62,0
65660,note_off,,,,,92,0,1,,,,,0,,,67,0
65664,note_on,,,,,4,0,8,,,,,7,,,55,50
65664,note_on,,,,,0,0,8,,,,,7,,,58,50
65664,note_on,,,,,0,0,8,,,,,7,,,63,50
65664,note_on,,,,,4,0,7,,,,,6,,,39,75
65664,note_on,,,,,4,0,9,,,,,8,,,51,50
65664,note_on,,,,,4,0,5,,,,,4,,,55,92
65664,note_on,,,,,4,0,6,,,,,5,,,51,92
65664,note_on,,,,,4,0,2,,,,,1,,,63,63
65664,note_on,,,,,4,0,1,,,,,0,,,63,63
65664,note_on,,,,,4,0,3,,,,,2,,,63,108
65664,note_on,,,,,4,0,4,,,,,3,,,58,127
65852,note_off,,,,,188,0,9,,,,,8,,,51,0
65852,note_off,,,,,188,0,6,,,,,5,,,51,0
65852,note_off,,,,,188,0,7,,,,,6,,,39,0
65856,note_on,,,,,4,0,6,,,,,5,,,46,92
65856,note_on,,,,,4,0,9,,,,,8,,,46,50
65856,note_on,,,,,4,0,7,,,,,6,,,34,75
65948,note_off,,,,,92,0,6,,,,,5,,,46,0
65948,note_off,,,,,92,0,7,,,,,6,,,34,0
65948,note_off,,,,,92,0,9,,,,,8,,,46,0
65952,note_on,,,,,4,0,7,,,,,6,,,32,75
65952,note_on,,,,,4,0,9,,,,,8,,,44,50
65952,note_on,,,,,4,0,6,,,,,5,,,44,92
65984,note_off,,,,,320,0,2,,,,,1,,,63,0
65984,note_off,,,,,320,0,1,,,,,0,,,63,0
65984,note_off,,,,,320,0,3,,,,,2,,,63,0
65984,note_off,,,,,0,0,8,,,,,7,,,58,0
65984,note_off,,,,,0,0,8,,,,,7,,,63,0
65984,note_off,,,,,320,0,5,,,,,4,,,55,0
65984,note_off,,,,,320,0,8,,,,,7,,,55,0
65984,note_off,,,,,320,0,4,,,,,3,,,58,0
66044,note_off,,,,,92,0,6,,,,,5,,,44,0
66044,note_off,,,,,92,0,9,,,,,8,,,44,0
66044,note_off,,,,,92,0,7,,,,,6,,,32,0
66048,note_on,,,,,4,0,9,,,,,8,,,43,50
66048,note_on,,,,,64,0,8,,,,,7,,,58,50
66048,note_on,,,,,0,0,8,,,,,7,,,63,50
66048,note_on,,,,,4,0,6,,,,,5,,,43,92
66048,note_on,,,,,4,0,7,,,,,6,,,31,75
66144,note_on,,,,,160,0,2,,,,,1,,,70,63
66144,note_on,,,,,160,0,1,,,,,0,,,70,63
66144,note_on,,,,,160,0,3,,,,,2,,,70,108
66236,note_off,,,,,0,0,8,,,,,7,,,63,0
66236,note_off,,,,,92,0,1,,,,,0,,,70,0
66236,note_off,,,,,92,0,2,,,,,1,,,70,0
66236,note_off,,,,,188,0,8,,,,,7,,,58,0
66236,note_off,,,,,188,0,9,,,,,8,,,43,0
66236,note_off,,,,,188,0,7,,,,,6,,,31,0
66236,note_off,,,,,188,0,6,,,,,5,,,43,0
66236,note_off,,,,,92,0,3,,,,,2,,,70,0
66240,note_on,,,,,4,0,3,,,,,2,,,68,108
66240,note_on,,,,,4,0,1,,,,,0,,,68,63
66240,note_on,,,,,0,0,8,,,,,7,,,62,50
66240,note_on,,,,,0,0,8,,,,,7,,,65,50
66240,note_on,,,,,4,0,2,,,,,1,,,68,63
66240,note_on,,,,,256,0,4,,,,,3,,,62,127
66240,note_on,,,,,256,0,5,,,,,4,,,56,92
66240,note_on,,,,,4,0,9,,,,,8,,,41,50
66240,note_on,,,,,4,0,8,,,,,7,,,56,50
66240,note_on,,,,,4,0,7,,,,,6,,,29,75
66240,note_on,,,,,4,0,6,,,,,5,,,41,92
66332,note_off,,,,,92,0,9,,,,,8,,,41,0
66332,note_off,,,,,92,0,3,,,,,2,,,68,0
66332,note_off,,,,,92,0,2,,,,,1,,,68,0
66332,note_off,,,,,92,0,7,,,,,6,,,29,0
66332,note_off,,,,,92,0,6,,,,,5,,,41,0
66332,note_off,,,,,92,0,1,,,,,0,,,68,0
66336,note_on,,,,,4,0,6,,,,,5,,,43,92
66336,note_on,,,,,4,0,3,,,,,2,,,70,108
66336,note_on,,,,,4,0,1,,,,,0,,,70,63
66336,note_on,,,,,4,0,2,,,,,1,,,70,63
66336,note_on,,,,,4,0,9,,,,,8,,,43,50
66336,note_on,,,,,4,0,7,,,,,6,,,31,75
66428,note_off,,,,,92,0,1,,,,,0,,,70,0
66428,note_off,,,,,188,0,8,,,,,7,,,56,0
66428,note_off,,,,,92,0,9,,,,,8,,,43,0
66428,note_off,,,,,92,0,2,,,,,1,,,70,0
66428,note_off,,,,,92,0,7,,,,,6,,,31,0
66428,note_off,,,,,92,0,6,,,,,5,,,43,0
66428,note_off,,,,,92,0,3,,,,,2,,,70,0
66428,note_off,,,,,0,0,8,,,,,7,,,62,0
66428,note_off,,,,,0,0,8,,,,,7,,,65,0
66428,note_off,,,,,188,0,5,,,,,4,,,56,0
66428,note_off,,,,,188,0,4,,,,,3,,,62,0
66432,note_on,,,,,4,0,7,,,,,6,,,27,75
66432,note_on,,,,,4,0,5,,,,,4,,,58,92
66432,note_on,,,,,4,0,9,,,,,8,,,39,50
66432,note_on,,,,,4,0,8,,,,,7,,,58,50
66432,note_on,,,,,4,0,2,,,,,1,,,67,63
66432,note_on,,,,,4,0,3,,,,,2,,,67,108
66432,note_on,,,,,4,0,4,,,,,3,,,63,127
66432,note_on,,,,,4,0,6,,,,,5,,,39,92
66432,note_on,,,,,0,0,8,,,,,7,,,67,50
66432,note_on,,,,,4,0,1,,,,,0,,,67,63
66432,note_on,,,,,0,0,8,,,,,7,,,63,50
66524,note_off,,,,,92,0,2,,,,,1,,,67,0
66524,note_off,,,,,92,0,3,,,,,2,,,67,0
66524,note_off,,,,,92,0,1,,,,,0,,,67,0
66528,note_on,,,,,4,0,1,,,,,0,,,68,63
66528,note_on,,,,,4,0,3,,,,,2,,,68,108
66528,note_on,,,,,4,0,2,,,,,1,,,68,63
66620,note_off,,,,,92,0,3,,,,,2,,,68,0
66620,note_off,,,,,92,0,2,,,,,1,,,68,0
66620,note_off,,,,,92,0,1,,,,,0,,,68,0
66624,note_on,,,,,4,0,2,,,,,1,,,70,63
66624,note_on,,,,,4,0,3,,,,,2,,,70,108
66624,note_on,,,,,4,0,1,,,,,0,,,70,63
66716,note_off,,,,,92,0,3,,,,,2,,,70,0
66716,note_off,,,,,92,0,1,,,,,0,,,70,0
66716,note_off,,,,,92,0,2,,,,,1,,,70,0
66720,note_on,,,,,4,0,3,,,,,2,,,72,108
66720,note_on,,,,,4,0,1,,,,,0,,,72,63
66720,note_on,,,,,4,0,2,,,,,1,,,72,63
66752,note_off,,,,,320,0,5,,,,,4,,,58,0
66752,note_off,,,,,0,0,8,,,,,7,,,63,0
66752,note_off,,,,,320,0,8,,,,,7,,,58,0
66752,note_off,,,,,320,0,9,,,,,8,,,39,0
66752,note_off,,,,,320,0,7,,,,,6,,,27,0
66752,note_off,,,,,320,0,4,,,,,3,,,63,0
66752,note_off,,,,,320,0,6,,,,,5,,,39,0
66752,note_off,,,,,0,0,8,,,,,7,,,67,0
66812,note_off,,,,,92,0,3,,,,,2,,,72,0
66812,note_off,,,,,92,0,2,,,,,1,,,72,0
66812,note_off,,,,,92,0,1,,,,,0,,,72,0
66816,note_on,,,,,4,0,2,,,,,1,,,73,63
66816,note_on,,,,,4,0,3,,,,,2,,,73,108
66816,note_on,,,,,4,0,1,,,,,0,,,73,63
67004,note_off,,,,,188,0,1,,,,,0,,,73,0
67004,note_off,,,,,188,0,2,,,,,1,,,73,0
67004,note_off,,,,,188,0,3,,,,,2,,,73,0
67008,note_on,,,,,0,0,8,,,,,7,,,63,50
67008,note_on,,,,,0,0,8,,,,,7,,,67,50
67008,note_on,,,,,4,0,3,,,,,2,,,73,108
67008,note_on,,,,,256,0,9,,,,,8,,,51,50
67008,note_on,,,,,256,0,5,,,,,4,,,67,92
67008,note_on,,,,,4,0,1,,,,,0,,,73,63
67008,note_on,,,,,256,0,7,,,,,6,,,39,75
67008,note_on,,,,,256,0,6,,,,,5,,,51,92
67008,note_on,,,,,256,0,4,,,,,3,,,70,127
67008,note_on,,,,,256,0,8,,,,,7,,,58,50
67008,note_on,,,,,4,0,2,,,,,1,,,73,63
67196,note_off,,,,,188,0,6,,,,,5,,,51,0
67196,note_off,,,,,188,0,8,,,,,7,,,58,0
67196,note_off,,,,,0,0,8,,,,,7,,,63,0
67196,note_off,,,,,0,0,8,,,,,7,,,67,0
67196,note_off,,,,,188,0,4,,,,,3,,,70,0
67196,note_off,,,,,188,0,9,,,,,8,,,51,0
67196,note_off,,,,,188,0,7,,,,,6,,,39,0
67196,note_off,,,,,188,0,1,,,,,0,,,73,0
67196,note_off,,,,,188,0,2,,,,,1,,,73,0
67196,note_off,,,,,188,0,5,,,,,4,,,67,0
67196,note_off,,,,,188,0,3,,,,,2,,,73,0
67200,note_on,,,,,4,0,9,,,,,8,,,56,50
67200,note_on,,,,,4,0,6,,,,,5,,,56,92
67200,note_on,,,,,4,0,8,,,,,7,,,60,50
67200,note_on,,,,,0,0,8,,,,,7,,,63,50
67200,note_on,,,,,4,0,2,,,,,1,,,73,63
67200,note_on,,,,,4,0,4,,,,,3,,,68,127
67200,note_on,,,,,4,0,7,,,,,6,,,44,75
67200,note_on,,,,,4,0,5,,,,,4,,,63,92
67200,note_on,,,,,4,0,3,,,,,2,,,73,108
67200,note_on,,,,,0,0,8,,,,,7,,,68,50
67200,note_on,,,,,4,0,1,,,,,0,,,73,63
67388,note_off,,,,,188,0,1,,,,,0,,,73,0
67388,note_off,,,,,188,0,2,,,,,1,,,73,0
67388,note_off,,,,,188,0,9,,,,,8,,,56,0
67388,note_off,,,,,188,0,3,,,,,2,,,73,0
67388,note_off,,,,,188,0,7,,,,,6,,,44,0
67388,note_off,,,,,188,0,6,,,,,5,,,56,0
67392,note_on,,,,,4,0,1,,,,,0,,,72,63
67392,note_on,,,,,4,0,2,,,,,1,,,72,63
67392,note_on,,,,,4,0,9,,,,,8,,,51,50
67392,note_on,,,,,4,0,3,,,,,2,,,72,108
67392,note_on,,,,,4,0,7,,,,,6,,,39,75
67392,note_on,,,,,4,0,6,,,,,5,,,51,92
67484,note_off,,,,,92,0,9,,,,,8,,,51,0
67484,note_off,,,,,92,0,7,,,,,6,,,39,0
67484,note_off,,,,,92,0,6,,,,,5,,,51,0
67488,note_on,,,,,4,0,9,,,,,8,,,49,50
67488,note_on,,,,,4,0,6,,,,,5,,,49,92
67488,note_on,,,,,4,0,7,,,,,6,,,37,75
67520,note_off,,,,,320,0,5,,,,,4,,,63,0
67520,note_off,,,,,0,0,8,,,,,7,,,63,0
67520,note_off,,,,,320,0,8,,,,,7,,,60,0
67520,note_off,,,,,0,0,8,,,,,7,,,68,0
67520,note_off,,,,,320,0,4,,,,,3,,,68,0
67580,note_off,,,,,92,0,7,,,,,6,,,37,0
67580,note_off,,,,,188,0,1,,,,,0,,,72,0
67580,note_off,,,,,92,0,6,,,,,5,,,49,0
67580,note_off,,,,,188,0,2,,,,,1,,,72,0
67580,note_off,,,,,92,0,9,,,,,8,,,49,0
67580,note_off,,,,,188,0,3,,,,,2,,,72,0
67584,note_on,,,,,4,0,6,,,,,5,,,48,92
67584,note_on,,,,,0,0,8,,,,,7,,,63,50
67584,note_on,,,,,4,0,7,,,,,6,,,36,75
67584,note_on,,,,,4,0,9,,,,,8,,,48,50
67584,note_on,,,,,64,0,8,,,,,7,,,56,50
67772,note_off,,,,,188,0,8,,,,,7,,,56,0
67772,note_off,,,,,0,0,8,,,,,7,,,63,0
67772,note_off,,,,,188,0,7,,,,,6,,,36,0
67772,note_off,,,,,188,0,6,,,,,5,,,48,0
67772,note_off,,,,,188,0,9,,,,,8,,,48,0
67776,note_on,,,,,196,0,1,,,,,0,,,75,63
67776,note_on,,,,,4,0,8,,,,,7,,,60,50
67776,note_on,,,,,0,0,8,,,,,7,,,63,50
67776,note_on,,,,,0,0,8,,,,,7,,,68,50
67776,note_on,,,,,256,0,4,,,,,3,,,72,127
67776,note_on,,,,,4,0,9,,,,,8,,,46,50
67776,note_on,,,,,256,0,5,,,,,4,,,68,92
67776,note_on,,,,,196,0,3,,,,,2,,,75,108
67776,note_on,,,,,196,0,2,,,,,1,,,75,63
67776,note_on,,,,,4,0,6,,,,,5,,,46,92
67776,note_on,,,,,4,0,7,,,,,6,,,34,75
67868,note_off,,,,,92,0,6,,,,,5,,,46,0
67868,note_off,,,,,92,0,7,,,,,6,,,34,0
67868,note_off,,,,,92,0,9,,,,,8,,,46,0
67872,note_on,,,,,4,0,6,,,,,5,,,48,92
67872,note_on,,,,,4,0,9,,,,,8,,,48,50
67872,note_on,,,,,4,0,7,,,,,6,,,36,75
67964,note_off,,,,,0,0,8,,,,,7,,,68,0
67964,note_off,,,,,92,0,6,,,,,5,,,48,0
67964,note_off,,,,,188,0,4,,,,,3,,,72,0
67964,note_off,,,,,92,0,7,,,,,6,,,36,0
67964,note_off,,,,,92,0,9,,,,,8,,,48,0
67964,note_off,,,,,0,0,8,,,,,7,,,63,0
67964,note_off,,,,,188,0,8,,,,,7,,,60,0
67964,note_off,,,,,188,0,2,,,,,1,,,75,0
67964,note_off,,,,,188,0,3,,,,,2,,,75,0
67964,note_off,,,,,188,0,5,,,,,4,,,68,0
67964,note_off,,,,,188,0,1,,,,,0,,,75,0
67968,note_on,,,,,0,0,8,,,,,7,,,68,50
67968,note_on,,,,,4,0,8,,,,,7,,,63,50
67968,note_on,,,,,4,0,4,,,,,3,,,75,127
67968,note_on,,,,,4,0,9,,,,,8,,,44,50
67968,note_on,,,,,4,0,7,,,,,6,,,32,75
67968,note_on,,,,,4,0,2,,,,,1,,,80,63
67968,note_on,,,,,0,0,8,,,,,7,,,72,50
67968,note_on,,,,,4,0,5,,,,,4,,,72,92
67968,note_on,,,,,4,0,3,,,,,2,,,80,108
67968,note_on,,,,,4,0,6,,,,,5,,,44,92
67968,note_on,,,,,4,0,1,,,,,0,,,80,63
68156,note_off,,,,,188,0,3,,,,,2,,,80,0
68156,note_off,,,,,188,0,2,,,,,1,,,80,0
68156,note_off,,,,,188,0,1,,,,,0,,,80,0
68160,note_on,,,,,4,0,3,,,,,2,,,75,108
68160,note_on,,,,,4,0,1,,,,,0,,,75,63
68160,note_on,,,,,4,0,2,,,,,1,,,75,63
68252,note_off,,,,,92,0,3,,,,,2,,,75,0
68252,note_off,,,,,92,0,1,,,,,0,,,75,0
68252,note_off,,,,,92,0,2,,,,,1,,,75,0
68256,note_on,,,,,4,0,1,,,,,0,,,73,63
68256,note_on,,,,,4,0,3,,,,,2,,,73,108
68256,note_on,,,,,4,0,2,,,,,1,,,73,63
68288,note_off,,,,,0,0,8,,,,,7,,,68,0
68288,note_off,,,,,320,0,7,,,,,6,,,32,0
68288,note_off,,,,,320,0,6,,,,,5,,,44,0
68288,note_off,,,,,320,0,8,,,,,7,,,63,0
68288,note_off,,,,,320,0,9,,,,,8,,,44,0
68288,note_off,,,,,0,0,8,,,,,7,,,72,0
68288,note_off,,,,,320,0,5,,,,,4,,,72,0
68288,note_off,,,,,320,0,4,,,,,3,,,75,0
68348,note_off,,,,,92,0,3,,,,,2,,,73,0
68348,note_off,,,,,92,0,1,,,,,0,,,73,0
68348,note_off,,,,,92,0,2,,,,,1,,,73,0
68352,note_on,,,,,4,0,1,,,,,0,,,72,63
68352,note_on,,,,,4,0,3,,,,,2,,,72,108
68352,note_on,,,,,4,0,2,,,,,1,,,72,63
68540,note_off,,,,,188,0,3,,,,,2,,,72,0
68540,note_off,,,,,188,0,2,,,,,1,,,72,0
68540,note_off,,,,,188,0,1,,,,,0,,,72,0
68544,note_on,,,,,256,0,6,,,,,5,,,56,92
68544,note_on,,,,,256,0,7,,,,,6,,,44,75
68544,note_on,,,,,4,0,2,,,,,1,,,70,63
68544,note_on,,,,,4,0,3,,,,,2,,,70,108
68544,note_on,,,,,256,0,9,,,,,8,,,56,50
68544,note_on,,,,,4,0,1,,,,,0,,,70,63
68544,note_on,,,,,256,0,5,,,,,4,,,60,92
68544,note_on,,,,,0,0,8,,,,,7,,,68,50
68544,note_on,,,,,0,0,8,,,,,7,,,63,50
68544,note_on,,,,,256,0,8,,,,,7,,,60,50
68544,note_on,,,,,256,0,4,,,,,3,,,63,127
68636,note_off,,,,,92,0,3,,,,,2,,,70,0
68636,note_off,,,,,92,0,1,,,,,0,,,70,0
68636,note_off,,,,,92,0,2,,,,,1,,,70,0
68640,note_on,,,,,4,0,3,,,,,2,,,72,108
68640,note_on,,,,,4,0,1,,,,,0,,,72,63
68640,note_on,,,,,4,0,2,,,,,1,,,72,63
68732,note_off,,,,,0,0,8,,,,,7,,,68,0
68732,note_off,,,,,92,0,1,,,,,0,,,72,0
68732,note_off,,,,,188,0,6,,,,,5,,,56,0
68732,note_off,,,,,92,0,2,,,,,1,,,72,0
68732,note_off,,,,,188,0,7,,,,,6,,,44,0
68732,note_off,,,,,92,0,3,,,,,2,,,72,0
68732,note_off,,,,,0,0,8,,,,,7,,,63,0
68732,note_off,,,,,188,0,8,,,,,7,,,60,0
68732,note_off,,,,,188,0,4,,,,,3,,,63,0
68732,note_off,,,,,188,0,9,,,,,8,,,56,0
68732,note_off,,,,,188,0,5,,,,,4,,,60,0
68736,note_on,,,,,4,0,2,,,,,1,,,68,63
68736,note_on,,,,,4,0,6,,,,,5,,,53,92
68736,note_on,,,,,4,0,5,,,,,4,,,60,92
68736,note_on,,,,,0,0,8,,,,,7,,,68,50
68736,note_on,,,,,4,0,3,,,,,2,,,68,108
68736,note_on,,,,,0,0,8,,,,,7,,,65,50
68736,note_on,,,,,4,0,1,,,,,0,,,68,63
68736,note_on,,,,,4,0,7,,,,,6,,,41,75
68736,note_on,,,,,4,0,9,,,,,8,,,53,50
68736,note_on,,,,,4,0,4,,,,,3,,,68,127
68736,note_on,,,,,4,0,8,,,,,7,,,60,50
68924,note_off,,,,,188,0,4,,,,,3,,,68,0
68924,note_off,,,,,188,0,9,,,,,8,,,53,0
68924,note_off,,,,,188,0,8,,,,,7,,,68,0
68924,note_off,,,,,188,0,6,,,,,5,,,53,0
68924,note_off,,,,,188,0,7,,,,,6,,,41,0
68928,note_on,,,,,4,0,8,,,,,7,,,70,50
68928,note_on,,,,,4,0,7,,,,,6,,,43,75
68928,note_on,,,,,4,0,4,,,,,3,,,70,127
68928,note_on,,,,,4,0,6,,,,,5,,,55,92
68928,note_on,,,,,4,0,9,,,,,8,,,55,50
69056,note_off,,,,,320,0,5,,,,,4,,,60,0
69056,note_off,,,,,320,0,1,,,,,0,,,68,0
69056,note_off,,,,,320,0,2,,,,,1,,,68,0
69056,note_off,,,,,320,0,3,,,,,2,,,68,0
69116,note_off,,,,,188,0,6,,,,,5,,,55,0
69116,note_off,,,,,188,0,9,,,,,8,,,55,0
69116,note_off,,,,,188,0,4,,,,,3,,,70,0
69116,note_off,,,,,188,0,7,,,,,6,,,43,0
69116,note_off,,,,,188,0,8,,,,,7,,,70,0
69120,note_on,,,,,4,0,6,,,,,5,,,56,92
69120,note_on,,,,,4,0,9,,,,,8,,,56,50
69120,note_on,,,,,4,0,7,,,,,6,,,44,75
69120,note_on,,,,,4,0,8,,,,,7,,,72,50
69120,note_on,,,,,4,0,4,,,,,3,,,72,127
69248,note_off,,,,,0,0,8,,,,,7,,,65,0
69248,note_off,,,,,128,0,8,,,,,7,,,60,0
69308,note_off,,,,,188,0,4,,,,,3,,,72,0
69308,note_off,,,,,188,0,7,,,,,6,,,44,0
69308,note_off,,,,,188,0,6,,,,,5,,,56,0
69308,note_off,,,,,188,0,9,,,,,8,,,56,0
69308,note_off,,,,,60,0,8,,,,,7,,,72,0
69312,note_on,,,,,256,0,3,,,,,2,,,80,108
69312,note_on,,,,,256,0,1,,,,,0,,,80,63
69312,note_on,,,,,256,0,2,,,,,1,,,80,63
69312,note_on,,,,,4,0,9,,,,,8,,,53,50
69312,note_on,,,,,4,0,8,,,,,7,,,65,50
69312,note_on,,,,,0,0,8,,,,,7,,,68,50
69312,note_on,,,,,4,0,4,,,,,3,,,68,127
69312,note_on,,,,,4,0,7,,,,,6,,,41,75
69312,note_on,,,,,0,0,8,,,,,7,,,72,50
69312,note_on,,,,,256,0,5,,,,,4,,,65,92
69312,note_on,,,,,4,0,6,,,,,5,,,53,92
69500,note_off,,,,,188,0,9,,,,,8,,,53,0
69500,note_off,,,,,188,0,7,,,,,6,,,41,0
69500,note_off,,,,,0,0,8,,,,,7,,,72,0
69500,note_off,,,,,188,0,5,,,,,4,,,65,0
69500,note_off,,,,,188,0,3,,,,,2,,,80,0
69500,note_off,,,,,0,0,8,,,,,7,,,68,0
69500,note_off,,,,,188,0,8,,,,,7,,,65,0
69500,note_off,,,,,188,0,4,,,,,3,,,68,0
69500,note_off,,,,,188,0,2,,,,,1,,,80,0
69500,note_off,,,,,188,0,1,,,,,0,,,80,0
69500,note_off,,,,,188,0,6,,,,,5,,,53,0
69504,note_on,,,,,4,0,8,,,,,7,,,61,50
69504,note_on,,,,,0,0,8,,,,,7,,,66,50
69504,note_on,,,,,4,0,7,,,,,6,,,46,75
69504,note_on,,,,,4,0,3,,,,,2,,,78,108
69504,note_on,,,,,4,0,6,,,,,5,,,58,92
69504,note_on,,,,,4,0,5,,,,,4,,,70,92
69504,note_on,,,,,4,0,1,,,,,0,,,78,63
69504,note_on,,,,,4,0,4,,,,,3,,,73,127
69504,note_on,,,,,4,0,2,,,,,1,,,78,63
69504,note_on,,,,,0,0,8,,,,,7,,,73,50
69504,note_on,,,,,4,0,9,,,,,8,,,58,50
69692,note_off,,,,,188,0,1,,,,,0,,,78,0
69692,note_off,,,,,188,0,2,,,,,1,,,78,0
69692,note_off,,,,,188,0,3,,,,,2,,,78,0
69696,note_on,,,,,4,0,1,,,,,0,,,80,63
69696,note_on,,,,,4,0,3,,,,,2,,,80,108
69696,note_on,,,,,4,0,2,,,,,1,,,80,63
69824,note_off,,,,,0,0,8,,,,,7,,,66,0
69824,note_off,,,,,320,0,9,,,,,8,,,58,0
69824,note_off,,,,,320,0,4,,,,,3,,,73,0
69824,note_off,,,,,320,0,5,,,,,4,,,70,0
69824,note_off,,,,,0,0,8,,,,,7,,,73,0
69824,note_off,,,,,320,0,6,,,,,5,,,58,0
69824,note_off,,,,,320,0,7,,,,,6,,,46,0
69824,note_off,,,,,320,0,8,,,,,7,,,61,0
69884,note_off,,,,,188,0,2,,,,,1,,,80,0
69884,note_off,,,,,188,0,1,,,,,0,,,80,0
69884,note_off,,,,,188,0,3,,,,,2,,,80,0
69888,note_on,,,,,64,0,9,,,,,8,,,60,50
69888,note_on,,,,,0,0,8,,,,,7,,,72,50
69888,note_on,,,,,0,0,8,,,,,7,,,68,50
69888,note_on,,,,,4,0,1,,,,,0,,,77,63
69888,note_on,,,,,64,0,4,,,,,3,,,72,127
69888,note_on,,,,,64,0,8,,,,,7,,,65,50
69888,note_on,,,,,4,0,2,,,,,1,,,77,63
69888,note_on,,,,,4,0,3,,,,,2,,,77,108
69888,note_on,,,,,64,0,6,,,,,5,,,60,92
69888,note_on,,,,,64,0,7,,,,,6,,,48,75
69888,note_on,,,,,64,0,5,,,,,4,,,68,92
70076,note_off,,,,,188,0,5,,,,,4,,,68,0
70076,note_off,,,,,188,0,2,,,,,1,,,77,0
70076,note_off,,,,,188,0,3,,,,,2,,,77,0
70076,note_off,,,,,188,0,8,,,,,7,,,65,0
70076,note_off,,,,,0,0,8,,,,,7,,,68,0
70076,note_off,,,,,188,0,1,,,,,0,,,77,0
70080,note_on,,,,,4,0,5,,,,,4,,,67,92
70080,note_on,,,,,4,0,2,,,,,1,,,76,63
70080,note_on,,,,,4,0,3,,,,,2,,,76,108
70080,note_on,,,,,4,0,8,,,,,7,,,65,50
70080,note_on,,,,,4,0,1,,,,,0,,,76,63
70208,note_off,,,,,320,0,9,,,,,8,,,60,0
70208,note_off,,,,,320,0,7,,,,,6,,,48,0
70208,note_off,,,,,320,0,6,,,,,5,,,60,0
70208,note_off,,,,,320,0,4,,,,,3,,,72,0
70268,note_off,,,,,188,0,1,,,,,0,,,76,0
70268,note_off,,,,,188,0,3,,,,,2,,,76,0
70268,note_off,,,,,188,0,2,,,,,1,,,76,0
70268,note_off,,,,,188,0,5,,,,,4,,,67,0
70272,note_on,,,,,64,0,6,,,,,5,,,61,92
70272,note_on,,,,,4,0,1,,,,,0,,,77,63
70272,note_on,,,,,64,0,9,,,,,8,,,61,50
70272,note_on,,,,,64,0,7,,,,,6,,,49,75
70272,note_on,,,,,64,0,4,,,,,3,,,72,127
70272,note_on,,,,,4,0,5,,,,,4,,,68,92
70272,note_on,,,,,4,0,3,,,,,2,,,77,108
70272,note_on,,,,,4,0,2,,,,,1,,,77,63
70364,note_off,,,,,92,0,2,,,,,1,,,77,0
70364,note_off,,,,,92,0,3,,,,,2,,,77,0
70364,note_off,,,,,92,0,1,,,,,0,,,77,0
70368,note_on,,,,,4,0,2,,,,,1,,,76,63
70368,note_on,,,,,4,0,3,,,,,2,,,76,108
70368,note_on,,,,,4,0,1,,,,,0,,,76,63
70400,note_off,,,,,0,0,8,,,,,7,,,65,0
70400,note_off,,,,,320,0,8,,,,,7,,,72,0
70460,note_off,,,,,188,0,5,,,,,4,,,68,0
70460,note_off,,,,,92,0,3,,,,,2,,,76,0
70460,note_off,,,,,188,0,4,,,,,3,,,72,0
70460,note_off,,,,,92,0,1,,,,,0,,,76,0
70460,note_off,,,,,92,0,2,,,,,1,,,76,0
70464,note_on,,,,,64,0,8,,,,,7,,,70,50
70464,note_on,,,,,4,0,2,,,,,1,,,77,63
70464,note_on,,,,,4,0,5,,,,,4,,,65,92
70464,note_on,,,,,4,0,1,,,,,0,,,77,63
70464,note_on,,,,,4,0,4,,,,,3,,,70,127
70464,note_on,,,,,4,0,3,,,,,2,,,77,108
70592,note_off,,,,,320,0,7,,,,,6,,,49,0
70592,note_off,,,,,320,0,6,,,,,5,,,61,0
70592,note_off,,,,,320,0,9,,,,,8,,,61,0
70652,note_off,,,,,188,0,8,,,,,7,,,70,0
70652,note_off,,,,,188,0,5,,,,,4,,,65,0
70652,note_off,,,,,188,0,4,,,,,3,,,70,0
70656,note_on,,,,,4,0,4,,,,,3,,,72,127
70656,note_on,,,,,64,0,9,,,,,8,,,44,50
70656,note_on,,,,,0,0,8,,,,,7,,,72,50
70656,note_on,,,,,4,0,8,,,,,7,,,65,50
70656,note_on,,,,,64,0,7,,,,,6,,,32,75
70656,note_on,,,,,4,0,5,,,,,4,,,60,92
70656,note_on,,,,,64,0,6,,,,,5,,,44,92
70784,note_off,,,,,320,0,2,,,,,1,,,77,0
70784,note_off,,,,,320,0,3,,,,,2,,,77,0
70784,note_off,,,,,320,0,1,,,,,0,,,77,0
70844,note_off,,,,,188,0,8,,,,,7,,,65,0
70844,note_off,,,,,0,0,8,,,,,7,,,72,0
70848,note_on,,,,,64,0,1,,,,,0,,,65,63
70848,note_on,,,,,4,0,8,,,,,7,,,60,50
70848,note_on,,,,,64,0,2,,,,,1,,,65,63
70848,note_on,,,,,64,0,3,,,,,2,,,65,108
70848,note_on,,,,,0,0,8,,,,,7,,,65,50
70976,note_off,,,,,320,0,4,,,,,3,,,72,0
70976,note_off,,,,,320,0,9,,,,,8,,,44,0
70976,note_off,,,,,320,0,6,,,,,5,,,44,0
70976,note_off,,,,,320,0,5,,,,,4,,,60,0
70976,note_off,,,,,320,0,7,,,,,6,,,32,0
71036,note_off,,,,,188,0,8,,,,,7,,,60,0
71036,note_off,,,,,0,0,8,,,,,7,,,65,0
71036,note_off,,,,,188,0,2,,,,,1,,,65,0
71036,note_off,,,,,188,0,1,,,,,0,,,65,0
71036,note_off,,,,,188,0,3,,,,,2,,,65,0
71040,note_on,,,,,64,0,4,,,,,3,,,61,127
71040,note_on,,,,,4,0,1,,,,,0,,,66,63
71040,note_on,,,,,64,0,5,,,,,4,,,58,92
71040,note_on,,,,,4,0,3,,,,,2,,,66,108
71040,note_on,,,,,4,0,2,,,,,1,,,66,63
71040,note_on,,,,,64,0,9,,,,,8,,,46,50
71040,note_on,,,,,64,0,7,,,,,6,,,34,75
71040,note_on,,,,,64,0,6,,,,,5,,,46,92
71040,note_on,,,,,4,0,8,,,,,7,,,62,50
71040,note_on,,,,,0,0,8,,,,,7,,,66,50
71228,note_off,,,,,188,0,2,,,,,1,,,66,0
71228,note_off,,,,,188,0,1,,,,,0,,,66,0
71228,note_off,,,,,188,0,8,,,,,7,,,66,0
71228,note_off,,,,,188,0,3,,,,,2,,,66,0
71232,note_on,,,,,4,0,1,,,,,0,,,67,63
71232,note_on,,,,,4,0,8,,,,,7,,,67,50
71232,note_on,,,,,4,0,3,,,,,2,,,67,108
71232,note_on,,,,,4,0,2,,,,,1,,,67,63
71360,note_off,,,,,320,0,4,,,,,3,,,61,0
71360,note_off,,,,,320,0,9,,,,,8,,,46,0
71360,note_off,,,,,128,0,8,,,,,7,,,62,0
71360,note_off,,,,,320,0,6,,,,,5,,,46,0
71360,note_off,,,,,320,0,7,,,,,6,,,34,0
71360,note_off,,,,,320,0,5,,,,,4,,,58,0
71420,note_off,,,,,60,0,8,,,,,7,,,67,0
71424,note_on,,,,,64,0,5,,,,,4,,,63,92
71424,note_on,,,,,64,0,4,,,,,3,,,63,127
71424,note_on,,,,,4,0,8,,,,,7,,,63,50
71424,note_on,,,,,64,0,6,,,,,5,,,48,92
71424,note_on,,,,,64,0,9,,,,,8,,,48,50
71424,note_on,,,,,64,0,7,,,,,6,,,36,75
71552,note_off,,,,,320,0,2,,,,,1,,,67,0
71552,note_off,,,,,320,0,1,,,,,0,,,67,0
71552,note_off,,,,,320,0,3,,,,,2,,,67,0
71616,note_on,,,,,64,0,2,,,,,1,,,69,63
71616,note_on,,,,,192,0,8,,,,,7,,,69,50
71616,note_on,,,,,64,0,1,,,,,0,,,69,63
71616,note_on,,,,,64,0,3,,,,,2,,,69,108
71744,note_off,,,,,320,0,5,,,,,4,,,63,0
71744,note_off,,,,,320,0,9,,,,,8,,,48,0
71744,note_off,,,,,320,0,4,,,,,3,,,63,0
71744,note_off,,,,,320,0,6,,,,,5,,,48,0
71744,note_off,,,,,320,0,7,,,,,6,,,36,0
71804,note_off,,,,,188,0,3,,,,,2,,,69,0
71804,note_off,,,,,188,0,2,,,,,1,,,69,0
71804,note_off,,,,,188,0,1,,,,,0,,,69,0
71804,note_off,,,,,188,0,8,,,,,7,,,63,0
71804,note_off,,,,,0,0,8,,,,,7,,,69,0
71808,note_on,,,,,64,0,9,,,,,8,,,49,50
71808,note_on,,,,,4,0,8,,,,,7,,,65,50
71808,note_on,,,,,4,0,1,,,,,0,,,70,63
71808,note_on,,,,,64,0,4,,,,,3,,,65,127
71808,note_on,,,,,4,0,2,,,,,1,,,70,63
71808,note_on,,,,,64,0,5,,,,,4,,,61,92
71808,note_on,,,,,4,0,3,,,,,2,,,70,108
71808,note_on,,,,,64,0,7,,,,,6,,,37,75
71808,note_on,,,,,0,0,8,,,,,7,,,70,50
71808,note_on,,,,,64,0,6,,,,,5,,,49,92
71996,note_off,,,,,188,0,8,,,,,7,,,70,0
71996,note_off,,,,,188,0,1,,,,,0,,,70,0
71996,note_off,,,,,188,0,2,,,,,1,,,70,0
71996,note_off,,,,,188,0,3,,,,,2,,,70,0
72000,note_on,,,,,4,0,1,,,,,0,,,71,63
72000,note_on,,,,,4,0,2,,,,,1,,,71,63
72000,note_on,,,,,4,0,8,,,,,7,,,71,50
72000,note_on,,,,,4,0,3,,,,,2,,,71,108
72128,note_off,,,,,320,0,9,,,,,8,,,49,0
72128,note_off,,,,,320,0,7,,,,,6,,,37,0
72128,note_off,,,,,128,0,8,,,,,7,,,65,0
72128,note_off,,,,,320,0,5,,,,,4,,,61,0
72128,note_off,,,,,320,0,6,,,,,5,,,49,0
72192,note_on,,,,,64,0,6,,,,,5,,,51,92
72192,note_on,,,,,64,0,7,,,,,6,,,39,75
72192,note_off,,,,,64,0,8,,,,,7,,,71,0
72192,note_on,,,,,0,0,8,,,,,7,,,62,50
72192,note_on,,,,,0,0,8,,,,,7,,,65,50
72192,note_on,,,,,0,0,8,,,,,7,,,71,50
72192,note_on,,,,,64,0,5,,,,,4,,,65,92
72192,note_on,,,,,64,0,9,,,,,8,,,51,50
72320,note_off,,,,,320,0,2,,,,,1,,,71,0
72320,note_off,,,,,320,0,1,,,,,0,,,71,0
72320,note_off,,,,,512,0,4,,,,,3,,,65,0
72320,note_off,,,,,320,0,3,,,,,2,,,71,0
72384,note_on,,,,,64,0,4,,,,,3,,,65,127
72384,note_on,,,,,64,0,1,,,,,0,,,72,63
72384,note_on,,,,,64,0,2,,,,,1,,,72,63
72384,note_on,,,,,64,0,3,,,,,2,,,72,108
72476,note_off,,,,,92,0,1,,,,,0,,,72,0
72476,note_off,,,,,92,0,3,,,,,2,,,72,0
72476,note_off,,,,,92,0,2,,,,,1,,,72,0
72480,note_on,,,,,4,0,1,,,,,0,,,71,63
72480,note_on,,,,,4,0,3,,,,,2,,,71,108
72480,note_on,,,,,4,0,2,,,,,1,,,71,63
72512,note_off,,,,,0,0,8,,,,,7,,,71,0
72512,note_off,,,,,320,0,9,,,,,8,,,51,0
72512,note_off,,,,,320,0,5,,,,,4,,,65,0
72512,note_off,,,,,0,0,8,,,,,7,,,65,0
72512,note_off,,,,,320,0,8,,,,,7,,,62,0
72512,note_off,,,,,320,0,6,,,,,5,,,51,0
72512,note_off,,,,,320,0,7,,,,,6,,,39,0
72572,note_off,,,,,92,0,2,,,,,1,,,71,0
72572,note_off,,,,,92,0,3,,,,,2,,,71,0
72572,note_off,,,,,188,0,4,,,,,3,,,65,0
72572,note_off,,,,,92,0,1,,,,,0,,,71,0
72576,note_on,,,,,64,0,5,,,,,4,,,64,92
72576,note_on,,,,,4,0,2,,,,,1,,,72,63
72576,note_on,,,,,64,0,6,,,,,5,,,52,92
72576,note_on,,,,,64,0,8,,,,,7,,,60,50
72576,note_on,,,,,4,0,3,,,,,2,,,72,108
72576,note_on,,,,,4,0,4,,,,,3,,,67,127
72576,note_on,,,,,64,0,7,,,,,6,,,40,75
72576,note_on,,,,,0,0,8,,,,,7,,,67,50
72576,note_on,,,,,0,0,8,,,,,7,,,72,50
72576,note_on,,,,,4,0,1,,,,,0,,,72,63
72576,note_on,,,,,64,0,9,,,,,8,,,52,50
72668,note_off,,,,,92,0,2,,,,,1,,,72,0
72668,note_off,,,,,92,0,1,,,,,0,,,72,0
72668,note_off,,,,,92,0,3,,,,,2,,,72,0
72672,note_on,,,,,4,0,2,,,,,1,,,67,63
72672,note_on,,,,,4,0,3,,,,,2,,,67,108
72672,note_on,,,,,4,0,1,,,,,0,,,67,63
72764,note_off,,,,,92,0,1,,,,,0,,,67,0
72764,note_off,,,,,92,0,2,,,,,1,,,67,0
72764,note_off,,,,,188,0,6,,,,,5,,,52,0
72764,note_off,,,,,188,0,9,,,,,8,,,52,0
72764,note_off,,,,,188,0,8,,,,,7,,,60,0
72764,note_off,,,,,188,0,7,,,,,6,,,40,0
72764,note_off,,,,,0,0,8,,,,,7,,,72,0
72764,note_off,,,,,0,0,8,,,,,7,,,67,0
72764,note_off,,,,,188,0,5,,,,,4,,,64,0
72764,note_off,,,,,92,0,3,,,,,2,,,67,0
72764,note_off,,,,,188,0,4,,,,,3,,,67,0
72768,note_on,,,,,0,0,8,,,,,7,,,65,50
72768,note_on,,,,,4,0,8,,,,,7,,,60,50
72768,note_on,,,,,4,0,1,,,,,0,,,68,63
72768,note_on,,,,,4,0,4,,,,,3,,,65,127
72768,note_on,,,,,4,0,9,,,,,8,,,53,50
72768,note_on,,,,,4,0,2,,,,,1,,,68,63
72768,note_on,,,,,4,0,6,,,,,5,,,53,92
72768,note_on,,,,,4,0,5,,,,,4,,,60,92
72768,note_on,,,,,4,0,7,,,,,6,,,41,75
72768,note_on,,,,,4,0,3,,,,,2,,,68,108
72768,note_on,,,,,0,0,8,,,,,7,,,68,50
72860,note_off,,,,,92,0,2,,,,,1,,,68,0
72860,note_off,,,,,92,0,3,,,,,2,,,68,0
72860,note_off,,,,,92,0,1,,,,,0,,,68,0
72864,note_on,,,,,4,0,1,,,,,0,,,65,63
72864,note_on,,,,,4,0,2,,,,,1,,,65,63
72864,note_on,,,,,4,0,3,,,,,2,,,65,108
72956,note_off,,,,,188,0,9,,,,,8,,,53,0
72956,note_off,,,,,188,0,5,,,,,4,,,60,0
72956,note_off,,,,,188,0,4,,,,,3,,,65,0
72956,note_off,,,,,188,0,8,,,,,7,,,60,0
72956,note_off,,,,,0,0,8,,,,,7,,,68,0
72956,note_off,,,,,0,0,8,,,,,7,,,65,0
72956,note_off,,,,,188,0,6,,,,,5,,,53,0
72956,note_off,,,,,92,0,2,,,,,1,,,65,0
72956,note_off,,,,,92,0,3,,,,,2,,,65,0
72956,note_off,,,,,188,0,7,,,,,6,,,41,0
72956,note_off,,,,,92,0,1,,,,,0,,,65,0
72960,note_on,,,,,4,0,1,,,,,0,,,55,63
72960,note_on,,,,,4,0,9,,,,,8,,,60,50
72960,note_on,,,,,4,0,3,,,,,2,,,55,108
72960,note_on,,,,,4,0,6,,,,,5,,,60,92
72960,note_on,,,,,4,0,5,,,,,4,,,60,92
72960,note_on,,,,,4,0,8,,,,,7,,,65,50
72960,note_on,,,,,4,0,7,,,,,6,,,48,75
72960,note_on,,,,,4,0,4,,,,,3,,,65,127
72960,note_on,,,,,0,0,8,,,,,7,,,67,50
72960,note_on,,,,,4,0,2,,,,,1,,,55,63
73148,note_off,,,,,188,0,7,,,,,6,,,48,0
73148,note_off,,,,,188,0,2,,,,,1,,,55,0
73148,note_off,,,,,188,0,6,,,,,5,,,60,0
73148,note_off,,,,,188,0,1,,,,,0,,,55,0
73148,note_off,,,,,188,0,3,,,,,2,,,55,0
73148,note_off,,,,,188,0,5,,,,,4,,,60,0
73148,note_off,,,,,188,0,8,,,,,7,,,65,0
73148,note_off,,,,,188,0,9,,,,,8,,,60,0
73148,note_off,,,,,188,0,4,,,,,3,,,65,0
73152,note_on,,,,,4,0,8,,,,,7,,,64,50
73152,note_on,,,,,4,0,4,,,,,3,,,64,127
73152,note_on,,,,,4,0,2,,,,,1,,,64,63
73152,note_on,,,,,4,0,1,,,,,0,,,64,63
73152,note_on,,,,,4,0,6,,,,,5,,,48,92
73152,note_on,,,,,4,0,5,,,,,4,,,58,92
73152,note_on,,,,,4,0,7,,,,,6,,,36,75
73152,note_on,,,,,4,0,9,,,,,8,,,48,50
73152,note_on,,,,,4,0,3,,,,,2,,,64,108
73340,note_off,,,,,188,0,8,,,,,7,,,67,0
73340,note_off,,,,,0,0,8,,,,,7,,,64,0
73340,note_off,,,,,188,0,9,,,,,8,,,48,0
73340,note_off,,,,,188,0,1,,,,,0,,,64,0
73340,note_off,,,,,188,0,7,,,,,6,,,36,0
73340,note_off,,,,,188,0,6,,,,,5,,,48,0
73340,note_off,,,,,188,0,5,,,,,4,,,58,0
73340,note_off,,,,,188,0,3,,,,,2,,,64,0
73340,note_off,,,,,188,0,2,,,,,1,,,64,0
73340,note_off,,,,,188,0,4,,,,,3,,,64,0
73344,note_on,,,,,4,0,1,,,,,0,,,65,63
73344,note_on,,,,,4,0,3,,,,,2,,,65,108
73344,note_on,,,,,4,0,5,,,,,4,,,56,92
73344,note_on,,,,,4,0,7,,,,,6,,,41,75
73344,note_on,,,,,4,0,2,,,,,1,,,65,63
73344,note_on,,,,,4,0,4,,,,,3,,,60,127
73344,note_on,,,,,4,0,6,,,,,5,,,53,92
73344,note_on,,,,,4,0,9,,,,,8,,,53,50
73344,note_on,,,,,4,0,8,,,,,7,,,65,50
73532,note_off,,,,,188,0,9,,,,,8,,,53,0
73532,note_off,,,,,188,0,6,,,,,5,,,53,0
73532,note_off,,,,,188,0,4,,,,,3,,,60,0
73532,note_off,,,,,188,0,7,,,,,6,,,41,0
73536,note_on,,,,,4,0,9,,,,,8,,,48,50
73536,note_on,,,,,4,0,4,,,,,3,,,68,127
73536,note_on,,,,,4,0,6,,,,,5,,,48,92
73536,note_on,,,,,4,0,7,,,,,6,,,36,75
73628,note_off,,,,,92,0,6,,,,,5,,,48,0
73628,note_off,,,,,92,0,9,,,,,8,,,48,0
73628,note_off,,,,,92,0,4,,,,,3,,,68,0
73628,note_off,,,,,92,0,7,,,,,6,,,36,0
73632,note_on,,,,,4,0,9,,,,,8,,,46,50
73632,note_on,,,,,4,0,6,,,,,5,,,46,92
73632,note_on,,,,,4,0,7,,,,,6,,,34,75
73632,note_on,,,,,4,0,4,,,,,3,,,67,127
73664,note_off,,,,,320,0,1,,,,,0,,,65,0
73664,note_off,,,,,320,0,8,,,,,7,,,65,0
73664,note_off,,,,,320,0,5,,,,,4,,,56,0
73664,note_off,,,,,320,0,3,,,,,2,,,65,0
73664,note_off,,,,,320,0,2,,,,,1,,,65,0
73724,note_off,,,,,92,0,7,,,,,6,,,34,0
73724,note_off,,,,,92,0,9,,,,,8,,,46,0
73724,note_off,,,,,92,0,6,,,,,5,,,46,0
73724,note_off,,,,,92,0,4,,,,,3,,,67,0
73728,note_on,,,,,4,0,7,,,,,6,,,32,75
73728,note_on,,,,,64,0,8,,,,,7,,,60,50
73728,note_on,,,,,4,0,9,,,,,8,,,44,50
73728,note_on,,,,,0,0,8,,,,,7,,,65,50
73728,note_on,,,,,4,0,4,,,,,3,,,65,127
73728,note_on,,,,,4,0,6,,,,,5,,,44,92
73916,note_off,,,,,188,0,7,,,,,6,,,32,0
73916,note_off,,,,,188,0,4,,,,,3,,,65,0
73916,note_off,,,,,0,0,8,,,,,7,,,65,0
73916,note_off,,,,,188,0,8,,,,,7,,,60,0
73916,note_off,,,,,188,0,9,,,,,8,,,44,0
73916,note_off,,,,,188,0,6,,,,,5,,,44,0
73920,note_on,,,,,256,0,1,,,,,0,,,72,63
73920,note_on,,,,,4,0,7,,,,,6,,,31,75
73920,note_on,,,,,256,0,3,,,,,2,,,72,108
73920,note_on,,,,,4,0,6,,,,,5,,,43,92
73920,note_on,,,,,256,0,5,,,,,4,,,58,92
73920,note_on,,,,,4,0,8,,,,,7,,,58,50
73920,note_on,,,,,0,0,8,,,,,7,,,64,50
73920,note_on,,,,,0,0,8,,,,,7,,,67,50
73920,note_on,,,,,4,0,4,,,,,3,,,64,127
73920,note_on,,,,,256,0,2,,,,,1,,,72,63
73920,note_on,,,,,4,0,9,,,,,8,,,43,50
74012,note_off,,,,,92,0,7,,,,,6,,,31,0
74012,note_off,,,,,92,0,6,,,,,5,,,43,0
74012,note_off,,,,,92,0,9,,,,,8,,,43,0
74016,note_on,,,,,4,0,9,,,,,8,,,44,50
74016,note_on,,,,,4,0,7,,,,,6,,,32,75
74016,note_on,,,,,4,0,6,,,,,5,,,44,92
74108,note_off,,,,,92,0,9,,,,,8,,,44,0
74108,note_off,,,,,92,0,6,,,,,5,,,44,0
74108,note_off,,,,,188,0,5,,,,,4,,,58,0
74108,note_off,,,,,188,0,3,,,,,2,,,72,0
74108,note_off,,,,,188,0,2,,,,,1,,,72,0
74108,note_off,,,,,92,0,7,,,,,6,,,32,0
74108,note_off,,,,,0,0,8,,,,,7,,,67,0
74108,note_off,,,,,188,0,4,,,,,3,,,64,0
74108,note_off,,,,,0,0,8,,,,,7,,,64,0
74108,note_off,,,,,188,0,8,,,,,7,,,58,0
74108,note_off,,,,,188,0,1,,,,,0,,,72,0
74112,note_on,,,,,4,0,4,,,,,3,,,65,127
74112,note_on,,,,,4,0,1,,,,,0,,,80,63
74112,note_on,,,,,4,0,5,,,,,4,,,60,92
74112,note_on,,,,,4,0,9,,,,,8,,,41,50
74112,note_on,,,,,4,0,6,,,,,5,,,41,92
74112,note_on,,,,,0,0,8,,,,,7,,,68,50
74112,note_on,,,,,0,0,8,,,,,7,,,65,50
74112,note_on,,,,,4,0,2,,,,,1,,,80,63
74112,note_on,,,,,4,0,7,,,,,6,,,29,75
74112,note_on,,,,,4,0,3,,,,,2,,,80,108
74112,note_on,,,,,4,0,8,,,,,7,,,60,50
74204,note_off,,,,,92,0,2,,,,,1,,,80,0
74204,note_off,,,,,92,0,1,,,,,0,,,80,0
74204,note_off,,,,,92,0,3,,,,,2,,,80,0
74208,note_on,,,,,4,0,1,,,,,0,,,79,63
74208,note_on,,,,,4,0,2,,,,,1,,,79,63
74208,note_on,,,,,4,0,3,,,,,2,,,79,108
74300,note_off,,,,,92,0,3,,,,,2,,,79,0
74300,note_off,,,,,92,0,1,,,,,0,,,79,0
74300,note_off,,,,,92,0,2,,,,,1,,,79,0
74304,note_on,,,,,4,0,3,,,,,2,,,77,108
74304,note_on,,,,,4,0,1,,,,,0,,,77,63
74304,note_on,,,,,4,0,2,,,,,1,,,77,63
74396,note_off,,,,,92,0,1,,,,,0,,,77,0
74396,note_off,,,,,92,0,2,,,,,1,,,77,0
74396,note_off,,,,,92,0,3,,,,,2,,,77,0
74400,note_on,,,,,4,0,3,,,,,2,,,75,108
74400,note_on,,,,,4,0,1,,,,,0,,,75,63
74400,note_on,,,,,4,0,2,,,,,1,,,75,63
74432,note_off,,,,,320,0,7,,,,,6,,,29,0
74432,note_off,,,,,320,0,8,,,,,7,,,60,0
74432,note_off,,,,,320,0,5,,,,,4,,,60,0
74432,note_off,,,,,0,0,8,,,,,7,,,65,0
74432,note_off,,,,,320,0,6,,,,,5,,,41,0
74432,note_off,,,,,320,0,9,,,,,8,,,41,0
74432,note_off,,,,,0,0,8,,,,,7,,,68,0
74432,note_off,,,,,320,0,4,,,,,3,,,65,0
74492,note_off,,,,,92,0,1,,,,,0,,,75,0
74492,note_off,,,,,92,0,3,,,,,2,,,75,0
74492,note_off,,,,,92,0,2,,,,,1,,,75,0
74496,note_on,,,,,4,0,1,,,,,0,,,73,63
74496,note_on,,,,,4,0,3,,,,,2,,,73,108
74496,note_on,,,,,4,0,2,,,,,1,,,73,63
74684,note_off,,,,,188,0,3,,,,,2,,,73,0
74684,note_off,,,,,188,0,2,,,,,1,,,73,0
74684,note_off,,,,,188,0,1,,,,,0,,,73,0
74688,note_on,,,,,4,0,1,,,,,0,,,72,63
74688,note_on,,,,,256,0,9,,,,,8,,,44,50
74688,note_on,,,,,256,0,7,,,,,6,,,32,75
74688,note_on,,,,,4,0,2,,,,,1,,,72,63
74688,note_on,,,,,256,0,8,,,,,7,,,60,50
74688,note_on,,,,,0,0,8,,,,,7,,,65,50
74688,note_on,,,,,256,0,4,,,,,3,,,65,127
74688,note_on,,,,,4,0,3,,,,,2,,,72,108
74688,note_on,,,,,256,0,5,,,,,4,,,56,92
74688,note_on,,,,,256,0,6,,,,,5,,,44,92
74876,note_off,,,,,188,0,2,,,,,1,,,72,0
74876,note_off,,,,,188,0,7,,,,,6,,,32,0
74876,note_off,,,,,188,0,1,,,,,0,,,72,0
74876,note_off,,,,,188,0,5,,,,,4,,,56,0
74876,note_off,,,,,188,0,3,,,,,2,,,72,0
74876,note_off,,,,,188,0,4,,,,,3,,,65,0
74876,note_off,,,,,0,0,8,,,,,7,,,65,0
74876,note_off,,,,,188,0,9,,,,,8,,,44,0
74876,note_off,,,,,188,0,6,,,,,5,,,44,0
74876,note_off,,,,,188,0,8,,,,,7,,,60,0
74880,note_on,,,,,4,0,5,,,,,4,,,58,92
74880,note_on,,,,,4,0,3,,,,,2,,,70,108
74880,note_on,,,,,4,0,7,,,,,6,,,31,75
74880,note_on,,,,,4,0,4,,,,,3,,,67,127
74880,note_on,,,,,4,0,6,,,,,5,,,43,92
74880,note_on,,,,,4,0,1,,,,,0,,,70,63
74880,note_on,,,,,0,0,8,,,,,7,,,70,50
74880,note_on,,,,,4,0,8,,,,,7,,,58,50
74880,note_on,,,,,0,0,8,,,,,7,,,63,50
74880,note_on,,,,,4,0,2,,,,,1,,,70,63
74880,note_on,,,,,4,0,9,,,,,8,,,43,50
75068,note_off,,,,,188,0,9,,,,,8,,,43,0
75068,note_off,,,,,188,0,8,,,,,7,,,58,0
75068,note_off,,,,,188,0,7,,,,,6,,,31,0
75068,note_off,,,,,188,0,6,,,,,5,,,43,0
75072,note_on,,,,,4,0,6,,,,,5,,,44,92
75072,note_on,,,,,4,0,8,,,,,7,,,60,50
75072,note_on,,,,,4,0,9,,,,,8,,,44,50
75072,note_on,,,,,4,0,7,,,,,6,,,32,75
75164,note_off,,,,,284,0,1,,,,,0,,,70,0
75164,note_off,,,,,284,0,2,,,,,1,,,70,0
75164,note_off,,,,,284,0,3,,,,,2,,,70,0
75168,note_on,,,,,4,0,1,,,,,0,,,68,63
75168,note_on,,,,,4,0,2,,,,,1,,,68,63
75168,note_on,,,,,4,0,3,,,,,2,,,68,108
75200,note_off,,,,,320,0,5,,,,,4,,,58,0
75200,note_off,,,,,128,0,8,,,,,7,,,63,0
75200,note_off,,,,,0,0,8,,,,,7,,,70,0
75200,note_off,,,,,320,0,4,,,,,3,,,67,0
75260,note_off,,,,,188,0,6,,,,,5,,,44,0
75260,note_off,,,,,92,0,1,,,,,0,,,68,0
75260,note_off,,,,,188,0,9,,,,,8,,,44,0
75260,note_off,,,,,60,0,8,,,,,7,,,60,0
75260,note_off,,,,,188,0,7,,,,,6,,,32,0
75260,note_off,,,,,92,0,2,,,,,1,,,68,0
75260,note_off,,,,,92,0,3,,,,,2,,,68,0
75264,note_on,,,,,4,0,1,,,,,0,,,67,63
75264,note_on,,,,,4,0,9,,,,,8,,,46,50
75264,note_on,,,,,4,0,7,,,,,6,,,34,75
75264,note_on,,,,,4,0,3,,,,,2,,,67,108
75264,note_on,,,,,4,0,6,,,,,5,,,46,92
75264,note_on,,,,,4,0,2,,,,,1,,,67,63
75264,note_on,,,,,4,0,8,,,,,7,,,61,50
75264,note_on,,,,,0,0,8,,,,,7,,,67,50
75356,note_off,,,,,92,0,1,,,,,0,,,67,0
75356,note_off,,,,,92,0,2,,,,,1,,,67,0
75356,note_off,,,,,92,0,3,,,,,2,,,67,0
75360,note_on,,,,,4,0,2,,,,,1,,,65,63
75360,note_on,,,,,4,0,1,,,,,0,,,65,63
75360,note_on,,,,,4,0,3,,,,,2,,,65,108
75452,note_off,,,,,92,0,1,,,,,0,,,65,0
75452,note_off,,,,,188,0,6,,,,,5,,,46,0
75452,note_off,,,,,188,0,7,,,,,6,,,34,0
75452,note_off,,,,,188,0,9,,,,,8,,,46,0
75452,note_off,,,,,92,0,3,,,,,2,,,65,0
75452,note_off,,,,,188,0,8,,,,,7,,,67,0
75452,note_off,,,,,92,0,2,,,,,1,,,65,0
75456,note_on,,,,,4,0,2,,,,,1,,,63,63
75456,note_on,,,,,0,0,8,,,,,7,,,70,50
75456,note_on,,,,,256,0,4,,,,,3,,,58,127
75456,note_on,,,,,4,0,8,,,,,7,,,63,50
75456,note_on,,,,,256,0,5,,,,,4,,,58,92
75456,note_on,,,,,4,0,7,,,,,6,,,31,75
75456,note_on,,,,,4,0,3,,,,,2,,,63,108
75456,note_on,,,,,4,0,6,,,,,5,,,43,92
75456,note_on,,,,,4,0,9,,,,,8,,,43,50
75456,note_on,,,,,4,0,1,,,,,0,,,63,63
75548,note_off,,,,,92,0,3,,,,,2,,,63,0
75548,note_off,,,,,92,0,2,,,,,1,,,63,0
75548,note_off,,,,,92,0,1,,,,,0,,,63,0
75552,note_on,,,,,4,0,3,,,,,2,,,61,108
75552,note_on,,,,,4,0,2,,,,,1,,,61,63
75552,note_on,,,,,4,0,1,,,,,0,,,61,63
75584,note_off,,,,,128,0,8,,,,,7,,,61,0
75644,note_off,,,,,92,0,1,,,,,0,,,61,0
75644,note_off,,,,,188,0,7,,,,,6,,,31,0
75644,note_off,,,,,92,0,3,,,,,2,,,61,0
75644,note_off,,,,,60,0,8,,,,,7,,,63,0
75644,note_off,,,,,0,0,8,,,,,7,,,70,0
75644,note_off,,,,,92,0,2,,,,,1,,,61,0
75644,note_off,,,,,188,0,4,,,,,3,,,58,0
75644,note_off,,,,,188,0,6,,,,,5,,,43,0
75644,note_off,,,,,188,0,5,,,,,4,,,58,0
75644,note_off,,,,,188,0,9,,,,,8,,,43,0
75648,note_on,,,,,4,0,5,,,,,4,,,56,92
75648,note_on,,,,,4,0,3,,,,,2,,,60,108
75648,note_on,,,,,4,0,1,,,,,0,,,60,63
75648,note_on,,,,,4,0,9,,,,,8,,,44,50
75648,note_on,,,,,4,0,7,,,,,6,,,32,75
75648,note_on,,,,,4,0,6,,,,,5,,,44,92
75648,note_on,,,,,0,0,8,,,,,7,,,63,50
75648,note_on,,,,,4,0,4,,,,,3,,,60,127
75648,note_on,,,,,0,0,8,,,,,7,,,68,50
75648,note_on,,,,,4,0,2,,,,,1,,,60,63
75648,note_on,,,,,4,0,8,,,,,7,,,60,50
75740,note_off,,,,,92,0,3,,,,,2,,,60,0
75740,note_off,,,,,92,0,1,,,,,0,,,60,0
75740,note_off,,,,,92,0,2,,,,,1,,,60,0
75744,note_on,,,,,4,0,1,,,,,0,,,63,63
75744,note_on,,,,,4,0,2,,,,,1,,,63,63
75744,note_on,,,,,4,0,3,,,,,2,,,63,108
75836,note_off,,,,,92,0,1,,,,,0,,,63,0
75836,note_off,,,,,92,0,2,,,,,1,,,63,0
75836,note_off,,,,,188,0,9,,,,,8,,,44,0
75836,note_off,,,,,188,0,7,,,,,6,,,32,0
75836,note_off,,,,,188,0,6,,,,,5,,,44,0
75836,note_off,,,,,92,0,3,,,,,2,,,63,0
75840,note_on,,,,,4,0,9,,,,,8,,,51,50
75840,note_on,,,,,4,0,6,,,,,5,,,51,92
75840,note_on,,,,,4,0,1,,,,,0,,,65,63
75840,note_on,,,,,4,0,7,,,,,6,,,39,75
75840,note_on,,,,,4,0,2,,,,,1,,,65,63
75840,note_on,,,,,4,0,3,,,,,2,,,65,108
75932,note_off,,,,,92,0,2,,,,,1,,,65,0
75932,note_off,,,,,92,0,1,,,,,0,,,65,0
75932,note_off,,,,,92,0,3,,,,,2,,,65,0
75936,note_on,,,,,4,0,1,,,,,0,,,67,63
75936,note_on,,,,,4,0,2,,,,,1,,,67,63
75936,note_on,,,,,4,0,3,,,,,2,,,67,108
75968,note_off,,,,,0,0,8,,,,,7,,,63,0
75968,note_off,,,,,320,0,8,,,,,7,,,60,0
75968,note_off,,,,,320,0,4,,,,,3,,,60,0
75968,note_off,,,,,0,0,8,,,,,7,,,68,0
75968,note_off,,,,,320,0,5,,,,,4,,,56,0
76028,note_off,,,,,92,0,1,,,,,0,,,67,0
76028,note_off,,,,,188,0,7,,,,,6,,,39,0
76028,note_off,,,,,92,0,3,,,,,2,,,67,0
76028,note_off,,,,,92,0,2,,,,,1,,,67,0
76028,note_off,,,,,188,0,9,,,,,8,,,51,0
76028,note_off,,,,,188,0,6,,,,,5,,,51,0
76032,note_on,,,,,64,0,4,,,,,3,,,63,127
76032,note_on,,,,,0,0,8,,,,,7,,,68,50
76032,note_on,,,,,4,0,1,,,,,0,,,68,63
76032,note_on,,,,,4,0,6,,,,,5,,,48,92
76032,note_on,,,,,64,0,8,,,,,7,,,63,50
76032,note_on,,,,,4,0,9,,,,,8,,,48,50
76032,note_on,,,,,4,0,2,,,,,1,,,68,63
76032,note_on,,,,,4,0,7,,,,,6,,,36,75
76032,note_on,,,,,4,0,3,,,,,2,,,68,108
76032,note_on,,,,,64,0,5,,,,,4,,,56,92
76220,note_off,,,,,188,0,8,,,,,7,,,63,0
76220,note_off,,,,,188,0,6,,,,,5,,,48,0
76220,note_off,,,,,188,0,1,,,,,0,,,68,0
76220,note_off,,,,,188,0,9,,,,,8,,,48,0
76220,note_off,,,,,188,0,2,,,,,1,,,68,0
76220,note_off,,,,,0,0,8,,,,,7,,,68,0
76220,note_off,,,,,188,0,4,,,,,3,,,63,0
76220,note_off,,,,,188,0,3,,,,,2,,,68,0
76220,note_off,,,,,188,0,7,,,,,6,,,36,0
76220,note_off,,,,,188,0,5,,,,,4,,,56,0
76224,note_on,,,,,4,0,8,,,,,7,,,63,50
76224,note_on,,,,,0,0,8,,,,,7,,,72,50
76224,note_on,,,,,4,0,9,,,,,8,,,56,50
76224,note_on,,,,,0,0,8,,,,,7,,,68,50
76224,note_on,,,,,4,0,5,,,,,4,,,63,92
76224,note_on,,,,,4,0,2,,,,,1,,,72,63
76224,note_on,,,,,4,0,3,,,,,2,,,72,108
76224,note_on,,,,,4,0,1,,,,,0,,,72,63
76224,note_on,,,,,4,0,6,,,,,5,,,56,92
76224,note_on,,,,,4,0,7,,,,,6,,,44,75
76224,note_on,,,,,4,0,4,,,,,3,,,68,127
76412,note_off,,,,,188,0,4,,,,,3,,,68,0
76412,note_off,,,,,188,0,3,,,,,2,,,72,0
76412,note_off,,,,,188,0,7,,,,,6,,,44,0
76412,note_off,,,,,188,0,2,,,,,1,,,72,0
76412,note_off,,,,,0,0,8,,,,,7,,,68,0
76412,note_off,,,,,188,0,8,,,,,7,,,63,0
76412,note_off,,,,,188,0,1,,,,,0,,,72,0
76412,note_off,,,,,188,0,5,,,,,4,,,63,0
76412,note_off,,,,,0,0,8,,,,,7,,,72,0
76412,note_off,,,,,188,0,6,,,,,5,,,56,0
76412,note_off,,,,,188,0,9,,,,,8,,,56,0
76416,note_on,,,,,4,0,8,,,,,7,,,63,50
76416,note_on,,,,,4,0,4,,,,,3,,,68,127
76416,note_on,,,,,4,0,1,,,,,0,,,72,63
76416,note_on,,,,,0,0,8,,,,,7,,,68,50
76416,note_on,,,,,4,0,2,,,,,1,,,72,63
76416,note_on,,,,,0,0,8,,,,,7,,,72,50
76416,note_on,,,,,4,0,7,,,,,6,,,51,75
76416,note_on,,,,,4,0,5,,,,,4,,,63,92
76416,note_on,,,,,4,0,3,,,,,2,,,72,108
76416,note_on,,,,,4,0,6,,,,,5,,,63,92
76416,note_on,,,,,4,0,9,,,,,8,,,63,50
76604,note_off,,,,,188,0,4,,,,,3,,,68,0
76604,note_off,,,,,0,0,8,,,,,7,,,72,0
76604,note_off,,,,,188,0,8,,,,,7,,,68,0
76604,note_off,,,,,188,0,1,,,,,0,,,72,0
76604,note_off,,,,,188,0,6,,,,,5,,,63,0
76604,note_off,,,,,188,0,9,,,,,8,,,63,0
76604,note_off,,,,,188,0,3,,,,,2,,,72,0
76604,note_off,,,,,188,0,7,,,,,6,,,51,0
76604,note_off,,,,,188,0,2,,,,,1,,,72,0
76608,note_on,,,,,4,0,3,,,,,2,,,70,108
76608,note_on,,,,,4,0,1,,,,,0,,,70,63
76608,note_on,,,,,4,0,7,,,,,6,,,46,75
76608,note_on,,,,,0,0,8,,,,,7,,,70,50
76608,note_on,,,,,4,0,6,,,,,5,,,58,92
76608,note_on,,,,,4,0,9,,,,,8,,,58,50
76608,note_on,,,,,4,0,2,,,,,1,,,70,63
76608,note_on,,,,,4,0,8,,,,,7,,,67,50
76608,note_on,,,,,4,0,4,,,,,3,,,67,127
76700,note_off,,,,,92,0,6,,,,,5,,,58,0
76700,note_off,,,,,92,0,9,,,,,8,,,58,0
76700,note_off,,,,,92,0,7,,,,,6,,,46,0
76704,note_on,,,,,4,0,7,,,,,6,,,44,75
76704,note_on,,,,,4,0,6,,,,,5,,,56,92
76704,note_on,,,,,4,0,9,,,,,8,,,56,50
76736,note_off,,,,,320,0,5,,,,,4,,,63,0
76796,note_off,,,,,188,0,1,,,,,0,,,70,0
76796,note_off,,,,,188,0,2,,,,,1,,,70,0
76796,note_off,,,,,92,0,6,,,,,5,,,56,0
76796,note_off,,,,,188,0,4,,,,,3,,,67,0
76796,note_off,,,,,92,0,7,,,,,6,,,44,0
76796,note_off,,,,,188,0,3,,,,,2,,,70,0
76796,note_off,,,,,0,0,8,,,,,7,,,67,0
76796,note_off,,,,,0,0,8,,,,,7,,,70,0
76796,note_off,,,,,188,0,8,,,,,7,,,63,0
76796,note_off,,,,,92,0,9,,,,,8,,,56,0
76800,note_on,,,,,4,0,6,,,,,5,,,55,92
76800,note_on,,,,,4,0,9,,,,,8,,,55,50
76800,note_on,,,,,4,0,7,,,,,6,,,43,75
76988,note_off,,,,,188,0,9,,,,,8,,,55,0
76988,note_off,,,,,188,0,6,,,,,5,,,55,0
76988,note_off,,,,,188,0,7,,,,,6,,,43,0
76992,note_on,,,,,4,0,7,,,,,6,,,41,75
76992,note_on,,,,,4,0,9,,,,,8,,,53,50
76992,note_on,,,,,196,0,4,,,,,3,,,70,127
76992,note_on,,,,,196,0,1,,,,,0,,,70,63
76992,note_on,,,,,196,0,3,,,,,2,,,70,108
76992,note_on,,,,,196,0,2,,,,,1,,,70,63
76992,note_on,,,,,256,0,5,,,,,4,,,63,92
76992,note_on,,,,,4,0,6,,,,,5,,,53,92
76992,note_on,,,,,0,0,8,,,,,7,,,70,50
76992,note_on,,,,,196,0,8,,,,,7,,,63,50
77084,note_off,,,,,92,0,9,,,,,8,,,53,0
77084,note_off,,,,,92,0,7,,,,,6,,,41,0
77084,note_off,,,,,92,0,6,,,,,5,,,53,0
77088,note_on,,,,,4,0,6,,,,,5,,,55,92
77088,note_on,,,,,4,0,7,,,,,6,,,43,75
77088,note_on,,,,,4,0,9,,,,,8,,,55,50
77180,note_off,,,,,188,0,5,,,,,4,,,63,0
77180,note_off,,,,,188,0,1,,,,,0,,,70,0
77180,note_off,,,,,92,0,9,,,,,8,,,55,0
77180,note_off,,,,,188,0,3,,,,,2,,,70,0
77180,note_off,,,,,188,0,4,,,,,3,,,70,0
77180,note_off,,,,,188,0,2,,,,,1,,,70,0
77180,note_off,,,,,0,0,8,,,,,7,,,70,0
77180,note_off,,,,,188,0,8,,,,,7,,,63,0
77180,note_off,,,,,92,0,6,,,,,5,,,55,0
77180,note_off,,,,,92,0,7,,,,,6,,,43,0
77184,note_on,,,,,4,0,4,,,,,3,,,75,127
77184,note_on,,,,,4,0,2,,,,,1,,,79,63
77184,note_on,,,,,4,0,1,,,,,0,,,79,63
77184,note_on,,,,,4,0,6,,,,,5,,,51,92
77184,note_on,,,,,4,0,9,,,,,8,,,51,50
77184,note_on,,,,,4,0,8,,,,,7,,,58,50
77184,note_on,,,,,0,0,8,,,,,7,,,63,50
77184,note_on,,,,,0,0,8,,,,,7,,,67,50
77184,note_on,,,,,4,0,3,,,,,2,,,79,108
77184,note_on,,,,,4,0,7,,,,,6,,,39,75
77184,note_on,,,,,4,0,5,,,,,4,,,70,92
77372,note_off,,,,,188,0,9,,,,,8,,,51,0
77372,note_off,,,,,188,0,6,,,,,5,,,51,0
77372,note_off,,,,,188,0,8,,,,,7,,,67,0
77372,note_off,,,,,188,0,7,,,,,6,,,39,0
77376,note_on,,,,,4,0,9,,,,,8,,,53,50
77376,note_on,,,,,4,0,6,,,,,5,,,53,92
77376,note_on,,,,,4,0,8,,,,,7,,,68,50
77376,note_on,,,,,4,0,7,,,,,6,,,41,75
77468,note_off,,,,,284,0,3,,,,,2,,,79,0
77468,note_off,,,,,284,0,1,,,,,0,,,79,0
77468,note_off,,,,,284,0,2,,,,,1,,,79,0
77472,note_on,,,,,4,0,2,,,,,1,,,77,63
77472,note_on,,,,,4,0,1,,,,,0,,,77,63
77472,note_on,,,,,4,0,3,,,,,2,,,77,108
77504,note_off,,,,,320,0,5,,,,,4,,,70,0
77504,note_off,,,,,128,0,8,,,,,7,,,58,0
77504,note_off,,,,,320,0,4,,,,,3,,,75,0
77504,note_off,,,,,0,0,8,,,,,7,,,63,0
77564,note_off,,,,,60,0,8,,,,,7,,,68,0
77564,note_off,,,,,188,0,9,,,,,8,,,53,0
77564,note_off,,,,,92,0,2,,,,,1,,,77,0
77564,note_off,,,,,188,0,7,,,,,6,,,41,0
77564,note_off,,,,,92,0,3,,,,,2,,,77,0
77564,note_off,,,,,188,0,6,,,,,5,,,53,0
77564,note_off,,,,,92,0,1,,,,,0,,,77,0
77568,note_on,,,,,4,0,2,,,,,1,,,75,63
77568,note_on,,,,,64,0,4,,,,,3,,,70,127
77568,note_on,,,,,4,0,3,,,,,2,,,75,108
77568,note_on,,,,,4,0,1,,,,,0,,,75,63
77568,note_on,,,,,0,0,8,,,,,7,,,70,50
77568,note_on,,,,,4,0,9,,,,,8,,,55,50
77568,note_on,,,,,4,0,7,,,,,6,,,43,75
77568,note_on,,,,,0,0,8,,,,,7,,,63,50
77568,note_on,,,,,64,0,5,,,,,4,,,63,92
77568,note_on,,,,,4,0,8,,,,,7,,,58,50
77568,note_on,,,,,4,0,6,,,,,5,,,55,92
77660,note_off,,,,,92,0,1,,,,,0,,,75,0
77660,note_off,,,,,92,0,3,,,,,2,,,75,0
77660,note_off,,,,,92,0,2,,,,,1,,,75,0
77664,note_on,,,,,4,0,2,,,,,1,,,74,63
77664,note_on,,,,,4,0,1,,,,,0,,,74,63
77664,note_on,,,,,4,0,3,,,,,2,,,74,108
77756,note_off,,,,,92,0,1,,,,,0,,,74,0
77756,note_off,,,,,188,0,6,,,,,5,,,55,0
77756,note_off,,,,,188,0,8,,,,,7,,,70,0
77756,note_off,,,,,188,0,9,,,,,8,,,55,0
77756,note_off,,,,,188,0,4,,,,,3,,,70,0
77756,note_off,,,,,188,0,7,,,,,6,,,43,0
77756,note_off,,,,,92,0,3,,,,,2,,,74,0
77756,note_off,,,,,92,0,2,,,,,1,,,74,0
77760,note_on,,,,,4,0,6,,,,,5,,,51,92
77760,note_on,,,,,4,0,3,,,,,2,,,72,108
77760,note_on,,,,,4,0,2,,,,,1,,,72,63
77760,note_on,,,,,4,0,8,,,,,7,,,67,50
77760,note_on,,,,,4,0,7,,,,,6,,,39,75
77760,note_on,,,,,4,0,1,,,,,0,,,72,63
77760,note_on,,,,,4,0,4,,,,,3,,,67,127
77760,note_on,,,,,4,0,9,,,,,8,,,51,50
77852,note_off,,,,,92,0,1,,,,,0,,,72,0
77852,note_off,,,,,92,0,2,,,,,1,,,72,0
77852,note_off,,,,,92,0,3,,,,,2,,,72,0
77856,note_on,,,,,4,0,2,,,,,1,,,70,63
77856,note_on,,,,,4,0,1,,,,,0,,,70,63
77856,note_on,,,,,4,0,3,,,,,2,,,70,108
77888,note_off,,,,,0,0,8,,,,,7,,,63,0
77888,note_off,,,,,128,0,8,,,,,7,,,58,0
77888,note_off,,,,,320,0,5,,,,,4,,,63,0
77948,note_off,,,,,92,0,3,,,,,2,,,70,0
77948,note_off,,,,,188,0,7,,,,,6,,,39,0
77948,note_off,,,,,60,0,8,,,,,7,,,67,0
77948,note_off,,,,,92,0,2,,,,,1,,,70,0
77948,note_off,,,,,188,0,4,,,,,3,,,67,0
77948,note_off,,,,,188,0,6,,,,,5,,,51,0
77948,note_off,,,,,188,0,9,,,,,8,,,51,0
77948,note_off,,,,,92,0,1,,,,,0,,,70,0
77952,note_on,,,,,4,0,7,,,,,6,,,41,75
77952,note_on,,,,,4,0,4,,,,,3,,,65,127
77952,note_on,,,,,64,0,5,,,,,4,,,60,92
77952,note_on,,,,,4,0,6,,,,,5,,,53,92
77952,note_on,,,,,4,0,3,,,,,2,,,68,108
77952,note_on,,,,,4,0,1,,,,,0,,,68,63
77952,note_on,,,,,4,0,9,,,,,8,,,53,50
77952,note_on,,,,,0,0,8,,,,,7,,,60,50
77952,note_on,,,,,4,0,8,,,,,7,,,56,50
77952,note_on,,,,,4,0,2,,,,,1,,,68,63
77952,note_on,,,,,0,0,8,,,,,7,,,65,50
78140,note_off,,,,,188,0,7,,,,,6,,,41,0
78140,note_off,,,,,188,0,6,,,,,5,,,53,0
78140,note_off,,,,,188,0,9,,,,,8,,,53,0
78140,note_off,,,,,188,0,8,,,,,7,,,56,0
78144,note_on,,,,,4,0,8,,,,,7,,,58,50
78144,note_on,,,,,4,0,9,,,,,8,,,55,50
78144,note_on,,,,,4,0,6,,,,,5,,,55,92
78144,note_on,,,,,4,0,7,,,,,6,,,43,75
78236,note_off,,,,,284,0,1,,,,,0,,,68,0
78236,note_off,,,,,284,0,2,,,,,1,,,68,0
78236,note_off,,,,,284,0,3,,,,,2,,,68,0
78240,note_on,,,,,4,0,3,,,,,2,,,67,108
78240,note_on,,,,,4,0,2,,,,,1,,,67,63
78240,note_on,,,,,4,0,1,,,,,0,,,67,63
78272,note_off,,,,,0,0,8,,,,,7,,,65,0
78272,note_off,,,,,320,0,4,,,,,3,,,65,0
78272,note_off,,,,,128,0,8,,,,,7,,,60,0
78272,note_off,,,,,320,0,5,,,,,4,,,60,0
78332,note_off,,,,,92,0,1,,,,,0,,,67,0
78332,note_off,,,,,188,0,6,,,,,5,,,55,0
78332,note_off,,,,,92,0,2,,,,,1,,,67,0
78332,note_off,,,,,188,0,7,,,,,6,,,43,0
78332,note_off,,,,,188,0,9,,,,,8,,,55,0
78332,note_off,,,,,92,0,3,,,,,2,,,67,0
78332,note_off,,,,,60,0,8,,,,,7,,,58,0
78336,note_on,,,,,4,0,8,,,,,7,,,60,50
78336,note_on,,,,,4,0,7,,,,,6,,,44,75
78336,note_on,,,,,64,0,5,,,,,4,,,56,92
78336,note_on,,,,,4,0,6,,,,,5,,,56,92
78336,note_on,,,,,4,0,3,,,,,2,,,65,108
78336,note_on,,,,,4,0,1,,,,,0,,,65,63
78336,note_on,,,,,64,0,4,,,,,3,,,60,127
78336,note_on,,,,,0,0,8,,,,,7,,,65,50
78336,note_on,,,,,4,0,9,,,,,8,,,56,50
78336,note_on,,,,,4,0,2,,,,,1,,,65,63
78428,note_off,,,,,92,0,1,,,,,0,,,65,0
78428,note_off,,,,,92,0,3,,,,,2,,,65,0
78428,note_off,,,,,92,0,2,,,,,1,,,65,0
78432,note_on,,,,,4,0,1,,,,,0,,,63,63
78432,note_on,,,,,4,0,3,,,,,2,,,63,108
78432,note_on,,,,,4,0,2,,,,,1,,,63,63
78524,note_off,,,,,188,0,7,,,,,6,,,44,0
78524,note_off,,,,,188,0,9,,,,,8,,,56,0
78524,note_off,,,,,188,0,8,,,,,7,,,60,0
78524,note_off,,,,,188,0,6,,,,,5,,,56,0
78524,note_off,,,,,188,0,4,,,,,3,,,60,0
78524,note_off,,,,,92,0,3,,,,,2,,,63,0
78524,note_off,,,,,92,0,1,,,,,0,,,63,0
78524,note_off,,,,,92,0,2,,,,,1,,,63,0
78528,note_on,,,,,4,0,1,,,,,0,,,62,63
78528,note_on,,,,,4,0,9,,,,,8,,,53,50
78528,note_on,,,,,4,0,6,,,,,5,,,53,92
78528,note_on,,,,,4,0,4,,,,,3,,,56,127
78528,note_on,,,,,4,0,8,,,,,7,,,62,50
78528,note_on,,,,,4,0,2,,,,,1,,,62,63
78528,note_on,,,,,4,0,3,,,,,2,,,62,108
78528,note_on,,,,,4,0,7,,,,,6,,,41,75
78620,note_off,,,,,92,0,2,,,,,1,,,62,0
78620,note_off,,,,,92,0,3,,,,,2,,,62,0
78620,note_off,,,,,92,0,1,,,,,0,,,62,0
78624,note_on,,,,,4,0,1,,,,,0,,,60,63
78624,note_on,,,,,4,0,2,,,,,1,,,60,63
78624,note_on,,,,,4,0,3,,,,,2,,,60,108
78656,note_off,,,,,128,0,8,,,,,7,,,65,0
78656,note_off,,,,,320,0,5,,,,,4,,,56,0
78716,note_off,,,,,92,0,2,,,,,1,,,60,0
78716,note_off,,,,,92,0,1,,,,,0,,,60,0
78716,note_off,,,,,188,0,7,,,,,6,,,41,0
78716,note_off,,,,,60,0,8,,,,,7,,,62,0
78716,note_off,,,,,188,0,6,,,,,5,,,53,0
78716,note_off,,,,,92,0,3,,,,,2,,,60,0
78716,note_off,,,,,188,0,9,,,,,8,,,53,0
78716,note_off,,,,,188,0,4,,,,,3,,,56,0
78720,note_on,,,,,4,0,1,,,,,0,,,58,63
78720,note_on,,,,,64,0,5,,,,,4,,,55,92
78720,note_on,,,,,4,0,2,,,,,1,,,58,63
78720,note_on,,,,,4,0,6,,,,,5,,,55,92
78720,note_on,,,,,4,0,3,,,,,2,,,58,108
78720,note_on,,,,,4,0,7,,,,,6,,,43,75
78720,note_on,,,,,4,0,9,,,,,8,,,55,50
78720,note_on,,,,,4,0,8,,,,,7,,,58,50
78720,note_on,,,,,4,0,4,,,,,3,,,58,127
78908,note_off,,,,,188,0,2,,,,,1,,,58,0
78908,note_off,,,,,188,0,4,,,,,3,,,58,0
78908,note_off,,,,,188,0,1,,,,,0,,,58,0
78908,note_off,,,,,188,0,6,,,,,5,,,55,0
78908,note_off,,,,,188,0,9,,,,,8,,,55,0
78908,note_off,,,,,188,0,5,,,,,4,,,55,0
78908,note_off,,,,,188,0,3,,,,,2,,,58,0
78908,note_off,,,,,188,0,7,,,,,6,,,43,0
78912,note_on,,,,,4,0,3,,,,,2,,,67,108
78912,note_on,,,,,4,0,1,,,,,0,,,67,63
78912,note_on,,,,,4,0,2,,,,,1,,,67,63
78912,note_on,,,,,4,0,7,,,,,6,,,39,75
78912,note_on,,,,,4,0,5,,,,,4,,,58,92
78912,note_on,,,,,192,0,8,,,,,7,,,63,50
78912,note_on,,,,,4,0,6,,,,,5,,,51,92
78912,note_on,,,,,4,0,4,,,,,3,,,63,127
78912,note_on,,,,,4,0,9,,,,,8,,,51,50
79100,note_off,,,,,188,0,6,,,,,5,,,51,0
79100,note_off,,,,,188,0,3,,,,,2,,,67,0
79100,note_off,,,,,188,0,1,,,,,0,,,67,0
79100,note_off,,,,,188,0,8,,,,,7,,,58,0
79100,note_off,,,,,0,0,8,,,,,7,,,63,0
79100,note_off,,,,,188,0,2,,,,,1,,,67,0
79100,note_off,,,,,188,0,9,,,,,8,,,51,0
79100,note_off,,,,,188,0,7,,,,,6,,,39,0
79100,note_off,,,,,188,0,5,,,,,4,,,58,0
79104,note_on,,,,,4,0,9,,,,,8,,,55,50
79104,note_on,,,,,4,0,2,,,,,1,,,70,63
79104,note_on,,,,,4,0,7,,,,,6,,,43,75
79104,note_on,,,,,4,0,5,,,,,4,,,58,92
79104,note_on,,,,,4,0,1,,,,,0,,,70,63
79104,note_on,,,,,0,0,8,,,,,7,,,63,50
79104,note_on,,,,,4,0,8,,,,,7,,,58,50
79104,note_on,,,,,4,0,6,,,,,5,,,55,92
79104,note_on,,,,,4,0,3,,,,,2,,,70,108
79232,note_off,,,,,320,0,4,,,,,3,,,63,0
79292,note_off,,,,,188,0,9,,,,,8,,,55,0
79292,note_off,,,,,188,0,5,,,,,4,,,58,0
79292,note_off,,,,,188,0,1,,,,,0,,,70,0
79292,note_off,,,,,188,0,6,,,,,5,,,55,0
79292,note_off,,,,,188,0,7,,,,,6,,,43,0
79292,note_off,,,,,188,0,3,,,,,2,,,70,0
79292,note_off,,,,,188,0,2,,,,,1,,,70,0
79292,note_off,,,,,188,0,8,,,,,7,,,58,0
79296,note_on,,,,,4,0,3,,,,,2,,,68,108
79296,note_on,,,,,4,0,6,,,,,5,,,56,92
79296,note_on,,,,,64,0,4,,,,,3,,,65,127
79296,note_on,,,,,4,0,9,,,,,8,,,56,50
79296,note_on,,,,,4,0,8,,,,,7,,,60,50
79296,note_on,,,,,4,0,5,,,,,4,,,60,92
79296,note_on,,,,,4,0,1,,,,,0,,,68,63
79296,note_on,,,,,4,0,2,,,,,1,,,68,63
79296,note_on,,,,,4,0,7,,,,,6,,,44,75
79388,note_off,,,,,92,0,3,,,,,2,,,68,0
79388,note_off,,,,,92,0,4,,,,,3,,,65,0
79388,note_off,,,,,92,0,1,,,,,0,,,68,0
79388,note_off,,,,,92,0,2,,,,,1,,,68,0
79392,note_on,,,,,4,0,4,,,,,3,,,63,127
79392,note_on,,,,,4,0,2,,,,,1,,,67,63
79392,note_on,,,,,4,0,1,,,,,0,,,67,63
79392,note_on,,,,,4,0,3,,,,,2,,,67,108
79484,note_off,,,,,188,0,7,,,,,6,,,44,0
79484,note_off,,,,,188,0,5,,,,,4,,,60,0
79484,note_off,,,,,92,0,4,,,,,3,,,63,0
79484,note_off,,,,,92,0,2,,,,,1,,,67,0
79484,note_off,,,,,188,0,6,,,,,5,,,56,0
79484,note_off,,,,,188,0,8,,,,,7,,,63,0
79484,note_off,,,,,92,0,1,,,,,0,,,67,0
79484,note_off,,,,,92,0,3,,,,,2,,,67,0
79484,note_off,,,,,188,0,9,,,,,8,,,56,0
79484,note_off,,,,,0,0,8,,,,,7,,,60,0
79488,note_on,,,,,4,0,2,,,,,1,,,67,63
79488,note_on,,,,,4,0,6,,,,,5,,,58,92
79488,note_on,,,,,4,0,4,,,,,3,,,63,127
79488,note_on,,,,,4,0,5,,,,,4,,,58,92
79488,note_on,,,,,0,0,8,,,,,7,,,63,50
79488,note_on,,,,,4,0,7,,,,,6,,,46,75
79488,note_on,,,,,4,0,1,,,,,0,,,67,63
79488,note_on,,,,,4,0,3,,,,,2,,,67,108
79488,note_on,,,,,4,0,9,,,,,8,,,58,50
79488,note_on,,,,,4,0,8,,,,,7,,,58,50
79676,note_off,,,,,188,0,5,,,,,4,,,58,0
79676,note_off,,,,,188,0,8,,,,,7,,,63,0
79676,note_off,,,,,188,0,9,,,,,8,,,58,0
79676,note_off,,,,,188,0,7,,,,,6,,,46,0
79676,note_off,,,,,188,0,2,,,,,1,,,67,0
79676,note_off,,,,,188,0,6,,,,,5,,,58,0
79676,note_off,,,,,188,0,4,,,,,3,,,63,0
79676,note_off,,,,,188,0,3,,,,,2,,,67,0
79676,note_off,,,,,188,0,1,,,,,0,,,67,0
79680,note_on,,,,,4,0,4,,,,,3,,,62,127
79680,note_on,,,,,4,0,6,,,,,5,,,46,92
79680,note_on,,,,,4,0,1,,,,,0,,,65,63
79680,note_on,,,,,4,0,2,,,,,1,,,65,63
79680,note_on,,,,,4,0,9,,,,,8,,,46,50
79680,note_on,,,,,4,0,3,,,,,2,,,65,108
79680,note_on,,,,,4,0,7,,,,,6,,,34,75
79680,note_on,,,,,4,0,5,,,,,4,,,58,92
79680,note_on,,,,,4,0,8,,,,,7,,,62,50
79868,note_off,,,,,188,0,4,,,,,3,,,62,0
79868,note_off,,,,,188,0,5,,,,,4,,,58,0
79868,note_off,,,,,188,0,2,,,,,1,,,65,0
79868,note_off,,,,,0,0,8,,,,,7,,,62,0
79868,note_off,,,,,188,0,8,,,,,7,,,58,0
79868,note_off,,,,,188,0,1,,,,,0,,,65,0
79868,note_off,,,,,188,0,7,,,,,6,,,34,0
79868,note_off,,,,,188,0,6,,,,,5,,,46,0
79868,note_off,,,,,188,0,3,,,,,2,,,65,0
79868,note_off,,,,,188,0,9,,,,,8,,,46,0
79872,note_on,,,,,4,0,9,,,,,8,,,50,50
79872,note_on,,,,,0,0,8,,,,,7,,,74,37
79872,note_on,,,,,0,0,8,,,,,7,,,68,37
79872,note_on,,,,,4,0,5,,,,,4,,,65,92
79872,note_on,,,,,4,0,7,,,,,6,,,38,75
79872,note_on,,,,,4,0,6,,,,,5,,,50,92
79872,note_on,,,,,4,0,8,,,,,7,,,65,37
80060,note_off,,,,,188,0,9,,,,,8,,,50,0
80060,note_off,,,,,188,0,5,,,,,4,,,65,0
80060,note_off,,,,,188,0,6,,,,,5,,,50,0
80060,note_off,,,,,188,0,7,,,,,6,,,38,0
80064,note_on,,,,,196,0,2,,,,,1,,,77,50
80064,note_on,,,,,196,0,3,,,,,2,,,77,75
80064,note_on,,,,,196,0,1,,,,,0,,,77,50
80064,note_on,,,,,4,0,6,,,,,5,,,48,60
80064,note_on,,,,,4,0,9,,,,,8,,,48,37
80064,note_on,,,,,4,0,5,,,,,4,,,68,60
80064,note_on,,,,,196,0,4,,,,,3,,,74,75
80064,note_on,,,,,4,0,7,,,,,6,,,36,60
80192,note_off,,,,,320,0,8,,,,,7,,,65,0
80192,note_off,,,,,0,0,8,,,,,7,,,68,0
80192,note_off,,,,,0,0,8,,,,,7,,,74,0
80252,note_off,,,,,188,0,6,,,,,5,,,48,0
80252,note_off,,,,,188,0,5,,,,,4,,,68,0
80252,note_off,,,,,188,0,3,,,,,2,,,77,0
80252,note_off,,,,,188,0,4,,,,,3,,,74,0
80252,note_off,,,,,188,0,2,,,,,1,,,77,0
80252,note_off,,,,,188,0,9,,,,,8,,,48,0
80252,note_off,,,,,188,0,1,,,,,0,,,77,0
80252,note_off,,,,,188,0,7,,,,,6,,,36,0
80256,note_on,,,,,4,0,5,,,,,4,,,67,60
80256,note_on,,,,,4,0,9,,,,,8,,,47,37
80256,note_on,,,,,4,0,3,,,,,2,,,77,75
80256,note_on,,,,,4,0,4,,,,,3,,,74,75
80256,note_on,,,,,4,0,1,,,,,0,,,77,50
80256,note_on,,,,,4,0,2,,,,,1,,,77,50
80256,note_on,,,,,4,0,6,,,,,5,,,47,60
80256,note_on,,,,,4,0,7,,,,,6,,,35,60
80256,note_on,,,,,0,0,8,,,,,7,,,74,37
80256,note_on,,,,,64,0,8,,,,,7,,,65,37
80256,note_on,,,,,0,0,8,,,,,7,,,67,37
80444,note_off,,,,,188,0,1,,,,,0,,,77,0
80444,note_off,,,,,188,0,2,,,,,1,,,77,0
80444,note_off,,,,,188,0,3,,,,,2,,,77,0
80444,note_off,,,,,188,0,4,,,,,3,,,74,0
80448,note_on,,,,,4,0,4,,,,,3,,,75,75
80448,note_on,,,,,4,0,1,,,,,0,,,79,50
80448,note_on,,,,,4,0,3,,,,,2,,,79,75
80448,note_on,,,,,4,0,2,,,,,1,,,79,50
80576,note_off,,,,,320,0,8,,,,,7,,,65,0
80576,note_off,,,,,0,0,8,,,,,7,,,67,0
80576,note_off,,,,,0,0,8,,,,,7,,,74,0
80576,note_off,,,,,320,0,6,,,,,5,,,47,0
80576,note_off,,,,,320,0,7,,,,,6,,,35,0
80576,note_off,,,,,320,0,5,,,,,4,,,67,0
80576,note_off,,,,,320,0,9,,,,,8,,,47,0
80636,note_off,,,,,188,0,1,,,,,0,,,79,0
80636,note_off,,,,,188,0,3,,,,,2,,,79,0
80636,note_off,,,,,188,0,2,,,,,1,,,79,0
80636,note_off,,,,,188,0,4,,,,,3,,,75,0
80640,note_on,,,,,4,0,3,,,,,2,,,75,75
80640,note_on,,,,,4,0,4,,,,,3,,,72,75
80640,note_on,,,,,4,0,2,,,,,1,,,75,50
80640,note_on,,,,,4,0,1,,,,,0,,,75,50
80828,note_off,,,,,188,0,3,,,,,2,,,75,0
80828,note_off,,,,,188,0,2,,,,,1,,,75,0
80828,note_off,,,,,188,0,1,,,,,0,,,75,0
80828,note_off,,,,,188,0,4,,,,,3,,,72,0
80832,note_on,,,,,4,0,3,,,,,2,,,74,75
80832,note_on,,,,,256,0,8,,,,,7,,,62,37
80832,note_on,,,,,4,0,1,,,,,0,,,74,50
80832,note_on,,,,,4,0,4,,,,,3,,,71,75
80832,note_on,,,,,0,0,8,,,,,7,,,71,37
80832,note_on,,,,,256,0,5,,,,,4,,,67,60
80832,note_on,,,,,256,0,9,,,,,8,,,55,37
80832,note_on,,,,,256,0,6,,,,,5,,,55,60
80832,note_on,,,,,256,0,7,,,,,6,,,43,60
80832,note_on,,,,,4,0,2,,,,,1,,,74,50
80832,note_on,,,,,0,0,8,,,,,7,,,67,37
81020,note_off,,,,,188,0,7,,,,,6,,,43,0
81020,note_off,,,,,188,0,9,,,,,8,,,55,0
81020,note_off,,,,,188,0,1,,,,,0,,,74,0
81020,note_off,,,,,188,0,5,,,,,4,,,67,0
81020,note_off,,,,,188,0,3,,,,,2,,,74,0
81020,note_off,,,,,0,0,8,,,,,7,,,71,0
81020,note_off,,,,,188,0,4,,,,,3,,,71,0
81020,note_off,,,,,188,0,6,,,,,5,,,55,0
81020,note_off,,,,,188,0,2,,,,,1,,,74,0
81020,note_off,,,,,188,0,8,,,,,7,,,62,0
81020,note_off,,,,,0,0,8,,,,,7,,,67,0
81024,note_on,,,,,4,0,7,,,,,6,,,48,60
81024,note_on,,,,,4,0,8,,,,,7,,,63,37
81024,note_on,,,,,0,0,8,,,,,7,,,67,37
81024,note_on,,,,,0,0,8,,,,,7,,,72,37
81024,note_on,,,,,4,0,6,,,,,5,,,60,60
81024,note_on,,,,,4,0,9,,,,,8,,,60,37
81024,note_on,,,,,4,0,2,,,,,1,,,75,50
81024,note_on,,,,,4,0,1,,,,,0,,,75,50
81024,note_on,,,,,4,0,4,,,,,3,,,72,75
81024,note_on,,,,,4,0,3,,,,,2,,,75,75
81024,note_on,,,,,4,0,5,,,,,4,,,67,60
81116,note_off,,,,,92,0,1,,,,,0,,,75,0
81116,note_off,,,,,92,0,4,,,,,3,,,72,0
81116,note_off,,,,,92,0,3,,,,,2,,,75,0
81116,note_off,,,,,92,0,2,,,,,1,,,75,0
81120,note_on,,,,,4,0,2,,,,,1,,,74,50
81120,note_on,,,,,4,0,4,,,,,3,,,71,75
81120,note_on,,,,,4,0,1,,,,,0,,,74,50
81120,note_on,,,,,4,0,3,,,,,2,,,74,75
81212,note_off,,,,,92,0,4,,,,,3,,,71,0
81212,note_off,,,,,92,0,2,,,,,1,,,74,0
81212,note_off,,,,,188,0,7,,,,,6,,,48,0
81212,note_off,,,,,92,0,3,,,,,2,,,74,0
81212,note_off,,,,,188,0,9,,,,,8,,,60,0
81212,note_off,,,,,92,0,1,,,,,0,,,74,0
81212,note_off,,,,,188,0,6,,,,,5,,,60,0
81216,note_on,,,,,4,0,6,,,,,5,,,48,60
81216,note_on,,,,,4,0,7,,,,,6,,,36,60
81216,note_on,,,,,4,0,4,,,,,3,,,72,75
81216,note_on,,,,,4,0,2,,,,,1,,,75,50
81216,note_on,,,,,4,0,9,,,,,8,,,48,37
81216,note_on,,,,,4,0,3,,,,,2,,,75,75
81216,note_on,,,,,4,0,1,,,,,0,,,75,50
81344,note_off,,,,,0,0,8,,,,,7,,,72,0
81344,note_off,,,,,0,0,8,,,,,7,,,67,0
81344,note_off,,,,,320,0,8,,,,,7,,,63,0
81344,note_off,,,,,320,0,5,,,,,4,,,67,0
81404,note_off,,,,,188,0,6,,,,,5,,,48,0
81404,note_off,,,,,188,0,7,,,,,6,,,36,0
81404,note_off,,,,,188,0,9,,,,,8,,,48,0
81408,note_on,,,,,0,0,8,,,,,7,,,67,37
81408,note_on,,,,,64,0,8,,,,,7,,,60,37
81408,note_on,,,,,4,0,7,,,,,6,,,39,60
81408,note_on,,,,,4,0,9,,,,,8,,,51,37
81408,note_on,,,,,4,0,6,,,,,5,,,51,60
81408,note_on,,,,,64,0,5,,,,,4,,,60,60
81536,note_off,,,,,320,0,2,,,,,1,,,75,0
81536,note_off,,,,,320,0,4,,,,,3,,,72,0
81536,note_off,,,,,320,0,3,,,,,2,,,75,0
81536,note_off,,,,,320,0,1,,,,,0,,,75,0
81596,note_off,,,,,188,0,6,,,,,5,,,51,0
81596,note_off,,,,,188,0,5,,,,,4,,,60,0
81596,note_off,,,,,188,0,7,,,,,6,,,39,0
81596,note_off,,,,,188,0,9,,,,,8,,,51,0
81596,note_off,,,,,188,0,8,,,,,7,,,60,0
81600,note_on,,,,,0,0,8,,,,,7,,,72,37
81600,note_on,,,,,4,0,7,,,,,6,,,36,60
81600,note_on,,,,,4,0,9,,,,,8,,,48,37
81600,note_on,,,,,64,0,2,,,,,1,,,75,50
81600,note_on,,,,,4,0,8,,,,,7,,,63,37
81600,note_on,,,,,64,0,3,,,,,2,,,75,75
81600,note_on,,,,,64,0,4,,,,,3,,,72,75
81600,note_on,,,,,4,0,6,,,,,5,,,48,60
81600,note_on,,,,,64,0,1,,,,,0,,,75,50
81600,note_on,,,,,4,0,5,,,,,4,,,67,60
81788,note_off,,,,,188,0,9,,,,,8,,,48,0
81788,note_off,,,,,188,0,5,,,,,4,,,67,0
81788,note_off,,,,,188,0,7,,,,,6,,,36,0
81788,note_off,,,,,188,0,1,,,,,0,,,75,0
81788,note_off,,,,,188,0,3,,,,,2,,,75,0
81788,note_off,,,,,188,0,6,,,,,5,,,48,0
81788,note_off,,,,,188,0,8,,,,,7,,,67,0
81788,note_off,,,,,0,0,8,,,,,7,,,63,0
81788,note_off,,,,,0,0,8,,,,,7,,,72,0
81788,note_off,,,,,188,0,2,,,,,1,,,75,0
81788,note_off,,,,,188,0,4,,,,,3,,,72,0
81792,note_on,,,,,4,0,5,,,,,4,,,67,60
81792,note_on,,,,,4,0,1,,,,,0,,,75,50
81792,note_on,,,,,4,0,2,,,,,1,,,75,50
81792,note_on,,,,,4,0,7,,,,,6,,,43,60
81792,note_on,,,,,0,0,8,,,,,7,,,72,37
81792,note_on,,,,,4,0,9,,,,,8,,,55,37
81792,note_on,,,,,4,0,3,,,,,2,,,75,75
81792,note_on,,,,,4,0,8,,,,,7,,,63,37
81792,note_on,,,,,4,0,6,,,,,5,,,55,60
81792,note_on,,,,,0,0,8,,,,,7,,,67,37
81792,note_on,,,,,4,0,4,,,,,3,,,72,75
81980,note_off,,,,,188,0,7,,,,,6,,,43,0
81980,note_off,,,,,188,0,9,,,,,8,,,55,0
81980,note_off,,,,,188,0,8,,,,,7,,,63,0
81980,note_off,,,,,0,0,8,,,,,7,,,67,0
81980,note_off,,,,,188,0,2,,,,,1,,,75,0
81980,note_off,,,,,188,0,6,,,,,5,,,55,0
81980,note_off,,,,,188,0,5,,,,,4,,,67,0
81980,note_off,,,,,188,0,1,,,,,0,,,75,0
81980,note_off,,,,,188,0,3,,,,,2,,,75,0
81980,note_off,,,,,188,0,4,,,,,3,,,72,0
81984,note_on,,,,,4,0,4,,,,,3,,,74,75
81984,note_on,,,,,4,0,9,,,,,8,,,53,37
81984,note_on,,,,,4,0,3,,,,,2,,,77,75
81984,note_on,,,,,4,0,2,,,,,1,,,77,50
81984,note_on,,,,,4,0,7,,,,,6,,,41,60
81984,note_on,,,,,0,0,8,,,,,7,,,68,37
81984,note_on,,,,,4,0,8,,,,,7,,,65,37
81984,note_on,,,,,4,0,6,,,,,5,,,53,60
81984,note_on,,,,,4,0,1,,,,,0,,,77,50
81984,note_on,,,,,4,0,5,,,,,4,,,68,60
82172,note_off,,,,,188,0,5,,,,,4,,,68,0
82172,note_off,,,,,188,0,4,,,,,3,,,74,0
82172,note_off,,,,,188,0,9,,,,,8,,,53,0
82172,note_off,,,,,188,0,6,,,,,5,,,53,0
82172,note_off,,,,,188,0,7,,,,,6,,,41,0
82172,note_off,,,,,188,0,1,,,,,0,,,77,0
82172,note_off,,,,,0,0,8,,,,,7,,,68,0
82172,note_off,,,,,0,0,8,,,,,7,,,65,0
82172,note_off,,,,,188,0,8,,,,,7,,,72,0
82172,note_off,,,,,188,0,2,,,,,1,,,77,0
82172,note_off,,,,,188,0,3,,,,,2,,,77,0
82176,note_on,,,,,4,0,7,,,,,6,,,43,60
82176,note_on,,,,,4,0,3,,,,,2,,,74,75
82176,note_on,,,,,4,0,6,,,,,5,,,55,60
82176,note_on,,,,,4,0,2,,,,,1,,,74,50
82176,note_on,,,,,4,0,9,,,,,8,,,55,37
82176,note_on,,,,,4,0,4,,,,,3,,,71,75
82176,note_on,,,,,0,0,8,,,,,7,,,67,37
82176,note_on,,,,,0,0,8,,,,,7,,,71,37
82176,note_on,,,,,4,0,5,,,,,4,,,67,60
82176,note_on,,,,,4,0,1,,,,,0,,,74,50
82176,note_on,,,,,4,0,8,,,,,7,,,62,37
82364,note_off,,,,,0,0,8,,,,,7,,,67,0
82364,note_off,,,,,188,0,6,,,,,5,,,55,0
82364,note_off,,,,,188,0,9,,,,,8,,,55,0
82364,note_off,,,,,0,0,8,,,,,7,,,71,0
82364,note_off,,,,,188,0,7,,,,,6,,,43,0
82364,note_off,,,,,188,0,8,,,,,7,,,62,0
82364,note_off,,,,,188,0,2,,,,,1,,,74,0
82364,note_off,,,,,188,0,4,,,,,3,,,71,0
82364,note_off,,,,,188,0,5,,,,,4,,,67,0
82364,note_off,,,,,188,0,1,,,,,0,,,74,0
82364,note_off,,,,,188,0,3,,,,,2,,,74,0
82368,note_on,,,,,4,0,4,,,,,3,,,69,75
82368,note_on,,,,,4,0,5,,,,,4,,,63,60
82368,note_on,,,,,4,0,1,,,,,0,,,72,50
82368,note_on,,,,,4,0,6,,,,,5,,,48,60
82368,note_on,,,,,4,0,9,,,,,8,,,48,37
82368,note_on,,,,,4,0,3,,,,,2,,,72,75
82368,note_on,,,,,4,0,2,,,,,1,,,72,50
82368,note_on,,,,,4,0,8,,,,,7,,,63,37
82368,note_on,,,,,4,0,7,,,,,6,,,36,60
82368,note_on,,,,,0,0,8,,,,,7,,,67,37
82368,note_on,,,,,0,0,8,,,,,7,,,69,37
82556,note_off,,,,,188,0,5,,,,,4,,,63,0
82556,note_off,,,,,188,0,3,,,,,2,,,72,0
82556,note_off,,,,,188,0,6,,,,,5,,,48,0
82556,note_off,,,,,188,0,1,,,,,0,,,72,0
82556,note_off,,,,,188,0,2,,,,,1,,,72,0
82556,note_off,,,,,0,0,8,,,,,7,,,67,0
82556,note_off,,,,,188,0,8,,,,,7,,,63,0
82556,note_off,,,,,0,0,8,,,,,7,,,69,0
82556,note_off,,,,,188,0,9,,,,,8,,,48,0
82556,note_off,,,,,188,0,7,,,,,6,,,36,0
82556,note_off,,,,,188,0,4,,,,,3,,,69,0
82560,note_on,,,,,4,0,4,,,,,3,,,71,75
82560,note_on,,,,,4,0,1,,,,,0,,,74,50
82560,note_on,,,,,4,0,8,,,,,7,,,62,37
82560,note_on,,,,,0,0,8,,,,,7,,,67,37
82560,note_on,,,,,0,0,8,,,,,7,,,71,37
82560,note_on,,,,,4,0,7,,,,,6,,,31,60
82560,note_on,,,,,4,0,9,,,,,8,,,43,37
82560,note_on,,,,,4,0,3,,,,,2,,,74,75
82560,note_on,,,,,4,0,5,,,,,4,,,67,60
82560,note_on,,,,,4,0,6,,,,,5,,,43,60
82560,note_on,,,,,4,0,2,,,,,1,,,74,50
82652,note_off,,,,,92,0,1,,,,,0,,,74,0
82652,note_off,,,,,92,0,3,,,,,2,,,74,0
82652,note_off,,,,,92,0,4,,,,,3,,,71,0
82652,note_off,,,,,92,0,2,,,,,1,,,74,0
82656,note_on,,,,,4,0,3,,,,,2,,,72,75
82656,note_on,,,,,4,0,2,,,,,1,,,72,50
82656,note_on,,,,,4,0,4,,,,,3,,,69,75
82656,note_on,,,,,4,0,1,,,,,0,,,72,50
82748,note_off,,,,,92,0,3,,,,,2,,,72,0
82748,note_off,,,,,92,0,1,,,,,0,,,72,0
82748,note_off,,,,,92,0,2,,,,,1,,,72,0
82748,note_off,,,,,92,0,4,,,,,3,,,69,0
82752,note_on,,,,,4,0,3,,,,,2,,,74,75
82752,note_on,,,,,4,0,2,,,,,1,,,74,50
82752,note_on,,,,,4,0,4,,,,,3,,,71,75
82752,note_on,,,,,4,0,1,,,,,0,,,74,50
82880,note_off,,,,,320,0,6,,,,,5,,,43,0
82880,note_off,,,,,320,0,5,,,,,4,,,67,0
82880,note_off,,,,,320,0,7,,,,,6,,,31,0
82880,note_off,,,,,320,0,9,,,,,8,,,43,0
82880,note_off,,,,,320,0,8,,,,,7,,,62,0
82880,note_off,,,,,0,0,8,,,,,7,,,67,0
82880,note_off,,,,,0,0,8,,,,,7,,,71,0
82940,note_off,,,,,188,0,4,,,,,3,,,71,0
82940,note_off,,,,,188,0,2,,,,,1,,,74,0
82940,note_off,,,,,188,0,1,,,,,0,,,74,0
82940,note_off,,,,,188,0,3,,,,,2,,,74,0
83136,note_on,,,,,196,0,3,,,,,2,,,79,108
83136,note_on,,,,,196,0,1,,,,,0,,,79,63
83136,note_on,,,,,196,0,2,,,,,1,,,79,63
83324,note_off,,,,,188,0,1,,,,,0,,,79,0
83324,note_off,,,,,188,0,3,,,,,2,,,79,0
83324,note_off,,,,,188,0,2,,,,,1,,,79,0
83328,note_on,,,,,4,0,3,,,,,2,,,84,108
83328,note_on,,,,,4,0,2,,,,,1,,,84,63
83328,note_on,,,,,4,0,1,,,,,0,,,84,63
83516,note_off,,,,,188,0,2,,,,,1,,,84,0
83516,note_off,,,,,188,0,3,,,,,2,,,84,0
83516,note_off,,,,,188,0,1,,,,,0,,,84,0
83520,note_on,,,,,4,0,1,,,,,0,,,79,63
83520,note_on,,,,,4,0,2,,,,,1,,,79,63
83520,note_on,,,,,4,0,3,,,,,2,,,79,108
83612,note_off,,,,,92,0,1,,,,,0,,,79,0
83612,note_off,,,,,92,0,3,,,,,2,,,79,0
83612,note_off,,,,,92,0,2,,,,,1,,,79,0
83616,note_on,,,,,4,0,2,,,,,1,,,77,63
83616,note_on,,,,,4,0,3,,,,,2,,,77,108
83616,note_on,,,,,4,0,1,,,,,0,,,77,63
83708,note_off,,,,,92,0,3,,,,,2,,,77,0
83708,note_off,,,,,92,0,1,,,,,0,,,77,0
83708,note_off,,,,,92,0,2,,,,,1,,,77,0
83712,note_on,,,,,4,0,3,,,,,2,,,75,108
83712,note_on,,,,,4,0,2,,,,,1,,,75,63
83712,note_on,,,,,4,0,1,,,,,0,,,75,63
83900,note_off,,,,,188,0,2,,,,,1,,,75,0
83900,note_off,,,,,188,0,1,,,,,0,,,75,0
83900,note_off,,,,,188,0,3,,,,,2,,,75,0
83904,note_on,,,,,0,0,8,,,,,7,,,67,50
83904,note_on,,,,,1024,0,9,,,,,8,,,55,50
83904,note_on,,,,,1024,0,7,,,,,6,,,43,75
83904,note_on,,,,,1024,0,6,,,,,5,,,55,92
83904,note_on,,,,,4,0,2,,,,,1,,,74,63
83904,note_on,,,,,0,0,8,,,,,7,,,71,50
83904,note_on,,,,,4,0,1,,,,,0,,,74,63
83904,note_on,,,,,1024,0,5,,,,,4,,,62,92
83904,note_on,,,,,964,0,4,,,,,3,,,71,127
83904,note_on,,,,,1024,0,8,,,,,7,,,62,50
83904,note_on,,,,,4,0,3,,,,,2,,,74,108
83996,note_off,,,,,92,0,2,,,,,1,,,74,0
83996,note_off,,,,,92,0,3,,,,,2,,,74,0
83996,note_off,,,,,92,0,1,,,,,0,,,74,0
84000,note_on,,,,,4,0,3,,,,,2,,,75,108
84000,note_on,,,,,4,0,1,,,,,0,,,75,63
84000,note_on,,,,,4,0,2,,,,,1,,,75,63
84092,note_off,,,,,188,0,7,,,,,6,,,43,0
84092,note_off,,,,,188,0,6,,,,,5,,,55,0
84092,note_off,,,,,0,0,8,,,,,7,,,71,0
84092,note_off,,,,,188,0,8,,,,,7,,,62,0
84092,note_off,,,,,188,0,9,,,,,8,,,55,0
84092,note_off,,,,,188,0,4,,,,,3,,,71,0
84092,note_off,,,,,92,0,3,,,,,2,,,75,0
84092,note_off,,,,,0,0,8,,,,,7,,,67,0
84092,note_off,,,,,92,0,1,,,,,0,,,75,0
84092,note_off,,,,,188,0,5,,,,,4,,,62,0
84092,note_off,,,,,92,0,2,,,,,1,,,75,0
84096,note_on,,,,,4,0,2,,,,,1,,,72,63
84096,note_on,,,,,4,0,3,,,,,2,,,72,108
84096,note_on,,,,,4,0,1,,,,,0,,,72,63
84096,note_on,,,,,4,0,7,,,,,6,,,48,75
84096,note_on,,,,,4,0,6,,,,,5,,,60,92
84096,note_on,,,,,4,0,4,,,,,3,,,67,127
84096,note_on,,,,,4,0,9,,,,,8,,,60,50
84096,note_on,,,,,0,0,8,,,,,7,,,72,50
84096,note_on,,,,,4,0,5,,,,,4,,,63,92
84096,note_on,,,,,4,0,8,,,,,7,,,63,50
84096,note_on,,,,,0,0,8,,,,,7,,,67,50
84284,note_off,,,,,188,0,9,,,,,8,,,60,0
84284,note_off,,,,,188,0,6,,,,,5,,,60,0
84284,note_off,,,,,188,0,4,,,,,3,,,67,0
84284,note_off,,,,,188,0,7,,,,,6,,,48,0
84288,note_on,,,,,4,0,7,,,,,6,,,43,75
84288,note_on,,,,,4,0,4,,,,,3,,,63,127
84288,note_on,,,,,4,0,6,,,,,5,,,55,92
84288,note_on,,,,,4,0,9,,,,,8,,,55,50
84380,note_off,,,,,92,0,9,,,,,8,,,55,0
84380,note_off,,,,,92,0,6,,,,,5,,,55,0
84380,note_off,,,,,92,0,7,,,,,6,,,43,0
84380,note_off,,,,,92,0,4,,,,,3,,,63,0
84384,note_on,,,,,4,0,4,,,,,3,,,62,127
84384,note_on,,,,,4,0,6,,,,,5,,,53,92
84384,note_on,,,,,4,0,9,,,,,8,,,53,50
84384,note_on,,,,,4,0,7,,,,,6,,,41,75
84416,note_off,,,,,0,0,8,,,,,7,,,67,0
84416,note_off,,,,,320,0,1,,,,,0,,,72,0
84416,note_off,,,,,320,0,5,,,,,4,,,63,0
84416,note_off,,,,,320,0,8,,,,,7,,,63,0
84416,note_off,,,,,320,0,2,,,,,1,,,72,0
84416,note_off,,,,,0,0,8,,,,,7,,,72,0
84416,note_off,,,,,320,0,3,,,,,2,,,72,0
84476,note_off,,,,,92,0,7,,,,,6,,,41,0
84476,note_off,,,,,92,0,6,,,,,5,,,53,0
84476,note_off,,,,,92,0,4,,,,,3,,,62,0
84476,note_off,,,,,92,0,9,,,,,8,,,53,0
84480,note_on,,,,,4,0,7,,,,,6,,,39,75
84480,note_on,,,,,64,0,8,,,,,7,,,59,50
84480,note_on,,,,,0,0,8,,,,,7,,,72,50
84480,note_on,,,,,4,0,6,,,,,5,,,51,92
84480,note_on,,,,,4,0,4,,,,,3,,,60,127
84480,note_on,,,,,0,0,8,,,,,7,,,67,50
84480,note_on,,,,,4,0,9,,,,,8,,,51,50
84668,note_off,,,,,188,0,6,,,,,5,,,51,0
84668,note_off,,,,,188,0,7,,,,,6,,,39,0
84668,note_off,,,,,0,0,8,,,,,7,,,67,0
84668,note_off,,,,,188,0,9,,,,,8,,,51,0
84668,note_off,,,,,188,0,4,,,,,3,,,60,0
84668,note_off,,,,,188,0,8,,,,,7,,,59,0
84668,note_off,,,,,0,0,8,,,,,7,,,72,0
84672,note_on,,,,,4,0,7,,,,,6,,,38,75
84672,note_on,,,,,4,0,8,,,,,7,,,65,50
84672,note_on,,,,,0,0,8,,,,,7,,,74,50
84672,note_on,,,,,256,0,3,,,,,2,,,62,108
84672,note_on,,,,,4,0,6,,,,,5,,,50,92
84672,note_on,,,,,4,0,9,,,,,8,,,50,50
84672,note_on,,,,,256,0,5,,,,,4,,,53,92
84672,note_on,,,,,4,0,4,,,,,3,,,59,127
84672,note_on,,,,,256,0,1,,,,,0,,,62,63
84672,note_on,,,,,256,0,2,,,,,1,,,62,63
84764,note_off,,,,,92,0,6,,,,,5,,,50,0
84764,note_off,,,,,92,0,9,,,,,8,,,50,0
84764,note_off,,,,,92,0,7,,,,,6,,,38,0
84768,note_on,,,,,4,0,9,,,,,8,,,51,50
84768,note_on,,,,,4,0,6,,,,,5,,,51,92
84768,note_on,,,,,4,0,7,,,,,6,,,39,75
84860,note_off,,,,,188,0,5,,,,,4,,,53,0
84860,note_off,,,,,92,0,6,,,,,5,,,51,0
84860,note_off,,,,,188,0,3,,,,,2,,,62,0
84860,note_off,,,,,92,0,7,,,,,6,,,39,0
84860,note_off,,,,,92,0,9,,,,,8,,,51,0
84860,note_off,,,,,188,0,8,,,,,7,,,65,0
84860,note_off,,,,,0,0,8,,,,,7,,,74,0
84860,note_off,,,,,188,0,4,,,,,3,,,59,0
84860,note_off,,,,,188,0,2,,,,,1,,,62,0
84860,note_off,,,,,188,0,1,,,,,0,,,62,0
84864,note_on,,,,,0,0,8,,,,,7,,,67,50
84864,note_on,,,,,4,0,9,,,,,8,,,48,50
84864,note_on,,,,,4,0,8,,,,,7,,,63,50
84864,note_on,,,,,4,0,3,,,,,2,,,63,108
84864,note_on,,,,,4,0,2,,,,,1,,,63,63
84864,note_on,,,,,4,0,6,,,,,5,,,48,92
84864,note_on,,,,,4,0,7,,,,,6,,,36,75
84864,note_on,,,,,4,0,5,,,,,4,,,55,92
84864,note_on,,,,,4,0,4,,,,,3,,,60,127
84864,note_on,,,,,4,0,1,,,,,0,,,63,63
84956,note_off,,,,,92,0,2,,,,,1,,,63,0
84956,note_off,,,,,92,0,1,,,,,0,,,63,0
84956,note_off,,,,,92,0,3,,,,,2,,,63,0
84960,note_on,,,,,4,0,1,,,,,0,,,67,63
84960,note_on,,,,,4,0,3,,,,,2,,,67,108
84960,note_on,,,,,4,0,2,,,,,1,,,67,63
85052,note_off,,,,,92,0,1,,,,,0,,,67,0
85052,note_off,,,,,92,0,3,,,,,2,,,67,0
85052,note_off,,,,,92,0,2,,,,,1,,,67,0
85056,note_on,,,,,4,0,3,,,,,2,,,60,108
85056,note_on,,,,,4,0,1,,,,,0,,,60,63
85056,note_on,,,,,4,0,2,,,,,1,,,60,63
85148,note_off,,,,,92,0,1,,,,,0,,,60,0
85148,note_off,,,,,92,0,2,,,,,1,,,60,0
85148,note_off,,,,,92,0,3,,,,,2,,,60,0
85152,note_on,,,,,4,0,2,,,,,1,,,62,63
85152,note_on,,,,,4,0,3,,,,,2,,,62,108
85152,note_on,,,,,4,0,1,,,,,0,,,62,63
85184,note_off,,,,,320,0,5,,,,,4,,,55,0
85184,note_off,,,,,0,0,8,,,,,7,,,67,0
85184,note_off,,,,,320,0,7,,,,,6,,,36,0
85184,note_off,,,,,320,0,6,,,,,5,,,48,0
85184,note_off,,,,,320,0,4,,,,,3,,,60,0
85184,note_off,,,,,320,0,8,,,,,7,,,63,0
85184,note_off,,,,,320,0,9,,,,,8,,,48,0
85244,note_off,,,,,92,0,3,,,,,2,,,62,0
85244,note_off,,,,,92,0,2,,,,,1,,,62,0
85244,note_off,,,,,92,0,1,,,,,0,,,62,0
85248,note_on,,,,,4,0,2,,,,,1,,,63,63
85248,note_on,,,,,4,0,1,,,,,0,,,63,63
85248,note_on,,,,,4,0,3,,,,,2,,,63,108
85340,note_off,,,,,92,0,2,,,,,1,,,63,0
85340,note_off,,,,,92,0,1,,,,,0,,,63,0
85340,note_off,,,,,92,0,3,,,,,2,,,63,0
85344,note_on,,,,,4,0,3,,,,,2,,,65,108
85344,note_on,,,,,4,0,2,,,,,1,,,65,63
85344,note_on,,,,,4,0,1,,,,,0,,,65,63
85436,note_off,,,,,92,0,2,,,,,1,,,65,0
85436,note_off,,,,,92,0,3,,,,,2,,,65,0
85436,note_off,,,,,92,0,1,,,,,0,,,65,0
85440,note_on,,,,,0,0,8,,,,,7,,,65,50
85440,note_on,,,,,256,0,8,,,,,7,,,60,50
85440,note_on,,,,,256,0,9,,,,,8,,,53,50
85440,note_on,,,,,256,0,4,,,,,3,,,60,127
85440,note_on,,,,,4,0,2,,,,,1,,,67,63
85440,note_on,,,,,0,0,8,,,,,7,,,69,50
85440,note_on,,,,,256,0,6,,,,,5,,,53,92
85440,note_on,,,,,4,0,3,,,,,2,,,67,108
85440,note_on,,,,,256,0,5,,,,,4,,,53,92
85440,note_on,,,,,256,0,7,,,,,6,,,41,75
85440,note_on,,,,,4,0,1,,,,,0,,,67,63
85532,note_off,,,,,92,0,3,,,,,2,,,67,0
85532,note_off,,,,,92,0,2,,,,,1,,,67,0
85532,note_off,,,,,92,0,1,,,,,0,,,67,0
85536,note_on,,,,,4,0,1,,,,,0,,,69,63
85536,note_on,,,,,4,0,3,,,,,2,,,69,108
85536,note_on,,,,,4,0,2,,,,,1,,,69,63
85628,note_off,,,,,92,0,2,,,,,1,,,69,0
85628,note_off,,,,,0,0,8,,,,,7,,,65,0
85628,note_off,,,,,188,0,8,,,,,7,,,60,0
85628,note_off,,,,,92,0,1,,,,,0,,,69,0
85628,note_off,,,,,188,0,5,,,,,4,,,53,0
85628,note_off,,,,,188,0,6,,,,,5,,,53,0
85628,note_off,,,,,0,0,8,,,,,7,,,69,0
85628,note_off,,,,,92,0,3,,,,,2,,,69,0
85628,note_off,,,,,188,0,4,,,,,3,,,60,0
85628,note_off,,,,,188,0,9,,,,,8,,,53,0
85628,note_off,,,,,188,0,7,,,,,6,,,41,0
85632,note_on,,,,,4,0,2,,,,,1,,,70,63
85632,note_on,,,,,4,0,5,,,,,4,,,65,92
85632,note_on,,,,,4,0,3,,,,,2,,,70,108
85632,note_on,,,,,4,0,8,,,,,7,,,62,50
85632,note_on,,,,,4,0,1,,,,,0,,,70,63
85632,note_on,,,,,4,0,6,,,,,5,,,58,92
85632,note_on,,,,,4,0,7,,,,,6,,,46,75
85632,note_on,,,,,4,0,9,,,,,8,,,58,50
85632,note_on,,,,,0,0,8,,,,,7,,,65,50
85632,note_on,,,,,0,0,8,,,,,7,,,70,50
85632,note_on,,,,,4,0,4,,,,,3,,,62,127
85820,note_off,,,,,188,0,7,,,,,6,,,46,0
85820,note_off,,,,,188,0,9,,,,,8,,,58,0
85820,note_off,,,,,188,0,5,,,,,4,,,65,0
85820,note_off,,,,,188,0,4,,,,,3,,,62,0
85820,note_off,,,,,188,0,6,,,,,5,,,58,0
85824,note_on,,,,,4,0,9,,,,,8,,,53,50
85824,note_on,,,,,4,0,6,,,,,5,,,53,92
85824,note_on,,,,,4,0,4,,,,,3,,,62,127
85824,note_on,,,,,4,0,5,,,,,4,,,65,92
85824,note_on,,,,,4,0,7,,,,,6,,,41,75
85916,note_off,,,,,92,0,4,,,,,3,,,62,0
85916,note_off,,,,,92,0,6,,,,,5,,,53,0
85916,note_off,,,,,92,0,5,,,,,4,,,65,0
85916,note_off,,,,,92,0,7,,,,,6,,,41,0
85916,note_off,,,,,92,0,9,,,,,8,,,53,0
85920,note_on,,,,,4,0,5,,,,,4,,,67,92
85920,note_on,,,,,4,0,4,,,,,3,,,63,127
85920,note_on,,,,,4,0,6,,,,,5,,,51,92
85920,note_on,,,,,4,0,9,,,,,8,,,51,50
85920,note_on,,,,,4,0,7,,,,,6,,,39,75
85952,note_off,,,,,0,0,8,,,,,7,,,70,0
85952,note_off,,,,,320,0,2,,,,,1,,,70,0
85952,note_off,,,,,320,0,3,,,,,2,,,70,0
85952,note_off,,,,,320,0,1,,,,,0,,,70,0
85952,note_off,,,,,320,0,8,,,,,7,,,62,0
85952,note_off,,,,,0,0,8,,,,,7,,,65,0
86012,note_off,,,,,92,0,7,,,,,6,,,39,0
86012,note_off,,,,,92,0,6,,,,,5,,,51,0
86012,note_off,,,,,92,0,9,,,,,8,,,51,0
86012,note_off,,,,,92,0,4,,,,,3,,,63,0
86012,note_off,,,,,92,0,5,,,,,4,,,67,0
86016,note_on,,,,,64,0,8,,,,,7,,,62,50
86016,note_on,,,,,4,0,7,,,,,6,,,38,75
86016,note_on,,,,,4,0,4,,,,,3,,,65,127
86016,note_on,,,,,0,0,8,,,,,7,,,68,50
86016,note_on,,,,,0,0,8,,,,,7,,,65,50
86016,note_on,,,,,4,0,6,,,,,5,,,50,92
86016,note_on,,,,,4,0,5,,,,,4,,,68,92
86016,note_on,,,,,4,0,9,,,,,8,,,50,50
86204,note_off,,,,,188,0,6,,,,,5,,,50,0
86204,note_off,,,,,188,0,4,,,,,3,,,65,0
86204,note_off,,,,,188,0,9,,,,,8,,,50,0
86204,note_off,,,,,188,0,7,,,,,6,,,38,0
86204,note_off,,,,,188,0,5,,,,,4,,,68,0
86208,note_on,,,,,256,0,3,,,,,2,,,74,108
86208,note_on,,,,,256,0,1,,,,,0,,,74,63
86208,note_on,,,,,4,0,4,,,,,3,,,67,127
86208,note_on,,,,,4,0,9,,,,,8,,,51,50
86208,note_on,,,,,4,0,5,,,,,4,,,62,92
86208,note_on,,,,,256,0,2,,,,,1,,,74,63
86208,note_on,,,,,4,0,7,,,,,6,,,39,75
86208,note_on,,,,,4,0,6,,,,,5,,,51,92
86300,note_off,,,,,92,0,6,,,,,5,,,51,0
86300,note_off,,,,,92,0,4,,,,,3,,,67,0
86300,note_off,,,,,92,0,7,,,,,6,,,39,0
86300,note_off,,,,,92,0,9,,,,,8,,,51,0
86304,note_on,,,,,4,0,6,,,,,5,,,53,92
86304,note_on,,,,,4,0,7,,,,,6,,,41,75
86304,note_on,,,,,4,0,4,,,,,3,,,68,127
86304,note_on,,,,,4,0,9,,,,,8,,,53,50
86336,note_off,,,,,0,0,8,,,,,7,,,65,0
86336,note_off,,,,,0,0,8,,,,,7,,,68,0
86336,note_off,,,,,320,0,8,,,,,7,,,62,0
86396,note_off,,,,,92,0,9,,,,,8,,,53,0
86396,note_off,,,,,92,0,4,,,,,3,,,68,0
86396,note_off,,,,,92,0,7,,,,,6,,,41,0
86396,note_off,,,,,188,0,5,,,,,4,,,62,0
86396,note_off,,,,,188,0,1,,,,,0,,,74,0
86396,note_off,,,,,188,0,3,,,,,2,,,74,0
86396,note_off,,,,,188,0,2,,,,,1,,,74,0
86396,note_off,,,,,92,0,6,,,,,5,,,53,0
86400,note_on,,,,,0,0,8,,,,,7,,,62,50
86400,note_on,,,,,4,0,5,,,,,4,,,67,92
86400,note_on,,,,,4,0,6,,,,,5,,,43,92
86400,note_on,,,,,4,0,2,,,,,1,,,71,63
86400,note_on,,,,,4,0,9,,,,,8,,,43,50
86400,note_on,,,,,0,0,8,,,,,7,,,67,50
86400,note_on,,,,,4,0,1,,,,,0,,,71,63
86400,note_on,,,,,64,0,8,,,,,7,,,59,50
86400,note_on,,,,,4,0,3,,,,,2,,,71,108
86400,note_on,,,,,4,0,7,,,,,6,,,31,75
86400,note_on,,,,,4,0,4,,,,,3,,,62,127
86492,note_off,,,,,92,0,1,,,,,0,,,71,0
86492,note_off,,,,,92,0,2,,,,,1,,,71,0
86492,note_off,,,,,92,0,3,,,,,2,,,71,0
86496,note_on,,,,,4,0,1,,,,,0,,,67,63
86496,note_on,,,,,4,0,2,,,,,1,,,67,63
86496,note_on,,,,,4,0,3,,,,,2,,,67,108
86588,note_off,,,,,92,0,2,,,,,1,,,67,0
86588,note_off,,,,,92,0,3,,,,,2,,,67,0
86588,note_off,,,,,92,0,1,,,,,0,,,67,0
86592,note_on,,,,,4,0,2,,,,,1,,,71,63
86592,note_on,,,,,4,0,3,,,,,2,,,71,108
86592,note_on,,,,,4,0,1,,,,,0,,,71,63
86684,note_off,,,,,92,0,2,,,,,1,,,71,0
86684,note_off,,,,,92,0,3,,,,,2,,,71,0
86684,note_off,,,,,92,0,1,,,,,0,,,71,0
86688,note_on,,,,,4,0,1,,,,,0,,,74,63
86688,note_on,,,,,4,0,3,,,,,2,,,74,108
86688,note_on,,,,,4,0,2,,,,,1,,,74,63
86720,note_off,,,,,320,0,8,,,,,7,,,59,0
86720,note_off,,,,,0,0,8,,,,,7,,,67,0
86720,note_off,,,,,320,0,7,,,,,6,,,31,0
86720,note_off,,,,,320,0,4,,,,,3,,,62,0
86720,note_off,,,,,320,0,9,,,,,8,,,43,0
86720,note_off,,,,,320,0,5,,,,,4,,,67,0
86720,note_off,,,,,320,0,6,,,,,5,,,43,0
86720,note_off,,,,,0,0,8,,,,,7,,,62,0
86780,note_off,,,,,92,0,2,,,,,1,,,74,0
86780,note_off,,,,,92,0,1,,,,,0,,,74,0
86780,note_off,,,,,92,0,3,,,,,2,,,74,0
86784,note_on,,,,,4,0,2,,,,,1,,,71,63
86784,note_on,,,,,4,0,1,,,,,0,,,71,63
86784,note_on,,,,,4,0,3,,,,,2,,,71,108
86876,note_off,,,,,92,0,1,,,,,0,,,71,0
86876,note_off,,,,,92,0,2,,,,,1,,,71,0
86876,note_off,,,,,92,0,3,,,,,2,,,71,0
86880,note_on,,,,,4,0,1,,,,,0,,,74,63
86880,note_on,,,,,4,0,2,,,,,1,,,74,63
86880,note_on,,,,,4,0,3,,,,,2,,,74,108
86972,note_off,,,,,92,0,3,,,,,2,,,74,0
86972,note_off,,,,,92,0,1,,,,,0,,,74,0
86972,note_off,,,,,92,0,2,,,,,1,,,74,0
86976,note_on,,,,,0,0,8,,,,,7,,,67,50
86976,note_on,,,,,256,0,4,,,,,3,,,62,127
86976,note_on,,,,,256,0,9,,,,,8,,,55,50
86976,note_on,,,,,0,0,8,,,,,7,,,62,50
86976,note_on,,,,,4,0,3,,,,,2,,,72,108
86976,note_on,,,,,4,0,1,,,,,0,,,72,63
86976,note_on,,,,,256,0,8,,,,,7,,,59,50
86976,note_on,,,,,256,0,5,,,,,4,,,67,92
86976,note_on,,,,,256,0,7,,,,,6,,,43,75
86976,note_on,,,,,256,0,6,,,,,5,,,55,92
86976,note_on,,,,,4,0,2,,,,,1,,,72,63
87068,note_off,,,,,92,0,2,,,,,1,,,72,0
87068,note_off,,,,,92,0,3,,,,,2,,,72,0
87068,note_off,,,,,92,0,1,,,,,0,,,72,0
87072,note_on,,,,,4,0,2,,,,,1,,,71,63
87072,note_on,,,,,4,0,1,,,,,0,,,71,63
87072,note_on,,,,,4,0,3,,,,,2,,,71,108
87164,note_off,,,,,92,0,3,,,,,2,,,71,0
87164,note_off,,,,,188,0,5,,,,,4,,,67,0
87164,note_off,,,,,188,0,4,,,,,3,,,62,0
87164,note_off,,,,,0,0,8,,,,,7,,,62,0
87164,note_off,,,,,92,0,1,,,,,0,,,71,0
87164,note_off,,,,,188,0,8,,,,,7,,,59,0
87164,note_off,,,,,188,0,9,,,,,8,,,55,0
87164,note_off,,,,,0,0,8,,,,,7,,,67,0
87164,note_off,,,,,92,0,2,,,,,1,,,71,0
87164,note_off,,,,,188,0,6,,,,,5,,,55,0
87164,note_off,,,,,188,0,7,,,,,6,,,43,0
87168,note_on,,,,,4,0,2,,,,,1,,,72,63
87168,note_on,,,,,4,0,7,,,,,6,,,39,75
87168,note_on,,,,,4,0,8,,,,,7,,,60,50
87168,note_on,,,,,4,0,4,,,,,3,,,67,127
87168,note_on,,,,,0,0,8,,,,,7,,,67,50
87168,note_on,,,,,4,0,6,,,,,5,,,51,92
87168,note_on,,,,,4,0,3,,,,,2,,,72,108
87168,note_on,,,,,4,0,1,,,,,0,,,72,63
87168,note_on,,,,,4,0,5,,,,,4,,,60,92
87168,note_on,,,,,4,0,9,,,,,8,,,51,50
87260,note_off,,,,,92,0,1,,,,,0,,,72,0
87260,note_off,,,,,92,0,3,,,,,2,,,72,0
87260,note_off,,,,,92,0,2,,,,,1,,,72,0
87264,note_on,,,,,4,0,2,,,,,1,,,67,63
87264,note_on,,,,,4,0,3,,,,,2,,,67,108
87264,note_on,,,,,4,0,1,,,,,0,,,67,63
87356,note_off,,,,,0,0,8,,,,,7,,,67,0
87356,note_off,,,,,92,0,3,,,,,2,,,67,0
87356,note_off,,,,,92,0,1,,,,,0,,,67,0
87356,note_off,,,,,92,0,2,,,,,1,,,67,0
87356,note_off,,,,,188,0,8,,,,,7,,,60,0
87356,note_off,,,,,188,0,6,,,,,5,,,51,0
87356,note_off,,,,,188,0,9,,,,,8,,,51,0
87356,note_off,,,,,188,0,7,,,,,6,,,39,0
87356,note_off,,,,,188,0,5,,,,,4,,,60,0
87356,note_off,,,,,188,0,4,,,,,3,,,67,0
87360,note_on,,,,,4,0,3,,,,,2,,,72,108
87360,note_on,,,,,4,0,4,,,,,3,,,63,127
87360,note_on,,,,,4,0,1,,,,,0,,,72,63
87360,note_on,,,,,4,0,6,,,,,5,,,48,92
87360,note_on,,,,,4,0,5,,,,,4,,,55,92
87360,note_on,,,,,4,0,2,,,,,1,,,72,63
87360,note_on,,,,,4,0,9,,,,,8,,,48,50
87360,note_on,,,,,4,0,8,,,,,7,,,60,50
87360,note_on,,,,,0,0,8,,,,,7,,,63,50
87360,note_on,,,,,4,0,7,,,,,6,,,36,75
87452,note_off,,,,,92,0,3,,,,,2,,,72,0
87452,note_off,,,,,92,0,2,,,,,1,,,72,0
87452,note_off,,,,,92,0,1,,,,,0,,,72,0
87456,note_on,,,,,4,0,3,,,,,2,,,75,108
87456,note_on,,,,,4,0,1,,,,,0,,,75,63
87456,note_on,,,,,4,0,2,,,,,1,,,75,63
87548,note_off,,,,,92,0,2,,,,,1,,,75,0
87548,note_off,,,,,0,0,8,,,,,7,,,63,0
87548,note_off,,,,,188,0,7,,,,,6,,,36,0
87548,note_off,,,,,188,0,6,,,,,5,,,48,0
87548,note_off,,,,,188,0,9,,,,,8,,,48,0
87548,note_off,,,,,188,0,5,,,,,4,,,55,0
87548,note_off,,,,,92,0,3,,,,,2,,,75,0
87548,note_off,,,,,92,0,1,,,,,0,,,75,0
87548,note_off,,,,,188,0,4,,,,,3,,,63,0
87548,note_off,,,,,188,0,8,,,,,7,,,60,0
87552,note_on,,,,,4,0,2,,,,,1,,,72,63
87552,note_on,,,,,4,0,1,,,,,0,,,72,63
87552,note_on,,,,,4,0,3,,,,,2,,,72,108
87644,note_off,,,,,92,0,2,,,,,1,,,72,0
87644,note_off,,,,,92,0,1,,,,,0,,,72,0
87644,note_off,,,,,92,0,3,,,,,2,,,72,0
87648,note_on,,,,,4,0,3,,,,,2,,,75,108
87648,note_on,,,,,4,0,2,,,,,1,,,75,63
87648,note_on,,,,,4,0,1,,,,,0,,,75,63
87740,note_off,,,,,92,0,2,,,,,1,,,75,0
87740,note_off,,,,,92,0,3,,,,,2,,,75,0
87740,note_off,,,,,92,0,1,,,,,0,,,75,0
87744,note_on,,,,,196,0,4,,,,,3,,,67,127
87744,note_on,,,,,0,0,8,,,,,7,,,67,50
87744,note_on,,,,,196,0,6,,,,,5,,,60,92
87744,note_on,,,,,4,0,2,,,,,1,,,74,63
87744,note_on,,,,,196,0,5,,,,,4,,,67,92
87744,note_on,,,,,196,0,8,,,,,7,,,63,50
87744,note_on,,,,,196,0,9,,,,,8,,,60,50
87744,note_on,,,,,196,0,7,,,,,6,,,48,75
87744,note_on,,,,,4,0,3,,,,,2,,,74,108
87744,note_on,,,,,4,0,1,,,,,0,,,74,63
87836,note_off,,,,,92,0,2,,,,,1,,,74,0
87836,note_off,,,,,92,0,3,,,,,2,,,74,0
87836,note_off,,,,,92,0,1,,,,,0,,,74,0
87840,note_on,,,,,4,0,1,,,,,0,,,72,63
87840,note_on,,,,,4,0,3,,,,,2,,,72,108
87840,note_on,,,,,4,0,2,,,,,1,,,72,63
87932,note_off,,,,,0,0,8,,,,,7,,,67,0
87932,note_off,,,,,188,0,6,,,,,5,,,60,0
87932,note_off,,,,,188,0,7,,,,,6,,,48,0
87932,note_off,,,,,92,0,1,,,,,0,,,72,0
87932,note_off,,,,,188,0,5,,,,,4,,,67,0
87932,note_off,,,,,188,0,4,,,,,3,,,67,0
87932,note_off,,,,,188,0,8,,,,,7,,,63,0
87932,note_off,,,,,188,0,9,,,,,8,,,60,0
87932,note_off,,,,,92,0,3,,,,,2,,,72,0
87932,note_off,,,,,92,0,2,,,,,1,,,72,0
87936,note_on,,,,,4,0,3,,,,,2,,,74,108
87936,note_on,,,,,4,0,2,,,,,1,,,74,63
87936,note_on,,,,,4,0,6,,,,,5,,,59,92
87936,note_on,,,,,0,0,8,,,,,7,,,67,50
87936,note_on,,,,,4,0,8,,,,,7,,,62,50
87936,note_on,,,,,4,0,9,,,,,8,,,59,50
87936,note_on,,,,,4,0,1,,,,,0,,,74,63
87936,note_on,,,,,4,0,7,,,,,6,,,47,75
87936,note_on,,,,,4,0,5,,,,,4,,,67,92
87936,note_on,,,,,4,0,4,,,,,3,,,74,127
88028,note_off,,,,,92,0,1,,,,,0,,,74,0
88028,note_off,,,,,92,0,3,,,,,2,,,74,0
88028,note_off,,,,,92,0,2,,,,,1,,,74,0
88032,note_on,,,,,4,0,2,,,,,1,,,67,63
88032,note_on,,,,,4,0,3,,,,,2,,,67,108
88032,note_on,,,,,4,0,1,,,,,0,,,67,63
88124,note_off,,,,,92,0,1,,,,,0,,,67,0
88124,note_off,,,,,188,0,5,,,,,4,,,67,0
88124,note_off,,,,,188,0,4,,,,,3,,,74,0
88124,note_off,,,,,0,0,8,,,,,7,,,67,0
88124,note_off,,,,,92,0,2,,,,,1,,,67,0
88124,note_off,,,,,188,0,6,,,,,5,,,59,0
88124,note_off,,,,,188,0,7,,,,,6,,,47,0
88124,note_off,,,,,188,0,9,,,,,8,,,59,0
88124,note_off,,,,,188,0,8,,,,,7,,,62,0
88124,note_off,,,,,92,0,3,,,,,2,,,67,0
88128,note_on,,,,,4,0,7,,,,,6,,,43,75
88128,note_on,,,,,4,0,9,,,,,8,,,55,50
88128,note_on,,,,,0,0,8,,,,,7,,,67,50
88128,note_on,,,,,4,0,4,,,,,3,,,71,127
88128,note_on,,,,,4,0,3,,,,,2,,,74,108
88128,note_on,,,,,0,0,8,,,,,7,,,71,50
88128,note_on,,,,,4,0,2,,,,,1,,,74,63
88128,note_on,,,,,4,0,8,,,,,7,,,62,50
88128,note_on,,,,,4,0,6,,,,,5,,,55,92
88128,note_on,,,,,4,0,5,,,,,4,,,55,92
88128,note_on,,,,,4,0,1,,,,,0,,,74,63
88220,note_off,,,,,92,0,1,,,,,0,,,74,0
88220,note_off,,,,,92,0,2,,,,,1,,,74,0
88220,note_off,,,,,92,0,3,,,,,2,,,74,0
88224,note_on,,,,,4,0,1,,,,,0,,,77,63
88224,note_on,,,,,4,0,2,,,,,1,,,77,63
88224,note_on,,,,,4,0,3,,,,,2,,,77,108
88316,note_off,,,,,188,0,7,,,,,6,,,43,0
88316,note_off,,,,,188,0,4,,,,,3,,,71,0
88316,note_off,,,,,92,0,2,,,,,1,,,77,0
88316,note_off,,,,,188,0,9,,,,,8,,,55,0
88316,note_off,,,,,188,0,6,,,,,5,,,55,0
88316,note_off,,,,,0,0,8,,,,,7,,,67,0
88316,note_off,,,,,0,0,8,,,,,7,,,71,0
88316,note_off,,,,,92,0,3,,,,,2,,,77,0
88316,note_off,,,,,188,0,5,,,,,4,,,55,0
88316,note_off,,,,,92,0,1,,,,,0,,,77,0
88316,note_off,,,,,188,0,8,,,,,7,,,62,0
88320,note_on,,,,,4,0,2,,,,,1,,,74,63
88320,note_on,,,,,4,0,3,,,,,2,,,74,108
88320,note_on,,,,,4,0,1,,,,,0,,,74,63
88412,note_off,,,,,92,0,1,,,,,0,,,74,0
88412,note_off,,,,,92,0,3,,,,,2,,,74,0
88412,note_off,,,,,92,0,2,,,,,1,,,74,0
88416,note_on,,,,,4,0,2,,,,,1,,,77,63
88416,note_on,,,,,4,0,3,,,,,2,,,77,108
88416,note_on,,,,,4,0,1,,,,,0,,,77,63
88508,note_off,,,,,92,0,3,,,,,2,,,77,0
88508,note_off,,,,,92,0,1,,,,,0,,,77,0
88508,note_off,,,,,92,0,2,,,,,1,,,77,0
88512,note_on,,,,,4,0,3,,,,,2,,,75,108
88512,note_on,,,,,196,0,6,,,,,5,,,59,92
88512,note_on,,,,,4,0,1,,,,,0,,,75,63
88512,note_on,,,,,196,0,9,,,,,8,,,59,50
88512,note_on,,,,,4,0,2,,,,,1,,,75,63
88512,note_on,,,,,196,0,7,,,,,6,,,47,75
88512,note_on,,,,,196,0,4,,,,,3,,,67,127
88512,note_on,,,,,0,0,8,,,,,7,,,67,50
88512,note_on,,,,,196,0,8,,,,,7,,,62,50
88512,note_on,,,,,196,0,5,,,,,4,,,67,92
88604,note_off,,,,,92,0,2,,,,,1,,,75,0
88604,note_off,,,,,92,0,1,,,,,0,,,75,0
88604,note_off,,,,,92,0,3,,,,,2,,,75,0
88608,note_on,,,,,4,0,1,,,,,0,,,74,63
88608,note_on,,,,,4,0,2,,,,,1,,,74,63
88608,note_on,,,,,4,0,3,,,,,2,,,74,108
88700,note_off,,,,,188,0,4,,,,,3,,,67,0
88700,note_off,,,,,188,0,6,,,,,5,,,59,0
88700,note_off,,,,,188,0,7,,,,,6,,,47,0
88700,note_off,,,,,92,0,2,,,,,1,,,74,0
88700,note_off,,,,,188,0,5,,,,,4,,,67,0
88700,note_off,,,,,92,0,1,,,,,0,,,74,0
88700,note_off,,,,,0,0,8,,,,,7,,,67,0
88700,note_off,,,,,188,0,8,,,,,7,,,62,0
88700,note_off,,,,,92,0,3,,,,,2,,,74,0
88700,note_off,,,,,188,0,9,,,,,8,,,59,0
88704,note_on,,,,,4,0,5,,,,,4,,,67,92
88704,note_on,,,,,4,0,9,,,,,8,,,60,50
88704,note_on,,,,,4,0,2,,,,,1,,,75,63
88704,note_on,,,,,0,0,8,,,,,7,,,67,50
88704,note_on,,,,,4,0,6,,,,,5,,,60,92
88704,note_on,,,,,4,0,7,,,,,6,,,48,75
88704,note_on,,,,,4,0,8,,,,,7,,,63,50
88704,note_on,,,,,4,0,3,,,,,2,,,75,108
88704,note_on,,,,,4,0,4,,,,,3,,,75,127
88704,note_on,,,,,4,0,1,,,,,0,,,75,63
88796,note_off,,,,,92,0,4,,,,,3,,,75,0
88800,note_on,,,,,4,0,4,,,,,3,,,72,127
88892,note_off,,,,,0,0,8,,,,,7,,,67,0
88892,note_off,,,,,92,0,4,,,,,3,,,72,0
88892,note_off,,,,,188,0,5,,,,,4,,,67,0
88892,note_off,,,,,188,0,2,,,,,1,,,75,0
88892,note_off,,,,,188,0,8,,,,,7,,,63,0
88892,note_off,,,,,188,0,1,,,,,0,,,75,0
88892,note_off,,,,,188,0,7,,,,,6,,,48,0
88892,note_off,,,,,188,0,9,,,,,8,,,60,0
88892,note_off,,,,,188,0,3,,,,,2,,,75,0
88892,note_off,,,,,188,0,6,,,,,5,,,60,0
88896,note_on,,,,,4,0,1,,,,,0,,,72,63
88896,note_on,,,,,4,0,7,,,,,6,,,36,75
88896,note_on,,,,,4,0,2,,,,,1,,,72,63
88896,note_on,,,,,4,0,8,,,,,7,,,63,50
88896,note_on,,,,,4,0,5,,,,,4,,,63,92
88896,note_on,,,,,4,0,6,,,,,5,,,48,92
88896,note_on,,,,,0,0,8,,,,,7,,,67,50
88896,note_on,,,,,0,0,8,,,,,7,,,72,50
88896,note_on,,,,,4,0,9,,,,,8,,,48,50
88896,note_on,,,,,4,0,4,,,,,3,,,75,127
88896,note_on,,,,,4,0,3,,,,,2,,,72,108
88988,note_off,,,,,92,0,4,,,,,3,,,75,0
88992,note_on,,,,,4,0,4,,,,,3,,,79,127
89084,note_off,,,,,188,0,8,,,,,7,,,63,0
89084,note_off,,,,,188,0,6,,,,,5,,,48,0
89084,note_off,,,,,188,0,7,,,,,6,,,36,0
89084,note_off,,,,,0,0,8,,,,,7,,,72,0
89084,note_off,,,,,0,0,8,,,,,7,,,67,0
89084,note_off,,,,,188,0,1,,,,,0,,,72,0
89084,note_off,,,,,188,0,3,,,,,2,,,72,0
89084,note_off,,,,,188,0,9,,,,,8,,,48,0
89084,note_off,,,,,92,0,4,,,,,3,,,79,0
89084,note_off,,,,,188,0,2,,,,,1,,,72,0
89084,note_off,,,,,188,0,5,,,,,4,,,63,0
89088,note_on,,,,,4,0,4,,,,,3,,,75,127
89180,note_off,,,,,92,0,4,,,,,3,,,75,0
89184,note_on,,,,,4,0,4,,,,,3,,,72,127
89276,note_off,,,,,92,0,4,,,,,3,,,72,0
89280,note_on,,,,,196,0,8,,,,,7,,,63,50
89280,note_on,,,,,196,0,6,,,,,5,,,60,92
89280,note_on,,,,,196,0,3,,,,,2,,,72,108
89280,note_on,,,,,196,0,2,,,,,1,,,72,63
89280,note_on,,,,,4,0,4,,,,,3,,,75,127
89280,note_on,,,,,196,0,9,,,,,8,,,60,50
89280,note_on,,,,,0,0,8,,,,,7,,,67,50
89280,note_on,,,,,0,0,8,,,,,7,,,72,50
89280,note_on,,,,,196,0,7,,,,,6,,,48,75
89280,note_on,,,,,196,0,5,,,,,4,,,67,92
89280,note_on,,,,,196,0,1,,,,,0,,,72,63
89372,note_off,,,,,92,0,4,,,,,3,,,75,0
89376,note_on,,,,,4,0,4,,,,,3,,,79,127
89468,note_off,,,,,0,0,8,,,,,7,,,72,0
89468,note_off,,,,,188,0,8,,,,,7,,,63,0
89468,note_off,,,,,188,0,5,,,,,4,,,67,0
89468,note_off,,,,,188,0,3,,,,,2,,,72,0
89468,note_off,,,,,188,0,9,,,,,8,,,60,0
89468,note_off,,,,,188,0,7,,,,,6,,,48,0
89468,note_off,,,,,188,0,6,,,,,5,,,60,0
89468,note_off,,,,,0,0,8,,,,,7,,,67,0
89468,note_off,,,,,188,0,1,,,,,0,,,72,0
89468,note_off,,,,,92,0,4,,,,,3,,,79,0
89468,note_off,,,,,188,0,2,,,,,1,,,72,0
89472,note_on,,,,,4,0,5,,,,,4,,,72,92
89472,note_on,,,,,4,0,1,,,,,0,,,76,63
89472,note_on,,,,,4,0,6,,,,,5,,,58,92
89472,note_on,,,,,4,0,2,,,,,1,,,76,63
89472,note_on,,,,,4,0,9,,,,,8,,,58,50
89472,note_on,,,,,4,0,3,,,,,2,,,76,108
89472,note_on,,,,,4,0,4,,,,,3,,,67,127
89472,note_on,,,,,0,0,8,,,,,7,,,72,50
89472,note_on,,,,,0,0,8,,,,,7,,,67,50
89472,note_on,,,,,4,0,8,,,,,7,,,64,50
89472,note_on,,,,,4,0,7,,,,,6,,,46,75
89564,note_off,,,,,92,0,3,,,,,2,,,76,0
89564,note_off,,,,,92,0,1,,,,,0,,,76,0
89564,note_off,,,,,92,0,2,,,,,1,,,76,0
89568,note_on,,,,,4,0,2,,,,,1,,,72,63
89568,note_on,,,,,4,0,1,,,,,0,,,72,63
89568,note_on,,,,,4,0,3,,,,,2,,,72,108
89660,note_off,,,,,92,0,3,,,,,2,,,72,0
89660,note_off,,,,,92,0,1,,,,,0,,,72,0
89660,note_off,,,,,188,0,6,,,,,5,,,58,0
89660,note_off,,,,,188,0,7,,,,,6,,,46,0
89660,note_off,,,,,188,0,9,,,,,8,,,58,0
89660,note_off,,,,,92,0,2,,,,,1,,,72,0
89664,note_on,,,,,4,0,6,,,,,5,,,46,92
89664,note_on,,,,,4,0,7,,,,,6,,,34,75
89664,note_on,,,,,4,0,9,,,,,8,,,46,50
89664,note_on,,,,,4,0,2,,,,,1,,,76,63
89664,note_on,,,,,4,0,1,,,,,0,,,76,63
89664,note_on,,,,,4,0,3,,,,,2,,,76,108
89756,note_off,,,,,92,0,3,,,,,2,,,76,0
89756,note_off,,,,,92,0,1,,,,,0,,,76,0
89756,note_off,,,,,92,0,2,,,,,1,,,76,0
89760,note_on,,,,,4,0,2,,,,,1,,,79,63
89760,note_on,,,,,4,0,3,,,,,2,,,79,108
89760,note_on,,,,,4,0,1,,,,,0,,,79,63
89792,note_off,,,,,320,0,5,,,,,4,,,72,0
89792,note_off,,,,,320,0,4,,,,,3,,,67,0
89792,note_off,,,,,320,0,8,,,,,7,,,64,0
89792,note_off,,,,,0,0,8,,,,,7,,,67,0
89792,note_off,,,,,0,0,8,,,,,7,,,72,0
89852,note_off,,,,,92,0,2,,,,,1,,,79,0
89852,note_off,,,,,188,0,6,,,,,5,,,46,0
89852,note_off,,,,,92,0,1,,,,,0,,,79,0
89852,note_off,,,,,188,0,9,,,,,8,,,46,0
89852,note_off,,,,,188,0,7,,,,,6,,,34,0
89852,note_off,,,,,92,0,3,,,,,2,,,79,0
89856,note_on,,,,,4,0,2,,,,,1,,,76,63
89856,note_on,,,,,4,0,1,,,,,0,,,76,63
89856,note_on,,,,,4,0,3,,,,,2,,,76,108
89948,note_off,,,,,92,0,1,,,,,0,,,76,0
89948,note_off,,,,,92,0,2,,,,,1,,,76,0
89948,note_off,,,,,92,0,3,,,,,2,,,76,0
89952,note_on,,,,,4,0,3,,,,,2,,,79,108
89952,note_on,,,,,4,0,1,,,,,0,,,79,63
89952,note_on,,,,,4,0,2,,,,,1,,,79,63
90044,note_off,,,,,92,0,2,,,,,1,,,79,0
90044,note_off,,,,,92,0,1,,,,,0,,,79,0
90044,note_off,,,,,92,0,3,,,,,2,,,79,0
90048,note_on,,,,,4,0,3,,,,,2,,,77,108
90048,note_on,,,,,256,0,8,,,,,7,,,64,50
90048,note_on,,,,,256,0,4,,,,,3,,,67,127
90048,note_on,,,,,196,0,7,,,,,6,,,46,75
90048,note_on,,,,,4,0,2,,,,,1,,,77,63
90048,note_on,,,,,196,0,6,,,,,5,,,58,92
90048,note_on,,,,,256,0,5,,,,,4,,,72,92
90048,note_on,,,,,0,0,8,,,,,7,,,72,50
90048,note_on,,,,,0,0,8,,,,,7,,,67,50
90048,note_on,,,,,4,0,1,,,,,0,,,77,63
90048,note_on,,,,,196,0,9,,,,,8,,,58,50
90140,note_off,,,,,92,0,2,,,,,1,,,77,0
90140,note_off,,,,,92,0,3,,,,,2,,,77,0
90140,note_off,,,,,92,0,1,,,,,0,,,77,0
90144,note_on,,,,,4,0,2,,,,,1,,,76,63
90144,note_on,,,,,4,0,1,,,,,0,,,76,63
90144,note_on,,,,,4,0,3,,,,,2,,,76,108
90236,note_off,,,,,0,0,8,,,,,7,,,67,0
90236,note_off,,,,,92,0,2,,,,,1,,,76,0
90236,note_off,,,,,188,0,6,,,,,5,,,58,0
90236,note_off,,,,,188,0,8,,,,,7,,,64,0
90236,note_off,,,,,188,0,4,,,,,3,,,67,0
90236,note_off,,,,,188,0,7,,,,,6,,,46,0
90236,note_off,,,,,188,0,5,,,,,4,,,72,0
90236,note_off,,,,,0,0,8,,,,,7,,,72,0
90236,note_off,,,,,188,0,9,,,,,8,,,58,0
90236,note_off,,,,,92,0,3,,,,,2,,,76,0
90236,note_off,,,,,92,0,1,,,,,0,,,76,0
90240,note_on,,,,,4,0,2,,,,,1,,,77,63
90240,note_on,,,,,4,0,5,,,,,4,,,65,92
90240,note_on,,,,,4,0,3,,,,,2,,,77,108
90240,note_on,,,,,0,0,8,,,,,7,,,72,50
90240,note_on,,,,,4,0,1,,,,,0,,,77,63
90240,note_on,,,,,4,0,4,,,,,3,,,72,127
90240,note_on,,,,,4,0,9,,,,,8,,,56,50
90240,note_on,,,,,4,0,6,,,,,5,,,56,92
90240,note_on,,,,,4,0,7,,,,,6,,,44,75
90240,note_on,,,,,4,0,8,,,,,7,,,65,50
90332,note_off,,,,,92,0,2,,,,,1,,,77,0
90332,note_off,,,,,92,0,1,,,,,0,,,77,0
90332,note_off,,,,,92,0,3,,,,,2,,,77,0
90336,note_on,,,,,4,0,2,,,,,1,,,72,63
90336,note_on,,,,,4,0,1,,,,,0,,,72,63
90336,note_on,,,,,4,0,3,,,,,2,,,72,108
90428,note_off,,,,,188,0,7,,,,,6,,,44,0
90428,note_off,,,,,188,0,6,,,,,5,,,56,0
90428,note_off,,,,,188,0,9,,,,,8,,,56,0
90428,note_off,,,,,92,0,1,,,,,0,,,72,0
90428,note_off,,,,,92,0,3,,,,,2,,,72,0
90428,note_off,,,,,92,0,2,,,,,1,,,72,0
90432,note_on,,,,,4,0,6,,,,,5,,,44,92
90432,note_on,,,,,4,0,3,,,,,2,,,77,108
90432,note_on,,,,,4,0,2,,,,,1,,,77,63
90432,note_on,,,,,4,0,7,,,,,6,,,32,75
90432,note_on,,,,,4,0,1,,,,,0,,,77,63
90432,note_on,,,,,4,0,9,,,,,8,,,44,50
90524,note_off,,,,,92,0,3,,,,,2,,,77,0
90524,note_off,,,,,92,0,1,,,,,0,,,77,0
90524,note_off,,,,,92,0,2,,,,,1,,,77,0
90528,note_on,,,,,4,0,2,,,,,1,,,80,63
90528,note_on,,,,,4,0,3,,,,,2,,,80,108
90528,note_on,,,,,4,0,1,,,,,0,,,80,63
90560,note_off,,,,,320,0,4,,,,,3,,,72,0
90560,note_off,,,,,320,0,5,,,,,4,,,65,0
90560,note_off,,,,,320,0,8,,,,,7,,,65,0
90560,note_off,,,,,0,0,8,,,,,7,,,72,0
90620,note_off,,,,,188,0,7,,,,,6,,,32,0
90620,note_off,,,,,188,0,6,,,,,5,,,44,0
90620,note_off,,,,,92,0,2,,,,,1,,,80,0
90620,note_off,,,,,92,0,3,,,,,2,,,80,0
90620,note_off,,,,,188,0,9,,,,,8,,,44,0
90620,note_off,,,,,92,0,1,,,,,0,,,80,0
90624,note_on,,,,,4,0,1,,,,,0,,,77,63
90624,note_on,,,,,4,0,3,,,,,2,,,77,108
90624,note_on,,,,,4,0,2,,,,,1,,,77,63
90716,note_off,,,,,92,0,1,,,,,0,,,77,0
90716,note_off,,,,,92,0,2,,,,,1,,,77,0
90716,note_off,,,,,92,0,3,,,,,2,,,77,0
90720,note_on,,,,,4,0,1,,,,,0,,,80,63
90720,note_on,,,,,4,0,3,,,,,2,,,80,108
90720,note_on,,,,,4,0,2,,,,,1,,,80,63
90812,note_off,,,,,92,0,3,,,,,2,,,80,0
90812,note_off,,,,,92,0,1,,,,,0,,,80,0
90812,note_off,,,,,92,0,2,,,,,1,,,80,0
90816,note_on,,,,,256,0,5,,,,,4,,,65,92
90816,note_on,,,,,256,0,4,,,,,3,,,72,127
90816,note_on,,,,,256,0,8,,,,,7,,,60,50
90816,note_on,,,,,4,0,2,,,,,1,,,79,63
90816,note_on,,,,,0,0,8,,,,,7,,,72,50
90816,note_on,,,,,0,0,8,,,,,7,,,65,50
90816,note_on,,,,,4,0,1,,,,,0,,,79,63
90816,note_on,,,,,196,0,7,,,,,6,,,44,75
90816,note_on,,,,,4,0,3,,,,,2,,,79,108
90816,note_on,,,,,196,0,9,,,,,8,,,56,50
90816,note_on,,,,,196,0,6,,,,,5,,,56,92
90908,note_off,,,,,92,0,2,,,,,1,,,79,0
90908,note_off,,,,,92,0,1,,,,,0,,,79,0
90908,note_off,,,,,92,0,3,,,,,2,,,79,0
90912,note_on,,,,,4,0,3,,,,,2,,,77,108
90912,note_on,,,,,4,0,2,,,,,1,,,77,63
90912,note_on,,,,,4,0,1,,,,,0,,,77,63
91004,note_off,,,,,188,0,5,,,,,4,,,65,0
91004,note_off,,,,,92,0,3,,,,,2,,,77,0
91004,note_off,,,,,188,0,4,,,,,3,,,72,0
91004,note_off,,,,,0,0,8,,,,,7,,,72,0
91004,note_off,,,,,188,0,9,,,,,8,,,56,0
91004,note_off,,,,,188,0,7,,,,,6,,,44,0
91004,note_off,,,,,188,0,6,,,,,5,,,56,0
91004,note_off,,,,,0,0,8,,,,,7,,,65,0
91004,note_off,,,,,92,0,2,,,,,1,,,77,0
91004,note_off,,,,,92,0,1,,,,,0,,,77,0
91004,note_off,,,,,188,0,8,,,,,7,,,60,0
91008,note_on,,,,,4,0,4,,,,,3,,,72,127
91008,note_on,,,,,4,0,7,,,,,6,,,40,75
91008,note_on,,,,,4,0,2,,,,,1,,,79,63
91008,note_on,,,,,4,0,1,,,,,0,,,79,63
91008,note_on,,,,,0,0,8,,,,,7,,,72,50
91008,note_on,,,,,4,0,8,,,,,7,,,60,50
91008,note_on,,,,,4,0,9,,,,,8,,,52,50
91008,note_on,,,,,0,0,8,,,,,7,,,67,50
91008,note_on,,,,,4,0,6,,,,,5,,,52,92
91008,note_on,,,,,4,0,3,,,,,2,,,79,108
91008,note_on,,,,,4,0,5,,,,,4,,,72,92
91100,note_off,,,,,92,0,3,,,,,2,,,79,0
91100,note_off,,,,,92,0,2,,,,,1,,,79,0
91100,note_off,,,,,92,0,1,,,,,0,,,79,0
91104,note_on,,,,,4,0,3,,,,,2,,,72,108
91104,note_on,,,,,4,0,2,,,,,1,,,72,63
91104,note_on,,,,,4,0,1,,,,,0,,,72,63
91196,note_off,,,,,188,0,5,,,,,4,,,72,0
91196,note_off,,,,,188,0,6,,,,,5,,,52,0
91196,note_off,,,,,92,0,2,,,,,1,,,72,0
91196,note_off,,,,,0,0,8,,,,,7,,,72,0
91196,note_off,,,,,188,0,8,,,,,7,,,67,0
91196,note_off,,,,,92,0,1,,,,,0,,,72,0
91196,note_off,,,,,188,0,7,,,,,6,,,40,0
91196,note_off,,,,,92,0,3,,,,,2,,,72,0
91196,note_off,,,,,188,0,9,,,,,8,,,52,0
91200,note_on,,,,,4,0,6,,,,,5,,,48,92
91200,note_on,,,,,4,0,5,,,,,4,,,64,92
91200,note_on,,,,,4,0,2,,,,,1,,,79,63
91200,note_on,,,,,4,0,3,,,,,2,,,79,108
91200,note_on,,,,,0,0,8,,,,,7,,,67,50
91200,note_on,,,,,4,0,7,,,,,6,,,36,75
91200,note_on,,,,,4,0,8,,,,,7,,,64,50
91200,note_on,,,,,4,0,1,,,,,0,,,79,63
91200,note_on,,,,,4,0,9,,,,,8,,,48,50
91292,note_off,,,,,92,0,3,,,,,2,,,79,0
91292,note_off,,,,,92,0,2,,,,,1,,,79,0
91292,note_off,,,,,92,0,1,,,,,0,,,79,0
91296,note_on,,,,,4,0,2,,,,,1,,,82,63
91296,note_on,,,,,4,0,1,,,,,0,,,82,63
91296,note_on,,,,,4,0,3,,,,,2,,,82,108
91328,note_off,,,,,320,0,4,,,,,3,,,72,0
91328,note_off,,,,,128,0,8,,,,,7,,,60,0
91388,note_off,,,,,92,0,1,,,,,0,,,82,0
91388,note_off,,,,,0,0,8,,,,,7,,,67,0
91388,note_off,,,,,60,0,8,,,,,7,,,64,0
91388,note_off,,,,,188,0,7,,,,,6,,,36,0
91388,note_off,,,,,188,0,9,,,,,8,,,48,0
91388,note_off,,,,,92,0,2,,,,,1,,,82,0
91388,note_off,,,,,188,0,6,,,,,5,,,48,0
91388,note_off,,,,,92,0,3,,,,,2,,,82,0
91388,note_off,,,,,188,0,5,,,,,4,,,64,0
91392,note_on,,,,,4,0,3,,,,,2,,,79,108
91392,note_on,,,,,4,0,2,,,,,1,,,79,63
91392,note_on,,,,,4,0,1,,,,,0,,,79,63
91484,note_off,,,,,92,0,1,,,,,0,,,79,0
91484,note_off,,,,,92,0,2,,,,,1,,,79,0
91484,note_off,,,,,92,0,3,,,,,2,,,79,0
91488,note_on,,,,,4,0,2,,,,,1,,,82,63
91488,note_on,,,,,4,0,1,,,,,0,,,82,63
91488,note_on,,,,,4,0,3,,,,,2,,,82,108
91580,note_off,,,,,92,0,3,,,,,2,,,82,0
91580,note_off,,,,,92,0,2,,,,,1,,,82,0
91580,note_off,,,,,92,0,1,,,,,0,,,82,0
91584,note_on,,,,,196,0,9,,,,,8,,,52,50
91584,note_on,,,,,0,0,8,,,,,7,,,72,50
91584,note_on,,,,,4,0,3,,,,,2,,,80,108
91584,note_on,,,,,196,0,8,,,,,7,,,60,50
91584,note_on,,,,,196,0,6,,,,,5,,,52,92
91584,note_on,,,,,4,0,1,,,,,0,,,80,63
91584,note_on,,,,,196,0,5,,,,,4,,,60,92
91584,note_on,,,,,4,0,2,,,,,1,,,80,63
91584,note_on,,,,,0,0,8,,,,,7,,,67,50
91584,note_on,,,,,196,0,7,,,,,6,,,40,75
91676,note_off,,,,,92,0,3,,,,,2,,,80,0
91676,note_off,,,,,92,0,1,,,,,0,,,80,0
91676,note_off,,,,,92,0,2,,,,,1,,,80,0
91680,note_on,,,,,4,0,2,,,,,1,,,79,63
91680,note_on,,,,,4,0,1,,,,,0,,,79,63
91680,note_on,,,,,4,0,3,,,,,2,,,79,108
91772,note_off,,,,,92,0,2,,,,,1,,,79,0
91772,note_off,,,,,92,0,3,,,,,2,,,79,0
91772,note_off,,,,,188,0,9,,,,,8,,,52,0
91772,note_off,,,,,92,0,1,,,,,0,,,79,0
91772,note_off,,,,,188,0,6,,,,,5,,,52,0
91772,note_off,,,,,0,0,8,,,,,7,,,67,0
91772,note_off,,,,,188,0,8,,,,,7,,,60,0
91772,note_off,,,,,0,0,8,,,,,7,,,72,0
91772,note_off,,,,,188,0,5,,,,,4,,,60,0
91772,note_off,,,,,188,0,7,,,,,6,,,40,0
91776,note_on,,,,,0,0,8,,,,,7,,,65,50
91776,note_on,,,,,4,0,2,,,,,1,,,80,63
91776,note_on,,,,,4,0,8,,,,,7,,,60,50
91776,note_on,,,,,0,0,8,,,,,7,,,68,50
91776,note_on,,,,,4,0,9,,,,,8,,,53,50
91776,note_on,,,,,4,0,5,,,,,4,,,60,92
91776,note_on,,,,,4,0,7,,,,,6,,,41,75
91776,note_on,,,,,4,0,3,,,,,2,,,80,108
91776,note_on,,,,,4,0,6,,,,,5,,,53,92
91776,note_on,,,,,4,0,1,,,,,0,,,80,63
91872,note_on,,,,,544,0,4,,,,,3,,,72,127
91964,note_off,,,,,92,0,4,,,,,3,,,72,0
91964,note_off,,,,,188,0,1,,,,,0,,,80,0
91964,note_off,,,,,188,0,6,,,,,5,,,53,0
91964,note_off,,,,,188,0,2,,,,,1,,,80,0
91964,note_off,,,,,188,0,3,,,,,2,,,80,0
91964,note_off,,,,,188,0,9,,,,,8,,,53,0
91964,note_off,,,,,188,0,7,,,,,6,,,41,0
91964,note_off,,,,,188,0,5,,,,,4,,,60,0
91968,note_on,,,,,4,0,7,,,,,6,,,36,75
91968,note_on,,,,,4,0,4,,,,,3,,,74,127
91968,note_on,,,,,4,0,6,,,,,5,,,48,92
91968,note_on,,,,,4,0,2,,,,,1,,,65,63
91968,note_on,,,,,4,0,1,,,,,0,,,65,63
91968,note_on,,,,,4,0,9,,,,,8,,,48,50
91968,note_on,,,,,4,0,3,,,,,2,,,65,108
91968,note_on,,,,,4,0,5,,,,,4,,,56,92
92060,note_off,,,,,92,0,4,,,,,3,,,74,0
92064,note_on,,,,,4,0,4,,,,,3,,,75,127
92096,note_off,,,,,0,0,8,,,,,7,,,68,0
92096,note_off,,,,,0,0,8,,,,,7,,,65,0
92096,note_off,,,,,320,0,8,,,,,7,,,60,0
92156,note_off,,,,,188,0,5,,,,,4,,,56,0
92156,note_off,,,,,188,0,7,,,,,6,,,36,0
92156,note_off,,,,,188,0,3,,,,,2,,,65,0
92156,note_off,,,,,188,0,1,,,,,0,,,65,0
92156,note_off,,,,,188,0,9,,,,,8,,,48,0
92156,note_off,,,,,188,0,6,,,,,5,,,48,0
92156,note_off,,,,,188,0,2,,,,,1,,,65,0
92156,note_off,,,,,92,0,4,,,,,3,,,75,0
92160,note_on,,,,,4,0,5,,,,,4,,,72,92
92160,note_on,,,,,4,0,4,,,,,3,,,77,127
92160,note_on,,,,,64,0,8,,,,,7,,,60,50
92160,note_on,,,,,0,0,8,,,,,7,,,65,50
92160,note_on,,,,,0,0,8,,,,,7,,,72,50
92160,note_on,,,,,4,0,7,,,,,6,,,32,75
92160,note_on,,,,,4,0,9,,,,,8,,,44,50
92160,note_on,,,,,4,0,6,,,,,5,,,44,92
92252,note_off,,,,,92,0,4,,,,,3,,,77,0
92256,note_on,,,,,4,0,4,,,,,3,,,72,127
92348,note_off,,,,,188,0,6,,,,,5,,,44,0
92348,note_off,,,,,188,0,9,,,,,8,,,44,0
92348,note_off,,,,,188,0,7,,,,,6,,,32,0
92348,note_off,,,,,188,0,8,,,,,7,,,72,0
92348,note_off,,,,,92,0,4,,,,,3,,,72,0
92348,note_off,,,,,188,0,5,,,,,4,,,72,0
92352,note_on,,,,,4,0,9,,,,,8,,,41,50
92352,note_on,,,,,4,0,6,,,,,5,,,41,92
92352,note_on,,,,,4,0,5,,,,,4,,,68,92
92352,note_on,,,,,4,0,8,,,,,7,,,68,50
92352,note_on,,,,,4,0,7,,,,,6,,,29,75
92352,note_on,,,,,4,0,4,,,,,3,,,74,127
92444,note_off,,,,,92,0,4,,,,,3,,,74,0
92448,note_on,,,,,4,0,4,,,,,3,,,75,127
92480,note_off,,,,,128,0,8,,,,,7,,,60,0
92480,note_off,,,,,0,0,8,,,,,7,,,65,0
92540,note_off,,,,,188,0,6,,,,,5,,,41,0
92540,note_off,,,,,188,0,7,,,,,6,,,29,0
92540,note_off,,,,,188,0,5,,,,,4,,,68,0
92540,note_off,,,,,60,0,8,,,,,7,,,68,0
92540,note_off,,,,,188,0,9,,,,,8,,,41,0
92540,note_off,,,,,92,0,4,,,,,3,,,75,0
92544,note_on,,,,,4,0,9,,,,,8,,,58,50
92544,note_on,,,,,4,0,6,,,,,5,,,58,92
92544,note_on,,,,,4,0,7,,,,,6,,,46,75
92544,note_on,,,,,4,0,4,,,,,3,,,74,127
92544,note_on,,,,,4,0,5,,,,,4,,,65,92
92544,note_on,,,,,0,0,8,,,,,7,,,65,50
92544,note_on,,,,,4,0,8,,,,,7,,,62,50
92640,note_on,,,,,484,0,1,,,,,0,,,77,63
92640,note_on,,,,,484,0,2,,,,,1,,,77,63
92640,note_on,,,,,484,0,3,,,,,2,,,77,108
92732,note_off,,,,,188,0,4,,,,,3,,,74,0
92732,note_off,,,,,92,0,2,,,,,1,,,77,0
92732,note_off,,,,,188,0,7,,,,,6,,,46,0
92732,note_off,,,,,92,0,1,,,,,0,,,77,0
92732,note_off,,,,,188,0,6,,,,,5,,,58,0
92732,note_off,,,,,188,0,9,,,,,8,,,58,0
92732,note_off,,,,,92,0,3,,,,,2,,,77,0
92736,note_on,,,,,4,0,2,,,,,1,,,79,63
92736,note_on,,,,,4,0,3,,,,,2,,,79,108
92736,note_on,,,,,4,0,7,,,,,6,,,41,75
92736,note_on,,,,,4,0,4,,,,,3,,,62,127
92736,note_on,,,,,4,0,1,,,,,0,,,79,63
92736,note_on,,,,,4,0,6,,,,,5,,,53,92
92736,note_on,,,,,4,0,9,,,,,8,,,53,50
92828,note_off,,,,,92,0,2,,,,,1,,,79,0
92828,note_off,,,,,92,0,3,,,,,2,,,79,0
92828,note_off,,,,,92,0,1,,,,,0,,,79,0
92832,note_on,,,,,4,0,2,,,,,1,,,80,63
92832,note_on,,,,,4,0,1,,,,,0,,,80,63
92832,note_on,,,,,4,0,3,,,,,2,,,80,108
92864,note_off,,,,,320,0,5,,,,,4,,,65,0
92864,note_off,,,,,320,0,8,,,,,7,,,62,0
92864,note_off,,,,,0,0,8,,,,,7,,,65,0
92924,note_off,,,,,188,0,7,,,,,6,,,41,0
92924,note_off,,,,,188,0,6,,,,,5,,,53,0
92924,note_off,,,,,188,0,9,,,,,8,,,53,0
92924,note_off,,,,,188,0,4,,,,,3,,,62,0
92924,note_off,,,,,92,0,1,,,,,0,,,80,0
92924,note_off,,,,,92,0,3,,,,,2,,,80,0
92924,note_off,,,,,92,0,2,,,,,1,,,80,0
92928,note_on,,,,,4,0,3,,,,,2,,,82,108
92928,note_on,,,,,4,0,9,,,,,8,,,50,50
92928,note_on,,,,,4,0,6,,,,,5,,,50,92
92928,note_on,,,,,64,0,8,,,,,7,,,65,50
92928,note_on,,,,,4,0,2,,,,,1,,,82,63
92928,note_on,,,,,4,0,7,,,,,6,,,38,75
92928,note_on,,,,,0,0,8,,,,,7,,,70,50
92928,note_on,,,,,4,0,1,,,,,0,,,82,63
92928,note_on,,,,,64,0,5,,,,,4,,,65,92
93020,note_off,,,,,92,0,3,,,,,2,,,82,0
93020,note_off,,,,,92,0,1,,,,,0,,,82,0
93020,note_off,,,,,92,0,2,,,,,1,,,82,0
93024,note_on,,,,,4,0,3,,,,,2,,,77,108
93024,note_on,,,,,4,0,1,,,,,0,,,77,63
93024,note_on,,,,,4,0,2,,,,,1,,,77,63
93116,note_off,,,,,92,0,2,,,,,1,,,77,0
93116,note_off,,,,,188,0,6,,,,,5,,,50,0
93116,note_off,,,,,188,0,5,,,,,4,,,65,0
93116,note_off,,,,,92,0,3,,,,,2,,,77,0
93116,note_off,,,,,188,0,9,,,,,8,,,50,0
93116,note_off,,,,,92,0,1,,,,,0,,,77,0
93116,note_off,,,,,188,0,7,,,,,6,,,38,0
93116,note_off,,,,,188,0,8,,,,,7,,,65,0
93120,note_on,,,,,4,0,3,,,,,2,,,79,108
93120,note_on,,,,,4,0,2,,,,,1,,,79,63
93120,note_on,,,,,4,0,8,,,,,7,,,62,50
93120,note_on,,,,,4,0,5,,,,,4,,,62,92
93120,note_on,,,,,4,0,9,,,,,8,,,46,50
93120,note_on,,,,,4,0,7,,,,,6,,,34,75
93120,note_on,,,,,4,0,6,,,,,5,,,46,92
93120,note_on,,,,,4,0,1,,,,,0,,,79,63
93212,note_off,,,,,92,0,3,,,,,2,,,79,0
93212,note_off,,,,,92,0,2,,,,,1,,,79,0
93212,note_off,,,,,92,0,1,,,,,0,,,79,0
93216,note_on,,,,,4,0,3,,,,,2,,,80,108
93216,note_on,,,,,4,0,2,,,,,1,,,80,63
93216,note_on,,,,,4,0,1,,,,,0,,,80,63
93248,note_off,,,,,128,0,8,,,,,7,,,70,0
93308,note_off,,,,,92,0,3,,,,,2,,,80,0
93308,note_off,,,,,92,0,2,,,,,1,,,80,0
93308,note_off,,,,,60,0,8,,,,,7,,,62,0
93308,note_off,,,,,188,0,9,,,,,8,,,46,0
93308,note_off,,,,,188,0,6,,,,,5,,,46,0
93308,note_off,,,,,188,0,7,,,,,6,,,34,0
93308,note_off,,,,,92,0,1,,,,,0,,,80,0
93308,note_off,,,,,188,0,5,,,,,4,,,62,0
93312,note_on,,,,,4,0,9,,,,,8,,,63,50
93312,note_on,,,,,4,0,3,,,,,2,,,79,108
93312,note_on,,,,,4,0,2,,,,,1,,,79,63
93312,note_on,,,,,4,0,8,,,,,7,,,67,50
93312,note_on,,,,,0,0,8,,,,,7,,,70,50
93312,note_on,,,,,4,0,6,,,,,5,,,63,92
93312,note_on,,,,,4,0,7,,,,,6,,,51,75
93312,note_on,,,,,4,0,1,,,,,0,,,79,63
93312,note_on,,,,,4,0,5,,,,,4,,,63,92
93408,note_on,,,,,484,0,4,,,,,3,,,70,127
93500,note_off,,,,,188,0,7,,,,,6,,,51,0
93500,note_off,,,,,92,0,4,,,,,3,,,70,0
93500,note_off,,,,,188,0,6,,,,,5,,,63,0
93500,note_off,,,,,188,0,3,,,,,2,,,79,0
93500,note_off,,,,,188,0,1,,,,,0,,,79,0
93500,note_off,,,,,188,0,9,,,,,8,,,63,0
93500,note_off,,,,,188,0,2,,,,,1,,,79,0
93504,note_on,,,,,4,0,7,,,,,6,,,46,75
93504,note_on,,,,,4,0,6,,,,,5,,,58,92
93504,note_on,,,,,4,0,9,,,,,8,,,58,50
93504,note_on,,,,,4,0,3,,,,,2,,,67,108
93504,note_on,,,,,4,0,1,,,,,0,,,67,63
93504,note_on,,,,,4,0,4,,,,,3,,,72,127
93504,note_on,,,,,4,0,2,,,,,1,,,67,63
93596,note_off,,,,,92,0,4,,,,,3,,,72,0
93600,note_on,,,,,4,0,4,,,,,3,,,74,127
93632,note_off,,,,,0,0,8,,,,,7,,,70,0
93632,note_off,,,,,320,0,8,,,,,7,,,67,0
93692,note_off,,,,,188,0,3,,,,,2,,,67,0
93692,note_off,,,,,188,0,6,,,,,5,,,58,0
93692,note_off,,,,,188,0,7,,,,,6,,,46,0
93692,note_off,,,,,188,0,9,,,,,8,,,58,0
93692,note_off,,,,,188,0,2,,,,,1,,,67,0
93692,note_off,,,,,188,0,1,,,,,0,,,67,0
93692,note_off,,,,,92,0,4,,,,,3,,,74,0
93696,note_on,,,,,4,0,4,,,,,3,,,75,127
93696,note_on,,,,,4,0,7,,,,,6,,,43,75
93696,note_on,,,,,4,0,6,,,,,5,,,55,92
93696,note_on,,,,,4,0,9,,,,,8,,,55,50
93696,note_on,,,,,64,0,8,,,,,7,,,63,50
93696,note_on,,,,,0,0,8,,,,,7,,,70,50
93788,note_off,,,,,92,0,4,,,,,3,,,75,0
93792,note_on,,,,,100,0,2,,,,,1,,,75,63
93792,note_on,,,,,100,0,1,,,,,0,,,75,63
93792,note_on,,,,,100,0,3,,,,,2,,,75,108
93792,note_on,,,,,4,0,4,,,,,3,,,72,127
93824,note_off,,,,,512,0,5,,,,,4,,,63,0
93884,note_off,,,,,92,0,4,,,,,3,,,72,0
93884,note_off,,,,,188,0,6,,,,,5,,,55,0
93884,note_off,,,,,92,0,3,,,,,2,,,75,0
93884,note_off,,,,,92,0,1,,,,,0,,,75,0
93884,note_off,,,,,188,0,7,,,,,6,,,43,0
93884,note_off,,,,,92,0,2,,,,,1,,,75,0
93884,note_off,,,,,188,0,9,,,,,8,,,55,0
93888,note_on,,,,,0,0,8,,,,,7,,,72,50
93888,note_on,,,,,4,0,9,,,,,8,,,51,50
93888,note_on,,,,,4,0,1,,,,,0,,,77,63
93888,note_on,,,,,4,0,2,,,,,1,,,77,63
93888,note_on,,,,,64,0,5,,,,,4,,,60,92
93888,note_on,,,,,4,0,4,,,,,3,,,74,127
93888,note_on,,,,,192,0,8,,,,,7,,,67,50
93888,note_on,,,,,4,0,3,,,,,2,,,77,108
93888,note_on,,,,,4,0,7,,,,,6,,,39,75
93888,note_on,,,,,4,0,6,,,,,5,,,51,92
93980,note_off,,,,,92,0,4,,,,,3,,,74,0
93980,note_off,,,,,92,0,1,,,,,0,,,77,0
93980,note_off,,,,,92,0,3,,,,,2,,,77,0
93980,note_off,,,,,92,0,2,,,,,1,,,77,0
93984,note_on,,,,,4,0,1,,,,,0,,,79,63
93984,note_on,,,,,4,0,3,,,,,2,,,79,108
93984,note_on,,,,,4,0,2,,,,,1,,,79,63
93984,note_on,,,,,4,0,4,,,,,3,,,75,127
94076,note_off,,,,,92,0,2,,,,,1,,,79,0
94076,note_off,,,,,188,0,9,,,,,8,,,51,0
94076,note_off,,,,,188,0,5,,,,,4,,,60,0
94076,note_off,,,,,0,0,8,,,,,7,,,70,0
94076,note_off,,,,,92,0,3,,,,,2,,,79,0
94076,note_off,,,,,92,0,1,,,,,0,,,79,0
94076,note_off,,,,,188,0,7,,,,,6,,,39,0
94076,note_off,,,,,188,0,6,,,,,5,,,51,0
94076,note_off,,,,,188,0,8,,,,,7,,,63,0
94076,note_off,,,,,92,0,4,,,,,3,,,75,0
94076,note_off,,,,,0,0,8,,,,,7,,,72,0
94076,note_off,,,,,0,0,8,,,,,7,,,67,0
94080,note_on,,,,,4,0,5,,,,,4,,,60,92
94080,note_on,,,,,0,0,8,,,,,7,,,68,50
94080,note_on,,,,,0,0,8,,,,,7,,,72,50
94080,note_on,,,,,4,0,1,,,,,0,,,72,63
94080,note_on,,,,,4,0,6,,,,,5,,,53,92
94080,note_on,,,,,4,0,2,,,,,1,,,72,63
94080,note_on,,,,,4,0,9,,,,,8,,,53,50
94080,note_on,,,,,4,0,7,,,,,6,,,41,75
94080,note_on,,,,,4,0,4,,,,,3,,,68,127
94080,note_on,,,,,4,0,8,,,,,7,,,60,50
94080,note_on,,,,,4,0,3,,,,,2,,,72,108
94172,note_off,,,,,92,0,2,,,,,1,,,72,0
94172,note_off,,,,,92,0,1,,,,,0,,,72,0
94172,note_off,,,,,92,0,4,,,,,3,,,68,0
94172,note_off,,,,,92,0,3,,,,,2,,,72,0
94176,note_on,,,,,4,0,4,,,,,3,,,77,127
94176,note_on,,,,,4,0,1,,,,,0,,,80,63
94176,note_on,,,,,4,0,3,,,,,2,,,80,108
94176,note_on,,,,,4,0,2,,,,,1,,,80,63
94268,note_off,,,,,188,0,5,,,,,4,,,60,0
94268,note_off,,,,,92,0,1,,,,,0,,,80,0
94268,note_off,,,,,188,0,9,,,,,8,,,53,0
94268,note_off,,,,,92,0,2,,,,,1,,,80,0
94268,note_off,,,,,188,0,6,,,,,5,,,53,0
94268,note_off,,,,,188,0,7,,,,,6,,,41,0
94268,note_off,,,,,92,0,4,,,,,3,,,77,0
94268,note_off,,,,,92,0,3,,,,,2,,,80,0
94272,note_on,,,,,4,0,2,,,,,1,,,79,63
94272,note_on,,,,,4,0,6,,,,,5,,,41,92
94272,note_on,,,,,4,0,7,,,,,6,,,29,75
94272,note_on,,,,,4,0,1,,,,,0,,,79,63
94272,note_on,,,,,4,0,3,,,,,2,,,79,108
94272,note_on,,,,,4,0,4,,,,,3,,,75,127
94272,note_on,,,,,4,0,5,,,,,4,,,60,92
94272,note_on,,,,,4,0,9,,,,,8,,,41,50
94364,note_off,,,,,92,0,2,,,,,1,,,79,0
94364,note_off,,,,,92,0,4,,,,,3,,,75,0
94364,note_off,,,,,92,0,3,,,,,2,,,79,0
94364,note_off,,,,,92,0,1,,,,,0,,,79,0
94368,note_on,,,,,4,0,4,,,,,3,,,77,127
94368,note_on,,,,,4,0,1,,,,,0,,,80,63
94368,note_on,,,,,4,0,3,,,,,2,,,80,108
94368,note_on,,,,,4,0,2,,,,,1,,,80,63
94400,note_off,,,,,0,0,8,,,,,7,,,72,0
94400,note_off,,,,,0,0,8,,,,,7,,,68,0
94400,note_off,,,,,320,0,8,,,,,7,,,60,0
94460,note_off,,,,,188,0,7,,,,,6,,,29,0
94460,note_off,,,,,92,0,4,,,,,3,,,77,0
94460,note_off,,,,,188,0,5,,,,,4,,,60,0
94460,note_off,,,,,92,0,1,,,,,0,,,80,0
94460,note_off,,,,,188,0,6,,,,,5,,,41,0
94460,note_off,,,,,92,0,3,,,,,2,,,80,0
94460,note_off,,,,,92,0,2,,,,,1,,,80,0
94460,note_off,,,,,188,0,9,,,,,8,,,41,0
94464,note_on,,,,,4,0,1,,,,,0,,,77,63
94464,note_on,,,,,4,0,4,,,,,3,,,74,127
94464,note_on,,,,,4,0,5,,,,,4,,,65,92
94464,note_on,,,,,4,0,3,,,,,2,,,77,108
94464,note_on,,,,,4,0,2,,,,,1,,,77,63
94556,note_off,,,,,92,0,4,,,,,3,,,74,0
94556,note_off,,,,,92,0,2,,,,,1,,,77,0
94556,note_off,,,,,92,0,3,,,,,2,,,77,0
94556,note_off,,,,,92,0,1,,,,,0,,,77,0
94560,note_on,,,,,4,0,3,,,,,2,,,79,108
94560,note_on,,,,,4,0,4,,,,,3,,,75,127
94560,note_on,,,,,4,0,1,,,,,0,,,79,63
94560,note_on,,,,,4,0,2,,,,,1,,,79,63
94652,note_off,,,,,188,0,5,,,,,4,,,65,0
94652,note_off,,,,,92,0,3,,,,,2,,,79,0
94652,note_off,,,,,92,0,1,,,,,0,,,79,0
94652,note_off,,,,,92,0,2,,,,,1,,,79,0
94652,note_off,,,,,92,0,4,,,,,3,,,75,0
94656,note_on,,,,,4,0,3,,,,,2,,,75,108
94656,note_on,,,,,196,0,7,,,,,6,,,41,75
94656,note_on,,,,,4,0,1,,,,,0,,,75,63
94656,note_on,,,,,4,0,2,,,,,1,,,75,63
94656,note_on,,,,,4,0,4,,,,,3,,,72,127
94656,note_on,,,,,196,0,6,,,,,5,,,53,92
94656,note_on,,,,,4,0,5,,,,,4,,,68,92
94656,note_on,,,,,196,0,9,,,,,8,,,53,50
94656,note_on,,,,,256,0,8,,,,,7,,,65,50
94656,note_on,,,,,0,0,8,,,,,7,,,74,50
94656,note_on,,,,,0,0,8,,,,,7,,,68,50
94748,note_off,,,,,92,0,4,,,,,3,,,72,0
94748,note_off,,,,,92,0,3,,,,,2,,,75,0
94748,note_off,,,,,92,0,2,,,,,1,,,75,0
94748,note_off,,,,,92,0,1,,,,,0,,,75,0
94752,note_on,,,,,4,0,4,,,,,3,,,74,127
94752,note_on,,,,,4,0,3,,,,,2,,,77,108
94752,note_on,,,,,4,0,2,,,,,1,,,77,63
94752,note_on,,,,,4,0,1,,,,,0,,,77,63
94844,note_off,,,,,0,0,8,,,,,7,,,74,0
94844,note_off,,,,,0,0,8,,,,,7,,,68,0
94844,note_off,,,,,188,0,8,,,,,7,,,65,0
94844,note_off,,,,,92,0,3,,,,,2,,,77,0
94844,note_off,,,,,188,0,7,,,,,6,,,41,0
94844,note_off,,,,,92,0,1,,,,,0,,,77,0
94844,note_off,,,,,92,0,2,,,,,1,,,77,0
94844,note_off,,,,,92,0,4,,,,,3,,,74,0
94844,note_off,,,,,188,0,9,,,,,8,,,53,0
94844,note_off,,,,,188,0,6,,,,,5,,,53,0
94844,note_off,,,,,188,0,5,,,,,4,,,68,0
94848,note_on,,,,,4,0,6,,,,,5,,,55,92
94848,note_on,,,,,4,0,1,,,,,0,,,74,63
94848,note_on,,,,,4,0,3,,,,,2,,,74,108
94848,note_on,,,,,4,0,2,,,,,1,,,74,63
94848,note_on,,,,,4,0,9,,,,,8,,,55,50
94848,note_on,,,,,4,0,5,,,,,4,,,62,92
94848,note_on,,,,,4,0,7,,,,,6,,,43,75
94848,note_on,,,,,4,0,4,,,,,3,,,71,127
94848,note_on,,,,,4,0,8,,,,,7,,,62,50
94848,note_on,,,,,0,0,8,,,,,7,,,67,50
94848,note_on,,,,,0,0,8,,,,,7,,,71,50
94940,note_off,,,,,92,0,4,,,,,3,,,71,0
94944,note_on,,,,,4,0,4,,,,,3,,,79,127
95036,note_off,,,,,188,0,2,,,,,1,,,74,0
95036,note_off,,,,,188,0,7,,,,,6,,,43,0
95036,note_off,,,,,188,0,3,,,,,2,,,74,0
95036,note_off,,,,,188,0,1,,,,,0,,,74,0
95036,note_off,,,,,188,0,6,,,,,5,,,55,0
95036,note_off,,,,,188,0,9,,,,,8,,,55,0
95036,note_off,,,,,92,0,4,,,,,3,,,79,0
95036,note_off,,,,,188,0,5,,,,,4,,,62,0
95040,note_on,,,,,4,0,5,,,,,4,,,71,92
95040,note_on,,,,,4,0,3,,,,,2,,,67,108
95040,note_on,,,,,4,0,2,,,,,1,,,67,63
95040,note_on,,,,,4,0,9,,,,,8,,,43,50
95040,note_on,,,,,4,0,4,,,,,3,,,77,127
95040,note_on,,,,,4,0,6,,,,,5,,,43,92
95040,note_on,,,,,4,0,1,,,,,0,,,67,63
95040,note_on,,,,,4,0,7,,,,,6,,,31,75
95132,note_off,,,,,92,0,4,,,,,3,,,77,0
95136,note_on,,,,,4,0,4,,,,,3,,,79,127
95168,note_off,,,,,0,0,8,,,,,7,,,71,0
95168,note_off,,,,,0,0,8,,,,,7,,,67,0
95168,note_off,,,,,320,0,8,,,,,7,,,62,0
95228,note_off,,,,,188,0,1,,,,,0,,,67,0
95228,note_off,,,,,188,0,6,,,,,5,,,43,0
95228,note_off,,,,,188,0,7,,,,,6,,,31,0
95228,note_off,,,,,92,0,4,,,,,3,,,79,0
95228,note_off,,,,,188,0,3,,,,,2,,,67,0
95228,note_off,,,,,188,0,9,,,,,8,,,43,0
95228,note_off,,,,,188,0,2,,,,,1,,,67,0
95228,note_off,,,,,188,0,5,,,,,4,,,71,0
95232,note_on,,,,,0,0,8,,,,,7,,,72,50
95232,note_on,,,,,4,0,9,,,,,8,,,51,50
95232,note_on,,,,,4,0,7,,,,,6,,,39,75
95232,note_on,,,,,0,0,8,,,,,7,,,67,50
95232,note_on,,,,,4,0,5,,,,,4,,,67,92
95232,note_on,,,,,4,0,4,,,,,3,,,72,127
95232,note_on,,,,,4,0,6,,,,,5,,,51,92
95232,note_on,,,,,64,0,8,,,,,7,,,60,50
95324,note_off,,,,,92,0,4,,,,,3,,,72,0
95328,note_on,,,,,4,0,4,,,,,3,,,75,127
95420,note_off,,,,,92,0,4,,,,,3,,,75,0
95424,note_on,,,,,4,0,4,,,,,3,,,74,127
95516,note_off,,,,,92,0,4,,,,,3,,,74,0
95520,note_on,,,,,4,0,4,,,,,3,,,75,127
95552,note_off,,,,,320,0,8,,,,,7,,,60,0
95552,note_off,,,,,0,0,8,,,,,7,,,67,0
95552,note_off,,,,,0,0,8,,,,,7,,,72,0
95552,note_off,,,,,320,0,9,,,,,8,,,51,0
95552,note_off,,,,,320,0,6,,,,,5,,,51,0
95552,note_off,,,,,320,0,5,,,,,4,,,67,0
95552,note_off,,,,,320,0,7,,,,,6,,,39,0
95612,note_off,,,,,92,0,4,,,,,3,,,75,0
95616,note_on,,,,,64,0,9,,,,,8,,,53,50
95616,note_on,,,,,0,0,8,,,,,7,,,65,50
95616,note_on,,,,,0,0,8,,,,,7,,,68,50
95616,note_on,,,,,64,0,8,,,,,7,,,60,50
95616,note_on,,,,,64,0,7,,,,,6,,,41,75
95616,note_on,,,,,4,0,4,,,,,3,,,72,127
95616,note_on,,,,,64,0,6,,,,,5,,,53,92
95616,note_on,,,,,64,0,5,,,,,4,,,68,92
95712,note_on,,,,,484,0,1,,,,,0,,,75,63
95712,note_on,,,,,484,0,2,,,,,1,,,75,63
95712,note_on,,,,,484,0,3,,,,,2,,,75,108
95804,note_off,,,,,92,0,1,,,,,0,,,75,0
95804,note_off,,,,,92,0,2,,,,,1,,,75,0
95804,note_off,,,,,92,0,3,,,,,2,,,75,0
95808,note_on,,,,,4,0,2,,,,,1,,,74,63
95808,note_on,,,,,4,0,1,,,,,0,,,74,63
95808,note_on,,,,,4,0,3,,,,,2,,,74,108
95900,note_off,,,,,92,0,1,,,,,0,,,74,0
95900,note_off,,,,,92,0,3,,,,,2,,,74,0
95900,note_off,,,,,92,0,2,,,,,1,,,74,0
95904,note_on,,,,,4,0,2,,,,,1,,,75,63
95904,note_on,,,,,4,0,1,,,,,0,,,75,63
95904,note_on,,,,,4,0,3,,,,,2,,,75,108
95936,note_off,,,,,320,0,7,,,,,6,,,41,0
95936,note_off,,,,,320,0,5,,,,,4,,,68,0
95936,note_off,,,,,320,0,9,,,,,8,,,53,0
95936,note_off,,,,,320,0,6,,,,,5,,,53,0
95936,note_off,,,,,320,0,8,,,,,7,,,65,0
95936,note_off,,,,,0,0,8,,,,,7,,,68,0
95996,note_off,,,,,92,0,3,,,,,2,,,75,0
95996,note_off,,,,,92,0,1,,,,,0,,,75,0
95996,note_off,,,,,92,0,2,,,,,1,,,75,0
96000,note_on,,,,,64,0,6,,,,,5,,,55,92
96000,note_on,,,,,64,0,9,,,,,8,,,55,50
96000,note_on,,,,,4,0,1,,,,,0,,,72,63
96000,note_on,,,,,4,0,2,,,,,1,,,72,63
96000,note_on,,,,,64,0,7,,,,,6,,,43,75
96000,note_on,,,,,64,0,5,,,,,4,,,63,92
96000,note_on,,,,,4,0,3,,,,,2,,,72,108
96000,note_on,,,,,64,0,8,,,,,7,,,63,50
96000,note_on,,,,,0,0,8,,,,,7,,,67,50
96092,note_off,,,,,92,0,3,,,,,2,,,72,0
96092,note_off,,,,,92,0,1,,,,,0,,,72,0
96092,note_off,,,,,92,0,2,,,,,1,,,72,0
96096,note_on,,,,,4,0,1,,,,,0,,,75,63
96096,note_on,,,,,4,0,3,,,,,2,,,75,108
96096,note_on,,,,,4,0,2,,,,,1,,,75,63
96188,note_off,,,,,92,0,3,,,,,2,,,75,0
96188,note_off,,,,,92,0,2,,,,,1,,,75,0
96188,note_off,,,,,92,0,1,,,,,0,,,75,0
96192,note_on,,,,,4,0,2,,,,,1,,,74,63
96192,note_on,,,,,4,0,1,,,,,0,,,74,63
96192,note_on,,,,,4,0,3,,,,,2,,,74,108
96284,note_off,,,,,92,0,1,,,,,0,,,74,0
96284,note_off,,,,,92,0,2,,,,,1,,,74,0
96284,note_off,,,,,92,0,3,,,,,2,,,74,0
96288,note_on,,,,,4,0,1,,,,,0,,,75,63
96288,note_on,,,,,4,0,2,,,,,1,,,75,63
96288,note_off,,,,,288,0,8,,,,,7,,,60,0
96288,note_on,,,,,4,0,3,,,,,2,,,75,108
96320,note_off,,,,,32,0,8,,,,,7,,,63,0
96320,note_off,,,,,0,0,8,,,,,7,,,67,0
96320,note_off,,,,,320,0,7,,,,,6,,,43,0
96320,note_off,,,,,320,0,5,,,,,4,,,63,0
96320,note_off,,,,,320,0,9,,,,,8,,,55,0
96320,note_off,,,,,320,0,6,,,,,5,,,55,0
96380,note_off,,,,,92,0,1,,,,,0,,,75,0
96380,note_off,,,,,92,0,3,,,,,2,,,75,0
96380,note_off,,,,,92,0,2,,,,,1,,,75,0
96384,note_on,,,,,4,0,1,,,,,0,,,72,63
96384,note_on,,,,,4,0,3,,,,,2,,,72,108
96384,note_on,,,,,0,0,8,,,,,7,,,65,50
96384,note_on,,,,,64,0,5,,,,,4,,,65,92
96384,note_on,,,,,64,0,9,,,,,8,,,56,50
96384,note_on,,,,,64,0,8,,,,,7,,,60,50
96384,note_on,,,,,64,0,7,,,,,6,,,44,75
96384,note_on,,,,,4,0,2,,,,,1,,,72,63
96384,note_on,,,,,64,0,6,,,,,5,,,56,92
96476,note_off,,,,,860,0,4,,,,,3,,,72,0
96480,note_on,,,,,4,0,4,,,,,3,,,75,127
96572,note_off,,,,,92,0,4,,,,,3,,,75,0
96576,note_on,,,,,4,0,4,,,,,3,,,74,127
96668,note_off,,,,,92,0,4,,,,,3,,,74,0
96672,note_on,,,,,4,0,4,,,,,3,,,75,127
96704,note_off,,,,,320,0,7,,,,,6,,,44,0
96704,note_off,,,,,0,0,8,,,,,7,,,65,0
96704,note_off,,,,,320,0,6,,,,,5,,,56,0
96704,note_off,,,,,320,0,5,,,,,4,,,65,0
96704,note_off,,,,,320,0,9,,,,,8,,,56,0
96704,note_off,,,,,320,0,8,,,,,7,,,60,0
96768,note_on,,,,,64,0,7,,,,,6,,,39,75
96768,note_on,,,,,64,0,6,,,,,5,,,51,92
96768,note_on,,,,,64,0,9,,,,,8,,,51,50
96768,note_off,,,,,96,0,4,,,,,3,,,75,0
96768,note_on,,,,,0,0,8,,,,,7,,,67,50
96768,note_on,,,,,0,0,8,,,,,7,,,72,50
96768,note_on,,,,,0,0,4,,,,,3,,,72,127
96768,note_on,,,,,64,0,5,,,,,4,,,67,92
96768,note_on,,,,,64,0,8,,,,,7,,,60,50
96860,note_off,,,,,476,0,3,,,,,2,,,72,0
96860,note_off,,,,,476,0,2,,,,,1,,,72,0
96860,note_off,,,,,476,0,1,,,,,0,,,72,0
96864,note_on,,,,,4,0,2,,,,,1,,,79,63
96864,note_on,,,,,4,0,1,,,,,0,,,79,63
96864,note_on,,,,,4,0,3,,,,,2,,,79,108
96956,note_off,,,,,92,0,2,,,,,1,,,79,0
96956,note_off,,,,,92,0,1,,,,,0,,,79,0
96956,note_off,,,,,92,0,3,,,,,2,,,79,0
96960,note_on,,,,,4,0,1,,,,,0,,,77,63
96960,note_on,,,,,4,0,3,,,,,2,,,77,108
96960,note_on,,,,,4,0,2,,,,,1,,,77,63
97052,note_off,,,,,92,0,2,,,,,1,,,77,0
97052,note_off,,,,,92,0,1,,,,,0,,,77,0
97052,note_off,,,,,92,0,3,,,,,2,,,77,0
97056,note_on,,,,,4,0,3,,,,,2,,,79,108
97056,note_on,,,,,4,0,1,,,,,0,,,79,63
97056,note_on,,,,,4,0,2,,,,,1,,,79,63
97088,note_off,,,,,320,0,9,,,,,8,,,51,0
97088,note_off,,,,,320,0,6,,,,,5,,,51,0
97088,note_off,,,,,320,0,7,,,,,6,,,39,0
97088,note_off,,,,,0,0,8,,,,,7,,,72,0
97088,note_off,,,,,0,0,8,,,,,7,,,67,0
97088,note_off,,,,,320,0,8,,,,,7,,,60,0
97088,note_off,,,,,320,0,5,,,,,4,,,67,0
97148,note_off,,,,,92,0,1,,,,,0,,,79,0
97148,note_off,,,,,92,0,2,,,,,1,,,79,0
97148,note_off,,,,,92,0,3,,,,,2,,,79,0
97152,note_on,,,,,64,0,7,,,,,6,,,41,75
97152,note_on,,,,,4,0,1,,,,,0,,,80,63
97152,note_on,,,,,4,0,3,,,,,2,,,80,108
97152,note_on,,,,,4,0,2,,,,,1,,,80,63
97152,note_on,,,,,64,0,9,,,,,8,,,53,50
97152,note_on,,,,,64,0,6,,,,,5,,,53,92
97152,note_on,,,,,0,0,4,,,,,3,,,72,127
97152,note_off,,,,,384,0,4,,,,,3,,,72,0
97152,note_on,,,,,64,0,5,,,,,4,,,65,92
97152,note_on,,,,,64,0,8,,,,,7,,,60,50
97152,note_on,,,,,0,0,8,,,,,7,,,65,50
97152,note_on,,,,,0,0,8,,,,,7,,,68,50
97244,note_off,,,,,92,0,4,,,,,3,,,72,0
97248,note_on,,,,,4,0,4,,,,,3,,,79,127
97340,note_off,,,,,188,0,5,,,,,4,,,65,0
97340,note_off,,,,,188,0,2,,,,,1,,,80,0
97340,note_off,,,,,92,0,4,,,,,3,,,79,0
97340,note_off,,,,,188,0,3,,,,,2,,,80,0
97340,note_off,,,,,188,0,1,,,,,0,,,80,0
97344,note_on,,,,,4,0,5,,,,,4,,,68,92
97344,note_on,,,,,4,0,2,,,,,1,,,72,63
97344,note_on,,,,,4,0,4,,,,,3,,,77,127
97344,note_on,,,,,4,0,1,,,,,0,,,72,63
97344,note_on,,,,,4,0,3,,,,,2,,,72,108
97436,note_off,,,,,92,0,4,,,,,3,,,77,0
97440,note_on,,,,,4,0,4,,,,,3,,,79,127
97472,note_off,,,,,0,0,8,,,,,7,,,68,0
97472,note_off,,,,,0,0,8,,,,,7,,,65,0
97472,note_off,,,,,320,0,8,,,,,7,,,60,0
97472,note_off,,,,,320,0,7,,,,,6,,,41,0
97472,note_off,,,,,320,0,9,,,,,8,,,53,0
97472,note_off,,,,,320,0,6,,,,,5,,,53,0
97532,note_off,,,,,92,0,4,,,,,3,,,79,0
97532,note_off,,,,,188,0,3,,,,,2,,,72,0
97532,note_off,,,,,188,0,1,,,,,0,,,72,0
97532,note_off,,,,,188,0,2,,,,,1,,,72,0
97532,note_off,,,,,188,0,5,,,,,4,,,68,0
97536,note_on,,,,,0,0,8,,,,,7,,,62,50
97536,note_on,,,,,0,0,8,,,,,7,,,67,50
97536,note_on,,,,,4,0,1,,,,,0,,,71,63
97536,note_on,,,,,4,0,4,,,,,3,,,77,127
97536,note_on,,,,,64,0,6,,,,,5,,,55,92
97536,note_on,,,,,4,0,3,,,,,2,,,71,108
97536,note_on,,,,,64,0,7,,,,,6,,,43,75
97536,note_on,,,,,4,0,2,,,,,1,,,71,63
97536,note_on,,,,,4,0,5,,,,,4,,,62,92
97536,note_on,,,,,64,0,9,,,,,8,,,55,50
97536,note_on,,,,,64,0,8,,,,,7,,,59,50
97628,note_off,,,,,92,0,4,,,,,3,,,77,0
97632,note_on,,,,,4,0,4,,,,,3,,,80,127
97724,note_off,,,,,188,0,1,,,,,0,,,71,0
97724,note_off,,,,,188,0,2,,,,,1,,,71,0
97724,note_off,,,,,92,0,4,,,,,3,,,80,0
97724,note_off,,,,,188,0,3,,,,,2,,,71,0
97728,note_on,,,,,4,0,1,,,,,0,,,83,63
97728,note_on,,,,,4,0,2,,,,,1,,,83,63
97728,note_on,,,,,4,0,4,,,,,3,,,79,127
97728,note_on,,,,,4,0,3,,,,,2,,,83,108
97820,note_off,,,,,92,0,4,,,,,3,,,79,0
97824,note_on,,,,,4,0,4,,,,,3,,,77,127
97856,note_off,,,,,320,0,7,,,,,6,,,43,0
97856,note_off,,,,,320,0,5,,,,,4,,,62,0
97856,note_off,,,,,320,0,6,,,,,5,,,55,0
97856,note_off,,,,,320,0,9,,,,,8,,,55,0
97856,note_off,,,,,0,0,8,,,,,7,,,67,0
97856,note_off,,,,,0,0,8,,,,,7,,,62,0
97856,note_off,,,,,320,0,8,,,,,7,,,59,0
97916,note_off,,,,,92,0,4,,,,,3,,,77,0
97916,note_off,,,,,188,0,2,,,,,1,,,83,0
97916,note_off,,,,,188,0,1,,,,,0,,,83,0
97916,note_off,,,,,188,0,3,,,,,2,,,83,0
97920,note_on,,,,,4,0,2,,,,,1,,,84,63
97920,note_on,,,,,64,0,5,,,,,4,,,60,92
97920,note_on,,,,,4,0,3,,,,,2,,,84,108
97920,note_on,,,,,64,0,6,,,,,5,,,56,92
97920,note_on,,,,,64,0,9,,,,,8,,,56,50
97920,note_on,,,,,64,0,7,,,,,6,,,44,75
97920,note_on,,,,,0,0,8,,,,,7,,,63,50
97920,note_on,,,,,4,0,4,,,,,3,,,75,127
97920,note_on,,,,,4,0,1,,,,,0,,,84,63
97920,note_on,,,,,64,0,8,,,,,7,,,60,50
98012,note_off,,,,,92,0,4,,,,,3,,,75,0
98016,note_on,,,,,4,0,4,,,,,3,,,74,127
98108,note_off,,,,,92,0,4,,,,,3,,,74,0
98112,note_on,,,,,4,0,4,,,,,3,,,75,127
98204,note_off,,,,,92,0,4,,,,,3,,,75,0
98208,note_on,,,,,4,0,4,,,,,3,,,72,127
98240,note_off,,,,,0,0,8,,,,,7,,,63,0
98240,note_off,,,,,320,0,5,,,,,4,,,60,0
98240,note_off,,,,,320,0,7,,,,,6,,,44,0
98240,note_off,,,,,320,0,6,,,,,5,,,56,0
98240,note_off,,,,,320,0,9,,,,,8,,,56,0
98240,note_off,,,,,320,0,8,,,,,7,,,60,0
98300,note_off,,,,,92,0,4,,,,,3,,,72,0
98304,note_on,,,,,64,0,5,,,,,4,,,72,92
98304,note_on,,,,,4,0,4,,,,,3,,,79,127
98304,note_on,,,,,64,0,9,,,,,8,,,51,50
98304,note_on,,,,,64,0,8,,,,,7,,,60,50
98304,note_on,,,,,64,0,6,,,,,5,,,51,92
98304,note_on,,,,,64,0,7,,,,,6,,,39,75
98304,note_on,,,,,0,0,8,,,,,7,,,67,50
98396,note_off,,,,,476,0,3,,,,,2,,,84,0
98396,note_off,,,,,476,0,2,,,,,1,,,84,0
98396,note_off,,,,,476,0,1,,,,,0,,,84,0
98400,note_on,,,,,4,0,3,,,,,2,,,72,108
98400,note_on,,,,,4,0,2,,,,,1,,,72,63
98400,note_on,,,,,4,0,1,,,,,0,,,72,63
98492,note_off,,,,,92,0,1,,,,,0,,,72,0
98492,note_off,,,,,92,0,3,,,,,2,,,72,0
98492,note_off,,,,,92,0,2,,,,,1,,,72,0
98496,note_on,,,,,4,0,1,,,,,0,,,71,63
98496,note_on,,,,,4,0,2,,,,,1,,,71,63
98496,note_on,,,,,4,0,3,,,,,2,,,71,108
98588,note_off,,,,,92,0,2,,,,,1,,,71,0
98588,note_off,,,,,92,0,3,,,,,2,,,71,0
98588,note_off,,,,,92,0,1,,,,,0,,,71,0
98592,note_on,,,,,4,0,1,,,,,0,,,72,63
98592,note_on,,,,,4,0,3,,,,,2,,,72,108
98592,note_on,,,,,4,0,2,,,,,1,,,72,63
98624,note_off,,,,,320,0,9,,,,,8,,,51,0
98624,note_off,,,,,320,0,7,,,,,6,,,39,0
98624,note_off,,,,,0,0,8,,,,,7,,,67,0
98624,note_off,,,,,320,0,8,,,,,7,,,60,0
98624,note_off,,,,,320,0,6,,,,,5,,,51,0
98684,note_off,,,,,92,0,3,,,,,2,,,72,0
98684,note_off,,,,,92,0,2,,,,,1,,,72,0
98684,note_off,,,,,92,0,1,,,,,0,,,72,0
98688,note_on,,,,,4,0,2,,,,,1,,,80,63
98688,note_on,,,,,4,0,3,,,,,2,,,80,108
98688,note_on,,,,,4,0,1,,,,,0,,,80,63
98688,note_on,,,,,64,0,9,,,,,8,,,53,50
98688,note_on,,,,,64,0,6,,,,,5,,,53,92
98688,note_on,,,,,0,0,8,,,,,7,,,67,50
98688,note_on,,,,,0,0,8,,,,,7,,,68,50
98688,note_on,,,,,64,0,7,,,,,6,,,41,75
98688,note_on,,,,,64,0,8,,,,,7,,,60,50
98876,note_off,,,,,572,0,4,,,,,3,,,79,0
98876,note_off,,,,,188,0,8,,,,,7,,,67,0
98880,note_on,,,,,4,0,8,,,,,7,,,65,50
98880,note_on,,,,,4,0,4,,,,,3,,,77,127
98972,note_off,,,,,284,0,3,,,,,2,,,80,0
98972,note_off,,,,,284,0,2,,,,,1,,,80,0
98972,note_off,,,,,284,0,1,,,,,0,,,80,0
98976,note_on,,,,,4,0,2,,,,,1,,,79,63
98976,note_on,,,,,4,0,1,,,,,0,,,79,63
98976,note_on,,,,,4,0,3,,,,,2,,,79,108
99008,note_off,,,,,320,0,7,,,,,6,,,41,0
99008,note_off,,,,,320,0,6,,,,,5,,,53,0
99008,note_off,,,,,704,0,5,,,,,4,,,72,0
99008,note_off,,,,,320,0,9,,,,,8,,,53,0
99068,note_off,,,,,92,0,2,,,,,1,,,79,0
99068,note_off,,,,,0,0,8,,,,,7,,,65,0
99068,note_off,,,,,0,0,8,,,,,7,,,68,0
99068,note_off,,,,,188,0,8,,,,,7,,,60,0
99068,note_off,,,,,92,0,3,,,,,2,,,79,0
99068,note_off,,,,,188,0,4,,,,,3,,,77,0
99068,note_off,,,,,92,0,1,,,,,0,,,79,0
99072,note_on,,,,,64,0,7,,,,,6,,,44,75
99072,note_on,,,,,64,0,9,,,,,8,,,56,50
99072,note_on,,,,,64,0,6,,,,,5,,,56,92
99072,note_on,,,,,4,0,1,,,,,0,,,77,63
99072,note_on,,,,,4,0,8,,,,,7,,,60,50
99072,note_on,,,,,4,0,2,,,,,1,,,77,63
99072,note_on,,,,,64,0,5,,,,,4,,,60,92
99072,note_on,,,,,4,0,4,,,,,3,,,65,127
99072,note_on,,,,,0,0,8,,,,,7,,,72,50
99072,note_on,,,,,4,0,3,,,,,2,,,77,108
99072,note_on,,,,,0,0,8,,,,,7,,,65,50
99164,note_off,,,,,92,0,1,,,,,0,,,77,0
99164,note_off,,,,,92,0,2,,,,,1,,,77,0
99164,note_off,,,,,92,0,3,,,,,2,,,77,0
99168,note_on,,,,,4,0,3,,,,,2,,,75,108
99168,note_on,,,,,4,0,1,,,,,0,,,75,63
99168,note_on,,,,,4,0,2,,,,,1,,,75,63
99260,note_off,,,,,92,0,1,,,,,0,,,75,0
99260,note_off,,,,,92,0,2,,,,,1,,,75,0
99260,note_off,,,,,92,0,3,,,,,2,,,75,0
99264,note_on,,,,,4,0,1,,,,,0,,,74,63
99264,note_on,,,,,4,0,3,,,,,2,,,74,108
99264,note_on,,,,,4,0,2,,,,,1,,,74,63
99356,note_off,,,,,92,0,1,,,,,0,,,74,0
99356,note_off,,,,,92,0,2,,,,,1,,,74,0
99356,note_off,,,,,92,0,3,,,,,2,,,74,0
99360,note_on,,,,,4,0,2,,,,,1,,,72,63
99360,note_on,,,,,4,0,1,,,,,0,,,72,63
99360,note_on,,,,,4,0,3,,,,,2,,,72,108
99392,note_off,,,,,320,0,7,,,,,6,,,44,0
99392,note_off,,,,,320,0,9,,,,,8,,,56,0
99392,note_off,,,,,320,0,4,,,,,3,,,65,0
99392,note_off,,,,,320,0,5,,,,,4,,,60,0
99392,note_off,,,,,320,0,8,,,,,7,,,60,0
99392,note_off,,,,,0,0,8,,,,,7,,,65,0
99392,note_off,,,,,0,0,8,,,,,7,,,72,0
99392,note_off,,,,,320,0,6,,,,,5,,,56,0
99452,note_off,,,,,92,0,2,,,,,1,,,72,0
99452,note_off,,,,,92,0,1,,,,,0,,,72,0
99452,note_off,,,,,92,0,3,,,,,2,,,72,0
99456,note_on,,,,,4,0,3,,,,,2,,,71,108
99456,note_on,,,,,64,0,6,,,,,5,,,55,92
99456,note_on,,,,,4,0,1,,,,,0,,,71,63
99456,note_on,,,,,0,0,8,,,,,7,,,71,50
99456,note_on,,,,,4,0,2,,,,,1,,,71,63
99456,note_on,,,,,0,0,8,,,,,7,,,67,50
99456,note_on,,,,,64,0,8,,,,,7,,,62,50
99456,note_on,,,,,64,0,7,,,,,6,,,43,75
99456,note_on,,,,,64,0,4,,,,,3,,,67,127
99456,note_on,,,,,64,0,9,,,,,8,,,55,50
99456,note_on,,,,,64,0,5,,,,,4,,,62,92
99740,note_off,,,,,284,0,1,,,,,0,,,71,0
99740,note_off,,,,,284,0,2,,,,,1,,,71,0
99740,note_off,,,,,284,0,3,,,,,2,,,71,0
99744,note_on,,,,,4,0,2,,,,,1,,,69,63
99744,note_on,,,,,4,0,3,,,,,2,,,69,108
99744,note_on,,,,,4,0,1,,,,,0,,,69,63
99776,note_off,,,,,320,0,6,,,,,5,,,55,0
99776,note_off,,,,,0,0,8,,,,,7,,,71,0
99776,note_off,,,,,0,0,8,,,,,7,,,67,0
99776,note_off,,,,,320,0,8,,,,,7,,,62,0
99776,note_off,,,,,320,0,5,,,,,4,,,62,0
99776,note_off,,,,,320,0,7,,,,,6,,,43,0
99776,note_off,,,,,320,0,9,,,,,8,,,55,0
99776,note_off,,,,,320,0,4,,,,,3,,,67,0
99836,note_off,,,,,92,0,3,,,,,2,,,69,0
99836,note_off,,,,,92,0,1,,,,,0,,,69,0
99836,note_off,,,,,92,0,2,,,,,1,,,69,0
99840,note_on,,,,,64,0,9,,,,,8,,,47,50
99840,note_on,,,,,64,0,5,,,,,4,,,55,92
99840,note_on,,,,,64,0,7,,,,,6,,,35,75
99840,note_on,,,,,64,0,8,,,,,7,,,62,50
99840,note_on,,,,,64,0,4,,,,,3,,,62,127
99840,note_on,,,,,4,0,2,,,,,1,,,67,63
99840,note_on,,,,,4,0,3,,,,,2,,,67,108
99840,note_on,,,,,0,0,8,,,,,7,,,67,50
99840,note_on,,,,,0,0,8,,,,,7,,,74,50
99840,note_on,,,,,64,0,6,,,,,5,,,47,92
99840,note_on,,,,,4,0,1,,,,,0,,,67,63
99932,note_off,,,,,92,0,2,,,,,1,,,67,0
99932,note_off,,,,,92,0,3,,,,,2,,,67,0
99932,note_off,,,,,92,0,1,,,,,0,,,67,0
99936,note_on,,,,,4,0,3,,,,,2,,,65,108
99936,note_on,,,,,4,0,2,,,,,1,,,65,63
99936,note_on,,,,,4,0,1,,,,,0,,,65,63
100028,note_off,,,,,92,0,2,,,,,1,,,65,0
100028,note_off,,,,,92,0,1,,,,,0,,,65,0
100028,note_off,,,,,92,0,3,,,,,2,,,65,0
100032,note_on,,,,,4,0,3,,,,,2,,,63,108
100032,note_on,,,,,4,0,2,,,,,1,,,63,63
100032,note_on,,,,,4,0,1,,,,,0,,,63,63
100124,note_off,,,,,92,0,3,,,,,2,,,63,0
100124,note_off,,,,,92,0,2,,,,,1,,,63,0
100124,note_off,,,,,92,0,1,,,,,0,,,63,0
100128,note_on,,,,,4,0,2,,,,,1,,,62,63
100128,note_on,,,,,4,0,3,,,,,2,,,62,108
100128,note_on,,,,,4,0,1,,,,,0,,,62,63
100160,note_off,,,,,320,0,8,,,,,7,,,62,0
100160,note_off,,,,,0,0,8,,,,,7,,,74,0
100160,note_off,,,,,320,0,7,,,,,6,,,35,0
100160,note_off,,,,,320,0,9,,,,,8,,,47,0
100160,note_off,,,,,320,0,5,,,,,4,,,55,0
100160,note_off,,,,,320,0,6,,,,,5,,,47,0
100160,note_off,,,,,0,0,8,,,,,7,,,67,0
100160,note_off,,,,,320,0,4,,,,,3,,,62,0
100220,note_off,,,,,92,0,3,,,,,2,,,62,0
100220,note_off,,,,,92,0,2,,,,,1,,,62,0
100220,note_off,,,,,92,0,1,,,,,0,,,62,0
100224,note_on,,,,,64,0,9,,,,,8,,,48,50
100224,note_on,,,,,0,0,8,,,,,7,,,72,50
100224,note_on,,,,,0,0,8,,,,,7,,,67,50
100224,note_on,,,,,4,0,1,,,,,0,,,63,63
100224,note_on,,,,,64,0,8,,,,,7,,,63,50
100224,note_on,,,,,64,0,7,,,,,6,,,36,75
100224,note_on,,,,,64,0,6,,,,,5,,,48,92
100224,note_on,,,,,64,0,5,,,,,4,,,55,92
100224,note_on,,,,,64,0,4,,,,,3,,,60,127
100224,note_on,,,,,4,0,3,,,,,2,,,63,108
100224,note_on,,,,,4,0,2,,,,,1,,,63,63
100412,note_off,,,,,188,0,7,,,,,6,,,36,0
100412,note_off,,,,,188,0,3,,,,,2,,,63,0
100412,note_off,,,,,188,0,2,,,,,1,,,63,0
100412,note_off,,,,,188,0,1,,,,,0,,,63,0
100412,note_off,,,,,188,0,9,,,,,8,,,48,0
100412,note_off,,,,,188,0,6,,,,,5,,,48,0
100416,note_on,,,,,4,0,3,,,,,2,,,72,108
100416,note_on,,,,,4,0,9,,,,,8,,,56,50
100416,note_on,,,,,4,0,2,,,,,1,,,72,63
100416,note_off,,,,,192,0,8,,,,,7,,,67,0
100416,note_on,,,,,0,0,8,,,,,7,,,68,50
100416,note_on,,,,,4,0,1,,,,,0,,,72,63
100416,note_on,,,,,4,0,6,,,,,5,,,56,92
100416,note_on,,,,,4,0,7,,,,,6,,,44,75
100544,note_off,,,,,320,0,5,,,,,4,,,55,0
100544,note_off,,,,,320,0,4,,,,,3,,,60,0
100604,note_off,,,,,188,0,1,,,,,0,,,72,0
100604,note_off,,,,,188,0,2,,,,,1,,,72,0
100604,note_off,,,,,188,0,3,,,,,2,,,72,0
100604,note_off,,,,,188,0,9,,,,,8,,,56,0
100604,note_off,,,,,188,0,7,,,,,6,,,44,0
100604,note_off,,,,,188,0,6,,,,,5,,,56,0
100608,note_on,,,,,4,0,3,,,,,2,,,62,108
100608,note_on,,,,,4,0,9,,,,,8,,,53,50
100608,note_on,,,,,4,0,2,,,,,1,,,62,63
100608,note_on,,,,,0,0,8,,,,,7,,,72,50
100608,note_on,,,,,0,0,8,,,,,7,,,62,50
100608,note_off,,,,,0,0,8,,,,,7,,,72,0
100608,note_off,,,,,192,0,8,,,,,7,,,63,0
100608,note_on,,,,,4,0,7,,,,,6,,,41,75
100608,note_on,,,,,4,0,6,,,,,5,,,53,92
100608,note_on,,,,,4,0,1,,,,,0,,,62,63
100796,note_off,,,,,188,0,3,,,,,2,,,62,0
100796,note_off,,,,,188,0,6,,,,,5,,,53,0
100796,note_off,,,,,188,0,9,,,,,8,,,53,0
100796,note_off,,,,,188,0,8,,,,,7,,,68,0
100796,note_off,,,,,188,0,7,,,,,6,,,41,0
100796,note_off,,,,,188,0,1,,,,,0,,,62,0
100796,note_off,,,,,0,0,8,,,,,7,,,72,0
100796,note_off,,,,,188,0,2,,,,,1,,,62,0
100800,note_on,,,,,4,0,2,,,,,1,,,71,63
100800,note_on,,,,,4,0,9,,,,,8,,,55,50
100800,note_on,,,,,4,0,1,,,,,0,,,71,63
100800,note_on,,,,,4,0,8,,,,,7,,,67,50
100800,note_on,,,,,4,0,3,,,,,2,,,71,108
100800,note_on,,,,,4,0,6,,,,,5,,,55,92
100800,note_on,,,,,0,0,8,,,,,7,,,71,50
100800,note_on,,,,,4,0,7,,,,,6,,,43,75
100928,note_off,,,,,128,0,8,,,,,7,,,62,0
100988,note_off,,,,,60,0,8,,,,,7,,,67,0
100988,note_off,,,,,0,0,8,,,,,7,,,71,0
100988,note_off,,,,,188,0,6,,,,,5,,,55,0
100988,note_off,,,,,188,0,7,,,,,6,,,43,0
100988,note_off,,,,,188,0,9,,,,,8,,,55,0
100988,note_off,,,,,188,0,1,,,,,0,,,71,0
100988,note_off,,,,,188,0,2,,,,,1,,,71,0
100988,note_off,,,,,188,0,3,,,,,2,,,71,0
100992,note_on,,,,,4,0,1,,,,,0,,,61,88
100992,note_on,,,,,4,0,8,,,,,7,,,61,50
100992,note_on,,,,,4,0,2,,,,,1,,,61,88
100992,note_on,,,,,448,0,4,,,,,3,,,58,127
100992,note_on,,,,,4,0,9,,,,,8,,,52,50
100992,note_on,,,,,0,0,8,,,,,7,,,70,50
100992,note_on,,,,,4,0,3,,,,,2,,,61,127
100992,note_on,,,,,0,0,8,,,,,7,,,67,50
100992,note_on,,,,,448,0,5,,,,,4,,,55,92
100992,note_on,,,,,4,0,6,,,,,5,,,52,92
100992,note_on,,,,,4,0,7,,,,,6,,,40,75
101312,note_off,,,,,320,0,4,,,,,3,,,58,0
101312,note_off,,,,,320,0,5,,,,,4,,,55,0
101568,note_on,,,,,256,0,4,,,,,3,,,70,75
101568,note_on,,,,,256,0,5,,,,,4,,,70,60
101664,note_off,,,,,672,0,7,,,,,6,,,40,0
101664,note_off,,,,,0,0,8,,,,,7,,,67,0
101664,note_off,,,,,0,0,8,,,,,7,,,70,0
101664,note_off,,,,,672,0,2,,,,,1,,,61,0
101664,note_off,,,,,672,0,8,,,,,7,,,61,0
101664,note_off,,,,,672,0,3,,,,,2,,,61,0
101664,note_off,,,,,672,0,9,,,,,8,,,52,0
101664,note_off,,,,,672,0,1,,,,,0,,,61,0
101664,note_off,,,,,672,0,6,,,,,5,,,52,0
101756,note_off,,,,,188,0,5,,,,,4,,,70,0
101756,note_off,,,,,188,0,4,,,,,3,,,70,0
101760,note_on,,,,,4,0,4,,,,,3,,,73,75
101760,note_on,,,,,4,0,5,,,,,4,,,73,60
101952,note_on,,,,,0,0,5,,,,,4,,,70,60
101952,note_on,,,,,0,0,4,,,,,3,,,70,75
101952,note_off,,,,,192,0,5,,,,,4,,,73,0
101952,note_off,,,,,192,0,4,,,,,3,,,73,0
102140,note_off,,,,,188,0,5,,,,,4,,,70,0
102140,note_off,,,,,188,0,4,,,,,3,,,70,0
102144,note_on,,,,,4,0,5,,,,,4,,,67,60
102144,note_on,,,,,4,0,4,,,,,3,,,67,75
102332,note_off,,,,,188,0,4,,,,,3,,,67,0
102332,note_off,,,,,188,0,5,,,,,4,,,67,0
102336,note_on,,,,,4,0,4,,,,,3,,,65,75
102336,note_on,,,,,4,0,5,,,,,4,,,65,60
102432,note_on,,,,,0,0,4,,,,,3,,,67,75
102432,note_off,,,,,96,0,5,,,,,4,,,65,0
102432,note_on,,,,,0,0,5,,,,,4,,,67,60
102432,note_off,,,,,96,0,4,,,,,3,,,65,0
102524,note_off,,,,,92,0,4,,,,,3,,,67,0
102524,note_off,,,,,92,0,5,,,,,4,,,67,0
102528,note_on,,,,,4,0,4,,,,,3,,,64,75
102528,note_on,,,,,4,0,5,,,,,4,,,64,60
102848,note_off,,,,,320,0,4,,,,,3,,,64,0
102848,note_off,,,,,320,0,5,,,,,4,,,64,0
103104,note_on,,,,,256,0,4,,,,,3,,,70,127
103104,note_on,,,,,0,0,8,,,,,7,,,70,50
103104,note_on,,,,,1440,0,9,,,,,8,,,52,50
103104,note_on,,,,,1440,0,1,,,,,0,,,73,63
103104,note_on,,,,,1440,0,2,,,,,1,,,73,63
103104,note_on,,,,,1440,0,6,,,,,5,,,52,92
103104,note_on,,,,,1440,0,8,,,,,7,,,61,50
103104,note_on,,,,,0,0,8,,,,,7,,,67,50
103104,note_on,,,,,256,0,5,,,,,4,,,67,92
103104,note_on,,,,,1440,0,7,,,,,6,,,40,75
103104,note_on,,,,,1440,0,3,,,,,2,,,73,92
103292,note_off,,,,,188,0,5,,,,,4,,,67,0
103292,note_off,,,,,188,0,3,,,,,2,,,73,0
103292,note_off,,,,,188,0,7,,,,,6,,,40,0
103292,note_off,,,,,188,0,2,,,,,1,,,73,0
103292,note_off,,,,,0,0,8,,,,,7,,,70,0
103292,note_off,,,,,188,0,4,,,,,3,,,70,0
103292,note_off,,,,,0,0,8,,,,,7,,,67,0
103292,note_off,,,,,188,0,8,,,,,7,,,61,0
103292,note_off,,,,,188,0,6,,,,,5,,,52,0
103292,note_off,,,,,188,0,1,,,,,0,,,73,0
103292,note_off,,,,,188,0,9,,,,,8,,,52,0
103296,note_on,,,,,4,0,4,,,,,3,,,70,127
103296,note_on,,,,,4,0,1,,,,,0,,,73,63
103296,note_on,,,,,4,0,2,,,,,1,,,73,63
103296,note_on,,,,,4,0,7,,,,,6,,,41,75
103296,note_on,,,,,4,0,9,,,,,8,,,53,50
103296,note_on,,,,,0,0,8,,,,,7,,,70,50
103296,note_on,,,,,4,0,8,,,,,7,,,61,50
103296,note_on,,,,,4,0,6,,,,,5,,,53,92
103296,note_on,,,,,4,0,5,,,,,4,,,65,92
103296,note_on,,,,,4,0,3,,,,,2,,,73,92
103296,note_on,,,,,0,0,8,,,,,7,,,65,50
103484,note_off,,,,,188,0,7,,,,,6,,,41,0
103484,note_off,,,,,188,0,2,,,,,1,,,73,0
103484,note_off,,,,,188,0,9,,,,,8,,,53,0
103484,note_off,,,,,188,0,6,,,,,5,,,53,0
103484,note_off,,,,,188,0,1,,,,,0,,,73,0
103484,note_off,,,,,188,0,3,,,,,2,,,73,0
103484,note_off,,,,,188,0,4,,,,,3,,,70,0
103484,note_off,,,,,188,0,8,,,,,7,,,61,0
103484,note_off,,,,,0,0,8,,,,,7,,,70,0
103488,note_on,,,,,4,0,7,,,,,6,,,29,75
103488,note_on,,,,,4,0,4,,,,,3,,,68,127
103488,note_on,,,,,4,0,2,,,,,1,,,72,63
103488,note_on,,,,,4,0,1,,,,,0,,,72,63
103488,note_on,,,,,4,0,3,,,,,2,,,72,92
103488,note_on,,,,,4,0,9,,,,,8,,,41,50
103488,note_on,,,,,4,0,6,,,,,5,,,41,92
103488,note_on,,,,,4,0,8,,,,,7,,,60,50
103488,note_on,,,,,0,0,8,,,,,7,,,68,50
103616,note_off,,,,,320,0,5,,,,,4,,,65,0
103676,note_off,,,,,188,0,4,,,,,3,,,68,0
103676,note_off,,,,,188,0,1,,,,,0,,,72,0
103676,note_off,,,,,188,0,7,,,,,6,,,29,0
103676,note_off,,,,,188,0,9,,,,,8,,,41,0
103676,note_off,,,,,0,0,8,,,,,7,,,60,0
103676,note_off,,,,,188,0,3,,,,,2,,,72,0
103676,note_off,,,,,188,0,8,,,,,7,,,65,0
103676,note_off,,,,,188,0,2,,,,,1,,,72,0
103676,note_off,,,,,188,0,6,,,,,5,,,41,0
103676,note_off,,,,,0,0,8,,,,,7,,,68,0
103680,note_on,,,,,4,0,2,,,,,1,,,77,63
103680,note_on,,,,,4,0,1,,,,,0,,,77,63
103680,note_on,,,,,4,0,3,,,,,2,,,77,92
103868,note_off,,,,,188,0,2,,,,,1,,,77,0
103868,note_off,,,,,188,0,1,,,,,0,,,77,0
103868,note_off,,,,,188,0,3,,,,,2,,,77,0
103872,note_on,,,,,256,0,5,,,,,4,,,68,92
103872,note_on,,,,,196,0,8,,,,,7,,,65,50
103872,note_on,,,,,4,0,1,,,,,0,,,68,63
103872,note_on,,,,,4,0,2,,,,,1,,,68,63
103872,note_on,,,,,196,0,4,,,,,3,,,65,127
103872,note_on,,,,,0,0,8,,,,,7,,,68,50
103872,note_on,,,,,4,0,3,,,,,2,,,68,92
103872,note_on,,,,,196,0,7,,,,,6,,,38,75
103872,note_on,,,,,196,0,9,,,,,8,,,50,50
103872,note_on,,,,,196,0,6,,,,,5,,,50,92
104060,note_off,,,,,188,0,6,,,,,5,,,50,0
104060,note_off,,,,,188,0,2,,,,,1,,,68,0
104060,note_off,,,,,188,0,9,,,,,8,,,50,0
104060,note_off,,,,,188,0,7,,,,,6,,,38,0
104060,note_off,,,,,188,0,5,,,,,4,,,68,0
104060,note_off,,,,,188,0,3,,,,,2,,,68,0
104060,note_off,,,,,0,0,8,,,,,7,,,68,0
104060,note_off,,,,,188,0,4,,,,,3,,,65,0
104060,note_off,,,,,188,0,8,,,,,7,,,65,0
104060,note_off,,,,,188,0,1,,,,,0,,,68,0
104064,note_on,,,,,4,0,5,,,,,4,,,59,92
104064,note_on,,,,,4,0,9,,,,,8,,,47,50
104064,note_on,,,,,4,0,8,,,,,7,,,62,50
104064,note_on,,,,,0,0,8,,,,,7,,,65,50
104064,note_on,,,,,4,0,7,,,,,6,,,35,75
104064,note_on,,,,,4,0,1,,,,,0,,,68,63
104064,note_on,,,,,4,0,2,,,,,1,,,68,63
104064,note_on,,,,,4,0,3,,,,,2,,,68,92
104064,note_on,,,,,4,0,6,,,,,5,,,47,92
104064,note_on,,,,,4,0,4,,,,,3,,,62,127
104064,note_on,,,,,0,0,8,,,,,7,,,68,50
104252,note_off,,,,,188,0,1,,,,,0,,,68,0
104252,note_off,,,,,188,0,2,,,,,1,,,68,0
104252,note_off,,,,,188,0,3,,,,,2,,,68,0
104252,note_off,,,,,188,0,8,,,,,7,,,68,0
104256,note_on,,,,,4,0,1,,,,,0,,,67,63
104256,note_on,,,,,4,0,3,,,,,2,,,67,92
104256,note_on,,,,,4,0,2,,,,,1,,,67,63
104256,note_on,,,,,4,0,8,,,,,7,,,67,50
104384,note_off,,,,,320,0,7,,,,,6,,,35,0
104384,note_off,,,,,320,0,9,,,,,8,,,47,0
104384,note_off,,,,,320,0,5,,,,,4,,,59,0
104384,note_off,,,,,0,0,8,,,,,7,,,65,0
104384,note_off,,,,,320,0,4,,,,,3,,,62,0
104384,note_off,,,,,320,0,6,,,,,5,,,47,0
104384,note_off,,,,,128,0,8,,,,,7,,,62,0
104444,note_off,,,,,60,0,8,,,,,7,,,67,0
104444,note_off,,,,,188,0,2,,,,,1,,,67,0
104444,note_off,,,,,188,0,3,,,,,2,,,67,0
104444,note_off,,,,,188,0,1,,,,,0,,,67,0
104448,note_on,,,,,4,0,2,,,,,1,,,73,63
104448,note_on,,,,,4,0,1,,,,,0,,,73,63
104448,note_on,,,,,4,0,3,,,,,2,,,73,92
104636,note_off,,,,,188,0,2,,,,,1,,,73,0
104636,note_off,,,,,188,0,1,,,,,0,,,73,0
104636,note_off,,,,,188,0,3,,,,,2,,,73,0
104640,note_on,,,,,4,0,3,,,,,2,,,65,92
104640,note_on,,,,,0,0,8,,,,,7,,,65,50
104640,note_on,,,,,0,0,8,,,,,7,,,67,50
104640,note_on,,,,,256,0,9,,,,,8,,,47,50
104640,note_on,,,,,196,0,8,,,,,7,,,62,50
104640,note_on,,,,,4,0,2,,,,,1,,,65,63
104640,note_on,,,,,256,0,4,,,,,3,,,62,127
104640,note_on,,,,,256,0,7,,,,,6,,,35,75
104640,note_on,,,,,256,0,5,,,,,4,,,55,92
104640,note_on,,,,,4,0,1,,,,,0,,,65,63
104640,note_on,,,,,256,0,6,,,,,5,,,47,92
104828,note_off,,,,,188,0,3,,,,,2,,,65,0
104828,note_off,,,,,188,0,2,,,,,1,,,65,0
104828,note_off,,,,,188,0,9,,,,,8,,,47,0
104828,note_off,,,,,188,0,7,,,,,6,,,35,0
104828,note_off,,,,,188,0,5,,,,,4,,,55,0
104828,note_off,,,,,0,0,8,,,,,7,,,67,0
104828,note_off,,,,,0,0,8,,,,,7,,,65,0
104828,note_off,,,,,188,0,4,,,,,3,,,62,0
104828,note_off,,,,,188,0,8,,,,,7,,,62,0
104828,note_off,,,,,188,0,1,,,,,0,,,65,0
104828,note_off,,,,,188,0,6,,,,,5,,,47,0
104832,note_on,,,,,4,0,8,,,,,7,,,60,50
104832,note_on,,,,,0,0,8,,,,,7,,,63,50
104832,note_on,,,,,0,0,8,,,,,7,,,67,50
104832,note_on,,,,,4,0,3,,,,,2,,,63,92
104832,note_on,,,,,4,0,1,,,,,0,,,63,63
104832,note_on,,,,,4,0,6,,,,,5,,,48,92
104832,note_on,,,,,4,0,5,,,,,4,,,55,92
104832,note_on,,,,,4,0,2,,,,,1,,,63,63
104832,note_on,,,,,4,0,7,,,,,6,,,36,75
104832,note_on,,,,,4,0,9,,,,,8,,,48,50
104832,note_on,,,,,4,0,4,,,,,3,,,60,127
105020,note_off,,,,,188,0,2,,,,,1,,,63,0
105020,note_off,,,,,188,0,6,,,,,5,,,48,0
105020,note_off,,,,,188,0,3,,,,,2,,,63,0
105020,note_off,,,,,188,0,7,,,,,6,,,36,0
105020,note_off,,,,,188,0,1,,,,,0,,,63,0
105020,note_off,,,,,188,0,9,,,,,8,,,48,0
105024,note_on,,,,,4,0,3,,,,,2,,,72,92
105024,note_on,,,,,4,0,1,,,,,0,,,72,63
105024,note_on,,,,,4,0,7,,,,,6,,,39,75
105024,note_on,,,,,4,0,2,,,,,1,,,72,63
105024,note_on,,,,,4,0,9,,,,,8,,,51,50
105024,note_on,,,,,4,0,6,,,,,5,,,51,92
105152,note_off,,,,,320,0,4,,,,,3,,,60,0
105152,note_off,,,,,320,0,8,,,,,7,,,60,0
105152,note_off,,,,,320,0,5,,,,,4,,,55,0
105152,note_off,,,,,0,0,8,,,,,7,,,67,0
105152,note_off,,,,,0,0,8,,,,,7,,,63,0
105212,note_off,,,,,188,0,3,,,,,2,,,72,0
105212,note_off,,,,,188,0,1,,,,,0,,,72,0
105212,note_off,,,,,188,0,7,,,,,6,,,39,0
105212,note_off,,,,,188,0,2,,,,,1,,,72,0
105212,note_off,,,,,188,0,9,,,,,8,,,51,0
105212,note_off,,,,,188,0,6,,,,,5,,,51,0
105216,note_on,,,,,4,0,6,,,,,5,,,55,92
105216,note_on,,,,,4,0,3,,,,,2,,,63,92
105216,note_on,,,,,0,0,8,,,,,7,,,67,50
105216,note_on,,,,,64,0,8,,,,,7,,,60,50
105216,note_on,,,,,0,0,8,,,,,7,,,63,50
105216,note_on,,,,,4,0,2,,,,,1,,,63,63
105216,note_on,,,,,4,0,1,,,,,0,,,63,63
105216,note_on,,,,,4,0,7,,,,,6,,,43,75
105216,note_on,,,,,4,0,9,,,,,8,,,55,50
105404,note_off,,,,,188,0,2,,,,,1,,,63,0
105404,note_off,,,,,188,0,3,,,,,2,,,63,0
105404,note_off,,,,,188,0,7,,,,,6,,,43,0
105404,note_off,,,,,188,0,6,,,,,5,,,55,0
105404,note_off,,,,,188,0,9,,,,,8,,,55,0
105404,note_off,,,,,0,0,8,,,,,7,,,63,0
105404,note_off,,,,,188,0,8,,,,,7,,,60,0
105404,note_off,,,,,188,0,1,,,,,0,,,63,0
105408,note_on,,,,,4,0,1,,,,,0,,,62,63
105408,note_on,,,,,0,0,8,,,,,7,,,62,50
105408,note_on,,,,,4,0,9,,,,,8,,,43,50
105408,note_on,,,,,4,0,2,,,,,1,,,62,63
105408,note_on,,,,,4,0,7,,,,,6,,,31,75
105408,note_on,,,,,4,0,8,,,,,7,,,59,50
105408,note_on,,,,,4,0,6,,,,,5,,,43,92
105408,note_on,,,,,4,0,3,,,,,2,,,62,92
105500,note_off,,,,,92,0,3,,,,,2,,,62,0
105500,note_off,,,,,92,0,1,,,,,0,,,62,0
105500,note_off,,,,,92,0,2,,,,,1,,,62,0
105504,note_on,,,,,4,0,3,,,,,2,,,60,92
105504,note_on,,,,,4,0,1,,,,,0,,,60,63
105504,note_on,,,,,4,0,2,,,,,1,,,60,63
105536,note_off,,,,,128,0,8,,,,,7,,,67,0
105596,note_off,,,,,188,0,7,,,,,6,,,31,0
105596,note_off,,,,,92,0,1,,,,,0,,,60,0
105596,note_off,,,,,92,0,2,,,,,1,,,60,0
105596,note_off,,,,,0,0,8,,,,,7,,,62,0
105596,note_off,,,,,60,0,8,,,,,7,,,59,0
105596,note_off,,,,,188,0,9,,,,,8,,,43,0
105596,note_off,,,,,188,0,6,,,,,5,,,43,0
105596,note_off,,,,,92,0,3,,,,,2,,,60,0
105600,note_on,,,,,448,0,4,,,,,3,,,57,127
105600,note_on,,,,,4,0,3,,,,,2,,,60,92
105600,note_on,,,,,4,0,7,,,,,6,,,42,75
105600,note_on,,,,,4,0,1,,,,,0,,,60,63
105600,note_on,,,,,4,0,8,,,,,7,,,60,50
105600,note_on,,,,,0,0,8,,,,,7,,,63,50
105600,note_on,,,,,0,0,8,,,,,7,,,69,50
105600,note_on,,,,,448,0,5,,,,,4,,,63,92
105600,note_on,,,,,4,0,9,,,,,8,,,54,50
105600,note_on,,,,,4,0,2,,,,,1,,,60,63
105600,note_on,,,,,4,0,6,,,,,5,,,54,92
105920,note_off,,,,,320,0,2,,,,,1,,,60,0
105920,note_off,,,,,320,0,9,,,,,8,,,54,0
105920,note_off,,,,,0,0,8,,,,,7,,,69,0
105920,note_off,,,,,320,0,3,,,,,2,,,60,0
105920,note_off,,,,,320,0,7,,,,,6,,,42,0
105920,note_off,,,,,320,0,1,,,,,0,,,60,0
105920,note_off,,,,,320,0,5,,,,,4,,,63,0
105920,note_off,,,,,0,0,8,,,,,7,,,63,0
105920,note_off,,,,,320,0,8,,,,,7,,,60,0
105920,note_off,,,,,320,0,6,,,,,5,,,54,0
105920,note_off,,,,,320,0,4,,,,,3,,,57,0
106176,note_on,,,,,256,0,5,,,,,4,,,72,60
106176,note_on,,,,,256,0,4,,,,,3,,,72,75
106364,note_off,,,,,188,0,4,,,,,3,,,72,0
106364,note_off,,,,,188,0,5,,,,,4,,,72,0
106368,note_on,,,,,4,0,4,,,,,3,,,75,75
106368,note_on,,,,,4,0,5,,,,,4,,,75,60
106556,note_off,,,,,188,0,5,,,,,4,,,75,0
106556,note_off,,,,,188,0,4,,,,,3,,,75,0
106560,note_on,,,,,4,0,5,,,,,4,,,72,60
106560,note_on,,,,,4,0,4,,,,,3,,,72,75
106748,note_off,,,,,188,0,4,,,,,3,,,72,0
106748,note_off,,,,,188,0,5,,,,,4,,,72,0
106752,note_on,,,,,4,0,4,,,,,3,,,69,75
106752,note_on,,,,,4,0,5,,,,,4,,,69,60
106940,note_off,,,,,188,0,5,,,,,4,,,69,0
106940,note_off,,,,,188,0,4,,,,,3,,,69,0
106944,note_on,,,,,4,0,5,,,,,4,,,67,60
106944,note_on,,,,,4,0,4,,,,,3,,,67,75
107036,note_off,,,,,92,0,4,,,,,3,,,67,0
107036,note_off,,,,,92,0,5,,,,,4,,,67,0
107040,note_on,,,,,4,0,4,,,,,3,,,69,75
107040,note_on,,,,,4,0,5,,,,,4,,,69,60
107132,note_off,,,,,92,0,4,,,,,3,,,69,0
107132,note_off,,,,,92,0,5,,,,,4,,,69,0
107136,note_on,,,,,4,0,5,,,,,4,,,66,60
107136,note_on,,,,,4,0,4,,,,,3,,,66,75
107456,note_off,,,,,320,0,4,,,,,3,,,66,0
107456,note_off,,,,,320,0,5,,,,,4,,,66,0
107712,note_on,,,,,256,0,5,,,,,4,,,66,92
107712,note_on,,,,,0,0,8,,,,,7,,,63,50
107712,note_on,,,,,1792,0,7,,,,,6,,,42,75
107712,note_on,,,,,1792,0,9,,,,,8,,,54,50
107712,note_on,,,,,256,0,4,,,,,3,,,72,127
107712,note_on,,,,,1792,0,6,,,,,5,,,54,92
107712,note_on,,,,,1792,0,1,,,,,0,,,75,63
107712,note_on,,,,,1792,0,2,,,,,1,,,75,63
107712,note_on,,,,,1792,0,8,,,,,7,,,60,50
107712,note_on,,,,,0,0,8,,,,,7,,,69,50
107712,note_on,,,,,1792,0,3,,,,,2,,,75,108
107900,note_off,,,,,0,0,8,,,,,7,,,69,0
107900,note_off,,,,,188,0,4,,,,,3,,,72,0
107900,note_off,,,,,188,0,6,,,,,5,,,54,0
107900,note_off,,,,,188,0,8,,,,,7,,,60,0
107900,note_off,,,,,0,0,8,,,,,7,,,63,0
107900,note_off,,,,,188,0,1,,,,,0,,,75,0
107900,note_off,,,,,188,0,9,,,,,8,,,54,0
107900,note_off,,,,,188,0,2,,,,,1,,,75,0
107900,note_off,,,,,188,0,7,,,,,6,,,42,0
107900,note_off,,,,,188,0,5,,,,,4,,,66,0
107900,note_off,,,,,188,0,3,,,,,2,,,75,0
107904,note_on,,,,,4,0,3,,,,,2,,,75,108
107904,note_on,,,,,4,0,9,,,,,8,,,54,50
107904,note_on,,,,,4,0,6,,,,,5,,,54,92
107904,note_on,,,,,4,0,7,,,,,6,,,42,75
107904,note_on,,,,,4,0,4,,,,,3,,,69,127
107904,note_on,,,,,4,0,5,,,,,4,,,66,92
107904,note_on,,,,,4,0,2,,,,,1,,,75,63
107904,note_on,,,,,0,0,8,,,,,7,,,63,50
107904,note_on,,,,,4,0,8,,,,,7,,,60,50
107904,note_on,,,,,4,0,1,,,,,0,,,75,63
107904,note_on,,,,,0,0,8,,,,,7,,,69,50
108092,note_off,,,,,188,0,3,,,,,2,,,75,0
108092,note_off,,,,,188,0,2,,,,,1,,,75,0
108092,note_off,,,,,188,0,1,,,,,0,,,75,0
108096,note_on,,,,,4,0,3,,,,,2,,,74,108
108096,note_on,,,,,4,0,2,,,,,1,,,74,63
108096,note_on,,,,,4,0,1,,,,,0,,,74,63
108224,note_off,,,,,320,0,4,,,,,3,,,69,0
108224,note_off,,,,,320,0,7,,,,,6,,,42,0
108224,note_off,,,,,320,0,9,,,,,8,,,54,0
108224,note_off,,,,,0,0,8,,,,,7,,,69,0
108224,note_off,,,,,320,0,8,,,,,7,,,60,0
108224,note_off,,,,,320,0,6,,,,,5,,,54,0
108224,note_off,,,,,0,0,8,,,,,7,,,63,0
108224,note_off,,,,,320,0,5,,,,,4,,,66,0
108284,note_off,,,,,188,0,3,,,,,2,,,74,0
108284,note_off,,,,,188,0,1,,,,,0,,,74,0
108284,note_off,,,,,188,0,2,,,,,1,,,74,0
108288,note_on,,,,,4,0,3,,,,,2,,,74,108
108288,note_on,,,,,4,0,1,,,,,0,,,74,63
108288,note_on,,,,,4,0,2,,,,,1,,,74,63
108476,note_off,,,,,188,0,1,,,,,0,,,74,0
108476,note_off,,,,,188,0,3,,,,,2,,,74,0
108476,note_off,,,,,188,0,2,,,,,1,,,74,0
108480,note_on,,,,,0,0,8,,,,,7,,,65,50
108480,note_on,,,,,0,0,8,,,,,7,,,62,50
108480,note_on,,,,,256,0,8,,,,,7,,,57,50
108480,note_on,,,,,256,0,5,,,,,4,,,66,92
108480,note_on,,,,,256,0,7,,,,,6,,,38,75
108480,note_on,,,,,4,0,1,,,,,0,,,72,63
108480,note_on,,,,,4,0,3,,,,,2,,,72,108
108480,note_on,,,,,256,0,4,,,,,3,,,69,127
108480,note_on,,,,,256,0,6,,,,,5,,,50,92
108480,note_on,,,,,256,0,9,,,,,8,,,50,50
108480,note_on,,,,,4,0,2,,,,,1,,,72,63
108668,note_off,,,,,188,0,4,,,,,3,,,69,0
108668,note_off,,,,,188,0,7,,,,,6,,,38,0
108668,note_off,,,,,188,0,8,,,,,7,,,57,0
108668,note_off,,,,,188,0,5,,,,,4,,,66,0
108668,note_off,,,,,188,0,6,,,,,5,,,50,0
108668,note_off,,,,,188,0,9,,,,,8,,,50,0
108668,note_off,,,,,188,0,2,,,,,1,,,72,0
108668,note_off,,,,,0,0,8,,,,,7,,,65,0
108668,note_off,,,,,188,0,1,,,,,0,,,72,0
108668,note_off,,,,,188,0,3,,,,,2,,,72,0
108668,note_off,,,,,0,0,8,,,,,7,,,62,0
108672,note_on,,,,,4,0,6,,,,,5,,,55,92
108672,note_on,,,,,4,0,8,,,,,7,,,59,50
108672,note_on,,,,,0,0,8,,,,,7,,,62,50
108672,note_on,,,,,0,0,8,,,,,7,,,67,50
108672,note_on,,,,,4,0,1,,,,,0,,,71,63
108672,note_on,,,,,4,0,3,,,,,2,,,71,108
108672,note_on,,,,,4,0,7,,,,,6,,,43,75
108672,note_on,,,,,4,0,5,,,,,4,,,62,92
108672,note_on,,,,,4,0,2,,,,,1,,,71,63
108672,note_on,,,,,4,0,4,,,,,3,,,67,127
108672,note_on,,,,,4,0,9,,,,,8,,,55,50
108860,note_off,,,,,188,0,6,,,,,5,,,55,0
108860,note_off,,,,,188,0,9,,,,,8,,,55,0
108860,note_off,,,,,188,0,7,,,,,6,,,43,0
108864,note_on,,,,,4,0,9,,,,,8,,,43,50
108864,note_on,,,,,4,0,7,,,,,6,,,31,75
108864,note_on,,,,,4,0,6,,,,,5,,,43,92
108956,note_off,,,,,284,0,3,,,,,2,,,71,0
108956,note_off,,,,,284,0,1,,,,,0,,,71,0
108956,note_off,,,,,284,0,2,,,,,1,,,71,0
108960,note_on,,,,,4,0,1,,,,,0,,,69,63
108960,note_on,,,,,4,0,2,,,,,1,,,69,63
108960,note_on,,,,,4,0,3,,,,,2,,,69,108
108992,note_off,,,,,320,0,8,,,,,7,,,59,0
108992,note_off,,,,,0,0,8,,,,,7,,,62,0
108992,note_off,,,,,0,0,8,,,,,7,,,67,0
108992,note_off,,,,,320,0,4,,,,,3,,,67,0
108992,note_off,,,,,320,0,5,,,,,4,,,62,0
109004,note_off,,,,,44,0,1,,,,,0,,,69,0
109004,note_off,,,,,44,0,3,,,,,2,,,69,0
109004,note_off,,,,,44,0,2,,,,,1,,,69,0
109008,note_on,,,,,4,0,1,,,,,0,,,67,63
109008,note_on,,,,,4,0,2,,,,,1,,,67,63
109008,note_on,,,,,4,0,3,,,,,2,,,67,108
109052,note_off,,,,,44,0,2,,,,,1,,,67,0
109052,note_off,,,,,44,0,3,,,,,2,,,67,0
109052,note_off,,,,,188,0,6,,,,,5,,,43,0
109052,note_off,,,,,188,0,7,,,,,6,,,31,0
109052,note_off,,,,,188,0,9,,,,,8,,,43,0
109052,note_off,,,,,44,0,1,,,,,0,,,67,0
109056,note_on,,,,,64,0,4,,,,,3,,,65,127
109056,note_on,,,,,4,0,6,,,,,5,,,44,92
109056,note_on,,,,,64,0,5,,,,,4,,,60,92
109056,note_on,,,,,64,0,8,,,,,7,,,60,50
109056,note_on,,,,,4,0,9,,,,,8,,,44,50
109056,note_on,,,,,4,0,1,,,,,0,,,72,63
109056,note_on,,,,,4,0,2,,,,,1,,,72,63
109056,note_on,,,,,0,0,8,,,,,7,,,65,50
109056,note_on,,,,,4,0,3,,,,,2,,,72,108
109056,note_on,,,,,4,0,7,,,,,6,,,32,75
109244,note_off,,,,,188,0,6,,,,,5,,,44,0
109244,note_off,,,,,188,0,9,,,,,8,,,44,0
109244,note_off,,,,,188,0,7,,,,,6,,,32,0
109244,note_off,,,,,188,0,8,,,,,7,,,60,0
109244,note_off,,,,,188,0,3,,,,,2,,,72,0
109244,note_off,,,,,188,0,2,,,,,1,,,72,0
109244,note_off,,,,,188,0,4,,,,,3,,,65,0
109244,note_off,,,,,188,0,1,,,,,0,,,72,0
109244,note_off,,,,,188,0,5,,,,,4,,,60,0
109248,note_on,,,,,4,0,1,,,,,0,,,65,63
109248,note_on,,,,,4,0,3,,,,,2,,,65,108
109248,note_on,,,,,4,0,9,,,,,8,,,41,50
109248,note_on,,,,,4,0,2,,,,,1,,,65,63
109248,note_on,,,,,4,0,8,,,,,7,,,58,50
109248,note_on,,,,,4,0,6,,,,,5,,,41,92
109248,note_on,,,,,4,0,4,,,,,3,,,60,127
109248,note_on,,,,,4,0,5,,,,,4,,,56,92
109248,note_on,,,,,4,0,7,,,,,6,,,29,75
109376,note_off,,,,,128,0,8,,,,,7,,,65,0
109436,note_off,,,,,188,0,4,,,,,3,,,60,0
109436,note_off,,,,,188,0,2,,,,,1,,,65,0
109436,note_off,,,,,188,0,9,,,,,8,,,41,0
109436,note_off,,,,,188,0,6,,,,,5,,,41,0
109436,note_off,,,,,188,0,3,,,,,2,,,65,0
109436,note_off,,,,,188,0,1,,,,,0,,,65,0
109436,note_off,,,,,60,0,8,,,,,7,,,58,0
109436,note_off,,,,,188,0,7,,,,,6,,,29,0
109436,note_off,,,,,188,0,5,,,,,4,,,56,0
109440,note_on,,,,,4,0,3,,,,,2,,,63,108
109440,note_on,,,,,4,0,1,,,,,0,,,63,63
109440,note_on,,,,,4,0,7,,,,,6,,,31,75
109440,note_on,,,,,4,0,8,,,,,7,,,55,50
109440,note_on,,,,,4,0,6,,,,,5,,,43,92
109440,note_on,,,,,4,0,9,,,,,8,,,43,50
109440,note_on,,,,,4,0,5,,,,,4,,,55,92
109440,note_on,,,,,4,0,4,,,,,3,,,60,127
109440,note_on,,,,,4,0,2,,,,,1,,,63,63
109440,note_on,,,,,0,0,8,,,,,7,,,63,50
109440,note_on,,,,,0,0,8,,,,,7,,,60,50
109760,note_off,,,,,320,0,3,,,,,2,,,63,0
109760,note_off,,,,,0,0,8,,,,,7,,,60,0
109760,note_off,,,,,0,0,8,,,,,7,,,63,0
109760,note_off,,,,,320,0,8,,,,,7,,,55,0
109760,note_off,,,,,320,0,6,,,,,5,,,43,0
109760,note_off,,,,,320,0,5,,,,,4,,,55,0
109760,note_off,,,,,320,0,7,,,,,6,,,31,0
109760,note_off,,,,,320,0,9,,,,,8,,,43,0
109760,note_off,,,,,320,0,1,,,,,0,,,63,0
109760,note_off,,,,,320,0,4,,,,,3,,,60,0
109760,note_off,,,,,320,0,2,,,,,1,,,63,0
109824,note_on,,,,,0,0,8,,,,,7,,,59,50
109824,note_on,,,,,0,0,8,,,,,7,,,62,50
109824,note_on,,,,,64,0,9,,,,,8,,,43,50
109824,note_on,,,,,64,0,8,,,,,7,,,55,50
109824,note_on,,,,,64,0,4,,,,,3,,,59,127
109824,note_on,,,,,64,0,5,,,,,4,,,55,92
109824,note_on,,,,,64,0,3,,,,,2,,,62,108
109824,note_on,,,,,64,0,6,,,,,5,,,43,92
109824,note_on,,,,,64,0,1,,,,,0,,,62,63
109824,note_on,,,,,64,0,7,,,,,6,,,31,75
109824,note_on,,,,,64,0,2,,,,,1,,,62,63
110144,note_off,,,,,320,0,5,,,,,4,,,55,0
110144,note_off,,,,,320,0,4,,,,,3,,,59,0
110144,note_off,,,,,320,0,1,,,,,0,,,62,0
110144,note_off,,,,,0,0,8,,,,,7,,,62,0
110144,note_off,,,,,0,0,8,,,,,7,,,59,0
110144,note_off,,,,,320,0,8,,,,,7,,,55,0
110144,note_off,,,,,320,0,7,,,,,6,,,31,0
110144,note_off,,,,,320,0,6,,,,,5,,,43,0
110144,note_off,,,,,320,0,9,,,,,8,,,43,0
110144,note_off,,,,,320,0,2,,,,,1,,,62,0
110144,note_off,,,,,320,0,3,,,,,2,,,62,0
110208,note_on,,,,,64,0,2,,,,,1,,,60,63
110208,note_on,,,,,0,0,8,,,,,7,,,60,50
110208,note_on,,,,,64,0,4,,,,,3,,,60,127
110208,note_on,,,,,0,0,8,,,,,7,,,55,50
110208,note_on,,,,,64,0,1,,,,,0,,,60,63
110208,note_on,,,,,64,0,3,,,,,2,,,60,108
110208,note_on,,,,,64,0,6,,,,,5,,,36,92
110208,note_on,,,,,64,0,9,,,,,8,,,36,50
110208,note_on,,,,,64,0,5,,,,,4,,,55,92
110208,note_on,,,,,64,0,7,,,,,6,,,24,75
110208,note_on,,,,,64,0,8,,,,,7,,,51,50
110528,note_off,,,,,320,0,7,,,,,6,,,24,0
110528,note_off,,,,,320,0,8,,,,,7,,,51,0
110528,note_off,,,,,0,0,8,,,,,7,,,55,0
110528,note_off,,,,,0,0,8,,,,,7,,,60,0
110528,note_off,,,,,320,0,4,,,,,3,,,60,0
110528,note_off,,,,,320,0,6,,,,,5,,,36,0
110528,note_off,,,,,320,0,1,,,,,0,,,60,0
110528,note_off,,,,,320,0,3,,,,,2,,,60,0
110528,note_off,,,,,320,0,5,,,,,4,,,55,0
110528,note_off,,,,,320,0,2,,,,,1,,,60,0
110528,note_off,,,,,320,0,9,,,,,8,,,36,0
110976,note_on,,,,,448,0,1,,,,,0,,,70,63
110976,note_on,,,,,448,0,2,,,,,1,,,70,63
110976,note_on,,,,,448,0,3,,,,,2,,,70,108
111164,note_off,,,,,188,0,1,,,,,0,,,70,0
111164,note_off,,,,,188,0,2,,,,,1,,,70,0
111164,note_off,,,,,188,0,3,,,,,2,,,70,0
111168,note_on,,,,,4,0,2,,,,,1,,,75,63
111168,note_on,,,,,4,0,3,,,,,2,,,75,108
111168,note_on,,,,,4,0,1,,,,,0,,,75,63
111356,note_off,,,,,188,0,3,,,,,2,,,75,0
111356,note_off,,,,,188,0,2,,,,,1,,,75,0
111356,note_off,,,,,188,0,1,,,,,0,,,75,0
111360,note_on,,,,,4,0,3,,,,,2,,,70,108
111360,note_on,,,,,4,0,2,,,,,1,,,70,63
111360,note_on,,,,,4,0,1,,,,,0,,,70,63
111452,note_off,,,,,92,0,3,,,,,2,,,70,0
111452,note_off,,,,,92,0,2,,,,,1,,,70,0
111452,note_off,,,,,92,0,1,,,,,0,,,70,0
111456,note_on,,,,,4,0,3,,,,,2,,,68,108
111456,note_on,,,,,4,0,2,,,,,1,,,68,63
111456,note_on,,,,,4,0,1,,,,,0,,,68,63
111548,note_off,,,,,92,0,1,,,,,0,,,68,0
111548,note_off,,,,,92,0,3,,,,,2,,,68,0
111548,note_off,,,,,92,0,2,,,,,1,,,68,0
111552,note_on,,,,,4,0,2,,,,,1,,,67,63
111552,note_on,,,,,4,0,3,,,,,2,,,67,108
111552,note_on,,,,,4,0,1,,,,,0,,,67,63
111740,note_off,,,,,188,0,2,,,,,1,,,67,0
111740,note_off,,,,,188,0,3,,,,,2,,,67,0
111740,note_off,,,,,188,0,1,,,,,0,,,67,0
111744,note_on,,,,,1216,0,5,,,,,4,,,58,92
111744,note_on,,,,,0,0,8,,,,,7,,,58,50
111744,note_on,,,,,4,0,2,,,,,1,,,65,63
111744,note_on,,,,,4,0,1,,,,,0,,,65,63
111744,note_on,,,,,1216,0,7,,,,,6,,,34,75
111744,note_on,,,,,1216,0,8,,,,,7,,,53,50
111744,note_on,,,,,1216,0,4,,,,,3,,,62,127
111744,note_on,,,,,4,0,3,,,,,2,,,65,108
111744,note_on,,,,,1216,0,9,,,,,8,,,46,50
111744,note_on,,,,,1216,0,6,,,,,5,,,46,92
111744,note_on,,,,,0,0,8,,,,,7,,,62,50
111836,note_off,,,,,92,0,3,,,,,2,,,65,0
111836,note_off,,,,,92,0,2,,,,,1,,,65,0
111836,note_off,,,,,92,0,1,,,,,0,,,65,0
111840,note_on,,,,,4,0,2,,,,,1,,,67,63
111840,note_on,,,,,4,0,3,,,,,2,,,67,108
111840,note_on,,,,,4,0,1,,,,,0,,,67,63
111932,note_off,,,,,92,0,2,,,,,1,,,67,0
111932,note_off,,,,,92,0,1,,,,,0,,,67,0
111932,note_off,,,,,188,0,5,,,,,4,,,58,0
111932,note_off,,,,,188,0,9,,,,,8,,,46,0
111932,note_off,,,,,188,0,4,,,,,3,,,62,0
111932,note_off,,,,,0,0,8,,,,,7,,,58,0
111932,note_off,,,,,0,0,8,,,,,7,,,62,0
111932,note_off,,,,,188,0,8,,,,,7,,,53,0
111932,note_off,,,,,188,0,6,,,,,5,,,46,0
111932,note_off,,,,,92,0,3,,,,,2,,,67,0
111932,note_off,,,,,188,0,7,,,,,6,,,34,0
111936,note_on,,,,,4,0,5,,,,,4,,,55,92
111936,note_on,,,,,4,0,8,,,,,7,,,55,50
111936,note_on,,,,,0,0,8,,,,,7,,,58,50
111936,note_on,,,,,0,0,8,,,,,7,,,63,50
111936,note_on,,,,,4,0,1,,,,,0,,,63,63
111936,note_on,,,,,4,0,4,,,,,3,,,58,127
111936,note_on,,,,,4,0,3,,,,,2,,,63,108
111936,note_on,,,,,4,0,2,,,,,1,,,63,63
111936,note_on,,,,,4,0,9,,,,,8,,,51,50
111936,note_on,,,,,4,0,7,,,,,6,,,39,75
111936,note_on,,,,,4,0,6,,,,,5,,,51,92
112124,note_off,,,,,188,0,6,,,,,5,,,51,0
112124,note_off,,,,,188,0,7,,,,,6,,,39,0
112124,note_off,,,,,188,0,9,,,,,8,,,51,0
112128,note_on,,,,,4,0,6,,,,,5,,,46,92
112128,note_on,,,,,4,0,7,,,,,6,,,34,75
112128,note_on,,,,,4,0,9,,,,,8,,,46,50
112220,note_off,,,,,92,0,9,,,,,8,,,46,0
112220,note_off,,,,,92,0,7,,,,,6,,,34,0
112220,note_off,,,,,92,0,6,,,,,5,,,46,0
112224,note_on,,,,,4,0,6,,,,,5,,,44,92
112224,note_on,,,,,4,0,7,,,,,6,,,32,75
112224,note_on,,,,,4,0,9,,,,,8,,,44,50
112256,note_off,,,,,320,0,1,,,,,0,,,63,0
112256,note_off,,,,,320,0,2,,,,,1,,,63,0
112256,note_off,,,,,320,0,3,,,,,2,,,63,0
112256,note_off,,,,,0,0,8,,,,,7,,,63,0
112256,note_off,,,,,320,0,4,,,,,3,,,58,0
112256,note_off,,,,,0,0,8,,,,,7,,,58,0
112256,note_off,,,,,320,0,5,,,,,4,,,55,0
112256,note_off,,,,,320,0,8,,,,,7,,,55,0
112316,note_off,,,,,92,0,9,,,,,8,,,44,0
112316,note_off,,,,,92,0,6,,,,,5,,,44,0
112316,note_off,,,,,92,0,7,,,,,6,,,32,0
112320,note_on,,,,,0,0,8,,,,,7,,,63,50
112320,note_on,,,,,4,0,9,,,,,8,,,43,50
112320,note_on,,,,,4,0,7,,,,,6,,,31,75
112320,note_on,,,,,4,0,6,,,,,5,,,43,92
112320,note_on,,,,,64,0,8,,,,,7,,,58,50
112416,note_on,,,,,160,0,3,,,,,2,,,70,108
112416,note_on,,,,,160,0,2,,,,,1,,,70,63
112416,note_on,,,,,160,0,1,,,,,0,,,70,63
112508,note_off,,,,,92,0,1,,,,,0,,,70,0
112508,note_off,,,,,188,0,8,,,,,7,,,58,0
112508,note_off,,,,,188,0,7,,,,,6,,,31,0
112508,note_off,,,,,188,0,6,,,,,5,,,43,0
112508,note_off,,,,,188,0,9,,,,,8,,,43,0
112508,note_off,,,,,92,0,3,,,,,2,,,70,0
112508,note_off,,,,,92,0,2,,,,,1,,,70,0
112508,note_off,,,,,0,0,8,,,,,7,,,63,0
112512,note_on,,,,,4,0,9,,,,,8,,,41,50
112512,note_on,,,,,256,0,4,,,,,3,,,62,127
112512,note_on,,,,,256,0,5,,,,,4,,,56,92
112512,note_on,,,,,4,0,3,,,,,2,,,68,108
112512,note_on,,,,,4,0,2,,,,,1,,,68,63
112512,note_on,,,,,4,0,7,,,,,6,,,29,75
112512,note_on,,,,,4,0,6,,,,,5,,,41,92
112512,note_on,,,,,4,0,8,,,,,7,,,56,50
112512,note_on,,,,,0,0,8,,,,,7,,,62,50
112512,note_on,,,,,4,0,1,,,,,0,,,68,63
112512,note_on,,,,,0,0,8,,,,,7,,,65,50
112604,note_off,,,,,92,0,6,,,,,5,,,41,0
112604,note_off,,,,,92,0,2,,,,,1,,,68,0
112604,note_off,,,,,92,0,1,,,,,0,,,68,0
112604,note_off,,,,,92,0,3,,,,,2,,,68,0
112604,note_off,,,,,92,0,7,,,,,6,,,29,0
112604,note_off,,,,,92,0,9,,,,,8,,,41,0
112608,note_on,,,,,4,0,9,,,,,8,,,43,50
112608,note_on,,,,,4,0,7,,,,,6,,,31,75
112608,note_on,,,,,4,0,1,,,,,0,,,70,63
112608,note_on,,,,,4,0,6,,,,,5,,,43,92
112608,note_on,,,,,4,0,3,,,,,2,,,70,108
112608,note_on,,,,,4,0,2,,,,,1,,,70,63
112700,note_off,,,,,92,0,2,,,,,1,,,70,0
112700,note_off,,,,,92,0,7,,,,,6,,,31,0
112700,note_off,,,,,188,0,5,,,,,4,,,56,0
112700,note_off,,,,,92,0,3,,,,,2,,,70,0
112700,note_off,,,,,188,0,4,,,,,3,,,62,0
112700,note_off,,,,,92,0,6,,,,,5,,,43,0
112700,note_off,,,,,0,0,8,,,,,7,,,62,0
112700,note_off,,,,,188,0,8,,,,,7,,,56,0
112700,note_off,,,,,92,0,1,,,,,0,,,70,0
112700,note_off,,,,,92,0,9,,,,,8,,,43,0
112700,note_off,,,,,0,0,8,,,,,7,,,65,0
112704,note_on,,,,,4,0,7,,,,,6,,,27,75
112704,note_on,,,,,4,0,1,,,,,0,,,67,63
112704,note_on,,,,,4,0,4,,,,,3,,,63,127
112704,note_on,,,,,4,0,9,,,,,8,,,39,50
112704,note_on,,,,,0,0,8,,,,,7,,,67,50
112704,note_on,,,,,4,0,2,,,,,1,,,67,63
112704,note_on,,,,,4,0,8,,,,,7,,,58,50
112704,note_on,,,,,4,0,3,,,,,2,,,67,108
112704,note_on,,,,,0,0,8,,,,,7,,,63,50
112704,note_on,,,,,4,0,5,,,,,4,,,58,92
112704,note_on,,,,,4,0,6,,,,,5,,,39,92
112796,note_off,,,,,92,0,2,,,,,1,,,67,0
112796,note_off,,,,,92,0,3,,,,,2,,,67,0
112796,note_off,,,,,92,0,1,,,,,0,,,67,0
112800,note_on,,,,,4,0,2,,,,,1,,,68,63
112800,note_on,,,,,4,0,3,,,,,2,,,68,108
112800,note_on,,,,,4,0,1,,,,,0,,,68,63
112892,note_off,,,,,92,0,2,,,,,1,,,68,0
112892,note_off,,,,,92,0,1,,,,,0,,,68,0
112892,note_off,,,,,92,0,3,,,,,2,,,68,0
112896,note_on,,,,,4,0,1,,,,,0,,,70,63
112896,note_on,,,,,4,0,2,,,,,1,,,70,63
112896,note_on,,,,,4,0,3,,,,,2,,,70,108
112988,note_off,,,,,92,0,1,,,,,0,,,70,0
112988,note_off,,,,,92,0,3,,,,,2,,,70,0
112988,note_off,,,,,92,0,2,,,,,1,,,70,0
112992,note_on,,,,,4,0,1,,,,,0,,,72,63
112992,note_on,,,,,4,0,3,,,,,2,,,72,108
112992,note_on,,,,,4,0,2,,,,,1,,,72,63
113024,note_off,,,,,0,0,8,,,,,7,,,67,0
113024,note_off,,,,,320,0,6,,,,,5,,,39,0
113024,note_off,,,,,320,0,8,,,,,7,,,58,0
113024,note_off,,,,,320,0,7,,,,,6,,,27,0
113024,note_off,,,,,320,0,5,,,,,4,,,58,0
113024,note_off,,,,,0,0,8,,,,,7,,,63,0
113024,note_off,,,,,320,0,9,,,,,8,,,39,0
113024,note_off,,,,,320,0,4,,,,,3,,,63,0
113084,note_off,,,,,92,0,2,,,,,1,,,72,0
113084,note_off,,,,,92,0,3,,,,,2,,,72,0
113084,note_off,,,,,92,0,1,,,,,0,,,72,0
113088,note_on,,,,,4,0,3,,,,,2,,,73,108
113088,note_on,,,,,4,0,1,,,,,0,,,73,63
113088,note_on,,,,,4,0,2,,,,,1,,,73,63
113276,note_off,,,,,188,0,3,,,,,2,,,73,0
113276,note_off,,,,,188,0,1,,,,,0,,,73,0
113276,note_off,,,,,188,0,2,,,,,1,,,73,0
113280,note_on,,,,,0,0,8,,,,,7,,,67,50
113280,note_on,,,,,0,0,8,,,,,7,,,63,50
113280,note_on,,,,,256,0,4,,,,,3,,,70,127
113280,note_on,,,,,256,0,9,,,,,8,,,51,50
113280,note_on,,,,,256,0,5,,,,,4,,,67,92
113280,note_on,,,,,256,0,6,,,,,5,,,51,92
113280,note_on,,,,,4,0,2,,,,,1,,,73,63
113280,note_on,,,,,4,0,3,,,,,2,,,73,108
113280,note_on,,,,,256,0,7,,,,,6,,,39,75
113280,note_on,,,,,4,0,1,,,,,0,,,73,63
113280,note_on,,,,,256,0,8,,,,,7,,,58,50
113468,note_off,,,,,188,0,6,,,,,5,,,51,0
113468,note_off,,,,,188,0,9,,,,,8,,,51,0
113468,note_off,,,,,188,0,2,,,,,1,,,73,0
113468,note_off,,,,,0,0,8,,,,,7,,,63,0
113468,note_off,,,,,0,0,8,,,,,7,,,67,0
113468,note_off,,,,,188,0,3,,,,,2,,,73,0
113468,note_off,,,,,188,0,1,,,,,0,,,73,0
113468,note_off,,,,,188,0,8,,,,,7,,,58,0
113468,note_off,,,,,188,0,4,,,,,3,,,70,0
113468,note_off,,,,,188,0,7,,,,,6,,,39,0
113468,note_off,,,,,188,0,5,,,,,4,,,67,0
113472,note_on,,,,,4,0,9,,,,,8,,,56,50
113472,note_on,,,,,4,0,2,,,,,1,,,73,63
113472,note_on,,,,,4,0,1,,,,,0,,,73,63
113472,note_on,,,,,4,0,6,,,,,5,,,56,92
113472,note_on,,,,,4,0,8,,,,,7,,,60,50
113472,note_on,,,,,0,0,8,,,,,7,,,63,50
113472,note_on,,,,,0,0,8,,,,,7,,,68,50
113472,note_on,,,,,4,0,4,,,,,3,,,68,127
113472,note_on,,,,,4,0,3,,,,,2,,,73,108
113472,note_on,,,,,4,0,5,,,,,4,,,63,92
113472,note_on,,,,,4,0,7,,,,,6,,,44,75
113660,note_off,,,,,188,0,3,,,,,2,,,73,0
113660,note_off,,,,,188,0,9,,,,,8,,,56,0
113660,note_off,,,,,188,0,2,,,,,1,,,73,0
113660,note_off,,,,,188,0,1,,,,,0,,,73,0
113660,note_off,,,,,188,0,7,,,,,6,,,44,0
113660,note_off,,,,,188,0,6,,,,,5,,,56,0
113664,note_on,,,,,4,0,1,,,,,0,,,72,63
113664,note_on,,,,,4,0,2,,,,,1,,,72,63
113664,note_on,,,,,4,0,7,,,,,6,,,39,75
113664,note_on,,,,,4,0,3,,,,,2,,,72,108
113664,note_on,,,,,4,0,6,,,,,5,,,51,92
113664,note_on,,,,,4,0,9,,,,,8,,,51,50
113756,note_off,,,,,92,0,9,,,,,8,,,51,0
113756,note_off,,,,,92,0,7,,,,,6,,,39,0
113756,note_off,,,,,92,0,6,,,,,5,,,51,0
113760,note_on,,,,,4,0,9,,,,,8,,,49,50
113760,note_on,,,,,4,0,7,,,,,6,,,37,75
113760,note_on,,,,,4,0,6,,,,,5,,,49,92
113792,note_off,,,,,0,0,8,,,,,7,,,68,0
113792,note_off,,,,,0,0,8,,,,,7,,,63,0
113792,note_off,,,,,320,0,8,,,,,7,,,60,0
113792,note_off,,,,,320,0,4,,,,,3,,,68,0
113792,note_off,,,,,320,0,5,,,,,4,,,63,0
113852,note_off,,,,,188,0,2,,,,,1,,,72,0
113852,note_off,,,,,188,0,1,,,,,0,,,72,0
113852,note_off,,,,,188,0,3,,,,,2,,,72,0
113852,note_off,,,,,92,0,6,,,,,5,,,49,0
113852,note_off,,,,,92,0,7,,,,,6,,,37,0
113852,note_off,,,,,92,0,9,,,,,8,,,49,0
113856,note_on,,,,,4,0,7,,,,,6,,,36,75
113856,note_on,,,,,0,0,8,,,,,7,,,63,50
113856,note_on,,,,,4,0,9,,,,,8,,,48,50
113856,note_on,,,,,4,0,6,,,,,5,,,48,92
113856,note_on,,,,,64,0,8,,,,,7,,,56,50
114044,note_off,,,,,188,0,8,,,,,7,,,56,0
114044,note_off,,,,,0,0,8,,,,,7,,,63,0
114044,note_off,,,,,188,0,9,,,,,8,,,48,0
114044,note_off,,,,,188,0,7,,,,,6,,,36,0
114044,note_off,,,,,188,0,6,,,,,5,,,48,0
114048,note_on,,,,,4,0,7,,,,,6,,,34,75
114048,note_on,,,,,0,0,8,,,,,7,,,68,50
114048,note_on,,,,,0,0,8,,,,,7,,,63,50
114048,note_on,,,,,4,0,8,,,,,7,,,60,50
114048,note_on,,,,,4,0,6,,,,,5,,,46,92
114048,note_on,,,,,256,0,4,,,,,3,,,72,127
114048,note_on,,,,,196,0,3,,,,,2,,,75,108
114048,note_on,,,,,4,0,9,,,,,8,,,46,50
114048,note_on,,,,,196,0,2,,,,,1,,,75,63
114048,note_on,,,,,196,0,1,,,,,0,,,75,63
114048,note_on,,,,,256,0,5,,,,,4,,,68,92
114140,note_off,,,,,92,0,9,,,,,8,,,46,0
114140,note_off,,,,,92,0,7,,,,,6,,,34,0
114140,note_off,,,,,92,0,6,,,,,5,,,46,0
114144,note_on,,,,,4,0,6,,,,,5,,,48,92
114144,note_on,,,,,4,0,9,,,,,8,,,48,50
114144,note_on,,,,,4,0,7,,,,,6,,,36,75
114236,note_off,,,,,188,0,5,,,,,4,,,68,0
114236,note_off,,,,,188,0,4,,,,,3,,,72,0
114236,note_off,,,,,188,0,2,,,,,1,,,75,0
114236,note_off,,,,,92,0,7,,,,,6,,,36,0
114236,note_off,,,,,188,0,1,,,,,0,,,75,0
114236,note_off,,,,,188,0,3,,,,,2,,,75,0
114236,note_off,,,,,92,0,9,,,,,8,,,48,0
114236,note_off,,,,,92,0,6,,,,,5,,,48,0
114236,note_off,,,,,0,0,8,,,,,7,,,68,0
114236,note_off,,,,,0,0,8,,,,,7,,,63,0
114236,note_off,,,,,188,0,8,,,,,7,,,60,0
114240,note_on,,,,,4,0,2,,,,,1,,,80,63
114240,note_on,,,,,4,0,6,,,,,5,,,44,92
114240,note_on,,,,,4,0,8,,,,,7,,,63,50
114240,note_on,,,,,0,0,8,,,,,7,,,68,50
114240,note_on,,,,,0,0,8,,,,,7,,,72,50
114240,note_on,,,,,4,0,7,,,,,6,,,32,75
114240,note_on,,,,,4,0,3,,,,,2,,,80,108
114240,note_on,,,,,4,0,9,,,,,8,,,44,50
114240,note_on,,,,,4,0,4,,,,,3,,,75,127
114240,note_on,,,,,4,0,5,,,,,4,,,72,92
114240,note_on,,,,,4,0,1,,,,,0,,,80,63
114428,note_off,,,,,188,0,3,,,,,2,,,80,0
114428,note_off,,,,,188,0,2,,,,,1,,,80,0
114428,note_off,,,,,188,0,1,,,,,0,,,80,0
114432,note_on,,,,,4,0,2,,,,,1,,,75,63
114432,note_on,,,,,4,0,3,,,,,2,,,75,108
114432,note_on,,,,,4,0,1,,,,,0,,,75,63
114524,note_off,,,,,92,0,3,,,,,2,,,75,0
114524,note_off,,,,,92,0,1,,,,,0,,,75,0
114524,note_off,,,,,92,0,2,,,,,1,,,75,0
114528,note_on,,,,,4,0,2,,,,,1,,,73,63
114528,note_on,,,,,4,0,3,,,,,2,,,73,108
114528,note_on,,,,,4,0,1,,,,,0,,,73,63
114560,note_off,,,,,320,0,8,,,,,7,,,63,0
114560,note_off,,,,,0,0,8,,,,,7,,,68,0
114560,note_off,,,,,0,0,8,,,,,7,,,72,0
114560,note_off,,,,,320,0,9,,,,,8,,,44,0
114560,note_off,,,,,320,0,4,,,,,3,,,75,0
114560,note_off,,,,,320,0,5,,,,,4,,,72,0
114560,note_off,,,,,320,0,7,,,,,6,,,32,0
114560,note_off,,,,,320,0,6,,,,,5,,,44,0
114620,note_off,,,,,92,0,3,,,,,2,,,73,0
114620,note_off,,,,,92,0,2,,,,,1,,,73,0
114620,note_off,,,,,92,0,1,,,,,0,,,73,0
114624,note_on,,,,,4,0,3,,,,,2,,,72,108
114624,note_on,,,,,4,0,2,,,,,1,,,72,63
114624,note_on,,,,,4,0,1,,,,,0,,,72,63
114812,note_off,,,,,188,0,2,,,,,1,,,72,0
114812,note_off,,,,,188,0,1,,,,,0,,,72,0
114812,note_off,,,,,188,0,3,,,,,2,,,72,0
114816,note_on,,,,,256,0,6,,,,,5,,,56,92
114816,note_on,,,,,256,0,4,,,,,3,,,63,127
114816,note_on,,,,,4,0,1,,,,,0,,,70,63
114816,note_on,,,,,256,0,7,,,,,6,,,44,75
114816,note_on,,,,,4,0,3,,,,,2,,,70,108
114816,note_on,,,,,256,0,8,,,,,7,,,60,50
114816,note_on,,,,,0,0,8,,,,,7,,,68,50
114816,note_on,,,,,256,0,9,,,,,8,,,56,50
114816,note_on,,,,,0,0,8,,,,,7,,,63,50
114816,note_on,,,,,4,0,2,,,,,1,,,70,63
114816,note_on,,,,,256,0,5,,,,,4,,,60,92
114908,note_off,,,,,92,0,2,,,,,1,,,70,0
114908,note_off,,,,,92,0,3,,,,,2,,,70,0
114908,note_off,,,,,92,0,1,,,,,0,,,70,0
114912,note_on,,,,,4,0,3,,,,,2,,,72,108
114912,note_on,,,,,4,0,2,,,,,1,,,72,63
114912,note_on,,,,,4,0,1,,,,,0,,,72,63
115004,note_off,,,,,188,0,4,,,,,3,,,63,0
115004,note_off,,,,,188,0,6,,,,,5,,,56,0
115004,note_off,,,,,92,0,1,,,,,0,,,72,0
115004,note_off,,,,,0,0,8,,,,,7,,,63,0
115004,note_off,,,,,188,0,9,,,,,8,,,56,0
115004,note_off,,,,,0,0,8,,,,,7,,,68,0
115004,note_off,,,,,92,0,3,,,,,2,,,72,0
115004,note_off,,,,,188,0,5,,,,,4,,,60,0
115004,note_off,,,,,188,0,8,,,,,7,,,60,0
115004,note_off,,,,,92,0,2,,,,,1,,,72,0
115004,note_off,,,,,188,0,7,,,,,6,,,44,0
115008,note_on,,,,,4,0,9,,,,,8,,,53,50
115008,note_on,,,,,4,0,3,,,,,2,,,68,108
115008,note_on,,,,,4,0,2,,,,,1,,,68,63
115008,note_on,,,,,4,0,4,,,,,3,,,68,127
115008,note_on,,,,,0,0,8,,,,,7,,,68,50
115008,note_on,,,,,0,0,8,,,,,7,,,65,50
115008,note_on,,,,,4,0,7,,,,,6,,,41,75
115008,note_on,,,,,4,0,5,,,,,4,,,60,92
115008,note_on,,,,,4,0,6,,,,,5,,,53,92
115008,note_on,,,,,4,0,8,,,,,7,,,60,50
115008,note_on,,,,,4,0,1,,,,,0,,,68,63
115196,note_off,,,,,188,0,7,,,,,6,,,41,0
115196,note_off,,,,,188,0,9,,,,,8,,,53,0
115196,note_off,,,,,188,0,6,,,,,5,,,53,0
115196,note_off,,,,,188,0,4,,,,,3,,,68,0
115196,note_off,,,,,188,0,8,,,,,7,,,68,0
115200,note_on,,,,,4,0,6,,,,,5,,,55,92
115200,note_on,,,,,4,0,9,,,,,8,,,55,50
115200,note_on,,,,,4,0,4,,,,,3,,,70,127
115200,note_on,,,,,4,0,7,,,,,6,,,43,75
115200,note_on,,,,,4,0,8,,,,,7,,,70,50
115328,note_off,,,,,320,0,5,,,,,4,,,60,0
115328,note_off,,,,,320,0,1,,,,,0,,,68,0
115328,note_off,,,,,320,0,3,,,,,2,,,68,0
115328,note_off,,,,,320,0,2,,,,,1,,,68,0
115388,note_off,,,,,188,0,6,,,,,5,,,55,0
115388,note_off,,,,,188,0,9,,,,,8,,,55,0
115388,note_off,,,,,188,0,8,,,,,7,,,70,0
115388,note_off,,,,,188,0,7,,,,,6,,,43,0
115388,note_off,,,,,188,0,4,,,,,3,,,70,0
115392,note_on,,,,,4,0,4,,,,,3,,,72,127
115392,note_on,,,,,4,0,7,,,,,6,,,44,75
115392,note_on,,,,,4,0,9,,,,,8,,,56,50
115392,note_on,,,,,4,0,6,,,,,5,,,56,92
115392,note_on,,,,,4,0,8,,,,,7,,,72,50
115520,note_off,,,,,0,0,8,,,,,7,,,65,0
115520,note_off,,,,,128,0,8,,,,,7,,,60,0
115580,note_off,,,,,60,0,8,,,,,7,,,72,0
115580,note_off,,,,,188,0,9,,,,,8,,,56,0
115580,note_off,,,,,188,0,6,,,,,5,,,56,0
115580,note_off,,,,,188,0,4,,,,,3,,,72,0
115580,note_off,,,,,188,0,7,,,,,6,,,44,0
115584,note_on,,,,,4,0,6,,,,,5,,,53,92
115584,note_on,,,,,256,0,3,,,,,2,,,80,108
115584,note_on,,,,,256,0,5,,,,,4,,,65,92
115584,note_on,,,,,256,0,2,,,,,1,,,80,63
115584,note_on,,,,,4,0,4,,,,,3,,,68,127
115584,note_on,,,,,0,0,8,,,,,7,,,72,50
115584,note_on,,,,,4,0,7,,,,,6,,,41,75
115584,note_on,,,,,256,0,1,,,,,0,,,80,63
115584,note_on,,,,,4,0,8,,,,,7,,,65,50
115584,note_on,,,,,4,0,9,,,,,8,,,53,50
115584,note_on,,,,,0,0,8,,,,,7,,,68,50
115772,note_off,,,,,188,0,8,,,,,7,,,65,0
115772,note_off,,,,,0,0,8,,,,,7,,,68,0
115772,note_off,,,,,0,0,8,,,,,7,,,72,0
115772,note_off,,,,,188,0,1,,,,,0,,,80,0
115772,note_off,,,,,188,0,2,,,,,1,,,80,0
115772,note_off,,,,,188,0,9,,,,,8,,,53,0
115772,note_off,,,,,188,0,6,,,,,5,,,53,0
115772,note_off,,,,,188,0,7,,,,,6,,,41,0
115772,note_off,,,,,188,0,3,,,,,2,,,80,0
115772,note_off,,,,,188,0,5,,,,,4,,,65,0
115772,note_off,,,,,188,0,4,,,,,3,,,68,0
115776,note_on,,,,,4,0,4,,,,,3,,,73,127
115776,note_on,,,,,4,0,3,,,,,2,,,78,108
115776,note_on,,,,,0,0,8,,,,,7,,,66,50
115776,note_on,,,,,4,0,8,,,,,7,,,61,50
115776,note_on,,,,,4,0,5,,,,,4,,,70,92
115776,note_on,,,,,0,0,8,,,,,7,,,73,50
115776,note_on,,,,,4,0,9,,,,,8,,,58,50
115776,note_on,,,,,4,0,2,,,,,1,,,78,63
115776,note_on,,,,,4,0,7,,,,,6,,,46,75
115776,note_on,,,,,4,0,1,,,,,0,,,78,63
115776,note_on,,,,,4,0,6,,,,,5,,,58,92
115964,note_off,,,,,188,0,2,,,,,1,,,78,0
115964,note_off,,,,,188,0,1,,,,,0,,,78,0
115964,note_off,,,,,188,0,3,,,,,2,,,78,0
115968,note_on,,,,,4,0,3,,,,,2,,,80,108
115968,note_on,,,,,4,0,2,,,,,1,,,80,63
115968,note_on,,,,,4,0,1,,,,,0,,,80,63
116096,note_off,,,,,0,0,8,,,,,7,,,66,0
116096,note_off,,,,,320,0,5,,,,,4,,,70,0
116096,note_off,,,,,320,0,9,,,,,8,,,58,0
116096,note_off,,,,,320,0,7,,,,,6,,,46,0
116096,note_off,,,,,320,0,8,,,,,7,,,61,0
116096,note_off,,,,,320,0,6,,,,,5,,,58,0
116096,note_off,,,,,320,0,4,,,,,3,,,73,0
116096,note_off,,,,,0,0,8,,,,,7,,,73,0
116156,note_off,,,,,188,0,1,,,,,0,,,80,0
116156,note_off,,,,,188,0,3,,,,,2,,,80,0
116156,note_off,,,,,188,0,2,,,,,1,,,80,0
116160,note_on,,,,,0,0,8,,,,,7,,,72,50
116160,note_on,,,,,64,0,5,,,,,4,,,68,92
116160,note_on,,,,,64,0,6,,,,,5,,,60,92
116160,note_on,,,,,4,0,2,,,,,1,,,77,63
116160,note_on,,,,,4,0,1,,,,,0,,,77,63
116160,note_on,,,,,64,0,8,,,,,7,,,65,50
116160,note_on,,,,,0,0,8,,,,,7,,,68,50
116160,note_on,,,,,64,0,7,,,,,6,,,48,75
116160,note_on,,,,,64,0,9,,,,,8,,,60,50
116160,note_on,,,,,64,0,4,,,,,3,,,72,127
116160,note_on,,,,,4,0,3,,,,,2,,,77,108
116348,note_off,,,,,188,0,5,,,,,4,,,68,0
116348,note_off,,,,,188,0,2,,,,,1,,,77,0
116348,note_off,,,,,188,0,3,,,,,2,,,77,0
116348,note_off,,,,,188,0,8,,,,,7,,,65,0
116348,note_off,,,,,0,0,8,,,,,7,,,68,0
116348,note_off,,,,,188,0,1,,,,,0,,,77,0
116352,note_on,,,,,4,0,5,,,,,4,,,67,92
116352,note_on,,,,,4,0,8,,,,,7,,,65,50
116352,note_on,,,,,4,0,1,,,,,0,,,76,63
116352,note_on,,,,,4,0,3,,,,,2,,,76,108
116352,note_on,,,,,4,0,2,,,,,1,,,76,63
116480,note_off,,,,,320,0,6,,,,,5,,,60,0
116480,note_off,,,,,320,0,4,,,,,3,,,72,0
116480,note_off,,,,,320,0,9,,,,,8,,,60,0
116480,note_off,,,,,320,0,7,,,,,6,,,48,0
116540,note_off,,,,,188,0,3,,,,,2,,,76,0
116540,note_off,,,,,188,0,2,,,,,1,,,76,0
116540,note_off,,,,,188,0,1,,,,,0,,,76,0
116540,note_off,,,,,188,0,5,,,,,4,,,67,0
116544,note_on,,,,,64,0,7,,,,,6,,,49,75
116544,note_on,,,,,4,0,1,,,,,0,,,77,63
116544,note_on,,,,,64,0,6,,,,,5,,,61,92
116544,note_on,,,,,4,0,5,,,,,4,,,68,92
116544,note_on,,,,,64,0,9,,,,,8,,,61,50
116544,note_on,,,,,4,0,2,,,,,1,,,77,63
116544,note_on,,,,,64,0,4,,,,,3,,,72,127
116544,note_on,,,,,4,0,3,,,,,2,,,77,108
116636,note_off,,,,,92,0,1,,,,,0,,,77,0
116636,note_off,,,,,92,0,2,,,,,1,,,77,0
116636,note_off,,,,,92,0,3,,,,,2,,,77,0
116640,note_on,,,,,4,0,2,,,,,1,,,76,63
116640,note_on,,,,,4,0,1,,,,,0,,,76,63
116640,note_on,,,,,4,0,3,,,,,2,,,76,108
116672,note_off,,,,,320,0,8,,,,,7,,,72,0
116672,note_off,,,,,0,0,8,,,,,7,,,65,0
116732,note_off,,,,,92,0,1,,,,,0,,,76,0
116732,note_off,,,,,188,0,4,,,,,3,,,72,0
116732,note_off,,,,,92,0,2,,,,,1,,,76,0
116732,note_off,,,,,188,0,5,,,,,4,,,68,0
116732,note_off,,,,,92,0,3,,,,,2,,,76,0
116736,note_on,,,,,4,0,4,,,,,3,,,70,127
116736,note_on,,,,,4,0,2,,,,,1,,,77,63
116736,note_on,,,,,64,0,8,,,,,7,,,70,50
116736,note_on,,,,,4,0,3,,,,,2,,,77,108
116736,note_on,,,,,4,0,1,,,,,0,,,77,63
116736,note_on,,,,,4,0,5,,,,,4,,,65,92
116864,note_off,,,,,320,0,9,,,,,8,,,61,0
116864,note_off,,,,,320,0,6,,,,,5,,,61,0
116864,note_off,,,,,320,0,7,,,,,6,,,49,0
116924,note_off,,,,,188,0,4,,,,,3,,,70,0
116924,note_off,,,,,188,0,5,,,,,4,,,65,0
116924,note_off,,,,,188,0,8,,,,,7,,,70,0
116928,note_on,,,,,64,0,6,,,,,5,,,44,92
116928,note_on,,,,,4,0,4,,,,,3,,,72,127
116928,note_on,,,,,4,0,5,,,,,4,,,60,92
116928,note_on,,,,,4,0,8,,,,,7,,,65,50
116928,note_on,,,,,64,0,7,,,,,6,,,32,75
116928,note_on,,,,,0,0,8,,,,,7,,,72,50
116928,note_on,,,,,64,0,9,,,,,8,,,44,50
117056,note_off,,,,,320,0,2,,,,,1,,,77,0
117056,note_off,,,,,320,0,3,,,,,2,,,77,0
117056,note_off,,,,,320,0,1,,,,,0,,,77,0
117116,note_off,,,,,0,0,8,,,,,7,,,72,0
117116,note_off,,,,,188,0,8,,,,,7,,,65,0
117120,note_on,,,,,64,0,2,,,,,1,,,65,63
117120,note_on,,,,,64,0,1,,,,,0,,,65,63
117120,note_on,,,,,0,0,8,,,,,7,,,65,50
117120,note_on,,,,,4,0,8,,,,,7,,,60,50
117120,note_on,,,,,64,0,3,,,,,2,,,65,108
117248,note_off,,,,,320,0,6,,,,,5,,,44,0
117248,note_off,,,,,320,0,4,,,,,3,,,72,0
117248,note_off,,,,,320,0,7,,,,,6,,,32,0
117248,note_off,,,,,320,0,9,,,,,8,,,44,0
117248,note_off,,,,,320,0,5,,,,,4,,,60,0
117308,note_off,,,,,188,0,3,,,,,2,,,65,0
117308,note_off,,,,,188,0,8,,,,,7,,,60,0
117308,note_off,,,,,188,0,1,,,,,0,,,65,0
117308,note_off,,,,,188,0,2,,,,,1,,,65,0
117308,note_off,,,,,0,0,8,,,,,7,,,65,0
117312,note_on,,,,,64,0,6,,,,,5,,,46,92
117312,note_on,,,,,64,0,7,,,,,6,,,34,75
117312,note_on,,,,,4,0,2,,,,,1,,,66,63
117312,note_on,,,,,0,0,8,,,,,7,,,66,50
117312,note_on,,,,,64,0,9,,,,,8,,,46,50
117312,note_on,,,,,64,0,4,,,,,3,,,61,127
117312,note_on,,,,,4,0,8,,,,,7,,,62,50
117312,note_on,,,,,4,0,3,,,,,2,,,66,108
117312,note_on,,,,,4,0,1,,,,,0,,,66,63
117312,note_on,,,,,64,0,5,,,,,4,,,58,92
117500,note_off,,,,,188,0,1,,,,,0,,,66,0
117500,note_off,,,,,188,0,8,,,,,7,,,66,0
117500,note_off,,,,,188,0,2,,,,,1,,,66,0
117500,note_off,,,,,188,0,3,,,,,2,,,66,0
117504,note_on,,,,,4,0,8,,,,,7,,,67,50
117504,note_on,,,,,4,0,3,,,,,2,,,67,108
117504,note_on,,,,,4,0,2,,,,,1,,,67,63
117504,note_on,,,,,4,0,1,,,,,0,,,67,63
117632,note_off,,,,,128,0,8,,,,,7,,,62,0
117632,note_off,,,,,320,0,4,,,,,3,,,61,0
117632,note_off,,,,,320,0,5,,,,,4,,,58,0
117632,note_off,,,,,320,0,7,,,,,6,,,34,0
117632,note_off,,,,,320,0,9,,,,,8,,,46,0
117632,note_off,,,,,320,0,6,,,,,5,,,46,0
117692,note_off,,,,,60,0,8,,,,,7,,,67,0
117696,note_on,,,,,64,0,6,,,,,5,,,48,92
117696,note_on,,,,,64,0,9,,,,,8,,,48,50
117696,note_on,,,,,64,0,5,,,,,4,,,63,92
117696,note_on,,,,,64,0,4,,,,,3,,,63,127
117696,note_on,,,,,64,0,7,,,,,6,,,36,75
117696,note_on,,,,,4,0,8,,,,,7,,,63,50
117824,note_off,,,,,320,0,3,,,,,2,,,67,0
117824,note_off,,,,,320,0,2,,,,,1,,,67,0
117824,note_off,,,,,320,0,1,,,,,0,,,67,0
117888,note_on,,,,,64,0,2,,,,,1,,,69,63
117888,note_on,,,,,192,0,8,,,,,7,,,69,50
117888,note_on,,,,,64,0,1,,,,,0,,,69,63
117888,note_on,,,,,64,0,3,,,,,2,,,69,108
118016,note_off,,,,,320,0,5,,,,,4,,,63,0
118016,note_off,,,,,320,0,4,,,,,3,,,63,0
118016,note_off,,,,,320,0,9,,,,,8,,,48,0
118016,note_off,,,,,320,0,6,,,,,5,,,48,0
118016,note_off,,,,,320,0,7,,,,,6,,,36,0
118076,note_off,,,,,188,0,8,,,,,7,,,63,0
118076,note_off,,,,,0,0,8,,,,,7,,,69,0
118076,note_off,,,,,188,0,2,,,,,1,,,69,0
118076,note_off,,,,,188,0,3,,,,,2,,,69,0
118076,note_off,,,,,188,0,1,,,,,0,,,69,0
118080,note_on,,,,,64,0,4,,,,,3,,,65,127
118080,note_on,,,,,64,0,9,,,,,8,,,49,50
118080,note_on,,,,,4,0,1,,,,,0,,,70,63
118080,note_on,,,,,64,0,5,,,,,4,,,61,92
118080,note_on,,,,,4,0,2,,,,,1,,,70,63
118080,note_on,,,,,64,0,7,,,,,6,,,37,75
118080,note_on,,,,,4,0,3,,,,,2,,,70,108
118080,note_on,,,,,64,0,6,,,,,5,,,49,92
118080,note_on,,,,,0,0,8,,,,,7,,,70,50
118080,note_on,,,,,4,0,8,,,,,7,,,65,50
118268,note_off,,,,,188,0,1,,,,,0,,,70,0
118268,note_off,,,,,188,0,3,,,,,2,,,70,0
118268,note_off,,,,,188,0,8,,,,,7,,,70,0
118268,note_off,,,,,188,0,2,,,,,1,,,70,0
118272,note_on,,,,,4,0,2,,,,,1,,,71,63
118272,note_on,,,,,4,0,3,,,,,2,,,71,108
118272,note_on,,,,,4,0,1,,,,,0,,,71,63
118272,note_on,,,,,4,0,8,,,,,7,,,71,50
118400,note_off,,,,,320,0,7,,,,,6,,,37,0
118400,note_off,,,,,320,0,5,,,,,4,,,61,0
118400,note_off,,,,,128,0,8,,,,,7,,,65,0
118400,note_off,,,,,320,0,9,,,,,8,,,49,0
118400,note_off,,,,,320,0,6,,,,,5,,,49,0
118464,note_on,,,,,64,0,5,,,,,4,,,65,92
118464,note_on,,,,,64,0,9,,,,,8,,,51,50
118464,note_on,,,,,0,0,8,,,,,7,,,62,50
118464,note_on,,,,,0,0,8,,,,,7,,,65,50
118464,note_on,,,,,0,0,8,,,,,7,,,71,50
118464,note_on,,,,,64,0,7,,,,,6,,,39,75
118464,note_on,,,,,64,0,6,,,,,5,,,51,92
118464,note_off,,,,,64,0,8,,,,,7,,,71,0
118592,note_off,,,,,320,0,2,,,,,1,,,71,0
118592,note_off,,,,,512,0,4,,,,,3,,,65,0
118592,note_off,,,,,320,0,3,,,,,2,,,71,0
118592,note_off,,,,,320,0,1,,,,,0,,,71,0
118656,note_on,,,,,64,0,2,,,,,1,,,72,63
118656,note_on,,,,,64,0,4,,,,,3,,,65,127
118656,note_on,,,,,64,0,1,,,,,0,,,72,63
118656,note_on,,,,,64,0,3,,,,,2,,,72,108
118748,note_off,,,,,92,0,2,,,,,1,,,72,0
118748,note_off,,,,,92,0,3,,,,,2,,,72,0
118748,note_off,,,,,92,0,1,,,,,0,,,72,0
118752,note_on,,,,,4,0,2,,,,,1,,,71,63
118752,note_on,,,,,4,0,3,,,,,2,,,71,108
118752,note_on,,,,,4,0,1,,,,,0,,,71,63
118784,note_off,,,,,320,0,7,,,,,6,,,39,0
118784,note_off,,,,,320,0,5,,,,,4,,,65,0
118784,note_off,,,,,320,0,9,,,,,8,,,51,0
118784,note_off,,,,,320,0,8,,,,,7,,,62,0
118784,note_off,,,,,0,0,8,,,,,7,,,71,0
118784,note_off,,,,,320,0,6,,,,,5,,,51,0
118784,note_off,,,,,0,0,8,,,,,7,,,65,0
118844,note_off,,,,,92,0,2,,,,,1,,,71,0
118844,note_off,,,,,188,0,4,,,,,3,,,65,0
118844,note_off,,,,,92,0,3,,,,,2,,,71,0
118844,note_off,,,,,92,0,1,,,,,0,,,71,0
118848,note_on,,,,,4,0,1,,,,,0,,,72,63
118848,note_on,,,,,64,0,9,,,,,8,,,52,50
118848,note_on,,,,,4,0,2,,,,,1,,,72,63
118848,note_on,,,,,0,0,8,,,,,7,,,67,50
118848,note_on,,,,,64,0,8,,,,,7,,,60,50
118848,note_on,,,,,4,0,4,,,,,3,,,67,127
118848,note_on,,,,,64,0,7,,,,,6,,,40,75
118848,note_on,,,,,64,0,6,,,,,5,,,52,92
118848,note_on,,,,,4,0,3,,,,,2,,,72,108
118848,note_on,,,,,0,0,8,,,,,7,,,72,50
118848,note_on,,,,,64,0,5,,,,,4,,,64,92
118940,note_off,,,,,92,0,2,,,,,1,,,72,0
118940,note_off,,,,,92,0,1,,,,,0,,,72,0
118940,note_off,,,,,92,0,3,,,,,2,,,72,0
118944,note_on,,,,,4,0,3,,,,,2,,,67,108
118944,note_on,,,,,4,0,1,,,,,0,,,67,63
118944,note_on,,,,,4,0,2,,,,,1,,,67,63
119036,note_off,,,,,0,0,8,,,,,7,,,67,0
119036,note_off,,,,,188,0,6,,,,,5,,,52,0
119036,note_off,,,,,188,0,7,,,,,6,,,40,0
119036,note_off,,,,,92,0,3,,,,,2,,,67,0
119036,note_off,,,,,188,0,8,,,,,7,,,60,0
119036,note_off,,,,,188,0,4,,,,,3,,,67,0
119036,note_off,,,,,188,0,9,,,,,8,,,52,0
119036,note_off,,,,,92,0,2,,,,,1,,,67,0
119036,note_off,,,,,92,0,1,,,,,0,,,67,0
119036,note_off,,,,,0,0,8,,,,,7,,,72,0
119036,note_off,,,,,188,0,5,,,,,4,,,64,0
119040,note_on,,,,,0,0,8,,,,,7,,,65,50
119040,note_on,,,,,4,0,3,,,,,2,,,68,108
119040,note_on,,,,,4,0,6,,,,,5,,,53,92
119040,note_on,,,,,4,0,1,,,,,0,,,68,63
119040,note_on,,,,,4,0,8,,,,,7,,,60,50
119040,note_on,,,,,4,0,9,,,,,8,,,53,50
119040,note_on,,,,,0,0,8,,,,,7,,,68,50
119040,note_on,,,,,4,0,7,,,,,6,,,41,75
119040,note_on,,,,,4,0,5,,,,,4,,,60,92
119040,note_on,,,,,4,0,2,,,,,1,,,68,63
119040,note_on,,,,,4,0,4,,,,,3,,,65,127
119132,note_off,,,,,92,0,1,,,,,0,,,68,0
119132,note_off,,,,,92,0,3,,,,,2,,,68,0
119132,note_off,,,,,92,0,2,,,,,1,,,68,0
119136,note_on,,,,,4,0,3,,,,,2,,,65,108
119136,note_on,,,,,4,0,1,,,,,0,,,65,63
119136,note_on,,,,,4,0,2,,,,,1,,,65,63
119228,note_off,,,,,92,0,3,,,,,2,,,65,0
119228,note_off,,,,,188,0,5,,,,,4,,,60,0
119228,note_off,,,,,188,0,7,,,,,6,,,41,0
119228,note_off,,,,,0,0,8,,,,,7,,,68,0
119228,note_off,,,,,0,0,8,,,,,7,,,65,0
119228,note_off,,,,,188,0,4,,,,,3,,,65,0
119228,note_off,,,,,188,0,8,,,,,7,,,60,0
119228,note_off,,,,,188,0,9,,,,,8,,,53,0
119228,note_off,,,,,92,0,1,,,,,0,,,65,0
119228,note_off,,,,,188,0,6,,,,,5,,,53,0
119228,note_off,,,,,92,0,2,,,,,1,,,65,0
119232,note_on,,,,,4,0,4,,,,,3,,,65,127
119232,note_on,,,,,4,0,6,,,,,5,,,60,92
119232,note_on,,,,,4,0,1,,,,,0,,,55,63
119232,note_on,,,,,4,0,8,,,,,7,,,65,50
119232,note_on,,,,,4,0,5,,,,,4,,,60,92
119232,note_on,,,,,4,0,3,,,,,2,,,55,108
119232,note_on,,,,,4,0,9,,,,,8,,,60,50
119232,note_on,,,,,4,0,2,,,,,1,,,55,63
119232,note_on,,,,,4,0,7,,,,,6,,,48,75
119232,note_on,,,,,0,0,8,,,,,7,,,67,50
119420,note_off,,,,,188,0,7,,,,,6,,,48,0
119420,note_off,,,,,188,0,6,,,,,5,,,60,0
119420,note_off,,,,,188,0,8,,,,,7,,,65,0
119420,note_off,,,,,188,0,9,,,,,8,,,60,0
119420,note_off,,,,,188,0,1,,,,,0,,,55,0
119420,note_off,,,,,188,0,4,,,,,3,,,65,0
119420,note_off,,,,,188,0,2,,,,,1,,,55,0
119420,note_off,,,,,188,0,3,,,,,2,,,55,0
119420,note_off,,,,,188,0,5,,,,,4,,,60,0
119424,note_on,,,,,4,0,7,,,,,6,,,36,75
119424,note_on,,,,,4,0,6,,,,,5,,,48,92
119424,note_on,,,,,4,0,5,,,,,4,,,58,92
119424,note_on,,,,,4,0,4,,,,,3,,,64,127
119424,note_on,,,,,4,0,1,,,,,0,,,64,63
119424,note_on,,,,,4,0,3,,,,,2,,,64,108
119424,note_on,,,,,4,0,2,,,,,1,,,64,63
119424,note_on,,,,,4,0,8,,,,,7,,,64,50
119424,note_on,,,,,4,0,9,,,,,8,,,48,50
119612,note_off,,,,,188,0,7,,,,,6,,,36,0
119612,note_off,,,,,0,0,8,,,,,7,,,64,0
119612,note_off,,,,,188,0,5,,,,,4,,,58,0
119612,note_off,,,,,188,0,9,,,,,8,,,48,0
119612,note_off,,,,,188,0,8,,,,,7,,,67,0
119612,note_off,,,,,188,0,2,,,,,1,,,64,0
119612,note_off,,,,,188,0,1,,,,,0,,,64,0
119612,note_off,,,,,188,0,4,,,,,3,,,64,0
119612,note_off,,,,,188,0,6,,,,,5,,,48,0
119612,note_off,,,,,188,0,3,,,,,2,,,64,0
119616,note_on,,,,,4,0,6,,,,,5,,,53,92
119616,note_on,,,,,4,0,8,,,,,7,,,65,50
119616,note_on,,,,,4,0,2,,,,,1,,,65,63
119616,note_on,,,,,4,0,1,,,,,0,,,65,63
119616,note_on,,,,,4,0,4,,,,,3,,,60,127
119616,note_on,,,,,4,0,5,,,,,4,,,56,92
119616,note_on,,,,,4,0,9,,,,,8,,,53,50
119616,note_on,,,,,4,0,3,,,,,2,,,65,108
119616,note_on,,,,,4,0,7,,,,,6,,,41,75
119804,note_off,,,,,188,0,4,,,,,3,,,60,0
119804,note_off,,,,,188,0,9,,,,,8,,,53,0
119804,note_off,,,,,188,0,7,,,,,6,,,41,0
119804,note_off,,,,,188,0,6,,,,,5,,,53,0
119808,note_on,,,,,4,0,4,,,,,3,,,68,127
119808,note_on,,,,,4,0,7,,,,,6,,,36,75
119808,note_on,,,,,4,0,9,,,,,8,,,48,50
119808,note_on,,,,,4,0,6,,,,,5,,,48,92
119900,note_off,,,,,92,0,4,,,,,3,,,68,0
119900,note_off,,,,,92,0,7,,,,,6,,,36,0
119900,note_off,,,,,92,0,9,,,,,8,,,48,0
119900,note_off,,,,,92,0,6,,,,,5,,,48,0
119904,note_on,,,,,4,0,4,,,,,3,,,67,127
119904,note_on,,,,,4,0,9,,,,,8,,,46,50
119904,note_on,,,,,4,0,6,,,,,5,,,46,92
119904,note_on,,,,,4,0,7,,,,,6,,,34,75
119936,note_off,,,,,320,0,8,,,,,7,,,65,0
119936,note_off,,,,,320,0,2,,,,,1,,,65,0
119936,note_off,,,,,320,0,5,,,,,4,,,56,0
119936,note_off,,,,,320,0,3,,,,,2,,,65,0
119936,note_off,,,,,320,0,1,,,,,0,,,65,0
119996,note_off,,,,,92,0,7,,,,,6,,,34,0
119996,note_off,,,,,92,0,4,,,,,3,,,67,0
119996,note_off,,,,,92,0,6,,,,,5,,,46,0
119996,note_off,,,,,92,0,9,,,,,8,,,46,0
120000,note_on,,,,,4,0,4,,,,,3,,,65,127
120000,note_on,,,,,0,0,8,,,,,7,,,65,50
120000,note_on,,,,,64,0,8,,,,,7,,,60,50
120000,note_on,,,,,4,0,6,,,,,5,,,44,92
120000,note_on,,,,,4,0,9,,,,,8,,,44,50
120000,note_on,,,,,4,0,7,,,,,6,,,32,75
120188,note_off,,,,,188,0,7,,,,,6,,,32,0
120188,note_off,,,,,188,0,4,,,,,3,,,65,0
120188,note_off,,,,,188,0,6,,,,,5,,,44,0
120188,note_off,,,,,188,0,9,,,,,8,,,44,0
120188,note_off,,,,,188,0,8,,,,,7,,,60,0
120188,note_off,,,,,0,0,8,,,,,7,,,65,0
120192,note_on,,,,,4,0,9,,,,,8,,,43,50
120192,note_on,,,,,4,0,8,,,,,7,,,58,50
120192,note_on,,,,,256,0,2,,,,,1,,,72,63
120192,note_on,,,,,4,0,7,,,,,6,,,31,75
120192,note_on,,,,,4,0,4,,,,,3,,,64,127
120192,note_on,,,,,256,0,3,,,,,2,,,72,108
120192,note_on,,,,,256,0,5,,,,,4,,,58,92
120192,note_on,,,,,4,0,6,,,,,5,,,43,92
120192,note_on,,,,,256,0,1,,,,,0,,,72,63
120192,note_on,,,,,0,0,8,,,,,7,,,67,50
120192,note_on,,,,,0,0,8,,,,,7,,,64,50
120284,note_off,,,,,92,0,7,,,,,6,,,31,0
120284,note_off,,,,,92,0,6,,,,,5,,,43,0
120284,note_off,,,,,92,0,9,,,,,8,,,43,0
120288,note_on,,,,,4,0,6,,,,,5,,,44,92
120288,note_on,,,,,4,0,7,,,,,6,,,32,75
120288,note_on,,,,,4,0,9,,,,,8,,,44,50
120380,note_off,,,,,188,0,8,,,,,7,,,58,0
120380,note_off,,,,,188,0,5,,,,,4,,,58,0
120380,note_off,,,,,0,0,8,,,,,7,,,64,0
120380,note_off,,,,,188,0,1,,,,,0,,,72,0
120380,note_off,,,,,188,0,4,,,,,3,,,64,0
120380,note_off,,,,,92,0,6,,,,,5,,,44,0
120380,note_off,,,,,188,0,3,,,,,2,,,72,0
120380,note_off,,,,,0,0,8,,,,,7,,,67,0
120380,note_off,,,,,92,0,9,,,,,8,,,44,0
120380,note_off,,,,,188,0,2,,,,,1,,,72,0
120380,note_off,,,,,92,0,7,,,,,6,,,32,0
120384,note_on,,,,,4,0,9,,,,,8,,,41,50
120384,note_on,,,,,4,0,4,,,,,3,,,65,127
120384,note_on,,,,,4,0,7,,,,,6,,,29,75
120384,note_on,,,,,0,0,8,,,,,7,,,65,50
120384,note_on,,,,,4,0,2,,,,,1,,,80,63
120384,note_on,,,,,4,0,1,,,,,0,,,80,63
120384,note_on,,,,,4,0,8,,,,,7,,,60,50
120384,note_on,,,,,0,0,8,,,,,7,,,68,50
120384,note_on,,,,,4,0,5,,,,,4,,,60,92
120384,note_on,,,,,4,0,3,,,,,2,,,80,108
120384,note_on,,,,,4,0,6,,,,,5,,,41,92
120476,note_off,,,,,92,0,2,,,,,1,,,80,0
120476,note_off,,,,,92,0,1,,,,,0,,,80,0
120476,note_off,,,,,92,0,3,,,,,2,,,80,0
120480,note_on,,,,,4,0,1,,,,,0,,,79,63
120480,note_on,,,,,4,0,2,,,,,1,,,79,63
120480,note_on,,,,,4,0,3,,,,,2,,,79,108
120572,note_off,,,,,92,0,1,,,,,0,,,79,0
120572,note_off,,,,,92,0,2,,,,,1,,,79,0
120572,note_off,,,,,92,0,3,,,,,2,,,79,0
120576,note_on,,,,,4,0,3,,,,,2,,,77,108
120576,note_on,,,,,4,0,2,,,,,1,,,77,63
120576,note_on,,,,,4,0,1,,,,,0,,,77,63
120668,note_off,,,,,92,0,2,,,,,1,,,77,0
120668,note_off,,,,,92,0,3,,,,,2,,,77,0
120668,note_off,,,,,92,0,1,,,,,0,,,77,0
120672,note_on,,,,,4,0,3,,,,,2,,,75,108
120672,note_on,,,,,4,0,1,,,,,0,,,75,63
120672,note_on,,,,,4,0,2,,,,,1,,,75,63
120704,note_off,,,,,320,0,8,,,,,7,,,60,0
120704,note_off,,,,,320,0,4,,,,,3,,,65,0
120704,note_off,,,,,320,0,9,,,,,8,,,41,0
120704,note_off,,,,,0,0,8,,,,,7,,,65,0
120704,note_off,,,,,320,0,6,,,,,5,,,41,0
120704,note_off,,,,,320,0,5,,,,,4,,,60,0
120704,note_off,,,,,320,0,7,,,,,6,,,29,0
120704,note_off,,,,,0,0,8,,,,,7,,,68,0
120764,note_off,,,,,92,0,2,,,,,1,,,75,0
120764,note_off,,,,,92,0,3,,,,,2,,,75,0
120764,note_off,,,,,92,0,1,,,,,0,,,75,0
120768,note_on,,,,,4,0,2,,,,,1,,,73,63
120768,note_on,,,,,4,0,1,,,,,0,,,73,63
120768,note_on,,,,,4,0,3,,,,,2,,,73,108
120956,note_off,,,,,188,0,2,,,,,1,,,73,0
120956,note_off,,,,,188,0,3,,,,,2,,,73,0
120956,note_off,,,,,188,0,1,,,,,0,,,73,0
120960,note_on,,,,,256,0,9,,,,,8,,,44,50
120960,note_on,,,,,4,0,3,,,,,2,,,72,108
120960,note_on,,,,,256,0,7,,,,,6,,,32,75
120960,note_on,,,,,256,0,6,,,,,5,,,44,92
120960,note_on,,,,,256,0,4,,,,,3,,,65,127
120960,note_on,,,,,4,0,2,,,,,1,,,72,63
120960,note_on,,,,,4,0,1,,,,,0,,,72,63
120960,note_on,,,,,256,0,5,,,,,4,,,56,92
120960,note_on,,,,,0,0,8,,,,,7,,,65,50
120960,note_on,,,,,256,0,8,,,,,7,,,60,50
121148,note_off,,,,,188,0,8,,,,,7,,,60,0
121148,note_off,,,,,188,0,2,,,,,1,,,72,0
121148,note_off,,,,,188,0,7,,,,,6,,,32,0
121148,note_off,,,,,188,0,1,,,,,0,,,72,0
121148,note_off,,,,,188,0,9,,,,,8,,,44,0
121148,note_off,,,,,0,0,8,,,,,7,,,65,0
121148,note_off,,,,,188,0,4,,,,,3,,,65,0
121148,note_off,,,,,188,0,6,,,,,5,,,44,0
121148,note_off,,,,,188,0,3,,,,,2,,,72,0
121148,note_off,,,,,188,0,5,,,,,4,,,56,0
121152,note_on,,,,,0,0,8,,,,,7,,,70,50
121152,note_on,,,,,0,0,8,,,,,7,,,63,50
121152,note_on,,,,,4,0,6,,,,,5,,,43,92
121152,note_on,,,,,4,0,8,,,,,7,,,58,50
121152,note_on,,,,,4,0,4,,,,,3,,,67,127
121152,note_on,,,,,4,0,5,,,,,4,,,58,92
121152,note_on,,,,,4,0,1,,,,,0,,,70,63
121152,note_on,,,,,4,0,3,,,,,2,,,70,108
121152,note_on,,,,,4,0,2,,,,,1,,,70,63
121152,note_on,,,,,4,0,7,,,,,6,,,31,75
121152,note_on,,,,,4,0,9,,,,,8,,,43,50
121340,note_off,,,,,188,0,7,,,,,6,,,31,0
121340,note_off,,,,,188,0,6,,,,,5,,,43,0
121340,note_off,,,,,188,0,9,,,,,8,,,43,0
121340,note_off,,,,,188,0,8,,,,,7,,,58,0
121344,note_on,,,,,4,0,7,,,,,6,,,32,75
121344,note_on,,,,,4,0,8,,,,,7,,,60,50
121344,note_on,,,,,4,0,6,,,,,5,,,44,92
121344,note_on,,,,,4,0,9,,,,,8,,,44,50
121436,note_off,,,,,284,0,1,,,,,0,,,70,0
121436,note_off,,,,,284,0,3,,,,,2,,,70,0
121436,note_off,,,,,284,0,2,,,,,1,,,70,0
121440,note_on,,,,,4,0,3,,,,,2,,,68,108
121440,note_on,,,,,4,0,2,,,,,1,,,68,63
121440,note_on,,,,,4,0,1,,,,,0,,,68,63
121472,note_off,,,,,320,0,4,,,,,3,,,67,0
121472,note_off,,,,,0,0,8,,,,,7,,,70,0
121472,note_off,,,,,320,0,5,,,,,4,,,58,0
121472,note_off,,,,,128,0,8,,,,,7,,,63,0
121532,note_off,,,,,60,0,8,,,,,7,,,60,0
121532,note_off,,,,,188,0,9,,,,,8,,,44,0
121532,note_off,,,,,188,0,6,,,,,5,,,44,0
121532,note_off,,,,,92,0,3,,,,,2,,,68,0
121532,note_off,,,,,92,0,1,,,,,0,,,68,0
121532,note_off,,,,,188,0,7,,,,,6,,,32,0
121532,note_off,,,,,92,0,2,,,,,1,,,68,0
121536,note_on,,,,,4,0,1,,,,,0,,,67,63
121536,note_on,,,,,4,0,9,,,,,8,,,46,50
121536,note_on,,,,,4,0,3,,,,,2,,,67,108
121536,note_on,,,,,4,0,7,,,,,6,,,34,75
121536,note_on,,,,,4,0,6,,,,,5,,,46,92
121536,note_on,,,,,4,0,8,,,,,7,,,61,50
121536,note_on,,,,,4,0,2,,,,,1,,,67,63
121536,note_on,,,,,0,0,8,,,,,7,,,67,50
121628,note_off,,,,,92,0,2,,,,,1,,,67,0
121628,note_off,,,,,92,0,3,,,,,2,,,67,0
121628,note_off,,,,,92,0,1,,,,,0,,,67,0
121632,note_on,,,,,4,0,2,,,,,1,,,65,63
121632,note_on,,,,,4,0,3,,,,,2,,,65,108
121632,note_on,,,,,4,0,1,,,,,0,,,65,63
121724,note_off,,,,,188,0,6,,,,,5,,,46,0
121724,note_off,,,,,92,0,2,,,,,1,,,65,0
121724,note_off,,,,,92,0,1,,,,,0,,,65,0
121724,note_off,,,,,92,0,3,,,,,2,,,65,0
121724,note_off,,,,,188,0,9,,,,,8,,,46,0
121724,note_off,,,,,188,0,7,,,,,6,,,34,0
121724,note_off,,,,,188,0,8,,,,,7,,,67,0
121728,note_on,,,,,4,0,1,,,,,0,,,63,63
121728,note_on,,,,,4,0,9,,,,,8,,,43,50
121728,note_on,,,,,256,0,5,,,,,4,,,58,92
121728,note_on,,,,,256,0,4,,,,,3,,,58,127
121728,note_on,,,,,4,0,8,,,,,7,,,63,50
121728,note_on,,,,,4,0,7,,,,,6,,,31,75
121728,note_on,,,,,0,0,8,,,,,7,,,70,50
121728,note_on,,,,,4,0,3,,,,,2,,,63,108
121728,note_on,,,,,4,0,2,,,,,1,,,63,63
121728,note_on,,,,,4,0,6,,,,,5,,,43,92
121820,note_off,,,,,92,0,3,,,,,2,,,63,0
121820,note_off,,,,,92,0,2,,,,,1,,,63,0
121820,note_off,,,,,92,0,1,,,,,0,,,63,0
121824,note_on,,,,,4,0,3,,,,,2,,,61,108
121824,note_on,,,,,4,0,1,,,,,0,,,61,63
121824,note_on,,,,,4,0,2,,,,,1,,,61,63
121856,note_off,,,,,128,0,8,,,,,7,,,61,0
121916,note_off,,,,,92,0,2,,,,,1,,,61,0
121916,note_off,,,,,60,0,8,,,,,7,,,63,0
121916,note_off,,,,,0,0,8,,,,,7,,,70,0
121916,note_off,,,,,188,0,7,,,,,6,,,31,0
121916,note_off,,,,,188,0,4,,,,,3,,,58,0
121916,note_off,,,,,92,0,1,,,,,0,,,61,0
121916,note_off,,,,,188,0,6,,,,,5,,,43,0
121916,note_off,,,,,188,0,5,,,,,4,,,58,0
121916,note_off,,,,,188,0,9,,,,,8,,,43,0
121916,note_off,,,,,92,0,3,,,,,2,,,61,0
121920,note_on,,,,,4,0,6,,,,,5,,,44,92
121920,note_on,,,,,4,0,4,,,,,3,,,60,127
121920,note_on,,,,,4,0,9,,,,,8,,,44,50
121920,note_on,,,,,4,0,7,,,,,6,,,32,75
121920,note_on,,,,,0,0,8,,,,,7,,,68,50
121920,note_on,,,,,0,0,8,,,,,7,,,63,50
121920,note_on,,,,,4,0,8,,,,,7,,,60,50
121920,note_on,,,,,4,0,3,,,,,2,,,60,108
121920,note_on,,,,,4,0,1,,,,,0,,,60,63
121920,note_on,,,,,4,0,2,,,,,1,,,60,63
121920,note_on,,,,,4,0,5,,,,,4,,,56,92
122012,note_off,,,,,92,0,3,,,,,2,,,60,0
122012,note_off,,,,,92,0,2,,,,,1,,,60,0
122012,note_off,,,,,92,0,1,,,,,0,,,60,0
122016,note_on,,,,,4,0,3,,,,,2,,,63,108
122016,note_on,,,,,4,0,1,,,,,0,,,63,63
122016,note_on,,,,,4,0,2,,,,,1,,,63,63
122108,note_off,,,,,92,0,1,,,,,0,,,63,0
122108,note_off,,,,,188,0,7,,,,,6,,,32,0
122108,note_off,,,,,188,0,9,,,,,8,,,44,0
122108,note_off,,,,,92,0,3,,,,,2,,,63,0
122108,note_off,,,,,188,0,6,,,,,5,,,44,0
122108,note_off,,,,,92,0,2,,,,,1,,,63,0
122112,note_on,,,,,4,0,6,,,,,5,,,51,92
122112,note_on,,,,,4,0,7,,,,,6,,,39,75
122112,note_on,,,,,4,0,9,,,,,8,,,51,50
122112,note_on,,,,,4,0,1,,,,,0,,,65,63
122112,note_on,,,,,4,0,3,,,,,2,,,65,108
122112,note_on,,,,,4,0,2,,,,,1,,,65,63
122204,note_off,,,,,92,0,1,,,,,0,,,65,0
122204,note_off,,,,,92,0,2,,,,,1,,,65,0
122204,note_off,,,,,92,0,3,,,,,2,,,65,0
122208,note_on,,,,,4,0,3,,,,,2,,,67,108
122208,note_on,,,,,4,0,2,,,,,1,,,67,63
122208,note_on,,,,,4,0,1,,,,,0,,,67,63
122240,note_off,,,,,320,0,5,,,,,4,,,56,0
122240,note_off,,,,,320,0,4,,,,,3,,,60,0
122240,note_off,,,,,320,0,8,,,,,7,,,60,0
122240,note_off,,,,,0,0,8,,,,,7,,,68,0
122240,note_off,,,,,0,0,8,,,,,7,,,63,0
122300,note_off,,,,,92,0,2,,,,,1,,,67,0
122300,note_off,,,,,92,0,1,,,,,0,,,67,0
122300,note_off,,,,,188,0,9,,,,,8,,,51,0
122300,note_off,,,,,92,0,3,,,,,2,,,67,0
122300,note_off,,,,,188,0,7,,,,,6,,,39,0
122300,note_off,,,,,188,0,6,,,,,5,,,51,0
122304,note_on,,,,,64,0,4,,,,,3,,,63,127
122304,note_on,,,,,64,0,5,,,,,4,,,56,92
122304,note_on,,,,,4,0,6,,,,,5,,,48,92
122304,note_on,,,,,4,0,7,,,,,6,,,36,75
122304,note_on,,,,,4,0,1,,,,,0,,,68,63
122304,note_on,,,,,4,0,9,,,,,8,,,48,50
122304,note_on,,,,,4,0,3,,,,,2,,,68,108
122304,note_on,,,,,0,0,8,,,,,7,,,68,50
122304,note_on,,,,,64,0,8,,,,,7,,,63,50
122304,note_on,,,,,4,0,2,,,,,1,,,68,63
122492,note_off,,,,,188,0,1,,,,,0,,,68,0
122492,note_off,,,,,188,0,8,,,,,7,,,63,0
122492,note_off,,,,,188,0,9,,,,,8,,,48,0
122492,note_off,,,,,188,0,4,,,,,3,,,63,0
122492,note_off,,,,,0,0,8,,,,,7,,,68,0
122492,note_off,,,,,188,0,7,,,,,6,,,36,0
122492,note_off,,,,,188,0,3,,,,,2,,,68,0
122492,note_off,,,,,188,0,6,,,,,5,,,48,0
122492,note_off,,,,,188,0,5,,,,,4,,,56,0
122492,note_off,,,,,188,0,2,,,,,1,,,68,0
122496,note_on,,,,,4,0,5,,,,,4,,,63,92
122496,note_on,,,,,4,0,3,,,,,2,,,72,108
122496,note_on,,,,,4,0,6,,,,,5,,,56,92
122496,note_on,,,,,4,0,9,,,,,8,,,56,50
122496,note_on,,,,,0,0,8,,,,,7,,,68,50
122496,note_on,,,,,4,0,2,,,,,1,,,72,63
122496,note_on,,,,,4,0,8,,,,,7,,,63,50
122496,note_on,,,,,4,0,4,,,,,3,,,68,127
122496,note_on,,,,,4,0,7,,,,,6,,,44,75
122496,note_on,,,,,0,0,8,,,,,7,,,72,50
122496,note_on,,,,,4,0,1,,,,,0,,,72,63
122684,note_off,,,,,188,0,1,,,,,0,,,72,0
122684,note_off,,,,,188,0,4,,,,,3,,,68,0
122684,note_off,,,,,0,0,8,,,,,7,,,68,0
122684,note_off,,,,,188,0,9,,,,,8,,,56,0
122684,note_off,,,,,188,0,7,,,,,6,,,44,0
122684,note_off,,,,,188,0,8,,,,,7,,,63,0
122684,note_off,,,,,188,0,6,,,,,5,,,56,0
122684,note_off,,,,,188,0,2,,,,,1,,,72,0
122684,note_off,,,,,0,0,8,,,,,7,,,72,0
122684,note_off,,,,,188,0,5,,,,,4,,,63,0
122684,note_off,,,,,188,0,3,,,,,2,,,72,0
122688,note_on,,,,,4,0,2,,,,,1,,,72,63
122688,note_on,,,,,0,0,8,,,,,7,,,68,50
122688,note_on,,,,,4,0,7,,,,,6,,,51,75
122688,note_on,,,,,4,0,3,,,,,2,,,72,108
122688,note_on,,,,,4,0,6,,,,,5,,,63,92
122688,note_on,,,,,0,0,8,,,,,7,,,72,50
122688,note_on,,,,,4,0,1,,,,,0,,,72,63
122688,note_on,,,,,4,0,9,,,,,8,,,63,50
122688,note_on,,,,,4,0,5,,,,,4,,,63,92
122688,note_on,,,,,4,0,4,,,,,3,,,68,127
122688,note_on,,,,,4,0,8,,,,,7,,,63,50
122876,note_off,,,,,188,0,9,,,,,8,,,63,0
122876,note_off,,,,,188,0,2,,,,,1,,,72,0
122876,note_off,,,,,188,0,3,,,,,2,,,72,0
122876,note_off,,,,,188,0,8,,,,,7,,,68,0
122876,note_off,,,,,0,0,8,,,,,7,,,72,0
122876,note_off,,,,,188,0,4,,,,,3,,,68,0
122876,note_off,,,,,188,0,7,,,,,6,,,51,0
122876,note_off,,,,,188,0,1,,,,,0,,,72,0
122876,note_off,,,,,188,0,6,,,,,5,,,63,0
122880,note_on,,,,,4,0,4,,,,,3,,,67,127
122880,note_on,,,,,4,0,2,,,,,1,,,70,63
122880,note_on,,,,,4,0,1,,,,,0,,,70,63
122880,note_on,,,,,0,0,8,,,,,7,,,70,50
122880,note_on,,,,,4,0,8,,,,,7,,,67,50
122880,note_on,,,,,4,0,3,,,,,2,,,70,108
122880,note_on,,,,,4,0,7,,,,,6,,,46,75
122880,note_on,,,,,4,0,9,,,,,8,,,58,50
122880,note_on,,,,,4,0,6,,,,,5,,,58,92
122972,note_off,,,,,92,0,7,,,,,6,,,46,0
122972,note_off,,,,,92,0,9,,,,,8,,,58,0
122972,note_off,,,,,92,0,6,,,,,5,,,58,0
122976,note_on,,,,,4,0,6,,,,,5,,,56,92
122976,note_on,,,,,4,0,7,,,,,6,,,44,75
122976,note_on,,,,,4,0,9,,,,,8,,,56,50
123008,note_off,,,,,320,0,5,,,,,4,,,63,0
123068,note_off,,,,,188,0,4,,,,,3,,,67,0
123068,note_off,,,,,188,0,2,,,,,1,,,70,0
123068,note_off,,,,,0,0,8,,,,,7,,,70,0
123068,note_off,,,,,0,0,8,,,,,7,,,67,0
123068,note_off,,,,,92,0,6,,,,,5,,,56,0
123068,note_off,,,,,92,0,7,,,,,6,,,44,0
123068,note_off,,,,,188,0,8,,,,,7,,,63,0
123068,note_off,,,,,188,0,1,,,,,0,,,70,0
123068,note_off,,,,,188,0,3,,,,,2,,,70,0
123068,note_off,,,,,92,0,9,,,,,8,,,56,0
123072,note_on,,,,,4,0,7,,,,,6,,,43,75
123072,note_on,,,,,4,0,9,,,,,8,,,55,50
123072,note_on,,,,,4,0,6,,,,,5,,,55,92
123260,note_off,,,,,188,0,6,,,,,5,,,55,0
123260,note_off,,,,,188,0,7,,,,,6,,,43,0
123260,note_off,,,,,188,0,9,,,,,8,,,55,0
123264,note_on,,,,,4,0,9,,,,,8,,,53,50
123264,note_on,,,,,0,0,8,,,,,7,,,70,50
123264,note_on,,,,,196,0,8,,,,,7,,,63,50
123264,note_on,,,,,196,0,4,,,,,3,,,70,127
123264,note_on,,,,,256,0,5,,,,,4,,,63,92
123264,note_on,,,,,196,0,3,,,,,2,,,70,108
123264,note_on,,,,,196,0,1,,,,,0,,,70,63
123264,note_on,,,,,4,0,6,,,,,5,,,53,92
123264,note_on,,,,,196,0,2,,,,,1,,,70,63
123264,note_on,,,,,4,0,7,,,,,6,,,41,75
123356,note_off,,,,,92,0,9,,,,,8,,,53,0
123356,note_off,,,,,92,0,6,,,,,5,,,53,0
123356,note_off,,,,,92,0,7,,,,,6,,,41,0
123360,note_on,,,,,4,0,7,,,,,6,,,43,75
123360,note_on,,,,,4,0,9,,,,,8,,,55,50
123360,note_on,,,,,4,0,6,,,,,5,,,55,92
123452,note_off,,,,,0,0,8,,,,,7,,,70,0
123452,note_off,,,,,92,0,6,,,,,5,,,55,0
123452,note_off,,,,,92,0,7,,,,,6,,,43,0
123452,note_off,,,,,188,0,2,,,,,1,,,70,0
123452,note_off,,,,,188,0,4,,,,,3,,,70,0
123452,note_off,,,,,188,0,5,,,,,4,,,63,0
123452,note_off,,,,,188,0,8,,,,,7,,,63,0
123452,note_off,,,,,188,0,1,,,,,0,,,70,0
123452,note_off,,,,,92,0,9,,,,,8,,,55,0
123452,note_off,,,,,188,0,3,,,,,2,,,70,0
123456,note_on,,,,,4,0,2,,,,,1,,,79,63
123456,note_on,,,,,4,0,7,,,,,6,,,39,75
123456,note_on,,,,,4,0,1,,,,,0,,,79,63
123456,note_on,,,,,4,0,5,,,,,4,,,70,92
123456,note_on,,,,,4,0,9,,,,,8,,,51,50
123456,note_on,,,,,0,0,8,,,,,7,,,63,50
123456,note_on,,,,,4,0,3,,,,,2,,,79,108
123456,note_on,,,,,4,0,4,,,,,3,,,75,127
123456,note_on,,,,,4,0,8,,,,,7,,,58,50
123456,note_on,,,,,0,0,8,,,,,7,,,67,50
123456,note_on,,,,,4,0,6,,,,,5,,,51,92
123644,note_off,,,,,188,0,6,,,,,5,,,51,0
123644,note_off,,,,,188,0,7,,,,,6,,,39,0
123644,note_off,,,,,188,0,8,,,,,7,,,67,0
123644,note_off,,,,,188,0,9,,,,,8,,,51,0
123648,note_on,,,,,4,0,9,,,,,8,,,53,50
123648,note_on,,,,,4,0,7,,,,,6,,,41,75
123648,note_on,,,,,4,0,8,,,,,7,,,68,50
123648,note_on,,,,,4,0,6,,,,,5,,,53,92
123740,note_off,,,,,284,0,1,,,,,0,,,79,0
123740,note_off,,,,,284,0,3,,,,,2,,,79,0
123740,note_off,,,,,284,0,2,,,,,1,,,79,0
123744,note_on,,,,,4,0,1,,,,,0,,,77,63
123744,note_on,,,,,4,0,2,,,,,1,,,77,63
123744,note_on,,,,,4,0,3,,,,,2,,,77,108
123776,note_off,,,,,0,0,8,,,,,7,,,63,0
123776,note_off,,,,,128,0,8,,,,,7,,,58,0
123776,note_off,,,,,320,0,4,,,,,3,,,75,0
123776,note_off,,,,,320,0,5,,,,,4,,,70,0
123836,note_off,,,,,188,0,6,,,,,5,,,53,0
123836,note_off,,,,,188,0,9,,,,,8,,,53,0
123836,note_off,,,,,92,0,1,,,,,0,,,77,0
123836,note_off,,,,,92,0,3,,,,,2,,,77,0
123836,note_off,,,,,188,0,7,,,,,6,,,41,0
123836,note_off,,,,,60,0,8,,,,,7,,,68,0
123836,note_off,,,,,92,0,2,,,,,1,,,77,0
123840,note_on,,,,,4,0,7,,,,,6,,,43,75
123840,note_on,,,,,0,0,8,,,,,7,,,63,50
123840,note_on,,,,,0,0,8,,,,,7,,,70,50
123840,note_on,,,,,64,0,5,,,,,4,,,63,92
123840,note_on,,,,,4,0,9,,,,,8,,,55,50
123840,note_on,,,,,4,0,2,,,,,1,,,75,63
123840,note_on,,,,,4,0,1,,,,,0,,,75,63
123840,note_on,,,,,4,0,6,,,,,5,,,55,92
123840,note_on,,,,,4,0,3,,,,,2,,,75,108
123840,note_on,,,,,64,0,4,,,,,3,,,70,127
123840,note_on,,,,,4,0,8,,,,,7,,,58,50
123932,note_off,,,,,92,0,2,,,,,1,,,75,0
123932,note_off,,,,,92,0,1,,,,,0,,,75,0
123932,note_off,,,,,92,0,3,,,,,2,,,75,0
123936,note_on,,,,,4,0,2,,,,,1,,,74,63
123936,note_on,,,,,4,0,1,,,,,0,,,74,63
123936,note_on,,,,,4,0,3,,,,,2,,,74,108
124028,note_off,,,,,92,0,2,,,,,1,,,74,0
124028,note_off,,,,,92,0,3,,,,,2,,,74,0
124028,note_off,,,,,188,0,9,,,,,8,,,55,0
124028,note_off,,,,,188,0,8,,,,,7,,,70,0
124028,note_off,,,,,188,0,4,,,,,3,,,70,0
124028,note_off,,,,,188,0,6,,,,,5,,,55,0
124028,note_off,,,,,92,0,1,,,,,0,,,74,0
124028,note_off,,,,,188,0,7,,,,,6,,,43,0
124032,note_on,,,,,4,0,4,,,,,3,,,67,127
124032,note_on,,,,,4,0,3,,,,,2,,,72,108
124032,note_on,,,,,4,0,1,,,,,0,,,72,63
124032,note_on,,,,,4,0,9,,,,,8,,,51,50
124032,note_on,,,,,4,0,8,,,,,7,,,67,50
124032,note_on,,,,,4,0,7,,,,,6,,,39,75
124032,note_on,,,,,4,0,6,,,,,5,,,51,92
124032,note_on,,,,,4,0,2,,,,,1,,,72,63
124124,note_off,,,,,92,0,1,,,,,0,,,72,0
124124,note_off,,,,,92,0,3,,,,,2,,,72,0
124124,note_off,,,,,92,0,2,,,,,1,,,72,0
124128,note_on,,,,,4,0,3,,,,,2,,,70,108
124128,note_on,,,,,4,0,1,,,,,0,,,70,63
124128,note_on,,,,,4,0,2,,,,,1,,,70,63
124160,note_off,,,,,128,0,8,,,,,7,,,58,0
124160,note_off,,,,,0,0,8,,,,,7,,,63,0
124160,note_off,,,,,320,0,5,,,,,4,,,63,0
124220,note_off,,,,,92,0,3,,,,,2,,,70,0
124220,note_off,,,,,92,0,2,,,,,1,,,70,0
124220,note_off,,,,,188,0,4,,,,,3,,,67,0
124220,note_off,,,,,188,0,6,,,,,5,,,51,0
124220,note_off,,,,,92,0,1,,,,,0,,,70,0
124220,note_off,,,,,188,0,7,,,,,6,,,39,0
124220,note_off,,,,,188,0,9,,,,,8,,,51,0
124220,note_off,,,,,60,0,8,,,,,7,,,67,0
124224,note_on,,,,,4,0,4,,,,,3,,,65,127
124224,note_on,,,,,64,0,5,,,,,4,,,60,92
124224,note_on,,,,,4,0,3,,,,,2,,,68,108
124224,note_on,,,,,4,0,6,,,,,5,,,53,92
124224,note_on,,,,,4,0,2,,,,,1,,,68,63
124224,note_on,,,,,0,0,8,,,,,7,,,65,50
124224,note_on,,,,,4,0,7,,,,,6,,,41,75
124224,note_on,,,,,4,0,8,,,,,7,,,56,50
124224,note_on,,,,,4,0,1,,,,,0,,,68,63
124224,note_on,,,,,0,0,8,,,,,7,,,60,50
124224,note_on,,,,,4,0,9,,,,,8,,,53,50
124412,note_off,,,,,188,0,9,,,,,8,,,53,0
124412,note_off,,,,,188,0,6,,,,,5,,,53,0
124412,note_off,,,,,188,0,8,,,,,7,,,56,0
124412,note_off,,,,,188,0,7,,,,,6,,,41,0
124416,note_on,,,,,4,0,6,,,,,5,,,55,92
124416,note_on,,,,,4,0,9,,,,,8,,,55,50
124416,note_on,,,,,4,0,8,,,,,7,,,58,50
124416,note_on,,,,,4,0,7,,,,,6,,,43,75
124508,note_off,,,,,284,0,2,,,,,1,,,68,0
124508,note_off,,,,,284,0,3,,,,,2,,,68,0
124508,note_off,,,,,284,0,1,,,,,0,,,68,0
124512,note_on,,,,,4,0,3,,,,,2,,,67,108
124512,note_on,,,,,4,0,1,,,,,0,,,67,63
124512,note_on,,,,,4,0,2,,,,,1,,,67,63
124544,note_off,,,,,320,0,4,,,,,3,,,65,0
124544,note_off,,,,,320,0,5,,,,,4,,,60,0
124544,note_off,,,,,128,0,8,,,,,7,,,60,0
124544,note_off,,,,,0,0,8,,,,,7,,,65,0
124604,note_off,,,,,188,0,9,,,,,8,,,55,0
124604,note_off,,,,,60,0,8,,,,,7,,,58,0
124604,note_off,,,,,92,0,1,,,,,0,,,67,0
124604,note_off,,,,,92,0,3,,,,,2,,,67,0
124604,note_off,,,,,188,0,6,,,,,5,,,55,0
124604,note_off,,,,,188,0,7,,,,,6,,,43,0
124604,note_off,,,,,92,0,2,,,,,1,,,67,0
124608,note_on,,,,,4,0,9,,,,,8,,,56,50
124608,note_on,,,,,4,0,8,,,,,7,,,60,50
124608,note_on,,,,,0,0,8,,,,,7,,,65,50
124608,note_on,,,,,64,0,5,,,,,4,,,56,92
124608,note_on,,,,,64,0,4,,,,,3,,,60,127
124608,note_on,,,,,4,0,3,,,,,2,,,65,108
124608,note_on,,,,,4,0,6,,,,,5,,,56,92
124608,note_on,,,,,4,0,2,,,,,1,,,65,63
124608,note_on,,,,,4,0,1,,,,,0,,,65,63
124608,note_on,,,,,4,0,7,,,,,6,,,44,75
124700,note_off,,,,,92,0,2,,,,,1,,,65,0
124700,note_off,,,,,92,0,1,,,,,0,,,65,0
124700,note_off,,,,,92,0,3,,,,,2,,,65,0
124704,note_on,,,,,4,0,3,,,,,2,,,63,108
124704,note_on,,,,,4,0,2,,,,,1,,,63,63
124704,note_on,,,,,4,0,1,,,,,0,,,63,63
124796,note_off,,,,,188,0,7,,,,,6,,,44,0
124796,note_off,,,,,92,0,2,,,,,1,,,63,0
124796,note_off,,,,,92,0,1,,,,,0,,,63,0
124796,note_off,,,,,188,0,9,,,,,8,,,56,0
124796,note_off,,,,,92,0,3,,,,,2,,,63,0
124796,note_off,,,,,188,0,4,,,,,3,,,60,0
124796,note_off,,,,,188,0,6,,,,,5,,,56,0
124796,note_off,,,,,188,0,8,,,,,7,,,60,0
124800,note_on,,,,,4,0,4,,,,,3,,,56,127
124800,note_on,,,,,4,0,9,,,,,8,,,53,50
124800,note_on,,,,,4,0,8,,,,,7,,,62,50
124800,note_on,,,,,4,0,3,,,,,2,,,62,108
124800,note_on,,,,,4,0,6,,,,,5,,,53,92
124800,note_on,,,,,4,0,7,,,,,6,,,41,75
124800,note_on,,,,,4,0,2,,,,,1,,,62,63
124800,note_on,,,,,4,0,1,,,,,0,,,62,63
124892,note_off,,,,,92,0,3,,,,,2,,,62,0
124892,note_off,,,,,92,0,2,,,,,1,,,62,0
124892,note_off,,,,,92,0,1,,,,,0,,,62,0
124896,note_on,,,,,4,0,3,,,,,2,,,60,108
124896,note_on,,,,,4,0,1,,,,,0,,,60,63
124896,note_on,,,,,4,0,2,,,,,1,,,60,63
124928,note_off,,,,,320,0,5,,,,,4,,,56,0
124928,note_off,,,,,128,0,8,,,,,7,,,65,0
124988,note_off,,,,,92,0,1,,,,,0,,,60,0
124988,note_off,,,,,92,0,3,,,,,2,,,60,0
124988,note_off,,,,,188,0,7,,,,,6,,,41,0
124988,note_off,,,,,188,0,4,,,,,3,,,56,0
124988,note_off,,,,,188,0,9,,,,,8,,,53,0
124988,note_off,,,,,188,0,6,,,,,5,,,53,0
124988,note_off,,,,,60,0,8,,,,,7,,,62,0
124988,note_off,,,,,92,0,2,,,,,1,,,60,0
124992,note_on,,,,,4,0,1,,,,,0,,,58,63
124992,note_on,,,,,4,0,4,,,,,3,,,58,127
124992,note_on,,,,,4,0,7,,,,,6,,,43,75
124992,note_on,,,,,64,0,5,,,,,4,,,55,92
124992,note_on,,,,,4,0,6,,,,,5,,,55,92
124992,note_on,,,,,4,0,2,,,,,1,,,58,63
124992,note_on,,,,,4,0,3,,,,,2,,,58,108
124992,note_on,,,,,4,0,9,,,,,8,,,55,50
124992,note_on,,,,,4,0,8,,,,,7,,,58,50
125180,note_off,,,,,188,0,4,,,,,3,,,58,0
125180,note_off,,,,,188,0,3,,,,,2,,,58,0
125180,note_off,,,,,188,0,1,,,,,0,,,58,0
125180,note_off,,,,,188,0,9,,,,,8,,,55,0
125180,note_off,,,,,188,0,2,,,,,1,,,58,0
125180,note_off,,,,,188,0,5,,,,,4,,,55,0
125180,note_off,,,,,188,0,6,,,,,5,,,55,0
125180,note_off,,,,,188,0,7,,,,,6,,,43,0
125184,note_on,,,,,4,0,4,,,,,3,,,63,127
125184,note_on,,,,,4,0,1,,,,,0,,,67,63
125184,note_on,,,,,4,0,9,,,,,8,,,51,50
125184,note_on,,,,,4,0,7,,,,,6,,,39,75
125184,note_on,,,,,4,0,2,,,,,1,,,67,63
125184,note_on,,,,,4,0,6,,,,,5,,,51,92
125184,note_on,,,,,4,0,5,,,,,4,,,58,92
125184,note_on,,,,,192,0,8,,,,,7,,,63,50
125184,note_on,,,,,4,0,3,,,,,2,,,67,108
125372,note_off,,,,,188,0,2,,,,,1,,,67,0
125372,note_off,,,,,0,0,8,,,,,7,,,63,0
125372,note_off,,,,,188,0,3,,,,,2,,,67,0
125372,note_off,,,,,188,0,8,,,,,7,,,58,0
125372,note_off,,,,,188,0,7,,,,,6,,,39,0
125372,note_off,,,,,188,0,5,,,,,4,,,58,0
125372,note_off,,,,,188,0,6,,,,,5,,,51,0
125372,note_off,,,,,188,0,1,,,,,0,,,67,0
125372,note_off,,,,,188,0,9,,,,,8,,,51,0
125376,note_on,,,,,4,0,9,,,,,8,,,55,50
125376,note_on,,,,,4,0,8,,,,,7,,,58,50
125376,note_on,,,,,4,0,5,,,,,4,,,58,92
125376,note_on,,,,,4,0,6,,,,,5,,,55,92
125376,note_on,,,,,4,0,2,,,,,1,,,70,63
125376,note_on,,,,,4,0,3,,,,,2,,,70,108
125376,note_on,,,,,0,0,8,,,,,7,,,63,50
125376,note_on,,,,,4,0,1,,,,,0,,,70,63
125376,note_on,,,,,4,0,7,,,,,6,,,43,75
125504,note_off,,,,,320,0,4,,,,,3,,,63,0
125564,note_off,,,,,188,0,6,,,,,5,,,55,0
125564,note_off,,,,,188,0,2,,,,,1,,,70,0
125564,note_off,,,,,188,0,7,,,,,6,,,43,0
125564,note_off,,,,,188,0,8,,,,,7,,,58,0
125564,note_off,,,,,188,0,9,,,,,8,,,55,0
125564,note_off,,,,,188,0,3,,,,,2,,,70,0
125564,note_off,,,,,188,0,5,,,,,4,,,58,0
125564,note_off,,,,,188,0,1,,,,,0,,,70,0
125568,note_on,,,,,4,0,8,,,,,7,,,60,50
125568,note_on,,,,,4,0,9,,,,,8,,,56,50
125568,note_on,,,,,4,0,5,,,,,4,,,60,92
125568,note_on,,,,,64,0,4,,,,,3,,,65,127
125568,note_on,,,,,4,0,3,,,,,2,,,68,108
125568,note_on,,,,,4,0,7,,,,,6,,,44,75
125568,note_on,,,,,4,0,2,,,,,1,,,68,63
125568,note_on,,,,,4,0,6,,,,,5,,,56,92
125568,note_on,,,,,4,0,1,,,,,0,,,68,63
125660,note_off,,,,,92,0,1,,,,,0,,,68,0
125660,note_off,,,,,92,0,3,,,,,2,,,68,0
125660,note_off,,,,,92,0,2,,,,,1,,,68,0
125660,note_off,,,,,92,0,4,,,,,3,,,65,0
125664,note_on,,,,,4,0,3,,,,,2,,,67,108
125664,note_on,,,,,4,0,2,,,,,1,,,67,63
125664,note_on,,,,,4,0,1,,,,,0,,,67,63
125664,note_on,,,,,4,0,4,,,,,3,,,63,127
125756,note_off,,,,,188,0,6,,,,,5,,,56,0
125756,note_off,,,,,92,0,3,,,,,2,,,67,0
125756,note_off,,,,,188,0,9,,,,,8,,,56,0
125756,note_off,,,,,92,0,4,,,,,3,,,63,0
125756,note_off,,,,,92,0,2,,,,,1,,,67,0
125756,note_off,,,,,188,0,8,,,,,7,,,63,0
125756,note_off,,,,,0,0,8,,,,,7,,,60,0
125756,note_off,,,,,188,0,5,,,,,4,,,60,0
125756,note_off,,,,,188,0,7,,,,,6,,,44,0
125756,note_off,,,,,92,0,1,,,,,0,,,67,0
125760,note_on,,,,,4,0,2,,,,,1,,,67,63
125760,note_on,,,,,4,0,5,,,,,4,,,58,92
125760,note_on,,,,,4,0,4,,,,,3,,,63,127
125760,note_on,,,,,4,0,3,,,,,2,,,67,108
125760,note_on,,,,,0,0,8,,,,,7,,,63,50
125760,note_on,,,,,4,0,8,,,,,7,,,58,50
125760,note_on,,,,,4,0,1,,,,,0,,,67,63
125760,note_on,,,,,4,0,9,,,,,8,,,58,50
125760,note_on,,,,,4,0,7,,,,,6,,,46,75
125760,note_on,,,,,4,0,6,,,,,5,,,58,92
125948,note_off,,,,,188,0,7,,,,,6,,,46,0
125948,note_off,,,,,188,0,6,,,,,5,,,58,0
125948,note_off,,,,,188,0,5,,,,,4,,,58,0
125948,note_off,,,,,188,0,3,,,,,2,,,67,0
125948,note_off,,,,,188,0,9,,,,,8,,,58,0
125948,note_off,,,,,188,0,8,,,,,7,,,63,0
125948,note_off,,,,,188,0,2,,,,,1,,,67,0
125948,note_off,,,,,188,0,4,,,,,3,,,63,0
125948,note_off,,,,,188,0,1,,,,,0,,,67,0
125952,note_on,,,,,4,0,5,,,,,4,,,58,92
125952,note_on,,,,,4,0,4,,,,,3,,,62,127
125952,note_on,,,,,4,0,2,,,,,1,,,65,63
125952,note_on,,,,,4,0,9,,,,,8,,,46,50
125952,note_on,,,,,4,0,8,,,,,7,,,62,50
125952,note_on,,,,,4,0,7,,,,,6,,,34,75
125952,note_on,,,,,4,0,6,,,,,5,,,46,92
125952,note_on,,,,,4,0,1,,,,,0,,,65,63
125952,note_on,,,,,4,0,3,,,,,2,,,65,108
126140,note_off,,,,,188,0,8,,,,,7,,,58,0
126140,note_off,,,,,188,0,4,,,,,3,,,62,0
126140,note_off,,,,,188,0,5,,,,,4,,,58,0
126140,note_off,,,,,188,0,6,,,,,5,,,46,0
126140,note_off,,,,,188,0,9,,,,,8,,,46,0
126140,note_off,,,,,0,0,8,,,,,7,,,62,0
126140,note_off,,,,,188,0,1,,,,,0,,,65,0
126140,note_off,,,,,188,0,3,,,,,2,,,65,0
126140,note_off,,,,,188,0,2,,,,,1,,,65,0
126140,note_off,,,,,188,0,7,,,,,6,,,34,0
126144,note_on,,,,,4,0,8,,,,,7,,,65,37
126144,note_on,,,,,4,0,9,,,,,8,,,50,50
126144,note_on,,,,,4,0,6,,,,,5,,,50,92
126144,note_on,,,,,0,0,8,,,,,7,,,68,37
126144,note_on,,,,,0,0,8,,,,,7,,,74,37
126144,note_on,,,,,4,0,7,,,,,6,,,38,75
126144,note_on,,,,,4,0,5,,,,,4,,,65,92
126332,note_off,,,,,188,0,7,,,,,6,,,38,0
126332,note_off,,,,,188,0,5,,,,,4,,,65,0
126332,note_off,,,,,188,0,9,,,,,8,,,50,0
126332,note_off,,,,,188,0,6,,,,,5,,,50,0
126336,note_on,,,,,196,0,2,,,,,1,,,77,50
126336,note_on,,,,,4,0,7,,,,,6,,,36,60
126336,note_on,,,,,196,0,3,,,,,2,,,77,75
126336,note_on,,,,,196,0,1,,,,,0,,,77,50
126336,note_on,,,,,4,0,6,,,,,5,,,48,60
126336,note_on,,,,,4,0,5,,,,,4,,,68,60
126336,note_on,,,,,4,0,9,,,,,8,,,48,37
126336,note_on,,,,,196,0,4,,,,,3,,,74,75
126464,note_off,,,,,320,0,8,,,,,7,,,65,0
126464,note_off,,,,,0,0,8,,,,,7,,,68,0
126464,note_off,,,,,0,0,8,,,,,7,,,74,0
126524,note_off,,,,,188,0,2,,,,,1,,,77,0
126524,note_off,,,,,188,0,5,,,,,4,,,68,0
126524,note_off,,,,,188,0,3,,,,,2,,,77,0
126524,note_off,,,,,188,0,1,,,,,0,,,77,0
126524,note_off,,,,,188,0,6,,,,,5,,,48,0
126524,note_off,,,,,188,0,7,,,,,6,,,36,0
126524,note_off,,,,,188,0,4,,,,,3,,,74,0
126524,note_off,,,,,188,0,9,,,,,8,,,48,0
126528,note_on,,,,,4,0,1,,,,,0,,,77,50
126528,note_on,,,,,0,0,8,,,,,7,,,74,37
126528,note_on,,,,,0,0,8,,,,,7,,,67,37
126528,note_on,,,,,64,0,8,,,,,7,,,65,37
126528,note_on,,,,,4,0,3,,,,,2,,,77,75
126528,note_on,,,,,4,0,9,,,,,8,,,47,37
126528,note_on,,,,,4,0,2,,,,,1,,,77,50
126528,note_on,,,,,4,0,4,,,,,3,,,74,75
126528,note_on,,,,,4,0,5,,,,,4,,,67,60
126528,note_on,,,,,4,0,7,,,,,6,,,35,60
126528,note_on,,,,,4,0,6,,,,,5,,,47,60
126716,note_off,,,,,188,0,4,,,,,3,,,74,0
126716,note_off,,,,,188,0,3,,,,,2,,,77,0
126716,note_off,,,,,188,0,2,,,,,1,,,77,0
126716,note_off,,,,,188,0,1,,,,,0,,,77,0
126720,note_on,,,,,4,0,2,,,,,1,,,79,50
126720,note_on,,,,,4,0,4,,,,,3,,,75,75
126720,note_on,,,,,4,0,3,,,,,2,,,79,75
126720,note_on,,,,,4,0,1,,,,,0,,,79,50
126848,note_off,,,,,320,0,7,,,,,6,,,35,0
126848,note_off,,,,,0,0,8,,,,,7,,,74,0
126848,note_off,,,,,0,0,8,,,,,7,,,67,0
126848,note_off,,,,,320,0,8,,,,,7,,,65,0
126848,note_off,,,,,320,0,9,,,,,8,,,47,0
126848,note_off,,,,,320,0,5,,,,,4,,,67,0
126848,note_off,,,,,320,0,6,,,,,5,,,47,0
126908,note_off,,,,,188,0,3,,,,,2,,,79,0
126908,note_off,,,,,188,0,1,,,,,0,,,79,0
126908,note_off,,,,,188,0,2,,,,,1,,,79,0
126908,note_off,,,,,188,0,4,,,,,3,,,75,0
126912,note_on,,,,,4,0,1,,,,,0,,,75,50
126912,note_on,,,,,4,0,4,,,,,3,,,72,75
126912,note_on,,,,,4,0,3,,,,,2,,,75,75
126912,note_on,,,,,4,0,2,,,,,1,,,75,50
127100,note_off,,,,,188,0,1,,,,,0,,,75,0
127100,note_off,,,,,188,0,4,,,,,3,,,72,0
127100,note_off,,,,,188,0,3,,,,,2,,,75,0
127100,note_off,,,,,188,0,2,,,,,1,,,75,0
127104,note_on,,,,,4,0,1,,,,,0,,,74,50
127104,note_on,,,,,4,0,3,,,,,2,,,74,75
127104,note_on,,,,,0,0,8,,,,,7,,,71,37
127104,note_on,,,,,0,0,8,,,,,7,,,67,37
127104,note_on,,,,,256,0,6,,,,,5,,,55,60
127104,note_on,,,,,256,0,8,,,,,7,,,62,37
127104,note_on,,,,,4,0,2,,,,,1,,,74,50
127104,note_on,,,,,256,0,9,,,,,8,,,55,37
127104,note_on,,,,,4,0,4,,,,,3,,,71,75
127104,note_on,,,,,256,0,7,,,,,6,,,43,60
127104,note_on,,,,,256,0,5,,,,,4,,,67,60
127292,note_off,,,,,188,0,6,,,,,5,,,55,0
127292,note_off,,,,,188,0,3,,,,,2,,,74,0
127292,note_off,,,,,0,0,8,,,,,7,,,71,0
127292,note_off,,,,,0,0,8,,,,,7,,,67,0
127292,note_off,,,,,188,0,2,,,,,1,,,74,0
127292,note_off,,,,,188,0,8,,,,,7,,,62,0
127292,note_off,,,,,188,0,9,,,,,8,,,55,0
127292,note_off,,,,,188,0,7,,,,,6,,,43,0
127292,note_off,,,,,188,0,1,,,,,0,,,74,0
127292,note_off,,,,,188,0,4,,,,,3,,,71,0
127292,note_off,,,,,188,0,5,,,,,4,,,67,0
127296,note_on,,,,,0,0,8,,,,,7,,,72,37
127296,note_on,,,,,4,0,1,,,,,0,,,75,50
127296,note_on,,,,,4,0,5,,,,,4,,,67,60
127296,note_on,,,,,4,0,8,,,,,7,,,63,37
127296,note_on,,,,,4,0,7,,,,,6,,,48,60
127296,note_on,,,,,4,0,4,,,,,3,,,72,75
127296,note_on,,,,,4,0,6,,,,,5,,,60,60
127296,note_on,,,,,4,0,3,,,,,2,,,75,75
127296,note_on,,,,,4,0,2,,,,,1,,,75,50
127296,note_on,,,,,4,0,9,,,,,8,,,60,37
127296,note_on,,,,,0,0,8,,,,,7,,,67,37
127388,note_off,,,,,92,0,4,,,,,3,,,72,0
127388,note_off,,,,,92,0,3,,,,,2,,,75,0
127388,note_off,,,,,92,0,1,,,,,0,,,75,0
127388,note_off,,,,,92,0,2,,,,,1,,,75,0
127392,note_on,,,,,4,0,1,,,,,0,,,74,50
127392,note_on,,,,,4,0,2,,,,,1,,,74,50
127392,note_on,,,,,4,0,3,,,,,2,,,74,75
127392,note_on,,,,,4,0,4,,,,,3,,,71,75
127484,note_off,,,,,188,0,6,,,,,5,,,60,0
127484,note_off,,,,,92,0,4,,,,,3,,,71,0
127484,note_off,,,,,92,0,3,,,,,2,,,74,0
127484,note_off,,,,,92,0,2,,,,,1,,,74,0
127484,note_off,,,,,188,0,9,,,,,8,,,60,0
127484,note_off,,,,,188,0,7,,,,,6,,,48,0
127484,note_off,,,,,92,0,1,,,,,0,,,74,0
127488,note_on,,,,,4,0,9,,,,,8,,,48,37
127488,note_on,,,,,4,0,2,,,,,1,,,75,50
127488,note_on,,,,,4,0,3,,,,,2,,,75,75
127488,note_on,,,,,4,0,7,,,,,6,,,36,60
127488,note_on,,,,,4,0,1,,,,,0,,,75,50
127488,note_on,,,,,4,0,6,,,,,5,,,48,60
127488,note_on,,,,,4,0,4,,,,,3,,,72,75
127616,note_off,,,,,0,0,8,,,,,7,,,72,0
127616,note_off,,,,,0,0,8,,,,,7,,,67,0
127616,note_off,,,,,320,0,8,,,,,7,,,63,0
127616,note_off,,,,,320,0,5,,,,,4,,,67,0
127676,note_off,,,,,188,0,9,,,,,8,,,48,0
127676,note_off,,,,,188,0,6,,,,,5,,,48,0
127676,note_off,,,,,188,0,7,,,,,6,,,36,0
127680,note_on,,,,,0,0,8,,,,,7,,,67,37
127680,note_on,,,,,64,0,8,,,,,7,,,60,37
127680,note_on,,,,,4,0,6,,,,,5,,,51,60
127680,note_on,,,,,64,0,5,,,,,4,,,60,60
127680,note_on,,,,,4,0,7,,,,,6,,,39,60
127680,note_on,,,,,4,0,9,,,,,8,,,51,37
127808,note_off,,,,,320,0,4,,,,,3,,,72,0
127808,note_off,,,,,320,0,3,,,,,2,,,75,0
127808,note_off,,,,,320,0,1,,,,,0,,,75,0
127808,note_off,,,,,320,0,2,,,,,1,,,75,0
127868,note_off,,,,,188,0,9,,,,,8,,,51,0
127868,note_off,,,,,188,0,8,,,,,7,,,60,0
127868,note_off,,,,,188,0,6,,,,,5,,,51,0
127868,note_off,,,,,188,0,5,,,,,4,,,60,0
127868,note_off,,,,,188,0,7,,,,,6,,,39,0
127872,note_on,,,,,64,0,1,,,,,0,,,75,50
127872,note_on,,,,,4,0,6,,,,,5,,,48,60
127872,note_on,,,,,4,0,5,,,,,4,,,67,60
127872,note_on,,,,,64,0,3,,,,,2,,,75,75
127872,note_on,,,,,64,0,4,,,,,3,,,72,75
127872,note_on,,,,,4,0,7,,,,,6,,,36,60
127872,note_on,,,,,4,0,8,,,,,7,,,63,37
127872,note_on,,,,,0,0,8,,,,,7,,,72,37
127872,note_on,,,,,4,0,9,,,,,8,,,48,37
127872,note_on,,,,,64,0,2,,,,,1,,,75,50
128060,note_off,,,,,188,0,5,,,,,4,,,67,0
128060,note_off,,,,,0,0,8,,,,,7,,,63,0
128060,note_off,,,,,188,0,1,,,,,0,,,75,0
128060,note_off,,,,,188,0,6,,,,,5,,,48,0
128060,note_off,,,,,188,0,8,,,,,7,,,67,0
128060,note_off,,,,,188,0,3,,,,,2,,,75,0
128060,note_off,,,,,0,0,8,,,,,7,,,72,0
128060,note_off,,,,,188,0,9,,,,,8,,,48,0
128060,note_off,,,,,188,0,4,,,,,3,,,72,0
128060,note_off,,,,,188,0,7,,,,,6,,,36,0
128060,note_off,,,,,188,0,2,,,,,1,,,75,0
128064,note_on,,,,,4,0,3,,,,,2,,,75,75
128064,note_on,,,,,4,0,4,,,,,3,,,72,75
128064,note_on,,,,,4,0,2,,,,,1,,,75,50
128064,note_on,,,,,4,0,1,,,,,0,,,75,50
128064,note_on,,,,,4,0,6,,,,,5,,,55,60
128064,note_on,,,,,4,0,5,,,,,4,,,67,60
128064,note_on,,,,,4,0,8,,,,,7,,,63,37
128064,note_on,,,,,4,0,7,,,,,6,,,43,60
128064,note_on,,,,,0,0,8,,,,,7,,,72,37
128064,note_on,,,,,0,0,8,,,,,7,,,67,37
128064,note_on,,,,,4,0,9,,,,,8,,,55,37
128252,note_off,,,,,188,0,6,,,,,5,,,55,0
128252,note_off,,,,,188,0,3,,,,,2,,,75,0
128252,note_off,,,,,0,0,8,,,,,7,,,67,0
128252,note_off,,,,,188,0,8,,,,,7,,,63,0
128252,note_off,,,,,188,0,9,,,,,8,,,55,0
128252,note_off,,,,,188,0,2,,,,,1,,,75,0
128252,note_off,,,,,188,0,5,,,,,4,,,67,0
128252,note_off,,,,,188,0,7,,,,,6,,,43,0
128252,note_off,,,,,188,0,1,,,,,0,,,75,0
128252,note_off,,,,,188,0,4,,,,,3,,,72,0
128256,note_on,,,,,4,0,2,,,,,1,,,77,50
128256,note_on,,,,,4,0,8,,,,,7,,,65,37
128256,note_on,,,,,0,0,8,,,,,7,,,68,37
128256,note_on,,,,,4,0,5,,,,,4,,,68,60
128256,note_on,,,,,4,0,1,,,,,0,,,77,50
128256,note_on,,,,,4,0,7,,,,,6,,,41,60
128256,note_on,,,,,4,0,6,,,,,5,,,53,60
128256,note_on,,,,,4,0,4,,,,,3,,,74,75
128256,note_on,,,,,4,0,9,,,,,8,,,53,37
128256,note_on,,,,,4,0,3,,,,,2,,,77,75
128444,note_off,,,,,188,0,3,,,,,2,,,77,0
128444,note_off,,,,,188,0,9,,,,,8,,,53,0
128444,note_off,,,,,188,0,2,,,,,1,,,77,0
128444,note_off,,,,,188,0,4,,,,,3,,,74,0
128444,note_off,,,,,188,0,7,,,,,6,,,41,0
128444,note_off,,,,,188,0,8,,,,,7,,,72,0
128444,note_off,,,,,0,0,8,,,,,7,,,65,0
128444,note_off,,,,,0,0,8,,,,,7,,,68,0
128444,note_off,,,,,188,0,6,,,,,5,,,53,0
128444,note_off,,,,,188,0,5,,,,,4,,,68,0
128444,note_off,,,,,188,0,1,,,,,0,,,77,0
128448,note_on,,,,,4,0,6,,,,,5,,,55,60
128448,note_on,,,,,4,0,2,,,,,1,,,74,50
128448,note_on,,,,,4,0,1,,,,,0,,,74,50
128448,note_on,,,,,4,0,9,,,,,8,,,55,37
128448,note_on,,,,,4,0,4,,,,,3,,,71,75
128448,note_on,,,,,4,0,8,,,,,7,,,62,37
128448,note_on,,,,,0,0,8,,,,,7,,,67,37
128448,note_on,,,,,0,0,8,,,,,7,,,71,37
128448,note_on,,,,,4,0,5,,,,,4,,,67,60
128448,note_on,,,,,4,0,7,,,,,6,,,43,60
128448,note_on,,,,,4,0,3,,,,,2,,,74,75
128636,note_off,,,,,188,0,1,,,,,0,,,74,0
128636,note_off,,,,,188,0,3,,,,,2,,,74,0
128636,note_off,,,,,188,0,9,,,,,8,,,55,0
128636,note_off,,,,,188,0,6,,,,,5,,,55,0
128636,note_off,,,,,0,0,8,,,,,7,,,71,0
128636,note_off,,,,,188,0,5,,,,,4,,,67,0
128636,note_off,,,,,0,0,8,,,,,7,,,67,0
128636,note_off,,,,,188,0,4,,,,,3,,,71,0
128636,note_off,,,,,188,0,2,,,,,1,,,74,0
128636,note_off,,,,,188,0,7,,,,,6,,,43,0
128636,note_off,,,,,188,0,8,,,,,7,,,62,0
128640,note_on,,,,,0,0,8,,,,,7,,,69,37
128640,note_on,,,,,4,0,4,,,,,3,,,69,75
128640,note_on,,,,,4,0,3,,,,,2,,,72,75
128640,note_on,,,,,4,0,2,,,,,1,,,72,50
128640,note_on,,,,,4,0,8,,,,,7,,,63,37
128640,note_on,,,,,4,0,7,,,,,6,,,36,60
128640,note_on,,,,,4,0,1,,,,,0,,,72,50
128640,note_on,,,,,4,0,6,,,,,5,,,48,60
128640,note_on,,,,,4,0,5,,,,,4,,,63,60
128640,note_on,,,,,4,0,9,,,,,8,,,48,37
128640,note_on,,,,,0,0,8,,,,,7,,,67,37
128828,note_off,,,,,0,0,8,,,,,7,,,67,0
128828,note_off,,,,,188,0,2,,,,,1,,,72,0
128828,note_off,,,,,188,0,1,,,,,0,,,72,0
128828,note_off,,,,,188,0,8,,,,,7,,,63,0
128828,note_off,,,,,0,0,8,,,,,7,,,69,0
128828,note_off,,,,,188,0,5,,,,,4,,,63,0
128828,note_off,,,,,188,0,6,,,,,5,,,48,0
128828,note_off,,,,,188,0,9,,,,,8,,,48,0
128828,note_off,,,,,188,0,4,,,,,3,,,69,0
128828,note_off,,,,,188,0,7,,,,,6,,,36,0
128828,note_off,,,,,188,0,3,,,,,2,,,72,0
128832,note_on,,,,,4,0,3,,,,,2,,,74,75
128832,note_on,,,,,4,0,4,,,,,3,,,71,75
128832,note_on,,,,,4,0,7,,,,,6,,,31,60
128832,note_on,,,,,4,0,6,,,,,5,,,43,60
128832,note_on,,,,,4,0,9,,,,,8,,,43,37
128832,note_on,,,,,4,0,8,,,,,7,,,62,37
128832,note_on,,,,,0,0,8,,,,,7,,,67,37
128832,note_on,,,,,0,0,8,,,,,7,,,71,37
128832,note_on,,,,,4,0,5,,,,,4,,,67,60
128832,note_on,,,,,4,0,1,,,,,0,,,74,50
128832,note_on,,,,,4,0,2,,,,,1,,,74,50
128924,note_off,,,,,92,0,1,,,,,0,,,74,0
128924,note_off,,,,,92,0,2,,,,,1,,,74,0
128924,note_off,,,,,92,0,3,,,,,2,,,74,0
128924,note_off,,,,,92,0,4,,,,,3,,,71,0
128928,note_on,,,,,4,0,1,,,,,0,,,72,50
128928,note_on,,,,,4,0,4,,,,,3,,,69,75
128928,note_on,,,,,4,0,3,,,,,2,,,72,75
128928,note_on,,,,,4,0,2,,,,,1,,,72,50
129020,note_off,,,,,92,0,2,,,,,1,,,72,0
129020,note_off,,,,,92,0,4,,,,,3,,,69,0
129020,note_off,,,,,92,0,3,,,,,2,,,72,0
129020,note_off,,,,,92,0,1,,,,,0,,,72,0
129024,note_on,,,,,4,0,1,,,,,0,,,74,50
129024,note_on,,,,,4,0,2,,,,,1,,,74,50
129024,note_on,,,,,4,0,4,,,,,3,,,71,75
129024,note_on,,,,,4,0,3,,,,,2,,,74,75
129152,note_off,,,,,320,0,7,,,,,6,,,31,0
129152,note_off,,,,,320,0,5,,,,,4,,,67,0
129152,note_off,,,,,0,0,8,,,,,7,,,71,0
129152,note_off,,,,,0,0,8,,,,,7,,,67,0
129152,note_off,,,,,320,0,8,,,,,7,,,62,0
129152,note_off,,,,,320,0,9,,,,,8,,,43,0
129152,note_off,,,,,320,0,6,,,,,5,,,43,0
129212,note_off,,,,,188,0,1,,,,,0,,,74,0
129212,note_off,,,,,188,0,4,,,,,3,,,71,0
129212,note_off,,,,,188,0,3,,,,,2,,,74,0
129212,note_off,,,,,188,0,2,,,,,1,,,74,0
129408,note_on,,,,,196,0,2,,,,,1,,,79,63
129408,note_on,,,,,196,0,1,,,,,0,,,79,63
129408,note_on,,,,,196,0,3,,,,,2,,,79,108
129596,note_off,,,,,188,0,2,,,,,1,,,79,0
129596,note_off,,,,,188,0,3,,,,,2,,,79,0
129596,note_off,,,,,188,0,1,,,,,0,,,79,0
129600,note_on,,,,,4,0,2,,,,,1,,,84,63
129600,note_on,,,,,4,0,1,,,,,0,,,84,63
129600,note_on,,,,,4,0,3,,,,,2,,,84,108
129788,note_off,,,,,188,0,3,,,,,2,,,84,0
129788,note_off,,,,,188,0,2,,,,,1,,,84,0
129788,note_off,,,,,188,0,1,,,,,0,,,84,0
129792,note_on,,,,,4,0,1,,,,,0,,,79,63
129792,note_on,,,,,4,0,3,,,,,2,,,79,108
129792,note_on,,,,,4,0,2,,,,,1,,,79,63
129884,note_off,,,,,92,0,3,,,,,2,,,79,0
129884,note_off,,,,,92,0,2,,,,,1,,,79,0
129884,note_off,,,,,92,0,1,,,,,0,,,79,0
129888,note_on,,,,,4,0,3,,,,,2,,,77,108
129888,note_on,,,,,4,0,1,,,,,0,,,77,63
129888,note_on,,,,,4,0,2,,,,,1,,,77,63
129980,note_off,,,,,92,0,2,,,,,1,,,77,0
129980,note_off,,,,,92,0,3,,,,,2,,,77,0
129980,note_off,,,,,92,0,1,,,,,0,,,77,0
129984,note_on,,,,,4,0,1,,,,,0,,,75,63
129984,note_on,,,,,4,0,3,,,,,2,,,75,108
129984,note_on,,,,,4,0,2,,,,,1,,,75,63
130172,note_off,,,,,188,0,3,,,,,2,,,75,0
130172,note_off,,,,,188,0,1,,,,,0,,,75,0
130172,note_off,,,,,188,0,2,,,,,1,,,75,0
130176,note_on,,,,,1024,0,6,,,,,5,,,55,92
130176,note_on,,,,,4,0,1,,,,,0,,,74,63
130176,note_on,,,,,1024,0,5,,,,,4,,,62,92
130176,note_on,,,,,1024,0,7,,,,,6,,,43,75
130176,note_on,,,,,4,0,2,,,,,1,,,74,63
130176,note_on,,,,,1024,0,9,,,,,8,,,55,50
130176,note_on,,,,,964,0,4,,,,,3,,,71,127
130176,note_on,,,,,4,0,3,,,,,2,,,74,108
130176,note_on,,,,,0,0,8,,,,,7,,,71,50
130176,note_on,,,,,0,0,8,,,,,7,,,67,50
130176,note_on,,,,,1024,0,8,,,,,7,,,62,50
130268,note_off,,,,,92,0,2,,,,,1,,,74,0
130268,note_off,,,,,92,0,1,,,,,0,,,74,0
130268,note_off,,,,,92,0,3,,,,,2,,,74,0
130272,note_on,,,,,4,0,2,,,,,1,,,75,63
130272,note_on,,,,,4,0,3,,,,,2,,,75,108
130272,note_on,,,,,4,0,1,,,,,0,,,75,63
130364,note_off,,,,,0,0,8,,,,,7,,,67,0
130364,note_off,,,,,92,0,3,,,,,2,,,75,0
130364,note_off,,,,,188,0,5,,,,,4,,,62,0
130364,note_off,,,,,188,0,7,,,,,6,,,43,0
130364,note_off,,,,,188,0,4,,,,,3,,,71,0
130364,note_off,,,,,92,0,2,,,,,1,,,75,0
130364,note_off,,,,,92,0,1,,,,,0,,,75,0
130364,note_off,,,,,188,0,8,,,,,7,,,62,0
130364,note_off,,,,,188,0,6,,,,,5,,,55,0
130364,note_off,,,,,0,0,8,,,,,7,,,71,0
130364,note_off,,,,,188,0,9,,,,,8,,,55,0
130368,note_on,,,,,4,0,9,,,,,8,,,60,50
130368,note_on,,,,,4,0,4,,,,,3,,,67,127
130368,note_on,,,,,0,0,8,,,,,7,,,67,50
130368,note_on,,,,,4,0,8,,,,,7,,,63,50
130368,note_on,,,,,4,0,1,,,,,0,,,72,63
130368,note_on,,,,,4,0,2,,,,,1,,,72,63
130368,note_on,,,,,4,0,5,,,,,4,,,63,92
130368,note_on,,,,,4,0,7,,,,,6,,,48,75
130368,note_on,,,,,4,0,3,,,,,2,,,72,108
130368,note_on,,,,,0,0,8,,,,,7,,,72,50
130368,note_on,,,,,4,0,6,,,,,5,,,60,92
130556,note_off,,,,,188,0,4,,,,,3,,,67,0
130556,note_off,,,,,188,0,9,,,,,8,,,60,0
130556,note_off,,,,,188,0,7,,,,,6,,,48,0
130556,note_off,,,,,188,0,6,,,,,5,,,60,0
130560,note_on,,,,,4,0,4,,,,,3,,,63,127
130560,note_on,,,,,4,0,6,,,,,5,,,55,92
130560,note_on,,,,,4,0,9,,,,,8,,,55,50
130560,note_on,,,,,4,0,7,,,,,6,,,43,75
130652,note_off,,,,,92,0,9,,,,,8,,,55,0
130652,note_off,,,,,92,0,7,,,,,6,,,43,0
130652,note_off,,,,,92,0,6,,,,,5,,,55,0
130652,note_off,,,,,92,0,4,,,,,3,,,63,0
130656,note_on,,,,,4,0,9,,,,,8,,,53,50
130656,note_on,,,,,4,0,7,,,,,6,,,41,75
130656,note_on,,,,,4,0,4,,,,,3,,,62,127
130656,note_on,,,,,4,0,6,,,,,5,,,53,92
130688,note_off,,,,,320,0,5,,,,,4,,,63,0
130688,note_off,,,,,320,0,2,,,,,1,,,72,0
130688,note_off,,,,,320,0,8,,,,,7,,,63,0
130688,note_off,,,,,0,0,8,,,,,7,,,67,0
130688,note_off,,,,,0,0,8,,,,,7,,,72,0
130688,note_off,,,,,320,0,1,,,,,0,,,72,0
130688,note_off,,,,,320,0,3,,,,,2,,,72,0
130748,note_off,,,,,92,0,4,,,,,3,,,62,0
130748,note_off,,,,,92,0,6,,,,,5,,,53,0
130748,note_off,,,,,92,0,7,,,,,6,,,41,0
130748,note_off,,,,,92,0,9,,,,,8,,,53,0
130752,note_on,,,,,0,0,8,,,,,7,,,67,50
130752,note_on,,,,,64,0,8,,,,,7,,,59,50
130752,note_on,,,,,4,0,4,,,,,3,,,60,127
130752,note_on,,,,,0,0,8,,,,,7,,,72,50
130752,note_on,,,,,4,0,7,,,,,6,,,39,75
130752,note_on,,,,,4,0,6,,,,,5,,,51,92
130752,note_on,,,,,4,0,9,,,,,8,,,51,50
130940,note_off,,,,,188,0,8,,,,,7,,,59,0
130940,note_off,,,,,0,0,8,,,,,7,,,72,0
130940,note_off,,,,,188,0,4,,,,,3,,,60,0
130940,note_off,,,,,188,0,9,,,,,8,,,51,0
130940,note_off,,,,,188,0,7,,,,,6,,,39,0
130940,note_off,,,,,0,0,8,,,,,7,,,67,0
130940,note_off,,,,,188,0,6,,,,,5,,,51,0
130944,note_on,,,,,4,0,9,,,,,8,,,50,50
130944,note_on,,,,,4,0,7,,,,,6,,,38,75
130944,note_on,,,,,4,0,8,,,,,7,,,65,50
130944,note_on,,,,,256,0,5,,,,,4,,,53,92
130944,note_on,,,,,256,0,3,,,,,2,,,62,108
130944,note_on,,,,,256,0,2,,,,,1,,,62,63
130944,note_on,,,,,4,0,6,,,,,5,,,50,92
130944,note_on,,,,,4,0,4,,,,,3,,,59,127
130944,note_on,,,,,256,0,1,,,,,0,,,62,63
130944,note_on,,,,,0,0,8,,,,,7,,,74,50
131036,note_off,,,,,92,0,6,,,,,5,,,50,0
131036,note_off,,,,,92,0,7,,,,,6,,,38,0
131036,note_off,,,,,92,0,9,,,,,8,,,50,0
131040,note_on,,,,,4,0,6,,,,,5,,,51,92
131040,note_on,,,,,4,0,7,,,,,6,,,39,75
131040,note_on,,,,,4,0,9,,,,,8,,,51,50
131132,note_off,,,,,188,0,8,,,,,7,,,65,0
131132,note_off,,,,,188,0,3,,,,,2,,,62,0
131132,note_off,,,,,188,0,2,,,,,1,,,62,0
131132,note_off,,,,,92,0,6,,,,,5,,,51,0
131132,note_off,,,,,92,0,9,,,,,8,,,51,0
131132,note_off,,,,,188,0,1,,,,,0,,,62,0
131132,note_off,,,,,0,0,8,,,,,7,,,74,0
131132,note_off,,,,,188,0,5,,,,,4,,,53,0
131132,note_off,,,,,92,0,7,,,,,6,,,39,0
131132,note_off,,,,,188,0,4,,,,,3,,,59,0
131136,note_on,,,,,4,0,3,,,,,2,,,63,108
131136,note_on,,,,,4,0,5,,,,,4,,,55,92
131136,note_on,,,,,4,0,6,,,,,5,,,48,92
131136,note_on,,,,,4,0,8,,,,,7,,,63,50
131136,note_on,,,,,0,0,8,,,,,7,,,67,50
131136,note_on,,,,,4,0,4,,,,,3,,,60,127
131136,note_on,,,,,4,0,2,,,,,1,,,63,63
131136,note_on,,,,,4,0,1,,,,,0,,,63,63
131136,note_on,,,,,4,0,9,,,,,8,,,48,50
131136,note_on,,,,,4,0,7,,,,,6,,,36,75
131228,note_off,,,,,92,0,3,,,,,2,,,63,0
131228,note_off,,,,,92,0,2,,,,,1,,,63,0
131228,note_off,,,,,92,0,1,,,,,0,,,63,0
131232,note_on,,,,,4,0,3,,,,,2,,,67,108
131232,note_on,,,,,4,0,1,,,,,0,,,67,63
131232,note_on,,,,,4,0,2,,,,,1,,,67,63
131324,note_off,,,,,92,0,1,,,,,0,,,67,0
131324,note_off,,,,,92,0,3,,,,,2,,,67,0
131324,note_off,,,,,92,0,2,,,,,1,,,67,0
131328,note_on,,,,,4,0,2,,,,,1,,,60,63
131328,note_on,,,,,4,0,1,,,,,0,,,60,63
131328,note_on,,,,,4,0,3,,,,,2,,,60,108
131420,note_off,,,,,92,0,2,,,,,1,,,60,0
131420,note_off,,,,,92,0,3,,,,,2,,,60,0
131420,note_off,,,,,92,0,1,,,,,0,,,60,0
131424,note_on,,,,,4,0,2,,,,,1,,,62,63
131424,note_on,,,,,4,0,3,,,,,2,,,62,108
131424,note_on,,,,,4,0,1,,,,,0,,,62,63
131456,note_off,,,,,0,0,8,,,,,7,,,67,0
131456,note_off,,,,,320,0,6,,,,,5,,,48,0
131456,note_off,,,,,320,0,9,,,,,8,,,48,0
131456,note_off,,,,,320,0,5,,,,,4,,,55,0
131456,note_off,,,,,320,0,8,,,,,7,,,63,0
131456,note_off,,,,,320,0,4,,,,,3,,,60,0
131456,note_off,,,,,320,0,7,,,,,6,,,36,0
131516,note_off,,,,,92,0,1,,,,,0,,,62,0
131516,note_off,,,,,92,0,3,,,,,2,,,62,0
131516,note_off,,,,,92,0,2,,,,,1,,,62,0
131520,note_on,,,,,4,0,3,,,,,2,,,63,108
131520,note_on,,,,,4,0,2,,,,,1,,,63,63
131520,note_on,,,,,4,0,1,,,,,0,,,63,63
131612,note_off,,,,,92,0,3,,,,,2,,,63,0
131612,note_off,,,,,92,0,1,,,,,0,,,63,0
131612,note_off,,,,,92,0,2,,,,,1,,,63,0
131616,note_on,,,,,4,0,3,,,,,2,,,65,108
131616,note_on,,,,,4,0,1,,,,,0,,,65,63
131616,note_on,,,,,4,0,2,,,,,1,,,65,63
131708,note_off,,,,,92,0,2,,,,,1,,,65,0
131708,note_off,,,,,92,0,1,,,,,0,,,65,0
131708,note_off,,,,,92,0,3,,,,,2,,,65,0
131712,note_on,,,,,256,0,8,,,,,7,,,60,50
131712,note_on,,,,,4,0,1,,,,,0,,,67,63
131712,note_on,,,,,256,0,4,,,,,3,,,60,127
131712,note_on,,,,,0,0,8,,,,,7,,,69,50
131712,note_on,,,,,0,0,8,,,,,7,,,65,50
131712,note_on,,,,,256,0,5,,,,,4,,,53,92
131712,note_on,,,,,256,0,9,,,,,8,,,53,50
131712,note_on,,,,,256,0,6,,,,,5,,,53,92
131712,note_on,,,,,256,0,7,,,,,6,,,41,75
131712,note_on,,,,,4,0,3,,,,,2,,,67,108
131712,note_on,,,,,4,0,2,,,,,1,,,67,63
131804,note_off,,,,,92,0,3,,,,,2,,,67,0
131804,note_off,,,,,92,0,1,,,,,0,,,67,0
131804,note_off,,,,,92,0,2,,,,,1,,,67,0
131808,note_on,,,,,4,0,2,,,,,1,,,69,63
131808,note_on,,,,,4,0,1,,,,,0,,,69,63
131808,note_on,,,,,4,0,3,,,,,2,,,69,108
131900,note_off,,,,,92,0,1,,,,,0,,,69,0
131900,note_off,,,,,188,0,7,,,,,6,,,41,0
131900,note_off,,,,,188,0,6,,,,,5,,,53,0
131900,note_off,,,,,92,0,2,,,,,1,,,69,0
131900,note_off,,,,,0,0,8,,,,,7,,,65,0
131900,note_off,,,,,188,0,4,,,,,3,,,60,0
131900,note_off,,,,,0,0,8,,,,,7,,,69,0
131900,note_off,,,,,188,0,9,,,,,8,,,53,0
131900,note_off,,,,,188,0,5,,,,,4,,,53,0
131900,note_off,,,,,188,0,8,,,,,7,,,60,0
131900,note_off,,,,,92,0,3,,,,,2,,,69,0
131904,note_on,,,,,4,0,9,,,,,8,,,58,50
131904,note_on,,,,,4,0,5,,,,,4,,,65,92
131904,note_on,,,,,4,0,4,,,,,3,,,62,127
131904,note_on,,,,,4,0,6,,,,,5,,,58,92
131904,note_on,,,,,4,0,3,,,,,2,,,70,108
131904,note_on,,,,,4,0,7,,,,,6,,,46,75
131904,note_on,,,,,0,0,8,,,,,7,,,70,50
131904,note_on,,,,,4,0,2,,,,,1,,,70,63
131904,note_on,,,,,4,0,1,,,,,0,,,70,63
131904,note_on,,,,,0,0,8,,,,,7,,,65,50
131904,note_on,,,,,4,0,8,,,,,7,,,62,50
132092,note_off,,,,,188,0,4,,,,,3,,,62,0
132092,note_off,,,,,188,0,6,,,,,5,,,58,0
132092,note_off,,,,,188,0,9,,,,,8,,,58,0
132092,note_off,,,,,188,0,5,,,,,4,,,65,0
132092,note_off,,,,,188,0,7,,,,,6,,,46,0
132096,note_on,,,,,4,0,9,,,,,8,,,53,50
132096,note_on,,,,,4,0,7,,,,,6,,,41,75
132096,note_on,,,,,4,0,4,,,,,3,,,62,127
132096,note_on,,,,,4,0,5,,,,,4,,,65,92
132096,note_on,,,,,4,0,6,,,,,5,,,53,92
132188,note_off,,,,,92,0,4,,,,,3,,,62,0
132188,note_off,,,,,92,0,7,,,,,6,,,41,0
132188,note_off,,,,,92,0,5,,,,,4,,,65,0
132188,note_off,,,,,92,0,6,,,,,5,,,53,0
132188,note_off,,,,,92,0,9,,,,,8,,,53,0
132192,note_on,,,,,4,0,9,,,,,8,,,51,50
132192,note_on,,,,,4,0,4,,,,,3,,,63,127
132192,note_on,,,,,4,0,7,,,,,6,,,39,75
132192,note_on,,,,,4,0,5,,,,,4,,,67,92
132192,note_on,,,,,4,0,6,,,,,5,,,51,92
132224,note_off,,,,,320,0,2,,,,,1,,,70,0
132224,note_off,,,,,320,0,1,,,,,0,,,70,0
132224,note_off,,,,,320,0,8,,,,,7,,,62,0
132224,note_off,,,,,0,0,8,,,,,7,,,65,0
132224,note_off,,,,,320,0,3,,,,,2,,,70,0
132224,note_off,,,,,0,0,8,,,,,7,,,70,0
132284,note_off,,,,,92,0,6,,,,,5,,,51,0
132284,note_off,,,,,92,0,5,,,,,4,,,67,0
132284,note_off,,,,,92,0,7,,,,,6,,,39,0
132284,note_off,,,,,92,0,9,,,,,8,,,51,0
132284,note_off,,,,,92,0,4,,,,,3,,,63,0
132288,note_on,,,,,4,0,9,,,,,8,,,50,50
132288,note_on,,,,,4,0,7,,,,,6,,,38,75
132288,note_on,,,,,4,0,4,,,,,3,,,65,127
132288,note_on,,,,,0,0,8,,,,,7,,,68,50
132288,note_on,,,,,0,0,8,,,,,7,,,65,50
132288,note_on,,,,,4,0,5,,,,,4,,,68,92
132288,note_on,,,,,4,0,6,,,,,5,,,50,92
132288,note_on,,,,,64,0,8,,,,,7,,,62,50
132476,note_off,,,,,188,0,9,,,,,8,,,50,0
132476,note_off,,,,,188,0,4,,,,,3,,,65,0
132476,note_off,,,,,188,0,7,,,,,6,,,38,0
132476,note_off,,,,,188,0,6,,,,,5,,,50,0
132476,note_off,,,,,188,0,5,,,,,4,,,68,0
132480,note_on,,,,,4,0,9,,,,,8,,,51,50
132480,note_on,,,,,4,0,7,,,,,6,,,39,75
132480,note_on,,,,,256,0,3,,,,,2,,,74,108
132480,note_on,,,,,4,0,5,,,,,4,,,62,92
132480,note_on,,,,,4,0,6,,,,,5,,,51,92
132480,note_on,,,,,256,0,2,,,,,1,,,74,63
132480,note_on,,,,,256,0,1,,,,,0,,,74,63
132480,note_on,,,,,4,0,4,,,,,3,,,67,127
132572,note_off,,,,,92,0,7,,,,,6,,,39,0
132572,note_off,,,,,92,0,9,,,,,8,,,51,0
132572,note_off,,,,,92,0,6,,,,,5,,,51,0
132572,note_off,,,,,92,0,4,,,,,3,,,67,0
132576,note_on,,,,,4,0,9,,,,,8,,,53,50
132576,note_on,,,,,4,0,7,,,,,6,,,41,75
132576,note_on,,,,,4,0,6,,,,,5,,,53,92
132576,note_on,,,,,4,0,4,,,,,3,,,68,127
132608,note_off,,,,,320,0,8,,,,,7,,,62,0
132608,note_off,,,,,0,0,8,,,,,7,,,65,0
132608,note_off,,,,,0,0,8,,,,,7,,,68,0
132668,note_off,,,,,92,0,9,,,,,8,,,53,0
132668,note_off,,,,,92,0,7,,,,,6,,,41,0
132668,note_off,,,,,188,0,1,,,,,0,,,74,0
132668,note_off,,,,,92,0,4,,,,,3,,,68,0
132668,note_off,,,,,188,0,5,,,,,4,,,62,0
132668,note_off,,,,,188,0,3,,,,,2,,,74,0
132668,note_off,,,,,92,0,6,,,,,5,,,53,0
132668,note_off,,,,,188,0,2,,,,,1,,,74,0
132672,note_on,,,,,4,0,5,,,,,4,,,67,92
132672,note_on,,,,,4,0,3,,,,,2,,,71,108
132672,note_on,,,,,4,0,6,,,,,5,,,43,92
132672,note_on,,,,,4,0,7,,,,,6,,,31,75
132672,note_on,,,,,64,0,8,,,,,7,,,59,50
132672,note_on,,,,,4,0,4,,,,,3,,,62,127
132672,note_on,,,,,4,0,1,,,,,0,,,71,63
132672,note_on,,,,,0,0,8,,,,,7,,,67,50
132672,note_on,,,,,0,0,8,,,,,7,,,62,50
132672,note_on,,,,,4,0,9,,,,,8,,,43,50
132672,note_on,,,,,4,0,2,,,,,1,,,71,63
132764,note_off,,,,,92,0,2,,,,,1,,,71,0
132764,note_off,,,,,92,0,1,,,,,0,,,71,0
132764,note_off,,,,,92,0,3,,,,,2,,,71,0
132768,note_on,,,,,4,0,2,,,,,1,,,67,63
132768,note_on,,,,,4,0,1,,,,,0,,,67,63
132768,note_on,,,,,4,0,3,,,,,2,,,67,108
132860,note_off,,,,,92,0,3,,,,,2,,,67,0
132860,note_off,,,,,92,0,2,,,,,1,,,67,0
132860,note_off,,,,,92,0,1,,,,,0,,,67,0
132864,note_on,,,,,4,0,3,,,,,2,,,71,108
132864,note_on,,,,,4,0,2,,,,,1,,,71,63
132864,note_on,,,,,4,0,1,,,,,0,,,71,63
132956,note_off,,,,,92,0,3,,,,,2,,,71,0
132956,note_off,,,,,92,0,1,,,,,0,,,71,0
132956,note_off,,,,,92,0,2,,,,,1,,,71,0
132960,note_on,,,,,4,0,3,,,,,2,,,74,108
132960,note_on,,,,,4,0,2,,,,,1,,,74,63
132960,note_on,,,,,4,0,1,,,,,0,,,74,63
132992,note_off,,,,,320,0,8,,,,,7,,,59,0
132992,note_off,,,,,0,0,8,,,,,7,,,62,0
132992,note_off,,,,,0,0,8,,,,,7,,,67,0
132992,note_off,,,,,320,0,6,,,,,5,,,43,0
132992,note_off,,,,,320,0,5,,,,,4,,,67,0
132992,note_off,,,,,320,0,4,,,,,3,,,62,0
132992,note_off,,,,,320,0,7,,,,,6,,,31,0
132992,note_off,,,,,320,0,9,,,,,8,,,43,0
133052,note_off,,,,,92,0,3,,,,,2,,,74,0
133052,note_off,,,,,92,0,2,,,,,1,,,74,0
133052,note_off,,,,,92,0,1,,,,,0,,,74,0
133056,note_on,,,,,4,0,2,,,,,1,,,71,63
133056,note_on,,,,,4,0,3,,,,,2,,,71,108
133056,note_on,,,,,4,0,1,,,,,0,,,71,63
133148,note_off,,,,,92,0,3,,,,,2,,,71,0
133148,note_off,,,,,92,0,1,,,,,0,,,71,0
133148,note_off,,,,,92,0,2,,,,,1,,,71,0
133152,note_on,,,,,4,0,1,,,,,0,,,74,63
133152,note_on,,,,,4,0,3,,,,,2,,,74,108
133152,note_on,,,,,4,0,2,,,,,1,,,74,63
133244,note_off,,,,,92,0,3,,,,,2,,,74,0
133244,note_off,,,,,92,0,2,,,,,1,,,74,0
133244,note_off,,,,,92,0,1,,,,,0,,,74,0
133248,note_on,,,,,256,0,5,,,,,4,,,67,92
133248,note_on,,,,,256,0,6,,,,,5,,,55,92
133248,note_on,,,,,4,0,3,,,,,2,,,72,108
133248,note_on,,,,,4,0,2,,,,,1,,,72,63
133248,note_on,,,,,256,0,9,,,,,8,,,55,50
133248,note_on,,,,,0,0,8,,,,,7,,,62,50
133248,note_on,,,,,0,0,8,,,,,7,,,67,50
133248,note_on,,,,,256,0,8,,,,,7,,,59,50
133248,note_on,,,,,256,0,4,,,,,3,,,62,127
133248,note_on,,,,,256,0,7,,,,,6,,,43,75
133248,note_on,,,,,4,0,1,,,,,0,,,72,63
133340,note_off,,,,,92,0,3,,,,,2,,,72,0
133340,note_off,,,,,92,0,2,,,,,1,,,72,0
133340,note_off,,,,,92,0,1,,,,,0,,,72,0
133344,note_on,,,,,4,0,3,,,,,2,,,71,108
133344,note_on,,,,,4,0,1,,,,,0,,,71,63
133344,note_on,,,,,4,0,2,,,,,1,,,71,63
133436,note_off,,,,,188,0,4,,,,,3,,,62,0
133436,note_off,,,,,188,0,7,,,,,6,,,43,0
133436,note_off,,,,,92,0,2,,,,,1,,,71,0
133436,note_off,,,,,92,0,1,,,,,0,,,71,0
133436,note_off,,,,,188,0,9,,,,,8,,,55,0
133436,note_off,,,,,188,0,6,,,,,5,,,55,0
133436,note_off,,,,,188,0,8,,,,,7,,,59,0
133436,note_off,,,,,0,0,8,,,,,7,,,62,0
133436,note_off,,,,,92,0,3,,,,,2,,,71,0
133436,note_off,,,,,188,0,5,,,,,4,,,67,0
133436,note_off,,,,,0,0,8,,,,,7,,,67,0
133440,note_on,,,,,4,0,7,,,,,6,,,39,75
133440,note_on,,,,,4,0,1,,,,,0,,,72,63
133440,note_on,,,,,4,0,2,,,,,1,,,72,63
133440,note_on,,,,,4,0,8,,,,,7,,,60,50
133440,note_on,,,,,0,0,8,,,,,7,,,67,50
133440,note_on,,,,,4,0,6,,,,,5,,,51,92
133440,note_on,,,,,4,0,3,,,,,2,,,72,108
133440,note_on,,,,,4,0,9,,,,,8,,,51,50
133440,note_on,,,,,4,0,5,,,,,4,,,60,92
133440,note_on,,,,,4,0,4,,,,,3,,,67,127
133532,note_off,,,,,92,0,3,,,,,2,,,72,0
133532,note_off,,,,,92,0,2,,,,,1,,,72,0
133532,note_off,,,,,92,0,1,,,,,0,,,72,0
133536,note_on,,,,,4,0,3,,,,,2,,,67,108
133536,note_on,,,,,4,0,1,,,,,0,,,67,63
133536,note_on,,,,,4,0,2,,,,,1,,,67,63
133628,note_off,,,,,92,0,1,,,,,0,,,67,0
133628,note_off,,,,,188,0,9,,,,,8,,,51,0
133628,note_off,,,,,0,0,8,,,,,7,,,67,0
133628,note_off,,,,,188,0,4,,,,,3,,,67,0
133628,note_off,,,,,188,0,8,,,,,7,,,60,0
133628,note_off,,,,,188,0,5,,,,,4,,,60,0
133628,note_off,,,,,92,0,2,,,,,1,,,67,0
133628,note_off,,,,,92,0,3,,,,,2,,,67,0
133628,note_off,,,,,188,0,7,,,,,6,,,39,0
133628,note_off,,,,,188,0,6,,,,,5,,,51,0
133632,note_on,,,,,4,0,8,,,,,7,,,60,50
133632,note_on,,,,,0,0,8,,,,,7,,,63,50
133632,note_on,,,,,4,0,9,,,,,8,,,48,50
133632,note_on,,,,,4,0,2,,,,,1,,,72,63
133632,note_on,,,,,4,0,1,,,,,0,,,72,63
133632,note_on,,,,,4,0,5,,,,,4,,,55,92
133632,note_on,,,,,4,0,7,,,,,6,,,36,75
133632,note_on,,,,,4,0,6,,,,,5,,,48,92
133632,note_on,,,,,4,0,4,,,,,3,,,63,127
133632,note_on,,,,,4,0,3,,,,,2,,,72,108
133724,note_off,,,,,92,0,2,,,,,1,,,72,0
133724,note_off,,,,,92,0,1,,,,,0,,,72,0
133724,note_off,,,,,92,0,3,,,,,2,,,72,0
133728,note_on,,,,,4,0,3,,,,,2,,,75,108
133728,note_on,,,,,4,0,1,,,,,0,,,75,63
133728,note_on,,,,,4,0,2,,,,,1,,,75,63
133820,note_off,,,,,0,0,8,,,,,7,,,63,0
133820,note_off,,,,,92,0,1,,,,,0,,,75,0
133820,note_off,,,,,188,0,7,,,,,6,,,36,0
133820,note_off,,,,,92,0,2,,,,,1,,,75,0
133820,note_off,,,,,188,0,4,,,,,3,,,63,0
133820,note_off,,,,,92,0,3,,,,,2,,,75,0
133820,note_off,,,,,188,0,6,,,,,5,,,48,0
133820,note_off,,,,,188,0,9,,,,,8,,,48,0
133820,note_off,,,,,188,0,8,,,,,7,,,60,0
133820,note_off,,,,,188,0,5,,,,,4,,,55,0
133824,note_on,,,,,4,0,2,,,,,1,,,72,63
133824,note_on,,,,,4,0,1,,,,,0,,,72,63
133824,note_on,,,,,4,0,3,,,,,2,,,72,108
133916,note_off,,,,,92,0,2,,,,,1,,,72,0
133916,note_off,,,,,92,0,3,,,,,2,,,72,0
133916,note_off,,,,,92,0,1,,,,,0,,,72,0
133920,note_on,,,,,4,0,1,,,,,0,,,75,63
133920,note_on,,,,,4,0,2,,,,,1,,,75,63
133920,note_on,,,,,4,0,3,,,,,2,,,75,108
134012,note_off,,,,,92,0,2,,,,,1,,,75,0
134012,note_off,,,,,92,0,3,,,,,2,,,75,0
134012,note_off,,,,,92,0,1,,,,,0,,,75,0
134016,note_on,,,,,196,0,4,,,,,3,,,67,127
134016,note_on,,,,,196,0,5,,,,,4,,,67,92
134016,note_on,,,,,4,0,3,,,,,2,,,74,108
134016,note_on,,,,,196,0,8,,,,,7,,,63,50
134016,note_on,,,,,196,0,9,,,,,8,,,60,50
134016,note_on,,,,,0,0,8,,,,,7,,,67,50
134016,note_on,,,,,196,0,6,,,,,5,,,60,92
134016,note_on,,,,,4,0,1,,,,,0,,,74,63
134016,note_on,,,,,4,0,2,,,,,1,,,74,63
134016,note_on,,,,,196,0,7,,,,,6,,,48,75
134108,note_off,,,,,92,0,2,,,,,1,,,74,0
134108,note_off,,,,,92,0,1,,,,,0,,,74,0
134108,note_off,,,,,92,0,3,,,,,2,,,74,0
134112,note_on,,,,,4,0,3,,,,,2,,,72,108
134112,note_on,,,,,4,0,2,,,,,1,,,72,63
134112,note_on,,,,,4,0,1,,,,,0,,,72,63
134204,note_off,,,,,188,0,6,,,,,5,,,60,0
134204,note_off,,,,,0,0,8,,,,,7,,,67,0
134204,note_off,,,,,188,0,8,,,,,7,,,63,0
134204,note_off,,,,,92,0,3,,,,,2,,,72,0
134204,note_off,,,,,188,0,4,,,,,3,,,67,0
134204,note_off,,,,,188,0,9,,,,,8,,,60,0
134204,note_off,,,,,188,0,7,,,,,6,,,48,0
134204,note_off,,,,,188,0,5,,,,,4,,,67,0
134204,note_off,,,,,92,0,1,,,,,0,,,72,0
134204,note_off,,,,,92,0,2,,,,,1,,,72,0
134208,note_on,,,,,4,0,4,,,,,3,,,74,127
134208,note_on,,,,,4,0,1,,,,,0,,,74,63
134208,note_on,,,,,4,0,5,,,,,4,,,67,92
134208,note_on,,,,,4,0,9,,,,,8,,,59,50
134208,note_on,,,,,4,0,8,,,,,7,,,62,50
134208,note_on,,,,,4,0,2,,,,,1,,,74,63
134208,note_on,,,,,4,0,3,,,,,2,,,74,108
134208,note_on,,,,,4,0,7,,,,,6,,,47,75
134208,note_on,,,,,4,0,6,,,,,5,,,59,92
134208,note_on,,,,,0,0,8,,,,,7,,,67,50
134300,note_off,,,,,92,0,2,,,,,1,,,74,0
134300,note_off,,,,,92,0,3,,,,,2,,,74,0
134300,note_off,,,,,92,0,1,,,,,0,,,74,0
134304,note_on,,,,,4,0,3,,,,,2,,,67,108
134304,note_on,,,,,4,0,2,,,,,1,,,67,63
134304,note_on,,,,,4,0,1,,,,,0,,,67,63
134396,note_off,,,,,188,0,4,,,,,3,,,74,0
134396,note_off,,,,,92,0,2,,,,,1,,,67,0
134396,note_off,,,,,92,0,1,,,,,0,,,67,0
134396,note_off,,,,,0,0,8,,,,,7,,,67,0
134396,note_off,,,,,188,0,9,,,,,8,,,59,0
134396,note_off,,,,,188,0,5,,,,,4,,,67,0
134396,note_off,,,,,188,0,7,,,,,6,,,47,0
134396,note_off,,,,,92,0,3,,,,,2,,,67,0
134396,note_off,,,,,188,0,8,,,,,7,,,62,0
134396,note_off,,,,,188,0,6,,,,,5,,,59,0
134400,note_on,,,,,4,0,1,,,,,0,,,74,63
134400,note_on,,,,,4,0,2,,,,,1,,,74,63
134400,note_on,,,,,4,0,7,,,,,6,,,43,75
134400,note_on,,,,,4,0,3,,,,,2,,,74,108
134400,note_on,,,,,4,0,6,,,,,5,,,55,92
134400,note_on,,,,,0,0,8,,,,,7,,,67,50
134400,note_on,,,,,4,0,4,,,,,3,,,71,127
134400,note_on,,,,,4,0,8,,,,,7,,,62,50
134400,note_on,,,,,4,0,9,,,,,8,,,55,50
134400,note_on,,,,,0,0,8,,,,,7,,,71,50
134400,note_on,,,,,4,0,5,,,,,4,,,55,92
134492,note_off,,,,,92,0,3,,,,,2,,,74,0
134492,note_off,,,,,92,0,2,,,,,1,,,74,0
134492,note_off,,,,,92,0,1,,,,,0,,,74,0
134496,note_on,,,,,4,0,3,,,,,2,,,77,108
134496,note_on,,,,,4,0,2,,,,,1,,,77,63
134496,note_on,,,,,4,0,1,,,,,0,,,77,63
134588,note_off,,,,,188,0,8,,,,,7,,,62,0
134588,note_off,,,,,188,0,4,,,,,3,,,71,0
134588,note_off,,,,,92,0,1,,,,,0,,,77,0
134588,note_off,,,,,92,0,3,,,,,2,,,77,0
134588,note_off,,,,,0,0,8,,,,,7,,,67,0
134588,note_off,,,,,188,0,7,,,,,6,,,43,0
134588,note_off,,,,,188,0,6,,,,,5,,,55,0
134588,note_off,,,,,188,0,9,,,,,8,,,55,0
134588,note_off,,,,,0,0,8,,,,,7,,,71,0
134588,note_off,,,,,188,0,5,,,,,4,,,55,0
134588,note_off,,,,,92,0,2,,,,,1,,,77,0
134592,note_on,,,,,4,0,2,,,,,1,,,74,63
134592,note_on,,,,,4,0,1,,,,,0,,,74,63
134592,note_on,,,,,4,0,3,,,,,2,,,74,108
134684,note_off,,,,,92,0,1,,,,,0,,,74,0
134684,note_off,,,,,92,0,2,,,,,1,,,74,0
134684,note_off,,,,,92,0,3,,,,,2,,,74,0
134688,note_on,,,,,4,0,1,,,,,0,,,77,63
134688,note_on,,,,,4,0,2,,,,,1,,,77,63
134688,note_on,,,,,4,0,3,,,,,2,,,77,108
134780,note_off,,,,,92,0,3,,,,,2,,,77,0
134780,note_off,,,,,92,0,2,,,,,1,,,77,0
134780,note_off,,,,,92,0,1,,,,,0,,,77,0
134784,note_on,,,,,196,0,4,,,,,3,,,67,127
134784,note_on,,,,,0,0,8,,,,,7,,,67,50
134784,note_on,,,,,196,0,8,,,,,7,,,62,50
134784,note_on,,,,,196,0,7,,,,,6,,,47,75
134784,note_on,,,,,196,0,9,,,,,8,,,59,50
134784,note_on,,,,,4,0,1,,,,,0,,,75,63
134784,note_on,,,,,196,0,5,,,,,4,,,67,92
134784,note_on,,,,,4,0,2,,,,,1,,,75,63
134784,note_on,,,,,4,0,3,,,,,2,,,75,108
134784,note_on,,,,,196,0,6,,,,,5,,,59,92
134876,note_off,,,,,92,0,1,,,,,0,,,75,0
134876,note_off,,,,,92,0,3,,,,,2,,,75,0
134876,note_off,,,,,92,0,2,,,,,1,,,75,0
134880,note_on,,,,,4,0,1,,,,,0,,,74,63
134880,note_on,,,,,4,0,3,,,,,2,,,74,108
134880,note_on,,,,,4,0,2,,,,,1,,,74,63
134972,note_off,,,,,188,0,9,,,,,8,,,59,0
134972,note_off,,,,,92,0,1,,,,,0,,,74,0
134972,note_off,,,,,188,0,5,,,,,4,,,67,0
134972,note_off,,,,,188,0,4,,,,,3,,,67,0
134972,note_off,,,,,0,0,8,,,,,7,,,67,0
134972,note_off,,,,,92,0,2,,,,,1,,,74,0
134972,note_off,,,,,188,0,8,,,,,7,,,62,0
134972,note_off,,,,,92,0,3,,,,,2,,,74,0
134972,note_off,,,,,188,0,6,,,,,5,,,59,0
134972,note_off,,,,,188,0,7,,,,,6,,,47,0
134976,note_on,,,,,4,0,2,,,,,1,,,75,63
134976,note_on,,,,,4,0,5,,,,,4,,,67,92
134976,note_on,,,,,4,0,4,,,,,3,,,75,127
134976,note_on,,,,,4,0,9,,,,,8,,,60,50
134976,note_on,,,,,4,0,7,,,,,6,,,48,75
134976,note_on,,,,,4,0,6,,,,,5,,,60,92
134976,note_on,,,,,4,0,3,,,,,2,,,75,108
134976,note_on,,,,,4,0,8,,,,,7,,,63,50
134976,note_on,,,,,0,0,8,,,,,7,,,67,50
134976,note_on,,,,,4,0,1,,,,,0,,,75,63
135068,note_off,,,,,92,0,4,,,,,3,,,75,0
135072,note_on,,,,,4,0,4,,,,,3,,,72,127
135164,note_off,,,,,188,0,7,,,,,6,,,48,0
135164,note_off,,,,,188,0,1,,,,,0,,,75,0
135164,note_off,,,,,188,0,2,,,,,1,,,75,0
135164,note_off,,,,,188,0,6,,,,,5,,,60,0
135164,note_off,,,,,188,0,8,,,,,7,,,63,0
135164,note_off,,,,,188,0,3,,,,,2,,,75,0
135164,note_off,,,,,188,0,9,,,,,8,,,60,0
135164,note_off,,,,,188,0,5,,,,,4,,,67,0
135164,note_off,,,,,92,0,4,,,,,3,,,72,0
135164,note_off,,,,,0,0,8,,,,,7,,,67,0
135168,note_on,,,,,4,0,7,,,,,6,,,36,75
135168,note_on,,,,,4,0,9,,,,,8,,,48,50
135168,note_on,,,,,4,0,6,,,,,5,,,48,92
135168,note_on,,,,,4,0,2,,,,,1,,,72,63
135168,note_on,,,,,4,0,3,,,,,2,,,72,108
135168,note_on,,,,,4,0,1,,,,,0,,,72,63
135168,note_on,,,,,4,0,4,,,,,3,,,75,127
135168,note_on,,,,,4,0,5,,,,,4,,,63,92
135168,note_on,,,,,4,0,8,,,,,7,,,63,50
135168,note_on,,,,,0,0,8,,,,,7,,,67,50
135168,note_on,,,,,0,0,8,,,,,7,,,72,50
135260,note_off,,,,,92,0,4,,,,,3,,,75,0
135264,note_on,,,,,4,0,4,,,,,3,,,79,127
135356,note_off,,,,,188,0,6,,,,,5,,,48,0
135356,note_off,,,,,188,0,5,,,,,4,,,63,0
135356,note_off,,,,,188,0,7,,,,,6,,,36,0
135356,note_off,,,,,188,0,9,,,,,8,,,48,0
135356,note_off,,,,,0,0,8,,,,,7,,,72,0
135356,note_off,,,,,188,0,1,,,,,0,,,72,0
135356,note_off,,,,,92,0,4,,,,,3,,,79,0
135356,note_off,,,,,188,0,2,,,,,1,,,72,0
135356,note_off,,,,,188,0,3,,,,,2,,,72,0
135356,note_off,,,,,0,0,8,,,,,7,,,67,0
135356,note_off,,,,,188,0,8,,,,,7,,,63,0
135360,note_on,,,,,4,0,4,,,,,3,,,75,127
135452,note_off,,,,,92,0,4,,,,,3,,,75,0
135456,note_on,,,,,4,0,4,,,,,3,,,72,127
135548,note_off,,,,,92,0,4,,,,,3,,,72,0
135552,note_on,,,,,196,0,3,,,,,2,,,72,108
135552,note_on,,,,,196,0,6,,,,,5,,,60,92
135552,note_on,,,,,196,0,2,,,,,1,,,72,63
135552,note_on,,,,,0,0,8,,,,,7,,,72,50
135552,note_on,,,,,196,0,5,,,,,4,,,67,92
135552,note_on,,,,,196,0,9,,,,,8,,,60,50
135552,note_on,,,,,196,0,7,,,,,6,,,48,75
135552,note_on,,,,,0,0,8,,,,,7,,,67,50
135552,note_on,,,,,196,0,8,,,,,7,,,63,50
135552,note_on,,,,,4,0,4,,,,,3,,,75,127
135552,note_on,,,,,196,0,1,,,,,0,,,72,63
135644,note_off,,,,,92,0,4,,,,,3,,,75,0
135648,note_on,,,,,4,0,4,,,,,3,,,79,127
135740,note_off,,,,,188,0,5,,,,,4,,,67,0
135740,note_off,,,,,188,0,2,,,,,1,,,72,0
135740,note_off,,,,,188,0,3,,,,,2,,,72,0
135740,note_off,,,,,188,0,6,,,,,5,,,60,0
135740,note_off,,,,,0,0,8,,,,,7,,,72,0
135740,note_off,,,,,0,0,8,,,,,7,,,67,0
135740,note_off,,,,,188,0,8,,,,,7,,,63,0
135740,note_off,,,,,92,0,4,,,,,3,,,79,0
135740,note_off,,,,,188,0,9,,,,,8,,,60,0
135740,note_off,,,,,188,0,7,,,,,6,,,48,0
135740,note_off,,,,,188,0,1,,,,,0,,,72,0
135744,note_on,,,,,4,0,3,,,,,2,,,76,108
135744,note_on,,,,,4,0,7,,,,,6,,,46,75
135744,note_on,,,,,4,0,8,,,,,7,,,64,50
135744,note_on,,,,,4,0,1,,,,,0,,,76,63
135744,note_on,,,,,0,0,8,,,,,7,,,67,50
135744,note_on,,,,,4,0,6,,,,,5,,,58,92
135744,note_on,,,,,0,0,8,,,,,7,,,72,50
135744,note_on,,,,,4,0,4,,,,,3,,,67,127
135744,note_on,,,,,4,0,2,,,,,1,,,76,63
135744,note_on,,,,,4,0,5,,,,,4,,,72,92
135744,note_on,,,,,4,0,9,,,,,8,,,58,50
135836,note_off,,,,,92,0,3,,,,,2,,,76,0
135836,note_off,,,,,92,0,1,,,,,0,,,76,0
135836,note_off,,,,,92,0,2,,,,,1,,,76,0
135840,note_on,,,,,4,0,1,,,,,0,,,72,63
135840,note_on,,,,,4,0,3,,,,,2,,,72,108
135840,note_on,,,,,4,0,2,,,,,1,,,72,63
135932,note_off,,,,,92,0,1,,,,,0,,,72,0
135932,note_off,,,,,92,0,2,,,,,1,,,72,0
135932,note_off,,,,,92,0,3,,,,,2,,,72,0
135932,note_off,,,,,188,0,6,,,,,5,,,58,0
135932,note_off,,,,,188,0,9,,,,,8,,,58,0
135932,note_off,,,,,188,0,7,,,,,6,,,46,0
135936,note_on,,,,,4,0,1,,,,,0,,,76,63
135936,note_on,,,,,4,0,7,,,,,6,,,34,75
135936,note_on,,,,,4,0,2,,,,,1,,,76,63
135936,note_on,,,,,4,0,6,,,,,5,,,46,92
135936,note_on,,,,,4,0,3,,,,,2,,,76,108
135936,note_on,,,,,4,0,9,,,,,8,,,46,50
136028,note_off,,,,,92,0,3,,,,,2,,,76,0
136028,note_off,,,,,92,0,1,,,,,0,,,76,0
136028,note_off,,,,,92,0,2,,,,,1,,,76,0
136032,note_on,,,,,4,0,2,,,,,1,,,79,63
136032,note_on,,,,,4,0,1,,,,,0,,,79,63
136032,note_on,,,,,4,0,3,,,,,2,,,79,108
136064,note_off,,,,,320,0,5,,,,,4,,,72,0
136064,note_off,,,,,0,0,8,,,,,7,,,72,0
136064,note_off,,,,,0,0,8,,,,,7,,,67,0
136064,note_off,,,,,320,0,4,,,,,3,,,67,0
136064,note_off,,,,,320,0,8,,,,,7,,,64,0
136124,note_off,,,,,92,0,2,,,,,1,,,79,0
136124,note_off,,,,,188,0,6,,,,,5,,,46,0
136124,note_off,,,,,92,0,1,,,,,0,,,79,0
136124,note_off,,,,,188,0,7,,,,,6,,,34,0
136124,note_off,,,,,188,0,9,,,,,8,,,46,0
136124,note_off,,,,,92,0,3,,,,,2,,,79,0
136128,note_on,,,,,4,0,1,,,,,0,,,76,63
136128,note_on,,,,,4,0,3,,,,,2,,,76,108
136128,note_on,,,,,4,0,2,,,,,1,,,76,63
136220,note_off,,,,,92,0,1,,,,,0,,,76,0
136220,note_off,,,,,92,0,3,,,,,2,,,76,0
136220,note_off,,,,,92,0,2,,,,,1,,,76,0
136224,note_on,,,,,4,0,3,,,,,2,,,79,108
136224,note_on,,,,,4,0,1,,,,,0,,,79,63
136224,note_on,,,,,4,0,2,,,,,1,,,79,63
136316,note_off,,,,,92,0,3,,,,,2,,,79,0
136316,note_off,,,,,92,0,2,,,,,1,,,79,0
136316,note_off,,,,,92,0,1,,,,,0,,,79,0
136320,note_on,,,,,196,0,7,,,,,6,,,46,75
136320,note_on,,,,,0,0,8,,,,,7,,,67,50
136320,note_on,,,,,4,0,1,,,,,0,,,77,63
136320,note_on,,,,,196,0,6,,,,,5,,,58,92
136320,note_on,,,,,256,0,5,,,,,4,,,72,92
136320,note_on,,,,,0,0,8,,,,,7,,,72,50
136320,note_on,,,,,4,0,2,,,,,1,,,77,63
136320,note_on,,,,,256,0,8,,,,,7,,,64,50
136320,note_on,,,,,196,0,9,,,,,8,,,58,50
136320,note_on,,,,,256,0,4,,,,,3,,,67,127
136320,note_on,,,,,4,0,3,,,,,2,,,77,108
136412,note_off,,,,,92,0,2,,,,,1,,,77,0
136412,note_off,,,,,92,0,3,,,,,2,,,77,0
136412,note_off,,,,,92,0,1,,,,,0,,,77,0
136416,note_on,,,,,4,0,2,,,,,1,,,76,63
136416,note_on,,,,,4,0,1,,,,,0,,,76,63
136416,note_on,,,,,4,0,3,,,,,2,,,76,108
136508,note_off,,,,,92,0,1,,,,,0,,,76,0
136508,note_off,,,,,188,0,5,,,,,4,,,72,0
136508,note_off,,,,,92,0,2,,,,,1,,,76,0
136508,note_off,,,,,188,0,7,,,,,6,,,46,0
136508,note_off,,,,,188,0,6,,,,,5,,,58,0
136508,note_off,,,,,188,0,4,,,,,3,,,67,0
136508,note_off,,,,,188,0,9,,,,,8,,,58,0
136508,note_off,,,,,188,0,8,,,,,7,,,64,0
136508,note_off,,,,,0,0,8,,,,,7,,,67,0
136508,note_off,,,,,0,0,8,,,,,7,,,72,0
136508,note_off,,,,,92,0,3,,,,,2,,,76,0
136512,note_on,,,,,4,0,7,,,,,6,,,44,75
136512,note_on,,,,,4,0,9,,,,,8,,,56,50
136512,note_on,,,,,4,0,3,,,,,2,,,77,108
136512,note_on,,,,,0,0,8,,,,,7,,,72,50
136512,note_on,,,,,4,0,2,,,,,1,,,77,63
136512,note_on,,,,,4,0,5,,,,,4,,,65,92
136512,note_on,,,,,4,0,8,,,,,7,,,65,50
136512,note_on,,,,,4,0,4,,,,,3,,,72,127
136512,note_on,,,,,4,0,1,,,,,0,,,77,63
136512,note_on,,,,,4,0,6,,,,,5,,,56,92
136604,note_off,,,,,92,0,3,,,,,2,,,77,0
136604,note_off,,,,,92,0,2,,,,,1,,,77,0
136604,note_off,,,,,92,0,1,,,,,0,,,77,0
136608,note_on,,,,,4,0,2,,,,,1,,,72,63
136608,note_on,,,,,4,0,3,,,,,2,,,72,108
136608,note_on,,,,,4,0,1,,,,,0,,,72,63
136700,note_off,,,,,92,0,3,,,,,2,,,72,0
136700,note_off,,,,,188,0,9,,,,,8,,,56,0
136700,note_off,,,,,92,0,1,,,,,0,,,72,0
136700,note_off,,,,,188,0,6,,,,,5,,,56,0
136700,note_off,,,,,188,0,7,,,,,6,,,44,0
136700,note_off,,,,,92,0,2,,,,,1,,,72,0
136704,note_on,,,,,4,0,9,,,,,8,,,44,50
136704,note_on,,,,,4,0,1,,,,,0,,,77,63
136704,note_on,,,,,4,0,7,,,,,6,,,32,75
136704,note_on,,,,,4,0,3,,,,,2,,,77,108
136704,note_on,,,,,4,0,6,,,,,5,,,44,92
136704,note_on,,,,,4,0,2,,,,,1,,,77,63
136796,note_off,,,,,92,0,2,,,,,1,,,77,0
136796,note_off,,,,,92,0,1,,,,,0,,,77,0
136796,note_off,,,,,92,0,3,,,,,2,,,77,0
136800,note_on,,,,,4,0,3,,,,,2,,,80,108
136800,note_on,,,,,4,0,2,,,,,1,,,80,63
136800,note_on,,,,,4,0,1,,,,,0,,,80,63
136832,note_off,,,,,0,0,8,,,,,7,,,72,0
136832,note_off,,,,,320,0,8,,,,,7,,,65,0
136832,note_off,,,,,320,0,5,,,,,4,,,65,0
136832,note_off,,,,,320,0,4,,,,,3,,,72,0
136892,note_off,,,,,188,0,9,,,,,8,,,44,0
136892,note_off,,,,,92,0,3,,,,,2,,,80,0
136892,note_off,,,,,188,0,6,,,,,5,,,44,0
136892,note_off,,,,,92,0,2,,,,,1,,,80,0
136892,note_off,,,,,188,0,7,,,,,6,,,32,0
136892,note_off,,,,,92,0,1,,,,,0,,,80,0
136896,note_on,,,,,4,0,1,,,,,0,,,77,63
136896,note_on,,,,,4,0,2,,,,,1,,,77,63
136896,note_on,,,,,4,0,3,,,,,2,,,77,108
136988,note_off,,,,,92,0,3,,,,,2,,,77,0
136988,note_off,,,,,92,0,1,,,,,0,,,77,0
136988,note_off,,,,,92,0,2,,,,,1,,,77,0
136992,note_on,,,,,4,0,2,,,,,1,,,80,63
136992,note_on,,,,,4,0,1,,,,,0,,,80,63
136992,note_on,,,,,4,0,3,,,,,2,,,80,108
137084,note_off,,,,,92,0,1,,,,,0,,,80,0
137084,note_off,,,,,92,0,2,,,,,1,,,80,0
137084,note_off,,,,,92,0,3,,,,,2,,,80,0
137088,note_on,,,,,0,0,8,,,,,7,,,65,50
137088,note_on,,,,,196,0,9,,,,,8,,,56,50
137088,note_on,,,,,0,0,8,,,,,7,,,72,50
137088,note_on,,,,,256,0,4,,,,,3,,,72,127
137088,note_on,,,,,256,0,5,,,,,4,,,65,92
137088,note_on,,,,,4,0,2,,,,,1,,,79,63
137088,note_on,,,,,4,0,3,,,,,2,,,79,108
137088,note_on,,,,,196,0,6,,,,,5,,,56,92
137088,note_on,,,,,256,0,8,,,,,7,,,60,50
137088,note_on,,,,,4,0,1,,,,,0,,,79,63
137088,note_on,,,,,196,0,7,,,,,6,,,44,75
137180,note_off,,,,,92,0,2,,,,,1,,,79,0
137180,note_off,,,,,92,0,3,,,,,2,,,79,0
137180,note_off,,,,,92,0,1,,,,,0,,,79,0
137184,note_on,,,,,4,0,3,,,,,2,,,77,108
137184,note_on,,,,,4,0,2,,,,,1,,,77,63
137184,note_on,,,,,4,0,1,,,,,0,,,77,63
137276,note_off,,,,,188,0,5,,,,,4,,,65,0
137276,note_off,,,,,188,0,8,,,,,7,,,60,0
137276,note_off,,,,,0,0,8,,,,,7,,,65,0
137276,note_off,,,,,0,0,8,,,,,7,,,72,0
137276,note_off,,,,,188,0,7,,,,,6,,,44,0
137276,note_off,,,,,188,0,6,,,,,5,,,56,0
137276,note_off,,,,,92,0,3,,,,,2,,,77,0
137276,note_off,,,,,92,0,1,,,,,0,,,77,0
137276,note_off,,,,,188,0,4,,,,,3,,,72,0
137276,note_off,,,,,188,0,9,,,,,8,,,56,0
137276,note_off,,,,,92,0,2,,,,,1,,,77,0
137280,note_on,,,,,0,0,8,,,,,7,,,72,50
137280,note_on,,,,,4,0,7,,,,,6,,,40,75
137280,note_on,,,,,4,0,6,,,,,5,,,52,92
137280,note_on,,,,,4,0,3,,,,,2,,,79,108
137280,note_on,,,,,4,0,1,,,,,0,,,79,63
137280,note_on,,,,,4,0,8,,,,,7,,,60,50
137280,note_on,,,,,0,0,8,,,,,7,,,67,50
137280,note_on,,,,,4,0,2,,,,,1,,,79,63
137280,note_on,,,,,4,0,5,,,,,4,,,72,92
137280,note_on,,,,,4,0,4,,,,,3,,,72,127
137280,note_on,,,,,4,0,9,,,,,8,,,52,50
137372,note_off,,,,,92,0,2,,,,,1,,,79,0
137372,note_off,,,,,92,0,3,,,,,2,,,79,0
137372,note_off,,,,,92,0,1,,,,,0,,,79,0
137376,note_on,,,,,4,0,2,,,,,1,,,72,63
137376,note_on,,,,,4,0,3,,,,,2,,,72,108
137376,note_on,,,,,4,0,1,,,,,0,,,72,63
137468,note_off,,,,,92,0,2,,,,,1,,,72,0
137468,note_off,,,,,188,0,8,,,,,7,,,67,0
137468,note_off,,,,,0,0,8,,,,,7,,,72,0
137468,note_off,,,,,188,0,7,,,,,6,,,40,0
137468,note_off,,,,,188,0,9,,,,,8,,,52,0
137468,note_off,,,,,188,0,5,,,,,4,,,72,0
137468,note_off,,,,,188,0,6,,,,,5,,,52,0
137468,note_off,,,,,92,0,1,,,,,0,,,72,0
137468,note_off,,,,,92,0,3,,,,,2,,,72,0
137472,note_on,,,,,4,0,5,,,,,4,,,64,92
137472,note_on,,,,,4,0,2,,,,,1,,,79,63
137472,note_on,,,,,4,0,8,,,,,7,,,64,50
137472,note_on,,,,,4,0,1,,,,,0,,,79,63
137472,note_on,,,,,0,0,8,,,,,7,,,67,50
137472,note_on,,,,,4,0,9,,,,,8,,,48,50
137472,note_on,,,,,4,0,3,,,,,2,,,79,108
137472,note_on,,,,,4,0,6,,,,,5,,,48,92
137472,note_on,,,,,4,0,7,,,,,6,,,36,75
137564,note_off,,,,,92,0,3,,,,,2,,,79,0
137564,note_off,,,,,92,0,2,,,,,1,,,79,0
137564,note_off,,,,,92,0,1,,,,,0,,,79,0
137568,note_on,,,,,4,0,1,,,,,0,,,82,63
137568,note_on,,,,,4,0,3,,,,,2,,,82,108
137568,note_on,,,,,4,0,2,,,,,1,,,82,63
137600,note_off,,,,,128,0,8,,,,,7,,,60,0
137600,note_off,,,,,320,0,4,,,,,3,,,72,0
137660,note_off,,,,,0,0,8,,,,,7,,,67,0
137660,note_off,,,,,188,0,6,,,,,5,,,48,0
137660,note_off,,,,,92,0,2,,,,,1,,,82,0
137660,note_off,,,,,92,0,3,,,,,2,,,82,0
137660,note_off,,,,,188,0,7,,,,,6,,,36,0
137660,note_off,,,,,60,0,8,,,,,7,,,64,0
137660,note_off,,,,,188,0,9,,,,,8,,,48,0
137660,note_off,,,,,188,0,5,,,,,4,,,64,0
137660,note_off,,,,,92,0,1,,,,,0,,,82,0
137664,note_on,,,,,4,0,2,,,,,1,,,79,63
137664,note_on,,,,,4,0,3,,,,,2,,,79,108
137664,note_on,,,,,4,0,1,,,,,0,,,79,63
137756,note_off,,,,,92,0,3,,,,,2,,,79,0
137756,note_off,,,,,92,0,2,,,,,1,,,79,0
137756,note_off,,,,,92,0,1,,,,,0,,,79,0
137760,note_on,,,,,4,0,1,,,,,0,,,82,63
137760,note_on,,,,,4,0,2,,,,,1,,,82,63
137760,note_on,,,,,4,0,3,,,,,2,,,82,108
137852,note_off,,,,,92,0,3,,,,,2,,,82,0
137852,note_off,,,,,92,0,1,,,,,0,,,82,0
137852,note_off,,,,,92,0,2,,,,,1,,,82,0
137856,note_on,,,,,196,0,9,,,,,8,,,52,50
137856,note_on,,,,,4,0,1,,,,,0,,,80,63
137856,note_on,,,,,196,0,6,,,,,5,,,52,92
137856,note_on,,,,,196,0,7,,,,,6,,,40,75
137856,note_on,,,,,4,0,2,,,,,1,,,80,63
137856,note_on,,,,,196,0,5,,,,,4,,,60,92
137856,note_on,,,,,196,0,8,,,,,7,,,60,50
137856,note_on,,,,,0,0,8,,,,,7,,,67,50
137856,note_on,,,,,0,0,8,,,,,7,,,72,50
137856,note_on,,,,,4,0,3,,,,,2,,,80,108
137948,note_off,,,,,92,0,3,,,,,2,,,80,0
137948,note_off,,,,,92,0,1,,,,,0,,,80,0
137948,note_off,,,,,92,0,2,,,,,1,,,80,0
137952,note_on,,,,,4,0,3,,,,,2,,,79,108
137952,note_on,,,,,4,0,2,,,,,1,,,79,63
137952,note_on,,,,,4,0,1,,,,,0,,,79,63
138044,note_off,,,,,0,0,8,,,,,7,,,72,0
138044,note_off,,,,,188,0,5,,,,,4,,,60,0
138044,note_off,,,,,188,0,7,,,,,6,,,40,0
138044,note_off,,,,,188,0,8,,,,,7,,,60,0
138044,note_off,,,,,92,0,3,,,,,2,,,79,0
138044,note_off,,,,,188,0,6,,,,,5,,,52,0
138044,note_off,,,,,92,0,2,,,,,1,,,79,0
138044,note_off,,,,,92,0,1,,,,,0,,,79,0
138044,note_off,,,,,188,0,9,,,,,8,,,52,0
138044,note_off,,,,,0,0,8,,,,,7,,,67,0
138048,note_on,,,,,4,0,5,,,,,4,,,60,92
138048,note_on,,,,,4,0,3,,,,,2,,,80,108
138048,note_on,,,,,4,0,2,,,,,1,,,80,63
138048,note_on,,,,,4,0,1,,,,,0,,,80,63
138048,note_on,,,,,4,0,7,,,,,6,,,41,75
138048,note_on,,,,,4,0,6,,,,,5,,,53,92
138048,note_on,,,,,0,0,8,,,,,7,,,68,50
138048,note_on,,,,,0,0,8,,,,,7,,,65,50
138048,note_on,,,,,4,0,8,,,,,7,,,60,50
138048,note_on,,,,,4,0,9,,,,,8,,,53,50
138144,note_on,,,,,544,0,4,,,,,3,,,72,127
138236,note_off,,,,,188,0,2,,,,,1,,,80,0
138236,note_off,,,,,188,0,5,,,,,4,,,60,0
138236,note_off,,,,,92,0,4,,,,,3,,,72,0
138236,note_off,,,,,188,0,1,,,,,0,,,80,0
138236,note_off,,,,,188,0,3,,,,,2,,,80,0
138236,note_off,,,,,188,0,7,,,,,6,,,41,0
138236,note_off,,,,,188,0,6,,,,,5,,,53,0
138236,note_off,,,,,188,0,9,,,,,8,,,53,0
138240,note_on,,,,,4,0,3,,,,,2,,,65,108
138240,note_on,,,,,4,0,7,,,,,6,,,36,75
138240,note_on,,,,,4,0,4,,,,,3,,,74,127
138240,note_on,,,,,4,0,2,,,,,1,,,65,63
138240,note_on,,,,,4,0,6,,,,,5,,,48,92
138240,note_on,,,,,4,0,9,,,,,8,,,48,50
138240,note_on,,,,,4,0,5,,,,,4,,,56,92
138240,note_on,,,,,4,0,1,,,,,0,,,65,63
138332,note_off,,,,,92,0,4,,,,,3,,,74,0
138336,note_on,,,,,4,0,4,,,,,3,,,75,127
138368,note_off,,,,,0,0,8,,,,,7,,,65,0
138368,note_off,,,,,320,0,8,,,,,7,,,60,0
138368,note_off,,,,,0,0,8,,,,,7,,,68,0
138428,note_off,,,,,188,0,3,,,,,2,,,65,0
138428,note_off,,,,,188,0,5,,,,,4,,,56,0
138428,note_off,,,,,92,0,4,,,,,3,,,75,0
138428,note_off,,,,,188,0,9,,,,,8,,,48,0
138428,note_off,,,,,188,0,7,,,,,6,,,36,0
138428,note_off,,,,,188,0,1,,,,,0,,,65,0
138428,note_off,,,,,188,0,2,,,,,1,,,65,0
138428,note_off,,,,,188,0,6,,,,,5,,,48,0
138432,note_on,,,,,4,0,6,,,,,5,,,44,92
138432,note_on,,,,,4,0,9,,,,,8,,,44,50
138432,note_on,,,,,4,0,7,,,,,6,,,32,75
138432,note_on,,,,,4,0,4,,,,,3,,,77,127
138432,note_on,,,,,0,0,8,,,,,7,,,72,50
138432,note_on,,,,,4,0,5,,,,,4,,,72,92
138432,note_on,,,,,0,0,8,,,,,7,,,65,50
138432,note_on,,,,,64,0,8,,,,,7,,,60,50
138524,note_off,,,,,92,0,4,,,,,3,,,77,0
138528,note_on,,,,,4,0,4,,,,,3,,,72,127
138620,note_off,,,,,188,0,6,,,,,5,,,44,0
138620,note_off,,,,,188,0,7,,,,,6,,,32,0
138620,note_off,,,,,188,0,8,,,,,7,,,72,0
138620,note_off,,,,,92,0,4,,,,,3,,,72,0
138620,note_off,,,,,188,0,9,,,,,8,,,44,0
138620,note_off,,,,,188,0,5,,,,,4,,,72,0
138624,note_on,,,,,4,0,6,,,,,5,,,41,92
138624,note_on,,,,,4,0,7,,,,,6,,,29,75
138624,note_on,,,,,4,0,5,,,,,4,,,68,92
138624,note_on,,,,,4,0,8,,,,,7,,,68,50
138624,note_on,,,,,4,0,9,,,,,8,,,41,50
138624,note_on,,,,,4,0,4,,,,,3,,,74,127
138716,note_off,,,,,92,0,4,,,,,3,,,74,0
138720,note_on,,,,,4,0,4,,,,,3,,,75,127
138752,note_off,,,,,128,0,8,,,,,7,,,60,0
138752,note_off,,,,,0,0,8,,,,,7,,,65,0
138812,note_off,,,,,188,0,6,,,,,5,,,41,0
138812,note_off,,,,,60,0,8,,,,,7,,,68,0
138812,note_off,,,,,92,0,4,,,,,3,,,75,0
138812,note_off,,,,,188,0,5,,,,,4,,,68,0
138812,note_off,,,,,188,0,7,,,,,6,,,29,0
138812,note_off,,,,,188,0,9,,,,,8,,,41,0
138816,note_on,,,,,4,0,4,,,,,3,,,74,127
138816,note_on,,,,,4,0,6,,,,,5,,,58,92
138816,note_on,,,,,0,0,8,,,,,7,,,65,50
138816,note_on,,,,,4,0,8,,,,,7,,,62,50
138816,note_on,,,,,4,0,5,,,,,4,,,65,92
138816,note_on,,,,,4,0,7,,,,,6,,,46,75
138816,note_on,,,,,4,0,9,,,,,8,,,58,50
138912,note_on,,,,,484,0,2,,,,,1,,,77,63
138912,note_on,,,,,484,0,1,,,,,0,,,77,63
138912,note_on,,,,,484,0,3,,,,,2,,,77,108
139004,note_off,,,,,188,0,9,,,,,8,,,58,0
139004,note_off,,,,,92,0,2,,,,,1,,,77,0
139004,note_off,,,,,92,0,1,,,,,0,,,77,0
139004,note_off,,,,,188,0,7,,,,,6,,,46,0
139004,note_off,,,,,188,0,4,,,,,3,,,74,0
139004,note_off,,,,,188,0,6,,,,,5,,,58,0
139004,note_off,,,,,92,0,3,,,,,2,,,77,0
139008,note_on,,,,,4,0,2,,,,,1,,,79,63
139008,note_on,,,,,4,0,4,,,,,3,,,62,127
139008,note_on,,,,,4,0,1,,,,,0,,,79,63
139008,note_on,,,,,4,0,7,,,,,6,,,41,75
139008,note_on,,,,,4,0,6,,,,,5,,,53,92
139008,note_on,,,,,4,0,9,,,,,8,,,53,50
139008,note_on,,,,,4,0,3,,,,,2,,,79,108
139100,note_off,,,,,92,0,2,,,,,1,,,79,0
139100,note_off,,,,,92,0,3,,,,,2,,,79,0
139100,note_off,,,,,92,0,1,,,,,0,,,79,0
139104,note_on,,,,,4,0,3,,,,,2,,,80,108
139104,note_on,,,,,4,0,1,,,,,0,,,80,63
139104,note_on,,,,,4,0,2,,,,,1,,,80,63
139136,note_off,,,,,320,0,5,,,,,4,,,65,0
139136,note_off,,,,,320,0,8,,,,,7,,,62,0
139136,note_off,,,,,0,0,8,,,,,7,,,65,0
139196,note_off,,,,,188,0,7,,,,,6,,,41,0
139196,note_off,,,,,92,0,3,,,,,2,,,80,0
139196,note_off,,,,,92,0,1,,,,,0,,,80,0
139196,note_off,,,,,188,0,6,,,,,5,,,53,0
139196,note_off,,,,,188,0,4,,,,,3,,,62,0
139196,note_off,,,,,188,0,9,,,,,8,,,53,0
139196,note_off,,,,,92,0,2,,,,,1,,,80,0
139200,note_on,,,,,4,0,7,,,,,6,,,38,75
139200,note_on,,,,,0,0,8,,,,,7,,,70,50
139200,note_on,,,,,4,0,2,,,,,1,,,82,63
139200,note_on,,,,,4,0,9,,,,,8,,,50,50
139200,note_on,,,,,64,0,5,,,,,4,,,65,92
139200,note_on,,,,,4,0,3,,,,,2,,,82,108
139200,note_on,,,,,4,0,1,,,,,0,,,82,63
139200,note_on,,,,,64,0,8,,,,,7,,,65,50
139200,note_on,,,,,4,0,6,,,,,5,,,50,92
139292,note_off,,,,,92,0,2,,,,,1,,,82,0
139292,note_off,,,,,92,0,1,,,,,0,,,82,0
139292,note_off,,,,,92,0,3,,,,,2,,,82,0
139296,note_on,,,,,4,0,2,,,,,1,,,77,63
139296,note_on,,,,,4,0,3,,,,,2,,,77,108
139296,note_on,,,,,4,0,1,,,,,0,,,77,63
139388,note_off,,,,,188,0,7,,,,,6,,,38,0
139388,note_off,,,,,188,0,8,,,,,7,,,65,0
139388,note_off,,,,,92,0,2,,,,,1,,,77,0
139388,note_off,,,,,188,0,9,,,,,8,,,50,0
139388,note_off,,,,,92,0,3,,,,,2,,,77,0
139388,note_off,,,,,188,0,5,,,,,4,,,65,0
139388,note_off,,,,,188,0,6,,,,,5,,,50,0
139388,note_off,,,,,92,0,1,,,,,0,,,77,0
139392,note_on,,,,,4,0,1,,,,,0,,,79,63
139392,note_on,,,,,4,0,3,,,,,2,,,79,108
139392,note_on,,,,,4,0,5,,,,,4,,,62,92
139392,note_on,,,,,4,0,6,,,,,5,,,46,92
139392,note_on,,,,,4,0,7,,,,,6,,,34,75
139392,note_on,,,,,4,0,2,,,,,1,,,79,63
139392,note_on,,,,,4,0,8,,,,,7,,,62,50
139392,note_on,,,,,4,0,9,,,,,8,,,46,50
139484,note_off,,,,,92,0,2,,,,,1,,,79,0
139484,note_off,,,,,92,0,1,,,,,0,,,79,0
139484,note_off,,,,,92,0,3,,,,,2,,,79,0
139488,note_on,,,,,4,0,3,,,,,2,,,80,108
139488,note_on,,,,,4,0,2,,,,,1,,,80,63
139488,note_on,,,,,4,0,1,,,,,0,,,80,63
139520,note_off,,,,,128,0,8,,,,,7,,,70,0
139580,note_off,,,,,92,0,1,,,,,0,,,80,0
139580,note_off,,,,,188,0,5,,,,,4,,,62,0
139580,note_off,,,,,188,0,9,,,,,8,,,46,0
139580,note_off,,,,,188,0,6,,,,,5,,,46,0
139580,note_off,,,,,188,0,7,,,,,6,,,34,0
139580,note_off,,,,,60,0,8,,,,,7,,,62,0
139580,note_off,,,,,92,0,2,,,,,1,,,80,0
139580,note_off,,,,,92,0,3,,,,,2,,,80,0
139584,note_on,,,,,4,0,5,,,,,4,,,63,92
139584,note_on,,,,,4,0,2,,,,,1,,,79,63
139584,note_on,,,,,4,0,1,,,,,0,,,79,63
139584,note_on,,,,,4,0,7,,,,,6,,,51,75
139584,note_on,,,,,4,0,8,,,,,7,,,67,50
139584,note_on,,,,,4,0,3,,,,,2,,,79,108
139584,note_on,,,,,0,0,8,,,,,7,,,70,50
139584,note_on,,,,,4,0,9,,,,,8,,,63,50
139584,note_on,,,,,4,0,6,,,,,5,,,63,92
139680,note_on,,,,,484,0,4,,,,,3,,,70,127
139772,note_off,,,,,188,0,1,,,,,0,,,79,0
139772,note_off,,,,,188,0,3,,,,,2,,,79,0
139772,note_off,,,,,188,0,7,,,,,6,,,51,0
139772,note_off,,,,,188,0,2,,,,,1,,,79,0
139772,note_off,,,,,188,0,6,,,,,5,,,63,0
139772,note_off,,,,,188,0,9,,,,,8,,,63,0
139772,note_off,,,,,92,0,4,,,,,3,,,70,0
139776,note_on,,,,,4,0,2,,,,,1,,,67,63
139776,note_on,,,,,4,0,4,,,,,3,,,72,127
139776,note_on,,,,,4,0,7,,,,,6,,,46,75
139776,note_on,,,,,4,0,9,,,,,8,,,58,50
139776,note_on,,,,,4,0,3,,,,,2,,,67,108
139776,note_on,,,,,4,0,6,,,,,5,,,58,92
139776,note_on,,,,,4,0,1,,,,,0,,,67,63
139868,note_off,,,,,92,0,4,,,,,3,,,72,0
139872,note_on,,,,,4,0,4,,,,,3,,,74,127
139904,note_off,,,,,320,0,8,,,,,7,,,67,0
139904,note_off,,,,,0,0,8,,,,,7,,,70,0
139964,note_off,,,,,188,0,7,,,,,6,,,46,0
139964,note_off,,,,,188,0,9,,,,,8,,,58,0
139964,note_off,,,,,188,0,2,,,,,1,,,67,0
139964,note_off,,,,,188,0,1,,,,,0,,,67,0
139964,note_off,,,,,188,0,3,,,,,2,,,67,0
139964,note_off,,,,,92,0,4,,,,,3,,,74,0
139964,note_off,,,,,188,0,6,,,,,5,,,58,0
139968,note_on,,,,,4,0,4,,,,,3,,,75,127
139968,note_on,,,,,0,0,8,,,,,7,,,70,50
139968,note_on,,,,,4,0,7,,,,,6,,,43,75
139968,note_on,,,,,64,0,8,,,,,7,,,63,50
139968,note_on,,,,,4,0,6,,,,,5,,,55,92
139968,note_on,,,,,4,0,9,,,,,8,,,55,50
140060,note_off,,,,,92,0,4,,,,,3,,,75,0
140064,note_on,,,,,4,0,4,,,,,3,,,72,127
140064,note_on,,,,,100,0,3,,,,,2,,,75,108
140064,note_on,,,,,100,0,1,,,,,0,,,75,63
140064,note_on,,,,,100,0,2,,,,,1,,,75,63
140096,note_off,,,,,512,0,5,,,,,4,,,63,0
140156,note_off,,,,,92,0,3,,,,,2,,,75,0
140156,note_off,,,,,92,0,2,,,,,1,,,75,0
140156,note_off,,,,,92,0,1,,,,,0,,,75,0
140156,note_off,,,,,188,0,6,,,,,5,,,55,0
140156,note_off,,,,,188,0,7,,,,,6,,,43,0
140156,note_off,,,,,92,0,4,,,,,3,,,72,0
140156,note_off,,,,,188,0,9,,,,,8,,,55,0
140160,note_on,,,,,64,0,5,,,,,4,,,60,92
140160,note_on,,,,,4,0,1,,,,,0,,,77,63
140160,note_on,,,,,4,0,6,,,,,5,,,51,92
140160,note_on,,,,,4,0,4,,,,,3,,,74,127
140160,note_on,,,,,4,0,2,,,,,1,,,77,63
140160,note_on,,,,,192,0,8,,,,,7,,,67,50
140160,note_on,,,,,4,0,9,,,,,8,,,51,50
140160,note_on,,,,,0,0,8,,,,,7,,,72,50
140160,note_on,,,,,4,0,3,,,,,2,,,77,108
140160,note_on,,,,,4,0,7,,,,,6,,,39,75
140252,note_off,,,,,92,0,3,,,,,2,,,77,0
140252,note_off,,,,,92,0,1,,,,,0,,,77,0
140252,note_off,,,,,92,0,2,,,,,1,,,77,0
140252,note_off,,,,,92,0,4,,,,,3,,,74,0
140256,note_on,,,,,4,0,3,,,,,2,,,79,108
140256,note_on,,,,,4,0,2,,,,,1,,,79,63
140256,note_on,,,,,4,0,4,,,,,3,,,75,127
140256,note_on,,,,,4,0,1,,,,,0,,,79,63
140348,note_off,,,,,0,0,8,,,,,7,,,67,0
140348,note_off,,,,,0,0,8,,,,,7,,,72,0
140348,note_off,,,,,92,0,3,,,,,2,,,79,0
140348,note_off,,,,,188,0,9,,,,,8,,,51,0
140348,note_off,,,,,188,0,5,,,,,4,,,60,0
140348,note_off,,,,,188,0,8,,,,,7,,,63,0
140348,note_off,,,,,0,0,8,,,,,7,,,70,0
140348,note_off,,,,,92,0,2,,,,,1,,,79,0
140348,note_off,,,,,188,0,6,,,,,5,,,51,0
140348,note_off,,,,,92,0,1,,,,,0,,,79,0
140348,note_off,,,,,92,0,4,,,,,3,,,75,0
140348,note_off,,,,,188,0,7,,,,,6,,,39,0
140352,note_on,,,,,4,0,3,,,,,2,,,72,108
140352,note_on,,,,,4,0,4,,,,,3,,,68,127
140352,note_on,,,,,4,0,5,,,,,4,,,60,92
140352,note_on,,,,,4,0,8,,,,,7,,,60,50
140352,note_on,,,,,0,0,8,,,,,7,,,68,50
140352,note_on,,,,,0,0,8,,,,,7,,,72,50
140352,note_on,,,,,4,0,9,,,,,8,,,53,50
140352,note_on,,,,,4,0,7,,,,,6,,,41,75
140352,note_on,,,,,4,0,2,,,,,1,,,72,63
140352,note_on,,,,,4,0,6,,,,,5,,,53,92
140352,note_on,,,,,4,0,1,,,,,0,,,72,63
140444,note_off,,,,,92,0,4,,,,,3,,,68,0
140444,note_off,,,,,92,0,2,,,,,1,,,72,0
140444,note_off,,,,,92,0,3,,,,,2,,,72,0
140444,note_off,,,,,92,0,1,,,,,0,,,72,0
140448,note_on,,,,,4,0,1,,,,,0,,,80,63
140448,note_on,,,,,4,0,2,,,,,1,,,80,63
140448,note_on,,,,,4,0,4,,,,,3,,,77,127
140448,note_on,,,,,4,0,3,,,,,2,,,80,108
140540,note_off,,,,,92,0,1,,,,,0,,,80,0
140540,note_off,,,,,188,0,5,,,,,4,,,60,0
140540,note_off,,,,,188,0,6,,,,,5,,,53,0
140540,note_off,,,,,188,0,7,,,,,6,,,41,0
140540,note_off,,,,,92,0,4,,,,,3,,,77,0
140540,note_off,,,,,188,0,9,,,,,8,,,53,0
140540,note_off,,,,,92,0,3,,,,,2,,,80,0
140540,note_off,,,,,92,0,2,,,,,1,,,80,0
140544,note_on,,,,,4,0,6,,,,,5,,,41,92
140544,note_on,,,,,4,0,3,,,,,2,,,79,108
140544,note_on,,,,,4,0,2,,,,,1,,,79,63
140544,note_on,,,,,4,0,5,,,,,4,,,60,92
140544,note_on,,,,,4,0,1,,,,,0,,,79,63
140544,note_on,,,,,4,0,4,,,,,3,,,75,127
140544,note_on,,,,,4,0,7,,,,,6,,,29,75
140544,note_on,,,,,4,0,9,,,,,8,,,41,50
140636,note_off,,,,,92,0,3,,,,,2,,,79,0
140636,note_off,,,,,92,0,4,,,,,3,,,75,0
140636,note_off,,,,,92,0,1,,,,,0,,,79,0
140636,note_off,,,,,92,0,2,,,,,1,,,79,0
140640,note_on,,,,,4,0,2,,,,,1,,,80,63
140640,note_on,,,,,4,0,1,,,,,0,,,80,63
140640,note_on,,,,,4,0,3,,,,,2,,,80,108
140640,note_on,,,,,4,0,4,,,,,3,,,77,127
140672,note_off,,,,,0,0,8,,,,,7,,,68,0
140672,note_off,,,,,320,0,8,,,,,7,,,60,0
140672,note_off,,,,,0,0,8,,,,,7,,,72,0
140732,note_off,,,,,92,0,3,,,,,2,,,80,0
140732,note_off,,,,,92,0,2,,,,,1,,,80,0
140732,note_off,,,,,188,0,7,,,,,6,,,29,0
140732,note_off,,,,,188,0,9,,,,,8,,,41,0
140732,note_off,,,,,92,0,1,,,,,0,,,80,0
140732,note_off,,,,,188,0,5,,,,,4,,,60,0
140732,note_off,,,,,188,0,6,,,,,5,,,41,0
140732,note_off,,,,,92,0,4,,,,,3,,,77,0
140736,note_on,,,,,4,0,4,,,,,3,,,74,127
140736,note_on,,,,,4,0,2,,,,,1,,,77,63
140736,note_on,,,,,4,0,3,,,,,2,,,77,108
140736,note_on,,,,,4,0,1,,,,,0,,,77,63
140736,note_on,,,,,4,0,5,,,,,4,,,65,92
140828,note_off,,,,,92,0,3,,,,,2,,,77,0
140828,note_off,,,,,92,0,1,,,,,0,,,77,0
140828,note_off,,,,,92,0,2,,,,,1,,,77,0
140828,note_off,,,,,92,0,4,,,,,3,,,74,0
140832,note_on,,,,,4,0,4,,,,,3,,,75,127
140832,note_on,,,,,4,0,3,,,,,2,,,79,108
140832,note_on,,,,,4,0,2,,,,,1,,,79,63
140832,note_on,,,,,4,0,1,,,,,0,,,79,63
140924,note_off,,,,,92,0,4,,,,,3,,,75,0
140924,note_off,,,,,92,0,2,,,,,1,,,79,0
140924,note_off,,,,,92,0,3,,,,,2,,,79,0
140924,note_off,,,,,188,0,5,,,,,4,,,65,0
140924,note_off,,,,,92,0,1,,,,,0,,,79,0
140928,note_on,,,,,4,0,2,,,,,1,,,75,63
140928,note_on,,,,,4,0,3,,,,,2,,,75,108
140928,note_on,,,,,4,0,1,,,,,0,,,75,63
140928,note_on,,,,,4,0,5,,,,,4,,,68,92
140928,note_on,,,,,196,0,9,,,,,8,,,53,50
140928,note_on,,,,,4,0,4,,,,,3,,,72,127
140928,note_on,,,,,256,0,8,,,,,7,,,65,50
140928,note_on,,,,,0,0,8,,,,,7,,,68,50
140928,note_on,,,,,0,0,8,,,,,7,,,74,50
140928,note_on,,,,,196,0,7,,,,,6,,,41,75
140928,note_on,,,,,196,0,6,,,,,5,,,53,92
141020,note_off,,,,,92,0,3,,,,,2,,,75,0
141020,note_off,,,,,92,0,2,,,,,1,,,75,0
141020,note_off,,,,,92,0,4,,,,,3,,,72,0
141020,note_off,,,,,92,0,1,,,,,0,,,75,0
141024,note_on,,,,,4,0,1,,,,,0,,,77,63
141024,note_on,,,,,4,0,4,,,,,3,,,74,127
141024,note_on,,,,,4,0,3,,,,,2,,,77,108
141024,note_on,,,,,4,0,2,,,,,1,,,77,63
141116,note_off,,,,,0,0,8,,,,,7,,,68,0
141116,note_off,,,,,0,0,8,,,,,7,,,74,0
141116,note_off,,,,,92,0,2,,,,,1,,,77,0
141116,note_off,,,,,188,0,8,,,,,7,,,65,0
141116,note_off,,,,,188,0,5,,,,,4,,,68,0
141116,note_off,,,,,92,0,3,,,,,2,,,77,0
141116,note_off,,,,,188,0,7,,,,,6,,,41,0
141116,note_off,,,,,188,0,6,,,,,5,,,53,0
141116,note_off,,,,,92,0,1,,,,,0,,,77,0
141116,note_off,,,,,92,0,4,,,,,3,,,74,0
141116,note_off,,,,,188,0,9,,,,,8,,,53,0
141120,note_on,,,,,4,0,5,,,,,4,,,62,92
141120,note_on,,,,,4,0,7,,,,,6,,,43,75
141120,note_on,,,,,0,0,8,,,,,7,,,71,50
141120,note_on,,,,,0,0,8,,,,,7,,,67,50
141120,note_on,,,,,4,0,8,,,,,7,,,62,50
141120,note_on,,,,,4,0,6,,,,,5,,,55,92
141120,note_on,,,,,4,0,1,,,,,0,,,74,63
141120,note_on,,,,,4,0,3,,,,,2,,,74,108
141120,note_on,,,,,4,0,2,,,,,1,,,74,63
141120,note_on,,,,,4,0,9,,,,,8,,,55,50
141120,note_on,,,,,4,0,4,,,,,3,,,71,127
141212,note_off,,,,,92,0,4,,,,,3,,,71,0
141216,note_on,,,,,4,0,4,,,,,3,,,79,127
141308,note_off,,,,,188,0,9,,,,,8,,,55,0
141308,note_off,,,,,188,0,2,,,,,1,,,74,0
141308,note_off,,,,,188,0,1,,,,,0,,,74,0
141308,note_off,,,,,92,0,4,,,,,3,,,79,0
141308,note_off,,,,,188,0,7,,,,,6,,,43,0
141308,note_off,,,,,188,0,3,,,,,2,,,74,0
141308,note_off,,,,,188,0,6,,,,,5,,,55,0
141308,note_off,,,,,188,0,5,,,,,4,,,62,0
141312,note_on,,,,,4,0,2,,,,,1,,,67,63
141312,note_on,,,,,4,0,4,,,,,3,,,77,127
141312,note_on,,,,,4,0,1,,,,,0,,,67,63
141312,note_on,,,,,4,0,3,,,,,2,,,67,108
141312,note_on,,,,,4,0,9,,,,,8,,,43,50
141312,note_on,,,,,4,0,6,,,,,5,,,43,92
141312,note_on,,,,,4,0,7,,,,,6,,,31,75
141312,note_on,,,,,4,0,5,,,,,4,,,71,92
141404,note_off,,,,,92,0,4,,,,,3,,,77,0
141408,note_on,,,,,4,0,4,,,,,3,,,79,127
141440,note_off,,,,,0,0,8,,,,,7,,,71,0
141440,note_off,,,,,0,0,8,,,,,7,,,67,0
141440,note_off,,,,,320,0,8,,,,,7,,,62,0
141500,note_off,,,,,188,0,5,,,,,4,,,71,0
141500,note_off,,,,,188,0,6,,,,,5,,,43,0
141500,note_off,,,,,92,0,4,,,,,3,,,79,0
141500,note_off,,,,,188,0,2,,,,,1,,,67,0
141500,note_off,,,,,188,0,7,,,,,6,,,31,0
141500,note_off,,,,,188,0,3,,,,,2,,,67,0
141500,note_off,,,,,188,0,1,,,,,0,,,67,0
141500,note_off,,,,,188,0,9,,,,,8,,,43,0
141504,note_on,,,,,0,0,8,,,,,7,,,72,50
141504,note_on,,,,,0,0,8,,,,,7,,,67,50
141504,note_on,,,,,64,0,8,,,,,7,,,60,50
141504,note_on,,,,,4,0,7,,,,,6,,,39,75
141504,note_on,,,,,4,0,5,,,,,4,,,67,92
141504,note_on,,,,,4,0,9,,,,,8,,,51,50
141504,note_on,,,,,4,0,6,,,,,5,,,51,92
141504,note_on,,,,,4,0,4,,,,,3,,,72,127
141596,note_off,,,,,92,0,4,,,,,3,,,72,0
141600,note_on,,,,,4,0,4,,,,,3,,,75,127
141692,note_off,,,,,92,0,4,,,,,3,,,75,0
141696,note_on,,,,,4,0,4,,,,,3,,,74,127
141788,note_off,,,,,92,0,4,,,,,3,,,74,0
141792,note_on,,,,,4,0,4,,,,,3,,,75,127
141824,note_off,,,,,320,0,6,,,,,5,,,51,0
141824,note_off,,,,,0,0,8,,,,,7,,,72,0
141824,note_off,,,,,320,0,9,,,,,8,,,51,0
141824,note_off,,,,,0,0,8,,,,,7,,,67,0
141824,note_off,,,,,320,0,5,,,,,4,,,67,0
141824,note_off,,,,,320,0,8,,,,,7,,,60,0
141824,note_off,,,,,320,0,7,,,,,6,,,39,0
141884,note_off,,,,,92,0,4,,,,,3,,,75,0
141888,note_on,,,,,64,0,8,,,,,7,,,60,50
141888,note_on,,,,,0,0,8,,,,,7,,,68,50
141888,note_on,,,,,64,0,7,,,,,6,,,41,75
141888,note_on,,,,,0,0,8,,,,,7,,,65,50
141888,note_on,,,,,64,0,6,,,,,5,,,53,92
141888,note_on,,,,,64,0,5,,,,,4,,,68,92
141888,note_on,,,,,64,0,9,,,,,8,,,53,50
141888,note_on,,,,,4,0,4,,,,,3,,,72,127
141984,note_on,,,,,484,0,1,,,,,0,,,75,63
141984,note_on,,,,,484,0,3,,,,,2,,,75,108
141984,note_on,,,,,484,0,2,,,,,1,,,75,63
142076,note_off,,,,,92,0,2,,,,,1,,,75,0
142076,note_off,,,,,92,0,3,,,,,2,,,75,0
142076,note_off,,,,,92,0,1,,,,,0,,,75,0
142080,note_on,,,,,4,0,2,,,,,1,,,74,63
142080,note_on,,,,,4,0,1,,,,,0,,,74,63
142080,note_on,,,,,4,0,3,,,,,2,,,74,108
142172,note_off,,,,,92,0,2,,,,,1,,,74,0
142172,note_off,,,,,92,0,1,,,,,0,,,74,0
142172,note_off,,,,,92,0,3,,,,,2,,,74,0
142176,note_on,,,,,4,0,2,,,,,1,,,75,63
142176,note_on,,,,,4,0,3,,,,,2,,,75,108
142176,note_on,,,,,4,0,1,,,,,0,,,75,63
142208,note_off,,,,,320,0,5,,,,,4,,,68,0
142208,note_off,,,,,320,0,8,,,,,7,,,65,0
142208,note_off,,,,,0,0,8,,,,,7,,,68,0
142208,note_off,,,,,320,0,9,,,,,8,,,53,0
142208,note_off,,,,,320,0,7,,,,,6,,,41,0
142208,note_off,,,,,320,0,6,,,,,5,,,53,0
142268,note_off,,,,,92,0,1,,,,,0,,,75,0
142268,note_off,,,,,92,0,3,,,,,2,,,75,0
142268,note_off,,,,,92,0,2,,,,,1,,,75,0
142272,note_on,,,,,64,0,6,,,,,5,,,55,92
142272,note_on,,,,,64,0,8,,,,,7,,,63,50
142272,note_on,,,,,64,0,9,,,,,8,,,55,50
142272,note_on,,,,,4,0,2,,,,,1,,,72,63
142272,note_on,,,,,64,0,5,,,,,4,,,63,92
142272,note_on,,,,,0,0,8,,,,,7,,,67,50
142272,note_on,,,,,4,0,3,,,,,2,,,72,108
142272,note_on,,,,,4,0,1,,,,,0,,,72,63
142272,note_on,,,,,64,0,7,,,,,6,,,43,75
142364,note_off,,,,,92,0,2,,,,,1,,,72,0
142364,note_off,,,,,92,0,3,,,,,2,,,72,0
142364,note_off,,,,,92,0,1,,,,,0,,,72,0
142368,note_on,,,,,4,0,1,,,,,0,,,75,63
142368,note_on,,,,,4,0,3,,,,,2,,,75,108
142368,note_on,,,,,4,0,2,,,,,1,,,75,63
142460,note_off,,,,,92,0,3,,,,,2,,,75,0
142460,note_off,,,,,92,0,1,,,,,0,,,75,0
142460,note_off,,,,,92,0,2,,,,,1,,,75,0
142464,note_on,,,,,4,0,3,,,,,2,,,74,108
142464,note_on,,,,,4,0,1,,,,,0,,,74,63
142464,note_on,,,,,4,0,2,,,,,1,,,74,63
142556,note_off,,,,,92,0,1,,,,,0,,,74,0
142556,note_off,,,,,92,0,3,,,,,2,,,74,0
142556,note_off,,,,,92,0,2,,,,,1,,,74,0
142560,note_on,,,,,4,0,2,,,,,1,,,75,63
142560,note_on,,,,,4,0,1,,,,,0,,,75,63
142560,note_off,,,,,288,0,8,,,,,7,,,60,0
142560,note_on,,,,,4,0,3,,,,,2,,,75,108
142592,note_off,,,,,320,0,5,,,,,4,,,63,0
142592,note_off,,,,,32,0,8,,,,,7,,,63,0
142592,note_off,,,,,0,0,8,,,,,7,,,67,0
142592,note_off,,,,,320,0,9,,,,,8,,,55,0
142592,note_off,,,,,320,0,7,,,,,6,,,43,0
142592,note_off,,,,,320,0,6,,,,,5,,,55,0
142652,note_off,,,,,92,0,1,,,,,0,,,75,0
142652,note_off,,,,,92,0,2,,,,,1,,,75,0
142652,note_off,,,,,92,0,3,,,,,2,,,75,0
142656,note_on,,,,,64,0,9,,,,,8,,,56,50
142656,note_on,,,,,64,0,6,,,,,5,,,56,92
142656,note_on,,,,,4,0,1,,,,,0,,,72,63
142656,note_on,,,,,64,0,5,,,,,4,,,65,92
142656,note_on,,,,,4,0,2,,,,,1,,,72,63
142656,note_on,,,,,4,0,3,,,,,2,,,72,108
142656,note_on,,,,,64,0,8,,,,,7,,,60,50
142656,note_on,,,,,0,0,8,,,,,7,,,65,50
142656,note_on,,,,,64,0,7,,,,,6,,,44,75
142748,note_off,,,,,860,0,4,,,,,3,,,72,0
142752,note_on,,,,,4,0,4,,,,,3,,,75,127
142844,note_off,,,,,92,0,4,,,,,3,,,75,0
142848,note_on,,,,,4,0,4,,,,,3,,,74,127
142940,note_off,,,,,92,0,4,,,,,3,,,74,0
142944,note_on,,,,,4,0,4,,,,,3,,,75,127
142976,note_off,,,,,320,0,7,,,,,6,,,44,0
142976,note_off,,,,,320,0,9,,,,,8,,,56,0
142976,note_off,,,,,320,0,8,,,,,7,,,60,0
142976,note_off,,,,,0,0,8,,,,,7,,,65,0
142976,note_off,,,,,320,0,5,,,,,4,,,65,0
142976,note_off,,,,,320,0,6,,,,,5,,,56,0
143040,note_off,,,,,96,0,4,,,,,3,,,75,0
143040,note_on,,,,,0,0,8,,,,,7,,,72,50
143040,note_on,,,,,0,0,4,,,,,3,,,72,127
143040,note_on,,,,,64,0,6,,,,,5,,,51,92
143040,note_on,,,,,0,0,8,,,,,7,,,67,50
143040,note_on,,,,,64,0,9,,,,,8,,,51,50
143040,note_on,,,,,64,0,7,,,,,6,,,39,75
143040,note_on,,,,,64,0,8,,,,,7,,,60,50
143040,note_on,,,,,64,0,5,,,,,4,,,67,92
143132,note_off,,,,,476,0,2,,,,,1,,,72,0
143132,note_off,,,,,476,0,1,,,,,0,,,72,0
143132,note_off,,,,,476,0,3,,,,,2,,,72,0
143136,note_on,,,,,4,0,3,,,,,2,,,79,108
143136,note_on,,,,,4,0,2,,,,,1,,,79,63
143136,note_on,,,,,4,0,1,,,,,0,,,79,63
143228,note_off,,,,,92,0,3,,,,,2,,,79,0
143228,note_off,,,,,92,0,1,,,,,0,,,79,0
143228,note_off,,,,,92,0,2,,,,,1,,,79,0
143232,note_on,,,,,4,0,3,,,,,2,,,77,108
143232,note_on,,,,,4,0,2,,,,,1,,,77,63
143232,note_on,,,,,4,0,1,,,,,0,,,77,63
143324,note_off,,,,,92,0,1,,,,,0,,,77,0
143324,note_off,,,,,92,0,3,,,,,2,,,77,0
143324,note_off,,,,,92,0,2,,,,,1,,,77,0
143328,note_on,,,,,4,0,1,,,,,0,,,79,63
143328,note_on,,,,,4,0,2,,,,,1,,,79,63
143328,note_on,,,,,4,0,3,,,,,2,,,79,108
143360,note_off,,,,,0,0,8,,,,,7,,,67,0
143360,note_off,,,,,0,0,8,,,,,7,,,72,0
143360,note_off,,,,,320,0,9,,,,,8,,,51,0
143360,note_off,,,,,320,0,8,,,,,7,,,60,0
143360,note_off,,,,,320,0,6,,,,,5,,,51,0
143360,note_off,,,,,320,0,7,,,,,6,,,39,0
143360,note_off,,,,,320,0,5,,,,,4,,,67,0
143420,note_off,,,,,92,0,2,,,,,1,,,79,0
143420,note_off,,,,,92,0,3,,,,,2,,,79,0
143420,note_off,,,,,92,0,1,,,,,0,,,79,0
143424,note_on,,,,,0,0,8,,,,,7,,,65,50
143424,note_on,,,,,64,0,8,,,,,7,,,60,50
143424,note_on,,,,,4,0,3,,,,,2,,,80,108
143424,note_on,,,,,0,0,8,,,,,7,,,68,50
143424,note_on,,,,,64,0,5,,,,,4,,,65,92
143424,note_on,,,,,64,0,9,,,,,8,,,53,50
143424,note_on,,,,,64,0,7,,,,,6,,,41,75
143424,note_on,,,,,0,0,4,,,,,3,,,72,127
143424,note_off,,,,,384,0,4,,,,,3,,,72,0
143424,note_on,,,,,64,0,6,,,,,5,,,53,92
143424,note_on,,,,,4,0,1,,,,,0,,,80,63
143424,note_on,,,,,4,0,2,,,,,1,,,80,63
143516,note_off,,,,,92,0,4,,,,,3,,,72,0
143520,note_on,,,,,4,0,4,,,,,3,,,79,127
143612,note_off,,,,,92,0,4,,,,,3,,,79,0
143612,note_off,,,,,188,0,2,,,,,1,,,80,0
143612,note_off,,,,,188,0,1,,,,,0,,,80,0
143612,note_off,,,,,188,0,5,,,,,4,,,65,0
143612,note_off,,,,,188,0,3,,,,,2,,,80,0
143616,note_on,,,,,4,0,3,,,,,2,,,72,108
143616,note_on,,,,,4,0,2,,,,,1,,,72,63
143616,note_on,,,,,4,0,4,,,,,3,,,77,127
143616,note_on,,,,,4,0,5,,,,,4,,,68,92
143616,note_on,,,,,4,0,1,,,,,0,,,72,63
143708,note_off,,,,,92,0,4,,,,,3,,,77,0
143712,note_on,,,,,4,0,4,,,,,3,,,79,127
143744,note_off,,,,,320,0,9,,,,,8,,,53,0
143744,note_off,,,,,320,0,6,,,,,5,,,53,0
143744,note_off,,,,,0,0,8,,,,,7,,,68,0
143744,note_off,,,,,0,0,8,,,,,7,,,65,0
143744,note_off,,,,,320,0,8,,,,,7,,,60,0
143744,note_off,,,,,320,0,7,,,,,6,,,41,0
143804,note_off,,,,,188,0,3,,,,,2,,,72,0
143804,note_off,,,,,188,0,2,,,,,1,,,72,0
143804,note_off,,,,,92,0,4,,,,,3,,,79,0
143804,note_off,,,,,188,0,1,,,,,0,,,72,0
143804,note_off,,,,,188,0,5,,,,,4,,,68,0
143808,note_on,,,,,4,0,1,,,,,0,,,71,63
143808,note_on,,,,,64,0,7,,,,,6,,,43,75
143808,note_on,,,,,4,0,4,,,,,3,,,77,127
143808,note_on,,,,,4,0,3,,,,,2,,,71,108
143808,note_on,,,,,64,0,9,,,,,8,,,55,50
143808,note_on,,,,,4,0,2,,,,,1,,,71,63
143808,note_on,,,,,0,0,8,,,,,7,,,67,50
143808,note_on,,,,,4,0,5,,,,,4,,,62,92
143808,note_on,,,,,0,0,8,,,,,7,,,62,50
143808,note_on,,,,,64,0,8,,,,,7,,,59,50
143808,note_on,,,,,64,0,6,,,,,5,,,55,92
143900,note_off,,,,,92,0,4,,,,,3,,,77,0
143904,note_on,,,,,4,0,4,,,,,3,,,80,127
143996,note_off,,,,,188,0,3,,,,,2,,,71,0
143996,note_off,,,,,188,0,1,,,,,0,,,71,0
143996,note_off,,,,,188,0,2,,,,,1,,,71,0
143996,note_off,,,,,92,0,4,,,,,3,,,80,0
144000,note_on,,,,,4,0,3,,,,,2,,,83,108
144000,note_on,,,,,4,0,2,,,,,1,,,83,63
144000,note_on,,,,,4,0,4,,,,,3,,,79,127
144000,note_on,,,,,4,0,1,,,,,0,,,83,63
144092,note_off,,,,,92,0,4,,,,,3,,,79,0
144096,note_on,,,,,4,0,4,,,,,3,,,77,127
144128,note_off,,,,,320,0,8,,,,,7,,,59,0
144128,note_off,,,,,0,0,8,,,,,7,,,62,0
144128,note_off,,,,,0,0,8,,,,,7,,,67,0
144128,note_off,,,,,320,0,9,,,,,8,,,55,0
144128,note_off,,,,,320,0,7,,,,,6,,,43,0
144128,note_off,,,,,320,0,5,,,,,4,,,62,0
144128,note_off,,,,,320,0,6,,,,,5,,,55,0
144188,note_off,,,,,92,0,4,,,,,3,,,77,0
144188,note_off,,,,,188,0,3,,,,,2,,,83,0
144188,note_off,,,,,188,0,1,,,,,0,,,83,0
144188,note_off,,,,,188,0,2,,,,,1,,,83,0
144192,note_on,,,,,64,0,9,,,,,8,,,56,50
144192,note_on,,,,,4,0,2,,,,,1,,,84,63
144192,note_on,,,,,64,0,7,,,,,6,,,44,75
144192,note_on,,,,,4,0,4,,,,,3,,,75,127
144192,note_on,,,,,64,0,5,,,,,4,,,60,92
144192,note_on,,,,,4,0,1,,,,,0,,,84,63
144192,note_on,,,,,0,0,8,,,,,7,,,63,50
144192,note_on,,,,,64,0,8,,,,,7,,,60,50
144192,note_on,,,,,64,0,6,,,,,5,,,56,92
144192,note_on,,,,,4,0,3,,,,,2,,,84,108
144284,note_off,,,,,92,0,4,,,,,3,,,75,0
144288,note_on,,,,,4,0,4,,,,,3,,,74,127
144380,note_off,,,,,92,0,4,,,,,3,,,74,0
144384,note_on,,,,,4,0,4,,,,,3,,,75,127
144476,note_off,,,,,92,0,4,,,,,3,,,75,0
144480,note_on,,,,,4,0,4,,,,,3,,,72,127
144512,note_off,,,,,320,0,7,,,,,6,,,44,0
144512,note_off,,,,,320,0,6,,,,,5,,,56,0
144512,note_off,,,,,0,0,8,,,,,7,,,63,0
144512,note_off,,,,,320,0,8,,,,,7,,,60,0
144512,note_off,,,,,320,0,5,,,,,4,,,60,0
144512,note_off,,,,,320,0,9,,,,,8,,,56,0
144572,note_off,,,,,92,0,4,,,,,3,,,72,0
144576,note_on,,,,,64,0,9,,,,,8,,,51,50
144576,note_on,,,,,64,0,6,,,,,5,,,51,92
144576,note_on,,,,,0,0,8,,,,,7,,,67,50
144576,note_on,,,,,64,0,8,,,,,7,,,60,50
144576,note_on,,,,,64,0,7,,,,,6,,,39,75
144576,note_on,,,,,64,0,5,,,,,4,,,72,92
144576,note_on,,,,,4,0,4,,,,,3,,,79,127
144668,note_off,,,,,476,0,1,,,,,0,,,84,0
144668,note_off,,,,,476,0,2,,,,,1,,,84,0
144668,note_off,,,,,476,0,3,,,,,2,,,84,0
144672,note_on,,,,,4,0,3,,,,,2,,,72,108
144672,note_on,,,,,4,0,1,,,,,0,,,72,63
144672,note_on,,,,,4,0,2,,,,,1,,,72,63
144764,note_off,,,,,92,0,2,,,,,1,,,72,0
144764,note_off,,,,,92,0,1,,,,,0,,,72,0
144764,note_off,,,,,92,0,3,,,,,2,,,72,0
144768,note_on,,,,,4,0,2,,,,,1,,,71,63
144768,note_on,,,,,4,0,3,,,,,2,,,71,108
144768,note_on,,,,,4,0,1,,,,,0,,,71,63
144860,note_off,,,,,92,0,3,,,,,2,,,71,0
144860,note_off,,,,,92,0,1,,,,,0,,,71,0
144860,note_off,,,,,92,0,2,,,,,1,,,71,0
144864,note_on,,,,,4,0,1,,,,,0,,,72,63
144864,note_on,,,,,4,0,2,,,,,1,,,72,63
144864,note_on,,,,,4,0,3,,,,,2,,,72,108
144896,note_off,,,,,320,0,8,,,,,7,,,60,0
144896,note_off,,,,,320,0,6,,,,,5,,,51,0
144896,note_off,,,,,320,0,7,,,,,6,,,39,0
144896,note_off,,,,,320,0,9,,,,,8,,,51,0
144896,note_off,,,,,0,0,8,,,,,7,,,67,0
144956,note_off,,,,,92,0,1,,,,,0,,,72,0
144956,note_off,,,,,92,0,2,,,,,1,,,72,0
144956,note_off,,,,,92,0,3,,,,,2,,,72,0
144960,note_on,,,,,4,0,3,,,,,2,,,80,108
144960,note_on,,,,,64,0,9,,,,,8,,,53,50
144960,note_on,,,,,64,0,8,,,,,7,,,60,50
144960,note_on,,,,,64,0,7,,,,,6,,,41,75
144960,note_on,,,,,0,0,8,,,,,7,,,68,50
144960,note_on,,,,,4,0,1,,,,,0,,,80,63
144960,note_on,,,,,64,0,6,,,,,5,,,53,92
144960,note_on,,,,,4,0,2,,,,,1,,,80,63
144960,note_on,,,,,0,0,8,,,,,7,,,67,50
145148,note_off,,,,,572,0,4,,,,,3,,,79,0
145148,note_off,,,,,188,0,8,,,,,7,,,67,0
145152,note_on,,,,,4,0,4,,,,,3,,,77,127
145152,note_on,,,,,4,0,8,,,,,7,,,65,50
145244,note_off,,,,,284,0,1,,,,,0,,,80,0
145244,note_off,,,,,284,0,2,,,,,1,,,80,0
145244,note_off,,,,,284,0,3,,,,,2,,,80,0
145248,note_on,,,,,4,0,2,,,,,1,,,79,63
145248,note_on,,,,,4,0,3,,,,,2,,,79,108
145248,note_on,,,,,4,0,1,,,,,0,,,79,63
145280,note_off,,,,,704,0,5,,,,,4,,,72,0
145280,note_off,,,,,320,0,6,,,,,5,,,53,0
145280,note_off,,,,,320,0,7,,,,,6,,,41,0
145280,note_off,,,,,320,0,9,,,,,8,,,53,0
145340,note_off,,,,,0,0,8,,,,,7,,,65,0
145340,note_off,,,,,0,0,8,,,,,7,,,68,0
145340,note_off,,,,,92,0,2,,,,,1,,,79,0
145340,note_off,,,,,92,0,1,,,,,0,,,79,0
145340,note_off,,,,,92,0,3,,,,,2,,,79,0
145340,note_off,,,,,188,0,8,,,,,7,,,60,0
145340,note_off,,,,,188,0,4,,,,,3,,,77,0
145344,note_on,,,,,64,0,6,,,,,5,,,56,92
145344,note_on,,,,,64,0,9,,,,,8,,,56,50
145344,note_on,,,,,4,0,1,,,,,0,,,77,63
145344,note_on,,,,,4,0,3,,,,,2,,,77,108
145344,note_on,,,,,0,0,8,,,,,7,,,72,50
145344,note_on,,,,,64,0,7,,,,,6,,,44,75
145344,note_on,,,,,64,0,5,,,,,4,,,60,92
145344,note_on,,,,,4,0,2,,,,,1,,,77,63
145344,note_on,,,,,4,0,4,,,,,3,,,65,127
145344,note_on,,,,,4,0,8,,,,,7,,,60,50
145344,note_on,,,,,0,0,8,,,,,7,,,65,50
145436,note_off,,,,,92,0,3,,,,,2,,,77,0
145436,note_off,,,,,92,0,1,,,,,0,,,77,0
145436,note_off,,,,,92,0,2,,,,,1,,,77,0
145440,note_on,,,,,4,0,2,,,,,1,,,75,63
145440,note_on,,,,,4,0,3,,,,,2,,,75,108
145440,note_on,,,,,4,0,1,,,,,0,,,75,63
145532,note_off,,,,,92,0,2,,,,,1,,,75,0
145532,note_off,,,,,92,0,3,,,,,2,,,75,0
145532,note_off,,,,,92,0,1,,,,,0,,,75,0
145536,note_on,,,,,4,0,1,,,,,0,,,74,63
145536,note_on,,,,,4,0,3,,,,,2,,,74,108
145536,note_on,,,,,4,0,2,,,,,1,,,74,63
145628,note_off,,,,,92,0,3,,,,,2,,,74,0
145628,note_off,,,,,92,0,1,,,,,0,,,74,0
145628,note_off,,,,,92,0,2,,,,,1,,,74,0
145632,note_on,,,,,4,0,3,,,,,2,,,72,108
145632,note_on,,,,,4,0,1,,,,,0,,,72,63
145632,note_on,,,,,4,0,2,,,,,1,,,72,63
145664,note_off,,,,,320,0,7,,,,,6,,,44,0
145664,note_off,,,,,320,0,6,,,,,5,,,56,0
145664,note_off,,,,,320,0,5,,,,,4,,,60,0
145664,note_off,,,,,320,0,8,,,,,7,,,60,0
145664,note_off,,,,,0,0,8,,,,,7,,,65,0
145664,note_off,,,,,320,0,9,,,,,8,,,56,0
145664,note_off,,,,,0,0,8,,,,,7,,,72,0
145664,note_off,,,,,320,0,4,,,,,3,,,65,0
145724,note_off,,,,,92,0,1,,,,,0,,,72,0
145724,note_off,,,,,92,0,3,,,,,2,,,72,0
145724,note_off,,,,,92,0,2,,,,,1,,,72,0
145728,note_on,,,,,0,0,8,,,,,7,,,67,50
145728,note_on,,,,,0,0,8,,,,,7,,,71,50
145728,note_on,,,,,64,0,4,,,,,3,,,67,127
145728,note_on,,,,,4,0,1,,,,,0,,,71,63
145728,note_on,,,,,64,0,5,,,,,4,,,62,92
145728,note_on,,,,,64,0,9,,,,,8,,,55,50
145728,note_on,,,,,4,0,2,,,,,1,,,71,63
145728,note_on,,,,,64,0,6,,,,,5,,,55,92
145728,note_on,,,,,64,0,7,,,,,6,,,43,75
145728,note_on,,,,,64,0,8,,,,,7,,,62,50
145728,note_on,,,,,4,0,3,,,,,2,,,71,108
146012,note_off,,,,,284,0,1,,,,,0,,,71,0
146012,note_off,,,,,284,0,2,,,,,1,,,71,0
146012,note_off,,,,,284,0,3,,,,,2,,,71,0
146016,note_on,,,,,4,0,2,,,,,1,,,69,63
146016,note_on,,,,,4,0,1,,,,,0,,,69,63
146016,note_on,,,,,4,0,3,,,,,2,,,69,108
146048,note_off,,,,,320,0,6,,,,,5,,,55,0
146048,note_off,,,,,320,0,5,,,,,4,,,62,0
146048,note_off,,,,,320,0,4,,,,,3,,,67,0
146048,note_off,,,,,320,0,8,,,,,7,,,62,0
146048,note_off,,,,,320,0,9,,,,,8,,,55,0
146048,note_off,,,,,0,0,8,,,,,7,,,67,0
146048,note_off,,,,,320,0,7,,,,,6,,,43,0
146048,note_off,,,,,0,0,8,,,,,7,,,71,0
146108,note_off,,,,,92,0,2,,,,,1,,,69,0
146108,note_off,,,,,92,0,1,,,,,0,,,69,0
146108,note_off,,,,,92,0,3,,,,,2,,,69,0
146112,note_on,,,,,0,0,8,,,,,7,,,67,50
146112,note_on,,,,,64,0,6,,,,,5,,,47,92
146112,note_on,,,,,4,0,2,,,,,1,,,67,63
146112,note_on,,,,,64,0,5,,,,,4,,,55,92
146112,note_on,,,,,64,0,4,,,,,3,,,62,127
146112,note_on,,,,,64,0,8,,,,,7,,,62,50
146112,note_on,,,,,64,0,9,,,,,8,,,47,50
146112,note_on,,,,,4,0,3,,,,,2,,,67,108
146112,note_on,,,,,0,0,8,,,,,7,,,74,50
146112,note_on,,,,,64,0,7,,,,,6,,,35,75
146112,note_on,,,,,4,0,1,,,,,0,,,67,63
146204,note_off,,,,,92,0,3,,,,,2,,,67,0
146204,note_off,,,,,92,0,1,,,,,0,,,67,0
146204,note_off,,,,,92,0,2,,,,,1,,,67,0
146208,note_on,,,,,4,0,1,,,,,0,,,65,63
146208,note_on,,,,,4,0,3,,,,,2,,,65,108
146208,note_on,,,,,4,0,2,,,,,1,,,65,63
146300,note_off,,,,,92,0,1,,,,,0,,,65,0
146300,note_off,,,,,92,0,3,,,,,2,,,65,0
146300,note_off,,,,,92,0,2,,,,,1,,,65,0
146304,note_on,,,,,4,0,1,,,,,0,,,63,63
146304,note_on,,,,,4,0,3,,,,,2,,,63,108
146304,note_on,,,,,4,0,2,,,,,1,,,63,63
146396,note_off,,,,,92,0,2,,,,,1,,,63,0
146396,note_off,,,,,92,0,3,,,,,2,,,63,0
146396,note_off,,,,,92,0,1,,,,,0,,,63,0
146400,note_on,,,,,4,0,1,,,,,0,,,62,63
146400,note_on,,,,,4,0,2,,,,,1,,,62,63
146400,note_on,,,,,4,0,3,,,,,2,,,62,108
146432,note_off,,,,,0,0,8,,,,,7,,,67,0
146432,note_off,,,,,320,0,8,,,,,7,,,62,0
146432,note_off,,,,,320,0,7,,,,,6,,,35,0
146432,note_off,,,,,320,0,6,,,,,5,,,47,0
146432,note_off,,,,,0,0,8,,,,,7,,,74,0
146432,note_off,,,,,320,0,9,,,,,8,,,47,0
146432,note_off,,,,,320,0,4,,,,,3,,,62,0
146432,note_off,,,,,320,0,5,,,,,4,,,55,0
146492,note_off,,,,,92,0,1,,,,,0,,,62,0
146492,note_off,,,,,92,0,3,,,,,2,,,62,0
146492,note_off,,,,,92,0,2,,,,,1,,,62,0
146496,note_on,,,,,64,0,9,,,,,8,,,48,50
146496,note_on,,,,,4,0,1,,,,,0,,,63,63
146496,note_on,,,,,64,0,7,,,,,6,,,36,75
146496,note_on,,,,,64,0,4,,,,,3,,,60,127
146496,note_on,,,,,0,0,8,,,,,7,,,72,50
146496,note_on,,,,,0,0,8,,,,,7,,,67,50
146496,note_on,,,,,64,0,8,,,,,7,,,63,50
146496,note_on,,,,,4,0,2,,,,,1,,,63,63
146496,note_on,,,,,64,0,6,,,,,5,,,48,92
146496,note_on,,,,,64,0,5,,,,,4,,,55,92
146496,note_on,,,,,4,0,3,,,,,2,,,63,108
146684,note_off,,,,,188,0,6,,,,,5,,,48,0
146684,note_off,,,,,188,0,2,,,,,1,,,63,0
146684,note_off,,,,,188,0,1,,,,,0,,,63,0
146684,note_off,,,,,188,0,9,,,,,8,,,48,0
146684,note_off,,,,,188,0,7,,,,,6,,,36,0
146684,note_off,,,,,188,0,3,,,,,2,,,63,0
146688,note_on,,,,,4,0,6,,,,,5,,,56,92
146688,note_on,,,,,4,0,9,,,,,8,,,56,50
146688,note_on,,,,,4,0,7,,,,,6,,,44,75
146688,note_on,,,,,4,0,3,,,,,2,,,72,108
146688,note_on,,,,,4,0,2,,,,,1,,,72,63
146688,note_on,,,,,0,0,8,,,,,7,,,68,50
146688,note_off,,,,,192,0,8,,,,,7,,,67,0
146688,note_on,,,,,4,0,1,,,,,0,,,72,63
146816,note_off,,,,,320,0,5,,,,,4,,,55,0
146816,note_off,,,,,320,0,4,,,,,3,,,60,0
146876,note_off,,,,,188,0,9,,,,,8,,,56,0
146876,note_off,,,,,188,0,2,,,,,1,,,72,0
146876,note_off,,,,,188,0,1,,,,,0,,,72,0
146876,note_off,,,,,188,0,6,,,,,5,,,56,0
146876,note_off,,,,,188,0,7,,,,,6,,,44,0
146876,note_off,,,,,188,0,3,,,,,2,,,72,0
146880,note_on,,,,,0,0,8,,,,,7,,,72,50
146880,note_on,,,,,0,0,8,,,,,7,,,62,50
146880,note_off,,,,,0,0,8,,,,,7,,,72,0
146880,note_off,,,,,192,0,8,,,,,7,,,63,0
146880,note_on,,,,,4,0,7,,,,,6,,,41,75
146880,note_on,,,,,4,0,3,,,,,2,,,62,108
146880,note_on,,,,,4,0,6,,,,,5,,,53,92
146880,note_on,,,,,4,0,1,,,,,0,,,62,63
146880,note_on,,,,,4,0,2,,,,,1,,,62,63
146880,note_on,,,,,4,0,9,,,,,8,,,53,50
147068,note_off,,,,,188,0,3,,,,,2,,,62,0
147068,note_off,,,,,188,0,6,,,,,5,,,53,0
147068,note_off,,,,,188,0,7,,,,,6,,,41,0
147068,note_off,,,,,188,0,1,,,,,0,,,62,0
147068,note_off,,,,,188,0,2,,,,,1,,,62,0
147068,note_off,,,,,188,0,8,,,,,7,,,68,0
147068,note_off,,,,,0,0,8,,,,,7,,,72,0
147068,note_off,,,,,188,0,9,,,,,8,,,53,0
147072,note_on,,,,,4,0,1,,,,,0,,,71,63
147072,note_on,,,,,0,0,8,,,,,7,,,71,50
147072,note_on,,,,,4,0,6,,,,,5,,,55,92
147072,note_on,,,,,4,0,9,,,,,8,,,55,50
147072,note_on,,,,,4,0,8,,,,,7,,,67,50
147072,note_on,,,,,4,0,2,,,,,1,,,71,63
147072,note_on,,,,,4,0,3,,,,,2,,,71,108
147072,note_on,,,,,4,0,7,,,,,6,,,43,75
147200,note_off,,,,,128,0,8,,,,,7,,,62,0
147260,note_off,,,,,188,0,2,,,,,1,,,71,0
147260,note_off,,,,,188,0,1,,,,,0,,,71,0
147260,note_off,,,,,188,0,9,,,,,8,,,55,0
147260,note_off,,,,,188,0,6,,,,,5,,,55,0
147260,note_off,,,,,188,0,7,,,,,6,,,43,0
147260,note_off,,,,,188,0,3,,,,,2,,,71,0
147260,note_off,,,,,0,0,8,,,,,7,,,71,0
147260,note_off,,,,,60,0,8,,,,,7,,,67,0
147264,note_on,,,,,448,0,4,,,,,3,,,58,127
147264,note_on,,,,,4,0,1,,,,,0,,,61,88
147264,note_on,,,,,4,0,8,,,,,7,,,61,50
147264,note_on,,,,,4,0,7,,,,,6,,,40,75
147264,note_on,,,,,0,0,8,,,,,7,,,67,50
147264,note_on,,,,,4,0,2,,,,,1,,,61,88
147264,note_on,,,,,0,0,8,,,,,7,,,70,50
147264,note_on,,,,,4,0,3,,,,,2,,,61,127
147264,note_on,,,,,448,0,5,,,,,4,,,55,92
147264,note_on,,,,,4,0,6,,,,,5,,,52,92
147264,note_on,,,,,4,0,9,,,,,8,,,52,50
147584,note_off,,,,,320,0,4,,,,,3,,,58,0
147584,note_off,,,,,320,0,5,,,,,4,,,55,0
147840,note_on,,,,,256,0,4,,,,,3,,,70,75
147840,note_on,,,,,256,0,5,,,,,4,,,70,60
147936,note_off,,,,,0,0,8,,,,,7,,,70,0
147936,note_off,,,,,672,0,1,,,,,0,,,61,0
147936,note_off,,,,,672,0,6,,,,,5,,,52,0
147936,note_off,,,,,672,0,3,,,,,2,,,61,0
147936,note_off,,,,,672,0,9,,,,,8,,,52,0
147936,note_off,,,,,672,0,8,,,,,7,,,61,0
147936,note_off,,,,,0,0,8,,,,,7,,,67,0
147936,note_off,,,,,672,0,7,,,,,6,,,40,0
147936,note_off,,,,,672,0,2,,,,,1,,,61,0
148028,note_off,,,,,188,0,5,,,,,4,,,70,0
148028,note_off,,,,,188,0,4,,,,,3,,,70,0
148032,note_on,,,,,4,0,5,,,,,4,,,73,60
148032,note_on,,,,,4,0,4,,,,,3,,,73,75
148224,note_off,,,,,192,0,5,,,,,4,,,73,0
148224,note_off,,,,,192,0,4,,,,,3,,,73,0
148224,note_on,,,,,0,0,4,,,,,3,,,70,75
148224,note_on,,,,,0,0,5,,,,,4,,,70,60
148412,note_off,,,,,188,0,5,,,,,4,,,70,0
148412,note_off,,,,,188,0,4,,,,,3,,,70,0
148416,note_on,,,,,4,0,5,,,,,4,,,67,60
148416,note_on,,,,,4,0,4,,,,,3,,,67,75
148604,note_off,,,,,188,0,5,,,,,4,,,67,0
148604,note_off,,,,,188,0,4,,,,,3,,,67,0
148608,note_on,,,,,4,0,4,,,,,3,,,65,75
148608,note_on,,,,,4,0,5,,,,,4,,,65,60
148704,note_off,,,,,96,0,5,,,,,4,,,65,0
148704,note_off,,,,,96,0,4,,,,,3,,,65,0
148704,note_on,,,,,0,0,5,,,,,4,,,67,60
148704,note_on,,,,,0,0,4,,,,,3,,,67,75
148796,note_off,,,,,92,0,5,,,,,4,,,67,0
148796,note_off,,,,,92,0,4,,,,,3,,,67,0
148800,note_on,,,,,4,0,5,,,,,4,,,64,60
148800,note_on,,,,,4,0,4,,,,,3,,,64,75
149120,note_off,,,,,320,0,5,,,,,4,,,64,0
149120,note_off,,,,,320,0,4,,,,,3,,,64,0
149376,note_on,,,,,256,0,4,,,,,3,,,70,127
149376,note_on,,,,,1440,0,7,,,,,6,,,40,75
149376,note_on,,,,,256,0,5,,,,,4,,,67,92
149376,note_on,,,,,1440,0,2,,,,,1,,,73,63
149376,note_on,,,,,1440,0,8,,,,,7,,,61,50
149376,note_on,,,,,0,0,8,,,,,7,,,67,50
149376,note_on,,,,,0,0,8,,,,,7,,,70,50
149376,note_on,,,,,1440,0,3,,,,,2,,,73,92
149376,note_on,,,,,1440,0,1,,,,,0,,,73,63
149376,note_on,,,,,1440,0,6,,,,,5,,,52,92
149376,note_on,,,,,1440,0,9,,,,,8,,,52,50
149564,note_off,,,,,0,0,8,,,,,7,,,70,0
149564,note_off,,,,,188,0,7,,,,,6,,,40,0
149564,note_off,,,,,188,0,6,,,,,5,,,52,0
149564,note_off,,,,,188,0,9,,,,,8,,,52,0
149564,note_off,,,,,188,0,4,,,,,3,,,70,0
149564,note_off,,,,,188,0,2,,,,,1,,,73,0
149564,note_off,,,,,188,0,8,,,,,7,,,61,0
149564,note_off,,,,,0,0,8,,,,,7,,,67,0
149564,note_off,,,,,188,0,5,,,,,4,,,67,0
149564,note_off,,,,,188,0,1,,,,,0,,,73,0
149564,note_off,,,,,188,0,3,,,,,2,,,73,0
149568,note_on,,,,,4,0,6,,,,,5,,,53,92
149568,note_on,,,,,4,0,3,,,,,2,,,73,92
149568,note_on,,,,,4,0,2,,,,,1,,,73,63
149568,note_on,,,,,4,0,1,,,,,0,,,73,63
149568,note_on,,,,,4,0,9,,,,,8,,,53,50
149568,note_on,,,,,0,0,8,,,,,7,,,70,50
149568,note_on,,,,,4,0,7,,,,,6,,,41,75
149568,note_on,,,,,4,0,5,,,,,4,,,65,92
149568,note_on,,,,,4,0,8,,,,,7,,,61,50
149568,note_on,,,,,0,0,8,,,,,7,,,65,50
149568,note_on,,,,,4,0,4,,,,,3,,,70,127
149756,note_off,,,,,188,0,1,,,,,0,,,73,0
149756,note_off,,,,,0,0,8,,,,,7,,,70,0
149756,note_off,,,,,188,0,8,,,,,7,,,61,0
149756,note_off,,,,,188,0,7,,,,,6,,,41,0
149756,note_off,,,,,188,0,3,,,,,2,,,73,0
149756,note_off,,,,,188,0,9,,,,,8,,,53,0
149756,note_off,,,,,188,0,2,,,,,1,,,73,0
149756,note_off,,,,,188,0,4,,,,,3,,,70,0
149756,note_off,,,,,188,0,6,,,,,5,,,53,0
149760,note_on,,,,,4,0,4,,,,,3,,,68,127
149760,note_on,,,,,4,0,7,,,,,6,,,29,75
149760,note_on,,,,,4,0,1,,,,,0,,,72,63
149760,note_on,,,,,4,0,3,,,,,2,,,72,92
149760,note_on,,,,,4,0,6,,,,,5,,,41,92
149760,note_on,,,,,0,0,8,,,,,7,,,68,50
149760,note_on,,,,,4,0,8,,,,,7,,,60,50
149760,note_on,,,,,4,0,9,,,,,8,,,41,50
149760,note_on,,,,,4,0,2,,,,,1,,,72,63
149888,note_off,,,,,320,0,5,,,,,4,,,65,0
149948,note_off,,,,,0,0,8,,,,,7,,,68,0
149948,note_off,,,,,188,0,2,,,,,1,,,72,0
149948,note_off,,,,,188,0,9,,,,,8,,,41,0
149948,note_off,,,,,0,0,8,,,,,7,,,60,0
149948,note_off,,,,,188,0,1,,,,,0,,,72,0
149948,note_off,,,,,188,0,4,,,,,3,,,68,0
149948,note_off,,,,,188,0,7,,,,,6,,,29,0
149948,note_off,,,,,188,0,3,,,,,2,,,72,0
149948,note_off,,,,,188,0,6,,,,,5,,,41,0
149948,note_off,,,,,188,0,8,,,,,7,,,65,0
149952,note_on,,,,,4,0,2,,,,,1,,,77,63
149952,note_on,,,,,4,0,1,,,,,0,,,77,63
149952,note_on,,,,,4,0,3,,,,,2,,,77,92
150140,note_off,,,,,188,0,3,,,,,2,,,77,0
150140,note_off,,,,,188,0,2,,,,,1,,,77,0
150140,note_off,,,,,188,0,1,,,,,0,,,77,0
150144,note_on,,,,,4,0,3,,,,,2,,,68,92
150144,note_on,,,,,196,0,9,,,,,8,,,50,50
150144,note_on,,,,,196,0,8,,,,,7,,,65,50
150144,note_on,,,,,196,0,6,,,,,5,,,50,92
150144,note_on,,,,,0,0,8,,,,,7,,,68,50
150144,note_on,,,,,4,0,1,,,,,0,,,68,63
150144,note_on,,,,,4,0,2,,,,,1,,,68,63
150144,note_on,,,,,256,0,5,,,,,4,,,68,92
150144,note_on,,,,,196,0,4,,,,,3,,,65,127
150144,note_on,,,,,196,0,7,,,,,6,,,38,75
150332,note_off,,,,,188,0,5,,,,,4,,,68,0
150332,note_off,,,,,188,0,6,,,,,5,,,50,0
150332,note_off,,,,,188,0,4,,,,,3,,,65,0
150332,note_off,,,,,188,0,2,,,,,1,,,68,0
150332,note_off,,,,,188,0,1,,,,,0,,,68,0
150332,note_off,,,,,188,0,8,,,,,7,,,65,0
150332,note_off,,,,,0,0,8,,,,,7,,,68,0
150332,note_off,,,,,188,0,9,,,,,8,,,50,0
150332,note_off,,,,,188,0,7,,,,,6,,,38,0
150332,note_off,,,,,188,0,3,,,,,2,,,68,0
150336,note_on,,,,,4,0,4,,,,,3,,,62,127
150336,note_on,,,,,0,0,8,,,,,7,,,68,50
150336,note_on,,,,,4,0,6,,,,,5,,,47,92
150336,note_on,,,,,4,0,3,,,,,2,,,68,92
150336,note_on,,,,,4,0,5,,,,,4,,,59,92
150336,note_on,,,,,4,0,8,,,,,7,,,62,50
150336,note_on,,,,,4,0,9,,,,,8,,,47,50
150336,note_on,,,,,0,0,8,,,,,7,,,65,50
150336,note_on,,,,,4,0,2,,,,,1,,,68,63
150336,note_on,,,,,4,0,7,,,,,6,,,35,75
150336,note_on,,,,,4,0,1,,,,,0,,,68,63
150524,note_off,,,,,188,0,1,,,,,0,,,68,0
150524,note_off,,,,,188,0,2,,,,,1,,,68,0
150524,note_off,,,,,188,0,3,,,,,2,,,68,0
150524,note_off,,,,,188,0,8,,,,,7,,,68,0
150528,note_on,,,,,4,0,3,,,,,2,,,67,92
150528,note_on,,,,,4,0,8,,,,,7,,,67,50
150528,note_on,,,,,4,0,2,,,,,1,,,67,63
150528,note_on,,,,,4,0,1,,,,,0,,,67,63
150656,note_off,,,,,320,0,6,,,,,5,,,47,0
150656,note_off,,,,,128,0,8,,,,,7,,,62,0
150656,note_off,,,,,320,0,4,,,,,3,,,62,0
150656,note_off,,,,,320,0,9,,,,,8,,,47,0
150656,note_off,,,,,0,0,8,,,,,7,,,65,0
150656,note_off,,,,,320,0,7,,,,,6,,,35,0
150656,note_off,,,,,320,0,5,,,,,4,,,59,0
150716,note_off,,,,,60,0,8,,,,,7,,,67,0
150716,note_off,,,,,188,0,1,,,,,0,,,67,0
150716,note_off,,,,,188,0,3,,,,,2,,,67,0
150716,note_off,,,,,188,0,2,,,,,1,,,67,0
150720,note_on,,,,,4,0,2,,,,,1,,,73,63
150720,note_on,,,,,4,0,1,,,,,0,,,73,63
150720,note_on,,,,,4,0,3,,,,,2,,,73,92
150908,note_off,,,,,188,0,1,,,,,0,,,73,0
150908,note_off,,,,,188,0,3,,,,,2,,,73,0
150908,note_off,,,,,188,0,2,,,,,1,,,73,0
150912,note_on,,,,,256,0,7,,,,,6,,,35,75
150912,note_on,,,,,256,0,5,,,,,4,,,55,92
150912,note_on,,,,,256,0,4,,,,,3,,,62,127
150912,note_on,,,,,256,0,6,,,,,5,,,47,92
150912,note_on,,,,,4,0,3,,,,,2,,,65,92
150912,note_on,,,,,0,0,8,,,,,7,,,67,50
150912,note_on,,,,,4,0,1,,,,,0,,,65,63
150912,note_on,,,,,0,0,8,,,,,7,,,65,50
150912,note_on,,,,,256,0,9,,,,,8,,,47,50
150912,note_on,,,,,4,0,2,,,,,1,,,65,63
150912,note_on,,,,,196,0,8,,,,,7,,,62,50
151100,note_off,,,,,0,0,8,,,,,7,,,65,0
151100,note_off,,,,,0,0,8,,,,,7,,,67,0
151100,note_off,,,,,188,0,7,,,,,6,,,35,0
151100,note_off,,,,,188,0,5,,,,,4,,,55,0
151100,note_off,,,,,188,0,9,,,,,8,,,47,0
151100,note_off,,,,,188,0,3,,,,,2,,,65,0
151100,note_off,,,,,188,0,2,,,,,1,,,65,0
151100,note_off,,,,,188,0,4,,,,,3,,,62,0
151100,note_off,,,,,188,0,6,,,,,5,,,47,0
151100,note_off,,,,,188,0,8,,,,,7,,,62,0
151100,note_off,,,,,188,0,1,,,,,0,,,65,0
151104,note_on,,,,,4,0,5,,,,,4,,,55,92
151104,note_on,,,,,4,0,3,,,,,2,,,63,92
151104,note_on,,,,,4,0,4,,,,,3,,,60,127
151104,note_on,,,,,4,0,6,,,,,5,,,48,92
151104,note_on,,,,,4,0,2,,,,,1,,,63,63
151104,note_on,,,,,4,0,1,,,,,0,,,63,63
151104,note_on,,,,,4,0,8,,,,,7,,,60,50
151104,note_on,,,,,4,0,7,,,,,6,,,36,75
151104,note_on,,,,,0,0,8,,,,,7,,,67,50
151104,note_on,,,,,0,0,8,,,,,7,,,63,50
151104,note_on,,,,,4,0,9,,,,,8,,,48,50
151292,note_off,,,,,188,0,7,,,,,6,,,36,0
151292,note_off,,,,,188,0,2,,,,,1,,,63,0
151292,note_off,,,,,188,0,9,,,,,8,,,48,0
151292,note_off,,,,,188,0,6,,,,,5,,,48,0
151292,note_off,,,,,188,0,1,,,,,0,,,63,0
151292,note_off,,,,,188,0,3,,,,,2,,,63,0
151296,note_on,,,,,4,0,9,,,,,8,,,51,50
151296,note_on,,,,,4,0,7,,,,,6,,,39,75
151296,note_on,,,,,4,0,6,,,,,5,,,51,92
151296,note_on,,,,,4,0,3,,,,,2,,,72,92
151296,note_on,,,,,4,0,2,,,,,1,,,72,63
151296,note_on,,,,,4,0,1,,,,,0,,,72,63
151424,note_off,,,,,320,0,4,,,,,3,,,60,0
151424,note_off,,,,,320,0,5,,,,,4,,,55,0
151424,note_off,,,,,0,0,8,,,,,7,,,63,0
151424,note_off,,,,,320,0,8,,,,,7,,,60,0
151424,note_off,,,,,0,0,8,,,,,7,,,67,0
151484,note_off,,,,,188,0,6,,,,,5,,,51,0
151484,note_off,,,,,188,0,1,,,,,0,,,72,0
151484,note_off,,,,,188,0,2,,,,,1,,,72,0
151484,note_off,,,,,188,0,9,,,,,8,,,51,0
151484,note_off,,,,,188,0,3,,,,,2,,,72,0
151484,note_off,,,,,188,0,7,,,,,6,,,39,0
151488,note_on,,,,,4,0,2,,,,,1,,,63,63
151488,note_on,,,,,0,0,8,,,,,7,,,63,50
151488,note_on,,,,,0,0,8,,,,,7,,,67,50
151488,note_on,,,,,4,0,1,,,,,0,,,63,63
151488,note_on,,,,,64,0,8,,,,,7,,,60,50
151488,note_on,,,,,4,0,9,,,,,8,,,55,50
151488,note_on,,,,,4,0,6,,,,,5,,,55,92
151488,note_on,,,,,4,0,7,,,,,6,,,43,75
151488,note_on,,,,,4,0,3,,,,,2,,,63,92
151676,note_off,,,,,188,0,3,,,,,2,,,63,0
151676,note_off,,,,,0,0,8,,,,,7,,,63,0
151676,note_off,,,,,188,0,8,,,,,7,,,60,0
151676,note_off,,,,,188,0,1,,,,,0,,,63,0
151676,note_off,,,,,188,0,2,,,,,1,,,63,0
151676,note_off,,,,,188,0,9,,,,,8,,,55,0
151676,note_off,,,,,188,0,6,,,,,5,,,55,0
151676,note_off,,,,,188,0,7,,,,,6,,,43,0
151680,note_on,,,,,0,0,8,,,,,7,,,62,50
151680,note_on,,,,,4,0,1,,,,,0,,,62,63
151680,note_on,,,,,4,0,8,,,,,7,,,59,50
151680,note_on,,,,,4,0,3,,,,,2,,,62,92
151680,note_on,,,,,4,0,2,,,,,1,,,62,63
151680,note_on,,,,,4,0,7,,,,,6,,,31,75
151680,note_on,,,,,4,0,6,,,,,5,,,43,92
151680,note_on,,,,,4,0,9,,,,,8,,,43,50
151772,note_off,,,,,92,0,2,,,,,1,,,62,0
151772,note_off,,,,,92,0,1,,,,,0,,,62,0
151772,note_off,,,,,92,0,3,,,,,2,,,62,0
151776,note_on,,,,,4,0,3,,,,,2,,,60,92
151776,note_on,,,,,4,0,1,,,,,0,,,60,63
151776,note_on,,,,,4,0,2,,,,,1,,,60,63
151808,note_off,,,,,128,0,8,,,,,7,,,67,0
151868,note_off,,,,,92,0,2,,,,,1,,,60,0
151868,note_off,,,,,188,0,6,,,,,5,,,43,0
151868,note_off,,,,,92,0,3,,,,,2,,,60,0
151868,note_off,,,,,188,0,9,,,,,8,,,43,0
151868,note_off,,,,,92,0,1,,,,,0,,,60,0
151868,note_off,,,,,60,0,8,,,,,7,,,59,0
151868,note_off,,,,,188,0,7,,,,,6,,,31,0
151868,note_off,,,,,0,0,8,,,,,7,,,62,0
151872,note_on,,,,,4,0,1,,,,,0,,,60,63
151872,note_on,,,,,448,0,4,,,,,3,,,57,127
151872,note_on,,,,,4,0,6,,,,,5,,,54,92
151872,note_on,,,,,4,0,3,,,,,2,,,60,92
151872,note_on,,,,,4,0,7,,,,,6,,,42,75
151872,note_on,,,,,4,0,2,,,,,1,,,60,63
151872,note_on,,,,,0,0,8,,,,,7,,,63,50
151872,note_on,,,,,0,0,8,,,,,7,,,69,50
151872,note_on,,,,,4,0,9,,,,,8,,,54,50
151872,note_on,,,,,448,0,5,,,,,4,,,63,92
151872,note_on,,,,,4,0,8,,,,,7,,,60,50
152192,note_off,,,,,320,0,2,,,,,1,,,60,0
152192,note_off,,,,,320,0,3,,,,,2,,,60,0
152192,note_off,,,,,320,0,8,,,,,7,,,60,0
152192,note_off,,,,,0,0,8,,,,,7,,,63,0
152192,note_off,,,,,320,0,4,,,,,3,,,57,0
152192,note_off,,,,,0,0,8,,,,,7,,,69,0
152192,note_off,,,,,320,0,6,,,,,5,,,54,0
152192,note_off,,,,,320,0,9,,,,,8,,,54,0
152192,note_off,,,,,320,0,7,,,,,6,,,42,0
152192,note_off,,,,,320,0,5,,,,,4,,,63,0
152192,note_off,,,,,320,0,1,,,,,0,,,60,0
152448,note_on,,,,,256,0,4,,,,,3,,,72,75
152448,note_on,,,,,256,0,5,,,,,4,,,72,60
152636,note_off,,,,,188,0,5,,,,,4,,,72,0
152636,note_off,,,,,188,0,4,,,,,3,,,72,0
152640,note_on,,,,,4,0,5,,,,,4,,,75,60
152640,note_on,,,,,4,0,4,,,,,3,,,75,75
152828,note_off,,,,,188,0,5,,,,,4,,,75,0
152828,note_off,,,,,188,0,4,,,,,3,,,75,0
152832,note_on,,,,,4,0,4,,,,,3,,,72,75
152832,note_on,,,,,4,0,5,,,,,4,,,72,60
153020,note_off,,,,,188,0,4,,,,,3,,,72,0
153020,note_off,,,,,188,0,5,,,,,4,,,72,0
153024,note_on,,,,,4,0,4,,,,,3,,,69,75
153024,note_on,,,,,4,0,5,,,,,4,,,69,60
153212,note_off,,,,,188,0,4,,,,,3,,,69,0
153212,note_off,,,,,188,0,5,,,,,4,,,69,0
153216,note_on,,,,,4,0,4,,,,,3,,,67,75
153216,note_on,,,,,4,0,5,,,,,4,,,67,60
153308,note_off,,,,,92,0,4,,,,,3,,,67,0
153308,note_off,,,,,92,0,5,,,,,4,,,67,0
153312,note_on,,,,,4,0,5,,,,,4,,,69,60
153312,note_on,,,,,4,0,4,,,,,3,,,69,75
153404,note_off,,,,,92,0,4,,,,,3,,,69,0
153404,note_off,,,,,92,0,5,,,,,4,,,69,0
153408,note_on,,,,,4,0,5,,,,,4,,,66,60
153408,note_on,,,,,4,0,4,,,,,3,,,66,75
153728,note_off,,,,,320,0,5,,,,,4,,,66,0
153728,note_off,,,,,320,0,4,,,,,3,,,66,0
153984,note_on,,,,,256,0,5,,,,,4,,,66,92
153984,note_on,,,,,0,0,8,,,,,7,,,69,50
153984,note_on,,,,,1792,0,8,,,,,7,,,60,50
153984,note_on,,,,,1792,0,9,,,,,8,,,54,50
153984,note_on,,,,,1792,0,3,,,,,2,,,75,108
153984,note_on,,,,,0,0,8,,,,,7,,,63,50
153984,note_on,,,,,1792,0,7,,,,,6,,,42,75
153984,set_tempo,,,,,153600,1,0,,666666,,,,,,,
153984,note_on,,,,,1792,0,2,,,,,1,,,75,63
153984,note_on,,,,,1792,0,6,,,,,5,,,54,92
153984,note_on,,,,,256,0,4,,,,,3,,,72,127
153984,note_on,,,,,1792,0,1,,,,,0,,,75,63
154172,note_off,,,,,188,0,5,,,,,4,,,66,0
154172,note_off,,,,,188,0,8,,,,,7,,,60,0
154172,note_off,,,,,188,0,2,,,,,1,,,75,0
154172,note_off,,,,,188,0,4,,,,,3,,,72,0
154172,note_off,,,,,188,0,9,,,,,8,,,54,0
154172,note_off,,,,,0,0,8,,,,,7,,,63,0
154172,note_off,,,,,188,0,3,,,,,2,,,75,0
154172,note_off,,,,,0,0,8,,,,,7,,,69,0
154172,note_off,,,,,188,0,7,,,,,6,,,42,0
154172,note_off,,,,,188,0,6,,,,,5,,,54,0
154172,note_off,,,,,188,0,1,,,,,0,,,75,0
154176,note_on,,,,,4,0,1,,,,,0,,,75,63
154176,note_on,,,,,4,0,8,,,,,7,,,60,50
154176,note_on,,,,,4,0,3,,,,,2,,,75,108
154176,note_on,,,,,4,0,9,,,,,8,,,54,50
154176,note_on,,,,,0,0,8,,,,,7,,,63,50
154176,note_on,,,,,4,0,5,,,,,4,,,66,92
154176,note_on,,,,,4,0,6,,,,,5,,,54,92
154176,note_on,,,,,4,0,4,,,,,3,,,69,127
154176,note_on,,,,,4,0,7,,,,,6,,,42,75
154176,note_on,,,,,0,0,8,,,,,7,,,69,50
154176,note_on,,,,,4,0,2,,,,,1,,,75,63
154364,note_off,,,,,188,0,2,,,,,1,,,75,0
154364,note_off,,,,,188,0,3,,,,,2,,,75,0
154364,note_off,,,,,188,0,1,,,,,0,,,75,0
154368,note_on,,,,,4,0,1,,,,,0,,,74,63
154368,note_on,,,,,4,0,3,,,,,2,,,74,108
154368,note_on,,,,,4,0,2,,,,,1,,,74,63
154496,note_off,,,,,320,0,8,,,,,7,,,60,0
154496,note_off,,,,,0,0,8,,,,,7,,,69,0
154496,note_off,,,,,0,0,8,,,,,7,,,63,0
154496,note_off,,,,,320,0,9,,,,,8,,,54,0
154496,note_off,,,,,320,0,5,,,,,4,,,66,0
154496,note_off,,,,,320,0,7,,,,,6,,,42,0
154496,note_off,,,,,320,0,6,,,,,5,,,54,0
154496,note_off,,,,,320,0,4,,,,,3,,,69,0
154556,note_off,,,,,188,0,3,,,,,2,,,74,0
154556,note_off,,,,,188,0,1,,,,,0,,,74,0
154556,note_off,,,,,188,0,2,,,,,1,,,74,0
154560,note_on,,,,,4,0,3,,,,,2,,,74,108
154560,note_on,,,,,4,0,2,,,,,1,,,74,63
154560,note_on,,,,,4,0,1,,,,,0,,,74,63
154748,note_off,,,,,188,0,3,,,,,2,,,74,0
154748,note_off,,,,,188,0,1,,,,,0,,,74,0
154748,note_off,,,,,188,0,2,,,,,1,,,74,0
154752,note_on,,,,,256,0,7,,,,,6,,,38,75
154752,note_on,,,,,256,0,5,,,,,4,,,66,92
154752,note_on,,,,,4,0,1,,,,,0,,,72,63
154752,note_on,,,,,4,0,3,,,,,2,,,72,108
154752,note_on,,,,,0,0,8,,,,,7,,,62,50
154752,note_on,,,,,256,0,9,,,,,8,,,50,50
154752,note_on,,,,,256,0,6,,,,,5,,,50,92
154752,note_on,,,,,4,0,2,,,,,1,,,72,63
154752,note_on,,,,,256,0,8,,,,,7,,,57,50
154752,note_on,,,,,256,0,4,,,,,3,,,69,127
154752,note_on,,,,,0,0,8,,,,,7,,,65,50
154940,note_off,,,,,188,0,7,,,,,6,,,38,0
154940,note_off,,,,,188,0,9,,,,,8,,,50,0
154940,note_off,,,,,188,0,4,,,,,3,,,69,0
154940,note_off,,,,,0,0,8,,,,,7,,,65,0
154940,note_off,,,,,0,0,8,,,,,7,,,62,0
154940,note_off,,,,,188,0,8,,,,,7,,,57,0
154940,note_off,,,,,188,0,5,,,,,4,,,66,0
154940,note_off,,,,,188,0,2,,,,,1,,,72,0
154940,note_off,,,,,188,0,1,,,,,0,,,72,0
154940,note_off,,,,,188,0,3,,,,,2,,,72,0
154940,note_off,,,,,188,0,6,,,,,5,,,50,0
154944,note_on,,,,,4,0,2,,,,,1,,,71,63
154944,note_on,,,,,4,0,4,,,,,3,,,67,127
154944,note_on,,,,,4,0,6,,,,,5,,,55,92
154944,note_on,,,,,4,0,3,,,,,2,,,71,108
154944,note_on,,,,,4,0,7,,,,,6,,,43,75
154944,note_on,,,,,4,0,9,,,,,8,,,55,50
154944,note_on,,,,,0,0,8,,,,,7,,,67,50
154944,note_on,,,,,0,0,8,,,,,7,,,62,50
154944,note_on,,,,,4,0,8,,,,,7,,,59,50
154944,note_on,,,,,4,0,5,,,,,4,,,62,92
154944,note_on,,,,,4,0,1,,,,,0,,,71,63
155132,note_off,,,,,188,0,7,,,,,6,,,43,0
155132,note_off,,,,,188,0,6,,,,,5,,,55,0
155132,note_off,,,,,188,0,9,,,,,8,,,55,0
155136,note_on,,,,,4,0,9,,,,,8,,,43,50
155136,note_on,,,,,4,0,7,,,,,6,,,31,75
155136,note_on,,,,,4,0,6,,,,,5,,,43,92
155228,note_off,,,,,284,0,1,,,,,0,,,71,0
155228,note_off,,,,,284,0,2,,,,,1,,,71,0
155228,note_off,,,,,284,0,3,,,,,2,,,71,0
155232,note_on,,,,,4,0,2,,,,,1,,,69,63
155232,note_on,,,,,4,0,1,,,,,0,,,69,63
155232,note_on,,,,,4,0,3,,,,,2,,,69,108
155264,note_off,,,,,320,0,5,,,,,4,,,62,0
155264,note_off,,,,,320,0,4,,,,,3,,,67,0
155264,note_off,,,,,0,0,8,,,,,7,,,67,0
155264,note_off,,,,,0,0,8,,,,,7,,,62,0
155264,note_off,,,,,320,0,8,,,,,7,,,59,0
155276,note_off,,,,,44,0,2,,,,,1,,,69,0
155276,note_off,,,,,44,0,1,,,,,0,,,69,0
155276,note_off,,,,,44,0,3,,,,,2,,,69,0
155280,note_on,,,,,4,0,1,,,,,0,,,67,63
155280,note_on,,,,,4,0,3,,,,,2,,,67,108
155280,note_on,,,,,4,0,2,,,,,1,,,67,63
155324,note_off,,,,,44,0,1,,,,,0,,,67,0
155324,note_off,,,,,188,0,9,,,,,8,,,43,0
155324,note_off,,,,,188,0,7,,,,,6,,,31,0
155324,note_off,,,,,188,0,6,,,,,5,,,43,0
155324,note_off,,,,,44,0,3,,,,,2,,,67,0
155324,note_off,,,,,44,0,2,,,,,1,,,67,0
155328,note_on,,,,,4,0,2,,,,,1,,,72,63
155328,note_on,,,,,4,0,3,,,,,2,,,72,108
155328,note_on,,,,,64,0,8,,,,,7,,,60,50
155328,note_on,,,,,0,0,8,,,,,7,,,65,50
155328,note_on,,,,,64,0,5,,,,,4,,,60,92
155328,note_on,,,,,4,0,9,,,,,8,,,44,50
155328,note_on,,,,,4,0,6,,,,,5,,,44,92
155328,note_on,,,,,4,0,1,,,,,0,,,72,63
155328,note_on,,,,,4,0,7,,,,,6,,,32,75
155328,note_on,,,,,64,0,4,,,,,3,,,65,127
155516,note_off,,,,,188,0,8,,,,,7,,,60,0
155516,note_off,,,,,188,0,9,,,,,8,,,44,0
155516,note_off,,,,,188,0,6,,,,,5,,,44,0
155516,note_off,,,,,188,0,2,,,,,1,,,72,0
155516,note_off,,,,,188,0,7,,,,,6,,,32,0
155516,note_off,,,,,188,0,3,,,,,2,,,72,0
155516,note_off,,,,,188,0,4,,,,,3,,,65,0
155516,note_off,,,,,188,0,1,,,,,0,,,72,0
155516,note_off,,,,,188,0,5,,,,,4,,,60,0
155520,note_on,,,,,4,0,4,,,,,3,,,60,127
155520,note_on,,,,,4,0,3,,,,,2,,,65,108
155520,note_on,,,,,4,0,2,,,,,1,,,65,63
155520,note_on,,,,,4,0,8,,,,,7,,,58,50
155520,set_tempo,,,,,1536,1,0,,750000,,,,,,,
155520,note_on,,,,,4,0,9,,,,,8,,,41,50
155520,note_on,,,,,4,0,6,,,,,5,,,41,92
155520,note_on,,,,,4,0,7,,,,,6,,,29,75
155520,note_on,,,,,4,0,5,,,,,4,,,56,92
155520,note_on,,,,,4,0,1,,,,,0,,,65,63
155648,note_off,,,,,128,0,8,,,,,7,,,65,0
155708,note_off,,,,,188,0,9,,,,,8,,,41,0
155708,note_off,,,,,188,0,1,,,,,0,,,65,0
155708,note_off,,,,,188,0,7,,,,,6,,,29,0
155708,note_off,,,,,188,0,3,,,,,2,,,65,0
155708,note_off,,,,,188,0,4,,,,,3,,,60,0
155708,note_off,,,,,188,0,5,,,,,4,,,56,0
155708,note_off,,,,,188,0,6,,,,,5,,,41,0
155708,note_off,,,,,60,0,8,,,,,7,,,58,0
155708,note_off,,,,,188,0,2,,,,,1,,,65,0
155712,note_on,,,,,0,0,8,,,,,7,,,60,50
155712,note_on,,,,,0,0,8,,,,,7,,,63,50
155712,note_on,,,,,4,0,6,,,,,5,,,43,92
155712,note_on,,,,,4,0,2,,,,,1,,,63,63
155712,note_on,,,,,4,0,7,,,,,6,,,31,75
155712,note_on,,,,,4,0,4,,,,,3,,,60,127
155712,note_on,,,,,4,0,5,,,,,4,,,55,92
155712,note_on,,,,,4,0,1,,,,,0,,,63,63
155712,note_on,,,,,4,0,9,,,,,8,,,43,50
155712,note_on,,,,,4,0,8,,,,,7,,,55,50
155712,note_on,,,,,4,0,3,,,,,2,,,63,108
155904,set_tempo,,,,,384,1,0,,857142,,,,,,,
156032,note_off,,,,,320,0,6,,,,,5,,,43,0
156032,note_off,,,,,320,0,3,,,,,2,,,63,0
156032,note_off,,,,,320,0,4,,,,,3,,,60,0
156032,note_off,,,,,320,0,2,,,,,1,,,63,0
156032,note_off,,,,,320,0,9,,,,,8,,,43,0
156032,note_off,,,,,320,0,5,,,,,4,,,55,0
156032,note_off,,,,,0,0,8,,,,,7,,,63,0
156032,note_off,,,,,0,0,8,,,,,7,,,60,0
156032,note_off,,,,,320,0,8,,,,,7,,,55,0
156032,note_off,,,,,320,0,1,,,,,0,,,63,0
156032,note_off,,,,,320,0,7,,,,,6,,,31,0
156096,note_on,,,,,0,0,8,,,,,7,,,62,50
156096,note_on,,,,,0,0,8,,,,,7,,,59,50
156096,note_on,,,,,64,0,8,,,,,7,,,55,50
156096,note_on,,,,,64,0,4,,,,,3,,,59,127
156096,note_on,,,,,64,0,6,,,,,5,,,43,92
156096,note_on,,,,,64,0,9,,,,,8,,,43,50
156096,note_on,,,,,64,0,1,,,,,0,,,62,63
156096,note_on,,,,,64,0,3,,,,,2,,,62,108
156096,note_on,,,,,64,0,5,,,,,4,,,55,92
156096,note_on,,,,,64,0,7,,,,,6,,,31,75
156096,note_on,,,,,64,0,2,,,,,1,,,62,63
156288,set_tempo,,,,,384,1,0,,1000000,,,,,,,
156416,note_off,,,,,320,0,5,,,,,4,,,55,0
156416,note_off,,,,,320,0,8,,,,,7,,,55,0
156416,note_off,,,,,0,0,8,,,,,7,,,59,0
156416,note_off,,,,,320,0,9,,,,,8,,,43,0
156416,note_off,,,,,320,0,7,,,,,6,,,31,0
156416,note_off,,,,,0,0,8,,,,,7,,,62,0
156416,note_off,,,,,320,0,3,,,,,2,,,62,0
156416,note_off,,,,,320,0,2,,,,,1,,,62,0
156416,note_off,,,,,320,0,6,,,,,5,,,43,0
156416,note_off,,,,,320,0,4,,,,,3,,,59,0
156416,note_off,,,,,320,0,1,,,,,0,,,62,0
156480,note_on,,,,,64,0,2,,,,,1,,,60,63
156480,note_on,,,,,64,0,6,,,,,5,,,36,92
156480,note_on,,,,,64,0,9,,,,,8,,,36,50
156480,note_on,,,,,64,0,5,,,,,4,,,55,92
156480,note_on,,,,,64,0,7,,,,,6,,,24,75
156480,note_on,,,,,64,0,8,,,,,7,,,51,50
156480,note_on,,,,,64,0,4,,,,,3,,,60,127
156480,note_on,,,,,0,0,8,,,,,7,,,60,50
156480,note_on,,,,,64,0,1,,,,,0,,,60,63
156480,note_on,,,,,64,0,3,,,,,2,,,60,108
156480,note_on,,,,,0,0,8,,,,,7,,,55,50
156672,set_tempo,,,,,384,1,0,,1200000,,,,,,,
156672,end_of_track,,,,,0,1,0,,,,,,,,,
156864,note_off,,,,,384,0,5,,,,,4,,,55,0
156864,end_of_track,,,,,0,1,5,,,,,,,,,
156864,note_off,,,,,384,0,6,,,,,5,,,36,0
156864,end_of_track,,,,,0,1,1,,,,,,,,,
156864,note_off,,,,,384,0,1,,,,,0,,,60,0
156864,note_off,,,,,384,0,3,,,,,2,,,60,0
156864,end_of_track,,,,,0,1,9,,,,,,,,,
156864,note_off,,,,,384,0,7,,,,,6,,,24,0
156864,end_of_track,,,,,0,1,3,,,,,,,,,
156864,note_off,,,,,384,0,9,,,,,8,,,36,0
156864,note_off,,,,,384,0,2,,,,,1,,,60,0
156864,end_of_track,,,,,0,1,2,,,,,,,,,
156864,end_of_track,,,,,0,1,4,,,,,,,,,
156864,note_off,,,,,384,0,4,,,,,3,,,60,0
156864,note_off,,,,,384,0,8,,,,,7,,,51,0
156864,note_off,,,,,0,0,8,,,,,7,,,55,0
156864,note_off,,,,,0,0,8,,,,,7,,,60,0
156864,end_of_track,,,,,0,1,8,,,,,,,,,
156864,end_of_track,,,,,0,1,7,,,,,,,,,
156864,end_of_track,,,,,0,1,6,,,,,,,,,
