tick,type,numerator,denominator,clocks_per_click,notated_32nd_notes_per_beat,time,meta,track,data,tempo,control,value,channel,program,key,note,velocity
0,time_signature,4,4,96,8,0,1,0,,,,,,,,,
0,control_change,,,,,0,0,6,,,10,63,5,,,,
0,control_change,,,,,0,0,6,,,0,0,5,,,,
0,track_name,,,,,0,1,6,,,,,,,,,
0,note_on,,,,,0,0,5,,,,,4,,,69,60
0,key_signature,,,,,0,1,5,,,,,,,D,,
0,program_change,,,,,0,0,5,,,,,4,41,,,
0,control_change,,,,,0,0,5,,,7,127,4,,,,
0,control_change,,,,,0,0,5,,,10,104,4,,,,
0,control_change,,,,,0,0,5,,,0,0,4,,,,
0,track_name,,,,,0,1,5,,,,,,,,,
0,key_signature,,,,,0,1,14,,,,,,,C,,
0,note_on,,,,,0,0,4,,,,,3,,,69,75
0,key_signature,,,,,0,1,4,,,,,,,D,,
0,program_change,,,,,0,0,4,,,,,3,48,,,
0,control_change,,,,,0,0,6,,,7,127,5,,,,
0,control_change,,,,,0,0,4,,,7,127,3,,,,
0,control_change,,,,,0,0,4,,,0,0,3,,,,
0,track_name,,,,,0,1,4,,,,,,,,,
0,note_on,,,,,0,0,3,,,,,2,,,78,75
0,key_signature,,,,,0,1,3,,,,,,,D,,
0,program_change,,,,,0,0,3,,,,,2,48,,,
0,control_change,,,,,0,0,3,,,7,127,2,,,,
0,control_change,,,,,0,0,3,,,10,24,2,,,,
0,control_change,,,,,0,0,3,,,0,0,2,,,,
0,track_name,,,,,0,1,3,,,,,,,,,
0,note_on,,,,,0,0,2,,,,,1,,,78,45
0,key_signature,,,,,0,1,2,,,,,,,D,,
0,program_change,,,,,0,0,2,,,,,1,40,,,
0,control_change,,,,,0,0,2,,,7,127,1,,,,
0,control_change,,,,,0,0,2,,,10,104,1,,,,
0,control_change,,,,,0,0,4,,,10,104,3,,,,
0,control_change,,,,,0,0,2,,,0,0,1,,,,
0,program_change,,,,,0,0,6,,,,,5,42,,,
0,note_on,,,,,0,0,6,,,,,5,,,50,45
0,track_name,,,,,0,1,14,,,,,,,,,
0,end_of_track,,,,,0,1,13,,,,,,,,,
0,key_signature,,,,,0,1,13,,,,,,,C,,
0,track_name,,,,,0,1,13,,,,,,,,,
0,end_of_track,,,,,0,1,12,,,,,,,,,
0,key_signature,,,,,0,1,12,,,,,,,C,,
0,track_name,,,,,0,1,12,,,,,,,,,
0,end_of_track,,,,,0,1,11,,,,,,,,,
0,key_signature,,,,,0,1,11,,,,,,,C,,
0,track_name,,,,,0,1,11,,,,,,,,,
0,end_of_track,,,,,0,1,10,,,,,,,,,
0,key_signature,,,,,0,1,10,,,,,,,C,,
0,track_name,,,,,0,1,10,,,,,,,,,
0,end_of_track,,,,,0,1,9,,,,,,,,,
0,key_signature,,,,,0,1,6,,,,,,,D,,
0,key_signature,,,,,0,1,9,,,,,,,C,,
0,note_on,,,,,0,0,8,,,,,7,,,50,30
0,key_signature,,,,,0,1,8,,,,,,,D,,
0,program_change,,,,,0,0,8,,,,,7,6,,,
0,control_change,,,,,0,0,8,,,7,127,7,,,,
0,control_change,,,,,0,0,8,,,10,64,7,,,,
0,control_change,,,,,0,0,8,,,0,0,7,,,,
0,track_name,,,,,0,1,8,,,,,,,,,
0,note_on,,,,,0,0,7,,,,,6,,,38,30
0,key_signature,,,,,0,1,7,,,,,,,D,,
0,program_change,,,,,0,0,7,,,,,6,43,,,
0,control_change,,,,,0,0,7,,,7,127,6,,,,
0,control_change,,,,,0,0,7,,,10,64,6,,,,
0,control_change,,,,,0,0,7,,,0,0,6,,,,
0,track_name,,,,,0,1,7,,,,,,,,,
0,track_name,,,,,0,1,9,,,,,,,,,
0,track_name,,,,,0,1,2,,,,,,,,,
0,end_of_track,,,,,0,1,14,,,,,,,,,
0,sequencer_specific,,,,,0,1,0,"(0, 0, 65)",,,,,,,,
0,track_name,,,,,0,1,1,,,,,,,,,
0,control_change,,,,,0,0,1,,,0,0,0,,,,
0,control_change,,,,,0,0,1,,,10,24,0,,,,
0,control_change,,,,,0,0,1,,,7,127,0,,,,
0,program_change,,,,,0,0,1,,,,,0,40,,,
0,key_signature,,,,,0,1,1,,,,,,,D,,
0,note_on,,,,,0,0,1,,,,,0,,,78,45
0,set_tempo,,,,,0,1,0,,937500,,,,,,,
188,note_off,,,,,188,0,1,,,,,0,,,78,0
188,note_off,,,,,188,0,3,,,,,2,,,78,0
188,note_off,,,,,188,0,2,,,,,1,,,78,0
192,note_on,,,,,4,0,2,,,,,1,,,81,45
192,note_on,,,,,4,0,3,,,,,2,,,81,75
192,note_on,,,,,4,0,1,,,,,0,,,81,45
320,note_off,,,,,320,0,8,,,,,7,,,50,0
320,note_off,,,,,320,0,7,,,,,6,,,38,0
320,note_off,,,,,320,0,5,,,,,4,,,69,0
320,note_off,,,,,320,0,6,,,,,5,,,50,0
320,note_off,,,,,320,0,4,,,,,3,,,69,0
380,note_off,,,,,188,0,1,,,,,0,,,81,0
380,note_off,,,,,188,0,2,,,,,1,,,81,0
380,note_off,,,,,188,0,3,,,,,2,,,81,0
384,note_on,,,,,64,0,7,,,,,6,,,42,30
384,note_on,,,,,64,0,5,,,,,4,,,62,60
384,note_on,,,,,4,0,3,,,,,2,,,81,75
384,note_on,,,,,64,0,6,,,,,5,,,54,45
384,note_on,,,,,4,0,1,,,,,0,,,81,45
384,note_on,,,,,4,0,2,,,,,1,,,81,45
384,note_on,,,,,64,0,8,,,,,7,,,54,30
384,note_on,,,,,64,0,4,,,,,3,,,62,75
572,note_off,,,,,188,0,2,,,,,1,,,81,0
572,note_off,,,,,188,0,3,,,,,2,,,81,0
572,note_off,,,,,188,0,1,,,,,0,,,81,0
576,note_on,,,,,4,0,3,,,,,2,,,74,75
576,note_on,,,,,4,0,1,,,,,0,,,74,45
576,note_on,,,,,4,0,2,,,,,1,,,74,45
704,note_off,,,,,320,0,8,,,,,7,,,54,0
704,note_off,,,,,320,0,7,,,,,6,,,42,0
704,note_off,,,,,320,0,5,,,,,4,,,62,0
704,note_off,,,,,320,0,4,,,,,3,,,62,0
704,note_off,,,,,320,0,6,,,,,5,,,54,0
764,note_off,,,,,188,0,1,,,,,0,,,74,0
764,note_off,,,,,188,0,2,,,,,1,,,74,0
764,note_off,,,,,188,0,3,,,,,2,,,74,0
768,note_on,,,,,64,0,5,,,,,4,,,64,60
768,note_on,,,,,64,0,8,,,,,7,,,57,30
768,note_on,,,,,4,0,2,,,,,1,,,73,45
768,note_on,,,,,64,0,6,,,,,5,,,57,45
768,note_on,,,,,4,0,3,,,,,2,,,73,75
768,note_on,,,,,64,0,7,,,,,6,,,45,30
768,note_on,,,,,4,0,1,,,,,0,,,73,45
768,note_on,,,,,64,0,4,,,,,3,,,64,75
956,note_off,,,,,188,0,1,,,,,0,,,73,0
956,note_off,,,,,188,0,2,,,,,1,,,73,0
956,note_off,,,,,188,0,3,,,,,2,,,73,0
960,note_on,,,,,4,0,3,,,,,2,,,81,75
960,note_on,,,,,4,0,1,,,,,0,,,81,45
960,note_on,,,,,4,0,2,,,,,1,,,81,45
1088,note_off,,,,,320,0,6,,,,,5,,,57,0
1088,note_off,,,,,320,0,8,,,,,7,,,57,0
1088,note_off,,,,,320,0,7,,,,,6,,,45,0
1148,note_off,,,,,188,0,2,,,,,1,,,81,0
1148,note_off,,,,,188,0,1,,,,,0,,,81,0
1148,note_off,,,,,188,0,3,,,,,2,,,81,0
1152,note_on,,,,,4,0,2,,,,,1,,,81,45
1152,note_on,,,,,64,0,7,,,,,6,,,49,30
1152,note_on,,,,,4,0,1,,,,,0,,,81,45
1152,note_on,,,,,64,0,6,,,,,5,,,61,45
1152,note_on,,,,,64,0,8,,,,,7,,,61,30
1152,note_on,,,,,4,0,3,,,,,2,,,81,75
1280,note_off,,,,,512,0,4,,,,,3,,,64,0
1280,note_off,,,,,512,0,5,,,,,4,,,64,0
1340,note_off,,,,,188,0,3,,,,,2,,,81,0
1340,note_off,,,,,188,0,2,,,,,1,,,81,0
1340,note_off,,,,,188,0,1,,,,,0,,,81,0
1344,note_on,,,,,4,0,2,,,,,1,,,76,45
1344,note_on,,,,,64,0,5,,,,,4,,,69,60
1344,note_on,,,,,64,0,4,,,,,3,,,69,75
1344,note_on,,,,,4,0,3,,,,,2,,,76,75
1344,note_on,,,,,4,0,1,,,,,0,,,76,45
1472,note_off,,,,,320,0,6,,,,,5,,,61,0
1472,note_off,,,,,320,0,7,,,,,6,,,49,0
1472,note_off,,,,,320,0,8,,,,,7,,,61,0
1532,note_off,,,,,188,0,4,,,,,3,,,69,0
1532,note_off,,,,,188,0,2,,,,,1,,,76,0
1532,note_off,,,,,188,0,5,,,,,4,,,69,0
1532,note_off,,,,,188,0,3,,,,,2,,,76,0
1532,note_off,,,,,188,0,1,,,,,0,,,76,0
1536,note_on,,,,,4,0,4,,,,,3,,,69,75
1536,note_on,,,,,4,0,3,,,,,2,,,78,75
1536,note_on,,,,,4,0,2,,,,,1,,,78,45
1536,note_on,,,,,4,0,1,,,,,0,,,78,45
1536,note_on,,,,,64,0,8,,,,,7,,,62,30
1536,note_on,,,,,64,0,7,,,,,6,,,50,30
1536,note_on,,,,,4,0,5,,,,,4,,,69,60
1536,note_on,,,,,64,0,6,,,,,5,,,62,45
1724,note_off,,,,,188,0,2,,,,,1,,,78,0
1724,note_off,,,,,188,0,3,,,,,2,,,78,0
1724,note_off,,,,,188,0,5,,,,,4,,,69,0
1724,note_off,,,,,188,0,4,,,,,3,,,69,0
1724,note_off,,,,,188,0,1,,,,,0,,,78,0
1728,note_on,,,,,4,0,5,,,,,4,,,67,60
1728,note_on,,,,,4,0,1,,,,,0,,,76,45
1728,note_on,,,,,4,0,3,,,,,2,,,76,75
1728,note_on,,,,,4,0,2,,,,,1,,,76,45
1728,note_on,,,,,4,0,4,,,,,3,,,67,75
1820,note_off,,,,,92,0,1,,,,,0,,,76,0
1820,note_off,,,,,92,0,2,,,,,1,,,76,0
1820,note_off,,,,,92,0,3,,,,,2,,,76,0
1820,note_off,,,,,92,0,5,,,,,4,,,67,0
1820,note_off,,,,,92,0,4,,,,,3,,,67,0
1824,note_on,,,,,4,0,2,,,,,1,,,78,45
1824,note_on,,,,,4,0,5,,,,,4,,,69,60
1824,note_on,,,,,4,0,4,,,,,3,,,69,75
1824,note_on,,,,,4,0,3,,,,,2,,,78,75
1824,note_on,,,,,4,0,1,,,,,0,,,78,45
1856,note_off,,,,,320,0,6,,,,,5,,,62,0
1856,note_off,,,,,320,0,7,,,,,6,,,50,0
1856,note_off,,,,,320,0,8,,,,,7,,,62,0
1916,note_off,,,,,92,0,1,,,,,0,,,78,0
1916,note_off,,,,,92,0,5,,,,,4,,,69,0
1916,note_off,,,,,92,0,4,,,,,3,,,69,0
1916,note_off,,,,,92,0,2,,,,,1,,,78,0
1916,note_off,,,,,92,0,3,,,,,2,,,78,0
1920,note_on,,,,,64,0,8,,,,,7,,,55,30
1920,note_on,,,,,4,0,4,,,,,3,,,71,75
1920,note_on,,,,,4,0,1,,,,,0,,,79,45
1920,note_on,,,,,4,0,3,,,,,2,,,79,75
1920,note_on,,,,,64,0,6,,,,,5,,,55,45
1920,note_on,,,,,64,0,7,,,,,6,,,43,30
1920,note_on,,,,,4,0,5,,,,,4,,,71,60
1920,note_on,,,,,4,0,2,,,,,1,,,79,45
2012,note_off,,,,,92,0,1,,,,,0,,,79,0
2012,note_off,,,,,92,0,2,,,,,1,,,79,0
2012,note_off,,,,,92,0,3,,,,,2,,,79,0
2012,note_off,,,,,92,0,4,,,,,3,,,71,0
2012,note_off,,,,,92,0,5,,,,,4,,,71,0
2016,note_on,,,,,4,0,5,,,,,4,,,69,60
2016,note_on,,,,,4,0,2,,,,,1,,,78,45
2016,note_on,,,,,4,0,1,,,,,0,,,78,45
2016,note_on,,,,,4,0,4,,,,,3,,,69,75
2016,note_on,,,,,4,0,3,,,,,2,,,78,75
2108,note_off,,,,,92,0,5,,,,,4,,,69,0
2108,note_off,,,,,92,0,4,,,,,3,,,69,0
2108,note_off,,,,,92,0,2,,,,,1,,,78,0
2108,note_off,,,,,92,0,1,,,,,0,,,78,0
2108,note_off,,,,,92,0,3,,,,,2,,,78,0
2112,note_on,,,,,4,0,5,,,,,4,,,67,60
2112,note_on,,,,,4,0,3,,,,,2,,,76,75
2112,note_on,,,,,4,0,2,,,,,1,,,76,45
2112,note_on,,,,,4,0,4,,,,,3,,,67,75
2112,note_on,,,,,4,0,1,,,,,0,,,76,45
2204,note_off,,,,,92,0,2,,,,,1,,,76,0
2204,note_off,,,,,92,0,3,,,,,2,,,76,0
2204,note_off,,,,,92,0,4,,,,,3,,,67,0
2204,note_off,,,,,92,0,5,,,,,4,,,67,0
2204,note_off,,,,,92,0,1,,,,,0,,,76,0
2208,note_on,,,,,4,0,5,,,,,4,,,66,60
2208,note_on,,,,,4,0,2,,,,,1,,,74,45
2208,note_on,,,,,4,0,1,,,,,0,,,74,45
2208,note_on,,,,,4,0,4,,,,,3,,,66,75
2208,note_on,,,,,4,0,3,,,,,2,,,74,75
2240,note_off,,,,,320,0,6,,,,,5,,,55,0
2240,note_off,,,,,320,0,7,,,,,6,,,43,0
2240,note_off,,,,,320,0,8,,,,,7,,,55,0
2300,note_off,,,,,92,0,5,,,,,4,,,66,0
2300,note_off,,,,,92,0,3,,,,,2,,,74,0
2300,note_off,,,,,92,0,2,,,,,1,,,74,0
2300,note_off,,,,,92,0,4,,,,,3,,,66,0
2300,note_off,,,,,92,0,1,,,,,0,,,74,0
2304,note_on,,,,,64,0,6,,,,,5,,,57,45
2304,note_on,,,,,4,0,3,,,,,2,,,73,75
2304,note_on,,,,,4,0,4,,,,,3,,,64,75
2304,note_on,,,,,4,0,1,,,,,0,,,73,45
2304,note_on,,,,,64,0,7,,,,,6,,,45,30
2304,note_on,,,,,64,0,8,,,,,7,,,57,30
2304,note_on,,,,,4,0,5,,,,,4,,,64,60
2304,note_on,,,,,4,0,2,,,,,1,,,73,45
2492,note_off,,,,,188,0,3,,,,,2,,,73,0
2492,note_off,,,,,188,0,5,,,,,4,,,64,0
2492,note_off,,,,,188,0,1,,,,,0,,,73,0
2492,note_off,,,,,188,0,4,,,,,3,,,64,0
2492,note_off,,,,,188,0,2,,,,,1,,,73,0
2496,note_on,,,,,4,0,5,,,,,4,,,69,60
2496,note_on,,,,,4,0,4,,,,,3,,,69,75
2496,note_on,,,,,4,0,2,,,,,1,,,76,45
2496,note_on,,,,,4,0,3,,,,,2,,,76,75
2496,note_on,,,,,4,0,1,,,,,0,,,76,45
2624,note_off,,,,,320,0,7,,,,,6,,,45,0
2624,note_off,,,,,320,0,8,,,,,7,,,57,0
2624,note_off,,,,,320,0,6,,,,,5,,,57,0
2684,note_off,,,,,188,0,1,,,,,0,,,76,0
2684,note_off,,,,,188,0,5,,,,,4,,,69,0
2684,note_off,,,,,188,0,3,,,,,2,,,76,0
2684,note_off,,,,,188,0,2,,,,,1,,,76,0
2684,note_off,,,,,188,0,4,,,,,3,,,69,0
2688,note_on,,,,,64,0,8,,,,,7,,,61,30
2688,note_on,,,,,4,0,3,,,,,2,,,76,75
2688,note_on,,,,,4,0,5,,,,,4,,,69,60
2688,note_on,,,,,64,0,6,,,,,5,,,61,45
2688,note_on,,,,,4,0,4,,,,,3,,,69,75
2688,note_on,,,,,4,0,1,,,,,0,,,76,45
2688,note_on,,,,,4,0,2,,,,,1,,,76,45
2688,note_on,,,,,64,0,7,,,,,6,,,49,30
2876,note_off,,,,,188,0,2,,,,,1,,,76,0
2876,note_off,,,,,188,0,4,,,,,3,,,69,0
2876,note_off,,,,,188,0,3,,,,,2,,,76,0
2876,note_off,,,,,188,0,5,,,,,4,,,69,0
2876,note_off,,,,,188,0,1,,,,,0,,,76,0
2880,note_on,,,,,4,0,4,,,,,3,,,64,75
2880,note_on,,,,,4,0,3,,,,,2,,,69,75
2880,note_on,,,,,4,0,2,,,,,1,,,69,45
2880,note_on,,,,,4,0,5,,,,,4,,,64,60
2880,note_on,,,,,4,0,1,,,,,0,,,69,45
3008,note_off,,,,,320,0,8,,,,,7,,,61,0
3008,note_off,,,,,320,0,6,,,,,5,,,61,0
3008,note_off,,,,,320,0,7,,,,,6,,,49,0
3068,note_off,,,,,188,0,1,,,,,0,,,69,0
3068,note_off,,,,,188,0,2,,,,,1,,,69,0
3068,note_off,,,,,188,0,4,,,,,3,,,64,0
3068,note_off,,,,,188,0,3,,,,,2,,,69,0
3068,note_off,,,,,188,0,5,,,,,4,,,64,0
3072,note_on,,,,,64,0,8,,,,,7,,,62,30
3072,note_on,,,,,4,0,5,,,,,4,,,69,60
3072,note_on,,,,,4,0,4,,,,,3,,,69,75
3072,note_on,,,,,4,0,1,,,,,0,,,78,45
3072,note_on,,,,,64,0,7,,,,,6,,,50,30
3072,note_on,,,,,64,0,6,,,,,5,,,62,45
3072,note_on,,,,,4,0,2,,,,,1,,,78,45
3072,note_on,,,,,4,0,3,,,,,2,,,78,75
3260,note_off,,,,,188,0,2,,,,,1,,,78,0
3260,note_off,,,,,188,0,3,,,,,2,,,78,0
3260,note_off,,,,,188,0,4,,,,,3,,,69,0
3260,note_off,,,,,188,0,1,,,,,0,,,78,0
3260,note_off,,,,,188,0,5,,,,,4,,,69,0
3264,note_on,,,,,4,0,1,,,,,0,,,86,45
3264,note_on,,,,,4,0,4,,,,,3,,,66,75
3264,note_on,,,,,4,0,2,,,,,1,,,86,45
3264,note_on,,,,,4,0,5,,,,,4,,,66,60
3264,note_on,,,,,4,0,3,,,,,2,,,86,75
3392,note_off,,,,,320,0,6,,,,,5,,,62,0
3392,note_off,,,,,320,0,8,,,,,7,,,62,0
3392,note_off,,,,,320,0,7,,,,,6,,,50,0
3452,note_off,,,,,188,0,5,,,,,4,,,66,0
3452,note_off,,,,,188,0,1,,,,,0,,,86,0
3452,note_off,,,,,188,0,3,,,,,2,,,86,0
3452,note_off,,,,,188,0,4,,,,,3,,,66,0
3452,note_off,,,,,188,0,2,,,,,1,,,86,0
3456,note_on,,,,,4,0,1,,,,,0,,,86,45
3456,note_on,,,,,4,0,5,,,,,4,,,71,60
3456,note_on,,,,,64,0,7,,,,,6,,,47,30
3456,note_on,,,,,4,0,4,,,,,3,,,71,75
3456,note_on,,,,,4,0,2,,,,,1,,,86,45
3456,note_on,,,,,64,0,8,,,,,7,,,59,30
3456,note_on,,,,,4,0,3,,,,,2,,,86,75
3456,note_on,,,,,64,0,6,,,,,5,,,59,45
3644,note_off,,,,,188,0,2,,,,,1,,,86,0
3644,note_off,,,,,188,0,3,,,,,2,,,86,0
3644,note_off,,,,,188,0,1,,,,,0,,,86,0
3648,note_on,,,,,4,0,1,,,,,0,,,78,45
3648,note_on,,,,,4,0,2,,,,,1,,,78,45
3648,note_on,,,,,4,0,3,,,,,2,,,78,75
3776,note_off,,,,,320,0,6,,,,,5,,,59,0
3776,note_off,,,,,320,0,8,,,,,7,,,59,0
3776,note_off,,,,,320,0,7,,,,,6,,,47,0
3776,note_off,,,,,320,0,5,,,,,4,,,71,0
3776,note_off,,,,,320,0,4,,,,,3,,,71,0
3836,note_off,,,,,188,0,1,,,,,0,,,78,0
3836,note_off,,,,,188,0,2,,,,,1,,,78,0
3836,note_off,,,,,188,0,3,,,,,2,,,78,0
3840,note_on,,,,,4,0,1,,,,,0,,,76,45
3840,note_on,,,,,64,0,8,,,,,7,,,56,30
3840,note_on,,,,,4,0,2,,,,,1,,,76,45
3840,note_on,,,,,64,0,6,,,,,5,,,56,45
3840,note_on,,,,,64,0,4,,,,,3,,,71,75
3840,note_on,,,,,64,0,7,,,,,6,,,44,30
3840,note_on,,,,,4,0,3,,,,,2,,,76,75
3840,note_on,,,,,64,0,5,,,,,4,,,71,60
4028,note_off,,,,,188,0,2,,,,,1,,,76,0
4028,note_off,,,,,188,0,1,,,,,0,,,76,0
4028,note_off,,,,,188,0,4,,,,,3,,,71,0
4028,note_off,,,,,188,0,3,,,,,2,,,76,0
4028,note_off,,,,,188,0,5,,,,,4,,,71,0
4032,note_on,,,,,4,0,5,,,,,4,,,64,60
4032,note_on,,,,,4,0,2,,,,,1,,,86,45
4032,note_on,,,,,4,0,3,,,,,2,,,86,75
4032,note_on,,,,,4,0,1,,,,,0,,,86,45
4032,note_on,,,,,4,0,4,,,,,3,,,64,75
4160,note_off,,,,,320,0,6,,,,,5,,,56,0
4160,note_off,,,,,320,0,8,,,,,7,,,56,0
4160,note_off,,,,,320,0,7,,,,,6,,,44,0
4220,note_off,,,,,188,0,3,,,,,2,,,86,0
4220,note_off,,,,,188,0,1,,,,,0,,,86,0
4220,note_off,,,,,188,0,4,,,,,3,,,64,0
4220,note_off,,,,,188,0,2,,,,,1,,,86,0
4220,note_off,,,,,188,0,5,,,,,4,,,64,0
4224,note_on,,,,,4,0,4,,,,,3,,,68,75
4224,note_on,,,,,4,0,3,,,,,2,,,86,75
4224,note_on,,,,,4,0,2,,,,,1,,,86,45
4224,note_on,,,,,4,0,1,,,,,0,,,86,45
4224,note_on,,,,,64,0,8,,,,,7,,,52,30
4224,note_on,,,,,64,0,7,,,,,6,,,40,30
4224,note_on,,,,,4,0,5,,,,,4,,,68,60
4224,note_on,,,,,64,0,6,,,,,5,,,52,45
4412,note_off,,,,,188,0,5,,,,,4,,,68,0
4412,note_off,,,,,188,0,2,,,,,1,,,86,0
4412,note_off,,,,,188,0,1,,,,,0,,,86,0
4412,note_off,,,,,188,0,3,,,,,2,,,86,0
4412,note_off,,,,,188,0,4,,,,,3,,,68,0
4416,note_on,,,,,4,0,2,,,,,1,,,83,45
4416,note_on,,,,,4,0,3,,,,,2,,,83,75
4416,note_on,,,,,4,0,4,,,,,3,,,76,75
4416,note_on,,,,,4,0,1,,,,,0,,,83,45
4416,note_on,,,,,4,0,5,,,,,4,,,76,60
4544,note_off,,,,,320,0,6,,,,,5,,,52,0
4544,note_off,,,,,320,0,7,,,,,6,,,40,0
4544,note_off,,,,,320,0,8,,,,,7,,,52,0
4604,note_off,,,,,188,0,1,,,,,0,,,83,0
4604,note_off,,,,,188,0,4,,,,,3,,,76,0
4604,note_off,,,,,188,0,3,,,,,2,,,83,0
4604,note_off,,,,,188,0,5,,,,,4,,,76,0
4604,note_off,,,,,188,0,2,,,,,1,,,83,0
4608,note_on,,,,,64,0,7,,,,,6,,,45,30
4608,note_on,,,,,4,0,5,,,,,4,,,76,60
4608,note_on,,,,,64,0,6,,,,,5,,,57,45
4608,note_on,,,,,64,0,8,,,,,7,,,57,30
4608,note_on,,,,,4,0,4,,,,,3,,,76,75
4608,note_on,,,,,4,0,3,,,,,2,,,85,75
4608,note_on,,,,,4,0,1,,,,,0,,,85,45
4608,note_on,,,,,4,0,2,,,,,1,,,85,45
4796,note_off,,,,,188,0,2,,,,,1,,,85,0
4796,note_off,,,,,188,0,7,,,,,6,,,45,0
4796,note_off,,,,,188,0,5,,,,,4,,,76,0
4796,note_off,,,,,188,0,3,,,,,2,,,85,0
4796,note_off,,,,,188,0,4,,,,,3,,,76,0
4796,note_off,,,,,188,0,6,,,,,5,,,57,0
4796,note_off,,,,,188,0,8,,,,,7,,,57,0
4796,note_off,,,,,188,0,1,,,,,0,,,85,0
4800,note_on,,,,,4,0,6,,,,,5,,,62,45
4800,note_on,,,,,4,0,1,,,,,0,,,81,45
4800,note_on,,,,,4,0,8,,,,,7,,,62,30
4800,note_on,,,,,4,0,2,,,,,1,,,81,45
4800,note_on,,,,,4,0,5,,,,,4,,,74,60
4800,note_on,,,,,4,0,4,,,,,3,,,74,75
4800,note_on,,,,,4,0,7,,,,,6,,,50,30
4800,note_on,,,,,4,0,3,,,,,2,,,81,75
4988,note_off,,,,,188,0,8,,,,,7,,,62,0
4988,note_off,,,,,188,0,7,,,,,6,,,50,0
4988,note_off,,,,,188,0,6,,,,,5,,,62,0
4988,note_off,,,,,188,0,4,,,,,3,,,74,0
4988,note_off,,,,,188,0,3,,,,,2,,,81,0
4988,note_off,,,,,188,0,5,,,,,4,,,74,0
4988,note_off,,,,,188,0,1,,,,,0,,,81,0
4988,note_off,,,,,188,0,2,,,,,1,,,81,0
4992,note_on,,,,,4,0,6,,,,,5,,,64,45
4992,note_on,,,,,4,0,8,,,,,7,,,64,30
4992,note_on,,,,,4,0,7,,,,,6,,,52,30
4992,note_on,,,,,4,0,2,,,,,1,,,76,45
4992,note_on,,,,,4,0,5,,,,,4,,,73,60
4992,note_on,,,,,4,0,3,,,,,2,,,76,75
4992,note_on,,,,,4,0,4,,,,,3,,,73,75
4992,note_on,,,,,4,0,1,,,,,0,,,76,45
5180,note_off,,,,,188,0,8,,,,,7,,,64,0
5180,note_off,,,,,188,0,3,,,,,2,,,76,0
5180,note_off,,,,,188,0,2,,,,,1,,,76,0
5180,note_off,,,,,188,0,1,,,,,0,,,76,0
5180,note_off,,,,,188,0,7,,,,,6,,,52,0
5180,note_off,,,,,188,0,6,,,,,5,,,64,0
5180,note_off,,,,,188,0,4,,,,,3,,,73,0
5180,note_off,,,,,188,0,5,,,,,4,,,73,0
5184,note_on,,,,,4,0,2,,,,,1,,,80,45
5184,note_on,,,,,4,0,7,,,,,6,,,40,30
5184,note_on,,,,,4,0,8,,,,,7,,,52,30
5184,note_on,,,,,4,0,5,,,,,4,,,71,60
5184,note_on,,,,,4,0,6,,,,,5,,,52,45
5184,note_on,,,,,4,0,4,,,,,3,,,71,75
5184,note_on,,,,,4,0,3,,,,,2,,,80,75
5184,note_on,,,,,4,0,1,,,,,0,,,80,45
5372,note_off,,,,,188,0,3,,,,,2,,,80,0
5372,note_off,,,,,188,0,6,,,,,5,,,52,0
5372,note_off,,,,,188,0,8,,,,,7,,,52,0
5372,note_off,,,,,188,0,7,,,,,6,,,40,0
5372,note_off,,,,,188,0,5,,,,,4,,,71,0
5372,note_off,,,,,188,0,4,,,,,3,,,71,0
5372,note_off,,,,,188,0,2,,,,,1,,,80,0
5372,note_off,,,,,188,0,1,,,,,0,,,80,0
5376,note_on,,,,,4,0,3,,,,,2,,,81,75
5376,note_on,,,,,4,0,2,,,,,1,,,81,45
5376,note_on,,,,,4,0,7,,,,,6,,,45,30
5376,note_on,,,,,4,0,8,,,,,7,,,57,30
5376,note_on,,,,,4,0,4,,,,,3,,,73,75
5376,note_on,,,,,4,0,5,,,,,4,,,73,60
5376,note_on,,,,,4,0,6,,,,,5,,,57,45
5376,note_on,,,,,4,0,1,,,,,0,,,81,45
5564,note_off,,,,,188,0,4,,,,,3,,,73,0
5564,note_off,,,,,188,0,6,,,,,5,,,57,0
5564,note_off,,,,,188,0,7,,,,,6,,,45,0
5564,note_off,,,,,188,0,5,,,,,4,,,73,0
5564,note_off,,,,,188,0,8,,,,,7,,,57,0
5568,note_on,,,,,4,0,6,,,,,5,,,59,45
5568,note_on,,,,,4,0,7,,,,,6,,,47,30
5568,note_on,,,,,4,0,5,,,,,4,,,74,60
5568,note_on,,,,,4,0,4,,,,,3,,,74,75
5568,note_on,,,,,4,0,8,,,,,7,,,59,30
5756,note_off,,,,,188,0,4,,,,,3,,,74,0
5756,note_off,,,,,188,0,6,,,,,5,,,59,0
5756,note_off,,,,,188,0,8,,,,,7,,,59,0
5756,note_off,,,,,188,0,5,,,,,4,,,74,0
5756,note_off,,,,,188,0,7,,,,,6,,,47,0
5760,note_on,,,,,4,0,5,,,,,4,,,76,60
5760,note_on,,,,,4,0,8,,,,,7,,,61,30
5760,note_on,,,,,4,0,6,,,,,5,,,61,45
5760,note_on,,,,,4,0,4,,,,,3,,,76,75
5760,note_on,,,,,4,0,7,,,,,6,,,49,30
5948,note_off,,,,,188,0,7,,,,,6,,,49,0
5948,note_off,,,,,188,0,4,,,,,3,,,76,0
5948,note_off,,,,,188,0,6,,,,,5,,,61,0
5948,note_off,,,,,188,0,8,,,,,7,,,61,0
5948,note_off,,,,,188,0,5,,,,,4,,,76,0
5952,note_on,,,,,4,0,6,,,,,5,,,57,45
5952,note_on,,,,,4,0,4,,,,,3,,,73,75
5952,note_on,,,,,4,0,8,,,,,7,,,57,30
5952,note_on,,,,,4,0,7,,,,,6,,,45,30
5952,note_on,,,,,4,0,5,,,,,4,,,73,60
6048,note_off,,,,,672,0,1,,,,,0,,,81,0
6048,note_off,,,,,672,0,2,,,,,1,,,81,0
6048,note_off,,,,,672,0,3,,,,,2,,,81,0
6140,note_off,,,,,188,0,4,,,,,3,,,73,0
6140,note_off,,,,,188,0,7,,,,,6,,,45,0
6140,note_off,,,,,188,0,8,,,,,7,,,57,0
6140,note_off,,,,,188,0,6,,,,,5,,,57,0
6140,note_off,,,,,188,0,5,,,,,4,,,73,0
6144,note_on,,,,,96,0,1,,,,,0,,,78,45
6144,note_on,,,,,4,0,5,,,,,4,,,69,60
6144,note_on,,,,,96,0,2,,,,,1,,,78,45
6144,note_on,,,,,4,0,4,,,,,3,,,69,75
6144,note_on,,,,,4,0,8,,,,,7,,,50,30
6144,note_on,,,,,96,0,3,,,,,2,,,78,75
6144,note_on,,,,,4,0,7,,,,,6,,,38,30
6144,note_on,,,,,4,0,6,,,,,5,,,50,45
6332,note_off,,,,,188,0,3,,,,,2,,,78,0
6332,note_off,,,,,188,0,1,,,,,0,,,78,0
6332,note_off,,,,,188,0,2,,,,,1,,,78,0
6336,note_on,,,,,4,0,2,,,,,1,,,81,45
6336,note_on,,,,,4,0,1,,,,,0,,,81,45
6336,note_on,,,,,4,0,3,,,,,2,,,81,75
6464,note_off,,,,,320,0,8,,,,,7,,,50,0
6464,note_off,,,,,320,0,7,,,,,6,,,38,0
6464,note_off,,,,,320,0,4,,,,,3,,,69,0
6464,note_off,,,,,320,0,6,,,,,5,,,50,0
6464,note_off,,,,,320,0,5,,,,,4,,,69,0
6524,note_off,,,,,188,0,3,,,,,2,,,81,0
6524,note_off,,,,,188,0,2,,,,,1,,,81,0
6524,note_off,,,,,188,0,1,,,,,0,,,81,0
6528,note_on,,,,,64,0,7,,,,,6,,,42,30
6528,note_on,,,,,64,0,5,,,,,4,,,62,60
6528,note_on,,,,,4,0,3,,,,,2,,,81,75
6528,note_on,,,,,64,0,8,,,,,7,,,54,30
6528,note_on,,,,,64,0,4,,,,,3,,,62,75
6528,note_on,,,,,64,0,6,,,,,5,,,54,45
6528,note_on,,,,,4,0,2,,,,,1,,,81,45
6528,note_on,,,,,4,0,1,,,,,0,,,81,45
6716,note_off,,,,,188,0,3,,,,,2,,,81,0
6716,note_off,,,,,188,0,1,,,,,0,,,81,0
6716,note_off,,,,,188,0,2,,,,,1,,,81,0
6720,note_on,,,,,4,0,3,,,,,2,,,74,75
6720,note_on,,,,,4,0,1,,,,,0,,,74,45
6720,note_on,,,,,4,0,2,,,,,1,,,74,45
6848,note_off,,,,,320,0,4,,,,,3,,,62,0
6848,note_off,,,,,320,0,6,,,,,5,,,54,0
6848,note_off,,,,,320,0,7,,,,,6,,,42,0
6848,note_off,,,,,320,0,5,,,,,4,,,62,0
6848,note_off,,,,,320,0,8,,,,,7,,,54,0
6908,note_off,,,,,188,0,1,,,,,0,,,74,0
6908,note_off,,,,,188,0,3,,,,,2,,,74,0
6908,note_off,,,,,188,0,2,,,,,1,,,74,0
6912,note_on,,,,,64,0,5,,,,,4,,,64,60
6912,note_on,,,,,64,0,6,,,,,5,,,57,45
6912,note_on,,,,,4,0,2,,,,,1,,,73,45
6912,note_on,,,,,4,0,1,,,,,0,,,73,45
6912,note_on,,,,,4,0,3,,,,,2,,,73,75
6912,note_on,,,,,64,0,8,,,,,7,,,57,30
6912,note_on,,,,,64,0,4,,,,,3,,,64,75
6912,note_on,,,,,64,0,7,,,,,6,,,45,30
7100,note_off,,,,,188,0,2,,,,,1,,,73,0
7100,note_off,,,,,188,0,3,,,,,2,,,73,0
7100,note_off,,,,,188,0,1,,,,,0,,,73,0
7104,note_on,,,,,4,0,3,,,,,2,,,81,75
7104,note_on,,,,,4,0,1,,,,,0,,,81,45
7104,note_on,,,,,4,0,2,,,,,1,,,81,45
7232,note_off,,,,,320,0,6,,,,,5,,,57,0
7232,note_off,,,,,320,0,8,,,,,7,,,57,0
7232,note_off,,,,,320,0,7,,,,,6,,,45,0
7292,note_off,,,,,188,0,2,,,,,1,,,81,0
7292,note_off,,,,,188,0,3,,,,,2,,,81,0
7292,note_off,,,,,188,0,1,,,,,0,,,81,0
7296,note_on,,,,,64,0,8,,,,,7,,,61,30
7296,note_on,,,,,4,0,1,,,,,0,,,81,45
7296,note_on,,,,,4,0,2,,,,,1,,,81,45
7296,note_on,,,,,64,0,6,,,,,5,,,61,45
7296,note_on,,,,,64,0,7,,,,,6,,,49,30
7296,note_on,,,,,4,0,3,,,,,2,,,81,75
7424,note_off,,,,,512,0,4,,,,,3,,,64,0
7424,note_off,,,,,512,0,5,,,,,4,,,64,0
7484,note_off,,,,,188,0,3,,,,,2,,,81,0
7484,note_off,,,,,188,0,1,,,,,0,,,81,0
7484,note_off,,,,,188,0,2,,,,,1,,,81,0
7488,note_on,,,,,4,0,2,,,,,1,,,76,45
7488,note_on,,,,,4,0,3,,,,,2,,,76,75
7488,note_on,,,,,64,0,4,,,,,3,,,69,75
7488,note_on,,,,,64,0,5,,,,,4,,,69,60
7488,note_on,,,,,4,0,1,,,,,0,,,76,45
7616,note_off,,,,,320,0,7,,,,,6,,,49,0
7616,note_off,,,,,320,0,8,,,,,7,,,61,0
7616,note_off,,,,,320,0,6,,,,,5,,,61,0
7676,note_off,,,,,188,0,3,,,,,2,,,76,0
7676,note_off,,,,,188,0,5,,,,,4,,,69,0
7676,note_off,,,,,188,0,4,,,,,3,,,69,0
7676,note_off,,,,,188,0,2,,,,,1,,,76,0
7676,note_off,,,,,188,0,1,,,,,0,,,76,0
7680,note_on,,,,,4,0,3,,,,,2,,,78,75
7680,note_on,,,,,4,0,5,,,,,4,,,69,60
7680,note_on,,,,,4,0,1,,,,,0,,,78,45
7680,note_on,,,,,64,0,8,,,,,7,,,62,30
7680,note_on,,,,,4,0,4,,,,,3,,,69,75
7680,note_on,,,,,4,0,2,,,,,1,,,78,45
7680,note_on,,,,,64,0,7,,,,,6,,,50,30
7680,note_on,,,,,64,0,6,,,,,5,,,62,45
7868,note_off,,,,,188,0,2,,,,,1,,,78,0
7868,note_off,,,,,188,0,4,,,,,3,,,69,0
7868,note_off,,,,,188,0,1,,,,,0,,,78,0
7868,note_off,,,,,188,0,3,,,,,2,,,78,0
7868,note_off,,,,,188,0,5,,,,,4,,,69,0
7872,note_on,,,,,4,0,2,,,,,1,,,76,45
7872,note_on,,,,,4,0,4,,,,,3,,,67,75
7872,note_on,,,,,4,0,1,,,,,0,,,76,45
7872,note_on,,,,,4,0,3,,,,,2,,,76,75
7872,note_on,,,,,4,0,5,,,,,4,,,67,60
7964,note_off,,,,,92,0,5,,,,,4,,,67,0
7964,note_off,,,,,92,0,3,,,,,2,,,76,0
7964,note_off,,,,,92,0,1,,,,,0,,,76,0
7964,note_off,,,,,92,0,2,,,,,1,,,76,0
7964,note_off,,,,,92,0,4,,,,,3,,,67,0
7968,note_on,,,,,4,0,3,,,,,2,,,78,75
7968,note_on,,,,,4,0,5,,,,,4,,,69,60
7968,note_on,,,,,4,0,4,,,,,3,,,69,75
7968,note_on,,,,,4,0,2,,,,,1,,,78,45
7968,note_on,,,,,4,0,1,,,,,0,,,78,45
8000,note_off,,,,,320,0,6,,,,,5,,,62,0
8000,note_off,,,,,320,0,7,,,,,6,,,50,0
8000,note_off,,,,,320,0,8,,,,,7,,,62,0
8060,note_off,,,,,92,0,4,,,,,3,,,69,0
8060,note_off,,,,,92,0,3,,,,,2,,,78,0
8060,note_off,,,,,92,0,2,,,,,1,,,78,0
8060,note_off,,,,,92,0,5,,,,,4,,,69,0
8060,note_off,,,,,92,0,1,,,,,0,,,78,0
8064,note_on,,,,,4,0,1,,,,,0,,,79,45
8064,note_on,,,,,4,0,4,,,,,3,,,71,75
8064,note_on,,,,,64,0,6,,,,,5,,,55,45
8064,note_on,,,,,4,0,2,,,,,1,,,79,45
8064,note_on,,,,,4,0,3,,,,,2,,,79,75
8064,note_on,,,,,64,0,7,,,,,6,,,43,30
8064,note_on,,,,,4,0,5,,,,,4,,,71,60
8064,note_on,,,,,64,0,8,,,,,7,,,55,30
8156,note_off,,,,,92,0,2,,,,,1,,,79,0
8156,note_off,,,,,92,0,5,,,,,4,,,71,0
8156,note_off,,,,,92,0,4,,,,,3,,,71,0
8156,note_off,,,,,92,0,1,,,,,0,,,79,0
8156,note_off,,,,,92,0,3,,,,,2,,,79,0
8160,note_on,,,,,4,0,1,,,,,0,,,78,45
8160,note_on,,,,,4,0,4,,,,,3,,,69,75
8160,note_on,,,,,4,0,2,,,,,1,,,78,45
8160,note_on,,,,,4,0,5,,,,,4,,,69,60
8160,note_on,,,,,4,0,3,,,,,2,,,78,75
8252,note_off,,,,,92,0,2,,,,,1,,,78,0
8252,note_off,,,,,92,0,3,,,,,2,,,78,0
8252,note_off,,,,,92,0,1,,,,,0,,,78,0
8252,note_off,,,,,92,0,4,,,,,3,,,69,0
8252,note_off,,,,,92,0,5,,,,,4,,,69,0
8256,note_on,,,,,4,0,3,,,,,2,,,76,75
8256,note_on,,,,,4,0,5,,,,,4,,,67,60
8256,note_on,,,,,4,0,2,,,,,1,,,76,45
8256,note_on,,,,,4,0,4,,,,,3,,,67,75
8256,note_on,,,,,4,0,1,,,,,0,,,76,45
8348,note_off,,,,,92,0,2,,,,,1,,,76,0
8348,note_off,,,,,92,0,1,,,,,0,,,76,0
8348,note_off,,,,,92,0,5,,,,,4,,,67,0
8348,note_off,,,,,92,0,3,,,,,2,,,76,0
8348,note_off,,,,,92,0,4,,,,,3,,,67,0
8352,note_on,,,,,4,0,5,,,,,4,,,66,60
8352,note_on,,,,,4,0,3,,,,,2,,,74,75
8352,note_on,,,,,4,0,2,,,,,1,,,74,45
8352,note_on,,,,,4,0,4,,,,,3,,,66,75
8352,note_on,,,,,4,0,1,,,,,0,,,74,45
8384,note_off,,,,,320,0,7,,,,,6,,,43,0
8384,note_off,,,,,320,0,6,,,,,5,,,55,0
8384,note_off,,,,,320,0,8,,,,,7,,,55,0
8444,note_off,,,,,92,0,1,,,,,0,,,74,0
8444,note_off,,,,,92,0,4,,,,,3,,,66,0
8444,note_off,,,,,92,0,3,,,,,2,,,74,0
8444,note_off,,,,,92,0,5,,,,,4,,,66,0
8444,note_off,,,,,92,0,2,,,,,1,,,74,0
8448,note_on,,,,,64,0,8,,,,,7,,,57,30
8448,note_on,,,,,64,0,7,,,,,6,,,45,30
8448,note_on,,,,,4,0,5,,,,,4,,,64,60
8448,note_on,,,,,64,0,6,,,,,5,,,57,45
8448,note_on,,,,,4,0,1,,,,,0,,,73,45
8448,note_on,,,,,4,0,2,,,,,1,,,73,45
8448,note_on,,,,,4,0,4,,,,,3,,,64,75
8448,note_on,,,,,4,0,3,,,,,2,,,73,75
8636,note_off,,,,,188,0,3,,,,,2,,,73,0
8636,note_off,,,,,188,0,2,,,,,1,,,73,0
8636,note_off,,,,,188,0,1,,,,,0,,,73,0
8636,note_off,,,,,188,0,4,,,,,3,,,64,0
8636,note_off,,,,,188,0,5,,,,,4,,,64,0
8640,note_on,,,,,4,0,2,,,,,1,,,76,45
8640,note_on,,,,,4,0,3,,,,,2,,,76,75
8640,note_on,,,,,4,0,5,,,,,4,,,69,60
8640,note_on,,,,,4,0,4,,,,,3,,,69,75
8640,note_on,,,,,4,0,1,,,,,0,,,76,45
8768,note_off,,,,,320,0,7,,,,,6,,,45,0
8768,note_off,,,,,320,0,6,,,,,5,,,57,0
8768,note_off,,,,,320,0,8,,,,,7,,,57,0
8828,note_off,,,,,188,0,2,,,,,1,,,76,0
8828,note_off,,,,,188,0,4,,,,,3,,,69,0
8828,note_off,,,,,188,0,3,,,,,2,,,76,0
8828,note_off,,,,,188,0,5,,,,,4,,,69,0
8828,note_off,,,,,188,0,1,,,,,0,,,76,0
8832,note_on,,,,,4,0,4,,,,,3,,,69,75
8832,note_on,,,,,64,0,6,,,,,5,,,61,45
8832,note_on,,,,,4,0,3,,,,,2,,,76,75
8832,note_on,,,,,4,0,1,,,,,0,,,76,45
8832,note_on,,,,,64,0,7,,,,,6,,,49,30
8832,note_on,,,,,64,0,8,,,,,7,,,61,30
8832,note_on,,,,,4,0,2,,,,,1,,,76,45
8832,note_on,,,,,4,0,5,,,,,4,,,69,60
9020,note_off,,,,,188,0,5,,,,,4,,,69,0
9020,note_off,,,,,188,0,1,,,,,0,,,76,0
9020,note_off,,,,,188,0,4,,,,,3,,,69,0
9020,note_off,,,,,188,0,2,,,,,1,,,76,0
9020,note_off,,,,,188,0,3,,,,,2,,,76,0
9024,note_on,,,,,4,0,1,,,,,0,,,69,45
9024,note_on,,,,,4,0,4,,,,,3,,,64,75
9024,note_on,,,,,4,0,5,,,,,4,,,64,60
9024,note_on,,,,,4,0,2,,,,,1,,,69,45
9024,note_on,,,,,4,0,3,,,,,2,,,69,75
9152,note_off,,,,,320,0,6,,,,,5,,,61,0
9152,note_off,,,,,320,0,8,,,,,7,,,61,0
9152,note_off,,,,,320,0,7,,,,,6,,,49,0
9212,note_off,,,,,188,0,2,,,,,1,,,69,0
9212,note_off,,,,,188,0,1,,,,,0,,,69,0
9212,note_off,,,,,188,0,3,,,,,2,,,69,0
9212,note_off,,,,,188,0,5,,,,,4,,,64,0
9212,note_off,,,,,188,0,4,,,,,3,,,64,0
9216,note_on,,,,,4,0,3,,,,,2,,,78,75
9216,note_on,,,,,64,0,6,,,,,5,,,62,45
9216,note_on,,,,,64,0,7,,,,,6,,,50,30
9216,note_on,,,,,4,0,4,,,,,3,,,69,75
9216,note_on,,,,,4,0,1,,,,,0,,,78,45
9216,note_on,,,,,4,0,5,,,,,4,,,69,60
9216,note_on,,,,,64,0,8,,,,,7,,,62,30
9216,note_on,,,,,4,0,2,,,,,1,,,78,45
9404,note_off,,,,,188,0,5,,,,,4,,,69,0
9404,note_off,,,,,188,0,1,,,,,0,,,78,0
9404,note_off,,,,,188,0,3,,,,,2,,,78,0
9404,note_off,,,,,188,0,2,,,,,1,,,78,0
9404,note_off,,,,,188,0,4,,,,,3,,,69,0
9408,note_on,,,,,4,0,3,,,,,2,,,86,75
9408,note_on,,,,,4,0,5,,,,,4,,,66,60
9408,note_on,,,,,4,0,2,,,,,1,,,86,45
9408,note_on,,,,,4,0,1,,,,,0,,,86,45
9408,note_on,,,,,4,0,4,,,,,3,,,66,75
9536,note_off,,,,,320,0,7,,,,,6,,,50,0
9536,note_off,,,,,320,0,6,,,,,5,,,62,0
9536,note_off,,,,,320,0,8,,,,,7,,,62,0
9596,note_off,,,,,188,0,4,,,,,3,,,66,0
9596,note_off,,,,,188,0,2,,,,,1,,,86,0
9596,note_off,,,,,188,0,5,,,,,4,,,66,0
9596,note_off,,,,,188,0,3,,,,,2,,,86,0
9596,note_off,,,,,188,0,1,,,,,0,,,86,0
9600,note_on,,,,,4,0,2,,,,,1,,,86,45
9600,note_on,,,,,4,0,4,,,,,3,,,71,75
9600,note_on,,,,,64,0,7,,,,,6,,,47,30
9600,note_on,,,,,64,0,8,,,,,7,,,59,30
9600,note_on,,,,,4,0,1,,,,,0,,,86,45
9600,note_on,,,,,64,0,6,,,,,5,,,59,45
9600,note_on,,,,,4,0,5,,,,,4,,,71,60
9600,note_on,,,,,4,0,3,,,,,2,,,86,75
9788,note_off,,,,,188,0,1,,,,,0,,,86,0
9788,note_off,,,,,188,0,2,,,,,1,,,86,0
9788,note_off,,,,,188,0,3,,,,,2,,,86,0
9792,note_on,,,,,4,0,1,,,,,0,,,78,45
9792,note_on,,,,,4,0,2,,,,,1,,,78,45
9792,note_on,,,,,4,0,3,,,,,2,,,78,75
9920,note_off,,,,,320,0,6,,,,,5,,,59,0
9920,note_off,,,,,320,0,8,,,,,7,,,59,0
9920,note_off,,,,,320,0,5,,,,,4,,,71,0
9920,note_off,,,,,320,0,7,,,,,6,,,47,0
9920,note_off,,,,,320,0,4,,,,,3,,,71,0
9980,note_off,,,,,188,0,1,,,,,0,,,78,0
9980,note_off,,,,,188,0,3,,,,,2,,,78,0
9980,note_off,,,,,188,0,2,,,,,1,,,78,0
9984,note_on,,,,,64,0,5,,,,,4,,,71,60
9984,note_on,,,,,4,0,1,,,,,0,,,76,45
9984,note_on,,,,,4,0,2,,,,,1,,,76,45
9984,note_on,,,,,64,0,4,,,,,3,,,71,75
9984,note_on,,,,,64,0,7,,,,,6,,,44,30
9984,note_on,,,,,4,0,3,,,,,2,,,76,75
9984,note_on,,,,,64,0,8,,,,,7,,,56,30
9984,note_on,,,,,64,0,6,,,,,5,,,56,45
10172,note_off,,,,,188,0,2,,,,,1,,,76,0
10172,note_off,,,,,188,0,3,,,,,2,,,76,0
10172,note_off,,,,,188,0,1,,,,,0,,,76,0
10172,note_off,,,,,188,0,5,,,,,4,,,71,0
10172,note_off,,,,,188,0,4,,,,,3,,,71,0
10176,note_on,,,,,4,0,2,,,,,1,,,86,45
10176,note_on,,,,,4,0,3,,,,,2,,,86,75
10176,note_on,,,,,4,0,5,,,,,4,,,64,60
10176,note_on,,,,,4,0,4,,,,,3,,,64,75
10176,note_on,,,,,4,0,1,,,,,0,,,86,45
10304,note_off,,,,,320,0,6,,,,,5,,,56,0
10304,note_off,,,,,320,0,8,,,,,7,,,56,0
10304,note_off,,,,,320,0,7,,,,,6,,,44,0
10364,note_off,,,,,188,0,2,,,,,1,,,86,0
10364,note_off,,,,,188,0,3,,,,,2,,,86,0
10364,note_off,,,,,188,0,1,,,,,0,,,86,0
10364,note_off,,,,,188,0,5,,,,,4,,,64,0
10364,note_off,,,,,188,0,4,,,,,3,,,64,0
10368,note_on,,,,,64,0,6,,,,,5,,,52,45
10368,note_on,,,,,4,0,2,,,,,1,,,86,45
10368,note_on,,,,,4,0,5,,,,,4,,,68,60
10368,note_on,,,,,4,0,3,,,,,2,,,86,75
10368,note_on,,,,,4,0,1,,,,,0,,,86,45
10368,note_on,,,,,64,0,7,,,,,6,,,40,30
10368,note_on,,,,,4,0,4,,,,,3,,,68,75
10368,note_on,,,,,64,0,8,,,,,7,,,52,30
10556,note_off,,,,,188,0,3,,,,,2,,,86,0
10556,note_off,,,,,188,0,1,,,,,0,,,86,0
10556,note_off,,,,,188,0,5,,,,,4,,,68,0
10556,note_off,,,,,188,0,2,,,,,1,,,86,0
10556,note_off,,,,,188,0,4,,,,,3,,,68,0
10560,note_on,,,,,4,0,2,,,,,1,,,83,45
10560,note_on,,,,,4,0,5,,,,,4,,,76,60
10560,note_on,,,,,4,0,1,,,,,0,,,83,45
10560,note_on,,,,,4,0,4,,,,,3,,,76,75
10560,note_on,,,,,4,0,3,,,,,2,,,83,75
10688,note_off,,,,,320,0,7,,,,,6,,,40,0
10688,note_off,,,,,320,0,8,,,,,7,,,52,0
10688,note_off,,,,,320,0,6,,,,,5,,,52,0
10748,note_off,,,,,188,0,5,,,,,4,,,76,0
10748,note_off,,,,,188,0,3,,,,,2,,,83,0
10748,note_off,,,,,188,0,4,,,,,3,,,76,0
10748,note_off,,,,,188,0,2,,,,,1,,,83,0
10748,note_off,,,,,188,0,1,,,,,0,,,83,0
10752,note_on,,,,,4,0,5,,,,,4,,,76,60
10752,note_on,,,,,4,0,2,,,,,1,,,85,45
10752,note_on,,,,,64,0,6,,,,,5,,,57,45
10752,note_on,,,,,4,0,4,,,,,3,,,76,75
10752,note_on,,,,,4,0,1,,,,,0,,,85,45
10752,note_on,,,,,64,0,7,,,,,6,,,45,30
10752,note_on,,,,,4,0,3,,,,,2,,,85,75
10752,note_on,,,,,64,0,8,,,,,7,,,57,30
10940,note_off,,,,,188,0,3,,,,,2,,,85,0
10940,note_off,,,,,188,0,7,,,,,6,,,45,0
10940,note_off,,,,,188,0,4,,,,,3,,,76,0
10940,note_off,,,,,188,0,1,,,,,0,,,85,0
10940,note_off,,,,,188,0,5,,,,,4,,,76,0
10940,note_off,,,,,188,0,8,,,,,7,,,57,0
10940,note_off,,,,,188,0,6,,,,,5,,,57,0
10940,note_off,,,,,188,0,2,,,,,1,,,85,0
10944,note_on,,,,,4,0,7,,,,,6,,,50,30
10944,note_on,,,,,4,0,8,,,,,7,,,62,30
10944,note_on,,,,,4,0,2,,,,,1,,,81,45
10944,note_on,,,,,4,0,3,,,,,2,,,81,75
10944,note_on,,,,,4,0,4,,,,,3,,,74,75
10944,note_on,,,,,4,0,5,,,,,4,,,74,60
10944,note_on,,,,,4,0,6,,,,,5,,,62,45
10944,note_on,,,,,4,0,1,,,,,0,,,81,45
11132,note_off,,,,,188,0,7,,,,,6,,,50,0
11132,note_off,,,,,188,0,4,,,,,3,,,74,0
11132,note_off,,,,,188,0,8,,,,,7,,,62,0
11132,note_off,,,,,188,0,2,,,,,1,,,81,0
11132,note_off,,,,,188,0,1,,,,,0,,,81,0
11132,note_off,,,,,188,0,5,,,,,4,,,74,0
11132,note_off,,,,,188,0,6,,,,,5,,,62,0
11132,note_off,,,,,188,0,3,,,,,2,,,81,0
11136,note_on,,,,,4,0,4,,,,,3,,,73,75
11136,note_on,,,,,4,0,6,,,,,5,,,64,45
11136,note_on,,,,,4,0,5,,,,,4,,,73,60
11136,note_on,,,,,4,0,7,,,,,6,,,52,30
11136,note_on,,,,,4,0,3,,,,,2,,,76,75
11136,note_on,,,,,4,0,2,,,,,1,,,76,45
11136,note_on,,,,,4,0,8,,,,,7,,,64,30
11136,note_on,,,,,4,0,1,,,,,0,,,76,45
11324,note_off,,,,,188,0,8,,,,,7,,,64,0
11324,note_off,,,,,188,0,7,,,,,6,,,52,0
11324,note_off,,,,,188,0,4,,,,,3,,,73,0
11324,note_off,,,,,188,0,5,,,,,4,,,73,0
11324,note_off,,,,,188,0,2,,,,,1,,,76,0
11324,note_off,,,,,188,0,6,,,,,5,,,64,0
11324,note_off,,,,,188,0,1,,,,,0,,,76,0
11324,note_off,,,,,188,0,3,,,,,2,,,76,0
11328,note_on,,,,,4,0,5,,,,,4,,,71,60
11328,note_on,,,,,4,0,3,,,,,2,,,80,75
11328,note_on,,,,,4,0,2,,,,,1,,,80,45
11328,note_on,,,,,4,0,1,,,,,0,,,80,45
11328,note_on,,,,,4,0,6,,,,,5,,,52,45
11328,note_on,,,,,4,0,7,,,,,6,,,40,30
11328,note_on,,,,,4,0,8,,,,,7,,,52,30
11328,note_on,,,,,4,0,4,,,,,3,,,71,75
11516,note_off,,,,,188,0,5,,,,,4,,,71,0
11516,note_off,,,,,188,0,1,,,,,0,,,80,0
11516,note_off,,,,,188,0,2,,,,,1,,,80,0
11516,note_off,,,,,188,0,3,,,,,2,,,80,0
11516,note_off,,,,,188,0,6,,,,,5,,,52,0
11516,note_off,,,,,188,0,8,,,,,7,,,52,0
11516,note_off,,,,,188,0,4,,,,,3,,,71,0
11516,note_off,,,,,188,0,7,,,,,6,,,40,0
11520,note_on,,,,,4,0,8,,,,,7,,,57,30
11520,note_on,,,,,4,0,5,,,,,4,,,73,60
11520,note_on,,,,,4,0,6,,,,,5,,,57,45
11520,note_on,,,,,4,0,3,,,,,2,,,81,75
11520,note_on,,,,,4,0,7,,,,,6,,,45,30
11520,note_on,,,,,4,0,1,,,,,0,,,81,45
11520,note_on,,,,,4,0,2,,,,,1,,,81,45
11520,note_on,,,,,4,0,4,,,,,3,,,73,75
11708,note_off,,,,,188,0,7,,,,,6,,,45,0
11708,note_off,,,,,188,0,5,,,,,4,,,73,0
11708,note_off,,,,,188,0,8,,,,,7,,,57,0
11708,note_off,,,,,188,0,4,,,,,3,,,73,0
11708,note_off,,,,,188,0,6,,,,,5,,,57,0
11712,note_on,,,,,4,0,5,,,,,4,,,74,60
11712,note_on,,,,,4,0,4,,,,,3,,,74,75
11712,note_on,,,,,4,0,6,,,,,5,,,59,45
11712,note_on,,,,,4,0,7,,,,,6,,,47,30
11712,note_on,,,,,4,0,8,,,,,7,,,59,30
11900,note_off,,,,,188,0,5,,,,,4,,,74,0
11900,note_off,,,,,188,0,8,,,,,7,,,59,0
11900,note_off,,,,,188,0,7,,,,,6,,,47,0
11900,note_off,,,,,188,0,4,,,,,3,,,74,0
11900,note_off,,,,,188,0,6,,,,,5,,,59,0
11904,note_on,,,,,4,0,5,,,,,4,,,76,60
11904,note_on,,,,,4,0,7,,,,,6,,,49,30
11904,note_on,,,,,4,0,4,,,,,3,,,76,75
11904,note_on,,,,,4,0,8,,,,,7,,,61,30
11904,note_on,,,,,4,0,6,,,,,5,,,61,45
12092,note_off,,,,,188,0,8,,,,,7,,,61,0
12092,note_off,,,,,188,0,7,,,,,6,,,49,0
12092,note_off,,,,,188,0,5,,,,,4,,,76,0
12092,note_off,,,,,188,0,6,,,,,5,,,61,0
12092,note_off,,,,,188,0,4,,,,,3,,,76,0
12096,note_on,,,,,4,0,8,,,,,7,,,57,30
12096,note_on,,,,,4,0,6,,,,,5,,,57,45
12096,note_on,,,,,4,0,7,,,,,6,,,45,30
12096,note_on,,,,,4,0,4,,,,,3,,,73,75
12096,note_on,,,,,4,0,5,,,,,4,,,73,60
12192,note_off,,,,,672,0,3,,,,,2,,,81,0
12192,note_off,,,,,672,0,2,,,,,1,,,81,0
12192,note_off,,,,,672,0,1,,,,,0,,,81,0
12284,note_off,,,,,188,0,7,,,,,6,,,45,0
12284,note_off,,,,,188,0,5,,,,,4,,,73,0
12284,note_off,,,,,188,0,6,,,,,5,,,57,0
12284,note_off,,,,,188,0,8,,,,,7,,,57,0
12284,note_off,,,,,188,0,4,,,,,3,,,73,0
12288,note_on,,,,,96,0,2,,,,,1,,,69,45
12288,note_on,,,,,4,0,6,,,,,5,,,54,45
12288,note_on,,,,,96,0,3,,,,,2,,,69,75
12288,note_on,,,,,96,0,1,,,,,0,,,69,45
12288,note_on,,,,,4,0,4,,,,,3,,,74,75
12288,note_on,,,,,4,0,7,,,,,6,,,42,30
12288,note_on,,,,,4,0,8,,,,,7,,,54,30
12288,note_on,,,,,4,0,5,,,,,4,,,74,60
12476,note_off,,,,,188,0,1,,,,,0,,,69,0
12476,note_off,,,,,188,0,3,,,,,2,,,69,0
12476,note_off,,,,,188,0,5,,,,,4,,,74,0
12476,note_off,,,,,188,0,2,,,,,1,,,69,0
12476,note_off,,,,,188,0,4,,,,,3,,,74,0
12480,note_on,,,,,4,0,3,,,,,2,,,74,75
12480,note_on,,,,,4,0,1,,,,,0,,,74,45
12480,note_on,,,,,4,0,2,,,,,1,,,74,45
12480,note_on,,,,,4,0,5,,,,,4,,,69,60
12480,note_on,,,,,4,0,4,,,,,3,,,69,75
12608,note_off,,,,,320,0,7,,,,,6,,,42,0
12608,note_off,,,,,320,0,8,,,,,7,,,54,0
12608,note_off,,,,,320,0,6,,,,,5,,,54,0
12668,note_off,,,,,188,0,4,,,,,3,,,69,0
12668,note_off,,,,,188,0,1,,,,,0,,,74,0
12668,note_off,,,,,188,0,3,,,,,2,,,74,0
12668,note_off,,,,,188,0,5,,,,,4,,,69,0
12668,note_off,,,,,188,0,2,,,,,1,,,74,0
12672,note_on,,,,,64,0,7,,,,,6,,,38,30
12672,note_on,,,,,64,0,8,,,,,7,,,50,30
12672,note_on,,,,,4,0,4,,,,,3,,,66,75
12672,note_on,,,,,64,0,6,,,,,5,,,50,45
12672,note_on,,,,,4,0,5,,,,,4,,,66,60
12672,note_on,,,,,4,0,3,,,,,2,,,74,75
12672,note_on,,,,,4,0,1,,,,,0,,,74,45
12672,note_on,,,,,4,0,2,,,,,1,,,74,45
12860,note_off,,,,,188,0,3,,,,,2,,,74,0
12860,note_off,,,,,188,0,5,,,,,4,,,66,0
12860,note_off,,,,,188,0,4,,,,,3,,,66,0
12860,note_off,,,,,188,0,1,,,,,0,,,74,0
12860,note_off,,,,,188,0,2,,,,,1,,,74,0
12864,note_on,,,,,4,0,1,,,,,0,,,69,45
12864,note_on,,,,,4,0,5,,,,,4,,,62,60
12864,note_on,,,,,4,0,3,,,,,2,,,69,75
12864,note_on,,,,,4,0,2,,,,,1,,,69,45
12864,note_on,,,,,4,0,4,,,,,3,,,62,75
12992,note_off,,,,,320,0,7,,,,,6,,,38,0
12992,note_off,,,,,320,0,6,,,,,5,,,50,0
12992,note_off,,,,,320,0,8,,,,,7,,,50,0
13052,note_off,,,,,188,0,3,,,,,2,,,69,0
13052,note_off,,,,,188,0,4,,,,,3,,,62,0
13052,note_off,,,,,188,0,2,,,,,1,,,69,0
13052,note_off,,,,,188,0,5,,,,,4,,,62,0
13052,note_off,,,,,188,0,1,,,,,0,,,69,0
13056,note_on,,,,,4,0,1,,,,,0,,,71,45
13056,note_on,,,,,4,0,5,,,,,4,,,62,60
13056,note_on,,,,,64,0,6,,,,,5,,,55,45
13056,note_on,,,,,64,0,7,,,,,6,,,43,30
13056,note_on,,,,,64,0,8,,,,,7,,,55,30
13056,note_on,,,,,4,0,3,,,,,2,,,71,75
13056,note_on,,,,,4,0,4,,,,,3,,,62,75
13056,note_on,,,,,4,0,2,,,,,1,,,71,45
13244,note_off,,,,,188,0,1,,,,,0,,,71,0
13244,note_off,,,,,188,0,3,,,,,2,,,71,0
13244,note_off,,,,,188,0,4,,,,,3,,,62,0
13244,note_off,,,,,188,0,5,,,,,4,,,62,0
13244,note_off,,,,,188,0,2,,,,,1,,,71,0
13248,note_on,,,,,4,0,2,,,,,1,,,76,45
13248,note_on,,,,,4,0,3,,,,,2,,,76,75
13248,note_on,,,,,4,0,5,,,,,4,,,67,60
13248,note_on,,,,,4,0,4,,,,,3,,,67,75
13248,note_on,,,,,4,0,1,,,,,0,,,76,45
13376,note_off,,,,,320,0,7,,,,,6,,,43,0
13376,note_off,,,,,320,0,8,,,,,7,,,55,0
13376,note_off,,,,,320,0,6,,,,,5,,,55,0
13436,note_off,,,,,188,0,3,,,,,2,,,76,0
13436,note_off,,,,,188,0,5,,,,,4,,,67,0
13436,note_off,,,,,188,0,2,,,,,1,,,76,0
13436,note_off,,,,,188,0,4,,,,,3,,,67,0
13436,note_off,,,,,188,0,1,,,,,0,,,76,0
13440,note_on,,,,,4,0,5,,,,,4,,,67,60
13440,note_on,,,,,4,0,3,,,,,2,,,76,75
13440,note_on,,,,,4,0,1,,,,,0,,,76,45
13440,note_on,,,,,64,0,8,,,,,7,,,52,30
13440,note_on,,,,,4,0,4,,,,,3,,,67,75
13440,note_on,,,,,4,0,2,,,,,1,,,76,45
13440,note_on,,,,,64,0,7,,,,,6,,,40,30
13440,note_on,,,,,64,0,6,,,,,5,,,52,45
13628,note_off,,,,,188,0,5,,,,,4,,,67,0
13628,note_off,,,,,188,0,4,,,,,3,,,67,0
13628,note_off,,,,,188,0,1,,,,,0,,,76,0
13628,note_off,,,,,188,0,3,,,,,2,,,76,0
13628,note_off,,,,,188,0,2,,,,,1,,,76,0
13632,note_on,,,,,4,0,4,,,,,3,,,66,75
13632,note_on,,,,,4,0,1,,,,,0,,,78,45
13632,note_on,,,,,4,0,2,,,,,1,,,78,45
13632,note_on,,,,,4,0,5,,,,,4,,,66,60
13632,note_on,,,,,4,0,3,,,,,2,,,78,75
13724,note_off,,,,,92,0,2,,,,,1,,,78,0
13724,note_off,,,,,92,0,3,,,,,2,,,78,0
13724,note_off,,,,,92,0,1,,,,,0,,,78,0
13728,note_on,,,,,4,0,2,,,,,1,,,79,45
13728,note_on,,,,,4,0,3,,,,,2,,,79,75
13728,note_on,,,,,4,0,1,,,,,0,,,79,45
13760,note_off,,,,,320,0,6,,,,,5,,,52,0
13760,note_off,,,,,320,0,8,,,,,7,,,52,0
13760,note_off,,,,,320,0,7,,,,,6,,,40,0
13820,note_off,,,,,188,0,5,,,,,4,,,66,0
13820,note_off,,,,,92,0,3,,,,,2,,,79,0
13820,note_off,,,,,92,0,2,,,,,1,,,79,0
13820,note_off,,,,,188,0,4,,,,,3,,,66,0
13820,note_off,,,,,92,0,1,,,,,0,,,79,0
13824,note_on,,,,,4,0,2,,,,,1,,,73,45
13824,note_on,,,,,4,0,4,,,,,3,,,64,75
13824,note_on,,,,,64,0,6,,,,,5,,,57,45
13824,note_on,,,,,64,0,7,,,,,6,,,45,30
13824,note_on,,,,,4,0,1,,,,,0,,,73,45
13824,note_on,,,,,4,0,5,,,,,4,,,64,60
13824,note_on,,,,,4,0,3,,,,,2,,,73,75
13824,note_on,,,,,64,0,8,,,,,7,,,57,30
14012,note_off,,,,,188,0,2,,,,,1,,,73,0
14012,note_off,,,,,188,0,1,,,,,0,,,73,0
14012,note_off,,,,,188,0,3,,,,,2,,,73,0
14016,note_on,,,,,4,0,3,,,,,2,,,69,75
14016,note_on,,,,,4,0,1,,,,,0,,,69,45
14016,note_on,,,,,4,0,2,,,,,1,,,69,45
14144,note_off,,,,,320,0,5,,,,,4,,,64,0
14144,note_off,,,,,320,0,4,,,,,3,,,64,0
14144,note_off,,,,,320,0,8,,,,,7,,,57,0
14144,note_off,,,,,320,0,6,,,,,5,,,57,0
14144,note_off,,,,,320,0,7,,,,,6,,,45,0
14204,note_off,,,,,188,0,3,,,,,2,,,69,0
14204,note_off,,,,,188,0,1,,,,,0,,,69,0
14204,note_off,,,,,188,0,2,,,,,1,,,69,0
14208,note_on,,,,,4,0,2,,,,,1,,,76,45
14208,note_on,,,,,64,0,5,,,,,4,,,69,60
14208,note_on,,,,,64,0,7,,,,,6,,,49,30
14208,note_on,,,,,64,0,4,,,,,3,,,69,75
14208,note_on,,,,,4,0,1,,,,,0,,,76,45
14208,note_on,,,,,64,0,8,,,,,7,,,61,30
14208,note_on,,,,,4,0,3,,,,,2,,,76,75
14208,note_on,,,,,64,0,6,,,,,5,,,61,45
14396,note_off,,,,,188,0,1,,,,,0,,,76,0
14396,note_off,,,,,188,0,3,,,,,2,,,76,0
14396,note_off,,,,,188,0,2,,,,,1,,,76,0
14400,note_on,,,,,4,0,1,,,,,0,,,67,45
14400,note_on,,,,,4,0,3,,,,,2,,,67,75
14400,note_on,,,,,4,0,2,,,,,1,,,67,45
14528,note_off,,,,,320,0,8,,,,,7,,,61,0
14528,note_off,,,,,320,0,6,,,,,5,,,61,0
14528,note_off,,,,,320,0,4,,,,,3,,,69,0
14528,note_off,,,,,320,0,5,,,,,4,,,69,0
14528,note_off,,,,,320,0,7,,,,,6,,,49,0
14588,note_off,,,,,188,0,1,,,,,0,,,67,0
14588,note_off,,,,,188,0,2,,,,,1,,,67,0
14588,note_off,,,,,188,0,3,,,,,2,,,67,0
14592,note_on,,,,,64,0,6,,,,,5,,,62,45
14592,note_on,,,,,4,0,3,,,,,2,,,66,75
14592,note_on,,,,,64,0,7,,,,,6,,,50,30
14592,note_on,,,,,64,0,4,,,,,3,,,69,75
14592,note_on,,,,,64,0,8,,,,,7,,,62,30
14592,note_on,,,,,4,0,1,,,,,0,,,66,45
14592,note_on,,,,,4,0,2,,,,,1,,,66,45
14592,note_on,,,,,64,0,5,,,,,4,,,69,60
14780,note_off,,,,,188,0,8,,,,,7,,,62,0
14780,note_off,,,,,188,0,6,,,,,5,,,62,0
14780,note_off,,,,,188,0,5,,,,,4,,,69,0
14780,note_off,,,,,188,0,7,,,,,6,,,50,0
14780,note_off,,,,,188,0,4,,,,,3,,,69,0
14784,note_on,,,,,4,0,8,,,,,7,,,54,30
14784,note_on,,,,,4,0,5,,,,,4,,,62,60
14784,note_on,,,,,4,0,6,,,,,5,,,54,45
14784,note_on,,,,,4,0,4,,,,,3,,,62,75
14784,note_on,,,,,4,0,7,,,,,6,,,42,30
14912,note_off,,,,,320,0,3,,,,,2,,,66,0
14912,note_off,,,,,320,0,2,,,,,1,,,66,0
14912,note_off,,,,,320,0,1,,,,,0,,,66,0
14972,note_off,,,,,188,0,4,,,,,3,,,62,0
14972,note_off,,,,,188,0,7,,,,,6,,,42,0
14972,note_off,,,,,188,0,8,,,,,7,,,54,0
14972,note_off,,,,,188,0,5,,,,,4,,,62,0
14972,note_off,,,,,188,0,6,,,,,5,,,54,0
14976,note_on,,,,,4,0,5,,,,,4,,,64,60
14976,note_on,,,,,4,0,8,,,,,7,,,55,30
14976,note_on,,,,,4,0,7,,,,,6,,,43,30
14976,note_on,,,,,4,0,6,,,,,5,,,55,45
14976,note_on,,,,,4,0,4,,,,,3,,,64,75
15164,note_off,,,,,188,0,7,,,,,6,,,43,0
15164,note_off,,,,,188,0,5,,,,,4,,,64,0
15164,note_off,,,,,188,0,4,,,,,3,,,64,0
15164,note_off,,,,,188,0,8,,,,,7,,,55,0
15164,note_off,,,,,188,0,6,,,,,5,,,55,0
15168,note_on,,,,,4,0,7,,,,,6,,,45,30
15168,note_on,,,,,4,0,4,,,,,3,,,61,75
15168,note_on,,,,,4,0,5,,,,,4,,,61,60
15168,note_on,,,,,4,0,6,,,,,5,,,57,45
15168,note_on,,,,,4,0,8,,,,,7,,,57,30
15356,note_off,,,,,188,0,6,,,,,5,,,57,0
15356,note_off,,,,,188,0,4,,,,,3,,,61,0
15356,note_off,,,,,188,0,7,,,,,6,,,45,0
15356,note_off,,,,,188,0,5,,,,,4,,,61,0
15356,note_off,,,,,188,0,8,,,,,7,,,57,0
15360,note_on,,,,,4,0,7,,,,,6,,,38,30
15360,note_on,,,,,448,0,2,,,,,1,,,78,45
15360,note_on,,,,,4,0,8,,,,,7,,,50,30
15360,note_on,,,,,4,0,6,,,,,5,,,50,45
15360,note_on,,,,,4,0,4,,,,,3,,,69,75
15360,note_on,,,,,448,0,3,,,,,2,,,78,75
15360,note_on,,,,,448,0,1,,,,,0,,,78,45
15360,note_on,,,,,4,0,5,,,,,4,,,69,60
15452,note_off,,,,,92,0,3,,,,,2,,,78,0
15452,note_off,,,,,92,0,2,,,,,1,,,78,0
15452,note_off,,,,,92,0,1,,,,,0,,,78,0
15456,note_on,,,,,4,0,1,,,,,0,,,74,45
15456,note_on,,,,,4,0,3,,,,,2,,,74,75
15456,note_on,,,,,4,0,2,,,,,1,,,74,45
15548,note_off,,,,,188,0,5,,,,,4,,,69,0
15548,note_off,,,,,92,0,2,,,,,1,,,74,0
15548,note_off,,,,,188,0,4,,,,,3,,,69,0
15548,note_off,,,,,92,0,3,,,,,2,,,74,0
15548,note_off,,,,,92,0,1,,,,,0,,,74,0
15552,note_on,,,,,4,0,1,,,,,0,,,78,45
15552,note_on,,,,,4,0,5,,,,,4,,,62,60
15552,note_on,,,,,4,0,4,,,,,3,,,62,75
15552,note_on,,,,,4,0,3,,,,,2,,,78,75
15552,note_on,,,,,4,0,2,,,,,1,,,78,45
15644,note_off,,,,,92,0,1,,,,,0,,,78,0
15644,note_off,,,,,92,0,3,,,,,2,,,78,0
15644,note_off,,,,,92,0,2,,,,,1,,,78,0
15648,note_on,,,,,4,0,3,,,,,2,,,81,75
15648,note_on,,,,,4,0,1,,,,,0,,,81,45
15648,note_on,,,,,4,0,2,,,,,1,,,81,45
15680,note_off,,,,,320,0,7,,,,,6,,,38,0
15680,note_off,,,,,320,0,8,,,,,7,,,50,0
15680,note_off,,,,,320,0,6,,,,,5,,,50,0
15740,note_off,,,,,188,0,5,,,,,4,,,62,0
15740,note_off,,,,,92,0,2,,,,,1,,,81,0
15740,note_off,,,,,92,0,3,,,,,2,,,81,0
15740,note_off,,,,,92,0,1,,,,,0,,,81,0
15740,note_off,,,,,188,0,4,,,,,3,,,62,0
15744,note_on,,,,,4,0,5,,,,,4,,,69,60
15744,note_on,,,,,64,0,8,,,,,7,,,60,30
15744,note_on,,,,,64,0,6,,,,,5,,,60,45
15744,note_on,,,,,4,0,3,,,,,2,,,78,75
15744,note_on,,,,,64,0,7,,,,,6,,,48,30
15744,note_on,,,,,4,0,4,,,,,3,,,69,75
15744,note_on,,,,,4,0,1,,,,,0,,,78,45
15744,note_on,,,,,4,0,2,,,,,1,,,78,45
15836,note_off,,,,,92,0,3,,,,,2,,,78,0
15836,note_off,,,,,92,0,1,,,,,0,,,78,0
15836,note_off,,,,,92,0,2,,,,,1,,,78,0
15840,note_on,,,,,4,0,3,,,,,2,,,81,75
15840,note_on,,,,,4,0,1,,,,,0,,,81,45
15840,note_on,,,,,4,0,2,,,,,1,,,81,45
15932,note_off,,,,,188,0,4,,,,,3,,,69,0
15932,note_off,,,,,92,0,3,,,,,2,,,81,0
15932,note_off,,,,,92,0,1,,,,,0,,,81,0
15932,note_off,,,,,92,0,2,,,,,1,,,81,0
15932,note_off,,,,,188,0,5,,,,,4,,,69,0
15936,note_on,,,,,4,0,3,,,,,2,,,79,75
15936,note_on,,,,,4,0,2,,,,,1,,,79,45
15936,note_on,,,,,4,0,1,,,,,0,,,79,45
15936,note_on,,,,,4,0,5,,,,,4,,,74,60
15936,note_on,,,,,4,0,4,,,,,3,,,74,75
16028,note_off,,,,,92,0,3,,,,,2,,,79,0
16028,note_off,,,,,92,0,2,,,,,1,,,79,0
16028,note_off,,,,,92,0,1,,,,,0,,,79,0
16032,note_on,,,,,4,0,1,,,,,0,,,78,45
16032,note_on,,,,,4,0,3,,,,,2,,,78,75
16032,note_on,,,,,4,0,2,,,,,1,,,78,45
16064,note_off,,,,,320,0,7,,,,,6,,,48,0
16064,note_off,,,,,320,0,8,,,,,7,,,60,0
16064,note_off,,,,,320,0,6,,,,,5,,,60,0
16124,note_off,,,,,92,0,2,,,,,1,,,78,0
16124,note_off,,,,,92,0,1,,,,,0,,,78,0
16124,note_off,,,,,188,0,4,,,,,3,,,74,0
16124,note_off,,,,,92,0,3,,,,,2,,,78,0
16124,note_off,,,,,188,0,5,,,,,4,,,74,0
16128,note_on,,,,,4,0,4,,,,,3,,,62,75
16128,note_on,,,,,4,0,3,,,,,2,,,79,75
16128,note_on,,,,,64,0,8,,,,,7,,,59,30
16128,note_on,,,,,64,0,7,,,,,6,,,47,30
16128,note_on,,,,,4,0,2,,,,,1,,,79,45
16128,note_on,,,,,4,0,1,,,,,0,,,79,45
16128,note_on,,,,,64,0,6,,,,,5,,,59,45
16128,note_on,,,,,4,0,5,,,,,4,,,62,60
16220,note_off,,,,,92,0,1,,,,,0,,,79,0
16220,note_off,,,,,92,0,3,,,,,2,,,79,0
16220,note_off,,,,,92,0,2,,,,,1,,,79,0
16224,note_on,,,,,4,0,1,,,,,0,,,74,45
16224,note_on,,,,,4,0,3,,,,,2,,,74,75
16224,note_on,,,,,4,0,2,,,,,1,,,74,45
16316,note_off,,,,,92,0,3,,,,,2,,,74,0
16316,note_off,,,,,92,0,2,,,,,1,,,74,0
16316,note_off,,,,,92,0,1,,,,,0,,,74,0
16320,note_on,,,,,4,0,1,,,,,0,,,79,45
16320,note_on,,,,,4,0,3,,,,,2,,,79,75
16320,note_on,,,,,4,0,2,,,,,1,,,79,45
16412,note_off,,,,,92,0,3,,,,,2,,,79,0
16412,note_off,,,,,92,0,1,,,,,0,,,79,0
16412,note_off,,,,,92,0,2,,,,,1,,,79,0
16416,note_on,,,,,4,0,3,,,,,2,,,83,75
16416,note_on,,,,,4,0,1,,,,,0,,,83,45
16416,note_on,,,,,4,0,2,,,,,1,,,83,45
16448,note_off,,,,,320,0,4,,,,,3,,,62,0
16448,note_off,,,,,320,0,6,,,,,5,,,59,0
16448,note_off,,,,,320,0,8,,,,,7,,,59,0
16448,note_off,,,,,320,0,7,,,,,6,,,47,0
16448,note_off,,,,,320,0,5,,,,,4,,,62,0
16508,note_off,,,,,92,0,2,,,,,1,,,83,0
16508,note_off,,,,,92,0,3,,,,,2,,,83,0
16508,note_off,,,,,92,0,1,,,,,0,,,83,0
16512,note_on,,,,,64,0,8,,,,,7,,,55,30
16512,note_on,,,,,64,0,6,,,,,5,,,55,45
16512,note_on,,,,,4,0,2,,,,,1,,,79,45
16512,note_on,,,,,64,0,4,,,,,3,,,71,75
16512,note_on,,,,,4,0,3,,,,,2,,,79,75
16512,note_on,,,,,64,0,7,,,,,6,,,43,30
16512,note_on,,,,,64,0,5,,,,,4,,,71,60
16512,note_on,,,,,4,0,1,,,,,0,,,79,45
16604,note_off,,,,,92,0,1,,,,,0,,,79,0
16604,note_off,,,,,92,0,2,,,,,1,,,79,0
16604,note_off,,,,,92,0,3,,,,,2,,,79,0
16608,note_on,,,,,4,0,3,,,,,2,,,83,75
16608,note_on,,,,,4,0,1,,,,,0,,,83,45
16608,note_on,,,,,4,0,2,,,,,1,,,83,45
16700,note_off,,,,,92,0,2,,,,,1,,,83,0
16700,note_off,,,,,92,0,3,,,,,2,,,83,0
16700,note_off,,,,,92,0,1,,,,,0,,,83,0
16704,note_on,,,,,4,0,1,,,,,0,,,81,45
16704,note_on,,,,,4,0,2,,,,,1,,,81,45
16704,note_on,,,,,4,0,3,,,,,2,,,81,75
16796,note_off,,,,,92,0,1,,,,,0,,,81,0
16796,note_off,,,,,92,0,2,,,,,1,,,81,0
16796,note_off,,,,,92,0,3,,,,,2,,,81,0
16800,note_on,,,,,4,0,1,,,,,0,,,79,45
16800,note_on,,,,,4,0,3,,,,,2,,,79,75
16800,note_on,,,,,4,0,2,,,,,1,,,79,45
16832,note_off,,,,,320,0,8,,,,,7,,,55,0
16832,note_off,,,,,320,0,6,,,,,5,,,55,0
16832,note_off,,,,,320,0,4,,,,,3,,,71,0
16832,note_off,,,,,320,0,7,,,,,6,,,43,0
16832,note_off,,,,,320,0,5,,,,,4,,,71,0
16892,note_off,,,,,92,0,3,,,,,2,,,79,0
16892,note_off,,,,,92,0,1,,,,,0,,,79,0
16892,note_off,,,,,92,0,2,,,,,1,,,79,0
16896,note_on,,,,,64,0,6,,,,,5,,,54,45
16896,note_on,,,,,4,0,3,,,,,2,,,81,75
16896,note_on,,,,,64,0,4,,,,,3,,,74,75
16896,note_on,,,,,4,0,2,,,,,1,,,81,45
16896,note_on,,,,,64,0,8,,,,,7,,,54,30
16896,note_on,,,,,64,0,5,,,,,4,,,74,60
16896,note_on,,,,,64,0,7,,,,,6,,,42,30
16896,note_on,,,,,4,0,1,,,,,0,,,81,45
16988,note_off,,,,,92,0,2,,,,,1,,,81,0
16988,note_off,,,,,92,0,3,,,,,2,,,81,0
16988,note_off,,,,,92,0,1,,,,,0,,,81,0
16992,note_on,,,,,4,0,1,,,,,0,,,74,45
16992,note_on,,,,,4,0,3,,,,,2,,,74,75
16992,note_on,,,,,4,0,2,,,,,1,,,74,45
17084,note_off,,,,,92,0,1,,,,,0,,,74,0
17084,note_off,,,,,92,0,3,,,,,2,,,74,0
17084,note_off,,,,,92,0,2,,,,,1,,,74,0
17088,note_on,,,,,4,0,1,,,,,0,,,81,45
17088,note_on,,,,,4,0,3,,,,,2,,,81,75
17088,note_on,,,,,4,0,2,,,,,1,,,81,45
17180,note_off,,,,,92,0,3,,,,,2,,,81,0
17180,note_off,,,,,92,0,2,,,,,1,,,81,0
17180,note_off,,,,,92,0,1,,,,,0,,,81,0
17184,note_on,,,,,4,0,3,,,,,2,,,84,75
17184,note_on,,,,,4,0,1,,,,,0,,,84,45
17184,note_on,,,,,4,0,2,,,,,1,,,84,45
17216,note_off,,,,,320,0,6,,,,,5,,,54,0
17216,note_off,,,,,320,0,5,,,,,4,,,74,0
17216,note_off,,,,,320,0,4,,,,,3,,,74,0
17216,note_off,,,,,320,0,7,,,,,6,,,42,0
17216,note_off,,,,,320,0,8,,,,,7,,,54,0
17276,note_off,,,,,92,0,3,,,,,2,,,84,0
17276,note_off,,,,,92,0,1,,,,,0,,,84,0
17276,note_off,,,,,92,0,2,,,,,1,,,84,0
17280,note_on,,,,,4,0,1,,,,,0,,,81,45
17280,note_on,,,,,64,0,5,,,,,4,,,66,60
17280,note_on,,,,,64,0,8,,,,,7,,,50,30
17280,note_on,,,,,4,0,3,,,,,2,,,81,75
17280,note_on,,,,,64,0,4,,,,,3,,,66,75
17280,note_on,,,,,64,0,7,,,,,6,,,38,30
17280,note_on,,,,,4,0,2,,,,,1,,,81,45
17280,note_on,,,,,64,0,6,,,,,5,,,50,45
17372,note_off,,,,,92,0,3,,,,,2,,,81,0
17372,note_off,,,,,92,0,2,,,,,1,,,81,0
17372,note_off,,,,,92,0,1,,,,,0,,,81,0
17376,note_on,,,,,4,0,3,,,,,2,,,84,75
17376,note_on,,,,,4,0,2,,,,,1,,,84,45
17376,note_on,,,,,4,0,1,,,,,0,,,84,45
17468,note_off,,,,,92,0,3,,,,,2,,,84,0
17468,note_off,,,,,92,0,1,,,,,0,,,84,0
17468,note_off,,,,,92,0,2,,,,,1,,,84,0
17472,note_on,,,,,4,0,2,,,,,1,,,83,45
17472,note_on,,,,,4,0,1,,,,,0,,,83,45
17472,note_on,,,,,4,0,3,,,,,2,,,83,75
17564,note_off,,,,,92,0,3,,,,,2,,,83,0
17564,note_off,,,,,92,0,2,,,,,1,,,83,0
17564,note_off,,,,,92,0,1,,,,,0,,,83,0
17568,note_on,,,,,4,0,1,,,,,0,,,81,45
17568,note_on,,,,,4,0,3,,,,,2,,,81,75
17568,note_on,,,,,4,0,2,,,,,1,,,81,45
17600,note_off,,,,,320,0,6,,,,,5,,,50,0
17600,note_off,,,,,320,0,8,,,,,7,,,50,0
17600,note_off,,,,,320,0,5,,,,,4,,,66,0
17600,note_off,,,,,320,0,7,,,,,6,,,38,0
17600,note_off,,,,,320,0,4,,,,,3,,,66,0
17660,note_off,,,,,92,0,1,,,,,0,,,81,0
17660,note_off,,,,,92,0,2,,,,,1,,,81,0
17660,note_off,,,,,92,0,3,,,,,2,,,81,0
17664,note_on,,,,,4,0,3,,,,,2,,,83,75
17664,note_on,,,,,64,0,5,,,,,4,,,74,60
17664,note_on,,,,,64,0,6,,,,,5,,,55,45
17664,note_on,,,,,64,0,7,,,,,6,,,43,30
17664,note_on,,,,,4,0,2,,,,,1,,,83,45
17664,note_on,,,,,64,0,4,,,,,3,,,74,75
17664,note_on,,,,,4,0,1,,,,,0,,,83,45
17664,note_on,,,,,64,0,8,,,,,7,,,55,30
17852,note_off,,,,,188,0,1,,,,,0,,,83,0
17852,note_off,,,,,188,0,2,,,,,1,,,83,0
17852,note_off,,,,,188,0,3,,,,,2,,,83,0
17856,note_on,,,,,4,0,2,,,,,1,,,79,45
17856,note_on,,,,,4,0,1,,,,,0,,,79,45
17856,note_on,,,,,4,0,3,,,,,2,,,79,75
17984,note_off,,,,,320,0,5,,,,,4,,,74,0
17984,note_off,,,,,320,0,4,,,,,3,,,74,0
18044,note_off,,,,,188,0,3,,,,,2,,,79,0
18044,note_off,,,,,188,0,2,,,,,1,,,79,0
18044,note_off,,,,,188,0,1,,,,,0,,,79,0
18048,note_on,,,,,64,0,4,,,,,3,,,69,75
18048,note_on,,,,,64,0,5,,,,,4,,,69,60
18048,note_on,,,,,4,0,2,,,,,1,,,86,45
18048,note_on,,,,,4,0,3,,,,,2,,,86,75
18048,note_on,,,,,4,0,1,,,,,0,,,86,45
18176,note_off,,,,,512,0,6,,,,,5,,,55,0
18176,note_off,,,,,512,0,7,,,,,6,,,43,0
18176,note_off,,,,,512,0,8,,,,,7,,,55,0
18240,note_on,,,,,64,0,7,,,,,6,,,42,30
18240,note_on,,,,,64,0,6,,,,,5,,,54,45
18240,note_on,,,,,64,0,8,,,,,7,,,54,30
18368,note_off,,,,,320,0,4,,,,,3,,,69,0
18368,note_off,,,,,320,0,5,,,,,4,,,69,0
18428,note_off,,,,,188,0,8,,,,,7,,,54,0
18428,note_off,,,,,188,0,6,,,,,5,,,54,0
18428,note_off,,,,,188,0,7,,,,,6,,,42,0
18432,note_on,,,,,4,0,7,,,,,6,,,40,30
18432,note_on,,,,,64,0,5,,,,,4,,,67,60
18432,note_on,,,,,0,0,1,,,,,0,,,86,45
18432,note_off,,,,,384,0,1,,,,,0,,,86,0
18432,note_on,,,,,4,0,8,,,,,7,,,52,30
18432,note_on,,,,,4,0,6,,,,,5,,,52,45
18432,note_off,,,,,384,0,2,,,,,1,,,86,0
18432,note_on,,,,,64,0,4,,,,,3,,,67,75
18432,note_off,,,,,384,0,3,,,,,2,,,86,0
18432,note_on,,,,,0,0,3,,,,,2,,,86,75
18432,note_on,,,,,0,0,2,,,,,1,,,86,45
18620,note_off,,,,,188,0,2,,,,,1,,,86,0
18620,note_off,,,,,188,0,3,,,,,2,,,86,0
18620,note_off,,,,,188,0,4,,,,,3,,,67,0
18620,note_off,,,,,188,0,1,,,,,0,,,86,0
18620,note_off,,,,,188,0,5,,,,,4,,,67,0
18624,note_on,,,,,4,0,4,,,,,3,,,69,75
18624,note_on,,,,,4,0,3,,,,,2,,,85,75
18624,note_on,,,,,4,0,1,,,,,0,,,85,45
18624,note_on,,,,,4,0,5,,,,,4,,,69,60
18624,note_on,,,,,4,0,2,,,,,1,,,85,45
18716,note_off,,,,,92,0,3,,,,,2,,,85,0
18716,note_off,,,,,92,0,2,,,,,1,,,85,0
18716,note_off,,,,,92,0,1,,,,,0,,,85,0
18720,note_on,,,,,4,0,1,,,,,0,,,86,45
18720,note_on,,,,,4,0,2,,,,,1,,,86,45
18720,note_on,,,,,4,0,3,,,,,2,,,86,75
18812,note_off,,,,,92,0,1,,,,,0,,,86,0
18812,note_off,,,,,92,0,2,,,,,1,,,86,0
18812,note_off,,,,,188,0,4,,,,,3,,,69,0
18812,note_off,,,,,92,0,3,,,,,2,,,86,0
18812,note_off,,,,,188,0,5,,,,,4,,,69,0
18816,note_on,,,,,4,0,2,,,,,1,,,88,45
18816,note_on,,,,,4,0,4,,,,,3,,,67,75
18816,note_on,,,,,4,0,1,,,,,0,,,88,45
18816,note_on,,,,,4,0,5,,,,,4,,,67,60
18816,note_on,,,,,4,0,3,,,,,2,,,88,75
18944,note_off,,,,,512,0,7,,,,,6,,,40,0
18944,note_off,,,,,512,0,8,,,,,7,,,52,0
18944,note_off,,,,,512,0,6,,,,,5,,,52,0
19004,note_off,,,,,188,0,5,,,,,4,,,67,0
19004,note_off,,,,,188,0,2,,,,,1,,,88,0
19004,note_off,,,,,188,0,1,,,,,0,,,88,0
19004,note_off,,,,,188,0,3,,,,,2,,,88,0
19004,note_off,,,,,188,0,4,,,,,3,,,67,0
19008,note_on,,,,,4,0,3,,,,,2,,,79,75
19008,note_on,,,,,64,0,7,,,,,6,,,38,30
19008,note_on,,,,,4,0,5,,,,,4,,,71,60
19008,note_on,,,,,4,0,2,,,,,1,,,79,45
19008,note_on,,,,,4,0,1,,,,,0,,,79,45
19008,note_on,,,,,4,0,4,,,,,3,,,71,75
19008,note_on,,,,,64,0,8,,,,,7,,,50,30
19008,note_on,,,,,64,0,6,,,,,5,,,50,45
19196,note_off,,,,,188,0,2,,,,,1,,,79,0
19196,note_off,,,,,188,0,5,,,,,4,,,71,0
19196,note_off,,,,,188,0,8,,,,,7,,,50,0
19196,note_off,,,,,188,0,1,,,,,0,,,79,0
19196,note_off,,,,,188,0,7,,,,,6,,,38,0
19196,note_off,,,,,188,0,4,,,,,3,,,71,0
19196,note_off,,,,,188,0,3,,,,,2,,,79,0
19196,note_off,,,,,188,0,6,,,,,5,,,50,0
19200,note_on,,,,,4,0,1,,,,,0,,,79,45
19200,note_on,,,,,4,0,8,,,,,7,,,49,30
19200,note_on,,,,,4,0,6,,,,,5,,,49,45
19200,note_on,,,,,4,0,5,,,,,4,,,69,60
19200,note_on,,,,,4,0,4,,,,,3,,,69,75
19200,note_on,,,,,4,0,2,,,,,1,,,79,45
19200,note_on,,,,,4,0,3,,,,,2,,,79,75
19200,note_on,,,,,4,0,7,,,,,6,,,37,30
19388,note_off,,,,,188,0,1,,,,,0,,,79,0
19388,note_off,,,,,188,0,4,,,,,3,,,69,0
19388,note_off,,,,,188,0,3,,,,,2,,,79,0
19388,note_off,,,,,188,0,2,,,,,1,,,79,0
19388,note_off,,,,,188,0,5,,,,,4,,,69,0
19392,note_on,,,,,4,0,2,,,,,1,,,69,45
19392,note_on,,,,,4,0,1,,,,,0,,,69,45
19392,note_on,,,,,4,0,3,,,,,2,,,69,75
19392,note_on,,,,,4,0,4,,,,,3,,,64,75
19392,note_on,,,,,4,0,5,,,,,4,,,64,60
19580,note_off,,,,,188,0,3,,,,,2,,,69,0
19580,note_off,,,,,188,0,4,,,,,3,,,64,0
19580,note_off,,,,,188,0,2,,,,,1,,,69,0
19580,note_off,,,,,188,0,5,,,,,4,,,64,0
19580,note_off,,,,,188,0,1,,,,,0,,,69,0
19584,note_on,,,,,4,0,4,,,,,3,,,64,75
19584,note_on,,,,,4,0,2,,,,,1,,,69,45
19584,note_on,,,,,4,0,5,,,,,4,,,64,60
19584,note_on,,,,,4,0,1,,,,,0,,,69,45
19584,note_on,,,,,4,0,3,,,,,2,,,69,75
19712,note_off,,,,,512,0,6,,,,,5,,,49,0
19712,note_off,,,,,512,0,8,,,,,7,,,49,0
19712,note_off,,,,,512,0,7,,,,,6,,,37,0
19772,note_off,,,,,188,0,3,,,,,2,,,69,0
19772,note_off,,,,,188,0,2,,,,,1,,,69,0
19772,note_off,,,,,188,0,1,,,,,0,,,69,0
19772,note_off,,,,,188,0,5,,,,,4,,,64,0
19772,note_off,,,,,188,0,4,,,,,3,,,64,0
19776,note_on,,,,,4,0,3,,,,,2,,,76,75
19776,note_on,,,,,64,0,8,,,,,7,,,57,30
19776,note_on,,,,,4,0,5,,,,,4,,,73,60
19776,note_on,,,,,4,0,2,,,,,1,,,76,45
19776,note_on,,,,,64,0,7,,,,,6,,,45,30
19776,note_on,,,,,64,0,6,,,,,5,,,57,45
19776,note_on,,,,,4,0,4,,,,,3,,,73,75
19776,note_on,,,,,4,0,1,,,,,0,,,76,45
19964,note_off,,,,,188,0,5,,,,,4,,,73,0
19964,note_off,,,,,188,0,2,,,,,1,,,76,0
19964,note_off,,,,,188,0,4,,,,,3,,,73,0
19964,note_off,,,,,188,0,1,,,,,0,,,76,0
19964,note_off,,,,,188,0,7,,,,,6,,,45,0
19964,note_off,,,,,188,0,3,,,,,2,,,76,0
19964,note_off,,,,,188,0,6,,,,,5,,,57,0
19964,note_off,,,,,188,0,8,,,,,7,,,57,0
19968,note_on,,,,,4,0,8,,,,,7,,,62,30
19968,note_on,,,,,4,0,3,,,,,2,,,78,75
19968,note_on,,,,,4,0,6,,,,,5,,,62,45
19968,note_on,,,,,4,0,4,,,,,3,,,74,75
19968,note_on,,,,,4,0,5,,,,,4,,,74,60
19968,note_on,,,,,4,0,7,,,,,6,,,50,30
19968,note_on,,,,,4,0,1,,,,,0,,,78,45
19968,note_on,,,,,4,0,2,,,,,1,,,78,45
20156,note_off,,,,,188,0,3,,,,,2,,,78,0
20156,note_off,,,,,188,0,4,,,,,3,,,74,0
20156,note_off,,,,,188,0,7,,,,,6,,,50,0
20156,note_off,,,,,188,0,2,,,,,1,,,78,0
20156,note_off,,,,,188,0,1,,,,,0,,,78,0
20156,note_off,,,,,188,0,5,,,,,4,,,74,0
20156,note_off,,,,,188,0,6,,,,,5,,,62,0
20156,note_off,,,,,188,0,8,,,,,7,,,62,0
20160,note_on,,,,,4,0,2,,,,,1,,,74,45
20160,note_on,,,,,4,0,7,,,,,6,,,43,30
20160,note_on,,,,,4,0,3,,,,,2,,,74,75
20160,note_on,,,,,4,0,1,,,,,0,,,74,45
20160,note_on,,,,,4,0,8,,,,,7,,,55,30
20160,note_on,,,,,4,0,5,,,,,4,,,71,60
20160,note_on,,,,,4,0,6,,,,,5,,,55,45
20160,note_on,,,,,4,0,4,,,,,3,,,71,75
20348,note_off,,,,,188,0,8,,,,,7,,,55,0
20348,note_off,,,,,188,0,1,,,,,0,,,74,0
20348,note_off,,,,,188,0,6,,,,,5,,,55,0
20348,note_off,,,,,188,0,2,,,,,1,,,74,0
20348,note_off,,,,,188,0,4,,,,,3,,,71,0
20348,note_off,,,,,188,0,7,,,,,6,,,43,0
20348,note_off,,,,,188,0,5,,,,,4,,,71,0
20348,note_off,,,,,188,0,3,,,,,2,,,74,0
20352,note_on,,,,,4,0,1,,,,,0,,,69,45
20352,note_on,,,,,4,0,6,,,,,5,,,57,45
20352,note_on,,,,,4,0,3,,,,,2,,,69,75
20352,note_on,,,,,4,0,4,,,,,3,,,69,75
20352,note_on,,,,,4,0,8,,,,,7,,,57,30
20352,note_on,,,,,4,0,2,,,,,1,,,69,45
20352,note_on,,,,,4,0,7,,,,,6,,,45,30
20352,note_on,,,,,4,0,5,,,,,4,,,69,60
20540,note_off,,,,,188,0,6,,,,,5,,,57,0
20540,note_off,,,,,188,0,2,,,,,1,,,69,0
20540,note_off,,,,,188,0,4,,,,,3,,,69,0
20540,note_off,,,,,188,0,1,,,,,0,,,69,0
20540,note_off,,,,,188,0,8,,,,,7,,,57,0
20540,note_off,,,,,188,0,5,,,,,4,,,69,0
20540,note_off,,,,,188,0,3,,,,,2,,,69,0
20540,note_off,,,,,188,0,7,,,,,6,,,45,0
20544,note_on,,,,,4,0,2,,,,,1,,,73,45
20544,note_on,,,,,4,0,6,,,,,5,,,45,45
20544,note_on,,,,,4,0,4,,,,,3,,,67,75
20544,note_on,,,,,4,0,3,,,,,2,,,73,75
20544,note_on,,,,,4,0,5,,,,,4,,,67,60
20544,note_on,,,,,4,0,1,,,,,0,,,73,45
20544,note_on,,,,,4,0,7,,,,,6,,,33,30
20544,note_on,,,,,4,0,8,,,,,7,,,45,30
20732,note_off,,,,,188,0,8,,,,,7,,,45,0
20732,note_off,,,,,188,0,2,,,,,1,,,73,0
20732,note_off,,,,,188,0,6,,,,,5,,,45,0
20732,note_off,,,,,188,0,1,,,,,0,,,73,0
20732,note_off,,,,,188,0,3,,,,,2,,,73,0
20732,note_off,,,,,188,0,5,,,,,4,,,67,0
20732,note_off,,,,,188,0,7,,,,,6,,,33,0
20732,note_off,,,,,188,0,4,,,,,3,,,67,0
20736,note_on,,,,,4,0,8,,,,,7,,,50,30
20736,note_on,,,,,4,0,6,,,,,5,,,50,45
20736,note_on,,,,,4,0,4,,,,,3,,,66,75
20736,note_on,,,,,4,0,2,,,,,1,,,74,45
20736,note_on,,,,,4,0,1,,,,,0,,,74,45
20736,note_on,,,,,4,0,3,,,,,2,,,74,75
20736,note_on,,,,,4,0,5,,,,,4,,,66,60
20736,note_on,,,,,4,0,7,,,,,6,,,38,30
21408,note_off,,,,,672,0,1,,,,,0,,,74,0
21408,note_off,,,,,672,0,7,,,,,6,,,38,0
21408,note_off,,,,,672,0,8,,,,,7,,,50,0
21408,note_off,,,,,672,0,5,,,,,4,,,66,0
21408,note_off,,,,,672,0,2,,,,,1,,,74,0
21408,note_off,,,,,672,0,6,,,,,5,,,50,0
21408,note_off,,,,,672,0,4,,,,,3,,,66,0
21408,note_off,,,,,672,0,3,,,,,2,,,74,0
21504,note_on,,,,,96,0,3,,,,,2,,,69,75
21504,note_on,,,,,96,0,2,,,,,1,,,69,45
21504,note_on,,,,,96,0,7,,,,,6,,,42,30
21504,note_on,,,,,96,0,4,,,,,3,,,74,75
21504,note_on,,,,,96,0,8,,,,,7,,,54,30
21504,note_on,,,,,96,0,1,,,,,0,,,69,45
21504,note_on,,,,,96,0,5,,,,,4,,,74,60
21504,note_on,,,,,96,0,6,,,,,5,,,54,45
21692,note_off,,,,,188,0,4,,,,,3,,,74,0
21692,note_off,,,,,188,0,1,,,,,0,,,69,0
21692,note_off,,,,,188,0,5,,,,,4,,,74,0
21692,note_off,,,,,188,0,2,,,,,1,,,69,0
21692,note_off,,,,,188,0,3,,,,,2,,,69,0
21696,note_on,,,,,4,0,4,,,,,3,,,69,75
21696,note_on,,,,,4,0,2,,,,,1,,,74,45
21696,note_on,,,,,4,0,3,,,,,2,,,74,75
21696,note_on,,,,,4,0,5,,,,,4,,,69,60
21696,note_on,,,,,4,0,1,,,,,0,,,74,45
21824,note_off,,,,,320,0,6,,,,,5,,,54,0
21824,note_off,,,,,320,0,7,,,,,6,,,42,0
21824,note_off,,,,,320,0,8,,,,,7,,,54,0
21884,note_off,,,,,188,0,2,,,,,1,,,74,0
21884,note_off,,,,,188,0,3,,,,,2,,,74,0
21884,note_off,,,,,188,0,4,,,,,3,,,69,0
21884,note_off,,,,,188,0,1,,,,,0,,,74,0
21884,note_off,,,,,188,0,5,,,,,4,,,69,0
21888,note_on,,,,,4,0,1,,,,,0,,,74,45
21888,note_on,,,,,4,0,5,,,,,4,,,66,60
21888,note_on,,,,,64,0,8,,,,,7,,,50,30
21888,note_on,,,,,64,0,6,,,,,5,,,50,45
21888,note_on,,,,,4,0,4,,,,,3,,,66,75
21888,note_on,,,,,64,0,7,,,,,6,,,38,30
21888,note_on,,,,,4,0,3,,,,,2,,,74,75
21888,note_on,,,,,4,0,2,,,,,1,,,74,45
22076,note_off,,,,,188,0,1,,,,,0,,,74,0
22076,note_off,,,,,188,0,2,,,,,1,,,74,0
22076,note_off,,,,,188,0,3,,,,,2,,,74,0
22076,note_off,,,,,188,0,4,,,,,3,,,66,0
22076,note_off,,,,,188,0,5,,,,,4,,,66,0
22080,note_on,,,,,4,0,2,,,,,1,,,69,45
22080,note_on,,,,,4,0,5,,,,,4,,,62,60
22080,note_on,,,,,4,0,4,,,,,3,,,62,75
22080,note_on,,,,,4,0,1,,,,,0,,,69,45
22080,note_on,,,,,4,0,3,,,,,2,,,69,75
22208,note_off,,,,,320,0,6,,,,,5,,,50,0
22208,note_off,,,,,320,0,8,,,,,7,,,50,0
22208,note_off,,,,,320,0,7,,,,,6,,,38,0
22268,note_off,,,,,188,0,2,,,,,1,,,69,0
22268,note_off,,,,,188,0,3,,,,,2,,,69,0
22268,note_off,,,,,188,0,5,,,,,4,,,62,0
22268,note_off,,,,,188,0,1,,,,,0,,,69,0
22268,note_off,,,,,188,0,4,,,,,3,,,62,0
22272,note_on,,,,,4,0,3,,,,,2,,,71,75
22272,note_on,,,,,4,0,5,,,,,4,,,62,60
22272,note_on,,,,,64,0,6,,,,,5,,,55,45
22272,note_on,,,,,4,0,2,,,,,1,,,71,45
22272,note_on,,,,,64,0,8,,,,,7,,,55,30
22272,note_on,,,,,64,0,7,,,,,6,,,43,30
22272,note_on,,,,,4,0,4,,,,,3,,,62,75
22272,note_on,,,,,4,0,1,,,,,0,,,71,45
22460,note_off,,,,,188,0,5,,,,,4,,,62,0
22460,note_off,,,,,188,0,1,,,,,0,,,71,0
22460,note_off,,,,,188,0,2,,,,,1,,,71,0
22460,note_off,,,,,188,0,3,,,,,2,,,71,0
22460,note_off,,,,,188,0,4,,,,,3,,,62,0
22464,note_on,,,,,4,0,3,,,,,2,,,76,75
22464,note_on,,,,,4,0,4,,,,,3,,,67,75
22464,note_on,,,,,4,0,1,,,,,0,,,76,45
22464,note_on,,,,,4,0,2,,,,,1,,,76,45
22464,note_on,,,,,4,0,5,,,,,4,,,67,60
22592,note_off,,,,,320,0,7,,,,,6,,,43,0
22592,note_off,,,,,320,0,8,,,,,7,,,55,0
22592,note_off,,,,,320,0,6,,,,,5,,,55,0
22652,note_off,,,,,188,0,2,,,,,1,,,76,0
22652,note_off,,,,,188,0,4,,,,,3,,,67,0
22652,note_off,,,,,188,0,5,,,,,4,,,67,0
22652,note_off,,,,,188,0,1,,,,,0,,,76,0
22652,note_off,,,,,188,0,3,,,,,2,,,76,0
22656,note_on,,,,,64,0,7,,,,,6,,,40,30
22656,note_on,,,,,64,0,6,,,,,5,,,52,45
22656,note_on,,,,,4,0,2,,,,,1,,,76,45
22656,note_on,,,,,4,0,4,,,,,3,,,67,75
22656,note_on,,,,,64,0,8,,,,,7,,,52,30
22656,note_on,,,,,4,0,1,,,,,0,,,76,45
22656,note_on,,,,,4,0,3,,,,,2,,,76,75
22656,note_on,,,,,4,0,5,,,,,4,,,67,60
22844,note_off,,,,,188,0,2,,,,,1,,,76,0
22844,note_off,,,,,188,0,4,,,,,3,,,67,0
22844,note_off,,,,,188,0,1,,,,,0,,,76,0
22844,note_off,,,,,188,0,3,,,,,2,,,76,0
22844,note_off,,,,,188,0,5,,,,,4,,,67,0
22848,note_on,,,,,4,0,1,,,,,0,,,78,45
22848,note_on,,,,,4,0,3,,,,,2,,,78,75
22848,note_on,,,,,4,0,2,,,,,1,,,78,45
22848,note_on,,,,,4,0,4,,,,,3,,,66,75
22848,note_on,,,,,4,0,5,,,,,4,,,66,60
22940,note_off,,,,,92,0,1,,,,,0,,,78,0
22940,note_off,,,,,92,0,2,,,,,1,,,78,0
22940,note_off,,,,,92,0,3,,,,,2,,,78,0
22944,note_on,,,,,4,0,2,,,,,1,,,79,45
22944,note_on,,,,,4,0,3,,,,,2,,,79,75
22944,note_on,,,,,4,0,1,,,,,0,,,79,45
22976,note_off,,,,,320,0,8,,,,,7,,,52,0
22976,note_off,,,,,320,0,6,,,,,5,,,52,0
22976,note_off,,,,,320,0,7,,,,,6,,,40,0
23036,note_off,,,,,92,0,1,,,,,0,,,79,0
23036,note_off,,,,,92,0,2,,,,,1,,,79,0
23036,note_off,,,,,92,0,3,,,,,2,,,79,0
23036,note_off,,,,,188,0,5,,,,,4,,,66,0
23036,note_off,,,,,188,0,4,,,,,3,,,66,0
23040,note_on,,,,,64,0,8,,,,,7,,,57,30
23040,note_on,,,,,4,0,3,,,,,2,,,73,75
23040,note_on,,,,,4,0,4,,,,,3,,,64,75
23040,note_on,,,,,64,0,7,,,,,6,,,45,30
23040,note_on,,,,,4,0,1,,,,,0,,,73,45
23040,note_on,,,,,64,0,6,,,,,5,,,57,45
23040,note_on,,,,,4,0,2,,,,,1,,,73,45
23040,note_on,,,,,4,0,5,,,,,4,,,64,60
23228,note_off,,,,,188,0,3,,,,,2,,,73,0
23228,note_off,,,,,188,0,2,,,,,1,,,73,0
23228,note_off,,,,,188,0,1,,,,,0,,,73,0
23232,note_on,,,,,4,0,3,,,,,2,,,69,75
23232,note_on,,,,,4,0,2,,,,,1,,,69,45
23232,note_on,,,,,4,0,1,,,,,0,,,69,45
23360,note_off,,,,,320,0,7,,,,,6,,,45,0
23360,note_off,,,,,320,0,6,,,,,5,,,57,0
23360,note_off,,,,,320,0,5,,,,,4,,,64,0
23360,note_off,,,,,320,0,4,,,,,3,,,64,0
23360,note_off,,,,,320,0,8,,,,,7,,,57,0
23420,note_off,,,,,188,0,2,,,,,1,,,69,0
23420,note_off,,,,,188,0,3,,,,,2,,,69,0
23420,note_off,,,,,188,0,1,,,,,0,,,69,0
23424,note_on,,,,,64,0,5,,,,,4,,,69,60
23424,note_on,,,,,64,0,7,,,,,6,,,49,30
23424,note_on,,,,,64,0,4,,,,,3,,,69,75
23424,note_on,,,,,64,0,6,,,,,5,,,61,45
23424,note_on,,,,,64,0,8,,,,,7,,,61,30
23424,note_on,,,,,4,0,1,,,,,0,,,76,45
23424,note_on,,,,,4,0,2,,,,,1,,,76,45
23424,note_on,,,,,4,0,3,,,,,2,,,76,75
23612,note_off,,,,,188,0,3,,,,,2,,,76,0
23612,note_off,,,,,188,0,1,,,,,0,,,76,0
23612,note_off,,,,,188,0,2,,,,,1,,,76,0
23616,note_on,,,,,4,0,3,,,,,2,,,67,75
23616,note_on,,,,,4,0,2,,,,,1,,,67,45
23616,note_on,,,,,4,0,1,,,,,0,,,67,45
23744,note_off,,,,,320,0,6,,,,,5,,,61,0
23744,note_off,,,,,320,0,8,,,,,7,,,61,0
23744,note_off,,,,,320,0,5,,,,,4,,,69,0
23744,note_off,,,,,320,0,4,,,,,3,,,69,0
23744,note_off,,,,,320,0,7,,,,,6,,,49,0
23804,note_off,,,,,188,0,3,,,,,2,,,67,0
23804,note_off,,,,,188,0,2,,,,,1,,,67,0
23804,note_off,,,,,188,0,1,,,,,0,,,67,0
23808,note_on,,,,,4,0,1,,,,,0,,,66,45
23808,note_on,,,,,64,0,7,,,,,6,,,50,30
23808,note_on,,,,,64,0,4,,,,,3,,,69,75
23808,note_on,,,,,4,0,3,,,,,2,,,66,75
23808,note_on,,,,,64,0,8,,,,,7,,,62,30
23808,note_on,,,,,4,0,2,,,,,1,,,66,45
23808,note_on,,,,,64,0,5,,,,,4,,,69,60
23808,note_on,,,,,64,0,6,,,,,5,,,62,45
23996,note_off,,,,,188,0,8,,,,,7,,,62,0
23996,note_off,,,,,188,0,7,,,,,6,,,50,0
23996,note_off,,,,,188,0,5,,,,,4,,,69,0
23996,note_off,,,,,188,0,6,,,,,5,,,62,0
23996,note_off,,,,,188,0,4,,,,,3,,,69,0
24000,note_on,,,,,4,0,6,,,,,5,,,54,45
24000,note_on,,,,,4,0,4,,,,,3,,,62,75
24000,note_on,,,,,4,0,7,,,,,6,,,42,30
24000,note_on,,,,,4,0,5,,,,,4,,,62,60
24000,note_on,,,,,4,0,8,,,,,7,,,54,30
24128,note_off,,,,,320,0,1,,,,,0,,,66,0
24128,note_off,,,,,320,0,2,,,,,1,,,66,0
24128,note_off,,,,,320,0,3,,,,,2,,,66,0
24188,note_off,,,,,188,0,8,,,,,7,,,54,0
24188,note_off,,,,,188,0,6,,,,,5,,,54,0
24188,note_off,,,,,188,0,5,,,,,4,,,62,0
24188,note_off,,,,,188,0,4,,,,,3,,,62,0
24188,note_off,,,,,188,0,7,,,,,6,,,42,0
24192,note_on,,,,,4,0,8,,,,,7,,,55,30
24192,note_on,,,,,4,0,4,,,,,3,,,64,75
24192,note_on,,,,,4,0,5,,,,,4,,,64,60
24192,note_on,,,,,4,0,6,,,,,5,,,55,45
24192,note_on,,,,,4,0,7,,,,,6,,,43,30
24380,note_off,,,,,188,0,7,,,,,6,,,43,0
24380,note_off,,,,,188,0,4,,,,,3,,,64,0
24380,note_off,,,,,188,0,8,,,,,7,,,55,0
24380,note_off,,,,,188,0,5,,,,,4,,,64,0
24380,note_off,,,,,188,0,6,,,,,5,,,55,0
24384,note_on,,,,,4,0,7,,,,,6,,,45,30
24384,note_on,,,,,4,0,6,,,,,5,,,57,45
24384,note_on,,,,,4,0,8,,,,,7,,,57,30
24384,note_on,,,,,4,0,5,,,,,4,,,61,60
24384,note_on,,,,,4,0,4,,,,,3,,,61,75
24572,note_off,,,,,188,0,8,,,,,7,,,57,0
24572,note_off,,,,,188,0,7,,,,,6,,,45,0
24572,note_off,,,,,188,0,6,,,,,5,,,57,0
24572,note_off,,,,,188,0,5,,,,,4,,,61,0
24572,note_off,,,,,188,0,4,,,,,3,,,61,0
24576,note_on,,,,,4,0,4,,,,,3,,,69,75
24576,note_on,,,,,4,0,8,,,,,7,,,50,30
24576,note_on,,,,,448,0,2,,,,,1,,,78,45
24576,note_on,,,,,4,0,5,,,,,4,,,69,60
24576,note_on,,,,,448,0,3,,,,,2,,,78,75
24576,note_on,,,,,448,0,1,,,,,0,,,78,45
24576,note_on,,,,,4,0,7,,,,,6,,,38,30
24576,note_on,,,,,4,0,6,,,,,5,,,50,45
24668,note_off,,,,,92,0,2,,,,,1,,,78,0
24668,note_off,,,,,92,0,3,,,,,2,,,78,0
24668,note_off,,,,,92,0,1,,,,,0,,,78,0
24672,note_on,,,,,4,0,1,,,,,0,,,74,45
24672,note_on,,,,,4,0,3,,,,,2,,,74,75
24672,note_on,,,,,4,0,2,,,,,1,,,74,45
24764,note_off,,,,,188,0,5,,,,,4,,,69,0
24764,note_off,,,,,92,0,2,,,,,1,,,74,0
24764,note_off,,,,,92,0,3,,,,,2,,,74,0
24764,note_off,,,,,92,0,1,,,,,0,,,74,0
24764,note_off,,,,,188,0,4,,,,,3,,,69,0
24768,note_on,,,,,4,0,5,,,,,4,,,62,60
24768,note_on,,,,,4,0,1,,,,,0,,,78,45
24768,note_on,,,,,4,0,2,,,,,1,,,78,45
24768,note_on,,,,,4,0,3,,,,,2,,,78,75
24768,note_on,,,,,4,0,4,,,,,3,,,62,75
24860,note_off,,,,,92,0,2,,,,,1,,,78,0
24860,note_off,,,,,92,0,1,,,,,0,,,78,0
24860,note_off,,,,,92,0,3,,,,,2,,,78,0
24864,note_on,,,,,4,0,3,,,,,2,,,81,75
24864,note_on,,,,,4,0,2,,,,,1,,,81,45
24864,note_on,,,,,4,0,1,,,,,0,,,81,45
24896,note_off,,,,,320,0,6,,,,,5,,,50,0
24896,note_off,,,,,320,0,7,,,,,6,,,38,0
24896,note_off,,,,,320,0,8,,,,,7,,,50,0
24956,note_off,,,,,188,0,5,,,,,4,,,62,0
24956,note_off,,,,,92,0,2,,,,,1,,,81,0
24956,note_off,,,,,92,0,1,,,,,0,,,81,0
24956,note_off,,,,,92,0,3,,,,,2,,,81,0
24956,note_off,,,,,188,0,4,,,,,3,,,62,0
24960,note_on,,,,,64,0,7,,,,,6,,,48,30
24960,note_on,,,,,4,0,1,,,,,0,,,78,45
24960,note_on,,,,,64,0,8,,,,,7,,,60,30
24960,note_on,,,,,4,0,5,,,,,4,,,69,60
24960,note_on,,,,,64,0,6,,,,,5,,,60,45
24960,note_on,,,,,4,0,2,,,,,1,,,78,45
24960,note_on,,,,,4,0,4,,,,,3,,,69,75
24960,note_on,,,,,4,0,3,,,,,2,,,78,75
25052,note_off,,,,,92,0,2,,,,,1,,,78,0
25052,note_off,,,,,92,0,1,,,,,0,,,78,0
25052,note_off,,,,,92,0,3,,,,,2,,,78,0
25056,note_on,,,,,4,0,3,,,,,2,,,81,75
25056,note_on,,,,,4,0,2,,,,,1,,,81,45
25056,note_on,,,,,4,0,1,,,,,0,,,81,45
25148,note_off,,,,,188,0,4,,,,,3,,,69,0
25148,note_off,,,,,92,0,1,,,,,0,,,81,0
25148,note_off,,,,,188,0,5,,,,,4,,,69,0
25148,note_off,,,,,92,0,3,,,,,2,,,81,0
25148,note_off,,,,,92,0,2,,,,,1,,,81,0
25152,note_on,,,,,4,0,1,,,,,0,,,79,45
25152,note_on,,,,,4,0,5,,,,,4,,,74,60
25152,note_on,,,,,4,0,3,,,,,2,,,79,75
25152,note_on,,,,,4,0,4,,,,,3,,,74,75
25152,note_on,,,,,4,0,2,,,,,1,,,79,45
25244,note_off,,,,,92,0,2,,,,,1,,,79,0
25244,note_off,,,,,92,0,1,,,,,0,,,79,0
25244,note_off,,,,,92,0,3,,,,,2,,,79,0
25248,note_on,,,,,4,0,2,,,,,1,,,78,45
25248,note_on,,,,,4,0,3,,,,,2,,,78,75
25248,note_on,,,,,4,0,1,,,,,0,,,78,45
25280,note_off,,,,,320,0,6,,,,,5,,,60,0
25280,note_off,,,,,320,0,8,,,,,7,,,60,0
25280,note_off,,,,,320,0,7,,,,,6,,,48,0
25340,note_off,,,,,92,0,2,,,,,1,,,78,0
25340,note_off,,,,,92,0,1,,,,,0,,,78,0
25340,note_off,,,,,92,0,3,,,,,2,,,78,0
25340,note_off,,,,,188,0,4,,,,,3,,,74,0
25340,note_off,,,,,188,0,5,,,,,4,,,74,0
25344,note_on,,,,,4,0,1,,,,,0,,,79,45
25344,note_on,,,,,64,0,8,,,,,7,,,59,30
25344,note_on,,,,,4,0,4,,,,,3,,,62,75
25344,note_on,,,,,64,0,6,,,,,5,,,59,45
25344,note_on,,,,,4,0,5,,,,,4,,,62,60
25344,note_on,,,,,4,0,2,,,,,1,,,79,45
25344,note_on,,,,,64,0,7,,,,,6,,,47,30
25344,note_on,,,,,4,0,3,,,,,2,,,79,75
25436,note_off,,,,,92,0,3,,,,,2,,,79,0
25436,note_off,,,,,92,0,2,,,,,1,,,79,0
25436,note_off,,,,,92,0,1,,,,,0,,,79,0
25440,note_on,,,,,4,0,2,,,,,1,,,74,45
25440,note_on,,,,,4,0,1,,,,,0,,,74,45
25440,note_on,,,,,4,0,3,,,,,2,,,74,75
25532,note_off,,,,,92,0,1,,,,,0,,,74,0
25532,note_off,,,,,92,0,2,,,,,1,,,74,0
25532,note_off,,,,,92,0,3,,,,,2,,,74,0
25536,note_on,,,,,4,0,2,,,,,1,,,79,45
25536,note_on,,,,,4,0,3,,,,,2,,,79,75
25536,note_on,,,,,4,0,1,,,,,0,,,79,45
25628,note_off,,,,,92,0,2,,,,,1,,,79,0
25628,note_off,,,,,92,0,1,,,,,0,,,79,0
25628,note_off,,,,,92,0,3,,,,,2,,,79,0
25632,note_on,,,,,4,0,3,,,,,2,,,83,75
25632,note_on,,,,,4,0,2,,,,,1,,,83,45
25632,note_on,,,,,4,0,1,,,,,0,,,83,45
25664,note_off,,,,,320,0,5,,,,,4,,,62,0
25664,note_off,,,,,320,0,8,,,,,7,,,59,0
25664,note_off,,,,,320,0,6,,,,,5,,,59,0
25664,note_off,,,,,320,0,4,,,,,3,,,62,0
25664,note_off,,,,,320,0,7,,,,,6,,,47,0
25724,note_off,,,,,92,0,2,,,,,1,,,83,0
25724,note_off,,,,,92,0,3,,,,,2,,,83,0
25724,note_off,,,,,92,0,1,,,,,0,,,83,0
25728,note_on,,,,,4,0,3,,,,,2,,,79,75
25728,note_on,,,,,4,0,2,,,,,1,,,79,45
25728,note_on,,,,,64,0,5,,,,,4,,,71,60
25728,note_on,,,,,64,0,6,,,,,5,,,55,45
25728,note_on,,,,,64,0,7,,,,,6,,,43,30
25728,note_on,,,,,64,0,4,,,,,3,,,71,75
25728,note_on,,,,,4,0,1,,,,,0,,,79,45
25728,note_on,,,,,64,0,8,,,,,7,,,55,30
25820,note_off,,,,,92,0,2,,,,,1,,,79,0
25820,note_off,,,,,92,0,1,,,,,0,,,79,0
25820,note_off,,,,,92,0,3,,,,,2,,,79,0
25824,note_on,,,,,4,0,1,,,,,0,,,83,45
25824,note_on,,,,,4,0,3,,,,,2,,,83,75
25824,note_on,,,,,4,0,2,,,,,1,,,83,45
25916,note_off,,,,,92,0,3,,,,,2,,,83,0
25916,note_off,,,,,92,0,2,,,,,1,,,83,0
25916,note_off,,,,,92,0,1,,,,,0,,,83,0
25920,note_on,,,,,4,0,3,,,,,2,,,81,75
25920,note_on,,,,,4,0,1,,,,,0,,,81,45
25920,note_on,,,,,4,0,2,,,,,1,,,81,45
26012,note_off,,,,,92,0,2,,,,,1,,,81,0
26012,note_off,,,,,92,0,1,,,,,0,,,81,0
26012,note_off,,,,,92,0,3,,,,,2,,,81,0
26016,note_on,,,,,4,0,3,,,,,2,,,79,75
26016,note_on,,,,,4,0,1,,,,,0,,,79,45
26016,note_on,,,,,4,0,2,,,,,1,,,79,45
26048,note_off,,,,,320,0,8,,,,,7,,,55,0
26048,note_off,,,,,320,0,4,,,,,3,,,71,0
26048,note_off,,,,,320,0,7,,,,,6,,,43,0
26048,note_off,,,,,320,0,6,,,,,5,,,55,0
26048,note_off,,,,,320,0,5,,,,,4,,,71,0
26108,note_off,,,,,92,0,2,,,,,1,,,79,0
26108,note_off,,,,,92,0,3,,,,,2,,,79,0
26108,note_off,,,,,92,0,1,,,,,0,,,79,0
26112,note_on,,,,,4,0,1,,,,,0,,,81,45
26112,note_on,,,,,64,0,8,,,,,7,,,54,30
26112,note_on,,,,,4,0,2,,,,,1,,,81,45
26112,note_on,,,,,64,0,6,,,,,5,,,54,45
26112,note_on,,,,,4,0,3,,,,,2,,,81,75
26112,note_on,,,,,64,0,4,,,,,3,,,74,75
26112,note_on,,,,,64,0,7,,,,,6,,,42,30
26112,note_on,,,,,64,0,5,,,,,4,,,74,60
26204,note_off,,,,,92,0,3,,,,,2,,,81,0
26204,note_off,,,,,92,0,2,,,,,1,,,81,0
26204,note_off,,,,,92,0,1,,,,,0,,,81,0
26208,note_on,,,,,4,0,2,,,,,1,,,74,45
26208,note_on,,,,,4,0,1,,,,,0,,,74,45
26208,note_on,,,,,4,0,3,,,,,2,,,74,75
26300,note_off,,,,,92,0,1,,,,,0,,,74,0
26300,note_off,,,,,92,0,2,,,,,1,,,74,0
26300,note_off,,,,,92,0,3,,,,,2,,,74,0
26304,note_on,,,,,4,0,1,,,,,0,,,81,45
26304,note_on,,,,,4,0,2,,,,,1,,,81,45
26304,note_on,,,,,4,0,3,,,,,2,,,81,75
26396,note_off,,,,,92,0,1,,,,,0,,,81,0
26396,note_off,,,,,92,0,2,,,,,1,,,81,0
26396,note_off,,,,,92,0,3,,,,,2,,,81,0
26400,note_on,,,,,4,0,3,,,,,2,,,84,75
26400,note_on,,,,,4,0,2,,,,,1,,,84,45
26400,note_on,,,,,4,0,1,,,,,0,,,84,45
26432,note_off,,,,,320,0,6,,,,,5,,,54,0
26432,note_off,,,,,320,0,5,,,,,4,,,74,0
26432,note_off,,,,,320,0,7,,,,,6,,,42,0
26432,note_off,,,,,320,0,4,,,,,3,,,74,0
26432,note_off,,,,,320,0,8,,,,,7,,,54,0
26492,note_off,,,,,92,0,2,,,,,1,,,84,0
26492,note_off,,,,,92,0,3,,,,,2,,,84,0
26492,note_off,,,,,92,0,1,,,,,0,,,84,0
26496,note_on,,,,,4,0,3,,,,,2,,,81,75
26496,note_on,,,,,64,0,4,,,,,3,,,66,75
26496,note_on,,,,,64,0,5,,,,,4,,,66,60
26496,note_on,,,,,64,0,8,,,,,7,,,50,30
26496,note_on,,,,,4,0,1,,,,,0,,,81,45
26496,note_on,,,,,64,0,6,,,,,5,,,50,45
26496,note_on,,,,,64,0,7,,,,,6,,,38,30
26496,note_on,,,,,4,0,2,,,,,1,,,81,45
26588,note_off,,,,,92,0,3,,,,,2,,,81,0
26588,note_off,,,,,92,0,1,,,,,0,,,81,0
26588,note_off,,,,,92,0,2,,,,,1,,,81,0
26592,note_on,,,,,4,0,3,,,,,2,,,84,75
26592,note_on,,,,,4,0,1,,,,,0,,,84,45
26592,note_on,,,,,4,0,2,,,,,1,,,84,45
26684,note_off,,,,,92,0,3,,,,,2,,,84,0
26684,note_off,,,,,92,0,1,,,,,0,,,84,0
26684,note_off,,,,,92,0,2,,,,,1,,,84,0
26688,note_on,,,,,4,0,3,,,,,2,,,83,75
26688,note_on,,,,,4,0,2,,,,,1,,,83,45
26688,note_on,,,,,4,0,1,,,,,0,,,83,45
26780,note_off,,,,,92,0,1,,,,,0,,,83,0
26780,note_off,,,,,92,0,2,,,,,1,,,83,0
26780,note_off,,,,,92,0,3,,,,,2,,,83,0
26784,note_on,,,,,4,0,1,,,,,0,,,81,45
26784,note_on,,,,,4,0,2,,,,,1,,,81,45
26784,note_on,,,,,4,0,3,,,,,2,,,81,75
26816,note_off,,,,,320,0,7,,,,,6,,,38,0
26816,note_off,,,,,320,0,4,,,,,3,,,66,0
26816,note_off,,,,,320,0,5,,,,,4,,,66,0
26816,note_off,,,,,320,0,6,,,,,5,,,50,0
26816,note_off,,,,,320,0,8,,,,,7,,,50,0
26876,note_off,,,,,92,0,3,,,,,2,,,81,0
26876,note_off,,,,,92,0,2,,,,,1,,,81,0
26876,note_off,,,,,92,0,1,,,,,0,,,81,0
26880,note_on,,,,,4,0,2,,,,,1,,,83,45
26880,note_on,,,,,64,0,7,,,,,6,,,43,30
26880,note_on,,,,,4,0,1,,,,,0,,,83,45
26880,note_on,,,,,64,0,4,,,,,3,,,74,75
26880,note_on,,,,,64,0,6,,,,,5,,,55,45
26880,note_on,,,,,64,0,8,,,,,7,,,55,30
26880,note_on,,,,,4,0,3,,,,,2,,,83,75
26880,note_on,,,,,64,0,5,,,,,4,,,74,60
27068,note_off,,,,,188,0,2,,,,,1,,,83,0
27068,note_off,,,,,188,0,1,,,,,0,,,83,0
27068,note_off,,,,,188,0,3,,,,,2,,,83,0
27072,note_on,,,,,4,0,2,,,,,1,,,79,45
27072,note_on,,,,,4,0,1,,,,,0,,,79,45
27072,note_on,,,,,4,0,3,,,,,2,,,79,75
27200,note_off,,,,,320,0,5,,,,,4,,,74,0
27200,note_off,,,,,320,0,4,,,,,3,,,74,0
27260,note_off,,,,,188,0,1,,,,,0,,,79,0
27260,note_off,,,,,188,0,3,,,,,2,,,79,0
27260,note_off,,,,,188,0,2,,,,,1,,,79,0
27264,note_on,,,,,64,0,5,,,,,4,,,69,60
27264,note_on,,,,,4,0,1,,,,,0,,,86,45
27264,note_on,,,,,4,0,2,,,,,1,,,86,45
27264,note_on,,,,,64,0,4,,,,,3,,,69,75
27264,note_on,,,,,4,0,3,,,,,2,,,86,75
27392,note_off,,,,,512,0,8,,,,,7,,,55,0
27392,note_off,,,,,512,0,7,,,,,6,,,43,0
27392,note_off,,,,,512,0,6,,,,,5,,,55,0
27456,note_on,,,,,64,0,8,,,,,7,,,54,30
27456,note_on,,,,,64,0,7,,,,,6,,,42,30
27456,note_on,,,,,64,0,6,,,,,5,,,54,45
27584,note_off,,,,,320,0,5,,,,,4,,,69,0
27584,note_off,,,,,320,0,4,,,,,3,,,69,0
27644,note_off,,,,,188,0,7,,,,,6,,,42,0
27644,note_off,,,,,188,0,8,,,,,7,,,54,0
27644,note_off,,,,,188,0,6,,,,,5,,,54,0
27648,note_on,,,,,4,0,8,,,,,7,,,52,30
27648,note_off,,,,,384,0,2,,,,,1,,,86,0
27648,note_on,,,,,0,0,2,,,,,1,,,86,45
27648,note_on,,,,,4,0,6,,,,,5,,,52,45
27648,note_on,,,,,4,0,7,,,,,6,,,40,30
27648,note_off,,,,,384,0,3,,,,,2,,,86,0
27648,note_on,,,,,64,0,5,,,,,4,,,67,60
27648,note_on,,,,,0,0,3,,,,,2,,,86,75
27648,note_off,,,,,384,0,1,,,,,0,,,86,0
27648,note_on,,,,,64,0,4,,,,,3,,,67,75
27648,note_on,,,,,0,0,1,,,,,0,,,86,45
27836,note_off,,,,,188,0,5,,,,,4,,,67,0
27836,note_off,,,,,188,0,1,,,,,0,,,86,0
27836,note_off,,,,,188,0,3,,,,,2,,,86,0
27836,note_off,,,,,188,0,2,,,,,1,,,86,0
27836,note_off,,,,,188,0,4,,,,,3,,,67,0
27840,note_on,,,,,4,0,1,,,,,0,,,85,45
27840,note_on,,,,,4,0,3,,,,,2,,,85,75
27840,note_on,,,,,4,0,5,,,,,4,,,69,60
27840,note_on,,,,,4,0,4,,,,,3,,,69,75
27840,note_on,,,,,4,0,2,,,,,1,,,85,45
27932,note_off,,,,,92,0,3,,,,,2,,,85,0
27932,note_off,,,,,92,0,2,,,,,1,,,85,0
27932,note_off,,,,,92,0,1,,,,,0,,,85,0
27936,note_on,,,,,4,0,2,,,,,1,,,86,45
27936,note_on,,,,,4,0,3,,,,,2,,,86,75
27936,note_on,,,,,4,0,1,,,,,0,,,86,45
28028,note_off,,,,,92,0,3,,,,,2,,,86,0
28028,note_off,,,,,92,0,2,,,,,1,,,86,0
28028,note_off,,,,,188,0,5,,,,,4,,,69,0
28028,note_off,,,,,188,0,4,,,,,3,,,69,0
28028,note_off,,,,,92,0,1,,,,,0,,,86,0
28032,note_on,,,,,4,0,1,,,,,0,,,88,45
28032,note_on,,,,,4,0,2,,,,,1,,,88,45
28032,note_on,,,,,4,0,3,,,,,2,,,88,75
28032,note_on,,,,,4,0,5,,,,,4,,,67,60
28032,note_on,,,,,4,0,4,,,,,3,,,67,75
28160,note_off,,,,,512,0,7,,,,,6,,,40,0
28160,note_off,,,,,512,0,8,,,,,7,,,52,0
28160,note_off,,,,,512,0,6,,,,,5,,,52,0
28220,note_off,,,,,188,0,2,,,,,1,,,88,0
28220,note_off,,,,,188,0,5,,,,,4,,,67,0
28220,note_off,,,,,188,0,4,,,,,3,,,67,0
28220,note_off,,,,,188,0,1,,,,,0,,,88,0
28220,note_off,,,,,188,0,3,,,,,2,,,88,0
28224,note_on,,,,,64,0,6,,,,,5,,,50,45
28224,note_on,,,,,4,0,4,,,,,3,,,71,75
28224,note_on,,,,,64,0,8,,,,,7,,,50,30
28224,note_on,,,,,4,0,3,,,,,2,,,79,75
28224,note_on,,,,,4,0,1,,,,,0,,,79,45
28224,note_on,,,,,64,0,7,,,,,6,,,38,30
28224,note_on,,,,,4,0,2,,,,,1,,,79,45
28224,note_on,,,,,4,0,5,,,,,4,,,71,60
28412,note_off,,,,,188,0,8,,,,,7,,,50,0
28412,note_off,,,,,188,0,7,,,,,6,,,38,0
28412,note_off,,,,,188,0,4,,,,,3,,,71,0
28412,note_off,,,,,188,0,3,,,,,2,,,79,0
28412,note_off,,,,,188,0,1,,,,,0,,,79,0
28412,note_off,,,,,188,0,2,,,,,1,,,79,0
28412,note_off,,,,,188,0,5,,,,,4,,,71,0
28412,note_off,,,,,188,0,6,,,,,5,,,50,0
28416,note_on,,,,,4,0,3,,,,,2,,,79,75
28416,note_on,,,,,4,0,5,,,,,4,,,69,60
28416,note_on,,,,,4,0,2,,,,,1,,,79,45
28416,note_on,,,,,4,0,7,,,,,6,,,37,30
28416,note_on,,,,,4,0,1,,,,,0,,,79,45
28416,note_on,,,,,4,0,6,,,,,5,,,49,45
28416,note_on,,,,,4,0,4,,,,,3,,,69,75
28416,note_on,,,,,4,0,8,,,,,7,,,49,30
28604,note_off,,,,,188,0,1,,,,,0,,,79,0
28604,note_off,,,,,188,0,3,,,,,2,,,79,0
28604,note_off,,,,,188,0,2,,,,,1,,,79,0
28604,note_off,,,,,188,0,4,,,,,3,,,69,0
28604,note_off,,,,,188,0,5,,,,,4,,,69,0
28608,note_on,,,,,4,0,1,,,,,0,,,69,45
28608,note_on,,,,,4,0,5,,,,,4,,,64,60
28608,note_on,,,,,4,0,3,,,,,2,,,69,75
28608,note_on,,,,,4,0,4,,,,,3,,,64,75
28608,note_on,,,,,4,0,2,,,,,1,,,69,45
28796,note_off,,,,,188,0,4,,,,,3,,,64,0
28796,note_off,,,,,188,0,2,,,,,1,,,69,0
28796,note_off,,,,,188,0,3,,,,,2,,,69,0
28796,note_off,,,,,188,0,5,,,,,4,,,64,0
28796,note_off,,,,,188,0,1,,,,,0,,,69,0
28800,note_on,,,,,4,0,3,,,,,2,,,69,75
28800,note_on,,,,,4,0,1,,,,,0,,,69,45
28800,note_on,,,,,4,0,2,,,,,1,,,69,45
28800,note_on,,,,,4,0,4,,,,,3,,,64,75
28800,note_on,,,,,4,0,5,,,,,4,,,64,60
28928,note_off,,,,,512,0,7,,,,,6,,,37,0
28928,note_off,,,,,512,0,8,,,,,7,,,49,0
28928,note_off,,,,,512,0,6,,,,,5,,,49,0
28988,note_off,,,,,188,0,5,,,,,4,,,64,0
28988,note_off,,,,,188,0,3,,,,,2,,,69,0
28988,note_off,,,,,188,0,2,,,,,1,,,69,0
28988,note_off,,,,,188,0,1,,,,,0,,,69,0
28988,note_off,,,,,188,0,4,,,,,3,,,64,0
28992,note_on,,,,,4,0,2,,,,,1,,,76,45
28992,note_on,,,,,64,0,8,,,,,7,,,57,30
28992,note_on,,,,,64,0,6,,,,,5,,,57,45
28992,note_on,,,,,4,0,4,,,,,3,,,73,75
28992,note_on,,,,,64,0,7,,,,,6,,,45,30
28992,note_on,,,,,4,0,3,,,,,2,,,76,75
28992,note_on,,,,,4,0,5,,,,,4,,,73,60
28992,note_on,,,,,4,0,1,,,,,0,,,76,45
29180,note_off,,,,,188,0,6,,,,,5,,,57,0
29180,note_off,,,,,188,0,2,,,,,1,,,76,0
29180,note_off,,,,,188,0,4,,,,,3,,,73,0
29180,note_off,,,,,188,0,8,,,,,7,,,57,0
29180,note_off,,,,,188,0,7,,,,,6,,,45,0
29180,note_off,,,,,188,0,5,,,,,4,,,73,0
29180,note_off,,,,,188,0,1,,,,,0,,,76,0
29180,note_off,,,,,188,0,3,,,,,2,,,76,0
29184,note_on,,,,,4,0,1,,,,,0,,,78,45
29184,note_on,,,,,4,0,2,,,,,1,,,78,45
29184,note_on,,,,,4,0,4,,,,,3,,,74,75
29184,note_on,,,,,4,0,3,,,,,2,,,78,75
29184,note_on,,,,,4,0,6,,,,,5,,,62,45
29184,note_on,,,,,4,0,8,,,,,7,,,62,30
29184,note_on,,,,,4,0,7,,,,,6,,,50,30
29184,note_on,,,,,4,0,5,,,,,4,,,74,60
29372,note_off,,,,,188,0,4,,,,,3,,,74,0
29372,note_off,,,,,188,0,5,,,,,4,,,74,0
29372,note_off,,,,,188,0,6,,,,,5,,,62,0
29372,note_off,,,,,188,0,3,,,,,2,,,78,0
29372,note_off,,,,,188,0,1,,,,,0,,,78,0
29372,note_off,,,,,188,0,8,,,,,7,,,62,0
29372,note_off,,,,,188,0,7,,,,,6,,,50,0
29372,note_off,,,,,188,0,2,,,,,1,,,78,0
29376,note_on,,,,,4,0,6,,,,,5,,,55,45
29376,note_on,,,,,4,0,8,,,,,7,,,55,30
29376,note_on,,,,,4,0,1,,,,,0,,,74,45
29376,note_on,,,,,4,0,3,,,,,2,,,74,75
29376,note_on,,,,,4,0,2,,,,,1,,,74,45
29376,note_on,,,,,4,0,5,,,,,4,,,71,60
29376,note_on,,,,,4,0,7,,,,,6,,,43,30
29376,note_on,,,,,4,0,4,,,,,3,,,71,75
29564,note_off,,,,,188,0,4,,,,,3,,,71,0
29564,note_off,,,,,188,0,2,,,,,1,,,74,0
29564,note_off,,,,,188,0,5,,,,,4,,,71,0
29564,note_off,,,,,188,0,7,,,,,6,,,43,0
29564,note_off,,,,,188,0,1,,,,,0,,,74,0
29564,note_off,,,,,188,0,6,,,,,5,,,55,0
29564,note_off,,,,,188,0,8,,,,,7,,,55,0
29564,note_off,,,,,188,0,3,,,,,2,,,74,0
29568,note_on,,,,,4,0,5,,,,,4,,,69,60
29568,note_on,,,,,4,0,7,,,,,6,,,45,30
29568,note_on,,,,,4,0,8,,,,,7,,,57,30
29568,note_on,,,,,4,0,6,,,,,5,,,57,45
29568,note_on,,,,,4,0,1,,,,,0,,,69,45
29568,note_on,,,,,4,0,3,,,,,2,,,69,75
29568,note_on,,,,,4,0,4,,,,,3,,,69,75
29568,note_on,,,,,4,0,2,,,,,1,,,69,45
29756,note_off,,,,,188,0,8,,,,,7,,,57,0
29756,note_off,,,,,188,0,7,,,,,6,,,45,0
29756,note_off,,,,,188,0,6,,,,,5,,,57,0
29756,note_off,,,,,188,0,1,,,,,0,,,69,0
29756,note_off,,,,,188,0,3,,,,,2,,,69,0
29756,note_off,,,,,188,0,5,,,,,4,,,69,0
29756,note_off,,,,,188,0,4,,,,,3,,,69,0
29756,note_off,,,,,188,0,2,,,,,1,,,69,0
29760,note_on,,,,,4,0,3,,,,,2,,,73,75
29760,note_on,,,,,4,0,8,,,,,7,,,45,30
29760,note_on,,,,,4,0,1,,,,,0,,,73,45
29760,note_on,,,,,4,0,4,,,,,3,,,67,75
29760,note_on,,,,,4,0,7,,,,,6,,,33,30
29760,note_on,,,,,4,0,2,,,,,1,,,73,45
29760,note_on,,,,,4,0,6,,,,,5,,,45,45
29760,note_on,,,,,4,0,5,,,,,4,,,67,60
29948,note_off,,,,,188,0,1,,,,,0,,,73,0
29948,note_off,,,,,188,0,8,,,,,7,,,45,0
29948,note_off,,,,,188,0,7,,,,,6,,,33,0
29948,note_off,,,,,188,0,5,,,,,4,,,67,0
29948,note_off,,,,,188,0,2,,,,,1,,,73,0
29948,note_off,,,,,188,0,3,,,,,2,,,73,0
29948,note_off,,,,,188,0,4,,,,,3,,,67,0
29948,note_off,,,,,188,0,6,,,,,5,,,45,0
29952,note_on,,,,,4,0,8,,,,,7,,,50,30
29952,note_on,,,,,4,0,2,,,,,1,,,74,45
29952,note_on,,,,,4,0,1,,,,,0,,,74,45
29952,note_on,,,,,4,0,3,,,,,2,,,74,75
29952,note_on,,,,,4,0,4,,,,,3,,,66,75
29952,note_on,,,,,4,0,7,,,,,6,,,38,30
29952,note_on,,,,,4,0,5,,,,,4,,,66,60
29952,note_on,,,,,4,0,6,,,,,5,,,50,45
30624,note_off,,,,,672,0,4,,,,,3,,,66,0
30624,note_off,,,,,672,0,3,,,,,2,,,74,0
30624,note_off,,,,,672,0,1,,,,,0,,,74,0
30624,note_off,,,,,672,0,6,,,,,5,,,50,0
30624,note_off,,,,,672,0,5,,,,,4,,,66,0
30624,note_off,,,,,672,0,7,,,,,6,,,38,0
30624,note_off,,,,,672,0,2,,,,,1,,,74,0
30624,note_off,,,,,672,0,8,,,,,7,,,50,0
30720,note_on,,,,,96,0,6,,,,,5,,,50,75
30720,note_on,,,,,96,0,3,,,,,2,,,78,108
30720,note_on,,,,,96,0,8,,,,,7,,,50,45
30720,note_on,,,,,96,0,1,,,,,0,,,78,75
30720,set_tempo,,,,,30720,1,0,,909090,,,,,,,
30720,note_on,,,,,96,0,4,,,,,3,,,74,108
30720,note_on,,,,,96,0,7,,,,,6,,,38,60
30720,note_on,,,,,96,0,5,,,,,4,,,69,75
30720,note_on,,,,,96,0,2,,,,,1,,,74,75
30812,note_off,,,,,92,0,1,,,,,0,,,78,0
30812,note_off,,,,,92,0,2,,,,,1,,,74,0
30812,note_off,,,,,92,0,3,,,,,2,,,78,0
30812,note_off,,,,,92,0,4,,,,,3,,,74,0
30816,note_on,,,,,4,0,4,,,,,3,,,74,108
30816,note_on,,,,,4,0,1,,,,,0,,,78,75
30816,note_on,,,,,4,0,3,,,,,2,,,78,108
30816,note_on,,,,,4,0,2,,,,,1,,,74,75
30908,note_off,,,,,188,0,6,,,,,5,,,50,0
30908,note_off,,,,,92,0,3,,,,,2,,,78,0
30908,note_off,,,,,92,0,1,,,,,0,,,78,0
30908,note_off,,,,,188,0,5,,,,,4,,,69,0
30908,note_off,,,,,92,0,4,,,,,3,,,74,0
30908,note_off,,,,,188,0,7,,,,,6,,,38,0
30908,note_off,,,,,92,0,2,,,,,1,,,74,0
30908,note_off,,,,,188,0,8,,,,,7,,,50,0
30912,note_on,,,,,4,0,8,,,,,7,,,50,45
30912,note_on,,,,,4,0,6,,,,,5,,,50,75
30912,note_on,,,,,4,0,4,,,,,3,,,69,108
30912,note_on,,,,,4,0,7,,,,,6,,,38,60
30912,note_on,,,,,4,0,2,,,,,1,,,69,75
30912,note_on,,,,,4,0,1,,,,,0,,,81,75
30912,note_on,,,,,4,0,3,,,,,2,,,81,108
30912,note_on,,,,,4,0,5,,,,,4,,,69,75
31004,note_off,,,,,92,0,4,,,,,3,,,69,0
31004,note_off,,,,,92,0,2,,,,,1,,,69,0
31004,note_off,,,,,92,0,1,,,,,0,,,81,0
31004,note_off,,,,,92,0,3,,,,,2,,,81,0
31008,note_on,,,,,4,0,3,,,,,2,,,81,108
31008,note_on,,,,,4,0,1,,,,,0,,,81,75
31008,note_on,,,,,4,0,4,,,,,3,,,69,108
31008,note_on,,,,,4,0,2,,,,,1,,,69,75
31100,note_off,,,,,188,0,5,,,,,4,,,69,0
31100,note_off,,,,,92,0,3,,,,,2,,,81,0
31100,note_off,,,,,188,0,7,,,,,6,,,38,0
31100,note_off,,,,,188,0,6,,,,,5,,,50,0
31100,note_off,,,,,92,0,4,,,,,3,,,69,0
31100,note_off,,,,,92,0,1,,,,,0,,,81,0
31100,note_off,,,,,188,0,8,,,,,7,,,50,0
31100,note_off,,,,,92,0,2,,,,,1,,,69,0
31104,note_on,,,,,4,0,7,,,,,6,,,42,60
31104,note_on,,,,,4,0,4,,,,,3,,,78,108
31104,note_on,,,,,4,0,2,,,,,1,,,78,75
31104,note_on,,,,,4,0,5,,,,,4,,,69,75
31104,note_on,,,,,4,0,6,,,,,5,,,54,75
31104,note_on,,,,,4,0,3,,,,,2,,,74,108
31104,note_on,,,,,4,0,8,,,,,7,,,54,45
31104,note_on,,,,,4,0,1,,,,,0,,,74,75
31196,note_off,,,,,92,0,3,,,,,2,,,74,0
31196,note_off,,,,,92,0,4,,,,,3,,,78,0
31196,note_off,,,,,92,0,1,,,,,0,,,74,0
31196,note_off,,,,,92,0,2,,,,,1,,,78,0
31200,note_on,,,,,4,0,1,,,,,0,,,74,75
31200,note_on,,,,,4,0,4,,,,,3,,,78,108
31200,note_on,,,,,4,0,3,,,,,2,,,74,108
31200,note_on,,,,,4,0,2,,,,,1,,,78,75
31292,note_off,,,,,92,0,2,,,,,1,,,78,0
31292,note_off,,,,,92,0,3,,,,,2,,,74,0
31292,note_off,,,,,188,0,5,,,,,4,,,69,0
31292,note_off,,,,,92,0,4,,,,,3,,,78,0
31292,note_off,,,,,92,0,1,,,,,0,,,74,0
31292,note_off,,,,,188,0,7,,,,,6,,,42,0
31292,note_off,,,,,188,0,6,,,,,5,,,54,0
31292,note_off,,,,,188,0,8,,,,,7,,,54,0
31296,note_on,,,,,4,0,1,,,,,0,,,81,75
31296,note_on,,,,,4,0,2,,,,,1,,,69,75
31296,note_on,,,,,4,0,7,,,,,6,,,42,60
31296,note_on,,,,,4,0,3,,,,,2,,,81,108
31296,note_on,,,,,4,0,8,,,,,7,,,54,45
31296,note_on,,,,,4,0,5,,,,,4,,,69,75
31296,note_on,,,,,4,0,6,,,,,5,,,54,75
31296,note_on,,,,,4,0,4,,,,,3,,,69,108
31388,note_off,,,,,92,0,2,,,,,1,,,69,0
31388,note_off,,,,,92,0,4,,,,,3,,,69,0
31388,note_off,,,,,92,0,1,,,,,0,,,81,0
31388,note_off,,,,,92,0,3,,,,,2,,,81,0
31392,note_on,,,,,4,0,4,,,,,3,,,69,108
31392,note_on,,,,,4,0,1,,,,,0,,,81,75
31392,note_on,,,,,4,0,3,,,,,2,,,81,108
31392,note_on,,,,,4,0,2,,,,,1,,,69,75
31484,note_off,,,,,92,0,1,,,,,0,,,81,0
31484,note_off,,,,,188,0,8,,,,,7,,,54,0
31484,note_off,,,,,188,0,6,,,,,5,,,54,0
31484,note_off,,,,,188,0,7,,,,,6,,,42,0
31484,note_off,,,,,92,0,4,,,,,3,,,69,0
31484,note_off,,,,,92,0,3,,,,,2,,,81,0
31484,note_off,,,,,188,0,5,,,,,4,,,69,0
31484,note_off,,,,,92,0,2,,,,,1,,,69,0
31488,note_on,,,,,4,0,1,,,,,0,,,73,75
31488,note_on,,,,,4,0,3,,,,,2,,,73,108
31488,note_on,,,,,4,0,4,,,,,3,,,76,108
31488,note_on,,,,,4,0,2,,,,,1,,,76,75
31488,note_on,,,,,4,0,6,,,,,5,,,57,75
31488,note_on,,,,,4,0,5,,,,,4,,,69,75
31488,note_on,,,,,4,0,8,,,,,7,,,57,45
31488,note_on,,,,,4,0,7,,,,,6,,,45,60
31580,note_off,,,,,92,0,4,,,,,3,,,76,0
31580,note_off,,,,,92,0,1,,,,,0,,,73,0
31580,note_off,,,,,92,0,3,,,,,2,,,73,0
31580,note_off,,,,,92,0,2,,,,,1,,,76,0
31584,note_on,,,,,4,0,4,,,,,3,,,76,108
31584,note_on,,,,,4,0,1,,,,,0,,,73,75
31584,note_on,,,,,4,0,2,,,,,1,,,76,75
31584,note_on,,,,,4,0,3,,,,,2,,,73,108
31676,note_off,,,,,92,0,3,,,,,2,,,73,0
31676,note_off,,,,,92,0,4,,,,,3,,,76,0
31676,note_off,,,,,92,0,1,,,,,0,,,73,0
31676,note_off,,,,,188,0,8,,,,,7,,,57,0
31676,note_off,,,,,188,0,6,,,,,5,,,57,0
31676,note_off,,,,,188,0,5,,,,,4,,,69,0
31676,note_off,,,,,92,0,2,,,,,1,,,76,0
31676,note_off,,,,,188,0,7,,,,,6,,,45,0
31680,note_on,,,,,4,0,7,,,,,6,,,45,60
31680,note_on,,,,,4,0,1,,,,,0,,,81,75
31680,note_on,,,,,4,0,8,,,,,7,,,57,45
31680,note_on,,,,,4,0,6,,,,,5,,,57,75
31680,note_on,,,,,4,0,5,,,,,4,,,69,75
31680,note_on,,,,,4,0,4,,,,,3,,,73,108
31680,note_on,,,,,4,0,3,,,,,2,,,81,108
31680,note_on,,,,,4,0,2,,,,,1,,,73,75
31772,note_off,,,,,92,0,3,,,,,2,,,81,0
31772,note_off,,,,,92,0,4,,,,,3,,,73,0
31772,note_off,,,,,92,0,2,,,,,1,,,73,0
31772,note_off,,,,,92,0,1,,,,,0,,,81,0
31776,note_on,,,,,4,0,4,,,,,3,,,73,108
31776,note_on,,,,,4,0,3,,,,,2,,,81,108
31776,note_on,,,,,4,0,2,,,,,1,,,73,75
31776,note_on,,,,,4,0,1,,,,,0,,,81,75
31868,note_off,,,,,92,0,3,,,,,2,,,81,0
31868,note_off,,,,,92,0,4,,,,,3,,,73,0
31868,note_off,,,,,188,0,6,,,,,5,,,57,0
31868,note_off,,,,,188,0,7,,,,,6,,,45,0
31868,note_off,,,,,92,0,1,,,,,0,,,81,0
31868,note_off,,,,,92,0,2,,,,,1,,,73,0
31868,note_off,,,,,188,0,8,,,,,7,,,57,0
31868,note_off,,,,,188,0,5,,,,,4,,,69,0
31872,note_on,,,,,4,0,4,,,,,3,,,81,108
31872,note_on,,,,,4,0,2,,,,,1,,,81,75
31872,note_on,,,,,4,0,5,,,,,4,,,69,75
31872,note_on,,,,,4,0,3,,,,,2,,,76,108
31872,note_on,,,,,4,0,7,,,,,6,,,49,60
31872,note_on,,,,,4,0,1,,,,,0,,,76,75
31872,note_on,,,,,4,0,8,,,,,7,,,61,45
31872,note_on,,,,,4,0,6,,,,,5,,,61,75
31964,note_off,,,,,92,0,4,,,,,3,,,81,0
31964,note_off,,,,,92,0,2,,,,,1,,,81,0
31964,note_off,,,,,92,0,1,,,,,0,,,76,0
31964,note_off,,,,,92,0,3,,,,,2,,,76,0
31968,note_on,,,,,4,0,1,,,,,0,,,76,75
31968,note_on,,,,,4,0,2,,,,,1,,,81,75
31968,note_on,,,,,4,0,4,,,,,3,,,81,108
31968,note_on,,,,,4,0,3,,,,,2,,,76,108
32060,note_off,,,,,92,0,3,,,,,2,,,76,0
32060,note_off,,,,,188,0,7,,,,,6,,,49,0
32060,note_off,,,,,188,0,5,,,,,4,,,69,0
32060,note_off,,,,,92,0,4,,,,,3,,,81,0
32060,note_off,,,,,92,0,1,,,,,0,,,76,0
32060,note_off,,,,,188,0,8,,,,,7,,,61,0
32060,note_off,,,,,188,0,6,,,,,5,,,61,0
32060,note_off,,,,,92,0,2,,,,,1,,,81,0
32064,note_on,,,,,4,0,3,,,,,2,,,81,108
32064,note_on,,,,,4,0,8,,,,,7,,,61,45
32064,note_on,,,,,4,0,7,,,,,6,,,49,60
32064,note_on,,,,,4,0,1,,,,,0,,,81,75
32064,note_on,,,,,4,0,5,,,,,4,,,69,75
32064,note_on,,,,,4,0,6,,,,,5,,,61,75
32064,note_on,,,,,4,0,2,,,,,1,,,76,75
32064,note_on,,,,,4,0,4,,,,,3,,,76,108
32156,note_off,,,,,92,0,2,,,,,1,,,76,0
32156,note_off,,,,,92,0,4,,,,,3,,,76,0
32156,note_off,,,,,92,0,3,,,,,2,,,81,0
32156,note_off,,,,,92,0,1,,,,,0,,,81,0
32160,note_on,,,,,4,0,1,,,,,0,,,81,75
32160,note_on,,,,,4,0,2,,,,,1,,,76,75
32160,note_on,,,,,4,0,4,,,,,3,,,76,108
32160,note_on,,,,,4,0,3,,,,,2,,,81,108
32252,note_off,,,,,188,0,7,,,,,6,,,49,0
32252,note_off,,,,,92,0,1,,,,,0,,,81,0
32252,note_off,,,,,188,0,8,,,,,7,,,61,0
32252,note_off,,,,,188,0,5,,,,,4,,,69,0
32252,note_off,,,,,92,0,3,,,,,2,,,81,0
32252,note_off,,,,,188,0,6,,,,,5,,,61,0
32252,note_off,,,,,92,0,2,,,,,1,,,76,0
32252,note_off,,,,,92,0,4,,,,,3,,,76,0
32256,note_on,,,,,4,0,6,,,,,5,,,62,75
32256,note_on,,,,,4,0,5,,,,,4,,,69,75
32256,note_on,,,,,4,0,7,,,,,6,,,50,60
32256,note_on,,,,,4,0,8,,,,,7,,,62,45
32256,note_on,,,,,4,0,1,,,,,0,,,78,75
32256,note_on,,,,,4,0,3,,,,,2,,,78,108
32256,note_on,,,,,4,0,2,,,,,1,,,74,75
32256,note_on,,,,,4,0,4,,,,,3,,,74,108
32348,note_off,,,,,92,0,4,,,,,3,,,74,0
32348,note_off,,,,,92,0,2,,,,,1,,,74,0
32352,note_on,,,,,4,0,4,,,,,3,,,74,108
32352,note_on,,,,,4,0,2,,,,,1,,,74,75
32444,note_off,,,,,92,0,4,,,,,3,,,74,0
32444,note_off,,,,,188,0,3,,,,,2,,,78,0
32444,note_off,,,,,92,0,2,,,,,1,,,74,0
32444,note_off,,,,,188,0,1,,,,,0,,,78,0
32444,note_off,,,,,188,0,7,,,,,6,,,50,0
32444,note_off,,,,,188,0,6,,,,,5,,,62,0
32444,note_off,,,,,188,0,5,,,,,4,,,69,0
32444,note_off,,,,,188,0,8,,,,,7,,,62,0
32448,note_on,,,,,4,0,3,,,,,2,,,76,108
32448,note_on,,,,,4,0,6,,,,,5,,,62,75
32448,note_on,,,,,4,0,8,,,,,7,,,62,45
32448,note_on,,,,,4,0,7,,,,,6,,,50,60
32448,note_on,,,,,4,0,1,,,,,0,,,76,75
32448,note_on,,,,,4,0,2,,,,,1,,,69,75
32448,note_on,,,,,4,0,4,,,,,3,,,69,108
32448,note_on,,,,,4,0,5,,,,,4,,,69,75
32540,note_off,,,,,92,0,3,,,,,2,,,76,0
32540,note_off,,,,,92,0,1,,,,,0,,,76,0
32540,note_off,,,,,92,0,2,,,,,1,,,69,0
32540,note_off,,,,,92,0,4,,,,,3,,,69,0
32544,note_on,,,,,4,0,2,,,,,1,,,69,75
32544,note_on,,,,,4,0,4,,,,,3,,,69,108
32544,note_on,,,,,4,0,3,,,,,2,,,78,108
32544,note_on,,,,,4,0,1,,,,,0,,,78,75
32636,note_off,,,,,92,0,3,,,,,2,,,78,0
32636,note_off,,,,,92,0,2,,,,,1,,,69,0
32636,note_off,,,,,188,0,8,,,,,7,,,62,0
32636,note_off,,,,,188,0,5,,,,,4,,,69,0
32636,note_off,,,,,92,0,1,,,,,0,,,78,0
32636,note_off,,,,,188,0,7,,,,,6,,,50,0
32636,note_off,,,,,92,0,4,,,,,3,,,69,0
32636,note_off,,,,,188,0,6,,,,,5,,,62,0
32640,note_on,,,,,4,0,4,,,,,3,,,71,108
32640,note_on,,,,,4,0,8,,,,,7,,,55,45
32640,note_on,,,,,4,0,5,,,,,4,,,67,75
32640,note_on,,,,,4,0,7,,,,,6,,,43,60
32640,note_on,,,,,4,0,2,,,,,1,,,71,75
32640,note_on,,,,,4,0,6,,,,,5,,,55,75
32640,note_on,,,,,4,0,1,,,,,0,,,79,75
32640,note_on,,,,,4,0,3,,,,,2,,,79,108
32732,note_off,,,,,92,0,2,,,,,1,,,71,0
32732,note_off,,,,,92,0,4,,,,,3,,,71,0
32732,note_off,,,,,92,0,1,,,,,0,,,79,0
32732,note_off,,,,,92,0,3,,,,,2,,,79,0
32736,note_on,,,,,4,0,3,,,,,2,,,78,108
32736,note_on,,,,,4,0,2,,,,,1,,,69,75
32736,note_on,,,,,4,0,4,,,,,3,,,69,108
32736,note_on,,,,,4,0,1,,,,,0,,,78,75
32828,note_off,,,,,92,0,3,,,,,2,,,78,0
32828,note_off,,,,,92,0,4,,,,,3,,,69,0
32828,note_off,,,,,92,0,1,,,,,0,,,78,0
32828,note_off,,,,,188,0,7,,,,,6,,,43,0
32828,note_off,,,,,188,0,5,,,,,4,,,67,0
32828,note_off,,,,,92,0,2,,,,,1,,,69,0
32828,note_off,,,,,188,0,8,,,,,7,,,55,0
32828,note_off,,,,,188,0,6,,,,,5,,,55,0
32832,note_on,,,,,4,0,8,,,,,7,,,55,45
32832,note_on,,,,,4,0,4,,,,,3,,,67,108
32832,note_on,,,,,4,0,2,,,,,1,,,67,75
32832,note_on,,,,,4,0,1,,,,,0,,,76,75
32832,note_on,,,,,4,0,7,,,,,6,,,43,60
32832,note_on,,,,,4,0,6,,,,,5,,,55,75
32832,note_on,,,,,4,0,3,,,,,2,,,76,108
32832,note_on,,,,,4,0,5,,,,,4,,,71,75
32924,note_off,,,,,92,0,1,,,,,0,,,76,0
32924,note_off,,,,,92,0,3,,,,,2,,,76,0
32924,note_off,,,,,92,0,2,,,,,1,,,67,0
32924,note_off,,,,,92,0,4,,,,,3,,,67,0
32928,note_on,,,,,4,0,1,,,,,0,,,74,75
32928,note_on,,,,,4,0,4,,,,,3,,,66,108
32928,note_on,,,,,4,0,3,,,,,2,,,74,108
32928,note_on,,,,,4,0,2,,,,,1,,,66,75
33020,note_off,,,,,92,0,2,,,,,1,,,66,0
33020,note_off,,,,,92,0,1,,,,,0,,,74,0
33020,note_off,,,,,188,0,6,,,,,5,,,55,0
33020,note_off,,,,,188,0,5,,,,,4,,,71,0
33020,note_off,,,,,188,0,7,,,,,6,,,43,0
33020,note_off,,,,,92,0,3,,,,,2,,,74,0
33020,note_off,,,,,92,0,4,,,,,3,,,66,0
33020,note_off,,,,,188,0,8,,,,,7,,,55,0
33024,note_on,,,,,4,0,5,,,,,4,,,69,75
33024,note_on,,,,,4,0,7,,,,,6,,,45,60
33024,note_on,,,,,4,0,8,,,,,7,,,57,45
33024,note_on,,,,,4,0,3,,,,,2,,,73,108
33024,note_on,,,,,4,0,6,,,,,5,,,57,75
33024,note_on,,,,,4,0,1,,,,,0,,,73,75
33024,note_on,,,,,4,0,4,,,,,3,,,64,108
33024,note_on,,,,,4,0,2,,,,,1,,,64,75
33116,note_off,,,,,92,0,2,,,,,1,,,64,0
33116,note_off,,,,,92,0,3,,,,,2,,,73,0
33116,note_off,,,,,92,0,4,,,,,3,,,64,0
33116,note_off,,,,,92,0,1,,,,,0,,,73,0
33120,note_on,,,,,4,0,1,,,,,0,,,73,75
33120,note_on,,,,,4,0,4,,,,,3,,,64,108
33120,note_on,,,,,4,0,2,,,,,1,,,64,75
33120,note_on,,,,,4,0,3,,,,,2,,,73,108
33212,note_off,,,,,188,0,6,,,,,5,,,57,0
33212,note_off,,,,,92,0,1,,,,,0,,,73,0
33212,note_off,,,,,188,0,5,,,,,4,,,69,0
33212,note_off,,,,,92,0,3,,,,,2,,,73,0
33212,note_off,,,,,188,0,7,,,,,6,,,45,0
33212,note_off,,,,,92,0,4,,,,,3,,,64,0
33212,note_off,,,,,92,0,2,,,,,1,,,64,0
33212,note_off,,,,,188,0,8,,,,,7,,,57,0
33216,note_on,,,,,4,0,7,,,,,6,,,45,60
33216,note_on,,,,,4,0,2,,,,,1,,,76,75
33216,note_on,,,,,4,0,5,,,,,4,,,69,75
33216,note_on,,,,,4,0,8,,,,,7,,,57,45
33216,note_on,,,,,4,0,4,,,,,3,,,76,108
33216,note_on,,,,,4,0,6,,,,,5,,,57,75
33216,note_on,,,,,4,0,3,,,,,2,,,69,108
33216,note_on,,,,,4,0,1,,,,,0,,,69,75
33308,note_off,,,,,92,0,1,,,,,0,,,69,0
33308,note_off,,,,,92,0,3,,,,,2,,,69,0
33308,note_off,,,,,92,0,4,,,,,3,,,76,0
33308,note_off,,,,,92,0,2,,,,,1,,,76,0
33312,note_on,,,,,4,0,2,,,,,1,,,76,75
33312,note_on,,,,,4,0,1,,,,,0,,,69,75
33312,note_on,,,,,4,0,3,,,,,2,,,69,108
33312,note_on,,,,,4,0,4,,,,,3,,,76,108
33404,note_off,,,,,188,0,5,,,,,4,,,69,0
33404,note_off,,,,,92,0,3,,,,,2,,,69,0
33404,note_off,,,,,92,0,2,,,,,1,,,76,0
33404,note_off,,,,,188,0,6,,,,,5,,,57,0
33404,note_off,,,,,188,0,8,,,,,7,,,57,0
33404,note_off,,,,,188,0,7,,,,,6,,,45,0
33404,note_off,,,,,92,0,1,,,,,0,,,69,0
33404,note_off,,,,,92,0,4,,,,,3,,,76,0
33408,note_on,,,,,4,0,4,,,,,3,,,69,108
33408,note_on,,,,,4,0,3,,,,,2,,,76,108
33408,note_on,,,,,4,0,8,,,,,7,,,61,45
33408,note_on,,,,,4,0,2,,,,,1,,,69,75
33408,note_on,,,,,4,0,6,,,,,5,,,61,75
33408,note_on,,,,,4,0,7,,,,,6,,,49,60
33408,note_on,,,,,4,0,5,,,,,4,,,69,75
33408,note_on,,,,,4,0,1,,,,,0,,,76,75
33500,note_off,,,,,92,0,4,,,,,3,,,69,0
33500,note_off,,,,,92,0,3,,,,,2,,,76,0
33500,note_off,,,,,92,0,2,,,,,1,,,69,0
33500,note_off,,,,,92,0,1,,,,,0,,,76,0
33504,note_on,,,,,4,0,2,,,,,1,,,69,75
33504,note_on,,,,,4,0,1,,,,,0,,,76,75
33504,note_on,,,,,4,0,3,,,,,2,,,76,108
33504,note_on,,,,,4,0,4,,,,,3,,,69,108
33596,note_off,,,,,92,0,4,,,,,3,,,69,0
33596,note_off,,,,,188,0,5,,,,,4,,,69,0
33596,note_off,,,,,92,0,3,,,,,2,,,76,0
33596,note_off,,,,,188,0,6,,,,,5,,,61,0
33596,note_off,,,,,92,0,2,,,,,1,,,69,0
33596,note_off,,,,,188,0,8,,,,,7,,,61,0
33596,note_off,,,,,92,0,1,,,,,0,,,76,0
33596,note_off,,,,,188,0,7,,,,,6,,,49,0
33600,note_on,,,,,4,0,2,,,,,1,,,64,75
33600,note_on,,,,,4,0,4,,,,,3,,,64,108
33600,note_on,,,,,4,0,6,,,,,5,,,61,75
33600,note_on,,,,,4,0,3,,,,,2,,,67,108
33600,note_on,,,,,4,0,7,,,,,6,,,49,60
33600,note_on,,,,,4,0,1,,,,,0,,,67,75
33600,note_on,,,,,4,0,5,,,,,4,,,69,75
33600,note_on,,,,,4,0,8,,,,,7,,,61,45
33692,note_off,,,,,92,0,1,,,,,0,,,67,0
33692,note_off,,,,,92,0,2,,,,,1,,,64,0
33692,note_off,,,,,92,0,4,,,,,3,,,64,0
33692,note_off,,,,,92,0,3,,,,,2,,,67,0
33696,note_on,,,,,4,0,2,,,,,1,,,64,75
33696,note_on,,,,,4,0,1,,,,,0,,,67,75
33696,note_on,,,,,4,0,4,,,,,3,,,64,108
33696,note_on,,,,,4,0,3,,,,,2,,,67,108
33788,note_off,,,,,188,0,5,,,,,4,,,69,0
33788,note_off,,,,,92,0,1,,,,,0,,,67,0
33788,note_off,,,,,188,0,7,,,,,6,,,49,0
33788,note_off,,,,,188,0,6,,,,,5,,,61,0
33788,note_off,,,,,92,0,4,,,,,3,,,64,0
33788,note_off,,,,,188,0,8,,,,,7,,,61,0
33788,note_off,,,,,92,0,2,,,,,1,,,64,0
33788,note_off,,,,,92,0,3,,,,,2,,,67,0
33792,note_on,,,,,4,0,6,,,,,5,,,62,75
33792,note_on,,,,,4,0,5,,,,,4,,,69,75
33792,note_on,,,,,4,0,2,,,,,1,,,81,75
33792,note_on,,,,,4,0,4,,,,,3,,,81,108
33792,note_on,,,,,4,0,1,,,,,0,,,66,75
33792,note_on,,,,,4,0,7,,,,,6,,,50,60
33792,note_on,,,,,4,0,3,,,,,2,,,66,108
33792,note_on,,,,,4,0,8,,,,,7,,,62,45
33884,note_off,,,,,92,0,1,,,,,0,,,66,0
33884,note_off,,,,,92,0,4,,,,,3,,,81,0
33884,note_off,,,,,92,0,3,,,,,2,,,66,0
33884,note_off,,,,,92,0,2,,,,,1,,,81,0
33888,note_on,,,,,4,0,2,,,,,1,,,81,75
33888,note_on,,,,,4,0,3,,,,,2,,,66,108
33888,note_on,,,,,4,0,1,,,,,0,,,66,75
33888,note_on,,,,,4,0,4,,,,,3,,,81,108
33980,note_off,,,,,188,0,5,,,,,4,,,69,0
33980,note_off,,,,,92,0,4,,,,,3,,,81,0
33980,note_off,,,,,188,0,8,,,,,7,,,62,0
33980,note_off,,,,,92,0,1,,,,,0,,,66,0
33980,note_off,,,,,188,0,7,,,,,6,,,50,0
33980,note_off,,,,,188,0,6,,,,,5,,,62,0
33980,note_off,,,,,92,0,3,,,,,2,,,66,0
33980,note_off,,,,,92,0,2,,,,,1,,,81,0
33984,note_on,,,,,4,0,6,,,,,5,,,62,75
33984,note_on,,,,,4,0,1,,,,,0,,,74,75
33984,note_on,,,,,4,0,4,,,,,3,,,78,108
33984,note_on,,,,,4,0,2,,,,,1,,,78,75
33984,note_on,,,,,4,0,7,,,,,6,,,50,60
33984,note_on,,,,,4,0,5,,,,,4,,,69,75
33984,note_on,,,,,4,0,8,,,,,7,,,62,45
33984,note_on,,,,,4,0,3,,,,,2,,,74,108
34076,note_off,,,,,92,0,1,,,,,0,,,74,0
34076,note_off,,,,,92,0,3,,,,,2,,,74,0
34076,note_off,,,,,92,0,4,,,,,3,,,78,0
34076,note_off,,,,,92,0,2,,,,,1,,,78,0
34080,note_on,,,,,4,0,4,,,,,3,,,78,108
34080,note_on,,,,,4,0,1,,,,,0,,,74,75
34080,note_on,,,,,4,0,3,,,,,2,,,74,108
34080,note_on,,,,,4,0,2,,,,,1,,,78,75
34172,note_off,,,,,92,0,3,,,,,2,,,74,0
34172,note_off,,,,,188,0,5,,,,,4,,,69,0
34172,note_off,,,,,92,0,4,,,,,3,,,78,0
34172,note_off,,,,,92,0,2,,,,,1,,,78,0
34172,note_off,,,,,92,0,1,,,,,0,,,74,0
34172,note_off,,,,,188,0,7,,,,,6,,,50,0
34172,note_off,,,,,188,0,6,,,,,5,,,62,0
34172,note_off,,,,,188,0,8,,,,,7,,,62,0
34176,note_on,,,,,4,0,4,,,,,3,,,74,108
34176,note_on,,,,,4,0,2,,,,,1,,,74,75
34176,note_on,,,,,4,0,1,,,,,0,,,78,75
34176,note_on,,,,,4,0,7,,,,,6,,,47,60
34176,note_on,,,,,4,0,3,,,,,2,,,78,108
34176,note_on,,,,,4,0,8,,,,,7,,,59,45
34176,note_on,,,,,4,0,6,,,,,5,,,59,75
34176,note_on,,,,,4,0,5,,,,,4,,,71,75
34268,note_off,,,,,92,0,1,,,,,0,,,78,0
34268,note_off,,,,,92,0,2,,,,,1,,,74,0
34268,note_off,,,,,92,0,4,,,,,3,,,74,0
34268,note_off,,,,,92,0,3,,,,,2,,,78,0
34272,note_on,,,,,4,0,1,,,,,0,,,78,75
34272,note_on,,,,,4,0,4,,,,,3,,,74,108
34272,note_on,,,,,4,0,3,,,,,2,,,78,108
34272,note_on,,,,,4,0,2,,,,,1,,,74,75
34364,note_off,,,,,188,0,5,,,,,4,,,71,0
34364,note_off,,,,,92,0,3,,,,,2,,,78,0
34364,note_off,,,,,188,0,7,,,,,6,,,47,0
34364,note_off,,,,,188,0,6,,,,,5,,,59,0
34364,note_off,,,,,92,0,4,,,,,3,,,74,0
34364,note_off,,,,,188,0,8,,,,,7,,,59,0
34364,note_off,,,,,92,0,2,,,,,1,,,74,0
34364,note_off,,,,,92,0,1,,,,,0,,,78,0
34368,note_on,,,,,4,0,4,,,,,3,,,71,108
34368,note_on,,,,,4,0,3,,,,,2,,,86,108
34368,note_on,,,,,4,0,1,,,,,0,,,86,75
34368,note_on,,,,,4,0,8,,,,,7,,,59,45
34368,note_on,,,,,4,0,7,,,,,6,,,47,60
34368,note_on,,,,,4,0,6,,,,,5,,,59,75
34368,note_on,,,,,4,0,2,,,,,1,,,71,75
34368,note_on,,,,,4,0,5,,,,,4,,,71,75
34460,note_off,,,,,92,0,1,,,,,0,,,86,0
34460,note_off,,,,,92,0,2,,,,,1,,,71,0
34460,note_off,,,,,92,0,4,,,,,3,,,71,0
34460,note_off,,,,,92,0,3,,,,,2,,,86,0
34464,note_on,,,,,4,0,3,,,,,2,,,86,108
34464,note_on,,,,,4,0,2,,,,,1,,,71,75
34464,note_on,,,,,4,0,1,,,,,0,,,86,75
34464,note_on,,,,,4,0,4,,,,,3,,,71,108
34556,note_off,,,,,92,0,1,,,,,0,,,86,0
34556,note_off,,,,,188,0,8,,,,,7,,,59,0
34556,note_off,,,,,188,0,6,,,,,5,,,59,0
34556,note_off,,,,,92,0,4,,,,,3,,,71,0
34556,note_off,,,,,92,0,3,,,,,2,,,86,0
34556,note_off,,,,,188,0,7,,,,,6,,,47,0
34556,note_off,,,,,188,0,5,,,,,4,,,71,0
34556,note_off,,,,,92,0,2,,,,,1,,,71,0
34560,note_on,,,,,4,0,8,,,,,7,,,64,45
34560,note_on,,,,,4,0,2,,,,,1,,,68,75
34560,note_on,,,,,4,0,4,,,,,3,,,68,108
34560,note_on,,,,,4,0,7,,,,,6,,,52,60
34560,note_on,,,,,4,0,1,,,,,0,,,76,75
34560,note_on,,,,,4,0,3,,,,,2,,,76,108
34560,note_on,,,,,4,0,6,,,,,5,,,64,75
34560,note_on,,,,,4,0,5,,,,,4,,,71,75
34652,note_off,,,,,92,0,2,,,,,1,,,68,0
34652,note_off,,,,,92,0,1,,,,,0,,,76,0
34652,note_off,,,,,92,0,4,,,,,3,,,68,0
34652,note_off,,,,,92,0,3,,,,,2,,,76,0
34656,note_on,,,,,4,0,1,,,,,0,,,76,75
34656,note_on,,,,,4,0,4,,,,,3,,,68,108
34656,note_on,,,,,4,0,2,,,,,1,,,68,75
34656,note_on,,,,,4,0,3,,,,,2,,,76,108
34748,note_off,,,,,188,0,5,,,,,4,,,71,0
34748,note_off,,,,,188,0,6,,,,,5,,,64,0
34748,note_off,,,,,188,0,7,,,,,6,,,52,0
34748,note_off,,,,,92,0,2,,,,,1,,,68,0
34748,note_off,,,,,188,0,8,,,,,7,,,64,0
34748,note_off,,,,,92,0,1,,,,,0,,,76,0
34748,note_off,,,,,92,0,4,,,,,3,,,68,0
34748,note_off,,,,,92,0,3,,,,,2,,,76,0
34752,note_on,,,,,4,0,3,,,,,2,,,86,108
34752,note_on,,,,,4,0,2,,,,,1,,,68,75
34752,note_on,,,,,4,0,6,,,,,5,,,64,75
34752,note_on,,,,,4,0,1,,,,,0,,,86,75
34752,note_on,,,,,4,0,7,,,,,6,,,52,60
34752,note_on,,,,,4,0,5,,,,,4,,,71,75
34752,note_on,,,,,4,0,4,,,,,3,,,68,108
34752,note_on,,,,,4,0,8,,,,,7,,,64,45
34844,note_off,,,,,92,0,3,,,,,2,,,86,0
34844,note_off,,,,,92,0,1,,,,,0,,,86,0
34844,note_off,,,,,92,0,4,,,,,3,,,68,0
34844,note_off,,,,,92,0,2,,,,,1,,,68,0
34848,note_on,,,,,4,0,2,,,,,1,,,68,75
34848,note_on,,,,,4,0,1,,,,,0,,,86,75
34848,note_on,,,,,4,0,4,,,,,3,,,68,108
34848,note_on,,,,,4,0,3,,,,,2,,,86,108
34940,note_off,,,,,188,0,8,,,,,7,,,64,0
34940,note_off,,,,,92,0,4,,,,,3,,,68,0
34940,note_off,,,,,188,0,5,,,,,4,,,71,0
34940,note_off,,,,,188,0,7,,,,,6,,,52,0
34940,note_off,,,,,92,0,1,,,,,0,,,86,0
34940,note_off,,,,,188,0,6,,,,,5,,,64,0
34940,note_off,,,,,92,0,2,,,,,1,,,68,0
34940,note_off,,,,,92,0,3,,,,,2,,,86,0
34944,note_on,,,,,4,0,8,,,,,7,,,52,45
34944,note_on,,,,,4,0,1,,,,,0,,,85,75
34944,note_on,,,,,4,0,4,,,,,3,,,76,108
34944,note_on,,,,,4,0,3,,,,,2,,,85,108
34944,note_on,,,,,4,0,2,,,,,1,,,76,75
34944,note_on,,,,,4,0,7,,,,,6,,,40,60
34944,note_on,,,,,4,0,6,,,,,5,,,52,75
34944,note_on,,,,,4,0,5,,,,,4,,,69,75
35036,note_off,,,,,92,0,3,,,,,2,,,85,0
35036,note_off,,,,,92,0,4,,,,,3,,,76,0
35036,note_off,,,,,92,0,2,,,,,1,,,76,0
35036,note_off,,,,,92,0,1,,,,,0,,,85,0
35040,note_on,,,,,4,0,2,,,,,1,,,76,75
35040,note_on,,,,,4,0,3,,,,,2,,,85,108
35040,note_on,,,,,4,0,4,,,,,3,,,76,108
35040,note_on,,,,,4,0,1,,,,,0,,,85,75
35132,note_off,,,,,92,0,3,,,,,2,,,85,0
35132,note_off,,,,,92,0,4,,,,,3,,,76,0
35132,note_off,,,,,188,0,6,,,,,5,,,52,0
35132,note_off,,,,,188,0,5,,,,,4,,,69,0
35132,note_off,,,,,92,0,1,,,,,0,,,85,0
35132,note_off,,,,,188,0,8,,,,,7,,,52,0
35132,note_off,,,,,92,0,2,,,,,1,,,76,0
35132,note_off,,,,,188,0,7,,,,,6,,,40,0
35136,note_on,,,,,4,0,1,,,,,0,,,83,75
35136,note_on,,,,,4,0,4,,,,,3,,,76,108
35136,note_on,,,,,4,0,7,,,,,6,,,52,60
35136,note_on,,,,,4,0,5,,,,,4,,,68,75
35136,note_on,,,,,4,0,2,,,,,1,,,76,75
35136,note_on,,,,,4,0,3,,,,,2,,,83,108
35136,note_on,,,,,4,0,8,,,,,7,,,64,45
35136,note_on,,,,,4,0,6,,,,,5,,,64,75
35228,note_off,,,,,92,0,1,,,,,0,,,83,0
35228,note_off,,,,,92,0,4,,,,,3,,,76,0
35228,note_off,,,,,92,0,2,,,,,1,,,76,0
35228,note_off,,,,,92,0,3,,,,,2,,,83,0
35232,note_on,,,,,4,0,4,,,,,3,,,76,108
35232,note_on,,,,,4,0,2,,,,,1,,,76,75
35232,note_on,,,,,4,0,3,,,,,2,,,83,108
35232,note_on,,,,,4,0,1,,,,,0,,,83,75
35324,note_off,,,,,188,0,7,,,,,6,,,52,0
35324,note_off,,,,,188,0,8,,,,,7,,,64,0
35324,note_off,,,,,92,0,1,,,,,0,,,83,0
35324,note_off,,,,,92,0,2,,,,,1,,,76,0
35324,note_off,,,,,188,0,6,,,,,5,,,64,0
35324,note_off,,,,,92,0,3,,,,,2,,,83,0
35324,note_off,,,,,188,0,5,,,,,4,,,68,0
35324,note_off,,,,,92,0,4,,,,,3,,,76,0
35328,note_on,,,,,4,0,4,,,,,3,,,81,108
35328,note_on,,,,,4,0,6,,,,,5,,,66,75
35328,note_on,,,,,4,0,3,,,,,2,,,81,108
35328,note_on,,,,,4,0,5,,,,,4,,,74,75
35328,note_on,,,,,4,0,7,,,,,6,,,54,60
35328,note_on,,,,,4,0,1,,,,,0,,,81,75
35328,note_on,,,,,4,0,2,,,,,1,,,81,75
35328,note_on,,,,,4,0,8,,,,,7,,,66,45
35516,note_off,,,,,188,0,7,,,,,6,,,54,0
35516,note_off,,,,,188,0,2,,,,,1,,,81,0
35516,note_off,,,,,188,0,6,,,,,5,,,66,0
35516,note_off,,,,,188,0,5,,,,,4,,,74,0
35516,note_off,,,,,188,0,3,,,,,2,,,81,0
35516,note_off,,,,,188,0,1,,,,,0,,,81,0
35516,note_off,,,,,188,0,8,,,,,7,,,66,0
35516,note_off,,,,,188,0,4,,,,,3,,,81,0
35520,note_on,,,,,4,0,5,,,,,4,,,66,75
35520,note_on,,,,,4,0,7,,,,,6,,,50,60
35520,note_on,,,,,4,0,4,,,,,3,,,81,108
35520,note_on,,,,,4,0,6,,,,,5,,,62,75
35520,note_on,,,,,4,0,3,,,,,2,,,86,108
35520,note_on,,,,,4,0,1,,,,,0,,,86,75
35520,note_on,,,,,4,0,8,,,,,7,,,62,45
35520,note_on,,,,,4,0,2,,,,,1,,,81,75
35708,note_off,,,,,188,0,8,,,,,7,,,62,0
35708,note_off,,,,,188,0,6,,,,,5,,,62,0
35708,note_off,,,,,188,0,3,,,,,2,,,86,0
35708,note_off,,,,,188,0,1,,,,,0,,,86,0
35708,note_off,,,,,188,0,4,,,,,3,,,81,0
35708,note_off,,,,,188,0,5,,,,,4,,,66,0
35708,note_off,,,,,188,0,2,,,,,1,,,81,0
35708,note_off,,,,,188,0,7,,,,,6,,,50,0
35712,note_on,,,,,4,0,2,,,,,1,,,81,75
35712,note_on,,,,,4,0,6,,,,,5,,,64,75
35712,note_on,,,,,4,0,7,,,,,6,,,52,60
35712,note_on,,,,,4,0,5,,,,,4,,,64,75
35712,note_on,,,,,4,0,8,,,,,7,,,64,45
35712,note_on,,,,,4,0,1,,,,,0,,,85,75
35712,note_on,,,,,4,0,3,,,,,2,,,85,108
35712,note_on,,,,,4,0,4,,,,,3,,,81,108
35900,note_off,,,,,188,0,4,,,,,3,,,81,0
35900,note_off,,,,,188,0,8,,,,,7,,,64,0
35900,note_off,,,,,188,0,6,,,,,5,,,64,0
35900,note_off,,,,,188,0,5,,,,,4,,,64,0
35900,note_off,,,,,188,0,7,,,,,6,,,52,0
35900,note_off,,,,,188,0,1,,,,,0,,,85,0
35900,note_off,,,,,188,0,2,,,,,1,,,81,0
35900,note_off,,,,,188,0,3,,,,,2,,,85,0
35904,note_on,,,,,4,0,2,,,,,1,,,80,75
35904,note_on,,,,,4,0,3,,,,,2,,,83,108
35904,note_on,,,,,4,0,8,,,,,7,,,52,45
35904,note_on,,,,,4,0,5,,,,,4,,,74,75
35904,note_on,,,,,4,0,1,,,,,0,,,83,75
35904,note_on,,,,,4,0,7,,,,,6,,,40,60
35904,note_on,,,,,4,0,4,,,,,3,,,80,108
35904,note_on,,,,,4,0,6,,,,,5,,,52,75
36092,note_off,,,,,188,0,2,,,,,1,,,80,0
36092,note_off,,,,,188,0,5,,,,,4,,,74,0
36092,note_off,,,,,188,0,3,,,,,2,,,83,0
36092,note_off,,,,,188,0,6,,,,,5,,,52,0
36092,note_off,,,,,188,0,4,,,,,3,,,80,0
36092,note_off,,,,,188,0,1,,,,,0,,,83,0
36092,note_off,,,,,188,0,8,,,,,7,,,52,0
36092,note_off,,,,,188,0,7,,,,,6,,,40,0
36096,note_on,,,,,4,0,2,,,,,1,,,81,75
36096,note_on,,,,,4,0,3,,,,,2,,,81,108
36096,note_on,,,,,4,0,8,,,,,7,,,57,45
36096,note_on,,,,,4,0,4,,,,,3,,,81,108
36096,note_on,,,,,4,0,1,,,,,0,,,81,75
36096,note_on,,,,,4,0,5,,,,,4,,,73,75
36096,note_on,,,,,4,0,6,,,,,5,,,57,75
36096,note_on,,,,,4,0,7,,,,,6,,,45,60
36188,note_off,,,,,92,0,4,,,,,3,,,81,0
36188,note_off,,,,,92,0,2,,,,,1,,,81,0
36188,note_off,,,,,92,0,3,,,,,2,,,81,0
36188,note_off,,,,,92,0,1,,,,,0,,,81,0
36192,note_on,,,,,4,0,4,,,,,3,,,81,108
36192,note_on,,,,,4,0,3,,,,,2,,,81,108
36192,note_on,,,,,4,0,1,,,,,0,,,81,75
36192,note_on,,,,,4,0,2,,,,,1,,,81,75
36284,note_off,,,,,92,0,3,,,,,2,,,81,0
36284,note_off,,,,,188,0,8,,,,,7,,,57,0
36284,note_off,,,,,188,0,6,,,,,5,,,57,0
36284,note_off,,,,,92,0,2,,,,,1,,,81,0
36284,note_off,,,,,188,0,5,,,,,4,,,73,0
36284,note_off,,,,,188,0,7,,,,,6,,,45,0
36284,note_off,,,,,92,0,1,,,,,0,,,81,0
36284,note_off,,,,,92,0,4,,,,,3,,,81,0
36288,note_on,,,,,4,0,3,,,,,2,,,81,108
36288,note_on,,,,,4,0,8,,,,,7,,,45,45
36288,note_on,,,,,4,0,4,,,,,3,,,79,108
36288,note_on,,,,,4,0,7,,,,,6,,,33,60
36288,note_on,,,,,4,0,5,,,,,4,,,61,75
36288,note_on,,,,,4,0,1,,,,,0,,,81,75
36288,note_on,,,,,4,0,6,,,,,5,,,45,75
36288,note_on,,,,,4,0,2,,,,,1,,,79,75
36380,note_off,,,,,92,0,3,,,,,2,,,81,0
36380,note_off,,,,,92,0,4,,,,,3,,,79,0
36380,note_off,,,,,92,0,2,,,,,1,,,79,0
36380,note_off,,,,,92,0,1,,,,,0,,,81,0
36384,note_on,,,,,4,0,4,,,,,3,,,79,108
36384,note_on,,,,,4,0,2,,,,,1,,,79,75
36384,note_on,,,,,4,0,1,,,,,0,,,81,75
36384,note_on,,,,,4,0,3,,,,,2,,,81,108
36476,note_off,,,,,92,0,2,,,,,1,,,79,0
36476,note_off,,,,,188,0,8,,,,,7,,,45,0
36476,note_off,,,,,92,0,4,,,,,3,,,79,0
36476,note_off,,,,,92,0,3,,,,,2,,,81,0
36476,note_off,,,,,188,0,7,,,,,6,,,33,0
36476,note_off,,,,,92,0,1,,,,,0,,,81,0
36476,note_off,,,,,188,0,5,,,,,4,,,61,0
36476,note_off,,,,,188,0,6,,,,,5,,,45,0
36480,note_on,,,,,4,0,8,,,,,7,,,47,45
36480,note_on,,,,,4,0,7,,,,,6,,,35,60
36480,note_on,,,,,4,0,1,,,,,0,,,69,75
36480,note_on,,,,,4,0,5,,,,,4,,,62,75
36480,note_on,,,,,4,0,3,,,,,2,,,69,108
36480,note_on,,,,,4,0,2,,,,,1,,,78,75
36480,note_on,,,,,4,0,6,,,,,5,,,47,75
36480,note_on,,,,,4,0,4,,,,,3,,,78,108
36572,note_off,,,,,92,0,4,,,,,3,,,78,0
36572,note_off,,,,,92,0,1,,,,,0,,,69,0
36572,note_off,,,,,92,0,2,,,,,1,,,78,0
36572,note_off,,,,,92,0,3,,,,,2,,,69,0
36576,note_on,,,,,4,0,4,,,,,3,,,78,108
36576,note_on,,,,,4,0,2,,,,,1,,,78,75
36576,note_on,,,,,4,0,1,,,,,0,,,69,75
36576,note_on,,,,,4,0,3,,,,,2,,,69,108
36668,note_off,,,,,92,0,1,,,,,0,,,69,0
36668,note_off,,,,,92,0,2,,,,,1,,,78,0
36668,note_off,,,,,92,0,4,,,,,3,,,78,0
36668,note_off,,,,,188,0,7,,,,,6,,,35,0
36668,note_off,,,,,92,0,3,,,,,2,,,69,0
36668,note_off,,,,,188,0,8,,,,,7,,,47,0
36668,note_off,,,,,188,0,5,,,,,4,,,62,0
36668,note_off,,,,,188,0,6,,,,,5,,,47,0
36672,note_on,,,,,4,0,2,,,,,1,,,76,75
36672,note_on,,,,,4,0,8,,,,,7,,,49,45
36672,note_on,,,,,4,0,5,,,,,4,,,64,75
36672,note_on,,,,,4,0,3,,,,,2,,,69,108
36672,note_on,,,,,4,0,6,,,,,5,,,49,75
36672,note_on,,,,,4,0,4,,,,,3,,,76,108
36672,note_on,,,,,4,0,1,,,,,0,,,69,75
36672,note_on,,,,,4,0,7,,,,,6,,,37,60
36764,note_off,,,,,92,0,4,,,,,3,,,76,0
36764,note_off,,,,,92,0,2,,,,,1,,,76,0
36764,note_off,,,,,92,0,1,,,,,0,,,69,0
36764,note_off,,,,,92,0,3,,,,,2,,,69,0
36768,note_on,,,,,4,0,1,,,,,0,,,69,75
36768,note_on,,,,,4,0,3,,,,,2,,,69,108
36768,note_on,,,,,4,0,4,,,,,3,,,76,108
36768,note_on,,,,,4,0,2,,,,,1,,,76,75
36860,note_off,,,,,92,0,2,,,,,1,,,76,0
36860,note_off,,,,,188,0,8,,,,,7,,,49,0
36860,note_off,,,,,92,0,1,,,,,0,,,69,0
36860,note_off,,,,,188,0,6,,,,,5,,,49,0
36860,note_off,,,,,188,0,5,,,,,4,,,64,0
36860,note_off,,,,,188,0,7,,,,,6,,,37,0
36860,note_off,,,,,92,0,4,,,,,3,,,76,0
36860,note_off,,,,,92,0,3,,,,,2,,,69,0
36864,note_on,,,,,4,0,4,,,,,3,,,74,108
36864,note_on,,,,,4,0,5,,,,,4,,,69,75
36864,note_on,,,,,4,0,7,,,,,6,,,38,60
36864,note_on,,,,,4,0,2,,,,,1,,,74,75
36864,note_on,,,,,4,0,8,,,,,7,,,50,45
36864,note_on,,,,,4,0,3,,,,,2,,,78,108
36864,note_on,,,,,4,0,6,,,,,5,,,50,75
36864,note_on,,,,,4,0,1,,,,,0,,,78,75
36956,note_off,,,,,92,0,4,,,,,3,,,74,0
36956,note_off,,,,,92,0,3,,,,,2,,,78,0
36956,note_off,,,,,92,0,1,,,,,0,,,78,0
36956,note_off,,,,,92,0,2,,,,,1,,,74,0
36960,note_on,,,,,4,0,1,,,,,0,,,78,75
36960,note_on,,,,,4,0,4,,,,,3,,,74,108
36960,note_on,,,,,4,0,3,,,,,2,,,78,108
36960,note_on,,,,,4,0,2,,,,,1,,,74,75
37052,note_off,,,,,92,0,2,,,,,1,,,74,0
37052,note_off,,,,,188,0,5,,,,,4,,,69,0
37052,note_off,,,,,188,0,6,,,,,5,,,50,0
37052,note_off,,,,,188,0,7,,,,,6,,,38,0
37052,note_off,,,,,92,0,1,,,,,0,,,78,0
37052,note_off,,,,,92,0,4,,,,,3,,,74,0
37052,note_off,,,,,188,0,8,,,,,7,,,50,0
37052,note_off,,,,,92,0,3,,,,,2,,,78,0
37056,note_on,,,,,4,0,1,,,,,0,,,81,75
37056,note_on,,,,,4,0,5,,,,,4,,,69,75
37056,note_on,,,,,4,0,2,,,,,1,,,69,75
37056,note_on,,,,,4,0,6,,,,,5,,,50,75
37056,note_on,,,,,4,0,7,,,,,6,,,38,60
37056,note_on,,,,,4,0,3,,,,,2,,,81,108
37056,note_on,,,,,4,0,4,,,,,3,,,69,108
37056,note_on,,,,,4,0,8,,,,,7,,,50,45
37148,note_off,,,,,92,0,4,,,,,3,,,69,0
37148,note_off,,,,,92,0,2,,,,,1,,,69,0
37148,note_off,,,,,92,0,1,,,,,0,,,81,0
37148,note_off,,,,,92,0,3,,,,,2,,,81,0
37152,note_on,,,,,4,0,2,,,,,1,,,69,75
37152,note_on,,,,,4,0,1,,,,,0,,,81,75
37152,note_on,,,,,4,0,4,,,,,3,,,69,108
37152,note_on,,,,,4,0,3,,,,,2,,,81,108
37244,note_off,,,,,92,0,2,,,,,1,,,69,0
37244,note_off,,,,,92,0,1,,,,,0,,,81,0
37244,note_off,,,,,188,0,5,,,,,4,,,69,0
37244,note_off,,,,,92,0,4,,,,,3,,,69,0
37244,note_off,,,,,188,0,8,,,,,7,,,50,0
37244,note_off,,,,,92,0,3,,,,,2,,,81,0
37244,note_off,,,,,188,0,7,,,,,6,,,38,0
37244,note_off,,,,,188,0,6,,,,,5,,,50,0
37248,note_on,,,,,4,0,2,,,,,1,,,78,75
37248,note_on,,,,,4,0,4,,,,,3,,,78,108
37248,note_on,,,,,4,0,8,,,,,7,,,54,45
37248,note_on,,,,,4,0,5,,,,,4,,,69,75
37248,note_on,,,,,4,0,1,,,,,0,,,74,75
37248,note_on,,,,,4,0,3,,,,,2,,,74,108
37248,note_on,,,,,4,0,7,,,,,6,,,42,60
37248,note_on,,,,,4,0,6,,,,,5,,,54,75
37340,note_off,,,,,92,0,4,,,,,3,,,78,0
37340,note_off,,,,,92,0,3,,,,,2,,,74,0
37340,note_off,,,,,92,0,1,,,,,0,,,74,0
37340,note_off,,,,,92,0,2,,,,,1,,,78,0
37344,note_on,,,,,4,0,3,,,,,2,,,74,108
37344,note_on,,,,,4,0,1,,,,,0,,,74,75
37344,note_on,,,,,4,0,2,,,,,1,,,78,75
37344,note_on,,,,,4,0,4,,,,,3,,,78,108
37436,note_off,,,,,92,0,3,,,,,2,,,74,0
37436,note_off,,,,,92,0,1,,,,,0,,,74,0
37436,note_off,,,,,188,0,8,,,,,7,,,54,0
37436,note_off,,,,,92,0,4,,,,,3,,,78,0
37436,note_off,,,,,188,0,5,,,,,4,,,69,0
37436,note_off,,,,,92,0,2,,,,,1,,,78,0
37436,note_off,,,,,188,0,7,,,,,6,,,42,0
37436,note_off,,,,,188,0,6,,,,,5,,,54,0
37440,note_on,,,,,4,0,3,,,,,2,,,81,108
37440,note_on,,,,,4,0,1,,,,,0,,,81,75
37440,note_on,,,,,4,0,8,,,,,7,,,54,45
37440,note_on,,,,,4,0,2,,,,,1,,,69,75
37440,note_on,,,,,4,0,6,,,,,5,,,54,75
37440,note_on,,,,,4,0,7,,,,,6,,,42,60
37440,note_on,,,,,4,0,5,,,,,4,,,69,75
37440,note_on,,,,,4,0,4,,,,,3,,,69,108
37532,note_off,,,,,92,0,4,,,,,3,,,69,0
37532,note_off,,,,,92,0,2,,,,,1,,,69,0
37532,note_off,,,,,92,0,3,,,,,2,,,81,0
37532,note_off,,,,,92,0,1,,,,,0,,,81,0
37536,note_on,,,,,4,0,3,,,,,2,,,81,108
37536,note_on,,,,,4,0,2,,,,,1,,,69,75
37536,note_on,,,,,4,0,1,,,,,0,,,81,75
37536,note_on,,,,,4,0,4,,,,,3,,,69,108
37628,note_off,,,,,92,0,3,,,,,2,,,81,0
37628,note_off,,,,,188,0,7,,,,,6,,,42,0
37628,note_off,,,,,92,0,1,,,,,0,,,81,0
37628,note_off,,,,,92,0,4,,,,,3,,,69,0
37628,note_off,,,,,188,0,6,,,,,5,,,54,0
37628,note_off,,,,,188,0,8,,,,,7,,,54,0
37628,note_off,,,,,92,0,2,,,,,1,,,69,0
37628,note_off,,,,,188,0,5,,,,,4,,,69,0
37632,note_on,,,,,4,0,8,,,,,7,,,57,45
37632,note_on,,,,,4,0,5,,,,,4,,,69,75
37632,note_on,,,,,4,0,7,,,,,6,,,45,60
37632,note_on,,,,,4,0,6,,,,,5,,,57,75
37632,note_on,,,,,4,0,4,,,,,3,,,76,108
37632,note_on,,,,,4,0,2,,,,,1,,,76,75
37632,note_on,,,,,4,0,1,,,,,0,,,73,75
37632,note_on,,,,,4,0,3,,,,,2,,,73,108
37724,note_off,,,,,92,0,4,,,,,3,,,76,0
37724,note_off,,,,,92,0,2,,,,,1,,,76,0
37724,note_off,,,,,92,0,1,,,,,0,,,73,0
37724,note_off,,,,,92,0,3,,,,,2,,,73,0
37728,note_on,,,,,4,0,2,,,,,1,,,76,75
37728,note_on,,,,,4,0,1,,,,,0,,,73,75
37728,note_on,,,,,4,0,3,,,,,2,,,73,108
37728,note_on,,,,,4,0,4,,,,,3,,,76,108
37820,note_off,,,,,188,0,7,,,,,6,,,45,0
37820,note_off,,,,,92,0,2,,,,,1,,,76,0
37820,note_off,,,,,188,0,6,,,,,5,,,57,0
37820,note_off,,,,,188,0,8,,,,,7,,,57,0
37820,note_off,,,,,92,0,4,,,,,3,,,76,0
37820,note_off,,,,,188,0,5,,,,,4,,,69,0
37820,note_off,,,,,92,0,1,,,,,0,,,73,0
37820,note_off,,,,,92,0,3,,,,,2,,,73,0
37824,note_on,,,,,4,0,7,,,,,6,,,45,60
37824,note_on,,,,,4,0,1,,,,,0,,,81,75
37824,note_on,,,,,4,0,4,,,,,3,,,73,108
37824,note_on,,,,,4,0,5,,,,,4,,,69,75
37824,note_on,,,,,4,0,3,,,,,2,,,81,108
37824,note_on,,,,,4,0,6,,,,,5,,,57,75
37824,note_on,,,,,4,0,8,,,,,7,,,57,45
37824,note_on,,,,,4,0,2,,,,,1,,,73,75
37916,note_off,,,,,92,0,1,,,,,0,,,81,0
37916,note_off,,,,,92,0,2,,,,,1,,,73,0
37916,note_off,,,,,92,0,3,,,,,2,,,81,0
37916,note_off,,,,,92,0,4,,,,,3,,,73,0
37920,note_on,,,,,4,0,2,,,,,1,,,73,75
37920,note_on,,,,,4,0,1,,,,,0,,,81,75
37920,note_on,,,,,4,0,4,,,,,3,,,73,108
37920,note_on,,,,,4,0,3,,,,,2,,,81,108
38012,note_off,,,,,92,0,3,,,,,2,,,81,0
38012,note_off,,,,,188,0,5,,,,,4,,,69,0
38012,note_off,,,,,188,0,7,,,,,6,,,45,0
38012,note_off,,,,,92,0,4,,,,,3,,,73,0
38012,note_off,,,,,188,0,8,,,,,7,,,57,0
38012,note_off,,,,,188,0,6,,,,,5,,,57,0
38012,note_off,,,,,92,0,2,,,,,1,,,73,0
38012,note_off,,,,,92,0,1,,,,,0,,,81,0
38016,note_on,,,,,4,0,8,,,,,7,,,61,45
38016,note_on,,,,,4,0,7,,,,,6,,,49,60
38016,note_on,,,,,4,0,4,,,,,3,,,81,108
38016,note_on,,,,,4,0,5,,,,,4,,,69,75
38016,note_on,,,,,4,0,2,,,,,1,,,81,75
38016,note_on,,,,,4,0,1,,,,,0,,,76,75
38016,note_on,,,,,4,0,3,,,,,2,,,76,108
38016,note_on,,,,,4,0,6,,,,,5,,,61,75
38108,note_off,,,,,92,0,4,,,,,3,,,81,0
38108,note_off,,,,,92,0,3,,,,,2,,,76,0
38108,note_off,,,,,92,0,2,,,,,1,,,81,0
38108,note_off,,,,,92,0,1,,,,,0,,,76,0
38112,note_on,,,,,4,0,1,,,,,0,,,76,75
38112,note_on,,,,,4,0,2,,,,,1,,,81,75
38112,note_on,,,,,4,0,3,,,,,2,,,76,108
38112,note_on,,,,,4,0,4,,,,,3,,,81,108
38204,note_off,,,,,92,0,2,,,,,1,,,81,0
38204,note_off,,,,,188,0,6,,,,,5,,,61,0
38204,note_off,,,,,188,0,8,,,,,7,,,61,0
38204,note_off,,,,,188,0,7,,,,,6,,,49,0
38204,note_off,,,,,92,0,1,,,,,0,,,76,0
38204,note_off,,,,,92,0,4,,,,,3,,,81,0
38204,note_off,,,,,92,0,3,,,,,2,,,76,0
38204,note_off,,,,,188,0,5,,,,,4,,,69,0
38208,note_on,,,,,4,0,7,,,,,6,,,49,60
38208,note_on,,,,,4,0,8,,,,,7,,,61,45
38208,note_on,,,,,4,0,3,,,,,2,,,81,108
38208,note_on,,,,,4,0,4,,,,,3,,,76,108
38208,note_on,,,,,4,0,2,,,,,1,,,76,75
38208,note_on,,,,,4,0,5,,,,,4,,,69,75
38208,note_on,,,,,4,0,6,,,,,5,,,61,75
38208,note_on,,,,,4,0,1,,,,,0,,,81,75
38300,note_off,,,,,92,0,1,,,,,0,,,81,0
38300,note_off,,,,,92,0,3,,,,,2,,,81,0
38300,note_off,,,,,92,0,2,,,,,1,,,76,0
38300,note_off,,,,,92,0,4,,,,,3,,,76,0
38304,note_on,,,,,4,0,2,,,,,1,,,76,75
38304,note_on,,,,,4,0,1,,,,,0,,,81,75
38304,note_on,,,,,4,0,4,,,,,3,,,76,108
38304,note_on,,,,,4,0,3,,,,,2,,,81,108
38396,note_off,,,,,92,0,1,,,,,0,,,81,0
38396,note_off,,,,,188,0,5,,,,,4,,,69,0
38396,note_off,,,,,92,0,3,,,,,2,,,81,0
38396,note_off,,,,,92,0,2,,,,,1,,,76,0
38396,note_off,,,,,92,0,4,,,,,3,,,76,0
38396,note_off,,,,,188,0,8,,,,,7,,,61,0
38396,note_off,,,,,188,0,7,,,,,6,,,49,0
38396,note_off,,,,,188,0,6,,,,,5,,,61,0
38400,note_on,,,,,4,0,4,,,,,3,,,74,108
38400,note_on,,,,,4,0,8,,,,,7,,,62,45
38400,note_on,,,,,4,0,3,,,,,2,,,78,108
38400,note_on,,,,,4,0,2,,,,,1,,,74,75
38400,note_on,,,,,4,0,5,,,,,4,,,69,75
38400,note_on,,,,,4,0,7,,,,,6,,,50,60
38400,note_on,,,,,4,0,1,,,,,0,,,78,75
38400,note_on,,,,,4,0,6,,,,,5,,,62,75
38492,note_off,,,,,92,0,4,,,,,3,,,74,0
38492,note_off,,,,,92,0,2,,,,,1,,,74,0
38496,note_on,,,,,4,0,2,,,,,1,,,74,75
38496,note_on,,,,,4,0,4,,,,,3,,,74,108
38588,note_off,,,,,188,0,6,,,,,5,,,62,0
38588,note_off,,,,,92,0,2,,,,,1,,,74,0
38588,note_off,,,,,188,0,8,,,,,7,,,62,0
38588,note_off,,,,,188,0,5,,,,,4,,,69,0
38588,note_off,,,,,188,0,3,,,,,2,,,78,0
38588,note_off,,,,,92,0,4,,,,,3,,,74,0
38588,note_off,,,,,188,0,7,,,,,6,,,50,0
38588,note_off,,,,,188,0,1,,,,,0,,,78,0
38592,note_on,,,,,4,0,7,,,,,6,,,50,60
38592,note_on,,,,,4,0,5,,,,,4,,,69,75
38592,note_on,,,,,4,0,3,,,,,2,,,76,108
38592,note_on,,,,,4,0,1,,,,,0,,,76,75
38592,note_on,,,,,4,0,6,,,,,5,,,62,75
38592,note_on,,,,,4,0,4,,,,,3,,,69,108
38592,note_on,,,,,4,0,8,,,,,7,,,62,45
38592,note_on,,,,,4,0,2,,,,,1,,,69,75
38684,note_off,,,,,92,0,4,,,,,3,,,69,0
38684,note_off,,,,,92,0,2,,,,,1,,,69,0
38684,note_off,,,,,92,0,3,,,,,2,,,76,0
38684,note_off,,,,,92,0,1,,,,,0,,,76,0
38688,note_on,,,,,4,0,3,,,,,2,,,78,108
38688,note_on,,,,,4,0,4,,,,,3,,,69,108
38688,note_on,,,,,4,0,1,,,,,0,,,78,75
38688,note_on,,,,,4,0,2,,,,,1,,,69,75
38780,note_off,,,,,92,0,1,,,,,0,,,78,0
38780,note_off,,,,,188,0,7,,,,,6,,,50,0
38780,note_off,,,,,188,0,6,,,,,5,,,62,0
38780,note_off,,,,,92,0,3,,,,,2,,,78,0
38780,note_off,,,,,188,0,5,,,,,4,,,69,0
38780,note_off,,,,,92,0,4,,,,,3,,,69,0
38780,note_off,,,,,188,0,8,,,,,7,,,62,0
38780,note_off,,,,,92,0,2,,,,,1,,,69,0
38784,note_on,,,,,4,0,1,,,,,0,,,79,75
38784,note_on,,,,,4,0,7,,,,,6,,,43,60
38784,note_on,,,,,4,0,4,,,,,3,,,71,108
38784,note_on,,,,,4,0,5,,,,,4,,,67,75
38784,note_on,,,,,4,0,6,,,,,5,,,55,75
38784,note_on,,,,,4,0,2,,,,,1,,,71,75
38784,note_on,,,,,4,0,3,,,,,2,,,79,108
38784,note_on,,,,,4,0,8,,,,,7,,,55,45
38876,note_off,,,,,92,0,2,,,,,1,,,71,0
38876,note_off,,,,,92,0,4,,,,,3,,,71,0
38876,note_off,,,,,92,0,1,,,,,0,,,79,0
38876,note_off,,,,,92,0,3,,,,,2,,,79,0
38880,note_on,,,,,4,0,1,,,,,0,,,78,75
38880,note_on,,,,,4,0,2,,,,,1,,,69,75
38880,note_on,,,,,4,0,4,,,,,3,,,69,108
38880,note_on,,,,,4,0,3,,,,,2,,,78,108
38972,note_off,,,,,92,0,4,,,,,3,,,69,0
38972,note_off,,,,,188,0,6,,,,,5,,,55,0
38972,note_off,,,,,188,0,5,,,,,4,,,67,0
38972,note_off,,,,,92,0,2,,,,,1,,,69,0
38972,note_off,,,,,188,0,7,,,,,6,,,43,0
38972,note_off,,,,,92,0,1,,,,,0,,,78,0
38972,note_off,,,,,188,0,8,,,,,7,,,55,0
38972,note_off,,,,,92,0,3,,,,,2,,,78,0
38976,note_on,,,,,4,0,3,,,,,2,,,76,108
38976,note_on,,,,,4,0,6,,,,,5,,,55,75
38976,note_on,,,,,4,0,1,,,,,0,,,76,75
38976,note_on,,,,,4,0,7,,,,,6,,,43,60
38976,note_on,,,,,4,0,8,,,,,7,,,55,45
38976,note_on,,,,,4,0,5,,,,,4,,,71,75
38976,note_on,,,,,4,0,2,,,,,1,,,67,75
38976,note_on,,,,,4,0,4,,,,,3,,,67,108
39068,note_off,,,,,92,0,2,,,,,1,,,67,0
39068,note_off,,,,,92,0,3,,,,,2,,,76,0
39068,note_off,,,,,92,0,4,,,,,3,,,67,0
39068,note_off,,,,,92,0,1,,,,,0,,,76,0
39072,note_on,,,,,4,0,2,,,,,1,,,66,75
39072,note_on,,,,,4,0,4,,,,,3,,,66,108
39072,note_on,,,,,4,0,1,,,,,0,,,74,75
39072,note_on,,,,,4,0,3,,,,,2,,,74,108
39164,note_off,,,,,92,0,3,,,,,2,,,74,0
39164,note_off,,,,,188,0,5,,,,,4,,,71,0
39164,note_off,,,,,188,0,8,,,,,7,,,55,0
39164,note_off,,,,,188,0,7,,,,,6,,,43,0
39164,note_off,,,,,188,0,6,,,,,5,,,55,0
39164,note_off,,,,,92,0,4,,,,,3,,,66,0
39164,note_off,,,,,92,0,2,,,,,1,,,66,0
39164,note_off,,,,,92,0,1,,,,,0,,,74,0
39168,note_on,,,,,4,0,6,,,,,5,,,57,75
39168,note_on,,,,,4,0,3,,,,,2,,,73,108
39168,note_on,,,,,4,0,4,,,,,3,,,64,108
39168,note_on,,,,,4,0,5,,,,,4,,,69,75
39168,note_on,,,,,4,0,7,,,,,6,,,45,60
39168,note_on,,,,,4,0,2,,,,,1,,,64,75
39168,note_on,,,,,4,0,1,,,,,0,,,73,75
39168,note_on,,,,,4,0,8,,,,,7,,,57,45
39260,note_off,,,,,92,0,3,,,,,2,,,73,0
39260,note_off,,,,,92,0,2,,,,,1,,,64,0
39260,note_off,,,,,92,0,4,,,,,3,,,64,0
39260,note_off,,,,,92,0,1,,,,,0,,,73,0
39264,note_on,,,,,4,0,2,,,,,1,,,64,75
39264,note_on,,,,,4,0,3,,,,,2,,,73,108
39264,note_on,,,,,4,0,4,,,,,3,,,64,108
39264,note_on,,,,,4,0,1,,,,,0,,,73,75
39356,note_off,,,,,92,0,4,,,,,3,,,64,0
39356,note_off,,,,,188,0,5,,,,,4,,,69,0
39356,note_off,,,,,92,0,1,,,,,0,,,73,0
39356,note_off,,,,,92,0,3,,,,,2,,,73,0
39356,note_off,,,,,188,0,7,,,,,6,,,45,0
39356,note_off,,,,,188,0,8,,,,,7,,,57,0
39356,note_off,,,,,92,0,2,,,,,1,,,64,0
39356,note_off,,,,,188,0,6,,,,,5,,,57,0
39360,note_on,,,,,4,0,8,,,,,7,,,57,45
39360,note_on,,,,,4,0,4,,,,,3,,,76,108
39360,note_on,,,,,4,0,2,,,,,1,,,76,75
39360,note_on,,,,,4,0,7,,,,,6,,,45,60
39360,note_on,,,,,4,0,5,,,,,4,,,69,75
39360,note_on,,,,,4,0,3,,,,,2,,,69,108
39360,note_on,,,,,4,0,1,,,,,0,,,69,75
39360,note_on,,,,,4,0,6,,,,,5,,,57,75
39452,note_off,,,,,92,0,1,,,,,0,,,69,0
39452,note_off,,,,,92,0,4,,,,,3,,,76,0
39452,note_off,,,,,92,0,3,,,,,2,,,69,0
39452,note_off,,,,,92,0,2,,,,,1,,,76,0
39456,note_on,,,,,4,0,4,,,,,3,,,76,108
39456,note_on,,,,,4,0,1,,,,,0,,,69,75
39456,note_on,,,,,4,0,3,,,,,2,,,69,108
39456,note_on,,,,,4,0,2,,,,,1,,,76,75
39548,note_off,,,,,92,0,3,,,,,2,,,69,0
39548,note_off,,,,,188,0,6,,,,,5,,,57,0
39548,note_off,,,,,188,0,7,,,,,6,,,45,0
39548,note_off,,,,,92,0,4,,,,,3,,,76,0
39548,note_off,,,,,188,0,8,,,,,7,,,57,0
39548,note_off,,,,,188,0,5,,,,,4,,,69,0
39548,note_off,,,,,92,0,1,,,,,0,,,69,0
39548,note_off,,,,,92,0,2,,,,,1,,,76,0
39552,note_on,,,,,4,0,6,,,,,5,,,61,75
39552,note_on,,,,,4,0,8,,,,,7,,,61,45
39552,note_on,,,,,4,0,1,,,,,0,,,76,75
39552,note_on,,,,,4,0,7,,,,,6,,,49,60
39552,note_on,,,,,4,0,2,,,,,1,,,69,75
39552,note_on,,,,,4,0,3,,,,,2,,,76,108
39552,note_on,,,,,4,0,5,,,,,4,,,69,75
39552,note_on,,,,,4,0,4,,,,,3,,,69,108
39644,note_off,,,,,92,0,3,,,,,2,,,76,0
39644,note_off,,,,,92,0,1,,,,,0,,,76,0
39644,note_off,,,,,92,0,4,,,,,3,,,69,0
39644,note_off,,,,,92,0,2,,,,,1,,,69,0
39648,note_on,,,,,4,0,4,,,,,3,,,69,108
39648,note_on,,,,,4,0,1,,,,,0,,,76,75
39648,note_on,,,,,4,0,2,,,,,1,,,69,75
39648,note_on,,,,,4,0,3,,,,,2,,,76,108
39740,note_off,,,,,92,0,1,,,,,0,,,76,0
39740,note_off,,,,,188,0,5,,,,,4,,,69,0
39740,note_off,,,,,92,0,2,,,,,1,,,69,0
39740,note_off,,,,,188,0,7,,,,,6,,,49,0
39740,note_off,,,,,188,0,8,,,,,7,,,61,0
39740,note_off,,,,,92,0,4,,,,,3,,,69,0
39740,note_off,,,,,188,0,6,,,,,5,,,61,0
39740,note_off,,,,,92,0,3,,,,,2,,,76,0
39744,note_on,,,,,4,0,5,,,,,4,,,69,75
39744,note_on,,,,,4,0,1,,,,,0,,,67,75
39744,note_on,,,,,4,0,7,,,,,6,,,49,60
39744,note_on,,,,,4,0,4,,,,,3,,,64,108
39744,note_on,,,,,4,0,6,,,,,5,,,61,75
39744,note_on,,,,,4,0,8,,,,,7,,,61,45
39744,note_on,,,,,4,0,3,,,,,2,,,67,108
39744,note_on,,,,,4,0,2,,,,,1,,,64,75
39836,note_off,,,,,92,0,4,,,,,3,,,64,0
39836,note_off,,,,,92,0,3,,,,,2,,,67,0
39836,note_off,,,,,92,0,1,,,,,0,,,67,0
39836,note_off,,,,,92,0,2,,,,,1,,,64,0
39840,note_on,,,,,4,0,2,,,,,1,,,64,75
39840,note_on,,,,,4,0,1,,,,,0,,,67,75
39840,note_on,,,,,4,0,4,,,,,3,,,64,108
39840,note_on,,,,,4,0,3,,,,,2,,,67,108
39932,note_off,,,,,92,0,3,,,,,2,,,67,0
39932,note_off,,,,,92,0,2,,,,,1,,,64,0
39932,note_off,,,,,188,0,5,,,,,4,,,69,0
39932,note_off,,,,,92,0,1,,,,,0,,,67,0
39932,note_off,,,,,92,0,4,,,,,3,,,64,0
39932,note_off,,,,,188,0,7,,,,,6,,,49,0
39932,note_off,,,,,188,0,8,,,,,7,,,61,0
39932,note_off,,,,,188,0,6,,,,,5,,,61,0
39936,note_on,,,,,4,0,2,,,,,1,,,81,75
39936,note_on,,,,,4,0,1,,,,,0,,,66,75
39936,note_on,,,,,4,0,3,,,,,2,,,66,108
39936,note_on,,,,,4,0,4,,,,,3,,,81,108
39936,note_on,,,,,4,0,7,,,,,6,,,50,60
39936,note_on,,,,,4,0,5,,,,,4,,,69,75
39936,note_on,,,,,4,0,8,,,,,7,,,62,45
39936,note_on,,,,,4,0,6,,,,,5,,,62,75
40028,note_off,,,,,92,0,2,,,,,1,,,81,0
40028,note_off,,,,,92,0,1,,,,,0,,,66,0
40028,note_off,,,,,92,0,3,,,,,2,,,66,0
40028,note_off,,,,,92,0,4,,,,,3,,,81,0
40032,note_on,,,,,4,0,1,,,,,0,,,66,75
40032,note_on,,,,,4,0,4,,,,,3,,,81,108
40032,note_on,,,,,4,0,3,,,,,2,,,66,108
40032,note_on,,,,,4,0,2,,,,,1,,,81,75
40124,note_off,,,,,92,0,2,,,,,1,,,81,0
40124,note_off,,,,,188,0,7,,,,,6,,,50,0
40124,note_off,,,,,188,0,5,,,,,4,,,69,0
40124,note_off,,,,,92,0,3,,,,,2,,,66,0
40124,note_off,,,,,188,0,8,,,,,7,,,62,0
40124,note_off,,,,,92,0,4,,,,,3,,,81,0
40124,note_off,,,,,92,0,1,,,,,0,,,66,0
40124,note_off,,,,,188,0,6,,,,,5,,,62,0
40128,note_on,,,,,4,0,2,,,,,1,,,78,75
40128,note_on,,,,,4,0,4,,,,,3,,,78,108
40128,note_on,,,,,4,0,3,,,,,2,,,74,108
40128,note_on,,,,,4,0,7,,,,,6,,,50,60
40128,note_on,,,,,4,0,6,,,,,5,,,62,75
40128,note_on,,,,,4,0,1,,,,,0,,,74,75
40128,note_on,,,,,4,0,5,,,,,4,,,69,75
40128,note_on,,,,,4,0,8,,,,,7,,,62,45
40220,note_off,,,,,92,0,4,,,,,3,,,78,0
40220,note_off,,,,,92,0,3,,,,,2,,,74,0
40220,note_off,,,,,92,0,2,,,,,1,,,78,0
40220,note_off,,,,,92,0,1,,,,,0,,,74,0
40224,note_on,,,,,4,0,1,,,,,0,,,74,75
40224,note_on,,,,,4,0,4,,,,,3,,,78,108
40224,note_on,,,,,4,0,3,,,,,2,,,74,108
40224,note_on,,,,,4,0,2,,,,,1,,,78,75
40316,note_off,,,,,92,0,1,,,,,0,,,74,0
40316,note_off,,,,,92,0,3,,,,,2,,,74,0
40316,note_off,,,,,92,0,4,,,,,3,,,78,0
40316,note_off,,,,,188,0,5,,,,,4,,,69,0
40316,note_off,,,,,188,0,7,,,,,6,,,50,0
40316,note_off,,,,,188,0,8,,,,,7,,,62,0
40316,note_off,,,,,188,0,6,,,,,5,,,62,0
40316,note_off,,,,,92,0,2,,,,,1,,,78,0
40320,note_on,,,,,4,0,1,,,,,0,,,78,75
40320,note_on,,,,,4,0,7,,,,,6,,,47,60
40320,note_on,,,,,4,0,6,,,,,5,,,59,75
40320,note_on,,,,,4,0,4,,,,,3,,,74,108
40320,note_on,,,,,4,0,3,,,,,2,,,78,108
40320,note_on,,,,,4,0,2,,,,,1,,,74,75
40320,note_on,,,,,4,0,5,,,,,4,,,71,75
40320,note_on,,,,,4,0,8,,,,,7,,,59,45
40412,note_off,,,,,92,0,4,,,,,3,,,74,0
40412,note_off,,,,,92,0,1,,,,,0,,,78,0
40412,note_off,,,,,92,0,2,,,,,1,,,74,0
40412,note_off,,,,,92,0,3,,,,,2,,,78,0
40416,note_on,,,,,4,0,1,,,,,0,,,78,75
40416,note_on,,,,,4,0,4,,,,,3,,,74,108
40416,note_on,,,,,4,0,2,,,,,1,,,74,75
40416,note_on,,,,,4,0,3,,,,,2,,,78,108
40508,note_off,,,,,92,0,2,,,,,1,,,74,0
40508,note_off,,,,,188,0,7,,,,,6,,,47,0
40508,note_off,,,,,188,0,8,,,,,7,,,59,0
40508,note_off,,,,,92,0,4,,,,,3,,,74,0
40508,note_off,,,,,92,0,3,,,,,2,,,78,0
40508,note_off,,,,,92,0,1,,,,,0,,,78,0
40508,note_off,,,,,188,0,6,,,,,5,,,59,0
40508,note_off,,,,,188,0,5,,,,,4,,,71,0
40512,note_on,,,,,4,0,6,,,,,5,,,59,75
40512,note_on,,,,,4,0,8,,,,,7,,,59,45
40512,note_on,,,,,4,0,5,,,,,4,,,71,75
40512,note_on,,,,,4,0,1,,,,,0,,,86,75
40512,note_on,,,,,4,0,2,,,,,1,,,71,75
40512,note_on,,,,,4,0,7,,,,,6,,,47,60
40512,note_on,,,,,4,0,3,,,,,2,,,86,108
40512,note_on,,,,,4,0,4,,,,,3,,,71,108
40604,note_off,,,,,92,0,2,,,,,1,,,71,0
40604,note_off,,,,,92,0,3,,,,,2,,,86,0
40604,note_off,,,,,92,0,4,,,,,3,,,71,0
40604,note_off,,,,,92,0,1,,,,,0,,,86,0
40608,note_on,,,,,4,0,1,,,,,0,,,86,75
40608,note_on,,,,,4,0,2,,,,,1,,,71,75
40608,note_on,,,,,4,0,4,,,,,3,,,71,108
40608,note_on,,,,,4,0,3,,,,,2,,,86,108
40700,note_off,,,,,92,0,1,,,,,0,,,86,0
40700,note_off,,,,,188,0,8,,,,,7,,,59,0
40700,note_off,,,,,188,0,5,,,,,4,,,71,0
40700,note_off,,,,,92,0,2,,,,,1,,,71,0
40700,note_off,,,,,188,0,6,,,,,5,,,59,0
40700,note_off,,,,,92,0,4,,,,,3,,,71,0
40700,note_off,,,,,188,0,7,,,,,6,,,47,0
40700,note_off,,,,,92,0,3,,,,,2,,,86,0
40704,note_on,,,,,4,0,3,,,,,2,,,76,108
40704,note_on,,,,,4,0,7,,,,,6,,,52,60
40704,note_on,,,,,4,0,4,,,,,3,,,68,108
40704,note_on,,,,,4,0,1,,,,,0,,,76,75
40704,note_on,,,,,4,0,6,,,,,5,,,64,75
40704,note_on,,,,,4,0,2,,,,,1,,,68,75
40704,note_on,,,,,4,0,8,,,,,7,,,64,45
40704,note_on,,,,,4,0,5,,,,,4,,,71,75
40796,note_off,,,,,92,0,2,,,,,1,,,68,0
40796,note_off,,,,,92,0,4,,,,,3,,,68,0
40796,note_off,,,,,92,0,3,,,,,2,,,76,0
40796,note_off,,,,,92,0,1,,,,,0,,,76,0
40800,note_on,,,,,4,0,3,,,,,2,,,76,108
40800,note_on,,,,,4,0,4,,,,,3,,,68,108
40800,note_on,,,,,4,0,1,,,,,0,,,76,75
40800,note_on,,,,,4,0,2,,,,,1,,,68,75
40892,note_off,,,,,92,0,2,,,,,1,,,68,0
40892,note_off,,,,,92,0,4,,,,,3,,,68,0
40892,note_off,,,,,188,0,8,,,,,7,,,64,0
40892,note_off,,,,,188,0,5,,,,,4,,,71,0
40892,note_off,,,,,188,0,6,,,,,5,,,64,0
40892,note_off,,,,,188,0,7,,,,,6,,,52,0
40892,note_off,,,,,92,0,3,,,,,2,,,76,0
40892,note_off,,,,,92,0,1,,,,,0,,,76,0
40896,note_on,,,,,4,0,7,,,,,6,,,52,60
40896,note_on,,,,,4,0,3,,,,,2,,,86,108
40896,note_on,,,,,4,0,1,,,,,0,,,86,75
40896,note_on,,,,,4,0,4,,,,,3,,,68,108
40896,note_on,,,,,4,0,5,,,,,4,,,71,75
40896,note_on,,,,,4,0,8,,,,,7,,,64,45
40896,note_on,,,,,4,0,6,,,,,5,,,64,75
40896,note_on,,,,,4,0,2,,,,,1,,,68,75
40988,note_off,,,,,92,0,4,,,,,3,,,68,0
40988,note_off,,,,,92,0,3,,,,,2,,,86,0
40988,note_off,,,,,92,0,2,,,,,1,,,68,0
40988,note_off,,,,,92,0,1,,,,,0,,,86,0
40992,note_on,,,,,4,0,1,,,,,0,,,86,75
40992,note_on,,,,,4,0,3,,,,,2,,,86,108
40992,note_on,,,,,4,0,4,,,,,3,,,68,108
40992,note_on,,,,,4,0,2,,,,,1,,,68,75
41084,note_off,,,,,188,0,8,,,,,7,,,64,0
41084,note_off,,,,,188,0,7,,,,,6,,,52,0
41084,note_off,,,,,92,0,4,,,,,3,,,68,0
41084,note_off,,,,,92,0,2,,,,,1,,,68,0
41084,note_off,,,,,92,0,1,,,,,0,,,86,0
41084,note_off,,,,,188,0,5,,,,,4,,,71,0
41084,note_off,,,,,92,0,3,,,,,2,,,86,0
41084,note_off,,,,,188,0,6,,,,,5,,,64,0
41088,note_on,,,,,4,0,2,,,,,1,,,76,75
41088,note_on,,,,,4,0,5,,,,,4,,,69,75
41088,note_on,,,,,4,0,4,,,,,3,,,76,108
41088,note_on,,,,,4,0,3,,,,,2,,,85,108
41088,note_on,,,,,4,0,8,,,,,7,,,52,45
41088,note_on,,,,,4,0,6,,,,,5,,,52,75
41088,note_on,,,,,4,0,7,,,,,6,,,40,60
41088,note_on,,,,,4,0,1,,,,,0,,,85,75
41180,note_off,,,,,92,0,4,,,,,3,,,76,0
41180,note_off,,,,,92,0,1,,,,,0,,,85,0
41180,note_off,,,,,92,0,2,,,,,1,,,76,0
41180,note_off,,,,,92,0,3,,,,,2,,,85,0
41184,note_on,,,,,4,0,1,,,,,0,,,85,75
41184,note_on,,,,,4,0,3,,,,,2,,,85,108
41184,note_on,,,,,4,0,2,,,,,1,,,76,75
41184,note_on,,,,,4,0,4,,,,,3,,,76,108
41276,note_off,,,,,92,0,1,,,,,0,,,85,0
41276,note_off,,,,,188,0,5,,,,,4,,,69,0
41276,note_off,,,,,92,0,2,,,,,1,,,76,0
41276,note_off,,,,,92,0,4,,,,,3,,,76,0
41276,note_off,,,,,188,0,8,,,,,7,,,52,0
41276,note_off,,,,,188,0,6,,,,,5,,,52,0
41276,note_off,,,,,92,0,3,,,,,2,,,85,0
41276,note_off,,,,,188,0,7,,,,,6,,,40,0
41280,note_on,,,,,4,0,3,,,,,2,,,83,108
41280,note_on,,,,,4,0,7,,,,,6,,,52,60
41280,note_on,,,,,4,0,1,,,,,0,,,83,75
41280,note_on,,,,,4,0,5,,,,,4,,,68,75
41280,note_on,,,,,4,0,6,,,,,5,,,64,75
41280,note_on,,,,,4,0,8,,,,,7,,,64,45
41280,note_on,,,,,4,0,4,,,,,3,,,76,108
41280,note_on,,,,,4,0,2,,,,,1,,,76,75
41372,note_off,,,,,92,0,1,,,,,0,,,83,0
41372,note_off,,,,,92,0,4,,,,,3,,,76,0
41372,note_off,,,,,92,0,3,,,,,2,,,83,0
41372,note_off,,,,,92,0,2,,,,,1,,,76,0
41376,note_on,,,,,4,0,4,,,,,3,,,76,108
41376,note_on,,,,,4,0,3,,,,,2,,,83,108
41376,note_on,,,,,4,0,1,,,,,0,,,83,75
41376,note_on,,,,,4,0,2,,,,,1,,,76,75
41468,note_off,,,,,188,0,7,,,,,6,,,52,0
41468,note_off,,,,,92,0,2,,,,,1,,,76,0
41468,note_off,,,,,92,0,4,,,,,3,,,76,0
41468,note_off,,,,,188,0,5,,,,,4,,,68,0
41468,note_off,,,,,188,0,8,,,,,7,,,64,0
41468,note_off,,,,,92,0,1,,,,,0,,,83,0
41468,note_off,,,,,92,0,3,,,,,2,,,83,0
41468,note_off,,,,,188,0,6,,,,,5,,,64,0
41472,note_on,,,,,4,0,4,,,,,3,,,81,108
41472,note_on,,,,,4,0,5,,,,,4,,,74,75
41472,note_on,,,,,4,0,2,,,,,1,,,81,75
41472,note_on,,,,,4,0,3,,,,,2,,,81,108
41472,note_on,,,,,4,0,7,,,,,6,,,54,60
41472,note_on,,,,,4,0,1,,,,,0,,,81,75
41472,note_on,,,,,4,0,6,,,,,5,,,66,75
41472,note_on,,,,,4,0,8,,,,,7,,,66,45
41660,note_off,,,,,188,0,5,,,,,4,,,74,0
41660,note_off,,,,,188,0,2,,,,,1,,,81,0
41660,note_off,,,,,188,0,6,,,,,5,,,66,0
41660,note_off,,,,,188,0,3,,,,,2,,,81,0
41660,note_off,,,,,188,0,8,,,,,7,,,66,0
41660,note_off,,,,,188,0,4,,,,,3,,,81,0
41660,note_off,,,,,188,0,7,,,,,6,,,54,0
41660,note_off,,,,,188,0,1,,,,,0,,,81,0
41664,note_on,,,,,4,0,8,,,,,7,,,62,45
41664,note_on,,,,,4,0,2,,,,,1,,,81,75
41664,note_on,,,,,4,0,7,,,,,6,,,50,60
41664,note_on,,,,,4,0,1,,,,,0,,,86,75
41664,note_on,,,,,4,0,3,,,,,2,,,86,108
41664,note_on,,,,,4,0,5,,,,,4,,,66,75
41664,note_on,,,,,4,0,6,,,,,5,,,62,75
41664,note_on,,,,,4,0,4,,,,,3,,,81,108
41852,note_off,,,,,188,0,2,,,,,1,,,81,0
41852,note_off,,,,,188,0,3,,,,,2,,,86,0
41852,note_off,,,,,188,0,8,,,,,7,,,62,0
41852,note_off,,,,,188,0,5,,,,,4,,,66,0
41852,note_off,,,,,188,0,7,,,,,6,,,50,0
41852,note_off,,,,,188,0,6,,,,,5,,,62,0
41852,note_off,,,,,188,0,1,,,,,0,,,86,0
41852,note_off,,,,,188,0,4,,,,,3,,,81,0
41856,note_on,,,,,4,0,5,,,,,4,,,64,75
41856,note_on,,,,,4,0,3,,,,,2,,,85,108
41856,note_on,,,,,4,0,7,,,,,6,,,52,60
41856,note_on,,,,,4,0,2,,,,,1,,,81,75
41856,note_on,,,,,4,0,1,,,,,0,,,85,75
41856,note_on,,,,,4,0,6,,,,,5,,,64,75
41856,note_on,,,,,4,0,8,,,,,7,,,64,45
41856,note_on,,,,,4,0,4,,,,,3,,,81,108
42044,note_off,,,,,188,0,5,,,,,4,,,64,0
42044,note_off,,,,,188,0,4,,,,,3,,,81,0
42044,note_off,,,,,188,0,7,,,,,6,,,52,0
42044,note_off,,,,,188,0,8,,,,,7,,,64,0
42044,note_off,,,,,188,0,2,,,,,1,,,81,0
42044,note_off,,,,,188,0,6,,,,,5,,,64,0
42044,note_off,,,,,188,0,1,,,,,0,,,85,0
42044,note_off,,,,,188,0,3,,,,,2,,,85,0
42048,note_on,,,,,4,0,8,,,,,7,,,52,45
42048,note_on,,,,,4,0,2,,,,,1,,,80,75
42048,note_on,,,,,4,0,4,,,,,3,,,80,108
42048,note_on,,,,,4,0,3,,,,,2,,,83,108
42048,note_on,,,,,4,0,5,,,,,4,,,74,75
42048,note_on,,,,,4,0,6,,,,,5,,,52,75
42048,note_on,,,,,4,0,1,,,,,0,,,83,75
42048,note_on,,,,,4,0,7,,,,,6,,,40,60
42236,note_off,,,,,188,0,2,,,,,1,,,80,0
42236,note_off,,,,,188,0,3,,,,,2,,,83,0
42236,note_off,,,,,188,0,6,,,,,5,,,52,0
42236,note_off,,,,,188,0,7,,,,,6,,,40,0
42236,note_off,,,,,188,0,4,,,,,3,,,80,0
42236,note_off,,,,,188,0,8,,,,,7,,,52,0
42236,note_off,,,,,188,0,5,,,,,4,,,74,0
42236,note_off,,,,,188,0,1,,,,,0,,,83,0
42240,note_on,,,,,4,0,4,,,,,3,,,81,108
42240,note_on,,,,,4,0,6,,,,,5,,,57,75
42240,note_on,,,,,4,0,7,,,,,6,,,45,60
42240,note_on,,,,,4,0,3,,,,,2,,,81,108
42240,note_on,,,,,4,0,5,,,,,4,,,73,75
42240,note_on,,,,,4,0,8,,,,,7,,,57,45
42240,note_on,,,,,4,0,2,,,,,1,,,81,75
42240,note_on,,,,,4,0,1,,,,,0,,,81,75
42332,note_off,,,,,92,0,3,,,,,2,,,81,0
42332,note_off,,,,,92,0,1,,,,,0,,,81,0
42332,note_off,,,,,92,0,2,,,,,1,,,81,0
42332,note_off,,,,,92,0,4,,,,,3,,,81,0
42336,note_on,,,,,4,0,3,,,,,2,,,81,108
42336,note_on,,,,,4,0,2,,,,,1,,,81,75
42336,note_on,,,,,4,0,1,,,,,0,,,81,75
42336,note_on,,,,,4,0,4,,,,,3,,,81,108
42428,note_off,,,,,92,0,2,,,,,1,,,81,0
42428,note_off,,,,,188,0,7,,,,,6,,,45,0
42428,note_off,,,,,92,0,3,,,,,2,,,81,0
42428,note_off,,,,,92,0,4,,,,,3,,,81,0
42428,note_off,,,,,188,0,5,,,,,4,,,73,0
42428,note_off,,,,,92,0,1,,,,,0,,,81,0
42428,note_off,,,,,188,0,8,,,,,7,,,57,0
42428,note_off,,,,,188,0,6,,,,,5,,,57,0
42432,note_on,,,,,4,0,3,,,,,2,,,81,108
42432,note_on,,,,,4,0,8,,,,,7,,,45,45
42432,note_on,,,,,4,0,5,,,,,4,,,61,75
42432,note_on,,,,,4,0,7,,,,,6,,,33,60
42432,note_on,,,,,4,0,6,,,,,5,,,45,75
42432,note_on,,,,,4,0,2,,,,,1,,,79,75
42432,note_on,,,,,4,0,4,,,,,3,,,79,108
42432,note_on,,,,,4,0,1,,,,,0,,,81,75
42524,note_off,,,,,92,0,3,,,,,2,,,81,0
42524,note_off,,,,,92,0,1,,,,,0,,,81,0
42524,note_off,,,,,92,0,4,,,,,3,,,79,0
42524,note_off,,,,,92,0,2,,,,,1,,,79,0
42528,note_on,,,,,4,0,4,,,,,3,,,79,108
42528,note_on,,,,,4,0,3,,,,,2,,,81,108
42528,note_on,,,,,4,0,1,,,,,0,,,81,75
42528,note_on,,,,,4,0,2,,,,,1,,,79,75
42620,note_off,,,,,188,0,5,,,,,4,,,61,0
42620,note_off,,,,,92,0,3,,,,,2,,,81,0
42620,note_off,,,,,188,0,7,,,,,6,,,33,0
42620,note_off,,,,,188,0,8,,,,,7,,,45,0
42620,note_off,,,,,92,0,2,,,,,1,,,79,0
42620,note_off,,,,,92,0,1,,,,,0,,,81,0
42620,note_off,,,,,92,0,4,,,,,3,,,79,0
42620,note_off,,,,,188,0,6,,,,,5,,,45,0
42624,note_on,,,,,4,0,3,,,,,2,,,69,108
42624,note_on,,,,,4,0,5,,,,,4,,,62,75
42624,note_on,,,,,4,0,1,,,,,0,,,69,75
42624,note_on,,,,,4,0,6,,,,,5,,,47,75
42624,note_on,,,,,4,0,8,,,,,7,,,47,45
42624,note_on,,,,,4,0,2,,,,,1,,,78,75
42624,note_on,,,,,4,0,7,,,,,6,,,35,60
42624,note_on,,,,,4,0,4,,,,,3,,,78,108
42716,note_off,,,,,92,0,1,,,,,0,,,69,0
42716,note_off,,,,,92,0,2,,,,,1,,,78,0
42716,note_off,,,,,92,0,4,,,,,3,,,78,0
42716,note_off,,,,,92,0,3,,,,,2,,,69,0
42720,note_on,,,,,4,0,2,,,,,1,,,78,75
42720,note_on,,,,,4,0,4,,,,,3,,,78,108
42720,note_on,,,,,4,0,1,,,,,0,,,69,75
42720,note_on,,,,,4,0,3,,,,,2,,,69,108
42812,note_off,,,,,188,0,8,,,,,7,,,47,0
42812,note_off,,,,,92,0,2,,,,,1,,,78,0
42812,note_off,,,,,92,0,4,,,,,3,,,78,0
42812,note_off,,,,,92,0,3,,,,,2,,,69,0
42812,note_off,,,,,188,0,7,,,,,6,,,35,0
42812,note_off,,,,,188,0,5,,,,,4,,,62,0
42812,note_off,,,,,188,0,6,,,,,5,,,47,0
42812,note_off,,,,,92,0,1,,,,,0,,,69,0
42816,note_on,,,,,4,0,4,,,,,3,,,76,108
42816,note_on,,,,,4,0,7,,,,,6,,,37,60
42816,note_on,,,,,4,0,5,,,,,4,,,64,75
42816,note_on,,,,,4,0,2,,,,,1,,,76,75
42816,note_on,,,,,4,0,1,,,,,0,,,69,75
42816,note_on,,,,,4,0,6,,,,,5,,,49,75
42816,note_on,,,,,4,0,8,,,,,7,,,49,45
42816,note_on,,,,,4,0,3,,,,,2,,,69,108
42908,note_off,,,,,92,0,1,,,,,0,,,69,0
42908,note_off,,,,,92,0,2,,,,,1,,,76,0
42908,note_off,,,,,92,0,3,,,,,2,,,69,0
42908,note_off,,,,,92,0,4,,,,,3,,,76,0
42912,note_on,,,,,4,0,3,,,,,2,,,69,108
42912,note_on,,,,,4,0,4,,,,,3,,,76,108
42912,note_on,,,,,4,0,1,,,,,0,,,69,75
42912,note_on,,,,,4,0,2,,,,,1,,,76,75
43004,note_off,,,,,92,0,2,,,,,1,,,76,0
43004,note_off,,,,,92,0,4,,,,,3,,,76,0
43004,note_off,,,,,92,0,3,,,,,2,,,69,0
43004,note_off,,,,,92,0,1,,,,,0,,,69,0
43004,note_off,,,,,188,0,6,,,,,5,,,49,0
43004,note_off,,,,,188,0,5,,,,,4,,,64,0
43004,note_off,,,,,188,0,8,,,,,7,,,49,0
43004,note_off,,,,,188,0,7,,,,,6,,,37,0
43008,note_on,,,,,4,0,8,,,,,7,,,50,45
43008,note_on,,,,,4,0,2,,,,,1,,,74,75
43008,note_on,,,,,4,0,3,,,,,2,,,66,108
43008,note_on,,,,,4,0,1,,,,,0,,,66,75
43008,note_on,,,,,4,0,6,,,,,5,,,50,75
43008,note_on,,,,,4,0,4,,,,,3,,,74,108
43008,note_on,,,,,4,0,7,,,,,6,,,38,60
43008,note_on,,,,,4,0,5,,,,,4,,,57,75
43100,note_off,,,,,92,0,1,,,,,0,,,66,0
43100,note_off,,,,,92,0,2,,,,,1,,,74,0
43100,note_off,,,,,92,0,3,,,,,2,,,66,0
43100,note_off,,,,,92,0,4,,,,,3,,,74,0
43104,note_on,,,,,4,0,1,,,,,0,,,66,75
43104,note_on,,,,,4,0,3,,,,,2,,,66,108
43104,note_on,,,,,4,0,4,,,,,3,,,74,108
43104,note_on,,,,,4,0,2,,,,,1,,,74,75
43196,note_off,,,,,92,0,2,,,,,1,,,74,0
43196,note_off,,,,,188,0,6,,,,,5,,,50,0
43196,note_off,,,,,92,0,3,,,,,2,,,66,0
43196,note_off,,,,,92,0,1,,,,,0,,,66,0
43196,note_off,,,,,188,0,8,,,,,7,,,50,0
43196,note_off,,,,,188,0,5,,,,,4,,,57,0
43196,note_off,,,,,188,0,7,,,,,6,,,38,0
43196,note_off,,,,,92,0,4,,,,,3,,,74,0
43200,note_on,,,,,4,0,8,,,,,7,,,50,45
43200,note_on,,,,,4,0,5,,,,,4,,,66,75
43200,note_on,,,,,4,0,3,,,,,2,,,69,108
43200,note_on,,,,,4,0,1,,,,,0,,,69,75
43200,note_on,,,,,4,0,4,,,,,3,,,74,108
43200,note_on,,,,,4,0,6,,,,,5,,,50,75
43200,note_on,,,,,4,0,2,,,,,1,,,74,75
43200,note_on,,,,,4,0,7,,,,,6,,,38,60
43292,note_off,,,,,92,0,4,,,,,3,,,74,0
43292,note_off,,,,,92,0,2,,,,,1,,,74,0
43292,note_off,,,,,92,0,1,,,,,0,,,69,0
43292,note_off,,,,,92,0,3,,,,,2,,,69,0
43296,note_on,,,,,4,0,1,,,,,0,,,69,75
43296,note_on,,,,,4,0,3,,,,,2,,,69,108
43296,note_on,,,,,4,0,4,,,,,3,,,74,108
43296,note_on,,,,,4,0,2,,,,,1,,,74,75
43388,note_off,,,,,188,0,8,,,,,7,,,50,0
43388,note_off,,,,,188,0,5,,,,,4,,,66,0
43388,note_off,,,,,92,0,4,,,,,3,,,74,0
43388,note_off,,,,,92,0,3,,,,,2,,,69,0
43388,note_off,,,,,188,0,7,,,,,6,,,38,0
43388,note_off,,,,,188,0,6,,,,,5,,,50,0
43388,note_off,,,,,92,0,2,,,,,1,,,74,0
43388,note_off,,,,,92,0,1,,,,,0,,,69,0
43392,note_on,,,,,4,0,8,,,,,7,,,54,45
43392,note_on,,,,,4,0,6,,,,,5,,,54,75
43392,note_on,,,,,4,0,4,,,,,3,,,69,108
43392,note_on,,,,,4,0,7,,,,,6,,,42,60
43392,note_on,,,,,4,0,2,,,,,1,,,69,75
43392,note_on,,,,,4,0,5,,,,,4,,,69,75
43392,note_on,,,,,4,0,1,,,,,0,,,74,75
43392,note_on,,,,,4,0,3,,,,,2,,,74,108
43484,note_off,,,,,92,0,3,,,,,2,,,74,0
43484,note_off,,,,,92,0,1,,,,,0,,,74,0
43484,note_off,,,,,92,0,2,,,,,1,,,69,0
43484,note_off,,,,,92,0,4,,,,,3,,,69,0
43488,note_on,,,,,4,0,2,,,,,1,,,69,75
43488,note_on,,,,,4,0,3,,,,,2,,,74,108
43488,note_on,,,,,4,0,4,,,,,3,,,69,108
43488,note_on,,,,,4,0,1,,,,,0,,,74,75
43580,note_off,,,,,188,0,8,,,,,7,,,54,0
43580,note_off,,,,,92,0,3,,,,,2,,,74,0
43580,note_off,,,,,188,0,5,,,,,4,,,69,0
43580,note_off,,,,,92,0,2,,,,,1,,,69,0
43580,note_off,,,,,92,0,1,,,,,0,,,74,0
43580,note_off,,,,,188,0,7,,,,,6,,,42,0
43580,note_off,,,,,188,0,6,,,,,5,,,54,0
43580,note_off,,,,,92,0,4,,,,,3,,,69,0
43584,note_on,,,,,4,0,4,,,,,3,,,69,108
43584,note_on,,,,,4,0,3,,,,,2,,,78,108
43584,note_on,,,,,4,0,8,,,,,7,,,50,45
43584,note_on,,,,,4,0,2,,,,,1,,,69,75
43584,note_on,,,,,4,0,1,,,,,0,,,78,75
43584,note_on,,,,,4,0,6,,,,,5,,,50,75
43584,note_on,,,,,4,0,5,,,,,4,,,74,75
43584,note_on,,,,,4,0,7,,,,,6,,,38,60
43676,note_off,,,,,92,0,3,,,,,2,,,78,0
43676,note_off,,,,,92,0,2,,,,,1,,,69,0
43676,note_off,,,,,92,0,1,,,,,0,,,78,0
43676,note_off,,,,,92,0,4,,,,,3,,,69,0
43680,note_on,,,,,4,0,1,,,,,0,,,78,75
43680,note_on,,,,,4,0,3,,,,,2,,,78,108
43680,note_on,,,,,4,0,2,,,,,1,,,69,75
43680,note_on,,,,,4,0,4,,,,,3,,,69,108
43772,note_off,,,,,188,0,5,,,,,4,,,74,0
43772,note_off,,,,,92,0,1,,,,,0,,,78,0
43772,note_off,,,,,92,0,4,,,,,3,,,69,0
43772,note_off,,,,,188,0,8,,,,,7,,,50,0
43772,note_off,,,,,188,0,6,,,,,5,,,50,0
43772,note_off,,,,,92,0,2,,,,,1,,,69,0
43772,note_off,,,,,92,0,3,,,,,2,,,78,0
43772,note_off,,,,,188,0,7,,,,,6,,,38,0
43776,note_on,,,,,4,0,1,,,,,0,,,71,75
43776,note_on,,,,,4,0,4,,,,,3,,,67,108
43776,note_on,,,,,4,0,6,,,,,5,,,55,75
43776,note_on,,,,,4,0,8,,,,,7,,,55,45
43776,note_on,,,,,4,0,5,,,,,4,,,62,75
43776,note_on,,,,,4,0,2,,,,,1,,,67,75
43776,note_on,,,,,4,0,7,,,,,6,,,43,60
43776,note_on,,,,,4,0,3,,,,,2,,,71,108
43868,note_off,,,,,92,0,4,,,,,3,,,67,0
43868,note_off,,,,,92,0,1,,,,,0,,,71,0
43868,note_off,,,,,92,0,2,,,,,1,,,67,0
43868,note_off,,,,,92,0,3,,,,,2,,,71,0
43872,note_on,,,,,4,0,4,,,,,3,,,67,108
43872,note_on,,,,,4,0,1,,,,,0,,,71,75
43872,note_on,,,,,4,0,3,,,,,2,,,71,108
43872,note_on,,,,,4,0,2,,,,,1,,,67,75
43964,note_off,,,,,188,0,8,,,,,7,,,55,0
43964,note_off,,,,,188,0,6,,,,,5,,,55,0
43964,note_off,,,,,92,0,4,,,,,3,,,67,0
43964,note_off,,,,,188,0,7,,,,,6,,,43,0
43964,note_off,,,,,188,0,5,,,,,4,,,62,0
43964,note_off,,,,,92,0,3,,,,,2,,,71,0
43964,note_off,,,,,92,0,1,,,,,0,,,71,0
43964,note_off,,,,,92,0,2,,,,,1,,,67,0
43968,note_on,,,,,4,0,7,,,,,6,,,43,60
43968,note_on,,,,,4,0,5,,,,,4,,,67,75
43968,note_on,,,,,4,0,3,,,,,2,,,76,108
43968,note_on,,,,,4,0,1,,,,,0,,,76,75
43968,note_on,,,,,4,0,4,,,,,3,,,71,108
43968,note_on,,,,,4,0,8,,,,,7,,,55,45
43968,note_on,,,,,4,0,6,,,,,5,,,55,75
43968,note_on,,,,,4,0,2,,,,,1,,,71,75
44060,note_off,,,,,92,0,1,,,,,0,,,76,0
44060,note_off,,,,,92,0,2,,,,,1,,,71,0
44060,note_off,,,,,92,0,3,,,,,2,,,76,0
44060,note_off,,,,,92,0,4,,,,,3,,,71,0
44064,note_on,,,,,4,0,2,,,,,1,,,71,75
44064,note_on,,,,,4,0,3,,,,,2,,,76,108
44064,note_on,,,,,4,0,1,,,,,0,,,76,75
44064,note_on,,,,,4,0,4,,,,,3,,,71,108
44156,note_off,,,,,188,0,6,,,,,5,,,55,0
44156,note_off,,,,,188,0,8,,,,,7,,,55,0
44156,note_off,,,,,188,0,5,,,,,4,,,67,0
44156,note_off,,,,,188,0,7,,,,,6,,,43,0
44156,note_off,,,,,92,0,2,,,,,1,,,71,0
44156,note_off,,,,,92,0,4,,,,,3,,,71,0
44156,note_off,,,,,92,0,3,,,,,2,,,76,0
44156,note_off,,,,,92,0,1,,,,,0,,,76,0
44160,note_on,,,,,4,0,6,,,,,5,,,52,75
44160,note_on,,,,,4,0,4,,,,,3,,,76,108
44160,note_on,,,,,4,0,7,,,,,6,,,40,60
44160,note_on,,,,,4,0,5,,,,,4,,,71,75
44160,note_on,,,,,4,0,8,,,,,7,,,52,45
44160,note_on,,,,,4,0,1,,,,,0,,,79,75
44160,note_on,,,,,4,0,2,,,,,1,,,76,75
44160,note_on,,,,,4,0,3,,,,,2,,,79,108
44252,note_off,,,,,92,0,4,,,,,3,,,76,0
44252,note_off,,,,,92,0,2,,,,,1,,,76,0
44252,note_off,,,,,92,0,1,,,,,0,,,79,0
44252,note_off,,,,,92,0,3,,,,,2,,,79,0
44256,note_on,,,,,4,0,2,,,,,1,,,76,75
44256,note_on,,,,,4,0,1,,,,,0,,,79,75
44256,note_on,,,,,4,0,3,,,,,2,,,79,108
44256,note_on,,,,,4,0,4,,,,,3,,,76,108
44348,note_off,,,,,188,0,6,,,,,5,,,52,0
44348,note_off,,,,,188,0,5,,,,,4,,,71,0
44348,note_off,,,,,188,0,8,,,,,7,,,52,0
44348,note_off,,,,,92,0,4,,,,,3,,,76,0
44348,note_off,,,,,188,0,7,,,,,6,,,40,0
44348,note_off,,,,,92,0,3,,,,,2,,,79,0
44348,note_off,,,,,92,0,1,,,,,0,,,79,0
44348,note_off,,,,,92,0,2,,,,,1,,,76,0
44352,note_on,,,,,4,0,4,,,,,3,,,71,108
44352,note_on,,,,,4,0,5,,,,,4,,,67,75
44352,note_on,,,,,4,0,8,,,,,7,,,55,45
44352,note_on,,,,,4,0,7,,,,,6,,,43,60
44352,note_on,,,,,4,0,2,,,,,1,,,71,75
44352,note_on,,,,,4,0,6,,,,,5,,,55,75
44352,note_on,,,,,4,0,3,,,,,2,,,76,108
44352,note_on,,,,,4,0,1,,,,,0,,,76,75
44444,note_off,,,,,92,0,2,,,,,1,,,71,0
44444,note_off,,,,,92,0,4,,,,,3,,,71,0
44444,note_off,,,,,92,0,3,,,,,2,,,76,0
44444,note_off,,,,,92,0,1,,,,,0,,,76,0
44448,note_on,,,,,4,0,2,,,,,1,,,71,75
44448,note_on,,,,,4,0,1,,,,,0,,,76,75
44448,note_on,,,,,4,0,3,,,,,2,,,76,108
44448,note_on,,,,,4,0,4,,,,,3,,,71,108
44540,note_off,,,,,92,0,3,,,,,2,,,76,0
44540,note_off,,,,,188,0,7,,,,,6,,,43,0
44540,note_off,,,,,188,0,5,,,,,4,,,67,0
44540,note_off,,,,,92,0,2,,,,,1,,,71,0
44540,note_off,,,,,188,0,8,,,,,7,,,55,0
44540,note_off,,,,,92,0,4,,,,,3,,,71,0
44540,note_off,,,,,92,0,1,,,,,0,,,76,0
44540,note_off,,,,,188,0,6,,,,,5,,,55,0
44544,note_on,,,,,4,0,2,,,,,1,,,69,75
44544,note_on,,,,,4,0,5,,,,,4,,,64,75
44544,note_on,,,,,4,0,8,,,,,7,,,57,45
44544,note_on,,,,,4,0,3,,,,,2,,,73,108
44544,note_on,,,,,4,0,4,,,,,3,,,69,108
44544,note_on,,,,,4,0,1,,,,,0,,,73,75
44544,note_on,,,,,4,0,7,,,,,6,,,45,60
44544,note_on,,,,,4,0,6,,,,,5,,,57,75
44636,note_off,,,,,92,0,3,,,,,2,,,73,0
44636,note_off,,,,,92,0,1,,,,,0,,,73,0
44636,note_off,,,,,92,0,4,,,,,3,,,69,0
44636,note_off,,,,,92,0,2,,,,,1,,,69,0
44640,note_on,,,,,4,0,2,,,,,1,,,69,75
44640,note_on,,,,,4,0,3,,,,,2,,,73,108
44640,note_on,,,,,4,0,1,,,,,0,,,73,75
44640,note_on,,,,,4,0,4,,,,,3,,,69,108
44732,note_off,,,,,92,0,3,,,,,2,,,73,0
44732,note_off,,,,,188,0,5,,,,,4,,,64,0
44732,note_off,,,,,188,0,7,,,,,6,,,45,0
44732,note_off,,,,,92,0,4,,,,,3,,,69,0
44732,note_off,,,,,188,0,6,,,,,5,,,57,0
44732,note_off,,,,,188,0,8,,,,,7,,,57,0
44732,note_off,,,,,92,0,1,,,,,0,,,73,0
44732,note_off,,,,,92,0,2,,,,,1,,,69,0
44736,note_on,,,,,4,0,4,,,,,3,,,64,108
44736,note_on,,,,,4,0,7,,,,,6,,,49,60
44736,note_on,,,,,4,0,6,,,,,5,,,61,75
44736,note_on,,,,,4,0,3,,,,,2,,,69,108
44736,note_on,,,,,4,0,8,,,,,7,,,61,45
44736,note_on,,,,,4,0,1,,,,,0,,,69,75
44736,note_on,,,,,4,0,5,,,,,4,,,64,75
44736,note_on,,,,,4,0,2,,,,,1,,,64,75
44828,note_off,,,,,92,0,2,,,,,1,,,64,0
44828,note_off,,,,,92,0,3,,,,,2,,,69,0
44828,note_off,,,,,92,0,4,,,,,3,,,64,0
44828,note_off,,,,,92,0,1,,,,,0,,,69,0
44832,note_on,,,,,4,0,3,,,,,2,,,69,108
44832,note_on,,,,,4,0,1,,,,,0,,,69,75
44832,note_on,,,,,4,0,4,,,,,3,,,64,108
44832,note_on,,,,,4,0,2,,,,,1,,,64,75
44924,note_off,,,,,92,0,3,,,,,2,,,69,0
44924,note_off,,,,,92,0,1,,,,,0,,,69,0
44924,note_off,,,,,92,0,2,,,,,1,,,64,0
44924,note_off,,,,,188,0,6,,,,,5,,,61,0
44924,note_off,,,,,188,0,8,,,,,7,,,61,0
44924,note_off,,,,,188,0,5,,,,,4,,,64,0
44924,note_off,,,,,92,0,4,,,,,3,,,64,0
44924,note_off,,,,,188,0,7,,,,,6,,,49,0
44928,note_on,,,,,4,0,4,,,,,3,,,69,108
44928,note_on,,,,,4,0,7,,,,,6,,,49,60
44928,note_on,,,,,4,0,8,,,,,7,,,61,45
44928,note_on,,,,,4,0,5,,,,,4,,,64,75
44928,note_on,,,,,4,0,6,,,,,5,,,61,75
44928,note_on,,,,,4,0,3,,,,,2,,,76,108
44928,note_on,,,,,4,0,1,,,,,0,,,76,75
44928,note_on,,,,,4,0,2,,,,,1,,,69,75
45020,note_off,,,,,92,0,4,,,,,3,,,69,0
45020,note_off,,,,,92,0,3,,,,,2,,,76,0
45020,note_off,,,,,92,0,2,,,,,1,,,69,0
45020,note_off,,,,,92,0,1,,,,,0,,,76,0
45024,note_on,,,,,4,0,4,,,,,3,,,69,108
45024,note_on,,,,,4,0,3,,,,,2,,,76,108
45024,note_on,,,,,4,0,1,,,,,0,,,76,75
45024,note_on,,,,,4,0,2,,,,,1,,,69,75
45116,note_off,,,,,92,0,2,,,,,1,,,69,0
45116,note_off,,,,,188,0,8,,,,,7,,,61,0
45116,note_off,,,,,92,0,1,,,,,0,,,76,0
45116,note_off,,,,,92,0,4,,,,,3,,,69,0
45116,note_off,,,,,188,0,5,,,,,4,,,64,0
45116,note_off,,,,,188,0,7,,,,,6,,,49,0
45116,note_off,,,,,188,0,6,,,,,5,,,61,0
45116,note_off,,,,,92,0,3,,,,,2,,,76,0
45120,note_on,,,,,4,0,1,,,,,0,,,67,75
45120,note_on,,,,,4,0,7,,,,,6,,,45,60
45120,note_on,,,,,4,0,6,,,,,5,,,57,75
45120,note_on,,,,,4,0,2,,,,,1,,,64,75
45120,note_on,,,,,4,0,4,,,,,3,,,64,108
45120,note_on,,,,,4,0,3,,,,,2,,,67,108
45120,note_on,,,,,4,0,8,,,,,7,,,57,45
45120,note_on,,,,,4,0,5,,,,,4,,,61,75
45212,note_off,,,,,92,0,2,,,,,1,,,64,0
45212,note_off,,,,,92,0,3,,,,,2,,,67,0
45212,note_off,,,,,92,0,4,,,,,3,,,64,0
45212,note_off,,,,,92,0,1,,,,,0,,,67,0
45216,note_on,,,,,4,0,2,,,,,1,,,64,75
45216,note_on,,,,,4,0,4,,,,,3,,,64,108
45216,note_on,,,,,4,0,3,,,,,2,,,67,108
45216,note_on,,,,,4,0,1,,,,,0,,,67,75
45308,note_off,,,,,92,0,4,,,,,3,,,64,0
45308,note_off,,,,,92,0,3,,,,,2,,,67,0
45308,note_off,,,,,92,0,1,,,,,0,,,67,0
45308,note_off,,,,,188,0,5,,,,,4,,,61,0
45308,note_off,,,,,188,0,8,,,,,7,,,57,0
45308,note_off,,,,,92,0,2,,,,,1,,,64,0
45308,note_off,,,,,188,0,7,,,,,6,,,45,0
45308,note_off,,,,,188,0,6,,,,,5,,,57,0
45312,note_on,,,,,4,0,1,,,,,0,,,66,75
45312,note_on,,,,,4,0,4,,,,,3,,,86,108
45312,note_on,,,,,4,0,8,,,,,7,,,62,45
45312,note_on,,,,,4,0,3,,,,,2,,,66,108
45312,note_on,,,,,4,0,7,,,,,6,,,50,60
45312,note_on,,,,,4,0,6,,,,,5,,,62,75
45312,note_on,,,,,4,0,5,,,,,4,,,69,75
45312,note_on,,,,,4,0,2,,,,,1,,,86,75
45404,note_off,,,,,92,0,4,,,,,3,,,86,0
45404,note_off,,,,,92,0,2,,,,,1,,,86,0
45408,note_on,,,,,4,0,2,,,,,1,,,84,75
45408,note_on,,,,,4,0,4,,,,,3,,,84,108
45500,note_off,,,,,92,0,2,,,,,1,,,84,0
45500,note_off,,,,,188,0,7,,,,,6,,,50,0
45500,note_off,,,,,188,0,8,,,,,7,,,62,0
45500,note_off,,,,,188,0,5,,,,,4,,,69,0
45500,note_off,,,,,92,0,4,,,,,3,,,84,0
45500,note_off,,,,,188,0,6,,,,,5,,,62,0
45504,note_on,,,,,4,0,7,,,,,6,,,38,60
45504,note_on,,,,,4,0,8,,,,,7,,,50,45
45504,note_on,,,,,4,0,5,,,,,4,,,66,75
45504,note_on,,,,,4,0,4,,,,,3,,,83,108
45504,note_on,,,,,4,0,2,,,,,1,,,83,75
45504,note_on,,,,,4,0,6,,,,,5,,,50,75
45596,note_off,,,,,92,0,2,,,,,1,,,83,0
45596,note_off,,,,,92,0,4,,,,,3,,,83,0
45600,note_on,,,,,4,0,4,,,,,3,,,81,108
45600,note_on,,,,,4,0,2,,,,,1,,,81,75
45632,note_off,,,,,320,0,1,,,,,0,,,66,0
45632,note_off,,,,,320,0,3,,,,,2,,,66,0
45692,note_off,,,,,92,0,4,,,,,3,,,81,0
45692,note_off,,,,,188,0,8,,,,,7,,,50,0
45692,note_off,,,,,188,0,5,,,,,4,,,66,0
45692,note_off,,,,,188,0,7,,,,,6,,,38,0
45692,note_off,,,,,92,0,2,,,,,1,,,81,0
45692,note_off,,,,,188,0,6,,,,,5,,,50,0
45696,note_on,,,,,4,0,2,,,,,1,,,79,75
45696,note_on,,,,,4,0,4,,,,,3,,,79,108
45696,note_on,,,,,4,0,5,,,,,4,,,74,75
45696,note_on,,,,,4,0,7,,,,,6,,,42,60
45696,note_on,,,,,4,0,8,,,,,7,,,54,45
45696,note_on,,,,,4,0,6,,,,,5,,,54,75
45788,note_off,,,,,92,0,4,,,,,3,,,79,0
45788,note_off,,,,,92,0,2,,,,,1,,,79,0
45792,note_on,,,,,4,0,4,,,,,3,,,78,108
45792,note_on,,,,,4,0,2,,,,,1,,,78,75
45884,note_off,,,,,188,0,8,,,,,7,,,54,0
45884,note_off,,,,,188,0,5,,,,,4,,,74,0
45884,note_off,,,,,188,0,7,,,,,6,,,42,0
45884,note_off,,,,,188,0,6,,,,,5,,,54,0
45884,note_off,,,,,92,0,4,,,,,3,,,78,0
45884,note_off,,,,,92,0,2,,,,,1,,,78,0
45888,note_on,,,,,4,0,7,,,,,6,,,45,60
45888,note_on,,,,,4,0,6,,,,,5,,,57,75
45888,note_on,,,,,4,0,2,,,,,1,,,76,75
45888,note_on,,,,,4,0,4,,,,,3,,,76,108
45888,note_on,,,,,4,0,5,,,,,4,,,69,75
45888,note_on,,,,,4,0,8,,,,,7,,,57,45
45980,note_off,,,,,92,0,4,,,,,3,,,76,0
45980,note_off,,,,,92,0,2,,,,,1,,,76,0
45984,note_on,,,,,4,0,2,,,,,1,,,74,75
45984,note_on,,,,,4,0,4,,,,,3,,,74,108
46076,note_off,,,,,92,0,2,,,,,1,,,74,0
46076,note_off,,,,,188,0,6,,,,,5,,,57,0
46076,note_off,,,,,188,0,5,,,,,4,,,69,0
46076,note_off,,,,,188,0,7,,,,,6,,,45,0
46076,note_off,,,,,188,0,8,,,,,7,,,57,0
46076,note_off,,,,,92,0,4,,,,,3,,,74,0
46080,note_on,,,,,4,0,7,,,,,6,,,48,60
46080,note_on,,,,,4,0,5,,,,,4,,,69,75
46080,note_on,,,,,448,0,3,,,,,2,,,86,108
46080,note_on,,,,,4,0,6,,,,,5,,,60,75
46080,note_on,,,,,4,0,8,,,,,7,,,60,45
46080,note_on,,,,,4,0,4,,,,,3,,,66,108
46080,note_on,,,,,4,0,2,,,,,1,,,66,75
46080,note_on,,,,,448,0,1,,,,,0,,,86,75
46172,note_off,,,,,92,0,3,,,,,2,,,86,0
46172,note_off,,,,,92,0,2,,,,,1,,,66,0
46172,note_off,,,,,92,0,1,,,,,0,,,86,0
46172,note_off,,,,,92,0,4,,,,,3,,,66,0
46176,note_on,,,,,4,0,4,,,,,3,,,66,108
46176,note_on,,,,,4,0,2,,,,,1,,,66,75
46176,note_on,,,,,4,0,1,,,,,0,,,84,75
46176,note_on,,,,,4,0,3,,,,,2,,,84,108
46268,note_off,,,,,92,0,3,,,,,2,,,84,0
46268,note_off,,,,,188,0,5,,,,,4,,,69,0
46268,note_off,,,,,188,0,6,,,,,5,,,60,0
46268,note_off,,,,,188,0,8,,,,,7,,,60,0
46268,note_off,,,,,92,0,4,,,,,3,,,66,0
46268,note_off,,,,,188,0,7,,,,,6,,,48,0
46268,note_off,,,,,92,0,2,,,,,1,,,66,0
46268,note_off,,,,,92,0,1,,,,,0,,,84,0
46272,note_on,,,,,4,0,7,,,,,6,,,48,60
46272,note_on,,,,,4,0,8,,,,,7,,,60,45
46272,note_on,,,,,4,0,3,,,,,2,,,83,108
46272,note_on,,,,,4,0,1,,,,,0,,,83,75
46272,note_on,,,,,4,0,5,,,,,4,,,69,75
46272,note_on,,,,,4,0,6,,,,,5,,,60,75
46272,note_on,,,,,4,0,2,,,,,1,,,66,75
46272,note_on,,,,,4,0,4,,,,,3,,,66,108
46364,note_off,,,,,92,0,1,,,,,0,,,83,0
46364,note_off,,,,,92,0,2,,,,,1,,,66,0
46364,note_off,,,,,92,0,3,,,,,2,,,83,0
46364,note_off,,,,,92,0,4,,,,,3,,,66,0
46368,note_on,,,,,4,0,4,,,,,3,,,66,108
46368,note_on,,,,,4,0,1,,,,,0,,,81,75
46368,note_on,,,,,4,0,3,,,,,2,,,81,108
46368,note_on,,,,,4,0,2,,,,,1,,,66,75
46460,note_off,,,,,188,0,7,,,,,6,,,48,0
46460,note_off,,,,,188,0,6,,,,,5,,,60,0
46460,note_off,,,,,188,0,8,,,,,7,,,60,0
46460,note_off,,,,,92,0,2,,,,,1,,,66,0
46460,note_off,,,,,188,0,5,,,,,4,,,69,0
46460,note_off,,,,,92,0,3,,,,,2,,,81,0
46460,note_off,,,,,92,0,1,,,,,0,,,81,0
46460,note_off,,,,,92,0,4,,,,,3,,,66,0
46464,note_on,,,,,4,0,4,,,,,3,,,69,108
46464,note_on,,,,,4,0,7,,,,,6,,,48,60
46464,note_on,,,,,4,0,8,,,,,7,,,60,45
46464,note_on,,,,,4,0,2,,,,,1,,,69,75
46464,note_on,,,,,4,0,5,,,,,4,,,74,75
46464,note_on,,,,,4,0,1,,,,,0,,,79,75
46464,note_on,,,,,4,0,3,,,,,2,,,79,108
46464,note_on,,,,,4,0,6,,,,,5,,,60,75
46556,note_off,,,,,92,0,3,,,,,2,,,79,0
46556,note_off,,,,,92,0,2,,,,,1,,,69,0
46556,note_off,,,,,92,0,4,,,,,3,,,69,0
46556,note_off,,,,,92,0,1,,,,,0,,,79,0
46560,note_on,,,,,4,0,1,,,,,0,,,78,75
46560,note_on,,,,,4,0,4,,,,,3,,,69,108
46560,note_on,,,,,4,0,3,,,,,2,,,78,108
46560,note_on,,,,,4,0,2,,,,,1,,,69,75
46652,note_off,,,,,188,0,5,,,,,4,,,74,0
46652,note_off,,,,,92,0,2,,,,,1,,,69,0
46652,note_off,,,,,92,0,3,,,,,2,,,78,0
46652,note_off,,,,,92,0,4,,,,,3,,,69,0
46652,note_off,,,,,188,0,8,,,,,7,,,60,0
46652,note_off,,,,,188,0,7,,,,,6,,,48,0
46652,note_off,,,,,92,0,1,,,,,0,,,78,0
46652,note_off,,,,,188,0,6,,,,,5,,,60,0
46656,note_on,,,,,4,0,2,,,,,1,,,69,75
46656,note_on,,,,,4,0,1,,,,,0,,,76,75
46656,note_on,,,,,4,0,4,,,,,3,,,69,108
46656,note_on,,,,,4,0,5,,,,,4,,,66,75
46656,note_on,,,,,4,0,7,,,,,6,,,48,60
46656,note_on,,,,,4,0,6,,,,,5,,,60,75
46656,note_on,,,,,4,0,8,,,,,7,,,60,45
46656,note_on,,,,,4,0,3,,,,,2,,,76,108
46748,note_off,,,,,92,0,2,,,,,1,,,69,0
46748,note_off,,,,,92,0,4,,,,,3,,,69,0
46748,note_off,,,,,92,0,3,,,,,2,,,76,0
46748,note_off,,,,,92,0,1,,,,,0,,,76,0
46752,note_on,,,,,4,0,1,,,,,0,,,74,75
46752,note_on,,,,,4,0,3,,,,,2,,,74,108
46752,note_on,,,,,4,0,2,,,,,1,,,69,75
46752,note_on,,,,,4,0,4,,,,,3,,,69,108
46844,note_off,,,,,92,0,4,,,,,3,,,69,0
46844,note_off,,,,,92,0,2,,,,,1,,,69,0
46844,note_off,,,,,188,0,6,,,,,5,,,60,0
46844,note_off,,,,,92,0,1,,,,,0,,,74,0
46844,note_off,,,,,188,0,7,,,,,6,,,48,0
46844,note_off,,,,,188,0,5,,,,,4,,,66,0
46844,note_off,,,,,92,0,3,,,,,2,,,74,0
46844,note_off,,,,,188,0,8,,,,,7,,,60,0
46848,note_on,,,,,4,0,3,,,,,2,,,79,108
46848,note_on,,,,,4,0,1,,,,,0,,,79,75
46848,note_on,,,,,4,0,4,,,,,3,,,62,108
46848,note_on,,,,,4,0,8,,,,,7,,,59,45
46848,note_on,,,,,4,0,7,,,,,6,,,47,60
46848,note_on,,,,,4,0,5,,,,,4,,,71,75
46848,note_on,,,,,4,0,6,,,,,5,,,59,75
46848,note_on,,,,,4,0,2,,,,,1,,,62,75
46940,note_off,,,,,92,0,1,,,,,0,,,79,0
46940,note_off,,,,,92,0,3,,,,,2,,,79,0
46940,note_off,,,,,92,0,2,,,,,1,,,62,0
46940,note_off,,,,,92,0,4,,,,,3,,,62,0
46944,note_on,,,,,4,0,2,,,,,1,,,62,75
46944,note_on,,,,,4,0,3,,,,,2,,,78,108
46944,note_on,,,,,4,0,4,,,,,3,,,62,108
46944,note_on,,,,,4,0,1,,,,,0,,,78,75
47036,note_off,,,,,188,0,6,,,,,5,,,59,0
47036,note_off,,,,,188,0,8,,,,,7,,,59,0
47036,note_off,,,,,92,0,2,,,,,1,,,62,0
47036,note_off,,,,,92,0,3,,,,,2,,,78,0
47036,note_off,,,,,188,0,5,,,,,4,,,71,0
47036,note_off,,,,,92,0,4,,,,,3,,,62,0
47036,note_off,,,,,92,0,1,,,,,0,,,78,0
47036,note_off,,,,,188,0,7,,,,,6,,,47,0
47040,note_on,,,,,4,0,1,,,,,0,,,76,75
47040,note_on,,,,,4,0,2,,,,,1,,,62,75
47040,note_on,,,,,4,0,4,,,,,3,,,62,108
47040,note_on,,,,,4,0,3,,,,,2,,,76,108
47040,note_on,,,,,4,0,8,,,,,7,,,59,45
47040,note_on,,,,,4,0,5,,,,,4,,,67,75
47040,note_on,,,,,4,0,6,,,,,5,,,59,75
47040,note_on,,,,,4,0,7,,,,,6,,,47,60
47132,note_off,,,,,92,0,1,,,,,0,,,76,0
47132,note_off,,,,,92,0,2,,,,,1,,,62,0
47132,note_off,,,,,92,0,3,,,,,2,,,76,0
47132,note_off,,,,,92,0,4,,,,,3,,,62,0
47136,note_on,,,,,4,0,2,,,,,1,,,62,75
47136,note_on,,,,,4,0,3,,,,,2,,,74,108
47136,note_on,,,,,4,0,4,,,,,3,,,62,108
47136,note_on,,,,,4,0,1,,,,,0,,,74,75
47228,note_off,,,,,188,0,6,,,,,5,,,59,0
47228,note_off,,,,,188,0,5,,,,,4,,,67,0
47228,note_off,,,,,92,0,2,,,,,1,,,62,0
47228,note_off,,,,,92,0,4,,,,,3,,,62,0
47228,note_off,,,,,92,0,3,,,,,2,,,74,0
47228,note_off,,,,,188,0,7,,,,,6,,,47,0
47228,note_off,,,,,92,0,1,,,,,0,,,74,0
47228,note_off,,,,,188,0,8,,,,,7,,,59,0
47232,note_on,,,,,4,0,6,,,,,5,,,59,75
47232,note_on,,,,,4,0,7,,,,,6,,,47,60
47232,note_on,,,,,4,0,2,,,,,1,,,67,75
47232,note_on,,,,,4,0,3,,,,,2,,,72,108
47232,note_on,,,,,4,0,5,,,,,4,,,62,75
47232,note_on,,,,,4,0,1,,,,,0,,,72,75
47232,note_on,,,,,4,0,8,,,,,7,,,59,45
47232,note_on,,,,,4,0,4,,,,,3,,,67,108
47324,note_off,,,,,92,0,2,,,,,1,,,67,0
47324,note_off,,,,,92,0,1,,,,,0,,,72,0
47324,note_off,,,,,92,0,4,,,,,3,,,67,0
47324,note_off,,,,,92,0,3,,,,,2,,,72,0
47328,note_on,,,,,4,0,2,,,,,1,,,67,75
47328,note_on,,,,,4,0,1,,,,,0,,,71,75
47328,note_on,,,,,4,0,4,,,,,3,,,67,108
47328,note_on,,,,,4,0,3,,,,,2,,,71,108
47420,note_off,,,,,188,0,8,,,,,7,,,59,0
47420,note_off,,,,,92,0,2,,,,,1,,,67,0
47420,note_off,,,,,188,0,5,,,,,4,,,62,0
47420,note_off,,,,,92,0,3,,,,,2,,,71,0
47420,note_off,,,,,188,0,6,,,,,5,,,59,0
47420,note_off,,,,,92,0,1,,,,,0,,,71,0
47420,note_off,,,,,188,0,7,,,,,6,,,47,0
47420,note_off,,,,,92,0,4,,,,,3,,,67,0
47424,note_on,,,,,4,0,3,,,,,2,,,69,108
47424,note_on,,,,,4,0,1,,,,,0,,,69,75
47424,note_on,,,,,4,0,8,,,,,7,,,59,45
47424,note_on,,,,,4,0,7,,,,,6,,,47,60
47424,note_on,,,,,4,0,5,,,,,4,,,62,75
47424,note_on,,,,,4,0,6,,,,,5,,,59,75
47424,note_on,,,,,4,0,4,,,,,3,,,67,108
47424,note_on,,,,,4,0,2,,,,,1,,,67,75
47516,note_off,,,,,92,0,4,,,,,3,,,67,0
47516,note_off,,,,,92,0,3,,,,,2,,,69,0
47516,note_off,,,,,92,0,1,,,,,0,,,69,0
47516,note_off,,,,,92,0,2,,,,,1,,,67,0
47520,note_on,,,,,4,0,2,,,,,1,,,67,75
47520,note_on,,,,,4,0,3,,,,,2,,,67,108
47520,note_on,,,,,4,0,1,,,,,0,,,67,75
47520,note_on,,,,,4,0,4,,,,,3,,,67,108
47612,note_off,,,,,92,0,1,,,,,0,,,67,0
47612,note_off,,,,,188,0,7,,,,,6,,,47,0
47612,note_off,,,,,92,0,4,,,,,3,,,67,0
47612,note_off,,,,,92,0,3,,,,,2,,,67,0
47612,note_off,,,,,92,0,2,,,,,1,,,67,0
47612,note_off,,,,,188,0,8,,,,,7,,,59,0
47612,note_off,,,,,188,0,6,,,,,5,,,59,0
47612,note_off,,,,,188,0,5,,,,,4,,,62,0
47616,note_on,,,,,4,0,6,,,,,5,,,60,75
47616,note_on,,,,,4,0,7,,,,,6,,,48,60
47616,note_on,,,,,4,0,8,,,,,7,,,60,45
47616,note_on,,,,,4,0,2,,,,,1,,,67,75
47616,note_on,,,,,4,0,1,,,,,0,,,69,75
47616,note_on,,,,,4,0,3,,,,,2,,,69,108
47616,note_on,,,,,4,0,5,,,,,4,,,64,75
47616,note_on,,,,,4,0,4,,,,,3,,,67,108
47708,note_off,,,,,92,0,2,,,,,1,,,67,0
47708,note_off,,,,,92,0,1,,,,,0,,,69,0
47708,note_off,,,,,92,0,4,,,,,3,,,67,0
47708,note_off,,,,,92,0,3,,,,,2,,,69,0
47712,note_on,,,,,4,0,2,,,,,1,,,67,75
47712,note_on,,,,,4,0,1,,,,,0,,,69,75
47712,note_on,,,,,4,0,4,,,,,3,,,67,108
47712,note_on,,,,,4,0,3,,,,,2,,,69,108
47804,note_off,,,,,92,0,4,,,,,3,,,67,0
47804,note_off,,,,,92,0,3,,,,,2,,,69,0
47804,note_off,,,,,188,0,5,,,,,4,,,64,0
47804,note_off,,,,,188,0,6,,,,,5,,,60,0
47804,note_off,,,,,92,0,2,,,,,1,,,67,0
47804,note_off,,,,,188,0,7,,,,,6,,,48,0
47804,note_off,,,,,92,0,1,,,,,0,,,69,0
47804,note_off,,,,,188,0,8,,,,,7,,,60,0
47808,note_on,,,,,4,0,6,,,,,5,,,60,75
47808,note_on,,,,,4,0,7,,,,,6,,,48,60
47808,note_on,,,,,4,0,3,,,,,2,,,76,108
47808,note_on,,,,,4,0,4,,,,,3,,,67,108
47808,note_on,,,,,4,0,2,,,,,1,,,67,75
47808,note_on,,,,,4,0,1,,,,,0,,,76,75
47808,note_on,,,,,4,0,5,,,,,4,,,64,75
47808,note_on,,,,,4,0,8,,,,,7,,,60,45
47900,note_off,,,,,92,0,2,,,,,1,,,67,0
47900,note_off,,,,,92,0,4,,,,,3,,,67,0
47900,note_off,,,,,92,0,3,,,,,2,,,76,0
47900,note_off,,,,,92,0,1,,,,,0,,,76,0
47904,note_on,,,,,4,0,2,,,,,1,,,67,75
47904,note_on,,,,,4,0,4,,,,,3,,,67,108
47904,note_on,,,,,4,0,3,,,,,2,,,76,108
47904,note_on,,,,,4,0,1,,,,,0,,,76,75
47996,note_off,,,,,92,0,2,,,,,1,,,67,0
47996,note_off,,,,,92,0,4,,,,,3,,,67,0
47996,note_off,,,,,188,0,5,,,,,4,,,64,0
47996,note_off,,,,,92,0,1,,,,,0,,,76,0
47996,note_off,,,,,188,0,6,,,,,5,,,60,0
47996,note_off,,,,,92,0,3,,,,,2,,,76,0
47996,note_off,,,,,188,0,8,,,,,7,,,60,0
47996,note_off,,,,,188,0,7,,,,,6,,,48,0
48000,note_on,,,,,4,0,2,,,,,1,,,66,75
48000,note_on,,,,,4,0,8,,,,,7,,,62,45
48000,note_on,,,,,4,0,4,,,,,3,,,66,108
48000,note_on,,,,,4,0,5,,,,,4,,,69,75
48000,note_on,,,,,4,0,3,,,,,2,,,74,108
48000,note_on,,,,,4,0,7,,,,,6,,,50,60
48000,note_on,,,,,4,0,1,,,,,0,,,74,75
48000,note_on,,,,,4,0,6,,,,,5,,,62,75
48092,note_off,,,,,92,0,3,,,,,2,,,74,0
48092,note_off,,,,,92,0,2,,,,,1,,,66,0
48092,note_off,,,,,92,0,4,,,,,3,,,66,0
48092,note_off,,,,,92,0,1,,,,,0,,,74,0
48096,note_on,,,,,4,0,4,,,,,3,,,66,108
48096,note_on,,,,,4,0,2,,,,,1,,,66,75
48096,note_on,,,,,4,0,1,,,,,0,,,74,75
48096,note_on,,,,,4,0,3,,,,,2,,,74,108
48188,note_off,,,,,188,0,8,,,,,7,,,62,0
48188,note_off,,,,,92,0,2,,,,,1,,,66,0
48188,note_off,,,,,92,0,3,,,,,2,,,74,0
48188,note_off,,,,,188,0,7,,,,,6,,,50,0
48188,note_off,,,,,188,0,5,,,,,4,,,69,0
48188,note_off,,,,,92,0,4,,,,,3,,,66,0
48188,note_off,,,,,188,0,6,,,,,5,,,62,0
48188,note_off,,,,,92,0,1,,,,,0,,,74,0
48192,note_on,,,,,4,0,2,,,,,1,,,66,75
48192,note_on,,,,,4,0,4,,,,,3,,,66,108
48192,note_on,,,,,4,0,1,,,,,0,,,81,75
48192,note_on,,,,,4,0,8,,,,,7,,,62,45
48192,note_on,,,,,4,0,6,,,,,5,,,62,75
48192,note_on,,,,,4,0,7,,,,,6,,,50,60
48192,note_on,,,,,4,0,3,,,,,2,,,81,108
48192,note_on,,,,,4,0,5,,,,,4,,,69,75
48284,note_off,,,,,92,0,3,,,,,2,,,81,0
48284,note_off,,,,,92,0,1,,,,,0,,,81,0
48284,note_off,,,,,92,0,4,,,,,3,,,66,0
48284,note_off,,,,,92,0,2,,,,,1,,,66,0
48288,note_on,,,,,4,0,2,,,,,1,,,66,75
48288,note_on,,,,,4,0,4,,,,,3,,,66,108
48288,note_on,,,,,4,0,1,,,,,0,,,81,75
48288,note_on,,,,,4,0,3,,,,,2,,,81,108
48380,note_off,,,,,92,0,4,,,,,3,,,66,0
48380,note_off,,,,,92,0,1,,,,,0,,,81,0
48380,note_off,,,,,188,0,8,,,,,7,,,62,0
48380,note_off,,,,,188,0,6,,,,,5,,,62,0
48380,note_off,,,,,188,0,7,,,,,6,,,50,0
48380,note_off,,,,,92,0,3,,,,,2,,,81,0
48380,note_off,,,,,92,0,2,,,,,1,,,66,0
48380,note_off,,,,,188,0,5,,,,,4,,,69,0
48384,note_on,,,,,4,0,5,,,,,4,,,71,75
48384,note_on,,,,,4,0,7,,,,,6,,,47,60
48384,note_on,,,,,4,0,3,,,,,2,,,79,108
48384,note_on,,,,,4,0,4,,,,,3,,,74,108
48384,note_on,,,,,4,0,1,,,,,0,,,79,75
48384,note_on,,,,,4,0,2,,,,,1,,,74,75
48384,note_on,,,,,4,0,6,,,,,5,,,59,75
48384,note_on,,,,,4,0,8,,,,,7,,,59,45
48476,note_off,,,,,92,0,1,,,,,0,,,79,0
48476,note_off,,,,,92,0,2,,,,,1,,,74,0
48476,note_off,,,,,92,0,3,,,,,2,,,79,0
48476,note_off,,,,,92,0,4,,,,,3,,,74,0
48480,note_on,,,,,4,0,1,,,,,0,,,79,75
48480,note_on,,,,,4,0,3,,,,,2,,,79,108
48480,note_on,,,,,4,0,4,,,,,3,,,74,108
48480,note_on,,,,,4,0,2,,,,,1,,,74,75
48572,note_off,,,,,188,0,5,,,,,4,,,71,0
48572,note_off,,,,,188,0,7,,,,,6,,,47,0
48572,note_off,,,,,92,0,3,,,,,2,,,79,0
48572,note_off,,,,,92,0,1,,,,,0,,,79,0
48572,note_off,,,,,92,0,4,,,,,3,,,74,0
48572,note_off,,,,,188,0,6,,,,,5,,,59,0
48572,note_off,,,,,92,0,2,,,,,1,,,74,0
48572,note_off,,,,,188,0,8,,,,,7,,,59,0
48576,note_on,,,,,4,0,5,,,,,4,,,74,75
48576,note_on,,,,,4,0,6,,,,,5,,,55,75
48576,note_on,,,,,4,0,2,,,,,1,,,79,75
48576,note_on,,,,,4,0,7,,,,,6,,,43,60
48576,note_on,,,,,4,0,8,,,,,7,,,55,45
48576,note_on,,,,,4,0,3,,,,,2,,,83,108
48576,note_on,,,,,4,0,1,,,,,0,,,83,75
48576,note_on,,,,,4,0,4,,,,,3,,,79,108
48668,note_off,,,,,92,0,4,,,,,3,,,79,0
48668,note_off,,,,,92,0,3,,,,,2,,,83,0
48668,note_off,,,,,92,0,2,,,,,1,,,79,0
48668,note_off,,,,,92,0,1,,,,,0,,,83,0
48672,note_on,,,,,4,0,3,,,,,2,,,83,108
48672,note_on,,,,,4,0,4,,,,,3,,,79,108
48672,note_on,,,,,4,0,2,,,,,1,,,79,75
48672,note_on,,,,,4,0,1,,,,,0,,,83,75
48764,note_off,,,,,188,0,5,,,,,4,,,74,0
48764,note_off,,,,,92,0,3,,,,,2,,,83,0
48764,note_off,,,,,92,0,2,,,,,1,,,79,0
48764,note_off,,,,,188,0,7,,,,,6,,,43,0
48764,note_off,,,,,92,0,4,,,,,3,,,79,0
48764,note_off,,,,,188,0,8,,,,,7,,,55,0
48764,note_off,,,,,92,0,1,,,,,0,,,83,0
48764,note_off,,,,,188,0,6,,,,,5,,,55,0
48768,note_on,,,,,4,0,2,,,,,1,,,79,75
48768,note_on,,,,,4,0,3,,,,,2,,,81,108
48768,note_on,,,,,4,0,5,,,,,4,,,76,75
48768,note_on,,,,,4,0,1,,,,,0,,,81,75
48768,note_on,,,,,4,0,7,,,,,6,,,36,60
48768,note_on,,,,,4,0,8,,,,,7,,,48,45
48768,note_on,,,,,4,0,6,,,,,5,,,48,75
48768,note_on,,,,,4,0,4,,,,,3,,,79,108
48860,note_off,,,,,92,0,2,,,,,1,,,79,0
48860,note_off,,,,,92,0,1,,,,,0,,,81,0
48860,note_off,,,,,92,0,3,,,,,2,,,81,0
48860,note_off,,,,,92,0,4,,,,,3,,,79,0
48864,note_on,,,,,4,0,3,,,,,2,,,81,108
48864,note_on,,,,,4,0,1,,,,,0,,,81,75
48864,note_on,,,,,4,0,2,,,,,1,,,79,75
48864,note_on,,,,,4,0,4,,,,,3,,,79,108
48956,note_off,,,,,92,0,4,,,,,3,,,79,0
48956,note_off,,,,,188,0,8,,,,,7,,,48,0
48956,note_off,,,,,92,0,1,,,,,0,,,81,0
48956,note_off,,,,,92,0,3,,,,,2,,,81,0
48956,note_off,,,,,188,0,6,,,,,5,,,48,0
48956,note_off,,,,,188,0,7,,,,,6,,,36,0
48956,note_off,,,,,92,0,2,,,,,1,,,79,0
48956,note_off,,,,,188,0,5,,,,,4,,,76,0
48960,note_on,,,,,4,0,7,,,,,6,,,38,60
48960,note_on,,,,,4,0,1,,,,,0,,,84,75
48960,note_on,,,,,4,0,2,,,,,1,,,78,75
48960,note_on,,,,,4,0,4,,,,,3,,,78,108
48960,note_on,,,,,4,0,8,,,,,7,,,50,45
48960,note_on,,,,,4,0,3,,,,,2,,,84,108
48960,note_on,,,,,4,0,6,,,,,5,,,50,75
48960,note_on,,,,,4,0,5,,,,,4,,,74,75
49052,note_off,,,,,92,0,2,,,,,1,,,78,0
49052,note_off,,,,,92,0,3,,,,,2,,,84,0
49052,note_off,,,,,92,0,4,,,,,3,,,78,0
49052,note_off,,,,,92,0,1,,,,,0,,,84,0
49056,note_on,,,,,4,0,3,,,,,2,,,84,108
49056,note_on,,,,,4,0,4,,,,,3,,,78,108
49056,note_on,,,,,4,0,1,,,,,0,,,84,75
49056,note_on,,,,,4,0,2,,,,,1,,,78,75
49148,note_off,,,,,92,0,3,,,,,2,,,84,0
49148,note_off,,,,,188,0,8,,,,,7,,,50,0
49148,note_off,,,,,188,0,6,,,,,5,,,50,0
49148,note_off,,,,,92,0,2,,,,,1,,,78,0
49148,note_off,,,,,92,0,4,,,,,3,,,78,0
49148,note_off,,,,,92,0,1,,,,,0,,,84,0
49148,note_off,,,,,188,0,7,,,,,6,,,38,0
49148,note_off,,,,,188,0,5,,,,,4,,,74,0
49152,note_on,,,,,4,0,4,,,,,3,,,79,108
49152,note_on,,,,,4,0,7,,,,,6,,,43,60
49152,note_on,,,,,4,0,3,,,,,2,,,83,108
49152,note_on,,,,,4,0,2,,,,,1,,,79,75
49152,note_on,,,,,4,0,5,,,,,4,,,74,75
49152,note_on,,,,,4,0,8,,,,,7,,,55,45
49152,note_on,,,,,4,0,6,,,,,5,,,55,75
49152,note_on,,,,,4,0,1,,,,,0,,,83,75
49244,note_off,,,,,92,0,1,,,,,0,,,83,0
49244,note_off,,,,,92,0,4,,,,,3,,,79,0
49244,note_off,,,,,92,0,3,,,,,2,,,83,0
49244,note_off,,,,,92,0,2,,,,,1,,,79,0
49248,note_on,,,,,4,0,2,,,,,1,,,79,75
49248,note_on,,,,,4,0,4,,,,,3,,,79,108
49248,note_on,,,,,4,0,1,,,,,0,,,83,75
49248,note_on,,,,,4,0,3,,,,,2,,,83,108
49340,note_off,,,,,92,0,2,,,,,1,,,79,0
49340,note_off,,,,,188,0,6,,,,,5,,,55,0
49340,note_off,,,,,188,0,7,,,,,6,,,43,0
49340,note_off,,,,,188,0,8,,,,,7,,,55,0
49340,note_off,,,,,188,0,5,,,,,4,,,74,0
49340,note_off,,,,,92,0,4,,,,,3,,,79,0
49340,note_off,,,,,92,0,1,,,,,0,,,83,0
49340,note_off,,,,,92,0,3,,,,,2,,,83,0
49344,note_on,,,,,4,0,7,,,,,6,,,42,60
49344,note_on,,,,,4,0,5,,,,,4,,,69,75
49344,note_on,,,,,4,0,4,,,,,3,,,74,108
49344,note_on,,,,,4,0,2,,,,,1,,,74,75
49344,note_on,,,,,4,0,6,,,,,5,,,54,75
49344,note_on,,,,,4,0,8,,,,,7,,,54,45
49344,note_on,,,,,4,0,1,,,,,0,,,86,75
49344,note_on,,,,,4,0,3,,,,,2,,,86,108
49436,note_off,,,,,92,0,2,,,,,1,,,74,0
49436,note_off,,,,,92,0,3,,,,,2,,,86,0
49436,note_off,,,,,92,0,1,,,,,0,,,86,0
49436,note_off,,,,,92,0,4,,,,,3,,,74,0
49440,note_on,,,,,4,0,2,,,,,1,,,74,75
49440,note_on,,,,,4,0,4,,,,,3,,,74,108
49440,note_on,,,,,4,0,3,,,,,2,,,86,108
49440,note_on,,,,,4,0,1,,,,,0,,,86,75
49532,note_off,,,,,188,0,6,,,,,5,,,54,0
49532,note_off,,,,,188,0,7,,,,,6,,,42,0
49532,note_off,,,,,92,0,1,,,,,0,,,86,0
49532,note_off,,,,,188,0,8,,,,,7,,,54,0
49532,note_off,,,,,92,0,2,,,,,1,,,74,0
49532,note_off,,,,,92,0,3,,,,,2,,,86,0
49532,note_off,,,,,92,0,4,,,,,3,,,74,0
49532,note_off,,,,,188,0,5,,,,,4,,,69,0
49536,note_on,,,,,4,0,5,,,,,4,,,67,75
49536,note_on,,,,,4,0,3,,,,,2,,,85,108
49536,note_on,,,,,4,0,1,,,,,0,,,85,75
49536,note_on,,,,,4,0,6,,,,,5,,,52,75
49536,note_on,,,,,4,0,2,,,,,1,,,79,75
49536,note_on,,,,,4,0,4,,,,,3,,,79,108
49536,note_on,,,,,4,0,8,,,,,7,,,52,45
49536,note_on,,,,,4,0,7,,,,,6,,,40,60
49628,note_off,,,,,92,0,1,,,,,0,,,85,0
49628,note_off,,,,,92,0,3,,,,,2,,,85,0
49628,note_off,,,,,92,0,2,,,,,1,,,79,0
49628,note_off,,,,,92,0,4,,,,,3,,,79,0
49632,note_on,,,,,4,0,4,,,,,3,,,79,108
49632,note_on,,,,,4,0,1,,,,,0,,,85,75
49632,note_on,,,,,4,0,3,,,,,2,,,85,108
49632,note_on,,,,,4,0,2,,,,,1,,,79,75
49724,note_off,,,,,92,0,4,,,,,3,,,79,0
49724,note_off,,,,,92,0,3,,,,,2,,,85,0
49724,note_off,,,,,188,0,5,,,,,4,,,67,0
49724,note_off,,,,,188,0,7,,,,,6,,,40,0
49724,note_off,,,,,92,0,1,,,,,0,,,85,0
49724,note_off,,,,,188,0,6,,,,,5,,,52,0
49724,note_off,,,,,92,0,2,,,,,1,,,79,0
49724,note_off,,,,,188,0,8,,,,,7,,,52,0
49728,note_on,,,,,4,0,5,,,,,4,,,69,75
49728,note_on,,,,,4,0,7,,,,,6,,,38,60
49728,note_on,,,,,4,0,3,,,,,2,,,86,108
49728,note_on,,,,,4,0,4,,,,,3,,,78,108
49728,note_on,,,,,4,0,1,,,,,0,,,86,75
49728,note_on,,,,,4,0,6,,,,,5,,,50,75
49728,note_on,,,,,4,0,2,,,,,1,,,78,75
49728,note_on,,,,,4,0,8,,,,,7,,,50,45
49820,note_off,,,,,92,0,1,,,,,0,,,86,0
49820,note_off,,,,,92,0,4,,,,,3,,,78,0
49820,note_off,,,,,92,0,2,,,,,1,,,78,0
49820,note_off,,,,,92,0,3,,,,,2,,,86,0
49824,note_on,,,,,4,0,2,,,,,1,,,78,75
49824,note_on,,,,,4,0,4,,,,,3,,,78,108
49824,note_on,,,,,4,0,3,,,,,2,,,86,108
49824,note_on,,,,,4,0,1,,,,,0,,,86,75
49916,note_off,,,,,188,0,8,,,,,7,,,50,0
49916,note_off,,,,,92,0,2,,,,,1,,,78,0
49916,note_off,,,,,188,0,7,,,,,6,,,38,0
49916,note_off,,,,,92,0,1,,,,,0,,,86,0
49916,note_off,,,,,188,0,5,,,,,4,,,69,0
49916,note_off,,,,,188,0,6,,,,,5,,,50,0
49916,note_off,,,,,92,0,3,,,,,2,,,86,0
49916,note_off,,,,,92,0,4,,,,,3,,,78,0
49920,note_on,,,,,4,0,6,,,,,5,,,49,75
49920,note_on,,,,,4,0,2,,,,,1,,,76,75
49920,note_on,,,,,4,0,5,,,,,4,,,69,75
49920,note_on,,,,,4,0,4,,,,,3,,,76,108
49920,note_on,,,,,4,0,3,,,,,2,,,88,108
49920,note_on,,,,,4,0,8,,,,,7,,,49,45
49920,note_on,,,,,4,0,7,,,,,6,,,37,60
49920,note_on,,,,,4,0,1,,,,,0,,,88,75
50012,note_off,,,,,92,0,1,,,,,0,,,88,0
50012,note_off,,,,,92,0,3,,,,,2,,,88,0
50016,note_on,,,,,4,0,3,,,,,2,,,88,108
50016,note_on,,,,,4,0,1,,,,,0,,,88,75
50108,note_off,,,,,92,0,3,,,,,2,,,88,0
50108,note_off,,,,,92,0,1,,,,,0,,,88,0
50112,note_on,,,,,4,0,1,,,,,0,,,79,75
50112,note_on,,,,,4,0,3,,,,,2,,,79,108
50204,note_off,,,,,92,0,3,,,,,2,,,79,0
50204,note_off,,,,,92,0,1,,,,,0,,,79,0
50208,note_on,,,,,4,0,3,,,,,2,,,79,108
50208,note_on,,,,,4,0,1,,,,,0,,,79,75
50240,note_off,,,,,320,0,4,,,,,3,,,76,0
50240,note_off,,,,,320,0,7,,,,,6,,,37,0
50240,note_off,,,,,320,0,5,,,,,4,,,69,0
50240,note_off,,,,,320,0,8,,,,,7,,,49,0
50240,note_off,,,,,320,0,2,,,,,1,,,76,0
50240,note_off,,,,,320,0,6,,,,,5,,,49,0
50300,note_off,,,,,92,0,3,,,,,2,,,79,0
50300,note_off,,,,,92,0,1,,,,,0,,,79,0
50304,note_on,,,,,64,0,6,,,,,5,,,49,75
50304,note_on,,,,,4,0,1,,,,,0,,,69,75
50304,note_on,,,,,4,0,3,,,,,2,,,69,108
50304,note_on,,,,,64,0,7,,,,,6,,,37,60
50304,note_on,,,,,64,0,8,,,,,7,,,49,45
50396,note_off,,,,,92,0,3,,,,,2,,,69,0
50396,note_off,,,,,92,0,1,,,,,0,,,69,0
50400,note_on,,,,,4,0,1,,,,,0,,,69,75
50400,note_on,,,,,4,0,3,,,,,2,,,69,108
50492,note_off,,,,,92,0,1,,,,,0,,,69,0
50492,note_off,,,,,188,0,6,,,,,5,,,49,0
50492,note_off,,,,,188,0,8,,,,,7,,,49,0
50492,note_off,,,,,188,0,7,,,,,6,,,37,0
50492,note_off,,,,,92,0,3,,,,,2,,,69,0
50496,note_on,,,,,4,0,3,,,,,2,,,73,108
50496,note_on,,,,,4,0,6,,,,,5,,,57,75
50496,note_on,,,,,256,0,2,,,,,1,,,64,75
50496,note_on,,,,,4,0,1,,,,,0,,,73,75
50496,note_on,,,,,4,0,8,,,,,7,,,57,45
50496,note_on,,,,,256,0,5,,,,,4,,,69,75
50496,note_on,,,,,256,0,4,,,,,3,,,64,108
50496,note_on,,,,,4,0,7,,,,,6,,,45,60
50588,note_off,,,,,92,0,3,,,,,2,,,73,0
50588,note_off,,,,,92,0,1,,,,,0,,,73,0
50592,note_on,,,,,4,0,1,,,,,0,,,73,75
50592,note_on,,,,,4,0,3,,,,,2,,,73,108
50684,note_off,,,,,188,0,5,,,,,4,,,69,0
50684,note_off,,,,,92,0,3,,,,,2,,,73,0
50684,note_off,,,,,188,0,7,,,,,6,,,45,0
50684,note_off,,,,,92,0,1,,,,,0,,,73,0
50684,note_off,,,,,188,0,2,,,,,1,,,64,0
50684,note_off,,,,,188,0,4,,,,,3,,,64,0
50684,note_off,,,,,188,0,6,,,,,5,,,57,0
50684,note_off,,,,,188,0,8,,,,,7,,,57,0
50688,note_on,,,,,4,0,2,,,,,1,,,74,75
50688,note_on,,,,,4,0,4,,,,,3,,,74,108
50688,note_on,,,,,4,0,6,,,,,5,,,59,75
50688,note_on,,,,,4,0,1,,,,,0,,,74,75
50688,note_on,,,,,4,0,8,,,,,7,,,59,45
50688,note_on,,,,,4,0,7,,,,,6,,,47,60
50688,note_on,,,,,4,0,3,,,,,2,,,74,108
50688,note_on,,,,,4,0,5,,,,,4,,,66,75
50876,note_off,,,,,188,0,7,,,,,6,,,47,0
50876,note_off,,,,,188,0,8,,,,,7,,,59,0
50876,note_off,,,,,188,0,4,,,,,3,,,74,0
50876,note_off,,,,,188,0,5,,,,,4,,,66,0
50876,note_off,,,,,188,0,1,,,,,0,,,74,0
50876,note_off,,,,,188,0,6,,,,,5,,,59,0
50876,note_off,,,,,188,0,3,,,,,2,,,74,0
50876,note_off,,,,,188,0,2,,,,,1,,,74,0
50880,note_on,,,,,4,0,4,,,,,3,,,74,108
50880,note_on,,,,,4,0,3,,,,,2,,,79,108
50880,note_on,,,,,4,0,7,,,,,6,,,43,60
50880,note_on,,,,,4,0,2,,,,,1,,,74,75
50880,note_on,,,,,4,0,5,,,,,4,,,71,75
50880,note_on,,,,,4,0,1,,,,,0,,,79,75
50880,note_on,,,,,4,0,6,,,,,5,,,55,75
50880,note_on,,,,,4,0,8,,,,,7,,,55,45
51068,note_off,,,,,188,0,3,,,,,2,,,79,0
51068,note_off,,,,,188,0,2,,,,,1,,,74,0
51068,note_off,,,,,188,0,6,,,,,5,,,55,0
51068,note_off,,,,,188,0,1,,,,,0,,,79,0
51068,note_off,,,,,188,0,7,,,,,6,,,43,0
51068,note_off,,,,,188,0,8,,,,,7,,,55,0
51068,note_off,,,,,188,0,5,,,,,4,,,71,0
51068,note_off,,,,,188,0,4,,,,,3,,,74,0
51072,note_on,,,,,4,0,6,,,,,5,,,57,75
51072,note_on,,,,,4,0,2,,,,,1,,,74,75
51072,note_on,,,,,4,0,8,,,,,7,,,57,45
51072,note_on,,,,,4,0,4,,,,,3,,,74,108
51072,note_on,,,,,4,0,3,,,,,2,,,78,108
51072,note_on,,,,,4,0,7,,,,,6,,,45,60
51072,note_on,,,,,4,0,5,,,,,4,,,69,75
51072,note_on,,,,,4,0,1,,,,,0,,,78,75
51260,note_off,,,,,188,0,6,,,,,5,,,57,0
51260,note_off,,,,,188,0,3,,,,,2,,,78,0
51260,note_off,,,,,188,0,2,,,,,1,,,74,0
51260,note_off,,,,,188,0,8,,,,,7,,,57,0
51260,note_off,,,,,188,0,5,,,,,4,,,69,0
51260,note_off,,,,,188,0,7,,,,,6,,,45,0
51260,note_off,,,,,188,0,4,,,,,3,,,74,0
51260,note_off,,,,,188,0,1,,,,,0,,,78,0
51264,note_on,,,,,4,0,7,,,,,6,,,33,60
51264,note_on,,,,,4,0,3,,,,,2,,,76,108
51264,note_on,,,,,4,0,6,,,,,5,,,45,75
51264,note_on,,,,,4,0,8,,,,,7,,,45,45
51264,note_on,,,,,4,0,4,,,,,3,,,73,108
51264,note_on,,,,,4,0,1,,,,,0,,,76,75
51264,note_on,,,,,4,0,5,,,,,4,,,67,75
51264,note_on,,,,,4,0,2,,,,,1,,,73,75
51452,note_off,,,,,188,0,2,,,,,1,,,73,0
51452,note_off,,,,,188,0,3,,,,,2,,,76,0
51452,note_off,,,,,188,0,4,,,,,3,,,73,0
51452,note_off,,,,,188,0,6,,,,,5,,,45,0
51452,note_off,,,,,188,0,8,,,,,7,,,45,0
51452,note_off,,,,,188,0,5,,,,,4,,,67,0
51452,note_off,,,,,188,0,7,,,,,6,,,33,0
51452,note_off,,,,,188,0,1,,,,,0,,,76,0
51456,note_on,,,,,4,0,3,,,,,2,,,74,108
51456,note_on,,,,,4,0,8,,,,,7,,,50,45
51456,note_on,,,,,4,0,6,,,,,5,,,50,75
51456,note_on,,,,,4,0,1,,,,,0,,,74,75
51456,note_on,,,,,4,0,2,,,,,1,,,74,75
51456,note_on,,,,,4,0,4,,,,,3,,,74,108
51456,note_on,,,,,4,0,7,,,,,6,,,38,60
51456,note_on,,,,,4,0,5,,,,,4,,,66,75
51644,note_off,,,,,188,0,3,,,,,2,,,74,0
51644,note_off,,,,,188,0,1,,,,,0,,,74,0
51648,note_on,,,,,4,0,3,,,,,2,,,69,108
51648,note_on,,,,,4,0,1,,,,,0,,,69,75
51740,note_off,,,,,92,0,3,,,,,2,,,69,0
51740,note_off,,,,,92,0,1,,,,,0,,,69,0
51744,note_on,,,,,4,0,3,,,,,2,,,69,108
51744,note_on,,,,,4,0,1,,,,,0,,,69,75
51776,note_off,,,,,320,0,5,,,,,4,,,66,0
51776,note_off,,,,,320,0,7,,,,,6,,,38,0
51776,note_off,,,,,320,0,4,,,,,3,,,74,0
51776,note_off,,,,,320,0,2,,,,,1,,,74,0
51776,note_off,,,,,320,0,8,,,,,7,,,50,0
51776,note_off,,,,,320,0,6,,,,,5,,,50,0
51836,note_off,,,,,92,0,1,,,,,0,,,69,0
51836,note_off,,,,,92,0,3,,,,,2,,,69,0
51840,note_on,,,,,4,0,1,,,,,0,,,62,75
51840,note_on,,,,,4,0,3,,,,,2,,,62,108
51932,note_off,,,,,92,0,1,,,,,0,,,62,0
51932,note_off,,,,,92,0,3,,,,,2,,,62,0
51936,note_on,,,,,4,0,1,,,,,0,,,62,75
51936,note_on,,,,,4,0,3,,,,,2,,,62,108
52028,note_off,,,,,92,0,1,,,,,0,,,62,0
52028,note_off,,,,,92,0,3,,,,,2,,,62,0
52032,note_on,,,,,4,0,3,,,,,2,,,64,108
52032,note_on,,,,,4,0,1,,,,,0,,,64,75
52124,note_off,,,,,92,0,1,,,,,0,,,64,0
52124,note_off,,,,,92,0,3,,,,,2,,,64,0
52128,note_on,,,,,4,0,3,,,,,2,,,64,108
52128,note_on,,,,,4,0,1,,,,,0,,,64,75
52220,note_off,,,,,92,0,3,,,,,2,,,64,0
52220,note_off,,,,,92,0,1,,,,,0,,,64,0
52224,note_on,,,,,448,0,8,,,,,7,,,50,45
52224,note_on,,,,,448,0,5,,,,,4,,,57,75
52224,note_on,,,,,448,0,2,,,,,1,,,74,75
52224,note_on,,,,,4,0,3,,,,,2,,,66,108
52224,note_on,,,,,4,0,1,,,,,0,,,66,75
52224,note_on,,,,,448,0,4,,,,,3,,,74,108
52224,note_on,,,,,448,0,6,,,,,5,,,50,75
52224,note_on,,,,,448,0,7,,,,,6,,,38,60
52316,note_off,,,,,92,0,1,,,,,0,,,66,0
52316,note_off,,,,,92,0,4,,,,,3,,,74,0
52316,note_off,,,,,92,0,3,,,,,2,,,66,0
52316,note_off,,,,,92,0,2,,,,,1,,,74,0
52320,note_on,,,,,4,0,1,,,,,0,,,66,75
52320,note_on,,,,,4,0,4,,,,,3,,,74,108
52320,note_on,,,,,4,0,3,,,,,2,,,66,108
52320,note_on,,,,,4,0,2,,,,,1,,,74,75
52412,note_off,,,,,92,0,1,,,,,0,,,66,0
52412,note_off,,,,,92,0,3,,,,,2,,,66,0
52412,note_off,,,,,188,0,8,,,,,7,,,50,0
52412,note_off,,,,,92,0,4,,,,,3,,,74,0
52412,note_off,,,,,188,0,5,,,,,4,,,57,0
52412,note_off,,,,,188,0,7,,,,,6,,,38,0
52412,note_off,,,,,92,0,2,,,,,1,,,74,0
52412,note_off,,,,,188,0,6,,,,,5,,,50,0
52416,note_on,,,,,4,0,8,,,,,7,,,50,45
52416,note_on,,,,,4,0,2,,,,,1,,,74,75
52416,note_on,,,,,4,0,4,,,,,3,,,74,108
52416,note_on,,,,,4,0,3,,,,,2,,,69,108
52416,note_on,,,,,4,0,1,,,,,0,,,69,75
52416,note_on,,,,,4,0,7,,,,,6,,,38,60
52416,note_on,,,,,4,0,6,,,,,5,,,50,75
52416,note_on,,,,,4,0,5,,,,,4,,,66,75
52508,note_off,,,,,92,0,2,,,,,1,,,74,0
52508,note_off,,,,,92,0,1,,,,,0,,,69,0
52508,note_off,,,,,92,0,3,,,,,2,,,69,0
52508,note_off,,,,,92,0,4,,,,,3,,,74,0
52512,note_on,,,,,4,0,4,,,,,3,,,74,108
52512,note_on,,,,,4,0,3,,,,,2,,,69,108
52512,note_on,,,,,4,0,1,,,,,0,,,69,75
52512,note_on,,,,,4,0,2,,,,,1,,,74,75
52604,note_off,,,,,188,0,5,,,,,4,,,66,0
52604,note_off,,,,,188,0,6,,,,,5,,,50,0
52604,note_off,,,,,92,0,2,,,,,1,,,74,0
52604,note_off,,,,,92,0,3,,,,,2,,,69,0
52604,note_off,,,,,92,0,1,,,,,0,,,69,0
52604,note_off,,,,,92,0,4,,,,,3,,,74,0
52604,note_off,,,,,188,0,7,,,,,6,,,38,0
52604,note_off,,,,,188,0,8,,,,,7,,,50,0
52608,note_on,,,,,4,0,3,,,,,2,,,74,108
52608,note_on,,,,,4,0,8,,,,,7,,,54,45
52608,note_on,,,,,4,0,2,,,,,1,,,69,75
52608,note_on,,,,,4,0,7,,,,,6,,,42,60
52608,note_on,,,,,4,0,5,,,,,4,,,69,75
52608,note_on,,,,,4,0,6,,,,,5,,,54,75
52608,note_on,,,,,4,0,4,,,,,3,,,69,108
52608,note_on,,,,,4,0,1,,,,,0,,,74,75
52700,note_off,,,,,92,0,2,,,,,1,,,69,0
52700,note_off,,,,,92,0,4,,,,,3,,,69,0
52700,note_off,,,,,92,0,3,,,,,2,,,74,0
52700,note_off,,,,,92,0,1,,,,,0,,,74,0
52704,note_on,,,,,4,0,2,,,,,1,,,69,75
52704,note_on,,,,,4,0,3,,,,,2,,,74,108
52704,note_on,,,,,4,0,4,,,,,3,,,69,108
52704,note_on,,,,,4,0,1,,,,,0,,,74,75
52796,note_off,,,,,92,0,2,,,,,1,,,69,0
52796,note_off,,,,,188,0,6,,,,,5,,,54,0
52796,note_off,,,,,92,0,3,,,,,2,,,74,0
52796,note_off,,,,,188,0,5,,,,,4,,,69,0
52796,note_off,,,,,92,0,4,,,,,3,,,69,0
52796,note_off,,,,,188,0,7,,,,,6,,,42,0
52796,note_off,,,,,92,0,1,,,,,0,,,74,0
52796,note_off,,,,,188,0,8,,,,,7,,,54,0
52800,note_on,,,,,4,0,8,,,,,7,,,50,45
52800,note_on,,,,,4,0,3,,,,,2,,,78,108
52800,note_on,,,,,4,0,5,,,,,4,,,74,75
52800,note_on,,,,,4,0,6,,,,,5,,,50,75
52800,note_on,,,,,4,0,7,,,,,6,,,38,60
52800,note_on,,,,,4,0,1,,,,,0,,,78,75
52800,note_on,,,,,4,0,4,,,,,3,,,69,108
52800,note_on,,,,,4,0,2,,,,,1,,,69,75
52892,note_off,,,,,92,0,4,,,,,3,,,69,0
52892,note_off,,,,,92,0,1,,,,,0,,,78,0
52892,note_off,,,,,92,0,3,,,,,2,,,78,0
52892,note_off,,,,,92,0,2,,,,,1,,,69,0
52896,note_on,,,,,4,0,2,,,,,1,,,69,75
52896,note_on,,,,,4,0,4,,,,,3,,,69,108
52896,note_on,,,,,4,0,1,,,,,0,,,78,75
52896,note_on,,,,,4,0,3,,,,,2,,,78,108
52988,note_off,,,,,92,0,2,,,,,1,,,69,0
52988,note_off,,,,,188,0,8,,,,,7,,,50,0
52988,note_off,,,,,92,0,3,,,,,2,,,78,0
52988,note_off,,,,,92,0,4,,,,,3,,,69,0
52988,note_off,,,,,188,0,5,,,,,4,,,74,0
52988,note_off,,,,,188,0,7,,,,,6,,,38,0
52988,note_off,,,,,92,0,1,,,,,0,,,78,0
52988,note_off,,,,,188,0,6,,,,,5,,,50,0
52992,note_on,,,,,4,0,7,,,,,6,,,43,60
52992,note_on,,,,,4,0,3,,,,,2,,,71,108
52992,note_on,,,,,4,0,8,,,,,7,,,55,45
52992,note_on,,,,,4,0,2,,,,,1,,,67,75
52992,note_on,,,,,4,0,5,,,,,4,,,62,75
52992,note_on,,,,,4,0,6,,,,,5,,,55,75
52992,note_on,,,,,4,0,1,,,,,0,,,71,75
52992,note_on,,,,,4,0,4,,,,,3,,,67,108
53084,note_off,,,,,92,0,1,,,,,0,,,71,0
53084,note_off,,,,,92,0,3,,,,,2,,,71,0
53084,note_off,,,,,92,0,4,,,,,3,,,67,0
53084,note_off,,,,,92,0,2,,,,,1,,,67,0
53088,note_on,,,,,4,0,1,,,,,0,,,71,75
53088,note_on,,,,,4,0,3,,,,,2,,,71,108
53088,note_on,,,,,4,0,4,,,,,3,,,67,108
53088,note_on,,,,,4,0,2,,,,,1,,,67,75
53180,note_off,,,,,92,0,1,,,,,0,,,71,0
53180,note_off,,,,,188,0,7,,,,,6,,,43,0
53180,note_off,,,,,188,0,5,,,,,4,,,62,0
53180,note_off,,,,,188,0,8,,,,,7,,,55,0
53180,note_off,,,,,92,0,2,,,,,1,,,67,0
53180,note_off,,,,,188,0,6,,,,,5,,,55,0
53180,note_off,,,,,92,0,4,,,,,3,,,67,0
53180,note_off,,,,,92,0,3,,,,,2,,,71,0
53184,note_on,,,,,4,0,1,,,,,0,,,76,75
53184,note_on,,,,,4,0,4,,,,,3,,,71,108
53184,note_on,,,,,4,0,2,,,,,1,,,71,75
53184,note_on,,,,,4,0,6,,,,,5,,,55,75
53184,note_on,,,,,4,0,3,,,,,2,,,76,108
53184,note_on,,,,,4,0,5,,,,,4,,,67,75
53184,note_on,,,,,4,0,7,,,,,6,,,43,60
53184,note_on,,,,,4,0,8,,,,,7,,,55,45
53276,note_off,,,,,92,0,1,,,,,0,,,76,0
53276,note_off,,,,,92,0,3,,,,,2,,,76,0
53276,note_off,,,,,92,0,2,,,,,1,,,71,0
53276,note_off,,,,,92,0,4,,,,,3,,,71,0
53280,note_on,,,,,4,0,4,,,,,3,,,71,108
53280,note_on,,,,,4,0,3,,,,,2,,,76,108
53280,note_on,,,,,4,0,2,,,,,1,,,71,75
53280,note_on,,,,,4,0,1,,,,,0,,,76,75
53372,note_off,,,,,92,0,3,,,,,2,,,76,0
53372,note_off,,,,,92,0,1,,,,,0,,,76,0
53372,note_off,,,,,188,0,6,,,,,5,,,55,0
53372,note_off,,,,,188,0,7,,,,,6,,,43,0
53372,note_off,,,,,188,0,5,,,,,4,,,67,0
53372,note_off,,,,,92,0,4,,,,,3,,,71,0
53372,note_off,,,,,92,0,2,,,,,1,,,71,0
53372,note_off,,,,,188,0,8,,,,,7,,,55,0
53376,note_on,,,,,4,0,6,,,,,5,,,52,75
53376,note_on,,,,,4,0,1,,,,,0,,,79,75
53376,note_on,,,,,4,0,4,,,,,3,,,76,108
53376,note_on,,,,,4,0,2,,,,,1,,,76,75
53376,note_on,,,,,4,0,3,,,,,2,,,79,108
53376,note_on,,,,,4,0,7,,,,,6,,,40,60
53376,note_on,,,,,4,0,5,,,,,4,,,71,75
53376,note_on,,,,,4,0,8,,,,,7,,,52,45
53468,note_off,,,,,92,0,2,,,,,1,,,76,0
53468,note_off,,,,,92,0,3,,,,,2,,,79,0
53468,note_off,,,,,92,0,1,,,,,0,,,79,0
53468,note_off,,,,,92,0,4,,,,,3,,,76,0
53472,note_on,,,,,4,0,2,,,,,1,,,76,75
53472,note_on,,,,,4,0,3,,,,,2,,,79,108
53472,note_on,,,,,4,0,4,,,,,3,,,76,108
53472,note_on,,,,,4,0,1,,,,,0,,,79,75
53564,note_off,,,,,92,0,4,,,,,3,,,76,0
53564,note_off,,,,,92,0,3,,,,,2,,,79,0
53564,note_off,,,,,92,0,1,,,,,0,,,79,0
53564,note_off,,,,,188,0,6,,,,,5,,,52,0
53564,note_off,,,,,188,0,7,,,,,6,,,40,0
53564,note_off,,,,,188,0,8,,,,,7,,,52,0
53564,note_off,,,,,188,0,5,,,,,4,,,71,0
53564,note_off,,,,,92,0,2,,,,,1,,,76,0
53568,note_on,,,,,4,0,8,,,,,7,,,55,45
53568,note_on,,,,,4,0,1,,,,,0,,,76,75
53568,note_on,,,,,4,0,7,,,,,6,,,43,60
53568,note_on,,,,,4,0,2,,,,,1,,,71,75
53568,note_on,,,,,4,0,3,,,,,2,,,76,108
53568,note_on,,,,,4,0,6,,,,,5,,,55,75
53568,note_on,,,,,4,0,4,,,,,3,,,71,108
53568,note_on,,,,,4,0,5,,,,,4,,,67,75
53660,note_off,,,,,92,0,1,,,,,0,,,76,0
53660,note_off,,,,,92,0,4,,,,,3,,,71,0
53660,note_off,,,,,92,0,3,,,,,2,,,76,0
53660,note_off,,,,,92,0,2,,,,,1,,,71,0
53664,note_on,,,,,4,0,3,,,,,2,,,76,108
53664,note_on,,,,,4,0,2,,,,,1,,,71,75
53664,note_on,,,,,4,0,4,,,,,3,,,71,108
53664,note_on,,,,,4,0,1,,,,,0,,,76,75
53756,note_off,,,,,188,0,8,,,,,7,,,55,0
53756,note_off,,,,,188,0,6,,,,,5,,,55,0
53756,note_off,,,,,92,0,4,,,,,3,,,71,0
53756,note_off,,,,,188,0,7,,,,,6,,,43,0
53756,note_off,,,,,92,0,1,,,,,0,,,76,0
53756,note_off,,,,,92,0,2,,,,,1,,,71,0
53756,note_off,,,,,188,0,5,,,,,4,,,67,0
53756,note_off,,,,,92,0,3,,,,,2,,,76,0
53760,note_on,,,,,4,0,2,,,,,1,,,69,75
53760,note_on,,,,,4,0,5,,,,,4,,,64,75
53760,note_on,,,,,4,0,3,,,,,2,,,73,108
53760,note_on,,,,,4,0,1,,,,,0,,,73,75
53760,note_on,,,,,4,0,4,,,,,3,,,69,108
53760,note_on,,,,,4,0,6,,,,,5,,,57,75
53760,note_on,,,,,4,0,7,,,,,6,,,45,60
53760,note_on,,,,,4,0,8,,,,,7,,,57,45
53852,note_off,,,,,92,0,2,,,,,1,,,69,0
53852,note_off,,,,,92,0,3,,,,,2,,,73,0
53852,note_off,,,,,92,0,4,,,,,3,,,69,0
53852,note_off,,,,,92,0,1,,,,,0,,,73,0
53856,note_on,,,,,4,0,3,,,,,2,,,73,108
53856,note_on,,,,,4,0,4,,,,,3,,,69,108
53856,note_on,,,,,4,0,1,,,,,0,,,73,75
53856,note_on,,,,,4,0,2,,,,,1,,,69,75
53948,note_off,,,,,92,0,3,,,,,2,,,73,0
53948,note_off,,,,,92,0,1,,,,,0,,,73,0
53948,note_off,,,,,188,0,8,,,,,7,,,57,0
53948,note_off,,,,,92,0,4,,,,,3,,,69,0
53948,note_off,,,,,92,0,2,,,,,1,,,69,0
53948,note_off,,,,,188,0,6,,,,,5,,,57,0
53948,note_off,,,,,188,0,5,,,,,4,,,64,0
53948,note_off,,,,,188,0,7,,,,,6,,,45,0
53952,note_on,,,,,4,0,6,,,,,5,,,61,75
53952,note_on,,,,,4,0,3,,,,,2,,,69,108
53952,note_on,,,,,4,0,4,,,,,3,,,64,108
53952,note_on,,,,,4,0,7,,,,,6,,,49,60
53952,note_on,,,,,4,0,5,,,,,4,,,64,75
53952,note_on,,,,,4,0,8,,,,,7,,,61,45
53952,note_on,,,,,4,0,1,,,,,0,,,69,75
53952,note_on,,,,,4,0,2,,,,,1,,,64,75
54044,note_off,,,,,92,0,3,,,,,2,,,69,0
54044,note_off,,,,,92,0,4,,,,,3,,,64,0
54044,note_off,,,,,92,0,2,,,,,1,,,64,0
54044,note_off,,,,,92,0,1,,,,,0,,,69,0
54048,note_on,,,,,4,0,2,,,,,1,,,64,75
54048,note_on,,,,,4,0,1,,,,,0,,,69,75
54048,note_on,,,,,4,0,3,,,,,2,,,69,108
54048,note_on,,,,,4,0,4,,,,,3,,,64,108
54140,note_off,,,,,92,0,1,,,,,0,,,69,0
54140,note_off,,,,,188,0,6,,,,,5,,,61,0
54140,note_off,,,,,92,0,4,,,,,3,,,64,0
54140,note_off,,,,,92,0,3,,,,,2,,,69,0
54140,note_off,,,,,188,0,5,,,,,4,,,64,0
54140,note_off,,,,,188,0,8,,,,,7,,,61,0
54140,note_off,,,,,188,0,7,,,,,6,,,49,0
54140,note_off,,,,,92,0,2,,,,,1,,,64,0
54144,note_on,,,,,4,0,2,,,,,1,,,69,75
54144,note_on,,,,,4,0,3,,,,,2,,,76,108
54144,note_on,,,,,4,0,1,,,,,0,,,76,75
54144,note_on,,,,,4,0,8,,,,,7,,,61,45
54144,note_on,,,,,4,0,6,,,,,5,,,61,75
54144,note_on,,,,,4,0,5,,,,,4,,,64,75
54144,note_on,,,,,4,0,4,,,,,3,,,69,108
54144,note_on,,,,,4,0,7,,,,,6,,,49,60
54236,note_off,,,,,92,0,1,,,,,0,,,76,0
54236,note_off,,,,,92,0,3,,,,,2,,,76,0
54236,note_off,,,,,92,0,4,,,,,3,,,69,0
54236,note_off,,,,,92,0,2,,,,,1,,,69,0
54240,note_on,,,,,4,0,1,,,,,0,,,76,75
54240,note_on,,,,,4,0,4,,,,,3,,,69,108
54240,note_on,,,,,4,0,2,,,,,1,,,69,75
54240,note_on,,,,,4,0,3,,,,,2,,,76,108
54332,note_off,,,,,188,0,5,,,,,4,,,64,0
54332,note_off,,,,,188,0,6,,,,,5,,,61,0
54332,note_off,,,,,92,0,4,,,,,3,,,69,0
54332,note_off,,,,,188,0,8,,,,,7,,,61,0
54332,note_off,,,,,188,0,7,,,,,6,,,49,0
54332,note_off,,,,,92,0,3,,,,,2,,,76,0
54332,note_off,,,,,92,0,2,,,,,1,,,69,0
54332,note_off,,,,,92,0,1,,,,,0,,,76,0
54336,note_on,,,,,4,0,3,,,,,2,,,67,108
54336,note_on,,,,,4,0,2,,,,,1,,,64,75
54336,note_on,,,,,4,0,1,,,,,0,,,67,75
54336,note_on,,,,,4,0,4,,,,,3,,,64,108
54336,note_on,,,,,4,0,6,,,,,5,,,57,75
54336,note_on,,,,,4,0,8,,,,,7,,,57,45
54336,note_on,,,,,4,0,7,,,,,6,,,45,60
54336,note_on,,,,,4,0,5,,,,,4,,,61,75
54428,note_off,,,,,92,0,3,,,,,2,,,67,0
54428,note_off,,,,,92,0,4,,,,,3,,,64,0
54428,note_off,,,,,92,0,2,,,,,1,,,64,0
54428,note_off,,,,,92,0,1,,,,,0,,,67,0
54432,note_on,,,,,4,0,3,,,,,2,,,67,108
54432,note_on,,,,,4,0,4,,,,,3,,,64,108
54432,note_on,,,,,4,0,2,,,,,1,,,64,75
54432,note_on,,,,,4,0,1,,,,,0,,,67,75
54524,note_off,,,,,188,0,6,,,,,5,,,57,0
54524,note_off,,,,,92,0,3,,,,,2,,,67,0
54524,note_off,,,,,188,0,8,,,,,7,,,57,0
54524,note_off,,,,,188,0,7,,,,,6,,,45,0
54524,note_off,,,,,188,0,5,,,,,4,,,61,0
54524,note_off,,,,,92,0,2,,,,,1,,,64,0
54524,note_off,,,,,92,0,1,,,,,0,,,67,0
54524,note_off,,,,,92,0,4,,,,,3,,,64,0
54528,note_on,,,,,4,0,5,,,,,4,,,69,75
54528,note_on,,,,,4,0,1,,,,,0,,,66,75
54528,note_on,,,,,4,0,2,,,,,1,,,86,75
54528,note_on,,,,,4,0,7,,,,,6,,,50,60
54528,note_on,,,,,4,0,4,,,,,3,,,86,108
54528,note_on,,,,,4,0,3,,,,,2,,,66,108
54528,note_on,,,,,4,0,6,,,,,5,,,62,75
54528,note_on,,,,,4,0,8,,,,,7,,,62,45
54620,note_off,,,,,92,0,4,,,,,3,,,86,0
54620,note_off,,,,,92,0,2,,,,,1,,,86,0
54624,note_on,,,,,4,0,4,,,,,3,,,84,108
54624,note_on,,,,,4,0,2,,,,,1,,,84,75
54716,note_off,,,,,92,0,2,,,,,1,,,84,0
54716,note_off,,,,,188,0,7,,,,,6,,,50,0
54716,note_off,,,,,188,0,5,,,,,4,,,69,0
54716,note_off,,,,,188,0,6,,,,,5,,,62,0
54716,note_off,,,,,188,0,8,,,,,7,,,62,0
54716,note_off,,,,,92,0,4,,,,,3,,,84,0
54720,note_on,,,,,4,0,4,,,,,3,,,83,108
54720,note_on,,,,,4,0,2,,,,,1,,,83,75
54720,note_on,,,,,4,0,7,,,,,6,,,38,60
54720,note_on,,,,,4,0,6,,,,,5,,,50,75
54720,note_on,,,,,4,0,5,,,,,4,,,66,75
54720,note_on,,,,,4,0,8,,,,,7,,,50,45
54812,note_off,,,,,92,0,2,,,,,1,,,83,0
54812,note_off,,,,,92,0,4,,,,,3,,,83,0
54816,note_on,,,,,4,0,2,,,,,1,,,81,75
54816,note_on,,,,,4,0,4,,,,,3,,,81,108
54848,note_off,,,,,320,0,3,,,,,2,,,66,0
54848,note_off,,,,,320,0,1,,,,,0,,,66,0
54908,note_off,,,,,188,0,7,,,,,6,,,38,0
54908,note_off,,,,,188,0,6,,,,,5,,,50,0
54908,note_off,,,,,188,0,5,,,,,4,,,66,0
54908,note_off,,,,,92,0,2,,,,,1,,,81,0
54908,note_off,,,,,92,0,4,,,,,3,,,81,0
54908,note_off,,,,,188,0,8,,,,,7,,,50,0
54912,note_on,,,,,4,0,8,,,,,7,,,54,45
54912,note_on,,,,,4,0,6,,,,,5,,,54,75
54912,note_on,,,,,4,0,2,,,,,1,,,79,75
54912,note_on,,,,,4,0,5,,,,,4,,,74,75
54912,note_on,,,,,4,0,4,,,,,3,,,79,108
54912,note_on,,,,,4,0,7,,,,,6,,,42,60
55004,note_off,,,,,92,0,2,,,,,1,,,79,0
55004,note_off,,,,,92,0,4,,,,,3,,,79,0
55008,note_on,,,,,4,0,2,,,,,1,,,78,75
55008,note_on,,,,,4,0,4,,,,,3,,,78,108
55100,note_off,,,,,92,0,2,,,,,1,,,78,0
55100,note_off,,,,,188,0,8,,,,,7,,,54,0
55100,note_off,,,,,188,0,5,,,,,4,,,74,0
55100,note_off,,,,,188,0,6,,,,,5,,,54,0
55100,note_off,,,,,92,0,4,,,,,3,,,78,0
55100,note_off,,,,,188,0,7,,,,,6,,,42,0
55104,note_on,,,,,4,0,4,,,,,3,,,76,108
55104,note_on,,,,,4,0,2,,,,,1,,,76,75
55104,note_on,,,,,4,0,6,,,,,5,,,57,75
55104,note_on,,,,,4,0,7,,,,,6,,,45,60
55104,note_on,,,,,4,0,5,,,,,4,,,69,75
55104,note_on,,,,,4,0,8,,,,,7,,,57,45
55196,note_off,,,,,92,0,4,,,,,3,,,76,0
55196,note_off,,,,,92,0,2,,,,,1,,,76,0
55200,note_on,,,,,4,0,4,,,,,3,,,74,108
55200,note_on,,,,,4,0,2,,,,,1,,,74,75
55292,note_off,,,,,188,0,5,,,,,4,,,69,0
55292,note_off,,,,,92,0,4,,,,,3,,,74,0
55292,note_off,,,,,188,0,6,,,,,5,,,57,0
55292,note_off,,,,,188,0,7,,,,,6,,,45,0
55292,note_off,,,,,188,0,8,,,,,7,,,57,0
55292,note_off,,,,,92,0,2,,,,,1,,,74,0
55296,note_on,,,,,4,0,2,,,,,1,,,66,75
55296,note_on,,,,,4,0,6,,,,,5,,,60,75
55296,note_on,,,,,4,0,7,,,,,6,,,48,60
55296,note_on,,,,,4,0,4,,,,,3,,,66,108
55296,note_on,,,,,448,0,3,,,,,2,,,86,108
55296,note_on,,,,,448,0,1,,,,,0,,,86,75
55296,note_on,,,,,4,0,8,,,,,7,,,60,45
55296,note_on,,,,,4,0,5,,,,,4,,,69,75
55388,note_off,,,,,92,0,4,,,,,3,,,66,0
55388,note_off,,,,,92,0,1,,,,,0,,,86,0
55388,note_off,,,,,92,0,3,,,,,2,,,86,0
55388,note_off,,,,,92,0,2,,,,,1,,,66,0
55392,note_on,,,,,4,0,1,,,,,0,,,84,75
55392,note_on,,,,,4,0,2,,,,,1,,,66,75
55392,note_on,,,,,4,0,3,,,,,2,,,84,108
55392,note_on,,,,,4,0,4,,,,,3,,,66,108
55484,note_off,,,,,188,0,7,,,,,6,,,48,0
55484,note_off,,,,,188,0,6,,,,,5,,,60,0
55484,note_off,,,,,92,0,3,,,,,2,,,84,0
55484,note_off,,,,,92,0,2,,,,,1,,,66,0
55484,note_off,,,,,188,0,8,,,,,7,,,60,0
55484,note_off,,,,,92,0,1,,,,,0,,,84,0
55484,note_off,,,,,92,0,4,,,,,3,,,66,0
55484,note_off,,,,,188,0,5,,,,,4,,,69,0
55488,note_on,,,,,4,0,5,,,,,4,,,69,75
55488,note_on,,,,,4,0,6,,,,,5,,,60,75
55488,note_on,,,,,4,0,1,,,,,0,,,83,75
55488,note_on,,,,,4,0,8,,,,,7,,,60,45
55488,note_on,,,,,4,0,3,,,,,2,,,83,108
55488,note_on,,,,,4,0,7,,,,,6,,,48,60
55488,note_on,,,,,4,0,2,,,,,1,,,66,75
55488,note_on,,,,,4,0,4,,,,,3,,,66,108
55580,note_off,,,,,92,0,2,,,,,1,,,66,0
55580,note_off,,,,,92,0,1,,,,,0,,,83,0
55580,note_off,,,,,92,0,3,,,,,2,,,83,0
55580,note_off,,,,,92,0,4,,,,,3,,,66,0
55584,note_on,,,,,4,0,3,,,,,2,,,81,108
55584,note_on,,,,,4,0,1,,,,,0,,,81,75
55584,note_on,,,,,4,0,2,,,,,1,,,66,75
55584,note_on,,,,,4,0,4,,,,,3,,,66,108
55676,note_off,,,,,188,0,6,,,,,5,,,60,0
55676,note_off,,,,,188,0,8,,,,,7,,,60,0
55676,note_off,,,,,92,0,4,,,,,3,,,66,0
55676,note_off,,,,,188,0,7,,,,,6,,,48,0
55676,note_off,,,,,92,0,1,,,,,0,,,81,0
55676,note_off,,,,,188,0,5,,,,,4,,,69,0
55676,note_off,,,,,92,0,3,,,,,2,,,81,0
55676,note_off,,,,,92,0,2,,,,,1,,,66,0
55680,note_on,,,,,4,0,7,,,,,6,,,48,60
55680,note_on,,,,,4,0,3,,,,,2,,,79,108
55680,note_on,,,,,4,0,8,,,,,7,,,60,45
55680,note_on,,,,,4,0,6,,,,,5,,,60,75
55680,note_on,,,,,4,0,4,,,,,3,,,69,108
55680,note_on,,,,,4,0,1,,,,,0,,,79,75
55680,note_on,,,,,4,0,5,,,,,4,,,74,75
55680,note_on,,,,,4,0,2,,,,,1,,,69,75
55772,note_off,,,,,92,0,2,,,,,1,,,69,0
55772,note_off,,,,,92,0,1,,,,,0,,,79,0
55772,note_off,,,,,92,0,4,,,,,3,,,69,0
55772,note_off,,,,,92,0,3,,,,,2,,,79,0
55776,note_on,,,,,4,0,4,,,,,3,,,69,108
55776,note_on,,,,,4,0,3,,,,,2,,,78,108
55776,note_on,,,,,4,0,1,,,,,0,,,78,75
55776,note_on,,,,,4,0,2,,,,,1,,,69,75
55868,note_off,,,,,188,0,6,,,,,5,,,60,0
55868,note_off,,,,,92,0,4,,,,,3,,,69,0
55868,note_off,,,,,92,0,2,,,,,1,,,69,0
55868,note_off,,,,,188,0,8,,,,,7,,,60,0
55868,note_off,,,,,92,0,1,,,,,0,,,78,0
55868,note_off,,,,,92,0,3,,,,,2,,,78,0
55868,note_off,,,,,188,0,5,,,,,4,,,74,0
55868,note_off,,,,,188,0,7,,,,,6,,,48,0
55872,note_on,,,,,4,0,7,,,,,6,,,48,60
55872,note_on,,,,,4,0,1,,,,,0,,,76,75
55872,note_on,,,,,4,0,5,,,,,4,,,66,75
55872,note_on,,,,,4,0,8,,,,,7,,,60,45
55872,note_on,,,,,4,0,2,,,,,1,,,69,75
55872,note_on,,,,,4,0,3,,,,,2,,,76,108
55872,note_on,,,,,4,0,6,,,,,5,,,60,75
55872,note_on,,,,,4,0,4,,,,,3,,,69,108
55964,note_off,,,,,92,0,3,,,,,2,,,76,0
55964,note_off,,,,,92,0,2,,,,,1,,,69,0
55964,note_off,,,,,92,0,1,,,,,0,,,76,0
55964,note_off,,,,,92,0,4,,,,,3,,,69,0
55968,note_on,,,,,4,0,3,,,,,2,,,74,108
55968,note_on,,,,,4,0,2,,,,,1,,,69,75
55968,note_on,,,,,4,0,4,,,,,3,,,69,108
55968,note_on,,,,,4,0,1,,,,,0,,,74,75
56060,note_off,,,,,92,0,4,,,,,3,,,69,0
56060,note_off,,,,,92,0,2,,,,,1,,,69,0
56060,note_off,,,,,188,0,5,,,,,4,,,66,0
56060,note_off,,,,,92,0,1,,,,,0,,,74,0
56060,note_off,,,,,188,0,6,,,,,5,,,60,0
56060,note_off,,,,,188,0,7,,,,,6,,,48,0
56060,note_off,,,,,92,0,3,,,,,2,,,74,0
56060,note_off,,,,,188,0,8,,,,,7,,,60,0
56064,note_on,,,,,4,0,7,,,,,6,,,47,60
56064,note_on,,,,,4,0,5,,,,,4,,,71,75
56064,note_on,,,,,4,0,4,,,,,3,,,62,108
56064,note_on,,,,,4,0,6,,,,,5,,,59,75
56064,note_on,,,,,4,0,1,,,,,0,,,79,75
56064,note_on,,,,,4,0,3,,,,,2,,,79,108
56064,note_on,,,,,4,0,8,,,,,7,,,59,45
56064,note_on,,,,,4,0,2,,,,,1,,,62,75
56156,note_off,,,,,92,0,3,,,,,2,,,79,0
56156,note_off,,,,,92,0,4,,,,,3,,,62,0
56156,note_off,,,,,92,0,2,,,,,1,,,62,0
56156,note_off,,,,,92,0,1,,,,,0,,,79,0
56160,note_on,,,,,4,0,1,,,,,0,,,78,75
56160,note_on,,,,,4,0,3,,,,,2,,,78,108
56160,note_on,,,,,4,0,4,,,,,3,,,62,108
56160,note_on,,,,,4,0,2,,,,,1,,,62,75
56252,note_off,,,,,92,0,1,,,,,0,,,78,0
56252,note_off,,,,,188,0,5,,,,,4,,,71,0
56252,note_off,,,,,188,0,8,,,,,7,,,59,0
56252,note_off,,,,,92,0,3,,,,,2,,,78,0
56252,note_off,,,,,188,0,6,,,,,5,,,59,0
56252,note_off,,,,,188,0,7,,,,,6,,,47,0
56252,note_off,,,,,92,0,2,,,,,1,,,62,0
56252,note_off,,,,,92,0,4,,,,,3,,,62,0
56256,note_on,,,,,4,0,3,,,,,2,,,76,108
56256,note_on,,,,,4,0,2,,,,,1,,,62,75
56256,note_on,,,,,4,0,7,,,,,6,,,47,60
56256,note_on,,,,,4,0,1,,,,,0,,,76,75
56256,note_on,,,,,4,0,6,,,,,5,,,59,75
56256,note_on,,,,,4,0,8,,,,,7,,,59,45
56256,note_on,,,,,4,0,4,,,,,3,,,62,108
56256,note_on,,,,,4,0,5,,,,,4,,,67,75
56348,note_off,,,,,92,0,2,,,,,1,,,62,0
56348,note_off,,,,,92,0,1,,,,,0,,,76,0
56348,note_off,,,,,92,0,3,,,,,2,,,76,0
56348,note_off,,,,,92,0,4,,,,,3,,,62,0
56352,note_on,,,,,4,0,1,,,,,0,,,74,75
56352,note_on,,,,,4,0,3,,,,,2,,,74,108
56352,note_on,,,,,4,0,2,,,,,1,,,62,75
56352,note_on,,,,,4,0,4,,,,,3,,,62,108
56444,note_off,,,,,188,0,7,,,,,6,,,47,0
56444,note_off,,,,,188,0,6,,,,,5,,,59,0
56444,note_off,,,,,92,0,4,,,,,3,,,62,0
56444,note_off,,,,,92,0,2,,,,,1,,,62,0
56444,note_off,,,,,92,0,3,,,,,2,,,74,0
56444,note_off,,,,,188,0,5,,,,,4,,,67,0
56444,note_off,,,,,188,0,8,,,,,7,,,59,0
56444,note_off,,,,,92,0,1,,,,,0,,,74,0
56448,note_on,,,,,4,0,3,,,,,2,,,72,108
56448,note_on,,,,,4,0,8,,,,,7,,,59,45
56448,note_on,,,,,4,0,1,,,,,0,,,72,75
56448,note_on,,,,,4,0,5,,,,,4,,,62,75
56448,note_on,,,,,4,0,6,,,,,5,,,59,75
56448,note_on,,,,,4,0,4,,,,,3,,,67,108
56448,note_on,,,,,4,0,7,,,,,6,,,47,60
56448,note_on,,,,,4,0,2,,,,,1,,,67,75
56540,note_off,,,,,92,0,2,,,,,1,,,67,0
56540,note_off,,,,,92,0,1,,,,,0,,,72,0
56540,note_off,,,,,92,0,4,,,,,3,,,67,0
56540,note_off,,,,,92,0,3,,,,,2,,,72,0
56544,note_on,,,,,4,0,1,,,,,0,,,71,75
56544,note_on,,,,,4,0,4,,,,,3,,,67,108
56544,note_on,,,,,4,0,3,,,,,2,,,71,108
56544,note_on,,,,,4,0,2,,,,,1,,,67,75
56636,note_off,,,,,92,0,1,,,,,0,,,71,0
56636,note_off,,,,,188,0,7,,,,,6,,,47,0
56636,note_off,,,,,92,0,4,,,,,3,,,67,0
56636,note_off,,,,,92,0,3,,,,,2,,,71,0
56636,note_off,,,,,188,0,8,,,,,7,,,59,0
56636,note_off,,,,,188,0,5,,,,,4,,,62,0
56636,note_off,,,,,92,0,2,,,,,1,,,67,0
56636,note_off,,,,,188,0,6,,,,,5,,,59,0
56640,note_on,,,,,4,0,2,,,,,1,,,67,75
56640,note_on,,,,,4,0,1,,,,,0,,,69,75
56640,note_on,,,,,4,0,4,,,,,3,,,67,108
56640,note_on,,,,,4,0,6,,,,,5,,,59,75
56640,note_on,,,,,4,0,5,,,,,4,,,62,75
56640,note_on,,,,,4,0,8,,,,,7,,,59,45
56640,note_on,,,,,4,0,3,,,,,2,,,69,108
56640,note_on,,,,,4,0,7,,,,,6,,,47,60
56732,note_off,,,,,92,0,2,,,,,1,,,67,0
56732,note_off,,,,,92,0,3,,,,,2,,,69,0
56732,note_off,,,,,92,0,1,,,,,0,,,69,0
56732,note_off,,,,,92,0,4,,,,,3,,,67,0
56736,note_on,,,,,4,0,2,,,,,1,,,67,75
56736,note_on,,,,,4,0,1,,,,,0,,,67,75
56736,note_on,,,,,4,0,3,,,,,2,,,67,108
56736,note_on,,,,,4,0,4,,,,,3,,,67,108
56828,note_off,,,,,92,0,4,,,,,3,,,67,0
56828,note_off,,,,,92,0,3,,,,,2,,,67,0
56828,note_off,,,,,188,0,8,,,,,7,,,59,0
56828,note_off,,,,,188,0,5,,,,,4,,,62,0
56828,note_off,,,,,92,0,2,,,,,1,,,67,0
56828,note_off,,,,,188,0,6,,,,,5,,,59,0
56828,note_off,,,,,92,0,1,,,,,0,,,67,0
56828,note_off,,,,,188,0,7,,,,,6,,,47,0
56832,note_on,,,,,4,0,3,,,,,2,,,69,108
56832,note_on,,,,,4,0,4,,,,,3,,,67,108
56832,note_on,,,,,4,0,7,,,,,6,,,48,60
56832,note_on,,,,,4,0,1,,,,,0,,,69,75
56832,note_on,,,,,4,0,2,,,,,1,,,67,75
56832,note_on,,,,,4,0,8,,,,,7,,,60,45
56832,note_on,,,,,4,0,5,,,,,4,,,64,75
56832,note_on,,,,,4,0,6,,,,,5,,,60,75
56924,note_off,,,,,92,0,2,,,,,1,,,67,0
56924,note_off,,,,,92,0,1,,,,,0,,,69,0
56924,note_off,,,,,92,0,4,,,,,3,,,67,0
56924,note_off,,,,,92,0,3,,,,,2,,,69,0
56928,note_on,,,,,4,0,2,,,,,1,,,67,75
56928,note_on,,,,,4,0,4,,,,,3,,,67,108
56928,note_on,,,,,4,0,3,,,,,2,,,69,108
56928,note_on,,,,,4,0,1,,,,,0,,,69,75
57020,note_off,,,,,188,0,8,,,,,7,,,60,0
57020,note_off,,,,,92,0,1,,,,,0,,,69,0
57020,note_off,,,,,188,0,7,,,,,6,,,48,0
57020,note_off,,,,,92,0,4,,,,,3,,,67,0
57020,note_off,,,,,92,0,3,,,,,2,,,69,0
57020,note_off,,,,,92,0,2,,,,,1,,,67,0
57020,note_off,,,,,188,0,6,,,,,5,,,60,0
57020,note_off,,,,,188,0,5,,,,,4,,,64,0
57024,note_on,,,,,4,0,7,,,,,6,,,48,60
57024,note_on,,,,,4,0,3,,,,,2,,,76,108
57024,note_on,,,,,4,0,8,,,,,7,,,60,45
57024,note_on,,,,,4,0,5,,,,,4,,,64,75
57024,note_on,,,,,4,0,1,,,,,0,,,76,75
57024,note_on,,,,,4,0,2,,,,,1,,,67,75
57024,note_on,,,,,4,0,4,,,,,3,,,67,108
57024,note_on,,,,,4,0,6,,,,,5,,,60,75
57116,note_off,,,,,92,0,4,,,,,3,,,67,0
57116,note_off,,,,,92,0,2,,,,,1,,,67,0
57116,note_off,,,,,92,0,1,,,,,0,,,76,0
57116,note_off,,,,,92,0,3,,,,,2,,,76,0
57120,note_on,,,,,4,0,1,,,,,0,,,76,75
57120,note_on,,,,,4,0,2,,,,,1,,,67,75
57120,note_on,,,,,4,0,3,,,,,2,,,76,108
57120,note_on,,,,,4,0,4,,,,,3,,,67,108
57212,note_off,,,,,188,0,7,,,,,6,,,48,0
57212,note_off,,,,,188,0,8,,,,,7,,,60,0
57212,note_off,,,,,188,0,6,,,,,5,,,60,0
57212,note_off,,,,,92,0,2,,,,,1,,,67,0
57212,note_off,,,,,92,0,4,,,,,3,,,67,0
57212,note_off,,,,,188,0,5,,,,,4,,,64,0
57212,note_off,,,,,92,0,3,,,,,2,,,76,0
57212,note_off,,,,,92,0,1,,,,,0,,,76,0
57216,note_on,,,,,4,0,4,,,,,3,,,66,108
57216,note_on,,,,,4,0,6,,,,,5,,,62,75
57216,note_on,,,,,4,0,1,,,,,0,,,74,75
57216,note_on,,,,,4,0,8,,,,,7,,,62,45
57216,note_on,,,,,4,0,3,,,,,2,,,74,108
57216,note_on,,,,,4,0,7,,,,,6,,,50,60
57216,note_on,,,,,4,0,5,,,,,4,,,69,75
57216,note_on,,,,,4,0,2,,,,,1,,,66,75
57308,note_off,,,,,92,0,3,,,,,2,,,74,0
57308,note_off,,,,,92,0,4,,,,,3,,,66,0
57308,note_off,,,,,92,0,2,,,,,1,,,66,0
57308,note_off,,,,,92,0,1,,,,,0,,,74,0
57312,note_on,,,,,4,0,2,,,,,1,,,66,75
57312,note_on,,,,,4,0,4,,,,,3,,,66,108
57312,note_on,,,,,4,0,1,,,,,0,,,74,75
57312,note_on,,,,,4,0,3,,,,,2,,,74,108
57404,note_off,,,,,188,0,5,,,,,4,,,69,0
57404,note_off,,,,,92,0,2,,,,,1,,,66,0
57404,note_off,,,,,92,0,4,,,,,3,,,66,0
57404,note_off,,,,,92,0,1,,,,,0,,,74,0
57404,note_off,,,,,188,0,6,,,,,5,,,62,0
57404,note_off,,,,,92,0,3,,,,,2,,,74,0
57404,note_off,,,,,188,0,8,,,,,7,,,62,0
57404,note_off,,,,,188,0,7,,,,,6,,,50,0
57408,note_on,,,,,4,0,3,,,,,2,,,81,108
57408,note_on,,,,,4,0,2,,,,,1,,,66,75
57408,note_on,,,,,4,0,5,,,,,4,,,69,75
57408,note_on,,,,,4,0,1,,,,,0,,,81,75
57408,note_on,,,,,4,0,8,,,,,7,,,62,45
57408,note_on,,,,,4,0,4,,,,,3,,,66,108
57408,note_on,,,,,4,0,6,,,,,5,,,62,75
57408,note_on,,,,,4,0,7,,,,,6,,,50,60
57500,note_off,,,,,92,0,4,,,,,3,,,66,0
57500,note_off,,,,,92,0,2,,,,,1,,,66,0
57500,note_off,,,,,92,0,3,,,,,2,,,81,0
57500,note_off,,,,,92,0,1,,,,,0,,,81,0
57504,note_on,,,,,4,0,4,,,,,3,,,66,108
57504,note_on,,,,,4,0,1,,,,,0,,,81,75
57504,note_on,,,,,4,0,2,,,,,1,,,66,75
57504,note_on,,,,,4,0,3,,,,,2,,,81,108
57596,note_off,,,,,188,0,7,,,,,6,,,50,0
57596,note_off,,,,,188,0,5,,,,,4,,,69,0
57596,note_off,,,,,92,0,4,,,,,3,,,66,0
57596,note_off,,,,,92,0,2,,,,,1,,,66,0
57596,note_off,,,,,92,0,3,,,,,2,,,81,0
57596,note_off,,,,,188,0,6,,,,,5,,,62,0
57596,note_off,,,,,92,0,1,,,,,0,,,81,0
57596,note_off,,,,,188,0,8,,,,,7,,,62,0
57600,note_on,,,,,4,0,8,,,,,7,,,59,45
57600,note_on,,,,,4,0,6,,,,,5,,,59,75
57600,note_on,,,,,4,0,4,,,,,3,,,74,108
57600,note_on,,,,,4,0,7,,,,,6,,,47,60
57600,note_on,,,,,4,0,2,,,,,1,,,74,75
57600,note_on,,,,,4,0,1,,,,,0,,,79,75
57600,note_on,,,,,4,0,5,,,,,4,,,71,75
57600,note_on,,,,,4,0,3,,,,,2,,,79,108
57692,note_off,,,,,92,0,2,,,,,1,,,74,0
57692,note_off,,,,,92,0,1,,,,,0,,,79,0
57692,note_off,,,,,92,0,4,,,,,3,,,74,0
57692,note_off,,,,,92,0,3,,,,,2,,,79,0
57696,note_on,,,,,4,0,3,,,,,2,,,79,108
57696,note_on,,,,,4,0,4,,,,,3,,,74,108
57696,note_on,,,,,4,0,1,,,,,0,,,79,75
57696,note_on,,,,,4,0,2,,,,,1,,,74,75
57788,note_off,,,,,92,0,3,,,,,2,,,79,0
57788,note_off,,,,,188,0,6,,,,,5,,,59,0
57788,note_off,,,,,92,0,4,,,,,3,,,74,0
57788,note_off,,,,,188,0,7,,,,,6,,,47,0
57788,note_off,,,,,188,0,8,,,,,7,,,59,0
57788,note_off,,,,,92,0,2,,,,,1,,,74,0
57788,note_off,,,,,188,0,5,,,,,4,,,71,0
57788,note_off,,,,,92,0,1,,,,,0,,,79,0
57792,note_on,,,,,4,0,6,,,,,5,,,55,75
57792,note_on,,,,,4,0,7,,,,,6,,,43,60
57792,note_on,,,,,4,0,5,,,,,4,,,74,75
57792,note_on,,,,,4,0,8,,,,,7,,,55,45
57792,note_on,,,,,4,0,2,,,,,1,,,79,75
57792,note_on,,,,,4,0,3,,,,,2,,,83,108
57792,note_on,,,,,4,0,4,,,,,3,,,79,108
57792,note_on,,,,,4,0,1,,,,,0,,,83,75
57884,note_off,,,,,92,0,2,,,,,1,,,79,0
57884,note_off,,,,,92,0,1,,,,,0,,,83,0
57884,note_off,,,,,92,0,3,,,,,2,,,83,0
57884,note_off,,,,,92,0,4,,,,,3,,,79,0
57888,note_on,,,,,4,0,3,,,,,2,,,83,108
57888,note_on,,,,,4,0,4,,,,,3,,,79,108
57888,note_on,,,,,4,0,1,,,,,0,,,83,75
57888,note_on,,,,,4,0,2,,,,,1,,,79,75
57980,note_off,,,,,188,0,5,,,,,4,,,74,0
57980,note_off,,,,,188,0,6,,,,,5,,,55,0
57980,note_off,,,,,92,0,4,,,,,3,,,79,0
57980,note_off,,,,,188,0,8,,,,,7,,,55,0
57980,note_off,,,,,92,0,1,,,,,0,,,83,0
57980,note_off,,,,,188,0,7,,,,,6,,,43,0
57980,note_off,,,,,92,0,3,,,,,2,,,83,0
57980,note_off,,,,,92,0,2,,,,,1,,,79,0
57984,note_on,,,,,4,0,1,,,,,0,,,81,75
57984,note_on,,,,,4,0,5,,,,,4,,,76,75
57984,note_on,,,,,4,0,8,,,,,7,,,48,45
57984,note_on,,,,,4,0,4,,,,,3,,,79,108
57984,note_on,,,,,4,0,3,,,,,2,,,81,108
57984,note_on,,,,,4,0,2,,,,,1,,,79,75
57984,note_on,,,,,4,0,7,,,,,6,,,36,60
57984,note_on,,,,,4,0,6,,,,,5,,,48,75
58076,note_off,,,,,92,0,1,,,,,0,,,81,0
58076,note_off,,,,,92,0,2,,,,,1,,,79,0
58076,note_off,,,,,92,0,3,,,,,2,,,81,0
58076,note_off,,,,,92,0,4,,,,,3,,,79,0
58080,note_on,,,,,4,0,1,,,,,0,,,81,75
58080,note_on,,,,,4,0,4,,,,,3,,,79,108
58080,note_on,,,,,4,0,2,,,,,1,,,79,75
58080,note_on,,,,,4,0,3,,,,,2,,,81,108
58172,note_off,,,,,92,0,3,,,,,2,,,81,0
58172,note_off,,,,,92,0,4,,,,,3,,,79,0
58172,note_off,,,,,188,0,7,,,,,6,,,36,0
58172,note_off,,,,,92,0,2,,,,,1,,,79,0
58172,note_off,,,,,92,0,1,,,,,0,,,81,0
58172,note_off,,,,,188,0,6,,,,,5,,,48,0
58172,note_off,,,,,188,0,8,,,,,7,,,48,0
58172,note_off,,,,,188,0,5,,,,,4,,,76,0
58176,note_on,,,,,4,0,5,,,,,4,,,74,75
58176,note_on,,,,,4,0,1,,,,,0,,,84,75
58176,note_on,,,,,4,0,6,,,,,5,,,50,75
58176,note_on,,,,,4,0,7,,,,,6,,,38,60
58176,note_on,,,,,4,0,3,,,,,2,,,84,108
58176,note_on,,,,,4,0,8,,,,,7,,,50,45
58176,note_on,,,,,4,0,2,,,,,1,,,78,75
58176,note_on,,,,,4,0,4,,,,,3,,,78,108
58268,note_off,,,,,92,0,1,,,,,0,,,84,0
58268,note_off,,,,,92,0,4,,,,,3,,,78,0
58268,note_off,,,,,92,0,3,,,,,2,,,84,0
58268,note_off,,,,,92,0,2,,,,,1,,,78,0
58272,note_on,,,,,4,0,4,,,,,3,,,78,108
58272,note_on,,,,,4,0,1,,,,,0,,,84,75
58272,note_on,,,,,4,0,3,,,,,2,,,84,108
58272,note_on,,,,,4,0,2,,,,,1,,,78,75
58364,note_off,,,,,188,0,8,,,,,7,,,50,0
58364,note_off,,,,,92,0,2,,,,,1,,,78,0
58364,note_off,,,,,188,0,5,,,,,4,,,74,0
58364,note_off,,,,,92,0,3,,,,,2,,,84,0
58364,note_off,,,,,188,0,6,,,,,5,,,50,0
58364,note_off,,,,,92,0,4,,,,,3,,,78,0
58364,note_off,,,,,188,0,7,,,,,6,,,38,0
58364,note_off,,,,,92,0,1,,,,,0,,,84,0
58368,note_on,,,,,4,0,5,,,,,4,,,74,75
58368,note_on,,,,,4,0,8,,,,,7,,,55,45
58368,note_on,,,,,4,0,1,,,,,0,,,83,75
58368,set_tempo,,,,,27648,1,0,,937500,,,,,,,
58368,note_on,,,,,4,0,2,,,,,1,,,79,75
58368,note_on,,,,,4,0,6,,,,,5,,,55,75
58368,note_on,,,,,4,0,7,,,,,6,,,43,60
58368,note_on,,,,,4,0,4,,,,,3,,,79,108
58368,note_on,,,,,4,0,3,,,,,2,,,83,108
58460,note_off,,,,,92,0,2,,,,,1,,,79,0
58460,note_off,,,,,92,0,1,,,,,0,,,83,0
58460,note_off,,,,,92,0,4,,,,,3,,,79,0
58460,note_off,,,,,92,0,3,,,,,2,,,83,0
58464,note_on,,,,,4,0,2,,,,,1,,,79,75
58464,note_on,,,,,4,0,4,,,,,3,,,79,108
58464,note_on,,,,,4,0,1,,,,,0,,,83,75
58464,note_on,,,,,4,0,3,,,,,2,,,83,108
58556,note_off,,,,,188,0,8,,,,,7,,,55,0
58556,note_off,,,,,92,0,1,,,,,0,,,83,0
58556,note_off,,,,,92,0,2,,,,,1,,,79,0
58556,note_off,,,,,188,0,7,,,,,6,,,43,0
58556,note_off,,,,,92,0,4,,,,,3,,,79,0
58556,note_off,,,,,188,0,6,,,,,5,,,55,0
58556,note_off,,,,,92,0,3,,,,,2,,,83,0
58556,note_off,,,,,188,0,5,,,,,4,,,74,0
58560,note_on,,,,,4,0,8,,,,,7,,,54,45
58560,note_on,,,,,4,0,7,,,,,6,,,42,60
58560,note_on,,,,,4,0,1,,,,,0,,,86,75
58560,note_on,,,,,4,0,5,,,,,4,,,69,75
58560,note_on,,,,,4,0,6,,,,,5,,,54,75
58560,note_on,,,,,4,0,3,,,,,2,,,86,108
58560,note_on,,,,,4,0,4,,,,,3,,,74,108
58560,note_on,,,,,4,0,2,,,,,1,,,74,75
58652,note_off,,,,,92,0,4,,,,,3,,,74,0
58652,note_off,,,,,92,0,2,,,,,1,,,74,0
58652,note_off,,,,,92,0,1,,,,,0,,,86,0
58652,note_off,,,,,92,0,3,,,,,2,,,86,0
58656,note_on,,,,,4,0,3,,,,,2,,,86,108
58656,note_on,,,,,4,0,1,,,,,0,,,86,75
58656,note_on,,,,,4,0,4,,,,,3,,,74,108
58656,note_on,,,,,4,0,2,,,,,1,,,74,75
58748,note_off,,,,,188,0,7,,,,,6,,,42,0
58748,note_off,,,,,92,0,3,,,,,2,,,86,0
58748,note_off,,,,,92,0,1,,,,,0,,,86,0
58748,note_off,,,,,92,0,2,,,,,1,,,74,0
58748,note_off,,,,,92,0,4,,,,,3,,,74,0
58748,note_off,,,,,188,0,6,,,,,5,,,54,0
58748,note_off,,,,,188,0,5,,,,,4,,,69,0
58748,note_off,,,,,188,0,8,,,,,7,,,54,0
58752,note_on,,,,,4,0,8,,,,,7,,,52,45
58752,note_on,,,,,4,0,4,,,,,3,,,79,108
58752,note_on,,,,,4,0,7,,,,,6,,,40,60
58752,note_on,,,,,4,0,1,,,,,0,,,85,75
58752,note_on,,,,,4,0,5,,,,,4,,,67,75
58752,set_tempo,,,,,384,1,0,,967741,,,,,,,
58752,note_on,,,,,4,0,6,,,,,5,,,52,75
58752,note_on,,,,,4,0,2,,,,,1,,,79,75
58752,note_on,,,,,4,0,3,,,,,2,,,85,108
58844,note_off,,,,,92,0,4,,,,,3,,,79,0
58844,note_off,,,,,92,0,3,,,,,2,,,85,0
58844,note_off,,,,,92,0,2,,,,,1,,,79,0
58844,note_off,,,,,92,0,1,,,,,0,,,85,0
58848,note_on,,,,,4,0,2,,,,,1,,,79,75
58848,note_on,,,,,4,0,3,,,,,2,,,85,108
58848,note_on,,,,,4,0,4,,,,,3,,,79,108
58848,note_on,,,,,4,0,1,,,,,0,,,85,75
58940,note_off,,,,,92,0,1,,,,,0,,,85,0
58940,note_off,,,,,188,0,5,,,,,4,,,67,0
58940,note_off,,,,,92,0,4,,,,,3,,,79,0
58940,note_off,,,,,92,0,2,,,,,1,,,79,0
58940,note_off,,,,,92,0,3,,,,,2,,,85,0
58940,note_off,,,,,188,0,6,,,,,5,,,52,0
58940,note_off,,,,,188,0,8,,,,,7,,,52,0
58940,note_off,,,,,188,0,7,,,,,6,,,40,0
58944,note_on,,,,,4,0,6,,,,,5,,,50,75
58944,note_on,,,,,4,0,2,,,,,1,,,78,75
58944,note_on,,,,,4,0,4,,,,,3,,,78,108
58944,note_on,,,,,4,0,5,,,,,4,,,69,75
58944,note_on,,,,,4,0,8,,,,,7,,,50,45
58944,note_on,,,,,4,0,1,,,,,0,,,86,75
58944,note_on,,,,,4,0,3,,,,,2,,,86,108
58944,note_on,,,,,4,0,7,,,,,6,,,38,60
59036,note_off,,,,,92,0,3,,,,,2,,,86,0
59036,note_off,,,,,92,0,4,,,,,3,,,78,0
59036,note_off,,,,,92,0,2,,,,,1,,,78,0
59036,note_off,,,,,92,0,1,,,,,0,,,86,0
59040,note_on,,,,,4,0,1,,,,,0,,,86,75
59040,note_on,,,,,4,0,3,,,,,2,,,86,108
59040,note_on,,,,,4,0,4,,,,,3,,,78,108
59040,note_on,,,,,4,0,2,,,,,1,,,78,75
59132,note_off,,,,,188,0,7,,,,,6,,,38,0
59132,note_off,,,,,188,0,8,,,,,7,,,50,0
59132,note_off,,,,,92,0,4,,,,,3,,,78,0
59132,note_off,,,,,92,0,3,,,,,2,,,86,0
59132,note_off,,,,,188,0,6,,,,,5,,,50,0
59132,note_off,,,,,92,0,1,,,,,0,,,86,0
59132,note_off,,,,,92,0,2,,,,,1,,,78,0
59132,note_off,,,,,188,0,5,,,,,4,,,69,0
59136,set_tempo,,,,,384,1,0,,1000000,,,,,,,
59136,note_on,,,,,4,0,8,,,,,7,,,49,45
59136,note_on,,,,,4,0,3,,,,,2,,,88,108
59136,note_on,,,,,4,0,1,,,,,0,,,88,75
59136,note_on,,,,,4,0,7,,,,,6,,,37,60
59136,note_on,,,,,4,0,4,,,,,3,,,76,108
59136,note_on,,,,,4,0,6,,,,,5,,,49,75
59136,note_on,,,,,4,0,2,,,,,1,,,76,75
59136,note_on,,,,,4,0,5,,,,,4,,,69,75
59228,note_off,,,,,92,0,1,,,,,0,,,88,0
59228,note_off,,,,,92,0,3,,,,,2,,,88,0
59232,note_on,,,,,4,0,1,,,,,0,,,88,75
59232,note_on,,,,,4,0,3,,,,,2,,,88,108
59324,note_off,,,,,92,0,1,,,,,0,,,88,0
59324,note_off,,,,,92,0,3,,,,,2,,,88,0
59328,note_on,,,,,4,0,1,,,,,0,,,79,75
59328,note_on,,,,,4,0,3,,,,,2,,,79,108
59420,note_off,,,,,92,0,3,,,,,2,,,79,0
59420,note_off,,,,,92,0,1,,,,,0,,,79,0
59424,note_on,,,,,4,0,3,,,,,2,,,79,108
59424,note_on,,,,,4,0,1,,,,,0,,,79,75
59456,note_off,,,,,320,0,8,,,,,7,,,49,0
59456,note_off,,,,,320,0,5,,,,,4,,,69,0
59456,note_off,,,,,320,0,2,,,,,1,,,76,0
59456,note_off,,,,,320,0,6,,,,,5,,,49,0
59456,note_off,,,,,320,0,4,,,,,3,,,76,0
59456,note_off,,,,,320,0,7,,,,,6,,,37,0
59516,note_off,,,,,92,0,3,,,,,2,,,79,0
59516,note_off,,,,,92,0,1,,,,,0,,,79,0
59520,note_on,,,,,64,0,8,,,,,7,,,49,45
59520,set_tempo,,,,,384,1,0,,1090909,,,,,,,
59520,note_on,,,,,64,0,7,,,,,6,,,37,60
59520,note_on,,,,,64,0,6,,,,,5,,,49,75
59520,note_on,,,,,4,0,1,,,,,0,,,69,75
59520,note_on,,,,,4,0,3,,,,,2,,,69,108
59612,note_off,,,,,92,0,1,,,,,0,,,69,0
59612,note_off,,,,,92,0,3,,,,,2,,,69,0
59616,note_on,,,,,4,0,1,,,,,0,,,69,75
59616,note_on,,,,,4,0,3,,,,,2,,,69,108
59708,note_off,,,,,92,0,3,,,,,2,,,69,0
59708,note_off,,,,,188,0,6,,,,,5,,,49,0
59708,note_off,,,,,92,0,1,,,,,0,,,69,0
59708,note_off,,,,,188,0,7,,,,,6,,,37,0
59708,note_off,,,,,188,0,8,,,,,7,,,49,0
59712,note_on,,,,,4,0,6,,,,,5,,,57,75
59712,note_on,,,,,256,0,5,,,,,4,,,69,75
59712,note_on,,,,,256,0,4,,,,,3,,,64,108
59712,note_on,,,,,4,0,1,,,,,0,,,73,75
59712,note_on,,,,,4,0,7,,,,,6,,,45,60
59712,note_on,,,,,4,0,3,,,,,2,,,73,108
59712,note_on,,,,,256,0,2,,,,,1,,,64,75
59712,note_on,,,,,4,0,8,,,,,7,,,57,45
59804,note_off,,,,,92,0,3,,,,,2,,,73,0
59804,note_off,,,,,92,0,1,,,,,0,,,73,0
59808,note_on,,,,,4,0,3,,,,,2,,,73,108
59808,note_on,,,,,4,0,1,,,,,0,,,73,75
59900,note_off,,,,,188,0,6,,,,,5,,,57,0
59900,note_off,,,,,188,0,5,,,,,4,,,69,0
59900,note_off,,,,,188,0,4,,,,,3,,,64,0
59900,note_off,,,,,92,0,3,,,,,2,,,73,0
59900,note_off,,,,,188,0,8,,,,,7,,,57,0
59900,note_off,,,,,92,0,1,,,,,0,,,73,0
59900,note_off,,,,,188,0,2,,,,,1,,,64,0
59900,note_off,,,,,188,0,7,,,,,6,,,45,0
59904,end_of_track,,,,,0,1,0,,,,,,,,,
59904,note_on,,,,,4,0,2,,,,,1,,,74,75
59904,set_tempo,,,,,384,1,0,,1200000,,,,,,,
59904,note_on,,,,,4,0,6,,,,,5,,,59,75
59904,note_on,,,,,4,0,1,,,,,0,,,74,75
59904,note_on,,,,,4,0,3,,,,,2,,,74,108
59904,note_on,,,,,4,0,7,,,,,6,,,47,60
59904,note_on,,,,,4,0,5,,,,,4,,,66,75
59904,note_on,,,,,4,0,4,,,,,3,,,74,108
59904,note_on,,,,,4,0,8,,,,,7,,,59,45
60092,note_off,,,,,188,0,3,,,,,2,,,74,0
60092,note_off,,,,,188,0,6,,,,,5,,,59,0
60092,note_off,,,,,188,0,2,,,,,1,,,74,0
60092,note_off,,,,,188,0,5,,,,,4,,,66,0
60092,note_off,,,,,188,0,8,,,,,7,,,59,0
60092,note_off,,,,,188,0,1,,,,,0,,,74,0
60092,note_off,,,,,188,0,4,,,,,3,,,74,0
60092,note_off,,,,,188,0,7,,,,,6,,,47,0
60096,note_on,,,,,4,0,2,,,,,1,,,74,75
60096,note_on,,,,,4,0,5,,,,,4,,,71,75
60096,note_on,,,,,4,0,4,,,,,3,,,74,108
60096,note_on,,,,,4,0,3,,,,,2,,,79,108
60096,note_on,,,,,4,0,8,,,,,7,,,55,45
60096,note_on,,,,,4,0,7,,,,,6,,,43,60
60096,note_on,,,,,4,0,6,,,,,5,,,55,75
60096,note_on,,,,,4,0,1,,,,,0,,,79,75
60284,note_off,,,,,188,0,7,,,,,6,,,43,0
60284,note_off,,,,,188,0,5,,,,,4,,,71,0
60284,note_off,,,,,188,0,6,,,,,5,,,55,0
60284,note_off,,,,,188,0,2,,,,,1,,,74,0
60284,note_off,,,,,188,0,4,,,,,3,,,74,0
60284,note_off,,,,,188,0,1,,,,,0,,,79,0
60284,note_off,,,,,188,0,3,,,,,2,,,79,0
60284,note_off,,,,,188,0,8,,,,,7,,,55,0
60288,note_on,,,,,4,0,7,,,,,6,,,45,60
60288,note_on,,,,,4,0,2,,,,,1,,,74,75
60288,note_on,,,,,4,0,8,,,,,7,,,57,45
60288,note_on,,,,,4,0,3,,,,,2,,,78,108
60288,note_on,,,,,4,0,1,,,,,0,,,78,75
60288,note_on,,,,,4,0,5,,,,,4,,,69,75
60288,note_on,,,,,4,0,4,,,,,3,,,74,108
60288,note_on,,,,,4,0,6,,,,,5,,,57,75
60476,note_off,,,,,188,0,8,,,,,7,,,57,0
60476,note_off,,,,,188,0,1,,,,,0,,,78,0
60476,note_off,,,,,188,0,6,,,,,5,,,57,0
60476,note_off,,,,,188,0,3,,,,,2,,,78,0
60476,note_off,,,,,188,0,2,,,,,1,,,74,0
60476,note_off,,,,,188,0,4,,,,,3,,,74,0
60476,note_off,,,,,188,0,7,,,,,6,,,45,0
60476,note_off,,,,,188,0,5,,,,,4,,,69,0
60480,note_on,,,,,4,0,5,,,,,4,,,67,75
60480,note_on,,,,,4,0,8,,,,,7,,,45,45
60480,note_on,,,,,4,0,4,,,,,3,,,73,108
60480,note_on,,,,,4,0,7,,,,,6,,,33,60
60480,note_on,,,,,4,0,6,,,,,5,,,45,75
60480,note_on,,,,,4,0,1,,,,,0,,,76,75
60480,note_on,,,,,4,0,2,,,,,1,,,73,75
60480,note_on,,,,,4,0,3,,,,,2,,,76,108
60668,note_off,,,,,188,0,6,,,,,5,,,45,0
60668,note_off,,,,,188,0,3,,,,,2,,,76,0
60668,note_off,,,,,188,0,7,,,,,6,,,33,0
60668,note_off,,,,,188,0,4,,,,,3,,,73,0
60668,note_off,,,,,188,0,1,,,,,0,,,76,0
60668,note_off,,,,,188,0,2,,,,,1,,,73,0
60668,note_off,,,,,188,0,8,,,,,7,,,45,0
60668,note_off,,,,,188,0,5,,,,,4,,,67,0
60672,note_on,,,,,4,0,4,,,,,3,,,74,108
60672,note_on,,,,,4,0,8,,,,,7,,,50,45
60672,note_on,,,,,4,0,2,,,,,1,,,74,75
60672,note_on,,,,,4,0,6,,,,,5,,,50,75
60672,note_on,,,,,4,0,7,,,,,6,,,38,60
60672,note_on,,,,,4,0,3,,,,,2,,,74,108
60672,note_on,,,,,4,0,5,,,,,4,,,66,75
60672,note_on,,,,,4,0,1,,,,,0,,,74,75
61344,note_off,,,,,672,0,4,,,,,3,,,74,0
61344,end_of_track,,,,,0,1,1,,,,,,,,,
61344,end_of_track,,,,,0,1,8,,,,,,,,,
61344,note_off,,,,,672,0,8,,,,,7,,,50,0
61344,end_of_track,,,,,0,1,7,,,,,,,,,
61344,note_off,,,,,672,0,7,,,,,6,,,38,0
61344,end_of_track,,,,,0,1,4,,,,,,,,,
61344,note_off,,,,,672,0,2,,,,,1,,,74,0
61344,end_of_track,,,,,0,1,2,,,,,,,,,
61344,end_of_track,,,,,0,1,5,,,,,,,,,
61344,note_off,,,,,672,0,5,,,,,4,,,66,0
61344,end_of_track,,,,,0,1,3,,,,,,,,,
61344,end_of_track,,,,,0,1,6,,,,,,,,,
61344,note_off,,,,,672,0,6,,,,,5,,,50,0
61344,note_off,,,,,672,0,1,,,,,0,,,74,0
61344,note_off,,,,,672,0,3,,,,,2,,,74,0
