tick,type,numerator,denominator,clocks_per_click,notated_32nd_notes_per_beat,time,meta,track,data,tempo,control,value,channel,program,key,note,velocity
0,time_signature,3,2,96,8,0,1,0,,,,,,,,,
0,control_change,,,,,0,0,5,,,10,109,3,,,,
0,control_change,,,,,0,0,5,,,7,127,3,,,,
0,program_change,,,,,0,0,5,,,,,3,48,,,
0,key_signature,,,,,0,1,5,,,,,,,Bb,,
0,track_name,,,,,0,1,6,,,,,,,,,
0,control_change,,,,,0,0,6,,,0,0,4,,,,
0,key_signature,,,,,0,1,16,,,,,,,C,,
0,control_change,,,,,0,0,6,,,7,127,4,,,,
0,program_change,,,,,0,0,6,,,,,4,41,,,
0,key_signature,,,,,0,1,6,,,,,,,Bb,,
0,track_name,,,,,0,1,7,,,,,,,,,
0,control_change,,,,,0,0,7,,,0,0,5,,,,
0,control_change,,,,,0,0,7,,,10,63,5,,,,
0,control_change,,,,,0,0,7,,,7,127,5,,,,
0,program_change,,,,,0,0,7,,,,,5,42,,,
0,control_change,,,,,0,0,5,,,0,0,3,,,,
0,key_signature,,,,,0,1,7,,,,,,,Bb,,
0,track_name,,,,,0,1,5,,,,,,,,,
0,program_change,,,,,0,0,4,,,,,2,48,,,
0,control_change,,,,,0,0,2,,,10,109,1,,,,
0,control_change,,,,,0,0,2,,,7,127,1,,,,
0,program_change,,,,,0,0,2,,,,,1,40,,,
0,key_signature,,,,,0,1,2,,,,,,,Bb,,
0,track_name,,,,,0,1,3,,,,,,,,,
0,control_change,,,,,0,0,3,,,0,0,10,,,,
0,control_change,,,,,0,0,3,,,10,24,10,,,,
0,control_change,,,,,0,0,3,,,7,127,10,,,,
0,program_change,,,,,0,0,3,,,,,10,42,,,
0,key_signature,,,,,0,1,3,,,,,,,Bb,,
0,note_on,,,,,0,0,3,,,,,10,,,43,92
0,track_name,,,,,0,1,4,,,,,,,,,
0,control_change,,,,,0,0,4,,,0,0,2,,,,
0,control_change,,,,,0,0,4,,,10,24,2,,,,
0,control_change,,,,,0,0,4,,,7,127,2,,,,
0,key_signature,,,,,0,1,4,,,,,,,Bb,,
0,control_change,,,,,0,0,2,,,0,0,1,,,,
0,note_on,,,,,0,0,7,,,,,5,,,43,92
0,control_change,,,,,0,0,8,,,0,0,6,,,,
0,key_signature,,,,,0,1,11,,,,,,,C,,
0,end_of_track,,,,,0,1,11,,,,,,,,,
0,track_name,,,,,0,1,12,,,,,,,,,
0,key_signature,,,,,0,1,12,,,,,,,C,,
0,end_of_track,,,,,0,1,12,,,,,,,,,
0,track_name,,,,,0,1,13,,,,,,,,,
0,key_signature,,,,,0,1,13,,,,,,,C,,
0,end_of_track,,,,,0,1,13,,,,,,,,,
0,track_name,,,,,0,1,14,,,,,,,,,
0,key_signature,,,,,0,1,14,,,,,,,C,,
0,end_of_track,,,,,0,1,14,,,,,,,,,
0,track_name,,,,,0,1,15,,,,,,,,,
0,key_signature,,,,,0,1,15,,,,,,,C,,
0,end_of_track,,,,,0,1,15,,,,,,,,,
0,track_name,,,,,0,1,16,,,,,,,,,
0,track_name,,,,,0,1,11,,,,,,,,,
0,track_name,,,,,0,1,8,,,,,,,,,
0,note_on,,,,,0,0,10,,,,,8,,,43,70
0,program_change,,,,,0,0,10,,,,,8,6,,,
0,control_change,,,,,0,0,8,,,10,64,6,,,,
0,control_change,,,,,0,0,8,,,7,127,6,,,,
0,program_change,,,,,0,0,8,,,,,6,43,,,
0,key_signature,,,,,0,1,8,,,,,,,Bb,,
0,note_on,,,,,0,0,8,,,,,6,,,31,75
0,track_name,,,,,0,1,9,,,,,,,,,
0,control_change,,,,,0,0,9,,,0,0,7,,,,
0,control_change,,,,,0,0,9,,,10,74,7,,,,
0,control_change,,,,,0,0,9,,,7,127,7,,,,
0,program_change,,,,,0,0,9,,,,,7,6,,,
0,key_signature,,,,,0,1,9,,,,,,,Bb,,
0,track_name,,,,,0,1,10,,,,,,,,,
0,control_change,,,,,0,0,10,,,0,0,8,,,,
0,control_change,,,,,0,0,10,,,10,52,8,,,,
0,control_change,,,,,0,0,10,,,7,127,8,,,,
0,key_signature,,,,,0,1,10,,,,,,,Bb,,
0,track_name,,,,,0,1,2,,,,,,,,,
0,control_change,,,,,0,0,6,,,10,109,4,,,,
0,end_of_track,,,,,0,1,16,,,,,,,,,
0,sequencer_specific,,,,,0,1,0,"(0, 0, 65)",,,,,,,,
0,set_tempo,,,,,0,1,0,,681818,,,,,,,
0,track_name,,,,,0,1,1,,,,,,,,,
0,control_change,,,,,0,0,1,,,0,0,0,,,,
0,control_change,,,,,0,0,1,,,10,21,0,,,,
0,control_change,,,,,0,0,1,,,7,127,0,,,,
0,program_change,,,,,0,0,1,,,,,0,40,,,
0,key_signature,,,,,0,1,1,,,,,,,Bb,,
96,note_on,,,,,96,0,10,,,,,8,,,46,70
192,note_on,,,,,96,0,10,,,,,8,,,50,70
288,note_on,,,,,96,0,10,,,,,8,,,55,70
384,note_on,,,,,384,0,9,,,,,7,,,58,70
480,note_on,,,,,96,0,9,,,,,7,,,62,70
576,note_on,,,,,96,0,9,,,,,7,,,67,70
768,note_on,,,,,768,0,6,,,,,4,,,62,92
768,note_on,,,,,768,0,1,,,,,0,,,67,92
768,note_on,,,,,768,0,2,,,,,1,,,62,92
768,note_on,,,,,768,0,4,,,,,2,,,67,108
768,note_on,,,,,768,0,5,,,,,3,,,62,108
1536,note_on,,,,,0,0,4,,,,,2,,,70,108
1536,note_off,,,,,768,0,4,,,,,2,,,67,0
1536,note_on,,,,,0,0,5,,,,,3,,,67,108
1536,note_on,,,,,0,0,10,,,,,8,,,58,60
1536,note_on,,,,,0,0,1,,,,,0,,,70,92
1536,note_off,,,,,768,0,1,,,,,0,,,67,0
1536,note_off,,,,,1248,0,10,,,,,8,,,43,0
1536,note_on,,,,,0,0,10,,,,,8,,,55,60
1536,note_off,,,,,0,0,10,,,,,8,,,55,0
1536,note_off,,,,,768,0,5,,,,,3,,,62,0
1536,note_off,,,,,768,0,6,,,,,4,,,62,0
1536,note_off,,,,,0,0,10,,,,,8,,,46,0
1536,note_on,,,,,0,0,3,,,,,10,,,55,92
1536,note_on,,,,,0,0,9,,,,,7,,,62,60
1536,note_on,,,,,0,0,9,,,,,7,,,67,60
1536,note_on,,,,,0,0,6,,,,,4,,,62,92
1536,note_off,,,,,1536,0,7,,,,,5,,,43,0
1536,note_off,,,,,1536,0,8,,,,,6,,,31,0
1536,note_on,,,,,0,0,8,,,,,6,,,43,75
1536,note_off,,,,,0,0,9,,,,,7,,,67,0
1536,note_off,,,,,0,0,9,,,,,7,,,62,0
1536,note_off,,,,,960,0,9,,,,,7,,,58,0
1536,note_on,,,,,0,0,2,,,,,1,,,67,92
1536,note_off,,,,,768,0,2,,,,,1,,,62,0
1536,note_on,,,,,0,0,7,,,,,5,,,55,92
1536,note_off,,,,,0,0,10,,,,,8,,,50,0
1536,note_off,,,,,1536,0,3,,,,,10,,,43,0
2112,note_off,,,,,576,0,4,,,,,2,,,70,0
2112,note_on,,,,,0,0,4,,,,,2,,,69,108
2112,note_on,,,,,0,0,1,,,,,0,,,69,92
2112,note_off,,,,,576,0,1,,,,,0,,,70,0
2208,note_off,,,,,0,0,9,,,,,7,,,67,0
2208,note_off,,,,,672,0,9,,,,,7,,,62,0
2304,note_on,,,,,0,0,6,,,,,4,,,62,92
2304,note_off,,,,,768,0,5,,,,,3,,,67,0
2304,note_off,,,,,768,0,6,,,,,4,,,62,0
2304,note_on,,,,,0,0,5,,,,,3,,,69,108
2304,note_on,,,,,0,0,1,,,,,0,,,69,92
2304,note_off,,,,,192,0,1,,,,,0,,,69,0
2304,note_off,,,,,768,0,10,,,,,8,,,58,0
2304,note_on,,,,,0,0,10,,,,,8,,,57,60
2304,note_off,,,,,768,0,2,,,,,1,,,67,0
2304,note_on,,,,,0,0,2,,,,,1,,,69,92
2304,note_off,,,,,192,0,4,,,,,2,,,69,0
2304,note_on,,,,,96,0,9,,,,,7,,,62,60
2304,note_on,,,,,0,0,9,,,,,7,,,69,60
2304,note_on,,,,,0,0,4,,,,,2,,,69,108
2976,note_off,,,,,672,0,10,,,,,8,,,55,0
2976,note_off,,,,,0,0,10,,,,,8,,,57,0
3072,note_off,,,,,1536,0,8,,,,,6,,,43,0
3072,note_on,,,,,0,0,8,,,,,6,,,41,75
3072,note_off,,,,,1536,0,3,,,,,10,,,55,0
3072,note_off,,,,,1536,0,7,,,,,5,,,55,0
3072,note_on,,,,,0,0,7,,,,,5,,,53,92
3072,note_on,,,,,96,0,10,,,,,8,,,53,60
3072,note_on,,,,,0,0,3,,,,,10,,,53,92
3744,note_off,,,,,0,0,9,,,,,7,,,69,0
3744,note_off,,,,,1440,0,9,,,,,7,,,62,0
3744,note_off,,,,,672,0,10,,,,,8,,,53,0
3840,note_off,,,,,1536,0,2,,,,,1,,,69,0
3840,note_on,,,,,0,0,2,,,,,1,,,70,92
3840,note_on,,,,,0,0,6,,,,,4,,,65,92
3840,note_on,,,,,0,0,1,,,,,0,,,74,92
3840,note_off,,,,,1536,0,6,,,,,4,,,62,0
3840,note_on,,,,,0,0,4,,,,,2,,,74,108
3840,note_off,,,,,1536,0,4,,,,,2,,,69,0
3840,note_off,,,,,768,0,8,,,,,6,,,41,0
3840,note_on,,,,,0,0,7,,,,,5,,,50,92
3840,note_off,,,,,768,0,3,,,,,10,,,53,0
3840,note_on,,,,,96,0,10,,,,,8,,,50,60
3840,note_off,,,,,768,0,7,,,,,5,,,53,0
3840,note_on,,,,,0,0,5,,,,,3,,,70,108
3840,note_off,,,,,1536,0,5,,,,,3,,,69,0
3840,note_on,,,,,0,0,9,,,,,7,,,70,60
3840,note_on,,,,,96,0,9,,,,,7,,,62,60
3840,note_on,,,,,0,0,3,,,,,10,,,50,92
3840,note_on,,,,,0,0,8,,,,,6,,,38,75
3840,note_off,,,,,1536,0,1,,,,,0,,,69,0
3840,note_on,,,,,0,0,10,,,,,8,,,53,60
4512,note_off,,,,,672,0,9,,,,,7,,,70,0
4512,note_off,,,,,672,0,10,,,,,8,,,50,0
4512,note_off,,,,,0,0,10,,,,,8,,,53,0
4608,note_off,,,,,768,0,8,,,,,6,,,38,0
4608,note_on,,,,,0,0,7,,,,,5,,,51,92
4608,note_on,,,,,0,0,8,,,,,6,,,39,75
4608,note_off,,,,,768,0,7,,,,,5,,,50,0
4608,note_on,,,,,96,0,9,,,,,7,,,67,60
4608,note_on,,,,,0,0,3,,,,,10,,,51,92
4608,note_off,,,,,768,0,3,,,,,10,,,50,0
4608,note_on,,,,,0,0,2,,,,,1,,,67,92
4608,note_off,,,,,768,0,2,,,,,1,,,70,0
4608,note_on,,,,,0,0,10,,,,,8,,,55,60
4608,note_on,,,,,0,0,6,,,,,4,,,63,92
4608,note_off,,,,,768,0,6,,,,,4,,,65,0
4608,note_on,,,,,96,0,10,,,,,8,,,51,60
4608,note_off,,,,,768,0,5,,,,,3,,,70,0
4608,note_on,,,,,0,0,5,,,,,3,,,67,108
5280,note_off,,,,,672,0,9,,,,,7,,,62,0
5376,note_on,,,,,0,0,4,,,,,2,,,72,108
5376,note_off,,,,,1536,0,4,,,,,2,,,74,0
5376,note_on,,,,,96,0,9,,,,,7,,,60,60
5376,note_on,,,,,0,0,1,,,,,0,,,72,92
5376,note_off,,,,,1536,0,1,,,,,0,,,74,0
6144,note_on,,,,,0,0,2,,,,,1,,,67,92
6144,note_off,,,,,1536,0,2,,,,,1,,,67,0
6144,note_off,,,,,1536,0,5,,,,,3,,,67,0
6144,note_on,,,,,0,0,5,,,,,3,,,67,108
6144,note_off,,,,,1536,0,6,,,,,4,,,63,0
6144,note_on,,,,,0,0,6,,,,,4,,,55,92
6528,note_off,,,,,1152,0,1,,,,,0,,,72,0
6528,note_on,,,,,0,0,4,,,,,2,,,74,108
6528,note_on,,,,,0,0,1,,,,,0,,,74,92
6528,note_off,,,,,1152,0,4,,,,,2,,,72,0
6816,note_off,,,,,0,0,9,,,,,7,,,60,0
6816,note_off,,,,,2208,0,10,,,,,8,,,51,0
6816,note_off,,,,,1440,0,9,,,,,7,,,67,0
6816,note_off,,,,,0,0,10,,,,,8,,,55,0
6912,note_on,,,,,0,0,2,,,,,1,,,67,75
6912,note_off,,,,,384,0,4,,,,,2,,,74,0
6912,note_off,,,,,768,0,6,,,,,4,,,55,0
6912,note_on,,,,,0,0,6,,,,,4,,,62,75
6912,note_off,,,,,2304,0,8,,,,,6,,,39,0
6912,note_off,,,,,768,0,5,,,,,3,,,67,0
6912,note_on,,,,,0,0,5,,,,,3,,,67,92
6912,note_on,,,,,0,0,1,,,,,0,,,70,75
6912,note_on,,,,,0,0,7,,,,,5,,,50,75
6912,note_off,,,,,2304,0,7,,,,,5,,,51,0
6912,note_off,,,,,768,0,2,,,,,1,,,67,0
6912,note_on,,,,,0,0,8,,,,,6,,,38,60
6912,note_on,,,,,0,0,4,,,,,2,,,70,92
6912,note_on,,,,,0,0,9,,,,,7,,,67,60
6912,note_on,,,,,96,0,9,,,,,7,,,58,60
6912,note_off,,,,,384,0,1,,,,,0,,,74,0
6912,note_on,,,,,0,0,3,,,,,10,,,50,75
6912,note_off,,,,,2304,0,3,,,,,10,,,51,0
6912,note_on,,,,,96,0,10,,,,,8,,,50,60
7584,note_off,,,,,0,0,9,,,,,7,,,67,0
7584,note_off,,,,,672,0,10,,,,,8,,,50,0
7584,note_off,,,,,672,0,9,,,,,7,,,58,0
7680,note_on,,,,,0,0,9,,,,,7,,,66,60
7680,note_off,,,,,768,0,1,,,,,0,,,70,0
7680,note_on,,,,,0,0,1,,,,,0,,,69,75
7680,note_off,,,,,768,0,4,,,,,2,,,70,0
7680,note_off,,,,,768,0,7,,,,,5,,,50,0
7680,note_on,,,,,0,0,2,,,,,1,,,66,75
7680,note_on,,,,,96,0,10,,,,,8,,,38,60
7680,note_off,,,,,768,0,3,,,,,10,,,50,0
7680,note_on,,,,,0,0,6,,,,,4,,,62,75
7680,note_off,,,,,768,0,6,,,,,4,,,62,0
7680,note_off,,,,,768,0,5,,,,,3,,,67,0
7680,note_on,,,,,0,0,5,,,,,3,,,66,92
7680,note_on,,,,,0,0,7,,,,,5,,,38,75
7680,note_off,,,,,768,0,2,,,,,1,,,67,0
7680,note_on,,,,,0,0,3,,,,,10,,,38,75
7680,note_off,,,,,768,0,8,,,,,6,,,38,0
7680,note_on,,,,,0,0,4,,,,,2,,,69,92
7680,note_on,,,,,0,0,8,,,,,6,,,26,60
7680,note_on,,,,,96,0,9,,,,,7,,,57,60
8352,note_off,,,,,672,0,9,,,,,7,,,57,0
8352,note_off,,,,,0,0,9,,,,,7,,,66,0
8352,note_off,,,,,672,0,10,,,,,8,,,38,0
8448,note_off,,,,,768,0,5,,,,,3,,,66,0
8448,note_off,,,,,768,0,4,,,,,2,,,69,0
8448,note_off,,,,,768,0,6,,,,,4,,,62,0
8448,note_off,,,,,768,0,2,,,,,1,,,66,0
8448,note_off,,,,,768,0,7,,,,,5,,,38,0
8448,note_off,,,,,768,0,3,,,,,10,,,38,0
8448,note_off,,,,,768,0,1,,,,,0,,,69,0
8448,note_off,,,,,768,0,8,,,,,6,,,26,0
9984,note_on,,,,,0,0,9,,,,,7,,,69,60
9984,note_on,,,,,0,0,9,,,,,7,,,66,60
9984,note_on,,,,,1536,0,4,,,,,2,,,78,108
9984,note_on,,,,,1536,0,7,,,,,5,,,60,92
9984,note_on,,,,,1536,0,2,,,,,1,,,74,92
9984,note_on,,,,,1536,0,3,,,,,10,,,60,92
9984,note_on,,,,,1632,0,9,,,,,7,,,62,60
9984,note_on,,,,,1536,0,8,,,,,6,,,48,75
9984,note_on,,,,,1632,0,10,,,,,8,,,60,60
9984,note_on,,,,,1536,0,5,,,,,3,,,74,108
9984,note_on,,,,,1536,0,1,,,,,0,,,78,92
9984,note_on,,,,,1536,0,6,,,,,4,,,74,92
11040,note_off,,,,,1056,0,9,,,,,7,,,62,0
11040,note_off,,,,,0,0,9,,,,,7,,,69,0
11040,note_off,,,,,1056,0,10,,,,,8,,,60,0
11040,note_off,,,,,0,0,9,,,,,7,,,66,0
11136,note_on,,,,,0,0,8,,,,,6,,,48,75
11136,note_off,,,,,1152,0,1,,,,,0,,,78,0
11136,note_on,,,,,0,0,9,,,,,7,,,69,60
11136,note_on,,,,,96,0,10,,,,,8,,,60,60
11136,note_off,,,,,1152,0,6,,,,,4,,,74,0
11136,note_on,,,,,0,0,6,,,,,4,,,74,92
11136,note_on,,,,,0,0,3,,,,,10,,,60,92
11136,note_on,,,,,0,0,1,,,,,0,,,78,92
11136,note_off,,,,,1152,0,4,,,,,2,,,78,0
11136,note_off,,,,,1152,0,3,,,,,10,,,60,0
11136,note_off,,,,,1152,0,5,,,,,3,,,74,0
11136,note_on,,,,,0,0,2,,,,,1,,,74,92
11136,note_on,,,,,0,0,4,,,,,2,,,78,108
11136,note_on,,,,,0,0,9,,,,,7,,,66,60
11136,note_off,,,,,1152,0,2,,,,,1,,,74,0
11136,note_on,,,,,96,0,9,,,,,7,,,62,60
11136,note_off,,,,,1152,0,8,,,,,6,,,48,0
11136,note_on,,,,,0,0,5,,,,,3,,,74,108
11136,note_off,,,,,1152,0,7,,,,,5,,,60,0
11136,note_on,,,,,0,0,7,,,,,5,,,60,92
11456,note_off,,,,,320,0,10,,,,,8,,,60,0
11456,note_off,,,,,320,0,9,,,,,7,,,62,0
11456,note_off,,,,,0,0,9,,,,,7,,,66,0
11456,note_off,,,,,0,0,9,,,,,7,,,69,0
11520,note_off,,,,,384,0,6,,,,,4,,,74,0
11520,note_on,,,,,0,0,5,,,,,3,,,74,108
11520,note_on,,,,,0,0,9,,,,,7,,,67,60
11520,note_on,,,,,64,0,9,,,,,7,,,62,60
11520,note_off,,,,,384,0,5,,,,,3,,,74,0
11520,note_off,,,,,384,0,3,,,,,10,,,60,0
11520,note_on,,,,,0,0,1,,,,,0,,,79,92
11520,note_off,,,,,384,0,4,,,,,2,,,78,0
11520,note_on,,,,,0,0,4,,,,,2,,,79,108
11520,note_on,,,,,0,0,2,,,,,1,,,74,92
11520,note_on,,,,,0,0,8,,,,,6,,,46,75
11520,note_on,,,,,64,0,10,,,,,8,,,58,60
11520,note_on,,,,,0,0,3,,,,,10,,,58,92
11520,note_off,,,,,384,0,2,,,,,1,,,74,0
11520,note_off,,,,,384,0,8,,,,,6,,,48,0
11520,note_off,,,,,384,0,1,,,,,0,,,78,0
11520,note_on,,,,,0,0,7,,,,,5,,,58,92
11520,note_on,,,,,0,0,6,,,,,4,,,67,92
11520,note_off,,,,,384,0,7,,,,,5,,,60,0
12192,note_off,,,,,0,0,9,,,,,7,,,67,0
12192,note_off,,,,,672,0,9,,,,,7,,,62,0
12192,note_off,,,,,672,0,10,,,,,8,,,58,0
12288,note_on,,,,,96,0,10,,,,,8,,,55,60
12288,note_off,,,,,768,0,4,,,,,2,,,79,0
12288,note_off,,,,,768,0,2,,,,,1,,,74,0
12288,note_on,,,,,0,0,2,,,,,1,,,62,92
12288,note_on,,,,,0,0,4,,,,,2,,,70,108
12288,note_off,,,,,768,0,5,,,,,3,,,74,0
12288,note_on,,,,,0,0,5,,,,,3,,,62,108
12288,note_on,,,,,0,0,7,,,,,5,,,55,92
12288,note_on,,,,,96,0,9,,,,,7,,,62,60
12288,note_on,,,,,0,0,3,,,,,10,,,55,92
12288,note_off,,,,,768,0,3,,,,,10,,,58,0
12288,note_off,,,,,768,0,1,,,,,0,,,79,0
12288,note_off,,,,,768,0,6,,,,,4,,,67,0
12288,note_on,,,,,0,0,8,,,,,6,,,43,75
12288,note_off,,,,,768,0,8,,,,,6,,,46,0
12288,note_on,,,,,0,0,1,,,,,0,,,70,92
12288,note_off,,,,,768,0,7,,,,,5,,,58,0
12288,note_on,,,,,0,0,9,,,,,7,,,67,60
12288,note_on,,,,,0,0,6,,,,,4,,,62,92
12288,note_on,,,,,0,0,9,,,,,7,,,70,60
13056,note_off,,,,,768,0,5,,,,,3,,,62,0
13056,note_on,,,,,0,0,2,,,,,1,,,67,92
13056,note_off,,,,,768,0,2,,,,,1,,,62,0
13056,note_on,,,,,0,0,5,,,,,3,,,67,108
13728,note_off,,,,,1440,0,9,,,,,7,,,62,0
13728,note_off,,,,,0,0,9,,,,,7,,,70,0
13728,note_off,,,,,0,0,9,,,,,7,,,67,0
13824,note_off,,,,,768,0,2,,,,,1,,,67,0
13824,note_on,,,,,0,0,9,,,,,7,,,69,60
13824,note_off,,,,,768,0,5,,,,,3,,,67,0
13824,note_on,,,,,0,0,5,,,,,3,,,69,92
13824,note_off,,,,,1536,0,6,,,,,4,,,62,0
13824,note_on,,,,,0,0,4,,,,,2,,,72,92
13824,note_on,,,,,0,0,6,,,,,4,,,63,75
13824,note_on,,,,,0,0,1,,,,,0,,,72,75
13824,note_off,,,,,1536,0,1,,,,,0,,,70,0
13824,note_off,,,,,1536,0,4,,,,,2,,,70,0
13824,note_on,,,,,0,0,2,,,,,1,,,69,75
13824,note_on,,,,,96,0,9,,,,,7,,,60,60
13824,note_on,,,,,0,0,9,,,,,7,,,63,60
14496,note_off,,,,,672,0,9,,,,,7,,,60,0
14496,note_off,,,,,0,0,9,,,,,7,,,63,0
14496,note_off,,,,,2208,0,10,,,,,8,,,55,0
14592,note_off,,,,,768,0,1,,,,,0,,,72,0
14592,note_on,,,,,0,0,6,,,,,4,,,65,75
14592,note_on,,,,,0,0,10,,,,,8,,,57,60
14592,note_on,,,,,96,0,10,,,,,8,,,53,60
14592,note_off,,,,,768,0,6,,,,,4,,,63,0
14592,note_off,,,,,2304,0,7,,,,,5,,,55,0
14592,note_on,,,,,0,0,3,,,,,10,,,53,75
14592,note_on,,,,,0,0,4,,,,,2,,,74,92
14592,note_off,,,,,2304,0,3,,,,,10,,,55,0
14592,note_on,,,,,0,0,8,,,,,6,,,41,60
14592,note_on,,,,,96,0,9,,,,,7,,,62,60
14592,note_on,,,,,0,0,1,,,,,0,,,74,75
14592,note_on,,,,,0,0,7,,,,,5,,,53,75
14592,note_off,,,,,2304,0,8,,,,,6,,,43,0
14592,note_off,,,,,768,0,4,,,,,2,,,72,0
15264,note_off,,,,,0,0,9,,,,,7,,,62,0
15264,note_off,,,,,672,0,9,,,,,7,,,69,0
15264,note_off,,,,,0,0,10,,,,,8,,,57,0
15264,note_off,,,,,672,0,10,,,,,8,,,53,0
15360,note_on,,,,,0,0,8,,,,,6,,,38,60
15360,note_off,,,,,768,0,8,,,,,6,,,41,0
15360,note_off,,,,,768,0,7,,,,,5,,,53,0
15360,note_on,,,,,0,0,10,,,,,8,,,53,60
15360,note_off,,,,,1536,0,2,,,,,1,,,69,0
15360,note_on,,,,,0,0,7,,,,,5,,,50,75
15360,note_on,,,,,96,0,10,,,,,8,,,50,60
15360,note_on,,,,,0,0,2,,,,,1,,,70,75
15360,note_off,,,,,1536,0,5,,,,,3,,,69,0
15360,note_on,,,,,96,0,9,,,,,7,,,62,60
15360,note_off,,,,,768,0,3,,,,,10,,,53,0
15360,note_on,,,,,0,0,3,,,,,10,,,50,75
15360,note_on,,,,,0,0,5,,,,,3,,,70,92
16032,note_off,,,,,672,0,10,,,,,8,,,50,0
16032,note_off,,,,,0,0,10,,,,,8,,,53,0
16128,note_on,,,,,0,0,2,,,,,1,,,67,75
16128,note_off,,,,,768,0,7,,,,,5,,,50,0
16128,note_off,,,,,768,0,2,,,,,1,,,70,0
16128,note_off,,,,,768,0,5,,,,,3,,,70,0
16128,note_on,,,,,0,0,5,,,,,3,,,67,92
16128,note_on,,,,,768,0,9,,,,,7,,,67,60
16128,note_on,,,,,0,0,10,,,,,8,,,55,60
16128,note_on,,,,,0,0,7,,,,,5,,,51,75
16128,note_on,,,,,0,0,3,,,,,10,,,51,75
16128,note_off,,,,,1536,0,6,,,,,4,,,65,0
16128,note_on,,,,,0,0,6,,,,,4,,,63,75
16128,note_off,,,,,768,0,3,,,,,10,,,50,0
16128,note_off,,,,,768,0,8,,,,,6,,,38,0
16128,note_on,,,,,0,0,8,,,,,6,,,39,60
16128,note_on,,,,,96,0,10,,,,,8,,,51,60
16512,note_off,,,,,1920,0,1,,,,,0,,,74,0
16512,note_off,,,,,1920,0,4,,,,,2,,,74,0
16512,note_on,,,,,0,0,4,,,,,2,,,75,92
16512,note_on,,,,,0,0,1,,,,,0,,,75,75
16800,note_off,,,,,672,0,9,,,,,7,,,62,0
16896,note_off,,,,,384,0,4,,,,,2,,,75,0
16896,note_on,,,,,0,0,4,,,,,2,,,74,92
16896,note_on,,,,,0,0,1,,,,,0,,,74,75
16896,note_off,,,,,384,0,1,,,,,0,,,75,0
16896,note_on,,,,,0,0,9,,,,,7,,,74,60
16896,note_on,,,,,96,0,9,,,,,7,,,60,60
16944,note_off,,,,,48,0,1,,,,,0,,,74,0
16944,note_on,,,,,0,0,4,,,,,2,,,72,92
16944,note_off,,,,,48,0,4,,,,,2,,,74,0
16944,note_on,,,,,0,0,1,,,,,0,,,72,75
16992,note_off,,,,,48,0,4,,,,,2,,,72,0
16992,note_off,,,,,48,0,1,,,,,0,,,72,0
16992,note_on,,,,,0,0,1,,,,,0,,,74,75
16992,note_on,,,,,0,0,4,,,,,2,,,74,92
17040,note_on,,,,,0,0,1,,,,,0,,,72,75
17040,note_off,,,,,48,0,1,,,,,0,,,74,0
17040,note_on,,,,,0,0,4,,,,,2,,,72,92
17040,note_off,,,,,48,0,4,,,,,2,,,74,0
17088,note_on,,,,,0,0,1,,,,,0,,,74,75
17088,note_off,,,,,48,0,1,,,,,0,,,72,0
17088,note_on,,,,,0,0,4,,,,,2,,,74,92
17088,note_off,,,,,48,0,4,,,,,2,,,72,0
17136,note_off,,,,,48,0,4,,,,,2,,,74,0
17136,note_on,,,,,0,0,4,,,,,2,,,72,92
17136,note_on,,,,,0,0,1,,,,,0,,,72,75
17136,note_off,,,,,48,0,1,,,,,0,,,74,0
17184,note_off,,,,,48,0,4,,,,,2,,,72,0
17184,note_on,,,,,0,0,4,,,,,2,,,74,92
17184,note_on,,,,,0,0,1,,,,,0,,,74,75
17184,note_off,,,,,48,0,1,,,,,0,,,72,0
17232,note_on,,,,,0,0,4,,,,,2,,,72,92
17232,note_off,,,,,48,0,1,,,,,0,,,74,0
17232,note_off,,,,,48,0,4,,,,,2,,,74,0
17232,note_on,,,,,0,0,1,,,,,0,,,72,75
17280,note_off,,,,,48,0,1,,,,,0,,,72,0
17280,note_on,,,,,0,0,1,,,,,0,,,74,75
17280,note_on,,,,,0,0,4,,,,,2,,,74,92
17280,note_off,,,,,48,0,4,,,,,2,,,72,0
17328,note_on,,,,,0,0,4,,,,,2,,,72,92
17328,note_off,,,,,48,0,4,,,,,2,,,74,0
17328,note_on,,,,,0,0,1,,,,,0,,,72,75
17328,note_off,,,,,48,0,1,,,,,0,,,74,0
17376,note_on,,,,,0,0,1,,,,,0,,,74,75
17376,note_off,,,,,48,0,1,,,,,0,,,72,0
17376,note_on,,,,,0,0,4,,,,,2,,,74,92
17376,note_off,,,,,48,0,4,,,,,2,,,72,0
17424,note_off,,,,,48,0,1,,,,,0,,,74,0
17424,note_on,,,,,0,0,1,,,,,0,,,72,75
17424,note_on,,,,,0,0,4,,,,,2,,,72,92
17424,note_off,,,,,48,0,4,,,,,2,,,74,0
17664,note_on,,,,,0,0,6,,,,,4,,,55,75
17664,note_off,,,,,1536,0,6,,,,,4,,,63,0
17952,note_off,,,,,1056,0,9,,,,,7,,,74,0
18048,note_on,,,,,0,0,4,,,,,2,,,74,92
18048,note_on,,,,,0,0,1,,,,,0,,,74,75
18048,note_off,,,,,624,0,1,,,,,0,,,72,0
18048,note_off,,,,,624,0,4,,,,,2,,,72,0
18336,note_off,,,,,384,0,9,,,,,7,,,67,0
18336,note_off,,,,,0,0,10,,,,,8,,,55,0
18336,note_off,,,,,0,0,9,,,,,7,,,60,0
18336,note_off,,,,,2208,0,10,,,,,8,,,51,0
18432,note_on,,,,,0,0,9,,,,,7,,,66,60
18432,note_off,,,,,768,0,6,,,,,4,,,55,0
18432,note_on,,,,,0,0,8,,,,,6,,,38,60
18432,note_off,,,,,2304,0,8,,,,,6,,,39,0
18432,note_on,,,,,0,0,7,,,,,5,,,50,75
18432,note_off,,,,,2304,0,7,,,,,5,,,51,0
18432,note_on,,,,,0,0,10,,,,,8,,,57,60
18432,note_on,,,,,96,0,9,,,,,7,,,62,60
18432,note_on,,,,,96,0,10,,,,,8,,,50,60
18432,note_on,,,,,0,0,2,,,,,1,,,66,75
18432,note_on,,,,,0,0,6,,,,,4,,,57,75
18432,note_on,,,,,0,0,5,,,,,3,,,66,92
18432,note_off,,,,,2304,0,3,,,,,10,,,51,0
18432,note_off,,,,,2304,0,2,,,,,1,,,67,0
18432,note_on,,,,,0,0,3,,,,,10,,,50,75
18432,note_off,,,,,384,0,1,,,,,0,,,74,0
18432,note_on,,,,,0,0,1,,,,,0,,,74,75
18432,note_off,,,,,384,0,4,,,,,2,,,74,0
18432,note_off,,,,,2304,0,5,,,,,3,,,67,0
18432,note_on,,,,,0,0,4,,,,,2,,,74,92
20640,note_off,,,,,0,0,10,,,,,8,,,57,0
20640,note_off,,,,,2208,0,10,,,,,8,,,50,0
20640,note_off,,,,,0,0,9,,,,,7,,,66,0
20640,note_off,,,,,2208,0,9,,,,,7,,,62,0
20736,set_tempo,,,,,20736,1,0,,625000,,,,,,,
20736,note_off,,,,,2304,0,4,,,,,2,,,74,0
20736,note_off,,,,,2304,0,8,,,,,6,,,38,0
20736,note_off,,,,,2304,0,3,,,,,10,,,50,0
20736,note_off,,,,,2304,0,7,,,,,5,,,50,0
20736,note_off,,,,,2304,0,1,,,,,0,,,74,0
20736,note_off,,,,,2304,0,6,,,,,4,,,57,0
20736,note_off,,,,,2304,0,5,,,,,3,,,66,0
20736,note_off,,,,,2304,0,2,,,,,1,,,66,0
21504,note_on,,,,,768,0,4,,,,,2,,,70,92
21504,note_on,,,,,864,0,9,,,,,7,,,70,60
21504,note_on,,,,,768,0,3,,,,,10,,,62,92
21504,note_on,,,,,864,0,10,,,,,8,,,62,60
21504,note_on,,,,,768,0,5,,,,,3,,,65,92
21504,note_on,,,,,768,0,1,,,,,0,,,70,75
21504,note_on,,,,,768,0,2,,,,,1,,,65,75
22176,note_off,,,,,672,0,10,,,,,8,,,62,0
22272,note_on,,,,,0,0,2,,,,,1,,,70,75
22272,note_off,,,,,768,0,2,,,,,1,,,65,0
22272,note_off,,,,,768,0,4,,,,,2,,,70,0
22272,note_on,,,,,0,0,4,,,,,2,,,74,92
22272,note_on,,,,,0,0,3,,,,,10,,,58,92
22272,note_on,,,,,96,0,10,,,,,8,,,58,60
22272,note_off,,,,,768,0,5,,,,,3,,,65,0
22272,note_on,,,,,0,0,5,,,,,3,,,70,92
22272,note_off,,,,,768,0,3,,,,,10,,,62,0
22272,note_on,,,,,0,0,1,,,,,0,,,74,75
22272,note_off,,,,,768,0,1,,,,,0,,,70,0
22848,note_off,,,,,576,0,1,,,,,0,,,74,0
22848,note_on,,,,,0,0,1,,,,,0,,,72,75
22848,note_on,,,,,0,0,4,,,,,2,,,72,92
22848,note_off,,,,,576,0,4,,,,,2,,,74,0
22944,note_off,,,,,672,0,10,,,,,8,,,58,0
23040,note_off,,,,,192,0,1,,,,,0,,,72,0
23040,note_on,,,,,96,0,10,,,,,8,,,65,60
23040,note_on,,,,,0,0,4,,,,,2,,,72,92
23040,note_off,,,,,192,0,4,,,,,2,,,72,0
23040,note_on,,,,,1536,0,9,,,,,7,,,72,60
23040,note_on,,,,,0,0,3,,,,,10,,,65,92
23040,note_off,,,,,768,0,3,,,,,10,,,58,0
23040,note_on,,,,,0,0,1,,,,,0,,,72,75
23712,note_off,,,,,672,0,9,,,,,7,,,70,0
23808,note_off,,,,,768,0,1,,,,,0,,,72,0
23808,note_on,,,,,0,0,1,,,,,0,,,77,75
23808,note_on,,,,,0,0,4,,,,,2,,,77,92
23808,note_off,,,,,768,0,4,,,,,2,,,72,0
23808,note_on,,,,,0,0,5,,,,,3,,,69,92
23808,note_on,,,,,0,0,2,,,,,1,,,69,75
23808,note_off,,,,,1536,0,2,,,,,1,,,70,0
23808,note_off,,,,,1536,0,5,,,,,3,,,70,0
23808,note_on,,,,,96,0,9,,,,,7,,,69,60
24480,note_off,,,,,0,0,9,,,,,7,,,69,0
24480,note_off,,,,,672,0,9,,,,,7,,,72,0
24480,note_off,,,,,1440,0,10,,,,,8,,,65,0
24576,note_on,,,,,0,0,9,,,,,7,,,74,60
24576,note_on,,,,,0,0,9,,,,,7,,,69,60
24576,note_on,,,,,96,0,10,,,,,8,,,62,60
24576,note_on,,,,,0,0,2,,,,,1,,,74,75
24576,note_off,,,,,768,0,2,,,,,1,,,69,0
24576,note_on,,,,,96,0,9,,,,,7,,,65,60
24576,note_on,,,,,0,0,5,,,,,3,,,74,92
24576,note_off,,,,,768,0,5,,,,,3,,,69,0
24576,note_off,,,,,1536,0,3,,,,,10,,,65,0
24576,note_on,,,,,0,0,3,,,,,10,,,62,92
25248,note_off,,,,,672,0,10,,,,,8,,,62,0
25248,note_off,,,,,672,0,9,,,,,7,,,65,0
25248,note_off,,,,,0,0,9,,,,,7,,,69,0
25344,note_on,,,,,0,0,3,,,,,10,,,67,92
25344,note_on,,,,,0,0,2,,,,,1,,,71,75
25344,note_off,,,,,768,0,2,,,,,1,,,74,0
25344,note_off,,,,,768,0,3,,,,,10,,,62,0
25344,note_off,,,,,768,0,5,,,,,3,,,74,0
25344,note_on,,,,,0,0,9,,,,,7,,,71,60
25344,note_on,,,,,96,0,9,,,,,7,,,67,60
25344,note_on,,,,,96,0,10,,,,,8,,,67,60
25344,note_on,,,,,0,0,5,,,,,3,,,71,92
26112,note_off,,,,,2304,0,1,,,,,0,,,77,0
26112,note_on,,,,,0,0,1,,,,,0,,,79,75
26112,note_on,,,,,0,0,4,,,,,2,,,79,92
26112,note_off,,,,,2304,0,4,,,,,2,,,77,0
26784,note_off,,,,,1440,0,10,,,,,8,,,67,0
26784,note_off,,,,,1440,0,9,,,,,7,,,74,0
26784,note_off,,,,,0,0,9,,,,,7,,,67,0
26784,note_off,,,,,0,0,9,,,,,7,,,71,0
26880,note_off,,,,,768,0,1,,,,,0,,,79,0
26880,note_on,,,,,0,0,3,,,,,10,,,59,92
26880,note_off,,,,,1536,0,3,,,,,10,,,67,0
26880,note_on,,,,,96,0,9,,,,,7,,,65,60
26880,note_on,,,,,0,0,4,,,,,2,,,77,92
26880,note_on,,,,,0,0,9,,,,,7,,,74,60
26880,note_off,,,,,1536,0,2,,,,,1,,,71,0
26880,note_on,,,,,0,0,2,,,,,1,,,74,75
26880,note_off,,,,,768,0,4,,,,,2,,,79,0
26880,note_on,,,,,0,0,5,,,,,3,,,74,92
26880,note_off,,,,,1536,0,5,,,,,3,,,71,0
26880,note_on,,,,,0,0,1,,,,,0,,,77,75
26880,note_on,,,,,0,0,9,,,,,7,,,67,60
26880,note_on,,,,,96,0,10,,,,,8,,,59,60
27552,note_off,,,,,0,0,9,,,,,7,,,67,0
27552,note_off,,,,,672,0,9,,,,,7,,,65,0
27552,note_off,,,,,672,0,10,,,,,8,,,59,0
27552,note_off,,,,,0,0,9,,,,,7,,,74,0
27648,note_on,,,,,0,0,4,,,,,2,,,75,92
27648,note_off,,,,,768,0,4,,,,,2,,,77,0
27648,note_on,,,,,0,0,5,,,,,3,,,67,92
27648,note_off,,,,,768,0,5,,,,,3,,,74,0
27648,note_off,,,,,768,0,3,,,,,10,,,59,0
27648,note_on,,,,,0,0,3,,,,,10,,,60,92
27648,note_on,,,,,0,0,2,,,,,1,,,67,75
27648,note_on,,,,,0,0,1,,,,,0,,,75,75
27648,note_on,,,,,96,0,10,,,,,8,,,60,60
27648,note_on,,,,,96,0,9,,,,,7,,,63,60
27648,note_on,,,,,0,0,9,,,,,7,,,67,60
27648,note_on,,,,,0,0,9,,,,,7,,,72,60
27648,note_off,,,,,768,0,2,,,,,1,,,74,0
27648,note_off,,,,,768,0,1,,,,,0,,,77,0
28320,note_off,,,,,672,0,9,,,,,7,,,63,0
28320,note_off,,,,,0,0,9,,,,,7,,,67,0
28320,note_off,,,,,0,0,9,,,,,7,,,72,0
28320,note_off,,,,,672,0,10,,,,,8,,,60,0
28416,note_off,,,,,768,0,4,,,,,2,,,75,0
28416,note_off,,,,,768,0,2,,,,,1,,,67,0
28416,note_on,,,,,0,0,2,,,,,1,,,69,75
28416,note_on,,,,,0,0,3,,,,,10,,,54,92
28416,note_off,,,,,768,0,3,,,,,10,,,60,0
28416,note_on,,,,,0,0,4,,,,,2,,,74,92
28416,note_on,,,,,0,0,1,,,,,0,,,74,75
28416,note_on,,,,,96,0,10,,,,,8,,,54,60
28416,note_on,,,,,0,0,5,,,,,3,,,69,92
28416,note_off,,,,,768,0,5,,,,,3,,,67,0
28416,note_on,,,,,0,0,9,,,,,7,,,74,60
28416,note_on,,,,,0,0,9,,,,,7,,,69,60
28416,note_on,,,,,96,0,9,,,,,7,,,62,60
28416,note_off,,,,,768,0,1,,,,,0,,,75,0
29856,note_off,,,,,1440,0,9,,,,,7,,,62,0
29856,note_off,,,,,0,0,9,,,,,7,,,74,0
29856,note_off,,,,,0,0,9,,,,,7,,,69,0
29856,note_off,,,,,1440,0,10,,,,,8,,,54,0
29952,note_on,,,,,96,0,10,,,,,8,,,54,60
29952,note_off,,,,,1536,0,4,,,,,2,,,74,0
29952,note_on,,,,,0,0,4,,,,,2,,,81,108
29952,note_on,,,,,0,0,3,,,,,10,,,54,92
29952,note_off,,,,,1536,0,3,,,,,10,,,54,0
29952,note_on,,,,,9216,0,8,,,,,6,,,42,75
29952,note_on,,,,,9216,0,7,,,,,5,,,54,92
29952,note_off,,,,,1536,0,5,,,,,3,,,69,0
29952,note_on,,,,,0,0,5,,,,,3,,,69,108
29952,note_on,,,,,0,0,2,,,,,1,,,69,92
29952,note_off,,,,,1536,0,2,,,,,1,,,69,0
29952,note_on,,,,,9216,0,6,,,,,4,,,62,92
29952,note_on,,,,,0,0,9,,,,,7,,,74,60
29952,note_off,,,,,1536,0,1,,,,,0,,,74,0
29952,note_on,,,,,96,0,9,,,,,7,,,62,60
29952,note_on,,,,,0,0,9,,,,,7,,,69,60
29952,note_on,,,,,0,0,1,,,,,0,,,81,92
30624,note_off,,,,,672,0,9,,,,,7,,,74,0
30720,note_on,,,,,0,0,1,,,,,0,,,72,92
30720,note_on,,,,,96,0,9,,,,,7,,,72,60
30720,note_off,,,,,768,0,1,,,,,0,,,81,0
30720,note_on,,,,,0,0,4,,,,,2,,,72,108
30720,note_off,,,,,768,0,4,,,,,2,,,81,0
31392,note_off,,,,,1440,0,10,,,,,8,,,54,0
31392,note_off,,,,,672,0,9,,,,,7,,,62,0
31392,note_off,,,,,0,0,9,,,,,7,,,69,0
31488,note_on,,,,,0,0,7,,,,,5,,,50,92
31488,note_off,,,,,1536,0,8,,,,,6,,,42,0
31488,note_off,,,,,1536,0,3,,,,,10,,,54,0
31488,note_on,,,,,0,0,3,,,,,10,,,50,92
31488,note_on,,,,,0,0,2,,,,,1,,,66,92
31488,note_off,,,,,1536,0,5,,,,,3,,,69,0
31488,note_off,,,,,1536,0,7,,,,,5,,,54,0
31488,note_off,,,,,1536,0,2,,,,,1,,,69,0
31488,note_on,,,,,96,0,10,,,,,8,,,50,60
31488,note_on,,,,,96,0,9,,,,,7,,,66,60
31488,note_on,,,,,0,0,5,,,,,3,,,66,108
31488,note_on,,,,,0,0,8,,,,,6,,,38,75
31872,note_off,,,,,1152,0,4,,,,,2,,,72,0
31872,note_on,,,,,0,0,4,,,,,2,,,74,108
31872,note_off,,,,,1152,0,1,,,,,0,,,72,0
31872,note_on,,,,,0,0,1,,,,,0,,,74,92
32160,note_off,,,,,672,0,9,,,,,7,,,72,0
32160,note_off,,,,,0,0,9,,,,,7,,,66,0
32160,note_off,,,,,672,0,10,,,,,8,,,50,0
32256,note_off,,,,,384,0,4,,,,,2,,,74,0
32256,note_on,,,,,96,0,9,,,,,7,,,62,60
32256,note_on,,,,,0,0,9,,,,,7,,,67,60
32256,note_off,,,,,768,0,7,,,,,5,,,50,0
32256,note_off,,,,,768,0,8,,,,,6,,,38,0
32256,note_on,,,,,0,0,4,,,,,2,,,70,108
32256,note_off,,,,,768,0,3,,,,,10,,,50,0
32256,note_on,,,,,0,0,3,,,,,10,,,55,92
32256,note_on,,,,,0,0,6,,,,,4,,,62,92
32256,note_on,,,,,0,0,2,,,,,1,,,62,92
32256,note_off,,,,,768,0,2,,,,,1,,,66,0
32256,note_on,,,,,0,0,5,,,,,3,,,62,108
32256,note_off,,,,,768,0,5,,,,,3,,,66,0
32256,note_on,,,,,0,0,8,,,,,6,,,43,75
32256,note_on,,,,,0,0,7,,,,,5,,,55,92
32256,note_on,,,,,0,0,9,,,,,7,,,70,60
32256,note_off,,,,,2304,0,6,,,,,4,,,62,0
32256,note_off,,,,,384,0,1,,,,,0,,,74,0
32256,note_on,,,,,0,0,1,,,,,0,,,70,92
32256,note_on,,,,,96,0,10,,,,,8,,,55,60
33024,note_off,,,,,768,0,2,,,,,1,,,62,0
33024,note_on,,,,,0,0,2,,,,,1,,,70,92
33024,note_off,,,,,768,0,5,,,,,3,,,62,0
33024,note_on,,,,,0,0,5,,,,,3,,,70,108
33024,note_on,,,,,0,0,4,,,,,2,,,82,108
33024,note_on,,,,,0,0,1,,,,,0,,,82,92
33024,note_off,,,,,768,0,1,,,,,0,,,70,0
33024,note_off,,,,,768,0,4,,,,,2,,,70,0
33696,note_off,,,,,0,0,9,,,,,7,,,67,0
33696,note_off,,,,,0,0,9,,,,,7,,,70,0
33696,note_off,,,,,1440,0,10,,,,,8,,,55,0
33696,note_off,,,,,1440,0,9,,,,,7,,,62,0
33792,note_off,,,,,1536,0,8,,,,,6,,,43,0
33792,note_on,,,,,0,0,8,,,,,6,,,41,75
33792,note_on,,,,,96,0,9,,,,,7,,,62,60
33792,note_off,,,,,1536,0,7,,,,,5,,,55,0
33792,note_on,,,,,0,0,7,,,,,5,,,53,92
33792,note_on,,,,,0,0,9,,,,,7,,,67,60
33792,note_off,,,,,1536,0,3,,,,,10,,,55,0
33792,note_on,,,,,96,0,10,,,,,8,,,53,60
33792,note_on,,,,,0,0,9,,,,,7,,,70,60
33792,note_on,,,,,0,0,3,,,,,10,,,53,92
33792,note_off,,,,,1536,0,6,,,,,4,,,62,0
33792,note_on,,,,,0,0,6,,,,,4,,,67,92
34176,note_on,,,,,0,0,1,,,,,0,,,74,92
34176,note_off,,,,,1152,0,1,,,,,0,,,82,0
34176,note_off,,,,,1152,0,4,,,,,2,,,82,0
34176,note_on,,,,,0,0,4,,,,,2,,,74,108
34464,note_off,,,,,672,0,10,,,,,8,,,53,0
34464,note_off,,,,,672,0,9,,,,,7,,,62,0
34560,note_on,,,,,0,0,1,,,,,0,,,72,92
34560,note_on,,,,,0,0,7,,,,,5,,,51,92
34560,note_off,,,,,768,0,7,,,,,5,,,53,0
34560,note_off,,,,,768,0,6,,,,,4,,,67,0
34560,note_on,,,,,0,0,6,,,,,4,,,67,92
34560,note_off,,,,,384,0,1,,,,,0,,,74,0
34560,note_off,,,,,768,0,8,,,,,6,,,41,0
34560,note_on,,,,,0,0,8,,,,,6,,,39,75
34560,note_on,,,,,96,0,10,,,,,8,,,51,60
34560,note_off,,,,,384,0,4,,,,,2,,,74,0
34560,note_on,,,,,96,0,9,,,,,7,,,60,60
34560,note_on,,,,,0,0,4,,,,,2,,,72,108
34560,note_off,,,,,768,0,3,,,,,10,,,53,0
34560,note_on,,,,,0,0,3,,,,,10,,,51,92
35232,note_off,,,,,0,0,9,,,,,7,,,70,0
35232,note_off,,,,,672,0,10,,,,,8,,,51,0
35232,note_off,,,,,672,0,9,,,,,7,,,67,0
35232,note_off,,,,,0,0,9,,,,,7,,,60,0
35328,note_on,,,,,96,0,10,,,,,8,,,51,60
35328,note_off,,,,,768,0,4,,,,,2,,,72,0
35328,note_off,,,,,2304,0,2,,,,,1,,,70,0
35328,note_on,,,,,0,0,4,,,,,2,,,72,75
35328,note_on,,,,,0,0,2,,,,,1,,,68,60
35328,note_on,,,,,0,0,8,,,,,6,,,39,60
35328,note_off,,,,,768,0,8,,,,,6,,,39,0
35328,note_on,,,,,0,0,1,,,,,0,,,72,60
35328,note_off,,,,,768,0,1,,,,,0,,,72,0
35328,note_on,,,,,0,0,9,,,,,7,,,63,60
35328,note_on,,,,,0,0,7,,,,,5,,,51,60
35328,note_off,,,,,768,0,7,,,,,5,,,51,0
35328,note_off,,,,,768,0,6,,,,,4,,,67,0
35328,note_off,,,,,2304,0,5,,,,,3,,,70,0
35328,note_on,,,,,0,0,5,,,,,3,,,68,75
35328,note_on,,,,,0,0,3,,,,,10,,,51,60
35328,note_on,,,,,96,0,9,,,,,7,,,60,60
35328,note_on,,,,,0,0,9,,,,,7,,,68,60
35328,note_on,,,,,0,0,6,,,,,4,,,63,60
35328,note_off,,,,,768,0,3,,,,,10,,,51,0
36000,note_off,,,,,0,0,9,,,,,7,,,63,0
36000,note_off,,,,,0,0,9,,,,,7,,,68,0
36000,note_off,,,,,672,0,9,,,,,7,,,60,0
36096,note_on,,,,,0,0,9,,,,,7,,,60,60
36096,note_on,,,,,0,0,5,,,,,3,,,67,75
36096,note_on,,,,,0,0,9,,,,,7,,,67,60
36096,note_off,,,,,768,0,2,,,,,1,,,68,0
36096,note_on,,,,,0,0,2,,,,,1,,,67,60
36096,note_off,,,,,768,0,5,,,,,3,,,68,0
36096,note_off,,,,,768,0,6,,,,,4,,,63,0
36096,note_on,,,,,0,0,6,,,,,4,,,60,60
36096,note_on,,,,,96,0,9,,,,,7,,,55,60
36768,note_off,,,,,0,0,9,,,,,7,,,60,0
36768,note_off,,,,,0,0,9,,,,,7,,,67,0
36768,note_off,,,,,1440,0,10,,,,,8,,,51,0
36768,note_off,,,,,672,0,9,,,,,7,,,55,0
36864,note_off,,,,,768,0,6,,,,,4,,,60,0
36864,note_on,,,,,0,0,1,,,,,0,,,72,60
36864,note_on,,,,,96,0,9,,,,,7,,,57,60
36864,note_on,,,,,0,0,9,,,,,7,,,60,60
36864,note_on,,,,,0,0,9,,,,,7,,,66,60
36864,note_off,,,,,1536,0,4,,,,,2,,,72,0
36864,note_on,,,,,0,0,4,,,,,2,,,72,75
36864,note_off,,,,,1536,0,1,,,,,0,,,72,0
36864,note_on,,,,,0,0,6,,,,,4,,,57,60
36864,note_off,,,,,1536,0,7,,,,,5,,,51,0
36864,note_off,,,,,768,0,2,,,,,1,,,67,0
36864,set_tempo,,,,,16128,1,0,,681818,,,,,,,
36864,note_off,,,,,1536,0,8,,,,,6,,,39,0
36864,note_on,,,,,0,0,8,,,,,6,,,38,60
36864,note_on,,,,,0,0,3,,,,,10,,,50,60
36864,note_off,,,,,1536,0,3,,,,,10,,,51,0
36864,note_on,,,,,0,0,2,,,,,1,,,66,60
36864,note_on,,,,,0,0,7,,,,,5,,,50,60
36864,note_on,,,,,96,0,10,,,,,8,,,50,60
36864,note_on,,,,,0,0,5,,,,,3,,,66,75
36864,note_off,,,,,768,0,5,,,,,3,,,67,0
37632,note_on,,,,,0,0,6,,,,,4,,,62,60
37632,note_off,,,,,768,0,6,,,,,4,,,57,0
38016,note_on,,,,,0,0,1,,,,,0,,,74,60
38016,note_off,,,,,1152,0,4,,,,,2,,,72,0
38016,note_on,,,,,0,0,4,,,,,2,,,74,75
38016,note_off,,,,,1152,0,1,,,,,0,,,72,0
38304,note_off,,,,,1440,0,10,,,,,8,,,50,0
38304,note_off,,,,,0,0,9,,,,,7,,,60,0
38304,note_off,,,,,1440,0,9,,,,,7,,,57,0
38304,note_off,,,,,0,0,9,,,,,7,,,66,0
38400,note_on,,,,,96,0,9,,,,,7,,,58,60
38400,note_off,,,,,1536,0,2,,,,,1,,,66,0
38400,note_on,,,,,0,0,1,,,,,0,,,70,60
38400,note_off,,,,,384,0,1,,,,,0,,,74,0
38400,note_on,,,,,0,0,9,,,,,7,,,67,60
38400,note_on,,,,,0,0,2,,,,,1,,,67,60
38400,note_on,,,,,0,0,4,,,,,2,,,70,75
38400,note_on,,,,,0,0,8,,,,,6,,,43,60
38400,note_off,,,,,1536,0,8,,,,,6,,,38,0
38400,note_off,,,,,384,0,4,,,,,2,,,74,0
38400,note_off,,,,,1536,0,7,,,,,5,,,50,0
38400,note_on,,,,,96,0,10,,,,,8,,,55,60
38400,note_off,,,,,1536,0,5,,,,,3,,,66,0
38400,note_on,,,,,0,0,5,,,,,3,,,67,75
38400,note_on,,,,,0,0,7,,,,,5,,,55,60
38400,note_off,,,,,1536,0,3,,,,,10,,,50,0
38400,note_on,,,,,0,0,3,,,,,10,,,55,60
38400,note_off,,,,,768,0,6,,,,,4,,,62,0
38400,note_on,,,,,0,0,6,,,,,4,,,62,60
39072,note_off,,,,,672,0,10,,,,,8,,,55,0
39168,note_on,,,,,0,0,3,,,,,10,,,43,60
39168,note_off,,,,,768,0,8,,,,,6,,,43,0
39168,note_on,,,,,0,0,8,,,,,6,,,31,60
39168,note_on,,,,,0,0,6,,,,,4,,,62,60
39168,note_off,,,,,768,0,7,,,,,5,,,55,0
39168,note_off,,,,,768,0,6,,,,,4,,,62,0
39168,note_on,,,,,768,0,9,,,,,7,,,62,60
39168,note_off,,,,,768,0,3,,,,,10,,,55,0
39168,note_on,,,,,96,0,10,,,,,8,,,43,60
39168,note_on,,,,,0,0,7,,,,,5,,,43,60
39552,note_on,,,,,0,0,4,,,,,2,,,69,75
39552,note_off,,,,,1152,0,1,,,,,0,,,70,0
39552,note_off,,,,,1152,0,4,,,,,2,,,70,0
39552,note_on,,,,,0,0,1,,,,,0,,,69,60
39840,note_off,,,,,672,0,9,,,,,7,,,58,0
39840,note_off,,,,,0,0,9,,,,,7,,,62,0
39840,note_off,,,,,0,0,9,,,,,7,,,67,0
39840,note_off,,,,,672,0,10,,,,,8,,,43,0
39936,note_on,,,,,0,0,9,,,,,7,,,62,60
39936,note_on,,,,,96,0,9,,,,,7,,,57,60
39936,note_off,,,,,768,0,3,,,,,10,,,43,0
39936,note_off,,,,,1536,0,5,,,,,3,,,67,0
39936,note_on,,,,,0,0,5,,,,,3,,,67,75
39936,note_on,,,,,0,0,9,,,,,7,,,66,60
39936,note_on,,,,,0,0,3,,,,,10,,,50,60
39936,note_off,,,,,768,0,7,,,,,5,,,43,0
39936,note_on,,,,,0,0,6,,,,,4,,,62,60
39936,note_off,,,,,384,0,4,,,,,2,,,69,0
39936,note_off,,,,,384,0,1,,,,,0,,,69,0
39936,note_on,,,,,0,0,1,,,,,0,,,70,60
39936,note_off,,,,,768,0,6,,,,,4,,,62,0
39936,note_on,,,,,96,0,10,,,,,8,,,50,60
39936,note_on,,,,,0,0,8,,,,,6,,,38,60
39936,note_off,,,,,768,0,8,,,,,6,,,31,0
39936,note_on,,,,,0,0,4,,,,,2,,,70,75
39936,note_on,,,,,0,0,2,,,,,1,,,67,60
39936,note_on,,,,,0,0,7,,,,,5,,,50,60
39936,note_off,,,,,1536,0,2,,,,,1,,,67,0
39984,note_off,,,,,48,0,4,,,,,2,,,70,0
39984,note_on,,,,,0,0,4,,,,,2,,,69,75
39984,note_on,,,,,0,0,5,,,,,3,,,66,75
39984,note_off,,,,,48,0,5,,,,,3,,,67,0
39984,note_on,,,,,0,0,1,,,,,0,,,69,60
39984,note_on,,,,,0,0,2,,,,,1,,,66,60
39984,note_off,,,,,48,0,2,,,,,1,,,67,0
39984,note_off,,,,,48,0,1,,,,,0,,,70,0
40032,note_off,,,,,48,0,2,,,,,1,,,66,0
40032,note_off,,,,,48,0,5,,,,,3,,,66,0
40032,note_on,,,,,0,0,5,,,,,3,,,67,75
40032,note_on,,,,,0,0,2,,,,,1,,,67,60
40032,note_on,,,,,0,0,1,,,,,0,,,70,60
40032,note_off,,,,,48,0,4,,,,,2,,,69,0
40032,note_off,,,,,48,0,1,,,,,0,,,69,0
40032,note_on,,,,,0,0,4,,,,,2,,,70,75
40080,note_on,,,,,0,0,1,,,,,0,,,69,60
40080,note_off,,,,,48,0,2,,,,,1,,,67,0
40080,note_off,,,,,48,0,1,,,,,0,,,70,0
40080,note_on,,,,,0,0,5,,,,,3,,,66,75
40080,note_off,,,,,48,0,5,,,,,3,,,67,0
40080,note_off,,,,,48,0,4,,,,,2,,,70,0
40080,note_on,,,,,0,0,2,,,,,1,,,66,60
40080,note_on,,,,,0,0,4,,,,,2,,,69,75
40128,note_on,,,,,0,0,1,,,,,0,,,70,60
40128,note_on,,,,,0,0,2,,,,,1,,,67,60
40128,note_off,,,,,48,0,4,,,,,2,,,69,0
40128,note_off,,,,,48,0,1,,,,,0,,,69,0
40128,note_off,,,,,48,0,2,,,,,1,,,66,0
40128,note_on,,,,,0,0,5,,,,,3,,,67,75
40128,note_on,,,,,0,0,4,,,,,2,,,70,75
40128,note_off,,,,,48,0,5,,,,,3,,,66,0
40176,note_off,,,,,48,0,5,,,,,3,,,67,0
40176,note_on,,,,,0,0,5,,,,,3,,,66,75
40176,note_on,,,,,0,0,1,,,,,0,,,69,60
40176,note_off,,,,,48,0,4,,,,,2,,,70,0
40176,note_on,,,,,0,0,4,,,,,2,,,69,75
40176,note_on,,,,,0,0,2,,,,,1,,,66,60
40176,note_off,,,,,48,0,2,,,,,1,,,67,0
40176,note_off,,,,,48,0,1,,,,,0,,,70,0
40224,note_on,,,,,0,0,5,,,,,3,,,67,75
40224,note_on,,,,,0,0,1,,,,,0,,,70,60
40224,note_off,,,,,48,0,5,,,,,3,,,66,0
40224,note_off,,,,,48,0,1,,,,,0,,,69,0
40224,note_on,,,,,0,0,2,,,,,1,,,67,60
40224,note_off,,,,,48,0,4,,,,,2,,,69,0
40224,note_on,,,,,0,0,4,,,,,2,,,70,75
40224,note_off,,,,,48,0,2,,,,,1,,,66,0
40272,note_off,,,,,48,0,4,,,,,2,,,70,0
40272,note_on,,,,,0,0,4,,,,,2,,,69,75
40272,note_off,,,,,48,0,1,,,,,0,,,70,0
40272,note_on,,,,,0,0,1,,,,,0,,,69,60
40272,note_off,,,,,48,0,5,,,,,3,,,67,0
40272,note_on,,,,,0,0,5,,,,,3,,,66,75
40272,note_on,,,,,0,0,2,,,,,1,,,66,60
40272,note_off,,,,,48,0,2,,,,,1,,,67,0
40320,note_on,,,,,0,0,1,,,,,0,,,70,60
40320,note_on,,,,,0,0,4,,,,,2,,,70,75
40320,note_on,,,,,0,0,5,,,,,3,,,67,75
40320,note_off,,,,,48,0,5,,,,,3,,,66,0
40320,note_off,,,,,48,0,2,,,,,1,,,66,0
40320,note_on,,,,,0,0,2,,,,,1,,,67,60
40320,note_off,,,,,48,0,1,,,,,0,,,69,0
40320,note_off,,,,,48,0,4,,,,,2,,,69,0
40368,note_off,,,,,48,0,4,,,,,2,,,70,0
40368,note_on,,,,,0,0,4,,,,,2,,,69,75
40368,note_off,,,,,48,0,1,,,,,0,,,70,0
40368,note_on,,,,,0,0,5,,,,,3,,,66,75
40368,note_off,,,,,48,0,2,,,,,1,,,67,0
40368,note_off,,,,,48,0,5,,,,,3,,,67,0
40368,note_on,,,,,0,0,1,,,,,0,,,69,60
40368,note_on,,,,,0,0,2,,,,,1,,,66,60
40416,note_on,,,,,0,0,1,,,,,0,,,70,60
40416,note_off,,,,,48,0,1,,,,,0,,,69,0
40416,note_on,,,,,0,0,5,,,,,3,,,67,75
40416,note_off,,,,,48,0,5,,,,,3,,,66,0
40416,note_on,,,,,0,0,4,,,,,2,,,70,75
40416,note_off,,,,,48,0,4,,,,,2,,,69,0
40416,note_off,,,,,48,0,2,,,,,1,,,66,0
40416,note_on,,,,,0,0,2,,,,,1,,,67,60
40464,note_on,,,,,0,0,4,,,,,2,,,69,75
40464,note_off,,,,,48,0,4,,,,,2,,,70,0
40464,note_off,,,,,48,0,1,,,,,0,,,70,0
40464,note_off,,,,,48,0,5,,,,,3,,,67,0
40464,note_on,,,,,0,0,5,,,,,3,,,66,75
40464,note_off,,,,,48,0,2,,,,,1,,,67,0
40464,note_on,,,,,0,0,2,,,,,1,,,66,60
40464,note_on,,,,,0,0,1,,,,,0,,,69,60
40992,note_off,,,,,1056,0,10,,,,,8,,,50,0
40992,note_off,,,,,1056,0,9,,,,,7,,,57,0
40992,note_off,,,,,0,0,9,,,,,7,,,62,0
40992,note_off,,,,,0,0,9,,,,,7,,,66,0
41088,note_off,,,,,624,0,1,,,,,0,,,69,0
41088,note_off,,,,,1152,0,3,,,,,10,,,50,0
41088,note_off,,,,,624,0,5,,,,,3,,,66,0
41088,note_off,,,,,624,0,2,,,,,1,,,66,0
41088,note_off,,,,,1152,0,8,,,,,6,,,38,0
41088,note_off,,,,,624,0,4,,,,,2,,,69,0
41088,note_off,,,,,1152,0,6,,,,,4,,,62,0
41088,note_off,,,,,1152,0,7,,,,,5,,,50,0
41280,note_on,,,,,192,0,3,,,,,10,,,43,92
41280,note_on,,,,,192,0,1,,,,,0,,,70,92
41280,note_on,,,,,192,0,6,,,,,4,,,58,92
41280,note_on,,,,,192,0,5,,,,,3,,,67,108
41280,note_on,,,,,288,0,10,,,,,8,,,43,60
41280,note_on,,,,,192,0,7,,,,,5,,,43,92
41280,note_on,,,,,192,0,2,,,,,1,,,67,92
41280,note_on,,,,,288,0,9,,,,,7,,,58,60
41280,note_on,,,,,192,0,4,,,,,2,,,70,108
41280,note_on,,,,,0,0,9,,,,,7,,,67,60
41280,note_on,,,,,192,0,8,,,,,6,,,31,75
41280,note_on,,,,,0,0,9,,,,,7,,,62,60
41464,note_off,,,,,184,0,10,,,,,8,,,43,0
41464,note_off,,,,,0,0,9,,,,,7,,,62,0
41464,note_off,,,,,184,0,9,,,,,7,,,58,0
41464,note_off,,,,,0,0,9,,,,,7,,,67,0
41472,note_on,,,,,0,0,5,,,,,3,,,64,108
41472,note_on,,,,,0,0,5,,,,,3,,,55,108
41472,note_off,,,,,192,0,5,,,,,3,,,67,0
41472,note_off,,,,,192,0,2,,,,,1,,,67,0
41472,note_on,,,,,0,0,4,,,,,2,,,76,108
41472,note_on,,,,,0,0,4,,,,,2,,,67,108
41472,note_off,,,,,192,0,6,,,,,4,,,58,0
41472,note_off,,,,,192,0,7,,,,,5,,,43,0
41472,note_on,,,,,0,0,7,,,,,5,,,36,92
41472,note_off,,,,,192,0,8,,,,,6,,,31,0
41472,note_on,,,,,0,0,8,,,,,6,,,24,75
41472,note_on,,,,,0,0,3,,,,,10,,,36,92
41472,note_on,,,,,0,0,1,,,,,0,,,76,92
41472,note_on,,,,,0,0,10,,,,,8,,,55,60
41472,note_on,,,,,0,0,10,,,,,8,,,52,60
41472,note_on,,,,,0,0,10,,,,,8,,,48,60
41472,note_on,,,,,0,0,10,,,,,8,,,43,60
41472,note_on,,,,,8,0,10,,,,,8,,,36,60
41472,note_off,,,,,192,0,3,,,,,10,,,43,0
41472,note_on,,,,,0,0,6,,,,,4,,,58,92
41472,note_on,,,,,0,0,4,,,,,2,,,70,108
41472,note_off,,,,,192,0,4,,,,,2,,,70,0
41472,note_on,,,,,0,0,2,,,,,1,,,64,92
41472,note_on,,,,,0,0,2,,,,,1,,,55,92
41472,note_on,,,,,0,0,9,,,,,7,,,67,60
41472,note_on,,,,,0,0,1,,,,,0,,,67,92
41472,note_on,,,,,0,0,1,,,,,0,,,70,92
41472,note_off,,,,,192,0,1,,,,,0,,,70,0
41472,note_on,,,,,0,0,9,,,,,7,,,64,60
41472,note_on,,,,,8,0,9,,,,,7,,,58,60
43680,note_off,,,,,0,0,10,,,,,8,,,52,0
43680,note_off,,,,,0,0,10,,,,,8,,,48,0
43680,note_off,,,,,0,0,9,,,,,7,,,67,0
43680,note_off,,,,,0,0,10,,,,,8,,,43,0
43680,note_off,,,,,2208,0,10,,,,,8,,,36,0
43680,note_off,,,,,2208,0,9,,,,,7,,,58,0
43680,note_off,,,,,0,0,10,,,,,8,,,55,0
43680,note_off,,,,,0,0,9,,,,,7,,,64,0
43776,note_off,,,,,0,0,4,,,,,2,,,76,0
43776,note_off,,,,,0,0,5,,,,,3,,,64,0
43776,note_off,,,,,2304,0,5,,,,,3,,,55,0
43776,note_off,,,,,0,0,1,,,,,0,,,70,0
43776,note_off,,,,,0,0,2,,,,,1,,,64,0
43776,note_off,,,,,0,0,1,,,,,0,,,76,0
43776,note_off,,,,,0,0,4,,,,,2,,,70,0
43776,note_off,,,,,2304,0,2,,,,,1,,,55,0
43776,note_off,,,,,2304,0,4,,,,,2,,,67,0
43776,note_off,,,,,2304,0,1,,,,,0,,,67,0
43776,note_off,,,,,2304,0,7,,,,,5,,,36,0
43776,note_off,,,,,2304,0,6,,,,,4,,,58,0
43776,note_off,,,,,2304,0,8,,,,,6,,,24,0
43776,note_off,,,,,2304,0,3,,,,,10,,,36,0
44544,note_on,,,,,768,0,5,,,,,3,,,55,60
44544,note_on,,,,,768,0,6,,,,,4,,,55,45
44544,note_on,,,,,0,0,9,,,,,7,,,81,60
44544,note_on,,,,,0,0,9,,,,,7,,,75,60
44544,note_on,,,,,768,0,8,,,,,6,,,34,45
44544,note_on,,,,,768,0,3,,,,,10,,,46,45
44544,note_on,,,,,768,0,4,,,,,2,,,64,60
44544,note_on,,,,,864,0,10,,,,,8,,,46,60
44544,note_on,,,,,768,0,7,,,,,5,,,46,45
44544,note_on,,,,,768,0,1,,,,,0,,,64,45
44544,note_on,,,,,768,0,2,,,,,1,,,55,45
44544,note_on,,,,,864,0,9,,,,,7,,,72,60
45600,note_off,,,,,0,0,9,,,,,7,,,81,0
45600,note_off,,,,,1056,0,9,,,,,7,,,72,0
45600,note_off,,,,,1056,0,10,,,,,8,,,46,0
45600,note_off,,,,,0,0,9,,,,,7,,,75,0
45696,note_on,,,,,0,0,6,,,,,4,,,55,45
45696,note_on,,,,,0,0,3,,,,,10,,,46,45
45696,note_off,,,,,1152,0,3,,,,,10,,,46,0
45696,note_on,,,,,96,0,9,,,,,7,,,72,60
45696,note_on,,,,,0,0,9,,,,,7,,,75,60
45696,note_on,,,,,0,0,9,,,,,7,,,81,60
45696,note_off,,,,,1152,0,5,,,,,3,,,55,0
45696,note_on,,,,,96,0,10,,,,,8,,,46,60
45696,note_on,,,,,0,0,5,,,,,3,,,55,60
45696,note_off,,,,,1152,0,1,,,,,0,,,64,0
45696,note_on,,,,,0,0,7,,,,,5,,,46,45
45696,note_off,,,,,1152,0,7,,,,,5,,,46,0
45696,note_on,,,,,0,0,1,,,,,0,,,64,45
45696,note_on,,,,,0,0,2,,,,,1,,,55,45
45696,note_off,,,,,1152,0,2,,,,,1,,,55,0
45696,note_on,,,,,0,0,8,,,,,6,,,34,45
45696,note_off,,,,,1152,0,6,,,,,4,,,55,0
45696,note_on,,,,,0,0,4,,,,,2,,,64,60
45696,note_off,,,,,1152,0,4,,,,,2,,,64,0
45696,note_off,,,,,1152,0,8,,,,,6,,,34,0
46016,note_off,,,,,320,0,10,,,,,8,,,46,0
46016,note_off,,,,,0,0,9,,,,,7,,,81,0
46016,note_off,,,,,0,0,9,,,,,7,,,75,0
46016,note_off,,,,,320,0,9,,,,,7,,,72,0
46080,note_on,,,,,64,0,10,,,,,8,,,45,60
46080,note_on,,,,,0,0,3,,,,,10,,,45,45
46080,note_off,,,,,384,0,3,,,,,10,,,46,0
46080,note_off,,,,,384,0,1,,,,,0,,,64,0
46080,note_off,,,,,384,0,7,,,,,5,,,46,0
46080,note_on,,,,,0,0,1,,,,,0,,,65,45
46080,note_on,,,,,0,0,5,,,,,3,,,60,60
46080,note_off,,,,,384,0,6,,,,,4,,,55,0
46080,note_on,,,,,0,0,7,,,,,5,,,45,45
46080,note_on,,,,,0,0,9,,,,,7,,,81,60
46080,note_on,,,,,64,0,9,,,,,7,,,74,60
46080,note_off,,,,,384,0,8,,,,,6,,,34,0
46080,note_off,,,,,384,0,5,,,,,3,,,55,0
46080,note_off,,,,,384,0,4,,,,,2,,,64,0
46080,note_on,,,,,0,0,8,,,,,6,,,33,45
46080,note_on,,,,,0,0,2,,,,,1,,,60,45
46080,note_on,,,,,0,0,4,,,,,2,,,65,60
46080,note_off,,,,,384,0,2,,,,,1,,,55,0
46080,note_on,,,,,0,0,6,,,,,4,,,57,45
48288,note_off,,,,,2208,0,9,,,,,7,,,74,0
48288,note_off,,,,,2208,0,10,,,,,8,,,45,0
48288,note_off,,,,,0,0,9,,,,,7,,,81,0
48384,note_off,,,,,2304,0,4,,,,,2,,,65,0
48384,note_off,,,,,2304,0,3,,,,,10,,,45,0
48384,note_off,,,,,2304,0,8,,,,,6,,,33,0
48384,note_off,,,,,2304,0,2,,,,,1,,,60,0
48384,note_off,,,,,2304,0,7,,,,,5,,,45,0
48384,note_off,,,,,2304,0,6,,,,,4,,,57,0
48384,note_off,,,,,2304,0,5,,,,,3,,,60,0
48384,note_off,,,,,2304,0,1,,,,,0,,,65,0
49152,note_on,,,,,864,0,9,,,,,7,,,62,60
49152,note_on,,,,,0,0,9,,,,,7,,,69,60
49152,note_on,,,,,768,0,3,,,,,10,,,60,45
49152,note_on,,,,,864,0,10,,,,,8,,,60,60
49152,note_on,,,,,0,0,9,,,,,7,,,66,60
49152,note_on,,,,,768,0,1,,,,,0,,,78,45
49152,note_on,,,,,768,0,2,,,,,1,,,69,45
50208,note_off,,,,,1056,0,10,,,,,8,,,60,0
50208,note_off,,,,,1056,0,9,,,,,7,,,62,0
50208,note_off,,,,,0,0,9,,,,,7,,,66,0
50208,note_off,,,,,0,0,9,,,,,7,,,69,0
50304,note_on,,,,,0,0,3,,,,,10,,,60,45
50304,note_off,,,,,1152,0,3,,,,,10,,,60,0
50304,note_on,,,,,0,0,9,,,,,7,,,69,60
50304,note_on,,,,,0,0,9,,,,,7,,,66,60
50304,note_on,,,,,96,0,9,,,,,7,,,62,60
50304,note_off,,,,,1152,0,2,,,,,1,,,69,0
50304,note_on,,,,,0,0,2,,,,,1,,,69,45
50304,note_on,,,,,96,0,10,,,,,8,,,60,60
50304,note_off,,,,,1152,0,1,,,,,0,,,78,0
50304,note_on,,,,,0,0,1,,,,,0,,,78,45
50624,note_off,,,,,0,0,9,,,,,7,,,66,0
50624,note_off,,,,,320,0,9,,,,,7,,,62,0
50624,note_off,,,,,0,0,9,,,,,7,,,69,0
50624,note_off,,,,,320,0,10,,,,,8,,,60,0
50688,note_on,,,,,0,0,3,,,,,10,,,58,45
50688,note_off,,,,,384,0,2,,,,,1,,,69,0
50688,note_on,,,,,0,0,9,,,,,7,,,67,60
50688,note_on,,,,,64,0,9,,,,,7,,,62,60
50688,note_on,,,,,64,0,10,,,,,8,,,58,60
50688,note_on,,,,,0,0,1,,,,,0,,,79,45
50688,note_off,,,,,384,0,1,,,,,0,,,78,0
50688,note_on,,,,,0,0,2,,,,,1,,,74,45
50688,note_off,,,,,384,0,3,,,,,10,,,60,0
51744,note_off,,,,,1056,0,10,,,,,8,,,58,0
51744,note_off,,,,,0,0,9,,,,,7,,,67,0
51744,note_off,,,,,1056,0,9,,,,,7,,,62,0
51840,note_on,,,,,0,0,9,,,,,7,,,66,60
51840,note_on,,,,,0,0,9,,,,,7,,,72,60
51840,note_on,,,,,0,0,3,,,,,10,,,57,45
51840,note_off,,,,,1152,0,2,,,,,1,,,74,0
51840,note_on,,,,,96,0,10,,,,,8,,,57,60
51840,note_off,,,,,1152,0,3,,,,,10,,,58,0
51840,note_off,,,,,1152,0,1,,,,,0,,,79,0
51840,note_on,,,,,0,0,1,,,,,0,,,81,45
51840,note_on,,,,,96,0,9,,,,,7,,,60,60
51840,note_on,,,,,0,0,2,,,,,1,,,78,45
52160,note_off,,,,,320,0,10,,,,,8,,,57,0
52160,note_off,,,,,320,0,9,,,,,7,,,60,0
52160,note_off,,,,,0,0,9,,,,,7,,,72,0
52160,note_off,,,,,0,0,9,,,,,7,,,66,0
52224,note_on,,,,,0,0,9,,,,,7,,,67,60
52224,note_on,,,,,0,0,3,,,,,10,,,55,45
52224,note_off,,,,,384,0,1,,,,,0,,,81,0
52224,note_on,,,,,64,0,10,,,,,8,,,55,60
52224,note_on,,,,,0,0,1,,,,,0,,,82,45
52224,note_on,,,,,64,0,9,,,,,7,,,62,60
52224,note_off,,,,,384,0,3,,,,,10,,,57,0
52224,note_off,,,,,384,0,2,,,,,1,,,78,0
52224,note_on,,,,,0,0,9,,,,,7,,,70,60
52224,note_on,,,,,0,0,2,,,,,1,,,79,45
52896,note_off,,,,,0,0,9,,,,,7,,,67,0
52896,note_off,,,,,672,0,10,,,,,8,,,55,0
52896,note_off,,,,,672,0,9,,,,,7,,,62,0
52896,note_off,,,,,0,0,9,,,,,7,,,70,0
52992,note_off,,,,,768,0,2,,,,,1,,,79,0
52992,note_on,,,,,0,0,2,,,,,1,,,70,45
52992,note_on,,,,,96,0,10,,,,,8,,,67,60
52992,note_on,,,,,0,0,3,,,,,10,,,67,45
52992,note_on,,,,,0,0,9,,,,,7,,,70,60
52992,note_on,,,,,96,0,9,,,,,7,,,67,60
52992,note_off,,,,,768,0,1,,,,,0,,,82,0
52992,note_on,,,,,0,0,1,,,,,0,,,70,45
52992,note_off,,,,,768,0,3,,,,,10,,,55,0
53376,note_on,,,,,0,0,1,,,,,0,,,72,45
53376,note_off,,,,,384,0,1,,,,,0,,,70,0
53664,note_off,,,,,672,0,10,,,,,8,,,67,0
53664,note_off,,,,,672,0,9,,,,,7,,,67,0
53664,note_off,,,,,0,0,9,,,,,7,,,70,0
53760,note_on,,,,,0,0,1,,,,,0,,,74,45
53760,note_off,,,,,384,0,1,,,,,0,,,72,0
53760,note_on,,,,,0,0,2,,,,,1,,,67,45
53760,note_off,,,,,768,0,3,,,,,10,,,67,0
53760,note_on,,,,,0,0,3,,,,,10,,,63,45
53760,note_off,,,,,768,0,2,,,,,1,,,70,0
53760,note_on,,,,,96,0,9,,,,,7,,,67,60
53760,note_on,,,,,0,0,9,,,,,7,,,72,60
53760,note_on,,,,,96,0,10,,,,,8,,,63,60
53808,note_on,,,,,0,0,1,,,,,0,,,72,45
53808,note_off,,,,,48,0,1,,,,,0,,,74,0
53856,note_off,,,,,48,0,1,,,,,0,,,72,0
53856,note_on,,,,,0,0,1,,,,,0,,,74,45
53904,note_off,,,,,48,0,1,,,,,0,,,74,0
53904,note_on,,,,,0,0,1,,,,,0,,,72,45
53952,note_off,,,,,48,0,1,,,,,0,,,72,0
53952,note_on,,,,,0,0,1,,,,,0,,,74,45
54000,note_on,,,,,0,0,1,,,,,0,,,72,45
54000,note_off,,,,,48,0,1,,,,,0,,,74,0
54048,note_on,,,,,0,0,1,,,,,0,,,74,45
54048,note_off,,,,,48,0,1,,,,,0,,,72,0
54096,note_off,,,,,48,0,1,,,,,0,,,74,0
54096,note_on,,,,,0,0,1,,,,,0,,,72,45
54144,note_off,,,,,48,0,1,,,,,0,,,72,0
54144,note_on,,,,,0,0,1,,,,,0,,,74,45
54192,note_on,,,,,0,0,1,,,,,0,,,72,45
54192,note_off,,,,,48,0,1,,,,,0,,,74,0
54240,note_on,,,,,0,0,1,,,,,0,,,74,45
54240,note_off,,,,,48,0,1,,,,,0,,,72,0
54288,note_off,,,,,48,0,1,,,,,0,,,74,0
54288,note_on,,,,,0,0,1,,,,,0,,,72,45
54336,note_off,,,,,48,0,1,,,,,0,,,72,0
54336,note_on,,,,,0,0,1,,,,,0,,,74,45
54384,note_off,,,,,48,0,1,,,,,0,,,74,0
54384,note_on,,,,,0,0,1,,,,,0,,,72,45
54432,note_on,,,,,0,0,1,,,,,0,,,74,45
54432,note_off,,,,,48,0,1,,,,,0,,,72,0
54480,note_off,,,,,48,0,1,,,,,0,,,74,0
54480,note_on,,,,,0,0,1,,,,,0,,,72,45
55200,note_off,,,,,1440,0,10,,,,,8,,,63,0
55200,note_off,,,,,0,0,9,,,,,7,,,72,0
55200,note_off,,,,,1440,0,9,,,,,7,,,67,0
55296,set_tempo,,,,,18432,1,0,,1363636,,,,,,,
55296,note_off,,,,,1536,0,3,,,,,10,,,63,0
55296,note_off,,,,,816,0,1,,,,,0,,,72,0
55296,note_on,,,,,0,0,1,,,,,0,,,74,45
55296,note_off,,,,,1536,0,2,,,,,1,,,67,0
55296,note_on,,,,,0,0,2,,,,,1,,,66,45
55296,note_on,,,,,96,0,10,,,,,8,,,62,60
55296,note_on,,,,,96,0,9,,,,,7,,,66,60
55296,note_on,,,,,0,0,9,,,,,7,,,69,60
55296,note_on,,,,,0,0,9,,,,,7,,,74,60
55296,note_on,,,,,0,0,3,,,,,10,,,62,45
55480,note_off,,,,,184,0,10,,,,,8,,,62,0
55480,note_off,,,,,184,0,9,,,,,7,,,66,0
55480,note_off,,,,,0,0,9,,,,,7,,,69,0
55480,note_off,,,,,0,0,9,,,,,7,,,74,0
55488,note_on,,,,,8,0,10,,,,,8,,,62,60
55488,note_on,,,,,0,0,9,,,,,7,,,74,60
55488,note_on,,,,,8,0,9,,,,,7,,,66,60
55488,note_on,,,,,0,0,9,,,,,7,,,69,60
56000,note_off,,,,,512,0,9,,,,,7,,,66,0
56000,note_off,,,,,512,0,10,,,,,8,,,62,0
56000,note_off,,,,,0,0,9,,,,,7,,,74,0
56000,note_off,,,,,0,0,9,,,,,7,,,69,0
56064,set_tempo,,,,,768,1,0,,652173,,,,,,,
56064,note_on,,,,,0,0,9,,,,,7,,,74,60
56064,note_on,,,,,7680,0,5,,,,,3,,,67,108
56064,note_on,,,,,0,0,9,,,,,7,,,70,60
56064,note_on,,,,,64,0,9,,,,,7,,,67,60
56064,note_on,,,,,0,0,2,,,,,1,,,67,92
56064,note_on,,,,,7680,0,7,,,,,5,,,55,92
56064,note_on,,,,,7680,0,6,,,,,4,,,67,92
56064,note_off,,,,,768,0,3,,,,,10,,,62,0
56064,note_on,,,,,7680,0,8,,,,,6,,,43,75
56064,note_off,,,,,768,0,2,,,,,1,,,66,0
56064,note_off,,,,,768,0,1,,,,,0,,,74,0
56064,note_on,,,,,64,0,10,,,,,8,,,55,60
56064,note_on,,,,,7680,0,4,,,,,2,,,74,108
56064,note_on,,,,,0,0,1,,,,,0,,,74,92
56064,note_on,,,,,0,0,3,,,,,10,,,55,92
56736,note_off,,,,,672,0,10,,,,,8,,,55,0
56736,note_off,,,,,672,0,9,,,,,7,,,67,0
56736,note_off,,,,,0,0,9,,,,,7,,,70,0
56736,note_off,,,,,0,0,9,,,,,7,,,74,0
56832,note_on,,,,,0,0,5,,,,,3,,,70,108
56832,note_off,,,,,768,0,6,,,,,4,,,67,0
56832,note_on,,,,,0,0,9,,,,,7,,,70,60
56832,note_off,,,,,768,0,8,,,,,6,,,43,0
56832,note_on,,,,,0,0,8,,,,,6,,,39,75
56832,note_on,,,,,0,0,9,,,,,7,,,75,60
56832,note_off,,,,,768,0,5,,,,,3,,,67,0
56832,note_off,,,,,768,0,2,,,,,1,,,67,0
56832,note_on,,,,,96,0,9,,,,,7,,,67,60
56832,note_on,,,,,0,0,4,,,,,2,,,79,108
56832,note_on,,,,,0,0,6,,,,,4,,,67,92
56832,note_on,,,,,96,0,10,,,,,8,,,51,60
56832,note_off,,,,,768,0,4,,,,,2,,,74,0
56832,note_on,,,,,0,0,2,,,,,1,,,70,92
56832,note_off,,,,,768,0,7,,,,,5,,,55,0
56832,note_on,,,,,0,0,1,,,,,0,,,79,92
56832,note_off,,,,,768,0,1,,,,,0,,,74,0
56832,note_off,,,,,768,0,3,,,,,10,,,55,0
56832,note_on,,,,,0,0,3,,,,,10,,,51,92
56832,note_on,,,,,0,0,7,,,,,5,,,51,92
57504,note_off,,,,,672,0,10,,,,,8,,,51,0
57504,note_off,,,,,672,0,9,,,,,7,,,67,0
57504,note_off,,,,,0,0,9,,,,,7,,,70,0
57504,note_off,,,,,0,0,9,,,,,7,,,75,0
57600,note_on,,,,,0,0,4,,,,,2,,,77,108
57600,note_off,,,,,768,0,4,,,,,2,,,79,0
57600,note_on,,,,,0,0,5,,,,,3,,,74,108
57600,note_off,,,,,768,0,5,,,,,3,,,70,0
57600,note_on,,,,,96,0,9,,,,,7,,,65,60
57600,note_on,,,,,0,0,1,,,,,0,,,77,92
57600,note_off,,,,,768,0,6,,,,,4,,,67,0
57600,note_on,,,,,0,0,6,,,,,4,,,70,92
57600,note_on,,,,,96,0,10,,,,,8,,,58,60
57600,note_off,,,,,768,0,7,,,,,5,,,51,0
57600,note_on,,,,,0,0,7,,,,,5,,,58,92
57600,note_off,,,,,768,0,1,,,,,0,,,79,0
57600,note_on,,,,,0,0,2,,,,,1,,,74,92
57600,note_off,,,,,768,0,2,,,,,1,,,70,0
57600,note_on,,,,,0,0,3,,,,,10,,,58,92
57600,note_off,,,,,768,0,3,,,,,10,,,51,0
57600,note_on,,,,,0,0,9,,,,,7,,,74,60
57600,note_on,,,,,0,0,9,,,,,7,,,70,60
57600,note_off,,,,,768,0,8,,,,,6,,,39,0
57600,note_on,,,,,0,0,8,,,,,6,,,46,75
58272,note_off,,,,,0,0,9,,,,,7,,,70,0
58272,note_off,,,,,0,0,9,,,,,7,,,74,0
58272,note_off,,,,,672,0,9,,,,,7,,,65,0
58272,note_off,,,,,672,0,10,,,,,8,,,58,0
58368,note_off,,,,,768,0,1,,,,,0,,,77,0
58368,note_on,,,,,0,0,1,,,,,0,,,75,92
58368,note_off,,,,,768,0,6,,,,,4,,,70,0
58368,note_on,,,,,0,0,8,,,,,6,,,34,75
58368,note_on,,,,,0,0,9,,,,,7,,,65,60
58368,note_on,,,,,0,0,6,,,,,4,,,65,92
58368,note_on,,,,,0,0,9,,,,,7,,,70,60
58368,note_on,,,,,96,0,9,,,,,7,,,62,60
58368,note_off,,,,,768,0,8,,,,,6,,,46,0
58368,note_on,,,,,0,0,7,,,,,5,,,46,92
58368,note_on,,,,,96,0,10,,,,,8,,,46,60
58368,note_off,,,,,768,0,7,,,,,5,,,58,0
58368,note_off,,,,,768,0,2,,,,,1,,,74,0
58368,note_on,,,,,0,0,2,,,,,1,,,70,92
58368,note_off,,,,,768,0,3,,,,,10,,,58,0
58368,note_on,,,,,0,0,3,,,,,10,,,46,92
58368,note_on,,,,,0,0,5,,,,,3,,,70,108
58368,note_off,,,,,768,0,5,,,,,3,,,74,0
58368,note_on,,,,,0,0,4,,,,,2,,,75,108
58368,note_off,,,,,768,0,4,,,,,2,,,77,0
58560,note_on,,,,,0,0,4,,,,,2,,,74,108
58560,note_off,,,,,192,0,4,,,,,2,,,75,0
58560,note_off,,,,,192,0,1,,,,,0,,,75,0
58560,note_on,,,,,0,0,1,,,,,0,,,74,92
59040,note_off,,,,,672,0,10,,,,,8,,,46,0
59040,note_off,,,,,0,0,9,,,,,7,,,70,0
59040,note_off,,,,,0,0,9,,,,,7,,,65,0
59040,note_off,,,,,672,0,9,,,,,7,,,62,0
59136,note_off,,,,,768,0,5,,,,,3,,,70,0
59136,note_off,,,,,768,0,3,,,,,10,,,46,0
59136,note_off,,,,,768,0,6,,,,,4,,,65,0
59136,note_off,,,,,768,0,7,,,,,5,,,46,0
59136,note_on,,,,,0,0,4,,,,,2,,,72,75
59136,note_off,,,,,768,0,8,,,,,6,,,34,0
59136,note_off,,,,,768,0,2,,,,,1,,,70,0
59136,note_on,,,,,0,0,1,,,,,0,,,72,60
59136,note_off,,,,,576,0,1,,,,,0,,,74,0
59136,note_off,,,,,576,0,4,,,,,2,,,74,0
59328,note_on,,,,,0,0,4,,,,,2,,,70,75
59328,note_off,,,,,192,0,4,,,,,2,,,72,0
59328,note_off,,,,,192,0,1,,,,,0,,,72,0
59328,note_on,,,,,0,0,1,,,,,0,,,70,60
59712,note_off,,,,,384,0,4,,,,,2,,,70,0
59712,note_on,,,,,0,0,4,,,,,2,,,72,75
59712,note_on,,,,,0,0,1,,,,,0,,,72,60
59712,note_off,,,,,384,0,1,,,,,0,,,70,0
59904,note_on,,,,,0,0,1,,,,,0,,,70,60
59904,note_off,,,,,192,0,1,,,,,0,,,72,0
59904,note_off,,,,,192,0,4,,,,,2,,,72,0
59904,note_on,,,,,0,0,4,,,,,2,,,70,75
60672,note_on,,,,,1536,0,7,,,,,5,,,50,60
60672,note_on,,,,,1536,0,3,,,,,10,,,50,60
60672,note_on,,,,,1632,0,9,,,,,7,,,58,60
60672,note_on,,,,,0,0,9,,,,,7,,,65,60
60672,note_on,,,,,1536,0,8,,,,,6,,,38,60
60672,note_on,,,,,1536,0,5,,,,,3,,,65,75
60672,note_on,,,,,1536,0,6,,,,,4,,,62,60
60672,note_on,,,,,1632,0,10,,,,,8,,,50,60
60672,note_on,,,,,1536,0,2,,,,,1,,,65,60
61344,note_off,,,,,672,0,9,,,,,7,,,58,0
61344,note_off,,,,,672,0,10,,,,,8,,,50,0
61344,note_off,,,,,0,0,9,,,,,7,,,65,0
61440,note_on,,,,,0,0,8,,,,,6,,,39,60
61440,note_on,,,,,96,0,9,,,,,7,,,58,60
61440,note_on,,,,,0,0,9,,,,,7,,,63,60
61440,note_off,,,,,768,0,3,,,,,10,,,50,0
61440,note_on,,,,,0,0,3,,,,,10,,,51,60
61440,note_on,,,,,0,0,5,,,,,3,,,67,75
61440,note_off,,,,,768,0,5,,,,,3,,,65,0
61440,note_off,,,,,768,0,8,,,,,6,,,38,0
61440,note_on,,,,,0,0,9,,,,,7,,,67,60
61440,note_on,,,,,0,0,6,,,,,4,,,58,60
61440,note_on,,,,,96,0,10,,,,,8,,,51,60
61440,note_off,,,,,768,0,2,,,,,1,,,65,0
61440,note_off,,,,,768,0,6,,,,,4,,,62,0
61440,note_off,,,,,768,0,7,,,,,5,,,50,0
61440,note_on,,,,,0,0,7,,,,,5,,,51,60
61440,note_on,,,,,0,0,2,,,,,1,,,67,60
62112,note_off,,,,,0,0,9,,,,,7,,,67,0
62112,note_off,,,,,0,0,9,,,,,7,,,63,0
62112,note_off,,,,,672,0,9,,,,,7,,,58,0
62112,note_off,,,,,672,0,10,,,,,8,,,51,0
62208,note_on,,,,,0,0,6,,,,,4,,,62,60
62208,note_on,,,,,0,0,9,,,,,7,,,65,60
62208,note_on,,,,,0,0,9,,,,,7,,,62,60
62208,note_on,,,,,96,0,9,,,,,7,,,58,60
62208,note_on,,,,,96,0,10,,,,,8,,,46,60
62208,note_off,,,,,768,0,3,,,,,10,,,51,0
62208,note_off,,,,,768,0,6,,,,,4,,,58,0
62208,note_on,,,,,0,0,8,,,,,6,,,34,60
62208,note_off,,,,,768,0,8,,,,,6,,,39,0
62208,note_on,,,,,0,0,5,,,,,3,,,62,75
62208,note_off,,,,,768,0,2,,,,,1,,,67,0
62208,note_on,,,,,0,0,2,,,,,1,,,62,60
62208,note_on,,,,,0,0,3,,,,,10,,,46,60
62208,note_off,,,,,768,0,7,,,,,5,,,51,0
62208,note_on,,,,,0,0,7,,,,,5,,,46,60
62208,note_off,,,,,768,0,5,,,,,3,,,67,0
62880,note_off,,,,,0,0,9,,,,,7,,,62,0
62880,note_off,,,,,672,0,9,,,,,7,,,58,0
62880,note_off,,,,,0,0,9,,,,,7,,,65,0
62880,note_off,,,,,672,0,10,,,,,8,,,46,0
62976,note_off,,,,,3072,0,1,,,,,0,,,70,0
62976,note_off,,,,,768,0,8,,,,,6,,,34,0
62976,note_on,,,,,0,0,2,,,,,1,,,62,60
62976,note_off,,,,,768,0,2,,,,,1,,,62,0
62976,note_on,,,,,96,0,9,,,,,7,,,62,60
62976,note_on,,,,,0,0,9,,,,,7,,,65,60
62976,note_on,,,,,96,0,10,,,,,8,,,58,60
62976,note_on,,,,,0,0,1,,,,,0,,,82,60
62976,note_off,,,,,768,0,5,,,,,3,,,62,0
62976,note_off,,,,,3072,0,4,,,,,2,,,70,0
62976,note_off,,,,,768,0,3,,,,,10,,,46,0
62976,note_on,,,,,0,0,3,,,,,10,,,58,60
62976,note_off,,,,,768,0,6,,,,,4,,,62,0
62976,note_off,,,,,768,0,7,,,,,5,,,46,0
63648,note_off,,,,,672,0,10,,,,,8,,,58,0
63648,note_off,,,,,0,0,9,,,,,7,,,65,0
63648,note_off,,,,,672,0,9,,,,,7,,,62,0
63744,note_off,,,,,768,0,3,,,,,10,,,58,0
63744,note_off,,,,,768,0,1,,,,,0,,,82,0
63744,note_on,,,,,0,0,9,,,,,7,,,69,60
63744,note_on,,,,,96,0,9,,,,,7,,,63,60
63744,note_on,,,,,0,0,2,,,,,1,,,63,60
63744,note_off,,,,,768,0,2,,,,,1,,,62,0
63744,note_on,,,,,0,0,3,,,,,10,,,60,60
63744,note_on,,,,,0,0,1,,,,,0,,,79,60
63744,note_on,,,,,96,0,10,,,,,8,,,60,60
64320,note_on,,,,,0,0,1,,,,,0,,,77,60
64320,note_off,,,,,576,0,1,,,,,0,,,79,0
64416,note_off,,,,,672,0,10,,,,,8,,,60,0
64416,note_off,,,,,672,0,9,,,,,7,,,63,0
64416,note_off,,,,,0,0,9,,,,,7,,,69,0
64512,note_off,,,,,192,0,1,,,,,0,,,77,0
64512,note_on,,,,,0,0,3,,,,,10,,,62,60
64512,note_off,,,,,768,0,3,,,,,10,,,60,0
64512,note_on,,,,,0,0,2,,,,,1,,,65,60
64512,note_on,,,,,0,0,1,,,,,0,,,77,60
64512,note_on,,,,,96,0,10,,,,,8,,,62,60
64512,note_on,,,,,96,0,9,,,,,7,,,65,60
64512,note_off,,,,,768,0,2,,,,,1,,,63,0
64512,note_on,,,,,0,0,9,,,,,7,,,70,60
65184,note_off,,,,,672,0,10,,,,,8,,,62,0
65184,note_off,,,,,0,0,9,,,,,7,,,70,0
65184,note_off,,,,,672,0,9,,,,,7,,,65,0
65280,note_on,,,,,0,0,3,,,,,10,,,62,92
65280,note_off,,,,,768,0,3,,,,,10,,,62,0
65280,note_on,,,,,0,0,2,,,,,1,,,65,92
65280,note_on,,,,,96,0,10,,,,,8,,,62,60
65280,note_on,,,,,0,0,9,,,,,7,,,70,60
65280,note_on,,,,,96,0,9,,,,,7,,,65,60
65280,note_off,,,,,768,0,2,,,,,1,,,65,0
65280,note_off,,,,,768,0,1,,,,,0,,,77,0
65280,note_on,,,,,0,0,1,,,,,0,,,70,92
65952,note_off,,,,,672,0,9,,,,,7,,,65,0
65952,note_off,,,,,0,0,9,,,,,7,,,70,0
65952,note_off,,,,,672,0,10,,,,,8,,,62,0
66048,note_on,,,,,0,0,2,,,,,1,,,67,92
66048,note_on,,,,,96,0,9,,,,,7,,,67,60
66048,note_off,,,,,768,0,2,,,,,1,,,65,0
66048,note_on,,,,,0,0,1,,,,,0,,,70,92
66048,note_off,,,,,768,0,3,,,,,10,,,62,0
66048,note_on,,,,,0,0,9,,,,,7,,,70,60
66048,note_off,,,,,768,0,1,,,,,0,,,70,0
66048,note_on,,,,,96,0,10,,,,,8,,,63,60
66048,note_on,,,,,0,0,3,,,,,10,,,63,92
66720,note_off,,,,,672,0,10,,,,,8,,,63,0
66720,note_off,,,,,0,0,9,,,,,7,,,70,0
66720,note_off,,,,,672,0,9,,,,,7,,,67,0
66816,note_off,,,,,768,0,3,,,,,10,,,63,0
66816,note_on,,,,,0,0,3,,,,,10,,,62,92
66816,note_on,,,,,0,0,9,,,,,7,,,70,60
66816,note_on,,,,,96,0,9,,,,,7,,,65,60
66816,note_off,,,,,768,0,2,,,,,1,,,67,0
66816,note_on,,,,,3840,0,8,,,,,6,,,50,60
66816,note_on,,,,,96,0,10,,,,,8,,,62,60
66816,note_on,,,,,3840,0,7,,,,,5,,,62,60
66816,note_on,,,,,0,0,1,,,,,0,,,70,92
66816,note_off,,,,,768,0,1,,,,,0,,,70,0
66816,note_on,,,,,0,0,2,,,,,1,,,65,92
67488,note_off,,,,,672,0,9,,,,,7,,,65,0
67488,note_off,,,,,0,0,9,,,,,7,,,70,0
67488,note_off,,,,,672,0,10,,,,,8,,,62,0
67584,note_on,,,,,4608,0,4,,,,,2,,,70,108
67584,note_on,,,,,0,0,2,,,,,1,,,65,92
67584,note_off,,,,,768,0,2,,,,,1,,,65,0
67584,note_off,,,,,768,0,7,,,,,5,,,62,0
67584,note_on,,,,,0,0,7,,,,,5,,,50,92
67584,note_on,,,,,4608,0,6,,,,,4,,,62,92
67584,note_on,,,,,0,0,9,,,,,7,,,65,60
67584,note_on,,,,,4608,0,5,,,,,3,,,65,108
67584,note_on,,,,,96,0,9,,,,,7,,,60,60
67584,note_on,,,,,0,0,8,,,,,6,,,38,75
67584,note_off,,,,,768,0,8,,,,,6,,,50,0
67584,note_on,,,,,0,0,3,,,,,10,,,50,92
67584,note_on,,,,,96,0,10,,,,,8,,,50,60
67584,note_off,,,,,768,0,3,,,,,10,,,62,0
68256,note_off,,,,,0,0,9,,,,,7,,,65,0
68256,note_off,,,,,672,0,9,,,,,7,,,60,0
68256,note_off,,,,,672,0,10,,,,,8,,,50,0
68352,note_on,,,,,0,0,2,,,,,1,,,67,92
68352,note_on,,,,,96,0,10,,,,,8,,,51,60
68352,note_on,,,,,96,0,9,,,,,7,,,58,60
68352,note_on,,,,,0,0,9,,,,,7,,,63,60
68352,note_on,,,,,0,0,9,,,,,7,,,67,60
68352,note_on,,,,,0,0,8,,,,,6,,,39,75
68352,note_off,,,,,768,0,8,,,,,6,,,38,0
68352,note_off,,,,,768,0,3,,,,,10,,,50,0
68352,note_off,,,,,768,0,2,,,,,1,,,65,0
68352,note_off,,,,,768,0,4,,,,,2,,,70,0
68352,note_on,,,,,0,0,7,,,,,5,,,51,92
68352,note_on,,,,,0,0,3,,,,,10,,,51,92
68352,note_off,,,,,768,0,5,,,,,3,,,65,0
68352,note_off,,,,,768,0,7,,,,,5,,,50,0
68352,note_on,,,,,0,0,6,,,,,4,,,58,92
68352,note_off,,,,,768,0,6,,,,,4,,,62,0
68352,note_on,,,,,0,0,4,,,,,2,,,70,108
68352,note_on,,,,,0,0,5,,,,,3,,,67,108
69024,note_off,,,,,0,0,9,,,,,7,,,67,0
69024,note_off,,,,,0,0,9,,,,,7,,,63,0
69024,note_off,,,,,672,0,9,,,,,7,,,58,0
69024,note_off,,,,,672,0,10,,,,,8,,,51,0
69120,note_off,,,,,768,0,8,,,,,6,,,39,0
69120,note_on,,,,,0,0,8,,,,,6,,,34,75
69120,note_on,,,,,0,0,7,,,,,5,,,46,92
69120,note_off,,,,,768,0,7,,,,,5,,,51,0
69120,note_off,,,,,768,0,5,,,,,3,,,67,0
69120,note_on,,,,,0,0,9,,,,,7,,,62,60
69120,note_on,,,,,0,0,3,,,,,10,,,46,92
69120,note_off,,,,,768,0,3,,,,,10,,,51,0
69120,note_on,,,,,0,0,5,,,,,3,,,62,108
69120,note_on,,,,,0,0,2,,,,,1,,,62,92
69120,note_on,,,,,0,0,6,,,,,4,,,62,92
69120,note_on,,,,,96,0,10,,,,,8,,,46,60
69120,note_off,,,,,768,0,2,,,,,1,,,67,0
69120,note_on,,,,,96,0,9,,,,,7,,,58,60
69120,note_on,,,,,0,0,9,,,,,7,,,65,60
69120,note_off,,,,,768,0,6,,,,,4,,,58,0
69504,note_on,,,,,0,0,4,,,,,2,,,69,75
69504,note_off,,,,,2688,0,1,,,,,0,,,70,0
69504,note_on,,,,,0,0,1,,,,,0,,,69,60
69504,note_off,,,,,1152,0,4,,,,,2,,,70,0
69792,note_off,,,,,672,0,9,,,,,7,,,58,0
69792,note_off,,,,,0,0,9,,,,,7,,,62,0
69792,note_off,,,,,672,0,10,,,,,8,,,46,0
69792,note_off,,,,,0,0,9,,,,,7,,,65,0
69888,note_off,,,,,768,0,6,,,,,4,,,62,0
69888,note_off,,,,,768,0,7,,,,,5,,,46,0
69888,note_off,,,,,384,0,4,,,,,2,,,69,0
69888,note_on,,,,,0,0,4,,,,,2,,,67,75
69888,note_off,,,,,768,0,8,,,,,6,,,34,0
69888,note_off,,,,,768,0,2,,,,,1,,,62,0
69888,note_off,,,,,768,0,3,,,,,10,,,46,0
69888,note_on,,,,,0,0,1,,,,,0,,,67,60
69888,note_off,,,,,768,0,5,,,,,3,,,62,0
69888,note_off,,,,,384,0,1,,,,,0,,,69,0
70656,note_off,,,,,768,0,1,,,,,0,,,67,0
70656,note_on,,,,,0,0,4,,,,,2,,,67,75
70656,note_off,,,,,768,0,4,,,,,2,,,67,0
70656,note_on,,,,,0,0,1,,,,,0,,,67,60
71424,note_on,,,,,0,0,4,,,,,2,,,67,75
71424,note_on,,,,,0,0,1,,,,,0,,,67,60
71424,note_off,,,,,768,0,1,,,,,0,,,67,0
71424,note_off,,,,,768,0,4,,,,,2,,,67,0
72192,note_on,,,,,2400,0,10,,,,,8,,,46,60
72192,note_on,,,,,2304,0,7,,,,,5,,,46,60
72192,note_on,,,,,0,0,9,,,,,7,,,62,60
72192,note_on,,,,,2304,0,2,,,,,1,,,62,60
72192,note_on,,,,,2304,0,6,,,,,4,,,58,60
72192,note_on,,,,,2304,0,3,,,,,10,,,46,60
72192,note_on,,,,,2304,0,5,,,,,3,,,62,75
72192,note_on,,,,,2400,0,9,,,,,7,,,55,60
72192,note_on,,,,,2304,0,8,,,,,6,,,34,60
72864,note_off,,,,,672,0,10,,,,,8,,,46,0
72864,note_off,,,,,672,0,9,,,,,7,,,55,0
72864,note_off,,,,,0,0,9,,,,,7,,,62,0
72960,note_on,,,,,96,0,9,,,,,7,,,55,60
72960,note_on,,,,,0,0,3,,,,,10,,,48,60
72960,note_off,,,,,768,0,7,,,,,5,,,46,0
72960,note_on,,,,,0,0,7,,,,,5,,,48,60
72960,note_off,,,,,768,0,3,,,,,10,,,46,0
72960,note_on,,,,,0,0,6,,,,,4,,,55,60
72960,note_off,,,,,768,0,6,,,,,4,,,58,0
72960,note_on,,,,,0,0,2,,,,,1,,,63,60
72960,note_on,,,,,0,0,8,,,,,6,,,36,60
72960,note_on,,,,,0,0,9,,,,,7,,,60,60
72960,note_off,,,,,768,0,8,,,,,6,,,34,0
72960,note_on,,,,,0,0,9,,,,,7,,,63,60
72960,note_off,,,,,768,0,5,,,,,3,,,62,0
72960,note_on,,,,,0,0,5,,,,,3,,,63,75
72960,note_off,,,,,768,0,2,,,,,1,,,62,0
72960,note_on,,,,,96,0,10,,,,,8,,,48,60
73632,note_off,,,,,672,0,10,,,,,8,,,48,0
73632,note_off,,,,,672,0,9,,,,,7,,,55,0
73632,note_off,,,,,0,0,9,,,,,7,,,63,0
73632,note_off,,,,,0,0,9,,,,,7,,,60,0
73728,note_on,,,,,96,0,10,,,,,8,,,43,60
73728,note_on,,,,,0,0,3,,,,,10,,,43,60
73728,note_off,,,,,768,0,2,,,,,1,,,63,0
73728,note_on,,,,,0,0,2,,,,,1,,,58,60
73728,note_on,,,,,0,0,9,,,,,7,,,62,60
73728,note_on,,,,,0,0,9,,,,,7,,,58,60
73728,note_on,,,,,96,0,9,,,,,7,,,55,60
73728,note_off,,,,,768,0,5,,,,,3,,,63,0
73728,note_off,,,,,768,0,8,,,,,6,,,36,0
73728,note_on,,,,,0,0,8,,,,,6,,,31,60
73728,note_off,,,,,768,0,3,,,,,10,,,48,0
73728,note_on,,,,,0,0,7,,,,,5,,,43,60
73728,note_on,,,,,0,0,5,,,,,3,,,58,75
73728,note_off,,,,,768,0,7,,,,,5,,,48,0
73728,note_off,,,,,768,0,6,,,,,4,,,55,0
73728,note_on,,,,,0,0,6,,,,,4,,,58,60
74400,note_off,,,,,0,0,9,,,,,7,,,62,0
74400,note_off,,,,,0,0,9,,,,,7,,,58,0
74400,note_off,,,,,672,0,10,,,,,8,,,43,0
74400,note_off,,,,,672,0,9,,,,,7,,,55,0
74496,note_off,,,,,768,0,2,,,,,1,,,58,0
74496,note_off,,,,,768,0,6,,,,,4,,,58,0
74496,note_off,,,,,768,0,3,,,,,10,,,43,0
74496,note_off,,,,,768,0,5,,,,,3,,,58,0
74496,note_off,,,,,768,0,8,,,,,6,,,31,0
74496,note_on,,,,,0,0,4,,,,,2,,,70,108
74496,note_off,,,,,3072,0,4,,,,,2,,,67,0
74496,note_on,,,,,0,0,1,,,,,0,,,70,92
74496,note_off,,,,,3072,0,1,,,,,0,,,67,0
74496,note_off,,,,,768,0,7,,,,,5,,,43,0
75264,note_off,,,,,768,0,4,,,,,2,,,70,0
75264,note_off,,,,,768,0,1,,,,,0,,,70,0
75264,note_on,,,,,0,0,1,,,,,0,,,67,92
75264,note_on,,,,,0,0,4,,,,,2,,,67,108
76032,note_off,,,,,768,0,1,,,,,0,,,67,0
76032,note_on,,,,,0,0,1,,,,,0,,,74,92
76032,note_off,,,,,768,0,4,,,,,2,,,67,0
76032,note_on,,,,,0,0,4,,,,,2,,,74,108
76800,note_on,,,,,2400,0,9,,,,,7,,,62,60
76800,note_on,,,,,0,0,9,,,,,7,,,69,60
76800,note_on,,,,,2304,0,2,,,,,1,,,69,92
76800,note_on,,,,,2304,0,8,,,,,6,,,42,75
76800,note_on,,,,,2304,0,5,,,,,3,,,69,108
76800,note_on,,,,,2400,0,10,,,,,8,,,54,60
76800,note_on,,,,,2304,0,6,,,,,4,,,66,92
76800,note_on,,,,,2304,0,3,,,,,10,,,54,92
76800,note_on,,,,,2304,0,7,,,,,5,,,54,92
77472,note_off,,,,,672,0,10,,,,,8,,,54,0
77472,note_off,,,,,0,0,9,,,,,7,,,69,0
77472,note_off,,,,,672,0,9,,,,,7,,,62,0
77568,note_on,,,,,0,0,6,,,,,4,,,62,92
77568,note_off,,,,,768,0,7,,,,,5,,,54,0
77568,note_on,,,,,96,0,10,,,,,8,,,55,60
77568,note_on,,,,,0,0,7,,,,,5,,,55,92
77568,note_on,,,,,96,0,9,,,,,7,,,62,60
77568,note_on,,,,,0,0,9,,,,,7,,,70,60
77568,note_off,,,,,768,0,6,,,,,4,,,66,0
77568,note_off,,,,,768,0,5,,,,,3,,,69,0
77568,note_on,,,,,0,0,9,,,,,7,,,67,60
77568,note_on,,,,,0,0,5,,,,,3,,,70,108
77568,note_off,,,,,768,0,8,,,,,6,,,42,0
77568,note_on,,,,,0,0,8,,,,,6,,,43,75
77568,note_on,,,,,0,0,2,,,,,1,,,70,92
77568,note_off,,,,,768,0,2,,,,,1,,,69,0
77568,note_off,,,,,768,0,3,,,,,10,,,54,0
77568,note_on,,,,,0,0,3,,,,,10,,,55,92
78240,note_off,,,,,0,0,9,,,,,7,,,67,0
78240,note_off,,,,,0,0,9,,,,,7,,,70,0
78240,note_off,,,,,672,0,9,,,,,7,,,62,0
78240,note_off,,,,,672,0,10,,,,,8,,,55,0
78336,note_on,,,,,96,0,10,,,,,8,,,50,60
78336,note_on,,,,,0,0,8,,,,,6,,,38,75
78336,note_on,,,,,0,0,5,,,,,3,,,69,108
78336,note_on,,,,,0,0,6,,,,,4,,,66,92
78336,note_off,,,,,768,0,5,,,,,3,,,70,0
78336,note_off,,,,,768,0,6,,,,,4,,,62,0
78336,note_on,,,,,96,0,9,,,,,7,,,62,60
78336,note_on,,,,,0,0,9,,,,,7,,,66,60
78336,note_on,,,,,0,0,9,,,,,7,,,69,60
78336,note_off,,,,,768,0,3,,,,,10,,,55,0
78336,note_on,,,,,0,0,3,,,,,10,,,50,92
78336,note_off,,,,,768,0,2,,,,,1,,,70,0
78336,note_off,,,,,768,0,8,,,,,6,,,43,0
78336,note_on,,,,,0,0,2,,,,,1,,,66,92
78336,note_off,,,,,768,0,7,,,,,5,,,55,0
78336,note_on,,,,,0,0,7,,,,,5,,,50,92
79008,note_off,,,,,672,0,9,,,,,7,,,62,0
79008,note_off,,,,,672,0,10,,,,,8,,,50,0
79008,note_off,,,,,0,0,9,,,,,7,,,66,0
79008,note_off,,,,,0,0,9,,,,,7,,,69,0
79104,note_off,,,,,768,0,2,,,,,1,,,66,0
79104,note_on,,,,,0,0,2,,,,,1,,,74,92
79104,note_off,,,,,768,0,6,,,,,4,,,66,0
79104,note_on,,,,,0,0,9,,,,,7,,,67,60
79104,note_off,,,,,3072,0,1,,,,,0,,,74,0
79104,note_on,,,,,0,0,7,,,,,5,,,55,92
79104,note_off,,,,,768,0,7,,,,,5,,,50,0
79104,note_on,,,,,96,0,10,,,,,8,,,55,60
79104,note_on,,,,,0,0,9,,,,,7,,,62,60
79104,note_on,,,,,96,0,9,,,,,7,,,58,60
79104,note_off,,,,,768,0,5,,,,,3,,,69,0
79104,note_on,,,,,0,0,8,,,,,6,,,43,75
79104,note_off,,,,,768,0,8,,,,,6,,,38,0
79104,note_off,,,,,3072,0,4,,,,,2,,,74,0
79104,note_on,,,,,0,0,1,,,,,0,,,82,92
79104,note_off,,,,,768,0,3,,,,,10,,,50,0
79104,note_on,,,,,0,0,3,,,,,10,,,55,92
79776,note_off,,,,,0,0,9,,,,,7,,,67,0
79776,note_off,,,,,672,0,10,,,,,8,,,55,0
79776,note_off,,,,,672,0,9,,,,,7,,,58,0
79776,note_off,,,,,0,0,9,,,,,7,,,62,0
79872,note_off,,,,,768,0,1,,,,,0,,,82,0
79872,note_on,,,,,96,0,10,,,,,8,,,60,60
79872,note_on,,,,,0,0,9,,,,,7,,,69,60
79872,note_on,,,,,96,0,9,,,,,7,,,63,60
79872,note_on,,,,,0,0,1,,,,,0,,,81,92
79872,note_off,,,,,768,0,7,,,,,5,,,55,0
79872,note_on,,,,,0,0,2,,,,,1,,,75,92
79872,note_on,,,,,0,0,3,,,,,10,,,60,92
79872,note_off,,,,,768,0,3,,,,,10,,,55,0
79872,note_on,,,,,0,0,8,,,,,6,,,48,75
79872,note_on,,,,,0,0,7,,,,,5,,,60,92
79872,note_off,,,,,768,0,8,,,,,6,,,43,0
79872,note_off,,,,,768,0,2,,,,,1,,,74,0
80544,note_off,,,,,672,0,10,,,,,8,,,60,0
80544,note_off,,,,,672,0,9,,,,,7,,,63,0
80544,note_off,,,,,0,0,9,,,,,7,,,69,0
80640,note_off,,,,,768,0,3,,,,,10,,,60,0
80640,note_off,,,,,768,0,2,,,,,1,,,75,0
80640,note_on,,,,,96,0,10,,,,,8,,,62,60
80640,note_off,,,,,768,0,1,,,,,0,,,81,0
80640,note_on,,,,,0,0,1,,,,,0,,,78,92
80640,note_on,,,,,0,0,7,,,,,5,,,62,92
80640,note_off,,,,,768,0,8,,,,,6,,,48,0
80640,note_on,,,,,0,0,3,,,,,10,,,62,92
80640,note_on,,,,,0,0,2,,,,,1,,,69,92
80640,note_on,,,,,0,0,8,,,,,6,,,50,75
80640,note_off,,,,,768,0,7,,,,,5,,,60,0
80640,note_on,,,,,0,0,9,,,,,7,,,69,60
80640,note_on,,,,,96,0,9,,,,,7,,,66,60
81312,note_off,,,,,672,0,10,,,,,8,,,62,0
81312,note_off,,,,,0,0,9,,,,,7,,,69,0
81312,note_off,,,,,672,0,9,,,,,7,,,66,0
81408,note_on,,,,,0,0,7,,,,,5,,,67,92
81408,note_off,,,,,768,0,7,,,,,5,,,62,0
81408,note_on,,,,,96,0,10,,,,,8,,,67,60
81408,note_off,,,,,768,0,2,,,,,1,,,69,0
81408,note_on,,,,,0,0,1,,,,,0,,,74,92
81408,note_off,,,,,768,0,1,,,,,0,,,78,0
81408,note_off,,,,,768,0,8,,,,,6,,,50,0
81408,note_on,,,,,96,0,9,,,,,7,,,70,60
81408,note_on,,,,,0,0,8,,,,,6,,,55,75
81408,note_off,,,,,768,0,3,,,,,10,,,62,0
81408,note_on,,,,,0,0,3,,,,,10,,,67,92
81408,note_on,,,,,0,0,2,,,,,1,,,70,92
81792,note_off,,,,,384,0,2,,,,,1,,,70,0
81792,note_on,,,,,0,0,2,,,,,1,,,69,92
82080,note_off,,,,,672,0,9,,,,,7,,,70,0
82080,note_off,,,,,672,0,10,,,,,8,,,67,0
82176,note_off,,,,,768,0,7,,,,,5,,,67,0
82176,note_on,,,,,0,0,8,,,,,6,,,51,75
82176,note_on,,,,,0,0,7,,,,,5,,,63,92
82176,note_on,,,,,96,0,10,,,,,8,,,63,60
82176,note_on,,,,,0,0,9,,,,,7,,,70,60
82176,note_off,,,,,768,0,1,,,,,0,,,74,0
82176,note_on,,,,,0,0,1,,,,,0,,,79,92
82176,note_on,,,,,96,0,9,,,,,7,,,67,60
82176,note_off,,,,,768,0,3,,,,,10,,,67,0
82176,note_on,,,,,0,0,2,,,,,1,,,67,92
82176,note_off,,,,,384,0,2,,,,,1,,,69,0
82176,note_off,,,,,768,0,8,,,,,6,,,55,0
82176,note_on,,,,,0,0,3,,,,,10,,,63,92
82848,note_off,,,,,672,0,9,,,,,7,,,70,0
82848,note_off,,,,,672,0,10,,,,,8,,,63,0
82944,note_on,,,,,0,0,7,,,,,5,,,60,92
82944,note_on,,,,,0,0,9,,,,,7,,,75,60
82944,note_on,,,,,96,0,9,,,,,7,,,69,60
82944,note_off,,,,,768,0,7,,,,,5,,,63,0
82944,note_off,,,,,768,0,2,,,,,1,,,67,0
82944,note_on,,,,,0,0,3,,,,,10,,,60,92
82944,note_on,,,,,96,0,10,,,,,8,,,60,60
82944,note_off,,,,,768,0,8,,,,,6,,,51,0
82944,note_on,,,,,0,0,8,,,,,6,,,48,75
82944,note_off,,,,,768,0,3,,,,,10,,,63,0
82944,note_on,,,,,0,0,2,,,,,1,,,79,92
83328,note_on,,,,,0,0,1,,,,,0,,,81,92
83328,note_off,,,,,1152,0,1,,,,,0,,,79,0
83616,note_off,,,,,672,0,9,,,,,7,,,67,0
83616,note_off,,,,,0,0,9,,,,,7,,,69,0
83616,note_off,,,,,0,0,9,,,,,7,,,75,0
83616,note_off,,,,,672,0,10,,,,,8,,,60,0
83712,note_off,,,,,768,0,3,,,,,10,,,60,0
83712,note_off,,,,,768,0,7,,,,,5,,,60,0
83712,note_off,,,,,384,0,1,,,,,0,,,81,0
83712,note_on,,,,,0,0,3,,,,,10,,,62,92
83712,note_on,,,,,0,0,1,,,,,0,,,82,92
83712,note_on,,,,,0,0,7,,,,,5,,,62,92
83712,note_on,,,,,0,0,8,,,,,6,,,50,75
83712,note_on,,,,,96,0,10,,,,,8,,,62,60
83712,note_off,,,,,768,0,8,,,,,6,,,48,0
83712,note_on,,,,,96,0,9,,,,,7,,,67,60
83712,note_on,,,,,0,0,9,,,,,7,,,70,60
83712,note_on,,,,,0,0,9,,,,,7,,,74,60
84384,note_off,,,,,672,0,10,,,,,8,,,62,0
84384,note_off,,,,,672,0,9,,,,,7,,,67,0
84384,note_off,,,,,0,0,9,,,,,7,,,70,0
84384,note_off,,,,,0,0,9,,,,,7,,,74,0
84480,note_off,,,,,768,0,8,,,,,6,,,50,0
84480,note_off,,,,,768,0,3,,,,,10,,,62,0
84480,note_on,,,,,0,0,8,,,,,6,,,38,75
84480,note_on,,,,,0,0,7,,,,,5,,,50,92
84480,note_off,,,,,768,0,7,,,,,5,,,62,0
84480,note_on,,,,,0,0,2,,,,,1,,,78,92
84480,note_off,,,,,768,0,1,,,,,0,,,82,0
84480,note_on,,,,,0,0,1,,,,,0,,,81,92
84480,note_on,,,,,96,0,10,,,,,8,,,50,60
84480,note_on,,,,,0,0,9,,,,,7,,,74,60
84480,note_on,,,,,0,0,9,,,,,7,,,69,60
84480,note_off,,,,,1536,0,2,,,,,1,,,79,0
84480,note_on,,,,,96,0,9,,,,,7,,,66,60
84480,note_on,,,,,0,0,3,,,,,10,,,50,92
85056,note_on,,,,,0,0,1,,,,,0,,,79,92
85056,note_off,,,,,576,0,1,,,,,0,,,81,0
85152,note_off,,,,,672,0,9,,,,,7,,,66,0
85152,note_off,,,,,672,0,10,,,,,8,,,50,0
85152,note_off,,,,,0,0,9,,,,,7,,,69,0
85152,note_off,,,,,0,0,9,,,,,7,,,74,0
85248,note_off,,,,,768,0,7,,,,,5,,,50,0
85248,note_on,,,,,0,0,7,,,,,5,,,55,92
85248,note_off,,,,,768,0,2,,,,,1,,,78,0
85248,note_off,,,,,768,0,8,,,,,6,,,38,0
85248,note_off,,,,,768,0,3,,,,,10,,,50,0
85248,note_on,,,,,96,0,10,,,,,8,,,55,60
85248,note_on,,,,,96,0,9,,,,,7,,,70,60
85248,note_on,,,,,0,0,2,,,,,1,,,79,92
85248,note_off,,,,,192,0,1,,,,,0,,,79,0
85248,note_on,,,,,0,0,1,,,,,0,,,79,92
85248,note_on,,,,,0,0,8,,,,,6,,,43,75
85248,note_on,,,,,0,0,3,,,,,10,,,55,92
85920,note_off,,,,,672,0,9,,,,,7,,,70,0
85920,note_off,,,,,672,0,10,,,,,8,,,55,0
86016,note_on,,,,,96,0,10,,,,,8,,,48,84
86016,note_off,,,,,768,0,8,,,,,6,,,43,0
86016,note_on,,,,,6912,0,4,,,,,2,,,69,127
86016,note_on,,,,,6912,0,5,,,,,3,,,66,127
86016,note_off,,,,,768,0,1,,,,,0,,,79,0
86016,note_on,,,,,0,0,1,,,,,0,,,69,127
86016,note_on,,,,,0,0,2,,,,,1,,,66,127
86016,note_on,,,,,0,0,8,,,,,6,,,36,105
86016,note_off,,,,,768,0,2,,,,,1,,,79,0
86016,note_on,,,,,0,0,7,,,,,5,,,48,127
86016,note_on,,,,,96,0,9,,,,,7,,,57,84
86016,note_on,,,,,0,0,9,,,,,7,,,62,84
86016,note_on,,,,,6912,0,6,,,,,4,,,62,127
86016,note_off,,,,,768,0,3,,,,,10,,,55,0
86016,note_off,,,,,768,0,7,,,,,5,,,55,0
86016,note_on,,,,,0,0,3,,,,,10,,,48,127
86016,note_on,,,,,0,0,9,,,,,7,,,66,84
86688,note_off,,,,,0,0,9,,,,,7,,,66,0
86688,note_off,,,,,672,0,10,,,,,8,,,48,0
86688,note_off,,,,,672,0,9,,,,,7,,,57,0
86688,note_off,,,,,0,0,9,,,,,7,,,62,0
86784,note_on,,,,,0,0,5,,,,,3,,,66,127
86784,note_on,,,,,96,0,9,,,,,7,,,57,84
86784,note_on,,,,,0,0,3,,,,,10,,,48,127
86784,note_off,,,,,768,0,3,,,,,10,,,48,0
86784,note_off,,,,,768,0,1,,,,,0,,,69,0
86784,note_on,,,,,0,0,9,,,,,7,,,62,84
86784,note_on,,,,,0,0,9,,,,,7,,,66,84
86784,note_on,,,,,0,0,1,,,,,0,,,69,127
86784,note_off,,,,,768,0,5,,,,,3,,,66,0
86784,note_on,,,,,0,0,4,,,,,2,,,69,127
86784,note_off,,,,,768,0,4,,,,,2,,,69,0
86784,note_off,,,,,768,0,6,,,,,4,,,62,0
86784,note_off,,,,,768,0,2,,,,,1,,,66,0
86784,note_on,,,,,0,0,2,,,,,1,,,66,127
86784,note_on,,,,,0,0,8,,,,,6,,,36,105
86784,note_off,,,,,768,0,8,,,,,6,,,36,0
86784,note_off,,,,,768,0,7,,,,,5,,,48,0
86784,note_on,,,,,0,0,7,,,,,5,,,48,127
86784,note_on,,,,,0,0,6,,,,,4,,,62,127
86784,note_on,,,,,96,0,10,,,,,8,,,48,84
87456,note_off,,,,,672,0,10,,,,,8,,,48,0
87456,note_off,,,,,0,0,9,,,,,7,,,66,0
87456,note_off,,,,,0,0,9,,,,,7,,,62,0
87456,note_off,,,,,672,0,9,,,,,7,,,57,0
87552,note_off,,,,,768,0,6,,,,,4,,,62,0
87552,note_on,,,,,96,0,9,,,,,7,,,57,84
87552,note_on,,,,,0,0,4,,,,,2,,,69,108
87552,note_off,,,,,768,0,8,,,,,6,,,36,0
87552,note_on,,,,,0,0,8,,,,,6,,,36,75
87552,note_off,,,,,768,0,4,,,,,2,,,69,0
87552,note_on,,,,,0,0,9,,,,,7,,,62,84
87552,note_on,,,,,0,0,6,,,,,4,,,62,92
87552,note_on,,,,,0,0,9,,,,,7,,,66,84
87552,note_off,,,,,768,0,1,,,,,0,,,69,0
87552,note_off,,,,,768,0,3,,,,,10,,,48,0
87552,note_on,,,,,96,0,10,,,,,8,,,48,60
87552,note_on,,,,,0,0,3,,,,,10,,,48,92
87552,note_on,,,,,0,0,1,,,,,0,,,69,92
87552,note_off,,,,,768,0,5,,,,,3,,,66,0
87552,note_off,,,,,768,0,2,,,,,1,,,66,0
87552,note_on,,,,,0,0,7,,,,,5,,,48,92
87552,note_on,,,,,0,0,5,,,,,3,,,66,108
87552,note_off,,,,,768,0,7,,,,,5,,,48,0
87552,note_on,,,,,0,0,2,,,,,1,,,66,92
89760,note_off,,,,,0,0,9,,,,,7,,,66,0
89760,note_off,,,,,0,0,9,,,,,7,,,62,0
89760,note_off,,,,,2208,0,9,,,,,7,,,57,0
89760,note_off,,,,,2208,0,10,,,,,8,,,48,0
89856,note_off,,,,,2304,0,5,,,,,3,,,66,0
89856,note_off,,,,,2304,0,4,,,,,2,,,69,0
89856,note_off,,,,,2304,0,3,,,,,10,,,48,0
89856,note_off,,,,,2304,0,1,,,,,0,,,69,0
89856,note_off,,,,,2304,0,6,,,,,4,,,62,0
89856,note_off,,,,,2304,0,7,,,,,5,,,48,0
89856,note_off,,,,,2304,0,2,,,,,1,,,66,0
89856,note_off,,,,,2304,0,8,,,,,6,,,36,0
90624,note_on,,,,,768,0,8,,,,,6,,,36,45
90624,note_on,,,,,0,0,10,,,,,8,,,54,60
90624,note_on,,,,,0,0,10,,,,,8,,,50,60
90624,note_on,,,,,864,0,10,,,,,8,,,48,60
90624,note_on,,,,,864,0,9,,,,,7,,,57,60
90624,note_on,,,,,768,0,1,,,,,0,,,69,45
90624,note_on,,,,,768,0,4,,,,,2,,,69,60
90624,note_on,,,,,0,0,9,,,,,7,,,65,60
90624,note_on,,,,,768,0,5,,,,,3,,,66,60
90624,note_on,,,,,0,0,9,,,,,7,,,65,60
90624,note_on,,,,,768,0,3,,,,,10,,,63,45
90624,note_on,,,,,768,0,7,,,,,5,,,48,45
90624,note_on,,,,,768,0,6,,,,,4,,,63,45
90624,note_on,,,,,768,0,2,,,,,1,,,66,45
90624,note_on,,,,,0,0,10,,,,,8,,,57,60
91296,note_off,,,,,0,0,9,,,,,7,,,65,0
91296,note_off,,,,,0,0,9,,,,,7,,,65,0
91296,note_off,,,,,0,0,10,,,,,8,,,57,0
91296,note_off,,,,,0,0,10,,,,,8,,,54,0
91296,note_off,,,,,672,0,9,,,,,7,,,57,0
91296,note_off,,,,,672,0,10,,,,,8,,,48,0
91296,note_off,,,,,0,0,10,,,,,8,,,50,0
91392,note_on,,,,,0,0,9,,,,,7,,,65,60
91392,note_on,,,,,0,0,9,,,,,7,,,65,60
91392,note_on,,,,,0,0,7,,,,,5,,,48,45
91392,note_off,,,,,768,0,3,,,,,10,,,63,0
91392,note_on,,,,,0,0,3,,,,,10,,,63,45
91392,note_off,,,,,768,0,7,,,,,5,,,48,0
91392,note_on,,,,,0,0,4,,,,,2,,,69,60
91392,note_on,,,,,96,0,9,,,,,7,,,58,60
91392,note_on,,,,,0,0,6,,,,,4,,,63,45
91392,note_on,,,,,0,0,5,,,,,3,,,66,60
91392,note_off,,,,,768,0,6,,,,,4,,,63,0
91392,note_off,,,,,768,0,5,,,,,3,,,66,0
91392,note_off,,,,,768,0,4,,,,,2,,,69,0
91392,note_off,,,,,768,0,1,,,,,0,,,69,0
91392,note_on,,,,,0,0,2,,,,,1,,,66,45
91392,note_off,,,,,768,0,2,,,,,1,,,66,0
91392,note_on,,,,,96,0,10,,,,,8,,,48,60
91392,note_on,,,,,0,0,1,,,,,0,,,69,45
91392,note_on,,,,,0,0,8,,,,,6,,,36,45
91392,note_off,,,,,768,0,8,,,,,6,,,36,0
91712,note_off,,,,,320,0,9,,,,,7,,,65,0
91776,note_on,,,,,0,0,6,,,,,4,,,62,45
91776,note_off,,,,,384,0,3,,,,,10,,,63,0
91776,note_on,,,,,0,0,3,,,,,10,,,62,45
91776,note_off,,,,,384,0,6,,,,,4,,,63,0
91776,note_on,,,,,64,0,9,,,,,7,,,62,60
92064,note_off,,,,,672,0,10,,,,,8,,,48,0
92096,note_off,,,,,320,0,9,,,,,7,,,58,0
92096,note_off,,,,,0,0,9,,,,,7,,,65,0
92096,note_off,,,,,0,0,9,,,,,7,,,62,0
92160,note_off,,,,,384,0,6,,,,,4,,,62,0
92160,note_on,,,,,64,0,9,,,,,7,,,55,60
92160,note_on,,,,,0,0,6,,,,,4,,,62,45
92160,note_on,,,,,0,0,9,,,,,7,,,62,60
92160,note_on,,,,,0,0,2,,,,,1,,,67,45
92160,note_off,,,,,768,0,2,,,,,1,,,66,0
92160,note_on,,,,,0,0,9,,,,,7,,,67,60
92160,note_off,,,,,768,0,1,,,,,0,,,69,0
92160,note_on,,,,,0,0,7,,,,,5,,,46,45
92160,note_on,,,,,96,0,10,,,,,8,,,46,60
92160,note_off,,,,,384,0,3,,,,,10,,,62,0
92160,note_on,,,,,0,0,8,,,,,6,,,34,45
92160,note_off,,,,,768,0,8,,,,,6,,,36,0
92160,note_on,,,,,0,0,1,,,,,0,,,74,45
92160,note_off,,,,,768,0,7,,,,,5,,,48,0
92160,note_on,,,,,0,0,3,,,,,10,,,62,45
92160,note_on,,,,,0,0,10,,,,,8,,,55,60
92160,note_off,,,,,768,0,5,,,,,3,,,66,0
92160,note_on,,,,,0,0,5,,,,,3,,,67,60
92160,note_off,,,,,768,0,4,,,,,2,,,69,0
92160,note_on,,,,,0,0,4,,,,,2,,,74,60
93216,note_off,,,,,1056,0,10,,,,,8,,,46,0
93216,note_off,,,,,0,0,10,,,,,8,,,55,0
93312,note_off,,,,,1152,0,1,,,,,0,,,74,0
93312,note_on,,,,,0,0,2,,,,,1,,,66,45
93312,note_off,,,,,1152,0,2,,,,,1,,,67,0
93312,note_off,,,,,1152,0,5,,,,,3,,,67,0
93312,note_on,,,,,0,0,5,,,,,3,,,66,60
93312,note_on,,,,,0,0,8,,,,,6,,,33,45
93312,note_off,,,,,1152,0,8,,,,,6,,,34,0
93312,note_on,,,,,0,0,1,,,,,0,,,72,45
93312,note_off,,,,,0,0,9,,,,,7,,,62,0
93312,note_on,,,,,96,0,10,,,,,8,,,45,60
93312,note_on,,,,,0,0,10,,,,,8,,,53,60
93312,note_on,,,,,0,0,7,,,,,5,,,45,45
93312,note_off,,,,,1152,0,7,,,,,5,,,46,0
93312,note_off,,,,,1152,0,4,,,,,2,,,74,0
93312,note_on,,,,,0,0,9,,,,,7,,,66,60
93312,note_on,,,,,0,0,9,,,,,7,,,62,60
93312,note_on,,,,,0,0,9,,,,,7,,,60,60
93312,note_off,,,,,1152,0,9,,,,,7,,,55,0
93312,note_off,,,,,0,0,9,,,,,7,,,67,0
93312,note_on,,,,,0,0,4,,,,,2,,,72,60
93632,note_off,,,,,320,0,10,,,,,8,,,45,0
93632,note_off,,,,,0,0,10,,,,,8,,,53,0
93632,note_off,,,,,0,0,9,,,,,7,,,66,0
93632,note_off,,,,,0,0,9,,,,,7,,,62,0
93632,note_off,,,,,320,0,9,,,,,7,,,60,0
93696,note_on,,,,,64,0,10,,,,,8,,,43,60
93696,note_off,,,,,384,0,2,,,,,1,,,66,0
93696,note_on,,,,,0,0,7,,,,,5,,,43,45
93696,note_off,,,,,384,0,8,,,,,6,,,33,0
93696,note_on,,,,,0,0,8,,,,,6,,,31,45
93696,note_on,,,,,0,0,4,,,,,2,,,70,60
93696,note_on,,,,,0,0,5,,,,,3,,,67,60
93696,note_off,,,,,384,0,5,,,,,3,,,66,0
93696,note_off,,,,,384,0,7,,,,,5,,,45,0
93696,note_off,,,,,384,0,4,,,,,2,,,72,0
93696,note_on,,,,,0,0,9,,,,,7,,,67,60
93696,note_on,,,,,0,0,9,,,,,7,,,62,60
93696,note_on,,,,,64,0,9,,,,,7,,,58,60
93696,note_on,,,,,0,0,1,,,,,0,,,70,45
93696,note_off,,,,,384,0,1,,,,,0,,,72,0
93696,note_on,,,,,0,0,2,,,,,1,,,67,45
94368,note_off,,,,,672,0,10,,,,,8,,,43,0
94464,note_on,,,,,0,0,6,,,,,4,,,63,45
94464,note_off,,,,,2304,0,3,,,,,10,,,62,0
94464,note_on,,,,,0,0,3,,,,,10,,,48,45
94464,note_off,,,,,2304,0,6,,,,,4,,,62,0
94464,note_on,,,,,0,0,8,,,,,6,,,36,45
94464,note_on,,,,,0,0,7,,,,,5,,,48,45
94464,note_off,,,,,768,0,7,,,,,5,,,43,0
94464,note_on,,,,,0,0,10,,,,,8,,,51,60
94464,note_on,,,,,96,0,10,,,,,8,,,48,60
94464,note_on,,,,,0,0,9,,,,,7,,,67,60
94464,note_on,,,,,0,0,9,,,,,7,,,63,60
94464,note_on,,,,,0,0,10,,,,,8,,,58,60
94464,note_off,,,,,0,0,9,,,,,7,,,67,0
94464,note_on,,,,,0,0,9,,,,,7,,,58,60
94464,note_off,,,,,768,0,5,,,,,3,,,67,0
94464,note_on,,,,,0,0,5,,,,,3,,,67,60
94464,note_off,,,,,768,0,2,,,,,1,,,67,0
94464,note_on,,,,,0,0,2,,,,,1,,,67,45
94464,note_off,,,,,768,0,9,,,,,7,,,58,0
94464,note_off,,,,,768,0,8,,,,,6,,,31,0
94464,note_off,,,,,0,0,9,,,,,7,,,62,0
94464,note_on,,,,,0,0,10,,,,,8,,,55,60
94848,note_on,,,,,0,0,1,,,,,0,,,69,45
94848,note_off,,,,,1152,0,1,,,,,0,,,70,0
94848,note_on,,,,,0,0,4,,,,,2,,,69,60
94848,note_off,,,,,1152,0,4,,,,,2,,,70,0
95136,note_off,,,,,0,0,10,,,,,8,,,55,0
95136,note_off,,,,,0,0,10,,,,,8,,,58,0
95136,note_off,,,,,0,0,9,,,,,7,,,67,0
95136,note_off,,,,,0,0,9,,,,,7,,,63,0
95136,note_off,,,,,672,0,9,,,,,7,,,58,0
95136,note_off,,,,,0,0,10,,,,,8,,,51,0
95136,note_off,,,,,672,0,10,,,,,8,,,48,0
95232,note_on,,,,,96,0,9,,,,,7,,,57,60
95232,note_on,,,,,0,0,9,,,,,7,,,62,60
95232,note_on,,,,,0,0,9,,,,,7,,,67,60
95232,note_on,,,,,0,0,7,,,,,5,,,50,45
95232,note_off,,,,,768,0,3,,,,,10,,,48,0
95232,note_on,,,,,0,0,3,,,,,10,,,50,45
95232,note_on,,,,,0,0,8,,,,,6,,,38,45
95232,note_on,,,,,0,0,6,,,,,4,,,57,45
95232,note_off,,,,,768,0,8,,,,,6,,,36,0
95232,note_on,,,,,0,0,1,,,,,0,,,70,45
95232,note_off,,,,,384,0,1,,,,,0,,,69,0
95232,note_off,,,,,768,0,6,,,,,4,,,63,0
95232,note_on,,,,,96,0,10,,,,,8,,,50,60
95232,note_on,,,,,0,0,10,,,,,8,,,55,60
95232,note_off,,,,,384,0,4,,,,,2,,,69,0
95232,note_on,,,,,0,0,4,,,,,2,,,70,60
95232,note_off,,,,,768,0,7,,,,,5,,,48,0
95280,note_on,,,,,0,0,4,,,,,2,,,69,60
95280,note_on,,,,,0,0,1,,,,,0,,,69,45
95280,note_off,,,,,48,0,1,,,,,0,,,70,0
95280,note_off,,,,,48,0,4,,,,,2,,,70,0
95328,note_on,,,,,0,0,1,,,,,0,,,70,45
95328,note_off,,,,,48,0,1,,,,,0,,,69,0
95328,note_off,,,,,48,0,4,,,,,2,,,69,0
95328,note_on,,,,,0,0,4,,,,,2,,,70,60
95376,note_off,,,,,48,0,1,,,,,0,,,70,0
95376,note_on,,,,,0,0,4,,,,,2,,,69,60
95376,note_off,,,,,48,0,4,,,,,2,,,70,0
95376,note_on,,,,,0,0,1,,,,,0,,,69,45
95424,note_on,,,,,0,0,1,,,,,0,,,70,45
95424,note_off,,,,,48,0,1,,,,,0,,,69,0
95424,note_off,,,,,48,0,4,,,,,2,,,69,0
95424,note_on,,,,,0,0,4,,,,,2,,,70,60
95472,note_on,,,,,0,0,1,,,,,0,,,69,45
95472,note_off,,,,,48,0,1,,,,,0,,,70,0
95472,note_off,,,,,48,0,4,,,,,2,,,70,0
95472,note_on,,,,,0,0,4,,,,,2,,,69,60
95520,note_off,,,,,48,0,1,,,,,0,,,69,0
95520,note_on,,,,,0,0,1,,,,,0,,,70,45
95520,note_off,,,,,48,0,4,,,,,2,,,69,0
95520,note_on,,,,,0,0,4,,,,,2,,,70,60
95568,note_off,,,,,48,0,1,,,,,0,,,70,0
95568,note_on,,,,,0,0,1,,,,,0,,,69,45
95568,note_on,,,,,0,0,4,,,,,2,,,69,60
95568,note_off,,,,,48,0,4,,,,,2,,,70,0
95904,note_off,,,,,672,0,10,,,,,8,,,50,0
95904,note_off,,,,,672,0,9,,,,,7,,,67,0
95904,note_off,,,,,0,0,10,,,,,8,,,55,0
96000,note_on,,,,,0,0,2,,,,,1,,,66,45
96000,note_off,,,,,1536,0,2,,,,,1,,,67,0
96000,note_on,,,,,96,0,9,,,,,7,,,66,60
96000,note_on,,,,,0,0,5,,,,,3,,,66,60
96000,note_off,,,,,1536,0,5,,,,,3,,,67,0
96000,note_off,,,,,768,0,6,,,,,4,,,57,0
96000,note_on,,,,,0,0,3,,,,,10,,,38,45
96000,note_off,,,,,768,0,3,,,,,10,,,50,0
96000,note_on,,,,,0,0,7,,,,,5,,,38,45
96000,note_on,,,,,0,0,6,,,,,4,,,62,45
96000,note_off,,,,,768,0,7,,,,,5,,,50,0
96000,note_on,,,,,0,0,8,,,,,6,,,26,45
96000,note_on,,,,,96,0,10,,,,,8,,,38,60
96000,note_off,,,,,768,0,8,,,,,6,,,38,0
96384,note_off,,,,,816,0,1,,,,,0,,,69,0
96384,note_on,,,,,0,0,4,,,,,2,,,67,60
96384,note_off,,,,,816,0,4,,,,,2,,,69,0
96384,note_on,,,,,0,0,1,,,,,0,,,67,45
96672,note_off,,,,,672,0,10,,,,,8,,,38,0
96672,note_off,,,,,0,0,9,,,,,7,,,62,0
96672,note_off,,,,,0,0,9,,,,,7,,,66,0
96672,note_off,,,,,672,0,9,,,,,7,,,57,0
96768,note_on,,,,,0,0,1,,,,,0,,,67,45
96768,note_on,,,,,0,0,7,,,,,5,,,43,45
96768,note_on,,,,,0,0,6,,,,,4,,,62,45
96768,note_off,,,,,384,0,1,,,,,0,,,67,0
96768,note_off,,,,,768,0,3,,,,,10,,,38,0
96768,note_on,,,,,0,0,3,,,,,10,,,43,45
96768,note_on,,,,,0,0,4,,,,,2,,,67,60
96768,note_off,,,,,384,0,4,,,,,2,,,67,0
96768,note_off,,,,,768,0,7,,,,,5,,,38,0
96768,note_on,,,,,96,0,9,,,,,7,,,58,60
96768,note_on,,,,,0,0,9,,,,,7,,,62,60
96768,note_off,,,,,768,0,8,,,,,6,,,26,0
96768,note_off,,,,,768,0,5,,,,,3,,,66,0
96768,note_on,,,,,0,0,5,,,,,3,,,67,60
96768,set_tempo,,,,,40704,1,0,,652173,,,,,,,
96768,note_off,,,,,768,0,6,,,,,4,,,62,0
96768,note_on,,,,,0,0,8,,,,,6,,,31,45
96768,note_on,,,,,0,0,2,,,,,1,,,67,45
96768,note_on,,,,,96,0,10,,,,,8,,,43,60
96768,note_on,,,,,0,0,9,,,,,7,,,67,60
96768,note_off,,,,,768,0,2,,,,,1,,,66,0
97440,note_off,,,,,0,0,9,,,,,7,,,62,0
97440,note_off,,,,,0,0,9,,,,,7,,,67,0
97440,note_off,,,,,672,0,9,,,,,7,,,58,0
97440,note_off,,,,,672,0,10,,,,,8,,,43,0
97536,note_off,,,,,768,0,6,,,,,4,,,62,0
97536,note_on,,,,,0,0,6,,,,,4,,,67,127
97536,note_on,,,,,96,0,10,,,,,8,,,55,84
97536,note_off,,,,,768,0,4,,,,,2,,,67,0
97536,note_on,,,,,0,0,1,,,,,0,,,74,127
97536,note_on,,,,,0,0,4,,,,,2,,,74,127
97536,note_off,,,,,768,0,1,,,,,0,,,67,0
97536,note_on,,,,,0,0,2,,,,,1,,,70,127
97536,note_off,,,,,768,0,8,,,,,6,,,31,0
97536,note_on,,,,,0,0,7,,,,,5,,,55,127
97536,note_on,,,,,0,0,8,,,,,6,,,43,105
97536,note_off,,,,,768,0,7,,,,,5,,,43,0
97536,note_on,,,,,0,0,9,,,,,7,,,70,84
97536,note_on,,,,,0,0,9,,,,,7,,,67,84
97536,note_off,,,,,768,0,3,,,,,10,,,43,0
97536,note_on,,,,,0,0,3,,,,,10,,,55,127
97536,note_on,,,,,96,0,9,,,,,7,,,62,84
97536,note_off,,,,,768,0,2,,,,,1,,,67,0
97536,note_off,,,,,768,0,5,,,,,3,,,67,0
97536,note_on,,,,,0,0,5,,,,,3,,,70,127
98208,note_off,,,,,672,0,10,,,,,8,,,55,0
98208,note_off,,,,,672,0,9,,,,,7,,,62,0
98208,note_off,,,,,0,0,9,,,,,7,,,70,0
98208,note_off,,,,,0,0,9,,,,,7,,,67,0
98304,note_on,,,,,0,0,5,,,,,3,,,75,127
98304,note_on,,,,,96,0,9,,,,,7,,,67,84
98304,note_on,,,,,0,0,9,,,,,7,,,70,84
98304,note_on,,,,,0,0,9,,,,,7,,,75,84
98304,note_off,,,,,768,0,1,,,,,0,,,74,0
98304,note_on,,,,,0,0,1,,,,,0,,,79,127
98304,note_off,,,,,768,0,5,,,,,3,,,70,0
98304,note_on,,,,,96,0,10,,,,,8,,,51,84
98304,note_off,,,,,768,0,6,,,,,4,,,67,0
98304,note_on,,,,,0,0,2,,,,,1,,,75,127
98304,note_on,,,,,0,0,8,,,,,6,,,39,105
98304,note_on,,,,,0,0,6,,,,,4,,,70,127
98304,note_off,,,,,768,0,7,,,,,5,,,55,0
98304,note_on,,,,,0,0,7,,,,,5,,,51,127
98304,note_on,,,,,0,0,4,,,,,2,,,79,127
98304,note_off,,,,,768,0,4,,,,,2,,,74,0
98304,note_on,,,,,0,0,3,,,,,10,,,51,127
98304,note_off,,,,,768,0,3,,,,,10,,,55,0
98304,note_off,,,,,768,0,2,,,,,1,,,70,0
98304,note_off,,,,,768,0,8,,,,,6,,,43,0
98976,note_off,,,,,672,0,9,,,,,7,,,67,0
98976,note_off,,,,,0,0,9,,,,,7,,,70,0
98976,note_off,,,,,0,0,9,,,,,7,,,75,0
98976,note_off,,,,,672,0,10,,,,,8,,,51,0
99072,note_on,,,,,96,0,9,,,,,7,,,65,60
99072,note_on,,,,,0,0,2,,,,,1,,,74,92
99072,note_off,,,,,768,0,1,,,,,0,,,79,0
99072,note_off,,,,,768,0,2,,,,,1,,,75,0
99072,note_on,,,,,96,0,10,,,,,8,,,58,60
99072,note_on,,,,,0,0,5,,,,,3,,,74,108
99072,note_off,,,,,768,0,5,,,,,3,,,75,0
99072,note_on,,,,,0,0,9,,,,,7,,,70,60
99072,note_on,,,,,0,0,9,,,,,7,,,74,60
99072,note_on,,,,,0,0,1,,,,,0,,,77,92
99072,note_off,,,,,768,0,3,,,,,10,,,51,0
99072,note_on,,,,,0,0,3,,,,,10,,,58,92
99072,note_off,,,,,768,0,4,,,,,2,,,79,0
99072,note_on,,,,,0,0,4,,,,,2,,,77,108
99072,note_on,,,,,0,0,7,,,,,5,,,58,92
99072,note_off,,,,,768,0,7,,,,,5,,,51,0
99072,note_on,,,,,0,0,8,,,,,6,,,46,75
99072,note_off,,,,,768,0,8,,,,,6,,,39,0
99072,note_on,,,,,0,0,6,,,,,4,,,70,92
99072,note_off,,,,,768,0,6,,,,,4,,,70,0
99744,note_off,,,,,672,0,10,,,,,8,,,58,0
99744,note_off,,,,,0,0,9,,,,,7,,,74,0
99744,note_off,,,,,0,0,9,,,,,7,,,70,0
99744,note_off,,,,,672,0,9,,,,,7,,,65,0
99840,note_on,,,,,0,0,2,,,,,1,,,70,92
99840,note_off,,,,,768,0,8,,,,,6,,,46,0
99840,note_on,,,,,96,0,10,,,,,8,,,46,60
99840,note_on,,,,,0,0,6,,,,,4,,,65,92
99840,note_on,,,,,0,0,3,,,,,10,,,46,92
99840,note_off,,,,,768,0,2,,,,,1,,,74,0
99840,note_off,,,,,768,0,7,,,,,5,,,58,0
99840,note_on,,,,,0,0,7,,,,,5,,,46,92
99840,note_off,,,,,768,0,3,,,,,10,,,58,0
99840,note_off,,,,,768,0,6,,,,,4,,,70,0
99840,note_on,,,,,0,0,5,,,,,3,,,70,108
99840,note_off,,,,,768,0,5,,,,,3,,,74,0
99840,note_on,,,,,0,0,1,,,,,0,,,74,92
99840,note_on,,,,,0,0,9,,,,,7,,,70,60
99840,note_on,,,,,0,0,9,,,,,7,,,65,60
99840,note_on,,,,,96,0,9,,,,,7,,,62,60
99840,note_off,,,,,768,0,1,,,,,0,,,77,0
99840,note_on,,,,,0,0,8,,,,,6,,,34,75
99840,note_off,,,,,768,0,4,,,,,2,,,77,0
99840,note_on,,,,,0,0,4,,,,,2,,,74,108
100512,note_off,,,,,0,0,9,,,,,7,,,70,0
100512,note_off,,,,,0,0,9,,,,,7,,,65,0
100512,note_off,,,,,672,0,9,,,,,7,,,62,0
100512,note_off,,,,,672,0,10,,,,,8,,,46,0
100608,note_off,,,,,768,0,8,,,,,6,,,34,0
100608,note_on,,,,,0,0,1,,,,,0,,,70,92
100608,note_off,,,,,768,0,7,,,,,5,,,46,0
100608,note_off,,,,,768,0,3,,,,,10,,,46,0
100608,note_off,,,,,768,0,1,,,,,0,,,74,0
100608,note_off,,,,,768,0,5,,,,,3,,,70,0
100608,note_off,,,,,768,0,6,,,,,4,,,65,0
100608,note_off,,,,,768,0,4,,,,,2,,,74,0
101184,note_off,,,,,576,0,1,,,,,0,,,70,0
101184,note_on,,,,,0,0,1,,,,,0,,,72,92
101376,note_off,,,,,192,0,1,,,,,0,,,72,0
101376,note_on,,,,,0,0,1,,,,,0,,,70,92
102144,note_on,,,,,0,0,2,,,,,1,,,65,92
102144,note_on,,,,,1632,0,9,,,,,7,,,65,60
102144,note_on,,,,,1536,0,7,,,,,5,,,62,92
102144,note_off,,,,,2304,0,2,,,,,1,,,70,0
102144,note_on,,,,,1536,0,3,,,,,10,,,62,92
102144,note_on,,,,,1632,0,10,,,,,8,,,62,60
102144,note_on,,,,,1536,0,8,,,,,6,,,50,75
102816,note_off,,,,,672,0,10,,,,,8,,,62,0
102816,note_off,,,,,672,0,9,,,,,7,,,65,0
102912,note_off,,,,,768,0,2,,,,,1,,,65,0
102912,note_on,,,,,96,0,10,,,,,8,,,63,60
102912,note_off,,,,,768,0,8,,,,,6,,,50,0
102912,note_on,,,,,0,0,8,,,,,6,,,51,75
102912,note_off,,,,,768,0,7,,,,,5,,,62,0
102912,note_on,,,,,0,0,7,,,,,5,,,63,92
102912,note_off,,,,,768,0,3,,,,,10,,,62,0
102912,note_on,,,,,0,0,3,,,,,10,,,63,92
102912,note_on,,,,,0,0,2,,,,,1,,,67,92
102912,note_on,,,,,96,0,9,,,,,7,,,67,60
103584,note_off,,,,,672,0,9,,,,,7,,,67,0
103584,note_off,,,,,672,0,10,,,,,8,,,63,0
103680,note_off,,,,,768,0,7,,,,,5,,,63,0
103680,note_on,,,,,0,0,8,,,,,6,,,46,75
103680,note_off,,,,,768,0,8,,,,,6,,,51,0
103680,note_on,,,,,0,0,2,,,,,1,,,62,92
103680,note_on,,,,,96,0,9,,,,,7,,,62,60
103680,note_on,,,,,0,0,9,,,,,7,,,65,60
103680,note_on,,,,,96,0,10,,,,,8,,,58,60
103680,note_on,,,,,0,0,7,,,,,5,,,58,92
103680,note_off,,,,,768,0,2,,,,,1,,,67,0
103680,note_on,,,,,0,0,3,,,,,10,,,58,92
103680,note_off,,,,,768,0,3,,,,,10,,,63,0
104352,note_off,,,,,672,0,9,,,,,7,,,62,0
104352,note_off,,,,,0,0,9,,,,,7,,,65,0
104352,note_off,,,,,672,0,10,,,,,8,,,58,0
104448,note_on,,,,,3840,0,4,,,,,2,,,70,108
104448,note_on,,,,,0,0,2,,,,,1,,,70,92
104448,note_off,,,,,768,0,8,,,,,6,,,46,0
104448,note_off,,,,,768,0,2,,,,,1,,,62,0
104448,note_off,,,,,3072,0,1,,,,,0,,,70,0
104448,note_on,,,,,0,0,1,,,,,0,,,70,92
104448,note_off,,,,,768,0,3,,,,,10,,,58,0
104448,note_off,,,,,768,0,7,,,,,5,,,58,0
104448,note_on,,,,,3840,0,5,,,,,3,,,70,108
105216,note_on,,,,,0,0,5,,,,,3,,,70,108
105216,note_on,,,,,0,0,1,,,,,0,,,70,92
105216,note_off,,,,,768,0,1,,,,,0,,,70,0
105216,note_on,,,,,0,0,4,,,,,2,,,70,108
105216,note_off,,,,,768,0,2,,,,,1,,,70,0
105216,note_off,,,,,768,0,5,,,,,3,,,70,0
105216,note_off,,,,,768,0,4,,,,,2,,,70,0
105216,note_on,,,,,0,0,2,,,,,1,,,70,92
105792,note_off,,,,,576,0,4,,,,,2,,,70,0
105792,note_on,,,,,0,0,1,,,,,0,,,72,92
105792,note_off,,,,,576,0,1,,,,,0,,,70,0
105792,note_on,,,,,0,0,4,,,,,2,,,72,108
105984,note_on,,,,,0,0,1,,,,,0,,,70,92
105984,note_off,,,,,192,0,1,,,,,0,,,72,0
105984,note_off,,,,,192,0,4,,,,,2,,,72,0
105984,note_on,,,,,0,0,4,,,,,2,,,70,108
106752,note_on,,,,,2400,0,9,,,,,7,,,58,60
106752,note_on,,,,,0,0,5,,,,,3,,,65,108
106752,note_on,,,,,0,0,2,,,,,1,,,65,92
106752,note_off,,,,,1536,0,2,,,,,1,,,70,0
106752,note_on,,,,,0,0,9,,,,,7,,,65,60
106752,note_on,,,,,2304,0,7,,,,,5,,,50,92
106752,note_on,,,,,2400,0,10,,,,,8,,,50,60
106752,note_on,,,,,2304,0,3,,,,,10,,,50,92
106752,note_on,,,,,6144,0,6,,,,,4,,,58,92
106752,note_on,,,,,2304,0,8,,,,,6,,,38,75
106752,note_off,,,,,1536,0,5,,,,,3,,,70,0
107424,note_off,,,,,672,0,9,,,,,7,,,58,0
107424,note_off,,,,,672,0,10,,,,,8,,,50,0
107424,note_off,,,,,0,0,9,,,,,7,,,65,0
107520,note_on,,,,,0,0,9,,,,,7,,,63,60
107520,note_on,,,,,96,0,10,,,,,8,,,51,60
107520,note_on,,,,,0,0,9,,,,,7,,,67,60
107520,note_on,,,,,96,0,9,,,,,7,,,58,60
107520,note_on,,,,,0,0,2,,,,,1,,,67,92
107520,note_off,,,,,768,0,2,,,,,1,,,65,0
107520,note_off,,,,,768,0,5,,,,,3,,,65,0
107520,note_on,,,,,0,0,5,,,,,3,,,67,108
107520,note_on,,,,,0,0,3,,,,,10,,,51,92
107520,note_off,,,,,768,0,3,,,,,10,,,50,0
107520,note_on,,,,,0,0,7,,,,,5,,,51,92
107520,note_off,,,,,768,0,8,,,,,6,,,38,0
107520,note_on,,,,,0,0,6,,,,,4,,,63,92
107520,note_on,,,,,0,0,8,,,,,6,,,39,75
107520,note_off,,,,,768,0,7,,,,,5,,,50,0
107520,note_off,,,,,768,0,6,,,,,4,,,58,0
108192,note_off,,,,,672,0,9,,,,,7,,,58,0
108192,note_off,,,,,672,0,10,,,,,8,,,51,0
108192,note_off,,,,,0,0,9,,,,,7,,,63,0
108192,note_off,,,,,0,0,9,,,,,7,,,67,0
108288,note_off,,,,,768,0,3,,,,,10,,,51,0
108288,note_on,,,,,96,0,10,,,,,8,,,46,60
108288,note_on,,,,,0,0,8,,,,,6,,,34,75
108288,note_off,,,,,768,0,8,,,,,6,,,39,0
108288,note_on,,,,,0,0,7,,,,,5,,,46,92
108288,note_on,,,,,0,0,3,,,,,10,,,46,92
108288,note_off,,,,,768,0,7,,,,,5,,,51,0
108288,note_off,,,,,768,0,2,,,,,1,,,67,0
108288,note_off,,,,,768,0,5,,,,,3,,,67,0
108288,note_on,,,,,0,0,5,,,,,3,,,62,108
108288,note_on,,,,,0,0,6,,,,,4,,,65,92
108288,note_off,,,,,768,0,6,,,,,4,,,63,0
108288,note_on,,,,,0,0,2,,,,,1,,,62,92
108288,note_on,,,,,96,0,9,,,,,7,,,58,60
108288,note_on,,,,,0,0,9,,,,,7,,,62,60
108288,note_on,,,,,0,0,9,,,,,7,,,65,60
108864,note_off,,,,,2880,0,1,,,,,0,,,70,0
108864,note_on,,,,,0,0,1,,,,,0,,,69,60
108864,note_on,,,,,0,0,4,,,,,2,,,69,75
108864,note_off,,,,,2880,0,4,,,,,2,,,70,0
108960,note_off,,,,,0,0,9,,,,,7,,,65,0
108960,note_off,,,,,672,0,10,,,,,8,,,46,0
108960,note_off,,,,,672,0,9,,,,,7,,,58,0
108960,note_off,,,,,0,0,9,,,,,7,,,62,0
109056,note_off,,,,,768,0,8,,,,,6,,,34,0
109056,note_off,,,,,768,0,2,,,,,1,,,62,0
109056,note_off,,,,,768,0,6,,,,,4,,,65,0
109056,note_off,,,,,768,0,7,,,,,5,,,46,0
109056,note_off,,,,,768,0,3,,,,,10,,,46,0
109056,note_on,,,,,0,0,4,,,,,2,,,67,75
109056,note_off,,,,,192,0,4,,,,,2,,,69,0
109056,note_off,,,,,768,0,5,,,,,3,,,62,0
109056,note_on,,,,,0,0,1,,,,,0,,,67,60
109056,note_off,,,,,192,0,1,,,,,0,,,69,0
109632,note_on,,,,,0,0,4,,,,,2,,,66,75
109632,note_off,,,,,576,0,4,,,,,2,,,67,0
109632,note_on,,,,,0,0,1,,,,,0,,,66,60
109632,note_off,,,,,576,0,1,,,,,0,,,67,0
109824,note_on,,,,,0,0,1,,,,,0,,,67,60
109824,note_off,,,,,192,0,1,,,,,0,,,66,0
109824,note_off,,,,,192,0,4,,,,,2,,,66,0
109824,note_on,,,,,0,0,4,,,,,2,,,67,75
110592,note_off,,,,,768,0,1,,,,,0,,,67,0
110592,note_off,,,,,768,0,4,,,,,2,,,67,0
110592,note_on,,,,,0,0,1,,,,,0,,,67,60
110592,note_on,,,,,0,0,4,,,,,2,,,67,75
111360,note_on,,,,,2304,0,8,,,,,6,,,34,60
111360,note_on,,,,,2304,0,7,,,,,5,,,46,60
111360,note_on,,,,,2304,0,2,,,,,1,,,62,60
111360,note_on,,,,,2304,0,3,,,,,10,,,46,60
111360,note_on,,,,,0,0,9,,,,,7,,,62,60
111360,note_on,,,,,2400,0,9,,,,,7,,,55,60
111360,note_on,,,,,2400,0,10,,,,,8,,,46,60
111360,note_on,,,,,2304,0,6,,,,,4,,,55,60
111360,note_on,,,,,2304,0,5,,,,,3,,,62,75
112032,note_off,,,,,0,0,9,,,,,7,,,62,0
112032,note_off,,,,,672,0,9,,,,,7,,,55,0
112032,note_off,,,,,672,0,10,,,,,8,,,46,0
112128,note_on,,,,,96,0,10,,,,,8,,,48,60
112128,note_on,,,,,0,0,7,,,,,5,,,48,60
112128,note_off,,,,,768,0,7,,,,,5,,,46,0
112128,note_off,,,,,768,0,8,,,,,6,,,34,0
112128,note_on,,,,,0,0,8,,,,,6,,,36,60
112128,note_off,,,,,768,0,5,,,,,3,,,62,0
112128,note_on,,,,,0,0,2,,,,,1,,,63,60
112128,note_on,,,,,0,0,5,,,,,3,,,63,75
112128,note_on,,,,,0,0,3,,,,,10,,,48,60
112128,note_off,,,,,768,0,3,,,,,10,,,46,0
112128,note_off,,,,,768,0,2,,,,,1,,,62,0
112128,note_on,,,,,0,0,6,,,,,4,,,60,60
112128,note_on,,,,,0,0,9,,,,,7,,,60,60
112128,note_off,,,,,768,0,6,,,,,4,,,55,0
112128,note_on,,,,,0,0,9,,,,,7,,,63,60
112128,note_on,,,,,96,0,9,,,,,7,,,55,60
112800,note_off,,,,,672,0,10,,,,,8,,,48,0
112800,note_off,,,,,0,0,9,,,,,7,,,63,0
112800,note_off,,,,,0,0,9,,,,,7,,,60,0
112800,note_off,,,,,672,0,9,,,,,7,,,55,0
112896,note_on,,,,,0,0,9,,,,,7,,,58,60
112896,note_on,,,,,96,0,9,,,,,7,,,55,60
112896,note_on,,,,,0,0,9,,,,,7,,,62,60
112896,note_on,,,,,96,0,10,,,,,8,,,43,60
112896,note_off,,,,,768,0,7,,,,,5,,,48,0
112896,note_on,,,,,0,0,6,,,,,4,,,62,60
112896,note_on,,,,,0,0,7,,,,,5,,,43,60
112896,note_off,,,,,768,0,5,,,,,3,,,63,0
112896,note_on,,,,,0,0,3,,,,,10,,,43,60
112896,note_off,,,,,768,0,3,,,,,10,,,48,0
112896,note_off,,,,,768,0,2,,,,,1,,,63,0
112896,note_on,,,,,0,0,2,,,,,1,,,62,60
112896,note_off,,,,,768,0,8,,,,,6,,,36,0
112896,note_on,,,,,0,0,8,,,,,6,,,31,60
112896,note_off,,,,,768,0,6,,,,,4,,,60,0
112896,note_on,,,,,0,0,5,,,,,3,,,62,75
113568,note_off,,,,,672,0,10,,,,,8,,,43,0
113568,note_off,,,,,672,0,9,,,,,7,,,55,0
113568,note_off,,,,,0,0,9,,,,,7,,,58,0
113568,note_off,,,,,0,0,9,,,,,7,,,62,0
113664,note_off,,,,,3072,0,1,,,,,0,,,67,0
113664,note_off,,,,,768,0,3,,,,,10,,,43,0
113664,note_on,,,,,0,0,1,,,,,0,,,62,60
113664,note_off,,,,,768,0,5,,,,,3,,,62,0
113664,note_off,,,,,768,0,8,,,,,6,,,31,0
113664,note_off,,,,,768,0,2,,,,,1,,,62,0
113664,note_on,,,,,0,0,4,,,,,2,,,62,75
113664,note_off,,,,,3072,0,4,,,,,2,,,67,0
113664,note_off,,,,,768,0,6,,,,,4,,,62,0
113664,note_off,,,,,768,0,7,,,,,5,,,43,0
114432,note_off,,,,,768,0,1,,,,,0,,,62,0
114432,note_on,,,,,0,0,1,,,,,0,,,62,60
114432,note_off,,,,,768,0,4,,,,,2,,,62,0
114432,note_on,,,,,0,0,4,,,,,2,,,62,75
115200,note_on,,,,,0,0,4,,,,,2,,,62,75
115200,note_off,,,,,768,0,4,,,,,2,,,62,0
115200,note_on,,,,,0,0,1,,,,,0,,,62,60
115200,note_off,,,,,768,0,1,,,,,0,,,62,0
115968,note_on,,,,,2304,0,7,,,,,5,,,41,60
115968,note_on,,,,,2400,0,10,,,,,8,,,41,60
115968,note_on,,,,,2400,0,9,,,,,7,,,57,60
115968,note_on,,,,,0,0,9,,,,,7,,,62,60
115968,note_on,,,,,0,0,10,,,,,8,,,50,60
115968,note_on,,,,,2304,0,8,,,,,6,,,29,60
115968,note_on,,,,,2304,0,5,,,,,3,,,57,75
115968,note_on,,,,,2304,0,3,,,,,10,,,41,60
115968,note_on,,,,,2304,0,6,,,,,4,,,53,60
115968,note_on,,,,,2304,0,2,,,,,1,,,57,60
116640,note_off,,,,,672,0,10,,,,,8,,,41,0
116640,note_off,,,,,0,0,10,,,,,8,,,50,0
116640,note_off,,,,,0,0,9,,,,,7,,,62,0
116640,note_off,,,,,672,0,9,,,,,7,,,57,0
116736,note_off,,,,,768,0,7,,,,,5,,,41,0
116736,note_off,,,,,768,0,5,,,,,3,,,57,0
116736,note_on,,,,,0,0,5,,,,,3,,,57,75
116736,note_on,,,,,0,0,6,,,,,4,,,53,60
116736,note_off,,,,,768,0,6,,,,,4,,,53,0
116736,note_off,,,,,768,0,2,,,,,1,,,57,0
116736,note_on,,,,,0,0,2,,,,,1,,,57,60
116736,note_on,,,,,0,0,7,,,,,5,,,41,60
116736,note_on,,,,,96,0,10,,,,,8,,,41,60
116736,note_on,,,,,0,0,10,,,,,8,,,50,60
116736,note_off,,,,,768,0,8,,,,,6,,,29,0
116736,note_off,,,,,768,0,3,,,,,10,,,41,0
116736,note_on,,,,,96,0,9,,,,,7,,,57,60
116736,note_on,,,,,0,0,8,,,,,6,,,29,60
116736,note_on,,,,,0,0,3,,,,,10,,,41,60
116736,note_on,,,,,0,0,9,,,,,7,,,62,60
117408,note_off,,,,,672,0,9,,,,,7,,,57,0
117408,note_off,,,,,0,0,10,,,,,8,,,50,0
117408,note_off,,,,,672,0,10,,,,,8,,,41,0
117408,note_off,,,,,0,0,9,,,,,7,,,62,0
117504,note_on,,,,,0,0,5,,,,,3,,,55,75
117504,note_off,,,,,768,0,5,,,,,3,,,57,0
117504,note_on,,,,,0,0,2,,,,,1,,,55,60
117504,note_off,,,,,768,0,3,,,,,10,,,41,0
117504,note_off,,,,,768,0,2,,,,,1,,,57,0
117504,note_off,,,,,768,0,8,,,,,6,,,29,0
117504,note_on,,,,,0,0,8,,,,,6,,,27,60
117504,note_on,,,,,0,0,7,,,,,5,,,39,60
117504,note_off,,,,,768,0,7,,,,,5,,,41,0
117504,note_on,,,,,0,0,10,,,,,8,,,51,60
117504,note_on,,,,,96,0,10,,,,,8,,,39,60
117504,note_on,,,,,0,0,6,,,,,4,,,55,60
117504,note_on,,,,,0,0,3,,,,,10,,,39,60
117504,note_off,,,,,768,0,6,,,,,4,,,53,0
117504,note_on,,,,,0,0,9,,,,,7,,,62,60
117504,note_on,,,,,96,0,9,,,,,7,,,55,60
118176,note_off,,,,,672,0,9,,,,,7,,,62,0
118272,note_on,,,,,0,0,1,,,,,0,,,60,60
118272,note_off,,,,,768,0,6,,,,,4,,,55,0
118272,note_on,,,,,96,0,9,,,,,7,,,60,60
118272,note_off,,,,,3072,0,1,,,,,0,,,62,0
118272,note_on,,,,,0,0,6,,,,,4,,,60,60
118272,note_on,,,,,0,0,4,,,,,2,,,60,75
118272,note_off,,,,,3072,0,4,,,,,2,,,62,0
119040,note_off,,,,,768,0,1,,,,,0,,,60,0
119040,note_on,,,,,0,0,4,,,,,2,,,60,75
119040,note_off,,,,,768,0,6,,,,,4,,,60,0
119040,note_off,,,,,768,0,4,,,,,2,,,60,0
119040,note_on,,,,,0,0,6,,,,,4,,,55,60
119040,note_on,,,,,0,0,1,,,,,0,,,60,60
119712,note_off,,,,,0,0,10,,,,,8,,,51,0
119712,note_off,,,,,2208,0,10,,,,,8,,,39,0
119712,note_off,,,,,1440,0,9,,,,,7,,,55,0
119712,note_off,,,,,0,0,9,,,,,7,,,60,0
119808,note_on,,,,,0,0,9,,,,,7,,,60,60
119808,note_off,,,,,2304,0,5,,,,,3,,,55,0
119808,note_on,,,,,96,0,9,,,,,7,,,54,60
119808,note_on,,,,,0,0,3,,,,,10,,,38,60
119808,note_on,,,,,0,0,4,,,,,2,,,60,75
119808,note_off,,,,,768,0,4,,,,,2,,,60,0
119808,note_on,,,,,0,0,5,,,,,3,,,57,75
119808,note_off,,,,,2304,0,3,,,,,10,,,39,0
119808,note_off,,,,,2304,0,2,,,,,1,,,55,0
119808,note_on,,,,,0,0,2,,,,,1,,,57,60
119808,note_on,,,,,0,0,1,,,,,0,,,60,60
119808,note_off,,,,,768,0,1,,,,,0,,,60,0
119808,note_off,,,,,2304,0,7,,,,,5,,,39,0
119808,note_on,,,,,0,0,7,,,,,5,,,38,60
119808,note_on,,,,,96,0,10,,,,,8,,,38,60
119808,note_on,,,,,0,0,10,,,,,8,,,45,60
119808,note_on,,,,,0,0,8,,,,,6,,,26,60
119808,note_off,,,,,2304,0,8,,,,,6,,,27,0
119808,note_on,,,,,0,0,6,,,,,4,,,54,60
119808,note_off,,,,,768,0,6,,,,,4,,,55,0
120960,note_on,,,,,0,0,4,,,,,2,,,62,75
120960,note_off,,,,,1152,0,4,,,,,2,,,60,0
120960,note_off,,,,,1152,0,1,,,,,0,,,60,0
120960,note_on,,,,,0,0,1,,,,,0,,,62,60
121248,note_off,,,,,0,0,10,,,,,8,,,45,0
121248,note_off,,,,,0,0,9,,,,,7,,,60,0
121248,note_off,,,,,1440,0,9,,,,,7,,,54,0
121248,note_off,,,,,1440,0,10,,,,,8,,,38,0
121344,note_off,,,,,1536,0,8,,,,,6,,,26,0
121344,note_on,,,,,0,0,2,,,,,1,,,55,60
121344,note_off,,,,,1536,0,2,,,,,1,,,57,0
121344,note_on,,,,,0,0,1,,,,,0,,,58,60
121344,note_off,,,,,384,0,4,,,,,2,,,62,0
121344,note_off,,,,,1536,0,7,,,,,5,,,38,0
121344,note_on,,,,,0,0,7,,,,,5,,,43,60
121344,note_on,,,,,96,0,10,,,,,8,,,43,60
121344,note_on,,,,,0,0,10,,,,,8,,,46,60
121344,note_on,,,,,0,0,8,,,,,6,,,31,60
121344,note_off,,,,,1536,0,6,,,,,4,,,54,0
121344,note_on,,,,,0,0,5,,,,,3,,,55,75
121344,note_on,,,,,96,0,9,,,,,7,,,50,60
121344,note_off,,,,,1536,0,3,,,,,10,,,38,0
121344,note_on,,,,,0,0,3,,,,,10,,,43,60
121344,note_off,,,,,384,0,1,,,,,0,,,62,0
121344,note_off,,,,,1536,0,5,,,,,3,,,57,0
121344,note_on,,,,,0,0,4,,,,,2,,,58,75
121344,note_on,,,,,0,0,9,,,,,7,,,58,60
121344,note_on,,,,,0,0,6,,,,,4,,,55,60
122016,note_off,,,,,0,0,10,,,,,8,,,46,0
122016,note_off,,,,,672,0,10,,,,,8,,,43,0
122016,note_off,,,,,672,0,9,,,,,7,,,50,0
122112,note_on,,,,,0,0,6,,,,,4,,,55,60
122112,note_off,,,,,768,0,8,,,,,6,,,31,0
122112,note_on,,,,,0,0,3,,,,,10,,,36,60
122112,note_off,,,,,768,0,3,,,,,10,,,43,0
122112,note_on,,,,,96,0,10,,,,,8,,,36,60
122112,note_off,,,,,768,0,6,,,,,4,,,55,0
122112,note_on,,,,,0,0,7,,,,,5,,,36,60
122112,note_off,,,,,768,0,7,,,,,5,,,43,0
122112,note_on,,,,,0,0,8,,,,,6,,,24,60
122112,note_on,,,,,96,0,9,,,,,7,,,51,60
122112,note_on,,,,,0,0,9,,,,,7,,,55,60
122496,note_off,,,,,1152,0,1,,,,,0,,,58,0
122496,note_off,,,,,1152,0,2,,,,,1,,,55,0
122496,note_on,,,,,0,0,4,,,,,2,,,57,75
122496,note_off,,,,,1152,0,5,,,,,3,,,55,0
122496,note_on,,,,,0,0,5,,,,,3,,,57,75
122496,note_on,,,,,0,0,2,,,,,1,,,57,60
122496,note_off,,,,,1152,0,4,,,,,2,,,58,0
122496,note_on,,,,,0,0,1,,,,,0,,,57,60
122784,note_off,,,,,0,0,9,,,,,7,,,51,0
122784,note_off,,,,,0,0,9,,,,,7,,,55,0
122784,note_off,,,,,672,0,9,,,,,7,,,58,0
122784,note_off,,,,,672,0,10,,,,,8,,,36,0
122880,note_on,,,,,96,0,10,,,,,8,,,38,60
122880,note_on,,,,,96,0,9,,,,,7,,,55,60
122880,note_off,,,,,384,0,4,,,,,2,,,57,0
122880,note_on,,,,,0,0,4,,,,,2,,,58,75
122880,note_on,,,,,0,0,3,,,,,10,,,38,60
122880,note_off,,,,,768,0,7,,,,,5,,,36,0
122880,note_off,,,,,384,0,1,,,,,0,,,57,0
122880,note_on,,,,,0,0,7,,,,,5,,,38,60
122880,note_on,,,,,0,0,10,,,,,8,,,45,60
122880,note_on,,,,,0,0,9,,,,,7,,,57,60
122880,note_on,,,,,0,0,5,,,,,3,,,58,75
122880,note_on,,,,,0,0,1,,,,,0,,,58,60
122880,note_off,,,,,768,0,3,,,,,10,,,36,0
122880,note_off,,,,,384,0,5,,,,,3,,,57,0
122880,note_off,,,,,768,0,8,,,,,6,,,24,0
122880,note_on,,,,,0,0,8,,,,,6,,,26,60
122880,note_on,,,,,0,0,2,,,,,1,,,58,60
122880,note_off,,,,,384,0,2,,,,,1,,,57,0
122928,note_off,,,,,48,0,2,,,,,1,,,58,0
122928,note_off,,,,,48,0,1,,,,,0,,,58,0
122928,note_on,,,,,0,0,1,,,,,0,,,57,60
122928,note_on,,,,,0,0,5,,,,,3,,,57,75
122928,note_off,,,,,48,0,5,,,,,3,,,58,0
122928,note_off,,,,,48,0,4,,,,,2,,,58,0
122928,note_on,,,,,0,0,4,,,,,2,,,57,75
122928,note_on,,,,,0,0,2,,,,,1,,,57,60
122976,note_off,,,,,48,0,2,,,,,1,,,57,0
122976,note_off,,,,,48,0,5,,,,,3,,,57,0
122976,note_on,,,,,0,0,5,,,,,3,,,58,75
122976,note_on,,,,,0,0,4,,,,,2,,,58,75
122976,note_off,,,,,48,0,4,,,,,2,,,57,0
122976,note_off,,,,,48,0,1,,,,,0,,,57,0
122976,note_on,,,,,0,0,2,,,,,1,,,58,60
122976,note_on,,,,,0,0,1,,,,,0,,,58,60
123024,note_on,,,,,0,0,4,,,,,2,,,57,75
123024,note_off,,,,,48,0,4,,,,,2,,,58,0
123024,note_on,,,,,0,0,2,,,,,1,,,57,60
123024,note_off,,,,,48,0,2,,,,,1,,,58,0
123024,note_on,,,,,0,0,5,,,,,3,,,57,75
123024,note_off,,,,,48,0,5,,,,,3,,,58,0
123024,note_off,,,,,48,0,1,,,,,0,,,58,0
123024,note_on,,,,,0,0,1,,,,,0,,,57,60
123072,note_off,,,,,48,0,1,,,,,0,,,57,0
123072,note_on,,,,,0,0,5,,,,,3,,,58,75
123072,note_off,,,,,48,0,5,,,,,3,,,57,0
123072,note_off,,,,,48,0,2,,,,,1,,,57,0
123072,note_on,,,,,0,0,2,,,,,1,,,58,60
123072,note_on,,,,,0,0,1,,,,,0,,,58,60
123072,note_on,,,,,0,0,4,,,,,2,,,58,75
123072,note_off,,,,,48,0,4,,,,,2,,,57,0
123120,note_on,,,,,0,0,4,,,,,2,,,57,75
123120,note_on,,,,,0,0,5,,,,,3,,,57,75
123120,note_off,,,,,48,0,1,,,,,0,,,58,0
123120,note_off,,,,,48,0,5,,,,,3,,,58,0
123120,note_on,,,,,0,0,1,,,,,0,,,57,60
123120,note_off,,,,,48,0,4,,,,,2,,,58,0
123120,note_on,,,,,0,0,2,,,,,1,,,57,60
123120,note_off,,,,,48,0,2,,,,,1,,,58,0
123168,note_on,,,,,0,0,2,,,,,1,,,58,60
123168,note_off,,,,,48,0,1,,,,,0,,,57,0
123168,note_on,,,,,0,0,4,,,,,2,,,58,75
123168,note_off,,,,,48,0,2,,,,,1,,,57,0
123168,note_off,,,,,48,0,4,,,,,2,,,57,0
123168,note_off,,,,,48,0,5,,,,,3,,,57,0
123168,note_on,,,,,0,0,5,,,,,3,,,58,75
123168,note_on,,,,,0,0,1,,,,,0,,,58,60
123216,note_off,,,,,48,0,5,,,,,3,,,58,0
123216,note_on,,,,,0,0,5,,,,,3,,,57,75
123216,note_on,,,,,0,0,4,,,,,2,,,57,75
123216,note_off,,,,,48,0,4,,,,,2,,,58,0
123216,note_off,,,,,48,0,2,,,,,1,,,58,0
123216,note_on,,,,,0,0,1,,,,,0,,,57,60
123216,note_on,,,,,0,0,2,,,,,1,,,57,60
123216,note_off,,,,,48,0,1,,,,,0,,,58,0
123264,note_on,,,,,0,0,5,,,,,3,,,58,75
123264,note_off,,,,,48,0,5,,,,,3,,,57,0
123264,note_off,,,,,48,0,2,,,,,1,,,57,0
123264,note_on,,,,,0,0,1,,,,,0,,,58,60
123264,note_on,,,,,0,0,4,,,,,2,,,58,75
123264,note_off,,,,,48,0,1,,,,,0,,,57,0
123264,note_on,,,,,0,0,2,,,,,1,,,58,60
123264,note_off,,,,,48,0,4,,,,,2,,,57,0
123312,note_off,,,,,48,0,4,,,,,2,,,58,0
123312,note_on,,,,,0,0,1,,,,,0,,,57,60
123312,note_on,,,,,0,0,2,,,,,1,,,57,60
123312,note_on,,,,,0,0,5,,,,,3,,,57,75
123312,note_off,,,,,48,0,5,,,,,3,,,58,0
123312,note_off,,,,,48,0,2,,,,,1,,,58,0
123312,note_off,,,,,48,0,1,,,,,0,,,58,0
123312,note_on,,,,,0,0,4,,,,,2,,,57,75
123360,note_on,,,,,0,0,2,,,,,1,,,58,60
123360,note_off,,,,,48,0,2,,,,,1,,,57,0
123360,note_on,,,,,0,0,4,,,,,2,,,58,75
123360,note_off,,,,,48,0,5,,,,,3,,,57,0
123360,note_on,,,,,0,0,5,,,,,3,,,58,75
123360,note_off,,,,,48,0,4,,,,,2,,,57,0
123360,note_off,,,,,48,0,1,,,,,0,,,57,0
123360,note_on,,,,,0,0,1,,,,,0,,,58,60
123408,note_off,,,,,48,0,4,,,,,2,,,58,0
123408,note_on,,,,,0,0,4,,,,,2,,,57,75
123408,note_on,,,,,0,0,5,,,,,3,,,57,75
123408,note_off,,,,,48,0,1,,,,,0,,,58,0
123408,note_off,,,,,48,0,5,,,,,3,,,58,0
123408,note_on,,,,,0,0,1,,,,,0,,,57,60
123408,note_on,,,,,0,0,2,,,,,1,,,57,60
123408,note_off,,,,,48,0,2,,,,,1,,,58,0
123552,note_off,,,,,672,0,9,,,,,7,,,55,0
123552,note_off,,,,,672,0,10,,,,,8,,,45,0
123648,note_on,,,,,96,0,10,,,,,8,,,50,60
123648,note_on,,,,,96,0,9,,,,,7,,,54,60
123648,note_on,,,,,0,0,6,,,,,4,,,54,60
123648,note_off,,,,,1536,0,6,,,,,4,,,55,0
124032,note_off,,,,,624,0,5,,,,,3,,,57,0
124032,note_on,,,,,0,0,5,,,,,3,,,55,75
124032,note_on,,,,,0,0,4,,,,,2,,,55,75
124032,note_off,,,,,624,0,2,,,,,1,,,57,0
124032,note_on,,,,,0,0,2,,,,,1,,,55,60
124032,note_off,,,,,624,0,1,,,,,0,,,57,0
124032,note_off,,,,,624,0,4,,,,,2,,,57,0
124032,note_on,,,,,0,0,1,,,,,0,,,55,60
124320,note_off,,,,,672,0,9,,,,,7,,,57,0
124320,note_off,,,,,0,0,10,,,,,8,,,50,0
124320,note_off,,,,,672,0,10,,,,,8,,,38,0
124320,note_off,,,,,0,0,9,,,,,7,,,54,0
124416,note_off,,,,,1536,0,3,,,,,10,,,38,0
124416,note_off,,,,,384,0,4,,,,,2,,,55,0
124416,note_on,,,,,0,0,5,,,,,3,,,55,75
124416,note_on,,,,,0,0,4,,,,,2,,,55,75
124416,note_off,,,,,384,0,2,,,,,1,,,55,0
124416,note_on,,,,,0,0,2,,,,,1,,,55,60
124416,note_off,,,,,384,0,5,,,,,3,,,55,0
124416,note_off,,,,,768,0,6,,,,,4,,,54,0
124416,note_on,,,,,0,0,6,,,,,4,,,55,60
124416,note_on,,,,,96,0,9,,,,,7,,,55,60
124416,note_on,,,,,0,0,10,,,,,8,,,46,60
124416,note_on,,,,,0,0,8,,,,,6,,,31,60
124416,note_off,,,,,1536,0,7,,,,,5,,,38,0
124416,note_on,,,,,0,0,7,,,,,5,,,43,60
124416,note_off,,,,,1536,0,8,,,,,6,,,26,0
124416,note_on,,,,,0,0,3,,,,,10,,,46,60
124416,note_on,,,,,0,0,3,,,,,10,,,50,60
124416,note_off,,,,,384,0,1,,,,,0,,,55,0
124416,note_on,,,,,0,0,1,,,,,0,,,55,60
124416,note_on,,,,,96,0,10,,,,,8,,,43,60
125856,note_off,,,,,0,0,10,,,,,8,,,46,0
125856,note_off,,,,,1440,0,9,,,,,7,,,55,0
125856,note_off,,,,,1440,0,10,,,,,8,,,43,0
125952,note_off,,,,,1536,0,2,,,,,1,,,55,0
125952,note_off,,,,,0,0,3,,,,,10,,,50,0
125952,note_off,,,,,1536,0,4,,,,,2,,,55,0
125952,note_off,,,,,1536,0,7,,,,,5,,,43,0
125952,note_off,,,,,1536,0,6,,,,,4,,,55,0
125952,note_off,,,,,1536,0,8,,,,,6,,,31,0
125952,note_off,,,,,1536,0,3,,,,,10,,,46,0
125952,note_off,,,,,1536,0,1,,,,,0,,,55,0
125952,note_off,,,,,1536,0,5,,,,,3,,,55,0
126720,note_on,,,,,768,0,8,,,,,6,,,29,60
126720,note_on,,,,,864,0,10,,,,,8,,,41,60
126720,note_on,,,,,768,0,2,,,,,1,,,57,60
126720,note_on,,,,,768,0,5,,,,,3,,,57,75
126720,note_on,,,,,768,0,3,,,,,10,,,50,60
126720,note_on,,,,,768,0,1,,,,,0,,,62,60
126720,note_on,,,,,0,0,10,,,,,8,,,50,60
126720,note_on,,,,,768,0,6,,,,,4,,,50,60
126720,note_on,,,,,864,0,9,,,,,7,,,57,60
126720,note_on,,,,,768,0,4,,,,,2,,,62,75
126720,note_on,,,,,768,0,7,,,,,5,,,41,60
126720,note_on,,,,,0,0,9,,,,,7,,,60,60
128160,note_off,,,,,0,0,10,,,,,8,,,50,0
128160,note_off,,,,,1440,0,10,,,,,8,,,41,0
128160,note_off,,,,,1440,0,9,,,,,7,,,57,0
128160,note_off,,,,,0,0,9,,,,,7,,,60,0
128256,note_off,,,,,1536,0,7,,,,,5,,,41,0
128256,note_off,,,,,1536,0,3,,,,,10,,,50,0
128256,note_off,,,,,1536,0,4,,,,,2,,,62,0
128256,note_off,,,,,1536,0,6,,,,,4,,,50,0
128256,note_off,,,,,1536,0,8,,,,,6,,,29,0
128256,note_off,,,,,1536,0,5,,,,,3,,,57,0
128256,note_off,,,,,1536,0,2,,,,,1,,,57,0
128256,note_off,,,,,1536,0,1,,,,,0,,,62,0
129792,note_on,,,,,1536,0,2,,,,,1,,,55,60
129792,note_on,,,,,0,0,9,,,,,7,,,60,60
129792,note_on,,,,,1536,0,7,,,,,5,,,39,60
129792,note_on,,,,,1632,0,9,,,,,7,,,55,60
129792,note_on,,,,,1536,0,6,,,,,4,,,55,60
129792,note_on,,,,,1536,0,3,,,,,10,,,55,60
129792,note_on,,,,,1536,0,4,,,,,2,,,60,75
129792,note_on,,,,,1536,0,1,,,,,0,,,60,60
129792,note_on,,,,,1536,0,5,,,,,3,,,55,75
129792,note_on,,,,,1632,0,10,,,,,8,,,39,60
129792,note_on,,,,,1536,0,8,,,,,6,,,27,60
130848,note_off,,,,,1056,0,9,,,,,7,,,55,0
130848,note_off,,,,,0,0,9,,,,,7,,,60,0
130848,note_off,,,,,1056,0,10,,,,,8,,,39,0
130944,note_on,,,,,96,0,10,,,,,8,,,39,60
130944,note_on,,,,,0,0,1,,,,,0,,,62,60
130944,note_off,,,,,1152,0,3,,,,,10,,,55,0
130944,note_off,,,,,1152,0,1,,,,,0,,,60,0
130944,note_on,,,,,0,0,4,,,,,2,,,62,75
130944,note_off,,,,,1152,0,4,,,,,2,,,60,0
130944,note_on,,,,,96,0,9,,,,,7,,,55,60
130944,note_on,,,,,0,0,9,,,,,7,,,60,60
130944,note_on,,,,,0,0,3,,,,,10,,,54,60
131264,note_off,,,,,320,0,10,,,,,8,,,39,0
131264,note_off,,,,,0,0,9,,,,,7,,,60,0
131264,note_off,,,,,320,0,9,,,,,7,,,55,0
131328,note_off,,,,,1536,0,2,,,,,1,,,55,0
131328,note_off,,,,,384,0,3,,,,,10,,,54,0
131328,note_on,,,,,0,0,3,,,,,10,,,54,60
131328,note_off,,,,,1536,0,5,,,,,3,,,55,0
131328,end_of_track,,,,,0,1,0,,,,,,,,,
131328,note_on,,,,,64,0,10,,,,,8,,,38,60
131328,note_on,,,,,0,0,4,,,,,2,,,62,75
131328,set_tempo,,,,,34560,1,0,,1000000,,,,,,,
131328,note_on,,,,,0,0,5,,,,,3,,,57,75
131328,note_on,,,,,0,0,1,,,,,0,,,62,60
131328,note_off,,,,,384,0,1,,,,,0,,,62,0
131328,note_off,,,,,384,0,4,,,,,2,,,62,0
131328,note_on,,,,,0,0,2,,,,,1,,,57,60
131328,note_on,,,,,0,0,8,,,,,6,,,26,60
131328,note_on,,,,,0,0,9,,,,,7,,,57,60
131328,note_off,,,,,1536,0,7,,,,,5,,,39,0
131328,note_on,,,,,0,0,6,,,,,4,,,54,60
131328,note_on,,,,,0,0,7,,,,,5,,,38,60
131328,note_off,,,,,1536,0,6,,,,,4,,,55,0
131328,note_on,,,,,64,0,9,,,,,7,,,54,60
131328,note_on,,,,,0,0,9,,,,,7,,,62,60
131328,note_off,,,,,1536,0,8,,,,,6,,,27,0
133536,end_of_track,,,,,0,1,9,,,,,,,,,
133536,note_off,,,,,0,0,9,,,,,7,,,62,0
133536,end_of_track,,,,,0,1,10,,,,,,,,,
133536,note_off,,,,,0,0,9,,,,,7,,,57,0
133536,note_off,,,,,2208,0,9,,,,,7,,,54,0
133536,note_off,,,,,2208,0,10,,,,,8,,,38,0
133632,note_off,,,,,2304,0,2,,,,,1,,,57,0
133632,end_of_track,,,,,0,1,2,,,,,,,,,
133632,note_off,,,,,2304,0,5,,,,,3,,,57,0
133632,end_of_track,,,,,0,1,5,,,,,,,,,
133632,note_off,,,,,2304,0,4,,,,,2,,,62,0
133632,end_of_track,,,,,0,1,3,,,,,,,,,
133632,end_of_track,,,,,0,1,1,,,,,,,,,
133632,note_off,,,,,2304,0,1,,,,,0,,,62,0
133632,end_of_track,,,,,0,1,4,,,,,,,,,
133632,note_off,,,,,2304,0,8,,,,,6,,,26,0
133632,note_off,,,,,2304,0,6,,,,,4,,,54,0
133632,end_of_track,,,,,0,1,6,,,,,,,,,
133632,end_of_track,,,,,0,1,7,,,,,,,,,
133632,note_off,,,,,2304,0,7,,,,,5,,,38,0
133632,note_off,,,,,2304,0,3,,,,,10,,,54,0
133632,end_of_track,,,,,0,1,8,,,,,,,,,
