tick,type,numerator,denominator,clocks_per_click,notated_32nd_notes_per_beat,time,meta,track,data,tempo,control,value,channel,program,key,note,velocity
0,time_signature,3,8,96,8,0,1,0,,,,,,,,,
0,control_change,,,,,0,0,6,,,0,0,5,,,,
0,track_name,,,,,0,1,6,,,,,,,,,
0,note_on,,,,,0,0,5,,,,,4,,,53,45
0,key_signature,,,,,0,1,5,,,,,,,Eb,,
0,program_change,,,,,0,0,5,,,,,4,41,,,
0,control_change,,,,,0,0,5,,,7,127,4,,,,
0,control_change,,,,,0,0,5,,,10,104,4,,,,
0,control_change,,,,,0,0,5,,,0,0,4,,,,
0,track_name,,,,,0,1,5,,,,,,,,,
0,note_on,,,,,0,0,4,,,,,3,,,60,45
0,key_signature,,,,,0,1,4,,,,,,,Eb,,
0,program_change,,,,,0,0,4,,,,,3,48,,,
0,control_change,,,,,0,0,4,,,7,127,3,,,,
0,control_change,,,,,0,0,4,,,10,104,3,,,,
0,control_change,,,,,0,0,4,,,0,0,3,,,,
0,track_name,,,,,0,1,4,,,,,,,,,
0,key_signature,,,,,0,1,14,,,,,,,C,,
0,note_on,,,,,0,0,3,,,,,2,,,68,45
0,key_signature,,,,,0,1,3,,,,,,,Eb,,
0,program_change,,,,,0,0,3,,,,,2,48,,,
0,control_change,,,,,0,0,3,,,7,127,2,,,,
0,control_change,,,,,0,0,3,,,10,24,2,,,,
0,control_change,,,,,0,0,3,,,0,0,2,,,,
0,track_name,,,,,0,1,3,,,,,,,,,
0,note_on,,,,,0,0,2,,,,,1,,,68,30
0,key_signature,,,,,0,1,2,,,,,,,Eb,,
0,program_change,,,,,0,0,2,,,,,1,40,,,
0,control_change,,,,,0,0,2,,,7,127,1,,,,
0,control_change,,,,,0,0,2,,,10,104,1,,,,
0,control_change,,,,,0,0,6,,,10,24,5,,,,
0,control_change,,,,,0,0,6,,,7,127,5,,,,
0,program_change,,,,,0,0,6,,,,,5,42,,,
0,key_signature,,,,,0,1,6,,,,,,,Eb,,
0,track_name,,,,,0,1,14,,,,,,,,,
0,end_of_track,,,,,0,1,13,,,,,,,,,
0,key_signature,,,,,0,1,13,,,,,,,C,,
0,track_name,,,,,0,1,13,,,,,,,,,
0,end_of_track,,,,,0,1,12,,,,,,,,,
0,key_signature,,,,,0,1,12,,,,,,,C,,
0,track_name,,,,,0,1,12,,,,,,,,,
0,end_of_track,,,,,0,1,11,,,,,,,,,
0,key_signature,,,,,0,1,11,,,,,,,C,,
0,track_name,,,,,0,1,11,,,,,,,,,
0,end_of_track,,,,,0,1,10,,,,,,,,,
0,key_signature,,,,,0,1,10,,,,,,,C,,
0,track_name,,,,,0,1,10,,,,,,,,,
0,end_of_track,,,,,0,1,9,,,,,,,,,
0,control_change,,,,,0,0,2,,,0,0,1,,,,
0,key_signature,,,,,0,1,9,,,,,,,C,,
0,note_on,,,,,0,0,8,,,,,7,,,53,45
0,key_signature,,,,,0,1,8,,,,,,,Eb,,
0,program_change,,,,,0,0,8,,,,,7,6,,,
0,control_change,,,,,0,0,8,,,7,127,7,,,,
0,control_change,,,,,0,0,8,,,10,64,7,,,,
0,control_change,,,,,0,0,8,,,0,0,7,,,,
0,track_name,,,,,0,1,8,,,,,,,,,
0,key_signature,,,,,0,1,7,,,,,,,Eb,,
0,program_change,,,,,0,0,7,,,,,6,43,,,
0,control_change,,,,,0,0,7,,,7,127,6,,,,
0,control_change,,,,,0,0,7,,,10,64,6,,,,
0,control_change,,,,,0,0,7,,,0,0,6,,,,
0,track_name,,,,,0,1,7,,,,,,,,,
0,note_on,,,,,0,0,6,,,,,5,,,53,45
0,track_name,,,,,0,1,9,,,,,,,,,
0,track_name,,,,,0,1,2,,,,,,,,,
0,end_of_track,,,,,0,1,14,,,,,,,,,
0,control_change,,,,,0,0,1,,,7,127,0,,,,
0,track_name,,,,,0,1,1,,,,,,,,,
0,program_change,,,,,0,0,1,,,,,0,40,,,
0,control_change,,,,,0,0,1,,,10,24,0,,,,
0,set_tempo,,,,,0,1,0,,1500000,,,,,,,
0,control_change,,,,,0,0,1,,,0,0,0,,,,
0,note_on,,,,,0,0,1,,,,,0,,,68,30
0,key_signature,,,,,0,1,1,,,,,,,Eb,,
0,sequencer_specific,,,,,0,1,0,"(0, 0, 65)",,,,,,,,
140,note_off,,,,,140,0,1,,,,,0,,,68,0
140,note_off,,,,,140,0,3,,,,,2,,,68,0
140,note_off,,,,,140,0,2,,,,,1,,,68,0
144,note_on,,,,,4,0,3,,,,,2,,,70,45
144,note_on,,,,,4,0,1,,,,,0,,,70,30
144,note_on,,,,,4,0,2,,,,,1,,,70,30
188,note_off,,,,,188,0,5,,,,,4,,,53,0
188,note_off,,,,,188,0,8,,,,,7,,,53,0
188,note_off,,,,,188,0,6,,,,,5,,,53,0
188,note_off,,,,,44,0,3,,,,,2,,,70,0
188,note_off,,,,,44,0,2,,,,,1,,,70,0
188,note_off,,,,,188,0,4,,,,,3,,,60,0
188,note_off,,,,,44,0,1,,,,,0,,,70,0
192,note_on,,,,,4,0,8,,,,,7,,,56,45
192,note_on,,,,,4,0,6,,,,,5,,,56,45
192,note_on,,,,,4,0,5,,,,,4,,,56,45
192,note_on,,,,,4,0,2,,,,,1,,,72,30
192,note_on,,,,,4,0,3,,,,,2,,,72,45
192,note_on,,,,,4,0,1,,,,,0,,,72,30
192,note_on,,,,,4,0,4,,,,,3,,,65,45
380,note_off,,,,,188,0,6,,,,,5,,,56,0
380,note_off,,,,,188,0,1,,,,,0,,,72,0
380,note_off,,,,,188,0,5,,,,,4,,,56,0
380,note_off,,,,,188,0,8,,,,,7,,,56,0
380,note_off,,,,,188,0,2,,,,,1,,,72,0
380,note_off,,,,,188,0,4,,,,,3,,,65,0
380,note_off,,,,,188,0,3,,,,,2,,,72,0
384,note_on,,,,,4,0,4,,,,,3,,,64,45
384,note_on,,,,,4,0,2,,,,,1,,,64,30
384,note_on,,,,,4,0,5,,,,,4,,,60,45
384,note_on,,,,,4,0,8,,,,,7,,,60,45
384,note_on,,,,,4,0,6,,,,,5,,,60,45
384,note_on,,,,,4,0,3,,,,,2,,,64,45
384,note_on,,,,,4,0,1,,,,,0,,,64,30
572,note_off,,,,,188,0,5,,,,,4,,,60,0
572,note_off,,,,,188,0,1,,,,,0,,,64,0
572,note_off,,,,,188,0,4,,,,,3,,,64,0
572,note_off,,,,,188,0,2,,,,,1,,,64,0
572,note_off,,,,,188,0,3,,,,,2,,,64,0
572,note_off,,,,,188,0,8,,,,,7,,,60,0
572,note_off,,,,,188,0,6,,,,,5,,,60,0
576,note_on,,,,,4,0,8,,,,,7,,,56,45
576,note_on,,,,,4,0,2,,,,,1,,,65,30
576,note_on,,,,,4,0,4,,,,,3,,,60,45
576,note_on,,,,,4,0,1,,,,,0,,,65,30
576,note_on,,,,,4,0,6,,,,,5,,,56,45
576,note_on,,,,,4,0,3,,,,,2,,,65,45
576,note_on,,,,,4,0,5,,,,,4,,,56,45
764,note_off,,,,,188,0,8,,,,,7,,,56,0
764,note_off,,,,,188,0,6,,,,,5,,,56,0
764,note_off,,,,,188,0,1,,,,,0,,,65,0
764,note_off,,,,,188,0,2,,,,,1,,,65,0
764,note_off,,,,,188,0,5,,,,,4,,,56,0
764,note_off,,,,,188,0,3,,,,,2,,,65,0
768,note_on,,,,,4,0,8,,,,,7,,,65,45
768,note_on,,,,,4,0,5,,,,,4,,,65,45
768,note_on,,,,,4,0,1,,,,,0,,,80,30
768,note_on,,,,,4,0,2,,,,,1,,,80,30
768,note_on,,,,,4,0,6,,,,,5,,,65,45
768,note_on,,,,,4,0,3,,,,,2,,,80,45
896,note_off,,,,,320,0,4,,,,,3,,,60,0
908,note_off,,,,,140,0,1,,,,,0,,,80,0
908,note_off,,,,,140,0,2,,,,,1,,,80,0
908,note_off,,,,,140,0,3,,,,,2,,,80,0
912,note_on,,,,,4,0,3,,,,,2,,,82,45
912,note_on,,,,,4,0,2,,,,,1,,,82,30
912,note_on,,,,,4,0,1,,,,,0,,,82,30
956,note_off,,,,,44,0,1,,,,,0,,,82,0
956,note_off,,,,,188,0,6,,,,,5,,,65,0
956,note_off,,,,,188,0,8,,,,,7,,,65,0
956,note_off,,,,,188,0,5,,,,,4,,,65,0
956,note_off,,,,,44,0,3,,,,,2,,,82,0
956,note_off,,,,,44,0,2,,,,,1,,,82,0
960,note_on,,,,,4,0,1,,,,,0,,,84,30
960,note_on,,,,,64,0,4,,,,,3,,,67,45
960,note_on,,,,,4,0,5,,,,,4,,,63,45
960,note_on,,,,,4,0,8,,,,,7,,,63,45
960,note_on,,,,,4,0,6,,,,,5,,,63,45
960,note_on,,,,,4,0,2,,,,,1,,,84,30
960,note_on,,,,,4,0,3,,,,,2,,,84,45
1148,note_off,,,,,188,0,4,,,,,3,,,67,0
1148,note_off,,,,,188,0,3,,,,,2,,,84,0
1148,note_off,,,,,188,0,5,,,,,4,,,63,0
1148,note_off,,,,,188,0,1,,,,,0,,,84,0
1148,note_off,,,,,188,0,8,,,,,7,,,63,0
1148,note_off,,,,,188,0,2,,,,,1,,,84,0
1148,note_off,,,,,188,0,6,,,,,5,,,63,0
1152,note_on,,,,,4,0,6,,,,,5,,,61,45
1152,note_on,,,,,4,0,3,,,,,2,,,77,45
1152,note_on,,,,,4,0,8,,,,,7,,,61,45
1152,note_on,,,,,4,0,2,,,,,1,,,77,30
1152,note_on,,,,,4,0,5,,,,,4,,,61,45
1152,note_on,,,,,4,0,1,,,,,0,,,77,30
1152,note_on,,,,,4,0,4,,,,,3,,,68,45
1292,note_off,,,,,140,0,4,,,,,3,,,68,0
1296,note_on,,,,,4,0,4,,,,,3,,,70,45
1340,note_off,,,,,188,0,1,,,,,0,,,77,0
1340,note_off,,,,,188,0,2,,,,,1,,,77,0
1340,note_off,,,,,44,0,4,,,,,3,,,70,0
1340,note_off,,,,,188,0,5,,,,,4,,,61,0
1340,note_off,,,,,188,0,6,,,,,5,,,61,0
1340,note_off,,,,,188,0,3,,,,,2,,,77,0
1340,note_off,,,,,188,0,8,,,,,7,,,61,0
1344,note_on,,,,,4,0,2,,,,,1,,,79,30
1344,note_on,,,,,4,0,1,,,,,0,,,79,30
1344,note_on,,,,,4,0,4,,,,,3,,,72,45
1344,note_on,,,,,4,0,8,,,,,7,,,60,45
1344,note_on,,,,,4,0,3,,,,,2,,,79,45
1344,note_on,,,,,4,0,6,,,,,5,,,60,45
1344,note_on,,,,,4,0,5,,,,,4,,,60,45
1484,note_off,,,,,140,0,1,,,,,0,,,79,0
1484,note_off,,,,,140,0,3,,,,,2,,,79,0
1484,note_off,,,,,140,0,2,,,,,1,,,79,0
1488,note_on,,,,,4,0,2,,,,,1,,,80,30
1488,note_on,,,,,4,0,3,,,,,2,,,80,45
1488,note_on,,,,,4,0,1,,,,,0,,,80,30
1532,note_off,,,,,44,0,3,,,,,2,,,80,0
1532,note_off,,,,,188,0,6,,,,,5,,,60,0
1532,note_off,,,,,188,0,4,,,,,3,,,72,0
1532,note_off,,,,,44,0,2,,,,,1,,,80,0
1532,note_off,,,,,44,0,1,,,,,0,,,80,0
1532,note_off,,,,,188,0,5,,,,,4,,,60,0
1532,note_off,,,,,188,0,8,,,,,7,,,60,0
1536,note_on,,,,,4,0,4,,,,,3,,,73,45
1536,note_on,,,,,4,0,3,,,,,2,,,82,45
1536,note_on,,,,,4,0,5,,,,,4,,,58,45
1536,note_on,,,,,4,0,6,,,,,5,,,58,45
1536,note_on,,,,,4,0,8,,,,,7,,,58,45
1536,note_on,,,,,4,0,2,,,,,1,,,82,30
1536,note_on,,,,,4,0,1,,,,,0,,,82,30
1724,note_off,,,,,188,0,3,,,,,2,,,82,0
1724,note_off,,,,,188,0,4,,,,,3,,,73,0
1724,note_off,,,,,188,0,2,,,,,1,,,82,0
1724,note_off,,,,,188,0,8,,,,,7,,,58,0
1724,note_off,,,,,188,0,1,,,,,0,,,82,0
1724,note_off,,,,,188,0,5,,,,,4,,,58,0
1724,note_off,,,,,188,0,6,,,,,5,,,58,0
1728,note_on,,,,,4,0,6,,,,,5,,,60,45
1728,note_on,,,,,4,0,2,,,,,1,,,76,30
1728,note_on,,,,,4,0,5,,,,,4,,,60,45
1728,note_on,,,,,4,0,1,,,,,0,,,76,30
1728,note_on,,,,,4,0,8,,,,,7,,,60,45
1728,note_on,,,,,4,0,3,,,,,2,,,76,45
1728,note_on,,,,,4,0,4,,,,,3,,,67,45
1916,note_off,,,,,188,0,1,,,,,0,,,76,0
1916,note_off,,,,,188,0,3,,,,,2,,,76,0
1916,note_off,,,,,188,0,2,,,,,1,,,76,0
1920,note_on,,,,,4,0,3,,,,,2,,,74,45
1920,note_on,,,,,4,0,2,,,,,1,,,74,30
1920,note_on,,,,,4,0,1,,,,,0,,,74,30
2012,note_off,,,,,92,0,3,,,,,2,,,74,0
2012,note_off,,,,,92,0,2,,,,,1,,,74,0
2012,note_off,,,,,92,0,1,,,,,0,,,74,0
2016,note_on,,,,,4,0,3,,,,,2,,,76,45
2016,note_on,,,,,4,0,2,,,,,1,,,76,30
2016,note_on,,,,,4,0,1,,,,,0,,,76,30
2048,note_off,,,,,320,0,8,,,,,7,,,60,0
2048,note_off,,,,,320,0,6,,,,,5,,,60,0
2048,note_off,,,,,320,0,5,,,,,4,,,60,0
2108,note_off,,,,,92,0,2,,,,,1,,,76,0
2108,note_off,,,,,92,0,1,,,,,0,,,76,0
2108,note_off,,,,,92,0,3,,,,,2,,,76,0
2112,note_on,,,,,64,0,6,,,,,5,,,64,45
2112,note_on,,,,,64,0,8,,,,,7,,,64,45
2112,note_on,,,,,64,0,5,,,,,4,,,64,45
2112,note_on,,,,,4,0,3,,,,,2,,,72,45
2112,note_on,,,,,4,0,2,,,,,1,,,72,30
2112,note_on,,,,,4,0,1,,,,,0,,,72,30
2240,note_off,,,,,512,0,4,,,,,3,,,67,0
2300,note_off,,,,,188,0,1,,,,,0,,,72,0
2300,note_off,,,,,188,0,6,,,,,5,,,64,0
2300,note_off,,,,,188,0,5,,,,,4,,,64,0
2300,note_off,,,,,188,0,2,,,,,1,,,72,0
2300,note_off,,,,,188,0,8,,,,,7,,,64,0
2300,note_off,,,,,188,0,3,,,,,2,,,72,0
2304,note_on,,,,,4,0,2,,,,,1,,,73,75
2304,note_on,,,,,4,0,5,,,,,4,,,65,127
2304,note_on,,,,,2304,0,7,,,,,6,,,41,105
2304,note_on,,,,,64,0,4,,,,,3,,,68,127
2304,note_on,,,,,4,0,1,,,,,0,,,73,75
2304,note_on,,,,,4,0,8,,,,,7,,,53,45
2304,note_on,,,,,4,0,3,,,,,2,,,73,127
2304,note_on,,,,,4,0,6,,,,,5,,,53,127
2492,note_off,,,,,188,0,6,,,,,5,,,53,0
2492,note_off,,,,,188,0,5,,,,,4,,,65,0
2492,note_off,,,,,188,0,7,,,,,6,,,41,0
2492,note_off,,,,,188,0,8,,,,,7,,,53,0
2492,note_off,,,,,188,0,2,,,,,1,,,73,0
2492,note_off,,,,,188,0,4,,,,,3,,,68,0
2492,note_off,,,,,188,0,3,,,,,2,,,73,0
2492,note_off,,,,,188,0,1,,,,,0,,,73,0
2496,note_on,,,,,4,0,6,,,,,5,,,51,127
2496,note_on,,,,,4,0,5,,,,,4,,,60,127
2496,note_on,,,,,4,0,2,,,,,1,,,72,75
2496,note_on,,,,,4,0,3,,,,,2,,,72,127
2496,note_on,,,,,4,0,4,,,,,3,,,67,127
2496,note_on,,,,,4,0,8,,,,,7,,,51,45
2496,note_on,,,,,4,0,7,,,,,6,,,39,105
2496,note_on,,,,,4,0,1,,,,,0,,,72,75
2684,note_off,,,,,188,0,1,,,,,0,,,72,0
2684,note_off,,,,,188,0,6,,,,,5,,,51,0
2684,note_off,,,,,188,0,8,,,,,7,,,51,0
2684,note_off,,,,,188,0,5,,,,,4,,,60,0
2684,note_off,,,,,188,0,7,,,,,6,,,39,0
2684,note_off,,,,,188,0,4,,,,,3,,,67,0
2684,note_off,,,,,188,0,2,,,,,1,,,72,0
2684,note_off,,,,,188,0,3,,,,,2,,,72,0
2880,note_on,,,,,196,0,5,,,,,4,,,65,127
2880,note_on,,,,,196,0,8,,,,,7,,,49,45
2880,note_on,,,,,196,0,7,,,,,6,,,37,105
2880,note_on,,,,,196,0,2,,,,,1,,,70,75
2880,note_on,,,,,196,0,3,,,,,2,,,70,127
2880,note_on,,,,,196,0,4,,,,,3,,,65,127
2880,note_on,,,,,196,0,1,,,,,0,,,70,75
2880,note_on,,,,,196,0,6,,,,,5,,,49,127
3068,note_off,,,,,188,0,1,,,,,0,,,70,0
3068,note_off,,,,,188,0,2,,,,,1,,,70,0
3068,note_off,,,,,188,0,3,,,,,2,,,70,0
3068,note_off,,,,,188,0,7,,,,,6,,,37,0
3068,note_off,,,,,188,0,6,,,,,5,,,49,0
3068,note_off,,,,,188,0,8,,,,,7,,,49,0
3068,note_off,,,,,188,0,5,,,,,4,,,65,0
3068,note_off,,,,,188,0,4,,,,,3,,,65,0
3072,note_on,,,,,4,0,6,,,,,5,,,48,127
3072,note_on,,,,,4,0,2,,,,,1,,,68,75
3072,note_on,,,,,4,0,3,,,,,2,,,68,127
3072,note_on,,,,,4,0,5,,,,,4,,,56,127
3072,note_on,,,,,4,0,7,,,,,6,,,36,105
3072,note_on,,,,,4,0,4,,,,,3,,,63,127
3072,note_on,,,,,4,0,8,,,,,7,,,48,45
3072,note_on,,,,,4,0,1,,,,,0,,,68,75
3260,note_off,,,,,188,0,1,,,,,0,,,68,0
3260,note_off,,,,,188,0,5,,,,,4,,,56,0
3260,note_off,,,,,188,0,7,,,,,6,,,36,0
3260,note_off,,,,,188,0,2,,,,,1,,,68,0
3260,note_off,,,,,188,0,8,,,,,7,,,48,0
3260,note_off,,,,,188,0,6,,,,,5,,,48,0
3260,note_off,,,,,188,0,4,,,,,3,,,63,0
3260,note_off,,,,,188,0,3,,,,,2,,,68,0
3456,note_on,,,,,196,0,1,,,,,0,,,67,75
3456,note_on,,,,,196,0,4,,,,,3,,,61,108
3456,note_on,,,,,196,0,5,,,,,4,,,58,92
3456,note_on,,,,,196,0,2,,,,,1,,,67,75
3456,note_on,,,,,196,0,6,,,,,5,,,46,92
3456,note_on,,,,,196,0,3,,,,,2,,,67,108
3456,note_on,,,,,196,0,7,,,,,6,,,34,75
3456,note_on,,,,,196,0,8,,,,,7,,,46,45
3644,note_off,,,,,188,0,6,,,,,5,,,46,0
3644,note_off,,,,,188,0,4,,,,,3,,,61,0
3644,note_off,,,,,188,0,7,,,,,6,,,34,0
3644,note_off,,,,,188,0,2,,,,,1,,,67,0
3644,note_off,,,,,188,0,3,,,,,2,,,67,0
3644,note_off,,,,,188,0,1,,,,,0,,,67,0
3644,note_off,,,,,188,0,5,,,,,4,,,58,0
3644,note_off,,,,,188,0,8,,,,,7,,,46,0
3648,note_on,,,,,4,0,2,,,,,1,,,68,75
3648,note_on,,,,,4,0,7,,,,,6,,,29,75
3648,note_on,,,,,4,0,1,,,,,0,,,68,75
3648,note_on,,,,,4,0,3,,,,,2,,,68,108
3648,note_on,,,,,4,0,6,,,,,5,,,41,92
3648,note_on,,,,,4,0,4,,,,,3,,,60,108
3648,note_on,,,,,4,0,8,,,,,7,,,41,45
3648,note_on,,,,,4,0,5,,,,,4,,,60,92
3836,note_off,,,,,188,0,4,,,,,3,,,60,0
3836,note_off,,,,,188,0,6,,,,,5,,,41,0
3836,note_off,,,,,188,0,5,,,,,4,,,60,0
3836,note_off,,,,,188,0,7,,,,,6,,,29,0
3836,note_off,,,,,188,0,3,,,,,2,,,68,0
3836,note_off,,,,,188,0,1,,,,,0,,,68,0
3836,note_off,,,,,188,0,2,,,,,1,,,68,0
3836,note_off,,,,,188,0,8,,,,,7,,,41,0
3840,note_on,,,,,4,0,2,,,,,1,,,65,75
3840,note_on,,,,,4,0,6,,,,,5,,,49,92
3840,note_on,,,,,4,0,7,,,,,6,,,37,75
3840,note_on,,,,,4,0,1,,,,,0,,,65,75
3840,note_on,,,,,4,0,4,,,,,3,,,65,108
3840,note_on,,,,,4,0,5,,,,,4,,,58,92
3840,note_on,,,,,4,0,8,,,,,7,,,49,45
3840,note_on,,,,,4,0,3,,,,,2,,,65,108
4028,note_off,,,,,188,0,8,,,,,7,,,49,0
4028,note_off,,,,,188,0,6,,,,,5,,,49,0
4028,note_off,,,,,188,0,2,,,,,1,,,65,0
4028,note_off,,,,,188,0,1,,,,,0,,,65,0
4028,note_off,,,,,188,0,7,,,,,6,,,37,0
4028,note_off,,,,,188,0,5,,,,,4,,,58,0
4028,note_off,,,,,188,0,3,,,,,2,,,65,0
4028,note_off,,,,,188,0,4,,,,,3,,,65,0
4032,note_on,,,,,4,0,1,,,,,0,,,72,75
4032,note_on,,,,,4,0,3,,,,,2,,,72,108
4032,note_on,,,,,4,0,7,,,,,6,,,36,75
4032,note_on,,,,,4,0,2,,,,,1,,,72,75
4032,note_on,,,,,4,0,4,,,,,3,,,64,108
4032,note_on,,,,,4,0,8,,,,,7,,,48,45
4032,note_on,,,,,4,0,5,,,,,4,,,67,92
4032,note_on,,,,,4,0,6,,,,,5,,,48,92
4124,note_off,,,,,92,0,2,,,,,1,,,72,0
4124,note_off,,,,,92,0,1,,,,,0,,,72,0
4124,note_off,,,,,92,0,3,,,,,2,,,72,0
4128,note_on,,,,,4,0,2,,,,,1,,,74,75
4128,note_on,,,,,4,0,1,,,,,0,,,74,75
4128,note_on,,,,,4,0,3,,,,,2,,,74,108
4220,note_off,,,,,188,0,7,,,,,6,,,36,0
4220,note_off,,,,,188,0,6,,,,,5,,,48,0
4220,note_off,,,,,92,0,2,,,,,1,,,74,0
4220,note_off,,,,,188,0,4,,,,,3,,,64,0
4220,note_off,,,,,92,0,3,,,,,2,,,74,0
4220,note_off,,,,,92,0,1,,,,,0,,,74,0
4220,note_off,,,,,188,0,5,,,,,4,,,67,0
4220,note_off,,,,,188,0,8,,,,,7,,,48,0
4224,note_on,,,,,4,0,6,,,,,5,,,60,92
4224,note_on,,,,,4,0,2,,,,,1,,,76,75
4224,note_on,,,,,4,0,7,,,,,6,,,48,75
4224,note_on,,,,,4,0,5,,,,,4,,,60,92
4224,note_on,,,,,4,0,1,,,,,0,,,76,75
4224,note_on,,,,,4,0,8,,,,,7,,,60,45
4224,note_on,,,,,4,0,3,,,,,2,,,76,108
4224,note_on,,,,,4,0,4,,,,,3,,,67,108
4316,note_off,,,,,92,0,1,,,,,0,,,76,0
4316,note_off,,,,,92,0,2,,,,,1,,,76,0
4316,note_off,,,,,92,0,3,,,,,2,,,76,0
4320,note_on,,,,,4,0,3,,,,,2,,,77,108
4320,note_on,,,,,4,0,2,,,,,1,,,77,75
4320,note_on,,,,,4,0,1,,,,,0,,,77,75
4412,note_off,,,,,188,0,6,,,,,5,,,60,0
4412,note_off,,,,,92,0,2,,,,,1,,,77,0
4412,note_off,,,,,92,0,1,,,,,0,,,77,0
4412,note_off,,,,,92,0,3,,,,,2,,,77,0
4412,note_off,,,,,188,0,7,,,,,6,,,48,0
4412,note_off,,,,,188,0,8,,,,,7,,,60,0
4412,note_off,,,,,188,0,4,,,,,3,,,67,0
4412,note_off,,,,,188,0,5,,,,,4,,,60,0
4416,note_on,,,,,4,0,4,,,,,3,,,72,108
4416,note_on,,,,,4,0,2,,,,,1,,,79,75
4416,note_on,,,,,4,0,7,,,,,6,,,40,75
4416,note_on,,,,,4,0,5,,,,,4,,,67,92
4416,note_on,,,,,4,0,1,,,,,0,,,79,75
4416,note_on,,,,,4,0,6,,,,,5,,,52,92
4416,note_on,,,,,4,0,3,,,,,2,,,79,108
4416,note_on,,,,,4,0,8,,,,,7,,,52,45
4508,note_off,,,,,92,0,1,,,,,0,,,79,0
4508,note_off,,,,,92,0,2,,,,,1,,,79,0
4508,note_off,,,,,92,0,3,,,,,2,,,79,0
4512,note_on,,,,,4,0,1,,,,,0,,,72,75
4512,note_on,,,,,4,0,3,,,,,2,,,72,108
4512,note_on,,,,,4,0,2,,,,,1,,,72,75
4604,note_off,,,,,92,0,3,,,,,2,,,72,0
4604,note_off,,,,,188,0,5,,,,,4,,,67,0
4604,note_off,,,,,188,0,6,,,,,5,,,52,0
4604,note_off,,,,,188,0,8,,,,,7,,,52,0
4604,note_off,,,,,92,0,2,,,,,1,,,72,0
4604,note_off,,,,,188,0,7,,,,,6,,,40,0
4604,note_off,,,,,188,0,4,,,,,3,,,72,0
4604,note_off,,,,,92,0,1,,,,,0,,,72,0
4608,note_on,,,,,4,0,1,,,,,0,,,80,75
4608,note_on,,,,,4,0,7,,,,,6,,,41,75
4608,note_on,,,,,4,0,3,,,,,2,,,80,108
4608,note_on,,,,,4,0,5,,,,,4,,,65,92
4608,note_on,,,,,4,0,8,,,,,7,,,53,45
4608,note_on,,,,,4,0,4,,,,,3,,,72,108
4608,note_on,,,,,4,0,6,,,,,5,,,53,92
4608,note_on,,,,,4,0,2,,,,,1,,,80,75
4700,note_off,,,,,92,0,2,,,,,1,,,80,0
4700,note_off,,,,,92,0,3,,,,,2,,,80,0
4700,note_off,,,,,92,0,1,,,,,0,,,80,0
4704,note_on,,,,,4,0,3,,,,,2,,,79,108
4704,note_on,,,,,4,0,1,,,,,0,,,79,75
4704,note_on,,,,,4,0,2,,,,,1,,,79,75
4796,note_off,,,,,188,0,7,,,,,6,,,41,0
4796,note_off,,,,,188,0,8,,,,,7,,,53,0
4796,note_off,,,,,92,0,2,,,,,1,,,79,0
4796,note_off,,,,,188,0,6,,,,,5,,,53,0
4796,note_off,,,,,92,0,3,,,,,2,,,79,0
4796,note_off,,,,,92,0,1,,,,,0,,,79,0
4800,note_on,,,,,4,0,1,,,,,0,,,77,75
4800,note_on,,,,,4,0,6,,,,,5,,,56,92
4800,note_on,,,,,4,0,8,,,,,7,,,56,45
4800,note_on,,,,,4,0,7,,,,,6,,,44,75
4800,note_on,,,,,4,0,3,,,,,2,,,77,108
4800,note_on,,,,,4,0,2,,,,,1,,,77,75
4892,note_off,,,,,92,0,2,,,,,1,,,77,0
4892,note_off,,,,,92,0,3,,,,,2,,,77,0
4892,note_off,,,,,92,0,1,,,,,0,,,77,0
4896,note_on,,,,,4,0,3,,,,,2,,,76,108
4896,note_on,,,,,4,0,2,,,,,1,,,76,75
4896,note_on,,,,,4,0,1,,,,,0,,,76,75
4928,note_off,,,,,320,0,4,,,,,3,,,72,0
4928,note_off,,,,,320,0,5,,,,,4,,,65,0
4988,note_off,,,,,92,0,1,,,,,0,,,76,0
4988,note_off,,,,,188,0,8,,,,,7,,,56,0
4988,note_off,,,,,188,0,7,,,,,6,,,44,0
4988,note_off,,,,,92,0,3,,,,,2,,,76,0
4988,note_off,,,,,188,0,6,,,,,5,,,56,0
4988,note_off,,,,,92,0,2,,,,,1,,,76,0
4992,note_on,,,,,4,0,3,,,,,2,,,77,108
4992,note_on,,,,,64,0,5,,,,,4,,,68,92
4992,note_on,,,,,64,0,4,,,,,3,,,74,108
4992,note_on,,,,,4,0,8,,,,,7,,,53,45
4992,note_on,,,,,4,0,7,,,,,6,,,41,75
4992,note_on,,,,,4,0,1,,,,,0,,,77,75
4992,note_on,,,,,4,0,6,,,,,5,,,53,92
4992,note_on,,,,,4,0,2,,,,,1,,,77,75
5084,note_off,,,,,92,0,1,,,,,0,,,77,0
5084,note_off,,,,,92,0,2,,,,,1,,,77,0
5084,note_off,,,,,92,0,3,,,,,2,,,77,0
5088,note_on,,,,,4,0,2,,,,,1,,,76,75
5088,note_on,,,,,4,0,3,,,,,2,,,76,108
5088,note_on,,,,,4,0,1,,,,,0,,,76,75
5180,note_off,,,,,188,0,5,,,,,4,,,68,0
5180,note_off,,,,,92,0,2,,,,,1,,,76,0
5180,note_off,,,,,188,0,8,,,,,7,,,53,0
5180,note_off,,,,,92,0,1,,,,,0,,,76,0
5180,note_off,,,,,188,0,6,,,,,5,,,53,0
5180,note_off,,,,,92,0,3,,,,,2,,,76,0
5180,note_off,,,,,188,0,7,,,,,6,,,41,0
5180,note_off,,,,,188,0,4,,,,,3,,,74,0
5184,note_on,,,,,4,0,2,,,,,1,,,77,75
5184,note_on,,,,,4,0,3,,,,,2,,,77,108
5184,note_on,,,,,4,0,1,,,,,0,,,77,75
5184,note_on,,,,,4,0,7,,,,,6,,,50,75
5184,note_on,,,,,4,0,4,,,,,3,,,71,108
5184,note_on,,,,,4,0,5,,,,,4,,,62,92
5184,note_on,,,,,4,0,6,,,,,5,,,62,92
5184,note_on,,,,,4,0,8,,,,,7,,,62,45
5276,note_off,,,,,92,0,2,,,,,1,,,77,0
5276,note_off,,,,,92,0,3,,,,,2,,,77,0
5276,note_off,,,,,92,0,1,,,,,0,,,77,0
5280,note_on,,,,,4,0,3,,,,,2,,,76,108
5280,note_on,,,,,4,0,2,,,,,1,,,76,75
5280,note_on,,,,,4,0,1,,,,,0,,,76,75
5372,note_off,,,,,188,0,4,,,,,3,,,71,0
5372,note_off,,,,,188,0,8,,,,,7,,,62,0
5372,note_off,,,,,92,0,3,,,,,2,,,76,0
5372,note_off,,,,,188,0,7,,,,,6,,,50,0
5372,note_off,,,,,188,0,6,,,,,5,,,62,0
5372,note_off,,,,,92,0,1,,,,,0,,,76,0
5372,note_off,,,,,92,0,2,,,,,1,,,76,0
5376,note_on,,,,,4,0,8,,,,,7,,,60,45
5376,note_on,,,,,4,0,3,,,,,2,,,77,108
5376,note_on,,,,,4,0,7,,,,,6,,,48,75
5376,note_on,,,,,4,0,4,,,,,3,,,72,108
5376,note_on,,,,,4,0,6,,,,,5,,,60,92
5376,note_on,,,,,4,0,2,,,,,1,,,77,75
5376,note_on,,,,,4,0,1,,,,,0,,,77,75
5468,note_off,,,,,92,0,3,,,,,2,,,77,0
5468,note_off,,,,,92,0,1,,,,,0,,,77,0
5468,note_off,,,,,92,0,2,,,,,1,,,77,0
5472,note_on,,,,,4,0,1,,,,,0,,,80,75
5472,note_on,,,,,4,0,3,,,,,2,,,80,108
5472,note_on,,,,,4,0,2,,,,,1,,,80,75
5504,note_off,,,,,320,0,5,,,,,4,,,62,0
5564,note_off,,,,,188,0,6,,,,,5,,,60,0
5564,note_off,,,,,92,0,2,,,,,1,,,80,0
5564,note_off,,,,,188,0,7,,,,,6,,,48,0
5564,note_off,,,,,188,0,4,,,,,3,,,72,0
5564,note_off,,,,,188,0,8,,,,,7,,,60,0
5564,note_off,,,,,92,0,3,,,,,2,,,80,0
5564,note_off,,,,,92,0,1,,,,,0,,,80,0
5568,note_on,,,,,4,0,3,,,,,2,,,79,108
5568,note_on,,,,,4,0,7,,,,,6,,,47,75
5568,note_on,,,,,4,0,2,,,,,1,,,79,75
5568,note_on,,,,,4,0,1,,,,,0,,,79,75
5568,note_on,,,,,64,0,5,,,,,4,,,67,92
5568,note_on,,,,,4,0,4,,,,,3,,,74,108
5568,note_on,,,,,4,0,8,,,,,7,,,59,45
5568,note_on,,,,,4,0,6,,,,,5,,,59,92
5756,note_off,,,,,188,0,1,,,,,0,,,79,0
5756,note_off,,,,,188,0,2,,,,,1,,,79,0
5756,note_off,,,,,188,0,7,,,,,6,,,47,0
5756,note_off,,,,,188,0,4,,,,,3,,,74,0
5756,note_off,,,,,188,0,8,,,,,7,,,59,0
5756,note_off,,,,,188,0,3,,,,,2,,,79,0
5756,note_off,,,,,188,0,6,,,,,5,,,59,0
5756,note_off,,,,,188,0,5,,,,,4,,,67,0
5760,note_on,,,,,4,0,4,,,,,3,,,72,108
5760,note_on,,,,,4,0,2,,,,,1,,,77,75
5760,note_on,,,,,4,0,1,,,,,0,,,77,75
5760,note_on,,,,,4,0,7,,,,,6,,,48,75
5760,note_on,,,,,4,0,3,,,,,2,,,77,108
5760,note_on,,,,,4,0,8,,,,,7,,,60,45
5760,note_on,,,,,4,0,5,,,,,4,,,67,92
5760,note_on,,,,,4,0,6,,,,,5,,,60,92
5852,note_off,,,,,92,0,3,,,,,2,,,77,0
5852,note_off,,,,,92,0,2,,,,,1,,,77,0
5852,note_off,,,,,92,0,1,,,,,0,,,77,0
5856,note_on,,,,,4,0,3,,,,,2,,,75,108
5856,note_on,,,,,4,0,1,,,,,0,,,75,75
5856,note_on,,,,,4,0,2,,,,,1,,,75,75
5948,note_off,,,,,188,0,8,,,,,7,,,60,0
5948,note_off,,,,,188,0,4,,,,,3,,,72,0
5948,note_off,,,,,188,0,5,,,,,4,,,67,0
5948,note_off,,,,,188,0,7,,,,,6,,,48,0
5948,note_off,,,,,188,0,6,,,,,5,,,60,0
5948,note_off,,,,,92,0,1,,,,,0,,,75,0
5948,note_off,,,,,92,0,3,,,,,2,,,75,0
5948,note_off,,,,,92,0,2,,,,,1,,,75,0
5952,note_on,,,,,4,0,5,,,,,4,,,67,92
5952,note_on,,,,,4,0,6,,,,,5,,,55,92
5952,set_tempo,,,,,5952,1,0,,1714285,,,,,,,
5952,note_on,,,,,4,0,7,,,,,6,,,43,75
5952,note_on,,,,,4,0,8,,,,,7,,,55,45
5952,note_on,,,,,4,0,1,,,,,0,,,75,75
5952,note_on,,,,,4,0,2,,,,,1,,,75,75
5952,note_on,,,,,4,0,4,,,,,3,,,72,108
5952,note_on,,,,,4,0,3,,,,,2,,,75,108
5976,note_off,,,,,24,0,1,,,,,0,,,75,0
5976,note_on,,,,,0,0,1,,,,,0,,,74,75
5976,note_off,,,,,24,0,2,,,,,1,,,75,0
5976,note_on,,,,,0,0,2,,,,,1,,,74,75
5976,note_off,,,,,24,0,3,,,,,2,,,75,0
5976,note_on,,,,,0,0,3,,,,,2,,,74,108
6000,note_off,,,,,24,0,1,,,,,0,,,74,0
6000,note_on,,,,,0,0,1,,,,,0,,,75,75
6000,note_on,,,,,0,0,2,,,,,1,,,75,75
6000,note_off,,,,,24,0,2,,,,,1,,,74,0
6000,note_off,,,,,24,0,3,,,,,2,,,74,0
6000,note_on,,,,,0,0,3,,,,,2,,,75,108
6024,note_off,,,,,24,0,2,,,,,1,,,75,0
6024,note_on,,,,,0,0,2,,,,,1,,,74,75
6024,set_tempo,,,,,72,1,0,,1333333,,,,,,,
6024,note_off,,,,,24,0,3,,,,,2,,,75,0
6024,note_on,,,,,0,0,3,,,,,2,,,74,108
6024,note_off,,,,,24,0,1,,,,,0,,,75,0
6024,note_on,,,,,0,0,1,,,,,0,,,74,75
6048,note_off,,,,,24,0,1,,,,,0,,,74,0
6048,note_on,,,,,0,0,2,,,,,1,,,75,75
6048,note_off,,,,,24,0,3,,,,,2,,,74,0
6048,note_on,,,,,0,0,3,,,,,2,,,75,108
6048,note_on,,,,,0,0,1,,,,,0,,,75,75
6048,note_off,,,,,24,0,2,,,,,1,,,74,0
6072,note_off,,,,,24,0,2,,,,,1,,,75,0
6072,note_off,,,,,24,0,3,,,,,2,,,75,0
6072,note_on,,,,,0,0,3,,,,,2,,,74,108
6072,note_on,,,,,0,0,2,,,,,1,,,74,75
6072,note_on,,,,,0,0,1,,,,,0,,,74,75
6072,note_off,,,,,24,0,1,,,,,0,,,75,0
6096,note_on,,,,,0,0,1,,,,,0,,,75,75
6096,note_off,,,,,24,0,1,,,,,0,,,74,0
6096,note_off,,,,,24,0,2,,,,,1,,,74,0
6096,note_off,,,,,24,0,3,,,,,2,,,74,0
6096,note_on,,,,,0,0,3,,,,,2,,,75,108
6096,note_on,,,,,0,0,2,,,,,1,,,75,75
6120,note_on,,,,,0,0,3,,,,,2,,,74,108
6120,note_off,,,,,24,0,2,,,,,1,,,75,0
6120,set_tempo,,,,,96,1,0,,1500000,,,,,,,
6120,note_off,,,,,24,0,1,,,,,0,,,75,0
6120,note_on,,,,,0,0,1,,,,,0,,,74,75
6120,note_on,,,,,0,0,2,,,,,1,,,74,75
6120,note_off,,,,,24,0,3,,,,,2,,,75,0
6140,note_off,,,,,188,0,4,,,,,3,,,72,0
6140,note_off,,,,,188,0,8,,,,,7,,,55,0
6140,note_off,,,,,188,0,5,,,,,4,,,67,0
6140,note_off,,,,,188,0,7,,,,,6,,,43,0
6140,note_off,,,,,188,0,6,,,,,5,,,55,0
6144,note_on,,,,,4,0,8,,,,,7,,,43,45
6144,note_on,,,,,4,0,5,,,,,4,,,62,92
6144,note_off,,,,,24,0,3,,,,,2,,,74,0
6144,note_on,,,,,0,0,3,,,,,2,,,75,108
6144,note_on,,,,,4,0,6,,,,,5,,,43,92
6144,note_on,,,,,4,0,4,,,,,3,,,71,108
6144,note_off,,,,,24,0,2,,,,,1,,,74,0
6144,note_on,,,,,4,0,7,,,,,6,,,31,75
6144,note_on,,,,,0,0,1,,,,,0,,,75,75
6144,note_off,,,,,24,0,1,,,,,0,,,74,0
6144,note_on,,,,,0,0,2,,,,,1,,,75,75
6168,note_off,,,,,24,0,1,,,,,0,,,75,0
6168,note_on,,,,,0,0,2,,,,,1,,,74,75
6168,note_off,,,,,24,0,3,,,,,2,,,75,0
6168,note_on,,,,,0,0,1,,,,,0,,,74,75
6168,note_on,,,,,0,0,3,,,,,2,,,74,108
6168,note_off,,,,,24,0,2,,,,,1,,,75,0
6236,note_off,,,,,68,0,1,,,,,0,,,74,0
6236,note_off,,,,,68,0,2,,,,,1,,,74,0
6236,note_off,,,,,68,0,3,,,,,2,,,74,0
6240,note_on,,,,,4,0,3,,,,,2,,,72,108
6240,note_on,,,,,4,0,1,,,,,0,,,72,75
6240,note_on,,,,,4,0,2,,,,,1,,,72,75
6332,note_off,,,,,188,0,5,,,,,4,,,62,0
6332,note_off,,,,,92,0,1,,,,,0,,,72,0
6332,note_off,,,,,92,0,3,,,,,2,,,72,0
6332,note_off,,,,,188,0,8,,,,,7,,,43,0
6332,note_off,,,,,92,0,2,,,,,1,,,72,0
6332,note_off,,,,,188,0,7,,,,,6,,,31,0
6332,note_off,,,,,188,0,4,,,,,3,,,71,0
6332,note_off,,,,,188,0,6,,,,,5,,,43,0
6336,note_on,,,,,4,0,5,,,,,4,,,63,92
6336,note_on,,,,,4,0,3,,,,,2,,,72,108
6336,note_on,,,,,4,0,6,,,,,5,,,48,92
6336,note_on,,,,,4,0,8,,,,,7,,,48,45
6336,note_on,,,,,4,0,1,,,,,0,,,72,75
6336,set_tempo,,,,,216,1,0,,1500000,,,,,,,
6336,note_on,,,,,4,0,4,,,,,3,,,72,108
6336,note_on,,,,,4,0,2,,,,,1,,,72,75
6336,note_on,,,,,4,0,7,,,,,6,,,36,75
6848,note_off,,,,,512,0,8,,,,,7,,,48,0
6848,note_off,,,,,512,0,3,,,,,2,,,72,0
6848,note_off,,,,,512,0,7,,,,,6,,,36,0
6848,note_off,,,,,512,0,6,,,,,5,,,48,0
6848,note_off,,,,,512,0,4,,,,,3,,,72,0
6848,note_off,,,,,512,0,1,,,,,0,,,72,0
6848,note_off,,,,,512,0,2,,,,,1,,,72,0
6848,note_off,,,,,512,0,5,,,,,4,,,63,0
6912,note_on,,,,,64,0,4,,,,,3,,,60,45
6912,note_on,,,,,64,0,1,,,,,0,,,68,30
6912,set_tempo,,,,,576,1,0,,1500000,,,,,,,
6912,note_on,,,,,64,0,3,,,,,2,,,68,45
6912,note_on,,,,,64,0,6,,,,,5,,,53,45
6912,note_on,,,,,64,0,8,,,,,7,,,53,45
6912,note_on,,,,,64,0,2,,,,,1,,,68,30
6912,note_on,,,,,64,0,5,,,,,4,,,53,45
7052,note_off,,,,,140,0,3,,,,,2,,,68,0
7052,note_off,,,,,140,0,2,,,,,1,,,68,0
7052,note_off,,,,,140,0,1,,,,,0,,,68,0
7056,note_on,,,,,4,0,2,,,,,1,,,70,30
7056,note_on,,,,,4,0,1,,,,,0,,,70,30
7056,note_on,,,,,4,0,3,,,,,2,,,70,45
7100,note_off,,,,,44,0,2,,,,,1,,,70,0
7100,note_off,,,,,188,0,6,,,,,5,,,53,0
7100,note_off,,,,,188,0,5,,,,,4,,,53,0
7100,note_off,,,,,44,0,1,,,,,0,,,70,0
7100,note_off,,,,,188,0,8,,,,,7,,,53,0
7100,note_off,,,,,188,0,4,,,,,3,,,60,0
7100,note_off,,,,,44,0,3,,,,,2,,,70,0
7104,note_on,,,,,4,0,1,,,,,0,,,72,30
7104,note_on,,,,,4,0,8,,,,,7,,,56,45
7104,note_on,,,,,4,0,4,,,,,3,,,65,45
7104,note_on,,,,,4,0,6,,,,,5,,,56,45
7104,note_on,,,,,4,0,3,,,,,2,,,72,45
7104,note_on,,,,,4,0,2,,,,,1,,,72,30
7104,note_on,,,,,4,0,5,,,,,4,,,56,45
7292,note_off,,,,,188,0,1,,,,,0,,,72,0
7292,note_off,,,,,188,0,2,,,,,1,,,72,0
7292,note_off,,,,,188,0,4,,,,,3,,,65,0
7292,note_off,,,,,188,0,3,,,,,2,,,72,0
7292,note_off,,,,,188,0,5,,,,,4,,,56,0
7292,note_off,,,,,188,0,6,,,,,5,,,56,0
7292,note_off,,,,,188,0,8,,,,,7,,,56,0
7296,note_on,,,,,4,0,8,,,,,7,,,60,45
7296,note_on,,,,,4,0,2,,,,,1,,,64,30
7296,note_on,,,,,4,0,5,,,,,4,,,60,45
7296,note_on,,,,,4,0,6,,,,,5,,,60,45
7296,note_on,,,,,4,0,1,,,,,0,,,64,30
7296,note_on,,,,,4,0,4,,,,,3,,,64,45
7296,note_on,,,,,4,0,3,,,,,2,,,64,45
7484,note_off,,,,,188,0,1,,,,,0,,,64,0
7484,note_off,,,,,188,0,2,,,,,1,,,64,0
7484,note_off,,,,,188,0,5,,,,,4,,,60,0
7484,note_off,,,,,188,0,4,,,,,3,,,64,0
7484,note_off,,,,,188,0,3,,,,,2,,,64,0
7484,note_off,,,,,188,0,6,,,,,5,,,60,0
7484,note_off,,,,,188,0,8,,,,,7,,,60,0
7488,note_on,,,,,4,0,6,,,,,5,,,56,45
7488,note_on,,,,,4,0,4,,,,,3,,,60,45
7488,note_on,,,,,4,0,8,,,,,7,,,56,45
7488,note_on,,,,,4,0,2,,,,,1,,,65,30
7488,note_on,,,,,4,0,5,,,,,4,,,56,45
7488,note_on,,,,,4,0,1,,,,,0,,,65,30
7488,note_on,,,,,4,0,3,,,,,2,,,65,45
7676,note_off,,,,,188,0,3,,,,,2,,,65,0
7676,note_off,,,,,188,0,2,,,,,1,,,65,0
7676,note_off,,,,,188,0,1,,,,,0,,,65,0
7676,note_off,,,,,188,0,5,,,,,4,,,56,0
7676,note_off,,,,,188,0,8,,,,,7,,,56,0
7676,note_off,,,,,188,0,6,,,,,5,,,56,0
7680,note_on,,,,,4,0,1,,,,,0,,,80,30
7680,note_on,,,,,4,0,3,,,,,2,,,80,45
7680,note_on,,,,,4,0,6,,,,,5,,,65,45
7680,note_on,,,,,4,0,5,,,,,4,,,65,45
7680,note_on,,,,,4,0,8,,,,,7,,,65,45
7680,note_on,,,,,4,0,2,,,,,1,,,80,30
7808,note_off,,,,,320,0,4,,,,,3,,,60,0
7820,note_off,,,,,140,0,3,,,,,2,,,80,0
7820,note_off,,,,,140,0,2,,,,,1,,,80,0
7820,note_off,,,,,140,0,1,,,,,0,,,80,0
7824,note_on,,,,,4,0,2,,,,,1,,,82,30
7824,note_on,,,,,4,0,3,,,,,2,,,82,45
7824,note_on,,,,,4,0,1,,,,,0,,,82,30
7868,note_off,,,,,44,0,1,,,,,0,,,82,0
7868,note_off,,,,,188,0,6,,,,,5,,,65,0
7868,note_off,,,,,44,0,3,,,,,2,,,82,0
7868,note_off,,,,,188,0,8,,,,,7,,,65,0
7868,note_off,,,,,44,0,2,,,,,1,,,82,0
7868,note_off,,,,,188,0,5,,,,,4,,,65,0
7872,note_on,,,,,4,0,1,,,,,0,,,84,30
7872,note_on,,,,,4,0,5,,,,,4,,,63,45
7872,note_on,,,,,4,0,6,,,,,5,,,63,45
7872,note_on,,,,,4,0,3,,,,,2,,,84,45
7872,note_on,,,,,4,0,8,,,,,7,,,63,45
7872,note_on,,,,,4,0,2,,,,,1,,,84,30
7872,note_on,,,,,64,0,4,,,,,3,,,67,45
8060,note_off,,,,,188,0,8,,,,,7,,,63,0
8060,note_off,,,,,188,0,6,,,,,5,,,63,0
8060,note_off,,,,,188,0,5,,,,,4,,,63,0
8060,note_off,,,,,188,0,2,,,,,1,,,84,0
8060,note_off,,,,,188,0,1,,,,,0,,,84,0
8060,note_off,,,,,188,0,3,,,,,2,,,84,0
8060,note_off,,,,,188,0,4,,,,,3,,,67,0
8064,note_on,,,,,4,0,3,,,,,2,,,77,45
8064,note_on,,,,,4,0,8,,,,,7,,,61,45
8064,note_on,,,,,4,0,5,,,,,4,,,61,45
8064,note_on,,,,,4,0,1,,,,,0,,,77,30
8064,note_on,,,,,4,0,2,,,,,1,,,77,30
8064,note_on,,,,,4,0,4,,,,,3,,,68,45
8064,note_on,,,,,4,0,6,,,,,5,,,61,45
8204,note_off,,,,,140,0,4,,,,,3,,,68,0
8208,note_on,,,,,4,0,4,,,,,3,,,70,45
8252,note_off,,,,,188,0,1,,,,,0,,,77,0
8252,note_off,,,,,188,0,2,,,,,1,,,77,0
8252,note_off,,,,,44,0,4,,,,,3,,,70,0
8252,note_off,,,,,188,0,3,,,,,2,,,77,0
8252,note_off,,,,,188,0,5,,,,,4,,,61,0
8252,note_off,,,,,188,0,6,,,,,5,,,61,0
8252,note_off,,,,,188,0,8,,,,,7,,,61,0
8256,note_on,,,,,4,0,3,,,,,2,,,79,45
8256,note_on,,,,,4,0,1,,,,,0,,,79,30
8256,note_on,,,,,4,0,6,,,,,5,,,60,45
8256,note_on,,,,,4,0,8,,,,,7,,,60,45
8256,note_on,,,,,4,0,4,,,,,3,,,72,45
8256,note_on,,,,,4,0,2,,,,,1,,,79,30
8256,note_on,,,,,4,0,5,,,,,4,,,60,45
8396,note_off,,,,,140,0,3,,,,,2,,,79,0
8396,note_off,,,,,140,0,2,,,,,1,,,79,0
8396,note_off,,,,,140,0,1,,,,,0,,,79,0
8400,note_on,,,,,4,0,2,,,,,1,,,80,30
8400,note_on,,,,,4,0,1,,,,,0,,,80,30
8400,note_on,,,,,4,0,3,,,,,2,,,80,45
8444,note_off,,,,,44,0,2,,,,,1,,,80,0
8444,note_off,,,,,44,0,3,,,,,2,,,80,0
8444,note_off,,,,,188,0,5,,,,,4,,,60,0
8444,note_off,,,,,44,0,1,,,,,0,,,80,0
8444,note_off,,,,,188,0,6,,,,,5,,,60,0
8444,note_off,,,,,188,0,8,,,,,7,,,60,0
8444,note_off,,,,,188,0,4,,,,,3,,,72,0
8448,note_on,,,,,4,0,6,,,,,5,,,58,45
8448,note_on,,,,,4,0,5,,,,,4,,,58,45
8448,note_on,,,,,4,0,3,,,,,2,,,82,45
8448,note_on,,,,,4,0,8,,,,,7,,,58,45
8448,note_on,,,,,4,0,4,,,,,3,,,73,45
8448,note_on,,,,,4,0,1,,,,,0,,,82,30
8448,note_on,,,,,4,0,2,,,,,1,,,82,30
8636,note_off,,,,,188,0,5,,,,,4,,,58,0
8636,note_off,,,,,188,0,3,,,,,2,,,82,0
8636,note_off,,,,,188,0,6,,,,,5,,,58,0
8636,note_off,,,,,188,0,4,,,,,3,,,73,0
8636,note_off,,,,,188,0,1,,,,,0,,,82,0
8636,note_off,,,,,188,0,2,,,,,1,,,82,0
8636,note_off,,,,,188,0,8,,,,,7,,,58,0
8640,note_on,,,,,4,0,8,,,,,7,,,60,45
8640,note_on,,,,,4,0,5,,,,,4,,,60,45
8640,note_on,,,,,4,0,3,,,,,2,,,76,45
8640,note_on,,,,,4,0,2,,,,,1,,,76,30
8640,note_on,,,,,4,0,4,,,,,3,,,67,45
8640,note_on,,,,,4,0,1,,,,,0,,,76,30
8640,note_on,,,,,4,0,6,,,,,5,,,60,45
8828,note_off,,,,,188,0,3,,,,,2,,,76,0
8828,note_off,,,,,188,0,2,,,,,1,,,76,0
8828,note_off,,,,,188,0,1,,,,,0,,,76,0
8832,note_on,,,,,4,0,1,,,,,0,,,74,30
8832,note_on,,,,,4,0,3,,,,,2,,,74,45
8832,note_on,,,,,4,0,2,,,,,1,,,74,30
8924,note_off,,,,,92,0,1,,,,,0,,,74,0
8924,note_off,,,,,92,0,3,,,,,2,,,74,0
8924,note_off,,,,,92,0,2,,,,,1,,,74,0
8928,note_on,,,,,4,0,3,,,,,2,,,76,45
8928,note_on,,,,,4,0,2,,,,,1,,,76,30
8928,note_on,,,,,4,0,1,,,,,0,,,76,30
8960,note_off,,,,,320,0,8,,,,,7,,,60,0
8960,note_off,,,,,320,0,5,,,,,4,,,60,0
8960,note_off,,,,,320,0,6,,,,,5,,,60,0
9020,note_off,,,,,92,0,3,,,,,2,,,76,0
9020,note_off,,,,,92,0,2,,,,,1,,,76,0
9020,note_off,,,,,92,0,1,,,,,0,,,76,0
9024,note_on,,,,,4,0,2,,,,,1,,,72,30
9024,note_on,,,,,4,0,3,,,,,2,,,72,45
9024,note_on,,,,,64,0,5,,,,,4,,,64,45
9024,note_on,,,,,64,0,8,,,,,7,,,64,45
9024,note_on,,,,,64,0,6,,,,,5,,,64,45
9024,note_on,,,,,4,0,1,,,,,0,,,72,30
9152,note_off,,,,,512,0,4,,,,,3,,,67,0
9212,note_off,,,,,188,0,1,,,,,0,,,72,0
9212,note_off,,,,,188,0,6,,,,,5,,,64,0
9212,note_off,,,,,188,0,3,,,,,2,,,72,0
9212,note_off,,,,,188,0,2,,,,,1,,,72,0
9212,note_off,,,,,188,0,8,,,,,7,,,64,0
9212,note_off,,,,,188,0,5,,,,,4,,,64,0
9216,note_on,,,,,4,0,2,,,,,1,,,73,75
9216,note_on,,,,,4,0,1,,,,,0,,,73,75
9216,note_on,,,,,4,0,5,,,,,4,,,65,127
9216,note_on,,,,,2368,0,7,,,,,6,,,41,105
9216,note_on,,,,,4,0,3,,,,,2,,,73,127
9216,note_on,,,,,64,0,4,,,,,3,,,68,127
9216,note_on,,,,,4,0,8,,,,,7,,,53,45
9216,note_on,,,,,4,0,6,,,,,5,,,53,127
9404,note_off,,,,,188,0,3,,,,,2,,,73,0
9404,note_off,,,,,188,0,2,,,,,1,,,73,0
9404,note_off,,,,,188,0,4,,,,,3,,,68,0
9404,note_off,,,,,188,0,5,,,,,4,,,65,0
9404,note_off,,,,,188,0,7,,,,,6,,,41,0
9404,note_off,,,,,188,0,6,,,,,5,,,53,0
9404,note_off,,,,,188,0,8,,,,,7,,,53,0
9404,note_off,,,,,188,0,1,,,,,0,,,73,0
9408,note_on,,,,,4,0,2,,,,,1,,,72,75
9408,note_on,,,,,4,0,6,,,,,5,,,51,127
9408,note_on,,,,,4,0,3,,,,,2,,,72,127
9408,note_on,,,,,4,0,7,,,,,6,,,39,105
9408,note_on,,,,,4,0,5,,,,,4,,,60,127
9408,note_on,,,,,4,0,4,,,,,3,,,67,127
9408,note_on,,,,,4,0,1,,,,,0,,,72,75
9408,note_on,,,,,4,0,8,,,,,7,,,51,45
9596,note_off,,,,,188,0,3,,,,,2,,,72,0
9596,note_off,,,,,188,0,2,,,,,1,,,72,0
9596,note_off,,,,,188,0,4,,,,,3,,,67,0
9596,note_off,,,,,188,0,1,,,,,0,,,72,0
9596,note_off,,,,,188,0,6,,,,,5,,,51,0
9596,note_off,,,,,188,0,7,,,,,6,,,39,0
9596,note_off,,,,,188,0,5,,,,,4,,,60,0
9596,note_off,,,,,188,0,8,,,,,7,,,51,0
9792,note_on,,,,,196,0,8,,,,,7,,,49,45
9792,note_on,,,,,196,0,4,,,,,3,,,65,127
9792,note_on,,,,,196,0,1,,,,,0,,,70,75
9792,note_on,,,,,196,0,2,,,,,1,,,70,75
9792,note_on,,,,,196,0,3,,,,,2,,,70,127
9792,note_on,,,,,196,0,6,,,,,5,,,49,127
9792,note_on,,,,,196,0,5,,,,,4,,,65,127
9792,note_on,,,,,196,0,7,,,,,6,,,37,105
9980,note_off,,,,,188,0,4,,,,,3,,,65,0
9980,note_off,,,,,188,0,1,,,,,0,,,70,0
9980,note_off,,,,,188,0,2,,,,,1,,,70,0
9980,note_off,,,,,188,0,6,,,,,5,,,49,0
9980,note_off,,,,,188,0,5,,,,,4,,,65,0
9980,note_off,,,,,188,0,7,,,,,6,,,37,0
9980,note_off,,,,,188,0,8,,,,,7,,,49,0
9980,note_off,,,,,188,0,3,,,,,2,,,70,0
9984,note_on,,,,,4,0,1,,,,,0,,,68,75
9984,note_on,,,,,4,0,2,,,,,1,,,68,75
9984,note_on,,,,,4,0,8,,,,,7,,,48,45
9984,note_on,,,,,4,0,3,,,,,2,,,68,127
9984,note_on,,,,,4,0,4,,,,,3,,,63,127
9984,note_on,,,,,4,0,6,,,,,5,,,48,127
9984,note_on,,,,,4,0,7,,,,,6,,,36,105
9984,note_on,,,,,4,0,5,,,,,4,,,56,127
10172,note_off,,,,,188,0,8,,,,,7,,,48,0
10172,note_off,,,,,188,0,3,,,,,2,,,68,0
10172,note_off,,,,,188,0,6,,,,,5,,,48,0
10172,note_off,,,,,188,0,1,,,,,0,,,68,0
10172,note_off,,,,,188,0,7,,,,,6,,,36,0
10172,note_off,,,,,188,0,5,,,,,4,,,56,0
10172,note_off,,,,,188,0,2,,,,,1,,,68,0
10172,note_off,,,,,188,0,4,,,,,3,,,63,0
10368,note_on,,,,,196,0,6,,,,,5,,,46,92
10368,note_on,,,,,196,0,1,,,,,0,,,67,75
10368,note_on,,,,,196,0,5,,,,,4,,,58,92
10368,note_on,,,,,196,0,2,,,,,1,,,67,75
10368,note_on,,,,,196,0,3,,,,,2,,,67,108
10368,note_on,,,,,196,0,7,,,,,6,,,34,75
10368,note_on,,,,,196,0,8,,,,,7,,,46,45
10368,note_on,,,,,196,0,4,,,,,3,,,61,108
10556,note_off,,,,,188,0,2,,,,,1,,,67,0
10556,note_off,,,,,188,0,7,,,,,6,,,34,0
10556,note_off,,,,,188,0,8,,,,,7,,,46,0
10556,note_off,,,,,188,0,3,,,,,2,,,67,0
10556,note_off,,,,,188,0,5,,,,,4,,,58,0
10556,note_off,,,,,188,0,4,,,,,3,,,61,0
10556,note_off,,,,,188,0,6,,,,,5,,,46,0
10556,note_off,,,,,188,0,1,,,,,0,,,67,0
10560,note_on,,,,,4,0,7,,,,,6,,,29,75
10560,note_on,,,,,4,0,6,,,,,5,,,41,92
10560,note_on,,,,,4,0,1,,,,,0,,,68,75
10560,note_on,,,,,4,0,2,,,,,1,,,68,75
10560,note_on,,,,,4,0,8,,,,,7,,,41,45
10560,note_on,,,,,4,0,3,,,,,2,,,68,108
10560,note_on,,,,,4,0,5,,,,,4,,,60,92
10560,note_on,,,,,4,0,4,,,,,3,,,60,108
10748,note_off,,,,,188,0,4,,,,,3,,,60,0
10748,note_off,,,,,188,0,6,,,,,5,,,41,0
10748,note_off,,,,,188,0,1,,,,,0,,,68,0
10748,note_off,,,,,188,0,8,,,,,7,,,41,0
10748,note_off,,,,,188,0,3,,,,,2,,,68,0
10748,note_off,,,,,188,0,5,,,,,4,,,60,0
10748,note_off,,,,,188,0,7,,,,,6,,,29,0
10748,note_off,,,,,188,0,2,,,,,1,,,68,0
10752,note_on,,,,,4,0,3,,,,,2,,,65,108
10752,note_on,,,,,4,0,8,,,,,7,,,49,45
10752,note_on,,,,,4,0,1,,,,,0,,,65,75
10752,note_on,,,,,4,0,2,,,,,1,,,65,75
10752,note_on,,,,,4,0,4,,,,,3,,,65,108
10752,note_on,,,,,4,0,7,,,,,6,,,37,75
10752,note_on,,,,,4,0,5,,,,,4,,,58,92
10752,note_on,,,,,4,0,6,,,,,5,,,49,92
10940,note_off,,,,,188,0,5,,,,,4,,,58,0
10940,note_off,,,,,188,0,8,,,,,7,,,49,0
10940,note_off,,,,,188,0,2,,,,,1,,,65,0
10940,note_off,,,,,188,0,4,,,,,3,,,65,0
10940,note_off,,,,,188,0,3,,,,,2,,,65,0
10940,note_off,,,,,188,0,7,,,,,6,,,37,0
10940,note_off,,,,,188,0,6,,,,,5,,,49,0
10940,note_off,,,,,188,0,1,,,,,0,,,65,0
10944,note_on,,,,,4,0,7,,,,,6,,,36,75
10944,note_on,,,,,4,0,4,,,,,3,,,64,108
10944,note_on,,,,,4,0,5,,,,,4,,,67,92
10944,note_on,,,,,4,0,3,,,,,2,,,72,108
10944,note_on,,,,,4,0,1,,,,,0,,,72,75
10944,note_on,,,,,4,0,6,,,,,5,,,48,92
10944,note_on,,,,,4,0,8,,,,,7,,,48,45
10944,note_on,,,,,4,0,2,,,,,1,,,72,75
11036,note_off,,,,,92,0,3,,,,,2,,,72,0
11036,note_off,,,,,92,0,1,,,,,0,,,72,0
11036,note_off,,,,,92,0,2,,,,,1,,,72,0
11040,note_on,,,,,4,0,3,,,,,2,,,74,108
11040,note_on,,,,,4,0,2,,,,,1,,,74,75
11040,note_on,,,,,4,0,1,,,,,0,,,74,75
11132,note_off,,,,,92,0,3,,,,,2,,,74,0
11132,note_off,,,,,188,0,4,,,,,3,,,64,0
11132,note_off,,,,,188,0,5,,,,,4,,,67,0
11132,note_off,,,,,92,0,2,,,,,1,,,74,0
11132,note_off,,,,,188,0,6,,,,,5,,,48,0
11132,note_off,,,,,92,0,1,,,,,0,,,74,0
11132,note_off,,,,,188,0,7,,,,,6,,,36,0
11132,note_off,,,,,188,0,8,,,,,7,,,48,0
11136,note_on,,,,,4,0,1,,,,,0,,,76,75
11136,note_on,,,,,4,0,3,,,,,2,,,76,108
11136,note_on,,,,,4,0,5,,,,,4,,,60,92
11136,note_on,,,,,4,0,8,,,,,7,,,60,45
11136,note_on,,,,,4,0,4,,,,,3,,,67,108
11136,note_on,,,,,4,0,2,,,,,1,,,76,75
11136,note_on,,,,,4,0,6,,,,,5,,,60,92
11136,note_on,,,,,4,0,7,,,,,6,,,48,75
11228,note_off,,,,,92,0,1,,,,,0,,,76,0
11228,note_off,,,,,92,0,3,,,,,2,,,76,0
11228,note_off,,,,,92,0,2,,,,,1,,,76,0
11232,note_on,,,,,4,0,1,,,,,0,,,77,75
11232,note_on,,,,,4,0,2,,,,,1,,,77,75
11232,note_on,,,,,4,0,3,,,,,2,,,77,108
11324,note_off,,,,,188,0,5,,,,,4,,,60,0
11324,note_off,,,,,188,0,6,,,,,5,,,60,0
11324,note_off,,,,,92,0,1,,,,,0,,,77,0
11324,note_off,,,,,188,0,4,,,,,3,,,67,0
11324,note_off,,,,,92,0,3,,,,,2,,,77,0
11324,note_off,,,,,188,0,7,,,,,6,,,48,0
11324,note_off,,,,,92,0,2,,,,,1,,,77,0
11324,note_off,,,,,188,0,8,,,,,7,,,60,0
11328,note_on,,,,,4,0,5,,,,,4,,,67,92
11328,note_on,,,,,4,0,8,,,,,7,,,52,45
11328,note_on,,,,,4,0,3,,,,,2,,,79,108
11328,note_on,,,,,4,0,7,,,,,6,,,40,75
11328,note_on,,,,,4,0,6,,,,,5,,,52,92
11328,note_on,,,,,4,0,4,,,,,3,,,72,108
11328,note_on,,,,,4,0,2,,,,,1,,,79,75
11328,note_on,,,,,4,0,1,,,,,0,,,79,75
11420,note_off,,,,,92,0,3,,,,,2,,,79,0
11420,note_off,,,,,92,0,2,,,,,1,,,79,0
11420,note_off,,,,,92,0,1,,,,,0,,,79,0
11424,note_on,,,,,4,0,3,,,,,2,,,72,108
11424,note_on,,,,,4,0,2,,,,,1,,,72,75
11424,note_on,,,,,4,0,1,,,,,0,,,72,75
11516,note_off,,,,,92,0,1,,,,,0,,,72,0
11516,note_off,,,,,188,0,6,,,,,5,,,52,0
11516,note_off,,,,,188,0,4,,,,,3,,,72,0
11516,note_off,,,,,188,0,7,,,,,6,,,40,0
11516,note_off,,,,,188,0,8,,,,,7,,,52,0
11516,note_off,,,,,92,0,3,,,,,2,,,72,0
11516,note_off,,,,,92,0,2,,,,,1,,,72,0
11516,note_off,,,,,188,0,5,,,,,4,,,67,0
11520,note_on,,,,,4,0,8,,,,,7,,,53,45
11520,note_on,,,,,4,0,7,,,,,6,,,41,75
11520,note_on,,,,,4,0,3,,,,,2,,,80,108
11520,note_on,,,,,4,0,2,,,,,1,,,80,75
11520,note_on,,,,,4,0,5,,,,,4,,,65,92
11520,note_on,,,,,4,0,6,,,,,5,,,53,92
11520,note_on,,,,,4,0,4,,,,,3,,,72,108
11520,note_on,,,,,4,0,1,,,,,0,,,80,75
11612,note_off,,,,,92,0,2,,,,,1,,,80,0
11612,note_off,,,,,92,0,3,,,,,2,,,80,0
11612,note_off,,,,,92,0,1,,,,,0,,,80,0
11616,note_on,,,,,4,0,3,,,,,2,,,79,108
11616,note_on,,,,,4,0,2,,,,,1,,,79,75
11616,note_on,,,,,4,0,1,,,,,0,,,79,75
11708,note_off,,,,,92,0,1,,,,,0,,,79,0
11708,note_off,,,,,188,0,6,,,,,5,,,53,0
11708,note_off,,,,,92,0,3,,,,,2,,,79,0
11708,note_off,,,,,188,0,7,,,,,6,,,41,0
11708,note_off,,,,,188,0,8,,,,,7,,,53,0
11708,note_off,,,,,92,0,2,,,,,1,,,79,0
11712,note_on,,,,,4,0,3,,,,,2,,,77,108
11712,note_on,,,,,4,0,1,,,,,0,,,77,75
11712,note_on,,,,,4,0,6,,,,,5,,,56,92
11712,note_on,,,,,4,0,7,,,,,6,,,44,75
11712,note_on,,,,,4,0,8,,,,,7,,,56,45
11712,note_on,,,,,4,0,2,,,,,1,,,77,75
11804,note_off,,,,,92,0,1,,,,,0,,,77,0
11804,note_off,,,,,92,0,3,,,,,2,,,77,0
11804,note_off,,,,,92,0,2,,,,,1,,,77,0
11808,note_on,,,,,4,0,3,,,,,2,,,76,108
11808,note_on,,,,,4,0,2,,,,,1,,,76,75
11808,note_on,,,,,4,0,1,,,,,0,,,76,75
11840,note_off,,,,,320,0,4,,,,,3,,,72,0
11840,note_off,,,,,320,0,5,,,,,4,,,65,0
11900,note_off,,,,,188,0,6,,,,,5,,,56,0
11900,note_off,,,,,92,0,3,,,,,2,,,76,0
11900,note_off,,,,,92,0,2,,,,,1,,,76,0
11900,note_off,,,,,188,0,7,,,,,6,,,44,0
11900,note_off,,,,,188,0,8,,,,,7,,,56,0
11900,note_off,,,,,92,0,1,,,,,0,,,76,0
11904,note_on,,,,,64,0,4,,,,,3,,,74,108
11904,note_on,,,,,4,0,1,,,,,0,,,77,75
11904,note_on,,,,,4,0,8,,,,,7,,,53,45
11904,note_on,,,,,4,0,7,,,,,6,,,41,75
11904,note_on,,,,,64,0,5,,,,,4,,,68,92
11904,note_on,,,,,4,0,2,,,,,1,,,77,75
11904,note_on,,,,,4,0,6,,,,,5,,,53,92
11904,note_on,,,,,4,0,3,,,,,2,,,77,108
11996,note_off,,,,,92,0,3,,,,,2,,,77,0
11996,note_off,,,,,92,0,1,,,,,0,,,77,0
11996,note_off,,,,,92,0,2,,,,,1,,,77,0
12000,note_on,,,,,4,0,3,,,,,2,,,76,108
12000,note_on,,,,,4,0,2,,,,,1,,,76,75
12000,note_on,,,,,4,0,1,,,,,0,,,76,75
12092,note_off,,,,,188,0,5,,,,,4,,,68,0
12092,note_off,,,,,92,0,1,,,,,0,,,76,0
12092,note_off,,,,,188,0,4,,,,,3,,,74,0
12092,note_off,,,,,92,0,3,,,,,2,,,76,0
12092,note_off,,,,,188,0,7,,,,,6,,,41,0
12092,note_off,,,,,92,0,2,,,,,1,,,76,0
12092,note_off,,,,,188,0,6,,,,,5,,,53,0
12092,note_off,,,,,188,0,8,,,,,7,,,53,0
12096,note_on,,,,,4,0,4,,,,,3,,,71,108
12096,note_on,,,,,4,0,3,,,,,2,,,77,108
12096,note_on,,,,,4,0,7,,,,,6,,,50,75
12096,note_on,,,,,4,0,5,,,,,4,,,62,92
12096,note_on,,,,,4,0,2,,,,,1,,,77,75
12096,note_on,,,,,4,0,6,,,,,5,,,62,92
12096,note_on,,,,,4,0,1,,,,,0,,,77,75
12096,note_on,,,,,4,0,8,,,,,7,,,62,45
12188,note_off,,,,,92,0,3,,,,,2,,,77,0
12188,note_off,,,,,92,0,1,,,,,0,,,77,0
12188,note_off,,,,,92,0,2,,,,,1,,,77,0
12192,note_on,,,,,4,0,1,,,,,0,,,76,75
12192,note_on,,,,,4,0,2,,,,,1,,,76,75
12192,note_on,,,,,4,0,3,,,,,2,,,76,108
12284,note_off,,,,,188,0,4,,,,,3,,,71,0
12284,note_off,,,,,92,0,1,,,,,0,,,76,0
12284,note_off,,,,,188,0,8,,,,,7,,,62,0
12284,note_off,,,,,92,0,2,,,,,1,,,76,0
12284,note_off,,,,,188,0,7,,,,,6,,,50,0
12284,note_off,,,,,188,0,6,,,,,5,,,62,0
12284,note_off,,,,,92,0,3,,,,,2,,,76,0
12288,note_on,,,,,4,0,8,,,,,7,,,60,45
12288,note_on,,,,,4,0,2,,,,,1,,,77,75
12288,note_on,,,,,4,0,7,,,,,6,,,48,75
12288,note_on,,,,,4,0,6,,,,,5,,,60,92
12288,note_on,,,,,4,0,3,,,,,2,,,77,108
12288,note_on,,,,,4,0,4,,,,,3,,,72,108
12288,note_on,,,,,4,0,1,,,,,0,,,77,75
12380,note_off,,,,,92,0,2,,,,,1,,,77,0
12380,note_off,,,,,92,0,3,,,,,2,,,77,0
12380,note_off,,,,,92,0,1,,,,,0,,,77,0
12384,note_on,,,,,4,0,3,,,,,2,,,80,108
12384,note_on,,,,,4,0,1,,,,,0,,,80,75
12384,note_on,,,,,4,0,2,,,,,1,,,80,75
12416,note_off,,,,,320,0,5,,,,,4,,,62,0
12476,note_off,,,,,92,0,1,,,,,0,,,80,0
12476,note_off,,,,,188,0,4,,,,,3,,,72,0
12476,note_off,,,,,188,0,8,,,,,7,,,60,0
12476,note_off,,,,,188,0,7,,,,,6,,,48,0
12476,note_off,,,,,92,0,2,,,,,1,,,80,0
12476,note_off,,,,,92,0,3,,,,,2,,,80,0
12476,note_off,,,,,188,0,6,,,,,5,,,60,0
12480,note_on,,,,,4,0,8,,,,,7,,,59,45
12480,note_on,,,,,4,0,2,,,,,1,,,79,75
12480,note_on,,,,,4,0,4,,,,,3,,,74,108
12480,note_on,,,,,4,0,1,,,,,0,,,79,75
12480,note_on,,,,,4,0,3,,,,,2,,,79,108
12480,note_on,,,,,64,0,5,,,,,4,,,67,92
12480,note_on,,,,,4,0,7,,,,,6,,,47,75
12480,note_on,,,,,4,0,6,,,,,5,,,59,92
12668,note_off,,,,,188,0,4,,,,,3,,,74,0
12668,note_off,,,,,188,0,2,,,,,1,,,79,0
12668,note_off,,,,,188,0,3,,,,,2,,,79,0
12668,note_off,,,,,188,0,1,,,,,0,,,79,0
12668,note_off,,,,,188,0,6,,,,,5,,,59,0
12668,note_off,,,,,188,0,5,,,,,4,,,67,0
12668,note_off,,,,,188,0,8,,,,,7,,,59,0
12668,note_off,,,,,188,0,7,,,,,6,,,47,0
12672,note_on,,,,,4,0,2,,,,,1,,,77,75
12672,note_on,,,,,4,0,5,,,,,4,,,67,92
12672,note_on,,,,,4,0,4,,,,,3,,,72,108
12672,note_on,,,,,4,0,1,,,,,0,,,77,75
12672,note_on,,,,,4,0,8,,,,,7,,,60,45
12672,note_on,,,,,4,0,6,,,,,5,,,60,92
12672,note_on,,,,,4,0,3,,,,,2,,,77,108
12672,note_on,,,,,4,0,7,,,,,6,,,48,75
12764,note_off,,,,,92,0,3,,,,,2,,,77,0
12764,note_off,,,,,92,0,1,,,,,0,,,77,0
12764,note_off,,,,,92,0,2,,,,,1,,,77,0
12768,note_on,,,,,4,0,2,,,,,1,,,75,75
12768,note_on,,,,,4,0,1,,,,,0,,,75,75
12768,note_on,,,,,4,0,3,,,,,2,,,75,108
12860,note_off,,,,,92,0,3,,,,,2,,,75,0
12860,note_off,,,,,188,0,8,,,,,7,,,60,0
12860,note_off,,,,,188,0,7,,,,,6,,,48,0
12860,note_off,,,,,188,0,4,,,,,3,,,72,0
12860,note_off,,,,,92,0,2,,,,,1,,,75,0
12860,note_off,,,,,188,0,6,,,,,5,,,60,0
12860,note_off,,,,,188,0,5,,,,,4,,,67,0
12860,note_off,,,,,92,0,1,,,,,0,,,75,0
12864,note_on,,,,,4,0,2,,,,,1,,,75,75
12864,note_on,,,,,4,0,6,,,,,5,,,55,92
12864,note_on,,,,,4,0,4,,,,,3,,,72,108
12864,note_on,,,,,4,0,5,,,,,4,,,67,92
12864,note_on,,,,,4,0,7,,,,,6,,,43,75
12864,set_tempo,,,,,5952,1,0,,1714285,,,,,,,
12864,note_on,,,,,4,0,3,,,,,2,,,75,108
12864,note_on,,,,,4,0,1,,,,,0,,,75,75
12864,note_on,,,,,4,0,8,,,,,7,,,55,45
12888,note_off,,,,,24,0,2,,,,,1,,,75,0
12888,note_off,,,,,24,0,3,,,,,2,,,75,0
12888,note_off,,,,,24,0,1,,,,,0,,,75,0
12888,note_on,,,,,0,0,2,,,,,1,,,74,75
12888,note_on,,,,,0,0,3,,,,,2,,,74,108
12888,note_on,,,,,0,0,1,,,,,0,,,74,75
12912,note_on,,,,,0,0,2,,,,,1,,,75,75
12912,note_off,,,,,24,0,1,,,,,0,,,74,0
12912,note_on,,,,,0,0,1,,,,,0,,,75,75
12912,note_off,,,,,24,0,3,,,,,2,,,74,0
12912,note_on,,,,,0,0,3,,,,,2,,,75,108
12912,note_off,,,,,24,0,2,,,,,1,,,74,0
12936,note_off,,,,,24,0,2,,,,,1,,,75,0
12936,note_on,,,,,0,0,2,,,,,1,,,74,75
12936,note_off,,,,,24,0,1,,,,,0,,,75,0
12936,note_on,,,,,0,0,1,,,,,0,,,74,75
12936,note_off,,,,,24,0,3,,,,,2,,,75,0
12936,note_on,,,,,0,0,3,,,,,2,,,74,108
12936,set_tempo,,,,,72,1,0,,1333333,,,,,,,
12960,note_off,,,,,24,0,1,,,,,0,,,74,0
12960,note_on,,,,,0,0,1,,,,,0,,,75,75
12960,note_on,,,,,0,0,3,,,,,2,,,75,108
12960,note_off,,,,,24,0,3,,,,,2,,,74,0
12960,note_off,,,,,24,0,2,,,,,1,,,74,0
12960,note_on,,,,,0,0,2,,,,,1,,,75,75
12984,note_on,,,,,0,0,3,,,,,2,,,74,108
12984,note_on,,,,,0,0,1,,,,,0,,,74,75
12984,note_off,,,,,24,0,3,,,,,2,,,75,0
12984,note_off,,,,,24,0,2,,,,,1,,,75,0
12984,note_off,,,,,24,0,1,,,,,0,,,75,0
12984,note_on,,,,,0,0,2,,,,,1,,,74,75
13008,note_on,,,,,0,0,1,,,,,0,,,75,75
13008,note_off,,,,,24,0,1,,,,,0,,,74,0
13008,note_on,,,,,0,0,3,,,,,2,,,75,108
13008,note_on,,,,,0,0,2,,,,,1,,,75,75
13008,note_off,,,,,24,0,2,,,,,1,,,74,0
13008,note_off,,,,,24,0,3,,,,,2,,,74,0
13032,note_on,,,,,0,0,3,,,,,2,,,74,108
13032,note_on,,,,,0,0,1,,,,,0,,,74,75
13032,note_on,,,,,0,0,2,,,,,1,,,74,75
13032,note_off,,,,,24,0,1,,,,,0,,,75,0
13032,set_tempo,,,,,96,1,0,,1500000,,,,,,,
13032,note_off,,,,,24,0,2,,,,,1,,,75,0
13032,note_off,,,,,24,0,3,,,,,2,,,75,0
13052,note_off,,,,,188,0,8,,,,,7,,,55,0
13052,note_off,,,,,188,0,5,,,,,4,,,67,0
13052,note_off,,,,,188,0,4,,,,,3,,,72,0
13052,note_off,,,,,188,0,7,,,,,6,,,43,0
13052,note_off,,,,,188,0,6,,,,,5,,,55,0
13056,note_on,,,,,0,0,3,,,,,2,,,75,108
13056,note_off,,,,,24,0,3,,,,,2,,,74,0
13056,note_on,,,,,4,0,6,,,,,5,,,43,92
13056,note_on,,,,,0,0,2,,,,,1,,,75,75
13056,note_off,,,,,24,0,2,,,,,1,,,74,0
13056,note_on,,,,,4,0,8,,,,,7,,,43,45
13056,note_on,,,,,4,0,4,,,,,3,,,71,108
13056,note_on,,,,,0,0,1,,,,,0,,,75,75
13056,note_off,,,,,24,0,1,,,,,0,,,74,0
13056,note_on,,,,,4,0,5,,,,,4,,,62,92
13056,note_on,,,,,4,0,7,,,,,6,,,31,75
13080,note_off,,,,,24,0,2,,,,,1,,,75,0
13080,note_on,,,,,0,0,2,,,,,1,,,74,75
13080,note_off,,,,,24,0,3,,,,,2,,,75,0
13080,note_on,,,,,0,0,3,,,,,2,,,74,108
13080,note_on,,,,,0,0,1,,,,,0,,,74,75
13080,note_off,,,,,24,0,1,,,,,0,,,75,0
13148,note_off,,,,,68,0,1,,,,,0,,,74,0
13148,note_off,,,,,68,0,2,,,,,1,,,74,0
13148,note_off,,,,,68,0,3,,,,,2,,,74,0
13152,note_on,,,,,4,0,1,,,,,0,,,72,75
13152,note_on,,,,,4,0,3,,,,,2,,,72,108
13152,note_on,,,,,4,0,2,,,,,1,,,72,75
13244,note_off,,,,,92,0,3,,,,,2,,,72,0
13244,note_off,,,,,188,0,7,,,,,6,,,31,0
13244,note_off,,,,,188,0,5,,,,,4,,,62,0
13244,note_off,,,,,92,0,2,,,,,1,,,72,0
13244,note_off,,,,,188,0,8,,,,,7,,,43,0
13244,note_off,,,,,92,0,1,,,,,0,,,72,0
13244,note_off,,,,,188,0,6,,,,,5,,,43,0
13244,note_off,,,,,188,0,4,,,,,3,,,71,0
13248,note_on,,,,,4,0,3,,,,,2,,,72,108
13248,note_on,,,,,4,0,4,,,,,3,,,72,108
13248,note_on,,,,,4,0,8,,,,,7,,,48,45
13248,note_on,,,,,4,0,2,,,,,1,,,72,75
13248,note_on,,,,,4,0,7,,,,,6,,,36,75
13248,note_on,,,,,4,0,5,,,,,4,,,63,92
13248,note_on,,,,,4,0,1,,,,,0,,,72,75
13248,set_tempo,,,,,216,1,0,,1500000,,,,,,,
13248,note_on,,,,,4,0,6,,,,,5,,,48,92
13760,note_off,,,,,512,0,7,,,,,6,,,36,0
13760,note_off,,,,,512,0,1,,,,,0,,,72,0
13760,note_off,,,,,512,0,8,,,,,7,,,48,0
13760,note_off,,,,,512,0,2,,,,,1,,,72,0
13760,note_off,,,,,512,0,5,,,,,4,,,63,0
13760,note_off,,,,,512,0,3,,,,,2,,,72,0
13760,note_off,,,,,512,0,4,,,,,3,,,72,0
13760,note_off,,,,,512,0,6,,,,,5,,,48,0
13824,note_on,,,,,64,0,2,,,,,1,,,75,45
13824,note_on,,,,,64,0,6,,,,,5,,,68,45
13824,note_on,,,,,64,0,4,,,,,3,,,72,60
13824,note_on,,,,,64,0,1,,,,,0,,,75,45
13824,note_on,,,,,64,0,5,,,,,4,,,68,45
13824,note_on,,,,,64,0,3,,,,,2,,,75,60
13824,note_on,,,,,64,0,8,,,,,7,,,68,45
14012,note_off,,,,,188,0,6,,,,,5,,,68,0
14012,note_off,,,,,188,0,4,,,,,3,,,72,0
14012,note_off,,,,,188,0,1,,,,,0,,,75,0
14012,note_off,,,,,188,0,5,,,,,4,,,68,0
14012,note_off,,,,,188,0,3,,,,,2,,,75,0
14012,note_off,,,,,188,0,2,,,,,1,,,75,0
14016,note_on,,,,,4,0,6,,,,,5,,,68,45
14016,note_on,,,,,4,0,4,,,,,3,,,72,60
14016,note_on,,,,,4,0,1,,,,,0,,,75,45
14016,note_on,,,,,4,0,5,,,,,4,,,68,45
14016,note_on,,,,,4,0,3,,,,,2,,,75,60
14016,note_on,,,,,4,0,2,,,,,1,,,75,45
14144,note_off,,,,,320,0,8,,,,,7,,,68,0
14204,note_off,,,,,188,0,2,,,,,1,,,75,0
14204,note_off,,,,,188,0,3,,,,,2,,,75,0
14204,note_off,,,,,188,0,4,,,,,3,,,72,0
14204,note_off,,,,,188,0,1,,,,,0,,,75,0
14204,note_off,,,,,188,0,6,,,,,5,,,68,0
14204,note_off,,,,,188,0,5,,,,,4,,,68,0
14208,note_on,,,,,4,0,2,,,,,1,,,75,45
14208,note_on,,,,,4,0,6,,,,,5,,,67,45
14208,note_on,,,,,4,0,5,,,,,4,,,67,45
14208,note_on,,,,,4,0,4,,,,,3,,,70,60
14208,note_on,,,,,64,0,8,,,,,7,,,67,45
14208,note_on,,,,,4,0,3,,,,,2,,,75,60
14208,note_on,,,,,4,0,1,,,,,0,,,75,45
14396,note_off,,,,,188,0,1,,,,,0,,,75,0
14396,note_off,,,,,188,0,5,,,,,4,,,67,0
14396,note_off,,,,,188,0,4,,,,,3,,,70,0
14396,note_off,,,,,188,0,3,,,,,2,,,75,0
14396,note_off,,,,,188,0,6,,,,,5,,,67,0
14396,note_off,,,,,188,0,2,,,,,1,,,75,0
14396,note_off,,,,,188,0,8,,,,,7,,,67,0
14400,note_on,,,,,4,0,4,,,,,3,,,68,60
14400,note_on,,,,,4,0,3,,,,,2,,,80,60
14400,note_on,,,,,4,0,2,,,,,1,,,80,45
14400,note_on,,,,,4,0,5,,,,,4,,,65,45
14400,note_on,,,,,4,0,6,,,,,5,,,65,45
14400,note_on,,,,,4,0,1,,,,,0,,,80,45
14400,note_on,,,,,4,0,8,,,,,7,,,65,45
14588,note_off,,,,,188,0,8,,,,,7,,,65,0
14588,note_off,,,,,188,0,6,,,,,5,,,65,0
14588,note_off,,,,,188,0,5,,,,,4,,,65,0
14588,note_off,,,,,188,0,3,,,,,2,,,80,0
14588,note_off,,,,,188,0,2,,,,,1,,,80,0
14588,note_off,,,,,188,0,1,,,,,0,,,80,0
14592,note_on,,,,,4,0,1,,,,,0,,,79,45
14592,note_on,,,,,4,0,3,,,,,2,,,79,60
14592,note_on,,,,,4,0,8,,,,,7,,,60,45
14592,note_on,,,,,4,0,2,,,,,1,,,79,45
14592,note_on,,,,,4,0,6,,,,,5,,,60,45
14592,note_on,,,,,4,0,5,,,,,4,,,60,45
14684,note_off,,,,,92,0,2,,,,,1,,,79,0
14684,note_off,,,,,92,0,3,,,,,2,,,79,0
14684,note_off,,,,,92,0,1,,,,,0,,,79,0
14688,note_on,,,,,4,0,2,,,,,1,,,77,45
14688,note_on,,,,,4,0,3,,,,,2,,,77,60
14688,note_on,,,,,4,0,1,,,,,0,,,77,45
14720,note_off,,,,,320,0,4,,,,,3,,,68,0
14780,note_off,,,,,92,0,1,,,,,0,,,77,0
14780,note_off,,,,,188,0,6,,,,,5,,,60,0
14780,note_off,,,,,92,0,2,,,,,1,,,77,0
14780,note_off,,,,,92,0,3,,,,,2,,,77,0
14780,note_off,,,,,188,0,8,,,,,7,,,60,0
14780,note_off,,,,,188,0,5,,,,,4,,,60,0
14784,note_on,,,,,4,0,3,,,,,2,,,75,60
14784,note_on,,,,,4,0,5,,,,,4,,,61,45
14784,note_on,,,,,4,0,6,,,,,5,,,61,45
14784,note_on,,,,,4,0,1,,,,,0,,,75,45
14784,note_on,,,,,4,0,8,,,,,7,,,61,45
14784,note_on,,,,,4,0,2,,,,,1,,,75,45
14784,note_on,,,,,64,0,4,,,,,3,,,68,60
14876,note_off,,,,,92,0,3,,,,,2,,,75,0
14876,note_off,,,,,92,0,1,,,,,0,,,75,0
14876,note_off,,,,,92,0,2,,,,,1,,,75,0
14880,note_on,,,,,4,0,1,,,,,0,,,73,45
14880,note_on,,,,,4,0,3,,,,,2,,,73,60
14880,note_on,,,,,4,0,2,,,,,1,,,73,45
14972,note_off,,,,,92,0,2,,,,,1,,,73,0
14972,note_off,,,,,188,0,6,,,,,5,,,61,0
14972,note_off,,,,,92,0,3,,,,,2,,,73,0
14972,note_off,,,,,188,0,5,,,,,4,,,61,0
14972,note_off,,,,,92,0,1,,,,,0,,,73,0
14972,note_off,,,,,188,0,8,,,,,7,,,61,0
14972,note_off,,,,,188,0,4,,,,,3,,,68,0
14976,note_on,,,,,4,0,4,,,,,3,,,68,60
14976,note_on,,,,,4,0,8,,,,,7,,,63,45
14976,note_on,,,,,4,0,1,,,,,0,,,72,45
14976,note_on,,,,,4,0,6,,,,,5,,,63,45
14976,note_on,,,,,4,0,2,,,,,1,,,72,45
14976,note_on,,,,,4,0,5,,,,,4,,,63,45
14976,note_on,,,,,4,0,3,,,,,2,,,72,60
15164,note_off,,,,,188,0,1,,,,,0,,,72,0
15164,note_off,,,,,188,0,6,,,,,5,,,63,0
15164,note_off,,,,,188,0,8,,,,,7,,,63,0
15164,note_off,,,,,188,0,4,,,,,3,,,68,0
15164,note_off,,,,,188,0,3,,,,,2,,,72,0
15164,note_off,,,,,188,0,2,,,,,1,,,72,0
15164,note_off,,,,,188,0,5,,,,,4,,,63,0
15168,note_on,,,,,4,0,4,,,,,3,,,70,60
15168,note_on,,,,,4,0,1,,,,,0,,,73,45
15168,note_on,,,,,4,0,8,,,,,7,,,61,45
15168,note_on,,,,,4,0,3,,,,,2,,,73,60
15168,note_on,,,,,4,0,5,,,,,4,,,61,45
15168,note_on,,,,,4,0,2,,,,,1,,,73,45
15168,note_on,,,,,4,0,6,,,,,5,,,61,45
15356,note_off,,,,,188,0,1,,,,,0,,,73,0
15356,note_off,,,,,188,0,3,,,,,2,,,73,0
15356,note_off,,,,,188,0,2,,,,,1,,,73,0
15356,note_off,,,,,188,0,6,,,,,5,,,61,0
15356,note_off,,,,,188,0,5,,,,,4,,,61,0
15356,note_off,,,,,188,0,8,,,,,7,,,61,0
15356,note_off,,,,,188,0,4,,,,,3,,,70,0
15360,note_on,,,,,4,0,3,,,,,2,,,70,60
15360,note_on,,,,,4,0,8,,,,,7,,,63,45
15360,note_on,,,,,4,0,1,,,,,0,,,70,45
15360,note_on,,,,,4,0,5,,,,,4,,,63,45
15360,note_on,,,,,4,0,4,,,,,3,,,67,60
15360,note_on,,,,,4,0,6,,,,,5,,,63,45
15360,note_on,,,,,4,0,2,,,,,1,,,70,45
15548,note_off,,,,,188,0,4,,,,,3,,,67,0
15548,note_off,,,,,188,0,2,,,,,1,,,70,0
15548,note_off,,,,,188,0,6,,,,,5,,,63,0
15548,note_off,,,,,188,0,1,,,,,0,,,70,0
15548,note_off,,,,,188,0,5,,,,,4,,,63,0
15548,note_off,,,,,188,0,3,,,,,2,,,70,0
15548,note_off,,,,,188,0,8,,,,,7,,,63,0
15552,note_on,,,,,4,0,2,,,,,1,,,68,45
15552,note_on,,,,,4,0,8,,,,,7,,,56,45
15552,note_on,,,,,4,0,5,,,,,4,,,56,45
15552,note_on,,,,,4,0,1,,,,,0,,,68,45
15552,note_on,,,,,4,0,3,,,,,2,,,68,60
15552,note_on,,,,,4,0,4,,,,,3,,,68,60
15552,note_on,,,,,4,0,6,,,,,5,,,56,45
15740,note_off,,,,,188,0,6,,,,,5,,,56,0
15740,note_off,,,,,188,0,8,,,,,7,,,56,0
15740,note_off,,,,,188,0,5,,,,,4,,,56,0
15744,note_on,,,,,4,0,6,,,,,5,,,60,45
15744,note_on,,,,,4,0,8,,,,,7,,,60,45
15744,note_on,,,,,4,0,5,,,,,4,,,60,45
15836,note_off,,,,,92,0,5,,,,,4,,,60,0
15836,note_off,,,,,92,0,6,,,,,5,,,60,0
15836,note_off,,,,,92,0,8,,,,,7,,,60,0
15840,note_on,,,,,4,0,5,,,,,4,,,58,45
15840,note_on,,,,,4,0,6,,,,,5,,,58,45
15840,note_on,,,,,4,0,8,,,,,7,,,58,45
15932,note_off,,,,,92,0,6,,,,,5,,,58,0
15932,note_off,,,,,92,0,8,,,,,7,,,58,0
15932,note_off,,,,,92,0,5,,,,,4,,,58,0
15936,note_on,,,,,4,0,5,,,,,4,,,56,45
15936,note_on,,,,,4,0,8,,,,,7,,,56,45
15936,note_on,,,,,4,0,6,,,,,5,,,56,45
16028,note_off,,,,,92,0,8,,,,,7,,,56,0
16028,note_off,,,,,92,0,6,,,,,5,,,56,0
16028,note_off,,,,,92,0,5,,,,,4,,,56,0
16032,note_on,,,,,4,0,8,,,,,7,,,55,45
16032,note_on,,,,,4,0,6,,,,,5,,,55,45
16032,note_on,,,,,4,0,5,,,,,4,,,55,45
16064,note_off,,,,,512,0,3,,,,,2,,,68,0
16064,note_off,,,,,512,0,2,,,,,1,,,68,0
16064,note_off,,,,,512,0,4,,,,,3,,,68,0
16064,note_off,,,,,512,0,1,,,,,0,,,68,0
16124,note_off,,,,,92,0,6,,,,,5,,,55,0
16124,note_off,,,,,92,0,8,,,,,7,,,55,0
16124,note_off,,,,,92,0,5,,,,,4,,,55,0
16128,note_on,,,,,64,0,3,,,,,2,,,68,60
16128,note_on,,,,,64,0,4,,,,,3,,,60,60
16128,note_on,,,,,4,0,5,,,,,4,,,53,45
16128,note_on,,,,,4,0,8,,,,,7,,,53,45
16128,note_on,,,,,64,0,2,,,,,1,,,68,45
16128,note_on,,,,,64,0,1,,,,,0,,,68,45
16128,note_on,,,,,4,0,6,,,,,5,,,53,45
16220,note_off,,,,,92,0,1,,,,,0,,,68,0
16220,note_off,,,,,92,0,3,,,,,2,,,68,0
16220,note_off,,,,,92,0,2,,,,,1,,,68,0
16224,note_on,,,,,4,0,3,,,,,2,,,67,60
16224,note_on,,,,,4,0,2,,,,,1,,,67,45
16224,note_on,,,,,4,0,1,,,,,0,,,67,45
16316,note_off,,,,,92,0,2,,,,,1,,,67,0
16316,note_off,,,,,188,0,4,,,,,3,,,60,0
16316,note_off,,,,,188,0,5,,,,,4,,,53,0
16316,note_off,,,,,92,0,1,,,,,0,,,67,0
16316,note_off,,,,,188,0,8,,,,,7,,,53,0
16316,note_off,,,,,92,0,3,,,,,2,,,67,0
16316,note_off,,,,,188,0,6,,,,,5,,,53,0
16320,note_on,,,,,4,0,6,,,,,5,,,56,45
16320,note_on,,,,,4,0,1,,,,,0,,,65,45
16320,note_on,,,,,4,0,8,,,,,7,,,56,45
16320,note_on,,,,,4,0,3,,,,,2,,,65,60
16320,note_on,,,,,4,0,2,,,,,1,,,65,45
16320,note_on,,,,,4,0,4,,,,,3,,,60,60
16320,note_on,,,,,4,0,5,,,,,4,,,56,45
16412,note_off,,,,,92,0,2,,,,,1,,,65,0
16412,note_off,,,,,92,0,3,,,,,2,,,65,0
16412,note_off,,,,,92,0,1,,,,,0,,,65,0
16416,note_on,,,,,4,0,3,,,,,2,,,67,60
16416,note_on,,,,,4,0,1,,,,,0,,,67,45
16416,note_on,,,,,4,0,2,,,,,1,,,67,45
16508,note_off,,,,,92,0,1,,,,,0,,,67,0
16508,note_off,,,,,188,0,8,,,,,7,,,56,0
16508,note_off,,,,,188,0,4,,,,,3,,,60,0
16508,note_off,,,,,188,0,6,,,,,5,,,56,0
16508,note_off,,,,,92,0,2,,,,,1,,,67,0
16508,note_off,,,,,188,0,5,,,,,4,,,56,0
16508,note_off,,,,,92,0,3,,,,,2,,,67,0
16512,note_on,,,,,4,0,5,,,,,4,,,53,45
16512,note_on,,,,,4,0,3,,,,,2,,,68,60
16512,note_on,,,,,4,0,1,,,,,0,,,68,45
16512,note_on,,,,,4,0,4,,,,,3,,,65,60
16512,note_on,,,,,4,0,6,,,,,5,,,53,45
16512,note_on,,,,,4,0,8,,,,,7,,,53,45
16512,note_on,,,,,4,0,2,,,,,1,,,68,45
16604,note_off,,,,,92,0,1,,,,,0,,,68,0
16604,note_off,,,,,92,0,3,,,,,2,,,68,0
16604,note_off,,,,,92,0,2,,,,,1,,,68,0
16608,note_on,,,,,4,0,1,,,,,0,,,65,45
16608,note_on,,,,,4,0,2,,,,,1,,,65,45
16608,note_on,,,,,4,0,3,,,,,2,,,65,60
16700,note_off,,,,,92,0,1,,,,,0,,,65,0
16700,note_off,,,,,188,0,4,,,,,3,,,65,0
16700,note_off,,,,,92,0,2,,,,,1,,,65,0
16700,note_off,,,,,188,0,8,,,,,7,,,53,0
16700,note_off,,,,,188,0,5,,,,,4,,,53,0
16700,note_off,,,,,188,0,6,,,,,5,,,53,0
16700,note_off,,,,,92,0,3,,,,,2,,,65,0
16704,note_on,,,,,4,0,8,,,,,7,,,55,45
16704,note_on,,,,,4,0,3,,,,,2,,,70,60
16704,note_on,,,,,4,0,6,,,,,5,,,55,45
16704,note_on,,,,,4,0,1,,,,,0,,,70,45
16704,note_on,,,,,4,0,5,,,,,4,,,55,45
16704,note_on,,,,,4,0,2,,,,,1,,,70,45
16704,note_on,,,,,4,0,4,,,,,3,,,65,60
16796,note_off,,,,,92,0,2,,,,,1,,,70,0
16796,note_off,,,,,92,0,3,,,,,2,,,70,0
16796,note_off,,,,,92,0,1,,,,,0,,,70,0
16800,note_on,,,,,4,0,2,,,,,1,,,68,45
16800,note_on,,,,,4,0,3,,,,,2,,,68,60
16800,note_on,,,,,4,0,1,,,,,0,,,68,45
16892,note_off,,,,,188,0,4,,,,,3,,,65,0
16892,note_off,,,,,188,0,8,,,,,7,,,55,0
16892,note_off,,,,,92,0,3,,,,,2,,,68,0
16892,note_off,,,,,188,0,5,,,,,4,,,55,0
16892,note_off,,,,,92,0,2,,,,,1,,,68,0
16892,note_off,,,,,92,0,1,,,,,0,,,68,0
16892,note_off,,,,,188,0,6,,,,,5,,,55,0
16896,note_on,,,,,4,0,4,,,,,3,,,64,60
16896,note_on,,,,,4,0,5,,,,,4,,,60,45
16896,note_on,,,,,4,0,6,,,,,5,,,60,45
16896,note_on,,,,,4,0,3,,,,,2,,,67,60
16896,note_on,,,,,4,0,8,,,,,7,,,60,45
16896,note_on,,,,,4,0,1,,,,,0,,,67,45
16896,note_on,,,,,4,0,2,,,,,1,,,67,45
16988,note_off,,,,,92,0,2,,,,,1,,,67,0
16988,note_off,,,,,92,0,3,,,,,2,,,67,0
16988,note_off,,,,,92,0,1,,,,,0,,,67,0
16992,note_on,,,,,4,0,3,,,,,2,,,68,60
16992,note_on,,,,,4,0,1,,,,,0,,,68,45
16992,note_on,,,,,4,0,2,,,,,1,,,68,45
17084,note_off,,,,,188,0,4,,,,,3,,,64,0
17084,note_off,,,,,188,0,5,,,,,4,,,60,0
17084,note_off,,,,,92,0,3,,,,,2,,,68,0
17084,note_off,,,,,188,0,8,,,,,7,,,60,0
17084,note_off,,,,,188,0,6,,,,,5,,,60,0
17084,note_off,,,,,92,0,1,,,,,0,,,68,0
17084,note_off,,,,,92,0,2,,,,,1,,,68,0
17088,note_on,,,,,4,0,6,,,,,5,,,58,45
17088,note_on,,,,,4,0,1,,,,,0,,,70,45
17088,note_on,,,,,4,0,4,,,,,3,,,67,60
17088,note_on,,,,,4,0,8,,,,,7,,,58,45
17088,note_on,,,,,4,0,5,,,,,4,,,58,45
17088,note_on,,,,,4,0,3,,,,,2,,,70,60
17088,note_on,,,,,4,0,2,,,,,1,,,70,45
17180,note_off,,,,,92,0,3,,,,,2,,,70,0
17180,note_off,,,,,92,0,2,,,,,1,,,70,0
17180,note_off,,,,,92,0,1,,,,,0,,,70,0
17184,note_on,,,,,4,0,2,,,,,1,,,67,45
17184,note_on,,,,,4,0,1,,,,,0,,,67,45
17184,note_on,,,,,4,0,3,,,,,2,,,67,60
17276,note_off,,,,,188,0,8,,,,,7,,,58,0
17276,note_off,,,,,92,0,2,,,,,1,,,67,0
17276,note_off,,,,,188,0,6,,,,,5,,,58,0
17276,note_off,,,,,188,0,4,,,,,3,,,67,0
17276,note_off,,,,,188,0,5,,,,,4,,,58,0
17276,note_off,,,,,92,0,1,,,,,0,,,67,0
17276,note_off,,,,,92,0,3,,,,,2,,,67,0
17280,note_on,,,,,4,0,6,,,,,5,,,56,45
17280,note_on,,,,,4,0,8,,,,,7,,,56,45
17280,note_on,,,,,4,0,3,,,,,2,,,72,60
17280,note_on,,,,,4,0,1,,,,,0,,,72,45
17280,note_on,,,,,4,0,2,,,,,1,,,72,45
17280,note_on,,,,,4,0,5,,,,,4,,,56,45
17280,note_on,,,,,4,0,4,,,,,3,,,65,60
17468,note_off,,,,,188,0,5,,,,,4,,,56,0
17468,note_off,,,,,188,0,1,,,,,0,,,72,0
17468,note_off,,,,,188,0,6,,,,,5,,,56,0
17468,note_off,,,,,188,0,8,,,,,7,,,56,0
17468,note_off,,,,,188,0,4,,,,,3,,,65,0
17468,note_off,,,,,188,0,3,,,,,2,,,72,0
17468,note_off,,,,,188,0,2,,,,,1,,,72,0
17472,note_on,,,,,4,0,2,,,,,1,,,77,45
17472,note_on,,,,,4,0,8,,,,,7,,,55,45
17472,note_on,,,,,4,0,1,,,,,0,,,77,45
17472,note_on,,,,,4,0,3,,,,,2,,,77,60
17472,note_on,,,,,4,0,6,,,,,5,,,55,45
17472,note_on,,,,,4,0,5,,,,,4,,,55,45
17564,note_off,,,,,92,0,3,,,,,2,,,77,0
17564,note_off,,,,,92,0,2,,,,,1,,,77,0
17564,note_off,,,,,92,0,1,,,,,0,,,77,0
17568,note_on,,,,,4,0,2,,,,,1,,,76,45
17568,note_on,,,,,4,0,3,,,,,2,,,76,60
17568,note_on,,,,,100,0,4,,,,,3,,,67,60
17568,note_on,,,,,4,0,1,,,,,0,,,76,45
17660,note_off,,,,,92,0,2,,,,,1,,,76,0
17660,note_off,,,,,188,0,5,,,,,4,,,55,0
17660,note_off,,,,,188,0,8,,,,,7,,,55,0
17660,note_off,,,,,92,0,1,,,,,0,,,76,0
17660,note_off,,,,,92,0,3,,,,,2,,,76,0
17660,note_off,,,,,92,0,4,,,,,3,,,67,0
17660,note_off,,,,,188,0,6,,,,,5,,,55,0
17664,note_on,,,,,4,0,5,,,,,4,,,53,45
17664,note_on,,,,,4,0,3,,,,,2,,,77,60
17664,note_on,,,,,4,0,6,,,,,5,,,53,45
17664,note_on,,,,,4,0,2,,,,,1,,,77,45
17664,note_on,,,,,4,0,8,,,,,7,,,53,45
17664,note_on,,,,,4,0,4,,,,,3,,,68,60
17664,note_on,,,,,4,0,1,,,,,0,,,77,45
17756,note_off,,,,,92,0,2,,,,,1,,,77,0
17756,note_off,,,,,92,0,3,,,,,2,,,77,0
17756,note_off,,,,,92,0,1,,,,,0,,,77,0
17756,note_off,,,,,92,0,4,,,,,3,,,68,0
17760,note_on,,,,,4,0,4,,,,,3,,,70,60
17760,note_on,,,,,4,0,2,,,,,1,,,79,45
17760,note_on,,,,,4,0,3,,,,,2,,,79,60
17760,note_on,,,,,4,0,1,,,,,0,,,79,45
17852,note_off,,,,,92,0,3,,,,,2,,,79,0
17852,note_off,,,,,188,0,6,,,,,5,,,53,0
17852,note_off,,,,,92,0,4,,,,,3,,,70,0
17852,note_off,,,,,92,0,1,,,,,0,,,79,0
17852,note_off,,,,,92,0,2,,,,,1,,,79,0
17852,note_off,,,,,188,0,8,,,,,7,,,53,0
17852,note_off,,,,,188,0,5,,,,,4,,,53,0
17856,note_on,,,,,4,0,3,,,,,2,,,76,60
17856,note_on,,,,,4,0,4,,,,,3,,,67,60
17856,note_on,,,,,4,0,1,,,,,0,,,76,45
17856,note_on,,,,,4,0,6,,,,,5,,,60,45
17856,note_on,,,,,4,0,8,,,,,7,,,60,45
17856,note_on,,,,,4,0,2,,,,,1,,,76,45
17856,note_on,,,,,4,0,5,,,,,4,,,60,45
18368,note_off,,,,,512,0,5,,,,,4,,,60,0
18368,note_off,,,,,512,0,3,,,,,2,,,76,0
18368,note_off,,,,,512,0,8,,,,,7,,,60,0
18368,note_off,,,,,512,0,1,,,,,0,,,76,0
18368,note_off,,,,,512,0,2,,,,,1,,,76,0
18368,note_off,,,,,512,0,4,,,,,3,,,67,0
18368,note_off,,,,,512,0,6,,,,,5,,,60,0
18432,key_signature,,,,,64,1,5,,,,,,,F,,
18432,note_on,,,,,0,0,3,,,,,2,,,77,108
18432,key_signature,,,,,64,1,3,,,,,,,F,,
18432,key_signature,,,,,64,1,4,,,,,,,F,,
18432,note_on,,,,,0,0,4,,,,,3,,,72,108
18432,key_signature,,,,,64,1,6,,,,,,,F,,
18432,note_on,,,,,0,0,5,,,,,4,,,65,92
18432,note_on,,,,,0,0,6,,,,,5,,,57,92
18432,key_signature,,,,,64,1,8,,,,,,,F,,
18432,note_on,,,,,0,0,7,,,,,6,,,45,75
18432,note_on,,,,,0,0,1,,,,,0,,,77,75
18432,note_on,,,,,0,0,2,,,,,1,,,77,75
18432,key_signature,,,,,64,1,2,,,,,,,F,,
18432,note_on,,,,,0,0,8,,,,,7,,,57,45
18432,key_signature,,,,,4672,1,7,,,,,,,F,,
18432,key_signature,,,,,64,1,1,,,,,,,F,,
18524,note_off,,,,,92,0,1,,,,,0,,,77,0
18524,note_off,,,,,92,0,2,,,,,1,,,77,0
18524,note_off,,,,,92,0,3,,,,,2,,,77,0
18528,note_on,,,,,4,0,1,,,,,0,,,79,75
18528,note_on,,,,,4,0,2,,,,,1,,,79,75
18528,note_on,,,,,4,0,3,,,,,2,,,79,108
18620,note_off,,,,,92,0,1,,,,,0,,,79,0
18620,note_off,,,,,188,0,5,,,,,4,,,65,0
18620,note_off,,,,,92,0,2,,,,,1,,,79,0
18620,note_off,,,,,188,0,6,,,,,5,,,57,0
18620,note_off,,,,,188,0,7,,,,,6,,,45,0
18620,note_off,,,,,188,0,8,,,,,7,,,57,0
18620,note_off,,,,,92,0,3,,,,,2,,,79,0
18624,note_on,,,,,4,0,7,,,,,6,,,41,75
18624,note_on,,,,,4,0,6,,,,,5,,,53,92
18624,note_on,,,,,4,0,1,,,,,0,,,81,75
18624,note_on,,,,,4,0,3,,,,,2,,,81,108
18624,note_on,,,,,4,0,8,,,,,7,,,53,45
18624,note_on,,,,,4,0,2,,,,,1,,,81,75
18624,note_on,,,,,4,0,5,,,,,4,,,60,92
18752,note_off,,,,,320,0,4,,,,,3,,,72,0
18812,note_off,,,,,188,0,3,,,,,2,,,81,0
18812,note_off,,,,,188,0,7,,,,,6,,,41,0
18812,note_off,,,,,188,0,2,,,,,1,,,81,0
18812,note_off,,,,,188,0,6,,,,,5,,,53,0
18812,note_off,,,,,188,0,8,,,,,7,,,53,0
18812,note_off,,,,,188,0,1,,,,,0,,,81,0
18812,note_off,,,,,188,0,5,,,,,4,,,60,0
18816,note_on,,,,,64,0,4,,,,,3,,,65,108
18816,note_on,,,,,4,0,2,,,,,1,,,72,75
18816,note_on,,,,,4,0,5,,,,,4,,,60,92
18816,note_on,,,,,4,0,6,,,,,5,,,57,92
18816,note_on,,,,,4,0,1,,,,,0,,,72,75
18816,note_on,,,,,4,0,8,,,,,7,,,57,45
18816,note_on,,,,,4,0,3,,,,,2,,,72,108
18816,note_on,,,,,4,0,7,,,,,6,,,45,75
19004,note_off,,,,,188,0,5,,,,,4,,,60,0
19004,note_off,,,,,188,0,6,,,,,5,,,57,0
19004,note_off,,,,,188,0,1,,,,,0,,,72,0
19004,note_off,,,,,188,0,8,,,,,7,,,57,0
19004,note_off,,,,,188,0,2,,,,,1,,,72,0
19004,note_off,,,,,188,0,3,,,,,2,,,72,0
19004,note_off,,,,,188,0,4,,,,,3,,,65,0
19004,note_off,,,,,188,0,7,,,,,6,,,45,0
19008,note_on,,,,,4,0,6,,,,,5,,,50,92
19008,note_on,,,,,4,0,3,,,,,2,,,70,108
19008,note_on,,,,,4,0,8,,,,,7,,,50,45
19008,note_on,,,,,4,0,5,,,,,4,,,62,92
19008,note_on,,,,,4,0,1,,,,,0,,,70,75
19008,note_on,,,,,4,0,7,,,,,6,,,38,75
19008,note_on,,,,,4,0,4,,,,,3,,,65,108
19008,note_on,,,,,4,0,2,,,,,1,,,70,75
19196,note_off,,,,,188,0,2,,,,,1,,,70,0
19196,note_off,,,,,188,0,3,,,,,2,,,70,0
19196,note_off,,,,,188,0,5,,,,,4,,,62,0
19196,note_off,,,,,188,0,1,,,,,0,,,70,0
19200,note_on,,,,,4,0,5,,,,,4,,,65,92
19200,note_on,,,,,4,0,3,,,,,2,,,81,108
19200,note_on,,,,,4,0,2,,,,,1,,,81,75
19200,note_on,,,,,4,0,1,,,,,0,,,81,75
19328,note_off,,,,,320,0,8,,,,,7,,,50,0
19328,note_off,,,,,320,0,6,,,,,5,,,50,0
19328,note_off,,,,,320,0,7,,,,,6,,,38,0
19328,note_off,,,,,320,0,4,,,,,3,,,65,0
19388,note_off,,,,,188,0,5,,,,,4,,,65,0
19388,note_off,,,,,188,0,1,,,,,0,,,81,0
19388,note_off,,,,,188,0,3,,,,,2,,,81,0
19388,note_off,,,,,188,0,2,,,,,1,,,81,0
19392,note_on,,,,,4,0,3,,,,,2,,,79,108
19392,note_on,,,,,64,0,8,,,,,7,,,52,45
19392,note_on,,,,,64,0,7,,,,,6,,,40,75
19392,note_on,,,,,4,0,5,,,,,4,,,67,92
19392,note_on,,,,,64,0,6,,,,,5,,,52,92
19392,note_on,,,,,4,0,1,,,,,0,,,79,75
19392,note_on,,,,,4,0,2,,,,,1,,,79,75
19392,note_on,,,,,64,0,4,,,,,3,,,72,108
19580,note_off,,,,,188,0,4,,,,,3,,,72,0
19580,note_off,,,,,188,0,6,,,,,5,,,52,0
19580,note_off,,,,,188,0,5,,,,,4,,,67,0
19580,note_off,,,,,188,0,3,,,,,2,,,79,0
19580,note_off,,,,,188,0,1,,,,,0,,,79,0
19580,note_off,,,,,188,0,7,,,,,6,,,40,0
19580,note_off,,,,,188,0,2,,,,,1,,,79,0
19580,note_off,,,,,188,0,8,,,,,7,,,52,0
19584,note_on,,,,,4,0,5,,,,,4,,,65,92
19584,note_on,,,,,4,0,2,,,,,1,,,69,75
19584,note_on,,,,,4,0,3,,,,,2,,,69,108
19584,note_on,,,,,4,0,1,,,,,0,,,69,75
19584,note_on,,,,,4,0,4,,,,,3,,,60,108
19584,note_on,,,,,4,0,7,,,,,6,,,41,75
19584,note_on,,,,,4,0,6,,,,,5,,,53,92
19584,note_on,,,,,4,0,8,,,,,7,,,53,45
19676,note_off,,,,,92,0,1,,,,,0,,,69,0
19676,note_off,,,,,92,0,2,,,,,1,,,69,0
19676,note_off,,,,,92,0,3,,,,,2,,,69,0
19680,note_on,,,,,4,0,3,,,,,2,,,79,108
19680,note_on,,,,,4,0,1,,,,,0,,,79,75
19680,note_on,,,,,4,0,2,,,,,1,,,79,75
19772,note_off,,,,,188,0,5,,,,,4,,,65,0
19772,note_off,,,,,92,0,2,,,,,1,,,79,0
19772,note_off,,,,,92,0,1,,,,,0,,,79,0
19772,note_off,,,,,92,0,3,,,,,2,,,79,0
19772,note_off,,,,,188,0,6,,,,,5,,,53,0
19772,note_off,,,,,188,0,7,,,,,6,,,41,0
19772,note_off,,,,,188,0,8,,,,,7,,,53,0
19776,note_on,,,,,4,0,5,,,,,4,,,70,92
19776,note_on,,,,,4,0,2,,,,,1,,,77,75
19776,note_on,,,,,4,0,3,,,,,2,,,77,108
19776,note_on,,,,,4,0,6,,,,,5,,,55,92
19776,note_on,,,,,4,0,1,,,,,0,,,77,75
19776,note_on,,,,,4,0,7,,,,,6,,,43,75
19776,note_on,,,,,4,0,8,,,,,7,,,55,45
19868,note_off,,,,,92,0,2,,,,,1,,,77,0
19868,note_off,,,,,92,0,1,,,,,0,,,77,0
19868,note_off,,,,,92,0,3,,,,,2,,,77,0
19872,note_on,,,,,4,0,2,,,,,1,,,76,75
19872,note_on,,,,,4,0,3,,,,,2,,,76,108
19872,note_on,,,,,4,0,1,,,,,0,,,76,75
19904,note_off,,,,,320,0,4,,,,,3,,,60,0
19964,note_off,,,,,188,0,5,,,,,4,,,70,0
19964,note_off,,,,,188,0,8,,,,,7,,,55,0
19964,note_off,,,,,188,0,6,,,,,5,,,55,0
19964,note_off,,,,,188,0,7,,,,,6,,,43,0
19964,note_off,,,,,92,0,1,,,,,0,,,76,0
19964,note_off,,,,,92,0,3,,,,,2,,,76,0
19964,note_off,,,,,92,0,2,,,,,1,,,76,0
19968,note_on,,,,,4,0,6,,,,,5,,,57,92
19968,note_on,,,,,4,0,7,,,,,6,,,45,75
19968,note_on,,,,,64,0,4,,,,,3,,,72,108
19968,note_on,,,,,4,0,8,,,,,7,,,57,45
19968,note_on,,,,,4,0,2,,,,,1,,,77,75
19968,note_on,,,,,4,0,3,,,,,2,,,77,108
19968,note_on,,,,,4,0,5,,,,,4,,,69,92
19968,note_on,,,,,4,0,1,,,,,0,,,77,75
20060,note_off,,,,,92,0,1,,,,,0,,,77,0
20060,note_off,,,,,92,0,2,,,,,1,,,77,0
20060,note_off,,,,,92,0,3,,,,,2,,,77,0
20064,note_on,,,,,4,0,1,,,,,0,,,72,75
20064,note_on,,,,,4,0,3,,,,,2,,,72,108
20064,note_on,,,,,4,0,2,,,,,1,,,72,75
20156,note_off,,,,,188,0,8,,,,,7,,,57,0
20156,note_off,,,,,92,0,1,,,,,0,,,72,0
20156,note_off,,,,,92,0,3,,,,,2,,,72,0
20156,note_off,,,,,92,0,2,,,,,1,,,72,0
20156,note_off,,,,,188,0,4,,,,,3,,,72,0
20156,note_off,,,,,188,0,5,,,,,4,,,69,0
20156,note_off,,,,,188,0,6,,,,,5,,,57,0
20156,note_off,,,,,188,0,7,,,,,6,,,45,0
20160,note_on,,,,,4,0,7,,,,,6,,,46,75
20160,note_on,,,,,4,0,8,,,,,7,,,58,45
20160,note_on,,,,,4,0,4,,,,,3,,,65,108
20160,note_on,,,,,4,0,2,,,,,1,,,74,75
20160,note_on,,,,,4,0,5,,,,,4,,,74,92
20160,note_on,,,,,4,0,6,,,,,5,,,58,92
20160,note_on,,,,,4,0,3,,,,,2,,,74,108
20160,note_on,,,,,4,0,1,,,,,0,,,74,75
20348,note_off,,,,,188,0,8,,,,,7,,,58,0
20348,note_off,,,,,188,0,3,,,,,2,,,74,0
20348,note_off,,,,,188,0,6,,,,,5,,,58,0
20348,note_off,,,,,188,0,7,,,,,6,,,46,0
20348,note_off,,,,,188,0,2,,,,,1,,,74,0
20348,note_off,,,,,188,0,1,,,,,0,,,74,0
20352,note_on,,,,,4,0,8,,,,,7,,,46,45
20352,note_on,,,,,4,0,1,,,,,0,,,86,75
20352,note_on,,,,,4,0,6,,,,,5,,,46,92
20352,note_on,,,,,4,0,2,,,,,1,,,86,75
20352,note_on,,,,,4,0,7,,,,,6,,,34,75
20352,note_on,,,,,4,0,3,,,,,2,,,86,108
20480,note_off,,,,,320,0,4,,,,,3,,,65,0
20480,note_off,,,,,320,0,5,,,,,4,,,74,0
20540,note_off,,,,,188,0,6,,,,,5,,,46,0
20540,note_off,,,,,188,0,1,,,,,0,,,86,0
20540,note_off,,,,,188,0,7,,,,,6,,,34,0
20540,note_off,,,,,188,0,3,,,,,2,,,86,0
20540,note_off,,,,,188,0,2,,,,,1,,,86,0
20540,note_off,,,,,188,0,8,,,,,7,,,46,0
20544,note_on,,,,,4,0,3,,,,,2,,,84,108
20544,note_on,,,,,4,0,1,,,,,0,,,84,75
20544,note_on,,,,,4,0,7,,,,,6,,,36,75
20544,note_on,,,,,64,0,5,,,,,4,,,67,92
20544,note_on,,,,,4,0,6,,,,,5,,,48,92
20544,note_on,,,,,64,0,4,,,,,3,,,64,108
20544,note_on,,,,,4,0,8,,,,,7,,,48,45
20544,note_on,,,,,4,0,2,,,,,1,,,84,75
20732,note_off,,,,,188,0,7,,,,,6,,,36,0
20732,note_off,,,,,188,0,6,,,,,5,,,48,0
20732,note_off,,,,,188,0,4,,,,,3,,,64,0
20732,note_off,,,,,188,0,5,,,,,4,,,67,0
20732,note_off,,,,,188,0,8,,,,,7,,,48,0
20732,note_off,,,,,188,0,1,,,,,0,,,84,0
20732,note_off,,,,,188,0,2,,,,,1,,,84,0
20732,note_off,,,,,188,0,3,,,,,2,,,84,0
20736,note_on,,,,,4,0,2,,,,,1,,,82,75
20736,note_on,,,,,4,0,5,,,,,4,,,65,92
20736,note_on,,,,,4,0,8,,,,,7,,,50,45
20736,note_on,,,,,4,0,1,,,,,0,,,82,75
20736,note_on,,,,,4,0,4,,,,,3,,,65,108
20736,note_on,,,,,4,0,6,,,,,5,,,50,92
20736,note_on,,,,,4,0,3,,,,,2,,,82,108
20736,note_on,,,,,4,0,7,,,,,6,,,38,75
20828,note_off,,,,,92,0,1,,,,,0,,,82,0
20828,note_off,,,,,92,0,3,,,,,2,,,82,0
20828,note_off,,,,,92,0,2,,,,,1,,,82,0
20832,note_on,,,,,4,0,2,,,,,1,,,81,75
20832,note_on,,,,,4,0,1,,,,,0,,,81,75
20832,note_on,,,,,4,0,3,,,,,2,,,81,108
20924,note_off,,,,,92,0,2,,,,,1,,,81,0
20924,note_off,,,,,188,0,5,,,,,4,,,65,0
20924,note_off,,,,,188,0,6,,,,,5,,,50,0
20924,note_off,,,,,188,0,8,,,,,7,,,50,0
20924,note_off,,,,,92,0,3,,,,,2,,,81,0
20924,note_off,,,,,92,0,1,,,,,0,,,81,0
20924,note_off,,,,,188,0,7,,,,,6,,,38,0
20924,note_off,,,,,188,0,4,,,,,3,,,65,0
20928,note_on,,,,,4,0,4,,,,,3,,,74,108
20928,note_on,,,,,4,0,1,,,,,0,,,79,75
20928,note_on,,,,,4,0,2,,,,,1,,,79,75
20928,note_on,,,,,4,0,5,,,,,4,,,70,92
20928,note_on,,,,,4,0,7,,,,,6,,,46,75
20928,note_on,,,,,4,0,8,,,,,7,,,58,45
20928,note_on,,,,,4,0,6,,,,,5,,,58,92
20928,note_on,,,,,4,0,3,,,,,2,,,79,108
21020,note_off,,,,,92,0,1,,,,,0,,,79,0
21020,note_off,,,,,92,0,2,,,,,1,,,79,0
21020,note_off,,,,,92,0,3,,,,,2,,,79,0
21024,note_on,,,,,4,0,3,,,,,2,,,77,108
21024,note_on,,,,,4,0,1,,,,,0,,,77,75
21024,note_on,,,,,4,0,2,,,,,1,,,77,75
21116,note_off,,,,,92,0,2,,,,,1,,,77,0
21116,note_off,,,,,188,0,6,,,,,5,,,58,0
21116,note_off,,,,,92,0,1,,,,,0,,,77,0
21116,note_off,,,,,188,0,7,,,,,6,,,46,0
21116,note_off,,,,,188,0,8,,,,,7,,,58,0
21116,note_off,,,,,188,0,4,,,,,3,,,74,0
21116,note_off,,,,,92,0,3,,,,,2,,,77,0
21120,note_on,,,,,4,0,4,,,,,3,,,70,108
21120,note_on,,,,,4,0,1,,,,,0,,,76,75
21120,note_on,,,,,4,0,7,,,,,6,,,43,75
21120,note_on,,,,,4,0,6,,,,,5,,,55,92
21120,note_on,,,,,4,0,2,,,,,1,,,76,75
21120,note_on,,,,,4,0,8,,,,,7,,,55,45
21120,note_on,,,,,4,0,3,,,,,2,,,76,108
21212,note_off,,,,,92,0,2,,,,,1,,,76,0
21212,note_off,,,,,92,0,3,,,,,2,,,76,0
21212,note_off,,,,,92,0,1,,,,,0,,,76,0
21216,note_on,,,,,4,0,3,,,,,2,,,74,108
21216,note_on,,,,,4,0,2,,,,,1,,,74,75
21216,note_on,,,,,4,0,1,,,,,0,,,74,75
21248,note_off,,,,,320,0,5,,,,,4,,,70,0
21308,note_off,,,,,92,0,1,,,,,0,,,74,0
21308,note_off,,,,,188,0,4,,,,,3,,,70,0
21308,note_off,,,,,188,0,7,,,,,6,,,43,0
21308,note_off,,,,,92,0,3,,,,,2,,,74,0
21308,note_off,,,,,188,0,8,,,,,7,,,55,0
21308,note_off,,,,,188,0,6,,,,,5,,,55,0
21308,note_off,,,,,92,0,2,,,,,1,,,74,0
21312,note_on,,,,,4,0,8,,,,,7,,,52,45
21312,note_on,,,,,64,0,5,,,,,4,,,60,92
21312,note_on,,,,,4,0,1,,,,,0,,,72,75
21312,note_on,,,,,4,0,2,,,,,1,,,72,75
21312,note_on,,,,,4,0,4,,,,,3,,,67,108
21312,note_on,,,,,4,0,6,,,,,5,,,52,92
21312,note_on,,,,,4,0,7,,,,,6,,,40,75
21312,note_on,,,,,4,0,3,,,,,2,,,72,108
21500,note_off,,,,,188,0,2,,,,,1,,,72,0
21500,note_off,,,,,188,0,1,,,,,0,,,72,0
21500,note_off,,,,,188,0,6,,,,,5,,,52,0
21500,note_off,,,,,188,0,7,,,,,6,,,40,0
21500,note_off,,,,,188,0,3,,,,,2,,,72,0
21500,note_off,,,,,188,0,8,,,,,7,,,52,0
21500,note_off,,,,,188,0,4,,,,,3,,,67,0
21504,note_on,,,,,4,0,2,,,,,1,,,70,75
21504,note_on,,,,,4,0,6,,,,,5,,,53,92
21504,note_on,,,,,4,0,3,,,,,2,,,70,108
21504,note_on,,,,,4,0,1,,,,,0,,,70,75
21504,note_on,,,,,4,0,4,,,,,3,,,60,108
21504,note_on,,,,,4,0,8,,,,,7,,,53,45
21504,note_on,,,,,4,0,7,,,,,6,,,41,75
21596,note_off,,,,,92,0,1,,,,,0,,,70,0
21596,note_off,,,,,92,0,2,,,,,1,,,70,0
21596,note_off,,,,,92,0,3,,,,,2,,,70,0
21600,note_on,,,,,4,0,3,,,,,2,,,69,108
21600,note_on,,,,,4,0,1,,,,,0,,,69,75
21600,note_on,,,,,4,0,2,,,,,1,,,69,75
21632,note_off,,,,,320,0,5,,,,,4,,,60,0
21692,note_off,,,,,92,0,2,,,,,1,,,69,0
21692,note_off,,,,,188,0,8,,,,,7,,,53,0
21692,note_off,,,,,92,0,3,,,,,2,,,69,0
21692,note_off,,,,,188,0,6,,,,,5,,,53,0
21692,note_off,,,,,188,0,7,,,,,6,,,41,0
21692,note_off,,,,,188,0,4,,,,,3,,,60,0
21692,note_off,,,,,92,0,1,,,,,0,,,69,0
21696,note_on,,,,,4,0,3,,,,,2,,,67,108
21696,note_on,,,,,4,0,8,,,,,7,,,50,45
21696,note_on,,,,,4,0,6,,,,,5,,,50,92
21696,note_on,,,,,4,0,4,,,,,3,,,65,108
21696,note_on,,,,,4,0,1,,,,,0,,,67,75
21696,note_on,,,,,4,0,2,,,,,1,,,67,75
21696,note_on,,,,,4,0,7,,,,,6,,,38,75
21696,note_on,,,,,64,0,5,,,,,4,,,62,92
21788,note_off,,,,,92,0,3,,,,,2,,,67,0
21788,note_off,,,,,92,0,1,,,,,0,,,67,0
21788,note_off,,,,,92,0,2,,,,,1,,,67,0
21792,note_on,,,,,4,0,3,,,,,2,,,65,108
21792,note_on,,,,,4,0,1,,,,,0,,,65,75
21792,note_on,,,,,4,0,2,,,,,1,,,65,75
21884,note_off,,,,,188,0,4,,,,,3,,,65,0
21884,note_off,,,,,92,0,3,,,,,2,,,65,0
21884,note_off,,,,,92,0,1,,,,,0,,,65,0
21884,note_off,,,,,188,0,5,,,,,4,,,62,0
21884,note_off,,,,,188,0,7,,,,,6,,,38,0
21884,note_off,,,,,92,0,2,,,,,1,,,65,0
21884,note_off,,,,,188,0,6,,,,,5,,,50,0
21884,note_off,,,,,188,0,8,,,,,7,,,50,0
21888,note_on,,,,,4,0,8,,,,,7,,,46,45
21888,note_on,,,,,4,0,2,,,,,1,,,67,75
21888,note_on,,,,,4,0,3,,,,,2,,,67,108
21888,note_on,,,,,4,0,4,,,,,3,,,62,108
21888,note_on,,,,,4,0,7,,,,,6,,,34,75
21888,note_on,,,,,4,0,6,,,,,5,,,46,92
21888,note_on,,,,,4,0,1,,,,,0,,,67,75
21888,note_on,,,,,4,0,5,,,,,4,,,55,92
22076,note_off,,,,,188,0,3,,,,,2,,,67,0
22076,note_off,,,,,188,0,7,,,,,6,,,34,0
22076,note_off,,,,,188,0,1,,,,,0,,,67,0
22076,note_off,,,,,188,0,4,,,,,3,,,62,0
22076,note_off,,,,,188,0,6,,,,,5,,,46,0
22076,note_off,,,,,188,0,2,,,,,1,,,67,0
22076,note_off,,,,,188,0,8,,,,,7,,,46,0
22076,note_off,,,,,188,0,5,,,,,4,,,55,0
22080,set_tempo,,,,,8832,1,0,,1714285,,,,,,,
22080,note_on,,,,,4,0,3,,,,,2,,,65,108
22080,note_on,,,,,4,0,6,,,,,5,,,48,92
22080,note_on,,,,,4,0,7,,,,,6,,,36,75
22080,note_on,,,,,4,0,8,,,,,7,,,48,45
22080,note_on,,,,,4,0,5,,,,,4,,,55,92
22080,note_on,,,,,4,0,4,,,,,3,,,60,108
22080,note_on,,,,,4,0,2,,,,,1,,,65,75
22080,note_on,,,,,4,0,1,,,,,0,,,65,75
22104,note_on,,,,,0,0,2,,,,,1,,,64,75
22104,note_on,,,,,0,0,3,,,,,2,,,64,108
22104,note_off,,,,,24,0,3,,,,,2,,,65,0
22104,note_on,,,,,0,0,1,,,,,0,,,64,75
22104,note_off,,,,,24,0,1,,,,,0,,,65,0
22104,note_off,,,,,24,0,2,,,,,1,,,65,0
22128,note_on,,,,,0,0,1,,,,,0,,,65,75
22128,note_off,,,,,24,0,1,,,,,0,,,64,0
22128,note_on,,,,,0,0,3,,,,,2,,,65,108
22128,note_off,,,,,24,0,3,,,,,2,,,64,0
22128,note_on,,,,,0,0,2,,,,,1,,,65,75
22128,note_off,,,,,24,0,2,,,,,1,,,64,0
22152,note_on,,,,,0,0,1,,,,,0,,,64,75
22152,note_off,,,,,24,0,1,,,,,0,,,65,0
22152,set_tempo,,,,,72,1,0,,1333333,,,,,,,
22152,note_off,,,,,24,0,2,,,,,1,,,65,0
22152,note_on,,,,,0,0,2,,,,,1,,,64,75
22152,note_off,,,,,24,0,3,,,,,2,,,65,0
22152,note_on,,,,,0,0,3,,,,,2,,,64,108
22176,note_off,,,,,24,0,3,,,,,2,,,64,0
22176,note_on,,,,,0,0,3,,,,,2,,,65,108
22176,note_off,,,,,24,0,1,,,,,0,,,64,0
22176,note_on,,,,,0,0,1,,,,,0,,,65,75
22176,note_off,,,,,24,0,2,,,,,1,,,64,0
22176,note_on,,,,,0,0,2,,,,,1,,,65,75
22200,note_off,,,,,24,0,1,,,,,0,,,65,0
22200,note_on,,,,,0,0,3,,,,,2,,,64,108
22200,note_off,,,,,24,0,3,,,,,2,,,65,0
22200,note_on,,,,,0,0,1,,,,,0,,,64,75
22200,note_on,,,,,0,0,2,,,,,1,,,64,75
22200,note_off,,,,,24,0,2,,,,,1,,,65,0
22224,note_on,,,,,0,0,2,,,,,1,,,65,75
22224,note_off,,,,,24,0,2,,,,,1,,,64,0
22224,note_on,,,,,0,0,1,,,,,0,,,65,75
22224,note_off,,,,,24,0,3,,,,,2,,,64,0
22224,note_off,,,,,24,0,1,,,,,0,,,64,0
22224,note_on,,,,,0,0,3,,,,,2,,,65,108
22248,note_off,,,,,24,0,1,,,,,0,,,65,0
22248,note_on,,,,,0,0,2,,,,,1,,,64,75
22248,set_tempo,,,,,96,1,0,,1500000,,,,,,,
22248,note_off,,,,,24,0,3,,,,,2,,,65,0
22248,note_on,,,,,0,0,3,,,,,2,,,64,108
22248,note_on,,,,,0,0,1,,,,,0,,,64,75
22248,note_off,,,,,24,0,2,,,,,1,,,65,0
22268,note_off,,,,,188,0,4,,,,,3,,,60,0
22268,note_off,,,,,188,0,7,,,,,6,,,36,0
22268,note_off,,,,,188,0,8,,,,,7,,,48,0
22268,note_off,,,,,188,0,5,,,,,4,,,55,0
22268,note_off,,,,,188,0,6,,,,,5,,,48,0
22272,note_off,,,,,24,0,1,,,,,0,,,64,0
22272,note_on,,,,,0,0,1,,,,,0,,,65,75
22272,note_on,,,,,0,0,2,,,,,1,,,65,75
22272,note_on,,,,,4,0,5,,,,,4,,,60,92
22272,note_off,,,,,24,0,2,,,,,1,,,64,0
22272,note_on,,,,,4,0,8,,,,,7,,,36,45
22272,note_on,,,,,4,0,4,,,,,3,,,58,108
22272,note_on,,,,,4,0,7,,,,,6,,,24,75
22272,note_off,,,,,24,0,3,,,,,2,,,64,0
22272,note_on,,,,,0,0,3,,,,,2,,,65,108
22272,note_on,,,,,4,0,6,,,,,5,,,36,92
22296,note_off,,,,,24,0,1,,,,,0,,,65,0
22296,note_on,,,,,0,0,2,,,,,1,,,64,75
22296,note_off,,,,,24,0,3,,,,,2,,,65,0
22296,note_on,,,,,0,0,1,,,,,0,,,64,75
22296,note_on,,,,,0,0,3,,,,,2,,,64,108
22296,note_off,,,,,24,0,2,,,,,1,,,65,0
22364,note_off,,,,,68,0,3,,,,,2,,,64,0
22364,note_off,,,,,68,0,2,,,,,1,,,64,0
22364,note_off,,,,,68,0,1,,,,,0,,,64,0
22368,note_on,,,,,4,0,3,,,,,2,,,65,108
22368,note_on,,,,,4,0,1,,,,,0,,,65,75
22368,note_on,,,,,4,0,2,,,,,1,,,65,75
22460,note_off,,,,,92,0,3,,,,,2,,,65,0
22460,note_off,,,,,188,0,6,,,,,5,,,36,0
22460,note_off,,,,,92,0,1,,,,,0,,,65,0
22460,note_off,,,,,188,0,7,,,,,6,,,24,0
22460,note_off,,,,,188,0,5,,,,,4,,,60,0
22460,note_off,,,,,188,0,8,,,,,7,,,36,0
22460,note_off,,,,,188,0,4,,,,,3,,,58,0
22460,note_off,,,,,92,0,2,,,,,1,,,65,0
22464,note_on,,,,,4,0,8,,,,,7,,,41,45
22464,note_on,,,,,4,0,3,,,,,2,,,65,108
22464,note_on,,,,,4,0,6,,,,,5,,,41,92
22464,note_on,,,,,4,0,1,,,,,0,,,65,75
22464,note_on,,,,,4,0,5,,,,,4,,,60,92
22464,set_tempo,,,,,216,1,0,,1500000,,,,,,,
22464,note_on,,,,,4,0,4,,,,,3,,,57,108
22464,note_on,,,,,4,0,2,,,,,1,,,65,75
22464,note_on,,,,,4,0,7,,,,,6,,,29,75
22976,note_off,,,,,512,0,2,,,,,1,,,65,0
22976,note_off,,,,,512,0,6,,,,,5,,,41,0
22976,note_off,,,,,512,0,8,,,,,7,,,41,0
22976,note_off,,,,,512,0,4,,,,,3,,,57,0
22976,note_off,,,,,512,0,7,,,,,6,,,29,0
22976,note_off,,,,,512,0,3,,,,,2,,,65,0
22976,note_off,,,,,512,0,5,,,,,4,,,60,0
22976,note_off,,,,,512,0,1,,,,,0,,,65,0
23040,note_on,,,,,0,0,4,,,,,3,,,72,60
23040,key_signature,,,,,64,1,4,,,,,,,Eb,,
23040,note_on,,,,,0,0,3,,,,,2,,,75,60
23040,key_signature,,,,,64,1,3,,,,,,,Eb,,
23040,note_on,,,,,0,0,8,,,,,7,,,68,45
23040,note_on,,,,,0,0,5,,,,,4,,,68,45
23040,key_signature,,,,,64,1,1,,,,,,,Eb,,
23040,key_signature,,,,,64,1,7,,,,,,,Eb,,
23040,key_signature,,,,,64,1,5,,,,,,,Eb,,
23040,key_signature,,,,,64,1,8,,,,,,,Eb,,
23040,note_on,,,,,0,0,2,,,,,1,,,75,45
23040,key_signature,,,,,64,1,6,,,,,,,Eb,,
23040,key_signature,,,,,64,1,2,,,,,,,Eb,,
23040,note_on,,,,,0,0,6,,,,,5,,,68,45
23040,note_on,,,,,0,0,1,,,,,0,,,75,45
23228,note_off,,,,,188,0,3,,,,,2,,,75,0
23228,note_off,,,,,188,0,4,,,,,3,,,72,0
23228,note_off,,,,,188,0,6,,,,,5,,,68,0
23228,note_off,,,,,188,0,1,,,,,0,,,75,0
23228,note_off,,,,,188,0,2,,,,,1,,,75,0
23228,note_off,,,,,188,0,5,,,,,4,,,68,0
23232,note_on,,,,,4,0,2,,,,,1,,,75,45
23232,note_on,,,,,4,0,6,,,,,5,,,68,45
23232,note_on,,,,,4,0,3,,,,,2,,,75,60
23232,note_on,,,,,4,0,4,,,,,3,,,72,60
23232,note_on,,,,,4,0,1,,,,,0,,,75,45
23232,note_on,,,,,4,0,5,,,,,4,,,68,45
23360,note_off,,,,,320,0,8,,,,,7,,,68,0
23420,note_off,,,,,188,0,6,,,,,5,,,68,0
23420,note_off,,,,,188,0,2,,,,,1,,,75,0
23420,note_off,,,,,188,0,5,,,,,4,,,68,0
23420,note_off,,,,,188,0,4,,,,,3,,,72,0
23420,note_off,,,,,188,0,1,,,,,0,,,75,0
23420,note_off,,,,,188,0,3,,,,,2,,,75,0
23424,note_on,,,,,4,0,4,,,,,3,,,70,60
23424,note_on,,,,,4,0,6,,,,,5,,,67,45
23424,note_on,,,,,4,0,5,,,,,4,,,67,45
23424,note_on,,,,,4,0,1,,,,,0,,,75,45
23424,note_on,,,,,4,0,2,,,,,1,,,75,45
23424,note_on,,,,,4,0,3,,,,,2,,,75,60
23424,note_on,,,,,64,0,8,,,,,7,,,67,45
23612,note_off,,,,,188,0,8,,,,,7,,,67,0
23612,note_off,,,,,188,0,6,,,,,5,,,67,0
23612,note_off,,,,,188,0,1,,,,,0,,,75,0
23612,note_off,,,,,188,0,5,,,,,4,,,67,0
23612,note_off,,,,,188,0,3,,,,,2,,,75,0
23612,note_off,,,,,188,0,4,,,,,3,,,70,0
23612,note_off,,,,,188,0,2,,,,,1,,,75,0
23616,note_on,,,,,4,0,8,,,,,7,,,65,45
23616,note_on,,,,,4,0,4,,,,,3,,,68,60
23616,note_on,,,,,4,0,1,,,,,0,,,80,45
23616,note_on,,,,,4,0,3,,,,,2,,,80,60
23616,note_on,,,,,4,0,2,,,,,1,,,80,45
23616,note_on,,,,,4,0,5,,,,,4,,,65,45
23616,note_on,,,,,4,0,6,,,,,5,,,65,45
23804,note_off,,,,,188,0,1,,,,,0,,,80,0
23804,note_off,,,,,188,0,6,,,,,5,,,65,0
23804,note_off,,,,,188,0,3,,,,,2,,,80,0
23804,note_off,,,,,188,0,8,,,,,7,,,65,0
23804,note_off,,,,,188,0,5,,,,,4,,,65,0
23804,note_off,,,,,188,0,2,,,,,1,,,80,0
23808,note_on,,,,,4,0,6,,,,,5,,,60,45
23808,note_on,,,,,4,0,2,,,,,1,,,79,45
23808,note_on,,,,,4,0,8,,,,,7,,,60,45
23808,note_on,,,,,4,0,3,,,,,2,,,79,60
23808,note_on,,,,,4,0,5,,,,,4,,,60,45
23808,note_on,,,,,4,0,1,,,,,0,,,79,45
23900,note_off,,,,,92,0,3,,,,,2,,,79,0
23900,note_off,,,,,92,0,1,,,,,0,,,79,0
23900,note_off,,,,,92,0,2,,,,,1,,,79,0
23904,note_on,,,,,4,0,1,,,,,0,,,77,45
23904,note_on,,,,,4,0,3,,,,,2,,,77,60
23904,note_on,,,,,4,0,2,,,,,1,,,77,45
23936,note_off,,,,,320,0,4,,,,,3,,,68,0
23996,note_off,,,,,92,0,1,,,,,0,,,77,0
23996,note_off,,,,,92,0,2,,,,,1,,,77,0
23996,note_off,,,,,92,0,3,,,,,2,,,77,0
23996,note_off,,,,,188,0,8,,,,,7,,,60,0
23996,note_off,,,,,188,0,6,,,,,5,,,60,0
23996,note_off,,,,,188,0,5,,,,,4,,,60,0
24000,note_on,,,,,4,0,6,,,,,5,,,61,45
24000,note_on,,,,,4,0,1,,,,,0,,,75,45
24000,note_on,,,,,4,0,5,,,,,4,,,61,45
24000,note_on,,,,,64,0,4,,,,,3,,,68,60
24000,note_on,,,,,4,0,3,,,,,2,,,75,60
24000,note_on,,,,,4,0,2,,,,,1,,,75,45
24000,note_on,,,,,4,0,8,,,,,7,,,61,45
24092,note_off,,,,,92,0,3,,,,,2,,,75,0
24092,note_off,,,,,92,0,2,,,,,1,,,75,0
24092,note_off,,,,,92,0,1,,,,,0,,,75,0
24096,note_on,,,,,4,0,3,,,,,2,,,73,60
24096,note_on,,,,,4,0,2,,,,,1,,,73,45
24096,note_on,,,,,4,0,1,,,,,0,,,73,45
24188,note_off,,,,,92,0,3,,,,,2,,,73,0
24188,note_off,,,,,188,0,8,,,,,7,,,61,0
24188,note_off,,,,,188,0,5,,,,,4,,,61,0
24188,note_off,,,,,92,0,2,,,,,1,,,73,0
24188,note_off,,,,,188,0,6,,,,,5,,,61,0
24188,note_off,,,,,188,0,4,,,,,3,,,68,0
24188,note_off,,,,,92,0,1,,,,,0,,,73,0
24192,note_on,,,,,4,0,8,,,,,7,,,63,45
24192,note_on,,,,,4,0,4,,,,,3,,,68,60
24192,note_on,,,,,4,0,6,,,,,5,,,63,45
24192,note_on,,,,,4,0,5,,,,,4,,,63,45
24192,note_on,,,,,4,0,3,,,,,2,,,72,60
24192,note_on,,,,,4,0,1,,,,,0,,,72,45
24192,note_on,,,,,4,0,2,,,,,1,,,72,45
24380,note_off,,,,,188,0,3,,,,,2,,,72,0
24380,note_off,,,,,188,0,4,,,,,3,,,68,0
24380,note_off,,,,,188,0,2,,,,,1,,,72,0
24380,note_off,,,,,188,0,5,,,,,4,,,63,0
24380,note_off,,,,,188,0,6,,,,,5,,,63,0
24380,note_off,,,,,188,0,8,,,,,7,,,63,0
24380,note_off,,,,,188,0,1,,,,,0,,,72,0
24384,note_on,,,,,4,0,5,,,,,4,,,61,45
24384,note_on,,,,,4,0,6,,,,,5,,,61,45
24384,note_on,,,,,4,0,8,,,,,7,,,61,45
24384,note_on,,,,,4,0,3,,,,,2,,,73,60
24384,note_on,,,,,4,0,2,,,,,1,,,73,45
24384,note_on,,,,,4,0,4,,,,,3,,,70,60
24384,note_on,,,,,4,0,1,,,,,0,,,73,45
24572,note_off,,,,,188,0,1,,,,,0,,,73,0
24572,note_off,,,,,188,0,2,,,,,1,,,73,0
24572,note_off,,,,,188,0,6,,,,,5,,,61,0
24572,note_off,,,,,188,0,5,,,,,4,,,61,0
24572,note_off,,,,,188,0,8,,,,,7,,,61,0
24572,note_off,,,,,188,0,3,,,,,2,,,73,0
24572,note_off,,,,,188,0,4,,,,,3,,,70,0
24576,note_on,,,,,4,0,8,,,,,7,,,63,45
24576,note_on,,,,,4,0,5,,,,,4,,,63,45
24576,note_on,,,,,4,0,6,,,,,5,,,63,45
24576,note_on,,,,,4,0,4,,,,,3,,,67,60
24576,note_on,,,,,4,0,1,,,,,0,,,70,45
24576,note_on,,,,,4,0,2,,,,,1,,,70,45
24576,note_on,,,,,4,0,3,,,,,2,,,70,60
24764,note_off,,,,,188,0,8,,,,,7,,,63,0
24764,note_off,,,,,188,0,3,,,,,2,,,70,0
24764,note_off,,,,,188,0,5,,,,,4,,,63,0
24764,note_off,,,,,188,0,1,,,,,0,,,70,0
24764,note_off,,,,,188,0,4,,,,,3,,,67,0
24764,note_off,,,,,188,0,6,,,,,5,,,63,0
24764,note_off,,,,,188,0,2,,,,,1,,,70,0
24768,note_on,,,,,4,0,4,,,,,3,,,68,60
24768,note_on,,,,,4,0,3,,,,,2,,,68,60
24768,note_on,,,,,4,0,2,,,,,1,,,68,45
24768,note_on,,,,,4,0,8,,,,,7,,,56,45
24768,note_on,,,,,4,0,6,,,,,5,,,56,45
24768,note_on,,,,,4,0,1,,,,,0,,,68,45
24768,note_on,,,,,4,0,5,,,,,4,,,56,45
24956,note_off,,,,,188,0,8,,,,,7,,,56,0
24956,note_off,,,,,188,0,5,,,,,4,,,56,0
24956,note_off,,,,,188,0,6,,,,,5,,,56,0
24960,note_on,,,,,4,0,5,,,,,4,,,60,45
24960,note_on,,,,,4,0,6,,,,,5,,,60,45
24960,note_on,,,,,4,0,8,,,,,7,,,60,45
25052,note_off,,,,,92,0,5,,,,,4,,,60,0
25052,note_off,,,,,92,0,6,,,,,5,,,60,0
25052,note_off,,,,,92,0,8,,,,,7,,,60,0
25056,note_on,,,,,4,0,8,,,,,7,,,58,45
25056,note_on,,,,,4,0,6,,,,,5,,,58,45
25056,note_on,,,,,4,0,5,,,,,4,,,58,45
25148,note_off,,,,,92,0,6,,,,,5,,,58,0
25148,note_off,,,,,92,0,8,,,,,7,,,58,0
25148,note_off,,,,,92,0,5,,,,,4,,,58,0
25152,note_on,,,,,4,0,6,,,,,5,,,56,45
25152,note_on,,,,,4,0,8,,,,,7,,,56,45
25152,note_on,,,,,4,0,5,,,,,4,,,56,45
25244,note_off,,,,,92,0,5,,,,,4,,,56,0
25244,note_off,,,,,92,0,8,,,,,7,,,56,0
25244,note_off,,,,,92,0,6,,,,,5,,,56,0
25248,note_on,,,,,4,0,5,,,,,4,,,55,45
25248,note_on,,,,,4,0,8,,,,,7,,,55,45
25248,note_on,,,,,4,0,6,,,,,5,,,55,45
25280,note_off,,,,,512,0,4,,,,,3,,,68,0
25280,note_off,,,,,512,0,1,,,,,0,,,68,0
25280,note_off,,,,,512,0,2,,,,,1,,,68,0
25280,note_off,,,,,512,0,3,,,,,2,,,68,0
25340,note_off,,,,,92,0,6,,,,,5,,,55,0
25340,note_off,,,,,92,0,5,,,,,4,,,55,0
25340,note_off,,,,,92,0,8,,,,,7,,,55,0
25344,note_on,,,,,4,0,5,,,,,4,,,53,45
25344,note_on,,,,,4,0,8,,,,,7,,,53,45
25344,note_on,,,,,64,0,2,,,,,1,,,68,45
25344,note_on,,,,,64,0,1,,,,,0,,,68,45
25344,note_on,,,,,64,0,3,,,,,2,,,68,60
25344,note_on,,,,,64,0,4,,,,,3,,,60,60
25344,note_on,,,,,4,0,6,,,,,5,,,53,45
25436,note_off,,,,,92,0,3,,,,,2,,,68,0
25436,note_off,,,,,92,0,2,,,,,1,,,68,0
25436,note_off,,,,,92,0,1,,,,,0,,,68,0
25440,note_on,,,,,4,0,1,,,,,0,,,67,45
25440,note_on,,,,,4,0,3,,,,,2,,,67,60
25440,note_on,,,,,4,0,2,,,,,1,,,67,45
25532,note_off,,,,,188,0,4,,,,,3,,,60,0
25532,note_off,,,,,188,0,6,,,,,5,,,53,0
25532,note_off,,,,,92,0,2,,,,,1,,,67,0
25532,note_off,,,,,188,0,5,,,,,4,,,53,0
25532,note_off,,,,,92,0,1,,,,,0,,,67,0
25532,note_off,,,,,92,0,3,,,,,2,,,67,0
25532,note_off,,,,,188,0,8,,,,,7,,,53,0
25536,note_on,,,,,4,0,4,,,,,3,,,60,60
25536,note_on,,,,,4,0,6,,,,,5,,,56,45
25536,note_on,,,,,4,0,5,,,,,4,,,56,45
25536,note_on,,,,,4,0,1,,,,,0,,,65,45
25536,note_on,,,,,4,0,8,,,,,7,,,56,45
25536,note_on,,,,,4,0,2,,,,,1,,,65,45
25536,note_on,,,,,4,0,3,,,,,2,,,65,60
25628,note_off,,,,,92,0,1,,,,,0,,,65,0
25628,note_off,,,,,92,0,3,,,,,2,,,65,0
25628,note_off,,,,,92,0,2,,,,,1,,,65,0
25632,note_on,,,,,4,0,3,,,,,2,,,67,60
25632,note_on,,,,,4,0,2,,,,,1,,,67,45
25632,note_on,,,,,4,0,1,,,,,0,,,67,45
25724,note_off,,,,,92,0,3,,,,,2,,,67,0
25724,note_off,,,,,188,0,6,,,,,5,,,56,0
25724,note_off,,,,,188,0,4,,,,,3,,,60,0
25724,note_off,,,,,92,0,2,,,,,1,,,67,0
25724,note_off,,,,,188,0,5,,,,,4,,,56,0
25724,note_off,,,,,188,0,8,,,,,7,,,56,0
25724,note_off,,,,,92,0,1,,,,,0,,,67,0
25728,note_on,,,,,4,0,8,,,,,7,,,53,45
25728,note_on,,,,,4,0,2,,,,,1,,,68,45
25728,note_on,,,,,4,0,3,,,,,2,,,68,60
25728,note_on,,,,,4,0,4,,,,,3,,,65,60
25728,note_on,,,,,4,0,6,,,,,5,,,53,45
25728,note_on,,,,,4,0,1,,,,,0,,,68,45
25728,note_on,,,,,4,0,5,,,,,4,,,53,45
25820,note_off,,,,,92,0,2,,,,,1,,,68,0
25820,note_off,,,,,92,0,1,,,,,0,,,68,0
25820,note_off,,,,,92,0,3,,,,,2,,,68,0
25824,note_on,,,,,4,0,3,,,,,2,,,65,60
25824,note_on,,,,,4,0,1,,,,,0,,,65,45
25824,note_on,,,,,4,0,2,,,,,1,,,65,45
25916,note_off,,,,,92,0,2,,,,,1,,,65,0
25916,note_off,,,,,188,0,8,,,,,7,,,53,0
25916,note_off,,,,,188,0,6,,,,,5,,,53,0
25916,note_off,,,,,92,0,3,,,,,2,,,65,0
25916,note_off,,,,,188,0,5,,,,,4,,,53,0
25916,note_off,,,,,92,0,1,,,,,0,,,65,0
25916,note_off,,,,,188,0,4,,,,,3,,,65,0
25920,note_on,,,,,4,0,1,,,,,0,,,70,45
25920,note_on,,,,,4,0,4,,,,,3,,,65,60
25920,note_on,,,,,4,0,6,,,,,5,,,55,45
25920,note_on,,,,,4,0,3,,,,,2,,,70,60
25920,note_on,,,,,4,0,5,,,,,4,,,55,45
25920,note_on,,,,,4,0,2,,,,,1,,,70,45
25920,note_on,,,,,4,0,8,,,,,7,,,55,45
26012,note_off,,,,,92,0,3,,,,,2,,,70,0
26012,note_off,,,,,92,0,2,,,,,1,,,70,0
26012,note_off,,,,,92,0,1,,,,,0,,,70,0
26016,note_on,,,,,4,0,1,,,,,0,,,68,45
26016,note_on,,,,,4,0,3,,,,,2,,,68,60
26016,note_on,,,,,4,0,2,,,,,1,,,68,45
26108,note_off,,,,,188,0,5,,,,,4,,,55,0
26108,note_off,,,,,188,0,6,,,,,5,,,55,0
26108,note_off,,,,,92,0,1,,,,,0,,,68,0
26108,note_off,,,,,92,0,2,,,,,1,,,68,0
26108,note_off,,,,,188,0,8,,,,,7,,,55,0
26108,note_off,,,,,92,0,3,,,,,2,,,68,0
26108,note_off,,,,,188,0,4,,,,,3,,,65,0
26112,note_on,,,,,4,0,1,,,,,0,,,67,45
26112,note_on,,,,,4,0,2,,,,,1,,,67,45
26112,note_on,,,,,4,0,6,,,,,5,,,60,45
26112,note_on,,,,,4,0,8,,,,,7,,,60,45
26112,note_on,,,,,4,0,5,,,,,4,,,60,45
26112,note_on,,,,,4,0,4,,,,,3,,,64,60
26112,note_on,,,,,4,0,3,,,,,2,,,67,60
26204,note_off,,,,,92,0,2,,,,,1,,,67,0
26204,note_off,,,,,92,0,1,,,,,0,,,67,0
26204,note_off,,,,,92,0,3,,,,,2,,,67,0
26208,note_on,,,,,4,0,3,,,,,2,,,68,60
26208,note_on,,,,,4,0,1,,,,,0,,,68,45
26208,note_on,,,,,4,0,2,,,,,1,,,68,45
26300,note_off,,,,,188,0,8,,,,,7,,,60,0
26300,note_off,,,,,188,0,5,,,,,4,,,60,0
26300,note_off,,,,,92,0,1,,,,,0,,,68,0
26300,note_off,,,,,188,0,6,,,,,5,,,60,0
26300,note_off,,,,,188,0,4,,,,,3,,,64,0
26300,note_off,,,,,92,0,2,,,,,1,,,68,0
26300,note_off,,,,,92,0,3,,,,,2,,,68,0
26304,note_on,,,,,4,0,4,,,,,3,,,67,60
26304,note_on,,,,,4,0,5,,,,,4,,,58,45
26304,note_on,,,,,4,0,8,,,,,7,,,58,45
26304,note_on,,,,,4,0,2,,,,,1,,,70,45
26304,note_on,,,,,4,0,6,,,,,5,,,58,45
26304,note_on,,,,,4,0,1,,,,,0,,,70,45
26304,note_on,,,,,4,0,3,,,,,2,,,70,60
26396,note_off,,,,,92,0,3,,,,,2,,,70,0
26396,note_off,,,,,92,0,2,,,,,1,,,70,0
26396,note_off,,,,,92,0,1,,,,,0,,,70,0
26400,note_on,,,,,4,0,1,,,,,0,,,67,45
26400,note_on,,,,,4,0,2,,,,,1,,,67,45
26400,note_on,,,,,4,0,3,,,,,2,,,67,60
26492,note_off,,,,,92,0,2,,,,,1,,,67,0
26492,note_off,,,,,188,0,8,,,,,7,,,58,0
26492,note_off,,,,,188,0,4,,,,,3,,,67,0
26492,note_off,,,,,92,0,1,,,,,0,,,67,0
26492,note_off,,,,,188,0,6,,,,,5,,,58,0
26492,note_off,,,,,188,0,5,,,,,4,,,58,0
26492,note_off,,,,,92,0,3,,,,,2,,,67,0
26496,note_on,,,,,4,0,2,,,,,1,,,72,45
26496,note_on,,,,,4,0,1,,,,,0,,,72,45
26496,note_on,,,,,4,0,8,,,,,7,,,56,45
26496,note_on,,,,,4,0,6,,,,,5,,,56,45
26496,note_on,,,,,4,0,4,,,,,3,,,65,60
26496,note_on,,,,,4,0,3,,,,,2,,,72,60
26496,note_on,,,,,4,0,5,,,,,4,,,56,45
26684,note_off,,,,,188,0,8,,,,,7,,,56,0
26684,note_off,,,,,188,0,2,,,,,1,,,72,0
26684,note_off,,,,,188,0,6,,,,,5,,,56,0
26684,note_off,,,,,188,0,1,,,,,0,,,72,0
26684,note_off,,,,,188,0,5,,,,,4,,,56,0
26684,note_off,,,,,188,0,3,,,,,2,,,72,0
26684,note_off,,,,,188,0,4,,,,,3,,,65,0
26688,note_on,,,,,4,0,8,,,,,7,,,55,45
26688,note_on,,,,,4,0,3,,,,,2,,,77,60
26688,note_on,,,,,4,0,5,,,,,4,,,55,45
26688,note_on,,,,,4,0,1,,,,,0,,,77,45
26688,note_on,,,,,4,0,6,,,,,5,,,55,45
26688,note_on,,,,,4,0,2,,,,,1,,,77,45
26780,note_off,,,,,92,0,2,,,,,1,,,77,0
26780,note_off,,,,,92,0,1,,,,,0,,,77,0
26780,note_off,,,,,92,0,3,,,,,2,,,77,0
26784,note_on,,,,,4,0,1,,,,,0,,,76,45
26784,note_on,,,,,4,0,2,,,,,1,,,76,45
26784,note_on,,,,,4,0,3,,,,,2,,,76,60
26784,note_on,,,,,100,0,4,,,,,3,,,67,60
26876,note_off,,,,,92,0,2,,,,,1,,,76,0
26876,note_off,,,,,92,0,1,,,,,0,,,76,0
26876,note_off,,,,,92,0,4,,,,,3,,,67,0
26876,note_off,,,,,188,0,8,,,,,7,,,55,0
26876,note_off,,,,,92,0,3,,,,,2,,,76,0
26876,note_off,,,,,188,0,6,,,,,5,,,55,0
26876,note_off,,,,,188,0,5,,,,,4,,,55,0
26880,note_on,,,,,4,0,8,,,,,7,,,53,45
26880,note_on,,,,,4,0,4,,,,,3,,,68,60
26880,note_on,,,,,4,0,6,,,,,5,,,53,45
26880,note_on,,,,,4,0,2,,,,,1,,,77,45
26880,note_on,,,,,4,0,3,,,,,2,,,77,60
26880,note_on,,,,,4,0,5,,,,,4,,,53,45
26880,note_on,,,,,4,0,1,,,,,0,,,77,45
26972,note_off,,,,,92,0,1,,,,,0,,,77,0
26972,note_off,,,,,92,0,3,,,,,2,,,77,0
26972,note_off,,,,,92,0,2,,,,,1,,,77,0
26972,note_off,,,,,92,0,4,,,,,3,,,68,0
26976,note_on,,,,,4,0,3,,,,,2,,,79,60
26976,note_on,,,,,4,0,4,,,,,3,,,70,60
26976,note_on,,,,,4,0,2,,,,,1,,,79,45
26976,note_on,,,,,4,0,1,,,,,0,,,79,45
27068,note_off,,,,,188,0,8,,,,,7,,,53,0
27068,note_off,,,,,188,0,5,,,,,4,,,53,0
27068,note_off,,,,,188,0,6,,,,,5,,,53,0
27068,note_off,,,,,92,0,3,,,,,2,,,79,0
27068,note_off,,,,,92,0,2,,,,,1,,,79,0
27068,note_off,,,,,92,0,4,,,,,3,,,70,0
27068,note_off,,,,,92,0,1,,,,,0,,,79,0
27072,note_on,,,,,4,0,2,,,,,1,,,76,45
27072,note_on,,,,,4,0,5,,,,,4,,,60,45
27072,note_on,,,,,4,0,8,,,,,7,,,60,45
27072,note_on,,,,,4,0,3,,,,,2,,,76,60
27072,note_on,,,,,4,0,6,,,,,5,,,60,45
27072,note_on,,,,,4,0,4,,,,,3,,,67,60
27072,note_on,,,,,4,0,1,,,,,0,,,76,45
27584,note_off,,,,,512,0,8,,,,,7,,,60,0
27584,note_off,,,,,512,0,2,,,,,1,,,76,0
27584,note_off,,,,,512,0,4,,,,,3,,,67,0
27584,note_off,,,,,512,0,3,,,,,2,,,76,0
27584,note_off,,,,,512,0,5,,,,,4,,,60,0
27584,note_off,,,,,512,0,6,,,,,5,,,60,0
27584,note_off,,,,,512,0,1,,,,,0,,,76,0
27648,note_on,,,,,0,0,6,,,,,5,,,57,92
27648,key_signature,,,,,64,1,4,,,,,,,F,,
27648,note_on,,,,,0,0,4,,,,,3,,,72,108
27648,note_on,,,,,0,0,1,,,,,0,,,77,75
27648,key_signature,,,,,64,1,6,,,,,,,F,,
27648,key_signature,,,,,64,1,3,,,,,,,F,,
27648,note_on,,,,,0,0,3,,,,,2,,,77,108
27648,key_signature,,,,,64,1,8,,,,,,,F,,
27648,key_signature,,,,,4608,1,7,,,,,,,F,,
27648,key_signature,,,,,64,1,2,,,,,,,F,,
27648,note_on,,,,,0,0,8,,,,,7,,,57,45
27648,note_on,,,,,0,0,5,,,,,4,,,65,92
27648,key_signature,,,,,64,1,5,,,,,,,F,,
27648,note_on,,,,,0,0,2,,,,,1,,,77,75
27648,key_signature,,,,,64,1,1,,,,,,,F,,
27648,note_on,,,,,0,0,7,,,,,6,,,45,75
27740,note_off,,,,,92,0,3,,,,,2,,,77,0
27740,note_off,,,,,92,0,1,,,,,0,,,77,0
27740,note_off,,,,,92,0,2,,,,,1,,,77,0
27744,note_on,,,,,4,0,2,,,,,1,,,79,75
27744,note_on,,,,,4,0,3,,,,,2,,,79,108
27744,note_on,,,,,4,0,1,,,,,0,,,79,75
27836,note_off,,,,,92,0,3,,,,,2,,,79,0
27836,note_off,,,,,188,0,7,,,,,6,,,45,0
27836,note_off,,,,,92,0,2,,,,,1,,,79,0
27836,note_off,,,,,188,0,5,,,,,4,,,65,0
27836,note_off,,,,,188,0,8,,,,,7,,,57,0
27836,note_off,,,,,188,0,6,,,,,5,,,57,0
27836,note_off,,,,,92,0,1,,,,,0,,,79,0
27840,note_on,,,,,4,0,2,,,,,1,,,81,75
27840,note_on,,,,,4,0,6,,,,,5,,,53,92
27840,note_on,,,,,4,0,7,,,,,6,,,41,75
27840,note_on,,,,,4,0,5,,,,,4,,,60,92
27840,note_on,,,,,4,0,3,,,,,2,,,81,108
27840,note_on,,,,,4,0,1,,,,,0,,,81,75
27840,note_on,,,,,4,0,8,,,,,7,,,53,45
27968,note_off,,,,,320,0,4,,,,,3,,,72,0
28028,note_off,,,,,188,0,2,,,,,1,,,81,0
28028,note_off,,,,,188,0,7,,,,,6,,,41,0
28028,note_off,,,,,188,0,1,,,,,0,,,81,0
28028,note_off,,,,,188,0,6,,,,,5,,,53,0
28028,note_off,,,,,188,0,5,,,,,4,,,60,0
28028,note_off,,,,,188,0,8,,,,,7,,,53,0
28028,note_off,,,,,188,0,3,,,,,2,,,81,0
28032,note_on,,,,,4,0,8,,,,,7,,,57,45
28032,note_on,,,,,4,0,7,,,,,6,,,45,75
28032,note_on,,,,,4,0,5,,,,,4,,,60,92
28032,note_on,,,,,4,0,1,,,,,0,,,72,75
28032,note_on,,,,,64,0,4,,,,,3,,,65,108
28032,note_on,,,,,4,0,2,,,,,1,,,72,75
28032,note_on,,,,,4,0,3,,,,,2,,,72,108
28032,note_on,,,,,4,0,6,,,,,5,,,57,92
28220,note_off,,,,,188,0,8,,,,,7,,,57,0
28220,note_off,,,,,188,0,7,,,,,6,,,45,0
28220,note_off,,,,,188,0,3,,,,,2,,,72,0
28220,note_off,,,,,188,0,1,,,,,0,,,72,0
28220,note_off,,,,,188,0,6,,,,,5,,,57,0
28220,note_off,,,,,188,0,4,,,,,3,,,65,0
28220,note_off,,,,,188,0,2,,,,,1,,,72,0
28220,note_off,,,,,188,0,5,,,,,4,,,60,0
28224,note_on,,,,,4,0,3,,,,,2,,,70,108
28224,note_on,,,,,4,0,8,,,,,7,,,50,45
28224,note_on,,,,,4,0,7,,,,,6,,,38,75
28224,note_on,,,,,4,0,6,,,,,5,,,50,92
28224,note_on,,,,,4,0,2,,,,,1,,,70,75
28224,note_on,,,,,4,0,5,,,,,4,,,62,92
28224,note_on,,,,,4,0,4,,,,,3,,,65,108
28224,note_on,,,,,4,0,1,,,,,0,,,70,75
28412,note_off,,,,,188,0,3,,,,,2,,,70,0
28412,note_off,,,,,188,0,1,,,,,0,,,70,0
28412,note_off,,,,,188,0,5,,,,,4,,,62,0
28412,note_off,,,,,188,0,2,,,,,1,,,70,0
28416,note_on,,,,,4,0,3,,,,,2,,,81,108
28416,note_on,,,,,4,0,2,,,,,1,,,81,75
28416,note_on,,,,,4,0,1,,,,,0,,,81,75
28416,note_on,,,,,4,0,5,,,,,4,,,65,92
28544,note_off,,,,,320,0,6,,,,,5,,,50,0
28544,note_off,,,,,320,0,4,,,,,3,,,65,0
28544,note_off,,,,,320,0,7,,,,,6,,,38,0
28544,note_off,,,,,320,0,8,,,,,7,,,50,0
28604,note_off,,,,,188,0,1,,,,,0,,,81,0
28604,note_off,,,,,188,0,3,,,,,2,,,81,0
28604,note_off,,,,,188,0,2,,,,,1,,,81,0
28604,note_off,,,,,188,0,5,,,,,4,,,65,0
28608,note_on,,,,,4,0,2,,,,,1,,,79,75
28608,note_on,,,,,64,0,8,,,,,7,,,52,45
28608,note_on,,,,,4,0,5,,,,,4,,,67,92
28608,note_on,,,,,4,0,1,,,,,0,,,79,75
28608,note_on,,,,,64,0,7,,,,,6,,,40,75
28608,note_on,,,,,64,0,6,,,,,5,,,52,92
28608,note_on,,,,,64,0,4,,,,,3,,,72,108
28608,note_on,,,,,4,0,3,,,,,2,,,79,108
28796,note_off,,,,,188,0,8,,,,,7,,,52,0
28796,note_off,,,,,188,0,4,,,,,3,,,72,0
28796,note_off,,,,,188,0,7,,,,,6,,,40,0
28796,note_off,,,,,188,0,5,,,,,4,,,67,0
28796,note_off,,,,,188,0,6,,,,,5,,,52,0
28796,note_off,,,,,188,0,2,,,,,1,,,79,0
28796,note_off,,,,,188,0,3,,,,,2,,,79,0
28796,note_off,,,,,188,0,1,,,,,0,,,79,0
28800,note_on,,,,,4,0,5,,,,,4,,,65,92
28800,note_on,,,,,4,0,6,,,,,5,,,53,92
28800,note_on,,,,,4,0,2,,,,,1,,,69,75
28800,note_on,,,,,4,0,7,,,,,6,,,41,75
28800,note_on,,,,,4,0,1,,,,,0,,,69,75
28800,note_on,,,,,4,0,3,,,,,2,,,69,108
28800,note_on,,,,,4,0,4,,,,,3,,,60,108
28800,note_on,,,,,4,0,8,,,,,7,,,53,45
28892,note_off,,,,,92,0,1,,,,,0,,,69,0
28892,note_off,,,,,92,0,3,,,,,2,,,69,0
28892,note_off,,,,,92,0,2,,,,,1,,,69,0
28896,note_on,,,,,4,0,3,,,,,2,,,79,108
28896,note_on,,,,,4,0,2,,,,,1,,,79,75
28896,note_on,,,,,4,0,1,,,,,0,,,79,75
28988,note_off,,,,,92,0,2,,,,,1,,,79,0
28988,note_off,,,,,188,0,8,,,,,7,,,53,0
28988,note_off,,,,,188,0,5,,,,,4,,,65,0
28988,note_off,,,,,188,0,7,,,,,6,,,41,0
28988,note_off,,,,,92,0,1,,,,,0,,,79,0
28988,note_off,,,,,92,0,3,,,,,2,,,79,0
28988,note_off,,,,,188,0,6,,,,,5,,,53,0
28992,note_on,,,,,4,0,1,,,,,0,,,77,75
28992,note_on,,,,,4,0,2,,,,,1,,,77,75
28992,note_on,,,,,4,0,3,,,,,2,,,77,108
28992,note_on,,,,,4,0,8,,,,,7,,,55,45
28992,note_on,,,,,4,0,6,,,,,5,,,55,92
28992,note_on,,,,,4,0,5,,,,,4,,,70,92
28992,note_on,,,,,4,0,7,,,,,6,,,43,75
29084,note_off,,,,,92,0,1,,,,,0,,,77,0
29084,note_off,,,,,92,0,3,,,,,2,,,77,0
29084,note_off,,,,,92,0,2,,,,,1,,,77,0
29088,note_on,,,,,4,0,1,,,,,0,,,76,75
29088,note_on,,,,,4,0,3,,,,,2,,,76,108
29088,note_on,,,,,4,0,2,,,,,1,,,76,75
29120,note_off,,,,,320,0,4,,,,,3,,,60,0
29180,note_off,,,,,92,0,3,,,,,2,,,76,0
29180,note_off,,,,,188,0,5,,,,,4,,,70,0
29180,note_off,,,,,188,0,7,,,,,6,,,43,0
29180,note_off,,,,,92,0,2,,,,,1,,,76,0
29180,note_off,,,,,188,0,6,,,,,5,,,55,0
29180,note_off,,,,,188,0,8,,,,,7,,,55,0
29180,note_off,,,,,92,0,1,,,,,0,,,76,0
29184,note_on,,,,,4,0,7,,,,,6,,,45,75
29184,note_on,,,,,4,0,5,,,,,4,,,69,92
29184,note_on,,,,,4,0,6,,,,,5,,,57,92
29184,note_on,,,,,4,0,2,,,,,1,,,77,75
29184,note_on,,,,,4,0,8,,,,,7,,,57,45
29184,note_on,,,,,4,0,1,,,,,0,,,77,75
29184,note_on,,,,,4,0,3,,,,,2,,,77,108
29184,note_on,,,,,64,0,4,,,,,3,,,72,108
29276,note_off,,,,,92,0,1,,,,,0,,,77,0
29276,note_off,,,,,92,0,2,,,,,1,,,77,0
29276,note_off,,,,,92,0,3,,,,,2,,,77,0
29280,note_on,,,,,4,0,3,,,,,2,,,72,108
29280,note_on,,,,,4,0,2,,,,,1,,,72,75
29280,note_on,,,,,4,0,1,,,,,0,,,72,75
29372,note_off,,,,,188,0,4,,,,,3,,,72,0
29372,note_off,,,,,92,0,2,,,,,1,,,72,0
29372,note_off,,,,,92,0,3,,,,,2,,,72,0
29372,note_off,,,,,188,0,5,,,,,4,,,69,0
29372,note_off,,,,,92,0,1,,,,,0,,,72,0
29372,note_off,,,,,188,0,8,,,,,7,,,57,0
29372,note_off,,,,,188,0,6,,,,,5,,,57,0
29372,note_off,,,,,188,0,7,,,,,6,,,45,0
29376,note_on,,,,,4,0,5,,,,,4,,,74,92
29376,note_on,,,,,4,0,4,,,,,3,,,65,108
29376,note_on,,,,,4,0,8,,,,,7,,,58,45
29376,note_on,,,,,4,0,1,,,,,0,,,74,75
29376,note_on,,,,,4,0,2,,,,,1,,,74,75
29376,note_on,,,,,4,0,7,,,,,6,,,46,75
29376,note_on,,,,,4,0,6,,,,,5,,,58,92
29376,note_on,,,,,4,0,3,,,,,2,,,74,108
29564,note_off,,,,,188,0,7,,,,,6,,,46,0
29564,note_off,,,,,188,0,8,,,,,7,,,58,0
29564,note_off,,,,,188,0,6,,,,,5,,,58,0
29564,note_off,,,,,188,0,2,,,,,1,,,74,0
29564,note_off,,,,,188,0,1,,,,,0,,,74,0
29564,note_off,,,,,188,0,3,,,,,2,,,74,0
29568,note_on,,,,,4,0,7,,,,,6,,,34,75
29568,note_on,,,,,4,0,1,,,,,0,,,86,75
29568,note_on,,,,,4,0,6,,,,,5,,,46,92
29568,note_on,,,,,4,0,2,,,,,1,,,86,75
29568,note_on,,,,,4,0,3,,,,,2,,,86,108
29568,note_on,,,,,4,0,8,,,,,7,,,46,45
29696,note_off,,,,,320,0,5,,,,,4,,,74,0
29696,note_off,,,,,320,0,4,,,,,3,,,65,0
29756,note_off,,,,,188,0,3,,,,,2,,,86,0
29756,note_off,,,,,188,0,6,,,,,5,,,46,0
29756,note_off,,,,,188,0,2,,,,,1,,,86,0
29756,note_off,,,,,188,0,7,,,,,6,,,34,0
29756,note_off,,,,,188,0,8,,,,,7,,,46,0
29756,note_off,,,,,188,0,1,,,,,0,,,86,0
29760,note_on,,,,,4,0,3,,,,,2,,,84,108
29760,note_on,,,,,4,0,1,,,,,0,,,84,75
29760,note_on,,,,,4,0,2,,,,,1,,,84,75
29760,note_on,,,,,64,0,5,,,,,4,,,67,92
29760,note_on,,,,,4,0,6,,,,,5,,,48,92
29760,note_on,,,,,4,0,7,,,,,6,,,36,75
29760,note_on,,,,,4,0,8,,,,,7,,,48,45
29760,note_on,,,,,64,0,4,,,,,3,,,64,108
29948,note_off,,,,,188,0,2,,,,,1,,,84,0
29948,note_off,,,,,188,0,5,,,,,4,,,67,0
29948,note_off,,,,,188,0,4,,,,,3,,,64,0
29948,note_off,,,,,188,0,8,,,,,7,,,48,0
29948,note_off,,,,,188,0,6,,,,,5,,,48,0
29948,note_off,,,,,188,0,3,,,,,2,,,84,0
29948,note_off,,,,,188,0,1,,,,,0,,,84,0
29948,note_off,,,,,188,0,7,,,,,6,,,36,0
29952,note_on,,,,,4,0,7,,,,,6,,,38,75
29952,note_on,,,,,4,0,6,,,,,5,,,50,92
29952,note_on,,,,,4,0,5,,,,,4,,,65,92
29952,note_on,,,,,4,0,1,,,,,0,,,82,75
29952,note_on,,,,,4,0,2,,,,,1,,,82,75
29952,note_on,,,,,4,0,3,,,,,2,,,82,108
29952,note_on,,,,,4,0,4,,,,,3,,,65,108
29952,note_on,,,,,4,0,8,,,,,7,,,50,45
30044,note_off,,,,,92,0,1,,,,,0,,,82,0
30044,note_off,,,,,92,0,3,,,,,2,,,82,0
30044,note_off,,,,,92,0,2,,,,,1,,,82,0
30048,note_on,,,,,4,0,2,,,,,1,,,81,75
30048,note_on,,,,,4,0,3,,,,,2,,,81,108
30048,note_on,,,,,4,0,1,,,,,0,,,81,75
30140,note_off,,,,,92,0,2,,,,,1,,,81,0
30140,note_off,,,,,92,0,1,,,,,0,,,81,0
30140,note_off,,,,,188,0,7,,,,,6,,,38,0
30140,note_off,,,,,188,0,5,,,,,4,,,65,0
30140,note_off,,,,,188,0,8,,,,,7,,,50,0
30140,note_off,,,,,188,0,4,,,,,3,,,65,0
30140,note_off,,,,,92,0,3,,,,,2,,,81,0
30140,note_off,,,,,188,0,6,,,,,5,,,50,0
30144,note_on,,,,,4,0,2,,,,,1,,,79,75
30144,note_on,,,,,4,0,4,,,,,3,,,74,108
30144,note_on,,,,,4,0,7,,,,,6,,,46,75
30144,note_on,,,,,4,0,3,,,,,2,,,79,108
30144,note_on,,,,,4,0,8,,,,,7,,,58,45
30144,note_on,,,,,4,0,5,,,,,4,,,70,92
30144,note_on,,,,,4,0,1,,,,,0,,,79,75
30144,note_on,,,,,4,0,6,,,,,5,,,58,92
30236,note_off,,,,,92,0,3,,,,,2,,,79,0
30236,note_off,,,,,92,0,2,,,,,1,,,79,0
30236,note_off,,,,,92,0,1,,,,,0,,,79,0
30240,note_on,,,,,4,0,3,,,,,2,,,77,108
30240,note_on,,,,,4,0,1,,,,,0,,,77,75
30240,note_on,,,,,4,0,2,,,,,1,,,77,75
30332,note_off,,,,,188,0,6,,,,,5,,,58,0
30332,note_off,,,,,188,0,4,,,,,3,,,74,0
30332,note_off,,,,,188,0,8,,,,,7,,,58,0
30332,note_off,,,,,188,0,7,,,,,6,,,46,0
30332,note_off,,,,,92,0,1,,,,,0,,,77,0
30332,note_off,,,,,92,0,3,,,,,2,,,77,0
30332,note_off,,,,,92,0,2,,,,,1,,,77,0
30336,note_on,,,,,4,0,1,,,,,0,,,76,75
30336,note_on,,,,,4,0,8,,,,,7,,,55,45
30336,note_on,,,,,4,0,2,,,,,1,,,76,75
30336,note_on,,,,,4,0,3,,,,,2,,,76,108
30336,note_on,,,,,4,0,4,,,,,3,,,70,108
30336,note_on,,,,,4,0,7,,,,,6,,,43,75
30336,note_on,,,,,4,0,6,,,,,5,,,55,92
30428,note_off,,,,,92,0,1,,,,,0,,,76,0
30428,note_off,,,,,92,0,3,,,,,2,,,76,0
30428,note_off,,,,,92,0,2,,,,,1,,,76,0
30432,note_on,,,,,4,0,3,,,,,2,,,74,108
30432,note_on,,,,,4,0,1,,,,,0,,,74,75
30432,note_on,,,,,4,0,2,,,,,1,,,74,75
30464,note_off,,,,,320,0,5,,,,,4,,,70,0
30524,note_off,,,,,188,0,6,,,,,5,,,55,0
30524,note_off,,,,,92,0,2,,,,,1,,,74,0
30524,note_off,,,,,92,0,3,,,,,2,,,74,0
30524,note_off,,,,,92,0,1,,,,,0,,,74,0
30524,note_off,,,,,188,0,7,,,,,6,,,43,0
30524,note_off,,,,,188,0,8,,,,,7,,,55,0
30524,note_off,,,,,188,0,4,,,,,3,,,70,0
30528,note_on,,,,,4,0,7,,,,,6,,,40,75
30528,note_on,,,,,4,0,8,,,,,7,,,52,45
30528,note_on,,,,,64,0,5,,,,,4,,,60,92
30528,note_on,,,,,4,0,4,,,,,3,,,67,108
30528,note_on,,,,,4,0,1,,,,,0,,,72,75
30528,note_on,,,,,4,0,2,,,,,1,,,72,75
30528,note_on,,,,,4,0,6,,,,,5,,,52,92
30528,note_on,,,,,4,0,3,,,,,2,,,72,108
30716,note_off,,,,,188,0,4,,,,,3,,,67,0
30716,note_off,,,,,188,0,3,,,,,2,,,72,0
30716,note_off,,,,,188,0,7,,,,,6,,,40,0
30716,note_off,,,,,188,0,8,,,,,7,,,52,0
30716,note_off,,,,,188,0,2,,,,,1,,,72,0
30716,note_off,,,,,188,0,1,,,,,0,,,72,0
30716,note_off,,,,,188,0,6,,,,,5,,,52,0
30720,note_on,,,,,4,0,4,,,,,3,,,60,108
30720,note_on,,,,,4,0,2,,,,,1,,,70,75
30720,note_on,,,,,4,0,3,,,,,2,,,70,108
30720,note_on,,,,,4,0,8,,,,,7,,,53,45
30720,note_on,,,,,4,0,1,,,,,0,,,70,75
30720,note_on,,,,,4,0,7,,,,,6,,,41,75
30720,note_on,,,,,4,0,6,,,,,5,,,53,92
30812,note_off,,,,,92,0,2,,,,,1,,,70,0
30812,note_off,,,,,92,0,3,,,,,2,,,70,0
30812,note_off,,,,,92,0,1,,,,,0,,,70,0
30816,note_on,,,,,4,0,2,,,,,1,,,69,75
30816,note_on,,,,,4,0,3,,,,,2,,,69,108
30816,note_on,,,,,4,0,1,,,,,0,,,69,75
30848,note_off,,,,,320,0,5,,,,,4,,,60,0
30908,note_off,,,,,92,0,2,,,,,1,,,69,0
30908,note_off,,,,,188,0,4,,,,,3,,,60,0
30908,note_off,,,,,92,0,3,,,,,2,,,69,0
30908,note_off,,,,,188,0,8,,,,,7,,,53,0
30908,note_off,,,,,188,0,7,,,,,6,,,41,0
30908,note_off,,,,,92,0,1,,,,,0,,,69,0
30908,note_off,,,,,188,0,6,,,,,5,,,53,0
30912,note_on,,,,,4,0,3,,,,,2,,,67,108
30912,note_on,,,,,4,0,2,,,,,1,,,67,75
30912,note_on,,,,,4,0,8,,,,,7,,,50,45
30912,note_on,,,,,4,0,6,,,,,5,,,50,92
30912,note_on,,,,,4,0,1,,,,,0,,,67,75
30912,note_on,,,,,4,0,7,,,,,6,,,38,75
30912,note_on,,,,,64,0,5,,,,,4,,,62,92
30912,note_on,,,,,4,0,4,,,,,3,,,65,108
31004,note_off,,,,,92,0,1,,,,,0,,,67,0
31004,note_off,,,,,92,0,3,,,,,2,,,67,0
31004,note_off,,,,,92,0,2,,,,,1,,,67,0
31008,note_on,,,,,4,0,2,,,,,1,,,65,75
31008,note_on,,,,,4,0,3,,,,,2,,,65,108
31008,note_on,,,,,4,0,1,,,,,0,,,65,75
31100,note_off,,,,,92,0,3,,,,,2,,,65,0
31100,note_off,,,,,188,0,5,,,,,4,,,62,0
31100,note_off,,,,,92,0,1,,,,,0,,,65,0
31100,note_off,,,,,188,0,7,,,,,6,,,38,0
31100,note_off,,,,,188,0,8,,,,,7,,,50,0
31100,note_off,,,,,188,0,6,,,,,5,,,50,0
31100,note_off,,,,,188,0,4,,,,,3,,,65,0
31100,note_off,,,,,92,0,2,,,,,1,,,65,0
31104,note_on,,,,,4,0,3,,,,,2,,,67,108
31104,note_on,,,,,4,0,7,,,,,6,,,34,75
31104,note_on,,,,,4,0,1,,,,,0,,,67,75
31104,note_on,,,,,4,0,6,,,,,5,,,46,92
31104,note_on,,,,,4,0,8,,,,,7,,,46,45
31104,note_on,,,,,4,0,5,,,,,4,,,55,92
31104,note_on,,,,,4,0,2,,,,,1,,,67,75
31104,note_on,,,,,4,0,4,,,,,3,,,62,108
31292,note_off,,,,,188,0,5,,,,,4,,,55,0
31292,note_off,,,,,188,0,6,,,,,5,,,46,0
31292,note_off,,,,,188,0,7,,,,,6,,,34,0
31292,note_off,,,,,188,0,3,,,,,2,,,67,0
31292,note_off,,,,,188,0,1,,,,,0,,,67,0
31292,note_off,,,,,188,0,4,,,,,3,,,62,0
31292,note_off,,,,,188,0,8,,,,,7,,,46,0
31292,note_off,,,,,188,0,2,,,,,1,,,67,0
31296,note_on,,,,,4,0,4,,,,,3,,,60,108
31296,note_on,,,,,4,0,2,,,,,1,,,65,75
31296,note_on,,,,,4,0,5,,,,,4,,,55,92
31296,set_tempo,,,,,8832,1,0,,1714285,,,,,,,
31296,note_on,,,,,4,0,7,,,,,6,,,36,75
31296,note_on,,,,,4,0,3,,,,,2,,,65,108
31296,note_on,,,,,4,0,1,,,,,0,,,65,75
31296,note_on,,,,,4,0,6,,,,,5,,,48,92
31296,note_on,,,,,4,0,8,,,,,7,,,48,45
31320,note_on,,,,,0,0,2,,,,,1,,,64,75
31320,note_off,,,,,24,0,2,,,,,1,,,65,0
31320,note_off,,,,,24,0,3,,,,,2,,,65,0
31320,note_on,,,,,0,0,3,,,,,2,,,64,108
31320,note_on,,,,,0,0,1,,,,,0,,,64,75
31320,note_off,,,,,24,0,1,,,,,0,,,65,0
31344,note_off,,,,,24,0,1,,,,,0,,,64,0
31344,note_on,,,,,0,0,1,,,,,0,,,65,75
31344,note_off,,,,,24,0,3,,,,,2,,,64,0
31344,note_on,,,,,0,0,3,,,,,2,,,65,108
31344,note_off,,,,,24,0,2,,,,,1,,,64,0
31344,note_on,,,,,0,0,2,,,,,1,,,65,75
31368,note_on,,,,,0,0,3,,,,,2,,,64,108
31368,note_on,,,,,0,0,1,,,,,0,,,64,75
31368,note_off,,,,,24,0,1,,,,,0,,,65,0
31368,note_on,,,,,0,0,2,,,,,1,,,64,75
31368,set_tempo,,,,,72,1,0,,1333333,,,,,,,
31368,note_off,,,,,24,0,3,,,,,2,,,65,0
31368,note_off,,,,,24,0,2,,,,,1,,,65,0
31392,note_on,,,,,0,0,3,,,,,2,,,65,108
31392,note_on,,,,,0,0,1,,,,,0,,,65,75
31392,note_off,,,,,24,0,2,,,,,1,,,64,0
31392,note_on,,,,,0,0,2,,,,,1,,,65,75
31392,note_off,,,,,24,0,3,,,,,2,,,64,0
31392,note_off,,,,,24,0,1,,,,,0,,,64,0
31416,note_off,,,,,24,0,3,,,,,2,,,65,0
31416,note_on,,,,,0,0,3,,,,,2,,,64,108
31416,note_off,,,,,24,0,2,,,,,1,,,65,0
31416,note_on,,,,,0,0,2,,,,,1,,,64,75
31416,note_on,,,,,0,0,1,,,,,0,,,64,75
31416,note_off,,,,,24,0,1,,,,,0,,,65,0
31440,note_on,,,,,0,0,2,,,,,1,,,65,75
31440,note_on,,,,,0,0,1,,,,,0,,,65,75
31440,note_off,,,,,24,0,1,,,,,0,,,64,0
31440,note_on,,,,,0,0,3,,,,,2,,,65,108
31440,note_off,,,,,24,0,3,,,,,2,,,64,0
31440,note_off,,,,,24,0,2,,,,,1,,,64,0
31464,set_tempo,,,,,96,1,0,,1500000,,,,,,,
31464,note_on,,,,,0,0,1,,,,,0,,,64,75
31464,note_off,,,,,24,0,2,,,,,1,,,65,0
31464,note_off,,,,,24,0,1,,,,,0,,,65,0
31464,note_on,,,,,0,0,3,,,,,2,,,64,108
31464,note_on,,,,,0,0,2,,,,,1,,,64,75
31464,note_off,,,,,24,0,3,,,,,2,,,65,0
31484,note_off,,,,,188,0,6,,,,,5,,,48,0
31484,note_off,,,,,188,0,4,,,,,3,,,60,0
31484,note_off,,,,,188,0,7,,,,,6,,,36,0
31484,note_off,,,,,188,0,8,,,,,7,,,48,0
31484,note_off,,,,,188,0,5,,,,,4,,,55,0
31488,note_on,,,,,4,0,7,,,,,6,,,24,75
31488,note_on,,,,,4,0,8,,,,,7,,,36,45
31488,note_off,,,,,24,0,3,,,,,2,,,64,0
31488,note_on,,,,,4,0,5,,,,,4,,,60,92
31488,note_on,,,,,0,0,1,,,,,0,,,65,75
31488,note_off,,,,,24,0,1,,,,,0,,,64,0
31488,note_on,,,,,4,0,4,,,,,3,,,58,108
31488,note_off,,,,,24,0,2,,,,,1,,,64,0
31488,note_on,,,,,0,0,2,,,,,1,,,65,75
31488,note_on,,,,,0,0,3,,,,,2,,,65,108
31488,note_on,,,,,4,0,6,,,,,5,,,36,92
31512,note_off,,,,,24,0,3,,,,,2,,,65,0
31512,note_on,,,,,0,0,3,,,,,2,,,64,108
31512,note_off,,,,,24,0,2,,,,,1,,,65,0
31512,note_on,,,,,0,0,2,,,,,1,,,64,75
31512,note_on,,,,,0,0,1,,,,,0,,,64,75
31512,note_off,,,,,24,0,1,,,,,0,,,65,0
31580,note_off,,,,,68,0,1,,,,,0,,,64,0
31580,note_off,,,,,68,0,3,,,,,2,,,64,0
31580,note_off,,,,,68,0,2,,,,,1,,,64,0
31584,note_on,,,,,4,0,2,,,,,1,,,65,75
31584,note_on,,,,,4,0,1,,,,,0,,,65,75
31584,note_on,,,,,4,0,3,,,,,2,,,65,108
31676,note_off,,,,,188,0,8,,,,,7,,,36,0
31676,note_off,,,,,92,0,3,,,,,2,,,65,0
31676,note_off,,,,,188,0,4,,,,,3,,,58,0
31676,note_off,,,,,188,0,5,,,,,4,,,60,0
31676,note_off,,,,,92,0,1,,,,,0,,,65,0
31676,note_off,,,,,188,0,7,,,,,6,,,24,0
31676,note_off,,,,,92,0,2,,,,,1,,,65,0
31676,note_off,,,,,188,0,6,,,,,5,,,36,0
31680,note_on,,,,,4,0,2,,,,,1,,,65,75
31680,note_on,,,,,4,0,4,,,,,3,,,57,108
31680,set_tempo,,,,,216,1,0,,1500000,,,,,,,
31680,end_of_track,,,,,0,1,0,,,,,,,,,
31680,note_on,,,,,4,0,6,,,,,5,,,41,92
31680,note_on,,,,,4,0,7,,,,,6,,,29,75
31680,note_on,,,,,4,0,1,,,,,0,,,65,75
31680,note_on,,,,,4,0,3,,,,,2,,,65,108
31680,note_on,,,,,4,0,5,,,,,4,,,60,92
31680,note_on,,,,,4,0,8,,,,,7,,,41,45
32192,end_of_track,,,,,0,1,2,,,,,,,,,
32192,note_off,,,,,512,0,2,,,,,1,,,65,0
32192,end_of_track,,,,,0,1,6,,,,,,,,,
32192,note_off,,,,,512,0,4,,,,,3,,,57,0
32192,note_off,,,,,512,0,8,,,,,7,,,41,0
32192,end_of_track,,,,,0,1,4,,,,,,,,,
32192,end_of_track,,,,,0,1,5,,,,,,,,,
32192,note_off,,,,,512,0,5,,,,,4,,,60,0
32192,note_off,,,,,512,0,3,,,,,2,,,65,0
32192,end_of_track,,,,,0,1,3,,,,,,,,,
32192,end_of_track,,,,,0,1,1,,,,,,,,,
32192,note_off,,,,,512,0,1,,,,,0,,,65,0
32192,note_off,,,,,512,0,7,,,,,6,,,29,0
32192,end_of_track,,,,,0,1,7,,,,,,,,,
32192,end_of_track,,,,,0,1,8,,,,,,,,,
32192,note_off,,,,,512,0,6,,,,,5,,,41,0
