tick,type,numerator,denominator,clocks_per_click,notated_32nd_notes_per_beat,time,meta,track,data,tempo,control,value,channel,program,key,note,velocity
0,time_signature,4,4,96,8,0,1,0,,,,,,,,,
0,control_change,,,,,0,0,5,,,0,0,3,,,,
0,control_change,,,,,0,0,5,,,10,109,3,,,,
0,control_change,,,,,0,0,5,,,7,127,3,,,,
0,program_change,,,,,0,0,5,,,,,3,48,,,
0,key_signature,,,,,0,1,5,,,,,,,A,,
0,track_name,,,,,0,1,6,,,,,,,,,
0,control_change,,,,,0,0,6,,,0,0,4,,,,
0,control_change,,,,,0,0,6,,,10,109,4,,,,
0,control_change,,,,,0,0,6,,,7,127,4,,,,
0,program_change,,,,,0,0,6,,,,,4,41,,,
0,key_signature,,,,,0,1,6,,,,,,,A,,
0,track_name,,,,,0,1,7,,,,,,,,,
0,control_change,,,,,0,0,7,,,0,0,5,,,,
0,control_change,,,,,0,0,7,,,10,63,5,,,,
0,control_change,,,,,0,0,7,,,7,127,5,,,,
0,track_name,,,,,0,1,5,,,,,,,,,
0,key_signature,,,,,0,1,16,,,,,,,C,,
0,note_on,,,,,0,0,4,,,,,2,,,69,127
0,key_signature,,,,,0,1,4,,,,,,,A,,
0,control_change,,,,,0,0,2,,,10,105,1,,,,
0,control_change,,,,,0,0,2,,,7,127,1,,,,
0,program_change,,,,,0,0,2,,,,,1,40,,,
0,key_signature,,,,,0,1,2,,,,,,,A,,
0,track_name,,,,,0,1,3,,,,,,,,,
0,control_change,,,,,0,0,3,,,0,0,10,,,,
0,control_change,,,,,0,0,3,,,10,21,10,,,,
0,program_change,,,,,0,0,7,,,,,5,42,,,
0,control_change,,,,,0,0,3,,,7,127,10,,,,
0,key_signature,,,,,0,1,3,,,,,,,A,,
0,note_on,,,,,0,0,3,,,,,10,,,57,127
0,track_name,,,,,0,1,4,,,,,,,,,
0,control_change,,,,,0,0,4,,,0,0,2,,,,
0,control_change,,,,,0,0,4,,,10,21,2,,,,
0,control_change,,,,,0,0,4,,,7,127,2,,,,
0,program_change,,,,,0,0,4,,,,,2,48,,,
0,program_change,,,,,0,0,3,,,,,10,42,,,
0,key_signature,,,,,0,1,7,,,,,,,A,,
0,note_on,,,,,0,0,7,,,,,5,,,57,92
0,track_name,,,,,0,1,8,,,,,,,,,
0,track_name,,,,,0,1,11,,,,,,,,,
0,key_signature,,,,,0,1,11,,,,,,,C,,
0,end_of_track,,,,,0,1,11,,,,,,,,,
0,track_name,,,,,0,1,12,,,,,,,,,
0,key_signature,,,,,0,1,12,,,,,,,C,,
0,end_of_track,,,,,0,1,12,,,,,,,,,
0,track_name,,,,,0,1,13,,,,,,,,,
0,note_on,,,,,0,0,10,,,,,8,,,57,60
0,key_signature,,,,,0,1,13,,,,,,,C,,
0,track_name,,,,,0,1,14,,,,,,,,,
0,key_signature,,,,,0,1,14,,,,,,,C,,
0,end_of_track,,,,,0,1,14,,,,,,,,,
0,track_name,,,,,0,1,15,,,,,,,,,
0,key_signature,,,,,0,1,15,,,,,,,C,,
0,end_of_track,,,,,0,1,15,,,,,,,,,
0,track_name,,,,,0,1,16,,,,,,,,,
0,end_of_track,,,,,0,1,13,,,,,,,,,
0,control_change,,,,,0,0,2,,,0,0,1,,,,
0,key_signature,,,,,0,1,10,,,,,,,A,,
0,control_change,,,,,0,0,10,,,7,127,8,,,,
0,control_change,,,,,0,0,8,,,0,0,6,,,,
0,control_change,,,,,0,0,8,,,10,64,6,,,,
0,control_change,,,,,0,0,8,,,7,127,6,,,,
0,program_change,,,,,0,0,8,,,,,6,43,,,
0,key_signature,,,,,0,1,8,,,,,,,A,,
0,note_on,,,,,0,0,8,,,,,6,,,45,77
0,track_name,,,,,0,1,9,,,,,,,,,
0,program_change,,,,,0,0,10,,,,,8,6,,,
0,control_change,,,,,0,0,9,,,0,0,7,,,,
0,control_change,,,,,0,0,9,,,7,127,7,,,,
0,program_change,,,,,0,0,9,,,,,7,6,,,
0,key_signature,,,,,0,1,9,,,,,,,A,,
0,end_of_track,,,,,0,1,9,,,,,,,,,
0,track_name,,,,,0,1,10,,,,,,,,,
0,control_change,,,,,0,0,10,,,0,0,8,,,,
0,control_change,,,,,0,0,10,,,10,63,8,,,,
0,control_change,,,,,0,0,9,,,10,63,7,,,,
0,track_name,,,,,0,1,2,,,,,,,,,
0,end_of_track,,,,,0,1,16,,,,,,,,,
0,key_signature,,,,,0,1,1,,,,,,,A,,
0,sequencer_specific,,,,,0,1,0,"(0, 0, 65)",,,,,,,,
0,set_tempo,,,,,0,1,0,,1428571,,,,,,,
0,track_name,,,,,0,1,1,,,,,,,,,
0,control_change,,,,,0,0,1,,,0,0,0,,,,
0,control_change,,,,,0,0,1,,,10,24,0,,,,
0,control_change,,,,,0,0,1,,,7,127,0,,,,
0,program_change,,,,,0,0,1,,,,,0,40,,,
0,note_on,,,,,0,0,1,,,,,0,,,69,92
96,note_on,,,,,96,0,2,,,,,1,,,64,92
96,note_on,,,,,96,0,5,,,,,3,,,64,127
96,note_on,,,,,96,0,6,,,,,4,,,61,127
188,note_off,,,,,92,0,6,,,,,4,,,61,0
188,note_off,,,,,92,0,2,,,,,1,,,64,0
188,note_off,,,,,92,0,5,,,,,3,,,64,0
192,note_off,,,,,192,0,4,,,,,2,,,69,0
192,note_on,,,,,0,0,4,,,,,2,,,57,127
192,note_on,,,,,4,0,5,,,,,3,,,64,127
192,note_on,,,,,4,0,6,,,,,4,,,61,127
192,note_on,,,,,0,0,1,,,,,0,,,57,92
192,note_on,,,,,4,0,2,,,,,1,,,64,92
192,note_off,,,,,192,0,1,,,,,0,,,69,0
320,note_off,,,,,320,0,8,,,,,6,,,45,0
320,note_off,,,,,320,0,10,,,,,8,,,57,0
320,note_off,,,,,320,0,7,,,,,5,,,57,0
332,note_off,,,,,140,0,2,,,,,1,,,64,0
332,note_off,,,,,140,0,5,,,,,3,,,64,0
332,note_off,,,,,140,0,6,,,,,4,,,61,0
336,note_on,,,,,4,0,2,,,,,1,,,64,92
336,note_on,,,,,4,0,5,,,,,3,,,64,127
336,note_on,,,,,4,0,6,,,,,4,,,61,127
380,note_off,,,,,44,0,5,,,,,3,,,64,0
380,note_off,,,,,44,0,2,,,,,1,,,64,0
380,note_off,,,,,44,0,6,,,,,4,,,61,0
384,note_on,,,,,4,0,5,,,,,3,,,61,127
384,note_off,,,,,192,0,1,,,,,0,,,57,0
384,note_on,,,,,0,0,3,,,,,10,,,52,127
384,note_off,,,,,384,0,3,,,,,10,,,57,0
384,note_off,,,,,192,0,4,,,,,2,,,57,0
384,note_on,,,,,64,0,10,,,,,8,,,52,60
384,note_on,,,,,4,0,6,,,,,4,,,56,127
384,note_on,,,,,64,0,8,,,,,6,,,40,77
384,note_on,,,,,4,0,2,,,,,1,,,61,92
384,note_on,,,,,64,0,7,,,,,5,,,52,92
480,note_on,,,,,96,0,4,,,,,2,,,73,127
480,note_on,,,,,96,0,1,,,,,0,,,73,92
572,note_off,,,,,188,0,6,,,,,4,,,56,0
572,note_off,,,,,188,0,5,,,,,3,,,61,0
572,note_off,,,,,92,0,4,,,,,2,,,73,0
572,note_off,,,,,188,0,2,,,,,1,,,61,0
572,note_off,,,,,92,0,1,,,,,0,,,73,0
576,note_on,,,,,4,0,6,,,,,4,,,64,127
576,note_on,,,,,4,0,5,,,,,3,,,56,127
576,note_on,,,,,4,0,4,,,,,2,,,76,127
576,note_on,,,,,4,0,1,,,,,0,,,76,92
576,note_on,,,,,4,0,2,,,,,1,,,56,92
704,note_off,,,,,320,0,3,,,,,10,,,52,0
704,note_off,,,,,320,0,8,,,,,6,,,40,0
704,note_off,,,,,320,0,7,,,,,5,,,52,0
704,note_off,,,,,320,0,10,,,,,8,,,52,0
716,note_off,,,,,140,0,4,,,,,2,,,76,0
716,note_off,,,,,140,0,1,,,,,0,,,76,0
720,note_on,,,,,4,0,1,,,,,0,,,73,92
720,note_on,,,,,4,0,4,,,,,2,,,73,127
764,note_off,,,,,188,0,2,,,,,1,,,56,0
764,note_off,,,,,44,0,1,,,,,0,,,73,0
764,note_off,,,,,188,0,5,,,,,3,,,56,0
764,note_off,,,,,44,0,4,,,,,2,,,73,0
764,note_off,,,,,188,0,6,,,,,4,,,64,0
768,note_on,,,,,64,0,7,,,,,5,,,54,92
768,note_on,,,,,64,0,3,,,,,10,,,54,127
768,note_on,,,,,4,0,6,,,,,4,,,61,127
768,note_on,,,,,4,0,1,,,,,0,,,81,92
768,note_on,,,,,64,0,8,,,,,6,,,42,77
768,note_on,,,,,64,0,10,,,,,8,,,54,60
768,note_on,,,,,4,0,4,,,,,2,,,81,127
864,note_on,,,,,100,0,2,,,,,1,,,57,92
864,note_on,,,,,100,0,5,,,,,3,,,57,127
956,note_off,,,,,188,0,6,,,,,4,,,61,0
956,note_off,,,,,188,0,4,,,,,2,,,81,0
956,note_off,,,,,188,0,1,,,,,0,,,81,0
956,note_off,,,,,92,0,2,,,,,1,,,57,0
956,note_off,,,,,92,0,5,,,,,3,,,57,0
960,note_on,,,,,4,0,2,,,,,1,,,61,92
960,note_on,,,,,4,0,5,,,,,3,,,61,127
960,note_on,,,,,4,0,6,,,,,4,,,57,127
960,note_on,,,,,4,0,4,,,,,2,,,69,127
960,note_on,,,,,4,0,1,,,,,0,,,69,92
1088,note_off,,,,,320,0,3,,,,,10,,,54,0
1088,note_off,,,,,320,0,8,,,,,6,,,42,0
1088,note_off,,,,,320,0,7,,,,,5,,,54,0
1088,note_off,,,,,320,0,10,,,,,8,,,54,0
1100,note_off,,,,,140,0,5,,,,,3,,,61,0
1100,note_off,,,,,140,0,2,,,,,1,,,61,0
1104,note_on,,,,,4,0,5,,,,,3,,,64,127
1104,note_on,,,,,4,0,2,,,,,1,,,64,92
1148,note_off,,,,,44,0,2,,,,,1,,,64,0
1148,note_off,,,,,44,0,5,,,,,3,,,64,0
1148,note_off,,,,,188,0,4,,,,,2,,,69,0
1148,note_off,,,,,188,0,1,,,,,0,,,69,0
1148,note_off,,,,,188,0,6,,,,,4,,,57,0
1152,note_on,,,,,4,0,6,,,,,4,,,64,127
1152,note_on,,,,,64,0,8,,,,,6,,,37,77
1152,note_on,,,,,64,0,3,,,,,10,,,49,127
1152,note_on,,,,,4,0,5,,,,,3,,,69,127
1152,note_on,,,,,64,0,7,,,,,5,,,49,92
1152,note_on,,,,,64,0,10,,,,,8,,,49,60
1152,note_on,,,,,4,0,2,,,,,1,,,69,92
1248,note_on,,,,,100,0,1,,,,,0,,,76,92
1248,note_on,,,,,100,0,4,,,,,2,,,76,127
1292,note_off,,,,,140,0,6,,,,,4,,,64,0
1296,note_on,,,,,4,0,6,,,,,4,,,61,127
1340,note_off,,,,,92,0,4,,,,,2,,,76,0
1340,note_off,,,,,44,0,6,,,,,4,,,61,0
1340,note_off,,,,,188,0,5,,,,,3,,,69,0
1340,note_off,,,,,188,0,2,,,,,1,,,69,0
1340,note_off,,,,,92,0,1,,,,,0,,,76,0
1344,note_on,,,,,4,0,4,,,,,2,,,81,127
1344,note_on,,,,,4,0,6,,,,,4,,,73,127
1344,note_on,,,,,4,0,5,,,,,3,,,64,127
1344,note_on,,,,,4,0,1,,,,,0,,,81,92
1344,note_on,,,,,4,0,2,,,,,1,,,64,92
1472,note_off,,,,,320,0,8,,,,,6,,,37,0
1472,note_off,,,,,320,0,7,,,,,5,,,49,0
1472,note_off,,,,,320,0,10,,,,,8,,,49,0
1472,note_off,,,,,320,0,3,,,,,10,,,49,0
1484,note_off,,,,,140,0,6,,,,,4,,,73,0
1484,note_off,,,,,140,0,4,,,,,2,,,81,0
1484,note_off,,,,,140,0,1,,,,,0,,,81,0
1488,note_on,,,,,4,0,1,,,,,0,,,85,92
1488,note_on,,,,,4,0,6,,,,,4,,,69,127
1488,note_on,,,,,4,0,4,,,,,2,,,85,127
1532,note_off,,,,,44,0,6,,,,,4,,,69,0
1532,note_off,,,,,44,0,1,,,,,0,,,85,0
1532,note_off,,,,,188,0,5,,,,,3,,,64,0
1532,note_off,,,,,44,0,4,,,,,2,,,85,0
1532,note_off,,,,,188,0,2,,,,,1,,,64,0
1536,note_on,,,,,64,0,10,,,,,8,,,50,60
1536,note_on,,,,,4,0,4,,,,,2,,,78,127
1536,note_on,,,,,4,0,1,,,,,0,,,78,92
1536,note_on,,,,,4,0,6,,,,,4,,,66,127
1536,note_on,,,,,64,0,7,,,,,5,,,50,92
1536,note_on,,,,,64,0,3,,,,,10,,,50,127
1536,note_on,,,,,64,0,8,,,,,6,,,38,77
1632,note_on,,,,,100,0,5,,,,,3,,,57,127
1632,note_on,,,,,100,0,2,,,,,1,,,57,92
1724,note_off,,,,,92,0,5,,,,,3,,,57,0
1724,note_off,,,,,92,0,2,,,,,1,,,57,0
1724,note_off,,,,,188,0,1,,,,,0,,,78,0
1724,note_off,,,,,188,0,6,,,,,4,,,66,0
1724,note_off,,,,,188,0,4,,,,,2,,,78,0
1728,note_on,,,,,4,0,5,,,,,3,,,62,127
1728,note_on,,,,,4,0,1,,,,,0,,,66,92
1728,note_on,,,,,4,0,6,,,,,4,,,57,127
1728,note_on,,,,,4,0,4,,,,,2,,,66,127
1728,note_on,,,,,4,0,2,,,,,1,,,62,92
1856,note_off,,,,,320,0,7,,,,,5,,,50,0
1856,note_off,,,,,320,0,8,,,,,6,,,38,0
1856,note_off,,,,,320,0,3,,,,,10,,,50,0
1856,note_off,,,,,320,0,10,,,,,8,,,50,0
1868,note_off,,,,,140,0,5,,,,,3,,,62,0
1868,note_off,,,,,140,0,2,,,,,1,,,62,0
1872,note_on,,,,,4,0,5,,,,,3,,,66,127
1872,note_on,,,,,4,0,2,,,,,1,,,66,92
1916,note_off,,,,,44,0,2,,,,,1,,,66,0
1916,note_off,,,,,188,0,4,,,,,2,,,66,0
1916,note_off,,,,,44,0,5,,,,,3,,,66,0
1916,note_off,,,,,188,0,6,,,,,4,,,57,0
1916,note_off,,,,,188,0,1,,,,,0,,,66,0
1920,note_on,,,,,4,0,5,,,,,3,,,59,127
1920,note_on,,,,,64,0,7,,,,,5,,,51,92
1920,note_on,,,,,4,0,2,,,,,1,,,59,92
1920,note_on,,,,,64,0,10,,,,,8,,,51,60
1920,note_on,,,,,64,0,3,,,,,10,,,51,127
1920,note_on,,,,,64,0,8,,,,,6,,,39,77
1920,note_on,,,,,4,0,6,,,,,4,,,59,127
2016,note_on,,,,,100,0,4,,,,,2,,,68,127
2016,note_on,,,,,100,0,1,,,,,0,,,68,92
2108,note_off,,,,,188,0,6,,,,,4,,,59,0
2108,note_off,,,,,92,0,1,,,,,0,,,68,0
2108,note_off,,,,,188,0,2,,,,,1,,,59,0
2108,note_off,,,,,92,0,4,,,,,2,,,68,0
2108,note_off,,,,,188,0,5,,,,,3,,,59,0
2112,note_on,,,,,4,0,5,,,,,3,,,66,127
2112,note_on,,,,,4,0,2,,,,,1,,,66,92
2112,note_on,,,,,4,0,4,,,,,2,,,69,127
2112,note_on,,,,,4,0,6,,,,,4,,,59,127
2112,note_on,,,,,4,0,1,,,,,0,,,69,92
2240,note_off,,,,,320,0,7,,,,,5,,,51,0
2240,note_off,,,,,320,0,8,,,,,6,,,39,0
2240,note_off,,,,,320,0,3,,,,,10,,,51,0
2240,note_off,,,,,320,0,10,,,,,8,,,51,0
2252,note_off,,,,,140,0,4,,,,,2,,,69,0
2252,note_off,,,,,140,0,1,,,,,0,,,69,0
2256,note_on,,,,,4,0,4,,,,,2,,,71,127
2256,note_on,,,,,4,0,1,,,,,0,,,71,92
2300,note_off,,,,,188,0,2,,,,,1,,,66,0
2300,note_off,,,,,188,0,5,,,,,3,,,66,0
2300,note_off,,,,,44,0,4,,,,,2,,,71,0
2300,note_off,,,,,44,0,1,,,,,0,,,71,0
2300,note_off,,,,,188,0,6,,,,,4,,,59,0
2304,note_on,,,,,4,0,6,,,,,4,,,64,127
2304,note_on,,,,,4,0,1,,,,,0,,,69,92
2304,note_on,,,,,64,0,10,,,,,8,,,52,60
2304,note_on,,,,,64,0,3,,,,,10,,,52,127
2304,note_on,,,,,64,0,7,,,,,5,,,52,92
2304,note_on,,,,,4,0,2,,,,,1,,,61,92
2304,note_on,,,,,4,0,5,,,,,3,,,61,127
2304,note_on,,,,,64,0,8,,,,,6,,,40,77
2304,note_on,,,,,4,0,4,,,,,2,,,69,127
2328,note_on,,,,,0,0,4,,,,,2,,,68,127
2328,note_off,,,,,24,0,1,,,,,0,,,69,0
2328,note_on,,,,,0,0,2,,,,,1,,,59,92
2328,note_off,,,,,24,0,2,,,,,1,,,61,0
2328,note_off,,,,,24,0,4,,,,,2,,,69,0
2328,note_on,,,,,0,0,1,,,,,0,,,68,92
2328,note_off,,,,,24,0,5,,,,,3,,,61,0
2328,note_on,,,,,0,0,5,,,,,3,,,59,127
2352,note_on,,,,,0,0,4,,,,,2,,,69,127
2352,note_off,,,,,24,0,1,,,,,0,,,68,0
2352,note_on,,,,,0,0,1,,,,,0,,,69,92
2352,note_off,,,,,24,0,5,,,,,3,,,59,0
2352,note_off,,,,,24,0,2,,,,,1,,,59,0
2352,note_on,,,,,0,0,2,,,,,1,,,61,92
2352,note_on,,,,,0,0,5,,,,,3,,,61,127
2352,note_off,,,,,24,0,4,,,,,2,,,68,0
2376,note_on,,,,,0,0,5,,,,,3,,,59,127
2376,note_on,,,,,0,0,4,,,,,2,,,68,127
2376,note_off,,,,,24,0,4,,,,,2,,,69,0
2376,note_off,,,,,24,0,5,,,,,3,,,61,0
2376,note_off,,,,,24,0,2,,,,,1,,,61,0
2376,note_off,,,,,24,0,1,,,,,0,,,69,0
2376,note_on,,,,,0,0,1,,,,,0,,,68,92
2376,note_on,,,,,0,0,2,,,,,1,,,59,92
2400,note_on,,,,,0,0,5,,,,,3,,,61,127
2400,note_off,,,,,24,0,5,,,,,3,,,59,0
2400,note_on,,,,,0,0,4,,,,,2,,,69,127
2400,note_on,,,,,0,0,1,,,,,0,,,69,92
2400,note_off,,,,,24,0,2,,,,,1,,,59,0
2400,note_off,,,,,24,0,1,,,,,0,,,68,0
2400,note_on,,,,,0,0,2,,,,,1,,,61,92
2400,note_off,,,,,24,0,4,,,,,2,,,68,0
2424,note_off,,,,,24,0,4,,,,,2,,,69,0
2424,note_on,,,,,0,0,4,,,,,2,,,68,127
2424,note_on,,,,,0,0,2,,,,,1,,,59,92
2424,note_off,,,,,24,0,1,,,,,0,,,69,0
2424,note_on,,,,,0,0,1,,,,,0,,,68,92
2424,note_off,,,,,24,0,5,,,,,3,,,61,0
2424,note_on,,,,,0,0,5,,,,,3,,,59,127
2424,note_off,,,,,24,0,2,,,,,1,,,61,0
2448,note_off,,,,,24,0,4,,,,,2,,,68,0
2448,note_on,,,,,0,0,4,,,,,2,,,69,127
2448,note_on,,,,,0,0,5,,,,,3,,,61,127
2448,note_off,,,,,24,0,1,,,,,0,,,68,0
2448,note_off,,,,,24,0,5,,,,,3,,,59,0
2448,note_on,,,,,0,0,1,,,,,0,,,69,92
2448,note_off,,,,,24,0,2,,,,,1,,,59,0
2448,note_on,,,,,0,0,2,,,,,1,,,61,92
2472,note_on,,,,,0,0,5,,,,,3,,,59,127
2472,note_off,,,,,24,0,2,,,,,1,,,61,0
2472,note_on,,,,,0,0,2,,,,,1,,,59,92
2472,note_off,,,,,24,0,1,,,,,0,,,69,0
2472,note_off,,,,,24,0,4,,,,,2,,,69,0
2472,note_on,,,,,0,0,4,,,,,2,,,68,127
2472,note_on,,,,,0,0,1,,,,,0,,,68,92
2472,note_off,,,,,24,0,5,,,,,3,,,61,0
2624,note_off,,,,,320,0,10,,,,,8,,,52,0
2624,note_off,,,,,320,0,8,,,,,6,,,40,0
2624,note_off,,,,,320,0,6,,,,,4,,,64,0
2624,note_off,,,,,320,0,3,,,,,10,,,52,0
2624,note_off,,,,,320,0,7,,,,,5,,,52,0
2684,note_off,,,,,212,0,5,,,,,3,,,59,0
2684,note_off,,,,,212,0,1,,,,,0,,,68,0
2684,note_off,,,,,212,0,2,,,,,1,,,59,0
2684,note_off,,,,,212,0,4,,,,,2,,,68,0
3072,note_on,,,,,448,0,7,,,,,5,,,64,92
3072,note_on,,,,,448,0,10,,,,,8,,,64,60
3072,note_on,,,,,448,0,8,,,,,6,,,52,77
3072,note_on,,,,,448,0,3,,,,,10,,,64,92
3072,note_on,,,,,388,0,4,,,,,2,,,80,117
3072,note_on,,,,,388,0,1,,,,,0,,,80,92
3168,note_on,,,,,484,0,2,,,,,1,,,71,92
3168,note_on,,,,,484,0,5,,,,,3,,,71,117
3168,note_on,,,,,544,0,6,,,,,4,,,68,92
3260,note_off,,,,,188,0,1,,,,,0,,,80,0
3260,note_off,,,,,92,0,2,,,,,1,,,71,0
3260,note_off,,,,,92,0,6,,,,,4,,,68,0
3260,note_off,,,,,188,0,4,,,,,2,,,80,0
3260,note_off,,,,,92,0,5,,,,,3,,,71,0
3264,note_on,,,,,4,0,6,,,,,4,,,68,92
3264,note_on,,,,,4,0,5,,,,,3,,,71,117
3264,note_on,,,,,4,0,1,,,,,0,,,64,92
3264,note_on,,,,,4,0,2,,,,,1,,,71,92
3264,note_on,,,,,4,0,4,,,,,2,,,64,117
3392,note_off,,,,,320,0,3,,,,,10,,,64,0
3392,note_off,,,,,320,0,10,,,,,8,,,64,0
3392,note_off,,,,,320,0,7,,,,,5,,,64,0
3392,note_off,,,,,320,0,8,,,,,6,,,52,0
3404,note_off,,,,,140,0,5,,,,,3,,,71,0
3404,note_off,,,,,140,0,6,,,,,4,,,68,0
3404,note_off,,,,,140,0,2,,,,,1,,,71,0
3408,note_on,,,,,4,0,5,,,,,3,,,71,117
3408,note_on,,,,,4,0,6,,,,,4,,,68,92
3408,note_on,,,,,4,0,2,,,,,1,,,71,92
3452,note_off,,,,,188,0,4,,,,,2,,,64,0
3452,note_off,,,,,44,0,5,,,,,3,,,71,0
3452,note_off,,,,,44,0,2,,,,,1,,,71,0
3452,note_off,,,,,188,0,1,,,,,0,,,64,0
3452,note_off,,,,,44,0,6,,,,,4,,,68,0
3456,note_on,,,,,4,0,6,,,,,4,,,64,92
3456,note_on,,,,,4,0,2,,,,,1,,,68,92
3456,note_on,,,,,64,0,3,,,,,10,,,62,92
3456,note_on,,,,,4,0,5,,,,,3,,,68,117
3456,note_on,,,,,64,0,10,,,,,8,,,62,60
3456,note_on,,,,,64,0,7,,,,,5,,,62,92
3456,note_on,,,,,64,0,8,,,,,6,,,50,77
3552,note_on,,,,,100,0,4,,,,,2,,,71,117
3552,note_on,,,,,100,0,1,,,,,0,,,71,92
3644,note_off,,,,,188,0,6,,,,,4,,,64,0
3644,note_off,,,,,188,0,2,,,,,1,,,68,0
3644,note_off,,,,,92,0,1,,,,,0,,,71,0
3644,note_off,,,,,188,0,5,,,,,3,,,68,0
3644,note_off,,,,,92,0,4,,,,,2,,,71,0
3648,note_on,,,,,4,0,1,,,,,0,,,83,92
3648,note_on,,,,,4,0,2,,,,,1,,,64,92
3648,note_on,,,,,4,0,4,,,,,2,,,83,117
3648,note_on,,,,,4,0,5,,,,,3,,,64,117
3648,note_on,,,,,4,0,6,,,,,4,,,68,92
3776,note_off,,,,,320,0,8,,,,,6,,,50,0
3776,note_off,,,,,320,0,3,,,,,10,,,62,0
3776,note_off,,,,,320,0,10,,,,,8,,,62,0
3776,note_off,,,,,320,0,7,,,,,5,,,62,0
3788,note_off,,,,,140,0,1,,,,,0,,,83,0
3788,note_off,,,,,140,0,4,,,,,2,,,83,0
3792,note_on,,,,,4,0,4,,,,,2,,,80,117
3792,note_on,,,,,4,0,1,,,,,0,,,80,92
3836,note_off,,,,,188,0,5,,,,,3,,,64,0
3836,note_off,,,,,44,0,4,,,,,2,,,80,0
3836,note_off,,,,,44,0,1,,,,,0,,,80,0
3836,note_off,,,,,188,0,6,,,,,4,,,68,0
3836,note_off,,,,,188,0,2,,,,,1,,,64,0
3840,note_on,,,,,64,0,8,,,,,6,,,49,77
3840,note_on,,,,,4,0,6,,,,,4,,,73,92
3840,note_on,,,,,4,0,1,,,,,0,,,81,92
3840,note_on,,,,,4,0,4,,,,,2,,,81,117
3840,note_on,,,,,64,0,10,,,,,8,,,61,60
3840,note_on,,,,,64,0,7,,,,,5,,,61,92
3840,note_on,,,,,64,0,3,,,,,10,,,61,92
3936,note_on,,,,,100,0,2,,,,,1,,,76,92
3936,note_on,,,,,100,0,5,,,,,3,,,76,117
4028,note_off,,,,,92,0,5,,,,,3,,,76,0
4028,note_off,,,,,188,0,1,,,,,0,,,81,0
4028,note_off,,,,,92,0,2,,,,,1,,,76,0
4028,note_off,,,,,188,0,4,,,,,2,,,81,0
4032,note_on,,,,,4,0,4,,,,,2,,,69,117
4032,note_on,,,,,4,0,5,,,,,3,,,76,117
4032,note_on,,,,,4,0,1,,,,,0,,,69,92
4032,note_on,,,,,4,0,2,,,,,1,,,76,92
4160,note_off,,,,,320,0,6,,,,,4,,,73,0
4160,note_off,,,,,320,0,3,,,,,10,,,61,0
4160,note_off,,,,,320,0,8,,,,,6,,,49,0
4160,note_off,,,,,320,0,7,,,,,5,,,61,0
4160,note_off,,,,,320,0,10,,,,,8,,,61,0
4172,note_off,,,,,140,0,5,,,,,3,,,76,0
4172,note_off,,,,,140,0,2,,,,,1,,,76,0
4176,note_on,,,,,4,0,5,,,,,3,,,76,117
4176,note_on,,,,,4,0,2,,,,,1,,,76,92
4220,note_off,,,,,188,0,1,,,,,0,,,69,0
4220,note_off,,,,,44,0,5,,,,,3,,,76,0
4220,note_off,,,,,44,0,2,,,,,1,,,76,0
4220,note_off,,,,,188,0,4,,,,,2,,,69,0
4224,note_on,,,,,64,0,6,,,,,4,,,64,92
4224,note_on,,,,,4,0,5,,,,,3,,,73,117
4224,note_on,,,,,4,0,4,,,,,2,,,57,117
4224,note_on,,,,,4,0,1,,,,,0,,,57,92
4224,note_on,,,,,4,0,2,,,,,1,,,73,92
4412,note_off,,,,,188,0,5,,,,,3,,,73,0
4412,note_off,,,,,188,0,2,,,,,1,,,73,0
4416,note_on,,,,,4,0,5,,,,,3,,,69,117
4416,note_on,,,,,4,0,2,,,,,1,,,69,92
4544,note_off,,,,,320,0,4,,,,,2,,,57,0
4544,note_off,,,,,320,0,1,,,,,0,,,57,0
4544,note_off,,,,,320,0,6,,,,,4,,,64,0
4604,note_off,,,,,188,0,2,,,,,1,,,69,0
4604,note_off,,,,,188,0,5,,,,,3,,,69,0
4608,note_on,,,,,448,0,7,,,,,5,,,54,92
4608,note_on,,,,,64,0,4,,,,,2,,,82,117
4608,note_on,,,,,448,0,10,,,,,8,,,54,60
4608,note_on,,,,,448,0,3,,,,,10,,,54,92
4608,note_on,,,,,64,0,1,,,,,0,,,82,92
4608,note_on,,,,,448,0,8,,,,,6,,,42,77
4704,note_on,,,,,100,0,5,,,,,3,,,73,117
4704,note_on,,,,,160,0,6,,,,,4,,,70,92
4704,note_on,,,,,100,0,2,,,,,1,,,73,92
4796,note_off,,,,,92,0,2,,,,,1,,,73,0
4796,note_off,,,,,188,0,1,,,,,0,,,82,0
4796,note_off,,,,,188,0,4,,,,,2,,,82,0
4796,note_off,,,,,92,0,6,,,,,4,,,70,0
4796,note_off,,,,,92,0,5,,,,,3,,,73,0
4800,note_on,,,,,4,0,5,,,,,3,,,73,117
4800,note_on,,,,,4,0,2,,,,,1,,,73,92
4800,note_on,,,,,4,0,4,,,,,2,,,66,117
4800,note_on,,,,,4,0,6,,,,,4,,,70,92
4800,note_on,,,,,4,0,1,,,,,0,,,66,92
4928,note_off,,,,,320,0,10,,,,,8,,,54,0
4928,note_off,,,,,320,0,3,,,,,10,,,54,0
4928,note_off,,,,,320,0,7,,,,,5,,,54,0
4928,note_off,,,,,320,0,8,,,,,6,,,42,0
4940,note_off,,,,,140,0,6,,,,,4,,,70,0
4940,note_off,,,,,140,0,2,,,,,1,,,73,0
4940,note_off,,,,,140,0,5,,,,,3,,,73,0
4944,note_on,,,,,4,0,2,,,,,1,,,73,92
4944,note_on,,,,,4,0,5,,,,,3,,,73,117
4944,note_on,,,,,4,0,6,,,,,4,,,70,92
4988,note_off,,,,,44,0,5,,,,,3,,,73,0
4988,note_off,,,,,188,0,4,,,,,2,,,66,0
4988,note_off,,,,,44,0,6,,,,,4,,,70,0
4988,note_off,,,,,188,0,1,,,,,0,,,66,0
4988,note_off,,,,,44,0,2,,,,,1,,,73,0
4992,note_on,,,,,64,0,3,,,,,10,,,52,92
4992,note_on,,,,,64,0,7,,,,,5,,,52,92
4992,note_on,,,,,64,0,8,,,,,6,,,40,77
4992,note_on,,,,,64,0,10,,,,,8,,,52,60
4992,note_on,,,,,4,0,5,,,,,3,,,70,117
4992,note_on,,,,,4,0,2,,,,,1,,,70,92
4992,note_on,,,,,4,0,6,,,,,4,,,73,92
5088,note_on,,,,,100,0,4,,,,,2,,,73,117
5088,note_on,,,,,100,0,1,,,,,0,,,73,92
5180,note_off,,,,,188,0,6,,,,,4,,,73,0
5180,note_off,,,,,92,0,4,,,,,2,,,73,0
5180,note_off,,,,,188,0,2,,,,,1,,,70,0
5180,note_off,,,,,188,0,5,,,,,3,,,70,0
5180,note_off,,,,,92,0,1,,,,,0,,,73,0
5184,note_on,,,,,4,0,1,,,,,0,,,82,92
5184,note_on,,,,,4,0,5,,,,,3,,,66,117
5184,note_on,,,,,4,0,4,,,,,2,,,82,117
5184,note_on,,,,,4,0,2,,,,,1,,,66,92
5184,note_on,,,,,4,0,6,,,,,4,,,61,92
5312,note_off,,,,,320,0,3,,,,,10,,,52,0
5312,note_off,,,,,320,0,8,,,,,6,,,40,0
5312,note_off,,,,,320,0,10,,,,,8,,,52,0
5312,note_off,,,,,320,0,7,,,,,5,,,52,0
5324,note_off,,,,,140,0,4,,,,,2,,,82,0
5324,note_off,,,,,140,0,1,,,,,0,,,82,0
5328,note_on,,,,,4,0,1,,,,,0,,,78,92
5328,note_on,,,,,4,0,4,,,,,2,,,78,117
5372,note_off,,,,,44,0,4,,,,,2,,,78,0
5372,note_off,,,,,188,0,6,,,,,4,,,61,0
5372,note_off,,,,,188,0,5,,,,,3,,,66,0
5372,note_off,,,,,44,0,1,,,,,0,,,78,0
5372,note_off,,,,,188,0,2,,,,,1,,,66,0
5376,note_on,,,,,64,0,7,,,,,5,,,50,92
5376,note_on,,,,,64,0,8,,,,,6,,,38,77
5376,note_on,,,,,64,0,10,,,,,8,,,50,60
5376,note_on,,,,,4,0,4,,,,,2,,,83,117
5376,note_on,,,,,4,0,1,,,,,0,,,83,92
5376,note_on,,,,,64,0,3,,,,,10,,,50,92
5376,note_on,,,,,4,0,6,,,,,4,,,62,92
5472,note_on,,,,,100,0,5,,,,,3,,,78,117
5472,note_on,,,,,100,0,2,,,,,1,,,78,92
5564,note_off,,,,,188,0,1,,,,,0,,,83,0
5564,note_off,,,,,188,0,4,,,,,2,,,83,0
5564,note_off,,,,,92,0,5,,,,,3,,,78,0
5564,note_off,,,,,92,0,2,,,,,1,,,78,0
5568,note_on,,,,,4,0,4,,,,,2,,,71,117
5568,note_on,,,,,4,0,2,,,,,1,,,78,92
5568,note_on,,,,,4,0,1,,,,,0,,,71,92
5568,note_on,,,,,4,0,5,,,,,3,,,78,117
5696,note_off,,,,,320,0,8,,,,,6,,,38,0
5696,note_off,,,,,320,0,7,,,,,5,,,50,0
5696,note_off,,,,,320,0,6,,,,,4,,,62,0
5696,note_off,,,,,320,0,3,,,,,10,,,50,0
5696,note_off,,,,,320,0,10,,,,,8,,,50,0
5708,note_off,,,,,140,0,2,,,,,1,,,78,0
5708,note_off,,,,,140,0,5,,,,,3,,,78,0
5712,note_on,,,,,4,0,5,,,,,3,,,78,117
5712,note_on,,,,,4,0,2,,,,,1,,,78,92
5756,note_off,,,,,188,0,4,,,,,2,,,71,0
5756,note_off,,,,,44,0,5,,,,,3,,,78,0
5756,note_off,,,,,44,0,2,,,,,1,,,78,0
5756,note_off,,,,,188,0,1,,,,,0,,,71,0
5760,note_on,,,,,4,0,2,,,,,1,,,74,92
5760,note_on,,,,,4,0,1,,,,,0,,,59,92
5760,note_on,,,,,4,0,5,,,,,3,,,74,117
5760,note_on,,,,,4,0,4,,,,,2,,,59,117
5760,note_on,,,,,64,0,6,,,,,4,,,66,92
5948,note_off,,,,,188,0,2,,,,,1,,,74,0
5948,note_off,,,,,188,0,5,,,,,3,,,74,0
5952,note_on,,,,,4,0,2,,,,,1,,,71,92
5952,note_on,,,,,4,0,5,,,,,3,,,71,117
6080,note_off,,,,,320,0,1,,,,,0,,,59,0
6080,note_off,,,,,320,0,4,,,,,2,,,59,0
6080,note_off,,,,,320,0,6,,,,,4,,,66,0
6140,note_off,,,,,188,0,2,,,,,1,,,71,0
6140,note_off,,,,,188,0,5,,,,,3,,,71,0
6144,note_on,,,,,448,0,8,,,,,6,,,35,77
6144,note_on,,,,,448,0,10,,,,,8,,,47,60
6144,note_on,,,,,64,0,4,,,,,2,,,86,117
6144,note_on,,,,,64,0,1,,,,,0,,,86,92
6144,note_on,,,,,448,0,3,,,,,10,,,47,92
6144,note_on,,,,,448,0,7,,,,,5,,,47,92
6240,note_on,,,,,160,0,6,,,,,4,,,62,92
6240,note_on,,,,,100,0,5,,,,,3,,,66,117
6240,note_on,,,,,100,0,2,,,,,1,,,66,92
6332,note_off,,,,,92,0,5,,,,,3,,,66,0
6332,note_off,,,,,92,0,6,,,,,4,,,62,0
6332,note_off,,,,,92,0,2,,,,,1,,,66,0
6332,note_off,,,,,188,0,4,,,,,2,,,86,0
6332,note_off,,,,,188,0,1,,,,,0,,,86,0
6336,note_on,,,,,4,0,4,,,,,2,,,74,117
6336,note_on,,,,,4,0,2,,,,,1,,,71,92
6336,note_on,,,,,4,0,1,,,,,0,,,74,92
6336,note_on,,,,,4,0,5,,,,,3,,,71,117
6336,note_on,,,,,4,0,6,,,,,4,,,66,92
6464,note_off,,,,,320,0,7,,,,,5,,,47,0
6464,note_off,,,,,320,0,8,,,,,6,,,35,0
6464,note_off,,,,,320,0,3,,,,,10,,,47,0
6464,note_off,,,,,320,0,10,,,,,8,,,47,0
6476,note_off,,,,,140,0,6,,,,,4,,,66,0
6476,note_off,,,,,140,0,5,,,,,3,,,71,0
6476,note_off,,,,,140,0,2,,,,,1,,,71,0
6480,note_on,,,,,4,0,6,,,,,4,,,62,92
6480,note_on,,,,,4,0,5,,,,,3,,,66,117
6480,note_on,,,,,4,0,2,,,,,1,,,66,92
6524,note_off,,,,,44,0,2,,,,,1,,,66,0
6524,note_off,,,,,44,0,6,,,,,4,,,62,0
6524,note_off,,,,,188,0,4,,,,,2,,,74,0
6524,note_off,,,,,44,0,5,,,,,3,,,66,0
6524,note_off,,,,,188,0,1,,,,,0,,,74,0
6528,note_on,,,,,4,0,5,,,,,3,,,62,117
6528,note_on,,,,,4,0,1,,,,,0,,,74,92
6528,note_on,,,,,4,0,2,,,,,1,,,62,92
6528,note_on,,,,,4,0,4,,,,,2,,,74,117
6528,note_on,,,,,4,0,6,,,,,4,,,59,92
6624,note_on,,,,,160,0,8,,,,,6,,,47,77
6624,note_on,,,,,160,0,7,,,,,5,,,59,92
6624,note_on,,,,,160,0,10,,,,,8,,,59,60
6624,note_on,,,,,160,0,3,,,,,10,,,59,92
6668,note_off,,,,,140,0,6,,,,,4,,,59,0
6672,note_on,,,,,4,0,6,,,,,4,,,66,92
6716,note_off,,,,,92,0,8,,,,,6,,,47,0
6716,note_off,,,,,92,0,7,,,,,5,,,59,0
6716,note_off,,,,,44,0,6,,,,,4,,,66,0
6716,note_off,,,,,92,0,3,,,,,10,,,59,0
6716,note_off,,,,,188,0,4,,,,,2,,,74,0
6716,note_off,,,,,92,0,10,,,,,8,,,59,0
6716,note_off,,,,,188,0,1,,,,,0,,,74,0
6720,note_on,,,,,4,0,6,,,,,4,,,71,92
6720,note_on,,,,,4,0,4,,,,,2,,,74,117
6720,note_on,,,,,4,0,10,,,,,8,,,62,60
6720,note_on,,,,,4,0,3,,,,,10,,,62,92
6720,note_on,,,,,4,0,8,,,,,6,,,50,77
6720,note_on,,,,,4,0,1,,,,,0,,,74,92
6720,note_on,,,,,4,0,7,,,,,5,,,62,92
6848,note_off,,,,,320,0,5,,,,,3,,,62,0
6848,note_off,,,,,320,0,2,,,,,1,,,62,0
6860,note_off,,,,,140,0,6,,,,,4,,,71,0
6860,note_off,,,,,140,0,7,,,,,5,,,62,0
6860,note_off,,,,,140,0,8,,,,,6,,,50,0
6860,note_off,,,,,140,0,10,,,,,8,,,62,0
6860,note_off,,,,,140,0,3,,,,,10,,,62,0
6864,note_on,,,,,4,0,7,,,,,5,,,59,92
6864,note_on,,,,,4,0,8,,,,,6,,,47,77
6864,note_on,,,,,4,0,3,,,,,10,,,59,92
6864,note_on,,,,,4,0,10,,,,,8,,,59,60
6864,note_on,,,,,4,0,6,,,,,4,,,66,92
6908,note_off,,,,,44,0,3,,,,,10,,,59,0
6908,note_off,,,,,44,0,8,,,,,6,,,47,0
6908,note_off,,,,,44,0,7,,,,,5,,,59,0
6908,note_off,,,,,44,0,10,,,,,8,,,59,0
6908,note_off,,,,,188,0,4,,,,,2,,,74,0
6908,note_off,,,,,44,0,6,,,,,4,,,66,0
6908,note_off,,,,,188,0,1,,,,,0,,,74,0
6912,note_on,,,,,4,0,8,,,,,6,,,44,77
6912,note_on,,,,,4,0,7,,,,,5,,,56,92
6912,note_on,,,,,4,0,4,,,,,2,,,74,117
6912,note_on,,,,,4,0,10,,,,,8,,,56,60
6912,note_on,,,,,4,0,1,,,,,0,,,74,92
6912,note_on,,,,,4,0,6,,,,,4,,,64,92
6912,note_on,,,,,4,0,3,,,,,10,,,56,92
7008,note_on,,,,,160,0,2,,,,,1,,,59,92
7008,note_on,,,,,160,0,5,,,,,3,,,59,117
7100,note_off,,,,,92,0,2,,,,,1,,,59,0
7100,note_off,,,,,92,0,5,,,,,3,,,59,0
7100,note_off,,,,,188,0,1,,,,,0,,,74,0
7100,note_off,,,,,188,0,4,,,,,2,,,74,0
7104,note_on,,,,,4,0,1,,,,,0,,,62,92
7104,note_on,,,,,4,0,2,,,,,1,,,62,92
7104,note_on,,,,,4,0,4,,,,,2,,,62,117
7104,note_on,,,,,4,0,5,,,,,3,,,62,117
7232,note_off,,,,,320,0,3,,,,,10,,,56,0
7232,note_off,,,,,320,0,8,,,,,6,,,44,0
7232,note_off,,,,,320,0,6,,,,,4,,,64,0
7232,note_off,,,,,320,0,7,,,,,5,,,56,0
7232,note_off,,,,,320,0,10,,,,,8,,,56,0
7244,note_off,,,,,140,0,5,,,,,3,,,62,0
7244,note_off,,,,,140,0,2,,,,,1,,,62,0
7248,note_on,,,,,4,0,2,,,,,1,,,59,92
7248,note_on,,,,,4,0,5,,,,,3,,,59,117
7292,note_off,,,,,188,0,1,,,,,0,,,62,0
7292,note_off,,,,,188,0,4,,,,,2,,,62,0
7292,note_off,,,,,44,0,2,,,,,1,,,59,0
7292,note_off,,,,,44,0,5,,,,,3,,,59,0
7296,note_on,,,,,4,0,4,,,,,2,,,62,117
7296,note_on,,,,,4,0,5,,,,,3,,,56,117
7296,note_on,,,,,4,0,1,,,,,0,,,62,92
7296,note_on,,,,,4,0,2,,,,,1,,,56,92
7392,note_on,,,,,160,0,3,,,,,10,,,56,92
7392,note_on,,,,,160,0,8,,,,,6,,,44,77
7392,note_on,,,,,160,0,10,,,,,8,,,56,60
7392,note_on,,,,,160,0,7,,,,,5,,,56,92
7392,note_on,,,,,160,0,6,,,,,4,,,59,92
7484,note_off,,,,,92,0,10,,,,,8,,,56,0
7484,note_off,,,,,188,0,4,,,,,2,,,62,0
7484,note_off,,,,,92,0,8,,,,,6,,,44,0
7484,note_off,,,,,188,0,1,,,,,0,,,62,0
7484,note_off,,,,,92,0,7,,,,,5,,,56,0
7484,note_off,,,,,92,0,6,,,,,4,,,59,0
7484,note_off,,,,,92,0,3,,,,,10,,,56,0
7488,note_on,,,,,4,0,10,,,,,8,,,59,60
7488,note_on,,,,,4,0,1,,,,,0,,,62,92
7488,note_on,,,,,4,0,4,,,,,2,,,62,117
7488,note_on,,,,,4,0,3,,,,,10,,,59,92
7488,note_on,,,,,4,0,8,,,,,6,,,47,77
7488,note_on,,,,,4,0,6,,,,,4,,,62,92
7488,note_on,,,,,4,0,7,,,,,5,,,59,92
7616,note_off,,,,,320,0,2,,,,,1,,,56,0
7616,note_off,,,,,320,0,5,,,,,3,,,56,0
7628,note_off,,,,,140,0,3,,,,,10,,,59,0
7628,note_off,,,,,140,0,6,,,,,4,,,62,0
7628,note_off,,,,,140,0,8,,,,,6,,,47,0
7628,note_off,,,,,140,0,10,,,,,8,,,59,0
7628,note_off,,,,,140,0,7,,,,,5,,,59,0
7632,note_on,,,,,4,0,6,,,,,4,,,59,92
7632,note_on,,,,,4,0,10,,,,,8,,,56,60
7632,note_on,,,,,4,0,7,,,,,5,,,56,92
7632,note_on,,,,,4,0,3,,,,,10,,,56,92
7632,note_on,,,,,4,0,8,,,,,6,,,44,77
7676,note_off,,,,,188,0,4,,,,,2,,,62,0
7676,note_off,,,,,44,0,10,,,,,8,,,56,0
7676,note_off,,,,,44,0,3,,,,,10,,,56,0
7676,note_off,,,,,44,0,8,,,,,6,,,44,0
7676,note_off,,,,,188,0,1,,,,,0,,,62,0
7676,note_off,,,,,44,0,7,,,,,5,,,56,0
7676,note_off,,,,,44,0,6,,,,,4,,,59,0
7680,note_on,,,,,4,0,3,,,,,10,,,52,92
7680,note_on,,,,,4,0,10,,,,,8,,,52,60
7680,note_on,,,,,4,0,1,,,,,0,,,62,92
7680,note_on,,,,,4,0,6,,,,,4,,,56,92
7680,note_on,,,,,4,0,7,,,,,5,,,52,92
7680,note_on,,,,,4,0,8,,,,,6,,,40,77
7680,note_on,,,,,4,0,4,,,,,2,,,62,117
7776,note_on,,,,,160,0,5,,,,,3,,,68,117
7776,note_on,,,,,160,0,2,,,,,1,,,68,92
7820,note_off,,,,,140,0,1,,,,,0,,,62,0
7820,note_off,,,,,140,0,4,,,,,2,,,62,0
7824,note_on,,,,,4,0,4,,,,,2,,,71,117
7824,note_on,,,,,4,0,1,,,,,0,,,71,92
7868,note_off,,,,,92,0,2,,,,,1,,,68,0
7868,note_off,,,,,92,0,5,,,,,3,,,68,0
7868,note_off,,,,,44,0,1,,,,,0,,,71,0
7868,note_off,,,,,44,0,4,,,,,2,,,71,0
7872,note_on,,,,,4,0,2,,,,,1,,,71,92
7872,note_on,,,,,4,0,5,,,,,3,,,71,117
7872,note_on,,,,,4,0,4,,,,,2,,,74,117
7872,note_on,,,,,4,0,1,,,,,0,,,74,92
8000,note_off,,,,,320,0,7,,,,,5,,,52,0
8000,note_off,,,,,320,0,6,,,,,4,,,56,0
8000,note_off,,,,,320,0,3,,,,,10,,,52,0
8000,note_off,,,,,320,0,8,,,,,6,,,40,0
8000,note_off,,,,,320,0,10,,,,,8,,,52,0
8012,note_off,,,,,140,0,4,,,,,2,,,74,0
8012,note_off,,,,,140,0,2,,,,,1,,,71,0
8012,note_off,,,,,140,0,1,,,,,0,,,74,0
8012,note_off,,,,,140,0,5,,,,,3,,,71,0
8016,note_on,,,,,4,0,4,,,,,2,,,71,117
8016,note_on,,,,,4,0,2,,,,,1,,,68,92
8016,note_on,,,,,4,0,1,,,,,0,,,71,92
8016,note_on,,,,,4,0,5,,,,,3,,,68,117
8060,note_off,,,,,44,0,2,,,,,1,,,68,0
8060,note_off,,,,,44,0,4,,,,,2,,,71,0
8060,note_off,,,,,44,0,1,,,,,0,,,71,0
8060,note_off,,,,,44,0,5,,,,,3,,,68,0
8064,note_on,,,,,4,0,4,,,,,2,,,80,117
8064,note_on,,,,,4,0,5,,,,,3,,,64,117
8064,note_on,,,,,4,0,2,,,,,1,,,64,92
8064,note_on,,,,,4,0,1,,,,,0,,,80,92
8160,note_on,,,,,160,0,10,,,,,8,,,52,60
8160,note_on,,,,,160,0,8,,,,,6,,,40,77
8160,note_on,,,,,160,0,3,,,,,10,,,52,92
8160,note_on,,,,,160,0,7,,,,,5,,,52,92
8204,note_off,,,,,140,0,5,,,,,3,,,64,0
8204,note_off,,,,,140,0,1,,,,,0,,,80,0
8204,note_off,,,,,140,0,2,,,,,1,,,64,0
8204,note_off,,,,,140,0,4,,,,,2,,,80,0
8208,note_on,,,,,4,0,2,,,,,1,,,71,92
8208,note_on,,,,,4,0,1,,,,,0,,,76,92
8208,note_on,,,,,4,0,5,,,,,3,,,71,117
8208,note_on,,,,,4,0,4,,,,,2,,,76,117
8252,note_off,,,,,44,0,4,,,,,2,,,76,0
8252,note_off,,,,,44,0,1,,,,,0,,,76,0
8252,note_off,,,,,44,0,5,,,,,3,,,71,0
8252,note_off,,,,,44,0,2,,,,,1,,,71,0
8252,note_off,,,,,92,0,3,,,,,10,,,52,0
8252,note_off,,,,,92,0,8,,,,,6,,,40,0
8252,note_off,,,,,92,0,7,,,,,5,,,52,0
8252,note_off,,,,,92,0,10,,,,,8,,,52,0
8256,note_on,,,,,4,0,1,,,,,0,,,83,92
8256,note_on,,,,,4,0,2,,,,,1,,,76,92
8256,note_on,,,,,256,0,6,,,,,4,,,68,92
8256,note_on,,,,,4,0,3,,,,,10,,,56,92
8256,note_on,,,,,4,0,4,,,,,2,,,83,117
8256,note_on,,,,,4,0,8,,,,,6,,,44,77
8256,note_on,,,,,4,0,10,,,,,8,,,56,60
8256,note_on,,,,,4,0,7,,,,,5,,,56,92
8256,note_on,,,,,4,0,5,,,,,3,,,76,117
8396,note_off,,,,,140,0,7,,,,,5,,,56,0
8396,note_off,,,,,140,0,4,,,,,2,,,83,0
8396,note_off,,,,,140,0,10,,,,,8,,,56,0
8396,note_off,,,,,140,0,5,,,,,3,,,76,0
8396,note_off,,,,,140,0,8,,,,,6,,,44,0
8396,note_off,,,,,140,0,1,,,,,0,,,83,0
8396,note_off,,,,,140,0,2,,,,,1,,,76,0
8396,note_off,,,,,140,0,3,,,,,10,,,56,0
8400,note_on,,,,,4,0,1,,,,,0,,,86,92
8400,note_on,,,,,4,0,2,,,,,1,,,83,92
8400,note_on,,,,,4,0,10,,,,,8,,,52,60
8400,note_on,,,,,4,0,4,,,,,2,,,86,117
8400,note_on,,,,,4,0,3,,,,,10,,,52,92
8400,note_on,,,,,4,0,8,,,,,6,,,40,77
8400,note_on,,,,,4,0,7,,,,,5,,,52,92
8400,note_on,,,,,4,0,5,,,,,3,,,83,117
8444,note_off,,,,,44,0,7,,,,,5,,,52,0
8444,note_off,,,,,44,0,4,,,,,2,,,86,0
8444,note_off,,,,,44,0,10,,,,,8,,,52,0
8444,note_off,,,,,44,0,3,,,,,10,,,52,0
8444,note_off,,,,,44,0,2,,,,,1,,,83,0
8444,note_off,,,,,44,0,1,,,,,0,,,86,0
8444,note_off,,,,,188,0,6,,,,,4,,,68,0
8444,note_off,,,,,44,0,8,,,,,6,,,40,0
8444,note_off,,,,,44,0,5,,,,,3,,,83,0
8448,note_on,,,,,4,0,6,,,,,4,,,64,92
8448,note_on,,,,,4,0,2,,,,,1,,,83,92
8448,note_on,,,,,4,0,7,,,,,5,,,57,92
8448,note_on,,,,,4,0,5,,,,,3,,,83,117
8448,note_on,,,,,4,0,10,,,,,8,,,57,60
8448,note_on,,,,,4,0,4,,,,,2,,,86,117
8448,note_on,,,,,4,0,8,,,,,6,,,45,77
8448,note_on,,,,,4,0,3,,,,,10,,,57,92
8448,note_on,,,,,4,0,1,,,,,0,,,86,92
8636,note_off,,,,,188,0,3,,,,,10,,,57,0
8636,note_off,,,,,188,0,2,,,,,1,,,83,0
8636,note_off,,,,,188,0,4,,,,,2,,,86,0
8636,note_off,,,,,188,0,5,,,,,3,,,83,0
8636,note_off,,,,,188,0,7,,,,,5,,,57,0
8636,note_off,,,,,188,0,1,,,,,0,,,86,0
8636,note_off,,,,,188,0,10,,,,,8,,,57,0
8636,note_off,,,,,188,0,8,,,,,6,,,45,0
8640,note_on,,,,,4,0,1,,,,,0,,,85,92
8640,note_on,,,,,4,0,4,,,,,2,,,85,117
8640,note_on,,,,,4,0,3,,,,,10,,,45,92
8640,note_on,,,,,4,0,7,,,,,5,,,45,92
8640,note_on,,,,,4,0,8,,,,,6,,,33,77
8640,note_on,,,,,4,0,2,,,,,1,,,81,92
8640,note_on,,,,,4,0,5,,,,,3,,,81,117
8640,note_on,,,,,4,0,10,,,,,8,,,45,60
8768,note_off,,,,,320,0,6,,,,,4,,,64,0
8828,note_off,,,,,188,0,2,,,,,1,,,81,0
8828,note_off,,,,,188,0,7,,,,,5,,,45,0
8828,note_off,,,,,188,0,10,,,,,8,,,45,0
8828,note_off,,,,,188,0,4,,,,,2,,,85,0
8828,note_off,,,,,188,0,3,,,,,10,,,45,0
8828,note_off,,,,,188,0,5,,,,,3,,,81,0
8828,note_off,,,,,188,0,1,,,,,0,,,85,0
8828,note_off,,,,,188,0,8,,,,,6,,,33,0
9024,note_on,,,,,196,0,1,,,,,0,,,76,45
9024,note_on,,,,,196,0,4,,,,,2,,,76,57
9212,note_off,,,,,188,0,1,,,,,0,,,76,0
9212,note_off,,,,,188,0,4,,,,,2,,,76,0
9216,note_on,,,,,448,0,6,,,,,4,,,62,45
9216,note_on,,,,,388,0,3,,,,,10,,,62,45
9216,note_on,,,,,4,0,4,,,,,2,,,77,57
9216,note_on,,,,,4,0,1,,,,,0,,,77,45
9280,note_off,,,,,64,0,1,,,,,0,,,77,0
9280,note_off,,,,,64,0,4,,,,,2,,,77,0
9312,note_off,,,,,96,0,6,,,,,4,,,62,0
9312,note_off,,,,,96,0,3,,,,,10,,,62,0
9408,note_on,,,,,128,0,4,,,,,2,,,77,57
9408,note_on,,,,,580,0,5,,,,,3,,,69,57
9408,note_on,,,,,580,0,2,,,,,1,,,69,45
9408,note_on,,,,,128,0,1,,,,,0,,,77,45
9472,note_off,,,,,64,0,4,,,,,2,,,77,0
9472,note_off,,,,,64,0,1,,,,,0,,,77,0
9596,note_off,,,,,188,0,5,,,,,3,,,69,0
9596,note_off,,,,,188,0,2,,,,,1,,,69,0
9600,note_on,,,,,128,0,1,,,,,0,,,77,45
9600,note_on,,,,,288,0,6,,,,,4,,,62,45
9600,note_on,,,,,128,0,4,,,,,2,,,77,57
9600,note_on,,,,,288,0,3,,,,,10,,,62,45
9600,note_on,,,,,4,0,2,,,,,1,,,74,45
9600,note_on,,,,,4,0,5,,,,,3,,,74,57
9664,note_off,,,,,64,0,4,,,,,2,,,77,0
9664,note_off,,,,,64,0,1,,,,,0,,,77,0
9696,note_off,,,,,96,0,6,,,,,4,,,62,0
9696,note_off,,,,,96,0,3,,,,,10,,,62,0
9788,note_off,,,,,188,0,5,,,,,3,,,74,0
9788,note_off,,,,,188,0,2,,,,,1,,,74,0
9792,note_on,,,,,4,0,2,,,,,1,,,69,45
9792,note_on,,,,,128,0,1,,,,,0,,,77,45
9792,note_on,,,,,128,0,4,,,,,2,,,77,57
9792,note_on,,,,,4,0,5,,,,,3,,,69,57
9856,note_off,,,,,64,0,4,,,,,2,,,77,0
9856,note_off,,,,,64,0,1,,,,,0,,,77,0
9980,note_off,,,,,188,0,2,,,,,1,,,69,0
9980,note_off,,,,,188,0,5,,,,,3,,,69,0
9984,note_on,,,,,128,0,4,,,,,2,,,78,57
9984,note_on,,,,,288,0,6,,,,,4,,,62,45
9984,note_on,,,,,128,0,1,,,,,0,,,78,45
9984,note_on,,,,,288,0,3,,,,,10,,,62,45
10048,note_off,,,,,64,0,1,,,,,0,,,78,0
10048,note_off,,,,,64,0,4,,,,,2,,,78,0
10080,note_on,,,,,32,0,1,,,,,0,,,78,45
10080,note_on,,,,,32,0,4,,,,,2,,,78,57
10080,note_off,,,,,96,0,3,,,,,10,,,62,0
10080,note_off,,,,,96,0,6,,,,,4,,,62,0
10144,note_off,,,,,64,0,1,,,,,0,,,78,0
10144,note_off,,,,,64,0,4,,,,,2,,,78,0
10176,note_on,,,,,32,0,1,,,,,0,,,78,45
10176,note_on,,,,,196,0,5,,,,,3,,,69,57
10176,note_on,,,,,32,0,4,,,,,2,,,78,57
10176,note_on,,,,,196,0,2,,,,,1,,,69,45
10240,note_off,,,,,64,0,4,,,,,2,,,78,0
10240,note_off,,,,,64,0,1,,,,,0,,,78,0
10272,note_on,,,,,32,0,4,,,,,2,,,78,57
10272,note_on,,,,,32,0,1,,,,,0,,,78,45
10336,note_off,,,,,64,0,4,,,,,2,,,78,0
10336,note_off,,,,,64,0,1,,,,,0,,,78,0
10364,note_off,,,,,188,0,5,,,,,3,,,69,0
10364,note_off,,,,,188,0,2,,,,,1,,,69,0
10368,note_on,,,,,288,0,3,,,,,10,,,62,45
10368,note_on,,,,,32,0,4,,,,,2,,,78,57
10368,note_on,,,,,4,0,2,,,,,1,,,72,45
10368,note_on,,,,,4,0,5,,,,,3,,,72,57
10368,note_on,,,,,32,0,1,,,,,0,,,78,45
10368,note_on,,,,,288,0,6,,,,,4,,,62,45
10432,note_off,,,,,64,0,1,,,,,0,,,78,0
10432,note_off,,,,,64,0,4,,,,,2,,,78,0
10464,note_on,,,,,32,0,4,,,,,2,,,78,57
10464,note_on,,,,,32,0,1,,,,,0,,,78,45
10464,note_off,,,,,96,0,6,,,,,4,,,62,0
10464,note_off,,,,,96,0,3,,,,,10,,,62,0
10528,note_off,,,,,64,0,4,,,,,2,,,78,0
10528,note_off,,,,,64,0,1,,,,,0,,,78,0
10556,note_off,,,,,188,0,5,,,,,3,,,72,0
10556,note_off,,,,,188,0,2,,,,,1,,,72,0
10560,note_on,,,,,4,0,5,,,,,3,,,69,57
10560,note_on,,,,,32,0,1,,,,,0,,,78,45
10560,note_on,,,,,32,0,4,,,,,2,,,78,57
10560,note_on,,,,,4,0,2,,,,,1,,,69,45
10624,note_off,,,,,64,0,1,,,,,0,,,78,0
10624,note_off,,,,,64,0,4,,,,,2,,,78,0
10656,note_on,,,,,32,0,4,,,,,2,,,78,57
10656,note_on,,,,,32,0,1,,,,,0,,,78,45
10720,note_off,,,,,64,0,1,,,,,0,,,78,0
10720,note_off,,,,,64,0,4,,,,,2,,,78,0
10748,note_off,,,,,188,0,5,,,,,3,,,69,0
10748,note_off,,,,,188,0,2,,,,,1,,,69,0
10752,note_on,,,,,288,0,3,,,,,10,,,62,45
10752,note_on,,,,,32,0,4,,,,,2,,,79,57
10752,note_on,,,,,288,0,6,,,,,4,,,62,45
10752,note_on,,,,,32,0,1,,,,,0,,,79,45
10844,note_off,,,,,92,0,1,,,,,0,,,79,0
10844,note_off,,,,,92,0,4,,,,,2,,,79,0
10848,note_on,,,,,4,0,1,,,,,0,,,79,45
10848,note_on,,,,,4,0,4,,,,,2,,,79,57
10848,note_off,,,,,96,0,6,,,,,4,,,62,0
10848,note_off,,,,,96,0,3,,,,,10,,,62,0
10940,note_off,,,,,92,0,4,,,,,2,,,79,0
10940,note_off,,,,,92,0,1,,,,,0,,,79,0
10944,note_on,,,,,4,0,4,,,,,2,,,79,57
10944,note_on,,,,,196,0,2,,,,,1,,,71,45
10944,note_on,,,,,4,0,1,,,,,0,,,79,45
10944,note_on,,,,,196,0,5,,,,,3,,,71,57
11036,note_off,,,,,92,0,4,,,,,2,,,79,0
11036,note_off,,,,,92,0,1,,,,,0,,,79,0
11040,note_on,,,,,4,0,1,,,,,0,,,79,45
11040,note_on,,,,,4,0,4,,,,,2,,,79,57
11132,note_off,,,,,188,0,5,,,,,3,,,71,0
11132,note_off,,,,,188,0,2,,,,,1,,,71,0
11132,note_off,,,,,92,0,1,,,,,0,,,79,0
11132,note_off,,,,,92,0,4,,,,,2,,,79,0
11136,note_on,,,,,288,0,3,,,,,10,,,62,45
11136,note_on,,,,,288,0,6,,,,,4,,,62,45
11136,note_on,,,,,4,0,4,,,,,2,,,79,57
11136,note_on,,,,,4,0,5,,,,,3,,,74,57
11136,note_on,,,,,4,0,2,,,,,1,,,74,45
11136,note_on,,,,,4,0,1,,,,,0,,,79,45
11228,note_off,,,,,92,0,1,,,,,0,,,79,0
11228,note_off,,,,,92,0,4,,,,,2,,,79,0
11232,note_off,,,,,96,0,3,,,,,10,,,62,0
11232,note_off,,,,,96,0,6,,,,,4,,,62,0
11232,note_on,,,,,4,0,4,,,,,2,,,79,57
11232,note_on,,,,,4,0,1,,,,,0,,,79,45
11324,note_off,,,,,188,0,5,,,,,3,,,74,0
11324,note_off,,,,,92,0,1,,,,,0,,,79,0
11324,note_off,,,,,92,0,4,,,,,2,,,79,0
11324,note_off,,,,,188,0,2,,,,,1,,,74,0
11328,note_on,,,,,4,0,2,,,,,1,,,71,45
11328,note_on,,,,,4,0,1,,,,,0,,,79,45
11328,note_on,,,,,4,0,4,,,,,2,,,79,57
11328,note_on,,,,,4,0,5,,,,,3,,,71,57
11420,note_off,,,,,92,0,1,,,,,0,,,79,0
11420,note_off,,,,,92,0,4,,,,,2,,,79,0
11424,note_on,,,,,4,0,1,,,,,0,,,79,45
11424,note_on,,,,,4,0,4,,,,,2,,,79,57
11516,note_off,,,,,188,0,2,,,,,1,,,71,0
11516,note_off,,,,,92,0,4,,,,,2,,,79,0
11516,note_off,,,,,188,0,5,,,,,3,,,71,0
11516,note_off,,,,,92,0,1,,,,,0,,,79,0
11520,note_on,,,,,288,0,3,,,,,10,,,62,45
11520,note_on,,,,,4,0,4,,,,,2,,,80,57
11520,note_on,,,,,4,0,1,,,,,0,,,80,45
11520,note_on,,,,,288,0,6,,,,,4,,,62,45
11612,note_off,,,,,92,0,4,,,,,2,,,80,0
11612,note_off,,,,,92,0,1,,,,,0,,,80,0
11616,note_off,,,,,96,0,3,,,,,10,,,62,0
11616,note_on,,,,,4,0,4,,,,,2,,,80,57
11616,note_on,,,,,4,0,1,,,,,0,,,80,45
11616,note_off,,,,,96,0,6,,,,,4,,,62,0
11708,note_off,,,,,92,0,4,,,,,2,,,80,0
11708,note_off,,,,,92,0,1,,,,,0,,,80,0
11712,note_on,,,,,4,0,1,,,,,0,,,80,45
11712,note_on,,,,,196,0,2,,,,,1,,,71,45
11712,note_on,,,,,196,0,5,,,,,3,,,71,57
11712,note_on,,,,,4,0,4,,,,,2,,,80,57
11804,note_off,,,,,92,0,1,,,,,0,,,80,0
11804,note_off,,,,,92,0,4,,,,,2,,,80,0
11808,note_on,,,,,4,0,4,,,,,2,,,80,57
11808,note_on,,,,,4,0,1,,,,,0,,,80,45
11900,note_off,,,,,188,0,2,,,,,1,,,71,0
11900,note_off,,,,,92,0,4,,,,,2,,,80,0
11900,note_off,,,,,188,0,5,,,,,3,,,71,0
11900,note_off,,,,,92,0,1,,,,,0,,,80,0
11904,note_on,,,,,4,0,2,,,,,1,,,76,45
11904,note_on,,,,,4,0,4,,,,,2,,,80,57
11904,note_on,,,,,288,0,3,,,,,10,,,62,45
11904,note_on,,,,,4,0,5,,,,,3,,,76,57
11904,note_on,,,,,4,0,1,,,,,0,,,80,45
11904,note_on,,,,,288,0,6,,,,,4,,,62,45
11996,note_off,,,,,92,0,1,,,,,0,,,80,0
11996,note_off,,,,,92,0,4,,,,,2,,,80,0
12000,note_on,,,,,4,0,1,,,,,0,,,80,45
12000,note_on,,,,,4,0,4,,,,,2,,,80,57
12000,note_off,,,,,96,0,3,,,,,10,,,62,0
12000,note_off,,,,,96,0,6,,,,,4,,,62,0
12092,note_off,,,,,92,0,1,,,,,0,,,80,0
12092,note_off,,,,,188,0,2,,,,,1,,,76,0
12092,note_off,,,,,188,0,5,,,,,3,,,76,0
12092,note_off,,,,,92,0,4,,,,,2,,,80,0
12096,note_on,,,,,4,0,2,,,,,1,,,71,45
12096,note_on,,,,,4,0,5,,,,,3,,,71,57
12096,note_on,,,,,4,0,4,,,,,2,,,80,57
12096,note_on,,,,,4,0,1,,,,,0,,,80,45
12188,note_off,,,,,92,0,1,,,,,0,,,80,0
12188,note_off,,,,,92,0,4,,,,,2,,,80,0
12192,note_on,,,,,4,0,1,,,,,0,,,80,45
12192,note_on,,,,,4,0,4,,,,,2,,,80,57
12284,note_off,,,,,92,0,1,,,,,0,,,80,0
12284,note_off,,,,,92,0,4,,,,,2,,,80,0
12284,note_off,,,,,188,0,5,,,,,3,,,71,0
12284,note_off,,,,,188,0,2,,,,,1,,,71,0
12288,note_on,,,,,288,0,3,,,,,10,,,61,45
12288,note_on,,,,,4,0,4,,,,,2,,,81,57
12288,note_on,,,,,4,0,1,,,,,0,,,81,45
12288,note_on,,,,,288,0,6,,,,,4,,,61,45
12384,note_off,,,,,96,0,4,,,,,2,,,81,0
12384,note_on,,,,,0,0,1,,,,,0,,,76,45
12384,note_off,,,,,96,0,1,,,,,0,,,81,0
12384,note_on,,,,,0,0,4,,,,,2,,,76,57
12424,note_off,,,,,136,0,3,,,,,10,,,61,0
12424,note_off,,,,,136,0,6,,,,,4,,,61,0
12476,note_off,,,,,92,0,4,,,,,2,,,76,0
12476,note_off,,,,,92,0,1,,,,,0,,,76,0
12480,note_on,,,,,4,0,1,,,,,0,,,81,45
12480,note_on,,,,,196,0,5,,,,,3,,,76,57
12480,note_on,,,,,56,0,3,,,,,10,,,61,45
12480,note_on,,,,,56,0,6,,,,,4,,,61,45
12480,note_on,,,,,196,0,2,,,,,1,,,76,45
12480,note_on,,,,,4,0,4,,,,,2,,,81,57
12576,note_on,,,,,0,0,1,,,,,0,,,76,45
12576,note_on,,,,,0,0,4,,,,,2,,,76,57
12576,note_off,,,,,96,0,4,,,,,2,,,81,0
12576,note_off,,,,,96,0,1,,,,,0,,,81,0
12616,note_off,,,,,136,0,6,,,,,4,,,61,0
12616,note_off,,,,,136,0,3,,,,,10,,,61,0
12668,note_off,,,,,188,0,5,,,,,3,,,76,0
12668,note_off,,,,,92,0,4,,,,,2,,,76,0
12668,note_off,,,,,188,0,2,,,,,1,,,76,0
12668,note_off,,,,,92,0,1,,,,,0,,,76,0
12672,note_on,,,,,4,0,1,,,,,0,,,81,45
12672,note_on,,,,,4,0,4,,,,,2,,,81,57
12672,note_on,,,,,4,0,2,,,,,1,,,73,45
12672,note_on,,,,,56,0,3,,,,,10,,,61,45
12672,note_on,,,,,56,0,6,,,,,4,,,61,45
12672,note_on,,,,,4,0,5,,,,,3,,,73,57
12768,note_on,,,,,0,0,4,,,,,2,,,76,57
12768,note_off,,,,,96,0,4,,,,,2,,,81,0
12768,note_off,,,,,96,0,1,,,,,0,,,81,0
12768,note_on,,,,,0,0,1,,,,,0,,,76,45
12808,note_off,,,,,136,0,6,,,,,4,,,61,0
12808,note_off,,,,,136,0,3,,,,,10,,,61,0
12860,note_off,,,,,188,0,2,,,,,1,,,73,0
12860,note_off,,,,,92,0,4,,,,,2,,,76,0
12860,note_off,,,,,92,0,1,,,,,0,,,76,0
12860,note_off,,,,,188,0,5,,,,,3,,,73,0
12864,note_on,,,,,4,0,4,,,,,2,,,81,57
12864,note_on,,,,,56,0,3,,,,,10,,,61,45
12864,note_on,,,,,4,0,2,,,,,1,,,69,45
12864,note_on,,,,,4,0,1,,,,,0,,,81,45
12864,note_on,,,,,56,0,6,,,,,4,,,61,45
12864,note_on,,,,,4,0,5,,,,,3,,,69,57
12928,note_off,,,,,64,0,6,,,,,4,,,61,0
12928,note_off,,,,,64,0,3,,,,,10,,,61,0
12960,note_off,,,,,96,0,4,,,,,2,,,81,0
12960,note_on,,,,,0,0,1,,,,,0,,,76,45
12960,note_off,,,,,96,0,1,,,,,0,,,81,0
12960,note_on,,,,,0,0,4,,,,,2,,,76,57
13052,note_off,,,,,188,0,5,,,,,3,,,69,0
13052,note_off,,,,,188,0,2,,,,,1,,,69,0
13052,note_off,,,,,92,0,4,,,,,2,,,76,0
13052,note_off,,,,,92,0,1,,,,,0,,,76,0
13056,note_on,,,,,4,0,4,,,,,2,,,83,57
13056,note_on,,,,,128,0,3,,,,,10,,,56,45
13056,note_on,,,,,4,0,1,,,,,0,,,83,45
13056,note_on,,,,,128,0,6,,,,,4,,,56,45
13152,note_on,,,,,0,0,1,,,,,0,,,76,45
13152,note_off,,,,,96,0,4,,,,,2,,,83,0
13152,note_on,,,,,0,0,4,,,,,2,,,76,57
13152,note_off,,,,,96,0,1,,,,,0,,,83,0
13192,note_off,,,,,136,0,3,,,,,10,,,56,0
13192,note_off,,,,,136,0,6,,,,,4,,,56,0
13244,note_off,,,,,92,0,4,,,,,2,,,76,0
13244,note_off,,,,,92,0,1,,,,,0,,,76,0
13248,note_on,,,,,56,0,3,,,,,10,,,56,45
13248,note_on,,,,,196,0,5,,,,,3,,,76,57
13248,note_on,,,,,4,0,1,,,,,0,,,83,45
13248,note_on,,,,,4,0,4,,,,,2,,,83,57
13248,note_on,,,,,56,0,6,,,,,4,,,56,45
13248,note_on,,,,,196,0,2,,,,,1,,,76,45
13344,note_off,,,,,96,0,4,,,,,2,,,83,0
13344,note_on,,,,,0,0,4,,,,,2,,,76,57
13344,note_on,,,,,0,0,1,,,,,0,,,76,45
13344,note_off,,,,,96,0,1,,,,,0,,,83,0
13384,note_off,,,,,136,0,3,,,,,10,,,56,0
13384,note_off,,,,,136,0,6,,,,,4,,,56,0
13436,note_off,,,,,188,0,2,,,,,1,,,76,0
13436,note_off,,,,,92,0,4,,,,,2,,,76,0
13436,note_off,,,,,92,0,1,,,,,0,,,76,0
13436,note_off,,,,,188,0,5,,,,,3,,,76,0
13440,note_on,,,,,4,0,2,,,,,1,,,80,45
13440,note_on,,,,,4,0,4,,,,,2,,,83,57
13440,note_on,,,,,4,0,1,,,,,0,,,83,45
13440,note_on,,,,,4,0,5,,,,,3,,,80,57
13440,note_on,,,,,56,0,3,,,,,10,,,56,45
13440,note_on,,,,,56,0,6,,,,,4,,,56,45
13536,note_on,,,,,0,0,4,,,,,2,,,76,57
13536,note_off,,,,,96,0,4,,,,,2,,,83,0
13536,note_on,,,,,0,0,1,,,,,0,,,76,45
13536,note_off,,,,,96,0,1,,,,,0,,,83,0
13576,note_off,,,,,136,0,3,,,,,10,,,56,0
13576,note_off,,,,,136,0,6,,,,,4,,,56,0
13628,note_off,,,,,188,0,5,,,,,3,,,80,0
13628,note_off,,,,,188,0,2,,,,,1,,,80,0
13628,note_off,,,,,92,0,1,,,,,0,,,76,0
13628,note_off,,,,,92,0,4,,,,,2,,,76,0
13632,note_on,,,,,56,0,3,,,,,10,,,56,45
13632,note_on,,,,,4,0,5,,,,,3,,,76,57
13632,note_on,,,,,4,0,1,,,,,0,,,83,45
13632,note_on,,,,,4,0,4,,,,,2,,,83,57
13632,note_on,,,,,4,0,2,,,,,1,,,76,45
13632,note_on,,,,,56,0,6,,,,,4,,,56,45
13696,note_off,,,,,64,0,3,,,,,10,,,56,0
13696,note_off,,,,,64,0,6,,,,,4,,,56,0
13728,note_off,,,,,96,0,4,,,,,2,,,83,0
13728,note_off,,,,,96,0,1,,,,,0,,,83,0
13728,note_on,,,,,0,0,1,,,,,0,,,76,45
13728,note_on,,,,,0,0,4,,,,,2,,,76,57
13820,note_off,,,,,188,0,2,,,,,1,,,76,0
13820,note_off,,,,,92,0,1,,,,,0,,,76,0
13820,note_off,,,,,188,0,5,,,,,3,,,76,0
13820,note_off,,,,,92,0,4,,,,,2,,,76,0
13824,note_on,,,,,4996,0,7,,,,,5,,,57,92
13824,note_on,,,,,128,0,3,,,,,10,,,57,127
13824,note_on,,,,,4,0,2,,,,,1,,,81,92
13824,note_on,,,,,4,0,1,,,,,0,,,85,92
13824,note_on,,,,,4,0,4,,,,,2,,,85,127
13824,note_on,,,,,4996,0,10,,,,,8,,,57,60
13824,note_on,,,,,4,0,5,,,,,3,,,81,127
13824,note_on,,,,,4996,0,8,,,,,6,,,45,77
13920,note_on,,,,,224,0,6,,,,,4,,,64,92
14012,note_off,,,,,188,0,2,,,,,1,,,81,0
14012,note_off,,,,,188,0,1,,,,,0,,,85,0
14012,note_off,,,,,188,0,5,,,,,3,,,81,0
14012,note_off,,,,,92,0,6,,,,,4,,,64,0
14012,note_off,,,,,188,0,4,,,,,2,,,85,0
14016,note_on,,,,,4,0,5,,,,,3,,,69,127
14016,note_on,,,,,4,0,2,,,,,1,,,69,92
14016,note_on,,,,,4,0,1,,,,,0,,,73,92
14016,note_on,,,,,4,0,4,,,,,2,,,73,127
14016,note_on,,,,,4,0,6,,,,,4,,,69,92
14144,note_off,,,,,320,0,3,,,,,10,,,57,0
14144,note_off,,,,,320,0,8,,,,,6,,,45,0
14144,note_off,,,,,320,0,7,,,,,5,,,57,0
14144,note_off,,,,,320,0,10,,,,,8,,,57,0
14156,note_off,,,,,140,0,6,,,,,4,,,69,0
14160,note_on,,,,,4,0,6,,,,,4,,,64,92
14204,note_off,,,,,188,0,1,,,,,0,,,73,0
14204,note_off,,,,,44,0,6,,,,,4,,,64,0
14204,note_off,,,,,188,0,4,,,,,2,,,73,0
14204,note_off,,,,,188,0,5,,,,,3,,,69,0
14204,note_off,,,,,188,0,2,,,,,1,,,69,0
14208,note_on,,,,,64,0,3,,,,,10,,,52,127
14208,note_on,,,,,64,0,8,,,,,6,,,40,77
14208,note_on,,,,,4,0,6,,,,,4,,,61,92
14208,note_on,,,,,64,0,10,,,,,8,,,52,60
14208,note_on,,,,,64,0,7,,,,,5,,,52,92
14304,note_on,,,,,100,0,5,,,,,3,,,73,117
14304,note_on,,,,,100,0,1,,,,,0,,,76,92
14304,note_on,,,,,100,0,4,,,,,2,,,76,117
14304,note_on,,,,,100,0,2,,,,,1,,,73,92
14396,note_off,,,,,92,0,4,,,,,2,,,76,0
14396,note_off,,,,,92,0,5,,,,,3,,,73,0
14396,note_off,,,,,92,0,1,,,,,0,,,76,0
14396,note_off,,,,,92,0,2,,,,,1,,,73,0
14400,note_on,,,,,4,0,2,,,,,1,,,76,92
14400,note_on,,,,,4,0,5,,,,,3,,,76,117
14400,note_on,,,,,4,0,4,,,,,2,,,80,117
14400,note_on,,,,,4,0,1,,,,,0,,,80,92
14528,note_off,,,,,320,0,3,,,,,10,,,52,0
14528,note_off,,,,,320,0,7,,,,,5,,,52,0
14528,note_off,,,,,320,0,6,,,,,4,,,61,0
14528,note_off,,,,,320,0,8,,,,,6,,,40,0
14528,note_off,,,,,320,0,10,,,,,8,,,52,0
14540,note_off,,,,,140,0,2,,,,,1,,,76,0
14540,note_off,,,,,140,0,4,,,,,2,,,80,0
14540,note_off,,,,,140,0,1,,,,,0,,,80,0
14540,note_off,,,,,140,0,5,,,,,3,,,76,0
14544,note_on,,,,,4,0,1,,,,,0,,,76,92
14544,note_on,,,,,4,0,4,,,,,2,,,76,117
14544,note_on,,,,,4,0,2,,,,,1,,,73,92
14544,note_on,,,,,4,0,5,,,,,3,,,73,117
14588,note_off,,,,,44,0,5,,,,,3,,,73,0
14588,note_off,,,,,44,0,4,,,,,2,,,76,0
14588,note_off,,,,,44,0,1,,,,,0,,,76,0
14588,note_off,,,,,44,0,2,,,,,1,,,73,0
14592,note_on,,,,,4,0,2,,,,,1,,,81,92
14592,note_on,,,,,64,0,7,,,,,5,,,54,92
14592,note_on,,,,,4,0,4,,,,,2,,,85,117
14592,note_on,,,,,4,0,5,,,,,3,,,81,117
14592,note_on,,,,,4,0,1,,,,,0,,,85,92
14592,note_on,,,,,64,0,3,,,,,10,,,54,127
14592,note_on,,,,,64,0,10,,,,,8,,,54,60
14592,note_on,,,,,64,0,8,,,,,6,,,42,77
14688,note_on,,,,,160,0,6,,,,,4,,,57,92
14780,note_off,,,,,188,0,2,,,,,1,,,81,0
14780,note_off,,,,,92,0,6,,,,,4,,,57,0
14780,note_off,,,,,188,0,4,,,,,2,,,85,0
14780,note_off,,,,,188,0,5,,,,,3,,,81,0
14780,note_off,,,,,188,0,1,,,,,0,,,85,0
14784,note_on,,,,,4,0,1,,,,,0,,,73,92
14784,note_on,,,,,4,0,2,,,,,1,,,69,92
14784,note_on,,,,,4,0,6,,,,,4,,,61,92
14784,note_on,,,,,4,0,5,,,,,3,,,69,117
14784,note_on,,,,,4,0,4,,,,,2,,,73,117
14912,note_off,,,,,320,0,7,,,,,5,,,54,0
14912,note_off,,,,,320,0,3,,,,,10,,,54,0
14912,note_off,,,,,320,0,8,,,,,6,,,42,0
14912,note_off,,,,,320,0,10,,,,,8,,,54,0
14924,note_off,,,,,140,0,6,,,,,4,,,61,0
14928,note_on,,,,,4,0,6,,,,,4,,,57,92
14972,note_off,,,,,188,0,4,,,,,2,,,73,0
14972,note_off,,,,,188,0,1,,,,,0,,,73,0
14972,note_off,,,,,188,0,5,,,,,3,,,69,0
14972,note_off,,,,,188,0,2,,,,,1,,,69,0
14972,note_off,,,,,44,0,6,,,,,4,,,57,0
14976,note_on,,,,,4,0,6,,,,,4,,,69,92
14976,note_on,,,,,64,0,3,,,,,10,,,49,127
14976,note_on,,,,,64,0,7,,,,,5,,,49,92
14976,note_on,,,,,64,0,8,,,,,6,,,37,77
14976,note_on,,,,,64,0,10,,,,,8,,,49,60
15072,note_on,,,,,100,0,1,,,,,0,,,76,92
15072,note_on,,,,,100,0,2,,,,,1,,,73,92
15072,note_on,,,,,100,0,4,,,,,2,,,76,117
15072,note_on,,,,,100,0,5,,,,,3,,,73,117
15164,note_off,,,,,92,0,1,,,,,0,,,76,0
15164,note_off,,,,,92,0,2,,,,,1,,,73,0
15164,note_off,,,,,92,0,4,,,,,2,,,76,0
15164,note_off,,,,,92,0,5,,,,,3,,,73,0
15168,note_on,,,,,4,0,1,,,,,0,,,80,92
15168,note_on,,,,,4,0,4,,,,,2,,,80,117
15168,note_on,,,,,4,0,2,,,,,1,,,76,92
15168,note_on,,,,,4,0,5,,,,,3,,,76,117
15296,note_off,,,,,320,0,7,,,,,5,,,49,0
15296,note_off,,,,,320,0,3,,,,,10,,,49,0
15296,note_off,,,,,320,0,10,,,,,8,,,49,0
15296,note_off,,,,,320,0,8,,,,,6,,,37,0
15296,note_off,,,,,320,0,6,,,,,4,,,69,0
15308,note_off,,,,,140,0,2,,,,,1,,,76,0
15308,note_off,,,,,140,0,5,,,,,3,,,76,0
15308,note_off,,,,,140,0,1,,,,,0,,,80,0
15308,note_off,,,,,140,0,4,,,,,2,,,80,0
15312,note_on,,,,,4,0,2,,,,,1,,,73,92
15312,note_on,,,,,4,0,1,,,,,0,,,76,92
15312,note_on,,,,,4,0,4,,,,,2,,,76,117
15312,note_on,,,,,4,0,5,,,,,3,,,73,117
15356,note_off,,,,,44,0,1,,,,,0,,,76,0
15356,note_off,,,,,44,0,4,,,,,2,,,76,0
15356,note_off,,,,,44,0,5,,,,,3,,,73,0
15356,note_off,,,,,44,0,2,,,,,1,,,73,0
15360,note_on,,,,,4,0,4,,,,,2,,,85,117
15360,note_on,,,,,64,0,10,,,,,8,,,50,60
15360,note_on,,,,,4,0,2,,,,,1,,,81,92
15360,note_on,,,,,64,0,7,,,,,5,,,50,92
15360,note_on,,,,,64,0,8,,,,,6,,,38,77
15360,note_on,,,,,64,0,3,,,,,10,,,50,127
15360,note_on,,,,,4,0,5,,,,,3,,,81,117
15360,note_on,,,,,4,0,1,,,,,0,,,85,92
15456,note_on,,,,,160,0,6,,,,,4,,,66,92
15548,note_off,,,,,188,0,5,,,,,3,,,81,0
15548,note_off,,,,,188,0,4,,,,,2,,,85,0
15548,note_off,,,,,188,0,2,,,,,1,,,81,0
15548,note_off,,,,,92,0,6,,,,,4,,,66,0
15548,note_off,,,,,188,0,1,,,,,0,,,85,0
15552,note_on,,,,,4,0,1,,,,,0,,,73,92
15552,note_on,,,,,4,0,2,,,,,1,,,69,92
15552,note_on,,,,,4,0,4,,,,,2,,,73,117
15552,note_on,,,,,4,0,5,,,,,3,,,69,117
15552,note_on,,,,,4,0,6,,,,,4,,,62,92
15680,note_off,,,,,320,0,3,,,,,10,,,50,0
15680,note_off,,,,,320,0,8,,,,,6,,,38,0
15680,note_off,,,,,320,0,7,,,,,5,,,50,0
15680,note_off,,,,,320,0,10,,,,,8,,,50,0
15692,note_off,,,,,140,0,6,,,,,4,,,62,0
15696,note_on,,,,,4,0,6,,,,,4,,,66,92
15740,note_off,,,,,188,0,4,,,,,2,,,73,0
15740,note_off,,,,,188,0,5,,,,,3,,,69,0
15740,note_off,,,,,188,0,1,,,,,0,,,73,0
15740,note_off,,,,,44,0,6,,,,,4,,,66,0
15740,note_off,,,,,188,0,2,,,,,1,,,69,0
15744,note_on,,,,,4,0,6,,,,,4,,,59,92
15744,note_on,,,,,64,0,8,,,,,6,,,39,77
15744,note_on,,,,,64,0,3,,,,,10,,,51,127
15744,note_on,,,,,64,0,7,,,,,5,,,51,92
15744,note_on,,,,,64,0,10,,,,,8,,,51,60
15840,note_on,,,,,100,0,5,,,,,3,,,78,117
15840,note_on,,,,,100,0,1,,,,,0,,,81,92
15840,note_on,,,,,100,0,4,,,,,2,,,81,117
15840,note_on,,,,,100,0,2,,,,,1,,,78,92
15932,note_off,,,,,92,0,2,,,,,1,,,78,0
15932,note_off,,,,,92,0,1,,,,,0,,,81,0
15932,note_off,,,,,92,0,4,,,,,2,,,81,0
15932,note_off,,,,,92,0,5,,,,,3,,,78,0
15936,note_on,,,,,4,0,5,,,,,3,,,80,117
15936,note_on,,,,,4,0,1,,,,,0,,,83,92
15936,note_on,,,,,4,0,2,,,,,1,,,80,92
15936,note_on,,,,,4,0,4,,,,,2,,,83,117
16064,note_off,,,,,320,0,10,,,,,8,,,51,0
16064,note_off,,,,,320,0,6,,,,,4,,,59,0
16064,note_off,,,,,320,0,7,,,,,5,,,51,0
16064,note_off,,,,,320,0,8,,,,,6,,,39,0
16064,note_off,,,,,320,0,3,,,,,10,,,51,0
16076,note_off,,,,,140,0,2,,,,,1,,,80,0
16076,note_off,,,,,140,0,4,,,,,2,,,83,0
16076,note_off,,,,,140,0,5,,,,,3,,,80,0
16076,note_off,,,,,140,0,1,,,,,0,,,83,0
16080,note_on,,,,,4,0,4,,,,,2,,,85,117
16080,note_on,,,,,4,0,2,,,,,1,,,81,92
16080,note_on,,,,,4,0,1,,,,,0,,,85,92
16080,note_on,,,,,4,0,5,,,,,3,,,81,117
16124,note_off,,,,,44,0,5,,,,,3,,,81,0
16124,note_off,,,,,44,0,4,,,,,2,,,85,0
16124,note_off,,,,,44,0,2,,,,,1,,,81,0
16124,note_off,,,,,44,0,1,,,,,0,,,85,0
16128,note_on,,,,,64,0,10,,,,,8,,,52,60
16128,note_on,,,,,64,0,3,,,,,10,,,52,127
16128,note_on,,,,,64,0,8,,,,,6,,,40,77
16128,note_on,,,,,4,0,2,,,,,1,,,80,92
16128,note_on,,,,,4,0,4,,,,,2,,,83,117
16128,note_on,,,,,64,0,7,,,,,5,,,52,92
16128,note_on,,,,,4,0,5,,,,,3,,,80,117
16128,note_on,,,,,4,0,1,,,,,0,,,83,92
16268,note_off,,,,,140,0,5,,,,,3,,,80,0
16268,note_off,,,,,140,0,2,,,,,1,,,80,0
16272,note_on,,,,,4,0,2,,,,,1,,,76,92
16272,note_on,,,,,4,0,5,,,,,3,,,76,117
16316,note_off,,,,,44,0,2,,,,,1,,,76,0
16316,note_off,,,,,44,0,5,,,,,3,,,76,0
16316,note_off,,,,,188,0,4,,,,,2,,,83,0
16316,note_off,,,,,188,0,1,,,,,0,,,83,0
16320,note_on,,,,,4,0,5,,,,,3,,,74,117
16320,note_on,,,,,4,0,2,,,,,1,,,74,92
16320,note_on,,,,,4,0,1,,,,,0,,,71,92
16320,note_on,,,,,4,0,4,,,,,2,,,71,117
16320,note_on,,,,,256,0,6,,,,,4,,,56,92
16448,note_off,,,,,320,0,3,,,,,10,,,52,0
16448,note_off,,,,,320,0,10,,,,,8,,,52,0
16448,note_off,,,,,320,0,7,,,,,5,,,52,0
16448,note_off,,,,,320,0,8,,,,,6,,,40,0
16460,note_off,,,,,140,0,5,,,,,3,,,74,0
16460,note_off,,,,,140,0,2,,,,,1,,,74,0
16464,note_on,,,,,4,0,5,,,,,3,,,73,117
16464,note_on,,,,,4,0,2,,,,,1,,,73,92
16508,note_off,,,,,188,0,4,,,,,2,,,71,0
16508,note_off,,,,,188,0,1,,,,,0,,,71,0
16508,note_off,,,,,188,0,6,,,,,4,,,56,0
16508,note_off,,,,,44,0,5,,,,,3,,,73,0
16508,note_off,,,,,44,0,2,,,,,1,,,73,0
16512,note_on,,,,,64,0,7,,,,,5,,,56,92
16512,note_on,,,,,64,0,3,,,,,10,,,56,127
16512,note_on,,,,,64,0,8,,,,,6,,,44,77
16512,note_on,,,,,4,0,2,,,,,1,,,74,92
16512,note_on,,,,,4,0,5,,,,,3,,,74,117
16512,note_on,,,,,64,0,10,,,,,8,,,56,60
16512,note_on,,,,,4,0,6,,,,,4,,,59,92
16608,note_on,,,,,100,0,1,,,,,0,,,86,92
16608,note_on,,,,,100,0,4,,,,,2,,,86,117
16652,note_off,,,,,140,0,5,,,,,3,,,74,0
16652,note_off,,,,,140,0,2,,,,,1,,,74,0
16656,note_on,,,,,4,0,5,,,,,3,,,73,117
16656,note_on,,,,,4,0,2,,,,,1,,,73,92
16700,note_off,,,,,92,0,4,,,,,2,,,86,0
16700,note_off,,,,,92,0,1,,,,,0,,,86,0
16700,note_off,,,,,44,0,2,,,,,1,,,73,0
16700,note_off,,,,,44,0,5,,,,,3,,,73,0
16700,note_off,,,,,188,0,6,,,,,4,,,59,0
16704,note_on,,,,,4,0,4,,,,,2,,,85,117
16704,note_on,,,,,4,0,1,,,,,0,,,85,92
16704,note_on,,,,,4,0,6,,,,,4,,,56,92
16704,note_on,,,,,4,0,2,,,,,1,,,64,92
16704,note_on,,,,,4,0,5,,,,,3,,,64,117
16832,note_off,,,,,320,0,3,,,,,10,,,56,0
16832,note_off,,,,,320,0,10,,,,,8,,,56,0
16832,note_off,,,,,320,0,7,,,,,5,,,56,0
16832,note_off,,,,,320,0,8,,,,,6,,,44,0
16844,note_off,,,,,140,0,4,,,,,2,,,85,0
16844,note_off,,,,,140,0,1,,,,,0,,,85,0
16848,note_on,,,,,4,0,1,,,,,0,,,83,92
16848,note_on,,,,,4,0,4,,,,,2,,,83,117
16892,note_off,,,,,44,0,1,,,,,0,,,83,0
16892,note_off,,,,,188,0,6,,,,,4,,,56,0
16892,note_off,,,,,188,0,2,,,,,1,,,64,0
16892,note_off,,,,,44,0,4,,,,,2,,,83,0
16892,note_off,,,,,188,0,5,,,,,3,,,64,0
16896,note_on,,,,,4,0,6,,,,,4,,,64,92
16896,note_on,,,,,64,0,10,,,,,8,,,57,60
16896,note_on,,,,,64,0,3,,,,,10,,,57,92
16896,note_on,,,,,4,0,5,,,,,3,,,76,117
16896,note_on,,,,,64,0,8,,,,,6,,,45,77
16896,note_on,,,,,4,0,2,,,,,1,,,76,92
16896,note_on,,,,,4,0,1,,,,,0,,,85,92
16896,note_on,,,,,64,0,7,,,,,5,,,57,92
16896,note_on,,,,,4,0,4,,,,,2,,,85,117
17036,note_off,,,,,140,0,4,,,,,2,,,85,0
17036,note_off,,,,,140,0,1,,,,,0,,,85,0
17040,note_on,,,,,4,0,4,,,,,2,,,81,117
17040,note_on,,,,,4,0,1,,,,,0,,,81,92
17084,note_off,,,,,188,0,7,,,,,5,,,57,0
17084,note_off,,,,,188,0,6,,,,,4,,,64,0
17084,note_off,,,,,188,0,3,,,,,10,,,57,0
17084,note_off,,,,,188,0,8,,,,,6,,,45,0
17084,note_off,,,,,188,0,2,,,,,1,,,76,0
17084,note_off,,,,,188,0,5,,,,,3,,,76,0
17084,note_off,,,,,44,0,1,,,,,0,,,81,0
17084,note_off,,,,,188,0,10,,,,,8,,,57,0
17084,note_off,,,,,44,0,4,,,,,2,,,81,0
17088,note_on,,,,,4,0,5,,,,,3,,,78,117
17088,note_on,,,,,4,0,8,,,,,6,,,38,77
17088,note_on,,,,,4,0,4,,,,,2,,,83,117
17088,note_on,,,,,4,0,7,,,,,5,,,50,92
17088,note_on,,,,,4,0,3,,,,,10,,,50,92
17088,note_on,,,,,4,0,10,,,,,8,,,50,60
17088,note_on,,,,,4,0,6,,,,,4,,,59,92
17088,note_on,,,,,4,0,1,,,,,0,,,83,92
17088,note_on,,,,,4,0,2,,,,,1,,,78,92
17228,note_off,,,,,140,0,1,,,,,0,,,83,0
17228,note_off,,,,,140,0,4,,,,,2,,,83,0
17232,note_on,,,,,4,0,1,,,,,0,,,74,92
17232,note_on,,,,,4,0,4,,,,,2,,,74,117
17276,note_off,,,,,44,0,4,,,,,2,,,74,0
17276,note_off,,,,,188,0,6,,,,,4,,,59,0
17276,note_off,,,,,188,0,5,,,,,3,,,78,0
17276,note_off,,,,,188,0,7,,,,,5,,,50,0
17276,note_off,,,,,188,0,10,,,,,8,,,50,0
17276,note_off,,,,,188,0,2,,,,,1,,,78,0
17276,note_off,,,,,188,0,3,,,,,10,,,50,0
17276,note_off,,,,,188,0,8,,,,,6,,,38,0
17276,note_off,,,,,44,0,1,,,,,0,,,74,0
17280,note_on,,,,,4,0,8,,,,,6,,,40,77
17280,note_on,,,,,4,0,4,,,,,2,,,73,117
17280,note_on,,,,,4,0,2,,,,,1,,,64,92
17280,note_on,,,,,4,0,3,,,,,10,,,52,92
17280,note_on,,,,,4,0,1,,,,,0,,,73,92
17280,note_on,,,,,4,0,5,,,,,3,,,64,117
17280,note_on,,,,,4,0,10,,,,,8,,,52,60
17280,note_on,,,,,4,0,7,,,,,5,,,52,92
17280,note_on,,,,,4,0,6,,,,,4,,,64,92
17420,note_off,,,,,140,0,1,,,,,0,,,73,0
17420,note_off,,,,,140,0,4,,,,,2,,,73,0
17424,note_on,,,,,4,0,1,,,,,0,,,81,92
17424,note_on,,,,,4,0,4,,,,,2,,,81,117
17468,note_off,,,,,188,0,5,,,,,3,,,64,0
17468,note_off,,,,,188,0,10,,,,,8,,,52,0
17468,note_off,,,,,188,0,8,,,,,6,,,40,0
17468,note_off,,,,,188,0,3,,,,,10,,,52,0
17468,note_off,,,,,188,0,7,,,,,5,,,52,0
17468,note_off,,,,,44,0,4,,,,,2,,,81,0
17468,note_off,,,,,188,0,2,,,,,1,,,64,0
17468,note_off,,,,,44,0,1,,,,,0,,,81,0
17472,note_on,,,,,4,0,4,,,,,2,,,71,117
17472,note_on,,,,,4,0,1,,,,,0,,,71,92
17472,note_on,,,,,4,0,8,,,,,6,,,28,77
17472,note_on,,,,,4,0,3,,,,,10,,,40,92
17472,note_on,,,,,4,0,2,,,,,1,,,62,92
17472,note_on,,,,,4,0,7,,,,,5,,,40,92
17472,note_on,,,,,4,0,10,,,,,8,,,40,60
17472,note_on,,,,,4,0,5,,,,,3,,,62,117
17564,note_off,,,,,284,0,6,,,,,4,,,64,0
17568,note_on,,,,,4,0,6,,,,,4,,,64,92
17612,note_off,,,,,140,0,1,,,,,0,,,71,0
17612,note_off,,,,,140,0,4,,,,,2,,,71,0
17616,note_on,,,,,4,0,4,,,,,2,,,80,117
17616,note_on,,,,,4,0,1,,,,,0,,,80,92
17660,note_off,,,,,188,0,8,,,,,6,,,28,0
17660,note_off,,,,,44,0,1,,,,,0,,,80,0
17660,note_off,,,,,92,0,6,,,,,4,,,64,0
17660,note_off,,,,,44,0,4,,,,,2,,,80,0
17660,note_off,,,,,188,0,2,,,,,1,,,62,0
17660,note_off,,,,,188,0,7,,,,,5,,,40,0
17660,note_off,,,,,188,0,5,,,,,3,,,62,0
17660,note_off,,,,,188,0,3,,,,,10,,,40,0
17660,note_off,,,,,188,0,10,,,,,8,,,40,0
17664,note_on,,,,,4,0,3,,,,,10,,,45,92
17664,note_on,,,,,4,0,4,,,,,2,,,81,117
17664,note_on,,,,,4,0,7,,,,,5,,,45,92
17664,note_on,,,,,4,0,5,,,,,3,,,61,117
17664,note_on,,,,,4,0,8,,,,,6,,,33,77
17664,note_on,,,,,4,0,1,,,,,0,,,81,92
17664,note_on,,,,,4,0,6,,,,,4,,,64,92
17664,note_on,,,,,4,0,2,,,,,1,,,61,92
17664,note_on,,,,,4,0,10,,,,,8,,,45,60
17852,note_off,,,,,188,0,1,,,,,0,,,81,0
17852,note_off,,,,,188,0,4,,,,,2,,,81,0
17856,note_on,,,,,4,0,1,,,,,0,,,69,92
17856,note_on,,,,,4,0,4,,,,,2,,,69,117
17984,note_off,,,,,320,0,5,,,,,3,,,61,0
17984,note_off,,,,,320,0,2,,,,,1,,,61,0
17984,note_off,,,,,320,0,7,,,,,5,,,45,0
17984,note_off,,,,,320,0,3,,,,,10,,,45,0
17984,note_off,,,,,320,0,10,,,,,8,,,45,0
17984,note_off,,,,,320,0,6,,,,,4,,,64,0
17984,note_off,,,,,320,0,8,,,,,6,,,33,0
18044,note_off,,,,,188,0,1,,,,,0,,,69,0
18044,note_off,,,,,188,0,4,,,,,2,,,69,0
18048,note_on,,,,,4,0,1,,,,,0,,,57,92
18048,note_on,,,,,4,0,4,,,,,2,,,57,127
18368,note_off,,,,,320,0,1,,,,,0,,,57,0
18368,note_off,,,,,320,0,4,,,,,2,,,57,0
18432,note_on,,,,,448,0,7,,,,,5,,,45,45
18432,note_on,,,,,448,0,8,,,,,6,,,33,37
18432,note_on,,,,,448,0,2,,,,,1,,,73,45
18432,note_on,,,,,448,0,3,,,,,10,,,57,45
18432,note_on,,,,,448,0,5,,,,,3,,,73,76
18432,note_on,,,,,448,0,6,,,,,4,,,56,45
18432,set_tempo,,,,,18432,1,0,,1666666,,,,,,,
18432,note_on,,,,,64,0,1,,,,,0,,,73,92
18432,note_on,,,,,448,0,10,,,,,8,,,45,45
18432,note_on,,,,,64,0,4,,,,,2,,,69,76
18480,note_on,,,,,0,0,1,,,,,0,,,74,92
18480,note_off,,,,,48,0,1,,,,,0,,,73,0
18528,note_off,,,,,48,0,1,,,,,0,,,74,0
18528,note_on,,,,,0,0,1,,,,,0,,,76,92
18860,note_off,,,,,332,0,1,,,,,0,,,76,0
18864,note_on,,,,,4,0,1,,,,,0,,,76,92
19056,note_on,,,,,0,0,1,,,,,0,,,73,92
19056,note_off,,,,,192,0,1,,,,,0,,,76,0
19104,note_on,,,,,0,0,1,,,,,0,,,71,92
19104,note_off,,,,,48,0,1,,,,,0,,,73,0
19104,note_off,,,,,672,0,10,,,,,8,,,45,0
19152,note_off,,,,,48,0,1,,,,,0,,,71,0
19152,note_on,,,,,0,0,1,,,,,0,,,69,92
19196,note_off,,,,,44,0,1,,,,,0,,,69,0
19200,note_off,,,,,768,0,7,,,,,5,,,45,0
19200,note_on,,,,,0,0,7,,,,,5,,,49,45
19200,note_on,,,,,4,0,1,,,,,0,,,81,92
19200,note_on,,,,,0,0,3,,,,,10,,,49,45
19200,note_on,,,,,0,0,6,,,,,4,,,59,45
19200,note_off,,,,,768,0,6,,,,,4,,,56,0
19200,note_off,,,,,768,0,3,,,,,10,,,57,0
19200,note_on,,,,,96,0,10,,,,,8,,,49,45
19200,note_off,,,,,768,0,8,,,,,6,,,33,0
19200,note_on,,,,,0,0,8,,,,,6,,,37,37
19488,note_on,,,,,0,0,1,,,,,0,,,80,92
19488,note_off,,,,,288,0,1,,,,,0,,,81,0
19512,note_off,,,,,24,0,1,,,,,0,,,80,0
19512,note_on,,,,,0,0,1,,,,,0,,,81,92
19536,note_off,,,,,24,0,1,,,,,0,,,81,0
19536,note_on,,,,,0,0,1,,,,,0,,,80,92
19560,note_off,,,,,24,0,1,,,,,0,,,80,0
19560,note_on,,,,,0,0,1,,,,,0,,,81,92
19676,note_off,,,,,116,0,1,,,,,0,,,81,0
19680,note_on,,,,,4,0,1,,,,,0,,,76,92
19728,note_off,,,,,48,0,1,,,,,0,,,76,0
19728,note_on,,,,,0,0,1,,,,,0,,,81,92
19776,note_off,,,,,48,0,1,,,,,0,,,81,0
19776,note_on,,,,,0,0,1,,,,,0,,,85,92
19868,note_off,,,,,92,0,1,,,,,0,,,85,0
19872,note_on,,,,,4,0,1,,,,,0,,,76,92
19872,note_off,,,,,672,0,10,,,,,8,,,49,0
19964,note_off,,,,,92,0,1,,,,,0,,,76,0
19968,note_on,,,,,96,0,10,,,,,8,,,50,45
19968,note_off,,,,,1536,0,4,,,,,2,,,69,0
19968,note_on,,,,,0,0,5,,,,,3,,,62,76
19968,note_on,,,,,0,0,4,,,,,2,,,71,76
19968,note_off,,,,,768,0,6,,,,,4,,,59,0
19968,note_on,,,,,0,0,6,,,,,4,,,61,45
19968,note_off,,,,,1536,0,5,,,,,3,,,73,0
19968,note_on,,,,,0,0,8,,,,,6,,,38,37
19968,note_on,,,,,4,0,1,,,,,0,,,78,92
19968,note_on,,,,,0,0,3,,,,,10,,,50,45
19968,note_on,,,,,0,0,7,,,,,5,,,50,45
19968,note_off,,,,,768,0,7,,,,,5,,,49,0
19968,note_off,,,,,1536,0,2,,,,,1,,,73,0
19968,note_off,,,,,768,0,8,,,,,6,,,37,0
19968,note_on,,,,,0,0,2,,,,,1,,,71,45
19968,note_off,,,,,768,0,3,,,,,10,,,49,0
20160,note_on,,,,,0,0,1,,,,,0,,,83,92
20160,note_off,,,,,192,0,1,,,,,0,,,78,0
20208,note_on,,,,,0,0,1,,,,,0,,,85,92
20208,note_off,,,,,48,0,1,,,,,0,,,83,0
20252,note_off,,,,,44,0,1,,,,,0,,,85,0
20256,note_on,,,,,4,0,1,,,,,0,,,86,92
20544,note_off,,,,,288,0,1,,,,,0,,,86,0
20544,note_on,,,,,0,0,1,,,,,0,,,85,92
20640,note_on,,,,,0,0,1,,,,,0,,,83,92
20640,note_off,,,,,672,0,10,,,,,8,,,50,0
20640,note_off,,,,,96,0,1,,,,,0,,,85,0
20732,note_off,,,,,92,0,1,,,,,0,,,83,0
20736,note_off,,,,,768,0,6,,,,,4,,,61,0
20736,note_on,,,,,0,0,6,,,,,4,,,62,45
20736,note_on,,,,,96,0,10,,,,,8,,,52,45
20736,note_on,,,,,0,0,5,,,,,3,,,68,76
20736,note_off,,,,,768,0,5,,,,,3,,,62,0
20736,note_on,,,,,4,0,1,,,,,0,,,81,92
20736,note_on,,,,,0,0,7,,,,,5,,,52,45
20736,note_on,,,,,0,0,3,,,,,10,,,52,45
20736,note_off,,,,,768,0,3,,,,,10,,,50,0
20736,note_off,,,,,768,0,7,,,,,5,,,50,0
20736,note_off,,,,,768,0,8,,,,,6,,,38,0
20736,note_on,,,,,0,0,8,,,,,6,,,40,37
20784,note_on,,,,,0,0,1,,,,,0,,,80,92
20784,note_off,,,,,48,0,1,,,,,0,,,81,0
20808,note_off,,,,,24,0,1,,,,,0,,,80,0
20808,note_on,,,,,0,0,1,,,,,0,,,81,92
20832,note_on,,,,,0,0,1,,,,,0,,,80,92
20832,note_off,,,,,24,0,1,,,,,0,,,81,0
20856,note_off,,,,,24,0,1,,,,,0,,,80,0
20856,note_on,,,,,0,0,1,,,,,0,,,81,92
20880,note_on,,,,,0,0,1,,,,,0,,,80,92
20880,note_off,,,,,24,0,1,,,,,0,,,81,0
20904,note_on,,,,,0,0,1,,,,,0,,,81,92
20904,note_off,,,,,24,0,1,,,,,0,,,80,0
20928,note_on,,,,,0,0,1,,,,,0,,,80,92
20928,note_off,,,,,24,0,1,,,,,0,,,81,0
20952,note_on,,,,,0,0,1,,,,,0,,,81,92
20952,note_off,,,,,24,0,1,,,,,0,,,80,0
20976,note_on,,,,,0,0,1,,,,,0,,,80,92
20976,note_off,,,,,24,0,1,,,,,0,,,81,0
21024,note_on,,,,,0,0,1,,,,,0,,,78,92
21024,note_off,,,,,48,0,1,,,,,0,,,80,0
21116,note_off,,,,,92,0,1,,,,,0,,,78,0
21120,note_on,,,,,4,0,1,,,,,0,,,76,92
21440,note_off,,,,,320,0,1,,,,,0,,,76,0
21504,note_off,,,,,768,0,5,,,,,3,,,68,0
21504,note_on,,,,,0,0,8,,,,,6,,,45,77
21504,note_off,,,,,768,0,8,,,,,6,,,40,0
21504,note_off,,,,,768,0,7,,,,,5,,,52,0
21504,note_on,,,,,0,0,7,,,,,5,,,57,92
21504,set_tempo,,,,,3072,1,0,,1428571,,,,,,,
21504,note_on,,,,,64,0,1,,,,,0,,,69,92
21504,note_on,,,,,0,0,10,,,,,8,,,57,60
21504,note_off,,,,,768,0,3,,,,,10,,,52,0
21504,note_on,,,,,0,0,4,,,,,2,,,69,127
21504,note_on,,,,,0,0,3,,,,,10,,,57,127
21504,end_of_track,,,,,0,1,0,,,,,,,,,
21504,note_off,,,,,768,0,10,,,,,8,,,52,0
21504,note_off,,,,,768,0,6,,,,,4,,,62,0
21504,note_off,,,,,1536,0,4,,,,,2,,,71,0
21504,note_off,,,,,1536,0,2,,,,,1,,,71,0
21600,note_on,,,,,96,0,6,,,,,4,,,61,92
21600,note_on,,,,,96,0,2,,,,,1,,,64,92
21600,note_on,,,,,96,0,5,,,,,3,,,64,117
21692,note_off,,,,,188,0,1,,,,,0,,,69,0
21692,note_off,,,,,92,0,2,,,,,1,,,64,0
21692,note_off,,,,,92,0,5,,,,,3,,,64,0
21692,note_off,,,,,92,0,6,,,,,4,,,61,0
21692,note_off,,,,,188,0,4,,,,,2,,,69,0
21696,note_on,,,,,4,0,5,,,,,3,,,64,117
21696,note_on,,,,,4,0,2,,,,,1,,,64,92
21696,note_on,,,,,4,0,1,,,,,0,,,57,92
21696,note_on,,,,,4,0,6,,,,,4,,,61,92
21696,note_on,,,,,4,0,4,,,,,2,,,57,127
21824,note_off,,,,,320,0,3,,,,,10,,,57,0
21824,note_off,,,,,320,0,10,,,,,8,,,57,0
21824,note_off,,,,,320,0,7,,,,,5,,,57,0
21824,note_off,,,,,320,0,8,,,,,6,,,45,0
21836,note_off,,,,,140,0,5,,,,,3,,,64,0
21836,note_off,,,,,140,0,6,,,,,4,,,61,0
21836,note_off,,,,,140,0,2,,,,,1,,,64,0
21840,note_on,,,,,4,0,5,,,,,3,,,64,117
21840,note_on,,,,,4,0,6,,,,,4,,,61,92
21840,note_on,,,,,4,0,2,,,,,1,,,64,92
21884,note_off,,,,,44,0,6,,,,,4,,,61,0
21884,note_off,,,,,188,0,1,,,,,0,,,57,0
21884,note_off,,,,,44,0,5,,,,,3,,,64,0
21884,note_off,,,,,188,0,4,,,,,2,,,57,0
21884,note_off,,,,,44,0,2,,,,,1,,,64,0
21888,note_on,,,,,4,0,5,,,,,3,,,76,117
21888,note_on,,,,,4,0,6,,,,,4,,,68,92
21888,note_on,,,,,64,0,10,,,,,8,,,52,60
21888,note_on,,,,,64,0,8,,,,,6,,,40,77
21888,note_on,,,,,64,0,7,,,,,5,,,52,92
21888,note_on,,,,,4,0,2,,,,,1,,,76,92
21888,note_on,,,,,64,0,3,,,,,10,,,52,92
21984,note_on,,,,,100,0,1,,,,,0,,,73,92
21984,note_on,,,,,100,0,4,,,,,2,,,73,117
22076,note_off,,,,,188,0,2,,,,,1,,,76,0
22076,note_off,,,,,188,0,6,,,,,4,,,68,0
22076,note_off,,,,,92,0,4,,,,,2,,,73,0
22076,note_off,,,,,188,0,5,,,,,3,,,76,0
22076,note_off,,,,,92,0,1,,,,,0,,,73,0
22080,note_on,,,,,4,0,4,,,,,2,,,76,117
22080,note_on,,,,,4,0,1,,,,,0,,,76,92
22080,note_on,,,,,4,0,6,,,,,4,,,61,92
22080,note_on,,,,,4,0,5,,,,,3,,,68,117
22080,note_on,,,,,4,0,2,,,,,1,,,68,92
22208,note_off,,,,,320,0,8,,,,,6,,,40,0
22208,note_off,,,,,320,0,7,,,,,5,,,52,0
22208,note_off,,,,,320,0,10,,,,,8,,,52,0
22208,note_off,,,,,320,0,3,,,,,10,,,52,0
22220,note_off,,,,,140,0,4,,,,,2,,,76,0
22220,note_off,,,,,140,0,1,,,,,0,,,76,0
22224,note_on,,,,,4,0,4,,,,,2,,,73,117
22224,note_on,,,,,4,0,1,,,,,0,,,73,92
22268,note_off,,,,,44,0,4,,,,,2,,,73,0
22268,note_off,,,,,188,0,6,,,,,4,,,61,0
22268,note_off,,,,,188,0,5,,,,,3,,,68,0
22268,note_off,,,,,188,0,2,,,,,1,,,68,0
22268,note_off,,,,,44,0,1,,,,,0,,,73,0
22272,note_on,,,,,64,0,10,,,,,8,,,54,60
22272,note_on,,,,,4,0,4,,,,,2,,,81,117
22272,note_on,,,,,4,0,1,,,,,0,,,81,92
22272,note_on,,,,,64,0,8,,,,,6,,,42,77
22272,note_on,,,,,64,0,7,,,,,5,,,54,92
22272,note_on,,,,,64,0,3,,,,,10,,,54,92
22368,note_on,,,,,100,0,5,,,,,3,,,73,117
22368,note_on,,,,,100,0,2,,,,,1,,,73,92
22368,note_on,,,,,100,0,6,,,,,4,,,69,92
22460,note_off,,,,,92,0,2,,,,,1,,,73,0
22460,note_off,,,,,188,0,1,,,,,0,,,81,0
22460,note_off,,,,,188,0,4,,,,,2,,,81,0
22460,note_off,,,,,92,0,5,,,,,3,,,73,0
22460,note_off,,,,,92,0,6,,,,,4,,,69,0
22464,note_on,,,,,4,0,4,,,,,2,,,69,117
22464,note_on,,,,,4,0,5,,,,,3,,,73,117
22464,note_on,,,,,4,0,1,,,,,0,,,69,92
22464,note_on,,,,,4,0,6,,,,,4,,,69,92
22464,note_on,,,,,4,0,2,,,,,1,,,73,92
22592,note_off,,,,,320,0,3,,,,,10,,,54,0
22592,note_off,,,,,320,0,8,,,,,6,,,42,0
22592,note_off,,,,,320,0,10,,,,,8,,,54,0
22592,note_off,,,,,320,0,7,,,,,5,,,54,0
22604,note_off,,,,,140,0,2,,,,,1,,,73,0
22604,note_off,,,,,140,0,6,,,,,4,,,69,0
22604,note_off,,,,,140,0,5,,,,,3,,,73,0
22608,note_on,,,,,4,0,6,,,,,4,,,69,92
22608,note_on,,,,,4,0,2,,,,,1,,,73,92
22608,note_on,,,,,4,0,5,,,,,3,,,73,117
22652,note_off,,,,,44,0,6,,,,,4,,,69,0
22652,note_off,,,,,44,0,2,,,,,1,,,73,0
22652,note_off,,,,,188,0,4,,,,,2,,,69,0
22652,note_off,,,,,44,0,5,,,,,3,,,73,0
22652,note_off,,,,,188,0,1,,,,,0,,,69,0
22656,note_on,,,,,64,0,10,,,,,8,,,49,60
22656,note_on,,,,,64,0,3,,,,,10,,,49,92
22656,note_on,,,,,4,0,5,,,,,3,,,69,117
22656,note_on,,,,,64,0,8,,,,,6,,,37,77
22656,note_on,,,,,64,0,7,,,,,5,,,49,92
22656,note_on,,,,,4,0,6,,,,,4,,,73,92
22656,note_on,,,,,4,0,2,,,,,1,,,69,92
22752,note_on,,,,,100,0,4,,,,,2,,,76,117
22752,note_on,,,,,100,0,1,,,,,0,,,76,92
22844,note_off,,,,,188,0,2,,,,,1,,,69,0
22844,note_off,,,,,188,0,5,,,,,3,,,69,0
22844,note_off,,,,,92,0,1,,,,,0,,,76,0
22844,note_off,,,,,188,0,6,,,,,4,,,73,0
22844,note_off,,,,,92,0,4,,,,,2,,,76,0
22848,note_on,,,,,4,0,4,,,,,2,,,81,117
22848,note_on,,,,,4,0,1,,,,,0,,,81,92
22848,note_on,,,,,4,0,2,,,,,1,,,64,92
22848,note_on,,,,,4,0,6,,,,,4,,,61,92
22848,note_on,,,,,4,0,5,,,,,3,,,64,117
22976,note_off,,,,,320,0,10,,,,,8,,,49,0
22976,note_off,,,,,320,0,7,,,,,5,,,49,0
22976,note_off,,,,,320,0,8,,,,,6,,,37,0
22976,note_off,,,,,320,0,3,,,,,10,,,49,0
22988,note_off,,,,,140,0,4,,,,,2,,,81,0
22988,note_off,,,,,140,0,1,,,,,0,,,81,0
22992,note_on,,,,,4,0,4,,,,,2,,,85,117
22992,note_on,,,,,4,0,1,,,,,0,,,85,92
23036,note_off,,,,,188,0,6,,,,,4,,,61,0
23036,note_off,,,,,44,0,1,,,,,0,,,85,0
23036,note_off,,,,,188,0,5,,,,,3,,,64,0
23036,note_off,,,,,188,0,2,,,,,1,,,64,0
23036,note_off,,,,,44,0,4,,,,,2,,,85,0
23040,note_on,,,,,64,0,10,,,,,8,,,50,60
23040,note_on,,,,,4,0,1,,,,,0,,,78,92
23040,note_on,,,,,64,0,8,,,,,6,,,38,77
23040,note_on,,,,,64,0,3,,,,,10,,,50,92
23040,note_on,,,,,64,0,7,,,,,5,,,50,92
23040,note_on,,,,,4,0,4,,,,,2,,,78,117
23136,note_on,,,,,100,0,5,,,,,3,,,69,117
23136,note_on,,,,,100,0,6,,,,,4,,,66,92
23136,note_on,,,,,100,0,2,,,,,1,,,69,92
23228,note_off,,,,,188,0,4,,,,,2,,,78,0
23228,note_off,,,,,92,0,2,,,,,1,,,69,0
23228,note_off,,,,,188,0,1,,,,,0,,,78,0
23228,note_off,,,,,92,0,5,,,,,3,,,69,0
23228,note_off,,,,,92,0,6,,,,,4,,,66,0
23232,note_on,,,,,4,0,6,,,,,4,,,66,92
23232,note_on,,,,,4,0,4,,,,,2,,,66,117
23232,note_on,,,,,4,0,1,,,,,0,,,66,92
23232,note_on,,,,,4,0,5,,,,,3,,,69,117
23232,note_on,,,,,4,0,2,,,,,1,,,69,92
23360,note_off,,,,,320,0,3,,,,,10,,,50,0
23360,note_off,,,,,320,0,7,,,,,5,,,50,0
23360,note_off,,,,,320,0,8,,,,,6,,,38,0
23360,note_off,,,,,320,0,10,,,,,8,,,50,0
23372,note_off,,,,,140,0,2,,,,,1,,,69,0
23372,note_off,,,,,140,0,6,,,,,4,,,66,0
23372,note_off,,,,,140,0,5,,,,,3,,,69,0
23376,note_on,,,,,4,0,6,,,,,4,,,66,92
23376,note_on,,,,,4,0,2,,,,,1,,,69,92
23376,note_on,,,,,4,0,5,,,,,3,,,69,117
23420,note_off,,,,,44,0,2,,,,,1,,,69,0
23420,note_off,,,,,44,0,5,,,,,3,,,69,0
23420,note_off,,,,,188,0,1,,,,,0,,,66,0
23420,note_off,,,,,188,0,4,,,,,2,,,66,0
23420,note_off,,,,,44,0,6,,,,,4,,,66,0
23424,note_on,,,,,64,0,3,,,,,10,,,51,92
23424,note_on,,,,,64,0,7,,,,,5,,,51,92
23424,note_on,,,,,64,0,8,,,,,6,,,39,77
23424,note_on,,,,,4,0,6,,,,,4,,,66,92
23424,note_on,,,,,64,0,10,,,,,8,,,51,60
23424,note_on,,,,,4,0,5,,,,,3,,,59,117
23424,note_on,,,,,4,0,2,,,,,1,,,59,92
23520,note_on,,,,,100,0,4,,,,,2,,,68,117
23520,note_on,,,,,100,0,1,,,,,0,,,68,92
23612,note_off,,,,,188,0,6,,,,,4,,,66,0
23612,note_off,,,,,92,0,4,,,,,2,,,68,0
23612,note_off,,,,,188,0,5,,,,,3,,,59,0
23612,note_off,,,,,92,0,1,,,,,0,,,68,0
23612,note_off,,,,,188,0,2,,,,,1,,,59,0
23616,note_on,,,,,4,0,4,,,,,2,,,69,117
23616,note_on,,,,,4,0,5,,,,,3,,,66,117
23616,note_on,,,,,4,0,1,,,,,0,,,69,92
23616,note_on,,,,,4,0,6,,,,,4,,,59,92
23616,note_on,,,,,4,0,2,,,,,1,,,66,92
23744,note_off,,,,,320,0,3,,,,,10,,,51,0
23744,note_off,,,,,320,0,8,,,,,6,,,39,0
23744,note_off,,,,,320,0,7,,,,,5,,,51,0
23744,note_off,,,,,320,0,10,,,,,8,,,51,0
23756,note_off,,,,,140,0,1,,,,,0,,,69,0
23756,note_off,,,,,140,0,4,,,,,2,,,69,0
23760,note_on,,,,,4,0,4,,,,,2,,,71,117
23760,note_on,,,,,4,0,1,,,,,0,,,71,92
23804,note_off,,,,,44,0,4,,,,,2,,,71,0
23804,note_off,,,,,188,0,6,,,,,4,,,59,0
23804,note_off,,,,,188,0,2,,,,,1,,,66,0
23804,note_off,,,,,188,0,5,,,,,3,,,66,0
23804,note_off,,,,,44,0,1,,,,,0,,,71,0
23808,note_on,,,,,4,0,4,,,,,2,,,68,117
23808,note_on,,,,,4,0,2,,,,,1,,,64,92
23808,note_on,,,,,64,0,7,,,,,5,,,52,92
23808,note_on,,,,,4,0,5,,,,,3,,,64,117
23808,note_on,,,,,64,0,10,,,,,8,,,52,60
23808,note_on,,,,,4,0,6,,,,,4,,,59,92
23808,note_on,,,,,64,0,8,,,,,6,,,40,77
23808,note_on,,,,,4,0,1,,,,,0,,,68,92
23808,note_on,,,,,64,0,3,,,,,10,,,52,92
24128,note_off,,,,,320,0,7,,,,,5,,,52,0
24128,note_off,,,,,320,0,1,,,,,0,,,68,0
24128,note_off,,,,,320,0,8,,,,,6,,,40,0
24128,note_off,,,,,320,0,10,,,,,8,,,52,0
24128,note_off,,,,,320,0,4,,,,,2,,,68,0
24128,note_off,,,,,320,0,2,,,,,1,,,64,0
24128,note_off,,,,,320,0,6,,,,,4,,,59,0
24128,note_off,,,,,320,0,5,,,,,3,,,64,0
24128,note_off,,,,,320,0,3,,,,,10,,,52,0
24576,note_on,,,,,448,0,2,,,,,1,,,71,45
24576,note_on,,,,,448,0,1,,,,,0,,,76,92
24576,note_on,,,,,448,0,6,,,,,4,,,62,45
24576,note_on,,,,,448,0,3,,,,,10,,,62,45
24576,note_on,,,,,448,0,4,,,,,2,,,71,76
24576,note_on,,,,,448,0,5,,,,,3,,,64,76
24624,note_off,,,,,48,0,1,,,,,0,,,76,0
24624,note_on,,,,,0,0,1,,,,,0,,,78,92
24672,note_off,,,,,48,0,1,,,,,0,,,78,0
24672,note_on,,,,,0,0,1,,,,,0,,,80,92
24712,note_off,,,,,136,0,4,,,,,2,,,71,0
24712,note_off,,,,,136,0,2,,,,,1,,,71,0
24712,note_off,,,,,136,0,3,,,,,10,,,62,0
24712,note_off,,,,,136,0,5,,,,,3,,,64,0
24712,note_off,,,,,136,0,6,,,,,4,,,62,0
24768,note_on,,,,,56,0,5,,,,,3,,,64,76
24768,note_on,,,,,56,0,2,,,,,1,,,71,45
24768,note_on,,,,,56,0,4,,,,,2,,,71,76
24768,note_on,,,,,56,0,6,,,,,4,,,62,45
24768,note_on,,,,,56,0,3,,,,,10,,,62,45
24904,note_off,,,,,136,0,3,,,,,10,,,62,0
24904,note_off,,,,,136,0,5,,,,,3,,,64,0
24904,note_off,,,,,136,0,6,,,,,4,,,62,0
24904,note_off,,,,,136,0,4,,,,,2,,,71,0
24904,note_off,,,,,136,0,2,,,,,1,,,71,0
24960,note_on,,,,,0,0,1,,,,,0,,,80,92
24960,note_off,,,,,288,0,1,,,,,0,,,80,0
24960,note_on,,,,,56,0,5,,,,,3,,,64,76
24960,note_on,,,,,56,0,2,,,,,1,,,71,45
24960,note_on,,,,,56,0,4,,,,,2,,,71,76
24960,note_on,,,,,56,0,6,,,,,4,,,62,45
24960,note_on,,,,,56,0,3,,,,,10,,,62,45
25056,note_off,,,,,96,0,1,,,,,0,,,80,0
25056,note_on,,,,,0,0,1,,,,,0,,,78,92
25096,note_off,,,,,136,0,3,,,,,10,,,62,0
25096,note_off,,,,,136,0,4,,,,,2,,,71,0
25096,note_off,,,,,136,0,2,,,,,1,,,71,0
25096,note_off,,,,,136,0,5,,,,,3,,,64,0
25096,note_off,,,,,136,0,6,,,,,4,,,62,0
25152,note_on,,,,,56,0,3,,,,,10,,,62,45
25152,note_on,,,,,56,0,6,,,,,4,,,62,45
25152,note_on,,,,,56,0,4,,,,,2,,,71,76
25152,note_on,,,,,0,0,1,,,,,0,,,76,92
25152,note_off,,,,,96,0,1,,,,,0,,,78,0
25152,note_on,,,,,56,0,5,,,,,3,,,64,76
25152,note_on,,,,,56,0,2,,,,,1,,,71,45
25216,note_off,,,,,64,0,6,,,,,4,,,62,0
25216,note_off,,,,,64,0,4,,,,,2,,,71,0
25216,note_off,,,,,64,0,5,,,,,3,,,64,0
25216,note_off,,,,,64,0,3,,,,,10,,,62,0
25216,note_off,,,,,64,0,2,,,,,1,,,71,0
25248,note_off,,,,,96,0,1,,,,,0,,,76,0
25248,note_on,,,,,0,0,1,,,,,0,,,81,92
25344,note_on,,,,,128,0,5,,,,,3,,,64,76
25344,note_on,,,,,128,0,3,,,,,10,,,61,45
25344,note_on,,,,,128,0,2,,,,,1,,,69,45
25344,note_on,,,,,128,0,6,,,,,4,,,61,45
25344,note_on,,,,,128,0,4,,,,,2,,,69,76
25440,note_off,,,,,192,0,1,,,,,0,,,81,0
25440,note_on,,,,,0,0,1,,,,,0,,,85,92
25480,note_off,,,,,136,0,5,,,,,3,,,64,0
25480,note_off,,,,,136,0,6,,,,,4,,,61,0
25532,note_off,,,,,188,0,2,,,,,1,,,69,0
25532,note_off,,,,,188,0,4,,,,,2,,,69,0
25536,note_on,,,,,4,0,2,,,,,1,,,69,45
25536,note_on,,,,,56,0,6,,,,,4,,,61,45
25536,note_off,,,,,192,0,3,,,,,10,,,61,0
25536,note_on,,,,,0,0,3,,,,,10,,,61,45
25536,note_on,,,,,4,0,4,,,,,2,,,69,76
25536,note_on,,,,,56,0,5,,,,,3,,,64,76
25632,note_on,,,,,0,0,1,,,,,0,,,81,92
25632,note_off,,,,,192,0,1,,,,,0,,,85,0
25672,note_off,,,,,136,0,6,,,,,4,,,61,0
25672,note_off,,,,,136,0,5,,,,,3,,,64,0
25724,note_off,,,,,188,0,4,,,,,2,,,69,0
25724,note_off,,,,,188,0,2,,,,,1,,,69,0
25728,note_on,,,,,4,0,4,,,,,2,,,69,76
25728,note_on,,,,,4,0,2,,,,,1,,,69,45
25728,note_on,,,,,56,0,6,,,,,4,,,61,45
25728,note_off,,,,,192,0,3,,,,,10,,,61,0
25728,note_on,,,,,0,0,3,,,,,10,,,61,45
25728,note_on,,,,,56,0,5,,,,,3,,,64,76
25824,note_on,,,,,0,0,1,,,,,0,,,78,92
25824,note_off,,,,,192,0,1,,,,,0,,,81,0
25864,note_off,,,,,136,0,6,,,,,4,,,61,0
25864,note_off,,,,,136,0,5,,,,,3,,,64,0
25916,note_off,,,,,188,0,2,,,,,1,,,69,0
25916,note_off,,,,,188,0,4,,,,,2,,,69,0
25920,note_off,,,,,192,0,3,,,,,10,,,61,0
25920,note_on,,,,,4,0,4,,,,,2,,,69,76
25920,note_on,,,,,0,0,3,,,,,10,,,61,45
25920,note_on,,,,,4,0,2,,,,,1,,,69,45
25920,note_on,,,,,56,0,6,,,,,4,,,61,45
25920,note_on,,,,,56,0,5,,,,,3,,,64,76
25984,note_off,,,,,64,0,5,,,,,3,,,64,0
25984,note_off,,,,,64,0,6,,,,,4,,,61,0
26016,note_on,,,,,0,0,1,,,,,0,,,76,92
26016,note_off,,,,,192,0,1,,,,,0,,,78,0
26108,note_off,,,,,188,0,2,,,,,1,,,69,0
26108,note_off,,,,,188,0,4,,,,,2,,,69,0
26108,note_off,,,,,188,0,3,,,,,10,,,61,0
26112,note_off,,,,,96,0,1,,,,,0,,,76,0
26112,note_on,,,,,128,0,5,,,,,3,,,66,76
26112,note_on,,,,,128,0,6,,,,,4,,,59,45
26112,note_on,,,,,4,0,2,,,,,1,,,69,45
26112,note_on,,,,,4,0,3,,,,,10,,,59,45
26112,note_on,,,,,0,0,1,,,,,0,,,74,92
26112,note_on,,,,,4,0,4,,,,,2,,,69,76
26248,note_off,,,,,136,0,5,,,,,3,,,66,0
26248,note_off,,,,,136,0,2,,,,,1,,,69,0
26248,note_off,,,,,136,0,3,,,,,10,,,59,0
26248,note_off,,,,,136,0,4,,,,,2,,,69,0
26248,note_off,,,,,136,0,6,,,,,4,,,59,0
26304,note_on,,,,,56,0,2,,,,,1,,,69,45
26304,note_on,,,,,56,0,5,,,,,3,,,66,76
26304,note_on,,,,,56,0,4,,,,,2,,,69,76
26304,note_on,,,,,56,0,6,,,,,4,,,59,45
26304,note_on,,,,,56,0,3,,,,,10,,,59,45
26368,note_off,,,,,64,0,4,,,,,2,,,69,0
26368,note_off,,,,,64,0,6,,,,,4,,,59,0
26368,note_off,,,,,64,0,5,,,,,3,,,66,0
26368,note_off,,,,,64,0,3,,,,,10,,,59,0
26368,note_off,,,,,64,0,2,,,,,1,,,69,0
26400,note_off,,,,,288,0,1,,,,,0,,,74,0
26400,note_on,,,,,0,0,1,,,,,0,,,76,92
26424,note_off,,,,,24,0,1,,,,,0,,,76,0
26424,note_on,,,,,0,0,1,,,,,0,,,74,92
26448,note_on,,,,,0,0,1,,,,,0,,,76,92
26448,note_off,,,,,24,0,1,,,,,0,,,74,0
26472,note_off,,,,,24,0,1,,,,,0,,,76,0
26472,note_on,,,,,0,0,1,,,,,0,,,74,92
26496,note_on,,,,,0,0,1,,,,,0,,,76,92
26496,note_on,,,,,128,0,2,,,,,1,,,68,45
26496,note_on,,,,,128,0,5,,,,,3,,,64,76
26496,note_on,,,,,128,0,4,,,,,2,,,68,76
26496,note_on,,,,,128,0,6,,,,,4,,,52,45
26496,note_off,,,,,24,0,1,,,,,0,,,74,0
26496,note_on,,,,,128,0,3,,,,,10,,,52,45
26520,note_off,,,,,24,0,1,,,,,0,,,76,0
26520,note_on,,,,,0,0,1,,,,,0,,,74,92
26544,note_off,,,,,24,0,1,,,,,0,,,74,0
26544,note_on,,,,,0,0,1,,,,,0,,,76,92
26568,note_off,,,,,24,0,1,,,,,0,,,76,0
26568,note_on,,,,,0,0,1,,,,,0,,,74,92
26592,note_on,,,,,0,0,1,,,,,0,,,76,92
26592,note_off,,,,,24,0,1,,,,,0,,,74,0
26616,note_off,,,,,24,0,1,,,,,0,,,76,0
26616,note_on,,,,,0,0,1,,,,,0,,,74,92
26632,note_off,,,,,136,0,6,,,,,4,,,52,0
26632,note_off,,,,,136,0,2,,,,,1,,,68,0
26632,note_off,,,,,136,0,4,,,,,2,,,68,0
26632,note_off,,,,,136,0,5,,,,,3,,,64,0
26632,note_off,,,,,136,0,3,,,,,10,,,52,0
26640,note_on,,,,,0,0,1,,,,,0,,,76,92
26640,note_off,,,,,24,0,1,,,,,0,,,74,0
26664,note_on,,,,,0,0,1,,,,,0,,,74,92
26664,note_off,,,,,24,0,1,,,,,0,,,76,0
26688,note_on,,,,,56,0,4,,,,,2,,,68,76
26688,note_on,,,,,56,0,6,,,,,4,,,52,45
26688,note_on,,,,,56,0,5,,,,,3,,,64,76
26688,note_on,,,,,56,0,2,,,,,1,,,68,45
26688,note_on,,,,,56,0,3,,,,,10,,,52,45
26752,note_off,,,,,64,0,2,,,,,1,,,68,0
26752,note_off,,,,,64,0,6,,,,,4,,,52,0
26752,note_off,,,,,64,0,4,,,,,2,,,68,0
26752,note_off,,,,,64,0,3,,,,,10,,,52,0
26752,note_off,,,,,64,0,5,,,,,3,,,64,0
26784,note_on,,,,,0,0,1,,,,,0,,,73,92
26784,note_off,,,,,120,0,1,,,,,0,,,74,0
26880,note_on,,,,,128,0,6,,,,,4,,,57,45
26880,note_on,,,,,128,0,5,,,,,3,,,64,76
26880,note_on,,,,,128,0,2,,,,,1,,,81,45
26880,note_on,,,,,128,0,3,,,,,10,,,57,45
26880,note_on,,,,,0,0,1,,,,,0,,,73,92
26880,note_on,,,,,128,0,4,,,,,2,,,81,76
26880,note_off,,,,,96,0,1,,,,,0,,,73,0
27068,note_off,,,,,188,0,4,,,,,2,,,81,0
27068,note_off,,,,,188,0,2,,,,,1,,,81,0
27072,note_on,,,,,4,0,2,,,,,1,,,81,45
27072,note_on,,,,,4,0,4,,,,,2,,,81,76
27200,note_off,,,,,320,0,1,,,,,0,,,73,0
27200,note_off,,,,,320,0,6,,,,,4,,,57,0
27200,note_off,,,,,320,0,3,,,,,10,,,57,0
27260,note_off,,,,,188,0,4,,,,,2,,,81,0
27260,note_off,,,,,188,0,2,,,,,1,,,81,0
27264,note_off,,,,,384,0,5,,,,,3,,,64,0
27264,note_on,,,,,4,0,4,,,,,2,,,81,76
27264,note_on,,,,,4,0,2,,,,,1,,,81,45
27452,note_off,,,,,188,0,4,,,,,2,,,81,0
27452,note_off,,,,,188,0,2,,,,,1,,,81,0
27456,note_on,,,,,4,0,4,,,,,2,,,81,76
27456,note_on,,,,,4,0,2,,,,,1,,,81,45
27644,note_off,,,,,188,0,4,,,,,2,,,81,0
27644,note_off,,,,,188,0,2,,,,,1,,,81,0
27648,note_on,,,,,4,0,4,,,,,2,,,82,76
27648,note_on,,,,,448,0,3,,,,,10,,,61,45
27648,note_on,,,,,448,0,1,,,,,0,,,76,92
27648,note_on,,,,,4,0,2,,,,,1,,,82,45
27648,note_on,,,,,448,0,6,,,,,4,,,61,45
27648,note_on,,,,,384,0,5,,,,,3,,,73,76
27740,note_off,,,,,92,0,2,,,,,1,,,82,0
27740,note_off,,,,,92,0,4,,,,,2,,,82,0
27744,note_on,,,,,4,0,2,,,,,1,,,82,45
27744,note_on,,,,,4,0,4,,,,,2,,,82,76
27784,note_off,,,,,136,0,5,,,,,3,,,73,0
27784,note_off,,,,,136,0,6,,,,,4,,,61,0
27784,note_off,,,,,136,0,3,,,,,10,,,61,0
27836,note_off,,,,,92,0,4,,,,,2,,,82,0
27836,note_off,,,,,92,0,2,,,,,1,,,82,0
27840,note_on,,,,,4,0,4,,,,,2,,,82,76
27840,note_on,,,,,56,0,3,,,,,10,,,61,45
27840,note_on,,,,,56,0,5,,,,,3,,,73,76
27840,note_on,,,,,56,0,6,,,,,4,,,61,45
27840,note_on,,,,,4,0,2,,,,,1,,,82,45
27904,note_off,,,,,64,0,6,,,,,4,,,61,0
27904,note_off,,,,,64,0,3,,,,,10,,,61,0
27932,note_off,,,,,92,0,2,,,,,1,,,82,0
27932,note_off,,,,,92,0,4,,,,,2,,,82,0
27936,note_on,,,,,4,0,2,,,,,1,,,82,45
27936,note_on,,,,,4,0,4,,,,,2,,,82,76
27976,note_off,,,,,136,0,5,,,,,3,,,73,0
28028,note_off,,,,,92,0,4,,,,,2,,,82,0
28028,note_off,,,,,92,0,2,,,,,1,,,82,0
28032,note_on,,,,,128,0,3,,,,,10,,,54,45
28032,note_on,,,,,4,0,2,,,,,1,,,82,45
28032,note_on,,,,,128,0,6,,,,,4,,,54,45
28032,note_on,,,,,4,0,4,,,,,2,,,82,76
28032,note_on,,,,,0,0,1,,,,,0,,,85,92
28032,note_on,,,,,56,0,5,,,,,3,,,73,76
28032,note_off,,,,,384,0,1,,,,,0,,,76,0
28124,note_off,,,,,92,0,4,,,,,2,,,82,0
28124,note_off,,,,,92,0,2,,,,,1,,,82,0
28128,note_on,,,,,4,0,2,,,,,1,,,82,45
28128,note_on,,,,,4,0,4,,,,,2,,,82,76
28168,note_off,,,,,136,0,3,,,,,10,,,54,0
28168,note_off,,,,,136,0,5,,,,,3,,,73,0
28168,note_off,,,,,136,0,6,,,,,4,,,54,0
28220,note_off,,,,,92,0,2,,,,,1,,,82,0
28220,note_off,,,,,92,0,4,,,,,2,,,82,0
28224,note_on,,,,,4,0,2,,,,,1,,,82,45
28224,note_on,,,,,56,0,6,,,,,4,,,54,45
28224,note_on,,,,,0,0,1,,,,,0,,,76,92
28224,note_on,,,,,56,0,3,,,,,10,,,54,45
28224,note_off,,,,,192,0,1,,,,,0,,,85,0
28224,note_on,,,,,4,0,4,,,,,2,,,82,76
28224,note_on,,,,,56,0,5,,,,,3,,,73,76
28288,note_off,,,,,64,0,5,,,,,3,,,73,0
28288,note_off,,,,,64,0,3,,,,,10,,,54,0
28288,note_off,,,,,64,0,6,,,,,4,,,54,0
28316,note_off,,,,,92,0,2,,,,,1,,,82,0
28316,note_off,,,,,92,0,4,,,,,2,,,82,0
28320,note_on,,,,,4,0,2,,,,,1,,,82,45
28320,note_on,,,,,4,0,4,,,,,2,,,82,76
28412,note_off,,,,,92,0,4,,,,,2,,,82,0
28412,note_off,,,,,92,0,2,,,,,1,,,82,0
28416,note_on,,,,,4,0,4,,,,,2,,,83,76
28416,note_on,,,,,128,0,5,,,,,3,,,71,76
28416,note_on,,,,,128,0,6,,,,,4,,,59,45
28416,note_on,,,,,4,0,2,,,,,1,,,83,45
28416,note_off,,,,,192,0,1,,,,,0,,,76,0
28416,note_on,,,,,0,0,1,,,,,0,,,86,92
28416,note_on,,,,,128,0,3,,,,,10,,,59,45
28508,note_off,,,,,92,0,4,,,,,2,,,83,0
28508,note_off,,,,,92,0,2,,,,,1,,,83,0
28512,note_on,,,,,4,0,2,,,,,1,,,78,45
28512,note_on,,,,,4,0,4,,,,,2,,,78,76
28552,note_off,,,,,136,0,3,,,,,10,,,59,0
28552,note_off,,,,,136,0,6,,,,,4,,,59,0
28552,note_off,,,,,136,0,5,,,,,3,,,71,0
28604,note_off,,,,,92,0,2,,,,,1,,,78,0
28604,note_off,,,,,92,0,4,,,,,2,,,78,0
28608,note_on,,,,,4,0,2,,,,,1,,,83,45
28608,note_on,,,,,56,0,5,,,,,3,,,71,76
28608,note_on,,,,,56,0,3,,,,,10,,,59,45
28608,note_on,,,,,4,0,4,,,,,2,,,83,76
28608,note_on,,,,,56,0,6,,,,,4,,,59,45
28672,note_off,,,,,64,0,6,,,,,4,,,59,0
28672,note_off,,,,,64,0,3,,,,,10,,,59,0
28672,note_off,,,,,64,0,5,,,,,3,,,71,0
28700,note_off,,,,,92,0,2,,,,,1,,,83,0
28700,note_off,,,,,92,0,4,,,,,2,,,83,0
28704,note_on,,,,,4,0,2,,,,,1,,,78,45
28704,note_on,,,,,4,0,4,,,,,2,,,78,76
28796,note_off,,,,,92,0,2,,,,,1,,,78,0
28796,note_off,,,,,92,0,4,,,,,2,,,78,0
28800,note_on,,,,,128,0,5,,,,,3,,,67,76
28800,note_off,,,,,384,0,1,,,,,0,,,86,0
28800,note_on,,,,,0,0,1,,,,,0,,,83,92
28800,note_on,,,,,128,0,3,,,,,10,,,52,45
28800,note_on,,,,,4,0,2,,,,,1,,,83,45
28800,note_on,,,,,128,0,6,,,,,4,,,52,45
28800,note_on,,,,,4,0,4,,,,,2,,,83,76
28892,note_off,,,,,92,0,4,,,,,2,,,83,0
28892,note_off,,,,,92,0,2,,,,,1,,,83,0
28896,note_on,,,,,4,0,4,,,,,2,,,71,76
28896,note_on,,,,,4,0,2,,,,,1,,,71,45
28936,note_off,,,,,136,0,3,,,,,10,,,52,0
28936,note_off,,,,,136,0,5,,,,,3,,,67,0
28936,note_off,,,,,136,0,6,,,,,4,,,52,0
28988,note_off,,,,,92,0,2,,,,,1,,,71,0
28988,note_off,,,,,188,0,1,,,,,0,,,83,0
28988,note_off,,,,,92,0,4,,,,,2,,,71,0
28992,note_on,,,,,56,0,6,,,,,4,,,52,45
28992,note_on,,,,,4,0,2,,,,,1,,,83,45
28992,note_on,,,,,56,0,5,,,,,3,,,67,76
28992,note_on,,,,,4,0,4,,,,,2,,,83,76
28992,note_on,,,,,4,0,1,,,,,0,,,79,92
28992,note_on,,,,,56,0,3,,,,,10,,,52,45
29056,note_off,,,,,64,0,6,,,,,4,,,52,0
29056,note_off,,,,,64,0,5,,,,,3,,,67,0
29056,note_off,,,,,64,0,3,,,,,10,,,52,0
29084,note_off,,,,,92,0,4,,,,,2,,,83,0
29084,note_off,,,,,92,0,2,,,,,1,,,83,0
29084,note_off,,,,,92,0,1,,,,,0,,,79,0
29088,note_on,,,,,4,0,2,,,,,1,,,71,45
29088,note_on,,,,,4,0,1,,,,,0,,,76,92
29088,note_on,,,,,4,0,4,,,,,2,,,71,76
29180,note_off,,,,,92,0,1,,,,,0,,,76,0
29180,note_off,,,,,92,0,4,,,,,2,,,71,0
29180,note_off,,,,,92,0,2,,,,,1,,,71,0
29184,note_on,,,,,128,0,6,,,,,4,,,54,45
29184,note_on,,,,,4,0,2,,,,,1,,,71,45
29184,note_on,,,,,128,0,5,,,,,3,,,66,76
29184,note_on,,,,,128,0,3,,,,,10,,,54,45
29184,note_on,,,,,4,0,4,,,,,2,,,71,76
29184,note_on,,,,,4,0,1,,,,,0,,,74,92
29320,note_off,,,,,136,0,6,,,,,4,,,54,0
29320,note_off,,,,,136,0,5,,,,,3,,,66,0
29320,note_off,,,,,136,0,3,,,,,10,,,54,0
29372,note_off,,,,,188,0,4,,,,,2,,,71,0
29372,note_off,,,,,188,0,2,,,,,1,,,71,0
29376,note_on,,,,,56,0,6,,,,,4,,,54,45
29376,note_on,,,,,4,0,4,,,,,2,,,71,76
29376,note_on,,,,,56,0,5,,,,,3,,,66,76
29376,note_on,,,,,56,0,3,,,,,10,,,54,45
29376,note_on,,,,,4,0,2,,,,,1,,,71,45
29440,note_off,,,,,64,0,6,,,,,4,,,54,0
29504,note_off,,,,,320,0,1,,,,,0,,,74,0
29512,note_off,,,,,136,0,5,,,,,3,,,66,0
29512,note_off,,,,,136,0,3,,,,,10,,,54,0
29564,note_off,,,,,188,0,2,,,,,1,,,71,0
29564,note_off,,,,,188,0,4,,,,,2,,,71,0
29568,note_on,,,,,4,0,4,,,,,2,,,70,76
29568,note_on,,,,,128,0,6,,,,,4,,,54,45
29568,note_on,,,,,56,0,5,,,,,3,,,66,76
29568,note_on,,,,,56,0,3,,,,,10,,,54,45
29568,note_on,,,,,64,0,1,,,,,0,,,74,92
29568,note_on,,,,,4,0,2,,,,,1,,,70,45
29592,note_off,,,,,24,0,1,,,,,0,,,74,0
29592,note_on,,,,,0,0,1,,,,,0,,,73,92
29616,note_off,,,,,24,0,1,,,,,0,,,73,0
29616,note_on,,,,,0,0,1,,,,,0,,,74,92
29640,note_off,,,,,24,0,1,,,,,0,,,74,0
29640,note_on,,,,,0,0,1,,,,,0,,,73,92
29664,note_off,,,,,24,0,1,,,,,0,,,73,0
29664,note_on,,,,,0,0,1,,,,,0,,,74,92
29688,note_on,,,,,0,0,1,,,,,0,,,73,92
29688,note_off,,,,,24,0,1,,,,,0,,,74,0
29704,note_off,,,,,136,0,3,,,,,10,,,54,0
29704,note_off,,,,,136,0,6,,,,,4,,,54,0
29704,note_off,,,,,136,0,5,,,,,3,,,66,0
29712,note_off,,,,,24,0,1,,,,,0,,,73,0
29712,note_on,,,,,0,0,1,,,,,0,,,74,92
29736,note_off,,,,,24,0,1,,,,,0,,,74,0
29736,note_on,,,,,0,0,1,,,,,0,,,73,92
29756,note_off,,,,,188,0,4,,,,,2,,,70,0
29756,note_off,,,,,188,0,2,,,,,1,,,70,0
29760,note_on,,,,,4,0,2,,,,,1,,,70,45
29760,note_on,,,,,56,0,3,,,,,10,,,54,45
29760,note_on,,,,,56,0,6,,,,,4,,,54,45
29760,note_on,,,,,4,0,4,,,,,2,,,70,76
29760,note_on,,,,,56,0,5,,,,,3,,,66,76
29824,note_off,,,,,64,0,6,,,,,4,,,54,0
29824,note_off,,,,,64,0,5,,,,,3,,,66,0
29824,note_off,,,,,64,0,3,,,,,10,,,54,0
29852,note_off,,,,,116,0,1,,,,,0,,,73,0
29856,note_on,,,,,4,0,1,,,,,0,,,71,92
29948,note_off,,,,,92,0,1,,,,,0,,,71,0
29948,note_off,,,,,188,0,2,,,,,1,,,70,0
29948,note_off,,,,,188,0,4,,,,,2,,,70,0
29952,note_on,,,,,128,0,3,,,,,10,,,59,45
29952,note_on,,,,,4,0,2,,,,,1,,,71,45
29952,note_on,,,,,4,0,1,,,,,0,,,71,92
29952,note_on,,,,,128,0,6,,,,,4,,,59,45
29952,note_on,,,,,4,0,4,,,,,2,,,71,76
30048,note_on,,,,,224,0,5,,,,,3,,,62,76
30088,note_off,,,,,136,0,6,,,,,4,,,59,0
30088,note_off,,,,,136,0,3,,,,,10,,,59,0
30140,note_off,,,,,92,0,5,,,,,3,,,62,0
30144,note_on,,,,,56,0,3,,,,,10,,,59,45
30144,note_on,,,,,4,0,5,,,,,3,,,66,76
30144,note_on,,,,,56,0,6,,,,,4,,,59,45
30208,note_off,,,,,64,0,6,,,,,4,,,59,0
30236,note_off,,,,,92,0,5,,,,,3,,,66,0
30240,note_on,,,,,4,0,5,,,,,3,,,62,76
30272,note_off,,,,,320,0,1,,,,,0,,,71,0
30272,note_off,,,,,320,0,4,,,,,2,,,71,0
30272,note_off,,,,,320,0,2,,,,,1,,,71,0
30280,note_off,,,,,136,0,3,,,,,10,,,59,0
30332,note_off,,,,,92,0,5,,,,,3,,,62,0
30336,note_on,,,,,128,0,6,,,,,4,,,59,45
30336,note_on,,,,,4,0,5,,,,,3,,,59,76
30336,note_on,,,,,56,0,3,,,,,10,,,59,45
30432,note_on,,,,,160,0,4,,,,,2,,,71,76
30432,note_on,,,,,160,0,2,,,,,1,,,71,45
30472,note_off,,,,,136,0,6,,,,,4,,,59,0
30472,note_off,,,,,136,0,3,,,,,10,,,59,0
30524,note_off,,,,,92,0,4,,,,,2,,,71,0
30524,note_off,,,,,92,0,2,,,,,1,,,71,0
30524,note_off,,,,,188,0,5,,,,,3,,,59,0
30528,note_on,,,,,56,0,6,,,,,4,,,59,45
30528,note_on,,,,,256,0,1,,,,,0,,,71,92
30528,note_on,,,,,56,0,3,,,,,10,,,59,45
30528,note_on,,,,,4,0,5,,,,,3,,,66,76
30528,note_on,,,,,4,0,4,,,,,2,,,74,76
30528,note_on,,,,,4,0,2,,,,,1,,,74,45
30592,note_off,,,,,64,0,6,,,,,4,,,59,0
30592,note_off,,,,,64,0,3,,,,,10,,,59,0
30620,note_off,,,,,92,0,4,,,,,2,,,74,0
30620,note_off,,,,,92,0,2,,,,,1,,,74,0
30624,note_on,,,,,4,0,4,,,,,2,,,71,76
30624,note_on,,,,,4,0,2,,,,,1,,,71,45
30716,note_off,,,,,188,0,1,,,,,0,,,71,0
30716,note_off,,,,,188,0,5,,,,,3,,,66,0
30716,note_off,,,,,92,0,2,,,,,1,,,71,0
30716,note_off,,,,,92,0,4,,,,,2,,,71,0
30720,note_on,,,,,128,0,3,,,,,10,,,59,45
30720,note_on,,,,,4,0,4,,,,,2,,,80,76
30720,note_on,,,,,4,0,1,,,,,0,,,76,92
30720,note_on,,,,,4,0,5,,,,,3,,,62,76
30720,note_on,,,,,128,0,6,,,,,4,,,59,45
30720,note_on,,,,,4,0,2,,,,,1,,,80,45
30744,note_on,,,,,0,0,1,,,,,0,,,74,92
30744,note_off,,,,,24,0,1,,,,,0,,,76,0
30768,note_on,,,,,0,0,1,,,,,0,,,76,92
30768,note_off,,,,,24,0,1,,,,,0,,,74,0
30792,note_on,,,,,0,0,1,,,,,0,,,74,92
30792,note_off,,,,,24,0,1,,,,,0,,,76,0
30812,note_off,,,,,92,0,2,,,,,1,,,80,0
30812,note_off,,,,,92,0,4,,,,,2,,,80,0
30816,note_on,,,,,0,0,1,,,,,0,,,76,92
30816,note_on,,,,,4,0,2,,,,,1,,,80,45
30816,note_on,,,,,4,0,4,,,,,2,,,80,76
30816,note_off,,,,,24,0,1,,,,,0,,,74,0
30840,note_off,,,,,24,0,1,,,,,0,,,76,0
30840,note_on,,,,,0,0,1,,,,,0,,,74,92
30856,note_off,,,,,136,0,6,,,,,4,,,59,0
30856,note_off,,,,,136,0,3,,,,,10,,,59,0
30864,note_on,,,,,0,0,1,,,,,0,,,76,92
30864,note_off,,,,,24,0,1,,,,,0,,,74,0
30888,note_on,,,,,0,0,1,,,,,0,,,74,92
30888,note_off,,,,,24,0,1,,,,,0,,,76,0
30908,note_off,,,,,188,0,5,,,,,3,,,62,0
30908,note_off,,,,,92,0,2,,,,,1,,,80,0
30908,note_off,,,,,92,0,4,,,,,2,,,80,0
30912,note_on,,,,,4,0,2,,,,,1,,,80,45
30912,note_on,,,,,56,0,6,,,,,4,,,59,45
30912,note_on,,,,,4,0,5,,,,,3,,,62,76
30912,note_off,,,,,24,0,1,,,,,0,,,74,0
30912,note_on,,,,,0,0,1,,,,,0,,,76,92
30912,note_on,,,,,4,0,4,,,,,2,,,80,76
30912,note_on,,,,,56,0,3,,,,,10,,,59,45
30936,note_off,,,,,24,0,1,,,,,0,,,76,0
30936,note_on,,,,,0,0,1,,,,,0,,,74,92
30960,note_on,,,,,0,0,1,,,,,0,,,76,92
30960,note_off,,,,,24,0,1,,,,,0,,,74,0
30976,note_off,,,,,64,0,3,,,,,10,,,59,0
30976,note_off,,,,,64,0,6,,,,,4,,,59,0
30984,note_on,,,,,0,0,1,,,,,0,,,74,92
30984,note_off,,,,,24,0,1,,,,,0,,,76,0
31004,note_off,,,,,92,0,2,,,,,1,,,80,0
31004,note_off,,,,,92,0,4,,,,,2,,,80,0
31008,note_off,,,,,24,0,1,,,,,0,,,74,0
31008,note_on,,,,,4,0,4,,,,,2,,,80,76
31008,note_on,,,,,0,0,1,,,,,0,,,76,92
31008,note_on,,,,,4,0,2,,,,,1,,,80,45
31032,note_on,,,,,0,0,1,,,,,0,,,74,92
31032,note_off,,,,,24,0,1,,,,,0,,,76,0
31056,note_on,,,,,0,0,1,,,,,0,,,76,92
31056,note_off,,,,,24,0,1,,,,,0,,,74,0
31080,note_on,,,,,0,0,1,,,,,0,,,74,92
31080,note_off,,,,,24,0,1,,,,,0,,,76,0
31100,note_off,,,,,92,0,4,,,,,2,,,80,0
31100,note_off,,,,,188,0,5,,,,,3,,,62,0
31100,note_off,,,,,92,0,2,,,,,1,,,80,0
31104,note_on,,,,,4,0,2,,,,,1,,,80,45
31104,note_off,,,,,24,0,1,,,,,0,,,74,0
31104,note_on,,,,,0,0,1,,,,,0,,,76,92
31104,note_on,,,,,4,0,5,,,,,3,,,71,76
31104,note_on,,,,,128,0,6,,,,,4,,,52,45
31104,note_on,,,,,128,0,3,,,,,10,,,52,45
31104,note_on,,,,,4,0,4,,,,,2,,,80,76
31128,note_off,,,,,24,0,1,,,,,0,,,76,0
31128,note_on,,,,,0,0,1,,,,,0,,,74,92
31152,note_on,,,,,0,0,1,,,,,0,,,76,92
31152,note_off,,,,,24,0,1,,,,,0,,,74,0
31176,note_on,,,,,0,0,1,,,,,0,,,74,92
31176,note_off,,,,,24,0,1,,,,,0,,,76,0
31196,note_off,,,,,92,0,4,,,,,2,,,80,0
31196,note_off,,,,,92,0,2,,,,,1,,,80,0
31200,note_off,,,,,24,0,1,,,,,0,,,74,0
31200,note_on,,,,,0,0,1,,,,,0,,,76,92
31200,note_on,,,,,4,0,4,,,,,2,,,80,76
31200,note_on,,,,,4,0,2,,,,,1,,,80,45
31224,note_on,,,,,0,0,1,,,,,0,,,74,92
31224,note_off,,,,,24,0,1,,,,,0,,,76,0
31240,note_off,,,,,136,0,6,,,,,4,,,52,0
31240,note_off,,,,,136,0,3,,,,,10,,,52,0
31248,note_off,,,,,24,0,1,,,,,0,,,74,0
31248,note_on,,,,,0,0,1,,,,,0,,,76,92
31272,note_off,,,,,24,0,1,,,,,0,,,76,0
31272,note_on,,,,,0,0,1,,,,,0,,,74,92
31292,note_off,,,,,92,0,2,,,,,1,,,80,0
31292,note_off,,,,,188,0,5,,,,,3,,,71,0
31292,note_off,,,,,92,0,4,,,,,2,,,80,0
31296,note_on,,,,,4,0,5,,,,,3,,,71,76
31296,note_on,,,,,56,0,3,,,,,10,,,52,45
31296,note_on,,,,,4,0,4,,,,,2,,,80,76
31296,note_on,,,,,56,0,6,,,,,4,,,52,45
31296,note_on,,,,,4,0,2,,,,,1,,,80,45
31296,note_on,,,,,0,0,1,,,,,0,,,76,92
31296,note_off,,,,,24,0,1,,,,,0,,,74,0
31320,note_off,,,,,24,0,1,,,,,0,,,76,0
31320,note_on,,,,,0,0,1,,,,,0,,,74,92
31344,note_off,,,,,24,0,1,,,,,0,,,74,0
31344,note_on,,,,,0,0,1,,,,,0,,,76,92
31360,note_off,,,,,64,0,3,,,,,10,,,52,0
31360,note_off,,,,,64,0,6,,,,,4,,,52,0
31368,note_on,,,,,0,0,1,,,,,0,,,74,92
31368,note_off,,,,,24,0,1,,,,,0,,,76,0
31388,note_off,,,,,92,0,4,,,,,2,,,80,0
31388,note_off,,,,,92,0,2,,,,,1,,,80,0
31392,note_off,,,,,24,0,1,,,,,0,,,74,0
31392,note_on,,,,,4,0,4,,,,,2,,,80,76
31392,note_on,,,,,0,0,1,,,,,0,,,76,92
31392,note_on,,,,,4,0,2,,,,,1,,,80,45
31416,note_off,,,,,24,0,1,,,,,0,,,76,0
31416,note_on,,,,,0,0,1,,,,,0,,,74,92
31440,note_off,,,,,24,0,1,,,,,0,,,74,0
31440,note_on,,,,,0,0,1,,,,,0,,,76,92
31464,note_off,,,,,24,0,1,,,,,0,,,76,0
31464,note_on,,,,,0,0,1,,,,,0,,,74,92
31484,note_off,,,,,92,0,4,,,,,2,,,80,0
31484,note_off,,,,,20,0,1,,,,,0,,,74,0
31484,note_off,,,,,92,0,2,,,,,1,,,80,0
31484,note_off,,,,,188,0,5,,,,,3,,,71,0
31488,note_on,,,,,4,0,5,,,,,3,,,73,76
31488,note_on,,,,,128,0,3,,,,,10,,,57,45
31488,note_on,,,,,4,0,4,,,,,2,,,81,76
31488,note_on,,,,,4,0,1,,,,,0,,,73,92
31488,note_on,,,,,4,0,2,,,,,1,,,81,45
31488,note_on,,,,,128,0,6,,,,,4,,,57,45
31584,note_off,,,,,96,0,4,,,,,2,,,81,0
31584,note_on,,,,,0,0,4,,,,,2,,,76,76
31676,note_off,,,,,92,0,4,,,,,2,,,76,0
31680,note_on,,,,,4,0,4,,,,,2,,,81,76
31776,note_off,,,,,96,0,4,,,,,2,,,81,0
31776,note_on,,,,,0,0,4,,,,,2,,,76,76
31808,note_off,,,,,320,0,1,,,,,0,,,73,0
31808,note_off,,,,,320,0,3,,,,,10,,,57,0
31808,note_off,,,,,320,0,5,,,,,3,,,73,0
31808,note_off,,,,,320,0,2,,,,,1,,,81,0
31808,note_off,,,,,320,0,6,,,,,4,,,57,0
31868,note_off,,,,,92,0,4,,,,,2,,,76,0
31872,note_on,,,,,4,0,4,,,,,2,,,81,76
31968,note_on,,,,,0,0,4,,,,,2,,,76,76
31968,note_off,,,,,96,0,4,,,,,2,,,81,0
32060,note_off,,,,,92,0,4,,,,,2,,,76,0
32064,note_on,,,,,4,0,4,,,,,2,,,81,76
32160,note_on,,,,,352,0,1,,,,,0,,,78,92
32160,note_on,,,,,352,0,2,,,,,1,,,74,45
32252,note_off,,,,,188,0,4,,,,,2,,,81,0
32252,note_off,,,,,92,0,1,,,,,0,,,78,0
32252,note_off,,,,,92,0,2,,,,,1,,,74,0
32256,note_on,,,,,4,0,1,,,,,0,,,76,92
32256,note_on,,,,,4,0,2,,,,,1,,,73,45
32348,note_off,,,,,92,0,2,,,,,1,,,73,0
32348,note_off,,,,,92,0,1,,,,,0,,,76,0
32352,note_on,,,,,4,0,2,,,,,1,,,71,45
32352,note_on,,,,,4,0,1,,,,,0,,,74,92
32444,note_off,,,,,92,0,2,,,,,1,,,71,0
32444,note_off,,,,,92,0,1,,,,,0,,,74,0
32448,note_on,,,,,4,0,1,,,,,0,,,73,92
32448,note_on,,,,,4,0,2,,,,,1,,,69,45
32544,note_on,,,,,736,0,5,,,,,3,,,74,57
32544,note_on,,,,,292,0,4,,,,,2,,,78,57
32636,note_off,,,,,188,0,1,,,,,0,,,73,0
32636,note_off,,,,,92,0,5,,,,,3,,,74,0
32636,note_off,,,,,188,0,2,,,,,1,,,69,0
32636,note_off,,,,,92,0,4,,,,,2,,,78,0
32640,note_on,,,,,4,0,5,,,,,3,,,73,57
32640,note_on,,,,,4,0,4,,,,,2,,,76,57
32732,note_off,,,,,92,0,5,,,,,3,,,73,0
32732,note_off,,,,,92,0,4,,,,,2,,,76,0
32736,note_on,,,,,4,0,5,,,,,3,,,71,57
32736,note_on,,,,,4,0,4,,,,,2,,,74,57
32828,note_off,,,,,92,0,4,,,,,2,,,74,0
32828,note_off,,,,,92,0,5,,,,,3,,,71,0
32832,note_on,,,,,4,0,4,,,,,2,,,73,57
32832,note_on,,,,,4,0,5,,,,,3,,,69,57
32928,note_on,,,,,1120,0,3,,,,,10,,,66,45
32928,note_on,,,,,292,0,1,,,,,0,,,74,92
33020,note_off,,,,,92,0,1,,,,,0,,,74,0
33020,note_off,,,,,92,0,3,,,,,10,,,66,0
33020,note_off,,,,,188,0,5,,,,,3,,,69,0
33020,note_off,,,,,188,0,4,,,,,2,,,73,0
33024,note_on,,,,,4,0,1,,,,,0,,,73,92
33024,note_on,,,,,4,0,3,,,,,10,,,64,45
33116,note_off,,,,,92,0,3,,,,,10,,,64,0
33116,note_off,,,,,92,0,1,,,,,0,,,73,0
33120,note_on,,,,,4,0,1,,,,,0,,,71,92
33120,note_on,,,,,4,0,3,,,,,10,,,62,45
33212,note_off,,,,,92,0,1,,,,,0,,,71,0
33212,note_off,,,,,92,0,3,,,,,10,,,62,0
33216,note_on,,,,,4,0,1,,,,,0,,,69,92
33216,note_on,,,,,4,0,3,,,,,10,,,61,45
33312,note_on,,,,,292,0,4,,,,,2,,,74,57
33312,note_on,,,,,292,0,5,,,,,3,,,66,57
33312,note_on,,,,,1504,0,6,,,,,4,,,66,45
33404,note_off,,,,,92,0,5,,,,,3,,,66,0
33404,note_off,,,,,188,0,1,,,,,0,,,69,0
33404,note_off,,,,,188,0,3,,,,,10,,,61,0
33404,note_off,,,,,92,0,4,,,,,2,,,74,0
33404,note_off,,,,,92,0,6,,,,,4,,,66,0
33408,note_on,,,,,4,0,6,,,,,4,,,64,45
33408,note_on,,,,,4,0,4,,,,,2,,,73,57
33408,note_on,,,,,4,0,5,,,,,3,,,64,57
33500,note_off,,,,,92,0,6,,,,,4,,,64,0
33500,note_off,,,,,92,0,4,,,,,2,,,73,0
33500,note_off,,,,,92,0,5,,,,,3,,,64,0
33504,note_on,,,,,4,0,4,,,,,2,,,71,57
33504,note_on,,,,,4,0,6,,,,,4,,,62,45
33504,note_on,,,,,4,0,5,,,,,3,,,62,57
33596,note_off,,,,,92,0,5,,,,,3,,,62,0
33596,note_off,,,,,92,0,4,,,,,2,,,71,0
33596,note_off,,,,,92,0,6,,,,,4,,,62,0
33600,note_on,,,,,4,0,6,,,,,4,,,61,45
33600,note_on,,,,,4,0,4,,,,,2,,,69,57
33600,note_on,,,,,4,0,5,,,,,3,,,61,57
33696,note_on,,,,,292,0,1,,,,,0,,,76,92
33696,note_on,,,,,1060,0,2,,,,,1,,,76,92
33788,note_off,,,,,188,0,4,,,,,2,,,69,0
33788,note_off,,,,,188,0,5,,,,,3,,,61,0
33788,note_off,,,,,92,0,1,,,,,0,,,76,0
33788,note_off,,,,,188,0,6,,,,,4,,,61,0
33788,note_off,,,,,92,0,2,,,,,1,,,76,0
33792,note_on,,,,,4,0,1,,,,,0,,,81,92
33792,note_on,,,,,9664,0,10,,,,,8,,,54,60
33792,note_on,,,,,4,0,2,,,,,1,,,81,92
33792,note_on,,,,,4,0,5,,,,,3,,,66,95
33792,note_on,,,,,388,0,3,,,,,10,,,54,105
33792,note_on,,,,,9664,0,8,,,,,6,,,42,63
33792,note_on,,,,,4,0,6,,,,,4,,,73,75
33792,note_on,,,,,9664,0,7,,,,,5,,,54,75
33888,note_on,,,,,100,0,4,,,,,2,,,69,95
33980,note_off,,,,,188,0,6,,,,,4,,,73,0
33980,note_off,,,,,188,0,5,,,,,3,,,66,0
33980,note_off,,,,,92,0,4,,,,,2,,,69,0
33984,note_on,,,,,4,0,5,,,,,3,,,61,95
33984,note_on,,,,,4,0,4,,,,,2,,,73,95
33984,note_on,,,,,4,0,6,,,,,4,,,69,75
34112,note_off,,,,,320,0,3,,,,,10,,,54,0
34112,note_off,,,,,320,0,8,,,,,6,,,42,0
34112,note_off,,,,,320,0,7,,,,,5,,,54,0
34112,note_off,,,,,320,0,10,,,,,8,,,54,0
34124,note_off,,,,,140,0,4,,,,,2,,,73,0
34128,note_on,,,,,4,0,4,,,,,2,,,66,95
34172,note_off,,,,,188,0,6,,,,,4,,,69,0
34172,note_off,,,,,188,0,5,,,,,3,,,61,0
34172,note_off,,,,,44,0,4,,,,,2,,,66,0
34176,note_on,,,,,64,0,3,,,,,10,,,45,105
34176,note_on,,,,,64,0,10,,,,,8,,,45,60
34176,note_on,,,,,64,0,8,,,,,6,,,33,63
34176,note_on,,,,,4,0,4,,,,,2,,,78,95
34176,note_on,,,,,64,0,7,,,,,5,,,45,75
34272,note_on,,,,,100,0,5,,,,,3,,,69,95
34272,note_on,,,,,100,0,6,,,,,4,,,66,75
34304,note_off,,,,,512,0,1,,,,,0,,,81,0
34304,note_off,,,,,512,0,2,,,,,1,,,81,0
34364,note_off,,,,,188,0,4,,,,,2,,,78,0
34364,note_off,,,,,92,0,6,,,,,4,,,66,0
34364,note_off,,,,,92,0,5,,,,,3,,,69,0
34368,note_on,,,,,4,0,4,,,,,2,,,73,95
34368,note_on,,,,,64,0,1,,,,,0,,,78,92
34368,note_on,,,,,64,0,2,,,,,1,,,78,92
34368,note_on,,,,,4,0,6,,,,,4,,,69,75
34368,note_on,,,,,4,0,5,,,,,3,,,73,95
34496,note_off,,,,,320,0,10,,,,,8,,,45,0
34496,note_off,,,,,320,0,7,,,,,5,,,45,0
34496,note_off,,,,,320,0,8,,,,,6,,,33,0
34496,note_off,,,,,320,0,3,,,,,10,,,45,0
34508,note_off,,,,,140,0,5,,,,,3,,,73,0
34508,note_off,,,,,140,0,6,,,,,4,,,69,0
34512,note_on,,,,,4,0,5,,,,,3,,,69,95
34512,note_on,,,,,4,0,6,,,,,4,,,66,75
34556,note_off,,,,,44,0,5,,,,,3,,,69,0
34556,note_off,,,,,44,0,6,,,,,4,,,66,0
34556,note_off,,,,,188,0,4,,,,,2,,,73,0
34556,note_off,,,,,188,0,1,,,,,0,,,78,0
34556,note_off,,,,,188,0,2,,,,,1,,,78,0
34560,note_on,,,,,64,0,10,,,,,8,,,47,60
34560,note_on,,,,,64,0,3,,,,,10,,,47,105
34560,note_on,,,,,4,0,5,,,,,3,,,66,95
34560,note_on,,,,,4,0,1,,,,,0,,,75,92
34560,note_on,,,,,64,0,7,,,,,5,,,47,75
34560,note_on,,,,,4,0,2,,,,,1,,,75,92
34560,note_on,,,,,4,0,6,,,,,4,,,71,75
34560,note_on,,,,,64,0,8,,,,,6,,,35,63
34656,note_on,,,,,100,0,4,,,,,2,,,75,95
34748,note_off,,,,,92,0,4,,,,,2,,,75,0
34748,note_off,,,,,188,0,5,,,,,3,,,66,0
34748,note_off,,,,,188,0,6,,,,,4,,,71,0
34752,note_on,,,,,4,0,4,,,,,2,,,78,95
34752,note_on,,,,,4,0,6,,,,,4,,,63,75
34752,note_on,,,,,4,0,5,,,,,3,,,59,95
34880,note_off,,,,,320,0,3,,,,,10,,,47,0
34880,note_off,,,,,320,0,10,,,,,8,,,47,0
34880,note_off,,,,,320,0,8,,,,,6,,,35,0
34880,note_off,,,,,320,0,7,,,,,5,,,47,0
34892,note_off,,,,,140,0,4,,,,,2,,,78,0
34896,note_on,,,,,4,0,4,,,,,2,,,71,95
34940,note_off,,,,,188,0,6,,,,,4,,,63,0
34940,note_off,,,,,44,0,4,,,,,2,,,71,0
34940,note_off,,,,,188,0,5,,,,,3,,,59,0
34944,note_on,,,,,64,0,3,,,,,10,,,51,105
34944,note_on,,,,,64,0,7,,,,,5,,,51,75
34944,note_on,,,,,64,0,8,,,,,6,,,39,63
34944,note_on,,,,,64,0,10,,,,,8,,,51,60
34944,note_on,,,,,4,0,4,,,,,2,,,66,95
35040,note_on,,,,,100,0,5,,,,,3,,,63,95
35072,note_off,,,,,512,0,2,,,,,1,,,75,0
35072,note_off,,,,,512,0,1,,,,,0,,,75,0
35132,note_off,,,,,92,0,5,,,,,3,,,63,0
35132,note_off,,,,,188,0,4,,,,,2,,,66,0
35136,note_on,,,,,196,0,6,,,,,4,,,63,75
35136,note_on,,,,,4,0,5,,,,,3,,,66,95
35136,note_on,,,,,64,0,1,,,,,0,,,71,92
35136,note_on,,,,,64,0,2,,,,,1,,,71,92
35136,note_on,,,,,4,0,4,,,,,2,,,59,95
35264,note_off,,,,,320,0,7,,,,,5,,,51,0
35264,note_off,,,,,320,0,3,,,,,10,,,51,0
35264,note_off,,,,,320,0,10,,,,,8,,,51,0
35264,note_off,,,,,320,0,8,,,,,6,,,39,0
35276,note_off,,,,,140,0,5,,,,,3,,,66,0
35280,note_on,,,,,4,0,5,,,,,3,,,63,95
35324,note_off,,,,,188,0,1,,,,,0,,,71,0
35324,note_off,,,,,188,0,2,,,,,1,,,71,0
35324,note_off,,,,,44,0,5,,,,,3,,,63,0
35324,note_off,,,,,188,0,6,,,,,4,,,63,0
35324,note_off,,,,,188,0,4,,,,,2,,,59,0
35328,note_on,,,,,4,0,2,,,,,1,,,68,92
35328,note_on,,,,,64,0,7,,,,,5,,,52,75
35328,note_on,,,,,64,0,10,,,,,8,,,52,60
35328,note_on,,,,,4,0,5,,,,,3,,,71,95
35328,note_on,,,,,64,0,3,,,,,10,,,52,105
35328,note_on,,,,,64,0,8,,,,,6,,,40,63
35328,note_on,,,,,4,0,1,,,,,0,,,68,92
35328,note_on,,,,,4,0,6,,,,,4,,,68,75
35424,note_on,,,,,100,0,4,,,,,2,,,59,95
35516,note_off,,,,,188,0,5,,,,,3,,,71,0
35516,note_off,,,,,92,0,4,,,,,2,,,59,0
35516,note_off,,,,,188,0,6,,,,,4,,,68,0
35520,note_on,,,,,4,0,6,,,,,4,,,56,75
35520,note_on,,,,,4,0,5,,,,,3,,,59,95
35520,note_on,,,,,4,0,4,,,,,2,,,64,95
35648,note_off,,,,,320,0,3,,,,,10,,,52,0
35648,note_off,,,,,320,0,10,,,,,8,,,52,0
35648,note_off,,,,,320,0,7,,,,,5,,,52,0
35648,note_off,,,,,320,0,8,,,,,6,,,40,0
35660,note_off,,,,,140,0,4,,,,,2,,,64,0
35664,note_on,,,,,4,0,4,,,,,2,,,59,95
35708,note_off,,,,,44,0,4,,,,,2,,,59,0
35708,note_off,,,,,188,0,5,,,,,3,,,59,0
35708,note_off,,,,,188,0,6,,,,,4,,,56,0
35712,note_on,,,,,4,0,6,,,,,4,,,64,75
35712,note_on,,,,,64,0,8,,,,,6,,,44,63
35712,note_on,,,,,64,0,7,,,,,5,,,56,75
35712,note_on,,,,,64,0,3,,,,,10,,,56,105
35712,note_on,,,,,4,0,4,,,,,2,,,71,95
35712,note_on,,,,,64,0,10,,,,,8,,,56,60
35808,note_on,,,,,100,0,5,,,,,3,,,59,95
35900,note_off,,,,,188,0,4,,,,,2,,,71,0
35900,note_off,,,,,188,0,6,,,,,4,,,64,0
35900,note_off,,,,,92,0,5,,,,,3,,,59,0
35904,note_on,,,,,4,0,4,,,,,2,,,64,95
35904,note_on,,,,,4,0,6,,,,,4,,,59,75
35904,note_on,,,,,4,0,5,,,,,3,,,71,95
36000,note_off,,,,,672,0,2,,,,,1,,,68,0
36000,note_off,,,,,672,0,1,,,,,0,,,68,0
36032,note_off,,,,,320,0,3,,,,,10,,,56,0
36032,note_off,,,,,320,0,7,,,,,5,,,56,0
36032,note_off,,,,,320,0,8,,,,,6,,,44,0
36032,note_off,,,,,320,0,10,,,,,8,,,56,0
36044,note_off,,,,,140,0,5,,,,,3,,,71,0
36048,note_on,,,,,4,0,5,,,,,3,,,59,95
36092,note_off,,,,,188,0,6,,,,,4,,,59,0
36092,note_off,,,,,188,0,4,,,,,2,,,64,0
36092,note_off,,,,,44,0,5,,,,,3,,,59,0
36096,note_on,,,,,64,0,3,,,,,10,,,59,105
36096,note_on,,,,,96,0,1,,,,,0,,,66,92
36096,note_on,,,,,64,0,10,,,,,8,,,59,60
36096,note_on,,,,,96,0,2,,,,,1,,,66,92
36096,note_on,,,,,4,0,5,,,,,3,,,66,95
36096,note_on,,,,,64,0,8,,,,,6,,,47,63
36096,note_on,,,,,4,0,4,,,,,2,,,63,95
36096,note_on,,,,,4,0,6,,,,,4,,,59,75
36096,note_on,,,,,64,0,7,,,,,5,,,59,75
36416,note_off,,,,,320,0,10,,,,,8,,,59,0
36416,note_off,,,,,320,0,7,,,,,5,,,59,0
36416,note_off,,,,,320,0,4,,,,,2,,,63,0
36416,note_off,,,,,320,0,2,,,,,1,,,66,0
36416,note_off,,,,,320,0,3,,,,,10,,,59,0
36416,note_off,,,,,320,0,6,,,,,4,,,59,0
36416,note_off,,,,,320,0,5,,,,,3,,,66,0
36416,note_off,,,,,320,0,1,,,,,0,,,66,0
36416,note_off,,,,,320,0,8,,,,,6,,,47,0
36672,note_on,,,,,256,0,1,,,,,0,,,71,45
36672,note_on,,,,,256,0,4,,,,,2,,,71,57
36860,note_off,,,,,188,0,1,,,,,0,,,71,0
36860,note_off,,,,,188,0,4,,,,,2,,,71,0
36864,note_on,,,,,4,0,4,,,,,2,,,72,57
36864,note_on,,,,,448,0,3,,,,,10,,,57,75
36864,note_on,,,,,4,0,1,,,,,0,,,72,45
36864,note_on,,,,,448,0,6,,,,,4,,,57,45
36928,note_off,,,,,64,0,4,,,,,2,,,72,0
36928,note_off,,,,,64,0,1,,,,,0,,,72,0
36960,note_off,,,,,96,0,6,,,,,4,,,57,0
36960,note_off,,,,,96,0,3,,,,,10,,,57,0
37056,note_on,,,,,640,0,5,,,,,3,,,76,57
37056,note_on,,,,,640,0,2,,,,,1,,,76,45
37056,note_on,,,,,128,0,4,,,,,2,,,72,57
37056,note_on,,,,,128,0,1,,,,,0,,,72,45
37120,note_off,,,,,64,0,1,,,,,0,,,72,0
37120,note_off,,,,,64,0,4,,,,,2,,,72,0
37244,note_off,,,,,188,0,2,,,,,1,,,76,0
37244,note_off,,,,,188,0,5,,,,,3,,,76,0
37248,note_on,,,,,128,0,4,,,,,2,,,72,57
37248,note_on,,,,,128,0,1,,,,,0,,,72,45
37248,note_on,,,,,288,0,6,,,,,4,,,57,45
37248,note_on,,,,,4,0,2,,,,,1,,,81,45
37248,note_on,,,,,4,0,5,,,,,3,,,81,57
37248,note_on,,,,,288,0,3,,,,,10,,,57,75
37312,note_off,,,,,64,0,1,,,,,0,,,72,0
37312,note_off,,,,,64,0,4,,,,,2,,,72,0
37344,note_off,,,,,96,0,6,,,,,4,,,57,0
37344,note_off,,,,,96,0,3,,,,,10,,,57,0
37436,note_off,,,,,188,0,5,,,,,3,,,81,0
37436,note_off,,,,,188,0,2,,,,,1,,,81,0
37440,note_on,,,,,4,0,2,,,,,1,,,76,45
37440,note_on,,,,,4,0,5,,,,,3,,,76,57
37440,note_on,,,,,128,0,1,,,,,0,,,72,45
37440,note_on,,,,,128,0,4,,,,,2,,,72,57
37504,note_off,,,,,64,0,1,,,,,0,,,72,0
37504,note_off,,,,,64,0,4,,,,,2,,,72,0
37628,note_off,,,,,188,0,2,,,,,1,,,76,0
37628,note_off,,,,,188,0,5,,,,,3,,,76,0
37632,note_on,,,,,288,0,6,,,,,4,,,57,45
37632,note_on,,,,,128,0,1,,,,,0,,,73,45
37632,note_on,,,,,128,0,4,,,,,2,,,73,57
37632,note_on,,,,,288,0,3,,,,,10,,,57,75
37696,note_off,,,,,64,0,1,,,,,0,,,73,0
37696,note_off,,,,,64,0,4,,,,,2,,,73,0
37728,note_off,,,,,96,0,3,,,,,10,,,57,0
37728,note_off,,,,,96,0,6,,,,,4,,,57,0
37728,note_on,,,,,32,0,1,,,,,0,,,73,45
37728,note_on,,,,,32,0,4,,,,,2,,,73,57
37792,note_off,,,,,64,0,1,,,,,0,,,73,0
37792,note_off,,,,,64,0,4,,,,,2,,,73,0
37824,note_on,,,,,196,0,2,,,,,1,,,76,45
37824,note_on,,,,,32,0,4,,,,,2,,,73,57
37824,note_on,,,,,32,0,1,,,,,0,,,73,45
37824,note_on,,,,,196,0,5,,,,,3,,,76,57
37888,note_off,,,,,64,0,4,,,,,2,,,73,0
37888,note_off,,,,,64,0,1,,,,,0,,,73,0
37920,note_on,,,,,32,0,4,,,,,2,,,73,57
37920,note_on,,,,,32,0,1,,,,,0,,,73,45
37984,note_off,,,,,64,0,4,,,,,2,,,73,0
37984,note_off,,,,,64,0,1,,,,,0,,,73,0
38012,note_off,,,,,188,0,5,,,,,3,,,76,0
38012,note_off,,,,,188,0,2,,,,,1,,,76,0
38016,note_on,,,,,288,0,6,,,,,4,,,57,45
38016,note_on,,,,,288,0,3,,,,,10,,,57,75
38016,note_on,,,,,4,0,5,,,,,3,,,79,57
38016,note_on,,,,,32,0,1,,,,,0,,,73,45
38016,note_on,,,,,4,0,2,,,,,1,,,79,45
38016,note_on,,,,,32,0,4,,,,,2,,,73,57
38080,note_off,,,,,64,0,1,,,,,0,,,73,0
38080,note_off,,,,,64,0,4,,,,,2,,,73,0
38112,note_off,,,,,96,0,3,,,,,10,,,57,0
38112,note_on,,,,,32,0,4,,,,,2,,,73,57
38112,note_on,,,,,32,0,1,,,,,0,,,73,45
38112,note_off,,,,,96,0,6,,,,,4,,,57,0
38176,note_off,,,,,64,0,1,,,,,0,,,73,0
38176,note_off,,,,,64,0,4,,,,,2,,,73,0
38204,note_off,,,,,188,0,5,,,,,3,,,79,0
38204,note_off,,,,,188,0,2,,,,,1,,,79,0
38208,note_on,,,,,32,0,4,,,,,2,,,73,57
38208,note_on,,,,,32,0,1,,,,,0,,,73,45
38208,note_on,,,,,4,0,5,,,,,3,,,76,57
38208,note_on,,,,,4,0,2,,,,,1,,,76,45
38272,note_off,,,,,64,0,1,,,,,0,,,73,0
38272,note_off,,,,,64,0,4,,,,,2,,,73,0
38304,note_on,,,,,32,0,4,,,,,2,,,73,57
38304,note_on,,,,,32,0,1,,,,,0,,,73,45
38368,note_off,,,,,64,0,4,,,,,2,,,73,0
38368,note_off,,,,,64,0,1,,,,,0,,,73,0
38396,note_off,,,,,188,0,2,,,,,1,,,76,0
38396,note_off,,,,,188,0,5,,,,,3,,,76,0
38400,note_on,,,,,288,0,6,,,,,4,,,57,45
38400,note_on,,,,,32,0,4,,,,,2,,,74,57
38400,note_on,,,,,4,0,2,,,,,1,,,74,45
38400,note_on,,,,,32,0,1,,,,,0,,,74,45
38400,note_on,,,,,288,0,3,,,,,10,,,57,75
38492,note_off,,,,,92,0,1,,,,,0,,,74,0
38492,note_off,,,,,92,0,2,,,,,1,,,74,0
38496,note_off,,,,,96,0,3,,,,,10,,,57,0
38496,note_on,,,,,4,0,2,,,,,1,,,74,45
38496,note_on,,,,,4,0,1,,,,,0,,,74,45
38496,note_off,,,,,96,0,6,,,,,4,,,57,0
38588,note_off,,,,,92,0,1,,,,,0,,,74,0
38588,note_off,,,,,188,0,4,,,,,2,,,74,0
38588,note_off,,,,,92,0,2,,,,,1,,,74,0
38592,note_on,,,,,196,0,5,,,,,3,,,78,57
38592,note_on,,,,,4,0,4,,,,,2,,,78,57
38592,note_on,,,,,4,0,1,,,,,0,,,74,45
38592,note_on,,,,,4,0,2,,,,,1,,,74,45
38684,note_off,,,,,92,0,1,,,,,0,,,74,0
38684,note_off,,,,,92,0,2,,,,,1,,,74,0
38688,note_on,,,,,4,0,1,,,,,0,,,74,45
38688,note_on,,,,,4,0,2,,,,,1,,,74,45
38780,note_off,,,,,92,0,2,,,,,1,,,74,0
38780,note_off,,,,,188,0,4,,,,,2,,,78,0
38780,note_off,,,,,188,0,5,,,,,3,,,78,0
38780,note_off,,,,,92,0,1,,,,,0,,,74,0
38784,note_on,,,,,4,0,1,,,,,0,,,74,45
38784,note_on,,,,,288,0,3,,,,,10,,,57,75
38784,note_on,,,,,4,0,2,,,,,1,,,74,45
38784,note_on,,,,,288,0,6,,,,,4,,,57,45
38784,note_on,,,,,4,0,5,,,,,3,,,81,57
38784,note_on,,,,,4,0,4,,,,,2,,,81,57
38876,note_off,,,,,92,0,2,,,,,1,,,74,0
38876,note_off,,,,,92,0,1,,,,,0,,,74,0
38880,note_on,,,,,4,0,2,,,,,1,,,74,45
38880,note_off,,,,,96,0,3,,,,,10,,,57,0
38880,note_on,,,,,4,0,1,,,,,0,,,74,45
38880,note_off,,,,,96,0,6,,,,,4,,,57,0
38972,note_off,,,,,188,0,5,,,,,3,,,81,0
38972,note_off,,,,,92,0,1,,,,,0,,,74,0
38972,note_off,,,,,92,0,2,,,,,1,,,74,0
38972,note_off,,,,,188,0,4,,,,,2,,,81,0
38976,note_on,,,,,4,0,1,,,,,0,,,74,45
38976,note_on,,,,,4,0,4,,,,,2,,,78,57
38976,note_on,,,,,4,0,2,,,,,1,,,74,45
38976,note_on,,,,,4,0,5,,,,,3,,,78,57
39068,note_off,,,,,92,0,2,,,,,1,,,74,0
39068,note_off,,,,,92,0,1,,,,,0,,,74,0
39072,note_on,,,,,4,0,1,,,,,0,,,74,45
39072,note_on,,,,,4,0,2,,,,,1,,,74,45
39164,note_off,,,,,188,0,4,,,,,2,,,78,0
39164,note_off,,,,,188,0,5,,,,,3,,,78,0
39164,note_off,,,,,92,0,1,,,,,0,,,74,0
39164,note_off,,,,,92,0,2,,,,,1,,,74,0
39168,note_on,,,,,4,0,1,,,,,0,,,75,45
39168,note_on,,,,,4,0,5,,,,,3,,,66,57
39168,note_on,,,,,4,0,2,,,,,1,,,75,45
39168,note_on,,,,,288,0,3,,,,,10,,,57,75
39168,note_on,,,,,288,0,6,,,,,4,,,57,45
39212,note_off,,,,,44,0,2,,,,,1,,,75,0
39212,note_off,,,,,44,0,1,,,,,0,,,75,0
39216,note_on,,,,,4,0,1,,,,,0,,,75,45
39216,note_on,,,,,4,0,2,,,,,1,,,75,45
39236,note_off,,,,,68,0,5,,,,,3,,,66,0
39260,note_off,,,,,44,0,2,,,,,1,,,75,0
39260,note_off,,,,,44,0,1,,,,,0,,,75,0
39264,note_on,,,,,28,0,5,,,,,3,,,66,57
39264,note_on,,,,,4,0,2,,,,,1,,,75,45
39264,note_on,,,,,4,0,1,,,,,0,,,75,45
39304,note_off,,,,,136,0,3,,,,,10,,,57,0
39304,note_off,,,,,136,0,6,,,,,4,,,57,0
39308,note_off,,,,,44,0,1,,,,,0,,,75,0
39308,note_off,,,,,44,0,2,,,,,1,,,75,0
39312,note_on,,,,,4,0,1,,,,,0,,,75,45
39312,note_on,,,,,4,0,2,,,,,1,,,75,45
39332,note_off,,,,,68,0,5,,,,,3,,,66,0
39356,note_off,,,,,44,0,1,,,,,0,,,75,0
39356,note_off,,,,,44,0,2,,,,,1,,,75,0
39360,note_on,,,,,4,0,2,,,,,1,,,75,45
39360,note_on,,,,,56,0,3,,,,,10,,,57,75
39360,note_on,,,,,56,0,6,,,,,4,,,57,45
39360,note_on,,,,,4,0,1,,,,,0,,,75,45
39360,note_on,,,,,28,0,5,,,,,3,,,66,57
39360,note_on,,,,,196,0,4,,,,,2,,,78,57
39404,note_off,,,,,44,0,2,,,,,1,,,75,0
39404,note_off,,,,,44,0,1,,,,,0,,,75,0
39408,note_on,,,,,4,0,1,,,,,0,,,75,45
39408,note_on,,,,,4,0,2,,,,,1,,,75,45
39424,note_off,,,,,64,0,6,,,,,4,,,57,0
39424,note_off,,,,,64,0,3,,,,,10,,,57,0
39428,note_off,,,,,68,0,5,,,,,3,,,66,0
39452,note_off,,,,,44,0,2,,,,,1,,,75,0
39452,note_off,,,,,44,0,1,,,,,0,,,75,0
39456,note_on,,,,,28,0,5,,,,,3,,,66,57
39456,note_on,,,,,4,0,1,,,,,0,,,75,45
39456,note_on,,,,,4,0,2,,,,,1,,,75,45
39500,note_off,,,,,44,0,2,,,,,1,,,75,0
39500,note_off,,,,,44,0,1,,,,,0,,,75,0
39504,note_on,,,,,4,0,2,,,,,1,,,75,45
39504,note_on,,,,,4,0,1,,,,,0,,,75,45
39520,note_off,,,,,64,0,5,,,,,3,,,66,0
39548,note_off,,,,,44,0,2,,,,,1,,,75,0
39548,note_off,,,,,44,0,1,,,,,0,,,75,0
39548,note_off,,,,,188,0,4,,,,,2,,,78,0
39552,note_on,,,,,128,0,3,,,,,10,,,57,75
39552,note_on,,,,,4,0,2,,,,,1,,,75,45
39552,note_on,,,,,32,0,5,,,,,3,,,66,57
39552,note_on,,,,,4,0,4,,,,,2,,,83,57
39552,note_on,,,,,4,0,1,,,,,0,,,75,45
39552,note_on,,,,,128,0,6,,,,,4,,,57,45
39596,note_off,,,,,44,0,2,,,,,1,,,75,0
39596,note_off,,,,,44,0,1,,,,,0,,,75,0
39600,note_on,,,,,4,0,2,,,,,1,,,75,45
39600,note_on,,,,,4,0,1,,,,,0,,,75,45
39620,note_off,,,,,68,0,5,,,,,3,,,66,0
39644,note_off,,,,,44,0,1,,,,,0,,,75,0
39644,note_off,,,,,44,0,2,,,,,1,,,75,0
39648,note_on,,,,,4,0,2,,,,,1,,,75,45
39648,note_on,,,,,28,0,5,,,,,3,,,66,57
39648,note_on,,,,,4,0,1,,,,,0,,,75,45
39688,note_off,,,,,136,0,3,,,,,10,,,57,0
39688,note_off,,,,,136,0,6,,,,,4,,,57,0
39692,note_off,,,,,44,0,1,,,,,0,,,75,0
39692,note_off,,,,,44,0,2,,,,,1,,,75,0
39696,note_on,,,,,4,0,1,,,,,0,,,75,45
39696,note_on,,,,,4,0,2,,,,,1,,,75,45
39716,note_off,,,,,68,0,5,,,,,3,,,66,0
39740,note_off,,,,,44,0,1,,,,,0,,,75,0
39740,note_off,,,,,44,0,2,,,,,1,,,75,0
39740,note_off,,,,,188,0,4,,,,,2,,,83,0
39744,note_on,,,,,28,0,5,,,,,3,,,66,57
39744,note_on,,,,,4,0,1,,,,,0,,,75,45
39744,note_on,,,,,4,0,2,,,,,1,,,75,45
39744,note_on,,,,,56,0,6,,,,,4,,,57,45
39744,note_on,,,,,4,0,4,,,,,2,,,78,57
39744,note_on,,,,,56,0,3,,,,,10,,,57,75
39788,note_off,,,,,44,0,1,,,,,0,,,75,0
39788,note_off,,,,,44,0,2,,,,,1,,,75,0
39792,note_on,,,,,4,0,1,,,,,0,,,75,45
39792,note_on,,,,,4,0,2,,,,,1,,,75,45
39808,note_off,,,,,64,0,3,,,,,10,,,57,0
39808,note_off,,,,,64,0,6,,,,,4,,,57,0
39812,note_off,,,,,68,0,5,,,,,3,,,66,0
39836,note_off,,,,,44,0,2,,,,,1,,,75,0
39836,note_off,,,,,44,0,1,,,,,0,,,75,0
39840,note_on,,,,,28,0,5,,,,,3,,,66,57
39840,note_on,,,,,4,0,2,,,,,1,,,75,45
39840,note_on,,,,,4,0,1,,,,,0,,,75,45
39884,note_off,,,,,44,0,2,,,,,1,,,75,0
39884,note_off,,,,,44,0,1,,,,,0,,,75,0
39888,note_on,,,,,4,0,2,,,,,1,,,75,45
39888,note_on,,,,,4,0,1,,,,,0,,,75,45
39904,note_off,,,,,64,0,5,,,,,3,,,66,0
39932,note_off,,,,,44,0,2,,,,,1,,,75,0
39932,note_off,,,,,44,0,1,,,,,0,,,75,0
39932,note_off,,,,,188,0,4,,,,,2,,,78,0
39936,note_on,,,,,128,0,3,,,,,10,,,56,75
39936,note_on,,,,,128,0,6,,,,,4,,,56,45
39936,note_on,,,,,4,0,1,,,,,0,,,76,45
39936,note_on,,,,,4,0,2,,,,,1,,,76,45
39936,note_on,,,,,32,0,5,,,,,3,,,68,57
39980,note_off,,,,,44,0,2,,,,,1,,,76,0
39980,note_off,,,,,44,0,1,,,,,0,,,76,0
39984,note_on,,,,,4,0,1,,,,,0,,,71,45
39984,note_on,,,,,4,0,2,,,,,1,,,71,45
40004,note_off,,,,,68,0,6,,,,,4,,,56,0
40004,note_off,,,,,68,0,5,,,,,3,,,68,0
40004,note_off,,,,,68,0,3,,,,,10,,,56,0
40028,note_off,,,,,44,0,1,,,,,0,,,71,0
40028,note_off,,,,,44,0,2,,,,,1,,,71,0
40032,note_on,,,,,4,0,1,,,,,0,,,76,45
40032,note_on,,,,,28,0,3,,,,,10,,,56,75
40032,note_on,,,,,4,0,2,,,,,1,,,76,45
40032,note_on,,,,,28,0,5,,,,,3,,,68,57
40032,note_on,,,,,28,0,6,,,,,4,,,56,45
40076,note_off,,,,,44,0,1,,,,,0,,,76,0
40076,note_off,,,,,44,0,2,,,,,1,,,76,0
40080,note_on,,,,,4,0,1,,,,,0,,,71,45
40080,note_on,,,,,4,0,2,,,,,1,,,71,45
40100,note_off,,,,,68,0,5,,,,,3,,,68,0
40100,note_off,,,,,68,0,6,,,,,4,,,56,0
40100,note_off,,,,,68,0,3,,,,,10,,,56,0
40124,note_off,,,,,44,0,2,,,,,1,,,71,0
40124,note_off,,,,,44,0,1,,,,,0,,,71,0
40128,note_on,,,,,28,0,6,,,,,4,,,56,45
40128,note_on,,,,,4,0,1,,,,,0,,,76,45
40128,note_on,,,,,28,0,3,,,,,10,,,56,75
40128,note_on,,,,,4,0,2,,,,,1,,,76,45
40128,note_on,,,,,28,0,5,,,,,3,,,68,57
40128,note_on,,,,,196,0,4,,,,,2,,,83,57
40172,note_off,,,,,44,0,1,,,,,0,,,76,0
40172,note_off,,,,,44,0,2,,,,,1,,,76,0
40176,note_on,,,,,4,0,1,,,,,0,,,71,45
40176,note_on,,,,,4,0,2,,,,,1,,,71,45
40196,note_off,,,,,68,0,6,,,,,4,,,56,0
40196,note_off,,,,,68,0,3,,,,,10,,,56,0
40196,note_off,,,,,68,0,5,,,,,3,,,68,0
40220,note_off,,,,,44,0,2,,,,,1,,,71,0
40220,note_off,,,,,44,0,1,,,,,0,,,71,0
40224,note_on,,,,,4,0,2,,,,,1,,,76,45
40224,note_on,,,,,28,0,6,,,,,4,,,56,45
40224,note_on,,,,,4,0,1,,,,,0,,,76,45
40224,note_on,,,,,28,0,5,,,,,3,,,68,57
40224,note_on,,,,,28,0,3,,,,,10,,,56,75
40268,note_off,,,,,44,0,2,,,,,1,,,76,0
40268,note_off,,,,,44,0,1,,,,,0,,,76,0
40272,note_on,,,,,4,0,2,,,,,1,,,71,45
40272,note_on,,,,,4,0,1,,,,,0,,,71,45
40288,note_off,,,,,64,0,3,,,,,10,,,56,0
40288,note_off,,,,,64,0,5,,,,,3,,,68,0
40288,note_off,,,,,64,0,6,,,,,4,,,56,0
40316,note_off,,,,,188,0,4,,,,,2,,,83,0
40316,note_off,,,,,44,0,2,,,,,1,,,71,0
40316,note_off,,,,,44,0,1,,,,,0,,,71,0
40320,note_on,,,,,4,0,1,,,,,0,,,76,45
40320,note_on,,,,,4,0,2,,,,,1,,,76,45
40320,note_on,,,,,32,0,3,,,,,10,,,64,75
40320,note_on,,,,,32,0,6,,,,,4,,,64,45
40320,note_on,,,,,32,0,5,,,,,3,,,71,57
40320,note_on,,,,,4,0,4,,,,,2,,,80,57
40364,note_off,,,,,44,0,2,,,,,1,,,76,0
40364,note_off,,,,,44,0,1,,,,,0,,,76,0
40368,note_on,,,,,4,0,2,,,,,1,,,71,45
40368,note_on,,,,,4,0,1,,,,,0,,,71,45
40388,note_off,,,,,68,0,5,,,,,3,,,71,0
40388,note_off,,,,,68,0,3,,,,,10,,,64,0
40388,note_off,,,,,68,0,6,,,,,4,,,64,0
40412,note_off,,,,,44,0,2,,,,,1,,,71,0
40412,note_off,,,,,44,0,1,,,,,0,,,71,0
40416,note_on,,,,,28,0,5,,,,,3,,,71,57
40416,note_on,,,,,4,0,2,,,,,1,,,76,45
40416,note_on,,,,,28,0,6,,,,,4,,,64,45
40416,note_on,,,,,28,0,3,,,,,10,,,64,75
40416,note_on,,,,,4,0,1,,,,,0,,,76,45
40460,note_off,,,,,44,0,1,,,,,0,,,76,0
40460,note_off,,,,,44,0,2,,,,,1,,,76,0
40464,note_on,,,,,4,0,1,,,,,0,,,71,45
40464,note_on,,,,,4,0,2,,,,,1,,,71,45
40484,note_off,,,,,68,0,3,,,,,10,,,64,0
40484,note_off,,,,,68,0,5,,,,,3,,,71,0
40484,note_off,,,,,68,0,6,,,,,4,,,64,0
40508,note_off,,,,,44,0,1,,,,,0,,,71,0
40508,note_off,,,,,44,0,2,,,,,1,,,71,0
40508,note_off,,,,,188,0,4,,,,,2,,,80,0
40512,note_on,,,,,4,0,4,,,,,2,,,76,57
40512,note_on,,,,,28,0,6,,,,,4,,,64,45
40512,note_on,,,,,4,0,1,,,,,0,,,76,45
40512,note_on,,,,,4,0,2,,,,,1,,,76,45
40512,note_on,,,,,28,0,5,,,,,3,,,71,57
40512,note_on,,,,,28,0,3,,,,,10,,,64,75
40556,note_off,,,,,44,0,1,,,,,0,,,76,0
40556,note_off,,,,,44,0,2,,,,,1,,,76,0
40560,note_on,,,,,4,0,1,,,,,0,,,71,45
40560,note_on,,,,,4,0,2,,,,,1,,,71,45
40580,note_off,,,,,68,0,5,,,,,3,,,71,0
40580,note_off,,,,,68,0,6,,,,,4,,,64,0
40580,note_off,,,,,68,0,3,,,,,10,,,64,0
40604,note_off,,,,,44,0,1,,,,,0,,,71,0
40604,note_off,,,,,44,0,2,,,,,1,,,71,0
40608,note_on,,,,,4,0,2,,,,,1,,,76,45
40608,note_on,,,,,28,0,3,,,,,10,,,64,75
40608,note_on,,,,,4,0,1,,,,,0,,,76,45
40608,note_on,,,,,28,0,6,,,,,4,,,64,45
40608,note_on,,,,,28,0,5,,,,,3,,,71,57
40652,note_off,,,,,44,0,1,,,,,0,,,76,0
40652,note_off,,,,,44,0,2,,,,,1,,,76,0
40656,note_on,,,,,4,0,1,,,,,0,,,71,45
40656,note_on,,,,,4,0,2,,,,,1,,,71,45
40672,note_off,,,,,64,0,5,,,,,3,,,71,0
40672,note_off,,,,,64,0,6,,,,,4,,,64,0
40672,note_off,,,,,64,0,3,,,,,10,,,64,0
40700,note_off,,,,,188,0,4,,,,,2,,,76,0
40700,note_off,,,,,44,0,1,,,,,0,,,71,0
40700,note_off,,,,,44,0,2,,,,,1,,,71,0
40704,note_on,,,,,4,0,2,,,,,1,,,78,45
40704,note_on,,,,,32,0,6,,,,,4,,,63,45
40704,note_on,,,,,32,0,5,,,,,3,,,66,57
40704,note_on,,,,,4,0,1,,,,,0,,,78,45
40704,note_on,,,,,32,0,3,,,,,10,,,63,75
40748,note_off,,,,,44,0,2,,,,,1,,,78,0
40748,note_off,,,,,44,0,1,,,,,0,,,78,0
40752,note_on,,,,,4,0,1,,,,,0,,,71,45
40752,note_on,,,,,4,0,2,,,,,1,,,71,45
40796,note_off,,,,,92,0,5,,,,,3,,,66,0
40796,note_off,,,,,44,0,1,,,,,0,,,71,0
40796,note_off,,,,,44,0,2,,,,,1,,,71,0
40796,note_off,,,,,92,0,3,,,,,10,,,63,0
40796,note_off,,,,,92,0,6,,,,,4,,,63,0
40800,note_on,,,,,4,0,6,,,,,4,,,63,45
40800,note_on,,,,,4,0,2,,,,,1,,,78,45
40800,note_on,,,,,4,0,5,,,,,3,,,66,57
40800,note_on,,,,,4,0,3,,,,,10,,,63,75
40800,note_on,,,,,4,0,1,,,,,0,,,78,45
40844,note_off,,,,,44,0,1,,,,,0,,,78,0
40844,note_off,,,,,44,0,2,,,,,1,,,78,0
40848,note_on,,,,,4,0,1,,,,,0,,,71,45
40848,note_on,,,,,4,0,2,,,,,1,,,71,45
40892,note_off,,,,,44,0,1,,,,,0,,,71,0
40892,note_off,,,,,92,0,3,,,,,10,,,63,0
40892,note_off,,,,,44,0,2,,,,,1,,,71,0
40892,note_off,,,,,92,0,6,,,,,4,,,63,0
40892,note_off,,,,,92,0,5,,,,,3,,,66,0
40896,note_on,,,,,4,0,5,,,,,3,,,66,57
40896,note_on,,,,,4,0,1,,,,,0,,,78,45
40896,note_on,,,,,4,0,3,,,,,10,,,63,75
40896,note_on,,,,,4,0,2,,,,,1,,,78,45
40896,note_on,,,,,196,0,4,,,,,2,,,71,57
40896,note_on,,,,,4,0,6,,,,,4,,,63,45
40940,note_off,,,,,44,0,1,,,,,0,,,78,0
40940,note_off,,,,,44,0,2,,,,,1,,,78,0
40944,note_on,,,,,4,0,2,,,,,1,,,71,45
40944,note_on,,,,,4,0,1,,,,,0,,,71,45
40988,note_off,,,,,44,0,2,,,,,1,,,71,0
40988,note_off,,,,,92,0,3,,,,,10,,,63,0
40988,note_off,,,,,92,0,6,,,,,4,,,63,0
40988,note_off,,,,,92,0,5,,,,,3,,,66,0
40988,note_off,,,,,44,0,1,,,,,0,,,71,0
40992,note_on,,,,,4,0,1,,,,,0,,,78,45
40992,note_on,,,,,4,0,3,,,,,10,,,63,75
40992,note_on,,,,,4,0,5,,,,,3,,,66,57
40992,note_on,,,,,4,0,6,,,,,4,,,63,45
40992,note_on,,,,,4,0,2,,,,,1,,,78,45
41036,note_off,,,,,44,0,1,,,,,0,,,78,0
41036,note_off,,,,,44,0,2,,,,,1,,,78,0
41040,note_on,,,,,4,0,1,,,,,0,,,71,45
41040,note_on,,,,,4,0,2,,,,,1,,,71,45
41084,note_off,,,,,92,0,5,,,,,3,,,66,0
41084,note_off,,,,,188,0,4,,,,,2,,,71,0
41084,note_off,,,,,44,0,1,,,,,0,,,71,0
41084,note_off,,,,,92,0,3,,,,,10,,,63,0
41084,note_off,,,,,44,0,2,,,,,1,,,71,0
41084,note_off,,,,,92,0,6,,,,,4,,,63,0
41088,note_on,,,,,4,0,5,,,,,3,,,66,57
41088,note_on,,,,,4,0,1,,,,,0,,,78,45
41088,note_on,,,,,4,0,3,,,,,10,,,59,75
41088,note_on,,,,,4,0,6,,,,,4,,,59,45
41088,note_on,,,,,4,0,4,,,,,2,,,75,57
41088,note_on,,,,,4,0,2,,,,,1,,,78,45
41132,note_off,,,,,44,0,1,,,,,0,,,78,0
41132,note_off,,,,,44,0,2,,,,,1,,,78,0
41136,note_on,,,,,4,0,2,,,,,1,,,71,45
41136,note_on,,,,,4,0,1,,,,,0,,,71,45
41180,note_off,,,,,92,0,6,,,,,4,,,59,0
41180,note_off,,,,,92,0,3,,,,,10,,,59,0
41180,note_off,,,,,44,0,2,,,,,1,,,71,0
41180,note_off,,,,,92,0,5,,,,,3,,,66,0
41180,note_off,,,,,44,0,1,,,,,0,,,71,0
41184,note_on,,,,,4,0,2,,,,,1,,,78,45
41184,note_on,,,,,4,0,5,,,,,3,,,66,57
41184,note_on,,,,,4,0,3,,,,,10,,,59,75
41184,note_on,,,,,4,0,6,,,,,4,,,59,45
41184,note_on,,,,,4,0,1,,,,,0,,,78,45
41228,note_off,,,,,44,0,2,,,,,1,,,78,0
41228,note_off,,,,,44,0,1,,,,,0,,,78,0
41232,note_on,,,,,4,0,1,,,,,0,,,71,45
41232,note_on,,,,,4,0,2,,,,,1,,,71,45
41276,note_off,,,,,44,0,2,,,,,1,,,71,0
41276,note_off,,,,,44,0,1,,,,,0,,,71,0
41276,note_off,,,,,188,0,4,,,,,2,,,75,0
41276,note_off,,,,,92,0,3,,,,,10,,,59,0
41276,note_off,,,,,92,0,5,,,,,3,,,66,0
41276,note_off,,,,,92,0,6,,,,,4,,,59,0
41280,note_on,,,,,4,0,4,,,,,2,,,71,57
41280,note_on,,,,,4,0,1,,,,,0,,,78,45
41280,note_on,,,,,4,0,3,,,,,10,,,59,75
41280,note_on,,,,,4,0,2,,,,,1,,,78,45
41280,note_on,,,,,4,0,5,,,,,3,,,63,57
41280,note_on,,,,,4,0,6,,,,,4,,,59,45
41324,note_off,,,,,44,0,2,,,,,1,,,78,0
41324,note_off,,,,,44,0,1,,,,,0,,,78,0
41328,note_on,,,,,4,0,1,,,,,0,,,71,45
41328,note_on,,,,,4,0,2,,,,,1,,,71,45
41372,note_off,,,,,44,0,1,,,,,0,,,71,0
41372,note_off,,,,,92,0,3,,,,,10,,,59,0
41372,note_off,,,,,44,0,2,,,,,1,,,71,0
41372,note_off,,,,,92,0,6,,,,,4,,,59,0
41372,note_off,,,,,92,0,5,,,,,3,,,63,0
41376,note_on,,,,,4,0,1,,,,,0,,,78,45
41376,note_on,,,,,4,0,3,,,,,10,,,59,75
41376,note_on,,,,,4,0,2,,,,,1,,,78,45
41376,note_on,,,,,4,0,6,,,,,4,,,59,45
41376,note_on,,,,,4,0,5,,,,,3,,,63,57
41420,note_off,,,,,44,0,2,,,,,1,,,78,0
41420,note_off,,,,,44,0,1,,,,,0,,,78,0
41424,note_on,,,,,4,0,2,,,,,1,,,71,45
41424,note_on,,,,,4,0,1,,,,,0,,,71,45
41468,note_off,,,,,44,0,1,,,,,0,,,71,0
41468,note_off,,,,,188,0,4,,,,,2,,,71,0
41468,note_off,,,,,92,0,6,,,,,4,,,59,0
41468,note_off,,,,,92,0,5,,,,,3,,,63,0
41468,note_off,,,,,92,0,3,,,,,10,,,59,0
41468,note_off,,,,,44,0,2,,,,,1,,,71,0
41472,note_on,,,,,4,0,3,,,,,10,,,64,75
41472,note_on,,,,,4,0,1,,,,,0,,,80,45
41472,note_on,,,,,4,0,2,,,,,1,,,80,45
41472,note_on,,,,,4,0,4,,,,,2,,,83,57
41472,note_on,,,,,4,0,6,,,,,4,,,64,45
41472,note_on,,,,,4,0,5,,,,,3,,,71,57
41660,note_off,,,,,188,0,1,,,,,0,,,80,0
41660,note_off,,,,,188,0,2,,,,,1,,,80,0
41664,note_on,,,,,4,0,1,,,,,0,,,76,45
41664,note_on,,,,,4,0,2,,,,,1,,,76,45
41792,note_off,,,,,320,0,6,,,,,4,,,64,0
41792,note_off,,,,,320,0,4,,,,,2,,,83,0
41792,note_off,,,,,320,0,5,,,,,3,,,71,0
41792,note_off,,,,,320,0,3,,,,,10,,,64,0
41852,note_off,,,,,188,0,1,,,,,0,,,76,0
41852,note_off,,,,,188,0,2,,,,,1,,,76,0
41856,note_on,,,,,4,0,1,,,,,0,,,76,45
41880,note_on,,,,,0,0,1,,,,,0,,,78,45
41880,note_off,,,,,24,0,1,,,,,0,,,76,0
41904,note_on,,,,,0,0,1,,,,,0,,,80,45
41904,note_off,,,,,24,0,1,,,,,0,,,78,0
41928,note_off,,,,,24,0,1,,,,,0,,,80,0
41928,note_on,,,,,0,0,1,,,,,0,,,81,45
41952,note_off,,,,,24,0,1,,,,,0,,,81,0
41952,note_on,,,,,0,0,1,,,,,0,,,83,45
42048,note_on,,,,,256,0,3,,,,,10,,,56,75
42236,note_off,,,,,188,0,3,,,,,10,,,56,0
42240,note_on,,,,,4,0,3,,,,,10,,,61,75
42428,note_off,,,,,476,0,1,,,,,0,,,83,0
42432,note_on,,,,,4,0,1,,,,,0,,,76,45
42620,note_off,,,,,188,0,1,,,,,0,,,76,0
42624,note_on,,,,,4,0,1,,,,,0,,,78,45
42648,note_off,,,,,24,0,1,,,,,0,,,78,0
42648,note_on,,,,,0,0,1,,,,,0,,,80,45
42672,note_on,,,,,0,0,1,,,,,0,,,81,45
42672,note_off,,,,,24,0,1,,,,,0,,,80,0
42752,note_off,,,,,512,0,3,,,,,10,,,61,0
42816,note_on,,,,,64,0,3,,,,,10,,,54,75
43004,note_off,,,,,188,0,3,,,,,10,,,54,0
43008,note_on,,,,,4,0,3,,,,,10,,,63,75
43196,note_off,,,,,524,0,1,,,,,0,,,81,0
43196,note_off,,,,,188,0,3,,,,,10,,,63,0
43200,note_on,,,,,4,0,3,,,,,10,,,59,75
43200,note_on,,,,,4,0,1,,,,,0,,,83,45
43388,note_off,,,,,188,0,3,,,,,10,,,59,0
43392,note_on,,,,,4,0,3,,,,,10,,,61,75
43392,note_off,,,,,192,0,1,,,,,0,,,83,0
43392,note_on,,,,,0,0,1,,,,,0,,,80,45
43580,note_off,,,,,188,0,3,,,,,10,,,61,0
43584,note_on,,,,,4,0,3,,,,,10,,,57,75
43584,note_off,,,,,192,0,1,,,,,0,,,80,0
43584,note_on,,,,,0,0,1,,,,,0,,,78,45
43772,note_off,,,,,188,0,1,,,,,0,,,78,0
43772,note_off,,,,,188,0,3,,,,,10,,,57,0
43776,note_on,,,,,4,0,3,,,,,10,,,59,75
43776,note_on,,,,,4,0,1,,,,,0,,,80,45
43800,note_on,,,,,0,0,1,,,,,0,,,78,45
43800,note_off,,,,,24,0,1,,,,,0,,,80,0
43824,note_on,,,,,0,0,1,,,,,0,,,80,45
43824,note_off,,,,,24,0,1,,,,,0,,,78,0
43848,note_off,,,,,24,0,1,,,,,0,,,80,0
43848,note_on,,,,,0,0,1,,,,,0,,,78,45
43872,note_off,,,,,24,0,1,,,,,0,,,78,0
43872,note_on,,,,,0,0,1,,,,,0,,,80,45
43896,note_off,,,,,24,0,1,,,,,0,,,80,0
43896,note_on,,,,,0,0,1,,,,,0,,,78,45
43920,note_off,,,,,24,0,1,,,,,0,,,78,0
43920,note_on,,,,,0,0,1,,,,,0,,,80,45
43944,note_on,,,,,0,0,1,,,,,0,,,78,45
43944,note_off,,,,,24,0,1,,,,,0,,,80,0
43968,note_on,,,,,0,0,1,,,,,0,,,80,45
43968,note_off,,,,,24,0,1,,,,,0,,,78,0
43992,note_off,,,,,24,0,1,,,,,0,,,80,0
43992,note_on,,,,,0,0,1,,,,,0,,,78,45
44016,note_off,,,,,24,0,1,,,,,0,,,78,0
44016,note_on,,,,,0,0,1,,,,,0,,,80,45
44040,note_off,,,,,24,0,1,,,,,0,,,80,0
44040,note_on,,,,,0,0,1,,,,,0,,,78,45
44064,note_off,,,,,24,0,1,,,,,0,,,78,0
44064,note_on,,,,,0,0,1,,,,,0,,,80,45
44088,note_on,,,,,0,0,1,,,,,0,,,78,45
44088,note_off,,,,,24,0,1,,,,,0,,,80,0
44112,note_off,,,,,24,0,1,,,,,0,,,78,0
44112,note_on,,,,,0,0,1,,,,,0,,,80,45
44136,note_off,,,,,24,0,1,,,,,0,,,80,0
44136,note_on,,,,,0,0,1,,,,,0,,,78,45
44160,note_off,,,,,24,0,1,,,,,0,,,78,0
44160,note_on,,,,,0,0,1,,,,,0,,,80,45
44184,note_off,,,,,24,0,1,,,,,0,,,80,0
44184,note_on,,,,,0,0,1,,,,,0,,,78,45
44348,note_off,,,,,164,0,1,,,,,0,,,78,0
44352,note_on,,,,,4,0,1,,,,,0,,,76,45
44540,note_off,,,,,188,0,1,,,,,0,,,76,0
44544,note_on,,,,,8128,0,7,,,,,5,,,52,127
44544,note_on,,,,,4,0,1,,,,,0,,,76,92
44544,note_on,,,,,2752,0,4,,,,,2,,,76,117
44544,note_off,,,,,768,0,3,,,,,10,,,59,0
44544,note_on,,,,,0,0,3,,,,,10,,,52,127
44544,note_on,,,,,8128,0,10,,,,,8,,,52,84
44544,note_on,,,,,8128,0,8,,,,,6,,,40,106
44640,note_on,,,,,2788,0,2,,,,,1,,,71,92
44640,note_on,,,,,2848,0,5,,,,,3,,,71,117
44640,note_on,,,,,2848,0,6,,,,,4,,,68,92
44732,note_off,,,,,92,0,2,,,,,1,,,71,0
44732,note_off,,,,,92,0,6,,,,,4,,,68,0
44732,note_off,,,,,188,0,4,,,,,2,,,76,0
44732,note_off,,,,,92,0,5,,,,,3,,,71,0
44732,note_off,,,,,188,0,1,,,,,0,,,76,0
44736,note_on,,,,,4,0,1,,,,,0,,,64,92
44736,note_on,,,,,4,0,6,,,,,4,,,68,92
44736,note_on,,,,,4,0,5,,,,,3,,,71,117
44736,note_on,,,,,4,0,4,,,,,2,,,64,117
44736,note_on,,,,,4,0,2,,,,,1,,,71,92
44828,note_off,,,,,92,0,5,,,,,3,,,71,0
44828,note_off,,,,,92,0,6,,,,,4,,,68,0
44828,note_off,,,,,92,0,2,,,,,1,,,71,0
44832,note_on,,,,,4,0,6,,,,,4,,,68,92
44832,note_on,,,,,4,0,2,,,,,1,,,71,92
44832,note_on,,,,,4,0,5,,,,,3,,,71,117
44864,note_off,,,,,320,0,10,,,,,8,,,52,0
44864,note_off,,,,,320,0,8,,,,,6,,,40,0
44864,note_off,,,,,320,0,7,,,,,5,,,52,0
44864,note_off,,,,,320,0,3,,,,,10,,,52,0
44924,note_off,,,,,188,0,1,,,,,0,,,64,0
44924,note_off,,,,,92,0,6,,,,,4,,,68,0
44924,note_off,,,,,188,0,4,,,,,2,,,64,0
44924,note_off,,,,,92,0,5,,,,,3,,,71,0
44924,note_off,,,,,92,0,2,,,,,1,,,71,0
44928,note_on,,,,,4,0,5,,,,,3,,,68,117
44928,note_on,,,,,4,0,6,,,,,4,,,63,92
44928,note_on,,,,,64,0,8,,,,,6,,,47,77
44928,note_on,,,,,64,0,3,,,,,10,,,59,127
44928,note_on,,,,,64,0,10,,,,,8,,,59,60
44928,note_on,,,,,4,0,2,,,,,1,,,68,92
44928,note_on,,,,,64,0,7,,,,,5,,,59,92
45024,note_on,,,,,100,0,1,,,,,0,,,80,92
45024,note_on,,,,,100,0,4,,,,,2,,,80,117
45116,note_off,,,,,188,0,6,,,,,4,,,63,0
45116,note_off,,,,,92,0,1,,,,,0,,,80,0
45116,note_off,,,,,188,0,5,,,,,3,,,68,0
45116,note_off,,,,,188,0,2,,,,,1,,,68,0
45116,note_off,,,,,92,0,4,,,,,2,,,80,0
45120,note_on,,,,,4,0,5,,,,,3,,,63,117
45120,note_on,,,,,4,0,1,,,,,0,,,83,92
45120,note_on,,,,,4,0,2,,,,,1,,,63,92
45120,note_on,,,,,4,0,6,,,,,4,,,59,92
45120,note_on,,,,,4,0,4,,,,,2,,,83,117
45248,note_off,,,,,320,0,3,,,,,10,,,59,0
45248,note_off,,,,,320,0,8,,,,,6,,,47,0
45248,note_off,,,,,320,0,10,,,,,8,,,59,0
45248,note_off,,,,,320,0,7,,,,,5,,,59,0
45260,note_off,,,,,140,0,4,,,,,2,,,83,0
45260,note_off,,,,,140,0,1,,,,,0,,,83,0
45264,note_on,,,,,4,0,1,,,,,0,,,80,92
45264,note_on,,,,,4,0,4,,,,,2,,,80,117
45308,note_off,,,,,188,0,5,,,,,3,,,63,0
45308,note_off,,,,,188,0,6,,,,,4,,,59,0
45308,note_off,,,,,44,0,4,,,,,2,,,80,0
45308,note_off,,,,,188,0,2,,,,,1,,,63,0
45308,note_off,,,,,44,0,1,,,,,0,,,80,0
45312,note_on,,,,,4,0,1,,,,,0,,,76,92
45312,note_on,,,,,4,0,4,,,,,2,,,76,117
45312,note_on,,,,,64,0,3,,,,,10,,,61,127
45312,note_on,,,,,64,0,7,,,,,5,,,61,92
45312,note_on,,,,,64,0,8,,,,,6,,,49,77
45312,note_on,,,,,64,0,10,,,,,8,,,61,60
45408,note_on,,,,,100,0,2,,,,,1,,,64,92
45408,note_on,,,,,100,0,6,,,,,4,,,68,92
45408,note_on,,,,,100,0,5,,,,,3,,,64,117
45500,note_off,,,,,92,0,2,,,,,1,,,64,0
45500,note_off,,,,,92,0,5,,,,,3,,,64,0
45500,note_off,,,,,188,0,1,,,,,0,,,76,0
45500,note_off,,,,,188,0,4,,,,,2,,,76,0
45500,note_off,,,,,92,0,6,,,,,4,,,68,0
45504,note_on,,,,,4,0,1,,,,,0,,,64,92
45504,note_on,,,,,4,0,2,,,,,1,,,68,92
45504,note_on,,,,,4,0,6,,,,,4,,,73,92
45504,note_on,,,,,4,0,4,,,,,2,,,64,117
45504,note_on,,,,,4,0,5,,,,,3,,,68,117
45596,note_off,,,,,92,0,6,,,,,4,,,73,0
45596,note_off,,,,,92,0,2,,,,,1,,,68,0
45596,note_off,,,,,92,0,5,,,,,3,,,68,0
45600,note_on,,,,,4,0,2,,,,,1,,,64,92
45600,note_on,,,,,4,0,6,,,,,4,,,68,92
45600,note_on,,,,,4,0,5,,,,,3,,,64,117
45632,note_off,,,,,320,0,7,,,,,5,,,61,0
45632,note_off,,,,,320,0,10,,,,,8,,,61,0
45632,note_off,,,,,320,0,8,,,,,6,,,49,0
45632,note_off,,,,,320,0,3,,,,,10,,,61,0
45692,note_off,,,,,188,0,1,,,,,0,,,64,0
45692,note_off,,,,,92,0,2,,,,,1,,,64,0
45692,note_off,,,,,92,0,6,,,,,4,,,68,0
45692,note_off,,,,,92,0,5,,,,,3,,,64,0
45692,note_off,,,,,188,0,4,,,,,2,,,64,0
45696,note_on,,,,,4,0,2,,,,,1,,,71,92
45696,note_on,,,,,4,0,6,,,,,4,,,64,92
45696,note_on,,,,,64,0,7,,,,,5,,,56,92
45696,note_on,,,,,64,0,10,,,,,8,,,56,60
45696,note_on,,,,,64,0,8,,,,,6,,,44,77
45696,note_on,,,,,64,0,3,,,,,10,,,56,127
45696,note_on,,,,,4,0,5,,,,,3,,,71,117
45792,note_on,,,,,100,0,4,,,,,2,,,76,117
45792,note_on,,,,,100,0,1,,,,,0,,,76,92
45884,note_off,,,,,92,0,4,,,,,2,,,76,0
45884,note_off,,,,,188,0,6,,,,,4,,,64,0
45884,note_off,,,,,188,0,5,,,,,3,,,71,0
45884,note_off,,,,,188,0,2,,,,,1,,,71,0
45884,note_off,,,,,92,0,1,,,,,0,,,76,0
45888,note_on,,,,,4,0,1,,,,,0,,,80,92
45888,note_on,,,,,4,0,2,,,,,1,,,59,92
45888,note_on,,,,,4,0,5,,,,,3,,,59,117
45888,note_on,,,,,4,0,4,,,,,2,,,80,117
45888,note_on,,,,,4,0,6,,,,,4,,,76,92
46016,note_off,,,,,320,0,3,,,,,10,,,56,0
46016,note_off,,,,,320,0,10,,,,,8,,,56,0
46016,note_off,,,,,320,0,8,,,,,6,,,44,0
46016,note_off,,,,,320,0,7,,,,,5,,,56,0
46028,note_off,,,,,140,0,1,,,,,0,,,80,0
46028,note_off,,,,,140,0,4,,,,,2,,,80,0
46032,note_on,,,,,4,0,1,,,,,0,,,83,92
46032,note_on,,,,,4,0,4,,,,,2,,,83,117
46076,note_off,,,,,188,0,2,,,,,1,,,59,0
46076,note_off,,,,,44,0,4,,,,,2,,,83,0
46076,note_off,,,,,188,0,5,,,,,3,,,59,0
46076,note_off,,,,,188,0,6,,,,,4,,,76,0
46076,note_off,,,,,44,0,1,,,,,0,,,83,0
46080,note_on,,,,,64,0,7,,,,,5,,,57,92
46080,note_on,,,,,64,0,8,,,,,6,,,45,77
46080,note_on,,,,,64,0,10,,,,,8,,,57,60
46080,note_on,,,,,64,0,3,,,,,10,,,57,92
46080,note_on,,,,,4,0,1,,,,,0,,,85,92
46080,note_on,,,,,4,0,4,,,,,2,,,85,117
46176,note_on,,,,,100,0,2,,,,,1,,,64,92
46176,note_on,,,,,100,0,6,,,,,4,,,57,92
46176,note_on,,,,,100,0,5,,,,,3,,,64,117
46268,note_off,,,,,92,0,5,,,,,3,,,64,0
46268,note_off,,,,,92,0,6,,,,,4,,,57,0
46268,note_off,,,,,188,0,1,,,,,0,,,85,0
46268,note_off,,,,,92,0,2,,,,,1,,,64,0
46268,note_off,,,,,188,0,4,,,,,2,,,85,0
46272,note_on,,,,,4,0,5,,,,,3,,,69,117
46272,note_on,,,,,4,0,6,,,,,4,,,64,92
46272,note_on,,,,,4,0,1,,,,,0,,,73,92
46272,note_on,,,,,4,0,2,,,,,1,,,69,92
46272,note_on,,,,,4,0,4,,,,,2,,,73,117
46364,note_off,,,,,92,0,5,,,,,3,,,69,0
46364,note_off,,,,,92,0,6,,,,,4,,,64,0
46364,note_off,,,,,92,0,2,,,,,1,,,69,0
46368,note_on,,,,,4,0,2,,,,,1,,,64,92
46368,note_on,,,,,4,0,6,,,,,4,,,57,92
46368,note_on,,,,,4,0,5,,,,,3,,,64,117
46400,note_off,,,,,320,0,8,,,,,6,,,45,0
46400,note_off,,,,,320,0,7,,,,,5,,,57,0
46400,note_off,,,,,320,0,3,,,,,10,,,57,0
46400,note_off,,,,,320,0,10,,,,,8,,,57,0
46460,note_off,,,,,92,0,6,,,,,4,,,57,0
46460,note_off,,,,,92,0,5,,,,,3,,,64,0
46460,note_off,,,,,188,0,1,,,,,0,,,73,0
46460,note_off,,,,,92,0,2,,,,,1,,,64,0
46460,note_off,,,,,188,0,4,,,,,2,,,73,0
46464,note_on,,,,,4,0,2,,,,,1,,,66,92
46464,note_on,,,,,64,0,7,,,,,5,,,54,92
46464,note_on,,,,,4,0,6,,,,,4,,,69,92
46464,note_on,,,,,4,0,1,,,,,0,,,75,92
46464,note_on,,,,,4,0,4,,,,,2,,,75,117
46464,note_on,,,,,64,0,8,,,,,6,,,42,77
46464,note_on,,,,,64,0,3,,,,,10,,,54,92
46464,note_on,,,,,4,0,5,,,,,3,,,66,117
46464,note_on,,,,,64,0,10,,,,,8,,,54,60
46652,note_off,,,,,188,0,4,,,,,2,,,75,0
46652,note_off,,,,,188,0,3,,,,,10,,,54,0
46652,note_off,,,,,188,0,8,,,,,6,,,42,0
46652,note_off,,,,,188,0,2,,,,,1,,,66,0
46652,note_off,,,,,188,0,10,,,,,8,,,54,0
46652,note_off,,,,,188,0,6,,,,,4,,,69,0
46652,note_off,,,,,188,0,7,,,,,5,,,54,0
46652,note_off,,,,,188,0,5,,,,,3,,,66,0
46652,note_off,,,,,188,0,1,,,,,0,,,75,0
46656,note_on,,,,,4,0,2,,,,,1,,,68,92
46656,note_on,,,,,4,0,1,,,,,0,,,76,92
46656,note_on,,,,,4,0,3,,,,,10,,,52,92
46656,note_on,,,,,4,0,6,,,,,4,,,71,92
46656,note_on,,,,,4,0,8,,,,,6,,,40,77
46656,note_on,,,,,4,0,4,,,,,2,,,76,117
46656,note_on,,,,,4,0,5,,,,,3,,,68,117
46656,note_on,,,,,4,0,7,,,,,5,,,52,92
46656,note_on,,,,,4,0,10,,,,,8,,,52,60
46752,note_off,,,,,96,0,4,,,,,2,,,76,0
46752,note_on,,,,,0,0,4,,,,,2,,,78,117
46752,note_off,,,,,96,0,1,,,,,0,,,76,0
46752,note_on,,,,,0,0,1,,,,,0,,,78,92
46800,note_off,,,,,48,0,1,,,,,0,,,78,0
46800,note_on,,,,,0,0,1,,,,,0,,,80,92
46800,note_on,,,,,0,0,4,,,,,2,,,80,117
46800,note_off,,,,,48,0,4,,,,,2,,,78,0
46844,note_off,,,,,188,0,5,,,,,3,,,68,0
46844,note_off,,,,,44,0,4,,,,,2,,,80,0
46844,note_off,,,,,188,0,6,,,,,4,,,71,0
46844,note_off,,,,,188,0,2,,,,,1,,,68,0
46844,note_off,,,,,44,0,1,,,,,0,,,80,0
46844,note_off,,,,,188,0,7,,,,,5,,,52,0
46844,note_off,,,,,188,0,8,,,,,6,,,40,0
46844,note_off,,,,,188,0,3,,,,,10,,,52,0
46844,note_off,,,,,188,0,10,,,,,8,,,52,0
46848,note_on,,,,,4,0,7,,,,,5,,,59,92
46848,note_on,,,,,4,0,6,,,,,4,,,71,92
46848,note_on,,,,,4,0,8,,,,,6,,,47,77
46848,note_on,,,,,4,0,4,,,,,2,,,78,117
46848,note_on,,,,,4,0,1,,,,,0,,,78,92
46848,note_on,,,,,4,0,2,,,,,1,,,63,92
46848,note_on,,,,,4,0,3,,,,,10,,,59,92
46848,note_on,,,,,4,0,5,,,,,3,,,63,117
46848,note_on,,,,,4,0,10,,,,,8,,,59,60
46988,note_off,,,,,140,0,10,,,,,8,,,59,0
46988,note_off,,,,,140,0,8,,,,,6,,,47,0
46988,note_off,,,,,140,0,7,,,,,5,,,59,0
46988,note_off,,,,,140,0,3,,,,,10,,,59,0
46992,note_on,,,,,4,0,3,,,,,10,,,51,92
46992,note_on,,,,,4,0,8,,,,,6,,,39,77
46992,note_on,,,,,4,0,7,,,,,5,,,51,92
46992,note_on,,,,,4,0,10,,,,,8,,,51,60
47036,note_off,,,,,44,0,8,,,,,6,,,39,0
47036,note_off,,,,,44,0,10,,,,,8,,,51,0
47036,note_off,,,,,44,0,7,,,,,5,,,51,0
47036,note_off,,,,,44,0,3,,,,,10,,,51,0
47040,note_on,,,,,4,0,3,,,,,10,,,54,92
47040,note_on,,,,,4,0,10,,,,,8,,,54,60
47040,note_on,,,,,4,0,7,,,,,5,,,54,92
47040,note_on,,,,,4,0,8,,,,,6,,,42,77
47168,note_off,,,,,320,0,4,,,,,2,,,78,0
47168,note_off,,,,,320,0,5,,,,,3,,,63,0
47168,note_off,,,,,320,0,1,,,,,0,,,78,0
47168,note_off,,,,,320,0,6,,,,,4,,,71,0
47168,note_off,,,,,320,0,2,,,,,1,,,63,0
47180,note_off,,,,,140,0,7,,,,,5,,,54,0
47180,note_off,,,,,140,0,3,,,,,10,,,54,0
47180,note_off,,,,,140,0,10,,,,,8,,,54,0
47180,note_off,,,,,140,0,8,,,,,6,,,42,0
47184,note_on,,,,,4,0,8,,,,,6,,,39,77
47184,note_on,,,,,4,0,7,,,,,5,,,51,92
47184,note_on,,,,,4,0,10,,,,,8,,,51,60
47184,note_on,,,,,4,0,3,,,,,10,,,51,92
47228,note_off,,,,,44,0,7,,,,,5,,,51,0
47228,note_off,,,,,44,0,10,,,,,8,,,51,0
47228,note_off,,,,,44,0,3,,,,,10,,,51,0
47228,note_off,,,,,44,0,8,,,,,6,,,39,0
47232,note_on,,,,,4,0,7,,,,,5,,,47,92
47232,note_on,,,,,4,0,3,,,,,10,,,47,92
47232,note_on,,,,,4,0,10,,,,,8,,,47,60
47232,note_on,,,,,4,0,8,,,,,6,,,35,77
47424,note_on,,,,,256,0,1,,,,,0,,,78,92
47424,note_on,,,,,256,0,4,,,,,2,,,78,117
47552,note_off,,,,,320,0,10,,,,,8,,,47,0
47552,note_off,,,,,320,0,3,,,,,10,,,47,0
47552,note_off,,,,,320,0,7,,,,,5,,,47,0
47552,note_off,,,,,320,0,8,,,,,6,,,35,0
47612,note_off,,,,,188,0,1,,,,,0,,,78,0
47612,note_off,,,,,188,0,4,,,,,2,,,78,0
47616,note_on,,,,,4,0,1,,,,,0,,,79,92
47616,note_on,,,,,4,0,4,,,,,2,,,79,117
47804,note_off,,,,,188,0,1,,,,,0,,,79,0
47804,note_off,,,,,188,0,4,,,,,2,,,79,0
47808,note_on,,,,,640,0,2,,,,,1,,,71,92
47808,note_on,,,,,640,0,5,,,,,3,,,71,117
47808,note_on,,,,,4,0,4,,,,,2,,,79,117
47808,note_on,,,,,4,0,1,,,,,0,,,79,92
47996,note_off,,,,,188,0,5,,,,,3,,,71,0
47996,note_off,,,,,188,0,1,,,,,0,,,79,0
47996,note_off,,,,,188,0,4,,,,,2,,,79,0
47996,note_off,,,,,188,0,2,,,,,1,,,71,0
48000,note_on,,,,,4,0,2,,,,,1,,,74,92
48000,note_on,,,,,4,0,1,,,,,0,,,80,92
48000,note_on,,,,,4,0,5,,,,,3,,,74,117
48000,note_on,,,,,4,0,4,,,,,2,,,80,117
48092,note_off,,,,,92,0,1,,,,,0,,,80,0
48092,note_off,,,,,92,0,4,,,,,2,,,80,0
48096,note_on,,,,,4,0,1,,,,,0,,,80,92
48096,note_on,,,,,4,0,4,,,,,2,,,80,117
48188,note_off,,,,,92,0,4,,,,,2,,,80,0
48188,note_off,,,,,188,0,2,,,,,1,,,74,0
48188,note_off,,,,,188,0,5,,,,,3,,,74,0
48188,note_off,,,,,92,0,1,,,,,0,,,80,0
48192,note_on,,,,,4,0,5,,,,,3,,,71,117
48192,note_on,,,,,4,0,4,,,,,2,,,80,117
48192,note_on,,,,,4,0,2,,,,,1,,,71,92
48192,note_on,,,,,4,0,1,,,,,0,,,80,92
48284,note_off,,,,,92,0,4,,,,,2,,,80,0
48284,note_off,,,,,92,0,1,,,,,0,,,80,0
48288,note_on,,,,,4,0,4,,,,,2,,,80,117
48288,note_on,,,,,4,0,1,,,,,0,,,80,92
48380,note_off,,,,,92,0,1,,,,,0,,,80,0
48380,note_off,,,,,188,0,2,,,,,1,,,71,0
48380,note_off,,,,,92,0,4,,,,,2,,,80,0
48380,note_off,,,,,188,0,5,,,,,3,,,71,0
48384,note_on,,,,,4,0,1,,,,,0,,,81,92
48384,note_on,,,,,4,0,4,,,,,2,,,81,117
48476,note_off,,,,,92,0,1,,,,,0,,,81,0
48476,note_off,,,,,92,0,4,,,,,2,,,81,0
48480,note_on,,,,,4,0,4,,,,,2,,,76,117
48480,note_on,,,,,4,0,1,,,,,0,,,76,92
48572,note_off,,,,,92,0,4,,,,,2,,,76,0
48572,note_off,,,,,92,0,1,,,,,0,,,76,0
48576,note_on,,,,,1408,0,6,,,,,4,,,61,92
48576,note_on,,,,,1024,0,3,,,,,10,,,61,92
48576,note_on,,,,,4,0,4,,,,,2,,,81,117
48576,note_on,,,,,4,0,1,,,,,0,,,81,92
48668,note_off,,,,,92,0,4,,,,,2,,,81,0
48668,note_off,,,,,92,0,1,,,,,0,,,81,0
48672,note_on,,,,,4,0,4,,,,,2,,,76,117
48672,note_on,,,,,4,0,1,,,,,0,,,76,92
48764,note_off,,,,,92,0,4,,,,,2,,,76,0
48764,note_off,,,,,92,0,1,,,,,0,,,76,0
48764,note_off,,,,,188,0,3,,,,,10,,,61,0
48764,note_off,,,,,188,0,6,,,,,4,,,61,0
48768,note_on,,,,,4,0,6,,,,,4,,,64,92
48768,note_on,,,,,4,0,4,,,,,2,,,82,117
48768,note_on,,,,,4,0,3,,,,,10,,,64,92
48768,note_on,,,,,4,0,1,,,,,0,,,82,92
48812,note_off,,,,,44,0,1,,,,,0,,,82,0
48812,note_off,,,,,44,0,4,,,,,2,,,82,0
48816,note_on,,,,,4,0,1,,,,,0,,,82,92
48816,note_on,,,,,4,0,4,,,,,2,,,82,117
48860,note_off,,,,,44,0,1,,,,,0,,,82,0
48860,note_off,,,,,44,0,4,,,,,2,,,82,0
48864,note_on,,,,,4,0,1,,,,,0,,,82,92
48864,note_on,,,,,484,0,2,,,,,1,,,73,92
48864,note_on,,,,,484,0,5,,,,,3,,,73,117
48864,note_on,,,,,4,0,4,,,,,2,,,82,117
48908,note_off,,,,,44,0,4,,,,,2,,,82,0
48908,note_off,,,,,44,0,1,,,,,0,,,82,0
48912,note_on,,,,,4,0,4,,,,,2,,,82,117
48912,note_on,,,,,4,0,1,,,,,0,,,82,92
48956,note_off,,,,,92,0,5,,,,,3,,,73,0
48956,note_off,,,,,188,0,6,,,,,4,,,64,0
48956,note_off,,,,,44,0,4,,,,,2,,,82,0
48956,note_off,,,,,44,0,1,,,,,0,,,82,0
48956,note_off,,,,,188,0,3,,,,,10,,,64,0
48956,note_off,,,,,92,0,2,,,,,1,,,73,0
48960,note_on,,,,,4,0,3,,,,,10,,,61,92
48960,note_on,,,,,1408,0,10,,,,,8,,,61,60
48960,note_on,,,,,4,0,6,,,,,4,,,61,92
48960,note_on,,,,,1408,0,8,,,,,6,,,49,77
48960,note_on,,,,,4,0,1,,,,,0,,,82,92
48960,note_on,,,,,4,0,4,,,,,2,,,82,117
48960,note_on,,,,,4,0,2,,,,,1,,,76,92
48960,note_on,,,,,4,0,5,,,,,3,,,76,117
48960,note_on,,,,,1408,0,7,,,,,5,,,61,92
49004,note_off,,,,,44,0,4,,,,,2,,,82,0
49004,note_off,,,,,44,0,1,,,,,0,,,82,0
49008,note_on,,,,,4,0,1,,,,,0,,,82,92
49008,note_on,,,,,4,0,4,,,,,2,,,82,117
49052,note_off,,,,,44,0,1,,,,,0,,,82,0
49052,note_off,,,,,44,0,4,,,,,2,,,82,0
49056,note_on,,,,,4,0,4,,,,,2,,,82,117
49056,note_on,,,,,4,0,1,,,,,0,,,82,92
49100,note_off,,,,,140,0,5,,,,,3,,,76,0
49100,note_off,,,,,140,0,2,,,,,1,,,76,0
49100,note_off,,,,,44,0,1,,,,,0,,,82,0
49100,note_off,,,,,44,0,4,,,,,2,,,82,0
49104,note_on,,,,,4,0,1,,,,,0,,,82,92
49104,note_on,,,,,4,0,5,,,,,3,,,73,117
49104,note_on,,,,,4,0,2,,,,,1,,,73,92
49104,note_on,,,,,4,0,4,,,,,2,,,82,117
49148,note_off,,,,,44,0,5,,,,,3,,,73,0
49148,note_off,,,,,188,0,8,,,,,6,,,49,0
49148,note_off,,,,,44,0,2,,,,,1,,,73,0
49148,note_off,,,,,44,0,1,,,,,0,,,82,0
49148,note_off,,,,,188,0,3,,,,,10,,,61,0
49148,note_off,,,,,44,0,4,,,,,2,,,82,0
49148,note_off,,,,,188,0,6,,,,,4,,,61,0
49148,note_off,,,,,188,0,10,,,,,8,,,61,0
49148,note_off,,,,,188,0,7,,,,,5,,,61,0
49152,note_on,,,,,4,0,3,,,,,10,,,63,92
49152,note_on,,,,,4,0,4,,,,,2,,,83,117
49152,note_on,,,,,4,0,2,,,,,1,,,78,92
49152,note_on,,,,,4,0,5,,,,,3,,,78,117
49152,note_on,,,,,4,0,10,,,,,8,,,63,60
49152,note_on,,,,,4,0,6,,,,,4,,,71,92
49152,note_on,,,,,4,0,8,,,,,6,,,51,77
49152,note_on,,,,,4,0,1,,,,,0,,,83,92
49152,note_on,,,,,4,0,7,,,,,5,,,63,92
49292,note_off,,,,,140,0,7,,,,,5,,,63,0
49292,note_off,,,,,140,0,4,,,,,2,,,83,0
49292,note_off,,,,,140,0,8,,,,,6,,,51,0
49292,note_off,,,,,140,0,1,,,,,0,,,83,0
49292,note_off,,,,,140,0,5,,,,,3,,,78,0
49292,note_off,,,,,140,0,2,,,,,1,,,78,0
49292,note_off,,,,,140,0,10,,,,,8,,,63,0
49292,note_off,,,,,140,0,3,,,,,10,,,63,0
49296,note_on,,,,,4,0,2,,,,,1,,,75,92
49296,note_on,,,,,4,0,4,,,,,2,,,78,117
49296,note_on,,,,,4,0,3,,,,,10,,,59,92
49296,note_on,,,,,4,0,1,,,,,0,,,78,92
49296,note_on,,,,,4,0,10,,,,,8,,,59,60
49296,note_on,,,,,4,0,7,,,,,5,,,59,92
49296,note_on,,,,,4,0,8,,,,,6,,,47,77
49296,note_on,,,,,4,0,5,,,,,3,,,75,117
49340,note_off,,,,,44,0,3,,,,,10,,,59,0
49340,note_off,,,,,44,0,10,,,,,8,,,59,0
49340,note_off,,,,,44,0,2,,,,,1,,,75,0
49340,note_off,,,,,44,0,1,,,,,0,,,78,0
49340,note_off,,,,,44,0,7,,,,,5,,,59,0
49340,note_off,,,,,44,0,5,,,,,3,,,75,0
49340,note_off,,,,,188,0,6,,,,,4,,,71,0
49340,note_off,,,,,44,0,8,,,,,6,,,47,0
49340,note_off,,,,,44,0,4,,,,,2,,,78,0
49344,note_on,,,,,4,0,1,,,,,0,,,80,92
49344,note_on,,,,,4,0,6,,,,,4,,,71,92
49344,note_on,,,,,4,0,2,,,,,1,,,76,92
49344,note_on,,,,,4,0,3,,,,,10,,,64,92
49344,note_on,,,,,4,0,7,,,,,5,,,64,92
49344,note_on,,,,,4,0,8,,,,,6,,,52,77
49344,note_on,,,,,4,0,4,,,,,2,,,80,117
49344,note_on,,,,,4,0,10,,,,,8,,,64,60
49344,note_on,,,,,4,0,5,,,,,3,,,76,117
49484,note_off,,,,,140,0,3,,,,,10,,,64,0
49484,note_off,,,,,140,0,6,,,,,4,,,71,0
49484,note_off,,,,,140,0,5,,,,,3,,,76,0
49484,note_off,,,,,140,0,4,,,,,2,,,80,0
49484,note_off,,,,,140,0,7,,,,,5,,,64,0
49484,note_off,,,,,140,0,1,,,,,0,,,80,0
49484,note_off,,,,,140,0,2,,,,,1,,,76,0
49484,note_off,,,,,140,0,8,,,,,6,,,52,0
49484,note_off,,,,,140,0,10,,,,,8,,,64,0
49488,note_on,,,,,4,0,5,,,,,3,,,73,117
49488,note_on,,,,,4,0,1,,,,,0,,,81,92
49488,note_on,,,,,4,0,6,,,,,4,,,73,92
49488,note_on,,,,,4,0,2,,,,,1,,,73,92
49488,note_on,,,,,4,0,7,,,,,5,,,57,92
49488,note_on,,,,,4,0,4,,,,,2,,,81,117
49488,note_on,,,,,4,0,3,,,,,10,,,57,92
49488,note_on,,,,,4,0,10,,,,,8,,,57,60
49488,note_on,,,,,4,0,8,,,,,6,,,45,77
49532,note_off,,,,,44,0,1,,,,,0,,,81,0
49532,note_off,,,,,44,0,6,,,,,4,,,73,0
49532,note_off,,,,,44,0,5,,,,,3,,,73,0
49532,note_off,,,,,44,0,4,,,,,2,,,81,0
49532,note_off,,,,,44,0,2,,,,,1,,,73,0
49532,note_off,,,,,44,0,8,,,,,6,,,45,0
49532,note_off,,,,,44,0,7,,,,,5,,,57,0
49532,note_off,,,,,44,0,10,,,,,8,,,57,0
49532,note_off,,,,,44,0,3,,,,,10,,,57,0
49536,note_on,,,,,4,0,8,,,,,6,,,47,77
49536,note_on,,,,,4,0,6,,,,,4,,,71,92
49536,note_on,,,,,4,0,5,,,,,3,,,66,117
49536,note_on,,,,,4,0,10,,,,,8,,,59,60
49536,note_on,,,,,4,0,7,,,,,5,,,59,92
49536,note_on,,,,,4,0,4,,,,,2,,,76,117
49536,note_on,,,,,4,0,1,,,,,0,,,76,92
49536,note_on,,,,,4,0,2,,,,,1,,,66,92
49536,note_on,,,,,4,0,3,,,,,10,,,59,92
49560,note_on,,,,,0,0,4,,,,,2,,,75,117
49560,note_off,,,,,24,0,4,,,,,2,,,76,0
49560,note_on,,,,,0,0,1,,,,,0,,,75,92
49560,note_off,,,,,24,0,1,,,,,0,,,76,0
49584,note_off,,,,,24,0,4,,,,,2,,,75,0
49584,note_on,,,,,0,0,1,,,,,0,,,76,92
49584,note_off,,,,,24,0,1,,,,,0,,,75,0
49584,note_on,,,,,0,0,4,,,,,2,,,76,117
49608,note_on,,,,,0,0,4,,,,,2,,,75,117
49608,note_off,,,,,24,0,1,,,,,0,,,76,0
49608,note_on,,,,,0,0,1,,,,,0,,,75,92
49608,note_off,,,,,24,0,4,,,,,2,,,76,0
49632,note_on,,,,,0,0,1,,,,,0,,,76,92
49632,note_off,,,,,24,0,1,,,,,0,,,75,0
49632,note_off,,,,,24,0,4,,,,,2,,,75,0
49632,note_on,,,,,0,0,4,,,,,2,,,76,117
49656,note_off,,,,,24,0,1,,,,,0,,,76,0
49656,note_on,,,,,0,0,1,,,,,0,,,75,92
49656,note_on,,,,,0,0,4,,,,,2,,,75,117
49656,note_off,,,,,24,0,4,,,,,2,,,76,0
49680,note_off,,,,,24,0,4,,,,,2,,,75,0
49680,note_off,,,,,24,0,1,,,,,0,,,75,0
49680,note_on,,,,,0,0,1,,,,,0,,,76,92
49680,note_on,,,,,0,0,4,,,,,2,,,76,117
49704,note_off,,,,,24,0,4,,,,,2,,,76,0
49704,note_on,,,,,0,0,1,,,,,0,,,75,92
49704,note_off,,,,,24,0,1,,,,,0,,,76,0
49704,note_on,,,,,0,0,4,,,,,2,,,75,117
49724,note_off,,,,,188,0,8,,,,,6,,,47,0
49724,note_off,,,,,188,0,2,,,,,1,,,66,0
49724,note_off,,,,,188,0,3,,,,,10,,,59,0
49724,note_off,,,,,188,0,6,,,,,4,,,71,0
49724,note_off,,,,,188,0,7,,,,,5,,,59,0
49724,note_off,,,,,188,0,5,,,,,3,,,66,0
49724,note_off,,,,,188,0,10,,,,,8,,,59,0
49728,note_on,,,,,4,0,3,,,,,10,,,47,92
49728,note_on,,,,,4,0,7,,,,,5,,,47,92
49728,note_on,,,,,4,0,5,,,,,3,,,71,117
49728,note_on,,,,,4,0,8,,,,,6,,,35,77
49728,note_on,,,,,4,0,2,,,,,1,,,71,92
49728,note_on,,,,,4,0,10,,,,,8,,,47,60
49728,note_on,,,,,4,0,6,,,,,4,,,71,92
49820,note_off,,,,,116,0,1,,,,,0,,,75,0
49820,note_off,,,,,116,0,4,,,,,2,,,75,0
49824,note_on,,,,,4,0,1,,,,,0,,,76,92
49824,note_on,,,,,4,0,4,,,,,2,,,76,117
49916,note_off,,,,,188,0,2,,,,,1,,,71,0
49916,note_off,,,,,188,0,7,,,,,5,,,47,0
49916,note_off,,,,,92,0,4,,,,,2,,,76,0
49916,note_off,,,,,188,0,10,,,,,8,,,47,0
49916,note_off,,,,,188,0,8,,,,,6,,,35,0
49916,note_off,,,,,188,0,3,,,,,10,,,47,0
49916,note_off,,,,,188,0,5,,,,,3,,,71,0
49916,note_off,,,,,92,0,1,,,,,0,,,76,0
49916,note_off,,,,,188,0,6,,,,,4,,,71,0
49920,note_on,,,,,4,0,5,,,,,3,,,68,117
49920,note_on,,,,,4,0,2,,,,,1,,,68,92
49920,note_on,,,,,4,0,4,,,,,2,,,76,117
49920,note_on,,,,,4,0,3,,,,,10,,,52,92
49920,note_on,,,,,4,0,8,,,,,6,,,40,77
49920,note_on,,,,,4,0,1,,,,,0,,,76,92
49920,note_on,,,,,4,0,6,,,,,4,,,59,92
49920,note_on,,,,,4,0,7,,,,,5,,,52,92
49920,note_on,,,,,4,0,10,,,,,8,,,52,60
50060,note_off,,,,,140,0,1,,,,,0,,,76,0
50060,note_off,,,,,140,0,4,,,,,2,,,76,0
50064,note_on,,,,,4,0,4,,,,,2,,,68,117
50064,note_on,,,,,4,0,1,,,,,0,,,68,92
50108,note_off,,,,,44,0,1,,,,,0,,,68,0
50108,note_off,,,,,44,0,4,,,,,2,,,68,0
50112,note_on,,,,,4,0,1,,,,,0,,,71,92
50112,note_on,,,,,4,0,4,,,,,2,,,71,117
50240,note_off,,,,,320,0,3,,,,,10,,,52,0
50240,note_off,,,,,320,0,7,,,,,5,,,52,0
50240,note_off,,,,,320,0,5,,,,,3,,,68,0
50240,note_off,,,,,320,0,6,,,,,4,,,59,0
50240,note_off,,,,,320,0,8,,,,,6,,,40,0
50240,note_off,,,,,320,0,10,,,,,8,,,52,0
50240,note_off,,,,,320,0,2,,,,,1,,,68,0
50252,note_off,,,,,140,0,4,,,,,2,,,71,0
50252,note_off,,,,,140,0,1,,,,,0,,,71,0
50256,note_on,,,,,4,0,1,,,,,0,,,68,92
50256,note_on,,,,,4,0,4,,,,,2,,,68,117
50300,note_off,,,,,44,0,4,,,,,2,,,68,0
50300,note_off,,,,,44,0,1,,,,,0,,,68,0
50304,note_on,,,,,4,0,4,,,,,2,,,64,117
50304,note_on,,,,,4,0,1,,,,,0,,,64,92
50492,note_off,,,,,188,0,1,,,,,0,,,64,0
50496,note_on,,,,,4,0,1,,,,,0,,,76,92
50624,note_off,,,,,320,0,4,,,,,2,,,64,0
50684,note_off,,,,,188,0,1,,,,,0,,,76,0
50688,note_on,,,,,4,0,1,,,,,0,,,86,92
50880,note_on,,,,,640,0,6,,,,,4,,,53,45
50880,note_on,,,,,640,0,5,,,,,3,,,71,57
50880,note_on,,,,,640,0,3,,,,,10,,,53,45
50880,note_on,,,,,640,0,2,,,,,1,,,71,45
50880,note_on,,,,,256,0,4,,,,,2,,,71,57
51068,note_off,,,,,188,0,3,,,,,10,,,53,0
51068,note_off,,,,,188,0,4,,,,,2,,,71,0
51068,note_off,,,,,188,0,2,,,,,1,,,71,0
51068,note_off,,,,,188,0,6,,,,,4,,,53,0
51068,note_off,,,,,188,0,5,,,,,3,,,71,0
51072,note_on,,,,,4,0,4,,,,,2,,,71,57
51072,note_on,,,,,4,0,5,,,,,3,,,71,57
51072,note_on,,,,,4,0,3,,,,,10,,,53,45
51072,note_on,,,,,4,0,2,,,,,1,,,71,45
51072,note_on,,,,,4,0,6,,,,,4,,,53,45
51260,note_off,,,,,188,0,4,,,,,2,,,71,0
51260,note_off,,,,,188,0,2,,,,,1,,,71,0
51260,note_off,,,,,188,0,3,,,,,10,,,53,0
51260,note_off,,,,,188,0,6,,,,,4,,,53,0
51260,note_off,,,,,188,0,5,,,,,3,,,71,0
51264,note_on,,,,,4,0,2,,,,,1,,,68,45
51264,note_on,,,,,0,0,1,,,,,0,,,85,92
51264,note_off,,,,,576,0,1,,,,,0,,,86,0
51264,note_on,,,,,4,0,4,,,,,2,,,68,57
51264,note_on,,,,,4,0,6,,,,,4,,,53,45
51264,note_on,,,,,4,0,5,,,,,3,,,68,57
51264,note_on,,,,,4,0,3,,,,,10,,,53,45
51360,note_on,,,,,0,0,1,,,,,0,,,83,92
51360,note_off,,,,,96,0,1,,,,,0,,,85,0
51452,note_off,,,,,188,0,5,,,,,3,,,68,0
51452,note_off,,,,,188,0,3,,,,,10,,,53,0
51452,note_off,,,,,188,0,6,,,,,4,,,53,0
51452,note_off,,,,,188,0,2,,,,,1,,,68,0
51452,note_off,,,,,188,0,4,,,,,2,,,68,0
51456,note_on,,,,,4,0,3,,,,,10,,,54,45
51456,note_on,,,,,4,0,6,,,,,4,,,54,45
51456,note_on,,,,,4,0,4,,,,,2,,,69,57
51456,note_on,,,,,4,0,2,,,,,1,,,69,45
51456,note_off,,,,,96,0,1,,,,,0,,,83,0
51456,note_on,,,,,0,0,1,,,,,0,,,81,92
51456,note_on,,,,,4,0,5,,,,,3,,,69,57
51552,note_off,,,,,96,0,1,,,,,0,,,81,0
51552,note_on,,,,,0,0,1,,,,,0,,,80,92
51648,note_on,,,,,0,0,1,,,,,0,,,78,92
51648,note_off,,,,,96,0,1,,,,,0,,,80,0
51776,note_off,,,,,320,0,4,,,,,2,,,69,0
51776,note_off,,,,,320,0,5,,,,,3,,,69,0
51776,note_off,,,,,320,0,2,,,,,1,,,69,0
51776,note_off,,,,,320,0,3,,,,,10,,,54,0
51776,note_off,,,,,320,0,6,,,,,4,,,54,0
51836,note_off,,,,,188,0,1,,,,,0,,,78,0
51840,note_on,,,,,4,0,1,,,,,0,,,81,92
51840,note_on,,,,,64,0,2,,,,,1,,,81,92
52224,note_on,,,,,448,0,5,,,,,3,,,75,117
52224,note_on,,,,,448,0,4,,,,,2,,,81,117
52224,note_on,,,,,1984,0,8,,,,,6,,,36,77
52224,note_on,,,,,448,0,6,,,,,4,,,66,92
52224,note_on,,,,,1984,0,7,,,,,5,,,48,92
52224,note_on,,,,,1984,0,10,,,,,8,,,48,60
52224,note_on,,,,,448,0,3,,,,,10,,,48,92
52412,note_off,,,,,188,0,5,,,,,3,,,75,0
52416,note_on,,,,,4,0,5,,,,,3,,,63,117
52544,note_off,,,,,320,0,7,,,,,5,,,48,0
52544,note_off,,,,,320,0,10,,,,,8,,,48,0
52544,note_off,,,,,704,0,2,,,,,1,,,81,0
52544,note_off,,,,,320,0,3,,,,,10,,,48,0
52544,note_off,,,,,320,0,8,,,,,6,,,36,0
52544,note_off,,,,,320,0,6,,,,,4,,,66,0
52604,note_off,,,,,188,0,5,,,,,3,,,63,0
52608,note_on,,,,,64,0,3,,,,,10,,,60,92
52608,note_off,,,,,768,0,1,,,,,0,,,81,0
52608,note_on,,,,,0,0,1,,,,,0,,,80,92
52608,note_on,,,,,0,0,4,,,,,2,,,80,117
52608,note_on,,,,,64,0,6,,,,,4,,,63,92
52608,note_off,,,,,384,0,4,,,,,2,,,81,0
52608,note_on,,,,,64,0,8,,,,,6,,,48,77
52608,note_on,,,,,64,0,2,,,,,1,,,80,92
52608,note_on,,,,,64,0,7,,,,,5,,,60,92
52608,note_on,,,,,64,0,10,,,,,8,,,60,60
52700,note_off,,,,,92,0,2,,,,,1,,,80,0
52704,note_on,,,,,100,0,5,,,,,3,,,68,117
52704,note_on,,,,,4,0,2,,,,,1,,,78,92
52704,note_on,,,,,0,0,4,,,,,2,,,78,117
52704,note_on,,,,,0,0,1,,,,,0,,,78,92
52704,note_off,,,,,96,0,4,,,,,2,,,80,0
52704,note_off,,,,,96,0,1,,,,,0,,,80,0
52796,note_off,,,,,92,0,2,,,,,1,,,78,0
52796,note_off,,,,,92,0,5,,,,,3,,,68,0
52800,note_on,,,,,4,0,2,,,,,1,,,76,92
52800,note_off,,,,,96,0,4,,,,,2,,,78,0
52800,note_off,,,,,96,0,1,,,,,0,,,78,0
52800,note_on,,,,,0,0,4,,,,,2,,,76,117
52800,note_on,,,,,4,0,5,,,,,3,,,72,117
52800,note_on,,,,,0,0,1,,,,,0,,,76,92
52892,note_off,,,,,92,0,2,,,,,1,,,76,0
52892,note_off,,,,,92,0,5,,,,,3,,,72,0
52896,note_on,,,,,0,0,1,,,,,0,,,75,92
52896,note_off,,,,,96,0,1,,,,,0,,,76,0
52896,note_off,,,,,96,0,4,,,,,2,,,76,0
52896,note_on,,,,,0,0,4,,,,,2,,,75,117
52896,note_on,,,,,4,0,2,,,,,1,,,75,92
52896,note_on,,,,,4,0,5,,,,,3,,,68,117
52928,note_off,,,,,320,0,7,,,,,5,,,60,0
52928,note_off,,,,,320,0,8,,,,,6,,,48,0
52928,note_off,,,,,320,0,3,,,,,10,,,60,0
52928,note_off,,,,,320,0,6,,,,,4,,,63,0
52928,note_off,,,,,320,0,10,,,,,8,,,60,0
52988,note_off,,,,,92,0,5,,,,,3,,,68,0
52988,note_off,,,,,92,0,2,,,,,1,,,75,0
52992,note_on,,,,,4,0,2,,,,,1,,,76,92
52992,note_on,,,,,64,0,8,,,,,6,,,49,77
52992,note_off,,,,,96,0,1,,,,,0,,,75,0
52992,note_on,,,,,0,0,1,,,,,0,,,76,92
52992,note_on,,,,,64,0,3,,,,,10,,,61,92
52992,note_on,,,,,64,0,10,,,,,8,,,61,60
52992,note_on,,,,,0,0,4,,,,,2,,,76,117
52992,note_off,,,,,96,0,4,,,,,2,,,75,0
52992,note_on,,,,,64,0,7,,,,,5,,,61,92
52992,note_on,,,,,4,0,5,,,,,3,,,76,117
53084,note_off,,,,,92,0,2,,,,,1,,,76,0
53088,note_off,,,,,96,0,4,,,,,2,,,76,0
53088,note_on,,,,,0,0,4,,,,,2,,,75,117
53088,note_on,,,,,0,0,1,,,,,0,,,75,92
53088,note_on,,,,,4,0,2,,,,,1,,,75,92
53088,note_off,,,,,96,0,1,,,,,0,,,76,0
53088,note_on,,,,,160,0,6,,,,,4,,,68,92
53180,note_off,,,,,92,0,2,,,,,1,,,75,0
53180,note_off,,,,,92,0,6,,,,,4,,,68,0
53180,note_off,,,,,188,0,5,,,,,3,,,76,0
53184,note_on,,,,,4,0,2,,,,,1,,,73,92
53184,note_on,,,,,0,0,1,,,,,0,,,73,92
53184,note_off,,,,,96,0,1,,,,,0,,,75,0
53184,note_on,,,,,4,0,5,,,,,3,,,64,117
53184,note_on,,,,,4,0,6,,,,,4,,,73,92
53184,note_on,,,,,0,0,4,,,,,2,,,73,117
53184,note_off,,,,,96,0,4,,,,,2,,,75,0
53276,note_off,,,,,92,0,6,,,,,4,,,73,0
53280,note_on,,,,,4,0,6,,,,,4,,,68,92
53312,note_off,,,,,320,0,3,,,,,10,,,61,0
53312,note_off,,,,,320,0,7,,,,,5,,,61,0
53312,note_off,,,,,320,0,8,,,,,6,,,49,0
53312,note_off,,,,,320,0,10,,,,,8,,,61,0
53372,note_off,,,,,188,0,2,,,,,1,,,73,0
53372,note_off,,,,,92,0,6,,,,,4,,,68,0
53372,note_off,,,,,188,0,4,,,,,2,,,73,0
53372,note_off,,,,,188,0,1,,,,,0,,,73,0
53372,note_off,,,,,188,0,5,,,,,3,,,64,0
53376,note_on,,,,,4,0,6,,,,,4,,,64,92
53376,note_on,,,,,4,0,1,,,,,0,,,85,92
53472,note_on,,,,,160,0,3,,,,,10,,,61,92
53472,note_on,,,,,100,0,2,,,,,1,,,76,92
53564,note_off,,,,,92,0,2,,,,,1,,,76,0
53564,note_off,,,,,188,0,6,,,,,4,,,64,0
53564,note_off,,,,,92,0,3,,,,,10,,,61,0
53568,note_on,,,,,4,0,2,,,,,1,,,80,92
53568,note_on,,,,,4,0,6,,,,,4,,,61,92
53568,note_on,,,,,4,0,3,,,,,10,,,64,92
53660,note_off,,,,,92,0,2,,,,,1,,,80,0
53660,note_off,,,,,92,0,3,,,,,10,,,64,0
53664,note_on,,,,,4,0,3,,,,,10,,,61,92
53664,note_on,,,,,4,0,2,,,,,1,,,76,92
53756,note_off,,,,,92,0,3,,,,,10,,,61,0
53756,note_off,,,,,188,0,6,,,,,4,,,61,0
53756,note_off,,,,,92,0,2,,,,,1,,,76,0
53760,note_on,,,,,4,0,2,,,,,1,,,78,92
53760,note_on,,,,,4,0,3,,,,,10,,,58,92
53852,note_off,,,,,92,0,2,,,,,1,,,78,0
53856,note_off,,,,,480,0,1,,,,,0,,,85,0
53856,note_on,,,,,0,0,1,,,,,0,,,83,92
53856,note_on,,,,,4,0,2,,,,,1,,,73,92
53948,note_off,,,,,188,0,3,,,,,10,,,58,0
53948,note_off,,,,,92,0,2,,,,,1,,,73,0
53952,note_on,,,,,0,0,1,,,,,0,,,82,92
53952,note_on,,,,,4,0,3,,,,,10,,,54,92
53952,note_on,,,,,4,0,2,,,,,1,,,78,92
53952,note_off,,,,,96,0,1,,,,,0,,,83,0
54044,note_off,,,,,92,0,2,,,,,1,,,78,0
54048,note_off,,,,,96,0,1,,,,,0,,,82,0
54048,note_on,,,,,0,0,1,,,,,0,,,80,92
54048,note_on,,,,,4,0,2,,,,,1,,,73,92
54140,note_off,,,,,188,0,3,,,,,10,,,54,0
54140,note_off,,,,,92,0,2,,,,,1,,,73,0
54144,note_off,,,,,96,0,1,,,,,0,,,80,0
54144,note_on,,,,,4,0,2,,,,,1,,,70,92
54144,note_on,,,,,0,0,1,,,,,0,,,78,92
54240,note_off,,,,,96,0,1,,,,,0,,,78,0
54240,note_on,,,,,0,0,1,,,,,0,,,76,92
54240,note_on,,,,,100,0,3,,,,,10,,,54,92
54332,note_off,,,,,188,0,2,,,,,1,,,70,0
54332,note_off,,,,,92,0,3,,,,,10,,,54,0
54336,note_on,,,,,4,0,3,,,,,10,,,58,92
54336,note_off,,,,,96,0,1,,,,,0,,,76,0
54336,note_on,,,,,4,0,2,,,,,1,,,66,92
54336,note_on,,,,,0,0,1,,,,,0,,,74,92
54428,note_off,,,,,92,0,3,,,,,10,,,58,0
54432,note_on,,,,,4,0,3,,,,,10,,,54,92
54432,note_off,,,,,96,0,1,,,,,0,,,74,0
54432,note_on,,,,,0,0,1,,,,,0,,,73,92
54524,note_off,,,,,92,0,3,,,,,10,,,54,0
54524,note_off,,,,,188,0,2,,,,,1,,,66,0
54528,note_on,,,,,4,0,3,,,,,10,,,59,92
54528,note_off,,,,,96,0,1,,,,,0,,,73,0
54528,note_on,,,,,0,0,1,,,,,0,,,74,92
54624,note_off,,,,,96,0,1,,,,,0,,,74,0
54624,note_on,,,,,100,0,2,,,,,1,,,66,92
54624,note_on,,,,,0,0,1,,,,,0,,,73,92
54716,note_off,,,,,92,0,2,,,,,1,,,66,0
54720,note_on,,,,,0,0,1,,,,,0,,,71,92
54720,note_on,,,,,4,0,2,,,,,1,,,71,92
54720,note_off,,,,,96,0,1,,,,,0,,,73,0
54812,note_off,,,,,92,0,2,,,,,1,,,71,0
54816,note_on,,,,,4,0,2,,,,,1,,,66,92
54848,note_off,,,,,320,0,3,,,,,10,,,59,0
54908,note_off,,,,,188,0,1,,,,,0,,,71,0
54908,note_off,,,,,92,0,2,,,,,1,,,66,0
54912,note_on,,,,,4,0,2,,,,,1,,,74,92
54912,note_on,,,,,4,0,1,,,,,0,,,74,92
54912,note_on,,,,,1600,0,8,,,,,6,,,47,77
54912,note_on,,,,,1600,0,7,,,,,5,,,59,92
54912,note_on,,,,,1540,0,4,,,,,2,,,74,117
54912,note_on,,,,,1600,0,10,,,,,8,,,59,60
55008,note_on,,,,,160,0,3,,,,,10,,,59,92
55008,note_on,,,,,1636,0,5,,,,,3,,,66,117
55008,note_on,,,,,1252,0,6,,,,,4,,,59,92
55100,note_off,,,,,92,0,6,,,,,4,,,59,0
55100,note_off,,,,,92,0,5,,,,,3,,,66,0
55100,note_off,,,,,92,0,3,,,,,10,,,59,0
55104,note_on,,,,,4,0,5,,,,,3,,,71,117
55104,note_on,,,,,4,0,3,,,,,10,,,62,92
55104,note_on,,,,,4,0,6,,,,,4,,,62,92
55196,note_off,,,,,92,0,6,,,,,4,,,62,0
55196,note_off,,,,,92,0,3,,,,,10,,,62,0
55196,note_off,,,,,92,0,5,,,,,3,,,71,0
55200,note_on,,,,,4,0,5,,,,,3,,,66,117
55200,note_on,,,,,4,0,3,,,,,10,,,59,92
55200,note_on,,,,,4,0,6,,,,,4,,,59,92
55232,note_off,,,,,320,0,7,,,,,5,,,59,0
55232,note_off,,,,,320,0,10,,,,,8,,,59,0
55232,note_off,,,,,320,0,8,,,,,6,,,47,0
55292,note_off,,,,,92,0,6,,,,,4,,,59,0
55292,note_off,,,,,92,0,5,,,,,3,,,66,0
55292,note_off,,,,,92,0,3,,,,,10,,,59,0
55296,note_on,,,,,4,0,3,,,,,10,,,56,92
55296,note_on,,,,,4,0,5,,,,,3,,,71,117
55296,note_on,,,,,64,0,10,,,,,8,,,56,60
55296,note_on,,,,,64,0,7,,,,,5,,,56,92
55296,note_on,,,,,64,0,8,,,,,6,,,44,77
55296,note_on,,,,,4,0,6,,,,,4,,,64,92
55388,note_off,,,,,476,0,1,,,,,0,,,74,0
55388,note_off,,,,,476,0,4,,,,,2,,,74,0
55388,note_off,,,,,92,0,5,,,,,3,,,71,0
55388,note_off,,,,,476,0,2,,,,,1,,,74,0
55392,note_on,,,,,4,0,1,,,,,0,,,73,92
55392,note_on,,,,,4,0,4,,,,,2,,,73,117
55392,note_on,,,,,4,0,5,,,,,3,,,64,117
55392,note_on,,,,,4,0,2,,,,,1,,,73,92
55484,note_off,,,,,92,0,5,,,,,3,,,64,0
55484,note_off,,,,,92,0,4,,,,,2,,,73,0
55484,note_off,,,,,92,0,2,,,,,1,,,73,0
55484,note_off,,,,,188,0,6,,,,,4,,,64,0
55484,note_off,,,,,92,0,1,,,,,0,,,73,0
55488,note_on,,,,,4,0,5,,,,,3,,,71,117
55488,note_on,,,,,4,0,2,,,,,1,,,71,92
55488,note_on,,,,,4,0,1,,,,,0,,,71,92
55488,note_on,,,,,4,0,4,,,,,2,,,71,117
55488,note_on,,,,,4,0,6,,,,,4,,,52,92
55580,note_off,,,,,92,0,1,,,,,0,,,71,0
55580,note_off,,,,,92,0,4,,,,,2,,,71,0
55580,note_off,,,,,92,0,5,,,,,3,,,71,0
55580,note_off,,,,,92,0,2,,,,,1,,,71,0
55584,note_on,,,,,4,0,1,,,,,0,,,69,92
55584,note_on,,,,,4,0,2,,,,,1,,,69,92
55584,note_on,,,,,4,0,4,,,,,2,,,69,117
55584,note_on,,,,,4,0,5,,,,,3,,,64,117
55616,note_off,,,,,320,0,8,,,,,6,,,44,0
55616,note_off,,,,,320,0,10,,,,,8,,,56,0
55616,note_off,,,,,320,0,7,,,,,5,,,56,0
55616,note_off,,,,,320,0,3,,,,,10,,,56,0
55676,note_off,,,,,188,0,6,,,,,4,,,52,0
55676,note_off,,,,,92,0,4,,,,,2,,,69,0
55676,note_off,,,,,92,0,1,,,,,0,,,69,0
55676,note_off,,,,,92,0,2,,,,,1,,,69,0
55676,note_off,,,,,92,0,5,,,,,3,,,64,0
55680,note_on,,,,,4,0,1,,,,,0,,,68,92
55680,note_on,,,,,4,0,2,,,,,1,,,68,92
55680,note_on,,,,,64,0,10,,,,,8,,,44,60
55680,note_on,,,,,4,0,4,,,,,2,,,68,117
55680,note_on,,,,,64,0,7,,,,,5,,,44,92
55680,note_on,,,,,64,0,8,,,,,6,,,32,77
55680,note_on,,,,,64,0,3,,,,,10,,,44,92
55680,note_on,,,,,4,0,5,,,,,3,,,59,117
55772,note_off,,,,,92,0,1,,,,,0,,,68,0
55772,note_off,,,,,92,0,2,,,,,1,,,68,0
55772,note_off,,,,,92,0,4,,,,,2,,,68,0
55776,note_on,,,,,4,0,1,,,,,0,,,66,92
55776,note_on,,,,,4,0,2,,,,,1,,,66,92
55776,note_on,,,,,100,0,6,,,,,4,,,59,92
55776,note_on,,,,,4,0,4,,,,,2,,,66,117
55868,note_off,,,,,92,0,6,,,,,4,,,59,0
55868,note_off,,,,,188,0,5,,,,,3,,,59,0
55868,note_off,,,,,92,0,2,,,,,1,,,66,0
55868,note_off,,,,,92,0,4,,,,,2,,,66,0
55868,note_off,,,,,92,0,1,,,,,0,,,66,0
55872,note_on,,,,,4,0,1,,,,,0,,,64,92
55872,note_on,,,,,4,0,4,,,,,2,,,64,117
55872,note_on,,,,,4,0,5,,,,,3,,,56,117
55872,note_on,,,,,4,0,6,,,,,4,,,64,92
55872,note_on,,,,,4,0,2,,,,,1,,,64,92
55964,note_off,,,,,92,0,4,,,,,2,,,64,0
55964,note_off,,,,,92,0,2,,,,,1,,,64,0
55964,note_off,,,,,92,0,1,,,,,0,,,64,0
55964,note_off,,,,,92,0,6,,,,,4,,,64,0
55968,note_on,,,,,4,0,2,,,,,1,,,62,92
55968,note_on,,,,,4,0,1,,,,,0,,,62,92
55968,note_on,,,,,4,0,4,,,,,2,,,62,117
55968,note_on,,,,,4,0,6,,,,,4,,,59,92
56000,note_off,,,,,320,0,8,,,,,6,,,32,0
56000,note_off,,,,,320,0,3,,,,,10,,,44,0
56000,note_off,,,,,320,0,10,,,,,8,,,44,0
56000,note_off,,,,,320,0,7,,,,,5,,,44,0
56060,note_off,,,,,92,0,2,,,,,1,,,62,0
56060,note_off,,,,,92,0,4,,,,,2,,,62,0
56060,note_off,,,,,188,0,5,,,,,3,,,56,0
56060,note_off,,,,,92,0,6,,,,,4,,,59,0
56060,note_off,,,,,92,0,1,,,,,0,,,62,0
56064,note_on,,,,,64,0,7,,,,,5,,,45,92
56064,note_on,,,,,4,0,1,,,,,0,,,61,92
56064,note_on,,,,,4,0,6,,,,,4,,,61,92
56064,note_on,,,,,64,0,10,,,,,8,,,45,60
56064,note_on,,,,,4,0,4,,,,,2,,,61,117
56064,note_on,,,,,64,0,3,,,,,10,,,45,92
56064,note_on,,,,,4,0,2,,,,,1,,,61,92
56064,note_on,,,,,64,0,8,,,,,6,,,33,77
56160,note_on,,,,,100,0,5,,,,,3,,,64,117
56252,note_off,,,,,188,0,6,,,,,4,,,61,0
56252,note_off,,,,,188,0,4,,,,,2,,,61,0
56252,note_off,,,,,92,0,5,,,,,3,,,64,0
56252,note_off,,,,,188,0,2,,,,,1,,,61,0
56252,note_off,,,,,188,0,1,,,,,0,,,61,0
56256,note_on,,,,,4,0,4,,,,,2,,,64,117
56256,note_on,,,,,4,0,1,,,,,0,,,64,92
56256,note_on,,,,,4,0,6,,,,,4,,,73,92
56256,note_on,,,,,4,0,2,,,,,1,,,64,92
56256,note_on,,,,,4,0,5,,,,,3,,,69,117
56348,note_off,,,,,92,0,5,,,,,3,,,69,0
56352,note_on,,,,,4,0,5,,,,,3,,,64,117
56384,note_off,,,,,320,0,8,,,,,6,,,33,0
56384,note_off,,,,,320,0,7,,,,,5,,,45,0
56384,note_off,,,,,320,0,3,,,,,10,,,45,0
56384,note_off,,,,,320,0,10,,,,,8,,,45,0
56444,note_off,,,,,188,0,2,,,,,1,,,64,0
56444,note_off,,,,,188,0,4,,,,,2,,,64,0
56444,note_off,,,,,188,0,1,,,,,0,,,64,0
56444,note_off,,,,,188,0,6,,,,,4,,,73,0
56444,note_off,,,,,92,0,5,,,,,3,,,64,0
56448,note_on,,,,,4,0,4,,,,,2,,,69,117
56448,note_on,,,,,4,0,1,,,,,0,,,69,92
56448,note_on,,,,,64,0,3,,,,,10,,,54,92
56448,note_on,,,,,4,0,2,,,,,1,,,69,92
56448,note_on,,,,,4,0,5,,,,,3,,,66,117
56448,note_on,,,,,64,0,7,,,,,5,,,54,92
56448,note_on,,,,,64,0,10,,,,,8,,,54,60
56448,note_on,,,,,64,0,8,,,,,6,,,42,77
56544,note_on,,,,,100,0,6,,,,,4,,,66,92
56636,note_off,,,,,92,0,6,,,,,4,,,66,0
56636,note_off,,,,,188,0,1,,,,,0,,,69,0
56636,note_off,,,,,188,0,4,,,,,2,,,69,0
56636,note_off,,,,,188,0,2,,,,,1,,,69,0
56636,note_off,,,,,188,0,5,,,,,3,,,66,0
56640,note_on,,,,,4,0,1,,,,,0,,,73,92
56640,note_on,,,,,4,0,2,,,,,1,,,73,92
56640,note_on,,,,,4,0,5,,,,,3,,,61,117
56640,note_on,,,,,4,0,6,,,,,4,,,69,92
56640,note_on,,,,,4,0,4,,,,,2,,,73,117
56732,note_off,,,,,92,0,6,,,,,4,,,69,0
56736,note_on,,,,,4,0,6,,,,,4,,,66,92
56768,note_off,,,,,320,0,8,,,,,6,,,42,0
56768,note_off,,,,,320,0,3,,,,,10,,,54,0
56768,note_off,,,,,320,0,7,,,,,5,,,54,0
56768,note_off,,,,,320,0,10,,,,,8,,,54,0
56828,note_off,,,,,92,0,6,,,,,4,,,66,0
56828,note_off,,,,,188,0,5,,,,,3,,,61,0
56828,note_off,,,,,188,0,1,,,,,0,,,73,0
56828,note_off,,,,,188,0,2,,,,,1,,,73,0
56828,note_off,,,,,188,0,4,,,,,2,,,73,0
56832,note_on,,,,,4,0,4,,,,,2,,,78,117
56832,note_on,,,,,64,0,3,,,,,10,,,51,92
56832,note_on,,,,,64,0,10,,,,,8,,,51,60
56832,note_on,,,,,64,0,7,,,,,5,,,51,92
56832,note_on,,,,,4,0,6,,,,,4,,,54,92
56832,note_on,,,,,64,0,8,,,,,6,,,39,77
56832,note_on,,,,,4,0,1,,,,,0,,,78,92
56832,note_on,,,,,4,0,2,,,,,1,,,78,92
56928,note_on,,,,,100,0,5,,,,,3,,,69,117
57020,note_off,,,,,92,0,5,,,,,3,,,69,0
57020,note_off,,,,,188,0,6,,,,,4,,,54,0
57024,note_on,,,,,4,0,6,,,,,4,,,66,92
57024,note_on,,,,,4,0,5,,,,,3,,,73,117
57116,note_off,,,,,92,0,5,,,,,3,,,73,0
57116,note_off,,,,,284,0,1,,,,,0,,,78,0
57116,note_off,,,,,284,0,2,,,,,1,,,78,0
57116,note_off,,,,,284,0,4,,,,,2,,,78,0
57120,note_on,,,,,4,0,5,,,,,3,,,69,117
57120,note_on,,,,,4,0,4,,,,,2,,,76,117
57120,note_on,,,,,4,0,1,,,,,0,,,76,92
57120,note_on,,,,,4,0,2,,,,,1,,,76,92
57152,note_off,,,,,320,0,8,,,,,6,,,39,0
57152,note_off,,,,,320,0,10,,,,,8,,,51,0
57152,note_off,,,,,320,0,7,,,,,5,,,51,0
57152,note_off,,,,,320,0,3,,,,,10,,,51,0
57212,note_off,,,,,92,0,4,,,,,2,,,76,0
57212,note_off,,,,,92,0,1,,,,,0,,,76,0
57212,note_off,,,,,92,0,2,,,,,1,,,76,0
57212,note_off,,,,,188,0,6,,,,,4,,,66,0
57212,note_off,,,,,92,0,5,,,,,3,,,69,0
57216,note_on,,,,,64,0,7,,,,,5,,,47,92
57216,note_on,,,,,4,0,1,,,,,0,,,75,92
57216,note_on,,,,,4,0,4,,,,,2,,,75,117
57216,note_on,,,,,64,0,8,,,,,6,,,35,77
57216,note_on,,,,,4,0,5,,,,,3,,,71,117
57216,note_on,,,,,64,0,10,,,,,8,,,47,60
57216,note_on,,,,,64,0,3,,,,,10,,,47,92
57216,note_on,,,,,4,0,2,,,,,1,,,75,92
57308,note_off,,,,,92,0,4,,,,,2,,,75,0
57308,note_off,,,,,92,0,1,,,,,0,,,75,0
57308,note_off,,,,,92,0,2,,,,,1,,,75,0
57312,note_on,,,,,100,0,6,,,,,4,,,66,92
57312,note_on,,,,,4,0,4,,,,,2,,,73,117
57312,note_on,,,,,4,0,1,,,,,0,,,73,92
57312,note_on,,,,,4,0,2,,,,,1,,,73,92
57404,note_off,,,,,92,0,6,,,,,4,,,66,0
57404,note_off,,,,,188,0,5,,,,,3,,,71,0
57404,note_off,,,,,92,0,2,,,,,1,,,73,0
57404,note_off,,,,,92,0,1,,,,,0,,,73,0
57404,note_off,,,,,92,0,4,,,,,2,,,73,0
57408,note_on,,,,,4,0,5,,,,,3,,,66,117
57408,note_on,,,,,4,0,4,,,,,2,,,71,117
57408,note_on,,,,,4,0,2,,,,,1,,,71,92
57408,note_on,,,,,4,0,1,,,,,0,,,71,92
57408,note_on,,,,,4,0,6,,,,,4,,,71,92
57500,note_off,,,,,92,0,1,,,,,0,,,71,0
57500,note_off,,,,,92,0,6,,,,,4,,,71,0
57500,note_off,,,,,92,0,2,,,,,1,,,71,0
57500,note_off,,,,,92,0,4,,,,,2,,,71,0
57504,note_on,,,,,4,0,4,,,,,2,,,69,117
57504,note_on,,,,,4,0,2,,,,,1,,,69,92
57504,note_on,,,,,4,0,1,,,,,0,,,69,92
57504,note_on,,,,,4,0,6,,,,,4,,,63,92
57536,note_off,,,,,320,0,3,,,,,10,,,47,0
57536,note_off,,,,,320,0,8,,,,,6,,,35,0
57536,note_off,,,,,320,0,7,,,,,5,,,47,0
57536,note_off,,,,,320,0,10,,,,,8,,,47,0
57596,note_off,,,,,92,0,2,,,,,1,,,69,0
57596,note_off,,,,,188,0,5,,,,,3,,,66,0
57596,note_off,,,,,92,0,6,,,,,4,,,63,0
57596,note_off,,,,,92,0,4,,,,,2,,,69,0
57596,note_off,,,,,92,0,1,,,,,0,,,69,0
57600,note_on,,,,,4,0,1,,,,,0,,,68,92
57600,note_on,,,,,4,0,6,,,,,4,,,59,92
57600,note_on,,,,,64,0,7,,,,,5,,,52,92
57600,note_on,,,,,4,0,4,,,,,2,,,68,117
57600,note_on,,,,,4,0,5,,,,,3,,,64,117
57600,note_on,,,,,64,0,3,,,,,10,,,52,92
57600,note_on,,,,,64,0,8,,,,,6,,,40,77
57600,note_on,,,,,64,0,10,,,,,8,,,52,60
57600,note_on,,,,,4,0,2,,,,,1,,,68,92
57788,note_off,,,,,188,0,6,,,,,4,,,59,0
57788,note_off,,,,,188,0,5,,,,,3,,,64,0
57788,note_off,,,,,188,0,2,,,,,1,,,68,0
57792,note_on,,,,,4,0,5,,,,,3,,,59,117
57792,note_on,,,,,4,0,6,,,,,4,,,52,92
57792,note_on,,,,,4,0,2,,,,,1,,,59,92
57920,note_off,,,,,320,0,4,,,,,2,,,68,0
57920,note_off,,,,,320,0,1,,,,,0,,,68,0
57920,note_off,,,,,320,0,7,,,,,5,,,52,0
57920,note_off,,,,,320,0,8,,,,,6,,,40,0
57920,note_off,,,,,320,0,3,,,,,10,,,52,0
57920,note_off,,,,,320,0,10,,,,,8,,,52,0
57980,note_off,,,,,188,0,2,,,,,1,,,59,0
57980,note_off,,,,,188,0,5,,,,,3,,,59,0
57980,note_off,,,,,188,0,6,,,,,4,,,52,0
57984,note_on,,,,,4,0,6,,,,,4,,,64,92
57984,note_on,,,,,4,0,2,,,,,1,,,64,92
57984,note_on,,,,,4,0,5,,,,,3,,,64,117
58176,note_on,,,,,256,0,1,,,,,0,,,76,45
58176,note_on,,,,,256,0,4,,,,,2,,,76,57
58304,note_off,,,,,320,0,5,,,,,3,,,64,0
58304,note_off,,,,,320,0,2,,,,,1,,,64,0
58304,note_off,,,,,320,0,6,,,,,4,,,64,0
58364,note_off,,,,,188,0,1,,,,,0,,,76,0
58364,note_off,,,,,188,0,4,,,,,2,,,76,0
58368,note_on,,,,,4,0,4,,,,,2,,,77,57
58368,note_on,,,,,4,0,1,,,,,0,,,77,45
58556,note_off,,,,,188,0,1,,,,,0,,,77,0
58556,note_off,,,,,188,0,4,,,,,2,,,77,0
58560,note_on,,,,,4,0,4,,,,,2,,,77,57
58560,note_on,,,,,256,0,2,,,,,1,,,69,45
58560,note_on,,,,,4,0,1,,,,,0,,,77,45
58560,note_on,,,,,256,0,5,,,,,3,,,69,57
58748,note_off,,,,,188,0,4,,,,,2,,,77,0
58748,note_off,,,,,188,0,1,,,,,0,,,77,0
58748,note_off,,,,,188,0,5,,,,,3,,,69,0
58748,note_off,,,,,188,0,2,,,,,1,,,69,0
58752,note_on,,,,,4,0,4,,,,,2,,,77,57
58752,note_on,,,,,4,0,1,,,,,0,,,77,45
58752,note_on,,,,,4,0,5,,,,,3,,,74,57
58752,note_on,,,,,4,0,2,,,,,1,,,74,45
58940,note_off,,,,,188,0,1,,,,,0,,,77,0
58940,note_off,,,,,188,0,4,,,,,2,,,77,0
58940,note_off,,,,,188,0,2,,,,,1,,,74,0
58940,note_off,,,,,188,0,5,,,,,3,,,74,0
58944,note_on,,,,,4,0,4,,,,,2,,,77,57
58944,note_on,,,,,4,0,2,,,,,1,,,69,45
58944,note_on,,,,,4,0,1,,,,,0,,,77,45
58944,note_on,,,,,4,0,5,,,,,3,,,69,57
59132,note_off,,,,,188,0,2,,,,,1,,,69,0
59132,note_off,,,,,188,0,5,,,,,3,,,69,0
59132,note_off,,,,,188,0,4,,,,,2,,,77,0
59132,note_off,,,,,188,0,1,,,,,0,,,77,0
59136,note_on,,,,,4,0,4,,,,,2,,,78,57
59136,note_on,,,,,4,0,1,,,,,0,,,78,45
59228,note_off,,,,,92,0,4,,,,,2,,,78,0
59228,note_off,,,,,92,0,1,,,,,0,,,78,0
59232,note_on,,,,,4,0,1,,,,,0,,,78,45
59232,note_on,,,,,4,0,4,,,,,2,,,78,57
59324,note_off,,,,,92,0,4,,,,,2,,,78,0
59324,note_off,,,,,92,0,1,,,,,0,,,78,0
59328,note_on,,,,,4,0,1,,,,,0,,,78,45
59328,note_on,,,,,1024,0,6,,,,,4,,,57,45
59328,note_on,,,,,1408,0,3,,,,,10,,,57,45
59328,note_on,,,,,4,0,4,,,,,2,,,78,57
59420,note_off,,,,,92,0,1,,,,,0,,,78,0
59420,note_off,,,,,92,0,4,,,,,2,,,78,0
59424,note_on,,,,,4,0,1,,,,,0,,,78,45
59424,note_on,,,,,4,0,4,,,,,2,,,78,57
59516,note_off,,,,,188,0,3,,,,,10,,,57,0
59516,note_off,,,,,188,0,6,,,,,4,,,57,0
59516,note_off,,,,,92,0,4,,,,,2,,,78,0
59516,note_off,,,,,92,0,1,,,,,0,,,78,0
59520,note_on,,,,,4,0,4,,,,,2,,,78,57
59520,note_on,,,,,4,0,3,,,,,10,,,60,45
59520,note_on,,,,,4,0,1,,,,,0,,,78,45
59520,note_on,,,,,4,0,6,,,,,4,,,60,45
59612,note_off,,,,,92,0,4,,,,,2,,,78,0
59612,note_off,,,,,92,0,1,,,,,0,,,78,0
59616,note_on,,,,,4,0,4,,,,,2,,,78,57
59616,note_on,,,,,4,0,1,,,,,0,,,78,45
59708,note_off,,,,,92,0,1,,,,,0,,,78,0
59708,note_off,,,,,188,0,6,,,,,4,,,60,0
59708,note_off,,,,,188,0,3,,,,,10,,,60,0
59708,note_off,,,,,92,0,4,,,,,2,,,78,0
59712,note_on,,,,,4,0,4,,,,,2,,,78,57
59712,note_on,,,,,4,0,3,,,,,10,,,57,45
59712,note_on,,,,,4,0,1,,,,,0,,,78,45
59712,note_on,,,,,4,0,6,,,,,4,,,57,45
59804,note_off,,,,,92,0,1,,,,,0,,,78,0
59804,note_off,,,,,92,0,4,,,,,2,,,78,0
59808,note_on,,,,,4,0,4,,,,,2,,,78,57
59808,note_on,,,,,4,0,1,,,,,0,,,78,45
59900,note_off,,,,,92,0,1,,,,,0,,,78,0
59900,note_off,,,,,188,0,6,,,,,4,,,57,0
59900,note_off,,,,,92,0,4,,,,,2,,,78,0
59900,note_off,,,,,188,0,3,,,,,10,,,57,0
59904,note_on,,,,,4,0,1,,,,,0,,,79,45
59904,note_on,,,,,4,0,4,,,,,2,,,79,57
59996,note_off,,,,,92,0,4,,,,,2,,,79,0
59996,note_off,,,,,92,0,1,,,,,0,,,79,0
60000,note_on,,,,,4,0,4,,,,,2,,,79,57
60000,note_on,,,,,4,0,1,,,,,0,,,79,45
60092,note_off,,,,,92,0,4,,,,,2,,,79,0
60092,note_off,,,,,92,0,1,,,,,0,,,79,0
60096,note_on,,,,,4,0,1,,,,,0,,,79,45
60096,note_on,,,,,964,0,2,,,,,1,,,71,45
60096,note_on,,,,,964,0,5,,,,,3,,,71,57
60096,note_on,,,,,4,0,4,,,,,2,,,79,57
60188,note_off,,,,,92,0,4,,,,,2,,,79,0
60188,note_off,,,,,92,0,1,,,,,0,,,79,0
60192,note_on,,,,,4,0,1,,,,,0,,,79,45
60192,note_on,,,,,4,0,4,,,,,2,,,79,57
60284,note_off,,,,,92,0,1,,,,,0,,,79,0
60284,note_off,,,,,188,0,2,,,,,1,,,71,0
60284,note_off,,,,,188,0,5,,,,,3,,,71,0
60284,note_off,,,,,92,0,4,,,,,2,,,79,0
60288,note_on,,,,,4,0,4,,,,,2,,,79,57
60288,note_on,,,,,4,0,2,,,,,1,,,74,45
60288,note_on,,,,,4,0,1,,,,,0,,,79,45
60288,note_on,,,,,4,0,5,,,,,3,,,74,57
60380,note_off,,,,,92,0,4,,,,,2,,,79,0
60380,note_off,,,,,92,0,1,,,,,0,,,79,0
60384,note_on,,,,,4,0,4,,,,,2,,,79,57
60384,note_on,,,,,4,0,1,,,,,0,,,79,45
60476,note_off,,,,,188,0,5,,,,,3,,,74,0
60476,note_off,,,,,92,0,1,,,,,0,,,79,0
60476,note_off,,,,,92,0,4,,,,,2,,,79,0
60476,note_off,,,,,188,0,2,,,,,1,,,74,0
60480,note_on,,,,,4,0,5,,,,,3,,,71,57
60480,note_on,,,,,4,0,4,,,,,2,,,79,57
60480,note_on,,,,,4,0,1,,,,,0,,,79,45
60480,note_on,,,,,4,0,2,,,,,1,,,71,45
60572,note_off,,,,,92,0,4,,,,,2,,,79,0
60572,note_off,,,,,92,0,1,,,,,0,,,79,0
60576,note_on,,,,,4,0,4,,,,,2,,,79,57
60576,note_on,,,,,4,0,1,,,,,0,,,79,45
60668,note_off,,,,,188,0,2,,,,,1,,,71,0
60668,note_off,,,,,92,0,1,,,,,0,,,79,0
60668,note_off,,,,,92,0,4,,,,,2,,,79,0
60668,note_off,,,,,188,0,5,,,,,3,,,71,0
60672,note_on,,,,,4,0,2,,,,,1,,,80,45
60672,note_on,,,,,4,0,4,,,,,2,,,80,57
60672,note_on,,,,,4,0,1,,,,,0,,,80,45
60716,note_off,,,,,44,0,1,,,,,0,,,80,0
60716,note_off,,,,,44,0,2,,,,,1,,,80,0
60716,note_off,,,,,44,0,4,,,,,2,,,80,0
60720,note_on,,,,,4,0,1,,,,,0,,,80,45
60720,note_on,,,,,4,0,2,,,,,1,,,80,45
60720,note_on,,,,,4,0,4,,,,,2,,,80,57
60764,note_off,,,,,44,0,2,,,,,1,,,80,0
60764,note_off,,,,,44,0,4,,,,,2,,,80,0
60764,note_off,,,,,44,0,1,,,,,0,,,80,0
60768,note_on,,,,,4,0,4,,,,,2,,,80,57
60768,note_on,,,,,4,0,1,,,,,0,,,80,45
60768,note_on,,,,,4,0,2,,,,,1,,,80,45
60812,note_off,,,,,44,0,4,,,,,2,,,80,0
60812,note_off,,,,,44,0,1,,,,,0,,,80,0
60812,note_off,,,,,44,0,2,,,,,1,,,80,0
60816,note_on,,,,,4,0,4,,,,,2,,,80,57
60816,note_on,,,,,4,0,1,,,,,0,,,80,45
60816,note_on,,,,,4,0,2,,,,,1,,,80,45
60860,note_off,,,,,44,0,4,,,,,2,,,80,0
60860,note_off,,,,,44,0,1,,,,,0,,,80,0
60860,note_off,,,,,44,0,2,,,,,1,,,80,0
60864,note_on,,,,,964,0,3,,,,,10,,,59,45
60864,note_on,,,,,4,0,1,,,,,0,,,80,45
60864,note_on,,,,,964,0,6,,,,,4,,,59,45
60864,note_on,,,,,4,0,4,,,,,2,,,80,57
60864,note_on,,,,,4,0,2,,,,,1,,,80,45
60908,note_off,,,,,44,0,2,,,,,1,,,80,0
60908,note_off,,,,,44,0,1,,,,,0,,,80,0
60908,note_off,,,,,44,0,4,,,,,2,,,80,0
60912,note_on,,,,,4,0,1,,,,,0,,,80,45
60912,note_on,,,,,4,0,2,,,,,1,,,80,45
60912,note_on,,,,,4,0,4,,,,,2,,,80,57
60956,note_off,,,,,44,0,1,,,,,0,,,80,0
60956,note_off,,,,,44,0,2,,,,,1,,,80,0
60956,note_off,,,,,44,0,4,,,,,2,,,80,0
60960,note_on,,,,,4,0,2,,,,,1,,,80,45
60960,note_on,,,,,4,0,4,,,,,2,,,80,57
60960,note_on,,,,,4,0,1,,,,,0,,,80,45
61004,note_off,,,,,44,0,4,,,,,2,,,80,0
61004,note_off,,,,,44,0,2,,,,,1,,,80,0
61004,note_off,,,,,44,0,1,,,,,0,,,80,0
61008,note_on,,,,,4,0,2,,,,,1,,,80,45
61008,note_on,,,,,4,0,1,,,,,0,,,80,45
61008,note_on,,,,,4,0,4,,,,,2,,,80,57
61052,note_off,,,,,44,0,1,,,,,0,,,80,0
61052,note_off,,,,,44,0,2,,,,,1,,,80,0
61052,note_off,,,,,188,0,6,,,,,4,,,59,0
61052,note_off,,,,,188,0,3,,,,,10,,,59,0
61052,note_off,,,,,44,0,4,,,,,2,,,80,0
61056,note_on,,,,,4,0,2,,,,,1,,,80,45
61056,note_on,,,,,4,0,6,,,,,4,,,62,45
61056,note_on,,,,,4,0,4,,,,,2,,,80,57
61056,note_on,,,,,4,0,3,,,,,10,,,62,45
61056,note_on,,,,,4,0,1,,,,,0,,,80,45
61100,note_off,,,,,44,0,4,,,,,2,,,80,0
61100,note_off,,,,,44,0,1,,,,,0,,,80,0
61100,note_off,,,,,44,0,2,,,,,1,,,80,0
61104,note_on,,,,,4,0,2,,,,,1,,,80,45
61104,note_on,,,,,4,0,1,,,,,0,,,80,45
61104,note_on,,,,,4,0,4,,,,,2,,,80,57
61148,note_off,,,,,44,0,2,,,,,1,,,80,0
61148,note_off,,,,,44,0,4,,,,,2,,,80,0
61148,note_off,,,,,44,0,1,,,,,0,,,80,0
61152,note_on,,,,,4,0,2,,,,,1,,,80,45
61152,note_on,,,,,4,0,4,,,,,2,,,80,57
61152,note_on,,,,,4,0,1,,,,,0,,,80,45
61196,note_off,,,,,44,0,1,,,,,0,,,80,0
61196,note_off,,,,,44,0,2,,,,,1,,,80,0
61196,note_off,,,,,44,0,4,,,,,2,,,80,0
61200,note_on,,,,,4,0,2,,,,,1,,,80,45
61200,note_on,,,,,4,0,4,,,,,2,,,80,57
61200,note_on,,,,,4,0,1,,,,,0,,,80,45
61244,note_off,,,,,44,0,1,,,,,0,,,80,0
61244,note_off,,,,,44,0,2,,,,,1,,,80,0
61244,note_off,,,,,188,0,6,,,,,4,,,62,0
61244,note_off,,,,,44,0,4,,,,,2,,,80,0
61244,note_off,,,,,188,0,3,,,,,10,,,62,0
61248,note_on,,,,,4,0,2,,,,,1,,,80,45
61248,note_on,,,,,4,0,6,,,,,4,,,59,45
61248,note_on,,,,,4,0,1,,,,,0,,,80,45
61248,note_on,,,,,4,0,3,,,,,10,,,59,45
61248,note_on,,,,,4,0,4,,,,,2,,,80,57
61292,note_off,,,,,44,0,2,,,,,1,,,80,0
61292,note_off,,,,,44,0,4,,,,,2,,,80,0
61292,note_off,,,,,44,0,1,,,,,0,,,80,0
61296,note_on,,,,,4,0,2,,,,,1,,,80,45
61296,note_on,,,,,4,0,4,,,,,2,,,80,57
61296,note_on,,,,,4,0,1,,,,,0,,,80,45
61340,note_off,,,,,44,0,2,,,,,1,,,80,0
61340,note_off,,,,,44,0,1,,,,,0,,,80,0
61340,note_off,,,,,44,0,4,,,,,2,,,80,0
61344,note_on,,,,,4,0,2,,,,,1,,,80,45
61344,note_on,,,,,4,0,4,,,,,2,,,80,57
61344,note_on,,,,,4,0,1,,,,,0,,,80,45
61388,note_off,,,,,44,0,2,,,,,1,,,80,0
61388,note_off,,,,,44,0,1,,,,,0,,,80,0
61388,note_off,,,,,44,0,4,,,,,2,,,80,0
61392,note_on,,,,,4,0,4,,,,,2,,,80,57
61392,note_on,,,,,4,0,1,,,,,0,,,80,45
61392,note_on,,,,,4,0,2,,,,,1,,,80,45
61436,note_off,,,,,44,0,4,,,,,2,,,80,0
61436,note_off,,,,,44,0,2,,,,,1,,,80,0
61436,note_off,,,,,44,0,1,,,,,0,,,80,0
61436,note_off,,,,,188,0,3,,,,,10,,,59,0
61436,note_off,,,,,188,0,6,,,,,4,,,59,0
61440,note_on,,,,,4,0,1,,,,,0,,,81,45
61440,note_on,,,,,4,0,4,,,,,2,,,81,57
61440,note_on,,,,,4,0,2,,,,,1,,,81,45
61484,note_off,,,,,44,0,2,,,,,1,,,81,0
61484,note_off,,,,,44,0,1,,,,,0,,,81,0
61488,note_on,,,,,4,0,2,,,,,1,,,76,45
61488,note_on,,,,,4,0,1,,,,,0,,,76,45
61532,note_off,,,,,44,0,2,,,,,1,,,76,0
61532,note_off,,,,,44,0,1,,,,,0,,,76,0
61536,note_on,,,,,4,0,1,,,,,0,,,81,45
61536,note_on,,,,,4,0,2,,,,,1,,,81,45
61580,note_off,,,,,44,0,2,,,,,1,,,81,0
61580,note_off,,,,,44,0,1,,,,,0,,,81,0
61584,note_on,,,,,4,0,2,,,,,1,,,76,45
61584,note_on,,,,,4,0,1,,,,,0,,,76,45
61628,note_off,,,,,188,0,4,,,,,2,,,81,0
61628,note_off,,,,,44,0,1,,,,,0,,,76,0
61628,note_off,,,,,44,0,2,,,,,1,,,76,0
61632,note_on,,,,,4,0,1,,,,,0,,,81,45
61632,note_on,,,,,964,0,5,,,,,3,,,73,57
61632,note_on,,,,,4,0,4,,,,,2,,,76,57
61632,note_on,,,,,4,0,2,,,,,1,,,81,45
61676,note_off,,,,,44,0,1,,,,,0,,,81,0
61676,note_off,,,,,44,0,2,,,,,1,,,81,0
61680,note_on,,,,,4,0,1,,,,,0,,,76,45
61680,note_on,,,,,4,0,2,,,,,1,,,76,45
61724,note_off,,,,,44,0,1,,,,,0,,,76,0
61724,note_off,,,,,44,0,2,,,,,1,,,76,0
61728,note_on,,,,,4,0,2,,,,,1,,,81,45
61728,note_on,,,,,4,0,1,,,,,0,,,81,45
61772,note_off,,,,,44,0,2,,,,,1,,,81,0
61772,note_off,,,,,44,0,1,,,,,0,,,81,0
61776,note_on,,,,,4,0,2,,,,,1,,,76,45
61776,note_on,,,,,4,0,1,,,,,0,,,76,45
61820,note_off,,,,,44,0,1,,,,,0,,,76,0
61820,note_off,,,,,188,0,4,,,,,2,,,76,0
61820,note_off,,,,,188,0,5,,,,,3,,,73,0
61820,note_off,,,,,44,0,2,,,,,1,,,76,0
61824,note_on,,,,,4,0,2,,,,,1,,,81,45
61824,note_on,,,,,4,0,1,,,,,0,,,81,45
61824,note_on,,,,,4,0,5,,,,,3,,,76,57
61868,note_off,,,,,44,0,1,,,,,0,,,81,0
61868,note_off,,,,,44,0,2,,,,,1,,,81,0
61872,note_on,,,,,4,0,2,,,,,1,,,76,45
61872,note_on,,,,,4,0,1,,,,,0,,,76,45
61916,note_off,,,,,44,0,1,,,,,0,,,76,0
61916,note_off,,,,,44,0,2,,,,,1,,,76,0
61920,note_on,,,,,4,0,2,,,,,1,,,81,45
61920,note_on,,,,,4,0,1,,,,,0,,,81,45
61964,note_off,,,,,44,0,2,,,,,1,,,81,0
61964,note_off,,,,,44,0,1,,,,,0,,,81,0
61968,note_on,,,,,4,0,1,,,,,0,,,76,45
61968,note_on,,,,,4,0,2,,,,,1,,,76,45
62012,note_off,,,,,44,0,1,,,,,0,,,76,0
62012,note_off,,,,,188,0,5,,,,,3,,,76,0
62012,note_off,,,,,44,0,2,,,,,1,,,76,0
62016,note_on,,,,,4,0,2,,,,,1,,,81,45
62016,note_on,,,,,4,0,5,,,,,3,,,73,57
62016,note_on,,,,,4,0,1,,,,,0,,,81,45
62060,note_off,,,,,44,0,1,,,,,0,,,81,0
62060,note_off,,,,,44,0,2,,,,,1,,,81,0
62064,note_on,,,,,4,0,2,,,,,1,,,76,45
62064,note_on,,,,,4,0,1,,,,,0,,,76,45
62108,note_off,,,,,44,0,1,,,,,0,,,76,0
62108,note_off,,,,,44,0,2,,,,,1,,,76,0
62112,note_on,,,,,4,0,2,,,,,1,,,81,45
62112,note_on,,,,,4,0,1,,,,,0,,,81,45
62156,note_off,,,,,44,0,2,,,,,1,,,81,0
62156,note_off,,,,,44,0,1,,,,,0,,,81,0
62160,note_on,,,,,4,0,1,,,,,0,,,76,45
62160,note_on,,,,,4,0,2,,,,,1,,,76,45
62204,note_off,,,,,44,0,1,,,,,0,,,76,0
62204,note_off,,,,,44,0,2,,,,,1,,,76,0
62204,note_off,,,,,188,0,5,,,,,3,,,73,0
62208,note_on,,,,,4,0,1,,,,,0,,,83,45
62208,note_on,,,,,4,0,2,,,,,1,,,83,45
62252,note_off,,,,,44,0,1,,,,,0,,,83,0
62252,note_off,,,,,44,0,2,,,,,1,,,83,0
62256,note_on,,,,,4,0,1,,,,,0,,,76,45
62256,note_on,,,,,4,0,2,,,,,1,,,76,45
62300,note_off,,,,,44,0,1,,,,,0,,,76,0
62300,note_off,,,,,44,0,2,,,,,1,,,76,0
62304,note_on,,,,,4,0,1,,,,,0,,,83,45
62304,note_on,,,,,4,0,2,,,,,1,,,83,45
62348,note_off,,,,,44,0,2,,,,,1,,,83,0
62348,note_off,,,,,44,0,1,,,,,0,,,83,0
62352,note_on,,,,,4,0,1,,,,,0,,,76,45
62352,note_on,,,,,4,0,2,,,,,1,,,76,45
62396,note_off,,,,,44,0,2,,,,,1,,,76,0
62396,note_off,,,,,44,0,1,,,,,0,,,76,0
62400,note_on,,,,,4,0,2,,,,,1,,,83,45
62400,note_on,,,,,580,0,4,,,,,2,,,56,57
62400,note_on,,,,,4,0,1,,,,,0,,,83,45
62400,note_on,,,,,964,0,3,,,,,10,,,56,45
62400,note_on,,,,,964,0,6,,,,,4,,,56,45
62444,note_off,,,,,44,0,2,,,,,1,,,83,0
62444,note_off,,,,,44,0,1,,,,,0,,,83,0
62448,note_on,,,,,4,0,2,,,,,1,,,76,45
62448,note_on,,,,,4,0,1,,,,,0,,,76,45
62492,note_off,,,,,44,0,2,,,,,1,,,76,0
62492,note_off,,,,,44,0,1,,,,,0,,,76,0
62496,note_on,,,,,4,0,2,,,,,1,,,83,45
62496,note_on,,,,,4,0,1,,,,,0,,,83,45
62540,note_off,,,,,44,0,2,,,,,1,,,83,0
62540,note_off,,,,,44,0,1,,,,,0,,,83,0
62544,note_on,,,,,4,0,2,,,,,1,,,76,45
62544,note_on,,,,,4,0,1,,,,,0,,,76,45
62588,note_off,,,,,44,0,1,,,,,0,,,76,0
62588,note_off,,,,,44,0,2,,,,,1,,,76,0
62588,note_off,,,,,188,0,4,,,,,2,,,56,0
62588,note_off,,,,,188,0,3,,,,,10,,,56,0
62588,note_off,,,,,188,0,6,,,,,4,,,56,0
62592,note_on,,,,,4,0,1,,,,,0,,,83,45
62592,note_on,,,,,4,0,2,,,,,1,,,83,45
62592,note_on,,,,,4,0,3,,,,,10,,,64,45
62592,note_on,,,,,4,0,4,,,,,2,,,64,57
62592,note_on,,,,,4,0,6,,,,,4,,,64,45
62636,note_off,,,,,44,0,1,,,,,0,,,83,0
62636,note_off,,,,,44,0,2,,,,,1,,,83,0
62640,note_on,,,,,4,0,2,,,,,1,,,76,45
62640,note_on,,,,,4,0,1,,,,,0,,,76,45
62684,note_off,,,,,44,0,1,,,,,0,,,76,0
62684,note_off,,,,,44,0,2,,,,,1,,,76,0
62688,note_on,,,,,4,0,1,,,,,0,,,83,45
62688,note_on,,,,,4,0,2,,,,,1,,,83,45
62732,note_off,,,,,44,0,1,,,,,0,,,83,0
62732,note_off,,,,,44,0,2,,,,,1,,,83,0
62736,note_on,,,,,4,0,1,,,,,0,,,76,45
62736,note_on,,,,,4,0,2,,,,,1,,,76,45
62780,note_off,,,,,44,0,1,,,,,0,,,76,0
62780,note_off,,,,,188,0,3,,,,,10,,,64,0
62780,note_off,,,,,188,0,6,,,,,4,,,64,0
62780,note_off,,,,,188,0,4,,,,,2,,,64,0
62780,note_off,,,,,44,0,2,,,,,1,,,76,0
62784,note_on,,,,,4,0,6,,,,,4,,,56,45
62784,note_on,,,,,4,0,3,,,,,10,,,56,45
62784,note_on,,,,,4,0,2,,,,,1,,,83,45
62784,note_on,,,,,4,0,4,,,,,2,,,76,57
62784,note_on,,,,,4,0,1,,,,,0,,,83,45
62828,note_off,,,,,44,0,2,,,,,1,,,83,0
62828,note_off,,,,,44,0,1,,,,,0,,,83,0
62832,note_on,,,,,4,0,2,,,,,1,,,76,45
62832,note_on,,,,,4,0,1,,,,,0,,,76,45
62876,note_off,,,,,44,0,1,,,,,0,,,76,0
62876,note_off,,,,,44,0,2,,,,,1,,,76,0
62880,note_on,,,,,4,0,1,,,,,0,,,83,45
62880,note_on,,,,,4,0,2,,,,,1,,,83,45
62924,note_off,,,,,44,0,1,,,,,0,,,83,0
62924,note_off,,,,,44,0,2,,,,,1,,,83,0
62928,note_on,,,,,4,0,1,,,,,0,,,76,45
62928,note_on,,,,,4,0,2,,,,,1,,,76,45
62972,note_off,,,,,44,0,2,,,,,1,,,76,0
62972,note_off,,,,,188,0,4,,,,,2,,,76,0
62972,note_off,,,,,188,0,3,,,,,10,,,56,0
62972,note_off,,,,,188,0,6,,,,,4,,,56,0
62972,note_off,,,,,44,0,1,,,,,0,,,76,0
62976,note_on,,,,,4,0,4,,,,,2,,,85,117
62976,note_on,,,,,4,0,3,,,,,10,,,57,92
62976,note_on,,,,,5056,0,7,,,,,5,,,57,92
62976,note_on,,,,,5056,0,8,,,,,6,,,45,77
62976,note_on,,,,,4,0,6,,,,,4,,,64,92
62976,note_on,,,,,772,0,5,,,,,3,,,81,117
62976,note_on,,,,,4,0,1,,,,,0,,,85,92
62976,note_on,,,,,5056,0,10,,,,,8,,,57,60
62976,note_on,,,,,4,0,2,,,,,1,,,85,92
63116,note_off,,,,,140,0,3,,,,,10,,,57,0
63120,note_on,,,,,4,0,3,,,,,10,,,64,92
63164,note_off,,,,,188,0,6,,,,,4,,,64,0
63164,note_off,,,,,44,0,3,,,,,10,,,64,0
63164,note_off,,,,,188,0,1,,,,,0,,,85,0
63164,note_off,,,,,188,0,2,,,,,1,,,85,0
63164,note_off,,,,,188,0,4,,,,,2,,,85,0
63164,note_off,,,,,188,0,5,,,,,3,,,81,0
63168,note_on,,,,,4,0,2,,,,,1,,,81,92
63168,note_on,,,,,4,0,1,,,,,0,,,81,92
63168,note_on,,,,,4,0,6,,,,,4,,,76,92
63168,note_on,,,,,4,0,5,,,,,3,,,73,117
63168,note_on,,,,,4,0,4,,,,,2,,,81,117
63168,note_on,,,,,4,0,3,,,,,10,,,61,92
63296,note_off,,,,,320,0,7,,,,,5,,,57,0
63296,note_off,,,,,320,0,8,,,,,6,,,45,0
63296,note_off,,,,,320,0,10,,,,,8,,,57,0
63308,note_off,,,,,140,0,3,,,,,10,,,61,0
63308,note_off,,,,,140,0,4,,,,,2,,,81,0
63308,note_off,,,,,140,0,1,,,,,0,,,81,0
63308,note_off,,,,,140,0,2,,,,,1,,,81,0
63312,note_on,,,,,4,0,1,,,,,0,,,83,92
63312,note_on,,,,,4,0,2,,,,,1,,,83,92
63312,note_on,,,,,4,0,4,,,,,2,,,83,117
63312,note_on,,,,,4,0,3,,,,,10,,,64,92
63356,note_off,,,,,44,0,4,,,,,2,,,83,0
63356,note_off,,,,,44,0,3,,,,,10,,,64,0
63356,note_off,,,,,188,0,5,,,,,3,,,73,0
63356,note_off,,,,,44,0,2,,,,,1,,,83,0
63356,note_off,,,,,188,0,6,,,,,4,,,76,0
63356,note_off,,,,,44,0,1,,,,,0,,,83,0
63360,note_on,,,,,4,0,1,,,,,0,,,85,92
63360,note_on,,,,,4,0,3,,,,,10,,,52,92
63360,note_on,,,,,64,0,7,,,,,5,,,52,92
63360,note_on,,,,,64,0,8,,,,,6,,,40,77
63360,note_on,,,,,4,0,2,,,,,1,,,85,92
63360,note_on,,,,,64,0,10,,,,,8,,,52,60
63360,note_on,,,,,4,0,4,,,,,2,,,85,117
63456,note_on,,,,,100,0,6,,,,,4,,,69,92
63456,note_on,,,,,100,0,5,,,,,3,,,73,117
63500,note_off,,,,,140,0,2,,,,,1,,,85,0
63504,note_on,,,,,4,0,2,,,,,1,,,69,92
63548,note_off,,,,,92,0,5,,,,,3,,,73,0
63548,note_off,,,,,92,0,6,,,,,4,,,69,0
63548,note_off,,,,,44,0,2,,,,,1,,,69,0
63548,note_off,,,,,188,0,3,,,,,10,,,52,0
63552,note_on,,,,,4,0,6,,,,,4,,,73,92
63552,note_on,,,,,4,0,5,,,,,3,,,76,117
63552,note_on,,,,,4,0,3,,,,,10,,,40,92
63552,note_on,,,,,4,0,2,,,,,1,,,76,92
63680,note_off,,,,,320,0,10,,,,,8,,,52,0
63680,note_off,,,,,320,0,8,,,,,6,,,40,0
63680,note_off,,,,,320,0,7,,,,,5,,,52,0
63692,note_off,,,,,140,0,5,,,,,3,,,76,0
63692,note_off,,,,,140,0,2,,,,,1,,,76,0
63692,note_off,,,,,140,0,6,,,,,4,,,73,0
63696,note_on,,,,,4,0,6,,,,,4,,,69,92
63696,note_on,,,,,4,0,2,,,,,1,,,69,92
63696,note_on,,,,,4,0,5,,,,,3,,,73,117
63740,note_off,,,,,44,0,2,,,,,1,,,69,0
63740,note_off,,,,,188,0,3,,,,,10,,,40,0
63740,note_off,,,,,44,0,6,,,,,4,,,69,0
63740,note_off,,,,,44,0,5,,,,,3,,,73,0
63744,note_on,,,,,64,0,8,,,,,6,,,42,77
63744,note_on,,,,,4,0,2,,,,,1,,,85,92
63744,note_on,,,,,4,0,6,,,,,4,,,73,92
63744,note_on,,,,,4,0,5,,,,,3,,,81,117
63744,note_on,,,,,64,0,10,,,,,8,,,54,60
63744,note_on,,,,,64,0,7,,,,,5,,,54,92
63840,note_on,,,,,100,0,3,,,,,10,,,54,92
63932,note_off,,,,,92,0,3,,,,,10,,,54,0
63932,note_off,,,,,188,0,6,,,,,4,,,73,0
63932,note_off,,,,,188,0,2,,,,,1,,,85,0
63932,note_off,,,,,572,0,1,,,,,0,,,85,0
63932,note_off,,,,,572,0,4,,,,,2,,,85,0
63932,note_off,,,,,188,0,5,,,,,3,,,81,0
63936,note_on,,,,,4,0,6,,,,,4,,,66,92
63936,note_on,,,,,4,0,3,,,,,10,,,61,92
63936,note_on,,,,,4,0,1,,,,,0,,,81,92
63936,note_on,,,,,4,0,2,,,,,1,,,81,92
63936,note_on,,,,,4,0,4,,,,,2,,,81,117
63936,note_on,,,,,4,0,5,,,,,3,,,73,117
64064,note_off,,,,,320,0,10,,,,,8,,,54,0
64064,note_off,,,,,320,0,7,,,,,5,,,54,0
64064,note_off,,,,,320,0,8,,,,,6,,,42,0
64076,note_off,,,,,140,0,2,,,,,1,,,81,0
64076,note_off,,,,,140,0,4,,,,,2,,,81,0
64076,note_off,,,,,140,0,1,,,,,0,,,81,0
64076,note_off,,,,,140,0,6,,,,,4,,,66,0
64076,note_off,,,,,140,0,3,,,,,10,,,61,0
64080,note_on,,,,,4,0,1,,,,,0,,,83,92
64080,note_on,,,,,4,0,6,,,,,4,,,68,92
64080,note_on,,,,,4,0,3,,,,,10,,,54,92
64080,note_on,,,,,4,0,2,,,,,1,,,83,92
64080,note_on,,,,,4,0,4,,,,,2,,,83,117
64124,note_off,,,,,44,0,2,,,,,1,,,83,0
64124,note_off,,,,,44,0,6,,,,,4,,,68,0
64124,note_off,,,,,44,0,1,,,,,0,,,83,0
64124,note_off,,,,,44,0,4,,,,,2,,,83,0
64124,note_off,,,,,44,0,3,,,,,10,,,54,0
64124,note_off,,,,,188,0,5,,,,,3,,,73,0
64128,note_on,,,,,64,0,10,,,,,8,,,49,60
64128,note_on,,,,,4,0,3,,,,,10,,,49,92
64128,note_on,,,,,4,0,1,,,,,0,,,85,92
64128,note_on,,,,,4,0,6,,,,,4,,,69,92
64128,note_on,,,,,4,0,2,,,,,1,,,85,92
64128,note_on,,,,,64,0,7,,,,,5,,,49,92
64128,note_on,,,,,4,0,4,,,,,2,,,85,117
64128,note_on,,,,,64,0,8,,,,,6,,,37,77
64224,note_on,,,,,100,0,5,,,,,3,,,76,117
64268,note_off,,,,,140,0,2,,,,,1,,,85,0
64268,note_off,,,,,140,0,6,,,,,4,,,69,0
64272,note_on,,,,,4,0,2,,,,,1,,,69,92
64272,note_on,,,,,4,0,6,,,,,4,,,57,92
64316,note_off,,,,,44,0,2,,,,,1,,,69,0
64316,note_off,,,,,92,0,5,,,,,3,,,76,0
64316,note_off,,,,,44,0,6,,,,,4,,,57,0
64316,note_off,,,,,188,0,3,,,,,10,,,49,0
64320,note_on,,,,,4,0,2,,,,,1,,,76,92
64320,note_on,,,,,4,0,5,,,,,3,,,81,117
64320,note_on,,,,,4,0,6,,,,,4,,,61,92
64320,note_on,,,,,4,0,3,,,,,10,,,37,92
64448,note_off,,,,,320,0,10,,,,,8,,,49,0
64448,note_off,,,,,320,0,7,,,,,5,,,49,0
64448,note_off,,,,,320,0,8,,,,,6,,,37,0
64460,note_off,,,,,140,0,5,,,,,3,,,81,0
64460,note_off,,,,,140,0,2,,,,,1,,,76,0
64460,note_off,,,,,140,0,6,,,,,4,,,61,0
64464,note_on,,,,,4,0,6,,,,,4,,,57,92
64464,note_on,,,,,4,0,5,,,,,3,,,76,117
64464,note_on,,,,,4,0,2,,,,,1,,,69,92
64508,note_off,,,,,188,0,3,,,,,10,,,37,0
64508,note_off,,,,,44,0,2,,,,,1,,,69,0
64508,note_off,,,,,44,0,6,,,,,4,,,57,0
64508,note_off,,,,,44,0,5,,,,,3,,,76,0
64512,note_on,,,,,4,0,3,,,,,10,,,38,92
64512,note_on,,,,,4,0,2,,,,,1,,,78,92
64512,note_on,,,,,64,0,10,,,,,8,,,50,60
64512,note_on,,,,,64,0,7,,,,,5,,,50,92
64512,note_on,,,,,64,0,8,,,,,6,,,38,77
64512,note_on,,,,,4,0,6,,,,,4,,,69,92
64512,note_on,,,,,4,0,5,,,,,3,,,78,117
64652,note_off,,,,,140,0,5,,,,,3,,,78,0
64656,note_on,,,,,4,0,5,,,,,3,,,66,117
64700,note_off,,,,,188,0,3,,,,,10,,,38,0
64700,note_off,,,,,44,0,5,,,,,3,,,66,0
64700,note_off,,,,,188,0,6,,,,,4,,,69,0
64700,note_off,,,,,188,0,2,,,,,1,,,78,0
64704,note_on,,,,,4,0,2,,,,,1,,,66,92
64704,note_on,,,,,4,0,3,,,,,10,,,50,92
64704,note_on,,,,,4,0,6,,,,,4,,,62,92
64704,note_on,,,,,4,0,5,,,,,3,,,69,117
64796,note_off,,,,,668,0,1,,,,,0,,,85,0
64796,note_off,,,,,668,0,4,,,,,2,,,85,0
64800,note_on,,,,,4,0,4,,,,,2,,,83,117
64800,note_on,,,,,4,0,1,,,,,0,,,83,92
64832,note_off,,,,,320,0,7,,,,,5,,,50,0
64832,note_off,,,,,320,0,8,,,,,6,,,38,0
64832,note_off,,,,,320,0,10,,,,,8,,,50,0
64844,note_off,,,,,140,0,5,,,,,3,,,69,0
64848,note_on,,,,,4,0,5,,,,,3,,,66,117
64892,note_off,,,,,92,0,1,,,,,0,,,83,0
64892,note_off,,,,,188,0,3,,,,,10,,,50,0
64892,note_off,,,,,188,0,2,,,,,1,,,66,0
64892,note_off,,,,,92,0,4,,,,,2,,,83,0
64892,note_off,,,,,44,0,5,,,,,3,,,66,0
64892,note_off,,,,,188,0,6,,,,,4,,,62,0
64896,note_on,,,,,4,0,5,,,,,3,,,75,117
64896,note_on,,,,,64,0,7,,,,,5,,,51,92
64896,note_on,,,,,4,0,4,,,,,2,,,83,117
64896,note_on,,,,,4,0,3,,,,,10,,,51,92
64896,note_on,,,,,64,0,10,,,,,8,,,51,60
64896,note_on,,,,,4,0,2,,,,,1,,,83,92
64896,note_on,,,,,4,0,1,,,,,0,,,83,92
64896,note_on,,,,,64,0,8,,,,,6,,,39,77
64992,note_on,,,,,100,0,6,,,,,4,,,66,92
65084,note_off,,,,,188,0,2,,,,,1,,,83,0
65084,note_off,,,,,92,0,6,,,,,4,,,66,0
65084,note_off,,,,,188,0,5,,,,,3,,,75,0
65088,note_on,,,,,4,0,2,,,,,1,,,71,92
65088,note_on,,,,,4,0,5,,,,,3,,,66,117
65088,note_on,,,,,4,0,6,,,,,4,,,71,92
65180,note_off,,,,,284,0,3,,,,,10,,,51,0
65180,note_off,,,,,284,0,1,,,,,0,,,83,0
65180,note_off,,,,,284,0,4,,,,,2,,,83,0
65184,note_on,,,,,4,0,3,,,,,10,,,51,92
65184,note_on,,,,,4,0,1,,,,,0,,,81,92
65184,note_on,,,,,4,0,4,,,,,2,,,81,117
65216,note_off,,,,,320,0,7,,,,,5,,,51,0
65216,note_off,,,,,320,0,8,,,,,6,,,39,0
65216,note_off,,,,,320,0,10,,,,,8,,,51,0
65228,note_off,,,,,140,0,6,,,,,4,,,71,0
65232,note_on,,,,,4,0,6,,,,,4,,,66,92
65276,note_off,,,,,188,0,2,,,,,1,,,71,0
65276,note_off,,,,,92,0,1,,,,,0,,,81,0
65276,note_off,,,,,188,0,5,,,,,3,,,66,0
65276,note_off,,,,,44,0,6,,,,,4,,,66,0
65276,note_off,,,,,92,0,3,,,,,10,,,51,0
65276,note_off,,,,,92,0,4,,,,,2,,,81,0
65280,note_on,,,,,64,0,10,,,,,8,,,52,60
65280,note_on,,,,,64,0,7,,,,,5,,,52,92
65280,note_on,,,,,4,0,2,,,,,1,,,76,92
65280,note_on,,,,,64,0,8,,,,,6,,,40,77
65280,note_on,,,,,4,0,4,,,,,2,,,80,117
65280,note_on,,,,,4,0,6,,,,,4,,,59,92
65280,note_on,,,,,4,0,1,,,,,0,,,80,92
65280,note_on,,,,,4,0,3,,,,,10,,,52,92
65376,note_on,,,,,100,0,5,,,,,3,,,71,117
65420,note_off,,,,,140,0,2,,,,,1,,,76,0
65420,note_off,,,,,140,0,4,,,,,2,,,80,0
65420,note_off,,,,,140,0,1,,,,,0,,,80,0
65424,note_on,,,,,4,0,4,,,,,2,,,78,117
65424,note_on,,,,,4,0,2,,,,,1,,,78,92
65424,note_on,,,,,4,0,1,,,,,0,,,78,92
65468,note_off,,,,,44,0,2,,,,,1,,,78,0
65468,note_off,,,,,188,0,6,,,,,4,,,59,0
65468,note_off,,,,,44,0,4,,,,,2,,,78,0
65468,note_off,,,,,44,0,1,,,,,0,,,78,0
65468,note_off,,,,,92,0,5,,,,,3,,,71,0
65468,note_off,,,,,188,0,3,,,,,10,,,52,0
65472,note_on,,,,,4,0,1,,,,,0,,,76,92
65472,note_on,,,,,4,0,5,,,,,3,,,80,117
65472,note_on,,,,,4,0,3,,,,,10,,,52,92
65472,note_on,,,,,4,0,2,,,,,1,,,80,92
65472,note_on,,,,,4,0,4,,,,,2,,,76,117
65472,note_on,,,,,4,0,6,,,,,4,,,71,92
65600,note_off,,,,,320,0,8,,,,,6,,,40,0
65600,note_off,,,,,320,0,10,,,,,8,,,52,0
65600,note_off,,,,,320,0,7,,,,,5,,,52,0
65612,note_off,,,,,140,0,3,,,,,10,,,52,0
65612,note_off,,,,,140,0,2,,,,,1,,,80,0
65612,note_off,,,,,140,0,5,,,,,3,,,80,0
65616,note_on,,,,,4,0,3,,,,,10,,,54,92
65616,note_on,,,,,4,0,2,,,,,1,,,81,92
65616,note_on,,,,,4,0,5,,,,,3,,,81,117
65660,note_off,,,,,44,0,5,,,,,3,,,81,0
65660,note_off,,,,,188,0,6,,,,,4,,,71,0
65660,note_off,,,,,188,0,4,,,,,2,,,76,0
65660,note_off,,,,,188,0,1,,,,,0,,,76,0
65660,note_off,,,,,44,0,3,,,,,10,,,54,0
65660,note_off,,,,,44,0,2,,,,,1,,,81,0
65664,note_on,,,,,64,0,10,,,,,8,,,56,60
65664,note_on,,,,,64,0,7,,,,,5,,,56,92
65664,note_on,,,,,4,0,3,,,,,10,,,56,92
65664,note_on,,,,,4,0,5,,,,,3,,,83,117
65664,note_on,,,,,4,0,2,,,,,1,,,83,92
65664,note_on,,,,,4,0,6,,,,,4,,,64,92
65664,note_on,,,,,64,0,8,,,,,6,,,44,77
65760,note_on,,,,,100,0,4,,,,,2,,,76,117
65760,note_on,,,,,100,0,1,,,,,0,,,76,92
65852,note_off,,,,,92,0,4,,,,,2,,,76,0
65852,note_off,,,,,188,0,2,,,,,1,,,83,0
65852,note_off,,,,,188,0,5,,,,,3,,,83,0
65852,note_off,,,,,188,0,6,,,,,4,,,64,0
65852,note_off,,,,,92,0,1,,,,,0,,,76,0
65856,note_on,,,,,4,0,5,,,,,3,,,80,117
65856,note_on,,,,,4,0,4,,,,,2,,,83,117
65856,note_on,,,,,4,0,2,,,,,1,,,80,92
65856,note_on,,,,,4,0,6,,,,,4,,,64,92
65856,note_on,,,,,4,0,1,,,,,0,,,83,92
65948,note_off,,,,,284,0,3,,,,,10,,,56,0
65952,note_on,,,,,4,0,3,,,,,10,,,56,92
65984,note_off,,,,,320,0,7,,,,,5,,,56,0
65984,note_off,,,,,320,0,10,,,,,8,,,56,0
65984,note_off,,,,,320,0,8,,,,,6,,,44,0
65996,note_off,,,,,140,0,5,,,,,3,,,80,0
65996,note_off,,,,,140,0,1,,,,,0,,,83,0
65996,note_off,,,,,140,0,4,,,,,2,,,83,0
65996,note_off,,,,,140,0,2,,,,,1,,,80,0
66000,note_on,,,,,4,0,2,,,,,1,,,78,92
66000,note_on,,,,,4,0,4,,,,,2,,,86,117
66000,note_on,,,,,4,0,1,,,,,0,,,86,92
66000,note_on,,,,,4,0,5,,,,,3,,,78,117
66044,note_off,,,,,92,0,3,,,,,10,,,56,0
66044,note_off,,,,,44,0,4,,,,,2,,,86,0
66044,note_off,,,,,44,0,1,,,,,0,,,86,0
66044,note_off,,,,,44,0,2,,,,,1,,,78,0
66044,note_off,,,,,188,0,6,,,,,4,,,64,0
66044,note_off,,,,,44,0,5,,,,,3,,,78,0
66048,note_on,,,,,4,0,6,,,,,4,,,69,92
66048,note_on,,,,,64,0,10,,,,,8,,,57,60
66048,note_on,,,,,64,0,8,,,,,6,,,45,77
66048,note_on,,,,,64,0,7,,,,,5,,,57,92
66048,note_on,,,,,4,0,2,,,,,1,,,76,92
66048,note_on,,,,,4,0,1,,,,,0,,,85,92
66048,note_on,,,,,4,0,3,,,,,10,,,57,92
66048,note_on,,,,,4,0,4,,,,,2,,,85,117
66048,note_on,,,,,4,0,5,,,,,3,,,76,117
66188,note_off,,,,,140,0,4,,,,,2,,,85,0
66188,note_off,,,,,140,0,1,,,,,0,,,85,0
66192,note_on,,,,,4,0,4,,,,,2,,,81,117
66192,note_on,,,,,4,0,1,,,,,0,,,81,92
66236,note_off,,,,,188,0,3,,,,,10,,,57,0
66236,note_off,,,,,188,0,8,,,,,6,,,45,0
66236,note_off,,,,,44,0,4,,,,,2,,,81,0
66236,note_off,,,,,44,0,1,,,,,0,,,81,0
66236,note_off,,,,,188,0,5,,,,,3,,,76,0
66236,note_off,,,,,188,0,6,,,,,4,,,69,0
66236,note_off,,,,,188,0,10,,,,,8,,,57,0
66236,note_off,,,,,188,0,7,,,,,5,,,57,0
66236,note_off,,,,,188,0,2,,,,,1,,,76,0
66240,note_on,,,,,4,0,8,,,,,6,,,38,77
66240,note_on,,,,,4,0,4,,,,,2,,,83,117
66240,note_on,,,,,4,0,6,,,,,4,,,66,92
66240,note_on,,,,,4,0,5,,,,,3,,,74,117
66240,note_on,,,,,4,0,1,,,,,0,,,83,92
66240,note_on,,,,,4,0,2,,,,,1,,,74,92
66240,note_on,,,,,4,0,7,,,,,5,,,50,92
66240,note_on,,,,,4,0,10,,,,,8,,,50,60
66240,note_on,,,,,4,0,3,,,,,10,,,50,92
66380,note_off,,,,,140,0,2,,,,,1,,,74,0
66380,note_off,,,,,140,0,5,,,,,3,,,74,0
66380,note_off,,,,,140,0,1,,,,,0,,,83,0
66380,note_off,,,,,140,0,4,,,,,2,,,83,0
66384,note_on,,,,,4,0,4,,,,,2,,,78,117
66384,note_on,,,,,4,0,2,,,,,1,,,73,92
66384,note_on,,,,,4,0,1,,,,,0,,,78,92
66384,note_on,,,,,4,0,5,,,,,3,,,73,117
66428,note_off,,,,,188,0,10,,,,,8,,,50,0
66428,note_off,,,,,44,0,1,,,,,0,,,78,0
66428,note_off,,,,,44,0,2,,,,,1,,,73,0
66428,note_off,,,,,188,0,6,,,,,4,,,66,0
66428,note_off,,,,,44,0,5,,,,,3,,,73,0
66428,note_off,,,,,188,0,8,,,,,6,,,38,0
66428,note_off,,,,,188,0,3,,,,,10,,,50,0
66428,note_off,,,,,188,0,7,,,,,5,,,50,0
66428,note_off,,,,,44,0,4,,,,,2,,,78,0
66432,note_on,,,,,4,0,5,,,,,3,,,73,117
66432,note_on,,,,,4,0,1,,,,,0,,,81,92
66432,note_on,,,,,4,0,2,,,,,1,,,73,92
66432,note_on,,,,,4,0,7,,,,,5,,,52,92
66432,note_on,,,,,4,0,3,,,,,10,,,52,92
66432,note_on,,,,,4,0,8,,,,,6,,,40,77
66432,note_on,,,,,4,0,10,,,,,8,,,52,60
66432,note_on,,,,,4,0,6,,,,,4,,,71,92
66432,note_on,,,,,4,0,4,,,,,2,,,81,117
66456,note_off,,,,,24,0,2,,,,,1,,,73,0
66456,note_off,,,,,24,0,5,,,,,3,,,73,0
66456,note_on,,,,,0,0,2,,,,,1,,,71,92
66456,note_on,,,,,0,0,5,,,,,3,,,71,117
66456,note_off,,,,,24,0,4,,,,,2,,,81,0
66456,note_on,,,,,0,0,1,,,,,0,,,80,92
66456,note_off,,,,,24,0,1,,,,,0,,,81,0
66456,note_on,,,,,0,0,4,,,,,2,,,80,117
66480,note_on,,,,,0,0,2,,,,,1,,,73,92
66480,note_off,,,,,24,0,2,,,,,1,,,71,0
66480,note_on,,,,,0,0,5,,,,,3,,,73,117
66480,note_on,,,,,0,0,1,,,,,0,,,81,92
66480,note_off,,,,,24,0,5,,,,,3,,,71,0
66480,note_on,,,,,0,0,4,,,,,2,,,81,117
66480,note_off,,,,,24,0,4,,,,,2,,,80,0
66480,note_off,,,,,24,0,1,,,,,0,,,80,0
66504,note_off,,,,,24,0,1,,,,,0,,,81,0
66504,note_on,,,,,0,0,1,,,,,0,,,80,92
66504,note_off,,,,,24,0,5,,,,,3,,,73,0
66504,note_off,,,,,24,0,2,,,,,1,,,73,0
66504,note_on,,,,,0,0,2,,,,,1,,,71,92
66504,note_on,,,,,0,0,5,,,,,3,,,71,117
66504,note_off,,,,,24,0,4,,,,,2,,,81,0
66504,note_on,,,,,0,0,4,,,,,2,,,80,117
66528,note_off,,,,,24,0,2,,,,,1,,,71,0
66528,note_off,,,,,24,0,5,,,,,3,,,71,0
66528,note_on,,,,,0,0,5,,,,,3,,,73,117
66528,note_on,,,,,0,0,1,,,,,0,,,81,92
66528,note_off,,,,,24,0,1,,,,,0,,,80,0
66528,note_on,,,,,0,0,4,,,,,2,,,81,117
66528,note_off,,,,,24,0,4,,,,,2,,,80,0
66528,note_on,,,,,0,0,2,,,,,1,,,73,92
66552,note_off,,,,,24,0,5,,,,,3,,,73,0
66552,note_off,,,,,24,0,1,,,,,0,,,81,0
66552,note_on,,,,,0,0,1,,,,,0,,,80,92
66552,note_off,,,,,24,0,2,,,,,1,,,73,0
66552,note_on,,,,,0,0,5,,,,,3,,,71,117
66552,note_on,,,,,0,0,2,,,,,1,,,71,92
66552,note_off,,,,,24,0,4,,,,,2,,,81,0
66552,note_on,,,,,0,0,4,,,,,2,,,80,117
66576,note_off,,,,,24,0,5,,,,,3,,,71,0
66576,note_on,,,,,0,0,2,,,,,1,,,73,92
66576,note_off,,,,,24,0,2,,,,,1,,,71,0
66576,note_on,,,,,0,0,5,,,,,3,,,73,117
66576,note_on,,,,,0,0,1,,,,,0,,,81,92
66576,note_on,,,,,0,0,4,,,,,2,,,81,117
66576,note_off,,,,,24,0,1,,,,,0,,,80,0
66576,note_off,,,,,24,0,4,,,,,2,,,80,0
66600,note_off,,,,,24,0,4,,,,,2,,,81,0
66600,note_off,,,,,24,0,5,,,,,3,,,73,0
66600,note_off,,,,,24,0,1,,,,,0,,,81,0
66600,note_on,,,,,0,0,1,,,,,0,,,80,92
66600,note_off,,,,,24,0,2,,,,,1,,,73,0
66600,note_on,,,,,0,0,2,,,,,1,,,71,92
66600,note_on,,,,,0,0,4,,,,,2,,,80,117
66600,note_on,,,,,0,0,5,,,,,3,,,71,117
66620,note_off,,,,,188,0,8,,,,,6,,,40,0
66620,note_off,,,,,188,0,3,,,,,10,,,52,0
66620,note_off,,,,,188,0,10,,,,,8,,,52,0
66620,note_off,,,,,188,0,6,,,,,4,,,71,0
66620,note_off,,,,,188,0,7,,,,,5,,,52,0
66624,note_off,,,,,24,0,4,,,,,2,,,80,0
66624,note_off,,,,,24,0,5,,,,,3,,,71,0
66624,note_off,,,,,24,0,1,,,,,0,,,80,0
66624,note_on,,,,,4,0,6,,,,,4,,,64,92
66624,note_on,,,,,0,0,5,,,,,3,,,73,117
66624,note_on,,,,,0,0,1,,,,,0,,,81,92
66624,note_on,,,,,4,0,3,,,,,10,,,40,92
66624,note_on,,,,,4,0,10,,,,,8,,,40,60
66624,note_on,,,,,0,0,4,,,,,2,,,81,117
66624,note_on,,,,,4,0,7,,,,,5,,,40,92
66624,note_on,,,,,4,0,8,,,,,6,,,28,77
66624,note_off,,,,,24,0,2,,,,,1,,,71,0
66624,note_on,,,,,0,0,2,,,,,1,,,73,92
66648,note_off,,,,,24,0,4,,,,,2,,,81,0
66648,note_on,,,,,0,0,4,,,,,2,,,80,117
66648,note_off,,,,,24,0,1,,,,,0,,,81,0
66648,note_off,,,,,24,0,5,,,,,3,,,73,0
66648,note_on,,,,,0,0,1,,,,,0,,,80,92
66648,note_off,,,,,24,0,2,,,,,1,,,73,0
66648,note_on,,,,,0,0,2,,,,,1,,,71,92
66648,note_on,,,,,0,0,5,,,,,3,,,71,117
66716,note_off,,,,,68,0,5,,,,,3,,,71,0
66716,note_off,,,,,68,0,2,,,,,1,,,71,0
66716,note_off,,,,,68,0,4,,,,,2,,,80,0
66716,note_off,,,,,68,0,1,,,,,0,,,80,0
66720,note_on,,,,,4,0,5,,,,,3,,,76,117
66720,note_on,,,,,4,0,2,,,,,1,,,76,92
66720,note_on,,,,,4,0,4,,,,,2,,,81,117
66720,note_on,,,,,4,0,1,,,,,0,,,81,92
66812,note_off,,,,,188,0,10,,,,,8,,,40,0
66812,note_off,,,,,188,0,8,,,,,6,,,28,0
66812,note_off,,,,,188,0,7,,,,,5,,,40,0
66812,note_off,,,,,92,0,1,,,,,0,,,81,0
66812,note_off,,,,,92,0,2,,,,,1,,,76,0
66812,note_off,,,,,188,0,3,,,,,10,,,40,0
66812,note_off,,,,,92,0,4,,,,,2,,,81,0
66812,note_off,,,,,188,0,6,,,,,4,,,64,0
66812,note_off,,,,,92,0,5,,,,,3,,,76,0
66816,note_on,,,,,4,0,4,,,,,2,,,81,117
66816,note_on,,,,,4,0,5,,,,,3,,,73,117
66816,note_on,,,,,4,0,10,,,,,8,,,45,60
66816,note_on,,,,,4,0,2,,,,,1,,,73,92
66816,note_on,,,,,4,0,1,,,,,0,,,81,92
66816,note_on,,,,,4,0,6,,,,,4,,,64,92
66816,note_on,,,,,4,0,3,,,,,10,,,45,92
66816,note_on,,,,,4,0,7,,,,,5,,,45,92
66816,note_on,,,,,4,0,8,,,,,6,,,33,77
67004,note_off,,,,,188,0,1,,,,,0,,,81,0
67004,note_off,,,,,188,0,4,,,,,2,,,81,0
67008,note_on,,,,,4,0,4,,,,,2,,,69,117
67008,note_on,,,,,4,0,1,,,,,0,,,69,92
67136,note_off,,,,,320,0,6,,,,,4,,,64,0
67136,note_off,,,,,320,0,10,,,,,8,,,45,0
67136,note_off,,,,,320,0,5,,,,,3,,,73,0
67136,note_off,,,,,320,0,2,,,,,1,,,73,0
67136,note_off,,,,,320,0,8,,,,,6,,,33,0
67136,note_off,,,,,320,0,7,,,,,5,,,45,0
67136,note_off,,,,,320,0,3,,,,,10,,,45,0
67196,note_off,,,,,188,0,4,,,,,2,,,69,0
67196,note_off,,,,,188,0,1,,,,,0,,,69,0
67296,note_on,,,,,100,0,1,,,,,0,,,74,92
67296,note_on,,,,,160,0,2,,,,,1,,,71,92
67392,note_off,,,,,96,0,2,,,,,1,,,71,0
67392,note_on,,,,,0,0,2,,,,,1,,,73,92
67392,note_on,,,,,0,0,1,,,,,0,,,76,92
67392,note_off,,,,,96,0,1,,,,,0,,,74,0
67488,note_off,,,,,96,0,2,,,,,1,,,73,0
67488,note_on,,,,,0,0,2,,,,,1,,,74,92
67488,note_on,,,,,0,0,1,,,,,0,,,78,92
67488,note_off,,,,,96,0,1,,,,,0,,,76,0
67580,note_off,,,,,92,0,1,,,,,0,,,78,0
67580,note_off,,,,,92,0,2,,,,,1,,,74,0
67584,note_on,,,,,4,0,1,,,,,0,,,76,92
67584,note_on,,,,,4,0,2,,,,,1,,,73,92
67680,note_off,,,,,96,0,1,,,,,0,,,76,0
67680,note_off,,,,,96,0,2,,,,,1,,,73,0
67680,note_on,,,,,0,0,1,,,,,0,,,74,92
67680,note_on,,,,,0,0,2,,,,,1,,,71,92
67776,note_off,,,,,96,0,2,,,,,1,,,71,0
67776,note_off,,,,,96,0,1,,,,,0,,,74,0
67776,note_on,,,,,0,0,1,,,,,0,,,73,92
67776,note_on,,,,,0,0,2,,,,,1,,,69,92
67964,note_off,,,,,188,0,1,,,,,0,,,73,0
67964,note_off,,,,,188,0,2,,,,,1,,,69,0
68064,note_on,,,,,868,0,4,,,,,2,,,74,95
68064,note_on,,,,,928,0,5,,,,,3,,,71,95
68160,note_off,,,,,96,0,5,,,,,3,,,71,0
68160,note_on,,,,,0,0,4,,,,,2,,,76,95
68160,note_off,,,,,96,0,4,,,,,2,,,74,0
68160,note_on,,,,,0,0,5,,,,,3,,,73,95
68256,note_on,,,,,0,0,5,,,,,3,,,74,95
68256,note_off,,,,,96,0,5,,,,,3,,,73,0
68256,note_off,,,,,96,0,4,,,,,2,,,76,0
68256,note_on,,,,,0,0,4,,,,,2,,,78,95
68348,note_off,,,,,92,0,4,,,,,2,,,78,0
68348,note_off,,,,,92,0,5,,,,,3,,,74,0
68352,note_on,,,,,4,0,5,,,,,3,,,73,95
68352,note_on,,,,,4,0,4,,,,,2,,,76,95
68448,note_on,,,,,0,0,4,,,,,2,,,74,95
68448,note_off,,,,,96,0,4,,,,,2,,,76,0
68448,note_off,,,,,96,0,5,,,,,3,,,73,0
68448,note_on,,,,,0,0,5,,,,,3,,,71,95
68544,note_off,,,,,96,0,5,,,,,3,,,71,0
68544,note_on,,,,,0,0,4,,,,,2,,,73,95
68544,note_off,,,,,96,0,4,,,,,2,,,74,0
68544,note_on,,,,,0,0,5,,,,,3,,,69,95
68732,note_off,,,,,188,0,5,,,,,3,,,69,0
68732,note_off,,,,,188,0,4,,,,,2,,,73,0
68832,note_on,,,,,1696,0,3,,,,,10,,,62,75
68832,note_on,,,,,868,0,1,,,,,0,,,71,92
68928,note_on,,,,,0,0,1,,,,,0,,,73,92
68928,note_off,,,,,96,0,1,,,,,0,,,71,0
68928,note_on,,,,,0,0,3,,,,,10,,,64,75
68928,note_off,,,,,96,0,3,,,,,10,,,62,0
69024,note_on,,,,,0,0,1,,,,,0,,,74,92
69024,note_off,,,,,96,0,1,,,,,0,,,73,0
69024,note_on,,,,,0,0,3,,,,,10,,,66,75
69024,note_off,,,,,96,0,3,,,,,10,,,64,0
69116,note_off,,,,,92,0,1,,,,,0,,,74,0
69116,note_off,,,,,92,0,3,,,,,10,,,66,0
69120,note_on,,,,,4,0,1,,,,,0,,,73,92
69120,note_on,,,,,4,0,3,,,,,10,,,64,75
69216,note_off,,,,,96,0,3,,,,,10,,,64,0
69216,note_on,,,,,0,0,3,,,,,10,,,62,75
69216,note_off,,,,,96,0,1,,,,,0,,,73,0
69216,note_on,,,,,0,0,1,,,,,0,,,71,92
69312,note_off,,,,,96,0,3,,,,,10,,,62,0
69312,note_on,,,,,0,0,3,,,,,10,,,61,75
69312,note_on,,,,,0,0,1,,,,,0,,,69,92
69312,note_off,,,,,96,0,1,,,,,0,,,71,0
69500,note_off,,,,,188,0,3,,,,,10,,,61,0
69500,note_off,,,,,188,0,1,,,,,0,,,69,0
69600,note_on,,,,,868,0,5,,,,,3,,,62,95
69600,note_on,,,,,2464,0,6,,,,,4,,,62,75
69600,note_on,,,,,868,0,4,,,,,2,,,71,95
69696,note_on,,,,,0,0,4,,,,,2,,,73,95
69696,note_off,,,,,96,0,6,,,,,4,,,62,0
69696,note_on,,,,,0,0,6,,,,,4,,,64,75
69696,note_off,,,,,96,0,4,,,,,2,,,71,0
69696,note_on,,,,,0,0,5,,,,,3,,,64,95
69696,note_off,,,,,96,0,5,,,,,3,,,62,0
69792,note_off,,,,,96,0,4,,,,,2,,,73,0
69792,note_off,,,,,96,0,6,,,,,4,,,64,0
69792,note_on,,,,,0,0,4,,,,,2,,,74,95
69792,note_off,,,,,96,0,5,,,,,3,,,64,0
69792,note_on,,,,,0,0,5,,,,,3,,,66,95
69792,note_on,,,,,0,0,6,,,,,4,,,66,75
69884,note_off,,,,,92,0,6,,,,,4,,,66,0
69884,note_off,,,,,92,0,4,,,,,2,,,74,0
69884,note_off,,,,,92,0,5,,,,,3,,,66,0
69888,note_on,,,,,4,0,6,,,,,4,,,64,75
69888,note_on,,,,,4,0,4,,,,,2,,,73,95
69888,note_on,,,,,4,0,5,,,,,3,,,64,95
69984,note_on,,,,,0,0,5,,,,,3,,,62,95
69984,note_off,,,,,96,0,4,,,,,2,,,73,0
69984,note_on,,,,,0,0,4,,,,,2,,,71,95
69984,note_off,,,,,96,0,6,,,,,4,,,64,0
69984,note_on,,,,,0,0,6,,,,,4,,,62,75
69984,note_off,,,,,96,0,5,,,,,3,,,64,0
70080,note_on,,,,,0,0,4,,,,,2,,,69,95
70080,note_off,,,,,96,0,5,,,,,3,,,62,0
70080,note_on,,,,,0,0,5,,,,,3,,,61,95
70080,note_off,,,,,96,0,6,,,,,4,,,62,0
70080,note_on,,,,,0,0,6,,,,,4,,,61,75
70080,note_off,,,,,96,0,4,,,,,2,,,71,0
70268,note_off,,,,,188,0,6,,,,,4,,,61,0
70268,note_off,,,,,188,0,4,,,,,2,,,69,0
70268,note_off,,,,,188,0,5,,,,,3,,,61,0
70464,note_on,,,,,964,0,1,,,,,0,,,71,45
70464,note_on,,,,,196,0,4,,,,,2,,,71,57
70464,note_on,,,,,2500,0,2,,,,,1,,,71,45
70652,note_off,,,,,188,0,1,,,,,0,,,71,0
70652,note_off,,,,,188,0,2,,,,,1,,,71,0
70652,note_off,,,,,188,0,4,,,,,2,,,71,0
70656,note_on,,,,,4,0,1,,,,,0,,,72,45
70656,note_on,,,,,4,0,4,,,,,2,,,72,57
70656,note_on,,,,,4,0,2,,,,,1,,,72,45
70844,note_off,,,,,188,0,1,,,,,0,,,72,0
70844,note_off,,,,,188,0,2,,,,,1,,,72,0
70844,note_off,,,,,188,0,4,,,,,2,,,72,0
70848,note_on,,,,,4,0,4,,,,,2,,,72,57
70848,note_on,,,,,4,0,2,,,,,1,,,72,45
70848,note_on,,,,,4,0,1,,,,,0,,,72,45
70848,note_on,,,,,580,0,5,,,,,3,,,64,57
70848,note_on,,,,,580,0,6,,,,,4,,,64,45
71036,note_off,,,,,188,0,5,,,,,3,,,64,0
71036,note_off,,,,,188,0,6,,,,,4,,,64,0
71036,note_off,,,,,188,0,1,,,,,0,,,72,0
71036,note_off,,,,,188,0,2,,,,,1,,,72,0
71036,note_off,,,,,188,0,4,,,,,2,,,72,0
71040,note_on,,,,,4,0,4,,,,,2,,,72,57
71040,note_on,,,,,4,0,1,,,,,0,,,72,45
71040,note_on,,,,,4,0,6,,,,,4,,,67,45
71040,note_on,,,,,4,0,5,,,,,3,,,67,57
71040,note_on,,,,,4,0,2,,,,,1,,,72,45
71228,note_off,,,,,188,0,4,,,,,2,,,72,0
71228,note_off,,,,,188,0,6,,,,,4,,,67,0
71228,note_off,,,,,188,0,5,,,,,3,,,67,0
71228,note_off,,,,,188,0,2,,,,,1,,,72,0
71228,note_off,,,,,188,0,1,,,,,0,,,72,0
71232,note_on,,,,,4,0,4,,,,,2,,,72,57
71232,note_on,,,,,4,0,6,,,,,4,,,64,45
71232,note_on,,,,,4,0,2,,,,,1,,,72,45
71232,note_on,,,,,4,0,5,,,,,3,,,64,57
71232,note_on,,,,,4,0,1,,,,,0,,,72,45
71420,note_off,,,,,188,0,4,,,,,2,,,72,0
71420,note_off,,,,,188,0,2,,,,,1,,,72,0
71420,note_off,,,,,188,0,6,,,,,4,,,64,0
71420,note_off,,,,,188,0,5,,,,,3,,,64,0
71420,note_off,,,,,188,0,1,,,,,0,,,72,0
71424,note_on,,,,,4,0,2,,,,,1,,,73,45
71424,note_on,,,,,4,0,1,,,,,0,,,73,45
71424,note_on,,,,,4,0,4,,,,,2,,,73,57
71516,note_off,,,,,92,0,1,,,,,0,,,73,0
71516,note_off,,,,,92,0,4,,,,,2,,,73,0
71516,note_off,,,,,92,0,2,,,,,1,,,73,0
71520,note_on,,,,,4,0,1,,,,,0,,,73,45
71520,note_on,,,,,4,0,4,,,,,2,,,73,57
71520,note_on,,,,,4,0,2,,,,,1,,,73,45
71612,note_off,,,,,92,0,1,,,,,0,,,73,0
71612,note_off,,,,,92,0,2,,,,,1,,,73,0
71612,note_off,,,,,92,0,4,,,,,2,,,73,0
71616,note_on,,,,,4480,0,7,,,,,5,,,52,45
71616,note_on,,,,,4,0,2,,,,,1,,,73,45
71616,note_on,,,,,4480,0,8,,,,,6,,,40,37
71616,note_on,,,,,2116,0,3,,,,,10,,,52,45
71616,note_on,,,,,4,0,1,,,,,0,,,73,45
71616,note_on,,,,,4,0,4,,,,,2,,,73,57
71616,note_on,,,,,4480,0,10,,,,,8,,,52,45
71708,note_off,,,,,92,0,4,,,,,2,,,73,0
71708,note_off,,,,,92,0,2,,,,,1,,,73,0
71708,note_off,,,,,92,0,1,,,,,0,,,73,0
71712,note_on,,,,,4,0,2,,,,,1,,,73,45
71712,note_on,,,,,4,0,1,,,,,0,,,73,45
71712,note_on,,,,,4,0,4,,,,,2,,,73,57
71804,note_off,,,,,188,0,3,,,,,10,,,52,0
71804,note_off,,,,,92,0,1,,,,,0,,,73,0
71804,note_off,,,,,188,0,10,,,,,8,,,52,0
71804,note_off,,,,,188,0,7,,,,,5,,,52,0
71804,note_off,,,,,92,0,2,,,,,1,,,73,0
71804,note_off,,,,,92,0,4,,,,,2,,,73,0
71804,note_off,,,,,188,0,8,,,,,6,,,40,0
71808,note_on,,,,,4,0,3,,,,,10,,,55,45
71808,note_on,,,,,4,0,10,,,,,8,,,55,45
71808,note_on,,,,,4,0,7,,,,,5,,,55,45
71808,note_on,,,,,4,0,4,,,,,2,,,73,57
71808,note_on,,,,,4,0,1,,,,,0,,,73,45
71808,note_on,,,,,4,0,2,,,,,1,,,73,45
71808,note_on,,,,,4,0,8,,,,,6,,,43,37
71900,note_off,,,,,92,0,2,,,,,1,,,73,0
71900,note_off,,,,,92,0,4,,,,,2,,,73,0
71900,note_off,,,,,92,0,1,,,,,0,,,73,0
71904,note_on,,,,,4,0,2,,,,,1,,,73,45
71904,note_on,,,,,4,0,4,,,,,2,,,73,57
71904,note_on,,,,,4,0,1,,,,,0,,,73,45
71996,note_off,,,,,92,0,4,,,,,2,,,73,0
71996,note_off,,,,,92,0,1,,,,,0,,,73,0
71996,note_off,,,,,188,0,10,,,,,8,,,55,0
71996,note_off,,,,,188,0,7,,,,,5,,,55,0
71996,note_off,,,,,92,0,2,,,,,1,,,73,0
71996,note_off,,,,,188,0,8,,,,,6,,,43,0
71996,note_off,,,,,188,0,3,,,,,10,,,55,0
72000,note_on,,,,,4,0,8,,,,,6,,,40,37
72000,note_on,,,,,4,0,1,,,,,0,,,73,45
72000,note_on,,,,,4,0,2,,,,,1,,,73,45
72000,note_on,,,,,4,0,4,,,,,2,,,73,57
72000,note_on,,,,,4,0,3,,,,,10,,,52,45
72000,note_on,,,,,4,0,10,,,,,8,,,52,45
72000,note_on,,,,,4,0,7,,,,,5,,,52,45
72092,note_off,,,,,92,0,1,,,,,0,,,73,0
72092,note_off,,,,,92,0,4,,,,,2,,,73,0
72092,note_off,,,,,92,0,2,,,,,1,,,73,0
72096,note_on,,,,,4,0,2,,,,,1,,,73,45
72096,note_on,,,,,4,0,1,,,,,0,,,73,45
72096,note_on,,,,,4,0,4,,,,,2,,,73,57
72188,note_off,,,,,92,0,2,,,,,1,,,73,0
72188,note_off,,,,,188,0,8,,,,,6,,,40,0
72188,note_off,,,,,92,0,1,,,,,0,,,73,0
72188,note_off,,,,,188,0,3,,,,,10,,,52,0
72188,note_off,,,,,92,0,4,,,,,2,,,73,0
72188,note_off,,,,,188,0,10,,,,,8,,,52,0
72188,note_off,,,,,188,0,7,,,,,5,,,52,0
72192,note_on,,,,,4,0,1,,,,,0,,,74,45
72192,note_on,,,,,4,0,2,,,,,1,,,74,45
72192,note_on,,,,,4,0,4,,,,,2,,,74,57
72284,note_off,,,,,92,0,4,,,,,2,,,74,0
72284,note_off,,,,,92,0,1,,,,,0,,,74,0
72284,note_off,,,,,92,0,2,,,,,1,,,74,0
72288,note_on,,,,,4,0,2,,,,,1,,,74,45
72288,note_on,,,,,4,0,4,,,,,2,,,74,57
72288,note_on,,,,,4,0,1,,,,,0,,,74,45
72380,note_off,,,,,92,0,4,,,,,2,,,74,0
72380,note_off,,,,,92,0,2,,,,,1,,,74,0
72380,note_off,,,,,92,0,1,,,,,0,,,74,0
72384,note_on,,,,,4,0,4,,,,,2,,,74,57
72384,note_on,,,,,964,0,5,,,,,3,,,66,57
72384,note_on,,,,,4,0,2,,,,,1,,,74,45
72384,note_on,,,,,964,0,6,,,,,4,,,66,45
72384,note_on,,,,,4,0,1,,,,,0,,,74,45
72476,note_off,,,,,92,0,4,,,,,2,,,74,0
72476,note_off,,,,,92,0,2,,,,,1,,,74,0
72476,note_off,,,,,92,0,1,,,,,0,,,74,0
72480,note_on,,,,,4,0,4,,,,,2,,,74,57
72480,note_on,,,,,4,0,2,,,,,1,,,74,45
72480,note_on,,,,,4,0,1,,,,,0,,,74,45
72572,note_off,,,,,188,0,5,,,,,3,,,66,0
72572,note_off,,,,,188,0,6,,,,,4,,,66,0
72572,note_off,,,,,92,0,1,,,,,0,,,74,0
72572,note_off,,,,,92,0,4,,,,,2,,,74,0
72572,note_off,,,,,92,0,2,,,,,1,,,74,0
72576,note_on,,,,,4,0,5,,,,,3,,,69,57
72576,note_on,,,,,4,0,2,,,,,1,,,74,45
72576,note_on,,,,,4,0,6,,,,,4,,,69,45
72576,note_on,,,,,4,0,4,,,,,2,,,74,57
72576,note_on,,,,,4,0,1,,,,,0,,,74,45
72668,note_off,,,,,92,0,1,,,,,0,,,74,0
72668,note_off,,,,,92,0,2,,,,,1,,,74,0
72668,note_off,,,,,92,0,4,,,,,2,,,74,0
72672,note_on,,,,,4,0,2,,,,,1,,,74,45
72672,note_on,,,,,4,0,4,,,,,2,,,74,57
72672,note_on,,,,,4,0,1,,,,,0,,,74,45
72764,note_off,,,,,92,0,2,,,,,1,,,74,0
72764,note_off,,,,,92,0,1,,,,,0,,,74,0
72764,note_off,,,,,188,0,5,,,,,3,,,69,0
72764,note_off,,,,,188,0,6,,,,,4,,,69,0
72764,note_off,,,,,92,0,4,,,,,2,,,74,0
72768,note_on,,,,,4,0,4,,,,,2,,,74,57
72768,note_on,,,,,4,0,5,,,,,3,,,66,57
72768,note_on,,,,,4,0,6,,,,,4,,,66,45
72768,note_on,,,,,4,0,2,,,,,1,,,74,45
72768,note_on,,,,,4,0,1,,,,,0,,,74,45
72860,note_off,,,,,92,0,4,,,,,2,,,74,0
72860,note_off,,,,,92,0,1,,,,,0,,,74,0
72860,note_off,,,,,92,0,2,,,,,1,,,74,0
72864,note_on,,,,,4,0,1,,,,,0,,,74,45
72864,note_on,,,,,4,0,2,,,,,1,,,74,45
72864,note_on,,,,,4,0,4,,,,,2,,,74,57
72956,note_off,,,,,92,0,2,,,,,1,,,74,0
72956,note_off,,,,,92,0,4,,,,,2,,,74,0
72956,note_off,,,,,188,0,6,,,,,4,,,66,0
72956,note_off,,,,,188,0,5,,,,,3,,,66,0
72956,note_off,,,,,92,0,1,,,,,0,,,74,0
72960,note_on,,,,,4,0,1,,,,,0,,,75,45
72960,note_on,,,,,4,0,4,,,,,2,,,75,57
72960,note_on,,,,,4,0,2,,,,,1,,,75,45
73004,note_off,,,,,44,0,4,,,,,2,,,75,0
73004,note_off,,,,,44,0,2,,,,,1,,,75,0
73004,note_off,,,,,44,0,1,,,,,0,,,75,0
73008,note_on,,,,,4,0,4,,,,,2,,,75,57
73008,note_on,,,,,4,0,2,,,,,1,,,75,45
73008,note_on,,,,,4,0,1,,,,,0,,,75,45
73052,note_off,,,,,44,0,4,,,,,2,,,75,0
73052,note_off,,,,,44,0,1,,,,,0,,,75,0
73052,note_off,,,,,44,0,2,,,,,1,,,75,0
73056,note_on,,,,,4,0,4,,,,,2,,,75,57
73056,note_on,,,,,4,0,1,,,,,0,,,75,45
73056,note_on,,,,,4,0,2,,,,,1,,,75,45
73100,note_off,,,,,44,0,1,,,,,0,,,75,0
73100,note_off,,,,,44,0,2,,,,,1,,,75,0
73100,note_off,,,,,44,0,4,,,,,2,,,75,0
73104,note_on,,,,,4,0,4,,,,,2,,,75,57
73104,note_on,,,,,4,0,2,,,,,1,,,75,45
73104,note_on,,,,,4,0,1,,,,,0,,,75,45
73148,note_off,,,,,44,0,1,,,,,0,,,75,0
73148,note_off,,,,,44,0,4,,,,,2,,,75,0
73148,note_off,,,,,44,0,2,,,,,1,,,75,0
73152,note_on,,,,,4,0,4,,,,,2,,,75,57
73152,note_on,,,,,964,0,10,,,,,8,,,54,45
73152,note_on,,,,,964,0,7,,,,,5,,,54,45
73152,note_on,,,,,964,0,8,,,,,6,,,42,37
73152,note_on,,,,,964,0,3,,,,,10,,,54,45
73152,note_on,,,,,4,0,2,,,,,1,,,75,45
73152,note_on,,,,,4,0,1,,,,,0,,,75,45
73196,note_off,,,,,44,0,2,,,,,1,,,75,0
73196,note_off,,,,,44,0,4,,,,,2,,,75,0
73196,note_off,,,,,44,0,1,,,,,0,,,75,0
73200,note_on,,,,,4,0,1,,,,,0,,,75,45
73200,note_on,,,,,4,0,2,,,,,1,,,75,45
73200,note_on,,,,,4,0,4,,,,,2,,,75,57
73244,note_off,,,,,44,0,2,,,,,1,,,75,0
73244,note_off,,,,,44,0,1,,,,,0,,,75,0
73244,note_off,,,,,44,0,4,,,,,2,,,75,0
73248,note_on,,,,,4,0,2,,,,,1,,,75,45
73248,note_on,,,,,4,0,1,,,,,0,,,75,45
73248,note_on,,,,,4,0,4,,,,,2,,,75,57
73292,note_off,,,,,44,0,1,,,,,0,,,75,0
73292,note_off,,,,,44,0,4,,,,,2,,,75,0
73292,note_off,,,,,44,0,2,,,,,1,,,75,0
73296,note_on,,,,,4,0,1,,,,,0,,,75,45
73296,note_on,,,,,4,0,4,,,,,2,,,75,57
73296,note_on,,,,,4,0,2,,,,,1,,,75,45
73340,note_off,,,,,188,0,7,,,,,5,,,54,0
73340,note_off,,,,,188,0,3,,,,,10,,,54,0
73340,note_off,,,,,44,0,2,,,,,1,,,75,0
73340,note_off,,,,,44,0,1,,,,,0,,,75,0
73340,note_off,,,,,188,0,8,,,,,6,,,42,0
73340,note_off,,,,,44,0,4,,,,,2,,,75,0
73340,note_off,,,,,188,0,10,,,,,8,,,54,0
73344,note_on,,,,,4,0,10,,,,,8,,,57,45
73344,note_on,,,,,4,0,8,,,,,6,,,45,37
73344,note_on,,,,,4,0,4,,,,,2,,,75,57
73344,note_on,,,,,4,0,1,,,,,0,,,75,45
73344,note_on,,,,,4,0,3,,,,,10,,,57,45
73344,note_on,,,,,4,0,2,,,,,1,,,75,45
73344,note_on,,,,,4,0,7,,,,,5,,,57,45
73388,note_off,,,,,44,0,4,,,,,2,,,75,0
73388,note_off,,,,,44,0,2,,,,,1,,,75,0
73388,note_off,,,,,44,0,1,,,,,0,,,75,0
73392,note_on,,,,,4,0,4,,,,,2,,,75,57
73392,note_on,,,,,4,0,1,,,,,0,,,75,45
73392,note_on,,,,,4,0,2,,,,,1,,,75,45
73436,note_off,,,,,44,0,4,,,,,2,,,75,0
73436,note_off,,,,,44,0,2,,,,,1,,,75,0
73436,note_off,,,,,44,0,1,,,,,0,,,75,0
73440,note_on,,,,,4,0,4,,,,,2,,,75,57
73440,note_on,,,,,4,0,2,,,,,1,,,75,45
73440,note_on,,,,,4,0,1,,,,,0,,,75,45
73484,note_off,,,,,44,0,4,,,,,2,,,75,0
73484,note_off,,,,,44,0,2,,,,,1,,,75,0
73484,note_off,,,,,44,0,1,,,,,0,,,75,0
73488,note_on,,,,,4,0,4,,,,,2,,,75,57
73488,note_on,,,,,4,0,1,,,,,0,,,75,45
73488,note_on,,,,,4,0,2,,,,,1,,,75,45
73532,note_off,,,,,188,0,8,,,,,6,,,45,0
73532,note_off,,,,,188,0,7,,,,,5,,,57,0
73532,note_off,,,,,44,0,4,,,,,2,,,75,0
73532,note_off,,,,,188,0,3,,,,,10,,,57,0
73532,note_off,,,,,44,0,2,,,,,1,,,75,0
73532,note_off,,,,,44,0,1,,,,,0,,,75,0
73532,note_off,,,,,188,0,10,,,,,8,,,57,0
73536,note_on,,,,,4,0,4,,,,,2,,,75,57
73536,note_on,,,,,4,0,8,,,,,6,,,42,37
73536,note_on,,,,,4,0,7,,,,,5,,,54,45
73536,note_on,,,,,4,0,3,,,,,10,,,54,45
73536,note_on,,,,,4,0,1,,,,,0,,,75,45
73536,note_on,,,,,4,0,10,,,,,8,,,54,45
73536,note_on,,,,,4,0,2,,,,,1,,,75,45
73536,note_on,,,,,580,0,6,,,,,4,,,69,45
73580,note_off,,,,,44,0,2,,,,,1,,,75,0
73580,note_off,,,,,44,0,4,,,,,2,,,75,0
73580,note_off,,,,,44,0,1,,,,,0,,,75,0
73584,note_on,,,,,4,0,2,,,,,1,,,75,45
73584,note_on,,,,,4,0,4,,,,,2,,,75,57
73584,note_on,,,,,4,0,1,,,,,0,,,75,45
73628,note_off,,,,,44,0,1,,,,,0,,,75,0
73628,note_off,,,,,44,0,2,,,,,1,,,75,0
73628,note_off,,,,,44,0,4,,,,,2,,,75,0
73632,note_on,,,,,4,0,1,,,,,0,,,75,45
73632,note_on,,,,,4,0,2,,,,,1,,,75,45
73632,note_on,,,,,4,0,4,,,,,2,,,75,57
73676,note_off,,,,,44,0,4,,,,,2,,,75,0
73676,note_off,,,,,44,0,1,,,,,0,,,75,0
73676,note_off,,,,,44,0,2,,,,,1,,,75,0
73680,note_on,,,,,4,0,1,,,,,0,,,75,45
73680,note_on,,,,,4,0,2,,,,,1,,,75,45
73680,note_on,,,,,4,0,4,,,,,2,,,75,57
73724,note_off,,,,,44,0,2,,,,,1,,,75,0
73724,note_off,,,,,44,0,1,,,,,0,,,75,0
73724,note_off,,,,,188,0,10,,,,,8,,,54,0
73724,note_off,,,,,188,0,7,,,,,5,,,54,0
73724,note_off,,,,,188,0,8,,,,,6,,,42,0
73724,note_off,,,,,188,0,6,,,,,4,,,69,0
73724,note_off,,,,,188,0,3,,,,,10,,,54,0
73724,note_off,,,,,44,0,4,,,,,2,,,75,0
73728,note_on,,,,,4,0,10,,,,,8,,,56,45
73728,note_on,,,,,4,0,1,,,,,0,,,76,45
73728,note_on,,,,,4,0,3,,,,,10,,,56,45
73728,note_on,,,,,4,0,2,,,,,1,,,76,45
73728,note_on,,,,,4,0,6,,,,,4,,,71,45
73728,note_on,,,,,4,0,8,,,,,6,,,44,37
73728,note_on,,,,,4,0,4,,,,,2,,,76,57
73728,note_on,,,,,4,0,7,,,,,5,,,56,45
73772,note_off,,,,,44,0,1,,,,,0,,,76,0
73776,note_on,,,,,4,0,1,,,,,0,,,76,45
73820,note_off,,,,,44,0,1,,,,,0,,,76,0
73824,note_on,,,,,4,0,1,,,,,0,,,76,45
73868,note_off,,,,,44,0,1,,,,,0,,,76,0
73872,note_on,,,,,4,0,1,,,,,0,,,76,45
73916,note_off,,,,,188,0,6,,,,,4,,,71,0
73916,note_off,,,,,188,0,2,,,,,1,,,76,0
73916,note_off,,,,,44,0,1,,,,,0,,,76,0
73916,note_off,,,,,188,0,10,,,,,8,,,56,0
73916,note_off,,,,,188,0,4,,,,,2,,,76,0
73916,note_off,,,,,188,0,3,,,,,10,,,56,0
73916,note_off,,,,,188,0,7,,,,,5,,,56,0
73916,note_off,,,,,188,0,8,,,,,6,,,44,0
73920,note_on,,,,,4,0,6,,,,,4,,,68,45
73920,note_on,,,,,4,0,3,,,,,10,,,52,45
73920,note_on,,,,,4,0,8,,,,,6,,,40,37
73920,note_on,,,,,964,0,5,,,,,3,,,71,57
73920,note_on,,,,,4,0,10,,,,,8,,,52,45
73920,note_on,,,,,4,0,4,,,,,2,,,71,57
73920,note_on,,,,,4,0,1,,,,,0,,,76,45
73920,note_on,,,,,4,0,2,,,,,1,,,71,45
73920,note_on,,,,,4,0,7,,,,,5,,,52,45
73964,note_off,,,,,44,0,1,,,,,0,,,76,0
73968,note_on,,,,,4,0,1,,,,,0,,,76,45
74012,note_off,,,,,44,0,1,,,,,0,,,76,0
74016,note_on,,,,,4,0,1,,,,,0,,,76,45
74060,note_off,,,,,44,0,1,,,,,0,,,76,0
74064,note_on,,,,,4,0,1,,,,,0,,,76,45
74108,note_off,,,,,188,0,7,,,,,5,,,52,0
74108,note_off,,,,,188,0,6,,,,,4,,,68,0
74108,note_off,,,,,44,0,1,,,,,0,,,76,0
74108,note_off,,,,,188,0,10,,,,,8,,,52,0
74108,note_off,,,,,188,0,3,,,,,10,,,52,0
74108,note_off,,,,,188,0,5,,,,,3,,,71,0
74108,note_off,,,,,188,0,8,,,,,6,,,40,0
74108,note_off,,,,,188,0,2,,,,,1,,,71,0
74108,note_off,,,,,188,0,4,,,,,2,,,71,0
74112,note_on,,,,,4,0,5,,,,,3,,,73,57
74112,note_on,,,,,4,0,1,,,,,0,,,76,45
74156,note_off,,,,,44,0,1,,,,,0,,,76,0
74160,note_on,,,,,4,0,1,,,,,0,,,76,45
74204,note_off,,,,,44,0,1,,,,,0,,,76,0
74208,note_on,,,,,4,0,1,,,,,0,,,76,45
74252,note_off,,,,,44,0,1,,,,,0,,,76,0
74256,note_on,,,,,4,0,1,,,,,0,,,76,45
74300,note_off,,,,,188,0,5,,,,,3,,,73,0
74300,note_off,,,,,44,0,1,,,,,0,,,76,0
74304,note_on,,,,,4,0,5,,,,,3,,,69,57
74304,note_on,,,,,196,0,2,,,,,1,,,69,45
74304,note_on,,,,,196,0,4,,,,,2,,,69,57
74304,note_on,,,,,4,0,1,,,,,0,,,76,45
74348,note_off,,,,,44,0,1,,,,,0,,,76,0
74352,note_on,,,,,4,0,1,,,,,0,,,76,45
74396,note_off,,,,,44,0,1,,,,,0,,,76,0
74400,note_on,,,,,4,0,1,,,,,0,,,76,45
74444,note_off,,,,,44,0,1,,,,,0,,,76,0
74448,note_on,,,,,4,0,1,,,,,0,,,76,45
74492,note_off,,,,,188,0,5,,,,,3,,,69,0
74492,note_off,,,,,188,0,4,,,,,2,,,69,0
74492,note_off,,,,,188,0,2,,,,,1,,,69,0
74492,note_off,,,,,44,0,1,,,,,0,,,76,0
74496,note_on,,,,,4,0,4,,,,,2,,,68,57
74496,note_on,,,,,4,0,2,,,,,1,,,68,45
74496,note_on,,,,,4,0,1,,,,,0,,,76,45
74496,note_on,,,,,4,0,5,,,,,3,,,68,57
74540,note_off,,,,,44,0,1,,,,,0,,,76,0
74544,note_on,,,,,4,0,1,,,,,0,,,76,45
74588,note_off,,,,,44,0,1,,,,,0,,,76,0
74592,note_on,,,,,4,0,1,,,,,0,,,76,45
74636,note_off,,,,,44,0,1,,,,,0,,,76,0
74640,note_on,,,,,4,0,1,,,,,0,,,76,45
74684,note_off,,,,,188,0,2,,,,,1,,,68,0
74684,note_off,,,,,188,0,4,,,,,2,,,68,0
74684,note_off,,,,,188,0,5,,,,,3,,,68,0
74684,note_off,,,,,44,0,1,,,,,0,,,76,0
74688,note_on,,,,,4,0,5,,,,,3,,,64,57
74688,note_on,,,,,4,0,2,,,,,1,,,64,45
74688,note_on,,,,,4,0,4,,,,,2,,,64,57
74688,note_on,,,,,4,0,1,,,,,0,,,76,45
74732,note_off,,,,,44,0,1,,,,,0,,,76,0
74736,note_on,,,,,4,0,1,,,,,0,,,76,45
74780,note_off,,,,,44,0,1,,,,,0,,,76,0
74784,note_on,,,,,4,0,1,,,,,0,,,76,45
74828,note_off,,,,,44,0,1,,,,,0,,,76,0
74832,note_on,,,,,4,0,1,,,,,0,,,76,45
74876,note_off,,,,,44,0,1,,,,,0,,,76,0
74876,note_off,,,,,188,0,5,,,,,3,,,64,0
74876,note_off,,,,,188,0,2,,,,,1,,,64,0
74876,note_off,,,,,188,0,4,,,,,2,,,64,0
74880,note_on,,,,,4,0,1,,,,,0,,,76,45
74924,note_off,,,,,44,0,1,,,,,0,,,76,0
74928,note_on,,,,,4,0,1,,,,,0,,,76,45
74972,note_off,,,,,44,0,1,,,,,0,,,76,0
74976,note_on,,,,,4,0,1,,,,,0,,,76,45
75020,note_off,,,,,44,0,1,,,,,0,,,76,0
75024,note_on,,,,,4,0,1,,,,,0,,,76,45
75068,note_off,,,,,44,0,1,,,,,0,,,76,0
75072,note_on,,,,,4,0,1,,,,,0,,,76,45
75072,note_on,,,,,196,0,2,,,,,1,,,69,45
75072,note_on,,,,,196,0,5,,,,,3,,,69,57
75072,note_on,,,,,196,0,4,,,,,2,,,69,57
75116,note_off,,,,,44,0,1,,,,,0,,,76,0
75120,note_on,,,,,4,0,1,,,,,0,,,76,45
75164,note_off,,,,,44,0,1,,,,,0,,,76,0
75168,note_on,,,,,4,0,1,,,,,0,,,76,45
75212,note_off,,,,,44,0,1,,,,,0,,,76,0
75216,note_on,,,,,4,0,1,,,,,0,,,76,45
75260,note_off,,,,,188,0,4,,,,,2,,,69,0
75260,note_off,,,,,188,0,5,,,,,3,,,69,0
75260,note_off,,,,,188,0,2,,,,,1,,,69,0
75260,note_off,,,,,44,0,1,,,,,0,,,76,0
75264,note_on,,,,,4,0,5,,,,,3,,,68,57
75264,note_on,,,,,4,0,2,,,,,1,,,68,45
75264,note_on,,,,,4,0,1,,,,,0,,,76,45
75264,note_on,,,,,4,0,4,,,,,2,,,68,57
75308,note_off,,,,,44,0,1,,,,,0,,,76,0
75312,note_on,,,,,4,0,1,,,,,0,,,76,45
75356,note_off,,,,,44,0,1,,,,,0,,,76,0
75360,note_on,,,,,4,0,1,,,,,0,,,76,45
75404,note_off,,,,,44,0,1,,,,,0,,,76,0
75408,note_on,,,,,4,0,1,,,,,0,,,76,45
75452,note_off,,,,,188,0,4,,,,,2,,,68,0
75452,note_off,,,,,188,0,5,,,,,3,,,68,0
75452,note_off,,,,,44,0,1,,,,,0,,,76,0
75452,note_off,,,,,188,0,2,,,,,1,,,68,0
75456,note_on,,,,,4,0,1,,,,,0,,,76,45
75456,note_on,,,,,4,0,4,,,,,2,,,64,57
75456,note_on,,,,,4,0,5,,,,,3,,,64,57
75456,note_on,,,,,4,0,2,,,,,1,,,64,45
75500,note_off,,,,,44,0,1,,,,,0,,,76,0
75504,note_on,,,,,4,0,1,,,,,0,,,76,45
75548,note_off,,,,,44,0,1,,,,,0,,,76,0
75552,note_on,,,,,4,0,1,,,,,0,,,76,45
75596,note_off,,,,,44,0,1,,,,,0,,,76,0
75600,note_on,,,,,4,0,1,,,,,0,,,76,45
75644,note_off,,,,,188,0,5,,,,,3,,,64,0
75644,note_off,,,,,188,0,2,,,,,1,,,64,0
75644,note_off,,,,,188,0,4,,,,,2,,,64,0
75644,note_off,,,,,44,0,1,,,,,0,,,76,0
75648,note_on,,,,,4,0,1,,,,,0,,,76,45
75692,note_off,,,,,44,0,1,,,,,0,,,76,0
75696,note_on,,,,,4,0,1,,,,,0,,,76,45
75740,note_off,,,,,44,0,1,,,,,0,,,76,0
75744,note_on,,,,,4,0,1,,,,,0,,,76,45
75788,note_off,,,,,44,0,1,,,,,0,,,76,0
75792,note_on,,,,,4,0,1,,,,,0,,,76,45
75836,note_off,,,,,44,0,1,,,,,0,,,76,0
75840,note_on,,,,,196,0,4,,,,,2,,,69,57
75840,note_on,,,,,196,0,5,,,,,3,,,69,57
75840,note_on,,,,,196,0,2,,,,,1,,,69,45
75840,note_on,,,,,4,0,1,,,,,0,,,76,45
75884,note_off,,,,,44,0,1,,,,,0,,,76,0
75888,note_on,,,,,4,0,1,,,,,0,,,76,45
75932,note_off,,,,,44,0,1,,,,,0,,,76,0
75936,note_on,,,,,4,0,1,,,,,0,,,76,45
75980,note_off,,,,,44,0,1,,,,,0,,,76,0
75984,note_on,,,,,4,0,1,,,,,0,,,76,45
76028,note_off,,,,,188,0,2,,,,,1,,,69,0
76028,note_off,,,,,44,0,1,,,,,0,,,76,0
76028,note_off,,,,,188,0,5,,,,,3,,,69,0
76028,note_off,,,,,188,0,4,,,,,2,,,69,0
76032,note_on,,,,,4,0,5,,,,,3,,,68,57
76032,note_on,,,,,4,0,1,,,,,0,,,76,45
76032,note_on,,,,,4,0,2,,,,,1,,,68,45
76032,note_on,,,,,4,0,4,,,,,2,,,68,57
76076,note_off,,,,,44,0,1,,,,,0,,,76,0
76080,note_on,,,,,4,0,1,,,,,0,,,78,45
76124,note_off,,,,,44,0,1,,,,,0,,,78,0
76128,note_on,,,,,4,0,1,,,,,0,,,76,45
76172,note_off,,,,,44,0,1,,,,,0,,,76,0
76176,note_on,,,,,4,0,1,,,,,0,,,78,45
76220,note_off,,,,,44,0,1,,,,,0,,,78,0
76220,note_off,,,,,188,0,2,,,,,1,,,68,0
76220,note_off,,,,,188,0,4,,,,,2,,,68,0
76220,note_off,,,,,188,0,5,,,,,3,,,68,0
76224,note_on,,,,,4,0,2,,,,,1,,,64,45
76224,note_on,,,,,4,0,5,,,,,3,,,64,57
76224,note_on,,,,,4,0,4,,,,,2,,,64,57
76224,note_on,,,,,4,0,1,,,,,0,,,76,45
76268,note_off,,,,,44,0,1,,,,,0,,,76,0
76272,note_on,,,,,4,0,1,,,,,0,,,78,45
76316,note_off,,,,,44,0,1,,,,,0,,,78,0
76320,note_on,,,,,4,0,1,,,,,0,,,76,45
76364,note_off,,,,,44,0,1,,,,,0,,,76,0
76368,note_on,,,,,4,0,1,,,,,0,,,78,45
76412,note_off,,,,,188,0,4,,,,,2,,,64,0
76412,note_off,,,,,44,0,1,,,,,0,,,78,0
76412,note_off,,,,,188,0,2,,,,,1,,,64,0
76412,note_off,,,,,188,0,5,,,,,3,,,64,0
76416,note_on,,,,,4,0,1,,,,,0,,,76,45
76460,note_off,,,,,44,0,1,,,,,0,,,76,0
76464,note_on,,,,,4,0,1,,,,,0,,,78,45
76508,note_off,,,,,44,0,1,,,,,0,,,78,0
76512,note_on,,,,,4,0,1,,,,,0,,,76,45
76556,note_off,,,,,44,0,1,,,,,0,,,76,0
76560,note_on,,,,,4,0,1,,,,,0,,,78,45
76604,note_off,,,,,44,0,1,,,,,0,,,78,0
76608,note_on,,,,,4,0,1,,,,,0,,,76,45
76608,note_on,,,,,196,0,2,,,,,1,,,69,45
76608,note_on,,,,,196,0,4,,,,,2,,,69,57
76608,note_on,,,,,196,0,5,,,,,3,,,69,57
76652,note_off,,,,,44,0,1,,,,,0,,,76,0
76656,note_on,,,,,4,0,1,,,,,0,,,78,45
76700,note_off,,,,,44,0,1,,,,,0,,,78,0
76704,note_on,,,,,4,0,1,,,,,0,,,76,45
76748,note_off,,,,,44,0,1,,,,,0,,,76,0
76752,note_on,,,,,4,0,1,,,,,0,,,78,45
76796,note_off,,,,,188,0,2,,,,,1,,,69,0
76796,note_off,,,,,188,0,4,,,,,2,,,69,0
76796,note_off,,,,,44,0,1,,,,,0,,,78,0
76796,note_off,,,,,188,0,5,,,,,3,,,69,0
76800,note_on,,,,,4,0,1,,,,,0,,,80,45
76800,note_on,,,,,4,0,2,,,,,1,,,68,45
76800,note_on,,,,,4,0,4,,,,,2,,,68,57
76800,note_on,,,,,4,0,5,,,,,3,,,68,57
76844,note_off,,,,,44,0,1,,,,,0,,,80,0
76848,note_on,,,,,4,0,1,,,,,0,,,76,45
76892,note_off,,,,,44,0,1,,,,,0,,,76,0
76896,note_on,,,,,4,0,1,,,,,0,,,80,45
76940,note_off,,,,,44,0,1,,,,,0,,,80,0
76944,note_on,,,,,4,0,1,,,,,0,,,76,45
76988,note_off,,,,,188,0,2,,,,,1,,,68,0
76988,note_off,,,,,188,0,4,,,,,2,,,68,0
76988,note_off,,,,,188,0,5,,,,,3,,,68,0
76988,note_off,,,,,44,0,1,,,,,0,,,76,0
76992,note_on,,,,,4,0,2,,,,,1,,,64,45
76992,note_on,,,,,4,0,1,,,,,0,,,80,45
76992,note_on,,,,,4,0,4,,,,,2,,,64,57
76992,note_on,,,,,4,0,5,,,,,3,,,64,57
77036,note_off,,,,,44,0,1,,,,,0,,,80,0
77040,note_on,,,,,4,0,1,,,,,0,,,76,45
77084,note_off,,,,,44,0,1,,,,,0,,,76,0
77088,note_on,,,,,4,0,1,,,,,0,,,80,45
77132,note_off,,,,,44,0,1,,,,,0,,,80,0
77136,note_on,,,,,4,0,1,,,,,0,,,76,45
77180,note_off,,,,,44,0,1,,,,,0,,,76,0
77180,note_off,,,,,188,0,5,,,,,3,,,64,0
77180,note_off,,,,,188,0,4,,,,,2,,,64,0
77180,note_off,,,,,188,0,2,,,,,1,,,64,0
77184,note_on,,,,,4,0,1,,,,,0,,,80,45
77228,note_off,,,,,44,0,1,,,,,0,,,80,0
77232,note_on,,,,,4,0,1,,,,,0,,,76,45
77276,note_off,,,,,44,0,1,,,,,0,,,76,0
77280,note_on,,,,,4,0,1,,,,,0,,,80,45
77324,note_off,,,,,44,0,1,,,,,0,,,80,0
77328,note_on,,,,,4,0,1,,,,,0,,,76,45
77372,note_off,,,,,44,0,1,,,,,0,,,76,0
77376,note_on,,,,,196,0,2,,,,,1,,,69,45
77376,note_on,,,,,196,0,4,,,,,2,,,69,57
77376,note_on,,,,,196,0,5,,,,,3,,,69,57
77376,note_on,,,,,4,0,1,,,,,0,,,81,45
77420,note_off,,,,,44,0,1,,,,,0,,,81,0
77424,note_on,,,,,4,0,1,,,,,0,,,76,45
77468,note_off,,,,,44,0,1,,,,,0,,,76,0
77472,note_on,,,,,4,0,1,,,,,0,,,81,45
77516,note_off,,,,,44,0,1,,,,,0,,,81,0
77520,note_on,,,,,4,0,1,,,,,0,,,76,45
77564,note_off,,,,,44,0,1,,,,,0,,,76,0
77564,note_off,,,,,188,0,4,,,,,2,,,69,0
77564,note_off,,,,,188,0,5,,,,,3,,,69,0
77564,note_off,,,,,188,0,2,,,,,1,,,69,0
77568,note_on,,,,,4,0,1,,,,,0,,,83,45
77568,note_on,,,,,4,0,4,,,,,2,,,68,57
77568,note_on,,,,,4,0,5,,,,,3,,,68,57
77568,note_on,,,,,4,0,2,,,,,1,,,68,45
77612,note_off,,,,,44,0,1,,,,,0,,,83,0
77616,note_on,,,,,4,0,1,,,,,0,,,76,45
77660,note_off,,,,,44,0,1,,,,,0,,,76,0
77664,note_on,,,,,4,0,1,,,,,0,,,83,45
77708,note_off,,,,,44,0,1,,,,,0,,,83,0
77712,note_on,,,,,4,0,1,,,,,0,,,76,45
77756,note_off,,,,,44,0,1,,,,,0,,,76,0
77756,note_off,,,,,188,0,4,,,,,2,,,68,0
77756,note_off,,,,,188,0,2,,,,,1,,,68,0
77756,note_off,,,,,188,0,5,,,,,3,,,68,0
77760,note_on,,,,,4,0,1,,,,,0,,,83,45
77760,note_on,,,,,4,0,4,,,,,2,,,64,57
77760,note_on,,,,,4,0,2,,,,,1,,,64,45
77760,note_on,,,,,4,0,5,,,,,3,,,64,57
77804,note_off,,,,,44,0,1,,,,,0,,,83,0
77808,note_on,,,,,4,0,1,,,,,0,,,76,45
77852,note_off,,,,,44,0,1,,,,,0,,,76,0
77856,note_on,,,,,4,0,1,,,,,0,,,83,45
77900,note_off,,,,,44,0,1,,,,,0,,,83,0
77904,note_on,,,,,4,0,1,,,,,0,,,76,45
77948,note_off,,,,,44,0,1,,,,,0,,,76,0
77948,note_off,,,,,188,0,5,,,,,3,,,64,0
77948,note_off,,,,,188,0,4,,,,,2,,,64,0
77948,note_off,,,,,188,0,2,,,,,1,,,64,0
77952,note_on,,,,,4,0,1,,,,,0,,,83,45
77996,note_off,,,,,44,0,1,,,,,0,,,83,0
78000,note_on,,,,,4,0,1,,,,,0,,,76,45
78044,note_off,,,,,44,0,1,,,,,0,,,76,0
78048,note_on,,,,,4,0,1,,,,,0,,,83,45
78092,note_off,,,,,44,0,1,,,,,0,,,83,0
78096,note_on,,,,,4,0,1,,,,,0,,,76,45
78140,note_off,,,,,44,0,1,,,,,0,,,76,0
78144,note_on,,,,,196,0,2,,,,,1,,,69,45
78144,note_on,,,,,196,0,4,,,,,2,,,69,57
78144,note_on,,,,,196,0,5,,,,,3,,,69,57
78144,note_on,,,,,4,0,1,,,,,0,,,85,45
78188,note_off,,,,,44,0,1,,,,,0,,,85,0
78192,note_on,,,,,4,0,1,,,,,0,,,76,45
78236,note_off,,,,,44,0,1,,,,,0,,,76,0
78240,note_on,,,,,4,0,1,,,,,0,,,85,45
78284,note_off,,,,,44,0,1,,,,,0,,,85,0
78288,note_on,,,,,4,0,1,,,,,0,,,76,45
78332,note_off,,,,,44,0,1,,,,,0,,,76,0
78332,note_off,,,,,188,0,2,,,,,1,,,69,0
78332,note_off,,,,,188,0,5,,,,,3,,,69,0
78332,note_off,,,,,188,0,4,,,,,2,,,69,0
78336,note_on,,,,,4,0,2,,,,,1,,,68,45
78336,note_on,,,,,4,0,1,,,,,0,,,86,45
78336,note_on,,,,,4,0,4,,,,,2,,,68,57
78336,note_on,,,,,4,0,5,,,,,3,,,68,57
78524,note_off,,,,,188,0,4,,,,,2,,,68,0
78524,note_off,,,,,188,0,2,,,,,1,,,68,0
78524,note_off,,,,,188,0,5,,,,,3,,,68,0
78528,note_on,,,,,4,0,4,,,,,2,,,64,57
78528,note_on,,,,,4,0,5,,,,,3,,,64,57
78528,note_on,,,,,4,0,2,,,,,1,,,64,45
78656,note_off,,,,,320,0,1,,,,,0,,,86,0
78716,note_off,,,,,188,0,4,,,,,2,,,64,0
78716,note_off,,,,,188,0,2,,,,,1,,,64,0
78716,note_off,,,,,188,0,5,,,,,3,,,64,0
78720,note_on,,,,,64,0,1,,,,,0,,,76,45
78816,note_off,,,,,96,0,1,,,,,0,,,76,0
78816,note_on,,,,,0,0,1,,,,,0,,,80,45
78864,note_off,,,,,48,0,1,,,,,0,,,80,0
78864,note_on,,,,,0,0,1,,,,,0,,,83,45
78912,note_off,,,,,48,0,1,,,,,0,,,83,0
78912,note_on,,,,,0,0,1,,,,,0,,,86,45
79296,note_on,,,,,0,0,1,,,,,0,,,85,45
79296,note_off,,,,,384,0,1,,,,,0,,,86,0
79388,note_off,,,,,92,0,1,,,,,0,,,85,0
79392,note_on,,,,,4,0,1,,,,,0,,,83,45
79484,note_off,,,,,92,0,1,,,,,0,,,83,0
79488,note_on,,,,,4,0,1,,,,,0,,,81,45
79580,note_off,,,,,92,0,1,,,,,0,,,81,0
79584,note_on,,,,,4,0,1,,,,,0,,,80,45
79676,note_off,,,,,92,0,1,,,,,0,,,80,0
79680,note_on,,,,,4,0,1,,,,,0,,,78,45
79772,note_off,,,,,92,0,1,,,,,0,,,78,0
79776,note_on,,,,,4,0,1,,,,,0,,,76,45
79868,note_off,,,,,92,0,1,,,,,0,,,76,0
79872,note_on,,,,,4,0,1,,,,,0,,,74,45
80012,note_off,,,,,140,0,1,,,,,0,,,74,0
80016,note_on,,,,,4,0,1,,,,,0,,,73,45
80060,note_off,,,,,44,0,1,,,,,0,,,73,0
80064,note_on,,,,,4,0,1,,,,,0,,,74,45
80252,note_off,,,,,188,0,1,,,,,0,,,74,0
80352,note_on,,,,,1636,0,4,,,,,2,,,71,117
80352,note_on,,,,,1636,0,2,,,,,1,,,68,92
80352,note_on,,,,,1636,0,5,,,,,3,,,68,117
80352,note_on,,,,,100,0,1,,,,,0,,,71,92
80444,note_off,,,,,92,0,5,,,,,3,,,68,0
80444,note_off,,,,,92,0,2,,,,,1,,,68,0
80444,note_off,,,,,92,0,4,,,,,2,,,71,0
80444,note_off,,,,,92,0,1,,,,,0,,,71,0
80448,note_on,,,,,4,0,4,,,,,2,,,73,117
80448,note_on,,,,,6340,0,7,,,,,5,,,52,92
80448,note_on,,,,,6340,0,8,,,,,6,,,40,77
80448,note_on,,,,,6340,0,6,,,,,4,,,68,92
80448,note_on,,,,,6340,0,3,,,,,10,,,52,92
80448,note_on,,,,,4,0,5,,,,,3,,,69,117
80448,note_on,,,,,4,0,1,,,,,0,,,73,92
80448,note_on,,,,,6340,0,10,,,,,8,,,52,60
80448,note_on,,,,,4,0,2,,,,,1,,,69,92
80540,note_off,,,,,92,0,4,,,,,2,,,73,0
80540,note_off,,,,,92,0,1,,,,,0,,,73,0
80540,note_off,,,,,92,0,5,,,,,3,,,69,0
80540,note_off,,,,,92,0,2,,,,,1,,,69,0
80544,note_on,,,,,4,0,5,,,,,3,,,71,117
80544,note_on,,,,,4,0,1,,,,,0,,,74,92
80544,note_on,,,,,4,0,2,,,,,1,,,71,92
80544,note_on,,,,,4,0,4,,,,,2,,,74,117
80636,note_off,,,,,92,0,2,,,,,1,,,71,0
80636,note_off,,,,,92,0,4,,,,,2,,,74,0
80636,note_off,,,,,188,0,7,,,,,5,,,52,0
80636,note_off,,,,,92,0,5,,,,,3,,,71,0
80636,note_off,,,,,188,0,8,,,,,6,,,40,0
80636,note_off,,,,,92,0,1,,,,,0,,,74,0
80636,note_off,,,,,188,0,10,,,,,8,,,52,0
80636,note_off,,,,,188,0,3,,,,,10,,,52,0
80636,note_off,,,,,188,0,6,,,,,4,,,68,0
80640,note_on,,,,,4,0,5,,,,,3,,,69,117
80640,note_on,,,,,4,0,2,,,,,1,,,69,92
80640,note_on,,,,,4,0,7,,,,,5,,,57,92
80640,note_on,,,,,4,0,4,,,,,2,,,73,117
80640,note_on,,,,,4,0,6,,,,,4,,,64,92
80640,note_on,,,,,4,0,1,,,,,0,,,73,92
80640,note_on,,,,,4,0,10,,,,,8,,,57,60
80640,note_on,,,,,4,0,3,,,,,10,,,57,92
80640,note_on,,,,,4,0,8,,,,,6,,,45,77
80828,note_off,,,,,188,0,6,,,,,4,,,64,0
80828,note_off,,,,,188,0,10,,,,,8,,,57,0
80828,note_off,,,,,188,0,5,,,,,3,,,69,0
80828,note_off,,,,,188,0,2,,,,,1,,,69,0
80828,note_off,,,,,188,0,3,,,,,10,,,57,0
80828,note_off,,,,,188,0,7,,,,,5,,,57,0
80828,note_off,,,,,188,0,8,,,,,6,,,45,0
80832,note_on,,,,,4,0,8,,,,,6,,,38,77
80832,note_on,,,,,4,0,7,,,,,5,,,50,92
80832,note_on,,,,,4,0,6,,,,,4,,,66,92
80832,note_on,,,,,4,0,2,,,,,1,,,69,92
80832,note_on,,,,,4,0,10,,,,,8,,,50,60
80832,note_on,,,,,4,0,3,,,,,10,,,50,92
80832,note_on,,,,,4,0,5,,,,,3,,,69,117
80924,note_off,,,,,284,0,1,,,,,0,,,73,0
80924,note_off,,,,,284,0,4,,,,,2,,,73,0
80928,note_on,,,,,4,0,4,,,,,2,,,71,117
80928,note_on,,,,,4,0,1,,,,,0,,,71,92
81020,note_off,,,,,92,0,4,,,,,2,,,71,0
81020,note_off,,,,,188,0,6,,,,,4,,,66,0
81020,note_off,,,,,188,0,8,,,,,6,,,38,0
81020,note_off,,,,,188,0,3,,,,,10,,,50,0
81020,note_off,,,,,188,0,7,,,,,5,,,50,0
81020,note_off,,,,,92,0,1,,,,,0,,,71,0
81020,note_off,,,,,188,0,10,,,,,8,,,50,0
81024,note_on,,,,,4,0,3,,,,,10,,,52,92
81024,note_on,,,,,4,0,4,,,,,2,,,73,117
81024,note_on,,,,,4,0,6,,,,,4,,,59,92
81024,note_on,,,,,4,0,10,,,,,8,,,52,60
81024,note_on,,,,,4,0,1,,,,,0,,,73,92
81024,note_on,,,,,4,0,7,,,,,5,,,52,92
81024,note_on,,,,,4,0,8,,,,,6,,,40,77
81048,note_on,,,,,0,0,1,,,,,0,,,71,92
81048,note_off,,,,,24,0,1,,,,,0,,,73,0
81048,note_off,,,,,24,0,4,,,,,2,,,73,0
81048,note_on,,,,,0,0,4,,,,,2,,,71,117
81072,note_on,,,,,0,0,4,,,,,2,,,73,117
81072,note_off,,,,,24,0,4,,,,,2,,,71,0
81072,note_off,,,,,24,0,1,,,,,0,,,71,0
81072,note_on,,,,,0,0,1,,,,,0,,,73,92
81096,note_off,,,,,24,0,1,,,,,0,,,73,0
81096,note_on,,,,,0,0,1,,,,,0,,,71,92
81096,note_on,,,,,0,0,4,,,,,2,,,71,117
81096,note_off,,,,,24,0,4,,,,,2,,,73,0
81120,note_off,,,,,24,0,4,,,,,2,,,71,0
81120,note_on,,,,,0,0,4,,,,,2,,,73,117
81120,note_off,,,,,24,0,1,,,,,0,,,71,0
81120,note_on,,,,,0,0,1,,,,,0,,,73,92
81144,note_off,,,,,24,0,4,,,,,2,,,73,0
81144,note_on,,,,,0,0,4,,,,,2,,,71,117
81144,note_off,,,,,24,0,1,,,,,0,,,73,0
81144,note_on,,,,,0,0,1,,,,,0,,,71,92
81152,note_off,,,,,320,0,5,,,,,3,,,69,0
81152,note_off,,,,,320,0,2,,,,,1,,,69,0
81168,note_off,,,,,24,0,4,,,,,2,,,71,0
81168,note_on,,,,,0,0,4,,,,,2,,,73,117
81168,note_on,,,,,0,0,1,,,,,0,,,73,92
81168,note_off,,,,,24,0,1,,,,,0,,,71,0
81192,note_on,,,,,0,0,4,,,,,2,,,71,117
81192,note_off,,,,,24,0,4,,,,,2,,,73,0
81192,note_on,,,,,0,0,1,,,,,0,,,71,92
81192,note_off,,,,,24,0,1,,,,,0,,,73,0
81212,note_off,,,,,188,0,6,,,,,4,,,59,0
81212,note_off,,,,,188,0,7,,,,,5,,,52,0
81212,note_off,,,,,188,0,8,,,,,6,,,40,0
81212,note_off,,,,,188,0,10,,,,,8,,,52,0
81212,note_off,,,,,188,0,3,,,,,10,,,52,0
81216,note_on,,,,,64,0,5,,,,,3,,,68,117
81216,note_on,,,,,4,0,8,,,,,6,,,28,77
81216,note_on,,,,,4,0,10,,,,,8,,,40,60
81216,note_on,,,,,64,0,2,,,,,1,,,68,92
81216,note_on,,,,,4,0,3,,,,,10,,,40,92
81216,note_on,,,,,4,0,7,,,,,5,,,40,92
81216,note_on,,,,,4,0,6,,,,,4,,,64,92
81308,note_off,,,,,116,0,1,,,,,0,,,71,0
81312,note_off,,,,,120,0,4,,,,,2,,,71,0
81312,note_on,,,,,0,0,4,,,,,2,,,69,117
81312,note_on,,,,,4,0,1,,,,,0,,,69,92
81404,note_off,,,,,188,0,10,,,,,8,,,40,0
81404,note_off,,,,,92,0,1,,,,,0,,,69,0
81404,note_off,,,,,188,0,8,,,,,6,,,28,0
81404,note_off,,,,,188,0,7,,,,,5,,,40,0
81404,note_off,,,,,188,0,2,,,,,1,,,68,0
81404,note_off,,,,,92,0,4,,,,,2,,,69,0
81404,note_off,,,,,188,0,3,,,,,10,,,40,0
81404,note_off,,,,,188,0,6,,,,,4,,,64,0
81404,note_off,,,,,188,0,5,,,,,3,,,68,0
81408,note_on,,,,,4,0,6,,,,,4,,,61,92
81408,note_on,,,,,4,0,8,,,,,6,,,33,77
81408,note_on,,,,,4,0,3,,,,,10,,,45,92
81408,note_on,,,,,4,0,1,,,,,0,,,69,92
81408,note_on,,,,,4,0,7,,,,,5,,,45,92
81408,note_on,,,,,4,0,4,,,,,2,,,69,117
81408,note_on,,,,,4,0,5,,,,,3,,,69,117
81408,note_on,,,,,4,0,2,,,,,1,,,69,92
81408,note_on,,,,,4,0,10,,,,,8,,,45,60
81728,note_off,,,,,320,0,7,,,,,5,,,45,0
81728,note_off,,,,,320,0,10,,,,,8,,,45,0
81728,note_off,,,,,320,0,3,,,,,10,,,45,0
81728,note_off,,,,,320,0,4,,,,,2,,,69,0
81728,note_off,,,,,320,0,5,,,,,3,,,69,0
81728,note_off,,,,,320,0,8,,,,,6,,,33,0
81728,note_off,,,,,320,0,1,,,,,0,,,69,0
81728,note_off,,,,,320,0,6,,,,,4,,,61,0
81728,note_off,,,,,320,0,2,,,,,1,,,69,0
81792,note_on,,,,,64,0,1,,,,,0,,,64,92
81888,note_on,,,,,0,0,1,,,,,0,,,69,92
81888,note_off,,,,,96,0,1,,,,,0,,,64,0
81984,note_off,,,,,96,0,1,,,,,0,,,69,0
81984,note_on,,,,,0,0,1,,,,,0,,,73,92
82080,note_on,,,,,0,0,1,,,,,0,,,74,92
82080,note_off,,,,,96,0,1,,,,,0,,,73,0
82172,note_off,,,,,92,0,1,,,,,0,,,74,0
82176,note_on,,,,,448,0,5,,,,,3,,,71,127
82176,note_on,,,,,448,0,2,,,,,1,,,71,127
82176,note_on,,,,,448,0,3,,,,,10,,,56,127
82176,note_on,,,,,448,0,8,,,,,6,,,44,106
82176,note_on,,,,,448,0,4,,,,,2,,,71,127
82176,note_on,,,,,448,0,7,,,,,5,,,56,127
82176,note_on,,,,,448,0,10,,,,,8,,,56,60
82176,note_on,,,,,4,0,1,,,,,0,,,76,127
82176,note_on,,,,,448,0,6,,,,,4,,,64,127
82496,note_off,,,,,320,0,2,,,,,1,,,71,0
82496,note_off,,,,,320,0,5,,,,,3,,,71,0
82496,note_off,,,,,320,0,7,,,,,5,,,56,0
82496,note_off,,,,,320,0,4,,,,,2,,,71,0
82496,note_off,,,,,320,0,8,,,,,6,,,44,0
82496,note_off,,,,,320,0,6,,,,,4,,,64,0
82496,note_off,,,,,320,0,3,,,,,10,,,56,0
82496,note_off,,,,,320,0,1,,,,,0,,,76,0
82496,note_off,,,,,320,0,10,,,,,8,,,56,0
82560,note_on,,,,,64,0,1,,,,,0,,,76,92
82656,note_on,,,,,0,0,1,,,,,0,,,78,92
82656,note_off,,,,,96,0,1,,,,,0,,,76,0
82752,note_off,,,,,96,0,1,,,,,0,,,78,0
82752,note_on,,,,,0,0,1,,,,,0,,,80,92
82848,note_off,,,,,96,0,1,,,,,0,,,80,0
82848,note_on,,,,,0,0,1,,,,,0,,,81,92
83036,note_off,,,,,188,0,1,,,,,0,,,81,0
83040,note_on,,,,,4,0,1,,,,,0,,,78,92
83132,note_off,,,,,92,0,1,,,,,0,,,78,0
83136,note_on,,,,,4,0,1,,,,,0,,,73,92
83228,note_off,,,,,92,0,1,,,,,0,,,73,0
83232,note_on,,,,,4,0,1,,,,,0,,,75,92
83316,note_off,,,,,84,0,1,,,,,0,,,75,0
83316,note_on,,,,,0,0,1,,,,,0,,,76,92
83388,note_on,,,,,0,0,1,,,,,0,,,75,92
83388,note_off,,,,,72,0,1,,,,,0,,,76,0
83460,note_on,,,,,0,0,1,,,,,0,,,76,92
83460,note_off,,,,,72,0,1,,,,,0,,,75,0
83508,note_on,,,,,0,0,1,,,,,0,,,75,92
83508,note_off,,,,,48,0,1,,,,,0,,,76,0
83556,note_on,,,,,0,0,1,,,,,0,,,76,92
83556,note_off,,,,,48,0,1,,,,,0,,,75,0
83596,note_off,,,,,40,0,1,,,,,0,,,76,0
83596,note_on,,,,,0,0,1,,,,,0,,,75,92
83640,note_off,,,,,44,0,1,,,,,0,,,75,0
83640,note_on,,,,,0,0,1,,,,,0,,,76,92
83676,note_on,,,,,0,0,1,,,,,0,,,75,92
83676,note_off,,,,,36,0,1,,,,,0,,,76,0
83712,note_on,,,,,1216,0,8,,,,,6,,,42,77
83712,note_on,,,,,1216,0,4,,,,,2,,,76,117
83712,note_on,,,,,0,0,1,,,,,0,,,76,92
83712,note_off,,,,,36,0,1,,,,,0,,,75,0
83712,note_on,,,,,1216,0,10,,,,,8,,,54,60
83712,note_on,,,,,1216,0,5,,,,,3,,,71,117
83712,note_on,,,,,1216,0,2,,,,,1,,,71,92
83712,note_on,,,,,1216,0,7,,,,,5,,,56,92
83712,note_on,,,,,1216,0,3,,,,,10,,,56,92
83712,note_on,,,,,1216,0,6,,,,,4,,,66,92
83748,note_off,,,,,36,0,4,,,,,2,,,76,0
83748,note_on,,,,,0,0,4,,,,,2,,,75,117
83748,note_on,,,,,0,0,7,,,,,5,,,54,92
83748,note_off,,,,,36,0,7,,,,,5,,,56,0
83748,note_on,,,,,0,0,3,,,,,10,,,54,92
83748,note_on,,,,,0,0,5,,,,,3,,,69,117
83748,note_off,,,,,36,0,3,,,,,10,,,56,0
83748,note_on,,,,,0,0,1,,,,,0,,,75,92
83748,note_off,,,,,36,0,1,,,,,0,,,76,0
83748,note_off,,,,,36,0,5,,,,,3,,,71,0
83748,note_off,,,,,36,0,2,,,,,1,,,71,0
83748,note_on,,,,,0,0,2,,,,,1,,,69,92
83784,note_on,,,,,0,0,4,,,,,2,,,76,117
83784,note_off,,,,,36,0,4,,,,,2,,,75,0
83784,note_on,,,,,0,0,2,,,,,1,,,71,92
83784,note_off,,,,,36,0,2,,,,,1,,,69,0
83784,note_off,,,,,36,0,7,,,,,5,,,54,0
83784,note_off,,,,,36,0,5,,,,,3,,,69,0
83784,note_on,,,,,0,0,1,,,,,0,,,76,92
83784,note_on,,,,,0,0,5,,,,,3,,,71,117
83784,note_on,,,,,0,0,3,,,,,10,,,56,92
83784,note_off,,,,,36,0,3,,,,,10,,,54,0
83784,note_off,,,,,36,0,1,,,,,0,,,75,0
83784,note_on,,,,,0,0,7,,,,,5,,,56,92
83820,note_off,,,,,36,0,5,,,,,3,,,71,0
83820,note_off,,,,,36,0,4,,,,,2,,,76,0
83820,note_on,,,,,0,0,4,,,,,2,,,75,117
83820,note_on,,,,,0,0,5,,,,,3,,,69,117
83820,note_off,,,,,36,0,1,,,,,0,,,76,0
83820,note_on,,,,,0,0,2,,,,,1,,,69,92
83820,note_on,,,,,0,0,3,,,,,10,,,54,92
83820,note_off,,,,,36,0,3,,,,,10,,,56,0
83820,note_off,,,,,36,0,7,,,,,5,,,56,0
83820,note_on,,,,,0,0,7,,,,,5,,,54,92
83820,note_on,,,,,0,0,1,,,,,0,,,75,92
83820,note_off,,,,,36,0,2,,,,,1,,,71,0
83856,note_off,,,,,36,0,4,,,,,2,,,75,0
83856,note_on,,,,,0,0,4,,,,,2,,,76,117
83856,note_off,,,,,36,0,1,,,,,0,,,75,0
83856,note_on,,,,,0,0,1,,,,,0,,,76,92
83856,note_on,,,,,0,0,7,,,,,5,,,56,92
83856,note_off,,,,,36,0,7,,,,,5,,,54,0
83856,note_off,,,,,36,0,5,,,,,3,,,69,0
83856,note_on,,,,,0,0,5,,,,,3,,,71,117
83856,note_on,,,,,0,0,2,,,,,1,,,71,92
83856,note_off,,,,,36,0,2,,,,,1,,,69,0
83856,note_on,,,,,0,0,3,,,,,10,,,56,92
83856,note_off,,,,,36,0,3,,,,,10,,,54,0
83880,note_off,,,,,24,0,5,,,,,3,,,71,0
83880,note_off,,,,,24,0,4,,,,,2,,,76,0
83880,note_on,,,,,0,0,3,,,,,10,,,54,92
83880,note_off,,,,,24,0,1,,,,,0,,,76,0
83880,note_on,,,,,0,0,4,,,,,2,,,75,117
83880,note_on,,,,,0,0,7,,,,,5,,,54,92
83880,note_off,,,,,24,0,7,,,,,5,,,56,0
83880,note_off,,,,,24,0,3,,,,,10,,,56,0
83880,note_on,,,,,0,0,1,,,,,0,,,75,92
83880,note_on,,,,,0,0,5,,,,,3,,,69,117
83880,note_off,,,,,24,0,2,,,,,1,,,71,0
83880,note_on,,,,,0,0,2,,,,,1,,,69,92
83904,note_off,,,,,24,0,4,,,,,2,,,75,0
83904,note_on,,,,,0,0,3,,,,,10,,,56,92
83904,note_on,,,,,0,0,7,,,,,5,,,56,92
83904,note_off,,,,,24,0,7,,,,,5,,,54,0
83904,note_off,,,,,24,0,1,,,,,0,,,75,0
83904,note_on,,,,,0,0,1,,,,,0,,,76,92
83904,note_on,,,,,0,0,4,,,,,2,,,76,117
83904,note_on,,,,,0,0,2,,,,,1,,,71,92
83904,note_off,,,,,24,0,3,,,,,10,,,54,0
83904,note_on,,,,,0,0,5,,,,,3,,,71,117
83904,note_off,,,,,24,0,5,,,,,3,,,69,0
83904,note_off,,,,,24,0,2,,,,,1,,,69,0
83928,note_off,,,,,24,0,2,,,,,1,,,71,0
83928,note_off,,,,,24,0,5,,,,,3,,,71,0
83928,note_off,,,,,24,0,3,,,,,10,,,56,0
83928,note_on,,,,,0,0,7,,,,,5,,,54,92
83928,note_off,,,,,24,0,7,,,,,5,,,56,0
83928,note_on,,,,,0,0,3,,,,,10,,,54,92
83928,note_off,,,,,24,0,4,,,,,2,,,76,0
83928,note_on,,,,,0,0,1,,,,,0,,,75,92
83928,note_off,,,,,24,0,1,,,,,0,,,76,0
83928,note_on,,,,,0,0,5,,,,,3,,,69,117
83928,note_on,,,,,0,0,4,,,,,2,,,75,117
83928,note_on,,,,,0,0,2,,,,,1,,,69,92
83952,note_on,,,,,0,0,4,,,,,2,,,76,117
83952,note_off,,,,,24,0,4,,,,,2,,,75,0
83952,note_off,,,,,24,0,3,,,,,10,,,54,0
83952,note_on,,,,,0,0,3,,,,,10,,,56,92
83952,note_on,,,,,0,0,5,,,,,3,,,71,117
83952,note_on,,,,,0,0,7,,,,,5,,,56,92
83952,note_off,,,,,24,0,7,,,,,5,,,54,0
83952,note_on,,,,,0,0,2,,,,,1,,,71,92
83952,note_off,,,,,24,0,2,,,,,1,,,69,0
83952,note_on,,,,,0,0,1,,,,,0,,,76,92
83952,note_off,,,,,24,0,1,,,,,0,,,75,0
83952,note_off,,,,,24,0,5,,,,,3,,,69,0
83976,note_on,,,,,0,0,1,,,,,0,,,75,92
83976,note_off,,,,,24,0,1,,,,,0,,,76,0
83976,note_off,,,,,24,0,3,,,,,10,,,56,0
83976,note_on,,,,,0,0,3,,,,,10,,,54,92
83976,note_on,,,,,0,0,4,,,,,2,,,75,117
83976,note_off,,,,,24,0,4,,,,,2,,,76,0
83976,note_on,,,,,0,0,7,,,,,5,,,54,92
83976,note_off,,,,,24,0,5,,,,,3,,,71,0
83976,note_on,,,,,0,0,5,,,,,3,,,69,117
83976,note_off,,,,,24,0,2,,,,,1,,,71,0
83976,note_on,,,,,0,0,2,,,,,1,,,69,92
83976,note_off,,,,,24,0,7,,,,,5,,,56,0
84000,note_on,,,,,0,0,3,,,,,10,,,56,92
84000,note_off,,,,,24,0,3,,,,,10,,,54,0
84000,note_off,,,,,24,0,5,,,,,3,,,69,0
84000,note_on,,,,,0,0,5,,,,,3,,,71,117
84000,note_on,,,,,0,0,7,,,,,5,,,56,92
84000,note_off,,,,,24,0,7,,,,,5,,,54,0
84000,note_on,,,,,0,0,1,,,,,0,,,76,92
84000,note_on,,,,,0,0,2,,,,,1,,,71,92
84000,note_off,,,,,24,0,1,,,,,0,,,75,0
84000,note_on,,,,,0,0,4,,,,,2,,,76,117
84000,note_off,,,,,24,0,4,,,,,2,,,75,0
84000,note_off,,,,,24,0,2,,,,,1,,,69,0
84024,note_on,,,,,0,0,7,,,,,5,,,54,92
84024,note_on,,,,,0,0,2,,,,,1,,,69,92
84024,note_on,,,,,0,0,5,,,,,3,,,69,117
84024,note_off,,,,,24,0,5,,,,,3,,,71,0
84024,note_off,,,,,24,0,7,,,,,5,,,56,0
84024,note_on,,,,,0,0,1,,,,,0,,,75,92
84024,note_off,,,,,24,0,1,,,,,0,,,76,0
84024,note_off,,,,,24,0,2,,,,,1,,,71,0
84024,note_on,,,,,0,0,3,,,,,10,,,54,92
84024,note_off,,,,,24,0,3,,,,,10,,,56,0
84024,note_off,,,,,24,0,4,,,,,2,,,76,0
84024,note_on,,,,,0,0,4,,,,,2,,,75,117
84048,note_on,,,,,0,0,4,,,,,2,,,76,117
84048,note_off,,,,,24,0,7,,,,,5,,,54,0
84048,note_on,,,,,0,0,7,,,,,5,,,56,92
84048,note_off,,,,,24,0,4,,,,,2,,,75,0
84048,note_off,,,,,24,0,2,,,,,1,,,69,0
84048,note_on,,,,,0,0,2,,,,,1,,,71,92
84048,note_off,,,,,24,0,3,,,,,10,,,54,0
84048,note_on,,,,,0,0,3,,,,,10,,,56,92
84048,note_on,,,,,0,0,5,,,,,3,,,71,117
84048,note_off,,,,,24,0,5,,,,,3,,,69,0
84048,note_on,,,,,0,0,1,,,,,0,,,76,92
84048,note_off,,,,,24,0,1,,,,,0,,,75,0
84072,note_off,,,,,24,0,2,,,,,1,,,71,0
84072,note_off,,,,,24,0,1,,,,,0,,,76,0
84072,note_on,,,,,0,0,2,,,,,1,,,69,92
84072,note_on,,,,,0,0,1,,,,,0,,,75,92
84072,note_on,,,,,0,0,4,,,,,2,,,75,117
84072,note_on,,,,,0,0,7,,,,,5,,,54,92
84072,note_off,,,,,24,0,4,,,,,2,,,76,0
84072,note_off,,,,,24,0,3,,,,,10,,,56,0
84072,note_on,,,,,0,0,5,,,,,3,,,69,117
84072,note_off,,,,,24,0,5,,,,,3,,,71,0
84072,note_off,,,,,24,0,7,,,,,5,,,56,0
84072,note_on,,,,,0,0,3,,,,,10,,,54,92
84224,note_off,,,,,512,0,10,,,,,8,,,54,0
84224,note_off,,,,,512,0,8,,,,,6,,,42,0
84224,note_off,,,,,512,0,6,,,,,4,,,66,0
84284,note_off,,,,,212,0,3,,,,,10,,,54,0
84284,note_off,,,,,212,0,2,,,,,1,,,69,0
84284,note_off,,,,,212,0,5,,,,,3,,,69,0
84284,note_off,,,,,212,0,4,,,,,2,,,75,0
84284,note_off,,,,,212,0,1,,,,,0,,,75,0
84284,note_off,,,,,212,0,7,,,,,5,,,54,0
84288,note_on,,,,,64,0,10,,,,,8,,,52,60
84288,note_on,,,,,4,0,5,,,,,3,,,68,117
84288,note_on,,,,,64,0,6,,,,,4,,,59,92
84288,note_on,,,,,4,0,1,,,,,0,,,76,92
84288,note_on,,,,,64,0,8,,,,,6,,,40,77
84288,note_on,,,,,4,0,7,,,,,5,,,52,92
84288,note_on,,,,,4,0,2,,,,,1,,,68,92
84288,note_on,,,,,4,0,3,,,,,10,,,52,92
84288,note_on,,,,,4,0,4,,,,,2,,,76,117
84476,note_off,,,,,188,0,2,,,,,1,,,68,0
84476,note_off,,,,,188,0,6,,,,,4,,,59,0
84476,note_off,,,,,188,0,8,,,,,6,,,40,0
84476,note_off,,,,,188,0,3,,,,,10,,,52,0
84476,note_off,,,,,188,0,1,,,,,0,,,76,0
84476,note_off,,,,,188,0,10,,,,,8,,,52,0
84476,note_off,,,,,188,0,7,,,,,5,,,52,0
84476,note_off,,,,,188,0,4,,,,,2,,,76,0
84476,note_off,,,,,188,0,5,,,,,3,,,68,0
84480,note_on,,,,,4,0,7,,,,,5,,,52,92
84480,note_on,,,,,4,0,5,,,,,3,,,68,117
84480,note_on,,,,,4,0,4,,,,,2,,,76,117
84480,note_on,,,,,4,0,2,,,,,1,,,68,92
84480,note_on,,,,,4,0,10,,,,,8,,,52,60
84480,note_on,,,,,4,0,6,,,,,4,,,59,92
84480,note_on,,,,,4,0,3,,,,,10,,,52,92
84480,note_on,,,,,4,0,1,,,,,0,,,76,92
84480,note_on,,,,,4,0,8,,,,,6,,,40,77
85152,note_off,,,,,672,0,7,,,,,5,,,52,0
85152,end_of_track,,,,,0,1,7,,,,,,,,,
85152,end_of_track,,,,,0,1,3,,,,,,,,,
85152,note_off,,,,,672,0,3,,,,,10,,,52,0
85152,note_off,,,,,672,0,4,,,,,2,,,76,0
85152,end_of_track,,,,,0,1,6,,,,,,,,,
85152,note_off,,,,,672,0,6,,,,,4,,,59,0
85152,end_of_track,,,,,0,1,10,,,,,,,,,
85152,note_off,,,,,672,0,10,,,,,8,,,52,0
85152,end_of_track,,,,,0,1,4,,,,,,,,,
85152,note_off,,,,,672,0,8,,,,,6,,,40,0
85152,end_of_track,,,,,0,1,8,,,,,,,,,
85152,note_off,,,,,672,0,1,,,,,0,,,76,0
85152,end_of_track,,,,,0,1,1,,,,,,,,,
85152,end_of_track,,,,,0,1,2,,,,,,,,,
85152,note_off,,,,,672,0,2,,,,,1,,,68,0
85152,end_of_track,,,,,0,1,5,,,,,,,,,
85152,note_off,,,,,672,0,5,,,,,3,,,68,0
