tick,type,numerator,denominator,clocks_per_click,notated_32nd_notes_per_beat,time,meta,track,data,tempo,control,value,channel,program,key,note,velocity
0,time_signature,3,2,96,8,0,1,0,,,,,,,,,
0,control_change,,,,,0,0,8,,,10,75,7,,,,
0,control_change,,,,,0,0,8,,,0,0,7,,,,
0,track_name,,,,,0,1,8,,,,,,,,,
0,note_on,,,,,0,0,7,,,,,6,,,34,63
0,key_signature,,,,,0,1,7,,,,,,,Bb,,
0,program_change,,,,,0,0,7,,,,,6,43,,,
0,control_change,,,,,0,0,8,,,121,0,7,,,,
0,control_change,,,,,0,0,7,,,7,127,6,,,,
0,control_change,,,,,0,0,7,,,10,64,6,,,,
0,control_change,,,,,0,0,7,,,0,0,6,,,,
0,track_name,,,,,0,1,7,,,,,,,,,
0,note_on,,,,,0,0,6,,,,,5,,,46,75
0,key_signature,,,,,0,1,6,,,,,,,Bb,,
0,program_change,,,,,0,0,6,,,,,5,42,,,
0,control_change,,,,,0,0,7,,,121,0,6,,,,
0,control_change,,,,,0,0,6,,,7,127,5,,,,
0,control_change,,,,,0,0,8,,,7,127,7,,,,
0,key_signature,,,,,0,1,8,,,,,,,Bb,,
0,track_name,,,,,0,1,11,,,,,,,,,
0,end_of_track,,,,,0,1,10,,,,,,,,,
0,key_signature,,,,,0,1,10,,,,,,,C,,
0,track_name,,,,,0,1,10,,,,,,,,,
0,note_on,,,,,0,0,9,,,,,8,,,46,37
0,key_signature,,,,,0,1,9,,,,,,,Bb,,
0,program_change,,,,,0,0,8,,,,,7,6,,,
0,program_change,,,,,0,0,9,,,,,8,6,,,
0,control_change,,,,,0,0,9,,,121,0,8,,,,
0,control_change,,,,,0,0,9,,,10,51,8,,,,
0,control_change,,,,,0,0,9,,,0,0,8,,,,
0,track_name,,,,,0,1,9,,,,,,,,,
0,note_on,,,,,0,0,8,,,,,7,,,65,37
0,note_on,,,,,0,0,8,,,,,7,,,62,37
0,control_change,,,,,0,0,9,,,7,127,8,,,,
0,key_signature,,,,,0,1,11,,,,,,,C,,
0,control_change,,,,,0,0,6,,,121,0,5,,,,
0,control_change,,,,,0,0,6,,,0,0,5,,,,
0,note_on,,,,,0,0,3,,,,,2,,,77,92
0,key_signature,,,,,0,1,3,,,,,,,Bb,,
0,program_change,,,,,0,0,3,,,,,2,48,,,
0,control_change,,,,,0,0,3,,,7,127,2,,,,
0,control_change,,,,,0,0,3,,,121,0,2,,,,
0,control_change,,,,,0,0,3,,,10,21,2,,,,
0,track_name,,,,,0,1,4,,,,,,,,,
0,control_change,,,,,0,0,3,,,0,0,2,,,,
0,note_on,,,,,0,0,2,,,,,1,,,74,75
0,key_signature,,,,,0,1,2,,,,,,,Bb,,
0,program_change,,,,,0,0,2,,,,,1,40,,,
0,control_change,,,,,0,0,2,,,7,127,1,,,,
0,control_change,,,,,0,0,2,,,121,0,1,,,,
0,control_change,,,,,0,0,2,,,10,105,1,,,,
0,track_name,,,,,0,1,3,,,,,,,,,
0,control_change,,,,,0,0,6,,,10,24,5,,,,
0,control_change,,,,,0,0,4,,,0,0,3,,,,
0,control_change,,,,,0,0,4,,,121,0,3,,,,
0,track_name,,,,,0,1,6,,,,,,,,,
0,note_on,,,,,0,0,5,,,,,4,,,58,75
0,key_signature,,,,,0,1,5,,,,,,,Bb,,
0,program_change,,,,,0,0,5,,,,,4,41,,,
0,control_change,,,,,0,0,5,,,7,127,4,,,,
0,control_change,,,,,0,0,5,,,121,0,4,,,,
0,control_change,,,,,0,0,4,,,10,105,3,,,,
0,control_change,,,,,0,0,5,,,10,105,4,,,,
0,track_name,,,,,0,1,5,,,,,,,,,
0,key_signature,,,,,0,1,45,,,,,,,C,,
0,note_on,,,,,0,0,4,,,,,3,,,74,92
0,key_signature,,,,,0,1,4,,,,,,,Bb,,
0,program_change,,,,,0,0,4,,,,,3,48,,,
0,control_change,,,,,0,0,4,,,7,127,3,,,,
0,control_change,,,,,0,0,5,,,0,0,4,,,,
0,control_change,,,,,0,0,2,,,0,0,1,,,,
0,end_of_track,,,,,0,1,11,,,,,,,,,
0,key_signature,,,,,0,1,12,,,,,,,C,,
0,end_of_track,,,,,0,1,35,,,,,,,,,
0,key_signature,,,,,0,1,35,,,,,,,C,,
0,end_of_track,,,,,0,1,34,,,,,,,,,
0,key_signature,,,,,0,1,34,,,,,,,C,,
0,end_of_track,,,,,0,1,33,,,,,,,,,
0,key_signature,,,,,0,1,33,,,,,,,C,,
0,key_signature,,,,,0,1,36,,,,,,,C,,
0,end_of_track,,,,,0,1,32,,,,,,,,,
0,end_of_track,,,,,0,1,31,,,,,,,,,
0,key_signature,,,,,0,1,31,,,,,,,C,,
0,end_of_track,,,,,0,1,30,,,,,,,,,
0,key_signature,,,,,0,1,30,,,,,,,C,,
0,end_of_track,,,,,0,1,29,,,,,,,,,
0,key_signature,,,,,0,1,29,,,,,,,C,,
0,key_signature,,,,,0,1,32,,,,,,,C,,
0,end_of_track,,,,,0,1,28,,,,,,,,,
0,end_of_track,,,,,0,1,36,,,,,,,,,
0,end_of_track,,,,,0,1,37,,,,,,,,,
0,end_of_track,,,,,0,1,44,,,,,,,,,
0,key_signature,,,,,0,1,44,,,,,,,C,,
0,end_of_track,,,,,0,1,43,,,,,,,,,
0,key_signature,,,,,0,1,43,,,,,,,C,,
0,end_of_track,,,,,0,1,42,,,,,,,,,
0,key_signature,,,,,0,1,42,,,,,,,C,,
0,key_signature,,,,,0,1,37,,,,,,,C,,
0,end_of_track,,,,,0,1,41,,,,,,,,,
0,end_of_track,,,,,0,1,40,,,,,,,,,
0,key_signature,,,,,0,1,40,,,,,,,C,,
0,end_of_track,,,,,0,1,39,,,,,,,,,
0,key_signature,,,,,0,1,39,,,,,,,C,,
0,end_of_track,,,,,0,1,38,,,,,,,,,
0,key_signature,,,,,0,1,38,,,,,,,C,,
0,key_signature,,,,,0,1,41,,,,,,,C,,
0,track_name,,,,,0,1,12,,,,,,,,,
0,key_signature,,,,,0,1,28,,,,,,,C,,
0,key_signature,,,,,0,1,27,,,,,,,C,,
0,end_of_track,,,,,0,1,17,,,,,,,,,
0,key_signature,,,,,0,1,17,,,,,,,C,,
0,end_of_track,,,,,0,1,16,,,,,,,,,
0,key_signature,,,,,0,1,16,,,,,,,C,,
0,end_of_track,,,,,0,1,15,,,,,,,,,
0,key_signature,,,,,0,1,15,,,,,,,C,,
0,key_signature,,,,,0,1,18,,,,,,,C,,
0,track_name,,,,,0,1,15,,,,,,,,,
0,key_signature,,,,,0,1,14,,,,,,,C,,
0,track_name,,,,,0,1,14,,,,,,,,,
0,end_of_track,,,,,0,1,13,,,,,,,,,
0,key_signature,,,,,0,1,13,,,,,,,C,,
0,track_name,,,,,0,1,13,,,,,,,,,
0,end_of_track,,,,,0,1,12,,,,,,,,,
0,end_of_track,,,,,0,1,14,,,,,,,,,
0,end_of_track,,,,,0,1,27,,,,,,,,,
0,end_of_track,,,,,0,1,18,,,,,,,,,
0,end_of_track,,,,,0,1,19,,,,,,,,,
0,end_of_track,,,,,0,1,26,,,,,,,,,
0,key_signature,,,,,0,1,26,,,,,,,C,,
0,end_of_track,,,,,0,1,25,,,,,,,,,
0,key_signature,,,,,0,1,25,,,,,,,C,,
0,end_of_track,,,,,0,1,24,,,,,,,,,
0,key_signature,,,,,0,1,24,,,,,,,C,,
0,key_signature,,,,,0,1,19,,,,,,,C,,
0,end_of_track,,,,,0,1,23,,,,,,,,,
0,end_of_track,,,,,0,1,22,,,,,,,,,
0,key_signature,,,,,0,1,22,,,,,,,C,,
0,end_of_track,,,,,0,1,21,,,,,,,,,
0,key_signature,,,,,0,1,21,,,,,,,C,,
0,end_of_track,,,,,0,1,20,,,,,,,,,
0,key_signature,,,,,0,1,20,,,,,,,C,,
0,key_signature,,,,,0,1,23,,,,,,,C,,
0,track_name,,,,,0,1,2,,,,,,,,,
0,end_of_track,,,,,0,1,45,,,,,,,,,
0,sequencer_specific,,,,,0,1,0,"(0, 0, 65)",,,,,,,,
0,track_name,,,,,0,1,1,,,,,,,,,
0,control_change,,,,,0,0,1,,,0,0,0,,,,
0,control_change,,,,,0,0,1,,,121,0,0,,,,
0,control_change,,,,,0,0,1,,,7,127,0,,,,
0,program_change,,,,,0,0,1,,,,,0,40,,,
0,control_change,,,,,0,0,1,,,10,24,0,,,,
0,note_on,,,,,0,0,1,,,,,0,,,77,75
0,key_signature,,,,,0,1,1,,,,,,,Bb,,
0,set_tempo,,,,,0,1,0,,315789,,,,,,,
384,note_off,,,,,384,0,1,,,,,0,,,77,0
384,note_on,,,,,0,0,1,,,,,0,,,74,75
384,note_on,,,,,0,0,3,,,,,2,,,74,92
384,note_off,,,,,384,0,3,,,,,2,,,77,0
384,note_on,,,,,0,0,5,,,,,4,,,65,75
384,note_off,,,,,384,0,5,,,,,4,,,58,0
384,note_on,,,,,0,0,4,,,,,3,,,70,92
384,note_on,,,,,0,0,2,,,,,1,,,70,75
384,note_off,,,,,384,0,2,,,,,1,,,74,0
384,note_off,,,,,384,0,4,,,,,3,,,74,0
672,note_off,,,,,672,0,8,,,,,7,,,62,0
672,note_off,,,,,672,0,7,,,,,6,,,34,0
672,note_off,,,,,0,0,8,,,,,7,,,65,0
672,note_off,,,,,672,0,9,,,,,8,,,46,0
768,note_on,,,,,96,0,7,,,,,6,,,38,63
768,note_off,,,,,768,0,6,,,,,5,,,46,0
768,note_on,,,,,0,0,8,,,,,7,,,70,37
768,note_on,,,,,0,0,8,,,,,7,,,65,37
768,note_on,,,,,96,0,8,,,,,7,,,62,37
768,note_on,,,,,0,0,6,,,,,5,,,50,75
768,note_on,,,,,96,0,9,,,,,8,,,50,37
1152,note_on,,,,,0,0,3,,,,,2,,,70,92
1152,note_on,,,,,0,0,4,,,,,3,,,65,92
1152,note_off,,,,,768,0,4,,,,,3,,,70,0
1152,note_on,,,,,0,0,2,,,,,1,,,65,75
1152,note_off,,,,,768,0,1,,,,,0,,,74,0
1152,note_on,,,,,0,0,1,,,,,0,,,70,75
1152,note_off,,,,,768,0,5,,,,,4,,,65,0
1152,note_on,,,,,0,0,5,,,,,4,,,62,75
1152,note_off,,,,,768,0,2,,,,,1,,,70,0
1152,note_off,,,,,768,0,3,,,,,2,,,74,0
1440,note_off,,,,,672,0,9,,,,,8,,,50,0
1440,note_off,,,,,672,0,8,,,,,7,,,62,0
1440,note_off,,,,,672,0,7,,,,,6,,,38,0
1536,note_on,,,,,96,0,9,,,,,8,,,55,37
1536,note_on,,,,,96,0,8,,,,,7,,,58,37
1536,note_off,,,,,384,0,5,,,,,4,,,62,0
1536,note_on,,,,,96,0,7,,,,,6,,,43,63
1536,note_on,,,,,0,0,5,,,,,4,,,58,75
1536,note_on,,,,,0,0,6,,,,,5,,,55,75
1536,note_off,,,,,768,0,6,,,,,5,,,50,0
1728,note_on,,,,,0,0,3,,,,,2,,,74,92
1728,note_off,,,,,576,0,1,,,,,0,,,70,0
1728,note_on,,,,,0,0,1,,,,,0,,,74,75
1728,note_off,,,,,576,0,3,,,,,2,,,70,0
1856,note_off,,,,,320,0,8,,,,,7,,,65,0
1856,note_off,,,,,0,0,8,,,,,7,,,70,0
1920,note_on,,,,,0,0,4,,,,,3,,,64,92
1920,note_off,,,,,192,0,3,,,,,2,,,74,0
1920,note_off,,,,,768,0,4,,,,,3,,,65,0
1920,note_on,,,,,0,0,3,,,,,2,,,72,92
1920,note_on,,,,,0,0,2,,,,,1,,,64,75
1920,note_off,,,,,768,0,2,,,,,1,,,65,0
1920,note_on,,,,,64,0,8,,,,,7,,,64,37
1920,note_on,,,,,0,0,1,,,,,0,,,72,75
1920,note_off,,,,,192,0,1,,,,,0,,,74,0
2112,note_on,,,,,0,0,3,,,,,2,,,70,92
2112,note_on,,,,,0,0,1,,,,,0,,,70,75
2112,note_off,,,,,192,0,1,,,,,0,,,72,0
2112,note_off,,,,,192,0,3,,,,,2,,,72,0
2208,note_off,,,,,672,0,7,,,,,6,,,43,0
2208,note_off,,,,,672,0,9,,,,,8,,,55,0
2240,note_off,,,,,0,0,8,,,,,7,,,64,0
2240,note_off,,,,,320,0,8,,,,,7,,,58,0
2304,note_off,,,,,192,0,1,,,,,0,,,70,0
2304,note_on,,,,,96,0,9,,,,,8,,,53,37
2304,note_off,,,,,768,0,5,,,,,4,,,58,0
2304,note_on,,,,,96,0,7,,,,,6,,,41,63
2304,note_on,,,,,0,0,8,,,,,7,,,69,37
2304,note_on,,,,,0,0,8,,,,,7,,,65,37
2304,note_off,,,,,384,0,2,,,,,1,,,64,0
2304,note_on,,,,,64,0,8,,,,,7,,,60,37
2304,note_on,,,,,0,0,1,,,,,0,,,72,75
2304,note_on,,,,,0,0,6,,,,,5,,,53,75
2304,note_on,,,,,0,0,4,,,,,3,,,69,92
2304,note_off,,,,,384,0,4,,,,,3,,,64,0
2304,note_off,,,,,768,0,6,,,,,5,,,55,0
2304,note_on,,,,,0,0,2,,,,,1,,,69,75
2304,note_off,,,,,192,0,3,,,,,2,,,70,0
2304,note_on,,,,,0,0,5,,,,,4,,,65,75
2304,note_on,,,,,0,0,3,,,,,2,,,72,92
2496,note_off,,,,,192,0,1,,,,,0,,,72,0
2496,note_on,,,,,0,0,1,,,,,0,,,69,75
2496,note_off,,,,,192,0,3,,,,,2,,,72,0
2496,note_on,,,,,0,0,3,,,,,2,,,69,92
2496,note_off,,,,,192,0,4,,,,,3,,,69,0
2496,note_on,,,,,0,0,4,,,,,3,,,65,92
2496,note_off,,,,,192,0,2,,,,,1,,,69,0
2496,note_on,,,,,0,0,2,,,,,1,,,65,75
2688,note_off,,,,,192,0,1,,,,,0,,,69,0
2688,note_on,,,,,0,0,1,,,,,0,,,65,75
2688,note_on,,,,,0,0,2,,,,,1,,,60,75
2688,note_off,,,,,192,0,2,,,,,1,,,65,0
2688,note_on,,,,,0,0,3,,,,,2,,,65,92
2688,note_off,,,,,192,0,3,,,,,2,,,69,0
2688,note_off,,,,,192,0,4,,,,,3,,,65,0
2688,note_on,,,,,0,0,4,,,,,3,,,60,92
2976,note_off,,,,,672,0,9,,,,,8,,,53,0
2976,note_off,,,,,672,0,7,,,,,6,,,41,0
2976,note_off,,,,,0,0,8,,,,,7,,,69,0
2976,note_off,,,,,0,0,8,,,,,7,,,65,0
2976,note_off,,,,,672,0,8,,,,,7,,,60,0
3072,note_on,,,,,0,0,6,,,,,5,,,57,75
3072,note_on,,,,,96,0,9,,,,,8,,,57,37
3072,note_on,,,,,0,0,8,,,,,7,,,72,37
3072,note_on,,,,,96,0,8,,,,,7,,,60,37
3072,note_on,,,,,96,0,7,,,,,6,,,45,63
3072,note_on,,,,,0,0,8,,,,,7,,,65,37
3072,note_off,,,,,768,0,6,,,,,5,,,53,0
3072,note_on,,,,,0,0,5,,,,,4,,,65,75
3072,note_off,,,,,768,0,5,,,,,4,,,65,0
3456,note_off,,,,,768,0,4,,,,,3,,,60,0
3456,note_on,,,,,0,0,4,,,,,3,,,72,92
3456,note_on,,,,,0,0,2,,,,,1,,,72,75
3456,note_off,,,,,768,0,2,,,,,1,,,60,0
3456,note_off,,,,,768,0,3,,,,,2,,,65,0
3456,note_on,,,,,0,0,1,,,,,0,,,77,75
3456,note_off,,,,,768,0,1,,,,,0,,,65,0
3456,note_on,,,,,0,0,3,,,,,2,,,77,92
3744,note_off,,,,,0,0,8,,,,,7,,,72,0
3744,note_off,,,,,0,0,8,,,,,7,,,65,0
3744,note_off,,,,,672,0,8,,,,,7,,,60,0
3744,note_off,,,,,672,0,7,,,,,6,,,45,0
3744,note_off,,,,,672,0,9,,,,,8,,,57,0
3840,note_on,,,,,96,0,7,,,,,6,,,46,63
3840,note_on,,,,,0,0,8,,,,,7,,,70,37
3840,note_on,,,,,0,0,8,,,,,7,,,65,37
3840,note_on,,,,,96,0,8,,,,,7,,,62,37
3840,note_on,,,,,0,0,6,,,,,5,,,58,75
3840,note_off,,,,,768,0,6,,,,,5,,,57,0
3840,note_on,,,,,0,0,5,,,,,4,,,70,75
3840,note_on,,,,,96,0,9,,,,,8,,,58,37
3840,note_off,,,,,768,0,5,,,,,4,,,65,0
4224,note_on,,,,,0,0,2,,,,,1,,,74,75
4224,note_off,,,,,768,0,3,,,,,2,,,77,0
4224,note_off,,,,,768,0,2,,,,,1,,,72,0
4224,note_on,,,,,0,0,1,,,,,0,,,74,75
4224,note_off,,,,,768,0,1,,,,,0,,,77,0
4224,note_on,,,,,0,0,4,,,,,3,,,74,92
4224,note_off,,,,,768,0,4,,,,,3,,,72,0
4224,note_on,,,,,0,0,3,,,,,2,,,74,92
4416,note_off,,,,,192,0,4,,,,,3,,,74,0
4416,note_on,,,,,0,0,2,,,,,1,,,70,75
4416,note_on,,,,,0,0,4,,,,,3,,,70,92
4416,note_off,,,,,192,0,2,,,,,1,,,74,0
4512,note_off,,,,,672,0,9,,,,,8,,,58,0
4512,note_off,,,,,672,0,7,,,,,6,,,46,0
4512,note_off,,,,,672,0,8,,,,,7,,,62,0
4512,note_off,,,,,0,0,8,,,,,7,,,65,0
4512,note_off,,,,,0,0,8,,,,,7,,,70,0
4608,note_on,,,,,0,0,2,,,,,1,,,67,75
4608,note_off,,,,,384,0,3,,,,,2,,,74,0
4608,note_on,,,,,0,0,3,,,,,2,,,79,92
4608,note_on,,,,,96,0,7,,,,,6,,,39,63
4608,note_off,,,,,768,0,6,,,,,5,,,58,0
4608,note_on,,,,,0,0,6,,,,,5,,,51,75
4608,note_on,,,,,0,0,8,,,,,7,,,67,37
4608,note_on,,,,,0,0,8,,,,,7,,,70,37
4608,note_off,,,,,192,0,2,,,,,1,,,70,0
4608,note_on,,,,,96,0,8,,,,,7,,,63,37
4608,note_on,,,,,0,0,5,,,,,4,,,70,75
4608,note_on,,,,,96,0,9,,,,,8,,,51,37
4608,note_off,,,,,192,0,4,,,,,3,,,70,0
4608,note_off,,,,,768,0,5,,,,,4,,,70,0
4608,note_on,,,,,0,0,4,,,,,3,,,67,92
4608,note_off,,,,,384,0,1,,,,,0,,,74,0
4608,note_on,,,,,0,0,1,,,,,0,,,79,75
4800,note_on,,,,,0,0,1,,,,,0,,,75,75
4800,note_off,,,,,192,0,3,,,,,2,,,79,0
4800,note_on,,,,,0,0,3,,,,,2,,,75,92
4800,note_off,,,,,192,0,1,,,,,0,,,79,0
4992,note_on,,,,,0,0,3,,,,,2,,,84,92
4992,note_off,,,,,384,0,5,,,,,4,,,70,0
4992,note_off,,,,,192,0,1,,,,,0,,,75,0
4992,note_off,,,,,192,0,3,,,,,2,,,75,0
4992,note_on,,,,,0,0,5,,,,,4,,,67,75
4992,note_on,,,,,0,0,1,,,,,0,,,84,75
5280,note_off,,,,,672,0,9,,,,,8,,,51,0
5280,note_off,,,,,672,0,7,,,,,6,,,39,0
5280,note_off,,,,,672,0,8,,,,,7,,,63,0
5280,note_off,,,,,0,0,8,,,,,7,,,67,0
5280,note_off,,,,,0,0,8,,,,,7,,,70,0
5376,note_on,,,,,0,0,4,,,,,3,,,63,92
5376,note_on,,,,,0,0,8,,,,,7,,,72,37
5376,note_on,,,,,0,0,2,,,,,1,,,63,75
5376,note_off,,,,,768,0,2,,,,,1,,,67,0
5376,note_on,,,,,0,0,8,,,,,7,,,67,37
5376,note_on,,,,,0,0,6,,,,,5,,,48,75
5376,note_on,,,,,96,0,8,,,,,7,,,63,37
5376,note_on,,,,,96,0,9,,,,,8,,,48,37
5376,note_off,,,,,768,0,4,,,,,3,,,67,0
5376,note_off,,,,,768,0,6,,,,,5,,,51,0
5376,note_on,,,,,96,0,7,,,,,6,,,36,63
5568,note_on,,,,,0,0,4,,,,,3,,,60,92
5568,note_off,,,,,192,0,2,,,,,1,,,63,0
5568,note_on,,,,,0,0,2,,,,,1,,,60,75
5568,note_off,,,,,192,0,4,,,,,3,,,63,0
5760,note_off,,,,,768,0,1,,,,,0,,,84,0
5760,note_off,,,,,192,0,2,,,,,1,,,60,0
5760,note_on,,,,,0,0,5,,,,,4,,,67,75
5760,note_on,,,,,0,0,1,,,,,0,,,75,75
5760,note_off,,,,,768,0,5,,,,,4,,,67,0
5760,note_off,,,,,192,0,4,,,,,3,,,60,0
5760,note_off,,,,,768,0,3,,,,,2,,,84,0
5760,note_on,,,,,0,0,3,,,,,2,,,75,92
5760,note_on,,,,,0,0,2,,,,,1,,,72,75
5760,note_on,,,,,0,0,4,,,,,3,,,72,92
6048,note_off,,,,,672,0,8,,,,,7,,,63,0
6048,note_off,,,,,0,0,8,,,,,7,,,67,0
6048,note_off,,,,,672,0,9,,,,,8,,,48,0
6048,note_off,,,,,0,0,8,,,,,7,,,72,0
6048,note_off,,,,,672,0,7,,,,,6,,,36,0
6144,note_off,,,,,384,0,5,,,,,4,,,67,0
6144,note_on,,,,,96,0,7,,,,,6,,,41,63
6144,note_off,,,,,768,0,6,,,,,5,,,48,0
6144,note_on,,,,,0,0,6,,,,,5,,,53,75
6144,note_on,,,,,96,0,9,,,,,8,,,53,37
6144,note_on,,,,,0,0,5,,,,,4,,,69,75
6144,note_on,,,,,0,0,8,,,,,7,,,69,37
6144,note_on,,,,,96,0,8,,,,,7,,,60,37
6144,note_on,,,,,0,0,8,,,,,7,,,65,37
6528,note_on,,,,,0,0,4,,,,,3,,,70,92
6528,note_off,,,,,768,0,4,,,,,3,,,72,0
6528,note_on,,,,,0,0,5,,,,,4,,,65,75
6528,note_off,,,,,768,0,2,,,,,1,,,72,0
6528,note_on,,,,,0,0,2,,,,,1,,,70,75
6528,note_off,,,,,768,0,1,,,,,0,,,75,0
6528,note_on,,,,,0,0,1,,,,,0,,,74,75
6528,note_off,,,,,384,0,5,,,,,4,,,69,0
6528,note_off,,,,,768,0,3,,,,,2,,,75,0
6528,note_on,,,,,0,0,3,,,,,2,,,74,92
6720,note_on,,,,,0,0,4,,,,,3,,,69,92
6720,note_on,,,,,0,0,3,,,,,2,,,72,92
6720,note_on,,,,,0,0,1,,,,,0,,,72,75
6720,note_off,,,,,192,0,1,,,,,0,,,74,0
6720,note_on,,,,,0,0,2,,,,,1,,,69,75
6720,note_off,,,,,192,0,3,,,,,2,,,74,0
6720,note_off,,,,,192,0,4,,,,,3,,,70,0
6720,note_off,,,,,192,0,2,,,,,1,,,70,0
6816,note_off,,,,,672,0,7,,,,,6,,,41,0
6816,note_off,,,,,672,0,9,,,,,8,,,53,0
6816,note_off,,,,,0,0,8,,,,,7,,,65,0
6816,note_off,,,,,672,0,8,,,,,7,,,60,0
6816,note_off,,,,,0,0,8,,,,,7,,,69,0
6912,note_on,,,,,0,0,6,,,,,5,,,50,75
6912,note_on,,,,,0,0,1,,,,,0,,,77,75
6912,note_off,,,,,192,0,1,,,,,0,,,72,0
6912,note_on,,,,,0,0,3,,,,,2,,,77,92
6912,note_off,,,,,768,0,6,,,,,5,,,53,0
6912,note_on,,,,,0,0,5,,,,,4,,,65,75
6912,note_off,,,,,384,0,5,,,,,4,,,65,0
6912,note_off,,,,,192,0,3,,,,,2,,,72,0
6912,note_on,,,,,96,0,8,,,,,7,,,62,37
6912,note_on,,,,,0,0,8,,,,,7,,,65,37
6912,note_on,,,,,0,0,8,,,,,7,,,70,37
6912,note_on,,,,,96,0,9,,,,,8,,,50,37
6912,note_off,,,,,192,0,2,,,,,1,,,69,0
6912,note_on,,,,,96,0,7,,,,,6,,,38,63
6912,note_on,,,,,0,0,4,,,,,3,,,70,92
6912,note_off,,,,,192,0,4,,,,,3,,,69,0
6912,note_on,,,,,0,0,2,,,,,1,,,70,75
7104,note_on,,,,,0,0,3,,,,,2,,,74,92
7104,note_on,,,,,0,0,1,,,,,0,,,74,75
7104,note_off,,,,,192,0,1,,,,,0,,,77,0
7104,note_off,,,,,192,0,3,,,,,2,,,77,0
7296,note_on,,,,,0,0,1,,,,,0,,,82,75
7296,note_on,,,,,0,0,3,,,,,2,,,82,92
7296,note_off,,,,,192,0,1,,,,,0,,,74,0
7296,note_off,,,,,192,0,3,,,,,2,,,74,0
7584,note_off,,,,,672,0,9,,,,,8,,,50,0
7584,note_off,,,,,672,0,8,,,,,7,,,62,0
7584,note_off,,,,,0,0,8,,,,,7,,,65,0
7584,note_off,,,,,0,0,8,,,,,7,,,70,0
7584,note_off,,,,,672,0,7,,,,,6,,,38,0
7680,note_on,,,,,0,0,6,,,,,5,,,46,75
7680,note_off,,,,,768,0,6,,,,,5,,,50,0
7680,note_on,,,,,96,0,8,,,,,7,,,62,37
7680,note_on,,,,,0,0,8,,,,,7,,,65,37
7680,note_off,,,,,768,0,4,,,,,3,,,70,0
7680,note_on,,,,,0,0,5,,,,,4,,,62,75
7680,note_on,,,,,96,0,9,,,,,8,,,46,37
7680,note_on,,,,,0,0,2,,,,,1,,,70,75
7680,note_off,,,,,768,0,2,,,,,1,,,70,0
7680,note_on,,,,,96,0,7,,,,,6,,,34,63
7680,note_on,,,,,0,0,4,,,,,3,,,70,92
7680,note_off,,,,,768,0,5,,,,,4,,,65,0
7872,note_on,,,,,0,0,4,,,,,3,,,65,92
7872,note_off,,,,,192,0,4,,,,,3,,,70,0
7872,note_on,,,,,0,0,2,,,,,1,,,65,75
7872,note_off,,,,,192,0,2,,,,,1,,,70,0
8064,note_on,,,,,0,0,2,,,,,1,,,74,75
8064,note_off,,,,,768,0,1,,,,,0,,,82,0
8064,note_on,,,,,0,0,1,,,,,0,,,77,75
8064,note_off,,,,,192,0,2,,,,,1,,,65,0
8064,note_off,,,,,192,0,4,,,,,3,,,65,0
8064,note_on,,,,,0,0,4,,,,,3,,,74,92
8064,note_off,,,,,768,0,3,,,,,2,,,82,0
8064,note_on,,,,,0,0,3,,,,,2,,,77,92
8352,note_off,,,,,672,0,8,,,,,7,,,62,0
8352,note_off,,,,,672,0,9,,,,,8,,,46,0
8352,note_off,,,,,672,0,7,,,,,6,,,34,0
8352,note_off,,,,,0,0,8,,,,,7,,,65,0
8448,note_on,,,,,96,0,7,,,,,6,,,46,63
8448,note_on,,,,,96,0,9,,,,,8,,,58,37
8448,note_on,,,,,96,0,8,,,,,7,,,62,37
8448,note_on,,,,,0,0,8,,,,,7,,,65,37
8448,note_on,,,,,0,0,8,,,,,7,,,70,37
8448,note_off,,,,,768,0,6,,,,,5,,,46,0
8448,note_on,,,,,0,0,6,,,,,5,,,58,75
8448,note_off,,,,,768,0,5,,,,,4,,,62,0
8448,note_on,,,,,0,0,5,,,,,4,,,65,75
8832,note_off,,,,,768,0,4,,,,,3,,,74,0
8832,note_off,,,,,768,0,2,,,,,1,,,74,0
8832,note_on,,,,,0,0,2,,,,,1,,,72,75
8832,note_off,,,,,768,0,1,,,,,0,,,77,0
8832,note_on,,,,,0,0,4,,,,,3,,,72,92
8832,note_off,,,,,768,0,3,,,,,2,,,77,0
8832,note_on,,,,,0,0,3,,,,,2,,,75,92
8832,note_on,,,,,0,0,1,,,,,0,,,75,75
9024,note_on,,,,,0,0,3,,,,,2,,,74,92
9024,note_off,,,,,192,0,3,,,,,2,,,75,0
9024,note_on,,,,,0,0,1,,,,,0,,,74,75
9024,note_off,,,,,192,0,1,,,,,0,,,75,0
9120,note_off,,,,,672,0,7,,,,,6,,,46,0
9120,note_off,,,,,0,0,8,,,,,7,,,65,0
9120,note_off,,,,,0,0,8,,,,,7,,,70,0
9120,note_off,,,,,672,0,8,,,,,7,,,62,0
9120,note_off,,,,,672,0,9,,,,,8,,,58,0
9216,note_on,,,,,0,0,3,,,,,2,,,79,92
9216,note_on,,,,,96,0,8,,,,,7,,,60,37
9216,note_on,,,,,0,0,8,,,,,7,,,69,37
9216,note_off,,,,,192,0,3,,,,,2,,,74,0
9216,note_on,,,,,0,0,8,,,,,7,,,65,37
9216,note_on,,,,,0,0,6,,,,,5,,,51,75
9216,note_on,,,,,0,0,1,,,,,0,,,79,75
9216,note_on,,,,,96,0,9,,,,,8,,,51,37
9216,note_off,,,,,192,0,1,,,,,0,,,74,0
9216,note_off,,,,,768,0,6,,,,,5,,,58,0
9216,note_on,,,,,96,0,7,,,,,6,,,39,63
9216,note_off,,,,,768,0,5,,,,,4,,,65,0
9216,note_on,,,,,0,0,5,,,,,4,,,63,75
9408,note_off,,,,,192,0,1,,,,,0,,,79,0
9408,note_on,,,,,0,0,1,,,,,0,,,75,75
9408,note_on,,,,,0,0,3,,,,,2,,,75,92
9408,note_off,,,,,192,0,3,,,,,2,,,79,0
9600,note_off,,,,,192,0,3,,,,,2,,,75,0
9600,note_on,,,,,0,0,3,,,,,2,,,77,92
9600,note_on,,,,,0,0,1,,,,,0,,,77,75
9600,note_on,,,,,0,0,4,,,,,3,,,67,92
9600,note_off,,,,,768,0,4,,,,,3,,,72,0
9600,note_off,,,,,192,0,1,,,,,0,,,75,0
9600,note_on,,,,,0,0,2,,,,,1,,,67,75
9600,note_off,,,,,768,0,2,,,,,1,,,72,0
9792,note_off,,,,,192,0,3,,,,,2,,,77,0
9792,note_on,,,,,0,0,1,,,,,0,,,74,75
9792,note_on,,,,,0,0,3,,,,,2,,,74,92
9792,note_off,,,,,192,0,1,,,,,0,,,77,0
9888,note_off,,,,,672,0,9,,,,,8,,,51,0
9888,note_off,,,,,672,0,7,,,,,6,,,39,0
9888,note_off,,,,,672,0,8,,,,,7,,,60,0
9888,note_off,,,,,0,0,8,,,,,7,,,65,0
9888,note_off,,,,,0,0,8,,,,,7,,,69,0
9984,note_on,,,,,0,0,5,,,,,4,,,58,75
9984,note_off,,,,,192,0,3,,,,,2,,,74,0
9984,note_on,,,,,0,0,3,,,,,2,,,75,92
9984,note_on,,,,,0,0,2,,,,,1,,,67,75
9984,note_off,,,,,384,0,2,,,,,1,,,67,0
9984,note_off,,,,,768,0,5,,,,,4,,,63,0
9984,note_on,,,,,0,0,6,,,,,5,,,39,75
9984,note_off,,,,,768,0,6,,,,,5,,,51,0
9984,note_on,,,,,96,0,8,,,,,7,,,60,37
9984,note_on,,,,,96,0,9,,,,,8,,,39,37
9984,note_on,,,,,0,0,1,,,,,0,,,75,75
9984,note_off,,,,,192,0,1,,,,,0,,,74,0
9984,note_on,,,,,0,0,8,,,,,7,,,65,37
9984,note_on,,,,,96,0,7,,,,,6,,,27,63
9984,note_off,,,,,384,0,4,,,,,3,,,67,0
9984,note_on,,,,,0,0,4,,,,,3,,,67,92
10176,note_on,,,,,0,0,4,,,,,3,,,63,92
10176,note_off,,,,,192,0,3,,,,,2,,,75,0
10176,note_on,,,,,0,0,2,,,,,1,,,63,75
10176,note_off,,,,,192,0,2,,,,,1,,,67,0
10176,note_on,,,,,0,0,3,,,,,2,,,72,92
10176,note_on,,,,,0,0,1,,,,,0,,,72,75
10176,note_off,,,,,192,0,1,,,,,0,,,75,0
10176,note_off,,,,,192,0,4,,,,,3,,,67,0
10368,note_off,,,,,192,0,4,,,,,3,,,63,0
10368,note_off,,,,,192,0,3,,,,,2,,,72,0
10368,note_on,,,,,0,0,3,,,,,2,,,74,92
10368,note_on,,,,,0,0,4,,,,,3,,,65,92
10368,note_off,,,,,192,0,2,,,,,1,,,63,0
10368,note_off,,,,,192,0,1,,,,,0,,,72,0
10368,note_on,,,,,0,0,1,,,,,0,,,74,75
10368,note_on,,,,,0,0,2,,,,,1,,,65,75
10560,note_on,,,,,0,0,4,,,,,3,,,62,92
10560,note_off,,,,,192,0,1,,,,,0,,,74,0
10560,note_off,,,,,192,0,4,,,,,3,,,65,0
10560,note_on,,,,,0,0,1,,,,,0,,,70,75
10560,note_off,,,,,192,0,2,,,,,1,,,65,0
10560,note_off,,,,,192,0,3,,,,,2,,,74,0
10560,note_on,,,,,0,0,3,,,,,2,,,70,92
10560,note_on,,,,,0,0,2,,,,,1,,,62,75
10656,note_off,,,,,0,0,8,,,,,7,,,65,0
10656,note_off,,,,,672,0,8,,,,,7,,,60,0
10656,note_off,,,,,672,0,9,,,,,8,,,39,0
10656,note_off,,,,,672,0,7,,,,,6,,,27,0
10752,note_on,,,,,96,0,9,,,,,8,,,51,37
10752,note_on,,,,,0,0,1,,,,,0,,,72,75
10752,note_on,,,,,0,0,3,,,,,2,,,72,92
10752,note_on,,,,,0,0,5,,,,,4,,,63,75
10752,note_off,,,,,192,0,1,,,,,0,,,70,0
10752,note_off,,,,,768,0,5,,,,,4,,,58,0
10752,note_off,,,,,192,0,2,,,,,1,,,62,0
10752,note_on,,,,,96,0,7,,,,,6,,,39,63
10752,note_off,,,,,192,0,3,,,,,2,,,70,0
10752,note_on,,,,,0,0,4,,,,,3,,,63,92
10752,note_off,,,,,192,0,4,,,,,3,,,62,0
10752,note_on,,,,,0,0,6,,,,,5,,,51,75
10752,note_on,,,,,96,0,8,,,,,7,,,60,37
10752,note_on,,,,,0,0,8,,,,,7,,,65,37
10752,note_on,,,,,0,0,8,,,,,7,,,69,37
10752,note_on,,,,,0,0,2,,,,,1,,,63,75
10752,note_off,,,,,768,0,6,,,,,5,,,39,0
10944,note_off,,,,,192,0,3,,,,,2,,,72,0
10944,note_on,,,,,0,0,3,,,,,2,,,69,92
10944,note_off,,,,,192,0,2,,,,,1,,,63,0
10944,note_on,,,,,0,0,1,,,,,0,,,69,75
10944,note_off,,,,,192,0,4,,,,,3,,,63,0
10944,note_on,,,,,0,0,4,,,,,3,,,60,92
10944,note_off,,,,,192,0,1,,,,,0,,,72,0
10944,note_on,,,,,0,0,2,,,,,1,,,60,75
11136,note_on,,,,,0,0,1,,,,,0,,,70,75
11136,note_off,,,,,192,0,2,,,,,1,,,60,0
11136,note_on,,,,,0,0,2,,,,,1,,,62,75
11136,note_on,,,,,0,0,3,,,,,2,,,70,92
11136,note_off,,,,,192,0,3,,,,,2,,,69,0
11136,note_off,,,,,192,0,1,,,,,0,,,69,0
11136,note_off,,,,,192,0,4,,,,,3,,,60,0
11136,note_on,,,,,0,0,4,,,,,3,,,62,92
11328,note_off,,,,,192,0,1,,,,,0,,,70,0
11328,note_on,,,,,0,0,1,,,,,0,,,67,75
11328,note_on,,,,,0,0,3,,,,,2,,,67,92
11328,note_off,,,,,192,0,3,,,,,2,,,70,0
11328,note_off,,,,,192,0,2,,,,,1,,,62,0
11328,note_on,,,,,0,0,2,,,,,1,,,58,75
11328,note_off,,,,,192,0,4,,,,,3,,,62,0
11328,note_on,,,,,0,0,4,,,,,3,,,58,92
11424,note_off,,,,,672,0,8,,,,,7,,,60,0
11424,note_off,,,,,0,0,8,,,,,7,,,65,0
11424,note_off,,,,,0,0,8,,,,,7,,,69,0
11424,note_off,,,,,672,0,7,,,,,6,,,39,0
11424,note_off,,,,,672,0,9,,,,,8,,,51,0
11520,note_off,,,,,768,0,6,,,,,5,,,51,0
11520,note_off,,,,,192,0,2,,,,,1,,,58,0
11520,note_on,,,,,0,0,2,,,,,1,,,65,75
11520,note_on,,,,,96,0,7,,,,,6,,,41,63
11520,note_on,,,,,0,0,8,,,,,7,,,70,37
11520,note_on,,,,,0,0,6,,,,,5,,,53,75
11520,note_on,,,,,0,0,8,,,,,7,,,65,37
11520,note_off,,,,,192,0,4,,,,,3,,,58,0
11520,note_off,,,,,192,0,1,,,,,0,,,67,0
11520,note_on,,,,,0,0,1,,,,,0,,,69,75
11520,note_on,,,,,0,0,4,,,,,3,,,65,92
11520,note_on,,,,,0,0,5,,,,,4,,,60,75
11520,note_on,,,,,96,0,9,,,,,8,,,53,37
11520,note_off,,,,,768,0,5,,,,,4,,,63,0
11520,note_on,,,,,96,0,8,,,,,7,,,62,37
11520,note_on,,,,,0,0,3,,,,,2,,,69,92
11520,note_off,,,,,192,0,3,,,,,2,,,67,0
11712,note_on,,,,,0,0,3,,,,,2,,,65,92
11712,note_off,,,,,192,0,1,,,,,0,,,69,0
11712,note_on,,,,,0,0,1,,,,,0,,,65,75
11712,note_off,,,,,192,0,3,,,,,2,,,69,0
11904,note_off,,,,,192,0,3,,,,,2,,,65,0
11904,note_off,,,,,384,0,2,,,,,1,,,65,0
11904,note_on,,,,,0,0,3,,,,,2,,,77,92
11904,note_on,,,,,0,0,2,,,,,1,,,69,75
11904,note_on,,,,,0,0,1,,,,,0,,,77,75
11904,note_off,,,,,384,0,4,,,,,3,,,65,0
11904,note_on,,,,,0,0,4,,,,,3,,,69,92
11904,note_off,,,,,192,0,1,,,,,0,,,65,0
12192,note_off,,,,,0,0,8,,,,,7,,,70,0
12192,note_off,,,,,672,0,8,,,,,7,,,62,0
12192,note_off,,,,,0,0,8,,,,,7,,,65,0
12192,note_off,,,,,672,0,9,,,,,8,,,53,0
12192,note_off,,,,,672,0,7,,,,,6,,,41,0
12288,note_off,,,,,768,0,6,,,,,5,,,53,0
12288,note_on,,,,,0,0,6,,,,,5,,,57,75
12288,note_on,,,,,0,0,4,,,,,3,,,72,92
12288,note_on,,,,,96,0,8,,,,,7,,,62,37
12288,note_off,,,,,384,0,4,,,,,3,,,69,0
12288,note_on,,,,,0,0,2,,,,,1,,,72,75
12288,note_off,,,,,384,0,2,,,,,1,,,69,0
12288,note_on,,,,,0,0,5,,,,,4,,,65,75
12288,note_on,,,,,0,0,8,,,,,7,,,65,37
12288,note_off,,,,,768,0,5,,,,,4,,,60,0
12288,note_on,,,,,96,0,7,,,,,6,,,45,63
12288,note_on,,,,,96,0,9,,,,,8,,,57,37
12480,note_off,,,,,576,0,3,,,,,2,,,77,0
12480,note_on,,,,,0,0,3,,,,,2,,,72,92
12480,note_on,,,,,0,0,1,,,,,0,,,72,75
12480,note_off,,,,,576,0,1,,,,,0,,,77,0
12672,note_off,,,,,192,0,1,,,,,0,,,72,0
12672,note_on,,,,,0,0,1,,,,,0,,,81,75
12672,note_on,,,,,0,0,3,,,,,2,,,81,92
12672,note_off,,,,,192,0,3,,,,,2,,,72,0
12960,note_off,,,,,672,0,7,,,,,6,,,45,0
12960,note_off,,,,,672,0,9,,,,,8,,,57,0
12960,note_off,,,,,672,0,8,,,,,7,,,62,0
12960,note_off,,,,,0,0,8,,,,,7,,,65,0
13056,note_on,,,,,96,0,9,,,,,8,,,53,37
13056,note_on,,,,,0,0,4,,,,,3,,,77,92
13056,note_off,,,,,768,0,4,,,,,3,,,72,0
13056,note_on,,,,,96,0,7,,,,,6,,,41,63
13056,note_on,,,,,0,0,5,,,,,4,,,72,75
13056,note_on,,,,,0,0,2,,,,,1,,,77,75
13056,note_off,,,,,768,0,2,,,,,1,,,72,0
13056,note_off,,,,,768,0,5,,,,,4,,,65,0
13056,note_on,,,,,0,0,8,,,,,7,,,67,37
13056,note_on,,,,,96,0,8,,,,,7,,,62,37
13056,note_on,,,,,0,0,6,,,,,5,,,53,75
13056,note_off,,,,,768,0,6,,,,,5,,,57,0
13248,note_on,,,,,0,0,1,,,,,0,,,77,75
13248,note_off,,,,,576,0,1,,,,,0,,,81,0
13248,note_off,,,,,576,0,3,,,,,2,,,81,0
13248,note_on,,,,,0,0,3,,,,,2,,,77,92
13440,note_off,,,,,192,0,1,,,,,0,,,77,0
13440,note_on,,,,,0,0,1,,,,,0,,,84,75
13440,note_off,,,,,192,0,3,,,,,2,,,77,0
13440,note_on,,,,,0,0,3,,,,,2,,,84,92
13728,note_off,,,,,672,0,8,,,,,7,,,62,0
13728,note_off,,,,,672,0,9,,,,,8,,,53,0
13728,note_off,,,,,0,0,8,,,,,7,,,67,0
13728,note_off,,,,,672,0,7,,,,,6,,,41,0
13824,note_off,,,,,768,0,5,,,,,4,,,72,0
13824,note_off,,,,,384,0,1,,,,,0,,,84,0
13824,note_on,,,,,0,0,1,,,,,0,,,74,75
13824,note_on,,,,,0,0,2,,,,,1,,,65,75
13824,note_off,,,,,768,0,2,,,,,1,,,77,0
13824,note_on,,,,,0,0,8,,,,,7,,,67,37
13824,note_off,,,,,768,0,4,,,,,3,,,77,0
13824,note_on,,,,,96,0,8,,,,,7,,,64,37
13824,note_on,,,,,96,0,7,,,,,6,,,46,63
13824,note_on,,,,,0,0,4,,,,,3,,,65,92
13824,note_off,,,,,384,0,3,,,,,2,,,84,0
13824,note_on,,,,,0,0,5,,,,,4,,,70,75
13824,note_off,,,,,768,0,6,,,,,5,,,53,0
13824,note_on,,,,,0,0,3,,,,,2,,,74,92
13824,note_on,,,,,96,0,9,,,,,8,,,58,37
13824,note_on,,,,,0,0,6,,,,,5,,,58,75
14016,note_off,,,,,192,0,1,,,,,0,,,74,0
14016,note_on,,,,,0,0,1,,,,,0,,,70,75
14016,note_on,,,,,0,0,3,,,,,2,,,70,92
14016,note_off,,,,,192,0,3,,,,,2,,,74,0
14208,note_on,,,,,0,0,1,,,,,0,,,72,75
14208,note_off,,,,,192,0,3,,,,,2,,,70,0
14208,note_on,,,,,0,0,3,,,,,2,,,72,92
14208,note_off,,,,,192,0,1,,,,,0,,,70,0
14400,note_off,,,,,192,0,1,,,,,0,,,72,0
14400,note_off,,,,,192,0,3,,,,,2,,,72,0
14400,note_on,,,,,0,0,1,,,,,0,,,69,75
14400,note_on,,,,,0,0,3,,,,,2,,,69,92
14496,note_off,,,,,672,0,8,,,,,7,,,64,0
14496,note_off,,,,,0,0,8,,,,,7,,,67,0
14496,note_off,,,,,672,0,7,,,,,6,,,46,0
14496,note_off,,,,,672,0,9,,,,,8,,,58,0
14592,note_off,,,,,768,0,2,,,,,1,,,65,0
14592,note_on,,,,,96,0,7,,,,,6,,,34,63
14592,note_on,,,,,0,0,4,,,,,3,,,74,92
14592,note_off,,,,,768,0,5,,,,,4,,,70,0
14592,note_on,,,,,0,0,5,,,,,4,,,65,75
14592,note_on,,,,,96,0,9,,,,,8,,,46,37
14592,note_on,,,,,0,0,2,,,,,1,,,74,75
14592,note_on,,,,,0,0,1,,,,,0,,,70,75
14592,note_off,,,,,768,0,4,,,,,3,,,65,0
14592,note_off,,,,,768,0,6,,,,,5,,,58,0
14592,note_on,,,,,0,0,8,,,,,7,,,67,37
14592,note_on,,,,,96,0,8,,,,,7,,,60,37
14592,note_off,,,,,192,0,3,,,,,2,,,69,0
14592,note_off,,,,,192,0,1,,,,,0,,,69,0
14592,note_on,,,,,0,0,6,,,,,5,,,46,75
14592,note_on,,,,,0,0,3,,,,,2,,,70,92
14784,note_off,,,,,192,0,1,,,,,0,,,70,0
14784,note_on,,,,,0,0,2,,,,,1,,,70,75
14784,note_on,,,,,0,0,3,,,,,2,,,67,92
14784,note_off,,,,,192,0,3,,,,,2,,,70,0
14784,note_off,,,,,192,0,4,,,,,3,,,74,0
14784,note_on,,,,,0,0,4,,,,,3,,,70,92
14784,note_on,,,,,0,0,1,,,,,0,,,67,75
14784,note_off,,,,,192,0,2,,,,,1,,,74,0
14976,note_on,,,,,0,0,4,,,,,3,,,72,92
14976,note_off,,,,,192,0,4,,,,,3,,,70,0
14976,note_on,,,,,0,0,2,,,,,1,,,72,75
14976,note_off,,,,,192,0,3,,,,,2,,,67,0
14976,note_on,,,,,0,0,3,,,,,2,,,69,92
14976,note_off,,,,,192,0,2,,,,,1,,,70,0
14976,note_on,,,,,0,0,1,,,,,0,,,69,75
14976,note_off,,,,,192,0,1,,,,,0,,,67,0
15168,note_on,,,,,0,0,1,,,,,0,,,65,75
15168,note_off,,,,,192,0,3,,,,,2,,,69,0
15168,note_on,,,,,0,0,4,,,,,3,,,69,92
15168,note_off,,,,,192,0,4,,,,,3,,,72,0
15168,note_on,,,,,0,0,3,,,,,2,,,65,92
15168,note_on,,,,,0,0,2,,,,,1,,,69,75
15168,note_off,,,,,192,0,2,,,,,1,,,72,0
15168,note_off,,,,,192,0,1,,,,,0,,,69,0
15264,note_off,,,,,672,0,7,,,,,6,,,34,0
15264,note_off,,,,,672,0,8,,,,,7,,,60,0
15264,note_off,,,,,0,0,8,,,,,7,,,67,0
15264,note_off,,,,,672,0,9,,,,,8,,,46,0
15360,note_on,,,,,0,0,8,,,,,7,,,67,37
15360,note_on,,,,,0,0,5,,,,,4,,,62,75
15360,note_on,,,,,0,0,6,,,,,5,,,58,75
15360,note_on,,,,,0,0,8,,,,,7,,,72,37
15360,note_on,,,,,0,0,4,,,,,3,,,70,92
15360,note_on,,,,,96,0,7,,,,,6,,,46,63
15360,note_on,,,,,0,0,1,,,,,0,,,67,75
15360,note_off,,,,,192,0,1,,,,,0,,,65,0
15360,note_off,,,,,768,0,6,,,,,5,,,46,0
15360,note_off,,,,,768,0,5,,,,,4,,,65,0
15360,note_on,,,,,96,0,9,,,,,8,,,58,37
15360,note_off,,,,,192,0,4,,,,,3,,,69,0
15360,note_on,,,,,96,0,8,,,,,7,,,64,37
15360,note_on,,,,,0,0,3,,,,,2,,,67,92
15360,note_off,,,,,192,0,3,,,,,2,,,65,0
15360,note_off,,,,,192,0,2,,,,,1,,,69,0
15360,note_on,,,,,0,0,2,,,,,1,,,70,75
15552,note_off,,,,,192,0,3,,,,,2,,,67,0
15552,note_off,,,,,192,0,4,,,,,3,,,70,0
15552,note_on,,,,,0,0,4,,,,,3,,,67,92
15552,note_off,,,,,192,0,1,,,,,0,,,67,0
15552,note_on,,,,,0,0,2,,,,,1,,,67,75
15552,note_off,,,,,192,0,2,,,,,1,,,70,0
15552,note_on,,,,,0,0,3,,,,,2,,,64,92
15552,note_on,,,,,0,0,1,,,,,0,,,64,75
15744,note_off,,,,,192,0,3,,,,,2,,,64,0
15744,note_on,,,,,0,0,3,,,,,2,,,65,92
15744,note_on,,,,,0,0,1,,,,,0,,,65,75
15744,note_off,,,,,192,0,1,,,,,0,,,64,0
15744,note_on,,,,,0,0,4,,,,,3,,,69,92
15744,note_off,,,,,192,0,4,,,,,3,,,67,0
15744,note_off,,,,,192,0,2,,,,,1,,,67,0
15744,note_on,,,,,0,0,2,,,,,1,,,69,75
15936,note_off,,,,,192,0,1,,,,,0,,,65,0
15936,note_off,,,,,192,0,3,,,,,2,,,65,0
15936,note_on,,,,,0,0,3,,,,,2,,,62,92
15936,note_on,,,,,0,0,2,,,,,1,,,65,75
15936,note_on,,,,,0,0,1,,,,,0,,,62,75
15936,note_off,,,,,192,0,2,,,,,1,,,69,0
15936,note_on,,,,,0,0,4,,,,,3,,,65,92
15936,note_off,,,,,192,0,4,,,,,3,,,69,0
16032,note_off,,,,,672,0,8,,,,,7,,,64,0
16032,note_off,,,,,0,0,8,,,,,7,,,67,0
16032,note_off,,,,,672,0,9,,,,,8,,,58,0
16032,note_off,,,,,672,0,7,,,,,6,,,46,0
16032,note_off,,,,,0,0,8,,,,,7,,,72,0
16128,note_on,,,,,0,0,1,,,,,0,,,64,75
16128,note_on,,,,,0,0,6,,,,,5,,,60,75
16128,note_off,,,,,192,0,1,,,,,0,,,62,0
16128,note_on,,,,,0,0,2,,,,,1,,,67,75
16128,note_off,,,,,192,0,2,,,,,1,,,65,0
16128,note_off,,,,,768,0,5,,,,,4,,,62,0
16128,note_off,,,,,192,0,4,,,,,3,,,65,0
16128,note_on,,,,,0,0,4,,,,,3,,,67,92
16128,note_on,,,,,96,0,8,,,,,7,,,65,37
16128,note_on,,,,,96,0,7,,,,,6,,,48,63
16128,note_off,,,,,768,0,6,,,,,5,,,58,0
16128,note_on,,,,,96,0,9,,,,,8,,,60,37
16128,note_on,,,,,0,0,5,,,,,4,,,67,75
16128,note_on,,,,,0,0,8,,,,,7,,,72,37
16128,note_off,,,,,192,0,3,,,,,2,,,62,0
16128,note_on,,,,,0,0,3,,,,,2,,,64,92
16320,note_off,,,,,192,0,3,,,,,2,,,64,0
16320,note_on,,,,,0,0,3,,,,,2,,,60,92
16320,note_off,,,,,192,0,1,,,,,0,,,64,0
16320,note_on,,,,,0,0,1,,,,,0,,,60,75
16512,note_off,,,,,192,0,1,,,,,0,,,60,0
16512,note_on,,,,,0,0,3,,,,,2,,,72,92
16512,note_off,,,,,192,0,3,,,,,2,,,60,0
16512,note_on,,,,,0,0,1,,,,,0,,,72,75
16800,note_off,,,,,672,0,7,,,,,6,,,48,0
16800,note_off,,,,,672,0,9,,,,,8,,,60,0
16800,note_off,,,,,672,0,8,,,,,7,,,65,0
16800,note_off,,,,,0,0,8,,,,,7,,,72,0
16896,note_off,,,,,768,0,5,,,,,4,,,67,0
16896,note_on,,,,,0,0,5,,,,,4,,,60,75
16896,note_on,,,,,0,0,6,,,,,5,,,55,75
16896,note_off,,,,,768,0,6,,,,,5,,,60,0
16896,note_off,,,,,768,0,2,,,,,1,,,67,0
16896,note_on,,,,,0,0,2,,,,,1,,,67,75
16896,note_on,,,,,96,0,7,,,,,6,,,43,63
16896,note_on,,,,,0,0,4,,,,,3,,,67,92
16896,note_on,,,,,0,0,8,,,,,7,,,72,37
16896,note_off,,,,,768,0,4,,,,,3,,,67,0
16896,note_on,,,,,0,0,8,,,,,7,,,67,37
16896,note_on,,,,,96,0,8,,,,,7,,,60,37
16896,note_on,,,,,96,0,9,,,,,8,,,55,37
17088,note_on,,,,,0,0,3,,,,,2,,,67,92
17088,note_off,,,,,576,0,3,,,,,2,,,72,0
17088,note_off,,,,,576,0,1,,,,,0,,,72,0
17088,note_on,,,,,0,0,1,,,,,0,,,67,75
17280,note_off,,,,,192,0,3,,,,,2,,,67,0
17280,note_off,,,,,192,0,1,,,,,0,,,67,0
17280,note_on,,,,,0,0,1,,,,,0,,,76,75
17280,note_on,,,,,0,0,3,,,,,2,,,76,92
17568,note_off,,,,,672,0,8,,,,,7,,,60,0
17568,note_off,,,,,0,0,8,,,,,7,,,72,0
17568,note_off,,,,,0,0,8,,,,,7,,,67,0
17568,note_off,,,,,672,0,7,,,,,6,,,43,0
17568,note_off,,,,,672,0,9,,,,,8,,,55,0
17664,note_on,,,,,0,0,4,,,,,3,,,72,92
17664,note_on,,,,,0,0,8,,,,,7,,,69,37
17664,note_off,,,,,768,0,5,,,,,4,,,60,0
17664,note_on,,,,,0,0,5,,,,,4,,,67,75
17664,note_on,,,,,0,0,6,,,,,5,,,48,75
17664,note_off,,,,,768,0,6,,,,,5,,,55,0
17664,note_on,,,,,0,0,8,,,,,7,,,65,37
17664,note_on,,,,,96,0,8,,,,,7,,,60,37
17664,note_off,,,,,768,0,2,,,,,1,,,67,0
17664,note_off,,,,,768,0,4,,,,,3,,,67,0
17664,note_on,,,,,96,0,7,,,,,6,,,36,63
17664,note_on,,,,,96,0,9,,,,,8,,,48,37
17664,note_on,,,,,0,0,2,,,,,1,,,72,75
17856,note_off,,,,,576,0,1,,,,,0,,,76,0
17856,note_on,,,,,0,0,1,,,,,0,,,72,75
17856,note_on,,,,,0,0,3,,,,,2,,,72,92
17856,note_off,,,,,576,0,3,,,,,2,,,76,0
18048,note_off,,,,,192,0,1,,,,,0,,,72,0
18048,note_off,,,,,192,0,3,,,,,2,,,72,0
18048,note_on,,,,,0,0,3,,,,,2,,,79,92
18048,note_on,,,,,0,0,1,,,,,0,,,79,75
18336,note_off,,,,,672,0,9,,,,,8,,,48,0
18336,note_off,,,,,672,0,7,,,,,6,,,36,0
18336,note_off,,,,,0,0,8,,,,,7,,,65,0
18336,note_off,,,,,672,0,8,,,,,7,,,60,0
18336,note_off,,,,,0,0,8,,,,,7,,,69,0
18432,note_on,,,,,0,0,2,,,,,1,,,69,75
18432,note_on,,,,,0,0,4,,,,,3,,,69,92
18432,note_on,,,,,0,0,6,,,,,5,,,57,75
18432,note_on,,,,,0,0,5,,,,,4,,,60,75
18432,note_off,,,,,768,0,6,,,,,5,,,48,0
18432,note_off,,,,,768,0,4,,,,,3,,,72,0
18432,note_on,,,,,96,0,9,,,,,8,,,57,37
18432,note_off,,,,,768,0,5,,,,,4,,,67,0
18432,note_off,,,,,384,0,1,,,,,0,,,79,0
18432,note_on,,,,,0,0,1,,,,,0,,,77,75
18432,note_on,,,,,96,0,7,,,,,6,,,45,63
18432,note_on,,,,,96,0,8,,,,,7,,,65,37
18432,note_off,,,,,384,0,3,,,,,2,,,79,0
18432,note_on,,,,,0,0,3,,,,,2,,,77,92
18432,note_on,,,,,0,0,8,,,,,7,,,69,37
18432,note_off,,,,,768,0,2,,,,,1,,,72,0
18624,note_off,,,,,192,0,1,,,,,0,,,77,0
18624,note_on,,,,,0,0,3,,,,,2,,,79,92
18624,note_off,,,,,192,0,3,,,,,2,,,77,0
18624,note_on,,,,,0,0,1,,,,,0,,,79,75
18816,note_on,,,,,0,0,2,,,,,1,,,72,75
18816,note_off,,,,,384,0,2,,,,,1,,,69,0
18816,note_on,,,,,0,0,1,,,,,0,,,81,75
18816,note_off,,,,,192,0,1,,,,,0,,,79,0
18816,note_off,,,,,192,0,3,,,,,2,,,79,0
18816,note_on,,,,,0,0,3,,,,,2,,,81,92
18816,note_on,,,,,0,0,4,,,,,3,,,72,92
18816,note_on,,,,,384,0,8,,,,,7,,,72,37
18816,note_off,,,,,384,0,4,,,,,3,,,69,0
19008,note_off,,,,,192,0,3,,,,,2,,,81,0
19008,note_on,,,,,0,0,3,,,,,2,,,77,92
19008,note_off,,,,,192,0,1,,,,,0,,,81,0
19008,note_on,,,,,0,0,1,,,,,0,,,77,75
19104,note_off,,,,,672,0,7,,,,,6,,,45,0
19104,note_off,,,,,288,0,8,,,,,7,,,65,0
19104,note_off,,,,,672,0,9,,,,,8,,,57,0
19136,note_off,,,,,32,0,8,,,,,7,,,69,0
19136,note_off,,,,,0,0,8,,,,,7,,,72,0
19200,note_on,,,,,0,0,3,,,,,2,,,79,92
19200,note_on,,,,,0,0,5,,,,,4,,,67,75
19200,note_off,,,,,768,0,5,,,,,4,,,60,0
19200,note_on,,,,,96,0,7,,,,,6,,,40,63
19200,note_on,,,,,64,0,8,,,,,7,,,65,37
19200,note_on,,,,,0,0,8,,,,,7,,,67,37
19200,note_on,,,,,0,0,8,,,,,7,,,74,37
19200,note_on,,,,,96,0,9,,,,,8,,,52,37
19200,note_on,,,,,0,0,6,,,,,5,,,52,75
19200,note_off,,,,,768,0,6,,,,,5,,,57,0
19200,note_off,,,,,192,0,3,,,,,2,,,77,0
19200,note_off,,,,,192,0,1,,,,,0,,,77,0
19200,note_on,,,,,0,0,1,,,,,0,,,79,75
19392,note_on,,,,,0,0,3,,,,,2,,,81,92
19392,note_off,,,,,192,0,3,,,,,2,,,79,0
19392,note_off,,,,,192,0,1,,,,,0,,,79,0
19392,note_on,,,,,0,0,1,,,,,0,,,81,75
19520,note_off,,,,,0,0,8,,,,,7,,,74,0
19520,note_off,,,,,320,0,8,,,,,7,,,65,0
19584,note_on,,,,,0,0,1,,,,,0,,,82,75
19584,note_off,,,,,192,0,1,,,,,0,,,81,0
19584,note_on,,,,,0,0,2,,,,,1,,,79,75
19584,note_off,,,,,768,0,2,,,,,1,,,72,0
19584,note_off,,,,,768,0,4,,,,,3,,,72,0
19584,note_on,,,,,0,0,4,,,,,3,,,79,92
19584,note_on,,,,,64,0,8,,,,,7,,,64,37
19584,note_off,,,,,192,0,3,,,,,2,,,81,0
19584,note_on,,,,,0,0,3,,,,,2,,,82,92
19776,note_on,,,,,0,0,3,,,,,2,,,79,92
19776,note_off,,,,,192,0,3,,,,,2,,,82,0
19776,note_off,,,,,192,0,1,,,,,0,,,82,0
19776,note_on,,,,,0,0,1,,,,,0,,,79,75
19872,note_off,,,,,672,0,7,,,,,6,,,40,0
19872,note_off,,,,,672,0,9,,,,,8,,,52,0
19904,note_off,,,,,0,0,8,,,,,7,,,64,0
19904,note_off,,,,,320,0,8,,,,,7,,,67,0
19968,note_on,,,,,0,0,4,,,,,3,,,77,92
19968,note_off,,,,,768,0,6,,,,,5,,,52,0
19968,note_on,,,,,0,0,6,,,,,5,,,53,75
19968,note_on,,,,,0,0,2,,,,,1,,,77,75
19968,note_off,,,,,384,0,2,,,,,1,,,79,0
19968,note_on,,,,,0,0,5,,,,,4,,,72,75
19968,note_off,,,,,384,0,4,,,,,3,,,79,0
19968,note_off,,,,,192,0,1,,,,,0,,,79,0
19968,note_off,,,,,768,0,5,,,,,4,,,67,0
19968,note_off,,,,,192,0,3,,,,,2,,,79,0
19968,note_on,,,,,0,0,3,,,,,2,,,81,92
19968,note_on,,,,,96,0,9,,,,,8,,,53,37
19968,note_on,,,,,96,0,7,,,,,6,,,41,63
19968,note_on,,,,,0,0,1,,,,,0,,,81,75
19968,note_on,,,,,0,0,8,,,,,7,,,69,37
19968,note_on,,,,,0,0,8,,,,,7,,,72,37
19968,note_on,,,,,64,0,8,,,,,7,,,65,37
20160,note_on,,,,,0,0,3,,,,,2,,,72,92
20160,note_on,,,,,0,0,2,,,,,1,,,69,75
20160,note_off,,,,,192,0,2,,,,,1,,,77,0
20160,note_on,,,,,0,0,4,,,,,3,,,69,92
20160,note_off,,,,,192,0,4,,,,,3,,,77,0
20160,note_off,,,,,192,0,3,,,,,2,,,81,0
20160,note_on,,,,,0,0,1,,,,,0,,,72,75
20160,note_off,,,,,192,0,1,,,,,0,,,81,0
20352,note_on,,,,,0,0,2,,,,,1,,,70,75
20352,note_off,,,,,192,0,2,,,,,1,,,69,0
20352,note_on,,,,,0,0,3,,,,,2,,,74,92
20352,note_on,,,,,0,0,1,,,,,0,,,74,75
20352,note_off,,,,,192,0,4,,,,,3,,,69,0
20352,note_on,,,,,0,0,4,,,,,3,,,70,92
20352,note_off,,,,,192,0,1,,,,,0,,,72,0
20352,note_off,,,,,192,0,3,,,,,2,,,72,0
20544,note_on,,,,,0,0,3,,,,,2,,,76,92
20544,note_off,,,,,192,0,4,,,,,3,,,70,0
20544,note_on,,,,,0,0,4,,,,,3,,,72,92
20544,note_off,,,,,192,0,3,,,,,2,,,74,0
20544,note_off,,,,,192,0,1,,,,,0,,,74,0
20544,note_on,,,,,0,0,1,,,,,0,,,76,75
20544,note_off,,,,,192,0,2,,,,,1,,,70,0
20544,note_on,,,,,0,0,2,,,,,1,,,72,75
20640,note_off,,,,,0,0,8,,,,,7,,,72,0
20640,note_off,,,,,672,0,7,,,,,6,,,41,0
20640,note_off,,,,,0,0,8,,,,,7,,,69,0
20640,note_off,,,,,672,0,8,,,,,7,,,65,0
20640,note_off,,,,,672,0,9,,,,,8,,,53,0
20736,note_off,,,,,192,0,4,,,,,3,,,72,0
20736,note_off,,,,,192,0,2,,,,,1,,,72,0
20736,note_on,,,,,0,0,2,,,,,1,,,74,75
20736,note_off,,,,,768,0,6,,,,,5,,,53,0
20736,note_on,,,,,0,0,6,,,,,5,,,50,75
20736,note_on,,,,,0,0,3,,,,,2,,,77,92
20736,note_on,,,,,0,0,8,,,,,7,,,70,37
20736,note_on,,,,,0,0,1,,,,,0,,,77,75
20736,note_on,,,,,0,0,4,,,,,3,,,74,92
20736,note_off,,,,,768,0,5,,,,,4,,,72,0
20736,note_on,,,,,0,0,5,,,,,4,,,65,75
20736,note_off,,,,,192,0,1,,,,,0,,,76,0
20736,note_on,,,,,96,0,8,,,,,7,,,62,37
20736,note_on,,,,,0,0,8,,,,,7,,,65,37
20736,note_on,,,,,96,0,9,,,,,8,,,50,37
20736,note_off,,,,,192,0,3,,,,,2,,,76,0
20736,note_on,,,,,96,0,7,,,,,6,,,38,63
20928,note_on,,,,,0,0,1,,,,,0,,,79,75
20928,note_off,,,,,192,0,1,,,,,0,,,77,0
20928,note_off,,,,,192,0,2,,,,,1,,,74,0
20928,note_off,,,,,192,0,3,,,,,2,,,77,0
20928,note_off,,,,,192,0,4,,,,,3,,,74,0
20928,note_on,,,,,0,0,4,,,,,3,,,76,92
20928,note_on,,,,,0,0,2,,,,,1,,,76,75
20928,note_on,,,,,0,0,3,,,,,2,,,79,92
21056,note_off,,,,,320,0,9,,,,,8,,,50,0
21056,note_off,,,,,320,0,7,,,,,6,,,38,0
21120,note_off,,,,,384,0,6,,,,,5,,,50,0
21120,note_off,,,,,192,0,4,,,,,3,,,76,0
21120,note_on,,,,,64,0,9,,,,,8,,,45,37
21120,note_on,,,,,0,0,1,,,,,0,,,81,75
21120,note_on,,,,,0,0,6,,,,,5,,,45,75
21120,note_on,,,,,0,0,4,,,,,3,,,77,92
21120,note_on,,,,,0,0,3,,,,,2,,,81,92
21120,note_off,,,,,192,0,3,,,,,2,,,79,0
21120,note_on,,,,,0,0,2,,,,,1,,,77,75
21120,note_off,,,,,192,0,2,,,,,1,,,76,0
21120,note_on,,,,,64,0,7,,,,,6,,,33,63
21120,note_off,,,,,192,0,1,,,,,0,,,79,0
21312,note_off,,,,,192,0,1,,,,,0,,,81,0
21312,note_on,,,,,0,0,1,,,,,0,,,77,75
21312,note_off,,,,,192,0,3,,,,,2,,,81,0
21312,note_on,,,,,0,0,3,,,,,2,,,77,92
21408,note_off,,,,,672,0,8,,,,,7,,,62,0
21408,note_off,,,,,0,0,8,,,,,7,,,70,0
21408,note_off,,,,,0,0,8,,,,,7,,,65,0
21440,note_off,,,,,320,0,7,,,,,6,,,33,0
21440,note_off,,,,,320,0,9,,,,,8,,,45,0
21504,note_off,,,,,192,0,1,,,,,0,,,77,0
21504,note_on,,,,,0,0,3,,,,,2,,,79,92
21504,note_off,,,,,192,0,3,,,,,2,,,77,0
21504,note_on,,,,,0,0,1,,,,,0,,,79,75
21504,note_on,,,,,0,0,5,,,,,4,,,62,75
21504,note_on,,,,,0,0,6,,,,,5,,,46,75
21504,note_off,,,,,768,0,5,,,,,4,,,65,0
21504,note_on,,,,,64,0,9,,,,,8,,,46,37
21504,note_on,,,,,96,0,8,,,,,7,,,62,37
21504,note_on,,,,,0,0,8,,,,,7,,,65,37
21504,note_on,,,,,0,0,8,,,,,7,,,70,37
21504,note_on,,,,,64,0,7,,,,,6,,,34,63
21504,note_off,,,,,384,0,6,,,,,5,,,45,0
21696,note_on,,,,,0,0,1,,,,,0,,,81,75
21696,note_off,,,,,192,0,1,,,,,0,,,79,0
21696,note_off,,,,,192,0,3,,,,,2,,,79,0
21696,note_on,,,,,0,0,3,,,,,2,,,81,92
21824,note_off,,,,,320,0,7,,,,,6,,,34,0
21824,note_off,,,,,320,0,9,,,,,8,,,46,0
21888,note_on,,,,,0,0,4,,,,,3,,,76,92
21888,note_off,,,,,768,0,2,,,,,1,,,77,0
21888,note_on,,,,,0,0,2,,,,,1,,,76,75
21888,note_off,,,,,768,0,4,,,,,3,,,77,0
21888,note_on,,,,,0,0,5,,,,,4,,,60,75
21888,note_on,,,,,64,0,7,,,,,6,,,36,63
21888,note_off,,,,,192,0,3,,,,,2,,,81,0
21888,note_on,,,,,0,0,3,,,,,2,,,82,92
21888,note_on,,,,,0,0,6,,,,,5,,,48,75
21888,note_off,,,,,384,0,6,,,,,5,,,46,0
21888,note_off,,,,,384,0,5,,,,,4,,,62,0
21888,note_on,,,,,64,0,9,,,,,8,,,48,37
21888,note_on,,,,,0,0,1,,,,,0,,,82,75
21888,note_off,,,,,192,0,1,,,,,0,,,81,0
22080,note_off,,,,,192,0,3,,,,,2,,,82,0
22080,note_on,,,,,0,0,1,,,,,0,,,79,75
22080,note_off,,,,,192,0,1,,,,,0,,,82,0
22080,note_on,,,,,0,0,3,,,,,2,,,79,92
22176,note_off,,,,,0,0,8,,,,,7,,,65,0
22176,note_off,,,,,0,0,8,,,,,7,,,70,0
22176,note_off,,,,,672,0,8,,,,,7,,,62,0
22208,note_off,,,,,320,0,9,,,,,8,,,48,0
22208,note_off,,,,,320,0,7,,,,,6,,,36,0
22272,note_on,,,,,0,0,8,,,,,7,,,65,37
22272,note_on,,,,,64,0,9,,,,,8,,,41,37
22272,note_off,,,,,192,0,3,,,,,2,,,79,0
22272,note_off,,,,,384,0,5,,,,,4,,,60,0
22272,note_on,,,,,0,0,5,,,,,4,,,60,75
22272,note_on,,,,,96,0,8,,,,,7,,,62,37
22272,note_off,,,,,384,0,6,,,,,5,,,48,0
22272,note_on,,,,,64,0,7,,,,,6,,,29,63
22272,note_on,,,,,0,0,3,,,,,2,,,81,92
22272,note_on,,,,,0,0,6,,,,,5,,,41,75
22272,note_off,,,,,384,0,4,,,,,3,,,76,0
22272,note_on,,,,,0,0,4,,,,,3,,,77,92
22272,note_on,,,,,0,0,1,,,,,0,,,81,75
22272,note_off,,,,,192,0,1,,,,,0,,,79,0
22272,note_off,,,,,384,0,2,,,,,1,,,76,0
22272,note_on,,,,,0,0,2,,,,,1,,,77,75
22272,note_on,,,,,0,0,8,,,,,7,,,70,37
22464,note_off,,,,,192,0,1,,,,,0,,,81,0
22464,note_off,,,,,192,0,3,,,,,2,,,81,0
22464,note_on,,,,,0,0,3,,,,,2,,,72,92
22464,note_on,,,,,0,0,1,,,,,0,,,72,75
22656,note_off,,,,,384,0,2,,,,,1,,,77,0
22656,note_on,,,,,0,0,1,,,,,0,,,74,75
22656,note_on,,,,,0,0,5,,,,,4,,,65,75
22656,note_off,,,,,384,0,5,,,,,4,,,60,0
22656,note_on,,,,,0,0,3,,,,,2,,,74,92
22656,note_off,,,,,192,0,3,,,,,2,,,72,0
22656,note_on,,,,,0,0,4,,,,,3,,,69,92
22656,note_off,,,,,384,0,4,,,,,3,,,77,0
22656,note_on,,,,,0,0,2,,,,,1,,,69,75
22656,note_off,,,,,192,0,1,,,,,0,,,72,0
22848,note_on,,,,,0,0,3,,,,,2,,,72,92
22848,note_off,,,,,192,0,1,,,,,0,,,74,0
22848,note_on,,,,,0,0,1,,,,,0,,,72,75
22848,note_off,,,,,192,0,3,,,,,2,,,74,0
22944,note_off,,,,,672,0,9,,,,,8,,,41,0
22944,note_off,,,,,672,0,7,,,,,6,,,29,0
22944,note_off,,,,,0,0,8,,,,,7,,,70,0
22944,note_off,,,,,672,0,8,,,,,7,,,62,0
22944,note_off,,,,,0,0,8,,,,,7,,,65,0
23040,note_on,,,,,0,0,6,,,,,5,,,53,75
23040,note_on,,,,,0,0,2,,,,,1,,,70,75
23040,note_off,,,,,384,0,2,,,,,1,,,69,0
23040,note_off,,,,,192,0,3,,,,,2,,,72,0
23040,note_on,,,,,0,0,3,,,,,2,,,74,92
23040,note_on,,,,,96,0,8,,,,,7,,,60,37
23040,note_on,,,,,0,0,8,,,,,7,,,65,37
23040,note_on,,,,,0,0,8,,,,,7,,,69,37
23040,note_on,,,,,0,0,4,,,,,3,,,70,92
23040,note_off,,,,,384,0,4,,,,,3,,,69,0
23040,note_on,,,,,0,0,5,,,,,4,,,65,75
23040,note_off,,,,,384,0,5,,,,,4,,,65,0
23040,note_off,,,,,192,0,1,,,,,0,,,72,0
23040,note_on,,,,,0,0,1,,,,,0,,,74,75
23040,note_on,,,,,96,0,9,,,,,8,,,53,37
23040,note_on,,,,,96,0,7,,,,,6,,,41,63
23040,note_off,,,,,768,0,6,,,,,5,,,41,0
23232,note_off,,,,,192,0,4,,,,,3,,,70,0
23232,note_on,,,,,0,0,4,,,,,3,,,65,92
23232,note_on,,,,,0,0,5,,,,,4,,,62,75
23232,note_off,,,,,192,0,5,,,,,4,,,65,0
23232,note_on,,,,,0,0,2,,,,,1,,,65,75
23232,note_off,,,,,192,0,2,,,,,1,,,70,0
23232,note_off,,,,,192,0,1,,,,,0,,,74,0
23232,note_on,,,,,0,0,1,,,,,0,,,70,75
23232,note_on,,,,,0,0,3,,,,,2,,,70,92
23232,note_off,,,,,192,0,3,,,,,2,,,74,0
23424,note_on,,,,,0,0,1,,,,,0,,,77,75
23424,note_on,,,,,0,0,3,,,,,2,,,77,92
23424,note_on,,,,,0,0,2,,,,,1,,,74,75
23424,note_off,,,,,192,0,2,,,,,1,,,65,0
23424,note_off,,,,,192,0,4,,,,,3,,,65,0
23424,note_off,,,,,192,0,1,,,,,0,,,70,0
23424,note_off,,,,,192,0,5,,,,,4,,,62,0
23424,note_on,,,,,0,0,4,,,,,3,,,74,92
23424,note_off,,,,,192,0,3,,,,,2,,,70,0
23424,note_on,,,,,0,0,5,,,,,4,,,70,75
23712,note_off,,,,,672,0,8,,,,,7,,,60,0
23712,note_off,,,,,672,0,9,,,,,8,,,53,0
23712,note_off,,,,,672,0,7,,,,,6,,,41,0
23712,note_off,,,,,0,0,8,,,,,7,,,69,0
23712,note_off,,,,,0,0,8,,,,,7,,,65,0
23808,note_off,,,,,384,0,3,,,,,2,,,77,0
23808,note_on,,,,,0,0,8,,,,,7,,,65,37
23808,note_on,,,,,0,0,5,,,,,4,,,65,75
23808,note_on,,,,,0,0,4,,,,,3,,,70,92
23808,note_off,,,,,384,0,4,,,,,3,,,74,0
23808,note_on,,,,,0,0,3,,,,,2,,,74,92
23808,note_on,,,,,96,0,8,,,,,7,,,60,37
23808,note_on,,,,,0,0,8,,,,,7,,,69,37
23808,note_off,,,,,384,0,5,,,,,4,,,70,0
23808,note_on,,,,,0,0,2,,,,,1,,,70,75
23808,note_on,,,,,96,0,7,,,,,6,,,41,63
23808,note_on,,,,,96,0,9,,,,,8,,,53,37
23808,note_on,,,,,0,0,6,,,,,5,,,53,75
23808,note_off,,,,,384,0,2,,,,,1,,,74,0
23808,note_off,,,,,768,0,6,,,,,5,,,53,0
23808,note_off,,,,,384,0,1,,,,,0,,,77,0
23808,note_on,,,,,0,0,1,,,,,0,,,74,75
24000,note_on,,,,,0,0,3,,,,,2,,,70,92
24000,note_off,,,,,192,0,3,,,,,2,,,74,0
24000,note_on,,,,,0,0,2,,,,,1,,,65,75
24000,note_off,,,,,192,0,1,,,,,0,,,74,0
24000,note_on,,,,,0,0,5,,,,,4,,,62,75
24000,note_on,,,,,0,0,1,,,,,0,,,70,75
24000,note_off,,,,,192,0,4,,,,,3,,,70,0
24000,note_on,,,,,0,0,4,,,,,3,,,65,92
24000,note_off,,,,,192,0,2,,,,,1,,,70,0
24000,note_off,,,,,192,0,5,,,,,4,,,65,0
24192,note_off,,,,,192,0,3,,,,,2,,,70,0
24192,note_off,,,,,192,0,1,,,,,0,,,70,0
24192,note_on,,,,,0,0,1,,,,,0,,,77,75
24192,note_off,,,,,192,0,4,,,,,3,,,65,0
24192,note_on,,,,,0,0,3,,,,,2,,,77,92
24192,note_on,,,,,0,0,4,,,,,3,,,74,92
24192,note_off,,,,,192,0,2,,,,,1,,,65,0
24192,note_on,,,,,0,0,2,,,,,1,,,74,75
24192,note_on,,,,,0,0,5,,,,,4,,,70,75
24192,note_off,,,,,192,0,5,,,,,4,,,62,0
24480,note_off,,,,,672,0,9,,,,,8,,,53,0
24480,note_off,,,,,672,0,8,,,,,7,,,60,0
24480,note_off,,,,,0,0,8,,,,,7,,,65,0
24480,note_off,,,,,0,0,8,,,,,7,,,69,0
24480,note_off,,,,,672,0,7,,,,,6,,,41,0
24576,note_off,,,,,384,0,5,,,,,4,,,70,0
24576,note_on,,,,,0,0,2,,,,,1,,,70,75
24576,note_off,,,,,384,0,1,,,,,0,,,77,0
24576,note_on,,,,,0,0,6,,,,,5,,,53,75
24576,note_off,,,,,384,0,4,,,,,3,,,74,0
24576,note_on,,,,,0,0,4,,,,,3,,,70,92
24576,note_on,,,,,96,0,9,,,,,8,,,53,37
24576,note_on,,,,,0,0,8,,,,,7,,,69,37
24576,note_off,,,,,384,0,2,,,,,1,,,74,0
24576,note_off,,,,,768,0,6,,,,,5,,,53,0
24576,note_off,,,,,384,0,3,,,,,2,,,77,0
24576,note_on,,,,,0,0,3,,,,,2,,,74,92
24576,note_on,,,,,96,0,8,,,,,7,,,60,37
24576,note_on,,,,,96,0,7,,,,,6,,,41,63
24576,note_on,,,,,0,0,5,,,,,4,,,65,75
24576,note_on,,,,,0,0,8,,,,,7,,,65,37
24576,note_on,,,,,0,0,1,,,,,0,,,74,75
24768,note_on,,,,,0,0,2,,,,,1,,,65,75
24768,note_off,,,,,192,0,5,,,,,4,,,65,0
24768,note_on,,,,,0,0,5,,,,,4,,,62,75
24768,note_on,,,,,0,0,1,,,,,0,,,70,75
24768,note_off,,,,,192,0,1,,,,,0,,,74,0
24768,note_off,,,,,192,0,2,,,,,1,,,70,0
24768,note_off,,,,,192,0,4,,,,,3,,,70,0
24768,note_off,,,,,192,0,3,,,,,2,,,74,0
24768,note_on,,,,,0,0,3,,,,,2,,,70,92
24768,note_on,,,,,0,0,4,,,,,3,,,65,92
24960,note_on,,,,,0,0,5,,,,,4,,,70,75
24960,note_on,,,,,0,0,3,,,,,2,,,77,92
24960,note_off,,,,,192,0,3,,,,,2,,,70,0
24960,note_on,,,,,0,0,1,,,,,0,,,77,75
24960,note_on,,,,,0,0,4,,,,,3,,,74,92
24960,note_off,,,,,192,0,1,,,,,0,,,70,0
24960,note_on,,,,,0,0,2,,,,,1,,,74,75
24960,note_off,,,,,192,0,2,,,,,1,,,65,0
24960,note_off,,,,,192,0,5,,,,,4,,,62,0
24960,note_off,,,,,192,0,4,,,,,3,,,65,0
25248,note_off,,,,,672,0,7,,,,,6,,,41,0
25248,note_off,,,,,0,0,8,,,,,7,,,69,0
25248,note_off,,,,,672,0,9,,,,,8,,,53,0
25248,note_off,,,,,672,0,8,,,,,7,,,60,0
25248,note_off,,,,,0,0,8,,,,,7,,,65,0
25344,note_on,,,,,0,0,5,,,,,4,,,65,75
25344,note_on,,,,,0,0,1,,,,,0,,,72,75
25344,note_on,,,,,96,0,7,,,,,6,,,41,63
25344,note_off,,,,,384,0,1,,,,,0,,,77,0
25344,note_on,,,,,0,0,3,,,,,2,,,72,92
25344,note_on,,,,,0,0,2,,,,,1,,,69,75
25344,note_off,,,,,384,0,2,,,,,1,,,74,0
25344,note_off,,,,,384,0,5,,,,,4,,,70,0
25344,note_off,,,,,384,0,3,,,,,2,,,77,0
25344,note_on,,,,,96,0,8,,,,,7,,,58,37
25344,note_on,,,,,0,0,8,,,,,7,,,62,37
25344,note_on,,,,,0,0,8,,,,,7,,,67,37
25344,note_off,,,,,384,0,4,,,,,3,,,74,0
25344,note_on,,,,,0,0,4,,,,,3,,,69,92
25344,note_on,,,,,96,0,9,,,,,8,,,53,37
25344,note_off,,,,,768,0,6,,,,,5,,,53,0
25344,note_on,,,,,0,0,6,,,,,5,,,53,75
25536,note_on,,,,,0,0,1,,,,,0,,,69,75
25536,note_off,,,,,192,0,4,,,,,3,,,69,0
25536,note_on,,,,,0,0,4,,,,,3,,,65,92
25536,note_off,,,,,192,0,2,,,,,1,,,69,0
25536,note_on,,,,,0,0,2,,,,,1,,,65,75
25536,note_on,,,,,0,0,3,,,,,2,,,69,92
25536,note_off,,,,,192,0,3,,,,,2,,,72,0
25536,note_off,,,,,192,0,1,,,,,0,,,72,0
25536,note_on,,,,,0,0,5,,,,,4,,,60,75
25536,note_off,,,,,192,0,5,,,,,4,,,65,0
25728,note_on,,,,,0,0,4,,,,,3,,,72,92
25728,note_on,,,,,0,0,3,,,,,2,,,77,92
25728,note_on,,,,,0,0,1,,,,,0,,,77,75
25728,note_off,,,,,192,0,1,,,,,0,,,69,0
25728,note_off,,,,,192,0,3,,,,,2,,,69,0
25728,note_on,,,,,0,0,5,,,,,4,,,69,75
25728,note_off,,,,,192,0,5,,,,,4,,,60,0
25728,note_on,,,,,0,0,2,,,,,1,,,72,75
25728,note_off,,,,,192,0,2,,,,,1,,,65,0
25728,note_off,,,,,192,0,4,,,,,3,,,65,0
26016,note_off,,,,,672,0,9,,,,,8,,,53,0
26016,note_off,,,,,0,0,8,,,,,7,,,62,0
26016,note_off,,,,,672,0,8,,,,,7,,,58,0
26016,note_off,,,,,672,0,7,,,,,6,,,41,0
26016,note_off,,,,,0,0,8,,,,,7,,,67,0
26112,note_on,,,,,0,0,8,,,,,7,,,67,37
26112,note_on,,,,,96,0,8,,,,,7,,,58,37
26112,note_on,,,,,0,0,8,,,,,7,,,62,37
26112,note_on,,,,,96,0,9,,,,,8,,,53,37
26112,note_on,,,,,0,0,1,,,,,0,,,72,75
26112,note_off,,,,,768,0,6,,,,,5,,,53,0
26112,note_on,,,,,96,0,7,,,,,6,,,41,63
26112,note_on,,,,,0,0,2,,,,,1,,,69,75
26112,note_off,,,,,384,0,1,,,,,0,,,77,0
26112,note_on,,,,,0,0,6,,,,,5,,,53,75
26112,note_off,,,,,384,0,2,,,,,1,,,72,0
26112,note_on,,,,,0,0,3,,,,,2,,,72,92
26112,note_off,,,,,384,0,4,,,,,3,,,72,0
26112,note_off,,,,,384,0,3,,,,,2,,,77,0
26112,note_on,,,,,0,0,4,,,,,3,,,69,92
26112,note_off,,,,,384,0,5,,,,,4,,,69,0
26112,note_on,,,,,0,0,5,,,,,4,,,65,75
26304,note_off,,,,,192,0,5,,,,,4,,,65,0
26304,note_on,,,,,0,0,5,,,,,4,,,60,75
26304,note_on,,,,,0,0,1,,,,,0,,,69,75
26304,note_off,,,,,192,0,4,,,,,3,,,69,0
26304,note_on,,,,,0,0,4,,,,,3,,,65,92
26304,note_on,,,,,0,0,2,,,,,1,,,65,75
26304,note_off,,,,,192,0,2,,,,,1,,,69,0
26304,note_off,,,,,192,0,1,,,,,0,,,72,0
26304,note_on,,,,,0,0,3,,,,,2,,,69,92
26304,note_off,,,,,192,0,3,,,,,2,,,72,0
26496,note_on,,,,,0,0,1,,,,,0,,,77,75
26496,note_off,,,,,192,0,3,,,,,2,,,69,0
26496,note_off,,,,,192,0,5,,,,,4,,,60,0
26496,note_on,,,,,0,0,5,,,,,4,,,69,75
26496,note_on,,,,,0,0,3,,,,,2,,,77,92
26496,note_off,,,,,192,0,2,,,,,1,,,65,0
26496,note_off,,,,,192,0,1,,,,,0,,,69,0
26496,note_off,,,,,192,0,4,,,,,3,,,65,0
26496,note_on,,,,,0,0,2,,,,,1,,,72,75
26496,note_on,,,,,0,0,4,,,,,3,,,72,92
26784,note_off,,,,,672,0,8,,,,,7,,,58,0
26784,note_off,,,,,0,0,8,,,,,7,,,67,0
26784,note_off,,,,,0,0,8,,,,,7,,,62,0
26784,note_off,,,,,672,0,9,,,,,8,,,53,0
26784,note_off,,,,,672,0,7,,,,,6,,,41,0
26880,note_on,,,,,96,0,7,,,,,6,,,41,63
26880,note_on,,,,,0,0,8,,,,,7,,,67,37
26880,note_on,,,,,0,0,4,,,,,3,,,69,92
26880,note_on,,,,,96,0,9,,,,,8,,,53,37
26880,note_off,,,,,384,0,4,,,,,3,,,72,0
26880,note_on,,,,,96,0,8,,,,,7,,,58,37
26880,note_on,,,,,0,0,8,,,,,7,,,60,37
26880,note_off,,,,,768,0,6,,,,,5,,,53,0
26880,note_off,,,,,384,0,3,,,,,2,,,77,0
26880,note_on,,,,,0,0,3,,,,,2,,,72,92
26880,note_on,,,,,0,0,6,,,,,5,,,53,75
26880,note_off,,,,,384,0,2,,,,,1,,,72,0
26880,note_on,,,,,0,0,2,,,,,1,,,69,75
26880,note_on,,,,,0,0,1,,,,,0,,,72,75
26880,note_off,,,,,384,0,1,,,,,0,,,77,0
26880,note_off,,,,,384,0,5,,,,,4,,,69,0
26880,note_on,,,,,0,0,5,,,,,4,,,65,75
27072,note_off,,,,,192,0,2,,,,,1,,,69,0
27072,note_off,,,,,192,0,3,,,,,2,,,72,0
27072,note_on,,,,,0,0,3,,,,,2,,,69,92
27072,note_off,,,,,192,0,4,,,,,3,,,69,0
27072,note_on,,,,,0,0,4,,,,,3,,,65,92
27072,note_off,,,,,192,0,5,,,,,4,,,65,0
27072,note_on,,,,,0,0,5,,,,,4,,,60,75
27072,note_on,,,,,0,0,1,,,,,0,,,69,75
27072,note_on,,,,,0,0,2,,,,,1,,,65,75
27072,note_off,,,,,192,0,1,,,,,0,,,72,0
27264,note_on,,,,,0,0,5,,,,,4,,,69,75
27264,note_on,,,,,0,0,4,,,,,3,,,72,92
27264,note_off,,,,,192,0,4,,,,,3,,,65,0
27264,note_on,,,,,0,0,3,,,,,2,,,77,92
27264,note_off,,,,,192,0,3,,,,,2,,,69,0
27264,note_on,,,,,0,0,1,,,,,0,,,77,75
27264,note_on,,,,,0,0,2,,,,,1,,,72,75
27264,note_off,,,,,192,0,2,,,,,1,,,65,0
27264,note_off,,,,,192,0,1,,,,,0,,,69,0
27264,note_off,,,,,192,0,5,,,,,4,,,60,0
27552,note_off,,,,,672,0,7,,,,,6,,,41,0
27552,note_off,,,,,0,0,8,,,,,7,,,60,0
27552,note_off,,,,,672,0,9,,,,,8,,,53,0
27552,note_off,,,,,672,0,8,,,,,7,,,58,0
27552,note_off,,,,,0,0,8,,,,,7,,,67,0
27648,note_on,,,,,96,0,8,,,,,7,,,57,37
27648,note_on,,,,,0,0,6,,,,,5,,,53,75
27648,note_on,,,,,0,0,8,,,,,7,,,60,37
27648,note_on,,,,,0,0,8,,,,,7,,,65,37
27648,note_on,,,,,0,0,3,,,,,2,,,70,92
27648,note_off,,,,,384,0,3,,,,,2,,,77,0
27648,note_on,,,,,0,0,5,,,,,4,,,65,75
27648,note_off,,,,,768,0,6,,,,,5,,,53,0
27648,note_off,,,,,384,0,2,,,,,1,,,72,0
27648,note_off,,,,,384,0,5,,,,,4,,,69,0
27648,note_on,,,,,96,0,7,,,,,6,,,41,63
27648,note_off,,,,,384,0,1,,,,,0,,,77,0
27648,note_on,,,,,0,0,1,,,,,0,,,70,75
27648,note_on,,,,,0,0,4,,,,,3,,,67,92
27648,note_off,,,,,384,0,4,,,,,3,,,72,0
27648,note_on,,,,,96,0,9,,,,,8,,,53,37
27648,note_on,,,,,0,0,2,,,,,1,,,67,75
27840,note_off,,,,,192,0,1,,,,,0,,,70,0
27840,note_off,,,,,192,0,3,,,,,2,,,70,0
27840,note_on,,,,,0,0,3,,,,,2,,,67,92
27840,note_on,,,,,0,0,1,,,,,0,,,67,75
28032,note_on,,,,,0,0,1,,,,,0,,,79,75
28032,note_off,,,,,192,0,1,,,,,0,,,67,0
28032,note_off,,,,,384,0,5,,,,,4,,,65,0
28032,note_on,,,,,0,0,2,,,,,1,,,74,75
28032,note_off,,,,,192,0,3,,,,,2,,,67,0
28032,note_on,,,,,0,0,3,,,,,2,,,79,92
28032,note_on,,,,,0,0,5,,,,,4,,,70,75
28032,note_on,,,,,0,0,4,,,,,3,,,74,92
28032,note_off,,,,,384,0,4,,,,,3,,,67,0
28032,note_off,,,,,384,0,2,,,,,1,,,67,0
28320,note_off,,,,,672,0,8,,,,,7,,,57,0
28320,note_off,,,,,0,0,8,,,,,7,,,60,0
28320,note_off,,,,,0,0,8,,,,,7,,,65,0
28320,note_off,,,,,672,0,9,,,,,8,,,53,0
28320,note_off,,,,,672,0,7,,,,,6,,,41,0
28416,note_on,,,,,0,0,8,,,,,7,,,65,37
28416,note_off,,,,,384,0,1,,,,,0,,,79,0
28416,note_on,,,,,0,0,6,,,,,5,,,53,75
28416,note_off,,,,,768,0,6,,,,,5,,,53,0
28416,note_on,,,,,0,0,1,,,,,0,,,70,75
28416,note_on,,,,,0,0,3,,,,,2,,,70,92
28416,note_off,,,,,384,0,3,,,,,2,,,79,0
28416,note_off,,,,,384,0,5,,,,,4,,,70,0
28416,note_on,,,,,0,0,5,,,,,4,,,62,75
28416,note_on,,,,,96,0,7,,,,,6,,,41,63
28416,note_on,,,,,96,0,8,,,,,7,,,62,37
28416,note_on,,,,,96,0,9,,,,,8,,,53,37
28608,note_off,,,,,192,0,3,,,,,2,,,70,0
28608,note_on,,,,,0,0,3,,,,,2,,,67,92
28608,note_on,,,,,0,0,1,,,,,0,,,67,75
28608,note_off,,,,,192,0,1,,,,,0,,,70,0
28800,note_off,,,,,192,0,3,,,,,2,,,67,0
28800,note_on,,,,,0,0,3,,,,,2,,,79,92
28800,note_off,,,,,768,0,2,,,,,1,,,74,0
28800,note_on,,,,,0,0,2,,,,,1,,,70,75
28800,note_on,,,,,0,0,1,,,,,0,,,79,75
28800,note_off,,,,,192,0,1,,,,,0,,,67,0
28800,note_on,,,,,0,0,5,,,,,4,,,67,75
28800,note_off,,,,,384,0,5,,,,,4,,,62,0
28800,note_off,,,,,768,0,4,,,,,3,,,74,0
28800,note_on,,,,,0,0,4,,,,,3,,,70,92
29088,note_off,,,,,0,0,8,,,,,7,,,65,0
29088,note_off,,,,,672,0,8,,,,,7,,,62,0
29088,note_off,,,,,672,0,9,,,,,8,,,53,0
29088,note_off,,,,,672,0,7,,,,,6,,,41,0
29184,note_on,,,,,0,0,6,,,,,5,,,52,75
29184,note_on,,,,,96,0,7,,,,,6,,,40,63
29184,note_on,,,,,0,0,8,,,,,7,,,70,37
29184,note_on,,,,,0,0,4,,,,,3,,,67,92
29184,note_off,,,,,384,0,4,,,,,3,,,70,0
29184,note_on,,,,,96,0,9,,,,,8,,,52,37
29184,note_off,,,,,768,0,6,,,,,5,,,53,0
29184,note_on,,,,,0,0,1,,,,,0,,,70,75
29184,note_on,,,,,0,0,8,,,,,7,,,64,37
29184,note_on,,,,,0,0,2,,,,,1,,,67,75
29184,note_off,,,,,384,0,2,,,,,1,,,70,0
29184,note_on,,,,,0,0,3,,,,,2,,,70,92
29184,note_off,,,,,384,0,3,,,,,2,,,79,0
29184,note_on,,,,,0,0,5,,,,,4,,,60,75
29184,note_off,,,,,384,0,5,,,,,4,,,67,0
29184,note_off,,,,,384,0,1,,,,,0,,,79,0
29184,note_on,,,,,96,0,8,,,,,7,,,58,37
29376,note_off,,,,,192,0,3,,,,,2,,,70,0
29376,note_on,,,,,0,0,1,,,,,0,,,67,75
29376,note_on,,,,,0,0,3,,,,,2,,,67,92
29376,note_off,,,,,192,0,1,,,,,0,,,70,0
29568,note_off,,,,,192,0,1,,,,,0,,,67,0
29568,note_on,,,,,0,0,1,,,,,0,,,72,75
29568,note_on,,,,,0,0,4,,,,,3,,,64,92
29568,note_off,,,,,384,0,2,,,,,1,,,67,0
29568,note_on,,,,,0,0,2,,,,,1,,,64,75
29568,note_off,,,,,192,0,3,,,,,2,,,67,0
29568,note_on,,,,,0,0,3,,,,,2,,,72,92
29568,note_off,,,,,384,0,4,,,,,3,,,67,0
29760,note_off,,,,,192,0,3,,,,,2,,,72,0
29760,note_off,,,,,192,0,1,,,,,0,,,72,0
29760,note_on,,,,,0,0,1,,,,,0,,,67,75
29760,note_on,,,,,0,0,3,,,,,2,,,67,92
29856,note_off,,,,,672,0,7,,,,,6,,,40,0
29856,note_off,,,,,672,0,9,,,,,8,,,52,0
29856,note_off,,,,,672,0,8,,,,,7,,,58,0
29856,note_off,,,,,0,0,8,,,,,7,,,70,0
29856,note_off,,,,,0,0,8,,,,,7,,,64,0
29952,note_off,,,,,192,0,1,,,,,0,,,67,0
29952,note_on,,,,,0,0,4,,,,,3,,,60,92
29952,note_off,,,,,768,0,5,,,,,4,,,60,0
29952,note_on,,,,,96,0,7,,,,,6,,,41,63
29952,note_on,,,,,0,0,1,,,,,0,,,69,75
29952,note_on,,,,,0,0,5,,,,,4,,,65,75
29952,note_off,,,,,384,0,2,,,,,1,,,64,0
29952,note_on,,,,,96,0,9,,,,,8,,,53,37
29952,note_off,,,,,768,0,6,,,,,5,,,52,0
29952,note_on,,,,,0,0,3,,,,,2,,,69,92
29952,note_off,,,,,192,0,3,,,,,2,,,67,0
29952,note_off,,,,,384,0,4,,,,,3,,,64,0
29952,note_on,,,,,96,0,8,,,,,7,,,60,37
29952,note_on,,,,,0,0,8,,,,,7,,,65,37
29952,note_on,,,,,0,0,2,,,,,1,,,60,75
29952,note_on,,,,,0,0,8,,,,,7,,,69,37
29952,note_on,,,,,0,0,6,,,,,5,,,53,75
30144,note_off,,,,,192,0,3,,,,,2,,,69,0
30144,note_on,,,,,0,0,5,,,,,4,,,67,75
30144,note_on,,,,,0,0,3,,,,,2,,,70,92
30144,note_on,,,,,0,0,1,,,,,0,,,70,75
30144,note_off,,,,,192,0,1,,,,,0,,,69,0
30144,note_off,,,,,192,0,5,,,,,4,,,65,0
30336,note_on,,,,,0,0,1,,,,,0,,,72,75
30336,note_off,,,,,192,0,5,,,,,4,,,67,0
30336,note_off,,,,,384,0,2,,,,,1,,,60,0
30336,note_on,,,,,0,0,5,,,,,4,,,69,75
30336,note_off,,,,,192,0,3,,,,,2,,,70,0
30336,note_off,,,,,384,0,4,,,,,3,,,60,0
30336,note_on,,,,,0,0,4,,,,,3,,,65,92
30336,note_on,,,,,0,0,3,,,,,2,,,72,92
30336,note_off,,,,,192,0,1,,,,,0,,,70,0
30336,note_on,,,,,0,0,2,,,,,1,,,65,75
30528,note_on,,,,,0,0,5,,,,,4,,,65,75
30528,note_off,,,,,192,0,3,,,,,2,,,72,0
30528,note_off,,,,,192,0,1,,,,,0,,,72,0
30528,note_off,,,,,192,0,5,,,,,4,,,69,0
30528,note_on,,,,,0,0,3,,,,,2,,,69,92
30528,note_on,,,,,0,0,1,,,,,0,,,69,75
30624,note_off,,,,,672,0,8,,,,,7,,,60,0
30624,note_off,,,,,672,0,7,,,,,6,,,41,0
30624,note_off,,,,,672,0,9,,,,,8,,,53,0
30624,note_off,,,,,0,0,8,,,,,7,,,65,0
30624,note_off,,,,,0,0,8,,,,,7,,,69,0
30720,note_off,,,,,192,0,3,,,,,2,,,69,0
30720,note_on,,,,,96,0,7,,,,,6,,,46,63
30720,note_on,,,,,0,0,5,,,,,4,,,65,75
30720,note_off,,,,,192,0,5,,,,,4,,,65,0
30720,note_on,,,,,0,0,3,,,,,2,,,74,92
30720,note_off,,,,,768,0,6,,,,,5,,,53,0
30720,note_on,,,,,96,0,9,,,,,8,,,58,37
30720,note_on,,,,,96,0,8,,,,,7,,,60,37
30720,note_on,,,,,0,0,8,,,,,7,,,63,37
30720,note_on,,,,,0,0,8,,,,,7,,,69,37
30720,note_off,,,,,192,0,1,,,,,0,,,69,0
30720,note_on,,,,,0,0,1,,,,,0,,,74,75
30720,note_on,,,,,0,0,6,,,,,5,,,58,75
30912,note_off,,,,,192,0,3,,,,,2,,,74,0
30912,note_on,,,,,0,0,3,,,,,2,,,76,92
30912,note_off,,,,,192,0,1,,,,,0,,,74,0
30912,note_on,,,,,0,0,1,,,,,0,,,76,75
31104,note_on,,,,,0,0,1,,,,,0,,,77,75
31104,note_off,,,,,384,0,5,,,,,4,,,65,0
31104,note_on,,,,,0,0,5,,,,,4,,,70,75
31104,note_off,,,,,192,0,1,,,,,0,,,76,0
31104,note_on,,,,,0,0,2,,,,,1,,,74,75
31104,note_off,,,,,768,0,4,,,,,3,,,65,0
31104,note_off,,,,,768,0,2,,,,,1,,,65,0
31104,note_off,,,,,192,0,3,,,,,2,,,76,0
31104,note_on,,,,,0,0,3,,,,,2,,,77,92
31104,note_on,,,,,0,0,4,,,,,3,,,74,92
31296,note_on,,,,,0,0,1,,,,,0,,,74,75
31296,note_off,,,,,192,0,1,,,,,0,,,77,0
31296,note_on,,,,,0,0,3,,,,,2,,,74,92
31296,note_off,,,,,192,0,3,,,,,2,,,77,0
31392,note_off,,,,,672,0,8,,,,,7,,,60,0
31392,note_off,,,,,672,0,7,,,,,6,,,46,0
31392,note_off,,,,,0,0,8,,,,,7,,,69,0
31392,note_off,,,,,672,0,9,,,,,8,,,58,0
31392,note_off,,,,,0,0,8,,,,,7,,,63,0
31488,note_off,,,,,192,0,3,,,,,2,,,74,0
31488,note_off,,,,,192,0,1,,,,,0,,,74,0
31488,note_on,,,,,96,0,7,,,,,6,,,43,63
31488,note_on,,,,,0,0,3,,,,,2,,,76,92
31488,note_off,,,,,384,0,2,,,,,1,,,74,0
31488,note_on,,,,,0,0,1,,,,,0,,,76,75
31488,note_on,,,,,0,0,2,,,,,1,,,67,75
31488,note_on,,,,,0,0,8,,,,,7,,,65,37
31488,note_on,,,,,96,0,8,,,,,7,,,60,37
31488,note_on,,,,,0,0,6,,,,,5,,,55,75
31488,note_on,,,,,0,0,8,,,,,7,,,72,37
31488,note_on,,,,,96,0,9,,,,,8,,,55,37
31488,note_off,,,,,384,0,4,,,,,3,,,74,0
31488,note_off,,,,,768,0,6,,,,,5,,,58,0
31488,note_on,,,,,0,0,4,,,,,3,,,67,92
31680,note_off,,,,,192,0,4,,,,,3,,,67,0
31680,note_on,,,,,0,0,4,,,,,3,,,69,92
31680,note_off,,,,,192,0,2,,,,,1,,,67,0
31680,note_off,,,,,192,0,3,,,,,2,,,76,0
31680,note_on,,,,,0,0,3,,,,,2,,,77,92
31680,note_on,,,,,0,0,2,,,,,1,,,69,75
31680,note_on,,,,,0,0,1,,,,,0,,,77,75
31680,note_off,,,,,192,0,1,,,,,0,,,76,0
31872,note_on,,,,,0,0,2,,,,,1,,,70,75
31872,note_off,,,,,192,0,2,,,,,1,,,69,0
31872,note_on,,,,,0,0,5,,,,,4,,,58,75
31872,note_on,,,,,0,0,3,,,,,2,,,79,92
31872,note_off,,,,,192,0,3,,,,,2,,,77,0
31872,note_on,,,,,0,0,4,,,,,3,,,70,92
31872,note_on,,,,,0,0,1,,,,,0,,,79,75
31872,note_off,,,,,192,0,4,,,,,3,,,69,0
31872,note_off,,,,,768,0,5,,,,,4,,,70,0
31872,note_off,,,,,192,0,1,,,,,0,,,77,0
32064,note_off,,,,,192,0,1,,,,,0,,,79,0
32064,note_off,,,,,192,0,3,,,,,2,,,79,0
32064,note_on,,,,,0,0,3,,,,,2,,,76,92
32064,note_off,,,,,192,0,2,,,,,1,,,70,0
32064,note_on,,,,,0,0,2,,,,,1,,,67,75
32064,note_on,,,,,0,0,1,,,,,0,,,76,75
32064,note_off,,,,,192,0,4,,,,,3,,,70,0
32064,note_on,,,,,0,0,4,,,,,3,,,67,92
32160,note_off,,,,,672,0,8,,,,,7,,,60,0
32160,note_off,,,,,672,0,9,,,,,8,,,55,0
32160,note_off,,,,,0,0,8,,,,,7,,,65,0
32160,note_off,,,,,672,0,7,,,,,6,,,43,0
32160,note_off,,,,,0,0,8,,,,,7,,,72,0
32256,note_off,,,,,384,0,5,,,,,4,,,58,0
32256,note_on,,,,,0,0,3,,,,,2,,,77,92
32256,note_off,,,,,192,0,3,,,,,2,,,76,0
32256,note_on,,,,,96,0,7,,,,,6,,,45,63
32256,note_on,,,,,0,0,1,,,,,0,,,77,75
32256,note_off,,,,,192,0,1,,,,,0,,,76,0
32256,note_off,,,,,192,0,4,,,,,3,,,67,0
32256,note_off,,,,,192,0,2,,,,,1,,,67,0
32256,note_on,,,,,0,0,2,,,,,1,,,72,75
32256,note_on,,,,,96,0,8,,,,,7,,,62,37
32256,note_on,,,,,0,0,5,,,,,4,,,65,75
32256,note_on,,,,,96,0,9,,,,,8,,,57,37
32256,note_on,,,,,0,0,8,,,,,7,,,65,37
32256,note_on,,,,,0,0,6,,,,,5,,,57,75
32256,note_off,,,,,768,0,6,,,,,5,,,55,0
32256,note_on,,,,,0,0,4,,,,,3,,,72,92
32448,note_on,,,,,0,0,3,,,,,2,,,79,92
32448,note_on,,,,,0,0,1,,,,,0,,,79,75
32448,note_off,,,,,192,0,1,,,,,0,,,77,0
32448,note_off,,,,,192,0,3,,,,,2,,,77,0
32640,note_off,,,,,192,0,3,,,,,2,,,79,0
32640,note_on,,,,,0,0,5,,,,,4,,,70,75
32640,note_on,,,,,0,0,1,,,,,0,,,81,75
32640,note_off,,,,,384,0,5,,,,,4,,,65,0
32640,note_on,,,,,0,0,3,,,,,2,,,81,92
32640,note_on,,,,,0,0,4,,,,,3,,,77,92
32640,note_off,,,,,384,0,4,,,,,3,,,72,0
32640,note_off,,,,,384,0,2,,,,,1,,,72,0
32640,note_on,,,,,0,0,2,,,,,1,,,77,75
32640,note_off,,,,,192,0,1,,,,,0,,,79,0
32832,note_on,,,,,0,0,1,,,,,0,,,77,75
32832,note_off,,,,,192,0,3,,,,,2,,,81,0
32832,note_on,,,,,0,0,3,,,,,2,,,77,92
32832,note_off,,,,,192,0,1,,,,,0,,,81,0
32928,note_off,,,,,672,0,7,,,,,6,,,45,0
32928,note_off,,,,,672,0,9,,,,,8,,,57,0
32928,note_off,,,,,672,0,8,,,,,7,,,62,0
32928,note_off,,,,,0,0,8,,,,,7,,,65,0
33024,note_on,,,,,96,0,9,,,,,8,,,53,37
33024,note_on,,,,,96,0,7,,,,,6,,,41,63
33024,note_off,,,,,768,0,6,,,,,5,,,57,0
33024,note_on,,,,,0,0,1,,,,,0,,,81,75
33024,note_on,,,,,0,0,6,,,,,5,,,53,75
33024,note_on,,,,,0,0,8,,,,,7,,,67,37
33024,note_on,,,,,0,0,8,,,,,7,,,62,37
33024,note_off,,,,,192,0,1,,,,,0,,,77,0
33024,note_on,,,,,96,0,8,,,,,7,,,58,37
33024,note_on,,,,,0,0,3,,,,,2,,,81,92
33024,note_off,,,,,192,0,3,,,,,2,,,77,0
33216,note_off,,,,,192,0,3,,,,,2,,,81,0
33216,note_on,,,,,0,0,3,,,,,2,,,84,92
33216,note_on,,,,,0,0,1,,,,,0,,,84,75
33216,note_off,,,,,192,0,1,,,,,0,,,81,0
33408,note_on,,,,,0,0,5,,,,,4,,,69,75
33408,note_off,,,,,768,0,4,,,,,3,,,77,0
33408,note_off,,,,,192,0,1,,,,,0,,,84,0
33408,note_off,,,,,768,0,5,,,,,4,,,70,0
33408,note_on,,,,,0,0,4,,,,,3,,,72,92
33408,note_off,,,,,768,0,2,,,,,1,,,77,0
33408,note_off,,,,,192,0,3,,,,,2,,,84,0
33408,note_on,,,,,0,0,1,,,,,0,,,75,75
33408,note_on,,,,,0,0,2,,,,,1,,,72,75
33408,note_on,,,,,0,0,3,,,,,2,,,75,92
33696,note_off,,,,,0,0,8,,,,,7,,,67,0
33696,note_off,,,,,672,0,9,,,,,8,,,53,0
33696,note_off,,,,,672,0,7,,,,,6,,,41,0
33696,note_off,,,,,672,0,8,,,,,7,,,58,0
33696,note_off,,,,,0,0,8,,,,,7,,,62,0
33792,note_on,,,,,0,0,8,,,,,7,,,62,37
33792,note_on,,,,,0,0,8,,,,,7,,,67,37
33792,note_off,,,,,768,0,6,,,,,5,,,53,0
33792,note_on,,,,,0,0,6,,,,,5,,,45,75
33792,note_on,,,,,96,0,8,,,,,7,,,58,37
33792,note_on,,,,,96,0,7,,,,,6,,,33,63
33792,note_on,,,,,0,0,2,,,,,1,,,65,75
33792,note_off,,,,,384,0,4,,,,,3,,,72,0
33792,note_on,,,,,0,0,4,,,,,3,,,65,92
33792,note_off,,,,,384,0,2,,,,,1,,,72,0
33792,note_on,,,,,96,0,9,,,,,8,,,45,37
33984,note_off,,,,,576,0,1,,,,,0,,,75,0
33984,note_on,,,,,0,0,1,,,,,0,,,77,75
33984,note_on,,,,,0,0,3,,,,,2,,,77,92
33984,note_off,,,,,576,0,3,,,,,2,,,75,0
34176,note_on,,,,,0,0,5,,,,,4,,,65,75
34176,note_on,,,,,0,0,1,,,,,0,,,72,75
34176,note_off,,,,,768,0,5,,,,,4,,,69,0
34176,note_on,,,,,0,0,3,,,,,2,,,72,92
34176,note_off,,,,,192,0,3,,,,,2,,,77,0
34176,note_off,,,,,192,0,1,,,,,0,,,77,0
34464,note_off,,,,,672,0,8,,,,,7,,,58,0
34464,note_off,,,,,0,0,8,,,,,7,,,62,0
34464,note_off,,,,,0,0,8,,,,,7,,,67,0
34464,note_off,,,,,672,0,9,,,,,8,,,45,0
34464,note_off,,,,,672,0,7,,,,,6,,,33,0
34560,note_on,,,,,0,0,5,,,,,4,,,65,75
34560,note_on,,,,,96,0,7,,,,,6,,,34,63
34560,note_on,,,,,0,0,4,,,,,3,,,62,92
34560,note_off,,,,,768,0,4,,,,,3,,,65,0
34560,note_on,,,,,96,0,8,,,,,7,,,55,37
34560,note_on,,,,,0,0,8,,,,,7,,,64,37
34560,note_on,,,,,0,0,2,,,,,1,,,62,75
34560,note_off,,,,,384,0,5,,,,,4,,,65,0
34560,note_off,,,,,768,0,2,,,,,1,,,65,0
34560,note_on,,,,,0,0,8,,,,,7,,,60,37
34560,note_on,,,,,96,0,9,,,,,8,,,46,37
34560,note_on,,,,,0,0,6,,,,,5,,,46,75
34560,note_off,,,,,768,0,6,,,,,5,,,45,0
34752,note_off,,,,,576,0,3,,,,,2,,,72,0
34752,note_on,,,,,0,0,1,,,,,0,,,74,75
34752,note_off,,,,,576,0,1,,,,,0,,,72,0
34752,note_on,,,,,0,0,3,,,,,2,,,74,92
34944,note_on,,,,,0,0,1,,,,,0,,,70,75
34944,note_off,,,,,192,0,1,,,,,0,,,74,0
34944,note_on,,,,,0,0,3,,,,,2,,,70,92
34944,note_off,,,,,192,0,3,,,,,2,,,74,0
35232,note_off,,,,,672,0,7,,,,,6,,,34,0
35232,note_off,,,,,0,0,8,,,,,7,,,64,0
35232,note_off,,,,,0,0,8,,,,,7,,,60,0
35232,note_off,,,,,672,0,8,,,,,7,,,55,0
35232,note_off,,,,,672,0,9,,,,,8,,,46,0
35328,note_off,,,,,768,0,6,,,,,5,,,46,0
35328,note_on,,,,,0,0,5,,,,,4,,,67,75
35328,note_on,,,,,0,0,4,,,,,3,,,67,92
35328,note_off,,,,,768,0,4,,,,,3,,,62,0
35328,note_off,,,,,768,0,5,,,,,4,,,65,0
35328,note_on,,,,,0,0,6,,,,,5,,,43,75
35328,note_on,,,,,0,0,8,,,,,7,,,67,37
35328,note_on,,,,,96,0,9,,,,,8,,,43,37
35328,note_on,,,,,0,0,8,,,,,7,,,60,37
35328,note_on,,,,,96,0,7,,,,,6,,,31,63
35328,note_off,,,,,768,0,2,,,,,1,,,62,0
35328,note_on,,,,,0,0,2,,,,,1,,,67,75
35328,note_on,,,,,96,0,8,,,,,7,,,58,37
35520,note_off,,,,,576,0,1,,,,,0,,,70,0
35520,note_on,,,,,0,0,1,,,,,0,,,74,75
35520,note_on,,,,,0,0,3,,,,,2,,,74,92
35520,note_off,,,,,576,0,3,,,,,2,,,70,0
35712,note_on,,,,,0,0,3,,,,,2,,,69,92
35712,note_off,,,,,384,0,2,,,,,1,,,67,0
35712,note_on,,,,,0,0,1,,,,,0,,,69,75
35712,note_off,,,,,384,0,4,,,,,3,,,67,0
35712,note_on,,,,,0,0,4,,,,,3,,,65,92
35712,note_on,,,,,0,0,2,,,,,1,,,65,75
35712,note_off,,,,,192,0,3,,,,,2,,,74,0
35712,note_off,,,,,192,0,1,,,,,0,,,74,0
36000,note_off,,,,,672,0,7,,,,,6,,,31,0
36000,note_off,,,,,0,0,8,,,,,7,,,60,0
36000,note_off,,,,,672,0,8,,,,,7,,,58,0
36000,note_off,,,,,672,0,9,,,,,8,,,43,0
36096,note_on,,,,,96,0,7,,,,,6,,,34,63
36096,note_off,,,,,384,0,3,,,,,2,,,69,0
36096,note_off,,,,,768,0,5,,,,,4,,,67,0
36096,note_off,,,,,384,0,1,,,,,0,,,69,0
36096,note_on,,,,,0,0,8,,,,,7,,,60,37
36096,note_on,,,,,96,0,9,,,,,8,,,46,37
36096,note_on,,,,,0,0,4,,,,,3,,,64,92
36096,note_off,,,,,384,0,4,,,,,3,,,65,0
36096,note_on,,,,,0,0,5,,,,,4,,,55,75
36096,note_on,,,,,0,0,6,,,,,5,,,46,75
36096,note_off,,,,,768,0,6,,,,,5,,,43,0
36096,note_on,,,,,0,0,3,,,,,2,,,67,92
36096,note_on,,,,,0,0,1,,,,,0,,,67,75
36096,note_on,,,,,96,0,8,,,,,7,,,57,37
36096,note_off,,,,,384,0,2,,,,,1,,,65,0
36096,note_on,,,,,0,0,2,,,,,1,,,64,75
36288,note_off,,,,,192,0,3,,,,,2,,,67,0
36288,note_off,,,,,192,0,1,,,,,0,,,67,0
36288,note_on,,,,,0,0,3,,,,,2,,,74,92
36288,note_on,,,,,0,0,1,,,,,0,,,74,75
36416,note_off,,,,,0,0,8,,,,,7,,,60,0
36416,note_off,,,,,0,0,8,,,,,7,,,57,0
36416,note_off,,,,,320,0,8,,,,,7,,,67,0
36480,note_off,,,,,192,0,3,,,,,2,,,74,0
36480,note_off,,,,,384,0,4,,,,,3,,,64,0
36480,note_on,,,,,64,0,8,,,,,7,,,65,37
36480,note_off,,,,,192,0,1,,,,,0,,,74,0
36480,note_on,,,,,0,0,2,,,,,1,,,62,75
36480,note_off,,,,,384,0,2,,,,,1,,,64,0
36480,note_on,,,,,0,0,4,,,,,3,,,62,92
36480,note_on,,,,,0,0,3,,,,,2,,,65,92
36480,note_on,,,,,0,0,1,,,,,0,,,65,75
36768,note_off,,,,,672,0,7,,,,,6,,,34,0
36768,note_off,,,,,672,0,9,,,,,8,,,46,0
36800,note_off,,,,,320,0,8,,,,,7,,,65,0
36864,note_off,,,,,384,0,2,,,,,1,,,62,0
36864,note_on,,,,,0,0,1,,,,,0,,,64,75
36864,note_off,,,,,384,0,1,,,,,0,,,65,0
36864,note_on,,,,,0,0,8,,,,,7,,,60,37
36864,note_off,,,,,768,0,6,,,,,5,,,46,0
36864,note_on,,,,,0,0,8,,,,,7,,,64,37
36864,note_on,,,,,64,0,8,,,,,7,,,55,37
36864,note_on,,,,,0,0,5,,,,,4,,,55,75
36864,note_off,,,,,768,0,5,,,,,4,,,55,0
36864,note_on,,,,,0,0,6,,,,,5,,,48,75
36864,note_on,,,,,0,0,3,,,,,2,,,64,92
36864,note_on,,,,,96,0,7,,,,,6,,,36,63
36864,note_on,,,,,0,0,4,,,,,3,,,60,92
36864,note_off,,,,,384,0,3,,,,,2,,,65,0
36864,note_on,,,,,96,0,9,,,,,8,,,48,37
36864,note_on,,,,,0,0,2,,,,,1,,,60,75
36864,note_off,,,,,384,0,4,,,,,3,,,62,0
37056,note_off,,,,,192,0,1,,,,,0,,,64,0
37056,note_on,,,,,0,0,1,,,,,0,,,67,75
37056,note_off,,,,,192,0,3,,,,,2,,,64,0
37056,note_on,,,,,0,0,3,,,,,2,,,67,92
37248,note_off,,,,,192,0,1,,,,,0,,,67,0
37248,note_on,,,,,0,0,3,,,,,2,,,60,92
37248,note_off,,,,,192,0,3,,,,,2,,,67,0
37248,note_on,,,,,0,0,1,,,,,0,,,60,75
37536,note_off,,,,,672,0,8,,,,,7,,,55,0
37536,note_off,,,,,672,0,7,,,,,6,,,36,0
37536,note_off,,,,,672,0,9,,,,,8,,,48,0
37536,note_off,,,,,0,0,8,,,,,7,,,64,0
37536,note_off,,,,,0,0,8,,,,,7,,,60,0
37632,note_on,,,,,0,0,5,,,,,4,,,60,75
37632,note_off,,,,,768,0,5,,,,,4,,,55,0
37632,note_off,,,,,768,0,2,,,,,1,,,60,0
37632,note_on,,,,,0,0,2,,,,,1,,,64,75
37632,note_on,,,,,0,0,4,,,,,3,,,64,92
37632,note_on,,,,,96,0,8,,,,,7,,,58,37
37632,note_on,,,,,0,0,8,,,,,7,,,60,37
37632,note_on,,,,,0,0,8,,,,,7,,,67,37
37632,note_off,,,,,768,0,6,,,,,5,,,48,0
37632,note_off,,,,,768,0,4,,,,,3,,,60,0
37632,note_on,,,,,0,0,6,,,,,5,,,48,75
37632,note_on,,,,,96,0,7,,,,,6,,,36,63
37632,note_on,,,,,96,0,9,,,,,8,,,48,37
37824,note_off,,,,,576,0,1,,,,,0,,,60,0
37824,note_off,,,,,576,0,3,,,,,2,,,60,0
37824,note_on,,,,,0,0,1,,,,,0,,,70,75
37824,note_on,,,,,0,0,3,,,,,2,,,70,92
38016,note_on,,,,,0,0,1,,,,,0,,,67,75
38016,note_off,,,,,192,0,1,,,,,0,,,70,0
38016,note_on,,,,,0,0,3,,,,,2,,,67,92
38016,note_off,,,,,192,0,3,,,,,2,,,70,0
38304,note_off,,,,,672,0,8,,,,,7,,,58,0
38304,note_off,,,,,0,0,8,,,,,7,,,60,0
38304,note_off,,,,,672,0,9,,,,,8,,,48,0
38304,note_off,,,,,672,0,7,,,,,6,,,36,0
38400,note_on,,,,,0,0,5,,,,,4,,,57,75
38400,note_off,,,,,768,0,4,,,,,3,,,64,0
38400,note_on,,,,,0,0,4,,,,,3,,,60,92
38400,note_on,,,,,0,0,2,,,,,1,,,60,75
38400,note_off,,,,,768,0,2,,,,,1,,,64,0
38400,note_on,,,,,96,0,9,,,,,8,,,48,37
38400,note_on,,,,,0,0,6,,,,,5,,,48,75
38400,note_off,,,,,768,0,5,,,,,4,,,60,0
38400,note_off,,,,,768,0,6,,,,,5,,,48,0
38400,note_on,,,,,0,0,8,,,,,7,,,60,37
38400,note_on,,,,,96,0,8,,,,,7,,,57,37
38400,note_on,,,,,96,0,7,,,,,6,,,36,63
38592,note_off,,,,,576,0,1,,,,,0,,,67,0
38592,note_on,,,,,0,0,1,,,,,0,,,69,75
38592,note_off,,,,,576,0,3,,,,,2,,,67,0
38592,note_on,,,,,0,0,3,,,,,2,,,69,92
38720,note_off,,,,,320,0,8,,,,,7,,,67,0
38784,note_on,,,,,64,0,8,,,,,7,,,65,37
38784,note_on,,,,,0,0,1,,,,,0,,,65,75
38784,note_off,,,,,192,0,1,,,,,0,,,69,0
38784,note_off,,,,,192,0,3,,,,,2,,,69,0
38784,note_on,,,,,0,0,3,,,,,2,,,65,92
38976,note_off,,,,,192,0,1,,,,,0,,,65,0
38976,note_on,,,,,0,0,1,,,,,0,,,62,75
38976,note_on,,,,,0,0,3,,,,,2,,,62,92
38976,note_off,,,,,192,0,3,,,,,2,,,65,0
39072,note_off,,,,,0,0,8,,,,,7,,,60,0
39072,note_off,,,,,672,0,7,,,,,6,,,36,0
39072,note_off,,,,,672,0,9,,,,,8,,,48,0
39072,note_off,,,,,288,0,8,,,,,7,,,57,0
39104,note_off,,,,,32,0,8,,,,,7,,,65,0
39168,note_on,,,,,0,0,3,,,,,2,,,64,92
39168,note_on,,,,,0,0,2,,,,,1,,,60,75
39168,note_off,,,,,768,0,2,,,,,1,,,60,0
39168,note_off,,,,,192,0,3,,,,,2,,,62,0
39168,note_off,,,,,768,0,5,,,,,4,,,57,0
39168,note_on,,,,,0,0,5,,,,,4,,,55,75
39168,note_on,,,,,96,0,7,,,,,6,,,36,63
39168,note_on,,,,,0,0,1,,,,,0,,,64,75
39168,note_on,,,,,96,0,9,,,,,8,,,48,37
39168,note_off,,,,,192,0,1,,,,,0,,,62,0
39168,note_on,,,,,0,0,6,,,,,5,,,48,75
39168,note_off,,,,,768,0,6,,,,,5,,,48,0
39168,note_on,,,,,0,0,4,,,,,3,,,60,92
39168,note_off,,,,,768,0,4,,,,,3,,,60,0
39168,note_on,,,,,0,0,8,,,,,7,,,64,37
39168,note_on,,,,,64,0,8,,,,,7,,,55,37
39168,note_on,,,,,0,0,8,,,,,7,,,60,37
39360,note_off,,,,,192,0,1,,,,,0,,,64,0
39360,note_off,,,,,192,0,3,,,,,2,,,64,0
39360,note_on,,,,,0,0,3,,,,,2,,,67,92
39360,note_on,,,,,0,0,1,,,,,0,,,67,75
39552,note_off,,,,,192,0,1,,,,,0,,,67,0
39552,note_on,,,,,0,0,1,,,,,0,,,60,75
39552,note_on,,,,,0,0,3,,,,,2,,,60,92
39552,note_off,,,,,192,0,3,,,,,2,,,67,0
39840,note_off,,,,,0,0,8,,,,,7,,,60,0
39840,note_off,,,,,0,0,8,,,,,7,,,64,0
39840,note_off,,,,,672,0,9,,,,,8,,,48,0
39840,note_off,,,,,672,0,7,,,,,6,,,36,0
39840,note_off,,,,,672,0,8,,,,,7,,,55,0
39936,note_off,,,,,768,0,2,,,,,1,,,60,0
39936,note_on,,,,,0,0,2,,,,,1,,,64,75
39936,note_on,,,,,0,0,6,,,,,5,,,48,75
39936,note_off,,,,,768,0,6,,,,,5,,,48,0
39936,note_on,,,,,0,0,8,,,,,7,,,60,37
39936,note_on,,,,,96,0,9,,,,,8,,,48,37
39936,note_on,,,,,96,0,8,,,,,7,,,58,37
39936,note_on,,,,,0,0,4,,,,,3,,,64,92
39936,note_on,,,,,0,0,8,,,,,7,,,67,37
39936,note_off,,,,,768,0,5,,,,,4,,,55,0
39936,note_on,,,,,96,0,7,,,,,6,,,36,63
39936,note_on,,,,,0,0,5,,,,,4,,,60,75
39936,note_off,,,,,768,0,4,,,,,3,,,60,0
40128,note_on,,,,,0,0,3,,,,,2,,,70,92
40128,note_on,,,,,0,0,1,,,,,0,,,70,75
40128,note_off,,,,,576,0,1,,,,,0,,,60,0
40128,note_off,,,,,576,0,3,,,,,2,,,60,0
40320,note_off,,,,,192,0,1,,,,,0,,,70,0
40320,note_off,,,,,192,0,3,,,,,2,,,70,0
40320,note_on,,,,,0,0,3,,,,,2,,,67,92
40320,note_on,,,,,0,0,1,,,,,0,,,67,75
40608,note_off,,,,,672,0,7,,,,,6,,,36,0
40608,note_off,,,,,672,0,9,,,,,8,,,48,0
40608,note_off,,,,,672,0,8,,,,,7,,,58,0
40608,note_off,,,,,0,0,8,,,,,7,,,60,0
40704,note_off,,,,,768,0,2,,,,,1,,,64,0
40704,note_on,,,,,0,0,5,,,,,4,,,57,75
40704,note_off,,,,,768,0,5,,,,,4,,,60,0
40704,note_on,,,,,0,0,6,,,,,5,,,48,75
40704,note_on,,,,,96,0,7,,,,,6,,,36,63
40704,note_off,,,,,768,0,4,,,,,3,,,64,0
40704,note_off,,,,,768,0,6,,,,,5,,,48,0
40704,note_on,,,,,96,0,9,,,,,8,,,48,37
40704,note_on,,,,,0,0,4,,,,,3,,,60,92
40704,note_on,,,,,0,0,2,,,,,1,,,60,75
40704,note_on,,,,,0,0,8,,,,,7,,,60,37
40704,note_on,,,,,96,0,8,,,,,7,,,57,37
40896,note_on,,,,,0,0,1,,,,,0,,,69,75
40896,note_off,,,,,576,0,1,,,,,0,,,67,0
40896,note_on,,,,,0,0,3,,,,,2,,,69,92
40896,note_off,,,,,576,0,3,,,,,2,,,67,0
41024,note_off,,,,,320,0,8,,,,,7,,,67,0
41088,note_on,,,,,0,0,1,,,,,0,,,65,75
41088,note_off,,,,,192,0,1,,,,,0,,,69,0
41088,note_on,,,,,0,0,3,,,,,2,,,65,92
41088,note_on,,,,,64,0,8,,,,,7,,,65,37
41088,note_off,,,,,192,0,3,,,,,2,,,69,0
41280,note_off,,,,,192,0,3,,,,,2,,,65,0
41280,note_on,,,,,0,0,3,,,,,2,,,62,92
41280,note_on,,,,,0,0,1,,,,,0,,,62,75
41280,note_off,,,,,192,0,1,,,,,0,,,65,0
41376,note_off,,,,,672,0,9,,,,,8,,,48,0
41376,note_off,,,,,0,0,8,,,,,7,,,60,0
41376,note_off,,,,,288,0,8,,,,,7,,,57,0
41376,note_off,,,,,672,0,7,,,,,6,,,36,0
41408,note_off,,,,,32,0,8,,,,,7,,,65,0
41472,note_off,,,,,768,0,4,,,,,3,,,60,0
41472,note_on,,,,,0,0,1,,,,,0,,,64,75
41472,note_off,,,,,192,0,1,,,,,0,,,62,0
41472,note_on,,,,,0,0,4,,,,,3,,,60,92
41472,note_off,,,,,768,0,5,,,,,4,,,57,0
41472,note_on,,,,,0,0,3,,,,,2,,,64,92
41472,note_on,,,,,0,0,2,,,,,1,,,60,75
41472,note_off,,,,,768,0,6,,,,,5,,,48,0
41472,note_on,,,,,0,0,6,,,,,5,,,48,75
41472,note_on,,,,,0,0,8,,,,,7,,,64,37
41472,note_off,,,,,192,0,3,,,,,2,,,62,0
41472,note_on,,,,,0,0,5,,,,,4,,,55,75
41472,note_on,,,,,64,0,8,,,,,7,,,55,37
41472,note_on,,,,,96,0,7,,,,,6,,,36,63
41472,note_on,,,,,96,0,9,,,,,8,,,48,37
41472,note_off,,,,,768,0,2,,,,,1,,,60,0
41472,note_on,,,,,0,0,8,,,,,7,,,60,37
41664,note_on,,,,,0,0,1,,,,,0,,,67,75
41664,note_on,,,,,0,0,3,,,,,2,,,67,92
41664,note_off,,,,,192,0,3,,,,,2,,,64,0
41664,note_off,,,,,192,0,1,,,,,0,,,64,0
41856,note_on,,,,,0,0,3,,,,,2,,,60,92
41856,note_off,,,,,192,0,3,,,,,2,,,67,0
41856,note_off,,,,,192,0,1,,,,,0,,,67,0
41856,note_on,,,,,0,0,1,,,,,0,,,60,75
42144,note_off,,,,,0,0,8,,,,,7,,,64,0
42144,note_off,,,,,0,0,8,,,,,7,,,60,0
42144,note_off,,,,,672,0,8,,,,,7,,,55,0
42144,note_off,,,,,672,0,7,,,,,6,,,36,0
42144,note_off,,,,,672,0,9,,,,,8,,,48,0
42240,note_off,,,,,768,0,6,,,,,5,,,48,0
42240,note_on,,,,,0,0,6,,,,,5,,,60,75
42240,note_on,,,,,96,0,7,,,,,6,,,48,63
42240,note_on,,,,,96,0,9,,,,,8,,,60,37
42240,note_off,,,,,768,0,4,,,,,3,,,60,0
42240,note_off,,,,,768,0,2,,,,,1,,,60,0
42240,note_off,,,,,768,0,5,,,,,4,,,55,0
42240,note_on,,,,,96,0,8,,,,,7,,,64,37
42240,note_on,,,,,0,0,2,,,,,1,,,67,75
42240,note_on,,,,,0,0,5,,,,,4,,,64,75
42240,note_on,,,,,0,0,8,,,,,7,,,67,37
42240,note_on,,,,,0,0,4,,,,,3,,,67,92
42624,note_on,,,,,0,0,3,,,,,2,,,76,92
42624,note_off,,,,,768,0,1,,,,,0,,,60,0
42624,note_off,,,,,768,0,3,,,,,2,,,60,0
42624,note_on,,,,,0,0,1,,,,,0,,,76,75
42912,note_off,,,,,0,0,8,,,,,7,,,67,0
42912,note_off,,,,,672,0,8,,,,,7,,,64,0
42912,note_off,,,,,672,0,7,,,,,6,,,48,0
42912,note_off,,,,,672,0,9,,,,,8,,,60,0
43008,note_off,,,,,768,0,2,,,,,1,,,67,0
43008,note_on,,,,,0,0,2,,,,,1,,,72,75
43008,note_off,,,,,768,0,5,,,,,4,,,64,0
43008,note_on,,,,,0,0,4,,,,,3,,,72,92
43008,note_on,,,,,0,0,6,,,,,5,,,58,75
43008,note_on,,,,,96,0,8,,,,,7,,,60,37
43008,note_on,,,,,0,0,8,,,,,7,,,64,37
43008,note_on,,,,,96,0,7,,,,,6,,,46,63
43008,note_on,,,,,0,0,8,,,,,7,,,67,37
43008,note_on,,,,,96,0,9,,,,,8,,,58,37
43008,note_on,,,,,0,0,5,,,,,4,,,67,75
43008,note_off,,,,,768,0,4,,,,,3,,,67,0
43008,note_off,,,,,768,0,6,,,,,5,,,60,0
43392,note_off,,,,,768,0,3,,,,,2,,,76,0
43392,note_on,,,,,0,0,3,,,,,2,,,77,92
43392,note_on,,,,,0,0,1,,,,,0,,,77,75
43392,note_off,,,,,768,0,1,,,,,0,,,76,0
43584,note_on,,,,,0,0,3,,,,,2,,,79,92
43584,note_on,,,,,0,0,1,,,,,0,,,79,75
43584,note_off,,,,,192,0,1,,,,,0,,,77,0
43584,note_off,,,,,192,0,3,,,,,2,,,77,0
43680,note_off,,,,,0,0,8,,,,,7,,,64,0
43680,note_off,,,,,672,0,8,,,,,7,,,60,0
43680,note_off,,,,,672,0,7,,,,,6,,,46,0
43680,note_off,,,,,672,0,9,,,,,8,,,58,0
43680,note_off,,,,,0,0,8,,,,,7,,,67,0
43776,note_off,,,,,768,0,6,,,,,5,,,58,0
43776,note_on,,,,,0,0,6,,,,,5,,,57,75
43776,note_on,,,,,96,0,8,,,,,7,,,60,37
43776,note_on,,,,,0,0,8,,,,,7,,,65,37
43776,note_off,,,,,768,0,5,,,,,4,,,67,0
43776,note_on,,,,,0,0,5,,,,,4,,,65,75
43776,note_off,,,,,768,0,4,,,,,3,,,72,0
43776,note_off,,,,,768,0,2,,,,,1,,,72,0
43776,note_off,,,,,192,0,1,,,,,0,,,79,0
43776,note_on,,,,,0,0,1,,,,,0,,,72,75
43776,note_on,,,,,96,0,7,,,,,6,,,45,63
43776,note_on,,,,,0,0,2,,,,,1,,,60,75
43776,note_on,,,,,0,0,4,,,,,3,,,60,92
43776,note_on,,,,,96,0,9,,,,,8,,,57,37
43776,note_on,,,,,0,0,3,,,,,2,,,72,92
43776,note_off,,,,,192,0,3,,,,,2,,,79,0
43968,note_on,,,,,0,0,1,,,,,0,,,65,75
43968,note_off,,,,,192,0,1,,,,,0,,,72,0
43968,note_on,,,,,0,0,3,,,,,2,,,65,92
43968,note_off,,,,,192,0,3,,,,,2,,,72,0
44160,note_off,,,,,192,0,3,,,,,2,,,65,0
44160,note_on,,,,,0,0,1,,,,,0,,,67,75
44160,note_off,,,,,192,0,1,,,,,0,,,65,0
44160,note_on,,,,,0,0,3,,,,,2,,,67,92
44352,note_off,,,,,192,0,3,,,,,2,,,67,0
44352,note_on,,,,,0,0,3,,,,,2,,,69,92
44352,note_off,,,,,192,0,1,,,,,0,,,67,0
44352,note_on,,,,,0,0,1,,,,,0,,,69,75
44448,note_off,,,,,672,0,7,,,,,6,,,45,0
44448,note_off,,,,,0,0,8,,,,,7,,,65,0
44448,note_off,,,,,672,0,8,,,,,7,,,60,0
44448,note_off,,,,,672,0,9,,,,,8,,,57,0
44544,note_on,,,,,0,0,4,,,,,3,,,62,92
44544,note_on,,,,,96,0,8,,,,,7,,,62,37
44544,note_on,,,,,96,0,9,,,,,8,,,55,37
44544,note_on,,,,,0,0,1,,,,,0,,,70,75
44544,note_on,,,,,0,0,6,,,,,5,,,55,75
44544,note_off,,,,,768,0,6,,,,,5,,,57,0
44544,note_off,,,,,192,0,3,,,,,2,,,69,0
44544,note_on,,,,,0,0,3,,,,,2,,,70,92
44544,note_on,,,,,0,0,2,,,,,1,,,62,75
44544,note_off,,,,,768,0,2,,,,,1,,,60,0
44544,note_off,,,,,192,0,1,,,,,0,,,69,0
44544,note_on,,,,,0,0,5,,,,,4,,,67,75
44544,note_off,,,,,768,0,5,,,,,4,,,65,0
44544,note_on,,,,,0,0,8,,,,,7,,,70,37
44544,note_off,,,,,768,0,4,,,,,3,,,60,0
44544,note_on,,,,,96,0,7,,,,,6,,,43,63
44544,note_on,,,,,0,0,8,,,,,7,,,67,37
44736,note_off,,,,,192,0,3,,,,,2,,,70,0
44736,note_on,,,,,0,0,3,,,,,2,,,72,92
44736,note_off,,,,,192,0,1,,,,,0,,,70,0
44736,note_on,,,,,0,0,1,,,,,0,,,72,75
44928,note_off,,,,,192,0,3,,,,,2,,,72,0
44928,note_on,,,,,0,0,3,,,,,2,,,74,92
44928,note_off,,,,,192,0,1,,,,,0,,,72,0
44928,note_on,,,,,0,0,1,,,,,0,,,74,75
45120,note_off,,,,,192,0,3,,,,,2,,,74,0
45120,note_on,,,,,0,0,3,,,,,2,,,70,92
45120,note_off,,,,,192,0,1,,,,,0,,,74,0
45120,note_on,,,,,0,0,1,,,,,0,,,70,75
45216,note_off,,,,,672,0,7,,,,,6,,,43,0
45216,note_off,,,,,672,0,8,,,,,7,,,62,0
45216,note_off,,,,,0,0,8,,,,,7,,,70,0
45216,note_off,,,,,0,0,8,,,,,7,,,67,0
45216,note_off,,,,,672,0,9,,,,,8,,,55,0
45312,note_off,,,,,768,0,4,,,,,3,,,62,0
45312,note_on,,,,,96,0,8,,,,,7,,,64,37
45312,note_on,,,,,0,0,5,,,,,4,,,67,75
45312,note_on,,,,,0,0,2,,,,,1,,,72,75
45312,note_off,,,,,768,0,2,,,,,1,,,62,0
45312,note_on,,,,,0,0,1,,,,,0,,,76,75
45312,note_off,,,,,192,0,1,,,,,0,,,70,0
45312,note_on,,,,,0,0,8,,,,,7,,,67,37
45312,note_on,,,,,0,0,8,,,,,7,,,72,37
45312,note_on,,,,,0,0,3,,,,,2,,,76,92
45312,note_off,,,,,192,0,3,,,,,2,,,70,0
45312,note_on,,,,,96,0,9,,,,,8,,,48,37
45312,note_on,,,,,0,0,4,,,,,3,,,72,92
45312,note_on,,,,,96,0,7,,,,,6,,,36,63
45312,note_off,,,,,768,0,5,,,,,4,,,67,0
45312,note_off,,,,,768,0,6,,,,,5,,,55,0
45312,note_on,,,,,0,0,6,,,,,5,,,48,75
45504,note_off,,,,,192,0,3,,,,,2,,,76,0
45504,note_on,,,,,0,0,3,,,,,2,,,77,92
45504,note_off,,,,,192,0,4,,,,,3,,,72,0
45504,note_on,,,,,0,0,1,,,,,0,,,77,75
45504,note_off,,,,,192,0,1,,,,,0,,,76,0
45504,note_on,,,,,0,0,2,,,,,1,,,74,75
45504,note_off,,,,,192,0,2,,,,,1,,,72,0
45504,note_on,,,,,0,0,4,,,,,3,,,74,92
45696,note_off,,,,,192,0,3,,,,,2,,,77,0
45696,note_on,,,,,0,0,4,,,,,3,,,76,92
45696,note_off,,,,,192,0,1,,,,,0,,,77,0
45696,note_on,,,,,0,0,1,,,,,0,,,79,75
45696,note_off,,,,,192,0,4,,,,,3,,,74,0
45696,note_on,,,,,0,0,3,,,,,2,,,79,92
45696,note_on,,,,,0,0,2,,,,,1,,,76,75
45696,note_off,,,,,192,0,2,,,,,1,,,74,0
45888,note_off,,,,,192,0,3,,,,,2,,,79,0
45888,note_off,,,,,192,0,1,,,,,0,,,79,0
45888,note_on,,,,,0,0,1,,,,,0,,,76,75
45888,note_on,,,,,0,0,3,,,,,2,,,76,92
45888,note_on,,,,,0,0,2,,,,,1,,,72,75
45888,note_off,,,,,192,0,2,,,,,1,,,76,0
45888,note_on,,,,,0,0,4,,,,,3,,,72,92
45888,note_off,,,,,192,0,4,,,,,3,,,76,0
45984,note_off,,,,,672,0,7,,,,,6,,,36,0
45984,note_off,,,,,0,0,8,,,,,7,,,72,0
45984,note_off,,,,,0,0,8,,,,,7,,,67,0
45984,note_off,,,,,672,0,8,,,,,7,,,64,0
45984,note_off,,,,,672,0,9,,,,,8,,,48,0
46080,note_on,,,,,0,0,8,,,,,7,,,72,37
46080,note_on,,,,,0,0,3,,,,,2,,,81,92
46080,note_off,,,,,192,0,3,,,,,2,,,76,0
46080,note_on,,,,,0,0,8,,,,,7,,,69,37
46080,note_on,,,,,0,0,1,,,,,0,,,81,75
46080,note_off,,,,,192,0,1,,,,,0,,,76,0
46080,note_on,,,,,96,0,8,,,,,7,,,65,37
46080,note_on,,,,,96,0,7,,,,,6,,,41,63
46080,note_on,,,,,96,0,9,,,,,8,,,53,37
46080,note_on,,,,,0,0,6,,,,,5,,,53,75
46080,note_off,,,,,768,0,6,,,,,5,,,48,0
46080,note_off,,,,,768,0,5,,,,,4,,,67,0
46080,note_off,,,,,192,0,4,,,,,3,,,72,0
46080,note_on,,,,,0,0,4,,,,,3,,,69,92
46080,note_on,,,,,0,0,2,,,,,1,,,69,75
46080,note_on,,,,,0,0,5,,,,,4,,,65,75
46080,note_off,,,,,192,0,2,,,,,1,,,72,0
46272,note_off,,,,,192,0,1,,,,,0,,,81,0
46272,note_on,,,,,0,0,3,,,,,2,,,77,92
46272,note_off,,,,,192,0,3,,,,,2,,,81,0
46272,note_on,,,,,0,0,1,,,,,0,,,77,75
46400,note_off,,,,,320,0,9,,,,,8,,,53,0
46400,note_off,,,,,320,0,8,,,,,7,,,69,0
46400,note_off,,,,,320,0,7,,,,,6,,,41,0
46400,note_off,,,,,0,0,8,,,,,7,,,72,0
46464,note_on,,,,,64,0,8,,,,,7,,,70,37
46464,note_on,,,,,64,0,9,,,,,8,,,50,37
46464,note_on,,,,,0,0,3,,,,,2,,,82,92
46464,note_on,,,,,0,0,6,,,,,5,,,50,75
46464,note_on,,,,,0,0,4,,,,,3,,,65,92
46464,note_off,,,,,384,0,4,,,,,3,,,69,0
46464,note_off,,,,,384,0,6,,,,,5,,,53,0
46464,note_on,,,,,64,0,7,,,,,6,,,38,63
46464,note_on,,,,,0,0,2,,,,,1,,,65,75
46464,note_off,,,,,192,0,1,,,,,0,,,77,0
46464,note_on,,,,,0,0,1,,,,,0,,,82,75
46464,note_off,,,,,384,0,2,,,,,1,,,69,0
46464,note_off,,,,,192,0,3,,,,,2,,,77,0
46784,note_off,,,,,320,0,9,,,,,8,,,50,0
46784,note_off,,,,,320,0,7,,,,,6,,,38,0
46784,note_off,,,,,320,0,8,,,,,7,,,65,0
46848,note_on,,,,,0,0,4,,,,,3,,,70,92
46848,note_on,,,,,0,0,6,,,,,5,,,55,75
46848,note_on,,,,,0,0,5,,,,,4,,,62,75
46848,note_on,,,,,0,0,2,,,,,1,,,70,75
46848,note_off,,,,,384,0,2,,,,,1,,,65,0
46848,note_off,,,,,384,0,4,,,,,3,,,65,0
46848,note_off,,,,,384,0,6,,,,,5,,,50,0
46848,note_on,,,,,64,0,8,,,,,7,,,62,37
46848,note_off,,,,,768,0,5,,,,,4,,,65,0
46848,note_on,,,,,0,0,8,,,,,7,,,67,37
46848,note_on,,,,,64,0,9,,,,,8,,,55,37
46848,note_on,,,,,64,0,7,,,,,6,,,43,63
47040,note_on,,,,,0,0,3,,,,,2,,,74,92
47040,note_off,,,,,576,0,1,,,,,0,,,82,0
47040,note_on,,,,,0,0,1,,,,,0,,,74,75
47040,note_off,,,,,576,0,3,,,,,2,,,82,0
47232,note_off,,,,,192,0,1,,,,,0,,,74,0
47232,note_on,,,,,0,0,3,,,,,2,,,72,92
47232,note_off,,,,,192,0,3,,,,,2,,,74,0
47232,note_on,,,,,0,0,1,,,,,0,,,72,75
47424,note_on,,,,,0,0,3,,,,,2,,,70,92
47424,note_off,,,,,192,0,3,,,,,2,,,72,0
47424,note_on,,,,,0,0,1,,,,,0,,,70,75
47424,note_off,,,,,192,0,1,,,,,0,,,72,0
47520,note_off,,,,,0,0,8,,,,,7,,,62,0
47520,note_off,,,,,0,0,8,,,,,7,,,67,0
47520,note_off,,,,,672,0,8,,,,,7,,,70,0
47520,note_off,,,,,672,0,7,,,,,6,,,43,0
47520,note_off,,,,,672,0,9,,,,,8,,,55,0
47616,note_off,,,,,768,0,6,,,,,5,,,55,0
47616,note_on,,,,,0,0,8,,,,,7,,,70,37
47616,note_on,,,,,0,0,6,,,,,5,,,52,75
47616,note_on,,,,,96,0,9,,,,,8,,,52,37
47616,note_on,,,,,0,0,3,,,,,2,,,72,92
47616,note_on,,,,,0,0,8,,,,,7,,,67,37
47616,note_on,,,,,0,0,5,,,,,4,,,67,75
47616,note_on,,,,,0,0,4,,,,,3,,,70,92
47616,note_off,,,,,768,0,4,,,,,3,,,70,0
47616,note_on,,,,,0,0,2,,,,,1,,,70,75
47616,note_on,,,,,96,0,7,,,,,6,,,40,63
47616,note_off,,,,,192,0,3,,,,,2,,,70,0
47616,note_on,,,,,96,0,8,,,,,7,,,60,37
47616,note_off,,,,,192,0,1,,,,,0,,,70,0
47616,note_off,,,,,768,0,2,,,,,1,,,70,0
47616,note_off,,,,,768,0,5,,,,,4,,,62,0
47616,note_on,,,,,0,0,1,,,,,0,,,72,75
47808,note_on,,,,,0,0,3,,,,,2,,,82,92
47808,note_off,,,,,192,0,1,,,,,0,,,72,0
47808,note_on,,,,,0,0,1,,,,,0,,,82,75
47808,note_off,,,,,192,0,3,,,,,2,,,72,0
48000,note_on,,,,,0,0,1,,,,,0,,,81,75
48000,note_off,,,,,192,0,1,,,,,0,,,82,0
48000,note_on,,,,,0,0,3,,,,,2,,,81,92
48000,note_off,,,,,192,0,3,,,,,2,,,82,0
48192,note_on,,,,,0,0,3,,,,,2,,,79,92
48192,note_off,,,,,192,0,1,,,,,0,,,81,0
48192,note_on,,,,,0,0,1,,,,,0,,,79,75
48192,note_off,,,,,192,0,3,,,,,2,,,81,0
48288,note_off,,,,,672,0,9,,,,,8,,,52,0
48288,note_off,,,,,0,0,8,,,,,7,,,70,0
48288,note_off,,,,,672,0,7,,,,,6,,,40,0
48288,note_off,,,,,0,0,8,,,,,7,,,67,0
48288,note_off,,,,,672,0,8,,,,,7,,,60,0
48384,note_on,,,,,0,0,1,,,,,0,,,81,75
48384,note_on,,,,,0,0,8,,,,,7,,,69,37
48384,note_on,,,,,96,0,7,,,,,6,,,41,63
48384,note_on,,,,,0,0,5,,,,,4,,,65,75
48384,note_on,,,,,0,0,6,,,,,5,,,53,75
48384,note_on,,,,,0,0,3,,,,,2,,,81,92
48384,note_off,,,,,768,0,4,,,,,3,,,70,0
48384,note_on,,,,,0,0,8,,,,,7,,,65,37
48384,note_on,,,,,0,0,4,,,,,3,,,69,92
48384,note_off,,,,,192,0,1,,,,,0,,,79,0
48384,note_off,,,,,768,0,5,,,,,4,,,67,0
48384,note_off,,,,,768,0,2,,,,,1,,,70,0
48384,note_off,,,,,768,0,6,,,,,5,,,52,0
48384,note_on,,,,,0,0,2,,,,,1,,,69,75
48384,note_on,,,,,96,0,9,,,,,8,,,53,37
48384,note_off,,,,,192,0,3,,,,,2,,,79,0
48384,note_on,,,,,96,0,8,,,,,7,,,60,37
48576,note_off,,,,,192,0,1,,,,,0,,,81,0
48576,note_on,,,,,0,0,3,,,,,2,,,77,92
48576,note_on,,,,,0,0,1,,,,,0,,,77,75
48576,note_off,,,,,192,0,3,,,,,2,,,81,0
48704,note_off,,,,,0,0,8,,,,,7,,,69,0
48704,note_off,,,,,320,0,8,,,,,7,,,60,0
48704,note_off,,,,,0,0,8,,,,,7,,,65,0
48704,note_off,,,,,320,0,7,,,,,6,,,41,0
48704,note_off,,,,,320,0,9,,,,,8,,,53,0
48768,note_on,,,,,0,0,4,,,,,3,,,70,92
48768,note_on,,,,,0,0,5,,,,,4,,,74,75
48768,note_off,,,,,384,0,5,,,,,4,,,65,0
48768,note_on,,,,,0,0,3,,,,,2,,,79,92
48768,note_on,,,,,0,0,8,,,,,7,,,70,37
48768,note_on,,,,,0,0,8,,,,,7,,,67,37
48768,note_on,,,,,64,0,8,,,,,7,,,62,37
48768,note_off,,,,,192,0,3,,,,,2,,,77,0
48768,note_on,,,,,0,0,2,,,,,1,,,70,75
48768,note_off,,,,,384,0,2,,,,,1,,,69,0
48768,note_on,,,,,64,0,9,,,,,8,,,46,37
48768,note_off,,,,,192,0,1,,,,,0,,,77,0
48768,note_on,,,,,64,0,7,,,,,6,,,34,63
48768,note_on,,,,,0,0,6,,,,,5,,,46,75
48768,note_off,,,,,384,0,6,,,,,5,,,53,0
48768,note_on,,,,,0,0,1,,,,,0,,,79,75
48768,note_off,,,,,384,0,4,,,,,3,,,69,0
48960,note_off,,,,,192,0,3,,,,,2,,,79,0
48960,note_on,,,,,0,0,3,,,,,2,,,74,92
48960,note_on,,,,,0,0,1,,,,,0,,,74,75
48960,note_off,,,,,192,0,1,,,,,0,,,79,0
49088,note_off,,,,,320,0,9,,,,,8,,,46,0
49088,note_off,,,,,320,0,7,,,,,6,,,34,0
49088,note_off,,,,,320,0,8,,,,,7,,,62,0
49088,note_off,,,,,0,0,8,,,,,7,,,67,0
49088,note_off,,,,,0,0,8,,,,,7,,,70,0
49152,note_on,,,,,0,0,5,,,,,4,,,72,75
49152,note_on,,,,,0,0,2,,,,,1,,,67,75
49152,note_off,,,,,192,0,1,,,,,0,,,74,0
49152,note_off,,,,,384,0,6,,,,,5,,,46,0
49152,note_on,,,,,0,0,1,,,,,0,,,77,75
49152,note_on,,,,,64,0,7,,,,,6,,,36,63
49152,note_on,,,,,64,0,8,,,,,7,,,64,37
49152,note_on,,,,,64,0,9,,,,,8,,,48,37
49152,note_on,,,,,0,0,6,,,,,5,,,48,75
49152,note_off,,,,,384,0,4,,,,,3,,,70,0
49152,note_off,,,,,384,0,5,,,,,4,,,74,0
49152,note_on,,,,,0,0,8,,,,,7,,,67,37
49152,note_off,,,,,192,0,3,,,,,2,,,74,0
49152,note_on,,,,,0,0,3,,,,,2,,,77,92
49152,note_on,,,,,0,0,4,,,,,3,,,67,92
49152,note_off,,,,,384,0,2,,,,,1,,,70,0
49248,note_on,,,,,0,0,3,,,,,2,,,76,92
49248,note_off,,,,,96,0,3,,,,,2,,,77,0
49248,note_off,,,,,96,0,1,,,,,0,,,77,0
49248,note_on,,,,,0,0,1,,,,,0,,,76,75
49296,note_on,,,,,0,0,3,,,,,2,,,77,92
49296,note_off,,,,,48,0,3,,,,,2,,,76,0
49296,note_off,,,,,48,0,1,,,,,0,,,76,0
49296,note_on,,,,,0,0,1,,,,,0,,,77,75
49344,note_off,,,,,48,0,3,,,,,2,,,77,0
49344,note_off,,,,,48,0,1,,,,,0,,,77,0
49344,note_on,,,,,0,0,1,,,,,0,,,77,75
49344,note_on,,,,,0,0,3,,,,,2,,,77,92
49392,note_off,,,,,48,0,1,,,,,0,,,77,0
49392,note_off,,,,,48,0,3,,,,,2,,,77,0
49392,note_on,,,,,0,0,3,,,,,2,,,76,92
49392,note_on,,,,,0,0,1,,,,,0,,,76,75
49440,note_off,,,,,48,0,1,,,,,0,,,76,0
49440,note_on,,,,,0,0,1,,,,,0,,,77,75
49440,note_off,,,,,48,0,3,,,,,2,,,76,0
49440,note_on,,,,,0,0,3,,,,,2,,,77,92
49488,note_on,,,,,0,0,1,,,,,0,,,76,75
49488,note_off,,,,,48,0,1,,,,,0,,,77,0
49488,note_on,,,,,0,0,3,,,,,2,,,76,92
49488,note_off,,,,,48,0,3,,,,,2,,,77,0
49536,note_on,,,,,0,0,3,,,,,2,,,77,92
49536,note_off,,,,,48,0,1,,,,,0,,,76,0
49536,note_on,,,,,0,0,1,,,,,0,,,77,75
49536,note_off,,,,,48,0,3,,,,,2,,,76,0
49584,note_on,,,,,0,0,3,,,,,2,,,76,92
49584,note_on,,,,,0,0,1,,,,,0,,,76,75
49584,note_off,,,,,48,0,3,,,,,2,,,77,0
49584,note_off,,,,,48,0,1,,,,,0,,,77,0
49632,note_off,,,,,48,0,1,,,,,0,,,76,0
49632,note_off,,,,,48,0,3,,,,,2,,,76,0
49632,note_on,,,,,0,0,3,,,,,2,,,77,92
49632,note_on,,,,,0,0,1,,,,,0,,,77,75
49680,note_off,,,,,48,0,1,,,,,0,,,77,0
49680,note_off,,,,,48,0,3,,,,,2,,,77,0
49680,note_on,,,,,0,0,3,,,,,2,,,76,92
49680,note_on,,,,,0,0,1,,,,,0,,,76,75
49728,note_on,,,,,0,0,3,,,,,2,,,77,92
49728,note_off,,,,,48,0,1,,,,,0,,,76,0
49728,note_on,,,,,0,0,1,,,,,0,,,77,75
49728,note_off,,,,,48,0,3,,,,,2,,,76,0
49776,note_off,,,,,48,0,3,,,,,2,,,77,0
49776,note_on,,,,,0,0,3,,,,,2,,,76,92
49776,note_off,,,,,48,0,1,,,,,0,,,77,0
49776,note_on,,,,,0,0,1,,,,,0,,,76,75
49824,note_off,,,,,0,0,8,,,,,7,,,67,0
49824,note_on,,,,,0,0,1,,,,,0,,,77,75
49824,note_off,,,,,48,0,1,,,,,0,,,76,0
49824,note_off,,,,,48,0,3,,,,,2,,,76,0
49824,note_on,,,,,0,0,3,,,,,2,,,77,92
49824,note_off,,,,,672,0,8,,,,,7,,,64,0
49824,note_off,,,,,672,0,9,,,,,8,,,48,0
49824,note_off,,,,,672,0,7,,,,,6,,,36,0
49872,note_on,,,,,0,0,3,,,,,2,,,76,92
49872,note_off,,,,,48,0,1,,,,,0,,,77,0
49872,note_on,,,,,0,0,1,,,,,0,,,76,75
49872,note_off,,,,,48,0,3,,,,,2,,,77,0
49920,note_on,,,,,0,0,6,,,,,5,,,36,75
49920,note_on,,,,,96,0,7,,,,,6,,,24,63
49920,note_on,,,,,96,0,8,,,,,7,,,64,37
49920,note_off,,,,,768,0,5,,,,,4,,,72,0
49920,note_on,,,,,0,0,5,,,,,4,,,67,75
49920,note_on,,,,,0,0,8,,,,,7,,,72,37
49920,note_on,,,,,96,0,9,,,,,8,,,36,37
49920,note_off,,,,,768,0,6,,,,,5,,,48,0
49920,note_on,,,,,0,0,8,,,,,7,,,67,37
49920,note_on,,,,,0,0,2,,,,,1,,,72,75
49920,note_off,,,,,768,0,2,,,,,1,,,67,0
49920,note_off,,,,,768,0,4,,,,,3,,,67,0
49920,note_on,,,,,0,0,4,,,,,3,,,72,92
50304,note_off,,,,,432,0,1,,,,,0,,,76,0
50304,note_off,,,,,432,0,3,,,,,2,,,76,0
50304,note_on,,,,,0,0,3,,,,,2,,,77,92
50304,note_on,,,,,0,0,1,,,,,0,,,77,75
50592,note_off,,,,,0,0,8,,,,,7,,,72,0
50592,note_off,,,,,672,0,8,,,,,7,,,64,0
50592,note_off,,,,,672,0,7,,,,,6,,,24,0
50592,note_off,,,,,0,0,8,,,,,7,,,67,0
50592,note_off,,,,,672,0,9,,,,,8,,,36,0
50688,note_off,,,,,768,0,5,,,,,4,,,67,0
50688,note_on,,,,,96,0,7,,,,,6,,,29,63
50688,note_on,,,,,0,0,3,,,,,2,,,77,92
50688,note_off,,,,,384,0,3,,,,,2,,,77,0
50688,note_on,,,,,0,0,6,,,,,5,,,41,75
50688,note_off,,,,,768,0,6,,,,,5,,,36,0
50688,note_off,,,,,768,0,2,,,,,1,,,72,0
50688,note_off,,,,,768,0,4,,,,,3,,,72,0
50688,note_on,,,,,0,0,2,,,,,1,,,72,75
50688,note_on,,,,,96,0,9,,,,,8,,,41,37
50688,note_on,,,,,0,0,8,,,,,7,,,69,37
50688,note_on,,,,,0,0,8,,,,,7,,,65,37
50688,note_on,,,,,96,0,8,,,,,7,,,60,37
50688,note_off,,,,,384,0,1,,,,,0,,,77,0
50688,note_on,,,,,0,0,1,,,,,0,,,77,75
50688,note_on,,,,,0,0,4,,,,,3,,,72,92
50688,note_on,,,,,0,0,5,,,,,4,,,69,75
50880,note_on,,,,,0,0,1,,,,,0,,,72,75
50880,note_off,,,,,192,0,3,,,,,2,,,77,0
50880,note_on,,,,,0,0,3,,,,,2,,,72,92
50880,note_off,,,,,192,0,1,,,,,0,,,77,0
51072,note_on,,,,,0,0,1,,,,,0,,,69,75
51072,note_off,,,,,192,0,1,,,,,0,,,72,0
51072,note_off,,,,,192,0,3,,,,,2,,,72,0
51072,note_on,,,,,0,0,3,,,,,2,,,69,92
51360,note_off,,,,,672,0,9,,,,,8,,,41,0
51360,note_off,,,,,0,0,8,,,,,7,,,69,0
51360,note_off,,,,,672,0,7,,,,,6,,,29,0
51360,note_off,,,,,0,0,8,,,,,7,,,65,0
51360,note_off,,,,,672,0,8,,,,,7,,,60,0
51456,note_on,,,,,0,0,5,,,,,4,,,60,75
51456,note_off,,,,,768,0,4,,,,,3,,,72,0
51456,note_on,,,,,96,0,8,,,,,7,,,60,37
51456,note_on,,,,,0,0,6,,,,,5,,,53,75
51456,note_off,,,,,768,0,6,,,,,5,,,41,0
51456,note_on,,,,,0,0,8,,,,,7,,,65,37
51456,note_on,,,,,0,0,8,,,,,7,,,69,37
51456,note_on,,,,,96,0,9,,,,,8,,,53,37
51456,note_off,,,,,768,0,5,,,,,4,,,69,0
51456,note_off,,,,,768,0,2,,,,,1,,,72,0
51456,note_on,,,,,0,0,2,,,,,1,,,65,75
51456,note_on,,,,,96,0,7,,,,,6,,,41,63
51456,note_on,,,,,0,0,4,,,,,3,,,65,92
51648,note_on,,,,,0,0,3,,,,,2,,,72,92
51648,note_off,,,,,576,0,1,,,,,0,,,69,0
51648,note_on,,,,,0,0,1,,,,,0,,,72,75
51648,note_off,,,,,576,0,3,,,,,2,,,69,0
51776,note_off,,,,,320,0,8,,,,,7,,,60,0
51776,note_off,,,,,0,0,8,,,,,7,,,65,0
51776,note_off,,,,,0,0,8,,,,,7,,,69,0
51776,note_off,,,,,320,0,7,,,,,6,,,41,0
51776,note_off,,,,,320,0,9,,,,,8,,,53,0
51840,note_on,,,,,0,0,1,,,,,0,,,65,75
51840,note_off,,,,,192,0,1,,,,,0,,,72,0
51840,note_off,,,,,192,0,3,,,,,2,,,72,0
51840,note_on,,,,,0,0,3,,,,,2,,,65,92
51840,note_on,,,,,64,0,7,,,,,6,,,45,63
51840,note_on,,,,,64,0,9,,,,,8,,,57,37
51840,note_on,,,,,0,0,6,,,,,5,,,57,75
51840,note_on,,,,,64,0,8,,,,,7,,,60,37
51840,note_on,,,,,0,0,8,,,,,7,,,65,37
51840,note_off,,,,,384,0,6,,,,,5,,,53,0
52160,note_off,,,,,320,0,9,,,,,8,,,57,0
52160,note_off,,,,,320,0,7,,,,,6,,,45,0
52160,note_off,,,,,320,0,8,,,,,7,,,60,0
52160,note_off,,,,,0,0,8,,,,,7,,,65,0
52224,note_off,,,,,384,0,6,,,,,5,,,57,0
52224,note_on,,,,,0,0,6,,,,,5,,,58,75
52224,note_off,,,,,768,0,5,,,,,4,,,60,0
52224,note_on,,,,,0,0,5,,,,,4,,,62,75
52224,note_on,,,,,64,0,9,,,,,8,,,58,37
52224,note_on,,,,,64,0,7,,,,,6,,,46,63
52224,note_on,,,,,0,0,8,,,,,7,,,65,37
52224,note_on,,,,,64,0,8,,,,,7,,,62,37
52416,note_off,,,,,576,0,1,,,,,0,,,65,0
52416,note_on,,,,,0,0,1,,,,,0,,,74,75
52416,note_off,,,,,576,0,3,,,,,2,,,65,0
52416,note_on,,,,,0,0,3,,,,,2,,,74,92
52544,note_off,,,,,320,0,8,,,,,7,,,65,0
52544,note_off,,,,,320,0,7,,,,,6,,,46,0
52608,note_off,,,,,384,0,6,,,,,5,,,58,0
52608,note_on,,,,,0,0,6,,,,,5,,,46,75
52608,note_on,,,,,384,0,9,,,,,8,,,46,37
52608,note_on,,,,,0,0,4,,,,,3,,,67,92
52608,note_off,,,,,192,0,3,,,,,2,,,74,0
52608,note_on,,,,,64,0,8,,,,,7,,,67,37
52608,note_off,,,,,1152,0,2,,,,,1,,,65,0
52608,note_on,,,,,0,0,2,,,,,1,,,67,75
52608,note_off,,,,,192,0,1,,,,,0,,,74,0
52608,note_on,,,,,0,0,1,,,,,0,,,72,75
52608,note_off,,,,,1152,0,4,,,,,3,,,65,0
52608,note_on,,,,,0,0,3,,,,,2,,,72,92
52608,note_on,,,,,64,0,7,,,,,6,,,34,63
52800,note_off,,,,,192,0,1,,,,,0,,,72,0
52800,note_on,,,,,0,0,1,,,,,0,,,70,75
52800,note_off,,,,,576,0,5,,,,,4,,,62,0
52800,note_on,,,,,0,0,5,,,,,4,,,64,75
52800,note_off,,,,,192,0,3,,,,,2,,,72,0
52800,note_on,,,,,0,0,3,,,,,2,,,70,92
52896,note_off,,,,,288,0,8,,,,,7,,,62,0
52928,note_off,,,,,32,0,8,,,,,7,,,67,0
52928,note_off,,,,,320,0,9,,,,,8,,,58,0
52928,note_off,,,,,0,0,9,,,,,8,,,46,0
52928,note_off,,,,,320,0,7,,,,,6,,,34,0
52992,note_on,,,,,0,0,4,,,,,3,,,60,92
52992,note_on,,,,,0,0,8,,,,,7,,,69,37
52992,note_off,,,,,384,0,4,,,,,3,,,67,0
52992,note_on,,,,,64,0,9,,,,,8,,,53,37
52992,note_off,,,,,384,0,2,,,,,1,,,67,0
52992,note_on,,,,,64,0,8,,,,,7,,,60,37
52992,note_on,,,,,0,0,9,,,,,8,,,57,37
52992,note_on,,,,,0,0,2,,,,,1,,,60,75
52992,note_on,,,,,0,0,1,,,,,0,,,69,75
52992,note_on,,,,,0,0,6,,,,,5,,,53,75
52992,note_off,,,,,384,0,6,,,,,5,,,46,0
52992,note_on,,,,,0,0,5,,,,,4,,,65,75
52992,note_off,,,,,192,0,5,,,,,4,,,64,0
52992,note_off,,,,,192,0,3,,,,,2,,,70,0
52992,note_on,,,,,0,0,3,,,,,2,,,69,92
52992,note_off,,,,,192,0,1,,,,,0,,,70,0
52992,note_on,,,,,64,0,7,,,,,6,,,41,63
53184,note_off,,,,,192,0,3,,,,,2,,,69,0
53184,note_off,,,,,192,0,1,,,,,0,,,69,0
53184,note_on,,,,,0,0,1,,,,,0,,,72,75
53184,note_on,,,,,0,0,3,,,,,2,,,72,92
53376,note_on,,,,,0,0,1,,,,,0,,,65,75
53376,note_on,,,,,0,0,3,,,,,2,,,65,92
53376,note_off,,,,,192,0,3,,,,,2,,,72,0
53376,note_off,,,,,192,0,1,,,,,0,,,72,0
53664,note_off,,,,,672,0,9,,,,,8,,,53,0
53664,note_off,,,,,0,0,9,,,,,8,,,57,0
53664,note_off,,,,,672,0,8,,,,,7,,,60,0
53664,note_off,,,,,0,0,8,,,,,7,,,69,0
53664,note_off,,,,,672,0,7,,,,,6,,,41,0
53760,note_on,,,,,96,0,7,,,,,6,,,38,63
53760,note_off,,,,,768,0,4,,,,,3,,,60,0
53760,note_on,,,,,0,0,2,,,,,1,,,62,75
53760,note_off,,,,,768,0,2,,,,,1,,,60,0
53760,note_on,,,,,0,0,6,,,,,5,,,50,75
53760,note_off,,,,,768,0,6,,,,,5,,,53,0
53760,note_on,,,,,0,0,4,,,,,3,,,62,92
53760,note_on,,,,,0,0,8,,,,,7,,,65,37
53760,note_off,,,,,768,0,5,,,,,4,,,65,0
53760,note_on,,,,,96,0,8,,,,,7,,,62,37
53760,note_on,,,,,0,0,5,,,,,4,,,53,75
53760,note_on,,,,,96,0,9,,,,,8,,,50,37
53760,note_on,,,,,0,0,9,,,,,8,,,58,37
53952,note_off,,,,,576,0,3,,,,,2,,,65,0
53952,note_off,,,,,576,0,1,,,,,0,,,65,0
53952,note_on,,,,,0,0,3,,,,,2,,,70,92
53952,note_on,,,,,0,0,1,,,,,0,,,70,75
54080,note_off,,,,,0,0,9,,,,,8,,,58,0
54080,note_off,,,,,320,0,7,,,,,6,,,38,0
54080,note_off,,,,,320,0,8,,,,,7,,,62,0
54080,note_off,,,,,320,0,9,,,,,8,,,50,0
54080,note_off,,,,,0,0,8,,,,,7,,,65,0
54144,note_off,,,,,192,0,1,,,,,0,,,70,0
54144,note_off,,,,,384,0,4,,,,,3,,,62,0
54144,note_off,,,,,384,0,2,,,,,1,,,62,0
54144,note_on,,,,,64,0,7,,,,,6,,,40,63
54144,note_on,,,,,0,0,9,,,,,8,,,55,37
54144,note_on,,,,,0,0,1,,,,,0,,,67,75
54144,note_on,,,,,0,0,6,,,,,5,,,52,75
54144,note_off,,,,,384,0,6,,,,,5,,,50,0
54144,note_on,,,,,0,0,5,,,,,4,,,60,75
54144,note_off,,,,,384,0,5,,,,,4,,,53,0
54144,note_on,,,,,0,0,2,,,,,1,,,67,75
54144,note_on,,,,,64,0,8,,,,,7,,,60,37
54144,note_off,,,,,192,0,3,,,,,2,,,70,0
54144,note_on,,,,,0,0,3,,,,,2,,,67,92
54144,note_on,,,,,0,0,8,,,,,7,,,67,37
54144,note_on,,,,,0,0,4,,,,,3,,,67,92
54144,note_on,,,,,64,0,9,,,,,8,,,52,37
54464,note_off,,,,,320,0,9,,,,,8,,,52,0
54464,note_off,,,,,0,0,9,,,,,8,,,55,0
54464,note_off,,,,,320,0,7,,,,,6,,,40,0
54528,note_on,,,,,64,0,7,,,,,6,,,41,63
54528,note_on,,,,,0,0,4,,,,,3,,,60,92
54528,note_on,,,,,0,0,2,,,,,1,,,60,75
54528,note_on,,,,,64,0,9,,,,,8,,,53,37
54528,note_off,,,,,384,0,4,,,,,3,,,67,0
54528,note_on,,,,,0,0,6,,,,,5,,,53,75
54528,note_on,,,,,384,0,8,,,,,7,,,57,37
54528,note_on,,,,,0,0,5,,,,,4,,,57,75
54528,note_off,,,,,384,0,5,,,,,4,,,60,0
54528,note_off,,,,,384,0,2,,,,,1,,,67,0
54528,note_off,,,,,384,0,6,,,,,5,,,52,0
54720,note_on,,,,,0,0,3,,,,,2,,,69,92
54720,note_on,,,,,0,0,1,,,,,0,,,69,75
54720,note_off,,,,,576,0,1,,,,,0,,,67,0
54720,note_off,,,,,576,0,3,,,,,2,,,67,0
54848,note_off,,,,,320,0,7,,,,,6,,,41,0
54848,note_off,,,,,320,0,8,,,,,7,,,67,0
54848,note_off,,,,,320,0,9,,,,,8,,,53,0
54912,note_on,,,,,64,0,8,,,,,7,,,65,37
54912,note_off,,,,,192,0,1,,,,,0,,,69,0
54912,note_on,,,,,0,0,1,,,,,0,,,65,75
54912,note_on,,,,,0,0,3,,,,,2,,,65,92
54912,note_on,,,,,64,0,9,,,,,8,,,45,37
54912,note_off,,,,,192,0,3,,,,,2,,,69,0
54912,note_off,,,,,384,0,6,,,,,5,,,53,0
54912,note_on,,,,,0,0,6,,,,,5,,,45,75
54912,note_on,,,,,64,0,7,,,,,6,,,33,63
55200,note_off,,,,,0,0,8,,,,,7,,,57,0
55200,note_off,,,,,288,0,8,,,,,7,,,60,0
55232,note_off,,,,,320,0,9,,,,,8,,,45,0
55232,note_off,,,,,32,0,8,,,,,7,,,65,0
55232,note_off,,,,,320,0,7,,,,,6,,,33,0
55296,note_on,,,,,64,0,8,,,,,7,,,55,37
55296,note_on,,,,,0,0,2,,,,,1,,,62,75
55296,note_on,,,,,0,0,5,,,,,4,,,58,75
55296,note_on,,,,,64,0,9,,,,,8,,,46,37
55296,note_off,,,,,768,0,5,,,,,4,,,57,0
55296,note_off,,,,,768,0,4,,,,,3,,,60,0
55296,note_on,,,,,0,0,4,,,,,3,,,62,92
55296,note_on,,,,,0,0,6,,,,,5,,,46,75
55296,note_off,,,,,384,0,1,,,,,0,,,65,0
55296,note_on,,,,,0,0,8,,,,,7,,,62,37
55296,note_on,,,,,0,0,1,,,,,0,,,67,75
55296,note_on,,,,,0,0,3,,,,,2,,,67,92
55296,note_off,,,,,384,0,3,,,,,2,,,65,0
55296,note_off,,,,,384,0,6,,,,,5,,,45,0
55296,note_on,,,,,0,0,8,,,,,7,,,65,37
55296,note_on,,,,,64,0,7,,,,,6,,,34,63
55296,note_off,,,,,768,0,2,,,,,1,,,60,0
55680,note_on,,,,,0,0,3,,,,,2,,,62,92
55680,note_off,,,,,384,0,3,,,,,2,,,67,0
55680,note_on,,,,,0,0,1,,,,,0,,,62,75
55680,note_off,,,,,384,0,1,,,,,0,,,67,0
55968,note_off,,,,,672,0,9,,,,,8,,,46,0
55968,note_off,,,,,672,0,8,,,,,7,,,55,0
55968,note_off,,,,,0,0,8,,,,,7,,,62,0
55968,note_off,,,,,0,0,8,,,,,7,,,65,0
55968,note_off,,,,,672,0,7,,,,,6,,,34,0
56064,note_on,,,,,96,0,8,,,,,7,,,55,37
56064,note_off,,,,,768,0,6,,,,,5,,,46,0
56064,note_on,,,,,0,0,6,,,,,5,,,48,75
56064,note_off,,,,,768,0,5,,,,,4,,,58,0
56064,note_on,,,,,0,0,3,,,,,2,,,65,92
56064,note_off,,,,,384,0,1,,,,,0,,,62,0
56064,note_on,,,,,0,0,1,,,,,0,,,65,75
56064,note_on,,,,,96,0,7,,,,,6,,,36,63
56064,note_on,,,,,0,0,5,,,,,4,,,55,75
56064,note_on,,,,,0,0,8,,,,,7,,,60,37
56064,note_on,,,,,0,0,8,,,,,7,,,64,37
56064,note_off,,,,,768,0,2,,,,,1,,,62,0
56064,note_on,,,,,0,0,2,,,,,1,,,60,75
56064,note_on,,,,,96,0,9,,,,,8,,,48,37
56064,note_off,,,,,768,0,4,,,,,3,,,62,0
56064,note_off,,,,,384,0,3,,,,,2,,,62,0
56064,note_on,,,,,0,0,4,,,,,3,,,60,92
56160,note_on,,,,,0,0,1,,,,,0,,,64,75
56160,note_off,,,,,96,0,1,,,,,0,,,65,0
56160,note_off,,,,,96,0,3,,,,,2,,,65,0
56160,note_on,,,,,0,0,3,,,,,2,,,64,92
56208,note_on,,,,,0,0,3,,,,,2,,,65,92
56208,note_off,,,,,48,0,3,,,,,2,,,64,0
56208,note_off,,,,,48,0,1,,,,,0,,,64,0
56208,note_on,,,,,0,0,1,,,,,0,,,65,75
56256,note_off,,,,,48,0,3,,,,,2,,,65,0
56256,note_on,,,,,0,0,3,,,,,2,,,65,92
56256,note_on,,,,,0,0,1,,,,,0,,,65,75
56256,note_off,,,,,48,0,1,,,,,0,,,65,0
56304,note_off,,,,,48,0,1,,,,,0,,,65,0
56304,note_on,,,,,0,0,1,,,,,0,,,64,75
56304,note_off,,,,,48,0,3,,,,,2,,,65,0
56304,note_on,,,,,0,0,3,,,,,2,,,64,92
56352,note_off,,,,,48,0,1,,,,,0,,,64,0
56352,note_off,,,,,48,0,3,,,,,2,,,64,0
56352,note_on,,,,,0,0,3,,,,,2,,,65,92
56352,note_on,,,,,0,0,1,,,,,0,,,65,75
56400,note_on,,,,,0,0,3,,,,,2,,,64,92
56400,note_off,,,,,48,0,3,,,,,2,,,65,0
56400,note_off,,,,,48,0,1,,,,,0,,,65,0
56400,note_on,,,,,0,0,1,,,,,0,,,64,75
56448,note_off,,,,,48,0,3,,,,,2,,,64,0
56448,note_off,,,,,48,0,1,,,,,0,,,64,0
56448,note_on,,,,,0,0,1,,,,,0,,,65,75
56448,note_on,,,,,0,0,3,,,,,2,,,65,92
56496,note_on,,,,,0,0,1,,,,,0,,,64,75
56496,note_on,,,,,0,0,3,,,,,2,,,64,92
56496,note_off,,,,,48,0,3,,,,,2,,,65,0
56496,note_off,,,,,48,0,1,,,,,0,,,65,0
56544,note_off,,,,,48,0,1,,,,,0,,,64,0
56544,note_on,,,,,0,0,1,,,,,0,,,65,75
56544,note_off,,,,,48,0,3,,,,,2,,,64,0
56544,note_on,,,,,0,0,3,,,,,2,,,65,92
56592,note_off,,,,,48,0,1,,,,,0,,,65,0
56592,note_off,,,,,48,0,3,,,,,2,,,65,0
56592,note_on,,,,,0,0,1,,,,,0,,,64,75
56592,note_on,,,,,0,0,3,,,,,2,,,64,92
56640,note_on,,,,,0,0,1,,,,,0,,,65,75
56640,note_off,,,,,48,0,1,,,,,0,,,64,0
56640,note_on,,,,,0,0,3,,,,,2,,,65,92
56640,note_off,,,,,48,0,3,,,,,2,,,64,0
56688,note_on,,,,,0,0,1,,,,,0,,,64,75
56688,note_off,,,,,48,0,1,,,,,0,,,65,0
56688,note_on,,,,,0,0,3,,,,,2,,,64,92
56688,note_off,,,,,48,0,3,,,,,2,,,65,0
56736,note_on,,,,,0,0,1,,,,,0,,,65,75
56736,note_off,,,,,48,0,1,,,,,0,,,64,0
56736,note_off,,,,,672,0,9,,,,,8,,,48,0
56736,note_off,,,,,672,0,7,,,,,6,,,36,0
56736,note_off,,,,,48,0,3,,,,,2,,,64,0
56736,note_on,,,,,0,0,3,,,,,2,,,65,92
56784,note_off,,,,,48,0,3,,,,,2,,,65,0
56784,note_on,,,,,0,0,1,,,,,0,,,64,75
56784,note_on,,,,,0,0,3,,,,,2,,,64,92
56784,note_off,,,,,48,0,1,,,,,0,,,65,0
56832,note_off,,,,,768,0,6,,,,,5,,,48,0
56832,note_on,,,,,96,0,7,,,,,6,,,24,63
56832,note_on,,,,,0,0,6,,,,,5,,,36,75
56832,note_off,,,,,768,0,5,,,,,4,,,55,0
56832,note_on,,,,,0,0,5,,,,,4,,,60,75
56832,note_on,,,,,96,0,9,,,,,8,,,36,37
57216,note_off,,,,,432,0,3,,,,,2,,,64,0
57216,note_on,,,,,0,0,2,,,,,1,,,58,75
57216,note_off,,,,,432,0,1,,,,,0,,,64,0
57216,note_on,,,,,0,0,4,,,,,3,,,58,92
57216,note_off,,,,,1152,0,4,,,,,3,,,60,0
57216,note_on,,,,,0,0,1,,,,,0,,,65,75
57216,note_on,,,,,0,0,3,,,,,2,,,65,92
57216,note_off,,,,,1152,0,2,,,,,1,,,60,0
57504,note_off,,,,,1440,0,8,,,,,7,,,55,0
57504,note_off,,,,,672,0,7,,,,,6,,,24,0
57504,note_off,,,,,0,0,8,,,,,7,,,60,0
57504,note_off,,,,,672,0,9,,,,,8,,,36,0
57504,note_off,,,,,0,0,8,,,,,7,,,64,0
57600,note_on,,,,,0,0,1,,,,,0,,,65,75
57600,note_off,,,,,384,0,1,,,,,0,,,65,0
57600,note_on,,,,,0,0,6,,,,,5,,,41,75
57600,note_on,,,,,0,0,5,,,,,4,,,60,75
57600,note_off,,,,,768,0,5,,,,,4,,,60,0
57600,note_off,,,,,384,0,2,,,,,1,,,58,0
57600,note_off,,,,,768,0,6,,,,,5,,,36,0
57600,note_on,,,,,0,0,8,,,,,7,,,65,37
57600,note_on,,,,,0,0,3,,,,,2,,,65,92
57600,note_off,,,,,384,0,3,,,,,2,,,65,0
57600,note_on,,,,,96,0,9,,,,,8,,,41,37
57600,note_on,,,,,96,0,7,,,,,6,,,29,63
57600,note_on,,,,,0,0,2,,,,,1,,,57,75
57600,note_on,,,,,96,0,8,,,,,7,,,57,37
57600,note_off,,,,,384,0,4,,,,,3,,,58,0
57600,note_on,,,,,0,0,4,,,,,3,,,57,92
57920,note_off,,,,,320,0,9,,,,,8,,,41,0
57920,note_off,,,,,320,0,7,,,,,6,,,29,0
57920,note_off,,,,,320,0,8,,,,,7,,,57,0
57984,note_on,,,,,0,0,4,,,,,3,,,62,92
57984,note_off,,,,,384,0,2,,,,,1,,,57,0
57984,note_on,,,,,64,0,9,,,,,8,,,46,37
57984,note_off,,,,,384,0,4,,,,,3,,,57,0
57984,note_off,,,,,384,0,6,,,,,5,,,41,0
57984,note_on,,,,,0,0,6,,,,,5,,,46,75
57984,note_on,,,,,64,0,8,,,,,7,,,62,37
57984,note_on,,,,,0,0,2,,,,,1,,,62,75
57984,note_on,,,,,64,0,7,,,,,6,,,34,63
58272,note_off,,,,,288,0,8,,,,,7,,,65,0
58304,note_off,,,,,320,0,7,,,,,6,,,34,0
58304,note_off,,,,,320,0,9,,,,,8,,,46,0
58304,note_off,,,,,32,0,8,,,,,7,,,62,0
58368,note_on,,,,,64,0,9,,,,,8,,,45,37
58368,note_on,,,,,0,0,4,,,,,3,,,60,92
58368,note_off,,,,,384,0,4,,,,,3,,,62,0
58368,note_off,,,,,768,0,5,,,,,4,,,60,0
58368,note_on,,,,,0,0,2,,,,,1,,,60,75
58368,note_off,,,,,384,0,2,,,,,1,,,62,0
58368,note_off,,,,,384,0,6,,,,,5,,,46,0
58368,note_on,,,,,0,0,6,,,,,5,,,45,75
58368,note_on,,,,,0,0,8,,,,,7,,,65,37
58368,note_on,,,,,64,0,8,,,,,7,,,60,37
58368,note_on,,,,,0,0,5,,,,,4,,,65,75
58368,note_on,,,,,64,0,7,,,,,6,,,33,63
58688,note_off,,,,,320,0,9,,,,,8,,,45,0
58688,note_off,,,,,320,0,7,,,,,6,,,33,0
58688,note_off,,,,,320,0,8,,,,,7,,,60,0
58752,note_off,,,,,384,0,2,,,,,1,,,60,0
58752,note_on,,,,,64,0,7,,,,,6,,,31,63
58752,note_off,,,,,384,0,6,,,,,5,,,45,0
58752,note_on,,,,,0,0,6,,,,,5,,,43,75
58752,note_on,,,,,0,0,2,,,,,1,,,58,75
58752,note_on,,,,,64,0,8,,,,,7,,,58,37
58752,note_on,,,,,0,0,4,,,,,3,,,58,92
58752,note_off,,,,,384,0,4,,,,,3,,,60,0
58752,note_on,,,,,64,0,9,,,,,8,,,43,37
59072,note_off,,,,,320,0,8,,,,,7,,,58,0
59072,note_off,,,,,320,0,7,,,,,6,,,31,0
59072,note_off,,,,,320,0,9,,,,,8,,,43,0
59136,note_off,,,,,384,0,4,,,,,3,,,58,0
59136,note_on,,,,,0,0,2,,,,,1,,,60,75
59136,note_off,,,,,384,0,2,,,,,1,,,58,0
59136,note_off,,,,,384,0,6,,,,,5,,,43,0
59136,note_on,,,,,0,0,6,,,,,5,,,45,75
59136,note_on,,,,,64,0,8,,,,,7,,,60,37
59136,note_on,,,,,0,0,4,,,,,3,,,60,92
59136,note_on,,,,,64,0,9,,,,,8,,,45,37
59136,note_on,,,,,64,0,7,,,,,6,,,33,63
59456,note_off,,,,,320,0,8,,,,,7,,,60,0
59456,note_off,,,,,320,0,9,,,,,8,,,45,0
59456,note_off,,,,,320,0,7,,,,,6,,,33,0
59520,note_off,,,,,384,0,6,,,,,5,,,45,0
59520,note_on,,,,,64,0,8,,,,,7,,,57,37
59520,note_on,,,,,64,0,9,,,,,8,,,41,37
59520,note_on,,,,,0,0,4,,,,,3,,,57,92
59520,note_off,,,,,384,0,4,,,,,3,,,60,0
59520,note_on,,,,,0,0,6,,,,,5,,,41,75
59520,note_on,,,,,64,0,7,,,,,6,,,29,63
59520,note_on,,,,,0,0,2,,,,,1,,,57,75
59520,note_off,,,,,384,0,2,,,,,1,,,60,0
59808,note_off,,,,,288,0,8,,,,,7,,,65,0
59840,note_off,,,,,320,0,9,,,,,8,,,41,0
59840,note_off,,,,,32,0,8,,,,,7,,,57,0
59840,note_off,,,,,320,0,7,,,,,6,,,29,0
59904,note_on,,,,,0,0,8,,,,,7,,,65,37
59904,note_on,,,,,0,0,8,,,,,7,,,69,37
59904,note_off,,,,,384,0,4,,,,,3,,,57,0
59904,note_on,,,,,0,0,4,,,,,3,,,74,92
59904,note_on,,,,,64,0,8,,,,,7,,,60,37
59904,note_on,,,,,0,0,6,,,,,5,,,46,75
59904,note_on,,,,,0,0,3,,,,,2,,,77,92
59904,note_off,,,,,2304,0,3,,,,,2,,,65,0
59904,note_on,,,,,0,0,1,,,,,0,,,77,75
59904,note_off,,,,,2304,0,1,,,,,0,,,65,0
59904,note_on,,,,,0,0,5,,,,,4,,,58,75
59904,note_off,,,,,1536,0,5,,,,,4,,,65,0
59904,note_on,,,,,0,0,2,,,,,1,,,74,75
59904,note_off,,,,,384,0,2,,,,,1,,,57,0
59904,note_on,,,,,64,0,9,,,,,8,,,53,37
59904,note_off,,,,,384,0,6,,,,,5,,,41,0
59904,note_on,,,,,64,0,7,,,,,6,,,34,63
60288,note_on,,,,,0,0,4,,,,,3,,,70,92
60288,note_off,,,,,384,0,3,,,,,2,,,77,0
60288,note_off,,,,,384,0,1,,,,,0,,,77,0
60288,note_on,,,,,0,0,1,,,,,0,,,74,75
60288,note_off,,,,,384,0,4,,,,,3,,,74,0
60288,note_on,,,,,0,0,3,,,,,2,,,74,92
60288,note_on,,,,,0,0,5,,,,,4,,,65,75
60288,note_off,,,,,384,0,2,,,,,1,,,74,0
60288,note_on,,,,,0,0,2,,,,,1,,,70,75
60288,note_off,,,,,384,0,5,,,,,4,,,58,0
60576,note_off,,,,,672,0,9,,,,,8,,,53,0
60576,note_off,,,,,672,0,7,,,,,6,,,34,0
60576,note_off,,,,,0,0,8,,,,,7,,,65,0
60576,note_off,,,,,672,0,8,,,,,7,,,60,0
60576,note_off,,,,,0,0,8,,,,,7,,,69,0
60672,note_on,,,,,96,0,9,,,,,8,,,45,37
60672,note_on,,,,,96,0,8,,,,,7,,,60,37
60672,note_on,,,,,0,0,6,,,,,5,,,50,75
60672,note_on,,,,,96,0,7,,,,,6,,,38,63
60672,note_off,,,,,768,0,6,,,,,5,,,46,0
60672,note_on,,,,,0,0,8,,,,,7,,,65,37
61056,note_off,,,,,768,0,5,,,,,4,,,65,0
61056,note_on,,,,,0,0,3,,,,,2,,,70,92
61056,note_off,,,,,768,0,1,,,,,0,,,74,0
61056,note_on,,,,,0,0,1,,,,,0,,,70,75
61056,note_off,,,,,768,0,3,,,,,2,,,74,0
61056,note_on,,,,,0,0,5,,,,,4,,,62,75
61056,note_off,,,,,768,0,2,,,,,1,,,70,0
61056,note_on,,,,,0,0,2,,,,,1,,,65,75
61056,note_off,,,,,768,0,4,,,,,3,,,70,0
61056,note_on,,,,,0,0,4,,,,,3,,,65,92
61344,note_off,,,,,672,0,7,,,,,6,,,38,0
61344,note_off,,,,,0,0,8,,,,,7,,,65,0
61344,note_off,,,,,672,0,8,,,,,7,,,60,0
61344,note_off,,,,,672,0,9,,,,,8,,,45,0
61440,note_off,,,,,384,0,5,,,,,4,,,62,0
61440,note_off,,,,,768,0,6,,,,,5,,,50,0
61440,note_on,,,,,0,0,6,,,,,5,,,55,75
61440,note_on,,,,,0,0,8,,,,,7,,,65,37
61440,note_on,,,,,96,0,8,,,,,7,,,62,37
61440,note_on,,,,,96,0,9,,,,,8,,,46,37
61440,note_on,,,,,0,0,5,,,,,4,,,58,75
61440,note_on,,,,,96,0,7,,,,,6,,,43,63
61632,note_on,,,,,0,0,3,,,,,2,,,74,92
61632,note_off,,,,,576,0,3,,,,,2,,,70,0
61632,note_on,,,,,0,0,1,,,,,0,,,74,75
61632,note_off,,,,,576,0,1,,,,,0,,,70,0
61760,note_off,,,,,320,0,8,,,,,7,,,65,0
61824,note_on,,,,,0,0,4,,,,,3,,,64,92
61824,note_off,,,,,768,0,2,,,,,1,,,65,0
61824,note_on,,,,,64,0,8,,,,,7,,,64,37
61824,note_off,,,,,768,0,4,,,,,3,,,65,0
61824,note_on,,,,,0,0,2,,,,,1,,,64,75
61824,note_off,,,,,192,0,1,,,,,0,,,74,0
61824,note_on,,,,,0,0,3,,,,,2,,,72,92
61824,note_off,,,,,192,0,3,,,,,2,,,74,0
61824,note_on,,,,,0,0,1,,,,,0,,,72,75
61824,note_on,,,,,0,0,8,,,,,7,,,67,37
62016,note_off,,,,,192,0,1,,,,,0,,,72,0
62016,note_on,,,,,0,0,1,,,,,0,,,70,75
62016,note_on,,,,,0,0,3,,,,,2,,,70,92
62016,note_off,,,,,192,0,3,,,,,2,,,72,0
62112,note_off,,,,,672,0,9,,,,,8,,,46,0
62112,note_off,,,,,672,0,7,,,,,6,,,43,0
62144,note_off,,,,,0,0,8,,,,,7,,,64,0
62144,note_off,,,,,320,0,8,,,,,7,,,62,0
62144,note_off,,,,,0,0,8,,,,,7,,,67,0
62208,note_on,,,,,0,0,8,,,,,7,,,65,37
62208,note_on,,,,,96,0,9,,,,,8,,,41,37
62208,note_off,,,,,192,0,1,,,,,0,,,70,0
62208,note_on,,,,,0,0,1,,,,,0,,,72,75
62208,note_off,,,,,192,0,3,,,,,2,,,70,0
62208,note_off,,,,,768,0,6,,,,,5,,,55,0
62208,note_on,,,,,0,0,8,,,,,7,,,69,37
62208,note_off,,,,,768,0,5,,,,,4,,,58,0
62208,note_on,,,,,0,0,5,,,,,4,,,65,75
62208,note_on,,,,,64,0,8,,,,,7,,,60,37
62208,note_on,,,,,96,0,7,,,,,6,,,41,63
62208,note_on,,,,,0,0,6,,,,,5,,,53,75
62208,note_on,,,,,0,0,3,,,,,2,,,72,92
62208,note_off,,,,,384,0,4,,,,,3,,,64,0
62208,note_on,,,,,0,0,4,,,,,3,,,69,92
62208,note_off,,,,,384,0,2,,,,,1,,,64,0
62208,note_on,,,,,0,0,2,,,,,1,,,69,75
62400,note_on,,,,,0,0,3,,,,,2,,,69,92
62400,note_off,,,,,192,0,4,,,,,3,,,69,0
62400,note_on,,,,,0,0,4,,,,,3,,,65,92
62400,note_off,,,,,192,0,2,,,,,1,,,69,0
62400,note_off,,,,,192,0,3,,,,,2,,,72,0
62400,note_on,,,,,0,0,1,,,,,0,,,69,75
62400,note_off,,,,,192,0,1,,,,,0,,,72,0
62400,note_on,,,,,0,0,2,,,,,1,,,65,75
62592,note_off,,,,,192,0,3,,,,,2,,,69,0
62592,note_on,,,,,0,0,3,,,,,2,,,65,92
62592,note_on,,,,,0,0,4,,,,,3,,,60,92
62592,note_on,,,,,0,0,2,,,,,1,,,60,75
62592,note_off,,,,,192,0,1,,,,,0,,,69,0
62592,note_on,,,,,0,0,1,,,,,0,,,65,75
62592,note_off,,,,,192,0,2,,,,,1,,,65,0
62592,note_off,,,,,192,0,4,,,,,3,,,65,0
62880,note_off,,,,,0,0,8,,,,,7,,,69,0
62880,note_off,,,,,0,0,8,,,,,7,,,65,0
62880,note_off,,,,,672,0,9,,,,,8,,,41,0
62880,note_off,,,,,672,0,7,,,,,6,,,41,0
62880,note_off,,,,,672,0,8,,,,,7,,,60,0
62976,note_on,,,,,0,0,6,,,,,5,,,57,75
62976,note_off,,,,,768,0,6,,,,,5,,,53,0
62976,note_on,,,,,0,0,5,,,,,4,,,65,75
62976,note_off,,,,,768,0,5,,,,,4,,,65,0
62976,note_on,,,,,0,0,8,,,,,7,,,69,37
62976,note_on,,,,,96,0,8,,,,,7,,,65,37
62976,note_on,,,,,96,0,9,,,,,8,,,62,37
62976,note_on,,,,,96,0,7,,,,,6,,,45,63
63360,note_on,,,,,0,0,4,,,,,3,,,72,92
63360,note_off,,,,,768,0,4,,,,,3,,,60,0
63360,note_on,,,,,0,0,3,,,,,2,,,77,92
63360,note_off,,,,,768,0,1,,,,,0,,,65,0
63360,note_on,,,,,0,0,1,,,,,0,,,77,75
63360,note_on,,,,,0,0,2,,,,,1,,,72,75
63360,note_off,,,,,768,0,2,,,,,1,,,60,0
63360,note_off,,,,,768,0,3,,,,,2,,,65,0
63648,note_off,,,,,672,0,7,,,,,6,,,45,0
63648,note_off,,,,,672,0,9,,,,,8,,,62,0
63648,note_off,,,,,672,0,8,,,,,7,,,65,0
63648,note_off,,,,,0,0,8,,,,,7,,,69,0
63744,note_on,,,,,0,0,8,,,,,7,,,67,37
63744,note_on,,,,,96,0,8,,,,,7,,,65,37
63744,note_on,,,,,0,0,5,,,,,4,,,70,75
63744,note_off,,,,,768,0,5,,,,,4,,,65,0
63744,note_on,,,,,96,0,7,,,,,6,,,46,63
63744,note_on,,,,,96,0,9,,,,,8,,,59,37
63744,note_on,,,,,0,0,6,,,,,5,,,58,75
63744,note_off,,,,,768,0,6,,,,,5,,,57,0
63744,note_on,,,,,0,0,9,,,,,8,,,62,37
64128,note_on,,,,,0,0,2,,,,,1,,,74,75
64128,note_on,,,,,0,0,3,,,,,2,,,74,92
64128,note_off,,,,,768,0,2,,,,,1,,,72,0
64128,note_off,,,,,768,0,1,,,,,0,,,77,0
64128,note_on,,,,,0,0,4,,,,,3,,,74,92
64128,note_on,,,,,0,0,1,,,,,0,,,74,75
64128,note_off,,,,,768,0,4,,,,,3,,,72,0
64128,note_off,,,,,768,0,3,,,,,2,,,77,0
64320,note_on,,,,,0,0,2,,,,,1,,,70,75
64320,note_on,,,,,0,0,4,,,,,3,,,70,92
64320,note_off,,,,,192,0,4,,,,,3,,,74,0
64320,note_off,,,,,192,0,2,,,,,1,,,74,0
64416,note_off,,,,,672,0,9,,,,,8,,,59,0
64416,note_off,,,,,672,0,7,,,,,6,,,46,0
64416,note_off,,,,,0,0,8,,,,,7,,,67,0
64416,note_off,,,,,672,0,8,,,,,7,,,65,0
64416,note_off,,,,,0,0,9,,,,,8,,,62,0
64512,note_on,,,,,96,0,9,,,,,8,,,60,37
64512,note_on,,,,,0,0,1,,,,,0,,,79,75
64512,note_on,,,,,0,0,2,,,,,1,,,67,75
64512,note_off,,,,,384,0,3,,,,,2,,,74,0
64512,note_on,,,,,0,0,3,,,,,2,,,79,92
64512,note_on,,,,,0,0,4,,,,,3,,,67,92
64512,note_on,,,,,0,0,5,,,,,4,,,70,75
64512,note_on,,,,,96,0,7,,,,,6,,,39,63
64512,note_on,,,,,0,0,6,,,,,5,,,51,75
64512,note_off,,,,,192,0,2,,,,,1,,,70,0
64512,note_on,,,,,0,0,8,,,,,7,,,67,37
64512,note_on,,,,,96,0,8,,,,,7,,,63,37
64512,note_off,,,,,384,0,1,,,,,0,,,74,0
64512,note_off,,,,,768,0,5,,,,,4,,,70,0
64512,note_off,,,,,192,0,4,,,,,3,,,70,0
64512,note_off,,,,,768,0,6,,,,,5,,,58,0
64704,note_off,,,,,192,0,1,,,,,0,,,79,0
64704,note_on,,,,,0,0,1,,,,,0,,,75,75
64704,note_on,,,,,0,0,3,,,,,2,,,75,92
64704,note_off,,,,,192,0,3,,,,,2,,,79,0
64896,note_off,,,,,192,0,3,,,,,2,,,75,0
64896,note_on,,,,,0,0,3,,,,,2,,,84,92
64896,note_on,,,,,0,0,1,,,,,0,,,84,75
64896,note_off,,,,,192,0,1,,,,,0,,,75,0
64896,note_on,,,,,0,0,5,,,,,4,,,67,75
64896,note_off,,,,,384,0,5,,,,,4,,,70,0
65184,note_off,,,,,672,0,8,,,,,7,,,63,0
65184,note_off,,,,,0,0,8,,,,,7,,,67,0
65184,note_off,,,,,672,0,7,,,,,6,,,39,0
65184,note_off,,,,,672,0,9,,,,,8,,,60,0
65280,note_on,,,,,96,0,9,,,,,8,,,48,37
65280,note_on,,,,,0,0,6,,,,,5,,,48,75
65280,note_on,,,,,0,0,4,,,,,3,,,63,92
65280,note_off,,,,,768,0,6,,,,,5,,,51,0
65280,note_on,,,,,0,0,9,,,,,8,,,60,37
65280,note_on,,,,,96,0,8,,,,,7,,,63,37
65280,note_on,,,,,0,0,8,,,,,7,,,67,37
65280,note_on,,,,,96,0,7,,,,,6,,,36,63
65280,note_on,,,,,0,0,2,,,,,1,,,63,75
65280,note_off,,,,,768,0,4,,,,,3,,,67,0
65280,note_off,,,,,768,0,2,,,,,1,,,67,0
65472,note_off,,,,,192,0,4,,,,,3,,,63,0
65472,note_on,,,,,0,0,4,,,,,3,,,60,92
65472,note_on,,,,,0,0,2,,,,,1,,,60,75
65472,note_off,,,,,192,0,2,,,,,1,,,63,0
65664,note_off,,,,,768,0,1,,,,,0,,,84,0
65664,note_on,,,,,0,0,2,,,,,1,,,72,75
65664,note_off,,,,,768,0,3,,,,,2,,,84,0
65664,note_off,,,,,768,0,5,,,,,4,,,67,0
65664,note_on,,,,,0,0,5,,,,,4,,,67,75
65664,note_on,,,,,0,0,1,,,,,0,,,75,75
65664,note_on,,,,,0,0,3,,,,,2,,,75,92
65664,note_off,,,,,192,0,2,,,,,1,,,60,0
65664,note_on,,,,,0,0,4,,,,,3,,,72,92
65664,note_off,,,,,192,0,4,,,,,3,,,60,0
65952,note_off,,,,,672,0,8,,,,,7,,,63,0
65952,note_off,,,,,0,0,8,,,,,7,,,67,0
65952,note_off,,,,,0,0,9,,,,,8,,,60,0
65952,note_off,,,,,672,0,7,,,,,6,,,36,0
65952,note_off,,,,,672,0,9,,,,,8,,,48,0
66048,note_off,,,,,768,0,6,,,,,5,,,48,0
66048,note_on,,,,,0,0,6,,,,,5,,,53,75
66048,note_on,,,,,0,0,5,,,,,4,,,69,75
66048,note_off,,,,,384,0,5,,,,,4,,,67,0
66048,note_on,,,,,96,0,7,,,,,6,,,41,63
66048,note_on,,,,,96,0,9,,,,,8,,,51,37
66048,note_on,,,,,0,0,9,,,,,8,,,55,37
66048,note_on,,,,,96,0,8,,,,,7,,,60,37
66048,note_on,,,,,0,0,8,,,,,7,,,67,37
66432,note_off,,,,,768,0,2,,,,,1,,,72,0
66432,note_on,,,,,0,0,2,,,,,1,,,70,75
66432,note_off,,,,,768,0,4,,,,,3,,,72,0
66432,note_on,,,,,0,0,4,,,,,3,,,70,92
66432,note_on,,,,,0,0,5,,,,,4,,,65,75
66432,note_off,,,,,768,0,3,,,,,2,,,75,0
66432,note_on,,,,,0,0,1,,,,,0,,,74,75
66432,note_on,,,,,0,0,3,,,,,2,,,74,92
66432,note_off,,,,,768,0,1,,,,,0,,,75,0
66432,note_off,,,,,384,0,5,,,,,4,,,69,0
66624,note_off,,,,,192,0,2,,,,,1,,,70,0
66624,note_off,,,,,192,0,1,,,,,0,,,74,0
66624,note_on,,,,,0,0,1,,,,,0,,,72,75
66624,note_on,,,,,0,0,3,,,,,2,,,72,92
66624,note_off,,,,,192,0,3,,,,,2,,,74,0
66624,note_on,,,,,0,0,4,,,,,3,,,69,92
66624,note_off,,,,,192,0,4,,,,,3,,,70,0
66624,note_on,,,,,0,0,2,,,,,1,,,69,75
66720,note_off,,,,,672,0,7,,,,,6,,,41,0
66720,note_off,,,,,672,0,9,,,,,8,,,51,0
66720,note_off,,,,,0,0,9,,,,,8,,,55,0
66720,note_off,,,,,0,0,8,,,,,7,,,67,0
66720,note_off,,,,,672,0,8,,,,,7,,,60,0
66816,note_on,,,,,0,0,2,,,,,1,,,70,75
66816,note_on,,,,,0,0,3,,,,,2,,,77,92
66816,note_off,,,,,192,0,3,,,,,2,,,72,0
66816,note_on,,,,,96,0,8,,,,,7,,,62,37
66816,note_on,,,,,0,0,8,,,,,7,,,66,37
66816,note_on,,,,,96,0,9,,,,,8,,,50,37
66816,note_off,,,,,192,0,2,,,,,1,,,69,0
66816,note_on,,,,,0,0,1,,,,,0,,,77,75
66816,note_off,,,,,192,0,1,,,,,0,,,72,0
66816,note_off,,,,,384,0,5,,,,,4,,,65,0
66816,note_on,,,,,0,0,5,,,,,4,,,65,75
66816,note_off,,,,,192,0,4,,,,,3,,,69,0
66816,note_off,,,,,768,0,6,,,,,5,,,53,0
66816,note_on,,,,,0,0,9,,,,,8,,,57,37
66816,note_on,,,,,0,0,6,,,,,5,,,50,75
66816,note_on,,,,,96,0,7,,,,,6,,,38,63
66816,note_on,,,,,0,0,4,,,,,3,,,70,92
67008,note_off,,,,,192,0,1,,,,,0,,,77,0
67008,note_on,,,,,0,0,3,,,,,2,,,74,92
67008,note_off,,,,,192,0,3,,,,,2,,,77,0
67008,note_on,,,,,0,0,1,,,,,0,,,74,75
67200,note_on,,,,,0,0,3,,,,,2,,,82,92
67200,note_off,,,,,192,0,3,,,,,2,,,74,0
67200,note_off,,,,,192,0,1,,,,,0,,,74,0
67200,note_on,,,,,0,0,1,,,,,0,,,82,75
67488,note_off,,,,,0,0,9,,,,,8,,,57,0
67488,note_off,,,,,672,0,9,,,,,8,,,50,0
67488,note_off,,,,,672,0,7,,,,,6,,,38,0
67488,note_off,,,,,672,0,8,,,,,7,,,62,0
67488,note_off,,,,,0,0,8,,,,,7,,,66,0
67584,note_off,,,,,768,0,6,,,,,5,,,50,0
67584,note_on,,,,,0,0,6,,,,,5,,,46,75
67584,note_on,,,,,0,0,2,,,,,1,,,70,75
67584,note_off,,,,,768,0,2,,,,,1,,,70,0
67584,note_off,,,,,768,0,4,,,,,3,,,70,0
67584,note_on,,,,,96,0,8,,,,,7,,,62,37
67584,note_on,,,,,0,0,8,,,,,7,,,69,37
67584,note_on,,,,,96,0,7,,,,,6,,,34,63
67584,note_on,,,,,0,0,4,,,,,3,,,70,92
67584,note_on,,,,,96,0,9,,,,,8,,,54,37
67584,note_on,,,,,0,0,5,,,,,4,,,62,75
67584,note_off,,,,,768,0,5,,,,,4,,,65,0
67776,note_off,,,,,192,0,4,,,,,3,,,70,0
67776,note_on,,,,,0,0,4,,,,,3,,,65,92
67776,note_on,,,,,0,0,2,,,,,1,,,65,75
67776,note_off,,,,,192,0,2,,,,,1,,,70,0
67968,note_off,,,,,768,0,1,,,,,0,,,82,0
67968,note_off,,,,,192,0,2,,,,,1,,,65,0
67968,note_on,,,,,0,0,2,,,,,1,,,74,75
67968,note_on,,,,,0,0,4,,,,,3,,,74,92
67968,note_on,,,,,0,0,3,,,,,2,,,77,92
67968,note_off,,,,,192,0,4,,,,,3,,,65,0
67968,note_off,,,,,768,0,3,,,,,2,,,82,0
67968,note_on,,,,,0,0,1,,,,,0,,,77,75
68256,note_off,,,,,672,0,7,,,,,6,,,34,0
68256,note_off,,,,,672,0,9,,,,,8,,,54,0
68256,note_off,,,,,0,0,8,,,,,7,,,69,0
68256,note_off,,,,,672,0,8,,,,,7,,,62,0
68352,note_on,,,,,96,0,9,,,,,8,,,50,37
68352,note_on,,,,,96,0,8,,,,,7,,,62,37
68352,note_on,,,,,0,0,6,,,,,5,,,58,75
68352,note_off,,,,,768,0,6,,,,,5,,,46,0
68352,note_off,,,,,768,0,5,,,,,4,,,62,0
68352,note_on,,,,,0,0,8,,,,,7,,,74,37
68352,note_on,,,,,0,0,8,,,,,7,,,66,37
68352,note_on,,,,,0,0,5,,,,,4,,,65,75
68352,note_on,,,,,96,0,7,,,,,6,,,46,63
68736,note_off,,,,,768,0,2,,,,,1,,,74,0
68736,note_on,,,,,0,0,2,,,,,1,,,72,75
68736,note_off,,,,,768,0,4,,,,,3,,,74,0
68736,note_on,,,,,0,0,1,,,,,0,,,75,75
68736,note_on,,,,,0,0,4,,,,,3,,,72,92
68736,note_on,,,,,0,0,3,,,,,2,,,75,92
68736,note_off,,,,,768,0,3,,,,,2,,,77,0
68736,note_off,,,,,768,0,1,,,,,0,,,77,0
68928,note_on,,,,,0,0,3,,,,,2,,,74,92
68928,note_on,,,,,0,0,1,,,,,0,,,74,75
68928,note_off,,,,,192,0,3,,,,,2,,,75,0
68928,note_off,,,,,192,0,1,,,,,0,,,75,0
69024,note_off,,,,,672,0,9,,,,,8,,,50,0
69024,note_off,,,,,672,0,8,,,,,7,,,62,0
69024,note_off,,,,,0,0,8,,,,,7,,,66,0
69024,note_off,,,,,0,0,8,,,,,7,,,74,0
69024,note_off,,,,,672,0,7,,,,,6,,,46,0
69120,note_on,,,,,96,0,9,,,,,8,,,55,37
69120,note_off,,,,,192,0,1,,,,,0,,,74,0
69120,note_on,,,,,0,0,8,,,,,7,,,70,37
69120,note_off,,,,,768,0,5,,,,,4,,,65,0
69120,note_on,,,,,0,0,8,,,,,7,,,67,37
69120,note_on,,,,,96,0,8,,,,,7,,,62,37
69120,note_on,,,,,0,0,1,,,,,0,,,79,75
69120,note_on,,,,,0,0,6,,,,,5,,,51,75
69120,note_off,,,,,768,0,6,,,,,5,,,58,0
69120,note_on,,,,,0,0,3,,,,,2,,,79,92
69120,note_on,,,,,0,0,5,,,,,4,,,63,75
69120,note_on,,,,,96,0,7,,,,,6,,,39,63
69120,note_off,,,,,192,0,3,,,,,2,,,74,0
69312,note_on,,,,,0,0,3,,,,,2,,,75,92
69312,note_off,,,,,192,0,3,,,,,2,,,79,0
69312,note_off,,,,,192,0,1,,,,,0,,,79,0
69312,note_on,,,,,0,0,1,,,,,0,,,75,75
69504,note_on,,,,,0,0,3,,,,,2,,,77,92
69504,note_off,,,,,192,0,1,,,,,0,,,75,0
69504,note_on,,,,,0,0,1,,,,,0,,,77,75
69504,note_off,,,,,192,0,3,,,,,2,,,75,0
69504,note_off,,,,,768,0,4,,,,,3,,,72,0
69504,note_off,,,,,768,0,2,,,,,1,,,72,0
69504,note_on,,,,,0,0,2,,,,,1,,,67,75
69504,note_on,,,,,0,0,4,,,,,3,,,67,92
69696,note_off,,,,,192,0,1,,,,,0,,,77,0
69696,note_off,,,,,192,0,3,,,,,2,,,77,0
69696,note_on,,,,,0,0,1,,,,,0,,,74,75
69696,note_on,,,,,0,0,3,,,,,2,,,74,92
69792,note_off,,,,,672,0,7,,,,,6,,,39,0
69792,note_off,,,,,672,0,9,,,,,8,,,55,0
69792,note_off,,,,,672,0,8,,,,,7,,,62,0
69792,note_off,,,,,0,0,8,,,,,7,,,67,0
69792,note_off,,,,,0,0,8,,,,,7,,,70,0
69888,note_on,,,,,0,0,2,,,,,1,,,67,75
69888,note_on,,,,,96,0,9,,,,,8,,,58,37
69888,note_off,,,,,768,0,6,,,,,5,,,51,0
69888,note_off,,,,,384,0,2,,,,,1,,,67,0
69888,note_on,,,,,96,0,8,,,,,7,,,62,37
69888,note_on,,,,,0,0,6,,,,,5,,,39,75
69888,note_on,,,,,0,0,8,,,,,7,,,74,37
69888,note_on,,,,,96,0,7,,,,,6,,,27,63
69888,note_on,,,,,0,0,8,,,,,7,,,67,37
69888,note_off,,,,,768,0,5,,,,,4,,,63,0
69888,note_off,,,,,192,0,3,,,,,2,,,74,0
69888,note_on,,,,,0,0,3,,,,,2,,,75,92
69888,note_on,,,,,0,0,5,,,,,4,,,58,75
69888,note_off,,,,,384,0,4,,,,,3,,,67,0
69888,note_on,,,,,0,0,1,,,,,0,,,75,75
69888,note_off,,,,,192,0,1,,,,,0,,,74,0
69888,note_on,,,,,0,0,4,,,,,3,,,67,92
70080,note_on,,,,,0,0,3,,,,,2,,,72,92
70080,note_off,,,,,192,0,3,,,,,2,,,75,0
70080,note_off,,,,,192,0,4,,,,,3,,,67,0
70080,note_on,,,,,0,0,4,,,,,3,,,63,92
70080,note_off,,,,,192,0,1,,,,,0,,,75,0
70080,note_on,,,,,0,0,1,,,,,0,,,72,75
70080,note_off,,,,,192,0,2,,,,,1,,,67,0
70080,note_on,,,,,0,0,2,,,,,1,,,63,75
70272,note_on,,,,,0,0,2,,,,,1,,,65,75
70272,note_on,,,,,0,0,4,,,,,3,,,65,92
70272,note_off,,,,,192,0,1,,,,,0,,,72,0
70272,note_off,,,,,192,0,2,,,,,1,,,63,0
70272,note_on,,,,,0,0,1,,,,,0,,,74,75
70272,note_off,,,,,192,0,3,,,,,2,,,72,0
70272,note_on,,,,,0,0,3,,,,,2,,,74,92
70272,note_off,,,,,192,0,4,,,,,3,,,63,0
70464,note_off,,,,,192,0,3,,,,,2,,,74,0
70464,note_off,,,,,192,0,2,,,,,1,,,65,0
70464,note_on,,,,,0,0,2,,,,,1,,,62,75
70464,note_on,,,,,0,0,3,,,,,2,,,70,92
70464,note_on,,,,,0,0,4,,,,,3,,,62,92
70464,note_off,,,,,192,0,4,,,,,3,,,65,0
70464,note_off,,,,,192,0,1,,,,,0,,,74,0
70464,note_on,,,,,0,0,1,,,,,0,,,70,75
70560,note_off,,,,,0,0,8,,,,,7,,,74,0
70560,note_off,,,,,0,0,8,,,,,7,,,67,0
70560,note_off,,,,,672,0,8,,,,,7,,,62,0
70560,note_off,,,,,672,0,7,,,,,6,,,27,0
70560,note_off,,,,,672,0,9,,,,,8,,,58,0
70656,note_off,,,,,192,0,3,,,,,2,,,70,0
70656,note_on,,,,,0,0,3,,,,,2,,,72,92
70656,note_on,,,,,0,0,8,,,,,7,,,74,37
70656,note_off,,,,,768,0,5,,,,,4,,,58,0
70656,note_on,,,,,96,0,9,,,,,8,,,59,37
70656,note_on,,,,,0,0,6,,,,,5,,,51,75
70656,note_off,,,,,192,0,1,,,,,0,,,70,0
70656,note_on,,,,,96,0,8,,,,,7,,,65,37
70656,note_on,,,,,96,0,7,,,,,6,,,39,63
70656,note_off,,,,,192,0,4,,,,,3,,,62,0
70656,note_on,,,,,0,0,4,,,,,3,,,63,92
70656,note_on,,,,,0,0,5,,,,,4,,,63,75
70656,note_on,,,,,0,0,1,,,,,0,,,72,75
70656,note_off,,,,,192,0,2,,,,,1,,,62,0
70656,note_on,,,,,0,0,2,,,,,1,,,63,75
70656,note_off,,,,,768,0,6,,,,,5,,,39,0
70656,note_on,,,,,0,0,8,,,,,7,,,67,37
70848,note_on,,,,,0,0,1,,,,,0,,,69,75
70848,note_on,,,,,0,0,3,,,,,2,,,69,92
70848,note_off,,,,,192,0,4,,,,,3,,,63,0
70848,note_on,,,,,0,0,4,,,,,3,,,60,92
70848,note_off,,,,,192,0,1,,,,,0,,,72,0
70848,note_off,,,,,192,0,2,,,,,1,,,63,0
70848,note_on,,,,,0,0,2,,,,,1,,,60,75
70848,note_off,,,,,192,0,3,,,,,2,,,72,0
71040,note_on,,,,,0,0,2,,,,,1,,,62,75
71040,note_off,,,,,192,0,2,,,,,1,,,60,0
71040,note_off,,,,,192,0,1,,,,,0,,,69,0
71040,note_on,,,,,0,0,3,,,,,2,,,70,92
71040,note_off,,,,,192,0,3,,,,,2,,,69,0
71040,note_off,,,,,192,0,4,,,,,3,,,60,0
71040,note_on,,,,,0,0,4,,,,,3,,,62,92
71040,note_on,,,,,0,0,1,,,,,0,,,70,75
71232,note_off,,,,,192,0,2,,,,,1,,,62,0
71232,note_on,,,,,0,0,3,,,,,2,,,67,92
71232,note_off,,,,,192,0,3,,,,,2,,,70,0
71232,note_off,,,,,192,0,4,,,,,3,,,62,0
71232,note_off,,,,,192,0,1,,,,,0,,,70,0
71232,note_on,,,,,0,0,4,,,,,3,,,58,92
71232,note_on,,,,,0,0,1,,,,,0,,,67,75
71232,note_on,,,,,0,0,2,,,,,1,,,58,75
71328,note_off,,,,,0,0,8,,,,,7,,,74,0
71328,note_off,,,,,0,0,8,,,,,7,,,67,0
71328,note_off,,,,,672,0,9,,,,,8,,,59,0
71328,note_off,,,,,672,0,7,,,,,6,,,39,0
71328,note_off,,,,,672,0,8,,,,,7,,,65,0
71424,note_on,,,,,96,0,8,,,,,7,,,63,37
71424,note_on,,,,,0,0,8,,,,,7,,,67,37
71424,note_on,,,,,0,0,8,,,,,7,,,72,37
71424,note_off,,,,,192,0,2,,,,,1,,,58,0
71424,note_on,,,,,0,0,6,,,,,5,,,53,75
71424,note_on,,,,,96,0,9,,,,,8,,,60,37
71424,note_on,,,,,0,0,3,,,,,2,,,69,92
71424,note_off,,,,,192,0,4,,,,,3,,,58,0
71424,note_on,,,,,0,0,4,,,,,3,,,65,92
71424,note_off,,,,,192,0,1,,,,,0,,,67,0
71424,note_on,,,,,0,0,1,,,,,0,,,69,75
71424,note_off,,,,,192,0,3,,,,,2,,,67,0
71424,note_off,,,,,768,0,6,,,,,5,,,51,0
71424,note_on,,,,,0,0,2,,,,,1,,,65,75
71424,note_off,,,,,768,0,5,,,,,4,,,63,0
71424,note_on,,,,,0,0,5,,,,,4,,,60,75
71424,note_on,,,,,96,0,7,,,,,6,,,41,63
71616,note_on,,,,,0,0,1,,,,,0,,,65,75
71616,note_off,,,,,192,0,1,,,,,0,,,69,0
71616,note_on,,,,,0,0,3,,,,,2,,,65,92
71616,note_off,,,,,192,0,3,,,,,2,,,69,0
71808,note_on,,,,,0,0,3,,,,,2,,,77,92
71808,note_off,,,,,192,0,3,,,,,2,,,65,0
71808,note_off,,,,,384,0,2,,,,,1,,,65,0
71808,note_off,,,,,192,0,1,,,,,0,,,65,0
71808,note_on,,,,,0,0,2,,,,,1,,,69,75
71808,note_on,,,,,0,0,1,,,,,0,,,77,75
71808,note_on,,,,,0,0,4,,,,,3,,,69,92
71808,note_off,,,,,384,0,4,,,,,3,,,65,0
72096,note_off,,,,,672,0,8,,,,,7,,,63,0
72096,note_off,,,,,672,0,7,,,,,6,,,41,0
72096,note_off,,,,,0,0,8,,,,,7,,,67,0
72096,note_off,,,,,672,0,9,,,,,8,,,60,0
72096,note_off,,,,,0,0,8,,,,,7,,,72,0
72192,note_on,,,,,96,0,9,,,,,8,,,57,37
72192,note_on,,,,,0,0,8,,,,,7,,,72,37
72192,note_off,,,,,384,0,4,,,,,3,,,69,0
72192,note_off,,,,,768,0,6,,,,,5,,,53,0
72192,note_on,,,,,0,0,4,,,,,3,,,72,92
72192,note_on,,,,,0,0,5,,,,,4,,,65,75
72192,note_on,,,,,96,0,7,,,,,6,,,45,63
72192,note_off,,,,,768,0,5,,,,,4,,,60,0
72192,note_off,,,,,384,0,2,,,,,1,,,69,0
72192,note_on,,,,,0,0,8,,,,,7,,,69,37
72192,note_on,,,,,0,0,6,,,,,5,,,57,75
72192,note_on,,,,,96,0,8,,,,,7,,,63,37
72192,note_on,,,,,0,0,2,,,,,1,,,72,75
72384,note_off,,,,,576,0,3,,,,,2,,,77,0
72384,note_on,,,,,0,0,3,,,,,2,,,72,92
72384,note_off,,,,,576,0,1,,,,,0,,,77,0
72384,note_on,,,,,0,0,1,,,,,0,,,72,75
72576,note_off,,,,,192,0,1,,,,,0,,,72,0
72576,note_on,,,,,0,0,1,,,,,0,,,81,75
72576,note_off,,,,,192,0,3,,,,,2,,,72,0
72576,note_on,,,,,0,0,3,,,,,2,,,81,92
72864,note_off,,,,,672,0,8,,,,,7,,,63,0
72864,note_off,,,,,0,0,8,,,,,7,,,69,0
72864,note_off,,,,,0,0,8,,,,,7,,,72,0
72864,note_off,,,,,672,0,9,,,,,8,,,57,0
72864,note_off,,,,,672,0,7,,,,,6,,,45,0
72960,note_on,,,,,0,0,8,,,,,7,,,72,37
72960,note_on,,,,,0,0,5,,,,,4,,,72,75
72960,note_on,,,,,96,0,9,,,,,8,,,54,37
72960,note_off,,,,,768,0,6,,,,,5,,,57,0
72960,note_off,,,,,768,0,2,,,,,1,,,72,0
72960,note_on,,,,,0,0,2,,,,,1,,,77,75
72960,note_on,,,,,0,0,6,,,,,5,,,53,75
72960,note_off,,,,,768,0,4,,,,,3,,,72,0
72960,note_on,,,,,0,0,4,,,,,3,,,77,92
72960,note_on,,,,,96,0,8,,,,,7,,,62,37
72960,note_on,,,,,0,0,8,,,,,7,,,69,37
72960,note_on,,,,,96,0,7,,,,,6,,,41,63
72960,note_off,,,,,768,0,5,,,,,4,,,65,0
73152,note_on,,,,,0,0,3,,,,,2,,,77,92
73152,note_off,,,,,576,0,1,,,,,0,,,81,0
73152,note_on,,,,,0,0,1,,,,,0,,,77,75
73152,note_off,,,,,576,0,3,,,,,2,,,81,0
73344,note_off,,,,,192,0,1,,,,,0,,,77,0
73344,note_on,,,,,0,0,1,,,,,0,,,84,75
73344,note_on,,,,,0,0,3,,,,,2,,,84,92
73344,note_off,,,,,192,0,3,,,,,2,,,77,0
73632,note_off,,,,,0,0,8,,,,,7,,,69,0
73632,note_off,,,,,672,0,8,,,,,7,,,62,0
73632,note_off,,,,,672,0,7,,,,,6,,,41,0
73632,note_off,,,,,0,0,8,,,,,7,,,72,0
73632,note_off,,,,,672,0,9,,,,,8,,,54,0
73728,note_on,,,,,96,0,9,,,,,8,,,55,37
73728,note_on,,,,,0,0,5,,,,,4,,,70,75
73728,note_off,,,,,384,0,3,,,,,2,,,84,0
73728,note_on,,,,,0,0,3,,,,,2,,,74,92
73728,note_on,,,,,0,0,1,,,,,0,,,74,75
73728,note_off,,,,,384,0,1,,,,,0,,,84,0
73728,note_off,,,,,768,0,5,,,,,4,,,72,0
73728,note_on,,,,,0,0,6,,,,,5,,,58,75
73728,note_on,,,,,0,0,8,,,,,7,,,70,37
73728,note_on,,,,,0,0,4,,,,,3,,,65,92
73728,note_on,,,,,96,0,7,,,,,6,,,46,63
73728,note_off,,,,,768,0,6,,,,,5,,,53,0
73728,note_off,,,,,768,0,4,,,,,3,,,77,0
73728,note_on,,,,,96,0,8,,,,,7,,,62,37
73728,note_on,,,,,0,0,8,,,,,7,,,67,37
73728,note_on,,,,,0,0,2,,,,,1,,,65,75
73728,note_off,,,,,768,0,2,,,,,1,,,77,0
73920,note_on,,,,,0,0,1,,,,,0,,,70,75
73920,note_off,,,,,192,0,1,,,,,0,,,74,0
73920,note_on,,,,,0,0,3,,,,,2,,,70,92
73920,note_off,,,,,192,0,3,,,,,2,,,74,0
74048,note_off,,,,,0,0,8,,,,,7,,,70,0
74048,note_off,,,,,320,0,8,,,,,7,,,62,0
74048,note_off,,,,,320,0,9,,,,,8,,,55,0
74112,note_on,,,,,64,0,9,,,,,8,,,48,37
74112,note_on,,,,,0,0,1,,,,,0,,,72,75
74112,note_off,,,,,192,0,1,,,,,0,,,70,0
74112,note_on,,,,,64,0,8,,,,,7,,,63,37
74112,note_off,,,,,192,0,3,,,,,2,,,70,0
74112,note_on,,,,,0,0,3,,,,,2,,,72,92
74112,note_on,,,,,0,0,8,,,,,7,,,69,37
74304,note_off,,,,,192,0,3,,,,,2,,,72,0
74304,note_on,,,,,0,0,3,,,,,2,,,69,92
74304,note_off,,,,,192,0,1,,,,,0,,,72,0
74304,note_on,,,,,0,0,1,,,,,0,,,69,75
74400,note_off,,,,,672,0,7,,,,,6,,,46,0
74432,note_off,,,,,0,0,8,,,,,7,,,69,0
74432,note_off,,,,,0,0,8,,,,,7,,,63,0
74432,note_off,,,,,320,0,9,,,,,8,,,48,0
74432,note_off,,,,,320,0,8,,,,,7,,,67,0
74496,note_on,,,,,0,0,2,,,,,1,,,74,75
74496,note_off,,,,,768,0,5,,,,,4,,,70,0
74496,note_on,,,,,0,0,1,,,,,0,,,70,75
74496,note_off,,,,,192,0,1,,,,,0,,,69,0
74496,note_on,,,,,0,0,8,,,,,7,,,70,37
74496,note_on,,,,,64,0,9,,,,,8,,,50,37
74496,note_on,,,,,0,0,6,,,,,5,,,46,75
74496,note_on,,,,,0,0,3,,,,,2,,,70,92
74496,note_on,,,,,96,0,7,,,,,6,,,34,63
74496,note_off,,,,,768,0,2,,,,,1,,,65,0
74496,note_off,,,,,192,0,3,,,,,2,,,69,0
74496,note_off,,,,,768,0,4,,,,,3,,,65,0
74496,note_off,,,,,768,0,6,,,,,5,,,58,0
74496,note_on,,,,,0,0,5,,,,,4,,,65,75
74496,note_on,,,,,0,0,8,,,,,7,,,67,37
74496,note_on,,,,,64,0,8,,,,,7,,,62,37
74496,note_on,,,,,0,0,4,,,,,3,,,74,92
74688,note_off,,,,,192,0,3,,,,,2,,,70,0
74688,note_on,,,,,0,0,4,,,,,3,,,70,92
74688,note_off,,,,,192,0,4,,,,,3,,,74,0
74688,note_on,,,,,0,0,1,,,,,0,,,67,75
74688,note_off,,,,,192,0,1,,,,,0,,,70,0
74688,note_on,,,,,0,0,3,,,,,2,,,67,92
74688,note_on,,,,,0,0,2,,,,,1,,,70,75
74688,note_off,,,,,192,0,2,,,,,1,,,74,0
74880,note_on,,,,,0,0,1,,,,,0,,,69,75
74880,note_off,,,,,192,0,3,,,,,2,,,67,0
74880,note_on,,,,,0,0,3,,,,,2,,,69,92
74880,note_off,,,,,192,0,1,,,,,0,,,67,0
74880,note_off,,,,,192,0,2,,,,,1,,,70,0
74880,note_on,,,,,0,0,4,,,,,3,,,72,92
74880,note_on,,,,,0,0,2,,,,,1,,,72,75
74880,note_off,,,,,192,0,4,,,,,3,,,70,0
75072,note_on,,,,,0,0,4,,,,,3,,,69,92
75072,note_off,,,,,192,0,4,,,,,3,,,72,0
75072,note_off,,,,,192,0,2,,,,,1,,,72,0
75072,note_on,,,,,0,0,3,,,,,2,,,65,92
75072,note_on,,,,,0,0,2,,,,,1,,,69,75
75072,note_on,,,,,0,0,1,,,,,0,,,65,75
75072,note_off,,,,,192,0,1,,,,,0,,,69,0
75072,note_off,,,,,192,0,3,,,,,2,,,69,0
75168,note_off,,,,,672,0,7,,,,,6,,,34,0
75168,note_off,,,,,672,0,8,,,,,7,,,62,0
75168,note_off,,,,,0,0,8,,,,,7,,,67,0
75168,note_off,,,,,0,0,8,,,,,7,,,70,0
75168,note_off,,,,,672,0,9,,,,,8,,,50,0
75264,note_off,,,,,768,0,6,,,,,5,,,46,0
75264,note_off,,,,,192,0,2,,,,,1,,,69,0
75264,note_on,,,,,0,0,2,,,,,1,,,70,75
75264,note_off,,,,,192,0,4,,,,,3,,,69,0
75264,note_on,,,,,0,0,1,,,,,0,,,67,75
75264,note_on,,,,,96,0,9,,,,,8,,,38,37
75264,note_on,,,,,96,0,7,,,,,6,,,46,63
75264,note_on,,,,,0,0,3,,,,,2,,,67,92
75264,note_off,,,,,192,0,3,,,,,2,,,65,0
75264,note_on,,,,,96,0,8,,,,,7,,,62,37
75264,note_on,,,,,0,0,8,,,,,7,,,69,37
75264,note_on,,,,,0,0,8,,,,,7,,,66,37
75264,note_off,,,,,768,0,5,,,,,4,,,65,0
75264,note_on,,,,,0,0,5,,,,,4,,,62,75
75264,note_on,,,,,0,0,4,,,,,3,,,70,92
75264,note_on,,,,,0,0,6,,,,,5,,,58,75
75264,note_off,,,,,192,0,1,,,,,0,,,65,0
75456,note_off,,,,,192,0,4,,,,,3,,,70,0
75456,note_on,,,,,0,0,3,,,,,2,,,64,92
75456,note_off,,,,,192,0,2,,,,,1,,,70,0
75456,note_on,,,,,0,0,4,,,,,3,,,67,92
75456,note_on,,,,,0,0,1,,,,,0,,,64,75
75456,note_off,,,,,192,0,1,,,,,0,,,67,0
75456,note_off,,,,,192,0,3,,,,,2,,,67,0
75456,note_on,,,,,0,0,2,,,,,1,,,67,75
75648,note_off,,,,,192,0,4,,,,,3,,,67,0
75648,note_on,,,,,0,0,1,,,,,0,,,65,75
75648,note_off,,,,,192,0,1,,,,,0,,,64,0
75648,note_off,,,,,192,0,3,,,,,2,,,64,0
75648,note_on,,,,,0,0,3,,,,,2,,,65,92
75648,note_off,,,,,192,0,2,,,,,1,,,67,0
75648,note_on,,,,,0,0,2,,,,,1,,,69,75
75648,note_on,,,,,0,0,4,,,,,3,,,69,92
75840,note_off,,,,,192,0,3,,,,,2,,,65,0
75840,note_on,,,,,0,0,2,,,,,1,,,65,75
75840,note_off,,,,,192,0,4,,,,,3,,,69,0
75840,note_on,,,,,0,0,4,,,,,3,,,65,92
75840,note_on,,,,,0,0,3,,,,,2,,,62,92
75840,note_on,,,,,0,0,1,,,,,0,,,62,75
75840,note_off,,,,,192,0,1,,,,,0,,,65,0
75840,note_off,,,,,192,0,2,,,,,1,,,69,0
75936,note_off,,,,,672,0,7,,,,,6,,,46,0
75936,note_off,,,,,672,0,8,,,,,7,,,62,0
75936,note_off,,,,,0,0,8,,,,,7,,,66,0
75936,note_off,,,,,672,0,9,,,,,8,,,38,0
75936,note_off,,,,,0,0,8,,,,,7,,,69,0
76032,note_off,,,,,192,0,3,,,,,2,,,62,0
76032,note_on,,,,,96,0,7,,,,,6,,,48,63
76032,note_off,,,,,192,0,2,,,,,1,,,65,0
76032,note_on,,,,,0,0,2,,,,,1,,,67,75
76032,note_off,,,,,192,0,4,,,,,3,,,65,0
76032,note_on,,,,,0,0,4,,,,,3,,,67,92
76032,note_on,,,,,0,0,3,,,,,2,,,64,92
76032,note_on,,,,,96,0,9,,,,,8,,,43,37
76032,note_off,,,,,192,0,1,,,,,0,,,62,0
76032,note_on,,,,,0,0,5,,,,,4,,,67,75
76032,note_on,,,,,0,0,1,,,,,0,,,64,75
76032,note_off,,,,,768,0,5,,,,,4,,,62,0
76032,note_off,,,,,768,0,6,,,,,5,,,58,0
76032,note_on,,,,,0,0,6,,,,,5,,,60,75
76032,note_on,,,,,96,0,8,,,,,7,,,62,37
76032,note_on,,,,,0,0,8,,,,,7,,,67,37
76032,note_on,,,,,0,0,8,,,,,7,,,70,37
76224,note_off,,,,,192,0,3,,,,,2,,,64,0
76224,note_on,,,,,0,0,3,,,,,2,,,60,92
76224,note_off,,,,,192,0,1,,,,,0,,,64,0
76224,note_on,,,,,0,0,1,,,,,0,,,60,75
76416,note_off,,,,,192,0,1,,,,,0,,,60,0
76416,note_off,,,,,192,0,3,,,,,2,,,60,0
76416,note_on,,,,,0,0,1,,,,,0,,,72,75
76416,note_on,,,,,0,0,3,,,,,2,,,72,92
76704,note_off,,,,,672,0,8,,,,,7,,,62,0
76704,note_off,,,,,0,0,8,,,,,7,,,67,0
76704,note_off,,,,,0,0,8,,,,,7,,,70,0
76704,note_off,,,,,672,0,9,,,,,8,,,43,0
76704,note_off,,,,,672,0,7,,,,,6,,,48,0
76800,note_off,,,,,768,0,4,,,,,3,,,67,0
76800,note_on,,,,,0,0,4,,,,,3,,,67,92
76800,note_off,,,,,768,0,5,,,,,4,,,67,0
76800,note_on,,,,,0,0,2,,,,,1,,,67,75
76800,note_on,,,,,96,0,7,,,,,6,,,43,63
76800,note_off,,,,,768,0,6,,,,,5,,,60,0
76800,note_on,,,,,0,0,6,,,,,5,,,55,75
76800,note_on,,,,,0,0,5,,,,,4,,,60,75
76800,note_off,,,,,768,0,2,,,,,1,,,67,0
76800,note_on,,,,,0,0,8,,,,,7,,,70,37
76800,note_on,,,,,96,0,8,,,,,7,,,62,37
76800,note_on,,,,,0,0,8,,,,,7,,,67,37
76800,note_on,,,,,96,0,9,,,,,8,,,46,37
76992,note_on,,,,,0,0,3,,,,,2,,,67,92
76992,note_off,,,,,576,0,1,,,,,0,,,72,0
76992,note_on,,,,,0,0,1,,,,,0,,,67,75
76992,note_off,,,,,576,0,3,,,,,2,,,72,0
77184,note_on,,,,,0,0,3,,,,,2,,,76,92
77184,note_off,,,,,192,0,3,,,,,2,,,67,0
77184,note_off,,,,,192,0,1,,,,,0,,,67,0
77184,note_on,,,,,0,0,1,,,,,0,,,76,75
77472,note_off,,,,,672,0,7,,,,,6,,,43,0
77472,note_off,,,,,672,0,8,,,,,7,,,62,0
77472,note_off,,,,,0,0,8,,,,,7,,,67,0
77472,note_off,,,,,0,0,8,,,,,7,,,70,0
77472,note_off,,,,,672,0,9,,,,,8,,,46,0
77568,note_on,,,,,0,0,4,,,,,3,,,72,92
77568,note_off,,,,,768,0,5,,,,,4,,,60,0
77568,note_on,,,,,0,0,8,,,,,7,,,70,37
77568,note_on,,,,,0,0,5,,,,,4,,,67,75
77568,note_on,,,,,96,0,9,,,,,8,,,43,37
77568,note_off,,,,,768,0,4,,,,,3,,,67,0
77568,note_on,,,,,96,0,7,,,,,6,,,36,63
77568,note_on,,,,,96,0,8,,,,,7,,,62,37
77568,note_on,,,,,0,0,8,,,,,7,,,67,37
77568,note_on,,,,,0,0,2,,,,,1,,,72,75
77568,note_off,,,,,768,0,2,,,,,1,,,67,0
77568,note_off,,,,,768,0,6,,,,,5,,,55,0
77568,note_on,,,,,0,0,6,,,,,5,,,48,75
77760,note_on,,,,,0,0,3,,,,,2,,,72,92
77760,note_off,,,,,576,0,3,,,,,2,,,76,0
77760,note_on,,,,,0,0,1,,,,,0,,,72,75
77760,note_off,,,,,576,0,1,,,,,0,,,76,0
77952,note_off,,,,,192,0,3,,,,,2,,,72,0
77952,note_on,,,,,0,0,3,,,,,2,,,79,92
77952,note_off,,,,,192,0,1,,,,,0,,,72,0
77952,note_on,,,,,0,0,1,,,,,0,,,79,75
78240,note_off,,,,,672,0,9,,,,,8,,,43,0
78240,note_off,,,,,672,0,7,,,,,6,,,36,0
78240,note_off,,,,,0,0,8,,,,,7,,,70,0
78240,note_off,,,,,0,0,8,,,,,7,,,67,0
78240,note_off,,,,,672,0,8,,,,,7,,,62,0
78336,note_on,,,,,96,0,8,,,,,7,,,60,37
78336,note_on,,,,,0,0,5,,,,,4,,,60,75
78336,note_on,,,,,0,0,2,,,,,1,,,69,75
78336,note_off,,,,,768,0,2,,,,,1,,,72,0
78336,note_off,,,,,384,0,3,,,,,2,,,79,0
78336,note_on,,,,,0,0,8,,,,,7,,,64,37
78336,note_on,,,,,0,0,6,,,,,5,,,57,75
78336,note_off,,,,,768,0,4,,,,,3,,,72,0
78336,note_on,,,,,0,0,4,,,,,3,,,69,92
78336,note_on,,,,,0,0,3,,,,,2,,,77,92
78336,note_off,,,,,768,0,5,,,,,4,,,67,0
78336,note_on,,,,,96,0,7,,,,,6,,,45,63
78336,note_on,,,,,0,0,1,,,,,0,,,77,75
78336,note_off,,,,,768,0,6,,,,,5,,,48,0
78336,note_off,,,,,384,0,1,,,,,0,,,79,0
78336,note_on,,,,,96,0,9,,,,,8,,,48,37
78336,note_on,,,,,0,0,8,,,,,7,,,68,37
78528,note_on,,,,,0,0,1,,,,,0,,,79,75
78528,note_off,,,,,192,0,1,,,,,0,,,77,0
78528,note_off,,,,,192,0,3,,,,,2,,,77,0
78528,note_on,,,,,0,0,3,,,,,2,,,79,92
78720,note_on,,,,,0,0,3,,,,,2,,,81,92
78720,note_off,,,,,192,0,3,,,,,2,,,79,0
78720,note_on,,,,,0,0,4,,,,,3,,,72,92
78720,note_off,,,,,384,0,4,,,,,3,,,69,0
78720,note_off,,,,,192,0,1,,,,,0,,,79,0
78720,note_on,,,,,0,0,1,,,,,0,,,81,75
78720,note_on,,,,,0,0,2,,,,,1,,,72,75
78720,note_off,,,,,384,0,2,,,,,1,,,69,0
78912,note_off,,,,,192,0,3,,,,,2,,,81,0
78912,note_on,,,,,0,0,3,,,,,2,,,77,92
78912,note_on,,,,,0,0,1,,,,,0,,,77,75
78912,note_off,,,,,192,0,1,,,,,0,,,81,0
79008,note_off,,,,,672,0,8,,,,,7,,,60,0
79008,note_off,,,,,0,0,8,,,,,7,,,64,0
79008,note_off,,,,,0,0,8,,,,,7,,,68,0
79008,note_off,,,,,672,0,7,,,,,6,,,45,0
79008,note_off,,,,,672,0,9,,,,,8,,,48,0
79104,note_on,,,,,0,0,6,,,,,5,,,52,75
79104,note_off,,,,,192,0,1,,,,,0,,,77,0
79104,note_off,,,,,768,0,5,,,,,4,,,60,0
79104,note_on,,,,,0,0,5,,,,,4,,,67,75
79104,note_on,,,,,0,0,3,,,,,2,,,79,92
79104,note_on,,,,,96,0,9,,,,,8,,,53,37
79104,note_off,,,,,768,0,6,,,,,5,,,57,0
79104,note_off,,,,,192,0,3,,,,,2,,,77,0
79104,note_on,,,,,0,0,8,,,,,7,,,65,37
79104,note_on,,,,,96,0,8,,,,,7,,,60,37
79104,note_on,,,,,96,0,7,,,,,6,,,40,63
79104,note_on,,,,,0,0,1,,,,,0,,,79,75
79104,note_on,,,,,0,0,8,,,,,7,,,68,37
79296,note_off,,,,,192,0,3,,,,,2,,,79,0
79296,note_on,,,,,0,0,3,,,,,2,,,81,92
79296,note_on,,,,,0,0,1,,,,,0,,,81,75
79296,note_off,,,,,192,0,1,,,,,0,,,79,0
79488,note_off,,,,,192,0,3,,,,,2,,,81,0
79488,note_on,,,,,0,0,1,,,,,0,,,82,75
79488,note_off,,,,,192,0,1,,,,,0,,,81,0
79488,note_on,,,,,0,0,3,,,,,2,,,82,92
79488,note_off,,,,,768,0,4,,,,,3,,,72,0
79488,note_off,,,,,768,0,2,,,,,1,,,72,0
79488,note_on,,,,,0,0,2,,,,,1,,,79,75
79488,note_on,,,,,0,0,4,,,,,3,,,79,92
79680,note_on,,,,,0,0,3,,,,,2,,,79,92
79680,note_off,,,,,192,0,1,,,,,0,,,82,0
79680,note_on,,,,,0,0,1,,,,,0,,,79,75
79680,note_off,,,,,192,0,3,,,,,2,,,82,0
79776,note_off,,,,,0,0,8,,,,,7,,,68,0
79776,note_off,,,,,0,0,8,,,,,7,,,65,0
79776,note_off,,,,,672,0,8,,,,,7,,,60,0
79776,note_off,,,,,672,0,7,,,,,6,,,40,0
79776,note_off,,,,,672,0,9,,,,,8,,,53,0
79872,note_off,,,,,768,0,6,,,,,5,,,52,0
79872,note_on,,,,,0,0,6,,,,,5,,,53,75
79872,note_off,,,,,768,0,5,,,,,4,,,67,0
79872,note_off,,,,,192,0,3,,,,,2,,,79,0
79872,note_on,,,,,0,0,3,,,,,2,,,81,92
79872,note_on,,,,,0,0,2,,,,,1,,,77,75
79872,note_off,,,,,384,0,2,,,,,1,,,79,0
79872,note_on,,,,,0,0,5,,,,,4,,,72,75
79872,note_on,,,,,0,0,8,,,,,7,,,68,37
79872,note_on,,,,,96,0,9,,,,,8,,,50,37
79872,note_on,,,,,96,0,8,,,,,7,,,58,37
79872,note_off,,,,,192,0,1,,,,,0,,,79,0
79872,note_off,,,,,384,0,4,,,,,3,,,79,0
79872,note_on,,,,,0,0,4,,,,,3,,,77,92
79872,note_on,,,,,0,0,8,,,,,7,,,65,37
79872,note_on,,,,,0,0,1,,,,,0,,,81,75
79872,note_on,,,,,96,0,7,,,,,6,,,41,63
80064,note_off,,,,,192,0,2,,,,,1,,,77,0
80064,note_on,,,,,0,0,4,,,,,3,,,69,92
80064,note_off,,,,,192,0,4,,,,,3,,,77,0
80064,note_off,,,,,192,0,3,,,,,2,,,81,0
80064,note_on,,,,,0,0,3,,,,,2,,,72,92
80064,note_on,,,,,0,0,1,,,,,0,,,72,75
80064,note_on,,,,,0,0,2,,,,,1,,,69,75
80064,note_off,,,,,192,0,1,,,,,0,,,81,0
80256,note_off,,,,,192,0,1,,,,,0,,,72,0
80256,note_on,,,,,0,0,1,,,,,0,,,74,75
80256,note_off,,,,,192,0,4,,,,,3,,,69,0
80256,note_on,,,,,0,0,4,,,,,3,,,70,92
80256,note_off,,,,,192,0,2,,,,,1,,,69,0
80256,note_on,,,,,0,0,2,,,,,1,,,70,75
80256,note_off,,,,,192,0,3,,,,,2,,,72,0
80256,note_on,,,,,0,0,3,,,,,2,,,74,92
80448,note_off,,,,,192,0,4,,,,,3,,,70,0
80448,note_on,,,,,0,0,1,,,,,0,,,76,75
80448,note_on,,,,,0,0,4,,,,,3,,,72,92
80448,note_off,,,,,192,0,1,,,,,0,,,74,0
80448,note_on,,,,,0,0,3,,,,,2,,,76,92
80448,note_off,,,,,192,0,2,,,,,1,,,70,0
80448,note_off,,,,,192,0,3,,,,,2,,,74,0
80448,note_on,,,,,0,0,2,,,,,1,,,72,75
80544,note_off,,,,,0,0,8,,,,,7,,,65,0
80544,note_off,,,,,672,0,8,,,,,7,,,58,0
80544,note_off,,,,,672,0,7,,,,,6,,,41,0
80544,note_off,,,,,672,0,9,,,,,8,,,50,0
80544,note_off,,,,,0,0,8,,,,,7,,,68,0
80640,note_on,,,,,96,0,9,,,,,8,,,51,37
80640,note_on,,,,,0,0,5,,,,,4,,,65,75
80640,note_off,,,,,768,0,5,,,,,4,,,72,0
80640,note_on,,,,,0,0,4,,,,,3,,,74,92
80640,note_off,,,,,192,0,4,,,,,3,,,72,0
80640,note_on,,,,,0,0,6,,,,,5,,,50,75
80640,note_off,,,,,768,0,6,,,,,5,,,53,0
80640,note_on,,,,,0,0,2,,,,,1,,,74,75
80640,note_on,,,,,0,0,1,,,,,0,,,77,75
80640,note_on,,,,,0,0,8,,,,,7,,,63,37
80640,note_on,,,,,96,0,8,,,,,7,,,58,37
80640,note_on,,,,,0,0,8,,,,,7,,,67,37
80640,note_on,,,,,96,0,7,,,,,6,,,38,63
80640,note_off,,,,,192,0,3,,,,,2,,,76,0
80640,note_on,,,,,0,0,3,,,,,2,,,77,92
80640,note_off,,,,,192,0,2,,,,,1,,,72,0
80640,note_off,,,,,192,0,1,,,,,0,,,76,0
80832,note_off,,,,,192,0,4,,,,,3,,,74,0
80832,note_on,,,,,0,0,4,,,,,3,,,76,92
80832,note_on,,,,,0,0,1,,,,,0,,,79,75
80832,note_off,,,,,192,0,1,,,,,0,,,77,0
80832,note_on,,,,,0,0,3,,,,,2,,,79,92
80832,note_off,,,,,192,0,3,,,,,2,,,77,0
80832,note_off,,,,,192,0,2,,,,,1,,,74,0
80832,note_on,,,,,0,0,2,,,,,1,,,76,75
80960,note_off,,,,,320,0,7,,,,,6,,,38,0
81024,note_on,,,,,0,0,3,,,,,2,,,81,92
81024,note_on,,,,,64,0,7,,,,,6,,,33,63
81024,note_off,,,,,384,0,6,,,,,5,,,50,0
81024,note_on,,,,,0,0,6,,,,,5,,,45,75
81024,note_off,,,,,192,0,2,,,,,1,,,76,0
81024,note_off,,,,,192,0,3,,,,,2,,,79,0
81024,note_on,,,,,0,0,2,,,,,1,,,77,75
81024,note_on,,,,,0,0,4,,,,,3,,,77,92
81024,note_off,,,,,192,0,4,,,,,3,,,76,0
81024,note_on,,,,,0,0,1,,,,,0,,,81,75
81024,note_off,,,,,192,0,1,,,,,0,,,79,0
81216,note_on,,,,,0,0,1,,,,,0,,,77,75
81216,note_off,,,,,192,0,1,,,,,0,,,81,0
81216,note_off,,,,,192,0,3,,,,,2,,,81,0
81216,note_on,,,,,0,0,3,,,,,2,,,77,92
81312,note_off,,,,,0,0,8,,,,,7,,,67,0
81312,note_off,,,,,0,0,8,,,,,7,,,63,0
81312,note_off,,,,,672,0,9,,,,,8,,,51,0
81312,note_off,,,,,672,0,8,,,,,7,,,58,0
81344,note_off,,,,,320,0,7,,,,,6,,,33,0
81408,note_on,,,,,0,0,5,,,,,4,,,62,75
81408,note_on,,,,,96,0,8,,,,,7,,,58,37
81408,note_on,,,,,0,0,8,,,,,7,,,63,37
81408,note_on,,,,,0,0,8,,,,,7,,,70,37
81408,note_on,,,,,64,0,7,,,,,6,,,34,63
81408,note_off,,,,,768,0,5,,,,,4,,,65,0
81408,note_on,,,,,96,0,9,,,,,8,,,55,37
81408,note_off,,,,,192,0,3,,,,,2,,,77,0
81408,note_off,,,,,192,0,1,,,,,0,,,77,0
81408,note_on,,,,,0,0,1,,,,,0,,,79,75
81408,note_on,,,,,0,0,6,,,,,5,,,46,75
81408,note_off,,,,,384,0,6,,,,,5,,,45,0
81408,note_on,,,,,0,0,3,,,,,2,,,79,92
81600,note_off,,,,,192,0,1,,,,,0,,,79,0
81600,note_on,,,,,0,0,1,,,,,0,,,81,75
81600,note_on,,,,,0,0,3,,,,,2,,,81,92
81600,note_off,,,,,192,0,3,,,,,2,,,79,0
81728,note_off,,,,,320,0,7,,,,,6,,,34,0
81792,note_off,,,,,192,0,3,,,,,2,,,81,0
81792,note_off,,,,,768,0,2,,,,,1,,,77,0
81792,note_on,,,,,0,0,1,,,,,0,,,82,75
81792,note_on,,,,,0,0,5,,,,,4,,,60,75
81792,note_on,,,,,0,0,2,,,,,1,,,76,75
81792,note_off,,,,,384,0,6,,,,,5,,,46,0
81792,note_on,,,,,0,0,6,,,,,5,,,48,75
81792,note_on,,,,,64,0,7,,,,,6,,,36,63
81792,note_off,,,,,384,0,5,,,,,4,,,62,0
81792,note_off,,,,,192,0,1,,,,,0,,,81,0
81792,note_on,,,,,0,0,3,,,,,2,,,82,92
81792,note_on,,,,,0,0,4,,,,,3,,,76,92
81792,note_off,,,,,768,0,4,,,,,3,,,77,0
81984,note_on,,,,,0,0,1,,,,,0,,,79,75
81984,note_on,,,,,0,0,3,,,,,2,,,79,92
81984,note_off,,,,,192,0,3,,,,,2,,,82,0
81984,note_off,,,,,192,0,1,,,,,0,,,82,0
82080,note_off,,,,,672,0,8,,,,,7,,,58,0
82080,note_off,,,,,672,0,9,,,,,8,,,55,0
82080,note_off,,,,,0,0,8,,,,,7,,,63,0
82112,note_off,,,,,320,0,7,,,,,6,,,36,0
82176,note_on,,,,,0,0,8,,,,,7,,,63,37
82176,note_on,,,,,0,0,2,,,,,1,,,77,75
82176,note_off,,,,,384,0,2,,,,,1,,,76,0
82176,note_on,,,,,0,0,5,,,,,4,,,60,75
82176,note_on,,,,,96,0,8,,,,,7,,,60,37
82176,note_off,,,,,384,0,4,,,,,3,,,76,0
82176,note_on,,,,,96,0,9,,,,,8,,,56,37
82176,note_on,,,,,0,0,4,,,,,3,,,77,92
82176,note_on,,,,,0,0,3,,,,,2,,,81,92
82176,note_off,,,,,192,0,3,,,,,2,,,79,0
82176,note_on,,,,,0,0,6,,,,,5,,,41,75
82176,note_off,,,,,384,0,6,,,,,5,,,48,0
82176,note_off,,,,,192,0,1,,,,,0,,,79,0
82176,note_on,,,,,0,0,1,,,,,0,,,81,75
82176,note_off,,,,,384,0,5,,,,,4,,,60,0
82176,note_on,,,,,64,0,7,,,,,6,,,29,63
82368,note_on,,,,,0,0,3,,,,,2,,,72,92
82368,note_off,,,,,192,0,3,,,,,2,,,81,0
82368,note_on,,,,,0,0,1,,,,,0,,,72,75
82368,note_off,,,,,192,0,1,,,,,0,,,81,0
82496,note_off,,,,,320,0,8,,,,,7,,,70,0
82560,note_off,,,,,192,0,1,,,,,0,,,72,0
82560,note_on,,,,,0,0,1,,,,,0,,,74,75
82560,note_off,,,,,384,0,4,,,,,3,,,77,0
82560,note_on,,,,,0,0,4,,,,,3,,,69,92
82560,note_on,,,,,0,0,5,,,,,4,,,65,75
82560,note_on,,,,,0,0,2,,,,,1,,,69,75
82560,note_off,,,,,192,0,3,,,,,2,,,72,0
82560,note_off,,,,,384,0,2,,,,,1,,,77,0
82560,note_on,,,,,64,0,8,,,,,7,,,68,37
82560,note_off,,,,,384,0,5,,,,,4,,,60,0
82560,note_on,,,,,0,0,3,,,,,2,,,74,92
82752,note_off,,,,,192,0,3,,,,,2,,,74,0
82752,note_on,,,,,0,0,3,,,,,2,,,72,92
82752,note_on,,,,,0,0,1,,,,,0,,,72,75
82752,note_off,,,,,192,0,1,,,,,0,,,74,0
82848,note_off,,,,,288,0,8,,,,,7,,,60,0
82848,note_off,,,,,672,0,9,,,,,8,,,56,0
82848,note_off,,,,,0,0,8,,,,,7,,,63,0
82848,note_off,,,,,672,0,7,,,,,6,,,29,0
82944,note_on,,,,,96,0,9,,,,,8,,,58,37
82944,note_on,,,,,96,0,8,,,,,7,,,62,37
82944,note_off,,,,,384,0,5,,,,,4,,,65,0
82944,note_on,,,,,0,0,2,,,,,1,,,70,75
82944,note_off,,,,,384,0,2,,,,,1,,,69,0
82944,note_on,,,,,0,0,5,,,,,4,,,65,75
82944,note_on,,,,,0,0,6,,,,,5,,,53,75
82944,note_on,,,,,0,0,3,,,,,2,,,74,92
82944,note_off,,,,,192,0,3,,,,,2,,,72,0
82944,note_off,,,,,768,0,6,,,,,5,,,41,0
82944,note_off,,,,,192,0,1,,,,,0,,,72,0
82944,note_on,,,,,0,0,1,,,,,0,,,74,75
82944,note_on,,,,,96,0,7,,,,,6,,,41,63
82944,note_off,,,,,384,0,4,,,,,3,,,69,0
82944,note_on,,,,,0,0,4,,,,,3,,,70,92
83136,note_on,,,,,0,0,5,,,,,4,,,62,75
83136,note_off,,,,,192,0,5,,,,,4,,,65,0
83136,note_on,,,,,0,0,2,,,,,1,,,65,75
83136,note_off,,,,,192,0,1,,,,,0,,,74,0
83136,note_off,,,,,192,0,2,,,,,1,,,70,0
83136,note_off,,,,,192,0,4,,,,,3,,,70,0
83136,note_on,,,,,0,0,4,,,,,3,,,65,92
83136,note_on,,,,,0,0,3,,,,,2,,,70,92
83136,note_off,,,,,192,0,3,,,,,2,,,74,0
83136,note_on,,,,,0,0,1,,,,,0,,,70,75
83232,note_off,,,,,288,0,8,,,,,7,,,68,64
83264,note_off,,,,,320,0,9,,,,,8,,,58,0
83264,note_off,,,,,32,0,8,,,,,7,,,62,0
83328,note_on,,,,,0,0,5,,,,,4,,,70,75
83328,note_off,,,,,192,0,5,,,,,4,,,62,0
83328,note_off,,,,,192,0,4,,,,,3,,,65,0
83328,note_on,,,,,0,0,1,,,,,0,,,77,75
83328,note_off,,,,,192,0,1,,,,,0,,,70,0
83328,note_on,,,,,0,0,3,,,,,2,,,77,92
83328,note_off,,,,,192,0,3,,,,,2,,,70,0
83328,note_on,,,,,64,0,9,,,,,8,,,60,37
83328,note_on,,,,,0,0,4,,,,,3,,,74,92
83328,note_off,,,,,192,0,2,,,,,1,,,65,0
83328,note_on,,,,,64,0,8,,,,,7,,,63,37
83328,note_on,,,,,0,0,2,,,,,1,,,74,75
83328,note_on,,,,,0,0,8,,,,,7,,,67,37
83616,note_off,,,,,672,0,7,,,,,6,,,41,0
83648,note_off,,,,,320,0,8,,,,,7,,,63,0
83648,note_off,,,,,0,0,8,,,,,7,,,67,0
83712,note_off,,,,,384,0,4,,,,,3,,,74,0
83712,note_on,,,,,0,0,1,,,,,0,,,74,75
83712,note_off,,,,,384,0,1,,,,,0,,,77,0
83712,note_on,,,,,0,0,6,,,,,5,,,53,75
83712,note_on,,,,,96,0,7,,,,,6,,,41,63
83712,note_on,,,,,0,0,3,,,,,2,,,74,92
83712,note_off,,,,,384,0,3,,,,,2,,,77,0
83712,note_on,,,,,0,0,2,,,,,1,,,70,75
83712,note_off,,,,,384,0,2,,,,,1,,,74,0
83712,note_off,,,,,768,0,6,,,,,5,,,53,0
83712,note_off,,,,,384,0,5,,,,,4,,,70,0
83712,note_on,,,,,0,0,4,,,,,3,,,70,92
83712,note_on,,,,,384,0,9,,,,,8,,,56,37
83712,note_on,,,,,64,0,8,,,,,7,,,63,37
83712,note_on,,,,,0,0,8,,,,,7,,,65,37
83712,note_on,,,,,0,0,5,,,,,4,,,65,75
83904,note_off,,,,,192,0,5,,,,,4,,,65,0
83904,note_off,,,,,192,0,4,,,,,3,,,70,0
83904,note_on,,,,,0,0,4,,,,,3,,,65,92
83904,note_off,,,,,192,0,2,,,,,1,,,70,0
83904,note_on,,,,,0,0,2,,,,,1,,,65,75
83904,note_off,,,,,192,0,3,,,,,2,,,74,0
83904,note_on,,,,,0,0,3,,,,,2,,,70,92
83904,note_on,,,,,0,0,1,,,,,0,,,70,75
83904,note_off,,,,,192,0,1,,,,,0,,,74,0
83904,note_on,,,,,0,0,5,,,,,4,,,62,75
84096,note_on,,,,,0,0,1,,,,,0,,,77,75
84096,note_on,,,,,0,0,3,,,,,2,,,77,92
84096,note_off,,,,,192,0,3,,,,,2,,,70,0
84096,note_off,,,,,192,0,1,,,,,0,,,70,0
84096,note_on,,,,,0,0,4,,,,,3,,,74,92
84096,note_on,,,,,0,0,5,,,,,4,,,70,75
84096,note_off,,,,,192,0,4,,,,,3,,,65,0
84096,note_off,,,,,192,0,5,,,,,4,,,62,0
84096,note_on,,,,,0,0,2,,,,,1,,,74,75
84096,note_off,,,,,192,0,2,,,,,1,,,65,0
84384,note_off,,,,,672,0,9,,,,,8,,,60,0
84384,note_off,,,,,0,0,9,,,,,8,,,56,0
84384,note_off,,,,,0,0,8,,,,,7,,,65,0
84384,note_off,,,,,672,0,7,,,,,6,,,41,0
84384,note_off,,,,,672,0,8,,,,,7,,,63,0
84480,note_on,,,,,0,0,5,,,,,4,,,65,75
84480,note_off,,,,,384,0,3,,,,,2,,,77,0
84480,note_on,,,,,0,0,3,,,,,2,,,74,92
84480,note_off,,,,,384,0,4,,,,,3,,,74,0
84480,note_on,,,,,0,0,4,,,,,3,,,70,92
84480,note_off,,,,,384,0,5,,,,,4,,,70,0
84480,note_off,,,,,384,0,2,,,,,1,,,74,0
84480,note_on,,,,,0,0,6,,,,,5,,,53,75
84480,note_off,,,,,768,0,6,,,,,5,,,53,0
84480,note_off,,,,,384,0,1,,,,,0,,,77,0
84480,note_on,,,,,0,0,1,,,,,0,,,74,75
84480,note_on,,,,,96,0,8,,,,,7,,,62,37
84480,note_on,,,,,0,0,8,,,,,7,,,65,37
84480,note_on,,,,,96,0,9,,,,,8,,,58,37
84480,note_on,,,,,96,0,7,,,,,6,,,41,63
84480,note_on,,,,,0,0,2,,,,,1,,,70,75
84672,note_on,,,,,0,0,2,,,,,1,,,65,75
84672,note_off,,,,,192,0,4,,,,,3,,,70,0
84672,note_on,,,,,0,0,1,,,,,0,,,70,75
84672,note_off,,,,,192,0,1,,,,,0,,,74,0
84672,note_off,,,,,192,0,2,,,,,1,,,70,0
84672,note_off,,,,,192,0,5,,,,,4,,,65,0
84672,note_on,,,,,0,0,4,,,,,3,,,65,92
84672,note_on,,,,,0,0,3,,,,,2,,,70,92
84672,note_off,,,,,192,0,3,,,,,2,,,74,0
84672,note_on,,,,,0,0,5,,,,,4,,,62,75
84800,note_off,,,,,320,0,8,,,,,7,,,65,0
84864,note_off,,,,,192,0,3,,,,,2,,,70,0
84864,note_on,,,,,64,0,8,,,,,7,,,68,37
84864,note_off,,,,,192,0,1,,,,,0,,,70,0
84864,note_on,,,,,0,0,3,,,,,2,,,77,92
84864,note_on,,,,,0,0,4,,,,,3,,,74,92
84864,note_on,,,,,0,0,1,,,,,0,,,77,75
84864,note_off,,,,,192,0,2,,,,,1,,,65,0
84864,note_on,,,,,0,0,2,,,,,1,,,74,75
84864,note_off,,,,,192,0,4,,,,,3,,,65,0
84864,note_on,,,,,0,0,5,,,,,4,,,70,75
84864,note_off,,,,,192,0,5,,,,,4,,,62,0
85152,note_off,,,,,672,0,7,,,,,6,,,41,0
85152,note_off,,,,,672,0,9,,,,,8,,,58,0
85152,note_off,,,,,288,0,8,,,,,7,,,62,0
85248,note_on,,,,,0,0,5,,,,,4,,,65,75
85248,note_on,,,,,96,0,7,,,,,6,,,41,63
85248,note_on,,,,,0,0,3,,,,,2,,,72,92
85248,note_on,,,,,0,0,2,,,,,1,,,69,75
85248,note_off,,,,,384,0,5,,,,,4,,,70,0
85248,note_on,,,,,0,0,6,,,,,5,,,53,75
85248,note_off,,,,,768,0,6,,,,,5,,,53,0
85248,note_off,,,,,384,0,2,,,,,1,,,74,0
85248,note_on,,,,,0,0,1,,,,,0,,,72,75
85248,note_on,,,,,96,0,8,,,,,7,,,63,37
85248,note_off,,,,,384,0,1,,,,,0,,,77,0
85248,note_off,,,,,384,0,4,,,,,3,,,74,0
85248,note_on,,,,,96,0,9,,,,,8,,,51,37
85248,note_on,,,,,0,0,4,,,,,3,,,69,92
85248,note_on,,,,,0,0,9,,,,,8,,,58,37
85248,note_off,,,,,384,0,3,,,,,2,,,77,0
85440,note_off,,,,,192,0,1,,,,,0,,,72,0
85440,note_on,,,,,0,0,1,,,,,0,,,69,75
85440,note_off,,,,,192,0,4,,,,,3,,,69,0
85440,note_on,,,,,0,0,4,,,,,3,,,65,92
85440,note_on,,,,,0,0,5,,,,,4,,,60,75
85440,note_off,,,,,192,0,2,,,,,1,,,69,0
85440,note_off,,,,,192,0,3,,,,,2,,,72,0
85440,note_on,,,,,0,0,2,,,,,1,,,65,75
85440,note_on,,,,,0,0,3,,,,,2,,,69,92
85440,note_off,,,,,192,0,5,,,,,4,,,65,0
85536,note_off,,,,,288,0,8,,,,,7,,,68,64
85632,note_on,,,,,0,0,4,,,,,3,,,72,92
85632,note_off,,,,,192,0,4,,,,,3,,,65,0
85632,note_on,,,,,0,0,1,,,,,0,,,77,75
85632,note_on,,,,,0,0,5,,,,,4,,,69,75
85632,note_off,,,,,192,0,5,,,,,4,,,60,0
85632,note_off,,,,,192,0,1,,,,,0,,,69,0
85632,note_off,,,,,192,0,3,,,,,2,,,69,0
85632,note_on,,,,,0,0,3,,,,,2,,,77,92
85632,note_off,,,,,192,0,2,,,,,1,,,65,0
85632,note_on,,,,,96,0,8,,,,,7,,,67,37
85632,note_on,,,,,0,0,2,,,,,1,,,72,75
85920,note_off,,,,,0,0,9,,,,,8,,,58,0
85920,note_off,,,,,672,0,7,,,,,6,,,41,0
85920,note_off,,,,,288,0,8,,,,,7,,,63,0
85920,note_off,,,,,672,0,9,,,,,8,,,51,0
85952,note_off,,,,,32,0,8,,,,,7,,,67,0
86016,note_off,,,,,384,0,3,,,,,2,,,77,0
86016,note_on,,,,,0,0,3,,,,,2,,,72,92
86016,note_on,,,,,0,0,2,,,,,1,,,69,75
86016,note_off,,,,,768,0,6,,,,,5,,,53,0
86016,note_off,,,,,384,0,2,,,,,1,,,72,0
86016,note_on,,,,,0,0,6,,,,,5,,,53,75
86016,note_off,,,,,384,0,4,,,,,3,,,72,0
86016,note_off,,,,,384,0,5,,,,,4,,,69,0
86016,note_on,,,,,0,0,4,,,,,3,,,69,92
86016,note_on,,,,,96,0,7,,,,,6,,,41,63
86016,note_on,,,,,0,0,1,,,,,0,,,72,75
86016,note_on,,,,,96,0,9,,,,,8,,,55,37
86016,note_on,,,,,0,0,9,,,,,8,,,58,37
86016,note_on,,,,,0,0,8,,,,,7,,,70,37
86016,note_on,,,,,64,0,8,,,,,7,,,63,37
86016,note_on,,,,,0,0,5,,,,,4,,,65,75
86016,note_off,,,,,384,0,1,,,,,0,,,77,0
86208,note_off,,,,,192,0,5,,,,,4,,,65,0
86208,note_off,,,,,192,0,4,,,,,3,,,69,0
86208,note_on,,,,,0,0,4,,,,,3,,,65,92
86208,note_off,,,,,192,0,3,,,,,2,,,72,0
86208,note_on,,,,,0,0,3,,,,,2,,,69,92
86208,note_on,,,,,0,0,2,,,,,1,,,65,75
86208,note_off,,,,,192,0,1,,,,,0,,,72,0
86208,note_on,,,,,0,0,1,,,,,0,,,69,75
86208,note_off,,,,,192,0,2,,,,,1,,,69,0
86208,note_on,,,,,0,0,5,,,,,4,,,60,75
86400,note_on,,,,,0,0,2,,,,,1,,,72,75
86400,note_on,,,,,0,0,5,,,,,4,,,69,75
86400,note_off,,,,,192,0,2,,,,,1,,,65,0
86400,note_off,,,,,192,0,3,,,,,2,,,69,0
86400,note_off,,,,,192,0,4,,,,,3,,,65,0
86400,note_on,,,,,0,0,1,,,,,0,,,77,75
86400,note_on,,,,,0,0,4,,,,,3,,,72,92
86400,note_off,,,,,192,0,1,,,,,0,,,69,0
86400,note_off,,,,,192,0,5,,,,,4,,,60,0
86400,note_on,,,,,0,0,3,,,,,2,,,77,92
86688,note_off,,,,,672,0,7,,,,,6,,,41,0
86688,note_off,,,,,672,0,9,,,,,8,,,55,0
86688,note_off,,,,,0,0,9,,,,,8,,,58,0
86688,note_off,,,,,672,0,8,,,,,7,,,63,0
86688,note_off,,,,,0,0,8,,,,,7,,,70,0
86784,note_off,,,,,384,0,4,,,,,3,,,72,0
86784,note_on,,,,,0,0,4,,,,,3,,,69,92
86784,note_on,,,,,0,0,5,,,,,4,,,65,75
86784,note_off,,,,,768,0,6,,,,,5,,,53,0
86784,note_on,,,,,0,0,1,,,,,0,,,72,75
86784,note_on,,,,,0,0,6,,,,,5,,,53,75
86784,note_on,,,,,0,0,9,,,,,8,,,58,37
86784,note_on,,,,,0,0,2,,,,,1,,,69,75
86784,note_off,,,,,384,0,2,,,,,1,,,72,0
86784,note_off,,,,,384,0,1,,,,,0,,,77,0
86784,note_on,,,,,0,0,3,,,,,2,,,72,92
86784,note_off,,,,,384,0,5,,,,,4,,,69,0
86784,note_on,,,,,0,0,8,,,,,7,,,67,37
86784,note_on,,,,,96,0,8,,,,,7,,,63,37
86784,note_on,,,,,96,0,7,,,,,6,,,41,63
86784,note_on,,,,,96,0,9,,,,,8,,,51,37
86784,note_off,,,,,384,0,3,,,,,2,,,77,0
86976,note_off,,,,,192,0,2,,,,,1,,,69,0
86976,note_off,,,,,192,0,1,,,,,0,,,72,0
86976,note_on,,,,,0,0,1,,,,,0,,,69,75
86976,note_off,,,,,192,0,3,,,,,2,,,72,0
86976,note_off,,,,,192,0,5,,,,,4,,,65,0
86976,note_on,,,,,0,0,2,,,,,1,,,65,75
86976,note_on,,,,,0,0,5,,,,,4,,,60,75
86976,note_on,,,,,0,0,3,,,,,2,,,69,92
86976,note_off,,,,,192,0,4,,,,,3,,,69,0
86976,note_on,,,,,0,0,4,,,,,3,,,65,92
87168,note_on,,,,,0,0,3,,,,,2,,,77,92
87168,note_off,,,,,192,0,3,,,,,2,,,69,0
87168,note_on,,,,,0,0,2,,,,,1,,,72,75
87168,note_on,,,,,0,0,4,,,,,3,,,72,92
87168,note_off,,,,,192,0,4,,,,,3,,,65,0
87168,note_off,,,,,192,0,1,,,,,0,,,69,0
87168,note_on,,,,,0,0,1,,,,,0,,,77,75
87168,note_off,,,,,192,0,2,,,,,1,,,65,0
87168,note_off,,,,,192,0,5,,,,,4,,,60,0
87168,note_on,,,,,0,0,5,,,,,4,,,69,75
87456,note_off,,,,,0,0,8,,,,,7,,,67,0
87456,note_off,,,,,672,0,7,,,,,6,,,41,0
87456,note_off,,,,,672,0,9,,,,,8,,,51,0
87456,note_off,,,,,0,0,9,,,,,8,,,58,0
87456,note_off,,,,,672,0,8,,,,,7,,,63,0
87552,note_on,,,,,0,0,8,,,,,7,,,67,37
87552,note_on,,,,,0,0,5,,,,,4,,,65,75
87552,note_on,,,,,96,0,7,,,,,6,,,41,63
87552,note_off,,,,,384,0,5,,,,,4,,,69,0
87552,note_off,,,,,384,0,2,,,,,1,,,72,0
87552,note_on,,,,,0,0,2,,,,,1,,,67,75
87552,note_on,,,,,96,0,9,,,,,8,,,47,37
87552,note_on,,,,,0,0,6,,,,,5,,,53,75
87552,note_off,,,,,768,0,6,,,,,5,,,53,0
87552,note_on,,,,,96,0,8,,,,,7,,,62,37
87552,note_off,,,,,384,0,4,,,,,3,,,72,0
87552,note_off,,,,,384,0,1,,,,,0,,,77,0
87552,note_on,,,,,0,0,1,,,,,0,,,70,75
87552,note_on,,,,,0,0,3,,,,,2,,,70,92
87552,note_off,,,,,384,0,3,,,,,2,,,77,0
87552,note_on,,,,,0,0,4,,,,,3,,,67,92
87744,note_on,,,,,0,0,3,,,,,2,,,67,92
87744,note_off,,,,,192,0,1,,,,,0,,,70,0
87744,note_on,,,,,0,0,1,,,,,0,,,67,75
87744,note_off,,,,,192,0,3,,,,,2,,,70,0
87936,note_off,,,,,192,0,3,,,,,2,,,67,0
87936,note_off,,,,,384,0,5,,,,,4,,,65,0
87936,note_on,,,,,0,0,3,,,,,2,,,79,92
87936,note_on,,,,,0,0,5,,,,,4,,,70,75
87936,note_on,,,,,0,0,4,,,,,3,,,74,92
87936,note_on,,,,,0,0,1,,,,,0,,,79,75
87936,note_off,,,,,192,0,1,,,,,0,,,67,0
87936,note_off,,,,,384,0,2,,,,,1,,,67,0
87936,note_on,,,,,0,0,2,,,,,1,,,74,75
87936,note_off,,,,,384,0,4,,,,,3,,,67,0
88224,note_off,,,,,672,0,8,,,,,7,,,62,0
88224,note_off,,,,,0,0,8,,,,,7,,,67,0
88224,note_off,,,,,672,0,7,,,,,6,,,41,0
88224,note_off,,,,,672,0,9,,,,,8,,,47,0
88320,note_on,,,,,0,0,1,,,,,0,,,70,75
88320,note_off,,,,,384,0,1,,,,,0,,,79,0
88320,note_on,,,,,0,0,8,,,,,7,,,67,37
88320,note_on,,,,,0,0,5,,,,,4,,,62,75
88320,note_off,,,,,384,0,3,,,,,2,,,79,0
88320,note_on,,,,,0,0,3,,,,,2,,,70,92
88320,note_on,,,,,0,0,6,,,,,5,,,53,75
88320,note_off,,,,,768,0,6,,,,,5,,,53,0
88320,note_on,,,,,0,0,8,,,,,7,,,62,37
88320,note_on,,,,,96,0,9,,,,,8,,,43,37
88320,note_off,,,,,384,0,5,,,,,4,,,70,0
88320,note_on,,,,,96,0,7,,,,,6,,,41,63
88320,note_on,,,,,96,0,8,,,,,7,,,59,37
88512,note_on,,,,,0,0,3,,,,,2,,,67,92
88512,note_on,,,,,0,0,1,,,,,0,,,67,75
88512,note_off,,,,,192,0,3,,,,,2,,,70,0
88512,note_off,,,,,192,0,1,,,,,0,,,70,0
88704,note_on,,,,,0,0,1,,,,,0,,,79,75
88704,note_on,,,,,0,0,3,,,,,2,,,79,92
88704,note_off,,,,,768,0,2,,,,,1,,,74,0
88704,note_on,,,,,0,0,2,,,,,1,,,70,75
88704,note_off,,,,,384,0,5,,,,,4,,,62,0
88704,note_on,,,,,0,0,5,,,,,4,,,67,75
88704,note_off,,,,,192,0,1,,,,,0,,,67,0
88704,note_off,,,,,768,0,4,,,,,3,,,74,0
88704,note_on,,,,,0,0,4,,,,,3,,,70,92
88704,note_off,,,,,192,0,3,,,,,2,,,67,0
88992,note_off,,,,,0,0,8,,,,,7,,,67,0
88992,note_off,,,,,0,0,8,,,,,7,,,62,0
88992,note_off,,,,,672,0,8,,,,,7,,,59,0
88992,note_off,,,,,672,0,7,,,,,6,,,41,0
88992,note_off,,,,,672,0,9,,,,,8,,,43,0
89088,note_off,,,,,768,0,6,,,,,5,,,53,0
89088,note_on,,,,,0,0,6,,,,,5,,,52,75
89088,note_on,,,,,0,0,1,,,,,0,,,70,75
89088,note_on,,,,,96,0,8,,,,,7,,,62,37
89088,note_on,,,,,0,0,8,,,,,7,,,65,37
89088,note_on,,,,,0,0,8,,,,,7,,,67,37
89088,note_on,,,,,0,0,2,,,,,1,,,67,75
89088,note_off,,,,,384,0,2,,,,,1,,,70,0
89088,note_on,,,,,96,0,7,,,,,6,,,40,63
89088,note_off,,,,,384,0,1,,,,,0,,,79,0
89088,note_off,,,,,384,0,3,,,,,2,,,79,0
89088,note_off,,,,,384,0,4,,,,,3,,,70,0
89088,note_on,,,,,0,0,4,,,,,3,,,67,92
89088,note_on,,,,,0,0,5,,,,,4,,,60,75
89088,note_off,,,,,384,0,5,,,,,4,,,67,0
89088,note_on,,,,,96,0,9,,,,,8,,,47,37
89088,note_on,,,,,0,0,3,,,,,2,,,70,92
89280,note_on,,,,,0,0,3,,,,,2,,,67,92
89280,note_off,,,,,192,0,3,,,,,2,,,70,0
89280,note_off,,,,,192,0,1,,,,,0,,,70,0
89280,note_on,,,,,0,0,1,,,,,0,,,67,75
89472,note_off,,,,,384,0,2,,,,,1,,,67,0
89472,note_off,,,,,192,0,3,,,,,2,,,67,0
89472,note_off,,,,,384,0,4,,,,,3,,,67,0
89472,note_on,,,,,0,0,2,,,,,1,,,64,75
89472,note_on,,,,,0,0,4,,,,,3,,,64,92
89472,note_on,,,,,0,0,3,,,,,2,,,72,92
89472,note_off,,,,,192,0,1,,,,,0,,,67,0
89472,note_on,,,,,0,0,1,,,,,0,,,72,75
89664,note_off,,,,,192,0,3,,,,,2,,,72,0
89664,note_on,,,,,0,0,3,,,,,2,,,67,92
89664,note_off,,,,,192,0,1,,,,,0,,,72,0
89664,note_on,,,,,0,0,1,,,,,0,,,67,75
89760,note_off,,,,,672,0,7,,,,,6,,,40,0
89760,note_off,,,,,672,0,8,,,,,7,,,62,0
89760,note_off,,,,,0,0,8,,,,,7,,,65,0
89760,note_off,,,,,0,0,8,,,,,7,,,67,0
89760,note_off,,,,,672,0,9,,,,,8,,,47,0
89856,note_on,,,,,0,0,8,,,,,7,,,63,37
89856,note_on,,,,,0,0,5,,,,,4,,,65,75
89856,note_off,,,,,768,0,5,,,,,4,,,60,0
89856,note_on,,,,,0,0,3,,,,,2,,,69,92
89856,note_off,,,,,192,0,3,,,,,2,,,67,0
89856,note_off,,,,,768,0,6,,,,,5,,,52,0
89856,note_on,,,,,0,0,6,,,,,5,,,53,75
89856,note_off,,,,,384,0,4,,,,,3,,,64,0
89856,note_on,,,,,0,0,4,,,,,3,,,60,92
89856,note_on,,,,,96,0,8,,,,,7,,,60,37
89856,note_on,,,,,0,0,8,,,,,7,,,67,37
89856,note_on,,,,,96,0,9,,,,,8,,,48,37
89856,note_off,,,,,384,0,2,,,,,1,,,64,0
89856,note_on,,,,,0,0,2,,,,,1,,,60,75
89856,note_on,,,,,96,0,7,,,,,6,,,41,63
89856,note_on,,,,,0,0,1,,,,,0,,,69,75
89856,note_off,,,,,192,0,1,,,,,0,,,67,0
90048,note_off,,,,,192,0,5,,,,,4,,,65,0
90048,note_on,,,,,0,0,3,,,,,2,,,70,92
90048,note_off,,,,,192,0,3,,,,,2,,,69,0
90048,note_on,,,,,0,0,5,,,,,4,,,67,75
90048,note_on,,,,,0,0,1,,,,,0,,,70,75
90048,note_off,,,,,192,0,1,,,,,0,,,69,0
90240,note_on,,,,,0,0,5,,,,,4,,,69,75
90240,note_on,,,,,0,0,1,,,,,0,,,72,75
90240,note_on,,,,,0,0,3,,,,,2,,,72,92
90240,note_off,,,,,192,0,3,,,,,2,,,70,0
90240,note_off,,,,,192,0,1,,,,,0,,,70,0
90240,note_off,,,,,192,0,5,,,,,4,,,67,0
90240,note_off,,,,,384,0,4,,,,,3,,,60,0
90240,note_on,,,,,0,0,4,,,,,3,,,65,92
90240,note_off,,,,,384,0,2,,,,,1,,,60,0
90240,note_on,,,,,0,0,2,,,,,1,,,65,75
90432,note_off,,,,,192,0,1,,,,,0,,,72,0
90432,note_on,,,,,0,0,1,,,,,0,,,69,75
90432,note_off,,,,,192,0,3,,,,,2,,,72,0
90432,note_off,,,,,192,0,5,,,,,4,,,69,0
90432,note_on,,,,,0,0,3,,,,,2,,,69,92
90432,note_on,,,,,0,0,5,,,,,4,,,65,75
90528,note_off,,,,,672,0,9,,,,,8,,,48,0
90528,note_off,,,,,672,0,8,,,,,7,,,60,0
90528,note_off,,,,,0,0,8,,,,,7,,,63,0
90528,note_off,,,,,0,0,8,,,,,7,,,67,0
90528,note_off,,,,,672,0,7,,,,,6,,,41,0
90624,note_on,,,,,96,0,7,,,,,6,,,46,63
90624,note_off,,,,,768,0,6,,,,,5,,,53,0
90624,note_on,,,,,0,0,5,,,,,4,,,65,75
90624,note_on,,,,,0,0,3,,,,,2,,,74,92
90624,note_on,,,,,96,0,8,,,,,7,,,63,37
90624,note_on,,,,,0,0,8,,,,,7,,,67,37
90624,note_off,,,,,192,0,3,,,,,2,,,69,0
90624,note_on,,,,,96,0,9,,,,,8,,,60,37
90624,note_on,,,,,0,0,1,,,,,0,,,74,75
90624,note_off,,,,,192,0,1,,,,,0,,,69,0
90624,note_off,,,,,192,0,5,,,,,4,,,65,0
90624,note_on,,,,,0,0,6,,,,,5,,,58,75
90816,note_off,,,,,192,0,1,,,,,0,,,74,0
90816,note_on,,,,,0,0,1,,,,,0,,,76,75
90816,note_off,,,,,192,0,3,,,,,2,,,74,0
90816,note_on,,,,,0,0,3,,,,,2,,,76,92
91008,note_off,,,,,192,0,1,,,,,0,,,76,0
91008,note_on,,,,,0,0,1,,,,,0,,,77,75
91008,note_off,,,,,384,0,5,,,,,4,,,65,0
91008,note_on,,,,,0,0,3,,,,,2,,,77,92
91008,note_on,,,,,0,0,5,,,,,4,,,70,75
91008,note_off,,,,,768,0,2,,,,,1,,,65,0
91008,note_off,,,,,192,0,3,,,,,2,,,76,0
91008,note_off,,,,,768,0,4,,,,,3,,,65,0
91008,note_on,,,,,0,0,4,,,,,3,,,74,92
91008,note_on,,,,,0,0,2,,,,,1,,,74,75
91200,note_off,,,,,192,0,3,,,,,2,,,77,0
91200,note_on,,,,,0,0,3,,,,,2,,,74,92
91200,note_on,,,,,0,0,1,,,,,0,,,74,75
91200,note_off,,,,,192,0,1,,,,,0,,,77,0
91296,note_off,,,,,672,0,8,,,,,7,,,63,0
91296,note_off,,,,,0,0,8,,,,,7,,,67,0
91296,note_off,,,,,672,0,9,,,,,8,,,60,0
91296,note_off,,,,,672,0,7,,,,,6,,,46,0
91392,note_off,,,,,768,0,6,,,,,5,,,58,0
91392,note_off,,,,,384,0,4,,,,,3,,,74,0
91392,note_on,,,,,0,0,6,,,,,5,,,55,75
91392,note_on,,,,,96,0,9,,,,,8,,,48,37
91392,note_on,,,,,0,0,4,,,,,3,,,67,92
91392,note_on,,,,,0,0,1,,,,,0,,,76,75
91392,note_on,,,,,96,0,7,,,,,6,,,43,63
91392,note_off,,,,,192,0,3,,,,,2,,,74,0
91392,note_on,,,,,0,0,8,,,,,7,,,72,37
91392,note_on,,,,,0,0,3,,,,,2,,,76,92
91392,note_off,,,,,384,0,2,,,,,1,,,74,0
91392,note_on,,,,,0,0,2,,,,,1,,,67,75
91392,note_on,,,,,0,0,8,,,,,7,,,67,37
91392,note_on,,,,,96,0,8,,,,,7,,,64,37
91392,note_off,,,,,192,0,1,,,,,0,,,74,0
91584,note_on,,,,,0,0,1,,,,,0,,,77,75
91584,note_off,,,,,192,0,1,,,,,0,,,76,0
91584,note_on,,,,,0,0,2,,,,,1,,,69,75
91584,note_off,,,,,192,0,2,,,,,1,,,67,0
91584,note_off,,,,,192,0,4,,,,,3,,,67,0
91584,note_on,,,,,0,0,4,,,,,3,,,69,92
91584,note_off,,,,,192,0,3,,,,,2,,,76,0
91584,note_on,,,,,0,0,3,,,,,2,,,77,92
91776,note_off,,,,,192,0,2,,,,,1,,,69,0
91776,note_on,,,,,0,0,2,,,,,1,,,70,75
91776,note_off,,,,,192,0,4,,,,,3,,,69,0
91776,note_on,,,,,0,0,4,,,,,3,,,70,92
91776,note_off,,,,,192,0,1,,,,,0,,,77,0
91776,note_on,,,,,0,0,1,,,,,0,,,79,75
91776,note_off,,,,,192,0,3,,,,,2,,,77,0
91776,note_off,,,,,768,0,5,,,,,4,,,70,0
91776,note_on,,,,,0,0,5,,,,,4,,,58,75
91776,note_on,,,,,0,0,3,,,,,2,,,79,92
91968,note_off,,,,,192,0,4,,,,,3,,,70,0
91968,note_off,,,,,192,0,2,,,,,1,,,70,0
91968,note_on,,,,,0,0,2,,,,,1,,,67,75
91968,note_on,,,,,0,0,4,,,,,3,,,67,92
91968,note_on,,,,,0,0,1,,,,,0,,,76,75
91968,note_off,,,,,192,0,1,,,,,0,,,79,0
91968,note_off,,,,,192,0,3,,,,,2,,,79,0
91968,note_on,,,,,0,0,3,,,,,2,,,76,92
92064,note_off,,,,,0,0,8,,,,,7,,,72,0
92064,note_off,,,,,672,0,7,,,,,6,,,43,0
92064,note_off,,,,,672,0,8,,,,,7,,,64,0
92064,note_off,,,,,0,0,8,,,,,7,,,67,0
92064,note_off,,,,,672,0,9,,,,,8,,,48,0
92160,note_off,,,,,192,0,4,,,,,3,,,67,0
92160,note_on,,,,,0,0,4,,,,,3,,,72,92
92160,note_on,,,,,0,0,3,,,,,2,,,77,92
92160,note_off,,,,,192,0,3,,,,,2,,,76,0
92160,note_off,,,,,192,0,2,,,,,1,,,67,0
92160,note_on,,,,,0,0,5,,,,,4,,,65,75
92160,note_off,,,,,384,0,5,,,,,4,,,58,0
92160,note_on,,,,,96,0,7,,,,,6,,,45,63
92160,note_on,,,,,0,0,8,,,,,7,,,65,37
92160,note_on,,,,,96,0,8,,,,,7,,,60,37
92160,note_on,,,,,0,0,1,,,,,0,,,77,75
92160,note_off,,,,,192,0,1,,,,,0,,,76,0
92160,note_off,,,,,768,0,6,,,,,5,,,55,0
92160,note_on,,,,,0,0,6,,,,,5,,,57,75
92160,note_on,,,,,96,0,9,,,,,8,,,53,37
92160,note_on,,,,,0,0,8,,,,,7,,,68,37
92160,note_on,,,,,0,0,2,,,,,1,,,72,75
92352,note_off,,,,,192,0,1,,,,,0,,,77,0
92352,note_on,,,,,0,0,1,,,,,0,,,79,75
92352,note_off,,,,,192,0,3,,,,,2,,,77,0
92352,note_on,,,,,0,0,3,,,,,2,,,79,92
92544,note_off,,,,,384,0,4,,,,,3,,,72,0
92544,note_on,,,,,0,0,1,,,,,0,,,81,75
92544,note_on,,,,,0,0,5,,,,,4,,,70,75
92544,note_on,,,,,0,0,3,,,,,2,,,81,92
92544,note_off,,,,,192,0,3,,,,,2,,,79,0
92544,note_off,,,,,384,0,2,,,,,1,,,72,0
92544,note_on,,,,,0,0,4,,,,,3,,,77,92
92544,note_off,,,,,192,0,1,,,,,0,,,79,0
92544,note_off,,,,,384,0,5,,,,,4,,,65,0
92544,note_on,,,,,0,0,2,,,,,1,,,77,75
92736,note_off,,,,,192,0,1,,,,,0,,,81,0
92736,note_on,,,,,0,0,1,,,,,0,,,77,75
92736,note_off,,,,,192,0,3,,,,,2,,,81,0
92736,note_on,,,,,0,0,3,,,,,2,,,77,92
92832,note_off,,,,,672,0,7,,,,,6,,,45,0
92832,note_off,,,,,0,0,8,,,,,7,,,65,0
92832,note_off,,,,,672,0,8,,,,,7,,,60,0
92832,note_off,,,,,672,0,9,,,,,8,,,53,0
92832,note_off,,,,,0,0,8,,,,,7,,,68,64
92928,note_on,,,,,0,0,6,,,,,5,,,53,75
92928,note_on,,,,,0,0,8,,,,,7,,,65,37
92928,note_on,,,,,0,0,8,,,,,7,,,68,37
92928,note_off,,,,,192,0,3,,,,,2,,,77,0
92928,note_on,,,,,0,0,3,,,,,2,,,81,92
92928,note_on,,,,,96,0,9,,,,,8,,,41,37
92928,note_off,,,,,768,0,6,,,,,5,,,57,0
92928,note_on,,,,,0,0,1,,,,,0,,,81,75
92928,note_off,,,,,192,0,1,,,,,0,,,77,0
92928,note_on,,,,,96,0,8,,,,,7,,,60,37
92928,note_on,,,,,96,0,7,,,,,6,,,41,63
93120,note_on,,,,,0,0,3,,,,,2,,,84,92
93120,note_off,,,,,192,0,1,,,,,0,,,81,0
93120,note_on,,,,,0,0,1,,,,,0,,,84,75
93120,note_off,,,,,192,0,3,,,,,2,,,81,0
93264,note_off,,,,,336,0,8,,,,,7,,,68,64
93312,note_on,,,,,0,0,3,,,,,2,,,75,92
93312,note_off,,,,,192,0,3,,,,,2,,,84,0
93312,note_off,,,,,768,0,5,,,,,4,,,70,0
93312,note_on,,,,,0,0,5,,,,,4,,,69,75
93312,note_off,,,,,192,0,1,,,,,0,,,84,0
93312,note_off,,,,,768,0,2,,,,,1,,,77,0
93312,note_on,,,,,0,0,2,,,,,1,,,72,75
93312,note_on,,,,,0,0,4,,,,,3,,,72,92
93312,note_on,,,,,0,0,1,,,,,0,,,75,75
93312,note_off,,,,,768,0,4,,,,,3,,,77,0
93600,note_off,,,,,672,0,9,,,,,8,,,41,0
93600,note_off,,,,,0,0,8,,,,,7,,,65,0
93600,note_off,,,,,672,0,7,,,,,6,,,41,0
93600,note_off,,,,,336,0,8,,,,,7,,,60,0
93696,note_on,,,,,96,0,9,,,,,8,,,53,37
93696,note_on,,,,,96,0,8,,,,,7,,,60,37
93696,note_off,,,,,384,0,4,,,,,3,,,72,0
93696,note_on,,,,,0,0,8,,,,,7,,,63,37
93696,note_on,,,,,96,0,7,,,,,6,,,33,63
93696,note_on,,,,,0,0,8,,,,,7,,,69,37
93696,note_on,,,,,0,0,6,,,,,5,,,45,75
93696,note_off,,,,,384,0,2,,,,,1,,,72,0
93696,note_on,,,,,0,0,2,,,,,1,,,65,75
93696,note_off,,,,,768,0,6,,,,,5,,,53,0
93696,note_on,,,,,0,0,4,,,,,3,,,65,92
93888,note_off,,,,,576,0,3,,,,,2,,,75,0
93888,note_on,,,,,0,0,3,,,,,2,,,77,92
93888,note_off,,,,,576,0,1,,,,,0,,,75,0
93888,note_on,,,,,0,0,1,,,,,0,,,77,75
94080,note_off,,,,,768,0,5,,,,,4,,,69,0
94080,note_on,,,,,0,0,5,,,,,4,,,65,75
94080,note_off,,,,,192,0,1,,,,,0,,,77,0
94080,note_on,,,,,0,0,1,,,,,0,,,72,75
94080,note_off,,,,,192,0,3,,,,,2,,,77,0
94080,note_on,,,,,0,0,3,,,,,2,,,72,92
94368,note_off,,,,,672,0,8,,,,,7,,,60,0
94368,note_off,,,,,0,0,8,,,,,7,,,69,0
94368,note_off,,,,,0,0,8,,,,,7,,,63,0
94368,note_off,,,,,672,0,9,,,,,8,,,53,0
94368,note_off,,,,,672,0,7,,,,,6,,,33,0
94464,note_on,,,,,0,0,8,,,,,7,,,70,37
94464,note_on,,,,,0,0,2,,,,,1,,,62,75
94464,note_off,,,,,768,0,2,,,,,1,,,65,0
94464,note_on,,,,,0,0,4,,,,,3,,,62,92
94464,note_on,,,,,96,0,7,,,,,6,,,34,63
94464,note_off,,,,,768,0,6,,,,,5,,,45,0
94464,note_off,,,,,384,0,5,,,,,4,,,65,0
94464,note_off,,,,,768,0,4,,,,,3,,,65,0
94464,note_on,,,,,0,0,6,,,,,5,,,46,75
94464,note_on,,,,,96,0,9,,,,,8,,,46,37
94464,note_on,,,,,96,0,8,,,,,7,,,62,37
94464,note_on,,,,,0,0,5,,,,,4,,,65,75
94656,note_off,,,,,576,0,3,,,,,2,,,72,0
94656,note_on,,,,,0,0,3,,,,,2,,,74,92
94656,note_off,,,,,576,0,1,,,,,0,,,72,0
94656,note_on,,,,,0,0,1,,,,,0,,,74,75
94848,note_off,,,,,192,0,3,,,,,2,,,74,0
94848,note_on,,,,,0,0,1,,,,,0,,,70,75
94848,note_off,,,,,192,0,1,,,,,0,,,74,0
94848,note_on,,,,,0,0,3,,,,,2,,,70,92
95136,note_off,,,,,672,0,9,,,,,8,,,46,0
95136,note_off,,,,,672,0,7,,,,,6,,,34,0
95136,note_off,,,,,672,0,8,,,,,7,,,62,0
95232,note_on,,,,,96,0,9,,,,,8,,,58,37
95232,note_on,,,,,0,0,8,,,,,7,,,65,37
95232,note_on,,,,,96,0,8,,,,,7,,,62,37
95232,note_on,,,,,0,0,5,,,,,4,,,67,75
95232,note_off,,,,,768,0,5,,,,,4,,,65,0
95232,note_on,,,,,0,0,6,,,,,5,,,43,75
95232,note_off,,,,,768,0,6,,,,,5,,,46,0
95232,note_off,,,,,768,0,4,,,,,3,,,62,0
95232,note_off,,,,,768,0,2,,,,,1,,,62,0
95232,note_on,,,,,96,0,7,,,,,6,,,31,63
95232,note_on,,,,,0,0,2,,,,,1,,,67,75
95232,note_on,,,,,0,0,4,,,,,3,,,67,92
95424,note_on,,,,,0,0,3,,,,,2,,,74,92
95424,note_off,,,,,576,0,3,,,,,2,,,70,0
95424,note_on,,,,,0,0,1,,,,,0,,,74,75
95424,note_off,,,,,576,0,1,,,,,0,,,70,0
95552,note_off,,,,,320,0,8,,,,,7,,,70,0
95616,note_on,,,,,0,0,2,,,,,1,,,65,75
95616,note_off,,,,,384,0,4,,,,,3,,,67,0
95616,note_off,,,,,192,0,1,,,,,0,,,74,0
95616,note_off,,,,,384,0,2,,,,,1,,,67,0
95616,note_on,,,,,0,0,4,,,,,3,,,65,92
95616,note_on,,,,,0,0,3,,,,,2,,,69,92
95616,note_off,,,,,192,0,3,,,,,2,,,74,0
95616,note_on,,,,,0,0,1,,,,,0,,,69,75
95616,note_on,,,,,64,0,8,,,,,7,,,68,37
95904,note_off,,,,,672,0,9,,,,,8,,,58,0
95904,note_off,,,,,672,0,7,,,,,6,,,31,0
95904,note_off,,,,,0,0,8,,,,,7,,,65,0
95904,note_off,,,,,288,0,8,,,,,7,,,62,0
96000,note_off,,,,,384,0,2,,,,,1,,,65,0
96000,note_on,,,,,0,0,2,,,,,1,,,64,75
96000,note_on,,,,,0,0,5,,,,,4,,,55,75
96000,note_off,,,,,768,0,5,,,,,4,,,67,0
96000,note_on,,,,,96,0,9,,,,,8,,,50,37
96000,note_on,,,,,0,0,9,,,,,8,,,58,37
96000,note_off,,,,,384,0,4,,,,,3,,,65,0
96000,note_on,,,,,96,0,7,,,,,6,,,34,63
96000,note_on,,,,,0,0,4,,,,,3,,,64,92
96000,note_on,,,,,96,0,8,,,,,7,,,65,37
96000,note_on,,,,,0,0,8,,,,,7,,,67,37
96000,note_on,,,,,0,0,1,,,,,0,,,67,75
96000,note_off,,,,,384,0,3,,,,,2,,,69,0
96000,note_off,,,,,768,0,6,,,,,5,,,43,0
96000,note_on,,,,,0,0,6,,,,,5,,,46,75
96000,note_on,,,,,0,0,3,,,,,2,,,67,92
96000,note_off,,,,,384,0,1,,,,,0,,,69,0
96192,note_on,,,,,0,0,1,,,,,0,,,74,75
96192,note_off,,,,,192,0,1,,,,,0,,,67,0
96192,note_off,,,,,192,0,3,,,,,2,,,67,0
96192,note_on,,,,,0,0,3,,,,,2,,,74,92
96320,note_off,,,,,320,0,8,,,,,7,,,67,0
96336,note_off,,,,,16,0,8,,,,,7,,,68,64
96384,note_on,,,,,0,0,1,,,,,0,,,65,75
96384,note_on,,,,,0,0,3,,,,,2,,,65,92
96384,note_off,,,,,192,0,3,,,,,2,,,74,0
96384,note_on,,,,,0,0,2,,,,,1,,,62,75
96384,note_off,,,,,384,0,2,,,,,1,,,64,0
96384,note_on,,,,,0,0,4,,,,,3,,,62,92
96384,note_off,,,,,384,0,4,,,,,3,,,64,0
96384,note_off,,,,,192,0,1,,,,,0,,,74,0
96672,note_off,,,,,672,0,7,,,,,6,,,34,0
96672,note_off,,,,,672,0,9,,,,,8,,,50,0
96672,note_off,,,,,0,0,9,,,,,8,,,58,0
96704,note_off,,,,,368,0,8,,,,,7,,,65,0
96768,note_on,,,,,0,0,6,,,,,5,,,48,75
96768,note_off,,,,,384,0,2,,,,,1,,,62,0
96768,note_on,,,,,0,0,2,,,,,1,,,60,75
96768,note_off,,,,,768,0,6,,,,,5,,,46,0
96768,note_on,,,,,0,0,4,,,,,3,,,60,92
96768,note_off,,,,,384,0,3,,,,,2,,,65,0
96768,note_on,,,,,0,0,5,,,,,4,,,55,75
96768,note_on,,,,,96,0,7,,,,,6,,,36,63
96768,note_off,,,,,384,0,4,,,,,3,,,62,0
96768,note_off,,,,,768,0,5,,,,,4,,,55,0
96768,note_on,,,,,64,0,8,,,,,7,,,63,37
96768,note_on,,,,,0,0,8,,,,,7,,,67,37
96768,note_on,,,,,0,0,9,,,,,8,,,58,37
96768,note_on,,,,,96,0,9,,,,,8,,,51,37
96768,note_off,,,,,384,0,1,,,,,0,,,65,0
96768,note_on,,,,,0,0,1,,,,,0,,,64,75
96768,note_on,,,,,0,0,3,,,,,2,,,64,92
96960,note_on,,,,,0,0,3,,,,,2,,,67,92
96960,note_off,,,,,192,0,1,,,,,0,,,64,0
96960,note_on,,,,,0,0,1,,,,,0,,,67,75
96960,note_off,,,,,192,0,3,,,,,2,,,64,0
97152,note_off,,,,,192,0,3,,,,,2,,,67,0
97152,note_on,,,,,0,0,3,,,,,2,,,60,92
97152,note_on,,,,,0,0,1,,,,,0,,,60,75
97152,note_off,,,,,192,0,1,,,,,0,,,67,0
97440,note_off,,,,,672,0,7,,,,,6,,,36,0
97440,note_off,,,,,672,0,8,,,,,7,,,63,0
97440,note_off,,,,,0,0,9,,,,,8,,,58,0
97440,note_off,,,,,672,0,9,,,,,8,,,51,0
97536,note_on,,,,,0,0,2,,,,,1,,,64,75
97536,note_off,,,,,768,0,4,,,,,3,,,60,0
97536,note_on,,,,,0,0,4,,,,,3,,,64,92
97536,note_off,,,,,768,0,6,,,,,5,,,48,0
97536,note_on,,,,,0,0,6,,,,,5,,,48,75
97536,note_on,,,,,96,0,7,,,,,6,,,36,63
97536,note_off,,,,,768,0,2,,,,,1,,,60,0
97536,note_on,,,,,96,0,8,,,,,7,,,63,37
97536,note_on,,,,,96,0,9,,,,,8,,,48,37
97536,note_on,,,,,0,0,8,,,,,7,,,72,37
97536,note_off,,,,,768,0,5,,,,,4,,,55,0
97536,note_on,,,,,0,0,5,,,,,4,,,60,75
97728,note_off,,,,,576,0,3,,,,,2,,,60,0
97728,note_on,,,,,0,0,3,,,,,2,,,70,92
97728,note_off,,,,,576,0,1,,,,,0,,,60,0
97728,note_on,,,,,0,0,1,,,,,0,,,70,75
97856,note_off,,,,,0,0,8,,,,,7,,,63,0
97856,note_off,,,,,320,0,8,,,,,7,,,67,0
97856,note_off,,,,,320,0,9,,,,,8,,,48,0
97920,note_off,,,,,192,0,1,,,,,0,,,70,0
97920,note_off,,,,,192,0,3,,,,,2,,,70,0
97920,note_on,,,,,64,0,9,,,,,8,,,57,37
97920,note_on,,,,,64,0,8,,,,,7,,,65,37
97920,note_on,,,,,0,0,1,,,,,0,,,67,75
97920,note_on,,,,,0,0,3,,,,,2,,,67,92
98208,note_off,,,,,672,0,7,,,,,6,,,36,0
98208,note_off,,,,,288,0,8,,,,,7,,,72,0
98240,note_off,,,,,32,0,8,,,,,7,,,65,0
98240,note_off,,,,,320,0,9,,,,,8,,,57,0
98304,note_on,,,,,64,0,9,,,,,8,,,58,37
98304,note_off,,,,,768,0,2,,,,,1,,,64,0
98304,note_on,,,,,0,0,2,,,,,1,,,60,75
98304,note_off,,,,,768,0,6,,,,,5,,,48,0
98304,note_on,,,,,0,0,6,,,,,5,,,48,75
98304,note_on,,,,,0,0,5,,,,,4,,,57,75
98304,note_off,,,,,768,0,5,,,,,4,,,60,0
98304,note_on,,,,,96,0,7,,,,,6,,,36,63
98304,note_off,,,,,768,0,4,,,,,3,,,64,0
98304,note_on,,,,,0,0,8,,,,,7,,,65,37
98304,note_on,,,,,0,0,4,,,,,3,,,60,92
98304,note_on,,,,,64,0,8,,,,,7,,,62,37
98496,note_on,,,,,0,0,1,,,,,0,,,69,75
98496,note_off,,,,,576,0,3,,,,,2,,,67,0
98496,note_off,,,,,576,0,1,,,,,0,,,67,0
98496,note_on,,,,,0,0,3,,,,,2,,,69,92
98624,note_off,,,,,320,0,9,,,,,8,,,58,0
98688,note_off,,,,,192,0,1,,,,,0,,,69,0
98688,note_on,,,,,0,0,3,,,,,2,,,65,92
98688,note_off,,,,,192,0,3,,,,,2,,,69,0
98688,note_on,,,,,64,0,9,,,,,8,,,50,37
98688,note_on,,,,,0,0,1,,,,,0,,,65,75
98688,note_on,,,,,384,0,8,,,,,7,,,70,37
98880,note_on,,,,,0,0,1,,,,,0,,,62,75
98880,note_off,,,,,192,0,3,,,,,2,,,65,0
98880,note_on,,,,,0,0,3,,,,,2,,,62,92
98880,note_off,,,,,192,0,1,,,,,0,,,65,0
98976,note_off,,,,,672,0,7,,,,,6,,,36,0
98976,note_off,,,,,288,0,8,,,,,7,,,62,0
99008,note_off,,,,,0,0,8,,,,,7,,,70,0
99008,note_off,,,,,320,0,9,,,,,8,,,50,0
99008,note_off,,,,,32,0,8,,,,,7,,,65,0
99072,note_off,,,,,768,0,5,,,,,4,,,57,0
99072,note_on,,,,,64,0,9,,,,,8,,,53,37
99072,note_on,,,,,0,0,8,,,,,7,,,69,37
99072,note_on,,,,,0,0,8,,,,,7,,,65,37
99072,note_on,,,,,64,0,8,,,,,7,,,60,37
99072,note_off,,,,,192,0,1,,,,,0,,,62,0
99072,note_off,,,,,768,0,6,,,,,5,,,48,0
99072,note_on,,,,,0,0,6,,,,,5,,,48,75
99072,note_on,,,,,0,0,4,,,,,3,,,60,92
99072,note_off,,,,,768,0,4,,,,,3,,,60,0
99072,note_on,,,,,0,0,1,,,,,0,,,64,75
99072,note_on,,,,,0,0,2,,,,,1,,,60,75
99072,note_off,,,,,768,0,2,,,,,1,,,60,0
99072,note_on,,,,,0,0,5,,,,,4,,,55,75
99072,note_on,,,,,96,0,7,,,,,6,,,36,63
99072,note_off,,,,,192,0,3,,,,,2,,,62,0
99072,note_on,,,,,0,0,3,,,,,2,,,64,92
99264,note_on,,,,,0,0,3,,,,,2,,,67,92
99264,note_off,,,,,192,0,1,,,,,0,,,64,0
99264,note_off,,,,,192,0,3,,,,,2,,,64,0
99264,note_on,,,,,0,0,1,,,,,0,,,67,75
99456,note_on,,,,,0,0,3,,,,,2,,,60,92
99456,note_off,,,,,192,0,3,,,,,2,,,67,0
99456,note_on,,,,,0,0,1,,,,,0,,,60,75
99456,note_off,,,,,192,0,1,,,,,0,,,67,0
99744,note_off,,,,,672,0,9,,,,,8,,,53,0
99744,note_off,,,,,0,0,8,,,,,7,,,69,0
99744,note_off,,,,,0,0,8,,,,,7,,,65,0
99744,note_off,,,,,672,0,7,,,,,6,,,36,0
99744,note_off,,,,,672,0,8,,,,,7,,,60,0
99840,note_on,,,,,0,0,8,,,,,7,,,65,37
99840,note_on,,,,,96,0,9,,,,,8,,,57,37
99840,note_on,,,,,96,0,7,,,,,6,,,36,63
99840,note_on,,,,,0,0,2,,,,,1,,,64,75
99840,note_off,,,,,768,0,2,,,,,1,,,60,0
99840,note_off,,,,,768,0,5,,,,,4,,,55,0
99840,note_on,,,,,0,0,5,,,,,4,,,60,75
99840,note_off,,,,,768,0,4,,,,,3,,,60,0
99840,note_on,,,,,0,0,4,,,,,3,,,64,92
99840,note_on,,,,,0,0,6,,,,,5,,,48,75
99840,note_off,,,,,768,0,6,,,,,5,,,48,0
99840,note_on,,,,,96,0,8,,,,,7,,,60,37
100032,note_off,,,,,576,0,3,,,,,2,,,60,0
100032,note_off,,,,,576,0,1,,,,,0,,,60,0
100032,note_on,,,,,0,0,1,,,,,0,,,70,75
100032,note_on,,,,,0,0,3,,,,,2,,,70,92
100224,note_off,,,,,192,0,3,,,,,2,,,70,0
100224,note_off,,,,,192,0,1,,,,,0,,,70,0
100224,note_on,,,,,0,0,1,,,,,0,,,67,75
100224,note_on,,,,,0,0,3,,,,,2,,,67,92
100512,note_off,,,,,672,0,7,,,,,6,,,36,0
100512,note_off,,,,,672,0,9,,,,,8,,,57,0
100512,note_off,,,,,0,0,8,,,,,7,,,65,0
100512,note_off,,,,,672,0,8,,,,,7,,,60,0
100608,note_off,,,,,768,0,2,,,,,1,,,64,0
100608,note_on,,,,,0,0,2,,,,,1,,,60,75
100608,note_on,,,,,0,0,8,,,,,7,,,69,37
100608,note_on,,,,,0,0,8,,,,,7,,,65,37
100608,note_on,,,,,96,0,8,,,,,7,,,60,37
100608,note_on,,,,,96,0,7,,,,,6,,,36,63
100608,note_off,,,,,768,0,4,,,,,3,,,64,0
100608,note_on,,,,,96,0,9,,,,,8,,,53,37
100608,note_off,,,,,768,0,5,,,,,4,,,60,0
100608,note_on,,,,,0,0,5,,,,,4,,,57,75
100608,note_on,,,,,0,0,6,,,,,5,,,48,75
100608,note_off,,,,,768,0,6,,,,,5,,,48,0
100608,note_on,,,,,0,0,4,,,,,3,,,60,92
100800,note_off,,,,,576,0,1,,,,,0,,,67,0
100800,note_on,,,,,0,0,3,,,,,2,,,69,92
100800,note_on,,,,,0,0,1,,,,,0,,,69,75
100800,note_off,,,,,576,0,3,,,,,2,,,67,0
100992,note_off,,,,,192,0,1,,,,,0,,,69,0
100992,note_off,,,,,192,0,3,,,,,2,,,69,0
100992,note_on,,,,,0,0,3,,,,,2,,,65,92
100992,note_on,,,,,0,0,1,,,,,0,,,65,75
101184,note_off,,,,,192,0,1,,,,,0,,,65,0
101184,note_on,,,,,0,0,1,,,,,0,,,62,75
101184,note_off,,,,,192,0,3,,,,,2,,,65,0
101184,note_on,,,,,0,0,3,,,,,2,,,62,92
101280,note_off,,,,,0,0,8,,,,,7,,,69,0
101280,note_off,,,,,672,0,8,,,,,7,,,60,0
101280,note_off,,,,,672,0,9,,,,,8,,,53,0
101280,note_off,,,,,0,0,8,,,,,7,,,65,0
101280,note_off,,,,,672,0,7,,,,,6,,,36,0
101376,note_on,,,,,96,0,7,,,,,6,,,36,63
101376,note_on,,,,,0,0,8,,,,,7,,,70,37
101376,note_on,,,,,0,0,8,,,,,7,,,65,37
101376,note_on,,,,,0,0,1,,,,,0,,,64,75
101376,note_on,,,,,0,0,5,,,,,4,,,55,75
101376,note_off,,,,,768,0,5,,,,,4,,,57,0
101376,note_off,,,,,768,0,2,,,,,1,,,60,0
101376,note_on,,,,,0,0,2,,,,,1,,,60,75
101376,note_on,,,,,96,0,9,,,,,8,,,58,37
101376,note_on,,,,,96,0,8,,,,,7,,,62,37
101376,note_off,,,,,192,0,1,,,,,0,,,62,0
101376,note_on,,,,,0,0,6,,,,,5,,,48,75
101376,note_on,,,,,0,0,3,,,,,2,,,64,92
101376,note_off,,,,,192,0,3,,,,,2,,,62,0
101376,note_off,,,,,768,0,6,,,,,5,,,48,0
101376,note_on,,,,,0,0,4,,,,,3,,,60,92
101376,note_off,,,,,768,0,4,,,,,3,,,60,0
101568,note_on,,,,,0,0,1,,,,,0,,,67,75
101568,note_off,,,,,192,0,3,,,,,2,,,64,0
101568,note_on,,,,,0,0,3,,,,,2,,,67,92
101568,note_off,,,,,192,0,1,,,,,0,,,64,0
101760,note_on,,,,,0,0,1,,,,,0,,,60,75
101760,note_off,,,,,192,0,1,,,,,0,,,67,0
101760,note_off,,,,,192,0,3,,,,,2,,,67,0
101760,note_on,,,,,0,0,3,,,,,2,,,60,92
102048,note_off,,,,,672,0,7,,,,,6,,,36,0
102048,note_off,,,,,672,0,8,,,,,7,,,62,0
102048,note_off,,,,,0,0,8,,,,,7,,,65,0
102048,note_off,,,,,0,0,8,,,,,7,,,70,0
102048,note_off,,,,,672,0,9,,,,,8,,,58,0
102144,note_off,,,,,768,0,2,,,,,1,,,60,0
102144,note_on,,,,,96,0,7,,,,,6,,,48,63
102144,note_on,,,,,0,0,8,,,,,7,,,70,37
102144,note_on,,,,,96,0,8,,,,,7,,,62,37
102144,note_on,,,,,0,0,8,,,,,7,,,65,37
102144,note_on,,,,,0,0,2,,,,,1,,,67,75
102144,note_off,,,,,768,0,4,,,,,3,,,60,0
102144,note_on,,,,,0,0,6,,,,,5,,,60,75
102144,note_off,,,,,768,0,6,,,,,5,,,48,0
102144,note_on,,,,,0,0,5,,,,,4,,,64,75
102144,note_off,,,,,768,0,5,,,,,4,,,55,0
102144,note_on,,,,,0,0,4,,,,,3,,,67,92
102144,note_on,,,,,96,0,9,,,,,8,,,58,37
102528,note_off,,,,,768,0,1,,,,,0,,,60,0
102528,note_on,,,,,0,0,1,,,,,0,,,76,75
102528,note_off,,,,,768,0,3,,,,,2,,,60,0
102528,note_on,,,,,0,0,3,,,,,2,,,76,92
102816,note_off,,,,,672,0,7,,,,,6,,,48,0
102816,note_off,,,,,0,0,8,,,,,7,,,65,0
102816,note_off,,,,,672,0,8,,,,,7,,,62,0
102816,note_off,,,,,672,0,9,,,,,8,,,58,0
102816,note_off,,,,,0,0,8,,,,,7,,,70,0
102912,note_on,,,,,96,0,9,,,,,8,,,58,37
102912,note_on,,,,,0,0,8,,,,,7,,,70,37
102912,note_on,,,,,0,0,8,,,,,7,,,67,37
102912,note_on,,,,,96,0,8,,,,,7,,,63,37
102912,note_on,,,,,0,0,2,,,,,1,,,72,75
102912,note_off,,,,,768,0,2,,,,,1,,,67,0
102912,note_on,,,,,0,0,4,,,,,3,,,72,92
102912,note_off,,,,,768,0,6,,,,,5,,,60,0
102912,note_on,,,,,0,0,6,,,,,5,,,58,75
102912,note_on,,,,,96,0,7,,,,,6,,,46,63
102912,note_off,,,,,768,0,5,,,,,4,,,64,0
102912,note_on,,,,,0,0,5,,,,,4,,,67,75
102912,note_off,,,,,768,0,4,,,,,3,,,67,0
103296,note_on,,,,,0,0,3,,,,,2,,,77,92
103296,note_off,,,,,768,0,3,,,,,2,,,76,0
103296,note_off,,,,,768,0,1,,,,,0,,,76,0
103296,note_on,,,,,0,0,1,,,,,0,,,77,75
103488,note_on,,,,,0,0,3,,,,,2,,,79,92
103488,note_off,,,,,192,0,3,,,,,2,,,77,0
103488,note_off,,,,,192,0,1,,,,,0,,,77,0
103488,note_on,,,,,0,0,1,,,,,0,,,79,75
103584,note_off,,,,,672,0,9,,,,,8,,,58,0
103584,note_off,,,,,0,0,8,,,,,7,,,70,0
103584,note_off,,,,,0,0,8,,,,,7,,,67,0
103584,note_off,,,,,672,0,8,,,,,7,,,63,0
103584,note_off,,,,,672,0,7,,,,,6,,,46,0
103680,note_on,,,,,0,0,5,,,,,4,,,65,75
103680,note_on,,,,,0,0,8,,,,,7,,,65,37
103680,note_off,,,,,192,0,3,,,,,2,,,79,0
103680,note_on,,,,,96,0,8,,,,,7,,,62,37
103680,note_on,,,,,0,0,2,,,,,1,,,60,75
103680,note_off,,,,,768,0,2,,,,,1,,,72,0
103680,note_on,,,,,0,0,6,,,,,5,,,57,75
103680,note_off,,,,,768,0,6,,,,,5,,,58,0
103680,note_off,,,,,768,0,5,,,,,4,,,67,0
103680,note_on,,,,,0,0,3,,,,,2,,,72,92
103680,note_on,,,,,0,0,8,,,,,7,,,70,37
103680,note_on,,,,,96,0,7,,,,,6,,,45,63
103680,note_on,,,,,96,0,9,,,,,8,,,58,37
103680,note_off,,,,,192,0,1,,,,,0,,,79,0
103680,note_off,,,,,768,0,4,,,,,3,,,72,0
103680,note_on,,,,,0,0,1,,,,,0,,,72,75
103680,note_on,,,,,0,0,4,,,,,3,,,60,92
103872,note_on,,,,,0,0,3,,,,,2,,,65,92
103872,note_off,,,,,192,0,3,,,,,2,,,72,0
103872,note_on,,,,,0,0,1,,,,,0,,,65,75
103872,note_off,,,,,192,0,1,,,,,0,,,72,0
104064,note_off,,,,,192,0,3,,,,,2,,,65,0
104064,note_on,,,,,0,0,3,,,,,2,,,67,92
104064,note_on,,,,,0,0,1,,,,,0,,,67,75
104064,note_off,,,,,192,0,1,,,,,0,,,65,0
104256,note_off,,,,,192,0,3,,,,,2,,,67,0
104256,note_on,,,,,0,0,3,,,,,2,,,69,92
104256,note_on,,,,,0,0,1,,,,,0,,,69,75
104256,note_off,,,,,192,0,1,,,,,0,,,67,0
104352,note_off,,,,,672,0,9,,,,,8,,,58,0
104352,note_off,,,,,0,0,8,,,,,7,,,65,0
104352,note_off,,,,,672,0,7,,,,,6,,,45,0
104352,note_off,,,,,0,0,8,,,,,7,,,70,0
104352,note_off,,,,,672,0,8,,,,,7,,,62,0
104448,note_on,,,,,96,0,9,,,,,8,,,58,37
104448,note_off,,,,,768,0,6,,,,,5,,,57,0
104448,note_on,,,,,0,0,4,,,,,3,,,62,92
104448,note_off,,,,,768,0,4,,,,,3,,,60,0
104448,note_on,,,,,0,0,5,,,,,4,,,67,75
104448,note_off,,,,,768,0,5,,,,,4,,,65,0
104448,note_on,,,,,0,0,8,,,,,7,,,65,37
104448,note_on,,,,,96,0,8,,,,,7,,,62,37
104448,note_on,,,,,0,0,2,,,,,1,,,62,75
104448,note_off,,,,,768,0,2,,,,,1,,,60,0
104448,note_on,,,,,96,0,7,,,,,6,,,43,63
104448,note_off,,,,,192,0,1,,,,,0,,,69,0
104448,note_on,,,,,0,0,8,,,,,7,,,70,37
104448,note_on,,,,,0,0,1,,,,,0,,,70,75
104448,note_on,,,,,0,0,6,,,,,5,,,55,75
104448,note_off,,,,,192,0,3,,,,,2,,,69,0
104448,note_on,,,,,0,0,3,,,,,2,,,70,92
104640,note_on,,,,,0,0,1,,,,,0,,,72,75
104640,note_off,,,,,192,0,1,,,,,0,,,70,0
104640,note_on,,,,,0,0,3,,,,,2,,,72,92
104640,note_off,,,,,192,0,3,,,,,2,,,70,0
104832,note_off,,,,,192,0,3,,,,,2,,,72,0
104832,note_on,,,,,0,0,3,,,,,2,,,74,92
104832,note_on,,,,,0,0,1,,,,,0,,,74,75
104832,note_off,,,,,192,0,1,,,,,0,,,72,0
105024,note_on,,,,,0,0,3,,,,,2,,,70,92
105024,note_off,,,,,192,0,3,,,,,2,,,74,0
105024,note_on,,,,,0,0,1,,,,,0,,,70,75
105024,note_off,,,,,192,0,1,,,,,0,,,74,0
105120,note_off,,,,,672,0,9,,,,,8,,,58,0
105120,note_off,,,,,0,0,8,,,,,7,,,70,0
105120,note_off,,,,,672,0,7,,,,,6,,,43,0
105120,note_off,,,,,672,0,8,,,,,7,,,62,0
105120,note_off,,,,,0,0,8,,,,,7,,,65,0
105216,note_on,,,,,0,0,3,,,,,2,,,76,92
105216,note_on,,,,,96,0,7,,,,,6,,,36,63
105216,note_on,,,,,0,0,4,,,,,3,,,72,92
105216,note_off,,,,,768,0,4,,,,,3,,,62,0
105216,note_off,,,,,768,0,6,,,,,5,,,55,0
105216,note_on,,,,,0,0,5,,,,,4,,,67,75
105216,note_on,,,,,0,0,8,,,,,7,,,67,37
105216,note_off,,,,,192,0,3,,,,,2,,,70,0
105216,note_on,,,,,0,0,2,,,,,1,,,72,75
105216,note_off,,,,,768,0,5,,,,,4,,,67,0
105216,note_on,,,,,0,0,6,,,,,5,,,48,75
105216,note_on,,,,,0,0,8,,,,,7,,,70,37
105216,note_off,,,,,192,0,1,,,,,0,,,70,0
105216,note_on,,,,,0,0,1,,,,,0,,,76,75
105216,note_off,,,,,768,0,2,,,,,1,,,62,0
105216,note_on,,,,,96,0,9,,,,,8,,,58,37
105216,note_on,,,,,96,0,8,,,,,7,,,63,37
105408,note_on,,,,,0,0,2,,,,,1,,,74,75
105408,note_off,,,,,192,0,2,,,,,1,,,72,0
105408,note_on,,,,,0,0,3,,,,,2,,,77,92
105408,note_off,,,,,192,0,3,,,,,2,,,76,0
105408,note_off,,,,,192,0,4,,,,,3,,,72,0
105408,note_off,,,,,192,0,1,,,,,0,,,76,0
105408,note_on,,,,,0,0,1,,,,,0,,,77,75
105408,note_on,,,,,0,0,4,,,,,3,,,74,92
105600,note_on,,,,,0,0,2,,,,,1,,,76,75
105600,note_on,,,,,0,0,1,,,,,0,,,79,75
105600,note_off,,,,,192,0,3,,,,,2,,,77,0
105600,note_on,,,,,0,0,3,,,,,2,,,79,92
105600,note_on,,,,,0,0,4,,,,,3,,,76,92
105600,note_off,,,,,192,0,4,,,,,3,,,74,0
105600,note_off,,,,,192,0,1,,,,,0,,,77,0
105600,note_off,,,,,192,0,2,,,,,1,,,74,0
105792,note_off,,,,,192,0,4,,,,,3,,,76,0
105792,note_on,,,,,0,0,4,,,,,3,,,72,92
105792,note_on,,,,,0,0,2,,,,,1,,,72,75
105792,note_off,,,,,192,0,3,,,,,2,,,79,0
105792,note_off,,,,,192,0,1,,,,,0,,,79,0
105792,note_on,,,,,0,0,1,,,,,0,,,76,75
105792,note_off,,,,,192,0,2,,,,,1,,,76,0
105792,note_on,,,,,0,0,3,,,,,2,,,76,92
105888,note_off,,,,,0,0,8,,,,,7,,,70,0
105888,note_off,,,,,672,0,8,,,,,7,,,63,0
105888,note_off,,,,,672,0,9,,,,,8,,,58,0
105888,note_off,,,,,672,0,7,,,,,6,,,36,0
105888,note_off,,,,,0,0,8,,,,,7,,,67,0
105984,note_on,,,,,96,0,9,,,,,8,,,58,37
105984,note_on,,,,,0,0,1,,,,,0,,,81,75
105984,note_off,,,,,192,0,3,,,,,2,,,76,0
105984,note_on,,,,,0,0,3,,,,,2,,,81,92
105984,note_off,,,,,192,0,4,,,,,3,,,72,0
105984,note_on,,,,,0,0,4,,,,,3,,,69,92
105984,note_on,,,,,0,0,8,,,,,7,,,65,37
105984,note_off,,,,,192,0,2,,,,,1,,,72,0
105984,note_on,,,,,0,0,2,,,,,1,,,69,75
105984,note_off,,,,,768,0,5,,,,,4,,,67,0
105984,note_on,,,,,96,0,8,,,,,7,,,62,37
105984,note_on,,,,,0,0,8,,,,,7,,,70,37
105984,note_on,,,,,0,0,5,,,,,4,,,65,75
105984,note_off,,,,,192,0,1,,,,,0,,,76,0
105984,note_on,,,,,96,0,7,,,,,6,,,41,63
105984,note_off,,,,,768,0,6,,,,,5,,,48,0
105984,note_on,,,,,0,0,6,,,,,5,,,53,75
106176,note_on,,,,,0,0,1,,,,,0,,,77,75
106176,note_on,,,,,0,0,3,,,,,2,,,77,92
106176,note_off,,,,,192,0,1,,,,,0,,,81,0
106176,note_off,,,,,192,0,3,,,,,2,,,81,0
106304,note_off,,,,,320,0,7,,,,,6,,,41,0
106368,note_off,,,,,192,0,1,,,,,0,,,77,0
106368,note_on,,,,,64,0,7,,,,,6,,,38,63
106368,note_on,,,,,0,0,3,,,,,2,,,82,92
106368,note_off,,,,,192,0,3,,,,,2,,,77,0
106368,note_on,,,,,0,0,6,,,,,5,,,50,75
106368,note_on,,,,,0,0,2,,,,,1,,,65,75
106368,note_off,,,,,384,0,4,,,,,3,,,69,0
106368,note_off,,,,,384,0,2,,,,,1,,,69,0
106368,note_off,,,,,384,0,6,,,,,5,,,53,0
106368,note_on,,,,,0,0,4,,,,,3,,,65,92
106368,note_on,,,,,0,0,1,,,,,0,,,82,75
106656,note_off,,,,,0,0,8,,,,,7,,,65,0
106656,note_off,,,,,672,0,9,,,,,8,,,58,0
106656,note_off,,,,,672,0,8,,,,,7,,,62,0
106656,note_off,,,,,0,0,8,,,,,7,,,70,0
106688,note_off,,,,,320,0,7,,,,,6,,,38,0
106752,note_on,,,,,0,0,5,,,,,4,,,62,75
106752,note_off,,,,,384,0,4,,,,,3,,,65,0
106752,note_on,,,,,0,0,4,,,,,3,,,70,92
106752,note_off,,,,,384,0,2,,,,,1,,,65,0
106752,note_on,,,,,0,0,2,,,,,1,,,70,75
106752,note_off,,,,,384,0,6,,,,,5,,,50,0
106752,note_on,,,,,0,0,6,,,,,5,,,55,75
106752,note_on,,,,,64,0,7,,,,,6,,,43,63
106752,note_on,,,,,0,0,8,,,,,7,,,70,37
106752,note_on,,,,,0,0,8,,,,,7,,,65,37
106752,note_on,,,,,96,0,8,,,,,7,,,62,37
106752,note_on,,,,,96,0,9,,,,,8,,,50,37
106752,note_off,,,,,768,0,5,,,,,4,,,65,0
106944,note_off,,,,,576,0,1,,,,,0,,,82,0
106944,note_on,,,,,0,0,1,,,,,0,,,74,75
106944,note_on,,,,,0,0,3,,,,,2,,,74,92
106944,note_off,,,,,576,0,3,,,,,2,,,82,0
107136,note_on,,,,,0,0,1,,,,,0,,,72,75
107136,note_on,,,,,0,0,3,,,,,2,,,72,92
107136,note_off,,,,,192,0,3,,,,,2,,,74,0
107136,note_off,,,,,192,0,1,,,,,0,,,74,0
107328,note_on,,,,,0,0,3,,,,,2,,,70,92
107328,note_off,,,,,192,0,3,,,,,2,,,72,0
107328,note_off,,,,,192,0,1,,,,,0,,,72,0
107328,note_on,,,,,0,0,1,,,,,0,,,70,75
107424,note_off,,,,,672,0,9,,,,,8,,,50,0
107424,note_off,,,,,672,0,7,,,,,6,,,43,0
107424,note_off,,,,,672,0,8,,,,,7,,,65,0
107520,note_on,,,,,0,0,6,,,,,5,,,52,75
107520,note_on,,,,,96,0,7,,,,,6,,,40,63
107520,note_on,,,,,96,0,8,,,,,7,,,67,37
107520,note_off,,,,,192,0,1,,,,,0,,,70,0
107520,note_off,,,,,768,0,6,,,,,5,,,55,0
107520,note_on,,,,,0,0,1,,,,,0,,,72,75
107520,note_on,,,,,0,0,2,,,,,1,,,70,75
107520,note_off,,,,,192,0,3,,,,,2,,,70,0
107520,note_on,,,,,96,0,9,,,,,8,,,51,37
107520,note_on,,,,,0,0,4,,,,,3,,,70,92
107520,note_off,,,,,768,0,4,,,,,3,,,70,0
107520,note_off,,,,,768,0,2,,,,,1,,,70,0
107520,note_on,,,,,0,0,3,,,,,2,,,72,92
107520,note_on,,,,,0,0,5,,,,,4,,,67,75
107520,note_off,,,,,768,0,5,,,,,4,,,62,0
107712,note_off,,,,,192,0,1,,,,,0,,,72,0
107712,note_on,,,,,0,0,1,,,,,0,,,82,75
107712,note_off,,,,,192,0,3,,,,,2,,,72,0
107712,note_on,,,,,0,0,3,,,,,2,,,82,92
107904,note_on,,,,,0,0,1,,,,,0,,,81,75
107904,note_on,,,,,0,0,3,,,,,2,,,81,92
107904,note_off,,,,,192,0,3,,,,,2,,,82,0
107904,note_off,,,,,192,0,1,,,,,0,,,82,0
108096,note_on,,,,,0,0,1,,,,,0,,,79,75
108096,note_off,,,,,192,0,3,,,,,2,,,81,0
108096,note_on,,,,,0,0,3,,,,,2,,,79,92
108096,note_off,,,,,192,0,1,,,,,0,,,81,0
108192,note_off,,,,,0,0,8,,,,,7,,,67,0
108192,note_off,,,,,0,0,8,,,,,7,,,70,0
108192,note_off,,,,,672,0,9,,,,,8,,,51,0
108192,note_off,,,,,672,0,7,,,,,6,,,40,0
108192,note_off,,,,,672,0,8,,,,,7,,,62,0
108288,note_off,,,,,768,0,4,,,,,3,,,70,0
108288,note_on,,,,,96,0,7,,,,,6,,,41,63
108288,note_on,,,,,0,0,1,,,,,0,,,81,75
108288,note_on,,,,,96,0,8,,,,,7,,,60,37
108288,note_off,,,,,192,0,1,,,,,0,,,79,0
108288,note_off,,,,,768,0,6,,,,,5,,,52,0
108288,note_on,,,,,0,0,8,,,,,7,,,69,37
108288,note_off,,,,,768,0,2,,,,,1,,,70,0
108288,note_on,,,,,0,0,3,,,,,2,,,81,92
108288,note_off,,,,,192,0,3,,,,,2,,,79,0
108288,note_on,,,,,96,0,9,,,,,8,,,53,37
108288,note_on,,,,,0,0,6,,,,,5,,,53,75
108288,note_on,,,,,0,0,8,,,,,7,,,65,37
108288,note_off,,,,,768,0,5,,,,,4,,,67,0
108288,note_on,,,,,0,0,5,,,,,4,,,65,75
108288,note_on,,,,,0,0,4,,,,,3,,,69,92
108288,note_on,,,,,0,0,2,,,,,1,,,69,75
108480,note_on,,,,,0,0,1,,,,,0,,,77,75
108480,note_off,,,,,192,0,1,,,,,0,,,81,0
108480,note_on,,,,,0,0,3,,,,,2,,,77,92
108480,note_off,,,,,192,0,3,,,,,2,,,81,0
108608,note_off,,,,,320,0,7,,,,,6,,,41,0
108672,note_off,,,,,192,0,1,,,,,0,,,77,0
108672,note_off,,,,,384,0,4,,,,,3,,,69,0
108672,note_on,,,,,0,0,1,,,,,0,,,79,75
108672,note_off,,,,,192,0,3,,,,,2,,,77,0
108672,note_off,,,,,384,0,2,,,,,1,,,69,0
108672,note_on,,,,,0,0,2,,,,,1,,,70,75
108672,note_on,,,,,0,0,3,,,,,2,,,79,92
108672,note_on,,,,,0,0,4,,,,,3,,,70,92
108672,note_on,,,,,64,0,7,,,,,6,,,34,63
108672,note_on,,,,,0,0,5,,,,,4,,,74,75
108672,note_off,,,,,384,0,5,,,,,4,,,65,0
108672,note_on,,,,,0,0,6,,,,,5,,,46,75
108672,note_off,,,,,384,0,6,,,,,5,,,53,0
108864,note_on,,,,,0,0,1,,,,,0,,,74,75
108864,note_on,,,,,0,0,3,,,,,2,,,74,92
108864,note_off,,,,,192,0,3,,,,,2,,,79,0
108864,note_off,,,,,192,0,1,,,,,0,,,79,0
108960,note_off,,,,,672,0,9,,,,,8,,,53,0
108960,note_off,,,,,0,0,8,,,,,7,,,65,0
108960,note_off,,,,,672,0,8,,,,,7,,,60,0
108960,note_off,,,,,0,0,8,,,,,7,,,69,0
108992,note_off,,,,,320,0,7,,,,,6,,,34,0
109056,note_off,,,,,192,0,3,,,,,2,,,74,0
109056,note_on,,,,,0,0,3,,,,,2,,,77,92
109056,note_on,,,,,0,0,4,,,,,3,,,67,92
109056,note_off,,,,,384,0,5,,,,,4,,,74,0
109056,note_off,,,,,384,0,6,,,,,5,,,46,0
109056,note_off,,,,,384,0,2,,,,,1,,,70,0
109056,note_on,,,,,0,0,8,,,,,7,,,72,37
109056,note_on,,,,,0,0,8,,,,,7,,,65,37
109056,note_on,,,,,96,0,8,,,,,7,,,63,37
109056,note_on,,,,,64,0,7,,,,,6,,,36,63
109056,note_off,,,,,384,0,4,,,,,3,,,70,0
109056,note_on,,,,,0,0,2,,,,,1,,,67,75
109056,note_on,,,,,96,0,9,,,,,8,,,45,37
109056,note_on,,,,,0,0,5,,,,,4,,,72,75
109056,note_on,,,,,0,0,1,,,,,0,,,77,75
109056,note_on,,,,,0,0,6,,,,,5,,,48,75
109056,note_off,,,,,192,0,1,,,,,0,,,74,0
109152,note_on,,,,,0,0,1,,,,,0,,,76,75
109152,note_off,,,,,96,0,1,,,,,0,,,77,0
109152,note_on,,,,,0,0,3,,,,,2,,,76,92
109152,note_off,,,,,96,0,3,,,,,2,,,77,0
109200,note_off,,,,,48,0,3,,,,,2,,,76,0
109200,note_on,,,,,0,0,3,,,,,2,,,77,92
109200,note_off,,,,,48,0,1,,,,,0,,,76,0
109200,note_on,,,,,0,0,1,,,,,0,,,77,75
109248,note_off,,,,,48,0,3,,,,,2,,,77,0
109248,note_on,,,,,0,0,3,,,,,2,,,77,92
109248,note_off,,,,,48,0,1,,,,,0,,,77,0
109248,note_on,,,,,0,0,1,,,,,0,,,77,75
109296,note_on,,,,,0,0,1,,,,,0,,,76,75
109296,note_off,,,,,48,0,3,,,,,2,,,77,0
109296,note_on,,,,,0,0,3,,,,,2,,,76,92
109296,note_off,,,,,48,0,1,,,,,0,,,77,0
109344,note_on,,,,,0,0,1,,,,,0,,,77,75
109344,note_off,,,,,48,0,3,,,,,2,,,76,0
109344,note_on,,,,,0,0,3,,,,,2,,,77,92
109344,note_off,,,,,48,0,1,,,,,0,,,76,0
109392,note_on,,,,,0,0,3,,,,,2,,,76,92
109392,note_off,,,,,48,0,3,,,,,2,,,77,0
109392,note_off,,,,,48,0,1,,,,,0,,,77,0
109392,note_on,,,,,0,0,1,,,,,0,,,76,75
109440,note_off,,,,,48,0,3,,,,,2,,,76,0
109440,note_on,,,,,0,0,1,,,,,0,,,77,75
109440,note_on,,,,,0,0,3,,,,,2,,,77,92
109440,note_off,,,,,48,0,1,,,,,0,,,76,0
109488,note_on,,,,,0,0,1,,,,,0,,,76,75
109488,note_off,,,,,48,0,1,,,,,0,,,77,0
109488,note_off,,,,,48,0,3,,,,,2,,,77,0
109488,note_on,,,,,0,0,3,,,,,2,,,76,92
109536,note_on,,,,,0,0,1,,,,,0,,,77,75
109536,note_off,,,,,48,0,1,,,,,0,,,76,0
109536,note_off,,,,,48,0,3,,,,,2,,,76,0
109536,note_on,,,,,0,0,3,,,,,2,,,77,92
109584,note_on,,,,,0,0,3,,,,,2,,,76,92
109584,note_off,,,,,48,0,1,,,,,0,,,77,0
109584,note_on,,,,,0,0,1,,,,,0,,,76,75
109584,note_off,,,,,48,0,3,,,,,2,,,77,0
109632,note_on,,,,,0,0,3,,,,,2,,,77,92
109632,note_on,,,,,0,0,1,,,,,0,,,77,75
109632,note_off,,,,,48,0,1,,,,,0,,,76,0
109632,note_off,,,,,48,0,3,,,,,2,,,76,0
109680,note_off,,,,,48,0,3,,,,,2,,,77,0
109680,note_on,,,,,0,0,3,,,,,2,,,76,92
109680,note_on,,,,,0,0,1,,,,,0,,,76,75
109680,note_off,,,,,48,0,1,,,,,0,,,77,0
109728,note_off,,,,,672,0,8,,,,,7,,,63,0
109728,note_off,,,,,0,0,8,,,,,7,,,65,0
109728,note_on,,,,,0,0,1,,,,,0,,,77,75
109728,note_off,,,,,48,0,1,,,,,0,,,76,0
109728,note_off,,,,,672,0,7,,,,,6,,,36,0
109728,note_on,,,,,0,0,3,,,,,2,,,77,92
109728,note_off,,,,,672,0,9,,,,,8,,,45,0
109728,note_off,,,,,48,0,3,,,,,2,,,76,0
109776,note_off,,,,,48,0,1,,,,,0,,,77,0
109776,note_off,,,,,48,0,3,,,,,2,,,77,0
109776,note_on,,,,,0,0,3,,,,,2,,,76,92
109776,note_on,,,,,0,0,1,,,,,0,,,76,75
109824,note_on,,,,,96,0,8,,,,,7,,,62,37
109824,note_on,,,,,0,0,8,,,,,7,,,65,37
109824,note_on,,,,,96,0,9,,,,,8,,,46,37
109824,note_off,,,,,768,0,2,,,,,1,,,67,0
109824,note_on,,,,,0,0,2,,,,,1,,,72,75
109824,note_off,,,,,768,0,6,,,,,5,,,48,0
109824,note_on,,,,,0,0,6,,,,,5,,,36,75
109824,note_on,,,,,96,0,7,,,,,6,,,24,63
109824,note_off,,,,,768,0,4,,,,,3,,,67,0
109824,note_on,,,,,0,0,4,,,,,3,,,72,92
109824,note_off,,,,,768,0,5,,,,,4,,,72,0
109824,note_on,,,,,0,0,5,,,,,4,,,67,75
110144,note_off,,,,,320,0,8,,,,,7,,,72,0
110208,note_off,,,,,432,0,1,,,,,0,,,76,0
110208,note_on,,,,,0,0,1,,,,,0,,,77,75
110208,note_on,,,,,64,0,8,,,,,7,,,70,37
110208,note_off,,,,,432,0,3,,,,,2,,,76,0
110208,note_on,,,,,0,0,3,,,,,2,,,77,92
110496,note_off,,,,,672,0,7,,,,,6,,,24,0
110496,note_off,,,,,0,0,8,,,,,7,,,65,0
110496,note_off,,,,,672,0,9,,,,,8,,,46,0
110496,note_off,,,,,288,0,8,,,,,7,,,62,0
110528,note_off,,,,,32,0,8,,,,,7,,,70,0
110592,note_on,,,,,0,0,3,,,,,2,,,77,92
110592,note_on,,,,,0,0,6,,,,,5,,,41,75
110592,note_off,,,,,768,0,6,,,,,5,,,36,0
110592,note_off,,,,,384,0,1,,,,,0,,,77,0
110592,note_on,,,,,96,0,7,,,,,6,,,29,63
110592,note_on,,,,,0,0,8,,,,,7,,,69,37
110592,note_on,,,,,0,0,8,,,,,7,,,65,37
110592,note_on,,,,,64,0,8,,,,,7,,,60,37
110592,note_on,,,,,0,0,2,,,,,1,,,72,75
110592,note_off,,,,,768,0,2,,,,,1,,,72,0
110592,note_off,,,,,384,0,3,,,,,2,,,77,0
110592,note_off,,,,,768,0,4,,,,,3,,,72,0
110592,note_on,,,,,0,0,1,,,,,0,,,77,75
110592,note_on,,,,,96,0,9,,,,,8,,,41,37
110592,note_off,,,,,768,0,5,,,,,4,,,67,0
110592,note_on,,,,,0,0,5,,,,,4,,,69,75
110592,note_on,,,,,0,0,4,,,,,3,,,72,92
110784,note_on,,,,,0,0,1,,,,,0,,,72,75
110784,note_off,,,,,192,0,1,,,,,0,,,77,0
110784,note_off,,,,,192,0,3,,,,,2,,,77,0
110784,note_on,,,,,0,0,3,,,,,2,,,72,92
110976,note_off,,,,,192,0,1,,,,,0,,,72,0
110976,note_on,,,,,0,0,1,,,,,0,,,69,75
110976,note_on,,,,,0,0,3,,,,,2,,,69,92
110976,note_off,,,,,192,0,3,,,,,2,,,72,0
111264,note_off,,,,,0,0,8,,,,,7,,,69,0
111264,note_off,,,,,0,0,8,,,,,7,,,65,0
111264,note_off,,,,,672,0,7,,,,,6,,,29,0
111264,note_off,,,,,672,0,9,,,,,8,,,41,0
111264,note_off,,,,,672,0,8,,,,,7,,,60,0
111360,note_off,,,,,768,0,4,,,,,3,,,72,0
111360,note_on,,,,,0,0,8,,,,,7,,,72,37
111360,note_on,,,,,96,0,8,,,,,7,,,63,37
111360,note_on,,,,,0,0,8,,,,,7,,,65,37
111360,note_on,,,,,0,0,4,,,,,3,,,65,92
111360,note_on,,,,,0,0,6,,,,,5,,,53,75
111360,note_on,,,,,0,0,2,,,,,1,,,65,75
111360,note_on,,,,,96,0,7,,,,,6,,,41,63
111360,note_on,,,,,0,0,5,,,,,4,,,60,75
111360,note_off,,,,,768,0,6,,,,,5,,,41,0
111360,note_off,,,,,768,0,5,,,,,4,,,69,0
111360,note_off,,,,,768,0,2,,,,,1,,,72,0
111360,note_on,,,,,96,0,9,,,,,8,,,57,37
111552,note_off,,,,,576,0,3,,,,,2,,,69,0
111552,note_on,,,,,0,0,1,,,,,0,,,72,75
111552,note_on,,,,,0,0,3,,,,,2,,,72,92
111552,note_off,,,,,576,0,1,,,,,0,,,69,0
111680,note_off,,,,,320,0,7,,,,,6,,,41,0
111744,note_off,,,,,384,0,6,,,,,5,,,53,0
111744,note_on,,,,,0,0,6,,,,,5,,,57,75
111744,note_on,,,,,0,0,3,,,,,2,,,65,92
111744,note_off,,,,,192,0,3,,,,,2,,,72,0
111744,note_off,,,,,192,0,1,,,,,0,,,72,0
111744,note_on,,,,,64,0,7,,,,,6,,,45,63
111744,note_on,,,,,0,0,1,,,,,0,,,65,75
112032,note_off,,,,,672,0,8,,,,,7,,,63,0
112032,note_off,,,,,672,0,9,,,,,8,,,57,0
112032,note_off,,,,,0,0,8,,,,,7,,,65,0
112064,note_off,,,,,320,0,7,,,,,6,,,45,0
112128,note_on,,,,,96,0,9,,,,,8,,,58,37
112128,note_off,,,,,768,0,5,,,,,4,,,60,0
112128,note_off,,,,,384,0,6,,,,,5,,,57,0
112128,note_on,,,,,96,0,8,,,,,7,,,62,37
112128,note_on,,,,,0,0,8,,,,,7,,,65,37
112128,note_on,,,,,0,0,5,,,,,4,,,62,75
112128,note_on,,,,,64,0,7,,,,,6,,,46,63
112128,note_on,,,,,0,0,6,,,,,5,,,58,75
112320,note_off,,,,,576,0,1,,,,,0,,,65,0
112320,note_on,,,,,0,0,3,,,,,2,,,74,92
112320,note_off,,,,,576,0,3,,,,,2,,,65,0
112320,note_on,,,,,0,0,1,,,,,0,,,74,75
112448,note_off,,,,,320,0,8,,,,,7,,,72,0
112448,note_off,,,,,320,0,7,,,,,6,,,46,0
112512,note_on,,,,,0,0,1,,,,,0,,,72,75
112512,note_off,,,,,384,0,6,,,,,5,,,58,0
112512,note_on,,,,,0,0,6,,,,,5,,,46,75
112512,note_off,,,,,192,0,3,,,,,2,,,74,0
112512,note_off,,,,,1152,0,2,,,,,1,,,65,0
112512,note_on,,,,,0,0,2,,,,,1,,,67,75
112512,note_on,,,,,0,0,3,,,,,2,,,72,92
112512,note_on,,,,,64,0,8,,,,,7,,,70,37
112512,note_on,,,,,0,0,4,,,,,3,,,67,92
112512,note_off,,,,,1152,0,4,,,,,3,,,65,0
112512,note_off,,,,,192,0,1,,,,,0,,,74,0
112512,note_on,,,,,64,0,7,,,,,6,,,34,63
112704,note_off,,,,,192,0,3,,,,,2,,,72,0
112704,note_on,,,,,0,0,3,,,,,2,,,70,92
112704,note_off,,,,,192,0,1,,,,,0,,,72,0
112704,note_on,,,,,0,0,5,,,,,4,,,64,75
112704,note_off,,,,,576,0,5,,,,,4,,,62,0
112704,note_on,,,,,0,0,1,,,,,0,,,70,75
112800,note_off,,,,,0,0,8,,,,,7,,,65,0
112800,note_off,,,,,288,0,8,,,,,7,,,62,0
112800,note_off,,,,,672,0,9,,,,,8,,,58,0
112832,note_off,,,,,320,0,7,,,,,6,,,34,0
112896,note_on,,,,,0,0,1,,,,,0,,,69,75
112896,note_off,,,,,384,0,6,,,,,5,,,46,0
112896,note_on,,,,,0,0,6,,,,,5,,,53,75
112896,note_on,,,,,96,0,8,,,,,7,,,63,37
112896,note_off,,,,,384,0,4,,,,,3,,,67,0
112896,note_on,,,,,0,0,4,,,,,3,,,60,92
112896,note_off,,,,,192,0,1,,,,,0,,,70,0
112896,note_off,,,,,384,0,2,,,,,1,,,67,0
112896,note_off,,,,,192,0,3,,,,,2,,,70,0
112896,note_on,,,,,96,0,9,,,,,8,,,60,37
112896,note_off,,,,,192,0,5,,,,,4,,,64,0
112896,note_on,,,,,0,0,5,,,,,4,,,65,75
112896,note_on,,,,,64,0,7,,,,,6,,,41,63
112896,note_on,,,,,0,0,2,,,,,1,,,60,75
112896,note_on,,,,,0,0,3,,,,,2,,,69,92
113088,note_on,,,,,0,0,1,,,,,0,,,72,75
113088,note_off,,,,,192,0,3,,,,,2,,,69,0
113088,note_on,,,,,0,0,3,,,,,2,,,72,92
113088,note_off,,,,,192,0,1,,,,,0,,,69,0
113216,note_off,,,,,320,0,8,,,,,7,,,70,0
113216,note_off,,,,,0,0,8,,,,,7,,,63,0
113280,note_off,,,,,192,0,3,,,,,2,,,72,0
113280,note_on,,,,,0,0,1,,,,,0,,,65,75
113280,note_on,,,,,64,0,8,,,,,7,,,67,37
113280,note_on,,,,,0,0,3,,,,,2,,,65,92
113280,note_off,,,,,192,0,1,,,,,0,,,72,0
113568,note_off,,,,,672,0,7,,,,,6,,,41,0
113568,note_off,,,,,672,0,9,,,,,8,,,60,0
113600,note_off,,,,,320,0,8,,,,,7,,,67,0
113664,note_on,,,,,0,0,6,,,,,5,,,50,75
113664,note_off,,,,,768,0,6,,,,,5,,,53,0
113664,note_on,,,,,0,0,2,,,,,1,,,62,75
113664,note_off,,,,,768,0,2,,,,,1,,,60,0
113664,note_off,,,,,768,0,4,,,,,3,,,60,0
113664,note_on,,,,,0,0,4,,,,,3,,,62,92
113664,note_off,,,,,768,0,5,,,,,4,,,65,0
113664,note_on,,,,,0,0,5,,,,,4,,,53,75
113664,note_on,,,,,96,0,7,,,,,6,,,38,63
113664,note_on,,,,,96,0,9,,,,,8,,,53,37
113664,note_on,,,,,0,0,8,,,,,7,,,69,37
113664,note_on,,,,,64,0,8,,,,,7,,,63,37
113856,note_off,,,,,576,0,1,,,,,0,,,65,0
113856,note_on,,,,,0,0,1,,,,,0,,,70,75
113856,note_on,,,,,0,0,3,,,,,2,,,70,92
113856,note_off,,,,,576,0,3,,,,,2,,,65,0
113984,note_off,,,,,320,0,7,,,,,6,,,38,0
114048,note_on,,,,,0,0,1,,,,,0,,,67,75
114048,note_on,,,,,64,0,7,,,,,6,,,40,63
114048,note_on,,,,,0,0,4,,,,,3,,,67,92
114048,note_off,,,,,384,0,4,,,,,3,,,62,0
114048,note_off,,,,,192,0,1,,,,,0,,,70,0
114048,note_off,,,,,384,0,2,,,,,1,,,62,0
114048,note_on,,,,,0,0,2,,,,,1,,,67,75
114048,note_on,,,,,0,0,5,,,,,4,,,60,75
114048,note_off,,,,,384,0,5,,,,,4,,,53,0
114048,note_off,,,,,192,0,3,,,,,2,,,70,0
114048,note_on,,,,,0,0,3,,,,,2,,,67,92
114048,note_off,,,,,384,0,6,,,,,5,,,50,0
114048,note_on,,,,,0,0,6,,,,,5,,,52,75
114336,note_off,,,,,0,0,8,,,,,7,,,69,0
114336,note_off,,,,,672,0,8,,,,,7,,,63,0
114336,note_off,,,,,672,0,9,,,,,8,,,53,0
114368,note_off,,,,,320,0,7,,,,,6,,,40,0
114432,note_on,,,,,0,0,8,,,,,7,,,72,37
114432,note_on,,,,,96,0,9,,,,,8,,,57,37
114432,note_on,,,,,64,0,7,,,,,6,,,41,63
114432,note_on,,,,,0,0,4,,,,,3,,,60,92
114432,note_off,,,,,384,0,4,,,,,3,,,67,0
114432,note_off,,,,,384,0,2,,,,,1,,,67,0
114432,note_on,,,,,0,0,2,,,,,1,,,60,75
114432,note_off,,,,,384,0,6,,,,,5,,,52,0
114432,note_on,,,,,0,0,6,,,,,5,,,53,75
114432,note_off,,,,,384,0,5,,,,,4,,,60,0
114432,note_on,,,,,0,0,8,,,,,7,,,65,37
114432,note_on,,,,,0,0,5,,,,,4,,,57,75
114432,note_on,,,,,96,0,8,,,,,7,,,63,37
114624,note_off,,,,,576,0,3,,,,,2,,,67,0
114624,note_on,,,,,0,0,1,,,,,0,,,69,75
114624,note_off,,,,,576,0,1,,,,,0,,,67,0
114624,note_on,,,,,0,0,3,,,,,2,,,69,92
114752,note_off,,,,,320,0,7,,,,,6,,,41,0
114816,note_on,,,,,0,0,6,,,,,5,,,45,75
114816,note_off,,,,,192,0,1,,,,,0,,,69,0
114816,note_on,,,,,0,0,1,,,,,0,,,65,75
114816,note_on,,,,,0,0,3,,,,,2,,,65,92
114816,note_off,,,,,192,0,3,,,,,2,,,69,0
114816,note_off,,,,,384,0,6,,,,,5,,,53,0
114816,note_on,,,,,64,0,7,,,,,6,,,33,63
115104,note_off,,,,,672,0,9,,,,,8,,,57,0
115104,note_off,,,,,0,0,8,,,,,7,,,72,0
115104,note_off,,,,,0,0,8,,,,,7,,,65,0
115104,note_off,,,,,672,0,8,,,,,7,,,63,0
115136,note_off,,,,,320,0,7,,,,,6,,,33,0
115200,note_off,,,,,768,0,5,,,,,4,,,57,0
115200,note_on,,,,,0,0,1,,,,,0,,,67,75
115200,note_on,,,,,0,0,2,,,,,1,,,62,75
115200,note_off,,,,,768,0,2,,,,,1,,,60,0
115200,note_on,,,,,64,0,7,,,,,6,,,34,63
115200,note_off,,,,,768,0,4,,,,,3,,,60,0
115200,note_on,,,,,96,0,9,,,,,8,,,58,37
115200,note_on,,,,,0,0,3,,,,,2,,,67,92
115200,note_on,,,,,0,0,5,,,,,4,,,58,75
115200,note_off,,,,,384,0,3,,,,,2,,,65,0
115200,note_on,,,,,0,0,4,,,,,3,,,62,92
115200,note_off,,,,,384,0,6,,,,,5,,,45,0
115200,note_on,,,,,0,0,6,,,,,5,,,46,75
115200,note_on,,,,,0,0,8,,,,,7,,,70,37
115200,note_on,,,,,0,0,8,,,,,7,,,65,37
115200,note_on,,,,,96,0,8,,,,,7,,,62,37
115200,note_off,,,,,384,0,1,,,,,0,,,65,0
115520,note_off,,,,,0,0,8,,,,,7,,,70,0
115520,note_off,,,,,0,0,8,,,,,7,,,65,0
115520,note_off,,,,,320,0,8,,,,,7,,,62,0
115520,note_off,,,,,320,0,9,,,,,8,,,58,0
115584,note_on,,,,,0,0,1,,,,,0,,,62,75
115584,note_off,,,,,384,0,3,,,,,2,,,67,0
115584,note_on,,,,,0,0,3,,,,,2,,,62,92
115584,note_on,,,,,0,0,8,,,,,7,,,72,37
115584,note_on,,,,,0,0,8,,,,,7,,,67,37
115584,note_on,,,,,64,0,8,,,,,7,,,63,37
115584,note_off,,,,,384,0,1,,,,,0,,,67,0
115584,note_on,,,,,64,0,9,,,,,8,,,51,37
115872,note_off,,,,,672,0,7,,,,,6,,,34,0
115904,note_off,,,,,320,0,9,,,,,8,,,51,0
115904,note_off,,,,,0,0,8,,,,,7,,,72,0
115904,note_off,,,,,0,0,8,,,,,7,,,67,0
115904,note_off,,,,,320,0,8,,,,,7,,,63,0
115968,note_on,,,,,0,0,1,,,,,0,,,65,75
115968,note_on,,,,,0,0,3,,,,,2,,,65,92
115968,note_off,,,,,384,0,3,,,,,2,,,62,0
115968,note_on,,,,,64,0,8,,,,,7,,,60,37
115968,note_on,,,,,64,0,9,,,,,8,,,53,37
115968,note_on,,,,,0,0,2,,,,,1,,,60,75
115968,note_off,,,,,768,0,2,,,,,1,,,62,0
115968,note_off,,,,,768,0,6,,,,,5,,,46,0
115968,note_on,,,,,0,0,6,,,,,5,,,48,75
115968,note_on,,,,,96,0,7,,,,,6,,,36,63
115968,note_on,,,,,0,0,8,,,,,7,,,69,37
115968,note_on,,,,,0,0,4,,,,,3,,,60,92
115968,note_off,,,,,768,0,4,,,,,3,,,62,0
115968,note_off,,,,,768,0,5,,,,,4,,,58,0
115968,note_on,,,,,0,0,5,,,,,4,,,55,75
115968,note_off,,,,,384,0,1,,,,,0,,,62,0
116064,note_on,,,,,0,0,1,,,,,0,,,64,75
116064,note_on,,,,,0,0,3,,,,,2,,,64,92
116064,note_off,,,,,96,0,3,,,,,2,,,65,0
116064,note_off,,,,,96,0,1,,,,,0,,,65,0
116112,note_on,,,,,0,0,1,,,,,0,,,65,75
116112,note_on,,,,,0,0,3,,,,,2,,,65,92
116112,note_off,,,,,48,0,3,,,,,2,,,64,0
116112,note_off,,,,,48,0,1,,,,,0,,,64,0
116160,note_on,,,,,0,0,3,,,,,2,,,65,92
116160,note_off,,,,,48,0,1,,,,,0,,,65,0
116160,note_off,,,,,48,0,3,,,,,2,,,65,0
116160,note_on,,,,,0,0,1,,,,,0,,,65,75
116208,note_on,,,,,0,0,1,,,,,0,,,64,75
116208,note_on,,,,,0,0,3,,,,,2,,,64,92
116208,note_off,,,,,48,0,1,,,,,0,,,65,0
116208,note_off,,,,,48,0,3,,,,,2,,,65,0
116256,note_on,,,,,0,0,1,,,,,0,,,65,75
116256,note_off,,,,,48,0,1,,,,,0,,,64,0
116256,note_off,,,,,48,0,3,,,,,2,,,64,0
116256,note_on,,,,,0,0,3,,,,,2,,,65,92
116288,note_off,,,,,320,0,9,,,,,8,,,53,0
116304,note_off,,,,,48,0,1,,,,,0,,,65,0
116304,note_on,,,,,0,0,3,,,,,2,,,64,92
116304,note_off,,,,,48,0,3,,,,,2,,,65,0
116304,note_on,,,,,0,0,1,,,,,0,,,64,75
116352,note_off,,,,,48,0,1,,,,,0,,,64,0
116352,note_off,,,,,48,0,3,,,,,2,,,64,0
116352,note_on,,,,,0,0,3,,,,,2,,,65,92
116352,note_on,,,,,0,0,1,,,,,0,,,65,75
116352,note_on,,,,,64,0,9,,,,,8,,,65,37
116400,note_off,,,,,48,0,1,,,,,0,,,65,0
116400,note_on,,,,,0,0,1,,,,,0,,,64,75
116400,note_off,,,,,48,0,3,,,,,2,,,65,0
116400,note_on,,,,,0,0,3,,,,,2,,,64,92
116448,note_on,,,,,0,0,3,,,,,2,,,65,92
116448,note_off,,,,,48,0,3,,,,,2,,,64,0
116448,note_off,,,,,48,0,1,,,,,0,,,64,0
116448,note_on,,,,,0,0,1,,,,,0,,,65,75
116496,note_on,,,,,0,0,1,,,,,0,,,64,75
116496,note_on,,,,,0,0,3,,,,,2,,,64,92
116496,note_off,,,,,48,0,3,,,,,2,,,65,0
116496,note_off,,,,,48,0,1,,,,,0,,,65,0
116544,note_on,,,,,0,0,1,,,,,0,,,65,75
116544,note_off,,,,,48,0,1,,,,,0,,,64,0
116544,note_on,,,,,0,0,3,,,,,2,,,65,92
116544,note_off,,,,,48,0,3,,,,,2,,,64,0
116592,note_on,,,,,0,0,3,,,,,2,,,64,92
116592,note_off,,,,,48,0,3,,,,,2,,,65,0
116592,note_on,,,,,0,0,1,,,,,0,,,64,75
116592,note_off,,,,,48,0,1,,,,,0,,,65,0
116640,note_on,,,,,0,0,1,,,,,0,,,65,75
116640,note_on,,,,,0,0,3,,,,,2,,,65,92
116640,note_off,,,,,48,0,3,,,,,2,,,64,0
116640,note_off,,,,,672,0,8,,,,,7,,,60,0
116640,note_off,,,,,672,0,7,,,,,6,,,36,0
116640,note_off,,,,,48,0,1,,,,,0,,,64,0
116640,note_off,,,,,0,0,8,,,,,7,,,69,0
116672,note_off,,,,,320,0,9,,,,,8,,,65,0
116688,note_on,,,,,0,0,3,,,,,2,,,64,92
116688,note_off,,,,,48,0,3,,,,,2,,,65,0
116688,note_on,,,,,0,0,1,,,,,0,,,64,75
116688,note_off,,,,,48,0,1,,,,,0,,,65,0
116736,note_on,,,,,96,0,8,,,,,7,,,65,37
116736,note_on,,,,,96,0,7,,,,,6,,,24,63
116736,note_off,,,,,768,0,5,,,,,4,,,55,0
116736,note_on,,,,,0,0,6,,,,,5,,,36,75
116736,note_on,,,,,0,0,5,,,,,4,,,60,75
116736,note_off,,,,,768,0,6,,,,,5,,,48,0
116736,note_on,,,,,64,0,9,,,,,8,,,63,37
116736,note_on,,,,,0,0,8,,,,,7,,,72,37
116736,note_on,,,,,0,0,8,,,,,7,,,69,37
117056,note_off,,,,,320,0,9,,,,,8,,,63,0
117120,note_off,,,,,1152,0,4,,,,,3,,,60,0
117120,note_off,,,,,432,0,3,,,,,2,,,64,0
117120,note_on,,,,,0,0,4,,,,,3,,,58,92
117120,note_on,,,,,0,0,3,,,,,2,,,65,92
117120,note_on,,,,,64,0,9,,,,,8,,,65,37
117120,note_off,,,,,432,0,1,,,,,0,,,64,0
117120,note_on,,,,,0,0,1,,,,,0,,,65,75
117120,note_on,,,,,0,0,2,,,,,1,,,58,75
117120,note_off,,,,,1152,0,2,,,,,1,,,60,0
117408,note_off,,,,,0,0,8,,,,,7,,,72,0
117408,note_off,,,,,0,0,8,,,,,7,,,69,0
117408,note_off,,,,,672,0,8,,,,,7,,,65,0
117408,note_off,,,,,672,0,7,,,,,6,,,24,0
117440,note_off,,,,,320,0,9,,,,,8,,,65,0
117504,note_on,,,,,0,0,5,,,,,4,,,60,75
117504,note_off,,,,,768,0,5,,,,,4,,,60,0
117504,note_off,,,,,768,0,6,,,,,5,,,36,0
117504,note_on,,,,,96,0,8,,,,,7,,,65,37
117504,note_on,,,,,0,0,3,,,,,2,,,65,92
117504,note_on,,,,,0,0,8,,,,,7,,,70,37
117504,note_on,,,,,0,0,8,,,,,7,,,77,37
117504,note_on,,,,,0,0,6,,,,,5,,,41,75
117504,note_on,,,,,0,0,2,,,,,1,,,57,75
117504,note_off,,,,,384,0,3,,,,,2,,,65,0
117504,note_off,,,,,384,0,2,,,,,1,,,58,0
117504,note_on,,,,,0,0,4,,,,,3,,,57,92
117504,note_on,,,,,96,0,7,,,,,6,,,29,63
117504,note_off,,,,,384,0,1,,,,,0,,,65,0
117504,note_on,,,,,0,0,1,,,,,0,,,65,75
117504,note_on,,,,,64,0,9,,,,,8,,,62,37
117504,note_off,,,,,384,0,4,,,,,3,,,58,0
117824,note_off,,,,,320,0,7,,,,,6,,,29,0
117888,note_off,,,,,384,0,6,,,,,5,,,41,0
117888,note_on,,,,,0,0,6,,,,,5,,,46,75
117888,note_off,,,,,384,0,4,,,,,3,,,57,0
117888,note_on,,,,,0,0,4,,,,,3,,,62,92
117888,note_on,,,,,64,0,7,,,,,6,,,34,63
117888,note_on,,,,,0,0,2,,,,,1,,,62,75
117888,note_off,,,,,384,0,2,,,,,1,,,57,0
118176,note_off,,,,,672,0,8,,,,,7,,,65,0
118176,note_off,,,,,0,0,8,,,,,7,,,70,0
118176,note_off,,,,,0,0,8,,,,,7,,,77,0
118176,note_off,,,,,672,0,9,,,,,8,,,62,0
118208,note_off,,,,,320,0,7,,,,,6,,,34,0
118272,note_on,,,,,0,0,2,,,,,1,,,60,75
118272,note_off,,,,,384,0,2,,,,,1,,,62,0
118272,note_on,,,,,96,0,8,,,,,7,,,65,37
118272,note_on,,,,,0,0,4,,,,,3,,,60,92
118272,note_on,,,,,64,0,7,,,,,6,,,33,63
118272,note_on,,,,,96,0,9,,,,,8,,,58,37
118272,note_off,,,,,384,0,4,,,,,3,,,62,0
118272,note_on,,,,,0,0,6,,,,,5,,,45,75
118272,note_off,,,,,384,0,6,,,,,5,,,46,0
118272,note_off,,,,,768,0,5,,,,,4,,,60,0
118272,note_on,,,,,0,0,8,,,,,7,,,74,37
118272,note_on,,,,,0,0,8,,,,,7,,,70,37
118272,note_on,,,,,0,0,5,,,,,4,,,65,75
118592,note_off,,,,,320,0,7,,,,,6,,,33,0
118656,note_off,,,,,384,0,4,,,,,3,,,60,0
118656,note_on,,,,,0,0,4,,,,,3,,,58,92
118656,note_on,,,,,64,0,7,,,,,6,,,31,63
118656,note_off,,,,,384,0,6,,,,,5,,,45,0
118656,note_on,,,,,0,0,6,,,,,5,,,43,75
118656,note_on,,,,,0,0,2,,,,,1,,,58,75
118656,note_off,,,,,384,0,2,,,,,1,,,60,0
118944,note_off,,,,,0,0,8,,,,,7,,,74,0
118944,note_off,,,,,672,0,9,,,,,8,,,58,0
118944,note_off,,,,,0,0,8,,,,,7,,,70,0
118944,note_off,,,,,672,0,8,,,,,7,,,65,0
118976,note_off,,,,,320,0,7,,,,,6,,,31,0
119040,note_on,,,,,0,0,6,,,,,5,,,45,75
119040,note_off,,,,,384,0,2,,,,,1,,,58,0
119040,note_off,,,,,384,0,4,,,,,3,,,58,0
119040,note_on,,,,,0,0,4,,,,,3,,,60,92
119040,note_on,,,,,0,0,2,,,,,1,,,60,75
119040,note_on,,,,,96,0,9,,,,,8,,,51,37
119040,note_on,,,,,64,0,7,,,,,6,,,33,63
119040,note_off,,,,,384,0,6,,,,,5,,,43,0
119040,note_on,,,,,0,0,8,,,,,7,,,70,37
119040,note_on,,,,,96,0,8,,,,,7,,,67,37
119360,note_off,,,,,320,0,7,,,,,6,,,33,0
119424,note_on,,,,,64,0,7,,,,,6,,,29,63
119424,note_off,,,,,384,0,4,,,,,3,,,60,0
119424,note_on,,,,,0,0,2,,,,,1,,,57,75
119424,note_on,,,,,0,0,6,,,,,5,,,41,75
119424,note_off,,,,,384,0,2,,,,,1,,,60,0
119424,note_on,,,,,0,0,4,,,,,3,,,57,92
119424,note_off,,,,,384,0,6,,,,,5,,,45,0
119712,note_off,,,,,672,0,8,,,,,7,,,67,0
119712,note_off,,,,,0,0,8,,,,,7,,,70,0
119712,note_off,,,,,672,0,9,,,,,8,,,51,0
119744,note_off,,,,,320,0,7,,,,,6,,,29,0
119808,note_off,,,,,2304,0,1,,,,,0,,,65,0
119808,note_on,,,,,0,0,1,,,,,0,,,72,75
119808,note_on,,,,,0,0,8,,,,,7,,,70,37
119808,note_off,,,,,384,0,6,,,,,5,,,41,0
119808,note_on,,,,,96,0,9,,,,,8,,,50,37
119808,note_on,,,,,96,0,8,,,,,7,,,65,37
119808,note_off,,,,,2304,0,3,,,,,2,,,65,0
119808,note_on,,,,,0,0,2,,,,,1,,,69,75
119808,note_on,,,,,0,0,3,,,,,2,,,72,92
119808,note_on,,,,,64,0,7,,,,,6,,,41,63
119808,note_on,,,,,0,0,4,,,,,3,,,69,92
119808,note_off,,,,,384,0,4,,,,,3,,,57,0
119808,note_off,,,,,1536,0,5,,,,,4,,,65,0
119808,note_on,,,,,0,0,5,,,,,4,,,60,75
119808,note_on,,,,,0,0,6,,,,,5,,,53,75
119808,note_off,,,,,384,0,2,,,,,1,,,57,0
120000,note_on,,,,,0,0,3,,,,,2,,,69,92
120000,note_off,,,,,192,0,3,,,,,2,,,72,0
120000,note_on,,,,,0,0,1,,,,,0,,,69,75
120000,note_off,,,,,192,0,1,,,,,0,,,72,0
120192,note_off,,,,,192,0,1,,,,,0,,,69,0
120192,note_off,,,,,192,0,3,,,,,2,,,69,0
120192,note_on,,,,,0,0,3,,,,,2,,,65,92
120192,note_on,,,,,0,0,1,,,,,0,,,65,75
120480,note_off,,,,,672,0,9,,,,,8,,,50,0
120480,note_off,,,,,672,0,8,,,,,7,,,65,0
120480,note_off,,,,,0,0,8,,,,,7,,,70,0
120480,note_off,,,,,672,0,7,,,,,6,,,41,0
120576,note_on,,,,,0,0,4,,,,,3,,,65,92
120576,note_off,,,,,768,0,4,,,,,3,,,69,0
120576,note_off,,,,,768,0,2,,,,,1,,,69,0
120576,note_on,,,,,0,0,2,,,,,1,,,65,75
120576,note_on,,,,,0,0,8,,,,,7,,,70,37
120576,note_on,,,,,96,0,7,,,,,6,,,33,63
120576,note_on,,,,,96,0,9,,,,,8,,,55,37
120576,note_on,,,,,0,0,6,,,,,5,,,45,75
120576,note_on,,,,,96,0,8,,,,,7,,,62,37
120576,note_off,,,,,768,0,6,,,,,5,,,53,0
120960,note_off,,,,,768,0,3,,,,,2,,,65,0
120960,note_on,,,,,0,0,3,,,,,2,,,77,92
120960,note_on,,,,,0,0,1,,,,,0,,,77,75
120960,note_off,,,,,768,0,1,,,,,0,,,65,0
121248,note_off,,,,,672,0,8,,,,,7,,,62,0
121248,note_off,,,,,672,0,7,,,,,6,,,33,0
121248,note_off,,,,,672,0,9,,,,,8,,,55,0
121344,note_on,,,,,0,0,5,,,,,4,,,62,75
121344,note_off,,,,,1536,0,5,,,,,4,,,60,0
121344,note_on,,,,,96,0,8,,,,,7,,,60,37
121344,note_on,,,,,0,0,8,,,,,7,,,63,37
121344,note_on,,,,,96,0,7,,,,,6,,,34,63
121344,note_on,,,,,96,0,9,,,,,8,,,48,37
121344,note_on,,,,,0,0,6,,,,,5,,,46,75
121344,note_off,,,,,768,0,6,,,,,5,,,45,0
121536,note_off,,,,,576,0,1,,,,,0,,,77,0
121536,note_off,,,,,576,0,3,,,,,2,,,77,0
121536,note_on,,,,,0,0,3,,,,,2,,,72,92
121536,note_on,,,,,0,0,1,,,,,0,,,72,75
121664,note_off,,,,,320,0,9,,,,,8,,,48,0
121664,note_off,,,,,320,0,8,,,,,7,,,70,0
121728,note_on,,,,,64,0,8,,,,,7,,,69,37
121728,note_off,,,,,1152,0,4,,,,,3,,,65,0
121728,note_on,,,,,0,0,4,,,,,3,,,67,92
121728,note_off,,,,,1152,0,2,,,,,1,,,65,0
121728,note_on,,,,,0,0,2,,,,,1,,,67,75
121728,note_on,,,,,0,0,1,,,,,0,,,74,75
121728,note_off,,,,,192,0,1,,,,,0,,,72,0
121728,note_on,,,,,0,0,3,,,,,2,,,74,92
121728,note_off,,,,,192,0,3,,,,,2,,,72,0
121728,note_on,,,,,0,0,5,,,,,4,,,64,75
121728,note_off,,,,,384,0,5,,,,,4,,,62,0
121728,note_on,,,,,64,0,9,,,,,8,,,41,37
121920,note_off,,,,,192,0,3,,,,,2,,,74,0
121920,note_off,,,,,192,0,1,,,,,0,,,74,0
121920,note_on,,,,,0,0,1,,,,,0,,,70,75
121920,note_on,,,,,0,0,3,,,,,2,,,70,92
122016,note_off,,,,,672,0,7,,,,,6,,,34,0
122016,note_off,,,,,0,0,8,,,,,7,,,63,0
122016,note_off,,,,,288,0,8,,,,,7,,,60,0
122048,note_off,,,,,32,0,8,,,,,7,,,69,0
122048,note_off,,,,,320,0,9,,,,,8,,,41,0
122112,note_off,,,,,192,0,1,,,,,0,,,70,0
122112,note_on,,,,,0,0,1,,,,,0,,,72,75
122112,note_on,,,,,64,0,8,,,,,7,,,62,37
122112,note_on,,,,,0,0,4,,,,,3,,,69,92
122112,note_off,,,,,384,0,2,,,,,1,,,67,0
122112,note_off,,,,,384,0,4,,,,,3,,,67,0
122112,note_on,,,,,96,0,7,,,,,6,,,29,63
122112,note_on,,,,,64,0,9,,,,,8,,,46,37
122112,note_on,,,,,0,0,3,,,,,2,,,72,92
122112,note_off,,,,,192,0,3,,,,,2,,,70,0
122112,note_off,,,,,768,0,6,,,,,5,,,46,0
122112,note_off,,,,,384,0,5,,,,,4,,,64,0
122112,note_on,,,,,0,0,5,,,,,4,,,65,75
122112,note_on,,,,,0,0,2,,,,,1,,,69,75
122112,note_on,,,,,0,0,6,,,,,5,,,41,75
122304,note_on,,,,,0,0,1,,,,,0,,,69,75
122304,note_off,,,,,192,0,1,,,,,0,,,72,0
122304,note_on,,,,,0,0,3,,,,,2,,,69,92
122304,note_off,,,,,192,0,3,,,,,2,,,72,0
122432,note_off,,,,,320,0,9,,,,,8,,,46,0
122432,note_off,,,,,320,0,8,,,,,7,,,62,0
122496,note_on,,,,,0,0,1,,,,,0,,,65,75
122496,note_off,,,,,192,0,3,,,,,2,,,69,0
122496,note_on,,,,,0,0,3,,,,,2,,,65,92
122496,note_on,,,,,64,0,9,,,,,8,,,51,37
122496,note_on,,,,,0,0,8,,,,,7,,,67,37
122496,note_off,,,,,192,0,1,,,,,0,,,69,0
122496,note_on,,,,,64,0,8,,,,,7,,,63,37
122784,note_off,,,,,672,0,7,,,,,6,,,29,0
122816,note_off,,,,,320,0,9,,,,,8,,,51,0
122816,note_off,,,,,0,0,8,,,,,7,,,67,0
122816,note_off,,,,,320,0,8,,,,,7,,,63,0
122880,note_off,,,,,768,0,2,,,,,1,,,69,0
122880,note_on,,,,,0,0,2,,,,,1,,,65,75
122880,note_on,,,,,0,0,6,,,,,5,,,62,75
122880,note_on,,,,,96,0,7,,,,,6,,,50,63
122880,note_on,,,,,0,0,4,,,,,3,,,65,92
122880,note_off,,,,,768,0,6,,,,,5,,,41,0
122880,note_off,,,,,768,0,4,,,,,3,,,69,0
122880,note_on,,,,,0,0,8,,,,,7,,,70,37
122880,note_on,,,,,0,0,8,,,,,7,,,65,37
122880,note_on,,,,,64,0,9,,,,,8,,,58,37
122880,note_on,,,,,64,0,8,,,,,7,,,62,37
123200,note_off,,,,,320,0,9,,,,,8,,,58,0
123200,note_off,,,,,320,0,8,,,,,7,,,62,0
123200,note_off,,,,,0,0,8,,,,,7,,,65,0
123264,note_off,,,,,768,0,3,,,,,2,,,65,0
123264,note_on,,,,,0,0,3,,,,,2,,,77,92
123264,note_on,,,,,64,0,8,,,,,7,,,60,37
123264,note_on,,,,,0,0,1,,,,,0,,,77,75
123264,note_off,,,,,768,0,1,,,,,0,,,65,0
123264,note_off,,,,,1152,0,5,,,,,4,,,65,0
123264,note_on,,,,,0,0,5,,,,,4,,,69,75
123264,note_on,,,,,64,0,9,,,,,8,,,51,37
123264,note_on,,,,,0,0,8,,,,,7,,,67,37
123552,note_off,,,,,672,0,7,,,,,6,,,50,0
123584,note_off,,,,,320,0,8,,,,,7,,,60,0
123584,note_off,,,,,0,0,8,,,,,7,,,67,0
123584,note_off,,,,,320,0,9,,,,,8,,,51,0
123648,note_off,,,,,768,0,2,,,,,1,,,65,0
123648,note_on,,,,,0,0,5,,,,,4,,,67,75
123648,note_off,,,,,384,0,5,,,,,4,,,69,0
123648,note_off,,,,,768,0,6,,,,,5,,,62,0
123648,note_on,,,,,0,0,6,,,,,5,,,59,75
123648,note_on,,,,,64,0,9,,,,,8,,,53,37
123648,note_on,,,,,96,0,7,,,,,6,,,47,63
123648,note_on,,,,,0,0,2,,,,,1,,,74,75
123648,note_on,,,,,64,0,8,,,,,7,,,62,37
123648,note_on,,,,,0,0,8,,,,,7,,,65,37
123648,note_off,,,,,768,0,4,,,,,3,,,65,0
123648,note_on,,,,,0,0,4,,,,,3,,,74,92
123840,note_on,,,,,0,0,1,,,,,0,,,74,75
123840,note_off,,,,,576,0,1,,,,,0,,,77,0
123840,note_on,,,,,0,0,3,,,,,2,,,74,92
123840,note_off,,,,,576,0,3,,,,,2,,,77,0
123968,note_off,,,,,0,0,8,,,,,7,,,62,0
123968,note_off,,,,,320,0,9,,,,,8,,,53,0
123968,note_off,,,,,320,0,8,,,,,7,,,70,0
123968,note_off,,,,,0,0,8,,,,,7,,,65,0
124032,note_on,,,,,64,0,8,,,,,7,,,60,37
124032,note_on,,,,,64,0,9,,,,,8,,,41,37
124032,note_off,,,,,192,0,3,,,,,2,,,74,0
124032,note_off,,,,,192,0,1,,,,,0,,,74,0
124032,note_on,,,,,0,0,1,,,,,0,,,79,75
124032,note_on,,,,,0,0,3,,,,,2,,,79,92
124032,note_on,,,,,0,0,8,,,,,7,,,63,37
124032,note_on,,,,,0,0,8,,,,,7,,,69,37
124224,note_off,,,,,192,0,1,,,,,0,,,79,0
124224,note_on,,,,,0,0,1,,,,,0,,,74,75
124224,note_off,,,,,192,0,3,,,,,2,,,79,0
124224,note_on,,,,,0,0,3,,,,,2,,,74,92
124320,note_off,,,,,672,0,7,,,,,6,,,47,0
124352,note_off,,,,,320,0,9,,,,,8,,,41,0
124352,note_off,,,,,0,0,8,,,,,7,,,69,0
124352,note_off,,,,,320,0,8,,,,,7,,,60,0
124352,note_off,,,,,0,0,8,,,,,7,,,63,0
124416,note_off,,,,,768,0,6,,,,,5,,,59,0
124416,note_off,,,,,192,0,3,,,,,2,,,74,0
124416,note_off,,,,,768,0,4,,,,,3,,,74,0
124416,note_on,,,,,0,0,4,,,,,3,,,72,92
124416,note_on,,,,,0,0,2,,,,,1,,,72,75
124416,note_on,,,,,0,0,1,,,,,0,,,75,75
124416,note_on,,,,,0,0,3,,,,,2,,,75,92
124416,note_on,,,,,64,0,9,,,,,8,,,43,37
124416,note_off,,,,,192,0,1,,,,,0,,,74,0
124416,note_on,,,,,0,0,8,,,,,7,,,62,37
124416,note_off,,,,,768,0,5,,,,,4,,,67,0
124416,note_on,,,,,0,0,5,,,,,4,,,67,75
124416,note_on,,,,,64,0,8,,,,,7,,,58,37
124416,note_off,,,,,768,0,2,,,,,1,,,74,0
124416,note_on,,,,,0,0,6,,,,,5,,,60,75
124416,note_on,,,,,0,0,8,,,,,7,,,70,37
124416,note_on,,,,,96,0,7,,,,,6,,,48,63
124608,note_off,,,,,192,0,1,,,,,0,,,75,0
124608,note_on,,,,,0,0,1,,,,,0,,,72,75
124608,note_on,,,,,0,0,3,,,,,2,,,72,92
124608,note_off,,,,,192,0,3,,,,,2,,,75,0
124736,note_off,,,,,320,0,9,,,,,8,,,43,0
124800,note_off,,,,,192,0,3,,,,,2,,,72,0
124800,note_on,,,,,64,0,9,,,,,8,,,41,37
124800,note_on,,,,,0,0,1,,,,,0,,,67,75
124800,note_off,,,,,192,0,1,,,,,0,,,72,0
124800,note_on,,,,,0,0,3,,,,,2,,,67,92
125088,note_off,,,,,0,0,8,,,,,7,,,70,0
125088,note_off,,,,,672,0,7,,,,,6,,,48,0
125088,note_off,,,,,0,0,8,,,,,7,,,62,0
125088,note_off,,,,,672,0,8,,,,,7,,,58,0
125120,note_off,,,,,320,0,9,,,,,8,,,41,0
125184,note_on,,,,,0,0,6,,,,,5,,,48,75
125184,note_on,,,,,0,0,4,,,,,3,,,63,92
125184,note_off,,,,,768,0,4,,,,,3,,,72,0
125184,note_on,,,,,64,0,9,,,,,8,,,39,37
125184,note_on,,,,,96,0,7,,,,,6,,,36,63
125184,note_off,,,,,768,0,6,,,,,5,,,60,0
125184,note_on,,,,,96,0,8,,,,,7,,,60,37
125184,note_on,,,,,0,0,8,,,,,7,,,70,37
125184,note_on,,,,,0,0,8,,,,,7,,,67,37
125184,note_off,,,,,768,0,2,,,,,1,,,72,0
125184,note_on,,,,,0,0,2,,,,,1,,,63,75
125568,note_off,,,,,768,0,3,,,,,2,,,67,0
125568,note_on,,,,,0,0,1,,,,,0,,,75,75
125568,note_off,,,,,768,0,1,,,,,0,,,67,0
125568,note_off,,,,,1152,0,5,,,,,4,,,67,0
125568,note_on,,,,,0,0,5,,,,,4,,,67,75
125568,note_on,,,,,0,0,3,,,,,2,,,75,92
125760,note_off,,,,,192,0,1,,,,,0,,,75,0
125760,note_off,,,,,192,0,3,,,,,2,,,75,0
125760,note_on,,,,,0,0,3,,,,,2,,,74,92
125760,note_on,,,,,0,0,1,,,,,0,,,74,75
125856,note_off,,,,,672,0,7,,,,,6,,,36,0
125856,note_off,,,,,672,0,8,,,,,7,,,60,0
125856,note_off,,,,,0,0,8,,,,,7,,,70,0
125856,note_off,,,,,0,0,8,,,,,7,,,67,0
125856,note_off,,,,,672,0,9,,,,,8,,,39,0
125952,note_on,,,,,0,0,8,,,,,7,,,65,37
125952,note_off,,,,,192,0,3,,,,,2,,,74,0
125952,note_on,,,,,0,0,1,,,,,0,,,72,75
125952,note_off,,,,,768,0,2,,,,,1,,,63,0
125952,note_off,,,,,192,0,1,,,,,0,,,74,0
125952,note_on,,,,,0,0,8,,,,,7,,,69,37
125952,note_on,,,,,0,0,6,,,,,5,,,51,75
125952,note_off,,,,,768,0,6,,,,,5,,,48,0
125952,note_on,,,,,96,0,8,,,,,7,,,60,37
125952,note_on,,,,,96,0,9,,,,,8,,,41,37
125952,note_off,,,,,384,0,5,,,,,4,,,67,0
125952,note_on,,,,,0,0,3,,,,,2,,,72,92
125952,note_off,,,,,768,0,4,,,,,3,,,63,0
125952,note_on,,,,,0,0,4,,,,,3,,,67,92
125952,note_on,,,,,0,0,5,,,,,4,,,63,75
125952,note_on,,,,,96,0,7,,,,,6,,,39,63
125952,note_on,,,,,0,0,2,,,,,1,,,67,75
126144,note_on,,,,,0,0,3,,,,,2,,,70,92
126144,note_off,,,,,192,0,3,,,,,2,,,72,0
126144,note_on,,,,,0,0,1,,,,,0,,,70,75
126144,note_off,,,,,192,0,1,,,,,0,,,72,0
126336,note_on,,,,,0,0,1,,,,,0,,,69,75
126336,note_off,,,,,192,0,1,,,,,0,,,70,0
126336,note_off,,,,,384,0,5,,,,,4,,,63,0
126336,note_off,,,,,192,0,3,,,,,2,,,70,0
126336,note_on,,,,,0,0,3,,,,,2,,,69,92
126336,note_on,,,,,0,0,5,,,,,4,,,60,75
126528,note_on,,,,,0,0,1,,,,,0,,,67,75
126528,note_off,,,,,192,0,1,,,,,0,,,69,0
126528,note_on,,,,,0,0,3,,,,,2,,,67,92
126528,note_off,,,,,192,0,3,,,,,2,,,69,0
126624,note_off,,,,,0,0,8,,,,,7,,,69,0
126624,note_off,,,,,0,0,8,,,,,7,,,65,0
126624,note_off,,,,,672,0,8,,,,,7,,,60,0
126624,note_off,,,,,672,0,7,,,,,6,,,39,0
126624,note_off,,,,,672,0,9,,,,,8,,,41,0
126720,note_off,,,,,384,0,5,,,,,4,,,60,0
126720,note_off,,,,,192,0,1,,,,,0,,,67,0
126720,note_on,,,,,0,0,4,,,,,3,,,62,92
126720,note_on,,,,,96,0,7,,,,,6,,,38,63
126720,note_off,,,,,192,0,3,,,,,2,,,67,0
126720,note_on,,,,,0,0,5,,,,,4,,,57,75
126720,note_off,,,,,768,0,4,,,,,3,,,67,0
126720,note_off,,,,,768,0,2,,,,,1,,,67,0
126720,note_on,,,,,0,0,8,,,,,7,,,70,37
126720,note_on,,,,,0,0,1,,,,,0,,,66,75
126720,note_on,,,,,0,0,6,,,,,5,,,50,75
126720,note_on,,,,,0,0,8,,,,,7,,,65,37
126720,note_on,,,,,96,0,8,,,,,7,,,62,37
126720,note_on,,,,,96,0,9,,,,,8,,,46,37
126720,note_off,,,,,768,0,6,,,,,5,,,51,0
126720,note_on,,,,,0,0,2,,,,,1,,,62,75
126720,note_on,,,,,0,0,3,,,,,2,,,66,92
126912,note_off,,,,,192,0,3,,,,,2,,,66,0
126912,note_on,,,,,0,0,3,,,,,2,,,69,92
126912,note_on,,,,,0,0,1,,,,,0,,,69,75
126912,note_off,,,,,192,0,1,,,,,0,,,66,0
127104,note_off,,,,,192,0,1,,,,,0,,,69,0
127104,note_on,,,,,0,0,1,,,,,0,,,62,75
127104,note_off,,,,,192,0,3,,,,,2,,,69,0
127104,note_on,,,,,0,0,3,,,,,2,,,62,92
127392,note_off,,,,,0,0,8,,,,,7,,,65,0
127392,note_off,,,,,0,0,8,,,,,7,,,70,0
127392,note_off,,,,,672,0,8,,,,,7,,,62,0
127392,note_off,,,,,672,0,9,,,,,8,,,46,0
127392,note_off,,,,,672,0,7,,,,,6,,,38,0
127488,note_off,,,,,768,0,2,,,,,1,,,62,0
127488,note_on,,,,,0,0,6,,,,,5,,,54,75
127488,note_off,,,,,768,0,6,,,,,5,,,50,0
127488,note_on,,,,,0,0,5,,,,,4,,,62,75
127488,note_off,,,,,768,0,5,,,,,4,,,57,0
127488,note_on,,,,,0,0,8,,,,,7,,,70,37
127488,note_on,,,,,96,0,8,,,,,7,,,65,37
127488,note_on,,,,,96,0,9,,,,,8,,,50,37
127488,note_on,,,,,0,0,2,,,,,1,,,69,75
127488,note_off,,,,,768,0,4,,,,,3,,,62,0
127488,note_on,,,,,96,0,7,,,,,6,,,42,63
127488,note_on,,,,,0,0,4,,,,,3,,,69,92
127808,note_off,,,,,320,0,9,,,,,8,,,50,0
127808,note_off,,,,,320,0,8,,,,,7,,,65,0
127872,note_on,,,,,0,0,1,,,,,0,,,86,75
127872,note_on,,,,,0,0,3,,,,,2,,,86,92
127872,note_off,,,,,768,0,3,,,,,2,,,62,0
127872,note_on,,,,,64,0,8,,,,,7,,,63,37
127872,note_off,,,,,768,0,1,,,,,0,,,62,0
127872,note_on,,,,,64,0,9,,,,,8,,,48,37
128160,note_off,,,,,672,0,7,,,,,6,,,42,0
128192,note_off,,,,,320,0,8,,,,,7,,,63,0
128192,note_off,,,,,320,0,9,,,,,8,,,48,0
128256,note_off,,,,,768,0,4,,,,,3,,,69,0
128256,note_on,,,,,0,0,6,,,,,5,,,50,75
128256,note_off,,,,,768,0,2,,,,,1,,,69,0
128256,note_on,,,,,96,0,7,,,,,6,,,38,63
128256,note_off,,,,,768,0,5,,,,,4,,,62,0
128256,note_on,,,,,0,0,5,,,,,4,,,69,75
128256,note_on,,,,,0,0,2,,,,,1,,,78,75
128256,note_on,,,,,64,0,9,,,,,8,,,50,37
128256,note_off,,,,,768,0,6,,,,,5,,,54,0
128256,note_on,,,,,0,0,4,,,,,3,,,78,92
128256,note_on,,,,,64,0,8,,,,,7,,,65,37
128576,note_off,,,,,320,0,9,,,,,8,,,50,0
128576,note_off,,,,,320,0,8,,,,,7,,,65,0
128640,note_off,,,,,768,0,3,,,,,2,,,86,0
128640,note_on,,,,,64,0,8,,,,,7,,,62,37
128640,note_on,,,,,64,0,9,,,,,8,,,46,37
128640,note_off,,,,,768,0,1,,,,,0,,,86,0
128640,note_on,,,,,0,0,1,,,,,0,,,81,75
128640,note_on,,,,,0,0,3,,,,,2,,,81,92
128928,note_off,,,,,672,0,7,,,,,6,,,38,0
128960,note_off,,,,,0,0,8,,,,,7,,,62,0
128960,note_off,,,,,320,0,8,,,,,7,,,70,0
128960,note_off,,,,,320,0,9,,,,,8,,,46,0
129024,note_on,,,,,0,0,6,,,,,5,,,55,75
129024,note_off,,,,,768,0,2,,,,,1,,,78,0
129024,note_off,,,,,768,0,4,,,,,3,,,78,0
129024,note_on,,,,,0,0,4,,,,,3,,,74,92
129024,note_on,,,,,0,0,2,,,,,1,,,74,75
129024,note_off,,,,,768,0,5,,,,,4,,,69,0
129024,note_on,,,,,0,0,3,,,,,2,,,82,92
129024,note_on,,,,,0,0,5,,,,,4,,,67,75
129024,note_off,,,,,768,0,6,,,,,5,,,50,0
129024,note_off,,,,,384,0,3,,,,,2,,,81,0
129024,note_off,,,,,384,0,1,,,,,0,,,81,0
129024,note_on,,,,,64,0,9,,,,,8,,,46,37
129024,note_on,,,,,0,0,1,,,,,0,,,82,75
129024,note_on,,,,,0,0,8,,,,,7,,,65,37
129024,note_on,,,,,96,0,7,,,,,6,,,43,63
129024,note_on,,,,,64,0,8,,,,,7,,,62,37
129216,note_on,,,,,0,0,1,,,,,0,,,86,75
129216,note_on,,,,,0,0,3,,,,,2,,,86,92
129216,note_off,,,,,192,0,1,,,,,0,,,82,0
129216,note_off,,,,,192,0,3,,,,,2,,,82,0
129408,note_on,,,,,0,0,3,,,,,2,,,79,92
129408,note_off,,,,,192,0,1,,,,,0,,,86,0
129408,note_on,,,,,0,0,1,,,,,0,,,79,75
129408,note_off,,,,,192,0,3,,,,,2,,,86,0
129696,note_off,,,,,672,0,8,,,,,7,,,62,0
129696,note_off,,,,,0,0,8,,,,,7,,,65,0
129696,note_off,,,,,672,0,9,,,,,8,,,46,0
129696,note_off,,,,,672,0,7,,,,,6,,,43,0
129792,note_on,,,,,0,0,4,,,,,3,,,67,92
129792,note_off,,,,,768,0,2,,,,,1,,,74,0
129792,note_off,,,,,768,0,4,,,,,3,,,74,0
129792,note_off,,,,,768,0,5,,,,,4,,,67,0
129792,note_off,,,,,768,0,6,,,,,5,,,55,0
129792,note_on,,,,,0,0,2,,,,,1,,,67,75
129792,note_on,,,,,0,0,8,,,,,7,,,70,37
129792,note_on,,,,,96,0,7,,,,,6,,,46,63
129792,note_on,,,,,0,0,8,,,,,7,,,65,37
129792,note_on,,,,,96,0,9,,,,,8,,,50,37
129792,note_on,,,,,96,0,8,,,,,7,,,62,37
129792,note_on,,,,,0,0,6,,,,,5,,,58,75
129792,note_on,,,,,0,0,5,,,,,4,,,62,75
129984,note_off,,,,,576,0,3,,,,,2,,,79,0
129984,note_on,,,,,0,0,3,,,,,2,,,86,92
129984,note_off,,,,,576,0,1,,,,,0,,,79,0
129984,note_on,,,,,0,0,1,,,,,0,,,86,75
130176,note_on,,,,,0,0,3,,,,,2,,,77,92
130176,note_off,,,,,192,0,3,,,,,2,,,86,0
130176,note_off,,,,,192,0,1,,,,,0,,,86,0
130176,note_on,,,,,0,0,1,,,,,0,,,77,75
130464,note_off,,,,,672,0,7,,,,,6,,,46,0
130464,note_off,,,,,672,0,9,,,,,8,,,50,0
130464,note_off,,,,,672,0,8,,,,,7,,,62,0
130560,note_on,,,,,96,0,7,,,,,6,,,47,63
130560,note_off,,,,,768,0,2,,,,,1,,,67,0
130560,note_off,,,,,768,0,6,,,,,5,,,58,0
130560,note_off,,,,,768,0,4,,,,,3,,,67,0
130560,note_on,,,,,0,0,4,,,,,3,,,67,92
130560,note_on,,,,,0,0,2,,,,,1,,,67,75
130560,note_on,,,,,96,0,9,,,,,8,,,55,37
130560,note_on,,,,,0,0,5,,,,,4,,,62,75
130560,note_off,,,,,768,0,5,,,,,4,,,62,0
130560,note_on,,,,,0,0,6,,,,,5,,,59,75
130560,note_on,,,,,96,0,8,,,,,7,,,58,37
130752,note_on,,,,,0,0,3,,,,,2,,,86,92
130752,note_off,,,,,576,0,3,,,,,2,,,77,0
130752,note_on,,,,,0,0,1,,,,,0,,,86,75
130752,note_off,,,,,576,0,1,,,,,0,,,77,0
130880,note_off,,,,,0,0,8,,,,,7,,,70,0
130880,note_off,,,,,320,0,8,,,,,7,,,65,0
130944,note_on,,,,,0,0,3,,,,,2,,,74,92
130944,note_on,,,,,0,0,1,,,,,0,,,74,75
130944,note_off,,,,,192,0,1,,,,,0,,,86,0
130944,note_off,,,,,192,0,3,,,,,2,,,86,0
130944,note_on,,,,,64,0,8,,,,,7,,,64,37
131232,note_off,,,,,672,0,9,,,,,8,,,55,0
131232,note_off,,,,,672,0,7,,,,,6,,,47,0
131264,note_off,,,,,0,0,8,,,,,7,,,64,0
131264,note_off,,,,,320,0,8,,,,,7,,,58,0
131328,note_on,,,,,0,0,4,,,,,3,,,67,92
131328,note_off,,,,,768,0,4,,,,,3,,,67,0
131328,note_off,,,,,384,0,1,,,,,0,,,74,0
131328,note_on,,,,,0,0,1,,,,,0,,,75,75
131328,note_off,,,,,768,0,2,,,,,1,,,67,0
131328,note_on,,,,,0,0,2,,,,,1,,,67,75
131328,note_on,,,,,0,0,6,,,,,5,,,60,75
131328,note_on,,,,,0,0,5,,,,,4,,,60,75
131328,note_on,,,,,96,0,9,,,,,8,,,53,37
131328,note_on,,,,,96,0,7,,,,,6,,,48,63
131328,note_off,,,,,768,0,6,,,,,5,,,59,0
131328,note_off,,,,,768,0,5,,,,,4,,,62,0
131328,note_off,,,,,384,0,3,,,,,2,,,74,0
131328,note_on,,,,,0,0,8,,,,,7,,,69,37
131328,note_on,,,,,0,0,8,,,,,7,,,65,37
131328,note_on,,,,,64,0,8,,,,,7,,,60,37
131328,note_on,,,,,0,0,3,,,,,2,,,75,92
131520,note_on,,,,,0,0,1,,,,,0,,,79,75
131520,note_off,,,,,192,0,1,,,,,0,,,75,0
131520,note_on,,,,,0,0,3,,,,,2,,,79,92
131520,note_off,,,,,192,0,3,,,,,2,,,75,0
131712,note_on,,,,,0,0,3,,,,,2,,,72,92
131712,note_off,,,,,192,0,3,,,,,2,,,79,0
131712,note_off,,,,,192,0,1,,,,,0,,,79,0
131712,note_on,,,,,0,0,1,,,,,0,,,72,75
132000,note_off,,,,,672,0,7,,,,,6,,,48,0
132000,note_off,,,,,672,0,9,,,,,8,,,53,0
132000,note_off,,,,,0,0,8,,,,,7,,,65,0
132000,note_off,,,,,672,0,8,,,,,7,,,60,0
132000,note_off,,,,,0,0,8,,,,,7,,,69,0
132096,note_on,,,,,96,0,9,,,,,8,,,57,37
132096,note_off,,,,,768,0,5,,,,,4,,,60,0
132096,note_on,,,,,0,0,8,,,,,7,,,72,37
132096,note_on,,,,,0,0,5,,,,,4,,,66,75
132096,note_on,,,,,96,0,7,,,,,6,,,45,63
132096,note_on,,,,,0,0,6,,,,,5,,,57,75
132096,note_off,,,,,768,0,4,,,,,3,,,67,0
132096,note_on,,,,,96,0,8,,,,,7,,,60,37
132096,note_on,,,,,0,0,2,,,,,1,,,69,75
132096,note_off,,,,,768,0,2,,,,,1,,,67,0
132096,note_on,,,,,0,0,8,,,,,7,,,65,37
132096,note_on,,,,,0,0,4,,,,,3,,,69,92
132096,note_off,,,,,768,0,6,,,,,5,,,60,0
132288,note_off,,,,,576,0,3,,,,,2,,,72,0
132288,note_on,,,,,0,0,3,,,,,2,,,75,92
132288,note_off,,,,,576,0,1,,,,,0,,,72,0
132288,note_on,,,,,0,0,1,,,,,0,,,75,75
132480,note_on,,,,,0,0,1,,,,,0,,,69,75
132480,note_off,,,,,192,0,3,,,,,2,,,75,0
132480,note_on,,,,,0,0,3,,,,,2,,,69,92
132480,note_off,,,,,192,0,1,,,,,0,,,75,0
132768,note_off,,,,,672,0,7,,,,,6,,,45,0
132768,note_off,,,,,672,0,9,,,,,8,,,57,0
132768,note_off,,,,,672,0,8,,,,,7,,,60,0
132768,note_off,,,,,0,0,8,,,,,7,,,72,0
132768,note_off,,,,,0,0,8,,,,,7,,,65,0
132864,note_on,,,,,0,0,4,,,,,3,,,69,92
132864,note_on,,,,,96,0,9,,,,,8,,,58,37
132864,note_on,,,,,0,0,8,,,,,7,,,70,37
132864,note_on,,,,,0,0,8,,,,,7,,,65,37
132864,note_on,,,,,96,0,8,,,,,7,,,62,37
132864,note_off,,,,,768,0,6,,,,,5,,,57,0
132864,note_on,,,,,0,0,6,,,,,5,,,54,75
132864,note_off,,,,,768,0,4,,,,,3,,,69,0
132864,note_off,,,,,768,0,5,,,,,4,,,66,0
132864,note_on,,,,,0,0,2,,,,,1,,,69,75
132864,note_off,,,,,768,0,2,,,,,1,,,69,0
132864,note_on,,,,,96,0,7,,,,,6,,,42,63
132864,note_on,,,,,0,0,5,,,,,4,,,62,75
133056,note_on,,,,,0,0,1,,,,,0,,,74,75
133056,note_off,,,,,576,0,3,,,,,2,,,69,0
133056,note_on,,,,,0,0,3,,,,,2,,,74,92
133056,note_off,,,,,576,0,1,,,,,0,,,69,0
133248,note_off,,,,,192,0,3,,,,,2,,,74,0
133248,note_on,,,,,0,0,3,,,,,2,,,72,92
133248,note_off,,,,,192,0,1,,,,,0,,,74,0
133248,note_on,,,,,0,0,1,,,,,0,,,72,75
133440,note_off,,,,,192,0,3,,,,,2,,,72,0
133440,note_off,,,,,192,0,1,,,,,0,,,72,0
133440,note_on,,,,,0,0,1,,,,,0,,,69,75
133440,note_on,,,,,0,0,3,,,,,2,,,69,92
133536,note_off,,,,,672,0,9,,,,,8,,,58,0
133536,note_off,,,,,0,0,8,,,,,7,,,70,0
133536,note_off,,,,,0,0,8,,,,,7,,,65,0
133536,note_off,,,,,672,0,7,,,,,6,,,42,0
133536,note_off,,,,,672,0,8,,,,,7,,,62,0
133632,note_on,,,,,0,0,3,,,,,2,,,70,92
133632,note_on,,,,,0,0,8,,,,,7,,,70,37
133632,note_off,,,,,768,0,4,,,,,3,,,69,0
133632,note_on,,,,,96,0,8,,,,,7,,,63,37
133632,note_on,,,,,0,0,8,,,,,7,,,67,37
133632,note_on,,,,,96,0,9,,,,,8,,,51,37
133632,note_off,,,,,192,0,3,,,,,2,,,69,0
133632,note_on,,,,,0,0,4,,,,,3,,,67,92
133632,note_on,,,,,0,0,5,,,,,4,,,62,75
133632,note_on,,,,,0,0,6,,,,,5,,,55,75
133632,note_on,,,,,96,0,7,,,,,6,,,43,63
133632,note_off,,,,,768,0,5,,,,,4,,,62,0
133632,note_on,,,,,0,0,2,,,,,1,,,67,75
133632,note_off,,,,,768,0,2,,,,,1,,,69,0
133632,note_off,,,,,192,0,1,,,,,0,,,69,0
133632,note_on,,,,,0,0,1,,,,,0,,,70,75
133632,note_off,,,,,768,0,6,,,,,5,,,54,0
133824,note_on,,,,,0,0,1,,,,,0,,,67,75
133824,note_off,,,,,192,0,1,,,,,0,,,70,0
133824,note_off,,,,,192,0,3,,,,,2,,,70,0
133824,note_on,,,,,0,0,3,,,,,2,,,67,92
133952,note_off,,,,,320,0,7,,,,,6,,,43,0
134016,note_on,,,,,0,0,1,,,,,0,,,69,75
134016,note_on,,,,,64,0,7,,,,,6,,,36,63
134016,note_off,,,,,192,0,1,,,,,0,,,67,0
134016,note_off,,,,,192,0,3,,,,,2,,,67,0
134016,note_on,,,,,0,0,6,,,,,5,,,48,75
134016,note_on,,,,,0,0,5,,,,,4,,,63,75
134016,note_off,,,,,384,0,5,,,,,4,,,62,0
134016,note_off,,,,,384,0,6,,,,,5,,,55,0
134016,note_on,,,,,0,0,3,,,,,2,,,69,92
134208,note_on,,,,,0,0,3,,,,,2,,,60,92
134208,note_on,,,,,0,0,1,,,,,0,,,60,75
134208,note_off,,,,,192,0,1,,,,,0,,,69,0
134208,note_off,,,,,192,0,3,,,,,2,,,69,0
134304,note_off,,,,,0,0,8,,,,,7,,,70,0
134304,note_off,,,,,0,0,8,,,,,7,,,67,0
134304,note_off,,,,,672,0,8,,,,,7,,,63,0
134304,note_off,,,,,672,0,9,,,,,8,,,51,0
134336,note_off,,,,,320,0,7,,,,,6,,,36,0
134400,note_on,,,,,96,0,8,,,,,7,,,63,37
134400,note_on,,,,,0,0,6,,,,,5,,,50,75
134400,note_on,,,,,96,0,9,,,,,8,,,48,37
134400,note_on,,,,,0,0,3,,,,,2,,,58,92
134400,note_on,,,,,0,0,1,,,,,0,,,58,75
134400,note_off,,,,,384,0,6,,,,,5,,,48,0
134400,note_on,,,,,64,0,7,,,,,6,,,38,63
134400,note_off,,,,,192,0,3,,,,,2,,,60,0
134400,note_on,,,,,0,0,8,,,,,7,,,67,37
134400,note_on,,,,,0,0,8,,,,,7,,,72,37
134400,note_off,,,,,192,0,1,,,,,0,,,60,0
134400,note_on,,,,,0,0,5,,,,,4,,,62,75
134400,note_off,,,,,384,0,5,,,,,4,,,63,0
134592,note_off,,,,,192,0,1,,,,,0,,,58,0
134592,note_on,,,,,0,0,1,,,,,0,,,62,75
134592,note_off,,,,,192,0,3,,,,,2,,,58,0
134592,note_on,,,,,0,0,3,,,,,2,,,62,92
134784,note_on,,,,,0,0,1,,,,,0,,,67,75
134784,note_on,,,,,0,0,2,,,,,1,,,67,75
134784,note_on,,,,,0,0,4,,,,,3,,,67,92
134784,note_off,,,,,1152,0,4,,,,,3,,,67,0
134784,note_off,,,,,192,0,1,,,,,0,,,62,0
134784,note_off,,,,,192,0,3,,,,,2,,,62,0
134784,note_on,,,,,0,0,3,,,,,2,,,67,92
134784,note_off,,,,,1152,0,2,,,,,1,,,67,0
135072,note_off,,,,,672,0,9,,,,,8,,,48,0
135072,note_off,,,,,0,0,8,,,,,7,,,72,0
135072,note_off,,,,,672,0,7,,,,,6,,,38,0
135072,note_off,,,,,0,0,8,,,,,7,,,67,0
135072,note_off,,,,,672,0,8,,,,,7,,,63,0
135168,note_off,,,,,384,0,1,,,,,0,,,67,0
135168,note_on,,,,,96,0,7,,,,,6,,,26,63
135168,note_off,,,,,384,0,3,,,,,2,,,67,0
135168,note_on,,,,,0,0,3,,,,,2,,,69,92
135168,note_on,,,,,96,0,9,,,,,8,,,53,37
135168,note_off,,,,,384,0,2,,,,,1,,,67,0
135168,note_on,,,,,0,0,2,,,,,1,,,66,75
135168,note_off,,,,,384,0,4,,,,,3,,,67,0
135168,note_on,,,,,0,0,4,,,,,3,,,66,92
135168,note_on,,,,,0,0,1,,,,,0,,,69,75
135168,note_off,,,,,768,0,6,,,,,5,,,50,0
135168,note_on,,,,,0,0,6,,,,,5,,,38,75
135168,note_off,,,,,768,0,5,,,,,4,,,62,0
135168,note_on,,,,,0,0,8,,,,,7,,,65,37
135168,note_on,,,,,96,0,8,,,,,7,,,60,37
135168,note_on,,,,,0,0,5,,,,,4,,,62,75
135168,note_on,,,,,0,0,8,,,,,7,,,69,37
135360,note_on,,,,,0,0,1,,,,,0,,,72,75
135360,note_on,,,,,0,0,3,,,,,2,,,72,92
135360,note_off,,,,,192,0,3,,,,,2,,,69,0
135360,note_off,,,,,192,0,1,,,,,0,,,69,0
135552,note_on,,,,,0,0,1,,,,,0,,,78,75
135552,note_off,,,,,192,0,1,,,,,0,,,72,0
135552,note_off,,,,,384,0,2,,,,,1,,,66,0
135552,note_on,,,,,0,0,3,,,,,2,,,78,92
135552,note_off,,,,,192,0,3,,,,,2,,,72,0
135552,note_on,,,,,0,0,2,,,,,1,,,72,75
135552,note_off,,,,,384,0,4,,,,,3,,,66,0
135552,note_on,,,,,0,0,4,,,,,3,,,72,92
135840,note_off,,,,,672,0,9,,,,,8,,,53,0
135840,note_off,,,,,672,0,8,,,,,7,,,60,0
135840,note_off,,,,,672,0,7,,,,,6,,,26,0
135840,note_off,,,,,0,0,8,,,,,7,,,65,0
135840,note_off,,,,,0,0,8,,,,,7,,,69,0
135936,note_on,,,,,96,0,8,,,,,7,,,62,37
135936,note_on,,,,,0,0,3,,,,,2,,,79,92
135936,note_on,,,,,0,0,5,,,,,4,,,62,75
135936,note_off,,,,,768,0,5,,,,,4,,,62,0
135936,note_on,,,,,0,0,8,,,,,7,,,65,37
135936,note_on,,,,,0,0,8,,,,,7,,,70,37
135936,note_off,,,,,384,0,4,,,,,3,,,72,0
135936,note_on,,,,,0,0,4,,,,,3,,,70,92
135936,note_off,,,,,384,0,3,,,,,2,,,78,0
135936,note_on,,,,,96,0,9,,,,,8,,,50,37
135936,note_on,,,,,0,0,1,,,,,0,,,79,75
135936,note_off,,,,,384,0,1,,,,,0,,,78,0
135936,note_on,,,,,96,0,7,,,,,6,,,31,63
135936,note_on,,,,,0,0,2,,,,,1,,,70,75
135936,note_on,,,,,0,0,6,,,,,5,,,43,75
135936,note_off,,,,,768,0,6,,,,,5,,,38,0
135936,note_off,,,,,384,0,2,,,,,1,,,72,0
136128,note_on,,,,,0,0,3,,,,,2,,,74,92
136128,note_on,,,,,0,0,1,,,,,0,,,74,75
136128,note_off,,,,,192,0,1,,,,,0,,,79,0
136128,note_off,,,,,192,0,3,,,,,2,,,79,0
136320,note_on,,,,,0,0,3,,,,,2,,,70,92
136320,note_off,,,,,192,0,3,,,,,2,,,74,0
136320,note_on,,,,,0,0,1,,,,,0,,,70,75
136320,note_off,,,,,192,0,1,,,,,0,,,74,0
136608,note_off,,,,,0,0,8,,,,,7,,,70,0
136608,note_off,,,,,0,0,8,,,,,7,,,65,0
136608,note_off,,,,,672,0,9,,,,,8,,,50,0
136608,note_off,,,,,672,0,7,,,,,6,,,31,0
136608,note_off,,,,,672,0,8,,,,,7,,,62,0
136704,note_on,,,,,96,0,8,,,,,7,,,62,37
136704,note_on,,,,,96,0,7,,,,,6,,,34,63
136704,note_off,,,,,768,0,4,,,,,3,,,70,0
136704,note_on,,,,,0,0,4,,,,,3,,,67,92
136704,note_on,,,,,96,0,9,,,,,8,,,46,37
136704,note_on,,,,,0,0,8,,,,,7,,,65,37
136704,note_off,,,,,768,0,5,,,,,4,,,62,0
136704,note_on,,,,,0,0,2,,,,,1,,,67,75
136704,note_off,,,,,768,0,2,,,,,1,,,70,0
136704,note_on,,,,,0,0,5,,,,,4,,,58,75
136704,note_on,,,,,0,0,6,,,,,5,,,46,75
136704,note_off,,,,,768,0,6,,,,,5,,,43,0
136896,note_off,,,,,576,0,3,,,,,2,,,70,0
136896,note_on,,,,,0,0,1,,,,,0,,,74,75
136896,note_off,,,,,576,0,1,,,,,0,,,70,0
136896,note_on,,,,,0,0,3,,,,,2,,,74,92
137088,note_on,,,,,0,0,1,,,,,0,,,67,75
137088,note_off,,,,,192,0,1,,,,,0,,,74,0
137088,note_on,,,,,0,0,3,,,,,2,,,67,92
137088,note_off,,,,,192,0,3,,,,,2,,,74,0
137376,note_off,,,,,0,0,8,,,,,7,,,65,0
137376,note_off,,,,,672,0,8,,,,,7,,,62,0
137376,note_off,,,,,672,0,9,,,,,8,,,46,0
137376,note_off,,,,,672,0,7,,,,,6,,,34,0
137472,note_on,,,,,96,0,8,,,,,7,,,62,37
137472,note_on,,,,,96,0,7,,,,,6,,,31,63
137472,note_on,,,,,0,0,5,,,,,4,,,62,75
137472,note_off,,,,,768,0,5,,,,,4,,,58,0
137472,note_off,,,,,768,0,4,,,,,3,,,67,0
137472,note_on,,,,,0,0,4,,,,,3,,,70,92
137472,note_on,,,,,96,0,9,,,,,8,,,58,37
137472,note_on,,,,,0,0,2,,,,,1,,,70,75
137472,note_off,,,,,768,0,2,,,,,1,,,67,0
137472,note_on,,,,,0,0,8,,,,,7,,,70,37
137472,note_on,,,,,0,0,8,,,,,7,,,65,37
137472,note_off,,,,,768,0,6,,,,,5,,,46,0
137472,note_on,,,,,0,0,6,,,,,5,,,43,75
137664,note_on,,,,,0,0,3,,,,,2,,,82,92
137664,note_on,,,,,0,0,1,,,,,0,,,82,75
137664,note_off,,,,,576,0,1,,,,,0,,,67,0
137664,note_off,,,,,576,0,3,,,,,2,,,67,0
137856,note_on,,,,,0,0,3,,,,,2,,,79,92
137856,note_off,,,,,192,0,3,,,,,2,,,82,0
137856,note_on,,,,,0,0,5,,,,,4,,,70,75
137856,note_off,,,,,384,0,5,,,,,4,,,62,0
137856,note_off,,,,,192,0,1,,,,,0,,,82,0
137856,note_on,,,,,0,0,1,,,,,0,,,79,75
138144,note_off,,,,,672,0,9,,,,,8,,,58,0
138144,note_off,,,,,672,0,7,,,,,6,,,31,0
138144,note_off,,,,,672,0,8,,,,,7,,,62,0
138144,note_off,,,,,0,0,8,,,,,7,,,65,0
138144,note_off,,,,,0,0,8,,,,,7,,,70,0
138240,note_on,,,,,0,0,4,,,,,3,,,72,92
138240,note_on,,,,,96,0,7,,,,,6,,,36,63
138240,note_off,,,,,768,0,4,,,,,3,,,70,0
138240,note_on,,,,,0,0,5,,,,,4,,,68,75
138240,note_off,,,,,384,0,5,,,,,4,,,70,0
138240,note_on,,,,,0,0,8,,,,,7,,,69,37
138240,note_on,,,,,0,0,8,,,,,7,,,65,37
138240,note_off,,,,,768,0,6,,,,,5,,,43,0
138240,note_on,,,,,96,0,8,,,,,7,,,60,37
138240,note_on,,,,,96,0,9,,,,,8,,,51,37
138240,note_off,,,,,768,0,2,,,,,1,,,70,0
138240,note_on,,,,,0,0,2,,,,,1,,,72,75
138240,note_on,,,,,0,0,6,,,,,5,,,48,75
138432,note_off,,,,,576,0,1,,,,,0,,,79,0
138432,note_on,,,,,0,0,3,,,,,2,,,82,92
138432,note_off,,,,,576,0,3,,,,,2,,,79,0
138432,note_on,,,,,0,0,1,,,,,0,,,82,75
138624,note_off,,,,,192,0,3,,,,,2,,,82,0
138624,note_on,,,,,0,0,3,,,,,2,,,80,92
138624,note_on,,,,,0,0,1,,,,,0,,,80,75
138624,note_off,,,,,192,0,1,,,,,0,,,82,0
138816,note_off,,,,,192,0,3,,,,,2,,,80,0
138816,note_on,,,,,0,0,1,,,,,0,,,79,75
138816,note_on,,,,,0,0,3,,,,,2,,,79,92
138816,note_off,,,,,192,0,1,,,,,0,,,80,0
138912,note_off,,,,,0,0,8,,,,,7,,,69,0
138912,note_off,,,,,0,0,8,,,,,7,,,65,0
138912,note_off,,,,,672,0,8,,,,,7,,,60,0
138912,note_off,,,,,672,0,7,,,,,6,,,36,0
138912,note_off,,,,,672,0,9,,,,,8,,,51,0
139008,note_on,,,,,0,0,6,,,,,5,,,53,75
139008,note_off,,,,,768,0,6,,,,,5,,,48,0
139008,note_on,,,,,96,0,7,,,,,6,,,41,63
139008,note_on,,,,,96,0,9,,,,,8,,,39,37
139008,note_on,,,,,0,0,3,,,,,2,,,80,92
139008,note_on,,,,,96,0,8,,,,,7,,,60,37
139008,note_on,,,,,0,0,8,,,,,7,,,65,37
139008,note_off,,,,,192,0,1,,,,,0,,,79,0
139008,note_on,,,,,0,0,1,,,,,0,,,80,75
139008,note_off,,,,,192,0,3,,,,,2,,,79,0
139200,note_on,,,,,0,0,3,,,,,2,,,72,92
139200,note_off,,,,,192,0,3,,,,,2,,,80,0
139200,note_off,,,,,192,0,1,,,,,0,,,80,0
139200,note_on,,,,,0,0,1,,,,,0,,,72,75
139392,note_on,,,,,0,0,3,,,,,2,,,74,92
139392,note_off,,,,,1152,0,2,,,,,1,,,72,0
139392,note_on,,,,,0,0,2,,,,,1,,,68,75
139392,note_on,,,,,0,0,1,,,,,0,,,74,75
139392,note_off,,,,,192,0,3,,,,,2,,,72,0
139392,note_off,,,,,192,0,1,,,,,0,,,72,0
139392,note_off,,,,,1152,0,4,,,,,3,,,72,0
139392,note_on,,,,,0,0,4,,,,,3,,,68,92
139584,note_off,,,,,192,0,1,,,,,0,,,74,0
139584,note_on,,,,,0,0,3,,,,,2,,,72,92
139584,note_off,,,,,192,0,3,,,,,2,,,74,0
139584,note_on,,,,,0,0,1,,,,,0,,,72,75
139680,note_off,,,,,672,0,8,,,,,7,,,60,0
139680,note_off,,,,,0,0,8,,,,,7,,,65,0
139680,note_off,,,,,672,0,7,,,,,6,,,41,0
139680,note_off,,,,,672,0,9,,,,,8,,,39,0
139776,note_off,,,,,192,0,3,,,,,2,,,72,0
139776,note_on,,,,,0,0,3,,,,,2,,,70,92
139776,note_on,,,,,96,0,7,,,,,6,,,38,63
139776,note_on,,,,,0,0,5,,,,,4,,,70,75
139776,note_on,,,,,96,0,8,,,,,7,,,60,37
139776,note_on,,,,,0,0,8,,,,,7,,,65,37
139776,note_on,,,,,0,0,8,,,,,7,,,69,37
139776,note_off,,,,,1536,0,5,,,,,4,,,68,0
139776,note_off,,,,,384,0,2,,,,,1,,,68,0
139776,note_on,,,,,0,0,2,,,,,1,,,65,75
139776,note_on,,,,,0,0,4,,,,,3,,,65,92
139776,note_off,,,,,768,0,6,,,,,5,,,53,0
139776,note_on,,,,,0,0,6,,,,,5,,,50,75
139776,note_on,,,,,0,0,1,,,,,0,,,70,75
139776,note_off,,,,,192,0,1,,,,,0,,,72,0
139776,note_off,,,,,384,0,4,,,,,3,,,68,0
139776,note_on,,,,,96,0,9,,,,,8,,,51,37
139968,note_on,,,,,0,0,1,,,,,0,,,80,75
139968,note_off,,,,,192,0,3,,,,,2,,,70,0
139968,note_on,,,,,0,0,3,,,,,2,,,80,92
139968,note_off,,,,,192,0,1,,,,,0,,,70,0
140160,note_off,,,,,192,0,1,,,,,0,,,80,0
140160,note_off,,,,,192,0,3,,,,,2,,,80,0
140160,note_on,,,,,0,0,3,,,,,2,,,79,92
140160,note_on,,,,,0,0,1,,,,,0,,,79,75
140352,note_off,,,,,192,0,1,,,,,0,,,79,0
140352,note_on,,,,,0,0,1,,,,,0,,,77,75
140352,note_off,,,,,192,0,3,,,,,2,,,79,0
140352,note_on,,,,,0,0,3,,,,,2,,,77,92
140448,note_off,,,,,672,0,9,,,,,8,,,51,0
140448,note_off,,,,,672,0,7,,,,,6,,,38,0
140448,note_off,,,,,0,0,8,,,,,7,,,65,0
140448,note_off,,,,,0,0,8,,,,,7,,,69,0
140448,note_off,,,,,672,0,8,,,,,7,,,60,0
140544,note_on,,,,,0,0,4,,,,,3,,,63,92
140544,note_off,,,,,768,0,4,,,,,3,,,65,0
140544,note_off,,,,,192,0,1,,,,,0,,,77,0
140544,note_off,,,,,192,0,3,,,,,2,,,77,0
140544,note_on,,,,,0,0,3,,,,,2,,,79,92
140544,note_on,,,,,0,0,5,,,,,4,,,70,75
140544,note_on,,,,,0,0,1,,,,,0,,,79,75
140544,note_on,,,,,0,0,6,,,,,5,,,51,75
140544,note_on,,,,,96,0,8,,,,,7,,,62,37
140544,note_off,,,,,768,0,6,,,,,5,,,50,0
140544,note_on,,,,,0,0,8,,,,,7,,,65,37
140544,note_on,,,,,0,0,8,,,,,7,,,70,37
140544,note_on,,,,,96,0,7,,,,,6,,,39,63
140544,note_on,,,,,96,0,9,,,,,8,,,53,37
140544,note_off,,,,,768,0,5,,,,,4,,,70,0
140544,note_on,,,,,0,0,2,,,,,1,,,63,75
140544,note_off,,,,,768,0,2,,,,,1,,,65,0
140736,note_off,,,,,192,0,1,,,,,0,,,79,0
140736,note_off,,,,,192,0,3,,,,,2,,,79,0
140736,note_on,,,,,0,0,1,,,,,0,,,82,75
140736,note_on,,,,,0,0,3,,,,,2,,,82,92
140928,note_on,,,,,0,0,3,,,,,2,,,75,92
140928,note_off,,,,,192,0,3,,,,,2,,,82,0
140928,note_off,,,,,192,0,1,,,,,0,,,82,0
140928,note_on,,,,,0,0,1,,,,,0,,,75,75
141216,note_off,,,,,672,0,7,,,,,6,,,39,0
141216,note_off,,,,,672,0,8,,,,,7,,,62,0
141216,note_off,,,,,0,0,8,,,,,7,,,70,0
141216,note_off,,,,,672,0,9,,,,,8,,,53,0
141216,note_off,,,,,0,0,8,,,,,7,,,65,0
141312,note_on,,,,,0,0,8,,,,,7,,,65,37
141312,note_on,,,,,96,0,9,,,,,8,,,57,37
141312,note_on,,,,,96,0,8,,,,,7,,,62,37
141312,note_on,,,,,0,0,2,,,,,1,,,70,75
141312,note_off,,,,,768,0,4,,,,,3,,,63,0
141312,note_off,,,,,768,0,5,,,,,4,,,70,0
141312,note_on,,,,,0,0,5,,,,,4,,,67,75
141312,note_on,,,,,96,0,7,,,,,6,,,43,63
141312,note_off,,,,,768,0,2,,,,,1,,,63,0
141312,note_on,,,,,0,0,6,,,,,5,,,55,75
141312,note_off,,,,,768,0,6,,,,,5,,,51,0
141312,note_on,,,,,0,0,4,,,,,3,,,70,92
141504,note_on,,,,,0,0,3,,,,,2,,,79,92
141504,note_off,,,,,576,0,3,,,,,2,,,75,0
141504,note_off,,,,,576,0,1,,,,,0,,,75,0
141504,note_on,,,,,0,0,1,,,,,0,,,79,75
141696,note_on,,,,,0,0,1,,,,,0,,,70,75
141696,note_off,,,,,192,0,1,,,,,0,,,79,0
141696,note_off,,,,,192,0,3,,,,,2,,,79,0
141696,note_on,,,,,0,0,3,,,,,2,,,70,92
141984,note_off,,,,,0,0,8,,,,,7,,,65,0
141984,note_off,,,,,672,0,8,,,,,7,,,62,0
141984,note_off,,,,,672,0,7,,,,,6,,,43,0
141984,note_off,,,,,672,0,9,,,,,8,,,57,0
142080,note_on,,,,,96,0,9,,,,,8,,,53,37
142080,note_off,,,,,768,0,5,,,,,4,,,67,0
142080,note_on,,,,,0,0,5,,,,,4,,,63,75
142080,note_off,,,,,768,0,6,,,,,5,,,55,0
142080,note_on,,,,,96,0,7,,,,,6,,,44,63
142080,note_on,,,,,96,0,8,,,,,7,,,62,37
142080,note_on,,,,,0,0,6,,,,,5,,,56,75
142080,note_off,,,,,768,0,4,,,,,3,,,70,0
142080,note_on,,,,,0,0,4,,,,,3,,,60,92
142080,note_on,,,,,0,0,8,,,,,7,,,67,37
142080,note_on,,,,,0,0,2,,,,,1,,,60,75
142080,note_off,,,,,768,0,2,,,,,1,,,70,0
142272,note_on,,,,,0,0,1,,,,,0,,,72,75
142272,note_off,,,,,576,0,1,,,,,0,,,70,0
142272,note_on,,,,,0,0,3,,,,,2,,,72,92
142272,note_off,,,,,576,0,3,,,,,2,,,70,0
142464,note_on,,,,,0,0,1,,,,,0,,,68,75
142464,note_on,,,,,0,0,3,,,,,2,,,68,92
142464,note_off,,,,,192,0,3,,,,,2,,,72,0
142464,note_off,,,,,192,0,1,,,,,0,,,72,0
142752,note_off,,,,,0,0,8,,,,,7,,,67,0
142752,note_off,,,,,672,0,9,,,,,8,,,53,0
142752,note_off,,,,,672,0,7,,,,,6,,,44,0
142752,note_off,,,,,672,0,8,,,,,7,,,62,0
142848,note_on,,,,,96,0,7,,,,,6,,,46,63
142848,note_off,,,,,768,0,4,,,,,3,,,60,0
142848,note_on,,,,,96,0,9,,,,,8,,,58,37
142848,note_off,,,,,768,0,5,,,,,4,,,63,0
142848,note_on,,,,,0,0,5,,,,,4,,,62,75
142848,note_on,,,,,0,0,2,,,,,1,,,65,75
142848,note_off,,,,,768,0,2,,,,,1,,,60,0
142848,note_on,,,,,0,0,6,,,,,5,,,58,75
142848,note_off,,,,,768,0,6,,,,,5,,,56,0
142848,note_on,,,,,0,0,4,,,,,3,,,65,92
142848,note_on,,,,,0,0,8,,,,,7,,,67,37
142848,note_on,,,,,96,0,8,,,,,7,,,64,37
143040,note_on,,,,,0,0,3,,,,,2,,,70,92
143040,note_on,,,,,0,0,1,,,,,0,,,70,75
143040,note_off,,,,,576,0,1,,,,,0,,,68,0
143040,note_off,,,,,576,0,3,,,,,2,,,68,0
143168,note_off,,,,,320,0,7,,,,,6,,,46,0
143232,note_off,,,,,384,0,2,,,,,1,,,65,0
143232,note_on,,,,,64,0,7,,,,,6,,,48,63
143232,note_on,,,,,0,0,5,,,,,4,,,63,75
143232,note_off,,,,,384,0,5,,,,,4,,,62,0
143232,note_on,,,,,0,0,6,,,,,5,,,60,75
143232,note_off,,,,,384,0,6,,,,,5,,,58,0
143232,note_off,,,,,192,0,1,,,,,0,,,70,0
143232,note_on,,,,,0,0,1,,,,,0,,,67,75
143232,note_off,,,,,384,0,4,,,,,3,,,65,0
143232,note_on,,,,,0,0,2,,,,,1,,,63,75
143232,note_on,,,,,0,0,4,,,,,3,,,63,92
143232,note_off,,,,,192,0,3,,,,,2,,,70,0
143232,note_on,,,,,0,0,3,,,,,2,,,67,92
143424,note_off,,,,,192,0,3,,,,,2,,,67,0
143424,note_off,,,,,192,0,1,,,,,0,,,67,0
143424,note_on,,,,,0,0,3,,,,,2,,,68,92
143424,note_on,,,,,0,0,1,,,,,0,,,68,75
143520,note_off,,,,,0,0,8,,,,,7,,,67,0
143520,note_off,,,,,672,0,8,,,,,7,,,64,0
143520,note_off,,,,,672,0,9,,,,,8,,,58,0
143552,note_off,,,,,320,0,7,,,,,6,,,48,0
143616,note_on,,,,,0,0,6,,,,,5,,,56,75
143616,note_on,,,,,0,0,4,,,,,3,,,63,92
143616,note_off,,,,,384,0,4,,,,,3,,,63,0
143616,note_on,,,,,0,0,3,,,,,2,,,65,92
143616,note_off,,,,,192,0,3,,,,,2,,,68,0
143616,note_on,,,,,0,0,2,,,,,1,,,63,75
143616,note_on,,,,,96,0,8,,,,,7,,,60,37
143616,note_on,,,,,64,0,7,,,,,6,,,44,63
143616,note_off,,,,,384,0,2,,,,,1,,,63,0
143616,note_on,,,,,96,0,9,,,,,8,,,46,37
143616,note_on,,,,,0,0,8,,,,,7,,,67,37
143616,note_off,,,,,384,0,6,,,,,5,,,60,0
143616,note_off,,,,,192,0,1,,,,,0,,,68,0
143616,note_off,,,,,384,0,5,,,,,4,,,63,0
143616,note_on,,,,,0,0,5,,,,,4,,,60,75
143616,note_on,,,,,0,0,1,,,,,0,,,65,75
143808,note_off,,,,,192,0,3,,,,,2,,,65,0
143808,note_on,,,,,0,0,1,,,,,0,,,62,75
143808,note_off,,,,,192,0,1,,,,,0,,,65,0
143808,note_on,,,,,0,0,3,,,,,2,,,62,92
144000,note_on,,,,,0,0,1,,,,,0,,,63,75
144000,note_off,,,,,192,0,1,,,,,0,,,62,0
144000,note_on,,,,,0,0,3,,,,,2,,,63,92
144000,note_off,,,,,192,0,3,,,,,2,,,62,0
144288,note_off,,,,,0,0,8,,,,,7,,,67,0
144288,note_off,,,,,672,0,8,,,,,7,,,60,0
144288,note_off,,,,,672,0,9,,,,,8,,,46,0
144288,note_off,,,,,672,0,7,,,,,6,,,44,0
144384,note_off,,,,,768,0,4,,,,,3,,,63,0
144384,note_on,,,,,96,0,7,,,,,6,,,46,63
144384,note_off,,,,,768,0,5,,,,,4,,,60,0
144384,note_on,,,,,0,0,6,,,,,5,,,58,75
144384,note_on,,,,,0,0,8,,,,,7,,,72,37
144384,note_on,,,,,96,0,9,,,,,8,,,58,37
144384,note_off,,,,,768,0,2,,,,,1,,,63,0
144384,note_on,,,,,0,0,2,,,,,1,,,58,75
144384,note_on,,,,,0,0,8,,,,,7,,,67,37
144384,note_on,,,,,96,0,8,,,,,7,,,64,37
144384,note_on,,,,,0,0,5,,,,,4,,,65,75
144384,note_on,,,,,0,0,4,,,,,3,,,58,92
144384,note_off,,,,,768,0,6,,,,,5,,,56,0
144576,note_on,,,,,0,0,3,,,,,2,,,62,92
144576,note_off,,,,,576,0,1,,,,,0,,,63,0
144576,note_on,,,,,0,0,1,,,,,0,,,62,75
144576,note_off,,,,,576,0,3,,,,,2,,,63,0
144768,note_off,,,,,192,0,3,,,,,2,,,62,0
144768,note_on,,,,,0,0,3,,,,,2,,,68,92
144768,note_on,,,,,0,0,1,,,,,0,,,68,75
144768,note_off,,,,,192,0,1,,,,,0,,,62,0
145056,note_off,,,,,672,0,8,,,,,7,,,64,0
145056,note_off,,,,,672,0,7,,,,,6,,,46,0
145056,note_off,,,,,0,0,8,,,,,7,,,72,0
145056,note_off,,,,,672,0,9,,,,,8,,,58,0
145056,note_off,,,,,0,0,8,,,,,7,,,67,0
145152,note_on,,,,,96,0,9,,,,,8,,,60,37
145152,note_on,,,,,0,0,8,,,,,7,,,72,37
145152,note_on,,,,,96,0,8,,,,,7,,,65,37
145152,note_on,,,,,0,0,4,,,,,3,,,58,92
145152,note_off,,,,,768,0,4,,,,,3,,,58,0
145152,note_off,,,,,768,0,2,,,,,1,,,58,0
145152,note_on,,,,,0,0,2,,,,,1,,,58,75
145152,note_on,,,,,0,0,5,,,,,4,,,63,75
145152,note_on,,,,,96,0,7,,,,,6,,,39,63
145152,note_off,,,,,768,0,5,,,,,4,,,65,0
145152,note_on,,,,,0,0,6,,,,,5,,,51,75
145152,note_off,,,,,768,0,6,,,,,5,,,58,0
145344,note_on,,,,,0,0,3,,,,,2,,,65,92
145344,note_on,,,,,0,0,1,,,,,0,,,65,75
145344,note_off,,,,,576,0,1,,,,,0,,,68,0
145344,note_off,,,,,576,0,3,,,,,2,,,68,0
145536,note_off,,,,,192,0,1,,,,,0,,,65,0
145536,note_on,,,,,0,0,1,,,,,0,,,67,75
145536,note_off,,,,,192,0,3,,,,,2,,,65,0
145536,note_on,,,,,0,0,3,,,,,2,,,67,92
145728,note_off,,,,,192,0,3,,,,,2,,,67,0
145728,note_off,,,,,192,0,1,,,,,0,,,67,0
145728,note_on,,,,,0,0,3,,,,,2,,,63,92
145728,note_on,,,,,0,0,1,,,,,0,,,63,75
145824,note_off,,,,,672,0,9,,,,,8,,,60,0
145824,note_off,,,,,672,0,7,,,,,6,,,39,0
145824,note_off,,,,,672,0,8,,,,,7,,,65,0
145824,note_off,,,,,0,0,8,,,,,7,,,72,0
145920,note_off,,,,,192,0,3,,,,,2,,,63,0
145920,note_on,,,,,0,0,4,,,,,3,,,63,92
145920,note_on,,,,,0,0,3,,,,,2,,,70,92
145920,note_off,,,,,768,0,6,,,,,5,,,51,0
145920,note_off,,,,,768,0,2,,,,,1,,,58,0
145920,note_off,,,,,192,0,1,,,,,0,,,63,0
145920,note_on,,,,,0,0,2,,,,,1,,,63,75
145920,note_on,,,,,96,0,7,,,,,6,,,43,63
145920,note_on,,,,,96,0,9,,,,,8,,,55,37
145920,note_off,,,,,768,0,4,,,,,3,,,58,0
145920,note_on,,,,,0,0,6,,,,,5,,,55,75
145920,note_on,,,,,0,0,8,,,,,7,,,67,37
145920,note_on,,,,,0,0,8,,,,,7,,,72,37
145920,note_on,,,,,0,0,1,,,,,0,,,70,75
145920,note_on,,,,,96,0,8,,,,,7,,,60,37
146112,note_on,,,,,0,0,1,,,,,0,,,67,75
146112,note_on,,,,,0,0,3,,,,,2,,,67,92
146112,note_off,,,,,192,0,3,,,,,2,,,70,0
146112,note_off,,,,,192,0,1,,,,,0,,,70,0
146304,note_off,,,,,192,0,3,,,,,2,,,67,0
146304,note_on,,,,,0,0,5,,,,,4,,,58,75
146304,note_on,,,,,0,0,1,,,,,0,,,75,75
146304,note_off,,,,,192,0,1,,,,,0,,,67,0
146304,note_off,,,,,1152,0,5,,,,,4,,,63,0
146304,note_on,,,,,0,0,3,,,,,2,,,75,92
146592,note_off,,,,,672,0,9,,,,,8,,,55,0
146592,note_off,,,,,0,0,8,,,,,7,,,67,0
146592,note_off,,,,,0,0,8,,,,,7,,,72,0
146592,note_off,,,,,672,0,8,,,,,7,,,60,0
146592,note_off,,,,,672,0,7,,,,,6,,,43,0
146688,note_off,,,,,384,0,5,,,,,4,,,58,0
146688,note_on,,,,,0,0,2,,,,,1,,,70,75
146688,note_off,,,,,768,0,2,,,,,1,,,63,0
146688,note_on,,,,,0,0,5,,,,,4,,,67,75
146688,note_on,,,,,0,0,4,,,,,3,,,70,92
146688,note_off,,,,,768,0,4,,,,,3,,,63,0
146688,note_on,,,,,96,0,7,,,,,6,,,39,63
146688,note_on,,,,,96,0,8,,,,,7,,,60,37
146688,note_on,,,,,0,0,8,,,,,7,,,65,37
146688,note_on,,,,,0,0,8,,,,,7,,,69,37
146688,note_off,,,,,768,0,6,,,,,5,,,55,0
146688,note_on,,,,,0,0,6,,,,,5,,,51,75
146688,note_on,,,,,96,0,9,,,,,8,,,48,37
146880,note_on,,,,,0,0,1,,,,,0,,,72,75
146880,note_off,,,,,576,0,1,,,,,0,,,75,0
146880,note_on,,,,,0,0,3,,,,,2,,,72,92
146880,note_off,,,,,576,0,3,,,,,2,,,75,0
147072,note_off,,,,,192,0,3,,,,,2,,,72,0
147072,note_off,,,,,192,0,1,,,,,0,,,72,0
147072,note_on,,,,,0,0,1,,,,,0,,,79,75
147072,note_on,,,,,0,0,3,,,,,2,,,79,92
147360,note_off,,,,,0,0,8,,,,,7,,,69,0
147360,note_off,,,,,0,0,8,,,,,7,,,65,0
147360,note_off,,,,,672,0,8,,,,,7,,,60,0
147360,note_off,,,,,672,0,9,,,,,8,,,48,0
147360,note_off,,,,,672,0,7,,,,,6,,,39,0
147456,note_on,,,,,96,0,9,,,,,8,,,57,37
147456,note_on,,,,,0,0,2,,,,,1,,,62,75
147456,note_off,,,,,768,0,2,,,,,1,,,70,0
147456,note_off,,,,,768,0,4,,,,,3,,,70,0
147456,note_on,,,,,0,0,8,,,,,7,,,69,37
147456,note_on,,,,,96,0,8,,,,,7,,,65,37
147456,note_on,,,,,0,0,4,,,,,3,,,62,92
147456,note_off,,,,,768,0,6,,,,,5,,,51,0
147456,note_off,,,,,768,0,5,,,,,4,,,67,0
147456,note_on,,,,,0,0,6,,,,,5,,,47,75
147456,note_on,,,,,0,0,5,,,,,4,,,67,75
147456,note_on,,,,,96,0,7,,,,,6,,,35,63
147648,note_off,,,,,576,0,1,,,,,0,,,79,0
147648,note_on,,,,,0,0,1,,,,,0,,,67,75
147648,note_on,,,,,0,0,3,,,,,2,,,67,92
147648,note_off,,,,,576,0,3,,,,,2,,,79,0
147840,note_off,,,,,192,0,3,,,,,2,,,67,0
147840,note_on,,,,,0,0,3,,,,,2,,,74,92
147840,note_on,,,,,0,0,1,,,,,0,,,74,75
147840,note_off,,,,,192,0,1,,,,,0,,,67,0
147840,note_on,,,,,384,0,8,,,,,7,,,72,37
148128,note_off,,,,,288,0,8,,,,,7,,,65,0
148128,note_off,,,,,672,0,7,,,,,6,,,35,0
148128,note_off,,,,,672,0,9,,,,,8,,,57,0
148160,note_off,,,,,32,0,8,,,,,7,,,69,0
148160,note_off,,,,,0,0,8,,,,,7,,,72,0
148224,note_on,,,,,0,0,5,,,,,4,,,62,75
148224,note_on,,,,,96,0,7,,,,,6,,,31,63
148224,note_off,,,,,768,0,5,,,,,4,,,67,0
148224,note_on,,,,,0,0,4,,,,,3,,,59,92
148224,note_off,,,,,768,0,2,,,,,1,,,62,0
148224,note_off,,,,,768,0,4,,,,,3,,,62,0
148224,note_on,,,,,0,0,2,,,,,1,,,59,75
148224,note_on,,,,,0,0,6,,,,,5,,,43,75
148224,note_on,,,,,0,0,8,,,,,7,,,74,37
148224,note_on,,,,,0,0,8,,,,,7,,,67,37
148224,note_on,,,,,96,0,9,,,,,8,,,52,37
148224,note_off,,,,,768,0,6,,,,,5,,,47,0
148224,note_on,,,,,64,0,8,,,,,7,,,65,37
148416,note_off,,,,,576,0,3,,,,,2,,,74,0
148416,note_on,,,,,0,0,3,,,,,2,,,71,92
148416,note_off,,,,,576,0,1,,,,,0,,,74,0
148416,note_on,,,,,0,0,1,,,,,0,,,71,75
148544,note_off,,,,,0,0,8,,,,,7,,,74,0
148544,note_off,,,,,320,0,8,,,,,7,,,65,0
148608,note_on,,,,,0,0,3,,,,,2,,,77,92
148608,note_on,,,,,64,0,8,,,,,7,,,64,37
148608,note_off,,,,,192,0,3,,,,,2,,,71,0
148608,note_on,,,,,0,0,1,,,,,0,,,77,75
148608,note_off,,,,,192,0,1,,,,,0,,,71,0
148896,note_off,,,,,672,0,9,,,,,8,,,52,0
148896,note_off,,,,,672,0,7,,,,,6,,,31,0
148928,note_off,,,,,320,0,8,,,,,7,,,67,0
148928,note_off,,,,,0,0,8,,,,,7,,,64,0
148992,note_off,,,,,768,0,6,,,,,5,,,43,0
148992,note_on,,,,,96,0,9,,,,,8,,,53,37
148992,note_off,,,,,768,0,4,,,,,3,,,59,0
148992,note_on,,,,,0,0,4,,,,,3,,,62,92
148992,note_on,,,,,96,0,7,,,,,6,,,35,63
148992,note_on,,,,,64,0,8,,,,,7,,,65,37
148992,note_on,,,,,0,0,8,,,,,7,,,69,37
148992,note_on,,,,,0,0,8,,,,,7,,,72,37
148992,note_on,,,,,0,0,5,,,,,4,,,67,75
148992,note_on,,,,,0,0,6,,,,,5,,,47,75
148992,note_off,,,,,768,0,5,,,,,4,,,62,0
148992,note_off,,,,,768,0,2,,,,,1,,,59,0
148992,note_on,,,,,0,0,2,,,,,1,,,62,75
149184,note_off,,,,,576,0,3,,,,,2,,,77,0
149184,note_off,,,,,576,0,1,,,,,0,,,77,0
149184,note_on,,,,,0,0,1,,,,,0,,,68,75
149184,note_on,,,,,0,0,3,,,,,2,,,68,92
149376,note_on,,,,,0,0,1,,,,,0,,,67,75
149376,note_on,,,,,0,0,3,,,,,2,,,67,92
149376,note_off,,,,,192,0,3,,,,,2,,,68,0
149376,note_off,,,,,192,0,1,,,,,0,,,68,0
149568,note_on,,,,,0,0,3,,,,,2,,,65,92
149568,note_off,,,,,192,0,3,,,,,2,,,67,0
149568,note_off,,,,,192,0,1,,,,,0,,,67,0
149568,note_on,,,,,0,0,1,,,,,0,,,65,75
149664,note_off,,,,,672,0,7,,,,,6,,,35,0
149664,note_off,,,,,672,0,9,,,,,8,,,53,0
149664,note_off,,,,,672,0,8,,,,,7,,,65,0
149664,note_off,,,,,0,0,8,,,,,7,,,69,0
149664,note_off,,,,,0,0,8,,,,,7,,,72,0
149760,note_on,,,,,0,0,3,,,,,2,,,63,92
149760,note_on,,,,,96,0,9,,,,,8,,,50,37
149760,note_off,,,,,192,0,3,,,,,2,,,65,0
149760,note_off,,,,,768,0,6,,,,,5,,,47,0
149760,note_on,,,,,0,0,6,,,,,5,,,48,75
149760,note_off,,,,,192,0,1,,,,,0,,,65,0
149760,note_on,,,,,0,0,1,,,,,0,,,63,75
149760,note_on,,,,,0,0,4,,,,,3,,,60,92
149760,note_off,,,,,768,0,5,,,,,4,,,67,0
149760,note_on,,,,,0,0,5,,,,,4,,,55,75
149760,note_off,,,,,768,0,2,,,,,1,,,62,0
149760,note_on,,,,,96,0,8,,,,,7,,,62,37
149760,note_on,,,,,0,0,8,,,,,7,,,65,37
149760,note_on,,,,,0,0,2,,,,,1,,,60,75
149760,note_on,,,,,0,0,8,,,,,7,,,70,37
149760,note_off,,,,,768,0,4,,,,,3,,,62,0
149760,note_on,,,,,96,0,7,,,,,6,,,36,63
149952,note_on,,,,,0,0,1,,,,,0,,,67,75
149952,note_on,,,,,0,0,3,,,,,2,,,67,92
149952,note_off,,,,,192,0,3,,,,,2,,,63,0
149952,note_off,,,,,192,0,1,,,,,0,,,63,0
150080,note_off,,,,,320,0,9,,,,,8,,,50,0
150144,note_on,,,,,0,0,1,,,,,0,,,72,75
150144,note_off,,,,,192,0,1,,,,,0,,,67,0
150144,note_on,,,,,64,0,9,,,,,8,,,45,37
150144,note_off,,,,,192,0,3,,,,,2,,,67,0
150144,note_on,,,,,0,0,3,,,,,2,,,72,92
150336,note_on,,,,,0,0,2,,,,,1,,,62,75
150336,note_on,,,,,0,0,4,,,,,3,,,62,92
150336,note_off,,,,,576,0,4,,,,,3,,,60,0
150336,note_off,,,,,576,0,2,,,,,1,,,60,0
150432,note_off,,,,,672,0,8,,,,,7,,,62,0
150432,note_off,,,,,0,0,8,,,,,7,,,65,0
150432,note_off,,,,,0,0,8,,,,,7,,,70,0
150432,note_off,,,,,672,0,7,,,,,6,,,36,0
150464,note_off,,,,,320,0,9,,,,,8,,,45,0
150528,note_off,,,,,768,0,5,,,,,4,,,55,0
150528,note_on,,,,,0,0,5,,,,,4,,,60,75
150528,note_off,,,,,192,0,2,,,,,1,,,62,0
150528,note_on,,,,,0,0,6,,,,,5,,,60,75
150528,note_off,,,,,192,0,4,,,,,3,,,62,0
150528,note_on,,,,,96,0,7,,,,,6,,,48,63
150528,note_on,,,,,0,0,4,,,,,3,,,63,92
150528,note_on,,,,,96,0,8,,,,,7,,,62,37
150528,note_on,,,,,0,0,8,,,,,7,,,65,37
150528,note_on,,,,,0,0,8,,,,,7,,,70,37
150528,note_on,,,,,64,0,9,,,,,8,,,46,37
150528,note_on,,,,,0,0,2,,,,,1,,,63,75
150528,note_off,,,,,768,0,6,,,,,5,,,48,0
150720,note_off,,,,,576,0,1,,,,,0,,,72,0
150720,note_on,,,,,0,0,1,,,,,0,,,67,75
150720,note_on,,,,,0,0,3,,,,,2,,,67,92
150720,note_off,,,,,576,0,3,,,,,2,,,72,0
150848,note_off,,,,,320,0,9,,,,,8,,,46,0
150912,note_on,,,,,64,0,9,,,,,8,,,48,37
150912,note_on,,,,,0,0,1,,,,,0,,,79,75
150912,note_off,,,,,192,0,1,,,,,0,,,67,0
150912,note_off,,,,,192,0,3,,,,,2,,,67,0
150912,note_on,,,,,0,0,3,,,,,2,,,79,92
151104,note_on,,,,,0,0,2,,,,,1,,,67,75
151104,note_off,,,,,576,0,4,,,,,3,,,63,0
151104,note_on,,,,,0,0,4,,,,,3,,,67,92
151104,note_off,,,,,576,0,2,,,,,1,,,63,0
151200,note_off,,,,,672,0,8,,,,,7,,,62,0
151200,note_off,,,,,0,0,8,,,,,7,,,65,0
151200,note_off,,,,,0,0,8,,,,,7,,,70,0
151200,note_off,,,,,672,0,7,,,,,6,,,48,0
151232,note_off,,,,,320,0,9,,,,,8,,,48,0
151296,note_off,,,,,192,0,4,,,,,3,,,67,0
151296,note_on,,,,,0,0,4,,,,,3,,,64,92
151296,note_on,,,,,96,0,7,,,,,6,,,36,63
151296,note_on,,,,,0,0,2,,,,,1,,,64,75
151296,note_off,,,,,768,0,6,,,,,5,,,60,0
151296,note_on,,,,,0,0,6,,,,,5,,,48,75
151296,note_on,,,,,0,0,5,,,,,4,,,60,75
151296,note_on,,,,,96,0,8,,,,,7,,,62,37
151296,note_on,,,,,0,0,8,,,,,7,,,65,37
151296,note_on,,,,,0,0,8,,,,,7,,,70,37
151296,note_off,,,,,768,0,5,,,,,4,,,60,0
151296,note_off,,,,,192,0,2,,,,,1,,,67,0
151296,note_on,,,,,64,0,9,,,,,8,,,41,37
151488,note_on,,,,,0,0,1,,,,,0,,,82,75
151488,note_on,,,,,0,0,3,,,,,2,,,82,92
151488,note_off,,,,,576,0,3,,,,,2,,,79,0
151488,note_off,,,,,576,0,1,,,,,0,,,79,0
151680,note_off,,,,,192,0,1,,,,,0,,,82,0
151680,note_on,,,,,0,0,1,,,,,0,,,80,75
151680,note_on,,,,,0,0,3,,,,,2,,,80,92
151680,note_off,,,,,192,0,3,,,,,2,,,82,0
151872,note_off,,,,,576,0,4,,,,,3,,,64,0
151872,note_on,,,,,0,0,4,,,,,3,,,60,92
151872,note_on,,,,,0,0,3,,,,,2,,,79,92
151872,note_on,,,,,0,0,1,,,,,0,,,79,75
151872,note_off,,,,,192,0,3,,,,,2,,,80,0
151872,note_off,,,,,192,0,1,,,,,0,,,80,0
151872,note_on,,,,,0,0,2,,,,,1,,,60,75
151872,note_off,,,,,576,0,2,,,,,1,,,64,0
151968,note_off,,,,,0,0,8,,,,,7,,,70,0
151968,note_off,,,,,0,0,8,,,,,7,,,65,0
151968,note_off,,,,,672,0,8,,,,,7,,,62,0
151968,note_off,,,,,672,0,7,,,,,6,,,36,0
151968,note_off,,,,,672,0,9,,,,,8,,,41,0
152064,note_on,,,,,96,0,9,,,,,8,,,53,37
152064,note_on,,,,,0,0,8,,,,,7,,,65,37
152064,note_on,,,,,96,0,7,,,,,6,,,41,63
152064,note_off,,,,,768,0,6,,,,,5,,,48,0
152064,note_on,,,,,0,0,3,,,,,2,,,80,92
152064,note_on,,,,,0,0,6,,,,,5,,,53,75
152064,note_off,,,,,192,0,2,,,,,1,,,60,0
152064,note_on,,,,,0,0,4,,,,,3,,,72,92
152064,note_off,,,,,192,0,4,,,,,3,,,60,0
152064,note_off,,,,,768,0,5,,,,,4,,,60,0
152064,note_on,,,,,0,0,5,,,,,4,,,60,75
152064,note_on,,,,,96,0,8,,,,,7,,,60,37
152064,note_off,,,,,192,0,3,,,,,2,,,79,0
152064,note_on,,,,,0,0,8,,,,,7,,,69,37
152064,note_on,,,,,0,0,2,,,,,1,,,72,75
152064,note_off,,,,,192,0,1,,,,,0,,,79,0
152064,note_on,,,,,0,0,1,,,,,0,,,80,75
152256,note_on,,,,,0,0,1,,,,,0,,,79,75
152256,note_off,,,,,192,0,5,,,,,4,,,60,0
152256,note_on,,,,,0,0,5,,,,,4,,,58,75
152256,note_on,,,,,0,0,3,,,,,2,,,79,92
152256,note_off,,,,,192,0,3,,,,,2,,,80,0
152256,note_off,,,,,192,0,1,,,,,0,,,80,0
152448,note_on,,,,,0,0,1,,,,,0,,,77,75
152448,note_on,,,,,0,0,3,,,,,2,,,77,92
152448,note_off,,,,,192,0,3,,,,,2,,,79,0
152448,note_off,,,,,192,0,5,,,,,4,,,58,0
152448,note_on,,,,,0,0,5,,,,,4,,,56,75
152448,note_off,,,,,192,0,1,,,,,0,,,79,0
152640,note_off,,,,,192,0,5,,,,,4,,,56,0
152640,note_on,,,,,0,0,5,,,,,4,,,58,75
152640,note_on,,,,,0,0,4,,,,,3,,,70,92
152640,note_off,,,,,576,0,4,,,,,3,,,72,0
152640,note_on,,,,,0,0,2,,,,,1,,,70,75
152640,note_off,,,,,576,0,2,,,,,1,,,72,0
152736,note_off,,,,,672,0,7,,,,,6,,,41,0
152736,note_off,,,,,672,0,8,,,,,7,,,60,0
152736,note_off,,,,,0,0,8,,,,,7,,,65,0
152736,note_off,,,,,0,0,8,,,,,7,,,69,0
152736,note_off,,,,,672,0,9,,,,,8,,,53,0
152832,note_on,,,,,96,0,9,,,,,8,,,53,37
152832,note_on,,,,,96,0,7,,,,,6,,,29,63
152832,note_on,,,,,0,0,8,,,,,7,,,65,37
152832,note_on,,,,,0,0,8,,,,,7,,,69,37
152832,note_on,,,,,0,0,4,,,,,3,,,68,92
152832,note_on,,,,,96,0,8,,,,,7,,,60,37
152832,note_off,,,,,192,0,2,,,,,1,,,70,0
152832,note_on,,,,,0,0,2,,,,,1,,,68,75
152832,note_off,,,,,768,0,6,,,,,5,,,53,0
152832,note_off,,,,,192,0,5,,,,,4,,,58,0
152832,note_on,,,,,0,0,6,,,,,5,,,41,75
152832,note_off,,,,,192,0,4,,,,,3,,,70,0
152832,note_on,,,,,0,0,5,,,,,4,,,60,75
153024,note_off,,,,,576,0,1,,,,,0,,,77,0
153024,note_on,,,,,0,0,1,,,,,0,,,79,75
153024,note_off,,,,,576,0,3,,,,,2,,,77,0
153024,note_on,,,,,0,0,3,,,,,2,,,79,92
153216,note_off,,,,,192,0,1,,,,,0,,,79,0
153216,note_off,,,,,192,0,3,,,,,2,,,79,0
153216,note_on,,,,,0,0,3,,,,,2,,,75,92
153216,note_on,,,,,0,0,1,,,,,0,,,75,75
153408,note_on,,,,,0,0,4,,,,,3,,,72,92
153408,note_on,,,,,0,0,2,,,,,1,,,72,75
153408,note_off,,,,,576,0,2,,,,,1,,,68,0
153408,note_off,,,,,576,0,4,,,,,3,,,68,0
153504,note_off,,,,,672,0,9,,,,,8,,,53,0
153504,note_off,,,,,672,0,7,,,,,6,,,29,0
153504,note_off,,,,,672,0,8,,,,,7,,,60,0
153504,note_off,,,,,0,0,8,,,,,7,,,65,0
153504,note_off,,,,,0,0,8,,,,,7,,,69,0
153600,note_on,,,,,0,0,6,,,,,5,,,53,75
153600,note_on,,,,,0,0,4,,,,,3,,,69,92
153600,note_off,,,,,768,0,6,,,,,5,,,41,0
153600,note_off,,,,,192,0,4,,,,,3,,,72,0
153600,note_on,,,,,0,0,8,,,,,7,,,65,37
153600,note_on,,,,,96,0,7,,,,,6,,,41,63
153600,note_on,,,,,96,0,8,,,,,7,,,60,37
153600,note_on,,,,,0,0,5,,,,,4,,,65,75
153600,note_off,,,,,768,0,5,,,,,4,,,60,0
153600,note_on,,,,,96,0,9,,,,,8,,,53,37
153600,note_on,,,,,0,0,8,,,,,7,,,69,37
153600,note_off,,,,,192,0,2,,,,,1,,,72,0
153600,note_on,,,,,0,0,2,,,,,1,,,69,75
153792,note_on,,,,,0,0,1,,,,,0,,,77,75
153792,note_on,,,,,0,0,3,,,,,2,,,77,92
153792,note_off,,,,,576,0,3,,,,,2,,,75,0
153792,note_off,,,,,576,0,1,,,,,0,,,75,0
153984,note_on,,,,,0,0,3,,,,,2,,,72,92
153984,note_off,,,,,192,0,1,,,,,0,,,77,0
153984,note_on,,,,,0,0,1,,,,,0,,,72,75
153984,note_off,,,,,192,0,3,,,,,2,,,77,0
154176,note_off,,,,,192,0,3,,,,,2,,,72,0
154176,note_on,,,,,0,0,3,,,,,2,,,75,92
154176,note_off,,,,,192,0,1,,,,,0,,,72,0
154176,note_on,,,,,0,0,1,,,,,0,,,75,75
154272,note_off,,,,,672,0,9,,,,,8,,,53,0
154272,note_off,,,,,672,0,7,,,,,6,,,41,0
154272,note_off,,,,,672,0,8,,,,,7,,,60,0
154272,note_off,,,,,0,0,8,,,,,7,,,65,0
154272,note_off,,,,,0,0,8,,,,,7,,,69,0
154368,note_on,,,,,96,0,9,,,,,8,,,53,37
154368,note_off,,,,,768,0,6,,,,,5,,,53,0
154368,note_on,,,,,96,0,8,,,,,7,,,58,37
154368,note_on,,,,,0,0,8,,,,,7,,,62,37
154368,note_on,,,,,0,0,6,,,,,5,,,46,75
154368,note_off,,,,,192,0,3,,,,,2,,,75,0
154368,note_on,,,,,0,0,8,,,,,7,,,67,37
154368,note_off,,,,,768,0,4,,,,,3,,,69,0
154368,note_on,,,,,96,0,7,,,,,6,,,34,63
154368,note_off,,,,,768,0,2,,,,,1,,,69,0
154368,note_on,,,,,0,0,2,,,,,1,,,70,75
154368,note_on,,,,,0,0,3,,,,,2,,,74,92
154368,note_off,,,,,768,0,5,,,,,4,,,65,0
154368,note_on,,,,,0,0,5,,,,,4,,,65,75
154368,note_on,,,,,0,0,4,,,,,3,,,70,92
154368,note_on,,,,,0,0,1,,,,,0,,,74,75
154368,note_off,,,,,192,0,1,,,,,0,,,75,0
154560,note_on,,,,,0,0,1,,,,,0,,,77,75
154560,note_off,,,,,192,0,1,,,,,0,,,74,0
154560,note_off,,,,,192,0,3,,,,,2,,,74,0
154560,note_on,,,,,0,0,3,,,,,2,,,77,92
154752,note_off,,,,,192,0,1,,,,,0,,,77,0
154752,note_on,,,,,0,0,3,,,,,2,,,70,92
154752,note_on,,,,,0,0,1,,,,,0,,,70,75
154752,note_off,,,,,192,0,3,,,,,2,,,77,0
154944,note_on,,,,,0,0,2,,,,,1,,,74,75
154944,note_off,,,,,576,0,2,,,,,1,,,70,0
154944,note_off,,,,,576,0,4,,,,,3,,,70,0
154944,note_on,,,,,0,0,4,,,,,3,,,74,92
155040,note_off,,,,,0,0,8,,,,,7,,,67,0
155040,note_off,,,,,0,0,8,,,,,7,,,62,0
155040,note_off,,,,,672,0,8,,,,,7,,,58,0
155040,note_off,,,,,672,0,7,,,,,6,,,34,0
155040,note_off,,,,,672,0,9,,,,,8,,,53,0
155136,note_on,,,,,96,0,9,,,,,8,,,53,37
155136,note_on,,,,,0,0,2,,,,,1,,,62,75
155136,note_on,,,,,0,0,4,,,,,3,,,62,92
155136,note_on,,,,,0,0,5,,,,,4,,,65,75
155136,note_on,,,,,0,0,6,,,,,5,,,58,75
155136,note_off,,,,,768,0,6,,,,,5,,,46,0
155136,note_on,,,,,96,0,8,,,,,7,,,58,37
155136,note_on,,,,,0,0,8,,,,,7,,,62,37
155136,note_on,,,,,0,0,8,,,,,7,,,67,37
155136,note_off,,,,,192,0,4,,,,,3,,,74,0
155136,note_on,,,,,96,0,7,,,,,6,,,46,63
155136,note_off,,,,,768,0,5,,,,,4,,,65,0
155136,note_off,,,,,192,0,2,,,,,1,,,74,0
155328,note_on,,,,,0,0,1,,,,,0,,,77,75
155328,note_off,,,,,576,0,1,,,,,0,,,70,0
155328,note_on,,,,,0,0,3,,,,,2,,,77,92
155328,note_off,,,,,576,0,3,,,,,2,,,70,0
155520,note_on,,,,,0,0,3,,,,,2,,,68,92
155520,note_off,,,,,192,0,3,,,,,2,,,77,0
155520,note_on,,,,,0,0,1,,,,,0,,,68,75
155520,note_off,,,,,192,0,1,,,,,0,,,77,0
155712,note_off,,,,,576,0,4,,,,,3,,,62,0
155712,note_on,,,,,0,0,2,,,,,1,,,65,75
155712,note_off,,,,,576,0,2,,,,,1,,,62,0
155712,note_on,,,,,0,0,4,,,,,3,,,65,92
155808,note_off,,,,,0,0,8,,,,,7,,,62,0
155808,note_off,,,,,672,0,8,,,,,7,,,58,0
155808,note_off,,,,,672,0,9,,,,,8,,,53,0
155808,note_off,,,,,672,0,7,,,,,6,,,46,0
155808,note_off,,,,,0,0,8,,,,,7,,,67,0
155904,note_on,,,,,96,0,8,,,,,7,,,58,37
155904,note_on,,,,,0,0,8,,,,,7,,,67,37
155904,note_on,,,,,0,0,6,,,,,5,,,50,75
155904,note_off,,,,,768,0,6,,,,,5,,,58,0
155904,note_on,,,,,0,0,8,,,,,7,,,60,37
155904,note_on,,,,,96,0,7,,,,,6,,,38,63
155904,note_on,,,,,0,0,2,,,,,1,,,58,75
155904,note_off,,,,,192,0,4,,,,,3,,,65,0
155904,note_on,,,,,0,0,4,,,,,3,,,58,92
155904,note_off,,,,,192,0,2,,,,,1,,,65,0
155904,note_on,,,,,96,0,9,,,,,8,,,53,37
155904,note_off,,,,,768,0,5,,,,,4,,,65,0
155904,note_on,,,,,0,0,5,,,,,4,,,65,75
156096,note_off,,,,,576,0,1,,,,,0,,,68,0
156096,note_on,,,,,0,0,3,,,,,2,,,70,92
156096,note_on,,,,,0,0,1,,,,,0,,,70,75
156096,note_off,,,,,576,0,3,,,,,2,,,68,0
156288,note_on,,,,,0,0,1,,,,,0,,,65,75
156288,note_off,,,,,192,0,1,,,,,0,,,70,0
156288,note_off,,,,,192,0,3,,,,,2,,,70,0
156288,note_on,,,,,0,0,3,,,,,2,,,65,92
156480,note_off,,,,,192,0,1,,,,,0,,,65,0
156480,note_on,,,,,0,0,1,,,,,0,,,68,75
156480,note_off,,,,,192,0,3,,,,,2,,,65,0
156480,note_on,,,,,0,0,3,,,,,2,,,68,92
156576,note_off,,,,,672,0,7,,,,,6,,,38,0
156576,note_off,,,,,672,0,9,,,,,8,,,53,0
156576,note_off,,,,,672,0,8,,,,,7,,,58,0
156576,note_off,,,,,0,0,8,,,,,7,,,60,0
156576,note_off,,,,,0,0,8,,,,,7,,,67,0
156672,note_on,,,,,0,0,8,,,,,7,,,60,37
156672,note_on,,,,,0,0,4,,,,,3,,,58,92
156672,note_on,,,,,96,0,8,,,,,7,,,57,37
156672,note_on,,,,,96,0,9,,,,,8,,,53,37
156672,note_off,,,,,768,0,6,,,,,5,,,50,0
156672,note_on,,,,,0,0,6,,,,,5,,,51,75
156672,note_off,,,,,768,0,5,,,,,4,,,65,0
156672,note_on,,,,,0,0,5,,,,,4,,,63,75
156672,note_off,,,,,768,0,2,,,,,1,,,58,0
156672,note_on,,,,,0,0,2,,,,,1,,,58,75
156672,note_off,,,,,768,0,4,,,,,3,,,58,0
156672,note_on,,,,,0,0,1,,,,,0,,,67,75
156672,note_on,,,,,0,0,8,,,,,7,,,65,37
156672,note_off,,,,,192,0,1,,,,,0,,,68,0
156672,note_on,,,,,96,0,7,,,,,6,,,39,63
156672,note_on,,,,,0,0,3,,,,,2,,,67,92
156672,note_off,,,,,192,0,3,,,,,2,,,68,0
156864,note_on,,,,,0,0,3,,,,,2,,,70,92
156864,note_off,,,,,192,0,3,,,,,2,,,67,0
156864,note_off,,,,,192,0,1,,,,,0,,,67,0
156864,note_on,,,,,0,0,1,,,,,0,,,70,75
157056,note_off,,,,,192,0,1,,,,,0,,,70,0
157056,note_on,,,,,0,0,1,,,,,0,,,75,75
157056,note_on,,,,,0,0,3,,,,,2,,,75,92
157056,note_off,,,,,192,0,3,,,,,2,,,70,0
157248,note_on,,,,,0,0,4,,,,,3,,,67,92
157248,note_off,,,,,576,0,4,,,,,3,,,58,0
157248,note_on,,,,,0,0,2,,,,,1,,,67,75
157248,note_off,,,,,576,0,2,,,,,1,,,58,0
157344,note_off,,,,,672,0,9,,,,,8,,,53,0
157344,note_off,,,,,672,0,8,,,,,7,,,57,0
157344,note_off,,,,,0,0,8,,,,,7,,,60,0
157344,note_off,,,,,0,0,8,,,,,7,,,65,0
157344,note_off,,,,,672,0,7,,,,,6,,,39,0
157440,note_off,,,,,192,0,2,,,,,1,,,67,0
157440,note_off,,,,,192,0,4,,,,,3,,,67,0
157440,note_on,,,,,96,0,9,,,,,8,,,53,37
157440,note_on,,,,,96,0,7,,,,,6,,,36,63
157440,note_on,,,,,0,0,5,,,,,4,,,57,75
157440,note_on,,,,,0,0,2,,,,,1,,,63,75
157440,note_off,,,,,768,0,5,,,,,4,,,63,0
157440,note_on,,,,,0,0,4,,,,,3,,,63,92
157440,note_off,,,,,768,0,6,,,,,5,,,51,0
157440,note_on,,,,,0,0,6,,,,,5,,,48,75
157440,note_on,,,,,0,0,8,,,,,7,,,65,37
157440,note_on,,,,,96,0,8,,,,,7,,,62,37
157632,note_on,,,,,0,0,3,,,,,2,,,77,92
157632,note_off,,,,,576,0,3,,,,,2,,,75,0
157632,note_on,,,,,0,0,1,,,,,0,,,77,75
157632,note_off,,,,,576,0,1,,,,,0,,,75,0
157760,note_off,,,,,320,0,7,,,,,6,,,36,0
157824,note_off,,,,,384,0,6,,,,,5,,,48,0
157824,note_off,,,,,192,0,3,,,,,2,,,77,0
157824,note_on,,,,,0,0,3,,,,,2,,,72,92
157824,note_on,,,,,64,0,7,,,,,6,,,45,63
157824,note_on,,,,,0,0,2,,,,,1,,,65,75
157824,note_off,,,,,384,0,5,,,,,4,,,57,0
157824,note_off,,,,,384,0,4,,,,,3,,,63,0
157824,note_on,,,,,0,0,4,,,,,3,,,65,92
157824,note_on,,,,,0,0,5,,,,,4,,,60,75
157824,note_on,,,,,0,0,6,,,,,5,,,57,75
157824,note_off,,,,,384,0,2,,,,,1,,,63,0
157824,note_off,,,,,192,0,1,,,,,0,,,77,0
157824,note_on,,,,,0,0,1,,,,,0,,,72,75
158016,note_off,,,,,192,0,3,,,,,2,,,72,0
158016,note_off,,,,,192,0,1,,,,,0,,,72,0
158016,note_on,,,,,0,0,1,,,,,0,,,75,75
158016,note_on,,,,,0,0,3,,,,,2,,,75,92
158112,note_off,,,,,672,0,9,,,,,8,,,53,0
158112,note_off,,,,,672,0,8,,,,,7,,,62,0
158112,note_off,,,,,0,0,8,,,,,7,,,65,0
158144,note_off,,,,,320,0,7,,,,,6,,,45,0
158208,note_on,,,,,64,0,7,,,,,6,,,46,63
158208,note_off,,,,,384,0,6,,,,,5,,,57,0
158208,note_on,,,,,0,0,8,,,,,7,,,70,37
158208,note_on,,,,,0,0,8,,,,,7,,,64,37
158208,note_on,,,,,0,0,6,,,,,5,,,58,75
158208,note_off,,,,,192,0,1,,,,,0,,,75,0
158208,note_off,,,,,384,0,2,,,,,1,,,65,0
158208,note_on,,,,,0,0,2,,,,,1,,,65,75
158208,note_off,,,,,192,0,3,,,,,2,,,75,0
158208,note_on,,,,,0,0,3,,,,,2,,,74,92
158208,note_on,,,,,0,0,5,,,,,4,,,58,75
158208,note_on,,,,,96,0,8,,,,,7,,,58,37
158208,note_on,,,,,0,0,1,,,,,0,,,74,75
158208,note_off,,,,,384,0,5,,,,,4,,,60,0
158208,note_off,,,,,384,0,4,,,,,3,,,65,0
158208,note_on,,,,,96,0,9,,,,,8,,,52,37
158208,note_on,,,,,0,0,4,,,,,3,,,65,92
158400,note_off,,,,,192,0,3,,,,,2,,,74,0
158400,note_on,,,,,0,0,3,,,,,2,,,77,92
158400,note_off,,,,,192,0,1,,,,,0,,,74,0
158400,note_on,,,,,0,0,1,,,,,0,,,77,75
158528,note_off,,,,,320,0,7,,,,,6,,,46,0
158592,note_off,,,,,192,0,1,,,,,0,,,77,0
158592,note_off,,,,,192,0,3,,,,,2,,,77,0
158592,note_on,,,,,0,0,3,,,,,2,,,70,92
158592,note_on,,,,,0,0,1,,,,,0,,,70,75
158592,note_on,,,,,0,0,6,,,,,5,,,50,75
158592,note_off,,,,,384,0,6,,,,,5,,,58,0
158592,note_on,,,,,64,0,7,,,,,6,,,38,63
158784,note_on,,,,,0,0,4,,,,,3,,,58,92
158784,note_off,,,,,576,0,4,,,,,3,,,65,0
158784,note_off,,,,,576,0,2,,,,,1,,,65,0
158784,note_on,,,,,0,0,2,,,,,1,,,58,75
158784,note_off,,,,,192,0,1,,,,,0,,,70,0
158784,note_on,,,,,0,0,1,,,,,0,,,77,75
158784,note_on,,,,,0,0,3,,,,,2,,,77,92
158784,note_off,,,,,192,0,3,,,,,2,,,70,0
158880,note_off,,,,,0,0,8,,,,,7,,,64,0
158880,note_off,,,,,672,0,8,,,,,7,,,58,0
158880,note_off,,,,,672,0,9,,,,,8,,,52,0
158880,note_off,,,,,0,0,8,,,,,7,,,70,0
158912,note_off,,,,,320,0,7,,,,,6,,,38,0
158976,note_off,,,,,192,0,3,,,,,2,,,77,0
158976,note_on,,,,,0,0,3,,,,,2,,,69,92
158976,note_on,,,,,0,0,5,,,,,4,,,60,75
158976,note_on,,,,,0,0,2,,,,,1,,,57,75
158976,note_off,,,,,768,0,5,,,,,4,,,58,0
158976,note_off,,,,,192,0,2,,,,,1,,,58,0
158976,note_on,,,,,0,0,8,,,,,7,,,69,37
158976,note_off,,,,,192,0,4,,,,,3,,,58,0
158976,note_on,,,,,0,0,1,,,,,0,,,69,75
158976,note_off,,,,,192,0,1,,,,,0,,,77,0
158976,note_on,,,,,0,0,4,,,,,3,,,57,92
158976,note_on,,,,,64,0,7,,,,,6,,,41,63
158976,note_on,,,,,0,0,6,,,,,5,,,53,75
158976,note_off,,,,,384,0,6,,,,,5,,,50,0
158976,note_on,,,,,96,0,9,,,,,8,,,53,37
158976,note_on,,,,,0,0,8,,,,,7,,,65,37
158976,note_on,,,,,96,0,8,,,,,7,,,60,37
159168,note_on,,,,,0,0,1,,,,,0,,,72,75
159168,note_off,,,,,192,0,1,,,,,0,,,69,0
159168,note_off,,,,,192,0,3,,,,,2,,,69,0
159168,note_on,,,,,0,0,3,,,,,2,,,72,92
159360,note_on,,,,,0,0,1,,,,,0,,,65,75
159360,note_on,,,,,0,0,3,,,,,2,,,65,92
159360,note_off,,,,,192,0,3,,,,,2,,,72,0
159360,note_off,,,,,192,0,1,,,,,0,,,72,0
159552,note_on,,,,,0,0,2,,,,,1,,,72,75
159552,note_off,,,,,576,0,2,,,,,1,,,57,0
159552,note_off,,,,,576,0,4,,,,,3,,,57,0
159552,note_on,,,,,0,0,4,,,,,3,,,72,92
159648,note_off,,,,,0,0,8,,,,,7,,,69,0
159648,note_off,,,,,672,0,8,,,,,7,,,60,0
159648,note_off,,,,,672,0,9,,,,,8,,,53,0
159648,note_off,,,,,0,0,8,,,,,7,,,65,0
159648,note_off,,,,,672,0,7,,,,,6,,,41,0
159744,note_off,,,,,192,0,4,,,,,3,,,72,0
159744,note_on,,,,,0,0,2,,,,,1,,,65,75
159744,note_off,,,,,192,0,2,,,,,1,,,72,0
159744,note_on,,,,,96,0,7,,,,,6,,,45,63
159744,note_on,,,,,96,0,9,,,,,8,,,58,37
159744,note_on,,,,,0,0,8,,,,,7,,,69,37
159744,note_on,,,,,0,0,8,,,,,7,,,63,37
159744,note_on,,,,,96,0,8,,,,,7,,,60,37
159744,note_on,,,,,0,0,4,,,,,3,,,65,92
159744,note_on,,,,,0,0,6,,,,,5,,,57,75
159744,note_off,,,,,768,0,5,,,,,4,,,60,0
159744,note_on,,,,,0,0,5,,,,,4,,,60,75
159744,note_off,,,,,768,0,6,,,,,5,,,53,0
159936,note_off,,,,,576,0,1,,,,,0,,,65,0
159936,note_on,,,,,0,0,1,,,,,0,,,77,75
159936,note_off,,,,,576,0,3,,,,,2,,,65,0
159936,note_on,,,,,0,0,3,,,,,2,,,77,92
160128,note_off,,,,,192,0,3,,,,,2,,,77,0
160128,note_off,,,,,192,0,1,,,,,0,,,77,0
160128,note_on,,,,,0,0,1,,,,,0,,,72,75
160128,note_on,,,,,0,0,3,,,,,2,,,72,92
160320,note_off,,,,,576,0,2,,,,,1,,,65,0
160320,note_off,,,,,576,0,4,,,,,3,,,65,0
160320,note_on,,,,,0,0,4,,,,,3,,,72,92
160320,note_on,,,,,0,0,2,,,,,1,,,72,75
160416,note_off,,,,,0,0,8,,,,,7,,,63,0
160416,note_off,,,,,0,0,8,,,,,7,,,69,0
160416,note_off,,,,,672,0,8,,,,,7,,,60,0
160416,note_off,,,,,672,0,7,,,,,6,,,45,0
160416,note_off,,,,,672,0,9,,,,,8,,,58,0
160512,note_off,,,,,192,0,2,,,,,1,,,72,0
160512,note_on,,,,,0,0,2,,,,,1,,,69,75
160512,note_on,,,,,96,0,9,,,,,8,,,55,37
160512,note_on,,,,,0,0,8,,,,,7,,,72,37
160512,note_on,,,,,0,0,8,,,,,7,,,65,37
160512,note_on,,,,,96,0,8,,,,,7,,,60,37
160512,note_off,,,,,192,0,4,,,,,3,,,72,0
160512,note_off,,,,,768,0,6,,,,,5,,,57,0
160512,note_on,,,,,0,0,6,,,,,5,,,53,75
160512,note_on,,,,,0,0,4,,,,,3,,,69,92
160512,note_on,,,,,96,0,7,,,,,6,,,41,63
160512,note_off,,,,,768,0,5,,,,,4,,,60,0
160512,note_on,,,,,0,0,5,,,,,4,,,60,75
160704,note_off,,,,,576,0,1,,,,,0,,,72,0
160704,note_on,,,,,0,0,3,,,,,2,,,77,92
160704,note_off,,,,,576,0,3,,,,,2,,,72,0
160704,note_on,,,,,0,0,1,,,,,0,,,77,75
160896,note_off,,,,,192,0,1,,,,,0,,,77,0
160896,note_on,,,,,0,0,1,,,,,0,,,72,75
160896,note_off,,,,,192,0,3,,,,,2,,,77,0
160896,note_on,,,,,0,0,3,,,,,2,,,72,92
161088,note_off,,,,,192,0,1,,,,,0,,,72,0
161088,note_on,,,,,0,0,1,,,,,0,,,75,75
161088,note_off,,,,,576,0,2,,,,,1,,,69,0
161088,note_on,,,,,0,0,4,,,,,3,,,72,92
161088,note_off,,,,,576,0,4,,,,,3,,,69,0
161088,note_off,,,,,192,0,3,,,,,2,,,72,0
161088,note_on,,,,,0,0,3,,,,,2,,,75,92
161088,note_on,,,,,0,0,2,,,,,1,,,72,75
161184,note_off,,,,,672,0,9,,,,,8,,,55,0
161184,note_off,,,,,0,0,8,,,,,7,,,72,0
161184,note_off,,,,,672,0,7,,,,,6,,,41,0
161184,note_off,,,,,672,0,8,,,,,7,,,60,0
161184,note_off,,,,,0,0,8,,,,,7,,,65,0
161280,note_on,,,,,0,0,3,,,,,2,,,74,92
161280,note_off,,,,,192,0,1,,,,,0,,,75,0
161280,note_on,,,,,0,0,1,,,,,0,,,74,75
161280,note_on,,,,,96,0,8,,,,,7,,,62,37
161280,note_off,,,,,768,0,6,,,,,5,,,53,0
161280,note_off,,,,,192,0,3,,,,,2,,,75,0
161280,note_on,,,,,96,0,9,,,,,8,,,57,37
161280,note_on,,,,,96,0,7,,,,,6,,,46,63
161280,note_off,,,,,192,0,2,,,,,1,,,72,0
161280,note_on,,,,,0,0,5,,,,,4,,,62,75
161280,note_off,,,,,768,0,5,,,,,4,,,60,0
161280,note_on,,,,,0,0,4,,,,,3,,,70,92
161280,note_on,,,,,0,0,6,,,,,5,,,58,75
161280,note_on,,,,,0,0,8,,,,,7,,,65,37
161280,note_off,,,,,192,0,4,,,,,3,,,72,0
161280,note_on,,,,,0,0,2,,,,,1,,,70,75
161472,note_on,,,,,0,0,2,,,,,1,,,74,75
161472,note_off,,,,,192,0,4,,,,,3,,,70,0
161472,note_on,,,,,0,0,4,,,,,3,,,74,92
161472,note_on,,,,,0,0,3,,,,,2,,,77,92
161472,note_on,,,,,0,0,1,,,,,0,,,77,75
161472,note_off,,,,,192,0,2,,,,,1,,,70,0
161472,note_off,,,,,192,0,3,,,,,2,,,74,0
161472,note_off,,,,,192,0,1,,,,,0,,,74,0
161664,note_on,,,,,0,0,3,,,,,2,,,70,92
161664,note_off,,,,,192,0,2,,,,,1,,,74,0
161664,note_off,,,,,192,0,1,,,,,0,,,77,0
161664,note_off,,,,,192,0,4,,,,,3,,,74,0
161664,note_off,,,,,192,0,3,,,,,2,,,77,0
161664,note_on,,,,,0,0,2,,,,,1,,,65,75
161664,note_on,,,,,0,0,1,,,,,0,,,70,75
161664,note_on,,,,,0,0,4,,,,,3,,,65,92
161856,note_on,,,,,0,0,5,,,,,4,,,58,75
161856,note_off,,,,,576,0,5,,,,,4,,,62,0
161952,note_off,,,,,0,0,8,,,,,7,,,65,0
161952,note_off,,,,,672,0,9,,,,,8,,,57,0
161952,note_off,,,,,672,0,7,,,,,6,,,46,0
161952,note_off,,,,,672,0,8,,,,,7,,,62,0
162048,note_on,,,,,96,0,9,,,,,8,,,53,37
162048,note_on,,,,,0,0,2,,,,,1,,,70,75
162048,note_on,,,,,96,0,8,,,,,7,,,58,37
162048,note_on,,,,,0,0,5,,,,,4,,,65,75
162048,note_off,,,,,192,0,5,,,,,4,,,58,0
162048,note_off,,,,,768,0,6,,,,,5,,,58,0
162048,note_off,,,,,384,0,2,,,,,1,,,65,0
162048,note_on,,,,,0,0,8,,,,,7,,,62,37
162048,note_on,,,,,0,0,6,,,,,5,,,58,75
162048,note_on,,,,,0,0,8,,,,,7,,,67,37
162048,note_on,,,,,0,0,3,,,,,2,,,74,92
162048,note_off,,,,,384,0,4,,,,,3,,,65,0
162048,note_on,,,,,0,0,4,,,,,3,,,70,92
162048,note_off,,,,,384,0,1,,,,,0,,,70,0
162048,note_on,,,,,0,0,1,,,,,0,,,74,75
162048,note_on,,,,,96,0,7,,,,,6,,,46,63
162048,note_off,,,,,384,0,3,,,,,2,,,70,0
162240,note_on,,,,,0,0,2,,,,,1,,,74,75
162240,note_off,,,,,192,0,2,,,,,1,,,70,0
162240,note_off,,,,,192,0,1,,,,,0,,,74,0
162240,note_off,,,,,192,0,3,,,,,2,,,74,0
162240,note_on,,,,,0,0,4,,,,,3,,,74,92
162240,note_on,,,,,0,0,3,,,,,2,,,77,92
162240,note_off,,,,,192,0,4,,,,,3,,,70,0
162240,note_on,,,,,0,0,1,,,,,0,,,77,75
162432,note_off,,,,,192,0,1,,,,,0,,,77,0
162432,note_on,,,,,0,0,4,,,,,3,,,65,92
162432,note_on,,,,,0,0,1,,,,,0,,,70,75
162432,note_off,,,,,192,0,4,,,,,3,,,74,0
162432,note_off,,,,,192,0,3,,,,,2,,,77,0
162432,note_on,,,,,0,0,3,,,,,2,,,70,92
162432,note_on,,,,,0,0,2,,,,,1,,,65,75
162432,note_off,,,,,192,0,2,,,,,1,,,74,0
162624,note_on,,,,,0,0,5,,,,,4,,,62,75
162624,note_off,,,,,576,0,5,,,,,4,,,65,0
162720,note_off,,,,,672,0,8,,,,,7,,,58,0
162720,note_off,,,,,672,0,9,,,,,8,,,53,0
162720,note_off,,,,,0,0,8,,,,,7,,,67,0
162720,note_off,,,,,0,0,8,,,,,7,,,62,0
162720,note_off,,,,,672,0,7,,,,,6,,,46,0
162816,note_on,,,,,96,0,7,,,,,6,,,46,63
162816,note_on,,,,,0,0,2,,,,,1,,,67,75
162816,note_on,,,,,0,0,5,,,,,4,,,63,75
162816,note_off,,,,,384,0,2,,,,,1,,,65,0
162816,note_off,,,,,192,0,5,,,,,4,,,62,0
162816,note_off,,,,,768,0,6,,,,,5,,,58,0
162816,note_off,,,,,384,0,1,,,,,0,,,70,0
162816,note_off,,,,,384,0,4,,,,,3,,,65,0
162816,note_on,,,,,0,0,6,,,,,5,,,58,75
162816,note_on,,,,,96,0,9,,,,,8,,,45,37
162816,note_off,,,,,384,0,3,,,,,2,,,70,0
162816,note_on,,,,,0,0,3,,,,,2,,,75,92
162816,note_on,,,,,0,0,8,,,,,7,,,67,37
162816,note_on,,,,,0,0,8,,,,,7,,,62,37
162816,note_on,,,,,96,0,8,,,,,7,,,58,37
162816,note_on,,,,,0,0,1,,,,,0,,,75,75
162816,note_on,,,,,0,0,4,,,,,3,,,67,92
163008,note_off,,,,,192,0,3,,,,,2,,,75,0
163008,note_on,,,,,0,0,3,,,,,2,,,79,92
163008,note_on,,,,,0,0,1,,,,,0,,,79,75
163008,note_on,,,,,0,0,4,,,,,3,,,70,92
163008,note_off,,,,,192,0,4,,,,,3,,,67,0
163008,note_off,,,,,192,0,2,,,,,1,,,67,0
163008,note_on,,,,,0,0,2,,,,,1,,,70,75
163008,note_off,,,,,192,0,1,,,,,0,,,75,0
163200,note_on,,,,,0,0,2,,,,,1,,,63,75
163200,note_on,,,,,0,0,3,,,,,2,,,70,92
163200,note_off,,,,,192,0,3,,,,,2,,,79,0
163200,note_off,,,,,192,0,2,,,,,1,,,70,0
163200,note_off,,,,,192,0,4,,,,,3,,,70,0
163200,note_off,,,,,192,0,1,,,,,0,,,79,0
163200,note_on,,,,,0,0,4,,,,,3,,,63,92
163200,note_on,,,,,0,0,1,,,,,0,,,70,75
163392,note_on,,,,,0,0,5,,,,,4,,,67,75
163392,note_off,,,,,576,0,5,,,,,4,,,63,0
163488,note_off,,,,,672,0,7,,,,,6,,,46,0
163488,note_off,,,,,672,0,8,,,,,7,,,58,0
163488,note_off,,,,,0,0,8,,,,,7,,,62,0
163488,note_off,,,,,672,0,9,,,,,8,,,45,0
163488,note_off,,,,,0,0,8,,,,,7,,,67,0
163584,note_off,,,,,384,0,3,,,,,2,,,70,0
163584,note_off,,,,,768,0,6,,,,,5,,,58,0
163584,note_on,,,,,0,0,6,,,,,5,,,58,75
163584,note_on,,,,,96,0,9,,,,,8,,,46,37
163584,note_on,,,,,96,0,8,,,,,7,,,55,37
163584,note_on,,,,,0,0,8,,,,,7,,,60,37
163584,note_on,,,,,0,0,8,,,,,7,,,64,37
163584,note_on,,,,,0,0,2,,,,,1,,,70,75
163584,note_off,,,,,384,0,2,,,,,1,,,63,0
163584,note_off,,,,,384,0,4,,,,,3,,,63,0
163584,note_on,,,,,0,0,1,,,,,0,,,74,75
163584,note_off,,,,,384,0,1,,,,,0,,,70,0
163584,note_on,,,,,0,0,3,,,,,2,,,74,92
163584,note_on,,,,,96,0,7,,,,,6,,,46,63
163584,note_off,,,,,192,0,5,,,,,4,,,67,0
163584,note_on,,,,,0,0,5,,,,,4,,,65,75
163584,note_on,,,,,0,0,4,,,,,3,,,70,92
163776,note_on,,,,,0,0,2,,,,,1,,,74,75
163776,note_off,,,,,192,0,1,,,,,0,,,74,0
163776,note_on,,,,,0,0,1,,,,,0,,,77,75
163776,note_off,,,,,192,0,2,,,,,1,,,70,0
163776,note_off,,,,,192,0,3,,,,,2,,,74,0
163776,note_on,,,,,0,0,3,,,,,2,,,77,92
163776,note_off,,,,,192,0,4,,,,,3,,,70,0
163776,note_on,,,,,0,0,4,,,,,3,,,74,92
163968,note_on,,,,,0,0,4,,,,,3,,,65,92
163968,note_on,,,,,0,0,2,,,,,1,,,65,75
163968,note_off,,,,,192,0,3,,,,,2,,,77,0
163968,note_on,,,,,0,0,3,,,,,2,,,70,92
163968,note_off,,,,,192,0,1,,,,,0,,,77,0
163968,note_on,,,,,0,0,1,,,,,0,,,70,75
163968,note_off,,,,,192,0,2,,,,,1,,,74,0
163968,note_off,,,,,192,0,4,,,,,3,,,74,0
164160,note_off,,,,,576,0,5,,,,,4,,,65,0
164160,note_on,,,,,0,0,5,,,,,4,,,58,75
164256,note_off,,,,,672,0,7,,,,,6,,,46,0
164256,note_off,,,,,0,0,8,,,,,7,,,64,0
164256,note_off,,,,,0,0,8,,,,,7,,,60,0
164256,note_off,,,,,672,0,8,,,,,7,,,55,0
164256,note_off,,,,,672,0,9,,,,,8,,,46,0
164352,note_on,,,,,96,0,7,,,,,6,,,46,63
164352,note_on,,,,,0,0,8,,,,,7,,,67,37
164352,note_on,,,,,0,0,8,,,,,7,,,60,37
164352,note_on,,,,,96,0,8,,,,,7,,,58,37
164352,note_off,,,,,384,0,3,,,,,2,,,70,0
164352,note_off,,,,,384,0,2,,,,,1,,,65,0
164352,note_on,,,,,0,0,3,,,,,2,,,74,92
164352,note_on,,,,,0,0,2,,,,,1,,,70,75
164352,note_on,,,,,0,0,6,,,,,5,,,58,75
164352,note_on,,,,,0,0,5,,,,,4,,,65,75
164352,note_on,,,,,0,0,4,,,,,3,,,70,92
164352,note_off,,,,,384,0,4,,,,,3,,,65,0
164352,note_off,,,,,192,0,5,,,,,4,,,58,0
164352,note_off,,,,,384,0,1,,,,,0,,,70,0
164352,note_on,,,,,0,0,1,,,,,0,,,74,75
164352,note_off,,,,,768,0,6,,,,,5,,,58,0
164352,note_on,,,,,96,0,9,,,,,8,,,43,37
164544,note_on,,,,,0,0,3,,,,,2,,,77,92
164544,note_off,,,,,192,0,3,,,,,2,,,74,0
164544,note_off,,,,,192,0,4,,,,,3,,,70,0
164544,note_off,,,,,192,0,1,,,,,0,,,74,0
164544,note_on,,,,,0,0,1,,,,,0,,,77,75
164544,note_on,,,,,0,0,4,,,,,3,,,74,92
164544,note_off,,,,,192,0,2,,,,,1,,,70,0
164544,note_on,,,,,0,0,2,,,,,1,,,74,75
164736,note_off,,,,,192,0,3,,,,,2,,,77,0
164736,note_off,,,,,192,0,4,,,,,3,,,74,0
164736,note_on,,,,,0,0,4,,,,,3,,,65,92
164736,note_on,,,,,0,0,3,,,,,2,,,70,92
164736,note_on,,,,,0,0,1,,,,,0,,,70,75
164736,note_off,,,,,192,0,1,,,,,0,,,77,0
164736,note_off,,,,,192,0,2,,,,,1,,,74,0
164736,note_on,,,,,0,0,2,,,,,1,,,65,75
164928,note_on,,,,,0,0,5,,,,,4,,,62,75
164928,note_off,,,,,576,0,5,,,,,4,,,65,0
165024,note_off,,,,,0,0,8,,,,,7,,,60,0
165024,note_off,,,,,672,0,8,,,,,7,,,58,0
165024,note_off,,,,,672,0,7,,,,,6,,,46,0
165024,note_off,,,,,672,0,9,,,,,8,,,43,0
165120,note_off,,,,,384,0,4,,,,,3,,,65,0
165120,note_on,,,,,96,0,7,,,,,6,,,46,63
165120,note_on,,,,,96,0,8,,,,,7,,,57,37
165120,note_on,,,,,0,0,8,,,,,7,,,60,37
165120,note_on,,,,,0,0,6,,,,,5,,,58,75
165120,note_off,,,,,768,0,6,,,,,5,,,58,0
165120,note_off,,,,,384,0,2,,,,,1,,,65,0
165120,note_on,,,,,0,0,3,,,,,2,,,75,92
165120,note_off,,,,,384,0,3,,,,,2,,,70,0
165120,note_on,,,,,0,0,2,,,,,1,,,67,75
165120,note_on,,,,,0,0,4,,,,,3,,,67,92
165120,note_off,,,,,384,0,1,,,,,0,,,70,0
165120,note_on,,,,,0,0,1,,,,,0,,,75,75
165120,note_on,,,,,0,0,5,,,,,4,,,63,75
165120,note_off,,,,,192,0,5,,,,,4,,,62,0
165120,note_on,,,,,96,0,9,,,,,8,,,46,37
165312,note_off,,,,,192,0,1,,,,,0,,,75,0
165312,note_on,,,,,0,0,3,,,,,2,,,79,92
165312,note_off,,,,,192,0,3,,,,,2,,,75,0
165312,note_off,,,,,192,0,2,,,,,1,,,67,0
165312,note_on,,,,,0,0,1,,,,,0,,,79,75
165312,note_off,,,,,192,0,4,,,,,3,,,67,0
165312,note_on,,,,,0,0,4,,,,,3,,,70,92
165312,note_on,,,,,0,0,2,,,,,1,,,70,75
165440,note_off,,,,,320,0,8,,,,,7,,,67,0
165440,note_off,,,,,0,0,8,,,,,7,,,57,0
165440,note_off,,,,,0,0,8,,,,,7,,,60,0
165504,note_off,,,,,192,0,4,,,,,3,,,70,0
165504,note_on,,,,,64,0,8,,,,,7,,,65,37
165504,note_on,,,,,0,0,2,,,,,1,,,63,75
165504,note_off,,,,,192,0,2,,,,,1,,,70,0
165504,note_on,,,,,0,0,3,,,,,2,,,70,92
165504,note_off,,,,,192,0,3,,,,,2,,,79,0
165504,note_on,,,,,0,0,4,,,,,3,,,63,92
165504,note_off,,,,,192,0,1,,,,,0,,,79,0
165504,note_on,,,,,0,0,1,,,,,0,,,70,75
165696,note_on,,,,,0,0,5,,,,,4,,,67,75
165696,note_off,,,,,576,0,5,,,,,4,,,63,0
165792,note_off,,,,,672,0,7,,,,,6,,,46,0
165792,note_off,,,,,672,0,9,,,,,8,,,46,0
165824,note_off,,,,,320,0,8,,,,,7,,,65,0
165888,note_on,,,,,96,0,9,,,,,8,,,48,37
165888,note_off,,,,,384,0,4,,,,,3,,,63,0
165888,note_on,,,,,0,0,6,,,,,5,,,58,75
165888,note_on,,,,,0,0,4,,,,,3,,,65,92
165888,note_off,,,,,768,0,6,,,,,5,,,58,0
165888,note_on,,,,,64,0,8,,,,,7,,,55,37
165888,note_off,,,,,192,0,5,,,,,4,,,67,0
165888,note_on,,,,,0,0,8,,,,,7,,,64,37
165888,note_on,,,,,0,0,2,,,,,1,,,65,75
165888,note_off,,,,,384,0,1,,,,,0,,,70,0
165888,note_off,,,,,384,0,3,,,,,2,,,70,0
165888,note_on,,,,,0,0,3,,,,,2,,,74,92
165888,note_on,,,,,0,0,8,,,,,7,,,60,37
165888,note_off,,,,,384,0,2,,,,,1,,,63,0
165888,note_on,,,,,0,0,5,,,,,4,,,70,75
165888,note_on,,,,,0,0,1,,,,,0,,,74,75
165888,note_on,,,,,96,0,7,,,,,6,,,46,63
166080,note_on,,,,,0,0,1,,,,,0,,,77,75
166080,note_on,,,,,0,0,3,,,,,2,,,77,92
166080,note_off,,,,,192,0,3,,,,,2,,,74,0
166080,note_off,,,,,192,0,1,,,,,0,,,74,0
166272,note_off,,,,,192,0,1,,,,,0,,,77,0
166272,note_on,,,,,0,0,3,,,,,2,,,82,92
166272,note_off,,,,,192,0,3,,,,,2,,,77,0
166272,note_on,,,,,0,0,1,,,,,0,,,82,75
166464,note_off,,,,,576,0,2,,,,,1,,,65,0
166464,note_on,,,,,0,0,2,,,,,1,,,62,75
166464,note_on,,,,,0,0,4,,,,,3,,,62,92
166464,note_off,,,,,576,0,4,,,,,3,,,65,0
166560,note_off,,,,,0,0,8,,,,,7,,,64,0
166560,note_off,,,,,672,0,9,,,,,8,,,48,0
166560,note_off,,,,,672,0,8,,,,,7,,,55,0
166560,note_off,,,,,0,0,8,,,,,7,,,60,0
166560,note_off,,,,,672,0,7,,,,,6,,,46,0
166656,note_off,,,,,768,0,6,,,,,5,,,58,0
166656,note_on,,,,,0,0,6,,,,,5,,,50,75
166656,note_off,,,,,192,0,2,,,,,1,,,62,0
166656,note_on,,,,,0,0,8,,,,,7,,,60,37
166656,note_on,,,,,0,0,8,,,,,7,,,67,37
166656,note_on,,,,,96,0,7,,,,,6,,,38,63
166656,note_off,,,,,192,0,4,,,,,3,,,62,0
166656,note_on,,,,,0,0,4,,,,,3,,,70,92
166656,note_on,,,,,96,0,8,,,,,7,,,58,37
166656,note_on,,,,,96,0,9,,,,,8,,,48,37
166656,note_on,,,,,0,0,2,,,,,1,,,70,75
166656,note_on,,,,,0,0,5,,,,,4,,,65,75
166656,note_off,,,,,768,0,5,,,,,4,,,70,0
166848,note_on,,,,,0,0,3,,,,,2,,,80,92
166848,note_off,,,,,576,0,3,,,,,2,,,82,0
166848,note_on,,,,,0,0,1,,,,,0,,,80,75
166848,note_off,,,,,576,0,1,,,,,0,,,82,0
167040,note_off,,,,,192,0,1,,,,,0,,,80,0
167040,note_off,,,,,192,0,3,,,,,2,,,80,0
167040,note_on,,,,,0,0,3,,,,,2,,,79,92
167040,note_on,,,,,0,0,1,,,,,0,,,79,75
167232,note_off,,,,,192,0,1,,,,,0,,,79,0
167232,note_on,,,,,0,0,1,,,,,0,,,77,75
167232,note_off,,,,,192,0,3,,,,,2,,,79,0
167232,note_on,,,,,0,0,3,,,,,2,,,77,92
167232,note_on,,,,,0,0,2,,,,,1,,,69,75
167232,note_off,,,,,576,0,2,,,,,1,,,70,0
167232,note_off,,,,,576,0,4,,,,,3,,,70,0
167232,note_on,,,,,0,0,4,,,,,3,,,69,92
167328,note_off,,,,,672,0,8,,,,,7,,,58,0
167328,note_off,,,,,672,0,7,,,,,6,,,38,0
167328,note_off,,,,,672,0,9,,,,,8,,,48,0
167328,note_off,,,,,0,0,8,,,,,7,,,60,0
167424,note_on,,,,,0,0,8,,,,,7,,,60,37
167424,note_on,,,,,96,0,8,,,,,7,,,57,37
167424,note_off,,,,,192,0,1,,,,,0,,,77,0
167424,note_on,,,,,0,0,6,,,,,5,,,51,75
167424,note_off,,,,,192,0,3,,,,,2,,,77,0
167424,note_on,,,,,0,0,3,,,,,2,,,75,92
167424,note_on,,,,,96,0,7,,,,,6,,,39,63
167424,note_off,,,,,768,0,6,,,,,5,,,50,0
167424,note_on,,,,,0,0,4,,,,,3,,,67,92
167424,note_off,,,,,192,0,4,,,,,3,,,69,0
167424,note_on,,,,,96,0,9,,,,,8,,,48,37
167424,note_on,,,,,0,0,1,,,,,0,,,75,75
167424,note_off,,,,,768,0,5,,,,,4,,,65,0
167424,note_on,,,,,0,0,5,,,,,4,,,67,75
167424,note_off,,,,,192,0,2,,,,,1,,,69,0
167424,note_on,,,,,0,0,2,,,,,1,,,67,75
167616,note_on,,,,,0,0,3,,,,,2,,,74,92
167616,note_off,,,,,192,0,3,,,,,2,,,75,0
167616,note_off,,,,,192,0,1,,,,,0,,,75,0
167616,note_off,,,,,192,0,2,,,,,1,,,67,0
167616,note_on,,,,,0,0,4,,,,,3,,,65,92
167616,note_off,,,,,192,0,4,,,,,3,,,67,0
167616,note_on,,,,,0,0,2,,,,,1,,,65,75
167616,note_on,,,,,0,0,1,,,,,0,,,74,75
167744,note_off,,,,,320,0,8,,,,,7,,,67,0
167808,note_off,,,,,192,0,4,,,,,3,,,65,0
167808,note_on,,,,,0,0,4,,,,,3,,,63,92
167808,note_on,,,,,0,0,3,,,,,2,,,72,92
167808,note_off,,,,,192,0,3,,,,,2,,,74,0
167808,note_on,,,,,64,0,8,,,,,7,,,65,37
167808,note_on,,,,,0,0,1,,,,,0,,,72,75
167808,note_off,,,,,192,0,2,,,,,1,,,65,0
167808,note_on,,,,,0,0,2,,,,,1,,,63,75
167808,note_off,,,,,192,0,1,,,,,0,,,74,0
168000,note_on,,,,,0,0,2,,,,,1,,,62,75
168000,note_off,,,,,192,0,1,,,,,0,,,72,0
168000,note_off,,,,,192,0,2,,,,,1,,,63,0
168000,note_off,,,,,192,0,3,,,,,2,,,72,0
168000,note_on,,,,,0,0,3,,,,,2,,,70,92
168000,note_off,,,,,192,0,4,,,,,3,,,63,0
168000,note_on,,,,,0,0,1,,,,,0,,,70,75
168000,note_on,,,,,0,0,4,,,,,3,,,62,92
168096,note_off,,,,,672,0,9,,,,,8,,,48,0
168096,note_off,,,,,672,0,7,,,,,6,,,39,0
168096,note_off,,,,,288,0,8,,,,,7,,,57,0
168096,note_off,,,,,0,0,8,,,,,7,,,60,0
168128,note_off,,,,,32,0,8,,,,,7,,,65,0
168192,note_on,,,,,0,0,5,,,,,4,,,69,75
168192,note_off,,,,,768,0,5,,,,,4,,,67,0
168192,note_on,,,,,96,0,9,,,,,8,,,48,37
168192,note_on,,,,,0,0,8,,,,,7,,,64,37
168192,note_on,,,,,64,0,8,,,,,7,,,55,37
168192,note_off,,,,,192,0,2,,,,,1,,,62,0
168192,note_off,,,,,768,0,6,,,,,5,,,51,0
168192,note_on,,,,,0,0,6,,,,,5,,,53,75
168192,note_off,,,,,192,0,1,,,,,0,,,70,0
168192,note_on,,,,,0,0,1,,,,,0,,,69,75
168192,note_on,,,,,0,0,8,,,,,7,,,60,37
168192,note_on,,,,,0,0,2,,,,,1,,,60,75
168192,note_on,,,,,96,0,7,,,,,6,,,41,63
168192,note_on,,,,,0,0,3,,,,,2,,,69,92
168192,note_off,,,,,192,0,3,,,,,2,,,70,0
168192,note_on,,,,,0,0,4,,,,,3,,,60,92
168192,note_off,,,,,192,0,4,,,,,3,,,62,0
168384,note_on,,,,,0,0,1,,,,,0,,,72,75
168384,note_off,,,,,192,0,3,,,,,2,,,69,0
168384,note_on,,,,,0,0,3,,,,,2,,,72,92
168384,note_off,,,,,192,0,1,,,,,0,,,69,0
168576,note_off,,,,,192,0,3,,,,,2,,,72,0
168576,note_off,,,,,192,0,1,,,,,0,,,72,0
168576,note_on,,,,,0,0,3,,,,,2,,,65,92
168576,note_on,,,,,0,0,1,,,,,0,,,65,75
168768,note_off,,,,,576,0,4,,,,,3,,,60,0
168768,note_on,,,,,0,0,2,,,,,1,,,72,75
168768,note_off,,,,,576,0,2,,,,,1,,,60,0
168768,note_on,,,,,0,0,4,,,,,3,,,72,92
168864,note_off,,,,,0,0,8,,,,,7,,,64,0
168864,note_off,,,,,672,0,9,,,,,8,,,48,0
168864,note_off,,,,,672,0,7,,,,,6,,,41,0
168864,note_off,,,,,672,0,8,,,,,7,,,55,0
168864,note_off,,,,,0,0,8,,,,,7,,,60,0
168960,note_on,,,,,96,0,8,,,,,7,,,58,37
168960,note_on,,,,,0,0,8,,,,,7,,,60,37
168960,note_on,,,,,0,0,8,,,,,7,,,67,37
168960,note_off,,,,,192,0,4,,,,,3,,,72,0
168960,note_on,,,,,0,0,4,,,,,3,,,69,92
168960,note_on,,,,,96,0,7,,,,,6,,,33,63
168960,note_on,,,,,0,0,2,,,,,1,,,69,75
168960,note_off,,,,,768,0,5,,,,,4,,,69,0
168960,note_on,,,,,0,0,5,,,,,4,,,65,75
168960,note_on,,,,,96,0,9,,,,,8,,,48,37
168960,note_off,,,,,192,0,2,,,,,1,,,72,0
168960,note_off,,,,,768,0,6,,,,,5,,,53,0
168960,note_on,,,,,0,0,6,,,,,5,,,45,75
169152,note_on,,,,,0,0,1,,,,,0,,,75,75
169152,note_off,,,,,576,0,1,,,,,0,,,65,0
169152,note_on,,,,,0,0,3,,,,,2,,,75,92
169152,note_off,,,,,576,0,3,,,,,2,,,65,0
169344,note_on,,,,,0,0,1,,,,,0,,,72,75
169344,note_off,,,,,192,0,1,,,,,0,,,75,0
169344,note_off,,,,,192,0,3,,,,,2,,,75,0
169344,note_on,,,,,0,0,3,,,,,2,,,72,92
169536,note_off,,,,,576,0,4,,,,,3,,,69,0
169536,note_on,,,,,0,0,4,,,,,3,,,72,92
169536,note_on,,,,,0,0,2,,,,,1,,,72,75
169536,note_off,,,,,576,0,2,,,,,1,,,69,0
169632,note_off,,,,,672,0,7,,,,,6,,,33,0
169632,note_off,,,,,672,0,8,,,,,7,,,58,0
169632,note_off,,,,,0,0,8,,,,,7,,,60,0
169632,note_off,,,,,672,0,9,,,,,8,,,48,0
169728,note_on,,,,,0,0,5,,,,,4,,,62,75
169728,note_on,,,,,96,0,9,,,,,8,,,48,37
169728,note_off,,,,,192,0,4,,,,,3,,,72,0
169728,note_off,,,,,192,0,2,,,,,1,,,72,0
169728,note_on,,,,,0,0,2,,,,,1,,,65,75
169728,note_on,,,,,96,0,8,,,,,7,,,57,37
169728,note_off,,,,,768,0,5,,,,,4,,,65,0
169728,note_on,,,,,0,0,8,,,,,7,,,60,37
169728,note_on,,,,,0,0,4,,,,,3,,,65,92
169728,note_on,,,,,0,0,6,,,,,5,,,46,75
169728,note_off,,,,,768,0,6,,,,,5,,,45,0
169728,note_on,,,,,96,0,7,,,,,6,,,34,63
169920,note_on,,,,,0,0,3,,,,,2,,,74,92
169920,note_off,,,,,576,0,1,,,,,0,,,72,0
169920,note_on,,,,,0,0,1,,,,,0,,,74,75
169920,note_off,,,,,576,0,3,,,,,2,,,72,0
170048,note_off,,,,,320,0,8,,,,,7,,,67,0
170112,note_off,,,,,192,0,1,,,,,0,,,74,0
170112,note_on,,,,,0,0,1,,,,,0,,,70,75
170112,note_on,,,,,0,0,3,,,,,2,,,70,92
170112,note_off,,,,,192,0,3,,,,,2,,,74,0
170112,note_on,,,,,64,0,8,,,,,7,,,65,37
170304,note_off,,,,,192,0,1,,,,,0,,,70,0
170304,note_on,,,,,0,0,1,,,,,0,,,67,75
170304,note_on,,,,,0,0,3,,,,,2,,,67,92
170304,note_off,,,,,576,0,2,,,,,1,,,65,0
170304,note_on,,,,,0,0,2,,,,,1,,,58,75
170304,note_off,,,,,192,0,3,,,,,2,,,70,0
170304,note_off,,,,,576,0,4,,,,,3,,,65,0
170304,note_on,,,,,0,0,4,,,,,3,,,58,92
170400,note_off,,,,,0,0,8,,,,,7,,,60,0
170400,note_off,,,,,288,0,8,,,,,7,,,57,0
170400,note_off,,,,,672,0,9,,,,,8,,,48,0
170400,note_off,,,,,672,0,7,,,,,6,,,34,0
170432,note_off,,,,,32,0,8,,,,,7,,,65,0
170496,note_on,,,,,0,0,3,,,,,2,,,69,92
170496,note_off,,,,,192,0,3,,,,,2,,,67,0
170496,note_on,,,,,0,0,8,,,,,7,,,64,37
170496,note_on,,,,,0,0,8,,,,,7,,,60,37
170496,note_on,,,,,0,0,4,,,,,3,,,60,92
170496,note_on,,,,,64,0,8,,,,,7,,,55,37
170496,note_off,,,,,192,0,4,,,,,3,,,58,0
170496,note_on,,,,,0,0,5,,,,,4,,,69,75
170496,note_on,,,,,0,0,1,,,,,0,,,69,75
170496,note_on,,,,,96,0,9,,,,,8,,,48,37
170496,note_on,,,,,96,0,7,,,,,6,,,29,63
170496,note_off,,,,,768,0,6,,,,,5,,,46,0
170496,note_on,,,,,0,0,6,,,,,5,,,41,75
170496,note_off,,,,,192,0,2,,,,,1,,,58,0
170496,note_on,,,,,0,0,2,,,,,1,,,60,75
170496,note_off,,,,,768,0,5,,,,,4,,,62,0
170496,note_off,,,,,192,0,1,,,,,0,,,67,0
170688,note_off,,,,,192,0,1,,,,,0,,,69,0
170688,note_off,,,,,192,0,3,,,,,2,,,69,0
170688,note_on,,,,,0,0,3,,,,,2,,,72,92
170688,note_on,,,,,0,0,1,,,,,0,,,72,75
170880,note_on,,,,,0,0,3,,,,,2,,,65,92
170880,note_on,,,,,0,0,1,,,,,0,,,65,75
170880,note_off,,,,,192,0,1,,,,,0,,,72,0
170880,note_off,,,,,192,0,3,,,,,2,,,72,0
171072,note_on,,,,,0,0,4,,,,,3,,,72,92
171072,note_on,,,,,0,0,2,,,,,1,,,72,75
171072,note_off,,,,,576,0,4,,,,,3,,,60,0
171072,note_off,,,,,576,0,2,,,,,1,,,60,0
171168,note_off,,,,,0,0,8,,,,,7,,,64,0
171168,note_off,,,,,672,0,9,,,,,8,,,48,0
171168,note_off,,,,,672,0,7,,,,,6,,,29,0
171168,note_off,,,,,672,0,8,,,,,7,,,55,0
171168,note_off,,,,,0,0,8,,,,,7,,,60,0
171264,note_off,,,,,192,0,2,,,,,1,,,72,0
171264,note_off,,,,,192,0,4,,,,,3,,,72,0
171264,note_on,,,,,0,0,8,,,,,7,,,67,37
171264,note_on,,,,,96,0,9,,,,,8,,,60,37
171264,note_on,,,,,0,0,4,,,,,3,,,69,92
171264,note_off,,,,,768,0,5,,,,,4,,,69,0
171264,note_on,,,,,0,0,5,,,,,4,,,65,75
171264,note_on,,,,,96,0,7,,,,,6,,,45,63
171264,note_on,,,,,0,0,2,,,,,1,,,69,75
171264,note_on,,,,,96,0,8,,,,,7,,,64,37
171264,note_off,,,,,768,0,6,,,,,5,,,41,0
171264,note_on,,,,,0,0,6,,,,,5,,,57,75
171456,note_on,,,,,0,0,3,,,,,2,,,75,92
171456,note_on,,,,,0,0,1,,,,,0,,,75,75
171456,note_off,,,,,576,0,1,,,,,0,,,65,0
171456,note_off,,,,,576,0,3,,,,,2,,,65,0
171648,note_on,,,,,0,0,1,,,,,0,,,72,75
171648,note_on,,,,,0,0,3,,,,,2,,,72,92
171648,note_off,,,,,192,0,3,,,,,2,,,75,0
171648,note_off,,,,,192,0,1,,,,,0,,,75,0
171840,note_on,,,,,0,0,2,,,,,1,,,72,75
171840,note_on,,,,,0,0,4,,,,,3,,,72,92
171840,note_off,,,,,576,0,4,,,,,3,,,69,0
171840,note_off,,,,,576,0,2,,,,,1,,,69,0
171936,note_off,,,,,672,0,7,,,,,6,,,45,0
171936,note_off,,,,,672,0,8,,,,,7,,,64,0
171936,note_off,,,,,672,0,9,,,,,8,,,60,0
171936,note_off,,,,,0,0,8,,,,,7,,,67,0
172032,note_off,,,,,192,0,2,,,,,1,,,72,0
172032,note_on,,,,,96,0,7,,,,,6,,,46,63
172032,note_on,,,,,0,0,6,,,,,5,,,58,75
172032,note_off,,,,,768,0,6,,,,,5,,,57,0
172032,note_off,,,,,192,0,4,,,,,3,,,72,0
172032,note_on,,,,,0,0,4,,,,,3,,,65,92
172032,note_off,,,,,768,0,5,,,,,4,,,65,0
172032,note_on,,,,,0,0,8,,,,,7,,,67,37
172032,note_on,,,,,96,0,9,,,,,8,,,58,37
172032,note_on,,,,,0,0,5,,,,,4,,,62,75
172032,note_on,,,,,0,0,8,,,,,7,,,64,37
172032,note_on,,,,,96,0,8,,,,,7,,,60,37
172032,note_on,,,,,0,0,2,,,,,1,,,65,75
172224,note_off,,,,,576,0,3,,,,,2,,,72,0
172224,note_on,,,,,0,0,3,,,,,2,,,74,92
172224,note_on,,,,,0,0,1,,,,,0,,,74,75
172224,note_off,,,,,576,0,1,,,,,0,,,72,0
172416,note_off,,,,,192,0,1,,,,,0,,,74,0
172416,note_on,,,,,0,0,3,,,,,2,,,70,92
172416,note_off,,,,,192,0,3,,,,,2,,,74,0
172416,note_on,,,,,0,0,1,,,,,0,,,70,75
172608,note_on,,,,,0,0,3,,,,,2,,,65,92
172608,note_off,,,,,192,0,3,,,,,2,,,70,0
172608,note_on,,,,,0,0,1,,,,,0,,,65,75
172608,note_off,,,,,192,0,1,,,,,0,,,70,0
172608,note_on,,,,,0,0,2,,,,,1,,,58,75
172608,note_off,,,,,576,0,2,,,,,1,,,65,0
172608,note_off,,,,,576,0,4,,,,,3,,,65,0
172608,note_on,,,,,0,0,4,,,,,3,,,58,92
172704,note_off,,,,,672,0,7,,,,,6,,,46,0
172704,note_off,,,,,0,0,8,,,,,7,,,67,0
172704,note_off,,,,,0,0,8,,,,,7,,,64,0
172704,note_off,,,,,672,0,9,,,,,8,,,58,0
172704,note_off,,,,,672,0,8,,,,,7,,,60,0
172800,note_on,,,,,0,0,1,,,,,0,,,75,75
172800,note_off,,,,,768,0,6,,,,,5,,,58,0
172800,note_off,,,,,192,0,3,,,,,2,,,65,0
172800,note_on,,,,,0,0,3,,,,,2,,,75,92
172800,note_on,,,,,96,0,7,,,,,6,,,48,63
172800,note_on,,,,,0,0,2,,,,,1,,,67,75
172800,note_off,,,,,192,0,2,,,,,1,,,58,0
172800,note_off,,,,,192,0,4,,,,,3,,,58,0
172800,note_on,,,,,0,0,4,,,,,3,,,67,92
172800,note_off,,,,,192,0,1,,,,,0,,,65,0
172800,note_on,,,,,0,0,6,,,,,5,,,60,75
172800,note_on,,,,,0,0,5,,,,,4,,,60,75
172800,note_on,,,,,96,0,8,,,,,7,,,60,37
172800,note_off,,,,,768,0,5,,,,,4,,,62,0
172800,note_on,,,,,0,0,8,,,,,7,,,65,37
172800,note_on,,,,,96,0,9,,,,,8,,,57,37
172992,note_off,,,,,192,0,3,,,,,2,,,75,0
172992,note_on,,,,,0,0,1,,,,,0,,,72,75
172992,note_on,,,,,0,0,3,,,,,2,,,72,92
172992,note_off,,,,,192,0,1,,,,,0,,,75,0
173184,note_off,,,,,192,0,1,,,,,0,,,72,0
173184,note_on,,,,,0,0,3,,,,,2,,,84,92
173184,note_off,,,,,192,0,3,,,,,2,,,72,0
173184,note_on,,,,,0,0,1,,,,,0,,,84,75
173376,note_off,,,,,576,0,2,,,,,1,,,67,0
173376,note_on,,,,,0,0,2,,,,,1,,,75,75
173376,note_off,,,,,576,0,4,,,,,3,,,67,0
173376,note_on,,,,,0,0,4,,,,,3,,,75,92
173472,note_off,,,,,672,0,8,,,,,7,,,60,0
173472,note_off,,,,,0,0,8,,,,,7,,,65,0
173472,note_off,,,,,672,0,7,,,,,6,,,48,0
173472,note_off,,,,,672,0,9,,,,,8,,,57,0
173568,note_on,,,,,96,0,8,,,,,7,,,62,37
173568,note_on,,,,,96,0,7,,,,,6,,,41,63
173568,note_on,,,,,0,0,4,,,,,3,,,69,92
173568,note_on,,,,,0,0,8,,,,,7,,,67,37
173568,note_off,,,,,192,0,4,,,,,3,,,75,0
173568,note_on,,,,,0,0,5,,,,,4,,,72,75
173568,note_off,,,,,192,0,2,,,,,1,,,75,0
173568,note_on,,,,,0,0,2,,,,,1,,,69,75
173568,note_on,,,,,0,0,8,,,,,7,,,70,37
173568,note_on,,,,,0,0,6,,,,,5,,,53,75
173568,note_off,,,,,768,0,6,,,,,5,,,60,0
173568,note_off,,,,,768,0,5,,,,,4,,,60,0
173568,note_on,,,,,96,0,9,,,,,8,,,55,37
173760,note_on,,,,,0,0,1,,,,,0,,,82,75
173760,note_on,,,,,0,0,3,,,,,2,,,82,92
173760,note_off,,,,,576,0,1,,,,,0,,,84,0
173760,note_off,,,,,576,0,3,,,,,2,,,84,0
173952,note_on,,,,,0,0,3,,,,,2,,,81,92
173952,note_off,,,,,192,0,1,,,,,0,,,82,0
173952,note_on,,,,,0,0,1,,,,,0,,,81,75
173952,note_off,,,,,192,0,3,,,,,2,,,82,0
174144,note_off,,,,,576,0,2,,,,,1,,,69,0
174144,note_on,,,,,0,0,4,,,,,3,,,70,92
174144,note_on,,,,,0,0,1,,,,,0,,,79,75
174144,note_off,,,,,192,0,1,,,,,0,,,81,0
174144,note_off,,,,,576,0,4,,,,,3,,,69,0
174144,note_on,,,,,0,0,2,,,,,1,,,70,75
174144,note_on,,,,,0,0,3,,,,,2,,,79,92
174144,note_off,,,,,192,0,3,,,,,2,,,81,0
174240,note_off,,,,,672,0,7,,,,,6,,,41,0
174240,note_off,,,,,0,0,8,,,,,7,,,70,0
174240,note_off,,,,,0,0,8,,,,,7,,,67,0
174240,note_off,,,,,672,0,8,,,,,7,,,62,0
174240,note_off,,,,,672,0,9,,,,,8,,,55,0
174336,note_off,,,,,192,0,3,,,,,2,,,79,0
174336,note_on,,,,,0,0,3,,,,,2,,,77,92
174336,note_on,,,,,96,0,9,,,,,8,,,48,37
174336,note_on,,,,,0,0,6,,,,,5,,,57,75
174336,note_off,,,,,768,0,6,,,,,5,,,53,0
174336,note_on,,,,,0,0,8,,,,,7,,,72,37
174336,note_off,,,,,192,0,4,,,,,3,,,70,0
174336,note_on,,,,,0,0,4,,,,,3,,,72,92
174336,note_on,,,,,96,0,7,,,,,6,,,45,63
174336,note_on,,,,,0,0,8,,,,,7,,,67,37
174336,note_off,,,,,192,0,1,,,,,0,,,79,0
174336,note_off,,,,,192,0,2,,,,,1,,,70,0
174336,note_on,,,,,0,0,1,,,,,0,,,77,75
174336,note_on,,,,,0,0,2,,,,,1,,,72,75
174336,note_on,,,,,96,0,8,,,,,7,,,64,37
174528,note_off,,,,,192,0,3,,,,,2,,,77,0
174528,note_off,,,,,192,0,1,,,,,0,,,77,0
174528,note_on,,,,,0,0,3,,,,,2,,,75,92
174528,note_on,,,,,0,0,1,,,,,0,,,75,75
174720,note_off,,,,,192,0,3,,,,,2,,,75,0
174720,note_off,,,,,384,0,2,,,,,1,,,72,0
174720,note_on,,,,,0,0,5,,,,,4,,,69,75
174720,note_off,,,,,1152,0,5,,,,,4,,,72,0
174720,note_on,,,,,0,0,2,,,,,1,,,77,75
174720,note_off,,,,,384,0,4,,,,,3,,,72,0
174720,note_on,,,,,0,0,3,,,,,2,,,74,92
174720,note_off,,,,,192,0,1,,,,,0,,,75,0
174720,note_on,,,,,0,0,1,,,,,0,,,74,75
174720,note_on,,,,,0,0,4,,,,,3,,,77,92
174912,note_on,,,,,0,0,1,,,,,0,,,72,75
174912,note_off,,,,,192,0,3,,,,,2,,,74,0
174912,note_off,,,,,192,0,1,,,,,0,,,74,0
174912,note_on,,,,,0,0,3,,,,,2,,,72,92
175008,note_off,,,,,0,0,8,,,,,7,,,72,0
175008,note_off,,,,,672,0,8,,,,,7,,,64,0
175008,note_off,,,,,672,0,7,,,,,6,,,45,0
175008,note_off,,,,,0,0,8,,,,,7,,,67,0
175008,note_off,,,,,672,0,9,,,,,8,,,48,0
175104,note_on,,,,,96,0,8,,,,,7,,,65,37
175104,note_on,,,,,96,0,7,,,,,6,,,46,63
175104,note_on,,,,,0,0,8,,,,,7,,,72,37
175104,note_on,,,,,0,0,6,,,,,5,,,58,75
175104,note_off,,,,,384,0,5,,,,,4,,,69,0
175104,note_on,,,,,0,0,5,,,,,4,,,65,75
175104,note_off,,,,,768,0,6,,,,,5,,,57,0
175104,note_on,,,,,0,0,1,,,,,0,,,74,75
175104,note_on,,,,,96,0,9,,,,,8,,,53,37
175104,note_on,,,,,0,0,8,,,,,7,,,69,37
175104,note_off,,,,,192,0,1,,,,,0,,,72,0
175104,note_on,,,,,0,0,3,,,,,2,,,74,92
175104,note_off,,,,,192,0,3,,,,,2,,,72,0
175296,note_off,,,,,192,0,1,,,,,0,,,74,0
175296,note_on,,,,,0,0,1,,,,,0,,,70,75
175296,note_off,,,,,192,0,3,,,,,2,,,74,0
175296,note_on,,,,,0,0,3,,,,,2,,,70,92
175424,note_off,,,,,320,0,9,,,,,8,,,53,0
175424,note_off,,,,,320,0,8,,,,,7,,,69,0
175424,note_off,,,,,0,0,8,,,,,7,,,72,0
175424,note_off,,,,,320,0,7,,,,,6,,,46,0
175488,note_off,,,,,384,0,5,,,,,4,,,65,0
175488,note_on,,,,,0,0,5,,,,,4,,,67,75
175488,note_on,,,,,0,0,2,,,,,1,,,75,75
175488,note_on,,,,,64,0,9,,,,,8,,,50,37
175488,note_on,,,,,0,0,4,,,,,3,,,75,92
175488,note_off,,,,,768,0,4,,,,,3,,,77,0
175488,note_on,,,,,64,0,8,,,,,7,,,70,37
175488,note_off,,,,,768,0,2,,,,,1,,,77,0
175488,note_off,,,,,384,0,6,,,,,5,,,58,0
175488,note_on,,,,,0,0,1,,,,,0,,,72,75
175488,note_off,,,,,192,0,1,,,,,0,,,70,0
175488,note_on,,,,,0,0,6,,,,,5,,,51,75
175488,note_on,,,,,0,0,3,,,,,2,,,72,92
175488,note_off,,,,,192,0,3,,,,,2,,,70,0
175488,note_on,,,,,64,0,7,,,,,6,,,39,63
175680,note_on,,,,,0,0,3,,,,,2,,,67,92
175680,note_off,,,,,192,0,3,,,,,2,,,72,0
175680,note_off,,,,,192,0,2,,,,,1,,,75,0
175680,note_on,,,,,0,0,2,,,,,1,,,74,75
175680,note_on,,,,,0,0,1,,,,,0,,,67,75
175680,note_off,,,,,192,0,1,,,,,0,,,72,0
175680,note_off,,,,,192,0,4,,,,,3,,,75,0
175680,note_on,,,,,0,0,4,,,,,3,,,74,92
175808,note_off,,,,,320,0,7,,,,,6,,,39,0
175808,note_off,,,,,320,0,9,,,,,8,,,50,0
175808,note_off,,,,,320,0,8,,,,,7,,,65,0
175872,note_on,,,,,64,0,7,,,,,6,,,41,63
175872,note_off,,,,,192,0,4,,,,,3,,,74,0
175872,note_off,,,,,192,0,3,,,,,2,,,67,0
175872,note_on,,,,,0,0,3,,,,,2,,,69,92
175872,note_on,,,,,64,0,9,,,,,8,,,55,37
175872,note_on,,,,,0,0,4,,,,,3,,,72,92
175872,note_off,,,,,384,0,6,,,,,5,,,51,0
175872,note_on,,,,,0,0,1,,,,,0,,,69,75
175872,note_off,,,,,384,0,5,,,,,4,,,67,0
175872,note_off,,,,,192,0,2,,,,,1,,,74,0
175872,note_on,,,,,0,0,2,,,,,1,,,72,75
175872,note_on,,,,,0,0,5,,,,,4,,,60,75
175872,note_off,,,,,192,0,1,,,,,0,,,67,0
175872,note_on,,,,,64,0,8,,,,,7,,,62,37
175872,note_on,,,,,0,0,8,,,,,7,,,67,37
175872,note_on,,,,,0,0,6,,,,,5,,,53,75
176064,note_off,,,,,192,0,4,,,,,3,,,72,0
176064,note_on,,,,,0,0,4,,,,,3,,,74,92
176064,note_on,,,,,0,0,2,,,,,1,,,74,75
176064,note_off,,,,,192,0,2,,,,,1,,,72,0
176192,note_off,,,,,320,0,7,,,,,6,,,41,0
176256,note_off,,,,,192,0,4,,,,,3,,,74,0
176256,note_on,,,,,0,0,2,,,,,1,,,75,75
176256,note_off,,,,,192,0,2,,,,,1,,,74,0
176256,note_on,,,,,0,0,4,,,,,3,,,75,92
176256,note_on,,,,,0,0,6,,,,,5,,,65,75
176256,note_off,,,,,384,0,6,,,,,5,,,53,0
176256,note_on,,,,,64,0,7,,,,,6,,,53,63
176448,note_on,,,,,0,0,2,,,,,1,,,72,75
176448,note_off,,,,,192,0,2,,,,,1,,,75,0
176448,note_on,,,,,0,0,4,,,,,3,,,72,92
176448,note_off,,,,,192,0,4,,,,,3,,,75,0
176544,note_off,,,,,672,0,9,,,,,8,,,55,0
176544,note_off,,,,,672,0,8,,,,,7,,,70,0
176544,note_off,,,,,0,0,8,,,,,7,,,62,0
176544,note_off,,,,,0,0,8,,,,,7,,,67,0
176576,note_off,,,,,320,0,7,,,,,6,,,53,0
176640,note_off,,,,,192,0,4,,,,,3,,,72,0
176640,note_on,,,,,0,0,4,,,,,3,,,69,92
176640,note_off,,,,,384,0,6,,,,,5,,,65,0
176640,note_on,,,,,0,0,6,,,,,5,,,63,75
176640,note_on,,,,,0,0,8,,,,,7,,,70,37
176640,note_on,,,,,0,0,8,,,,,7,,,67,37
176640,note_on,,,,,0,0,2,,,,,1,,,69,75
176640,note_off,,,,,192,0,2,,,,,1,,,72,0
176640,note_on,,,,,64,0,7,,,,,6,,,51,63
176640,note_off,,,,,768,0,5,,,,,4,,,60,0
176640,note_on,,,,,0,0,5,,,,,4,,,72,75
176640,note_on,,,,,96,0,9,,,,,8,,,52,37
176640,note_on,,,,,96,0,8,,,,,7,,,60,37
176832,note_off,,,,,192,0,2,,,,,1,,,69,0
176832,note_on,,,,,0,0,2,,,,,1,,,72,75
176832,note_on,,,,,0,0,4,,,,,3,,,72,92
176832,note_off,,,,,192,0,4,,,,,3,,,69,0
176960,note_off,,,,,320,0,7,,,,,6,,,51,0
177024,note_off,,,,,1152,0,1,,,,,0,,,69,0
177024,note_on,,,,,0,0,2,,,,,1,,,65,75
177024,note_off,,,,,192,0,2,,,,,1,,,72,0
177024,note_on,,,,,0,0,6,,,,,5,,,65,75
177024,note_off,,,,,384,0,6,,,,,5,,,63,0
177024,note_off,,,,,1152,0,3,,,,,2,,,69,0
177024,note_on,,,,,0,0,4,,,,,3,,,65,92
177024,note_off,,,,,192,0,4,,,,,3,,,72,0
177024,note_on,,,,,64,0,7,,,,,6,,,53,63
177216,note_on,,,,,192,0,1,,,,,0,,,81,75
177216,note_on,,,,,192,0,3,,,,,2,,,81,92
177312,note_off,,,,,672,0,9,,,,,8,,,52,0
177312,note_off,,,,,0,0,8,,,,,7,,,70,0
177312,note_off,,,,,672,0,8,,,,,7,,,60,0
177312,note_off,,,,,0,0,8,,,,,7,,,67,0
177344,note_off,,,,,320,0,7,,,,,6,,,53,0
177408,note_off,,,,,384,0,4,,,,,3,,,65,0
177408,note_off,,,,,384,0,2,,,,,1,,,65,0
177408,note_on,,,,,0,0,2,,,,,1,,,77,75
177408,note_on,,,,,0,0,6,,,,,5,,,62,75
177408,note_on,,,,,96,0,9,,,,,8,,,53,37
177408,note_on,,,,,0,0,8,,,,,7,,,65,37
177408,note_on,,,,,64,0,7,,,,,6,,,50,63
177408,note_off,,,,,192,0,1,,,,,0,,,81,0
177408,note_on,,,,,0,0,1,,,,,0,,,82,75
177408,note_on,,,,,0,0,3,,,,,2,,,82,92
177408,note_off,,,,,192,0,3,,,,,2,,,81,0
177408,note_off,,,,,384,0,6,,,,,5,,,65,0
177408,note_on,,,,,96,0,8,,,,,7,,,60,37
177408,note_on,,,,,0,0,4,,,,,3,,,77,92
177408,note_on,,,,,0,0,8,,,,,7,,,69,37
177408,note_off,,,,,768,0,5,,,,,4,,,72,0
177408,note_on,,,,,0,0,5,,,,,4,,,74,75
177600,note_on,,,,,0,0,1,,,,,0,,,77,75
177600,note_off,,,,,192,0,1,,,,,0,,,82,0
177600,note_off,,,,,192,0,3,,,,,2,,,82,0
177600,note_on,,,,,0,0,3,,,,,2,,,77,92
177728,note_off,,,,,320,0,9,,,,,8,,,53,0
177728,note_off,,,,,320,0,8,,,,,7,,,60,0
177728,note_off,,,,,0,0,8,,,,,7,,,65,0
177728,note_off,,,,,0,0,8,,,,,7,,,69,0
177792,note_on,,,,,0,0,1,,,,,0,,,74,75
177792,note_on,,,,,0,0,8,,,,,7,,,67,37
177792,note_on,,,,,64,0,8,,,,,7,,,62,37
177792,note_on,,,,,0,0,8,,,,,7,,,70,37
177792,note_on,,,,,0,0,3,,,,,2,,,74,92
177792,note_off,,,,,192,0,1,,,,,0,,,77,0
177792,note_on,,,,,64,0,9,,,,,8,,,46,37
177792,note_off,,,,,192,0,3,,,,,2,,,77,0
177984,note_on,,,,,0,0,4,,,,,3,,,74,92
177984,note_off,,,,,576,0,4,,,,,3,,,77,0
177984,note_off,,,,,576,0,2,,,,,1,,,77,0
177984,note_on,,,,,0,0,2,,,,,1,,,74,75
178080,note_off,,,,,672,0,7,,,,,6,,,50,0
178112,note_off,,,,,0,0,8,,,,,7,,,67,0
178112,note_off,,,,,0,0,8,,,,,7,,,70,0
178112,note_off,,,,,320,0,9,,,,,8,,,46,0
178112,note_off,,,,,320,0,8,,,,,7,,,62,0
178176,note_on,,,,,0,0,4,,,,,3,,,65,92
178176,note_on,,,,,64,0,9,,,,,8,,,48,37
178176,note_on,,,,,96,0,7,,,,,6,,,46,63
178176,note_off,,,,,192,0,2,,,,,1,,,74,0
178176,note_on,,,,,0,0,6,,,,,5,,,58,75
178176,note_off,,,,,768,0,6,,,,,5,,,62,0
178176,note_off,,,,,192,0,4,,,,,3,,,74,0
178176,note_on,,,,,0,0,8,,,,,7,,,67,37
178176,note_on,,,,,64,0,8,,,,,7,,,64,37
178176,note_on,,,,,0,0,5,,,,,4,,,62,75
178176,note_off,,,,,768,0,5,,,,,4,,,74,0
178176,note_on,,,,,0,0,2,,,,,1,,,65,75
178560,note_on,,,,,0,0,1,,,,,0,,,77,75
178560,note_on,,,,,0,0,3,,,,,2,,,77,92
178560,note_off,,,,,768,0,3,,,,,2,,,74,0
178560,note_off,,,,,768,0,1,,,,,0,,,74,0
178752,note_off,,,,,192,0,1,,,,,0,,,77,0
178752,note_off,,,,,576,0,4,,,,,3,,,65,0
178752,note_on,,,,,0,0,4,,,,,3,,,62,92
178752,note_off,,,,,576,0,2,,,,,1,,,65,0
178752,note_on,,,,,0,0,2,,,,,1,,,62,75
178752,note_on,,,,,0,0,3,,,,,2,,,70,92
178752,note_off,,,,,192,0,3,,,,,2,,,77,0
178752,note_on,,,,,0,0,1,,,,,0,,,70,75
178848,note_off,,,,,0,0,8,,,,,7,,,67,0
178848,note_off,,,,,672,0,9,,,,,8,,,48,0
178848,note_off,,,,,672,0,7,,,,,6,,,46,0
178848,note_off,,,,,672,0,8,,,,,7,,,64,0
178944,note_on,,,,,96,0,9,,,,,8,,,36,37
178944,note_off,,,,,768,0,6,,,,,5,,,58,0
178944,note_on,,,,,96,0,8,,,,,7,,,64,37
178944,note_on,,,,,0,0,8,,,,,7,,,67,37
178944,note_on,,,,,0,0,8,,,,,7,,,72,37
178944,note_on,,,,,0,0,6,,,,,5,,,51,75
178944,note_off,,,,,192,0,2,,,,,1,,,62,0
178944,note_on,,,,,96,0,7,,,,,6,,,39,63
178944,note_on,,,,,0,0,5,,,,,4,,,63,75
178944,note_on,,,,,0,0,2,,,,,1,,,58,75
178944,note_off,,,,,768,0,5,,,,,4,,,62,0
178944,note_off,,,,,192,0,4,,,,,3,,,62,0
178944,note_on,,,,,0,0,4,,,,,3,,,58,92
178944,note_on,,,,,0,0,3,,,,,2,,,79,92
178944,note_off,,,,,192,0,3,,,,,2,,,70,0
178944,note_on,,,,,0,0,1,,,,,0,,,79,75
178944,note_off,,,,,192,0,1,,,,,0,,,70,0
179136,note_on,,,,,0,0,4,,,,,3,,,63,92
179136,note_on,,,,,0,0,2,,,,,1,,,63,75
179136,note_off,,,,,192,0,2,,,,,1,,,58,0
179136,note_off,,,,,192,0,4,,,,,3,,,58,0
179328,note_on,,,,,0,0,2,,,,,1,,,67,75
179328,note_off,,,,,192,0,2,,,,,1,,,63,0
179328,note_off,,,,,192,0,4,,,,,3,,,63,0
179328,note_off,,,,,384,0,3,,,,,2,,,79,0
179328,note_on,,,,,0,0,3,,,,,2,,,82,92
179328,note_on,,,,,0,0,4,,,,,3,,,67,92
179328,note_off,,,,,384,0,1,,,,,0,,,79,0
179328,note_on,,,,,0,0,1,,,,,0,,,82,75
179520,note_off,,,,,192,0,1,,,,,0,,,82,0
179520,note_off,,,,,192,0,3,,,,,2,,,82,0
179520,note_on,,,,,0,0,3,,,,,2,,,75,92
179520,note_on,,,,,0,0,1,,,,,0,,,75,75
179616,note_off,,,,,672,0,8,,,,,7,,,64,0
179616,note_off,,,,,0,0,8,,,,,7,,,72,0
179616,note_off,,,,,672,0,7,,,,,6,,,39,0
179616,note_off,,,,,672,0,9,,,,,8,,,36,0
179616,note_off,,,,,0,0,8,,,,,7,,,67,0
179712,note_on,,,,,0,0,1,,,,,0,,,77,75
179712,note_on,,,,,96,0,8,,,,,7,,,60,37
179712,note_on,,,,,0,0,5,,,,,4,,,58,75
179712,note_on,,,,,0,0,8,,,,,7,,,69,37
179712,note_on,,,,,96,0,9,,,,,8,,,41,37
179712,note_on,,,,,0,0,6,,,,,5,,,50,75
179712,note_off,,,,,768,0,6,,,,,5,,,51,0
179712,note_on,,,,,96,0,7,,,,,6,,,38,63
179712,note_off,,,,,192,0,1,,,,,0,,,75,0
179712,note_on,,,,,0,0,8,,,,,7,,,65,37
179712,note_off,,,,,768,0,5,,,,,4,,,63,0
179712,note_off,,,,,384,0,4,,,,,3,,,67,0
179712,note_on,,,,,0,0,4,,,,,3,,,70,92
179712,note_on,,,,,0,0,3,,,,,2,,,77,92
179712,note_off,,,,,192,0,3,,,,,2,,,75,0
179712,note_on,,,,,0,0,2,,,,,1,,,70,75
179712,note_off,,,,,384,0,2,,,,,1,,,67,0
179904,note_on,,,,,0,0,1,,,,,0,,,74,75
179904,note_on,,,,,0,0,3,,,,,2,,,74,92
179904,note_off,,,,,192,0,3,,,,,2,,,77,0
179904,note_off,,,,,192,0,1,,,,,0,,,77,0
180096,note_off,,,,,192,0,3,,,,,2,,,74,0
180096,note_on,,,,,0,0,3,,,,,2,,,70,92
180096,note_on,,,,,0,0,1,,,,,0,,,70,75
180096,note_off,,,,,192,0,1,,,,,0,,,74,0
180288,note_off,,,,,576,0,2,,,,,1,,,70,0
180288,note_on,,,,,0,0,4,,,,,3,,,62,92
180288,note_off,,,,,576,0,4,,,,,3,,,70,0
180288,note_on,,,,,0,0,2,,,,,1,,,62,75
180384,note_off,,,,,672,0,7,,,,,6,,,38,0
180384,note_off,,,,,0,0,8,,,,,7,,,69,0
180384,note_off,,,,,0,0,8,,,,,7,,,65,0
180384,note_off,,,,,672,0,8,,,,,7,,,60,0
180384,note_off,,,,,672,0,9,,,,,8,,,41,0
180480,note_on,,,,,96,0,9,,,,,8,,,53,37
180480,note_on,,,,,0,0,4,,,,,3,,,58,92
180480,note_on,,,,,96,0,7,,,,,6,,,43,63
180480,note_off,,,,,192,0,4,,,,,3,,,62,0
180480,note_off,,,,,768,0,6,,,,,5,,,50,0
180480,note_on,,,,,0,0,6,,,,,5,,,55,75
180480,note_on,,,,,0,0,5,,,,,4,,,58,75
180480,note_off,,,,,768,0,5,,,,,4,,,58,0
180480,note_off,,,,,192,0,2,,,,,1,,,62,0
180480,note_on,,,,,0,0,2,,,,,1,,,58,75
180480,note_on,,,,,96,0,8,,,,,7,,,60,37
180480,note_on,,,,,0,0,8,,,,,7,,,65,37
180480,note_on,,,,,0,0,8,,,,,7,,,69,37
180672,note_off,,,,,192,0,4,,,,,3,,,58,0
180672,note_on,,,,,0,0,4,,,,,3,,,62,92
180672,note_off,,,,,192,0,2,,,,,1,,,58,0
180672,note_on,,,,,0,0,2,,,,,1,,,62,75
180800,note_off,,,,,0,0,8,,,,,7,,,69,0
180800,note_off,,,,,0,0,8,,,,,7,,,65,0
180800,note_off,,,,,320,0,9,,,,,8,,,53,0
180800,note_off,,,,,320,0,8,,,,,7,,,60,0
180864,note_off,,,,,768,0,1,,,,,0,,,70,0
180864,note_on,,,,,64,0,9,,,,,8,,,57,37
180864,note_on,,,,,0,0,1,,,,,0,,,74,75
180864,note_off,,,,,192,0,4,,,,,3,,,62,0
180864,note_on,,,,,0,0,2,,,,,1,,,70,75
180864,note_off,,,,,768,0,3,,,,,2,,,70,0
180864,note_on,,,,,64,0,8,,,,,7,,,60,37
180864,note_on,,,,,0,0,8,,,,,7,,,65,37
180864,note_off,,,,,192,0,2,,,,,1,,,62,0
180864,note_on,,,,,0,0,4,,,,,3,,,70,92
180864,note_on,,,,,0,0,3,,,,,2,,,74,92
181056,note_off,,,,,192,0,1,,,,,0,,,74,0
181056,note_on,,,,,0,0,3,,,,,2,,,70,92
181056,note_off,,,,,192,0,3,,,,,2,,,74,0
181056,note_on,,,,,0,0,1,,,,,0,,,70,75
181152,note_off,,,,,672,0,7,,,,,6,,,43,0
181184,note_off,,,,,320,0,8,,,,,7,,,60,0
181184,note_off,,,,,0,0,8,,,,,7,,,65,0
181184,note_off,,,,,320,0,9,,,,,8,,,57,0
181248,note_off,,,,,768,0,6,,,,,5,,,55,0
181248,note_on,,,,,96,0,7,,,,,6,,,36,63
181248,note_on,,,,,64,0,8,,,,,7,,,62,37
181248,note_on,,,,,0,0,8,,,,,7,,,65,37
181248,note_off,,,,,768,0,5,,,,,4,,,58,0
181248,note_on,,,,,0,0,6,,,,,5,,,48,75
181248,note_on,,,,,0,0,5,,,,,4,,,60,75
181248,note_on,,,,,64,0,9,,,,,8,,,58,37
181248,note_on,,,,,0,0,3,,,,,2,,,75,92
181248,note_off,,,,,192,0,1,,,,,0,,,70,0
181248,note_off,,,,,192,0,3,,,,,2,,,70,0
181248,note_on,,,,,0,0,1,,,,,0,,,75,75
181440,note_off,,,,,192,0,3,,,,,2,,,75,0
181440,note_on,,,,,0,0,1,,,,,0,,,67,75
181440,note_on,,,,,0,0,3,,,,,2,,,67,92
181440,note_off,,,,,192,0,1,,,,,0,,,75,0
181568,note_off,,,,,320,0,8,,,,,7,,,65,0
181568,note_off,,,,,320,0,7,,,,,6,,,36,0
181632,note_on,,,,,0,0,5,,,,,4,,,72,75
181632,note_on,,,,,0,0,1,,,,,0,,,69,75
181632,note_on,,,,,0,0,2,,,,,1,,,69,75
181632,note_off,,,,,192,0,1,,,,,0,,,67,0
181632,note_off,,,,,384,0,5,,,,,4,,,60,0
181632,note_on,,,,,0,0,3,,,,,2,,,69,92
181632,note_on,,,,,64,0,8,,,,,7,,,67,37
181632,note_off,,,,,192,0,3,,,,,2,,,67,0
181632,note_off,,,,,768,0,2,,,,,1,,,70,0
181632,note_on,,,,,0,0,4,,,,,3,,,69,92
181632,note_on,,,,,0,0,6,,,,,5,,,41,75
181632,note_off,,,,,384,0,6,,,,,5,,,48,0
181632,note_off,,,,,768,0,4,,,,,3,,,70,0
181632,note_on,,,,,64,0,7,,,,,6,,,29,63
181632,note_on,,,,,384,0,9,,,,,8,,,46,37
181824,note_on,,,,,0,0,3,,,,,2,,,77,92
181824,note_off,,,,,192,0,5,,,,,4,,,72,0
181824,note_on,,,,,0,0,5,,,,,4,,,69,75
181824,note_on,,,,,0,0,1,,,,,0,,,77,75
181824,note_off,,,,,192,0,1,,,,,0,,,69,0
181824,note_off,,,,,192,0,3,,,,,2,,,69,0
181920,note_off,,,,,288,0,8,,,,,7,,,62,0
181952,note_off,,,,,0,0,9,,,,,8,,,46,0
181952,note_off,,,,,320,0,9,,,,,8,,,58,0
181952,note_off,,,,,320,0,7,,,,,6,,,29,0
181952,note_off,,,,,32,0,8,,,,,7,,,67,0
182016,note_on,,,,,0,0,5,,,,,4,,,62,75
182016,note_on,,,,,0,0,3,,,,,2,,,74,92
182016,note_off,,,,,384,0,2,,,,,1,,,69,0
182016,note_off,,,,,192,0,3,,,,,2,,,77,0
182016,note_on,,,,,0,0,8,,,,,7,,,69,37
182016,note_on,,,,,0,0,1,,,,,0,,,74,75
182016,note_off,,,,,192,0,5,,,,,4,,,69,0
182016,note_on,,,,,64,0,8,,,,,7,,,60,37
182016,note_off,,,,,192,0,1,,,,,0,,,77,0
182016,note_on,,,,,0,0,4,,,,,3,,,70,92
182016,note_off,,,,,384,0,4,,,,,3,,,69,0
182016,note_off,,,,,384,0,6,,,,,5,,,41,0
182016,note_on,,,,,64,0,9,,,,,8,,,53,37
182016,note_on,,,,,0,0,9,,,,,8,,,57,37
182016,note_on,,,,,64,0,7,,,,,6,,,34,63
182016,note_on,,,,,0,0,6,,,,,5,,,46,75
182016,note_on,,,,,0,0,2,,,,,1,,,70,75
182208,note_off,,,,,192,0,1,,,,,0,,,74,0
182208,note_on,,,,,0,0,1,,,,,0,,,70,75
182208,note_on,,,,,0,0,3,,,,,2,,,70,92
182208,note_off,,,,,192,0,3,,,,,2,,,74,0
182208,note_on,,,,,0,0,5,,,,,4,,,65,75
182208,note_off,,,,,192,0,5,,,,,4,,,62,0
182336,note_off,,,,,320,0,7,,,,,6,,,34,0
182400,note_on,,,,,0,0,6,,,,,5,,,51,75
182400,note_on,,,,,0,0,5,,,,,4,,,67,75
182400,note_on,,,,,0,0,3,,,,,2,,,79,92
182400,note_off,,,,,192,0,5,,,,,4,,,65,0
182400,note_off,,,,,192,0,1,,,,,0,,,70,0
182400,note_off,,,,,384,0,6,,,,,5,,,46,0
182400,note_on,,,,,64,0,7,,,,,6,,,39,63
182400,note_off,,,,,192,0,3,,,,,2,,,70,0
182400,note_on,,,,,0,0,1,,,,,0,,,79,75
182592,note_off,,,,,192,0,3,,,,,2,,,79,0
182592,note_on,,,,,0,0,3,,,,,2,,,75,92
182592,note_on,,,,,0,0,1,,,,,0,,,75,75
182592,note_off,,,,,576,0,4,,,,,3,,,70,0
182592,note_on,,,,,0,0,4,,,,,3,,,72,92
182592,note_off,,,,,192,0,1,,,,,0,,,79,0
182592,note_on,,,,,0,0,2,,,,,1,,,72,75
182592,note_off,,,,,576,0,2,,,,,1,,,70,0
182688,note_off,,,,,672,0,8,,,,,7,,,60,0
182688,note_off,,,,,672,0,9,,,,,8,,,53,0
182688,note_off,,,,,0,0,9,,,,,8,,,57,0
182688,note_off,,,,,0,0,8,,,,,7,,,69,0
182720,note_off,,,,,320,0,7,,,,,6,,,39,0
182784,note_off,,,,,192,0,3,,,,,2,,,75,0
182784,note_on,,,,,0,0,3,,,,,2,,,77,92
182784,note_off,,,,,192,0,4,,,,,3,,,72,0
182784,note_off,,,,,192,0,2,,,,,1,,,72,0
182784,note_off,,,,,384,0,6,,,,,5,,,51,0
182784,note_on,,,,,0,0,5,,,,,4,,,62,75
182784,note_off,,,,,384,0,5,,,,,4,,,67,0
182784,note_on,,,,,0,0,2,,,,,1,,,74,75
182784,note_on,,,,,96,0,8,,,,,7,,,62,37
182784,note_on,,,,,0,0,9,,,,,8,,,58,37
182784,note_on,,,,,96,0,9,,,,,8,,,50,37
182784,note_off,,,,,192,0,1,,,,,0,,,75,0
182784,note_on,,,,,0,0,1,,,,,0,,,77,75
182784,note_on,,,,,0,0,6,,,,,5,,,58,75
182784,note_on,,,,,0,0,4,,,,,3,,,74,92
182784,note_on,,,,,64,0,7,,,,,6,,,46,63
182784,note_on,,,,,0,0,8,,,,,7,,,65,37
182976,note_on,,,,,0,0,4,,,,,3,,,70,92
182976,note_off,,,,,192,0,4,,,,,3,,,74,0
182976,note_off,,,,,192,0,2,,,,,1,,,74,0
182976,note_off,,,,,192,0,3,,,,,2,,,77,0
182976,note_on,,,,,0,0,3,,,,,2,,,74,92
182976,note_off,,,,,192,0,1,,,,,0,,,77,0
182976,note_on,,,,,0,0,1,,,,,0,,,74,75
182976,note_on,,,,,0,0,2,,,,,1,,,70,75
183104,note_off,,,,,320,0,8,,,,,7,,,62,0
183104,note_off,,,,,0,0,8,,,,,7,,,65,0
183104,note_off,,,,,0,0,9,,,,,8,,,58,0
183104,note_off,,,,,320,0,9,,,,,8,,,50,0
183104,note_off,,,,,320,0,7,,,,,6,,,46,0
183168,note_on,,,,,64,0,7,,,,,6,,,39,63
183168,note_on,,,,,64,0,9,,,,,8,,,52,37
183168,note_off,,,,,192,0,1,,,,,0,,,74,0
183168,note_on,,,,,0,0,8,,,,,7,,,67,37
183168,note_on,,,,,64,0,8,,,,,7,,,60,37
183168,note_on,,,,,0,0,5,,,,,4,,,67,75
183168,note_off,,,,,384,0,5,,,,,4,,,62,0
183168,note_on,,,,,0,0,3,,,,,2,,,75,92
183168,note_off,,,,,192,0,3,,,,,2,,,74,0
183168,note_on,,,,,0,0,9,,,,,8,,,55,37
183168,note_on,,,,,0,0,1,,,,,0,,,75,75
183168,note_off,,,,,384,0,6,,,,,5,,,58,0
183168,note_off,,,,,192,0,2,,,,,1,,,70,0
183168,note_on,,,,,0,0,2,,,,,1,,,72,75
183168,note_off,,,,,192,0,4,,,,,3,,,70,0
183168,note_on,,,,,0,0,4,,,,,3,,,72,92
183168,note_on,,,,,0,0,6,,,,,5,,,51,75
183360,note_off,,,,,192,0,1,,,,,0,,,75,0
183360,note_on,,,,,0,0,1,,,,,0,,,72,75
183360,note_on,,,,,0,0,3,,,,,2,,,72,92
183360,note_off,,,,,192,0,3,,,,,2,,,75,0
183488,note_off,,,,,320,0,9,,,,,8,,,52,0
183488,note_off,,,,,0,0,9,,,,,8,,,55,0
183488,note_off,,,,,320,0,7,,,,,6,,,39,0
183552,note_on,,,,,64,0,7,,,,,6,,,41,63
183552,note_on,,,,,384,0,8,,,,,7,,,57,37
183552,note_on,,,,,0,0,6,,,,,5,,,53,75
183552,note_off,,,,,384,0,6,,,,,5,,,51,0
183552,note_off,,,,,384,0,2,,,,,1,,,72,0
183552,note_off,,,,,192,0,1,,,,,0,,,72,0
183552,note_on,,,,,0,0,5,,,,,4,,,65,75
183552,note_off,,,,,384,0,5,,,,,4,,,67,0
183552,note_on,,,,,0,0,3,,,,,2,,,74,92
183552,note_on,,,,,0,0,2,,,,,1,,,65,75
183552,note_off,,,,,192,0,3,,,,,2,,,72,0
183552,note_on,,,,,0,0,4,,,,,3,,,65,92
183552,note_on,,,,,0,0,1,,,,,0,,,74,75
183552,note_on,,,,,64,0,9,,,,,8,,,53,37
183552,note_off,,,,,384,0,4,,,,,3,,,72,0
183744,note_on,,,,,0,0,3,,,,,2,,,70,92
183744,note_off,,,,,192,0,3,,,,,2,,,74,0
183744,note_on,,,,,0,0,1,,,,,0,,,70,75
183744,note_off,,,,,192,0,1,,,,,0,,,74,0
183872,note_off,,,,,320,0,9,,,,,8,,,53,0
183872,note_off,,,,,320,0,8,,,,,7,,,67,0
183872,note_off,,,,,320,0,7,,,,,6,,,41,0
183936,note_on,,,,,0,0,2,,,,,1,,,63,75
183936,note_off,,,,,384,0,4,,,,,3,,,65,0
183936,note_on,,,,,0,0,4,,,,,3,,,63,92
183936,note_off,,,,,384,0,2,,,,,1,,,65,0
183936,note_off,,,,,384,0,5,,,,,4,,,65,0
183936,note_on,,,,,0,0,5,,,,,4,,,69,75
183936,note_off,,,,,192,0,3,,,,,2,,,70,0
183936,note_on,,,,,0,0,3,,,,,2,,,72,92
183936,note_on,,,,,64,0,8,,,,,7,,,65,37
183936,note_on,,,,,64,0,7,,,,,6,,,29,63
183936,note_on,,,,,64,0,9,,,,,8,,,45,37
183936,note_off,,,,,192,0,1,,,,,0,,,70,0
183936,note_on,,,,,0,0,1,,,,,0,,,72,75
183936,note_off,,,,,384,0,6,,,,,5,,,53,0
183936,note_on,,,,,0,0,6,,,,,5,,,41,75
184128,note_off,,,,,192,0,3,,,,,2,,,72,0
184128,note_on,,,,,0,0,3,,,,,2,,,69,92
184128,note_off,,,,,192,0,1,,,,,0,,,72,0
184128,note_on,,,,,0,0,1,,,,,0,,,69,75
184224,note_off,,,,,0,0,8,,,,,7,,,57,0
184224,note_off,,,,,288,0,8,,,,,7,,,60,0
184256,note_off,,,,,32,0,8,,,,,7,,,65,0
184256,note_off,,,,,320,0,7,,,,,6,,,29,0
184256,note_off,,,,,320,0,9,,,,,8,,,45,0
184320,note_on,,,,,0,0,8,,,,,7,,,65,37
184320,note_off,,,,,384,0,5,,,,,4,,,69,0
184320,note_on,,,,,0,0,5,,,,,4,,,62,75
184320,note_on,,,,,0,0,1,,,,,0,,,70,75
184320,note_on,,,,,64,0,7,,,,,6,,,31,63
184320,note_on,,,,,64,0,9,,,,,8,,,46,37
184320,note_on,,,,,0,0,4,,,,,3,,,62,92
184320,note_off,,,,,192,0,1,,,,,0,,,69,0
184320,note_on,,,,,0,0,3,,,,,2,,,70,92
184320,note_off,,,,,384,0,6,,,,,5,,,41,0
184320,note_off,,,,,384,0,4,,,,,3,,,63,0
184320,note_on,,,,,0,0,2,,,,,1,,,62,75
184320,note_off,,,,,384,0,2,,,,,1,,,63,0
184320,note_on,,,,,0,0,6,,,,,5,,,43,75
184320,note_on,,,,,64,0,8,,,,,7,,,55,37
184320,note_on,,,,,0,0,8,,,,,7,,,62,37
184320,note_off,,,,,192,0,3,,,,,2,,,69,0
184640,note_off,,,,,320,0,7,,,,,6,,,31,0
184704,note_on,,,,,0,0,6,,,,,5,,,41,75
184704,note_off,,,,,384,0,6,,,,,5,,,43,0
184704,note_on,,,,,64,0,7,,,,,6,,,29,63
184704,note_off,,,,,384,0,1,,,,,0,,,70,0
184704,note_off,,,,,384,0,3,,,,,2,,,70,0
184704,note_on,,,,,0,0,3,,,,,2,,,62,92
184704,note_on,,,,,0,0,1,,,,,0,,,62,75
184992,note_off,,,,,672,0,9,,,,,8,,,46,0
184992,note_off,,,,,0,0,8,,,,,7,,,65,0
184992,note_off,,,,,0,0,8,,,,,7,,,62,0
184992,note_off,,,,,672,0,8,,,,,7,,,55,0
185024,note_off,,,,,320,0,7,,,,,6,,,29,0
185088,note_on,,,,,0,0,4,,,,,3,,,63,92
185088,note_on,,,,,0,0,1,,,,,0,,,60,75
185088,note_on,,,,,0,0,8,,,,,7,,,64,37
185088,note_off,,,,,384,0,6,,,,,5,,,41,0
185088,note_on,,,,,0,0,8,,,,,7,,,60,37
185088,note_on,,,,,96,0,8,,,,,7,,,55,37
185088,note_on,,,,,96,0,9,,,,,8,,,48,37
185088,note_on,,,,,64,0,7,,,,,6,,,27,63
185088,note_off,,,,,768,0,2,,,,,1,,,62,0
185088,note_on,,,,,0,0,2,,,,,1,,,63,75
185088,note_on,,,,,0,0,3,,,,,2,,,60,92
185088,note_off,,,,,384,0,3,,,,,2,,,62,0
185088,note_on,,,,,0,0,6,,,,,5,,,39,75
185088,note_on,,,,,0,0,5,,,,,4,,,55,75
185088,note_off,,,,,768,0,5,,,,,4,,,62,0
185088,note_off,,,,,384,0,1,,,,,0,,,62,0
185088,note_off,,,,,768,0,4,,,,,3,,,62,0
185472,note_on,,,,,0,0,1,,,,,0,,,70,75
185472,note_off,,,,,384,0,1,,,,,0,,,60,0
185472,note_off,,,,,384,0,3,,,,,2,,,60,0
185472,note_on,,,,,0,0,3,,,,,2,,,70,92
185760,note_off,,,,,672,0,7,,,,,6,,,27,0
185760,note_off,,,,,672,0,9,,,,,8,,,48,0
185856,note_on,,,,,0,0,6,,,,,5,,,41,75
185856,note_off,,,,,768,0,4,,,,,3,,,63,0
185856,note_on,,,,,0,0,4,,,,,3,,,60,92
185856,note_on,,,,,96,0,9,,,,,8,,,36,37
185856,note_off,,,,,384,0,3,,,,,2,,,70,0
185856,note_on,,,,,0,0,3,,,,,2,,,65,92
185856,note_off,,,,,768,0,6,,,,,5,,,39,0
185856,note_on,,,,,0,0,1,,,,,0,,,65,75
185856,note_off,,,,,768,0,2,,,,,1,,,63,0
185856,note_off,,,,,768,0,5,,,,,4,,,55,0
185856,note_on,,,,,0,0,5,,,,,4,,,53,75
185856,note_off,,,,,384,0,1,,,,,0,,,70,0
185856,note_on,,,,,0,0,2,,,,,1,,,60,75
185856,note_on,,,,,96,0,7,,,,,6,,,29,63
186240,note_off,,,,,384,0,1,,,,,0,,,65,0
186240,note_on,,,,,0,0,1,,,,,0,,,69,75
186240,note_on,,,,,0,0,3,,,,,2,,,69,92
186240,note_off,,,,,384,0,3,,,,,2,,,65,0
186528,note_off,,,,,0,0,8,,,,,7,,,64,0
186528,note_off,,,,,1440,0,8,,,,,7,,,55,0
186528,note_off,,,,,672,0,9,,,,,8,,,36,0
186528,note_off,,,,,672,0,7,,,,,6,,,29,0
186528,note_off,,,,,0,0,8,,,,,7,,,60,0
186624,note_on,,,,,0,0,3,,,,,2,,,70,92
186624,note_off,,,,,768,0,5,,,,,4,,,53,0
186624,note_on,,,,,0,0,1,,,,,0,,,70,75
186624,note_on,,,,,96,0,9,,,,,8,,,41,37
186624,note_on,,,,,0,0,5,,,,,4,,,53,75
186624,note_off,,,,,384,0,1,,,,,0,,,69,0
186624,note_off,,,,,384,0,3,,,,,2,,,69,0
186624,note_on,,,,,0,0,8,,,,,7,,,65,37
186624,note_off,,,,,768,0,4,,,,,3,,,60,0
186624,note_on,,,,,0,0,4,,,,,3,,,62,92
186624,note_on,,,,,96,0,7,,,,,6,,,34,63
186624,note_on,,,,,96,0,8,,,,,7,,,57,37
186624,note_on,,,,,0,0,6,,,,,5,,,46,75
186624,note_off,,,,,768,0,6,,,,,5,,,41,0
186624,note_off,,,,,768,0,2,,,,,1,,,60,0
186624,note_on,,,,,0,0,2,,,,,1,,,62,75
186944,note_off,,,,,320,0,9,,,,,8,,,41,0
186944,note_off,,,,,320,0,7,,,,,6,,,34,0
186944,note_off,,,,,320,0,8,,,,,7,,,57,0
187008,note_on,,,,,64,0,8,,,,,7,,,62,37
187008,note_off,,,,,384,0,6,,,,,5,,,46,0
187008,note_on,,,,,64,0,9,,,,,8,,,46,37
187296,note_off,,,,,288,0,8,,,,,7,,,65,0
187328,note_off,,,,,32,0,8,,,,,7,,,62,0
187328,note_off,,,,,320,0,9,,,,,8,,,46,0
187392,note_on,,,,,64,0,8,,,,,7,,,60,37
187392,note_on,,,,,0,0,8,,,,,7,,,65,37
187392,note_on,,,,,448,0,7,,,,,6,,,38,63
187392,note_on,,,,,384,0,6,,,,,5,,,50,75
187392,note_on,,,,,64,0,9,,,,,8,,,45,37
187712,note_off,,,,,320,0,9,,,,,8,,,45,0
187712,note_off,,,,,320,0,8,,,,,7,,,60,0
187712,note_off,,,,,320,0,7,,,,,6,,,38,0
187776,note_on,,,,,64,0,7,,,,,6,,,36,63
187776,note_on,,,,,64,0,8,,,,,7,,,58,37
187776,note_on,,,,,64,0,9,,,,,8,,,43,37
187776,note_off,,,,,384,0,6,,,,,5,,,50,0
187776,note_on,,,,,0,0,6,,,,,5,,,48,75
188096,note_off,,,,,320,0,7,,,,,6,,,36,0
188096,note_off,,,,,320,0,8,,,,,7,,,58,0
188096,note_off,,,,,320,0,9,,,,,8,,,43,0
188160,note_on,,,,,64,0,9,,,,,8,,,45,37
188160,note_on,,,,,64,0,8,,,,,7,,,60,37
188160,note_on,,,,,64,0,7,,,,,6,,,38,63
188160,note_on,,,,,0,0,6,,,,,5,,,50,75
188160,note_off,,,,,384,0,6,,,,,5,,,48,0
188480,note_off,,,,,320,0,7,,,,,6,,,38,0
188480,note_off,,,,,320,0,8,,,,,7,,,60,0
188480,note_off,,,,,320,0,9,,,,,8,,,45,0
188544,note_on,,,,,64,0,9,,,,,8,,,41,37
188544,note_on,,,,,64,0,7,,,,,6,,,34,63
188544,note_on,,,,,0,0,6,,,,,5,,,46,75
188544,note_on,,,,,64,0,8,,,,,7,,,57,37
188544,note_off,,,,,384,0,6,,,,,5,,,50,0
188832,note_off,,,,,288,0,8,,,,,7,,,65,0
188864,note_off,,,,,320,0,7,,,,,6,,,34,0
188864,note_off,,,,,320,0,9,,,,,8,,,41,0
188864,note_off,,,,,32,0,8,,,,,7,,,57,0
188928,note_on,,,,,0,0,2,,,,,1,,,69,75
188928,note_off,,,,,2304,0,2,,,,,1,,,62,0
188928,note_on,,,,,64,0,9,,,,,8,,,53,37
188928,note_off,,,,,2304,0,5,,,,,4,,,53,0
188928,note_off,,,,,2304,0,1,,,,,0,,,70,0
188928,note_on,,,,,0,0,1,,,,,0,,,72,75
188928,note_on,,,,,64,0,8,,,,,7,,,60,37
188928,note_on,,,,,0,0,8,,,,,7,,,65,37
188928,note_on,,,,,0,0,8,,,,,7,,,69,37
188928,note_on,,,,,64,0,7,,,,,6,,,41,63
188928,note_on,,,,,0,0,5,,,,,4,,,60,75
188928,note_off,,,,,384,0,6,,,,,5,,,46,0
188928,note_off,,,,,2304,0,3,,,,,2,,,70,0
188928,note_on,,,,,0,0,6,,,,,5,,,53,75
188928,note_off,,,,,2304,0,4,,,,,3,,,62,0
188928,note_on,,,,,0,0,4,,,,,3,,,69,92
188928,note_on,,,,,0,0,3,,,,,2,,,72,92
189120,note_off,,,,,192,0,3,,,,,2,,,72,0
189120,note_on,,,,,0,0,3,,,,,2,,,69,92
189120,note_on,,,,,0,0,1,,,,,0,,,69,75
189120,note_off,,,,,192,0,1,,,,,0,,,72,0
189312,note_off,,,,,192,0,3,,,,,2,,,69,0
189312,note_on,,,,,0,0,3,,,,,2,,,65,92
189312,note_on,,,,,0,0,1,,,,,0,,,65,75
189312,note_off,,,,,192,0,1,,,,,0,,,69,0
189600,note_off,,,,,672,0,8,,,,,7,,,60,0
189600,note_off,,,,,0,0,8,,,,,7,,,65,0
189600,note_off,,,,,0,0,8,,,,,7,,,69,0
189600,note_off,,,,,672,0,9,,,,,8,,,53,0
189600,note_off,,,,,672,0,7,,,,,6,,,41,0
189696,note_on,,,,,0,0,6,,,,,5,,,45,75
189696,note_on,,,,,0,0,4,,,,,3,,,65,92
189696,note_on,,,,,96,0,7,,,,,6,,,33,63
189696,note_on,,,,,0,0,2,,,,,1,,,65,75
189696,note_off,,,,,768,0,2,,,,,1,,,69,0
189696,note_on,,,,,96,0,8,,,,,7,,,60,37
189696,note_on,,,,,0,0,8,,,,,7,,,65,37
189696,note_on,,,,,96,0,9,,,,,8,,,45,37
189696,note_off,,,,,768,0,6,,,,,5,,,53,0
189696,note_off,,,,,768,0,4,,,,,3,,,69,0
190080,note_off,,,,,768,0,1,,,,,0,,,65,0
190080,note_on,,,,,0,0,1,,,,,0,,,77,75
190080,note_on,,,,,0,0,3,,,,,2,,,77,92
190080,note_off,,,,,768,0,3,,,,,2,,,65,0
190368,note_off,,,,,0,0,8,,,,,7,,,65,0
190368,note_off,,,,,672,0,7,,,,,6,,,33,0
190368,note_off,,,,,672,0,8,,,,,7,,,60,0
190368,note_off,,,,,672,0,9,,,,,8,,,45,0
190464,note_on,,,,,0,0,8,,,,,7,,,65,37
190464,note_on,,,,,96,0,7,,,,,6,,,34,63
190464,note_off,,,,,768,0,6,,,,,5,,,45,0
190464,note_off,,,,,1536,0,5,,,,,4,,,60,0
190464,note_on,,,,,96,0,9,,,,,8,,,46,37
190464,note_on,,,,,0,0,6,,,,,5,,,46,75
190464,note_on,,,,,0,0,5,,,,,4,,,62,75
190464,note_on,,,,,96,0,8,,,,,7,,,62,37
190656,note_on,,,,,0,0,3,,,,,2,,,72,92
190656,note_off,,,,,576,0,3,,,,,2,,,77,0
190656,note_off,,,,,576,0,1,,,,,0,,,77,0
190656,note_on,,,,,0,0,1,,,,,0,,,72,75
190784,note_off,,,,,320,0,8,,,,,7,,,65,0
190848,note_off,,,,,192,0,3,,,,,2,,,72,0
190848,note_on,,,,,0,0,1,,,,,0,,,74,75
190848,note_off,,,,,384,0,5,,,,,4,,,62,0
190848,note_off,,,,,1152,0,2,,,,,1,,,65,0
190848,note_on,,,,,0,0,2,,,,,1,,,67,75
190848,note_off,,,,,192,0,1,,,,,0,,,72,0
190848,note_on,,,,,0,0,4,,,,,3,,,67,92
190848,note_off,,,,,1152,0,4,,,,,3,,,65,0
190848,note_on,,,,,0,0,3,,,,,2,,,74,92
190848,note_on,,,,,0,0,8,,,,,7,,,67,37
190848,note_on,,,,,64,0,8,,,,,7,,,64,37
190848,note_on,,,,,0,0,5,,,,,4,,,64,75
191040,note_on,,,,,0,0,1,,,,,0,,,70,75
191040,note_on,,,,,0,0,3,,,,,2,,,70,92
191040,note_off,,,,,192,0,3,,,,,2,,,74,0
191040,note_off,,,,,192,0,1,,,,,0,,,74,0
191136,note_off,,,,,672,0,7,,,,,6,,,34,0
191136,note_off,,,,,672,0,9,,,,,8,,,46,0
191168,note_off,,,,,0,0,8,,,,,7,,,64,0
191168,note_off,,,,,0,0,8,,,,,7,,,67,0
191168,note_off,,,,,320,0,8,,,,,7,,,62,0
191232,note_on,,,,,0,0,6,,,,,5,,,41,75
191232,note_off,,,,,768,0,6,,,,,5,,,46,0
191232,note_on,,,,,96,0,7,,,,,6,,,29,63
191232,note_off,,,,,384,0,2,,,,,1,,,67,0
191232,note_on,,,,,0,0,2,,,,,1,,,69,75
191232,note_off,,,,,192,0,1,,,,,0,,,70,0
191232,note_on,,,,,0,0,1,,,,,0,,,72,75
191232,note_on,,,,,96,0,9,,,,,8,,,41,37
191232,note_on,,,,,0,0,5,,,,,4,,,65,75
191232,note_off,,,,,384,0,5,,,,,4,,,64,0
191232,note_off,,,,,192,0,3,,,,,2,,,70,0
191232,note_on,,,,,0,0,8,,,,,7,,,69,37
191232,note_on,,,,,0,0,8,,,,,7,,,65,37
191232,note_on,,,,,64,0,8,,,,,7,,,60,37
191232,note_on,,,,,0,0,3,,,,,2,,,72,92
191232,note_off,,,,,384,0,4,,,,,3,,,67,0
191232,note_on,,,,,0,0,4,,,,,3,,,69,92
191424,note_off,,,,,192,0,3,,,,,2,,,72,0
191424,note_on,,,,,0,0,1,,,,,0,,,69,75
191424,note_off,,,,,192,0,1,,,,,0,,,72,0
191424,note_on,,,,,0,0,3,,,,,2,,,69,92
191616,note_off,,,,,192,0,3,,,,,2,,,69,0
191616,note_on,,,,,0,0,3,,,,,2,,,65,92
191616,note_off,,,,,192,0,1,,,,,0,,,69,0
191616,note_on,,,,,0,0,1,,,,,0,,,65,75
191904,note_off,,,,,672,0,7,,,,,6,,,29,0
191904,note_off,,,,,672,0,8,,,,,7,,,60,0
191904,note_off,,,,,0,0,8,,,,,7,,,65,0
191904,note_off,,,,,0,0,8,,,,,7,,,69,0
191904,note_off,,,,,672,0,9,,,,,8,,,41,0
192000,note_on,,,,,0,0,2,,,,,1,,,65,75
192000,note_off,,,,,768,0,2,,,,,1,,,69,0
192000,note_on,,,,,96,0,8,,,,,7,,,65,37
192000,note_on,,,,,0,0,8,,,,,7,,,69,37
192000,note_on,,,,,96,0,7,,,,,6,,,50,63
192000,note_on,,,,,96,0,9,,,,,8,,,62,37
192000,note_off,,,,,768,0,4,,,,,3,,,69,0
192000,note_on,,,,,0,0,4,,,,,3,,,65,92
192000,note_off,,,,,768,0,6,,,,,5,,,41,0
192000,note_on,,,,,0,0,6,,,,,5,,,62,75
192384,note_off,,,,,1152,0,5,,,,,4,,,65,0
192384,note_on,,,,,0,0,5,,,,,4,,,69,75
192384,note_off,,,,,768,0,1,,,,,0,,,65,0
192384,note_on,,,,,0,0,1,,,,,0,,,77,75
192384,note_on,,,,,0,0,3,,,,,2,,,77,92
192384,note_off,,,,,768,0,3,,,,,2,,,65,0
192672,note_off,,,,,672,0,8,,,,,7,,,65,0
192672,note_off,,,,,672,0,7,,,,,6,,,50,0
192672,note_off,,,,,672,0,9,,,,,8,,,62,0
192672,note_off,,,,,0,0,8,,,,,7,,,69,0
192768,note_off,,,,,768,0,2,,,,,1,,,65,0
192768,note_on,,,,,0,0,6,,,,,5,,,59,75
192768,note_on,,,,,96,0,7,,,,,6,,,47,63
192768,note_off,,,,,768,0,4,,,,,3,,,65,0
192768,note_on,,,,,0,0,9,,,,,8,,,62,37
192768,note_on,,,,,96,0,9,,,,,8,,,59,37
192768,note_on,,,,,96,0,8,,,,,7,,,65,37
192768,note_on,,,,,0,0,8,,,,,7,,,67,37
192768,note_on,,,,,0,0,5,,,,,4,,,67,75
192768,note_on,,,,,0,0,4,,,,,3,,,74,92
192768,note_off,,,,,384,0,5,,,,,4,,,69,0
192768,note_off,,,,,768,0,6,,,,,5,,,62,0
192768,note_on,,,,,0,0,2,,,,,1,,,74,75
192960,note_off,,,,,576,0,3,,,,,2,,,77,0
192960,note_on,,,,,0,0,3,,,,,2,,,74,92
192960,note_on,,,,,0,0,1,,,,,0,,,74,75
192960,note_off,,,,,576,0,1,,,,,0,,,77,0
193152,note_off,,,,,192,0,1,,,,,0,,,74,0
193152,note_on,,,,,0,0,1,,,,,0,,,79,75
193152,note_off,,,,,192,0,3,,,,,2,,,74,0
193152,note_on,,,,,0,0,3,,,,,2,,,79,92
193344,note_off,,,,,192,0,1,,,,,0,,,79,0
193344,note_on,,,,,0,0,1,,,,,0,,,74,75
193344,note_on,,,,,0,0,3,,,,,2,,,74,92
193344,note_off,,,,,192,0,3,,,,,2,,,79,0
193440,note_off,,,,,0,0,8,,,,,7,,,67,0
193440,note_off,,,,,0,0,9,,,,,8,,,62,0
193440,note_off,,,,,672,0,9,,,,,8,,,59,0
193440,note_off,,,,,672,0,8,,,,,7,,,65,0
193440,note_off,,,,,672,0,7,,,,,6,,,47,0
193536,note_on,,,,,0,0,8,,,,,7,,,67,37
193536,note_on,,,,,96,0,8,,,,,7,,,63,37
193536,note_on,,,,,96,0,7,,,,,6,,,48,63
193536,note_on,,,,,96,0,9,,,,,8,,,60,37
193536,note_off,,,,,768,0,4,,,,,3,,,74,0
193536,note_on,,,,,0,0,4,,,,,3,,,72,92
193536,note_on,,,,,0,0,5,,,,,4,,,67,75
193536,note_off,,,,,192,0,1,,,,,0,,,74,0
193536,note_on,,,,,0,0,1,,,,,0,,,75,75
193536,note_on,,,,,0,0,2,,,,,1,,,72,75
193536,note_off,,,,,768,0,2,,,,,1,,,74,0
193536,note_off,,,,,192,0,3,,,,,2,,,74,0
193536,note_on,,,,,0,0,3,,,,,2,,,75,92
193536,note_off,,,,,768,0,6,,,,,5,,,59,0
193536,note_on,,,,,0,0,6,,,,,5,,,60,75
193536,note_off,,,,,768,0,5,,,,,4,,,67,0
193728,note_off,,,,,192,0,1,,,,,0,,,75,0
193728,note_on,,,,,0,0,3,,,,,2,,,72,92
193728,note_off,,,,,192,0,3,,,,,2,,,75,0
193728,note_on,,,,,0,0,1,,,,,0,,,72,75
193920,note_off,,,,,192,0,1,,,,,0,,,72,0
193920,note_on,,,,,0,0,3,,,,,2,,,67,92
193920,note_on,,,,,0,0,1,,,,,0,,,67,75
193920,note_off,,,,,192,0,3,,,,,2,,,72,0
194208,note_off,,,,,672,0,9,,,,,8,,,60,0
194208,note_off,,,,,672,0,7,,,,,6,,,48,0
194208,note_off,,,,,0,0,8,,,,,7,,,67,0
194208,note_off,,,,,672,0,8,,,,,7,,,63,0
194304,note_off,,,,,768,0,2,,,,,1,,,72,0
194304,note_on,,,,,0,0,2,,,,,1,,,63,75
194304,note_off,,,,,768,0,6,,,,,5,,,60,0
194304,note_on,,,,,0,0,6,,,,,5,,,48,75
194304,note_on,,,,,96,0,9,,,,,8,,,48,37
194304,note_on,,,,,0,0,9,,,,,8,,,60,37
194304,note_on,,,,,0,0,4,,,,,3,,,63,92
194304,note_off,,,,,768,0,4,,,,,3,,,72,0
194304,note_on,,,,,96,0,8,,,,,7,,,63,37
194304,note_on,,,,,96,0,7,,,,,6,,,36,63
194304,note_on,,,,,0,0,8,,,,,7,,,67,37
194688,note_off,,,,,1152,0,5,,,,,4,,,67,0
194688,note_on,,,,,0,0,1,,,,,0,,,75,75
194688,note_on,,,,,0,0,5,,,,,4,,,67,75
194688,note_off,,,,,768,0,1,,,,,0,,,67,0
194688,note_on,,,,,0,0,3,,,,,2,,,75,92
194688,note_off,,,,,768,0,3,,,,,2,,,67,0
194880,note_off,,,,,192,0,3,,,,,2,,,75,0
194880,note_off,,,,,192,0,1,,,,,0,,,75,0
194880,note_on,,,,,0,0,1,,,,,0,,,74,75
194880,note_on,,,,,0,0,3,,,,,2,,,74,92
194976,note_off,,,,,672,0,7,,,,,6,,,36,0
194976,note_off,,,,,0,0,8,,,,,7,,,67,0
194976,note_off,,,,,672,0,8,,,,,7,,,63,0
194976,note_off,,,,,0,0,9,,,,,8,,,60,0
194976,note_off,,,,,672,0,9,,,,,8,,,48,0
195072,note_on,,,,,0,0,4,,,,,3,,,67,92
195072,note_off,,,,,768,0,4,,,,,3,,,63,0
195072,note_on,,,,,96,0,7,,,,,6,,,39,63
195072,note_off,,,,,192,0,3,,,,,2,,,74,0
195072,note_off,,,,,768,0,2,,,,,1,,,63,0
195072,note_off,,,,,768,0,6,,,,,5,,,48,0
195072,note_on,,,,,0,0,1,,,,,0,,,72,75
195072,note_on,,,,,96,0,8,,,,,7,,,60,37
195072,note_off,,,,,192,0,1,,,,,0,,,74,0
195072,note_on,,,,,0,0,8,,,,,7,,,67,37
195072,note_on,,,,,0,0,2,,,,,1,,,67,75
195072,note_on,,,,,0,0,3,,,,,2,,,72,92
195072,note_on,,,,,0,0,6,,,,,5,,,51,75
195072,note_on,,,,,0,0,5,,,,,4,,,63,75
195072,note_on,,,,,96,0,9,,,,,8,,,51,37
195072,note_on,,,,,0,0,9,,,,,8,,,55,37
195072,note_off,,,,,384,0,5,,,,,4,,,67,0
195264,note_off,,,,,192,0,3,,,,,2,,,72,0
195264,note_on,,,,,0,0,3,,,,,2,,,70,92
195264,note_on,,,,,0,0,1,,,,,0,,,70,75
195264,note_off,,,,,192,0,1,,,,,0,,,72,0
195456,note_on,,,,,0,0,3,,,,,2,,,69,92
195456,note_on,,,,,0,0,1,,,,,0,,,69,75
195456,note_off,,,,,192,0,1,,,,,0,,,70,0
195456,note_off,,,,,192,0,3,,,,,2,,,70,0
195456,note_off,,,,,384,0,5,,,,,4,,,63,0
195456,note_on,,,,,0,0,5,,,,,4,,,60,75
195648,note_off,,,,,192,0,3,,,,,2,,,69,0
195648,note_on,,,,,0,0,1,,,,,0,,,67,75
195648,note_off,,,,,192,0,1,,,,,0,,,69,0
195648,note_on,,,,,0,0,3,,,,,2,,,67,92
195744,note_off,,,,,0,0,8,,,,,7,,,67,0
195744,note_off,,,,,672,0,8,,,,,7,,,60,0
195744,note_off,,,,,672,0,7,,,,,6,,,39,0
195744,note_off,,,,,672,0,9,,,,,8,,,51,0
195744,note_off,,,,,0,0,9,,,,,8,,,55,0
195840,note_on,,,,,96,0,8,,,,,7,,,62,37
195840,note_on,,,,,0,0,9,,,,,8,,,57,37
195840,note_on,,,,,96,0,9,,,,,8,,,50,37
195840,note_on,,,,,0,0,4,,,,,3,,,62,92
195840,note_off,,,,,768,0,4,,,,,3,,,67,0
195840,note_off,,,,,768,0,2,,,,,1,,,67,0
195840,note_off,,,,,384,0,5,,,,,4,,,60,0
195840,note_on,,,,,0,0,5,,,,,4,,,57,75
195840,note_on,,,,,0,0,8,,,,,7,,,66,37
195840,note_on,,,,,0,0,3,,,,,2,,,66,92
195840,note_on,,,,,0,0,1,,,,,0,,,66,75
195840,note_off,,,,,192,0,1,,,,,0,,,67,0
195840,note_on,,,,,0,0,2,,,,,1,,,62,75
195840,note_on,,,,,96,0,7,,,,,6,,,38,63
195840,note_on,,,,,0,0,6,,,,,5,,,50,75
195840,note_off,,,,,192,0,3,,,,,2,,,67,0
195840,note_off,,,,,768,0,6,,,,,5,,,51,0
196032,note_on,,,,,0,0,3,,,,,2,,,69,92
196032,note_off,,,,,192,0,3,,,,,2,,,66,0
196032,note_on,,,,,0,0,1,,,,,0,,,69,75
196032,note_off,,,,,192,0,1,,,,,0,,,66,0
196224,note_off,,,,,192,0,1,,,,,0,,,69,0
196224,note_off,,,,,192,0,3,,,,,2,,,69,0
196224,note_on,,,,,0,0,3,,,,,2,,,62,92
196224,note_on,,,,,0,0,1,,,,,0,,,62,75
196512,note_off,,,,,672,0,9,,,,,8,,,50,0
196512,note_off,,,,,0,0,9,,,,,8,,,57,0
196512,note_off,,,,,672,0,8,,,,,7,,,62,0
196512,note_off,,,,,0,0,8,,,,,7,,,66,0
196512,note_off,,,,,672,0,7,,,,,6,,,38,0
196608,note_off,,,,,768,0,5,,,,,4,,,57,0
196608,note_off,,,,,768,0,6,,,,,5,,,50,0
196608,note_on,,,,,0,0,5,,,,,4,,,62,75
196608,note_on,,,,,96,0,7,,,,,6,,,42,63
196608,note_on,,,,,0,0,8,,,,,7,,,69,37
196608,note_on,,,,,96,0,8,,,,,7,,,62,37
196608,note_on,,,,,0,0,2,,,,,1,,,69,75
196608,note_off,,,,,768,0,2,,,,,1,,,62,0
196608,note_on,,,,,96,0,9,,,,,8,,,54,37
196608,note_off,,,,,768,0,4,,,,,3,,,62,0
196608,note_on,,,,,0,0,4,,,,,3,,,69,92
196608,note_on,,,,,0,0,6,,,,,5,,,54,75
196992,note_off,,,,,768,0,1,,,,,0,,,62,0
196992,note_off,,,,,768,0,3,,,,,2,,,62,0
196992,note_on,,,,,0,0,3,,,,,2,,,86,92
196992,note_on,,,,,0,0,1,,,,,0,,,86,75
197280,note_off,,,,,672,0,9,,,,,8,,,54,0
197280,note_off,,,,,672,0,8,,,,,7,,,62,0
197280,note_off,,,,,0,0,8,,,,,7,,,69,0
197280,note_off,,,,,672,0,7,,,,,6,,,42,0
197376,note_on,,,,,96,0,7,,,,,6,,,38,63
197376,note_on,,,,,96,0,8,,,,,7,,,62,37
197376,note_on,,,,,96,0,9,,,,,8,,,50,37
197376,note_on,,,,,0,0,4,,,,,3,,,78,92
197376,note_on,,,,,0,0,2,,,,,1,,,78,75
197376,note_off,,,,,768,0,2,,,,,1,,,69,0
197376,note_on,,,,,0,0,6,,,,,5,,,50,75
197376,note_off,,,,,768,0,6,,,,,5,,,54,0
197376,note_off,,,,,768,0,5,,,,,4,,,62,0
197376,note_off,,,,,768,0,4,,,,,3,,,69,0
197376,note_on,,,,,0,0,8,,,,,7,,,74,37
197376,note_on,,,,,0,0,8,,,,,7,,,66,37
197376,note_on,,,,,0,0,5,,,,,4,,,69,75
197760,note_off,,,,,768,0,1,,,,,0,,,86,0
197760,note_off,,,,,768,0,3,,,,,2,,,86,0
197760,note_on,,,,,0,0,1,,,,,0,,,81,75
197760,note_on,,,,,0,0,3,,,,,2,,,81,92
198048,note_off,,,,,672,0,7,,,,,6,,,38,0
198048,note_off,,,,,672,0,9,,,,,8,,,50,0
198048,note_off,,,,,0,0,8,,,,,7,,,74,0
198048,note_off,,,,,0,0,8,,,,,7,,,66,0
198048,note_off,,,,,672,0,8,,,,,7,,,62,0
198144,note_on,,,,,0,0,4,,,,,3,,,74,92
198144,note_off,,,,,768,0,4,,,,,3,,,78,0
198144,note_on,,,,,0,0,6,,,,,5,,,55,75
198144,note_on,,,,,0,0,2,,,,,1,,,74,75
198144,note_off,,,,,768,0,2,,,,,1,,,78,0
198144,note_on,,,,,0,0,5,,,,,4,,,67,75
198144,note_off,,,,,768,0,6,,,,,5,,,50,0
198144,note_on,,,,,96,0,7,,,,,6,,,43,63
198144,note_off,,,,,768,0,5,,,,,4,,,69,0
198144,note_on,,,,,96,0,9,,,,,8,,,55,37
198144,note_off,,,,,384,0,3,,,,,2,,,81,0
198144,note_on,,,,,0,0,3,,,,,2,,,82,92
198144,note_on,,,,,0,0,8,,,,,7,,,70,37
198144,note_off,,,,,384,0,1,,,,,0,,,81,0
198144,note_on,,,,,0,0,1,,,,,0,,,82,75
198144,note_on,,,,,96,0,8,,,,,7,,,62,37
198144,note_on,,,,,0,0,8,,,,,7,,,67,37
198336,note_on,,,,,0,0,3,,,,,2,,,86,92
198336,note_off,,,,,192,0,3,,,,,2,,,82,0
198336,note_off,,,,,192,0,1,,,,,0,,,82,0
198336,note_on,,,,,0,0,1,,,,,0,,,86,75
198528,note_on,,,,,0,0,3,,,,,2,,,79,92
198528,note_off,,,,,192,0,1,,,,,0,,,86,0
198528,note_on,,,,,0,0,1,,,,,0,,,79,75
198528,note_off,,,,,192,0,3,,,,,2,,,86,0
198816,note_off,,,,,672,0,7,,,,,6,,,43,0
198816,note_off,,,,,672,0,9,,,,,8,,,55,0
198816,note_off,,,,,672,0,8,,,,,7,,,62,0
198816,note_off,,,,,0,0,8,,,,,7,,,67,0
198816,note_off,,,,,0,0,8,,,,,7,,,70,0
198912,note_off,,,,,768,0,5,,,,,4,,,67,0
198912,note_on,,,,,96,0,7,,,,,6,,,46,63
198912,note_on,,,,,96,0,8,,,,,7,,,62,37
198912,note_on,,,,,0,0,8,,,,,7,,,67,37
198912,note_on,,,,,0,0,2,,,,,1,,,67,75
198912,note_off,,,,,768,0,2,,,,,1,,,74,0
198912,note_off,,,,,768,0,4,,,,,3,,,74,0
198912,note_on,,,,,0,0,4,,,,,3,,,67,92
198912,note_on,,,,,0,0,8,,,,,7,,,74,37
198912,note_on,,,,,96,0,9,,,,,8,,,58,37
198912,note_off,,,,,768,0,6,,,,,5,,,55,0
198912,note_on,,,,,0,0,5,,,,,4,,,62,75
198912,note_on,,,,,0,0,6,,,,,5,,,58,75
199104,note_on,,,,,0,0,3,,,,,2,,,86,92
199104,note_on,,,,,0,0,1,,,,,0,,,86,75
199104,note_off,,,,,576,0,1,,,,,0,,,79,0
199104,note_off,,,,,576,0,3,,,,,2,,,79,0
199296,note_on,,,,,0,0,3,,,,,2,,,77,92
199296,note_on,,,,,0,0,1,,,,,0,,,77,75
199296,note_off,,,,,192,0,1,,,,,0,,,86,0
199296,note_off,,,,,192,0,3,,,,,2,,,86,0
199584,note_off,,,,,672,0,7,,,,,6,,,46,0
199584,note_off,,,,,0,0,8,,,,,7,,,74,0
199584,note_off,,,,,0,0,8,,,,,7,,,67,0
199584,note_off,,,,,672,0,9,,,,,8,,,58,0
199584,note_off,,,,,672,0,8,,,,,7,,,62,0
199680,note_on,,,,,96,0,9,,,,,8,,,59,37
199680,note_on,,,,,0,0,8,,,,,7,,,67,37
199680,note_on,,,,,96,0,7,,,,,6,,,47,63
199680,note_on,,,,,96,0,8,,,,,7,,,65,37
199680,note_off,,,,,768,0,6,,,,,5,,,58,0
199680,note_on,,,,,0,0,8,,,,,7,,,74,37
199680,note_off,,,,,768,0,2,,,,,1,,,67,0
199680,note_off,,,,,768,0,5,,,,,4,,,62,0
199680,note_off,,,,,768,0,4,,,,,3,,,67,0
199680,note_on,,,,,0,0,4,,,,,3,,,67,92
199680,note_on,,,,,0,0,5,,,,,4,,,62,75
199680,note_on,,,,,0,0,6,,,,,5,,,59,75
199680,note_on,,,,,0,0,2,,,,,1,,,67,75
199872,note_off,,,,,576,0,1,,,,,0,,,77,0
199872,note_on,,,,,0,0,1,,,,,0,,,86,75
199872,note_on,,,,,0,0,3,,,,,2,,,86,92
199872,note_off,,,,,576,0,3,,,,,2,,,77,0
200064,note_on,,,,,0,0,1,,,,,0,,,74,75
200064,note_off,,,,,192,0,1,,,,,0,,,86,0
200064,note_off,,,,,192,0,3,,,,,2,,,86,0
200064,note_on,,,,,0,0,3,,,,,2,,,74,92
200352,note_off,,,,,0,0,8,,,,,7,,,74,0
200352,note_off,,,,,0,0,8,,,,,7,,,67,0
200352,note_off,,,,,672,0,8,,,,,7,,,65,0
200352,note_off,,,,,672,0,7,,,,,6,,,47,0
200352,note_off,,,,,672,0,9,,,,,8,,,59,0
200448,note_off,,,,,768,0,5,,,,,4,,,62,0
200448,note_off,,,,,768,0,6,,,,,5,,,59,0
200448,note_on,,,,,0,0,6,,,,,5,,,60,75
200448,note_on,,,,,0,0,8,,,,,7,,,72,37
200448,note_on,,,,,0,0,8,,,,,7,,,67,37
200448,note_on,,,,,0,0,2,,,,,1,,,67,75
200448,note_on,,,,,96,0,7,,,,,6,,,48,63
200448,note_off,,,,,768,0,2,,,,,1,,,67,0
200448,note_on,,,,,96,0,9,,,,,8,,,60,37
200448,note_on,,,,,96,0,8,,,,,7,,,63,37
200448,note_on,,,,,0,0,5,,,,,4,,,60,75
200448,note_off,,,,,384,0,3,,,,,2,,,74,0
200448,note_off,,,,,384,0,1,,,,,0,,,74,0
200448,note_on,,,,,0,0,4,,,,,3,,,67,92
200448,note_off,,,,,768,0,4,,,,,3,,,67,0
200448,note_on,,,,,0,0,1,,,,,0,,,75,75
200448,note_on,,,,,0,0,3,,,,,2,,,75,92
200640,note_off,,,,,192,0,1,,,,,0,,,75,0
200640,note_off,,,,,192,0,3,,,,,2,,,75,0
200640,note_on,,,,,0,0,3,,,,,2,,,79,92
200640,note_on,,,,,0,0,1,,,,,0,,,79,75
200832,note_on,,,,,0,0,3,,,,,2,,,72,92
200832,note_on,,,,,0,0,1,,,,,0,,,72,75
200832,note_off,,,,,192,0,1,,,,,0,,,79,0
200832,note_off,,,,,192,0,3,,,,,2,,,79,0
201120,note_off,,,,,672,0,8,,,,,7,,,63,0
201120,note_off,,,,,0,0,8,,,,,7,,,72,0
201120,note_off,,,,,0,0,8,,,,,7,,,67,0
201120,note_off,,,,,672,0,7,,,,,6,,,48,0
201120,note_off,,,,,672,0,9,,,,,8,,,60,0
201216,note_on,,,,,0,0,8,,,,,7,,,72,37
201216,note_on,,,,,0,0,8,,,,,7,,,69,37
201216,note_off,,,,,768,0,5,,,,,4,,,60,0
201216,note_on,,,,,96,0,7,,,,,6,,,45,63
201216,note_on,,,,,96,0,8,,,,,7,,,63,37
201216,note_on,,,,,0,0,5,,,,,4,,,66,75
201216,note_on,,,,,96,0,9,,,,,8,,,57,37
201216,note_on,,,,,0,0,2,,,,,1,,,69,75
201216,note_off,,,,,768,0,2,,,,,1,,,67,0
201216,note_on,,,,,0,0,4,,,,,3,,,69,92
201216,note_off,,,,,768,0,4,,,,,3,,,67,0
201216,note_off,,,,,768,0,6,,,,,5,,,60,0
201216,note_on,,,,,0,0,6,,,,,5,,,57,75
201408,note_on,,,,,0,0,3,,,,,2,,,75,92
201408,note_off,,,,,576,0,1,,,,,0,,,72,0
201408,note_on,,,,,0,0,1,,,,,0,,,75,75
201408,note_off,,,,,576,0,3,,,,,2,,,72,0
201600,note_on,,,,,0,0,1,,,,,0,,,69,75
201600,note_on,,,,,0,0,3,,,,,2,,,69,92
201600,note_off,,,,,192,0,3,,,,,2,,,75,0
201600,note_off,,,,,192,0,1,,,,,0,,,75,0
201888,note_off,,,,,0,0,8,,,,,7,,,69,0
201888,note_off,,,,,672,0,8,,,,,7,,,63,0
201888,note_off,,,,,672,0,9,,,,,8,,,57,0
201888,note_off,,,,,0,0,8,,,,,7,,,72,0
201888,note_off,,,,,672,0,7,,,,,6,,,45,0
201984,note_on,,,,,96,0,7,,,,,6,,,42,63
201984,note_off,,,,,768,0,2,,,,,1,,,69,0
201984,note_on,,,,,0,0,6,,,,,5,,,54,75
201984,note_off,,,,,768,0,6,,,,,5,,,57,0
201984,note_on,,,,,0,0,2,,,,,1,,,69,75
201984,note_off,,,,,768,0,4,,,,,3,,,69,0
201984,note_on,,,,,96,0,8,,,,,7,,,62,37
201984,note_on,,,,,96,0,9,,,,,8,,,54,37
201984,note_on,,,,,0,0,4,,,,,3,,,69,92
201984,note_on,,,,,0,0,5,,,,,4,,,62,75
201984,note_off,,,,,768,0,5,,,,,4,,,66,0
201984,note_on,,,,,0,0,8,,,,,7,,,69,37
201984,note_on,,,,,0,0,8,,,,,7,,,72,37
202176,note_on,,,,,0,0,3,,,,,2,,,74,92
202176,note_off,,,,,576,0,3,,,,,2,,,69,0
202176,note_on,,,,,0,0,1,,,,,0,,,74,75
202176,note_off,,,,,576,0,1,,,,,0,,,69,0
202368,note_off,,,,,192,0,1,,,,,0,,,74,0
202368,note_on,,,,,0,0,1,,,,,0,,,72,75
202368,note_off,,,,,192,0,3,,,,,2,,,74,0
202368,note_on,,,,,0,0,3,,,,,2,,,72,92
202560,note_on,,,,,0,0,1,,,,,0,,,69,75
202560,note_off,,,,,192,0,3,,,,,2,,,72,0
202560,note_off,,,,,192,0,1,,,,,0,,,72,0
202560,note_on,,,,,0,0,3,,,,,2,,,69,92
202656,note_off,,,,,0,0,8,,,,,7,,,72,0
202656,note_off,,,,,672,0,7,,,,,6,,,42,0
202656,note_off,,,,,672,0,9,,,,,8,,,54,0
202656,note_off,,,,,0,0,8,,,,,7,,,69,0
202656,note_off,,,,,672,0,8,,,,,7,,,62,0
202752,note_on,,,,,0,0,4,,,,,3,,,67,92
202752,note_off,,,,,768,0,4,,,,,3,,,69,0
202752,note_on,,,,,0,0,8,,,,,7,,,70,37
202752,note_on,,,,,0,0,5,,,,,4,,,62,75
202752,note_on,,,,,0,0,6,,,,,5,,,55,75
202752,note_off,,,,,768,0,6,,,,,5,,,54,0
202752,note_off,,,,,768,0,5,,,,,4,,,62,0
202752,note_off,,,,,192,0,1,,,,,0,,,69,0
202752,note_on,,,,,0,0,2,,,,,1,,,67,75
202752,note_on,,,,,0,0,3,,,,,2,,,70,92
202752,note_off,,,,,192,0,3,,,,,2,,,69,0
202752,note_on,,,,,96,0,8,,,,,7,,,62,37
202752,note_on,,,,,0,0,8,,,,,7,,,67,37
202752,note_on,,,,,96,0,7,,,,,6,,,43,63
202752,note_on,,,,,0,0,1,,,,,0,,,70,75
202752,note_off,,,,,768,0,2,,,,,1,,,69,0
202752,note_on,,,,,96,0,9,,,,,8,,,55,37
202944,note_on,,,,,0,0,1,,,,,0,,,67,75
202944,note_off,,,,,192,0,3,,,,,2,,,70,0
202944,note_on,,,,,0,0,3,,,,,2,,,67,92
202944,note_off,,,,,192,0,1,,,,,0,,,70,0
203072,note_off,,,,,320,0,9,,,,,8,,,55,0
203072,note_off,,,,,0,0,8,,,,,7,,,70,0
203072,note_off,,,,,320,0,7,,,,,6,,,43,0
203072,note_off,,,,,320,0,8,,,,,7,,,62,0
203136,note_on,,,,,64,0,9,,,,,8,,,48,37
203136,note_on,,,,,0,0,6,,,,,5,,,48,75
203136,note_on,,,,,0,0,1,,,,,0,,,69,75
203136,note_off,,,,,384,0,6,,,,,5,,,55,0
203136,note_off,,,,,192,0,1,,,,,0,,,67,0
203136,note_off,,,,,192,0,3,,,,,2,,,67,0
203136,note_off,,,,,384,0,5,,,,,4,,,62,0
203136,note_on,,,,,0,0,8,,,,,7,,,69,37
203136,note_on,,,,,0,0,5,,,,,4,,,63,75
203136,note_on,,,,,64,0,8,,,,,7,,,63,37
203136,note_on,,,,,64,0,7,,,,,6,,,36,63
203136,note_on,,,,,0,0,3,,,,,2,,,69,92
203328,note_on,,,,,0,0,1,,,,,0,,,60,75
203328,note_off,,,,,192,0,1,,,,,0,,,69,0
203328,note_on,,,,,0,0,3,,,,,2,,,60,92
203328,note_off,,,,,192,0,3,,,,,2,,,69,0
203456,note_off,,,,,0,0,8,,,,,7,,,69,0
203456,note_off,,,,,320,0,7,,,,,6,,,36,0
203456,note_off,,,,,0,0,8,,,,,7,,,63,0
203456,note_off,,,,,320,0,8,,,,,7,,,67,0
203456,note_off,,,,,320,0,9,,,,,8,,,48,0
203520,note_on,,,,,64,0,7,,,,,6,,,38,63
203520,note_on,,,,,0,0,5,,,,,4,,,62,75
203520,note_off,,,,,384,0,5,,,,,4,,,63,0
203520,note_on,,,,,64,0,8,,,,,7,,,62,37
203520,note_off,,,,,192,0,1,,,,,0,,,60,0
203520,note_on,,,,,0,0,8,,,,,7,,,70,37
203520,note_on,,,,,0,0,8,,,,,7,,,67,37
203520,note_on,,,,,0,0,1,,,,,0,,,58,75
203520,note_off,,,,,384,0,6,,,,,5,,,48,0
203520,note_on,,,,,0,0,6,,,,,5,,,50,75
203520,note_on,,,,,64,0,9,,,,,8,,,50,37
203520,note_off,,,,,192,0,3,,,,,2,,,60,0
203520,note_on,,,,,0,0,3,,,,,2,,,58,92
203712,note_off,,,,,192,0,1,,,,,0,,,58,0
203712,note_on,,,,,0,0,1,,,,,0,,,62,75
203712,note_off,,,,,192,0,3,,,,,2,,,58,0
203712,note_on,,,,,0,0,3,,,,,2,,,62,92
203904,note_on,,,,,0,0,3,,,,,2,,,67,92
203904,note_off,,,,,1152,0,4,,,,,3,,,67,0
203904,note_off,,,,,192,0,3,,,,,2,,,62,0
203904,note_off,,,,,1152,0,2,,,,,1,,,67,0
203904,note_on,,,,,0,0,2,,,,,1,,,67,75
203904,note_on,,,,,0,0,4,,,,,3,,,67,92
203904,note_on,,,,,0,0,1,,,,,0,,,67,75
203904,note_off,,,,,192,0,1,,,,,0,,,62,0
204192,note_off,,,,,0,0,8,,,,,7,,,67,0
204192,note_off,,,,,672,0,9,,,,,8,,,50,0
204192,note_off,,,,,0,0,8,,,,,7,,,70,0
204192,note_off,,,,,672,0,7,,,,,6,,,38,0
204192,note_off,,,,,672,0,8,,,,,7,,,62,0
204288,note_off,,,,,384,0,2,,,,,1,,,67,0
204288,note_on,,,,,0,0,2,,,,,1,,,66,75
204288,note_on,,,,,96,0,9,,,,,8,,,38,37
204288,note_on,,,,,0,0,1,,,,,0,,,69,75
204288,note_off,,,,,768,0,5,,,,,4,,,62,0
204288,note_off,,,,,384,0,1,,,,,0,,,67,0
204288,note_on,,,,,0,0,5,,,,,4,,,62,75
204288,note_off,,,,,384,0,3,,,,,2,,,67,0
204288,note_on,,,,,0,0,8,,,,,7,,,69,37
204288,note_on,,,,,0,0,3,,,,,2,,,69,92
204288,note_on,,,,,0,0,8,,,,,7,,,66,37
204288,note_on,,,,,0,0,4,,,,,3,,,66,92
204288,note_off,,,,,384,0,4,,,,,3,,,67,0
204288,note_on,,,,,96,0,8,,,,,7,,,62,37
204288,note_on,,,,,0,0,6,,,,,5,,,38,75
204288,note_off,,,,,768,0,6,,,,,5,,,50,0
204288,note_on,,,,,96,0,7,,,,,6,,,26,63
204480,note_on,,,,,0,0,1,,,,,0,,,72,75
204480,note_off,,,,,192,0,1,,,,,0,,,69,0
204480,note_on,,,,,0,0,3,,,,,2,,,72,92
204480,note_off,,,,,192,0,3,,,,,2,,,69,0
204672,note_on,,,,,0,0,4,,,,,3,,,72,92
204672,note_off,,,,,384,0,2,,,,,1,,,66,0
204672,note_on,,,,,0,0,2,,,,,1,,,72,75
204672,note_off,,,,,384,0,4,,,,,3,,,66,0
204672,note_on,,,,,0,0,1,,,,,0,,,78,75
204672,note_off,,,,,192,0,1,,,,,0,,,72,0
204672,note_on,,,,,0,0,3,,,,,2,,,78,92
204672,note_off,,,,,192,0,3,,,,,2,,,72,0
204960,note_off,,,,,672,0,9,,,,,8,,,38,0
204960,note_off,,,,,672,0,7,,,,,6,,,26,0
204960,note_off,,,,,672,0,8,,,,,7,,,62,0
204960,note_off,,,,,0,0,8,,,,,7,,,66,0
204960,note_off,,,,,0,0,8,,,,,7,,,69,0
205056,note_on,,,,,0,0,1,,,,,0,,,79,75
205056,note_on,,,,,0,0,8,,,,,7,,,70,37
205056,note_on,,,,,0,0,8,,,,,7,,,67,37
205056,note_on,,,,,96,0,8,,,,,7,,,62,37
205056,note_off,,,,,768,0,5,,,,,4,,,62,0
205056,note_on,,,,,0,0,5,,,,,4,,,62,75
205056,note_off,,,,,384,0,2,,,,,1,,,72,0
205056,note_on,,,,,0,0,2,,,,,1,,,70,75
205056,note_on,,,,,0,0,4,,,,,3,,,70,92
205056,note_off,,,,,384,0,1,,,,,0,,,78,0
205056,note_off,,,,,768,0,6,,,,,5,,,38,0
205056,note_on,,,,,0,0,6,,,,,5,,,43,75
205056,note_off,,,,,384,0,4,,,,,3,,,72,0
205056,note_on,,,,,0,0,3,,,,,2,,,79,92
205056,note_on,,,,,96,0,9,,,,,8,,,43,37
205056,note_on,,,,,96,0,7,,,,,6,,,31,63
205056,note_off,,,,,384,0,3,,,,,2,,,78,0
205248,note_off,,,,,192,0,3,,,,,2,,,79,0
205248,note_off,,,,,192,0,1,,,,,0,,,79,0
205248,note_on,,,,,0,0,1,,,,,0,,,74,75
205248,note_on,,,,,0,0,3,,,,,2,,,74,92
205440,note_off,,,,,192,0,1,,,,,0,,,74,0
205440,note_on,,,,,0,0,1,,,,,0,,,70,75
205440,note_on,,,,,0,0,3,,,,,2,,,70,92
205440,note_off,,,,,192,0,3,,,,,2,,,74,0
205728,note_off,,,,,672,0,7,,,,,6,,,31,0
205728,note_off,,,,,672,0,8,,,,,7,,,62,0
205728,note_off,,,,,0,0,8,,,,,7,,,67,0
205728,note_off,,,,,0,0,8,,,,,7,,,70,0
205728,note_off,,,,,672,0,9,,,,,8,,,43,0
205824,note_off,,,,,768,0,2,,,,,1,,,70,0
205824,note_on,,,,,0,0,2,,,,,1,,,67,75
205824,note_on,,,,,0,0,4,,,,,3,,,67,92
205824,note_off,,,,,768,0,4,,,,,3,,,70,0
205824,note_on,,,,,96,0,8,,,,,7,,,62,37
205824,note_on,,,,,0,0,8,,,,,7,,,70,37
205824,note_on,,,,,0,0,8,,,,,7,,,67,37
205824,note_off,,,,,768,0,5,,,,,4,,,62,0
205824,note_on,,,,,0,0,5,,,,,4,,,58,75
205824,note_off,,,,,768,0,6,,,,,5,,,43,0
205824,note_on,,,,,0,0,6,,,,,5,,,46,75
205824,note_on,,,,,96,0,9,,,,,8,,,46,37
205824,note_on,,,,,96,0,7,,,,,6,,,34,63
206016,note_on,,,,,0,0,3,,,,,2,,,74,92
206016,note_off,,,,,576,0,3,,,,,2,,,70,0
206016,note_on,,,,,0,0,1,,,,,0,,,74,75
206016,note_off,,,,,576,0,1,,,,,0,,,70,0
206208,note_off,,,,,192,0,3,,,,,2,,,74,0
206208,note_on,,,,,0,0,3,,,,,2,,,67,92
206208,note_on,,,,,0,0,1,,,,,0,,,67,75
206208,note_off,,,,,192,0,1,,,,,0,,,74,0
206496,note_off,,,,,0,0,8,,,,,7,,,67,0
206496,note_off,,,,,672,0,9,,,,,8,,,46,0
206496,note_off,,,,,0,0,8,,,,,7,,,70,0
206496,note_off,,,,,672,0,7,,,,,6,,,34,0
206496,note_off,,,,,672,0,8,,,,,7,,,62,0
206592,note_on,,,,,0,0,6,,,,,5,,,43,75
206592,note_on,,,,,0,0,2,,,,,1,,,70,75
206592,note_on,,,,,0,0,8,,,,,7,,,70,37
206592,note_on,,,,,0,0,8,,,,,7,,,67,37
206592,note_on,,,,,96,0,8,,,,,7,,,62,37
206592,note_off,,,,,768,0,2,,,,,1,,,67,0
206592,note_on,,,,,96,0,7,,,,,6,,,31,63
206592,note_off,,,,,768,0,4,,,,,3,,,67,0
206592,note_off,,,,,768,0,6,,,,,5,,,46,0
206592,note_on,,,,,0,0,5,,,,,4,,,62,75
206592,note_off,,,,,768,0,5,,,,,4,,,58,0
206592,note_on,,,,,96,0,9,,,,,8,,,43,37
206592,note_on,,,,,0,0,4,,,,,3,,,70,92
206784,note_off,,,,,576,0,1,,,,,0,,,67,0
206784,note_on,,,,,0,0,1,,,,,0,,,82,75
206784,note_on,,,,,0,0,3,,,,,2,,,82,92
206784,note_off,,,,,576,0,3,,,,,2,,,67,0
206976,note_on,,,,,0,0,1,,,,,0,,,79,75
206976,note_on,,,,,0,0,3,,,,,2,,,79,92
206976,note_off,,,,,192,0,3,,,,,2,,,82,0
206976,note_on,,,,,0,0,5,,,,,4,,,70,75
206976,note_off,,,,,384,0,5,,,,,4,,,62,0
206976,note_off,,,,,192,0,1,,,,,0,,,82,0
207264,note_off,,,,,672,0,9,,,,,8,,,43,0
207264,note_off,,,,,672,0,7,,,,,6,,,31,0
207264,note_off,,,,,0,0,8,,,,,7,,,67,0
207264,note_off,,,,,0,0,8,,,,,7,,,70,0
207264,note_off,,,,,672,0,8,,,,,7,,,62,0
207360,note_off,,,,,768,0,2,,,,,1,,,70,0
207360,note_on,,,,,0,0,2,,,,,1,,,72,75
207360,note_on,,,,,0,0,4,,,,,3,,,72,92
207360,note_on,,,,,0,0,6,,,,,5,,,48,75
207360,note_off,,,,,768,0,4,,,,,3,,,70,0
207360,note_on,,,,,96,0,8,,,,,7,,,60,37
207360,note_off,,,,,384,0,5,,,,,4,,,70,0
207360,note_on,,,,,0,0,8,,,,,7,,,64,37
207360,note_on,,,,,0,0,5,,,,,4,,,68,75
207360,note_on,,,,,0,0,8,,,,,7,,,68,37
207360,note_off,,,,,768,0,6,,,,,5,,,43,0
207360,note_on,,,,,96,0,7,,,,,6,,,36,63
207360,note_on,,,,,96,0,9,,,,,8,,,48,37
207552,note_on,,,,,0,0,1,,,,,0,,,82,75
207552,note_off,,,,,576,0,1,,,,,0,,,79,0
207552,note_off,,,,,576,0,3,,,,,2,,,79,0
207552,note_on,,,,,0,0,3,,,,,2,,,82,92
207744,note_on,,,,,0,0,3,,,,,2,,,80,92
207744,note_off,,,,,192,0,1,,,,,0,,,82,0
207744,note_off,,,,,192,0,3,,,,,2,,,82,0
207744,note_on,,,,,0,0,1,,,,,0,,,80,75
207936,note_off,,,,,192,0,3,,,,,2,,,80,0
207936,note_on,,,,,0,0,3,,,,,2,,,79,92
207936,note_on,,,,,0,0,1,,,,,0,,,79,75
207936,note_off,,,,,192,0,1,,,,,0,,,80,0
208032,note_off,,,,,672,0,7,,,,,6,,,36,0
208032,note_off,,,,,672,0,8,,,,,7,,,60,0
208032,note_off,,,,,0,0,8,,,,,7,,,64,0
208032,note_off,,,,,672,0,9,,,,,8,,,48,0
208128,note_on,,,,,96,0,9,,,,,8,,,53,37
208128,note_on,,,,,0,0,3,,,,,2,,,80,92
208128,note_off,,,,,192,0,3,,,,,2,,,79,0
208128,note_on,,,,,0,0,8,,,,,7,,,65,37
208128,note_off,,,,,192,0,1,,,,,0,,,79,0
208128,note_on,,,,,0,0,8,,,,,7,,,68,37
208128,note_on,,,,,0,0,1,,,,,0,,,80,75
208128,note_off,,,,,768,0,6,,,,,5,,,48,0
208128,note_on,,,,,96,0,7,,,,,6,,,41,63
208128,note_on,,,,,0,0,6,,,,,5,,,53,75
208128,note_on,,,,,96,0,8,,,,,7,,,60,37
208320,note_on,,,,,0,0,1,,,,,0,,,72,75
208320,note_on,,,,,0,0,3,,,,,2,,,72,92
208320,note_off,,,,,192,0,1,,,,,0,,,80,0
208320,note_off,,,,,192,0,3,,,,,2,,,80,0
208512,note_off,,,,,192,0,3,,,,,2,,,72,0
208512,note_on,,,,,0,0,4,,,,,3,,,68,92
208512,note_on,,,,,0,0,3,,,,,2,,,74,92
208512,note_off,,,,,192,0,1,,,,,0,,,72,0
208512,note_on,,,,,0,0,1,,,,,0,,,74,75
208512,note_off,,,,,1152,0,4,,,,,3,,,72,0
208512,note_off,,,,,1152,0,2,,,,,1,,,72,0
208512,note_on,,,,,0,0,2,,,,,1,,,68,75
208704,note_off,,,,,192,0,1,,,,,0,,,74,0
208704,note_on,,,,,0,0,3,,,,,2,,,72,92
208704,note_off,,,,,192,0,3,,,,,2,,,74,0
208704,note_on,,,,,0,0,1,,,,,0,,,72,75
208800,note_off,,,,,672,0,7,,,,,6,,,41,0
208800,note_off,,,,,672,0,9,,,,,8,,,53,0
208800,note_off,,,,,0,0,8,,,,,7,,,65,0
208800,note_off,,,,,672,0,8,,,,,7,,,60,0
208848,note_off,,,,,48,0,8,,,,,7,,,68,64
208896,note_on,,,,,96,0,9,,,,,8,,,50,37
208896,note_on,,,,,0,0,2,,,,,1,,,65,75
208896,note_off,,,,,768,0,6,,,,,5,,,53,0
208896,note_on,,,,,0,0,6,,,,,5,,,50,75
208896,note_off,,,,,384,0,2,,,,,1,,,68,0
208896,note_on,,,,,96,0,7,,,,,6,,,38,63
208896,note_on,,,,,0,0,3,,,,,2,,,70,92
208896,note_on,,,,,0,0,8,,,,,7,,,65,37
208896,note_on,,,,,0,0,5,,,,,4,,,70,75
208896,note_off,,,,,1536,0,5,,,,,4,,,68,0
208896,note_on,,,,,48,0,8,,,,,7,,,58,37
208896,note_off,,,,,384,0,4,,,,,3,,,68,0
208896,note_on,,,,,0,0,4,,,,,3,,,65,92
208896,note_off,,,,,192,0,1,,,,,0,,,72,0
208896,note_on,,,,,0,0,1,,,,,0,,,70,75
208896,note_on,,,,,0,0,8,,,,,7,,,68,37
208896,note_off,,,,,192,0,3,,,,,2,,,72,0
209088,note_on,,,,,0,0,3,,,,,2,,,80,92
209088,note_on,,,,,0,0,1,,,,,0,,,80,75
209088,note_off,,,,,192,0,3,,,,,2,,,70,0
209088,note_off,,,,,192,0,1,,,,,0,,,70,0
209280,note_on,,,,,0,0,1,,,,,0,,,79,75
209280,note_off,,,,,192,0,1,,,,,0,,,80,0
209280,note_off,,,,,192,0,3,,,,,2,,,80,0
209280,note_on,,,,,0,0,3,,,,,2,,,79,92
209472,note_on,,,,,0,0,1,,,,,0,,,77,75
209472,note_on,,,,,0,0,3,,,,,2,,,77,92
209472,note_off,,,,,192,0,3,,,,,2,,,79,0
209472,note_off,,,,,192,0,1,,,,,0,,,79,0
209568,note_off,,,,,672,0,8,,,,,7,,,68,0
209568,note_off,,,,,0,0,8,,,,,7,,,65,0
209568,note_off,,,,,672,0,9,,,,,8,,,50,0
209568,note_off,,,,,672,0,7,,,,,6,,,38,0
209568,note_off,,,,,0,0,8,,,,,7,,,58,0
209616,note_off,,,,,48,0,8,,,,,7,,,68,64
209664,note_off,,,,,192,0,3,,,,,2,,,77,0
209664,note_off,,,,,768,0,6,,,,,5,,,50,0
209664,note_on,,,,,0,0,6,,,,,5,,,51,75
209664,note_off,,,,,768,0,4,,,,,3,,,65,0
209664,note_on,,,,,0,0,3,,,,,2,,,79,92
209664,note_on,,,,,0,0,8,,,,,7,,,67,37
209664,note_on,,,,,0,0,8,,,,,7,,,63,37
209664,note_on,,,,,48,0,8,,,,,7,,,58,37
209664,note_off,,,,,192,0,1,,,,,0,,,77,0
209664,note_on,,,,,0,0,1,,,,,0,,,79,75
209664,note_on,,,,,0,0,4,,,,,3,,,63,92
209664,note_off,,,,,768,0,5,,,,,4,,,70,0
209664,note_on,,,,,96,0,9,,,,,8,,,51,37
209664,note_off,,,,,768,0,2,,,,,1,,,65,0
209664,note_on,,,,,0,0,2,,,,,1,,,63,75
209664,note_on,,,,,0,0,5,,,,,4,,,70,75
209664,note_on,,,,,96,0,7,,,,,6,,,39,63
209856,note_on,,,,,0,0,1,,,,,0,,,82,75
209856,note_off,,,,,192,0,1,,,,,0,,,79,0
209856,note_on,,,,,0,0,3,,,,,2,,,82,92
209856,note_off,,,,,192,0,3,,,,,2,,,79,0
210048,note_on,,,,,0,0,1,,,,,0,,,75,75
210048,note_off,,,,,192,0,1,,,,,0,,,82,0
210048,note_on,,,,,0,0,3,,,,,2,,,75,92
210048,note_off,,,,,192,0,3,,,,,2,,,82,0
210336,note_off,,,,,672,0,7,,,,,6,,,39,0
210336,note_off,,,,,672,0,9,,,,,8,,,51,0
210336,note_off,,,,,0,0,8,,,,,7,,,67,0
210336,note_off,,,,,0,0,8,,,,,7,,,63,0
210336,note_off,,,,,672,0,8,,,,,7,,,58,0
210432,note_on,,,,,0,0,8,,,,,7,,,63,37
210432,note_on,,,,,96,0,8,,,,,7,,,58,37
210432,note_on,,,,,0,0,2,,,,,1,,,70,75
210432,note_on,,,,,0,0,4,,,,,3,,,70,92
210432,note_off,,,,,768,0,6,,,,,5,,,51,0
210432,note_on,,,,,0,0,5,,,,,4,,,67,75
210432,note_off,,,,,768,0,5,,,,,4,,,70,0
210432,note_off,,,,,768,0,2,,,,,1,,,63,0
210432,note_off,,,,,768,0,4,,,,,3,,,63,0
210432,note_on,,,,,0,0,6,,,,,5,,,55,75
210432,note_on,,,,,0,0,8,,,,,7,,,70,37
210432,note_on,,,,,96,0,7,,,,,6,,,43,63
210432,note_on,,,,,96,0,9,,,,,8,,,55,37
210624,note_on,,,,,0,0,3,,,,,2,,,79,92
210624,note_off,,,,,576,0,1,,,,,0,,,75,0
210624,note_on,,,,,0,0,1,,,,,0,,,79,75
210624,note_off,,,,,576,0,3,,,,,2,,,75,0
210816,note_off,,,,,192,0,1,,,,,0,,,79,0
210816,note_off,,,,,192,0,3,,,,,2,,,79,0
210816,note_on,,,,,0,0,1,,,,,0,,,70,75
210816,note_on,,,,,0,0,3,,,,,2,,,70,92
211104,note_off,,,,,672,0,9,,,,,8,,,55,0
211104,note_off,,,,,0,0,8,,,,,7,,,63,0
211104,note_off,,,,,672,0,8,,,,,7,,,58,0
211104,note_off,,,,,672,0,7,,,,,6,,,43,0
211200,note_off,,,,,768,0,6,,,,,5,,,55,0
211200,note_on,,,,,96,0,9,,,,,8,,,56,37
211200,note_on,,,,,0,0,4,,,,,3,,,60,92
211200,note_off,,,,,768,0,2,,,,,1,,,70,0
211200,note_on,,,,,0,0,2,,,,,1,,,60,75
211200,note_on,,,,,96,0,7,,,,,6,,,44,63
211200,note_off,,,,,768,0,4,,,,,3,,,70,0
211200,note_off,,,,,768,0,5,,,,,4,,,67,0
211200,note_on,,,,,0,0,5,,,,,4,,,63,75
211200,note_on,,,,,96,0,8,,,,,7,,,60,37
211200,note_on,,,,,0,0,8,,,,,7,,,63,37
211200,note_on,,,,,0,0,6,,,,,5,,,56,75
211392,note_on,,,,,0,0,1,,,,,0,,,72,75
211392,note_off,,,,,576,0,3,,,,,2,,,70,0
211392,note_off,,,,,576,0,1,,,,,0,,,70,0
211392,note_on,,,,,0,0,3,,,,,2,,,72,92
211520,note_off,,,,,320,0,8,,,,,7,,,70,0
211584,note_on,,,,,0,0,1,,,,,0,,,68,75
211584,note_on,,,,,64,0,8,,,,,7,,,68,37
211584,note_on,,,,,0,0,3,,,,,2,,,68,92
211584,note_off,,,,,192,0,3,,,,,2,,,72,0
211584,note_off,,,,,192,0,1,,,,,0,,,72,0
211872,note_off,,,,,672,0,7,,,,,6,,,44,0
211872,note_off,,,,,288,0,8,,,,,7,,,60,0
211872,note_off,,,,,0,0,8,,,,,7,,,63,0
211872,note_off,,,,,672,0,9,,,,,8,,,56,0
211968,note_off,,,,,768,0,4,,,,,3,,,60,0
211968,note_on,,,,,96,0,8,,,,,7,,,62,37
211968,note_on,,,,,0,0,4,,,,,3,,,65,92
211968,note_on,,,,,96,0,9,,,,,8,,,58,37
211968,note_off,,,,,768,0,5,,,,,4,,,63,0
211968,note_off,,,,,768,0,6,,,,,5,,,56,0
211968,note_on,,,,,0,0,6,,,,,5,,,58,75
211968,note_on,,,,,96,0,7,,,,,6,,,46,63
211968,note_on,,,,,0,0,5,,,,,4,,,62,75
211968,note_off,,,,,768,0,2,,,,,1,,,60,0
211968,note_on,,,,,0,0,2,,,,,1,,,65,75
212160,note_off,,,,,576,0,1,,,,,0,,,68,0
212160,note_on,,,,,0,0,1,,,,,0,,,70,75
212160,note_on,,,,,0,0,3,,,,,2,,,70,92
212160,note_off,,,,,576,0,3,,,,,2,,,68,0
212288,note_off,,,,,320,0,9,,,,,8,,,58,0
212288,note_off,,,,,320,0,8,,,,,7,,,62,0
212288,note_off,,,,,320,0,7,,,,,6,,,46,0
212352,note_on,,,,,0,0,1,,,,,0,,,67,75
212352,note_off,,,,,192,0,1,,,,,0,,,70,0
212352,note_on,,,,,0,0,3,,,,,2,,,67,92
212352,note_on,,,,,64,0,8,,,,,7,,,63,37
212352,note_on,,,,,0,0,8,,,,,7,,,67,37
212352,note_on,,,,,0,0,6,,,,,5,,,60,75
212352,note_on,,,,,0,0,5,,,,,4,,,63,75
212352,note_on,,,,,0,0,4,,,,,3,,,63,92
212352,note_on,,,,,64,0,9,,,,,8,,,60,37
212352,note_off,,,,,384,0,4,,,,,3,,,65,0
212352,note_off,,,,,192,0,3,,,,,2,,,70,0
212352,note_on,,,,,64,0,7,,,,,6,,,48,63
212352,note_off,,,,,384,0,6,,,,,5,,,58,0
212352,note_off,,,,,384,0,2,,,,,1,,,65,0
212352,note_off,,,,,384,0,5,,,,,4,,,62,0
212352,note_on,,,,,0,0,2,,,,,1,,,63,75
212464,note_off,,,,,112,0,8,,,,,7,,,68,64
212544,note_off,,,,,192,0,1,,,,,0,,,67,0
212544,note_on,,,,,0,0,1,,,,,0,,,68,75
212544,note_off,,,,,192,0,3,,,,,2,,,67,0
212544,note_on,,,,,0,0,3,,,,,2,,,68,92
212672,note_off,,,,,208,0,8,,,,,7,,,63,0
212672,note_off,,,,,0,0,8,,,,,7,,,67,0
212672,note_off,,,,,320,0,7,,,,,6,,,48,0
212736,note_on,,,,,64,0,8,,,,,7,,,63,37
212736,note_on,,,,,0,0,4,,,,,3,,,63,92
212736,note_off,,,,,384,0,4,,,,,3,,,63,0
212736,note_on,,,,,384,0,9,,,,,8,,,56,37
212736,note_on,,,,,0,0,8,,,,,7,,,65,37
212736,note_on,,,,,0,0,3,,,,,2,,,65,92
212736,note_off,,,,,192,0,1,,,,,0,,,68,0
212736,note_off,,,,,192,0,3,,,,,2,,,68,0
212736,note_on,,,,,0,0,1,,,,,0,,,65,75
212736,note_on,,,,,0,0,6,,,,,5,,,56,75
212736,note_off,,,,,384,0,2,,,,,1,,,63,0
212736,note_on,,,,,0,0,2,,,,,1,,,63,75
212736,note_off,,,,,384,0,6,,,,,5,,,60,0
212736,note_on,,,,,64,0,7,,,,,6,,,44,63
212736,note_on,,,,,0,0,5,,,,,4,,,60,75
212736,note_off,,,,,384,0,5,,,,,4,,,63,0
212928,note_on,,,,,0,0,1,,,,,0,,,62,75
212928,note_on,,,,,0,0,3,,,,,2,,,62,92
212928,note_off,,,,,192,0,1,,,,,0,,,65,0
212928,note_off,,,,,192,0,3,,,,,2,,,65,0
213120,note_off,,,,,192,0,1,,,,,0,,,62,0
213120,note_on,,,,,0,0,1,,,,,0,,,63,75
213120,note_off,,,,,192,0,3,,,,,2,,,62,0
213120,note_on,,,,,0,0,3,,,,,2,,,63,92
213408,note_off,,,,,672,0,7,,,,,6,,,44,0
213408,note_off,,,,,672,0,8,,,,,7,,,63,0
213408,note_off,,,,,0,0,8,,,,,7,,,65,0
213408,note_off,,,,,0,0,9,,,,,8,,,56,0
213408,note_off,,,,,672,0,9,,,,,8,,,60,0
213504,note_off,,,,,768,0,4,,,,,3,,,63,0
213504,note_on,,,,,0,0,4,,,,,3,,,58,92
213504,note_off,,,,,768,0,5,,,,,4,,,60,0
213504,note_on,,,,,0,0,5,,,,,4,,,65,75
213504,note_off,,,,,768,0,6,,,,,5,,,56,0
213504,note_on,,,,,0,0,2,,,,,1,,,58,75
213504,note_off,,,,,768,0,2,,,,,1,,,63,0
213504,note_on,,,,,96,0,9,,,,,8,,,58,37
213504,note_on,,,,,0,0,6,,,,,5,,,58,75
213504,note_on,,,,,0,0,8,,,,,7,,,65,37
213504,note_on,,,,,96,0,8,,,,,7,,,62,37
213504,note_on,,,,,96,0,7,,,,,6,,,46,63
213696,note_off,,,,,576,0,1,,,,,0,,,63,0
213696,note_on,,,,,0,0,1,,,,,0,,,62,75
213696,note_on,,,,,0,0,3,,,,,2,,,62,92
213696,note_off,,,,,576,0,3,,,,,2,,,63,0
213824,note_off,,,,,320,0,8,,,,,7,,,65,0
213888,note_on,,,,,0,0,3,,,,,2,,,68,92
213888,note_on,,,,,0,0,1,,,,,0,,,68,75
213888,note_off,,,,,192,0,1,,,,,0,,,62,0
213888,note_on,,,,,64,0,8,,,,,7,,,68,37
213888,note_off,,,,,192,0,3,,,,,2,,,62,0
214176,note_off,,,,,672,0,7,,,,,6,,,46,0
214176,note_off,,,,,288,0,8,,,,,7,,,62,0
214176,note_off,,,,,672,0,9,,,,,8,,,58,0
214272,note_on,,,,,96,0,9,,,,,8,,,51,37
214272,note_on,,,,,0,0,9,,,,,8,,,58,37
214272,note_off,,,,,768,0,5,,,,,4,,,65,0
214272,note_off,,,,,768,0,6,,,,,5,,,58,0
214272,note_on,,,,,96,0,7,,,,,6,,,39,63
214272,note_on,,,,,0,0,5,,,,,4,,,63,75
214272,note_on,,,,,0,0,2,,,,,1,,,58,75
214272,note_off,,,,,768,0,2,,,,,1,,,58,0
214272,note_on,,,,,0,0,4,,,,,3,,,58,92
214272,note_off,,,,,768,0,4,,,,,3,,,58,0
214272,note_on,,,,,0,0,6,,,,,5,,,51,75
214272,note_on,,,,,96,0,8,,,,,7,,,63,37
214464,note_off,,,,,576,0,3,,,,,2,,,68,0
214464,note_on,,,,,0,0,3,,,,,2,,,65,92
214464,note_on,,,,,0,0,1,,,,,0,,,65,75
214464,note_off,,,,,576,0,1,,,,,0,,,68,0
214616,note_off,,,,,344,0,8,,,,,7,,,68,64
214656,note_off,,,,,192,0,3,,,,,2,,,65,0
214656,note_on,,,,,0,0,3,,,,,2,,,67,92
214656,note_off,,,,,192,0,1,,,,,0,,,65,0
214656,note_on,,,,,40,0,8,,,,,7,,,67,37
214656,note_on,,,,,0,0,1,,,,,0,,,67,75
214848,note_off,,,,,192,0,3,,,,,2,,,67,0
214848,note_off,,,,,192,0,1,,,,,0,,,67,0
214848,note_on,,,,,0,0,1,,,,,0,,,63,75
214848,note_on,,,,,0,0,3,,,,,2,,,63,92
214944,note_off,,,,,672,0,7,,,,,6,,,39,0
214944,note_off,,,,,0,0,9,,,,,8,,,58,0
214944,note_off,,,,,672,0,9,,,,,8,,,51,0
214944,note_off,,,,,288,0,8,,,,,7,,,63,0
214976,note_off,,,,,32,0,8,,,,,7,,,67,0
215040,note_off,,,,,192,0,3,,,,,2,,,63,0
215040,note_off,,,,,768,0,4,,,,,3,,,58,0
215040,note_on,,,,,64,0,8,,,,,7,,,63,37
215040,note_on,,,,,0,0,8,,,,,7,,,70,37
215040,note_on,,,,,0,0,9,,,,,8,,,58,37
215040,note_on,,,,,0,0,3,,,,,2,,,70,92
215040,note_off,,,,,768,0,2,,,,,1,,,58,0
215040,note_on,,,,,96,0,9,,,,,8,,,55,37
215040,note_on,,,,,96,0,7,,,,,6,,,43,63
215040,note_on,,,,,0,0,6,,,,,5,,,55,75
215040,note_off,,,,,768,0,6,,,,,5,,,51,0
215040,note_on,,,,,0,0,1,,,,,0,,,70,75
215040,note_off,,,,,192,0,1,,,,,0,,,63,0
215040,note_on,,,,,0,0,2,,,,,1,,,63,75
215040,note_on,,,,,0,0,4,,,,,3,,,63,92
215232,note_off,,,,,192,0,1,,,,,0,,,70,0
215232,note_on,,,,,0,0,1,,,,,0,,,67,75
215232,note_off,,,,,192,0,3,,,,,2,,,70,0
215232,note_on,,,,,0,0,3,,,,,2,,,67,92
215424,note_off,,,,,192,0,1,,,,,0,,,67,0
215424,note_on,,,,,0,0,1,,,,,0,,,75,75
215424,note_off,,,,,192,0,3,,,,,2,,,67,0
215424,note_off,,,,,1152,0,5,,,,,4,,,63,0
215424,note_on,,,,,0,0,5,,,,,4,,,58,75
215424,note_on,,,,,0,0,3,,,,,2,,,75,92
215712,note_off,,,,,672,0,7,,,,,6,,,43,0
215712,note_off,,,,,672,0,9,,,,,8,,,55,0
215712,note_off,,,,,0,0,9,,,,,8,,,58,0
215712,note_off,,,,,672,0,8,,,,,7,,,63,0
215712,note_off,,,,,0,0,8,,,,,7,,,70,0
215808,note_on,,,,,0,0,2,,,,,1,,,70,75
215808,note_on,,,,,0,0,6,,,,,5,,,51,75
215808,note_off,,,,,768,0,6,,,,,5,,,55,0
215808,note_off,,,,,768,0,2,,,,,1,,,63,0
215808,note_on,,,,,0,0,9,,,,,8,,,58,37
215808,note_on,,,,,0,0,4,,,,,3,,,70,92
215808,note_off,,,,,768,0,4,,,,,3,,,63,0
215808,note_on,,,,,96,0,8,,,,,7,,,63,37
215808,note_off,,,,,384,0,5,,,,,4,,,58,0
215808,note_on,,,,,0,0,5,,,,,4,,,67,75
215808,note_on,,,,,96,0,7,,,,,6,,,39,63
215808,note_on,,,,,96,0,9,,,,,8,,,51,37
215808,note_on,,,,,0,0,8,,,,,7,,,67,37
216000,note_off,,,,,576,0,3,,,,,2,,,75,0
216000,note_on,,,,,0,0,3,,,,,2,,,72,92
216000,note_off,,,,,576,0,1,,,,,0,,,75,0
216000,note_on,,,,,0,0,1,,,,,0,,,72,75
216192,note_on,,,,,0,0,1,,,,,0,,,79,75
216192,note_on,,,,,0,0,3,,,,,2,,,79,92
216192,note_off,,,,,192,0,1,,,,,0,,,72,0
216192,note_off,,,,,192,0,3,,,,,2,,,72,0
216480,note_off,,,,,672,0,7,,,,,6,,,39,0
216480,note_off,,,,,672,0,8,,,,,7,,,63,0
216480,note_off,,,,,0,0,8,,,,,7,,,67,0
216480,note_off,,,,,0,0,9,,,,,8,,,58,0
216480,note_off,,,,,672,0,9,,,,,8,,,51,0
216576,note_on,,,,,0,0,8,,,,,7,,,67,37
216576,note_on,,,,,0,0,2,,,,,1,,,62,75
216576,note_off,,,,,768,0,6,,,,,5,,,51,0
216576,note_on,,,,,0,0,6,,,,,5,,,47,75
216576,note_off,,,,,768,0,5,,,,,4,,,67,0
216576,note_on,,,,,0,0,5,,,,,4,,,67,75
216576,note_on,,,,,96,0,8,,,,,7,,,62,37
216576,note_off,,,,,768,0,4,,,,,3,,,70,0
216576,note_on,,,,,0,0,4,,,,,3,,,62,92
216576,note_on,,,,,96,0,9,,,,,8,,,47,37
216576,note_off,,,,,768,0,2,,,,,1,,,70,0
216576,note_on,,,,,96,0,7,,,,,6,,,35,63
216768,note_off,,,,,576,0,1,,,,,0,,,79,0
216768,note_on,,,,,0,0,1,,,,,0,,,67,75
216768,note_on,,,,,0,0,3,,,,,2,,,67,92
216768,note_off,,,,,576,0,3,,,,,2,,,79,0
216960,note_off,,,,,192,0,1,,,,,0,,,67,0
216960,note_on,,,,,0,0,1,,,,,0,,,74,75
216960,note_on,,,,,0,0,3,,,,,2,,,74,92
216960,note_off,,,,,192,0,3,,,,,2,,,67,0
217248,note_off,,,,,672,0,7,,,,,6,,,35,0
217248,note_off,,,,,0,0,8,,,,,7,,,67,0
217248,note_off,,,,,672,0,8,,,,,7,,,62,0
217248,note_off,,,,,672,0,9,,,,,8,,,47,0
217344,note_on,,,,,0,0,4,,,,,3,,,59,92
217344,note_on,,,,,96,0,8,,,,,7,,,59,37
217344,note_on,,,,,96,0,7,,,,,6,,,31,63
217344,note_on,,,,,0,0,8,,,,,7,,,62,37
217344,note_on,,,,,0,0,8,,,,,7,,,67,37
217344,note_off,,,,,768,0,4,,,,,3,,,62,0
217344,note_on,,,,,0,0,5,,,,,4,,,62,75
217344,note_on,,,,,0,0,6,,,,,5,,,43,75
217344,note_off,,,,,768,0,6,,,,,5,,,47,0
217344,note_on,,,,,96,0,9,,,,,8,,,43,37
217344,note_off,,,,,768,0,2,,,,,1,,,62,0
217344,note_on,,,,,0,0,2,,,,,1,,,59,75
217344,note_off,,,,,768,0,5,,,,,4,,,67,0
217536,note_off,,,,,576,0,1,,,,,0,,,74,0
217536,note_off,,,,,576,0,3,,,,,2,,,74,0
217536,note_on,,,,,0,0,1,,,,,0,,,71,75
217536,note_on,,,,,0,0,3,,,,,2,,,71,92
217728,note_off,,,,,192,0,1,,,,,0,,,71,0
217728,note_off,,,,,192,0,3,,,,,2,,,71,0
217728,note_on,,,,,0,0,3,,,,,2,,,77,92
217728,note_on,,,,,0,0,1,,,,,0,,,77,75
218016,note_off,,,,,672,0,8,,,,,7,,,59,0
218016,note_off,,,,,0,0,8,,,,,7,,,62,0
218016,note_off,,,,,0,0,8,,,,,7,,,67,0
218016,note_off,,,,,672,0,9,,,,,8,,,43,0
218016,note_off,,,,,672,0,7,,,,,6,,,31,0
218112,note_on,,,,,96,0,7,,,,,6,,,35,63
218112,note_on,,,,,0,0,6,,,,,5,,,47,75
218112,note_off,,,,,768,0,4,,,,,3,,,59,0
218112,note_off,,,,,768,0,6,,,,,5,,,43,0
218112,note_on,,,,,96,0,8,,,,,7,,,62,37
218112,note_on,,,,,0,0,4,,,,,3,,,62,92
218112,note_on,,,,,0,0,5,,,,,4,,,67,75
218112,note_off,,,,,768,0,5,,,,,4,,,62,0
218112,note_on,,,,,96,0,9,,,,,8,,,47,37
218112,note_on,,,,,0,0,8,,,,,7,,,67,37
218112,note_on,,,,,0,0,2,,,,,1,,,62,75
218112,note_off,,,,,768,0,2,,,,,1,,,59,0
218112,note_on,,,,,0,0,8,,,,,7,,,65,37
218304,note_off,,,,,576,0,3,,,,,2,,,77,0
218304,note_on,,,,,0,0,3,,,,,2,,,68,92
218304,note_on,,,,,0,0,1,,,,,0,,,68,75
218304,note_off,,,,,576,0,1,,,,,0,,,77,0
218496,note_off,,,,,192,0,1,,,,,0,,,68,0
218496,note_on,,,,,0,0,1,,,,,0,,,67,75
218496,note_on,,,,,0,0,3,,,,,2,,,67,92
218496,note_off,,,,,192,0,3,,,,,2,,,68,0
218688,note_off,,,,,192,0,3,,,,,2,,,67,0
218688,note_off,,,,,192,0,1,,,,,0,,,67,0
218688,note_on,,,,,0,0,1,,,,,0,,,65,75
218688,note_on,,,,,0,0,3,,,,,2,,,65,92
218784,note_off,,,,,672,0,9,,,,,8,,,47,0
218784,note_off,,,,,0,0,8,,,,,7,,,67,0
218784,note_off,,,,,0,0,8,,,,,7,,,65,0
218784,note_off,,,,,672,0,8,,,,,7,,,62,0
218784,note_off,,,,,672,0,7,,,,,6,,,35,0
218880,note_on,,,,,96,0,8,,,,,7,,,60,37
218880,note_on,,,,,96,0,7,,,,,6,,,36,63
218880,note_off,,,,,768,0,6,,,,,5,,,47,0
218880,note_on,,,,,0,0,6,,,,,5,,,48,75
218880,note_on,,,,,0,0,8,,,,,7,,,63,37
218880,note_on,,,,,0,0,8,,,,,7,,,67,37
218880,note_off,,,,,192,0,3,,,,,2,,,65,0
218880,note_on,,,,,0,0,2,,,,,1,,,60,75
218880,note_on,,,,,0,0,3,,,,,2,,,63,92
218880,note_on,,,,,0,0,4,,,,,3,,,60,92
218880,note_off,,,,,768,0,4,,,,,3,,,62,0
218880,note_on,,,,,96,0,9,,,,,8,,,48,37
218880,note_on,,,,,0,0,1,,,,,0,,,63,75
218880,note_off,,,,,192,0,1,,,,,0,,,65,0
218880,note_off,,,,,768,0,2,,,,,1,,,62,0
218880,note_off,,,,,768,0,5,,,,,4,,,67,0
218880,note_on,,,,,0,0,5,,,,,4,,,55,75
219072,note_on,,,,,0,0,1,,,,,0,,,67,75
219072,note_off,,,,,192,0,1,,,,,0,,,63,0
219072,note_on,,,,,0,0,3,,,,,2,,,67,92
219072,note_off,,,,,192,0,3,,,,,2,,,63,0
219264,note_on,,,,,0,0,3,,,,,2,,,72,92
219264,note_off,,,,,192,0,1,,,,,0,,,67,0
219264,note_on,,,,,0,0,1,,,,,0,,,72,75
219264,note_off,,,,,192,0,3,,,,,2,,,67,0
219456,note_off,,,,,576,0,4,,,,,3,,,60,0
219456,note_on,,,,,0,0,4,,,,,3,,,62,92
219456,note_off,,,,,576,0,2,,,,,1,,,60,0
219456,note_on,,,,,0,0,2,,,,,1,,,62,75
219552,note_off,,,,,0,0,8,,,,,7,,,67,0
219552,note_off,,,,,672,0,7,,,,,6,,,36,0
219552,note_off,,,,,0,0,8,,,,,7,,,63,0
219552,note_off,,,,,672,0,9,,,,,8,,,48,0
219552,note_off,,,,,672,0,8,,,,,7,,,60,0
219648,note_on,,,,,96,0,8,,,,,7,,,63,37
219648,note_on,,,,,0,0,8,,,,,7,,,67,37
219648,note_on,,,,,0,0,5,,,,,4,,,60,75
219648,note_on,,,,,96,0,7,,,,,6,,,48,63
219648,note_off,,,,,768,0,6,,,,,5,,,48,0
219648,note_on,,,,,0,0,6,,,,,5,,,60,75
219648,note_off,,,,,768,0,5,,,,,4,,,55,0
219648,note_on,,,,,0,0,2,,,,,1,,,63,75
219648,note_off,,,,,192,0,2,,,,,1,,,62,0
219648,note_on,,,,,0,0,4,,,,,3,,,63,92
219648,note_off,,,,,192,0,4,,,,,3,,,62,0
219648,note_on,,,,,96,0,9,,,,,8,,,60,37
219840,note_off,,,,,576,0,3,,,,,2,,,72,0
219840,note_on,,,,,0,0,1,,,,,0,,,67,75
219840,note_off,,,,,576,0,1,,,,,0,,,72,0
219840,note_on,,,,,0,0,3,,,,,2,,,67,92
220032,note_on,,,,,0,0,3,,,,,2,,,79,92
220032,note_on,,,,,0,0,1,,,,,0,,,79,75
220032,note_off,,,,,192,0,1,,,,,0,,,67,0
220032,note_off,,,,,192,0,3,,,,,2,,,67,0
220224,note_off,,,,,576,0,4,,,,,3,,,63,0
220224,note_on,,,,,0,0,4,,,,,3,,,67,92
220224,note_off,,,,,576,0,2,,,,,1,,,63,0
220224,note_on,,,,,0,0,2,,,,,1,,,67,75
220320,note_off,,,,,672,0,9,,,,,8,,,60,0
220320,note_off,,,,,0,0,8,,,,,7,,,67,0
220320,note_off,,,,,672,0,8,,,,,7,,,63,0
220320,note_off,,,,,672,0,7,,,,,6,,,48,0
220416,note_on,,,,,96,0,7,,,,,6,,,36,63
220416,note_off,,,,,192,0,4,,,,,3,,,67,0
220416,note_on,,,,,0,0,6,,,,,5,,,48,75
220416,note_off,,,,,192,0,2,,,,,1,,,67,0
220416,note_off,,,,,768,0,6,,,,,5,,,60,0
220416,note_on,,,,,96,0,8,,,,,7,,,64,37
220416,note_on,,,,,0,0,8,,,,,7,,,67,37
220416,note_on,,,,,0,0,4,,,,,3,,,64,92
220416,note_on,,,,,0,0,8,,,,,7,,,72,37
220416,note_off,,,,,768,0,5,,,,,4,,,60,0
220416,note_on,,,,,0,0,5,,,,,4,,,60,75
220416,note_on,,,,,0,0,2,,,,,1,,,64,75
220416,note_on,,,,,96,0,9,,,,,8,,,48,37
220608,note_on,,,,,0,0,1,,,,,0,,,82,75
220608,note_off,,,,,576,0,1,,,,,0,,,79,0
220608,note_on,,,,,0,0,3,,,,,2,,,82,92
220608,note_off,,,,,576,0,3,,,,,2,,,79,0
220800,note_off,,,,,192,0,3,,,,,2,,,82,0
220800,note_off,,,,,192,0,1,,,,,0,,,82,0
220800,note_on,,,,,0,0,1,,,,,0,,,80,75
220800,note_on,,,,,0,0,3,,,,,2,,,80,92
220992,note_off,,,,,192,0,3,,,,,2,,,80,0
220992,note_on,,,,,0,0,3,,,,,2,,,79,92
220992,note_off,,,,,576,0,4,,,,,3,,,64,0
220992,note_on,,,,,0,0,4,,,,,3,,,60,92
220992,note_off,,,,,576,0,2,,,,,1,,,64,0
220992,note_on,,,,,0,0,1,,,,,0,,,79,75
220992,note_off,,,,,192,0,1,,,,,0,,,80,0
220992,note_on,,,,,0,0,2,,,,,1,,,60,75
221088,note_off,,,,,0,0,8,,,,,7,,,72,0
221088,note_off,,,,,672,0,7,,,,,6,,,36,0
221088,note_off,,,,,672,0,8,,,,,7,,,64,0
221088,note_off,,,,,0,0,8,,,,,7,,,67,0
221088,note_off,,,,,672,0,9,,,,,8,,,48,0
221184,note_on,,,,,0,0,1,,,,,0,,,80,75
221184,note_on,,,,,0,0,3,,,,,2,,,80,92
221184,note_off,,,,,192,0,3,,,,,2,,,79,0
221184,note_on,,,,,0,0,8,,,,,7,,,68,37
221184,note_on,,,,,0,0,8,,,,,7,,,65,37
221184,note_on,,,,,96,0,8,,,,,7,,,60,37
221184,note_on,,,,,96,0,9,,,,,8,,,53,37
221184,note_off,,,,,192,0,2,,,,,1,,,60,0
221184,note_off,,,,,768,0,6,,,,,5,,,48,0
221184,note_on,,,,,96,0,7,,,,,6,,,41,63
221184,note_on,,,,,0,0,2,,,,,1,,,72,75
221184,note_off,,,,,192,0,1,,,,,0,,,79,0
221184,note_on,,,,,0,0,6,,,,,5,,,53,75
221184,note_off,,,,,192,0,4,,,,,3,,,60,0
221184,note_off,,,,,768,0,5,,,,,4,,,60,0
221184,note_on,,,,,0,0,5,,,,,4,,,60,75
221184,note_on,,,,,0,0,4,,,,,3,,,72,92
221376,note_on,,,,,0,0,1,,,,,0,,,79,75
221376,note_off,,,,,192,0,3,,,,,2,,,80,0
221376,note_on,,,,,0,0,3,,,,,2,,,79,92
221376,note_off,,,,,192,0,1,,,,,0,,,80,0
221376,note_off,,,,,192,0,5,,,,,4,,,60,0
221376,note_on,,,,,0,0,5,,,,,4,,,58,75
221568,note_on,,,,,0,0,1,,,,,0,,,77,75
221568,note_off,,,,,192,0,1,,,,,0,,,79,0
221568,note_off,,,,,192,0,5,,,,,4,,,58,0
221568,note_off,,,,,192,0,3,,,,,2,,,79,0
221568,note_on,,,,,0,0,3,,,,,2,,,77,92
221568,note_on,,,,,0,0,5,,,,,4,,,56,75
221760,note_on,,,,,0,0,4,,,,,3,,,70,92
221760,note_off,,,,,576,0,4,,,,,3,,,72,0
221760,note_on,,,,,0,0,2,,,,,1,,,70,75
221760,note_off,,,,,192,0,5,,,,,4,,,56,0
221760,note_off,,,,,576,0,2,,,,,1,,,72,0
221760,note_on,,,,,0,0,5,,,,,4,,,58,75
221856,note_off,,,,,672,0,8,,,,,7,,,60,0
221856,note_off,,,,,672,0,7,,,,,6,,,41,0
221856,note_off,,,,,672,0,9,,,,,8,,,53,0
221856,note_off,,,,,0,0,8,,,,,7,,,65,0
221952,note_off,,,,,192,0,2,,,,,1,,,70,0
221952,note_on,,,,,0,0,2,,,,,1,,,68,75
221952,note_off,,,,,192,0,4,,,,,3,,,70,0
221952,note_on,,,,,0,0,4,,,,,3,,,68,92
221952,note_on,,,,,0,0,5,,,,,4,,,60,75
221952,note_on,,,,,96,0,9,,,,,8,,,41,37
221952,note_off,,,,,192,0,5,,,,,4,,,58,0
221952,note_on,,,,,96,0,7,,,,,6,,,29,63
221952,note_on,,,,,96,0,8,,,,,7,,,60,37
221952,note_on,,,,,0,0,8,,,,,7,,,65,37
221952,note_on,,,,,0,0,8,,,,,7,,,68,37
221952,note_off,,,,,768,0,6,,,,,5,,,53,0
221952,note_on,,,,,0,0,6,,,,,5,,,41,75
222144,note_on,,,,,0,0,3,,,,,2,,,79,92
222144,note_off,,,,,576,0,3,,,,,2,,,77,0
222144,note_on,,,,,0,0,1,,,,,0,,,79,75
222144,note_off,,,,,576,0,1,,,,,0,,,77,0
222336,note_on,,,,,0,0,1,,,,,0,,,75,75
222336,note_off,,,,,192,0,1,,,,,0,,,79,0
222336,note_off,,,,,192,0,3,,,,,2,,,79,0
222336,note_on,,,,,0,0,3,,,,,2,,,75,92
222528,note_on,,,,,0,0,4,,,,,3,,,72,92
222528,note_on,,,,,0,0,2,,,,,1,,,72,75
222528,note_off,,,,,576,0,2,,,,,1,,,68,0
222528,note_off,,,,,576,0,4,,,,,3,,,68,0
222624,note_off,,,,,0,0,8,,,,,7,,,60,0
222624,note_off,,,,,672,0,7,,,,,6,,,29,0
222624,note_off,,,,,672,0,9,,,,,8,,,41,0
222624,note_off,,,,,0,0,8,,,,,7,,,65,0
222624,note_off,,,,,672,0,8,,,,,7,,,68,0
222656,note_off,,,,,32,0,8,,,,,7,,,68,64
222720,note_off,,,,,192,0,2,,,,,1,,,72,0
222720,note_on,,,,,64,0,8,,,,,7,,,60,37
222720,note_on,,,,,0,0,2,,,,,1,,,69,75
222720,note_on,,,,,96,0,9,,,,,8,,,53,37
222720,note_on,,,,,0,0,8,,,,,7,,,63,37
222720,note_off,,,,,768,0,5,,,,,4,,,60,0
222720,note_on,,,,,0,0,6,,,,,5,,,53,75
222720,note_off,,,,,768,0,6,,,,,5,,,41,0
222720,note_on,,,,,0,0,8,,,,,7,,,69,37
222720,note_off,,,,,192,0,4,,,,,3,,,72,0
222720,note_on,,,,,0,0,4,,,,,3,,,69,92
222720,note_on,,,,,96,0,7,,,,,6,,,41,63
222720,note_on,,,,,0,0,5,,,,,4,,,65,75
222912,note_off,,,,,576,0,3,,,,,2,,,75,0
222912,note_on,,,,,0,0,3,,,,,2,,,77,92
222912,note_off,,,,,576,0,1,,,,,0,,,75,0
222912,note_on,,,,,0,0,1,,,,,0,,,77,75
223104,note_off,,,,,192,0,3,,,,,2,,,77,0
223104,note_off,,,,,192,0,1,,,,,0,,,77,0
223104,note_on,,,,,0,0,3,,,,,2,,,72,92
223104,note_on,,,,,0,0,1,,,,,0,,,72,75
223296,note_off,,,,,192,0,3,,,,,2,,,72,0
223296,note_on,,,,,0,0,1,,,,,0,,,75,75
223296,note_off,,,,,192,0,1,,,,,0,,,72,0
223296,note_on,,,,,0,0,3,,,,,2,,,75,92
223392,note_off,,,,,0,0,8,,,,,7,,,63,0
223392,note_off,,,,,0,0,8,,,,,7,,,69,0
223392,note_off,,,,,672,0,8,,,,,7,,,60,0
223392,note_off,,,,,672,0,7,,,,,6,,,41,0
223392,note_off,,,,,672,0,9,,,,,8,,,53,0
223488,note_on,,,,,0,0,2,,,,,1,,,70,75
223488,note_off,,,,,768,0,2,,,,,1,,,69,0
223488,note_on,,,,,0,0,5,,,,,4,,,65,75
223488,note_off,,,,,768,0,5,,,,,4,,,65,0
223488,note_on,,,,,96,0,7,,,,,6,,,34,63
223488,note_off,,,,,768,0,6,,,,,5,,,53,0
223488,note_off,,,,,192,0,3,,,,,2,,,75,0
223488,note_on,,,,,96,0,9,,,,,8,,,46,37
223488,note_on,,,,,0,0,6,,,,,5,,,46,75
223488,note_on,,,,,96,0,8,,,,,7,,,62,37
223488,note_off,,,,,192,0,1,,,,,0,,,75,0
223488,note_on,,,,,0,0,3,,,,,2,,,74,92
223488,note_on,,,,,0,0,1,,,,,0,,,74,75
223488,note_on,,,,,0,0,8,,,,,7,,,70,37
223488,note_off,,,,,768,0,4,,,,,3,,,69,0
223488,note_on,,,,,0,0,4,,,,,3,,,70,92
223680,note_off,,,,,192,0,1,,,,,0,,,74,0
223680,note_on,,,,,0,0,1,,,,,0,,,77,75
223680,note_on,,,,,0,0,3,,,,,2,,,77,92
223680,note_off,,,,,192,0,3,,,,,2,,,74,0
223872,note_off,,,,,192,0,1,,,,,0,,,77,0
223872,note_on,,,,,0,0,1,,,,,0,,,70,75
223872,note_off,,,,,192,0,3,,,,,2,,,77,0
223872,note_on,,,,,0,0,3,,,,,2,,,70,92
224064,note_on,,,,,0,0,4,,,,,3,,,74,92
224064,note_off,,,,,576,0,4,,,,,3,,,70,0
224064,note_off,,,,,576,0,2,,,,,1,,,70,0
224064,note_on,,,,,0,0,2,,,,,1,,,74,75
224160,note_off,,,,,672,0,7,,,,,6,,,34,0
224160,note_off,,,,,672,0,9,,,,,8,,,46,0
224160,note_off,,,,,672,0,8,,,,,7,,,62,0
224256,note_on,,,,,0,0,2,,,,,1,,,62,75
224256,note_on,,,,,96,0,7,,,,,6,,,46,63
224256,note_off,,,,,768,0,5,,,,,4,,,65,0
224256,note_on,,,,,0,0,5,,,,,4,,,65,75
224256,note_off,,,,,768,0,6,,,,,5,,,46,0
224256,note_on,,,,,0,0,6,,,,,5,,,58,75
224256,note_on,,,,,96,0,9,,,,,8,,,58,37
224256,note_off,,,,,192,0,2,,,,,1,,,74,0
224256,note_off,,,,,192,0,4,,,,,3,,,74,0
224256,note_on,,,,,0,0,8,,,,,7,,,65,37
224256,note_on,,,,,96,0,8,,,,,7,,,62,37
224256,note_on,,,,,0,0,4,,,,,3,,,62,92
224448,note_on,,,,,0,0,1,,,,,0,,,77,75
224448,note_on,,,,,0,0,3,,,,,2,,,77,92
224448,note_off,,,,,576,0,3,,,,,2,,,70,0
224448,note_off,,,,,576,0,1,,,,,0,,,70,0
224576,note_off,,,,,320,0,8,,,,,7,,,70,0
224640,note_on,,,,,64,0,8,,,,,7,,,68,37
224640,note_off,,,,,192,0,1,,,,,0,,,77,0
224640,note_on,,,,,0,0,3,,,,,2,,,68,92
224640,note_off,,,,,192,0,3,,,,,2,,,77,0
224640,note_on,,,,,0,0,1,,,,,0,,,68,75
224832,note_off,,,,,576,0,4,,,,,3,,,62,0
224832,note_on,,,,,0,0,4,,,,,3,,,65,92
224832,note_off,,,,,576,0,2,,,,,1,,,62,0
224832,note_on,,,,,0,0,2,,,,,1,,,65,75
224928,note_off,,,,,288,0,8,,,,,7,,,62,0
224928,note_off,,,,,672,0,9,,,,,8,,,58,0
224928,note_off,,,,,672,0,7,,,,,6,,,46,0
224928,note_off,,,,,0,0,8,,,,,7,,,65,0
225024,note_on,,,,,0,0,4,,,,,3,,,58,92
225024,note_on,,,,,96,0,9,,,,,8,,,50,37
225024,note_on,,,,,0,0,9,,,,,8,,,58,37
225024,note_on,,,,,96,0,7,,,,,6,,,38,63
225024,note_on,,,,,96,0,8,,,,,7,,,65,37
225024,note_on,,,,,0,0,8,,,,,7,,,67,37
225024,note_on,,,,,0,0,6,,,,,5,,,50,75
225024,note_off,,,,,768,0,6,,,,,5,,,58,0
225024,note_on,,,,,0,0,2,,,,,1,,,58,75
225024,note_off,,,,,192,0,2,,,,,1,,,65,0
225024,note_off,,,,,768,0,5,,,,,4,,,65,0
225024,note_on,,,,,0,0,5,,,,,4,,,65,75
225024,note_off,,,,,192,0,4,,,,,3,,,65,0
225152,note_off,,,,,128,0,8,,,,,7,,,68,39
225216,note_off,,,,,576,0,3,,,,,2,,,68,0
225216,note_on,,,,,0,0,3,,,,,2,,,70,92
225216,note_off,,,,,576,0,1,,,,,0,,,68,0
225216,note_on,,,,,0,0,1,,,,,0,,,70,75
225344,note_off,,,,,192,0,8,,,,,7,,,67,0
225408,note_off,,,,,192,0,3,,,,,2,,,70,0
225408,note_on,,,,,0,0,3,,,,,2,,,65,92
225408,note_on,,,,,0,0,1,,,,,0,,,65,75
225408,note_off,,,,,192,0,1,,,,,0,,,70,0
225600,note_off,,,,,192,0,1,,,,,0,,,65,0
225600,note_off,,,,,192,0,3,,,,,2,,,65,0
225600,note_on,,,,,0,0,3,,,,,2,,,68,92
225600,note_on,,,,,0,0,1,,,,,0,,,68,75
225696,note_off,,,,,672,0,7,,,,,6,,,38,0
225696,note_off,,,,,672,0,9,,,,,8,,,50,0
225696,note_off,,,,,0,0,9,,,,,8,,,58,0
225728,note_off,,,,,384,0,8,,,,,7,,,65,0
225792,note_on,,,,,96,0,7,,,,,6,,,39,63
225792,note_off,,,,,768,0,5,,,,,4,,,65,0
225792,note_on,,,,,0,0,9,,,,,8,,,58,37
225792,note_on,,,,,0,0,5,,,,,4,,,63,75
225792,note_on,,,,,0,0,1,,,,,0,,,67,75
225792,note_off,,,,,768,0,2,,,,,1,,,58,0
225792,note_on,,,,,96,0,9,,,,,8,,,51,37
225792,note_on,,,,,0,0,4,,,,,3,,,58,92
225792,note_off,,,,,192,0,1,,,,,0,,,68,0
225792,note_on,,,,,64,0,8,,,,,7,,,63,37
225792,note_on,,,,,0,0,3,,,,,2,,,67,92
225792,note_off,,,,,192,0,3,,,,,2,,,68,0
225792,note_off,,,,,768,0,6,,,,,5,,,50,0
225792,note_on,,,,,0,0,6,,,,,5,,,51,75
225792,note_on,,,,,0,0,8,,,,,7,,,67,37
225792,note_off,,,,,768,0,4,,,,,3,,,58,0
225792,note_on,,,,,0,0,2,,,,,1,,,58,75
225984,note_on,,,,,0,0,3,,,,,2,,,70,92
225984,note_off,,,,,192,0,3,,,,,2,,,67,0
225984,note_off,,,,,192,0,1,,,,,0,,,67,0
225984,note_on,,,,,0,0,1,,,,,0,,,70,75
226176,note_on,,,,,0,0,3,,,,,2,,,75,92
226176,note_off,,,,,192,0,3,,,,,2,,,70,0
226176,note_off,,,,,192,0,1,,,,,0,,,70,0
226176,note_on,,,,,0,0,1,,,,,0,,,75,75
226368,note_on,,,,,0,0,2,,,,,1,,,67,75
226368,note_on,,,,,0,0,4,,,,,3,,,67,92
226368,note_off,,,,,576,0,4,,,,,3,,,58,0
226368,note_off,,,,,576,0,2,,,,,1,,,58,0
226464,note_off,,,,,0,0,9,,,,,8,,,58,0
226464,note_off,,,,,672,0,8,,,,,7,,,63,0
226464,note_off,,,,,672,0,9,,,,,8,,,51,0
226464,note_off,,,,,672,0,7,,,,,6,,,39,0
226560,note_on,,,,,0,0,6,,,,,5,,,48,75
226560,note_off,,,,,768,0,6,,,,,5,,,51,0
226560,note_off,,,,,192,0,2,,,,,1,,,67,0
226560,note_on,,,,,0,0,8,,,,,7,,,72,37
226560,note_on,,,,,96,0,8,,,,,7,,,63,37
226560,note_on,,,,,0,0,2,,,,,1,,,63,75
226560,note_on,,,,,0,0,4,,,,,3,,,63,92
226560,note_off,,,,,192,0,4,,,,,3,,,67,0
226560,note_off,,,,,768,0,5,,,,,4,,,63,0
226560,note_on,,,,,96,0,9,,,,,8,,,48,37
226560,note_on,,,,,96,0,7,,,,,6,,,36,63
226560,note_on,,,,,0,0,5,,,,,4,,,57,75
226752,note_on,,,,,0,0,3,,,,,2,,,77,92
226752,note_off,,,,,576,0,3,,,,,2,,,75,0
226752,note_on,,,,,0,0,1,,,,,0,,,77,75
226752,note_off,,,,,576,0,1,,,,,0,,,75,0
226880,note_off,,,,,320,0,7,,,,,6,,,36,0
226880,note_off,,,,,320,0,8,,,,,7,,,67,0
226880,note_off,,,,,0,0,8,,,,,7,,,63,0
226880,note_off,,,,,320,0,9,,,,,8,,,48,0
226944,note_on,,,,,64,0,7,,,,,6,,,45,63
226944,note_off,,,,,384,0,5,,,,,4,,,57,0
226944,note_off,,,,,384,0,6,,,,,5,,,48,0
226944,note_off,,,,,192,0,3,,,,,2,,,77,0
226944,note_on,,,,,0,0,3,,,,,2,,,72,92
226944,note_on,,,,,64,0,8,,,,,7,,,65,37
226944,note_off,,,,,384,0,4,,,,,3,,,63,0
226944,note_on,,,,,0,0,4,,,,,3,,,65,92
226944,note_on,,,,,64,0,9,,,,,8,,,57,37
226944,note_off,,,,,192,0,1,,,,,0,,,77,0
226944,note_on,,,,,0,0,6,,,,,5,,,57,75
226944,note_on,,,,,0,0,5,,,,,4,,,60,75
226944,note_on,,,,,0,0,2,,,,,1,,,65,75
226944,note_off,,,,,384,0,2,,,,,1,,,63,0
226944,note_on,,,,,0,0,1,,,,,0,,,72,75
227136,note_on,,,,,0,0,1,,,,,0,,,75,75
227136,note_on,,,,,0,0,3,,,,,2,,,75,92
227136,note_off,,,,,192,0,3,,,,,2,,,72,0
227136,note_off,,,,,192,0,1,,,,,0,,,72,0
227232,note_off,,,,,288,0,8,,,,,7,,,72,0
227264,note_off,,,,,320,0,7,,,,,6,,,45,0
227264,note_off,,,,,32,0,8,,,,,7,,,65,0
227264,note_off,,,,,320,0,9,,,,,8,,,57,0
227328,note_off,,,,,384,0,5,,,,,4,,,60,0
227328,note_on,,,,,0,0,5,,,,,4,,,58,75
227328,note_on,,,,,64,0,9,,,,,8,,,58,37
227328,note_off,,,,,384,0,2,,,,,1,,,65,0
227328,note_off,,,,,384,0,6,,,,,5,,,57,0
227328,note_on,,,,,64,0,7,,,,,6,,,46,63
227328,note_on,,,,,0,0,2,,,,,1,,,65,75
227328,note_off,,,,,192,0,3,,,,,2,,,75,0
227328,note_on,,,,,0,0,3,,,,,2,,,74,92
227328,note_on,,,,,0,0,4,,,,,3,,,65,92
227328,note_off,,,,,384,0,4,,,,,3,,,65,0
227328,note_off,,,,,192,0,1,,,,,0,,,75,0
227328,note_on,,,,,64,0,8,,,,,7,,,62,37
227328,note_on,,,,,0,0,8,,,,,7,,,65,37
227328,note_on,,,,,0,0,6,,,,,5,,,58,75
227328,note_on,,,,,0,0,1,,,,,0,,,74,75
227520,note_off,,,,,192,0,3,,,,,2,,,74,0
227520,note_on,,,,,0,0,3,,,,,2,,,77,92
227520,note_on,,,,,0,0,1,,,,,0,,,77,75
227520,note_off,,,,,192,0,1,,,,,0,,,74,0
227648,note_off,,,,,320,0,9,,,,,8,,,58,0
227648,note_off,,,,,320,0,7,,,,,6,,,46,0
227712,note_off,,,,,384,0,6,,,,,5,,,58,0
227712,note_off,,,,,192,0,3,,,,,2,,,77,0
227712,note_on,,,,,0,0,3,,,,,2,,,70,92
227712,note_on,,,,,64,0,9,,,,,8,,,50,37
227712,note_on,,,,,0,0,1,,,,,0,,,70,75
227712,note_off,,,,,192,0,1,,,,,0,,,77,0
227712,note_on,,,,,0,0,6,,,,,5,,,50,75
227712,note_on,,,,,64,0,7,,,,,6,,,38,63
227712,note_on,,,,,384,0,8,,,,,7,,,70,37
227904,note_on,,,,,0,0,1,,,,,0,,,77,75
227904,note_off,,,,,192,0,1,,,,,0,,,70,0
227904,note_off,,,,,576,0,2,,,,,1,,,65,0
227904,note_on,,,,,0,0,2,,,,,1,,,58,75
227904,note_off,,,,,192,0,3,,,,,2,,,70,0
227904,note_on,,,,,0,0,3,,,,,2,,,77,92
227904,note_off,,,,,576,0,4,,,,,3,,,65,0
227904,note_on,,,,,0,0,4,,,,,3,,,58,92
228000,note_off,,,,,288,0,8,,,,,7,,,62,0
228032,note_off,,,,,320,0,9,,,,,8,,,50,0
228032,note_off,,,,,320,0,7,,,,,6,,,38,0
228032,note_off,,,,,32,0,8,,,,,7,,,65,0
228032,note_off,,,,,0,0,8,,,,,7,,,70,0
228096,note_on,,,,,0,0,3,,,,,2,,,69,92
228096,note_on,,,,,0,0,4,,,,,3,,,57,92
228096,note_off,,,,,192,0,1,,,,,0,,,77,0
228096,note_on,,,,,0,0,1,,,,,0,,,69,75
228096,note_off,,,,,768,0,5,,,,,4,,,58,0
228096,note_on,,,,,0,0,5,,,,,4,,,60,75
228096,note_on,,,,,0,0,8,,,,,7,,,69,37
228096,note_on,,,,,64,0,8,,,,,7,,,60,37
228096,note_on,,,,,64,0,9,,,,,8,,,53,37
228096,note_off,,,,,192,0,4,,,,,3,,,58,0
228096,note_off,,,,,192,0,3,,,,,2,,,77,0
228096,note_on,,,,,0,0,8,,,,,7,,,65,37
228096,note_on,,,,,0,0,6,,,,,5,,,53,75
228096,note_off,,,,,192,0,2,,,,,1,,,58,0
228096,note_on,,,,,0,0,2,,,,,1,,,57,75
228096,note_on,,,,,64,0,7,,,,,6,,,41,63
228096,note_off,,,,,384,0,6,,,,,5,,,50,0
228288,note_off,,,,,192,0,1,,,,,0,,,69,0
228288,note_off,,,,,192,0,3,,,,,2,,,69,0
228288,note_on,,,,,0,0,3,,,,,2,,,72,92
228288,note_on,,,,,0,0,1,,,,,0,,,72,75
228480,note_on,,,,,0,0,3,,,,,2,,,65,92
228480,note_off,,,,,192,0,3,,,,,2,,,72,0
228480,note_on,,,,,0,0,1,,,,,0,,,65,75
228480,note_off,,,,,192,0,1,,,,,0,,,72,0
228672,note_off,,,,,576,0,4,,,,,3,,,57,0
228672,note_on,,,,,0,0,4,,,,,3,,,72,92
228672,note_on,,,,,0,0,2,,,,,1,,,72,75
228672,note_off,,,,,576,0,2,,,,,1,,,57,0
228768,note_off,,,,,672,0,9,,,,,8,,,53,0
228768,note_off,,,,,0,0,8,,,,,7,,,69,0
228768,note_off,,,,,0,0,8,,,,,7,,,65,0
228768,note_off,,,,,672,0,8,,,,,7,,,60,0
228768,note_off,,,,,672,0,7,,,,,6,,,41,0
228864,note_off,,,,,768,0,5,,,,,4,,,60,0
228864,note_on,,,,,0,0,8,,,,,7,,,65,37
228864,note_on,,,,,96,0,8,,,,,7,,,60,37
228864,note_on,,,,,96,0,9,,,,,8,,,57,37
228864,note_off,,,,,768,0,6,,,,,5,,,53,0
228864,note_on,,,,,0,0,6,,,,,5,,,57,75
228864,note_on,,,,,96,0,7,,,,,6,,,45,63
228864,note_off,,,,,192,0,4,,,,,3,,,72,0
228864,note_on,,,,,0,0,4,,,,,3,,,65,92
228864,note_on,,,,,0,0,5,,,,,4,,,60,75
228864,note_off,,,,,192,0,2,,,,,1,,,72,0
228864,note_on,,,,,0,0,2,,,,,1,,,65,75
229056,note_off,,,,,576,0,1,,,,,0,,,65,0
229056,note_on,,,,,0,0,1,,,,,0,,,77,75
229056,note_on,,,,,0,0,3,,,,,2,,,77,92
229056,note_off,,,,,576,0,3,,,,,2,,,65,0
229248,note_on,,,,,0,0,1,,,,,0,,,72,75
229248,note_off,,,,,192,0,1,,,,,0,,,77,0
229248,note_on,,,,,0,0,3,,,,,2,,,72,92
229248,note_off,,,,,192,0,3,,,,,2,,,77,0
229440,note_off,,,,,576,0,2,,,,,1,,,65,0
229440,note_on,,,,,0,0,2,,,,,1,,,72,75
229440,note_on,,,,,0,0,4,,,,,3,,,72,92
229440,note_off,,,,,576,0,4,,,,,3,,,65,0
229536,note_off,,,,,672,0,7,,,,,6,,,45,0
229536,note_off,,,,,0,0,8,,,,,7,,,65,0
229536,note_off,,,,,672,0,9,,,,,8,,,57,0
229536,note_off,,,,,672,0,8,,,,,7,,,60,0
229632,note_off,,,,,768,0,5,,,,,4,,,60,0
229632,note_on,,,,,0,0,6,,,,,5,,,53,75
229632,note_on,,,,,96,0,8,,,,,7,,,60,37
229632,note_on,,,,,96,0,9,,,,,8,,,53,37
229632,note_off,,,,,768,0,6,,,,,5,,,57,0
229632,note_off,,,,,192,0,4,,,,,3,,,72,0
229632,note_on,,,,,0,0,4,,,,,3,,,69,92
229632,note_on,,,,,0,0,8,,,,,7,,,69,37
229632,note_on,,,,,0,0,5,,,,,4,,,60,75
229632,note_on,,,,,96,0,7,,,,,6,,,41,63
229632,note_on,,,,,0,0,2,,,,,1,,,69,75
229632,note_off,,,,,192,0,2,,,,,1,,,72,0
229632,note_on,,,,,0,0,8,,,,,7,,,65,37
229824,note_off,,,,,576,0,3,,,,,2,,,72,0
229824,note_on,,,,,0,0,1,,,,,0,,,77,75
229824,note_on,,,,,0,0,3,,,,,2,,,77,92
229824,note_off,,,,,576,0,1,,,,,0,,,72,0
230016,note_on,,,,,0,0,1,,,,,0,,,72,75
230016,note_on,,,,,0,0,3,,,,,2,,,72,92
230016,note_off,,,,,192,0,3,,,,,2,,,77,0
230016,note_off,,,,,192,0,1,,,,,0,,,77,0
230208,note_on,,,,,0,0,4,,,,,3,,,72,92
230208,note_off,,,,,576,0,2,,,,,1,,,69,0
230208,note_on,,,,,0,0,1,,,,,0,,,75,75
230208,note_off,,,,,576,0,4,,,,,3,,,69,0
230208,note_on,,,,,0,0,3,,,,,2,,,75,92
230208,note_off,,,,,192,0,3,,,,,2,,,72,0
230208,note_on,,,,,0,0,2,,,,,1,,,72,75
230208,note_off,,,,,192,0,1,,,,,0,,,72,0
230304,note_off,,,,,0,0,8,,,,,7,,,69,0
230304,note_off,,,,,672,0,8,,,,,7,,,60,0
230304,note_off,,,,,672,0,7,,,,,6,,,41,0
230304,note_off,,,,,672,0,9,,,,,8,,,53,0
230304,note_off,,,,,0,0,8,,,,,7,,,65,0
230400,note_on,,,,,96,0,8,,,,,7,,,62,37
230400,note_on,,,,,0,0,8,,,,,7,,,65,37
230400,note_on,,,,,0,0,8,,,,,7,,,70,37
230400,note_off,,,,,768,0,6,,,,,5,,,53,0
230400,note_off,,,,,192,0,2,,,,,1,,,72,0
230400,note_on,,,,,96,0,7,,,,,6,,,46,63
230400,note_on,,,,,96,0,9,,,,,8,,,58,37
230400,note_on,,,,,0,0,4,,,,,3,,,70,92
230400,note_off,,,,,192,0,4,,,,,3,,,72,0
230400,note_on,,,,,0,0,2,,,,,1,,,70,75
230400,note_on,,,,,0,0,6,,,,,5,,,58,75
230400,note_off,,,,,768,0,5,,,,,4,,,60,0
230400,note_off,,,,,192,0,3,,,,,2,,,75,0
230400,note_on,,,,,0,0,3,,,,,2,,,74,92
230400,note_on,,,,,0,0,1,,,,,0,,,74,75
230400,note_off,,,,,192,0,1,,,,,0,,,75,0
230400,note_on,,,,,0,0,5,,,,,4,,,62,75
230592,note_off,,,,,192,0,1,,,,,0,,,74,0
230592,note_on,,,,,0,0,2,,,,,1,,,74,75
230592,note_on,,,,,0,0,1,,,,,0,,,77,75
230592,note_on,,,,,0,0,3,,,,,2,,,77,92
230592,note_on,,,,,0,0,4,,,,,3,,,74,92
230592,note_off,,,,,192,0,4,,,,,3,,,70,0
230592,note_off,,,,,192,0,2,,,,,1,,,70,0
230592,note_off,,,,,192,0,3,,,,,2,,,74,0
230784,note_off,,,,,192,0,4,,,,,3,,,74,0
230784,note_on,,,,,0,0,4,,,,,3,,,65,92
230784,note_off,,,,,192,0,3,,,,,2,,,77,0
230784,note_on,,,,,0,0,3,,,,,2,,,70,92
230784,note_off,,,,,192,0,1,,,,,0,,,77,0
230784,note_on,,,,,0,0,2,,,,,1,,,65,75
230784,note_off,,,,,192,0,2,,,,,1,,,74,0
230784,note_on,,,,,0,0,1,,,,,0,,,70,75
230976,note_on,,,,,0,0,5,,,,,4,,,58,75
230976,note_off,,,,,576,0,5,,,,,4,,,62,0
231072,note_off,,,,,672,0,7,,,,,6,,,46,0
231072,note_off,,,,,672,0,9,,,,,8,,,58,0
231072,note_off,,,,,672,0,8,,,,,7,,,62,0
231072,note_off,,,,,0,0,8,,,,,7,,,65,0
231072,note_off,,,,,0,0,8,,,,,7,,,70,0
231168,note_on,,,,,96,0,7,,,,,6,,,46,63
231168,note_off,,,,,384,0,3,,,,,2,,,70,0
231168,note_off,,,,,192,0,5,,,,,4,,,58,0
231168,note_on,,,,,0,0,4,,,,,3,,,70,92
231168,note_on,,,,,0,0,1,,,,,0,,,74,75
231168,note_off,,,,,384,0,1,,,,,0,,,70,0
231168,note_on,,,,,0,0,3,,,,,2,,,74,92
231168,note_on,,,,,96,0,8,,,,,7,,,62,37
231168,note_on,,,,,0,0,8,,,,,7,,,65,37
231168,note_on,,,,,0,0,8,,,,,7,,,70,37
231168,note_on,,,,,0,0,5,,,,,4,,,65,75
231168,note_on,,,,,96,0,9,,,,,8,,,58,37
231168,note_off,,,,,384,0,4,,,,,3,,,65,0
231168,note_on,,,,,0,0,6,,,,,5,,,58,75
231168,note_off,,,,,768,0,6,,,,,5,,,58,0
231168,note_off,,,,,384,0,2,,,,,1,,,65,0
231168,note_on,,,,,0,0,2,,,,,1,,,70,75
231360,note_on,,,,,0,0,2,,,,,1,,,74,75
231360,note_off,,,,,192,0,2,,,,,1,,,70,0
231360,note_off,,,,,192,0,1,,,,,0,,,74,0
231360,note_off,,,,,192,0,3,,,,,2,,,74,0
231360,note_on,,,,,0,0,3,,,,,2,,,77,92
231360,note_on,,,,,0,0,4,,,,,3,,,74,92
231360,note_off,,,,,192,0,4,,,,,3,,,70,0
231360,note_on,,,,,0,0,1,,,,,0,,,77,75
231552,note_off,,,,,192,0,4,,,,,3,,,74,0
231552,note_off,,,,,192,0,1,,,,,0,,,77,0
231552,note_on,,,,,0,0,2,,,,,1,,,65,75
231552,note_on,,,,,0,0,3,,,,,2,,,70,92
231552,note_on,,,,,0,0,4,,,,,3,,,65,92
231552,note_on,,,,,0,0,1,,,,,0,,,70,75
231552,note_off,,,,,192,0,2,,,,,1,,,74,0
231552,note_off,,,,,192,0,3,,,,,2,,,77,0
231744,note_off,,,,,576,0,5,,,,,4,,,65,0
231744,note_on,,,,,0,0,5,,,,,4,,,62,75
231840,note_off,,,,,0,0,8,,,,,7,,,70,0
231840,note_off,,,,,0,0,8,,,,,7,,,65,0
231840,note_off,,,,,672,0,8,,,,,7,,,62,0
231840,note_off,,,,,672,0,7,,,,,6,,,46,0
231840,note_off,,,,,672,0,9,,,,,8,,,58,0
231936,note_on,,,,,0,0,6,,,,,5,,,58,75
231936,note_on,,,,,0,0,4,,,,,3,,,67,92
231936,note_off,,,,,384,0,4,,,,,3,,,65,0
231936,note_on,,,,,0,0,3,,,,,2,,,75,92
231936,note_off,,,,,384,0,3,,,,,2,,,70,0
231936,note_on,,,,,0,0,5,,,,,4,,,63,75
231936,note_on,,,,,96,0,9,,,,,8,,,58,37
231936,note_off,,,,,384,0,2,,,,,1,,,65,0
231936,note_on,,,,,0,0,2,,,,,1,,,67,75
231936,note_on,,,,,96,0,8,,,,,7,,,63,37
231936,note_on,,,,,0,0,8,,,,,7,,,67,37
231936,note_on,,,,,0,0,8,,,,,7,,,70,37
231936,note_off,,,,,192,0,5,,,,,4,,,62,0
231936,note_on,,,,,96,0,7,,,,,6,,,46,63
231936,note_off,,,,,768,0,6,,,,,5,,,58,0
231936,note_on,,,,,0,0,1,,,,,0,,,75,75
231936,note_off,,,,,384,0,1,,,,,0,,,70,0
232128,note_off,,,,,192,0,3,,,,,2,,,75,0
232128,note_on,,,,,0,0,4,,,,,3,,,70,92
232128,note_off,,,,,192,0,4,,,,,3,,,67,0
232128,note_on,,,,,0,0,3,,,,,2,,,79,92
232128,note_off,,,,,192,0,2,,,,,1,,,67,0
232128,note_on,,,,,0,0,1,,,,,0,,,79,75
232128,note_off,,,,,192,0,1,,,,,0,,,75,0
232128,note_on,,,,,0,0,2,,,,,1,,,70,75
232320,note_off,,,,,192,0,4,,,,,3,,,70,0
232320,note_off,,,,,192,0,1,,,,,0,,,79,0
232320,note_on,,,,,0,0,2,,,,,1,,,63,75
232320,note_on,,,,,0,0,1,,,,,0,,,70,75
232320,note_off,,,,,192,0,2,,,,,1,,,70,0
232320,note_on,,,,,0,0,4,,,,,3,,,63,92
232320,note_off,,,,,192,0,3,,,,,2,,,79,0
232320,note_on,,,,,0,0,3,,,,,2,,,70,92
232512,note_on,,,,,0,0,5,,,,,4,,,67,75
232512,note_off,,,,,576,0,5,,,,,4,,,63,0
232608,note_off,,,,,0,0,8,,,,,7,,,67,0
232608,note_off,,,,,672,0,8,,,,,7,,,63,0
232608,note_off,,,,,672,0,9,,,,,8,,,58,0
232608,note_off,,,,,672,0,7,,,,,6,,,46,0
232608,note_off,,,,,0,0,8,,,,,7,,,70,0
232704,note_on,,,,,0,0,1,,,,,0,,,74,75
232704,note_on,,,,,96,0,8,,,,,7,,,62,37
232704,note_on,,,,,96,0,9,,,,,8,,,58,37
232704,note_off,,,,,192,0,5,,,,,4,,,67,0
232704,note_on,,,,,0,0,3,,,,,2,,,74,92
232704,note_off,,,,,384,0,3,,,,,2,,,70,0
232704,note_on,,,,,0,0,8,,,,,7,,,65,37
232704,note_on,,,,,0,0,8,,,,,7,,,70,37
232704,note_off,,,,,384,0,1,,,,,0,,,70,0
232704,note_on,,,,,0,0,4,,,,,3,,,70,92
232704,note_off,,,,,384,0,4,,,,,3,,,63,0
232704,note_on,,,,,0,0,5,,,,,4,,,65,75
232704,note_on,,,,,0,0,2,,,,,1,,,70,75
232704,note_off,,,,,384,0,2,,,,,1,,,63,0
232704,note_on,,,,,96,0,7,,,,,6,,,46,63
232704,note_on,,,,,0,0,6,,,,,5,,,58,75
232704,note_off,,,,,768,0,6,,,,,5,,,58,0
232896,note_on,,,,,0,0,3,,,,,2,,,77,92
232896,note_off,,,,,192,0,1,,,,,0,,,74,0
232896,note_on,,,,,0,0,2,,,,,1,,,74,75
232896,note_off,,,,,192,0,2,,,,,1,,,70,0
232896,note_off,,,,,192,0,3,,,,,2,,,74,0
232896,note_on,,,,,0,0,1,,,,,0,,,77,75
232896,note_on,,,,,0,0,4,,,,,3,,,74,92
232896,note_off,,,,,192,0,4,,,,,3,,,70,0
233088,note_off,,,,,192,0,2,,,,,1,,,74,0
233088,note_on,,,,,0,0,3,,,,,2,,,70,92
233088,note_off,,,,,192,0,3,,,,,2,,,77,0
233088,note_off,,,,,192,0,1,,,,,0,,,77,0
233088,note_on,,,,,0,0,2,,,,,1,,,65,75
233088,note_on,,,,,0,0,4,,,,,3,,,65,92
233088,note_off,,,,,192,0,4,,,,,3,,,74,0
233088,note_on,,,,,0,0,1,,,,,0,,,70,75
233280,note_on,,,,,0,0,5,,,,,4,,,58,75
233280,note_off,,,,,576,0,5,,,,,4,,,65,0
233376,note_off,,,,,672,0,9,,,,,8,,,58,0
233376,note_off,,,,,672,0,7,,,,,6,,,46,0
233376,note_off,,,,,672,0,8,,,,,7,,,62,0
233376,note_off,,,,,0,0,8,,,,,7,,,65,0
233376,note_off,,,,,0,0,8,,,,,7,,,70,0
233472,note_on,,,,,0,0,1,,,,,0,,,74,75
233472,note_off,,,,,384,0,1,,,,,0,,,70,0
233472,note_on,,,,,96,0,8,,,,,7,,,62,37
233472,note_on,,,,,0,0,8,,,,,7,,,65,37
233472,note_on,,,,,0,0,5,,,,,4,,,65,75
233472,note_on,,,,,96,0,7,,,,,6,,,46,63
233472,note_on,,,,,0,0,8,,,,,7,,,70,37
233472,note_on,,,,,0,0,6,,,,,5,,,58,75
233472,note_on,,,,,0,0,3,,,,,2,,,74,92
233472,note_off,,,,,384,0,4,,,,,3,,,65,0
233472,note_on,,,,,0,0,4,,,,,3,,,70,92
233472,note_off,,,,,192,0,5,,,,,4,,,58,0
233472,note_off,,,,,768,0,6,,,,,5,,,58,0
233472,note_off,,,,,384,0,2,,,,,1,,,65,0
233472,note_on,,,,,0,0,2,,,,,1,,,70,75
233472,note_off,,,,,384,0,3,,,,,2,,,70,0
233472,note_on,,,,,96,0,9,,,,,8,,,58,37
233664,note_off,,,,,192,0,4,,,,,3,,,70,0
233664,note_on,,,,,0,0,4,,,,,3,,,74,92
233664,note_off,,,,,192,0,3,,,,,2,,,74,0
233664,note_on,,,,,0,0,2,,,,,1,,,74,75
233664,note_off,,,,,192,0,2,,,,,1,,,70,0
233664,note_on,,,,,0,0,3,,,,,2,,,77,92
233664,note_off,,,,,192,0,1,,,,,0,,,74,0
233664,note_on,,,,,0,0,1,,,,,0,,,77,75
233856,note_on,,,,,0,0,1,,,,,0,,,70,75
233856,note_off,,,,,192,0,2,,,,,1,,,74,0
233856,note_off,,,,,192,0,1,,,,,0,,,77,0
233856,note_off,,,,,192,0,3,,,,,2,,,77,0
233856,note_on,,,,,0,0,3,,,,,2,,,70,92
233856,note_on,,,,,0,0,4,,,,,3,,,65,92
233856,note_on,,,,,0,0,2,,,,,1,,,65,75
233856,note_off,,,,,192,0,4,,,,,3,,,74,0
234048,note_on,,,,,0,0,5,,,,,4,,,62,75
234048,note_off,,,,,576,0,5,,,,,4,,,65,0
234144,note_off,,,,,672,0,9,,,,,8,,,58,0
234144,note_off,,,,,672,0,7,,,,,6,,,46,0
234144,note_off,,,,,0,0,8,,,,,7,,,65,0
234144,note_off,,,,,0,0,8,,,,,7,,,70,0
234144,note_off,,,,,672,0,8,,,,,7,,,62,0
234240,note_off,,,,,192,0,5,,,,,4,,,62,0
234240,note_on,,,,,0,0,5,,,,,4,,,63,75
234240,note_off,,,,,384,0,1,,,,,0,,,70,0
234240,note_on,,,,,0,0,1,,,,,0,,,75,75
234240,note_on,,,,,0,0,3,,,,,2,,,75,92
234240,note_on,,,,,0,0,4,,,,,3,,,67,92
234240,note_off,,,,,384,0,4,,,,,3,,,65,0
234240,note_off,,,,,384,0,3,,,,,2,,,70,0
234240,note_on,,,,,96,0,9,,,,,8,,,58,37
234240,note_on,,,,,0,0,6,,,,,5,,,58,75
234240,note_off,,,,,768,0,6,,,,,5,,,58,0
234240,note_on,,,,,0,0,8,,,,,7,,,67,37
234240,note_on,,,,,0,0,2,,,,,1,,,67,75
234240,note_off,,,,,384,0,2,,,,,1,,,65,0
234240,note_on,,,,,0,0,8,,,,,7,,,70,37
234240,note_on,,,,,96,0,7,,,,,6,,,46,63
234240,note_on,,,,,96,0,8,,,,,7,,,63,37
234432,note_on,,,,,0,0,3,,,,,2,,,79,92
234432,note_off,,,,,192,0,3,,,,,2,,,75,0
234432,note_on,,,,,0,0,4,,,,,3,,,70,92
234432,note_off,,,,,192,0,4,,,,,3,,,67,0
234432,note_off,,,,,192,0,2,,,,,1,,,67,0
234432,note_on,,,,,0,0,2,,,,,1,,,70,75
234432,note_on,,,,,0,0,1,,,,,0,,,79,75
234432,note_off,,,,,192,0,1,,,,,0,,,75,0
234624,note_off,,,,,192,0,3,,,,,2,,,79,0
234624,note_on,,,,,0,0,3,,,,,2,,,70,92
234624,note_on,,,,,0,0,1,,,,,0,,,70,75
234624,note_off,,,,,192,0,1,,,,,0,,,79,0
234624,note_off,,,,,192,0,2,,,,,1,,,70,0
234624,note_on,,,,,0,0,2,,,,,1,,,63,75
234624,note_off,,,,,192,0,4,,,,,3,,,70,0
234624,note_on,,,,,0,0,4,,,,,3,,,63,92
234816,note_on,,,,,0,0,5,,,,,4,,,67,75
234816,note_off,,,,,576,0,5,,,,,4,,,63,0
234912,note_off,,,,,672,0,9,,,,,8,,,58,0
234912,note_off,,,,,672,0,7,,,,,6,,,46,0
234912,note_off,,,,,672,0,8,,,,,7,,,63,0
234912,note_off,,,,,0,0,8,,,,,7,,,70,0
234912,note_off,,,,,0,0,8,,,,,7,,,67,0
235008,note_on,,,,,96,0,7,,,,,6,,,46,63
235008,note_off,,,,,768,0,6,,,,,5,,,58,0
235008,note_on,,,,,0,0,1,,,,,0,,,74,75
235008,note_off,,,,,384,0,1,,,,,0,,,70,0
235008,note_off,,,,,192,0,5,,,,,4,,,67,0
235008,note_on,,,,,0,0,5,,,,,4,,,70,75
235008,note_on,,,,,0,0,6,,,,,5,,,58,75
235008,note_on,,,,,0,0,8,,,,,7,,,70,37
235008,note_on,,,,,0,0,2,,,,,1,,,65,75
235008,note_on,,,,,0,0,3,,,,,2,,,74,92
235008,note_on,,,,,0,0,4,,,,,3,,,65,92
235008,note_on,,,,,0,0,8,,,,,7,,,65,37
235008,note_on,,,,,96,0,8,,,,,7,,,62,37
235008,note_off,,,,,384,0,2,,,,,1,,,63,0
235008,note_on,,,,,96,0,9,,,,,8,,,58,37
235008,note_off,,,,,384,0,4,,,,,3,,,63,0
235008,note_off,,,,,384,0,3,,,,,2,,,70,0
235200,note_on,,,,,0,0,1,,,,,0,,,77,75
235200,note_off,,,,,192,0,1,,,,,0,,,74,0
235200,note_on,,,,,0,0,3,,,,,2,,,77,92
235200,note_off,,,,,192,0,3,,,,,2,,,74,0
235392,note_on,,,,,0,0,1,,,,,0,,,82,75
235392,note_off,,,,,192,0,3,,,,,2,,,77,0
235392,note_on,,,,,0,0,3,,,,,2,,,82,92
235392,note_off,,,,,192,0,1,,,,,0,,,77,0
235584,note_on,,,,,0,0,2,,,,,1,,,62,75
235584,note_off,,,,,576,0,2,,,,,1,,,65,0
235584,note_on,,,,,0,0,4,,,,,3,,,62,92
235584,note_off,,,,,576,0,4,,,,,3,,,65,0
235680,note_off,,,,,672,0,7,,,,,6,,,46,0
235680,note_off,,,,,672,0,8,,,,,7,,,62,0
235680,note_off,,,,,672,0,9,,,,,8,,,58,0
235680,note_off,,,,,0,0,8,,,,,7,,,70,0
235680,note_off,,,,,0,0,8,,,,,7,,,65,0
235776,note_on,,,,,0,0,5,,,,,4,,,65,75
235776,note_off,,,,,768,0,5,,,,,4,,,70,0
235776,note_on,,,,,0,0,2,,,,,1,,,70,75
235776,note_off,,,,,192,0,2,,,,,1,,,62,0
235776,note_on,,,,,0,0,4,,,,,3,,,70,92
235776,note_off,,,,,192,0,4,,,,,3,,,62,0
235776,note_on,,,,,0,0,6,,,,,5,,,50,75
235776,note_on,,,,,96,0,9,,,,,8,,,50,37
235776,note_on,,,,,0,0,8,,,,,7,,,70,37
235776,note_on,,,,,0,0,8,,,,,7,,,65,37
235776,note_on,,,,,96,0,8,,,,,7,,,62,37
235776,note_on,,,,,96,0,7,,,,,6,,,38,63
235776,note_off,,,,,768,0,6,,,,,5,,,58,0
235968,note_on,,,,,0,0,3,,,,,2,,,80,92
235968,note_off,,,,,576,0,3,,,,,2,,,82,0
235968,note_off,,,,,576,0,1,,,,,0,,,82,0
235968,note_on,,,,,0,0,1,,,,,0,,,80,75
236160,note_off,,,,,192,0,3,,,,,2,,,80,0
236160,note_off,,,,,192,0,1,,,,,0,,,80,0
236160,note_on,,,,,0,0,1,,,,,0,,,79,75
236160,note_on,,,,,0,0,3,,,,,2,,,79,92
236352,note_off,,,,,576,0,4,,,,,3,,,70,0
236352,note_on,,,,,0,0,1,,,,,0,,,77,75
236352,note_off,,,,,192,0,1,,,,,0,,,79,0
236352,note_on,,,,,0,0,2,,,,,1,,,69,75
236352,note_off,,,,,576,0,2,,,,,1,,,70,0
236352,note_on,,,,,0,0,4,,,,,3,,,69,92
236352,note_off,,,,,192,0,3,,,,,2,,,79,0
236352,note_on,,,,,0,0,3,,,,,2,,,77,92
236448,note_off,,,,,672,0,7,,,,,6,,,38,0
236448,note_off,,,,,672,0,8,,,,,7,,,65,0
236448,note_off,,,,,672,0,9,,,,,8,,,50,0
236544,note_on,,,,,0,0,5,,,,,4,,,67,75
236544,note_off,,,,,768,0,5,,,,,4,,,65,0
236544,note_on,,,,,0,0,4,,,,,3,,,67,92
236544,note_off,,,,,192,0,1,,,,,0,,,77,0
236544,note_off,,,,,192,0,2,,,,,1,,,69,0
236544,note_on,,,,,96,0,9,,,,,8,,,51,37
236544,note_on,,,,,0,0,3,,,,,2,,,75,92
236544,note_on,,,,,0,0,6,,,,,5,,,51,75
236544,note_off,,,,,192,0,3,,,,,2,,,77,0
236544,note_on,,,,,0,0,1,,,,,0,,,75,75
236544,note_on,,,,,96,0,8,,,,,7,,,67,37
236544,note_on,,,,,96,0,7,,,,,6,,,39,63
236544,note_off,,,,,768,0,6,,,,,5,,,50,0
236544,note_off,,,,,192,0,4,,,,,3,,,69,0
236544,note_on,,,,,0,0,2,,,,,1,,,67,75
236736,note_on,,,,,0,0,3,,,,,2,,,74,92
236736,note_off,,,,,192,0,3,,,,,2,,,75,0
236736,note_off,,,,,192,0,4,,,,,3,,,67,0
236736,note_on,,,,,0,0,1,,,,,0,,,74,75
236736,note_on,,,,,0,0,2,,,,,1,,,65,75
236736,note_on,,,,,0,0,4,,,,,3,,,65,92
236736,note_off,,,,,192,0,1,,,,,0,,,75,0
236736,note_off,,,,,192,0,2,,,,,1,,,67,0
236928,note_off,,,,,192,0,2,,,,,1,,,65,0
236928,note_on,,,,,0,0,4,,,,,3,,,63,92
236928,note_on,,,,,0,0,2,,,,,1,,,63,75
236928,note_on,,,,,0,0,1,,,,,0,,,72,75
236928,note_off,,,,,192,0,1,,,,,0,,,74,0
236928,note_off,,,,,192,0,4,,,,,3,,,65,0
236928,note_off,,,,,192,0,3,,,,,2,,,74,0
236928,note_on,,,,,0,0,3,,,,,2,,,72,92
237120,note_on,,,,,0,0,3,,,,,2,,,70,92
237120,note_off,,,,,192,0,4,,,,,3,,,63,0
237120,note_on,,,,,0,0,2,,,,,1,,,62,75
237120,note_off,,,,,192,0,1,,,,,0,,,72,0
237120,note_on,,,,,0,0,1,,,,,0,,,70,75
237120,note_off,,,,,192,0,3,,,,,2,,,72,0
237120,note_on,,,,,0,0,4,,,,,3,,,62,92
237120,note_off,,,,,192,0,2,,,,,1,,,63,0
237216,note_off,,,,,672,0,9,,,,,8,,,51,0
237216,note_off,,,,,672,0,8,,,,,7,,,62,0
237216,note_off,,,,,0,0,8,,,,,7,,,70,0
237216,note_off,,,,,0,0,8,,,,,7,,,67,0
237216,note_off,,,,,672,0,7,,,,,6,,,39,0
237312,note_off,,,,,768,0,5,,,,,4,,,67,0
237312,note_on,,,,,0,0,4,,,,,3,,,60,92
237312,note_off,,,,,192,0,4,,,,,3,,,62,0
237312,note_on,,,,,0,0,2,,,,,1,,,60,75
237312,note_off,,,,,192,0,2,,,,,1,,,62,0
237312,note_on,,,,,96,0,8,,,,,7,,,60,37
237312,note_on,,,,,96,0,9,,,,,8,,,53,37
237312,note_on,,,,,0,0,8,,,,,7,,,69,37
237312,note_on,,,,,0,0,6,,,,,5,,,53,75
237312,note_off,,,,,768,0,6,,,,,5,,,51,0
237312,note_off,,,,,192,0,3,,,,,2,,,70,0
237312,note_off,,,,,192,0,1,,,,,0,,,70,0
237312,note_on,,,,,0,0,1,,,,,0,,,69,75
237312,note_on,,,,,96,0,7,,,,,6,,,41,63
237312,note_on,,,,,0,0,3,,,,,2,,,69,92
237312,note_on,,,,,0,0,5,,,,,4,,,69,75
237312,note_on,,,,,0,0,8,,,,,7,,,65,37
237504,note_off,,,,,192,0,1,,,,,0,,,69,0
237504,note_on,,,,,0,0,1,,,,,0,,,72,75
237504,note_off,,,,,192,0,3,,,,,2,,,69,0
237504,note_on,,,,,0,0,3,,,,,2,,,72,92
237696,note_on,,,,,0,0,1,,,,,0,,,65,75
237696,note_on,,,,,0,0,3,,,,,2,,,65,92
237696,note_off,,,,,192,0,1,,,,,0,,,72,0
237696,note_off,,,,,192,0,3,,,,,2,,,72,0
237888,note_on,,,,,0,0,4,,,,,3,,,72,92
237888,note_on,,,,,0,0,2,,,,,1,,,72,75
237888,note_off,,,,,576,0,2,,,,,1,,,60,0
237888,note_off,,,,,576,0,4,,,,,3,,,60,0
237984,note_off,,,,,0,0,8,,,,,7,,,69,0
237984,note_off,,,,,672,0,9,,,,,8,,,53,0
237984,note_off,,,,,0,0,8,,,,,7,,,65,0
237984,note_off,,,,,672,0,8,,,,,7,,,60,0
237984,note_off,,,,,672,0,7,,,,,6,,,41,0
238080,note_on,,,,,96,0,8,,,,,7,,,63,37
238080,note_on,,,,,96,0,7,,,,,6,,,33,63
238080,note_on,,,,,0,0,6,,,,,5,,,45,75
238080,note_on,,,,,0,0,8,,,,,7,,,65,37
238080,note_off,,,,,768,0,6,,,,,5,,,53,0
238080,note_on,,,,,0,0,5,,,,,4,,,65,75
238080,note_on,,,,,0,0,4,,,,,3,,,69,92
238080,note_on,,,,,96,0,9,,,,,8,,,45,37
238080,note_off,,,,,192,0,4,,,,,3,,,72,0
238080,note_off,,,,,768,0,5,,,,,4,,,69,0
238080,note_on,,,,,0,0,2,,,,,1,,,69,75
238080,note_off,,,,,192,0,2,,,,,1,,,72,0
238080,note_on,,,,,0,0,8,,,,,7,,,72,37
238272,note_on,,,,,0,0,1,,,,,0,,,75,75
238272,note_off,,,,,576,0,1,,,,,0,,,65,0
238272,note_on,,,,,0,0,3,,,,,2,,,75,92
238272,note_off,,,,,576,0,3,,,,,2,,,65,0
238464,note_on,,,,,0,0,1,,,,,0,,,72,75
238464,note_off,,,,,192,0,1,,,,,0,,,75,0
238464,note_on,,,,,0,0,3,,,,,2,,,72,92
238464,note_off,,,,,192,0,3,,,,,2,,,75,0
238656,note_off,,,,,576,0,2,,,,,1,,,69,0
238656,note_on,,,,,0,0,2,,,,,1,,,72,75
238656,note_off,,,,,576,0,4,,,,,3,,,69,0
238656,note_on,,,,,0,0,4,,,,,3,,,72,92
238752,note_off,,,,,672,0,9,,,,,8,,,45,0
238752,note_off,,,,,672,0,7,,,,,6,,,33,0
238752,note_off,,,,,672,0,8,,,,,7,,,63,0
238752,note_off,,,,,0,0,8,,,,,7,,,65,0
238848,note_on,,,,,96,0,7,,,,,6,,,34,63
238848,note_on,,,,,0,0,6,,,,,5,,,46,75
238848,note_off,,,,,768,0,6,,,,,5,,,45,0
238848,note_off,,,,,192,0,4,,,,,3,,,72,0
238848,note_on,,,,,0,0,4,,,,,3,,,65,92
238848,note_on,,,,,96,0,9,,,,,8,,,46,37
238848,note_on,,,,,0,0,8,,,,,7,,,65,37
238848,note_off,,,,,768,0,5,,,,,4,,,65,0
238848,note_on,,,,,96,0,8,,,,,7,,,62,37
238848,note_on,,,,,0,0,5,,,,,4,,,62,75
238848,note_off,,,,,192,0,2,,,,,1,,,72,0
238848,note_on,,,,,0,0,2,,,,,1,,,65,75
239040,note_off,,,,,576,0,3,,,,,2,,,72,0
239040,note_on,,,,,0,0,3,,,,,2,,,74,92
239040,note_off,,,,,576,0,1,,,,,0,,,72,0
239040,note_on,,,,,0,0,1,,,,,0,,,74,75
239168,note_off,,,,,320,0,8,,,,,7,,,72,0
239232,note_off,,,,,192,0,3,,,,,2,,,74,0
239232,note_on,,,,,0,0,3,,,,,2,,,70,92
239232,note_off,,,,,192,0,1,,,,,0,,,74,0
239232,note_on,,,,,64,0,8,,,,,7,,,70,37
239232,note_on,,,,,0,0,1,,,,,0,,,70,75
239424,note_off,,,,,576,0,2,,,,,1,,,65,0
239424,note_on,,,,,0,0,2,,,,,1,,,58,75
239424,note_on,,,,,0,0,4,,,,,3,,,58,92
239424,note_on,,,,,0,0,3,,,,,2,,,67,92
239424,note_on,,,,,0,0,1,,,,,0,,,67,75
239424,note_off,,,,,192,0,1,,,,,0,,,70,0
239424,note_off,,,,,576,0,4,,,,,3,,,65,0
239424,note_off,,,,,192,0,3,,,,,2,,,70,0
239520,note_off,,,,,672,0,7,,,,,6,,,34,0
239520,note_off,,,,,672,0,9,,,,,8,,,46,0
239520,note_off,,,,,288,0,8,,,,,7,,,62,0
239520,note_off,,,,,0,0,8,,,,,7,,,65,0
239552,note_off,,,,,32,0,8,,,,,7,,,70,0
239616,note_on,,,,,96,0,9,,,,,8,,,41,37
239616,note_on,,,,,0,0,5,,,,,4,,,69,75
239616,note_on,,,,,0,0,3,,,,,2,,,69,92
239616,note_off,,,,,192,0,2,,,,,1,,,58,0
239616,note_on,,,,,0,0,6,,,,,5,,,41,75
239616,note_off,,,,,768,0,6,,,,,5,,,46,0
239616,note_off,,,,,192,0,1,,,,,0,,,67,0
239616,note_on,,,,,0,0,2,,,,,1,,,60,75
239616,note_off,,,,,192,0,3,,,,,2,,,67,0
239616,note_on,,,,,0,0,1,,,,,0,,,69,75
239616,note_off,,,,,768,0,5,,,,,4,,,62,0
239616,note_on,,,,,0,0,8,,,,,7,,,69,37
239616,note_on,,,,,0,0,8,,,,,7,,,65,37
239616,note_on,,,,,64,0,8,,,,,7,,,60,37
239616,note_off,,,,,192,0,4,,,,,3,,,58,0
239616,note_on,,,,,0,0,4,,,,,3,,,60,92
239616,note_on,,,,,96,0,7,,,,,6,,,29,63
239808,note_on,,,,,0,0,1,,,,,0,,,72,75
239808,note_off,,,,,192,0,1,,,,,0,,,69,0
239808,note_on,,,,,0,0,3,,,,,2,,,72,92
239808,note_off,,,,,192,0,3,,,,,2,,,69,0
240000,note_off,,,,,192,0,1,,,,,0,,,72,0
240000,note_on,,,,,0,0,1,,,,,0,,,65,75
240000,note_on,,,,,0,0,3,,,,,2,,,65,92
240000,note_off,,,,,192,0,3,,,,,2,,,72,0
240192,note_off,,,,,576,0,2,,,,,1,,,60,0
240192,note_off,,,,,576,0,4,,,,,3,,,60,0
240192,note_on,,,,,0,0,4,,,,,3,,,72,92
240192,note_on,,,,,0,0,2,,,,,1,,,72,75
240288,note_off,,,,,0,0,8,,,,,7,,,65,0
240288,note_off,,,,,672,0,8,,,,,7,,,60,0
240288,note_off,,,,,672,0,9,,,,,8,,,41,0
240288,note_off,,,,,672,0,7,,,,,6,,,29,0
240288,note_off,,,,,0,0,8,,,,,7,,,69,0
240384,note_on,,,,,96,0,7,,,,,6,,,45,63
240384,note_on,,,,,0,0,5,,,,,4,,,65,75
240384,note_on,,,,,96,0,9,,,,,8,,,57,37
240384,note_off,,,,,768,0,5,,,,,4,,,69,0
240384,note_on,,,,,0,0,8,,,,,7,,,65,37
240384,note_on,,,,,0,0,8,,,,,7,,,72,37
240384,note_on,,,,,0,0,4,,,,,3,,,69,92
240384,note_off,,,,,768,0,6,,,,,5,,,41,0
240384,note_on,,,,,0,0,6,,,,,5,,,57,75
240384,note_off,,,,,192,0,2,,,,,1,,,72,0
240384,note_off,,,,,192,0,4,,,,,3,,,72,0
240384,note_on,,,,,96,0,8,,,,,7,,,63,37
240384,note_on,,,,,0,0,2,,,,,1,,,69,75
240576,note_off,,,,,576,0,1,,,,,0,,,65,0
240576,note_on,,,,,0,0,3,,,,,2,,,75,92
240576,note_off,,,,,576,0,3,,,,,2,,,65,0
240576,note_on,,,,,0,0,1,,,,,0,,,75,75
240768,note_off,,,,,192,0,3,,,,,2,,,75,0
240768,note_on,,,,,0,0,1,,,,,0,,,72,75
240768,note_off,,,,,192,0,1,,,,,0,,,75,0
240768,note_on,,,,,0,0,3,,,,,2,,,72,92
240960,note_on,,,,,0,0,2,,,,,1,,,72,75
240960,note_off,,,,,576,0,2,,,,,1,,,69,0
240960,note_off,,,,,576,0,4,,,,,3,,,69,0
240960,note_on,,,,,0,0,4,,,,,3,,,72,92
241056,note_off,,,,,672,0,7,,,,,6,,,45,0
241056,note_off,,,,,672,0,8,,,,,7,,,63,0
241056,note_off,,,,,0,0,8,,,,,7,,,65,0
241056,note_off,,,,,672,0,9,,,,,8,,,57,0
241152,note_off,,,,,192,0,2,,,,,1,,,72,0
241152,note_on,,,,,96,0,7,,,,,6,,,46,63
241152,note_on,,,,,0,0,5,,,,,4,,,62,75
241152,note_on,,,,,0,0,4,,,,,3,,,65,92
241152,note_off,,,,,192,0,4,,,,,3,,,72,0
241152,note_on,,,,,0,0,2,,,,,1,,,65,75
241152,note_on,,,,,0,0,6,,,,,5,,,58,75
241152,note_on,,,,,0,0,8,,,,,7,,,65,37
241152,note_on,,,,,96,0,8,,,,,7,,,62,37
241152,note_on,,,,,96,0,9,,,,,8,,,58,37
241152,note_off,,,,,768,0,5,,,,,4,,,65,0
241152,note_off,,,,,768,0,6,,,,,5,,,57,0
241344,note_on,,,,,0,0,1,,,,,0,,,74,75
241344,note_off,,,,,576,0,1,,,,,0,,,72,0
241344,note_off,,,,,576,0,3,,,,,2,,,72,0
241344,note_on,,,,,0,0,3,,,,,2,,,74,92
241472,note_off,,,,,320,0,8,,,,,7,,,72,0
241536,note_on,,,,,64,0,8,,,,,7,,,70,37
241536,note_off,,,,,192,0,1,,,,,0,,,74,0
241536,note_on,,,,,0,0,1,,,,,0,,,70,75
241536,note_on,,,,,0,0,3,,,,,2,,,70,92
241536,note_off,,,,,192,0,3,,,,,2,,,74,0
241728,note_off,,,,,576,0,4,,,,,3,,,65,0
241728,note_off,,,,,576,0,2,,,,,1,,,65,0
241728,note_off,,,,,192,0,3,,,,,2,,,70,0
241728,note_on,,,,,0,0,1,,,,,0,,,65,75
241728,note_off,,,,,192,0,1,,,,,0,,,70,0
241728,note_on,,,,,0,0,2,,,,,1,,,58,75
241728,note_on,,,,,0,0,4,,,,,3,,,58,92
241728,note_on,,,,,0,0,3,,,,,2,,,65,92
241824,note_off,,,,,288,0,8,,,,,7,,,62,0
241824,note_off,,,,,0,0,8,,,,,7,,,65,0
241824,note_off,,,,,672,0,7,,,,,6,,,46,0
241824,note_off,,,,,672,0,9,,,,,8,,,58,0
241920,note_off,,,,,192,0,2,,,,,1,,,58,0
241920,note_on,,,,,0,0,5,,,,,4,,,60,75
241920,note_off,,,,,768,0,5,,,,,4,,,62,0
241920,note_on,,,,,0,0,2,,,,,1,,,67,75
241920,note_on,,,,,0,0,4,,,,,3,,,67,92
241920,note_on,,,,,96,0,9,,,,,8,,,60,37
241920,note_off,,,,,192,0,4,,,,,3,,,58,0
241920,note_on,,,,,96,0,8,,,,,7,,,63,37
241920,note_off,,,,,192,0,1,,,,,0,,,65,0
241920,note_off,,,,,192,0,3,,,,,2,,,65,0
241920,note_on,,,,,0,0,6,,,,,5,,,60,75
241920,note_off,,,,,768,0,6,,,,,5,,,58,0
241920,note_on,,,,,0,0,3,,,,,2,,,75,92
241920,note_on,,,,,96,0,7,,,,,6,,,48,63
241920,note_on,,,,,0,0,1,,,,,0,,,75,75
242112,note_on,,,,,0,0,3,,,,,2,,,72,92
242112,note_off,,,,,192,0,3,,,,,2,,,75,0
242112,note_off,,,,,192,0,1,,,,,0,,,75,0
242112,note_on,,,,,0,0,1,,,,,0,,,72,75
242240,note_off,,,,,0,0,8,,,,,7,,,63,0
242240,note_off,,,,,320,0,8,,,,,7,,,70,0
242304,note_on,,,,,64,0,8,,,,,7,,,67,37
242304,note_on,,,,,0,0,3,,,,,2,,,84,92
242304,note_off,,,,,192,0,1,,,,,0,,,72,0
242304,note_on,,,,,0,0,1,,,,,0,,,84,75
242304,note_off,,,,,192,0,3,,,,,2,,,72,0
242496,note_off,,,,,576,0,4,,,,,3,,,67,0
242496,note_off,,,,,576,0,2,,,,,1,,,67,0
242496,note_on,,,,,0,0,2,,,,,1,,,75,75
242496,note_on,,,,,0,0,4,,,,,3,,,75,92
242592,note_off,,,,,672,0,7,,,,,6,,,48,0
242592,note_off,,,,,672,0,9,,,,,8,,,60,0
242624,note_off,,,,,320,0,8,,,,,7,,,67,0
242688,note_on,,,,,64,0,8,,,,,7,,,63,37
242688,note_on,,,,,0,0,8,,,,,7,,,69,37
242688,note_off,,,,,192,0,4,,,,,3,,,75,0
242688,note_on,,,,,0,0,4,,,,,3,,,69,92
242688,note_on,,,,,96,0,7,,,,,6,,,41,63
242688,note_off,,,,,768,0,5,,,,,4,,,60,0
242688,note_on,,,,,96,0,9,,,,,8,,,53,37
242688,note_on,,,,,0,0,5,,,,,4,,,72,75
242688,note_on,,,,,0,0,2,,,,,1,,,69,75
242688,note_off,,,,,768,0,6,,,,,5,,,60,0
242688,note_off,,,,,192,0,2,,,,,1,,,75,0
242688,note_on,,,,,0,0,6,,,,,5,,,53,75
242880,note_on,,,,,0,0,1,,,,,0,,,82,75
242880,note_off,,,,,576,0,1,,,,,0,,,84,0
242880,note_off,,,,,576,0,3,,,,,2,,,84,0
242880,note_on,,,,,0,0,3,,,,,2,,,82,92
243072,note_off,,,,,192,0,1,,,,,0,,,82,0
243072,note_off,,,,,192,0,3,,,,,2,,,82,0
243072,note_on,,,,,0,0,3,,,,,2,,,81,92
243072,note_on,,,,,0,0,1,,,,,0,,,81,75
243264,note_off,,,,,192,0,1,,,,,0,,,81,0
243264,note_off,,,,,576,0,2,,,,,1,,,69,0
243264,note_on,,,,,0,0,1,,,,,0,,,79,75
243264,note_on,,,,,0,0,3,,,,,2,,,79,92
243264,note_off,,,,,192,0,3,,,,,2,,,81,0
243264,note_on,,,,,0,0,2,,,,,1,,,70,75
243264,note_on,,,,,0,0,4,,,,,3,,,70,92
243264,note_off,,,,,576,0,4,,,,,3,,,69,0
243360,note_off,,,,,672,0,8,,,,,7,,,63,0
243360,note_off,,,,,0,0,8,,,,,7,,,69,0
243360,note_off,,,,,672,0,7,,,,,6,,,41,0
243360,note_off,,,,,672,0,9,,,,,8,,,53,0
243456,note_off,,,,,192,0,4,,,,,3,,,70,0
243456,note_on,,,,,0,0,6,,,,,5,,,57,75
243456,note_off,,,,,192,0,1,,,,,0,,,79,0
243456,note_on,,,,,96,0,7,,,,,6,,,45,63
243456,note_on,,,,,0,0,1,,,,,0,,,77,75
243456,note_on,,,,,96,0,9,,,,,8,,,57,37
243456,note_on,,,,,0,0,2,,,,,1,,,72,75
243456,note_on,,,,,96,0,8,,,,,7,,,63,37
243456,note_on,,,,,0,0,8,,,,,7,,,65,37
243456,note_on,,,,,0,0,3,,,,,2,,,77,92
243456,note_off,,,,,192,0,3,,,,,2,,,79,0
243456,note_off,,,,,192,0,2,,,,,1,,,70,0
243456,note_on,,,,,0,0,4,,,,,3,,,72,92
243456,note_on,,,,,0,0,8,,,,,7,,,72,37
243456,note_off,,,,,768,0,6,,,,,5,,,53,0
243648,note_on,,,,,0,0,3,,,,,2,,,75,92
243648,note_off,,,,,192,0,3,,,,,2,,,77,0
243648,note_off,,,,,192,0,1,,,,,0,,,77,0
243648,note_on,,,,,0,0,1,,,,,0,,,75,75
243840,note_off,,,,,192,0,1,,,,,0,,,75,0
243840,note_on,,,,,0,0,4,,,,,3,,,77,92
243840,note_on,,,,,0,0,2,,,,,1,,,77,75
243840,note_off,,,,,384,0,2,,,,,1,,,72,0
243840,note_on,,,,,0,0,5,,,,,4,,,69,75
243840,note_off,,,,,1152,0,5,,,,,4,,,72,0
243840,note_off,,,,,384,0,4,,,,,3,,,72,0
243840,note_on,,,,,0,0,3,,,,,2,,,74,92
243840,note_on,,,,,0,0,1,,,,,0,,,74,75
243840,note_off,,,,,192,0,3,,,,,2,,,75,0
244032,note_off,,,,,192,0,3,,,,,2,,,74,0
244032,note_on,,,,,0,0,3,,,,,2,,,72,92
244032,note_off,,,,,192,0,1,,,,,0,,,74,0
244032,note_on,,,,,0,0,1,,,,,0,,,72,75
244128,note_off,,,,,672,0,8,,,,,7,,,63,0
244128,note_off,,,,,672,0,9,,,,,8,,,57,0
244128,note_off,,,,,672,0,7,,,,,6,,,45,0
244128,note_off,,,,,0,0,8,,,,,7,,,72,0
244128,note_off,,,,,0,0,8,,,,,7,,,65,0
244224,note_on,,,,,96,0,9,,,,,8,,,58,37
244224,note_on,,,,,96,0,7,,,,,6,,,46,63
244224,note_on,,,,,0,0,8,,,,,7,,,70,37
244224,note_on,,,,,0,0,8,,,,,7,,,65,37
244224,note_on,,,,,96,0,8,,,,,7,,,62,37
244224,note_off,,,,,192,0,1,,,,,0,,,72,0
244224,note_off,,,,,384,0,5,,,,,4,,,69,0
244224,note_on,,,,,0,0,3,,,,,2,,,74,92
244224,note_off,,,,,192,0,3,,,,,2,,,72,0
244224,note_on,,,,,0,0,1,,,,,0,,,74,75
244224,note_on,,,,,0,0,5,,,,,4,,,65,75
244224,note_on,,,,,0,0,6,,,,,5,,,58,75
244224,note_off,,,,,768,0,6,,,,,5,,,57,0
244416,note_off,,,,,192,0,1,,,,,0,,,74,0
244416,note_on,,,,,0,0,1,,,,,0,,,70,75
244416,note_on,,,,,0,0,3,,,,,2,,,70,92
244416,note_off,,,,,192,0,3,,,,,2,,,74,0
244544,note_off,,,,,320,0,8,,,,,7,,,62,0
244544,note_off,,,,,0,0,8,,,,,7,,,65,0
244544,note_off,,,,,0,0,8,,,,,7,,,70,0
244544,note_off,,,,,320,0,9,,,,,8,,,58,0
244544,note_off,,,,,320,0,7,,,,,6,,,46,0
244608,note_on,,,,,64,0,9,,,,,8,,,51,37
244608,note_on,,,,,0,0,2,,,,,1,,,75,75
244608,note_on,,,,,0,0,3,,,,,2,,,72,92
244608,note_on,,,,,0,0,8,,,,,7,,,67,37
244608,note_on,,,,,64,0,8,,,,,7,,,63,37
244608,note_off,,,,,192,0,1,,,,,0,,,70,0
244608,note_on,,,,,0,0,1,,,,,0,,,72,75
244608,note_off,,,,,768,0,2,,,,,1,,,77,0
244608,note_on,,,,,64,0,7,,,,,6,,,39,63
244608,note_off,,,,,192,0,3,,,,,2,,,70,0
244608,note_off,,,,,384,0,5,,,,,4,,,65,0
244608,note_on,,,,,0,0,5,,,,,4,,,67,75
244608,note_on,,,,,0,0,4,,,,,3,,,75,92
244608,note_on,,,,,0,0,8,,,,,7,,,72,37
244608,note_off,,,,,384,0,6,,,,,5,,,58,0
244608,note_off,,,,,768,0,4,,,,,3,,,77,0
244608,note_on,,,,,0,0,6,,,,,5,,,51,75
244800,note_off,,,,,192,0,1,,,,,0,,,72,0
244800,note_off,,,,,192,0,3,,,,,2,,,72,0
244800,note_off,,,,,192,0,2,,,,,1,,,75,0
244800,note_on,,,,,0,0,2,,,,,1,,,74,75
244800,note_on,,,,,0,0,1,,,,,0,,,67,75
244800,note_on,,,,,0,0,4,,,,,3,,,74,92
244800,note_on,,,,,0,0,3,,,,,2,,,67,92
244800,note_off,,,,,192,0,4,,,,,3,,,75,0
244928,note_off,,,,,0,0,8,,,,,7,,,72,0
244928,note_off,,,,,0,0,8,,,,,7,,,67,0
244928,note_off,,,,,320,0,7,,,,,6,,,39,0
244928,note_off,,,,,320,0,8,,,,,7,,,63,0
244928,note_off,,,,,320,0,9,,,,,8,,,51,0
244992,note_on,,,,,64,0,7,,,,,6,,,41,63
244992,note_on,,,,,0,0,2,,,,,1,,,72,75
244992,note_on,,,,,0,0,6,,,,,5,,,53,75
244992,note_on,,,,,64,0,9,,,,,8,,,53,37
244992,note_off,,,,,192,0,2,,,,,1,,,74,0
244992,note_off,,,,,192,0,4,,,,,3,,,74,0
244992,note_off,,,,,384,0,6,,,,,5,,,51,0
244992,note_off,,,,,384,0,5,,,,,4,,,67,0
244992,note_on,,,,,0,0,5,,,,,4,,,60,75
244992,note_on,,,,,0,0,1,,,,,0,,,69,75
244992,note_off,,,,,192,0,1,,,,,0,,,67,0
244992,note_on,,,,,0,0,8,,,,,7,,,69,37
244992,note_on,,,,,64,0,8,,,,,7,,,60,37
244992,note_on,,,,,0,0,4,,,,,3,,,72,92
244992,note_off,,,,,192,0,3,,,,,2,,,67,0
244992,note_on,,,,,0,0,3,,,,,2,,,69,92
245184,note_on,,,,,0,0,4,,,,,3,,,74,92
245184,note_off,,,,,192,0,2,,,,,1,,,72,0
245184,note_on,,,,,0,0,2,,,,,1,,,74,75
245184,note_off,,,,,192,0,4,,,,,3,,,72,0
245312,note_off,,,,,320,0,9,,,,,8,,,53,0
245312,note_off,,,,,320,0,7,,,,,6,,,41,0
245376,note_on,,,,,0,0,6,,,,,5,,,65,75
245376,note_off,,,,,384,0,6,,,,,5,,,53,0
245376,note_on,,,,,64,0,7,,,,,6,,,53,63
245376,note_on,,,,,0,0,2,,,,,1,,,75,75
245376,note_off,,,,,192,0,2,,,,,1,,,74,0
245376,note_off,,,,,192,0,4,,,,,3,,,74,0
245376,note_on,,,,,0,0,4,,,,,3,,,75,92
245376,note_on,,,,,64,0,9,,,,,8,,,65,37
245568,note_on,,,,,0,0,4,,,,,3,,,72,92
245568,note_off,,,,,192,0,2,,,,,1,,,75,0
245568,note_off,,,,,192,0,4,,,,,3,,,75,0
245568,note_on,,,,,0,0,2,,,,,1,,,72,75
245664,note_off,,,,,0,0,8,,,,,7,,,69,0
245664,note_off,,,,,672,0,8,,,,,7,,,60,0
245696,note_off,,,,,320,0,7,,,,,6,,,53,0
245696,note_off,,,,,320,0,9,,,,,8,,,65,0
245760,note_off,,,,,192,0,2,,,,,1,,,72,0
245760,note_on,,,,,0,0,5,,,,,4,,,72,75
245760,note_off,,,,,768,0,5,,,,,4,,,60,0
245760,note_on,,,,,0,0,6,,,,,5,,,63,75
245760,note_on,,,,,0,0,8,,,,,7,,,72,37
245760,note_on,,,,,0,0,8,,,,,7,,,69,37
245760,note_on,,,,,0,0,4,,,,,3,,,69,92
245760,note_on,,,,,64,0,9,,,,,8,,,63,37
245760,note_on,,,,,64,0,7,,,,,6,,,51,63
245760,note_off,,,,,384,0,6,,,,,5,,,65,0
245760,note_on,,,,,0,0,2,,,,,1,,,69,75
245760,note_on,,,,,96,0,8,,,,,7,,,65,37
245760,note_off,,,,,192,0,4,,,,,3,,,72,0
245952,note_off,,,,,192,0,4,,,,,3,,,69,0
245952,note_off,,,,,192,0,2,,,,,1,,,69,0
245952,note_on,,,,,0,0,2,,,,,1,,,72,75
245952,note_on,,,,,0,0,4,,,,,3,,,72,92
246080,note_off,,,,,320,0,9,,,,,8,,,63,0
246080,note_off,,,,,320,0,7,,,,,6,,,51,0
246144,note_off,,,,,1152,0,1,,,,,0,,,69,0
246144,note_off,,,,,384,0,6,,,,,5,,,63,0
246144,note_on,,,,,0,0,6,,,,,5,,,65,75
246144,note_on,,,,,64,0,9,,,,,8,,,65,37
246144,note_off,,,,,192,0,4,,,,,3,,,72,0
246144,note_off,,,,,192,0,2,,,,,1,,,72,0
246144,note_on,,,,,64,0,7,,,,,6,,,53,63
246144,note_off,,,,,1152,0,3,,,,,2,,,69,0
246144,note_on,,,,,0,0,4,,,,,3,,,65,92
246144,note_on,,,,,0,0,2,,,,,1,,,65,75
246336,note_on,,,,,192,0,3,,,,,2,,,81,92
246336,note_on,,,,,192,0,1,,,,,0,,,81,75
246432,note_off,,,,,0,0,8,,,,,7,,,69,0
246432,note_off,,,,,0,0,8,,,,,7,,,72,0
246432,note_off,,,,,672,0,8,,,,,7,,,65,0
246464,note_off,,,,,320,0,7,,,,,6,,,53,0
246464,note_off,,,,,320,0,9,,,,,8,,,65,0
246528,note_on,,,,,0,0,4,,,,,3,,,77,92
246528,note_on,,,,,0,0,5,,,,,4,,,74,75
246528,note_on,,,,,96,0,8,,,,,7,,,65,37
246528,note_on,,,,,0,0,3,,,,,2,,,82,92
246528,note_off,,,,,192,0,3,,,,,2,,,81,0
246528,note_on,,,,,0,0,8,,,,,7,,,70,37
246528,note_off,,,,,768,0,5,,,,,4,,,72,0
246528,note_off,,,,,384,0,2,,,,,1,,,65,0
246528,note_on,,,,,0,0,8,,,,,7,,,77,37
246528,note_on,,,,,64,0,9,,,,,8,,,62,37
246528,note_off,,,,,384,0,6,,,,,5,,,65,0
246528,note_off,,,,,384,0,4,,,,,3,,,65,0
246528,note_on,,,,,0,0,1,,,,,0,,,82,75
246528,note_off,,,,,192,0,1,,,,,0,,,81,0
246528,note_on,,,,,0,0,2,,,,,1,,,77,75
246528,note_on,,,,,64,0,7,,,,,6,,,50,63
246528,note_on,,,,,0,0,6,,,,,5,,,62,75
246720,note_on,,,,,0,0,3,,,,,2,,,77,92
246720,note_off,,,,,192,0,3,,,,,2,,,82,0
246720,note_on,,,,,0,0,1,,,,,0,,,77,75
246720,note_off,,,,,192,0,1,,,,,0,,,82,0
246912,note_on,,,,,0,0,3,,,,,2,,,74,92
246912,note_off,,,,,192,0,3,,,,,2,,,77,0
246912,note_on,,,,,0,0,1,,,,,0,,,74,75
246912,note_off,,,,,192,0,1,,,,,0,,,77,0
247104,note_on,,,,,0,0,2,,,,,1,,,74,75
247104,note_off,,,,,576,0,2,,,,,1,,,77,0
247104,note_on,,,,,0,0,4,,,,,3,,,74,92
247104,note_off,,,,,576,0,4,,,,,3,,,77,0
247200,note_off,,,,,672,0,9,,,,,8,,,62,0
247200,note_off,,,,,672,0,7,,,,,6,,,50,0
247200,note_off,,,,,672,0,8,,,,,7,,,65,0
247200,note_off,,,,,0,0,8,,,,,7,,,70,0
247200,note_off,,,,,0,0,8,,,,,7,,,77,0
247296,note_on,,,,,96,0,9,,,,,8,,,58,37
247296,note_off,,,,,192,0,4,,,,,3,,,74,0
247296,note_on,,,,,0,0,4,,,,,3,,,65,92
247296,note_on,,,,,96,0,8,,,,,7,,,65,37
247296,note_on,,,,,0,0,5,,,,,4,,,62,75
247296,note_on,,,,,0,0,8,,,,,7,,,70,37
247296,note_on,,,,,0,0,8,,,,,7,,,74,37
247296,note_on,,,,,96,0,7,,,,,6,,,46,63
247296,note_off,,,,,768,0,6,,,,,5,,,62,0
247296,note_on,,,,,0,0,6,,,,,5,,,58,75
247296,note_off,,,,,192,0,2,,,,,1,,,74,0
247296,note_on,,,,,0,0,2,,,,,1,,,65,75
247296,note_off,,,,,768,0,5,,,,,4,,,74,0
247680,note_off,,,,,768,0,3,,,,,2,,,74,0
247680,note_off,,,,,768,0,1,,,,,0,,,74,0
247680,note_on,,,,,0,0,1,,,,,0,,,77,75
247680,note_on,,,,,0,0,3,,,,,2,,,77,92
247872,note_on,,,,,0,0,1,,,,,0,,,70,75
247872,note_off,,,,,576,0,2,,,,,1,,,65,0
247872,note_on,,,,,0,0,2,,,,,1,,,62,75
247872,note_off,,,,,192,0,1,,,,,0,,,77,0
247872,note_on,,,,,0,0,3,,,,,2,,,70,92
247872,note_off,,,,,192,0,3,,,,,2,,,77,0
247872,note_on,,,,,0,0,4,,,,,3,,,62,92
247872,note_off,,,,,576,0,4,,,,,3,,,65,0
247968,note_off,,,,,672,0,7,,,,,6,,,46,0
247968,note_off,,,,,0,0,8,,,,,7,,,70,0
247968,note_off,,,,,672,0,8,,,,,7,,,65,0
247968,note_off,,,,,672,0,9,,,,,8,,,58,0
247968,note_off,,,,,0,0,8,,,,,7,,,74,0
248064,note_on,,,,,0,0,2,,,,,1,,,58,75
248064,note_off,,,,,768,0,6,,,,,5,,,58,0
248064,note_on,,,,,96,0,7,,,,,6,,,39,63
248064,note_off,,,,,192,0,3,,,,,2,,,70,0
248064,note_off,,,,,192,0,4,,,,,3,,,62,0
248064,note_on,,,,,0,0,6,,,,,5,,,51,75
248064,note_on,,,,,0,0,8,,,,,7,,,70,37
248064,note_on,,,,,96,0,8,,,,,7,,,67,37
248064,note_on,,,,,0,0,4,,,,,3,,,58,92
248064,note_off,,,,,192,0,1,,,,,0,,,70,0
248064,note_on,,,,,0,0,5,,,,,4,,,63,75
248064,note_on,,,,,0,0,1,,,,,0,,,79,75
248064,note_on,,,,,0,0,3,,,,,2,,,79,92
248064,note_off,,,,,192,0,2,,,,,1,,,62,0
248064,note_off,,,,,768,0,5,,,,,4,,,62,0
248064,note_on,,,,,96,0,9,,,,,8,,,51,37
248256,note_off,,,,,192,0,2,,,,,1,,,58,0
248256,note_off,,,,,192,0,4,,,,,3,,,58,0
248256,note_on,,,,,0,0,4,,,,,3,,,63,92
248256,note_on,,,,,0,0,2,,,,,1,,,63,75
248448,note_on,,,,,0,0,1,,,,,0,,,82,75
248448,note_on,,,,,0,0,4,,,,,3,,,67,92
248448,note_off,,,,,192,0,4,,,,,3,,,63,0
248448,note_off,,,,,192,0,2,,,,,1,,,63,0
248448,note_off,,,,,384,0,3,,,,,2,,,79,0
248448,note_on,,,,,0,0,2,,,,,1,,,67,75
248448,note_off,,,,,384,0,1,,,,,0,,,79,0
248448,note_on,,,,,0,0,3,,,,,2,,,82,92
248640,note_on,,,,,0,0,1,,,,,0,,,75,75
248640,note_off,,,,,192,0,3,,,,,2,,,82,0
248640,note_on,,,,,0,0,3,,,,,2,,,75,92
248640,note_off,,,,,192,0,1,,,,,0,,,82,0
248736,note_off,,,,,672,0,7,,,,,6,,,39,0
248736,note_off,,,,,672,0,8,,,,,7,,,67,0
248736,note_off,,,,,672,0,9,,,,,8,,,51,0
248736,note_off,,,,,0,0,8,,,,,7,,,70,0
248832,note_on,,,,,0,0,2,,,,,1,,,70,75
248832,note_off,,,,,384,0,2,,,,,1,,,67,0
248832,note_off,,,,,384,0,4,,,,,3,,,67,0
248832,note_on,,,,,0,0,4,,,,,3,,,70,92
248832,note_on,,,,,0,0,1,,,,,0,,,77,75
248832,note_on,,,,,0,0,8,,,,,7,,,70,37
248832,note_on,,,,,96,0,8,,,,,7,,,65,37
248832,note_off,,,,,192,0,1,,,,,0,,,75,0
248832,note_on,,,,,96,0,9,,,,,8,,,50,37
248832,note_off,,,,,192,0,3,,,,,2,,,75,0
248832,note_on,,,,,0,0,3,,,,,2,,,77,92
248832,note_on,,,,,96,0,7,,,,,6,,,38,63
248832,note_off,,,,,768,0,5,,,,,4,,,63,0
248832,note_on,,,,,0,0,5,,,,,4,,,58,75
248832,note_off,,,,,768,0,6,,,,,5,,,51,0
248832,note_on,,,,,0,0,6,,,,,5,,,50,75
249024,note_off,,,,,192,0,3,,,,,2,,,77,0
249024,note_on,,,,,0,0,3,,,,,2,,,74,92
249024,note_off,,,,,192,0,1,,,,,0,,,77,0
249024,note_on,,,,,0,0,1,,,,,0,,,74,75
249216,note_on,,,,,0,0,3,,,,,2,,,70,92
249216,note_on,,,,,0,0,1,,,,,0,,,70,75
249216,note_off,,,,,192,0,3,,,,,2,,,74,0
249216,note_off,,,,,192,0,1,,,,,0,,,74,0
249408,note_on,,,,,0,0,4,,,,,3,,,62,92
249408,note_off,,,,,576,0,4,,,,,3,,,70,0
249408,note_off,,,,,576,0,2,,,,,1,,,70,0
249408,note_on,,,,,0,0,2,,,,,1,,,62,75
249504,note_off,,,,,672,0,8,,,,,7,,,65,0
249504,note_off,,,,,672,0,9,,,,,8,,,50,0
249504,note_off,,,,,0,0,8,,,,,7,,,70,0
249504,note_off,,,,,672,0,7,,,,,6,,,38,0
249600,note_on,,,,,0,0,2,,,,,1,,,58,75
249600,note_on,,,,,96,0,9,,,,,8,,,55,37
249600,note_off,,,,,192,0,4,,,,,3,,,62,0
249600,note_on,,,,,0,0,4,,,,,3,,,58,92
249600,note_off,,,,,192,0,2,,,,,1,,,62,0
249600,note_on,,,,,0,0,6,,,,,5,,,55,75
249600,note_off,,,,,768,0,5,,,,,4,,,58,0
249600,note_on,,,,,0,0,5,,,,,4,,,58,75
249600,note_off,,,,,768,0,6,,,,,5,,,50,0
249600,note_on,,,,,96,0,7,,,,,6,,,43,63
249600,note_on,,,,,0,0,8,,,,,7,,,70,37
249600,note_on,,,,,96,0,8,,,,,7,,,62,37
249792,note_off,,,,,192,0,4,,,,,3,,,58,0
249792,note_on,,,,,0,0,4,,,,,3,,,62,92
249792,note_off,,,,,192,0,2,,,,,1,,,58,0
249792,note_on,,,,,0,0,2,,,,,1,,,62,75
249984,note_on,,,,,0,0,3,,,,,2,,,74,92
249984,note_on,,,,,0,0,2,,,,,1,,,70,75
249984,note_off,,,,,768,0,3,,,,,2,,,70,0
249984,note_off,,,,,192,0,4,,,,,3,,,62,0
249984,note_on,,,,,0,0,4,,,,,3,,,70,92
249984,note_off,,,,,768,0,1,,,,,0,,,70,0
249984,note_on,,,,,0,0,1,,,,,0,,,74,75
249984,note_off,,,,,192,0,2,,,,,1,,,62,0
250176,note_on,,,,,0,0,1,,,,,0,,,70,75
250176,note_off,,,,,192,0,3,,,,,2,,,74,0
250176,note_off,,,,,192,0,1,,,,,0,,,74,0
250176,note_on,,,,,0,0,3,,,,,2,,,70,92
250272,note_off,,,,,672,0,9,,,,,8,,,55,0
250272,note_off,,,,,672,0,8,,,,,7,,,62,0
250272,note_off,,,,,672,0,7,,,,,6,,,43,0
250368,note_on,,,,,96,0,8,,,,,7,,,60,37
250368,note_on,,,,,0,0,5,,,,,4,,,60,75
250368,note_off,,,,,768,0,5,,,,,4,,,58,0
250368,note_off,,,,,192,0,1,,,,,0,,,70,0
250368,note_on,,,,,0,0,1,,,,,0,,,75,75
250368,note_on,,,,,0,0,3,,,,,2,,,75,92
250368,note_on,,,,,96,0,7,,,,,6,,,36,63
250368,note_off,,,,,192,0,3,,,,,2,,,70,0
250368,note_on,,,,,96,0,9,,,,,8,,,48,37
250368,note_on,,,,,0,0,8,,,,,7,,,63,37
250368,note_off,,,,,768,0,6,,,,,5,,,55,0
250368,note_on,,,,,0,0,6,,,,,5,,,48,75
250560,note_off,,,,,192,0,1,,,,,0,,,75,0
250560,note_on,,,,,0,0,1,,,,,0,,,67,75
250560,note_off,,,,,192,0,3,,,,,2,,,75,0
250560,note_on,,,,,0,0,3,,,,,2,,,67,92
250688,note_off,,,,,320,0,9,,,,,8,,,48,0
250688,note_off,,,,,320,0,8,,,,,7,,,70,0
250688,note_off,,,,,320,0,7,,,,,6,,,36,0
250752,note_on,,,,,0,0,4,,,,,3,,,69,92
250752,note_off,,,,,192,0,1,,,,,0,,,67,0
250752,note_on,,,,,0,0,1,,,,,0,,,69,75
250752,note_on,,,,,0,0,3,,,,,2,,,69,92
250752,note_off,,,,,192,0,3,,,,,2,,,67,0
250752,note_on,,,,,64,0,9,,,,,8,,,41,37
250752,note_off,,,,,768,0,4,,,,,3,,,70,0
250752,note_off,,,,,384,0,5,,,,,4,,,60,0
250752,note_on,,,,,0,0,5,,,,,4,,,72,75
250752,note_off,,,,,384,0,6,,,,,5,,,48,0
250752,note_off,,,,,768,0,2,,,,,1,,,70,0
250752,note_on,,,,,0,0,6,,,,,5,,,41,75
250752,note_on,,,,,0,0,2,,,,,1,,,69,75
250752,note_on,,,,,64,0,8,,,,,7,,,69,37
250752,note_on,,,,,64,0,7,,,,,6,,,29,63
250944,note_on,,,,,0,0,5,,,,,4,,,69,75
250944,note_on,,,,,0,0,1,,,,,0,,,77,75
250944,note_off,,,,,192,0,1,,,,,0,,,69,0
250944,note_off,,,,,192,0,3,,,,,2,,,69,0
250944,note_on,,,,,0,0,3,,,,,2,,,77,92
250944,note_off,,,,,192,0,5,,,,,4,,,72,0
251040,note_off,,,,,0,0,8,,,,,7,,,63,0
251040,note_off,,,,,288,0,8,,,,,7,,,60,0
251072,note_off,,,,,32,0,8,,,,,7,,,69,0
251072,note_off,,,,,320,0,9,,,,,8,,,41,0
251072,note_off,,,,,320,0,7,,,,,6,,,29,0
251136,note_on,,,,,0,0,2,,,,,1,,,70,75
251136,note_on,,,,,0,0,3,,,,,2,,,74,92
251136,note_on,,,,,64,0,8,,,,,7,,,62,37
251136,note_on,,,,,0,0,5,,,,,4,,,62,75
251136,note_off,,,,,192,0,5,,,,,4,,,69,0
251136,note_off,,,,,384,0,2,,,,,1,,,69,0
251136,note_off,,,,,192,0,3,,,,,2,,,77,0
251136,note_on,,,,,0,0,4,,,,,3,,,70,92
251136,note_off,,,,,384,0,4,,,,,3,,,69,0
251136,note_on,,,,,0,0,1,,,,,0,,,74,75
251136,note_off,,,,,384,0,6,,,,,5,,,41,0
251136,note_on,,,,,64,0,7,,,,,6,,,34,63
251136,note_on,,,,,64,0,9,,,,,8,,,46,37
251136,note_off,,,,,192,0,1,,,,,0,,,77,0
251136,note_on,,,,,0,0,6,,,,,5,,,46,75
251328,note_off,,,,,192,0,5,,,,,4,,,62,0
251328,note_off,,,,,192,0,3,,,,,2,,,74,0
251328,note_on,,,,,0,0,3,,,,,2,,,70,92
251328,note_on,,,,,0,0,1,,,,,0,,,70,75
251328,note_on,,,,,0,0,5,,,,,4,,,65,75
251328,note_off,,,,,192,0,1,,,,,0,,,74,0
251456,note_off,,,,,320,0,9,,,,,8,,,46,0
251456,note_off,,,,,320,0,8,,,,,7,,,62,0
251456,note_off,,,,,320,0,7,,,,,6,,,34,0
251520,note_off,,,,,192,0,3,,,,,2,,,70,0
251520,note_on,,,,,0,0,3,,,,,2,,,79,92
251520,note_off,,,,,384,0,6,,,,,5,,,46,0
251520,note_on,,,,,0,0,8,,,,,7,,,67,37
251520,note_on,,,,,0,0,6,,,,,5,,,51,75
251520,note_on,,,,,64,0,8,,,,,7,,,63,37
251520,note_off,,,,,192,0,1,,,,,0,,,70,0
251520,note_on,,,,,64,0,7,,,,,6,,,39,63
251520,note_on,,,,,64,0,9,,,,,8,,,51,37
251520,note_on,,,,,0,0,1,,,,,0,,,79,75
251520,note_on,,,,,0,0,5,,,,,4,,,67,75
251520,note_off,,,,,192,0,5,,,,,4,,,65,0
251712,note_on,,,,,0,0,2,,,,,1,,,72,75
251712,note_off,,,,,576,0,2,,,,,1,,,70,0
251712,note_off,,,,,192,0,1,,,,,0,,,79,0
251712,note_on,,,,,0,0,3,,,,,2,,,75,92
251712,note_off,,,,,192,0,3,,,,,2,,,79,0
251712,note_on,,,,,0,0,4,,,,,3,,,72,92
251712,note_on,,,,,0,0,1,,,,,0,,,75,75
251712,note_off,,,,,576,0,4,,,,,3,,,70,0
251840,note_off,,,,,320,0,7,,,,,6,,,39,0
251840,note_off,,,,,320,0,9,,,,,8,,,51,0
251840,note_off,,,,,320,0,8,,,,,7,,,63,0
251840,note_off,,,,,0,0,8,,,,,7,,,67,0
251904,note_off,,,,,384,0,5,,,,,4,,,67,0
251904,note_on,,,,,0,0,5,,,,,4,,,62,75
251904,note_on,,,,,64,0,9,,,,,8,,,58,37
251904,note_on,,,,,0,0,4,,,,,3,,,74,92
251904,note_on,,,,,0,0,3,,,,,2,,,77,92
251904,note_off,,,,,192,0,3,,,,,2,,,75,0
251904,note_off,,,,,192,0,1,,,,,0,,,75,0
251904,note_on,,,,,0,0,1,,,,,0,,,77,75
251904,note_off,,,,,192,0,2,,,,,1,,,72,0
251904,note_on,,,,,0,0,2,,,,,1,,,74,75
251904,note_on,,,,,0,0,6,,,,,5,,,58,75
251904,note_off,,,,,384,0,6,,,,,5,,,51,0
251904,note_on,,,,,64,0,7,,,,,6,,,46,63
251904,note_on,,,,,64,0,8,,,,,7,,,62,37
251904,note_on,,,,,0,0,8,,,,,7,,,65,37
251904,note_off,,,,,192,0,4,,,,,3,,,72,0
251904,note_on,,,,,0,0,8,,,,,7,,,70,37
252096,note_on,,,,,0,0,2,,,,,1,,,70,75
252096,note_off,,,,,192,0,3,,,,,2,,,77,0
252096,note_on,,,,,0,0,3,,,,,2,,,74,92
252096,note_off,,,,,192,0,4,,,,,3,,,74,0
252096,note_on,,,,,0,0,4,,,,,3,,,70,92
252096,note_on,,,,,0,0,1,,,,,0,,,74,75
252096,note_off,,,,,192,0,1,,,,,0,,,77,0
252096,note_off,,,,,192,0,2,,,,,1,,,74,0
252224,note_off,,,,,0,0,8,,,,,7,,,65,0
252224,note_off,,,,,320,0,7,,,,,6,,,46,0
252224,note_off,,,,,320,0,9,,,,,8,,,58,0
252224,note_off,,,,,320,0,8,,,,,7,,,62,0
252288,note_on,,,,,64,0,9,,,,,8,,,51,37
252288,note_off,,,,,192,0,4,,,,,3,,,70,0
252288,note_on,,,,,0,0,4,,,,,3,,,72,92
252288,note_off,,,,,384,0,6,,,,,5,,,58,0
252288,note_on,,,,,0,0,5,,,,,4,,,67,75
252288,note_on,,,,,64,0,8,,,,,7,,,60,37
252288,note_on,,,,,0,0,3,,,,,2,,,75,92
252288,note_on,,,,,0,0,6,,,,,5,,,51,75
252288,note_on,,,,,0,0,1,,,,,0,,,75,75
252288,note_off,,,,,192,0,1,,,,,0,,,74,0
252288,note_off,,,,,192,0,3,,,,,2,,,74,0
252288,note_on,,,,,0,0,8,,,,,7,,,67,37
252288,note_off,,,,,384,0,5,,,,,4,,,62,0
252288,note_on,,,,,64,0,7,,,,,6,,,39,63
252288,note_on,,,,,0,0,2,,,,,1,,,72,75
252288,note_off,,,,,192,0,2,,,,,1,,,70,0
252480,note_off,,,,,192,0,3,,,,,2,,,75,0
252480,note_on,,,,,0,0,3,,,,,2,,,72,92
252480,note_off,,,,,192,0,1,,,,,0,,,75,0
252480,note_on,,,,,0,0,1,,,,,0,,,72,75
252608,note_off,,,,,0,0,8,,,,,7,,,67,0
252608,note_off,,,,,320,0,8,,,,,7,,,60,0
252608,note_off,,,,,320,0,9,,,,,8,,,51,0
252608,note_off,,,,,320,0,7,,,,,6,,,39,0
252672,note_on,,,,,64,0,9,,,,,8,,,53,37
252672,note_on,,,,,0,0,6,,,,,5,,,53,75
252672,note_off,,,,,192,0,3,,,,,2,,,72,0
252672,note_on,,,,,0,0,3,,,,,2,,,74,92
252672,note_off,,,,,384,0,5,,,,,4,,,67,0
252672,note_on,,,,,0,0,1,,,,,0,,,74,75
252672,note_off,,,,,192,0,1,,,,,0,,,72,0
252672,note_off,,,,,384,0,4,,,,,3,,,72,0
252672,note_off,,,,,384,0,6,,,,,5,,,51,0
252672,note_on,,,,,0,0,4,,,,,3,,,65,92
252672,note_on,,,,,0,0,5,,,,,4,,,65,75
252672,set_tempo,,,,,252672,1,0,,333333,,,,,,,
252672,note_on,,,,,0,0,2,,,,,1,,,65,75
252672,note_off,,,,,384,0,2,,,,,1,,,72,0
252672,note_on,,,,,64,0,7,,,,,6,,,41,63
252672,note_on,,,,,64,0,8,,,,,7,,,62,37
252672,note_on,,,,,0,0,8,,,,,7,,,65,37
252864,note_on,,,,,0,0,3,,,,,2,,,70,92
252864,note_off,,,,,192,0,1,,,,,0,,,74,0
252864,note_on,,,,,0,0,1,,,,,0,,,70,75
252864,note_off,,,,,192,0,3,,,,,2,,,74,0
252992,note_off,,,,,320,0,8,,,,,7,,,70,0
252992,note_off,,,,,320,0,9,,,,,8,,,53,0
252992,note_off,,,,,320,0,7,,,,,6,,,41,0
252992,note_off,,,,,0,0,8,,,,,7,,,65,0
252992,note_off,,,,,0,0,8,,,,,7,,,62,0
253056,note_on,,,,,64,0,9,,,,,8,,,41,37
253056,note_off,,,,,384,0,2,,,,,1,,,65,0
253056,note_off,,,,,384,0,4,,,,,3,,,65,0
253056,note_on,,,,,0,0,4,,,,,3,,,63,92
253056,note_on,,,,,64,0,8,,,,,7,,,60,37
253056,note_on,,,,,0,0,8,,,,,7,,,63,37
253056,note_on,,,,,0,0,8,,,,,7,,,69,37
253056,note_on,,,,,0,0,5,,,,,4,,,69,75
253056,note_off,,,,,384,0,5,,,,,4,,,65,0
253056,note_on,,,,,0,0,1,,,,,0,,,72,75
253056,note_on,,,,,0,0,2,,,,,1,,,63,75
253056,note_off,,,,,192,0,1,,,,,0,,,70,0
253056,note_on,,,,,64,0,7,,,,,6,,,29,63
253056,note_off,,,,,384,0,6,,,,,5,,,53,0
253056,note_on,,,,,0,0,6,,,,,5,,,41,75
253056,note_off,,,,,192,0,3,,,,,2,,,70,0
253056,note_on,,,,,0,0,3,,,,,2,,,72,92
253248,note_off,,,,,192,0,1,,,,,0,,,72,0
253248,note_on,,,,,0,0,1,,,,,0,,,69,75
253248,note_on,,,,,0,0,3,,,,,2,,,69,92
253248,note_off,,,,,192,0,3,,,,,2,,,72,0
253376,note_off,,,,,0,0,8,,,,,7,,,69,0
253376,note_off,,,,,0,0,8,,,,,7,,,63,0
253376,note_off,,,,,320,0,7,,,,,6,,,29,0
253376,note_off,,,,,320,0,8,,,,,7,,,60,0
253376,note_off,,,,,320,0,9,,,,,8,,,41,0
253440,note_on,,,,,0,0,3,,,,,2,,,70,92
253440,note_off,,,,,192,0,3,,,,,2,,,69,0
253440,note_on,,,,,64,0,9,,,,,8,,,43,37
253440,note_on,,,,,0,0,8,,,,,7,,,70,37
253440,note_on,,,,,64,0,8,,,,,7,,,58,37
253440,note_on,,,,,0,0,5,,,,,4,,,62,75
253440,note_on,,,,,0,0,4,,,,,3,,,62,92
253440,note_off,,,,,192,0,1,,,,,0,,,69,0
253440,note_on,,,,,0,0,1,,,,,0,,,70,75
253440,note_on,,,,,0,0,8,,,,,7,,,62,37
253440,note_off,,,,,384,0,5,,,,,4,,,69,0
253440,note_off,,,,,384,0,4,,,,,3,,,63,0
253440,note_on,,,,,0,0,6,,,,,5,,,43,75
253440,note_off,,,,,384,0,6,,,,,5,,,41,0
253440,set_tempo,,,,,768,1,0,,375000,,,,,,,
253440,note_on,,,,,0,0,2,,,,,1,,,62,75
253440,note_off,,,,,384,0,2,,,,,1,,,63,0
253440,note_on,,,,,64,0,7,,,,,6,,,31,63
253760,note_off,,,,,320,0,9,,,,,8,,,43,0
253760,note_off,,,,,320,0,7,,,,,6,,,31,0
253824,note_on,,,,,0,0,6,,,,,5,,,41,75
253824,note_off,,,,,384,0,6,,,,,5,,,43,0
253824,note_on,,,,,0,0,3,,,,,2,,,62,92
253824,note_off,,,,,384,0,3,,,,,2,,,70,0
253824,note_on,,,,,64,0,9,,,,,8,,,41,37
253824,note_off,,,,,384,0,1,,,,,0,,,70,0
253824,note_on,,,,,0,0,1,,,,,0,,,62,75
253824,note_on,,,,,64,0,7,,,,,6,,,29,63
254112,note_off,,,,,0,0,8,,,,,7,,,62,0
254112,note_off,,,,,672,0,8,,,,,7,,,58,0
254112,note_off,,,,,0,0,8,,,,,7,,,70,0
254144,note_off,,,,,320,0,9,,,,,8,,,41,0
254144,note_off,,,,,320,0,7,,,,,6,,,29,0
254208,note_off,,,,,384,0,1,,,,,0,,,62,0
254208,note_off,,,,,768,0,4,,,,,3,,,62,0
254208,note_on,,,,,0,0,4,,,,,3,,,63,92
254208,note_on,,,,,0,0,6,,,,,5,,,39,75
254208,note_off,,,,,384,0,6,,,,,5,,,41,0
254208,note_on,,,,,64,0,7,,,,,6,,,27,63
254208,note_on,,,,,0,0,8,,,,,7,,,67,37
254208,note_off,,,,,768,0,2,,,,,1,,,62,0
254208,note_on,,,,,0,0,5,,,,,4,,,55,75
254208,note_off,,,,,768,0,5,,,,,4,,,62,0
254208,note_on,,,,,0,0,2,,,,,1,,,63,75
254208,note_on,,,,,0,0,3,,,,,2,,,60,92
254208,note_on,,,,,0,0,8,,,,,7,,,70,37
254208,note_on,,,,,64,0,9,,,,,8,,,39,37
254208,note_on,,,,,96,0,8,,,,,7,,,60,37
254208,note_on,,,,,0,0,1,,,,,0,,,60,75
254208,note_off,,,,,384,0,3,,,,,2,,,62,0
254208,set_tempo,,,,,768,1,0,,428571,,,,,,,
254592,note_off,,,,,384,0,1,,,,,0,,,60,0
254592,note_on,,,,,0,0,1,,,,,0,,,70,75
254592,note_on,,,,,0,0,3,,,,,2,,,70,92
254592,note_off,,,,,384,0,3,,,,,2,,,60,0
254880,note_off,,,,,672,0,8,,,,,7,,,60,0
254880,note_off,,,,,672,0,7,,,,,6,,,27,0
254880,note_off,,,,,0,0,8,,,,,7,,,70,0
254880,note_off,,,,,0,0,8,,,,,7,,,67,0
254880,note_off,,,,,672,0,9,,,,,8,,,39,0
254976,note_off,,,,,768,0,6,,,,,5,,,39,0
254976,note_on,,,,,0,0,8,,,,,7,,,65,37
254976,note_on,,,,,0,0,8,,,,,7,,,69,37
254976,note_on,,,,,0,0,4,,,,,3,,,60,92
254976,note_off,,,,,768,0,4,,,,,3,,,63,0
254976,note_on,,,,,96,0,7,,,,,6,,,29,63
254976,note_off,,,,,768,0,5,,,,,4,,,55,0
254976,set_tempo,,,,,768,1,0,,500000,,,,,,,
254976,note_on,,,,,0,0,2,,,,,1,,,60,75
254976,note_off,,,,,768,0,2,,,,,1,,,63,0
254976,note_on,,,,,0,0,1,,,,,0,,,65,75
254976,note_off,,,,,384,0,1,,,,,0,,,70,0
254976,note_on,,,,,96,0,9,,,,,8,,,41,37
254976,note_on,,,,,0,0,6,,,,,5,,,41,75
254976,note_off,,,,,384,0,3,,,,,2,,,70,0
254976,note_on,,,,,0,0,3,,,,,2,,,65,92
254976,note_on,,,,,96,0,8,,,,,7,,,60,37
254976,note_on,,,,,0,0,5,,,,,4,,,53,75
255360,note_on,,,,,0,0,3,,,,,2,,,69,92
255360,note_off,,,,,384,0,3,,,,,2,,,65,0
255360,note_off,,,,,384,0,1,,,,,0,,,65,0
255360,note_on,,,,,0,0,1,,,,,0,,,69,75
255648,note_off,,,,,672,0,8,,,,,7,,,60,0
255648,note_off,,,,,0,0,8,,,,,7,,,65,0
255648,note_off,,,,,672,0,9,,,,,8,,,41,0
255648,note_off,,,,,672,0,7,,,,,6,,,29,0
255648,note_off,,,,,0,0,8,,,,,7,,,69,0
255744,note_off,,,,,768,0,5,,,,,4,,,53,0
255744,end_of_track,,,,,0,1,0,,,,,,,,,
255744,note_on,,,,,0,0,8,,,,,7,,,70,37
255744,note_on,,,,,0,0,8,,,,,7,,,65,37
255744,set_tempo,,,,,768,1,0,,375000,,,,,,,
255744,note_on,,,,,96,0,8,,,,,7,,,62,37
255744,note_on,,,,,0,0,5,,,,,4,,,53,75
255744,note_off,,,,,384,0,3,,,,,2,,,69,0
255744,note_on,,,,,0,0,4,,,,,3,,,62,92
255744,note_off,,,,,768,0,4,,,,,3,,,60,0
255744,note_off,,,,,768,0,6,,,,,5,,,41,0
255744,note_on,,,,,0,0,6,,,,,5,,,46,75
255744,note_on,,,,,96,0,7,,,,,6,,,34,63
255744,note_on,,,,,0,0,2,,,,,1,,,62,75
255744,note_off,,,,,768,0,2,,,,,1,,,60,0
255744,note_on,,,,,0,0,1,,,,,0,,,70,75
255744,note_off,,,,,384,0,1,,,,,0,,,69,0
255744,note_on,,,,,0,0,3,,,,,2,,,70,92
255744,note_on,,,,,96,0,9,,,,,8,,,46,37
257952,note_off,,,,,2208,0,9,,,,,8,,,46,0
257952,note_off,,,,,2208,0,7,,,,,6,,,34,0
257952,end_of_track,,,,,0,1,7,,,,,,,,,
257952,end_of_track,,,,,0,1,8,,,,,,,,,
257952,note_off,,,,,0,0,8,,,,,7,,,70,0
257952,end_of_track,,,,,0,1,9,,,,,,,,,
257952,note_off,,,,,0,0,8,,,,,7,,,65,0
257952,note_off,,,,,2208,0,8,,,,,7,,,62,0
258048,note_off,,,,,2304,0,3,,,,,2,,,70,0
258048,end_of_track,,,,,0,1,3,,,,,,,,,
258048,note_off,,,,,2304,0,5,,,,,4,,,53,0
258048,note_off,,,,,2304,0,1,,,,,0,,,70,0
258048,end_of_track,,,,,0,1,1,,,,,,,,,
258048,end_of_track,,,,,0,1,5,,,,,,,,,
258048,note_off,,,,,2304,0,2,,,,,1,,,62,0
258048,end_of_track,,,,,0,1,2,,,,,,,,,
258048,end_of_track,,,,,0,1,6,,,,,,,,,
258048,note_off,,,,,2304,0,6,,,,,5,,,46,0
258048,end_of_track,,,,,0,1,4,,,,,,,,,
258048,note_off,,,,,2304,0,4,,,,,3,,,62,0
