tick,type,numerator,denominator,clocks_per_click,notated_32nd_notes_per_beat,time,meta,track,data,tempo,control,value,channel,program,key,note,velocity
0,time_signature,3,4,96,8,0,1,0,,,,,,,,,
0,program_change,,,,,0,0,5,,,,,4,48,,,
0,key_signature,,,,,0,1,5,,,,,,,C,,
0,note_on,,,,,0,0,5,,,,,4,,,69,108
0,key_signature,,,,,0,1,16,,,,,,,C,,
0,track_name,,,,,0,1,6,,,,,,,,,
0,control_change,,,,,0,0,6,,,0,0,5,,,,
0,control_change,,,,,0,0,6,,,10,105,5,,,,
0,control_change,,,,,0,0,5,,,7,127,4,,,,
0,control_change,,,,,0,0,6,,,7,127,5,,,,
0,key_signature,,,,,0,1,6,,,,,,,C,,
0,note_on,,,,,0,0,6,,,,,5,,,64,92
0,track_name,,,,,0,1,7,,,,,,,,,
0,control_change,,,,,0,0,7,,,0,0,6,,,,
0,control_change,,,,,0,0,7,,,10,64,6,,,,
0,control_change,,,,,0,0,7,,,7,127,6,,,,
0,program_change,,,,,0,0,7,,,,,6,42,,,
0,program_change,,,,,0,0,6,,,,,5,41,,,
0,control_change,,,,,0,0,5,,,10,109,4,,,,
0,control_change,,,,,0,0,5,,,0,0,4,,,,
0,track_name,,,,,0,1,5,,,,,,,,,
0,control_change,,,,,0,0,2,,,10,109,1,,,,
0,control_change,,,,,0,0,2,,,7,127,1,,,,
0,program_change,,,,,0,0,2,,,,,1,40,,,
0,key_signature,,,,,0,1,2,,,,,,,C,,
0,track_name,,,,,0,1,3,,,,,,,,,
0,control_change,,,,,0,0,3,,,0,0,2,,,,
0,control_change,,,,,0,0,3,,,10,21,2,,,,
0,control_change,,,,,0,0,3,,,7,127,2,,,,
0,program_change,,,,,0,0,3,,,,,2,42,,,
0,key_signature,,,,,0,1,3,,,,,,,C,,
0,note_on,,,,,0,0,3,,,,,2,,,57,92
0,track_name,,,,,0,1,4,,,,,,,,,
0,control_change,,,,,0,0,4,,,0,0,3,,,,
0,control_change,,,,,0,0,4,,,10,21,3,,,,
0,control_change,,,,,0,0,4,,,7,127,3,,,,
0,program_change,,,,,0,0,4,,,,,3,48,,,
0,key_signature,,,,,0,1,4,,,,,,,C,,
0,key_signature,,,,,0,1,7,,,,,,,C,,
0,control_change,,,,,0,0,2,,,0,0,1,,,,
0,note_on,,,,,0,0,7,,,,,6,,,57,92
0,control_change,,,,,0,0,8,,,0,0,7,,,,
0,track_name,,,,,0,1,11,,,,,,,,,
0,key_signature,,,,,0,1,11,,,,,,,C,,
0,end_of_track,,,,,0,1,11,,,,,,,,,
0,track_name,,,,,0,1,12,,,,,,,,,
0,key_signature,,,,,0,1,12,,,,,,,C,,
0,end_of_track,,,,,0,1,12,,,,,,,,,
0,track_name,,,,,0,1,13,,,,,,,,,
0,note_on,,,,,0,0,10,,,,,11,,,57,60
0,key_signature,,,,,0,1,13,,,,,,,C,,
0,track_name,,,,,0,1,14,,,,,,,,,
0,key_signature,,,,,0,1,14,,,,,,,C,,
0,end_of_track,,,,,0,1,14,,,,,,,,,
0,track_name,,,,,0,1,15,,,,,,,,,
0,key_signature,,,,,0,1,15,,,,,,,C,,
0,end_of_track,,,,,0,1,15,,,,,,,,,
0,track_name,,,,,0,1,16,,,,,,,,,
0,end_of_track,,,,,0,1,13,,,,,,,,,
0,key_signature,,,,,0,1,10,,,,,,,C,,
0,program_change,,,,,0,0,10,,,,,11,6,,,
0,control_change,,,,,0,0,10,,,7,127,11,,,,
0,control_change,,,,,0,0,8,,,10,64,7,,,,
0,control_change,,,,,0,0,8,,,7,127,7,,,,
0,program_change,,,,,0,0,8,,,,,7,43,,,
0,key_signature,,,,,0,1,8,,,,,,,C,,
0,note_on,,,,,0,0,8,,,,,7,,,45,75
0,track_name,,,,,0,1,9,,,,,,,,,
0,control_change,,,,,0,0,9,,,0,0,10,,,,
0,control_change,,,,,0,0,9,,,10,74,10,,,,
0,control_change,,,,,0,0,9,,,7,127,10,,,,
0,program_change,,,,,0,0,9,,,,,10,6,,,
0,key_signature,,,,,0,1,9,,,,,,,C,,
0,note_on,,,,,0,0,9,,,,,10,,,64,60
0,note_on,,,,,0,0,9,,,,,10,,,69,60
0,note_on,,,,,0,0,9,,,,,10,,,72,60
0,track_name,,,,,0,1,10,,,,,,,,,
0,control_change,,,,,0,0,10,,,0,0,11,,,,
0,control_change,,,,,0,0,10,,,10,51,11,,,,
0,track_name,,,,,0,1,8,,,,,,,,,
0,track_name,,,,,0,1,2,,,,,,,,,
0,end_of_track,,,,,0,1,16,,,,,,,,,
0,control_change,,,,,0,0,1,,,10,21,0,,,,
0,end_of_track,,,,,0,1,0,,,,,,,,,
0,sequencer_specific,,,,,0,1,0,"(0, 0, 65)",,,,,,,,
0,set_tempo,,,,,0,1,0,,461538,,,,,,,
0,program_change,,,,,0,0,1,,,,,0,40,,,
0,key_signature,,,,,0,1,1,,,,,,,C,,
0,control_change,,,,,0,0,1,,,7,127,0,,,,
0,control_change,,,,,0,0,1,,,0,0,0,,,,
0,track_name,,,,,0,1,1,,,,,,,,,
320,note_off,,,,,0,0,9,,,,,10,,,69,0
320,note_off,,,,,0,0,9,,,,,10,,,72,0
320,note_off,,,,,320,0,10,,,,,11,,,57,0
320,note_off,,,,,320,0,6,,,,,5,,,64,0
320,note_off,,,,,320,0,7,,,,,6,,,57,0
320,note_off,,,,,320,0,3,,,,,2,,,57,0
320,note_off,,,,,320,0,8,,,,,7,,,45,0
320,note_off,,,,,320,0,5,,,,,4,,,69,0
320,note_off,,,,,320,0,9,,,,,10,,,64,0
384,note_on,,,,,64,0,3,,,,,2,,,45,92
384,note_on,,,,,64,0,7,,,,,6,,,45,92
384,note_on,,,,,64,0,6,,,,,5,,,60,92
384,note_on,,,,,64,0,8,,,,,7,,,33,75
384,note_on,,,,,0,0,9,,,,,10,,,69,60
384,note_on,,,,,64,0,5,,,,,4,,,64,108
384,note_on,,,,,64,0,10,,,,,11,,,45,60
384,note_on,,,,,0,0,9,,,,,10,,,64,60
384,note_on,,,,,64,0,9,,,,,10,,,60,60
576,note_on,,,,,576,0,1,,,,,0,,,72,92
576,note_on,,,,,576,0,4,,,,,3,,,72,108
576,note_on,,,,,576,0,2,,,,,1,,,72,92
704,note_off,,,,,320,0,7,,,,,6,,,45,0
704,note_off,,,,,320,0,5,,,,,4,,,64,0
704,note_off,,,,,320,0,10,,,,,11,,,45,0
704,note_off,,,,,0,0,9,,,,,10,,,69,0
704,note_off,,,,,320,0,3,,,,,2,,,45,0
704,note_off,,,,,320,0,8,,,,,7,,,33,0
704,note_off,,,,,320,0,9,,,,,10,,,60,0
704,note_off,,,,,0,0,9,,,,,10,,,64,0
704,note_off,,,,,320,0,6,,,,,5,,,60,0
764,note_off,,,,,188,0,2,,,,,1,,,72,0
764,note_off,,,,,188,0,4,,,,,3,,,72,0
764,note_off,,,,,188,0,1,,,,,0,,,72,0
768,note_on,,,,,4,0,4,,,,,3,,,71,108
768,note_on,,,,,4,0,2,,,,,1,,,71,92
768,note_on,,,,,64,0,7,,,,,6,,,50,92
768,note_on,,,,,0,0,9,,,,,10,,,65,60
768,note_on,,,,,64,0,3,,,,,2,,,50,92
768,note_on,,,,,4,0,1,,,,,0,,,71,92
768,note_on,,,,,64,0,9,,,,,10,,,62,60
768,note_on,,,,,64,0,10,,,,,11,,,50,60
768,note_on,,,,,0,0,9,,,,,10,,,69,60
768,note_on,,,,,64,0,8,,,,,7,,,38,75
956,note_off,,,,,188,0,2,,,,,1,,,71,0
956,note_off,,,,,188,0,4,,,,,3,,,71,0
956,note_off,,,,,188,0,1,,,,,0,,,71,0
960,note_on,,,,,4,0,4,,,,,3,,,69,108
960,note_on,,,,,4,0,1,,,,,0,,,69,92
960,note_on,,,,,4,0,2,,,,,1,,,69,92
1088,note_off,,,,,320,0,8,,,,,7,,,38,0
1088,note_off,,,,,0,0,9,,,,,10,,,69,0
1088,note_off,,,,,320,0,10,,,,,11,,,50,0
1088,note_off,,,,,0,0,9,,,,,10,,,65,0
1088,note_off,,,,,320,0,9,,,,,10,,,62,0
1088,note_off,,,,,320,0,3,,,,,2,,,50,0
1088,note_off,,,,,320,0,7,,,,,6,,,50,0
1148,note_off,,,,,188,0,4,,,,,3,,,69,0
1148,note_off,,,,,188,0,1,,,,,0,,,69,0
1148,note_off,,,,,188,0,2,,,,,1,,,69,0
1152,note_on,,,,,64,0,9,,,,,10,,,59,60
1152,note_on,,,,,64,0,3,,,,,2,,,52,92
1152,note_on,,,,,0,0,9,,,,,10,,,64,60
1152,note_on,,,,,4,0,1,,,,,0,,,68,92
1152,note_on,,,,,4,0,4,,,,,3,,,68,108
1152,note_on,,,,,448,0,5,,,,,4,,,64,108
1152,note_on,,,,,64,0,8,,,,,7,,,40,75
1152,note_on,,,,,0,0,9,,,,,10,,,68,60
1152,note_on,,,,,64,0,10,,,,,11,,,52,60
1152,note_on,,,,,64,0,7,,,,,6,,,52,92
1152,note_on,,,,,448,0,6,,,,,5,,,59,92
1152,note_on,,,,,4,0,2,,,,,1,,,68,92
1248,note_off,,,,,96,0,4,,,,,3,,,68,0
1248,note_on,,,,,0,0,2,,,,,1,,,69,92
1248,note_off,,,,,96,0,2,,,,,1,,,68,0
1248,note_on,,,,,0,0,4,,,,,3,,,69,108
1248,note_off,,,,,96,0,1,,,,,0,,,68,0
1248,note_on,,,,,0,0,1,,,,,0,,,69,92
1344,note_off,,,,,96,0,2,,,,,1,,,69,0
1344,note_on,,,,,0,0,2,,,,,1,,,71,92
1344,note_off,,,,,96,0,4,,,,,3,,,69,0
1344,note_on,,,,,0,0,4,,,,,3,,,71,108
1344,note_on,,,,,0,0,1,,,,,0,,,71,92
1344,note_off,,,,,96,0,1,,,,,0,,,69,0
1472,note_off,,,,,320,0,8,,,,,7,,,40,0
1472,note_off,,,,,320,0,5,,,,,4,,,64,0
1472,note_off,,,,,320,0,7,,,,,6,,,52,0
1472,note_off,,,,,320,0,6,,,,,5,,,59,0
1472,note_off,,,,,0,0,9,,,,,10,,,68,0
1472,note_off,,,,,0,0,9,,,,,10,,,64,0
1472,note_off,,,,,320,0,10,,,,,11,,,52,0
1472,note_off,,,,,320,0,9,,,,,10,,,59,0
1472,note_off,,,,,320,0,3,,,,,2,,,52,0
1532,note_off,,,,,188,0,1,,,,,0,,,71,0
1532,note_off,,,,,188,0,2,,,,,1,,,71,0
1532,note_off,,,,,188,0,4,,,,,3,,,71,0
1536,note_on,,,,,64,0,10,,,,,11,,,56,60
1536,note_on,,,,,64,0,5,,,,,4,,,59,108
1536,note_on,,,,,0,0,9,,,,,10,,,64,60
1536,note_on,,,,,64,0,8,,,,,7,,,44,75
1536,note_on,,,,,64,0,6,,,,,5,,,64,92
1536,note_on,,,,,64,0,7,,,,,6,,,56,92
1536,note_on,,,,,64,0,3,,,,,2,,,56,92
1536,note_on,,,,,64,0,9,,,,,10,,,59,60
1728,note_on,,,,,196,0,1,,,,,0,,,74,92
1728,note_on,,,,,196,0,4,,,,,3,,,74,108
1728,note_on,,,,,196,0,2,,,,,1,,,74,92
1856,note_off,,,,,320,0,6,,,,,5,,,64,0
1856,note_off,,,,,320,0,5,,,,,4,,,59,0
1856,note_off,,,,,0,0,9,,,,,10,,,64,0
1856,note_off,,,,,320,0,9,,,,,10,,,59,0
1856,note_off,,,,,320,0,8,,,,,7,,,44,0
1856,note_off,,,,,320,0,7,,,,,6,,,56,0
1856,note_off,,,,,320,0,3,,,,,2,,,56,0
1856,note_off,,,,,320,0,10,,,,,11,,,56,0
1916,note_off,,,,,188,0,2,,,,,1,,,74,0
1916,note_off,,,,,188,0,4,,,,,3,,,74,0
1916,note_off,,,,,188,0,1,,,,,0,,,74,0
1920,note_on,,,,,4,0,4,,,,,3,,,72,108
1920,note_on,,,,,64,0,7,,,,,6,,,52,92
1920,note_on,,,,,4,0,1,,,,,0,,,72,92
1920,note_on,,,,,64,0,3,,,,,2,,,52,92
1920,note_on,,,,,4,0,2,,,,,1,,,72,92
1920,note_on,,,,,64,0,10,,,,,11,,,52,60
1920,note_on,,,,,64,0,9,,,,,10,,,59,60
1920,note_on,,,,,0,0,9,,,,,10,,,64,60
1920,note_on,,,,,0,0,9,,,,,10,,,68,60
1920,note_on,,,,,64,0,8,,,,,7,,,40,75
2108,note_off,,,,,188,0,1,,,,,0,,,72,0
2108,note_off,,,,,188,0,2,,,,,1,,,72,0
2108,note_off,,,,,188,0,4,,,,,3,,,72,0
2112,note_on,,,,,4,0,2,,,,,1,,,71,92
2112,note_on,,,,,4,0,4,,,,,3,,,71,108
2112,note_on,,,,,4,0,1,,,,,0,,,71,92
2240,note_off,,,,,320,0,7,,,,,6,,,52,0
2240,note_off,,,,,320,0,8,,,,,7,,,40,0
2240,note_off,,,,,320,0,3,,,,,2,,,52,0
2240,note_off,,,,,0,0,9,,,,,10,,,68,0
2240,note_off,,,,,0,0,9,,,,,10,,,64,0
2240,note_off,,,,,320,0,9,,,,,10,,,59,0
2240,note_off,,,,,320,0,10,,,,,11,,,52,0
2300,note_off,,,,,188,0,1,,,,,0,,,71,0
2300,note_off,,,,,188,0,4,,,,,3,,,71,0
2300,note_off,,,,,188,0,2,,,,,1,,,71,0
2304,note_on,,,,,4,0,2,,,,,1,,,69,92
2304,note_on,,,,,4,0,1,,,,,0,,,69,92
2304,note_on,,,,,4,0,4,,,,,3,,,69,108
2304,note_on,,,,,448,0,6,,,,,5,,,60,92
2304,note_on,,,,,448,0,5,,,,,4,,,64,108
2400,note_on,,,,,0,0,2,,,,,1,,,71,92
2400,note_on,,,,,0,0,1,,,,,0,,,71,92
2400,note_off,,,,,96,0,1,,,,,0,,,69,0
2400,note_off,,,,,96,0,2,,,,,1,,,69,0
2400,note_on,,,,,0,0,4,,,,,3,,,71,108
2400,note_off,,,,,96,0,4,,,,,3,,,69,0
2496,note_off,,,,,96,0,2,,,,,1,,,71,0
2496,note_on,,,,,0,0,2,,,,,1,,,72,92
2496,note_on,,,,,0,0,1,,,,,0,,,72,92
2496,note_off,,,,,96,0,4,,,,,3,,,71,0
2496,note_off,,,,,96,0,1,,,,,0,,,71,0
2496,note_on,,,,,0,0,4,,,,,3,,,72,108
2624,note_off,,,,,320,0,5,,,,,4,,,64,0
2624,note_off,,,,,320,0,6,,,,,5,,,60,0
2684,note_off,,,,,188,0,1,,,,,0,,,72,0
2684,note_off,,,,,188,0,4,,,,,3,,,72,0
2684,note_off,,,,,188,0,2,,,,,1,,,72,0
2688,note_on,,,,,0,0,9,,,,,10,,,69,60
2688,note_on,,,,,0,0,9,,,,,10,,,64,60
2688,note_on,,,,,448,0,9,,,,,10,,,60,60
2688,note_on,,,,,448,0,10,,,,,11,,,57,60
2688,note_on,,,,,448,0,8,,,,,7,,,45,75
2688,note_on,,,,,448,0,3,,,,,2,,,57,92
2688,note_on,,,,,448,0,7,,,,,6,,,57,92
2880,note_on,,,,,196,0,2,,,,,1,,,76,92
2880,note_on,,,,,196,0,4,,,,,3,,,76,108
2880,note_on,,,,,196,0,1,,,,,0,,,76,92
3008,note_off,,,,,320,0,10,,,,,11,,,57,0
3008,note_off,,,,,320,0,8,,,,,7,,,45,0
3008,note_off,,,,,320,0,7,,,,,6,,,57,0
3008,note_off,,,,,0,0,9,,,,,10,,,69,0
3008,note_off,,,,,0,0,9,,,,,10,,,64,0
3008,note_off,,,,,320,0,3,,,,,2,,,57,0
3008,note_off,,,,,320,0,9,,,,,10,,,60,0
3068,note_off,,,,,188,0,2,,,,,1,,,76,0
3068,note_off,,,,,188,0,4,,,,,3,,,76,0
3068,note_off,,,,,188,0,1,,,,,0,,,76,0
3072,note_on,,,,,64,0,7,,,,,6,,,60,92
3072,note_on,,,,,64,0,10,,,,,11,,,60,60
3072,note_on,,,,,4,0,1,,,,,0,,,74,92
3072,note_on,,,,,4,0,4,,,,,3,,,74,108
3072,note_on,,,,,64,0,8,,,,,7,,,48,75
3072,note_on,,,,,64,0,3,,,,,2,,,60,92
3072,note_on,,,,,0,0,9,,,,,10,,,69,60
3072,note_on,,,,,64,0,9,,,,,10,,,64,60
3072,note_on,,,,,4,0,2,,,,,1,,,74,92
3260,note_off,,,,,188,0,2,,,,,1,,,74,0
3260,note_off,,,,,188,0,4,,,,,3,,,74,0
3260,note_off,,,,,188,0,1,,,,,0,,,74,0
3264,note_on,,,,,4,0,4,,,,,3,,,72,108
3264,note_on,,,,,4,0,2,,,,,1,,,72,92
3264,note_on,,,,,4,0,1,,,,,0,,,72,92
3392,note_off,,,,,320,0,7,,,,,6,,,60,0
3392,note_off,,,,,320,0,3,,,,,2,,,60,0
3392,note_off,,,,,320,0,8,,,,,7,,,48,0
3392,note_off,,,,,0,0,9,,,,,10,,,69,0
3392,note_off,,,,,320,0,9,,,,,10,,,64,0
3392,note_off,,,,,320,0,10,,,,,11,,,60,0
3452,note_off,,,,,188,0,1,,,,,0,,,72,0
3452,note_off,,,,,188,0,4,,,,,3,,,72,0
3452,note_off,,,,,188,0,2,,,,,1,,,72,0
3456,note_on,,,,,4,0,1,,,,,0,,,71,92
3456,note_on,,,,,832,0,6,,,,,5,,,62,92
3456,note_on,,,,,4,0,2,,,,,1,,,71,92
3456,note_on,,,,,832,0,5,,,,,4,,,65,108
3456,note_on,,,,,4,0,4,,,,,3,,,71,108
3552,note_off,,,,,96,0,4,,,,,3,,,71,0
3552,note_on,,,,,0,0,4,,,,,3,,,72,108
3552,note_on,,,,,0,0,2,,,,,1,,,72,92
3552,note_on,,,,,0,0,1,,,,,0,,,72,92
3552,note_off,,,,,96,0,2,,,,,1,,,71,0
3552,note_off,,,,,96,0,1,,,,,0,,,71,0
3648,note_on,,,,,0,0,4,,,,,3,,,74,108
3648,note_off,,,,,96,0,1,,,,,0,,,72,0
3648,note_off,,,,,96,0,2,,,,,1,,,72,0
3648,note_on,,,,,0,0,2,,,,,1,,,74,92
3648,note_on,,,,,0,0,1,,,,,0,,,74,92
3648,note_off,,,,,96,0,4,,,,,3,,,72,0
3744,note_off,,,,,96,0,2,,,,,1,,,74,0
3744,note_on,,,,,0,0,2,,,,,1,,,76,92
3744,note_on,,,,,0,0,1,,,,,0,,,76,92
3744,note_on,,,,,0,0,4,,,,,3,,,76,108
3744,note_off,,,,,96,0,1,,,,,0,,,74,0
3744,note_off,,,,,96,0,4,,,,,3,,,74,0
3776,note_off,,,,,320,0,6,,,,,5,,,62,0
3776,note_off,,,,,320,0,5,,,,,4,,,65,0
3836,note_off,,,,,92,0,2,,,,,1,,,76,0
3836,note_off,,,,,92,0,4,,,,,3,,,76,0
3836,note_off,,,,,92,0,1,,,,,0,,,76,0
3840,note_on,,,,,448,0,3,,,,,2,,,62,92
3840,note_on,,,,,448,0,10,,,,,11,,,62,60
3840,note_on,,,,,448,0,9,,,,,10,,,65,60
3840,note_on,,,,,0,0,9,,,,,10,,,69,60
3840,note_on,,,,,4,0,2,,,,,1,,,77,92
3840,note_on,,,,,4,0,4,,,,,3,,,77,108
3840,note_on,,,,,448,0,7,,,,,6,,,62,92
3840,note_on,,,,,4,0,1,,,,,0,,,77,92
3840,note_on,,,,,448,0,8,,,,,7,,,50,75
4028,note_off,,,,,188,0,4,,,,,3,,,77,0
4028,note_off,,,,,188,0,2,,,,,1,,,77,0
4028,note_off,,,,,188,0,1,,,,,0,,,77,0
4032,note_on,,,,,4,0,2,,,,,1,,,72,92
4032,note_on,,,,,4,0,1,,,,,0,,,72,92
4032,note_on,,,,,4,0,4,,,,,3,,,72,108
4160,note_off,,,,,0,0,9,,,,,10,,,69,0
4160,note_off,,,,,320,0,10,,,,,11,,,62,0
4160,note_off,,,,,320,0,3,,,,,2,,,62,0
4160,note_off,,,,,320,0,9,,,,,10,,,65,0
4160,note_off,,,,,320,0,7,,,,,6,,,62,0
4160,note_off,,,,,320,0,8,,,,,7,,,50,0
4220,note_off,,,,,188,0,4,,,,,3,,,72,0
4220,note_off,,,,,188,0,2,,,,,1,,,72,0
4220,note_off,,,,,188,0,1,,,,,0,,,72,0
4224,note_on,,,,,64,0,9,,,,,10,,,65,60
4224,note_on,,,,,64,0,8,,,,,7,,,38,75
4224,note_on,,,,,4,0,2,,,,,1,,,71,92
4224,note_on,,,,,0,0,9,,,,,10,,,71,60
4224,note_on,,,,,64,0,3,,,,,2,,,50,92
4224,note_on,,,,,64,0,10,,,,,11,,,50,60
4224,note_on,,,,,4,0,1,,,,,0,,,71,92
4224,note_on,,,,,64,0,7,,,,,6,,,50,92
4224,note_on,,,,,4,0,4,,,,,3,,,71,108
4412,note_off,,,,,188,0,2,,,,,1,,,71,0
4412,note_off,,,,,188,0,1,,,,,0,,,71,0
4412,note_off,,,,,188,0,4,,,,,3,,,71,0
4416,note_on,,,,,4,0,1,,,,,0,,,69,92
4416,note_on,,,,,4,0,2,,,,,1,,,69,92
4416,note_on,,,,,4,0,4,,,,,3,,,69,108
4544,note_off,,,,,0,0,9,,,,,10,,,71,0
4544,note_off,,,,,320,0,9,,,,,10,,,65,0
4544,note_off,,,,,320,0,3,,,,,2,,,50,0
4544,note_off,,,,,320,0,10,,,,,11,,,50,0
4544,note_off,,,,,320,0,8,,,,,7,,,38,0
4544,note_off,,,,,320,0,7,,,,,6,,,50,0
4604,note_off,,,,,188,0,1,,,,,0,,,69,0
4604,note_off,,,,,188,0,4,,,,,3,,,69,0
4604,note_off,,,,,188,0,2,,,,,1,,,69,0
4608,note_on,,,,,4,0,1,,,,,0,,,68,92
4608,note_on,,,,,832,0,5,,,,,4,,,64,108
4608,note_on,,,,,4,0,4,,,,,3,,,68,108
4608,note_on,,,,,4,0,2,,,,,1,,,68,92
4608,note_on,,,,,832,0,6,,,,,5,,,64,92
4928,note_off,,,,,320,0,5,,,,,4,,,64,0
4928,note_off,,,,,320,0,4,,,,,3,,,68,0
4928,note_off,,,,,320,0,2,,,,,1,,,68,0
4928,note_off,,,,,320,0,6,,,,,5,,,64,0
4928,note_off,,,,,320,0,1,,,,,0,,,68,0
4992,note_on,,,,,0,0,9,,,,,10,,,71,60
4992,note_on,,,,,448,0,3,,,,,2,,,64,92
4992,note_on,,,,,448,0,8,,,,,7,,,52,75
4992,note_on,,,,,448,0,7,,,,,6,,,64,92
4992,note_on,,,,,448,0,10,,,,,11,,,64,60
4992,note_on,,,,,448,0,9,,,,,10,,,64,60
4992,note_on,,,,,0,0,9,,,,,10,,,68,60
5184,note_on,,,,,256,0,2,,,,,1,,,76,92
5184,note_on,,,,,256,0,1,,,,,0,,,76,92
5184,note_on,,,,,256,0,4,,,,,3,,,76,108
5312,note_off,,,,,320,0,8,,,,,7,,,52,0
5312,note_off,,,,,320,0,3,,,,,2,,,64,0
5312,note_off,,,,,320,0,7,,,,,6,,,64,0
5312,note_off,,,,,0,0,9,,,,,10,,,71,0
5312,note_off,,,,,0,0,9,,,,,10,,,68,0
5312,note_off,,,,,320,0,9,,,,,10,,,64,0
5312,note_off,,,,,320,0,10,,,,,11,,,64,0
5372,note_off,,,,,188,0,1,,,,,0,,,76,0
5372,note_off,,,,,188,0,4,,,,,3,,,76,0
5372,note_off,,,,,188,0,2,,,,,1,,,76,0
5376,note_on,,,,,64,0,3,,,,,2,,,62,92
5376,note_on,,,,,64,0,10,,,,,11,,,62,60
5376,note_on,,,,,4,0,2,,,,,1,,,77,92
5376,note_on,,,,,4,0,1,,,,,0,,,77,92
5376,note_on,,,,,64,0,9,,,,,10,,,65,60
5376,note_on,,,,,0,0,9,,,,,10,,,71,60
5376,note_on,,,,,64,0,7,,,,,6,,,62,92
5376,note_on,,,,,4,0,4,,,,,3,,,77,108
5376,note_on,,,,,64,0,8,,,,,7,,,50,75
5568,note_off,,,,,192,0,2,,,,,1,,,77,0
5568,note_off,,,,,192,0,1,,,,,0,,,77,0
5568,note_on,,,,,0,0,2,,,,,1,,,76,92
5568,note_on,,,,,0,0,1,,,,,0,,,76,92
5568,note_on,,,,,0,0,4,,,,,3,,,76,108
5568,note_off,,,,,192,0,4,,,,,3,,,77,0
5696,note_off,,,,,320,0,8,,,,,7,,,50,0
5696,note_off,,,,,320,0,9,,,,,10,,,65,0
5696,note_off,,,,,320,0,7,,,,,6,,,62,0
5696,note_off,,,,,320,0,3,,,,,2,,,62,0
5696,note_off,,,,,0,0,9,,,,,10,,,71,0
5696,note_off,,,,,320,0,10,,,,,11,,,62,0
5756,note_off,,,,,188,0,4,,,,,3,,,76,0
5756,note_off,,,,,188,0,1,,,,,0,,,76,0
5756,note_off,,,,,188,0,2,,,,,1,,,76,0
5760,note_on,,,,,4,0,2,,,,,1,,,79,127
5760,note_on,,,,,4,0,1,,,,,0,,,79,127
5760,note_on,,,,,832,0,6,,,,,5,,,64,92
5760,note_on,,,,,4,0,4,,,,,3,,,79,127
5948,note_off,,,,,188,0,1,,,,,0,,,79,0
5948,note_off,,,,,188,0,4,,,,,3,,,79,0
5948,note_off,,,,,188,0,2,,,,,1,,,79,0
5952,note_on,,,,,4,0,1,,,,,0,,,76,92
5952,note_on,,,,,4,0,2,,,,,1,,,76,92
5952,note_on,,,,,4,0,4,,,,,3,,,76,108
6080,note_off,,,,,320,0,6,,,,,5,,,64,0
6140,note_off,,,,,188,0,1,,,,,0,,,76,0
6140,note_off,,,,,188,0,2,,,,,1,,,76,0
6140,note_off,,,,,188,0,4,,,,,3,,,76,0
6144,note_on,,,,,1216,0,5,,,,,4,,,69,108
6144,note_on,,,,,448,0,7,,,,,6,,,61,92
6144,note_on,,,,,448,0,9,,,,,10,,,64,60
6144,note_on,,,,,0,0,9,,,,,10,,,69,60
6144,note_on,,,,,448,0,10,,,,,11,,,61,60
6144,note_on,,,,,64,0,6,,,,,5,,,61,92
6144,note_on,,,,,0,0,9,,,,,10,,,76,60
6144,note_on,,,,,448,0,3,,,,,2,,,61,92
6144,note_on,,,,,448,0,8,,,,,7,,,49,75
6336,note_on,,,,,196,0,1,,,,,0,,,76,92
6336,note_on,,,,,196,0,2,,,,,1,,,76,92
6336,note_on,,,,,196,0,4,,,,,3,,,76,108
6464,note_off,,,,,0,0,9,,,,,10,,,69,0
6464,note_off,,,,,320,0,3,,,,,2,,,61,0
6464,note_off,,,,,0,0,9,,,,,10,,,76,0
6464,note_off,,,,,320,0,9,,,,,10,,,64,0
6464,note_off,,,,,320,0,6,,,,,5,,,61,0
6464,note_off,,,,,320,0,5,,,,,4,,,69,0
6464,note_off,,,,,320,0,7,,,,,6,,,61,0
6464,note_off,,,,,320,0,8,,,,,7,,,49,0
6464,note_off,,,,,320,0,10,,,,,11,,,61,0
6524,note_off,,,,,188,0,2,,,,,1,,,76,0
6524,note_off,,,,,188,0,4,,,,,3,,,76,0
6524,note_off,,,,,188,0,1,,,,,0,,,76,0
6528,note_on,,,,,0,0,9,,,,,10,,,73,60
6528,note_on,,,,,4,0,1,,,,,0,,,81,92
6528,note_on,,,,,64,0,7,,,,,6,,,57,92
6528,note_on,,,,,0,0,9,,,,,10,,,69,60
6528,note_on,,,,,64,0,8,,,,,7,,,45,75
6528,note_on,,,,,4,0,2,,,,,1,,,81,92
6528,note_on,,,,,64,0,5,,,,,4,,,64,108
6528,note_on,,,,,64,0,3,,,,,2,,,57,92
6528,note_on,,,,,64,0,9,,,,,10,,,64,60
6528,note_on,,,,,4,0,4,,,,,3,,,81,108
6528,note_on,,,,,64,0,10,,,,,11,,,57,60
6716,note_off,,,,,188,0,4,,,,,3,,,81,0
6716,note_off,,,,,188,0,2,,,,,1,,,81,0
6716,note_off,,,,,188,0,1,,,,,0,,,81,0
6720,note_on,,,,,4,0,2,,,,,1,,,73,92
6720,note_on,,,,,4,0,1,,,,,0,,,73,92
6720,note_on,,,,,4,0,4,,,,,3,,,73,108
6848,note_off,,,,,320,0,7,,,,,6,,,57,0
6848,note_off,,,,,320,0,5,,,,,4,,,64,0
6848,note_off,,,,,0,0,9,,,,,10,,,69,0
6848,note_off,,,,,320,0,10,,,,,11,,,57,0
6848,note_off,,,,,320,0,9,,,,,10,,,64,0
6848,note_off,,,,,320,0,8,,,,,7,,,45,0
6848,note_off,,,,,320,0,3,,,,,2,,,57,0
6848,note_off,,,,,0,0,9,,,,,10,,,73,0
6908,note_off,,,,,188,0,2,,,,,1,,,73,0
6908,note_off,,,,,188,0,1,,,,,0,,,73,0
6908,note_off,,,,,188,0,4,,,,,3,,,73,0
6912,note_on,,,,,4,0,4,,,,,3,,,74,108
6912,note_on,,,,,448,0,6,,,,,5,,,65,92
6912,note_on,,,,,4,0,2,,,,,1,,,74,92
6912,note_on,,,,,4,0,1,,,,,0,,,74,92
7004,note_off,,,,,92,0,1,,,,,0,,,74,0
7004,note_off,,,,,92,0,2,,,,,1,,,74,0
7004,note_off,,,,,92,0,4,,,,,3,,,74,0
7008,note_on,,,,,4,0,2,,,,,1,,,76,92
7008,note_on,,,,,4,0,1,,,,,0,,,76,92
7008,note_on,,,,,4,0,4,,,,,3,,,76,108
7100,note_off,,,,,92,0,4,,,,,3,,,76,0
7100,note_off,,,,,92,0,2,,,,,1,,,76,0
7100,note_off,,,,,92,0,1,,,,,0,,,76,0
7104,note_on,,,,,4,0,1,,,,,0,,,77,92
7104,note_on,,,,,4,0,2,,,,,1,,,77,92
7104,note_on,,,,,4,0,4,,,,,3,,,77,108
7232,note_off,,,,,320,0,6,,,,,5,,,65,0
7292,note_off,,,,,188,0,1,,,,,0,,,77,0
7292,note_off,,,,,188,0,2,,,,,1,,,77,0
7292,note_off,,,,,188,0,4,,,,,3,,,77,0
7296,note_on,,,,,448,0,10,,,,,11,,,62,60
7296,note_on,,,,,64,0,6,,,,,5,,,64,92
7296,note_on,,,,,448,0,5,,,,,4,,,69,108
7296,note_on,,,,,448,0,7,,,,,6,,,62,92
7296,note_on,,,,,448,0,9,,,,,10,,,65,60
7296,note_on,,,,,448,0,8,,,,,7,,,50,75
7296,note_on,,,,,448,0,3,,,,,2,,,62,92
7296,note_on,,,,,0,0,9,,,,,10,,,69,60
7488,note_on,,,,,196,0,2,,,,,1,,,74,92
7488,note_on,,,,,196,0,1,,,,,0,,,74,92
7488,note_on,,,,,196,0,4,,,,,3,,,74,108
7616,note_off,,,,,0,0,9,,,,,10,,,69,0
7616,note_off,,,,,320,0,3,,,,,2,,,62,0
7616,note_off,,,,,320,0,6,,,,,5,,,64,0
7616,note_off,,,,,320,0,8,,,,,7,,,50,0
7616,note_off,,,,,320,0,9,,,,,10,,,65,0
7616,note_off,,,,,320,0,10,,,,,11,,,62,0
7616,note_off,,,,,320,0,7,,,,,6,,,62,0
7616,note_off,,,,,320,0,5,,,,,4,,,69,0
7676,note_off,,,,,188,0,1,,,,,0,,,74,0
7676,note_off,,,,,188,0,2,,,,,1,,,74,0
7676,note_off,,,,,188,0,4,,,,,3,,,74,0
7680,note_on,,,,,64,0,9,,,,,10,,,62,60
7680,note_on,,,,,4,0,2,,,,,1,,,76,92
7680,note_on,,,,,64,0,8,,,,,7,,,48,75
7680,note_on,,,,,64,0,7,,,,,6,,,60,92
7680,note_on,,,,,4,0,4,,,,,3,,,76,108
7680,note_on,,,,,64,0,3,,,,,2,,,60,92
7680,note_on,,,,,64,0,5,,,,,4,,,69,108
7680,note_on,,,,,0,0,9,,,,,10,,,65,60
7680,note_on,,,,,4,0,1,,,,,0,,,76,92
7680,note_on,,,,,64,0,10,,,,,11,,,60,60
7680,note_on,,,,,0,0,9,,,,,10,,,69,60
7872,note_off,,,,,192,0,4,,,,,3,,,76,0
7872,note_on,,,,,0,0,4,,,,,3,,,74,108
7872,note_on,,,,,0,0,1,,,,,0,,,74,92
7872,note_off,,,,,192,0,1,,,,,0,,,76,0
7872,note_off,,,,,192,0,2,,,,,1,,,76,0
7872,note_on,,,,,0,0,2,,,,,1,,,74,92
8000,note_off,,,,,320,0,9,,,,,10,,,62,0
8000,note_off,,,,,320,0,3,,,,,2,,,60,0
8000,note_off,,,,,320,0,10,,,,,11,,,60,0
8000,note_off,,,,,320,0,5,,,,,4,,,69,0
8000,note_off,,,,,320,0,8,,,,,7,,,48,0
8000,note_off,,,,,320,0,7,,,,,6,,,60,0
8000,note_off,,,,,0,0,9,,,,,10,,,65,0
8000,note_off,,,,,0,0,9,,,,,10,,,69,0
8060,note_off,,,,,188,0,2,,,,,1,,,74,0
8060,note_off,,,,,188,0,4,,,,,3,,,74,0
8060,note_off,,,,,188,0,1,,,,,0,,,74,0
8064,note_on,,,,,4,0,2,,,,,1,,,77,127
8064,note_on,,,,,4,0,1,,,,,0,,,77,127
8064,note_on,,,,,4,0,4,,,,,3,,,77,127
8252,note_off,,,,,188,0,2,,,,,1,,,77,0
8252,note_off,,,,,188,0,1,,,,,0,,,77,0
8252,note_off,,,,,188,0,4,,,,,3,,,77,0
8256,note_on,,,,,4,0,1,,,,,0,,,74,92
8256,note_on,,,,,4,0,4,,,,,3,,,74,108
8256,note_on,,,,,4,0,2,,,,,1,,,74,92
8444,note_off,,,,,188,0,2,,,,,1,,,74,0
8444,note_off,,,,,188,0,1,,,,,0,,,74,0
8444,note_off,,,,,188,0,4,,,,,3,,,74,0
8448,note_on,,,,,448,0,8,,,,,7,,,47,75
8448,note_on,,,,,448,0,3,,,,,2,,,59,92
8448,note_on,,,,,448,0,7,,,,,6,,,59,92
8448,note_on,,,,,448,0,9,,,,,10,,,62,60
8448,note_on,,,,,832,0,6,,,,,5,,,62,92
8448,note_on,,,,,0,0,9,,,,,10,,,74,60
8448,note_on,,,,,448,0,5,,,,,4,,,67,108
8448,note_on,,,,,448,0,10,,,,,11,,,59,60
8448,note_on,,,,,0,0,9,,,,,10,,,67,60
8640,note_on,,,,,196,0,4,,,,,3,,,74,108
8640,note_on,,,,,196,0,1,,,,,0,,,74,92
8640,note_on,,,,,196,0,2,,,,,1,,,74,92
8768,note_off,,,,,320,0,8,,,,,7,,,47,0
8768,note_off,,,,,320,0,3,,,,,2,,,59,0
8768,note_off,,,,,0,0,9,,,,,10,,,67,0
8768,note_off,,,,,320,0,6,,,,,5,,,62,0
8768,note_off,,,,,320,0,9,,,,,10,,,62,0
8768,note_off,,,,,0,0,9,,,,,10,,,74,0
8768,note_off,,,,,320,0,7,,,,,6,,,59,0
8768,note_off,,,,,320,0,5,,,,,4,,,67,0
8768,note_off,,,,,320,0,10,,,,,11,,,59,0
8828,note_off,,,,,188,0,2,,,,,1,,,74,0
8828,note_off,,,,,188,0,1,,,,,0,,,74,0
8828,note_off,,,,,188,0,4,,,,,3,,,74,0
8832,note_on,,,,,64,0,7,,,,,6,,,55,92
8832,note_on,,,,,64,0,5,,,,,4,,,67,108
8832,note_on,,,,,0,0,9,,,,,10,,,71,60
8832,note_on,,,,,64,0,3,,,,,2,,,55,92
8832,note_on,,,,,64,0,8,,,,,7,,,43,75
8832,note_on,,,,,0,0,9,,,,,10,,,67,60
8832,note_on,,,,,4,0,2,,,,,1,,,79,92
8832,note_on,,,,,4,0,4,,,,,3,,,79,108
8832,note_on,,,,,4,0,1,,,,,0,,,79,92
8832,note_on,,,,,64,0,10,,,,,11,,,55,60
8832,note_on,,,,,64,0,6,,,,,5,,,62,92
8832,note_on,,,,,64,0,9,,,,,10,,,62,60
9020,note_off,,,,,188,0,1,,,,,0,,,79,0
9020,note_off,,,,,188,0,2,,,,,1,,,79,0
9020,note_off,,,,,188,0,4,,,,,3,,,79,0
9024,note_on,,,,,4,0,4,,,,,3,,,71,108
9024,note_on,,,,,4,0,1,,,,,0,,,71,92
9024,note_on,,,,,4,0,2,,,,,1,,,71,92
9152,note_off,,,,,320,0,7,,,,,6,,,55,0
9152,note_off,,,,,320,0,8,,,,,7,,,43,0
9152,note_off,,,,,320,0,6,,,,,5,,,62,0
9152,note_off,,,,,320,0,9,,,,,10,,,62,0
9152,note_off,,,,,0,0,9,,,,,10,,,67,0
9152,note_off,,,,,0,0,9,,,,,10,,,71,0
9152,note_off,,,,,320,0,10,,,,,11,,,55,0
9152,note_off,,,,,320,0,5,,,,,4,,,67,0
9152,note_off,,,,,320,0,3,,,,,2,,,55,0
9212,note_off,,,,,188,0,2,,,,,1,,,71,0
9212,note_off,,,,,188,0,1,,,,,0,,,71,0
9212,note_off,,,,,188,0,4,,,,,3,,,71,0
9216,note_on,,,,,4,0,1,,,,,0,,,72,92
9216,note_on,,,,,4,0,2,,,,,1,,,72,92
9216,note_on,,,,,4,0,4,,,,,3,,,72,108
9312,note_on,,,,,0,0,4,,,,,3,,,74,108
9312,note_on,,,,,0,0,2,,,,,1,,,74,92
9312,note_on,,,,,0,0,1,,,,,0,,,74,92
9312,note_off,,,,,96,0,1,,,,,0,,,72,0
9312,note_off,,,,,96,0,2,,,,,1,,,72,0
9312,note_off,,,,,96,0,4,,,,,3,,,72,0
9408,note_on,,,,,0,0,2,,,,,1,,,76,92
9408,note_on,,,,,0,0,4,,,,,3,,,76,108
9408,note_off,,,,,96,0,2,,,,,1,,,74,0
9408,note_off,,,,,96,0,1,,,,,0,,,74,0
9408,note_on,,,,,0,0,1,,,,,0,,,76,92
9408,note_off,,,,,96,0,4,,,,,3,,,74,0
9596,note_off,,,,,188,0,4,,,,,3,,,76,0
9596,note_off,,,,,188,0,2,,,,,1,,,76,0
9596,note_off,,,,,188,0,1,,,,,0,,,76,0
9600,note_on,,,,,448,0,10,,,,,11,,,60,60
9600,note_on,,,,,448,0,5,,,,,4,,,64,108
9600,note_on,,,,,0,0,9,,,,,10,,,69,60
9600,note_on,,,,,448,0,9,,,,,10,,,64,60
9600,note_on,,,,,448,0,6,,,,,5,,,60,92
9600,note_on,,,,,448,0,3,,,,,2,,,60,92
9600,note_on,,,,,448,0,7,,,,,6,,,60,92
9600,note_on,,,,,448,0,8,,,,,7,,,48,75
9792,note_on,,,,,196,0,4,,,,,3,,,69,108
9792,note_on,,,,,196,0,2,,,,,1,,,69,92
9792,note_on,,,,,196,0,1,,,,,0,,,69,92
9920,note_off,,,,,320,0,9,,,,,10,,,64,0
9920,note_off,,,,,0,0,9,,,,,10,,,69,0
9920,note_off,,,,,320,0,5,,,,,4,,,64,0
9920,note_off,,,,,320,0,3,,,,,2,,,60,0
9920,note_off,,,,,320,0,10,,,,,11,,,60,0
9920,note_off,,,,,320,0,6,,,,,5,,,60,0
9920,note_off,,,,,320,0,8,,,,,7,,,48,0
9920,note_off,,,,,320,0,7,,,,,6,,,60,0
9980,note_off,,,,,188,0,1,,,,,0,,,69,0
9980,note_off,,,,,188,0,4,,,,,3,,,69,0
9980,note_off,,,,,188,0,2,,,,,1,,,69,0
9984,note_on,,,,,4,0,4,,,,,3,,,70,108
9984,note_on,,,,,4,0,1,,,,,0,,,70,92
9984,note_on,,,,,64,0,10,,,,,11,,,48,60
9984,note_on,,,,,64,0,6,,,,,5,,,60,92
9984,note_on,,,,,64,0,7,,,,,6,,,48,92
9984,note_on,,,,,64,0,3,,,,,2,,,48,92
9984,note_on,,,,,64,0,5,,,,,4,,,64,108
9984,note_on,,,,,0,0,9,,,,,10,,,69,60
9984,note_on,,,,,4,0,2,,,,,1,,,70,92
9984,note_on,,,,,64,0,8,,,,,7,,,36,75
9984,note_on,,,,,64,0,9,,,,,10,,,64,60
10172,note_off,,,,,188,0,4,,,,,3,,,70,0
10176,note_off,,,,,192,0,2,,,,,1,,,70,0
10176,note_on,,,,,0,0,1,,,,,0,,,69,92
10176,note_off,,,,,192,0,1,,,,,0,,,70,0
10176,note_on,,,,,0,0,2,,,,,1,,,69,92
10176,note_on,,,,,4,0,4,,,,,3,,,69,108
10304,note_off,,,,,320,0,3,,,,,2,,,48,0
10304,note_off,,,,,320,0,9,,,,,10,,,64,0
10304,note_off,,,,,320,0,8,,,,,7,,,36,0
10304,note_off,,,,,320,0,5,,,,,4,,,64,0
10304,note_off,,,,,320,0,10,,,,,11,,,48,0
10304,note_off,,,,,320,0,6,,,,,5,,,60,0
10304,note_off,,,,,320,0,7,,,,,6,,,48,0
10304,note_off,,,,,0,0,9,,,,,10,,,69,0
10364,note_off,,,,,188,0,1,,,,,0,,,69,0
10364,note_off,,,,,188,0,2,,,,,1,,,69,0
10364,note_off,,,,,188,0,4,,,,,3,,,69,0
10368,note_on,,,,,4,0,1,,,,,0,,,72,127
10368,note_on,,,,,4,0,2,,,,,1,,,72,127
10368,note_on,,,,,4,0,4,,,,,3,,,72,127
10556,note_off,,,,,188,0,2,,,,,1,,,72,0
10556,note_off,,,,,188,0,4,,,,,3,,,72,0
10556,note_off,,,,,188,0,1,,,,,0,,,72,0
10560,note_on,,,,,4,0,4,,,,,3,,,69,108
10560,note_on,,,,,4,0,2,,,,,1,,,69,92
10560,note_on,,,,,4,0,1,,,,,0,,,69,92
10748,note_off,,,,,188,0,2,,,,,1,,,69,0
10748,note_off,,,,,188,0,1,,,,,0,,,69,0
10748,note_off,,,,,188,0,4,,,,,3,,,69,0
10752,note_on,,,,,448,0,9,,,,,10,,,64,60
10752,note_on,,,,,448,0,7,,,,,6,,,60,92
10752,note_on,,,,,448,0,10,,,,,11,,,60,60
10752,note_on,,,,,448,0,6,,,,,5,,,60,92
10752,note_on,,,,,448,0,3,,,,,2,,,60,92
10752,note_on,,,,,0,0,9,,,,,10,,,69,60
10752,note_on,,,,,448,0,5,,,,,4,,,64,108
10752,note_on,,,,,448,0,8,,,,,7,,,48,75
10944,note_on,,,,,196,0,1,,,,,0,,,69,92
10944,note_on,,,,,196,0,4,,,,,3,,,69,108
10944,note_on,,,,,196,0,2,,,,,1,,,69,92
11072,note_off,,,,,320,0,8,,,,,7,,,48,0
11072,note_off,,,,,320,0,6,,,,,5,,,60,0
11072,note_off,,,,,320,0,3,,,,,2,,,60,0
11072,note_off,,,,,320,0,9,,,,,10,,,64,0
11072,note_off,,,,,320,0,10,,,,,11,,,60,0
11072,note_off,,,,,320,0,7,,,,,6,,,60,0
11072,note_off,,,,,0,0,9,,,,,10,,,69,0
11072,note_off,,,,,320,0,5,,,,,4,,,64,0
11132,note_off,,,,,188,0,2,,,,,1,,,69,0
11132,note_off,,,,,188,0,1,,,,,0,,,69,0
11132,note_off,,,,,188,0,4,,,,,3,,,69,0
11136,note_on,,,,,4,0,2,,,,,1,,,70,92
11136,note_on,,,,,64,0,5,,,,,4,,,64,108
11136,note_on,,,,,64,0,10,,,,,11,,,48,60
11136,note_on,,,,,64,0,8,,,,,7,,,36,75
11136,note_on,,,,,64,0,9,,,,,10,,,64,60
11136,note_on,,,,,64,0,6,,,,,5,,,60,92
11136,note_on,,,,,4,0,4,,,,,3,,,70,108
11136,note_on,,,,,64,0,3,,,,,2,,,48,92
11136,note_on,,,,,64,0,7,,,,,6,,,48,92
11136,note_on,,,,,0,0,9,,,,,10,,,69,60
11136,note_on,,,,,4,0,1,,,,,0,,,70,92
11328,note_off,,,,,192,0,1,,,,,0,,,70,0
11328,note_on,,,,,0,0,1,,,,,0,,,69,92
11328,note_on,,,,,0,0,2,,,,,1,,,69,92
11328,note_off,,,,,192,0,2,,,,,1,,,70,0
11328,note_off,,,,,192,0,4,,,,,3,,,70,0
11328,note_on,,,,,0,0,4,,,,,3,,,69,108
11456,note_off,,,,,320,0,6,,,,,5,,,60,0
11456,note_off,,,,,320,0,5,,,,,4,,,64,0
11456,note_off,,,,,320,0,7,,,,,6,,,48,0
11456,note_off,,,,,320,0,8,,,,,7,,,36,0
11456,note_off,,,,,320,0,3,,,,,2,,,48,0
11456,note_off,,,,,0,0,9,,,,,10,,,69,0
11456,note_off,,,,,320,0,10,,,,,11,,,48,0
11456,note_off,,,,,320,0,9,,,,,10,,,64,0
11516,note_off,,,,,188,0,1,,,,,0,,,69,0
11516,note_off,,,,,188,0,4,,,,,3,,,69,0
11516,note_off,,,,,188,0,2,,,,,1,,,69,0
11520,note_on,,,,,4,0,4,,,,,3,,,76,127
11520,note_on,,,,,4,0,1,,,,,0,,,76,127
11520,note_on,,,,,4,0,2,,,,,1,,,76,127
11708,note_off,,,,,188,0,4,,,,,3,,,76,0
11708,note_off,,,,,188,0,1,,,,,0,,,76,0
11708,note_off,,,,,188,0,2,,,,,1,,,76,0
11712,note_on,,,,,4,0,1,,,,,0,,,69,92
11712,note_on,,,,,4,0,4,,,,,3,,,69,108
11712,note_on,,,,,4,0,2,,,,,1,,,69,92
11900,note_off,,,,,188,0,4,,,,,3,,,69,0
11900,note_off,,,,,188,0,1,,,,,0,,,69,0
11900,note_off,,,,,188,0,2,,,,,1,,,69,0
11904,note_on,,,,,448,0,6,,,,,5,,,60,92
11904,note_on,,,,,448,0,7,,,,,6,,,60,92
11904,note_on,,,,,448,0,8,,,,,7,,,48,75
11904,note_on,,,,,448,0,5,,,,,4,,,64,108
11904,note_on,,,,,448,0,10,,,,,11,,,60,60
11904,note_on,,,,,0,0,9,,,,,10,,,69,60
11904,note_on,,,,,448,0,3,,,,,2,,,60,92
11904,note_on,,,,,448,0,9,,,,,10,,,64,60
12096,note_on,,,,,196,0,1,,,,,0,,,69,92
12096,note_on,,,,,196,0,2,,,,,1,,,69,92
12096,note_on,,,,,196,0,4,,,,,3,,,69,108
12224,note_off,,,,,320,0,10,,,,,11,,,60,0
12224,note_off,,,,,320,0,3,,,,,2,,,60,0
12224,note_off,,,,,320,0,8,,,,,7,,,48,0
12224,note_off,,,,,320,0,6,,,,,5,,,60,0
12224,note_off,,,,,320,0,5,,,,,4,,,64,0
12224,note_off,,,,,320,0,9,,,,,10,,,64,0
12224,note_off,,,,,320,0,7,,,,,6,,,60,0
12224,note_off,,,,,0,0,9,,,,,10,,,69,0
12284,note_off,,,,,188,0,4,,,,,3,,,69,0
12284,note_off,,,,,188,0,2,,,,,1,,,69,0
12284,note_off,,,,,188,0,1,,,,,0,,,69,0
12288,note_on,,,,,64,0,7,,,,,6,,,48,92
12288,note_on,,,,,0,0,9,,,,,10,,,69,60
12288,note_on,,,,,4,0,1,,,,,0,,,70,92
12288,note_on,,,,,64,0,8,,,,,7,,,36,75
12288,note_on,,,,,64,0,10,,,,,11,,,48,60
12288,note_on,,,,,64,0,5,,,,,4,,,64,108
12288,note_on,,,,,64,0,3,,,,,2,,,48,92
12288,note_on,,,,,64,0,9,,,,,10,,,64,60
12288,note_on,,,,,4,0,4,,,,,3,,,70,108
12288,note_on,,,,,64,0,6,,,,,5,,,60,92
12288,note_on,,,,,4,0,2,,,,,1,,,70,92
12480,note_on,,,,,0,0,2,,,,,1,,,69,92
12480,note_off,,,,,192,0,2,,,,,1,,,70,0
12480,note_on,,,,,0,0,1,,,,,0,,,69,92
12480,note_off,,,,,192,0,1,,,,,0,,,70,0
12480,note_on,,,,,0,0,4,,,,,3,,,69,108
12480,note_off,,,,,192,0,4,,,,,3,,,70,0
12608,note_off,,,,,320,0,5,,,,,4,,,64,0
12608,note_off,,,,,320,0,9,,,,,10,,,64,0
12608,note_off,,,,,320,0,10,,,,,11,,,48,0
12608,note_off,,,,,0,0,9,,,,,10,,,69,0
12608,note_off,,,,,320,0,6,,,,,5,,,60,0
12608,note_off,,,,,320,0,3,,,,,2,,,48,0
12608,note_off,,,,,320,0,7,,,,,6,,,48,0
12608,note_off,,,,,320,0,8,,,,,7,,,36,0
12668,note_off,,,,,188,0,4,,,,,3,,,69,0
12668,note_off,,,,,188,0,1,,,,,0,,,69,0
12668,note_off,,,,,188,0,2,,,,,1,,,69,0
12672,note_on,,,,,4,0,1,,,,,0,,,77,127
12672,note_on,,,,,4,0,2,,,,,1,,,77,127
12672,note_on,,,,,4,0,4,,,,,3,,,77,127
12860,note_off,,,,,188,0,4,,,,,3,,,77,0
12860,note_off,,,,,188,0,1,,,,,0,,,77,0
12860,note_off,,,,,188,0,2,,,,,1,,,77,0
12864,note_on,,,,,4,0,4,,,,,3,,,76,108
12864,note_on,,,,,4,0,2,,,,,1,,,76,92
12864,note_on,,,,,4,0,1,,,,,0,,,76,92
13052,note_off,,,,,188,0,4,,,,,3,,,76,0
13052,note_off,,,,,188,0,1,,,,,0,,,76,0
13052,note_off,,,,,188,0,2,,,,,1,,,76,0
13056,note_on,,,,,448,0,3,,,,,2,,,57,92
13056,note_on,,,,,448,0,10,,,,,11,,,57,60
13056,note_on,,,,,0,0,9,,,,,10,,,69,60
13056,note_on,,,,,448,0,9,,,,,10,,,60,60
13056,note_on,,,,,0,0,9,,,,,10,,,64,60
13056,note_on,,,,,448,0,7,,,,,6,,,57,92
13056,note_on,,,,,448,0,8,,,,,7,,,45,75
13056,note_on,,,,,448,0,5,,,,,4,,,64,108
13056,note_on,,,,,448,0,6,,,,,5,,,60,92
13248,note_on,,,,,196,0,2,,,,,1,,,84,92
13248,note_on,,,,,196,0,4,,,,,3,,,84,108
13248,note_on,,,,,196,0,1,,,,,0,,,84,92
13376,note_off,,,,,320,0,5,,,,,4,,,64,0
13376,note_off,,,,,320,0,7,,,,,6,,,57,0
13376,note_off,,,,,0,0,9,,,,,10,,,64,0
13376,note_off,,,,,320,0,9,,,,,10,,,60,0
13376,note_off,,,,,320,0,8,,,,,7,,,45,0
13376,note_off,,,,,0,0,9,,,,,10,,,69,0
13376,note_off,,,,,320,0,6,,,,,5,,,60,0
13376,note_off,,,,,320,0,3,,,,,2,,,57,0
13376,note_off,,,,,320,0,10,,,,,11,,,57,0
13436,note_off,,,,,188,0,1,,,,,0,,,84,0
13436,note_off,,,,,188,0,4,,,,,3,,,84,0
13436,note_off,,,,,188,0,2,,,,,1,,,84,0
13440,note_on,,,,,64,0,8,,,,,7,,,33,75
13440,note_on,,,,,64,0,7,,,,,6,,,45,92
13440,note_on,,,,,64,0,9,,,,,10,,,60,60
13440,note_on,,,,,0,0,9,,,,,10,,,66,60
13440,note_on,,,,,0,0,9,,,,,10,,,69,60
13440,note_on,,,,,64,0,10,,,,,11,,,45,60
13440,note_on,,,,,4,0,1,,,,,0,,,76,92
13440,note_on,,,,,64,0,3,,,,,2,,,45,92
13440,note_on,,,,,4,0,2,,,,,1,,,76,92
13440,note_on,,,,,4,0,4,,,,,3,,,76,108
13440,note_on,,,,,64,0,5,,,,,4,,,66,108
13440,note_on,,,,,64,0,6,,,,,5,,,60,92
13628,note_off,,,,,188,0,4,,,,,3,,,76,0
13628,note_off,,,,,188,0,1,,,,,0,,,76,0
13628,note_off,,,,,188,0,2,,,,,1,,,76,0
13632,note_on,,,,,4,0,4,,,,,3,,,75,108
13632,note_on,,,,,4,0,2,,,,,1,,,75,92
13632,note_on,,,,,4,0,1,,,,,0,,,75,92
13760,note_off,,,,,0,0,9,,,,,10,,,69,0
13760,note_off,,,,,320,0,9,,,,,10,,,60,0
13760,note_off,,,,,320,0,3,,,,,2,,,45,0
13760,note_off,,,,,320,0,10,,,,,11,,,45,0
13760,note_off,,,,,320,0,8,,,,,7,,,33,0
13760,note_off,,,,,320,0,6,,,,,5,,,60,0
13760,note_off,,,,,320,0,5,,,,,4,,,66,0
13760,note_off,,,,,0,0,9,,,,,10,,,66,0
13760,note_off,,,,,320,0,7,,,,,6,,,45,0
13820,note_off,,,,,188,0,1,,,,,0,,,75,0
13820,note_off,,,,,188,0,4,,,,,3,,,75,0
13820,note_off,,,,,188,0,2,,,,,1,,,75,0
13824,note_on,,,,,64,0,10,,,,,11,,,44,60
13824,note_on,,,,,64,0,5,,,,,4,,,59,108
13824,note_on,,,,,64,0,3,,,,,2,,,44,92
13824,note_on,,,,,4,0,4,,,,,3,,,76,108
13824,note_on,,,,,64,0,6,,,,,5,,,59,92
13824,note_on,,,,,4,0,2,,,,,1,,,76,92
13824,note_on,,,,,64,0,9,,,,,10,,,59,60
13824,note_on,,,,,0,0,9,,,,,10,,,64,60
13824,note_on,,,,,64,0,7,,,,,6,,,44,92
13824,note_on,,,,,0,0,9,,,,,10,,,71,60
13824,note_on,,,,,4,0,1,,,,,0,,,76,92
13824,note_on,,,,,64,0,8,,,,,7,,,32,75
13916,note_off,,,,,92,0,2,,,,,1,,,76,0
13916,note_off,,,,,92,0,4,,,,,3,,,76,0
13916,note_off,,,,,92,0,1,,,,,0,,,76,0
13920,note_on,,,,,4,0,4,,,,,3,,,78,108
13920,note_on,,,,,4,0,1,,,,,0,,,78,92
13920,note_on,,,,,4,0,2,,,,,1,,,78,92
14012,note_off,,,,,92,0,2,,,,,1,,,78,0
14012,note_off,,,,,92,0,4,,,,,3,,,78,0
14012,note_off,,,,,92,0,1,,,,,0,,,78,0
14016,note_on,,,,,4,0,2,,,,,1,,,80,92
14016,note_on,,,,,4,0,4,,,,,3,,,80,108
14016,note_on,,,,,4,0,1,,,,,0,,,80,92
14108,note_off,,,,,92,0,1,,,,,0,,,80,0
14108,note_off,,,,,92,0,2,,,,,1,,,80,0
14108,note_off,,,,,92,0,4,,,,,3,,,80,0
14112,note_on,,,,,4,0,1,,,,,0,,,81,92
14112,note_on,,,,,4,0,2,,,,,1,,,81,92
14112,note_on,,,,,4,0,4,,,,,3,,,81,108
14144,note_off,,,,,320,0,6,,,,,5,,,59,0
14144,note_off,,,,,320,0,9,,,,,10,,,59,0
14144,note_off,,,,,320,0,8,,,,,7,,,32,0
14144,note_off,,,,,0,0,9,,,,,10,,,64,0
14144,note_off,,,,,0,0,9,,,,,10,,,71,0
14144,note_off,,,,,320,0,7,,,,,6,,,44,0
14144,note_off,,,,,320,0,3,,,,,2,,,44,0
14144,note_off,,,,,320,0,5,,,,,4,,,59,0
14144,note_off,,,,,320,0,10,,,,,11,,,44,0
14204,note_off,,,,,92,0,1,,,,,0,,,81,0
14204,note_off,,,,,92,0,4,,,,,3,,,81,0
14204,note_off,,,,,92,0,2,,,,,1,,,81,0
14208,note_on,,,,,64,0,10,,,,,11,,,52,60
14208,note_on,,,,,4,0,1,,,,,0,,,83,92
14208,note_on,,,,,64,0,3,,,,,2,,,52,92
14208,note_on,,,,,4,0,4,,,,,3,,,83,108
14208,note_on,,,,,4,0,2,,,,,1,,,83,92
14208,note_on,,,,,64,0,9,,,,,10,,,59,60
14208,note_on,,,,,0,0,9,,,,,10,,,64,60
14208,note_on,,,,,0,0,9,,,,,10,,,68,60
14208,note_on,,,,,64,0,7,,,,,6,,,52,92
14208,note_on,,,,,64,0,6,,,,,5,,,64,92
14208,note_on,,,,,64,0,8,,,,,7,,,40,75
14208,note_on,,,,,64,0,5,,,,,4,,,68,108
14396,note_off,,,,,188,0,1,,,,,0,,,83,0
14396,note_off,,,,,188,0,4,,,,,3,,,83,0
14396,note_off,,,,,188,0,2,,,,,1,,,83,0
14400,note_on,,,,,4,0,4,,,,,3,,,74,108
14400,note_on,,,,,4,0,1,,,,,0,,,74,92
14400,note_on,,,,,4,0,2,,,,,1,,,74,92
14528,note_off,,,,,320,0,5,,,,,4,,,68,0
14528,note_off,,,,,320,0,8,,,,,7,,,40,0
14528,note_off,,,,,320,0,6,,,,,5,,,64,0
14528,note_off,,,,,320,0,3,,,,,2,,,52,0
14528,note_off,,,,,320,0,10,,,,,11,,,52,0
14528,note_off,,,,,0,0,9,,,,,10,,,68,0
14528,note_off,,,,,0,0,9,,,,,10,,,64,0
14528,note_off,,,,,320,0,9,,,,,10,,,59,0
14528,note_off,,,,,320,0,7,,,,,6,,,52,0
14588,note_off,,,,,188,0,4,,,,,3,,,74,0
14588,note_off,,,,,188,0,2,,,,,1,,,74,0
14588,note_off,,,,,188,0,1,,,,,0,,,74,0
14592,note_on,,,,,64,0,7,,,,,6,,,56,92
14592,note_on,,,,,64,0,3,,,,,2,,,56,92
14592,note_on,,,,,64,0,10,,,,,11,,,56,60
14592,note_on,,,,,4,0,2,,,,,1,,,72,92
14592,note_on,,,,,64,0,6,,,,,5,,,64,92
14592,note_on,,,,,64,0,9,,,,,10,,,59,60
14592,note_on,,,,,64,0,5,,,,,4,,,64,108
14592,note_on,,,,,0,0,9,,,,,10,,,64,60
14592,note_on,,,,,4,0,1,,,,,0,,,72,92
14592,note_on,,,,,4,0,4,,,,,3,,,72,108
14592,note_on,,,,,64,0,8,,,,,7,,,44,75
14780,note_off,,,,,188,0,4,,,,,3,,,72,0
14780,note_off,,,,,188,0,1,,,,,0,,,72,0
14780,note_off,,,,,188,0,2,,,,,1,,,72,0
14784,note_on,,,,,4,0,1,,,,,0,,,71,92
14784,note_on,,,,,4,0,4,,,,,3,,,71,108
14784,note_on,,,,,4,0,2,,,,,1,,,71,92
14912,note_off,,,,,320,0,7,,,,,6,,,56,0
14912,note_off,,,,,320,0,9,,,,,10,,,59,0
14912,note_off,,,,,320,0,10,,,,,11,,,56,0
14912,note_off,,,,,320,0,5,,,,,4,,,64,0
14912,note_off,,,,,320,0,3,,,,,2,,,56,0
14912,note_off,,,,,0,0,9,,,,,10,,,64,0
14912,note_off,,,,,320,0,8,,,,,7,,,44,0
14912,note_off,,,,,320,0,6,,,,,5,,,64,0
14972,note_off,,,,,188,0,2,,,,,1,,,71,0
14972,note_off,,,,,188,0,1,,,,,0,,,71,0
14972,note_off,,,,,188,0,4,,,,,3,,,71,0
14976,note_on,,,,,4,0,2,,,,,1,,,69,92
14976,note_on,,,,,64,0,9,,,,,10,,,60,60
14976,note_on,,,,,0,0,9,,,,,10,,,64,60
14976,note_on,,,,,4,0,1,,,,,0,,,69,92
14976,note_on,,,,,64,0,8,,,,,7,,,45,75
14976,note_on,,,,,64,0,7,,,,,6,,,57,92
14976,note_on,,,,,64,0,6,,,,,5,,,64,92
14976,note_on,,,,,4,0,4,,,,,3,,,69,108
14976,note_on,,,,,64,0,3,,,,,2,,,57,92
14976,note_on,,,,,64,0,5,,,,,4,,,64,108
14976,note_on,,,,,64,0,10,,,,,11,,,57,60
15068,note_off,,,,,92,0,4,,,,,3,,,69,0
15068,note_off,,,,,92,0,1,,,,,0,,,69,0
15068,note_off,,,,,92,0,2,,,,,1,,,69,0
15072,note_on,,,,,4,0,4,,,,,3,,,71,108
15072,note_on,,,,,4,0,1,,,,,0,,,71,92
15072,note_on,,,,,4,0,2,,,,,1,,,71,92
15164,note_off,,,,,92,0,1,,,,,0,,,71,0
15164,note_off,,,,,92,0,4,,,,,3,,,71,0
15164,note_off,,,,,92,0,2,,,,,1,,,71,0
15168,note_on,,,,,4,0,2,,,,,1,,,72,92
15168,note_on,,,,,4,0,1,,,,,0,,,72,92
15168,note_on,,,,,4,0,4,,,,,3,,,72,108
15260,note_off,,,,,92,0,2,,,,,1,,,72,0
15260,note_off,,,,,92,0,4,,,,,3,,,72,0
15260,note_off,,,,,92,0,1,,,,,0,,,72,0
15264,note_on,,,,,4,0,4,,,,,3,,,74,108
15264,note_on,,,,,4,0,2,,,,,1,,,74,92
15264,note_on,,,,,4,0,1,,,,,0,,,74,92
15296,note_off,,,,,320,0,3,,,,,2,,,57,0
15296,note_off,,,,,320,0,8,,,,,7,,,45,0
15296,note_off,,,,,320,0,7,,,,,6,,,57,0
15296,note_off,,,,,320,0,6,,,,,5,,,64,0
15296,note_off,,,,,320,0,5,,,,,4,,,64,0
15296,note_off,,,,,320,0,10,,,,,11,,,57,0
15296,note_off,,,,,320,0,9,,,,,10,,,60,0
15296,note_off,,,,,0,0,9,,,,,10,,,64,0
15356,note_off,,,,,92,0,1,,,,,0,,,74,0
15356,note_off,,,,,92,0,4,,,,,3,,,74,0
15356,note_off,,,,,92,0,2,,,,,1,,,74,0
15360,note_on,,,,,64,0,10,,,,,11,,,48,60
15360,note_on,,,,,64,0,6,,,,,5,,,60,92
15360,note_on,,,,,64,0,8,,,,,7,,,36,75
15360,note_on,,,,,4,0,2,,,,,1,,,76,92
15360,note_on,,,,,64,0,7,,,,,6,,,48,92
15360,note_on,,,,,4,0,1,,,,,0,,,76,92
15360,note_on,,,,,4,0,4,,,,,3,,,76,108
15360,note_on,,,,,0,0,9,,,,,10,,,69,60
15360,note_on,,,,,64,0,5,,,,,4,,,69,108
15360,note_on,,,,,64,0,9,,,,,10,,,60,60
15360,note_on,,,,,0,0,9,,,,,10,,,64,60
15360,note_on,,,,,64,0,3,,,,,2,,,48,92
15548,note_off,,,,,188,0,3,,,,,2,,,48,0
15548,note_off,,,,,188,0,4,,,,,3,,,76,0
15548,note_off,,,,,188,0,2,,,,,1,,,76,0
15548,note_off,,,,,188,0,10,,,,,11,,,48,0
15548,note_off,,,,,188,0,8,,,,,7,,,36,0
15548,note_off,,,,,188,0,6,,,,,5,,,60,0
15548,note_off,,,,,188,0,7,,,,,6,,,48,0
15548,note_off,,,,,188,0,1,,,,,0,,,76,0
15548,note_off,,,,,188,0,5,,,,,4,,,69,0
15552,note_on,,,,,4,0,4,,,,,3,,,62,108
15552,note_on,,,,,4,0,7,,,,,6,,,50,92
15552,note_on,,,,,4,0,3,,,,,2,,,50,92
15552,note_on,,,,,4,0,8,,,,,7,,,38,75
15552,note_on,,,,,4,0,6,,,,,5,,,59,92
15552,note_on,,,,,4,0,1,,,,,0,,,62,92
15552,note_on,,,,,4,0,5,,,,,4,,,59,108
15552,note_on,,,,,4,0,10,,,,,11,,,50,60
15552,note_on,,,,,4,0,2,,,,,1,,,62,92
15740,note_off,,,,,188,0,6,,,,,5,,,59,0
15740,note_off,,,,,188,0,5,,,,,4,,,59,0
15740,note_off,,,,,188,0,7,,,,,6,,,50,0
15740,note_off,,,,,188,0,1,,,,,0,,,62,0
15740,note_off,,,,,188,0,4,,,,,3,,,62,0
15740,note_off,,,,,188,0,8,,,,,7,,,38,0
15740,note_off,,,,,188,0,3,,,,,2,,,50,0
15740,note_off,,,,,188,0,2,,,,,1,,,62,0
15740,note_off,,,,,188,0,10,,,,,11,,,50,0
15744,note_on,,,,,4,0,6,,,,,5,,,57,92
15744,note_on,,,,,4,0,3,,,,,2,,,52,92
15744,note_on,,,,,4,0,5,,,,,4,,,57,108
15744,note_on,,,,,4,0,7,,,,,6,,,52,92
15744,note_on,,,,,4,0,4,,,,,3,,,60,108
15744,note_on,,,,,4,0,1,,,,,0,,,60,92
15744,note_on,,,,,4,0,10,,,,,11,,,52,60
15744,note_on,,,,,4,0,8,,,,,7,,,40,75
15744,note_on,,,,,4,0,2,,,,,1,,,60,92
15932,note_off,,,,,188,0,5,,,,,4,,,57,0
15932,note_off,,,,,188,0,1,,,,,0,,,60,0
15932,note_off,,,,,188,0,2,,,,,1,,,60,0
15932,note_off,,,,,188,0,4,,,,,3,,,60,0
15932,note_off,,,,,0,0,9,,,,,10,,,69,0
15932,note_off,,,,,188,0,6,,,,,5,,,57,0
15932,note_off,,,,,572,0,9,,,,,10,,,60,0
15936,note_on,,,,,4,0,6,,,,,5,,,56,92
15936,note_on,,,,,4,0,2,,,,,1,,,59,92
15936,note_on,,,,,4,0,5,,,,,4,,,56,108
15936,note_on,,,,,4,0,1,,,,,0,,,59,92
15936,note_on,,,,,0,0,9,,,,,10,,,68,60
15936,note_on,,,,,4,0,9,,,,,10,,,59,60
15936,note_on,,,,,4,0,4,,,,,3,,,59,108
16064,note_off,,,,,320,0,10,,,,,11,,,52,0
16064,note_off,,,,,320,0,3,,,,,2,,,52,0
16064,note_off,,,,,320,0,7,,,,,6,,,52,0
16064,note_off,,,,,320,0,8,,,,,7,,,40,0
16124,note_off,,,,,188,0,6,,,,,5,,,56,0
16124,note_off,,,,,188,0,2,,,,,1,,,59,0
16124,note_off,,,,,0,0,9,,,,,10,,,68,0
16124,note_off,,,,,188,0,1,,,,,0,,,59,0
16124,note_off,,,,,188,0,5,,,,,4,,,56,0
16124,note_off,,,,,188,0,4,,,,,3,,,59,0
16124,note_off,,,,,188,0,9,,,,,10,,,59,0
16128,note_on,,,,,4,0,9,,,,,10,,,57,60
16128,note_on,,,,,64,0,3,,,,,2,,,45,92
16128,note_on,,,,,64,0,7,,,,,6,,,45,92
16128,note_on,,,,,4,0,6,,,,,5,,,57,92
16128,note_on,,,,,4,0,1,,,,,0,,,57,92
16128,note_on,,,,,4,0,5,,,,,4,,,57,108
16128,note_on,,,,,64,0,8,,,,,7,,,33,75
16128,note_on,,,,,0,0,9,,,,,10,,,69,60
16128,note_on,,,,,4,0,4,,,,,3,,,57,108
16128,note_on,,,,,4,0,2,,,,,1,,,57,92
16448,note_off,,,,,320,0,8,,,,,7,,,33,0
16448,note_off,,,,,320,0,4,,,,,3,,,57,0
16448,note_off,,,,,320,0,5,,,,,4,,,57,0
16448,note_off,,,,,0,0,9,,,,,10,,,69,0
16448,note_off,,,,,320,0,9,,,,,10,,,64,0
16448,note_off,,,,,320,0,1,,,,,0,,,57,0
16448,note_off,,,,,320,0,3,,,,,2,,,45,0
16448,note_off,,,,,320,0,2,,,,,1,,,57,0
16448,note_off,,,,,0,0,9,,,,,10,,,57,0
16448,note_off,,,,,320,0,7,,,,,6,,,45,0
16448,note_off,,,,,320,0,6,,,,,5,,,57,0
16512,note_on,,,,,64,0,3,,,,,2,,,57,92
16512,note_on,,,,,64,0,9,,,,,10,,,60,60
16512,note_on,,,,,0,0,9,,,,,10,,,69,60
16512,note_on,,,,,0,0,9,,,,,10,,,64,60
16512,note_on,,,,,448,0,10,,,,,11,,,52,60
16704,note_on,,,,,256,0,1,,,,,0,,,72,92
16832,note_off,,,,,320,0,3,,,,,2,,,57,0
16832,note_off,,,,,0,0,9,,,,,10,,,69,0
16832,note_off,,,,,0,0,9,,,,,10,,,64,0
16832,note_off,,,,,320,0,9,,,,,10,,,60,0
16832,note_off,,,,,320,0,10,,,,,11,,,52,0
16892,note_off,,,,,188,0,1,,,,,0,,,72,0
16896,note_on,,,,,64,0,10,,,,,11,,,56,60
16896,note_on,,,,,0,0,9,,,,,10,,,69,60
16896,note_on,,,,,64,0,9,,,,,10,,,62,60
16896,note_on,,,,,0,0,9,,,,,10,,,65,60
16896,note_on,,,,,64,0,3,,,,,2,,,50,92
16896,note_on,,,,,4,0,1,,,,,0,,,71,92
17084,note_off,,,,,188,0,1,,,,,0,,,71,0
17088,note_on,,,,,4,0,1,,,,,0,,,69,92
17216,note_off,,,,,320,0,9,,,,,10,,,62,0
17216,note_off,,,,,320,0,3,,,,,2,,,50,0
17216,note_off,,,,,320,0,10,,,,,11,,,56,0
17216,note_off,,,,,0,0,9,,,,,10,,,65,0
17216,note_off,,,,,0,0,9,,,,,10,,,69,0
17276,note_off,,,,,188,0,1,,,,,0,,,69,0
17280,note_on,,,,,4,0,1,,,,,0,,,68,92
17372,note_off,,,,,92,0,1,,,,,0,,,68,0
17376,note_on,,,,,4,0,1,,,,,0,,,69,92
17468,note_off,,,,,92,0,1,,,,,0,,,69,0
17472,note_on,,,,,4,0,1,,,,,0,,,71,92
17472,note_on,,,,,1024,0,2,,,,,1,,,71,92
17660,note_off,,,,,188,0,1,,,,,0,,,71,0
17660,note_off,,,,,188,0,2,,,,,1,,,71,0
17664,note_on,,,,,0,0,9,,,,,10,,,64,60
17664,note_on,,,,,448,0,9,,,,,10,,,59,60
17664,note_on,,,,,4,0,2,,,,,1,,,68,92
17664,note_on,,,,,448,0,10,,,,,11,,,57,60
17664,note_on,,,,,448,0,3,,,,,2,,,52,92
17664,note_on,,,,,0,0,9,,,,,10,,,68,60
17852,note_off,,,,,188,0,2,,,,,1,,,68,0
17856,note_on,,,,,4,0,2,,,,,1,,,71,92
17856,note_on,,,,,196,0,1,,,,,0,,,74,92
17984,note_off,,,,,0,0,9,,,,,10,,,64,0
17984,note_off,,,,,320,0,9,,,,,10,,,59,0
17984,note_off,,,,,320,0,3,,,,,2,,,52,0
17984,note_off,,,,,320,0,10,,,,,11,,,57,0
17984,note_off,,,,,0,0,9,,,,,10,,,68,0
18044,note_off,,,,,188,0,1,,,,,0,,,74,0
18044,note_off,,,,,188,0,2,,,,,1,,,71,0
18048,note_on,,,,,4,0,1,,,,,0,,,72,92
18048,note_on,,,,,64,0,9,,,,,10,,,59,60
18048,note_on,,,,,0,0,9,,,,,10,,,64,60
18048,note_on,,,,,0,0,9,,,,,10,,,71,60
18048,note_on,,,,,64,0,10,,,,,11,,,60,60
18048,note_on,,,,,4,0,2,,,,,1,,,64,92
18048,note_on,,,,,64,0,3,,,,,2,,,56,92
18236,note_off,,,,,188,0,1,,,,,0,,,72,0
18240,note_on,,,,,4,0,1,,,,,0,,,71,92
18368,note_off,,,,,320,0,3,,,,,2,,,56,0
18368,note_off,,,,,0,0,9,,,,,10,,,71,0
18368,note_off,,,,,320,0,2,,,,,1,,,64,0
18368,note_off,,,,,320,0,10,,,,,11,,,60,0
18368,note_off,,,,,320,0,9,,,,,10,,,59,0
18368,note_off,,,,,0,0,9,,,,,10,,,64,0
18428,note_off,,,,,188,0,1,,,,,0,,,71,0
18432,note_on,,,,,4,0,1,,,,,0,,,69,92
18524,note_off,,,,,92,0,1,,,,,0,,,69,0
18528,note_on,,,,,4,0,1,,,,,0,,,71,92
18620,note_off,,,,,92,0,1,,,,,0,,,71,0
18624,note_on,,,,,4,0,1,,,,,0,,,72,92
18624,note_on,,,,,256,0,2,,,,,1,,,76,92
18812,note_off,,,,,188,0,2,,,,,1,,,76,0
18812,note_off,,,,,188,0,1,,,,,0,,,72,0
18816,note_on,,,,,448,0,3,,,,,2,,,57,92
18816,note_on,,,,,4,0,2,,,,,1,,,72,92
18816,note_on,,,,,0,0,9,,,,,10,,,72,60
18816,note_on,,,,,0,0,9,,,,,10,,,69,60
18816,note_on,,,,,448,0,9,,,,,10,,,64,60
18816,note_on,,,,,448,0,10,,,,,11,,,50,60
19004,note_off,,,,,188,0,2,,,,,1,,,72,0
19008,note_on,,,,,4,0,2,,,,,1,,,76,92
19008,note_on,,,,,196,0,1,,,,,0,,,76,92
19136,note_off,,,,,320,0,10,,,,,11,,,50,0
19136,note_off,,,,,0,0,9,,,,,10,,,72,0
19136,note_off,,,,,0,0,9,,,,,10,,,69,0
19136,note_off,,,,,320,0,9,,,,,10,,,64,0
19136,note_off,,,,,320,0,3,,,,,2,,,57,0
19196,note_off,,,,,188,0,1,,,,,0,,,76,0
19196,note_off,,,,,188,0,2,,,,,1,,,76,0
19200,note_on,,,,,64,0,10,,,,,11,,,53,60
19200,note_on,,,,,64,0,3,,,,,2,,,60,92
19200,note_on,,,,,64,0,9,,,,,10,,,64,60
19200,note_on,,,,,4,0,1,,,,,0,,,74,92
19200,note_on,,,,,4,0,2,,,,,1,,,69,92
19200,note_on,,,,,0,0,9,,,,,10,,,69,60
19388,note_off,,,,,188,0,1,,,,,0,,,74,0
19392,note_on,,,,,4,0,1,,,,,0,,,72,92
19520,note_off,,,,,320,0,9,,,,,10,,,64,0
19520,note_off,,,,,320,0,2,,,,,1,,,69,0
19520,note_off,,,,,320,0,3,,,,,2,,,60,0
19520,note_off,,,,,320,0,10,,,,,11,,,53,0
19520,note_off,,,,,0,0,9,,,,,10,,,69,0
19580,note_off,,,,,188,0,1,,,,,0,,,72,0
19584,note_on,,,,,4,0,1,,,,,0,,,71,92
19584,note_on,,,,,64,0,10,,,,,11,,,52,60
19676,note_off,,,,,92,0,1,,,,,0,,,71,0
19680,note_on,,,,,4,0,1,,,,,0,,,72,92
19772,note_off,,,,,92,0,1,,,,,0,,,72,0
19776,note_on,,,,,4,0,1,,,,,0,,,74,92
19776,note_on,,,,,256,0,2,,,,,1,,,77,92
19868,note_off,,,,,92,0,1,,,,,0,,,74,0
19872,note_on,,,,,4,0,1,,,,,0,,,76,92
19904,note_off,,,,,320,0,10,,,,,11,,,52,0
19964,note_off,,,,,188,0,2,,,,,1,,,77,0
19964,note_off,,,,,92,0,1,,,,,0,,,76,0
19968,note_on,,,,,4,0,1,,,,,0,,,77,92
19968,note_on,,,,,0,0,9,,,,,10,,,69,60
19968,note_on,,,,,0,0,9,,,,,10,,,65,60
19968,note_on,,,,,448,0,9,,,,,10,,,62,60
19968,note_on,,,,,448,0,3,,,,,2,,,50,92
19968,note_on,,,,,4,0,2,,,,,1,,,74,92
19968,note_on,,,,,64,0,10,,,,,11,,,52,60
20156,note_off,,,,,188,0,1,,,,,0,,,77,0
20156,note_off,,,,,188,0,2,,,,,1,,,74,0
20160,note_on,,,,,4,0,1,,,,,0,,,72,92
20160,note_on,,,,,4,0,2,,,,,1,,,77,92
20288,note_off,,,,,0,0,9,,,,,10,,,65,0
20288,note_off,,,,,320,0,3,,,,,2,,,50,0
20288,note_off,,,,,320,0,10,,,,,11,,,52,0
20288,note_off,,,,,320,0,9,,,,,10,,,62,0
20288,note_off,,,,,0,0,9,,,,,10,,,69,0
20348,note_off,,,,,188,0,1,,,,,0,,,72,0
20348,note_off,,,,,188,0,2,,,,,1,,,77,0
20352,note_on,,,,,64,0,10,,,,,11,,,57,60
20352,note_on,,,,,64,0,3,,,,,2,,,53,92
20352,note_on,,,,,4,0,2,,,,,1,,,62,92
20352,note_on,,,,,4,0,1,,,,,0,,,71,92
20352,note_on,,,,,64,0,9,,,,,10,,,57,60
20352,note_on,,,,,0,0,9,,,,,10,,,62,60
20352,note_on,,,,,0,0,9,,,,,10,,,69,60
20540,note_off,,,,,188,0,1,,,,,0,,,71,0
20544,note_on,,,,,4,0,1,,,,,0,,,69,92
20672,note_off,,,,,320,0,3,,,,,2,,,53,0
20672,note_off,,,,,320,0,10,,,,,11,,,57,0
20672,note_off,,,,,320,0,2,,,,,1,,,62,0
20672,note_off,,,,,0,0,9,,,,,10,,,69,0
20672,note_off,,,,,320,0,9,,,,,10,,,57,0
20672,note_off,,,,,0,0,9,,,,,10,,,62,0
20732,note_off,,,,,188,0,1,,,,,0,,,69,0
20736,note_on,,,,,4,0,1,,,,,0,,,68,92
20736,note_on,,,,,64,0,3,,,,,2,,,52,92
20736,note_on,,,,,0,0,9,,,,,10,,,68,60
20736,note_on,,,,,64,0,9,,,,,10,,,59,60
20736,note_on,,,,,0,0,9,,,,,10,,,64,60
20928,note_on,,,,,256,0,2,,,,,1,,,71,92
21056,note_off,,,,,0,0,9,,,,,10,,,68,0
21056,note_off,,,,,320,0,3,,,,,2,,,52,0
21056,note_off,,,,,320,0,1,,,,,0,,,68,0
21056,note_off,,,,,320,0,9,,,,,10,,,59,0
21056,note_off,,,,,0,0,9,,,,,10,,,64,0
21116,note_off,,,,,188,0,2,,,,,1,,,71,0
21120,note_on,,,,,4672,0,7,,,,,6,,,52,92
21120,note_on,,,,,4,0,2,,,,,1,,,64,92
21120,note_on,,,,,4672,0,5,,,,,4,,,68,108
21120,note_on,,,,,0,0,9,,,,,10,,,64,60
21120,note_on,,,,,0,0,9,,,,,10,,,68,60
21120,note_on,,,,,448,0,10,,,,,11,,,52,60
21120,note_on,,,,,64,0,9,,,,,10,,,59,60
21120,note_on,,,,,64,0,3,,,,,2,,,52,92
21120,note_on,,,,,4672,0,6,,,,,5,,,64,92
21120,note_on,,,,,4672,0,8,,,,,7,,,40,75
21312,note_on,,,,,256,0,1,,,,,0,,,72,92
21312,note_on,,,,,4864,0,4,,,,,3,,,72,108
21440,note_off,,,,,320,0,2,,,,,1,,,64,0
21440,note_off,,,,,0,0,9,,,,,10,,,68,0
21440,note_off,,,,,320,0,3,,,,,2,,,52,0
21440,note_off,,,,,320,0,5,,,,,4,,,68,0
21440,note_off,,,,,320,0,10,,,,,11,,,52,0
21440,note_off,,,,,320,0,8,,,,,7,,,40,0
21440,note_off,,,,,0,0,9,,,,,10,,,64,0
21440,note_off,,,,,320,0,9,,,,,10,,,59,0
21440,note_off,,,,,320,0,7,,,,,6,,,52,0
21440,note_off,,,,,320,0,6,,,,,5,,,64,0
21500,note_off,,,,,188,0,1,,,,,0,,,72,0
21500,note_off,,,,,188,0,4,,,,,3,,,72,0
21504,note_on,,,,,64,0,10,,,,,11,,,57,60
21504,note_on,,,,,4,0,4,,,,,3,,,71,108
21504,note_on,,,,,64,0,6,,,,,5,,,60,92
21504,note_on,,,,,64,0,5,,,,,4,,,64,108
21504,note_on,,,,,64,0,8,,,,,7,,,45,75
21504,note_on,,,,,0,0,9,,,,,10,,,69,60
21504,note_on,,,,,0,0,9,,,,,10,,,64,60
21504,note_on,,,,,64,0,7,,,,,6,,,57,92
21504,note_on,,,,,64,0,9,,,,,10,,,60,60
21504,note_on,,,,,64,0,3,,,,,2,,,57,92
21504,note_on,,,,,4,0,1,,,,,0,,,71,92
21692,note_off,,,,,188,0,1,,,,,0,,,71,0
21692,note_off,,,,,188,0,4,,,,,3,,,71,0
21696,note_on,,,,,4,0,1,,,,,0,,,69,92
21696,note_on,,,,,4,0,4,,,,,3,,,69,108
21824,note_off,,,,,0,0,9,,,,,10,,,64,0
21824,note_off,,,,,320,0,6,,,,,5,,,60,0
21824,note_off,,,,,320,0,10,,,,,11,,,57,0
21824,note_off,,,,,320,0,3,,,,,2,,,57,0
21824,note_off,,,,,320,0,9,,,,,10,,,60,0
21824,note_off,,,,,320,0,7,,,,,6,,,57,0
21824,note_off,,,,,0,0,9,,,,,10,,,69,0
21824,note_off,,,,,320,0,8,,,,,7,,,45,0
21824,note_off,,,,,320,0,5,,,,,4,,,64,0
21884,note_off,,,,,188,0,1,,,,,0,,,69,0
21884,note_off,,,,,188,0,4,,,,,3,,,69,0
21888,note_on,,,,,64,0,6,,,,,5,,,59,92
21888,note_on,,,,,4,0,1,,,,,0,,,68,92
21888,note_on,,,,,4,0,4,,,,,3,,,68,108
21984,note_off,,,,,96,0,4,,,,,3,,,68,0
21984,note_on,,,,,0,0,4,,,,,3,,,69,108
21984,note_on,,,,,0,0,1,,,,,0,,,69,92
21984,note_off,,,,,96,0,1,,,,,0,,,68,0
22080,note_off,,,,,96,0,1,,,,,0,,,69,0
22080,note_on,,,,,0,0,1,,,,,0,,,71,92
22080,note_on,,,,,640,0,2,,,,,1,,,71,92
22080,note_on,,,,,0,0,4,,,,,3,,,71,108
22080,note_off,,,,,96,0,4,,,,,3,,,69,0
22080,note_on,,,,,256,0,5,,,,,4,,,71,108
22208,note_off,,,,,320,0,6,,,,,5,,,59,0
22268,note_off,,,,,188,0,5,,,,,4,,,71,0
22268,note_off,,,,,188,0,2,,,,,1,,,71,0
22268,note_off,,,,,188,0,1,,,,,0,,,71,0
22268,note_off,,,,,188,0,4,,,,,3,,,71,0
22272,note_on,,,,,4,0,2,,,,,1,,,68,92
22272,note_on,,,,,448,0,7,,,,,6,,,52,92
22272,note_on,,,,,448,0,9,,,,,10,,,59,60
22272,note_on,,,,,0,0,9,,,,,10,,,64,60
22272,note_on,,,,,448,0,3,,,,,2,,,52,92
22272,note_on,,,,,0,0,9,,,,,10,,,68,60
22272,note_on,,,,,448,0,8,,,,,7,,,40,75
22272,note_on,,,,,4,0,5,,,,,4,,,68,108
22272,note_on,,,,,448,0,10,,,,,11,,,52,60
22460,note_off,,,,,188,0,2,,,,,1,,,68,0
22460,note_off,,,,,188,0,5,,,,,4,,,68,0
22464,note_on,,,,,196,0,4,,,,,3,,,74,108
22464,note_on,,,,,196,0,1,,,,,0,,,74,92
22464,note_on,,,,,4,0,2,,,,,1,,,71,92
22464,note_on,,,,,4,0,5,,,,,4,,,71,108
22592,note_off,,,,,0,0,9,,,,,10,,,68,0
22592,note_off,,,,,320,0,7,,,,,6,,,52,0
22592,note_off,,,,,0,0,9,,,,,10,,,64,0
22592,note_off,,,,,320,0,9,,,,,10,,,59,0
22592,note_off,,,,,320,0,10,,,,,11,,,52,0
22592,note_off,,,,,320,0,8,,,,,7,,,40,0
22592,note_off,,,,,320,0,3,,,,,2,,,52,0
22652,note_off,,,,,188,0,2,,,,,1,,,71,0
22652,note_off,,,,,188,0,4,,,,,3,,,74,0
22652,note_off,,,,,188,0,1,,,,,0,,,74,0
22652,note_off,,,,,188,0,5,,,,,4,,,71,0
22656,note_on,,,,,0,0,9,,,,,10,,,71,60
22656,note_on,,,,,4,0,2,,,,,1,,,64,92
22656,note_on,,,,,64,0,7,,,,,6,,,56,92
22656,note_on,,,,,4,0,4,,,,,3,,,72,108
22656,note_on,,,,,64,0,10,,,,,11,,,56,60
22656,note_on,,,,,64,0,3,,,,,2,,,56,92
22656,note_on,,,,,0,0,9,,,,,10,,,64,60
22656,note_on,,,,,4,0,5,,,,,4,,,64,108
22656,note_on,,,,,64,0,8,,,,,7,,,44,75
22656,note_on,,,,,4,0,1,,,,,0,,,72,92
22656,note_on,,,,,64,0,9,,,,,10,,,59,60
22844,note_off,,,,,188,0,4,,,,,3,,,72,0
22844,note_off,,,,,188,0,1,,,,,0,,,72,0
22848,note_on,,,,,4,0,1,,,,,0,,,71,92
22848,note_on,,,,,4,0,4,,,,,3,,,71,108
22976,note_off,,,,,320,0,9,,,,,10,,,59,0
22976,note_off,,,,,320,0,2,,,,,1,,,64,0
22976,note_off,,,,,0,0,9,,,,,10,,,64,0
22976,note_off,,,,,320,0,5,,,,,4,,,64,0
22976,note_off,,,,,320,0,8,,,,,7,,,44,0
22976,note_off,,,,,320,0,3,,,,,2,,,56,0
22976,note_off,,,,,320,0,10,,,,,11,,,56,0
22976,note_off,,,,,320,0,7,,,,,6,,,56,0
22976,note_off,,,,,0,0,9,,,,,10,,,71,0
23036,note_off,,,,,188,0,1,,,,,0,,,71,0
23036,note_off,,,,,188,0,4,,,,,3,,,71,0
23040,note_on,,,,,4,0,1,,,,,0,,,69,92
23040,note_on,,,,,4,0,4,,,,,3,,,69,108
23040,note_on,,,,,832,0,6,,,,,5,,,60,92
23136,note_off,,,,,96,0,4,,,,,3,,,69,0
23136,note_on,,,,,0,0,1,,,,,0,,,71,92
23136,note_off,,,,,96,0,1,,,,,0,,,69,0
23136,note_on,,,,,0,0,4,,,,,3,,,71,108
23232,note_off,,,,,96,0,1,,,,,0,,,71,0
23232,note_off,,,,,96,0,4,,,,,3,,,71,0
23232,note_on,,,,,0,0,4,,,,,3,,,72,108
23232,note_on,,,,,256,0,2,,,,,1,,,64,92
23232,note_on,,,,,0,0,1,,,,,0,,,72,92
23232,note_on,,,,,256,0,5,,,,,4,,,64,108
23360,note_off,,,,,320,0,6,,,,,5,,,60,0
23420,note_off,,,,,188,0,2,,,,,1,,,64,0
23420,note_off,,,,,188,0,5,,,,,4,,,64,0
23420,note_off,,,,,188,0,4,,,,,3,,,72,0
23420,note_off,,,,,188,0,1,,,,,0,,,72,0
23424,note_on,,,,,0,0,9,,,,,10,,,69,60
23424,note_on,,,,,4,0,5,,,,,4,,,60,108
23424,note_on,,,,,448,0,9,,,,,10,,,60,60
23424,note_on,,,,,0,0,9,,,,,10,,,64,60
23424,note_on,,,,,448,0,8,,,,,7,,,33,75
23424,note_on,,,,,448,0,3,,,,,2,,,45,92
23424,note_on,,,,,4,0,2,,,,,1,,,60,92
23424,note_on,,,,,448,0,7,,,,,6,,,45,92
23424,note_on,,,,,448,0,10,,,,,11,,,45,60
23612,note_off,,,,,188,0,2,,,,,1,,,60,0
23612,note_off,,,,,188,0,5,,,,,4,,,60,0
23616,note_on,,,,,196,0,4,,,,,3,,,76,108
23616,note_on,,,,,196,0,1,,,,,0,,,76,92
23616,note_on,,,,,4,0,5,,,,,4,,,64,108
23616,note_on,,,,,4,0,2,,,,,1,,,64,92
23744,note_off,,,,,320,0,8,,,,,7,,,33,0
23744,note_off,,,,,320,0,3,,,,,2,,,45,0
23744,note_off,,,,,320,0,7,,,,,6,,,45,0
23744,note_off,,,,,0,0,9,,,,,10,,,69,0
23744,note_off,,,,,0,0,9,,,,,10,,,64,0
23744,note_off,,,,,320,0,9,,,,,10,,,60,0
23744,note_off,,,,,320,0,10,,,,,11,,,45,0
23804,note_off,,,,,188,0,5,,,,,4,,,64,0
23804,note_off,,,,,188,0,2,,,,,1,,,64,0
23804,note_off,,,,,188,0,1,,,,,0,,,76,0
23804,note_off,,,,,188,0,4,,,,,3,,,76,0
23808,note_on,,,,,64,0,10,,,,,11,,,48,60
23808,note_on,,,,,4,0,1,,,,,0,,,74,92
23808,note_on,,,,,4,0,4,,,,,3,,,74,108
23808,note_on,,,,,64,0,8,,,,,7,,,36,75
23808,note_on,,,,,64,0,3,,,,,2,,,48,92
23808,note_on,,,,,0,0,9,,,,,10,,,69,60
23808,note_on,,,,,4,0,5,,,,,4,,,57,108
23808,note_on,,,,,4,0,2,,,,,1,,,57,92
23808,note_on,,,,,64,0,7,,,,,6,,,48,92
23808,note_on,,,,,64,0,9,,,,,10,,,64,60
23996,note_off,,,,,188,0,1,,,,,0,,,74,0
23996,note_off,,,,,188,0,4,,,,,3,,,74,0
24000,note_on,,,,,4,0,1,,,,,0,,,72,92
24000,note_on,,,,,4,0,4,,,,,3,,,72,108
24128,note_off,,,,,320,0,3,,,,,2,,,48,0
24128,note_off,,,,,320,0,2,,,,,1,,,57,0
24128,note_off,,,,,320,0,7,,,,,6,,,48,0
24128,note_off,,,,,320,0,9,,,,,10,,,64,0
24128,note_off,,,,,320,0,8,,,,,7,,,36,0
24128,note_off,,,,,0,0,9,,,,,10,,,69,0
24128,note_off,,,,,320,0,5,,,,,4,,,57,0
24128,note_off,,,,,320,0,10,,,,,11,,,48,0
24188,note_off,,,,,188,0,1,,,,,0,,,72,0
24188,note_off,,,,,188,0,4,,,,,3,,,72,0
24192,note_on,,,,,832,0,6,,,,,5,,,62,92
24192,note_on,,,,,4,0,1,,,,,0,,,71,92
24192,note_on,,,,,4,0,4,,,,,3,,,71,108
24284,note_off,,,,,92,0,1,,,,,0,,,71,0
24284,note_off,,,,,92,0,4,,,,,3,,,71,0
24288,note_on,,,,,4,0,1,,,,,0,,,72,92
24288,note_on,,,,,4,0,4,,,,,3,,,72,108
24380,note_off,,,,,92,0,1,,,,,0,,,72,0
24380,note_off,,,,,92,0,4,,,,,3,,,72,0
24384,note_on,,,,,4,0,1,,,,,0,,,74,92
24384,note_on,,,,,256,0,2,,,,,1,,,65,92
24384,note_on,,,,,256,0,5,,,,,4,,,65,108
24384,note_on,,,,,4,0,4,,,,,3,,,74,108
24476,note_off,,,,,92,0,1,,,,,0,,,74,0
24476,note_off,,,,,92,0,4,,,,,3,,,74,0
24480,note_on,,,,,4,0,4,,,,,3,,,76,108
24480,note_on,,,,,4,0,1,,,,,0,,,76,92
24512,note_off,,,,,320,0,6,,,,,5,,,62,0
24572,note_off,,,,,92,0,4,,,,,3,,,76,0
24572,note_off,,,,,188,0,2,,,,,1,,,65,0
24572,note_off,,,,,188,0,5,,,,,4,,,65,0
24572,note_off,,,,,92,0,1,,,,,0,,,76,0
24576,note_on,,,,,448,0,7,,,,,6,,,50,92
24576,note_on,,,,,448,0,9,,,,,10,,,62,60
24576,note_on,,,,,4,0,5,,,,,4,,,62,108
24576,note_on,,,,,448,0,10,,,,,11,,,50,60
24576,note_on,,,,,4,0,4,,,,,3,,,77,108
24576,note_on,,,,,0,0,9,,,,,10,,,65,60
24576,note_on,,,,,448,0,8,,,,,7,,,38,75
24576,note_on,,,,,448,0,3,,,,,2,,,50,92
24576,note_on,,,,,4,0,2,,,,,1,,,62,92
24576,note_on,,,,,0,0,9,,,,,10,,,69,60
24576,note_on,,,,,4,0,1,,,,,0,,,77,92
24764,note_off,,,,,188,0,4,,,,,3,,,77,0
24764,note_off,,,,,188,0,2,,,,,1,,,62,0
24764,note_off,,,,,188,0,5,,,,,4,,,62,0
24764,note_off,,,,,188,0,1,,,,,0,,,77,0
24768,note_on,,,,,4,0,5,,,,,4,,,65,108
24768,note_on,,,,,4,0,4,,,,,3,,,72,108
24768,note_on,,,,,4,0,1,,,,,0,,,72,92
24768,note_on,,,,,4,0,2,,,,,1,,,65,92
24896,note_off,,,,,320,0,8,,,,,7,,,38,0
24896,note_off,,,,,320,0,7,,,,,6,,,50,0
24896,note_off,,,,,320,0,10,,,,,11,,,50,0
24896,note_off,,,,,0,0,9,,,,,10,,,69,0
24896,note_off,,,,,320,0,3,,,,,2,,,50,0
24896,note_off,,,,,0,0,9,,,,,10,,,65,0
24896,note_off,,,,,320,0,9,,,,,10,,,62,0
24956,note_off,,,,,188,0,2,,,,,1,,,65,0
24956,note_off,,,,,188,0,5,,,,,4,,,65,0
24956,note_off,,,,,188,0,1,,,,,0,,,72,0
24956,note_off,,,,,188,0,4,,,,,3,,,72,0
24960,note_on,,,,,4,0,5,,,,,4,,,72,108
24960,note_on,,,,,4,0,2,,,,,1,,,72,92
24960,note_on,,,,,0,0,9,,,,,10,,,69,60
24960,note_on,,,,,64,0,3,,,,,2,,,53,92
24960,note_on,,,,,64,0,9,,,,,10,,,57,60
24960,note_on,,,,,0,0,9,,,,,10,,,62,60
24960,note_on,,,,,64,0,10,,,,,11,,,53,60
24960,note_on,,,,,4,0,4,,,,,3,,,71,108
24960,note_on,,,,,64,0,7,,,,,6,,,53,92
24960,note_on,,,,,64,0,8,,,,,7,,,41,75
24960,note_on,,,,,4,0,1,,,,,0,,,71,92
25148,note_off,,,,,188,0,4,,,,,3,,,71,0
25148,note_off,,,,,188,0,1,,,,,0,,,71,0
25152,note_on,,,,,4,0,1,,,,,0,,,69,92
25152,note_on,,,,,4,0,4,,,,,3,,,69,108
25280,note_off,,,,,0,0,9,,,,,10,,,62,0
25280,note_off,,,,,0,0,9,,,,,10,,,69,0
25280,note_off,,,,,320,0,2,,,,,1,,,72,0
25280,note_off,,,,,320,0,10,,,,,11,,,53,0
25280,note_off,,,,,320,0,5,,,,,4,,,72,0
25280,note_off,,,,,320,0,3,,,,,2,,,53,0
25280,note_off,,,,,320,0,7,,,,,6,,,53,0
25280,note_off,,,,,320,0,9,,,,,10,,,57,0
25280,note_off,,,,,320,0,8,,,,,7,,,41,0
25340,note_off,,,,,188,0,1,,,,,0,,,69,0
25340,note_off,,,,,188,0,4,,,,,3,,,69,0
25344,note_on,,,,,64,0,10,,,,,11,,,52,60
25344,note_on,,,,,4,0,1,,,,,0,,,68,92
25344,note_on,,,,,64,0,3,,,,,2,,,52,92
25344,note_on,,,,,64,0,8,,,,,7,,,40,75
25344,note_on,,,,,64,0,7,,,,,6,,,52,92
25344,note_on,,,,,64,0,9,,,,,10,,,59,60
25344,note_on,,,,,0,0,9,,,,,10,,,64,60
25344,note_on,,,,,0,0,9,,,,,10,,,68,60
25344,note_on,,,,,4,0,4,,,,,3,,,68,108
25344,note_on,,,,,832,0,6,,,,,5,,,64,92
25536,note_on,,,,,256,0,5,,,,,4,,,71,108
25536,note_on,,,,,256,0,2,,,,,1,,,71,92
25664,note_off,,,,,320,0,1,,,,,0,,,68,0
25664,note_off,,,,,0,0,9,,,,,10,,,68,0
25664,note_off,,,,,320,0,7,,,,,6,,,52,0
25664,note_off,,,,,320,0,9,,,,,10,,,59,0
25664,note_off,,,,,320,0,3,,,,,2,,,52,0
25664,note_off,,,,,320,0,4,,,,,3,,,68,0
25664,note_off,,,,,320,0,8,,,,,7,,,40,0
25664,note_off,,,,,320,0,10,,,,,11,,,52,0
25664,note_off,,,,,320,0,6,,,,,5,,,64,0
25664,note_off,,,,,0,0,9,,,,,10,,,64,0
25724,note_off,,,,,188,0,2,,,,,1,,,71,0
25724,note_off,,,,,188,0,5,,,,,4,,,71,0
25728,note_on,,,,,4,0,5,,,,,4,,,64,108
25728,note_on,,,,,64,0,3,,,,,2,,,64,92
25728,note_on,,,,,64,0,10,,,,,11,,,64,60
25728,note_on,,,,,64,0,9,,,,,10,,,64,60
25728,note_on,,,,,0,0,9,,,,,10,,,71,60
25728,note_on,,,,,0,0,9,,,,,10,,,68,60
25728,note_on,,,,,4,0,2,,,,,1,,,64,92
25920,note_on,,,,,256,0,1,,,,,0,,,76,92
26048,note_off,,,,,320,0,9,,,,,10,,,64,0
26048,note_off,,,,,320,0,5,,,,,4,,,64,0
26048,note_off,,,,,320,0,3,,,,,2,,,64,0
26048,note_off,,,,,320,0,10,,,,,11,,,64,0
26048,note_off,,,,,320,0,2,,,,,1,,,64,0
26048,note_off,,,,,0,0,9,,,,,10,,,68,0
26048,note_off,,,,,0,0,9,,,,,10,,,71,0
26108,note_off,,,,,188,0,1,,,,,0,,,76,0
26112,note_on,,,,,64,0,9,,,,,10,,,65,60
26112,note_on,,,,,0,0,9,,,,,10,,,71,60
26112,note_on,,,,,64,0,3,,,,,2,,,62,92
26112,note_on,,,,,64,0,10,,,,,11,,,62,60
26112,note_on,,,,,4,0,1,,,,,0,,,77,92
26304,note_on,,,,,0,0,1,,,,,0,,,76,92
26304,note_off,,,,,192,0,1,,,,,0,,,77,0
26432,note_off,,,,,0,0,9,,,,,10,,,71,0
26432,note_off,,,,,320,0,10,,,,,11,,,62,0
26432,note_off,,,,,320,0,9,,,,,10,,,65,0
26432,note_off,,,,,320,0,3,,,,,2,,,62,0
26492,note_off,,,,,188,0,1,,,,,0,,,76,0
26496,note_on,,,,,4,0,1,,,,,0,,,79,127
26684,note_off,,,,,188,0,1,,,,,0,,,79,0
26688,note_on,,,,,4,0,1,,,,,0,,,76,92
26688,note_on,,,,,640,0,2,,,,,1,,,76,92
26876,note_off,,,,,188,0,1,,,,,0,,,76,0
26876,note_off,,,,,188,0,2,,,,,1,,,76,0
26880,note_on,,,,,0,0,9,,,,,10,,,69,60
26880,note_on,,,,,448,0,9,,,,,10,,,64,60
26880,note_on,,,,,448,0,10,,,,,11,,,61,60
26880,note_on,,,,,4,0,2,,,,,1,,,81,92
26880,note_on,,,,,0,0,9,,,,,10,,,76,60
26880,note_on,,,,,448,0,3,,,,,2,,,61,92
27068,note_off,,,,,188,0,2,,,,,1,,,81,0
27072,note_on,,,,,196,0,1,,,,,0,,,76,92
27072,note_on,,,,,4,0,2,,,,,1,,,76,92
27200,note_off,,,,,320,0,3,,,,,2,,,61,0
27200,note_off,,,,,320,0,10,,,,,11,,,61,0
27200,note_off,,,,,320,0,9,,,,,10,,,76,0
27260,note_off,,,,,188,0,1,,,,,0,,,76,0
27260,note_off,,,,,188,0,2,,,,,1,,,76,0
27264,note_on,,,,,4,0,2,,,,,1,,,73,92
27264,note_on,,,,,64,0,10,,,,,11,,,57,60
27264,note_on,,,,,64,0,3,,,,,2,,,57,92
27264,note_on,,,,,4,0,1,,,,,0,,,81,92
27264,note_on,,,,,64,0,9,,,,,10,,,73,60
27452,note_off,,,,,188,0,1,,,,,0,,,81,0
27456,note_on,,,,,4,0,1,,,,,0,,,73,92
27584,note_off,,,,,320,0,10,,,,,11,,,57,0
27584,note_off,,,,,320,0,3,,,,,2,,,57,0
27584,note_off,,,,,320,0,9,,,,,10,,,64,0
27584,note_off,,,,,320,0,2,,,,,1,,,73,0
27584,note_off,,,,,0,0,9,,,,,10,,,69,0
27584,note_off,,,,,0,0,9,,,,,10,,,73,0
27644,note_off,,,,,188,0,1,,,,,0,,,73,0
27648,note_on,,,,,4,0,1,,,,,0,,,74,92
27740,note_off,,,,,92,0,1,,,,,0,,,74,0
27744,note_on,,,,,4,0,1,,,,,0,,,76,92
27836,note_off,,,,,92,0,1,,,,,0,,,76,0
27840,note_on,,,,,4,0,1,,,,,0,,,77,92
27840,note_on,,,,,256,0,2,,,,,1,,,69,92
28028,note_off,,,,,188,0,2,,,,,1,,,69,0
28028,note_off,,,,,188,0,1,,,,,0,,,77,0
28032,note_on,,,,,448,0,3,,,,,2,,,62,92
28032,note_on,,,,,448,0,9,,,,,10,,,65,60
28032,note_on,,,,,4,0,2,,,,,1,,,62,92
28032,note_on,,,,,448,0,10,,,,,11,,,62,60
28032,note_on,,,,,0,0,9,,,,,10,,,69,60
28224,note_on,,,,,196,0,1,,,,,0,,,74,92
28352,note_off,,,,,320,0,2,,,,,1,,,62,0
28352,note_off,,,,,320,0,3,,,,,2,,,62,0
28352,note_off,,,,,320,0,10,,,,,11,,,62,0
28352,note_off,,,,,320,0,9,,,,,10,,,65,0
28352,note_off,,,,,0,0,9,,,,,10,,,69,0
28412,note_off,,,,,188,0,1,,,,,0,,,74,0
28416,note_on,,,,,0,0,9,,,,,10,,,65,60
28416,note_on,,,,,64,0,3,,,,,2,,,60,92
28416,note_on,,,,,0,0,9,,,,,10,,,69,60
28416,note_on,,,,,4,0,1,,,,,0,,,76,92
28416,note_on,,,,,64,0,9,,,,,10,,,62,60
28416,note_on,,,,,64,0,10,,,,,11,,,60,60
28608,note_on,,,,,0,0,1,,,,,0,,,74,92
28608,note_off,,,,,192,0,1,,,,,0,,,76,0
28736,note_off,,,,,320,0,3,,,,,2,,,60,0
28736,note_off,,,,,320,0,9,,,,,10,,,62,0
28736,note_off,,,,,0,0,9,,,,,10,,,65,0
28736,note_off,,,,,0,0,9,,,,,10,,,69,0
28736,note_off,,,,,320,0,10,,,,,11,,,60,0
28796,note_off,,,,,188,0,1,,,,,0,,,74,0
28800,note_on,,,,,4,0,1,,,,,0,,,76,127
28988,note_off,,,,,188,0,1,,,,,0,,,76,0
28992,note_on,,,,,640,0,2,,,,,1,,,74,92
28992,note_on,,,,,4,0,1,,,,,0,,,74,92
29180,note_off,,,,,188,0,2,,,,,1,,,74,0
29180,note_off,,,,,188,0,1,,,,,0,,,74,0
29184,note_on,,,,,4,0,2,,,,,1,,,79,92
29184,note_on,,,,,448,0,9,,,,,10,,,64,60
29184,note_on,,,,,0,0,9,,,,,10,,,67,60
29184,note_on,,,,,0,0,9,,,,,10,,,74,60
29184,note_on,,,,,448,0,10,,,,,11,,,59,60
29184,note_on,,,,,448,0,3,,,,,2,,,59,92
29372,note_off,,,,,188,0,2,,,,,1,,,79,0
29376,note_on,,,,,4,0,2,,,,,1,,,74,92
29376,note_on,,,,,196,0,1,,,,,0,,,74,92
29504,note_off,,,,,320,0,10,,,,,11,,,59,0
29504,note_off,,,,,320,0,9,,,,,10,,,74,0
29504,note_off,,,,,320,0,3,,,,,2,,,59,0
29564,note_off,,,,,188,0,1,,,,,0,,,74,0
29564,note_off,,,,,188,0,2,,,,,1,,,74,0
29568,note_on,,,,,4,0,2,,,,,1,,,71,92
29568,note_on,,,,,64,0,3,,,,,2,,,55,92
29568,note_on,,,,,64,0,9,,,,,10,,,71,60
29568,note_on,,,,,4,0,1,,,,,0,,,79,92
29568,note_on,,,,,64,0,10,,,,,11,,,55,60
29756,note_off,,,,,188,0,1,,,,,0,,,79,0
29760,note_on,,,,,4,0,1,,,,,0,,,71,92
29888,note_off,,,,,320,0,10,,,,,11,,,55,0
29888,note_off,,,,,320,0,2,,,,,1,,,71,0
29888,note_off,,,,,0,0,9,,,,,10,,,67,0
29888,note_off,,,,,320,0,9,,,,,10,,,64,0
29888,note_off,,,,,0,0,9,,,,,10,,,71,0
29888,note_off,,,,,320,0,3,,,,,2,,,55,0
29948,note_off,,,,,188,0,1,,,,,0,,,71,0
29952,note_on,,,,,64,0,3,,,,,2,,,60,92
29952,note_on,,,,,64,0,9,,,,,10,,,64,60
29952,note_on,,,,,0,0,9,,,,,10,,,67,60
29952,note_on,,,,,4,0,1,,,,,0,,,72,92
29952,note_on,,,,,64,0,10,,,,,11,,,60,60
30044,note_off,,,,,92,0,1,,,,,0,,,72,0
30048,note_on,,,,,4,0,1,,,,,0,,,74,92
30140,note_off,,,,,92,0,1,,,,,0,,,74,0
30144,note_on,,,,,4,0,1,,,,,0,,,76,92
30144,note_on,,,,,256,0,2,,,,,1,,,67,92
30272,note_off,,,,,320,0,3,,,,,2,,,60,0
30272,note_off,,,,,320,0,9,,,,,10,,,64,0
30272,note_off,,,,,0,0,9,,,,,10,,,67,0
30272,note_off,,,,,320,0,10,,,,,11,,,60,0
30332,note_off,,,,,188,0,1,,,,,0,,,76,0
30332,note_off,,,,,188,0,2,,,,,1,,,67,0
30336,note_on,,,,,64,0,10,,,,,11,,,52,60
30336,note_on,,,,,4,0,2,,,,,1,,,72,92
30336,note_on,,,,,64,0,9,,,,,10,,,67,60
30336,note_on,,,,,0,0,9,,,,,10,,,72,60
30336,note_on,,,,,4672,0,8,,,,,7,,,40,75
30336,note_on,,,,,64,0,3,,,,,2,,,52,92
30336,note_on,,,,,4672,0,6,,,,,5,,,60,92
30336,note_on,,,,,4672,0,7,,,,,6,,,52,92
30524,note_off,,,,,188,0,2,,,,,1,,,72,0
30528,note_on,,,,,4480,0,5,,,,,4,,,67,108
30528,note_on,,,,,196,0,1,,,,,0,,,76,92
30528,note_on,,,,,4864,0,4,,,,,3,,,76,108
30528,note_on,,,,,4,0,2,,,,,1,,,67,92
30656,note_off,,,,,320,0,8,,,,,7,,,40,0
30656,note_off,,,,,320,0,10,,,,,11,,,52,0
30656,note_off,,,,,320,0,6,,,,,5,,,60,0
30656,note_off,,,,,320,0,3,,,,,2,,,52,0
30656,note_off,,,,,320,0,9,,,,,10,,,67,0
30656,note_off,,,,,0,0,9,,,,,10,,,72,0
30656,note_off,,,,,320,0,7,,,,,6,,,52,0
30716,note_off,,,,,188,0,1,,,,,0,,,76,0
30716,note_off,,,,,188,0,2,,,,,1,,,67,0
30716,note_off,,,,,188,0,5,,,,,4,,,67,0
30716,note_off,,,,,188,0,4,,,,,3,,,76,0
30720,note_on,,,,,64,0,8,,,,,7,,,38,75
30720,note_on,,,,,4,0,1,,,,,0,,,77,92
30720,note_on,,,,,64,0,7,,,,,6,,,50,92
30720,note_on,,,,,4,0,2,,,,,1,,,62,92
30720,note_on,,,,,4,0,4,,,,,3,,,77,108
30720,note_on,,,,,64,0,9,,,,,10,,,65,60
30720,note_on,,,,,64,0,10,,,,,11,,,50,60
30720,note_on,,,,,0,0,9,,,,,10,,,71,60
30720,note_on,,,,,64,0,6,,,,,5,,,62,92
30720,note_on,,,,,64,0,3,,,,,2,,,50,92
30720,note_on,,,,,4,0,5,,,,,4,,,62,108
30908,note_off,,,,,188,0,4,,,,,3,,,77,0
30908,note_off,,,,,188,0,1,,,,,0,,,77,0
30912,note_on,,,,,4,0,1,,,,,0,,,76,92
30912,note_on,,,,,4,0,4,,,,,3,,,76,108
31040,note_off,,,,,0,0,9,,,,,10,,,71,0
31040,note_off,,,,,320,0,9,,,,,10,,,65,0
31040,note_off,,,,,320,0,10,,,,,11,,,50,0
31040,note_off,,,,,320,0,6,,,,,5,,,62,0
31040,note_off,,,,,320,0,3,,,,,2,,,50,0
31040,note_off,,,,,320,0,2,,,,,1,,,62,0
31040,note_off,,,,,320,0,8,,,,,7,,,38,0
31040,note_off,,,,,320,0,7,,,,,6,,,50,0
31040,note_off,,,,,320,0,5,,,,,4,,,62,0
31100,note_off,,,,,188,0,4,,,,,3,,,76,0
31100,note_off,,,,,188,0,1,,,,,0,,,76,0
31104,note_on,,,,,64,0,6,,,,,5,,,64,92
31104,note_on,,,,,4,0,1,,,,,0,,,79,92
31104,note_on,,,,,4,0,4,,,,,3,,,79,108
31292,note_off,,,,,188,0,1,,,,,0,,,79,0
31292,note_off,,,,,188,0,4,,,,,3,,,79,0
31296,note_on,,,,,256,0,5,,,,,4,,,64,108
31296,note_on,,,,,256,0,2,,,,,1,,,64,92
31296,note_on,,,,,4,0,1,,,,,0,,,76,92
31296,note_on,,,,,4,0,4,,,,,3,,,76,108
31424,note_off,,,,,320,0,6,,,,,5,,,64,0
31484,note_off,,,,,188,0,5,,,,,4,,,64,0
31484,note_off,,,,,188,0,4,,,,,3,,,76,0
31484,note_off,,,,,188,0,2,,,,,1,,,64,0
31484,note_off,,,,,188,0,1,,,,,0,,,76,0
31488,note_on,,,,,448,0,10,,,,,11,,,49,60
31488,note_on,,,,,448,0,8,,,,,7,,,37,75
31488,note_on,,,,,4,0,5,,,,,4,,,69,108
31488,note_on,,,,,448,0,3,,,,,2,,,49,92
31488,note_on,,,,,448,0,7,,,,,6,,,49,92
31488,note_on,,,,,448,0,9,,,,,10,,,64,60
31488,note_on,,,,,4,0,2,,,,,1,,,69,92
31488,note_on,,,,,0,0,9,,,,,10,,,69,60
31676,note_off,,,,,188,0,5,,,,,4,,,69,0
31676,note_off,,,,,188,0,2,,,,,1,,,69,0
31680,note_on,,,,,4,0,2,,,,,1,,,64,92
31680,note_on,,,,,196,0,1,,,,,0,,,76,92
31680,note_on,,,,,196,0,4,,,,,3,,,76,108
31680,note_on,,,,,4,0,5,,,,,4,,,64,108
31808,note_off,,,,,320,0,8,,,,,7,,,37,0
31808,note_off,,,,,320,0,7,,,,,6,,,49,0
31808,note_off,,,,,320,0,10,,,,,11,,,49,0
31808,note_off,,,,,320,0,3,,,,,2,,,49,0
31808,note_off,,,,,320,0,9,,,,,10,,,64,0
31808,note_off,,,,,0,0,9,,,,,10,,,69,0
31868,note_off,,,,,188,0,4,,,,,3,,,76,0
31868,note_off,,,,,188,0,2,,,,,1,,,64,0
31868,note_off,,,,,188,0,5,,,,,4,,,64,0
31868,note_off,,,,,188,0,1,,,,,0,,,76,0
31872,note_on,,,,,64,0,3,,,,,2,,,45,92
31872,note_on,,,,,64,0,10,,,,,11,,,45,60
31872,note_on,,,,,4,0,4,,,,,3,,,81,108
31872,note_on,,,,,64,0,7,,,,,6,,,45,92
31872,note_on,,,,,4,0,5,,,,,4,,,61,108
31872,note_on,,,,,4,0,1,,,,,0,,,81,92
31872,note_on,,,,,64,0,8,,,,,7,,,33,75
31872,note_on,,,,,4,0,2,,,,,1,,,61,92
31872,note_on,,,,,64,0,9,,,,,10,,,61,60
31872,note_on,,,,,0,0,9,,,,,10,,,69,60
31872,note_on,,,,,0,0,9,,,,,10,,,64,60
32060,note_off,,,,,188,0,4,,,,,3,,,81,0
32060,note_off,,,,,188,0,1,,,,,0,,,81,0
32064,note_on,,,,,4,0,4,,,,,3,,,73,108
32064,note_on,,,,,4,0,1,,,,,0,,,73,92
32192,note_off,,,,,320,0,5,,,,,4,,,61,0
32192,note_off,,,,,320,0,9,,,,,10,,,61,0
32192,note_off,,,,,320,0,2,,,,,1,,,61,0
32192,note_off,,,,,0,0,9,,,,,10,,,69,0
32192,note_off,,,,,0,0,9,,,,,10,,,64,0
32192,note_off,,,,,320,0,3,,,,,2,,,45,0
32192,note_off,,,,,320,0,7,,,,,6,,,45,0
32192,note_off,,,,,320,0,8,,,,,7,,,33,0
32192,note_off,,,,,320,0,10,,,,,11,,,45,0
32252,note_off,,,,,188,0,1,,,,,0,,,73,0
32252,note_off,,,,,188,0,4,,,,,3,,,73,0
32256,note_on,,,,,4,0,4,,,,,3,,,74,108
32256,note_on,,,,,832,0,6,,,,,5,,,65,92
32256,note_on,,,,,4,0,1,,,,,0,,,74,92
32352,note_on,,,,,0,0,1,,,,,0,,,76,92
32352,note_off,,,,,96,0,1,,,,,0,,,74,0
32352,note_off,,,,,96,0,4,,,,,3,,,74,0
32352,note_on,,,,,0,0,4,,,,,3,,,76,108
32448,note_on,,,,,0,0,1,,,,,0,,,77,92
32448,note_off,,,,,96,0,4,,,,,3,,,76,0
32448,note_on,,,,,0,0,4,,,,,3,,,77,108
32448,note_on,,,,,256,0,5,,,,,4,,,69,108
32448,note_off,,,,,96,0,1,,,,,0,,,76,0
32448,note_on,,,,,256,0,2,,,,,1,,,69,92
32576,note_off,,,,,320,0,6,,,,,5,,,65,0
32636,note_off,,,,,188,0,5,,,,,4,,,69,0
32636,note_off,,,,,188,0,2,,,,,1,,,69,0
32636,note_off,,,,,188,0,4,,,,,3,,,77,0
32636,note_off,,,,,188,0,1,,,,,0,,,77,0
32640,note_on,,,,,448,0,9,,,,,10,,,62,60
32640,note_on,,,,,0,0,9,,,,,10,,,65,60
32640,note_on,,,,,448,0,3,,,,,2,,,50,92
32640,note_on,,,,,448,0,7,,,,,6,,,50,92
32640,note_on,,,,,0,0,9,,,,,10,,,69,60
32640,note_on,,,,,4,0,2,,,,,1,,,62,92
32640,note_on,,,,,448,0,8,,,,,7,,,38,75
32640,note_on,,,,,4,0,5,,,,,4,,,62,108
32640,note_on,,,,,448,0,10,,,,,11,,,50,60
32832,note_on,,,,,196,0,4,,,,,3,,,74,108
32832,note_on,,,,,196,0,1,,,,,0,,,74,92
32960,note_off,,,,,320,0,2,,,,,1,,,62,0
32960,note_off,,,,,320,0,9,,,,,10,,,62,0
32960,note_off,,,,,0,0,9,,,,,10,,,69,0
32960,note_off,,,,,320,0,3,,,,,2,,,50,0
32960,note_off,,,,,320,0,10,,,,,11,,,50,0
32960,note_off,,,,,0,0,9,,,,,10,,,65,0
32960,note_off,,,,,320,0,7,,,,,6,,,50,0
32960,note_off,,,,,320,0,5,,,,,4,,,62,0
32960,note_off,,,,,320,0,8,,,,,7,,,38,0
33020,note_off,,,,,188,0,4,,,,,3,,,74,0
33020,note_off,,,,,188,0,1,,,,,0,,,74,0
33024,note_on,,,,,64,0,8,,,,,7,,,36,75
33024,note_on,,,,,0,0,9,,,,,10,,,65,60
33024,note_on,,,,,64,0,10,,,,,11,,,48,60
33024,note_on,,,,,0,0,9,,,,,10,,,69,60
33024,note_on,,,,,64,0,7,,,,,6,,,48,92
33024,note_on,,,,,64,0,3,,,,,2,,,48,92
33024,note_on,,,,,64,0,9,,,,,10,,,62,60
33024,note_on,,,,,4,0,4,,,,,3,,,76,108
33024,note_on,,,,,4,0,1,,,,,0,,,76,92
33212,note_off,,,,,188,0,4,,,,,3,,,76,0
33212,note_off,,,,,188,0,1,,,,,0,,,76,0
33216,note_on,,,,,4,0,1,,,,,0,,,74,92
33216,note_on,,,,,4,0,4,,,,,3,,,74,108
33344,note_off,,,,,0,0,9,,,,,10,,,65,0
33344,note_off,,,,,320,0,8,,,,,7,,,36,0
33344,note_off,,,,,320,0,10,,,,,11,,,48,0
33344,note_off,,,,,0,0,9,,,,,10,,,69,0
33344,note_off,,,,,320,0,3,,,,,2,,,48,0
33344,note_off,,,,,320,0,9,,,,,10,,,62,0
33344,note_off,,,,,320,0,7,,,,,6,,,48,0
33404,note_off,,,,,188,0,1,,,,,0,,,74,0
33404,note_off,,,,,188,0,4,,,,,3,,,74,0
33408,note_on,,,,,4,0,1,,,,,0,,,77,92
33408,note_on,,,,,832,0,6,,,,,5,,,62,92
33408,note_on,,,,,4,0,4,,,,,3,,,77,108
33596,note_off,,,,,188,0,4,,,,,3,,,77,0
33596,note_off,,,,,188,0,1,,,,,0,,,77,0
33600,note_on,,,,,4,0,4,,,,,3,,,74,108
33600,note_on,,,,,640,0,2,,,,,1,,,62,92
33600,note_on,,,,,4,0,1,,,,,0,,,74,92
33600,note_on,,,,,640,0,5,,,,,4,,,62,108
33728,note_off,,,,,320,0,6,,,,,5,,,62,0
33788,note_off,,,,,188,0,1,,,,,0,,,74,0
33788,note_off,,,,,188,0,2,,,,,1,,,62,0
33788,note_off,,,,,188,0,5,,,,,4,,,62,0
33788,note_off,,,,,188,0,4,,,,,3,,,74,0
33792,note_on,,,,,448,0,9,,,,,10,,,62,60
33792,note_on,,,,,0,0,9,,,,,10,,,67,60
33792,note_on,,,,,4,0,5,,,,,4,,,67,108
33792,note_on,,,,,448,0,3,,,,,2,,,47,92
33792,note_on,,,,,448,0,7,,,,,6,,,47,92
33792,note_on,,,,,4,0,2,,,,,1,,,67,92
33792,note_on,,,,,448,0,10,,,,,11,,,47,60
33792,note_on,,,,,448,0,8,,,,,7,,,35,75
33980,note_off,,,,,188,0,5,,,,,4,,,67,0
33980,note_off,,,,,188,0,2,,,,,1,,,67,0
33984,note_on,,,,,196,0,4,,,,,3,,,74,108
33984,note_on,,,,,4,0,5,,,,,4,,,62,108
33984,note_on,,,,,196,0,1,,,,,0,,,74,92
33984,note_on,,,,,4,0,2,,,,,1,,,62,92
34112,note_off,,,,,320,0,10,,,,,11,,,47,0
34112,note_off,,,,,320,0,7,,,,,6,,,47,0
34112,note_off,,,,,320,0,9,,,,,10,,,62,0
34112,note_off,,,,,320,0,3,,,,,2,,,47,0
34112,note_off,,,,,0,0,9,,,,,10,,,67,0
34112,note_off,,,,,320,0,8,,,,,7,,,35,0
34172,note_off,,,,,188,0,5,,,,,4,,,62,0
34172,note_off,,,,,188,0,4,,,,,3,,,74,0
34172,note_off,,,,,188,0,2,,,,,1,,,62,0
34172,note_off,,,,,188,0,1,,,,,0,,,74,0
34176,note_on,,,,,4,0,5,,,,,4,,,59,108
34176,note_on,,,,,0,0,9,,,,,10,,,67,60
34176,note_on,,,,,0,0,9,,,,,10,,,62,60
34176,note_on,,,,,64,0,9,,,,,10,,,59,60
34176,note_on,,,,,64,0,10,,,,,11,,,43,60
34176,note_on,,,,,64,0,3,,,,,2,,,43,92
34176,note_on,,,,,64,0,7,,,,,6,,,43,92
34176,note_on,,,,,64,0,8,,,,,7,,,31,75
34176,note_on,,,,,4,0,4,,,,,3,,,79,108
34176,note_on,,,,,4,0,1,,,,,0,,,79,92
34176,note_on,,,,,4,0,2,,,,,1,,,59,92
34364,note_off,,,,,188,0,2,,,,,1,,,59,0
34364,note_off,,,,,188,0,4,,,,,3,,,79,0
34364,note_off,,,,,188,0,1,,,,,0,,,79,0
34368,note_on,,,,,4,0,4,,,,,3,,,71,108
34368,note_on,,,,,4,0,1,,,,,0,,,71,92
34368,note_on,,,,,4,0,2,,,,,1,,,67,92
34496,note_off,,,,,320,0,10,,,,,11,,,43,0
34496,note_off,,,,,320,0,8,,,,,7,,,31,0
34496,note_off,,,,,0,0,9,,,,,10,,,67,0
34496,note_off,,,,,320,0,3,,,,,2,,,43,0
34496,note_off,,,,,320,0,5,,,,,4,,,59,0
34496,note_off,,,,,0,0,9,,,,,10,,,62,0
34496,note_off,,,,,320,0,9,,,,,10,,,59,0
34496,note_off,,,,,320,0,7,,,,,6,,,43,0
34556,note_off,,,,,188,0,1,,,,,0,,,71,0
34556,note_off,,,,,188,0,4,,,,,3,,,71,0
34556,note_off,,,,,188,0,2,,,,,1,,,67,0
34560,note_on,,,,,4,0,4,,,,,3,,,72,108
34560,note_on,,,,,4,0,2,,,,,1,,,72,92
34560,note_on,,,,,4,0,1,,,,,0,,,72,92
34652,note_off,,,,,92,0,2,,,,,1,,,72,0
34656,note_off,,,,,96,0,1,,,,,0,,,72,0
34656,note_off,,,,,96,0,4,,,,,3,,,72,0
34656,note_on,,,,,0,0,1,,,,,0,,,74,92
34656,note_on,,,,,0,0,4,,,,,3,,,74,108
34656,note_on,,,,,4,0,2,,,,,1,,,74,92
34748,note_off,,,,,92,0,2,,,,,1,,,74,0
34752,note_on,,,,,0,0,4,,,,,3,,,76,108
34752,note_off,,,,,96,0,4,,,,,3,,,74,0
34752,note_on,,,,,4,0,2,,,,,1,,,76,92
34752,note_on,,,,,0,0,1,,,,,0,,,76,92
34752,note_off,,,,,96,0,1,,,,,0,,,74,0
34940,note_off,,,,,188,0,4,,,,,3,,,76,0
34940,note_off,,,,,188,0,1,,,,,0,,,76,0
34940,note_off,,,,,188,0,2,,,,,1,,,76,0
34944,note_on,,,,,0,0,9,,,,,10,,,67,45
34944,note_on,,,,,448,0,9,,,,,10,,,64,45
34944,note_on,,,,,448,0,5,,,,,4,,,67,75
34944,note_on,,,,,448,0,7,,,,,6,,,60,60
34944,note_on,,,,,448,0,10,,,,,11,,,60,45
34944,note_on,,,,,448,0,8,,,,,7,,,48,45
34944,note_on,,,,,448,0,3,,,,,2,,,60,60
34944,note_on,,,,,1216,0,6,,,,,5,,,64,60
35136,note_on,,,,,196,0,4,,,,,3,,,72,75
35136,note_on,,,,,196,0,2,,,,,1,,,72,60
35136,note_on,,,,,196,0,1,,,,,0,,,72,60
35264,note_off,,,,,0,0,9,,,,,10,,,67,0
35264,note_off,,,,,320,0,9,,,,,10,,,64,0
35264,note_off,,,,,320,0,3,,,,,2,,,60,0
35264,note_off,,,,,320,0,6,,,,,5,,,64,0
35264,note_off,,,,,320,0,10,,,,,11,,,60,0
35264,note_off,,,,,320,0,8,,,,,7,,,48,0
35264,note_off,,,,,320,0,5,,,,,4,,,67,0
35264,note_off,,,,,320,0,7,,,,,6,,,60,0
35324,note_off,,,,,188,0,4,,,,,3,,,72,0
35324,note_off,,,,,188,0,2,,,,,1,,,72,0
35324,note_off,,,,,188,0,1,,,,,0,,,72,0
35328,note_on,,,,,4,0,2,,,,,1,,,76,60
35328,note_on,,,,,64,0,5,,,,,4,,,64,75
35328,note_on,,,,,64,0,6,,,,,5,,,60,60
35328,note_on,,,,,64,0,9,,,,,10,,,64,45
35328,note_on,,,,,64,0,7,,,,,6,,,48,60
35328,note_on,,,,,4,0,1,,,,,0,,,76,60
35328,note_on,,,,,64,0,3,,,,,2,,,48,60
35328,note_on,,,,,64,0,10,,,,,11,,,48,45
35328,note_on,,,,,0,0,9,,,,,10,,,67,45
35328,note_on,,,,,0,0,9,,,,,10,,,72,45
35328,note_on,,,,,64,0,8,,,,,7,,,36,45
35328,note_on,,,,,4,0,4,,,,,3,,,76,75
35516,note_off,,,,,188,0,1,,,,,0,,,76,0
35516,note_off,,,,,188,0,2,,,,,1,,,76,0
35516,note_off,,,,,188,0,4,,,,,3,,,76,0
35520,note_on,,,,,4,0,1,,,,,0,,,72,60
35520,note_on,,,,,4,0,2,,,,,1,,,72,60
35520,note_on,,,,,4,0,4,,,,,3,,,72,75
35648,note_off,,,,,320,0,3,,,,,2,,,48,0
35648,note_off,,,,,320,0,8,,,,,7,,,36,0
35648,note_off,,,,,320,0,7,,,,,6,,,48,0
35648,note_off,,,,,0,0,9,,,,,10,,,72,0
35648,note_off,,,,,320,0,9,,,,,10,,,64,0
35648,note_off,,,,,320,0,5,,,,,4,,,64,0
35648,note_off,,,,,320,0,6,,,,,5,,,60,0
35648,note_off,,,,,320,0,10,,,,,11,,,48,0
35648,note_off,,,,,0,0,9,,,,,10,,,67,0
35708,note_off,,,,,188,0,1,,,,,0,,,72,0
35708,note_off,,,,,188,0,2,,,,,1,,,72,0
35708,note_off,,,,,188,0,4,,,,,3,,,72,0
35712,note_on,,,,,4,0,1,,,,,0,,,79,60
35712,note_on,,,,,4,0,2,,,,,1,,,79,60
35712,note_on,,,,,4,0,4,,,,,3,,,79,75
35900,note_off,,,,,188,0,1,,,,,0,,,79,0
35900,note_off,,,,,188,0,2,,,,,1,,,79,0
35900,note_off,,,,,188,0,4,,,,,3,,,79,0
35904,note_on,,,,,4,0,1,,,,,0,,,72,60
35904,note_on,,,,,4,0,2,,,,,1,,,72,60
35904,note_on,,,,,256,0,5,,,,,4,,,67,75
35904,note_on,,,,,256,0,6,,,,,5,,,60,60
35904,note_on,,,,,4,0,4,,,,,3,,,72,75
36040,note_off,,,,,136,0,5,,,,,4,,,67,0
36040,note_off,,,,,136,0,6,,,,,5,,,60,0
36092,note_off,,,,,188,0,4,,,,,3,,,72,0
36092,note_off,,,,,188,0,1,,,,,0,,,72,0
36092,note_off,,,,,188,0,2,,,,,1,,,72,0
36096,note_on,,,,,448,0,3,,,,,2,,,52,60
36096,note_on,,,,,0,0,9,,,,,10,,,72,45
36096,note_on,,,,,448,0,8,,,,,7,,,40,45
36096,note_on,,,,,448,0,10,,,,,11,,,52,45
36096,note_on,,,,,448,0,7,,,,,6,,,52,60
36096,note_on,,,,,448,0,9,,,,,10,,,67,45
36096,note_on,,,,,56,0,5,,,,,4,,,67,75
36096,note_on,,,,,56,0,6,,,,,5,,,60,60
36232,note_off,,,,,136,0,6,,,,,5,,,60,0
36232,note_off,,,,,136,0,5,,,,,4,,,67,0
36288,note_on,,,,,56,0,5,,,,,4,,,67,75
36288,note_on,,,,,56,0,6,,,,,5,,,60,60
36288,note_on,,,,,196,0,1,,,,,0,,,72,60
36288,note_on,,,,,196,0,2,,,,,1,,,72,60
36288,note_on,,,,,196,0,4,,,,,3,,,72,75
36352,note_off,,,,,64,0,6,,,,,5,,,60,0
36352,note_off,,,,,64,0,5,,,,,4,,,67,0
36416,note_off,,,,,320,0,8,,,,,7,,,40,0
36416,note_off,,,,,320,0,3,,,,,2,,,52,0
36416,note_off,,,,,320,0,9,,,,,10,,,67,0
36416,note_off,,,,,0,0,9,,,,,10,,,72,0
36416,note_off,,,,,320,0,10,,,,,11,,,52,0
36416,note_off,,,,,320,0,7,,,,,6,,,52,0
36476,note_off,,,,,188,0,2,,,,,1,,,72,0
36476,note_off,,,,,188,0,1,,,,,0,,,72,0
36476,note_off,,,,,188,0,4,,,,,3,,,72,0
36480,note_on,,,,,64,0,10,,,,,11,,,60,45
36480,note_on,,,,,128,0,5,,,,,4,,,67,75
36480,note_on,,,,,64,0,7,,,,,6,,,60,60
36480,note_on,,,,,4,0,4,,,,,3,,,76,75
36480,note_on,,,,,128,0,6,,,,,5,,,60,60
36480,note_on,,,,,4,0,1,,,,,0,,,76,60
36480,note_on,,,,,4,0,2,,,,,1,,,76,60
36480,note_on,,,,,64,0,8,,,,,7,,,48,45
36480,note_on,,,,,64,0,9,,,,,10,,,64,45
36480,note_on,,,,,0,0,9,,,,,10,,,67,45
36480,note_on,,,,,64,0,3,,,,,2,,,60,60
36668,note_off,,,,,188,0,2,,,,,1,,,76,0
36668,note_off,,,,,188,0,4,,,,,3,,,76,0
36668,note_off,,,,,188,0,1,,,,,0,,,76,0
36672,note_on,,,,,4,0,2,,,,,1,,,72,60
36672,note_on,,,,,4,0,1,,,,,0,,,72,60
36672,note_on,,,,,4,0,4,,,,,3,,,72,75
36800,note_off,,,,,320,0,8,,,,,7,,,48,0
36800,note_off,,,,,320,0,5,,,,,4,,,67,0
36800,note_off,,,,,320,0,7,,,,,6,,,60,0
36800,note_off,,,,,0,0,9,,,,,10,,,67,0
36800,note_off,,,,,320,0,9,,,,,10,,,64,0
36800,note_off,,,,,320,0,3,,,,,2,,,60,0
36800,note_off,,,,,320,0,10,,,,,11,,,60,0
36800,note_off,,,,,320,0,6,,,,,5,,,60,0
36860,note_off,,,,,188,0,4,,,,,3,,,72,0
36860,note_off,,,,,188,0,1,,,,,0,,,72,0
36860,note_off,,,,,188,0,2,,,,,1,,,72,0
36864,note_on,,,,,4,0,4,,,,,3,,,79,75
36864,note_on,,,,,4,0,2,,,,,1,,,79,60
36864,note_on,,,,,4,0,1,,,,,0,,,79,60
37052,note_off,,,,,188,0,4,,,,,3,,,79,0
37052,note_off,,,,,188,0,2,,,,,1,,,79,0
37052,note_off,,,,,188,0,1,,,,,0,,,79,0
37056,note_on,,,,,4,0,1,,,,,0,,,70,60
37056,note_on,,,,,256,0,6,,,,,5,,,60,60
37056,note_on,,,,,4,0,4,,,,,3,,,70,75
37056,note_on,,,,,4,0,2,,,,,1,,,70,60
37056,note_on,,,,,256,0,5,,,,,4,,,67,75
37192,note_off,,,,,136,0,6,,,,,5,,,60,0
37192,note_off,,,,,136,0,5,,,,,4,,,67,0
37244,note_off,,,,,188,0,1,,,,,0,,,70,0
37244,note_off,,,,,188,0,4,,,,,3,,,70,0
37244,note_off,,,,,188,0,2,,,,,1,,,70,0
37248,note_on,,,,,56,0,5,,,,,4,,,67,75
37248,note_on,,,,,56,0,6,,,,,5,,,60,60
37248,note_on,,,,,448,0,9,,,,,10,,,67,45
37248,note_on,,,,,448,0,10,,,,,11,,,52,45
37248,note_on,,,,,448,0,3,,,,,2,,,52,60
37248,note_on,,,,,0,0,9,,,,,10,,,70,45
37248,note_on,,,,,0,0,10,,,,,11,,,60,45
37248,note_on,,,,,448,0,8,,,,,7,,,40,45
37248,note_on,,,,,448,0,7,,,,,6,,,52,60
37384,note_off,,,,,136,0,5,,,,,4,,,67,0
37384,note_off,,,,,136,0,6,,,,,5,,,60,0
37440,note_on,,,,,196,0,1,,,,,0,,,70,60
37440,note_on,,,,,56,0,5,,,,,4,,,67,75
37440,note_on,,,,,196,0,2,,,,,1,,,70,60
37440,note_on,,,,,56,0,6,,,,,5,,,60,60
37440,note_on,,,,,196,0,4,,,,,3,,,70,75
37504,note_off,,,,,64,0,5,,,,,4,,,67,0
37504,note_off,,,,,64,0,6,,,,,5,,,60,0
37568,note_off,,,,,320,0,3,,,,,2,,,52,0
37568,note_off,,,,,320,0,7,,,,,6,,,52,0
37568,note_off,,,,,0,0,9,,,,,10,,,70,0
37568,note_off,,,,,320,0,9,,,,,10,,,67,0
37568,note_off,,,,,0,0,10,,,,,11,,,60,0
37568,note_off,,,,,320,0,8,,,,,7,,,40,0
37568,note_off,,,,,320,0,10,,,,,11,,,52,0
37628,note_off,,,,,188,0,2,,,,,1,,,70,0
37628,note_off,,,,,188,0,1,,,,,0,,,70,0
37628,note_off,,,,,188,0,4,,,,,3,,,70,0
37632,note_on,,,,,64,0,3,,,,,2,,,60,60
37632,note_on,,,,,128,0,5,,,,,4,,,67,75
37632,note_on,,,,,4,0,2,,,,,1,,,76,60
37632,note_on,,,,,64,0,10,,,,,11,,,60,45
37632,note_on,,,,,64,0,7,,,,,6,,,60,60
37632,note_on,,,,,4,0,1,,,,,0,,,76,60
37632,note_on,,,,,4,0,4,,,,,3,,,76,75
37632,note_on,,,,,128,0,6,,,,,5,,,60,60
37632,note_on,,,,,64,0,9,,,,,10,,,64,45
37632,note_on,,,,,0,0,9,,,,,10,,,67,45
37632,note_on,,,,,64,0,8,,,,,7,,,48,45
37820,note_off,,,,,188,0,2,,,,,1,,,76,0
37820,note_off,,,,,188,0,4,,,,,3,,,76,0
37820,note_off,,,,,188,0,1,,,,,0,,,76,0
37824,note_on,,,,,4,0,4,,,,,3,,,70,75
37824,note_on,,,,,4,0,1,,,,,0,,,70,60
37824,note_on,,,,,4,0,2,,,,,1,,,70,60
37952,note_off,,,,,320,0,5,,,,,4,,,67,0
37952,note_off,,,,,0,0,9,,,,,10,,,67,0
37952,note_off,,,,,320,0,9,,,,,10,,,64,0
37952,note_off,,,,,320,0,10,,,,,11,,,60,0
37952,note_off,,,,,320,0,7,,,,,6,,,60,0
37952,note_off,,,,,320,0,8,,,,,7,,,48,0
37952,note_off,,,,,320,0,6,,,,,5,,,60,0
37952,note_off,,,,,320,0,3,,,,,2,,,60,0
38012,note_off,,,,,188,0,4,,,,,3,,,70,0
38012,note_off,,,,,188,0,2,,,,,1,,,70,0
38012,note_off,,,,,188,0,1,,,,,0,,,70,0
38016,note_on,,,,,4,0,2,,,,,1,,,79,60
38016,note_on,,,,,4,0,1,,,,,0,,,79,60
38016,note_on,,,,,4,0,4,,,,,3,,,79,75
38204,note_off,,,,,188,0,2,,,,,1,,,79,0
38204,note_off,,,,,188,0,4,,,,,3,,,79,0
38204,note_off,,,,,188,0,1,,,,,0,,,79,0
38208,note_on,,,,,256,0,5,,,,,4,,,67,75
38208,note_on,,,,,4,0,4,,,,,3,,,70,75
38208,note_on,,,,,4,0,1,,,,,0,,,70,60
38208,note_on,,,,,4,0,2,,,,,1,,,70,60
38208,note_on,,,,,256,0,6,,,,,5,,,60,60
38344,note_off,,,,,136,0,6,,,,,5,,,60,0
38344,note_off,,,,,136,0,5,,,,,4,,,67,0
38396,note_off,,,,,188,0,4,,,,,3,,,70,0
38396,note_off,,,,,188,0,1,,,,,0,,,70,0
38396,note_off,,,,,188,0,2,,,,,1,,,70,0
38400,note_on,,,,,448,0,3,,,,,2,,,52,60
38400,note_on,,,,,0,0,9,,,,,10,,,70,45
38400,note_on,,,,,56,0,5,,,,,4,,,67,75
38400,note_on,,,,,448,0,9,,,,,10,,,67,45
38400,note_on,,,,,448,0,10,,,,,11,,,52,45
38400,note_on,,,,,0,0,10,,,,,11,,,60,45
38400,note_on,,,,,56,0,6,,,,,5,,,60,60
38400,note_on,,,,,448,0,8,,,,,7,,,40,45
38400,note_on,,,,,448,0,7,,,,,6,,,52,60
38536,note_off,,,,,136,0,5,,,,,4,,,67,0
38536,note_off,,,,,136,0,6,,,,,5,,,60,0
38592,note_on,,,,,56,0,5,,,,,4,,,67,75
38592,note_on,,,,,56,0,6,,,,,5,,,60,60
38592,note_on,,,,,196,0,2,,,,,1,,,70,60
38592,note_on,,,,,196,0,1,,,,,0,,,70,60
38592,note_on,,,,,196,0,4,,,,,3,,,70,75
38656,note_off,,,,,64,0,5,,,,,4,,,67,0
38656,note_off,,,,,64,0,6,,,,,5,,,60,0
38720,note_off,,,,,320,0,7,,,,,6,,,52,0
38720,note_off,,,,,320,0,8,,,,,7,,,40,0
38720,note_off,,,,,0,0,10,,,,,11,,,60,0
38720,note_off,,,,,0,0,9,,,,,10,,,70,0
38720,note_off,,,,,320,0,10,,,,,11,,,52,0
38720,note_off,,,,,320,0,3,,,,,2,,,52,0
38720,note_off,,,,,320,0,9,,,,,10,,,67,0
38780,note_off,,,,,188,0,2,,,,,1,,,70,0
38780,note_off,,,,,188,0,1,,,,,0,,,70,0
38780,note_off,,,,,188,0,4,,,,,3,,,70,0
38784,note_on,,,,,64,0,7,,,,,6,,,60,60
38784,note_on,,,,,64,0,8,,,,,7,,,48,45
38784,note_on,,,,,128,0,6,,,,,5,,,60,60
38784,note_on,,,,,4,0,2,,,,,1,,,79,60
38784,note_on,,,,,64,0,3,,,,,2,,,60,60
38784,note_on,,,,,4,0,4,,,,,3,,,79,75
38784,note_on,,,,,4,0,1,,,,,0,,,79,60
38784,note_on,,,,,64,0,10,,,,,11,,,60,45
38784,note_on,,,,,128,0,5,,,,,4,,,67,75
38784,note_on,,,,,64,0,9,,,,,10,,,64,45
38784,note_on,,,,,0,0,9,,,,,10,,,67,45
38972,note_off,,,,,188,0,1,,,,,0,,,79,0
38972,note_off,,,,,188,0,4,,,,,3,,,79,0
38972,note_off,,,,,188,0,2,,,,,1,,,79,0
38976,note_on,,,,,4,0,4,,,,,3,,,70,75
38976,note_on,,,,,4,0,1,,,,,0,,,70,60
38976,note_on,,,,,4,0,2,,,,,1,,,70,60
39104,note_off,,,,,320,0,9,,,,,10,,,64,0
39104,note_off,,,,,320,0,10,,,,,11,,,60,0
39104,note_off,,,,,0,0,9,,,,,10,,,67,0
39104,note_off,,,,,320,0,3,,,,,2,,,60,0
39104,note_off,,,,,320,0,6,,,,,5,,,60,0
39104,note_off,,,,,320,0,8,,,,,7,,,48,0
39104,note_off,,,,,320,0,7,,,,,6,,,60,0
39104,note_off,,,,,320,0,5,,,,,4,,,67,0
39164,note_off,,,,,188,0,4,,,,,3,,,70,0
39164,note_off,,,,,188,0,1,,,,,0,,,70,0
39164,note_off,,,,,188,0,2,,,,,1,,,70,0
39168,note_on,,,,,4,0,2,,,,,1,,,69,60
39168,note_on,,,,,4,0,4,,,,,3,,,69,75
39168,note_on,,,,,4,0,1,,,,,0,,,69,60
39304,note_off,,,,,136,0,4,,,,,3,,,69,0
39304,note_off,,,,,136,0,1,,,,,0,,,69,0
39304,note_off,,,,,136,0,2,,,,,1,,,69,0
39360,note_on,,,,,256,0,5,,,,,4,,,65,75
39360,note_on,,,,,56,0,2,,,,,1,,,69,60
39360,note_on,,,,,256,0,6,,,,,5,,,60,60
39360,note_on,,,,,56,0,1,,,,,0,,,69,60
39360,note_on,,,,,56,0,4,,,,,3,,,69,75
39496,note_off,,,,,136,0,4,,,,,3,,,69,0
39496,note_off,,,,,136,0,6,,,,,5,,,60,0
39496,note_off,,,,,136,0,5,,,,,4,,,65,0
39496,note_off,,,,,136,0,2,,,,,1,,,69,0
39496,note_off,,,,,136,0,1,,,,,0,,,69,0
39552,note_on,,,,,448,0,8,,,,,7,,,29,45
39552,note_on,,,,,448,0,3,,,,,2,,,41,60
39552,note_on,,,,,56,0,2,,,,,1,,,69,60
39552,note_on,,,,,56,0,6,,,,,5,,,60,60
39552,note_on,,,,,56,0,4,,,,,3,,,69,75
39552,note_on,,,,,56,0,5,,,,,4,,,65,75
39552,note_on,,,,,56,0,1,,,,,0,,,69,60
39552,note_on,,,,,448,0,10,,,,,11,,,41,45
39552,note_on,,,,,448,0,7,,,,,6,,,41,60
39552,note_on,,,,,0,0,9,,,,,10,,,69,45
39552,note_on,,,,,0,0,9,,,,,10,,,65,45
39552,note_on,,,,,448,0,9,,,,,10,,,60,45
39688,note_off,,,,,136,0,5,,,,,4,,,65,0
39688,note_off,,,,,136,0,6,,,,,5,,,60,0
39688,note_off,,,,,136,0,4,,,,,3,,,69,0
39688,note_off,,,,,136,0,1,,,,,0,,,69,0
39688,note_off,,,,,136,0,2,,,,,1,,,69,0
39744,note_on,,,,,56,0,1,,,,,0,,,69,60
39744,note_on,,,,,56,0,2,,,,,1,,,69,60
39744,note_on,,,,,56,0,6,,,,,5,,,60,60
39744,note_on,,,,,56,0,4,,,,,3,,,69,75
39744,note_on,,,,,56,0,5,,,,,4,,,65,75
39808,note_off,,,,,64,0,2,,,,,1,,,69,0
39808,note_off,,,,,64,0,4,,,,,3,,,69,0
39808,note_off,,,,,64,0,1,,,,,0,,,69,0
39872,note_off,,,,,320,0,8,,,,,7,,,29,0
39872,note_off,,,,,320,0,10,,,,,11,,,41,0
39872,note_off,,,,,0,0,9,,,,,10,,,69,0
39872,note_off,,,,,0,0,9,,,,,10,,,65,0
39872,note_off,,,,,320,0,9,,,,,10,,,60,0
39872,note_off,,,,,320,0,7,,,,,6,,,41,0
39872,note_off,,,,,320,0,3,,,,,2,,,41,0
39880,note_off,,,,,136,0,6,,,,,5,,,60,0
39880,note_off,,,,,136,0,5,,,,,4,,,65,0
39936,note_on,,,,,128,0,4,,,,,3,,,69,75
39936,note_on,,,,,64,0,3,,,,,2,,,53,60
39936,note_on,,,,,0,0,9,,,,,10,,,69,45
39936,note_on,,,,,0,0,9,,,,,10,,,65,45
39936,note_on,,,,,56,0,5,,,,,4,,,65,75
39936,note_on,,,,,128,0,2,,,,,1,,,69,60
39936,note_on,,,,,64,0,10,,,,,11,,,53,45
39936,note_on,,,,,64,0,8,,,,,7,,,41,45
39936,note_on,,,,,64,0,7,,,,,6,,,53,60
39936,note_on,,,,,64,0,9,,,,,10,,,60,45
39936,note_on,,,,,56,0,6,,,,,5,,,60,60
39936,note_on,,,,,128,0,1,,,,,0,,,69,60
40032,note_on,,,,,0,0,1,,,,,0,,,72,60
40032,note_on,,,,,0,0,4,,,,,3,,,72,75
40032,note_off,,,,,96,0,4,,,,,3,,,69,0
40032,note_off,,,,,96,0,2,,,,,1,,,69,0
40032,note_on,,,,,0,0,2,,,,,1,,,72,60
40032,note_off,,,,,96,0,1,,,,,0,,,69,0
40072,note_off,,,,,136,0,5,,,,,4,,,65,0
40072,note_off,,,,,136,0,6,,,,,5,,,60,0
40128,note_off,,,,,96,0,2,,,,,1,,,72,0
40128,note_on,,,,,56,0,6,,,,,5,,,60,60
40128,note_off,,,,,96,0,4,,,,,3,,,72,0
40128,note_on,,,,,0,0,4,,,,,3,,,71,75
40128,note_on,,,,,0,0,2,,,,,1,,,71,60
40128,note_on,,,,,56,0,5,,,,,4,,,65,75
40128,note_on,,,,,0,0,1,,,,,0,,,71,60
40128,note_off,,,,,96,0,1,,,,,0,,,72,0
40192,note_off,,,,,64,0,6,,,,,5,,,60,0
40192,note_off,,,,,64,0,5,,,,,4,,,65,0
40224,note_off,,,,,96,0,2,,,,,1,,,71,0
40224,note_off,,,,,96,0,4,,,,,3,,,71,0
40224,note_on,,,,,0,0,4,,,,,3,,,69,75
40224,note_on,,,,,0,0,1,,,,,0,,,69,60
40224,note_off,,,,,96,0,1,,,,,0,,,71,0
40224,note_on,,,,,0,0,2,,,,,1,,,69,60
40256,note_off,,,,,320,0,8,,,,,7,,,41,0
40256,note_off,,,,,0,0,9,,,,,10,,,69,0
40256,note_off,,,,,0,0,9,,,,,10,,,65,0
40256,note_off,,,,,320,0,10,,,,,11,,,53,0
40256,note_off,,,,,320,0,3,,,,,2,,,53,0
40256,note_off,,,,,320,0,9,,,,,10,,,60,0
40256,note_off,,,,,320,0,7,,,,,6,,,53,0
40316,note_off,,,,,92,0,4,,,,,3,,,69,0
40316,note_off,,,,,92,0,1,,,,,0,,,69,0
40316,note_off,,,,,92,0,2,,,,,1,,,69,0
40320,note_on,,,,,128,0,5,,,,,4,,,65,75
40320,note_on,,,,,4,0,1,,,,,0,,,71,60
40320,note_on,,,,,128,0,6,,,,,5,,,62,60
40320,note_on,,,,,4,0,2,,,,,1,,,71,60
40320,note_on,,,,,4,0,4,,,,,3,,,71,75
40456,note_off,,,,,136,0,5,,,,,4,,,65,0
40456,note_off,,,,,136,0,6,,,,,5,,,62,0
40456,note_off,,,,,136,0,2,,,,,1,,,71,0
40456,note_off,,,,,136,0,1,,,,,0,,,71,0
40456,note_off,,,,,136,0,4,,,,,3,,,71,0
40512,note_on,,,,,56,0,2,,,,,1,,,71,60
40512,note_on,,,,,56,0,5,,,,,4,,,65,75
40512,note_on,,,,,56,0,6,,,,,5,,,62,60
40512,note_on,,,,,56,0,4,,,,,3,,,71,75
40512,note_on,,,,,56,0,1,,,,,0,,,71,60
40648,note_off,,,,,136,0,1,,,,,0,,,71,0
40648,note_off,,,,,136,0,6,,,,,5,,,62,0
40648,note_off,,,,,136,0,4,,,,,3,,,71,0
40648,note_off,,,,,136,0,5,,,,,4,,,65,0
40648,note_off,,,,,136,0,2,,,,,1,,,71,0
40704,note_on,,,,,0,0,9,,,,,10,,,71,45
40704,note_on,,,,,56,0,5,,,,,4,,,65,75
40704,note_on,,,,,56,0,2,,,,,1,,,71,60
40704,note_on,,,,,448,0,7,,,,,6,,,50,60
40704,note_on,,,,,448,0,8,,,,,7,,,38,45
40704,note_on,,,,,448,0,9,,,,,10,,,65,45
40704,note_on,,,,,56,0,1,,,,,0,,,71,60
40704,note_on,,,,,56,0,6,,,,,5,,,62,60
40704,note_on,,,,,448,0,10,,,,,11,,,50,45
40704,note_on,,,,,56,0,4,,,,,3,,,71,75
40704,note_on,,,,,448,0,3,,,,,2,,,50,60
40840,note_off,,,,,136,0,1,,,,,0,,,71,0
40840,note_off,,,,,136,0,5,,,,,4,,,65,0
40840,note_off,,,,,136,0,6,,,,,5,,,62,0
40840,note_off,,,,,136,0,4,,,,,3,,,71,0
40840,note_off,,,,,136,0,2,,,,,1,,,71,0
40896,note_on,,,,,56,0,5,,,,,4,,,65,75
40896,note_on,,,,,56,0,4,,,,,3,,,71,75
40896,note_on,,,,,56,0,2,,,,,1,,,71,60
40896,note_on,,,,,56,0,6,,,,,5,,,62,60
40896,note_on,,,,,56,0,1,,,,,0,,,71,60
40960,note_off,,,,,64,0,2,,,,,1,,,71,0
40960,note_off,,,,,64,0,4,,,,,3,,,71,0
40960,note_off,,,,,64,0,1,,,,,0,,,71,0
41024,note_off,,,,,320,0,8,,,,,7,,,38,0
41024,note_off,,,,,0,0,9,,,,,10,,,71,0
41024,note_off,,,,,320,0,7,,,,,6,,,50,0
41024,note_off,,,,,320,0,10,,,,,11,,,50,0
41024,note_off,,,,,320,0,3,,,,,2,,,50,0
41024,note_off,,,,,320,0,9,,,,,10,,,65,0
41032,note_off,,,,,136,0,5,,,,,4,,,65,0
41032,note_off,,,,,136,0,6,,,,,5,,,62,0
41088,note_on,,,,,0,0,9,,,,,10,,,71,45
41088,note_on,,,,,128,0,1,,,,,0,,,71,60
41088,note_on,,,,,64,0,8,,,,,7,,,43,45
41088,note_on,,,,,128,0,4,,,,,3,,,71,75
41088,note_on,,,,,128,0,2,,,,,1,,,71,60
41088,note_on,,,,,64,0,3,,,,,2,,,55,60
41088,note_on,,,,,64,0,10,,,,,11,,,55,45
41088,note_on,,,,,64,0,9,,,,,10,,,62,45
41088,note_on,,,,,0,0,9,,,,,10,,,67,45
41088,note_on,,,,,56,0,6,,,,,5,,,62,60
41088,note_on,,,,,56,0,5,,,,,4,,,65,75
41088,note_on,,,,,64,0,7,,,,,6,,,55,60
41184,note_on,,,,,0,0,1,,,,,0,,,74,60
41184,note_off,,,,,96,0,1,,,,,0,,,71,0
41184,note_off,,,,,96,0,2,,,,,1,,,71,0
41184,note_off,,,,,96,0,4,,,,,3,,,71,0
41184,note_on,,,,,0,0,2,,,,,1,,,74,60
41184,note_on,,,,,0,0,4,,,,,3,,,74,75
41224,note_off,,,,,136,0,5,,,,,4,,,65,0
41224,note_off,,,,,136,0,6,,,,,5,,,62,0
41280,note_on,,,,,56,0,5,,,,,4,,,65,75
41280,note_on,,,,,0,0,4,,,,,3,,,72,75
41280,note_on,,,,,0,0,1,,,,,0,,,72,60
41280,note_off,,,,,96,0,2,,,,,1,,,74,0
41280,note_on,,,,,56,0,6,,,,,5,,,62,60
41280,note_on,,,,,0,0,2,,,,,1,,,72,60
41280,note_off,,,,,96,0,1,,,,,0,,,74,0
41280,note_off,,,,,96,0,4,,,,,3,,,74,0
41344,note_off,,,,,64,0,5,,,,,4,,,65,0
41344,note_off,,,,,64,0,6,,,,,5,,,62,0
41376,note_on,,,,,0,0,1,,,,,0,,,71,60
41376,note_off,,,,,96,0,2,,,,,1,,,72,0
41376,note_off,,,,,96,0,1,,,,,0,,,72,0
41376,note_on,,,,,0,0,4,,,,,3,,,71,75
41376,note_off,,,,,96,0,4,,,,,3,,,72,0
41376,note_on,,,,,0,0,2,,,,,1,,,71,60
41408,note_off,,,,,320,0,8,,,,,7,,,43,0
41408,note_off,,,,,0,0,9,,,,,10,,,71,0
41408,note_off,,,,,0,0,9,,,,,10,,,67,0
41408,note_off,,,,,320,0,9,,,,,10,,,62,0
41408,note_off,,,,,320,0,7,,,,,6,,,55,0
41408,note_off,,,,,320,0,10,,,,,11,,,55,0
41408,note_off,,,,,320,0,3,,,,,2,,,55,0
41468,note_off,,,,,92,0,4,,,,,3,,,71,0
41468,note_off,,,,,92,0,2,,,,,1,,,71,0
41468,note_off,,,,,92,0,1,,,,,0,,,71,0
41472,note_on,,,,,128,0,5,,,,,4,,,64,75
41472,note_on,,,,,4,0,2,,,,,1,,,72,60
41472,note_on,,,,,128,0,6,,,,,5,,,60,60
41472,note_on,,,,,4,0,4,,,,,3,,,72,75
41472,note_on,,,,,4,0,1,,,,,0,,,72,60
41608,note_off,,,,,136,0,4,,,,,3,,,72,0
41608,note_off,,,,,136,0,1,,,,,0,,,72,0
41608,note_off,,,,,136,0,5,,,,,4,,,64,0
41608,note_off,,,,,136,0,6,,,,,5,,,60,0
41608,note_off,,,,,136,0,2,,,,,1,,,72,0
41664,note_on,,,,,56,0,1,,,,,0,,,72,60
41664,note_on,,,,,56,0,6,,,,,5,,,60,60
41664,note_on,,,,,56,0,2,,,,,1,,,72,60
41664,note_on,,,,,56,0,4,,,,,3,,,72,75
41664,note_on,,,,,56,0,5,,,,,4,,,64,75
41800,note_off,,,,,136,0,1,,,,,0,,,72,0
41800,note_off,,,,,136,0,5,,,,,4,,,64,0
41800,note_off,,,,,136,0,6,,,,,5,,,60,0
41800,note_off,,,,,136,0,2,,,,,1,,,72,0
41800,note_off,,,,,136,0,4,,,,,3,,,72,0
41856,note_on,,,,,448,0,3,,,,,2,,,52,60
41856,note_on,,,,,0,0,9,,,,,10,,,72,45
41856,note_on,,,,,0,0,9,,,,,10,,,67,45
41856,note_on,,,,,448,0,9,,,,,10,,,64,45
41856,note_on,,,,,56,0,1,,,,,0,,,72,60
41856,note_on,,,,,448,0,7,,,,,6,,,52,60
41856,note_on,,,,,56,0,4,,,,,3,,,72,75
41856,note_on,,,,,448,0,8,,,,,7,,,40,45
41856,note_on,,,,,56,0,5,,,,,4,,,67,75
41856,note_on,,,,,448,0,10,,,,,11,,,52,45
41856,note_on,,,,,56,0,2,,,,,1,,,72,60
41856,note_on,,,,,56,0,6,,,,,5,,,60,60
41992,note_off,,,,,136,0,2,,,,,1,,,72,0
41992,note_off,,,,,136,0,4,,,,,3,,,72,0
41992,note_off,,,,,136,0,5,,,,,4,,,67,0
41992,note_off,,,,,136,0,1,,,,,0,,,72,0
41992,note_off,,,,,136,0,6,,,,,5,,,60,0
42048,note_on,,,,,56,0,1,,,,,0,,,72,60
42048,note_on,,,,,56,0,2,,,,,1,,,72,60
42048,note_on,,,,,56,0,5,,,,,4,,,67,75
42048,note_on,,,,,56,0,4,,,,,3,,,72,75
42048,note_on,,,,,56,0,6,,,,,5,,,60,60
42112,note_off,,,,,64,0,2,,,,,1,,,72,0
42112,note_off,,,,,64,0,1,,,,,0,,,72,0
42112,note_off,,,,,64,0,4,,,,,3,,,72,0
42176,note_off,,,,,320,0,7,,,,,6,,,52,0
42176,note_off,,,,,320,0,3,,,,,2,,,52,0
42176,note_off,,,,,320,0,9,,,,,10,,,64,0
42176,note_off,,,,,320,0,8,,,,,7,,,40,0
42176,note_off,,,,,320,0,10,,,,,11,,,52,0
42176,note_off,,,,,0,0,9,,,,,10,,,72,0
42176,note_off,,,,,0,0,9,,,,,10,,,67,0
42184,note_off,,,,,136,0,6,,,,,5,,,60,0
42184,note_off,,,,,136,0,5,,,,,4,,,67,0
42240,note_on,,,,,0,0,9,,,,,10,,,67,45
42240,note_on,,,,,64,0,3,,,,,2,,,60,60
42240,note_on,,,,,128,0,2,,,,,1,,,72,60
42240,note_on,,,,,64,0,9,,,,,10,,,64,45
42240,note_on,,,,,128,0,4,,,,,3,,,72,75
42240,note_on,,,,,56,0,6,,,,,5,,,64,60
42240,note_on,,,,,64,0,10,,,,,11,,,60,45
42240,note_on,,,,,128,0,1,,,,,0,,,72,60
42240,note_on,,,,,64,0,7,,,,,6,,,60,60
42240,note_on,,,,,56,0,5,,,,,4,,,67,75
42240,note_on,,,,,64,0,8,,,,,7,,,48,45
42336,note_on,,,,,0,0,1,,,,,0,,,76,60
42336,note_off,,,,,96,0,1,,,,,0,,,72,0
42336,note_off,,,,,96,0,2,,,,,1,,,72,0
42336,note_on,,,,,0,0,2,,,,,1,,,76,60
42336,note_off,,,,,96,0,4,,,,,3,,,72,0
42336,note_on,,,,,0,0,4,,,,,3,,,76,75
42376,note_off,,,,,136,0,6,,,,,5,,,64,0
42376,note_off,,,,,136,0,5,,,,,4,,,67,0
42432,note_on,,,,,56,0,5,,,,,4,,,67,75
42432,note_off,,,,,96,0,4,,,,,3,,,76,0
42432,note_on,,,,,0,0,1,,,,,0,,,74,60
42432,note_on,,,,,0,0,4,,,,,3,,,74,75
42432,note_on,,,,,56,0,6,,,,,5,,,64,60
42432,note_off,,,,,96,0,2,,,,,1,,,76,0
42432,note_on,,,,,0,0,2,,,,,1,,,74,60
42432,note_off,,,,,96,0,1,,,,,0,,,76,0
42496,note_off,,,,,64,0,6,,,,,5,,,64,0
42496,note_off,,,,,64,0,5,,,,,4,,,67,0
42528,note_off,,,,,96,0,4,,,,,3,,,74,0
42528,note_on,,,,,0,0,4,,,,,3,,,72,75
42528,note_off,,,,,96,0,1,,,,,0,,,74,0
42528,note_on,,,,,0,0,1,,,,,0,,,72,60
42528,note_off,,,,,96,0,2,,,,,1,,,74,0
42528,note_on,,,,,0,0,2,,,,,1,,,72,60
42560,note_off,,,,,0,0,9,,,,,10,,,67,0
42560,note_off,,,,,320,0,8,,,,,7,,,48,0
42560,note_off,,,,,320,0,10,,,,,11,,,60,0
42560,note_off,,,,,320,0,3,,,,,2,,,60,0
42560,note_off,,,,,320,0,7,,,,,6,,,60,0
42560,note_off,,,,,320,0,9,,,,,10,,,64,0
42620,note_off,,,,,92,0,4,,,,,3,,,72,0
42620,note_off,,,,,92,0,1,,,,,0,,,72,0
42620,note_off,,,,,92,0,2,,,,,1,,,72,0
42624,note_on,,,,,128,0,6,,,,,5,,,67,60
42624,note_on,,,,,4,0,1,,,,,0,,,74,60
42624,note_on,,,,,4,0,2,,,,,1,,,74,60
42624,note_on,,,,,128,0,5,,,,,4,,,71,75
42624,note_on,,,,,4,0,4,,,,,3,,,74,75
42760,note_off,,,,,136,0,6,,,,,5,,,67,0
42760,note_off,,,,,136,0,2,,,,,1,,,74,0
42760,note_off,,,,,136,0,5,,,,,4,,,71,0
42760,note_off,,,,,136,0,4,,,,,3,,,74,0
42760,note_off,,,,,136,0,1,,,,,0,,,74,0
42816,note_on,,,,,56,0,2,,,,,1,,,74,60
42816,note_on,,,,,56,0,4,,,,,3,,,74,75
42816,note_on,,,,,56,0,6,,,,,5,,,67,60
42816,note_on,,,,,56,0,1,,,,,0,,,74,60
42816,note_on,,,,,56,0,5,,,,,4,,,71,75
42952,note_off,,,,,136,0,1,,,,,0,,,74,0
42952,note_off,,,,,136,0,5,,,,,4,,,71,0
42952,note_off,,,,,136,0,4,,,,,3,,,74,0
42952,note_off,,,,,136,0,2,,,,,1,,,74,0
42952,note_off,,,,,136,0,6,,,,,5,,,67,0
43008,note_on,,,,,56,0,5,,,,,4,,,71,75
43008,note_on,,,,,448,0,7,,,,,6,,,47,60
43008,note_on,,,,,56,0,1,,,,,0,,,74,60
43008,note_on,,,,,0,0,9,,,,,10,,,74,45
43008,note_on,,,,,0,0,9,,,,,10,,,67,45
43008,note_on,,,,,448,0,9,,,,,10,,,62,45
43008,note_on,,,,,56,0,2,,,,,1,,,74,60
43008,note_on,,,,,56,0,6,,,,,5,,,67,60
43008,note_on,,,,,448,0,3,,,,,2,,,47,60
43008,note_on,,,,,448,0,10,,,,,11,,,47,45
43008,note_on,,,,,56,0,4,,,,,3,,,74,75
43008,note_on,,,,,448,0,8,,,,,7,,,35,45
43144,note_off,,,,,136,0,6,,,,,5,,,67,0
43144,note_off,,,,,136,0,4,,,,,3,,,74,0
43144,note_off,,,,,136,0,2,,,,,1,,,74,0
43144,note_off,,,,,136,0,1,,,,,0,,,74,0
43144,note_off,,,,,136,0,5,,,,,4,,,71,0
43200,note_on,,,,,56,0,4,,,,,3,,,74,75
43200,note_on,,,,,56,0,2,,,,,1,,,74,60
43200,note_on,,,,,56,0,5,,,,,4,,,71,75
43200,note_on,,,,,56,0,1,,,,,0,,,74,60
43200,note_on,,,,,56,0,6,,,,,5,,,67,60
43264,note_off,,,,,64,0,2,,,,,1,,,74,0
43264,note_off,,,,,64,0,4,,,,,3,,,74,0
43264,note_off,,,,,64,0,1,,,,,0,,,74,0
43264,note_off,,,,,64,0,5,,,,,4,,,71,0
43328,note_off,,,,,320,0,7,,,,,6,,,47,0
43328,note_off,,,,,320,0,9,,,,,10,,,62,0
43328,note_off,,,,,320,0,8,,,,,7,,,35,0
43328,note_off,,,,,320,0,3,,,,,2,,,47,0
43328,note_off,,,,,0,0,9,,,,,10,,,74,0
43328,note_off,,,,,320,0,10,,,,,11,,,47,0
43328,note_off,,,,,0,0,9,,,,,10,,,67,0
43336,note_off,,,,,136,0,6,,,,,5,,,67,0
43392,note_on,,,,,56,0,6,,,,,5,,,67,60
43392,note_on,,,,,64,0,3,,,,,2,,,55,60
43392,note_on,,,,,128,0,1,,,,,0,,,74,60
43392,note_on,,,,,128,0,4,,,,,3,,,74,75
43392,note_on,,,,,64,0,8,,,,,7,,,43,45
43392,note_on,,,,,0,0,9,,,,,10,,,71,45
43392,note_on,,,,,64,0,7,,,,,6,,,55,60
43392,note_on,,,,,128,0,5,,,,,4,,,71,75
43392,note_on,,,,,64,0,9,,,,,10,,,62,45
43392,note_on,,,,,64,0,10,,,,,11,,,55,45
43392,note_on,,,,,128,0,2,,,,,1,,,74,60
43392,note_on,,,,,0,0,9,,,,,10,,,67,45
43488,note_off,,,,,96,0,2,,,,,1,,,74,0
43488,note_on,,,,,0,0,2,,,,,1,,,77,60
43488,note_off,,,,,96,0,1,,,,,0,,,74,0
43488,note_on,,,,,0,0,4,,,,,3,,,77,75
43488,note_off,,,,,96,0,4,,,,,3,,,74,0
43488,note_on,,,,,0,0,5,,,,,4,,,74,75
43488,note_off,,,,,96,0,5,,,,,4,,,71,0
43488,note_on,,,,,0,0,1,,,,,0,,,77,60
43528,note_off,,,,,136,0,6,,,,,5,,,67,0
43584,note_off,,,,,96,0,1,,,,,0,,,77,0
43584,note_on,,,,,0,0,1,,,,,0,,,76,60
43584,note_off,,,,,96,0,5,,,,,4,,,74,0
43584,note_on,,,,,0,0,5,,,,,4,,,72,75
43584,note_off,,,,,96,0,4,,,,,3,,,77,0
43584,note_on,,,,,0,0,2,,,,,1,,,76,60
43584,note_on,,,,,56,0,6,,,,,5,,,67,60
43584,note_on,,,,,0,0,4,,,,,3,,,76,75
43584,note_off,,,,,96,0,2,,,,,1,,,77,0
43648,note_off,,,,,64,0,6,,,,,5,,,67,0
43680,note_off,,,,,96,0,2,,,,,1,,,76,0
43680,note_off,,,,,96,0,5,,,,,4,,,72,0
43680,note_on,,,,,0,0,2,,,,,1,,,74,60
43680,note_off,,,,,96,0,1,,,,,0,,,76,0
43680,note_on,,,,,0,0,5,,,,,4,,,71,75
43680,note_off,,,,,96,0,4,,,,,3,,,76,0
43680,note_on,,,,,0,0,4,,,,,3,,,74,75
43680,note_on,,,,,0,0,1,,,,,0,,,74,60
43712,note_off,,,,,320,0,10,,,,,11,,,55,0
43712,note_off,,,,,0,0,9,,,,,10,,,67,0
43712,note_off,,,,,320,0,7,,,,,6,,,55,0
43712,note_off,,,,,320,0,3,,,,,2,,,55,0
43712,note_off,,,,,320,0,8,,,,,7,,,43,0
43712,note_off,,,,,320,0,9,,,,,10,,,62,0
43712,note_off,,,,,0,0,9,,,,,10,,,71,0
43772,note_off,,,,,92,0,4,,,,,3,,,74,0
43772,note_off,,,,,92,0,1,,,,,0,,,74,0
43772,note_off,,,,,92,0,5,,,,,4,,,71,0
43772,note_off,,,,,92,0,2,,,,,1,,,74,0
43776,note_on,,,,,64,0,10,,,,,11,,,48,45
43776,note_on,,,,,4,0,5,,,,,4,,,72,75
43776,note_on,,,,,0,0,9,,,,,10,,,72,45
43776,note_on,,,,,64,0,8,,,,,7,,,36,45
43776,note_on,,,,,0,0,9,,,,,10,,,67,45
43776,note_on,,,,,64,0,9,,,,,10,,,64,45
43776,note_on,,,,,64,0,3,,,,,2,,,48,60
43776,note_on,,,,,4,0,1,,,,,0,,,76,60
43776,note_on,,,,,64,0,7,,,,,6,,,48,60
43776,note_on,,,,,4,0,4,,,,,3,,,76,75
43776,note_on,,,,,4,0,2,,,,,1,,,76,60
43776,note_on,,,,,128,0,6,,,,,5,,,67,60
43964,note_off,,,,,188,0,4,,,,,3,,,76,0
43964,note_off,,,,,188,0,1,,,,,0,,,76,0
43964,note_off,,,,,188,0,2,,,,,1,,,76,0
43964,note_off,,,,,188,0,6,,,,,5,,,67,0
43964,note_off,,,,,188,0,5,,,,,4,,,72,0
43968,note_on,,,,,4,0,4,,,,,3,,,72,75
43968,note_on,,,,,4,0,2,,,,,1,,,72,60
43968,note_on,,,,,4,0,5,,,,,4,,,67,75
43968,note_on,,,,,4,0,1,,,,,0,,,72,60
43968,note_on,,,,,4,0,6,,,,,5,,,64,60
44156,note_off,,,,,188,0,6,,,,,5,,,64,0
44156,note_off,,,,,188,0,1,,,,,0,,,72,0
44156,note_off,,,,,188,0,4,,,,,3,,,72,0
44156,note_off,,,,,188,0,5,,,,,4,,,67,0
44156,note_off,,,,,188,0,2,,,,,1,,,72,0
44160,note_on,,,,,4,0,2,,,,,1,,,79,60
44160,note_on,,,,,4,0,6,,,,,5,,,60,60
44160,note_on,,,,,4,0,4,,,,,3,,,79,75
44160,note_on,,,,,4,0,1,,,,,0,,,79,60
44160,note_on,,,,,4,0,5,,,,,4,,,64,75
44288,note_off,,,,,512,0,9,,,,,10,,,64,0
44288,note_off,,,,,512,0,3,,,,,2,,,48,0
44288,note_off,,,,,0,0,9,,,,,10,,,67,0
44288,note_off,,,,,512,0,7,,,,,6,,,48,0
44288,note_off,,,,,0,0,9,,,,,10,,,72,0
44288,note_off,,,,,512,0,8,,,,,7,,,36,0
44288,note_off,,,,,512,0,10,,,,,11,,,48,0
44348,note_off,,,,,188,0,6,,,,,5,,,60,0
44348,note_off,,,,,188,0,5,,,,,4,,,64,0
44352,note_on,,,,,0,0,2,,,,,1,,,71,60
44352,note_off,,,,,192,0,2,,,,,1,,,79,0
44352,note_on,,,,,64,0,8,,,,,7,,,38,45
44352,note_on,,,,,4,0,6,,,,,5,,,65,60
44352,note_off,,,,,192,0,1,,,,,0,,,79,0
44352,note_on,,,,,0,0,1,,,,,0,,,71,60
44352,note_on,,,,,64,0,7,,,,,6,,,50,60
44352,note_on,,,,,0,0,9,,,,,10,,,71,45
44352,note_on,,,,,64,0,9,,,,,10,,,65,45
44352,note_on,,,,,0,0,4,,,,,3,,,71,75
44352,note_off,,,,,192,0,4,,,,,3,,,79,0
44352,note_on,,,,,64,0,10,,,,,11,,,50,45
44352,note_on,,,,,64,0,3,,,,,2,,,50,60
44352,note_on,,,,,4,0,5,,,,,4,,,65,75
44540,note_off,,,,,188,0,7,,,,,6,,,50,0
44540,note_off,,,,,188,0,2,,,,,1,,,71,0
44540,note_off,,,,,188,0,4,,,,,3,,,71,0
44540,note_off,,,,,188,0,8,,,,,7,,,38,0
44540,note_off,,,,,188,0,3,,,,,2,,,50,0
44540,note_off,,,,,188,0,6,,,,,5,,,65,0
44540,note_off,,,,,188,0,10,,,,,11,,,50,0
44540,note_off,,,,,188,0,1,,,,,0,,,71,0
44540,note_off,,,,,188,0,5,,,,,4,,,65,0
44540,note_off,,,,,188,0,9,,,,,10,,,65,0
44540,note_off,,,,,0,0,9,,,,,10,,,71,0
44544,note_on,,,,,4,0,5,,,,,4,,,67,75
44544,note_on,,,,,4,0,7,,,,,6,,,52,60
44544,note_on,,,,,4,0,2,,,,,1,,,72,60
44544,note_on,,,,,4,0,6,,,,,5,,,64,60
44544,note_on,,,,,4,0,3,,,,,2,,,52,60
44544,note_on,,,,,4,0,10,,,,,11,,,52,45
44544,note_on,,,,,4,0,8,,,,,7,,,40,45
44544,note_on,,,,,4,0,9,,,,,10,,,64,45
44544,note_on,,,,,4,0,1,,,,,0,,,72,60
44544,note_on,,,,,0,0,9,,,,,10,,,67,45
44544,note_on,,,,,4,0,4,,,,,3,,,72,75
44544,note_on,,,,,0,0,9,,,,,10,,,72,45
44736,note_off,,,,,192,0,2,,,,,1,,,72,0
44736,note_on,,,,,0,0,2,,,,,1,,,67,60
44736,note_off,,,,,192,0,1,,,,,0,,,72,0
44736,note_on,,,,,0,0,1,,,,,0,,,67,60
44736,note_on,,,,,0,0,4,,,,,3,,,67,75
44736,note_off,,,,,192,0,4,,,,,3,,,72,0
44864,note_off,,,,,320,0,10,,,,,11,,,52,0
44864,note_off,,,,,320,0,8,,,,,7,,,40,0
44864,note_off,,,,,320,0,5,,,,,4,,,67,0
44864,note_off,,,,,320,0,9,,,,,10,,,64,0
44864,note_off,,,,,0,0,9,,,,,10,,,67,0
44864,note_off,,,,,0,0,9,,,,,10,,,72,0
44864,note_off,,,,,320,0,3,,,,,2,,,52,0
44864,note_off,,,,,320,0,7,,,,,6,,,52,0
44864,note_off,,,,,320,0,6,,,,,5,,,64,0
44924,note_off,,,,,188,0,4,,,,,3,,,67,0
44924,note_off,,,,,188,0,2,,,,,1,,,67,0
44924,note_off,,,,,188,0,1,,,,,0,,,67,0
44928,note_on,,,,,64,0,3,,,,,2,,,53,60
44928,note_on,,,,,64,0,9,,,,,10,,,60,45
44928,note_on,,,,,64,0,5,,,,,4,,,72,75
44928,note_on,,,,,0,0,9,,,,,10,,,65,45
44928,note_on,,,,,4,0,2,,,,,1,,,69,60
44928,note_on,,,,,4,0,4,,,,,3,,,69,75
44928,note_on,,,,,64,0,8,,,,,7,,,41,45
44928,note_on,,,,,64,0,7,,,,,6,,,53,60
44928,note_on,,,,,4,0,1,,,,,0,,,69,60
44928,note_on,,,,,0,0,9,,,,,10,,,69,45
44928,note_on,,,,,64,0,10,,,,,11,,,53,45
44928,note_on,,,,,64,0,6,,,,,5,,,69,60
45116,note_off,,,,,188,0,4,,,,,3,,,69,0
45116,note_off,,,,,188,0,2,,,,,1,,,69,0
45116,note_off,,,,,188,0,1,,,,,0,,,69,0
45120,note_on,,,,,4,0,2,,,,,1,,,77,60
45120,note_on,,,,,4,0,1,,,,,0,,,77,60
45120,note_on,,,,,4,0,4,,,,,3,,,77,75
45248,note_off,,,,,320,0,5,,,,,4,,,72,0
45248,note_off,,,,,320,0,7,,,,,6,,,53,0
45248,note_off,,,,,320,0,8,,,,,7,,,41,0
45248,note_off,,,,,0,0,9,,,,,10,,,69,0
45248,note_off,,,,,0,0,9,,,,,10,,,65,0
45248,note_off,,,,,320,0,9,,,,,10,,,60,0
45248,note_off,,,,,320,0,3,,,,,2,,,53,0
45248,note_off,,,,,320,0,10,,,,,11,,,53,0
45248,note_off,,,,,320,0,6,,,,,5,,,69,0
45308,note_off,,,,,188,0,4,,,,,3,,,77,0
45308,note_off,,,,,188,0,2,,,,,1,,,77,0
45308,note_off,,,,,188,0,1,,,,,0,,,77,0
45312,note_on,,,,,64,0,3,,,,,2,,,55,60
45312,note_on,,,,,64,0,10,,,,,11,,,55,45
45312,note_on,,,,,64,0,6,,,,,5,,,67,60
45312,note_on,,,,,4,0,1,,,,,0,,,76,60
45312,note_on,,,,,64,0,5,,,,,4,,,72,75
45312,note_on,,,,,4,0,4,,,,,3,,,76,75
45312,note_on,,,,,0,0,9,,,,,10,,,64,45
45312,note_on,,,,,0,0,9,,,,,10,,,67,45
45312,note_on,,,,,4,0,2,,,,,1,,,76,60
45312,note_on,,,,,64,0,7,,,,,6,,,55,60
45312,note_on,,,,,64,0,9,,,,,10,,,60,45
45312,note_on,,,,,64,0,8,,,,,7,,,43,45
45632,note_off,,,,,320,0,8,,,,,7,,,43,0
45632,note_off,,,,,320,0,9,,,,,10,,,60,0
45632,note_off,,,,,0,0,9,,,,,10,,,64,0
45632,note_off,,,,,0,0,9,,,,,10,,,67,0
45632,note_off,,,,,320,0,10,,,,,11,,,55,0
45632,note_off,,,,,320,0,2,,,,,1,,,76,0
45632,note_off,,,,,320,0,5,,,,,4,,,72,0
45632,note_off,,,,,320,0,1,,,,,0,,,76,0
45632,note_off,,,,,320,0,3,,,,,2,,,55,0
45632,note_off,,,,,320,0,4,,,,,3,,,76,0
45632,note_off,,,,,320,0,7,,,,,6,,,55,0
45632,note_off,,,,,320,0,6,,,,,5,,,67,0
45696,note_on,,,,,64,0,2,,,,,1,,,76,60
45696,note_on,,,,,64,0,9,,,,,10,,,62,45
45696,note_on,,,,,0,0,9,,,,,10,,,67,45
45696,note_on,,,,,64,0,10,,,,,11,,,43,45
45696,note_on,,,,,0,0,9,,,,,10,,,71,45
45696,note_on,,,,,64,0,6,,,,,5,,,65,60
45696,note_on,,,,,64,0,7,,,,,6,,,43,60
45696,note_on,,,,,64,0,8,,,,,7,,,31,45
45696,note_on,,,,,64,0,4,,,,,3,,,76,75
45696,note_on,,,,,64,0,3,,,,,2,,,43,60
45696,note_on,,,,,64,0,5,,,,,4,,,71,75
45696,note_on,,,,,64,0,1,,,,,0,,,76,60
45740,note_off,,,,,44,0,4,,,,,3,,,76,0
45740,note_off,,,,,44,0,1,,,,,0,,,76,0
45740,note_off,,,,,44,0,2,,,,,1,,,76,0
45744,note_on,,,,,4,0,2,,,,,1,,,74,60
45744,note_on,,,,,4,0,4,,,,,3,,,74,75
45744,note_on,,,,,4,0,1,,,,,0,,,74,60
45788,note_off,,,,,44,0,2,,,,,1,,,74,0
45788,note_off,,,,,44,0,1,,,,,0,,,74,0
45788,note_off,,,,,44,0,4,,,,,3,,,74,0
45792,note_on,,,,,4,0,4,,,,,3,,,76,75
45792,note_on,,,,,4,0,2,,,,,1,,,76,60
45792,note_on,,,,,4,0,1,,,,,0,,,76,60
45836,note_off,,,,,44,0,4,,,,,3,,,76,0
45836,note_off,,,,,44,0,1,,,,,0,,,76,0
45836,note_off,,,,,44,0,2,,,,,1,,,76,0
45840,note_on,,,,,4,0,1,,,,,0,,,74,60
45840,note_on,,,,,4,0,4,,,,,3,,,74,75
45840,note_on,,,,,4,0,2,,,,,1,,,74,60
45884,note_off,,,,,44,0,1,,,,,0,,,74,0
45884,note_off,,,,,44,0,4,,,,,3,,,74,0
45884,note_off,,,,,44,0,2,,,,,1,,,74,0
45888,note_on,,,,,4,0,1,,,,,0,,,76,60
45888,note_on,,,,,4,0,4,,,,,3,,,76,75
45888,note_on,,,,,4,0,2,,,,,1,,,76,60
45932,note_off,,,,,44,0,4,,,,,3,,,76,0
45932,note_off,,,,,44,0,1,,,,,0,,,76,0
45932,note_off,,,,,44,0,2,,,,,1,,,76,0
45936,note_on,,,,,4,0,4,,,,,3,,,74,75
45936,note_on,,,,,4,0,1,,,,,0,,,74,60
45936,note_on,,,,,4,0,2,,,,,1,,,74,60
45980,note_off,,,,,44,0,4,,,,,3,,,74,0
45980,note_off,,,,,44,0,2,,,,,1,,,74,0
45980,note_off,,,,,44,0,1,,,,,0,,,74,0
45984,note_on,,,,,4,0,2,,,,,1,,,72,60
45984,note_on,,,,,4,0,4,,,,,3,,,72,75
45984,note_on,,,,,4,0,1,,,,,0,,,72,60
46016,note_off,,,,,320,0,6,,,,,5,,,65,0
46016,note_off,,,,,320,0,5,,,,,4,,,71,0
46016,note_off,,,,,320,0,10,,,,,11,,,43,0
46016,note_off,,,,,320,0,3,,,,,2,,,43,0
46016,note_off,,,,,0,0,9,,,,,10,,,67,0
46016,note_off,,,,,0,0,9,,,,,10,,,71,0
46016,note_off,,,,,320,0,8,,,,,7,,,31,0
46016,note_off,,,,,320,0,9,,,,,10,,,62,0
46016,note_off,,,,,320,0,7,,,,,6,,,43,0
46076,note_off,,,,,92,0,4,,,,,3,,,72,0
46076,note_off,,,,,92,0,2,,,,,1,,,72,0
46076,note_off,,,,,92,0,1,,,,,0,,,72,0
46080,note_on,,,,,4,0,4,,,,,3,,,72,75
46080,note_on,,,,,64,0,8,,,,,7,,,36,45
46080,note_on,,,,,0,0,9,,,,,10,,,72,45
46080,note_on,,,,,64,0,9,,,,,10,,,64,45
46080,note_on,,,,,64,0,3,,,,,2,,,48,60
46080,note_on,,,,,0,0,9,,,,,10,,,67,45
46080,note_on,,,,,4,0,1,,,,,0,,,72,60
46080,note_on,,,,,64,0,6,,,,,5,,,64,60
46080,note_on,,,,,64,0,10,,,,,11,,,48,45
46080,note_on,,,,,64,0,7,,,,,6,,,48,60
46080,note_on,,,,,4,0,2,,,,,1,,,72,60
46080,note_on,,,,,64,0,5,,,,,4,,,72,75
46400,note_off,,,,,320,0,9,,,,,10,,,64,0
46400,note_off,,,,,320,0,2,,,,,1,,,72,0
46400,note_off,,,,,320,0,4,,,,,3,,,72,0
46400,note_off,,,,,320,0,10,,,,,11,,,48,0
46400,note_off,,,,,320,0,7,,,,,6,,,48,0
46400,note_off,,,,,320,0,3,,,,,2,,,48,0
46400,note_off,,,,,320,0,6,,,,,5,,,64,0
46400,note_off,,,,,320,0,1,,,,,0,,,72,0
46400,note_off,,,,,0,0,9,,,,,10,,,72,0
46400,note_off,,,,,320,0,8,,,,,7,,,36,0
46400,note_off,,,,,320,0,5,,,,,4,,,72,0
46400,note_off,,,,,0,0,9,,,,,10,,,67,0
46464,note_on,,,,,64,0,8,,,,,7,,,40,75
46464,note_on,,,,,0,0,9,,,,,10,,,72,60
46464,note_on,,,,,64,0,7,,,,,6,,,52,92
46464,note_on,,,,,64,0,3,,,,,2,,,52,92
46464,note_on,,,,,64,0,6,,,,,5,,,60,92
46464,note_on,,,,,64,0,5,,,,,4,,,67,108
46464,note_on,,,,,64,0,10,,,,,11,,,52,60
46464,note_on,,,,,64,0,9,,,,,10,,,67,60
46656,note_on,,,,,256,0,1,,,,,0,,,79,92
46656,note_on,,,,,256,0,2,,,,,1,,,79,92
46656,note_on,,,,,256,0,4,,,,,3,,,79,108
46784,note_off,,,,,320,0,3,,,,,2,,,52,0
46784,note_off,,,,,320,0,8,,,,,7,,,40,0
46784,note_off,,,,,320,0,10,,,,,11,,,52,0
46784,note_off,,,,,320,0,5,,,,,4,,,67,0
46784,note_off,,,,,320,0,9,,,,,10,,,67,0
46784,note_off,,,,,0,0,9,,,,,10,,,72,0
46784,note_off,,,,,320,0,6,,,,,5,,,60,0
46784,note_off,,,,,320,0,7,,,,,6,,,52,0
46844,note_off,,,,,188,0,4,,,,,3,,,79,0
46844,note_off,,,,,188,0,2,,,,,1,,,79,0
46844,note_off,,,,,188,0,1,,,,,0,,,79,0
46848,note_on,,,,,64,0,8,,,,,7,,,36,75
46848,note_on,,,,,64,0,5,,,,,4,,,64,108
46848,note_on,,,,,64,0,6,,,,,5,,,64,92
46848,note_on,,,,,64,0,7,,,,,6,,,48,92
46848,note_on,,,,,4,0,1,,,,,0,,,81,92
46848,note_on,,,,,4,0,2,,,,,1,,,81,92
46848,note_on,,,,,0,0,9,,,,,10,,,72,60
46848,note_on,,,,,64,0,10,,,,,11,,,48,60
46848,note_on,,,,,64,0,9,,,,,10,,,64,60
46848,note_on,,,,,4,0,4,,,,,3,,,81,108
46848,note_on,,,,,64,0,3,,,,,2,,,48,92
46848,note_on,,,,,0,0,9,,,,,10,,,67,60
47040,note_off,,,,,192,0,1,,,,,0,,,81,0
47040,note_off,,,,,192,0,4,,,,,3,,,81,0
47040,note_on,,,,,0,0,4,,,,,3,,,79,108
47040,note_off,,,,,192,0,2,,,,,1,,,81,0
47040,note_on,,,,,0,0,2,,,,,1,,,79,92
47040,note_on,,,,,0,0,1,,,,,0,,,79,92
47168,note_off,,,,,0,0,9,,,,,10,,,67,0
47168,note_off,,,,,320,0,9,,,,,10,,,64,0
47168,note_off,,,,,320,0,7,,,,,6,,,48,0
47168,note_off,,,,,320,0,5,,,,,4,,,64,0
47168,note_off,,,,,320,0,6,,,,,5,,,64,0
47168,note_off,,,,,320,0,8,,,,,7,,,36,0
47168,note_off,,,,,320,0,3,,,,,2,,,48,0
47168,note_off,,,,,320,0,10,,,,,11,,,48,0
47168,note_off,,,,,0,0,9,,,,,10,,,72,0
47228,note_off,,,,,188,0,2,,,,,1,,,79,0
47228,note_off,,,,,188,0,4,,,,,3,,,79,0
47228,note_off,,,,,188,0,1,,,,,0,,,79,0
47232,note_on,,,,,4,0,1,,,,,0,,,82,92
47232,note_on,,,,,4,0,2,,,,,1,,,82,92
47232,note_on,,,,,4,0,4,,,,,3,,,82,108
47420,note_off,,,,,188,0,2,,,,,1,,,82,0
47420,note_off,,,,,188,0,4,,,,,3,,,82,0
47420,note_off,,,,,188,0,1,,,,,0,,,82,0
47424,note_on,,,,,4,0,4,,,,,3,,,79,108
47424,note_on,,,,,4,0,2,,,,,1,,,79,92
47424,note_on,,,,,4,0,1,,,,,0,,,79,92
47612,note_off,,,,,188,0,4,,,,,3,,,79,0
47612,note_off,,,,,188,0,1,,,,,0,,,79,0
47612,note_off,,,,,188,0,2,,,,,1,,,79,0
47616,note_on,,,,,448,0,10,,,,,11,,,64,60
47616,note_on,,,,,0,0,9,,,,,10,,,70,60
47616,note_on,,,,,448,0,9,,,,,10,,,67,60
47616,note_on,,,,,448,0,5,,,,,4,,,72,108
47616,note_on,,,,,0,0,9,,,,,10,,,72,60
47616,note_on,,,,,448,0,7,,,,,6,,,64,92
47616,note_on,,,,,448,0,3,,,,,2,,,64,92
47616,note_on,,,,,448,0,8,,,,,7,,,52,75
47616,note_on,,,,,448,0,6,,,,,5,,,67,92
47808,note_on,,,,,196,0,1,,,,,0,,,79,92
47808,note_on,,,,,196,0,4,,,,,3,,,79,108
47808,note_on,,,,,196,0,2,,,,,1,,,79,92
47936,note_off,,,,,320,0,10,,,,,11,,,64,0
47936,note_off,,,,,320,0,9,,,,,10,,,67,0
47936,note_off,,,,,320,0,8,,,,,7,,,52,0
47936,note_off,,,,,320,0,7,,,,,6,,,64,0
47936,note_off,,,,,320,0,6,,,,,5,,,67,0
47936,note_off,,,,,320,0,5,,,,,4,,,72,0
47936,note_off,,,,,0,0,9,,,,,10,,,70,0
47936,note_off,,,,,320,0,3,,,,,2,,,64,0
47936,note_off,,,,,0,0,9,,,,,10,,,72,0
47996,note_off,,,,,188,0,1,,,,,0,,,79,0
47996,note_off,,,,,188,0,2,,,,,1,,,79,0
47996,note_off,,,,,188,0,4,,,,,3,,,79,0
48000,note_on,,,,,64,0,5,,,,,4,,,67,108
48000,note_on,,,,,64,0,7,,,,,6,,,60,92
48000,note_on,,,,,64,0,8,,,,,7,,,48,75
48000,note_on,,,,,0,0,9,,,,,10,,,72,60
48000,note_on,,,,,0,0,9,,,,,10,,,67,60
48000,note_on,,,,,64,0,9,,,,,10,,,64,60
48000,note_on,,,,,64,0,6,,,,,5,,,64,92
48000,note_on,,,,,4,0,4,,,,,3,,,84,108
48000,note_on,,,,,64,0,3,,,,,2,,,60,92
48000,note_on,,,,,4,0,1,,,,,0,,,84,92
48000,note_on,,,,,4,0,2,,,,,1,,,84,92
48000,note_on,,,,,64,0,10,,,,,11,,,60,60
48188,note_off,,,,,188,0,2,,,,,1,,,84,0
48188,note_off,,,,,188,0,1,,,,,0,,,84,0
48188,note_off,,,,,188,0,4,,,,,3,,,84,0
48192,note_on,,,,,4,0,1,,,,,0,,,76,92
48192,note_on,,,,,4,0,2,,,,,1,,,76,92
48192,note_on,,,,,4,0,4,,,,,3,,,76,108
48320,note_off,,,,,320,0,10,,,,,11,,,60,0
48320,note_off,,,,,320,0,7,,,,,6,,,60,0
48320,note_off,,,,,320,0,3,,,,,2,,,60,0
48320,note_off,,,,,320,0,9,,,,,10,,,64,0
48320,note_off,,,,,0,0,9,,,,,10,,,67,0
48320,note_off,,,,,0,0,9,,,,,10,,,72,0
48320,note_off,,,,,320,0,8,,,,,7,,,48,0
48320,note_off,,,,,320,0,6,,,,,5,,,64,0
48320,note_off,,,,,320,0,5,,,,,4,,,67,0
48380,note_off,,,,,188,0,4,,,,,3,,,76,0
48380,note_off,,,,,188,0,2,,,,,1,,,76,0
48380,note_off,,,,,188,0,1,,,,,0,,,76,0
48384,note_on,,,,,4,0,2,,,,,1,,,77,92
48384,note_on,,,,,4,0,1,,,,,0,,,77,92
48384,note_on,,,,,4,0,4,,,,,3,,,77,108
48480,note_off,,,,,96,0,2,,,,,1,,,77,0
48480,note_off,,,,,96,0,1,,,,,0,,,77,0
48480,note_off,,,,,96,0,4,,,,,3,,,77,0
48480,note_on,,,,,0,0,4,,,,,3,,,79,108
48480,note_on,,,,,0,0,1,,,,,0,,,79,92
48480,note_on,,,,,0,0,2,,,,,1,,,79,92
48576,note_on,,,,,0,0,1,,,,,0,,,81,92
48576,note_off,,,,,96,0,1,,,,,0,,,79,0
48576,note_on,,,,,0,0,4,,,,,3,,,81,108
48576,note_off,,,,,96,0,4,,,,,3,,,79,0
48576,note_on,,,,,0,0,2,,,,,1,,,81,92
48576,note_off,,,,,96,0,2,,,,,1,,,79,0
48764,note_off,,,,,188,0,2,,,,,1,,,81,0
48764,note_off,,,,,188,0,1,,,,,0,,,81,0
48764,note_off,,,,,188,0,4,,,,,3,,,81,0
48768,note_on,,,,,448,0,6,,,,,5,,,65,92
48768,note_on,,,,,448,0,8,,,,,7,,,45,75
48768,note_on,,,,,448,0,5,,,,,4,,,72,108
48768,note_on,,,,,448,0,3,,,,,2,,,57,92
48768,note_on,,,,,448,0,7,,,,,6,,,57,92
48768,note_on,,,,,448,0,10,,,,,11,,,57,60
48768,note_on,,,,,448,0,9,,,,,10,,,62,60
48768,note_on,,,,,0,0,9,,,,,10,,,69,60
48768,note_on,,,,,0,0,9,,,,,10,,,74,60
48960,note_on,,,,,196,0,1,,,,,0,,,81,92
48960,note_on,,,,,196,0,4,,,,,3,,,81,108
48960,note_on,,,,,196,0,2,,,,,1,,,81,92
49088,note_off,,,,,320,0,10,,,,,11,,,57,0
49088,note_off,,,,,320,0,9,,,,,10,,,62,0
49088,note_off,,,,,0,0,9,,,,,10,,,69,0
49088,note_off,,,,,0,0,9,,,,,10,,,74,0
49088,note_off,,,,,320,0,5,,,,,4,,,72,0
49088,note_off,,,,,320,0,6,,,,,5,,,65,0
49088,note_off,,,,,320,0,7,,,,,6,,,57,0
49088,note_off,,,,,320,0,8,,,,,7,,,45,0
49088,note_off,,,,,320,0,3,,,,,2,,,57,0
49148,note_off,,,,,188,0,2,,,,,1,,,81,0
49148,note_off,,,,,188,0,1,,,,,0,,,81,0
49148,note_off,,,,,188,0,4,,,,,3,,,81,0
49152,note_on,,,,,64,0,7,,,,,6,,,55,92
49152,note_on,,,,,64,0,5,,,,,4,,,71,108
49152,note_on,,,,,4,0,1,,,,,0,,,83,92
49152,note_on,,,,,64,0,3,,,,,2,,,55,92
49152,note_on,,,,,64,0,8,,,,,7,,,43,75
49152,note_on,,,,,64,0,6,,,,,5,,,67,92
49152,note_on,,,,,4,0,2,,,,,1,,,83,92
49152,note_on,,,,,0,0,9,,,,,10,,,71,60
49152,note_on,,,,,0,0,9,,,,,10,,,67,60
49152,note_on,,,,,64,0,9,,,,,10,,,64,60
49152,note_on,,,,,64,0,10,,,,,11,,,55,60
49152,note_on,,,,,4,0,4,,,,,3,,,83,108
49344,note_off,,,,,192,0,4,,,,,3,,,83,0
49344,note_off,,,,,192,0,1,,,,,0,,,83,0
49344,note_on,,,,,0,0,4,,,,,3,,,81,108
49344,note_on,,,,,0,0,1,,,,,0,,,81,92
49344,note_on,,,,,0,0,2,,,,,1,,,81,92
49344,note_off,,,,,192,0,2,,,,,1,,,83,0
49472,note_off,,,,,320,0,3,,,,,2,,,55,0
49472,note_off,,,,,320,0,5,,,,,4,,,71,0
49472,note_off,,,,,320,0,7,,,,,6,,,55,0
49472,note_off,,,,,320,0,6,,,,,5,,,67,0
49472,note_off,,,,,0,0,9,,,,,10,,,67,0
49472,note_off,,,,,320,0,9,,,,,10,,,64,0
49472,note_off,,,,,320,0,10,,,,,11,,,55,0
49472,note_off,,,,,320,0,8,,,,,7,,,43,0
49472,note_off,,,,,0,0,9,,,,,10,,,71,0
49532,note_off,,,,,188,0,1,,,,,0,,,81,0
49532,note_off,,,,,188,0,4,,,,,3,,,81,0
49532,note_off,,,,,188,0,2,,,,,1,,,81,0
49536,note_on,,,,,4,0,4,,,,,3,,,84,108
49536,note_on,,,,,4,0,2,,,,,1,,,84,92
49536,note_on,,,,,4,0,1,,,,,0,,,84,92
49724,note_off,,,,,188,0,4,,,,,3,,,84,0
49724,note_off,,,,,188,0,2,,,,,1,,,84,0
49724,note_off,,,,,188,0,1,,,,,0,,,84,0
49728,note_on,,,,,4,0,2,,,,,1,,,81,92
49728,note_on,,,,,4,0,1,,,,,0,,,81,92
49728,note_on,,,,,4,0,4,,,,,3,,,81,108
49916,note_off,,,,,188,0,4,,,,,3,,,81,0
49916,note_off,,,,,188,0,2,,,,,1,,,81,0
49916,note_off,,,,,188,0,1,,,,,0,,,81,0
49920,note_on,,,,,448,0,5,,,,,4,,,74,108
49920,note_on,,,,,448,0,7,,,,,6,,,54,92
49920,note_on,,,,,0,0,9,,,,,10,,,69,60
49920,note_on,,,,,0,0,9,,,,,10,,,74,60
49920,note_on,,,,,448,0,10,,,,,11,,,54,60
49920,note_on,,,,,448,0,6,,,,,5,,,69,92
49920,note_on,,,,,448,0,8,,,,,7,,,42,75
49920,note_on,,,,,448,0,3,,,,,2,,,54,92
49920,note_on,,,,,448,0,9,,,,,10,,,62,60
50112,note_on,,,,,196,0,4,,,,,3,,,81,108
50112,note_on,,,,,196,0,1,,,,,0,,,81,92
50112,note_on,,,,,196,0,2,,,,,1,,,81,92
50240,note_off,,,,,320,0,10,,,,,11,,,54,0
50240,note_off,,,,,320,0,3,,,,,2,,,54,0
50240,note_off,,,,,320,0,8,,,,,7,,,42,0
50240,note_off,,,,,320,0,7,,,,,6,,,54,0
50240,note_off,,,,,320,0,5,,,,,4,,,74,0
50240,note_off,,,,,320,0,6,,,,,5,,,69,0
50240,note_off,,,,,0,0,9,,,,,10,,,74,0
50240,note_off,,,,,0,0,9,,,,,10,,,69,0
50240,note_off,,,,,320,0,9,,,,,10,,,62,0
50300,note_off,,,,,188,0,2,,,,,1,,,81,0
50300,note_off,,,,,188,0,4,,,,,3,,,81,0
50300,note_off,,,,,188,0,1,,,,,0,,,81,0
50304,note_on,,,,,64,0,10,,,,,11,,,50,60
50304,note_on,,,,,64,0,7,,,,,6,,,50,92
50304,note_on,,,,,0,0,9,,,,,10,,,66,60
50304,note_on,,,,,64,0,9,,,,,10,,,62,60
50304,note_on,,,,,64,0,3,,,,,2,,,50,92
50304,note_on,,,,,4,0,1,,,,,0,,,86,92
50304,note_on,,,,,64,0,8,,,,,7,,,38,75
50304,note_on,,,,,4,0,4,,,,,3,,,86,108
50304,note_on,,,,,64,0,6,,,,,5,,,66,92
50304,note_on,,,,,4,0,2,,,,,1,,,86,92
50304,note_on,,,,,64,0,5,,,,,4,,,69,108
50304,note_on,,,,,0,0,9,,,,,10,,,69,60
50492,note_off,,,,,188,0,1,,,,,0,,,86,0
50492,note_off,,,,,188,0,2,,,,,1,,,86,0
50492,note_off,,,,,188,0,4,,,,,3,,,86,0
50496,note_on,,,,,4,0,2,,,,,1,,,78,92
50496,note_on,,,,,4,0,4,,,,,3,,,78,108
50496,note_on,,,,,4,0,1,,,,,0,,,78,92
50624,note_off,,,,,320,0,7,,,,,6,,,50,0
50624,note_off,,,,,320,0,9,,,,,10,,,62,0
50624,note_off,,,,,0,0,9,,,,,10,,,66,0
50624,note_off,,,,,320,0,3,,,,,2,,,50,0
50624,note_off,,,,,0,0,9,,,,,10,,,69,0
50624,note_off,,,,,320,0,8,,,,,7,,,38,0
50624,note_off,,,,,320,0,6,,,,,5,,,66,0
50624,note_off,,,,,320,0,10,,,,,11,,,50,0
50624,note_off,,,,,320,0,5,,,,,4,,,69,0
50684,note_off,,,,,188,0,2,,,,,1,,,78,0
50684,note_off,,,,,188,0,4,,,,,3,,,78,0
50684,note_off,,,,,188,0,1,,,,,0,,,78,0
50688,note_on,,,,,4,0,1,,,,,0,,,79,92
50688,note_on,,,,,4,0,2,,,,,1,,,79,92
50688,note_on,,,,,4,0,4,,,,,3,,,79,108
50784,note_off,,,,,96,0,4,,,,,3,,,79,0
50784,note_on,,,,,0,0,4,,,,,3,,,81,108
50784,note_off,,,,,96,0,1,,,,,0,,,79,0
50784,note_on,,,,,0,0,1,,,,,0,,,81,92
50784,note_off,,,,,96,0,2,,,,,1,,,79,0
50784,note_on,,,,,0,0,2,,,,,1,,,81,92
50880,note_on,,,,,0,0,4,,,,,3,,,83,108
50880,note_off,,,,,96,0,4,,,,,3,,,81,0
50880,note_on,,,,,0,0,2,,,,,1,,,83,92
50880,note_on,,,,,0,0,1,,,,,0,,,83,92
50880,note_off,,,,,96,0,1,,,,,0,,,81,0
50880,note_off,,,,,96,0,2,,,,,1,,,81,0
51068,note_off,,,,,188,0,1,,,,,0,,,83,0
51068,note_off,,,,,188,0,4,,,,,3,,,83,0
51068,note_off,,,,,188,0,2,,,,,1,,,83,0
51072,note_on,,,,,448,0,3,,,,,2,,,55,92
51072,note_on,,,,,0,0,9,,,,,10,,,67,60
51072,note_on,,,,,448,0,6,,,,,5,,,62,92
51072,note_on,,,,,448,0,5,,,,,4,,,71,108
51072,note_on,,,,,448,0,10,,,,,11,,,55,60
51072,note_on,,,,,448,0,7,,,,,6,,,55,92
51072,note_on,,,,,0,0,9,,,,,10,,,62,60
51072,note_on,,,,,448,0,9,,,,,10,,,59,60
51072,note_on,,,,,448,0,8,,,,,7,,,43,75
51264,note_on,,,,,196,0,4,,,,,3,,,67,108
51264,note_on,,,,,196,0,1,,,,,0,,,67,92
51264,note_on,,,,,196,0,2,,,,,1,,,67,92
51392,note_off,,,,,320,0,3,,,,,2,,,55,0
51392,note_off,,,,,320,0,10,,,,,11,,,55,0
51392,note_off,,,,,320,0,9,,,,,10,,,59,0
51392,note_off,,,,,0,0,9,,,,,10,,,62,0
51392,note_off,,,,,320,0,8,,,,,7,,,43,0
51392,note_off,,,,,0,0,9,,,,,10,,,67,0
51392,note_off,,,,,320,0,6,,,,,5,,,62,0
51392,note_off,,,,,320,0,5,,,,,4,,,71,0
51392,note_off,,,,,320,0,7,,,,,6,,,55,0
51452,note_off,,,,,188,0,4,,,,,3,,,67,0
51452,note_off,,,,,188,0,2,,,,,1,,,67,0
51452,note_off,,,,,188,0,1,,,,,0,,,67,0
51456,note_on,,,,,64,0,10,,,,,11,,,50,60
51456,note_on,,,,,0,0,9,,,,,10,,,62,60
51456,note_on,,,,,4,0,4,,,,,3,,,69,108
51456,note_on,,,,,64,0,3,,,,,2,,,50,92
51456,note_on,,,,,64,0,5,,,,,4,,,66,108
51456,note_on,,,,,0,0,9,,,,,10,,,66,60
51456,note_on,,,,,64,0,9,,,,,10,,,57,60
51456,note_on,,,,,64,0,6,,,,,5,,,62,92
51456,note_on,,,,,64,0,7,,,,,6,,,50,92
51456,note_on,,,,,64,0,8,,,,,7,,,38,75
51456,note_on,,,,,4,0,2,,,,,1,,,69,92
51456,note_on,,,,,4,0,1,,,,,0,,,69,92
51644,note_off,,,,,188,0,4,,,,,3,,,69,0
51644,note_off,,,,,188,0,1,,,,,0,,,69,0
51644,note_off,,,,,188,0,2,,,,,1,,,69,0
51648,note_on,,,,,4,0,2,,,,,1,,,67,92
51648,note_on,,,,,4,0,4,,,,,3,,,67,108
51648,note_on,,,,,4,0,1,,,,,0,,,67,92
51776,note_off,,,,,320,0,10,,,,,11,,,50,0
51776,note_off,,,,,0,0,9,,,,,10,,,66,0
51776,note_off,,,,,320,0,7,,,,,6,,,50,0
51776,note_off,,,,,0,0,9,,,,,10,,,62,0
51776,note_off,,,,,320,0,9,,,,,10,,,57,0
51776,note_off,,,,,320,0,6,,,,,5,,,62,0
51776,note_off,,,,,320,0,8,,,,,7,,,38,0
51776,note_off,,,,,320,0,5,,,,,4,,,66,0
51776,note_off,,,,,320,0,3,,,,,2,,,50,0
51836,note_off,,,,,188,0,4,,,,,3,,,67,0
51836,note_off,,,,,188,0,1,,,,,0,,,67,0
51836,note_off,,,,,188,0,2,,,,,1,,,67,0
51840,note_on,,,,,4,0,4,,,,,3,,,71,108
51840,note_on,,,,,64,0,8,,,,,7,,,31,75
51840,note_on,,,,,64,0,6,,,,,5,,,62,92
51840,note_on,,,,,64,0,5,,,,,4,,,67,108
51840,note_on,,,,,64,0,7,,,,,6,,,43,92
51840,note_on,,,,,4,0,1,,,,,0,,,71,92
51840,note_on,,,,,64,0,3,,,,,2,,,43,92
51840,note_on,,,,,64,0,10,,,,,11,,,43,60
51840,note_on,,,,,4,0,2,,,,,1,,,71,92
51840,note_on,,,,,0,0,9,,,,,10,,,67,60
51840,note_on,,,,,0,0,9,,,,,10,,,62,60
51840,note_on,,,,,64,0,9,,,,,10,,,59,60
52028,note_off,,,,,188,0,4,,,,,3,,,71,0
52028,note_off,,,,,188,0,1,,,,,0,,,71,0
52028,note_off,,,,,188,0,2,,,,,1,,,71,0
52032,note_on,,,,,4,0,1,,,,,0,,,67,92
52032,note_on,,,,,4,0,2,,,,,1,,,67,92
52032,note_on,,,,,4,0,4,,,,,3,,,67,108
52160,note_off,,,,,320,0,9,,,,,10,,,59,0
52160,note_off,,,,,320,0,7,,,,,6,,,43,0
52160,note_off,,,,,0,0,9,,,,,10,,,62,0
52160,note_off,,,,,320,0,10,,,,,11,,,43,0
52160,note_off,,,,,320,0,3,,,,,2,,,43,0
52160,note_off,,,,,320,0,8,,,,,7,,,31,0
52160,note_off,,,,,320,0,5,,,,,4,,,67,0
52160,note_off,,,,,320,0,6,,,,,5,,,62,0
52220,note_off,,,,,188,0,2,,,,,1,,,67,0
52220,note_off,,,,,188,0,1,,,,,0,,,67,0
52220,note_off,,,,,188,0,4,,,,,3,,,67,0
52224,note_on,,,,,64,0,3,,,,,2,,,45,92
52224,note_on,,,,,64,0,9,,,,,10,,,60,60
52224,note_on,,,,,64,0,5,,,,,4,,,72,108
52224,note_on,,,,,64,0,6,,,,,5,,,65,92
52224,note_on,,,,,64,0,10,,,,,11,,,45,60
52224,note_on,,,,,4,0,1,,,,,0,,,72,92
52224,note_on,,,,,4,0,4,,,,,3,,,72,108
52224,note_on,,,,,4,0,2,,,,,1,,,72,92
52224,note_on,,,,,64,0,7,,,,,6,,,45,92
52224,note_on,,,,,64,0,8,,,,,7,,,33,75
52412,note_off,,,,,188,0,4,,,,,3,,,72,0
52412,note_off,,,,,188,0,1,,,,,0,,,72,0
52412,note_off,,,,,188,0,2,,,,,1,,,72,0
52416,note_on,,,,,4,0,4,,,,,3,,,67,108
52416,note_on,,,,,4,0,2,,,,,1,,,67,92
52416,note_on,,,,,4,0,1,,,,,0,,,67,92
52544,note_off,,,,,320,0,5,,,,,4,,,72,0
52544,note_off,,,,,320,0,6,,,,,5,,,65,0
52544,note_off,,,,,320,0,3,,,,,2,,,45,0
52544,note_off,,,,,320,0,10,,,,,11,,,45,0
52544,note_off,,,,,320,0,9,,,,,10,,,60,0
52544,note_off,,,,,320,0,8,,,,,7,,,33,0
52544,note_off,,,,,320,0,7,,,,,6,,,45,0
52604,note_off,,,,,188,0,4,,,,,3,,,67,0
52604,note_off,,,,,188,0,2,,,,,1,,,67,0
52604,note_off,,,,,188,0,1,,,,,0,,,67,0
52608,note_on,,,,,64,0,3,,,,,2,,,47,92
52608,note_on,,,,,64,0,7,,,,,6,,,47,92
52608,note_on,,,,,64,0,9,,,,,10,,,62,60
52608,note_on,,,,,64,0,5,,,,,4,,,67,108
52608,note_on,,,,,64,0,6,,,,,5,,,65,92
52608,note_on,,,,,4,0,4,,,,,3,,,74,108
52608,note_on,,,,,4,0,2,,,,,1,,,74,92
52608,note_on,,,,,64,0,10,,,,,11,,,47,60
52608,note_on,,,,,64,0,8,,,,,7,,,35,75
52608,note_on,,,,,4,0,1,,,,,0,,,74,92
52796,note_off,,,,,188,0,1,,,,,0,,,74,0
52796,note_off,,,,,188,0,2,,,,,1,,,74,0
52796,note_off,,,,,188,0,4,,,,,3,,,74,0
52800,note_on,,,,,4,0,1,,,,,0,,,67,92
52800,note_on,,,,,4,0,2,,,,,1,,,67,92
52800,note_on,,,,,4,0,4,,,,,3,,,67,108
52928,note_off,,,,,320,0,7,,,,,6,,,47,0
52928,note_off,,,,,320,0,3,,,,,2,,,47,0
52928,note_off,,,,,320,0,9,,,,,10,,,62,0
52928,note_off,,,,,320,0,6,,,,,5,,,65,0
52928,note_off,,,,,320,0,10,,,,,11,,,47,0
52928,note_off,,,,,320,0,8,,,,,7,,,35,0
52928,note_off,,,,,320,0,5,,,,,4,,,67,0
52988,note_off,,,,,188,0,2,,,,,1,,,67,0
52988,note_off,,,,,188,0,4,,,,,3,,,67,0
52988,note_off,,,,,188,0,1,,,,,0,,,67,0
52992,note_on,,,,,64,0,10,,,,,11,,,48,60
52992,note_on,,,,,64,0,5,,,,,4,,,67,108
52992,note_on,,,,,64,0,3,,,,,2,,,48,92
52992,note_on,,,,,64,0,8,,,,,7,,,36,75
52992,note_on,,,,,64,0,6,,,,,5,,,64,92
52992,note_on,,,,,64,0,9,,,,,10,,,64,60
52992,note_on,,,,,64,0,7,,,,,6,,,48,92
52992,note_on,,,,,4,0,1,,,,,0,,,76,92
52992,note_on,,,,,4,0,2,,,,,1,,,76,92
52992,note_on,,,,,4,0,4,,,,,3,,,76,108
53180,note_off,,,,,188,0,2,,,,,1,,,76,0
53180,note_off,,,,,188,0,1,,,,,0,,,76,0
53180,note_off,,,,,188,0,4,,,,,3,,,76,0
53184,note_on,,,,,4,0,2,,,,,1,,,72,92
53184,note_on,,,,,4,0,4,,,,,3,,,72,108
53184,note_on,,,,,4,0,1,,,,,0,,,72,92
53312,note_off,,,,,320,0,6,,,,,5,,,64,0
53312,note_off,,,,,320,0,3,,,,,2,,,48,0
53312,note_off,,,,,320,0,8,,,,,7,,,36,0
53312,note_off,,,,,0,0,9,,,,,10,,,64,0
53312,note_off,,,,,320,0,5,,,,,4,,,67,0
53312,note_off,,,,,320,0,7,,,,,6,,,48,0
53312,note_off,,,,,320,0,9,,,,,10,,,67,0
53312,note_off,,,,,320,0,10,,,,,11,,,48,0
53372,note_off,,,,,188,0,2,,,,,1,,,72,0
53372,note_off,,,,,188,0,1,,,,,0,,,72,0
53372,note_off,,,,,188,0,4,,,,,3,,,72,0
53376,note_on,,,,,64,0,3,,,,,2,,,50,92
53376,note_on,,,,,4,0,4,,,,,3,,,77,108
53376,note_on,,,,,64,0,9,,,,,10,,,65,60
53376,note_on,,,,,64,0,8,,,,,7,,,38,75
53376,note_on,,,,,64,0,7,,,,,6,,,50,92
53376,note_on,,,,,4,0,1,,,,,0,,,77,92
53376,note_on,,,,,64,0,6,,,,,5,,,62,92
53376,note_on,,,,,4,0,2,,,,,1,,,77,92
53376,note_on,,,,,64,0,10,,,,,11,,,50,60
53376,note_on,,,,,0,0,9,,,,,10,,,71,60
53376,note_on,,,,,64,0,5,,,,,4,,,71,108
53564,note_off,,,,,188,0,1,,,,,0,,,77,0
53564,note_off,,,,,188,0,2,,,,,1,,,77,0
53564,note_off,,,,,188,0,4,,,,,3,,,77,0
53568,note_on,,,,,4,0,4,,,,,3,,,72,108
53568,note_on,,,,,4,0,2,,,,,1,,,72,92
53568,note_on,,,,,4,0,1,,,,,0,,,72,92
53696,note_off,,,,,320,0,5,,,,,4,,,71,0
53696,note_off,,,,,320,0,3,,,,,2,,,50,0
53696,note_off,,,,,320,0,10,,,,,11,,,50,0
53696,note_off,,,,,0,0,9,,,,,10,,,71,0
53696,note_off,,,,,320,0,6,,,,,5,,,62,0
53696,note_off,,,,,320,0,7,,,,,6,,,50,0
53696,note_off,,,,,320,0,8,,,,,7,,,38,0
53696,note_off,,,,,320,0,9,,,,,10,,,65,0
53756,note_off,,,,,188,0,4,,,,,3,,,72,0
53756,note_off,,,,,188,0,2,,,,,1,,,72,0
53756,note_off,,,,,188,0,1,,,,,0,,,72,0
53760,note_on,,,,,64,0,10,,,,,11,,,52,60
53760,note_on,,,,,64,0,8,,,,,7,,,40,75
53760,note_on,,,,,64,0,6,,,,,5,,,60,92
53760,note_on,,,,,64,0,5,,,,,4,,,72,108
53760,note_on,,,,,4,0,1,,,,,0,,,79,92
53760,note_on,,,,,0,0,9,,,,,10,,,72,60
53760,note_on,,,,,4,0,4,,,,,3,,,79,108
53760,note_on,,,,,4,0,2,,,,,1,,,79,92
53760,note_on,,,,,64,0,7,,,,,6,,,52,92
53760,note_on,,,,,64,0,9,,,,,10,,,67,60
53760,note_on,,,,,64,0,3,,,,,2,,,52,92
53948,note_off,,,,,188,0,2,,,,,1,,,79,0
53948,note_off,,,,,188,0,4,,,,,3,,,79,0
53948,note_off,,,,,188,0,1,,,,,0,,,79,0
53952,note_on,,,,,4,0,2,,,,,1,,,72,92
53952,note_on,,,,,4,0,4,,,,,3,,,72,108
53952,note_on,,,,,4,0,1,,,,,0,,,72,92
54080,note_off,,,,,320,0,5,,,,,4,,,72,0
54080,note_off,,,,,320,0,7,,,,,6,,,52,0
54080,note_off,,,,,320,0,3,,,,,2,,,52,0
54080,note_off,,,,,320,0,10,,,,,11,,,52,0
54080,note_off,,,,,320,0,9,,,,,10,,,67,0
54080,note_off,,,,,0,0,9,,,,,10,,,72,0
54080,note_off,,,,,320,0,8,,,,,7,,,40,0
54080,note_off,,,,,320,0,6,,,,,5,,,60,0
54140,note_off,,,,,188,0,1,,,,,0,,,72,0
54140,note_off,,,,,188,0,4,,,,,3,,,72,0
54140,note_off,,,,,188,0,2,,,,,1,,,72,0
54144,note_on,,,,,64,0,6,,,,,5,,,65,92
54144,note_on,,,,,64,0,8,,,,,7,,,41,75
54144,note_on,,,,,4,0,2,,,,,1,,,81,92
54144,note_on,,,,,4,0,1,,,,,0,,,81,92
54144,note_on,,,,,0,0,9,,,,,10,,,72,60
54144,note_on,,,,,64,0,10,,,,,11,,,53,60
54144,note_on,,,,,64,0,3,,,,,2,,,53,92
54144,note_on,,,,,64,0,7,,,,,6,,,53,92
54144,note_on,,,,,4,0,4,,,,,3,,,81,108
54144,note_on,,,,,64,0,5,,,,,4,,,72,108
54144,note_on,,,,,64,0,9,,,,,10,,,69,60
54332,note_off,,,,,188,0,1,,,,,0,,,81,0
54332,note_off,,,,,188,0,2,,,,,1,,,81,0
54332,note_off,,,,,188,0,4,,,,,3,,,81,0
54336,note_on,,,,,4,0,1,,,,,0,,,72,92
54336,note_on,,,,,4,0,2,,,,,1,,,72,92
54336,note_on,,,,,4,0,4,,,,,3,,,72,108
54464,note_off,,,,,320,0,3,,,,,2,,,53,0
54464,note_off,,,,,320,0,8,,,,,7,,,41,0
54464,note_off,,,,,320,0,6,,,,,5,,,65,0
54464,note_off,,,,,320,0,10,,,,,11,,,53,0
54464,note_off,,,,,320,0,5,,,,,4,,,72,0
54464,note_off,,,,,320,0,7,,,,,6,,,53,0
54464,note_off,,,,,320,0,9,,,,,10,,,69,0
54524,note_off,,,,,188,0,4,,,,,3,,,72,0
54524,note_off,,,,,188,0,2,,,,,1,,,72,0
54524,note_off,,,,,188,0,1,,,,,0,,,72,0
54528,note_on,,,,,4,0,4,,,,,3,,,79,108
54528,note_on,,,,,64,0,8,,,,,7,,,40,75
54528,note_on,,,,,64,0,5,,,,,4,,,72,108
54528,note_on,,,,,64,0,7,,,,,6,,,52,92
54528,note_on,,,,,64,0,6,,,,,5,,,67,92
54528,note_on,,,,,64,0,10,,,,,11,,,52,60
54528,note_on,,,,,64,0,3,,,,,2,,,52,92
54528,note_on,,,,,4,0,2,,,,,1,,,79,92
54528,note_on,,,,,4,0,1,,,,,0,,,79,92
54528,note_on,,,,,64,0,9,,,,,10,,,67,60
54716,note_off,,,,,188,0,2,,,,,1,,,79,0
54716,note_off,,,,,188,0,1,,,,,0,,,79,0
54716,note_off,,,,,188,0,4,,,,,3,,,79,0
54720,note_on,,,,,4,0,2,,,,,1,,,72,92
54720,note_on,,,,,4,0,1,,,,,0,,,72,92
54720,note_on,,,,,4,0,4,,,,,3,,,72,108
54816,note_off,,,,,288,0,9,,,,,10,,,72,0
54848,note_off,,,,,320,0,5,,,,,4,,,72,0
54848,note_off,,,,,320,0,10,,,,,11,,,52,0
54848,note_off,,,,,320,0,7,,,,,6,,,52,0
54848,note_off,,,,,320,0,8,,,,,7,,,40,0
54848,note_off,,,,,320,0,3,,,,,2,,,52,0
54848,note_off,,,,,320,0,6,,,,,5,,,67,0
54848,note_off,,,,,32,0,9,,,,,10,,,67,0
54908,note_off,,,,,188,0,4,,,,,3,,,72,0
54908,note_off,,,,,188,0,2,,,,,1,,,72,0
54908,note_off,,,,,188,0,1,,,,,0,,,72,0
54912,note_on,,,,,64,0,5,,,,,4,,,71,108
54912,note_on,,,,,4,0,2,,,,,1,,,77,92
54912,note_on,,,,,64,0,9,,,,,10,,,65,60
54912,note_on,,,,,0,0,9,,,,,10,,,71,60
54912,note_on,,,,,64,0,10,,,,,11,,,50,60
54912,note_on,,,,,4,0,4,,,,,3,,,77,108
54912,note_on,,,,,64,0,3,,,,,2,,,50,92
54912,note_on,,,,,64,0,7,,,,,6,,,50,92
54912,note_on,,,,,4,0,1,,,,,0,,,77,92
54912,note_on,,,,,64,0,6,,,,,5,,,62,92
54912,note_on,,,,,64,0,8,,,,,7,,,38,75
54912,note_on,,,,,0,0,9,,,,,10,,,74,60
55100,note_off,,,,,188,0,4,,,,,3,,,77,0
55100,note_off,,,,,188,0,1,,,,,0,,,77,0
55100,note_off,,,,,188,0,2,,,,,1,,,77,0
55104,note_on,,,,,4,0,4,,,,,3,,,72,108
55104,note_on,,,,,4,0,2,,,,,1,,,72,92
55104,note_on,,,,,4,0,1,,,,,0,,,72,92
55232,note_off,,,,,0,0,9,,,,,10,,,71,0
55232,note_off,,,,,320,0,8,,,,,7,,,38,0
55232,note_off,,,,,320,0,6,,,,,5,,,62,0
55232,note_off,,,,,320,0,7,,,,,6,,,50,0
55232,note_off,,,,,320,0,3,,,,,2,,,50,0
55232,note_off,,,,,320,0,10,,,,,11,,,50,0
55232,note_off,,,,,320,0,9,,,,,10,,,65,0
55232,note_off,,,,,320,0,5,,,,,4,,,71,0
55232,note_off,,,,,0,0,9,,,,,10,,,74,0
55292,note_off,,,,,188,0,2,,,,,1,,,72,0
55292,note_off,,,,,188,0,1,,,,,0,,,72,0
55292,note_off,,,,,188,0,4,,,,,3,,,72,0
55296,note_on,,,,,64,0,7,,,,,6,,,48,92
55296,note_on,,,,,4,0,2,,,,,1,,,76,92
55296,note_on,,,,,64,0,10,,,,,11,,,48,60
55296,note_on,,,,,4,0,4,,,,,3,,,76,108
55296,note_on,,,,,0,0,9,,,,,10,,,76,60
55296,note_on,,,,,4,0,1,,,,,0,,,76,92
55296,note_on,,,,,64,0,9,,,,,10,,,67,60
55296,note_on,,,,,64,0,6,,,,,5,,,67,92
55296,note_on,,,,,64,0,5,,,,,4,,,72,108
55296,note_on,,,,,64,0,3,,,,,2,,,48,92
55296,note_on,,,,,64,0,8,,,,,7,,,36,75
55296,note_on,,,,,0,0,9,,,,,10,,,72,60
55484,note_off,,,,,188,0,6,,,,,5,,,67,0
55484,note_off,,,,,188,0,2,,,,,1,,,76,0
55484,note_off,,,,,188,0,4,,,,,3,,,76,0
55484,note_off,,,,,188,0,5,,,,,4,,,72,0
55484,note_off,,,,,188,0,1,,,,,0,,,76,0
55488,note_on,,,,,4,0,4,,,,,3,,,72,108
55488,note_on,,,,,4,0,5,,,,,4,,,67,108
55488,note_on,,,,,4,0,1,,,,,0,,,72,92
55488,note_on,,,,,4,0,2,,,,,1,,,72,92
55488,note_on,,,,,4,0,6,,,,,5,,,64,92
55676,note_off,,,,,188,0,2,,,,,1,,,72,0
55676,note_off,,,,,188,0,4,,,,,3,,,72,0
55676,note_off,,,,,188,0,5,,,,,4,,,67,0
55676,note_off,,,,,188,0,6,,,,,5,,,64,0
55676,note_off,,,,,188,0,1,,,,,0,,,72,0
55680,note_on,,,,,4,0,1,,,,,0,,,79,92
55680,note_on,,,,,4,0,6,,,,,5,,,60,92
55680,note_on,,,,,4,0,4,,,,,3,,,79,108
55680,note_on,,,,,4,0,2,,,,,1,,,79,92
55680,note_on,,,,,4,0,5,,,,,4,,,64,108
55808,note_off,,,,,512,0,9,,,,,10,,,67,0
55808,note_off,,,,,0,0,9,,,,,10,,,72,0
55808,note_off,,,,,0,0,9,,,,,10,,,76,0
55808,note_off,,,,,512,0,3,,,,,2,,,48,0
55808,note_off,,,,,512,0,8,,,,,7,,,36,0
55808,note_off,,,,,512,0,10,,,,,11,,,48,0
55808,note_off,,,,,512,0,7,,,,,6,,,48,0
55868,note_off,,,,,188,0,4,,,,,3,,,79,0
55868,note_off,,,,,188,0,6,,,,,5,,,60,0
55868,note_off,,,,,188,0,5,,,,,4,,,64,0
55868,note_off,,,,,188,0,2,,,,,1,,,79,0
55868,note_off,,,,,188,0,1,,,,,0,,,79,0
55872,note_on,,,,,64,0,3,,,,,2,,,50,92
55872,note_on,,,,,64,0,8,,,,,7,,,38,75
55872,note_on,,,,,4,0,2,,,,,1,,,71,92
55872,note_on,,,,,64,0,7,,,,,6,,,50,92
55872,note_on,,,,,64,0,9,,,,,10,,,65,60
55872,note_on,,,,,4,0,6,,,,,5,,,65,92
55872,note_on,,,,,0,0,9,,,,,10,,,74,60
55872,note_on,,,,,0,0,9,,,,,10,,,71,60
55872,note_on,,,,,4,0,4,,,,,3,,,71,108
55872,note_on,,,,,4,0,1,,,,,0,,,71,92
55872,note_on,,,,,64,0,10,,,,,11,,,50,60
55872,note_on,,,,,4,0,5,,,,,4,,,65,108
56060,note_off,,,,,188,0,7,,,,,6,,,50,0
56060,note_off,,,,,188,0,5,,,,,4,,,65,0
56060,note_off,,,,,188,0,10,,,,,11,,,50,0
56060,note_off,,,,,188,0,1,,,,,0,,,71,0
56060,note_off,,,,,0,0,9,,,,,10,,,74,0
56060,note_off,,,,,0,0,9,,,,,10,,,71,0
56060,note_off,,,,,188,0,4,,,,,3,,,71,0
56060,note_off,,,,,188,0,8,,,,,7,,,38,0
56060,note_off,,,,,188,0,6,,,,,5,,,65,0
56060,note_off,,,,,188,0,9,,,,,10,,,65,0
56060,note_off,,,,,188,0,2,,,,,1,,,71,0
56060,note_off,,,,,188,0,3,,,,,2,,,50,0
56064,note_on,,,,,4,0,7,,,,,6,,,52,92
56064,note_on,,,,,4,0,4,,,,,3,,,72,108
56064,note_on,,,,,4,0,1,,,,,0,,,72,92
56064,note_on,,,,,4,0,6,,,,,5,,,64,92
56064,note_on,,,,,4,0,8,,,,,7,,,40,75
56064,note_on,,,,,0,0,9,,,,,10,,,72,60
56064,note_on,,,,,4,0,5,,,,,4,,,67,108
56064,note_on,,,,,4,0,9,,,,,10,,,67,60
56064,note_on,,,,,4,0,2,,,,,1,,,72,92
56064,note_on,,,,,4,0,3,,,,,2,,,52,92
56064,note_on,,,,,4,0,10,,,,,11,,,52,60
56252,note_off,,,,,188,0,4,,,,,3,,,72,0
56252,note_off,,,,,188,0,1,,,,,0,,,72,0
56252,note_off,,,,,188,0,2,,,,,1,,,72,0
56256,note_on,,,,,4,0,4,,,,,3,,,67,108
56256,note_on,,,,,4,0,2,,,,,1,,,67,92
56256,note_on,,,,,4,0,1,,,,,0,,,67,92
56384,note_off,,,,,320,0,3,,,,,2,,,52,0
56384,note_off,,,,,320,0,5,,,,,4,,,67,0
56384,note_off,,,,,320,0,7,,,,,6,,,52,0
56384,note_off,,,,,0,0,9,,,,,10,,,72,0
56384,note_off,,,,,320,0,9,,,,,10,,,67,0
56384,note_off,,,,,320,0,8,,,,,7,,,40,0
56384,note_off,,,,,320,0,6,,,,,5,,,64,0
56384,note_off,,,,,320,0,10,,,,,11,,,52,0
56444,note_off,,,,,188,0,1,,,,,0,,,67,0
56444,note_off,,,,,188,0,2,,,,,1,,,67,0
56444,note_off,,,,,188,0,4,,,,,3,,,67,0
56448,note_on,,,,,64,0,8,,,,,7,,,41,75
56448,note_on,,,,,4,0,4,,,,,3,,,69,108
56448,note_on,,,,,64,0,10,,,,,11,,,53,60
56448,note_on,,,,,0,0,9,,,,,10,,,72,60
56448,note_on,,,,,0,0,9,,,,,10,,,69,60
56448,note_on,,,,,4,0,1,,,,,0,,,69,92
56448,note_on,,,,,64,0,5,,,,,4,,,72,108
56448,note_on,,,,,4,0,2,,,,,1,,,69,92
56448,note_on,,,,,64,0,9,,,,,10,,,65,60
56448,note_on,,,,,64,0,7,,,,,6,,,53,92
56448,note_on,,,,,64,0,6,,,,,5,,,69,92
56448,note_on,,,,,64,0,3,,,,,2,,,53,92
56636,note_off,,,,,188,0,1,,,,,0,,,69,0
56636,note_off,,,,,188,0,4,,,,,3,,,69,0
56636,note_off,,,,,188,0,2,,,,,1,,,69,0
56640,note_on,,,,,4,0,2,,,,,1,,,77,92
56640,note_on,,,,,4,0,4,,,,,3,,,77,108
56640,note_on,,,,,4,0,1,,,,,0,,,77,92
56768,note_off,,,,,320,0,10,,,,,11,,,53,0
56768,note_off,,,,,320,0,9,,,,,10,,,65,0
56768,note_off,,,,,0,0,9,,,,,10,,,69,0
56768,note_off,,,,,320,0,6,,,,,5,,,69,0
56768,note_off,,,,,0,0,9,,,,,10,,,72,0
56768,note_off,,,,,320,0,8,,,,,7,,,41,0
56768,note_off,,,,,320,0,3,,,,,2,,,53,0
56768,note_off,,,,,320,0,7,,,,,6,,,53,0
56768,note_off,,,,,320,0,5,,,,,4,,,72,0
56828,note_off,,,,,188,0,1,,,,,0,,,77,0
56828,note_off,,,,,188,0,2,,,,,1,,,77,0
56828,note_off,,,,,188,0,4,,,,,3,,,77,0
56832,note_on,,,,,64,0,7,,,,,6,,,55,92
56832,note_on,,,,,4,0,2,,,,,1,,,76,92
56832,note_on,,,,,64,0,3,,,,,2,,,55,92
56832,note_on,,,,,64,0,8,,,,,7,,,43,75
56832,note_on,,,,,4,0,1,,,,,0,,,76,92
56832,note_on,,,,,64,0,10,,,,,11,,,55,60
56832,note_on,,,,,64,0,5,,,,,4,,,72,108
56832,note_on,,,,,64,0,9,,,,,10,,,64,60
56832,note_on,,,,,0,0,9,,,,,10,,,72,60
56832,note_on,,,,,0,0,9,,,,,10,,,67,60
56832,note_on,,,,,64,0,6,,,,,5,,,67,92
56832,note_on,,,,,4,0,4,,,,,3,,,76,108
57152,note_off,,,,,320,0,5,,,,,4,,,72,0
57152,note_off,,,,,320,0,8,,,,,7,,,43,0
57152,note_off,,,,,0,0,9,,,,,10,,,72,0
57152,note_off,,,,,320,0,10,,,,,11,,,55,0
57152,note_off,,,,,0,0,9,,,,,10,,,67,0
57152,note_off,,,,,320,0,9,,,,,10,,,64,0
57152,note_off,,,,,320,0,7,,,,,6,,,55,0
57152,note_off,,,,,320,0,1,,,,,0,,,76,0
57152,note_off,,,,,320,0,3,,,,,2,,,55,0
57152,note_off,,,,,320,0,6,,,,,5,,,67,0
57152,note_off,,,,,320,0,4,,,,,3,,,76,0
57152,note_off,,,,,320,0,2,,,,,1,,,76,0
57216,note_on,,,,,64,0,10,,,,,11,,,43,60
57216,note_on,,,,,64,0,5,,,,,4,,,71,108
57216,note_on,,,,,64,0,7,,,,,6,,,43,92
57216,note_on,,,,,64,0,3,,,,,2,,,43,92
57216,note_on,,,,,64,0,6,,,,,5,,,65,92
57216,note_on,,,,,64,0,9,,,,,10,,,62,60
57216,note_on,,,,,0,0,9,,,,,10,,,71,60
57216,note_on,,,,,0,0,9,,,,,10,,,67,60
57216,note_on,,,,,64,0,2,,,,,1,,,76,92
57216,note_on,,,,,64,0,4,,,,,3,,,76,108
57216,note_on,,,,,64,0,8,,,,,7,,,31,75
57216,note_on,,,,,64,0,1,,,,,0,,,76,92
57260,note_off,,,,,44,0,4,,,,,3,,,76,0
57260,note_off,,,,,44,0,1,,,,,0,,,76,0
57260,note_off,,,,,44,0,2,,,,,1,,,76,0
57264,note_on,,,,,4,0,2,,,,,1,,,74,92
57264,note_on,,,,,4,0,4,,,,,3,,,74,108
57264,note_on,,,,,4,0,1,,,,,0,,,74,92
57308,note_off,,,,,44,0,2,,,,,1,,,74,0
57308,note_off,,,,,44,0,4,,,,,3,,,74,0
57308,note_off,,,,,44,0,1,,,,,0,,,74,0
57312,note_on,,,,,4,0,1,,,,,0,,,76,92
57312,note_on,,,,,4,0,2,,,,,1,,,76,92
57312,note_on,,,,,4,0,4,,,,,3,,,76,108
57356,note_off,,,,,44,0,2,,,,,1,,,76,0
57356,note_off,,,,,44,0,1,,,,,0,,,76,0
57356,note_off,,,,,44,0,4,,,,,3,,,76,0
57360,note_on,,,,,4,0,1,,,,,0,,,74,92
57360,note_on,,,,,4,0,2,,,,,1,,,74,92
57360,note_on,,,,,4,0,4,,,,,3,,,74,108
57404,note_off,,,,,44,0,1,,,,,0,,,74,0
57404,note_off,,,,,44,0,2,,,,,1,,,74,0
57404,note_off,,,,,44,0,4,,,,,3,,,74,0
57408,note_on,,,,,4,0,1,,,,,0,,,76,92
57408,note_on,,,,,4,0,4,,,,,3,,,76,108
57408,note_on,,,,,4,0,2,,,,,1,,,76,92
57452,note_off,,,,,44,0,1,,,,,0,,,76,0
57452,note_off,,,,,44,0,2,,,,,1,,,76,0
57452,note_off,,,,,44,0,4,,,,,3,,,76,0
57456,note_on,,,,,4,0,2,,,,,1,,,74,92
57456,note_on,,,,,4,0,1,,,,,0,,,74,92
57456,note_on,,,,,4,0,4,,,,,3,,,74,108
57500,note_off,,,,,44,0,4,,,,,3,,,74,0
57500,note_off,,,,,44,0,1,,,,,0,,,74,0
57500,note_off,,,,,44,0,2,,,,,1,,,74,0
57504,note_on,,,,,4,0,1,,,,,0,,,72,92
57504,note_on,,,,,4,0,4,,,,,3,,,72,108
57504,note_on,,,,,4,0,2,,,,,1,,,72,92
57536,note_off,,,,,320,0,10,,,,,11,,,43,0
57536,note_off,,,,,320,0,3,,,,,2,,,43,0
57536,note_off,,,,,320,0,8,,,,,7,,,31,0
57536,note_off,,,,,320,0,6,,,,,5,,,65,0
57536,note_off,,,,,320,0,5,,,,,4,,,71,0
57536,note_off,,,,,0,0,9,,,,,10,,,71,0
57536,note_off,,,,,320,0,9,,,,,10,,,62,0
57536,note_off,,,,,0,0,9,,,,,10,,,67,0
57536,note_off,,,,,320,0,7,,,,,6,,,43,0
57596,note_off,,,,,92,0,2,,,,,1,,,72,0
57596,note_off,,,,,92,0,1,,,,,0,,,72,0
57596,note_off,,,,,92,0,4,,,,,3,,,72,0
57600,note_on,,,,,64,0,10,,,,,11,,,48,60
57600,note_on,,,,,0,0,9,,,,,10,,,67,60
57600,note_on,,,,,4,0,1,,,,,0,,,72,92
57600,note_on,,,,,64,0,3,,,,,2,,,48,92
57600,note_on,,,,,64,0,8,,,,,7,,,36,75
57600,note_on,,,,,64,0,6,,,,,5,,,64,92
57600,note_on,,,,,64,0,7,,,,,6,,,48,92
57600,note_on,,,,,0,0,9,,,,,10,,,72,60
57600,note_on,,,,,64,0,5,,,,,4,,,72,108
57600,note_on,,,,,4,0,2,,,,,1,,,72,92
57600,note_on,,,,,4,0,4,,,,,3,,,72,108
57600,note_on,,,,,64,0,9,,,,,10,,,64,60
57920,note_off,,,,,320,0,6,,,,,5,,,64,0
57920,note_off,,,,,320,0,1,,,,,0,,,72,0
57920,note_off,,,,,320,0,2,,,,,1,,,72,0
57920,note_off,,,,,320,0,7,,,,,6,,,48,0
57920,note_off,,,,,320,0,3,,,,,2,,,48,0
57920,note_off,,,,,320,0,9,,,,,10,,,64,0
57920,note_off,,,,,320,0,10,,,,,11,,,48,0
57920,note_off,,,,,0,0,9,,,,,10,,,67,0
57920,note_off,,,,,0,0,9,,,,,10,,,72,0
57920,note_off,,,,,320,0,8,,,,,7,,,36,0
57920,note_off,,,,,320,0,4,,,,,3,,,72,0
57920,note_off,,,,,320,0,5,,,,,4,,,72,0
57984,note_on,,,,,64,0,3,,,,,2,,,45,92
57984,note_on,,,,,64,0,9,,,,,10,,,64,60
57984,note_on,,,,,0,0,9,,,,,10,,,69,60
57984,note_on,,,,,0,0,9,,,,,10,,,72,60
57984,note_on,,,,,64,0,7,,,,,6,,,45,92
57984,note_on,,,,,64,0,6,,,,,5,,,64,92
57984,note_on,,,,,64,0,10,,,,,11,,,45,60
57984,note_on,,,,,64,0,8,,,,,7,,,33,75
58176,note_on,,,,,256,0,5,,,,,4,,,76,108
58176,note_on,,,,,256,0,2,,,,,1,,,76,92
58176,note_on,,,,,256,0,1,,,,,0,,,84,92
58176,note_on,,,,,256,0,4,,,,,3,,,84,108
58304,note_off,,,,,320,0,9,,,,,10,,,64,0
58304,note_off,,,,,320,0,10,,,,,11,,,45,0
58304,note_off,,,,,320,0,3,,,,,2,,,45,0
58304,note_off,,,,,0,0,9,,,,,10,,,72,0
58304,note_off,,,,,320,0,7,,,,,6,,,45,0
58304,note_off,,,,,0,0,9,,,,,10,,,69,0
58304,note_off,,,,,320,0,6,,,,,5,,,64,0
58304,note_off,,,,,320,0,8,,,,,7,,,33,0
58364,note_off,,,,,188,0,2,,,,,1,,,76,0
58364,note_off,,,,,188,0,5,,,,,4,,,76,0
58364,note_off,,,,,188,0,1,,,,,0,,,84,0
58364,note_off,,,,,188,0,4,,,,,3,,,84,0
58368,note_on,,,,,4,0,4,,,,,3,,,83,108
58368,note_on,,,,,4,0,5,,,,,4,,,74,108
58368,note_on,,,,,4,0,1,,,,,0,,,83,92
58368,note_on,,,,,64,0,6,,,,,5,,,65,92
58368,note_on,,,,,64,0,7,,,,,6,,,57,92
58368,note_on,,,,,64,0,8,,,,,7,,,45,75
58368,note_on,,,,,0,0,9,,,,,10,,,65,60
58368,note_on,,,,,4,0,2,,,,,1,,,74,92
58368,note_on,,,,,64,0,9,,,,,10,,,62,60
58368,note_on,,,,,64,0,3,,,,,2,,,57,92
58368,note_on,,,,,0,0,9,,,,,10,,,71,60
58368,note_on,,,,,64,0,10,,,,,11,,,57,60
58556,note_off,,,,,188,0,4,,,,,3,,,83,0
58556,note_off,,,,,188,0,1,,,,,0,,,83,0
58556,note_off,,,,,188,0,5,,,,,4,,,74,0
58556,note_off,,,,,188,0,2,,,,,1,,,74,0
58560,note_on,,,,,4,0,5,,,,,4,,,72,108
58560,note_on,,,,,4,0,1,,,,,0,,,81,92
58560,note_on,,,,,4,0,2,,,,,1,,,72,92
58560,note_on,,,,,4,0,4,,,,,3,,,81,108
58688,note_off,,,,,320,0,6,,,,,5,,,65,0
58688,note_off,,,,,320,0,7,,,,,6,,,57,0
58688,note_off,,,,,320,0,8,,,,,7,,,45,0
58688,note_off,,,,,0,0,9,,,,,10,,,71,0
58688,note_off,,,,,0,0,9,,,,,10,,,65,0
58688,note_off,,,,,320,0,9,,,,,10,,,62,0
58688,note_off,,,,,320,0,3,,,,,2,,,57,0
58688,note_off,,,,,320,0,10,,,,,11,,,57,0
58748,note_off,,,,,188,0,5,,,,,4,,,72,0
58748,note_off,,,,,188,0,1,,,,,0,,,81,0
58748,note_off,,,,,188,0,4,,,,,3,,,81,0
58748,note_off,,,,,188,0,2,,,,,1,,,72,0
58752,note_on,,,,,64,0,3,,,,,2,,,56,92
58752,note_on,,,,,64,0,9,,,,,10,,,64,60
58752,note_on,,,,,64,0,8,,,,,7,,,44,75
58752,note_on,,,,,64,0,10,,,,,11,,,56,60
58752,note_on,,,,,4,0,1,,,,,0,,,76,92
58752,note_on,,,,,4,0,4,,,,,3,,,76,108
58752,note_on,,,,,0,0,9,,,,,10,,,71,60
58752,note_on,,,,,4,0,2,,,,,1,,,71,92
58752,note_on,,,,,4,0,5,,,,,4,,,71,108
58752,note_on,,,,,64,0,6,,,,,5,,,59,92
58752,note_on,,,,,64,0,7,,,,,6,,,56,92
58848,note_off,,,,,96,0,1,,,,,0,,,76,0
58848,note_off,,,,,96,0,4,,,,,3,,,76,0
58848,note_on,,,,,0,0,4,,,,,3,,,78,108
58848,note_on,,,,,0,0,1,,,,,0,,,78,92
58944,note_off,,,,,96,0,1,,,,,0,,,78,0
58944,note_on,,,,,0,0,1,,,,,0,,,80,92
58944,note_off,,,,,96,0,4,,,,,3,,,78,0
58944,note_on,,,,,0,0,4,,,,,3,,,80,108
59040,note_on,,,,,0,0,4,,,,,3,,,81,108
59040,note_off,,,,,96,0,4,,,,,3,,,80,0
59040,note_off,,,,,96,0,1,,,,,0,,,80,0
59040,note_on,,,,,0,0,1,,,,,0,,,81,92
59072,note_off,,,,,320,0,5,,,,,4,,,71,0
59072,note_off,,,,,0,0,9,,,,,10,,,71,0
59072,note_off,,,,,320,0,8,,,,,7,,,44,0
59072,note_off,,,,,320,0,10,,,,,11,,,56,0
59072,note_off,,,,,320,0,2,,,,,1,,,71,0
59072,note_off,,,,,320,0,9,,,,,10,,,64,0
59072,note_off,,,,,320,0,6,,,,,5,,,59,0
59072,note_off,,,,,320,0,3,,,,,2,,,56,0
59072,note_off,,,,,320,0,7,,,,,6,,,56,0
59132,note_off,,,,,92,0,4,,,,,3,,,81,0
59132,note_off,,,,,92,0,1,,,,,0,,,81,0
59136,note_on,,,,,64,0,8,,,,,7,,,40,75
59136,note_on,,,,,64,0,9,,,,,10,,,59,60
59136,note_on,,,,,0,0,9,,,,,10,,,64,60
59136,note_on,,,,,64,0,10,,,,,11,,,52,60
59136,note_on,,,,,0,0,9,,,,,10,,,68,60
59136,note_on,,,,,64,0,7,,,,,6,,,52,92
59136,note_on,,,,,64,0,6,,,,,5,,,68,92
59136,note_on,,,,,4,0,1,,,,,0,,,83,92
59136,note_on,,,,,4,0,4,,,,,3,,,83,108
59136,note_on,,,,,64,0,3,,,,,2,,,52,92
59324,note_off,,,,,188,0,4,,,,,3,,,83,0
59324,note_off,,,,,188,0,1,,,,,0,,,83,0
59328,note_on,,,,,256,0,2,,,,,1,,,71,92
59328,note_on,,,,,4,0,4,,,,,3,,,74,108
59328,note_on,,,,,4,0,1,,,,,0,,,74,92
59328,note_on,,,,,256,0,5,,,,,4,,,71,108
59456,note_off,,,,,320,0,10,,,,,11,,,52,0
59456,note_off,,,,,0,0,9,,,,,10,,,64,0
59456,note_off,,,,,0,0,9,,,,,10,,,68,0
59456,note_off,,,,,320,0,6,,,,,5,,,68,0
59456,note_off,,,,,320,0,9,,,,,10,,,59,0
59456,note_off,,,,,320,0,3,,,,,2,,,52,0
59456,note_off,,,,,320,0,7,,,,,6,,,52,0
59456,note_off,,,,,320,0,8,,,,,7,,,40,0
59516,note_off,,,,,188,0,2,,,,,1,,,71,0
59516,note_off,,,,,188,0,1,,,,,0,,,74,0
59516,note_off,,,,,188,0,5,,,,,4,,,71,0
59516,note_off,,,,,188,0,4,,,,,3,,,74,0
59520,note_on,,,,,64,0,6,,,,,5,,,64,92
59520,note_on,,,,,4,0,4,,,,,3,,,72,108
59520,note_on,,,,,4,0,5,,,,,4,,,69,108
59520,note_on,,,,,4,0,2,,,,,1,,,69,92
59520,note_on,,,,,4,0,1,,,,,0,,,72,92
59708,note_off,,,,,188,0,5,,,,,4,,,69,0
59708,note_off,,,,,188,0,2,,,,,1,,,69,0
59708,note_off,,,,,188,0,1,,,,,0,,,72,0
59708,note_off,,,,,188,0,4,,,,,3,,,72,0
59712,note_on,,,,,4,0,2,,,,,1,,,68,92
59712,note_on,,,,,4,0,4,,,,,3,,,71,108
59712,note_on,,,,,4,0,5,,,,,4,,,68,108
59712,note_on,,,,,4,0,1,,,,,0,,,71,92
59840,note_off,,,,,320,0,6,,,,,5,,,64,0
59900,note_off,,,,,188,0,5,,,,,4,,,68,0
59900,note_off,,,,,188,0,2,,,,,1,,,68,0
59900,note_off,,,,,188,0,1,,,,,0,,,71,0
59900,note_off,,,,,188,0,4,,,,,3,,,71,0
59904,note_on,,,,,448,0,10,,,,,11,,,60,60
59904,note_on,,,,,448,0,7,,,,,6,,,60,92
59904,note_on,,,,,448,0,3,,,,,2,,,60,92
59904,note_on,,,,,4,0,1,,,,,0,,,64,92
59904,note_on,,,,,4,0,2,,,,,1,,,69,92
59904,note_on,,,,,448,0,8,,,,,7,,,48,75
59904,note_on,,,,,64,0,6,,,,,5,,,60,92
59904,note_on,,,,,0,0,9,,,,,10,,,69,60
59904,note_on,,,,,448,0,9,,,,,10,,,64,60
59904,note_on,,,,,4,0,4,,,,,3,,,64,108
59904,note_on,,,,,4,0,5,,,,,4,,,69,108
60000,note_off,,,,,96,0,5,,,,,4,,,69,0
60000,note_off,,,,,96,0,2,,,,,1,,,69,0
60000,note_on,,,,,0,0,5,,,,,4,,,71,108
60000,note_on,,,,,0,0,2,,,,,1,,,71,92
60096,note_off,,,,,96,0,2,,,,,1,,,71,0
60096,note_on,,,,,0,0,2,,,,,1,,,72,92
60096,note_off,,,,,96,0,5,,,,,4,,,71,0
60096,note_on,,,,,0,0,5,,,,,4,,,72,108
60192,note_on,,,,,0,0,2,,,,,1,,,74,92
60192,note_off,,,,,96,0,5,,,,,4,,,72,0
60192,note_off,,,,,96,0,2,,,,,1,,,72,0
60192,note_on,,,,,0,0,5,,,,,4,,,74,108
60224,note_off,,,,,320,0,6,,,,,5,,,60,0
60224,note_off,,,,,320,0,8,,,,,7,,,48,0
60224,note_off,,,,,0,0,9,,,,,10,,,69,0
60224,note_off,,,,,320,0,9,,,,,10,,,64,0
60224,note_off,,,,,320,0,10,,,,,11,,,60,0
60224,note_off,,,,,320,0,1,,,,,0,,,64,0
60224,note_off,,,,,320,0,7,,,,,6,,,60,0
60224,note_off,,,,,320,0,4,,,,,3,,,64,0
60224,note_off,,,,,320,0,3,,,,,2,,,60,0
60284,note_off,,,,,92,0,5,,,,,4,,,74,0
60284,note_off,,,,,92,0,2,,,,,1,,,74,0
60288,note_on,,,,,64,0,8,,,,,7,,,45,75
60288,note_on,,,,,4,0,5,,,,,4,,,76,108
60288,note_on,,,,,64,0,3,,,,,2,,,57,92
60288,note_on,,,,,0,0,9,,,,,10,,,69,60
60288,note_on,,,,,64,0,9,,,,,10,,,64,60
60288,note_on,,,,,4,0,2,,,,,1,,,76,92
60288,note_on,,,,,64,0,6,,,,,5,,,72,92
60288,note_on,,,,,0,0,9,,,,,10,,,72,60
60288,note_on,,,,,64,0,7,,,,,6,,,57,92
60288,note_on,,,,,64,0,10,,,,,11,,,57,60
60476,note_off,,,,,188,0,2,,,,,1,,,76,0
60476,note_off,,,,,188,0,5,,,,,4,,,76,0
60480,note_on,,,,,4,0,2,,,,,1,,,81,92
60480,note_on,,,,,4,0,5,,,,,4,,,81,108
60480,note_on,,,,,256,0,4,,,,,3,,,84,108
60480,note_on,,,,,256,0,1,,,,,0,,,84,92
60608,note_off,,,,,0,0,9,,,,,10,,,69,0
60608,note_off,,,,,320,0,10,,,,,11,,,57,0
60608,note_off,,,,,320,0,7,,,,,6,,,57,0
60608,note_off,,,,,320,0,6,,,,,5,,,72,0
60608,note_off,,,,,0,0,9,,,,,10,,,72,0
60608,note_off,,,,,320,0,3,,,,,2,,,57,0
60608,note_off,,,,,320,0,8,,,,,7,,,45,0
60608,note_off,,,,,320,0,9,,,,,10,,,64,0
60668,note_off,,,,,188,0,5,,,,,4,,,81,0
60668,note_off,,,,,188,0,2,,,,,1,,,81,0
60668,note_off,,,,,188,0,1,,,,,0,,,84,0
60668,note_off,,,,,188,0,4,,,,,3,,,84,0
60672,note_on,,,,,64,0,6,,,,,5,,,64,92
60672,note_on,,,,,4,0,5,,,,,4,,,80,108
60672,note_on,,,,,4,0,4,,,,,3,,,83,108
60672,note_on,,,,,4,0,1,,,,,0,,,83,92
60672,note_on,,,,,4,0,2,,,,,1,,,80,92
60860,note_off,,,,,188,0,1,,,,,0,,,83,0
60860,note_off,,,,,188,0,5,,,,,4,,,80,0
60860,note_off,,,,,188,0,4,,,,,3,,,83,0
60860,note_off,,,,,188,0,2,,,,,1,,,80,0
60864,note_on,,,,,4,0,2,,,,,1,,,78,92
60864,note_on,,,,,4,0,5,,,,,4,,,78,108
60864,note_on,,,,,4,0,4,,,,,3,,,81,108
60864,note_on,,,,,4,0,1,,,,,0,,,81,92
60992,note_off,,,,,320,0,6,,,,,5,,,64,0
61052,note_off,,,,,188,0,2,,,,,1,,,78,0
61052,note_off,,,,,188,0,5,,,,,4,,,78,0
61052,note_off,,,,,188,0,1,,,,,0,,,81,0
61052,note_off,,,,,188,0,4,,,,,3,,,81,0
61056,note_on,,,,,448,0,10,,,,,11,,,64,60
61056,note_on,,,,,64,0,6,,,,,5,,,71,92
61056,note_on,,,,,4,0,2,,,,,1,,,80,92
61056,note_on,,,,,448,0,3,,,,,2,,,64,92
61056,note_on,,,,,448,0,8,,,,,7,,,52,75
61056,note_on,,,,,448,0,9,,,,,10,,,68,60
61056,note_on,,,,,0,0,9,,,,,10,,,71,60
61056,note_on,,,,,4,0,1,,,,,0,,,76,92
61056,note_on,,,,,4,0,5,,,,,4,,,80,108
61056,note_on,,,,,4,0,4,,,,,3,,,76,108
61056,note_on,,,,,448,0,7,,,,,6,,,64,92
61152,note_off,,,,,96,0,4,,,,,3,,,76,0
61152,note_off,,,,,96,0,1,,,,,0,,,76,0
61152,note_on,,,,,0,0,1,,,,,0,,,78,92
61152,note_on,,,,,0,0,4,,,,,3,,,78,108
61248,note_off,,,,,96,0,4,,,,,3,,,78,0
61248,note_on,,,,,0,0,4,,,,,3,,,80,108
61248,note_off,,,,,96,0,1,,,,,0,,,78,0
61248,note_on,,,,,0,0,1,,,,,0,,,80,92
61344,note_off,,,,,96,0,4,,,,,3,,,80,0
61344,note_on,,,,,0,0,4,,,,,3,,,81,108
61344,note_on,,,,,0,0,1,,,,,0,,,81,92
61344,note_off,,,,,96,0,1,,,,,0,,,80,0
61376,note_off,,,,,320,0,10,,,,,11,,,64,0
61376,note_off,,,,,0,0,9,,,,,10,,,71,0
61376,note_off,,,,,320,0,2,,,,,1,,,80,0
61376,note_off,,,,,320,0,7,,,,,6,,,64,0
61376,note_off,,,,,320,0,5,,,,,4,,,80,0
61376,note_off,,,,,320,0,9,,,,,10,,,68,0
61376,note_off,,,,,320,0,8,,,,,7,,,52,0
61376,note_off,,,,,320,0,3,,,,,2,,,64,0
61376,note_off,,,,,320,0,6,,,,,5,,,71,0
61436,note_off,,,,,92,0,1,,,,,0,,,81,0
61436,note_off,,,,,92,0,4,,,,,3,,,81,0
61440,note_on,,,,,64,0,7,,,,,6,,,56,92
61440,note_on,,,,,4,0,4,,,,,3,,,83,108
61440,note_on,,,,,64,0,9,,,,,10,,,64,60
61440,note_on,,,,,64,0,6,,,,,5,,,64,92
61440,note_on,,,,,64,0,10,,,,,11,,,56,60
61440,note_on,,,,,0,0,9,,,,,10,,,71,60
61440,note_on,,,,,64,0,8,,,,,7,,,44,75
61440,note_on,,,,,64,0,3,,,,,2,,,56,92
61440,note_on,,,,,4,0,1,,,,,0,,,83,92
61628,note_off,,,,,188,0,4,,,,,3,,,83,0
61628,note_off,,,,,188,0,1,,,,,0,,,83,0
61632,note_on,,,,,256,0,5,,,,,4,,,71,108
61632,note_on,,,,,4,0,1,,,,,0,,,74,92
61632,note_on,,,,,4,0,4,,,,,3,,,74,108
61632,note_on,,,,,256,0,2,,,,,1,,,71,92
61760,note_off,,,,,320,0,8,,,,,7,,,44,0
61760,note_off,,,,,320,0,7,,,,,6,,,56,0
61760,note_off,,,,,0,0,9,,,,,10,,,71,0
61760,note_off,,,,,320,0,9,,,,,10,,,64,0
61760,note_off,,,,,320,0,10,,,,,11,,,56,0
61760,note_off,,,,,320,0,6,,,,,5,,,64,0
61760,note_off,,,,,320,0,3,,,,,2,,,56,0
61820,note_off,,,,,188,0,4,,,,,3,,,74,0
61820,note_off,,,,,188,0,5,,,,,4,,,71,0
61820,note_off,,,,,188,0,1,,,,,0,,,74,0
61820,note_off,,,,,188,0,2,,,,,1,,,71,0
61824,note_on,,,,,4,0,1,,,,,0,,,72,92
61824,note_on,,,,,64,0,7,,,,,6,,,52,92
61824,note_on,,,,,64,0,3,,,,,2,,,52,92
61824,note_on,,,,,0,0,9,,,,,10,,,68,60
61824,note_on,,,,,0,0,9,,,,,10,,,64,60
61824,note_on,,,,,4,0,4,,,,,3,,,72,108
61824,note_on,,,,,64,0,9,,,,,10,,,59,60
61824,note_on,,,,,64,0,10,,,,,11,,,52,60
61824,note_on,,,,,64,0,8,,,,,7,,,40,75
61824,note_on,,,,,4,0,5,,,,,4,,,69,108
61824,note_on,,,,,4,0,2,,,,,1,,,69,92
62012,note_off,,,,,188,0,1,,,,,0,,,72,0
62012,note_off,,,,,188,0,4,,,,,3,,,72,0
62012,note_off,,,,,188,0,5,,,,,4,,,69,0
62012,note_off,,,,,188,0,2,,,,,1,,,69,0
62016,note_on,,,,,4,0,2,,,,,1,,,68,92
62016,note_on,,,,,4,0,1,,,,,0,,,71,92
62016,note_on,,,,,4,0,5,,,,,4,,,68,108
62016,note_on,,,,,4,0,4,,,,,3,,,71,108
62144,note_off,,,,,320,0,3,,,,,2,,,52,0
62144,note_off,,,,,320,0,10,,,,,11,,,52,0
62144,note_off,,,,,320,0,9,,,,,10,,,59,0
62144,note_off,,,,,0,0,9,,,,,10,,,64,0
62144,note_off,,,,,0,0,9,,,,,10,,,68,0
62144,note_off,,,,,320,0,8,,,,,7,,,40,0
62144,note_off,,,,,320,0,7,,,,,6,,,52,0
62204,note_off,,,,,188,0,5,,,,,4,,,68,0
62204,note_off,,,,,188,0,4,,,,,3,,,71,0
62204,note_off,,,,,188,0,1,,,,,0,,,71,0
62204,note_off,,,,,188,0,2,,,,,1,,,68,0
62208,note_on,,,,,4,0,2,,,,,1,,,69,92
62208,note_on,,,,,448,0,6,,,,,5,,,57,92
62208,note_on,,,,,4,0,4,,,,,3,,,72,108
62208,note_on,,,,,4,0,1,,,,,0,,,72,92
62208,note_on,,,,,4,0,5,,,,,4,,,69,108
62304,note_off,,,,,96,0,5,,,,,4,,,69,0
62304,note_on,,,,,0,0,5,,,,,4,,,71,108
62304,note_on,,,,,0,0,2,,,,,1,,,71,92
62304,note_off,,,,,96,0,2,,,,,1,,,69,0
62396,note_off,,,,,188,0,4,,,,,3,,,72,0
62396,note_off,,,,,188,0,1,,,,,0,,,72,0
62400,note_on,,,,,0,0,2,,,,,1,,,72,92
62400,note_on,,,,,4,0,4,,,,,3,,,71,108
62400,note_off,,,,,96,0,5,,,,,4,,,71,0
62400,note_on,,,,,0,0,5,,,,,4,,,72,108
62400,note_off,,,,,96,0,2,,,,,1,,,71,0
62400,note_on,,,,,4,0,1,,,,,0,,,71,92
62496,note_off,,,,,96,0,2,,,,,1,,,72,0
62496,note_on,,,,,0,0,2,,,,,1,,,74,92
62496,note_off,,,,,96,0,5,,,,,4,,,72,0
62496,note_on,,,,,0,0,5,,,,,4,,,74,108
62528,note_off,,,,,320,0,6,,,,,5,,,57,0
62588,note_off,,,,,92,0,2,,,,,1,,,74,0
62588,note_off,,,,,188,0,4,,,,,3,,,71,0
62588,note_off,,,,,92,0,5,,,,,4,,,74,0
62588,note_off,,,,,188,0,1,,,,,0,,,71,0
62592,note_on,,,,,448,0,7,,,,,6,,,48,92
62592,note_on,,,,,448,0,9,,,,,10,,,60,60
62592,note_on,,,,,0,0,9,,,,,10,,,69,60
62592,note_on,,,,,0,0,9,,,,,10,,,64,60
62592,note_on,,,,,448,0,10,,,,,11,,,48,60
62592,note_on,,,,,448,0,3,,,,,2,,,48,92
62592,note_on,,,,,4,0,1,,,,,0,,,69,92
62592,note_on,,,,,4,0,4,,,,,3,,,69,108
62592,note_on,,,,,448,0,8,,,,,7,,,36,75
62592,note_on,,,,,64,0,6,,,,,5,,,69,92
62592,note_on,,,,,4,0,5,,,,,4,,,76,108
62592,note_on,,,,,4,0,2,,,,,1,,,76,92
62780,note_off,,,,,188,0,2,,,,,1,,,76,0
62780,note_off,,,,,188,0,4,,,,,3,,,69,0
62780,note_off,,,,,188,0,5,,,,,4,,,76,0
62780,note_off,,,,,188,0,1,,,,,0,,,69,0
62784,note_on,,,,,4,0,5,,,,,4,,,71,108
62784,note_on,,,,,4,0,4,,,,,3,,,67,108
62784,note_on,,,,,4,0,2,,,,,1,,,71,92
62784,note_on,,,,,4,0,1,,,,,0,,,67,92
62912,note_off,,,,,320,0,9,,,,,10,,,60,0
62912,note_off,,,,,320,0,10,,,,,11,,,48,0
62912,note_off,,,,,0,0,9,,,,,10,,,69,0
62912,note_off,,,,,0,0,9,,,,,10,,,64,0
62912,note_off,,,,,320,0,7,,,,,6,,,48,0
62912,note_off,,,,,320,0,8,,,,,7,,,36,0
62912,note_off,,,,,320,0,3,,,,,2,,,48,0
62912,note_off,,,,,320,0,6,,,,,5,,,69,0
62972,note_off,,,,,188,0,5,,,,,4,,,71,0
62972,note_off,,,,,188,0,1,,,,,0,,,67,0
62972,note_off,,,,,188,0,4,,,,,3,,,67,0
62972,note_off,,,,,188,0,2,,,,,1,,,71,0
62976,note_on,,,,,64,0,9,,,,,10,,,64,60
62976,note_on,,,,,0,0,9,,,,,10,,,69,60
62976,note_on,,,,,4,0,4,,,,,3,,,66,108
62976,note_on,,,,,64,0,3,,,,,2,,,60,92
62976,note_on,,,,,4,0,5,,,,,4,,,69,108
62976,note_on,,,,,4,0,2,,,,,1,,,69,92
62976,note_on,,,,,4,0,1,,,,,0,,,66,92
62976,note_on,,,,,64,0,8,,,,,7,,,48,75
62976,note_on,,,,,64,0,10,,,,,11,,,60,60
62976,note_on,,,,,64,0,7,,,,,6,,,60,92
63164,note_off,,,,,188,0,4,,,,,3,,,66,0
63164,note_off,,,,,188,0,5,,,,,4,,,69,0
63164,note_off,,,,,188,0,1,,,,,0,,,66,0
63164,note_off,,,,,188,0,2,,,,,1,,,69,0
63168,note_on,,,,,4,0,4,,,,,3,,,64,108
63168,note_on,,,,,4,0,1,,,,,0,,,64,92
63168,note_on,,,,,4,0,5,,,,,4,,,67,108
63168,note_on,,,,,4,0,2,,,,,1,,,67,92
63296,note_off,,,,,0,0,9,,,,,10,,,69,0
63296,note_off,,,,,320,0,10,,,,,11,,,60,0
63296,note_off,,,,,320,0,8,,,,,7,,,48,0
63296,note_off,,,,,320,0,7,,,,,6,,,60,0
63296,note_off,,,,,320,0,3,,,,,2,,,60,0
63296,note_off,,,,,320,0,9,,,,,10,,,64,0
63356,note_off,,,,,188,0,2,,,,,1,,,67,0
63356,note_off,,,,,188,0,5,,,,,4,,,67,0
63356,note_off,,,,,188,0,1,,,,,0,,,64,0
63356,note_off,,,,,188,0,4,,,,,3,,,64,0
63360,note_on,,,,,4,0,4,,,,,3,,,71,108
63360,note_on,,,,,4,0,2,,,,,1,,,66,92
63360,note_on,,,,,0,0,10,,,,,11,,,59,60
63360,note_on,,,,,64,0,10,,,,,11,,,51,60
63360,note_on,,,,,64,0,8,,,,,7,,,39,75
63360,note_on,,,,,64,0,3,,,,,2,,,51,92
63360,note_on,,,,,64,0,9,,,,,10,,,66,60
63360,note_on,,,,,0,0,9,,,,,10,,,71,60
63360,note_on,,,,,448,0,6,,,,,5,,,59,92
63360,note_on,,,,,64,0,7,,,,,6,,,51,92
63360,note_on,,,,,4,0,1,,,,,0,,,71,92
63360,note_on,,,,,4,0,5,,,,,4,,,66,108
63456,note_on,,,,,0,0,4,,,,,3,,,73,108
63456,note_off,,,,,96,0,4,,,,,3,,,71,0
63456,note_off,,,,,96,0,1,,,,,0,,,71,0
63456,note_on,,,,,0,0,1,,,,,0,,,73,92
63552,note_off,,,,,96,0,4,,,,,3,,,73,0
63552,note_on,,,,,0,0,4,,,,,3,,,75,108
63552,note_off,,,,,96,0,1,,,,,0,,,73,0
63552,note_on,,,,,0,0,1,,,,,0,,,75,92
63648,note_off,,,,,96,0,4,,,,,3,,,75,0
63648,note_on,,,,,0,0,4,,,,,3,,,76,108
63648,note_on,,,,,0,0,1,,,,,0,,,76,92
63648,note_off,,,,,96,0,1,,,,,0,,,75,0
63680,note_off,,,,,320,0,3,,,,,2,,,51,0
63680,note_off,,,,,320,0,7,,,,,6,,,51,0
63680,note_off,,,,,320,0,8,,,,,7,,,39,0
63680,note_off,,,,,320,0,2,,,,,1,,,66,0
63680,note_off,,,,,320,0,6,,,,,5,,,59,0
63680,note_off,,,,,320,0,10,,,,,11,,,51,0
63680,note_off,,,,,320,0,5,,,,,4,,,66,0
63680,note_off,,,,,0,0,10,,,,,11,,,59,0
63680,note_off,,,,,0,0,9,,,,,10,,,71,0
63680,note_off,,,,,320,0,9,,,,,10,,,66,0
63740,note_off,,,,,92,0,4,,,,,3,,,76,0
63740,note_off,,,,,92,0,1,,,,,0,,,76,0
63744,note_on,,,,,64,0,10,,,,,11,,,47,60
63744,note_on,,,,,64,0,9,,,,,10,,,63,60
63744,note_on,,,,,64,0,6,,,,,5,,,63,92
63744,note_on,,,,,4,0,4,,,,,3,,,78,108
63744,note_on,,,,,64,0,3,,,,,2,,,47,92
63744,note_on,,,,,0,0,9,,,,,10,,,66,60
63744,note_on,,,,,0,0,9,,,,,10,,,71,60
63744,note_on,,,,,64,0,7,,,,,6,,,47,92
63744,note_on,,,,,4,0,1,,,,,0,,,78,92
63744,note_on,,,,,64,0,8,,,,,7,,,35,75
63932,note_off,,,,,188,0,1,,,,,0,,,78,0
63932,note_off,,,,,188,0,4,,,,,3,,,78,0
63936,note_on,,,,,256,0,5,,,,,4,,,72,108
63936,note_on,,,,,4,0,4,,,,,3,,,69,108
63936,note_on,,,,,4,0,1,,,,,0,,,69,92
63936,note_on,,,,,256,0,2,,,,,1,,,72,92
64064,note_off,,,,,320,0,10,,,,,11,,,47,0
64064,note_off,,,,,320,0,3,,,,,2,,,47,0
64064,note_off,,,,,320,0,8,,,,,7,,,35,0
64064,note_off,,,,,0,0,9,,,,,10,,,71,0
64064,note_off,,,,,320,0,6,,,,,5,,,63,0
64064,note_off,,,,,0,0,9,,,,,10,,,66,0
64064,note_off,,,,,320,0,9,,,,,10,,,63,0
64064,note_off,,,,,320,0,7,,,,,6,,,47,0
64124,note_off,,,,,188,0,2,,,,,1,,,72,0
64124,note_off,,,,,188,0,5,,,,,4,,,72,0
64124,note_off,,,,,188,0,1,,,,,0,,,69,0
64124,note_off,,,,,188,0,4,,,,,3,,,69,0
64128,note_on,,,,,4,0,1,,,,,0,,,67,92
64128,note_on,,,,,4,0,4,,,,,3,,,67,108
64128,note_on,,,,,4,0,2,,,,,1,,,71,92
64128,note_on,,,,,4,0,5,,,,,4,,,71,108
64316,note_off,,,,,188,0,5,,,,,4,,,71,0
64316,note_off,,,,,188,0,1,,,,,0,,,67,0
64316,note_off,,,,,188,0,2,,,,,1,,,71,0
64316,note_off,,,,,188,0,4,,,,,3,,,67,0
64320,note_on,,,,,4,0,5,,,,,4,,,69,108
64320,note_on,,,,,4,0,2,,,,,1,,,69,92
64320,note_on,,,,,4,0,1,,,,,0,,,66,92
64320,note_on,,,,,4,0,4,,,,,3,,,66,108
64508,note_off,,,,,188,0,1,,,,,0,,,66,0
64508,note_off,,,,,188,0,4,,,,,3,,,66,0
64508,note_off,,,,,188,0,2,,,,,1,,,69,0
64508,note_off,,,,,188,0,5,,,,,4,,,69,0
64512,note_on,,,,,4,0,5,,,,,4,,,64,108
64512,note_on,,,,,448,0,9,,,,,10,,,59,60
64512,note_on,,,,,0,0,9,,,,,10,,,67,60
64512,note_on,,,,,0,0,9,,,,,10,,,64,60
64512,note_on,,,,,4,0,1,,,,,0,,,67,92
64512,note_on,,,,,448,0,8,,,,,7,,,40,75
64512,note_on,,,,,448,0,6,,,,,5,,,59,92
64512,note_on,,,,,4,0,4,,,,,3,,,67,108
64512,note_on,,,,,448,0,3,,,,,2,,,52,92
64512,note_on,,,,,448,0,10,,,,,11,,,52,60
64512,note_on,,,,,4,0,2,,,,,1,,,64,92
64512,note_on,,,,,448,0,7,,,,,6,,,52,92
64608,note_on,,,,,0,0,2,,,,,1,,,66,92
64608,note_on,,,,,0,0,5,,,,,4,,,66,108
64608,note_off,,,,,96,0,2,,,,,1,,,64,0
64608,note_off,,,,,96,0,5,,,,,4,,,64,0
64704,note_off,,,,,96,0,2,,,,,1,,,66,0
64704,note_on,,,,,0,0,5,,,,,4,,,67,108
64704,note_off,,,,,96,0,5,,,,,4,,,66,0
64704,note_on,,,,,0,0,2,,,,,1,,,67,92
64800,note_on,,,,,0,0,5,,,,,4,,,69,108
64800,note_off,,,,,96,0,5,,,,,4,,,67,0
64800,note_off,,,,,96,0,2,,,,,1,,,67,0
64800,note_on,,,,,0,0,2,,,,,1,,,69,92
64832,note_off,,,,,320,0,3,,,,,2,,,52,0
64832,note_off,,,,,320,0,9,,,,,10,,,59,0
64832,note_off,,,,,320,0,4,,,,,3,,,67,0
64832,note_off,,,,,320,0,7,,,,,6,,,52,0
64832,note_off,,,,,0,0,9,,,,,10,,,67,0
64832,note_off,,,,,0,0,9,,,,,10,,,64,0
64832,note_off,,,,,320,0,1,,,,,0,,,67,0
64832,note_off,,,,,320,0,6,,,,,5,,,59,0
64832,note_off,,,,,320,0,10,,,,,11,,,52,0
64832,note_off,,,,,320,0,8,,,,,7,,,40,0
64892,note_off,,,,,92,0,5,,,,,4,,,69,0
64892,note_off,,,,,92,0,2,,,,,1,,,69,0
64896,note_on,,,,,0,0,9,,,,,10,,,71,60
64896,note_on,,,,,64,0,9,,,,,10,,,67,60
64896,note_on,,,,,64,0,3,,,,,2,,,40,92
64896,note_on,,,,,4,0,5,,,,,4,,,71,108
64896,note_on,,,,,64,0,7,,,,,6,,,40,92
64896,note_on,,,,,4,0,2,,,,,1,,,71,92
64896,note_on,,,,,64,0,8,,,,,7,,,28,75
64896,note_on,,,,,64,0,6,,,,,5,,,64,92
64896,note_on,,,,,64,0,10,,,,,11,,,40,60
65084,note_off,,,,,188,0,5,,,,,4,,,71,0
65084,note_off,,,,,188,0,2,,,,,1,,,71,0
65088,note_on,,,,,256,0,4,,,,,3,,,79,108
65088,note_on,,,,,4,0,2,,,,,1,,,76,92
65088,note_on,,,,,256,0,1,,,,,0,,,79,92
65088,note_on,,,,,4,0,5,,,,,4,,,76,108
65216,note_off,,,,,320,0,10,,,,,11,,,40,0
65216,note_off,,,,,0,0,9,,,,,10,,,71,0
65216,note_off,,,,,320,0,9,,,,,10,,,67,0
65216,note_off,,,,,320,0,3,,,,,2,,,40,0
65216,note_off,,,,,320,0,6,,,,,5,,,64,0
65216,note_off,,,,,320,0,7,,,,,6,,,40,0
65216,note_off,,,,,320,0,8,,,,,7,,,28,0
65276,note_off,,,,,188,0,1,,,,,0,,,79,0
65276,note_off,,,,,188,0,4,,,,,3,,,79,0
65276,note_off,,,,,188,0,2,,,,,1,,,76,0
65276,note_off,,,,,188,0,5,,,,,4,,,76,0
65280,note_on,,,,,4,0,2,,,,,1,,,75,92
65280,note_on,,,,,4,0,5,,,,,4,,,75,108
65280,note_on,,,,,4,0,1,,,,,0,,,78,92
65280,note_on,,,,,4,0,4,,,,,3,,,78,108
65468,note_off,,,,,188,0,5,,,,,4,,,75,0
65468,note_off,,,,,188,0,1,,,,,0,,,78,0
65468,note_off,,,,,188,0,4,,,,,3,,,78,0
65468,note_off,,,,,188,0,2,,,,,1,,,75,0
65472,note_on,,,,,4,0,2,,,,,1,,,73,92
65472,note_on,,,,,4,0,5,,,,,4,,,73,108
65472,note_on,,,,,4,0,4,,,,,3,,,76,108
65472,note_on,,,,,4,0,1,,,,,0,,,76,92
65660,note_off,,,,,188,0,2,,,,,1,,,73,0
65660,note_off,,,,,188,0,5,,,,,4,,,73,0
65660,note_off,,,,,188,0,1,,,,,0,,,76,0
65660,note_off,,,,,188,0,4,,,,,3,,,76,0
65664,note_on,,,,,4,0,1,,,,,0,,,75,92
65664,note_on,,,,,448,0,6,,,,,5,,,66,92
65664,note_on,,,,,4,0,4,,,,,3,,,75,108
65664,note_on,,,,,4,0,2,,,,,1,,,71,92
65664,note_on,,,,,448,0,7,,,,,6,,,59,92
65664,note_on,,,,,448,0,9,,,,,10,,,63,60
65664,note_on,,,,,448,0,8,,,,,7,,,47,75
65664,note_on,,,,,0,0,9,,,,,10,,,66,60
65664,note_on,,,,,0,0,9,,,,,10,,,71,60
65664,note_on,,,,,448,0,10,,,,,11,,,59,60
65664,note_on,,,,,448,0,3,,,,,2,,,59,92
65664,note_on,,,,,4,0,5,,,,,4,,,71,108
65760,note_off,,,,,96,0,2,,,,,1,,,71,0
65760,note_on,,,,,0,0,2,,,,,1,,,73,92
65760,note_off,,,,,96,0,5,,,,,4,,,71,0
65760,note_on,,,,,0,0,4,,,,,3,,,76,108
65760,note_off,,,,,96,0,1,,,,,0,,,75,0
65760,note_on,,,,,0,0,1,,,,,0,,,76,92
65760,note_on,,,,,0,0,5,,,,,4,,,73,108
65760,note_off,,,,,96,0,4,,,,,3,,,75,0
65856,note_on,,,,,0,0,2,,,,,1,,,75,92
65856,note_off,,,,,96,0,2,,,,,1,,,73,0
65856,note_on,,,,,0,0,4,,,,,3,,,78,108
65856,note_on,,,,,0,0,5,,,,,4,,,75,108
65856,note_off,,,,,96,0,5,,,,,4,,,73,0
65856,note_off,,,,,96,0,4,,,,,3,,,76,0
65856,note_on,,,,,0,0,1,,,,,0,,,78,92
65856,note_off,,,,,96,0,1,,,,,0,,,76,0
65984,note_off,,,,,320,0,3,,,,,2,,,59,0
65984,note_off,,,,,320,0,6,,,,,5,,,66,0
65984,note_off,,,,,0,0,9,,,,,10,,,66,0
65984,note_off,,,,,320,0,9,,,,,10,,,63,0
65984,note_off,,,,,320,0,10,,,,,11,,,59,0
65984,note_off,,,,,320,0,7,,,,,6,,,59,0
65984,note_off,,,,,0,0,9,,,,,10,,,71,0
65984,note_off,,,,,320,0,8,,,,,7,,,47,0
66044,note_off,,,,,188,0,5,,,,,4,,,75,0
66044,note_off,,,,,188,0,4,,,,,3,,,78,0
66044,note_off,,,,,188,0,2,,,,,1,,,75,0
66044,note_off,,,,,188,0,1,,,,,0,,,78,0
66048,note_on,,,,,64,0,6,,,,,5,,,71,92
66048,note_on,,,,,64,0,7,,,,,6,,,63,92
66048,note_on,,,,,0,0,9,,,,,10,,,71,60
66048,note_on,,,,,64,0,9,,,,,10,,,66,60
66048,note_on,,,,,64,0,10,,,,,11,,,63,60
66048,note_on,,,,,64,0,3,,,,,2,,,63,92
66048,note_on,,,,,64,0,8,,,,,7,,,51,75
66240,note_on,,,,,196,0,1,,,,,0,,,81,92
66240,note_on,,,,,196,0,4,,,,,3,,,81,108
66240,note_on,,,,,196,0,2,,,,,1,,,78,92
66240,note_on,,,,,196,0,5,,,,,4,,,78,108
66368,note_off,,,,,0,0,9,,,,,10,,,71,0
66368,note_off,,,,,320,0,7,,,,,6,,,63,0
66368,note_off,,,,,320,0,10,,,,,11,,,63,0
66368,note_off,,,,,320,0,8,,,,,7,,,51,0
66368,note_off,,,,,320,0,9,,,,,10,,,66,0
66368,note_off,,,,,320,0,3,,,,,2,,,63,0
66368,note_off,,,,,320,0,6,,,,,5,,,71,0
66428,note_off,,,,,188,0,4,,,,,3,,,81,0
66428,note_off,,,,,188,0,5,,,,,4,,,78,0
66428,note_off,,,,,188,0,1,,,,,0,,,81,0
66428,note_off,,,,,188,0,2,,,,,1,,,78,0
66432,note_on,,,,,64,0,8,,,,,7,,,47,75
66432,note_on,,,,,64,0,6,,,,,5,,,59,92
66432,note_on,,,,,4,0,4,,,,,3,,,79,108
66432,note_on,,,,,64,0,10,,,,,11,,,59,60
66432,note_on,,,,,4,0,1,,,,,0,,,79,92
66432,note_on,,,,,64,0,9,,,,,10,,,63,60
66432,note_on,,,,,0,0,9,,,,,10,,,66,60
66432,note_on,,,,,64,0,7,,,,,6,,,59,92
66432,note_on,,,,,0,0,9,,,,,10,,,71,60
66432,note_on,,,,,64,0,3,,,,,2,,,59,92
66432,note_on,,,,,4,0,2,,,,,1,,,76,92
66432,note_on,,,,,4,0,5,,,,,4,,,76,108
66620,note_off,,,,,188,0,1,,,,,0,,,79,0
66620,note_off,,,,,188,0,5,,,,,4,,,76,0
66620,note_off,,,,,188,0,4,,,,,3,,,79,0
66620,note_off,,,,,188,0,2,,,,,1,,,76,0
66624,note_on,,,,,4,0,5,,,,,4,,,75,108
66624,note_on,,,,,4,0,1,,,,,0,,,78,92
66624,note_on,,,,,4,0,4,,,,,3,,,78,108
66624,note_on,,,,,4,0,2,,,,,1,,,75,92
66752,note_off,,,,,320,0,9,,,,,10,,,63,0
66752,note_off,,,,,0,0,9,,,,,10,,,66,0
66752,note_off,,,,,0,0,9,,,,,10,,,71,0
66752,note_off,,,,,320,0,7,,,,,6,,,59,0
66752,note_off,,,,,320,0,8,,,,,7,,,47,0
66752,note_off,,,,,320,0,10,,,,,11,,,59,0
66752,note_off,,,,,320,0,3,,,,,2,,,59,0
66752,note_off,,,,,320,0,6,,,,,5,,,59,0
66812,note_off,,,,,188,0,1,,,,,0,,,78,0
66812,note_off,,,,,188,0,4,,,,,3,,,78,0
66812,note_off,,,,,188,0,2,,,,,1,,,75,0
66812,note_off,,,,,188,0,5,,,,,4,,,75,0
66816,note_on,,,,,4,0,2,,,,,1,,,79,92
66816,note_on,,,,,4,0,4,,,,,3,,,76,108
66816,note_on,,,,,4,0,1,,,,,0,,,76,92
66816,note_on,,,,,4,0,5,,,,,4,,,79,108
66912,note_on,,,,,0,0,4,,,,,3,,,78,108
66912,note_on,,,,,0,0,5,,,,,4,,,78,108
66912,note_on,,,,,0,0,2,,,,,1,,,78,92
66912,note_off,,,,,96,0,1,,,,,0,,,76,0
66912,note_off,,,,,96,0,2,,,,,1,,,79,0
66912,note_off,,,,,96,0,4,,,,,3,,,76,0
66912,note_on,,,,,0,0,1,,,,,0,,,78,92
66912,note_off,,,,,96,0,5,,,,,4,,,79,0
67008,note_on,,,,,0,0,1,,,,,0,,,79,92
67008,note_on,,,,,0,0,4,,,,,3,,,79,108
67008,note_off,,,,,96,0,1,,,,,0,,,78,0
67008,note_off,,,,,96,0,5,,,,,4,,,78,0
67008,note_on,,,,,0,0,5,,,,,4,,,76,108
67008,note_on,,,,,0,0,2,,,,,1,,,76,92
67008,note_off,,,,,96,0,2,,,,,1,,,78,0
67008,note_off,,,,,96,0,4,,,,,3,,,78,0
67008,note_on,,,,,256,0,6,,,,,5,,,71,92
67196,note_off,,,,,188,0,5,,,,,4,,,76,0
67196,note_off,,,,,188,0,2,,,,,1,,,76,0
67196,note_off,,,,,188,0,4,,,,,3,,,79,0
67196,note_off,,,,,188,0,1,,,,,0,,,79,0
67196,note_off,,,,,188,0,6,,,,,5,,,71,0
67200,note_on,,,,,448,0,7,,,,,6,,,52,92
67200,note_on,,,,,4,0,5,,,,,4,,,59,108
67200,note_on,,,,,448,0,9,,,,,10,,,64,60
67200,note_on,,,,,448,0,10,,,,,11,,,52,60
67200,note_on,,,,,448,0,8,,,,,7,,,40,75
67200,note_on,,,,,4,0,2,,,,,1,,,59,92
67200,note_on,,,,,4,0,6,,,,,5,,,67,92
67200,note_on,,,,,448,0,3,,,,,2,,,52,92
67200,note_on,,,,,0,0,9,,,,,10,,,67,60
67388,note_off,,,,,188,0,6,,,,,5,,,67,0
67392,note_on,,,,,196,0,4,,,,,3,,,67,108
67392,note_on,,,,,196,0,1,,,,,0,,,67,92
67392,note_on,,,,,4,0,6,,,,,5,,,71,92
67520,note_off,,,,,0,0,9,,,,,10,,,67,0
67520,note_off,,,,,320,0,8,,,,,7,,,40,0
67520,note_off,,,,,320,0,9,,,,,10,,,64,0
67520,note_off,,,,,320,0,3,,,,,2,,,52,0
67520,note_off,,,,,320,0,5,,,,,4,,,59,0
67520,note_off,,,,,320,0,10,,,,,11,,,52,0
67520,note_off,,,,,320,0,7,,,,,6,,,52,0
67520,note_off,,,,,320,0,2,,,,,1,,,59,0
67580,note_off,,,,,188,0,1,,,,,0,,,67,0
67580,note_off,,,,,188,0,4,,,,,3,,,67,0
67580,note_off,,,,,188,0,6,,,,,5,,,71,0
67584,note_on,,,,,64,0,10,,,,,11,,,57,60
67584,note_on,,,,,4,0,1,,,,,0,,,66,92
67584,note_on,,,,,4,0,4,,,,,3,,,66,108
67584,note_on,,,,,64,0,3,,,,,2,,,57,92
67584,note_on,,,,,64,0,7,,,,,6,,,57,92
67584,note_on,,,,,64,0,9,,,,,10,,,64,60
67584,note_on,,,,,4,0,6,,,,,5,,,60,92
67584,note_on,,,,,64,0,8,,,,,7,,,45,75
67584,note_on,,,,,0,0,9,,,,,10,,,69,60
67772,note_off,,,,,188,0,4,,,,,3,,,66,0
67772,note_off,,,,,188,0,1,,,,,0,,,66,0
67776,note_on,,,,,4,0,1,,,,,0,,,64,92
67776,note_on,,,,,4,0,4,,,,,3,,,64,108
67904,note_off,,,,,320,0,10,,,,,11,,,57,0
67904,note_off,,,,,320,0,7,,,,,6,,,57,0
67904,note_off,,,,,320,0,8,,,,,7,,,45,0
67904,note_off,,,,,320,0,9,,,,,10,,,64,0
67904,note_off,,,,,0,0,9,,,,,10,,,69,0
67904,note_off,,,,,320,0,6,,,,,5,,,60,0
67904,note_off,,,,,320,0,3,,,,,2,,,57,0
67964,note_off,,,,,188,0,1,,,,,0,,,64,0
67964,note_off,,,,,188,0,4,,,,,3,,,64,0
67968,note_on,,,,,4,0,1,,,,,0,,,63,92
67968,note_on,,,,,4,0,4,,,,,3,,,63,108
68064,note_off,,,,,96,0,1,,,,,0,,,63,0
68064,note_on,,,,,0,0,1,,,,,0,,,64,92
68064,note_on,,,,,0,0,4,,,,,3,,,64,108
68064,note_off,,,,,96,0,4,,,,,3,,,63,0
68160,note_off,,,,,96,0,1,,,,,0,,,64,0
68160,note_on,,,,,640,0,2,,,,,1,,,66,92
68160,note_on,,,,,640,0,5,,,,,4,,,66,108
68160,note_off,,,,,96,0,4,,,,,3,,,64,0
68160,note_on,,,,,0,0,4,,,,,3,,,66,108
68160,note_on,,,,,0,0,1,,,,,0,,,66,92
68348,note_off,,,,,188,0,4,,,,,3,,,66,0
68348,note_off,,,,,188,0,5,,,,,4,,,66,0
68348,note_off,,,,,188,0,1,,,,,0,,,66,0
68348,note_off,,,,,188,0,2,,,,,1,,,66,0
68352,note_on,,,,,448,0,9,,,,,10,,,63,60
68352,note_on,,,,,4,0,2,,,,,1,,,63,92
68352,note_on,,,,,448,0,10,,,,,11,,,59,60
68352,note_on,,,,,4,0,5,,,,,4,,,63,108
68352,note_on,,,,,448,0,7,,,,,6,,,59,92
68352,note_on,,,,,448,0,3,,,,,2,,,59,92
68352,note_on,,,,,448,0,6,,,,,5,,,66,92
68352,note_on,,,,,448,0,8,,,,,7,,,47,75
68352,note_on,,,,,0,0,9,,,,,10,,,66,60
68540,note_off,,,,,188,0,5,,,,,4,,,63,0
68540,note_off,,,,,188,0,2,,,,,1,,,63,0
68544,note_on,,,,,196,0,1,,,,,0,,,69,92
68544,note_on,,,,,4,0,2,,,,,1,,,66,92
68544,note_on,,,,,4,0,5,,,,,4,,,66,108
68544,note_on,,,,,196,0,4,,,,,3,,,69,108
68672,note_off,,,,,320,0,7,,,,,6,,,59,0
68672,note_off,,,,,320,0,6,,,,,5,,,66,0
68672,note_off,,,,,320,0,8,,,,,7,,,47,0
68672,note_off,,,,,320,0,9,,,,,10,,,63,0
68672,note_off,,,,,0,0,9,,,,,10,,,66,0
68672,note_off,,,,,320,0,10,,,,,11,,,59,0
68672,note_off,,,,,320,0,3,,,,,2,,,59,0
68732,note_off,,,,,188,0,1,,,,,0,,,69,0
68732,note_off,,,,,188,0,4,,,,,3,,,69,0
68732,note_off,,,,,188,0,2,,,,,1,,,66,0
68732,note_off,,,,,188,0,5,,,,,4,,,66,0
68736,note_on,,,,,0,0,9,,,,,10,,,66,60
68736,note_on,,,,,64,0,10,,,,,11,,,51,60
68736,note_on,,,,,64,0,3,,,,,2,,,51,92
68736,note_on,,,,,64,0,8,,,,,7,,,39,75
68736,note_on,,,,,4,0,4,,,,,3,,,67,108
68736,note_on,,,,,64,0,6,,,,,5,,,59,92
68736,note_on,,,,,64,0,7,,,,,6,,,51,92
68736,note_on,,,,,4,0,2,,,,,1,,,59,92
68736,note_on,,,,,4,0,5,,,,,4,,,59,108
68736,note_on,,,,,64,0,9,,,,,10,,,59,60
68736,note_on,,,,,4,0,1,,,,,0,,,67,92
68924,note_off,,,,,188,0,1,,,,,0,,,67,0
68924,note_off,,,,,188,0,4,,,,,3,,,67,0
68928,note_on,,,,,4,0,1,,,,,0,,,66,92
68928,note_on,,,,,4,0,4,,,,,3,,,66,108
69056,note_off,,,,,320,0,6,,,,,5,,,59,0
69056,note_off,,,,,320,0,3,,,,,2,,,51,0
69056,note_off,,,,,320,0,8,,,,,7,,,39,0
69056,note_off,,,,,0,0,9,,,,,10,,,66,0
69056,note_off,,,,,320,0,7,,,,,6,,,51,0
69056,note_off,,,,,320,0,5,,,,,4,,,59,0
69056,note_off,,,,,320,0,9,,,,,10,,,59,0
69056,note_off,,,,,320,0,10,,,,,11,,,51,0
69056,note_off,,,,,320,0,2,,,,,1,,,59,0
69116,note_off,,,,,188,0,1,,,,,0,,,66,0
69116,note_off,,,,,188,0,4,,,,,3,,,66,0
69120,note_on,,,,,4,0,4,,,,,3,,,64,108
69120,note_on,,,,,4,0,1,,,,,0,,,64,92
69216,note_off,,,,,96,0,4,,,,,3,,,64,0
69216,note_off,,,,,96,0,1,,,,,0,,,64,0
69216,note_on,,,,,0,0,1,,,,,0,,,66,92
69216,note_on,,,,,0,0,4,,,,,3,,,66,108
69312,note_on,,,,,0,0,4,,,,,3,,,67,108
69312,note_on,,,,,256,0,5,,,,,4,,,71,108
69312,note_off,,,,,96,0,1,,,,,0,,,66,0
69312,note_on,,,,,0,0,1,,,,,0,,,67,92
69312,note_on,,,,,256,0,2,,,,,1,,,71,92
69312,note_off,,,,,96,0,4,,,,,3,,,66,0
69500,note_off,,,,,188,0,5,,,,,4,,,71,0
69500,note_off,,,,,188,0,2,,,,,1,,,71,0
69500,note_off,,,,,188,0,1,,,,,0,,,67,0
69500,note_off,,,,,188,0,4,,,,,3,,,67,0
69504,note_on,,,,,448,0,7,,,,,6,,,52,92
69504,note_on,,,,,448,0,6,,,,,5,,,59,92
69504,note_on,,,,,448,0,3,,,,,2,,,52,92
69504,note_on,,,,,448,0,9,,,,,10,,,59,60
69504,note_on,,,,,448,0,10,,,,,11,,,52,60
69504,note_on,,,,,0,0,9,,,,,10,,,67,60
69504,note_on,,,,,0,0,9,,,,,10,,,64,60
69504,note_on,,,,,448,0,8,,,,,7,,,40,75
69504,note_on,,,,,4,0,2,,,,,1,,,67,92
69504,note_on,,,,,4,0,5,,,,,4,,,67,108
69692,note_off,,,,,188,0,2,,,,,1,,,67,0
69692,note_off,,,,,188,0,5,,,,,4,,,67,0
69696,note_on,,,,,196,0,4,,,,,3,,,71,108
69696,note_on,,,,,4,0,2,,,,,1,,,71,92
69696,note_on,,,,,4,0,5,,,,,4,,,71,108
69696,note_on,,,,,196,0,1,,,,,0,,,71,92
69824,note_off,,,,,0,0,9,,,,,10,,,67,0
69824,note_off,,,,,0,0,9,,,,,10,,,64,0
69824,note_off,,,,,320,0,9,,,,,10,,,59,0
69824,note_off,,,,,320,0,3,,,,,2,,,52,0
69824,note_off,,,,,320,0,7,,,,,6,,,52,0
69824,note_off,,,,,320,0,6,,,,,5,,,59,0
69824,note_off,,,,,320,0,10,,,,,11,,,52,0
69824,note_off,,,,,320,0,8,,,,,7,,,40,0
69884,note_off,,,,,188,0,2,,,,,1,,,71,0
69884,note_off,,,,,188,0,5,,,,,4,,,71,0
69884,note_off,,,,,188,0,1,,,,,0,,,71,0
69884,note_off,,,,,188,0,4,,,,,3,,,71,0
69888,note_on,,,,,4,0,5,,,,,4,,,64,108
69888,note_on,,,,,4,0,2,,,,,1,,,64,92
69888,note_on,,,,,4,0,1,,,,,0,,,69,92
69888,note_on,,,,,4,0,4,,,,,3,,,69,108
69888,note_on,,,,,64,0,9,,,,,10,,,59,60
69888,note_on,,,,,64,0,3,,,,,2,,,55,92
69888,note_on,,,,,0,0,9,,,,,10,,,64,60
69888,note_on,,,,,64,0,6,,,,,5,,,71,92
69888,note_on,,,,,64,0,7,,,,,6,,,55,92
69888,note_on,,,,,64,0,10,,,,,11,,,55,60
69888,note_on,,,,,64,0,8,,,,,7,,,43,75
70076,note_off,,,,,188,0,1,,,,,0,,,69,0
70076,note_off,,,,,188,0,4,,,,,3,,,69,0
70080,note_on,,,,,4,0,4,,,,,3,,,67,108
70080,note_on,,,,,4,0,1,,,,,0,,,67,92
70208,note_off,,,,,320,0,3,,,,,2,,,55,0
70208,note_off,,,,,0,0,9,,,,,10,,,64,0
70208,note_off,,,,,320,0,9,,,,,10,,,59,0
70208,note_off,,,,,320,0,2,,,,,1,,,64,0
70208,note_off,,,,,320,0,5,,,,,4,,,64,0
70208,note_off,,,,,320,0,8,,,,,7,,,43,0
70208,note_off,,,,,320,0,7,,,,,6,,,55,0
70208,note_off,,,,,320,0,10,,,,,11,,,55,0
70208,note_off,,,,,320,0,6,,,,,5,,,71,0
70268,note_off,,,,,188,0,1,,,,,0,,,67,0
70268,note_off,,,,,188,0,4,,,,,3,,,67,0
70272,note_on,,,,,4,0,4,,,,,3,,,66,108
70272,note_on,,,,,4,0,1,,,,,0,,,66,92
70364,note_off,,,,,92,0,4,,,,,3,,,66,0
70364,note_off,,,,,92,0,1,,,,,0,,,66,0
70368,note_on,,,,,4,0,4,,,,,3,,,67,108
70368,note_on,,,,,4,0,1,,,,,0,,,67,92
70460,note_off,,,,,92,0,1,,,,,0,,,67,0
70460,note_off,,,,,92,0,4,,,,,3,,,67,0
70464,note_on,,,,,4,0,1,,,,,0,,,69,92
70464,note_on,,,,,256,0,5,,,,,4,,,76,108
70464,note_on,,,,,256,0,2,,,,,1,,,76,92
70464,note_on,,,,,4,0,4,,,,,3,,,69,108
70556,note_off,,,,,92,0,1,,,,,0,,,69,0
70556,note_off,,,,,92,0,4,,,,,3,,,69,0
70560,note_on,,,,,4,0,4,,,,,3,,,71,108
70560,note_on,,,,,4,0,1,,,,,0,,,71,92
70652,note_off,,,,,92,0,4,,,,,3,,,71,0
70652,note_off,,,,,188,0,5,,,,,4,,,76,0
70652,note_off,,,,,92,0,1,,,,,0,,,71,0
70652,note_off,,,,,188,0,2,,,,,1,,,76,0
70656,note_on,,,,,4,0,1,,,,,0,,,72,92
70656,note_on,,,,,448,0,6,,,,,5,,,66,92
70656,note_on,,,,,448,0,3,,,,,2,,,45,92
70656,note_on,,,,,4,0,5,,,,,4,,,69,108
70656,note_on,,,,,4,0,4,,,,,3,,,72,108
70656,note_on,,,,,4,0,2,,,,,1,,,69,92
70656,note_on,,,,,0,0,9,,,,,10,,,60,60
70656,note_on,,,,,448,0,9,,,,,10,,,57,60
70656,note_on,,,,,448,0,8,,,,,7,,,33,75
70656,note_on,,,,,448,0,10,,,,,11,,,45,60
70656,note_on,,,,,0,0,9,,,,,10,,,66,60
70656,note_on,,,,,448,0,7,,,,,6,,,45,92
70844,note_off,,,,,188,0,1,,,,,0,,,72,0
70844,note_off,,,,,188,0,2,,,,,1,,,69,0
70844,note_off,,,,,188,0,5,,,,,4,,,69,0
70844,note_off,,,,,188,0,4,,,,,3,,,72,0
70848,note_on,,,,,4,0,4,,,,,3,,,67,108
70848,note_on,,,,,4,0,5,,,,,4,,,72,108
70848,note_on,,,,,4,0,2,,,,,1,,,72,92
70848,note_on,,,,,4,0,1,,,,,0,,,67,92
70976,note_off,,,,,320,0,9,,,,,10,,,57,0
70976,note_off,,,,,320,0,6,,,,,5,,,66,0
70976,note_off,,,,,0,0,9,,,,,10,,,66,0
70976,note_off,,,,,320,0,7,,,,,6,,,45,0
70976,note_off,,,,,0,0,9,,,,,10,,,60,0
70976,note_off,,,,,320,0,3,,,,,2,,,45,0
70976,note_off,,,,,320,0,8,,,,,7,,,33,0
70976,note_off,,,,,320,0,10,,,,,11,,,45,0
71036,note_off,,,,,188,0,5,,,,,4,,,72,0
71036,note_off,,,,,188,0,1,,,,,0,,,67,0
71036,note_off,,,,,188,0,2,,,,,1,,,72,0
71036,note_off,,,,,188,0,4,,,,,3,,,67,0
71040,note_on,,,,,4,0,2,,,,,1,,,57,92
71040,note_on,,,,,4,0,1,,,,,0,,,66,92
71040,note_on,,,,,64,0,3,,,,,2,,,48,92
71040,note_on,,,,,64,0,6,,,,,5,,,57,92
71040,note_on,,,,,4,0,5,,,,,4,,,57,108
71040,note_on,,,,,0,0,9,,,,,10,,,64,60
71040,note_on,,,,,0,0,9,,,,,10,,,57,60
71040,note_on,,,,,64,0,9,,,,,10,,,52,60
71040,note_on,,,,,64,0,10,,,,,11,,,48,60
71040,note_on,,,,,4,0,4,,,,,3,,,66,108
71040,note_on,,,,,64,0,7,,,,,6,,,48,92
71040,note_on,,,,,64,0,8,,,,,7,,,36,75
71228,note_off,,,,,188,0,1,,,,,0,,,66,0
71228,note_off,,,,,188,0,4,,,,,3,,,66,0
71232,note_on,,,,,4,0,1,,,,,0,,,64,92
71232,note_on,,,,,4,0,4,,,,,3,,,64,108
71360,note_off,,,,,0,0,9,,,,,10,,,64,0
71360,note_off,,,,,320,0,7,,,,,6,,,48,0
71360,note_off,,,,,320,0,5,,,,,4,,,57,0
71360,note_off,,,,,0,0,9,,,,,10,,,57,0
71360,note_off,,,,,320,0,9,,,,,10,,,52,0
71360,note_off,,,,,320,0,6,,,,,5,,,57,0
71360,note_off,,,,,320,0,10,,,,,11,,,48,0
71360,note_off,,,,,320,0,8,,,,,7,,,36,0
71360,note_off,,,,,320,0,3,,,,,2,,,48,0
71360,note_off,,,,,320,0,2,,,,,1,,,57,0
71420,note_off,,,,,188,0,1,,,,,0,,,64,0
71420,note_off,,,,,188,0,4,,,,,3,,,64,0
71424,note_on,,,,,64,0,3,,,,,2,,,47,92
71424,note_on,,,,,0,0,9,,,,,10,,,59,60
71424,note_on,,,,,64,0,9,,,,,10,,,54,60
71424,note_on,,,,,4,0,4,,,,,3,,,63,108
71424,note_on,,,,,0,0,9,,,,,10,,,63,60
71424,note_on,,,,,64,0,10,,,,,11,,,47,60
71424,note_on,,,,,64,0,6,,,,,5,,,59,92
71424,note_on,,,,,64,0,7,,,,,6,,,47,92
71424,note_on,,,,,64,0,8,,,,,7,,,35,75
71424,note_on,,,,,4,0,1,,,,,0,,,63,92
71616,note_on,,,,,256,0,5,,,,,4,,,78,108
71616,note_on,,,,,256,0,2,,,,,1,,,78,92
71744,note_off,,,,,320,0,1,,,,,0,,,63,0
71744,note_off,,,,,0,0,9,,,,,10,,,63,0
71744,note_off,,,,,320,0,3,,,,,2,,,47,0
71744,note_off,,,,,320,0,4,,,,,3,,,63,0
71744,note_off,,,,,0,0,9,,,,,10,,,59,0
71744,note_off,,,,,320,0,9,,,,,10,,,54,0
71744,note_off,,,,,320,0,6,,,,,5,,,59,0
71744,note_off,,,,,320,0,8,,,,,7,,,35,0
71744,note_off,,,,,320,0,10,,,,,11,,,47,0
71744,note_off,,,,,320,0,7,,,,,6,,,47,0
71804,note_off,,,,,188,0,5,,,,,4,,,78,0
71804,note_off,,,,,188,0,2,,,,,1,,,78,0
71808,note_on,,,,,64,0,3,,,,,2,,,59,92
71808,note_on,,,,,64,0,8,,,,,7,,,47,75
71808,note_on,,,,,64,0,10,,,,,11,,,59,60
71808,note_on,,,,,4,0,2,,,,,1,,,71,92
71808,note_on,,,,,4,0,5,,,,,4,,,71,108
71808,note_on,,,,,0,0,9,,,,,10,,,66,60
71808,note_on,,,,,0,0,9,,,,,10,,,63,60
71808,note_on,,,,,64,0,9,,,,,10,,,59,60
71808,note_on,,,,,64,0,7,,,,,6,,,59,92
72000,note_on,,,,,256,0,1,,,,,0,,,71,92
72000,note_on,,,,,256,0,4,,,,,3,,,71,108
72128,note_off,,,,,320,0,2,,,,,1,,,71,0
72128,note_off,,,,,0,0,9,,,,,10,,,66,0
72128,note_off,,,,,320,0,8,,,,,7,,,47,0
72128,note_off,,,,,0,0,9,,,,,10,,,63,0
72128,note_off,,,,,320,0,9,,,,,10,,,59,0
72128,note_off,,,,,320,0,5,,,,,4,,,71,0
72128,note_off,,,,,320,0,10,,,,,11,,,59,0
72128,note_off,,,,,320,0,3,,,,,2,,,59,0
72128,note_off,,,,,320,0,7,,,,,6,,,59,0
72188,note_off,,,,,188,0,1,,,,,0,,,71,0
72188,note_off,,,,,188,0,4,,,,,3,,,71,0
72192,note_on,,,,,4,0,1,,,,,0,,,72,92
72192,note_on,,,,,0,0,9,,,,,10,,,66,60
72192,note_on,,,,,64,0,9,,,,,10,,,60,60
72192,note_on,,,,,64,0,10,,,,,11,,,57,60
72192,note_on,,,,,64,0,8,,,,,7,,,45,75
72192,note_on,,,,,4,0,4,,,,,3,,,72,108
72192,note_on,,,,,64,0,3,,,,,2,,,57,92
72192,note_on,,,,,64,0,7,,,,,6,,,57,92
72380,note_off,,,,,188,0,4,,,,,3,,,72,0
72380,note_off,,,,,188,0,1,,,,,0,,,72,0
72384,note_on,,,,,4,0,1,,,,,0,,,71,92
72384,note_on,,,,,4,0,4,,,,,3,,,71,108
72512,note_off,,,,,320,0,3,,,,,2,,,57,0
72512,note_off,,,,,320,0,8,,,,,7,,,45,0
72512,note_off,,,,,320,0,10,,,,,11,,,57,0
72512,note_off,,,,,320,0,7,,,,,6,,,57,0
72512,note_off,,,,,320,0,9,,,,,10,,,60,0
72512,note_off,,,,,0,0,9,,,,,10,,,66,0
72572,note_off,,,,,188,0,4,,,,,3,,,71,0
72572,note_off,,,,,188,0,1,,,,,0,,,71,0
72576,note_on,,,,,4,0,1,,,,,0,,,74,127
72576,note_on,,,,,832,0,6,,,,,5,,,71,92
72576,note_on,,,,,4,0,4,,,,,3,,,74,127
72764,note_off,,,,,188,0,4,,,,,3,,,74,0
72764,note_off,,,,,188,0,1,,,,,0,,,74,0
72768,note_on,,,,,4,0,4,,,,,3,,,71,108
72768,note_on,,,,,640,0,2,,,,,1,,,71,92
72768,note_on,,,,,640,0,5,,,,,4,,,71,108
72768,note_on,,,,,4,0,1,,,,,0,,,71,92
72896,note_off,,,,,320,0,6,,,,,5,,,71,0
72956,note_off,,,,,188,0,5,,,,,4,,,71,0
72956,note_off,,,,,188,0,1,,,,,0,,,71,0
72956,note_off,,,,,188,0,2,,,,,1,,,71,0
72956,note_off,,,,,188,0,4,,,,,3,,,71,0
72960,note_on,,,,,4,0,5,,,,,4,,,76,108
72960,note_on,,,,,4,0,2,,,,,1,,,76,92
72960,note_on,,,,,0,0,9,,,,,10,,,71,60
72960,note_on,,,,,448,0,9,,,,,10,,,59,60
72960,note_on,,,,,0,0,9,,,,,10,,,64,60
72960,note_on,,,,,448,0,7,,,,,6,,,56,92
72960,note_on,,,,,448,0,3,,,,,2,,,56,92
72960,note_on,,,,,448,0,8,,,,,7,,,44,75
72960,note_on,,,,,448,0,10,,,,,11,,,56,60
73148,note_off,,,,,188,0,2,,,,,1,,,76,0
73148,note_off,,,,,188,0,5,,,,,4,,,76,0
73152,note_on,,,,,4,0,5,,,,,4,,,71,108
73152,note_on,,,,,4,0,2,,,,,1,,,71,92
73152,note_on,,,,,196,0,4,,,,,3,,,71,108
73152,note_on,,,,,196,0,1,,,,,0,,,71,92
73280,note_off,,,,,320,0,7,,,,,6,,,56,0
73280,note_off,,,,,320,0,9,,,,,10,,,59,0
73280,note_off,,,,,0,0,9,,,,,10,,,71,0
73280,note_off,,,,,0,0,9,,,,,10,,,64,0
73280,note_off,,,,,320,0,10,,,,,11,,,56,0
73280,note_off,,,,,320,0,8,,,,,7,,,44,0
73280,note_off,,,,,320,0,3,,,,,2,,,56,0
73340,note_off,,,,,188,0,1,,,,,0,,,71,0
73340,note_off,,,,,188,0,2,,,,,1,,,71,0
73340,note_off,,,,,188,0,4,,,,,3,,,71,0
73340,note_off,,,,,188,0,5,,,,,4,,,71,0
73344,note_on,,,,,4,0,1,,,,,0,,,76,92
73344,note_on,,,,,64,0,8,,,,,7,,,40,75
73344,note_on,,,,,4,0,4,,,,,3,,,76,108
73344,note_on,,,,,64,0,9,,,,,10,,,59,60
73344,note_on,,,,,64,0,7,,,,,6,,,52,92
73344,note_on,,,,,0,0,9,,,,,10,,,64,60
73344,note_on,,,,,0,0,9,,,,,10,,,68,60
73344,note_on,,,,,4,0,5,,,,,4,,,68,108
73344,note_on,,,,,64,0,3,,,,,2,,,52,92
73344,note_on,,,,,4,0,2,,,,,1,,,68,92
73344,note_on,,,,,64,0,10,,,,,11,,,52,60
73532,note_off,,,,,188,0,1,,,,,0,,,76,0
73532,note_off,,,,,188,0,4,,,,,3,,,76,0
73536,note_on,,,,,4,0,1,,,,,0,,,68,92
73536,note_on,,,,,4,0,4,,,,,3,,,68,108
73664,note_off,,,,,0,0,9,,,,,10,,,64,0
73664,note_off,,,,,0,0,9,,,,,10,,,68,0
73664,note_off,,,,,320,0,5,,,,,4,,,68,0
73664,note_off,,,,,320,0,8,,,,,7,,,40,0
73664,note_off,,,,,320,0,7,,,,,6,,,52,0
73664,note_off,,,,,320,0,3,,,,,2,,,52,0
73664,note_off,,,,,320,0,10,,,,,11,,,52,0
73664,note_off,,,,,320,0,9,,,,,10,,,59,0
73664,note_off,,,,,320,0,2,,,,,1,,,68,0
73724,note_off,,,,,188,0,4,,,,,3,,,68,0
73724,note_off,,,,,188,0,1,,,,,0,,,68,0
73728,note_on,,,,,4,0,4,,,,,3,,,69,108
73728,note_on,,,,,4,0,1,,,,,0,,,69,92
73728,note_on,,,,,832,0,6,,,,,5,,,60,92
73824,note_off,,,,,96,0,4,,,,,3,,,69,0
73824,note_on,,,,,0,0,4,,,,,3,,,71,108
73824,note_off,,,,,96,0,1,,,,,0,,,69,0
73824,note_on,,,,,0,0,1,,,,,0,,,71,92
73920,note_on,,,,,0,0,1,,,,,0,,,72,92
73920,note_off,,,,,96,0,1,,,,,0,,,71,0
73920,note_on,,,,,0,0,4,,,,,3,,,72,108
73920,note_off,,,,,96,0,4,,,,,3,,,71,0
73920,note_on,,,,,256,0,5,,,,,4,,,64,108
73920,note_on,,,,,256,0,2,,,,,1,,,64,92
74048,note_off,,,,,320,0,6,,,,,5,,,60,0
74108,note_off,,,,,188,0,2,,,,,1,,,64,0
74108,note_off,,,,,188,0,4,,,,,3,,,72,0
74108,note_off,,,,,188,0,1,,,,,0,,,72,0
74108,note_off,,,,,188,0,5,,,,,4,,,64,0
74112,note_on,,,,,448,0,3,,,,,2,,,57,92
74112,note_on,,,,,448,0,8,,,,,7,,,45,75
74112,note_on,,,,,448,0,9,,,,,10,,,60,60
74112,note_on,,,,,448,0,10,,,,,11,,,57,60
74112,note_on,,,,,4,0,2,,,,,1,,,57,92
74112,note_on,,,,,0,0,9,,,,,10,,,64,60
74112,note_on,,,,,448,0,7,,,,,6,,,57,92
74112,note_on,,,,,0,0,9,,,,,10,,,69,60
74112,note_on,,,,,4,0,5,,,,,4,,,57,108
74304,note_on,,,,,196,0,1,,,,,0,,,69,92
74304,note_on,,,,,196,0,4,,,,,3,,,69,108
74432,note_off,,,,,320,0,3,,,,,2,,,57,0
74432,note_off,,,,,0,0,9,,,,,10,,,69,0
74432,note_off,,,,,320,0,10,,,,,11,,,57,0
74432,note_off,,,,,0,0,9,,,,,10,,,64,0
74432,note_off,,,,,320,0,9,,,,,10,,,60,0
74432,note_off,,,,,320,0,2,,,,,1,,,57,0
74432,note_off,,,,,320,0,5,,,,,4,,,57,0
74432,note_off,,,,,320,0,8,,,,,7,,,45,0
74432,note_off,,,,,320,0,7,,,,,6,,,57,0
74492,note_off,,,,,188,0,1,,,,,0,,,69,0
74492,note_off,,,,,188,0,4,,,,,3,,,69,0
74496,note_on,,,,,4,0,4,,,,,3,,,71,108
74496,note_on,,,,,64,0,3,,,,,2,,,55,92
74496,note_on,,,,,0,0,9,,,,,10,,,64,60
74496,note_on,,,,,64,0,9,,,,,10,,,60,60
74496,note_on,,,,,64,0,10,,,,,11,,,55,60
74496,note_on,,,,,4,0,1,,,,,0,,,71,92
74496,note_on,,,,,64,0,7,,,,,6,,,55,92
74496,note_on,,,,,0,0,9,,,,,10,,,69,60
74496,note_on,,,,,64,0,8,,,,,7,,,43,75
74688,note_off,,,,,192,0,1,,,,,0,,,71,0
74688,note_on,,,,,0,0,4,,,,,3,,,69,108
74688,note_on,,,,,0,0,1,,,,,0,,,69,92
74688,note_off,,,,,192,0,4,,,,,3,,,71,0
74816,note_off,,,,,320,0,7,,,,,6,,,55,0
74816,note_off,,,,,320,0,3,,,,,2,,,55,0
74816,note_off,,,,,320,0,8,,,,,7,,,43,0
74816,note_off,,,,,320,0,10,,,,,11,,,55,0
74816,note_off,,,,,0,0,9,,,,,10,,,64,0
74816,note_off,,,,,320,0,9,,,,,10,,,60,0
74816,note_off,,,,,0,0,9,,,,,10,,,69,0
74876,note_off,,,,,188,0,4,,,,,3,,,69,0
74876,note_off,,,,,188,0,1,,,,,0,,,69,0
74880,note_on,,,,,4,0,4,,,,,3,,,72,127
74880,note_on,,,,,4,0,1,,,,,0,,,72,127
74880,note_on,,,,,832,0,6,,,,,5,,,69,92
75068,note_off,,,,,188,0,4,,,,,3,,,72,0
75068,note_off,,,,,188,0,1,,,,,0,,,72,0
75072,note_on,,,,,4,0,4,,,,,3,,,69,108
75072,note_on,,,,,4,0,1,,,,,0,,,69,92
75072,note_on,,,,,640,0,5,,,,,4,,,69,108
75072,note_on,,,,,640,0,2,,,,,1,,,69,92
75200,note_off,,,,,320,0,6,,,,,5,,,69,0
75260,note_off,,,,,188,0,1,,,,,0,,,69,0
75260,note_off,,,,,188,0,2,,,,,1,,,69,0
75260,note_off,,,,,188,0,4,,,,,3,,,69,0
75260,note_off,,,,,188,0,5,,,,,4,,,69,0
75264,note_on,,,,,448,0,8,,,,,7,,,42,75
75264,note_on,,,,,4,0,5,,,,,4,,,74,108
75264,note_on,,,,,448,0,10,,,,,11,,,54,60
75264,note_on,,,,,4,0,2,,,,,1,,,74,92
75264,note_on,,,,,448,0,7,,,,,6,,,54,92
75264,note_on,,,,,448,0,3,,,,,2,,,54,92
75264,note_on,,,,,448,0,9,,,,,10,,,62,60
75264,note_on,,,,,0,0,9,,,,,10,,,69,60
75452,note_off,,,,,188,0,2,,,,,1,,,74,0
75452,note_off,,,,,188,0,5,,,,,4,,,74,0
75456,note_on,,,,,196,0,4,,,,,3,,,69,108
75456,note_on,,,,,4,0,2,,,,,1,,,69,92
75456,note_on,,,,,4,0,5,,,,,4,,,69,108
75456,note_on,,,,,196,0,1,,,,,0,,,69,92
75584,note_off,,,,,320,0,8,,,,,7,,,42,0
75584,note_off,,,,,0,0,9,,,,,10,,,69,0
75584,note_off,,,,,320,0,3,,,,,2,,,54,0
75584,note_off,,,,,320,0,9,,,,,10,,,62,0
75584,note_off,,,,,320,0,10,,,,,11,,,54,0
75584,note_off,,,,,320,0,7,,,,,6,,,54,0
75644,note_off,,,,,188,0,2,,,,,1,,,69,0
75644,note_off,,,,,188,0,4,,,,,3,,,69,0
75644,note_off,,,,,188,0,1,,,,,0,,,69,0
75644,note_off,,,,,188,0,5,,,,,4,,,69,0
75648,note_on,,,,,4,0,5,,,,,4,,,66,108
75648,note_on,,,,,64,0,8,,,,,7,,,38,75
75648,note_on,,,,,4,0,4,,,,,3,,,74,108
75648,note_on,,,,,64,0,10,,,,,11,,,50,60
75648,note_on,,,,,64,0,7,,,,,6,,,50,92
75648,note_on,,,,,4,0,2,,,,,1,,,66,92
75648,note_on,,,,,64,0,3,,,,,2,,,50,92
75648,note_on,,,,,4,0,1,,,,,0,,,74,92
75648,note_on,,,,,64,0,9,,,,,10,,,62,60
75648,note_on,,,,,0,0,9,,,,,10,,,66,60
75648,note_on,,,,,0,0,9,,,,,10,,,69,60
75836,note_off,,,,,188,0,1,,,,,0,,,74,0
75836,note_off,,,,,188,0,4,,,,,3,,,74,0
75836,note_off,,,,,188,0,2,,,,,1,,,66,0
75836,note_off,,,,,188,0,5,,,,,4,,,66,0
75840,note_on,,,,,4,0,1,,,,,0,,,66,92
75840,note_on,,,,,4,0,4,,,,,3,,,66,108
75840,note_on,,,,,4,0,5,,,,,4,,,62,108
75840,note_on,,,,,4,0,2,,,,,1,,,62,92
75968,note_off,,,,,0,0,9,,,,,10,,,69,0
75968,note_off,,,,,320,0,10,,,,,11,,,50,0
75968,note_off,,,,,320,0,8,,,,,7,,,38,0
75968,note_off,,,,,320,0,7,,,,,6,,,50,0
75968,note_off,,,,,320,0,9,,,,,10,,,62,0
75968,note_off,,,,,320,0,3,,,,,2,,,50,0
75968,note_off,,,,,0,0,9,,,,,10,,,66,0
76028,note_off,,,,,188,0,5,,,,,4,,,62,0
76028,note_off,,,,,188,0,1,,,,,0,,,66,0
76028,note_off,,,,,188,0,4,,,,,3,,,66,0
76028,note_off,,,,,188,0,2,,,,,1,,,62,0
76032,note_on,,,,,4,0,5,,,,,4,,,59,108
76032,note_on,,,,,832,0,6,,,,,5,,,55,92
76032,note_on,,,,,4,0,4,,,,,3,,,67,108
76032,note_on,,,,,4,0,1,,,,,0,,,67,92
76032,note_on,,,,,4,0,2,,,,,1,,,59,92
76124,note_off,,,,,92,0,4,,,,,3,,,67,0
76124,note_off,,,,,92,0,1,,,,,0,,,67,0
76128,note_on,,,,,4,0,4,,,,,3,,,69,108
76128,note_on,,,,,4,0,1,,,,,0,,,69,92
76220,note_off,,,,,92,0,4,,,,,3,,,69,0
76220,note_off,,,,,92,0,1,,,,,0,,,69,0
76224,note_on,,,,,4,0,4,,,,,3,,,71,108
76224,note_on,,,,,4,0,1,,,,,0,,,71,92
76352,note_off,,,,,320,0,6,,,,,5,,,55,0
76352,note_off,,,,,320,0,2,,,,,1,,,59,0
76352,note_off,,,,,320,0,5,,,,,4,,,59,0
76412,note_off,,,,,188,0,4,,,,,3,,,71,0
76412,note_off,,,,,188,0,1,,,,,0,,,71,0
76416,note_on,,,,,448,0,9,,,,,10,,,59,60
76416,note_on,,,,,4,0,4,,,,,3,,,83,108
76416,note_on,,,,,448,0,10,,,,,11,,,55,60
76416,note_on,,,,,4,0,1,,,,,0,,,83,92
76416,note_on,,,,,448,0,3,,,,,2,,,55,92
76416,note_on,,,,,448,0,7,,,,,6,,,55,92
76416,note_on,,,,,0,0,9,,,,,10,,,62,60
76416,note_on,,,,,0,0,9,,,,,10,,,67,60
76416,note_on,,,,,448,0,8,,,,,7,,,43,75
76608,note_on,,,,,256,0,5,,,,,4,,,71,108
76608,note_on,,,,,256,0,2,,,,,1,,,71,92
76736,note_off,,,,,320,0,8,,,,,7,,,43,0
76736,note_off,,,,,0,0,9,,,,,10,,,67,0
76736,note_off,,,,,0,0,9,,,,,10,,,62,0
76736,note_off,,,,,320,0,9,,,,,10,,,59,0
76736,note_off,,,,,320,0,7,,,,,6,,,55,0
76736,note_off,,,,,320,0,3,,,,,2,,,55,0
76736,note_off,,,,,320,0,10,,,,,11,,,55,0
76796,note_off,,,,,188,0,2,,,,,1,,,71,0
76796,note_off,,,,,188,0,5,,,,,4,,,71,0
76800,note_on,,,,,64,0,7,,,,,6,,,57,92
76800,note_on,,,,,64,0,8,,,,,7,,,45,75
76800,note_on,,,,,64,0,10,,,,,11,,,57,60
76800,note_on,,,,,64,0,3,,,,,2,,,57,92
76800,note_on,,,,,0,0,9,,,,,10,,,66,60
76800,note_on,,,,,4,0,5,,,,,4,,,72,108
76800,note_on,,,,,64,0,9,,,,,10,,,60,60
76800,note_on,,,,,4,0,2,,,,,1,,,72,92
76992,note_off,,,,,192,0,5,,,,,4,,,72,0
76992,note_on,,,,,0,0,2,,,,,1,,,71,92
76992,note_off,,,,,192,0,2,,,,,1,,,72,0
76992,note_on,,,,,0,0,5,,,,,4,,,71,108
77120,note_off,,,,,320,0,9,,,,,10,,,60,0
77120,note_off,,,,,0,0,9,,,,,10,,,66,0
77120,note_off,,,,,320,0,3,,,,,2,,,57,0
77120,note_off,,,,,320,0,8,,,,,7,,,45,0
77120,note_off,,,,,320,0,7,,,,,6,,,57,0
77120,note_off,,,,,320,0,10,,,,,11,,,57,0
77180,note_off,,,,,188,0,2,,,,,1,,,71,0
77180,note_off,,,,,188,0,5,,,,,4,,,71,0
77184,note_on,,,,,64,0,3,,,,,2,,,59,92
77184,note_on,,,,,0,0,9,,,,,10,,,67,60
77184,note_on,,,,,64,0,10,,,,,11,,,59,60
77184,note_on,,,,,64,0,9,,,,,10,,,62,60
77184,note_on,,,,,64,0,7,,,,,6,,,59,92
77184,note_on,,,,,4,0,5,,,,,4,,,74,108
77184,note_on,,,,,4,0,2,,,,,1,,,74,92
77184,note_on,,,,,64,0,8,,,,,7,,,47,75
77372,note_off,,,,,188,0,2,,,,,1,,,74,0
77372,note_off,,,,,188,0,5,,,,,4,,,74,0
77376,note_on,,,,,4,0,2,,,,,1,,,71,92
77376,note_on,,,,,4,0,5,,,,,4,,,71,108
77376,note_on,,,,,1024,0,6,,,,,5,,,71,92
77504,note_off,,,,,320,0,3,,,,,2,,,59,0
77504,note_off,,,,,320,0,10,,,,,11,,,59,0
77504,note_off,,,,,320,0,8,,,,,7,,,47,0
77504,note_off,,,,,320,0,7,,,,,6,,,59,0
77504,note_off,,,,,320,0,9,,,,,10,,,67,0
77564,note_off,,,,,188,0,6,,,,,5,,,71,0
77564,note_off,,,,,188,0,2,,,,,1,,,71,0
77564,note_off,,,,,188,0,5,,,,,4,,,71,0
77568,note_on,,,,,64,0,10,,,,,11,,,56,60
77568,note_on,,,,,64,0,3,,,,,2,,,56,92
77568,note_on,,,,,0,0,9,,,,,10,,,71,60
77568,note_on,,,,,4,0,6,,,,,5,,,76,92
77568,note_on,,,,,64,0,9,,,,,10,,,64,60
77568,note_on,,,,,64,0,7,,,,,6,,,56,92
77568,note_on,,,,,64,0,8,,,,,7,,,44,75
77756,note_off,,,,,188,0,6,,,,,5,,,76,0
77760,note_on,,,,,196,0,2,,,,,1,,,71,92
77760,note_on,,,,,196,0,5,,,,,4,,,71,108
77760,note_on,,,,,4,0,6,,,,,5,,,71,92
77888,note_off,,,,,0,0,9,,,,,10,,,71,0
77888,note_off,,,,,320,0,10,,,,,11,,,56,0
77888,note_off,,,,,0,0,9,,,,,10,,,64,0
77888,note_off,,,,,320,0,9,,,,,10,,,62,0
77888,note_off,,,,,320,0,7,,,,,6,,,56,0
77888,note_off,,,,,320,0,3,,,,,2,,,56,0
77888,note_off,,,,,320,0,8,,,,,7,,,44,0
77948,note_off,,,,,188,0,6,,,,,5,,,71,0
77948,note_off,,,,,188,0,2,,,,,1,,,71,0
77948,note_off,,,,,188,0,5,,,,,4,,,71,0
77952,note_on,,,,,4,0,5,,,,,4,,,76,108
77952,note_on,,,,,4,0,6,,,,,5,,,68,92
77952,note_on,,,,,4,0,2,,,,,1,,,76,92
78140,note_off,,,,,188,0,2,,,,,1,,,76,0
78140,note_off,,,,,188,0,5,,,,,4,,,76,0
78144,note_on,,,,,4,0,2,,,,,1,,,68,92
78144,note_on,,,,,4,0,5,,,,,4,,,68,108
78240,note_off,,,,,1824,0,1,,,,,0,,,83,0
78240,note_off,,,,,1824,0,4,,,,,3,,,83,0
78272,note_off,,,,,320,0,6,,,,,5,,,68,0
78332,note_off,,,,,188,0,2,,,,,1,,,68,0
78332,note_off,,,,,188,0,5,,,,,4,,,68,0
78336,note_on,,,,,96,0,4,,,,,3,,,76,108
78336,note_on,,,,,96,0,1,,,,,0,,,76,92
78336,note_on,,,,,4,0,5,,,,,4,,,69,108
78336,note_on,,,,,4,0,2,,,,,1,,,69,92
78428,note_off,,,,,92,0,2,,,,,1,,,69,0
78428,note_off,,,,,92,0,5,,,,,4,,,69,0
78432,note_on,,,,,4,0,2,,,,,1,,,71,92
78432,note_on,,,,,4,0,5,,,,,4,,,71,108
78524,note_off,,,,,92,0,5,,,,,4,,,71,0
78524,note_off,,,,,92,0,2,,,,,1,,,71,0
78528,note_on,,,,,4,0,5,,,,,4,,,72,108
78528,note_on,,,,,4,0,2,,,,,1,,,72,92
78528,note_on,,,,,256,0,6,,,,,5,,,69,92
78656,note_off,,,,,320,0,4,,,,,3,,,76,0
78656,note_off,,,,,320,0,1,,,,,0,,,76,0
78716,note_off,,,,,188,0,2,,,,,1,,,72,0
78716,note_off,,,,,188,0,5,,,,,4,,,72,0
78716,note_off,,,,,188,0,6,,,,,5,,,69,0
78720,note_on,,,,,0,0,9,,,,,10,,,64,60
78720,note_on,,,,,0,0,9,,,,,10,,,69,60
78720,note_on,,,,,832,0,7,,,,,6,,,57,92
78720,note_on,,,,,4,0,6,,,,,5,,,64,92
78720,note_on,,,,,832,0,8,,,,,7,,,45,75
78720,note_on,,,,,832,0,10,,,,,11,,,57,60
78720,note_on,,,,,832,0,9,,,,,10,,,60,60
78720,note_on,,,,,64,0,1,,,,,0,,,84,92
78720,note_on,,,,,832,0,3,,,,,2,,,57,92
78720,note_on,,,,,64,0,4,,,,,3,,,84,108
78912,note_on,,,,,196,0,2,,,,,1,,,71,92
78912,note_on,,,,,196,0,5,,,,,4,,,71,108
79040,note_off,,,,,320,0,6,,,,,5,,,64,0
79040,note_off,,,,,320,0,7,,,,,6,,,57,0
79040,note_off,,,,,320,0,8,,,,,7,,,45,0
79040,note_off,,,,,320,0,9,,,,,10,,,60,0
79040,note_off,,,,,320,0,3,,,,,2,,,57,0
79040,note_off,,,,,0,0,9,,,,,10,,,69,0
79040,note_off,,,,,0,0,9,,,,,10,,,64,0
79040,note_off,,,,,320,0,10,,,,,11,,,57,0
79100,note_off,,,,,188,0,5,,,,,4,,,71,0
79100,note_off,,,,,188,0,2,,,,,1,,,71,0
79104,note_on,,,,,0,0,9,,,,,10,,,66,60
79104,note_on,,,,,4,0,5,,,,,4,,,72,108
79104,note_on,,,,,64,0,10,,,,,11,,,54,60
79104,note_on,,,,,64,0,3,,,,,2,,,54,92
79104,note_on,,,,,4,0,2,,,,,1,,,72,92
79104,note_on,,,,,64,0,8,,,,,7,,,42,75
79104,note_on,,,,,0,0,9,,,,,10,,,69,60
79104,note_on,,,,,64,0,9,,,,,10,,,60,60
79104,note_on,,,,,64,0,7,,,,,6,,,54,92
79296,note_off,,,,,192,0,2,,,,,1,,,72,0
79296,note_on,,,,,0,0,2,,,,,1,,,69,92
79296,note_on,,,,,0,0,5,,,,,4,,,69,108
79296,note_off,,,,,192,0,5,,,,,4,,,72,0
79424,note_off,,,,,320,0,8,,,,,7,,,42,0
79424,note_off,,,,,320,0,10,,,,,11,,,54,0
79424,note_off,,,,,0,0,9,,,,,10,,,69,0
79424,note_off,,,,,0,0,9,,,,,10,,,66,0
79424,note_off,,,,,320,0,9,,,,,10,,,60,0
79424,note_off,,,,,320,0,3,,,,,2,,,54,0
79424,note_off,,,,,320,0,7,,,,,6,,,54,0
79484,note_off,,,,,188,0,5,,,,,4,,,69,0
79484,note_off,,,,,188,0,2,,,,,1,,,69,0
79488,note_on,,,,,4,0,2,,,,,1,,,78,92
79488,note_on,,,,,0,0,9,,,,,10,,,69,60
79488,note_on,,,,,0,0,9,,,,,10,,,66,60
79488,note_on,,,,,64,0,9,,,,,10,,,60,60
79488,note_on,,,,,64,0,10,,,,,11,,,51,60
79488,note_on,,,,,4,0,5,,,,,4,,,78,108
79488,note_on,,,,,64,0,8,,,,,7,,,39,75
79488,note_on,,,,,64,0,7,,,,,6,,,51,92
79488,note_on,,,,,64,0,3,,,,,2,,,51,92
79676,note_off,,,,,188,0,5,,,,,4,,,78,0
79676,note_off,,,,,956,0,1,,,,,0,,,84,0
79676,note_off,,,,,188,0,2,,,,,1,,,78,0
79676,note_off,,,,,956,0,4,,,,,3,,,84,0
79680,note_on,,,,,4,0,4,,,,,3,,,84,108
79680,note_on,,,,,4,0,1,,,,,0,,,84,92
79680,note_on,,,,,640,0,6,,,,,5,,,66,92
79680,note_on,,,,,4,0,5,,,,,4,,,66,108
79680,note_on,,,,,4,0,2,,,,,1,,,66,92
79808,note_off,,,,,320,0,3,,,,,2,,,51,0
79808,note_off,,,,,320,0,8,,,,,7,,,39,0
79808,note_off,,,,,320,0,9,,,,,10,,,60,0
79808,note_off,,,,,0,0,9,,,,,10,,,66,0
79808,note_off,,,,,0,0,9,,,,,10,,,69,0
79808,note_off,,,,,320,0,10,,,,,11,,,51,0
79808,note_off,,,,,320,0,7,,,,,6,,,51,0
79868,note_off,,,,,188,0,2,,,,,1,,,66,0
79868,note_off,,,,,188,0,6,,,,,5,,,66,0
79868,note_off,,,,,188,0,5,,,,,4,,,66,0
79868,note_off,,,,,188,0,4,,,,,3,,,84,0
79868,note_off,,,,,188,0,1,,,,,0,,,84,0
79872,note_on,,,,,64,0,9,,,,,10,,,66,60
79872,note_on,,,,,64,0,8,,,,,7,,,51,75
79872,note_on,,,,,64,0,3,,,,,2,,,63,92
79872,note_on,,,,,64,0,10,,,,,11,,,63,60
79872,note_on,,,,,4,0,5,,,,,4,,,78,108
79872,note_on,,,,,4,0,4,,,,,3,,,83,108
79872,note_on,,,,,4,0,2,,,,,1,,,78,92
79872,note_on,,,,,4,0,6,,,,,5,,,71,92
79872,note_on,,,,,4,0,1,,,,,0,,,83,92
79872,note_on,,,,,64,0,7,,,,,6,,,63,92
79872,note_on,,,,,0,0,9,,,,,10,,,71,60
80060,note_off,,,,,188,0,4,,,,,3,,,83,0
80060,note_off,,,,,188,0,1,,,,,0,,,83,0
80064,note_on,,,,,4,0,4,,,,,3,,,81,108
80064,note_on,,,,,4,0,1,,,,,0,,,81,92
80252,note_off,,,,,188,0,1,,,,,0,,,81,0
80252,note_off,,,,,188,0,4,,,,,3,,,81,0
80256,note_on,,,,,4,0,4,,,,,3,,,79,108
80256,note_on,,,,,4,0,1,,,,,0,,,79,92
80384,note_off,,,,,512,0,9,,,,,10,,,66,0
80384,note_off,,,,,512,0,6,,,,,5,,,71,0
80384,note_off,,,,,512,0,2,,,,,1,,,78,0
80384,note_off,,,,,512,0,5,,,,,4,,,78,0
80384,note_off,,,,,512,0,3,,,,,2,,,63,0
80384,note_off,,,,,512,0,7,,,,,6,,,63,0
80384,note_off,,,,,512,0,10,,,,,11,,,63,0
80384,note_off,,,,,512,0,8,,,,,7,,,51,0
80384,note_off,,,,,0,0,9,,,,,10,,,71,0
80444,note_off,,,,,188,0,4,,,,,3,,,79,0
80444,note_off,,,,,188,0,1,,,,,0,,,79,0
80448,note_on,,,,,64,0,8,,,,,7,,,47,75
80448,note_on,,,,,64,0,6,,,,,5,,,71,92
80448,note_on,,,,,4,0,1,,,,,0,,,78,92
80448,note_on,,,,,64,0,10,,,,,11,,,59,60
80448,note_on,,,,,64,0,3,,,,,2,,,59,92
80448,note_on,,,,,64,0,5,,,,,4,,,75,108
80448,note_on,,,,,64,0,7,,,,,6,,,59,92
80448,note_on,,,,,64,0,2,,,,,1,,,75,92
80448,note_on,,,,,0,0,9,,,,,10,,,71,60
80448,note_on,,,,,0,0,9,,,,,10,,,66,60
80448,note_on,,,,,4,0,4,,,,,3,,,78,108
80448,note_on,,,,,64,0,9,,,,,10,,,63,60
80636,note_off,,,,,188,0,8,,,,,7,,,47,0
80636,note_off,,,,,188,0,3,,,,,2,,,59,0
80636,note_off,,,,,188,0,2,,,,,1,,,75,0
80636,note_off,,,,,188,0,6,,,,,5,,,71,0
80636,note_off,,,,,188,0,9,,,,,10,,,63,0
80636,note_off,,,,,188,0,4,,,,,3,,,78,0
80636,note_off,,,,,0,0,9,,,,,10,,,66,0
80636,note_off,,,,,0,0,9,,,,,10,,,71,0
80636,note_off,,,,,188,0,10,,,,,11,,,59,0
80636,note_off,,,,,188,0,5,,,,,4,,,75,0
80636,note_off,,,,,188,0,1,,,,,0,,,78,0
80636,note_off,,,,,188,0,7,,,,,6,,,59,0
80640,note_on,,,,,4,0,5,,,,,4,,,76,108
80640,note_on,,,,,4,0,10,,,,,11,,,64,60
80640,note_on,,,,,4,0,2,,,,,1,,,76,92
80640,note_on,,,,,4,0,1,,,,,0,,,79,92
80640,note_on,,,,,4,0,7,,,,,6,,,64,92
80640,note_on,,,,,4,0,8,,,,,7,,,52,75
80640,note_on,,,,,4,0,3,,,,,2,,,64,92
80640,note_on,,,,,4,0,4,,,,,3,,,79,108
80640,note_on,,,,,4,0,9,,,,,10,,,67,60
80640,note_on,,,,,0,0,9,,,,,10,,,71,60
80640,note_on,,,,,4,0,6,,,,,5,,,71,92
80732,note_off,,,,,92,0,2,,,,,1,,,76,0
80732,note_off,,,,,92,0,5,,,,,4,,,76,0
80736,note_on,,,,,4,0,2,,,,,1,,,78,92
80736,note_on,,,,,4,0,5,,,,,4,,,78,108
80828,note_off,,,,,92,0,2,,,,,1,,,78,0
80828,note_off,,,,,188,0,1,,,,,0,,,79,0
80828,note_off,,,,,188,0,4,,,,,3,,,79,0
80828,note_off,,,,,92,0,5,,,,,4,,,78,0
80832,note_on,,,,,4,0,1,,,,,0,,,78,92
80832,note_on,,,,,4,0,2,,,,,1,,,79,92
80832,note_on,,,,,4,0,5,,,,,4,,,79,108
80832,note_on,,,,,4,0,4,,,,,3,,,78,108
80924,note_off,,,,,92,0,2,,,,,1,,,79,0
80924,note_off,,,,,92,0,5,,,,,4,,,79,0
80928,note_on,,,,,4,0,5,,,,,4,,,81,108
80928,note_on,,,,,4,0,2,,,,,1,,,81,92
80960,note_off,,,,,320,0,9,,,,,10,,,67,0
80960,note_off,,,,,320,0,7,,,,,6,,,64,0
80960,note_off,,,,,320,0,8,,,,,7,,,52,0
80960,note_off,,,,,320,0,3,,,,,2,,,64,0
80960,note_off,,,,,320,0,10,,,,,11,,,64,0
80960,note_off,,,,,0,0,9,,,,,10,,,71,0
81020,note_off,,,,,92,0,5,,,,,4,,,81,0
81020,note_off,,,,,92,0,2,,,,,1,,,81,0
81020,note_off,,,,,188,0,1,,,,,0,,,78,0
81020,note_off,,,,,188,0,4,,,,,3,,,78,0
81024,note_on,,,,,4,0,4,,,,,3,,,76,108
81024,note_on,,,,,4,0,2,,,,,1,,,83,92
81024,note_on,,,,,64,0,8,,,,,7,,,43,75
81024,note_on,,,,,64,0,7,,,,,6,,,55,92
81024,note_on,,,,,4,0,1,,,,,0,,,76,92
81024,note_on,,,,,64,0,10,,,,,11,,,55,60
81024,note_on,,,,,0,0,9,,,,,10,,,76,60
81024,note_on,,,,,0,0,9,,,,,10,,,71,60
81024,note_on,,,,,64,0,9,,,,,10,,,64,60
81024,note_on,,,,,64,0,3,,,,,2,,,55,92
81024,note_on,,,,,4,0,5,,,,,4,,,83,108
81152,note_off,,,,,512,0,6,,,,,5,,,71,0
81212,note_off,,,,,188,0,2,,,,,1,,,83,0
81212,note_off,,,,,188,0,5,,,,,4,,,83,0
81216,note_on,,,,,4,0,2,,,,,1,,,76,92
81216,note_on,,,,,4,0,5,,,,,4,,,76,108
81216,note_on,,,,,64,0,6,,,,,5,,,67,92
81344,note_off,,,,,0,0,9,,,,,10,,,71,0
81344,note_off,,,,,320,0,8,,,,,7,,,43,0
81344,note_off,,,,,320,0,7,,,,,6,,,55,0
81344,note_off,,,,,0,0,9,,,,,10,,,76,0
81344,note_off,,,,,320,0,9,,,,,10,,,64,0
81344,note_off,,,,,320,0,10,,,,,11,,,55,0
81344,note_off,,,,,320,0,1,,,,,0,,,76,0
81344,note_off,,,,,320,0,4,,,,,3,,,76,0
81344,note_off,,,,,320,0,3,,,,,2,,,55,0
81404,note_off,,,,,188,0,5,,,,,4,,,76,0
81404,note_off,,,,,188,0,2,,,,,1,,,76,0
81404,note_off,,,,,188,0,6,,,,,5,,,67,0
81408,note_on,,,,,64,0,9,,,,,10,,,64,60
81408,note_on,,,,,64,0,8,,,,,7,,,45,75
81408,note_on,,,,,64,0,7,,,,,6,,,57,92
81408,note_on,,,,,64,0,3,,,,,2,,,57,92
81408,note_on,,,,,64,0,10,,,,,11,,,57,60
81408,note_on,,,,,4,0,6,,,,,5,,,64,92
81408,note_on,,,,,4,0,2,,,,,1,,,84,92
81408,note_on,,,,,4,0,5,,,,,4,,,84,108
81408,note_on,,,,,0,0,9,,,,,10,,,72,60
81408,note_on,,,,,0,0,9,,,,,10,,,69,60
81596,note_off,,,,,188,0,2,,,,,1,,,84,0
81596,note_off,,,,,188,0,6,,,,,5,,,64,0
81596,note_off,,,,,188,0,5,,,,,4,,,84,0
81600,note_on,,,,,4,0,2,,,,,1,,,81,92
81600,note_on,,,,,4,0,5,,,,,4,,,81,108
81600,note_on,,,,,4,0,6,,,,,5,,,66,92
81728,note_off,,,,,320,0,9,,,,,10,,,64,0
81728,note_off,,,,,320,0,7,,,,,6,,,57,0
81728,note_off,,,,,0,0,9,,,,,10,,,69,0
81728,note_off,,,,,0,0,9,,,,,10,,,72,0
81728,note_off,,,,,320,0,10,,,,,11,,,57,0
81728,note_off,,,,,320,0,8,,,,,7,,,45,0
81728,note_off,,,,,320,0,3,,,,,2,,,57,0
81788,note_off,,,,,188,0,2,,,,,1,,,81,0
81788,note_off,,,,,188,0,5,,,,,4,,,81,0
81788,note_off,,,,,188,0,6,,,,,5,,,66,0
81792,note_on,,,,,0,0,9,,,,,10,,,71,60
81792,note_on,,,,,64,0,8,,,,,7,,,40,75
81792,note_on,,,,,4,0,6,,,,,5,,,67,92
81792,note_on,,,,,64,0,9,,,,,10,,,67,60
81792,note_on,,,,,448,0,4,,,,,3,,,76,108
81792,note_on,,,,,64,0,10,,,,,11,,,52,60
81792,note_on,,,,,64,0,3,,,,,2,,,52,92
81792,note_on,,,,,4,0,5,,,,,4,,,83,108
81792,note_on,,,,,4,0,2,,,,,1,,,83,92
81792,note_on,,,,,448,0,1,,,,,0,,,76,92
81792,note_on,,,,,64,0,7,,,,,6,,,52,92
81884,note_off,,,,,92,0,1,,,,,0,,,76,0
81884,note_off,,,,,92,0,4,,,,,3,,,76,0
81888,note_on,,,,,4,0,1,,,,,0,,,78,92
81888,note_on,,,,,4,0,4,,,,,3,,,78,108
81980,note_off,,,,,188,0,5,,,,,4,,,83,0
81980,note_off,,,,,92,0,4,,,,,3,,,78,0
81980,note_off,,,,,92,0,1,,,,,0,,,78,0
81980,note_off,,,,,188,0,2,,,,,1,,,83,0
81984,note_on,,,,,4,0,4,,,,,3,,,79,108
81984,note_on,,,,,4,0,5,,,,,4,,,71,108
81984,note_on,,,,,4,0,1,,,,,0,,,79,92
81984,note_on,,,,,4,0,2,,,,,1,,,71,92
82076,note_off,,,,,92,0,1,,,,,0,,,79,0
82076,note_off,,,,,92,0,4,,,,,3,,,79,0
82080,note_on,,,,,4,0,4,,,,,3,,,81,108
82080,note_on,,,,,4,0,1,,,,,0,,,81,92
82112,note_off,,,,,320,0,7,,,,,6,,,52,0
82112,note_off,,,,,320,0,8,,,,,7,,,40,0
82112,note_off,,,,,320,0,9,,,,,10,,,67,0
82112,note_off,,,,,0,0,9,,,,,10,,,71,0
82112,note_off,,,,,320,0,10,,,,,11,,,52,0
82112,note_off,,,,,320,0,3,,,,,2,,,52,0
82172,note_off,,,,,188,0,2,,,,,1,,,71,0
82172,note_off,,,,,92,0,4,,,,,3,,,81,0
82172,note_off,,,,,92,0,1,,,,,0,,,81,0
82172,note_off,,,,,188,0,5,,,,,4,,,71,0
82176,note_on,,,,,4,0,4,,,,,3,,,83,108
82176,note_on,,,,,64,0,10,,,,,11,,,55,60
82176,note_on,,,,,64,0,3,,,,,2,,,55,92
82176,note_on,,,,,4,0,5,,,,,4,,,76,108
82176,note_on,,,,,64,0,9,,,,,10,,,64,60
82176,note_on,,,,,0,0,9,,,,,10,,,71,60
82176,note_on,,,,,0,0,9,,,,,10,,,76,60
82176,note_on,,,,,4,0,1,,,,,0,,,83,92
82176,note_on,,,,,64,0,7,,,,,6,,,55,92
82176,note_on,,,,,4,0,2,,,,,1,,,76,92
82176,note_on,,,,,64,0,8,,,,,7,,,43,75
82304,note_off,,,,,512,0,6,,,,,5,,,67,0
82364,note_off,,,,,188,0,4,,,,,3,,,83,0
82364,note_off,,,,,188,0,1,,,,,0,,,83,0
82368,note_on,,,,,4,0,1,,,,,0,,,76,92
82368,note_on,,,,,64,0,6,,,,,5,,,71,92
82368,note_on,,,,,4,0,4,,,,,3,,,76,108
82496,note_off,,,,,0,0,9,,,,,10,,,71,0
82496,note_off,,,,,0,0,9,,,,,10,,,76,0
82496,note_off,,,,,320,0,9,,,,,10,,,64,0
82496,note_off,,,,,320,0,7,,,,,6,,,55,0
82496,note_off,,,,,320,0,5,,,,,4,,,76,0
82496,note_off,,,,,320,0,3,,,,,2,,,55,0
82496,note_off,,,,,320,0,10,,,,,11,,,55,0
82496,note_off,,,,,320,0,2,,,,,1,,,76,0
82496,note_off,,,,,320,0,8,,,,,7,,,43,0
82556,note_off,,,,,188,0,6,,,,,5,,,71,0
82556,note_off,,,,,188,0,1,,,,,0,,,76,0
82556,note_off,,,,,188,0,4,,,,,3,,,76,0
82560,note_on,,,,,64,0,3,,,,,2,,,57,92
82560,note_on,,,,,4,0,6,,,,,5,,,64,92
82560,note_on,,,,,0,0,9,,,,,10,,,69,60
82560,note_on,,,,,0,0,9,,,,,10,,,72,60
82560,note_on,,,,,4,0,4,,,,,3,,,84,108
82560,note_on,,,,,64,0,10,,,,,11,,,57,60
82560,note_on,,,,,64,0,9,,,,,10,,,64,60
82560,note_on,,,,,4,0,1,,,,,0,,,84,92
82560,note_on,,,,,64,0,7,,,,,6,,,57,92
82560,note_on,,,,,64,0,8,,,,,7,,,45,75
82748,note_off,,,,,188,0,4,,,,,3,,,84,0
82748,note_off,,,,,188,0,6,,,,,5,,,64,0
82748,note_off,,,,,188,0,1,,,,,0,,,84,0
82752,note_on,,,,,4,0,4,,,,,3,,,81,108
82752,note_on,,,,,4,0,6,,,,,5,,,66,92
82752,note_on,,,,,4,0,1,,,,,0,,,81,92
82880,note_off,,,,,0,0,9,,,,,10,,,72,0
82880,note_off,,,,,320,0,10,,,,,11,,,57,0
82880,note_off,,,,,0,0,9,,,,,10,,,69,0
82880,note_off,,,,,320,0,9,,,,,10,,,64,0
82880,note_off,,,,,320,0,8,,,,,7,,,45,0
82880,note_off,,,,,320,0,7,,,,,6,,,57,0
82880,note_off,,,,,320,0,3,,,,,2,,,57,0
82940,note_off,,,,,188,0,4,,,,,3,,,81,0
82940,note_off,,,,,188,0,1,,,,,0,,,81,0
82940,note_off,,,,,188,0,6,,,,,5,,,66,0
82944,note_on,,,,,64,0,8,,,,,7,,,43,75
82944,note_on,,,,,4,0,4,,,,,3,,,83,108
82944,note_on,,,,,64,0,9,,,,,10,,,64,60
82944,note_on,,,,,0,0,9,,,,,10,,,71,60
82944,note_on,,,,,64,0,7,,,,,6,,,55,92
82944,note_on,,,,,64,0,10,,,,,11,,,55,60
82944,note_on,,,,,4,0,6,,,,,5,,,67,92
82944,note_on,,,,,64,0,3,,,,,2,,,55,92
82944,note_on,,,,,4,0,1,,,,,0,,,83,92
83132,note_off,,,,,188,0,4,,,,,3,,,83,0
83132,note_off,,,,,188,0,1,,,,,0,,,83,0
83136,note_on,,,,,4,0,1,,,,,0,,,76,92
83136,note_on,,,,,4,0,4,,,,,3,,,76,108
83264,note_off,,,,,320,0,6,,,,,5,,,67,0
83264,note_off,,,,,320,0,8,,,,,7,,,43,0
83264,note_off,,,,,320,0,7,,,,,6,,,55,0
83264,note_off,,,,,320,0,9,,,,,10,,,64,0
83264,note_off,,,,,320,0,3,,,,,2,,,55,0
83264,note_off,,,,,320,0,10,,,,,11,,,55,0
83264,note_off,,,,,0,0,9,,,,,10,,,71,0
83324,note_off,,,,,188,0,1,,,,,0,,,76,0
83324,note_off,,,,,188,0,4,,,,,3,,,76,0
83328,note_on,,,,,64,0,10,,,,,11,,,43,60
83328,note_on,,,,,64,0,3,,,,,2,,,43,92
83328,note_on,,,,,64,0,7,,,,,6,,,43,92
83328,note_on,,,,,0,0,9,,,,,10,,,71,60
83328,note_on,,,,,0,0,9,,,,,10,,,64,60
83328,note_on,,,,,64,0,9,,,,,10,,,59,60
83328,note_on,,,,,64,0,8,,,,,7,,,31,75
83328,note_on,,,,,64,0,6,,,,,5,,,59,92
83520,note_on,,,,,1024,0,2,,,,,1,,,64,92
83520,note_on,,,,,1024,0,5,,,,,4,,,64,108
83648,note_off,,,,,320,0,3,,,,,2,,,43,0
83648,note_off,,,,,320,0,8,,,,,7,,,31,0
83648,note_off,,,,,320,0,9,,,,,10,,,59,0
83648,note_off,,,,,0,0,9,,,,,10,,,64,0
83648,note_off,,,,,0,0,9,,,,,10,,,71,0
83648,note_off,,,,,320,0,10,,,,,11,,,43,0
83648,note_off,,,,,320,0,7,,,,,6,,,43,0
83648,note_off,,,,,320,0,6,,,,,5,,,59,0
83708,note_off,,,,,188,0,2,,,,,1,,,64,0
83708,note_off,,,,,188,0,5,,,,,4,,,64,0
83712,note_on,,,,,64,0,10,,,,,11,,,45,60
83712,note_on,,,,,4,0,2,,,,,1,,,65,92
83712,note_on,,,,,64,0,6,,,,,5,,,60,92
83712,note_on,,,,,64,0,8,,,,,7,,,33,75
83712,note_on,,,,,64,0,3,,,,,2,,,45,92
83712,note_on,,,,,64,0,7,,,,,6,,,45,92
83712,note_on,,,,,0,0,9,,,,,10,,,65,60
83712,note_on,,,,,4,0,5,,,,,4,,,65,108
83712,note_on,,,,,64,0,9,,,,,10,,,60,60
83712,note_on,,,,,0,0,9,,,,,10,,,69,60
83904,note_on,,,,,0,0,2,,,,,1,,,64,92
83904,note_off,,,,,192,0,2,,,,,1,,,65,0
83904,note_off,,,,,192,0,5,,,,,4,,,65,0
83904,note_on,,,,,0,0,5,,,,,4,,,64,108
84032,note_off,,,,,0,0,9,,,,,10,,,65,0
84032,note_off,,,,,320,0,8,,,,,7,,,33,0
84032,note_off,,,,,320,0,9,,,,,10,,,60,0
84032,note_off,,,,,0,0,9,,,,,10,,,69,0
84032,note_off,,,,,320,0,6,,,,,5,,,60,0
84032,note_off,,,,,320,0,7,,,,,6,,,45,0
84032,note_off,,,,,320,0,10,,,,,11,,,45,0
84032,note_off,,,,,320,0,3,,,,,2,,,45,0
84092,note_off,,,,,188,0,5,,,,,4,,,64,0
84092,note_off,,,,,188,0,2,,,,,1,,,64,0
84096,note_on,,,,,64,0,9,,,,,10,,,59,60
84096,note_on,,,,,0,0,9,,,,,10,,,64,60
84096,note_on,,,,,0,0,9,,,,,10,,,67,60
84096,note_on,,,,,64,0,7,,,,,6,,,40,92
84096,note_on,,,,,4,0,5,,,,,4,,,67,127
84096,note_on,,,,,64,0,3,,,,,2,,,40,92
84096,note_on,,,,,64,0,6,,,,,5,,,59,92
84096,note_on,,,,,64,0,8,,,,,7,,,28,75
84096,note_on,,,,,4,0,2,,,,,1,,,67,127
84096,note_on,,,,,64,0,10,,,,,11,,,40,60
84284,note_off,,,,,188,0,5,,,,,4,,,67,0
84284,note_off,,,,,188,0,2,,,,,1,,,67,0
84288,note_on,,,,,4,0,2,,,,,1,,,64,92
84288,note_on,,,,,4,0,5,,,,,4,,,64,108
84416,note_off,,,,,320,0,7,,,,,6,,,40,0
84416,note_off,,,,,320,0,8,,,,,7,,,28,0
84416,note_off,,,,,320,0,10,,,,,11,,,40,0
84416,note_off,,,,,320,0,9,,,,,10,,,59,0
84416,note_off,,,,,0,0,9,,,,,10,,,64,0
84416,note_off,,,,,320,0,6,,,,,5,,,59,0
84416,note_off,,,,,0,0,9,,,,,10,,,67,0
84416,note_off,,,,,320,0,3,,,,,2,,,40,0
84476,note_off,,,,,188,0,2,,,,,1,,,64,0
84476,note_off,,,,,188,0,5,,,,,4,,,64,0
84480,note_on,,,,,64,0,6,,,,,5,,,55,92
84480,note_on,,,,,0,0,9,,,,,10,,,64,60
84480,note_on,,,,,0,0,9,,,,,10,,,59,60
84480,note_on,,,,,64,0,9,,,,,10,,,55,60
84480,note_on,,,,,64,0,10,,,,,11,,,52,60
84480,note_on,,,,,64,0,8,,,,,7,,,40,75
84480,note_on,,,,,64,0,3,,,,,2,,,52,92
84480,note_on,,,,,64,0,7,,,,,6,,,52,92
84672,note_on,,,,,1348,0,1,,,,,0,,,76,92
84672,note_on,,,,,1348,0,4,,,,,3,,,76,108
84800,note_off,,,,,320,0,7,,,,,6,,,52,0
84800,note_off,,,,,320,0,3,,,,,2,,,52,0
84800,note_off,,,,,320,0,10,,,,,11,,,52,0
84800,note_off,,,,,320,0,6,,,,,5,,,55,0
84800,note_off,,,,,320,0,9,,,,,10,,,55,0
84800,note_off,,,,,0,0,9,,,,,10,,,59,0
84800,note_off,,,,,320,0,8,,,,,7,,,40,0
84800,note_off,,,,,0,0,9,,,,,10,,,64,0
84860,note_off,,,,,188,0,1,,,,,0,,,76,0
84860,note_off,,,,,188,0,4,,,,,3,,,76,0
84864,note_on,,,,,4,0,1,,,,,0,,,77,92
84864,note_on,,,,,4,0,4,,,,,3,,,77,108
85052,note_off,,,,,188,0,1,,,,,0,,,77,0
85052,note_off,,,,,188,0,4,,,,,3,,,77,0
85056,note_on,,,,,4,0,1,,,,,0,,,76,92
85056,note_on,,,,,4,0,4,,,,,3,,,76,108
85244,note_off,,,,,188,0,1,,,,,0,,,76,0
85244,note_off,,,,,188,0,4,,,,,3,,,76,0
85248,note_on,,,,,4,0,4,,,,,3,,,79,108
85248,note_on,,,,,4,0,1,,,,,0,,,79,92
85436,note_off,,,,,188,0,4,,,,,3,,,79,0
85436,note_off,,,,,188,0,1,,,,,0,,,79,0
85440,note_on,,,,,4,0,1,,,,,0,,,76,92
85440,note_on,,,,,4,0,4,,,,,3,,,76,108
85628,note_off,,,,,188,0,1,,,,,0,,,76,0
85628,note_off,,,,,188,0,4,,,,,3,,,76,0
85632,note_on,,,,,832,0,9,,,,,10,,,59,60
85632,note_on,,,,,0,0,9,,,,,10,,,64,60
85632,note_on,,,,,832,0,10,,,,,11,,,43,60
85632,note_on,,,,,832,0,6,,,,,5,,,59,92
85632,note_on,,,,,832,0,7,,,,,6,,,43,92
85632,note_on,,,,,832,0,8,,,,,7,,,31,75
85632,note_on,,,,,832,0,3,,,,,2,,,43,92
85824,note_on,,,,,1348,0,5,,,,,4,,,64,108
85824,note_on,,,,,1348,0,2,,,,,1,,,64,92
85952,note_off,,,,,320,0,7,,,,,6,,,43,0
85952,note_off,,,,,320,0,6,,,,,5,,,59,0
85952,note_off,,,,,320,0,3,,,,,2,,,43,0
85952,note_off,,,,,320,0,10,,,,,11,,,43,0
85952,note_off,,,,,320,0,9,,,,,10,,,59,0
85952,note_off,,,,,0,0,9,,,,,10,,,64,0
85952,note_off,,,,,320,0,8,,,,,7,,,31,0
86012,note_off,,,,,188,0,2,,,,,1,,,64,0
86012,note_off,,,,,188,0,5,,,,,4,,,64,0
86016,note_on,,,,,4,0,5,,,,,4,,,65,108
86016,note_on,,,,,64,0,7,,,,,6,,,45,92
86016,note_on,,,,,0,0,9,,,,,10,,,65,60
86016,note_on,,,,,0,0,9,,,,,10,,,60,60
86016,note_on,,,,,64,0,8,,,,,7,,,33,75
86016,note_on,,,,,64,0,9,,,,,10,,,57,60
86016,note_on,,,,,4,0,2,,,,,1,,,65,92
86016,note_on,,,,,64,0,10,,,,,11,,,45,60
86016,note_on,,,,,64,0,3,,,,,2,,,45,92
86016,note_on,,,,,64,0,6,,,,,5,,,60,92
86208,note_off,,,,,192,0,5,,,,,4,,,65,0
86208,note_on,,,,,0,0,5,,,,,4,,,64,108
86208,note_off,,,,,192,0,2,,,,,1,,,65,0
86208,note_on,,,,,0,0,2,,,,,1,,,64,92
86336,note_off,,,,,320,0,6,,,,,5,,,60,0
86336,note_off,,,,,320,0,10,,,,,11,,,45,0
86336,note_off,,,,,0,0,9,,,,,10,,,65,0
86336,note_off,,,,,0,0,9,,,,,10,,,60,0
86336,note_off,,,,,320,0,3,,,,,2,,,45,0
86336,note_off,,,,,320,0,9,,,,,10,,,57,0
86336,note_off,,,,,320,0,7,,,,,6,,,45,0
86336,note_off,,,,,320,0,8,,,,,7,,,33,0
86396,note_off,,,,,188,0,2,,,,,1,,,64,0
86396,note_off,,,,,188,0,5,,,,,4,,,64,0
86400,note_on,,,,,4,0,5,,,,,4,,,71,108
86400,note_on,,,,,64,0,8,,,,,7,,,31,75
86400,note_on,,,,,4,0,2,,,,,1,,,71,92
86400,note_on,,,,,64,0,7,,,,,6,,,43,92
86400,note_on,,,,,64,0,3,,,,,2,,,43,92
86400,note_on,,,,,0,0,9,,,,,10,,,64,60
86400,note_on,,,,,64,0,10,,,,,11,,,43,60
86400,note_on,,,,,64,0,6,,,,,5,,,59,92
86400,note_on,,,,,64,0,9,,,,,10,,,59,60
86588,note_off,,,,,188,0,2,,,,,1,,,71,0
86588,note_off,,,,,188,0,5,,,,,4,,,71,0
86592,note_on,,,,,4,0,5,,,,,4,,,64,108
86592,note_on,,,,,4,0,2,,,,,1,,,64,92
86720,note_off,,,,,0,0,9,,,,,10,,,64,0
86720,note_off,,,,,320,0,7,,,,,6,,,43,0
86720,note_off,,,,,320,0,3,,,,,2,,,43,0
86720,note_off,,,,,320,0,10,,,,,11,,,43,0
86720,note_off,,,,,320,0,9,,,,,10,,,59,0
86720,note_off,,,,,320,0,6,,,,,5,,,59,0
86720,note_off,,,,,320,0,8,,,,,7,,,31,0
86780,note_off,,,,,188,0,5,,,,,4,,,64,0
86780,note_off,,,,,188,0,2,,,,,1,,,64,0
86784,note_on,,,,,64,0,6,,,,,5,,,71,92
86784,note_on,,,,,64,0,10,,,,,11,,,55,60
86784,note_on,,,,,0,0,9,,,,,10,,,64,60
86784,note_on,,,,,64,0,3,,,,,2,,,55,92
86784,note_on,,,,,64,0,7,,,,,6,,,55,92
86784,note_on,,,,,64,0,9,,,,,10,,,59,60
86784,note_on,,,,,64,0,8,,,,,7,,,43,75
86976,note_on,,,,,1348,0,4,,,,,3,,,76,108
86976,note_on,,,,,1348,0,1,,,,,0,,,76,92
87104,note_off,,,,,320,0,10,,,,,11,,,55,0
87104,note_off,,,,,0,0,9,,,,,10,,,64,0
87104,note_off,,,,,320,0,3,,,,,2,,,55,0
87104,note_off,,,,,320,0,7,,,,,6,,,55,0
87104,note_off,,,,,320,0,6,,,,,5,,,71,0
87104,note_off,,,,,320,0,9,,,,,10,,,59,0
87104,note_off,,,,,320,0,8,,,,,7,,,43,0
87164,note_off,,,,,188,0,1,,,,,0,,,76,0
87164,note_off,,,,,188,0,4,,,,,3,,,76,0
87168,note_on,,,,,4,0,1,,,,,0,,,77,92
87168,note_on,,,,,4,0,4,,,,,3,,,77,108
87356,note_off,,,,,188,0,1,,,,,0,,,77,0
87356,note_off,,,,,188,0,4,,,,,3,,,77,0
87360,note_on,,,,,4,0,1,,,,,0,,,76,92
87360,note_on,,,,,4,0,4,,,,,3,,,76,108
87548,note_off,,,,,188,0,4,,,,,3,,,76,0
87548,note_off,,,,,188,0,1,,,,,0,,,76,0
87552,note_on,,,,,4,0,4,,,,,3,,,83,108
87552,note_on,,,,,4,0,1,,,,,0,,,83,92
87740,note_off,,,,,188,0,1,,,,,0,,,83,0
87740,note_off,,,,,188,0,4,,,,,3,,,83,0
87744,note_on,,,,,4,0,4,,,,,3,,,76,108
87744,note_on,,,,,4,0,1,,,,,0,,,76,92
87932,note_off,,,,,188,0,1,,,,,0,,,76,0
87932,note_off,,,,,188,0,4,,,,,3,,,76,0
87936,note_on,,,,,0,0,9,,,,,10,,,64,60
87936,note_on,,,,,832,0,9,,,,,10,,,59,60
87936,note_on,,,,,0,0,9,,,,,10,,,67,60
87936,note_on,,,,,832,0,6,,,,,5,,,64,92
87936,note_on,,,,,832,0,8,,,,,7,,,31,75
87936,note_on,,,,,832,0,3,,,,,2,,,43,92
87936,note_on,,,,,832,0,7,,,,,6,,,43,92
87936,note_on,,,,,832,0,10,,,,,11,,,43,60
88128,note_on,,,,,1348,0,5,,,,,4,,,71,108
88128,note_on,,,,,1348,0,2,,,,,1,,,71,92
88256,note_off,,,,,320,0,10,,,,,11,,,43,0
88256,note_off,,,,,320,0,7,,,,,6,,,43,0
88256,note_off,,,,,320,0,9,,,,,10,,,59,0
88256,note_off,,,,,0,0,9,,,,,10,,,67,0
88256,note_off,,,,,0,0,9,,,,,10,,,64,0
88256,note_off,,,,,320,0,8,,,,,7,,,31,0
88256,note_off,,,,,320,0,6,,,,,5,,,64,0
88256,note_off,,,,,320,0,3,,,,,2,,,43,0
88316,note_off,,,,,188,0,2,,,,,1,,,71,0
88316,note_off,,,,,188,0,5,,,,,4,,,71,0
88320,note_on,,,,,64,0,7,,,,,6,,,55,92
88320,note_on,,,,,4,0,2,,,,,1,,,72,92
88320,note_on,,,,,64,0,6,,,,,5,,,64,92
88320,note_on,,,,,64,0,8,,,,,7,,,43,75
88320,note_on,,,,,64,0,10,,,,,11,,,55,60
88320,note_on,,,,,4,0,5,,,,,4,,,72,108
88320,note_on,,,,,0,0,9,,,,,10,,,67,60
88320,note_on,,,,,64,0,3,,,,,2,,,55,92
88320,note_on,,,,,0,0,9,,,,,10,,,64,60
88320,note_on,,,,,64,0,9,,,,,10,,,59,60
88508,note_off,,,,,188,0,2,,,,,1,,,72,0
88508,note_off,,,,,188,0,5,,,,,4,,,72,0
88512,note_on,,,,,4,0,2,,,,,1,,,71,92
88512,note_on,,,,,4,0,5,,,,,4,,,71,108
88640,note_off,,,,,320,0,7,,,,,6,,,55,0
88640,note_off,,,,,0,0,9,,,,,10,,,64,0
88640,note_off,,,,,0,0,9,,,,,10,,,67,0
88640,note_off,,,,,320,0,9,,,,,10,,,59,0
88640,note_off,,,,,320,0,6,,,,,5,,,64,0
88640,note_off,,,,,320,0,8,,,,,7,,,43,0
88640,note_off,,,,,320,0,10,,,,,11,,,55,0
88640,note_off,,,,,320,0,3,,,,,2,,,55,0
88700,note_off,,,,,188,0,5,,,,,4,,,71,0
88700,note_off,,,,,188,0,2,,,,,1,,,71,0
88704,note_on,,,,,64,0,8,,,,,7,,,31,75
88704,note_on,,,,,64,0,3,,,,,2,,,43,92
88704,note_on,,,,,64,0,9,,,,,10,,,64,60
88704,note_on,,,,,4,0,5,,,,,4,,,79,108
88704,note_on,,,,,64,0,6,,,,,5,,,71,92
88704,note_on,,,,,64,0,7,,,,,6,,,43,92
88704,note_on,,,,,4,0,2,,,,,1,,,79,92
88704,note_on,,,,,64,0,10,,,,,11,,,43,60
88704,note_on,,,,,0,0,9,,,,,10,,,71,60
89024,note_off,,,,,320,0,8,,,,,7,,,31,0
89024,note_off,,,,,320,0,7,,,,,6,,,43,0
89024,note_off,,,,,320,0,10,,,,,11,,,43,0
89024,note_off,,,,,320,0,9,,,,,10,,,64,0
89024,note_off,,,,,320,0,3,,,,,2,,,43,0
89024,note_off,,,,,320,0,6,,,,,5,,,71,0
89024,note_off,,,,,0,0,9,,,,,10,,,71,0
89088,note_on,,,,,64,0,6,,,,,5,,,64,92
89088,note_on,,,,,64,0,8,,,,,7,,,43,75
89088,note_on,,,,,0,0,9,,,,,10,,,71,60
89088,note_on,,,,,64,0,10,,,,,11,,,55,60
89088,note_on,,,,,64,0,9,,,,,10,,,64,60
89088,note_on,,,,,64,0,3,,,,,2,,,55,92
89088,note_on,,,,,64,0,7,,,,,6,,,55,92
89280,note_on,,,,,1348,0,4,,,,,3,,,76,108
89280,note_on,,,,,1348,0,1,,,,,0,,,76,92
89408,note_off,,,,,320,0,10,,,,,11,,,55,0
89408,note_off,,,,,320,0,6,,,,,5,,,64,0
89408,note_off,,,,,0,0,9,,,,,10,,,71,0
89408,note_off,,,,,320,0,3,,,,,2,,,55,0
89408,note_off,,,,,320,0,7,,,,,6,,,55,0
89408,note_off,,,,,320,0,8,,,,,7,,,43,0
89408,note_off,,,,,320,0,9,,,,,10,,,64,0
89468,note_off,,,,,188,0,4,,,,,3,,,76,0
89468,note_off,,,,,188,0,1,,,,,0,,,76,0
89472,note_on,,,,,4,0,1,,,,,0,,,77,92
89472,note_on,,,,,4,0,4,,,,,3,,,77,108
89660,note_off,,,,,188,0,4,,,,,3,,,77,0
89660,note_off,,,,,188,0,1,,,,,0,,,77,0
89664,note_on,,,,,4,0,1,,,,,0,,,76,92
89664,note_on,,,,,4,0,4,,,,,3,,,76,108
89852,note_off,,,,,188,0,4,,,,,3,,,76,0
89852,note_off,,,,,188,0,1,,,,,0,,,76,0
89856,note_on,,,,,448,0,3,,,,,2,,,52,92
89856,note_on,,,,,0,0,9,,,,,10,,,76,60
89856,note_on,,,,,0,0,9,,,,,10,,,72,60
89856,note_on,,,,,448,0,9,,,,,10,,,67,60
89856,note_on,,,,,448,0,10,,,,,11,,,52,60
89856,note_on,,,,,4,0,1,,,,,0,,,84,92
89856,note_on,,,,,4,0,4,,,,,3,,,84,108
89856,note_on,,,,,448,0,8,,,,,7,,,40,75
89856,note_on,,,,,448,0,7,,,,,6,,,52,92
90176,note_off,,,,,320,0,7,,,,,6,,,52,0
90176,note_off,,,,,0,0,9,,,,,10,,,76,0
90176,note_off,,,,,320,0,8,,,,,7,,,40,0
90176,note_off,,,,,320,0,9,,,,,10,,,67,0
90176,note_off,,,,,320,0,3,,,,,2,,,52,0
90176,note_off,,,,,320,0,10,,,,,11,,,52,0
90240,note_on,,,,,64,0,8,,,,,7,,,52,75
90240,note_on,,,,,832,0,6,,,,,5,,,64,92
90240,note_on,,,,,0,0,9,,,,,10,,,78,60
90240,note_on,,,,,64,0,10,,,,,11,,,64,60
90240,note_on,,,,,64,0,7,,,,,6,,,64,92
90240,note_on,,,,,64,0,9,,,,,10,,,69,60
90240,note_on,,,,,64,0,3,,,,,2,,,64,92
90368,note_off,,,,,512,0,1,,,,,0,,,84,0
90368,note_off,,,,,512,0,4,,,,,3,,,84,0
90432,note_on,,,,,64,0,1,,,,,0,,,83,92
90432,note_on,,,,,64,0,4,,,,,3,,,83,108
90560,note_off,,,,,320,0,3,,,,,2,,,64,0
90560,note_off,,,,,0,0,9,,,,,10,,,69,0
90560,note_off,,,,,320,0,10,,,,,11,,,64,0
90560,note_off,,,,,0,0,9,,,,,10,,,78,0
90560,note_off,,,,,320,0,6,,,,,5,,,64,0
90560,note_off,,,,,320,0,9,,,,,10,,,72,0
90560,note_off,,,,,320,0,7,,,,,6,,,64,0
90560,note_off,,,,,320,0,8,,,,,7,,,52,0
90620,note_off,,,,,188,0,4,,,,,3,,,83,0
90620,note_off,,,,,188,0,1,,,,,0,,,83,0
90624,note_on,,,,,64,0,8,,,,,7,,,40,75
90624,note_on,,,,,64,0,6,,,,,5,,,73,92
90624,note_on,,,,,64,0,3,,,,,2,,,52,92
90624,note_on,,,,,4,0,1,,,,,0,,,83,92
90624,note_on,,,,,0,0,10,,,,,11,,,64,60
90624,note_on,,,,,0,0,9,,,,,10,,,73,60
90624,note_on,,,,,64,0,9,,,,,10,,,70,60
90624,note_on,,,,,64,0,10,,,,,11,,,52,60
90624,note_on,,,,,64,0,7,,,,,6,,,52,92
90624,note_on,,,,,4,0,4,,,,,3,,,83,108
90624,note_on,,,,,0,0,9,,,,,10,,,79,60
90812,note_off,,,,,188,0,1,,,,,0,,,83,0
90812,note_off,,,,,188,0,4,,,,,3,,,83,0
90816,note_on,,,,,4,0,4,,,,,3,,,82,108
90816,note_on,,,,,4,0,1,,,,,0,,,82,92
90912,note_off,,,,,2208,0,2,,,,,1,,,79,0
90912,note_off,,,,,2208,0,5,,,,,4,,,79,0
90944,note_off,,,,,320,0,8,,,,,7,,,40,0
90944,note_off,,,,,320,0,9,,,,,10,,,70,0
90944,note_off,,,,,320,0,6,,,,,5,,,73,0
90944,note_off,,,,,320,0,3,,,,,2,,,52,0
90944,note_off,,,,,0,0,9,,,,,10,,,73,0
90944,note_off,,,,,0,0,9,,,,,10,,,79,0
90944,note_off,,,,,320,0,7,,,,,6,,,52,0
90944,note_off,,,,,0,0,10,,,,,11,,,64,0
90944,note_off,,,,,320,0,10,,,,,11,,,52,0
91004,note_off,,,,,188,0,4,,,,,3,,,82,0
91004,note_off,,,,,188,0,1,,,,,0,,,82,0
91008,note_on,,,,,0,0,9,,,,,10,,,71,60
91008,note_on,,,,,64,0,9,,,,,10,,,66,60
91008,note_on,,,,,64,0,6,,,,,5,,,71,92
91008,note_on,,,,,96,0,5,,,,,4,,,78,108
91008,note_on,,,,,96,0,2,,,,,1,,,78,92
91008,note_on,,,,,64,0,3,,,,,2,,,51,92
91008,note_on,,,,,64,0,8,,,,,7,,,39,75
91008,note_on,,,,,64,0,10,,,,,11,,,51,60
91008,note_on,,,,,4,0,1,,,,,0,,,83,92
91008,note_on,,,,,0,0,9,,,,,10,,,78,60
91008,note_on,,,,,4,0,4,,,,,3,,,83,108
91008,note_on,,,,,64,0,7,,,,,6,,,51,92
91328,note_off,,,,,320,0,2,,,,,1,,,78,0
91328,note_off,,,,,320,0,8,,,,,7,,,39,0
91328,note_off,,,,,320,0,7,,,,,6,,,51,0
91328,note_off,,,,,0,0,9,,,,,10,,,71,0
91328,note_off,,,,,320,0,6,,,,,5,,,71,0
91328,note_off,,,,,320,0,10,,,,,11,,,51,0
91328,note_off,,,,,320,0,3,,,,,2,,,51,0
91328,note_off,,,,,0,0,9,,,,,10,,,78,0
91328,note_off,,,,,320,0,5,,,,,4,,,78,0
91328,note_off,,,,,320,0,9,,,,,10,,,66,0
91392,note_on,,,,,0,0,9,,,,,10,,,71,60
91392,note_on,,,,,0,0,9,,,,,10,,,68,60
91392,note_on,,,,,64,0,9,,,,,10,,,65,60
91392,note_on,,,,,64,0,3,,,,,2,,,50,92
91392,note_on,,,,,64,0,8,,,,,7,,,38,75
91392,note_on,,,,,64,0,5,,,,,4,,,77,108
91392,note_on,,,,,64,0,6,,,,,5,,,59,92
91392,note_on,,,,,64,0,10,,,,,11,,,50,60
91392,note_on,,,,,64,0,7,,,,,6,,,50,92
91392,note_on,,,,,64,0,2,,,,,1,,,77,92
91520,note_off,,,,,512,0,4,,,,,3,,,83,0
91520,note_off,,,,,512,0,1,,,,,0,,,83,0
91584,note_on,,,,,64,0,1,,,,,0,,,81,92
91584,note_on,,,,,64,0,4,,,,,3,,,81,108
91712,note_off,,,,,320,0,6,,,,,5,,,59,0
91772,note_off,,,,,188,0,1,,,,,0,,,81,0
91772,note_off,,,,,188,0,4,,,,,3,,,81,0
91776,note_on,,,,,4,0,1,,,,,0,,,81,92
91776,note_on,,,,,64,0,6,,,,,5,,,71,92
91776,note_on,,,,,4,0,4,,,,,3,,,81,108
91964,note_off,,,,,188,0,1,,,,,0,,,81,0
91964,note_off,,,,,188,0,4,,,,,3,,,81,0
91968,note_on,,,,,4,0,4,,,,,3,,,80,108
91968,note_on,,,,,4,0,1,,,,,0,,,80,92
92064,note_off,,,,,672,0,3,,,,,2,,,50,0
92064,note_off,,,,,672,0,7,,,,,6,,,50,0
92064,note_off,,,,,672,0,8,,,,,7,,,38,0
92064,note_off,,,,,0,0,9,,,,,10,,,71,0
92064,note_off,,,,,672,0,2,,,,,1,,,77,0
92064,note_off,,,,,672,0,10,,,,,11,,,50,0
92064,note_off,,,,,672,0,5,,,,,4,,,77,0
92064,note_off,,,,,672,0,9,,,,,10,,,65,0
92064,note_off,,,,,0,0,9,,,,,10,,,68,0
92096,note_off,,,,,320,0,6,,,,,5,,,71,0
92156,note_off,,,,,188,0,1,,,,,0,,,80,0
92156,note_off,,,,,188,0,4,,,,,3,,,80,0
92160,note_on,,,,,96,0,3,,,,,2,,,48,92
92160,note_on,,,,,96,0,7,,,,,6,,,48,92
92160,note_on,,,,,96,0,10,,,,,11,,,48,60
92160,note_on,,,,,64,0,6,,,,,5,,,69,92
92160,note_on,,,,,4,0,1,,,,,0,,,81,92
92160,note_on,,,,,96,0,5,,,,,4,,,76,108
92160,note_on,,,,,96,0,9,,,,,10,,,64,60
92160,note_on,,,,,0,0,9,,,,,10,,,69,60
92160,note_on,,,,,4,0,4,,,,,3,,,81,108
92160,note_on,,,,,96,0,8,,,,,7,,,36,75
92160,note_on,,,,,96,0,2,,,,,1,,,76,92
92348,note_off,,,,,188,0,1,,,,,0,,,81,0
92348,note_off,,,,,188,0,4,,,,,3,,,81,0
92352,note_on,,,,,4,0,4,,,,,3,,,84,108
92352,note_on,,,,,4,0,1,,,,,0,,,84,92
92480,note_off,,,,,320,0,10,,,,,11,,,48,0
92480,note_off,,,,,320,0,7,,,,,6,,,48,0
92480,note_off,,,,,320,0,6,,,,,5,,,69,0
92480,note_off,,,,,320,0,3,,,,,2,,,48,0
92480,note_off,,,,,320,0,9,,,,,10,,,64,0
92480,note_off,,,,,0,0,9,,,,,10,,,69,0
92480,note_off,,,,,320,0,8,,,,,7,,,36,0
92540,note_off,,,,,188,0,1,,,,,0,,,84,0
92540,note_off,,,,,188,0,4,,,,,3,,,84,0
92544,note_on,,,,,64,0,10,,,,,11,,,44,60
92544,note_on,,,,,4,0,1,,,,,0,,,83,92
92544,note_on,,,,,64,0,6,,,,,5,,,64,92
92544,note_on,,,,,4,0,4,,,,,3,,,83,108
92544,note_on,,,,,0,0,9,,,,,10,,,71,60
92544,note_on,,,,,0,0,9,,,,,10,,,64,60
92544,note_on,,,,,64,0,8,,,,,7,,,32,75
92544,note_on,,,,,64,0,9,,,,,10,,,60,60
92544,note_on,,,,,64,0,3,,,,,2,,,44,92
92544,note_on,,,,,64,0,7,,,,,6,,,44,92
92732,note_off,,,,,188,0,1,,,,,0,,,83,0
92732,note_off,,,,,188,0,4,,,,,3,,,83,0
92736,note_on,,,,,4,0,4,,,,,3,,,86,108
92736,note_on,,,,,4,0,1,,,,,0,,,86,92
92864,note_off,,,,,320,0,6,,,,,5,,,64,0
92864,note_off,,,,,0,0,9,,,,,10,,,64,0
92864,note_off,,,,,320,0,9,,,,,10,,,60,0
92864,note_off,,,,,320,0,7,,,,,6,,,44,0
92864,note_off,,,,,320,0,8,,,,,7,,,32,0
92864,note_off,,,,,0,0,9,,,,,10,,,71,0
92864,note_off,,,,,320,0,3,,,,,2,,,44,0
92864,note_off,,,,,320,0,10,,,,,11,,,44,0
92924,note_off,,,,,188,0,4,,,,,3,,,86,0
92924,note_off,,,,,188,0,1,,,,,0,,,86,0
92928,note_on,,,,,0,0,9,,,,,10,,,68,60
92928,note_on,,,,,64,0,10,,,,,11,,,40,60
92928,note_on,,,,,64,0,3,,,,,2,,,40,92
92928,note_on,,,,,64,0,6,,,,,5,,,68,92
92928,note_on,,,,,64,0,7,,,,,6,,,40,92
92928,note_on,,,,,0,0,9,,,,,10,,,64,60
92928,note_on,,,,,4,0,1,,,,,0,,,84,92
92928,note_on,,,,,64,0,9,,,,,10,,,60,60
92928,note_on,,,,,64,0,8,,,,,7,,,28,75
92928,note_on,,,,,4,0,4,,,,,3,,,84,108
93116,note_off,,,,,188,0,1,,,,,0,,,84,0
93116,note_off,,,,,188,0,4,,,,,3,,,84,0
93120,note_on,,,,,4,0,1,,,,,0,,,83,92
93120,note_on,,,,,4,0,4,,,,,3,,,83,108
93248,note_off,,,,,320,0,9,,,,,10,,,60,0
93248,note_off,,,,,0,0,9,,,,,10,,,64,0
93248,note_off,,,,,0,0,9,,,,,10,,,68,0
93248,note_off,,,,,320,0,7,,,,,6,,,40,0
93248,note_off,,,,,320,0,8,,,,,7,,,28,0
93248,note_off,,,,,320,0,3,,,,,2,,,40,0
93248,note_off,,,,,320,0,10,,,,,11,,,40,0
93248,note_off,,,,,320,0,6,,,,,5,,,68,0
93308,note_off,,,,,188,0,4,,,,,3,,,83,0
93308,note_off,,,,,188,0,1,,,,,0,,,83,0
93312,note_on,,,,,64,0,7,,,,,6,,,45,92
93312,note_on,,,,,64,0,3,,,,,2,,,45,92
93312,note_on,,,,,64,0,6,,,,,5,,,69,92
93312,note_on,,,,,0,0,9,,,,,10,,,69,60
93312,note_on,,,,,64,0,10,,,,,11,,,45,60
93312,note_on,,,,,64,0,9,,,,,10,,,60,60
93312,note_on,,,,,4,0,4,,,,,3,,,84,108
93312,note_on,,,,,64,0,8,,,,,7,,,33,75
93312,note_on,,,,,4,0,1,,,,,0,,,84,92
93312,note_on,,,,,0,0,9,,,,,10,,,64,60
93500,note_off,,,,,1340,0,2,,,,,1,,,76,0
93500,note_off,,,,,188,0,1,,,,,0,,,84,0
93500,note_off,,,,,188,0,4,,,,,3,,,84,0
93500,note_off,,,,,1340,0,5,,,,,4,,,76,0
93504,note_on,,,,,4,0,1,,,,,0,,,83,92
93504,note_on,,,,,4,0,4,,,,,3,,,83,108
93504,note_on,,,,,4,0,5,,,,,4,,,74,108
93504,note_on,,,,,4,0,2,,,,,1,,,74,92
93632,note_off,,,,,320,0,9,,,,,10,,,60,0
93632,note_off,,,,,320,0,3,,,,,2,,,45,0
93632,note_off,,,,,0,0,9,,,,,10,,,64,0
93632,note_off,,,,,320,0,7,,,,,6,,,45,0
93632,note_off,,,,,320,0,8,,,,,7,,,33,0
93632,note_off,,,,,320,0,10,,,,,11,,,45,0
93632,note_off,,,,,0,0,9,,,,,10,,,69,0
93692,note_off,,,,,188,0,4,,,,,3,,,83,0
93692,note_off,,,,,188,0,1,,,,,0,,,83,0
93692,note_off,,,,,188,0,2,,,,,1,,,74,0
93692,note_off,,,,,188,0,5,,,,,4,,,74,0
93696,note_on,,,,,64,0,3,,,,,2,,,57,92
93696,note_on,,,,,64,0,10,,,,,11,,,57,60
93696,note_on,,,,,4,0,5,,,,,4,,,72,108
93696,note_on,,,,,0,0,9,,,,,10,,,69,60
93696,note_on,,,,,64,0,7,,,,,6,,,57,92
93696,note_on,,,,,64,0,9,,,,,10,,,64,60
93696,note_on,,,,,4,0,4,,,,,3,,,81,108
93696,note_on,,,,,0,0,9,,,,,10,,,72,60
93696,note_on,,,,,4,0,1,,,,,0,,,81,92
93696,note_on,,,,,4,0,2,,,,,1,,,72,92
93696,note_on,,,,,64,0,8,,,,,7,,,45,75
93824,note_off,,,,,512,0,6,,,,,5,,,69,0
93884,note_off,,,,,188,0,2,,,,,1,,,72,0
93884,note_off,,,,,188,0,5,,,,,4,,,72,0
93884,note_off,,,,,188,0,1,,,,,0,,,81,0
93884,note_off,,,,,188,0,4,,,,,3,,,81,0
93888,note_on,,,,,64,0,6,,,,,5,,,71,92
93888,note_on,,,,,4,0,5,,,,,4,,,71,108
93888,note_on,,,,,4,0,1,,,,,0,,,79,92
93888,note_on,,,,,4,0,4,,,,,3,,,79,108
93888,note_on,,,,,4,0,2,,,,,1,,,71,92
94016,note_off,,,,,320,0,8,,,,,7,,,45,0
94016,note_off,,,,,320,0,10,,,,,11,,,57,0
94016,note_off,,,,,0,0,9,,,,,10,,,69,0
94016,note_off,,,,,320,0,7,,,,,6,,,57,0
94016,note_off,,,,,320,0,3,,,,,2,,,57,0
94016,note_off,,,,,320,0,9,,,,,10,,,64,0
94016,note_off,,,,,0,0,9,,,,,10,,,72,0
94076,note_off,,,,,188,0,2,,,,,1,,,71,0
94076,note_off,,,,,188,0,1,,,,,0,,,79,0
94076,note_off,,,,,188,0,5,,,,,4,,,71,0
94076,note_off,,,,,188,0,6,,,,,5,,,71,0
94076,note_off,,,,,188,0,4,,,,,3,,,79,0
94080,note_on,,,,,4,0,2,,,,,1,,,69,92
94080,note_on,,,,,64,0,7,,,,,6,,,45,92
94080,note_on,,,,,4,0,5,,,,,4,,,69,108
94080,note_on,,,,,64,0,3,,,,,2,,,45,92
94080,note_on,,,,,64,0,9,,,,,10,,,60,60
94080,note_on,,,,,64,0,10,,,,,11,,,45,60
94080,note_on,,,,,4,0,6,,,,,5,,,72,92
94080,note_on,,,,,64,0,8,,,,,7,,,33,75
94080,note_on,,,,,4,0,1,,,,,0,,,78,92
94080,note_on,,,,,4,0,4,,,,,3,,,78,108
94080,note_on,,,,,0,0,9,,,,,10,,,66,60
94080,note_on,,,,,0,0,9,,,,,10,,,72,60
94268,note_off,,,,,188,0,1,,,,,0,,,78,0
94268,note_off,,,,,188,0,5,,,,,4,,,69,0
94268,note_off,,,,,188,0,2,,,,,1,,,69,0
94268,note_off,,,,,188,0,4,,,,,3,,,78,0
94272,note_on,,,,,4,0,5,,,,,4,,,67,108
94272,note_on,,,,,4,0,4,,,,,3,,,76,108
94272,note_on,,,,,4,0,1,,,,,0,,,76,92
94272,note_on,,,,,4,0,2,,,,,1,,,67,92
94400,note_off,,,,,320,0,7,,,,,6,,,45,0
94400,note_off,,,,,320,0,9,,,,,10,,,60,0
94400,note_off,,,,,320,0,10,,,,,11,,,45,0
94400,note_off,,,,,0,0,9,,,,,10,,,72,0
94400,note_off,,,,,320,0,3,,,,,2,,,45,0
94400,note_off,,,,,320,0,6,,,,,5,,,72,0
94400,note_off,,,,,320,0,8,,,,,7,,,33,0
94400,note_off,,,,,0,0,9,,,,,10,,,66,0
94460,note_off,,,,,188,0,1,,,,,0,,,76,0
94460,note_off,,,,,188,0,4,,,,,3,,,76,0
94460,note_off,,,,,188,0,5,,,,,4,,,67,0
94460,note_off,,,,,188,0,2,,,,,1,,,67,0
94464,note_on,,,,,4,0,1,,,,,0,,,75,92
94464,note_on,,,,,64,0,3,,,,,2,,,47,92
94464,note_on,,,,,4,0,4,,,,,3,,,75,108
94464,note_on,,,,,64,0,7,,,,,6,,,47,92
94464,note_on,,,,,64,0,10,,,,,11,,,47,60
94464,note_on,,,,,64,0,9,,,,,10,,,63,60
94464,note_on,,,,,0,0,9,,,,,10,,,66,60
94464,note_on,,,,,0,0,9,,,,,10,,,71,60
94464,note_on,,,,,64,0,6,,,,,5,,,71,92
94464,note_on,,,,,4,0,5,,,,,4,,,66,108
94464,note_on,,,,,4,0,2,,,,,1,,,66,92
94464,note_on,,,,,64,0,8,,,,,7,,,35,75
94652,note_off,,,,,188,0,2,,,,,1,,,66,0
94652,note_off,,,,,188,0,5,,,,,4,,,66,0
94656,note_on,,,,,4,0,2,,,,,1,,,78,92
94656,note_on,,,,,4,0,5,,,,,4,,,78,108
94784,note_off,,,,,320,0,7,,,,,6,,,47,0
94784,note_off,,,,,0,0,9,,,,,10,,,71,0
94784,note_off,,,,,0,0,9,,,,,10,,,66,0
94784,note_off,,,,,320,0,9,,,,,10,,,63,0
94784,note_off,,,,,320,0,4,,,,,3,,,75,0
94784,note_off,,,,,320,0,8,,,,,7,,,35,0
94784,note_off,,,,,320,0,1,,,,,0,,,75,0
94784,note_off,,,,,320,0,10,,,,,11,,,47,0
94784,note_off,,,,,320,0,6,,,,,5,,,71,0
94784,note_off,,,,,320,0,3,,,,,2,,,47,0
94844,note_off,,,,,188,0,5,,,,,4,,,78,0
94844,note_off,,,,,188,0,2,,,,,1,,,78,0
94848,note_on,,,,,64,0,9,,,,,10,,,59,60
94848,note_on,,,,,64,0,8,,,,,7,,,39,75
94848,note_on,,,,,64,0,10,,,,,11,,,51,60
94848,note_on,,,,,0,0,9,,,,,10,,,66,60
94848,note_on,,,,,64,0,6,,,,,5,,,66,92
94848,note_on,,,,,64,0,7,,,,,6,,,51,92
94848,note_on,,,,,64,0,3,,,,,2,,,51,92
94848,note_on,,,,,4,0,5,,,,,4,,,71,108
94848,note_on,,,,,4,0,2,,,,,1,,,71,92
95040,note_on,,,,,256,0,4,,,,,3,,,81,108
95040,note_on,,,,,256,0,1,,,,,0,,,81,92
95168,note_off,,,,,320,0,3,,,,,2,,,51,0
95168,note_off,,,,,320,0,6,,,,,5,,,66,0
95168,note_off,,,,,320,0,5,,,,,4,,,71,0
95168,note_off,,,,,320,0,7,,,,,6,,,51,0
95168,note_off,,,,,320,0,9,,,,,10,,,59,0
95168,note_off,,,,,320,0,10,,,,,11,,,51,0
95168,note_off,,,,,0,0,9,,,,,10,,,66,0
95168,note_off,,,,,320,0,8,,,,,7,,,39,0
95168,note_off,,,,,320,0,2,,,,,1,,,71,0
95228,note_off,,,,,188,0,4,,,,,3,,,81,0
95228,note_off,,,,,188,0,1,,,,,0,,,81,0
95232,note_on,,,,,0,0,9,,,,,10,,,67,60
95232,note_on,,,,,64,0,9,,,,,10,,,59,60
95232,note_on,,,,,0,0,9,,,,,10,,,64,60
95232,note_on,,,,,64,0,10,,,,,11,,,52,60
95232,note_on,,,,,64,0,6,,,,,5,,,59,92
95232,note_on,,,,,64,0,8,,,,,7,,,40,75
95232,note_on,,,,,64,0,7,,,,,6,,,52,92
95232,note_on,,,,,64,0,3,,,,,2,,,52,92
95232,note_on,,,,,4,0,4,,,,,3,,,79,108
95232,note_on,,,,,4,0,1,,,,,0,,,79,92
95424,note_on,,,,,256,0,5,,,,,4,,,71,108
95424,note_on,,,,,256,0,2,,,,,1,,,71,92
95552,note_off,,,,,320,0,7,,,,,6,,,52,0
95552,note_off,,,,,320,0,10,,,,,11,,,52,0
95552,note_off,,,,,320,0,6,,,,,5,,,59,0
95552,note_off,,,,,320,0,8,,,,,7,,,40,0
95552,note_off,,,,,320,0,3,,,,,2,,,52,0
95552,note_off,,,,,320,0,9,,,,,10,,,59,0
95552,note_off,,,,,320,0,1,,,,,0,,,79,0
95552,note_off,,,,,0,0,9,,,,,10,,,67,0
95552,note_off,,,,,0,0,9,,,,,10,,,64,0
95552,note_off,,,,,320,0,4,,,,,3,,,79,0
95612,note_off,,,,,188,0,5,,,,,4,,,71,0
95612,note_off,,,,,188,0,2,,,,,1,,,71,0
95616,note_on,,,,,0,0,9,,,,,10,,,72,60
95616,note_on,,,,,64,0,1,,,,,0,,,78,92
95616,note_on,,,,,64,0,7,,,,,6,,,57,92
95616,note_on,,,,,64,0,3,,,,,2,,,57,92
95616,note_on,,,,,64,0,10,,,,,11,,,57,60
95616,note_on,,,,,64,0,9,,,,,10,,,60,60
95616,note_on,,,,,0,0,9,,,,,10,,,64,60
95616,note_on,,,,,64,0,8,,,,,7,,,45,75
95616,note_on,,,,,4,0,5,,,,,4,,,69,108
95616,note_on,,,,,64,0,4,,,,,3,,,78,108
95616,note_on,,,,,4,0,2,,,,,1,,,69,92
95616,note_on,,,,,64,0,6,,,,,5,,,72,92
95804,note_off,,,,,188,0,1,,,,,0,,,78,0
95804,note_off,,,,,188,0,2,,,,,1,,,69,0
95804,note_off,,,,,188,0,4,,,,,3,,,78,0
95804,note_off,,,,,188,0,5,,,,,4,,,69,0
95808,note_on,,,,,4,0,4,,,,,3,,,76,108
95808,note_on,,,,,4,0,2,,,,,1,,,67,92
95808,note_on,,,,,4,0,1,,,,,0,,,76,92
95808,note_on,,,,,4,0,5,,,,,4,,,67,108
95936,note_off,,,,,320,0,6,,,,,5,,,72,0
95936,note_off,,,,,320,0,3,,,,,2,,,57,0
95936,note_off,,,,,0,0,9,,,,,10,,,64,0
95936,note_off,,,,,320,0,10,,,,,11,,,57,0
95936,note_off,,,,,320,0,8,,,,,7,,,45,0
95936,note_off,,,,,320,0,9,,,,,10,,,60,0
95936,note_off,,,,,0,0,9,,,,,10,,,72,0
95936,note_off,,,,,320,0,7,,,,,6,,,57,0
95996,note_off,,,,,188,0,2,,,,,1,,,67,0
95996,note_off,,,,,188,0,1,,,,,0,,,76,0
95996,note_off,,,,,188,0,5,,,,,4,,,67,0
95996,note_off,,,,,188,0,4,,,,,3,,,76,0
96000,note_on,,,,,64,0,10,,,,,11,,,59,60
96000,note_on,,,,,4,0,1,,,,,0,,,76,92
96000,note_on,,,,,64,0,6,,,,,5,,,71,92
96000,note_on,,,,,64,0,9,,,,,10,,,63,60
96000,note_on,,,,,0,0,9,,,,,10,,,66,60
96000,note_on,,,,,64,0,3,,,,,2,,,59,92
96000,note_on,,,,,4,0,2,,,,,1,,,66,92
96000,note_on,,,,,64,0,7,,,,,6,,,59,92
96000,note_on,,,,,4,0,5,,,,,4,,,66,108
96000,note_on,,,,,4,0,4,,,,,3,,,76,108
96000,note_on,,,,,64,0,8,,,,,7,,,47,75
96044,note_off,,,,,44,0,4,,,,,3,,,76,0
96044,note_off,,,,,44,0,1,,,,,0,,,76,0
96048,note_on,,,,,4,0,1,,,,,0,,,75,92
96048,note_on,,,,,4,0,4,,,,,3,,,75,108
96092,note_off,,,,,44,0,1,,,,,0,,,75,0
96092,note_off,,,,,44,0,4,,,,,3,,,75,0
96096,note_on,,,,,4,0,1,,,,,0,,,76,92
96096,note_on,,,,,4,0,4,,,,,3,,,76,108
96140,note_off,,,,,44,0,4,,,,,3,,,76,0
96140,note_off,,,,,44,0,1,,,,,0,,,76,0
96144,note_on,,,,,4,0,1,,,,,0,,,75,92
96144,note_on,,,,,4,0,4,,,,,3,,,75,108
96188,note_off,,,,,44,0,1,,,,,0,,,75,0
96188,note_off,,,,,44,0,4,,,,,3,,,75,0
96192,note_on,,,,,4,0,1,,,,,0,,,76,92
96192,note_on,,,,,4,0,4,,,,,3,,,76,108
96236,note_off,,,,,44,0,1,,,,,0,,,76,0
96236,note_off,,,,,44,0,4,,,,,3,,,76,0
96240,note_on,,,,,4,0,4,,,,,3,,,75,108
96240,note_on,,,,,4,0,1,,,,,0,,,75,92
96284,note_off,,,,,44,0,1,,,,,0,,,75,0
96284,note_off,,,,,44,0,4,,,,,3,,,75,0
96288,note_on,,,,,4,0,1,,,,,0,,,76,92
96288,note_on,,,,,4,0,4,,,,,3,,,76,108
96320,note_off,,,,,320,0,9,,,,,10,,,63,0
96320,note_off,,,,,320,0,5,,,,,4,,,66,0
96320,note_off,,,,,320,0,3,,,,,2,,,59,0
96320,note_off,,,,,0,0,9,,,,,10,,,66,0
96320,note_off,,,,,320,0,2,,,,,1,,,66,0
96320,note_off,,,,,320,0,8,,,,,7,,,47,0
96320,note_off,,,,,320,0,7,,,,,6,,,59,0
96320,note_off,,,,,320,0,10,,,,,11,,,59,0
96320,note_off,,,,,320,0,6,,,,,5,,,71,0
96332,note_off,,,,,44,0,1,,,,,0,,,76,0
96332,note_off,,,,,44,0,4,,,,,3,,,76,0
96336,note_on,,,,,4,0,4,,,,,3,,,75,108
96336,note_on,,,,,4,0,1,,,,,0,,,75,92
96380,note_off,,,,,44,0,1,,,,,0,,,75,0
96380,note_off,,,,,44,0,4,,,,,3,,,75,0
96384,note_on,,,,,4,0,1,,,,,0,,,76,92
96384,note_on,,,,,64,0,9,,,,,10,,,63,60
96384,note_on,,,,,0,0,9,,,,,10,,,66,60
96384,note_on,,,,,0,0,9,,,,,10,,,71,60
96384,note_on,,,,,64,0,3,,,,,2,,,47,92
96384,note_on,,,,,4,0,4,,,,,3,,,76,108
96384,note_on,,,,,64,0,6,,,,,5,,,59,92
96384,note_on,,,,,64,0,5,,,,,4,,,71,108
96384,note_on,,,,,64,0,7,,,,,6,,,47,92
96384,note_on,,,,,64,0,8,,,,,7,,,35,75
96384,note_on,,,,,64,0,2,,,,,1,,,71,92
96384,note_on,,,,,64,0,10,,,,,11,,,47,60
96428,note_off,,,,,44,0,1,,,,,0,,,76,0
96428,note_off,,,,,44,0,4,,,,,3,,,76,0
96432,note_on,,,,,4,0,4,,,,,3,,,75,108
96432,note_on,,,,,4,0,1,,,,,0,,,75,92
96572,note_off,,,,,140,0,4,,,,,3,,,75,0
96572,note_off,,,,,140,0,1,,,,,0,,,75,0
96576,note_on,,,,,4,0,4,,,,,3,,,76,108
96576,note_on,,,,,4,0,1,,,,,0,,,76,92
96704,note_off,,,,,320,0,8,,,,,7,,,35,0
96704,note_off,,,,,320,0,3,,,,,2,,,47,0
96704,note_off,,,,,320,0,6,,,,,5,,,59,0
96704,note_off,,,,,320,0,9,,,,,10,,,63,0
96704,note_off,,,,,320,0,2,,,,,1,,,71,0
96704,note_off,,,,,0,0,9,,,,,10,,,71,0
96704,note_off,,,,,0,0,9,,,,,10,,,66,0
96704,note_off,,,,,320,0,10,,,,,11,,,47,0
96704,note_off,,,,,320,0,7,,,,,6,,,47,0
96704,note_off,,,,,320,0,5,,,,,4,,,71,0
96764,note_off,,,,,188,0,1,,,,,0,,,76,0
96764,note_off,,,,,188,0,4,,,,,3,,,76,0
96768,note_on,,,,,64,0,7,,,,,6,,,52,92
96768,note_on,,,,,64,0,6,,,,,5,,,59,92
96768,note_on,,,,,64,0,8,,,,,7,,,40,75
96768,note_on,,,,,64,0,2,,,,,1,,,67,92
96768,note_on,,,,,64,0,10,,,,,11,,,52,60
96768,note_on,,,,,4,0,4,,,,,3,,,76,108
96768,note_on,,,,,0,0,9,,,,,10,,,71,60
96768,note_on,,,,,0,0,9,,,,,10,,,67,60
96768,note_on,,,,,64,0,3,,,,,2,,,52,92
96768,note_on,,,,,64,0,9,,,,,10,,,64,60
96768,note_on,,,,,4,0,1,,,,,0,,,76,92
96768,note_on,,,,,64,0,5,,,,,4,,,67,108
96956,note_off,,,,,188,0,5,,,,,4,,,67,0
96956,note_off,,,,,188,0,2,,,,,1,,,67,0
96960,note_on,,,,,4,0,5,,,,,4,,,71,108
96960,note_on,,,,,4,0,2,,,,,1,,,71,92
97088,note_off,,,,,320,0,9,,,,,10,,,64,0
97088,note_off,,,,,0,0,9,,,,,10,,,67,0
97088,note_off,,,,,0,0,9,,,,,10,,,71,0
97088,note_off,,,,,320,0,6,,,,,5,,,59,0
97088,note_off,,,,,320,0,7,,,,,6,,,52,0
97088,note_off,,,,,320,0,10,,,,,11,,,52,0
97088,note_off,,,,,320,0,1,,,,,0,,,76,0
97088,note_off,,,,,320,0,8,,,,,7,,,40,0
97088,note_off,,,,,320,0,3,,,,,2,,,52,0
97088,note_off,,,,,320,0,4,,,,,3,,,76,0
97148,note_off,,,,,188,0,5,,,,,4,,,71,0
97148,note_off,,,,,188,0,2,,,,,1,,,71,0
97152,note_on,,,,,64,0,3,,,,,2,,,64,92
97152,note_on,,,,,4,0,5,,,,,4,,,64,108
97152,note_on,,,,,64,0,7,,,,,6,,,64,92
97152,note_on,,,,,4,0,2,,,,,1,,,64,92
97152,note_on,,,,,0,0,9,,,,,10,,,67,60
97152,note_on,,,,,0,0,9,,,,,10,,,71,60
97152,note_on,,,,,64,0,10,,,,,11,,,64,60
97152,note_on,,,,,64,0,6,,,,,5,,,67,92
97152,note_on,,,,,64,0,8,,,,,7,,,52,75
97152,note_on,,,,,64,0,9,,,,,10,,,64,60
97344,note_on,,,,,256,0,4,,,,,3,,,76,108
97344,note_on,,,,,256,0,1,,,,,0,,,76,92
97472,note_off,,,,,320,0,7,,,,,6,,,64,0
97472,note_off,,,,,320,0,6,,,,,5,,,67,0
97472,note_off,,,,,320,0,2,,,,,1,,,64,0
97472,note_off,,,,,320,0,3,,,,,2,,,64,0
97472,note_off,,,,,320,0,9,,,,,10,,,64,0
97472,note_off,,,,,0,0,9,,,,,10,,,67,0
97472,note_off,,,,,0,0,9,,,,,10,,,71,0
97472,note_off,,,,,320,0,8,,,,,7,,,52,0
97472,note_off,,,,,320,0,10,,,,,11,,,64,0
97472,note_off,,,,,320,0,5,,,,,4,,,64,0
97532,note_off,,,,,188,0,4,,,,,3,,,76,0
97532,note_off,,,,,188,0,1,,,,,0,,,76,0
97536,note_on,,,,,64,0,7,,,,,6,,,62,92
97536,note_on,,,,,64,0,10,,,,,11,,,62,60
97536,note_on,,,,,4,0,1,,,,,0,,,77,92
97536,note_on,,,,,64,0,3,,,,,2,,,62,92
97536,note_on,,,,,64,0,9,,,,,10,,,65,60
97536,note_on,,,,,64,0,8,,,,,7,,,50,75
97536,note_on,,,,,0,0,9,,,,,10,,,71,60
97536,note_on,,,,,4,0,4,,,,,3,,,77,108
97724,note_off,,,,,188,0,4,,,,,3,,,77,0
97724,note_off,,,,,188,0,1,,,,,0,,,77,0
97728,note_on,,,,,4,0,1,,,,,0,,,76,92
97728,note_on,,,,,4,0,4,,,,,3,,,76,108
97856,note_off,,,,,320,0,8,,,,,7,,,50,0
97856,note_off,,,,,320,0,3,,,,,2,,,62,0
97856,note_off,,,,,320,0,10,,,,,11,,,62,0
97856,note_off,,,,,0,0,9,,,,,10,,,71,0
97856,note_off,,,,,320,0,9,,,,,10,,,65,0
97856,note_off,,,,,320,0,7,,,,,6,,,62,0
97916,note_off,,,,,188,0,4,,,,,3,,,76,0
97916,note_off,,,,,188,0,1,,,,,0,,,76,0
97920,note_on,,,,,4,0,4,,,,,3,,,79,108
97920,note_on,,,,,4,0,1,,,,,0,,,79,92
98108,note_off,,,,,188,0,1,,,,,0,,,79,0
98108,note_off,,,,,188,0,4,,,,,3,,,79,0
98112,note_on,,,,,4,0,1,,,,,0,,,76,92
98112,note_on,,,,,4,0,4,,,,,3,,,76,108
98112,note_on,,,,,640,0,5,,,,,4,,,64,108
98112,note_on,,,,,640,0,2,,,,,1,,,64,92
98300,note_off,,,,,188,0,5,,,,,4,,,64,0
98300,note_off,,,,,188,0,1,,,,,0,,,76,0
98300,note_off,,,,,188,0,2,,,,,1,,,64,0
98300,note_off,,,,,188,0,4,,,,,3,,,76,0
98304,note_on,,,,,448,0,3,,,,,2,,,61,92
98304,note_on,,,,,448,0,8,,,,,7,,,49,75
98304,note_on,,,,,4,0,2,,,,,1,,,69,92
98304,note_on,,,,,0,0,9,,,,,10,,,69,60
98304,note_on,,,,,448,0,7,,,,,6,,,61,92
98304,note_on,,,,,448,0,9,,,,,10,,,64,60
98304,note_on,,,,,448,0,10,,,,,11,,,61,60
98304,note_on,,,,,4,0,5,,,,,4,,,69,108
98304,note_on,,,,,832,0,6,,,,,5,,,64,92
98492,note_off,,,,,188,0,5,,,,,4,,,69,0
98492,note_off,,,,,188,0,2,,,,,1,,,69,0
98496,note_on,,,,,4,0,2,,,,,1,,,64,92
98496,note_on,,,,,196,0,4,,,,,3,,,76,108
98496,note_on,,,,,196,0,1,,,,,0,,,76,92
98496,note_on,,,,,4,0,5,,,,,4,,,64,108
98624,note_off,,,,,320,0,8,,,,,7,,,49,0
98624,note_off,,,,,320,0,6,,,,,5,,,64,0
98624,note_off,,,,,320,0,10,,,,,11,,,61,0
98624,note_off,,,,,320,0,7,,,,,6,,,61,0
98624,note_off,,,,,320,0,3,,,,,2,,,61,0
98624,note_off,,,,,320,0,9,,,,,10,,,64,0
98624,note_off,,,,,0,0,9,,,,,10,,,69,0
98684,note_off,,,,,188,0,2,,,,,1,,,64,0
98684,note_off,,,,,188,0,4,,,,,3,,,76,0
98684,note_off,,,,,188,0,5,,,,,4,,,64,0
98684,note_off,,,,,188,0,1,,,,,0,,,76,0
98688,note_on,,,,,0,0,9,,,,,10,,,69,60
98688,note_on,,,,,4,0,1,,,,,0,,,81,92
98688,note_on,,,,,4,0,2,,,,,1,,,61,92
98688,note_on,,,,,64,0,6,,,,,5,,,64,92
98688,note_on,,,,,64,0,9,,,,,10,,,61,60
98688,note_on,,,,,64,0,10,,,,,11,,,57,60
98688,note_on,,,,,4,0,4,,,,,3,,,81,108
98688,note_on,,,,,4,0,5,,,,,4,,,61,108
98688,note_on,,,,,64,0,7,,,,,6,,,57,92
98688,note_on,,,,,64,0,3,,,,,2,,,57,92
98688,note_on,,,,,0,0,9,,,,,10,,,64,60
98688,note_on,,,,,64,0,8,,,,,7,,,45,75
98876,note_off,,,,,188,0,4,,,,,3,,,81,0
98876,note_off,,,,,188,0,1,,,,,0,,,81,0
98880,note_on,,,,,4,0,4,,,,,3,,,73,108
98880,note_on,,,,,4,0,1,,,,,0,,,73,92
99008,note_off,,,,,320,0,10,,,,,11,,,57,0
99008,note_off,,,,,320,0,8,,,,,7,,,45,0
99008,note_off,,,,,320,0,2,,,,,1,,,61,0
99008,note_off,,,,,320,0,7,,,,,6,,,57,0
99008,note_off,,,,,320,0,3,,,,,2,,,57,0
99008,note_off,,,,,320,0,6,,,,,5,,,64,0
99008,note_off,,,,,320,0,9,,,,,10,,,61,0
99008,note_off,,,,,0,0,9,,,,,10,,,69,0
99008,note_off,,,,,0,0,9,,,,,10,,,64,0
99008,note_off,,,,,320,0,5,,,,,4,,,61,0
99068,note_off,,,,,188,0,1,,,,,0,,,73,0
99068,note_off,,,,,188,0,4,,,,,3,,,73,0
99072,note_on,,,,,4,0,1,,,,,0,,,74,92
99072,note_on,,,,,4,0,4,,,,,3,,,74,108
99164,note_off,,,,,92,0,4,,,,,3,,,74,0
99164,note_off,,,,,92,0,1,,,,,0,,,74,0
99168,note_on,,,,,4,0,1,,,,,0,,,76,92
99168,note_on,,,,,4,0,4,,,,,3,,,76,108
99260,note_off,,,,,92,0,1,,,,,0,,,76,0
99260,note_off,,,,,92,0,4,,,,,3,,,76,0
99264,note_on,,,,,256,0,5,,,,,4,,,69,108
99264,note_on,,,,,256,0,2,,,,,1,,,69,92
99264,note_on,,,,,4,0,4,,,,,3,,,77,108
99264,note_on,,,,,4,0,1,,,,,0,,,77,92
99452,note_off,,,,,188,0,2,,,,,1,,,69,0
99452,note_off,,,,,188,0,5,,,,,4,,,69,0
99452,note_off,,,,,188,0,1,,,,,0,,,77,0
99452,note_off,,,,,188,0,4,,,,,3,,,77,0
99456,note_on,,,,,448,0,6,,,,,5,,,65,92
99456,note_on,,,,,4,0,2,,,,,1,,,62,92
99456,note_on,,,,,448,0,9,,,,,10,,,65,60
99456,note_on,,,,,448,0,7,,,,,6,,,62,92
99456,note_on,,,,,448,0,3,,,,,2,,,62,92
99456,note_on,,,,,448,0,10,,,,,11,,,62,60
99456,note_on,,,,,448,0,8,,,,,7,,,50,75
99456,note_on,,,,,4,0,5,,,,,4,,,62,108
99456,note_on,,,,,0,0,9,,,,,10,,,69,60
99648,note_on,,,,,196,0,4,,,,,3,,,74,108
99648,note_on,,,,,196,0,1,,,,,0,,,74,92
99776,note_off,,,,,320,0,6,,,,,5,,,65,0
99776,note_off,,,,,320,0,7,,,,,6,,,62,0
99776,note_off,,,,,320,0,3,,,,,2,,,62,0
99776,note_off,,,,,320,0,5,,,,,4,,,62,0
99776,note_off,,,,,320,0,9,,,,,10,,,65,0
99776,note_off,,,,,0,0,9,,,,,10,,,69,0
99776,note_off,,,,,320,0,2,,,,,1,,,62,0
99776,note_off,,,,,320,0,10,,,,,11,,,62,0
99776,note_off,,,,,320,0,8,,,,,7,,,50,0
99836,note_off,,,,,188,0,4,,,,,3,,,74,0
99836,note_off,,,,,188,0,1,,,,,0,,,74,0
99840,note_on,,,,,64,0,3,,,,,2,,,60,92
99840,note_on,,,,,4,0,1,,,,,0,,,76,92
99840,note_on,,,,,64,0,9,,,,,10,,,64,60
99840,note_on,,,,,0,0,9,,,,,10,,,69,60
99840,note_on,,,,,64,0,7,,,,,6,,,60,92
99840,note_on,,,,,64,0,6,,,,,5,,,64,92
99840,note_on,,,,,64,0,10,,,,,11,,,60,60
99840,note_on,,,,,64,0,8,,,,,7,,,48,75
99840,note_on,,,,,4,0,4,,,,,3,,,76,108
100032,note_off,,,,,192,0,4,,,,,3,,,76,0
100032,note_on,,,,,0,0,4,,,,,3,,,74,108
100032,note_off,,,,,192,0,1,,,,,0,,,76,0
100032,note_on,,,,,0,0,1,,,,,0,,,74,92
100160,note_off,,,,,0,0,9,,,,,10,,,69,0
100160,note_off,,,,,320,0,7,,,,,6,,,60,0
100160,note_off,,,,,320,0,8,,,,,7,,,48,0
100160,note_off,,,,,320,0,10,,,,,11,,,60,0
100160,note_off,,,,,320,0,9,,,,,10,,,64,0
100160,note_off,,,,,320,0,6,,,,,5,,,64,0
100160,note_off,,,,,320,0,3,,,,,2,,,60,0
100220,note_off,,,,,188,0,1,,,,,0,,,74,0
100220,note_off,,,,,188,0,4,,,,,3,,,74,0
100224,note_on,,,,,4,0,4,,,,,3,,,77,127
100224,note_on,,,,,4,0,1,,,,,0,,,77,127
100412,note_off,,,,,188,0,1,,,,,0,,,77,0
100412,note_off,,,,,188,0,4,,,,,3,,,77,0
100416,note_on,,,,,4,0,4,,,,,3,,,74,108
100416,note_on,,,,,640,0,2,,,,,1,,,62,92
100416,note_on,,,,,4,0,1,,,,,0,,,74,92
100416,note_on,,,,,640,0,5,,,,,4,,,62,108
100604,note_off,,,,,188,0,5,,,,,4,,,62,0
100604,note_off,,,,,188,0,2,,,,,1,,,62,0
100604,note_off,,,,,188,0,4,,,,,3,,,74,0
100604,note_off,,,,,188,0,1,,,,,0,,,74,0
100608,note_on,,,,,448,0,9,,,,,10,,,62,60
100608,note_on,,,,,4,0,2,,,,,1,,,67,92
100608,note_on,,,,,0,0,9,,,,,10,,,67,60
100608,note_on,,,,,448,0,6,,,,,5,,,62,92
100608,note_on,,,,,448,0,10,,,,,11,,,59,60
100608,note_on,,,,,4,0,5,,,,,4,,,67,108
100608,note_on,,,,,448,0,3,,,,,2,,,59,92
100608,note_on,,,,,448,0,7,,,,,6,,,59,92
100608,note_on,,,,,448,0,8,,,,,7,,,47,75
100796,note_off,,,,,188,0,5,,,,,4,,,67,0
100796,note_off,,,,,188,0,2,,,,,1,,,67,0
100800,note_on,,,,,196,0,1,,,,,0,,,74,92
100800,note_on,,,,,4,0,2,,,,,1,,,62,92
100800,note_on,,,,,4,0,5,,,,,4,,,62,108
100800,note_on,,,,,196,0,4,,,,,3,,,74,108
100928,note_off,,,,,320,0,8,,,,,7,,,47,0
100928,note_off,,,,,320,0,6,,,,,5,,,62,0
100928,note_off,,,,,320,0,10,,,,,11,,,59,0
100928,note_off,,,,,320,0,7,,,,,6,,,59,0
100928,note_off,,,,,320,0,3,,,,,2,,,59,0
100928,note_off,,,,,320,0,9,,,,,10,,,62,0
100928,note_off,,,,,0,0,9,,,,,10,,,67,0
100988,note_off,,,,,188,0,4,,,,,3,,,74,0
100988,note_off,,,,,188,0,1,,,,,0,,,74,0
100988,note_off,,,,,188,0,2,,,,,1,,,62,0
100988,note_off,,,,,188,0,5,,,,,4,,,62,0
100992,note_on,,,,,64,0,3,,,,,2,,,55,92
100992,note_on,,,,,4,0,2,,,,,1,,,59,92
100992,note_on,,,,,64,0,8,,,,,7,,,43,75
100992,note_on,,,,,4,0,1,,,,,0,,,79,92
100992,note_on,,,,,4,0,5,,,,,4,,,59,108
100992,note_on,,,,,64,0,9,,,,,10,,,59,60
100992,note_on,,,,,0,0,9,,,,,10,,,62,60
100992,note_on,,,,,0,0,9,,,,,10,,,67,60
100992,note_on,,,,,64,0,6,,,,,5,,,62,92
100992,note_on,,,,,4,0,4,,,,,3,,,79,108
100992,note_on,,,,,64,0,7,,,,,6,,,55,92
100992,note_on,,,,,64,0,10,,,,,11,,,55,60
101180,note_off,,,,,188,0,1,,,,,0,,,79,0
101180,note_off,,,,,188,0,4,,,,,3,,,79,0
101184,note_on,,,,,4,0,4,,,,,3,,,71,108
101184,note_on,,,,,4,0,1,,,,,0,,,71,92
101312,note_off,,,,,320,0,8,,,,,7,,,43,0
101312,note_off,,,,,320,0,3,,,,,2,,,55,0
101312,note_off,,,,,320,0,10,,,,,11,,,55,0
101312,note_off,,,,,320,0,6,,,,,5,,,62,0
101312,note_off,,,,,320,0,2,,,,,1,,,59,0
101312,note_off,,,,,320,0,5,,,,,4,,,59,0
101312,note_off,,,,,320,0,7,,,,,6,,,55,0
101312,note_off,,,,,320,0,9,,,,,10,,,59,0
101312,note_off,,,,,0,0,9,,,,,10,,,62,0
101312,note_off,,,,,0,0,9,,,,,10,,,67,0
101372,note_off,,,,,188,0,4,,,,,3,,,71,0
101372,note_off,,,,,188,0,1,,,,,0,,,71,0
101376,note_on,,,,,64,0,8,,,,,7,,,36,75
101376,note_on,,,,,4,0,1,,,,,0,,,72,92
101376,note_on,,,,,4,0,4,,,,,3,,,72,108
101376,note_on,,,,,0,0,9,,,,,10,,,64,60
101376,note_on,,,,,0,0,9,,,,,10,,,67,60
101376,note_on,,,,,64,0,3,,,,,2,,,48,92
101376,note_on,,,,,64,0,9,,,,,10,,,60,60
101376,note_on,,,,,64,0,6,,,,,5,,,64,92
101376,note_on,,,,,64,0,7,,,,,6,,,48,92
101376,note_on,,,,,64,0,10,,,,,11,,,48,60
101468,note_off,,,,,92,0,4,,,,,3,,,72,0
101468,note_off,,,,,92,0,1,,,,,0,,,72,0
101472,note_on,,,,,4,0,4,,,,,3,,,74,108
101472,note_on,,,,,4,0,1,,,,,0,,,74,92
101564,note_off,,,,,92,0,4,,,,,3,,,74,0
101564,note_off,,,,,92,0,1,,,,,0,,,74,0
101568,note_on,,,,,4,0,4,,,,,3,,,76,108
101568,note_on,,,,,4,0,1,,,,,0,,,76,92
101696,note_off,,,,,320,0,8,,,,,7,,,36,0
101696,note_off,,,,,320,0,7,,,,,6,,,48,0
101696,note_off,,,,,320,0,10,,,,,11,,,48,0
101696,note_off,,,,,320,0,9,,,,,10,,,60,0
101696,note_off,,,,,0,0,9,,,,,10,,,67,0
101696,note_off,,,,,320,0,3,,,,,2,,,48,0
101696,note_off,,,,,0,0,9,,,,,10,,,64,0
101696,note_off,,,,,320,0,6,,,,,5,,,64,0
101756,note_off,,,,,188,0,1,,,,,0,,,76,0
101756,note_off,,,,,188,0,4,,,,,3,,,76,0
101760,note_on,,,,,64,0,6,,,,,5,,,60,92
101760,note_on,,,,,64,0,10,,,,,11,,,60,60
101760,note_on,,,,,64,0,3,,,,,2,,,60,92
101760,note_on,,,,,64,0,7,,,,,6,,,60,92
101760,note_on,,,,,64,0,9,,,,,10,,,64,60
101760,note_on,,,,,64,0,8,,,,,7,,,48,75
101952,note_on,,,,,640,0,5,,,,,4,,,69,108
101952,note_on,,,,,640,0,2,,,,,1,,,69,92
102080,note_off,,,,,320,0,6,,,,,5,,,60,0
102080,note_off,,,,,320,0,8,,,,,7,,,48,0
102080,note_off,,,,,320,0,9,,,,,10,,,64,0
102080,note_off,,,,,320,0,10,,,,,11,,,60,0
102080,note_off,,,,,320,0,7,,,,,6,,,60,0
102080,note_off,,,,,320,0,3,,,,,2,,,60,0
102140,note_off,,,,,188,0,5,,,,,4,,,69,0
102140,note_off,,,,,188,0,2,,,,,1,,,69,0
102144,note_on,,,,,4,0,2,,,,,1,,,70,92
102144,note_on,,,,,4,0,5,,,,,4,,,70,108
102336,note_on,,,,,0,0,5,,,,,4,,,69,108
102336,note_off,,,,,192,0,5,,,,,4,,,70,0
102336,note_off,,,,,192,0,2,,,,,1,,,70,0
102336,note_on,,,,,0,0,2,,,,,1,,,69,92
102524,note_off,,,,,188,0,5,,,,,4,,,69,0
102524,note_off,,,,,188,0,2,,,,,1,,,69,0
102528,note_on,,,,,448,0,6,,,,,5,,,64,92
102528,note_on,,,,,448,0,9,,,,,10,,,64,60
102528,note_on,,,,,448,0,10,,,,,11,,,48,60
102528,note_on,,,,,0,0,9,,,,,10,,,69,60
102528,note_on,,,,,4,0,5,,,,,4,,,72,108
102528,note_on,,,,,448,0,8,,,,,7,,,36,75
102528,note_on,,,,,448,0,7,,,,,6,,,48,92
102528,note_on,,,,,448,0,3,,,,,2,,,48,92
102528,note_on,,,,,4,0,2,,,,,1,,,72,92
102716,note_off,,,,,188,0,5,,,,,4,,,72,0
102716,note_off,,,,,188,0,2,,,,,1,,,72,0
102720,note_on,,,,,4,0,5,,,,,4,,,69,108
102720,note_on,,,,,4,0,2,,,,,1,,,69,92
102848,note_off,,,,,320,0,10,,,,,11,,,48,0
102848,note_off,,,,,320,0,3,,,,,2,,,48,0
102848,note_off,,,,,320,0,7,,,,,6,,,48,0
102848,note_off,,,,,320,0,9,,,,,10,,,64,0
102848,note_off,,,,,0,0,9,,,,,10,,,69,0
102848,note_off,,,,,320,0,6,,,,,5,,,64,0
102848,note_off,,,,,320,0,8,,,,,7,,,36,0
102908,note_off,,,,,188,0,5,,,,,4,,,69,0
102908,note_off,,,,,188,0,2,,,,,1,,,69,0
102912,note_on,,,,,0,0,9,,,,,10,,,69,60
102912,note_on,,,,,64,0,6,,,,,5,,,60,92
102912,note_on,,,,,64,0,7,,,,,6,,,60,92
102912,note_on,,,,,64,0,10,,,,,11,,,60,60
102912,note_on,,,,,64,0,9,,,,,10,,,64,60
102912,note_on,,,,,64,0,3,,,,,2,,,60,92
102912,note_on,,,,,64,0,8,,,,,7,,,48,75
103104,note_on,,,,,1348,0,4,,,,,3,,,81,108
103104,note_on,,,,,1348,0,1,,,,,0,,,81,92
103232,note_off,,,,,320,0,7,,,,,6,,,60,0
103232,note_off,,,,,0,0,9,,,,,10,,,69,0
103232,note_off,,,,,320,0,6,,,,,5,,,60,0
103232,note_off,,,,,320,0,3,,,,,2,,,60,0
103232,note_off,,,,,320,0,9,,,,,10,,,64,0
103232,note_off,,,,,320,0,8,,,,,7,,,48,0
103232,note_off,,,,,320,0,10,,,,,11,,,60,0
103292,note_off,,,,,188,0,1,,,,,0,,,81,0
103292,note_off,,,,,188,0,4,,,,,3,,,81,0
103296,note_on,,,,,4,0,1,,,,,0,,,82,92
103296,note_on,,,,,4,0,4,,,,,3,,,82,108
103484,note_off,,,,,188,0,1,,,,,0,,,82,0
103484,note_off,,,,,188,0,4,,,,,3,,,82,0
103488,note_on,,,,,4,0,4,,,,,3,,,81,108
103488,note_on,,,,,4,0,1,,,,,0,,,81,92
103676,note_off,,,,,188,0,4,,,,,3,,,81,0
103676,note_off,,,,,188,0,1,,,,,0,,,81,0
103680,note_on,,,,,4,0,4,,,,,3,,,84,108
103680,note_on,,,,,4,0,1,,,,,0,,,84,92
103868,note_off,,,,,188,0,4,,,,,3,,,84,0
103868,note_off,,,,,188,0,1,,,,,0,,,84,0
103872,note_on,,,,,4,0,1,,,,,0,,,81,92
103872,note_on,,,,,4,0,4,,,,,3,,,81,108
104060,note_off,,,,,188,0,4,,,,,3,,,81,0
104060,note_off,,,,,188,0,1,,,,,0,,,81,0
104064,note_on,,,,,832,0,6,,,,,5,,,64,92
104064,note_on,,,,,0,0,9,,,,,10,,,69,60
104064,note_on,,,,,832,0,8,,,,,7,,,36,75
104064,note_on,,,,,832,0,7,,,,,6,,,48,92
104064,note_on,,,,,832,0,9,,,,,10,,,64,60
104064,note_on,,,,,832,0,10,,,,,11,,,48,60
104064,note_on,,,,,832,0,3,,,,,2,,,48,92
104256,note_on,,,,,1348,0,5,,,,,4,,,69,108
104256,note_on,,,,,1348,0,2,,,,,1,,,69,92
104384,note_off,,,,,320,0,7,,,,,6,,,48,0
104384,note_off,,,,,320,0,10,,,,,11,,,48,0
104384,note_off,,,,,320,0,6,,,,,5,,,64,0
104384,note_off,,,,,320,0,9,,,,,10,,,64,0
104384,note_off,,,,,0,0,9,,,,,10,,,69,0
104384,note_off,,,,,320,0,8,,,,,7,,,36,0
104384,note_off,,,,,320,0,3,,,,,2,,,48,0
104444,note_off,,,,,188,0,5,,,,,4,,,69,0
104444,note_off,,,,,188,0,2,,,,,1,,,69,0
104448,note_on,,,,,0,0,9,,,,,10,,,65,60
104448,note_on,,,,,64,0,7,,,,,6,,,50,92
104448,note_on,,,,,64,0,6,,,,,5,,,65,92
104448,note_on,,,,,0,0,9,,,,,10,,,70,60
104448,note_on,,,,,64,0,10,,,,,11,,,50,60
104448,note_on,,,,,64,0,8,,,,,7,,,38,75
104448,note_on,,,,,4,0,5,,,,,4,,,70,108
104448,note_on,,,,,64,0,9,,,,,10,,,62,60
104448,note_on,,,,,4,0,2,,,,,1,,,70,92
104448,note_on,,,,,64,0,3,,,,,2,,,50,92
104640,note_off,,,,,192,0,5,,,,,4,,,70,0
104640,note_on,,,,,0,0,2,,,,,1,,,69,92
104640,note_on,,,,,0,0,5,,,,,4,,,69,108
104640,note_off,,,,,192,0,2,,,,,1,,,70,0
104768,note_off,,,,,320,0,10,,,,,11,,,50,0
104768,note_off,,,,,320,0,6,,,,,5,,,65,0
104768,note_off,,,,,0,0,9,,,,,10,,,70,0
104768,note_off,,,,,320,0,7,,,,,6,,,50,0
104768,note_off,,,,,320,0,8,,,,,7,,,38,0
104768,note_off,,,,,320,0,9,,,,,10,,,62,0
104768,note_off,,,,,0,0,9,,,,,10,,,65,0
104768,note_off,,,,,320,0,3,,,,,2,,,50,0
104828,note_off,,,,,188,0,5,,,,,4,,,69,0
104828,note_off,,,,,188,0,2,,,,,1,,,69,0
104832,note_on,,,,,64,0,7,,,,,6,,,48,92
104832,note_on,,,,,64,0,6,,,,,5,,,57,92
104832,note_on,,,,,64,0,8,,,,,7,,,36,75
104832,note_on,,,,,4,0,5,,,,,4,,,76,108
104832,note_on,,,,,64,0,10,,,,,11,,,48,60
104832,note_on,,,,,0,0,9,,,,,10,,,69,60
104832,note_on,,,,,4,0,2,,,,,1,,,76,92
104832,note_on,,,,,64,0,3,,,,,2,,,48,92
104832,note_on,,,,,64,0,9,,,,,10,,,64,60
105020,note_off,,,,,188,0,5,,,,,4,,,76,0
105020,note_off,,,,,188,0,2,,,,,1,,,76,0
105024,note_on,,,,,4,0,2,,,,,1,,,69,92
105024,note_on,,,,,4,0,5,,,,,4,,,69,108
105152,note_off,,,,,320,0,3,,,,,2,,,48,0
105152,note_off,,,,,320,0,7,,,,,6,,,48,0
105152,note_off,,,,,320,0,9,,,,,10,,,64,0
105152,note_off,,,,,320,0,6,,,,,5,,,57,0
105152,note_off,,,,,0,0,9,,,,,10,,,69,0
105152,note_off,,,,,320,0,10,,,,,11,,,48,0
105152,note_off,,,,,320,0,8,,,,,7,,,36,0
105212,note_off,,,,,188,0,5,,,,,4,,,69,0
105212,note_off,,,,,188,0,2,,,,,1,,,69,0
105216,note_on,,,,,0,0,9,,,,,10,,,69,60
105216,note_on,,,,,64,0,3,,,,,2,,,60,92
105216,note_on,,,,,64,0,7,,,,,6,,,60,92
105216,note_on,,,,,64,0,10,,,,,11,,,60,60
105216,note_on,,,,,64,0,9,,,,,10,,,64,60
105216,note_on,,,,,64,0,8,,,,,7,,,48,75
105408,note_on,,,,,1348,0,1,,,,,0,,,76,92
105408,note_on,,,,,1348,0,4,,,,,3,,,76,108
105536,note_off,,,,,0,0,9,,,,,10,,,69,0
105536,note_off,,,,,320,0,8,,,,,7,,,48,0
105536,note_off,,,,,320,0,3,,,,,2,,,60,0
105536,note_off,,,,,320,0,10,,,,,11,,,60,0
105536,note_off,,,,,320,0,7,,,,,6,,,60,0
105536,note_off,,,,,320,0,9,,,,,10,,,64,0
105596,note_off,,,,,188,0,4,,,,,3,,,76,0
105596,note_off,,,,,188,0,1,,,,,0,,,76,0
105600,note_on,,,,,4,0,4,,,,,3,,,77,108
105600,note_on,,,,,4,0,1,,,,,0,,,77,92
105788,note_off,,,,,188,0,4,,,,,3,,,77,0
105788,note_off,,,,,188,0,1,,,,,0,,,77,0
105792,note_on,,,,,4,0,1,,,,,0,,,76,92
105792,note_on,,,,,4,0,4,,,,,3,,,76,108
105980,note_off,,,,,188,0,1,,,,,0,,,76,0
105980,note_off,,,,,188,0,4,,,,,3,,,76,0
105984,note_on,,,,,448,0,7,,,,,6,,,48,92
105984,note_on,,,,,0,0,9,,,,,10,,,69,60
105984,note_on,,,,,832,0,6,,,,,5,,,64,92
105984,note_on,,,,,448,0,9,,,,,10,,,64,60
105984,note_on,,,,,448,0,8,,,,,7,,,36,75
105984,note_on,,,,,448,0,3,,,,,2,,,48,92
105984,note_on,,,,,4,0,1,,,,,0,,,81,92
105984,note_on,,,,,448,0,10,,,,,11,,,48,60
105984,note_on,,,,,4,0,4,,,,,3,,,81,108
106172,note_off,,,,,188,0,4,,,,,3,,,81,0
106172,note_off,,,,,188,0,1,,,,,0,,,81,0
106176,note_on,,,,,4,0,4,,,,,3,,,76,108
106176,note_on,,,,,4,0,1,,,,,0,,,76,92
106304,note_off,,,,,320,0,6,,,,,5,,,64,0
106304,note_off,,,,,320,0,8,,,,,7,,,36,0
106304,note_off,,,,,320,0,3,,,,,2,,,48,0
106304,note_off,,,,,320,0,7,,,,,6,,,48,0
106304,note_off,,,,,320,0,10,,,,,11,,,48,0
106304,note_off,,,,,320,0,9,,,,,10,,,64,0
106304,note_off,,,,,0,0,9,,,,,10,,,69,0
106364,note_off,,,,,188,0,4,,,,,3,,,76,0
106364,note_off,,,,,188,0,1,,,,,0,,,76,0
106368,note_on,,,,,64,0,6,,,,,5,,,60,92
106368,note_on,,,,,64,0,10,,,,,11,,,60,60
106368,note_on,,,,,64,0,7,,,,,6,,,60,92
106368,note_on,,,,,64,0,8,,,,,7,,,48,75
106368,note_on,,,,,64,0,3,,,,,2,,,60,92
106368,note_on,,,,,64,0,9,,,,,10,,,64,60
106368,note_on,,,,,0,0,9,,,,,10,,,69,60
106560,note_on,,,,,196,0,4,,,,,3,,,81,108
106560,note_on,,,,,196,0,1,,,,,0,,,81,92
106688,note_off,,,,,320,0,9,,,,,10,,,64,0
106688,note_off,,,,,0,0,9,,,,,10,,,69,0
106688,note_off,,,,,320,0,10,,,,,11,,,60,0
106688,note_off,,,,,320,0,7,,,,,6,,,60,0
106688,note_off,,,,,320,0,8,,,,,7,,,48,0
106688,note_off,,,,,320,0,6,,,,,5,,,60,0
106688,note_off,,,,,320,0,3,,,,,2,,,60,0
106748,note_off,,,,,188,0,1,,,,,0,,,81,0
106748,note_off,,,,,188,0,4,,,,,3,,,81,0
106752,note_on,,,,,4,0,1,,,,,0,,,82,92
106752,note_on,,,,,4,0,4,,,,,3,,,82,108
106940,note_off,,,,,188,0,1,,,,,0,,,82,0
106940,note_off,,,,,188,0,4,,,,,3,,,82,0
106944,note_on,,,,,4,0,1,,,,,0,,,81,92
106944,note_on,,,,,4,0,4,,,,,3,,,81,108
107132,note_off,,,,,188,0,4,,,,,3,,,81,0
107132,note_off,,,,,188,0,1,,,,,0,,,81,0
107136,note_on,,,,,448,0,10,,,,,11,,,48,60
107136,note_on,,,,,448,0,7,,,,,6,,,48,92
107136,note_on,,,,,4,0,1,,,,,0,,,84,92
107136,note_on,,,,,448,0,6,,,,,5,,,64,92
107136,note_on,,,,,448,0,9,,,,,10,,,64,60
107136,note_on,,,,,4,0,4,,,,,3,,,84,108
107136,note_on,,,,,448,0,8,,,,,7,,,36,75
107136,note_on,,,,,0,0,9,,,,,10,,,76,60
107136,note_on,,,,,0,0,9,,,,,10,,,69,60
107136,note_on,,,,,448,0,3,,,,,2,,,48,92
107456,note_off,,,,,320,0,10,,,,,11,,,48,0
107456,note_off,,,,,320,0,9,,,,,10,,,64,0
107456,note_off,,,,,0,0,9,,,,,10,,,69,0
107456,note_off,,,,,320,0,6,,,,,5,,,64,0
107456,note_off,,,,,0,0,9,,,,,10,,,76,0
107456,note_off,,,,,320,0,7,,,,,6,,,48,0
107456,note_off,,,,,320,0,8,,,,,7,,,36,0
107456,note_off,,,,,320,0,3,,,,,2,,,48,0
107520,note_on,,,,,64,0,3,,,,,2,,,60,92
107520,note_on,,,,,0,0,9,,,,,10,,,69,60
107520,note_on,,,,,64,0,9,,,,,10,,,64,60
107520,note_on,,,,,64,0,6,,,,,5,,,69,92
107520,note_on,,,,,64,0,10,,,,,11,,,60,60
107520,note_on,,,,,64,0,7,,,,,6,,,60,92
107520,note_on,,,,,64,0,8,,,,,7,,,48,75
107712,note_on,,,,,2500,0,5,,,,,4,,,76,108
107712,note_on,,,,,2500,0,2,,,,,1,,,76,92
107840,note_off,,,,,320,0,7,,,,,6,,,60,0
107840,note_off,,,,,320,0,10,,,,,11,,,60,0
107840,note_off,,,,,320,0,8,,,,,7,,,48,0
107840,note_off,,,,,320,0,3,,,,,2,,,60,0
107840,note_off,,,,,320,0,9,,,,,10,,,64,0
107840,note_off,,,,,320,0,6,,,,,5,,,69,0
107840,note_off,,,,,0,0,9,,,,,10,,,69,0
107900,note_off,,,,,188,0,5,,,,,4,,,76,0
107900,note_off,,,,,188,0,2,,,,,1,,,76,0
107904,note_on,,,,,4,0,5,,,,,4,,,77,108
107904,note_on,,,,,4,0,2,,,,,1,,,77,92
108092,note_off,,,,,188,0,2,,,,,1,,,77,0
108092,note_off,,,,,188,0,5,,,,,4,,,77,0
108096,note_on,,,,,4,0,5,,,,,4,,,76,108
108096,note_on,,,,,4,0,2,,,,,1,,,76,92
108284,note_off,,,,,188,0,5,,,,,4,,,76,0
108284,note_off,,,,,188,0,2,,,,,1,,,76,0
108288,note_on,,,,,448,0,6,,,,,5,,,60,92
108288,note_on,,,,,4,0,5,,,,,4,,,81,108
108288,note_on,,,,,4,0,2,,,,,1,,,81,92
108608,note_off,,,,,320,0,6,,,,,5,,,60,0
108672,note_on,,,,,64,0,6,,,,,5,,,69,92
108800,note_off,,,,,512,0,5,,,,,4,,,81,0
108800,note_off,,,,,512,0,2,,,,,1,,,81,0
108864,note_on,,,,,1024,0,9,,,,,10,,,72,60
108864,note_on,,,,,64,0,2,,,,,1,,,79,92
108864,note_on,,,,,1024,0,7,,,,,6,,,57,92
108864,note_on,,,,,1024,0,3,,,,,2,,,57,92
108864,note_on,,,,,64,0,5,,,,,4,,,79,108
108864,note_on,,,,,1024,0,10,,,,,11,,,57,60
108864,note_on,,,,,1024,0,8,,,,,7,,,45,75
108992,note_off,,,,,320,0,6,,,,,5,,,69,0
109052,note_off,,,,,188,0,10,,,,,11,,,57,0
109052,note_off,,,,,188,0,9,,,,,10,,,72,0
109052,note_off,,,,,188,0,7,,,,,6,,,57,0
109052,note_off,,,,,188,0,5,,,,,4,,,79,0
109052,note_off,,,,,188,0,8,,,,,7,,,45,0
109052,note_off,,,,,188,0,2,,,,,1,,,79,0
109052,note_off,,,,,188,0,3,,,,,2,,,57,0
109056,note_on,,,,,4,0,7,,,,,6,,,62,92
109056,note_on,,,,,4,0,8,,,,,7,,,50,75
109056,note_on,,,,,4,0,5,,,,,4,,,77,108
109056,note_on,,,,,0,0,9,,,,,10,,,77,60
109056,note_on,,,,,4,0,9,,,,,10,,,69,60
109056,note_on,,,,,64,0,6,,,,,5,,,69,92
109056,note_on,,,,,4,0,3,,,,,2,,,62,92
109056,note_on,,,,,4,0,10,,,,,11,,,62,60
109056,note_on,,,,,4,0,2,,,,,1,,,77,92
109244,note_off,,,,,188,0,8,,,,,7,,,50,0
109244,note_off,,,,,188,0,7,,,,,6,,,62,0
109244,note_off,,,,,188,0,5,,,,,4,,,77,0
109244,note_off,,,,,188,0,10,,,,,11,,,62,0
109244,note_off,,,,,188,0,9,,,,,10,,,77,0
109244,note_off,,,,,188,0,3,,,,,2,,,62,0
109244,note_off,,,,,188,0,2,,,,,1,,,77,0
109248,note_on,,,,,4,0,2,,,,,1,,,76,92
109248,note_on,,,,,4,0,10,,,,,11,,,60,60
109248,note_on,,,,,4,0,8,,,,,7,,,48,75
109248,note_on,,,,,4,0,5,,,,,4,,,76,108
109248,note_on,,,,,4,0,7,,,,,6,,,60,92
109248,note_on,,,,,4,0,9,,,,,10,,,76,60
109248,note_on,,,,,4,0,3,,,,,2,,,60,92
109376,note_off,,,,,320,0,6,,,,,5,,,69,0
109436,note_off,,,,,188,0,2,,,,,1,,,76,0
109436,note_off,,,,,188,0,10,,,,,11,,,60,0
109436,note_off,,,,,188,0,5,,,,,4,,,76,0
109436,note_off,,,,,188,0,7,,,,,6,,,60,0
109436,note_off,,,,,188,0,3,,,,,2,,,60,0
109436,note_off,,,,,188,0,9,,,,,10,,,76,0
109436,note_off,,,,,188,0,8,,,,,7,,,48,0
109440,note_on,,,,,4,0,7,,,,,6,,,65,92
109440,note_on,,,,,4,0,10,,,,,11,,,65,60
109440,note_on,,,,,64,0,6,,,,,5,,,69,92
109440,note_on,,,,,4,0,8,,,,,7,,,53,75
109440,note_on,,,,,4,0,5,,,,,4,,,74,108
109440,note_on,,,,,4,0,3,,,,,2,,,65,92
109440,note_on,,,,,4,0,2,,,,,1,,,74,92
109440,note_on,,,,,4,0,9,,,,,10,,,74,60
109724,note_off,,,,,2588,0,1,,,,,0,,,84,0
109724,note_off,,,,,2588,0,4,,,,,3,,,84,0
109728,note_on,,,,,4,0,1,,,,,0,,,82,92
109728,note_on,,,,,4,0,4,,,,,3,,,82,108
109760,note_off,,,,,320,0,9,,,,,10,,,69,0
109760,note_off,,,,,320,0,6,,,,,5,,,69,0
109820,note_off,,,,,92,0,4,,,,,3,,,82,0
109820,note_off,,,,,92,0,1,,,,,0,,,82,0
109824,note_on,,,,,4,0,4,,,,,3,,,82,108
109824,note_on,,,,,64,0,9,,,,,10,,,70,60
109824,note_on,,,,,64,0,6,,,,,5,,,65,92
109824,note_on,,,,,4,0,1,,,,,0,,,82,92
110108,note_off,,,,,284,0,4,,,,,3,,,82,0
110108,note_off,,,,,284,0,1,,,,,0,,,82,0
110112,note_on,,,,,4,0,4,,,,,3,,,81,108
110112,note_on,,,,,4,0,1,,,,,0,,,81,92
110144,note_off,,,,,320,0,9,,,,,10,,,70,0
110144,note_off,,,,,320,0,6,,,,,5,,,65,0
110204,note_off,,,,,92,0,4,,,,,3,,,81,0
110204,note_off,,,,,92,0,1,,,,,0,,,81,0
110208,note_on,,,,,64,0,9,,,,,10,,,69,60
110208,note_on,,,,,4,0,4,,,,,3,,,81,108
110208,note_on,,,,,4,0,1,,,,,0,,,81,92
110208,note_on,,,,,64,0,6,,,,,5,,,74,92
110492,note_off,,,,,284,0,4,,,,,3,,,81,0
110492,note_off,,,,,284,0,1,,,,,0,,,81,0
110496,note_off,,,,,1056,0,10,,,,,11,,,65,0
110496,note_on,,,,,4,0,1,,,,,0,,,80,92
110496,note_off,,,,,1056,0,3,,,,,2,,,65,0
110496,note_off,,,,,1056,0,7,,,,,6,,,65,0
110496,note_off,,,,,1056,0,8,,,,,7,,,53,0
110496,note_on,,,,,4,0,4,,,,,3,,,80,108
110528,note_off,,,,,320,0,9,,,,,10,,,69,0
110528,note_off,,,,,320,0,6,,,,,5,,,74,0
110588,note_off,,,,,92,0,4,,,,,3,,,80,0
110588,note_off,,,,,92,0,1,,,,,0,,,80,0
110592,note_on,,,,,96,0,10,,,,,11,,,64,60
110592,note_on,,,,,96,0,3,,,,,2,,,64,92
110592,note_on,,,,,64,0,9,,,,,10,,,68,60
110592,note_on,,,,,4,0,1,,,,,0,,,80,92
110592,note_on,,,,,96,0,7,,,,,6,,,64,92
110592,note_on,,,,,4,0,4,,,,,3,,,80,108
110592,note_on,,,,,96,0,8,,,,,7,,,52,75
110592,note_on,,,,,64,0,6,,,,,5,,,71,92
110912,note_off,,,,,320,0,7,,,,,6,,,64,0
110912,note_off,,,,,320,0,3,,,,,2,,,64,0
110912,note_off,,,,,320,0,8,,,,,7,,,52,0
110912,note_off,,,,,320,0,10,,,,,11,,,64,0
110976,note_on,,,,,64,0,7,,,,,6,,,52,92
110976,note_on,,,,,64,0,10,,,,,11,,,52,60
110976,note_on,,,,,64,0,8,,,,,7,,,40,75
110976,note_on,,,,,64,0,3,,,,,2,,,52,92
111104,note_off,,,,,512,0,9,,,,,10,,,74,0
111104,note_off,,,,,0,0,9,,,,,10,,,68,0
111104,note_off,,,,,1664,0,5,,,,,4,,,74,0
111104,note_off,,,,,1664,0,2,,,,,1,,,74,0
111104,note_off,,,,,512,0,1,,,,,0,,,80,0
111104,note_off,,,,,512,0,4,,,,,3,,,80,0
111104,note_off,,,,,512,0,6,,,,,5,,,71,0
111168,note_on,,,,,64,0,9,,,,,10,,,68,60
111168,note_on,,,,,0,0,9,,,,,10,,,71,60
111168,note_on,,,,,64,0,6,,,,,5,,,71,92
111168,note_on,,,,,64,0,1,,,,,0,,,80,92
111168,note_on,,,,,64,0,4,,,,,3,,,80,108
111168,note_on,,,,,0,0,9,,,,,10,,,76,60
111168,note_on,,,,,64,0,5,,,,,4,,,76,108
111168,note_on,,,,,64,0,2,,,,,1,,,76,92
111296,note_off,,,,,320,0,10,,,,,11,,,52,0
111296,note_off,,,,,320,0,3,,,,,2,,,52,0
111296,note_off,,,,,320,0,7,,,,,6,,,52,0
111296,note_off,,,,,320,0,8,,,,,7,,,40,0
111356,note_off,,,,,188,0,5,,,,,4,,,76,0
111356,note_off,,,,,188,0,1,,,,,0,,,80,0
111356,note_off,,,,,188,0,6,,,,,5,,,71,0
111356,note_off,,,,,188,0,4,,,,,3,,,80,0
111356,note_off,,,,,0,0,9,,,,,10,,,76,0
111356,note_off,,,,,0,0,9,,,,,10,,,71,0
111356,note_off,,,,,188,0,9,,,,,10,,,68,0
111356,note_off,,,,,188,0,2,,,,,1,,,76,0
111360,note_on,,,,,4,0,6,,,,,5,,,69,92
111360,note_on,,,,,64,0,8,,,,,7,,,41,75
111360,note_on,,,,,64,0,7,,,,,6,,,53,92
111360,note_on,,,,,4,0,2,,,,,1,,,72,92
111360,note_on,,,,,4,0,5,,,,,4,,,72,108
111360,note_on,,,,,64,0,10,,,,,11,,,53,60
111360,note_on,,,,,4,0,1,,,,,0,,,81,92
111360,note_on,,,,,0,0,9,,,,,10,,,72,60
111360,note_on,,,,,4,0,9,,,,,10,,,69,60
111360,note_on,,,,,64,0,3,,,,,2,,,53,92
111360,note_on,,,,,4,0,4,,,,,3,,,81,108
111680,note_off,,,,,320,0,5,,,,,4,,,72,0
111680,note_off,,,,,320,0,6,,,,,5,,,69,0
111680,note_off,,,,,320,0,8,,,,,7,,,41,0
111680,note_off,,,,,320,0,7,,,,,6,,,53,0
111680,note_off,,,,,0,0,9,,,,,10,,,72,0
111680,note_off,,,,,320,0,9,,,,,10,,,69,0
111680,note_off,,,,,320,0,2,,,,,1,,,72,0
111680,note_off,,,,,320,0,3,,,,,2,,,53,0
111680,note_off,,,,,320,0,10,,,,,11,,,53,0
111744,note_on,,,,,64,0,3,,,,,2,,,50,92
111744,note_on,,,,,0,0,9,,,,,10,,,69,60
111744,note_on,,,,,64,0,10,,,,,11,,,50,60
111744,note_on,,,,,64,0,9,,,,,10,,,65,60
111744,note_on,,,,,0,0,9,,,,,10,,,74,60
111744,note_on,,,,,64,0,8,,,,,7,,,38,75
111744,note_on,,,,,64,0,7,,,,,6,,,50,92
111932,note_off,,,,,572,0,1,,,,,0,,,81,0
111932,note_off,,,,,572,0,4,,,,,3,,,81,0
111936,note_on,,,,,4,0,4,,,,,3,,,83,108
111936,note_on,,,,,256,0,5,,,,,4,,,74,108
111936,note_on,,,,,256,0,2,,,,,1,,,74,92
111936,note_on,,,,,256,0,6,,,,,5,,,65,92
111936,note_on,,,,,4,0,1,,,,,0,,,83,92
112064,note_off,,,,,320,0,7,,,,,6,,,50,0
112064,note_off,,,,,0,0,9,,,,,10,,,69,0
112064,note_off,,,,,0,0,9,,,,,10,,,74,0
112064,note_off,,,,,320,0,10,,,,,11,,,50,0
112064,note_off,,,,,320,0,3,,,,,2,,,50,0
112064,note_off,,,,,320,0,8,,,,,7,,,38,0
112064,note_off,,,,,320,0,9,,,,,10,,,65,0
112124,note_off,,,,,188,0,1,,,,,0,,,83,0
112124,note_off,,,,,188,0,6,,,,,5,,,65,0
112124,note_off,,,,,188,0,2,,,,,1,,,74,0
112124,note_off,,,,,188,0,5,,,,,4,,,74,0
112124,note_off,,,,,188,0,4,,,,,3,,,83,0
112128,note_on,,,,,64,0,8,,,,,7,,,40,75
112128,note_on,,,,,4,0,5,,,,,4,,,72,108
112128,note_on,,,,,0,0,9,,,,,10,,,71,60
112128,note_on,,,,,0,0,9,,,,,10,,,68,60
112128,note_on,,,,,4,0,6,,,,,5,,,59,92
112128,note_on,,,,,4,0,2,,,,,1,,,72,92
112128,note_on,,,,,64,0,7,,,,,6,,,52,92
112128,note_on,,,,,64,0,9,,,,,10,,,64,60
112128,note_on,,,,,4,0,1,,,,,0,,,81,92
112128,note_on,,,,,4,0,4,,,,,3,,,81,108
112128,note_on,,,,,64,0,3,,,,,2,,,52,92
112128,note_on,,,,,64,0,10,,,,,11,,,52,60
112172,note_off,,,,,44,0,2,,,,,1,,,72,0
112172,note_off,,,,,44,0,4,,,,,3,,,81,0
112172,note_off,,,,,44,0,5,,,,,4,,,72,0
112172,note_off,,,,,44,0,1,,,,,0,,,81,0
112176,note_on,,,,,4,0,2,,,,,1,,,71,92
112176,note_on,,,,,4,0,5,,,,,4,,,71,108
112176,note_on,,,,,4,0,1,,,,,0,,,80,92
112176,note_on,,,,,4,0,4,,,,,3,,,80,108
112220,note_off,,,,,44,0,1,,,,,0,,,80,0
112220,note_off,,,,,44,0,4,,,,,3,,,80,0
112220,note_off,,,,,44,0,2,,,,,1,,,71,0
112220,note_off,,,,,44,0,5,,,,,4,,,71,0
112224,note_on,,,,,4,0,4,,,,,3,,,81,108
112224,note_on,,,,,4,0,1,,,,,0,,,81,92
112224,note_on,,,,,4,0,2,,,,,1,,,72,92
112224,note_on,,,,,4,0,5,,,,,4,,,72,108
112268,note_off,,,,,44,0,4,,,,,3,,,81,0
112268,note_off,,,,,44,0,2,,,,,1,,,72,0
112268,note_off,,,,,44,0,1,,,,,0,,,81,0
112268,note_off,,,,,44,0,5,,,,,4,,,72,0
112272,note_on,,,,,4,0,5,,,,,4,,,71,108
112272,note_on,,,,,4,0,2,,,,,1,,,71,92
112272,note_on,,,,,4,0,1,,,,,0,,,80,92
112272,note_on,,,,,4,0,4,,,,,3,,,80,108
112316,note_off,,,,,44,0,2,,,,,1,,,71,0
112316,note_off,,,,,44,0,4,,,,,3,,,80,0
112316,note_off,,,,,44,0,5,,,,,4,,,71,0
112316,note_off,,,,,44,0,1,,,,,0,,,80,0
112320,note_on,,,,,4,0,2,,,,,1,,,72,92
112320,note_on,,,,,4,0,5,,,,,4,,,72,108
112320,note_on,,,,,4,0,1,,,,,0,,,81,92
112320,note_on,,,,,4,0,4,,,,,3,,,81,108
112364,note_off,,,,,44,0,5,,,,,4,,,72,0
112364,note_off,,,,,44,0,2,,,,,1,,,72,0
112364,note_off,,,,,44,0,4,,,,,3,,,81,0
112364,note_off,,,,,44,0,1,,,,,0,,,81,0
112368,note_on,,,,,4,0,5,,,,,4,,,71,108
112368,note_on,,,,,4,0,2,,,,,1,,,71,92
112368,note_on,,,,,4,0,4,,,,,3,,,80,108
112368,note_on,,,,,4,0,1,,,,,0,,,80,92
112412,note_off,,,,,44,0,2,,,,,1,,,71,0
112412,note_off,,,,,44,0,4,,,,,3,,,80,0
112412,note_off,,,,,44,0,1,,,,,0,,,80,0
112412,note_off,,,,,44,0,5,,,,,4,,,71,0
112416,note_on,,,,,4,0,4,,,,,3,,,81,108
112416,note_on,,,,,4,0,5,,,,,4,,,72,108
112416,note_on,,,,,4,0,2,,,,,1,,,72,92
112416,note_on,,,,,4,0,1,,,,,0,,,81,92
112448,note_off,,,,,320,0,3,,,,,2,,,52,0
112448,note_off,,,,,320,0,8,,,,,7,,,40,0
112448,note_off,,,,,320,0,6,,,,,5,,,59,0
112448,note_off,,,,,320,0,7,,,,,6,,,52,0
112448,note_off,,,,,320,0,10,,,,,11,,,52,0
112460,note_off,,,,,44,0,5,,,,,4,,,72,0
112460,note_off,,,,,44,0,1,,,,,0,,,81,0
112460,note_off,,,,,44,0,4,,,,,3,,,81,0
112460,note_off,,,,,44,0,2,,,,,1,,,72,0
112464,note_on,,,,,4,0,2,,,,,1,,,71,92
112464,note_on,,,,,4,0,5,,,,,4,,,71,108
112464,note_on,,,,,4,0,4,,,,,3,,,80,108
112464,note_on,,,,,4,0,1,,,,,0,,,80,92
112508,note_off,,,,,44,0,4,,,,,3,,,80,0
112508,note_off,,,,,44,0,2,,,,,1,,,71,0
112508,note_off,,,,,44,0,1,,,,,0,,,80,0
112508,note_off,,,,,44,0,5,,,,,4,,,71,0
112512,note_on,,,,,64,0,10,,,,,11,,,40,60
112512,note_on,,,,,4,0,2,,,,,1,,,72,92
112512,note_on,,,,,64,0,6,,,,,5,,,64,92
112512,note_on,,,,,64,0,3,,,,,2,,,40,92
112512,note_on,,,,,64,0,8,,,,,7,,,28,75
112512,note_on,,,,,64,0,7,,,,,6,,,40,92
112512,note_on,,,,,4,0,4,,,,,3,,,81,108
112512,note_on,,,,,4,0,1,,,,,0,,,81,92
112512,note_on,,,,,4,0,5,,,,,4,,,72,108
112556,note_off,,,,,44,0,2,,,,,1,,,72,0
112556,note_off,,,,,44,0,4,,,,,3,,,81,0
112556,note_off,,,,,44,0,1,,,,,0,,,81,0
112556,note_off,,,,,44,0,5,,,,,4,,,72,0
112560,note_on,,,,,4,0,5,,,,,4,,,71,108
112560,note_on,,,,,4,0,4,,,,,3,,,80,108
112560,note_on,,,,,4,0,2,,,,,1,,,71,92
112560,note_on,,,,,4,0,1,,,,,0,,,80,92
112700,note_off,,,,,140,0,4,,,,,3,,,80,0
112700,note_off,,,,,140,0,2,,,,,1,,,71,0
112700,note_off,,,,,140,0,1,,,,,0,,,80,0
112700,note_off,,,,,140,0,5,,,,,4,,,71,0
112704,note_on,,,,,4,0,4,,,,,3,,,81,108
112704,note_on,,,,,4,0,2,,,,,1,,,69,92
112704,note_on,,,,,4,0,1,,,,,0,,,81,92
112704,note_on,,,,,4,0,5,,,,,4,,,69,108
112800,note_off,,,,,672,0,9,,,,,10,,,64,0
112800,note_off,,,,,0,0,9,,,,,10,,,68,0
112800,note_off,,,,,0,0,9,,,,,10,,,71,0
112832,note_off,,,,,320,0,10,,,,,11,,,40,0
112832,note_off,,,,,320,0,6,,,,,5,,,64,0
112832,note_off,,,,,320,0,8,,,,,7,,,28,0
112832,note_off,,,,,320,0,3,,,,,2,,,40,0
112832,note_off,,,,,320,0,7,,,,,6,,,40,0
112892,note_off,,,,,188,0,1,,,,,0,,,81,0
112892,note_off,,,,,188,0,4,,,,,3,,,81,0
112892,note_off,,,,,188,0,5,,,,,4,,,69,0
112892,note_off,,,,,188,0,2,,,,,1,,,69,0
112896,note_on,,,,,4,0,5,,,,,4,,,69,108
112896,note_on,,,,,64,0,6,,,,,5,,,64,92
112896,note_on,,,,,64,0,10,,,,,11,,,45,60
112896,note_on,,,,,64,0,3,,,,,2,,,45,92
112896,note_on,,,,,64,0,7,,,,,6,,,45,92
112896,note_on,,,,,0,0,9,,,,,10,,,69,60
112896,note_on,,,,,0,0,9,,,,,10,,,72,60
112896,note_on,,,,,4,0,2,,,,,1,,,69,92
112896,note_on,,,,,4,0,1,,,,,0,,,81,92
112896,note_on,,,,,96,0,9,,,,,10,,,64,60
112896,note_on,,,,,64,0,8,,,,,7,,,33,75
112896,note_on,,,,,4,0,4,,,,,3,,,81,108
113216,note_off,,,,,320,0,9,,,,,10,,,64,0
113216,note_off,,,,,0,0,9,,,,,10,,,69,0
113216,note_off,,,,,320,0,6,,,,,5,,,64,0
113216,note_off,,,,,0,0,9,,,,,10,,,72,0
113216,note_off,,,,,320,0,4,,,,,3,,,81,0
113216,note_off,,,,,320,0,8,,,,,7,,,33,0
113216,note_off,,,,,320,0,5,,,,,4,,,69,0
113216,note_off,,,,,320,0,10,,,,,11,,,45,0
113216,note_off,,,,,320,0,2,,,,,1,,,69,0
113216,note_off,,,,,320,0,7,,,,,6,,,45,0
113216,note_off,,,,,320,0,1,,,,,0,,,81,0
113216,note_off,,,,,320,0,3,,,,,2,,,45,0
113472,note_on,,,,,256,0,1,,,,,0,,,72,92
113660,note_off,,,,,188,0,1,,,,,0,,,72,0
113664,note_on,,,,,4,0,1,,,,,0,,,71,92
113852,note_off,,,,,188,0,1,,,,,0,,,71,0
113856,note_on,,,,,4,0,1,,,,,0,,,69,92
114044,note_off,,,,,188,0,1,,,,,0,,,69,0
114048,note_on,,,,,4,0,1,,,,,0,,,68,92
114144,note_off,,,,,96,0,1,,,,,0,,,68,0
114144,note_on,,,,,0,0,1,,,,,0,,,69,92
114240,note_on,,,,,0,0,1,,,,,0,,,71,92
114240,note_off,,,,,96,0,1,,,,,0,,,69,0
114428,note_off,,,,,188,0,1,,,,,0,,,71,0
114624,note_on,,,,,196,0,1,,,,,0,,,74,92
114812,note_off,,,,,188,0,1,,,,,0,,,74,0
114816,note_on,,,,,4,0,1,,,,,0,,,72,92
115004,note_off,,,,,188,0,1,,,,,0,,,72,0
115008,note_on,,,,,4,0,1,,,,,0,,,71,92
115196,note_off,,,,,188,0,1,,,,,0,,,71,0
115200,note_on,,,,,4,0,1,,,,,0,,,69,92
115296,note_on,,,,,0,0,1,,,,,0,,,71,92
115296,note_off,,,,,96,0,1,,,,,0,,,69,0
115392,note_off,,,,,96,0,1,,,,,0,,,71,0
115392,note_on,,,,,0,0,1,,,,,0,,,72,92
115580,note_off,,,,,188,0,1,,,,,0,,,72,0
115776,note_on,,,,,196,0,1,,,,,0,,,76,92
115776,note_on,,,,,2560,0,2,,,,,1,,,72,92
115964,note_off,,,,,188,0,2,,,,,1,,,72,0
115964,note_off,,,,,188,0,1,,,,,0,,,76,0
115968,note_on,,,,,4,0,1,,,,,0,,,74,92
115968,note_on,,,,,4,0,2,,,,,1,,,71,92
116156,note_off,,,,,188,0,1,,,,,0,,,74,0
116156,note_off,,,,,188,0,2,,,,,1,,,71,0
116160,note_on,,,,,4,0,2,,,,,1,,,69,92
116160,note_on,,,,,4,0,1,,,,,0,,,72,92
116348,note_off,,,,,188,0,2,,,,,1,,,69,0
116348,note_off,,,,,188,0,1,,,,,0,,,72,0
116352,note_on,,,,,4,0,2,,,,,1,,,68,92
116352,note_on,,,,,4,0,1,,,,,0,,,71,92
116448,note_off,,,,,96,0,2,,,,,1,,,68,0
116448,note_on,,,,,0,0,2,,,,,1,,,69,92
116448,note_on,,,,,0,0,1,,,,,0,,,72,92
116448,note_off,,,,,96,0,1,,,,,0,,,71,0
116544,note_off,,,,,96,0,2,,,,,1,,,69,0
116544,note_on,,,,,0,0,2,,,,,1,,,71,92
116544,note_off,,,,,96,0,1,,,,,0,,,72,0
116544,note_on,,,,,0,0,1,,,,,0,,,74,92
116732,note_off,,,,,188,0,2,,,,,1,,,71,0
116732,note_off,,,,,188,0,1,,,,,0,,,74,0
116928,note_on,,,,,196,0,2,,,,,1,,,74,92
116928,note_on,,,,,196,0,1,,,,,0,,,77,92
117116,note_off,,,,,188,0,2,,,,,1,,,74,0
117116,note_off,,,,,188,0,1,,,,,0,,,77,0
117120,note_on,,,,,4,0,1,,,,,0,,,76,92
117120,note_on,,,,,4,0,2,,,,,1,,,72,92
117308,note_off,,,,,188,0,1,,,,,0,,,76,0
117308,note_off,,,,,188,0,2,,,,,1,,,72,0
117312,note_on,,,,,4,0,1,,,,,0,,,74,92
117312,note_on,,,,,4,0,2,,,,,1,,,71,92
117500,note_off,,,,,188,0,1,,,,,0,,,74,0
117500,note_off,,,,,188,0,2,,,,,1,,,71,0
117504,note_on,,,,,4288,0,5,,,,,4,,,64,60
117504,note_on,,,,,4,0,2,,,,,1,,,72,92
117504,note_on,,,,,4288,0,6,,,,,5,,,61,45
117504,note_on,,,,,4288,0,7,,,,,6,,,57,45
117504,note_on,,,,,4288,0,3,,,,,2,,,57,45
117504,note_on,,,,,4288,0,8,,,,,7,,,45,30
117504,note_on,,,,,0,0,9,,,,,10,,,69,30
117504,note_on,,,,,4288,0,10,,,,,11,,,57,30
117504,note_on,,,,,4288,0,9,,,,,10,,,65,30
117504,note_on,,,,,4288,0,4,,,,,3,,,69,60
117504,note_on,,,,,4,0,1,,,,,0,,,72,92
117600,note_off,,,,,96,0,1,,,,,0,,,72,0
117600,note_on,,,,,0,0,1,,,,,0,,,74,92
117600,note_on,,,,,0,0,2,,,,,1,,,74,92
117600,note_off,,,,,96,0,2,,,,,1,,,72,0
117696,note_on,,,,,0,0,2,,,,,1,,,76,92
117696,note_off,,,,,96,0,1,,,,,0,,,74,0
117696,note_off,,,,,96,0,2,,,,,1,,,74,0
117696,note_on,,,,,0,0,1,,,,,0,,,76,92
117884,note_off,,,,,188,0,1,,,,,0,,,76,0
117884,note_off,,,,,188,0,2,,,,,1,,,76,0
118080,note_on,,,,,196,0,2,,,,,1,,,77,92
118080,note_on,,,,,196,0,1,,,,,0,,,77,92
118268,note_off,,,,,188,0,2,,,,,1,,,77,0
118268,note_off,,,,,188,0,1,,,,,0,,,77,0
118272,note_on,,,,,4,0,2,,,,,1,,,76,92
118272,note_on,,,,,4,0,1,,,,,0,,,76,92
118460,note_off,,,,,188,0,1,,,,,0,,,76,0
118460,note_off,,,,,188,0,2,,,,,1,,,76,0
118464,note_on,,,,,4,0,1,,,,,0,,,74,92
118464,note_on,,,,,4,0,2,,,,,1,,,74,92
118560,note_off,,,,,1056,0,4,,,,,3,,,69,0
118560,note_off,,,,,1056,0,9,,,,,10,,,65,0
118560,note_off,,,,,0,0,9,,,,,10,,,69,0
118560,note_off,,,,,1056,0,3,,,,,2,,,57,0
118560,note_off,,,,,1056,0,7,,,,,6,,,57,0
118560,note_off,,,,,1056,0,10,,,,,11,,,57,0
118560,note_off,,,,,1056,0,8,,,,,7,,,45,0
118652,note_off,,,,,188,0,1,,,,,0,,,74,0
118652,note_off,,,,,188,0,2,,,,,1,,,74,0
118656,note_on,,,,,0,0,9,,,,,10,,,64,30
118656,note_on,,,,,0,0,9,,,,,10,,,61,30
118656,note_on,,,,,96,0,9,,,,,10,,,58,30
118656,note_on,,,,,96,0,3,,,,,2,,,55,45
118656,note_on,,,,,96,0,4,,,,,3,,,70,60
118656,note_on,,,,,4,0,1,,,,,0,,,73,92
118656,note_on,,,,,96,0,8,,,,,7,,,43,30
118656,note_on,,,,,4,0,2,,,,,1,,,73,92
118656,note_on,,,,,96,0,10,,,,,11,,,55,30
118656,note_on,,,,,96,0,7,,,,,6,,,55,45
118752,note_on,,,,,0,0,2,,,,,1,,,74,92
118752,note_off,,,,,96,0,1,,,,,0,,,73,0
118752,note_on,,,,,0,0,1,,,,,0,,,74,92
118752,note_off,,,,,96,0,2,,,,,1,,,73,0
118848,note_off,,,,,96,0,2,,,,,1,,,74,0
118848,note_off,,,,,96,0,1,,,,,0,,,74,0
118848,note_on,,,,,0,0,2,,,,,1,,,76,92
118848,note_on,,,,,0,0,1,,,,,0,,,76,92
119036,note_off,,,,,188,0,1,,,,,0,,,76,0
119036,note_off,,,,,188,0,2,,,,,1,,,76,0
119232,note_on,,,,,196,0,2,,,,,1,,,82,92
119232,note_on,,,,,196,0,1,,,,,0,,,82,92
119420,note_off,,,,,188,0,2,,,,,1,,,82,0
119420,note_off,,,,,188,0,1,,,,,0,,,82,0
119424,note_on,,,,,4,0,2,,,,,1,,,81,92
119424,note_on,,,,,4,0,1,,,,,0,,,81,92
119612,note_off,,,,,188,0,2,,,,,1,,,81,0
119612,note_off,,,,,188,0,1,,,,,0,,,81,0
119616,note_on,,,,,4,0,2,,,,,1,,,79,92
119616,note_on,,,,,4,0,1,,,,,0,,,79,92
119712,note_off,,,,,1056,0,4,,,,,3,,,70,0
119712,note_off,,,,,1056,0,8,,,,,7,,,43,0
119712,note_off,,,,,1056,0,7,,,,,6,,,55,0
119712,note_off,,,,,2208,0,6,,,,,5,,,61,0
119712,note_off,,,,,2208,0,5,,,,,4,,,64,0
119712,note_off,,,,,0,0,9,,,,,10,,,64,0
119712,note_off,,,,,1056,0,10,,,,,11,,,55,0
119712,note_off,,,,,0,0,9,,,,,10,,,61,0
119712,note_off,,,,,1056,0,9,,,,,10,,,58,0
119712,note_off,,,,,1056,0,3,,,,,2,,,55,0
119804,note_off,,,,,188,0,1,,,,,0,,,79,0
119804,note_off,,,,,188,0,2,,,,,1,,,79,0
119808,note_on,,,,,0,0,9,,,,,10,,,62,30
119808,note_on,,,,,0,0,9,,,,,10,,,65,30
119808,note_on,,,,,96,0,4,,,,,3,,,69,60
119808,note_on,,,,,96,0,9,,,,,10,,,57,30
119808,note_on,,,,,4,0,1,,,,,0,,,77,92
119808,note_on,,,,,4,0,2,,,,,1,,,77,92
119808,note_on,,,,,96,0,8,,,,,7,,,38,30
119808,note_on,,,,,96,0,7,,,,,6,,,50,45
119808,note_on,,,,,96,0,6,,,,,5,,,62,45
119808,note_on,,,,,96,0,5,,,,,4,,,65,60
119808,note_on,,,,,96,0,10,,,,,11,,,50,30
119808,note_on,,,,,96,0,3,,,,,2,,,50,45
119904,note_on,,,,,0,0,1,,,,,0,,,76,92
119904,note_on,,,,,0,0,2,,,,,1,,,76,92
119904,note_off,,,,,96,0,1,,,,,0,,,77,0
119904,note_off,,,,,96,0,2,,,,,1,,,77,0
120000,note_off,,,,,96,0,1,,,,,0,,,76,0
120000,note_on,,,,,0,0,1,,,,,0,,,74,92
120000,note_on,,,,,0,0,2,,,,,1,,,74,92
120000,note_off,,,,,96,0,2,,,,,1,,,76,0
120188,note_off,,,,,188,0,1,,,,,0,,,74,0
120188,note_off,,,,,188,0,2,,,,,1,,,74,0
120384,note_on,,,,,196,0,2,,,,,1,,,82,92
120384,note_on,,,,,196,0,1,,,,,0,,,82,92
120572,note_off,,,,,188,0,2,,,,,1,,,82,0
120572,note_off,,,,,188,0,1,,,,,0,,,82,0
120576,note_on,,,,,4,0,2,,,,,1,,,81,92
120576,note_on,,,,,4,0,1,,,,,0,,,81,92
120764,note_off,,,,,188,0,2,,,,,1,,,81,0
120764,note_off,,,,,188,0,1,,,,,0,,,81,0
120768,note_on,,,,,4,0,2,,,,,1,,,79,92
120768,note_on,,,,,4,0,1,,,,,0,,,79,92
120864,note_off,,,,,1056,0,5,,,,,4,,,65,0
120864,note_off,,,,,1056,0,10,,,,,11,,,50,0
120864,note_off,,,,,1056,0,9,,,,,10,,,57,0
120864,note_off,,,,,1056,0,3,,,,,2,,,50,0
120864,note_off,,,,,0,0,9,,,,,10,,,62,0
120864,note_off,,,,,1056,0,8,,,,,7,,,38,0
120864,note_off,,,,,0,0,9,,,,,10,,,65,0
120864,note_off,,,,,1056,0,7,,,,,6,,,50,0
120956,note_off,,,,,188,0,1,,,,,0,,,79,0
120956,note_off,,,,,188,0,2,,,,,1,,,79,0
120960,note_on,,,,,96,0,5,,,,,4,,,66,60
120960,note_on,,,,,96,0,7,,,,,6,,,48,45
120960,note_on,,,,,4,0,1,,,,,0,,,78,92
120960,note_on,,,,,96,0,3,,,,,2,,,48,45
120960,note_on,,,,,96,0,10,,,,,11,,,48,30
120960,note_on,,,,,0,0,9,,,,,10,,,66,30
120960,note_on,,,,,0,0,9,,,,,10,,,62,30
120960,note_on,,,,,96,0,9,,,,,10,,,57,30
120960,note_on,,,,,4,0,2,,,,,1,,,78,92
120960,note_on,,,,,96,0,8,,,,,7,,,36,30
121056,note_off,,,,,96,0,2,,,,,1,,,78,0
121056,note_on,,,,,0,0,1,,,,,0,,,79,92
121056,note_on,,,,,0,0,2,,,,,1,,,79,92
121056,note_off,,,,,96,0,1,,,,,0,,,78,0
121152,note_off,,,,,96,0,2,,,,,1,,,79,0
121152,note_on,,,,,0,0,1,,,,,0,,,81,92
121152,note_off,,,,,96,0,1,,,,,0,,,79,0
121152,note_on,,,,,0,0,2,,,,,1,,,81,92
121340,note_off,,,,,188,0,2,,,,,1,,,81,0
121340,note_off,,,,,188,0,1,,,,,0,,,81,0
121536,note_on,,,,,196,0,1,,,,,0,,,81,92
121536,note_on,,,,,196,0,2,,,,,1,,,81,92
121724,note_off,,,,,188,0,2,,,,,1,,,81,0
121724,note_off,,,,,188,0,1,,,,,0,,,81,0
121728,note_on,,,,,4,0,1,,,,,0,,,79,92
121728,note_on,,,,,4,0,2,,,,,1,,,79,92
121916,note_off,,,,,188,0,2,,,,,1,,,79,0
121916,note_off,,,,,188,0,1,,,,,0,,,79,0
121920,note_on,,,,,4,0,1,,,,,0,,,78,92
121920,note_on,,,,,4,0,2,,,,,1,,,78,92
122016,note_off,,,,,1056,0,9,,,,,10,,,57,0
122016,note_off,,,,,0,0,9,,,,,10,,,62,0
122016,note_off,,,,,0,0,9,,,,,10,,,66,0
122016,note_off,,,,,1056,0,3,,,,,2,,,48,0
122016,note_off,,,,,1056,0,8,,,,,7,,,36,0
122016,note_off,,,,,1056,0,10,,,,,11,,,48,0
122016,note_off,,,,,2208,0,4,,,,,3,,,69,0
122016,note_off,,,,,1056,0,7,,,,,6,,,48,0
122016,note_off,,,,,2208,0,6,,,,,5,,,62,0
122016,note_off,,,,,1056,0,5,,,,,4,,,66,0
122108,note_off,,,,,188,0,2,,,,,1,,,78,0
122108,note_off,,,,,188,0,1,,,,,0,,,78,0
122112,note_on,,,,,96,0,4,,,,,3,,,74,60
122112,note_on,,,,,96,0,10,,,,,11,,,47,30
122112,note_on,,,,,96,0,5,,,,,4,,,62,60
122112,note_on,,,,,96,0,7,,,,,6,,,47,45
122112,note_on,,,,,96,0,8,,,,,7,,,35,30
122112,note_on,,,,,4,0,2,,,,,1,,,79,92
122112,note_on,,,,,0,0,9,,,,,10,,,67,30
122112,note_on,,,,,96,0,6,,,,,5,,,67,45
122112,note_on,,,,,0,0,9,,,,,10,,,62,30
122112,note_on,,,,,96,0,9,,,,,10,,,59,30
122112,note_on,,,,,4,0,1,,,,,0,,,79,92
122112,note_on,,,,,96,0,3,,,,,2,,,47,45
122208,note_on,,,,,0,0,2,,,,,1,,,81,92
122208,note_off,,,,,96,0,2,,,,,1,,,79,0
122208,note_on,,,,,0,0,1,,,,,0,,,81,92
122208,note_off,,,,,96,0,1,,,,,0,,,79,0
122304,note_off,,,,,96,0,2,,,,,1,,,81,0
122304,note_off,,,,,96,0,1,,,,,0,,,81,0
122304,note_on,,,,,0,0,1,,,,,0,,,83,92
122304,note_on,,,,,0,0,2,,,,,1,,,83,92
122492,note_off,,,,,188,0,2,,,,,1,,,83,0
122492,note_off,,,,,188,0,1,,,,,0,,,83,0
122688,note_on,,,,,196,0,2,,,,,1,,,84,92
122688,note_on,,,,,196,0,1,,,,,0,,,84,92
122876,note_off,,,,,188,0,1,,,,,0,,,84,0
122876,note_off,,,,,188,0,2,,,,,1,,,84,0
122880,note_on,,,,,4,0,1,,,,,0,,,83,92
122880,note_on,,,,,4,0,2,,,,,1,,,83,92
123068,note_off,,,,,188,0,1,,,,,0,,,83,0
123068,note_off,,,,,188,0,2,,,,,1,,,83,0
123072,note_on,,,,,4,0,1,,,,,0,,,81,92
123072,note_on,,,,,4,0,2,,,,,1,,,81,92
123168,note_off,,,,,1056,0,7,,,,,6,,,47,0
123168,note_off,,,,,1056,0,5,,,,,4,,,62,0
123168,note_off,,,,,0,0,9,,,,,10,,,62,0
123168,note_off,,,,,1056,0,10,,,,,11,,,47,0
123168,note_off,,,,,1056,0,6,,,,,5,,,67,0
123168,note_off,,,,,0,0,9,,,,,10,,,67,0
123168,note_off,,,,,1056,0,3,,,,,2,,,47,0
123168,note_off,,,,,1056,0,4,,,,,3,,,74,0
123168,note_off,,,,,1056,0,8,,,,,7,,,35,0
123168,note_off,,,,,1056,0,9,,,,,10,,,59,0
123260,note_off,,,,,188,0,2,,,,,1,,,81,0
123260,note_off,,,,,188,0,1,,,,,0,,,81,0
123264,note_on,,,,,96,0,4,,,,,3,,,71,60
123264,note_on,,,,,0,0,9,,,,,10,,,64,30
123264,note_on,,,,,0,0,9,,,,,10,,,68,30
123264,note_on,,,,,4,0,1,,,,,0,,,80,92
123264,note_on,,,,,96,0,5,,,,,4,,,64,60
123264,note_on,,,,,96,0,9,,,,,10,,,59,30
123264,note_on,,,,,96,0,3,,,,,2,,,50,45
123264,note_on,,,,,96,0,6,,,,,5,,,68,45
123264,note_on,,,,,96,0,10,,,,,11,,,50,30
123264,note_on,,,,,4,0,2,,,,,1,,,80,92
123264,note_on,,,,,96,0,8,,,,,7,,,38,30
123264,note_on,,,,,96,0,7,,,,,6,,,50,45
123360,note_on,,,,,0,0,1,,,,,0,,,81,92
123360,note_off,,,,,96,0,1,,,,,0,,,80,0
123360,note_off,,,,,96,0,2,,,,,1,,,80,0
123360,note_on,,,,,0,0,2,,,,,1,,,81,92
123456,note_on,,,,,0,0,2,,,,,1,,,83,92
123456,note_on,,,,,0,0,1,,,,,0,,,83,92
123456,note_off,,,,,96,0,1,,,,,0,,,81,0
123456,note_off,,,,,96,0,2,,,,,1,,,81,0
123644,note_off,,,,,188,0,2,,,,,1,,,83,0
123644,note_off,,,,,188,0,1,,,,,0,,,83,0
123840,note_on,,,,,196,0,2,,,,,1,,,83,92
123840,note_on,,,,,196,0,1,,,,,0,,,83,92
124028,note_off,,,,,188,0,1,,,,,0,,,83,0
124028,note_off,,,,,188,0,2,,,,,1,,,83,0
124032,note_on,,,,,4,0,1,,,,,0,,,81,92
124032,note_on,,,,,4,0,2,,,,,1,,,81,92
124220,note_off,,,,,188,0,1,,,,,0,,,81,0
124220,note_off,,,,,188,0,2,,,,,1,,,81,0
124224,note_on,,,,,4,0,2,,,,,1,,,80,92
124224,note_on,,,,,4,0,1,,,,,0,,,80,92
124320,note_off,,,,,0,0,9,,,,,10,,,64,0
124320,note_off,,,,,1056,0,6,,,,,5,,,68,0
124320,note_off,,,,,1056,0,4,,,,,3,,,71,0
124320,note_off,,,,,1056,0,10,,,,,11,,,50,0
124320,note_off,,,,,1056,0,9,,,,,10,,,59,0
124320,note_off,,,,,1056,0,3,,,,,2,,,50,0
124320,note_off,,,,,0,0,9,,,,,10,,,68,0
124320,note_off,,,,,1056,0,7,,,,,6,,,50,0
124320,note_off,,,,,1056,0,8,,,,,7,,,38,0
124412,note_off,,,,,188,0,1,,,,,0,,,80,0
124412,note_off,,,,,188,0,2,,,,,1,,,80,0
124416,note_on,,,,,4,0,1,,,,,0,,,81,92
124416,note_on,,,,,0,0,9,,,,,10,,,69,30
124416,note_on,,,,,96,0,8,,,,,7,,,36,30
124416,note_on,,,,,96,0,9,,,,,10,,,64,30
124416,note_on,,,,,96,0,7,,,,,6,,,48,45
124416,note_on,,,,,96,0,3,,,,,2,,,48,45
124416,note_on,,,,,96,0,4,,,,,3,,,72,60
124416,note_on,,,,,96,0,6,,,,,5,,,57,45
124416,note_on,,,,,96,0,10,,,,,11,,,48,30
124416,note_on,,,,,4,0,2,,,,,1,,,81,92
124508,note_off,,,,,92,0,2,,,,,1,,,81,0
124508,note_off,,,,,92,0,1,,,,,0,,,81,0
124512,note_on,,,,,4,0,2,,,,,1,,,83,92
124512,note_on,,,,,4,0,1,,,,,0,,,83,92
124604,note_off,,,,,92,0,2,,,,,1,,,83,0
124604,note_off,,,,,92,0,1,,,,,0,,,83,0
124608,note_on,,,,,4,0,1,,,,,0,,,84,92
124608,note_on,,,,,4,0,2,,,,,1,,,84,92
124736,note_off,,,,,320,0,4,,,,,3,,,72,0
124796,note_off,,,,,188,0,2,,,,,1,,,84,0
124796,note_off,,,,,188,0,1,,,,,0,,,84,0
124992,note_on,,,,,196,0,2,,,,,1,,,69,92
124992,note_on,,,,,256,0,4,,,,,3,,,69,60
124992,note_on,,,,,196,0,1,,,,,0,,,69,92
125180,note_off,,,,,188,0,1,,,,,0,,,69,0
125180,note_off,,,,,188,0,4,,,,,3,,,69,0
125180,note_off,,,,,188,0,2,,,,,1,,,69,0
125184,note_on,,,,,4,0,1,,,,,0,,,70,92
125184,note_on,,,,,4,0,2,,,,,1,,,70,92
125184,note_on,,,,,4,0,4,,,,,3,,,70,60
125376,note_off,,,,,192,0,4,,,,,3,,,70,0
125376,note_on,,,,,0,0,2,,,,,1,,,69,92
125376,note_on,,,,,0,0,4,,,,,3,,,69,60
125376,note_off,,,,,192,0,2,,,,,1,,,70,0
125376,note_on,,,,,0,0,1,,,,,0,,,69,92
125376,note_off,,,,,192,0,1,,,,,0,,,70,0
125564,note_off,,,,,188,0,2,,,,,1,,,69,0
125564,note_off,,,,,188,0,1,,,,,0,,,69,0
125564,note_off,,,,,188,0,4,,,,,3,,,69,0
125568,note_on,,,,,4,0,2,,,,,1,,,72,92
125568,note_on,,,,,4,0,1,,,,,0,,,72,92
125568,note_on,,,,,4,0,4,,,,,3,,,72,60
125756,note_off,,,,,188,0,2,,,,,1,,,72,0
125756,note_off,,,,,188,0,1,,,,,0,,,72,0
125756,note_off,,,,,188,0,4,,,,,3,,,72,0
125760,note_on,,,,,4,0,1,,,,,0,,,69,92
125760,note_on,,,,,4,0,2,,,,,1,,,69,92
125760,note_on,,,,,4,0,4,,,,,3,,,69,60
125888,note_off,,,,,1472,0,7,,,,,6,,,48,0
125888,note_off,,,,,1472,0,6,,,,,5,,,57,0
125888,note_off,,,,,2624,0,5,,,,,4,,,64,0
125888,note_off,,,,,1472,0,9,,,,,10,,,64,0
125888,note_off,,,,,0,0,9,,,,,10,,,69,0
125888,note_off,,,,,1472,0,3,,,,,2,,,48,0
125888,note_off,,,,,1472,0,10,,,,,11,,,48,0
125888,note_off,,,,,1472,0,8,,,,,7,,,36,0
125948,note_off,,,,,188,0,1,,,,,0,,,69,0
125948,note_off,,,,,188,0,2,,,,,1,,,69,0
125948,note_off,,,,,188,0,4,,,,,3,,,69,0
125952,note_on,,,,,64,0,8,,,,,7,,,36,30
125952,note_on,,,,,64,0,5,,,,,4,,,64,60
125952,note_on,,,,,64,0,7,,,,,6,,,48,45
125952,note_on,,,,,64,0,10,,,,,11,,,48,30
125952,note_on,,,,,64,0,6,,,,,5,,,57,45
125952,note_on,,,,,0,0,9,,,,,10,,,69,30
125952,note_on,,,,,64,0,3,,,,,2,,,48,45
125952,note_on,,,,,64,0,9,,,,,10,,,64,30
126144,note_on,,,,,196,0,1,,,,,0,,,81,92
126144,note_on,,,,,196,0,4,,,,,3,,,81,60
126144,note_on,,,,,196,0,2,,,,,1,,,81,92
126192,note_off,,,,,240,0,7,,,,,6,,,48,0
126192,note_off,,,,,240,0,3,,,,,2,,,48,0
126192,note_off,,,,,240,0,6,,,,,5,,,57,0
126192,note_off,,,,,240,0,8,,,,,7,,,36,0
126192,note_off,,,,,240,0,5,,,,,4,,,64,0
126192,note_off,,,,,240,0,10,,,,,11,,,48,0
126332,note_off,,,,,188,0,1,,,,,0,,,81,0
126332,note_off,,,,,188,0,4,,,,,3,,,81,0
126332,note_off,,,,,188,0,2,,,,,1,,,81,0
126336,note_on,,,,,4,0,2,,,,,1,,,82,92
126336,note_on,,,,,144,0,10,,,,,11,,,48,30
126336,note_on,,,,,4,0,4,,,,,3,,,82,60
126336,note_on,,,,,144,0,7,,,,,6,,,48,45
126336,note_on,,,,,144,0,3,,,,,2,,,48,45
126336,note_on,,,,,0,0,9,,,,,10,,,69,30
126336,note_on,,,,,4,0,1,,,,,0,,,82,92
126336,note_on,,,,,0,0,9,,,,,10,,,64,30
126336,note_off,,,,,0,0,9,,,,,10,,,69,0
126336,note_off,,,,,384,0,9,,,,,10,,,64,0
126336,note_on,,,,,144,0,6,,,,,5,,,57,45
126336,note_on,,,,,144,0,8,,,,,7,,,36,30
126336,note_on,,,,,144,0,5,,,,,4,,,64,60
126432,note_off,,,,,96,0,8,,,,,7,,,36,0
126432,note_off,,,,,96,0,3,,,,,2,,,48,0
126432,note_off,,,,,96,0,5,,,,,4,,,64,0
126432,note_off,,,,,96,0,10,,,,,11,,,48,0
126432,note_off,,,,,96,0,7,,,,,6,,,48,0
126432,note_off,,,,,96,0,6,,,,,5,,,57,0
126528,note_off,,,,,192,0,2,,,,,1,,,82,0
126528,note_on,,,,,0,0,2,,,,,1,,,81,92
126528,note_off,,,,,192,0,1,,,,,0,,,82,0
126528,note_on,,,,,0,0,4,,,,,3,,,81,60
126528,note_off,,,,,192,0,4,,,,,3,,,82,0
126528,note_on,,,,,0,0,1,,,,,0,,,81,92
126656,note_off,,,,,0,0,9,,,,,10,,,69,0
126656,note_off,,,,,320,0,9,,,,,10,,,64,0
126716,note_off,,,,,188,0,1,,,,,0,,,81,0
126716,note_off,,,,,188,0,2,,,,,1,,,81,0
126716,note_off,,,,,188,0,4,,,,,3,,,81,0
126720,note_on,,,,,288,0,6,,,,,5,,,57,45
126720,note_on,,,,,288,0,7,,,,,6,,,48,45
126720,note_on,,,,,4,0,2,,,,,1,,,84,92
126720,note_on,,,,,288,0,5,,,,,4,,,64,60
126720,note_on,,,,,288,0,10,,,,,11,,,48,30
126720,note_on,,,,,64,0,9,,,,,10,,,64,30
126720,note_on,,,,,4,0,1,,,,,0,,,84,92
126720,note_on,,,,,0,0,9,,,,,10,,,69,30
126720,note_on,,,,,288,0,8,,,,,7,,,36,30
126720,note_on,,,,,4,0,4,,,,,3,,,84,60
126720,note_on,,,,,288,0,3,,,,,2,,,48,45
126908,note_off,,,,,188,0,4,,,,,3,,,84,0
126908,note_off,,,,,188,0,2,,,,,1,,,84,0
126908,note_off,,,,,188,0,1,,,,,0,,,84,0
126912,note_on,,,,,4,0,1,,,,,0,,,81,92
126912,note_on,,,,,4,0,4,,,,,3,,,81,60
126912,note_on,,,,,4,0,2,,,,,1,,,81,92
126960,note_off,,,,,240,0,8,,,,,7,,,36,0
126960,note_off,,,,,240,0,7,,,,,6,,,48,0
126960,note_off,,,,,240,0,5,,,,,4,,,64,0
126960,note_off,,,,,240,0,10,,,,,11,,,48,0
126960,note_off,,,,,240,0,3,,,,,2,,,48,0
126960,note_off,,,,,240,0,6,,,,,5,,,57,0
127100,note_off,,,,,188,0,1,,,,,0,,,81,0
127100,note_off,,,,,188,0,2,,,,,1,,,81,0
127100,note_off,,,,,188,0,4,,,,,3,,,81,0
127104,note_on,,,,,144,0,6,,,,,5,,,57,45
127104,note_on,,,,,144,0,8,,,,,7,,,36,30
127104,note_on,,,,,0,0,9,,,,,10,,,64,30
127104,note_on,,,,,144,0,7,,,,,6,,,48,45
127104,note_off,,,,,384,0,9,,,,,10,,,64,0
127104,note_off,,,,,0,0,9,,,,,10,,,69,0
127104,note_on,,,,,144,0,3,,,,,2,,,48,45
127104,note_on,,,,,144,0,5,,,,,4,,,64,60
127104,note_on,,,,,0,0,9,,,,,10,,,69,30
127104,note_on,,,,,144,0,10,,,,,11,,,48,30
127296,note_on,,,,,196,0,2,,,,,1,,,69,92
127296,note_on,,,,,196,0,1,,,,,0,,,69,92
127296,note_on,,,,,196,0,4,,,,,3,,,69,60
127344,note_off,,,,,240,0,3,,,,,2,,,48,0
127344,note_off,,,,,240,0,10,,,,,11,,,48,0
127344,note_off,,,,,240,0,8,,,,,7,,,36,0
127344,note_off,,,,,240,0,6,,,,,5,,,57,0
127344,note_off,,,,,240,0,7,,,,,6,,,48,0
127344,note_off,,,,,240,0,5,,,,,4,,,64,0
127484,note_off,,,,,188,0,4,,,,,3,,,69,0
127484,note_off,,,,,188,0,1,,,,,0,,,69,0
127484,note_off,,,,,188,0,2,,,,,1,,,69,0
127488,note_off,,,,,384,0,9,,,,,10,,,64,0
127488,note_on,,,,,144,0,8,,,,,7,,,36,30
127488,note_on,,,,,4,0,4,,,,,3,,,70,60
127488,note_off,,,,,0,0,9,,,,,10,,,69,0
127488,note_on,,,,,0,0,9,,,,,10,,,64,30
127488,note_on,,,,,144,0,3,,,,,2,,,48,45
127488,note_on,,,,,0,0,9,,,,,10,,,69,30
127488,note_on,,,,,144,0,5,,,,,4,,,64,60
127488,note_on,,,,,4,0,1,,,,,0,,,70,92
127488,note_on,,,,,144,0,7,,,,,6,,,48,45
127488,note_on,,,,,144,0,10,,,,,11,,,48,30
127488,note_on,,,,,4,0,2,,,,,1,,,70,92
127488,note_on,,,,,144,0,6,,,,,5,,,57,45
127584,note_off,,,,,96,0,8,,,,,7,,,36,0
127584,note_off,,,,,96,0,5,,,,,4,,,64,0
127584,note_off,,,,,96,0,10,,,,,11,,,48,0
127584,note_off,,,,,96,0,6,,,,,5,,,57,0
127584,note_off,,,,,96,0,3,,,,,2,,,48,0
127584,note_off,,,,,96,0,7,,,,,6,,,48,0
127680,note_on,,,,,0,0,2,,,,,1,,,69,92
127680,note_off,,,,,192,0,4,,,,,3,,,70,0
127680,note_on,,,,,0,0,4,,,,,3,,,69,60
127680,note_off,,,,,192,0,2,,,,,1,,,70,0
127680,note_on,,,,,0,0,1,,,,,0,,,69,92
127680,note_off,,,,,192,0,1,,,,,0,,,70,0
127808,note_off,,,,,320,0,9,,,,,10,,,64,0
127808,note_off,,,,,0,0,9,,,,,10,,,69,0
127868,note_off,,,,,188,0,4,,,,,3,,,69,0
127868,note_off,,,,,188,0,1,,,,,0,,,69,0
127868,note_off,,,,,188,0,2,,,,,1,,,69,0
127872,note_on,,,,,0,0,9,,,,,10,,,69,30
127872,note_on,,,,,288,0,10,,,,,11,,,48,30
127872,note_on,,,,,288,0,5,,,,,4,,,64,60
127872,note_on,,,,,64,0,9,,,,,10,,,64,30
127872,note_on,,,,,288,0,8,,,,,7,,,36,30
127872,note_on,,,,,288,0,3,,,,,2,,,48,45
127872,note_on,,,,,4,0,4,,,,,3,,,76,60
127872,note_on,,,,,4,0,1,,,,,0,,,76,92
127872,note_on,,,,,288,0,7,,,,,6,,,48,45
127872,note_on,,,,,4,0,2,,,,,1,,,76,92
127872,note_on,,,,,288,0,6,,,,,5,,,57,45
128060,note_off,,,,,188,0,4,,,,,3,,,76,0
128060,note_off,,,,,188,0,1,,,,,0,,,76,0
128060,note_off,,,,,188,0,2,,,,,1,,,76,0
128064,note_on,,,,,4,0,1,,,,,0,,,69,92
128064,note_on,,,,,4,0,2,,,,,1,,,69,92
128064,note_on,,,,,4,0,4,,,,,3,,,69,60
128112,note_off,,,,,240,0,10,,,,,11,,,48,0
128112,note_off,,,,,240,0,5,,,,,4,,,64,0
128112,note_off,,,,,240,0,3,,,,,2,,,48,0
128112,note_off,,,,,240,0,8,,,,,7,,,36,0
128112,note_off,,,,,240,0,7,,,,,6,,,48,0
128112,note_off,,,,,240,0,6,,,,,5,,,57,0
128252,note_off,,,,,188,0,4,,,,,3,,,69,0
128252,note_off,,,,,188,0,1,,,,,0,,,69,0
128252,note_off,,,,,188,0,2,,,,,1,,,69,0
128256,note_on,,,,,144,0,10,,,,,11,,,48,30
128256,note_on,,,,,144,0,6,,,,,5,,,57,45
128256,note_off,,,,,384,0,9,,,,,10,,,64,0
128256,note_on,,,,,0,0,9,,,,,10,,,64,30
128256,note_on,,,,,0,0,9,,,,,10,,,69,30
128256,note_on,,,,,144,0,7,,,,,6,,,48,45
128256,note_on,,,,,144,0,8,,,,,7,,,36,30
128256,note_on,,,,,144,0,5,,,,,4,,,64,60
128256,note_off,,,,,0,0,9,,,,,10,,,69,0
128256,note_on,,,,,144,0,3,,,,,2,,,48,45
128448,note_on,,,,,196,0,2,,,,,1,,,76,92
128448,note_on,,,,,196,0,4,,,,,3,,,76,60
128448,note_on,,,,,196,0,1,,,,,0,,,76,92
128496,note_off,,,,,240,0,6,,,,,5,,,57,0
128496,note_off,,,,,240,0,3,,,,,2,,,48,0
128496,note_off,,,,,240,0,7,,,,,6,,,48,0
128496,note_off,,,,,240,0,5,,,,,4,,,64,0
128496,note_off,,,,,240,0,10,,,,,11,,,48,0
128496,note_off,,,,,240,0,8,,,,,7,,,36,0
128636,note_off,,,,,188,0,4,,,,,3,,,76,0
128636,note_off,,,,,188,0,1,,,,,0,,,76,0
128636,note_off,,,,,188,0,2,,,,,1,,,76,0
128640,note_off,,,,,0,0,9,,,,,10,,,69,0
128640,note_off,,,,,384,0,9,,,,,10,,,64,0
128640,note_on,,,,,0,0,9,,,,,10,,,69,30
128640,note_on,,,,,0,0,9,,,,,10,,,64,30
128640,note_on,,,,,144,0,7,,,,,6,,,48,45
128640,note_on,,,,,144,0,10,,,,,11,,,48,30
128640,note_on,,,,,144,0,8,,,,,7,,,36,30
128640,note_on,,,,,4,0,2,,,,,1,,,77,92
128640,note_on,,,,,4,0,1,,,,,0,,,77,92
128640,note_on,,,,,144,0,5,,,,,4,,,64,60
128640,note_on,,,,,144,0,3,,,,,2,,,48,45
128640,note_on,,,,,4,0,4,,,,,3,,,77,60
128640,note_on,,,,,144,0,6,,,,,5,,,57,45
128736,note_off,,,,,96,0,3,,,,,2,,,48,0
128736,note_off,,,,,96,0,10,,,,,11,,,48,0
128736,note_off,,,,,96,0,5,,,,,4,,,64,0
128736,note_off,,,,,96,0,7,,,,,6,,,48,0
128736,note_off,,,,,96,0,6,,,,,5,,,57,0
128736,note_off,,,,,96,0,8,,,,,7,,,36,0
128832,note_off,,,,,192,0,1,,,,,0,,,77,0
128832,note_off,,,,,192,0,2,,,,,1,,,77,0
128832,note_on,,,,,0,0,4,,,,,3,,,76,60
128832,note_off,,,,,192,0,4,,,,,3,,,77,0
128832,note_on,,,,,0,0,1,,,,,0,,,76,92
128832,note_on,,,,,0,0,2,,,,,1,,,76,92
128960,note_off,,,,,320,0,9,,,,,10,,,64,0
128960,note_off,,,,,0,0,9,,,,,10,,,69,0
129020,note_off,,,,,188,0,4,,,,,3,,,76,0
129020,note_off,,,,,188,0,1,,,,,0,,,76,0
129020,note_off,,,,,188,0,2,,,,,1,,,76,0
129024,note_on,,,,,288,0,7,,,,,6,,,48,45
129024,note_on,,,,,288,0,8,,,,,7,,,36,30
129024,note_on,,,,,4,0,1,,,,,0,,,81,92
129024,note_on,,,,,4,0,2,,,,,1,,,81,92
129024,note_on,,,,,288,0,3,,,,,2,,,48,45
129024,note_on,,,,,288,0,5,,,,,4,,,64,60
129024,note_on,,,,,64,0,9,,,,,10,,,64,30
129024,note_on,,,,,288,0,6,,,,,5,,,57,45
129024,note_on,,,,,4,0,4,,,,,3,,,81,60
129024,note_on,,,,,0,0,9,,,,,10,,,69,30
129024,note_on,,,,,288,0,10,,,,,11,,,48,30
129212,note_off,,,,,188,0,2,,,,,1,,,81,0
129212,note_off,,,,,188,0,1,,,,,0,,,81,0
129212,note_off,,,,,188,0,4,,,,,3,,,81,0
129216,note_on,,,,,4,0,4,,,,,3,,,76,60
129216,note_on,,,,,4,0,1,,,,,0,,,76,92
129216,note_on,,,,,4,0,2,,,,,1,,,76,92
129404,note_off,,,,,188,0,4,,,,,3,,,76,0
129404,note_off,,,,,188,0,1,,,,,0,,,76,0
129404,note_off,,,,,188,0,2,,,,,1,,,76,0
129536,note_off,,,,,512,0,5,,,,,4,,,64,0
129536,note_off,,,,,512,0,3,,,,,2,,,48,0
129536,note_off,,,,,512,0,10,,,,,11,,,48,0
129536,note_off,,,,,512,0,7,,,,,6,,,48,0
129536,note_off,,,,,512,0,6,,,,,5,,,57,0
129536,note_off,,,,,512,0,8,,,,,7,,,36,0
129600,note_on,,,,,196,0,4,,,,,3,,,76,108
129600,note_on,,,,,64,0,6,,,,,5,,,69,92
129600,note_on,,,,,64,0,8,,,,,7,,,33,75
129600,note_on,,,,,64,0,7,,,,,6,,,45,92
129600,note_on,,,,,64,0,10,,,,,11,,,45,60
129600,note_on,,,,,196,0,2,,,,,1,,,76,92
129600,note_on,,,,,196,0,1,,,,,0,,,76,92
129600,note_on,,,,,64,0,3,,,,,2,,,45,92
129600,note_on,,,,,64,0,5,,,,,4,,,72,108
129696,note_off,,,,,0,0,9,,,,,10,,,69,0
129696,note_off,,,,,672,0,9,,,,,10,,,64,0
129788,note_off,,,,,188,0,4,,,,,3,,,76,0
129788,note_off,,,,,188,0,3,,,,,2,,,45,0
129788,note_off,,,,,188,0,7,,,,,6,,,45,0
129788,note_off,,,,,188,0,8,,,,,7,,,33,0
129788,note_off,,,,,188,0,2,,,,,1,,,76,0
129788,note_off,,,,,188,0,1,,,,,0,,,76,0
129788,note_off,,,,,188,0,6,,,,,5,,,69,0
129788,note_off,,,,,188,0,10,,,,,11,,,45,0
129788,note_off,,,,,188,0,5,,,,,4,,,72,0
129792,note_on,,,,,4,0,8,,,,,7,,,36,75
129792,note_on,,,,,4,0,6,,,,,5,,,64,92
129792,note_on,,,,,4,0,7,,,,,6,,,48,92
129792,note_on,,,,,4,0,5,,,,,4,,,76,108
129792,note_on,,,,,4,0,10,,,,,11,,,48,60
129792,note_on,,,,,4,0,1,,,,,0,,,81,92
129792,note_on,,,,,0,0,9,,,,,10,,,69,60
129792,note_on,,,,,4,0,2,,,,,1,,,81,92
129792,note_on,,,,,96,0,9,,,,,10,,,64,60
129792,note_on,,,,,4,0,3,,,,,2,,,48,92
129792,note_on,,,,,4,0,4,,,,,3,,,81,108
129980,note_off,,,,,188,0,8,,,,,7,,,36,0
129980,note_off,,,,,188,0,3,,,,,2,,,48,0
129980,note_off,,,,,188,0,6,,,,,5,,,64,0
129980,note_off,,,,,188,0,1,,,,,0,,,81,0
129980,note_off,,,,,188,0,10,,,,,11,,,48,0
129980,note_off,,,,,188,0,4,,,,,3,,,81,0
129980,note_off,,,,,188,0,7,,,,,6,,,48,0
129980,note_off,,,,,188,0,5,,,,,4,,,76,0
129980,note_off,,,,,188,0,2,,,,,1,,,81,0
129984,note_on,,,,,4,0,1,,,,,0,,,76,92
129984,note_on,,,,,4,0,2,,,,,1,,,76,92
129984,note_on,,,,,4,0,8,,,,,7,,,33,75
129984,note_on,,,,,4,0,5,,,,,4,,,72,108
129984,note_on,,,,,4,0,6,,,,,5,,,69,92
129984,note_on,,,,,4,0,4,,,,,3,,,76,108
129984,note_on,,,,,4,0,7,,,,,6,,,45,92
129984,note_on,,,,,4,0,10,,,,,11,,,45,60
129984,note_on,,,,,4,0,3,,,,,2,,,45,92
130112,note_off,,,,,0,0,9,,,,,10,,,69,0
130112,note_off,,,,,320,0,9,,,,,10,,,64,0
130172,note_off,,,,,188,0,5,,,,,4,,,72,0
130172,note_off,,,,,188,0,3,,,,,2,,,45,0
130172,note_off,,,,,188,0,2,,,,,1,,,76,0
130172,note_off,,,,,188,0,6,,,,,5,,,69,0
130172,note_off,,,,,188,0,7,,,,,6,,,45,0
130172,note_off,,,,,188,0,10,,,,,11,,,45,0
130172,note_off,,,,,188,0,1,,,,,0,,,76,0
130172,note_off,,,,,188,0,8,,,,,7,,,33,0
130172,note_off,,,,,188,0,4,,,,,3,,,76,0
130176,note_on,,,,,4,0,4,,,,,3,,,77,108
130176,note_on,,,,,0,0,9,,,,,10,,,69,60
130176,note_on,,,,,4,0,5,,,,,4,,,69,108
130176,note_on,,,,,4,0,3,,,,,2,,,50,92
130176,note_on,,,,,4,0,7,,,,,6,,,50,92
130176,note_on,,,,,4,0,10,,,,,11,,,50,60
130176,note_on,,,,,64,0,9,,,,,10,,,65,60
130176,note_on,,,,,4,0,1,,,,,0,,,77,92
130176,note_on,,,,,4,0,2,,,,,1,,,77,92
130176,note_on,,,,,4,0,8,,,,,7,,,38,75
130176,note_on,,,,,4,0,6,,,,,5,,,65,92
130364,note_off,,,,,188,0,1,,,,,0,,,77,0
130364,note_off,,,,,188,0,6,,,,,5,,,65,0
130364,note_off,,,,,188,0,5,,,,,4,,,69,0
130364,note_off,,,,,188,0,2,,,,,1,,,77,0
130364,note_off,,,,,188,0,3,,,,,2,,,50,0
130364,note_off,,,,,188,0,4,,,,,3,,,77,0
130364,note_off,,,,,188,0,7,,,,,6,,,50,0
130364,note_off,,,,,188,0,10,,,,,11,,,50,0
130364,note_off,,,,,188,0,8,,,,,7,,,38,0
130368,note_on,,,,,4,0,4,,,,,3,,,76,108
130368,note_on,,,,,4,0,10,,,,,11,,,48,60
130368,note_on,,,,,4,0,2,,,,,1,,,76,92
130368,note_on,,,,,4,0,5,,,,,4,,,64,108
130368,note_on,,,,,4,0,6,,,,,5,,,69,92
130368,note_on,,,,,4,0,1,,,,,0,,,76,92
130368,note_on,,,,,4,0,8,,,,,7,,,36,75
130368,note_on,,,,,4,0,3,,,,,2,,,48,92
130368,note_on,,,,,4,0,7,,,,,6,,,48,92
130496,note_off,,,,,0,0,9,,,,,10,,,69,0
130496,note_off,,,,,320,0,9,,,,,10,,,65,0
130556,note_off,,,,,188,0,1,,,,,0,,,76,0
130556,note_off,,,,,188,0,5,,,,,4,,,64,0
130556,note_off,,,,,188,0,2,,,,,1,,,76,0
130556,note_off,,,,,188,0,3,,,,,2,,,48,0
130556,note_off,,,,,188,0,4,,,,,3,,,76,0
130556,note_off,,,,,188,0,7,,,,,6,,,48,0
130556,note_off,,,,,188,0,10,,,,,11,,,48,0
130556,note_off,,,,,188,0,8,,,,,7,,,36,0
130556,note_off,,,,,188,0,6,,,,,5,,,69,0
130560,note_on,,,,,0,0,9,,,,,10,,,69,60
130560,note_on,,,,,4,0,6,,,,,5,,,62,92
130560,note_on,,,,,4,0,8,,,,,7,,,41,75
130560,note_on,,,,,4,0,3,,,,,2,,,53,92
130560,note_on,,,,,4,0,10,,,,,11,,,53,60
130560,note_on,,,,,4,0,1,,,,,0,,,74,92
130560,note_on,,,,,64,0,9,,,,,10,,,62,60
130560,note_on,,,,,4,0,5,,,,,4,,,69,108
130560,note_on,,,,,4,0,2,,,,,1,,,74,92
130560,note_on,,,,,4,0,7,,,,,6,,,53,92
130560,note_on,,,,,4,0,4,,,,,3,,,74,108
130748,note_off,,,,,188,0,8,,,,,7,,,41,0
130748,note_off,,,,,188,0,5,,,,,4,,,69,0
130748,note_off,,,,,188,0,7,,,,,6,,,53,0
130748,note_off,,,,,188,0,6,,,,,5,,,62,0
130748,note_off,,,,,188,0,2,,,,,1,,,74,0
130748,note_off,,,,,188,0,1,,,,,0,,,74,0
130748,note_off,,,,,188,0,3,,,,,2,,,53,0
130748,note_off,,,,,188,0,4,,,,,3,,,74,0
130748,note_off,,,,,188,0,10,,,,,11,,,53,0
130752,note_on,,,,,4,0,5,,,,,4,,,67,108
130752,note_on,,,,,4,0,2,,,,,1,,,72,92
130752,note_on,,,,,4,0,1,,,,,0,,,72,92
130752,note_on,,,,,4,0,10,,,,,11,,,52,60
130752,note_on,,,,,4,0,4,,,,,3,,,72,108
130752,note_on,,,,,4,0,3,,,,,2,,,52,92
130752,note_on,,,,,4,0,6,,,,,5,,,64,92
130752,note_on,,,,,4,0,7,,,,,6,,,52,92
130752,note_on,,,,,4,0,8,,,,,7,,,40,75
130880,note_off,,,,,0,0,9,,,,,10,,,69,0
130880,note_off,,,,,320,0,9,,,,,10,,,62,0
130940,note_off,,,,,188,0,10,,,,,11,,,52,0
130940,note_off,,,,,188,0,5,,,,,4,,,67,0
130940,note_off,,,,,188,0,4,,,,,3,,,72,0
130940,note_off,,,,,188,0,2,,,,,1,,,72,0
130940,note_off,,,,,188,0,3,,,,,2,,,52,0
130940,note_off,,,,,188,0,6,,,,,5,,,64,0
130940,note_off,,,,,188,0,7,,,,,6,,,52,0
130940,note_off,,,,,188,0,8,,,,,7,,,40,0
130940,note_off,,,,,188,0,1,,,,,0,,,72,0
130944,note_on,,,,,4,0,7,,,,,6,,,50,92
130944,note_on,,,,,4,0,2,,,,,1,,,71,92
130944,note_on,,,,,0,0,9,,,,,10,,,65,60
130944,note_on,,,,,0,0,9,,,,,10,,,69,60
130944,note_on,,,,,4,0,5,,,,,4,,,65,108
130944,note_on,,,,,4,0,1,,,,,0,,,71,92
130944,note_on,,,,,4,0,3,,,,,2,,,50,92
130944,note_on,,,,,4,0,10,,,,,11,,,50,60
130944,note_on,,,,,4,0,4,,,,,3,,,71,108
130944,note_on,,,,,4,0,6,,,,,5,,,65,92
130944,note_on,,,,,4,0,8,,,,,7,,,38,75
130944,note_on,,,,,64,0,9,,,,,10,,,59,60
131132,note_off,,,,,188,0,1,,,,,0,,,71,0
131132,note_off,,,,,188,0,7,,,,,6,,,50,0
131132,note_off,,,,,188,0,9,,,,,10,,,65,0
131132,note_off,,,,,188,0,2,,,,,1,,,71,0
131132,note_off,,,,,188,0,8,,,,,7,,,38,0
131132,note_off,,,,,188,0,5,,,,,4,,,65,0
131132,note_off,,,,,188,0,3,,,,,2,,,50,0
131132,note_off,,,,,188,0,10,,,,,11,,,50,0
131132,note_off,,,,,188,0,6,,,,,5,,,65,0
131132,note_off,,,,,188,0,4,,,,,3,,,71,0
131136,note_on,,,,,4,0,10,,,,,11,,,53,60
131136,note_on,,,,,4,0,6,,,,,5,,,69,92
131136,note_on,,,,,4,0,7,,,,,6,,,53,92
131136,note_on,,,,,4,0,5,,,,,4,,,62,108
131136,note_on,,,,,4,0,4,,,,,3,,,69,108
131136,note_on,,,,,4,0,2,,,,,1,,,69,92
131136,note_on,,,,,4,0,8,,,,,7,,,41,75
131136,note_on,,,,,4,0,3,,,,,2,,,53,92
131136,note_on,,,,,4,0,1,,,,,0,,,69,92
131324,note_off,,,,,188,0,6,,,,,5,,,69,0
131324,note_off,,,,,188,0,5,,,,,4,,,62,0
131324,note_off,,,,,188,0,7,,,,,6,,,53,0
131324,note_off,,,,,188,0,2,,,,,1,,,69,0
131324,note_off,,,,,188,0,4,,,,,3,,,69,0
131324,note_off,,,,,188,0,3,,,,,2,,,53,0
131324,note_off,,,,,188,0,1,,,,,0,,,69,0
131324,note_off,,,,,188,0,8,,,,,7,,,41,0
131324,note_off,,,,,192,0,9,,,,,10,,,59,0
131324,note_off,,,,,0,0,9,,,,,10,,,69,0
131324,note_off,,,,,188,0,10,,,,,11,,,53,0
131328,note_on,,,,,4,0,4,,,,,3,,,68,108
131328,note_on,,,,,4,0,10,,,,,11,,,52,60
131328,note_on,,,,,4,0,8,,,,,7,,,40,75
131328,note_on,,,,,4,0,2,,,,,1,,,68,92
131328,note_on,,,,,4,0,3,,,,,2,,,52,92
131328,note_on,,,,,4,0,1,,,,,0,,,68,92
131328,note_on,,,,,4,0,9,,,,,10,,,59,60
131328,note_on,,,,,0,0,9,,,,,10,,,64,60
131328,note_on,,,,,0,0,9,,,,,10,,,68,60
131328,note_on,,,,,4,0,7,,,,,6,,,52,92
131328,note_on,,,,,4,0,5,,,,,4,,,71,108
131328,note_on,,,,,4,0,6,,,,,5,,,59,92
131516,note_off,,,,,188,0,4,,,,,3,,,68,0
131516,note_off,,,,,188,0,1,,,,,0,,,68,0
131516,note_off,,,,,188,0,2,,,,,1,,,68,0
131520,note_on,,,,,4,0,4,,,,,3,,,76,108
131520,note_on,,,,,4,0,2,,,,,1,,,76,92
131520,note_on,,,,,4,0,1,,,,,0,,,76,92
131648,note_off,,,,,320,0,9,,,,,10,,,59,0
131648,note_off,,,,,0,0,9,,,,,10,,,64,0
131648,note_off,,,,,0,0,9,,,,,10,,,68,0
131648,note_off,,,,,320,0,8,,,,,7,,,40,0
131648,note_off,,,,,320,0,7,,,,,6,,,52,0
131648,note_off,,,,,320,0,6,,,,,5,,,59,0
131648,note_off,,,,,320,0,5,,,,,4,,,71,0
131648,note_off,,,,,320,0,10,,,,,11,,,52,0
131648,note_off,,,,,320,0,3,,,,,2,,,52,0
131708,note_off,,,,,188,0,4,,,,,3,,,76,0
131708,note_off,,,,,188,0,2,,,,,1,,,76,0
131708,note_off,,,,,188,0,1,,,,,0,,,76,0
131712,note_on,,,,,64,0,7,,,,,6,,,56,92
131712,note_on,,,,,64,0,8,,,,,7,,,44,75
131712,note_on,,,,,4,0,4,,,,,3,,,71,108
131712,note_on,,,,,64,0,6,,,,,5,,,68,92
131712,note_on,,,,,4,0,2,,,,,1,,,71,92
131712,note_on,,,,,64,0,5,,,,,4,,,64,108
131712,note_on,,,,,64,0,3,,,,,2,,,56,92
131712,note_on,,,,,64,0,10,,,,,11,,,56,60
131712,note_on,,,,,0,0,9,,,,,10,,,71,60
131712,note_on,,,,,64,0,9,,,,,10,,,64,60
131712,note_on,,,,,4,0,1,,,,,0,,,71,92
131900,note_off,,,,,188,0,2,,,,,1,,,71,0
131900,note_off,,,,,188,0,1,,,,,0,,,71,0
131900,note_off,,,,,188,0,4,,,,,3,,,71,0
131904,note_on,,,,,4,0,1,,,,,0,,,74,92
131904,note_on,,,,,4,0,4,,,,,3,,,74,108
131904,note_on,,,,,4,0,2,,,,,1,,,74,92
132032,note_off,,,,,320,0,9,,,,,10,,,64,0
132032,note_off,,,,,0,0,9,,,,,10,,,71,0
132032,note_off,,,,,320,0,5,,,,,4,,,64,0
132032,note_off,,,,,320,0,3,,,,,2,,,56,0
132032,note_off,,,,,320,0,6,,,,,5,,,68,0
132032,note_off,,,,,320,0,7,,,,,6,,,56,0
132032,note_off,,,,,320,0,10,,,,,11,,,56,0
132032,note_off,,,,,320,0,8,,,,,7,,,44,0
132092,note_off,,,,,188,0,4,,,,,3,,,74,0
132092,note_off,,,,,188,0,1,,,,,0,,,74,0
132092,note_off,,,,,188,0,2,,,,,1,,,74,0
132096,note_on,,,,,0,0,9,,,,,10,,,72,60
132096,note_on,,,,,0,0,9,,,,,10,,,69,60
132096,note_on,,,,,4,0,4,,,,,3,,,72,108
132096,note_on,,,,,64,0,7,,,,,6,,,57,92
132096,note_on,,,,,64,0,9,,,,,10,,,64,60
132096,note_on,,,,,64,0,8,,,,,7,,,45,75
132096,note_on,,,,,64,0,3,,,,,2,,,57,92
132096,note_on,,,,,64,0,5,,,,,4,,,72,108
132096,note_on,,,,,64,0,6,,,,,5,,,64,92
132096,note_on,,,,,64,0,10,,,,,11,,,57,60
132096,note_on,,,,,4,0,1,,,,,0,,,72,92
132096,note_on,,,,,4,0,2,,,,,1,,,72,92
132284,note_off,,,,,188,0,4,,,,,3,,,72,0
132284,note_off,,,,,188,0,1,,,,,0,,,72,0
132284,note_off,,,,,188,0,2,,,,,1,,,72,0
132288,note_on,,,,,4,0,2,,,,,1,,,81,92
132288,note_on,,,,,4,0,4,,,,,3,,,81,108
132288,note_on,,,,,4,0,1,,,,,0,,,81,92
132416,note_off,,,,,320,0,5,,,,,4,,,72,0
132416,note_off,,,,,320,0,10,,,,,11,,,57,0
132416,note_off,,,,,320,0,9,,,,,10,,,64,0
132416,note_off,,,,,320,0,8,,,,,7,,,45,0
132416,note_off,,,,,0,0,9,,,,,10,,,72,0
132416,note_off,,,,,320,0,6,,,,,5,,,64,0
132416,note_off,,,,,0,0,9,,,,,10,,,69,0
132416,note_off,,,,,320,0,3,,,,,2,,,57,0
132416,note_off,,,,,320,0,7,,,,,6,,,57,0
132476,note_off,,,,,188,0,1,,,,,0,,,81,0
132476,note_off,,,,,188,0,4,,,,,3,,,81,0
132476,note_off,,,,,188,0,2,,,,,1,,,81,0
132480,note_on,,,,,64,0,8,,,,,7,,,38,75
132480,note_on,,,,,4,0,1,,,,,0,,,83,92
132480,note_on,,,,,64,0,10,,,,,11,,,50,60
132480,note_on,,,,,64,0,6,,,,,5,,,65,92
132480,note_on,,,,,64,0,7,,,,,6,,,50,92
132480,note_on,,,,,4,0,2,,,,,1,,,83,92
132480,note_on,,,,,4,0,4,,,,,3,,,83,108
132480,note_on,,,,,64,0,5,,,,,4,,,74,108
132480,note_on,,,,,64,0,3,,,,,2,,,50,92
132480,note_on,,,,,0,0,9,,,,,10,,,69,60
132480,note_on,,,,,64,0,9,,,,,10,,,65,60
132480,note_on,,,,,0,0,9,,,,,10,,,71,60
132668,note_off,,,,,188,0,2,,,,,1,,,83,0
132668,note_off,,,,,188,0,4,,,,,3,,,83,0
132668,note_off,,,,,188,0,1,,,,,0,,,83,0
132672,note_on,,,,,4,0,1,,,,,0,,,84,92
132672,note_on,,,,,4,0,4,,,,,3,,,84,108
132672,note_on,,,,,4,0,2,,,,,1,,,84,92
132800,note_off,,,,,320,0,3,,,,,2,,,50,0
132800,note_off,,,,,0,0,9,,,,,10,,,71,0
132800,note_off,,,,,0,0,9,,,,,10,,,69,0
132800,note_off,,,,,320,0,7,,,,,6,,,50,0
132800,note_off,,,,,320,0,10,,,,,11,,,50,0
132800,note_off,,,,,320,0,9,,,,,10,,,65,0
132800,note_off,,,,,320,0,5,,,,,4,,,74,0
132800,note_off,,,,,320,0,8,,,,,7,,,38,0
132800,note_off,,,,,320,0,6,,,,,5,,,65,0
132860,note_off,,,,,188,0,1,,,,,0,,,84,0
132860,note_off,,,,,188,0,4,,,,,3,,,84,0
132860,note_off,,,,,188,0,2,,,,,1,,,84,0
132864,note_on,,,,,64,0,6,,,,,5,,,64,92
132864,note_on,,,,,4,0,1,,,,,0,,,80,92
132864,note_on,,,,,64,0,8,,,,,7,,,40,75
132864,note_on,,,,,64,0,3,,,,,2,,,52,92
132864,note_on,,,,,0,0,9,,,,,10,,,68,60
132864,note_on,,,,,64,0,10,,,,,11,,,52,60
132864,note_on,,,,,0,0,9,,,,,10,,,71,60
132864,note_on,,,,,4,0,4,,,,,3,,,80,108
132864,note_on,,,,,64,0,5,,,,,4,,,71,108
132864,note_on,,,,,64,0,7,,,,,6,,,52,92
132864,note_on,,,,,4,0,2,,,,,1,,,80,92
132864,note_on,,,,,64,0,9,,,,,10,,,64,60
133184,note_off,,,,,320,0,3,,,,,2,,,52,0
133184,note_off,,,,,320,0,8,,,,,7,,,40,0
133184,note_off,,,,,320,0,7,,,,,6,,,52,0
133184,note_off,,,,,320,0,5,,,,,4,,,71,0
133184,note_off,,,,,320,0,6,,,,,5,,,64,0
133184,note_off,,,,,320,0,10,,,,,11,,,52,0
133248,note_on,,,,,64,0,3,,,,,2,,,40,92
133248,note_on,,,,,64,0,7,,,,,6,,,40,92
133248,note_on,,,,,64,0,8,,,,,7,,,28,75
133248,note_on,,,,,64,0,10,,,,,11,,,40,60
133248,note_on,,,,,64,0,5,,,,,4,,,76,108
133248,note_on,,,,,64,0,6,,,,,5,,,64,92
133376,note_off,,,,,512,0,1,,,,,0,,,80,0
133376,note_off,,,,,512,0,2,,,,,1,,,80,0
133376,note_off,,,,,512,0,4,,,,,3,,,80,0
133440,note_on,,,,,64,0,1,,,,,0,,,81,92
133440,note_on,,,,,64,0,4,,,,,3,,,81,108
133440,note_on,,,,,64,0,2,,,,,1,,,81,92
133536,note_off,,,,,0,0,9,,,,,10,,,71,0
133536,note_off,,,,,0,0,9,,,,,10,,,68,0
133536,note_off,,,,,672,0,9,,,,,10,,,64,0
133568,note_off,,,,,320,0,5,,,,,4,,,76,0
133568,note_off,,,,,320,0,6,,,,,5,,,64,0
133568,note_off,,,,,320,0,8,,,,,7,,,28,0
133568,note_off,,,,,320,0,3,,,,,2,,,40,0
133568,note_off,,,,,320,0,10,,,,,11,,,40,0
133568,note_off,,,,,320,0,7,,,,,6,,,40,0
133628,note_off,,,,,188,0,4,,,,,3,,,81,0
133628,note_off,,,,,188,0,1,,,,,0,,,81,0
133628,note_off,,,,,188,0,2,,,,,1,,,81,0
133632,note_on,,,,,64,0,8,,,,,7,,,33,75
133632,note_on,,,,,64,0,10,,,,,11,,,45,60
133632,note_on,,,,,64,0,6,,,,,5,,,64,92
133632,note_on,,,,,64,0,3,,,,,2,,,45,92
133632,note_on,,,,,64,0,5,,,,,4,,,72,108
133632,note_on,,,,,4,0,2,,,,,1,,,81,92
133632,note_on,,,,,4,0,1,,,,,0,,,81,92
133632,note_on,,,,,0,0,9,,,,,10,,,72,60
133632,note_on,,,,,0,0,9,,,,,10,,,69,60
133632,note_on,,,,,96,0,9,,,,,10,,,64,60
133632,note_on,,,,,64,0,7,,,,,6,,,45,92
133632,note_on,,,,,4,0,4,,,,,3,,,81,108
133952,note_off,,,,,320,0,8,,,,,7,,,33,0
133952,note_off,,,,,320,0,3,,,,,2,,,45,0
133952,note_off,,,,,320,0,10,,,,,11,,,45,0
133952,note_off,,,,,320,0,4,,,,,3,,,81,0
133952,note_off,,,,,320,0,2,,,,,1,,,81,0
133952,note_off,,,,,320,0,1,,,,,0,,,81,0
133952,note_off,,,,,320,0,5,,,,,4,,,72,0
133952,note_off,,,,,320,0,9,,,,,10,,,64,0
133952,note_off,,,,,0,0,9,,,,,10,,,69,0
133952,note_off,,,,,0,0,9,,,,,10,,,72,0
133952,note_off,,,,,320,0,6,,,,,5,,,64,0
133952,note_off,,,,,320,0,7,,,,,6,,,45,0
134208,note_on,,,,,256,0,1,,,,,0,,,64,45
134208,note_on,,,,,256,0,4,,,,,3,,,64,60
134208,note_on,,,,,256,0,2,,,,,1,,,64,45
134396,note_off,,,,,188,0,1,,,,,0,,,64,0
134396,note_off,,,,,188,0,2,,,,,1,,,64,0
134396,note_off,,,,,188,0,4,,,,,3,,,64,0
134400,note_on,,,,,4,0,2,,,,,1,,,65,45
134400,note_on,,,,,4,0,1,,,,,0,,,65,45
134400,note_on,,,,,4,0,4,,,,,3,,,65,60
134592,note_off,,,,,192,0,4,,,,,3,,,65,0
134592,note_on,,,,,0,0,4,,,,,3,,,64,60
134592,note_on,,,,,0,0,2,,,,,1,,,64,45
134592,note_off,,,,,192,0,2,,,,,1,,,65,0
134592,note_off,,,,,192,0,1,,,,,0,,,65,0
134592,note_on,,,,,0,0,1,,,,,0,,,64,45
134780,note_off,,,,,188,0,1,,,,,0,,,64,0
134780,note_off,,,,,188,0,4,,,,,3,,,64,0
134780,note_off,,,,,188,0,2,,,,,1,,,64,0
134784,note_on,,,,,4,0,4,,,,,3,,,69,60
134784,note_on,,,,,4,0,1,,,,,0,,,69,45
134784,note_on,,,,,832,0,5,,,,,4,,,64,60
134784,note_on,,,,,832,0,3,,,,,2,,,48,45
134784,note_on,,,,,832,0,10,,,,,11,,,48,30
134784,note_on,,,,,832,0,7,,,,,6,,,48,45
134784,note_on,,,,,4,0,2,,,,,1,,,69,45
134784,note_on,,,,,832,0,8,,,,,7,,,36,30
134784,note_on,,,,,0,0,9,,,,,10,,,69,30
134784,note_on,,,,,832,0,9,,,,,10,,,64,30
134784,note_on,,,,,832,0,6,,,,,5,,,57,45
134972,note_off,,,,,188,0,1,,,,,0,,,69,0
134972,note_off,,,,,188,0,2,,,,,1,,,69,0
134972,note_off,,,,,188,0,4,,,,,3,,,69,0
134976,note_on,,,,,4,0,2,,,,,1,,,64,45
134976,note_on,,,,,4,0,1,,,,,0,,,64,45
134976,note_on,,,,,4,0,4,,,,,3,,,64,60
135024,note_off,,,,,240,0,8,,,,,7,,,36,0
135024,note_off,,,,,240,0,3,,,,,2,,,48,0
135024,note_off,,,,,240,0,6,,,,,5,,,57,0
135024,note_off,,,,,240,0,10,,,,,11,,,48,0
135024,note_off,,,,,240,0,7,,,,,6,,,48,0
135024,note_off,,,,,240,0,5,,,,,4,,,64,0
135164,note_off,,,,,188,0,2,,,,,1,,,64,0
135164,note_off,,,,,188,0,1,,,,,0,,,64,0
135164,note_off,,,,,188,0,4,,,,,3,,,64,0
135168,note_on,,,,,144,0,3,,,,,2,,,48,45
135168,note_off,,,,,384,0,9,,,,,10,,,64,0
135168,note_on,,,,,144,0,8,,,,,7,,,36,30
135168,note_off,,,,,0,0,9,,,,,10,,,69,0
135168,note_on,,,,,144,0,10,,,,,11,,,48,30
135168,note_on,,,,,0,0,9,,,,,10,,,69,30
135168,note_on,,,,,144,0,5,,,,,4,,,64,60
135168,note_on,,,,,144,0,6,,,,,5,,,57,45
135168,note_on,,,,,144,0,7,,,,,6,,,48,45
135168,note_on,,,,,0,0,9,,,,,10,,,64,30
135360,note_on,,,,,196,0,4,,,,,3,,,76,60
135360,note_on,,,,,196,0,1,,,,,0,,,76,45
135360,note_on,,,,,196,0,2,,,,,1,,,76,45
135408,note_off,,,,,240,0,10,,,,,11,,,48,0
135408,note_off,,,,,240,0,7,,,,,6,,,48,0
135408,note_off,,,,,240,0,8,,,,,7,,,36,0
135408,note_off,,,,,240,0,5,,,,,4,,,64,0
135408,note_off,,,,,240,0,3,,,,,2,,,48,0
135408,note_off,,,,,240,0,6,,,,,5,,,57,0
135548,note_off,,,,,188,0,4,,,,,3,,,76,0
135548,note_off,,,,,188,0,1,,,,,0,,,76,0
135548,note_off,,,,,188,0,2,,,,,1,,,76,0
135552,note_on,,,,,4,0,1,,,,,0,,,77,45
135552,note_on,,,,,144,0,7,,,,,6,,,48,45
135552,note_on,,,,,144,0,3,,,,,2,,,48,45
135552,note_on,,,,,144,0,5,,,,,4,,,64,60
135552,note_off,,,,,0,0,9,,,,,10,,,69,0
135552,note_on,,,,,0,0,9,,,,,10,,,64,30
135552,note_on,,,,,0,0,9,,,,,10,,,69,30
135552,note_on,,,,,144,0,6,,,,,5,,,57,45
135552,note_on,,,,,4,0,4,,,,,3,,,77,60
135552,note_on,,,,,144,0,8,,,,,7,,,36,30
135552,note_on,,,,,144,0,10,,,,,11,,,48,30
135552,note_on,,,,,4,0,2,,,,,1,,,77,45
135552,note_off,,,,,384,0,9,,,,,10,,,64,0
135648,note_off,,,,,96,0,5,,,,,4,,,64,0
135648,note_off,,,,,96,0,7,,,,,6,,,48,0
135648,note_off,,,,,96,0,3,,,,,2,,,48,0
135648,note_off,,,,,96,0,6,,,,,5,,,57,0
135648,note_off,,,,,96,0,10,,,,,11,,,48,0
135648,note_off,,,,,96,0,8,,,,,7,,,36,0
135744,note_off,,,,,192,0,2,,,,,1,,,77,0
135744,note_on,,,,,0,0,2,,,,,1,,,76,45
135744,note_off,,,,,192,0,4,,,,,3,,,77,0
135744,note_on,,,,,0,0,4,,,,,3,,,76,60
135744,note_off,,,,,192,0,1,,,,,0,,,77,0
135744,note_on,,,,,0,0,1,,,,,0,,,76,45
135872,note_off,,,,,0,0,9,,,,,10,,,69,0
135872,note_off,,,,,320,0,9,,,,,10,,,64,0
135932,note_off,,,,,188,0,2,,,,,1,,,76,0
135932,note_off,,,,,188,0,4,,,,,3,,,76,0
135932,note_off,,,,,188,0,1,,,,,0,,,76,0
135936,note_on,,,,,288,0,5,,,,,4,,,64,60
135936,note_on,,,,,64,0,9,,,,,10,,,64,30
135936,note_on,,,,,4,0,2,,,,,1,,,81,45
135936,note_on,,,,,288,0,10,,,,,11,,,48,30
135936,note_on,,,,,4,0,1,,,,,0,,,81,45
135936,note_on,,,,,288,0,3,,,,,2,,,48,45
135936,note_on,,,,,4,0,4,,,,,3,,,81,60
135936,note_on,,,,,0,0,9,,,,,10,,,69,30
135936,note_on,,,,,288,0,8,,,,,7,,,36,30
135936,note_on,,,,,288,0,6,,,,,5,,,57,45
135936,note_on,,,,,288,0,7,,,,,6,,,48,45
136124,note_off,,,,,188,0,1,,,,,0,,,81,0
136124,note_off,,,,,188,0,2,,,,,1,,,81,0
136124,note_off,,,,,188,0,4,,,,,3,,,81,0
136128,note_on,,,,,4,0,2,,,,,1,,,76,45
136128,note_on,,,,,4,0,1,,,,,0,,,76,45
136128,note_on,,,,,4,0,4,,,,,3,,,76,60
136176,note_off,,,,,240,0,10,,,,,11,,,48,0
136176,note_off,,,,,240,0,6,,,,,5,,,57,0
136176,note_off,,,,,240,0,5,,,,,4,,,64,0
136176,note_off,,,,,240,0,8,,,,,7,,,36,0
136176,note_off,,,,,240,0,3,,,,,2,,,48,0
136176,note_off,,,,,240,0,7,,,,,6,,,48,0
136316,note_off,,,,,188,0,2,,,,,1,,,76,0
136316,note_off,,,,,188,0,1,,,,,0,,,76,0
136316,note_off,,,,,188,0,4,,,,,3,,,76,0
136320,note_on,,,,,144,0,7,,,,,6,,,48,45
136320,note_on,,,,,144,0,10,,,,,11,,,48,30
136320,note_on,,,,,144,0,8,,,,,7,,,36,30
136320,note_on,,,,,0,0,9,,,,,10,,,69,30
136320,note_off,,,,,384,0,9,,,,,10,,,64,0
136320,note_off,,,,,0,0,9,,,,,10,,,69,0
136320,note_on,,,,,0,0,9,,,,,10,,,64,30
136320,note_on,,,,,144,0,6,,,,,5,,,57,45
136320,note_on,,,,,144,0,3,,,,,2,,,48,45
136320,note_on,,,,,144,0,5,,,,,4,,,64,60
136512,note_on,,,,,196,0,2,,,,,1,,,69,45
136512,note_on,,,,,196,0,4,,,,,3,,,69,60
136512,note_on,,,,,196,0,1,,,,,0,,,69,45
136560,note_off,,,,,240,0,10,,,,,11,,,48,0
136560,note_off,,,,,240,0,5,,,,,4,,,64,0
136560,note_off,,,,,240,0,7,,,,,6,,,48,0
136560,note_off,,,,,240,0,3,,,,,2,,,48,0
136560,note_off,,,,,240,0,8,,,,,7,,,36,0
136560,note_off,,,,,240,0,6,,,,,5,,,57,0
136700,note_off,,,,,188,0,2,,,,,1,,,69,0
136700,note_off,,,,,188,0,4,,,,,3,,,69,0
136700,note_off,,,,,188,0,1,,,,,0,,,69,0
136704,note_on,,,,,4,0,1,,,,,0,,,70,45
136704,note_off,,,,,384,0,9,,,,,10,,,64,0
136704,note_off,,,,,0,0,9,,,,,10,,,69,0
136704,note_on,,,,,0,0,9,,,,,10,,,64,30
136704,note_on,,,,,4,0,4,,,,,3,,,70,60
136704,note_on,,,,,144,0,5,,,,,4,,,64,60
136704,note_on,,,,,0,0,9,,,,,10,,,69,30
136704,note_on,,,,,144,0,6,,,,,5,,,57,45
136704,note_on,,,,,144,0,8,,,,,7,,,36,30
136704,note_on,,,,,4,0,2,,,,,1,,,70,45
136704,note_on,,,,,144,0,3,,,,,2,,,48,45
136704,note_on,,,,,144,0,10,,,,,11,,,48,30
136704,note_on,,,,,144,0,7,,,,,6,,,48,45
136800,note_off,,,,,96,0,5,,,,,4,,,64,0
136800,note_off,,,,,96,0,3,,,,,2,,,48,0
136800,note_off,,,,,96,0,10,,,,,11,,,48,0
136800,note_off,,,,,96,0,8,,,,,7,,,36,0
136800,note_off,,,,,96,0,6,,,,,5,,,57,0
136800,note_off,,,,,96,0,7,,,,,6,,,48,0
136896,note_off,,,,,192,0,1,,,,,0,,,70,0
136896,note_on,,,,,0,0,1,,,,,0,,,69,45
136896,note_off,,,,,192,0,2,,,,,1,,,70,0
136896,note_on,,,,,0,0,2,,,,,1,,,69,45
136896,note_off,,,,,192,0,4,,,,,3,,,70,0
136896,note_on,,,,,0,0,4,,,,,3,,,69,60
137024,note_off,,,,,0,0,9,,,,,10,,,69,0
137024,note_off,,,,,320,0,9,,,,,10,,,64,0
137084,note_off,,,,,188,0,1,,,,,0,,,69,0
137084,note_off,,,,,188,0,2,,,,,1,,,69,0
137084,note_off,,,,,188,0,4,,,,,3,,,69,0
137088,note_on,,,,,288,0,7,,,,,6,,,48,45
137088,note_on,,,,,0,0,9,,,,,10,,,69,30
137088,note_on,,,,,4,0,2,,,,,1,,,72,45
137088,note_on,,,,,288,0,3,,,,,2,,,48,45
137088,note_on,,,,,288,0,10,,,,,11,,,48,30
137088,note_on,,,,,288,0,6,,,,,5,,,57,45
137088,note_on,,,,,4,0,1,,,,,0,,,72,45
137088,note_on,,,,,288,0,5,,,,,4,,,64,60
137088,note_on,,,,,64,0,9,,,,,10,,,64,30
137088,note_on,,,,,288,0,8,,,,,7,,,36,30
137088,note_on,,,,,4,0,4,,,,,3,,,72,60
137276,note_off,,,,,188,0,1,,,,,0,,,72,0
137276,note_off,,,,,188,0,2,,,,,1,,,72,0
137276,note_off,,,,,188,0,4,,,,,3,,,72,0
137280,note_on,,,,,4,0,4,,,,,3,,,69,60
137280,note_on,,,,,4,0,1,,,,,0,,,69,45
137280,note_on,,,,,4,0,2,,,,,1,,,69,45
137328,note_off,,,,,240,0,8,,,,,7,,,36,0
137328,note_off,,,,,240,0,5,,,,,4,,,64,0
137328,note_off,,,,,240,0,3,,,,,2,,,48,0
137328,note_off,,,,,240,0,10,,,,,11,,,48,0
137328,note_off,,,,,240,0,6,,,,,5,,,57,0
137328,note_off,,,,,240,0,7,,,,,6,,,48,0
137468,note_off,,,,,188,0,2,,,,,1,,,69,0
137468,note_off,,,,,188,0,4,,,,,3,,,69,0
137468,note_off,,,,,188,0,1,,,,,0,,,69,0
137472,note_on,,,,,144,0,6,,,,,5,,,57,45
137472,note_on,,,,,0,0,9,,,,,10,,,69,30
137472,note_on,,,,,0,0,9,,,,,10,,,64,30
137472,note_off,,,,,0,0,9,,,,,10,,,69,0
137472,note_on,,,,,144,0,5,,,,,4,,,64,60
137472,note_off,,,,,384,0,9,,,,,10,,,64,0
137472,note_on,,,,,144,0,8,,,,,7,,,36,30
137472,note_on,,,,,144,0,10,,,,,11,,,48,30
137472,note_on,,,,,144,0,3,,,,,2,,,48,45
137472,note_on,,,,,144,0,7,,,,,6,,,48,45
137664,note_on,,,,,196,0,1,,,,,0,,,81,45
137664,note_on,,,,,196,0,2,,,,,1,,,81,45
137664,note_on,,,,,196,0,4,,,,,3,,,81,60
137712,note_off,,,,,240,0,5,,,,,4,,,64,0
137712,note_off,,,,,240,0,6,,,,,5,,,57,0
137712,note_off,,,,,240,0,10,,,,,11,,,48,0
137712,note_off,,,,,240,0,3,,,,,2,,,48,0
137712,note_off,,,,,240,0,8,,,,,7,,,36,0
137712,note_off,,,,,240,0,7,,,,,6,,,48,0
137852,note_off,,,,,188,0,1,,,,,0,,,81,0
137852,note_off,,,,,188,0,4,,,,,3,,,81,0
137852,note_off,,,,,188,0,2,,,,,1,,,81,0
137856,note_on,,,,,144,0,10,,,,,11,,,48,30
137856,note_off,,,,,0,0,9,,,,,10,,,69,0
137856,note_on,,,,,144,0,8,,,,,7,,,36,30
137856,note_on,,,,,144,0,6,,,,,5,,,57,45
137856,note_on,,,,,0,0,9,,,,,10,,,69,30
137856,note_on,,,,,0,0,9,,,,,10,,,64,30
137856,note_on,,,,,4,0,2,,,,,1,,,82,45
137856,note_on,,,,,144,0,7,,,,,6,,,48,45
137856,note_off,,,,,384,0,9,,,,,10,,,64,0
137856,note_on,,,,,4,0,1,,,,,0,,,82,45
137856,note_on,,,,,144,0,5,,,,,4,,,64,60
137856,note_on,,,,,4,0,4,,,,,3,,,82,60
137856,note_on,,,,,144,0,3,,,,,2,,,48,45
137952,note_off,,,,,96,0,7,,,,,6,,,48,0
137952,note_off,,,,,96,0,8,,,,,7,,,36,0
137952,note_off,,,,,96,0,5,,,,,4,,,64,0
137952,note_off,,,,,96,0,3,,,,,2,,,48,0
137952,note_off,,,,,96,0,6,,,,,5,,,57,0
137952,note_off,,,,,96,0,10,,,,,11,,,48,0
138044,note_off,,,,,188,0,2,,,,,1,,,82,0
138044,note_off,,,,,188,0,4,,,,,3,,,82,0
138044,note_off,,,,,188,0,1,,,,,0,,,82,0
138048,note_on,,,,,4,0,4,,,,,3,,,81,60
138048,note_on,,,,,4,0,1,,,,,0,,,81,45
138048,note_on,,,,,4,0,2,,,,,1,,,81,45
138176,note_off,,,,,320,0,9,,,,,10,,,64,0
138176,note_off,,,,,0,0,9,,,,,10,,,69,0
138236,note_off,,,,,188,0,2,,,,,1,,,81,0
138236,note_off,,,,,188,0,4,,,,,3,,,81,0
138236,note_off,,,,,188,0,1,,,,,0,,,81,0
138240,note_on,,,,,4,0,4,,,,,3,,,84,60
138240,note_on,,,,,288,0,8,,,,,7,,,36,30
138240,note_on,,,,,4,0,1,,,,,0,,,84,45
138240,note_on,,,,,0,0,9,,,,,10,,,67,30
138240,note_on,,,,,64,0,9,,,,,10,,,64,30
138240,note_on,,,,,288,0,10,,,,,11,,,48,30
138240,note_on,,,,,288,0,3,,,,,2,,,48,45
138240,note_on,,,,,4,0,2,,,,,1,,,84,45
138240,note_on,,,,,288,0,7,,,,,6,,,48,45
138240,note_on,,,,,288,0,5,,,,,4,,,64,60
138240,note_on,,,,,288,0,6,,,,,5,,,57,45
138428,note_off,,,,,188,0,4,,,,,3,,,84,0
138428,note_off,,,,,188,0,2,,,,,1,,,84,0
138428,note_off,,,,,188,0,1,,,,,0,,,84,0
138432,note_on,,,,,4,0,1,,,,,0,,,81,45
138432,note_on,,,,,4,0,4,,,,,3,,,81,60
138432,note_on,,,,,4,0,2,,,,,1,,,81,45
138560,note_off,,,,,320,0,5,,,,,4,,,64,0
138560,note_off,,,,,0,0,9,,,,,10,,,67,0
138560,note_off,,,,,320,0,9,,,,,10,,,64,0
138560,note_off,,,,,320,0,6,,,,,5,,,57,0
138620,note_off,,,,,188,0,1,,,,,0,,,81,0
138620,note_off,,,,,188,0,2,,,,,1,,,81,0
138620,note_off,,,,,188,0,4,,,,,3,,,81,0
138752,note_off,,,,,512,0,7,,,,,6,,,48,0
138752,note_off,,,,,512,0,10,,,,,11,,,48,0
138752,note_off,,,,,512,0,3,,,,,2,,,48,0
138752,note_off,,,,,512,0,8,,,,,7,,,36,0
138816,note_on,,,,,196,0,2,,,,,1,,,72,92
138816,note_on,,,,,64,0,8,,,,,7,,,33,75
138816,note_on,,,,,196,0,1,,,,,0,,,76,92
138816,note_on,,,,,64,0,7,,,,,6,,,45,92
138816,note_on,,,,,196,0,4,,,,,3,,,76,108
138816,note_on,,,,,64,0,10,,,,,11,,,45,60
138816,note_on,,,,,256,0,5,,,,,4,,,72,108
138816,note_on,,,,,64,0,3,,,,,2,,,45,92
138816,note_on,,,,,256,0,6,,,,,5,,,69,92
139004,note_off,,,,,188,0,6,,,,,5,,,69,0
139004,note_off,,,,,188,0,10,,,,,11,,,45,0
139004,note_off,,,,,188,0,3,,,,,2,,,45,0
139004,note_off,,,,,188,0,4,,,,,3,,,76,0
139004,note_off,,,,,188,0,1,,,,,0,,,76,0
139004,note_off,,,,,188,0,2,,,,,1,,,72,0
139004,note_off,,,,,188,0,5,,,,,4,,,72,0
139004,note_off,,,,,188,0,7,,,,,6,,,45,0
139004,note_off,,,,,188,0,8,,,,,7,,,33,0
139008,note_on,,,,,4,0,3,,,,,2,,,48,92
139008,note_on,,,,,4,0,7,,,,,6,,,48,92
139008,note_on,,,,,4,0,4,,,,,3,,,81,108
139008,note_on,,,,,0,0,9,,,,,10,,,76,60
139008,note_on,,,,,4,0,10,,,,,11,,,48,60
139008,note_on,,,,,4,0,5,,,,,4,,,76,108
139008,note_on,,,,,4,0,2,,,,,1,,,76,92
139008,note_on,,,,,4,0,1,,,,,0,,,81,92
139008,note_on,,,,,4,0,8,,,,,7,,,36,75
139008,note_on,,,,,0,0,9,,,,,10,,,69,60
139008,note_on,,,,,448,0,9,,,,,10,,,64,60
139008,note_on,,,,,4,0,6,,,,,5,,,64,92
139196,note_off,,,,,188,0,5,,,,,4,,,76,0
139196,note_off,,,,,188,0,3,,,,,2,,,48,0
139196,note_off,,,,,188,0,4,,,,,3,,,81,0
139196,note_off,,,,,188,0,8,,,,,7,,,36,0
139196,note_off,,,,,188,0,10,,,,,11,,,48,0
139196,note_off,,,,,188,0,6,,,,,5,,,64,0
139196,note_off,,,,,188,0,2,,,,,1,,,76,0
139196,note_off,,,,,188,0,1,,,,,0,,,81,0
139196,note_off,,,,,188,0,7,,,,,6,,,48,0
139200,note_on,,,,,4,0,2,,,,,1,,,72,92
139200,note_on,,,,,4,0,8,,,,,7,,,33,75
139200,note_on,,,,,4,0,3,,,,,2,,,45,92
139200,note_on,,,,,4,0,4,,,,,3,,,79,108
139200,note_on,,,,,4,0,1,,,,,0,,,79,92
139200,note_on,,,,,4,0,5,,,,,4,,,72,108
139200,note_on,,,,,4,0,7,,,,,6,,,45,92
139200,note_on,,,,,4,0,10,,,,,11,,,45,60
139200,note_on,,,,,4,0,6,,,,,5,,,64,92
139328,note_off,,,,,0,0,9,,,,,10,,,76,0
139328,note_off,,,,,0,0,9,,,,,10,,,69,0
139328,note_off,,,,,320,0,9,,,,,10,,,64,0
139388,note_off,,,,,188,0,3,,,,,2,,,45,0
139388,note_off,,,,,188,0,10,,,,,11,,,45,0
139388,note_off,,,,,188,0,1,,,,,0,,,79,0
139388,note_off,,,,,188,0,5,,,,,4,,,72,0
139388,note_off,,,,,188,0,8,,,,,7,,,33,0
139388,note_off,,,,,188,0,6,,,,,5,,,64,0
139388,note_off,,,,,188,0,7,,,,,6,,,45,0
139388,note_off,,,,,188,0,2,,,,,1,,,72,0
139388,note_off,,,,,188,0,4,,,,,3,,,79,0
139392,note_on,,,,,4,0,1,,,,,0,,,77,92
139392,note_on,,,,,4,0,8,,,,,7,,,38,75
139392,note_on,,,,,4,0,10,,,,,11,,,50,60
139392,note_on,,,,,4,0,2,,,,,1,,,69,92
139392,note_on,,,,,4,0,6,,,,,5,,,65,92
139392,note_on,,,,,4,0,3,,,,,2,,,50,92
139392,note_on,,,,,4,0,7,,,,,6,,,50,92
139392,note_on,,,,,4,0,5,,,,,4,,,69,108
139392,note_on,,,,,0,0,9,,,,,10,,,74,60
139392,note_on,,,,,4,0,4,,,,,3,,,77,108
139392,note_on,,,,,64,0,9,,,,,10,,,65,60
139392,note_on,,,,,0,0,9,,,,,10,,,69,60
139580,note_off,,,,,188,0,10,,,,,11,,,50,0
139580,note_off,,,,,188,0,3,,,,,2,,,50,0
139580,note_off,,,,,188,0,7,,,,,6,,,50,0
139580,note_off,,,,,188,0,1,,,,,0,,,77,0
139580,note_off,,,,,188,0,4,,,,,3,,,77,0
139580,note_off,,,,,188,0,8,,,,,7,,,38,0
139584,note_on,,,,,4,0,10,,,,,11,,,52,60
139584,note_on,,,,,4,0,4,,,,,3,,,76,108
139584,note_on,,,,,4,0,1,,,,,0,,,76,92
139584,note_on,,,,,4,0,7,,,,,6,,,52,92
139584,note_on,,,,,4,0,8,,,,,7,,,40,75
139584,note_on,,,,,4,0,3,,,,,2,,,52,92
139712,note_off,,,,,320,0,5,,,,,4,,,69,0
139712,note_off,,,,,320,0,6,,,,,5,,,65,0
139712,note_off,,,,,320,0,2,,,,,1,,,69,0
139712,note_off,,,,,320,0,9,,,,,10,,,65,0
139712,note_off,,,,,0,0,9,,,,,10,,,69,0
139712,note_off,,,,,0,0,9,,,,,10,,,74,0
139772,note_off,,,,,188,0,10,,,,,11,,,52,0
139772,note_off,,,,,188,0,1,,,,,0,,,76,0
139772,note_off,,,,,188,0,7,,,,,6,,,52,0
139772,note_off,,,,,188,0,3,,,,,2,,,52,0
139772,note_off,,,,,188,0,4,,,,,3,,,76,0
139772,note_off,,,,,188,0,8,,,,,7,,,40,0
139776,note_on,,,,,4,0,8,,,,,7,,,41,75
139776,note_on,,,,,64,0,6,,,,,5,,,65,92
139776,note_on,,,,,4,0,4,,,,,3,,,74,108
139776,note_on,,,,,4,0,3,,,,,2,,,53,92
139776,note_on,,,,,4,0,1,,,,,0,,,74,92
139776,note_on,,,,,64,0,2,,,,,1,,,74,92
139776,note_on,,,,,64,0,9,,,,,10,,,62,60
139776,note_on,,,,,4,0,7,,,,,6,,,53,92
139776,note_on,,,,,64,0,5,,,,,4,,,74,108
139776,note_on,,,,,0,0,9,,,,,10,,,69,60
139776,note_on,,,,,4,0,10,,,,,11,,,53,60
139776,note_on,,,,,0,0,9,,,,,10,,,74,60
139964,note_off,,,,,188,0,1,,,,,0,,,74,0
139964,note_off,,,,,188,0,4,,,,,3,,,74,0
139964,note_off,,,,,188,0,6,,,,,5,,,65,0
139968,note_on,,,,,4,0,1,,,,,0,,,72,92
139968,note_on,,,,,4,0,4,,,,,3,,,72,108
139968,note_on,,,,,4,0,6,,,,,5,,,64,92
140156,note_off,,,,,188,0,4,,,,,3,,,72,0
140156,note_off,,,,,188,0,1,,,,,0,,,72,0
140156,note_off,,,,,188,0,6,,,,,5,,,64,0
140160,note_on,,,,,4,0,1,,,,,0,,,71,92
140160,note_on,,,,,4,0,4,,,,,3,,,71,108
140160,note_on,,,,,4,0,6,,,,,5,,,62,92
140288,note_off,,,,,512,0,10,,,,,11,,,53,0
140288,note_off,,,,,512,0,8,,,,,7,,,41,0
140288,note_off,,,,,512,0,5,,,,,4,,,74,0
140288,note_off,,,,,512,0,2,,,,,1,,,74,0
140288,note_off,,,,,512,0,3,,,,,2,,,53,0
140288,note_off,,,,,0,0,9,,,,,10,,,69,0
140288,note_off,,,,,0,0,9,,,,,10,,,74,0
140288,note_off,,,,,512,0,9,,,,,10,,,62,0
140288,note_off,,,,,512,0,7,,,,,6,,,53,0
140348,note_off,,,,,188,0,4,,,,,3,,,71,0
140348,note_off,,,,,188,0,1,,,,,0,,,71,0
140348,note_off,,,,,188,0,6,,,,,5,,,62,0
140352,note_on,,,,,64,0,5,,,,,4,,,74,108
140352,note_on,,,,,64,0,10,,,,,11,,,53,60
140352,note_on,,,,,64,0,3,,,,,2,,,53,92
140352,note_on,,,,,64,0,9,,,,,10,,,62,60
140352,note_on,,,,,4,0,1,,,,,0,,,69,92
140352,note_on,,,,,0,0,9,,,,,10,,,69,60
140352,note_on,,,,,0,0,9,,,,,10,,,74,60
140352,note_on,,,,,64,0,2,,,,,1,,,74,92
140352,note_on,,,,,4,0,6,,,,,5,,,57,92
140352,note_on,,,,,64,0,8,,,,,7,,,41,75
140352,note_on,,,,,64,0,7,,,,,6,,,53,92
140352,note_on,,,,,4,0,4,,,,,3,,,69,108
140540,note_off,,,,,188,0,3,,,,,2,,,53,0
140540,note_off,,,,,188,0,10,,,,,11,,,53,0
140540,note_off,,,,,188,0,5,,,,,4,,,74,0
140540,note_off,,,,,188,0,2,,,,,1,,,74,0
140540,note_off,,,,,188,0,1,,,,,0,,,69,0
140540,note_off,,,,,188,0,9,,,,,10,,,62,0
140540,note_off,,,,,0,0,9,,,,,10,,,74,0
140540,note_off,,,,,188,0,7,,,,,6,,,53,0
140540,note_off,,,,,188,0,4,,,,,3,,,69,0
140540,note_off,,,,,188,0,6,,,,,5,,,57,0
140540,note_off,,,,,0,0,9,,,,,10,,,69,0
140540,note_off,,,,,188,0,8,,,,,7,,,41,0
140544,note_on,,,,,4,0,7,,,,,6,,,52,92
140544,note_on,,,,,4,0,6,,,,,5,,,59,92
140544,note_on,,,,,4,0,4,,,,,3,,,68,108
140544,note_on,,,,,4,0,3,,,,,2,,,52,92
140544,note_on,,,,,4,0,5,,,,,4,,,74,108
140544,note_on,,,,,4,0,10,,,,,11,,,52,60
140544,note_on,,,,,4,0,8,,,,,7,,,40,75
140544,note_on,,,,,0,0,9,,,,,10,,,68,60
140544,note_on,,,,,0,0,9,,,,,10,,,74,60
140544,note_on,,,,,4,0,2,,,,,1,,,74,92
140544,note_on,,,,,4,0,1,,,,,0,,,68,92
140544,note_on,,,,,4,0,9,,,,,10,,,64,60
141056,note_off,,,,,512,0,10,,,,,11,,,52,0
141056,note_off,,,,,512,0,2,,,,,1,,,74,0
141056,note_off,,,,,512,0,6,,,,,5,,,59,0
141056,note_off,,,,,512,0,5,,,,,4,,,74,0
141056,note_off,,,,,512,0,1,,,,,0,,,68,0
141056,note_off,,,,,512,0,3,,,,,2,,,52,0
141056,note_off,,,,,512,0,9,,,,,10,,,64,0
141056,note_off,,,,,0,0,9,,,,,10,,,68,0
141056,note_off,,,,,0,0,9,,,,,10,,,74,0
141056,note_off,,,,,512,0,8,,,,,7,,,40,0
141056,note_off,,,,,512,0,7,,,,,6,,,52,0
141056,note_off,,,,,512,0,4,,,,,3,,,68,0
141120,note_on,,,,,64,0,10,,,,,11,,,56,60
141120,note_on,,,,,64,0,5,,,,,4,,,74,108
141120,note_on,,,,,64,0,3,,,,,2,,,56,92
141120,note_on,,,,,64,0,7,,,,,6,,,56,92
141120,note_on,,,,,64,0,4,,,,,3,,,77,108
141120,note_on,,,,,0,0,9,,,,,10,,,71,60
141120,note_on,,,,,64,0,9,,,,,10,,,65,60
141120,note_on,,,,,64,0,1,,,,,0,,,77,92
141120,note_on,,,,,64,0,8,,,,,7,,,44,75
141120,note_on,,,,,64,0,2,,,,,1,,,74,92
141120,note_on,,,,,64,0,6,,,,,5,,,59,92
141120,note_on,,,,,0,0,9,,,,,10,,,74,60
141308,note_off,,,,,188,0,4,,,,,3,,,77,0
141308,note_off,,,,,0,0,9,,,,,10,,,74,0
141308,note_off,,,,,188,0,2,,,,,1,,,74,0
141308,note_off,,,,,188,0,10,,,,,11,,,56,0
141308,note_off,,,,,188,0,5,,,,,4,,,74,0
141308,note_off,,,,,188,0,7,,,,,6,,,56,0
141308,note_off,,,,,188,0,1,,,,,0,,,77,0
141308,note_off,,,,,188,0,3,,,,,2,,,56,0
141308,note_off,,,,,188,0,9,,,,,10,,,65,0
141308,note_off,,,,,188,0,8,,,,,7,,,44,0
141308,note_off,,,,,188,0,6,,,,,5,,,59,0
141308,note_off,,,,,0,0,9,,,,,10,,,71,0
141312,note_on,,,,,4,0,7,,,,,6,,,57,92
141312,note_on,,,,,4,0,9,,,,,10,,,64,60
141312,note_on,,,,,0,0,9,,,,,10,,,72,60
141312,note_on,,,,,4,0,4,,,,,3,,,76,108
141312,note_on,,,,,4,0,3,,,,,2,,,57,92
141312,note_on,,,,,4,0,2,,,,,1,,,72,92
141312,note_on,,,,,4,0,5,,,,,4,,,72,108
141312,note_on,,,,,4,0,6,,,,,5,,,60,92
141312,note_on,,,,,4,0,10,,,,,11,,,57,60
141312,note_on,,,,,4,0,8,,,,,7,,,45,75
141312,note_on,,,,,4,0,1,,,,,0,,,76,92
141632,note_off,,,,,320,0,2,,,,,1,,,72,0
141632,note_off,,,,,320,0,7,,,,,6,,,57,0
141632,note_off,,,,,320,0,5,,,,,4,,,72,0
141632,note_off,,,,,320,0,9,,,,,10,,,64,0
141632,note_off,,,,,320,0,3,,,,,2,,,57,0
141632,note_off,,,,,0,0,9,,,,,10,,,72,0
141632,note_off,,,,,320,0,6,,,,,5,,,60,0
141632,note_off,,,,,320,0,4,,,,,3,,,76,0
141632,note_off,,,,,320,0,1,,,,,0,,,76,0
141632,note_off,,,,,320,0,10,,,,,11,,,57,0
141632,note_off,,,,,320,0,8,,,,,7,,,45,0
141696,note_on,,,,,64,0,4,,,,,3,,,74,108
141696,note_on,,,,,64,0,3,,,,,2,,,50,92
141696,note_on,,,,,64,0,6,,,,,5,,,65,92
141696,note_on,,,,,64,0,2,,,,,1,,,71,92
141696,note_on,,,,,64,0,1,,,,,0,,,74,92
141696,note_on,,,,,64,0,5,,,,,4,,,71,108
141696,note_on,,,,,64,0,8,,,,,7,,,38,75
141696,note_on,,,,,64,0,10,,,,,11,,,50,60
141696,note_on,,,,,0,0,9,,,,,10,,,71,60
141696,note_on,,,,,64,0,7,,,,,6,,,50,92
141696,note_on,,,,,0,0,9,,,,,10,,,65,60
141696,note_on,,,,,64,0,9,,,,,10,,,62,60
141884,note_off,,,,,188,0,2,,,,,1,,,71,0
141884,note_off,,,,,188,0,1,,,,,0,,,74,0
141884,note_off,,,,,188,0,5,,,,,4,,,71,0
141884,note_off,,,,,188,0,4,,,,,3,,,74,0
141888,note_on,,,,,4,0,4,,,,,3,,,72,108
141888,note_on,,,,,4,0,2,,,,,1,,,69,92
141888,note_on,,,,,4,0,5,,,,,4,,,69,108
141888,note_on,,,,,4,0,1,,,,,0,,,72,92
142016,note_off,,,,,320,0,7,,,,,6,,,50,0
142016,note_off,,,,,320,0,6,,,,,5,,,65,0
142016,note_off,,,,,0,0,9,,,,,10,,,65,0
142016,note_off,,,,,320,0,8,,,,,7,,,38,0
142016,note_off,,,,,320,0,9,,,,,10,,,62,0
142016,note_off,,,,,0,0,9,,,,,10,,,71,0
142016,note_off,,,,,320,0,10,,,,,11,,,50,0
142016,note_off,,,,,320,0,3,,,,,2,,,50,0
142076,note_off,,,,,188,0,4,,,,,3,,,72,0
142076,note_off,,,,,188,0,1,,,,,0,,,72,0
142076,note_off,,,,,188,0,2,,,,,1,,,69,0
142076,note_off,,,,,188,0,5,,,,,4,,,69,0
142080,note_on,,,,,64,0,10,,,,,11,,,52,60
142080,note_on,,,,,64,0,6,,,,,5,,,59,92
142080,note_on,,,,,0,0,9,,,,,10,,,64,60
142080,note_on,,,,,64,0,9,,,,,10,,,59,60
142080,note_on,,,,,64,0,3,,,,,2,,,52,92
142080,note_on,,,,,4,0,1,,,,,0,,,72,92
142080,note_on,,,,,0,0,9,,,,,10,,,68,60
142080,note_on,,,,,4,0,2,,,,,1,,,69,92
142080,note_on,,,,,64,0,8,,,,,7,,,40,75
142080,note_on,,,,,64,0,7,,,,,6,,,52,92
142080,note_on,,,,,4,0,4,,,,,3,,,72,108
142080,note_on,,,,,4,0,5,,,,,4,,,69,108
142124,note_off,,,,,44,0,4,,,,,3,,,72,0
142124,note_off,,,,,44,0,5,,,,,4,,,69,0
142124,note_off,,,,,44,0,1,,,,,0,,,72,0
142124,note_off,,,,,44,0,2,,,,,1,,,69,0
142128,note_on,,,,,4,0,4,,,,,3,,,71,108
142128,note_on,,,,,4,0,1,,,,,0,,,71,92
142128,note_on,,,,,4,0,2,,,,,1,,,68,92
142128,note_on,,,,,4,0,5,,,,,4,,,68,108
142172,note_off,,,,,44,0,1,,,,,0,,,71,0
142172,note_off,,,,,44,0,4,,,,,3,,,71,0
142172,note_off,,,,,44,0,2,,,,,1,,,68,0
142172,note_off,,,,,44,0,5,,,,,4,,,68,0
142176,note_on,,,,,4,0,2,,,,,1,,,69,92
142176,note_on,,,,,4,0,1,,,,,0,,,72,92
142176,note_on,,,,,4,0,5,,,,,4,,,69,108
142176,note_on,,,,,4,0,4,,,,,3,,,72,108
142220,note_off,,,,,44,0,4,,,,,3,,,72,0
142220,note_off,,,,,44,0,2,,,,,1,,,69,0
142220,note_off,,,,,44,0,1,,,,,0,,,72,0
142220,note_off,,,,,44,0,5,,,,,4,,,69,0
142224,note_on,,,,,4,0,1,,,,,0,,,71,92
142224,note_on,,,,,4,0,2,,,,,1,,,68,92
142224,note_on,,,,,4,0,5,,,,,4,,,68,108
142224,note_on,,,,,4,0,4,,,,,3,,,71,108
142268,note_off,,,,,44,0,1,,,,,0,,,71,0
142268,note_off,,,,,44,0,4,,,,,3,,,71,0
142268,note_off,,,,,44,0,5,,,,,4,,,68,0
142268,note_off,,,,,44,0,2,,,,,1,,,68,0
142272,note_on,,,,,4,0,2,,,,,1,,,69,92
142272,note_on,,,,,4,0,4,,,,,3,,,72,108
142272,note_on,,,,,4,0,1,,,,,0,,,72,92
142272,note_on,,,,,4,0,5,,,,,4,,,69,108
142316,note_off,,,,,44,0,4,,,,,3,,,72,0
142316,note_off,,,,,44,0,1,,,,,0,,,72,0
142316,note_off,,,,,44,0,5,,,,,4,,,69,0
142316,note_off,,,,,44,0,2,,,,,1,,,69,0
142320,note_on,,,,,4,0,4,,,,,3,,,71,108
142320,note_on,,,,,4,0,5,,,,,4,,,68,108
142320,note_on,,,,,4,0,2,,,,,1,,,68,92
142320,note_on,,,,,4,0,1,,,,,0,,,71,92
142364,note_off,,,,,44,0,5,,,,,4,,,68,0
142364,note_off,,,,,44,0,2,,,,,1,,,68,0
142364,note_off,,,,,44,0,4,,,,,3,,,71,0
142364,note_off,,,,,44,0,1,,,,,0,,,71,0
142368,note_on,,,,,4,0,4,,,,,3,,,72,108
142368,note_on,,,,,4,0,2,,,,,1,,,69,92
142368,note_on,,,,,4,0,5,,,,,4,,,69,108
142368,note_on,,,,,4,0,1,,,,,0,,,72,92
142400,note_off,,,,,320,0,7,,,,,6,,,52,0
142400,note_off,,,,,320,0,3,,,,,2,,,52,0
142400,note_off,,,,,320,0,8,,,,,7,,,40,0
142400,note_off,,,,,320,0,10,,,,,11,,,52,0
142400,note_off,,,,,320,0,6,,,,,5,,,59,0
142412,note_off,,,,,44,0,2,,,,,1,,,69,0
142412,note_off,,,,,44,0,5,,,,,4,,,69,0
142412,note_off,,,,,44,0,4,,,,,3,,,72,0
142412,note_off,,,,,44,0,1,,,,,0,,,72,0
142416,note_on,,,,,4,0,4,,,,,3,,,71,108
142416,note_on,,,,,4,0,2,,,,,1,,,68,92
142416,note_on,,,,,4,0,5,,,,,4,,,68,108
142416,note_on,,,,,4,0,1,,,,,0,,,71,92
142460,note_off,,,,,44,0,4,,,,,3,,,71,0
142460,note_off,,,,,44,0,1,,,,,0,,,71,0
142460,note_off,,,,,44,0,2,,,,,1,,,68,0
142460,note_off,,,,,44,0,5,,,,,4,,,68,0
142464,note_on,,,,,64,0,10,,,,,11,,,40,60
142464,note_on,,,,,4,0,1,,,,,0,,,72,92
142464,note_on,,,,,4,0,5,,,,,4,,,69,108
142464,note_on,,,,,64,0,8,,,,,7,,,28,75
142464,note_on,,,,,64,0,7,,,,,6,,,40,92
142464,note_on,,,,,64,0,6,,,,,5,,,64,92
142464,note_on,,,,,64,0,3,,,,,2,,,40,92
142464,note_on,,,,,4,0,4,,,,,3,,,72,108
142464,note_on,,,,,4,0,2,,,,,1,,,69,92
142508,note_off,,,,,44,0,4,,,,,3,,,72,0
142508,note_off,,,,,44,0,2,,,,,1,,,69,0
142508,note_off,,,,,44,0,1,,,,,0,,,72,0
142508,note_off,,,,,44,0,5,,,,,4,,,69,0
142512,note_on,,,,,4,0,2,,,,,1,,,68,92
142512,note_on,,,,,4,0,5,,,,,4,,,68,108
142512,note_on,,,,,4,0,4,,,,,3,,,71,108
142512,note_on,,,,,4,0,1,,,,,0,,,71,92
142652,note_off,,,,,140,0,4,,,,,3,,,71,0
142652,note_off,,,,,140,0,5,,,,,4,,,68,0
142652,note_off,,,,,140,0,2,,,,,1,,,68,0
142652,note_off,,,,,140,0,1,,,,,0,,,71,0
142656,note_on,,,,,4,0,4,,,,,3,,,69,108
142656,note_on,,,,,4,0,2,,,,,1,,,69,92
142656,note_on,,,,,4,0,1,,,,,0,,,69,92
142656,note_on,,,,,4,0,5,,,,,4,,,69,108
142752,note_off,,,,,672,0,9,,,,,10,,,59,0
142752,note_off,,,,,0,0,9,,,,,10,,,64,0
142752,note_off,,,,,0,0,9,,,,,10,,,68,0
142784,note_off,,,,,320,0,7,,,,,6,,,40,0
142784,note_off,,,,,320,0,10,,,,,11,,,40,0
142784,note_off,,,,,320,0,6,,,,,5,,,64,0
142784,note_off,,,,,320,0,8,,,,,7,,,28,0
142784,note_off,,,,,320,0,3,,,,,2,,,40,0
142844,note_off,,,,,188,0,4,,,,,3,,,69,0
142844,note_off,,,,,188,0,5,,,,,4,,,69,0
142844,note_off,,,,,188,0,2,,,,,1,,,69,0
142844,note_off,,,,,188,0,1,,,,,0,,,69,0
142848,note_on,,,,,4,0,2,,,,,1,,,69,92
142848,note_on,,,,,64,0,10,,,,,11,,,45,60
142848,note_on,,,,,4,0,5,,,,,4,,,69,108
142848,note_on,,,,,64,0,6,,,,,5,,,60,92
142848,note_on,,,,,4,0,1,,,,,0,,,69,92
142848,note_on,,,,,64,0,8,,,,,7,,,33,75
142848,note_on,,,,,4,0,4,,,,,3,,,69,108
142848,note_on,,,,,64,0,7,,,,,6,,,45,92
142848,note_on,,,,,0,0,9,,,,,10,,,69,60
142848,note_on,,,,,64,0,3,,,,,2,,,45,92
142848,note_on,,,,,0,0,9,,,,,10,,,64,60
142848,note_on,,,,,96,0,9,,,,,10,,,60,60
143904,note_off,,,,,1056,0,8,,,,,7,,,33,0
143904,end_of_track,,,,,0,1,8,,,,,,,,,
143904,end_of_track,,,,,0,1,7,,,,,,,,,
143904,note_off,,,,,1056,0,7,,,,,6,,,45,0
143904,note_off,,,,,1056,0,9,,,,,10,,,60,0
143904,note_off,,,,,1056,0,5,,,,,4,,,69,0
143904,note_off,,,,,0,0,9,,,,,10,,,69,0
143904,end_of_track,,,,,0,1,10,,,,,,,,,
143904,note_off,,,,,1056,0,10,,,,,11,,,45,0
143904,end_of_track,,,,,0,1,5,,,,,,,,,
143904,note_off,,,,,1056,0,6,,,,,5,,,60,0
143904,end_of_track,,,,,0,1,6,,,,,,,,,
143904,end_of_track,,,,,0,1,4,,,,,,,,,
143904,note_off,,,,,1056,0,4,,,,,3,,,69,0
143904,end_of_track,,,,,0,1,9,,,,,,,,,
143904,note_off,,,,,1056,0,3,,,,,2,,,45,0
143904,end_of_track,,,,,0,1,2,,,,,,,,,
143904,end_of_track,,,,,0,1,3,,,,,,,,,
143904,note_off,,,,,1056,0,2,,,,,1,,,69,0
143904,end_of_track,,,,,0,1,1,,,,,,,,,
143904,note_off,,,,,0,0,9,,,,,10,,,64,0
143904,note_off,,,,,1056,0,1,,,,,0,,,69,0
