tick,type,numerator,denominator,clocks_per_click,notated_32nd_notes_per_beat,time,meta,track,data,tempo,control,value,channel,program,key,note,velocity
0,time_signature,4,4,96,8,0,1,0,,,,,,,,,
0,key_signature,,,,,0,1,15,,,,,,,C,,
0,track_name,,,,,0,1,5,,,,,,,,,
0,control_change,,,,,0,0,5,,,0,0,4,,,,
0,control_change,,,,,0,0,5,,,10,105,4,,,,
0,control_change,,,,,0,0,5,,,7,127,4,,,,
0,program_change,,,,,0,0,5,,,,,4,41,,,
0,key_signature,,,,,0,1,5,,,,,,,Bb,,
0,note_on,,,,,0,0,5,,,,,4,,,58,92
0,track_name,,,,,0,1,6,,,,,,,,,
0,control_change,,,,,0,0,6,,,0,0,5,,,,
0,control_change,,,,,0,0,6,,,10,21,5,,,,
0,control_change,,,,,0,0,6,,,7,127,5,,,,
0,program_change,,,,,0,0,6,,,,,5,42,,,
0,key_signature,,,,,0,1,6,,,,,,,Bb,,
0,note_on,,,,,0,0,6,,,,,5,,,50,92
0,note_on,,,,,0,0,4,,,,,3,,,65,108
0,track_name,,,,,0,1,7,,,,,,,,,
0,key_signature,,,,,0,1,4,,,,,,,Bb,,
0,control_change,,,,,0,0,4,,,7,127,3,,,,
0,control_change,,,,,0,0,2,,,10,109,1,,,,
0,control_change,,,,,0,0,2,,,7,127,1,,,,
0,program_change,,,,,0,0,2,,,,,1,48,,,
0,key_signature,,,,,0,1,2,,,,,,,Bb,,
0,note_on,,,,,0,0,2,,,,,1,,,70,77
0,track_name,,,,,0,1,3,,,,,,,,,
0,control_change,,,,,0,0,3,,,0,0,2,,,,
0,control_change,,,,,0,0,3,,,10,24,2,,,,
0,control_change,,,,,0,0,3,,,7,127,2,,,,
0,program_change,,,,,0,0,3,,,,,2,48,,,
0,key_signature,,,,,0,1,3,,,,,,,Bb,,
0,note_on,,,,,0,0,3,,,,,2,,,70,100
0,track_name,,,,,0,1,4,,,,,,,,,
0,control_change,,,,,0,0,4,,,0,0,3,,,,
0,control_change,,,,,0,0,4,,,10,109,3,,,,
0,program_change,,,,,0,0,4,,,,,3,48,,,
0,control_change,,,,,0,0,7,,,0,0,6,,,,
0,control_change,,,,,0,0,7,,,10,64,6,,,,
0,control_change,,,,,0,0,7,,,7,127,6,,,,
0,key_signature,,,,,0,1,10,,,,,,,C,,
0,end_of_track,,,,,0,1,10,,,,,,,,,
0,track_name,,,,,0,1,11,,,,,,,,,
0,key_signature,,,,,0,1,11,,,,,,,C,,
0,end_of_track,,,,,0,1,11,,,,,,,,,
0,track_name,,,,,0,1,12,,,,,,,,,
0,key_signature,,,,,0,1,12,,,,,,,C,,
0,end_of_track,,,,,0,1,12,,,,,,,,,
0,track_name,,,,,0,1,13,,,,,,,,,
0,key_signature,,,,,0,1,13,,,,,,,C,,
0,end_of_track,,,,,0,1,13,,,,,,,,,
0,track_name,,,,,0,1,14,,,,,,,,,
0,key_signature,,,,,0,1,14,,,,,,,C,,
0,end_of_track,,,,,0,1,14,,,,,,,,,
0,track_name,,,,,0,1,15,,,,,,,,,
0,track_name,,,,,0,1,10,,,,,,,,,
0,note_on,,,,,0,0,9,,,,,8,,,50,60
0,key_signature,,,,,0,1,9,,,,,,,Bb,,
0,program_change,,,,,0,0,9,,,,,8,6,,,
0,program_change,,,,,0,0,7,,,,,6,43,,,
0,key_signature,,,,,0,1,7,,,,,,,Bb,,
0,note_on,,,,,0,0,7,,,,,6,,,38,65
0,track_name,,,,,0,1,8,,,,,,,,,
0,control_change,,,,,0,0,8,,,0,0,7,,,,
0,control_change,,,,,0,0,8,,,10,74,7,,,,
0,control_change,,,,,0,0,8,,,7,127,7,,,,
0,control_change,,,,,0,0,2,,,0,0,1,,,,
0,program_change,,,,,0,0,8,,,,,7,6,,,
0,note_on,,,,,0,0,8,,,,,7,,,62,60
0,note_on,,,,,0,0,8,,,,,7,,,65,60
0,note_on,,,,,0,0,8,,,,,7,,,70,60
0,track_name,,,,,0,1,9,,,,,,,,,
0,control_change,,,,,0,0,9,,,0,0,8,,,,
0,control_change,,,,,0,0,9,,,10,51,8,,,,
0,control_change,,,,,0,0,9,,,7,127,8,,,,
0,key_signature,,,,,0,1,8,,,,,,,Bb,,
0,track_name,,,,,0,1,2,,,,,,,,,
0,end_of_track,,,,,0,1,15,,,,,,,,,
0,sequencer_specific,,,,,0,1,0,"(0, 0, 65)",,,,,,,,
0,set_tempo,,,,,0,1,0,,1000000,,,,,,,
0,track_name,,,,,0,1,1,,,,,,,,,
0,control_change,,,,,0,0,1,,,0,0,0,,,,
0,control_change,,,,,0,0,1,,,10,24,0,,,,
0,control_change,,,,,0,0,1,,,7,127,0,,,,
0,program_change,,,,,0,0,1,,,,,0,40,,,
0,key_signature,,,,,0,1,1,,,,,,,Bb,,
0,note_on,,,,,0,0,1,,,,,0,,,70,80
140,note_off,,,,,140,0,7,,,,,6,,,38,0
140,note_off,,,,,140,0,9,,,,,8,,,50,0
140,note_off,,,,,0,0,8,,,,,7,,,70,0
140,note_off,,,,,140,0,2,,,,,1,,,70,0
140,note_off,,,,,140,0,8,,,,,7,,,62,0
140,note_off,,,,,0,0,8,,,,,7,,,65,0
140,note_off,,,,,140,0,6,,,,,5,,,50,0
140,note_off,,,,,140,0,1,,,,,0,,,70,0
144,note_on,,,,,0,0,4,,,,,3,,,69,108
144,note_on,,,,,0,0,3,,,,,2,,,72,100
144,note_off,,,,,144,0,3,,,,,2,,,70,0
144,note_on,,,,,4,0,9,,,,,8,,,53,60
144,note_on,,,,,4,0,7,,,,,6,,,41,65
144,note_on,,,,,4,0,6,,,,,5,,,53,92
144,note_on,,,,,0,0,8,,,,,7,,,69,60
144,note_on,,,,,0,0,8,,,,,7,,,65,60
144,note_on,,,,,4,0,8,,,,,7,,,60,60
144,note_on,,,,,4,0,2,,,,,1,,,72,77
144,note_off,,,,,144,0,4,,,,,3,,,65,0
144,note_on,,,,,4,0,1,,,,,0,,,72,80
188,note_off,,,,,44,0,8,,,,,7,,,60,0
188,note_off,,,,,44,0,7,,,,,6,,,41,0
188,note_off,,,,,0,0,8,,,,,7,,,69,0
188,note_off,,,,,44,0,9,,,,,8,,,53,0
188,note_off,,,,,44,0,2,,,,,1,,,72,0
188,note_off,,,,,44,0,6,,,,,5,,,53,0
188,note_off,,,,,44,0,1,,,,,0,,,72,0
188,note_off,,,,,0,0,8,,,,,7,,,65,0
188,note_off,,,,,188,0,5,,,,,4,,,58,0
192,note_on,,,,,0,0,4,,,,,3,,,70,108
192,note_on,,,,,4,0,9,,,,,8,,,58,60
192,note_on,,,,,4,0,8,,,,,7,,,62,60
192,note_on,,,,,0,0,8,,,,,7,,,65,60
192,note_on,,,,,0,0,3,,,,,2,,,74,100
192,note_off,,,,,48,0,4,,,,,3,,,69,0
192,note_on,,,,,4,0,6,,,,,5,,,58,92
192,note_on,,,,,4,0,5,,,,,4,,,65,92
192,note_on,,,,,4,0,1,,,,,0,,,74,80
192,note_on,,,,,4,0,2,,,,,1,,,74,77
192,note_off,,,,,48,0,3,,,,,2,,,72,0
192,note_on,,,,,4,0,7,,,,,6,,,46,65
192,note_on,,,,,0,0,8,,,,,7,,,70,60
380,note_off,,,,,188,0,5,,,,,4,,,65,0
380,note_off,,,,,188,0,9,,,,,8,,,58,0
380,note_off,,,,,188,0,6,,,,,5,,,58,0
380,note_off,,,,,188,0,7,,,,,6,,,46,0
384,note_off,,,,,192,0,4,,,,,3,,,70,0
384,note_on,,,,,0,0,4,,,,,3,,,65,108
384,note_on,,,,,4,0,5,,,,,4,,,70,92
384,note_on,,,,,4,0,9,,,,,8,,,46,60
384,note_on,,,,,4,0,7,,,,,6,,,34,65
384,note_on,,,,,4,0,6,,,,,5,,,46,92
476,note_off,,,,,284,0,2,,,,,1,,,74,0
476,note_off,,,,,284,0,1,,,,,0,,,74,0
480,note_on,,,,,4,0,1,,,,,0,,,75,80
480,note_off,,,,,288,0,3,,,,,2,,,74,0
480,note_on,,,,,0,0,3,,,,,2,,,75,100
480,note_on,,,,,4,0,2,,,,,1,,,75,77
512,note_off,,,,,0,0,8,,,,,7,,,65,0
512,note_off,,,,,320,0,8,,,,,7,,,62,0
512,note_off,,,,,0,0,8,,,,,7,,,70,0
572,note_off,,,,,188,0,9,,,,,8,,,46,0
572,note_off,,,,,92,0,1,,,,,0,,,75,0
572,note_off,,,,,188,0,6,,,,,5,,,46,0
572,note_off,,,,,92,0,2,,,,,1,,,75,0
572,note_off,,,,,188,0,7,,,,,6,,,34,0
576,note_on,,,,,4,0,6,,,,,5,,,50,92
576,note_on,,,,,4,0,2,,,,,1,,,77,77
576,note_on,,,,,64,0,8,,,,,7,,,62,60
576,note_on,,,,,0,0,8,,,,,7,,,65,60
576,note_on,,,,,0,0,8,,,,,7,,,70,60
576,note_off,,,,,96,0,3,,,,,2,,,75,0
576,note_on,,,,,4,0,1,,,,,0,,,77,80
576,note_on,,,,,4,0,7,,,,,6,,,38,65
576,note_on,,,,,4,0,9,,,,,8,,,50,60
576,note_on,,,,,0,0,3,,,,,2,,,77,100
764,note_off,,,,,0,0,8,,,,,7,,,70,0
764,note_off,,,,,188,0,1,,,,,0,,,77,0
764,note_off,,,,,0,0,8,,,,,7,,,65,0
764,note_off,,,,,188,0,8,,,,,7,,,62,0
764,note_off,,,,,188,0,7,,,,,6,,,38,0
764,note_off,,,,,188,0,2,,,,,1,,,77,0
764,note_off,,,,,188,0,9,,,,,8,,,50,0
764,note_off,,,,,188,0,6,,,,,5,,,50,0
764,note_off,,,,,380,0,5,,,,,4,,,70,0
768,note_on,,,,,4,0,8,,,,,7,,,60,60
768,note_on,,,,,0,0,8,,,,,7,,,65,60
768,note_on,,,,,4,0,7,,,,,6,,,41,65
768,note_on,,,,,0,0,8,,,,,7,,,69,60
768,note_on,,,,,4,0,6,,,,,5,,,53,92
768,note_on,,,,,4,0,2,,,,,1,,,72,77
768,note_on,,,,,4,0,5,,,,,4,,,69,92
768,note_off,,,,,192,0,3,,,,,2,,,77,0
768,note_on,,,,,0,0,3,,,,,2,,,72,100
768,note_on,,,,,4,0,9,,,,,8,,,53,60
768,note_on,,,,,4,0,1,,,,,0,,,72,80
768,note_off,,,,,384,0,4,,,,,3,,,65,0
768,note_on,,,,,0,0,4,,,,,3,,,69,108
816,note_off,,,,,48,0,1,,,,,0,,,72,0
816,note_off,,,,,48,0,2,,,,,1,,,72,0
816,note_on,,,,,0,0,2,,,,,1,,,74,77
816,note_off,,,,,48,0,3,,,,,2,,,72,0
816,note_on,,,,,0,0,3,,,,,2,,,74,100
816,note_on,,,,,0,0,1,,,,,0,,,74,80
816,note_off,,,,,48,0,4,,,,,3,,,69,0
816,note_on,,,,,0,0,4,,,,,3,,,70,108
864,note_off,,,,,48,0,4,,,,,3,,,70,0
864,note_off,,,,,48,0,3,,,,,2,,,74,0
864,note_on,,,,,0,0,3,,,,,2,,,75,100
864,note_on,,,,,0,0,2,,,,,1,,,75,77
864,note_on,,,,,0,0,1,,,,,0,,,75,80
864,note_off,,,,,48,0,1,,,,,0,,,74,0
864,note_off,,,,,48,0,2,,,,,1,,,74,0
864,note_on,,,,,0,0,4,,,,,3,,,72,108
956,note_off,,,,,188,0,5,,,,,4,,,69,0
956,note_off,,,,,92,0,2,,,,,1,,,75,0
956,note_off,,,,,188,0,7,,,,,6,,,41,0
956,note_off,,,,,188,0,8,,,,,7,,,60,0
956,note_off,,,,,188,0,9,,,,,8,,,53,0
956,note_off,,,,,188,0,6,,,,,5,,,53,0
956,note_off,,,,,92,0,1,,,,,0,,,75,0
956,note_off,,,,,0,0,8,,,,,7,,,69,0
956,note_off,,,,,0,0,8,,,,,7,,,65,0
960,note_on,,,,,4,0,5,,,,,4,,,65,92
960,note_on,,,,,4,0,2,,,,,1,,,74,77
960,note_on,,,,,0,0,4,,,,,3,,,70,108
960,note_off,,,,,96,0,4,,,,,3,,,72,0
960,note_on,,,,,0,0,8,,,,,7,,,65,60
960,note_on,,,,,0,0,8,,,,,7,,,70,60
960,note_on,,,,,4,0,9,,,,,8,,,58,60
960,note_off,,,,,96,0,3,,,,,2,,,75,0
960,note_on,,,,,0,0,3,,,,,2,,,74,100
960,note_on,,,,,4,0,7,,,,,6,,,46,65
960,note_on,,,,,4,0,1,,,,,0,,,74,80
960,note_on,,,,,4,0,8,,,,,7,,,62,60
960,note_on,,,,,4,0,6,,,,,5,,,58,92
1148,note_off,,,,,188,0,6,,,,,5,,,58,0
1148,note_off,,,,,188,0,7,,,,,6,,,46,0
1148,note_off,,,,,188,0,5,,,,,4,,,65,0
1148,note_off,,,,,188,0,9,,,,,8,,,58,0
1152,note_on,,,,,4,0,9,,,,,8,,,46,60
1152,note_on,,,,,0,0,4,,,,,3,,,65,108
1152,note_off,,,,,192,0,4,,,,,3,,,70,0
1152,note_on,,,,,4,0,5,,,,,4,,,70,92
1152,note_on,,,,,4,0,7,,,,,6,,,34,65
1152,note_on,,,,,4,0,6,,,,,5,,,46,92
1244,note_off,,,,,284,0,1,,,,,0,,,74,0
1244,note_off,,,,,284,0,2,,,,,1,,,74,0
1248,note_on,,,,,0,0,3,,,,,2,,,75,100
1248,note_on,,,,,4,0,1,,,,,0,,,75,80
1248,note_on,,,,,4,0,2,,,,,1,,,75,77
1248,note_off,,,,,288,0,3,,,,,2,,,74,0
1280,note_off,,,,,0,0,8,,,,,7,,,65,0
1280,note_off,,,,,320,0,8,,,,,7,,,62,0
1280,note_off,,,,,0,0,8,,,,,7,,,70,0
1340,note_off,,,,,188,0,7,,,,,6,,,34,0
1340,note_off,,,,,92,0,1,,,,,0,,,75,0
1340,note_off,,,,,92,0,2,,,,,1,,,75,0
1340,note_off,,,,,188,0,9,,,,,8,,,46,0
1340,note_off,,,,,188,0,6,,,,,5,,,46,0
1344,note_on,,,,,0,0,3,,,,,2,,,77,100
1344,note_on,,,,,4,0,7,,,,,6,,,38,65
1344,note_off,,,,,96,0,3,,,,,2,,,75,0
1344,note_on,,,,,4,0,9,,,,,8,,,50,60
1344,note_on,,,,,0,0,8,,,,,7,,,70,60
1344,note_on,,,,,0,0,8,,,,,7,,,65,60
1344,note_on,,,,,64,0,8,,,,,7,,,62,60
1344,note_on,,,,,4,0,6,,,,,5,,,50,92
1344,note_on,,,,,4,0,1,,,,,0,,,77,80
1344,note_on,,,,,4,0,2,,,,,1,,,77,77
1532,note_off,,,,,0,0,8,,,,,7,,,70,0
1532,note_off,,,,,188,0,7,,,,,6,,,38,0
1532,note_off,,,,,380,0,5,,,,,4,,,70,0
1532,note_off,,,,,188,0,8,,,,,7,,,62,0
1532,note_off,,,,,188,0,6,,,,,5,,,50,0
1532,note_off,,,,,0,0,8,,,,,7,,,65,0
1532,note_off,,,,,188,0,9,,,,,8,,,50,0
1532,note_off,,,,,188,0,1,,,,,0,,,77,0
1532,note_off,,,,,188,0,2,,,,,1,,,77,0
1536,note_off,,,,,384,0,4,,,,,3,,,65,0
1536,note_on,,,,,0,0,4,,,,,3,,,69,108
1536,note_on,,,,,0,0,3,,,,,2,,,72,100
1536,note_off,,,,,192,0,3,,,,,2,,,77,0
1536,note_on,,,,,4,0,8,,,,,7,,,60,60
1536,note_on,,,,,4,0,2,,,,,1,,,72,77
1536,note_on,,,,,4,0,1,,,,,0,,,72,80
1536,note_on,,,,,0,0,8,,,,,7,,,65,60
1536,note_on,,,,,4,0,5,,,,,4,,,69,92
1536,note_on,,,,,4,0,6,,,,,5,,,53,92
1536,note_on,,,,,4,0,9,,,,,8,,,53,60
1536,note_on,,,,,4,0,7,,,,,6,,,41,65
1536,note_on,,,,,0,0,8,,,,,7,,,69,60
1584,note_off,,,,,48,0,4,,,,,3,,,69,0
1584,note_off,,,,,48,0,1,,,,,0,,,72,0
1584,note_on,,,,,0,0,1,,,,,0,,,74,80
1584,note_on,,,,,0,0,2,,,,,1,,,74,77
1584,note_on,,,,,0,0,3,,,,,2,,,74,100
1584,note_off,,,,,48,0,3,,,,,2,,,72,0
1584,note_off,,,,,48,0,2,,,,,1,,,72,0
1584,note_on,,,,,0,0,4,,,,,3,,,70,108
1632,note_off,,,,,48,0,3,,,,,2,,,74,0
1632,note_on,,,,,0,0,2,,,,,1,,,75,77
1632,note_off,,,,,48,0,2,,,,,1,,,74,0
1632,note_off,,,,,48,0,1,,,,,0,,,74,0
1632,note_on,,,,,0,0,1,,,,,0,,,75,80
1632,note_on,,,,,0,0,4,,,,,3,,,72,108
1632,note_on,,,,,0,0,3,,,,,2,,,75,100
1632,note_off,,,,,48,0,4,,,,,3,,,70,0
1724,note_off,,,,,188,0,5,,,,,4,,,69,0
1724,note_off,,,,,188,0,7,,,,,6,,,41,0
1724,note_off,,,,,188,0,6,,,,,5,,,53,0
1724,note_off,,,,,188,0,9,,,,,8,,,53,0
1724,note_off,,,,,92,0,2,,,,,1,,,75,0
1724,note_off,,,,,0,0,8,,,,,7,,,69,0
1724,note_off,,,,,0,0,8,,,,,7,,,65,0
1724,note_off,,,,,188,0,8,,,,,7,,,60,0
1724,note_off,,,,,92,0,1,,,,,0,,,75,0
1728,note_off,,,,,96,0,4,,,,,3,,,72,0
1728,note_on,,,,,0,0,3,,,,,2,,,75,100
1728,note_off,,,,,96,0,3,,,,,2,,,75,0
1728,note_on,,,,,4,0,9,,,,,8,,,58,60
1728,note_on,,,,,4,0,5,,,,,4,,,65,92
1728,note_on,,,,,4,0,1,,,,,0,,,75,80
1728,note_on,,,,,4,0,2,,,,,1,,,75,77
1728,note_on,,,,,4,0,6,,,,,5,,,58,92
1728,note_on,,,,,0,0,4,,,,,3,,,70,108
1728,note_on,,,,,4,0,7,,,,,6,,,46,65
1728,note_on,,,,,0,0,8,,,,,7,,,70,60
1728,note_on,,,,,4,0,8,,,,,7,,,62,60
1728,note_on,,,,,0,0,8,,,,,7,,,65,60
1752,note_on,,,,,0,0,3,,,,,2,,,74,100
1752,note_off,,,,,24,0,3,,,,,2,,,75,0
1752,note_off,,,,,24,0,1,,,,,0,,,75,0
1752,note_on,,,,,0,0,2,,,,,1,,,74,77
1752,note_off,,,,,24,0,2,,,,,1,,,75,0
1752,note_on,,,,,0,0,1,,,,,0,,,74,80
1776,note_on,,,,,0,0,2,,,,,1,,,75,77
1776,note_off,,,,,24,0,2,,,,,1,,,74,0
1776,note_off,,,,,24,0,3,,,,,2,,,74,0
1776,note_on,,,,,0,0,3,,,,,2,,,75,100
1776,note_on,,,,,0,0,1,,,,,0,,,75,80
1776,note_off,,,,,24,0,1,,,,,0,,,74,0
1800,note_off,,,,,24,0,2,,,,,1,,,75,0
1800,note_on,,,,,0,0,2,,,,,1,,,74,77
1800,note_on,,,,,0,0,3,,,,,2,,,74,100
1800,note_off,,,,,24,0,3,,,,,2,,,75,0
1800,note_on,,,,,0,0,1,,,,,0,,,74,80
1800,note_off,,,,,24,0,1,,,,,0,,,75,0
1824,note_off,,,,,24,0,2,,,,,1,,,74,0
1824,note_on,,,,,0,0,2,,,,,1,,,75,77
1824,note_on,,,,,0,0,1,,,,,0,,,75,80
1824,note_off,,,,,24,0,1,,,,,0,,,74,0
1824,note_off,,,,,24,0,3,,,,,2,,,74,0
1824,note_on,,,,,0,0,3,,,,,2,,,75,100
1848,note_on,,,,,0,0,1,,,,,0,,,74,80
1848,note_on,,,,,0,0,2,,,,,1,,,74,77
1848,note_off,,,,,24,0,2,,,,,1,,,75,0
1848,note_off,,,,,24,0,3,,,,,2,,,75,0
1848,note_on,,,,,0,0,3,,,,,2,,,74,100
1848,note_off,,,,,24,0,1,,,,,0,,,75,0
1872,note_off,,,,,24,0,2,,,,,1,,,74,0
1872,note_off,,,,,24,0,3,,,,,2,,,74,0
1872,note_on,,,,,0,0,3,,,,,2,,,72,100
1872,note_on,,,,,0,0,2,,,,,1,,,72,77
1872,note_on,,,,,0,0,1,,,,,0,,,72,80
1872,note_off,,,,,24,0,1,,,,,0,,,74,0
1916,note_off,,,,,188,0,6,,,,,5,,,58,0
1916,note_off,,,,,188,0,5,,,,,4,,,65,0
1916,note_off,,,,,188,0,7,,,,,6,,,46,0
1916,note_off,,,,,0,0,8,,,,,7,,,70,0
1916,note_off,,,,,0,0,8,,,,,7,,,65,0
1916,note_off,,,,,188,0,8,,,,,7,,,62,0
1916,note_off,,,,,188,0,9,,,,,8,,,58,0
1920,note_off,,,,,48,0,1,,,,,0,,,72,0
1920,note_on,,,,,0,0,8,,,,,7,,,65,60
1920,note_on,,,,,0,0,1,,,,,0,,,70,80
1920,note_on,,,,,0,0,3,,,,,2,,,70,100
1920,note_off,,,,,48,0,3,,,,,2,,,72,0
1920,note_off,,,,,48,0,2,,,,,1,,,72,0
1920,note_on,,,,,4,0,8,,,,,7,,,62,60
1920,note_on,,,,,0,0,2,,,,,1,,,70,77
1920,note_on,,,,,0,0,4,,,,,3,,,62,108
1920,note_off,,,,,192,0,4,,,,,3,,,70,0
1920,note_on,,,,,4,0,9,,,,,8,,,46,60
1920,note_on,,,,,4,0,7,,,,,6,,,34,65
1920,note_on,,,,,4,0,6,,,,,5,,,46,92
1920,note_on,,,,,4,0,5,,,,,4,,,65,92
2108,note_off,,,,,188,0,5,,,,,4,,,65,0
2108,note_off,,,,,188,0,9,,,,,8,,,46,0
2108,note_off,,,,,188,0,6,,,,,5,,,46,0
2108,note_off,,,,,188,0,2,,,,,1,,,70,0
2108,note_off,,,,,188,0,8,,,,,7,,,62,0
2108,note_off,,,,,188,0,7,,,,,6,,,34,0
2108,note_off,,,,,188,0,1,,,,,0,,,70,0
2108,note_off,,,,,0,0,8,,,,,7,,,65,0
2112,note_off,,,,,192,0,4,,,,,3,,,62,0
2112,note_off,,,,,192,0,3,,,,,2,,,70,0
2304,note_on,,,,,0,0,8,,,,,7,,,65,60
2304,note_on,,,,,192,0,4,,,,,3,,,65,108
2304,note_on,,,,,0,0,8,,,,,7,,,70,60
2304,note_on,,,,,196,0,7,,,,,6,,,38,65
2304,note_on,,,,,196,0,6,,,,,5,,,50,92
2304,note_on,,,,,196,0,8,,,,,7,,,62,60
2304,note_on,,,,,196,0,2,,,,,1,,,70,77
2304,note_on,,,,,196,0,9,,,,,8,,,50,60
2304,note_on,,,,,192,0,3,,,,,2,,,70,100
2304,note_on,,,,,196,0,5,,,,,4,,,58,92
2304,note_on,,,,,196,0,1,,,,,0,,,70,80
2444,note_off,,,,,140,0,9,,,,,8,,,50,0
2444,note_off,,,,,140,0,8,,,,,7,,,62,0
2444,note_off,,,,,0,0,8,,,,,7,,,65,0
2444,note_off,,,,,140,0,6,,,,,5,,,50,0
2444,note_off,,,,,0,0,8,,,,,7,,,70,0
2444,note_off,,,,,140,0,7,,,,,6,,,38,0
2444,note_off,,,,,140,0,2,,,,,1,,,70,0
2444,note_off,,,,,140,0,1,,,,,0,,,70,0
2448,note_on,,,,,4,0,1,,,,,0,,,72,80
2448,note_on,,,,,4,0,6,,,,,5,,,53,92
2448,note_on,,,,,0,0,8,,,,,7,,,65,60
2448,note_on,,,,,0,0,4,,,,,3,,,69,108
2448,note_on,,,,,4,0,7,,,,,6,,,41,65
2448,note_on,,,,,4,0,2,,,,,1,,,72,77
2448,note_off,,,,,144,0,3,,,,,2,,,70,0
2448,note_on,,,,,4,0,9,,,,,8,,,53,60
2448,note_on,,,,,0,0,8,,,,,7,,,69,60
2448,note_on,,,,,0,0,3,,,,,2,,,72,100
2448,note_on,,,,,4,0,8,,,,,7,,,60,60
2448,note_off,,,,,144,0,4,,,,,3,,,65,0
2492,note_off,,,,,44,0,7,,,,,6,,,41,0
2492,note_off,,,,,44,0,1,,,,,0,,,72,0
2492,note_off,,,,,44,0,6,,,,,5,,,53,0
2492,note_off,,,,,0,0,8,,,,,7,,,69,0
2492,note_off,,,,,0,0,8,,,,,7,,,65,0
2492,note_off,,,,,44,0,8,,,,,7,,,60,0
2492,note_off,,,,,44,0,9,,,,,8,,,53,0
2492,note_off,,,,,44,0,2,,,,,1,,,72,0
2492,note_off,,,,,188,0,5,,,,,4,,,58,0
2496,note_on,,,,,0,0,8,,,,,7,,,65,60
2496,note_on,,,,,4,0,8,,,,,7,,,62,60
2496,note_on,,,,,0,0,8,,,,,7,,,70,60
2496,note_on,,,,,4,0,7,,,,,6,,,46,65
2496,note_on,,,,,0,0,3,,,,,2,,,74,100
2496,note_off,,,,,48,0,4,,,,,3,,,69,0
2496,note_on,,,,,4,0,5,,,,,4,,,65,92
2496,note_on,,,,,4,0,2,,,,,1,,,74,77
2496,note_off,,,,,48,0,3,,,,,2,,,72,0
2496,note_on,,,,,4,0,6,,,,,5,,,58,92
2496,note_on,,,,,0,0,4,,,,,3,,,70,108
2496,note_on,,,,,4,0,9,,,,,8,,,58,60
2496,note_on,,,,,4,0,1,,,,,0,,,74,80
2684,note_off,,,,,188,0,5,,,,,4,,,65,0
2684,note_off,,,,,188,0,7,,,,,6,,,46,0
2684,note_off,,,,,188,0,9,,,,,8,,,58,0
2684,note_off,,,,,188,0,6,,,,,5,,,58,0
2688,note_off,,,,,192,0,4,,,,,3,,,70,0
2688,note_on,,,,,0,0,4,,,,,3,,,65,108
2688,note_on,,,,,4,0,9,,,,,8,,,46,60
2688,note_on,,,,,4,0,5,,,,,4,,,70,92
2688,note_on,,,,,4,0,6,,,,,5,,,46,92
2688,note_on,,,,,4,0,7,,,,,6,,,34,65
2780,note_off,,,,,284,0,2,,,,,1,,,74,0
2780,note_off,,,,,284,0,1,,,,,0,,,74,0
2784,note_on,,,,,0,0,3,,,,,2,,,75,100
2784,note_on,,,,,4,0,2,,,,,1,,,75,77
2784,note_off,,,,,288,0,3,,,,,2,,,74,0
2784,note_on,,,,,4,0,1,,,,,0,,,75,80
2816,note_off,,,,,320,0,8,,,,,7,,,62,0
2816,note_off,,,,,0,0,8,,,,,7,,,65,0
2816,note_off,,,,,0,0,8,,,,,7,,,70,0
2876,note_off,,,,,92,0,2,,,,,1,,,75,0
2876,note_off,,,,,92,0,1,,,,,0,,,75,0
2876,note_off,,,,,188,0,9,,,,,8,,,46,0
2876,note_off,,,,,188,0,6,,,,,5,,,46,0
2876,note_off,,,,,188,0,7,,,,,6,,,34,0
2880,note_on,,,,,4,0,1,,,,,0,,,77,80
2880,note_on,,,,,4,0,2,,,,,1,,,77,77
2880,note_on,,,,,4,0,9,,,,,8,,,50,60
2880,note_on,,,,,4,0,7,,,,,6,,,38,65
2880,note_on,,,,,0,0,3,,,,,2,,,77,100
2880,note_off,,,,,96,0,3,,,,,2,,,75,0
2880,note_on,,,,,0,0,8,,,,,7,,,70,60
2880,note_on,,,,,4,0,6,,,,,5,,,50,92
2880,note_on,,,,,0,0,8,,,,,7,,,65,60
2880,note_on,,,,,64,0,8,,,,,7,,,62,60
3068,note_off,,,,,0,0,8,,,,,7,,,65,0
3068,note_off,,,,,188,0,2,,,,,1,,,77,0
3068,note_off,,,,,0,0,8,,,,,7,,,70,0
3068,note_off,,,,,188,0,8,,,,,7,,,62,0
3068,note_off,,,,,188,0,1,,,,,0,,,77,0
3068,note_off,,,,,188,0,7,,,,,6,,,38,0
3068,note_off,,,,,380,0,5,,,,,4,,,70,0
3068,note_off,,,,,188,0,9,,,,,8,,,50,0
3068,note_off,,,,,188,0,6,,,,,5,,,50,0
3072,note_on,,,,,4,0,6,,,,,5,,,53,92
3072,note_on,,,,,0,0,8,,,,,7,,,65,60
3072,note_on,,,,,0,0,8,,,,,7,,,69,60
3072,note_on,,,,,4,0,2,,,,,1,,,72,77
3072,note_on,,,,,0,0,3,,,,,2,,,72,100
3072,note_off,,,,,384,0,4,,,,,3,,,65,0
3072,note_on,,,,,0,0,4,,,,,3,,,69,108
3072,note_on,,,,,4,0,8,,,,,7,,,60,60
3072,note_on,,,,,4,0,1,,,,,0,,,72,80
3072,note_on,,,,,4,0,5,,,,,4,,,69,92
3072,note_on,,,,,4,0,7,,,,,6,,,41,65
3072,note_on,,,,,4,0,9,,,,,8,,,53,60
3072,note_off,,,,,192,0,3,,,,,2,,,77,0
3120,note_on,,,,,0,0,4,,,,,3,,,70,108
3120,note_off,,,,,48,0,2,,,,,1,,,72,0
3120,note_on,,,,,0,0,2,,,,,1,,,74,77
3120,note_on,,,,,0,0,1,,,,,0,,,74,80
3120,note_off,,,,,48,0,1,,,,,0,,,72,0
3120,note_off,,,,,48,0,4,,,,,3,,,69,0
3120,note_off,,,,,48,0,3,,,,,2,,,72,0
3120,note_on,,,,,0,0,3,,,,,2,,,74,100
3168,note_off,,,,,48,0,3,,,,,2,,,74,0
3168,note_on,,,,,0,0,3,,,,,2,,,75,100
3168,note_off,,,,,48,0,1,,,,,0,,,74,0
3168,note_on,,,,,0,0,1,,,,,0,,,75,80
3168,note_off,,,,,48,0,4,,,,,3,,,70,0
3168,note_off,,,,,48,0,2,,,,,1,,,74,0
3168,note_on,,,,,0,0,2,,,,,1,,,75,77
3168,note_on,,,,,0,0,4,,,,,3,,,72,108
3260,note_off,,,,,188,0,7,,,,,6,,,41,0
3260,note_off,,,,,0,0,8,,,,,7,,,69,0
3260,note_off,,,,,188,0,6,,,,,5,,,53,0
3260,note_off,,,,,92,0,1,,,,,0,,,75,0
3260,note_off,,,,,188,0,5,,,,,4,,,69,0
3260,note_off,,,,,188,0,9,,,,,8,,,53,0
3260,note_off,,,,,188,0,8,,,,,7,,,60,0
3260,note_off,,,,,92,0,2,,,,,1,,,75,0
3260,note_off,,,,,0,0,8,,,,,7,,,65,0
3264,note_on,,,,,4,0,7,,,,,6,,,46,65
3264,note_on,,,,,0,0,3,,,,,2,,,74,100
3264,note_on,,,,,4,0,5,,,,,4,,,65,92
3264,note_on,,,,,4,0,9,,,,,8,,,58,60
3264,note_off,,,,,96,0,3,,,,,2,,,75,0
3264,note_on,,,,,4,0,6,,,,,5,,,58,92
3264,note_on,,,,,0,0,4,,,,,3,,,70,108
3264,note_on,,,,,4,0,1,,,,,0,,,74,80
3264,note_on,,,,,4,0,2,,,,,1,,,74,77
3264,note_on,,,,,4,0,8,,,,,7,,,62,60
3264,note_on,,,,,0,0,8,,,,,7,,,70,60
3264,note_off,,,,,96,0,4,,,,,3,,,72,0
3264,note_on,,,,,0,0,8,,,,,7,,,65,60
3452,note_off,,,,,188,0,5,,,,,4,,,65,0
3452,note_off,,,,,188,0,7,,,,,6,,,46,0
3452,note_off,,,,,188,0,9,,,,,8,,,58,0
3452,note_off,,,,,188,0,6,,,,,5,,,58,0
3456,note_on,,,,,4,0,7,,,,,6,,,34,65
3456,note_on,,,,,4,0,5,,,,,4,,,70,92
3456,note_on,,,,,4,0,6,,,,,5,,,46,92
3456,note_on,,,,,4,0,9,,,,,8,,,46,60
3456,note_on,,,,,0,0,4,,,,,3,,,65,108
3456,note_off,,,,,192,0,4,,,,,3,,,70,0
3548,note_off,,,,,284,0,2,,,,,1,,,74,0
3548,note_off,,,,,284,0,1,,,,,0,,,74,0
3552,note_on,,,,,0,0,3,,,,,2,,,75,100
3552,note_off,,,,,288,0,3,,,,,2,,,74,0
3552,note_on,,,,,4,0,2,,,,,1,,,75,77
3552,note_on,,,,,4,0,1,,,,,0,,,75,80
3584,note_off,,,,,320,0,8,,,,,7,,,62,0
3584,note_off,,,,,0,0,8,,,,,7,,,65,0
3584,note_off,,,,,0,0,8,,,,,7,,,70,0
3644,note_off,,,,,188,0,9,,,,,8,,,46,0
3644,note_off,,,,,92,0,1,,,,,0,,,75,0
3644,note_off,,,,,188,0,7,,,,,6,,,34,0
3644,note_off,,,,,92,0,2,,,,,1,,,75,0
3644,note_off,,,,,188,0,6,,,,,5,,,46,0
3648,note_on,,,,,4,0,7,,,,,6,,,38,65
3648,note_on,,,,,4,0,2,,,,,1,,,77,77
3648,note_on,,,,,64,0,8,,,,,7,,,62,60
3648,note_on,,,,,4,0,9,,,,,8,,,50,60
3648,note_on,,,,,0,0,8,,,,,7,,,65,60
3648,note_on,,,,,0,0,8,,,,,7,,,70,60
3648,note_on,,,,,0,0,3,,,,,2,,,77,100
3648,note_on,,,,,4,0,1,,,,,0,,,77,80
3648,note_on,,,,,4,0,6,,,,,5,,,50,92
3648,note_off,,,,,96,0,3,,,,,2,,,75,0
3836,note_off,,,,,0,0,8,,,,,7,,,70,0
3836,note_off,,,,,188,0,7,,,,,6,,,38,0
3836,note_off,,,,,188,0,8,,,,,7,,,62,0
3836,note_off,,,,,188,0,9,,,,,8,,,50,0
3836,note_off,,,,,380,0,5,,,,,4,,,70,0
3836,note_off,,,,,188,0,2,,,,,1,,,77,0
3836,note_off,,,,,0,0,8,,,,,7,,,65,0
3836,note_off,,,,,188,0,6,,,,,5,,,50,0
3836,note_off,,,,,188,0,1,,,,,0,,,77,0
3840,note_on,,,,,4,0,2,,,,,1,,,72,77
3840,note_on,,,,,0,0,3,,,,,2,,,72,100
3840,note_on,,,,,4,0,9,,,,,8,,,53,60
3840,note_on,,,,,0,0,4,,,,,3,,,69,108
3840,note_off,,,,,384,0,4,,,,,3,,,65,0
3840,note_on,,,,,4,0,8,,,,,7,,,60,60
3840,note_on,,,,,0,0,8,,,,,7,,,65,60
3840,note_on,,,,,0,0,8,,,,,7,,,69,60
3840,note_off,,,,,192,0,3,,,,,2,,,77,0
3840,note_on,,,,,4,0,6,,,,,5,,,53,92
3840,note_on,,,,,4,0,7,,,,,6,,,41,65
3840,note_on,,,,,4,0,5,,,,,4,,,69,92
3840,note_on,,,,,4,0,1,,,,,0,,,72,80
3888,note_off,,,,,48,0,3,,,,,2,,,72,0
3888,note_on,,,,,0,0,3,,,,,2,,,74,100
3888,note_off,,,,,48,0,2,,,,,1,,,72,0
3888,note_on,,,,,0,0,2,,,,,1,,,74,77
3888,note_on,,,,,0,0,1,,,,,0,,,74,80
3888,note_off,,,,,48,0,4,,,,,3,,,69,0
3888,note_on,,,,,0,0,4,,,,,3,,,70,108
3888,note_off,,,,,48,0,1,,,,,0,,,72,0
3936,note_on,,,,,0,0,1,,,,,0,,,75,80
3936,note_off,,,,,48,0,2,,,,,1,,,74,0
3936,note_off,,,,,48,0,1,,,,,0,,,74,0
3936,note_on,,,,,0,0,4,,,,,3,,,72,108
3936,note_off,,,,,48,0,4,,,,,3,,,70,0
3936,note_on,,,,,0,0,3,,,,,2,,,75,100
3936,note_on,,,,,0,0,2,,,,,1,,,75,77
3936,note_off,,,,,48,0,3,,,,,2,,,74,0
4028,note_off,,,,,0,0,8,,,,,7,,,69,0
4028,note_off,,,,,92,0,2,,,,,1,,,75,0
4028,note_off,,,,,0,0,8,,,,,7,,,65,0
4028,note_off,,,,,188,0,8,,,,,7,,,60,0
4028,note_off,,,,,188,0,6,,,,,5,,,53,0
4028,note_off,,,,,188,0,5,,,,,4,,,69,0
4028,note_off,,,,,188,0,7,,,,,6,,,41,0
4028,note_off,,,,,92,0,1,,,,,0,,,75,0
4028,note_off,,,,,188,0,9,,,,,8,,,53,0
4032,note_on,,,,,4,0,1,,,,,0,,,74,80
4032,note_on,,,,,0,0,4,,,,,3,,,70,108
4032,note_on,,,,,0,0,3,,,,,2,,,74,100
4032,note_on,,,,,4,0,5,,,,,4,,,65,92
4032,note_on,,,,,4,0,2,,,,,1,,,74,77
4032,note_on,,,,,0,0,8,,,,,7,,,65,60
4032,note_off,,,,,96,0,4,,,,,3,,,72,0
4032,note_off,,,,,96,0,3,,,,,2,,,75,0
4032,note_on,,,,,0,0,8,,,,,7,,,70,60
4032,note_on,,,,,4,0,8,,,,,7,,,62,60
4032,note_on,,,,,4,0,6,,,,,5,,,58,92
4032,note_on,,,,,4,0,7,,,,,6,,,46,65
4032,note_on,,,,,4,0,9,,,,,8,,,58,60
4176,note_off,,,,,144,0,4,,,,,3,,,70,0
4176,note_on,,,,,0,0,4,,,,,3,,,65,108
4220,note_off,,,,,188,0,8,,,,,7,,,62,0
4220,note_off,,,,,188,0,9,,,,,8,,,58,0
4220,note_off,,,,,188,0,5,,,,,4,,,65,0
4220,note_off,,,,,188,0,1,,,,,0,,,74,0
4220,note_off,,,,,0,0,8,,,,,7,,,65,0
4220,note_off,,,,,0,0,8,,,,,7,,,70,0
4220,note_off,,,,,188,0,2,,,,,1,,,74,0
4220,note_off,,,,,188,0,7,,,,,6,,,46,0
4220,note_off,,,,,188,0,6,,,,,5,,,58,0
4224,note_off,,,,,192,0,3,,,,,2,,,74,0
4224,note_on,,,,,0,0,4,,,,,3,,,67,108
4224,note_on,,,,,4,0,5,,,,,4,,,63,92
4224,note_on,,,,,0,0,3,,,,,2,,,72,100
4224,note_off,,,,,48,0,4,,,,,3,,,65,0
4224,note_on,,,,,0,0,8,,,,,7,,,70,60
4224,note_on,,,,,4,0,8,,,,,7,,,62,60
4224,note_on,,,,,4,0,2,,,,,1,,,72,77
4224,note_on,,,,,4,0,9,,,,,8,,,51,60
4224,note_on,,,,,4,0,6,,,,,5,,,51,92
4224,note_on,,,,,4,0,1,,,,,0,,,72,80
4224,note_on,,,,,4,0,7,,,,,6,,,39,65
4224,note_on,,,,,0,0,8,,,,,7,,,65,60
4364,note_off,,,,,140,0,2,,,,,1,,,72,0
4364,note_off,,,,,140,0,1,,,,,0,,,72,0
4364,note_off,,,,,140,0,8,,,,,7,,,62,0
4364,note_off,,,,,140,0,6,,,,,5,,,51,0
4364,note_off,,,,,140,0,7,,,,,6,,,39,0
4364,note_off,,,,,140,0,9,,,,,8,,,51,0
4364,note_off,,,,,0,0,8,,,,,7,,,65,0
4364,note_off,,,,,0,0,8,,,,,7,,,70,0
4368,note_on,,,,,4,0,9,,,,,8,,,50,60
4368,note_on,,,,,4,0,2,,,,,1,,,70,77
4368,note_on,,,,,4,0,6,,,,,5,,,50,92
4368,note_off,,,,,144,0,4,,,,,3,,,67,0
4368,note_on,,,,,0,0,8,,,,,7,,,69,60
4368,note_on,,,,,4,0,8,,,,,7,,,63,60
4368,note_off,,,,,144,0,3,,,,,2,,,72,0
4368,note_on,,,,,0,0,3,,,,,2,,,70,100
4368,note_on,,,,,0,0,4,,,,,3,,,65,108
4368,note_on,,,,,4,0,7,,,,,6,,,38,65
4368,note_on,,,,,4,0,1,,,,,0,,,70,80
4412,note_off,,,,,44,0,2,,,,,1,,,70,0
4412,note_off,,,,,0,0,8,,,,,7,,,69,0
4412,note_off,,,,,44,0,9,,,,,8,,,50,0
4412,note_off,,,,,44,0,7,,,,,6,,,38,0
4412,note_off,,,,,188,0,5,,,,,4,,,63,0
4412,note_off,,,,,44,0,6,,,,,5,,,50,0
4412,note_off,,,,,44,0,8,,,,,7,,,63,0
4412,note_off,,,,,44,0,1,,,,,0,,,70,0
4416,note_on,,,,,4,0,9,,,,,8,,,48,60
4416,note_on,,,,,0,0,4,,,,,3,,,63,108
4416,note_on,,,,,4,0,2,,,,,1,,,69,77
4416,note_on,,,,,4,0,6,,,,,5,,,48,92
4416,note_off,,,,,48,0,4,,,,,3,,,65,0
4416,note_off,,,,,48,0,3,,,,,2,,,70,0
4416,note_on,,,,,0,0,3,,,,,2,,,69,100
4416,note_on,,,,,4,0,7,,,,,6,,,36,65
4416,note_on,,,,,4,0,8,,,,,7,,,62,60
4416,note_on,,,,,0,0,8,,,,,7,,,67,60
4416,note_on,,,,,4,0,1,,,,,0,,,69,80
4416,note_on,,,,,4,0,5,,,,,4,,,63,92
4512,note_off,,,,,96,0,2,,,,,1,,,69,0
4512,note_on,,,,,0,0,1,,,,,0,,,70,80
4512,note_off,,,,,96,0,1,,,,,0,,,69,0
4512,note_off,,,,,96,0,3,,,,,2,,,69,0
4512,note_on,,,,,0,0,3,,,,,2,,,70,100
4512,note_on,,,,,0,0,2,,,,,1,,,70,77
4604,note_off,,,,,188,0,5,,,,,4,,,63,0
4604,note_off,,,,,188,0,6,,,,,5,,,48,0
4604,note_off,,,,,188,0,9,,,,,8,,,48,0
4604,note_off,,,,,0,0,8,,,,,7,,,67,0
4604,note_off,,,,,188,0,8,,,,,7,,,62,0
4604,note_off,,,,,188,0,7,,,,,6,,,36,0
4608,note_on,,,,,0,0,8,,,,,7,,,69,60
4608,note_on,,,,,0,0,8,,,,,7,,,63,60
4608,note_on,,,,,4,0,8,,,,,7,,,60,60
4608,note_on,,,,,4,0,7,,,,,6,,,34,65
4608,note_on,,,,,0,0,3,,,,,2,,,72,100
4608,note_off,,,,,96,0,3,,,,,2,,,70,0
4608,note_on,,,,,4,0,5,,,,,4,,,65,92
4608,note_on,,,,,4,0,6,,,,,5,,,46,92
4608,note_on,,,,,0,0,4,,,,,3,,,62,108
4608,note_off,,,,,96,0,2,,,,,1,,,70,0
4608,note_on,,,,,4,0,9,,,,,8,,,46,60
4608,note_off,,,,,192,0,4,,,,,3,,,63,0
4608,note_off,,,,,96,0,1,,,,,0,,,70,0
4608,note_on,,,,,0,0,1,,,,,0,,,72,80
4608,note_on,,,,,0,0,2,,,,,1,,,72,77
4632,note_off,,,,,24,0,1,,,,,0,,,72,0
4632,note_on,,,,,0,0,1,,,,,0,,,70,80
4632,note_off,,,,,24,0,3,,,,,2,,,72,0
4632,note_off,,,,,24,0,2,,,,,1,,,72,0
4632,note_on,,,,,0,0,2,,,,,1,,,70,77
4632,note_on,,,,,0,0,3,,,,,2,,,70,100
4656,note_on,,,,,0,0,3,,,,,2,,,72,100
4656,note_on,,,,,0,0,1,,,,,0,,,72,80
4656,note_off,,,,,24,0,1,,,,,0,,,70,0
4656,note_off,,,,,24,0,3,,,,,2,,,70,0
4656,note_on,,,,,0,0,2,,,,,1,,,72,77
4656,note_off,,,,,24,0,2,,,,,1,,,70,0
4680,note_on,,,,,0,0,1,,,,,0,,,70,80
4680,note_off,,,,,24,0,3,,,,,2,,,72,0
4680,note_on,,,,,0,0,3,,,,,2,,,70,100
4680,note_off,,,,,24,0,1,,,,,0,,,72,0
4680,note_on,,,,,0,0,2,,,,,1,,,70,77
4680,note_off,,,,,24,0,2,,,,,1,,,72,0
4704,note_on,,,,,0,0,2,,,,,1,,,72,77
4704,note_on,,,,,0,0,1,,,,,0,,,72,80
4704,note_off,,,,,24,0,1,,,,,0,,,70,0
4704,note_off,,,,,24,0,2,,,,,1,,,70,0
4704,note_on,,,,,0,0,4,,,,,3,,,70,108
4704,note_off,,,,,96,0,4,,,,,3,,,62,0
4704,note_off,,,,,24,0,3,,,,,2,,,70,0
4704,note_on,,,,,0,0,3,,,,,2,,,72,100
4728,note_off,,,,,24,0,1,,,,,0,,,72,0
4728,note_on,,,,,0,0,1,,,,,0,,,70,80
4728,note_on,,,,,0,0,2,,,,,1,,,70,77
4728,note_off,,,,,24,0,2,,,,,1,,,72,0
4728,note_on,,,,,0,0,3,,,,,2,,,70,100
4728,note_off,,,,,24,0,3,,,,,2,,,72,0
4752,note_off,,,,,24,0,3,,,,,2,,,70,0
4752,note_on,,,,,0,0,3,,,,,2,,,69,100
4752,note_off,,,,,24,0,2,,,,,1,,,70,0
4752,note_on,,,,,0,0,2,,,,,1,,,69,77
4752,note_on,,,,,0,0,1,,,,,0,,,69,80
4752,note_off,,,,,24,0,1,,,,,0,,,70,0
4776,note_off,,,,,24,0,3,,,,,2,,,69,0
4776,note_on,,,,,0,0,3,,,,,2,,,70,100
4776,note_off,,,,,24,0,2,,,,,1,,,69,0
4776,note_on,,,,,0,0,2,,,,,1,,,70,77
4776,note_on,,,,,0,0,1,,,,,0,,,70,80
4776,note_off,,,,,24,0,1,,,,,0,,,69,0
4796,note_off,,,,,0,0,8,,,,,7,,,69,0
4796,note_off,,,,,0,0,8,,,,,7,,,63,0
4796,note_off,,,,,188,0,8,,,,,7,,,60,0
4796,note_off,,,,,20,0,2,,,,,1,,,70,0
4796,note_off,,,,,188,0,5,,,,,4,,,65,0
4796,note_off,,,,,188,0,7,,,,,6,,,34,0
4796,note_off,,,,,20,0,1,,,,,0,,,70,0
4796,note_off,,,,,188,0,9,,,,,8,,,46,0
4796,note_off,,,,,188,0,6,,,,,5,,,46,0
4800,note_on,,,,,0,0,4,,,,,3,,,69,108
4800,note_on,,,,,4,0,9,,,,,8,,,53,60
4800,note_off,,,,,24,0,3,,,,,2,,,70,0
4800,note_on,,,,,0,0,3,,,,,2,,,72,100
4800,note_off,,,,,96,0,4,,,,,3,,,70,0
4800,note_on,,,,,4,0,1,,,,,0,,,72,80
4800,note_on,,,,,4,0,5,,,,,4,,,65,92
4800,note_on,,,,,4,0,6,,,,,5,,,53,92
4800,note_on,,,,,4,0,2,,,,,1,,,72,77
4800,note_on,,,,,4,0,7,,,,,6,,,41,65
4800,note_on,,,,,0,0,8,,,,,7,,,69,60
4800,note_on,,,,,0,0,8,,,,,7,,,72,60
4800,note_on,,,,,4,0,8,,,,,7,,,65,60
4892,note_off,,,,,92,0,5,,,,,4,,,65,0
4896,note_on,,,,,4,0,5,,,,,4,,,57,92
4988,note_off,,,,,188,0,2,,,,,1,,,72,0
4988,note_off,,,,,188,0,9,,,,,8,,,53,0
4988,note_off,,,,,0,0,8,,,,,7,,,72,0
4988,note_off,,,,,0,0,8,,,,,7,,,69,0
4988,note_off,,,,,188,0,1,,,,,0,,,72,0
4988,note_off,,,,,188,0,7,,,,,6,,,41,0
4988,note_off,,,,,188,0,8,,,,,7,,,65,0
4988,note_off,,,,,188,0,6,,,,,5,,,53,0
4988,note_off,,,,,92,0,5,,,,,4,,,57,0
4992,note_on,,,,,4,0,5,,,,,4,,,58,92
4992,note_on,,,,,4,0,8,,,,,7,,,65,60
4992,note_on,,,,,0,0,8,,,,,7,,,70,60
4992,note_on,,,,,4,0,2,,,,,1,,,77,77
4992,note_on,,,,,0,0,4,,,,,3,,,65,108
4992,note_off,,,,,192,0,4,,,,,3,,,69,0
4992,note_on,,,,,4,0,7,,,,,6,,,38,65
4992,note_on,,,,,4,0,1,,,,,0,,,77,80
4992,note_on,,,,,0,0,3,,,,,2,,,77,100
4992,note_on,,,,,4,0,9,,,,,8,,,50,60
4992,note_on,,,,,4,0,6,,,,,5,,,50,92
4992,note_off,,,,,192,0,3,,,,,2,,,72,0
5084,note_off,,,,,92,0,2,,,,,1,,,77,0
5084,note_off,,,,,92,0,1,,,,,0,,,77,0
5088,note_on,,,,,4,0,1,,,,,0,,,70,80
5088,note_on,,,,,0,0,3,,,,,2,,,70,100
5088,note_on,,,,,4,0,2,,,,,1,,,70,77
5088,note_off,,,,,96,0,3,,,,,2,,,77,0
5180,note_off,,,,,188,0,8,,,,,7,,,65,0
5180,note_off,,,,,92,0,1,,,,,0,,,70,0
5180,note_off,,,,,188,0,9,,,,,8,,,50,0
5180,note_off,,,,,188,0,7,,,,,6,,,38,0
5180,note_off,,,,,188,0,6,,,,,5,,,50,0
5180,note_off,,,,,188,0,5,,,,,4,,,58,0
5180,note_off,,,,,0,0,8,,,,,7,,,70,0
5180,note_off,,,,,92,0,2,,,,,1,,,70,0
5184,note_on,,,,,4,0,8,,,,,7,,,63,60
5184,note_on,,,,,4,0,2,,,,,1,,,69,77
5184,note_on,,,,,4,0,9,,,,,8,,,48,60
5184,note_on,,,,,0,0,4,,,,,3,,,63,108
5184,note_off,,,,,192,0,4,,,,,3,,,65,0
5184,note_on,,,,,0,0,3,,,,,2,,,69,100
5184,note_off,,,,,96,0,3,,,,,2,,,70,0
5184,note_on,,,,,4,0,5,,,,,4,,,60,92
5184,note_on,,,,,4,0,1,,,,,0,,,69,80
5184,note_on,,,,,0,0,8,,,,,7,,,69,60
5184,note_on,,,,,4,0,6,,,,,5,,,48,92
5184,note_on,,,,,4,0,7,,,,,6,,,36,65
5372,note_off,,,,,0,0,8,,,,,7,,,69,0
5372,note_off,,,,,188,0,1,,,,,0,,,69,0
5372,note_off,,,,,188,0,8,,,,,7,,,63,0
5372,note_off,,,,,188,0,6,,,,,5,,,48,0
5372,note_off,,,,,188,0,5,,,,,4,,,60,0
5372,note_off,,,,,188,0,7,,,,,6,,,36,0
5372,note_off,,,,,188,0,9,,,,,8,,,48,0
5372,note_off,,,,,188,0,2,,,,,1,,,69,0
5376,note_on,,,,,4,0,6,,,,,5,,,46,92
5376,note_on,,,,,4,0,5,,,,,4,,,65,92
5376,note_on,,,,,4,0,1,,,,,0,,,70,80
5376,note_on,,,,,4,0,9,,,,,8,,,46,60
5376,note_on,,,,,0,0,3,,,,,2,,,70,100
5376,note_on,,,,,0,0,4,,,,,3,,,62,108
5376,note_on,,,,,4,0,7,,,,,6,,,34,65
5376,note_on,,,,,4,0,2,,,,,1,,,70,77
5376,note_on,,,,,0,0,8,,,,,7,,,70,60
5376,note_on,,,,,0,0,8,,,,,7,,,65,60
5376,note_on,,,,,4,0,8,,,,,7,,,62,60
5376,note_off,,,,,192,0,4,,,,,3,,,63,0
5376,note_off,,,,,192,0,3,,,,,2,,,69,0
5472,note_on,,,,,0,0,4,,,,,3,,,70,108
5472,note_off,,,,,96,0,4,,,,,3,,,62,0
5564,note_off,,,,,188,0,1,,,,,0,,,70,0
5564,note_off,,,,,188,0,5,,,,,4,,,65,0
5564,note_off,,,,,188,0,2,,,,,1,,,70,0
5564,note_off,,,,,0,0,8,,,,,7,,,70,0
5564,note_off,,,,,188,0,7,,,,,6,,,34,0
5564,note_off,,,,,0,0,8,,,,,7,,,65,0
5564,note_off,,,,,188,0,9,,,,,8,,,46,0
5564,note_off,,,,,188,0,8,,,,,7,,,62,0
5564,note_off,,,,,188,0,6,,,,,5,,,46,0
5568,note_on,,,,,4,0,9,,,,,8,,,53,60
5568,note_off,,,,,192,0,3,,,,,2,,,70,0
5568,note_on,,,,,0,0,3,,,,,2,,,72,100
5568,note_on,,,,,4,0,8,,,,,7,,,60,60
5568,note_on,,,,,4,0,2,,,,,1,,,72,77
5568,note_on,,,,,4,0,1,,,,,0,,,72,80
5568,note_on,,,,,4,0,5,,,,,4,,,65,92
5568,note_on,,,,,0,0,4,,,,,3,,,69,108
5568,note_on,,,,,4,0,7,,,,,6,,,41,65
5568,note_on,,,,,0,0,8,,,,,7,,,69,60
5568,note_on,,,,,0,0,8,,,,,7,,,65,60
5568,note_on,,,,,4,0,6,,,,,5,,,53,92
5568,note_off,,,,,96,0,4,,,,,3,,,70,0
5888,note_off,,,,,320,0,6,,,,,5,,,53,0
5888,note_off,,,,,320,0,2,,,,,1,,,72,0
5888,note_off,,,,,0,0,8,,,,,7,,,69,0
5888,note_off,,,,,320,0,8,,,,,7,,,60,0
5888,note_off,,,,,0,0,8,,,,,7,,,65,0
5888,note_off,,,,,320,0,1,,,,,0,,,72,0
5888,note_off,,,,,320,0,9,,,,,8,,,53,0
5888,note_off,,,,,320,0,7,,,,,6,,,41,0
5888,note_off,,,,,320,0,5,,,,,4,,,65,0
5952,note_off,,,,,384,0,4,,,,,3,,,69,0
5952,note_off,,,,,384,0,3,,,,,2,,,72,0
6144,note_on,,,,,256,0,2,,,,,1,,,77,37
6144,note_on,,,,,256,0,8,,,,,7,,,65,30
6144,note_on,,,,,0,0,8,,,,,7,,,68,30
6144,note_on,,,,,256,0,1,,,,,0,,,77,39
6144,note_on,,,,,256,0,6,,,,,5,,,62,45
6144,note_on,,,,,256,0,7,,,,,6,,,50,39
6144,note_on,,,,,192,0,3,,,,,2,,,77,49
6144,note_on,,,,,192,0,4,,,,,3,,,68,60
6144,note_on,,,,,256,0,9,,,,,8,,,62,30
6144,note_on,,,,,256,0,5,,,,,4,,,65,45
6332,note_off,,,,,188,0,6,,,,,5,,,62,0
6332,note_off,,,,,188,0,7,,,,,6,,,50,0
6332,note_off,,,,,188,0,9,,,,,8,,,62,0
6332,note_off,,,,,188,0,2,,,,,1,,,77,0
6332,note_off,,,,,0,0,8,,,,,7,,,68,0
6332,note_off,,,,,188,0,5,,,,,4,,,65,0
6332,note_off,,,,,188,0,8,,,,,7,,,65,0
6332,note_off,,,,,188,0,1,,,,,0,,,77,0
6336,note_on,,,,,4,0,9,,,,,8,,,59,30
6336,note_on,,,,,0,0,3,,,,,2,,,77,49
6336,note_on,,,,,0,0,4,,,,,3,,,62,60
6336,note_off,,,,,192,0,4,,,,,3,,,68,0
6336,note_on,,,,,4,0,5,,,,,4,,,65,45
6336,note_on,,,,,4,0,2,,,,,1,,,77,37
6336,note_on,,,,,4,0,6,,,,,5,,,59,45
6336,note_off,,,,,192,0,3,,,,,2,,,77,0
6336,note_on,,,,,4,0,1,,,,,0,,,77,39
6336,note_on,,,,,0,0,8,,,,,7,,,74,30
6336,note_on,,,,,0,0,8,,,,,7,,,68,30
6336,note_on,,,,,4,0,8,,,,,7,,,65,30
6336,note_on,,,,,4,0,7,,,,,6,,,47,39
6384,note_off,,,,,48,0,1,,,,,0,,,77,0
6384,note_on,,,,,0,0,1,,,,,0,,,79,39
6384,note_on,,,,,0,0,3,,,,,2,,,79,49
6384,note_off,,,,,48,0,3,,,,,2,,,77,0
6384,note_on,,,,,0,0,2,,,,,1,,,79,37
6384,note_off,,,,,48,0,2,,,,,1,,,77,0
6432,note_on,,,,,0,0,3,,,,,2,,,80,49
6432,note_off,,,,,48,0,3,,,,,2,,,79,0
6432,note_on,,,,,0,0,2,,,,,1,,,80,37
6432,note_off,,,,,48,0,1,,,,,0,,,79,0
6432,note_on,,,,,0,0,1,,,,,0,,,80,39
6432,note_off,,,,,48,0,2,,,,,1,,,79,0
6524,note_off,,,,,92,0,2,,,,,1,,,80,0
6524,note_off,,,,,92,0,1,,,,,0,,,80,0
6524,note_off,,,,,188,0,8,,,,,7,,,65,0
6524,note_off,,,,,0,0,8,,,,,7,,,68,0
6524,note_off,,,,,188,0,9,,,,,8,,,59,0
6524,note_off,,,,,188,0,5,,,,,4,,,65,0
6524,note_off,,,,,188,0,7,,,,,6,,,47,0
6524,note_off,,,,,188,0,6,,,,,5,,,59,0
6524,note_off,,,,,0,0,8,,,,,7,,,74,0
6528,note_on,,,,,4,0,7,,,,,6,,,47,39
6528,note_off,,,,,96,0,3,,,,,2,,,80,0
6528,note_on,,,,,4,0,6,,,,,5,,,59,45
6528,note_on,,,,,0,0,3,,,,,2,,,80,49
6528,note_on,,,,,4,0,5,,,,,4,,,65,45
6528,note_on,,,,,0,0,4,,,,,3,,,74,60
6528,note_on,,,,,0,0,8,,,,,7,,,74,30
6528,note_off,,,,,192,0,4,,,,,3,,,62,0
6528,note_on,,,,,4,0,2,,,,,1,,,80,37
6528,note_on,,,,,4,0,1,,,,,0,,,80,39
6528,note_on,,,,,0,0,8,,,,,7,,,68,30
6528,note_on,,,,,4,0,9,,,,,8,,,59,30
6528,note_on,,,,,4,0,8,,,,,7,,,65,30
6716,note_off,,,,,188,0,8,,,,,7,,,65,0
6716,note_off,,,,,188,0,6,,,,,5,,,59,0
6716,note_off,,,,,0,0,8,,,,,7,,,74,0
6716,note_off,,,,,188,0,7,,,,,6,,,47,0
6716,note_off,,,,,188,0,5,,,,,4,,,65,0
6716,note_off,,,,,188,0,9,,,,,8,,,59,0
6716,note_off,,,,,0,0,8,,,,,7,,,68,0
6720,note_on,,,,,4,0,9,,,,,8,,,59,30
6720,note_on,,,,,4,0,8,,,,,7,,,65,30
6720,note_on,,,,,4,0,5,,,,,4,,,65,45
6720,note_on,,,,,4,0,6,,,,,5,,,59,45
6720,note_on,,,,,0,0,8,,,,,7,,,68,30
6720,note_on,,,,,0,0,8,,,,,7,,,74,30
6720,note_off,,,,,192,0,4,,,,,3,,,74,0
6720,note_on,,,,,0,0,4,,,,,3,,,74,60
6720,note_on,,,,,4,0,7,,,,,6,,,47,39
6848,note_off,,,,,320,0,2,,,,,1,,,80,0
6848,note_off,,,,,320,0,1,,,,,0,,,80,0
6908,note_off,,,,,188,0,5,,,,,4,,,65,0
6908,note_off,,,,,188,0,8,,,,,7,,,65,0
6908,note_off,,,,,188,0,7,,,,,6,,,47,0
6908,note_off,,,,,0,0,8,,,,,7,,,68,0
6908,note_off,,,,,0,0,8,,,,,7,,,74,0
6908,note_off,,,,,188,0,6,,,,,5,,,59,0
6908,note_off,,,,,188,0,9,,,,,8,,,59,0
6912,note_on,,,,,4,0,8,,,,,7,,,65,30
6912,note_on,,,,,0,0,8,,,,,7,,,74,30
6912,note_on,,,,,4,0,9,,,,,8,,,59,30
6912,note_on,,,,,0,0,8,,,,,7,,,68,30
6912,note_on,,,,,4,0,6,,,,,5,,,59,45
6912,note_on,,,,,4,0,5,,,,,4,,,65,45
6912,note_on,,,,,64,0,2,,,,,1,,,79,37
6912,note_off,,,,,192,0,4,,,,,3,,,74,0
6912,note_on,,,,,0,0,4,,,,,3,,,74,60
6912,note_off,,,,,384,0,3,,,,,2,,,80,0
6912,note_on,,,,,0,0,3,,,,,2,,,79,49
6912,note_on,,,,,64,0,1,,,,,0,,,79,39
6912,note_on,,,,,4,0,7,,,,,6,,,47,39
7004,note_off,,,,,92,0,1,,,,,0,,,79,0
7004,note_off,,,,,92,0,2,,,,,1,,,79,0
7008,note_on,,,,,4,0,2,,,,,1,,,77,37
7008,note_on,,,,,0,0,3,,,,,2,,,77,49
7008,note_off,,,,,96,0,3,,,,,2,,,79,0
7008,note_on,,,,,4,0,1,,,,,0,,,77,39
7100,note_off,,,,,188,0,7,,,,,6,,,47,0
7100,note_off,,,,,188,0,5,,,,,4,,,65,0
7100,note_off,,,,,188,0,6,,,,,5,,,59,0
7100,note_off,,,,,0,0,8,,,,,7,,,74,0
7100,note_off,,,,,0,0,8,,,,,7,,,68,0
7100,note_off,,,,,188,0,8,,,,,7,,,65,0
7100,note_off,,,,,188,0,9,,,,,8,,,59,0
7100,note_off,,,,,92,0,2,,,,,1,,,77,0
7100,note_off,,,,,92,0,1,,,,,0,,,77,0
7104,note_on,,,,,0,0,4,,,,,3,,,72,60
7104,note_on,,,,,4,0,7,,,,,6,,,46,39
7104,note_on,,,,,0,0,8,,,,,7,,,72,30
7104,note_on,,,,,4,0,5,,,,,4,,,67,45
7104,note_on,,,,,4,0,6,,,,,5,,,58,45
7104,note_on,,,,,0,0,8,,,,,7,,,67,30
7104,note_on,,,,,4,0,8,,,,,7,,,64,30
7104,note_on,,,,,0,0,3,,,,,2,,,76,49
7104,note_on,,,,,4,0,9,,,,,8,,,58,30
7104,note_on,,,,,4,0,2,,,,,1,,,76,37
7104,note_on,,,,,4,0,1,,,,,0,,,76,39
7104,note_off,,,,,96,0,3,,,,,2,,,77,0
7104,note_off,,,,,192,0,4,,,,,3,,,74,0
7200,note_off,,,,,96,0,2,,,,,1,,,76,0
7200,note_on,,,,,0,0,1,,,,,0,,,77,39
7200,note_off,,,,,96,0,3,,,,,2,,,76,0
7200,note_on,,,,,0,0,3,,,,,2,,,77,49
7200,note_on,,,,,0,0,2,,,,,1,,,77,37
7200,note_off,,,,,96,0,1,,,,,0,,,76,0
7292,note_off,,,,,92,0,2,,,,,1,,,77,0
7292,note_off,,,,,0,0,8,,,,,7,,,67,0
7292,note_off,,,,,188,0,8,,,,,7,,,64,0
7292,note_off,,,,,188,0,6,,,,,5,,,58,0
7292,note_off,,,,,188,0,7,,,,,6,,,46,0
7292,note_off,,,,,0,0,8,,,,,7,,,72,0
7292,note_off,,,,,92,0,1,,,,,0,,,77,0
7292,note_off,,,,,188,0,9,,,,,8,,,58,0
7292,note_off,,,,,188,0,5,,,,,4,,,67,0
7296,note_off,,,,,192,0,4,,,,,3,,,72,0
7296,note_on,,,,,4,0,9,,,,,8,,,58,30
7296,note_on,,,,,4,0,6,,,,,5,,,58,45
7296,note_on,,,,,0,0,8,,,,,7,,,72,30
7296,note_on,,,,,0,0,8,,,,,7,,,67,30
7296,note_on,,,,,4,0,8,,,,,7,,,64,30
7296,note_on,,,,,0,0,4,,,,,3,,,72,60
7296,note_on,,,,,4,0,7,,,,,6,,,46,39
7296,note_on,,,,,4,0,2,,,,,1,,,76,37
7296,note_on,,,,,4,0,5,,,,,4,,,67,45
7296,note_on,,,,,4,0,1,,,,,0,,,76,39
7296,note_off,,,,,96,0,3,,,,,2,,,77,0
7296,note_on,,,,,0,0,3,,,,,2,,,76,49
7392,note_on,,,,,0,0,2,,,,,1,,,77,37
7392,note_off,,,,,96,0,1,,,,,0,,,76,0
7392,note_on,,,,,0,0,3,,,,,2,,,77,49
7392,note_off,,,,,96,0,2,,,,,1,,,76,0
7392,note_on,,,,,0,0,1,,,,,0,,,77,39
7392,note_off,,,,,96,0,3,,,,,2,,,76,0
7484,note_off,,,,,188,0,8,,,,,7,,,64,0
7484,note_off,,,,,92,0,1,,,,,0,,,77,0
7484,note_off,,,,,0,0,8,,,,,7,,,72,0
7484,note_off,,,,,188,0,6,,,,,5,,,58,0
7484,note_off,,,,,92,0,2,,,,,1,,,77,0
7484,note_off,,,,,188,0,9,,,,,8,,,58,0
7484,note_off,,,,,188,0,5,,,,,4,,,67,0
7484,note_off,,,,,188,0,7,,,,,6,,,46,0
7484,note_off,,,,,0,0,8,,,,,7,,,67,0
7488,note_on,,,,,4,0,2,,,,,1,,,76,37
7488,note_on,,,,,0,0,3,,,,,2,,,76,49
7488,note_on,,,,,0,0,8,,,,,7,,,67,30
7488,note_on,,,,,4,0,8,,,,,7,,,64,30
7488,note_off,,,,,96,0,3,,,,,2,,,77,0
7488,note_on,,,,,4,0,5,,,,,4,,,67,45
7488,note_on,,,,,4,0,1,,,,,0,,,76,39
7488,note_on,,,,,0,0,4,,,,,3,,,72,60
7488,note_on,,,,,4,0,9,,,,,8,,,58,30
7488,note_on,,,,,4,0,6,,,,,5,,,58,45
7488,note_on,,,,,4,0,7,,,,,6,,,46,39
7488,note_on,,,,,0,0,8,,,,,7,,,72,30
7488,note_off,,,,,192,0,4,,,,,3,,,72,0
7584,note_off,,,,,96,0,3,,,,,2,,,76,0
7584,note_on,,,,,0,0,3,,,,,2,,,77,49
7584,note_off,,,,,96,0,2,,,,,1,,,76,0
7584,note_on,,,,,0,0,1,,,,,0,,,77,39
7584,note_off,,,,,96,0,1,,,,,0,,,76,0
7584,note_on,,,,,0,0,2,,,,,1,,,77,37
7676,note_off,,,,,92,0,1,,,,,0,,,77,0
7676,note_off,,,,,188,0,7,,,,,6,,,46,0
7676,note_off,,,,,0,0,8,,,,,7,,,72,0
7676,note_off,,,,,0,0,8,,,,,7,,,67,0
7676,note_off,,,,,188,0,6,,,,,5,,,58,0
7676,note_off,,,,,188,0,8,,,,,7,,,64,0
7676,note_off,,,,,92,0,2,,,,,1,,,77,0
7676,note_off,,,,,188,0,9,,,,,8,,,58,0
7676,note_off,,,,,188,0,5,,,,,4,,,67,0
7680,note_on,,,,,4,0,8,,,,,7,,,64,30
7680,note_on,,,,,4,0,5,,,,,4,,,67,45
7680,note_on,,,,,4,0,1,,,,,0,,,76,39
7680,note_on,,,,,0,0,8,,,,,7,,,67,30
7680,note_on,,,,,4,0,6,,,,,5,,,58,45
7680,note_off,,,,,192,0,4,,,,,3,,,72,0
7680,note_on,,,,,0,0,4,,,,,3,,,72,60
7680,note_on,,,,,4,0,7,,,,,6,,,46,39
7680,note_on,,,,,4,0,9,,,,,8,,,58,30
7680,note_on,,,,,0,0,8,,,,,7,,,72,30
7680,note_on,,,,,4,0,2,,,,,1,,,76,37
7680,note_off,,,,,96,0,3,,,,,2,,,77,0
7680,note_on,,,,,0,0,3,,,,,2,,,76,49
7776,note_on,,,,,0,0,2,,,,,1,,,77,37
7776,note_off,,,,,96,0,2,,,,,1,,,76,0
7776,note_on,,,,,0,0,1,,,,,0,,,77,39
7776,note_off,,,,,96,0,1,,,,,0,,,76,0
7776,note_off,,,,,96,0,3,,,,,2,,,76,0
7776,note_on,,,,,0,0,3,,,,,2,,,77,49
7868,note_off,,,,,0,0,8,,,,,7,,,72,0
7868,note_off,,,,,188,0,7,,,,,6,,,46,0
7868,note_off,,,,,92,0,2,,,,,1,,,77,0
7868,note_off,,,,,188,0,5,,,,,4,,,67,0
7868,note_off,,,,,188,0,9,,,,,8,,,58,0
7868,note_off,,,,,92,0,1,,,,,0,,,77,0
7868,note_off,,,,,188,0,6,,,,,5,,,58,0
7868,note_off,,,,,0,0,8,,,,,7,,,67,0
7868,note_off,,,,,188,0,8,,,,,7,,,64,0
7872,note_on,,,,,4,0,7,,,,,6,,,46,39
7872,note_on,,,,,4,0,2,,,,,1,,,76,37
7872,note_on,,,,,0,0,8,,,,,7,,,67,30
7872,note_on,,,,,0,0,8,,,,,7,,,72,30
7872,note_on,,,,,4,0,9,,,,,8,,,58,30
7872,note_on,,,,,4,0,8,,,,,7,,,64,30
7872,note_off,,,,,192,0,4,,,,,3,,,72,0
7872,note_off,,,,,96,0,3,,,,,2,,,77,0
7872,note_on,,,,,0,0,4,,,,,3,,,67,60
7872,note_on,,,,,4,0,6,,,,,5,,,58,45
7872,note_on,,,,,0,0,3,,,,,2,,,76,49
7872,note_on,,,,,4,0,5,,,,,4,,,60,45
7872,note_on,,,,,4,0,1,,,,,0,,,76,39
7920,note_off,,,,,48,0,1,,,,,0,,,76,0
7920,note_on,,,,,0,0,1,,,,,0,,,77,39
7920,note_on,,,,,0,0,3,,,,,2,,,77,49
7920,note_off,,,,,48,0,3,,,,,2,,,76,0
7920,note_off,,,,,48,0,2,,,,,1,,,76,0
7920,note_on,,,,,0,0,2,,,,,1,,,77,37
7968,note_on,,,,,0,0,2,,,,,1,,,79,37
7968,note_off,,,,,48,0,3,,,,,2,,,77,0
7968,note_on,,,,,0,0,3,,,,,2,,,79,49
7968,note_on,,,,,0,0,1,,,,,0,,,79,39
7968,note_off,,,,,48,0,1,,,,,0,,,77,0
7968,note_off,,,,,48,0,2,,,,,1,,,77,0
8060,note_off,,,,,0,0,8,,,,,7,,,72,0
8060,note_off,,,,,0,0,8,,,,,7,,,67,0
8060,note_off,,,,,188,0,7,,,,,6,,,46,0
8060,note_off,,,,,92,0,1,,,,,0,,,79,0
8060,note_off,,,,,188,0,6,,,,,5,,,58,0
8060,note_off,,,,,92,0,2,,,,,1,,,79,0
8060,note_off,,,,,188,0,9,,,,,8,,,58,0
8060,note_off,,,,,188,0,8,,,,,7,,,64,0
8060,note_off,,,,,188,0,5,,,,,4,,,60,0
8064,note_on,,,,,4,0,6,,,,,5,,,58,45
8064,note_on,,,,,4,0,8,,,,,7,,,64,30
8064,note_on,,,,,0,0,8,,,,,7,,,67,30
8064,note_on,,,,,0,0,8,,,,,7,,,72,30
8064,note_on,,,,,4,0,2,,,,,1,,,79,37
8064,note_off,,,,,192,0,4,,,,,3,,,67,0
8064,note_on,,,,,4,0,9,,,,,8,,,58,30
8064,note_on,,,,,0,0,4,,,,,3,,,67,60
8064,note_on,,,,,4,0,5,,,,,4,,,60,45
8064,note_on,,,,,4,0,7,,,,,6,,,46,39
8064,note_off,,,,,96,0,3,,,,,2,,,79,0
8064,note_on,,,,,0,0,3,,,,,2,,,79,49
8064,note_on,,,,,4,0,1,,,,,0,,,79,39
8252,note_off,,,,,0,0,8,,,,,7,,,67,0
8252,note_off,,,,,188,0,5,,,,,4,,,60,0
8252,note_off,,,,,188,0,8,,,,,7,,,64,0
8252,note_off,,,,,188,0,6,,,,,5,,,58,0
8252,note_off,,,,,0,0,8,,,,,7,,,72,0
8252,note_off,,,,,188,0,9,,,,,8,,,58,0
8252,note_off,,,,,188,0,7,,,,,6,,,46,0
8256,note_on,,,,,4,0,6,,,,,5,,,58,45
8256,note_on,,,,,0,0,4,,,,,3,,,67,60
8256,note_on,,,,,4,0,9,,,,,8,,,58,30
8256,note_on,,,,,4,0,7,,,,,6,,,46,39
8256,note_on,,,,,0,0,8,,,,,7,,,72,30
8256,note_on,,,,,0,0,8,,,,,7,,,67,30
8256,note_on,,,,,4,0,8,,,,,7,,,64,30
8256,note_on,,,,,4,0,5,,,,,4,,,60,45
8256,note_off,,,,,192,0,4,,,,,3,,,67,0
8384,note_off,,,,,320,0,1,,,,,0,,,79,0
8384,note_off,,,,,320,0,2,,,,,1,,,79,0
8444,note_off,,,,,188,0,5,,,,,4,,,60,0
8444,note_off,,,,,188,0,6,,,,,5,,,58,0
8444,note_off,,,,,188,0,7,,,,,6,,,46,0
8444,note_off,,,,,188,0,9,,,,,8,,,58,0
8444,note_off,,,,,0,0,8,,,,,7,,,67,0
8444,note_off,,,,,188,0,8,,,,,7,,,64,0
8444,note_off,,,,,0,0,8,,,,,7,,,72,0
8448,note_on,,,,,0,0,8,,,,,7,,,67,30
8448,note_on,,,,,0,0,8,,,,,7,,,72,30
8448,note_on,,,,,4,0,8,,,,,7,,,64,30
8448,note_on,,,,,64,0,1,,,,,0,,,76,39
8448,note_on,,,,,4,0,7,,,,,6,,,46,39
8448,note_on,,,,,4,0,9,,,,,8,,,58,30
8448,note_on,,,,,0,0,3,,,,,2,,,76,49
8448,note_off,,,,,384,0,3,,,,,2,,,79,0
8448,note_on,,,,,4,0,5,,,,,4,,,60,45
8448,note_on,,,,,64,0,2,,,,,1,,,76,37
8448,note_off,,,,,192,0,4,,,,,3,,,67,0
8448,note_on,,,,,4,0,6,,,,,5,,,58,45
8448,note_on,,,,,0,0,4,,,,,3,,,67,60
8540,note_off,,,,,92,0,1,,,,,0,,,76,0
8540,note_off,,,,,92,0,2,,,,,1,,,76,0
8544,note_off,,,,,96,0,3,,,,,2,,,76,0
8544,note_on,,,,,0,0,3,,,,,2,,,74,49
8544,note_on,,,,,4,0,1,,,,,0,,,74,39
8544,note_on,,,,,4,0,2,,,,,1,,,74,37
8636,note_off,,,,,188,0,5,,,,,4,,,60,0
8636,note_off,,,,,188,0,9,,,,,8,,,58,0
8636,note_off,,,,,92,0,1,,,,,0,,,74,0
8636,note_off,,,,,92,0,2,,,,,1,,,74,0
8636,note_off,,,,,188,0,6,,,,,5,,,58,0
8636,note_off,,,,,188,0,8,,,,,7,,,64,0
8636,note_off,,,,,188,0,7,,,,,6,,,46,0
8636,note_off,,,,,0,0,8,,,,,7,,,72,0
8636,note_off,,,,,0,0,8,,,,,7,,,67,0
8640,note_on,,,,,0,0,3,,,,,2,,,73,49
8640,note_off,,,,,96,0,3,,,,,2,,,74,0
8640,note_on,,,,,0,0,8,,,,,7,,,73,30
8640,note_on,,,,,0,0,4,,,,,3,,,67,60
8640,note_on,,,,,4,0,1,,,,,0,,,73,39
8640,note_on,,,,,0,0,8,,,,,7,,,67,30
8640,note_on,,,,,4,0,2,,,,,1,,,73,37
8640,note_on,,,,,4,0,5,,,,,4,,,64,45
8640,note_on,,,,,4,0,6,,,,,5,,,58,45
8640,note_on,,,,,4,0,8,,,,,7,,,64,30
8640,note_off,,,,,192,0,4,,,,,3,,,67,0
8640,note_on,,,,,4,0,9,,,,,8,,,58,30
8640,note_on,,,,,4,0,7,,,,,6,,,46,39
8736,note_on,,,,,0,0,1,,,,,0,,,74,39
8736,note_off,,,,,96,0,3,,,,,2,,,73,0
8736,note_on,,,,,0,0,3,,,,,2,,,74,49
8736,note_off,,,,,96,0,1,,,,,0,,,73,0
8736,note_on,,,,,0,0,2,,,,,1,,,74,37
8736,note_off,,,,,96,0,2,,,,,1,,,73,0
8828,note_off,,,,,188,0,9,,,,,8,,,58,0
8828,note_off,,,,,188,0,7,,,,,6,,,46,0
8828,note_off,,,,,0,0,8,,,,,7,,,67,0
8828,note_off,,,,,92,0,1,,,,,0,,,74,0
8828,note_off,,,,,92,0,2,,,,,1,,,74,0
8828,note_off,,,,,188,0,5,,,,,4,,,64,0
8828,note_off,,,,,188,0,8,,,,,7,,,64,0
8828,note_off,,,,,188,0,6,,,,,5,,,58,0
8828,note_off,,,,,0,0,8,,,,,7,,,73,0
8832,note_on,,,,,4,0,9,,,,,8,,,58,30
8832,note_off,,,,,96,0,3,,,,,2,,,74,0
8832,note_on,,,,,4,0,5,,,,,4,,,64,45
8832,note_on,,,,,0,0,3,,,,,2,,,73,49
8832,note_on,,,,,4,0,1,,,,,0,,,73,39
8832,note_on,,,,,0,0,8,,,,,7,,,67,30
8832,note_on,,,,,4,0,2,,,,,1,,,73,37
8832,note_on,,,,,4,0,6,,,,,5,,,58,45
8832,note_on,,,,,4,0,7,,,,,6,,,46,39
8832,note_on,,,,,4,0,8,,,,,7,,,64,30
8832,note_on,,,,,0,0,4,,,,,3,,,67,60
8832,note_off,,,,,192,0,4,,,,,3,,,67,0
8832,note_on,,,,,0,0,8,,,,,7,,,73,30
8928,note_off,,,,,96,0,1,,,,,0,,,73,0
8928,note_off,,,,,96,0,2,,,,,1,,,73,0
8928,note_off,,,,,96,0,3,,,,,2,,,73,0
8928,note_on,,,,,0,0,2,,,,,1,,,74,37
8928,note_on,,,,,0,0,1,,,,,0,,,74,39
8928,note_on,,,,,0,0,3,,,,,2,,,74,49
9020,note_off,,,,,188,0,9,,,,,8,,,58,0
9020,note_off,,,,,188,0,7,,,,,6,,,46,0
9020,note_off,,,,,0,0,8,,,,,7,,,73,0
9020,note_off,,,,,188,0,8,,,,,7,,,64,0
9020,note_off,,,,,188,0,5,,,,,4,,,64,0
9020,note_off,,,,,92,0,2,,,,,1,,,74,0
9020,note_off,,,,,188,0,6,,,,,5,,,58,0
9020,note_off,,,,,0,0,8,,,,,7,,,67,0
9020,note_off,,,,,92,0,1,,,,,0,,,74,0
9024,note_off,,,,,192,0,4,,,,,3,,,67,0
9024,note_on,,,,,0,0,4,,,,,3,,,67,60
9024,note_on,,,,,4,0,7,,,,,6,,,46,39
9024,note_on,,,,,4,0,2,,,,,1,,,73,37
9024,note_on,,,,,4,0,6,,,,,5,,,58,45
9024,note_on,,,,,4,0,1,,,,,0,,,73,39
9024,note_off,,,,,96,0,3,,,,,2,,,74,0
9024,note_on,,,,,0,0,8,,,,,7,,,73,30
9024,note_on,,,,,0,0,8,,,,,7,,,67,30
9024,note_on,,,,,4,0,8,,,,,7,,,64,30
9024,note_on,,,,,4,0,9,,,,,8,,,58,30
9024,note_on,,,,,4,0,5,,,,,4,,,64,45
9024,note_on,,,,,0,0,3,,,,,2,,,73,49
9120,note_on,,,,,0,0,2,,,,,1,,,74,37
9120,note_off,,,,,96,0,3,,,,,2,,,73,0
9120,note_on,,,,,0,0,3,,,,,2,,,74,49
9120,note_off,,,,,96,0,1,,,,,0,,,73,0
9120,note_on,,,,,0,0,1,,,,,0,,,74,39
9120,note_off,,,,,96,0,2,,,,,1,,,73,0
9212,note_off,,,,,188,0,8,,,,,7,,,64,0
9212,note_off,,,,,0,0,8,,,,,7,,,67,0
9212,note_off,,,,,0,0,8,,,,,7,,,73,0
9212,note_off,,,,,188,0,6,,,,,5,,,58,0
9212,note_off,,,,,188,0,9,,,,,8,,,58,0
9212,note_off,,,,,92,0,2,,,,,1,,,74,0
9212,note_off,,,,,92,0,1,,,,,0,,,74,0
9212,note_off,,,,,188,0,7,,,,,6,,,46,0
9212,note_off,,,,,188,0,5,,,,,4,,,64,0
9216,note_on,,,,,0,0,4,,,,,3,,,67,60
9216,note_on,,,,,4,0,2,,,,,1,,,73,37
9216,note_on,,,,,4,0,7,,,,,6,,,46,39
9216,note_off,,,,,192,0,4,,,,,3,,,67,0
9216,note_on,,,,,4,0,1,,,,,0,,,73,39
9216,note_off,,,,,96,0,3,,,,,2,,,74,0
9216,note_on,,,,,0,0,3,,,,,2,,,73,49
9216,note_on,,,,,4,0,8,,,,,7,,,64,30
9216,note_on,,,,,0,0,8,,,,,7,,,67,30
9216,note_on,,,,,0,0,8,,,,,7,,,73,30
9216,note_on,,,,,4,0,6,,,,,5,,,58,45
9216,note_on,,,,,4,0,9,,,,,8,,,58,30
9216,note_on,,,,,4,0,5,,,,,4,,,64,45
9312,note_on,,,,,0,0,3,,,,,2,,,74,49
9312,note_off,,,,,96,0,1,,,,,0,,,73,0
9312,note_on,,,,,0,0,1,,,,,0,,,74,39
9312,note_off,,,,,96,0,2,,,,,1,,,73,0
9312,note_on,,,,,0,0,2,,,,,1,,,74,37
9312,note_off,,,,,96,0,3,,,,,2,,,73,0
9404,note_off,,,,,188,0,8,,,,,7,,,64,0
9404,note_off,,,,,188,0,7,,,,,6,,,46,0
9404,note_off,,,,,188,0,9,,,,,8,,,58,0
9404,note_off,,,,,92,0,2,,,,,1,,,74,0
9404,note_off,,,,,0,0,8,,,,,7,,,67,0
9404,note_off,,,,,92,0,1,,,,,0,,,74,0
9404,note_off,,,,,188,0,6,,,,,5,,,58,0
9404,note_off,,,,,188,0,5,,,,,4,,,64,0
9404,note_off,,,,,0,0,8,,,,,7,,,73,0
9408,note_on,,,,,0,0,8,,,,,7,,,69,30
9408,note_on,,,,,4,0,1,,,,,0,,,74,39
9408,note_on,,,,,0,0,8,,,,,7,,,74,30
9408,note_on,,,,,0,0,3,,,,,2,,,74,49
9408,note_on,,,,,4,0,9,,,,,8,,,57,30
9408,note_on,,,,,4,0,6,,,,,5,,,57,45
9408,note_on,,,,,4,0,7,,,,,6,,,45,39
9408,note_on,,,,,4,0,5,,,,,4,,,62,45
9408,note_on,,,,,4,0,2,,,,,1,,,74,37
9408,note_on,,,,,0,0,4,,,,,3,,,65,60
9408,note_off,,,,,192,0,4,,,,,3,,,67,0
9408,note_on,,,,,4,0,8,,,,,7,,,65,30
9408,note_off,,,,,96,0,3,,,,,2,,,74,0
9456,note_on,,,,,0,0,3,,,,,2,,,75,49
9456,note_off,,,,,48,0,3,,,,,2,,,74,0
9456,note_off,,,,,48,0,1,,,,,0,,,74,0
9456,note_on,,,,,0,0,1,,,,,0,,,75,39
9456,note_off,,,,,48,0,2,,,,,1,,,74,0
9456,note_on,,,,,0,0,2,,,,,1,,,75,37
9504,note_on,,,,,0,0,2,,,,,1,,,77,37
9504,note_off,,,,,48,0,1,,,,,0,,,75,0
9504,note_on,,,,,0,0,1,,,,,0,,,77,39
9504,note_off,,,,,48,0,2,,,,,1,,,75,0
9504,note_on,,,,,0,0,3,,,,,2,,,77,49
9504,note_off,,,,,48,0,3,,,,,2,,,75,0
9596,note_off,,,,,0,0,8,,,,,7,,,69,0
9596,note_off,,,,,188,0,8,,,,,7,,,65,0
9596,note_off,,,,,0,0,8,,,,,7,,,74,0
9596,note_off,,,,,92,0,2,,,,,1,,,77,0
9596,note_off,,,,,188,0,9,,,,,8,,,57,0
9596,note_off,,,,,188,0,5,,,,,4,,,62,0
9596,note_off,,,,,188,0,7,,,,,6,,,45,0
9596,note_off,,,,,92,0,1,,,,,0,,,77,0
9596,note_off,,,,,188,0,6,,,,,5,,,57,0
9600,note_on,,,,,0,0,3,,,,,2,,,77,49
9600,note_off,,,,,96,0,3,,,,,2,,,77,0
9600,note_on,,,,,4,0,7,,,,,6,,,45,39
9600,note_on,,,,,4,0,1,,,,,0,,,77,39
9600,note_on,,,,,4,0,8,,,,,7,,,65,30
9600,note_on,,,,,0,0,8,,,,,7,,,69,30
9600,note_on,,,,,0,0,8,,,,,7,,,74,30
9600,note_on,,,,,4,0,6,,,,,5,,,57,45
9600,note_on,,,,,4,0,2,,,,,1,,,77,37
9600,note_on,,,,,4,0,9,,,,,8,,,57,30
9600,note_on,,,,,0,0,4,,,,,3,,,65,60
9600,note_on,,,,,4,0,5,,,,,4,,,62,45
9600,note_off,,,,,192,0,4,,,,,3,,,65,0
9788,note_off,,,,,188,0,9,,,,,8,,,57,0
9788,note_off,,,,,0,0,8,,,,,7,,,74,0
9788,note_off,,,,,0,0,8,,,,,7,,,69,0
9788,note_off,,,,,188,0,8,,,,,7,,,65,0
9788,note_off,,,,,188,0,6,,,,,5,,,57,0
9788,note_off,,,,,188,0,5,,,,,4,,,62,0
9788,note_off,,,,,188,0,7,,,,,6,,,45,0
9792,note_on,,,,,0,0,4,,,,,3,,,65,60
9792,note_on,,,,,0,0,8,,,,,7,,,74,30
9792,note_on,,,,,0,0,8,,,,,7,,,69,30
9792,note_on,,,,,4,0,8,,,,,7,,,65,30
9792,note_on,,,,,4,0,5,,,,,4,,,62,45
9792,note_off,,,,,192,0,4,,,,,3,,,65,0
9792,note_on,,,,,4,0,7,,,,,6,,,45,39
9792,note_on,,,,,4,0,9,,,,,8,,,57,30
9792,note_on,,,,,4,0,6,,,,,5,,,57,45
9920,note_off,,,,,320,0,2,,,,,1,,,77,0
9920,note_off,,,,,320,0,1,,,,,0,,,77,0
9980,note_off,,,,,188,0,8,,,,,7,,,65,0
9980,note_off,,,,,188,0,6,,,,,5,,,57,0
9980,note_off,,,,,0,0,8,,,,,7,,,74,0
9980,note_off,,,,,188,0,7,,,,,6,,,45,0
9980,note_off,,,,,188,0,5,,,,,4,,,62,0
9980,note_off,,,,,0,0,8,,,,,7,,,69,0
9980,note_off,,,,,188,0,9,,,,,8,,,57,0
9984,note_on,,,,,64,0,1,,,,,0,,,74,39
9984,note_on,,,,,4,0,5,,,,,4,,,62,45
9984,note_on,,,,,0,0,4,,,,,3,,,65,60
9984,note_off,,,,,192,0,4,,,,,3,,,65,0
9984,note_off,,,,,384,0,3,,,,,2,,,77,0
9984,note_on,,,,,0,0,3,,,,,2,,,74,49
9984,note_on,,,,,0,0,8,,,,,7,,,69,30
9984,note_on,,,,,4,0,6,,,,,5,,,57,45
9984,note_on,,,,,4,0,8,,,,,7,,,62,30
9984,note_on,,,,,64,0,2,,,,,1,,,74,37
9984,note_on,,,,,4,0,9,,,,,8,,,57,30
9984,note_on,,,,,0,0,8,,,,,7,,,65,30
9984,note_on,,,,,4,0,7,,,,,6,,,45,39
10076,note_off,,,,,92,0,2,,,,,1,,,74,0
10076,note_off,,,,,92,0,1,,,,,0,,,74,0
10080,note_on,,,,,0,0,3,,,,,2,,,72,49
10080,note_on,,,,,4,0,1,,,,,0,,,72,39
10080,note_off,,,,,96,0,3,,,,,2,,,74,0
10080,note_on,,,,,4,0,2,,,,,1,,,72,37
10172,note_off,,,,,188,0,8,,,,,7,,,62,0
10172,note_off,,,,,0,0,8,,,,,7,,,65,0
10172,note_off,,,,,92,0,2,,,,,1,,,72,0
10172,note_off,,,,,188,0,5,,,,,4,,,62,0
10172,note_off,,,,,188,0,6,,,,,5,,,57,0
10172,note_off,,,,,0,0,8,,,,,7,,,69,0
10172,note_off,,,,,92,0,1,,,,,0,,,72,0
10172,note_off,,,,,188,0,9,,,,,8,,,57,0
10172,note_off,,,,,188,0,7,,,,,6,,,45,0
10176,note_off,,,,,192,0,4,,,,,3,,,65,0
10176,note_on,,,,,4,0,1,,,,,0,,,71,39
10176,note_on,,,,,4,0,2,,,,,1,,,71,37
10176,note_on,,,,,0,0,3,,,,,2,,,71,49
10176,note_off,,,,,96,0,3,,,,,2,,,72,0
10176,note_on,,,,,4,0,9,,,,,8,,,56,30
10176,note_on,,,,,4,0,8,,,,,7,,,62,30
10176,note_on,,,,,0,0,8,,,,,7,,,71,30
10176,note_on,,,,,0,0,8,,,,,7,,,65,30
10176,note_on,,,,,4,0,5,,,,,4,,,62,45
10176,note_on,,,,,0,0,4,,,,,3,,,65,60
10176,note_on,,,,,4,0,7,,,,,6,,,44,39
10176,note_on,,,,,4,0,6,,,,,5,,,56,45
10272,note_on,,,,,0,0,1,,,,,0,,,72,39
10272,note_off,,,,,96,0,1,,,,,0,,,71,0
10272,note_on,,,,,0,0,2,,,,,1,,,72,37
10272,note_on,,,,,0,0,3,,,,,2,,,72,49
10272,note_off,,,,,96,0,2,,,,,1,,,71,0
10272,note_off,,,,,96,0,3,,,,,2,,,71,0
10364,note_off,,,,,0,0,8,,,,,7,,,65,0
10364,note_off,,,,,188,0,7,,,,,6,,,44,0
10364,note_off,,,,,188,0,6,,,,,5,,,56,0
10364,note_off,,,,,188,0,9,,,,,8,,,56,0
10364,note_off,,,,,92,0,2,,,,,1,,,72,0
10364,note_off,,,,,92,0,1,,,,,0,,,72,0
10364,note_off,,,,,188,0,8,,,,,7,,,62,0
10364,note_off,,,,,0,0,8,,,,,7,,,71,0
10364,note_off,,,,,188,0,5,,,,,4,,,62,0
10368,note_on,,,,,4,0,2,,,,,1,,,71,37
10368,note_on,,,,,4,0,8,,,,,7,,,62,30
10368,note_on,,,,,0,0,8,,,,,7,,,65,30
10368,note_on,,,,,0,0,8,,,,,7,,,71,30
10368,note_on,,,,,4,0,6,,,,,5,,,56,45
10368,note_on,,,,,0,0,4,,,,,3,,,65,60
10368,note_off,,,,,192,0,4,,,,,3,,,65,0
10368,note_on,,,,,4,0,7,,,,,6,,,44,39
10368,note_on,,,,,4,0,9,,,,,8,,,56,30
10368,note_off,,,,,96,0,3,,,,,2,,,72,0
10368,note_on,,,,,0,0,3,,,,,2,,,71,49
10368,note_on,,,,,4,0,5,,,,,4,,,62,45
10368,note_on,,,,,4,0,1,,,,,0,,,71,39
10464,note_on,,,,,0,0,1,,,,,0,,,72,39
10464,note_off,,,,,96,0,1,,,,,0,,,71,0
10464,note_off,,,,,96,0,3,,,,,2,,,71,0
10464,note_on,,,,,0,0,3,,,,,2,,,72,49
10464,note_off,,,,,96,0,2,,,,,1,,,71,0
10464,note_on,,,,,0,0,2,,,,,1,,,72,37
10556,note_off,,,,,188,0,5,,,,,4,,,62,0
10556,note_off,,,,,92,0,1,,,,,0,,,72,0
10556,note_off,,,,,188,0,9,,,,,8,,,56,0
10556,note_off,,,,,188,0,6,,,,,5,,,56,0
10556,note_off,,,,,92,0,2,,,,,1,,,72,0
10556,note_off,,,,,188,0,7,,,,,6,,,44,0
10556,note_off,,,,,0,0,8,,,,,7,,,71,0
10556,note_off,,,,,188,0,8,,,,,7,,,62,0
10556,note_off,,,,,0,0,8,,,,,7,,,65,0
10560,note_off,,,,,96,0,3,,,,,2,,,72,0
10560,note_on,,,,,4,0,7,,,,,6,,,44,39
10560,note_on,,,,,4,0,5,,,,,4,,,62,45
10560,note_on,,,,,4,0,9,,,,,8,,,56,30
10560,note_on,,,,,4,0,2,,,,,1,,,71,37
10560,note_on,,,,,0,0,3,,,,,2,,,71,49
10560,note_on,,,,,0,0,8,,,,,7,,,65,30
10560,note_on,,,,,0,0,8,,,,,7,,,71,30
10560,note_on,,,,,4,0,1,,,,,0,,,71,39
10560,note_on,,,,,4,0,6,,,,,5,,,56,45
10560,note_on,,,,,4,0,8,,,,,7,,,62,30
10560,note_off,,,,,192,0,4,,,,,3,,,65,0
10560,note_on,,,,,0,0,4,,,,,3,,,65,60
10656,note_on,,,,,0,0,3,,,,,2,,,72,49
10656,note_on,,,,,0,0,2,,,,,1,,,72,37
10656,note_off,,,,,96,0,2,,,,,1,,,71,0
10656,note_off,,,,,96,0,1,,,,,0,,,71,0
10656,note_off,,,,,96,0,3,,,,,2,,,71,0
10656,note_on,,,,,0,0,1,,,,,0,,,72,39
10748,note_off,,,,,188,0,9,,,,,8,,,56,0
10748,note_off,,,,,92,0,1,,,,,0,,,72,0
10748,note_off,,,,,92,0,2,,,,,1,,,72,0
10748,note_off,,,,,188,0,7,,,,,6,,,44,0
10748,note_off,,,,,188,0,5,,,,,4,,,62,0
10748,note_off,,,,,188,0,6,,,,,5,,,56,0
10748,note_off,,,,,0,0,8,,,,,7,,,71,0
10748,note_off,,,,,0,0,8,,,,,7,,,65,0
10748,note_off,,,,,188,0,8,,,,,7,,,62,0
10752,note_on,,,,,0,0,3,,,,,2,,,71,49
10752,note_off,,,,,96,0,3,,,,,2,,,72,0
10752,note_on,,,,,0,0,4,,,,,3,,,65,60
10752,note_on,,,,,4,0,5,,,,,4,,,62,45
10752,note_on,,,,,4,0,9,,,,,8,,,56,30
10752,note_on,,,,,4,0,7,,,,,6,,,44,39
10752,note_on,,,,,0,0,8,,,,,7,,,71,30
10752,note_on,,,,,0,0,8,,,,,7,,,65,30
10752,note_on,,,,,4,0,8,,,,,7,,,62,30
10752,note_on,,,,,4,0,6,,,,,5,,,56,45
10752,note_on,,,,,4,0,1,,,,,0,,,71,39
10752,note_on,,,,,4,0,2,,,,,1,,,71,37
10752,note_off,,,,,192,0,4,,,,,3,,,65,0
10848,note_off,,,,,96,0,2,,,,,1,,,71,0
10848,note_on,,,,,0,0,2,,,,,1,,,72,37
10848,note_off,,,,,96,0,3,,,,,2,,,71,0
10848,note_on,,,,,0,0,3,,,,,2,,,72,49
10848,note_off,,,,,96,0,1,,,,,0,,,71,0
10848,note_on,,,,,0,0,1,,,,,0,,,72,39
10940,note_off,,,,,188,0,5,,,,,4,,,62,0
10940,note_off,,,,,188,0,9,,,,,8,,,56,0
10940,note_off,,,,,92,0,2,,,,,1,,,72,0
10940,note_off,,,,,0,0,8,,,,,7,,,71,0
10940,note_off,,,,,0,0,8,,,,,7,,,65,0
10940,note_off,,,,,92,0,1,,,,,0,,,72,0
10940,note_off,,,,,188,0,8,,,,,7,,,62,0
10940,note_off,,,,,188,0,7,,,,,6,,,44,0
10940,note_off,,,,,188,0,6,,,,,5,,,56,0
10944,note_on,,,,,4,0,2,,,,,1,,,72,37
10944,note_on,,,,,4,0,5,,,,,4,,,60,45
10944,note_on,,,,,0,0,8,,,,,7,,,72,30
10944,note_on,,,,,0,0,8,,,,,7,,,67,30
10944,note_off,,,,,192,0,4,,,,,3,,,65,0
10944,note_on,,,,,4,0,9,,,,,8,,,55,30
10944,note_off,,,,,96,0,3,,,,,2,,,72,0
10944,note_on,,,,,0,0,4,,,,,3,,,63,60
10944,note_on,,,,,4,0,8,,,,,7,,,63,30
10944,note_on,,,,,4,0,6,,,,,5,,,55,45
10944,note_on,,,,,0,0,3,,,,,2,,,72,49
10944,note_on,,,,,4,0,7,,,,,6,,,43,39
10944,note_on,,,,,4,0,1,,,,,0,,,72,39
10992,note_on,,,,,0,0,2,,,,,1,,,74,37
10992,note_on,,,,,0,0,1,,,,,0,,,74,39
10992,note_off,,,,,48,0,1,,,,,0,,,72,0
10992,note_off,,,,,48,0,3,,,,,2,,,72,0
10992,note_off,,,,,48,0,2,,,,,1,,,72,0
10992,note_on,,,,,0,0,3,,,,,2,,,74,49
11040,note_off,,,,,48,0,2,,,,,1,,,74,0
11040,note_on,,,,,0,0,2,,,,,1,,,75,37
11040,note_on,,,,,0,0,3,,,,,2,,,75,49
11040,note_off,,,,,48,0,3,,,,,2,,,74,0
11040,note_on,,,,,0,0,1,,,,,0,,,75,39
11040,note_off,,,,,48,0,1,,,,,0,,,74,0
11132,note_off,,,,,188,0,8,,,,,7,,,63,0
11132,note_off,,,,,0,0,8,,,,,7,,,67,0
11132,note_off,,,,,0,0,8,,,,,7,,,72,0
11132,note_off,,,,,188,0,6,,,,,5,,,55,0
11132,note_off,,,,,188,0,7,,,,,6,,,43,0
11132,note_off,,,,,92,0,1,,,,,0,,,75,0
11132,note_off,,,,,92,0,2,,,,,1,,,75,0
11132,note_off,,,,,188,0,5,,,,,4,,,60,0
11132,note_off,,,,,188,0,9,,,,,8,,,55,0
11136,note_on,,,,,4,0,6,,,,,5,,,55,45
11136,note_on,,,,,4,0,1,,,,,0,,,75,39
11136,note_off,,,,,192,0,4,,,,,3,,,63,0
11136,note_on,,,,,4,0,7,,,,,6,,,43,39
11136,note_on,,,,,4,0,9,,,,,8,,,55,30
11136,note_off,,,,,96,0,3,,,,,2,,,75,0
11136,note_on,,,,,4,0,2,,,,,1,,,75,37
11136,note_on,,,,,0,0,8,,,,,7,,,72,30
11136,note_on,,,,,0,0,8,,,,,7,,,67,30
11136,note_on,,,,,0,0,3,,,,,2,,,75,49
11136,note_on,,,,,4,0,5,,,,,4,,,60,45
11136,note_on,,,,,0,0,4,,,,,3,,,63,60
11136,note_on,,,,,4,0,8,,,,,7,,,63,30
11324,note_off,,,,,188,0,9,,,,,8,,,55,0
11324,note_off,,,,,0,0,8,,,,,7,,,67,0
11324,note_off,,,,,188,0,5,,,,,4,,,60,0
11324,note_off,,,,,0,0,8,,,,,7,,,72,0
11324,note_off,,,,,188,0,6,,,,,5,,,55,0
11324,note_off,,,,,188,0,8,,,,,7,,,63,0
11324,note_off,,,,,188,0,7,,,,,6,,,43,0
11328,note_on,,,,,4,0,7,,,,,6,,,43,39
11328,note_on,,,,,0,0,8,,,,,7,,,72,30
11328,note_on,,,,,4,0,5,,,,,4,,,60,45
11328,note_on,,,,,0,0,8,,,,,7,,,67,30
11328,note_on,,,,,0,0,4,,,,,3,,,63,60
11328,note_off,,,,,192,0,4,,,,,3,,,63,0
11328,note_on,,,,,4,0,9,,,,,8,,,55,30
11328,note_on,,,,,4,0,6,,,,,5,,,55,45
11328,note_on,,,,,4,0,8,,,,,7,,,63,30
11456,note_off,,,,,320,0,1,,,,,0,,,75,0
11456,note_off,,,,,320,0,2,,,,,1,,,75,0
11516,note_off,,,,,0,0,8,,,,,7,,,67,0
11516,note_off,,,,,188,0,8,,,,,7,,,63,0
11516,note_off,,,,,188,0,6,,,,,5,,,55,0
11516,note_off,,,,,0,0,8,,,,,7,,,72,0
11516,note_off,,,,,188,0,9,,,,,8,,,55,0
11516,note_off,,,,,188,0,7,,,,,6,,,43,0
11516,note_off,,,,,188,0,5,,,,,4,,,60,0
11520,note_on,,,,,4,0,9,,,,,8,,,55,30
11520,note_off,,,,,192,0,4,,,,,3,,,63,0
11520,note_on,,,,,0,0,4,,,,,3,,,63,60
11520,note_on,,,,,4,0,5,,,,,4,,,60,45
11520,note_on,,,,,64,0,1,,,,,0,,,72,39
11520,note_on,,,,,4,0,7,,,,,6,,,43,39
11520,note_on,,,,,64,0,2,,,,,1,,,72,37
11520,note_off,,,,,384,0,3,,,,,2,,,75,0
11520,note_on,,,,,0,0,3,,,,,2,,,72,49
11520,note_on,,,,,0,0,8,,,,,7,,,67,30
11520,note_on,,,,,0,0,8,,,,,7,,,63,30
11520,note_on,,,,,4,0,8,,,,,7,,,60,30
11520,note_on,,,,,4,0,6,,,,,5,,,55,45
11612,note_off,,,,,92,0,2,,,,,1,,,72,0
11612,note_off,,,,,92,0,1,,,,,0,,,72,0
11616,note_on,,,,,4,0,1,,,,,0,,,70,39
11616,note_on,,,,,4,0,2,,,,,1,,,70,37
11616,note_on,,,,,0,0,3,,,,,2,,,70,49
11616,note_off,,,,,96,0,3,,,,,2,,,72,0
11708,note_off,,,,,188,0,6,,,,,5,,,55,0
11708,note_off,,,,,92,0,2,,,,,1,,,70,0
11708,note_off,,,,,188,0,7,,,,,6,,,43,0
11708,note_off,,,,,188,0,5,,,,,4,,,60,0
11708,note_off,,,,,0,0,8,,,,,7,,,63,0
11708,note_off,,,,,0,0,8,,,,,7,,,67,0
11708,note_off,,,,,188,0,9,,,,,8,,,55,0
11708,note_off,,,,,92,0,1,,,,,0,,,70,0
11708,note_off,,,,,188,0,8,,,,,7,,,60,0
11712,note_on,,,,,4,0,5,,,,,4,,,60,45
11712,note_off,,,,,96,0,3,,,,,2,,,70,0
11712,note_on,,,,,4,0,6,,,,,5,,,53,45
11712,note_on,,,,,4,0,8,,,,,7,,,60,30
11712,note_on,,,,,0,0,8,,,,,7,,,65,30
11712,note_on,,,,,4,0,7,,,,,6,,,41,39
11712,note_on,,,,,0,0,3,,,,,2,,,69,49
11712,note_on,,,,,4,0,2,,,,,1,,,69,37
11712,note_on,,,,,0,0,8,,,,,7,,,69,30
11712,note_on,,,,,0,0,4,,,,,3,,,65,60
11712,note_off,,,,,192,0,4,,,,,3,,,63,0
11712,note_on,,,,,4,0,9,,,,,8,,,53,30
11712,note_on,,,,,4,0,1,,,,,0,,,69,39
11804,note_off,,,,,92,0,2,,,,,1,,,69,0
11804,note_off,,,,,92,0,1,,,,,0,,,69,0
11808,note_on,,,,,0,0,3,,,,,2,,,70,49
11808,note_on,,,,,4,0,1,,,,,0,,,70,39
11808,note_off,,,,,96,0,3,,,,,2,,,69,0
11808,note_on,,,,,4,0,2,,,,,1,,,70,37
11900,note_off,,,,,188,0,7,,,,,6,,,41,0
11900,note_off,,,,,188,0,5,,,,,4,,,60,0
11900,note_off,,,,,92,0,1,,,,,0,,,70,0
11900,note_off,,,,,188,0,6,,,,,5,,,53,0
11900,note_off,,,,,92,0,2,,,,,1,,,70,0
11900,note_off,,,,,188,0,8,,,,,7,,,60,0
11900,note_off,,,,,0,0,8,,,,,7,,,65,0
11900,note_off,,,,,0,0,8,,,,,7,,,69,0
11900,note_off,,,,,188,0,9,,,,,8,,,53,0
11904,note_on,,,,,4,0,6,,,,,5,,,51,45
11904,note_on,,,,,0,0,3,,,,,2,,,69,49
11904,note_on,,,,,4,0,9,,,,,8,,,51,30
11904,note_on,,,,,4,0,8,,,,,7,,,60,30
11904,note_on,,,,,0,0,8,,,,,7,,,65,30
11904,note_on,,,,,4,0,1,,,,,0,,,69,39
11904,note_off,,,,,192,0,4,,,,,3,,,65,0
11904,note_on,,,,,0,0,8,,,,,7,,,69,30
11904,note_on,,,,,0,0,4,,,,,3,,,65,60
11904,note_on,,,,,4,0,7,,,,,6,,,39,39
11904,note_off,,,,,96,0,3,,,,,2,,,70,0
11904,note_on,,,,,4,0,5,,,,,4,,,60,45
11904,note_on,,,,,4,0,2,,,,,1,,,69,37
11996,note_off,,,,,92,0,2,,,,,1,,,69,0
11996,note_off,,,,,92,0,1,,,,,0,,,69,0
12000,note_off,,,,,96,0,3,,,,,2,,,69,0
12000,note_on,,,,,4,0,1,,,,,0,,,79,39
12000,note_on,,,,,0,0,3,,,,,2,,,79,49
12000,note_on,,,,,4,0,2,,,,,1,,,79,37
12092,note_off,,,,,188,0,8,,,,,7,,,60,0
12092,note_off,,,,,188,0,9,,,,,8,,,51,0
12092,note_off,,,,,92,0,1,,,,,0,,,79,0
12092,note_off,,,,,92,0,2,,,,,1,,,79,0
12092,note_off,,,,,188,0,5,,,,,4,,,60,0
12092,note_off,,,,,188,0,6,,,,,5,,,51,0
12092,note_off,,,,,188,0,7,,,,,6,,,39,0
12092,note_off,,,,,0,0,8,,,,,7,,,65,0
12092,note_off,,,,,0,0,8,,,,,7,,,69,0
12096,note_off,,,,,192,0,4,,,,,3,,,65,0
12096,note_off,,,,,96,0,3,,,,,2,,,79,0
12096,note_on,,,,,4,0,6,,,,,5,,,51,45
12096,note_on,,,,,0,0,4,,,,,3,,,69,60
12096,note_on,,,,,0,0,3,,,,,2,,,77,49
12096,note_on,,,,,0,0,8,,,,,7,,,69,30
12096,note_on,,,,,4,0,9,,,,,8,,,51,30
12096,note_on,,,,,0,0,8,,,,,7,,,65,30
12096,note_on,,,,,4,0,8,,,,,7,,,60,30
12096,note_on,,,,,4,0,2,,,,,1,,,77,37
12096,note_on,,,,,4,0,5,,,,,4,,,60,45
12096,note_on,,,,,4,0,1,,,,,0,,,77,39
12096,note_on,,,,,4,0,7,,,,,6,,,39,39
12192,note_off,,,,,96,0,3,,,,,2,,,77,0
12192,note_on,,,,,0,0,3,,,,,2,,,79,49
12192,note_on,,,,,0,0,2,,,,,1,,,79,37
12192,note_off,,,,,96,0,2,,,,,1,,,77,0
12192,note_off,,,,,96,0,1,,,,,0,,,77,0
12192,note_on,,,,,0,0,1,,,,,0,,,79,39
12284,note_off,,,,,188,0,9,,,,,8,,,51,0
12284,note_off,,,,,188,0,5,,,,,4,,,60,0
12284,note_off,,,,,188,0,7,,,,,6,,,39,0
12284,note_off,,,,,0,0,8,,,,,7,,,65,0
12284,note_off,,,,,188,0,6,,,,,5,,,51,0
12284,note_off,,,,,188,0,8,,,,,7,,,60,0
12284,note_off,,,,,92,0,2,,,,,1,,,79,0
12284,note_off,,,,,0,0,8,,,,,7,,,69,0
12284,note_off,,,,,92,0,1,,,,,0,,,79,0
12288,note_on,,,,,4,0,8,,,,,7,,,60,30
12288,note_on,,,,,0,0,8,,,,,7,,,65,30
12288,note_on,,,,,4,0,9,,,,,8,,,51,30
12288,note_off,,,,,96,0,3,,,,,2,,,79,0
12288,note_on,,,,,0,0,8,,,,,7,,,69,30
12288,note_on,,,,,0,0,3,,,,,2,,,77,49
12288,note_on,,,,,0,0,4,,,,,3,,,69,60
12288,note_off,,,,,192,0,4,,,,,3,,,69,0
12288,note_on,,,,,4,0,1,,,,,0,,,77,39
12288,note_on,,,,,4,0,7,,,,,6,,,39,39
12288,note_on,,,,,4,0,2,,,,,1,,,77,37
12288,note_on,,,,,4,0,6,,,,,5,,,51,45
12288,note_on,,,,,4,0,5,,,,,4,,,60,45
12384,note_on,,,,,0,0,3,,,,,2,,,79,49
12384,note_off,,,,,96,0,3,,,,,2,,,77,0
12384,note_off,,,,,96,0,2,,,,,1,,,77,0
12384,note_on,,,,,0,0,2,,,,,1,,,79,37
12384,note_on,,,,,0,0,1,,,,,0,,,79,39
12384,note_off,,,,,96,0,1,,,,,0,,,77,0
12476,note_off,,,,,188,0,8,,,,,7,,,60,0
12476,note_off,,,,,0,0,8,,,,,7,,,65,0
12476,note_off,,,,,0,0,8,,,,,7,,,69,0
12476,note_off,,,,,188,0,5,,,,,4,,,60,0
12476,note_off,,,,,92,0,2,,,,,1,,,79,0
12476,note_off,,,,,188,0,6,,,,,5,,,51,0
12476,note_off,,,,,188,0,9,,,,,8,,,51,0
12476,note_off,,,,,92,0,1,,,,,0,,,79,0
12476,note_off,,,,,188,0,7,,,,,6,,,39,0
12480,note_on,,,,,4,0,5,,,,,4,,,62,45
12480,note_on,,,,,4,0,9,,,,,8,,,50,30
12480,note_on,,,,,4,0,7,,,,,6,,,38,39
12480,note_on,,,,,0,0,4,,,,,3,,,65,60
12480,note_off,,,,,96,0,3,,,,,2,,,79,0
12480,note_on,,,,,0,0,3,,,,,2,,,70,49
12480,note_on,,,,,4,0,6,,,,,5,,,50,45
12480,note_on,,,,,4,0,1,,,,,0,,,70,39
12480,note_on,,,,,4,0,8,,,,,7,,,62,30
12480,note_on,,,,,0,0,8,,,,,7,,,65,30
12480,note_on,,,,,0,0,8,,,,,7,,,70,30
12480,note_off,,,,,192,0,4,,,,,3,,,69,0
12480,note_on,,,,,4,0,2,,,,,1,,,70,37
12572,note_off,,,,,92,0,1,,,,,0,,,70,0
12572,note_off,,,,,92,0,2,,,,,1,,,70,0
12576,note_off,,,,,96,0,3,,,,,2,,,70,0
12576,note_on,,,,,4,0,2,,,,,1,,,72,37
12576,note_on,,,,,0,0,3,,,,,2,,,72,49
12576,note_on,,,,,4,0,1,,,,,0,,,72,39
12668,note_off,,,,,188,0,9,,,,,8,,,50,0
12668,note_off,,,,,188,0,7,,,,,6,,,38,0
12668,note_off,,,,,188,0,6,,,,,5,,,50,0
12668,note_off,,,,,0,0,8,,,,,7,,,70,0
12668,note_off,,,,,0,0,8,,,,,7,,,65,0
12668,note_off,,,,,92,0,1,,,,,0,,,72,0
12668,note_off,,,,,188,0,5,,,,,4,,,62,0
12668,note_off,,,,,92,0,2,,,,,1,,,72,0
12668,note_off,,,,,188,0,8,,,,,7,,,62,0
12672,note_on,,,,,4,0,1,,,,,0,,,70,39
12672,note_on,,,,,0,0,8,,,,,7,,,65,30
12672,note_on,,,,,0,0,8,,,,,7,,,70,30
12672,note_on,,,,,4,0,7,,,,,6,,,38,39
12672,note_on,,,,,4,0,8,,,,,7,,,62,30
12672,note_on,,,,,0,0,3,,,,,2,,,70,49
12672,note_off,,,,,96,0,3,,,,,2,,,72,0
12672,note_on,,,,,4,0,5,,,,,4,,,62,45
12672,note_on,,,,,4,0,6,,,,,5,,,50,45
12672,note_on,,,,,4,0,9,,,,,8,,,50,30
12672,note_on,,,,,4,0,2,,,,,1,,,70,37
12672,note_off,,,,,192,0,4,,,,,3,,,65,0
12672,note_on,,,,,0,0,4,,,,,3,,,65,60
12764,note_off,,,,,92,0,1,,,,,0,,,70,0
12764,note_off,,,,,92,0,2,,,,,1,,,70,0
12768,note_on,,,,,4,0,2,,,,,1,,,79,37
12768,note_on,,,,,4,0,1,,,,,0,,,79,39
12768,note_off,,,,,96,0,3,,,,,2,,,70,0
12768,note_on,,,,,0,0,3,,,,,2,,,79,49
12860,note_off,,,,,188,0,8,,,,,7,,,62,0
12860,note_off,,,,,188,0,7,,,,,6,,,38,0
12860,note_off,,,,,0,0,8,,,,,7,,,65,0
12860,note_off,,,,,92,0,1,,,,,0,,,79,0
12860,note_off,,,,,0,0,8,,,,,7,,,70,0
12860,note_off,,,,,188,0,9,,,,,8,,,50,0
12860,note_off,,,,,188,0,5,,,,,4,,,62,0
12860,note_off,,,,,92,0,2,,,,,1,,,79,0
12860,note_off,,,,,188,0,6,,,,,5,,,50,0
12864,note_off,,,,,192,0,4,,,,,3,,,65,0
12864,note_on,,,,,4,0,2,,,,,1,,,77,37
12864,note_on,,,,,0,0,8,,,,,7,,,70,30
12864,note_on,,,,,4,0,5,,,,,4,,,65,45
12864,note_on,,,,,0,0,3,,,,,2,,,77,49
12864,note_off,,,,,96,0,3,,,,,2,,,79,0
12864,note_on,,,,,4,0,9,,,,,8,,,50,30
12864,note_on,,,,,4,0,1,,,,,0,,,77,39
12864,note_on,,,,,0,0,4,,,,,3,,,70,60
12864,note_on,,,,,4,0,6,,,,,5,,,50,45
12864,note_on,,,,,4,0,7,,,,,6,,,38,39
12864,note_on,,,,,0,0,8,,,,,7,,,65,30
12864,note_on,,,,,4,0,8,,,,,7,,,62,30
12956,note_off,,,,,92,0,2,,,,,1,,,77,0
12956,note_off,,,,,92,0,1,,,,,0,,,77,0
12960,note_off,,,,,96,0,3,,,,,2,,,77,0
12960,note_on,,,,,4,0,1,,,,,0,,,79,39
12960,note_on,,,,,0,0,3,,,,,2,,,79,49
12960,note_on,,,,,4,0,2,,,,,1,,,79,37
13052,note_off,,,,,0,0,8,,,,,7,,,65,0
13052,note_off,,,,,188,0,8,,,,,7,,,62,0
13052,note_off,,,,,188,0,5,,,,,4,,,65,0
13052,note_off,,,,,188,0,9,,,,,8,,,50,0
13052,note_off,,,,,188,0,7,,,,,6,,,38,0
13052,note_off,,,,,92,0,1,,,,,0,,,79,0
13052,note_off,,,,,0,0,8,,,,,7,,,70,0
13052,note_off,,,,,188,0,6,,,,,5,,,50,0
13052,note_off,,,,,92,0,2,,,,,1,,,79,0
13056,note_on,,,,,4,0,9,,,,,8,,,50,30
13056,note_on,,,,,4,0,5,,,,,4,,,65,45
13056,note_on,,,,,4,0,6,,,,,5,,,50,45
13056,note_on,,,,,0,0,3,,,,,2,,,77,49
13056,note_on,,,,,4,0,8,,,,,7,,,62,30
13056,note_on,,,,,0,0,8,,,,,7,,,65,30
13056,note_off,,,,,192,0,4,,,,,3,,,70,0
13056,note_off,,,,,96,0,3,,,,,2,,,79,0
13056,note_on,,,,,4,0,7,,,,,6,,,38,39
13056,note_on,,,,,4,0,2,,,,,1,,,77,37
13056,note_on,,,,,4,0,1,,,,,0,,,77,39
13056,note_on,,,,,0,0,8,,,,,7,,,70,30
13056,note_on,,,,,0,0,4,,,,,3,,,70,60
13148,note_off,,,,,92,0,2,,,,,1,,,77,0
13148,note_off,,,,,92,0,1,,,,,0,,,77,0
13152,note_on,,,,,0,0,3,,,,,2,,,79,49
13152,note_on,,,,,4,0,2,,,,,1,,,79,37
13152,note_on,,,,,4,0,1,,,,,0,,,79,39
13152,note_off,,,,,96,0,3,,,,,2,,,77,0
13244,note_off,,,,,92,0,2,,,,,1,,,79,0
13244,note_off,,,,,188,0,6,,,,,5,,,50,0
13244,note_off,,,,,188,0,5,,,,,4,,,65,0
13244,note_off,,,,,188,0,7,,,,,6,,,38,0
13244,note_off,,,,,188,0,8,,,,,7,,,62,0
13244,note_off,,,,,0,0,8,,,,,7,,,65,0
13244,note_off,,,,,0,0,8,,,,,7,,,70,0
13244,note_off,,,,,188,0,9,,,,,8,,,50,0
13244,note_off,,,,,92,0,1,,,,,0,,,79,0
13248,note_on,,,,,4,0,8,,,,,7,,,60,30
13248,note_on,,,,,0,0,8,,,,,7,,,65,30
13248,note_on,,,,,0,0,8,,,,,7,,,72,30
13248,note_off,,,,,96,0,3,,,,,2,,,79,0
13248,note_on,,,,,4,0,9,,,,,8,,,45,30
13248,note_on,,,,,0,0,4,,,,,3,,,72,60
13248,note_off,,,,,192,0,4,,,,,3,,,70,0
13248,note_on,,,,,4,0,6,,,,,5,,,45,45
13248,note_on,,,,,4,0,1,,,,,0,,,72,39
13248,note_on,,,,,0,0,3,,,,,2,,,72,49
13248,note_on,,,,,4,0,2,,,,,1,,,72,37
13248,note_on,,,,,4,0,7,,,,,6,,,33,39
13248,note_on,,,,,4,0,5,,,,,4,,,65,45
13340,note_off,,,,,92,0,1,,,,,0,,,72,0
13340,note_off,,,,,92,0,2,,,,,1,,,72,0
13344,note_on,,,,,4,0,2,,,,,1,,,74,37
13344,note_on,,,,,0,0,3,,,,,2,,,74,49
13344,note_on,,,,,4,0,1,,,,,0,,,74,39
13344,note_off,,,,,96,0,3,,,,,2,,,72,0
13436,note_off,,,,,92,0,2,,,,,1,,,74,0
13436,note_off,,,,,0,0,8,,,,,7,,,65,0
13436,note_off,,,,,188,0,7,,,,,6,,,33,0
13436,note_off,,,,,188,0,6,,,,,5,,,45,0
13436,note_off,,,,,188,0,5,,,,,4,,,65,0
13436,note_off,,,,,188,0,8,,,,,7,,,60,0
13436,note_off,,,,,92,0,1,,,,,0,,,74,0
13436,note_off,,,,,188,0,9,,,,,8,,,45,0
13436,note_off,,,,,0,0,8,,,,,7,,,72,0
13440,note_on,,,,,4,0,2,,,,,1,,,72,37
13440,note_on,,,,,0,0,8,,,,,7,,,72,30
13440,note_on,,,,,4,0,8,,,,,7,,,60,30
13440,note_on,,,,,4,0,9,,,,,8,,,45,30
13440,note_on,,,,,4,0,5,,,,,4,,,65,45
13440,note_on,,,,,4,0,7,,,,,6,,,33,39
13440,note_off,,,,,96,0,3,,,,,2,,,74,0
13440,note_on,,,,,0,0,3,,,,,2,,,72,49
13440,note_on,,,,,4,0,6,,,,,5,,,45,45
13440,note_off,,,,,192,0,4,,,,,3,,,72,0
13440,note_on,,,,,0,0,4,,,,,3,,,72,60
13440,note_on,,,,,0,0,8,,,,,7,,,65,30
13440,note_on,,,,,4,0,1,,,,,0,,,72,39
13532,note_off,,,,,92,0,1,,,,,0,,,72,0
13532,note_off,,,,,92,0,2,,,,,1,,,72,0
13536,note_on,,,,,0,0,3,,,,,2,,,79,49
13536,note_off,,,,,96,0,3,,,,,2,,,72,0
13536,note_on,,,,,4,0,2,,,,,1,,,79,37
13536,note_on,,,,,4,0,1,,,,,0,,,79,39
13628,note_off,,,,,188,0,9,,,,,8,,,45,0
13628,note_off,,,,,188,0,6,,,,,5,,,45,0
13628,note_off,,,,,92,0,1,,,,,0,,,79,0
13628,note_off,,,,,188,0,7,,,,,6,,,33,0
13628,note_off,,,,,188,0,8,,,,,7,,,60,0
13628,note_off,,,,,188,0,5,,,,,4,,,65,0
13628,note_off,,,,,0,0,8,,,,,7,,,72,0
13628,note_off,,,,,92,0,2,,,,,1,,,79,0
13628,note_off,,,,,0,0,8,,,,,7,,,65,0
13632,note_on,,,,,4,0,1,,,,,0,,,77,39
13632,note_on,,,,,4,0,5,,,,,4,,,65,45
13632,note_off,,,,,192,0,4,,,,,3,,,72,0
13632,note_on,,,,,4,0,9,,,,,8,,,45,30
13632,note_on,,,,,4,0,8,,,,,7,,,60,30
13632,note_on,,,,,4,0,7,,,,,6,,,33,39
13632,note_on,,,,,0,0,8,,,,,7,,,65,30
13632,note_on,,,,,4,0,6,,,,,5,,,45,45
13632,note_on,,,,,0,0,8,,,,,7,,,72,30
13632,note_on,,,,,4,0,2,,,,,1,,,77,37
13632,note_off,,,,,96,0,3,,,,,2,,,79,0
13632,note_on,,,,,0,0,3,,,,,2,,,77,49
13632,note_on,,,,,0,0,4,,,,,3,,,72,60
13724,note_off,,,,,92,0,2,,,,,1,,,77,0
13724,note_off,,,,,92,0,1,,,,,0,,,77,0
13728,note_on,,,,,4,0,1,,,,,0,,,79,39
13728,note_on,,,,,0,0,3,,,,,2,,,79,49
13728,note_on,,,,,4,0,2,,,,,1,,,79,37
13728,note_off,,,,,96,0,3,,,,,2,,,77,0
13820,note_off,,,,,0,0,8,,,,,7,,,65,0
13820,note_off,,,,,0,0,8,,,,,7,,,72,0
13820,note_off,,,,,188,0,8,,,,,7,,,60,0
13820,note_off,,,,,92,0,2,,,,,1,,,79,0
13820,note_off,,,,,188,0,5,,,,,4,,,65,0
13820,note_off,,,,,188,0,9,,,,,8,,,45,0
13820,note_off,,,,,188,0,7,,,,,6,,,33,0
13820,note_off,,,,,188,0,6,,,,,5,,,45,0
13820,note_off,,,,,92,0,1,,,,,0,,,79,0
13824,note_on,,,,,4,0,9,,,,,8,,,45,30
13824,note_on,,,,,4,0,5,,,,,4,,,65,45
13824,note_on,,,,,0,0,3,,,,,2,,,77,49
13824,note_off,,,,,192,0,4,,,,,3,,,72,0
13824,note_on,,,,,0,0,4,,,,,3,,,72,60
13824,note_on,,,,,4,0,8,,,,,7,,,60,30
13824,note_on,,,,,0,0,8,,,,,7,,,65,30
13824,note_on,,,,,4,0,1,,,,,0,,,77,39
13824,note_on,,,,,4,0,2,,,,,1,,,77,37
13824,note_off,,,,,96,0,3,,,,,2,,,79,0
13824,note_on,,,,,4,0,7,,,,,6,,,33,39
13824,note_on,,,,,0,0,8,,,,,7,,,72,30
13824,note_on,,,,,4,0,6,,,,,5,,,45,45
13916,note_off,,,,,92,0,1,,,,,0,,,77,0
13916,note_off,,,,,92,0,2,,,,,1,,,77,0
13920,note_on,,,,,4,0,1,,,,,0,,,79,39
13920,note_off,,,,,96,0,3,,,,,2,,,77,0
13920,note_on,,,,,4,0,2,,,,,1,,,79,37
13920,note_on,,,,,0,0,3,,,,,2,,,79,49
14012,note_off,,,,,92,0,1,,,,,0,,,79,0
14012,note_off,,,,,188,0,7,,,,,6,,,33,0
14012,note_off,,,,,188,0,9,,,,,8,,,45,0
14012,note_off,,,,,188,0,8,,,,,7,,,60,0
14012,note_off,,,,,188,0,5,,,,,4,,,65,0
14012,note_off,,,,,92,0,2,,,,,1,,,79,0
14012,note_off,,,,,0,0,8,,,,,7,,,72,0
14012,note_off,,,,,0,0,8,,,,,7,,,65,0
14012,note_off,,,,,188,0,6,,,,,5,,,45,0
14016,note_on,,,,,0,0,8,,,,,7,,,70,30
14016,note_on,,,,,0,0,3,,,,,2,,,74,49
14016,note_off,,,,,96,0,3,,,,,2,,,79,0
14016,note_on,,,,,0,0,8,,,,,7,,,65,30
14016,note_on,,,,,4,0,8,,,,,7,,,62,30
14016,note_on,,,,,4,0,6,,,,,5,,,46,45
14016,note_on,,,,,4,0,1,,,,,0,,,74,39
14016,note_on,,,,,4,0,7,,,,,6,,,34,39
14016,note_off,,,,,192,0,4,,,,,3,,,72,0
14016,note_on,,,,,0,0,4,,,,,3,,,70,60
14016,note_on,,,,,4,0,2,,,,,1,,,74,37
14016,note_on,,,,,4,0,9,,,,,8,,,46,30
14016,note_on,,,,,4,0,5,,,,,4,,,65,45
14108,note_off,,,,,92,0,1,,,,,0,,,74,0
14108,note_off,,,,,92,0,2,,,,,1,,,74,0
14112,note_on,,,,,4,0,2,,,,,1,,,75,37
14112,note_on,,,,,0,0,3,,,,,2,,,75,49
14112,note_off,,,,,96,0,3,,,,,2,,,74,0
14112,note_on,,,,,4,0,1,,,,,0,,,75,39
14204,note_off,,,,,92,0,2,,,,,1,,,75,0
14204,note_off,,,,,188,0,6,,,,,5,,,46,0
14204,note_off,,,,,92,0,1,,,,,0,,,75,0
14204,note_off,,,,,0,0,8,,,,,7,,,70,0
14204,note_off,,,,,188,0,9,,,,,8,,,46,0
14204,note_off,,,,,188,0,8,,,,,7,,,62,0
14204,note_off,,,,,0,0,8,,,,,7,,,65,0
14204,note_off,,,,,188,0,7,,,,,6,,,34,0
14204,note_off,,,,,188,0,5,,,,,4,,,65,0
14208,note_on,,,,,0,0,4,,,,,3,,,70,60
14208,note_on,,,,,4,0,2,,,,,1,,,74,37
14208,note_on,,,,,0,0,8,,,,,7,,,65,30
14208,note_off,,,,,192,0,4,,,,,3,,,70,0
14208,note_on,,,,,0,0,8,,,,,7,,,70,30
14208,note_on,,,,,4,0,1,,,,,0,,,74,39
14208,note_on,,,,,4,0,5,,,,,4,,,65,45
14208,note_on,,,,,4,0,8,,,,,7,,,62,30
14208,note_off,,,,,96,0,3,,,,,2,,,75,0
14208,note_on,,,,,4,0,7,,,,,6,,,34,39
14208,note_on,,,,,0,0,3,,,,,2,,,74,49
14208,note_on,,,,,4,0,9,,,,,8,,,46,30
14208,note_on,,,,,4,0,6,,,,,5,,,46,45
14300,note_off,,,,,92,0,1,,,,,0,,,74,0
14300,note_off,,,,,92,0,2,,,,,1,,,74,0
14304,note_on,,,,,4,0,1,,,,,0,,,79,39
14304,note_on,,,,,4,0,2,,,,,1,,,79,37
14304,note_on,,,,,0,0,3,,,,,2,,,79,49
14304,note_off,,,,,96,0,3,,,,,2,,,74,0
14396,note_off,,,,,0,0,8,,,,,7,,,70,0
14396,note_off,,,,,92,0,2,,,,,1,,,79,0
14396,note_off,,,,,0,0,8,,,,,7,,,65,0
14396,note_off,,,,,188,0,6,,,,,5,,,46,0
14396,note_off,,,,,188,0,9,,,,,8,,,46,0
14396,note_off,,,,,92,0,1,,,,,0,,,79,0
14396,note_off,,,,,188,0,8,,,,,7,,,62,0
14396,note_off,,,,,188,0,7,,,,,6,,,34,0
14396,note_off,,,,,188,0,5,,,,,4,,,65,0
14400,note_on,,,,,4,0,8,,,,,7,,,62,30
14400,note_on,,,,,4,0,6,,,,,5,,,50,45
14400,note_on,,,,,4,0,1,,,,,0,,,77,39
14400,note_on,,,,,0,0,8,,,,,7,,,65,30
14400,note_on,,,,,4,0,5,,,,,4,,,65,45
14400,note_on,,,,,4,0,7,,,,,6,,,38,39
14400,note_on,,,,,4,0,9,,,,,8,,,50,30
14400,note_on,,,,,0,0,3,,,,,2,,,77,49
14400,note_off,,,,,96,0,3,,,,,2,,,79,0
14400,note_on,,,,,0,0,4,,,,,3,,,70,60
14400,note_off,,,,,192,0,4,,,,,3,,,70,0
14400,note_on,,,,,4,0,2,,,,,1,,,77,37
14400,note_on,,,,,0,0,8,,,,,7,,,70,30
14492,note_off,,,,,92,0,1,,,,,0,,,77,0
14492,note_off,,,,,92,0,2,,,,,1,,,77,0
14496,note_on,,,,,0,0,3,,,,,2,,,79,49
14496,note_on,,,,,4,0,2,,,,,1,,,79,37
14496,note_off,,,,,96,0,3,,,,,2,,,77,0
14496,note_on,,,,,4,0,1,,,,,0,,,79,39
14588,note_off,,,,,188,0,9,,,,,8,,,50,0
14588,note_off,,,,,92,0,2,,,,,1,,,79,0
14588,note_off,,,,,0,0,8,,,,,7,,,70,0
14588,note_off,,,,,188,0,7,,,,,6,,,38,0
14588,note_off,,,,,0,0,8,,,,,7,,,65,0
14588,note_off,,,,,188,0,8,,,,,7,,,62,0
14588,note_off,,,,,92,0,1,,,,,0,,,79,0
14588,note_off,,,,,188,0,5,,,,,4,,,65,0
14588,note_off,,,,,188,0,6,,,,,5,,,50,0
14592,note_off,,,,,96,0,3,,,,,2,,,79,0
14592,note_on,,,,,4,0,9,,,,,8,,,50,30
14592,note_on,,,,,4,0,7,,,,,6,,,38,39
14592,note_on,,,,,0,0,3,,,,,2,,,77,49
14592,note_on,,,,,4,0,2,,,,,1,,,77,37
14592,note_on,,,,,4,0,6,,,,,5,,,50,45
14592,note_on,,,,,0,0,8,,,,,7,,,65,30
14592,note_on,,,,,4,0,8,,,,,7,,,62,30
14592,note_on,,,,,4,0,5,,,,,4,,,65,45
14592,note_off,,,,,192,0,4,,,,,3,,,70,0
14592,note_on,,,,,4,0,1,,,,,0,,,77,39
14592,note_on,,,,,0,0,4,,,,,3,,,70,60
14592,note_on,,,,,0,0,8,,,,,7,,,70,30
14684,note_off,,,,,92,0,1,,,,,0,,,77,0
14684,note_off,,,,,92,0,2,,,,,1,,,77,0
14688,note_on,,,,,0,0,3,,,,,2,,,79,49
14688,note_on,,,,,4,0,2,,,,,1,,,79,37
14688,note_off,,,,,96,0,3,,,,,2,,,77,0
14688,note_on,,,,,4,0,1,,,,,0,,,79,39
14780,note_off,,,,,188,0,5,,,,,4,,,65,0
14780,note_off,,,,,92,0,1,,,,,0,,,79,0
14780,note_off,,,,,188,0,8,,,,,7,,,62,0
14780,note_off,,,,,188,0,7,,,,,6,,,38,0
14780,note_off,,,,,188,0,6,,,,,5,,,50,0
14780,note_off,,,,,0,0,8,,,,,7,,,70,0
14780,note_off,,,,,0,0,8,,,,,7,,,65,0
14780,note_off,,,,,92,0,2,,,,,1,,,79,0
14780,note_off,,,,,188,0,9,,,,,8,,,50,0
14784,note_on,,,,,4,0,7,,,,,6,,,41,39
14784,note_on,,,,,4,0,1,,,,,0,,,69,39
14784,note_on,,,,,4,0,2,,,,,1,,,69,37
14784,note_on,,,,,4,0,5,,,,,4,,,65,45
14784,note_on,,,,,0,0,3,,,,,2,,,69,49
14784,note_off,,,,,96,0,3,,,,,2,,,79,0
14784,note_on,,,,,4,0,6,,,,,5,,,53,45
14784,note_on,,,,,4,0,8,,,,,7,,,60,30
14784,note_on,,,,,0,0,8,,,,,7,,,65,30
14784,note_on,,,,,0,0,8,,,,,7,,,69,30
14784,note_off,,,,,192,0,4,,,,,3,,,70,0
14784,note_on,,,,,4,0,9,,,,,8,,,53,30
14784,note_on,,,,,0,0,4,,,,,3,,,60,60
14972,note_off,,,,,188,0,9,,,,,8,,,53,0
14972,note_off,,,,,188,0,6,,,,,5,,,53,0
14972,note_off,,,,,0,0,8,,,,,7,,,65,0
14972,note_off,,,,,188,0,7,,,,,6,,,41,0
14972,note_off,,,,,188,0,8,,,,,7,,,60,0
14972,note_off,,,,,188,0,5,,,,,4,,,65,0
14972,note_off,,,,,0,0,8,,,,,7,,,69,0
14976,note_on,,,,,0,0,4,,,,,3,,,60,60
14976,note_off,,,,,192,0,4,,,,,3,,,60,0
14976,note_on,,,,,4,0,9,,,,,8,,,51,30
14976,note_on,,,,,4,0,5,,,,,4,,,65,45
14976,note_on,,,,,4,0,6,,,,,5,,,51,45
14976,note_on,,,,,0,0,8,,,,,7,,,60,30
14976,note_on,,,,,4,0,8,,,,,7,,,57,30
14976,note_on,,,,,0,0,8,,,,,7,,,65,30
14976,note_on,,,,,4,0,7,,,,,6,,,39,39
15068,note_off,,,,,284,0,2,,,,,1,,,69,0
15068,note_off,,,,,284,0,1,,,,,0,,,69,0
15072,note_on,,,,,0,0,3,,,,,2,,,79,49
15072,note_on,,,,,4,0,2,,,,,1,,,79,37
15072,note_off,,,,,288,0,3,,,,,2,,,69,0
15072,note_on,,,,,4,0,1,,,,,0,,,79,39
15164,note_off,,,,,0,0,8,,,,,7,,,60,0
15164,note_off,,,,,0,0,8,,,,,7,,,65,0
15164,note_off,,,,,188,0,7,,,,,6,,,39,0
15164,note_off,,,,,92,0,2,,,,,1,,,79,0
15164,note_off,,,,,188,0,8,,,,,7,,,57,0
15164,note_off,,,,,188,0,6,,,,,5,,,51,0
15164,note_off,,,,,188,0,9,,,,,8,,,51,0
15164,note_off,,,,,92,0,1,,,,,0,,,79,0
15164,note_off,,,,,188,0,5,,,,,4,,,65,0
15168,note_on,,,,,4,0,1,,,,,0,,,77,39
15168,note_on,,,,,4,0,2,,,,,1,,,77,37
15168,note_on,,,,,0,0,3,,,,,2,,,77,49
15168,note_on,,,,,4,0,5,,,,,4,,,65,45
15168,note_on,,,,,0,0,4,,,,,3,,,62,60
15168,note_off,,,,,192,0,4,,,,,3,,,60,0
15168,note_off,,,,,96,0,3,,,,,2,,,79,0
15168,note_on,,,,,4,0,8,,,,,7,,,58,30
15168,note_on,,,,,0,0,8,,,,,7,,,65,30
15168,note_on,,,,,4,0,7,,,,,6,,,38,39
15168,note_on,,,,,0,0,8,,,,,7,,,62,30
15168,note_on,,,,,4,0,9,,,,,8,,,50,30
15168,note_on,,,,,4,0,6,,,,,5,,,50,45
15260,note_off,,,,,92,0,1,,,,,0,,,77,0
15260,note_off,,,,,92,0,2,,,,,1,,,77,0
15264,note_on,,,,,4,0,2,,,,,1,,,70,37
15264,note_on,,,,,0,0,3,,,,,2,,,70,49
15264,note_on,,,,,4,0,1,,,,,0,,,70,39
15264,note_off,,,,,96,0,3,,,,,2,,,77,0
15356,note_off,,,,,188,0,6,,,,,5,,,50,0
15356,note_off,,,,,92,0,2,,,,,1,,,70,0
15356,note_off,,,,,188,0,7,,,,,6,,,38,0
15356,note_off,,,,,188,0,8,,,,,7,,,65,0
15356,note_off,,,,,92,0,1,,,,,0,,,70,0
15356,note_off,,,,,188,0,9,,,,,8,,,50,0
15356,note_off,,,,,188,0,5,,,,,4,,,65,0
15360,note_on,,,,,4,0,6,,,,,5,,,51,45
15360,note_on,,,,,4,0,9,,,,,8,,,51,30
15360,note_off,,,,,96,0,3,,,,,2,,,70,0
15360,note_on,,,,,4,0,5,,,,,4,,,63,45
15360,note_on,,,,,0,0,4,,,,,3,,,60,60
15360,note_on,,,,,4,0,1,,,,,0,,,69,39
15360,note_on,,,,,4,0,7,,,,,6,,,39,39
15360,note_on,,,,,4,0,8,,,,,7,,,67,30
15360,note_on,,,,,4,0,2,,,,,1,,,69,37
15360,note_off,,,,,192,0,4,,,,,3,,,62,0
15360,note_on,,,,,0,0,3,,,,,2,,,69,49
15452,note_off,,,,,92,0,1,,,,,0,,,69,0
15452,note_off,,,,,92,0,5,,,,,4,,,63,0
15452,note_off,,,,,92,0,2,,,,,1,,,69,0
15456,note_on,,,,,4,0,5,,,,,4,,,62,45
15456,note_on,,,,,4,0,2,,,,,1,,,67,37
15456,note_off,,,,,96,0,3,,,,,2,,,69,0
15456,note_on,,,,,0,0,4,,,,,3,,,58,60
15456,note_off,,,,,96,0,4,,,,,3,,,60,0
15456,note_on,,,,,0,0,3,,,,,2,,,67,49
15456,note_on,,,,,4,0,1,,,,,0,,,67,39
15488,note_off,,,,,0,0,8,,,,,7,,,62,0
15488,note_off,,,,,128,0,8,,,,,7,,,58,0
15548,note_off,,,,,188,0,6,,,,,5,,,51,0
15548,note_off,,,,,92,0,2,,,,,1,,,67,0
15548,note_off,,,,,92,0,1,,,,,0,,,67,0
15548,note_off,,,,,188,0,7,,,,,6,,,39,0
15548,note_off,,,,,92,0,5,,,,,4,,,62,0
15548,note_off,,,,,60,0,8,,,,,7,,,67,0
15548,note_off,,,,,188,0,9,,,,,8,,,51,0
15552,note_on,,,,,4,0,8,,,,,7,,,57,30
15552,note_on,,,,,0,0,8,,,,,7,,,60,30
15552,note_on,,,,,4,0,7,,,,,6,,,41,39
15552,note_on,,,,,0,0,8,,,,,7,,,65,30
15552,note_on,,,,,4,0,9,,,,,8,,,53,30
15552,note_on,,,,,0,0,3,,,,,2,,,65,49
15552,note_on,,,,,4,0,1,,,,,0,,,65,39
15552,note_on,,,,,4,0,6,,,,,5,,,53,45
15552,note_on,,,,,0,0,4,,,,,3,,,57,60
15552,note_off,,,,,96,0,4,,,,,3,,,58,0
15552,note_on,,,,,4,0,2,,,,,1,,,65,37
15552,note_off,,,,,96,0,3,,,,,2,,,67,0
15552,note_on,,,,,4,0,5,,,,,4,,,60,45
15740,note_off,,,,,188,0,5,,,,,4,,,60,0
15740,note_off,,,,,188,0,9,,,,,8,,,53,0
15740,note_off,,,,,188,0,7,,,,,6,,,41,0
15740,note_off,,,,,188,0,6,,,,,5,,,53,0
15740,note_off,,,,,188,0,8,,,,,7,,,57,0
15740,note_off,,,,,0,0,8,,,,,7,,,60,0
15740,note_off,,,,,0,0,8,,,,,7,,,65,0
15744,note_on,,,,,4,0,9,,,,,8,,,51,30
15744,note_on,,,,,4,0,6,,,,,5,,,51,45
15744,note_on,,,,,4,0,8,,,,,7,,,57,30
15744,note_on,,,,,0,0,8,,,,,7,,,65,30
15744,note_on,,,,,0,0,8,,,,,7,,,60,30
15744,note_on,,,,,0,0,4,,,,,3,,,60,60
15744,note_off,,,,,192,0,4,,,,,3,,,57,0
15744,note_on,,,,,4,0,7,,,,,6,,,39,39
15744,note_on,,,,,4,0,5,,,,,4,,,57,45
15836,note_off,,,,,284,0,1,,,,,0,,,65,0
15836,note_off,,,,,284,0,2,,,,,1,,,65,0
15840,note_on,,,,,4,0,2,,,,,1,,,79,37
15840,note_on,,,,,4,0,1,,,,,0,,,79,39
15840,note_off,,,,,288,0,3,,,,,2,,,65,0
15840,note_on,,,,,0,0,3,,,,,2,,,79,49
15932,note_off,,,,,188,0,9,,,,,8,,,51,0
15932,note_off,,,,,188,0,8,,,,,7,,,57,0
15932,note_off,,,,,188,0,6,,,,,5,,,51,0
15932,note_off,,,,,0,0,8,,,,,7,,,60,0
15932,note_off,,,,,92,0,2,,,,,1,,,79,0
15932,note_off,,,,,188,0,7,,,,,6,,,39,0
15932,note_off,,,,,188,0,5,,,,,4,,,57,0
15932,note_off,,,,,92,0,1,,,,,0,,,79,0
15932,note_off,,,,,0,0,8,,,,,7,,,65,0
15936,note_on,,,,,4,0,5,,,,,4,,,58,45
15936,note_on,,,,,0,0,8,,,,,7,,,62,30
15936,note_on,,,,,4,0,8,,,,,7,,,58,30
15936,note_off,,,,,192,0,4,,,,,3,,,60,0
15936,note_on,,,,,4,0,7,,,,,6,,,38,39
15936,note_off,,,,,96,0,3,,,,,2,,,79,0
15936,note_on,,,,,0,0,3,,,,,2,,,77,49
15936,note_on,,,,,0,0,4,,,,,3,,,62,60
15936,note_on,,,,,4,0,2,,,,,1,,,77,37
15936,note_on,,,,,0,0,8,,,,,7,,,65,30
15936,note_on,,,,,4,0,6,,,,,5,,,50,45
15936,note_on,,,,,4,0,1,,,,,0,,,77,39
15936,note_on,,,,,4,0,9,,,,,8,,,50,30
16028,note_off,,,,,92,0,1,,,,,0,,,77,0
16028,note_off,,,,,92,0,2,,,,,1,,,77,0
16032,note_on,,,,,0,0,3,,,,,2,,,70,49
16032,note_off,,,,,96,0,3,,,,,2,,,77,0
16032,note_on,,,,,4,0,2,,,,,1,,,70,37
16032,note_on,,,,,4,0,1,,,,,0,,,70,39
16124,note_off,,,,,188,0,6,,,,,5,,,50,0
16124,note_off,,,,,188,0,5,,,,,4,,,58,0
16124,note_off,,,,,92,0,2,,,,,1,,,70,0
16124,note_off,,,,,0,0,8,,,,,7,,,65,0
16124,note_off,,,,,0,0,8,,,,,7,,,62,0
16124,note_off,,,,,188,0,9,,,,,8,,,50,0
16124,note_off,,,,,188,0,8,,,,,7,,,58,0
16124,note_off,,,,,188,0,7,,,,,6,,,38,0
16124,note_off,,,,,92,0,1,,,,,0,,,70,0
16128,note_on,,,,,0,0,3,,,,,2,,,69,49
16128,note_on,,,,,0,0,4,,,,,3,,,62,60
16128,note_on,,,,,4,0,6,,,,,5,,,51,45
16128,note_on,,,,,4,0,5,,,,,4,,,58,45
16128,note_on,,,,,4,0,2,,,,,1,,,69,37
16128,note_on,,,,,0,0,8,,,,,7,,,67,30
16128,note_off,,,,,192,0,4,,,,,3,,,62,0
16128,note_off,,,,,96,0,3,,,,,2,,,70,0
16128,note_on,,,,,4,0,1,,,,,0,,,69,39
16128,note_on,,,,,4,0,8,,,,,7,,,58,30
16128,note_on,,,,,4,0,7,,,,,6,,,39,39
16128,note_on,,,,,4,0,9,,,,,8,,,51,30
16128,note_on,,,,,0,0,8,,,,,7,,,62,30
16220,note_off,,,,,92,0,2,,,,,1,,,69,0
16220,note_off,,,,,92,0,1,,,,,0,,,69,0
16224,note_off,,,,,96,0,3,,,,,2,,,69,0
16224,note_on,,,,,0,0,3,,,,,2,,,67,49
16224,note_on,,,,,4,0,1,,,,,0,,,67,39
16224,note_on,,,,,4,0,2,,,,,1,,,67,37
16316,note_off,,,,,92,0,1,,,,,0,,,67,0
16316,note_off,,,,,188,0,5,,,,,4,,,58,0
16316,note_off,,,,,0,0,8,,,,,7,,,67,0
16316,note_off,,,,,188,0,8,,,,,7,,,58,0
16316,note_off,,,,,0,0,8,,,,,7,,,62,0
16316,note_off,,,,,92,0,2,,,,,1,,,67,0
16316,note_off,,,,,188,0,7,,,,,6,,,39,0
16316,note_off,,,,,188,0,9,,,,,8,,,51,0
16316,note_off,,,,,188,0,6,,,,,5,,,51,0
16320,note_on,,,,,4,0,1,,,,,0,,,65,39
16320,note_on,,,,,4,0,2,,,,,1,,,65,37
16320,note_off,,,,,192,0,4,,,,,3,,,62,0
16320,note_on,,,,,0,0,4,,,,,3,,,60,60
16320,note_on,,,,,4,0,9,,,,,8,,,53,30
16320,note_on,,,,,4,0,5,,,,,4,,,57,45
16320,note_on,,,,,0,0,8,,,,,7,,,60,30
16320,note_on,,,,,4,0,7,,,,,6,,,41,39
16320,note_on,,,,,4,0,8,,,,,7,,,57,30
16320,note_on,,,,,0,0,8,,,,,7,,,65,30
16320,note_on,,,,,0,0,3,,,,,2,,,65,49
16320,note_off,,,,,96,0,3,,,,,2,,,67,0
16320,note_on,,,,,4,0,6,,,,,5,,,53,45
16508,note_off,,,,,188,0,6,,,,,5,,,53,0
16508,note_off,,,,,188,0,9,,,,,8,,,53,0
16508,note_off,,,,,188,0,8,,,,,7,,,57,0
16508,note_off,,,,,188,0,5,,,,,4,,,57,0
16508,note_off,,,,,188,0,7,,,,,6,,,41,0
16508,note_off,,,,,0,0,8,,,,,7,,,65,0
16508,note_off,,,,,0,0,8,,,,,7,,,60,0
16512,note_on,,,,,0,0,8,,,,,7,,,65,30
16512,note_off,,,,,192,0,4,,,,,3,,,60,0
16512,note_on,,,,,0,0,4,,,,,3,,,77,60
16512,note_on,,,,,4,0,8,,,,,7,,,60,30
16512,note_on,,,,,4,0,7,,,,,6,,,33,39
16512,note_on,,,,,4,0,5,,,,,4,,,60,45
16512,note_on,,,,,4,0,6,,,,,5,,,45,45
16512,note_on,,,,,4,0,9,,,,,8,,,45,30
16604,note_off,,,,,284,0,2,,,,,1,,,65,0
16604,note_off,,,,,284,0,1,,,,,0,,,65,0
16608,note_on,,,,,4,0,2,,,,,1,,,77,37
16608,note_off,,,,,288,0,3,,,,,2,,,65,0
16608,note_on,,,,,0,0,3,,,,,2,,,77,49
16608,note_on,,,,,4,0,1,,,,,0,,,77,39
16700,note_off,,,,,0,0,8,,,,,7,,,65,0
16700,note_off,,,,,188,0,7,,,,,6,,,33,0
16700,note_off,,,,,188,0,8,,,,,7,,,60,0
16700,note_off,,,,,188,0,9,,,,,8,,,45,0
16700,note_off,,,,,188,0,6,,,,,5,,,45,0
16700,note_off,,,,,188,0,5,,,,,4,,,60,0
16700,note_off,,,,,92,0,2,,,,,1,,,77,0
16700,note_off,,,,,92,0,1,,,,,0,,,77,0
16704,note_on,,,,,4,0,1,,,,,0,,,86,39
16704,note_on,,,,,4,0,7,,,,,6,,,34,39
16704,note_on,,,,,4,0,9,,,,,8,,,46,30
16704,note_on,,,,,0,0,3,,,,,2,,,86,49
16704,note_on,,,,,4,0,2,,,,,1,,,86,37
16704,note_on,,,,,0,0,8,,,,,7,,,70,30
16704,note_on,,,,,0,0,8,,,,,7,,,65,30
16704,note_on,,,,,4,0,8,,,,,7,,,62,30
16704,note_on,,,,,4,0,6,,,,,5,,,46,45
16704,note_off,,,,,192,0,4,,,,,3,,,77,0
16704,note_on,,,,,4,0,5,,,,,4,,,58,45
16704,note_off,,,,,96,0,3,,,,,2,,,77,0
16704,note_on,,,,,0,0,4,,,,,3,,,77,60
16800,note_off,,,,,96,0,3,,,,,2,,,86,0
16800,note_off,,,,,96,0,2,,,,,1,,,86,0
16800,note_on,,,,,0,0,2,,,,,1,,,84,37
16800,note_off,,,,,96,0,1,,,,,0,,,86,0
16800,note_on,,,,,0,0,1,,,,,0,,,84,39
16800,note_on,,,,,0,0,3,,,,,2,,,82,49
16892,note_off,,,,,188,0,7,,,,,6,,,34,0
16892,note_off,,,,,92,0,1,,,,,0,,,84,0
16892,note_off,,,,,188,0,9,,,,,8,,,46,0
16892,note_off,,,,,188,0,8,,,,,7,,,62,0
16892,note_off,,,,,188,0,6,,,,,5,,,46,0
16892,note_off,,,,,92,0,2,,,,,1,,,84,0
16892,note_off,,,,,188,0,5,,,,,4,,,58,0
16892,note_off,,,,,0,0,8,,,,,7,,,65,0
16892,note_off,,,,,0,0,8,,,,,7,,,70,0
16896,note_off,,,,,192,0,4,,,,,3,,,77,0
16896,note_off,,,,,96,0,3,,,,,2,,,82,0
16896,note_on,,,,,4,0,5,,,,,4,,,69,45
16896,note_on,,,,,4,0,6,,,,,5,,,48,45
16896,note_on,,,,,4,0,9,,,,,8,,,48,30
16896,note_on,,,,,4,0,1,,,,,0,,,81,39
16896,note_on,,,,,4,0,7,,,,,6,,,36,39
16896,note_on,,,,,0,0,3,,,,,2,,,79,49
16896,note_on,,,,,4,0,2,,,,,1,,,81,37
16896,note_on,,,,,0,0,4,,,,,3,,,77,60
16896,note_on,,,,,4,0,8,,,,,7,,,60,30
16896,note_on,,,,,0,0,8,,,,,7,,,69,30
16896,note_on,,,,,0,0,8,,,,,7,,,63,30
16992,note_off,,,,,96,0,2,,,,,1,,,81,0
16992,note_on,,,,,0,0,1,,,,,0,,,82,39
16992,note_on,,,,,0,0,2,,,,,1,,,82,37
16992,note_off,,,,,96,0,1,,,,,0,,,81,0
16992,note_off,,,,,96,0,3,,,,,2,,,79,0
16992,note_on,,,,,0,0,3,,,,,2,,,81,49
17084,note_off,,,,,188,0,9,,,,,8,,,48,0
17084,note_off,,,,,188,0,6,,,,,5,,,48,0
17084,note_off,,,,,0,0,8,,,,,7,,,63,0
17084,note_off,,,,,188,0,8,,,,,7,,,60,0
17084,note_off,,,,,188,0,5,,,,,4,,,69,0
17084,note_off,,,,,92,0,1,,,,,0,,,82,0
17084,note_off,,,,,0,0,8,,,,,7,,,69,0
17084,note_off,,,,,92,0,2,,,,,1,,,82,0
17084,note_off,,,,,188,0,7,,,,,6,,,36,0
17088,note_off,,,,,192,0,4,,,,,3,,,77,0
17088,note_on,,,,,4,0,1,,,,,0,,,77,39
17088,note_on,,,,,4,0,8,,,,,7,,,58,30
17088,note_on,,,,,4,0,6,,,,,5,,,50,45
17088,note_on,,,,,4,0,2,,,,,1,,,77,37
17088,note_on,,,,,4,0,7,,,,,6,,,38,39
17088,note_on,,,,,4,0,9,,,,,8,,,50,30
17088,note_on,,,,,4,0,5,,,,,4,,,70,45
17088,note_off,,,,,96,0,3,,,,,2,,,81,0
17088,note_on,,,,,0,0,3,,,,,2,,,77,49
17088,note_on,,,,,0,0,8,,,,,7,,,70,30
17088,note_on,,,,,0,0,4,,,,,3,,,74,60
17088,note_on,,,,,0,0,8,,,,,7,,,65,30
17184,note_on,,,,,0,0,2,,,,,1,,,79,37
17184,note_on,,,,,0,0,1,,,,,0,,,79,39
17184,note_off,,,,,96,0,2,,,,,1,,,77,0
17184,note_off,,,,,96,0,3,,,,,2,,,77,0
17184,note_on,,,,,0,0,3,,,,,2,,,79,49
17184,note_off,,,,,96,0,1,,,,,0,,,77,0
17276,note_off,,,,,188,0,8,,,,,7,,,58,0
17276,note_off,,,,,0,0,8,,,,,7,,,65,0
17276,note_off,,,,,188,0,7,,,,,6,,,38,0
17276,note_off,,,,,188,0,6,,,,,5,,,50,0
17276,note_off,,,,,92,0,1,,,,,0,,,79,0
17276,note_off,,,,,188,0,5,,,,,4,,,70,0
17276,note_off,,,,,0,0,8,,,,,7,,,70,0
17276,note_off,,,,,92,0,2,,,,,1,,,79,0
17276,note_off,,,,,188,0,9,,,,,8,,,50,0
17280,note_on,,,,,4,0,1,,,,,0,,,74,39
17280,note_on,,,,,0,0,4,,,,,3,,,65,60
17280,note_off,,,,,192,0,4,,,,,3,,,74,0
17280,note_on,,,,,4,0,9,,,,,8,,,46,30
17280,note_on,,,,,4,0,6,,,,,5,,,46,45
17280,note_on,,,,,4,0,7,,,,,6,,,34,39
17280,note_on,,,,,0,0,8,,,,,7,,,65,30
17280,note_off,,,,,96,0,3,,,,,2,,,79,0
17280,note_on,,,,,4,0,5,,,,,4,,,70,45
17280,note_on,,,,,4,0,8,,,,,7,,,62,30
17280,note_on,,,,,4,0,2,,,,,1,,,74,37
17280,note_on,,,,,0,0,3,,,,,2,,,74,49
17376,note_off,,,,,96,0,3,,,,,2,,,74,0
17376,note_on,,,,,0,0,3,,,,,2,,,75,49
17376,note_on,,,,,0,0,1,,,,,0,,,75,39
17376,note_off,,,,,96,0,1,,,,,0,,,74,0
17376,note_off,,,,,96,0,2,,,,,1,,,74,0
17376,note_on,,,,,0,0,2,,,,,1,,,75,37
17468,note_off,,,,,188,0,8,,,,,7,,,62,0
17468,note_off,,,,,188,0,5,,,,,4,,,70,0
17468,note_off,,,,,188,0,6,,,,,5,,,46,0
17468,note_off,,,,,0,0,8,,,,,7,,,65,0
17468,note_off,,,,,92,0,1,,,,,0,,,75,0
17468,note_off,,,,,188,0,9,,,,,8,,,46,0
17468,note_off,,,,,188,0,7,,,,,6,,,34,0
17468,note_off,,,,,92,0,2,,,,,1,,,75,0
17472,note_on,,,,,4,0,2,,,,,1,,,70,37
17472,note_on,,,,,4,0,5,,,,,4,,,58,45
17472,note_on,,,,,4,0,7,,,,,6,,,43,39
17472,note_off,,,,,192,0,4,,,,,3,,,65,0
17472,note_on,,,,,0,0,4,,,,,3,,,65,60
17472,note_on,,,,,4,0,6,,,,,5,,,55,45
17472,note_on,,,,,0,0,3,,,,,2,,,70,49
17472,note_on,,,,,4,0,1,,,,,0,,,70,39
17472,note_on,,,,,4,0,9,,,,,8,,,55,30
17472,note_off,,,,,96,0,3,,,,,2,,,75,0
17472,note_on,,,,,4,0,8,,,,,7,,,58,30
17472,note_on,,,,,0,0,8,,,,,7,,,65,30
17568,note_on,,,,,0,0,1,,,,,0,,,72,39
17568,note_off,,,,,96,0,1,,,,,0,,,70,0
17568,note_on,,,,,0,0,2,,,,,1,,,72,37
17568,note_on,,,,,0,0,3,,,,,2,,,72,49
17568,note_off,,,,,96,0,3,,,,,2,,,70,0
17568,note_off,,,,,96,0,2,,,,,1,,,70,0
17660,note_off,,,,,188,0,9,,,,,8,,,55,0
17660,note_off,,,,,188,0,5,,,,,4,,,58,0
17660,note_off,,,,,188,0,8,,,,,7,,,58,0
17660,note_off,,,,,92,0,1,,,,,0,,,72,0
17660,note_off,,,,,0,0,8,,,,,7,,,65,0
17660,note_off,,,,,188,0,6,,,,,5,,,55,0
17660,note_off,,,,,92,0,2,,,,,1,,,72,0
17660,note_off,,,,,188,0,7,,,,,6,,,43,0
17664,note_off,,,,,192,0,4,,,,,3,,,65,0
17664,note_on,,,,,0,0,4,,,,,3,,,64,60
17664,note_on,,,,,4,0,1,,,,,0,,,69,39
17664,note_on,,,,,0,0,3,,,,,2,,,69,49
17664,note_off,,,,,96,0,3,,,,,2,,,72,0
17664,note_on,,,,,4,0,9,,,,,8,,,48,30
17664,note_on,,,,,4,0,6,,,,,5,,,48,45
17664,note_on,,,,,4,0,5,,,,,4,,,60,45
17664,note_on,,,,,4,0,8,,,,,7,,,60,30
17664,note_on,,,,,0,0,8,,,,,7,,,64,30
17664,note_on,,,,,4,0,7,,,,,6,,,36,39
17664,note_on,,,,,4,0,2,,,,,1,,,69,37
17760,note_off,,,,,96,0,1,,,,,0,,,69,0
17760,note_on,,,,,0,0,3,,,,,2,,,70,49
17760,note_off,,,,,96,0,2,,,,,1,,,69,0
17760,note_on,,,,,0,0,1,,,,,0,,,70,39
17760,note_off,,,,,96,0,3,,,,,2,,,69,0
17760,note_on,,,,,0,0,2,,,,,1,,,70,37
17852,note_off,,,,,0,0,8,,,,,7,,,64,0
17852,note_off,,,,,92,0,1,,,,,0,,,70,0
17852,note_off,,,,,188,0,7,,,,,6,,,36,0
17852,note_off,,,,,92,0,2,,,,,1,,,70,0
17852,note_off,,,,,188,0,9,,,,,8,,,48,0
17852,note_off,,,,,188,0,5,,,,,4,,,60,0
17852,note_off,,,,,188,0,8,,,,,7,,,60,0
17852,note_off,,,,,188,0,6,,,,,5,,,48,0
17856,note_on,,,,,4,0,2,,,,,1,,,65,37
17856,note_on,,,,,4,0,7,,,,,6,,,45,39
17856,note_off,,,,,96,0,3,,,,,2,,,70,0
17856,note_on,,,,,0,0,4,,,,,3,,,65,60
17856,note_on,,,,,4,0,5,,,,,4,,,60,45
17856,note_on,,,,,4,0,8,,,,,7,,,60,30
17856,note_on,,,,,0,0,8,,,,,7,,,65,30
17856,note_off,,,,,192,0,4,,,,,3,,,64,0
17856,note_on,,,,,0,0,3,,,,,2,,,65,49
17856,note_on,,,,,4,0,1,,,,,0,,,65,39
17856,note_on,,,,,4,0,6,,,,,5,,,57,45
17856,note_on,,,,,4,0,9,,,,,8,,,57,30
18044,note_off,,,,,188,0,5,,,,,4,,,60,0
18044,note_off,,,,,188,0,7,,,,,6,,,45,0
18044,note_off,,,,,188,0,9,,,,,8,,,57,0
18044,note_off,,,,,188,0,8,,,,,7,,,60,0
18044,note_off,,,,,0,0,8,,,,,7,,,65,0
18044,note_off,,,,,188,0,6,,,,,5,,,57,0
18048,note_on,,,,,0,0,8,,,,,7,,,65,30
18048,note_on,,,,,4,0,9,,,,,8,,,58,30
18048,note_on,,,,,4,0,8,,,,,7,,,62,30
18048,note_on,,,,,4,0,7,,,,,6,,,46,39
18048,note_on,,,,,0,0,4,,,,,3,,,77,60
18048,note_on,,,,,4,0,5,,,,,4,,,62,45
18048,note_off,,,,,192,0,4,,,,,3,,,65,0
18048,note_on,,,,,4,0,6,,,,,5,,,58,45
18140,note_off,,,,,284,0,1,,,,,0,,,65,0
18140,note_off,,,,,284,0,2,,,,,1,,,65,0
18144,note_on,,,,,0,0,3,,,,,2,,,86,49
18144,note_on,,,,,4,0,2,,,,,1,,,86,37
18144,note_off,,,,,288,0,3,,,,,2,,,65,0
18144,note_on,,,,,4,0,1,,,,,0,,,86,39
18236,note_off,,,,,0,0,8,,,,,7,,,65,0
18236,note_off,,,,,188,0,6,,,,,5,,,58,0
18236,note_off,,,,,188,0,8,,,,,7,,,62,0
18236,note_off,,,,,188,0,9,,,,,8,,,58,0
18236,note_off,,,,,188,0,7,,,,,6,,,46,0
18236,note_off,,,,,188,0,5,,,,,4,,,62,0
18236,note_off,,,,,92,0,1,,,,,0,,,86,0
18236,note_off,,,,,92,0,2,,,,,1,,,86,0
18240,note_on,,,,,4,0,5,,,,,4,,,58,45
18240,note_off,,,,,192,0,4,,,,,3,,,77,0
18240,note_on,,,,,4,0,9,,,,,8,,,46,30
18240,note_on,,,,,4,0,1,,,,,0,,,86,39
18240,note_on,,,,,0,0,4,,,,,3,,,77,60
18240,note_on,,,,,0,0,8,,,,,7,,,70,30
18240,note_on,,,,,4,0,8,,,,,7,,,62,30
18240,note_on,,,,,0,0,8,,,,,7,,,65,30
18240,note_on,,,,,4,0,6,,,,,5,,,46,45
18240,note_on,,,,,4,0,7,,,,,6,,,34,39
18240,note_off,,,,,96,0,3,,,,,2,,,86,0
18240,note_on,,,,,0,0,3,,,,,2,,,86,49
18240,note_on,,,,,4,0,2,,,,,1,,,86,37
18336,note_on,,,,,0,0,2,,,,,1,,,84,37
18336,note_off,,,,,96,0,3,,,,,2,,,86,0
18336,note_on,,,,,0,0,3,,,,,2,,,84,49
18336,note_off,,,,,96,0,1,,,,,0,,,86,0
18336,note_on,,,,,0,0,1,,,,,0,,,84,39
18336,note_off,,,,,96,0,2,,,,,1,,,86,0
18428,note_off,,,,,188,0,6,,,,,5,,,46,0
18428,note_off,,,,,0,0,8,,,,,7,,,70,0
18428,note_off,,,,,188,0,7,,,,,6,,,34,0
18428,note_off,,,,,188,0,8,,,,,7,,,62,0
18428,note_off,,,,,0,0,8,,,,,7,,,65,0
18428,note_off,,,,,92,0,1,,,,,0,,,84,0
18428,note_off,,,,,188,0,5,,,,,4,,,58,0
18428,note_off,,,,,92,0,2,,,,,1,,,84,0
18428,note_off,,,,,188,0,9,,,,,8,,,46,0
18432,note_on,,,,,4,0,7,,,,,6,,,36,39
18432,note_on,,,,,4,0,2,,,,,1,,,81,37
18432,note_on,,,,,4,0,1,,,,,0,,,81,39
18432,note_off,,,,,192,0,4,,,,,3,,,77,0
18432,note_on,,,,,0,0,8,,,,,7,,,63,30
18432,note_off,,,,,96,0,3,,,,,2,,,84,0
18432,note_on,,,,,4,0,6,,,,,5,,,48,45
18432,note_on,,,,,4,0,8,,,,,7,,,60,30
18432,note_on,,,,,0,0,3,,,,,2,,,81,49
18432,note_on,,,,,0,0,4,,,,,3,,,75,60
18432,note_on,,,,,4,0,5,,,,,4,,,69,45
18432,note_on,,,,,4,0,9,,,,,8,,,48,30
18432,note_on,,,,,0,0,8,,,,,7,,,69,30
18528,note_off,,,,,96,0,3,,,,,2,,,81,0
18528,note_on,,,,,0,0,3,,,,,2,,,82,49
18528,note_on,,,,,0,0,1,,,,,0,,,82,39
18528,note_off,,,,,96,0,2,,,,,1,,,81,0
18528,note_on,,,,,0,0,2,,,,,1,,,82,37
18528,note_off,,,,,96,0,1,,,,,0,,,81,0
18620,note_off,,,,,92,0,1,,,,,0,,,82,0
18620,note_off,,,,,188,0,6,,,,,5,,,48,0
18620,note_off,,,,,92,0,2,,,,,1,,,82,0
18620,note_off,,,,,188,0,9,,,,,8,,,48,0
18620,note_off,,,,,188,0,5,,,,,4,,,69,0
18620,note_off,,,,,188,0,7,,,,,6,,,36,0
18620,note_off,,,,,0,0,8,,,,,7,,,69,0
18620,note_off,,,,,0,0,8,,,,,7,,,63,0
18620,note_off,,,,,188,0,8,,,,,7,,,60,0
18624,note_on,,,,,4,0,7,,,,,6,,,38,39
18624,note_on,,,,,0,0,4,,,,,3,,,74,60
18624,note_off,,,,,192,0,4,,,,,3,,,75,0
18624,note_off,,,,,96,0,3,,,,,2,,,82,0
18624,note_on,,,,,0,0,3,,,,,2,,,77,49
18624,note_on,,,,,4,0,1,,,,,0,,,77,39
18624,note_on,,,,,4,0,5,,,,,4,,,70,45
18624,note_on,,,,,0,0,8,,,,,7,,,70,30
18624,note_on,,,,,0,0,8,,,,,7,,,65,30
18624,note_on,,,,,4,0,8,,,,,7,,,58,30
18624,note_on,,,,,4,0,9,,,,,8,,,50,30
18624,note_on,,,,,4,0,6,,,,,5,,,50,45
18624,note_on,,,,,4,0,2,,,,,1,,,77,37
18720,note_off,,,,,96,0,2,,,,,1,,,77,0
18720,note_on,,,,,0,0,2,,,,,1,,,79,37
18720,note_off,,,,,96,0,3,,,,,2,,,77,0
18720,note_on,,,,,0,0,3,,,,,2,,,79,49
18720,note_off,,,,,96,0,1,,,,,0,,,77,0
18720,note_on,,,,,0,0,1,,,,,0,,,79,39
18812,note_off,,,,,0,0,8,,,,,7,,,70,0
18812,note_off,,,,,188,0,7,,,,,6,,,38,0
18812,note_off,,,,,0,0,8,,,,,7,,,65,0
18812,note_off,,,,,188,0,8,,,,,7,,,58,0
18812,note_off,,,,,92,0,1,,,,,0,,,79,0
18812,note_off,,,,,188,0,5,,,,,4,,,70,0
18812,note_off,,,,,188,0,9,,,,,8,,,50,0
18812,note_off,,,,,92,0,2,,,,,1,,,79,0
18812,note_off,,,,,188,0,6,,,,,5,,,50,0
18816,note_on,,,,,0,0,4,,,,,3,,,65,60
18816,note_on,,,,,4,0,2,,,,,1,,,74,37
18816,note_off,,,,,96,0,3,,,,,2,,,79,0
18816,note_on,,,,,0,0,3,,,,,2,,,74,49
18816,note_on,,,,,4,0,1,,,,,0,,,74,39
18816,note_on,,,,,4,0,5,,,,,4,,,70,45
18816,note_off,,,,,192,0,4,,,,,3,,,74,0
18816,note_on,,,,,4,0,7,,,,,6,,,34,39
18816,note_on,,,,,4,0,8,,,,,7,,,62,30
18816,note_on,,,,,4,0,6,,,,,5,,,46,45
18816,note_on,,,,,4,0,9,,,,,8,,,46,30
18816,note_on,,,,,0,0,8,,,,,7,,,65,30
18912,note_on,,,,,0,0,3,,,,,2,,,75,49
18912,note_off,,,,,96,0,3,,,,,2,,,74,0
18912,note_off,,,,,96,0,1,,,,,0,,,74,0
18912,note_on,,,,,0,0,1,,,,,0,,,75,39
18912,note_on,,,,,0,0,2,,,,,1,,,75,37
18912,note_off,,,,,96,0,2,,,,,1,,,74,0
19004,note_off,,,,,0,0,8,,,,,7,,,65,0
19004,note_off,,,,,92,0,2,,,,,1,,,75,0
19004,note_off,,,,,188,0,6,,,,,5,,,46,0
19004,note_off,,,,,188,0,7,,,,,6,,,34,0
19004,note_off,,,,,188,0,5,,,,,4,,,70,0
19004,note_off,,,,,92,0,1,,,,,0,,,75,0
19004,note_off,,,,,188,0,9,,,,,8,,,46,0
19004,note_off,,,,,188,0,8,,,,,7,,,62,0
19008,note_on,,,,,4,0,6,,,,,5,,,55,45
19008,note_on,,,,,4,0,1,,,,,0,,,70,39
19008,note_on,,,,,0,0,3,,,,,2,,,70,49
19008,note_off,,,,,192,0,4,,,,,3,,,65,0
19008,note_on,,,,,0,0,4,,,,,3,,,65,60
19008,note_off,,,,,96,0,3,,,,,2,,,75,0
19008,note_on,,,,,4,0,5,,,,,4,,,58,45
19008,note_on,,,,,0,0,8,,,,,7,,,65,30
19008,note_on,,,,,4,0,8,,,,,7,,,58,30
19008,note_on,,,,,4,0,7,,,,,6,,,43,39
19008,note_on,,,,,4,0,2,,,,,1,,,70,37
19008,note_on,,,,,4,0,9,,,,,8,,,55,30
19104,note_on,,,,,0,0,3,,,,,2,,,72,49
19104,note_on,,,,,0,0,2,,,,,1,,,72,37
19104,note_off,,,,,96,0,1,,,,,0,,,70,0
19104,note_on,,,,,0,0,1,,,,,0,,,72,39
19104,note_off,,,,,96,0,2,,,,,1,,,70,0
19104,note_off,,,,,96,0,3,,,,,2,,,70,0
19196,note_off,,,,,188,0,7,,,,,6,,,43,0
19196,note_off,,,,,188,0,5,,,,,4,,,58,0
19196,note_off,,,,,92,0,1,,,,,0,,,72,0
19196,note_off,,,,,188,0,9,,,,,8,,,55,0
19196,note_off,,,,,92,0,2,,,,,1,,,72,0
19196,note_off,,,,,0,0,8,,,,,7,,,65,0
19196,note_off,,,,,188,0,6,,,,,5,,,55,0
19196,note_off,,,,,188,0,8,,,,,7,,,58,0
19200,note_off,,,,,96,0,3,,,,,2,,,72,0
19200,note_on,,,,,0,0,3,,,,,2,,,69,49
19200,note_on,,,,,4,0,2,,,,,1,,,69,37
19200,note_on,,,,,4,0,7,,,,,6,,,36,39
19200,note_on,,,,,4,0,5,,,,,4,,,60,45
19200,note_on,,,,,4,0,1,,,,,0,,,69,39
19200,note_on,,,,,4,0,8,,,,,7,,,60,30
19200,note_off,,,,,192,0,4,,,,,3,,,65,0
19200,note_on,,,,,0,0,4,,,,,3,,,64,60
19200,note_on,,,,,4,0,6,,,,,5,,,48,45
19200,note_on,,,,,4,0,9,,,,,8,,,48,30
19200,note_on,,,,,0,0,8,,,,,7,,,64,30
19296,note_on,,,,,0,0,1,,,,,0,,,70,39
19296,note_on,,,,,0,0,2,,,,,1,,,70,37
19296,note_off,,,,,96,0,2,,,,,1,,,69,0
19296,note_on,,,,,0,0,3,,,,,2,,,70,49
19296,note_off,,,,,96,0,3,,,,,2,,,69,0
19296,note_off,,,,,96,0,1,,,,,0,,,69,0
19388,note_off,,,,,188,0,5,,,,,4,,,60,0
19388,note_off,,,,,0,0,8,,,,,7,,,64,0
19388,note_off,,,,,188,0,9,,,,,8,,,48,0
19388,note_off,,,,,188,0,7,,,,,6,,,36,0
19388,note_off,,,,,188,0,6,,,,,5,,,48,0
19388,note_off,,,,,188,0,8,,,,,7,,,60,0
19388,note_off,,,,,92,0,2,,,,,1,,,70,0
19388,note_off,,,,,92,0,1,,,,,0,,,70,0
19392,note_on,,,,,4,0,7,,,,,6,,,45,39
19392,note_on,,,,,4,0,5,,,,,4,,,60,45
19392,note_on,,,,,4,0,1,,,,,0,,,65,39
19392,note_on,,,,,4,0,6,,,,,5,,,57,45
19392,note_on,,,,,4,0,9,,,,,8,,,57,30
19392,note_on,,,,,0,0,4,,,,,3,,,65,60
19392,note_on,,,,,0,0,8,,,,,7,,,65,30
19392,note_off,,,,,192,0,4,,,,,3,,,64,0
19392,note_on,,,,,4,0,2,,,,,1,,,65,37
19392,note_on,,,,,4,0,8,,,,,7,,,60,30
19392,note_off,,,,,96,0,3,,,,,2,,,70,0
19392,note_on,,,,,0,0,3,,,,,2,,,65,49
19580,note_off,,,,,188,0,8,,,,,7,,,60,0
19580,note_off,,,,,188,0,9,,,,,8,,,57,0
19580,note_off,,,,,188,0,7,,,,,6,,,45,0
19580,note_off,,,,,188,0,5,,,,,4,,,60,0
19580,note_off,,,,,188,0,2,,,,,1,,,65,0
19580,note_off,,,,,0,0,8,,,,,7,,,65,0
19580,note_off,,,,,188,0,6,,,,,5,,,57,0
19580,note_off,,,,,188,0,1,,,,,0,,,65,0
19584,note_on,,,,,4,0,9,,,,,8,,,45,30
19584,note_on,,,,,0,0,4,,,,,3,,,65,60
19584,note_on,,,,,4,0,2,,,,,1,,,65,37
19584,note_off,,,,,192,0,4,,,,,3,,,65,0
19584,note_on,,,,,4,0,6,,,,,5,,,45,45
19584,note_on,,,,,4,0,5,,,,,4,,,60,45
19584,note_off,,,,,192,0,3,,,,,2,,,65,0
19584,note_on,,,,,4,0,8,,,,,7,,,60,30
19584,note_on,,,,,0,0,8,,,,,7,,,65,30
19584,note_on,,,,,4,0,1,,,,,0,,,65,39
19584,note_on,,,,,0,0,3,,,,,2,,,65,49
19584,note_on,,,,,4,0,7,,,,,6,,,33,39
19680,note_on,,,,,0,0,1,,,,,0,,,67,39
19680,note_off,,,,,96,0,1,,,,,0,,,65,0
19680,note_off,,,,,96,0,3,,,,,2,,,65,0
19680,note_off,,,,,96,0,2,,,,,1,,,65,0
19680,note_on,,,,,0,0,2,,,,,1,,,67,37
19680,note_on,,,,,0,0,3,,,,,2,,,67,49
19772,note_off,,,,,188,0,9,,,,,8,,,45,0
19772,note_off,,,,,188,0,5,,,,,4,,,60,0
19772,note_off,,,,,92,0,2,,,,,1,,,67,0
19772,note_off,,,,,188,0,8,,,,,7,,,60,0
19772,note_off,,,,,0,0,8,,,,,7,,,65,0
19772,note_off,,,,,188,0,6,,,,,5,,,45,0
19772,note_off,,,,,188,0,7,,,,,6,,,33,0
19772,note_off,,,,,92,0,1,,,,,0,,,67,0
19776,note_on,,,,,4,0,7,,,,,6,,,34,39
19776,note_on,,,,,4,0,5,,,,,4,,,58,45
19776,note_on,,,,,4,0,2,,,,,1,,,67,37
19776,note_on,,,,,4,0,9,,,,,8,,,46,30
19776,note_on,,,,,0,0,8,,,,,7,,,64,30
19776,note_on,,,,,4,0,6,,,,,5,,,46,45
19776,note_on,,,,,0,0,4,,,,,3,,,64,60
19776,note_on,,,,,4,0,1,,,,,0,,,67,39
19776,note_off,,,,,192,0,4,,,,,3,,,65,0
19776,note_on,,,,,0,0,8,,,,,7,,,67,30
19776,note_off,,,,,96,0,3,,,,,2,,,67,0
19776,note_on,,,,,0,0,3,,,,,2,,,67,49
19776,note_on,,,,,4,0,8,,,,,7,,,60,30
19872,note_off,,,,,96,0,3,,,,,2,,,67,0
19872,note_off,,,,,96,0,1,,,,,0,,,67,0
19872,note_off,,,,,96,0,2,,,,,1,,,67,0
19872,note_on,,,,,0,0,2,,,,,1,,,69,37
19872,note_on,,,,,0,0,1,,,,,0,,,69,39
19872,note_on,,,,,0,0,3,,,,,2,,,69,49
19964,note_off,,,,,188,0,8,,,,,7,,,60,0
19964,note_off,,,,,0,0,8,,,,,7,,,67,0
19964,note_off,,,,,92,0,1,,,,,0,,,69,0
19964,note_off,,,,,188,0,7,,,,,6,,,34,0
19964,note_off,,,,,0,0,8,,,,,7,,,64,0
19964,note_off,,,,,188,0,9,,,,,8,,,46,0
19964,note_off,,,,,92,0,2,,,,,1,,,69,0
19964,note_off,,,,,188,0,5,,,,,4,,,58,0
19964,note_off,,,,,188,0,6,,,,,5,,,46,0
19968,note_on,,,,,4,0,2,,,,,1,,,69,37
19968,note_on,,,,,4,0,6,,,,,5,,,45,45
19968,note_on,,,,,4,0,8,,,,,7,,,60,30
19968,note_off,,,,,192,0,4,,,,,3,,,64,0
19968,note_on,,,,,0,0,4,,,,,3,,,65,60
19968,note_on,,,,,0,0,8,,,,,7,,,69,30
19968,note_on,,,,,4,0,7,,,,,6,,,33,39
19968,note_on,,,,,4,0,9,,,,,8,,,45,30
19968,note_on,,,,,0,0,8,,,,,7,,,65,30
19968,note_off,,,,,96,0,3,,,,,2,,,69,0
19968,note_on,,,,,0,0,3,,,,,2,,,69,49
19968,note_on,,,,,4,0,5,,,,,4,,,60,45
19968,note_on,,,,,4,0,1,,,,,0,,,69,39
20064,note_on,,,,,0,0,2,,,,,1,,,70,37
20064,note_on,,,,,0,0,1,,,,,0,,,70,39
20064,note_off,,,,,96,0,2,,,,,1,,,69,0
20064,note_off,,,,,96,0,1,,,,,0,,,69,0
20064,note_on,,,,,0,0,3,,,,,2,,,70,49
20064,note_off,,,,,96,0,3,,,,,2,,,69,0
20156,note_off,,,,,0,0,8,,,,,7,,,65,0
20156,note_off,,,,,188,0,7,,,,,6,,,33,0
20156,note_off,,,,,188,0,5,,,,,4,,,60,0
20156,note_off,,,,,188,0,9,,,,,8,,,45,0
20156,note_off,,,,,188,0,6,,,,,5,,,45,0
20156,note_off,,,,,92,0,2,,,,,1,,,70,0
20156,note_off,,,,,188,0,8,,,,,7,,,60,0
20156,note_off,,,,,0,0,8,,,,,7,,,69,0
20156,note_off,,,,,92,0,1,,,,,0,,,70,0
20160,note_on,,,,,0,0,4,,,,,3,,,67,60
20160,note_off,,,,,192,0,4,,,,,3,,,65,0
20160,note_on,,,,,4,0,5,,,,,4,,,62,45
20160,note_on,,,,,4,0,1,,,,,0,,,70,39
20160,note_on,,,,,4,0,9,,,,,8,,,43,30
20160,note_on,,,,,4,0,8,,,,,7,,,62,30
20160,note_on,,,,,0,0,8,,,,,7,,,67,30
20160,note_on,,,,,0,0,8,,,,,7,,,70,30
20160,note_on,,,,,4,0,7,,,,,6,,,31,39
20160,note_on,,,,,0,0,3,,,,,2,,,70,49
20160,note_off,,,,,96,0,3,,,,,2,,,70,0
20160,note_on,,,,,4,0,6,,,,,5,,,43,45
20160,note_on,,,,,4,0,2,,,,,1,,,70,37
20256,note_on,,,,,0,0,1,,,,,0,,,72,39
20256,note_off,,,,,96,0,1,,,,,0,,,70,0
20256,note_on,,,,,0,0,4,,,,,3,,,69,60
20256,note_off,,,,,96,0,3,,,,,2,,,70,0
20256,note_on,,,,,0,0,3,,,,,2,,,72,49
20256,note_off,,,,,96,0,4,,,,,3,,,67,0
20256,note_off,,,,,96,0,2,,,,,1,,,70,0
20256,note_on,,,,,0,0,2,,,,,1,,,72,37
20348,note_off,,,,,92,0,2,,,,,1,,,72,0
20348,note_off,,,,,188,0,7,,,,,6,,,31,0
20348,note_off,,,,,92,0,1,,,,,0,,,72,0
20348,note_off,,,,,0,0,8,,,,,7,,,70,0
20348,note_off,,,,,0,0,8,,,,,7,,,67,0
20348,note_off,,,,,188,0,6,,,,,5,,,43,0
20348,note_off,,,,,188,0,5,,,,,4,,,62,0
20348,note_off,,,,,188,0,9,,,,,8,,,43,0
20348,note_off,,,,,188,0,8,,,,,7,,,62,0
20352,note_on,,,,,0,0,3,,,,,2,,,72,49
20352,note_on,,,,,4,0,6,,,,,5,,,43,45
20352,note_off,,,,,96,0,3,,,,,2,,,72,0
20352,note_on,,,,,4,0,2,,,,,1,,,72,37
20352,note_on,,,,,0,0,8,,,,,7,,,67,30
20352,note_on,,,,,4,0,1,,,,,0,,,72,39
20352,note_on,,,,,4,0,5,,,,,4,,,62,45
20352,note_on,,,,,0,0,8,,,,,7,,,70,30
20352,note_on,,,,,4,0,8,,,,,7,,,62,30
20352,note_off,,,,,96,0,4,,,,,3,,,69,0
20352,note_on,,,,,0,0,4,,,,,3,,,69,60
20352,note_on,,,,,4,0,9,,,,,8,,,43,30
20352,note_on,,,,,4,0,7,,,,,6,,,31,39
20448,note_off,,,,,96,0,3,,,,,2,,,72,0
20448,note_off,,,,,96,0,2,,,,,1,,,72,0
20448,note_on,,,,,0,0,3,,,,,2,,,74,49
20448,note_off,,,,,96,0,1,,,,,0,,,72,0
20448,note_on,,,,,0,0,1,,,,,0,,,74,39
20448,note_on,,,,,0,0,2,,,,,1,,,74,37
20448,note_off,,,,,96,0,4,,,,,3,,,69,0
20448,note_on,,,,,0,0,4,,,,,3,,,70,60
20540,note_off,,,,,0,0,8,,,,,7,,,70,0
20540,note_off,,,,,0,0,8,,,,,7,,,67,0
20540,note_off,,,,,92,0,2,,,,,1,,,74,0
20540,note_off,,,,,188,0,6,,,,,5,,,43,0
20540,note_off,,,,,188,0,9,,,,,8,,,43,0
20540,note_off,,,,,188,0,7,,,,,6,,,31,0
20540,note_off,,,,,92,0,1,,,,,0,,,74,0
20540,note_off,,,,,188,0,8,,,,,7,,,62,0
20540,note_off,,,,,188,0,5,,,,,4,,,62,0
20544,note_on,,,,,4,0,1,,,,,0,,,74,39
20544,note_off,,,,,96,0,4,,,,,3,,,70,0
20544,note_on,,,,,0,0,8,,,,,7,,,70,30
20544,note_off,,,,,96,0,3,,,,,2,,,74,0
20544,note_on,,,,,4,0,6,,,,,5,,,55,45
20544,note_on,,,,,0,0,3,,,,,2,,,74,49
20544,note_on,,,,,4,0,2,,,,,1,,,74,37
20544,note_on,,,,,0,0,8,,,,,7,,,67,30
20544,note_on,,,,,4,0,8,,,,,7,,,62,30
20544,note_on,,,,,4,0,7,,,,,6,,,43,39
20544,note_on,,,,,0,0,4,,,,,3,,,70,60
20544,note_on,,,,,4,0,9,,,,,8,,,55,30
20544,note_on,,,,,4,0,5,,,,,4,,,67,45
20640,note_off,,,,,96,0,1,,,,,0,,,74,0
20640,note_on,,,,,0,0,1,,,,,0,,,76,39
20640,note_off,,,,,96,0,3,,,,,2,,,74,0
20640,note_on,,,,,0,0,3,,,,,2,,,76,49
20640,note_off,,,,,96,0,2,,,,,1,,,74,0
20640,note_on,,,,,0,0,2,,,,,1,,,76,37
20732,note_off,,,,,188,0,6,,,,,5,,,55,0
20732,note_off,,,,,92,0,1,,,,,0,,,76,0
20732,note_off,,,,,92,0,2,,,,,1,,,76,0
20732,note_off,,,,,188,0,5,,,,,4,,,67,0
20732,note_off,,,,,188,0,9,,,,,8,,,55,0
20732,note_off,,,,,0,0,8,,,,,7,,,70,0
20732,note_off,,,,,0,0,8,,,,,7,,,67,0
20732,note_off,,,,,188,0,8,,,,,7,,,62,0
20732,note_off,,,,,188,0,7,,,,,6,,,43,0
20736,note_on,,,,,0,0,8,,,,,7,,,70,30
20736,note_on,,,,,4,0,5,,,,,4,,,67,45
20736,note_on,,,,,4,0,8,,,,,7,,,62,30
20736,note_off,,,,,192,0,4,,,,,3,,,70,0
20736,note_on,,,,,4,0,1,,,,,0,,,76,39
20736,note_on,,,,,4,0,7,,,,,6,,,41,39
20736,note_off,,,,,96,0,3,,,,,2,,,76,0
20736,note_on,,,,,0,0,3,,,,,2,,,76,49
20736,note_on,,,,,0,0,4,,,,,3,,,70,60
20736,note_on,,,,,0,0,8,,,,,7,,,67,30
20736,note_on,,,,,4,0,2,,,,,1,,,76,37
20736,note_on,,,,,4,0,6,,,,,5,,,53,45
20736,note_on,,,,,4,0,9,,,,,8,,,53,30
20832,note_off,,,,,96,0,2,,,,,1,,,76,0
20832,note_on,,,,,0,0,1,,,,,0,,,77,39
20832,note_off,,,,,96,0,1,,,,,0,,,76,0
20832,note_on,,,,,0,0,2,,,,,1,,,77,37
20832,note_off,,,,,96,0,3,,,,,2,,,76,0
20832,note_on,,,,,0,0,3,,,,,2,,,77,49
20924,note_off,,,,,92,0,2,,,,,1,,,77,0
20924,note_off,,,,,188,0,5,,,,,4,,,67,0
20924,note_off,,,,,92,0,1,,,,,0,,,77,0
20924,note_off,,,,,188,0,7,,,,,6,,,41,0
20924,note_off,,,,,188,0,8,,,,,7,,,62,0
20924,note_off,,,,,0,0,8,,,,,7,,,67,0
20924,note_off,,,,,0,0,8,,,,,7,,,70,0
20924,note_off,,,,,188,0,9,,,,,8,,,53,0
20924,note_off,,,,,188,0,6,,,,,5,,,53,0
20928,note_on,,,,,4,0,6,,,,,5,,,52,45
20928,note_on,,,,,4,0,7,,,,,6,,,40,39
20928,note_on,,,,,4,0,1,,,,,0,,,79,39
20928,note_on,,,,,0,0,8,,,,,7,,,70,30
20928,note_on,,,,,4,0,2,,,,,1,,,79,37
20928,note_on,,,,,4,0,8,,,,,7,,,60,30
20928,note_on,,,,,0,0,3,,,,,2,,,79,49
20928,note_on,,,,,0,0,8,,,,,7,,,67,30
20928,note_on,,,,,4,0,5,,,,,4,,,60,45
20928,note_on,,,,,0,0,4,,,,,3,,,70,60
20928,note_on,,,,,4,0,9,,,,,8,,,52,30
20928,note_off,,,,,96,0,3,,,,,2,,,77,0
20928,note_off,,,,,192,0,4,,,,,3,,,70,0
21116,note_off,,,,,188,0,2,,,,,1,,,79,0
21116,note_off,,,,,188,0,8,,,,,7,,,60,0
21116,note_off,,,,,188,0,5,,,,,4,,,60,0
21116,note_off,,,,,188,0,7,,,,,6,,,40,0
21116,note_off,,,,,0,0,8,,,,,7,,,67,0
21116,note_off,,,,,0,0,8,,,,,7,,,70,0
21116,note_off,,,,,188,0,1,,,,,0,,,79,0
21116,note_off,,,,,188,0,9,,,,,8,,,52,0
21116,note_off,,,,,188,0,6,,,,,5,,,52,0
21120,note_on,,,,,4,0,6,,,,,5,,,53,45
21120,note_off,,,,,192,0,3,,,,,2,,,79,0
21120,note_on,,,,,4,0,8,,,,,7,,,60,30
21120,note_on,,,,,0,0,8,,,,,7,,,65,30
21120,note_on,,,,,0,0,8,,,,,7,,,69,30
21120,note_off,,,,,192,0,4,,,,,3,,,70,0
21120,note_on,,,,,4,0,7,,,,,6,,,41,39
21120,note_on,,,,,4,0,5,,,,,4,,,60,45
21120,note_on,,,,,0,0,3,,,,,2,,,72,49
21120,note_on,,,,,4,0,1,,,,,0,,,72,39
21120,note_on,,,,,4,0,9,,,,,8,,,53,30
21120,note_on,,,,,4,0,2,,,,,1,,,72,37
21120,note_on,,,,,0,0,4,,,,,3,,,69,60
21212,note_off,,,,,92,0,6,,,,,5,,,53,0
21212,note_off,,,,,92,0,7,,,,,6,,,41,0
21212,note_off,,,,,0,0,8,,,,,7,,,69,0
21212,note_off,,,,,92,0,8,,,,,7,,,65,0
21212,note_off,,,,,92,0,9,,,,,8,,,53,0
21216,note_on,,,,,4,0,6,,,,,5,,,52,45
21216,note_on,,,,,4,0,7,,,,,6,,,40,39
21216,note_on,,,,,0,0,4,,,,,3,,,67,60
21216,note_off,,,,,96,0,4,,,,,3,,,69,0
21216,note_on,,,,,4,0,9,,,,,8,,,52,30
21216,note_on,,,,,4,0,8,,,,,7,,,67,30
21308,note_off,,,,,0,0,8,,,,,7,,,67,0
21308,note_off,,,,,188,0,5,,,,,4,,,60,0
21308,note_off,,,,,92,0,9,,,,,8,,,52,0
21308,note_off,,,,,92,0,7,,,,,6,,,40,0
21308,note_off,,,,,188,0,2,,,,,1,,,72,0
21308,note_off,,,,,188,0,1,,,,,0,,,72,0
21308,note_off,,,,,92,0,8,,,,,7,,,60,0
21308,note_off,,,,,92,0,6,,,,,5,,,52,0
21312,note_on,,,,,0,0,4,,,,,3,,,69,60
21312,note_off,,,,,96,0,4,,,,,3,,,67,0
21312,note_off,,,,,192,0,3,,,,,2,,,72,0
21312,note_on,,,,,4,0,5,,,,,4,,,65,45
21312,note_on,,,,,4,0,8,,,,,7,,,60,30
21312,note_on,,,,,0,0,8,,,,,7,,,69,30
21312,note_on,,,,,4,0,7,,,,,6,,,41,39
21312,note_on,,,,,0,0,8,,,,,7,,,65,30
21312,note_on,,,,,4,0,9,,,,,8,,,53,30
21312,note_on,,,,,4,0,6,,,,,5,,,53,45
21500,note_off,,,,,188,0,5,,,,,4,,,65,0
21500,note_off,,,,,188,0,9,,,,,8,,,53,0
21500,note_off,,,,,188,0,7,,,,,6,,,41,0
21500,note_off,,,,,188,0,8,,,,,7,,,60,0
21500,note_off,,,,,0,0,8,,,,,7,,,65,0
21500,note_off,,,,,0,0,8,,,,,7,,,69,0
21500,note_off,,,,,188,0,6,,,,,5,,,53,0
21504,note_on,,,,,4,0,9,,,,,8,,,58,30
21504,note_on,,,,,4,0,5,,,,,4,,,65,45
21504,note_on,,,,,196,0,2,,,,,1,,,82,37
21504,note_on,,,,,0,0,4,,,,,3,,,74,60
21504,note_off,,,,,192,0,4,,,,,3,,,69,0
21504,note_on,,,,,196,0,1,,,,,0,,,82,39
21504,note_on,,,,,192,0,3,,,,,2,,,82,49
21504,note_on,,,,,4,0,6,,,,,5,,,58,45
21504,note_on,,,,,4,0,7,,,,,6,,,46,39
21504,note_on,,,,,4,0,8,,,,,7,,,65,30
21504,note_on,,,,,0,0,8,,,,,7,,,74,30
21600,note_on,,,,,0,0,1,,,,,0,,,81,39
21600,note_off,,,,,96,0,3,,,,,2,,,82,0
21600,note_off,,,,,96,0,2,,,,,1,,,82,0
21600,note_on,,,,,0,0,2,,,,,1,,,81,37
21600,note_off,,,,,96,0,4,,,,,3,,,74,0
21600,note_on,,,,,0,0,4,,,,,3,,,72,60
21600,note_on,,,,,0,0,3,,,,,2,,,81,49
21600,note_off,,,,,96,0,1,,,,,0,,,82,0
21692,note_off,,,,,188,0,6,,,,,5,,,58,0
21692,note_off,,,,,188,0,9,,,,,8,,,58,0
21692,note_off,,,,,188,0,8,,,,,7,,,65,0
21692,note_off,,,,,92,0,2,,,,,1,,,81,0
21692,note_off,,,,,188,0,7,,,,,6,,,46,0
21692,note_off,,,,,92,0,1,,,,,0,,,81,0
21692,note_off,,,,,188,0,5,,,,,4,,,65,0
21692,note_off,,,,,0,0,8,,,,,7,,,74,0
21696,note_on,,,,,4,0,8,,,,,7,,,65,30
21696,note_off,,,,,96,0,3,,,,,2,,,81,0
21696,note_on,,,,,4,0,5,,,,,4,,,65,45
21696,note_on,,,,,0,0,3,,,,,2,,,81,49
21696,note_on,,,,,4,0,9,,,,,8,,,60,30
21696,note_on,,,,,4,0,6,,,,,5,,,60,45
21696,note_on,,,,,0,0,8,,,,,7,,,72,30
21696,note_on,,,,,4,0,2,,,,,1,,,81,37
21696,note_on,,,,,4,0,1,,,,,0,,,81,39
21696,note_on,,,,,0,0,4,,,,,3,,,72,60
21696,note_off,,,,,96,0,4,,,,,3,,,72,0
21696,note_on,,,,,4,0,7,,,,,6,,,48,39
21696,note_on,,,,,0,0,8,,,,,7,,,69,30
21792,note_off,,,,,96,0,4,,,,,3,,,72,0
21792,note_on,,,,,0,0,1,,,,,0,,,79,39
21792,note_on,,,,,0,0,5,,,,,4,,,64,45
21792,note_off,,,,,96,0,3,,,,,2,,,81,0
21792,note_on,,,,,0,0,3,,,,,2,,,79,49
21792,note_on,,,,,0,0,4,,,,,3,,,70,60
21792,note_on,,,,,0,0,2,,,,,1,,,79,37
21792,note_off,,,,,96,0,2,,,,,1,,,81,0
21792,note_off,,,,,96,0,1,,,,,0,,,81,0
21792,note_off,,,,,96,0,5,,,,,4,,,65,0
21884,note_off,,,,,92,0,2,,,,,1,,,79,0
21884,note_off,,,,,188,0,8,,,,,7,,,72,0
21884,note_off,,,,,188,0,6,,,,,5,,,60,0
21884,note_off,,,,,188,0,9,,,,,8,,,60,0
21884,note_off,,,,,188,0,7,,,,,6,,,48,0
21884,note_off,,,,,92,0,1,,,,,0,,,79,0
21884,note_off,,,,,92,0,5,,,,,4,,,64,0
21888,note_on,,,,,4,0,9,,,,,8,,,58,30
21888,note_on,,,,,4,0,1,,,,,0,,,79,39
21888,note_on,,,,,0,0,3,,,,,2,,,79,49
21888,note_off,,,,,96,0,3,,,,,2,,,79,0
21888,note_on,,,,,4,0,2,,,,,1,,,79,37
21888,note_on,,,,,4,0,7,,,,,6,,,46,39
21888,note_on,,,,,4,0,6,,,,,5,,,58,45
21888,note_off,,,,,96,0,4,,,,,3,,,70,0
21888,note_on,,,,,4,0,8,,,,,7,,,74,30
21888,note_on,,,,,0,0,4,,,,,3,,,70,60
21888,note_on,,,,,4,0,5,,,,,4,,,64,45
21984,note_off,,,,,96,0,3,,,,,2,,,79,0
21984,note_off,,,,,96,0,1,,,,,0,,,79,0
21984,note_off,,,,,96,0,4,,,,,3,,,70,0
21984,note_on,,,,,0,0,4,,,,,3,,,69,60
21984,note_on,,,,,0,0,3,,,,,2,,,77,49
21984,note_on,,,,,0,0,1,,,,,0,,,77,39
21984,note_off,,,,,96,0,2,,,,,1,,,79,0
21984,note_on,,,,,0,0,2,,,,,1,,,77,37
21984,note_off,,,,,96,0,5,,,,,4,,,64,0
21984,note_on,,,,,0,0,5,,,,,4,,,65,45
22016,note_off,,,,,128,0,8,,,,,7,,,65,0
22016,note_off,,,,,0,0,8,,,,,7,,,69,0
22076,note_off,,,,,92,0,5,,,,,4,,,65,0
22076,note_off,,,,,188,0,7,,,,,6,,,46,0
22076,note_off,,,,,188,0,6,,,,,5,,,58,0
22076,note_off,,,,,60,0,8,,,,,7,,,74,0
22076,note_off,,,,,92,0,2,,,,,1,,,77,0
22076,note_off,,,,,188,0,9,,,,,8,,,58,0
22076,note_off,,,,,92,0,1,,,,,0,,,77,0
22080,note_off,,,,,96,0,4,,,,,3,,,69,0
22080,note_on,,,,,4,0,1,,,,,0,,,77,39
22080,note_on,,,,,4,0,7,,,,,6,,,48,39
22080,note_on,,,,,0,0,4,,,,,3,,,69,60
22080,note_off,,,,,96,0,3,,,,,2,,,77,0
22080,note_on,,,,,0,0,3,,,,,2,,,77,49
22080,note_on,,,,,4,0,5,,,,,4,,,60,45
22080,note_on,,,,,0,0,8,,,,,7,,,72,30
22080,note_on,,,,,0,0,8,,,,,7,,,67,30
22080,note_on,,,,,4,0,8,,,,,7,,,64,30
22080,note_on,,,,,4,0,2,,,,,1,,,77,37
22080,note_on,,,,,4,0,6,,,,,5,,,60,45
22080,note_on,,,,,4,0,9,,,,,8,,,60,30
22176,note_off,,,,,96,0,3,,,,,2,,,77,0
22176,note_on,,,,,0,0,3,,,,,2,,,76,49
22176,note_on,,,,,0,0,1,,,,,0,,,76,39
22176,note_off,,,,,96,0,1,,,,,0,,,77,0
22176,note_on,,,,,0,0,5,,,,,4,,,58,45
22176,note_on,,,,,0,0,2,,,,,1,,,76,37
22176,note_off,,,,,96,0,2,,,,,1,,,77,0
22176,note_off,,,,,96,0,5,,,,,4,,,60,0
22176,note_off,,,,,96,0,4,,,,,3,,,69,0
22176,note_on,,,,,0,0,4,,,,,3,,,67,60
22268,note_off,,,,,92,0,2,,,,,1,,,76,0
22268,note_off,,,,,92,0,1,,,,,0,,,76,0
22268,note_off,,,,,188,0,6,,,,,5,,,60,0
22268,note_off,,,,,188,0,7,,,,,6,,,48,0
22268,note_off,,,,,188,0,9,,,,,8,,,60,0
22268,note_off,,,,,92,0,5,,,,,4,,,58,0
22272,note_on,,,,,4,0,2,,,,,1,,,76,37
22272,note_on,,,,,4,0,6,,,,,5,,,48,45
22272,note_off,,,,,96,0,3,,,,,2,,,76,0
22272,note_on,,,,,0,0,3,,,,,2,,,76,49
22272,note_on,,,,,4,0,7,,,,,6,,,36,39
22272,note_on,,,,,4,0,5,,,,,4,,,58,45
22272,note_on,,,,,4,0,9,,,,,8,,,48,30
22272,note_on,,,,,4,0,1,,,,,0,,,76,39
22272,note_off,,,,,96,0,4,,,,,3,,,67,0
22272,note_on,,,,,0,0,4,,,,,3,,,67,60
22368,note_on,,,,,0,0,3,,,,,2,,,77,49
22368,note_off,,,,,96,0,3,,,,,2,,,76,0
22368,note_off,,,,,96,0,5,,,,,4,,,58,0
22368,note_on,,,,,0,0,5,,,,,4,,,57,45
22368,note_on,,,,,0,0,1,,,,,0,,,77,39
22368,note_off,,,,,96,0,1,,,,,0,,,76,0
22368,note_off,,,,,96,0,4,,,,,3,,,67,0
22368,note_on,,,,,0,0,4,,,,,3,,,65,60
22368,note_on,,,,,0,0,2,,,,,1,,,77,37
22368,note_off,,,,,96,0,2,,,,,1,,,76,0
22400,note_off,,,,,320,0,8,,,,,7,,,64,0
22400,note_off,,,,,0,0,8,,,,,7,,,67,0
22400,note_off,,,,,0,0,8,,,,,7,,,72,0
22460,note_off,,,,,92,0,2,,,,,1,,,77,0
22460,note_off,,,,,188,0,9,,,,,8,,,48,0
22460,note_off,,,,,92,0,1,,,,,0,,,77,0
22460,note_off,,,,,188,0,6,,,,,5,,,48,0
22460,note_off,,,,,188,0,7,,,,,6,,,36,0
22460,note_off,,,,,92,0,5,,,,,4,,,57,0
22464,note_on,,,,,4,0,7,,,,,6,,,38,39
22464,note_on,,,,,4,0,9,,,,,8,,,50,30
22464,note_on,,,,,4,0,1,,,,,0,,,77,39
22464,note_on,,,,,4,0,5,,,,,4,,,57,45
22464,note_on,,,,,0,0,4,,,,,3,,,65,60
22464,note_on,,,,,0,0,3,,,,,2,,,77,49
22464,note_on,,,,,0,0,8,,,,,7,,,69,30
22464,note_on,,,,,64,0,8,,,,,7,,,65,30
22464,note_on,,,,,4,0,6,,,,,5,,,50,45
22464,note_on,,,,,4,0,2,,,,,1,,,77,37
22464,note_off,,,,,96,0,3,,,,,2,,,77,0
22464,note_off,,,,,96,0,4,,,,,3,,,65,0
22556,note_off,,,,,92,0,1,,,,,0,,,77,0
22556,note_off,,,,,92,0,2,,,,,1,,,77,0
22560,note_off,,,,,96,0,3,,,,,2,,,77,0
22560,note_on,,,,,0,0,3,,,,,2,,,70,49
22560,note_on,,,,,4,0,2,,,,,1,,,70,37
22560,note_on,,,,,4,0,1,,,,,0,,,70,39
22652,note_off,,,,,92,0,1,,,,,0,,,70,0
22652,note_off,,,,,188,0,7,,,,,6,,,38,0
22652,note_off,,,,,92,0,2,,,,,1,,,70,0
22652,note_off,,,,,188,0,5,,,,,4,,,57,0
22652,note_off,,,,,188,0,8,,,,,7,,,65,0
22652,note_off,,,,,188,0,6,,,,,5,,,50,0
22652,note_off,,,,,0,0,8,,,,,7,,,69,0
22652,note_off,,,,,188,0,9,,,,,8,,,50,0
22656,note_on,,,,,4,0,8,,,,,7,,,62,30
22656,note_on,,,,,4,0,7,,,,,6,,,34,39
22656,note_on,,,,,0,0,8,,,,,7,,,65,30
22656,note_on,,,,,4,0,1,,,,,0,,,70,39
22656,note_off,,,,,96,0,3,,,,,2,,,70,0
22656,note_on,,,,,4,0,6,,,,,5,,,46,45
22656,note_on,,,,,0,0,4,,,,,3,,,65,60
22656,note_off,,,,,192,0,4,,,,,3,,,65,0
22656,note_on,,,,,4,0,2,,,,,1,,,70,37
22656,note_on,,,,,0,0,3,,,,,2,,,70,49
22656,note_on,,,,,0,0,8,,,,,7,,,70,30
22656,note_on,,,,,4,0,5,,,,,4,,,62,45
22656,note_on,,,,,4,0,9,,,,,8,,,46,30
22748,note_off,,,,,92,0,2,,,,,1,,,70,0
22748,note_off,,,,,92,0,1,,,,,0,,,70,0
22752,note_off,,,,,96,0,3,,,,,2,,,70,0
22752,note_on,,,,,4,0,2,,,,,1,,,69,37
22752,note_on,,,,,4,0,1,,,,,0,,,69,39
22752,note_on,,,,,0,0,3,,,,,2,,,69,49
22844,note_off,,,,,188,0,6,,,,,5,,,46,0
22844,note_off,,,,,0,0,8,,,,,7,,,65,0
22844,note_off,,,,,188,0,8,,,,,7,,,62,0
22844,note_off,,,,,92,0,1,,,,,0,,,69,0
22844,note_off,,,,,0,0,8,,,,,7,,,70,0
22844,note_off,,,,,188,0,9,,,,,8,,,46,0
22844,note_off,,,,,92,0,2,,,,,1,,,69,0
22844,note_off,,,,,188,0,7,,,,,6,,,34,0
22844,note_off,,,,,188,0,5,,,,,4,,,62,0
22848,note_on,,,,,4,0,1,,,,,0,,,69,39
22848,note_off,,,,,96,0,3,,,,,2,,,69,0
22848,note_on,,,,,0,0,3,,,,,2,,,69,49
22848,note_on,,,,,0,0,4,,,,,3,,,65,60
22848,note_off,,,,,192,0,4,,,,,3,,,65,0
22848,note_on,,,,,4,0,6,,,,,5,,,48,45
22848,note_on,,,,,4,0,2,,,,,1,,,69,37
22848,note_on,,,,,0,0,8,,,,,7,,,65,30
22848,note_on,,,,,4,0,8,,,,,7,,,60,30
22848,note_on,,,,,4,0,5,,,,,4,,,60,45
22848,note_on,,,,,4,0,9,,,,,8,,,48,30
22848,note_on,,,,,0,0,8,,,,,7,,,69,30
22848,note_on,,,,,4,0,7,,,,,6,,,36,39
22940,note_off,,,,,92,0,1,,,,,0,,,69,0
22940,note_off,,,,,92,0,2,,,,,1,,,69,0
22944,note_on,,,,,0,0,3,,,,,2,,,67,49
22944,note_off,,,,,96,0,3,,,,,2,,,69,0
22944,note_on,,,,,4,0,1,,,,,0,,,67,39
22944,note_on,,,,,4,0,2,,,,,1,,,67,37
23036,note_off,,,,,188,0,6,,,,,5,,,48,0
23036,note_off,,,,,0,0,8,,,,,7,,,69,0
23036,note_off,,,,,188,0,9,,,,,8,,,48,0
23036,note_off,,,,,188,0,7,,,,,6,,,36,0
23036,note_off,,,,,0,0,8,,,,,7,,,65,0
23036,note_off,,,,,188,0,8,,,,,7,,,60,0
23036,note_off,,,,,188,0,5,,,,,4,,,60,0
23036,note_off,,,,,92,0,1,,,,,0,,,67,0
23036,note_off,,,,,92,0,2,,,,,1,,,67,0
23040,note_on,,,,,4,0,6,,,,,5,,,60,45
23040,note_on,,,,,4,0,9,,,,,8,,,60,30
23040,note_on,,,,,0,0,3,,,,,2,,,67,49
23040,note_off,,,,,96,0,3,,,,,2,,,67,0
23040,note_on,,,,,4,0,5,,,,,4,,,67,45
23040,note_on,,,,,0,0,4,,,,,3,,,64,60
23040,note_off,,,,,192,0,4,,,,,3,,,65,0
23040,note_on,,,,,4,0,7,,,,,6,,,48,39
23040,note_on,,,,,4,0,8,,,,,7,,,64,30
23040,note_on,,,,,0,0,8,,,,,7,,,67,30
23040,note_on,,,,,4,0,2,,,,,1,,,67,37
23040,note_on,,,,,4,0,1,,,,,0,,,67,39
23132,note_off,,,,,92,0,2,,,,,1,,,67,0
23132,note_off,,,,,92,0,1,,,,,0,,,67,0
23136,note_on,,,,,4,0,2,,,,,1,,,65,37
23136,note_off,,,,,96,0,3,,,,,2,,,67,0
23136,note_on,,,,,0,0,3,,,,,2,,,65,49
23136,note_on,,,,,4,0,1,,,,,0,,,65,39
23228,note_off,,,,,188,0,9,,,,,8,,,60,0
23228,note_off,,,,,92,0,1,,,,,0,,,65,0
23228,note_off,,,,,188,0,8,,,,,7,,,64,0
23228,note_off,,,,,188,0,6,,,,,5,,,60,0
23228,note_off,,,,,188,0,5,,,,,4,,,67,0
23228,note_off,,,,,188,0,7,,,,,6,,,48,0
23228,note_off,,,,,92,0,2,,,,,1,,,65,0
23228,note_off,,,,,0,0,8,,,,,7,,,67,0
23232,note_on,,,,,4,0,6,,,,,5,,,57,92
23232,note_on,,,,,4,0,5,,,,,4,,,65,92
23232,note_on,,,,,4,0,7,,,,,6,,,45,80
23232,note_on,,,,,4,0,2,,,,,1,,,84,77
23232,note_off,,,,,192,0,4,,,,,3,,,64,0
23232,note_on,,,,,0,0,4,,,,,3,,,81,108
23232,note_on,,,,,0,0,3,,,,,2,,,84,100
23232,note_on,,,,,4,0,9,,,,,8,,,57,60
23232,note_on,,,,,4,0,1,,,,,0,,,84,80
23232,note_off,,,,,96,0,3,,,,,2,,,65,0
23232,note_on,,,,,4,0,8,,,,,7,,,65,60
23372,note_off,,,,,140,0,2,,,,,1,,,84,0
23372,note_off,,,,,140,0,1,,,,,0,,,84,0
23376,note_off,,,,,144,0,3,,,,,2,,,84,0
23376,note_off,,,,,144,0,4,,,,,3,,,81,0
23376,note_on,,,,,4,0,2,,,,,1,,,82,77
23376,note_on,,,,,0,0,4,,,,,3,,,79,108
23376,note_on,,,,,0,0,3,,,,,2,,,82,100
23376,note_on,,,,,4,0,1,,,,,0,,,82,80
23420,note_off,,,,,188,0,7,,,,,6,,,45,0
23420,note_off,,,,,188,0,5,,,,,4,,,65,0
23420,note_off,,,,,188,0,9,,,,,8,,,57,0
23420,note_off,,,,,188,0,6,,,,,5,,,57,0
23420,note_off,,,,,44,0,2,,,,,1,,,82,0
23420,note_off,,,,,188,0,8,,,,,7,,,65,0
23420,note_off,,,,,44,0,1,,,,,0,,,82,0
23424,note_on,,,,,4,0,5,,,,,4,,,74,92
23424,note_on,,,,,0,0,4,,,,,3,,,77,108
23424,note_off,,,,,48,0,4,,,,,3,,,79,0
23424,note_on,,,,,4,0,9,,,,,8,,,58,60
23424,note_on,,,,,4,0,2,,,,,1,,,81,77
23424,note_on,,,,,4,0,7,,,,,6,,,46,80
23424,note_on,,,,,0,0,8,,,,,7,,,65,60
23424,note_on,,,,,0,0,8,,,,,7,,,70,60
23424,note_on,,,,,4,0,1,,,,,0,,,81,80
23424,note_on,,,,,4,0,8,,,,,7,,,62,60
23424,note_on,,,,,0,0,3,,,,,2,,,81,100
23424,note_off,,,,,48,0,3,,,,,2,,,82,0
23424,note_on,,,,,4,0,6,,,,,5,,,58,92
23564,note_off,,,,,140,0,2,,,,,1,,,81,0
23564,note_off,,,,,140,0,1,,,,,0,,,81,0
23568,note_off,,,,,144,0,3,,,,,2,,,81,0
23568,note_on,,,,,0,0,4,,,,,3,,,77,108
23568,note_off,,,,,144,0,4,,,,,3,,,77,0
23568,note_on,,,,,4,0,2,,,,,1,,,79,77
23568,note_on,,,,,0,0,3,,,,,2,,,79,100
23568,note_on,,,,,4,0,1,,,,,0,,,79,80
23612,note_off,,,,,188,0,8,,,,,7,,,62,0
23612,note_off,,,,,188,0,7,,,,,6,,,46,0
23612,note_off,,,,,44,0,1,,,,,0,,,79,0
23612,note_off,,,,,188,0,5,,,,,4,,,74,0
23612,note_off,,,,,0,0,8,,,,,7,,,65,0
23612,note_off,,,,,44,0,2,,,,,1,,,79,0
23612,note_off,,,,,188,0,9,,,,,8,,,58,0
23612,note_off,,,,,0,0,8,,,,,7,,,70,0
23612,note_off,,,,,188,0,6,,,,,5,,,58,0
23616,note_on,,,,,0,0,3,,,,,2,,,81,100
23616,note_on,,,,,4,0,7,,,,,6,,,48,80
23616,note_on,,,,,4,0,5,,,,,4,,,72,92
23616,note_on,,,,,0,0,4,,,,,3,,,77,108
23616,note_off,,,,,48,0,4,,,,,3,,,77,0
23616,note_on,,,,,0,0,8,,,,,7,,,69,60
23616,note_off,,,,,48,0,3,,,,,2,,,79,0
23616,note_on,,,,,4,0,6,,,,,5,,,60,92
23616,note_on,,,,,4,0,9,,,,,8,,,60,60
23616,note_on,,,,,4,0,2,,,,,1,,,81,77
23616,note_on,,,,,4,0,8,,,,,7,,,65,60
23616,note_on,,,,,4,0,1,,,,,0,,,81,80
23804,note_off,,,,,188,0,6,,,,,5,,,60,0
23804,note_off,,,,,188,0,2,,,,,1,,,81,0
23804,note_off,,,,,188,0,5,,,,,4,,,72,0
23804,note_off,,,,,188,0,1,,,,,0,,,81,0
23804,note_off,,,,,0,0,8,,,,,7,,,69,0
23804,note_off,,,,,188,0,7,,,,,6,,,48,0
23804,note_off,,,,,188,0,9,,,,,8,,,60,0
23804,note_off,,,,,188,0,8,,,,,7,,,65,0
23808,note_on,,,,,4,0,1,,,,,0,,,79,80
23808,note_off,,,,,192,0,3,,,,,2,,,81,0
23808,note_on,,,,,0,0,3,,,,,2,,,79,100
23808,note_on,,,,,4,0,9,,,,,8,,,48,60
23808,note_on,,,,,4,0,5,,,,,4,,,70,92
23808,note_on,,,,,4,0,2,,,,,1,,,79,77
23808,note_on,,,,,4,0,6,,,,,5,,,48,92
23808,note_on,,,,,0,0,4,,,,,3,,,76,108
23808,note_off,,,,,192,0,4,,,,,3,,,77,0
23808,note_on,,,,,0,0,8,,,,,7,,,67,60
23808,note_on,,,,,4,0,7,,,,,6,,,36,80
23808,note_on,,,,,4,0,8,,,,,7,,,64,60
23808,note_on,,,,,0,0,8,,,,,7,,,72,60
23948,note_off,,,,,140,0,2,,,,,1,,,79,0
23948,note_off,,,,,140,0,1,,,,,0,,,79,0
23952,note_on,,,,,4,0,2,,,,,1,,,77,77
23952,note_on,,,,,4,0,1,,,,,0,,,77,80
23952,note_off,,,,,144,0,3,,,,,2,,,79,0
23952,note_on,,,,,0,0,3,,,,,2,,,77,100
23996,note_off,,,,,44,0,1,,,,,0,,,77,0
23996,note_off,,,,,0,0,8,,,,,7,,,67,0
23996,note_off,,,,,0,0,8,,,,,7,,,72,0
23996,note_off,,,,,188,0,5,,,,,4,,,70,0
23996,note_off,,,,,188,0,8,,,,,7,,,64,0
23996,note_off,,,,,44,0,2,,,,,1,,,77,0
23996,note_off,,,,,188,0,9,,,,,8,,,48,0
23996,note_off,,,,,188,0,6,,,,,5,,,48,0
23996,note_off,,,,,188,0,7,,,,,6,,,36,0
24000,note_on,,,,,4,0,8,,,,,7,,,65,60
24000,note_on,,,,,0,0,8,,,,,7,,,72,60
24000,note_on,,,,,4,0,9,,,,,8,,,53,60
24000,note_on,,,,,4,0,5,,,,,4,,,69,92
24000,note_on,,,,,4,0,6,,,,,5,,,53,92
24000,note_on,,,,,0,0,8,,,,,7,,,69,60
24000,note_on,,,,,0,0,4,,,,,3,,,77,108
24000,note_off,,,,,192,0,4,,,,,3,,,76,0
24000,note_on,,,,,4,0,2,,,,,1,,,77,77
24000,note_on,,,,,4,0,1,,,,,0,,,77,80
24000,note_on,,,,,4,0,7,,,,,6,,,41,80
24000,note_on,,,,,0,0,3,,,,,2,,,77,100
24000,note_off,,,,,48,0,3,,,,,2,,,77,0
24320,note_off,,,,,320,0,8,,,,,7,,,65,0
24320,note_off,,,,,320,0,6,,,,,5,,,53,0
24320,note_off,,,,,320,0,7,,,,,6,,,41,0
24320,note_off,,,,,0,0,8,,,,,7,,,72,0
24320,note_off,,,,,0,0,8,,,,,7,,,69,0
24320,note_off,,,,,320,0,2,,,,,1,,,77,0
24320,note_off,,,,,320,0,9,,,,,8,,,53,0
24320,note_off,,,,,320,0,1,,,,,0,,,77,0
24320,note_off,,,,,320,0,5,,,,,4,,,69,0
24384,note_off,,,,,384,0,3,,,,,2,,,77,0
24384,note_off,,,,,384,0,4,,,,,3,,,77,0
24576,note_on,,,,,192,0,3,,,,,2,,,77,100
24576,note_on,,,,,256,0,9,,,,,8,,,57,60
24576,note_on,,,,,256,0,6,,,,,5,,,57,92
24576,note_on,,,,,256,0,5,,,,,4,,,65,92
24576,note_on,,,,,192,0,4,,,,,3,,,72,108
24576,note_on,,,,,256,0,1,,,,,0,,,77,80
24576,note_on,,,,,256,0,7,,,,,6,,,45,80
24576,note_on,,,,,256,0,2,,,,,1,,,77,77
24576,note_on,,,,,0,0,8,,,,,7,,,77,60
24576,note_on,,,,,0,0,8,,,,,7,,,72,60
24576,note_on,,,,,256,0,8,,,,,7,,,65,60
24716,note_off,,,,,140,0,2,,,,,1,,,77,0
24716,note_off,,,,,0,0,8,,,,,7,,,77,0
24716,note_off,,,,,0,0,8,,,,,7,,,72,0
24716,note_off,,,,,140,0,8,,,,,7,,,65,0
24716,note_off,,,,,140,0,5,,,,,4,,,65,0
24716,note_off,,,,,140,0,7,,,,,6,,,45,0
24716,note_off,,,,,140,0,1,,,,,0,,,77,0
24716,note_off,,,,,140,0,6,,,,,5,,,57,0
24716,note_off,,,,,140,0,9,,,,,8,,,57,0
24720,note_on,,,,,4,0,6,,,,,5,,,60,92
24720,note_on,,,,,4,0,5,,,,,4,,,72,92
24720,note_on,,,,,0,0,3,,,,,2,,,79,100
24720,note_off,,,,,144,0,3,,,,,2,,,77,0
24720,note_on,,,,,4,0,7,,,,,6,,,48,80
24720,note_on,,,,,4,0,2,,,,,1,,,79,77
24720,note_on,,,,,0,0,8,,,,,7,,,76,60
24720,note_on,,,,,4,0,9,,,,,8,,,60,60
24720,note_off,,,,,144,0,4,,,,,3,,,72,0
24720,note_on,,,,,4,0,1,,,,,0,,,79,80
24720,note_on,,,,,4,0,8,,,,,7,,,67,60
24720,note_on,,,,,0,0,8,,,,,7,,,72,60
24720,note_on,,,,,0,0,4,,,,,3,,,76,108
24764,note_off,,,,,0,0,8,,,,,7,,,76,0
24764,note_off,,,,,44,0,5,,,,,4,,,72,0
24764,note_off,,,,,44,0,6,,,,,5,,,60,0
24764,note_off,,,,,44,0,1,,,,,0,,,79,0
24764,note_off,,,,,44,0,8,,,,,7,,,67,0
24764,note_off,,,,,44,0,9,,,,,8,,,60,0
24764,note_off,,,,,44,0,2,,,,,1,,,79,0
24764,note_off,,,,,44,0,7,,,,,6,,,48,0
24764,note_off,,,,,0,0,8,,,,,7,,,72,0
24768,note_on,,,,,0,0,4,,,,,3,,,77,108
24768,note_on,,,,,4,0,5,,,,,4,,,72,92
24768,note_on,,,,,4,0,6,,,,,5,,,65,92
24768,note_on,,,,,4,0,1,,,,,0,,,82,80
24768,note_on,,,,,4,0,9,,,,,8,,,65,60
24768,note_on,,,,,4,0,7,,,,,6,,,53,80
24768,note_on,,,,,0,0,8,,,,,7,,,72,60
24768,note_on,,,,,0,0,8,,,,,7,,,77,60
24768,note_off,,,,,48,0,4,,,,,3,,,76,0
24768,note_on,,,,,4,0,2,,,,,1,,,82,77
24768,note_on,,,,,0,0,3,,,,,2,,,82,100
24768,note_off,,,,,48,0,3,,,,,2,,,79,0
24768,note_on,,,,,4,0,8,,,,,7,,,69,60
24792,note_on,,,,,0,0,2,,,,,1,,,81,77
24792,note_on,,,,,0,0,3,,,,,2,,,81,100
24792,note_off,,,,,24,0,3,,,,,2,,,82,0
24792,note_off,,,,,24,0,1,,,,,0,,,82,0
24792,note_on,,,,,0,0,1,,,,,0,,,81,80
24792,note_off,,,,,24,0,2,,,,,1,,,82,0
24816,note_on,,,,,0,0,1,,,,,0,,,82,80
24816,note_off,,,,,24,0,3,,,,,2,,,81,0
24816,note_on,,,,,0,0,3,,,,,2,,,82,100
24816,note_on,,,,,0,0,2,,,,,1,,,82,77
24816,note_off,,,,,24,0,1,,,,,0,,,81,0
24816,note_off,,,,,24,0,2,,,,,1,,,81,0
24840,note_off,,,,,24,0,1,,,,,0,,,82,0
24840,note_off,,,,,24,0,2,,,,,1,,,82,0
24840,note_on,,,,,0,0,2,,,,,1,,,81,77
24840,note_on,,,,,0,0,1,,,,,0,,,81,80
24840,note_off,,,,,24,0,3,,,,,2,,,82,0
24840,note_on,,,,,0,0,3,,,,,2,,,81,100
24864,note_off,,,,,24,0,2,,,,,1,,,81,0
24864,note_off,,,,,24,0,3,,,,,2,,,81,0
24864,note_on,,,,,0,0,3,,,,,2,,,82,100
24864,note_on,,,,,0,0,2,,,,,1,,,82,77
24864,note_on,,,,,0,0,1,,,,,0,,,82,80
24864,note_off,,,,,24,0,1,,,,,0,,,81,0
24888,note_on,,,,,0,0,1,,,,,0,,,81,80
24888,note_on,,,,,0,0,2,,,,,1,,,81,77
24888,note_off,,,,,24,0,1,,,,,0,,,82,0
24888,note_off,,,,,24,0,2,,,,,1,,,82,0
24888,note_on,,,,,0,0,3,,,,,2,,,81,100
24888,note_off,,,,,24,0,3,,,,,2,,,82,0
24912,note_off,,,,,24,0,3,,,,,2,,,81,0
24912,note_off,,,,,24,0,1,,,,,0,,,81,0
24912,note_on,,,,,0,0,1,,,,,0,,,82,80
24912,note_on,,,,,0,0,2,,,,,1,,,82,77
24912,note_on,,,,,0,0,3,,,,,2,,,82,100
24912,note_off,,,,,24,0,2,,,,,1,,,81,0
24936,note_off,,,,,24,0,1,,,,,0,,,82,0
24936,note_on,,,,,0,0,1,,,,,0,,,81,80
24936,note_off,,,,,24,0,3,,,,,2,,,82,0
24936,note_on,,,,,0,0,3,,,,,2,,,81,100
24936,note_on,,,,,0,0,2,,,,,1,,,81,77
24936,note_off,,,,,24,0,2,,,,,1,,,82,0
24956,note_off,,,,,188,0,5,,,,,4,,,72,0
24956,note_off,,,,,188,0,7,,,,,6,,,53,0
24956,note_off,,,,,188,0,6,,,,,5,,,65,0
24956,note_off,,,,,188,0,9,,,,,8,,,65,0
24960,note_on,,,,,4,0,5,,,,,4,,,65,92
24960,note_on,,,,,4,0,6,,,,,5,,,53,92
24960,note_on,,,,,4,0,7,,,,,6,,,41,80
24960,note_on,,,,,4,0,9,,,,,8,,,53,60
24960,note_off,,,,,192,0,4,,,,,3,,,77,0
24960,note_on,,,,,0,0,4,,,,,3,,,72,108
25056,note_on,,,,,0,0,2,,,,,1,,,82,77
25056,note_off,,,,,120,0,2,,,,,1,,,81,0
25056,note_on,,,,,0,0,1,,,,,0,,,82,80
25056,note_off,,,,,120,0,3,,,,,2,,,81,0
25056,note_on,,,,,0,0,3,,,,,2,,,82,100
25056,note_off,,,,,120,0,1,,,,,0,,,81,0
25088,note_off,,,,,0,0,8,,,,,7,,,72,0
25088,note_off,,,,,0,0,8,,,,,7,,,77,0
25088,note_off,,,,,320,0,8,,,,,7,,,69,0
25148,note_off,,,,,92,0,1,,,,,0,,,82,0
25148,note_off,,,,,188,0,7,,,,,6,,,41,0
25148,note_off,,,,,188,0,9,,,,,8,,,53,0
25148,note_off,,,,,92,0,2,,,,,1,,,82,0
25148,note_off,,,,,188,0,6,,,,,5,,,53,0
25152,note_on,,,,,4,0,2,,,,,1,,,84,77
25152,note_on,,,,,4,0,7,,,,,6,,,45,80
25152,note_off,,,,,96,0,3,,,,,2,,,82,0
25152,note_on,,,,,64,0,8,,,,,7,,,65,60
25152,note_on,,,,,0,0,8,,,,,7,,,72,60
25152,note_on,,,,,4,0,1,,,,,0,,,84,80
25152,note_on,,,,,0,0,3,,,,,2,,,84,100
25152,note_on,,,,,4,0,9,,,,,8,,,57,60
25152,note_on,,,,,4,0,6,,,,,5,,,57,92
25340,note_off,,,,,188,0,8,,,,,7,,,65,0
25340,note_off,,,,,0,0,8,,,,,7,,,72,0
25340,note_off,,,,,188,0,9,,,,,8,,,57,0
25340,note_off,,,,,188,0,2,,,,,1,,,84,0
25340,note_off,,,,,380,0,5,,,,,4,,,65,0
25340,note_off,,,,,188,0,7,,,,,6,,,45,0
25340,note_off,,,,,188,0,6,,,,,5,,,57,0
25340,note_off,,,,,188,0,1,,,,,0,,,84,0
25344,note_on,,,,,0,0,8,,,,,7,,,72,60
25344,note_on,,,,,4,0,9,,,,,8,,,60,60
25344,note_on,,,,,4,0,5,,,,,4,,,64,92
25344,note_on,,,,,4,0,7,,,,,6,,,48,80
25344,note_on,,,,,4,0,6,,,,,5,,,60,92
25344,note_on,,,,,4,0,2,,,,,1,,,79,77
25344,note_on,,,,,4,0,8,,,,,7,,,67,60
25344,note_on,,,,,0,0,3,,,,,2,,,79,100
25344,note_off,,,,,192,0,3,,,,,2,,,84,0
25344,note_off,,,,,384,0,4,,,,,3,,,72,0
25344,note_on,,,,,0,0,4,,,,,3,,,76,108
25344,note_on,,,,,0,0,8,,,,,7,,,76,60
25344,note_on,,,,,4,0,1,,,,,0,,,79,80
25392,note_off,,,,,48,0,4,,,,,3,,,76,0
25392,note_off,,,,,48,0,2,,,,,1,,,79,0
25392,note_on,,,,,0,0,4,,,,,3,,,77,108
25392,note_off,,,,,48,0,1,,,,,0,,,79,0
25392,note_on,,,,,0,0,2,,,,,1,,,81,77
25392,note_on,,,,,0,0,1,,,,,0,,,81,80
25392,note_off,,,,,48,0,3,,,,,2,,,79,0
25392,note_on,,,,,0,0,3,,,,,2,,,81,100
25440,note_on,,,,,0,0,3,,,,,2,,,82,100
25440,note_off,,,,,48,0,2,,,,,1,,,81,0
25440,note_on,,,,,0,0,2,,,,,1,,,82,77
25440,note_on,,,,,0,0,1,,,,,0,,,82,80
25440,note_off,,,,,48,0,4,,,,,3,,,77,0
25440,note_off,,,,,48,0,1,,,,,0,,,81,0
25440,note_on,,,,,0,0,4,,,,,3,,,79,108
25440,note_off,,,,,48,0,3,,,,,2,,,81,0
25532,note_off,,,,,188,0,6,,,,,5,,,60,0
25532,note_off,,,,,188,0,5,,,,,4,,,64,0
25532,note_off,,,,,188,0,8,,,,,7,,,67,0
25532,note_off,,,,,92,0,1,,,,,0,,,82,0
25532,note_off,,,,,92,0,2,,,,,1,,,82,0
25532,note_off,,,,,0,0,8,,,,,7,,,76,0
25532,note_off,,,,,188,0,7,,,,,6,,,48,0
25532,note_off,,,,,0,0,8,,,,,7,,,72,0
25532,note_off,,,,,188,0,9,,,,,8,,,60,0
25536,note_on,,,,,0,0,8,,,,,7,,,77,60
25536,note_on,,,,,4,0,8,,,,,7,,,69,60
25536,note_on,,,,,0,0,8,,,,,7,,,72,60
25536,note_off,,,,,96,0,4,,,,,3,,,79,0
25536,note_on,,,,,4,0,7,,,,,6,,,53,80
25536,note_on,,,,,4,0,6,,,,,5,,,65,92
25536,note_off,,,,,96,0,3,,,,,2,,,82,0
25536,note_on,,,,,4,0,5,,,,,4,,,72,92
25536,note_on,,,,,4,0,9,,,,,8,,,65,60
25536,note_on,,,,,4,0,2,,,,,1,,,81,77
25536,note_on,,,,,4,0,1,,,,,0,,,81,80
25536,note_on,,,,,0,0,4,,,,,3,,,77,108
25536,note_on,,,,,0,0,3,,,,,2,,,81,100
25724,note_off,,,,,188,0,6,,,,,5,,,65,0
25724,note_off,,,,,188,0,5,,,,,4,,,72,0
25724,note_off,,,,,188,0,9,,,,,8,,,65,0
25724,note_off,,,,,188,0,7,,,,,6,,,53,0
25728,note_off,,,,,192,0,4,,,,,3,,,77,0
25728,note_on,,,,,0,0,4,,,,,3,,,72,108
25728,note_on,,,,,4,0,7,,,,,6,,,41,80
25728,note_on,,,,,4,0,6,,,,,5,,,53,92
25728,note_on,,,,,4,0,5,,,,,4,,,65,92
25728,note_on,,,,,4,0,9,,,,,8,,,53,60
25820,note_off,,,,,284,0,2,,,,,1,,,81,0
25820,note_off,,,,,284,0,1,,,,,0,,,81,0
25824,note_on,,,,,0,0,3,,,,,2,,,82,100
25824,note_off,,,,,288,0,3,,,,,2,,,81,0
25824,note_on,,,,,4,0,1,,,,,0,,,82,80
25824,note_on,,,,,4,0,2,,,,,1,,,82,77
25856,note_off,,,,,320,0,8,,,,,7,,,69,0
25856,note_off,,,,,0,0,8,,,,,7,,,77,0
25856,note_off,,,,,0,0,8,,,,,7,,,72,0
25916,note_off,,,,,188,0,7,,,,,6,,,41,0
25916,note_off,,,,,92,0,2,,,,,1,,,82,0
25916,note_off,,,,,188,0,6,,,,,5,,,53,0
25916,note_off,,,,,188,0,9,,,,,8,,,53,0
25916,note_off,,,,,92,0,1,,,,,0,,,82,0
25920,note_on,,,,,4,0,6,,,,,5,,,57,92
25920,note_on,,,,,4,0,7,,,,,6,,,45,80
25920,note_on,,,,,4,0,2,,,,,1,,,84,77
25920,note_on,,,,,0,0,8,,,,,7,,,72,60
25920,note_on,,,,,64,0,8,,,,,7,,,65,60
25920,note_on,,,,,4,0,9,,,,,8,,,57,60
25920,note_off,,,,,96,0,3,,,,,2,,,82,0
25920,note_on,,,,,0,0,3,,,,,2,,,84,100
25920,note_on,,,,,4,0,1,,,,,0,,,84,80
26108,note_off,,,,,188,0,6,,,,,5,,,57,0
26108,note_off,,,,,188,0,7,,,,,6,,,45,0
26108,note_off,,,,,0,0,8,,,,,7,,,72,0
26108,note_off,,,,,188,0,8,,,,,7,,,65,0
26108,note_off,,,,,188,0,2,,,,,1,,,84,0
26108,note_off,,,,,188,0,1,,,,,0,,,84,0
26108,note_off,,,,,380,0,5,,,,,4,,,65,0
26108,note_off,,,,,188,0,9,,,,,8,,,57,0
26112,note_on,,,,,4,0,8,,,,,7,,,67,60
26112,note_on,,,,,4,0,2,,,,,1,,,79,77
26112,note_on,,,,,0,0,3,,,,,2,,,79,100
26112,note_off,,,,,192,0,3,,,,,2,,,84,0
26112,note_on,,,,,4,0,1,,,,,0,,,79,80
26112,note_off,,,,,384,0,4,,,,,3,,,72,0
26112,note_on,,,,,4,0,7,,,,,6,,,48,80
26112,note_on,,,,,0,0,8,,,,,7,,,76,60
26112,note_on,,,,,0,0,8,,,,,7,,,72,60
26112,note_on,,,,,4,0,9,,,,,8,,,60,60
26112,note_on,,,,,4,0,5,,,,,4,,,64,92
26112,note_on,,,,,4,0,6,,,,,5,,,60,92
26112,note_on,,,,,0,0,4,,,,,3,,,76,108
26160,note_on,,,,,0,0,3,,,,,2,,,81,100
26160,note_on,,,,,0,0,4,,,,,3,,,77,108
26160,note_off,,,,,48,0,4,,,,,3,,,76,0
26160,note_off,,,,,48,0,3,,,,,2,,,79,0
26160,note_off,,,,,48,0,2,,,,,1,,,79,0
26160,note_off,,,,,48,0,1,,,,,0,,,79,0
26160,note_on,,,,,0,0,1,,,,,0,,,81,80
26160,note_on,,,,,0,0,2,,,,,1,,,81,77
26208,note_off,,,,,48,0,2,,,,,1,,,81,0
26208,note_off,,,,,48,0,1,,,,,0,,,81,0
26208,note_on,,,,,0,0,1,,,,,0,,,82,80
26208,note_on,,,,,0,0,3,,,,,2,,,82,100
26208,note_off,,,,,48,0,3,,,,,2,,,81,0
26208,note_on,,,,,0,0,2,,,,,1,,,82,77
26208,note_on,,,,,0,0,4,,,,,3,,,79,108
26208,note_off,,,,,48,0,4,,,,,3,,,77,0
26300,note_off,,,,,188,0,6,,,,,5,,,60,0
26300,note_off,,,,,188,0,8,,,,,7,,,67,0
26300,note_off,,,,,0,0,8,,,,,7,,,72,0
26300,note_off,,,,,188,0,9,,,,,8,,,60,0
26300,note_off,,,,,188,0,5,,,,,4,,,64,0
26300,note_off,,,,,0,0,8,,,,,7,,,76,0
26300,note_off,,,,,92,0,2,,,,,1,,,82,0
26300,note_off,,,,,188,0,7,,,,,6,,,48,0
26300,note_off,,,,,92,0,1,,,,,0,,,82,0
26304,note_on,,,,,0,0,3,,,,,2,,,81,100
26304,note_off,,,,,96,0,3,,,,,2,,,82,0
26304,note_on,,,,,0,0,4,,,,,3,,,77,108
26304,note_on,,,,,4,0,1,,,,,0,,,81,80
26304,note_on,,,,,4,0,8,,,,,7,,,69,60
26304,note_on,,,,,0,0,8,,,,,7,,,72,60
26304,note_off,,,,,96,0,4,,,,,3,,,79,0
26304,note_on,,,,,0,0,8,,,,,7,,,77,60
26304,note_on,,,,,4,0,9,,,,,8,,,65,60
26304,note_on,,,,,4,0,7,,,,,6,,,53,80
26304,note_on,,,,,4,0,5,,,,,4,,,72,92
26304,note_on,,,,,4,0,6,,,,,5,,,65,92
26304,note_on,,,,,4,0,2,,,,,1,,,81,77
26444,note_off,,,,,140,0,2,,,,,1,,,81,0
26444,note_off,,,,,140,0,1,,,,,0,,,81,0
26448,note_on,,,,,4,0,1,,,,,0,,,79,80
26448,note_on,,,,,4,0,2,,,,,1,,,79,77
26448,note_off,,,,,144,0,3,,,,,2,,,81,0
26448,note_on,,,,,0,0,3,,,,,2,,,79,100
26492,note_off,,,,,188,0,8,,,,,7,,,69,0
26492,note_off,,,,,188,0,5,,,,,4,,,72,0
26492,note_off,,,,,0,0,8,,,,,7,,,77,0
26492,note_off,,,,,188,0,9,,,,,8,,,65,0
26492,note_off,,,,,44,0,2,,,,,1,,,79,0
26492,note_off,,,,,188,0,7,,,,,6,,,53,0
26492,note_off,,,,,188,0,6,,,,,5,,,65,0
26492,note_off,,,,,0,0,8,,,,,7,,,72,0
26492,note_off,,,,,44,0,1,,,,,0,,,79,0
26496,note_on,,,,,4,0,5,,,,,4,,,69,92
26496,note_on,,,,,4,0,6,,,,,5,,,53,92
26496,note_on,,,,,4,0,8,,,,,7,,,69,60
26496,note_on,,,,,4,0,1,,,,,0,,,77,80
26496,note_on,,,,,0,0,4,,,,,3,,,72,108
26496,note_off,,,,,192,0,4,,,,,3,,,77,0
26496,note_on,,,,,0,0,3,,,,,2,,,77,100
26496,note_on,,,,,0,0,8,,,,,7,,,72,60
26496,note_on,,,,,4,0,2,,,,,1,,,77,77
26496,note_on,,,,,4,0,9,,,,,8,,,53,60
26496,note_on,,,,,4,0,7,,,,,6,,,41,80
26496,note_off,,,,,48,0,3,,,,,2,,,79,0
26684,note_off,,,,,188,0,6,,,,,5,,,53,0
26684,note_off,,,,,188,0,7,,,,,6,,,41,0
26684,note_off,,,,,188,0,2,,,,,1,,,77,0
26684,note_off,,,,,188,0,9,,,,,8,,,53,0
26684,note_off,,,,,0,0,8,,,,,7,,,72,0
26684,note_off,,,,,188,0,5,,,,,4,,,69,0
26684,note_off,,,,,188,0,1,,,,,0,,,77,0
26684,note_off,,,,,188,0,8,,,,,7,,,69,0
26688,note_off,,,,,192,0,3,,,,,2,,,77,0
26688,note_off,,,,,192,0,4,,,,,3,,,72,0
26880,note_on,,,,,0,0,8,,,,,7,,,65,60
26880,note_on,,,,,196,0,8,,,,,7,,,60,60
26880,note_on,,,,,192,0,3,,,,,2,,,65,100
26880,note_on,,,,,196,0,2,,,,,1,,,65,77
26880,note_on,,,,,196,0,7,,,,,6,,,33,80
26880,note_on,,,,,196,0,1,,,,,0,,,65,80
26880,note_on,,,,,192,0,4,,,,,3,,,60,108
26880,note_on,,,,,196,0,5,,,,,4,,,65,92
26880,note_on,,,,,196,0,6,,,,,5,,,45,92
26880,note_on,,,,,196,0,9,,,,,8,,,45,60
27020,note_off,,,,,140,0,1,,,,,0,,,65,0
27020,note_off,,,,,140,0,5,,,,,4,,,65,0
27020,note_off,,,,,140,0,8,,,,,7,,,60,0
27020,note_off,,,,,140,0,2,,,,,1,,,65,0
27020,note_off,,,,,0,0,8,,,,,7,,,65,0
27020,note_off,,,,,140,0,6,,,,,5,,,45,0
27020,note_off,,,,,140,0,7,,,,,6,,,33,0
27020,note_off,,,,,140,0,9,,,,,8,,,45,0
27024,note_on,,,,,0,0,3,,,,,2,,,67,100
27024,note_off,,,,,144,0,3,,,,,2,,,65,0
27024,note_on,,,,,4,0,5,,,,,4,,,60,92
27024,note_on,,,,,4,0,6,,,,,5,,,48,92
27024,note_on,,,,,4,0,9,,,,,8,,,48,60
27024,note_on,,,,,4,0,2,,,,,1,,,67,77
27024,note_on,,,,,0,0,8,,,,,7,,,60,60
27024,note_on,,,,,4,0,1,,,,,0,,,67,80
27024,note_on,,,,,4,0,8,,,,,7,,,55,60
27024,note_on,,,,,0,0,8,,,,,7,,,64,60
27024,note_on,,,,,4,0,7,,,,,6,,,36,80
27024,note_on,,,,,0,0,4,,,,,3,,,64,108
27024,note_off,,,,,144,0,4,,,,,3,,,60,0
27068,note_off,,,,,44,0,8,,,,,7,,,55,0
27068,note_off,,,,,44,0,1,,,,,0,,,67,0
27068,note_off,,,,,44,0,6,,,,,5,,,48,0
27068,note_off,,,,,44,0,2,,,,,1,,,67,0
27068,note_off,,,,,0,0,8,,,,,7,,,64,0
27068,note_off,,,,,44,0,9,,,,,8,,,48,0
27068,note_off,,,,,44,0,7,,,,,6,,,36,0
27068,note_off,,,,,44,0,5,,,,,4,,,60,0
27068,note_off,,,,,0,0,8,,,,,7,,,60,0
27072,note_on,,,,,4,0,2,,,,,1,,,70,77
27072,note_on,,,,,4,0,5,,,,,4,,,60,92
27072,note_on,,,,,0,0,8,,,,,7,,,65,60
27072,note_on,,,,,0,0,8,,,,,7,,,60,60
27072,note_off,,,,,48,0,3,,,,,2,,,67,0
27072,note_on,,,,,0,0,3,,,,,2,,,70,100
27072,note_on,,,,,4,0,6,,,,,5,,,53,92
27072,note_on,,,,,4,0,9,,,,,8,,,53,60
27072,note_off,,,,,48,0,4,,,,,3,,,64,0
27072,note_on,,,,,0,0,4,,,,,3,,,65,108
27072,note_on,,,,,4,0,7,,,,,6,,,41,80
27072,note_on,,,,,4,0,8,,,,,7,,,57,60
27072,note_on,,,,,4,0,1,,,,,0,,,70,80
27096,note_off,,,,,24,0,2,,,,,1,,,70,0
27096,note_on,,,,,0,0,2,,,,,1,,,69,77
27096,note_off,,,,,24,0,1,,,,,0,,,70,0
27096,note_off,,,,,24,0,3,,,,,2,,,70,0
27096,note_on,,,,,0,0,1,,,,,0,,,69,80
27096,note_on,,,,,0,0,3,,,,,2,,,69,100
27120,note_off,,,,,24,0,1,,,,,0,,,69,0
27120,note_on,,,,,0,0,1,,,,,0,,,70,80
27120,note_on,,,,,0,0,2,,,,,1,,,70,77
27120,note_off,,,,,24,0,2,,,,,1,,,69,0
27120,note_on,,,,,0,0,3,,,,,2,,,70,100
27120,note_off,,,,,24,0,3,,,,,2,,,69,0
27144,note_on,,,,,0,0,3,,,,,2,,,69,100
27144,note_off,,,,,24,0,2,,,,,1,,,70,0
27144,note_off,,,,,24,0,3,,,,,2,,,70,0
27144,note_on,,,,,0,0,2,,,,,1,,,69,77
27144,note_on,,,,,0,0,1,,,,,0,,,69,80
27144,note_off,,,,,24,0,1,,,,,0,,,70,0
27168,note_off,,,,,24,0,2,,,,,1,,,69,0
27168,note_on,,,,,0,0,2,,,,,1,,,70,77
27168,note_on,,,,,0,0,1,,,,,0,,,70,80
27168,note_off,,,,,24,0,1,,,,,0,,,69,0
27168,note_off,,,,,24,0,3,,,,,2,,,69,0
27168,note_on,,,,,0,0,3,,,,,2,,,70,100
27192,note_on,,,,,0,0,3,,,,,2,,,69,100
27192,note_off,,,,,24,0,3,,,,,2,,,70,0
27192,note_on,,,,,0,0,2,,,,,1,,,69,77
27192,note_on,,,,,0,0,1,,,,,0,,,69,80
27192,note_off,,,,,24,0,1,,,,,0,,,70,0
27192,note_off,,,,,24,0,2,,,,,1,,,70,0
27216,note_on,,,,,0,0,3,,,,,2,,,70,100
27216,note_on,,,,,0,0,1,,,,,0,,,70,80
27216,note_off,,,,,24,0,1,,,,,0,,,69,0
27216,note_off,,,,,24,0,3,,,,,2,,,69,0
27216,note_off,,,,,24,0,2,,,,,1,,,69,0
27216,note_on,,,,,0,0,2,,,,,1,,,70,77
27240,note_off,,,,,24,0,3,,,,,2,,,70,0
27240,note_on,,,,,0,0,3,,,,,2,,,69,100
27240,note_on,,,,,0,0,1,,,,,0,,,69,80
27240,note_off,,,,,24,0,2,,,,,1,,,70,0
27240,note_on,,,,,0,0,2,,,,,1,,,69,77
27240,note_off,,,,,24,0,1,,,,,0,,,70,0
27260,note_off,,,,,188,0,7,,,,,6,,,41,0
27260,note_off,,,,,188,0,5,,,,,4,,,60,0
27260,note_off,,,,,188,0,6,,,,,5,,,53,0
27260,note_off,,,,,188,0,9,,,,,8,,,53,0
27264,note_off,,,,,24,0,2,,,,,1,,,69,0
27264,note_off,,,,,24,0,1,,,,,0,,,69,0
27264,note_on,,,,,4,0,7,,,,,6,,,29,80
27264,note_on,,,,,4,0,6,,,,,5,,,41,92
27264,note_on,,,,,4,0,9,,,,,8,,,41,60
27264,note_off,,,,,24,0,3,,,,,2,,,69,0
27264,note_on,,,,,0,0,3,,,,,2,,,70,100
27264,note_on,,,,,4,0,5,,,,,4,,,65,92
27264,note_on,,,,,0,0,1,,,,,0,,,70,80
27264,note_off,,,,,192,0,4,,,,,3,,,65,0
27264,note_on,,,,,0,0,2,,,,,1,,,70,77
27264,note_on,,,,,0,0,4,,,,,3,,,60,108
27288,note_off,,,,,24,0,3,,,,,2,,,70,0
27288,note_on,,,,,0,0,3,,,,,2,,,69,100
27288,note_on,,,,,0,0,1,,,,,0,,,69,80
27288,note_off,,,,,24,0,1,,,,,0,,,70,0
27288,note_off,,,,,24,0,2,,,,,1,,,70,0
27288,note_on,,,,,0,0,2,,,,,1,,,69,77
27360,note_off,,,,,72,0,2,,,,,1,,,69,0
27360,note_on,,,,,0,0,1,,,,,0,,,70,80
27360,note_off,,,,,72,0,1,,,,,0,,,69,0
27360,note_off,,,,,72,0,3,,,,,2,,,69,0
27360,note_on,,,,,0,0,3,,,,,2,,,70,100
27360,note_on,,,,,0,0,2,,,,,1,,,70,77
27392,note_off,,,,,320,0,8,,,,,7,,,57,0
27392,note_off,,,,,0,0,8,,,,,7,,,60,0
27392,note_off,,,,,0,0,8,,,,,7,,,65,0
27452,note_off,,,,,92,0,1,,,,,0,,,70,0
27452,note_off,,,,,188,0,7,,,,,6,,,29,0
27452,note_off,,,,,92,0,2,,,,,1,,,70,0
27452,note_off,,,,,188,0,6,,,,,5,,,41,0
27452,note_off,,,,,188,0,9,,,,,8,,,41,0
27456,note_on,,,,,4,0,6,,,,,5,,,45,92
27456,note_on,,,,,4,0,7,,,,,6,,,33,80
27456,note_on,,,,,0,0,8,,,,,7,,,65,60
27456,note_on,,,,,4,0,2,,,,,1,,,72,77
27456,note_on,,,,,4,0,9,,,,,8,,,45,60
27456,note_on,,,,,64,0,8,,,,,7,,,57,60
27456,note_on,,,,,4,0,1,,,,,0,,,72,80
27456,note_on,,,,,0,0,8,,,,,7,,,60,60
27456,note_on,,,,,0,0,3,,,,,2,,,72,100
27456,note_off,,,,,96,0,3,,,,,2,,,70,0
27644,note_off,,,,,188,0,8,,,,,7,,,57,0
27644,note_off,,,,,0,0,8,,,,,7,,,65,0
27644,note_off,,,,,188,0,9,,,,,8,,,45,0
27644,note_off,,,,,188,0,6,,,,,5,,,45,0
27644,note_off,,,,,188,0,7,,,,,6,,,33,0
27644,note_off,,,,,380,0,5,,,,,4,,,65,0
27644,note_off,,,,,188,0,1,,,,,0,,,72,0
27644,note_off,,,,,0,0,8,,,,,7,,,60,0
27644,note_off,,,,,188,0,2,,,,,1,,,72,0
27648,note_on,,,,,4,0,7,,,,,6,,,36,80
27648,note_on,,,,,0,0,3,,,,,2,,,67,100
27648,note_on,,,,,4,0,1,,,,,0,,,67,80
27648,note_on,,,,,0,0,8,,,,,7,,,60,60
27648,note_on,,,,,0,0,8,,,,,7,,,64,60
27648,note_on,,,,,4,0,5,,,,,4,,,64,92
27648,note_on,,,,,4,0,6,,,,,5,,,48,92
27648,note_on,,,,,4,0,9,,,,,8,,,48,60
27648,note_on,,,,,4,0,8,,,,,7,,,55,60
27648,note_on,,,,,4,0,2,,,,,1,,,67,77
27648,note_off,,,,,192,0,3,,,,,2,,,72,0
27648,note_on,,,,,0,0,4,,,,,3,,,64,108
27648,note_off,,,,,384,0,4,,,,,3,,,60,0
27696,note_on,,,,,0,0,4,,,,,3,,,65,108
27696,note_off,,,,,48,0,4,,,,,3,,,64,0
27696,note_on,,,,,0,0,3,,,,,2,,,69,100
27696,note_on,,,,,0,0,2,,,,,1,,,69,77
27696,note_off,,,,,48,0,2,,,,,1,,,67,0
27696,note_off,,,,,48,0,3,,,,,2,,,67,0
27696,note_on,,,,,0,0,1,,,,,0,,,69,80
27696,note_off,,,,,48,0,1,,,,,0,,,67,0
27744,note_on,,,,,0,0,3,,,,,2,,,70,100
27744,note_on,,,,,0,0,4,,,,,3,,,67,108
27744,note_off,,,,,48,0,4,,,,,3,,,65,0
27744,note_on,,,,,0,0,2,,,,,1,,,70,77
27744,note_off,,,,,48,0,2,,,,,1,,,69,0
27744,note_off,,,,,48,0,1,,,,,0,,,69,0
27744,note_off,,,,,48,0,3,,,,,2,,,69,0
27744,note_on,,,,,0,0,1,,,,,0,,,70,80
27836,note_off,,,,,0,0,8,,,,,7,,,64,0
27836,note_off,,,,,0,0,8,,,,,7,,,60,0
27836,note_off,,,,,188,0,8,,,,,7,,,55,0
27836,note_off,,,,,188,0,6,,,,,5,,,48,0
27836,note_off,,,,,188,0,5,,,,,4,,,64,0
27836,note_off,,,,,188,0,9,,,,,8,,,48,0
27836,note_off,,,,,92,0,1,,,,,0,,,70,0
27836,note_off,,,,,188,0,7,,,,,6,,,36,0
27836,note_off,,,,,92,0,2,,,,,1,,,70,0
27840,note_on,,,,,4,0,5,,,,,4,,,60,92
27840,note_on,,,,,0,0,4,,,,,3,,,65,108
27840,note_off,,,,,96,0,4,,,,,3,,,67,0
27840,note_on,,,,,4,0,9,,,,,8,,,53,60
27840,note_on,,,,,0,0,3,,,,,2,,,69,100
27840,note_on,,,,,0,0,8,,,,,7,,,60,60
27840,note_on,,,,,4,0,2,,,,,1,,,69,77
27840,note_on,,,,,0,0,8,,,,,7,,,65,60
27840,note_on,,,,,4,0,8,,,,,7,,,57,60
27840,note_on,,,,,4,0,6,,,,,5,,,53,92
27840,note_off,,,,,96,0,3,,,,,2,,,70,0
27840,note_on,,,,,4,0,1,,,,,0,,,69,80
27840,note_on,,,,,4,0,7,,,,,6,,,41,80
28028,note_off,,,,,188,0,6,,,,,5,,,53,0
28028,note_off,,,,,188,0,9,,,,,8,,,53,0
28028,note_off,,,,,188,0,5,,,,,4,,,60,0
28028,note_off,,,,,188,0,7,,,,,6,,,41,0
28032,note_off,,,,,192,0,4,,,,,3,,,65,0
28032,note_on,,,,,0,0,4,,,,,3,,,60,108
28032,note_on,,,,,4,0,9,,,,,8,,,41,60
28032,note_on,,,,,4,0,7,,,,,6,,,29,80
28032,note_on,,,,,4,0,6,,,,,5,,,41,92
28032,note_on,,,,,4,0,5,,,,,4,,,65,92
28124,note_off,,,,,284,0,2,,,,,1,,,69,0
28124,note_off,,,,,284,0,1,,,,,0,,,69,0
28128,note_on,,,,,0,0,3,,,,,2,,,70,100
28128,note_off,,,,,288,0,3,,,,,2,,,69,0
28128,note_on,,,,,4,0,2,,,,,1,,,70,77
28128,note_on,,,,,4,0,1,,,,,0,,,70,80
28160,note_off,,,,,320,0,8,,,,,7,,,57,0
28160,note_off,,,,,0,0,8,,,,,7,,,60,0
28160,note_off,,,,,0,0,8,,,,,7,,,65,0
28220,note_off,,,,,92,0,1,,,,,0,,,70,0
28220,note_off,,,,,188,0,6,,,,,5,,,41,0
28220,note_off,,,,,188,0,7,,,,,6,,,29,0
28220,note_off,,,,,188,0,9,,,,,8,,,41,0
28220,note_off,,,,,92,0,2,,,,,1,,,70,0
28224,note_on,,,,,4,0,1,,,,,0,,,72,80
28224,note_on,,,,,4,0,6,,,,,5,,,45,92
28224,note_on,,,,,0,0,3,,,,,2,,,72,100
28224,note_off,,,,,96,0,3,,,,,2,,,70,0
28224,note_on,,,,,64,0,8,,,,,7,,,57,60
28224,note_on,,,,,0,0,8,,,,,7,,,60,60
28224,note_on,,,,,0,0,8,,,,,7,,,65,60
28224,note_on,,,,,4,0,7,,,,,6,,,33,80
28224,note_on,,,,,4,0,9,,,,,8,,,45,60
28224,note_on,,,,,4,0,2,,,,,1,,,72,77
28412,note_off,,,,,188,0,6,,,,,5,,,45,0
28412,note_off,,,,,188,0,8,,,,,7,,,57,0
28412,note_off,,,,,0,0,8,,,,,7,,,60,0
28412,note_off,,,,,0,0,8,,,,,7,,,65,0
28412,note_off,,,,,188,0,1,,,,,0,,,72,0
28412,note_off,,,,,188,0,7,,,,,6,,,33,0
28412,note_off,,,,,188,0,9,,,,,8,,,45,0
28412,note_off,,,,,188,0,2,,,,,1,,,72,0
28412,note_off,,,,,380,0,5,,,,,4,,,65,0
28416,note_on,,,,,4,0,8,,,,,7,,,55,60
28416,note_on,,,,,0,0,4,,,,,3,,,64,108
28416,note_off,,,,,384,0,4,,,,,3,,,60,0
28416,note_on,,,,,0,0,3,,,,,2,,,67,100
28416,note_off,,,,,192,0,3,,,,,2,,,72,0
28416,note_on,,,,,0,0,8,,,,,7,,,64,60
28416,note_on,,,,,4,0,1,,,,,0,,,67,80
28416,note_on,,,,,4,0,6,,,,,5,,,48,92
28416,note_on,,,,,4,0,5,,,,,4,,,64,92
28416,note_on,,,,,4,0,7,,,,,6,,,36,80
28416,note_on,,,,,4,0,2,,,,,1,,,67,77
28416,note_on,,,,,0,0,8,,,,,7,,,60,60
28416,note_on,,,,,4,0,9,,,,,8,,,48,60
28464,note_on,,,,,0,0,4,,,,,3,,,65,108
28464,note_off,,,,,48,0,1,,,,,0,,,67,0
28464,note_on,,,,,0,0,1,,,,,0,,,69,80
28464,note_off,,,,,48,0,4,,,,,3,,,64,0
28464,note_off,,,,,48,0,2,,,,,1,,,67,0
28464,note_on,,,,,0,0,2,,,,,1,,,69,77
28464,note_off,,,,,48,0,3,,,,,2,,,67,0
28464,note_on,,,,,0,0,3,,,,,2,,,69,100
28512,note_off,,,,,48,0,2,,,,,1,,,69,0
28512,note_off,,,,,48,0,4,,,,,3,,,65,0
28512,note_on,,,,,0,0,3,,,,,2,,,70,100
28512,note_off,,,,,48,0,1,,,,,0,,,69,0
28512,note_on,,,,,0,0,1,,,,,0,,,70,80
28512,note_on,,,,,0,0,4,,,,,3,,,67,108
28512,note_on,,,,,0,0,2,,,,,1,,,70,77
28512,note_off,,,,,48,0,3,,,,,2,,,69,0
28604,note_off,,,,,92,0,2,,,,,1,,,70,0
28604,note_off,,,,,188,0,7,,,,,6,,,36,0
28604,note_off,,,,,0,0,8,,,,,7,,,60,0
28604,note_off,,,,,0,0,8,,,,,7,,,64,0
28604,note_off,,,,,188,0,6,,,,,5,,,48,0
28604,note_off,,,,,188,0,8,,,,,7,,,55,0
28604,note_off,,,,,92,0,1,,,,,0,,,70,0
28604,note_off,,,,,188,0,9,,,,,8,,,48,0
28604,note_off,,,,,188,0,5,,,,,4,,,64,0
28608,note_on,,,,,4,0,6,,,,,5,,,53,92
28608,note_off,,,,,96,0,3,,,,,2,,,70,0
28608,note_on,,,,,0,0,4,,,,,3,,,65,108
28608,note_on,,,,,0,0,8,,,,,7,,,65,60
28608,note_on,,,,,4,0,8,,,,,7,,,57,60
28608,note_on,,,,,4,0,9,,,,,8,,,53,60
28608,note_on,,,,,0,0,8,,,,,7,,,60,60
28608,note_on,,,,,4,0,7,,,,,6,,,41,80
28608,note_on,,,,,0,0,3,,,,,2,,,69,100
28608,note_off,,,,,96,0,4,,,,,3,,,67,0
28608,note_on,,,,,4,0,2,,,,,1,,,69,77
28608,note_on,,,,,4,0,1,,,,,0,,,69,80
28608,note_on,,,,,4,0,5,,,,,4,,,60,92
28748,note_off,,,,,140,0,1,,,,,0,,,69,0
28748,note_off,,,,,140,0,2,,,,,1,,,69,0
28752,note_off,,,,,144,0,3,,,,,2,,,69,0
28752,note_on,,,,,0,0,3,,,,,2,,,67,100
28752,note_on,,,,,4,0,2,,,,,1,,,67,77
28752,note_on,,,,,4,0,1,,,,,0,,,67,80
28796,note_off,,,,,188,0,6,,,,,5,,,53,0
28796,note_off,,,,,0,0,8,,,,,7,,,60,0
28796,note_off,,,,,188,0,5,,,,,4,,,60,0
28796,note_off,,,,,0,0,8,,,,,7,,,65,0
28796,note_off,,,,,188,0,8,,,,,7,,,57,0
28796,note_off,,,,,188,0,9,,,,,8,,,53,0
28796,note_off,,,,,188,0,7,,,,,6,,,41,0
28796,note_off,,,,,44,0,1,,,,,0,,,67,0
28796,note_off,,,,,44,0,2,,,,,1,,,67,0
28800,note_on,,,,,0,0,8,,,,,7,,,60,60
28800,note_on,,,,,4,0,8,,,,,7,,,57,60
28800,note_on,,,,,4,0,9,,,,,8,,,41,60
28800,note_on,,,,,4,0,1,,,,,0,,,65,80
28800,note_on,,,,,4,0,6,,,,,5,,,41,92
28800,note_off,,,,,192,0,4,,,,,3,,,65,0
28800,note_on,,,,,0,0,4,,,,,3,,,60,108
28800,note_on,,,,,4,0,7,,,,,6,,,29,80
28800,note_off,,,,,48,0,3,,,,,2,,,67,0
28800,note_on,,,,,0,0,3,,,,,2,,,65,100
28800,note_on,,,,,4,0,2,,,,,1,,,65,77
28800,note_on,,,,,4,0,5,,,,,4,,,57,92
28988,note_off,,,,,188,0,2,,,,,1,,,65,0
28988,note_off,,,,,188,0,1,,,,,0,,,65,0
28988,note_off,,,,,188,0,9,,,,,8,,,41,0
28988,note_off,,,,,188,0,7,,,,,6,,,29,0
28988,note_off,,,,,188,0,8,,,,,7,,,57,0
28988,note_off,,,,,188,0,6,,,,,5,,,41,0
28988,note_off,,,,,188,0,5,,,,,4,,,57,0
28988,note_off,,,,,0,0,8,,,,,7,,,60,0
28992,note_off,,,,,192,0,3,,,,,2,,,65,0
28992,note_off,,,,,192,0,4,,,,,3,,,60,0
29184,note_on,,,,,196,0,5,,,,,4,,,62,45
29184,note_on,,,,,192,0,4,,,,,3,,,65,60
29184,note_on,,,,,196,0,7,,,,,6,,,44,39
29184,note_on,,,,,192,0,3,,,,,2,,,75,49
29184,note_on,,,,,196,0,8,,,,,7,,,60,30
29184,note_on,,,,,0,0,8,,,,,7,,,62,30
29184,note_on,,,,,0,0,8,,,,,7,,,65,30
29184,note_on,,,,,196,0,9,,,,,8,,,56,30
29184,note_on,,,,,196,0,6,,,,,5,,,56,45
29184,note_on,,,,,196,0,1,,,,,0,,,75,39
29184,note_on,,,,,196,0,2,,,,,1,,,75,37
29232,note_off,,,,,48,0,3,,,,,2,,,75,0
29232,note_off,,,,,48,0,2,,,,,1,,,75,0
29232,note_on,,,,,0,0,2,,,,,1,,,74,37
29232,note_on,,,,,0,0,1,,,,,0,,,74,39
29232,note_off,,,,,48,0,1,,,,,0,,,75,0
29232,note_on,,,,,0,0,3,,,,,2,,,74,49
29280,note_on,,,,,0,0,2,,,,,1,,,72,37
29280,note_off,,,,,48,0,3,,,,,2,,,74,0
29280,note_on,,,,,0,0,1,,,,,0,,,72,39
29280,note_on,,,,,0,0,3,,,,,2,,,72,49
29280,note_off,,,,,48,0,2,,,,,1,,,74,0
29280,note_off,,,,,48,0,1,,,,,0,,,74,0
29372,note_off,,,,,92,0,1,,,,,0,,,72,0
29372,note_off,,,,,188,0,9,,,,,8,,,56,0
29372,note_off,,,,,188,0,8,,,,,7,,,60,0
29372,note_off,,,,,0,0,8,,,,,7,,,62,0
29372,note_off,,,,,188,0,5,,,,,4,,,62,0
29372,note_off,,,,,188,0,6,,,,,5,,,56,0
29372,note_off,,,,,92,0,2,,,,,1,,,72,0
29372,note_off,,,,,0,0,8,,,,,7,,,65,0
29372,note_off,,,,,188,0,7,,,,,6,,,44,0
29376,note_on,,,,,4,0,2,,,,,1,,,71,37
29376,note_on,,,,,0,0,8,,,,,7,,,67,30
29376,note_on,,,,,0,0,8,,,,,7,,,62,30
29376,note_on,,,,,4,0,8,,,,,7,,,59,30
29376,note_on,,,,,4,0,9,,,,,8,,,55,30
29376,note_on,,,,,4,0,7,,,,,6,,,43,39
29376,note_off,,,,,96,0,3,,,,,2,,,72,0
29376,note_on,,,,,4,0,1,,,,,0,,,71,39
29376,note_on,,,,,0,0,4,,,,,3,,,67,60
29376,note_on,,,,,4,0,6,,,,,5,,,55,45
29376,note_on,,,,,0,0,3,,,,,2,,,71,49
29376,note_off,,,,,192,0,4,,,,,3,,,65,0
29376,note_on,,,,,4,0,5,,,,,4,,,62,45
29468,note_off,,,,,92,0,1,,,,,0,,,71,0
29468,note_off,,,,,92,0,2,,,,,1,,,71,0
29472,note_on,,,,,4,0,2,,,,,1,,,80,37
29472,note_on,,,,,0,0,3,,,,,2,,,80,49
29472,note_off,,,,,96,0,3,,,,,2,,,71,0
29472,note_on,,,,,4,0,1,,,,,0,,,80,39
29564,note_off,,,,,92,0,2,,,,,1,,,80,0
29564,note_off,,,,,188,0,9,,,,,8,,,55,0
29564,note_off,,,,,0,0,8,,,,,7,,,67,0
29564,note_off,,,,,188,0,5,,,,,4,,,62,0
29564,note_off,,,,,188,0,8,,,,,7,,,59,0
29564,note_off,,,,,188,0,7,,,,,6,,,43,0
29564,note_off,,,,,0,0,8,,,,,7,,,62,0
29564,note_off,,,,,92,0,1,,,,,0,,,80,0
29564,note_off,,,,,188,0,6,,,,,5,,,55,0
29568,note_off,,,,,192,0,4,,,,,3,,,67,0
29568,note_on,,,,,4,0,1,,,,,0,,,79,39
29568,note_on,,,,,4,0,2,,,,,1,,,79,37
29568,note_on,,,,,4,0,9,,,,,8,,,55,30
29568,note_on,,,,,4,0,7,,,,,6,,,43,39
29568,note_off,,,,,96,0,3,,,,,2,,,80,0
29568,note_on,,,,,0,0,3,,,,,2,,,79,49
29568,note_on,,,,,0,0,8,,,,,7,,,67,30
29568,note_on,,,,,0,0,8,,,,,7,,,62,30
29568,note_on,,,,,4,0,8,,,,,7,,,59,30
29568,note_on,,,,,4,0,6,,,,,5,,,55,45
29568,note_on,,,,,0,0,4,,,,,3,,,71,60
29568,note_on,,,,,4,0,5,,,,,4,,,62,45
29664,note_on,,,,,0,0,1,,,,,0,,,80,39
29664,note_on,,,,,0,0,2,,,,,1,,,80,37
29664,note_off,,,,,96,0,2,,,,,1,,,79,0
29664,note_off,,,,,96,0,3,,,,,2,,,79,0
29664,note_on,,,,,0,0,3,,,,,2,,,80,49
29664,note_off,,,,,96,0,1,,,,,0,,,79,0
29756,note_off,,,,,188,0,7,,,,,6,,,43,0
29756,note_off,,,,,92,0,2,,,,,1,,,80,0
29756,note_off,,,,,188,0,9,,,,,8,,,55,0
29756,note_off,,,,,188,0,5,,,,,4,,,62,0
29756,note_off,,,,,92,0,1,,,,,0,,,80,0
29756,note_off,,,,,0,0,8,,,,,7,,,62,0
29756,note_off,,,,,188,0,8,,,,,7,,,59,0
29756,note_off,,,,,0,0,8,,,,,7,,,67,0
29756,note_off,,,,,188,0,6,,,,,5,,,55,0
29760,note_on,,,,,4,0,2,,,,,1,,,79,37
29760,note_on,,,,,0,0,8,,,,,7,,,71,30
29760,note_on,,,,,0,0,4,,,,,3,,,71,60
29760,note_on,,,,,4,0,7,,,,,6,,,41,39
29760,note_on,,,,,4,0,1,,,,,0,,,79,39
29760,note_off,,,,,192,0,4,,,,,3,,,71,0
29760,note_on,,,,,0,0,8,,,,,7,,,67,30
29760,note_on,,,,,4,0,5,,,,,4,,,62,45
29760,note_on,,,,,4,0,8,,,,,7,,,62,30
29760,note_off,,,,,96,0,3,,,,,2,,,80,0
29760,note_on,,,,,0,0,3,,,,,2,,,79,49
29760,note_on,,,,,4,0,9,,,,,8,,,53,30
29760,note_on,,,,,4,0,6,,,,,5,,,53,45
29856,note_off,,,,,96,0,2,,,,,1,,,79,0
29856,note_off,,,,,96,0,1,,,,,0,,,79,0
29856,note_on,,,,,0,0,1,,,,,0,,,80,39
29856,note_off,,,,,96,0,3,,,,,2,,,79,0
29856,note_on,,,,,0,0,3,,,,,2,,,80,49
29856,note_on,,,,,0,0,2,,,,,1,,,80,37
29948,note_off,,,,,188,0,9,,,,,8,,,53,0
29948,note_off,,,,,92,0,2,,,,,1,,,80,0
29948,note_off,,,,,92,0,1,,,,,0,,,80,0
29948,note_off,,,,,0,0,8,,,,,7,,,67,0
29948,note_off,,,,,0,0,8,,,,,7,,,71,0
29948,note_off,,,,,188,0,6,,,,,5,,,53,0
29948,note_off,,,,,188,0,5,,,,,4,,,62,0
29948,note_off,,,,,188,0,8,,,,,7,,,62,0
29948,note_off,,,,,188,0,7,,,,,6,,,41,0
29952,note_off,,,,,192,0,4,,,,,3,,,71,0
29952,note_on,,,,,0,0,4,,,,,3,,,71,60
29952,note_on,,,,,4,0,6,,,,,5,,,53,45
29952,note_on,,,,,0,0,3,,,,,2,,,79,49
29952,note_on,,,,,0,0,8,,,,,7,,,71,30
29952,note_on,,,,,4,0,5,,,,,4,,,62,45
29952,note_on,,,,,4,0,7,,,,,6,,,41,39
29952,note_on,,,,,4,0,1,,,,,0,,,79,39
29952,note_on,,,,,4,0,9,,,,,8,,,53,30
29952,note_on,,,,,0,0,8,,,,,7,,,67,30
29952,note_off,,,,,96,0,3,,,,,2,,,80,0
29952,note_on,,,,,4,0,2,,,,,1,,,79,37
29952,note_on,,,,,4,0,8,,,,,7,,,62,30
30048,note_off,,,,,96,0,2,,,,,1,,,79,0
30048,note_off,,,,,96,0,3,,,,,2,,,79,0
30048,note_off,,,,,96,0,1,,,,,0,,,79,0
30048,note_on,,,,,0,0,2,,,,,1,,,80,37
30048,note_on,,,,,0,0,3,,,,,2,,,80,49
30048,note_on,,,,,0,0,1,,,,,0,,,80,39
30140,note_off,,,,,188,0,5,,,,,4,,,62,0
30140,note_off,,,,,188,0,6,,,,,5,,,53,0
30140,note_off,,,,,188,0,7,,,,,6,,,41,0
30140,note_off,,,,,0,0,8,,,,,7,,,71,0
30140,note_off,,,,,92,0,1,,,,,0,,,80,0
30140,note_off,,,,,0,0,8,,,,,7,,,67,0
30140,note_off,,,,,188,0,8,,,,,7,,,62,0
30140,note_off,,,,,188,0,9,,,,,8,,,53,0
30140,note_off,,,,,92,0,2,,,,,1,,,80,0
30144,note_on,,,,,4,0,9,,,,,8,,,51,30
30144,note_on,,,,,0,0,4,,,,,3,,,72,60
30144,note_on,,,,,4,0,7,,,,,6,,,39,39
30144,note_on,,,,,4,0,2,,,,,1,,,72,37
30144,note_on,,,,,4,0,1,,,,,0,,,72,39
30144,note_on,,,,,0,0,3,,,,,2,,,72,49
30144,note_on,,,,,4,0,5,,,,,4,,,67,45
30144,note_on,,,,,0,0,8,,,,,7,,,72,30
30144,note_on,,,,,0,0,8,,,,,7,,,67,30
30144,note_on,,,,,4,0,8,,,,,7,,,63,30
30144,note_on,,,,,4,0,6,,,,,5,,,51,45
30144,note_off,,,,,192,0,4,,,,,3,,,71,0
30144,note_off,,,,,96,0,3,,,,,2,,,80,0
30236,note_off,,,,,92,0,1,,,,,0,,,72,0
30236,note_off,,,,,92,0,2,,,,,1,,,72,0
30240,note_on,,,,,4,0,1,,,,,0,,,80,39
30240,note_off,,,,,96,0,3,,,,,2,,,72,0
30240,note_on,,,,,0,0,3,,,,,2,,,80,49
30240,note_on,,,,,4,0,2,,,,,1,,,80,37
30332,note_off,,,,,188,0,6,,,,,5,,,51,0
30332,note_off,,,,,188,0,7,,,,,6,,,39,0
30332,note_off,,,,,92,0,2,,,,,1,,,80,0
30332,note_off,,,,,188,0,8,,,,,7,,,63,0
30332,note_off,,,,,0,0,8,,,,,7,,,72,0
30332,note_off,,,,,188,0,9,,,,,8,,,51,0
30332,note_off,,,,,0,0,8,,,,,7,,,67,0
30332,note_off,,,,,92,0,1,,,,,0,,,80,0
30332,note_off,,,,,188,0,5,,,,,4,,,67,0
30336,note_on,,,,,4,0,5,,,,,4,,,67,45
30336,note_on,,,,,4,0,1,,,,,0,,,79,39
30336,note_off,,,,,96,0,3,,,,,2,,,80,0
30336,note_on,,,,,0,0,3,,,,,2,,,79,49
30336,note_on,,,,,4,0,6,,,,,5,,,51,45
30336,note_on,,,,,4,0,7,,,,,6,,,39,39
30336,note_on,,,,,4,0,2,,,,,1,,,79,37
30336,note_off,,,,,192,0,4,,,,,3,,,72,0
30336,note_on,,,,,4,0,8,,,,,7,,,63,30
30336,note_on,,,,,0,0,8,,,,,7,,,67,30
30336,note_on,,,,,0,0,4,,,,,3,,,72,60
30336,note_on,,,,,4,0,9,,,,,8,,,51,30
30336,note_on,,,,,0,0,8,,,,,7,,,72,30
30432,note_off,,,,,96,0,2,,,,,1,,,79,0
30432,note_off,,,,,96,0,3,,,,,2,,,79,0
30432,note_on,,,,,0,0,3,,,,,2,,,80,49
30432,note_on,,,,,0,0,1,,,,,0,,,80,39
30432,note_off,,,,,96,0,1,,,,,0,,,79,0
30432,note_on,,,,,0,0,2,,,,,1,,,80,37
30524,note_off,,,,,188,0,6,,,,,5,,,51,0
30524,note_off,,,,,188,0,9,,,,,8,,,51,0
30524,note_off,,,,,92,0,2,,,,,1,,,80,0
30524,note_off,,,,,188,0,8,,,,,7,,,63,0
30524,note_off,,,,,188,0,7,,,,,6,,,39,0
30524,note_off,,,,,0,0,8,,,,,7,,,67,0
30524,note_off,,,,,92,0,1,,,,,0,,,80,0
30524,note_off,,,,,188,0,5,,,,,4,,,67,0
30524,note_off,,,,,0,0,8,,,,,7,,,72,0
30528,note_off,,,,,192,0,4,,,,,3,,,72,0
30528,note_on,,,,,0,0,4,,,,,3,,,75,60
30528,note_on,,,,,4,0,6,,,,,5,,,60,45
30528,note_on,,,,,4,0,5,,,,,4,,,67,45
30528,note_on,,,,,4,0,1,,,,,0,,,79,39
30528,note_on,,,,,4,0,2,,,,,1,,,79,37
30528,note_on,,,,,0,0,3,,,,,2,,,79,49
30528,note_on,,,,,4,0,9,,,,,8,,,60,30
30528,note_on,,,,,4,0,7,,,,,6,,,48,39
30528,note_on,,,,,0,0,8,,,,,7,,,72,30
30528,note_on,,,,,4,0,8,,,,,7,,,63,30
30528,note_on,,,,,0,0,8,,,,,7,,,67,30
30528,note_off,,,,,96,0,3,,,,,2,,,80,0
30624,note_off,,,,,96,0,3,,,,,2,,,79,0
30624,note_on,,,,,0,0,3,,,,,2,,,80,49
30624,note_off,,,,,96,0,2,,,,,1,,,79,0
30624,note_on,,,,,0,0,2,,,,,1,,,80,37
30624,note_off,,,,,96,0,1,,,,,0,,,79,0
30624,note_on,,,,,0,0,1,,,,,0,,,80,39
30716,note_off,,,,,188,0,7,,,,,6,,,48,0
30716,note_off,,,,,188,0,5,,,,,4,,,67,0
30716,note_off,,,,,188,0,9,,,,,8,,,60,0
30716,note_off,,,,,92,0,2,,,,,1,,,80,0
30716,note_off,,,,,188,0,6,,,,,5,,,60,0
30716,note_off,,,,,92,0,1,,,,,0,,,80,0
30716,note_off,,,,,188,0,8,,,,,7,,,63,0
30716,note_off,,,,,0,0,8,,,,,7,,,67,0
30716,note_off,,,,,0,0,8,,,,,7,,,72,0
30720,note_off,,,,,96,0,3,,,,,2,,,80,0
30720,note_on,,,,,0,0,3,,,,,2,,,79,49
30720,note_on,,,,,4,0,2,,,,,1,,,79,37
30720,note_on,,,,,4,0,5,,,,,4,,,67,45
30720,note_on,,,,,0,0,8,,,,,7,,,67,30
30720,note_on,,,,,4,0,7,,,,,6,,,48,39
30720,note_on,,,,,4,0,1,,,,,0,,,79,39
30720,note_on,,,,,4,0,6,,,,,5,,,60,45
30720,note_on,,,,,4,0,9,,,,,8,,,60,30
30720,note_on,,,,,0,0,4,,,,,3,,,75,60
30720,note_off,,,,,192,0,4,,,,,3,,,75,0
30720,note_on,,,,,4,0,8,,,,,7,,,63,30
30720,note_on,,,,,0,0,8,,,,,7,,,72,30
30816,note_on,,,,,0,0,3,,,,,2,,,80,49
30816,note_off,,,,,96,0,3,,,,,2,,,79,0
30816,note_on,,,,,0,0,2,,,,,1,,,80,37
30816,note_off,,,,,96,0,2,,,,,1,,,79,0
30816,note_on,,,,,0,0,1,,,,,0,,,80,39
30816,note_off,,,,,96,0,1,,,,,0,,,79,0
30908,note_off,,,,,188,0,9,,,,,8,,,60,0
30908,note_off,,,,,92,0,1,,,,,0,,,80,0
30908,note_off,,,,,188,0,6,,,,,5,,,60,0
30908,note_off,,,,,188,0,8,,,,,7,,,63,0
30908,note_off,,,,,188,0,5,,,,,4,,,67,0
30908,note_off,,,,,0,0,8,,,,,7,,,67,0
30908,note_off,,,,,188,0,7,,,,,6,,,48,0
30908,note_off,,,,,92,0,2,,,,,1,,,80,0
30908,note_off,,,,,0,0,8,,,,,7,,,72,0
30912,note_on,,,,,4,0,8,,,,,7,,,62,30
30912,note_on,,,,,4,0,6,,,,,5,,,59,45
30912,note_on,,,,,4,0,7,,,,,6,,,47,39
30912,note_on,,,,,0,0,8,,,,,7,,,74,30
30912,note_on,,,,,4,0,1,,,,,0,,,74,39
30912,note_on,,,,,4,0,2,,,,,1,,,74,37
30912,note_on,,,,,0,0,8,,,,,7,,,67,30
30912,note_on,,,,,4,0,5,,,,,4,,,67,45
30912,note_on,,,,,4,0,9,,,,,8,,,59,30
30912,note_off,,,,,192,0,4,,,,,3,,,75,0
30912,note_off,,,,,96,0,3,,,,,2,,,80,0
30912,note_on,,,,,0,0,3,,,,,2,,,74,49
30912,note_on,,,,,0,0,4,,,,,3,,,74,60
31004,note_off,,,,,92,0,1,,,,,0,,,74,0
31004,note_off,,,,,92,0,2,,,,,1,,,74,0
31008,note_on,,,,,4,0,1,,,,,0,,,80,39
31008,note_on,,,,,0,0,3,,,,,2,,,80,49
31008,note_off,,,,,96,0,3,,,,,2,,,74,0
31008,note_on,,,,,4,0,2,,,,,1,,,80,37
31100,note_off,,,,,188,0,6,,,,,5,,,59,0
31100,note_off,,,,,0,0,8,,,,,7,,,67,0
31100,note_off,,,,,0,0,8,,,,,7,,,74,0
31100,note_off,,,,,92,0,2,,,,,1,,,80,0
31100,note_off,,,,,188,0,5,,,,,4,,,67,0
31100,note_off,,,,,188,0,7,,,,,6,,,47,0
31100,note_off,,,,,188,0,9,,,,,8,,,59,0
31100,note_off,,,,,188,0,8,,,,,7,,,62,0
31100,note_off,,,,,92,0,1,,,,,0,,,80,0
31104,note_off,,,,,96,0,3,,,,,2,,,80,0
31104,note_on,,,,,0,0,8,,,,,7,,,67,30
31104,note_on,,,,,0,0,8,,,,,7,,,74,30
31104,note_on,,,,,0,0,3,,,,,2,,,79,49
31104,note_on,,,,,4,0,1,,,,,0,,,79,39
31104,note_on,,,,,0,0,4,,,,,3,,,74,60
31104,note_on,,,,,4,0,5,,,,,4,,,67,45
31104,note_off,,,,,192,0,4,,,,,3,,,74,0
31104,note_on,,,,,4,0,8,,,,,7,,,62,30
31104,note_on,,,,,4,0,2,,,,,1,,,79,37
31104,note_on,,,,,4,0,9,,,,,8,,,59,30
31104,note_on,,,,,4,0,6,,,,,5,,,59,45
31104,note_on,,,,,4,0,7,,,,,6,,,47,39
31200,note_off,,,,,96,0,1,,,,,0,,,79,0
31200,note_on,,,,,0,0,1,,,,,0,,,80,39
31200,note_on,,,,,0,0,2,,,,,1,,,80,37
31200,note_off,,,,,96,0,2,,,,,1,,,79,0
31200,note_off,,,,,96,0,3,,,,,2,,,79,0
31200,note_on,,,,,0,0,3,,,,,2,,,80,49
31292,note_off,,,,,188,0,8,,,,,7,,,62,0
31292,note_off,,,,,0,0,8,,,,,7,,,67,0
31292,note_off,,,,,0,0,8,,,,,7,,,74,0
31292,note_off,,,,,92,0,2,,,,,1,,,80,0
31292,note_off,,,,,188,0,6,,,,,5,,,59,0
31292,note_off,,,,,188,0,5,,,,,4,,,67,0
31292,note_off,,,,,92,0,1,,,,,0,,,80,0
31292,note_off,,,,,188,0,9,,,,,8,,,59,0
31292,note_off,,,,,188,0,7,,,,,6,,,47,0
31296,note_on,,,,,4,0,6,,,,,5,,,50,45
31296,note_on,,,,,0,0,4,,,,,3,,,74,60
31296,note_off,,,,,192,0,4,,,,,3,,,74,0
31296,note_on,,,,,4,0,9,,,,,8,,,50,30
31296,note_on,,,,,4,0,1,,,,,0,,,79,39
31296,note_on,,,,,0,0,3,,,,,2,,,79,49
31296,note_on,,,,,4,0,8,,,,,7,,,62,30
31296,note_on,,,,,4,0,2,,,,,1,,,79,37
31296,note_off,,,,,96,0,3,,,,,2,,,80,0
31296,note_on,,,,,0,0,8,,,,,7,,,74,30
31296,note_on,,,,,0,0,8,,,,,7,,,67,30
31296,note_on,,,,,4,0,5,,,,,4,,,67,45
31296,note_on,,,,,4,0,7,,,,,6,,,38,39
31392,note_off,,,,,96,0,3,,,,,2,,,79,0
31392,note_on,,,,,0,0,3,,,,,2,,,80,49
31392,note_on,,,,,0,0,1,,,,,0,,,80,39
31392,note_off,,,,,96,0,1,,,,,0,,,79,0
31392,note_off,,,,,96,0,2,,,,,1,,,79,0
31392,note_on,,,,,0,0,2,,,,,1,,,80,37
31484,note_off,,,,,0,0,8,,,,,7,,,74,0
31484,note_off,,,,,188,0,8,,,,,7,,,62,0
31484,note_off,,,,,188,0,7,,,,,6,,,38,0
31484,note_off,,,,,0,0,8,,,,,7,,,67,0
31484,note_off,,,,,188,0,5,,,,,4,,,67,0
31484,note_off,,,,,92,0,2,,,,,1,,,80,0
31484,note_off,,,,,188,0,9,,,,,8,,,50,0
31484,note_off,,,,,92,0,1,,,,,0,,,80,0
31484,note_off,,,,,188,0,6,,,,,5,,,50,0
31488,note_on,,,,,4,0,7,,,,,6,,,38,39
31488,note_on,,,,,4,0,5,,,,,4,,,67,45
31488,note_on,,,,,4,0,9,,,,,8,,,50,30
31488,note_off,,,,,96,0,3,,,,,2,,,80,0
31488,note_off,,,,,192,0,4,,,,,3,,,74,0
31488,note_on,,,,,0,0,4,,,,,3,,,74,60
31488,note_on,,,,,4,0,2,,,,,1,,,77,37
31488,note_on,,,,,0,0,8,,,,,7,,,74,30
31488,note_on,,,,,0,0,8,,,,,7,,,67,30
31488,note_on,,,,,4,0,8,,,,,7,,,62,30
31488,note_on,,,,,0,0,3,,,,,2,,,77,49
31488,note_on,,,,,4,0,6,,,,,5,,,50,45
31488,note_on,,,,,4,0,1,,,,,0,,,77,39
31584,note_off,,,,,96,0,3,,,,,2,,,77,0
31584,note_on,,,,,0,0,3,,,,,2,,,79,49
31584,note_on,,,,,0,0,2,,,,,1,,,79,37
31584,note_off,,,,,96,0,2,,,,,1,,,77,0
31584,note_off,,,,,96,0,1,,,,,0,,,77,0
31584,note_on,,,,,0,0,1,,,,,0,,,79,39
31676,note_off,,,,,188,0,8,,,,,7,,,62,0
31676,note_off,,,,,92,0,1,,,,,0,,,79,0
31676,note_off,,,,,188,0,5,,,,,4,,,67,0
31676,note_off,,,,,0,0,8,,,,,7,,,67,0
31676,note_off,,,,,0,0,8,,,,,7,,,74,0
31676,note_off,,,,,188,0,7,,,,,6,,,38,0
31676,note_off,,,,,188,0,9,,,,,8,,,50,0
31676,note_off,,,,,92,0,2,,,,,1,,,79,0
31676,note_off,,,,,188,0,6,,,,,5,,,50,0
31680,note_on,,,,,4,0,9,,,,,8,,,51,30
31680,note_on,,,,,4,0,2,,,,,1,,,75,37
31680,note_off,,,,,192,0,4,,,,,3,,,74,0
31680,note_on,,,,,4,0,8,,,,,7,,,63,30
31680,note_on,,,,,4,0,5,,,,,4,,,67,45
31680,note_on,,,,,4,0,6,,,,,5,,,51,45
31680,note_on,,,,,4,0,1,,,,,0,,,75,39
31680,note_on,,,,,0,0,8,,,,,7,,,72,30
31680,note_on,,,,,0,0,8,,,,,7,,,67,30
31680,note_on,,,,,0,0,3,,,,,2,,,75,49
31680,note_off,,,,,96,0,3,,,,,2,,,79,0
31680,note_on,,,,,0,0,4,,,,,3,,,72,60
31680,note_on,,,,,4,0,7,,,,,6,,,39,39
31772,note_off,,,,,92,0,1,,,,,0,,,75,0
31772,note_off,,,,,92,0,2,,,,,1,,,75,0
31776,note_on,,,,,4,0,1,,,,,0,,,74,39
31776,note_on,,,,,4,0,2,,,,,1,,,74,37
31776,note_on,,,,,0,0,3,,,,,2,,,74,49
31776,note_off,,,,,96,0,3,,,,,2,,,75,0
31868,note_off,,,,,92,0,2,,,,,1,,,74,0
31868,note_off,,,,,92,0,1,,,,,0,,,74,0
31868,note_off,,,,,188,0,5,,,,,4,,,67,0
31868,note_off,,,,,188,0,7,,,,,6,,,39,0
31868,note_off,,,,,188,0,9,,,,,8,,,51,0
31868,note_off,,,,,188,0,8,,,,,7,,,63,0
31868,note_off,,,,,0,0,8,,,,,7,,,67,0
31868,note_off,,,,,188,0,6,,,,,5,,,51,0
31868,note_off,,,,,0,0,8,,,,,7,,,72,0
31872,note_on,,,,,4,0,5,,,,,4,,,63,45
31872,note_on,,,,,4,0,7,,,,,6,,,48,39
31872,note_on,,,,,4,0,9,,,,,8,,,60,30
31872,note_off,,,,,96,0,3,,,,,2,,,74,0
31872,note_on,,,,,0,0,3,,,,,2,,,72,49
31872,note_on,,,,,4,0,6,,,,,5,,,60,45
31872,note_on,,,,,4,0,1,,,,,0,,,72,39
31872,note_on,,,,,4,0,2,,,,,1,,,72,37
31872,note_on,,,,,4,0,8,,,,,7,,,63,30
31872,note_on,,,,,0,0,8,,,,,7,,,67,30
31872,note_on,,,,,0,0,4,,,,,3,,,67,60
31872,note_off,,,,,192,0,4,,,,,3,,,72,0
32060,note_off,,,,,188,0,5,,,,,4,,,63,0
32060,note_off,,,,,188,0,6,,,,,5,,,60,0
32060,note_off,,,,,188,0,7,,,,,6,,,48,0
32060,note_off,,,,,188,0,8,,,,,7,,,63,0
32060,note_off,,,,,0,0,8,,,,,7,,,67,0
32060,note_off,,,,,188,0,9,,,,,8,,,60,0
32060,note_off,,,,,188,0,1,,,,,0,,,72,0
32060,note_off,,,,,188,0,2,,,,,1,,,72,0
32064,note_on,,,,,0,0,8,,,,,7,,,67,30
32064,note_off,,,,,192,0,4,,,,,3,,,67,0
32064,note_on,,,,,4,0,8,,,,,7,,,62,30
32064,note_on,,,,,4,0,7,,,,,6,,,46,39
32064,note_off,,,,,192,0,3,,,,,2,,,72,0
32064,note_on,,,,,4,0,9,,,,,8,,,58,30
32064,note_on,,,,,4,0,6,,,,,5,,,58,45
32252,note_off,,,,,188,0,7,,,,,6,,,46,0
32252,note_off,,,,,188,0,9,,,,,8,,,58,0
32252,note_off,,,,,188,0,6,,,,,5,,,58,0
32252,note_off,,,,,188,0,8,,,,,7,,,62,0
32252,note_off,,,,,0,0,8,,,,,7,,,67,0
32256,note_on,,,,,4,0,6,,,,,5,,,55,45
32256,note_on,,,,,4,0,8,,,,,7,,,62,30
32256,note_on,,,,,0,0,8,,,,,7,,,67,30
32256,note_on,,,,,0,0,8,,,,,7,,,70,30
32256,note_on,,,,,196,0,1,,,,,0,,,82,39
32256,note_on,,,,,192,0,4,,,,,3,,,67,60
32256,note_on,,,,,196,0,2,,,,,1,,,82,37
32256,note_on,,,,,4,0,9,,,,,8,,,55,30
32256,note_on,,,,,192,0,3,,,,,2,,,82,49
32256,note_on,,,,,196,0,5,,,,,4,,,62,45
32256,note_on,,,,,4,0,7,,,,,6,,,43,39
32300,note_off,,,,,44,0,1,,,,,0,,,82,0
32300,note_off,,,,,44,0,2,,,,,1,,,82,0
32304,note_off,,,,,48,0,3,,,,,2,,,82,0
32304,note_on,,,,,0,0,3,,,,,2,,,81,49
32304,note_on,,,,,4,0,2,,,,,1,,,81,37
32304,note_on,,,,,4,0,1,,,,,0,,,81,39
32348,note_off,,,,,44,0,2,,,,,1,,,81,0
32348,note_off,,,,,44,0,1,,,,,0,,,81,0
32352,note_on,,,,,4,0,2,,,,,1,,,79,37
32352,note_off,,,,,48,0,3,,,,,2,,,81,0
32352,note_on,,,,,0,0,3,,,,,2,,,79,49
32352,note_on,,,,,4,0,1,,,,,0,,,79,39
32444,note_off,,,,,188,0,9,,,,,8,,,55,0
32444,note_off,,,,,188,0,7,,,,,6,,,43,0
32444,note_off,,,,,92,0,2,,,,,1,,,79,0
32444,note_off,,,,,92,0,1,,,,,0,,,79,0
32444,note_off,,,,,188,0,6,,,,,5,,,55,0
32444,note_off,,,,,0,0,8,,,,,7,,,70,0
32444,note_off,,,,,0,0,8,,,,,7,,,67,0
32444,note_off,,,,,188,0,8,,,,,7,,,62,0
32444,note_off,,,,,188,0,5,,,,,4,,,62,0
32448,note_on,,,,,0,0,3,,,,,2,,,78,49
32448,note_on,,,,,4,0,9,,,,,8,,,60,30
32448,note_on,,,,,4,0,1,,,,,0,,,78,39
32448,note_on,,,,,4,0,6,,,,,5,,,60,45
32448,note_on,,,,,0,0,4,,,,,3,,,69,60
32448,note_on,,,,,4,0,5,,,,,4,,,63,45
32448,note_off,,,,,192,0,4,,,,,3,,,67,0
32448,note_on,,,,,4,0,8,,,,,7,,,67,30
32448,note_on,,,,,4,0,2,,,,,1,,,78,37
32448,note_on,,,,,4,0,7,,,,,6,,,48,39
32448,note_off,,,,,96,0,3,,,,,2,,,79,0
32448,note_on,,,,,0,0,8,,,,,7,,,69,30
32544,note_off,,,,,96,0,2,,,,,1,,,78,0
32544,note_on,,,,,0,0,2,,,,,1,,,79,37
32544,note_on,,,,,0,0,3,,,,,2,,,79,49
32544,note_off,,,,,96,0,3,,,,,2,,,78,0
32544,note_off,,,,,96,0,1,,,,,0,,,78,0
32544,note_on,,,,,0,0,1,,,,,0,,,79,39
32636,note_off,,,,,188,0,5,,,,,4,,,63,0
32636,note_off,,,,,188,0,7,,,,,6,,,48,0
32636,note_off,,,,,92,0,2,,,,,1,,,79,0
32636,note_off,,,,,188,0,9,,,,,8,,,60,0
32636,note_off,,,,,188,0,8,,,,,7,,,69,0
32636,note_off,,,,,92,0,1,,,,,0,,,79,0
32636,note_off,,,,,188,0,6,,,,,5,,,60,0
32640,note_on,,,,,4,0,8,,,,,7,,,70,30
32640,note_on,,,,,4,0,9,,,,,8,,,62,30
32640,note_on,,,,,4,0,7,,,,,6,,,50,39
32640,note_on,,,,,0,0,4,,,,,3,,,70,60
32640,note_off,,,,,192,0,4,,,,,3,,,69,0
32640,note_on,,,,,0,0,3,,,,,2,,,78,49
32640,note_off,,,,,96,0,3,,,,,2,,,79,0
32640,note_on,,,,,4,0,1,,,,,0,,,78,39
32640,note_on,,,,,4,0,6,,,,,5,,,62,45
32640,note_on,,,,,4,0,5,,,,,4,,,62,45
32640,note_on,,,,,4,0,2,,,,,1,,,78,37
32736,note_off,,,,,96,0,1,,,,,0,,,78,0
32736,note_off,,,,,96,0,2,,,,,1,,,78,0
32736,note_on,,,,,0,0,1,,,,,0,,,79,39
32736,note_off,,,,,96,0,3,,,,,2,,,78,0
32736,note_on,,,,,0,0,2,,,,,1,,,79,37
32736,note_on,,,,,0,0,3,,,,,2,,,79,49
32768,note_off,,,,,128,0,8,,,,,7,,,67,0
32828,note_off,,,,,188,0,5,,,,,4,,,62,0
32828,note_off,,,,,92,0,1,,,,,0,,,79,0
32828,note_off,,,,,188,0,6,,,,,5,,,62,0
32828,note_off,,,,,188,0,7,,,,,6,,,50,0
32828,note_off,,,,,92,0,2,,,,,1,,,79,0
32828,note_off,,,,,188,0,9,,,,,8,,,62,0
32828,note_off,,,,,60,0,8,,,,,7,,,70,0
32832,note_on,,,,,4,0,1,,,,,0,,,78,39
32832,note_off,,,,,192,0,4,,,,,3,,,70,0
32832,note_on,,,,,4,0,7,,,,,6,,,51,39
32832,note_on,,,,,0,0,4,,,,,3,,,72,60
32832,note_on,,,,,4,0,6,,,,,5,,,63,45
32832,note_on,,,,,4,0,2,,,,,1,,,78,37
32832,note_on,,,,,4,0,9,,,,,8,,,63,30
32832,note_on,,,,,4,0,5,,,,,4,,,69,45
32832,note_on,,,,,0,0,8,,,,,7,,,69,30
32832,note_on,,,,,0,0,3,,,,,2,,,78,49
32832,note_off,,,,,96,0,3,,,,,2,,,79,0
32832,note_on,,,,,0,0,8,,,,,7,,,72,30
32832,note_on,,,,,4,0,8,,,,,7,,,67,30
32928,note_off,,,,,96,0,2,,,,,1,,,78,0
32928,note_on,,,,,0,0,2,,,,,1,,,79,37
32928,note_off,,,,,96,0,1,,,,,0,,,78,0
32928,note_on,,,,,0,0,1,,,,,0,,,79,39
32928,note_on,,,,,0,0,3,,,,,2,,,79,49
32928,note_off,,,,,96,0,3,,,,,2,,,78,0
33020,note_off,,,,,92,0,2,,,,,1,,,79,0
33020,note_off,,,,,92,0,1,,,,,0,,,79,0
33020,note_off,,,,,188,0,5,,,,,4,,,69,0
33020,note_off,,,,,188,0,8,,,,,7,,,69,0
33020,note_off,,,,,0,0,8,,,,,7,,,72,0
33020,note_off,,,,,188,0,6,,,,,5,,,63,0
33020,note_off,,,,,188,0,7,,,,,6,,,51,0
33020,note_off,,,,,188,0,9,,,,,8,,,63,0
33024,note_on,,,,,4,0,1,,,,,0,,,82,39
33024,note_on,,,,,4,0,7,,,,,6,,,46,39
33024,note_on,,,,,0,0,4,,,,,3,,,74,60
33024,note_off,,,,,192,0,4,,,,,3,,,72,0
33024,note_on,,,,,4,0,2,,,,,1,,,82,37
33024,note_off,,,,,96,0,3,,,,,2,,,79,0
33024,note_on,,,,,4,0,9,,,,,8,,,58,30
33024,note_on,,,,,0,0,3,,,,,2,,,82,49
33024,note_on,,,,,4,0,5,,,,,4,,,67,45
33024,note_on,,,,,0,0,8,,,,,7,,,74,30
33024,note_on,,,,,4,0,6,,,,,5,,,58,45
33024,note_on,,,,,4,0,8,,,,,7,,,70,30
33072,note_on,,,,,0,0,2,,,,,1,,,81,37
33072,note_on,,,,,0,0,3,,,,,2,,,81,49
33072,note_off,,,,,48,0,3,,,,,2,,,82,0
33072,note_off,,,,,48,0,1,,,,,0,,,82,0
33072,note_off,,,,,48,0,2,,,,,1,,,82,0
33072,note_on,,,,,0,0,1,,,,,0,,,81,39
33120,note_on,,,,,0,0,1,,,,,0,,,79,39
33120,note_on,,,,,0,0,2,,,,,1,,,79,37
33120,note_off,,,,,48,0,2,,,,,1,,,81,0
33120,note_off,,,,,48,0,3,,,,,2,,,81,0
33120,note_on,,,,,0,0,3,,,,,2,,,79,49
33120,note_off,,,,,48,0,1,,,,,0,,,81,0
33152,note_off,,,,,128,0,8,,,,,7,,,67,0
33212,note_off,,,,,188,0,9,,,,,8,,,58,0
33212,note_off,,,,,92,0,2,,,,,1,,,79,0
33212,note_off,,,,,188,0,5,,,,,4,,,67,0
33212,note_off,,,,,0,0,8,,,,,7,,,74,0
33212,note_off,,,,,60,0,8,,,,,7,,,70,0
33212,note_off,,,,,188,0,6,,,,,5,,,58,0
33212,note_off,,,,,188,0,7,,,,,6,,,46,0
33212,note_off,,,,,92,0,1,,,,,0,,,79,0
33216,note_on,,,,,4,0,9,,,,,8,,,60,30
33216,note_on,,,,,4,0,8,,,,,7,,,67,30
33216,note_on,,,,,0,0,8,,,,,7,,,69,30
33216,note_on,,,,,0,0,4,,,,,3,,,69,60
33216,note_on,,,,,4,0,7,,,,,6,,,48,39
33216,note_off,,,,,192,0,4,,,,,3,,,74,0
33216,note_on,,,,,4,0,2,,,,,1,,,78,37
33216,note_on,,,,,4,0,6,,,,,5,,,60,45
33216,note_on,,,,,4,0,1,,,,,0,,,78,39
33216,note_off,,,,,96,0,3,,,,,2,,,79,0
33216,note_on,,,,,0,0,3,,,,,2,,,78,49
33216,note_on,,,,,4,0,5,,,,,4,,,63,45
33312,note_off,,,,,96,0,1,,,,,0,,,78,0
33312,note_off,,,,,96,0,3,,,,,2,,,78,0
33312,note_on,,,,,0,0,3,,,,,2,,,79,49
33312,note_on,,,,,0,0,1,,,,,0,,,79,39
33312,note_off,,,,,96,0,2,,,,,1,,,78,0
33312,note_on,,,,,0,0,2,,,,,1,,,79,37
33404,note_off,,,,,188,0,5,,,,,4,,,63,0
33404,note_off,,,,,188,0,9,,,,,8,,,60,0
33404,note_off,,,,,188,0,8,,,,,7,,,69,0
33404,note_off,,,,,188,0,7,,,,,6,,,48,0
33404,note_off,,,,,188,0,6,,,,,5,,,60,0
33404,note_off,,,,,92,0,2,,,,,1,,,79,0
33404,note_off,,,,,92,0,1,,,,,0,,,79,0
33408,note_off,,,,,192,0,4,,,,,3,,,69,0
33408,note_on,,,,,4,0,7,,,,,6,,,50,39
33408,note_on,,,,,4,0,8,,,,,7,,,70,30
33408,note_on,,,,,0,0,4,,,,,3,,,70,60
33408,note_on,,,,,4,0,5,,,,,4,,,62,45
33408,note_on,,,,,4,0,2,,,,,1,,,78,37
33408,note_on,,,,,0,0,3,,,,,2,,,78,49
33408,note_on,,,,,4,0,6,,,,,5,,,62,45
33408,note_on,,,,,4,0,9,,,,,8,,,62,30
33408,note_on,,,,,4,0,1,,,,,0,,,78,39
33408,note_off,,,,,96,0,3,,,,,2,,,79,0
33504,note_off,,,,,96,0,2,,,,,1,,,78,0
33504,note_on,,,,,0,0,2,,,,,1,,,79,37
33504,note_off,,,,,96,0,3,,,,,2,,,78,0
33504,note_off,,,,,96,0,1,,,,,0,,,78,0
33504,note_on,,,,,0,0,1,,,,,0,,,79,39
33504,note_on,,,,,0,0,3,,,,,2,,,79,49
33536,note_off,,,,,128,0,8,,,,,7,,,67,0
33596,note_off,,,,,188,0,9,,,,,8,,,62,0
33596,note_off,,,,,188,0,5,,,,,4,,,62,0
33596,note_off,,,,,92,0,2,,,,,1,,,79,0
33596,note_off,,,,,188,0,7,,,,,6,,,50,0
33596,note_off,,,,,188,0,6,,,,,5,,,62,0
33596,note_off,,,,,92,0,1,,,,,0,,,79,0
33596,note_off,,,,,60,0,8,,,,,7,,,70,0
33600,note_on,,,,,4,0,2,,,,,1,,,78,37
33600,note_on,,,,,4,0,8,,,,,7,,,67,30
33600,note_on,,,,,0,0,3,,,,,2,,,78,49
33600,note_on,,,,,4,0,5,,,,,4,,,69,45
33600,note_on,,,,,4,0,1,,,,,0,,,78,39
33600,note_off,,,,,96,0,3,,,,,2,,,79,0
33600,note_on,,,,,4,0,7,,,,,6,,,51,39
33600,note_on,,,,,4,0,6,,,,,5,,,63,45
33600,note_on,,,,,0,0,4,,,,,3,,,72,60
33600,note_off,,,,,192,0,4,,,,,3,,,70,0
33600,note_on,,,,,4,0,9,,,,,8,,,63,30
33600,note_on,,,,,0,0,8,,,,,7,,,69,30
33600,note_on,,,,,0,0,8,,,,,7,,,72,30
33696,note_on,,,,,0,0,3,,,,,2,,,79,49
33696,note_off,,,,,96,0,3,,,,,2,,,78,0
33696,note_off,,,,,96,0,2,,,,,1,,,78,0
33696,note_on,,,,,0,0,2,,,,,1,,,79,37
33696,note_off,,,,,96,0,1,,,,,0,,,78,0
33696,note_on,,,,,0,0,1,,,,,0,,,79,39
33788,note_off,,,,,188,0,6,,,,,5,,,63,0
33788,note_off,,,,,188,0,7,,,,,6,,,51,0
33788,note_off,,,,,0,0,8,,,,,7,,,72,0
33788,note_off,,,,,188,0,9,,,,,8,,,63,0
33788,note_off,,,,,188,0,5,,,,,4,,,69,0
33788,note_off,,,,,92,0,1,,,,,0,,,79,0
33788,note_off,,,,,92,0,2,,,,,1,,,79,0
33788,note_off,,,,,188,0,8,,,,,7,,,69,0
33792,note_on,,,,,4,0,5,,,,,4,,,67,45
33792,note_on,,,,,4,0,1,,,,,0,,,82,39
33792,note_off,,,,,96,0,3,,,,,2,,,79,0
33792,note_on,,,,,0,0,3,,,,,2,,,82,49
33792,note_on,,,,,4,0,6,,,,,5,,,58,45
33792,note_on,,,,,0,0,4,,,,,3,,,74,60
33792,note_on,,,,,4,0,9,,,,,8,,,58,30
33792,note_on,,,,,4,0,7,,,,,6,,,46,39
33792,note_on,,,,,4,0,8,,,,,7,,,70,30
33792,note_off,,,,,192,0,4,,,,,3,,,72,0
33792,note_on,,,,,0,0,8,,,,,7,,,74,30
33792,note_on,,,,,4,0,2,,,,,1,,,82,37
33840,note_on,,,,,0,0,3,,,,,2,,,81,49
33840,note_off,,,,,48,0,3,,,,,2,,,82,0
33840,note_off,,,,,48,0,2,,,,,1,,,82,0
33840,note_on,,,,,0,0,2,,,,,1,,,81,37
33840,note_off,,,,,48,0,1,,,,,0,,,82,0
33840,note_on,,,,,0,0,1,,,,,0,,,81,39
33888,note_on,,,,,0,0,1,,,,,0,,,79,39
33888,note_off,,,,,48,0,1,,,,,0,,,81,0
33888,note_on,,,,,0,0,3,,,,,2,,,79,49
33888,note_on,,,,,0,0,2,,,,,1,,,79,37
33888,note_off,,,,,48,0,2,,,,,1,,,81,0
33888,note_off,,,,,48,0,3,,,,,2,,,81,0
33920,note_off,,,,,128,0,8,,,,,7,,,67,0
33980,note_off,,,,,92,0,1,,,,,0,,,79,0
33980,note_off,,,,,188,0,9,,,,,8,,,58,0
33980,note_off,,,,,92,0,2,,,,,1,,,79,0
33980,note_off,,,,,188,0,7,,,,,6,,,46,0
33980,note_off,,,,,0,0,8,,,,,7,,,74,0
33980,note_off,,,,,188,0,6,,,,,5,,,58,0
33980,note_off,,,,,60,0,8,,,,,7,,,70,0
33980,note_off,,,,,188,0,5,,,,,4,,,67,0
33984,note_off,,,,,192,0,4,,,,,3,,,74,0
33984,note_on,,,,,4,0,5,,,,,4,,,63,45
33984,note_on,,,,,0,0,4,,,,,3,,,69,60
33984,note_on,,,,,4,0,6,,,,,5,,,60,45
33984,note_on,,,,,4,0,1,,,,,0,,,78,39
33984,note_on,,,,,0,0,8,,,,,7,,,69,30
33984,note_on,,,,,4,0,8,,,,,7,,,67,30
33984,note_on,,,,,4,0,9,,,,,8,,,60,30
33984,note_off,,,,,96,0,3,,,,,2,,,79,0
33984,note_on,,,,,4,0,2,,,,,1,,,78,37
33984,note_on,,,,,4,0,7,,,,,6,,,48,39
33984,note_on,,,,,0,0,8,,,,,7,,,75,30
33984,note_on,,,,,0,0,3,,,,,2,,,78,49
34076,note_off,,,,,92,0,1,,,,,0,,,78,0
34076,note_off,,,,,92,0,2,,,,,1,,,78,0
34080,note_off,,,,,96,0,3,,,,,2,,,78,0
34080,note_on,,,,,0,0,3,,,,,2,,,79,49
34080,note_on,,,,,4,0,2,,,,,1,,,79,37
34080,note_on,,,,,4,0,1,,,,,0,,,79,39
34172,note_off,,,,,92,0,2,,,,,1,,,79,0
34172,note_off,,,,,188,0,5,,,,,4,,,63,0
34172,note_off,,,,,0,0,8,,,,,7,,,75,0
34172,note_off,,,,,188,0,6,,,,,5,,,60,0
34172,note_off,,,,,92,0,1,,,,,0,,,79,0
34172,note_off,,,,,188,0,8,,,,,7,,,69,0
34172,note_off,,,,,188,0,7,,,,,6,,,48,0
34172,note_off,,,,,188,0,9,,,,,8,,,60,0
34176,note_on,,,,,4,0,6,,,,,5,,,62,45
34176,note_on,,,,,4,0,8,,,,,7,,,70,30
34176,note_on,,,,,0,0,8,,,,,7,,,74,30
34176,note_on,,,,,4,0,5,,,,,4,,,62,45
34176,note_on,,,,,0,0,4,,,,,3,,,70,60
34176,note_off,,,,,192,0,4,,,,,3,,,69,0
34176,note_on,,,,,4,0,9,,,,,8,,,62,30
34176,note_on,,,,,4,0,1,,,,,0,,,78,39
34176,note_on,,,,,4,0,2,,,,,1,,,78,37
34176,note_on,,,,,0,0,3,,,,,2,,,78,49
34176,note_off,,,,,96,0,3,,,,,2,,,79,0
34176,note_on,,,,,4,0,7,,,,,6,,,50,39
34268,note_off,,,,,92,0,1,,,,,0,,,78,0
34268,note_off,,,,,92,0,2,,,,,1,,,78,0
34272,note_on,,,,,4,0,1,,,,,0,,,79,39
34272,note_on,,,,,4,0,2,,,,,1,,,79,37
34272,note_on,,,,,0,0,3,,,,,2,,,79,49
34272,note_off,,,,,96,0,3,,,,,2,,,78,0
34304,note_off,,,,,128,0,8,,,,,7,,,67,0
34364,note_off,,,,,188,0,9,,,,,8,,,62,0
34364,note_off,,,,,92,0,1,,,,,0,,,79,0
34364,note_off,,,,,92,0,2,,,,,1,,,79,0
34364,note_off,,,,,188,0,5,,,,,4,,,62,0
34364,note_off,,,,,60,0,8,,,,,7,,,70,0
34364,note_off,,,,,188,0,7,,,,,6,,,50,0
34364,note_off,,,,,188,0,6,,,,,5,,,62,0
34364,note_off,,,,,0,0,8,,,,,7,,,74,0
34368,note_on,,,,,0,0,8,,,,,7,,,72,30
34368,note_on,,,,,4,0,2,,,,,1,,,72,37
34368,note_on,,,,,0,0,4,,,,,3,,,72,60
34368,note_on,,,,,4,0,9,,,,,8,,,63,30
34368,note_off,,,,,192,0,4,,,,,3,,,70,0
34368,note_on,,,,,4,0,1,,,,,0,,,72,39
34368,note_on,,,,,4,0,7,,,,,6,,,51,39
34368,note_on,,,,,4,0,6,,,,,5,,,63,45
34368,note_on,,,,,0,0,3,,,,,2,,,72,49
34368,note_on,,,,,4,0,5,,,,,4,,,67,45
34368,note_off,,,,,96,0,3,,,,,2,,,79,0
34368,note_on,,,,,4,0,8,,,,,7,,,67,30
34460,note_off,,,,,92,0,2,,,,,1,,,72,0
34460,note_off,,,,,92,0,1,,,,,0,,,72,0
34464,note_on,,,,,4,0,2,,,,,1,,,74,37
34464,note_on,,,,,0,0,3,,,,,2,,,74,49
34464,note_on,,,,,4,0,1,,,,,0,,,74,39
34464,note_off,,,,,96,0,3,,,,,2,,,72,0
34556,note_off,,,,,92,0,1,,,,,0,,,74,0
34556,note_off,,,,,188,0,9,,,,,8,,,63,0
34556,note_off,,,,,188,0,5,,,,,4,,,67,0
34556,note_off,,,,,92,0,2,,,,,1,,,74,0
34556,note_off,,,,,188,0,8,,,,,7,,,72,0
34556,note_off,,,,,188,0,7,,,,,6,,,51,0
34556,note_off,,,,,188,0,6,,,,,5,,,63,0
34560,note_on,,,,,4,0,2,,,,,1,,,72,37
34560,note_on,,,,,0,0,3,,,,,2,,,72,49
34560,note_on,,,,,4,0,7,,,,,6,,,43,39
34560,note_off,,,,,96,0,3,,,,,2,,,74,0
34560,note_on,,,,,4,0,5,,,,,4,,,67,45
34560,note_on,,,,,4,0,9,,,,,8,,,55,30
34560,note_on,,,,,4,0,1,,,,,0,,,72,39
34560,note_off,,,,,192,0,4,,,,,3,,,72,0
34560,note_on,,,,,0,0,4,,,,,3,,,70,60
34560,note_on,,,,,4,0,6,,,,,5,,,55,45
34560,note_on,,,,,4,0,8,,,,,7,,,70,30
34652,note_off,,,,,92,0,2,,,,,1,,,72,0
34652,note_off,,,,,92,0,1,,,,,0,,,72,0
34656,note_on,,,,,4,0,1,,,,,0,,,74,39
34656,note_on,,,,,0,0,3,,,,,2,,,74,49
34656,note_off,,,,,96,0,3,,,,,2,,,72,0
34656,note_on,,,,,4,0,2,,,,,1,,,74,37
34688,note_off,,,,,128,0,8,,,,,7,,,67,0
34748,note_off,,,,,92,0,2,,,,,1,,,74,0
34748,note_off,,,,,188,0,5,,,,,4,,,67,0
34748,note_off,,,,,188,0,9,,,,,8,,,55,0
34748,note_off,,,,,188,0,7,,,,,6,,,43,0
34748,note_off,,,,,92,0,1,,,,,0,,,74,0
34748,note_off,,,,,188,0,6,,,,,5,,,55,0
34748,note_off,,,,,60,0,8,,,,,7,,,70,0
34752,note_on,,,,,4,0,9,,,,,8,,,60,30
34752,note_off,,,,,96,0,3,,,,,2,,,74,0
34752,note_on,,,,,0,0,3,,,,,2,,,75,49
34752,note_on,,,,,4,0,5,,,,,4,,,69,45
34752,note_on,,,,,0,0,8,,,,,7,,,69,30
34752,note_off,,,,,192,0,4,,,,,3,,,70,0
34752,note_on,,,,,4,0,2,,,,,1,,,75,37
34752,note_on,,,,,4,0,6,,,,,5,,,60,45
34752,note_on,,,,,4,0,7,,,,,6,,,48,39
34752,note_on,,,,,0,0,4,,,,,3,,,69,60
34752,note_on,,,,,4,0,8,,,,,7,,,63,30
34752,note_on,,,,,4,0,1,,,,,0,,,75,39
34844,note_off,,,,,92,0,2,,,,,1,,,75,0
34844,note_off,,,,,92,0,1,,,,,0,,,75,0
34848,note_on,,,,,0,0,3,,,,,2,,,72,49
34848,note_off,,,,,96,0,3,,,,,2,,,75,0
34848,note_on,,,,,4,0,2,,,,,1,,,72,37
34848,note_on,,,,,4,0,1,,,,,0,,,72,39
34940,note_off,,,,,188,0,9,,,,,8,,,60,0
34940,note_off,,,,,188,0,8,,,,,7,,,63,0
34940,note_off,,,,,92,0,1,,,,,0,,,72,0
34940,note_off,,,,,0,0,8,,,,,7,,,69,0
34940,note_off,,,,,188,0,6,,,,,5,,,60,0
34940,note_off,,,,,188,0,7,,,,,6,,,48,0
34940,note_off,,,,,92,0,2,,,,,1,,,72,0
34940,note_off,,,,,188,0,5,,,,,4,,,69,0
34944,note_on,,,,,4,0,6,,,,,5,,,54,45
34944,note_on,,,,,4,0,1,,,,,0,,,74,39
34944,note_on,,,,,4,0,5,,,,,4,,,62,45
34944,note_on,,,,,0,0,3,,,,,2,,,74,49
34944,note_on,,,,,0,0,8,,,,,7,,,69,30
34944,note_off,,,,,192,0,4,,,,,3,,,69,0
34944,note_on,,,,,0,0,4,,,,,3,,,69,60
34944,note_on,,,,,4,0,9,,,,,8,,,54,30
34944,note_on,,,,,4,0,7,,,,,6,,,42,39
34944,note_off,,,,,96,0,3,,,,,2,,,72,0
34944,note_on,,,,,4,0,8,,,,,7,,,62,30
34944,note_on,,,,,4,0,2,,,,,1,,,74,37
35088,note_off,,,,,144,0,4,,,,,3,,,69,0
35088,note_on,,,,,0,0,4,,,,,3,,,67,60
35132,note_off,,,,,188,0,9,,,,,8,,,54,0
35132,note_off,,,,,188,0,8,,,,,7,,,62,0
35132,note_off,,,,,188,0,5,,,,,4,,,62,0
35132,note_off,,,,,0,0,8,,,,,7,,,69,0
35132,note_off,,,,,188,0,7,,,,,6,,,42,0
35132,note_off,,,,,188,0,6,,,,,5,,,54,0
35136,note_on,,,,,4,0,5,,,,,4,,,69,45
35136,note_on,,,,,4,0,7,,,,,6,,,38,39
35136,note_on,,,,,0,0,4,,,,,3,,,66,60
35136,note_off,,,,,48,0,4,,,,,3,,,67,0
35136,note_on,,,,,4,0,6,,,,,5,,,50,45
35136,note_on,,,,,4,0,9,,,,,8,,,50,30
35136,note_on,,,,,0,0,8,,,,,7,,,69,30
35136,note_on,,,,,4,0,8,,,,,7,,,66,30
35264,note_off,,,,,320,0,1,,,,,0,,,74,0
35264,note_off,,,,,320,0,2,,,,,1,,,74,0
35324,note_off,,,,,0,0,8,,,,,7,,,69,0
35324,note_off,,,,,188,0,7,,,,,6,,,38,0
35324,note_off,,,,,188,0,9,,,,,8,,,50,0
35324,note_off,,,,,188,0,5,,,,,4,,,69,0
35324,note_off,,,,,188,0,6,,,,,5,,,50,0
35324,note_off,,,,,188,0,8,,,,,7,,,66,0
35328,note_off,,,,,192,0,4,,,,,3,,,66,0
35328,note_off,,,,,384,0,3,,,,,2,,,74,0
35328,note_on,,,,,0,0,3,,,,,2,,,86,100
35328,note_on,,,,,0,0,8,,,,,7,,,70,60
35328,note_on,,,,,0,0,8,,,,,7,,,66,60
35328,note_on,,,,,4,0,8,,,,,7,,,58,60
35328,note_on,,,,,4,0,9,,,,,8,,,54,60
35328,note_on,,,,,0,0,4,,,,,3,,,81,108
35328,note_on,,,,,64,0,1,,,,,0,,,86,80
35328,note_on,,,,,4,0,6,,,,,5,,,54,92
35328,note_on,,,,,4,0,7,,,,,6,,,42,80
35328,note_on,,,,,64,0,2,,,,,1,,,86,77
35328,note_on,,,,,4,0,5,,,,,4,,,69,92
35516,note_off,,,,,188,0,1,,,,,0,,,86,0
35516,note_off,,,,,188,0,9,,,,,8,,,54,0
35516,note_off,,,,,188,0,7,,,,,6,,,42,0
35516,note_off,,,,,0,0,8,,,,,7,,,70,0
35516,note_off,,,,,0,0,8,,,,,7,,,66,0
35516,note_off,,,,,188,0,8,,,,,7,,,58,0
35516,note_off,,,,,188,0,6,,,,,5,,,54,0
35516,note_off,,,,,188,0,2,,,,,1,,,86,0
35516,note_off,,,,,188,0,5,,,,,4,,,69,0
35520,note_on,,,,,4,0,9,,,,,8,,,55,60
35520,note_on,,,,,4,0,7,,,,,6,,,43,80
35520,note_on,,,,,4,0,5,,,,,4,,,67,92
35520,note_on,,,,,4,0,1,,,,,0,,,82,80
35520,note_on,,,,,0,0,3,,,,,2,,,82,100
35520,note_off,,,,,192,0,3,,,,,2,,,86,0
35520,note_on,,,,,4,0,6,,,,,5,,,55,92
35520,note_on,,,,,4,0,2,,,,,1,,,82,77
35520,note_on,,,,,4,0,8,,,,,7,,,67,60
35520,note_on,,,,,0,0,8,,,,,7,,,70,60
35520,note_on,,,,,0,0,8,,,,,7,,,74,60
35520,note_on,,,,,0,0,4,,,,,3,,,74,108
35520,note_off,,,,,192,0,4,,,,,3,,,81,0
35708,note_off,,,,,188,0,6,,,,,5,,,55,0
35708,note_off,,,,,188,0,5,,,,,4,,,67,0
35708,note_off,,,,,188,0,7,,,,,6,,,43,0
35708,note_off,,,,,188,0,9,,,,,8,,,55,0
35712,note_on,,,,,0,0,4,,,,,3,,,79,108
35712,note_off,,,,,192,0,4,,,,,3,,,74,0
35712,note_on,,,,,4,0,5,,,,,4,,,74,92
35712,note_on,,,,,4,0,6,,,,,5,,,43,92
35712,note_on,,,,,4,0,7,,,,,6,,,31,80
35712,note_on,,,,,4,0,9,,,,,8,,,43,60
35804,note_off,,,,,284,0,2,,,,,1,,,82,0
35804,note_off,,,,,284,0,1,,,,,0,,,82,0
35808,note_off,,,,,288,0,3,,,,,2,,,82,0
35808,note_on,,,,,0,0,3,,,,,2,,,84,100
35808,note_on,,,,,4,0,1,,,,,0,,,84,80
35808,note_on,,,,,4,0,2,,,,,1,,,84,77
35840,note_off,,,,,0,0,8,,,,,7,,,70,0
35840,note_off,,,,,320,0,8,,,,,7,,,67,0
35840,note_off,,,,,0,0,8,,,,,7,,,74,0
35900,note_off,,,,,188,0,6,,,,,5,,,43,0
35900,note_off,,,,,92,0,1,,,,,0,,,84,0
35900,note_off,,,,,188,0,7,,,,,6,,,31,0
35900,note_off,,,,,188,0,9,,,,,8,,,43,0
35900,note_off,,,,,92,0,2,,,,,1,,,84,0
35900,note_off,,,,,188,0,5,,,,,4,,,74,0
35904,note_on,,,,,4,0,6,,,,,5,,,46,92
35904,note_on,,,,,4,0,2,,,,,1,,,86,77
35904,note_off,,,,,96,0,3,,,,,2,,,84,0
35904,note_on,,,,,4,0,1,,,,,0,,,86,80
35904,note_on,,,,,0,0,8,,,,,7,,,74,60
35904,note_on,,,,,4,0,5,,,,,4,,,62,92
35904,note_on,,,,,4,0,9,,,,,8,,,46,60
35904,note_on,,,,,64,0,8,,,,,7,,,67,60
35904,note_on,,,,,4,0,7,,,,,6,,,34,80
35904,note_on,,,,,0,0,3,,,,,2,,,86,100
36092,note_off,,,,,188,0,8,,,,,7,,,67,0
36092,note_off,,,,,0,0,8,,,,,7,,,74,0
36092,note_off,,,,,188,0,1,,,,,0,,,86,0
36092,note_off,,,,,188,0,2,,,,,1,,,86,0
36092,note_off,,,,,188,0,9,,,,,8,,,46,0
36092,note_off,,,,,188,0,6,,,,,5,,,46,0
36092,note_off,,,,,188,0,5,,,,,4,,,62,0
36092,note_off,,,,,188,0,7,,,,,6,,,34,0
36096,note_on,,,,,0,0,8,,,,,7,,,74,60
36096,note_on,,,,,4,0,2,,,,,1,,,81,77
36096,note_off,,,,,384,0,4,,,,,3,,,79,0
36096,note_on,,,,,0,0,4,,,,,3,,,77,108
36096,note_on,,,,,4,0,9,,,,,8,,,50,60
36096,note_on,,,,,0,0,8,,,,,7,,,69,60
36096,note_on,,,,,4,0,8,,,,,7,,,66,60
36096,note_on,,,,,4,0,1,,,,,0,,,81,80
36096,note_on,,,,,4,0,7,,,,,6,,,38,80
36096,note_on,,,,,4,0,5,,,,,4,,,74,92
36096,note_on,,,,,4,0,6,,,,,5,,,50,92
36096,note_off,,,,,192,0,3,,,,,2,,,86,0
36096,note_on,,,,,0,0,3,,,,,2,,,81,100
36144,note_off,,,,,48,0,3,,,,,2,,,81,0
36144,note_on,,,,,0,0,3,,,,,2,,,82,100
36144,note_on,,,,,0,0,2,,,,,1,,,82,77
36144,note_off,,,,,48,0,2,,,,,1,,,81,0
36144,note_on,,,,,0,0,1,,,,,0,,,82,80
36144,note_off,,,,,48,0,4,,,,,3,,,77,0
36144,note_on,,,,,0,0,4,,,,,3,,,79,108
36144,note_off,,,,,48,0,1,,,,,0,,,81,0
36192,note_off,,,,,48,0,4,,,,,3,,,79,0
36192,note_off,,,,,48,0,2,,,,,1,,,82,0
36192,note_on,,,,,0,0,2,,,,,1,,,84,77
36192,note_off,,,,,48,0,3,,,,,2,,,82,0
36192,note_on,,,,,0,0,4,,,,,3,,,81,108
36192,note_on,,,,,0,0,3,,,,,2,,,84,100
36192,note_on,,,,,0,0,1,,,,,0,,,84,80
36192,note_off,,,,,48,0,1,,,,,0,,,82,0
36284,note_off,,,,,188,0,8,,,,,7,,,66,0
36284,note_off,,,,,188,0,7,,,,,6,,,38,0
36284,note_off,,,,,92,0,1,,,,,0,,,84,0
36284,note_off,,,,,188,0,6,,,,,5,,,50,0
36284,note_off,,,,,0,0,8,,,,,7,,,74,0
36284,note_off,,,,,188,0,9,,,,,8,,,50,0
36284,note_off,,,,,188,0,5,,,,,4,,,74,0
36284,note_off,,,,,92,0,2,,,,,1,,,84,0
36284,note_off,,,,,0,0,8,,,,,7,,,69,0
36288,note_on,,,,,4,0,5,,,,,4,,,74,92
36288,note_on,,,,,4,0,6,,,,,5,,,55,92
36288,note_on,,,,,4,0,9,,,,,8,,,55,60
36288,note_off,,,,,96,0,3,,,,,2,,,84,0
36288,note_on,,,,,4,0,1,,,,,0,,,82,80
36288,note_on,,,,,0,0,4,,,,,3,,,79,108
36288,note_off,,,,,96,0,4,,,,,3,,,81,0
36288,note_on,,,,,0,0,3,,,,,2,,,82,100
36288,note_on,,,,,0,0,8,,,,,7,,,70,60
36288,note_on,,,,,4,0,2,,,,,1,,,82,77
36288,note_on,,,,,0,0,8,,,,,7,,,74,60
36288,note_on,,,,,4,0,8,,,,,7,,,67,60
36288,note_on,,,,,4,0,7,,,,,6,,,43,80
36476,note_off,,,,,188,0,9,,,,,8,,,55,0
36476,note_off,,,,,188,0,7,,,,,6,,,43,0
36476,note_off,,,,,188,0,6,,,,,5,,,55,0
36476,note_off,,,,,188,0,5,,,,,4,,,74,0
36480,note_on,,,,,4,0,7,,,,,6,,,43,80
36480,note_off,,,,,192,0,4,,,,,3,,,79,0
36480,note_on,,,,,0,0,4,,,,,3,,,74,108
36480,note_on,,,,,4,0,9,,,,,8,,,55,60
36480,note_on,,,,,4,0,6,,,,,5,,,55,92
36480,note_on,,,,,4,0,5,,,,,4,,,67,92
36572,note_off,,,,,284,0,2,,,,,1,,,82,0
36572,note_off,,,,,284,0,1,,,,,0,,,82,0
36576,note_on,,,,,4,0,1,,,,,0,,,84,80
36576,note_off,,,,,288,0,3,,,,,2,,,82,0
36576,note_on,,,,,4,0,2,,,,,1,,,84,77
36576,note_on,,,,,0,0,3,,,,,2,,,84,100
36608,note_off,,,,,320,0,8,,,,,7,,,67,0
36608,note_off,,,,,0,0,8,,,,,7,,,74,0
36608,note_off,,,,,0,0,8,,,,,7,,,70,0
36668,note_off,,,,,188,0,7,,,,,6,,,43,0
36668,note_off,,,,,188,0,5,,,,,4,,,67,0
36668,note_off,,,,,188,0,9,,,,,8,,,55,0
36668,note_off,,,,,188,0,6,,,,,5,,,55,0
36668,note_off,,,,,92,0,1,,,,,0,,,84,0
36668,note_off,,,,,92,0,2,,,,,1,,,84,0
36672,note_on,,,,,4,0,6,,,,,5,,,58,92
36672,note_on,,,,,4,0,9,,,,,8,,,58,60
36672,note_on,,,,,4,0,1,,,,,0,,,86,80
36672,note_on,,,,,0,0,3,,,,,2,,,86,100
36672,note_off,,,,,96,0,3,,,,,2,,,84,0
36672,note_on,,,,,0,0,8,,,,,7,,,74,60
36672,note_on,,,,,4,0,7,,,,,6,,,46,80
36672,note_on,,,,,4,0,5,,,,,4,,,67,92
36672,note_on,,,,,64,0,8,,,,,7,,,67,60
36672,note_on,,,,,4,0,2,,,,,1,,,86,77
36860,note_off,,,,,0,0,8,,,,,7,,,74,0
36860,note_off,,,,,188,0,1,,,,,0,,,86,0
36860,note_off,,,,,188,0,8,,,,,7,,,67,0
36860,note_off,,,,,188,0,9,,,,,8,,,58,0
36860,note_off,,,,,188,0,6,,,,,5,,,58,0
36860,note_off,,,,,188,0,7,,,,,6,,,46,0
36860,note_off,,,,,188,0,2,,,,,1,,,86,0
36860,note_off,,,,,188,0,5,,,,,4,,,67,0
36864,note_on,,,,,4,0,5,,,,,4,,,69,92
36864,note_on,,,,,4,0,6,,,,,5,,,62,92
36864,note_on,,,,,4,0,7,,,,,6,,,50,80
36864,note_on,,,,,0,0,8,,,,,7,,,74,60
36864,note_on,,,,,4,0,9,,,,,8,,,62,60
36864,note_on,,,,,4,0,8,,,,,7,,,66,60
36864,note_on,,,,,4,0,2,,,,,1,,,81,77
36864,note_on,,,,,0,0,8,,,,,7,,,69,60
36864,note_off,,,,,192,0,3,,,,,2,,,86,0
36864,note_off,,,,,384,0,4,,,,,3,,,74,0
36864,note_on,,,,,0,0,4,,,,,3,,,77,108
36864,note_on,,,,,0,0,3,,,,,2,,,81,100
36864,note_on,,,,,4,0,1,,,,,0,,,81,80
36912,note_off,,,,,48,0,2,,,,,1,,,81,0
36912,note_on,,,,,0,0,2,,,,,1,,,82,77
36912,note_on,,,,,0,0,3,,,,,2,,,82,100
36912,note_off,,,,,48,0,3,,,,,2,,,81,0
36912,note_off,,,,,48,0,1,,,,,0,,,81,0
36912,note_on,,,,,0,0,4,,,,,3,,,79,108
36912,note_off,,,,,48,0,4,,,,,3,,,77,0
36912,note_on,,,,,0,0,1,,,,,0,,,82,80
36956,note_off,,,,,92,0,5,,,,,4,,,69,0
36960,note_on,,,,,0,0,3,,,,,2,,,84,100
36960,note_on,,,,,4,0,5,,,,,4,,,66,92
36960,note_off,,,,,48,0,3,,,,,2,,,82,0
36960,note_on,,,,,0,0,2,,,,,1,,,84,77
36960,note_off,,,,,48,0,2,,,,,1,,,82,0
36960,note_on,,,,,0,0,1,,,,,0,,,84,80
36960,note_off,,,,,48,0,1,,,,,0,,,82,0
36960,note_off,,,,,48,0,4,,,,,3,,,79,0
36960,note_on,,,,,0,0,4,,,,,3,,,81,108
37052,note_off,,,,,188,0,7,,,,,6,,,50,0
37052,note_off,,,,,188,0,9,,,,,8,,,62,0
37052,note_off,,,,,92,0,5,,,,,4,,,66,0
37052,note_off,,,,,92,0,2,,,,,1,,,84,0
37052,note_off,,,,,92,0,1,,,,,0,,,84,0
37052,note_off,,,,,0,0,8,,,,,7,,,74,0
37052,note_off,,,,,0,0,8,,,,,7,,,69,0
37052,note_off,,,,,188,0,8,,,,,7,,,66,0
37052,note_off,,,,,188,0,6,,,,,5,,,62,0
37056,note_on,,,,,0,0,3,,,,,2,,,82,100
37056,note_off,,,,,96,0,3,,,,,2,,,84,0
37056,note_on,,,,,4,0,2,,,,,1,,,82,77
37056,note_on,,,,,4,0,1,,,,,0,,,82,80
37056,note_on,,,,,4,0,6,,,,,5,,,55,92
37056,note_on,,,,,4,0,7,,,,,6,,,43,80
37056,note_on,,,,,4,0,8,,,,,7,,,67,60
37056,note_on,,,,,0,0,8,,,,,7,,,70,60
37056,note_on,,,,,0,0,8,,,,,7,,,74,60
37056,note_on,,,,,0,0,4,,,,,3,,,79,108
37056,note_off,,,,,96,0,4,,,,,3,,,81,0
37056,note_on,,,,,4,0,5,,,,,4,,,74,92
37056,note_on,,,,,4,0,9,,,,,8,,,55,60
37196,note_off,,,,,140,0,1,,,,,0,,,82,0
37196,note_off,,,,,140,0,2,,,,,1,,,82,0
37200,note_on,,,,,4,0,1,,,,,0,,,81,80
37200,note_on,,,,,4,0,2,,,,,1,,,81,77
37200,note_off,,,,,144,0,3,,,,,2,,,82,0
37200,note_on,,,,,0,0,3,,,,,2,,,81,100
37244,note_off,,,,,188,0,7,,,,,6,,,43,0
37244,note_off,,,,,44,0,2,,,,,1,,,81,0
37244,note_off,,,,,188,0,5,,,,,4,,,74,0
37244,note_off,,,,,188,0,6,,,,,5,,,55,0
37244,note_off,,,,,188,0,8,,,,,7,,,67,0
37244,note_off,,,,,0,0,8,,,,,7,,,70,0
37244,note_off,,,,,0,0,8,,,,,7,,,74,0
37244,note_off,,,,,44,0,1,,,,,0,,,81,0
37244,note_off,,,,,188,0,9,,,,,8,,,55,0
37248,note_on,,,,,4,0,1,,,,,0,,,79,80
37248,note_on,,,,,0,0,4,,,,,3,,,74,108
37248,note_on,,,,,4,0,9,,,,,8,,,43,60
37248,note_off,,,,,48,0,3,,,,,2,,,81,0
37248,note_on,,,,,0,0,3,,,,,2,,,79,100
37248,note_on,,,,,0,0,8,,,,,7,,,70,60
37248,note_on,,,,,0,0,8,,,,,7,,,67,60
37248,note_on,,,,,4,0,8,,,,,7,,,62,60
37248,note_on,,,,,4,0,6,,,,,5,,,43,92
37248,note_on,,,,,4,0,2,,,,,1,,,79,77
37248,note_on,,,,,4,0,5,,,,,4,,,70,92
37248,note_on,,,,,4,0,7,,,,,6,,,31,80
37248,note_off,,,,,192,0,4,,,,,3,,,79,0
37436,note_off,,,,,188,0,2,,,,,1,,,79,0
37436,note_off,,,,,188,0,8,,,,,7,,,62,0
37436,note_off,,,,,0,0,8,,,,,7,,,67,0
37436,note_off,,,,,188,0,1,,,,,0,,,79,0
37436,note_off,,,,,0,0,8,,,,,7,,,70,0
37436,note_off,,,,,188,0,7,,,,,6,,,31,0
37436,note_off,,,,,188,0,5,,,,,4,,,70,0
37436,note_off,,,,,188,0,6,,,,,5,,,43,0
37436,note_off,,,,,188,0,9,,,,,8,,,43,0
37440,note_off,,,,,192,0,3,,,,,2,,,79,0
37440,note_off,,,,,192,0,4,,,,,3,,,74,0
37632,note_on,,,,,196,0,6,,,,,5,,,46,92
37632,note_on,,,,,196,0,5,,,,,4,,,55,92
37632,note_on,,,,,196,0,1,,,,,0,,,67,80
37632,note_on,,,,,196,0,2,,,,,1,,,67,77
37632,note_on,,,,,192,0,3,,,,,2,,,67,100
37632,note_on,,,,,192,0,4,,,,,3,,,62,108
37632,note_on,,,,,196,0,9,,,,,8,,,46,60
37632,note_on,,,,,0,0,8,,,,,7,,,62,60
37632,note_on,,,,,196,0,8,,,,,7,,,58,60
37632,note_on,,,,,196,0,7,,,,,6,,,34,80
37632,note_on,,,,,0,0,8,,,,,7,,,67,60
37772,note_off,,,,,140,0,9,,,,,8,,,46,0
37772,note_off,,,,,140,0,8,,,,,7,,,58,0
37772,note_off,,,,,140,0,6,,,,,5,,,46,0
37772,note_off,,,,,140,0,1,,,,,0,,,67,0
37772,note_off,,,,,140,0,2,,,,,1,,,67,0
37772,note_off,,,,,0,0,8,,,,,7,,,67,0
37772,note_off,,,,,140,0,7,,,,,6,,,34,0
37772,note_off,,,,,0,0,8,,,,,7,,,62,0
37776,note_on,,,,,0,0,8,,,,,7,,,62,60
37776,note_on,,,,,0,0,8,,,,,7,,,66,60
37776,note_on,,,,,4,0,7,,,,,6,,,38,80
37776,note_on,,,,,4,0,1,,,,,0,,,69,80
37776,note_on,,,,,0,0,3,,,,,2,,,69,100
37776,note_on,,,,,4,0,8,,,,,7,,,57,60
37776,note_off,,,,,144,0,3,,,,,2,,,67,0
37776,note_off,,,,,144,0,4,,,,,3,,,62,0
37776,note_on,,,,,0,0,4,,,,,3,,,66,108
37776,note_on,,,,,4,0,6,,,,,5,,,50,92
37776,note_on,,,,,4,0,2,,,,,1,,,69,77
37776,note_on,,,,,4,0,9,,,,,8,,,50,60
37820,note_off,,,,,44,0,6,,,,,5,,,50,0
37820,note_off,,,,,44,0,7,,,,,6,,,38,0
37820,note_off,,,,,0,0,8,,,,,7,,,62,0
37820,note_off,,,,,44,0,8,,,,,7,,,57,0
37820,note_off,,,,,0,0,8,,,,,7,,,66,0
37820,note_off,,,,,188,0,5,,,,,4,,,55,0
37820,note_off,,,,,44,0,2,,,,,1,,,69,0
37820,note_off,,,,,44,0,9,,,,,8,,,50,0
37820,note_off,,,,,44,0,1,,,,,0,,,69,0
37824,note_on,,,,,4,0,1,,,,,0,,,70,80
37824,note_on,,,,,4,0,9,,,,,8,,,55,60
37824,note_on,,,,,4,0,2,,,,,1,,,70,77
37824,note_on,,,,,4,0,5,,,,,4,,,62,92
37824,note_on,,,,,0,0,8,,,,,7,,,62,60
37824,note_on,,,,,0,0,3,,,,,2,,,70,100
37824,note_off,,,,,48,0,3,,,,,2,,,69,0
37824,note_on,,,,,0,0,8,,,,,7,,,67,60
37824,note_on,,,,,4,0,7,,,,,6,,,43,80
37824,note_on,,,,,4,0,8,,,,,7,,,58,60
37824,note_off,,,,,48,0,4,,,,,3,,,66,0
37824,note_on,,,,,0,0,4,,,,,3,,,67,108
37824,note_on,,,,,4,0,6,,,,,5,,,55,92
38012,note_off,,,,,188,0,9,,,,,8,,,55,0
38012,note_off,,,,,188,0,5,,,,,4,,,62,0
38012,note_off,,,,,188,0,7,,,,,6,,,43,0
38012,note_off,,,,,188,0,6,,,,,5,,,55,0
38016,note_on,,,,,4,0,7,,,,,6,,,31,80
38016,note_off,,,,,192,0,4,,,,,3,,,67,0
38016,note_on,,,,,4,0,9,,,,,8,,,43,60
38016,note_on,,,,,4,0,5,,,,,4,,,67,92
38016,note_on,,,,,4,0,6,,,,,5,,,43,92
38016,note_on,,,,,0,0,4,,,,,3,,,62,108
38108,note_off,,,,,284,0,2,,,,,1,,,70,0
38108,note_off,,,,,284,0,1,,,,,0,,,70,0
38112,note_on,,,,,4,0,2,,,,,1,,,72,77
38112,note_on,,,,,0,0,3,,,,,2,,,72,100
38112,note_off,,,,,288,0,3,,,,,2,,,70,0
38112,note_on,,,,,4,0,1,,,,,0,,,72,80
38144,note_off,,,,,0,0,8,,,,,7,,,67,0
38144,note_off,,,,,0,0,8,,,,,7,,,62,0
38144,note_off,,,,,320,0,8,,,,,7,,,58,0
38204,note_off,,,,,188,0,6,,,,,5,,,43,0
38204,note_off,,,,,92,0,2,,,,,1,,,72,0
38204,note_off,,,,,188,0,9,,,,,8,,,43,0
38204,note_off,,,,,92,0,1,,,,,0,,,72,0
38204,note_off,,,,,188,0,7,,,,,6,,,31,0
38208,note_on,,,,,4,0,9,,,,,8,,,46,60
38208,note_on,,,,,0,0,8,,,,,7,,,62,60
38208,note_on,,,,,4,0,7,,,,,6,,,34,80
38208,note_on,,,,,0,0,8,,,,,7,,,67,60
38208,note_on,,,,,4,0,6,,,,,5,,,46,92
38208,note_on,,,,,4,0,2,,,,,1,,,74,77
38208,note_on,,,,,64,0,8,,,,,7,,,58,60
38208,note_on,,,,,4,0,1,,,,,0,,,74,80
38208,note_off,,,,,96,0,3,,,,,2,,,72,0
38208,note_on,,,,,0,0,3,,,,,2,,,74,100
38396,note_off,,,,,188,0,8,,,,,7,,,58,0
38396,note_off,,,,,0,0,8,,,,,7,,,62,0
38396,note_off,,,,,0,0,8,,,,,7,,,67,0
38396,note_off,,,,,188,0,9,,,,,8,,,46,0
38396,note_off,,,,,188,0,1,,,,,0,,,74,0
38396,note_off,,,,,188,0,6,,,,,5,,,46,0
38396,note_off,,,,,380,0,5,,,,,4,,,67,0
38396,note_off,,,,,188,0,2,,,,,1,,,74,0
38396,note_off,,,,,188,0,7,,,,,6,,,34,0
38400,note_on,,,,,4,0,8,,,,,7,,,57,60
38400,note_on,,,,,4,0,6,,,,,5,,,50,92
38400,note_on,,,,,4,0,5,,,,,4,,,69,92
38400,note_on,,,,,0,0,8,,,,,7,,,62,60
38400,note_on,,,,,4,0,1,,,,,0,,,69,80
38400,note_on,,,,,0,0,3,,,,,2,,,69,100
38400,note_off,,,,,192,0,3,,,,,2,,,74,0
38400,note_off,,,,,384,0,4,,,,,3,,,62,0
38400,note_on,,,,,0,0,4,,,,,3,,,66,108
38400,note_on,,,,,4,0,9,,,,,8,,,50,60
38400,note_on,,,,,4,0,2,,,,,1,,,69,77
38400,note_on,,,,,4,0,7,,,,,6,,,38,80
38400,note_on,,,,,0,0,8,,,,,7,,,66,60
38448,note_off,,,,,48,0,2,,,,,1,,,69,0
38448,note_on,,,,,0,0,4,,,,,3,,,67,108
38448,note_off,,,,,48,0,4,,,,,3,,,66,0
38448,note_on,,,,,0,0,1,,,,,0,,,70,80
38448,note_off,,,,,48,0,1,,,,,0,,,69,0
38448,note_off,,,,,48,0,3,,,,,2,,,69,0
38448,note_on,,,,,0,0,3,,,,,2,,,70,100
38448,note_on,,,,,0,0,2,,,,,1,,,70,77
38492,note_off,,,,,92,0,5,,,,,4,,,69,0
38496,note_off,,,,,48,0,2,,,,,1,,,70,0
38496,note_on,,,,,0,0,2,,,,,1,,,72,77
38496,note_on,,,,,0,0,4,,,,,3,,,69,108
38496,note_on,,,,,4,0,5,,,,,4,,,66,92
38496,note_off,,,,,48,0,4,,,,,3,,,67,0
38496,note_on,,,,,0,0,3,,,,,2,,,72,100
38496,note_off,,,,,48,0,3,,,,,2,,,70,0
38496,note_off,,,,,48,0,1,,,,,0,,,70,0
38496,note_on,,,,,0,0,1,,,,,0,,,72,80
38588,note_off,,,,,188,0,9,,,,,8,,,50,0
38588,note_off,,,,,92,0,5,,,,,4,,,66,0
38588,note_off,,,,,0,0,8,,,,,7,,,62,0
38588,note_off,,,,,188,0,8,,,,,7,,,57,0
38588,note_off,,,,,92,0,1,,,,,0,,,72,0
38588,note_off,,,,,92,0,2,,,,,1,,,72,0
38588,note_off,,,,,188,0,7,,,,,6,,,38,0
38588,note_off,,,,,0,0,8,,,,,7,,,66,0
38588,note_off,,,,,188,0,6,,,,,5,,,50,0
38592,note_on,,,,,4,0,6,,,,,5,,,55,92
38592,note_on,,,,,4,0,1,,,,,0,,,70,80
38592,note_on,,,,,4,0,2,,,,,1,,,70,77
38592,note_on,,,,,0,0,4,,,,,3,,,67,108
38592,note_on,,,,,4,0,9,,,,,8,,,55,60
38592,note_on,,,,,4,0,7,,,,,6,,,43,80
38592,note_on,,,,,4,0,5,,,,,4,,,62,92
38592,note_off,,,,,96,0,4,,,,,3,,,69,0
38592,note_off,,,,,96,0,3,,,,,2,,,72,0
38592,note_on,,,,,4,0,8,,,,,7,,,58,60
38592,note_on,,,,,0,0,8,,,,,7,,,67,60
38592,note_on,,,,,0,0,3,,,,,2,,,70,100
38592,note_on,,,,,0,0,8,,,,,7,,,62,60
38780,note_off,,,,,188,0,9,,,,,8,,,55,0
38780,note_off,,,,,188,0,6,,,,,5,,,55,0
38780,note_off,,,,,188,0,5,,,,,4,,,62,0
38780,note_off,,,,,188,0,7,,,,,6,,,43,0
38784,note_on,,,,,4,0,9,,,,,8,,,43,60
38784,note_on,,,,,4,0,7,,,,,6,,,31,80
38784,note_on,,,,,4,0,5,,,,,4,,,67,92
38784,note_off,,,,,192,0,4,,,,,3,,,67,0
38784,note_on,,,,,4,0,6,,,,,5,,,43,92
38784,note_on,,,,,0,0,4,,,,,3,,,62,108
38876,note_off,,,,,284,0,1,,,,,0,,,70,0
38876,note_off,,,,,284,0,2,,,,,1,,,70,0
38880,note_on,,,,,4,0,1,,,,,0,,,72,80
38880,note_on,,,,,4,0,2,,,,,1,,,72,77
38880,note_off,,,,,288,0,3,,,,,2,,,70,0
38880,note_on,,,,,0,0,3,,,,,2,,,72,100
38912,note_off,,,,,320,0,8,,,,,7,,,58,0
38912,note_off,,,,,0,0,8,,,,,7,,,62,0
38912,note_off,,,,,0,0,8,,,,,7,,,67,0
38972,note_off,,,,,188,0,9,,,,,8,,,43,0
38972,note_off,,,,,188,0,7,,,,,6,,,31,0
38972,note_off,,,,,188,0,6,,,,,5,,,43,0
38972,note_off,,,,,92,0,1,,,,,0,,,72,0
38972,note_off,,,,,92,0,2,,,,,1,,,72,0
38976,note_on,,,,,4,0,7,,,,,6,,,34,80
38976,note_on,,,,,4,0,1,,,,,0,,,74,80
38976,note_on,,,,,4,0,2,,,,,1,,,74,77
38976,note_on,,,,,0,0,3,,,,,2,,,74,100
38976,note_on,,,,,64,0,8,,,,,7,,,58,60
38976,note_on,,,,,0,0,8,,,,,7,,,62,60
38976,note_off,,,,,96,0,3,,,,,2,,,72,0
38976,note_on,,,,,4,0,6,,,,,5,,,46,92
38976,note_on,,,,,4,0,9,,,,,8,,,46,60
38976,note_on,,,,,0,0,8,,,,,7,,,67,60
39164,note_off,,,,,188,0,6,,,,,5,,,46,0
39164,note_off,,,,,188,0,2,,,,,1,,,74,0
39164,note_off,,,,,0,0,8,,,,,7,,,67,0
39164,note_off,,,,,188,0,8,,,,,7,,,58,0
39164,note_off,,,,,188,0,9,,,,,8,,,46,0
39164,note_off,,,,,188,0,7,,,,,6,,,34,0
39164,note_off,,,,,188,0,1,,,,,0,,,74,0
39164,note_off,,,,,0,0,8,,,,,7,,,62,0
39164,note_off,,,,,380,0,5,,,,,4,,,67,0
39168,note_on,,,,,0,0,8,,,,,7,,,66,60
39168,note_on,,,,,4,0,8,,,,,7,,,57,60
39168,note_on,,,,,0,0,4,,,,,3,,,65,108
39168,note_on,,,,,4,0,7,,,,,6,,,38,80
39168,note_off,,,,,384,0,4,,,,,3,,,62,0
39168,note_on,,,,,0,0,8,,,,,7,,,62,60
39168,note_off,,,,,192,0,3,,,,,2,,,74,0
39168,note_on,,,,,4,0,1,,,,,0,,,69,80
39168,note_on,,,,,0,0,3,,,,,2,,,69,100
39168,note_on,,,,,4,0,6,,,,,5,,,50,92
39168,note_on,,,,,4,0,9,,,,,8,,,50,60
39168,note_on,,,,,4,0,5,,,,,4,,,69,92
39168,note_on,,,,,4,0,2,,,,,1,,,69,77
39216,note_off,,,,,48,0,3,,,,,2,,,69,0
39216,note_on,,,,,0,0,3,,,,,2,,,70,100
39216,note_off,,,,,48,0,4,,,,,3,,,65,0
39216,note_on,,,,,0,0,4,,,,,3,,,67,108
39216,note_off,,,,,48,0,2,,,,,1,,,69,0
39216,note_off,,,,,48,0,1,,,,,0,,,69,0
39216,note_on,,,,,0,0,1,,,,,0,,,70,80
39216,note_on,,,,,0,0,2,,,,,1,,,70,77
39260,note_off,,,,,92,0,5,,,,,4,,,69,0
39264,note_on,,,,,0,0,4,,,,,3,,,69,108
39264,note_off,,,,,48,0,4,,,,,3,,,67,0
39264,note_off,,,,,48,0,1,,,,,0,,,70,0
39264,note_on,,,,,0,0,1,,,,,0,,,72,80
39264,note_on,,,,,0,0,2,,,,,1,,,72,77
39264,note_on,,,,,4,0,5,,,,,4,,,66,92
39264,note_off,,,,,48,0,2,,,,,1,,,70,0
39264,note_off,,,,,48,0,3,,,,,2,,,70,0
39264,note_on,,,,,0,0,3,,,,,2,,,72,100
39356,note_off,,,,,92,0,5,,,,,4,,,66,0
39356,note_off,,,,,92,0,2,,,,,1,,,72,0
39356,note_off,,,,,92,0,1,,,,,0,,,72,0
39356,note_off,,,,,188,0,7,,,,,6,,,38,0
39356,note_off,,,,,188,0,6,,,,,5,,,50,0
39356,note_off,,,,,188,0,9,,,,,8,,,50,0
39356,note_off,,,,,0,0,8,,,,,7,,,66,0
39356,note_off,,,,,0,0,8,,,,,7,,,62,0
39356,note_off,,,,,188,0,8,,,,,7,,,57,0
39360,note_on,,,,,4,0,9,,,,,8,,,55,60
39360,note_on,,,,,4,0,8,,,,,7,,,58,60
39360,note_on,,,,,4,0,6,,,,,5,,,55,92
39360,note_on,,,,,4,0,7,,,,,6,,,43,80
39360,note_on,,,,,0,0,4,,,,,3,,,67,108
39360,note_on,,,,,0,0,8,,,,,7,,,62,60
39360,note_on,,,,,0,0,8,,,,,7,,,67,60
39360,note_off,,,,,96,0,4,,,,,3,,,69,0
39360,note_off,,,,,96,0,3,,,,,2,,,72,0
39360,note_on,,,,,4,0,2,,,,,1,,,70,77
39360,note_on,,,,,4,0,1,,,,,0,,,70,80
39360,note_on,,,,,0,0,3,,,,,2,,,70,100
39360,note_on,,,,,4,0,5,,,,,4,,,62,92
39500,note_off,,,,,140,0,1,,,,,0,,,70,0
39500,note_off,,,,,140,0,2,,,,,1,,,70,0
39504,note_on,,,,,4,0,1,,,,,0,,,69,80
39504,note_on,,,,,4,0,2,,,,,1,,,69,77
39504,note_on,,,,,0,0,3,,,,,2,,,69,100
39504,note_off,,,,,144,0,3,,,,,2,,,70,0
39548,note_off,,,,,188,0,6,,,,,5,,,55,0
39548,note_off,,,,,44,0,2,,,,,1,,,69,0
39548,note_off,,,,,188,0,7,,,,,6,,,43,0
39548,note_off,,,,,0,0,8,,,,,7,,,67,0
39548,note_off,,,,,0,0,8,,,,,7,,,62,0
39548,note_off,,,,,188,0,8,,,,,7,,,58,0
39548,note_off,,,,,188,0,5,,,,,4,,,62,0
39548,note_off,,,,,188,0,9,,,,,8,,,55,0
39548,note_off,,,,,44,0,1,,,,,0,,,69,0
39552,note_on,,,,,0,0,4,,,,,3,,,62,108
39552,note_on,,,,,0,0,3,,,,,2,,,67,100
39552,note_off,,,,,192,0,4,,,,,3,,,67,0
39552,note_on,,,,,4,0,9,,,,,8,,,43,60
39552,note_on,,,,,0,0,8,,,,,7,,,62,60
39552,note_on,,,,,4,0,8,,,,,7,,,58,60
39552,note_on,,,,,4,0,1,,,,,0,,,67,80
39552,note_on,,,,,4,0,5,,,,,4,,,58,92
39552,note_on,,,,,4,0,7,,,,,6,,,31,80
39552,note_on,,,,,4,0,6,,,,,5,,,43,92
39552,note_off,,,,,48,0,3,,,,,2,,,69,0
39552,note_on,,,,,4,0,2,,,,,1,,,67,77
39740,note_off,,,,,188,0,5,,,,,4,,,58,0
39740,note_off,,,,,188,0,6,,,,,5,,,43,0
39740,note_off,,,,,188,0,7,,,,,6,,,31,0
39740,note_off,,,,,188,0,2,,,,,1,,,67,0
39740,note_off,,,,,0,0,8,,,,,7,,,62,0
39740,note_off,,,,,188,0,8,,,,,7,,,58,0
39740,note_off,,,,,188,0,9,,,,,8,,,43,0
39740,note_off,,,,,188,0,1,,,,,0,,,67,0
39744,note_off,,,,,192,0,3,,,,,2,,,67,0
39744,note_off,,,,,192,0,4,,,,,3,,,62,0
39936,note_on,,,,,196,0,9,,,,,8,,,53,30
39936,note_on,,,,,196,0,5,,,,,4,,,60,45
39936,note_on,,,,,192,0,4,,,,,3,,,65,60
39936,note_on,,,,,196,0,8,,,,,7,,,65,30
39936,note_on,,,,,0,0,8,,,,,7,,,68,30
39936,note_on,,,,,196,0,2,,,,,1,,,80,37
39936,note_on,,,,,196,0,7,,,,,6,,,41,39
39936,note_on,,,,,192,0,3,,,,,2,,,80,49
39936,note_on,,,,,196,0,1,,,,,0,,,80,39
39936,note_on,,,,,196,0,6,,,,,5,,,53,45
39984,note_on,,,,,0,0,3,,,,,2,,,79,49
39984,note_off,,,,,48,0,2,,,,,1,,,80,0
39984,note_off,,,,,48,0,3,,,,,2,,,80,0
39984,note_on,,,,,0,0,2,,,,,1,,,79,37
39984,note_on,,,,,0,0,1,,,,,0,,,79,39
39984,note_off,,,,,48,0,1,,,,,0,,,80,0
40032,note_on,,,,,0,0,3,,,,,2,,,77,49
40032,note_off,,,,,48,0,2,,,,,1,,,79,0
40032,note_on,,,,,0,0,2,,,,,1,,,77,37
40032,note_off,,,,,48,0,3,,,,,2,,,79,0
40032,note_off,,,,,48,0,1,,,,,0,,,79,0
40032,note_on,,,,,0,0,1,,,,,0,,,77,39
40124,note_off,,,,,188,0,9,,,,,8,,,53,0
40124,note_off,,,,,188,0,6,,,,,5,,,53,0
40124,note_off,,,,,188,0,8,,,,,7,,,65,0
40124,note_off,,,,,0,0,8,,,,,7,,,68,0
40124,note_off,,,,,188,0,7,,,,,6,,,41,0
40124,note_off,,,,,92,0,1,,,,,0,,,77,0
40124,note_off,,,,,92,0,2,,,,,1,,,77,0
40124,note_off,,,,,188,0,5,,,,,4,,,60,0
40128,note_on,,,,,4,0,8,,,,,7,,,65,30
40128,note_on,,,,,0,0,8,,,,,7,,,67,30
40128,note_on,,,,,4,0,9,,,,,8,,,58,30
40128,note_on,,,,,0,0,3,,,,,2,,,76,49
40128,note_off,,,,,96,0,3,,,,,2,,,77,0
40128,note_on,,,,,4,0,1,,,,,0,,,76,39
40128,note_on,,,,,4,0,6,,,,,5,,,58,45
40128,note_off,,,,,192,0,4,,,,,3,,,65,0
40128,note_on,,,,,4,0,7,,,,,6,,,46,39
40128,note_on,,,,,4,0,5,,,,,4,,,61,45
40128,note_on,,,,,4,0,2,,,,,1,,,76,37
40128,note_on,,,,,0,0,4,,,,,3,,,67,60
40224,note_on,,,,,0,0,1,,,,,0,,,77,39
40224,note_off,,,,,96,0,1,,,,,0,,,76,0
40224,note_on,,,,,0,0,2,,,,,1,,,77,37
40224,note_on,,,,,0,0,3,,,,,2,,,77,49
40224,note_off,,,,,96,0,3,,,,,2,,,76,0
40224,note_off,,,,,96,0,2,,,,,1,,,76,0
40316,note_off,,,,,92,0,1,,,,,0,,,77,0
40316,note_off,,,,,188,0,7,,,,,6,,,46,0
40316,note_off,,,,,92,0,2,,,,,1,,,77,0
40316,note_off,,,,,188,0,9,,,,,8,,,58,0
40316,note_off,,,,,188,0,5,,,,,4,,,61,0
40316,note_off,,,,,188,0,8,,,,,7,,,67,0
40316,note_off,,,,,188,0,6,,,,,5,,,58,0
40320,note_on,,,,,0,0,4,,,,,3,,,68,60
40320,note_on,,,,,4,0,6,,,,,5,,,60,45
40320,note_on,,,,,4,0,9,,,,,8,,,60,30
40320,note_on,,,,,4,0,5,,,,,4,,,60,45
40320,note_off,,,,,192,0,4,,,,,3,,,67,0
40320,note_on,,,,,4,0,1,,,,,0,,,76,39
40320,note_on,,,,,4,0,7,,,,,6,,,48,39
40320,note_on,,,,,4,0,8,,,,,7,,,68,30
40320,note_on,,,,,0,0,3,,,,,2,,,76,49
40320,note_on,,,,,4,0,2,,,,,1,,,76,37
40320,note_off,,,,,96,0,3,,,,,2,,,77,0
40416,note_off,,,,,96,0,1,,,,,0,,,76,0
40416,note_on,,,,,0,0,3,,,,,2,,,77,49
40416,note_on,,,,,0,0,1,,,,,0,,,77,39
40416,note_off,,,,,96,0,3,,,,,2,,,76,0
40416,note_on,,,,,0,0,2,,,,,1,,,77,37
40416,note_off,,,,,96,0,2,,,,,1,,,76,0
40448,note_off,,,,,128,0,8,,,,,7,,,65,0
40508,note_off,,,,,188,0,7,,,,,6,,,48,0
40508,note_off,,,,,188,0,9,,,,,8,,,60,0
40508,note_off,,,,,188,0,5,,,,,4,,,60,0
40508,note_off,,,,,188,0,6,,,,,5,,,60,0
40508,note_off,,,,,92,0,2,,,,,1,,,77,0
40508,note_off,,,,,92,0,1,,,,,0,,,77,0
40508,note_off,,,,,60,0,8,,,,,7,,,68,0
40512,note_on,,,,,4,0,1,,,,,0,,,76,39
40512,note_on,,,,,0,0,3,,,,,2,,,76,49
40512,note_on,,,,,0,0,4,,,,,3,,,70,60
40512,note_off,,,,,192,0,4,,,,,3,,,68,0
40512,note_on,,,,,4,0,5,,,,,4,,,67,45
40512,note_on,,,,,4,0,6,,,,,5,,,61,45
40512,note_off,,,,,96,0,3,,,,,2,,,77,0
40512,note_on,,,,,4,0,8,,,,,7,,,65,30
40512,note_on,,,,,0,0,8,,,,,7,,,67,30
40512,note_on,,,,,0,0,8,,,,,7,,,70,30
40512,note_on,,,,,4,0,9,,,,,8,,,61,30
40512,note_on,,,,,4,0,2,,,,,1,,,76,37
40512,note_on,,,,,4,0,7,,,,,6,,,49,39
40608,note_off,,,,,96,0,3,,,,,2,,,76,0
40608,note_on,,,,,0,0,1,,,,,0,,,77,39
40608,note_off,,,,,96,0,1,,,,,0,,,76,0
40608,note_on,,,,,0,0,3,,,,,2,,,77,49
40608,note_on,,,,,0,0,2,,,,,1,,,77,37
40608,note_off,,,,,96,0,2,,,,,1,,,76,0
40700,note_off,,,,,188,0,8,,,,,7,,,67,0
40700,note_off,,,,,188,0,5,,,,,4,,,67,0
40700,note_off,,,,,188,0,9,,,,,8,,,61,0
40700,note_off,,,,,188,0,7,,,,,6,,,49,0
40700,note_off,,,,,92,0,2,,,,,1,,,77,0
40700,note_off,,,,,0,0,8,,,,,7,,,70,0
40700,note_off,,,,,188,0,6,,,,,5,,,61,0
40700,note_off,,,,,92,0,1,,,,,0,,,77,0
40704,note_on,,,,,4,0,7,,,,,6,,,44,39
40704,note_on,,,,,4,0,6,,,,,5,,,56,45
40704,note_on,,,,,4,0,9,,,,,8,,,56,30
40704,note_on,,,,,4,0,1,,,,,0,,,80,39
40704,note_on,,,,,0,0,8,,,,,7,,,72,30
40704,note_on,,,,,4,0,2,,,,,1,,,80,37
40704,note_on,,,,,0,0,3,,,,,2,,,80,49
40704,note_on,,,,,0,0,4,,,,,3,,,72,60
40704,note_off,,,,,192,0,4,,,,,3,,,70,0
40704,note_on,,,,,4,0,8,,,,,7,,,68,30
40704,note_on,,,,,4,0,5,,,,,4,,,65,45
40704,note_off,,,,,96,0,3,,,,,2,,,77,0
40752,note_off,,,,,48,0,2,,,,,1,,,80,0
40752,note_on,,,,,0,0,1,,,,,0,,,79,39
40752,note_on,,,,,0,0,2,,,,,1,,,79,37
40752,note_on,,,,,0,0,3,,,,,2,,,79,49
40752,note_off,,,,,48,0,1,,,,,0,,,80,0
40752,note_off,,,,,48,0,3,,,,,2,,,80,0
40800,note_off,,,,,48,0,2,,,,,1,,,79,0
40800,note_on,,,,,0,0,3,,,,,2,,,77,49
40800,note_off,,,,,48,0,1,,,,,0,,,79,0
40800,note_off,,,,,48,0,3,,,,,2,,,79,0
40800,note_on,,,,,0,0,1,,,,,0,,,77,39
40800,note_on,,,,,0,0,2,,,,,1,,,77,37
40832,note_off,,,,,128,0,8,,,,,7,,,65,0
40892,note_off,,,,,188,0,6,,,,,5,,,56,0
40892,note_off,,,,,188,0,5,,,,,4,,,65,0
40892,note_off,,,,,188,0,9,,,,,8,,,56,0
40892,note_off,,,,,92,0,2,,,,,1,,,77,0
40892,note_off,,,,,92,0,1,,,,,0,,,77,0
40892,note_off,,,,,60,0,8,,,,,7,,,68,0
40892,note_off,,,,,188,0,7,,,,,6,,,44,0
40892,note_off,,,,,0,0,8,,,,,7,,,72,0
40896,note_off,,,,,96,0,3,,,,,2,,,77,0
40896,note_on,,,,,4,0,5,,,,,4,,,61,45
40896,note_on,,,,,0,0,3,,,,,2,,,76,49
40896,note_on,,,,,4,0,1,,,,,0,,,76,39
40896,note_on,,,,,4,0,7,,,,,6,,,46,39
40896,note_on,,,,,4,0,6,,,,,5,,,58,45
40896,note_on,,,,,4,0,9,,,,,8,,,58,30
40896,note_on,,,,,0,0,8,,,,,7,,,67,30
40896,note_on,,,,,4,0,8,,,,,7,,,65,30
40896,note_off,,,,,192,0,4,,,,,3,,,72,0
40896,note_on,,,,,4,0,2,,,,,1,,,76,37
40896,note_on,,,,,0,0,4,,,,,3,,,67,60
40992,note_on,,,,,0,0,1,,,,,0,,,77,39
40992,note_off,,,,,96,0,1,,,,,0,,,76,0
40992,note_off,,,,,96,0,2,,,,,1,,,76,0
40992,note_on,,,,,0,0,2,,,,,1,,,77,37
40992,note_on,,,,,0,0,3,,,,,2,,,77,49
40992,note_off,,,,,96,0,3,,,,,2,,,76,0
41084,note_off,,,,,188,0,6,,,,,5,,,58,0
41084,note_off,,,,,188,0,8,,,,,7,,,67,0
41084,note_off,,,,,92,0,1,,,,,0,,,77,0
41084,note_off,,,,,92,0,2,,,,,1,,,77,0
41084,note_off,,,,,188,0,9,,,,,8,,,58,0
41084,note_off,,,,,188,0,5,,,,,4,,,61,0
41084,note_off,,,,,188,0,7,,,,,6,,,46,0
41088,note_on,,,,,4,0,9,,,,,8,,,60,30
41088,note_on,,,,,4,0,5,,,,,4,,,60,45
41088,note_on,,,,,4,0,8,,,,,7,,,68,30
41088,note_on,,,,,4,0,7,,,,,6,,,48,39
41088,note_on,,,,,4,0,2,,,,,1,,,76,37
41088,note_on,,,,,4,0,6,,,,,5,,,60,45
41088,note_on,,,,,0,0,4,,,,,3,,,68,60
41088,note_off,,,,,192,0,4,,,,,3,,,67,0
41088,note_on,,,,,4,0,1,,,,,0,,,76,39
41088,note_off,,,,,96,0,3,,,,,2,,,77,0
41088,note_on,,,,,0,0,3,,,,,2,,,76,49
41184,note_off,,,,,96,0,3,,,,,2,,,76,0
41184,note_on,,,,,0,0,2,,,,,1,,,77,37
41184,note_off,,,,,96,0,2,,,,,1,,,76,0
41184,note_on,,,,,0,0,1,,,,,0,,,77,39
41184,note_on,,,,,0,0,3,,,,,2,,,77,49
41184,note_off,,,,,96,0,1,,,,,0,,,76,0
41216,note_off,,,,,128,0,8,,,,,7,,,65,0
41276,note_off,,,,,92,0,2,,,,,1,,,77,0
41276,note_off,,,,,92,0,1,,,,,0,,,77,0
41276,note_off,,,,,60,0,8,,,,,7,,,68,0
41276,note_off,,,,,188,0,6,,,,,5,,,60,0
41276,note_off,,,,,188,0,7,,,,,6,,,48,0
41276,note_off,,,,,188,0,5,,,,,4,,,60,0
41276,note_off,,,,,188,0,9,,,,,8,,,60,0
41280,note_on,,,,,4,0,1,,,,,0,,,76,39
41280,note_on,,,,,4,0,9,,,,,8,,,61,30
41280,note_on,,,,,4,0,7,,,,,6,,,49,39
41280,note_off,,,,,96,0,3,,,,,2,,,77,0
41280,note_on,,,,,4,0,5,,,,,4,,,67,45
41280,note_on,,,,,4,0,2,,,,,1,,,76,37
41280,note_on,,,,,0,0,3,,,,,2,,,76,49
41280,note_on,,,,,0,0,8,,,,,7,,,70,30
41280,note_on,,,,,0,0,8,,,,,7,,,67,30
41280,note_on,,,,,4,0,8,,,,,7,,,65,30
41280,note_on,,,,,4,0,6,,,,,5,,,61,45
41280,note_on,,,,,0,0,4,,,,,3,,,70,60
41280,note_off,,,,,192,0,4,,,,,3,,,68,0
41376,note_off,,,,,96,0,2,,,,,1,,,76,0
41376,note_off,,,,,96,0,3,,,,,2,,,76,0
41376,note_off,,,,,96,0,1,,,,,0,,,76,0
41376,note_on,,,,,0,0,1,,,,,0,,,77,39
41376,note_on,,,,,0,0,2,,,,,1,,,77,37
41376,note_on,,,,,0,0,3,,,,,2,,,77,49
41468,note_off,,,,,188,0,6,,,,,5,,,61,0
41468,note_off,,,,,0,0,8,,,,,7,,,70,0
41468,note_off,,,,,188,0,8,,,,,7,,,67,0
41468,note_off,,,,,92,0,1,,,,,0,,,77,0
41468,note_off,,,,,188,0,5,,,,,4,,,67,0
41468,note_off,,,,,188,0,9,,,,,8,,,61,0
41468,note_off,,,,,188,0,7,,,,,6,,,49,0
41468,note_off,,,,,92,0,2,,,,,1,,,77,0
41472,note_on,,,,,4,0,8,,,,,7,,,68,30
41472,note_on,,,,,4,0,1,,,,,0,,,80,39
41472,note_on,,,,,0,0,3,,,,,2,,,80,49
41472,note_off,,,,,96,0,3,,,,,2,,,77,0
41472,note_off,,,,,192,0,4,,,,,3,,,70,0
41472,note_on,,,,,0,0,4,,,,,3,,,72,60
41472,note_on,,,,,4,0,2,,,,,1,,,80,37
41472,note_on,,,,,4,0,7,,,,,6,,,44,39
41472,note_on,,,,,4,0,9,,,,,8,,,56,30
41472,note_on,,,,,4,0,6,,,,,5,,,56,45
41472,note_on,,,,,0,0,8,,,,,7,,,72,30
41472,note_on,,,,,4,0,5,,,,,4,,,65,45
41520,note_off,,,,,48,0,2,,,,,1,,,80,0
41520,note_on,,,,,0,0,2,,,,,1,,,79,37
41520,note_on,,,,,0,0,1,,,,,0,,,79,39
41520,note_off,,,,,48,0,1,,,,,0,,,80,0
41520,note_on,,,,,0,0,3,,,,,2,,,79,49
41520,note_off,,,,,48,0,3,,,,,2,,,80,0
41568,note_off,,,,,48,0,3,,,,,2,,,79,0
41568,note_off,,,,,48,0,1,,,,,0,,,79,0
41568,note_on,,,,,0,0,1,,,,,0,,,77,39
41568,note_on,,,,,0,0,2,,,,,1,,,77,37
41568,note_off,,,,,48,0,2,,,,,1,,,79,0
41568,note_on,,,,,0,0,3,,,,,2,,,77,49
41600,note_off,,,,,128,0,8,,,,,7,,,65,0
41660,note_off,,,,,188,0,9,,,,,8,,,56,0
41660,note_off,,,,,92,0,2,,,,,1,,,77,0
41660,note_off,,,,,188,0,7,,,,,6,,,44,0
41660,note_off,,,,,188,0,5,,,,,4,,,65,0
41660,note_off,,,,,60,0,8,,,,,7,,,68,0
41660,note_off,,,,,92,0,1,,,,,0,,,77,0
41660,note_off,,,,,188,0,6,,,,,5,,,56,0
41660,note_off,,,,,0,0,8,,,,,7,,,72,0
41664,note_on,,,,,4,0,5,,,,,4,,,61,45
41664,note_on,,,,,0,0,8,,,,,7,,,67,30
41664,note_on,,,,,4,0,2,,,,,1,,,76,37
41664,note_on,,,,,0,0,8,,,,,7,,,73,30
41664,note_on,,,,,4,0,6,,,,,5,,,58,45
41664,note_on,,,,,4,0,8,,,,,7,,,65,30
41664,note_off,,,,,192,0,4,,,,,3,,,72,0
41664,note_on,,,,,4,0,1,,,,,0,,,76,39
41664,note_off,,,,,96,0,3,,,,,2,,,77,0
41664,note_on,,,,,0,0,3,,,,,2,,,76,49
41664,note_on,,,,,4,0,9,,,,,8,,,58,30
41664,note_on,,,,,0,0,4,,,,,3,,,67,60
41664,note_on,,,,,4,0,7,,,,,6,,,46,39
41760,note_on,,,,,0,0,3,,,,,2,,,77,49
41760,note_off,,,,,96,0,1,,,,,0,,,76,0
41760,note_on,,,,,0,0,1,,,,,0,,,77,39
41760,note_on,,,,,0,0,2,,,,,1,,,77,37
41760,note_off,,,,,96,0,2,,,,,1,,,76,0
41760,note_off,,,,,96,0,3,,,,,2,,,76,0
41852,note_off,,,,,92,0,1,,,,,0,,,77,0
41852,note_off,,,,,188,0,9,,,,,8,,,58,0
41852,note_off,,,,,188,0,5,,,,,4,,,61,0
41852,note_off,,,,,92,0,2,,,,,1,,,77,0
41852,note_off,,,,,188,0,8,,,,,7,,,67,0
41852,note_off,,,,,188,0,6,,,,,5,,,58,0
41852,note_off,,,,,0,0,8,,,,,7,,,73,0
41852,note_off,,,,,188,0,7,,,,,6,,,46,0
41856,note_on,,,,,4,0,6,,,,,5,,,60,45
41856,note_on,,,,,4,0,2,,,,,1,,,76,37
41856,note_on,,,,,4,0,8,,,,,7,,,68,30
41856,note_on,,,,,4,0,9,,,,,8,,,60,30
41856,note_off,,,,,96,0,3,,,,,2,,,77,0
41856,note_on,,,,,0,0,3,,,,,2,,,76,49
41856,note_on,,,,,0,0,4,,,,,3,,,68,60
41856,note_on,,,,,0,0,8,,,,,7,,,72,30
41856,note_on,,,,,4,0,7,,,,,6,,,48,39
41856,note_on,,,,,4,0,5,,,,,4,,,60,45
41856,note_on,,,,,4,0,1,,,,,0,,,76,39
41856,note_off,,,,,192,0,4,,,,,3,,,67,0
41952,note_on,,,,,0,0,2,,,,,1,,,77,37
41952,note_on,,,,,0,0,1,,,,,0,,,77,39
41952,note_off,,,,,96,0,2,,,,,1,,,76,0
41952,note_on,,,,,0,0,3,,,,,2,,,77,49
41952,note_off,,,,,96,0,1,,,,,0,,,76,0
41952,note_off,,,,,96,0,3,,,,,2,,,76,0
41984,note_off,,,,,128,0,8,,,,,7,,,65,0
42044,note_off,,,,,92,0,1,,,,,0,,,77,0
42044,note_off,,,,,188,0,9,,,,,8,,,60,0
42044,note_off,,,,,188,0,6,,,,,5,,,60,0
42044,note_off,,,,,188,0,5,,,,,4,,,60,0
42044,note_off,,,,,188,0,7,,,,,6,,,48,0
42044,note_off,,,,,0,0,8,,,,,7,,,72,0
42044,note_off,,,,,60,0,8,,,,,7,,,68,0
42044,note_off,,,,,92,0,2,,,,,1,,,77,0
42048,note_on,,,,,0,0,4,,,,,3,,,70,60
42048,note_on,,,,,4,0,2,,,,,1,,,70,37
42048,note_on,,,,,0,0,3,,,,,2,,,70,49
42048,note_on,,,,,4,0,6,,,,,5,,,61,45
42048,note_on,,,,,4,0,9,,,,,8,,,61,30
42048,note_on,,,,,4,0,1,,,,,0,,,70,39
42048,note_on,,,,,4,0,7,,,,,6,,,49,39
42048,note_on,,,,,4,0,5,,,,,4,,,65,45
42048,note_off,,,,,96,0,3,,,,,2,,,77,0
42048,note_off,,,,,192,0,4,,,,,3,,,68,0
42048,note_on,,,,,4,0,8,,,,,7,,,65,30
42048,note_on,,,,,0,0,8,,,,,7,,,70,30
42144,note_on,,,,,0,0,2,,,,,1,,,72,37
42144,note_off,,,,,96,0,3,,,,,2,,,70,0
42144,note_on,,,,,0,0,3,,,,,2,,,72,49
42144,note_off,,,,,96,0,1,,,,,0,,,70,0
42144,note_on,,,,,0,0,1,,,,,0,,,72,39
42144,note_off,,,,,96,0,2,,,,,1,,,70,0
42236,note_off,,,,,188,0,9,,,,,8,,,61,0
42236,note_off,,,,,92,0,1,,,,,0,,,72,0
42236,note_off,,,,,188,0,8,,,,,7,,,70,0
42236,note_off,,,,,188,0,6,,,,,5,,,61,0
42236,note_off,,,,,188,0,7,,,,,6,,,49,0
42236,note_off,,,,,188,0,5,,,,,4,,,65,0
42236,note_off,,,,,92,0,2,,,,,1,,,72,0
42240,note_on,,,,,0,0,3,,,,,2,,,70,49
42240,note_off,,,,,96,0,3,,,,,2,,,72,0
42240,note_on,,,,,4,0,2,,,,,1,,,70,37
42240,note_on,,,,,4,0,9,,,,,8,,,53,30
42240,note_on,,,,,4,0,6,,,,,5,,,53,45
42240,note_off,,,,,192,0,4,,,,,3,,,70,0
42240,note_on,,,,,0,0,4,,,,,3,,,68,60
42240,note_on,,,,,4,0,7,,,,,6,,,41,39
42240,note_on,,,,,4,0,5,,,,,4,,,65,45
42240,note_on,,,,,4,0,1,,,,,0,,,70,39
42240,note_on,,,,,4,0,8,,,,,7,,,68,30
42336,note_off,,,,,96,0,2,,,,,1,,,70,0
42336,note_off,,,,,96,0,3,,,,,2,,,70,0
42336,note_on,,,,,0,0,3,,,,,2,,,72,49
42336,note_on,,,,,0,0,1,,,,,0,,,72,39
42336,note_off,,,,,96,0,1,,,,,0,,,70,0
42336,note_on,,,,,0,0,2,,,,,1,,,72,37
42368,note_off,,,,,128,0,8,,,,,7,,,65,0
42428,note_off,,,,,60,0,8,,,,,7,,,68,0
42428,note_off,,,,,188,0,9,,,,,8,,,53,0
42428,note_off,,,,,188,0,6,,,,,5,,,53,0
42428,note_off,,,,,92,0,1,,,,,0,,,72,0
42428,note_off,,,,,188,0,7,,,,,6,,,41,0
42428,note_off,,,,,188,0,5,,,,,4,,,65,0
42428,note_off,,,,,92,0,2,,,,,1,,,72,0
42432,note_on,,,,,4,0,6,,,,,5,,,58,45
42432,note_on,,,,,4,0,1,,,,,0,,,73,39
42432,note_on,,,,,4,0,9,,,,,8,,,58,30
42432,note_on,,,,,0,0,3,,,,,2,,,73,49
42432,note_on,,,,,4,0,2,,,,,1,,,73,37
42432,note_off,,,,,96,0,3,,,,,2,,,72,0
42432,note_on,,,,,4,0,5,,,,,4,,,67,45
42432,note_on,,,,,4,0,8,,,,,7,,,61,30
42432,note_on,,,,,0,0,8,,,,,7,,,67,30
42432,note_on,,,,,4,0,7,,,,,6,,,46,39
42432,note_on,,,,,0,0,4,,,,,3,,,67,60
42432,note_off,,,,,192,0,4,,,,,3,,,68,0
42524,note_off,,,,,92,0,1,,,,,0,,,73,0
42524,note_off,,,,,92,0,2,,,,,1,,,73,0
42528,note_on,,,,,4,0,1,,,,,0,,,70,39
42528,note_on,,,,,0,0,3,,,,,2,,,70,49
42528,note_on,,,,,4,0,2,,,,,1,,,70,37
42528,note_off,,,,,96,0,3,,,,,2,,,73,0
42620,note_off,,,,,0,0,8,,,,,7,,,67,0
42620,note_off,,,,,188,0,7,,,,,6,,,46,0
42620,note_off,,,,,188,0,8,,,,,7,,,61,0
42620,note_off,,,,,92,0,2,,,,,1,,,70,0
42620,note_off,,,,,188,0,9,,,,,8,,,58,0
42620,note_off,,,,,92,0,1,,,,,0,,,70,0
42620,note_off,,,,,188,0,5,,,,,4,,,67,0
42620,note_off,,,,,188,0,6,,,,,5,,,58,0
42624,note_on,,,,,4,0,6,,,,,5,,,52,45
42624,note_on,,,,,4,0,5,,,,,4,,,60,45
42624,note_on,,,,,4,0,7,,,,,6,,,40,39
42624,note_on,,,,,4,0,9,,,,,8,,,52,30
42624,note_on,,,,,0,0,8,,,,,7,,,67,30
42624,note_on,,,,,4,0,8,,,,,7,,,60,30
42624,note_off,,,,,192,0,4,,,,,3,,,67,0
42624,note_off,,,,,96,0,3,,,,,2,,,70,0
42624,note_on,,,,,4,0,1,,,,,0,,,72,39
42624,note_on,,,,,0,0,4,,,,,3,,,67,60
42624,note_on,,,,,0,0,3,,,,,2,,,72,49
42624,note_on,,,,,4,0,2,,,,,1,,,72,37
42768,note_off,,,,,144,0,4,,,,,3,,,67,0
42768,note_on,,,,,0,0,4,,,,,3,,,65,60
42812,note_off,,,,,188,0,5,,,,,4,,,60,0
42812,note_off,,,,,188,0,8,,,,,7,,,60,0
42812,note_off,,,,,0,0,8,,,,,7,,,67,0
42812,note_off,,,,,188,0,9,,,,,8,,,52,0
42812,note_off,,,,,188,0,6,,,,,5,,,52,0
42812,note_off,,,,,188,0,7,,,,,6,,,40,0
42816,note_on,,,,,4,0,5,,,,,4,,,55,45
42816,note_on,,,,,4,0,9,,,,,8,,,48,30
42816,note_on,,,,,0,0,8,,,,,7,,,67,30
42816,note_on,,,,,4,0,8,,,,,7,,,64,30
42816,note_on,,,,,4,0,6,,,,,5,,,48,45
42816,note_off,,,,,48,0,4,,,,,3,,,65,0
42816,note_on,,,,,0,0,4,,,,,3,,,64,60
42816,note_on,,,,,4,0,7,,,,,6,,,36,39
42944,note_off,,,,,320,0,2,,,,,1,,,72,0
42944,note_off,,,,,320,0,1,,,,,0,,,72,0
43004,note_off,,,,,188,0,5,,,,,4,,,55,0
43004,note_off,,,,,188,0,6,,,,,5,,,48,0
43004,note_off,,,,,0,0,8,,,,,7,,,67,0
43004,note_off,,,,,188,0,8,,,,,7,,,64,0
43004,note_off,,,,,188,0,7,,,,,6,,,36,0
43004,note_off,,,,,188,0,9,,,,,8,,,48,0
43008,note_off,,,,,192,0,4,,,,,3,,,64,0
43008,note_on,,,,,4,0,9,,,,,8,,,52,60
43008,note_on,,,,,0,0,4,,,,,3,,,60,92
43008,note_on,,,,,64,0,1,,,,,0,,,60,80
43008,note_off,,,,,384,0,3,,,,,2,,,72,0
43008,note_on,,,,,64,0,2,,,,,1,,,60,77
43008,note_on,,,,,0,0,3,,,,,2,,,60,100
43008,note_on,,,,,4,0,7,,,,,6,,,40,80
43008,note_on,,,,,0,0,8,,,,,7,,,72,60
43008,note_on,,,,,0,0,8,,,,,7,,,67,60
43008,note_on,,,,,4,0,5,,,,,4,,,55,92
43008,note_on,,,,,4,0,6,,,,,5,,,52,92
43008,note_on,,,,,4,0,8,,,,,7,,,60,60
43196,note_off,,,,,188,0,8,,,,,7,,,60,0
43196,note_off,,,,,188,0,2,,,,,1,,,60,0
43196,note_off,,,,,188,0,9,,,,,8,,,52,0
43196,note_off,,,,,188,0,1,,,,,0,,,60,0
43196,note_off,,,,,188,0,6,,,,,5,,,52,0
43196,note_off,,,,,188,0,5,,,,,4,,,55,0
43196,note_off,,,,,0,0,8,,,,,7,,,72,0
43196,note_off,,,,,0,0,8,,,,,7,,,67,0
43196,note_off,,,,,188,0,7,,,,,6,,,40,0
43200,note_on,,,,,4,0,6,,,,,5,,,53,92
43200,note_on,,,,,4,0,5,,,,,4,,,65,92
43200,note_off,,,,,192,0,4,,,,,3,,,60,0
43200,note_on,,,,,0,0,4,,,,,3,,,80,92
43200,note_on,,,,,4,0,7,,,,,6,,,41,80
43200,note_on,,,,,4,0,9,,,,,8,,,53,60
43200,note_on,,,,,4,0,8,,,,,7,,,60,60
43200,note_on,,,,,0,0,8,,,,,7,,,68,60
43200,note_on,,,,,4,0,1,,,,,0,,,84,80
43200,note_on,,,,,0,0,3,,,,,2,,,84,100
43200,note_off,,,,,192,0,3,,,,,2,,,60,0
43200,note_on,,,,,4,0,2,,,,,1,,,84,77
43340,note_off,,,,,140,0,7,,,,,6,,,41,0
43340,note_off,,,,,140,0,8,,,,,7,,,68,0
43340,note_off,,,,,140,0,5,,,,,4,,,65,0
43340,note_off,,,,,140,0,6,,,,,5,,,53,0
43340,note_off,,,,,140,0,1,,,,,0,,,84,0
43340,note_off,,,,,140,0,2,,,,,1,,,84,0
43340,note_off,,,,,140,0,9,,,,,8,,,53,0
43344,note_on,,,,,0,0,4,,,,,3,,,79,92
43344,note_on,,,,,4,0,8,,,,,7,,,70,60
43344,note_off,,,,,144,0,3,,,,,2,,,84,0
43344,note_on,,,,,0,0,3,,,,,2,,,82,100
43344,note_on,,,,,4,0,6,,,,,5,,,55,92
43344,note_on,,,,,4,0,5,,,,,4,,,64,92
43344,note_off,,,,,144,0,4,,,,,3,,,80,0
43344,note_on,,,,,4,0,9,,,,,8,,,55,60
43344,note_on,,,,,4,0,1,,,,,0,,,82,80
43344,note_on,,,,,4,0,2,,,,,1,,,82,77
43344,note_on,,,,,4,0,7,,,,,6,,,43,80
43388,note_off,,,,,44,0,2,,,,,1,,,82,0
43388,note_off,,,,,44,0,9,,,,,8,,,55,0
43388,note_off,,,,,44,0,6,,,,,5,,,55,0
43388,note_off,,,,,44,0,7,,,,,6,,,43,0
43388,note_off,,,,,44,0,8,,,,,7,,,70,0
43388,note_off,,,,,44,0,5,,,,,4,,,64,0
43388,note_off,,,,,44,0,1,,,,,0,,,82,0
43392,note_on,,,,,4,0,9,,,,,8,,,56,60
43392,note_on,,,,,4,0,8,,,,,7,,,65,60
43392,note_on,,,,,4,0,1,,,,,0,,,80,80
43392,note_on,,,,,0,0,3,,,,,2,,,80,100
43392,note_off,,,,,48,0,3,,,,,2,,,82,0
43392,note_on,,,,,0,0,8,,,,,7,,,72,60
43392,note_off,,,,,48,0,4,,,,,3,,,79,0
43392,note_on,,,,,4,0,2,,,,,1,,,80,77
43392,note_on,,,,,4,0,7,,,,,6,,,44,80
43392,note_on,,,,,4,0,5,,,,,4,,,72,92
43392,note_on,,,,,4,0,6,,,,,5,,,56,92
43392,note_on,,,,,0,0,4,,,,,3,,,77,92
43520,note_off,,,,,128,0,8,,,,,7,,,60,0
43532,note_off,,,,,140,0,1,,,,,0,,,80,0
43532,note_off,,,,,140,0,7,,,,,6,,,44,0
43532,note_off,,,,,140,0,5,,,,,4,,,72,0
43532,note_off,,,,,140,0,9,,,,,8,,,56,0
43532,note_off,,,,,12,0,8,,,,,7,,,65,0
43532,note_off,,,,,140,0,6,,,,,5,,,56,0
43532,note_off,,,,,0,0,8,,,,,7,,,72,0
43532,note_off,,,,,140,0,2,,,,,1,,,80,0
43536,note_on,,,,,4,0,8,,,,,7,,,65,60
43536,note_on,,,,,0,0,8,,,,,7,,,67,60
43536,note_on,,,,,0,0,4,,,,,3,,,77,92
43536,note_off,,,,,144,0,4,,,,,3,,,77,0
43536,note_on,,,,,4,0,1,,,,,0,,,79,80
43536,note_off,,,,,144,0,3,,,,,2,,,80,0
43536,note_on,,,,,0,0,3,,,,,2,,,79,100
43536,note_on,,,,,0,0,8,,,,,7,,,73,60
43536,note_on,,,,,4,0,5,,,,,4,,,73,92
43536,note_on,,,,,4,0,9,,,,,8,,,58,60
43536,note_on,,,,,4,0,2,,,,,1,,,79,77
43536,note_on,,,,,4,0,7,,,,,6,,,46,80
43536,note_on,,,,,4,0,6,,,,,5,,,58,92
43580,note_off,,,,,0,0,8,,,,,7,,,67,0
43580,note_off,,,,,44,0,9,,,,,8,,,58,0
43580,note_off,,,,,0,0,8,,,,,7,,,73,0
43580,note_off,,,,,44,0,7,,,,,6,,,46,0
43580,note_off,,,,,44,0,8,,,,,7,,,65,0
43580,note_off,,,,,44,0,6,,,,,5,,,58,0
43580,note_off,,,,,44,0,5,,,,,4,,,73,0
43580,note_off,,,,,44,0,2,,,,,1,,,79,0
43580,note_off,,,,,44,0,1,,,,,0,,,79,0
43584,note_on,,,,,0,0,8,,,,,7,,,70,60
43584,note_on,,,,,0,0,3,,,,,2,,,80,100
43584,note_off,,,,,48,0,3,,,,,2,,,79,0
43584,note_on,,,,,4,0,8,,,,,7,,,63,60
43584,note_on,,,,,4,0,9,,,,,8,,,60,60
43584,note_on,,,,,4,0,1,,,,,0,,,80,80
43584,note_on,,,,,0,0,8,,,,,7,,,67,60
43584,note_on,,,,,4,0,2,,,,,1,,,80,77
43584,note_on,,,,,4,0,5,,,,,4,,,72,92
43584,note_on,,,,,0,0,4,,,,,3,,,77,92
43584,note_off,,,,,48,0,4,,,,,3,,,77,0
43584,note_on,,,,,4,0,6,,,,,5,,,60,92
43584,note_on,,,,,4,0,7,,,,,6,,,48,80
43772,note_off,,,,,188,0,8,,,,,7,,,63,0
43772,note_off,,,,,188,0,2,,,,,1,,,80,0
43772,note_off,,,,,188,0,7,,,,,6,,,48,0
43772,note_off,,,,,188,0,6,,,,,5,,,60,0
43772,note_off,,,,,188,0,5,,,,,4,,,72,0
43772,note_off,,,,,188,0,9,,,,,8,,,60,0
43772,note_off,,,,,0,0,8,,,,,7,,,67,0
43772,note_off,,,,,188,0,1,,,,,0,,,80,0
43772,note_off,,,,,0,0,8,,,,,7,,,70,0
43776,note_on,,,,,0,0,4,,,,,3,,,76,92
43776,note_on,,,,,4,0,8,,,,,7,,,62,60
43776,note_on,,,,,4,0,2,,,,,1,,,79,77
43776,note_on,,,,,4,0,1,,,,,0,,,79,80
43776,note_on,,,,,4,0,7,,,,,6,,,36,80
43776,note_on,,,,,0,0,8,,,,,7,,,65,60
43776,note_on,,,,,4,0,5,,,,,4,,,70,92
43776,note_off,,,,,192,0,3,,,,,2,,,80,0
43776,note_on,,,,,4,0,6,,,,,5,,,48,92
43776,note_off,,,,,192,0,4,,,,,3,,,77,0
43776,note_on,,,,,4,0,9,,,,,8,,,48,60
43776,note_on,,,,,0,0,8,,,,,7,,,70,60
43776,note_on,,,,,0,0,3,,,,,2,,,79,100
43916,note_off,,,,,140,0,2,,,,,1,,,79,0
43916,note_off,,,,,140,0,1,,,,,0,,,79,0
43920,note_off,,,,,144,0,3,,,,,2,,,79,0
43920,note_on,,,,,0,0,3,,,,,2,,,77,100
43920,note_on,,,,,4,0,2,,,,,1,,,77,77
43920,note_on,,,,,4,0,1,,,,,0,,,77,80
43964,note_off,,,,,188,0,6,,,,,5,,,48,0
43964,note_off,,,,,0,0,8,,,,,7,,,65,0
43964,note_off,,,,,188,0,9,,,,,8,,,48,0
43964,note_off,,,,,188,0,5,,,,,4,,,70,0
43964,note_off,,,,,188,0,7,,,,,6,,,36,0
43964,note_off,,,,,0,0,8,,,,,7,,,70,0
43964,note_off,,,,,44,0,2,,,,,1,,,77,0
43964,note_off,,,,,44,0,1,,,,,0,,,77,0
43964,note_off,,,,,188,0,8,,,,,7,,,62,0
43968,note_on,,,,,4,0,8,,,,,7,,,63,60
43968,note_on,,,,,0,0,4,,,,,3,,,77,92
43968,note_off,,,,,192,0,4,,,,,3,,,76,0
43968,note_on,,,,,0,0,3,,,,,2,,,77,100
43968,note_on,,,,,4,0,7,,,,,6,,,41,80
43968,note_off,,,,,48,0,3,,,,,2,,,77,0
43968,note_on,,,,,0,0,8,,,,,7,,,70,60
43968,note_on,,,,,4,0,9,,,,,8,,,53,60
43968,note_on,,,,,4,0,6,,,,,5,,,53,92
43968,note_on,,,,,4,0,2,,,,,1,,,77,77
43968,note_on,,,,,4,0,5,,,,,4,,,68,92
43968,note_on,,,,,4,0,1,,,,,0,,,77,80
43968,note_on,,,,,0,0,8,,,,,7,,,67,60
44288,note_off,,,,,320,0,2,,,,,1,,,77,0
44288,note_off,,,,,0,0,8,,,,,7,,,67,0
44288,note_off,,,,,320,0,5,,,,,4,,,68,0
44288,note_off,,,,,320,0,6,,,,,5,,,53,0
44288,note_off,,,,,320,0,8,,,,,7,,,63,0
44288,note_off,,,,,320,0,7,,,,,6,,,41,0
44288,note_off,,,,,320,0,9,,,,,8,,,53,0
44288,note_off,,,,,320,0,1,,,,,0,,,77,0
44288,note_off,,,,,0,0,8,,,,,7,,,70,0
44352,note_off,,,,,384,0,3,,,,,2,,,77,0
44352,note_off,,,,,384,0,4,,,,,3,,,77,0
44544,note_on,,,,,0,0,8,,,,,7,,,70,60
44544,note_on,,,,,192,0,4,,,,,3,,,70,92
44544,note_on,,,,,256,0,5,,,,,4,,,67,92
44544,note_on,,,,,0,0,8,,,,,7,,,75,60
44544,note_on,,,,,256,0,8,,,,,7,,,61,60
44544,note_on,,,,,256,0,6,,,,,5,,,55,92
44544,note_on,,,,,256,0,2,,,,,1,,,75,77
44544,note_on,,,,,256,0,9,,,,,8,,,55,60
44544,note_on,,,,,192,0,3,,,,,2,,,75,100
44544,note_on,,,,,256,0,7,,,,,6,,,43,80
44544,note_on,,,,,256,0,1,,,,,0,,,75,80
44684,note_off,,,,,140,0,5,,,,,4,,,67,0
44684,note_off,,,,,140,0,2,,,,,1,,,75,0
44684,note_off,,,,,140,0,1,,,,,0,,,75,0
44688,note_on,,,,,4,0,2,,,,,1,,,73,77
44688,note_on,,,,,4,0,5,,,,,4,,,65,92
44688,note_on,,,,,4,0,1,,,,,0,,,73,80
44688,note_off,,,,,144,0,3,,,,,2,,,75,0
44688,note_on,,,,,0,0,3,,,,,2,,,73,100
44732,note_off,,,,,188,0,6,,,,,5,,,55,0
44732,note_off,,,,,188,0,7,,,,,6,,,43,0
44732,note_off,,,,,44,0,2,,,,,1,,,73,0
44732,note_off,,,,,44,0,5,,,,,4,,,65,0
44732,note_off,,,,,188,0,8,,,,,7,,,61,0
44732,note_off,,,,,0,0,8,,,,,7,,,70,0
44732,note_off,,,,,0,0,8,,,,,7,,,75,0
44732,note_off,,,,,188,0,9,,,,,8,,,55,0
44732,note_off,,,,,44,0,1,,,,,0,,,73,0
44736,note_on,,,,,4,0,1,,,,,0,,,72,80
44736,note_on,,,,,4,0,9,,,,,8,,,56,60
44736,note_on,,,,,4,0,6,,,,,5,,,56,92
44736,note_on,,,,,4,0,5,,,,,4,,,63,92
44736,note_off,,,,,48,0,3,,,,,2,,,73,0
44736,note_on,,,,,4,0,7,,,,,6,,,44,80
44736,note_on,,,,,0,0,3,,,,,2,,,72,100
44736,note_on,,,,,4,0,8,,,,,7,,,63,60
44736,note_on,,,,,0,0,8,,,,,7,,,68,60
44736,note_on,,,,,0,0,8,,,,,7,,,72,60
44736,note_on,,,,,4,0,2,,,,,1,,,72,77
44736,note_off,,,,,192,0,4,,,,,3,,,70,0
44736,note_on,,,,,0,0,4,,,,,3,,,68,92
44924,note_off,,,,,188,0,5,,,,,4,,,63,0
44924,note_off,,,,,188,0,6,,,,,5,,,56,0
44924,note_off,,,,,188,0,9,,,,,8,,,56,0
44924,note_off,,,,,188,0,7,,,,,6,,,44,0
44928,note_on,,,,,4,0,6,,,,,5,,,44,92
44928,note_on,,,,,0,0,4,,,,,3,,,63,92
44928,note_on,,,,,4,0,7,,,,,6,,,32,80
44928,note_off,,,,,192,0,4,,,,,3,,,68,0
44928,note_on,,,,,4,0,5,,,,,4,,,68,92
44928,note_on,,,,,4,0,9,,,,,8,,,44,60
45020,note_off,,,,,284,0,1,,,,,0,,,72,0
45020,note_off,,,,,284,0,2,,,,,1,,,72,0
45024,note_on,,,,,4,0,2,,,,,1,,,73,77
45024,note_on,,,,,0,0,3,,,,,2,,,73,100
45024,note_off,,,,,288,0,3,,,,,2,,,72,0
45024,note_on,,,,,4,0,1,,,,,0,,,73,80
45056,note_off,,,,,320,0,8,,,,,7,,,63,0
45056,note_off,,,,,0,0,8,,,,,7,,,68,0
45056,note_off,,,,,0,0,8,,,,,7,,,72,0
45116,note_off,,,,,188,0,9,,,,,8,,,44,0
45116,note_off,,,,,188,0,7,,,,,6,,,32,0
45116,note_off,,,,,92,0,2,,,,,1,,,73,0
45116,note_off,,,,,188,0,5,,,,,4,,,68,0
45116,note_off,,,,,92,0,1,,,,,0,,,73,0
45116,note_off,,,,,188,0,6,,,,,5,,,44,0
45120,note_on,,,,,4,0,9,,,,,8,,,48,60
45120,note_on,,,,,0,0,3,,,,,2,,,75,100
45120,note_off,,,,,96,0,3,,,,,2,,,73,0
45120,note_on,,,,,64,0,8,,,,,7,,,60,60
45120,note_on,,,,,0,0,4,,,,,3,,,68,92
45120,note_on,,,,,4,0,1,,,,,0,,,75,80
45120,note_on,,,,,4,0,2,,,,,1,,,75,77
45120,note_on,,,,,0,0,8,,,,,7,,,63,60
45120,note_on,,,,,4,0,7,,,,,6,,,36,80
45120,note_on,,,,,4,0,5,,,,,4,,,63,92
45120,note_on,,,,,0,0,8,,,,,7,,,68,60
45120,note_off,,,,,192,0,4,,,,,3,,,63,0
45120,note_on,,,,,4,0,6,,,,,5,,,48,92
45308,note_off,,,,,188,0,2,,,,,1,,,75,0
45308,note_off,,,,,188,0,6,,,,,5,,,48,0
45308,note_off,,,,,188,0,7,,,,,6,,,36,0
45308,note_off,,,,,188,0,5,,,,,4,,,63,0
45308,note_off,,,,,0,0,8,,,,,7,,,63,0
45308,note_off,,,,,188,0,8,,,,,7,,,60,0
45308,note_off,,,,,0,0,8,,,,,7,,,68,0
45308,note_off,,,,,188,0,9,,,,,8,,,48,0
45308,note_off,,,,,188,0,1,,,,,0,,,75,0
45312,note_on,,,,,4,0,9,,,,,8,,,51,60
45312,note_on,,,,,4,0,6,,,,,5,,,51,92
45312,note_off,,,,,192,0,4,,,,,3,,,68,0
45312,note_on,,,,,0,0,4,,,,,3,,,67,92
45312,note_on,,,,,4,0,8,,,,,7,,,58,60
45312,note_on,,,,,0,0,8,,,,,7,,,63,60
45312,note_on,,,,,0,0,3,,,,,2,,,70,100
45312,note_on,,,,,4,0,5,,,,,4,,,63,92
45312,note_on,,,,,4,0,1,,,,,0,,,70,80
45312,note_on,,,,,4,0,7,,,,,6,,,39,80
45312,note_on,,,,,4,0,2,,,,,1,,,70,77
45312,note_off,,,,,192,0,3,,,,,2,,,75,0
45312,note_on,,,,,0,0,8,,,,,7,,,67,60
45356,note_off,,,,,44,0,1,,,,,0,,,70,0
45356,note_off,,,,,44,0,2,,,,,1,,,70,0
45360,note_on,,,,,4,0,1,,,,,0,,,72,80
45360,note_on,,,,,4,0,2,,,,,1,,,72,77
45360,note_on,,,,,0,0,3,,,,,2,,,72,100
45360,note_off,,,,,48,0,3,,,,,2,,,70,0
45404,note_off,,,,,44,0,1,,,,,0,,,72,0
45404,note_off,,,,,44,0,2,,,,,1,,,72,0
45408,note_on,,,,,0,0,3,,,,,2,,,73,100
45408,note_off,,,,,48,0,3,,,,,2,,,72,0
45408,note_on,,,,,4,0,1,,,,,0,,,73,80
45408,note_on,,,,,4,0,2,,,,,1,,,73,77
45500,note_off,,,,,188,0,7,,,,,6,,,39,0
45500,note_off,,,,,0,0,8,,,,,7,,,67,0
45500,note_off,,,,,0,0,8,,,,,7,,,63,0
45500,note_off,,,,,188,0,5,,,,,4,,,63,0
45500,note_off,,,,,188,0,6,,,,,5,,,51,0
45500,note_off,,,,,92,0,1,,,,,0,,,73,0
45500,note_off,,,,,188,0,9,,,,,8,,,51,0
45500,note_off,,,,,188,0,8,,,,,7,,,58,0
45500,note_off,,,,,92,0,2,,,,,1,,,73,0
45504,note_on,,,,,0,0,3,,,,,2,,,72,100
45504,note_off,,,,,96,0,3,,,,,2,,,73,0
45504,note_on,,,,,4,0,1,,,,,0,,,72,80
45504,note_on,,,,,4,0,2,,,,,1,,,72,77
45504,note_on,,,,,4,0,5,,,,,4,,,63,92
45504,note_on,,,,,4,0,7,,,,,6,,,44,80
45504,note_on,,,,,0,0,4,,,,,3,,,68,92
45504,note_on,,,,,0,0,8,,,,,7,,,68,60
45504,note_on,,,,,0,0,8,,,,,7,,,63,60
45504,note_on,,,,,4,0,6,,,,,5,,,56,92
45504,note_on,,,,,4,0,8,,,,,7,,,60,60
45504,note_on,,,,,4,0,9,,,,,8,,,56,60
45504,note_off,,,,,192,0,4,,,,,3,,,67,0
45692,note_off,,,,,188,0,6,,,,,5,,,56,0
45692,note_off,,,,,188,0,7,,,,,6,,,44,0
45692,note_off,,,,,188,0,9,,,,,8,,,56,0
45692,note_off,,,,,188,0,5,,,,,4,,,63,0
45696,note_on,,,,,4,0,9,,,,,8,,,44,60
45696,note_on,,,,,4,0,7,,,,,6,,,32,80
45696,note_on,,,,,0,0,4,,,,,3,,,63,92
45696,note_on,,,,,4,0,6,,,,,5,,,44,92
45696,note_off,,,,,192,0,4,,,,,3,,,68,0
45696,note_on,,,,,4,0,5,,,,,4,,,68,92
45788,note_off,,,,,284,0,1,,,,,0,,,72,0
45788,note_off,,,,,284,0,2,,,,,1,,,72,0
45792,note_on,,,,,0,0,3,,,,,2,,,73,100
45792,note_on,,,,,4,0,2,,,,,1,,,73,77
45792,note_off,,,,,288,0,3,,,,,2,,,72,0
45792,note_on,,,,,4,0,1,,,,,0,,,73,80
45824,note_off,,,,,0,0,8,,,,,7,,,63,0
45824,note_off,,,,,320,0,8,,,,,7,,,60,0
45824,note_off,,,,,0,0,8,,,,,7,,,68,0
45884,note_off,,,,,92,0,1,,,,,0,,,73,0
45884,note_off,,,,,92,0,2,,,,,1,,,73,0
45884,note_off,,,,,188,0,7,,,,,6,,,32,0
45884,note_off,,,,,188,0,6,,,,,5,,,44,0
45884,note_off,,,,,188,0,9,,,,,8,,,44,0
45884,note_off,,,,,188,0,5,,,,,4,,,68,0
45888,note_on,,,,,4,0,9,,,,,8,,,48,60
45888,note_on,,,,,4,0,5,,,,,4,,,63,92
45888,note_on,,,,,0,0,3,,,,,2,,,75,100
45888,note_off,,,,,96,0,3,,,,,2,,,73,0
45888,note_on,,,,,4,0,1,,,,,0,,,75,80
45888,note_on,,,,,64,0,8,,,,,7,,,60,60
45888,note_on,,,,,0,0,8,,,,,7,,,63,60
45888,note_on,,,,,4,0,2,,,,,1,,,75,77
45888,note_on,,,,,4,0,6,,,,,5,,,48,92
45888,note_off,,,,,192,0,4,,,,,3,,,63,0
45888,note_on,,,,,0,0,4,,,,,3,,,68,92
45888,note_on,,,,,4,0,7,,,,,6,,,36,80
45888,note_on,,,,,0,0,8,,,,,7,,,68,60
46076,note_off,,,,,188,0,1,,,,,0,,,75,0
46076,note_off,,,,,188,0,9,,,,,8,,,48,0
46076,note_off,,,,,188,0,6,,,,,5,,,48,0
46076,note_off,,,,,0,0,8,,,,,7,,,68,0
46076,note_off,,,,,188,0,8,,,,,7,,,60,0
46076,note_off,,,,,188,0,5,,,,,4,,,63,0
46076,note_off,,,,,188,0,7,,,,,6,,,36,0
46076,note_off,,,,,188,0,2,,,,,1,,,75,0
46076,note_off,,,,,0,0,8,,,,,7,,,63,0
46080,note_on,,,,,4,0,2,,,,,1,,,70,77
46080,note_on,,,,,4,0,7,,,,,6,,,39,80
46080,note_on,,,,,4,0,1,,,,,0,,,70,80
46080,note_on,,,,,4,0,5,,,,,4,,,63,92
46080,note_on,,,,,0,0,8,,,,,7,,,67,60
46080,note_on,,,,,4,0,8,,,,,7,,,58,60
46080,note_on,,,,,0,0,8,,,,,7,,,63,60
46080,note_on,,,,,4,0,6,,,,,5,,,51,92
46080,note_on,,,,,0,0,4,,,,,3,,,67,92
46080,note_off,,,,,192,0,4,,,,,3,,,68,0
46080,note_on,,,,,4,0,9,,,,,8,,,51,60
46080,note_off,,,,,192,0,3,,,,,2,,,75,0
46080,note_on,,,,,0,0,3,,,,,2,,,70,100
46124,note_off,,,,,44,0,1,,,,,0,,,70,0
46124,note_off,,,,,44,0,2,,,,,1,,,70,0
46128,note_on,,,,,0,0,3,,,,,2,,,72,100
46128,note_on,,,,,4,0,2,,,,,1,,,72,77
46128,note_off,,,,,48,0,3,,,,,2,,,70,0
46128,note_on,,,,,4,0,1,,,,,0,,,72,80
46172,note_off,,,,,44,0,2,,,,,1,,,72,0
46172,note_off,,,,,44,0,1,,,,,0,,,72,0
46176,note_on,,,,,0,0,3,,,,,2,,,73,100
46176,note_off,,,,,48,0,3,,,,,2,,,72,0
46176,note_on,,,,,4,0,1,,,,,0,,,73,80
46176,note_on,,,,,4,0,2,,,,,1,,,73,77
46268,note_off,,,,,92,0,2,,,,,1,,,73,0
46268,note_off,,,,,92,0,1,,,,,0,,,73,0
46268,note_off,,,,,188,0,7,,,,,6,,,39,0
46268,note_off,,,,,188,0,6,,,,,5,,,51,0
46268,note_off,,,,,0,0,8,,,,,7,,,67,0
46268,note_off,,,,,0,0,8,,,,,7,,,63,0
46268,note_off,,,,,188,0,8,,,,,7,,,58,0
46268,note_off,,,,,188,0,5,,,,,4,,,63,0
46268,note_off,,,,,188,0,9,,,,,8,,,51,0
46272,note_on,,,,,4,0,6,,,,,5,,,56,92
46272,note_on,,,,,0,0,8,,,,,7,,,63,60
46272,note_on,,,,,4,0,5,,,,,4,,,63,92
46272,note_on,,,,,4,0,1,,,,,0,,,72,80
46272,note_on,,,,,0,0,3,,,,,2,,,72,100
46272,note_off,,,,,96,0,3,,,,,2,,,73,0
46272,note_on,,,,,0,0,8,,,,,7,,,68,60
46272,note_on,,,,,4,0,8,,,,,7,,,60,60
46272,note_on,,,,,4,0,2,,,,,1,,,72,77
46272,note_on,,,,,0,0,4,,,,,3,,,68,92
46272,note_off,,,,,192,0,4,,,,,3,,,67,0
46272,note_on,,,,,4,0,9,,,,,8,,,56,60
46272,note_on,,,,,4,0,7,,,,,6,,,44,80
46412,note_off,,,,,140,0,1,,,,,0,,,72,0
46412,note_off,,,,,140,0,2,,,,,1,,,72,0
46416,note_on,,,,,4,0,1,,,,,0,,,70,80
46416,note_off,,,,,144,0,3,,,,,2,,,72,0
46416,note_on,,,,,4,0,2,,,,,1,,,70,77
46416,note_on,,,,,0,0,3,,,,,2,,,70,100
46460,note_off,,,,,44,0,2,,,,,1,,,70,0
46460,note_off,,,,,188,0,5,,,,,4,,,63,0
46460,note_off,,,,,188,0,6,,,,,5,,,56,0
46460,note_off,,,,,44,0,1,,,,,0,,,70,0
46460,note_off,,,,,188,0,9,,,,,8,,,56,0
46460,note_off,,,,,188,0,8,,,,,7,,,60,0
46460,note_off,,,,,0,0,8,,,,,7,,,63,0
46460,note_off,,,,,0,0,8,,,,,7,,,68,0
46460,note_off,,,,,188,0,7,,,,,6,,,44,0
46464,note_on,,,,,0,0,4,,,,,3,,,63,92
46464,note_on,,,,,4,0,7,,,,,6,,,32,80
46464,note_off,,,,,48,0,3,,,,,2,,,70,0
46464,note_on,,,,,0,0,3,,,,,2,,,68,100
46464,note_on,,,,,4,0,2,,,,,1,,,68,77
46464,note_on,,,,,4,0,5,,,,,4,,,60,92
46464,note_on,,,,,4,0,8,,,,,7,,,60,60
46464,note_off,,,,,192,0,4,,,,,3,,,68,0
46464,note_on,,,,,4,0,6,,,,,5,,,44,92
46464,note_on,,,,,0,0,8,,,,,7,,,63,60
46464,note_on,,,,,4,0,9,,,,,8,,,44,60
46464,note_on,,,,,4,0,1,,,,,0,,,68,80
46652,note_off,,,,,188,0,2,,,,,1,,,68,0
46652,note_off,,,,,188,0,5,,,,,4,,,60,0
46652,note_off,,,,,188,0,6,,,,,5,,,44,0
46652,note_off,,,,,188,0,1,,,,,0,,,68,0
46652,note_off,,,,,188,0,7,,,,,6,,,32,0
46652,note_off,,,,,0,0,8,,,,,7,,,63,0
46652,note_off,,,,,188,0,9,,,,,8,,,44,0
46652,note_off,,,,,188,0,8,,,,,7,,,60,0
46656,note_off,,,,,192,0,4,,,,,3,,,63,0
46656,note_off,,,,,192,0,3,,,,,2,,,68,0
46848,note_on,,,,,192,0,4,,,,,3,,,77,92
46848,note_on,,,,,196,0,1,,,,,0,,,82,80
46848,note_on,,,,,196,0,6,,,,,5,,,50,92
46848,note_on,,,,,0,0,8,,,,,7,,,65,60
46848,note_on,,,,,196,0,8,,,,,7,,,58,60
46848,note_on,,,,,196,0,9,,,,,8,,,50,60
46848,note_on,,,,,196,0,2,,,,,1,,,82,77
46848,note_on,,,,,0,0,8,,,,,7,,,70,60
46848,note_on,,,,,192,0,3,,,,,2,,,82,100
46848,note_on,,,,,196,0,7,,,,,6,,,38,80
46848,note_on,,,,,196,0,5,,,,,4,,,58,92
47036,note_off,,,,,188,0,9,,,,,8,,,50,0
47036,note_off,,,,,188,0,1,,,,,0,,,82,0
47036,note_off,,,,,188,0,5,,,,,4,,,58,0
47036,note_off,,,,,0,0,8,,,,,7,,,70,0
47036,note_off,,,,,188,0,6,,,,,5,,,50,0
47036,note_off,,,,,188,0,8,,,,,7,,,58,0
47036,note_off,,,,,188,0,2,,,,,1,,,82,0
47036,note_off,,,,,188,0,7,,,,,6,,,38,0
47036,note_off,,,,,0,0,8,,,,,7,,,65,0
47040,note_on,,,,,4,0,9,,,,,8,,,51,60
47040,note_on,,,,,0,0,8,,,,,7,,,70,60
47040,note_on,,,,,4,0,7,,,,,6,,,39,80
47040,note_on,,,,,4,0,1,,,,,0,,,79,80
47040,note_off,,,,,192,0,4,,,,,3,,,77,0
47040,note_on,,,,,4,0,8,,,,,7,,,67,60
47040,note_on,,,,,0,0,4,,,,,3,,,75,92
47040,note_on,,,,,0,0,3,,,,,2,,,79,100
47040,note_on,,,,,4,0,2,,,,,1,,,79,77
47040,note_off,,,,,192,0,3,,,,,2,,,82,0
47040,note_on,,,,,4,0,5,,,,,4,,,70,92
47040,note_on,,,,,4,0,6,,,,,5,,,51,92
47228,note_off,,,,,188,0,9,,,,,8,,,51,0
47228,note_off,,,,,188,0,6,,,,,5,,,51,0
47228,note_off,,,,,188,0,5,,,,,4,,,70,0
47228,note_off,,,,,188,0,7,,,,,6,,,39,0
47232,note_on,,,,,4,0,7,,,,,6,,,51,80
47232,note_on,,,,,4,0,9,,,,,8,,,63,60
47232,note_on,,,,,4,0,6,,,,,5,,,63,92
47232,note_on,,,,,4,0,5,,,,,4,,,75,92
47232,note_off,,,,,192,0,4,,,,,3,,,75,0
47232,note_on,,,,,0,0,4,,,,,3,,,70,92
47324,note_off,,,,,284,0,2,,,,,1,,,79,0
47324,note_off,,,,,284,0,1,,,,,0,,,79,0
47328,note_on,,,,,4,0,1,,,,,0,,,80,80
47328,note_on,,,,,4,0,2,,,,,1,,,80,77
47328,note_off,,,,,288,0,3,,,,,2,,,79,0
47328,note_on,,,,,0,0,3,,,,,2,,,80,100
47360,note_off,,,,,0,0,8,,,,,7,,,70,0
47360,note_off,,,,,320,0,8,,,,,7,,,67,0
47420,note_off,,,,,92,0,2,,,,,1,,,80,0
47420,note_off,,,,,188,0,9,,,,,8,,,63,0
47420,note_off,,,,,92,0,1,,,,,0,,,80,0
47420,note_off,,,,,188,0,6,,,,,5,,,63,0
47420,note_off,,,,,188,0,5,,,,,4,,,75,0
47420,note_off,,,,,188,0,7,,,,,6,,,51,0
47424,note_on,,,,,4,0,7,,,,,6,,,43,80
47424,note_on,,,,,4,0,9,,,,,8,,,55,60
47424,note_on,,,,,4,0,5,,,,,4,,,70,92
47424,note_on,,,,,4,0,6,,,,,5,,,55,92
47424,note_on,,,,,64,0,8,,,,,7,,,67,60
47424,note_on,,,,,0,0,3,,,,,2,,,82,100
47424,note_off,,,,,96,0,3,,,,,2,,,80,0
47424,note_on,,,,,0,0,8,,,,,7,,,70,60
47424,note_on,,,,,0,0,4,,,,,3,,,75,92
47424,note_on,,,,,4,0,2,,,,,1,,,82,77
47424,note_off,,,,,192,0,4,,,,,3,,,70,0
47424,note_on,,,,,0,0,8,,,,,7,,,75,60
47424,note_on,,,,,4,0,1,,,,,0,,,82,80
47612,note_off,,,,,188,0,9,,,,,8,,,55,0
47612,note_off,,,,,188,0,2,,,,,1,,,82,0
47612,note_off,,,,,188,0,1,,,,,0,,,82,0
47612,note_off,,,,,188,0,5,,,,,4,,,70,0
47612,note_off,,,,,0,0,8,,,,,7,,,75,0
47612,note_off,,,,,0,0,8,,,,,7,,,70,0
47612,note_off,,,,,188,0,8,,,,,7,,,67,0
47612,note_off,,,,,188,0,7,,,,,6,,,43,0
47612,note_off,,,,,188,0,6,,,,,5,,,55,0
47616,note_off,,,,,192,0,3,,,,,2,,,82,0
47616,note_on,,,,,0,0,3,,,,,2,,,77,100
47616,note_on,,,,,0,0,4,,,,,3,,,74,92
47616,note_on,,,,,4,0,9,,,,,8,,,58,60
47616,note_on,,,,,4,0,5,,,,,4,,,70,92
47616,note_off,,,,,192,0,4,,,,,3,,,75,0
47616,note_on,,,,,4,0,8,,,,,7,,,65,60
47616,note_on,,,,,0,0,8,,,,,7,,,74,60
47616,note_on,,,,,4,0,1,,,,,0,,,77,80
47616,note_on,,,,,4,0,2,,,,,1,,,77,77
47616,note_on,,,,,4,0,6,,,,,5,,,58,92
47616,note_on,,,,,0,0,8,,,,,7,,,70,60
47616,note_on,,,,,4,0,7,,,,,6,,,46,80
47664,note_on,,,,,0,0,2,,,,,1,,,79,77
47664,note_off,,,,,48,0,2,,,,,1,,,77,0
47664,note_on,,,,,0,0,3,,,,,2,,,79,100
47664,note_off,,,,,48,0,3,,,,,2,,,77,0
47664,note_off,,,,,48,0,1,,,,,0,,,77,0
47664,note_on,,,,,0,0,1,,,,,0,,,79,80
47712,note_on,,,,,0,0,2,,,,,1,,,80,77
47712,note_off,,,,,48,0,3,,,,,2,,,79,0
47712,note_off,,,,,48,0,1,,,,,0,,,79,0
47712,note_off,,,,,48,0,2,,,,,1,,,79,0
47712,note_on,,,,,0,0,3,,,,,2,,,80,100
47712,note_on,,,,,0,0,1,,,,,0,,,80,80
47804,note_off,,,,,92,0,2,,,,,1,,,80,0
47804,note_off,,,,,188,0,5,,,,,4,,,70,0
47804,note_off,,,,,92,0,1,,,,,0,,,80,0
47804,note_off,,,,,188,0,9,,,,,8,,,58,0
47804,note_off,,,,,188,0,8,,,,,7,,,65,0
47804,note_off,,,,,0,0,8,,,,,7,,,70,0
47804,note_off,,,,,0,0,8,,,,,7,,,74,0
47804,note_off,,,,,188,0,7,,,,,6,,,46,0
47804,note_off,,,,,188,0,6,,,,,5,,,58,0
47808,note_on,,,,,4,0,1,,,,,0,,,79,80
47808,note_on,,,,,4,0,8,,,,,7,,,67,60
47808,note_off,,,,,96,0,3,,,,,2,,,80,0
47808,note_on,,,,,0,0,3,,,,,2,,,79,100
47808,note_on,,,,,0,0,8,,,,,7,,,70,60
47808,note_on,,,,,4,0,6,,,,,5,,,63,92
47808,note_on,,,,,0,0,4,,,,,3,,,75,92
47808,note_on,,,,,4,0,2,,,,,1,,,79,77
47808,note_on,,,,,0,0,8,,,,,7,,,75,60
47808,note_on,,,,,4,0,7,,,,,6,,,51,80
47808,note_on,,,,,4,0,9,,,,,8,,,63,60
47808,note_on,,,,,4,0,5,,,,,4,,,70,92
47808,note_off,,,,,192,0,4,,,,,3,,,74,0
47996,note_off,,,,,188,0,7,,,,,6,,,51,0
47996,note_off,,,,,188,0,5,,,,,4,,,70,0
47996,note_off,,,,,188,0,6,,,,,5,,,63,0
47996,note_off,,,,,188,0,9,,,,,8,,,63,0
48000,note_off,,,,,192,0,4,,,,,3,,,75,0
48000,note_on,,,,,0,0,4,,,,,3,,,70,92
48000,note_on,,,,,4,0,9,,,,,8,,,51,60
48000,note_on,,,,,4,0,5,,,,,4,,,75,92
48000,note_on,,,,,4,0,7,,,,,6,,,39,80
48000,note_on,,,,,4,0,6,,,,,5,,,51,92
48092,note_off,,,,,284,0,2,,,,,1,,,79,0
48092,note_off,,,,,284,0,1,,,,,0,,,79,0
48096,note_on,,,,,4,0,2,,,,,1,,,80,77
48096,note_on,,,,,4,0,1,,,,,0,,,80,80
48096,note_on,,,,,0,0,3,,,,,2,,,80,100
48096,note_off,,,,,288,0,3,,,,,2,,,79,0
48128,note_off,,,,,0,0,8,,,,,7,,,75,0
48128,note_off,,,,,0,0,8,,,,,7,,,70,0
48128,note_off,,,,,320,0,8,,,,,7,,,67,0
48188,note_off,,,,,188,0,5,,,,,4,,,75,0
48188,note_off,,,,,188,0,9,,,,,8,,,51,0
48188,note_off,,,,,92,0,2,,,,,1,,,80,0
48188,note_off,,,,,188,0,6,,,,,5,,,51,0
48188,note_off,,,,,92,0,1,,,,,0,,,80,0
48188,note_off,,,,,188,0,7,,,,,6,,,39,0
48192,note_on,,,,,0,0,8,,,,,7,,,75,60
48192,note_on,,,,,0,0,3,,,,,2,,,82,100
48192,note_off,,,,,96,0,3,,,,,2,,,80,0
48192,note_on,,,,,4,0,2,,,,,1,,,82,77
48192,note_off,,,,,192,0,4,,,,,3,,,70,0
48192,note_on,,,,,0,0,8,,,,,7,,,70,60
48192,note_on,,,,,4,0,5,,,,,4,,,70,92
48192,note_on,,,,,4,0,1,,,,,0,,,82,80
48192,note_on,,,,,4,0,7,,,,,6,,,43,80
48192,note_on,,,,,0,0,4,,,,,3,,,75,92
48192,note_on,,,,,4,0,6,,,,,5,,,55,92
48192,note_on,,,,,4,0,9,,,,,8,,,55,60
48192,note_on,,,,,64,0,8,,,,,7,,,67,60
48380,note_off,,,,,188,0,8,,,,,7,,,67,0
48380,note_off,,,,,0,0,8,,,,,7,,,70,0
48380,note_off,,,,,0,0,8,,,,,7,,,75,0
48380,note_off,,,,,188,0,6,,,,,5,,,55,0
48380,note_off,,,,,188,0,2,,,,,1,,,82,0
48380,note_off,,,,,188,0,9,,,,,8,,,55,0
48380,note_off,,,,,188,0,7,,,,,6,,,43,0
48380,note_off,,,,,188,0,1,,,,,0,,,82,0
48380,note_off,,,,,188,0,5,,,,,4,,,70,0
48384,note_off,,,,,192,0,4,,,,,3,,,75,0
48384,note_off,,,,,192,0,3,,,,,2,,,82,0
48384,note_on,,,,,0,0,3,,,,,2,,,77,100
48384,note_on,,,,,0,0,4,,,,,3,,,74,92
48384,note_on,,,,,4,0,8,,,,,7,,,65,60
48384,note_on,,,,,4,0,2,,,,,1,,,77,77
48384,note_on,,,,,0,0,8,,,,,7,,,70,60
48384,note_on,,,,,0,0,8,,,,,7,,,74,60
48384,note_on,,,,,4,0,1,,,,,0,,,77,80
48384,note_on,,,,,4,0,5,,,,,4,,,70,92
48384,note_on,,,,,4,0,7,,,,,6,,,46,80
48384,note_on,,,,,4,0,9,,,,,8,,,58,60
48384,note_on,,,,,4,0,6,,,,,5,,,58,92
48432,note_off,,,,,48,0,3,,,,,2,,,77,0
48432,note_on,,,,,0,0,1,,,,,0,,,79,80
48432,note_off,,,,,48,0,1,,,,,0,,,77,0
48432,note_on,,,,,0,0,3,,,,,2,,,79,100
48432,note_off,,,,,48,0,2,,,,,1,,,77,0
48432,note_on,,,,,0,0,2,,,,,1,,,79,77
48480,note_on,,,,,0,0,3,,,,,2,,,80,100
48480,note_off,,,,,48,0,3,,,,,2,,,79,0
48480,note_on,,,,,0,0,1,,,,,0,,,80,80
48480,note_off,,,,,48,0,1,,,,,0,,,79,0
48480,note_on,,,,,0,0,2,,,,,1,,,80,77
48480,note_off,,,,,48,0,2,,,,,1,,,79,0
48572,note_off,,,,,0,0,8,,,,,7,,,74,0
48572,note_off,,,,,92,0,1,,,,,0,,,80,0
48572,note_off,,,,,188,0,5,,,,,4,,,70,0
48572,note_off,,,,,0,0,8,,,,,7,,,70,0
48572,note_off,,,,,188,0,7,,,,,6,,,46,0
48572,note_off,,,,,188,0,6,,,,,5,,,58,0
48572,note_off,,,,,188,0,8,,,,,7,,,65,0
48572,note_off,,,,,188,0,9,,,,,8,,,58,0
48572,note_off,,,,,92,0,2,,,,,1,,,80,0
48576,note_on,,,,,4,0,6,,,,,5,,,51,92
48576,note_on,,,,,4,0,8,,,,,7,,,67,60
48576,note_on,,,,,0,0,8,,,,,7,,,70,60
48576,note_on,,,,,0,0,8,,,,,7,,,75,60
48576,note_on,,,,,4,0,1,,,,,0,,,79,80
48576,note_on,,,,,4,0,5,,,,,4,,,70,92
48576,note_off,,,,,96,0,3,,,,,2,,,80,0
48576,note_on,,,,,4,0,2,,,,,1,,,79,77
48576,note_on,,,,,4,0,7,,,,,6,,,39,80
48576,note_on,,,,,4,0,9,,,,,8,,,51,60
48576,note_on,,,,,0,0,3,,,,,2,,,79,100
48576,note_off,,,,,192,0,4,,,,,3,,,74,0
48576,note_on,,,,,0,0,4,,,,,3,,,75,92
48716,note_off,,,,,140,0,1,,,,,0,,,79,0
48716,note_off,,,,,140,0,2,,,,,1,,,79,0
48720,note_on,,,,,4,0,2,,,,,1,,,77,77
48720,note_on,,,,,4,0,1,,,,,0,,,77,80
48720,note_off,,,,,144,0,3,,,,,2,,,79,0
48720,note_on,,,,,0,0,3,,,,,2,,,77,100
48764,note_off,,,,,188,0,5,,,,,4,,,70,0
48764,note_off,,,,,188,0,7,,,,,6,,,39,0
48764,note_off,,,,,0,0,8,,,,,7,,,75,0
48764,note_off,,,,,0,0,8,,,,,7,,,70,0
48764,note_off,,,,,188,0,8,,,,,7,,,67,0
48764,note_off,,,,,188,0,9,,,,,8,,,51,0
48764,note_off,,,,,188,0,6,,,,,5,,,51,0
48764,note_off,,,,,44,0,2,,,,,1,,,77,0
48764,note_off,,,,,44,0,1,,,,,0,,,77,0
48768,note_on,,,,,4,0,9,,,,,8,,,39,60
48768,note_on,,,,,4,0,1,,,,,0,,,75,80
48768,note_on,,,,,0,0,8,,,,,7,,,70,60
48768,note_on,,,,,4,0,8,,,,,7,,,67,60
48768,note_on,,,,,0,0,3,,,,,2,,,75,100
48768,note_off,,,,,48,0,3,,,,,2,,,77,0
48768,note_on,,,,,4,0,2,,,,,1,,,75,77
48768,note_on,,,,,4,0,7,,,,,6,,,27,80
48768,note_on,,,,,0,0,4,,,,,3,,,70,92
48768,note_off,,,,,192,0,4,,,,,3,,,75,0
48768,note_on,,,,,4,0,6,,,,,5,,,39,92
48768,note_on,,,,,4,0,5,,,,,4,,,67,92
48956,note_off,,,,,188,0,5,,,,,4,,,67,0
48956,note_off,,,,,188,0,9,,,,,8,,,39,0
48956,note_off,,,,,188,0,7,,,,,6,,,27,0
48956,note_off,,,,,188,0,1,,,,,0,,,75,0
48956,note_off,,,,,188,0,2,,,,,1,,,75,0
48956,note_off,,,,,0,0,8,,,,,7,,,70,0
48956,note_off,,,,,188,0,6,,,,,5,,,39,0
48956,note_off,,,,,188,0,8,,,,,7,,,67,0
48960,note_off,,,,,192,0,3,,,,,2,,,75,0
48960,note_off,,,,,192,0,4,,,,,3,,,70,0
49152,note_on,,,,,196,0,9,,,,,8,,,43,60
49152,note_on,,,,,196,0,8,,,,,7,,,58,60
49152,note_on,,,,,0,0,8,,,,,7,,,63,60
49152,note_on,,,,,192,0,3,,,,,2,,,63,100
49152,note_on,,,,,196,0,6,,,,,5,,,43,92
49152,note_on,,,,,192,0,4,,,,,3,,,58,92
49152,note_on,,,,,196,0,1,,,,,0,,,63,80
49152,note_on,,,,,196,0,2,,,,,1,,,63,77
49152,note_on,,,,,196,0,5,,,,,4,,,63,92
49152,note_on,,,,,196,0,7,,,,,6,,,31,80
49292,note_off,,,,,140,0,1,,,,,0,,,63,0
49292,note_off,,,,,140,0,6,,,,,5,,,43,0
49292,note_off,,,,,140,0,9,,,,,8,,,43,0
49292,note_off,,,,,140,0,8,,,,,7,,,63,0
49292,note_off,,,,,140,0,7,,,,,6,,,31,0
49292,note_off,,,,,140,0,2,,,,,1,,,63,0
49296,note_on,,,,,4,0,2,,,,,1,,,65,77
49296,note_on,,,,,4,0,7,,,,,6,,,34,80
49296,note_on,,,,,0,0,3,,,,,2,,,65,100
49296,note_off,,,,,144,0,3,,,,,2,,,63,0
49296,note_on,,,,,4,0,6,,,,,5,,,46,92
49296,note_on,,,,,4,0,1,,,,,0,,,65,80
49296,note_on,,,,,4,0,9,,,,,8,,,46,60
49296,note_on,,,,,4,0,8,,,,,7,,,62,60
49340,note_off,,,,,188,0,5,,,,,4,,,63,0
49340,note_off,,,,,44,0,1,,,,,0,,,65,0
49340,note_off,,,,,44,0,9,,,,,8,,,46,0
49340,note_off,,,,,44,0,2,,,,,1,,,65,0
49340,note_off,,,,,0,0,8,,,,,7,,,62,0
49340,note_off,,,,,44,0,8,,,,,7,,,58,0
49340,note_off,,,,,44,0,7,,,,,6,,,34,0
49340,note_off,,,,,44,0,6,,,,,5,,,46,0
49344,note_on,,,,,0,0,4,,,,,3,,,58,92
49344,note_off,,,,,192,0,4,,,,,3,,,58,0
49344,note_on,,,,,4,0,9,,,,,8,,,51,60
49344,note_off,,,,,48,0,3,,,,,2,,,65,0
49344,note_on,,,,,4,0,2,,,,,1,,,67,77
49344,note_on,,,,,4,0,5,,,,,4,,,63,92
49344,note_on,,,,,4,0,8,,,,,7,,,55,60
49344,note_on,,,,,0,0,8,,,,,7,,,58,60
49344,note_on,,,,,0,0,8,,,,,7,,,63,60
49344,note_on,,,,,4,0,1,,,,,0,,,67,80
49344,note_on,,,,,4,0,6,,,,,5,,,51,92
49344,note_on,,,,,0,0,3,,,,,2,,,67,100
49344,note_on,,,,,4,0,7,,,,,6,,,39,80
49532,note_off,,,,,188,0,9,,,,,8,,,51,0
49532,note_off,,,,,188,0,6,,,,,5,,,51,0
49532,note_off,,,,,188,0,7,,,,,6,,,39,0
49532,note_off,,,,,188,0,5,,,,,4,,,63,0
49536,note_off,,,,,192,0,4,,,,,3,,,58,0
49536,note_on,,,,,4,0,6,,,,,5,,,39,92
49536,note_on,,,,,4,0,5,,,,,4,,,58,92
49536,note_on,,,,,4,0,7,,,,,6,,,27,80
49536,note_on,,,,,4,0,9,,,,,8,,,39,60
49536,note_on,,,,,0,0,4,,,,,3,,,63,92
49628,note_off,,,,,284,0,1,,,,,0,,,67,0
49628,note_off,,,,,284,0,2,,,,,1,,,67,0
49632,note_on,,,,,4,0,1,,,,,0,,,68,80
49632,note_on,,,,,4,0,2,,,,,1,,,68,77
49632,note_off,,,,,288,0,3,,,,,2,,,67,0
49632,note_on,,,,,0,0,3,,,,,2,,,68,100
49664,note_off,,,,,320,0,8,,,,,7,,,55,0
49664,note_off,,,,,0,0,8,,,,,7,,,58,0
49664,note_off,,,,,0,0,8,,,,,7,,,63,0
49724,note_off,,,,,188,0,6,,,,,5,,,39,0
49724,note_off,,,,,188,0,5,,,,,4,,,58,0
49724,note_off,,,,,188,0,7,,,,,6,,,27,0
49724,note_off,,,,,92,0,1,,,,,0,,,68,0
49724,note_off,,,,,188,0,9,,,,,8,,,39,0
49724,note_off,,,,,92,0,2,,,,,1,,,68,0
49728,note_on,,,,,4,0,1,,,,,0,,,70,80
49728,note_on,,,,,64,0,8,,,,,7,,,55,60
49728,note_off,,,,,192,0,4,,,,,3,,,63,0
49728,note_on,,,,,4,0,7,,,,,6,,,31,80
49728,note_on,,,,,0,0,8,,,,,7,,,58,60
49728,note_off,,,,,96,0,3,,,,,2,,,68,0
49728,note_on,,,,,0,0,4,,,,,3,,,63,92
49728,note_on,,,,,0,0,3,,,,,2,,,70,100
49728,note_on,,,,,0,0,8,,,,,7,,,63,60
49728,note_on,,,,,4,0,2,,,,,1,,,70,77
49728,note_on,,,,,4,0,9,,,,,8,,,43,60
49728,note_on,,,,,4,0,5,,,,,4,,,58,92
49728,note_on,,,,,4,0,6,,,,,5,,,43,92
49916,note_off,,,,,188,0,8,,,,,7,,,55,0
49916,note_off,,,,,0,0,8,,,,,7,,,58,0
49916,note_off,,,,,0,0,8,,,,,7,,,63,0
49916,note_off,,,,,188,0,1,,,,,0,,,70,0
49916,note_off,,,,,188,0,9,,,,,8,,,43,0
49916,note_off,,,,,188,0,5,,,,,4,,,58,0
49916,note_off,,,,,188,0,2,,,,,1,,,70,0
49916,note_off,,,,,188,0,6,,,,,5,,,43,0
49916,note_off,,,,,188,0,7,,,,,6,,,31,0
49920,note_on,,,,,0,0,4,,,,,3,,,62,92
49920,note_on,,,,,4,0,5,,,,,4,,,58,92
49920,note_on,,,,,0,0,8,,,,,7,,,58,60
49920,note_on,,,,,0,0,3,,,,,2,,,65,100
49920,note_off,,,,,192,0,3,,,,,2,,,70,0
49920,note_on,,,,,4,0,1,,,,,0,,,65,80
49920,note_on,,,,,4,0,8,,,,,7,,,53,60
49920,note_on,,,,,4,0,6,,,,,5,,,46,92
49920,note_on,,,,,4,0,7,,,,,6,,,34,80
49920,note_on,,,,,4,0,9,,,,,8,,,46,60
49920,note_on,,,,,0,0,8,,,,,7,,,62,60
49920,note_on,,,,,4,0,2,,,,,1,,,65,77
49920,note_off,,,,,192,0,4,,,,,3,,,63,0
49968,note_off,,,,,48,0,1,,,,,0,,,65,0
49968,note_on,,,,,0,0,2,,,,,1,,,67,77
49968,note_on,,,,,0,0,1,,,,,0,,,67,80
49968,note_off,,,,,48,0,2,,,,,1,,,65,0
49968,note_off,,,,,48,0,3,,,,,2,,,65,0
49968,note_off,,,,,48,0,4,,,,,3,,,62,0
49968,note_on,,,,,0,0,4,,,,,3,,,63,92
49968,note_on,,,,,0,0,3,,,,,2,,,67,100
50016,note_off,,,,,48,0,2,,,,,1,,,67,0
50016,note_on,,,,,0,0,2,,,,,1,,,68,77
50016,note_on,,,,,0,0,1,,,,,0,,,68,80
50016,note_off,,,,,48,0,1,,,,,0,,,67,0
50016,note_on,,,,,0,0,3,,,,,2,,,68,100
50016,note_off,,,,,48,0,3,,,,,2,,,67,0
50016,note_off,,,,,48,0,4,,,,,3,,,63,0
50016,note_on,,,,,0,0,4,,,,,3,,,65,92
50108,note_off,,,,,188,0,6,,,,,5,,,46,0
50108,note_off,,,,,188,0,9,,,,,8,,,46,0
50108,note_off,,,,,92,0,2,,,,,1,,,68,0
50108,note_off,,,,,92,0,1,,,,,0,,,68,0
50108,note_off,,,,,0,0,8,,,,,7,,,62,0
50108,note_off,,,,,188,0,7,,,,,6,,,34,0
50108,note_off,,,,,188,0,5,,,,,4,,,58,0
50108,note_off,,,,,0,0,8,,,,,7,,,58,0
50108,note_off,,,,,188,0,8,,,,,7,,,53,0
50112,note_on,,,,,4,0,9,,,,,8,,,51,60
50112,note_off,,,,,96,0,4,,,,,3,,,65,0
50112,note_on,,,,,4,0,8,,,,,7,,,55,60
50112,note_on,,,,,0,0,4,,,,,3,,,63,92
50112,note_on,,,,,0,0,8,,,,,7,,,58,60
50112,note_on,,,,,0,0,8,,,,,7,,,63,60
50112,note_on,,,,,0,0,3,,,,,2,,,67,100
50112,note_on,,,,,4,0,7,,,,,6,,,39,80
50112,note_on,,,,,4,0,1,,,,,0,,,67,80
50112,note_on,,,,,4,0,5,,,,,4,,,58,92
50112,note_on,,,,,4,0,6,,,,,5,,,51,92
50112,note_on,,,,,4,0,2,,,,,1,,,67,77
50112,note_off,,,,,96,0,3,,,,,2,,,68,0
50300,note_off,,,,,188,0,1,,,,,0,,,67,0
50300,note_off,,,,,188,0,9,,,,,8,,,51,0
50300,note_off,,,,,188,0,2,,,,,1,,,67,0
50300,note_off,,,,,0,0,8,,,,,7,,,58,0
50300,note_off,,,,,188,0,6,,,,,5,,,51,0
50300,note_off,,,,,188,0,5,,,,,4,,,58,0
50300,note_off,,,,,0,0,8,,,,,7,,,63,0
50300,note_off,,,,,188,0,7,,,,,6,,,39,0
50300,note_off,,,,,188,0,8,,,,,7,,,55,0
50304,note_on,,,,,4,0,7,,,,,6,,,31,80
50304,note_on,,,,,4,0,6,,,,,5,,,43,92
50304,note_off,,,,,192,0,3,,,,,2,,,67,0
50304,note_on,,,,,0,0,3,,,,,2,,,70,100
50304,note_on,,,,,4,0,5,,,,,4,,,63,92
50304,note_on,,,,,4,0,1,,,,,0,,,70,80
50304,note_on,,,,,0,0,4,,,,,3,,,58,92
50304,note_on,,,,,4,0,8,,,,,7,,,55,60
50304,note_on,,,,,0,0,8,,,,,7,,,58,60
50304,note_on,,,,,0,0,8,,,,,7,,,63,60
50304,note_on,,,,,4,0,2,,,,,1,,,70,77
50304,note_on,,,,,4,0,9,,,,,8,,,43,60
50304,note_off,,,,,192,0,4,,,,,3,,,63,0
50444,note_off,,,,,140,0,1,,,,,0,,,70,0
50444,note_off,,,,,140,0,2,,,,,1,,,70,0
50448,note_off,,,,,144,0,3,,,,,2,,,70,0
50448,note_on,,,,,0,0,3,,,,,2,,,63,100
50448,note_on,,,,,4,0,1,,,,,0,,,63,80
50448,note_on,,,,,4,0,2,,,,,1,,,63,77
50492,note_off,,,,,188,0,9,,,,,8,,,43,0
50492,note_off,,,,,188,0,6,,,,,5,,,43,0
50492,note_off,,,,,188,0,8,,,,,7,,,55,0
50492,note_off,,,,,44,0,2,,,,,1,,,63,0
50492,note_off,,,,,188,0,5,,,,,4,,,63,0
50492,note_off,,,,,0,0,8,,,,,7,,,63,0
50492,note_off,,,,,0,0,8,,,,,7,,,58,0
50492,note_off,,,,,188,0,7,,,,,6,,,31,0
50492,note_off,,,,,44,0,1,,,,,0,,,63,0
50496,note_on,,,,,0,0,8,,,,,7,,,62,60
50496,note_on,,,,,4,0,8,,,,,7,,,56,60
50496,note_on,,,,,4,0,5,,,,,4,,,53,92
50496,note_on,,,,,4,0,2,,,,,1,,,62,77
50496,note_on,,,,,0,0,3,,,,,2,,,62,100
50496,note_off,,,,,48,0,3,,,,,2,,,63,0
50496,note_on,,,,,4,0,9,,,,,8,,,41,60
50496,note_on,,,,,4,0,1,,,,,0,,,62,80
50496,note_on,,,,,4,0,7,,,,,6,,,29,80
50496,note_off,,,,,192,0,4,,,,,3,,,58,0
50496,note_on,,,,,0,0,4,,,,,3,,,56,92
50496,note_on,,,,,4,0,6,,,,,5,,,41,92
50588,note_off,,,,,92,0,2,,,,,1,,,62,0
50588,note_off,,,,,92,0,1,,,,,0,,,62,0
50592,note_on,,,,,0,0,3,,,,,2,,,63,100
50592,note_on,,,,,4,0,2,,,,,1,,,63,77
50592,note_on,,,,,4,0,1,,,,,0,,,63,80
50592,note_off,,,,,96,0,3,,,,,2,,,62,0
50684,note_off,,,,,188,0,5,,,,,4,,,53,0
50684,note_off,,,,,188,0,9,,,,,8,,,41,0
50684,note_off,,,,,92,0,2,,,,,1,,,63,0
50684,note_off,,,,,188,0,8,,,,,7,,,56,0
50684,note_off,,,,,0,0,8,,,,,7,,,62,0
50684,note_off,,,,,92,0,1,,,,,0,,,63,0
50684,note_off,,,,,188,0,7,,,,,6,,,29,0
50684,note_off,,,,,188,0,6,,,,,5,,,41,0
50688,note_on,,,,,4,0,1,,,,,0,,,65,80
50688,note_on,,,,,0,0,8,,,,,7,,,63,60
50688,note_on,,,,,0,0,8,,,,,7,,,58,60
50688,note_on,,,,,0,0,3,,,,,2,,,65,100
50688,note_on,,,,,4,0,8,,,,,7,,,55,60
50688,note_on,,,,,0,0,4,,,,,3,,,63,92
50688,note_on,,,,,4,0,2,,,,,1,,,65,77
50688,note_on,,,,,4,0,5,,,,,4,,,55,92
50688,note_off,,,,,96,0,3,,,,,2,,,63,0
50688,note_on,,,,,4,0,9,,,,,8,,,39,60
50688,note_off,,,,,192,0,4,,,,,3,,,56,0
50688,note_on,,,,,4,0,7,,,,,6,,,27,80
50688,note_on,,,,,4,0,6,,,,,5,,,39,92
50712,note_off,,,,,24,0,1,,,,,0,,,65,0
50712,note_on,,,,,0,0,3,,,,,2,,,63,100
50712,note_on,,,,,0,0,1,,,,,0,,,63,80
50712,note_off,,,,,24,0,2,,,,,1,,,65,0
50712,note_on,,,,,0,0,2,,,,,1,,,63,77
50712,note_off,,,,,24,0,3,,,,,2,,,65,0
50736,note_on,,,,,0,0,1,,,,,0,,,65,80
50736,note_on,,,,,0,0,3,,,,,2,,,65,100
50736,note_off,,,,,24,0,3,,,,,2,,,63,0
50736,note_on,,,,,0,0,2,,,,,1,,,65,77
50736,note_off,,,,,24,0,2,,,,,1,,,63,0
50736,note_off,,,,,24,0,1,,,,,0,,,63,0
50760,note_off,,,,,24,0,1,,,,,0,,,65,0
50760,note_on,,,,,0,0,1,,,,,0,,,63,80
50760,note_on,,,,,0,0,3,,,,,2,,,63,100
50760,note_off,,,,,24,0,3,,,,,2,,,65,0
50760,note_off,,,,,24,0,2,,,,,1,,,65,0
50760,note_on,,,,,0,0,2,,,,,1,,,63,77
50780,note_off,,,,,92,0,5,,,,,4,,,55,0
50784,note_off,,,,,24,0,1,,,,,0,,,63,0
50784,note_on,,,,,0,0,1,,,,,0,,,65,80
50784,note_on,,,,,0,0,2,,,,,1,,,65,77
50784,note_off,,,,,24,0,2,,,,,1,,,63,0
50784,note_on,,,,,4,0,5,,,,,4,,,58,92
50784,note_off,,,,,24,0,3,,,,,2,,,63,0
50784,note_on,,,,,0,0,3,,,,,2,,,65,100
50808,note_off,,,,,24,0,3,,,,,2,,,65,0
50808,note_off,,,,,24,0,1,,,,,0,,,65,0
50808,note_on,,,,,0,0,2,,,,,1,,,63,77
50808,note_off,,,,,24,0,2,,,,,1,,,65,0
50808,note_on,,,,,0,0,1,,,,,0,,,63,80
50808,note_on,,,,,0,0,3,,,,,2,,,63,100
50832,note_on,,,,,0,0,1,,,,,0,,,62,80
50832,note_on,,,,,0,0,3,,,,,2,,,62,100
50832,note_off,,,,,24,0,3,,,,,2,,,63,0
50832,note_off,,,,,24,0,2,,,,,1,,,63,0
50832,note_off,,,,,24,0,1,,,,,0,,,63,0
50832,note_on,,,,,0,0,2,,,,,1,,,62,77
50856,note_on,,,,,0,0,3,,,,,2,,,63,100
50856,note_off,,,,,24,0,3,,,,,2,,,62,0
50856,note_on,,,,,0,0,1,,,,,0,,,63,80
50856,note_off,,,,,24,0,1,,,,,0,,,62,0
50856,note_on,,,,,0,0,2,,,,,1,,,63,77
50856,note_off,,,,,24,0,2,,,,,1,,,62,0
50876,note_off,,,,,188,0,6,,,,,5,,,39,0
50876,note_off,,,,,20,0,1,,,,,0,,,63,0
50876,note_off,,,,,0,0,8,,,,,7,,,63,0
50876,note_off,,,,,0,0,8,,,,,7,,,58,0
50876,note_off,,,,,20,0,2,,,,,1,,,63,0
50876,note_off,,,,,188,0,8,,,,,7,,,55,0
50876,note_off,,,,,188,0,9,,,,,8,,,39,0
50876,note_off,,,,,92,0,5,,,,,4,,,58,0
50876,note_off,,,,,188,0,7,,,,,6,,,27,0
50880,note_on,,,,,0,0,4,,,,,3,,,62,92
50880,note_on,,,,,4,0,7,,,,,6,,,34,80
50880,note_on,,,,,4,0,5,,,,,4,,,58,92
50880,note_on,,,,,4,0,8,,,,,7,,,58,60
50880,note_on,,,,,4,0,6,,,,,5,,,46,92
50880,note_on,,,,,0,0,8,,,,,7,,,62,60
50880,note_on,,,,,0,0,3,,,,,2,,,65,100
50880,note_off,,,,,24,0,3,,,,,2,,,63,0
50880,note_on,,,,,0,0,8,,,,,7,,,65,60
50880,note_on,,,,,4,0,1,,,,,0,,,65,80
50880,note_on,,,,,4,0,9,,,,,8,,,46,60
50880,note_on,,,,,4,0,2,,,,,1,,,65,77
50880,note_off,,,,,192,0,4,,,,,3,,,63,0
51068,note_off,,,,,188,0,1,,,,,0,,,65,0
51068,note_off,,,,,188,0,6,,,,,5,,,46,0
51068,note_off,,,,,0,0,8,,,,,7,,,65,0
51068,note_off,,,,,0,0,8,,,,,7,,,62,0
51068,note_off,,,,,188,0,8,,,,,7,,,58,0
51068,note_off,,,,,188,0,7,,,,,6,,,34,0
51068,note_off,,,,,188,0,5,,,,,4,,,58,0
51068,note_off,,,,,188,0,9,,,,,8,,,46,0
51068,note_off,,,,,188,0,2,,,,,1,,,65,0
51072,note_on,,,,,4,0,5,,,,,4,,,58,92
51072,note_on,,,,,4,0,7,,,,,6,,,31,80
51072,note_off,,,,,192,0,4,,,,,3,,,62,0
51072,note_on,,,,,4,0,9,,,,,8,,,43,60
51072,note_on,,,,,0,0,8,,,,,7,,,63,60
51072,note_on,,,,,4,0,8,,,,,7,,,58,60
51072,note_on,,,,,4,0,2,,,,,1,,,70,77
51072,note_on,,,,,0,0,3,,,,,2,,,70,100
51072,note_on,,,,,4,0,1,,,,,0,,,70,80
51072,note_on,,,,,4,0,6,,,,,5,,,43,92
51072,note_on,,,,,0,0,4,,,,,3,,,58,92
51072,note_off,,,,,192,0,3,,,,,2,,,65,0
51212,note_off,,,,,140,0,2,,,,,1,,,70,0
51212,note_off,,,,,140,0,1,,,,,0,,,70,0
51216,note_on,,,,,4,0,1,,,,,0,,,63,80
51216,note_on,,,,,4,0,2,,,,,1,,,63,77
51216,note_off,,,,,144,0,3,,,,,2,,,70,0
51216,note_on,,,,,0,0,3,,,,,2,,,63,100
51260,note_off,,,,,188,0,5,,,,,4,,,58,0
51260,note_off,,,,,188,0,8,,,,,7,,,58,0
51260,note_off,,,,,188,0,6,,,,,5,,,43,0
51260,note_off,,,,,44,0,2,,,,,1,,,63,0
51260,note_off,,,,,44,0,1,,,,,0,,,63,0
51260,note_off,,,,,188,0,7,,,,,6,,,31,0
51260,note_off,,,,,188,0,9,,,,,8,,,43,0
51260,note_off,,,,,0,0,8,,,,,7,,,63,0
51264,note_on,,,,,0,0,3,,,,,2,,,62,100
51264,note_on,,,,,0,0,4,,,,,3,,,56,92
51264,note_on,,,,,4,0,7,,,,,6,,,29,80
51264,note_on,,,,,4,0,8,,,,,7,,,56,60
51264,note_on,,,,,4,0,9,,,,,8,,,41,60
51264,note_off,,,,,192,0,4,,,,,3,,,58,0
51264,note_on,,,,,4,0,5,,,,,4,,,53,92
51264,note_on,,,,,0,0,8,,,,,7,,,62,60
51264,note_on,,,,,4,0,6,,,,,5,,,41,92
51264,note_on,,,,,4,0,1,,,,,0,,,62,80
51264,note_on,,,,,4,0,2,,,,,1,,,62,77
51264,note_off,,,,,48,0,3,,,,,2,,,63,0
51356,note_off,,,,,92,0,1,,,,,0,,,62,0
51356,note_off,,,,,92,0,2,,,,,1,,,62,0
51360,note_on,,,,,4,0,1,,,,,0,,,63,80
51360,note_off,,,,,96,0,3,,,,,2,,,62,0
51360,note_on,,,,,0,0,3,,,,,2,,,63,100
51360,note_on,,,,,4,0,2,,,,,1,,,63,77
51452,note_off,,,,,188,0,6,,,,,5,,,41,0
51452,note_off,,,,,92,0,1,,,,,0,,,63,0
51452,note_off,,,,,188,0,5,,,,,4,,,53,0
51452,note_off,,,,,92,0,2,,,,,1,,,63,0
51452,note_off,,,,,188,0,7,,,,,6,,,29,0
51452,note_off,,,,,188,0,9,,,,,8,,,41,0
51452,note_off,,,,,0,0,8,,,,,7,,,62,0
51452,note_off,,,,,188,0,8,,,,,7,,,56,0
51456,note_on,,,,,4,0,8,,,,,7,,,55,60
51456,note_off,,,,,192,0,4,,,,,3,,,56,0
51456,note_on,,,,,0,0,4,,,,,3,,,63,92
51456,note_off,,,,,96,0,3,,,,,2,,,63,0
51456,note_on,,,,,0,0,3,,,,,2,,,65,100
51456,note_on,,,,,4,0,9,,,,,8,,,39,60
51456,note_on,,,,,0,0,8,,,,,7,,,58,60
51456,note_on,,,,,0,0,8,,,,,7,,,63,60
51456,note_on,,,,,4,0,5,,,,,4,,,55,92
51456,note_on,,,,,4,0,7,,,,,6,,,27,80
51456,note_on,,,,,4,0,2,,,,,1,,,65,77
51456,note_on,,,,,4,0,6,,,,,5,,,39,92
51456,note_on,,,,,4,0,1,,,,,0,,,65,80
51480,note_off,,,,,24,0,2,,,,,1,,,65,0
51480,note_off,,,,,24,0,3,,,,,2,,,65,0
51480,note_on,,,,,0,0,1,,,,,0,,,63,80
51480,note_off,,,,,24,0,1,,,,,0,,,65,0
51480,note_on,,,,,0,0,3,,,,,2,,,63,100
51480,note_on,,,,,0,0,2,,,,,1,,,63,77
51504,note_on,,,,,0,0,1,,,,,0,,,65,80
51504,note_off,,,,,24,0,1,,,,,0,,,63,0
51504,note_off,,,,,24,0,2,,,,,1,,,63,0
51504,note_on,,,,,0,0,2,,,,,1,,,65,77
51504,note_on,,,,,0,0,3,,,,,2,,,65,100
51504,note_off,,,,,24,0,3,,,,,2,,,63,0
51528,note_on,,,,,0,0,2,,,,,1,,,63,77
51528,note_off,,,,,24,0,3,,,,,2,,,65,0
51528,note_on,,,,,0,0,3,,,,,2,,,63,100
51528,note_off,,,,,24,0,2,,,,,1,,,65,0
51528,note_off,,,,,24,0,1,,,,,0,,,65,0
51528,note_on,,,,,0,0,1,,,,,0,,,63,80
51548,note_off,,,,,92,0,5,,,,,4,,,55,0
51552,note_on,,,,,4,0,5,,,,,4,,,58,92
51552,note_off,,,,,24,0,2,,,,,1,,,63,0
51552,note_on,,,,,0,0,3,,,,,2,,,65,100
51552,note_on,,,,,0,0,1,,,,,0,,,65,80
51552,note_off,,,,,24,0,3,,,,,2,,,63,0
51552,note_off,,,,,24,0,1,,,,,0,,,63,0
51552,note_on,,,,,0,0,2,,,,,1,,,65,77
51576,note_off,,,,,24,0,3,,,,,2,,,65,0
51576,note_on,,,,,0,0,3,,,,,2,,,63,100
51576,note_on,,,,,0,0,1,,,,,0,,,63,80
51576,note_off,,,,,24,0,1,,,,,0,,,65,0
51576,note_on,,,,,0,0,2,,,,,1,,,63,77
51576,note_off,,,,,24,0,2,,,,,1,,,65,0
51600,note_off,,,,,24,0,2,,,,,1,,,63,0
51600,note_on,,,,,0,0,2,,,,,1,,,62,77
51600,note_off,,,,,24,0,3,,,,,2,,,63,0
51600,note_on,,,,,0,0,3,,,,,2,,,62,100
51600,note_on,,,,,0,0,1,,,,,0,,,62,80
51600,note_off,,,,,24,0,1,,,,,0,,,63,0
51624,note_off,,,,,24,0,2,,,,,1,,,62,0
51624,note_on,,,,,0,0,2,,,,,1,,,63,77
51624,note_on,,,,,0,0,1,,,,,0,,,63,80
51624,note_off,,,,,24,0,3,,,,,2,,,62,0
51624,note_off,,,,,24,0,1,,,,,0,,,62,0
51624,note_on,,,,,0,0,3,,,,,2,,,63,100
51644,note_off,,,,,0,0,8,,,,,7,,,63,0
51644,note_off,,,,,188,0,6,,,,,5,,,39,0
51644,note_off,,,,,0,0,8,,,,,7,,,58,0
51644,note_off,,,,,188,0,8,,,,,7,,,55,0
51644,note_off,,,,,92,0,5,,,,,4,,,58,0
51644,note_off,,,,,188,0,9,,,,,8,,,39,0
51644,note_off,,,,,188,0,7,,,,,6,,,27,0
51644,note_off,,,,,20,0,2,,,,,1,,,63,0
51644,note_off,,,,,20,0,1,,,,,0,,,63,0
51648,note_on,,,,,0,0,8,,,,,7,,,62,60
51648,note_on,,,,,4,0,2,,,,,1,,,65,77
51648,note_on,,,,,0,0,4,,,,,3,,,62,127
51648,note_off,,,,,192,0,4,,,,,3,,,63,0
51648,note_on,,,,,0,0,3,,,,,2,,,65,100
51648,note_on,,,,,4,0,8,,,,,7,,,53,60
51648,note_on,,,,,0,0,8,,,,,7,,,58,60
51648,note_off,,,,,24,0,3,,,,,2,,,63,0
51648,note_on,,,,,4,0,9,,,,,8,,,46,60
51648,note_on,,,,,4,0,5,,,,,4,,,58,92
51648,note_on,,,,,4,0,1,,,,,0,,,65,80
51648,note_on,,,,,4,0,6,,,,,5,,,46,92
51648,note_on,,,,,4,0,7,,,,,6,,,34,80
51836,note_off,,,,,188,0,9,,,,,8,,,46,0
51836,note_off,,,,,188,0,6,,,,,5,,,46,0
51836,note_off,,,,,188,0,7,,,,,6,,,34,0
51840,note_on,,,,,4,0,6,,,,,5,,,44,92
51840,note_on,,,,,4,0,9,,,,,8,,,44,60
51840,note_on,,,,,4,0,7,,,,,6,,,32,80
51932,note_off,,,,,284,0,1,,,,,0,,,65,0
51932,note_off,,,,,284,0,2,,,,,1,,,65,0
51936,note_on,,,,,4,0,1,,,,,0,,,72,80
51936,note_on,,,,,4,0,2,,,,,1,,,72,77
51936,note_on,,,,,0,0,3,,,,,2,,,72,100
51936,note_off,,,,,288,0,3,,,,,2,,,65,0
51968,note_off,,,,,320,0,8,,,,,7,,,53,0
51968,note_off,,,,,0,0,8,,,,,7,,,58,0
51968,note_off,,,,,0,0,8,,,,,7,,,62,0
51968,note_off,,,,,320,0,5,,,,,4,,,58,0
52028,note_off,,,,,188,0,9,,,,,8,,,44,0
52028,note_off,,,,,188,0,7,,,,,6,,,32,0
52028,note_off,,,,,92,0,2,,,,,1,,,72,0
52028,note_off,,,,,188,0,6,,,,,5,,,44,0
52028,note_off,,,,,92,0,1,,,,,0,,,72,0
52032,note_on,,,,,64,0,5,,,,,4,,,58,92
52032,note_on,,,,,4,0,9,,,,,8,,,43,60
52032,note_on,,,,,0,0,4,,,,,3,,,63,127
52032,note_on,,,,,0,0,3,,,,,2,,,70,100
52032,note_off,,,,,384,0,4,,,,,3,,,62,0
52032,note_on,,,,,4,0,1,,,,,0,,,70,80
52032,note_on,,,,,4,0,7,,,,,6,,,31,80
52032,note_off,,,,,96,0,3,,,,,2,,,72,0
52032,note_on,,,,,4,0,6,,,,,5,,,43,92
52032,note_on,,,,,0,0,8,,,,,7,,,58,60
52032,note_on,,,,,0,0,8,,,,,7,,,63,60
52032,note_on,,,,,4,0,2,,,,,1,,,70,77
52032,note_on,,,,,64,0,8,,,,,7,,,55,60
52124,note_off,,,,,92,0,2,,,,,1,,,70,0
52124,note_off,,,,,92,0,1,,,,,0,,,70,0
52128,note_on,,,,,4,0,2,,,,,1,,,63,77
52128,note_on,,,,,4,0,1,,,,,0,,,63,80
52128,note_on,,,,,0,0,3,,,,,2,,,63,100
52128,note_off,,,,,96,0,3,,,,,2,,,70,0
52220,note_off,,,,,188,0,7,,,,,6,,,31,0
52220,note_off,,,,,188,0,5,,,,,4,,,58,0
52220,note_off,,,,,92,0,1,,,,,0,,,63,0
52220,note_off,,,,,92,0,2,,,,,1,,,63,0
52220,note_off,,,,,188,0,9,,,,,8,,,43,0
52220,note_off,,,,,0,0,8,,,,,7,,,58,0
52220,note_off,,,,,188,0,6,,,,,5,,,43,0
52220,note_off,,,,,188,0,8,,,,,7,,,55,0
52224,note_on,,,,,4,0,2,,,,,1,,,62,77
52224,note_on,,,,,4,0,1,,,,,0,,,62,80
52224,note_on,,,,,0,0,3,,,,,2,,,62,100
52224,note_off,,,,,96,0,3,,,,,2,,,63,0
52224,note_on,,,,,4,0,8,,,,,7,,,53,60
52224,note_on,,,,,0,0,8,,,,,7,,,60,60
52224,note_on,,,,,4,0,7,,,,,6,,,32,80
52224,note_on,,,,,4,0,9,,,,,8,,,44,60
52224,note_on,,,,,4,0,6,,,,,5,,,44,92
52224,note_on,,,,,4,0,5,,,,,4,,,53,92
52316,note_off,,,,,92,0,1,,,,,0,,,62,0
52316,note_off,,,,,92,0,2,,,,,1,,,62,0
52320,note_off,,,,,96,0,3,,,,,2,,,62,0
52320,note_on,,,,,0,0,3,,,,,2,,,60,100
52320,note_on,,,,,4,0,2,,,,,1,,,60,77
52320,note_on,,,,,4,0,1,,,,,0,,,60,80
52352,note_off,,,,,128,0,8,,,,,7,,,63,0
52412,note_off,,,,,188,0,6,,,,,5,,,44,0
52412,note_off,,,,,92,0,2,,,,,1,,,60,0
52412,note_off,,,,,60,0,8,,,,,7,,,53,0
52412,note_off,,,,,188,0,5,,,,,4,,,53,0
52412,note_off,,,,,92,0,1,,,,,0,,,60,0
52412,note_off,,,,,0,0,8,,,,,7,,,60,0
52412,note_off,,,,,188,0,7,,,,,6,,,32,0
52412,note_off,,,,,188,0,9,,,,,8,,,44,0
52416,note_on,,,,,4,0,6,,,,,5,,,46,92
52416,note_off,,,,,384,0,4,,,,,3,,,63,0
52416,note_on,,,,,4,0,2,,,,,1,,,58,77
52416,note_on,,,,,4,0,7,,,,,6,,,34,80
52416,note_on,,,,,0,0,8,,,,,7,,,58,60
52416,note_on,,,,,0,0,8,,,,,7,,,62,60
52416,note_on,,,,,0,0,3,,,,,2,,,58,100
52416,note_off,,,,,96,0,3,,,,,2,,,60,0
52416,note_on,,,,,0,0,4,,,,,3,,,62,127
52416,note_on,,,,,4,0,5,,,,,4,,,53,92
52416,note_on,,,,,4,0,9,,,,,8,,,46,60
52416,note_on,,,,,4,0,8,,,,,7,,,53,60
52416,note_on,,,,,4,0,1,,,,,0,,,58,80
52604,note_off,,,,,188,0,9,,,,,8,,,46,0
52604,note_off,,,,,188,0,7,,,,,6,,,34,0
52604,note_off,,,,,188,0,6,,,,,5,,,46,0
52608,note_on,,,,,4,0,6,,,,,5,,,44,92
52608,note_on,,,,,4,0,9,,,,,8,,,44,60
52608,note_on,,,,,4,0,7,,,,,6,,,32,80
52700,note_off,,,,,284,0,1,,,,,0,,,58,0
52700,note_off,,,,,284,0,2,,,,,1,,,58,0
52704,note_on,,,,,4,0,2,,,,,1,,,72,77
52704,note_on,,,,,4,0,1,,,,,0,,,72,80
52704,note_on,,,,,0,0,3,,,,,2,,,72,100
52704,note_off,,,,,288,0,3,,,,,2,,,58,0
52736,note_off,,,,,320,0,5,,,,,4,,,53,0
52736,note_off,,,,,0,0,8,,,,,7,,,58,0
52736,note_off,,,,,0,0,8,,,,,7,,,62,0
52736,note_off,,,,,320,0,8,,,,,7,,,53,0
52796,note_off,,,,,92,0,1,,,,,0,,,72,0
52796,note_off,,,,,92,0,2,,,,,1,,,72,0
52796,note_off,,,,,188,0,7,,,,,6,,,32,0
52796,note_off,,,,,188,0,6,,,,,5,,,44,0
52796,note_off,,,,,188,0,9,,,,,8,,,44,0
52800,note_on,,,,,4,0,7,,,,,6,,,31,80
52800,note_off,,,,,96,0,3,,,,,2,,,72,0
52800,note_on,,,,,0,0,3,,,,,2,,,70,100
52800,note_on,,,,,0,0,8,,,,,7,,,58,60
52800,note_on,,,,,64,0,8,,,,,7,,,55,60
52800,note_on,,,,,64,0,5,,,,,4,,,55,92
52800,note_off,,,,,384,0,4,,,,,3,,,62,0
52800,note_on,,,,,0,0,4,,,,,3,,,63,127
52800,note_on,,,,,4,0,1,,,,,0,,,70,80
52800,note_on,,,,,4,0,6,,,,,5,,,43,92
52800,note_on,,,,,0,0,8,,,,,7,,,63,60
52800,note_on,,,,,4,0,9,,,,,8,,,43,60
52800,note_on,,,,,4,0,2,,,,,1,,,70,77
52892,note_off,,,,,92,0,1,,,,,0,,,70,0
52892,note_off,,,,,92,0,2,,,,,1,,,70,0
52896,note_on,,,,,4,0,2,,,,,1,,,63,77
52896,note_on,,,,,4,0,1,,,,,0,,,63,80
52896,note_on,,,,,0,0,3,,,,,2,,,63,100
52896,note_off,,,,,96,0,3,,,,,2,,,70,0
52988,note_off,,,,,92,0,1,,,,,0,,,63,0
52988,note_off,,,,,92,0,2,,,,,1,,,63,0
52988,note_off,,,,,188,0,6,,,,,5,,,43,0
52988,note_off,,,,,188,0,9,,,,,8,,,43,0
52988,note_off,,,,,188,0,7,,,,,6,,,31,0
52988,note_off,,,,,188,0,8,,,,,7,,,58,0
52992,note_on,,,,,4,0,1,,,,,0,,,62,80
52992,note_on,,,,,0,0,3,,,,,2,,,62,100
52992,note_off,,,,,96,0,3,,,,,2,,,63,0
52992,note_on,,,,,4,0,9,,,,,8,,,44,60
52992,note_on,,,,,4,0,8,,,,,7,,,60,60
52992,note_on,,,,,4,0,7,,,,,6,,,32,80
52992,note_on,,,,,4,0,6,,,,,5,,,44,92
52992,note_on,,,,,4,0,2,,,,,1,,,62,77
53084,note_off,,,,,92,0,1,,,,,0,,,62,0
53084,note_off,,,,,92,0,2,,,,,1,,,62,0
53088,note_on,,,,,4,0,2,,,,,1,,,60,77
53088,note_off,,,,,96,0,3,,,,,2,,,62,0
53088,note_on,,,,,0,0,3,,,,,2,,,60,100
53088,note_on,,,,,4,0,1,,,,,0,,,60,80
53120,note_off,,,,,320,0,5,,,,,4,,,55,0
53180,note_off,,,,,188,0,8,,,,,7,,,55,0
53180,note_off,,,,,188,0,9,,,,,8,,,44,0
53180,note_off,,,,,188,0,7,,,,,6,,,32,0
53180,note_off,,,,,92,0,2,,,,,1,,,60,0
53180,note_off,,,,,188,0,6,,,,,5,,,44,0
53180,note_off,,,,,0,0,8,,,,,7,,,63,0
53180,note_off,,,,,92,0,1,,,,,0,,,60,0
53180,note_off,,,,,0,0,8,,,,,7,,,60,0
53184,note_off,,,,,384,0,4,,,,,3,,,63,0
53184,note_on,,,,,64,0,5,,,,,4,,,53,92
53184,note_on,,,,,4,0,1,,,,,0,,,58,80
53184,note_on,,,,,0,0,4,,,,,3,,,62,92
53184,note_on,,,,,0,0,3,,,,,2,,,58,100
53184,note_off,,,,,96,0,3,,,,,2,,,60,0
53184,note_on,,,,,4,0,9,,,,,8,,,46,60
53184,note_on,,,,,4,0,8,,,,,7,,,53,60
53184,note_on,,,,,4,0,2,,,,,1,,,58,77
53184,note_on,,,,,4,0,6,,,,,5,,,46,92
53184,note_on,,,,,4,0,7,,,,,6,,,34,80
53184,note_on,,,,,0,0,8,,,,,7,,,62,60
53184,note_on,,,,,0,0,8,,,,,7,,,58,60
53372,note_off,,,,,188,0,5,,,,,4,,,53,0
53372,note_off,,,,,188,0,7,,,,,6,,,34,0
53372,note_off,,,,,188,0,9,,,,,8,,,46,0
53372,note_off,,,,,188,0,6,,,,,5,,,46,0
53372,note_off,,,,,188,0,8,,,,,7,,,53,0
53372,note_off,,,,,0,0,8,,,,,7,,,58,0
53372,note_off,,,,,0,0,8,,,,,7,,,62,0
53376,note_on,,,,,4,0,5,,,,,4,,,53,92
53376,note_off,,,,,192,0,4,,,,,3,,,62,0
53376,note_on,,,,,4,0,7,,,,,6,,,34,80
53376,note_on,,,,,4,0,9,,,,,8,,,46,60
53376,note_on,,,,,4,0,8,,,,,7,,,53,60
53376,note_on,,,,,0,0,8,,,,,7,,,58,60
53376,note_on,,,,,0,0,8,,,,,7,,,62,60
53376,note_on,,,,,0,0,4,,,,,3,,,62,92
53376,note_on,,,,,4,0,6,,,,,5,,,46,92
53468,note_off,,,,,284,0,1,,,,,0,,,58,0
53468,note_off,,,,,284,0,2,,,,,1,,,58,0
53472,note_off,,,,,288,0,3,,,,,2,,,58,0
53472,note_on,,,,,0,0,3,,,,,2,,,82,100
53472,note_on,,,,,4,0,2,,,,,1,,,82,77
53472,note_on,,,,,4,0,1,,,,,0,,,82,80
53564,note_off,,,,,188,0,6,,,,,5,,,46,0
53564,note_off,,,,,188,0,8,,,,,7,,,53,0
53564,note_off,,,,,0,0,8,,,,,7,,,58,0
53564,note_off,,,,,188,0,5,,,,,4,,,53,0
53564,note_off,,,,,188,0,7,,,,,6,,,34,0
53564,note_off,,,,,0,0,8,,,,,7,,,62,0
53564,note_off,,,,,92,0,2,,,,,1,,,82,0
53564,note_off,,,,,92,0,1,,,,,0,,,82,0
53564,note_off,,,,,188,0,9,,,,,8,,,46,0
53568,note_on,,,,,4,0,8,,,,,7,,,53,60
53568,note_on,,,,,0,0,4,,,,,3,,,62,92
53568,note_off,,,,,192,0,4,,,,,3,,,62,0
53568,note_on,,,,,0,0,8,,,,,7,,,58,60
53568,note_on,,,,,4,0,7,,,,,6,,,34,80
53568,note_on,,,,,4,0,5,,,,,4,,,53,92
53568,note_on,,,,,4,0,6,,,,,5,,,46,92
53568,note_on,,,,,4,0,9,,,,,8,,,46,60
53568,note_on,,,,,0,0,3,,,,,2,,,77,100
53568,note_on,,,,,4,0,1,,,,,0,,,77,80
53568,note_off,,,,,96,0,3,,,,,2,,,82,0
53568,note_on,,,,,4,0,2,,,,,1,,,77,77
53568,note_on,,,,,0,0,8,,,,,7,,,62,60
53664,note_off,,,,,96,0,1,,,,,0,,,77,0
53664,note_on,,,,,0,0,1,,,,,0,,,79,80
53664,note_off,,,,,96,0,3,,,,,2,,,77,0
53664,note_on,,,,,0,0,3,,,,,2,,,79,100
53664,note_off,,,,,96,0,2,,,,,1,,,77,0
53664,note_on,,,,,0,0,2,,,,,1,,,79,77
53756,note_off,,,,,188,0,5,,,,,4,,,53,0
53756,note_off,,,,,188,0,6,,,,,5,,,46,0
53756,note_off,,,,,188,0,9,,,,,8,,,46,0
53756,note_off,,,,,188,0,8,,,,,7,,,53,0
53756,note_off,,,,,0,0,8,,,,,7,,,62,0
53756,note_off,,,,,188,0,7,,,,,6,,,34,0
53756,note_off,,,,,92,0,1,,,,,0,,,79,0
53756,note_off,,,,,0,0,8,,,,,7,,,58,0
53756,note_off,,,,,92,0,2,,,,,1,,,79,0
53760,note_on,,,,,4,0,6,,,,,5,,,46,92
53760,note_on,,,,,4,0,5,,,,,4,,,53,92
53760,note_on,,,,,4,0,2,,,,,1,,,74,77
53760,note_on,,,,,4,0,7,,,,,6,,,34,80
53760,note_on,,,,,4,0,8,,,,,7,,,53,60
53760,note_on,,,,,0,0,8,,,,,7,,,62,60
53760,note_on,,,,,4,0,1,,,,,0,,,74,80
53760,note_on,,,,,0,0,8,,,,,7,,,58,60
53760,note_on,,,,,0,0,3,,,,,2,,,74,100
53760,note_off,,,,,96,0,3,,,,,2,,,79,0
53760,note_on,,,,,0,0,4,,,,,3,,,62,92
53760,note_on,,,,,4,0,9,,,,,8,,,46,60
53760,note_off,,,,,192,0,4,,,,,3,,,62,0
53856,note_off,,,,,96,0,1,,,,,0,,,74,0
53856,note_off,,,,,96,0,3,,,,,2,,,74,0
53856,note_on,,,,,0,0,3,,,,,2,,,75,100
53856,note_on,,,,,0,0,1,,,,,0,,,75,80
53856,note_off,,,,,96,0,2,,,,,1,,,74,0
53856,note_on,,,,,0,0,2,,,,,1,,,75,77
53948,note_off,,,,,188,0,6,,,,,5,,,46,0
53948,note_off,,,,,188,0,9,,,,,8,,,46,0
53948,note_off,,,,,188,0,8,,,,,7,,,53,0
53948,note_off,,,,,188,0,5,,,,,4,,,53,0
53948,note_off,,,,,0,0,8,,,,,7,,,62,0
53948,note_off,,,,,92,0,1,,,,,0,,,75,0
53948,note_off,,,,,0,0,8,,,,,7,,,58,0
53948,note_off,,,,,92,0,2,,,,,1,,,75,0
53948,note_off,,,,,188,0,7,,,,,6,,,34,0
53952,note_on,,,,,4,0,5,,,,,4,,,53,92
53952,note_on,,,,,4,0,6,,,,,5,,,46,92
53952,note_off,,,,,192,0,4,,,,,3,,,62,0
53952,note_on,,,,,0,0,4,,,,,3,,,62,92
53952,note_on,,,,,4,0,9,,,,,8,,,46,60
53952,note_on,,,,,4,0,2,,,,,1,,,70,77
53952,note_off,,,,,96,0,3,,,,,2,,,75,0
53952,note_on,,,,,4,0,7,,,,,6,,,34,80
53952,note_on,,,,,0,0,8,,,,,7,,,58,60
53952,note_on,,,,,0,0,3,,,,,2,,,70,100
53952,note_on,,,,,4,0,1,,,,,0,,,70,80
53952,note_on,,,,,4,0,8,,,,,7,,,53,60
53952,note_on,,,,,0,0,8,,,,,7,,,62,60
54048,note_off,,,,,96,0,3,,,,,2,,,70,0
54048,note_on,,,,,0,0,2,,,,,1,,,72,77
54048,note_off,,,,,96,0,2,,,,,1,,,70,0
54048,note_off,,,,,96,0,1,,,,,0,,,70,0
54048,note_on,,,,,0,0,3,,,,,2,,,72,100
54048,note_on,,,,,0,0,1,,,,,0,,,72,80
54140,note_off,,,,,92,0,1,,,,,0,,,72,0
54140,note_off,,,,,0,0,8,,,,,7,,,62,0
54140,note_off,,,,,188,0,8,,,,,7,,,53,0
54140,note_off,,,,,188,0,5,,,,,4,,,53,0
54140,note_off,,,,,188,0,6,,,,,5,,,46,0
54140,note_off,,,,,188,0,7,,,,,6,,,34,0
54140,note_off,,,,,188,0,9,,,,,8,,,46,0
54140,note_off,,,,,92,0,2,,,,,1,,,72,0
54144,note_on,,,,,4,0,9,,,,,8,,,46,60
54144,note_on,,,,,4,0,5,,,,,4,,,55,92
54144,note_on,,,,,4,0,6,,,,,5,,,46,92
54144,note_on,,,,,4,0,1,,,,,0,,,67,80
54144,note_on,,,,,4,0,7,,,,,6,,,34,80
54144,note_off,,,,,96,0,3,,,,,2,,,72,0
54144,note_on,,,,,0,0,8,,,,,7,,,63,60
54144,note_on,,,,,4,0,2,,,,,1,,,67,77
54144,note_on,,,,,0,0,4,,,,,3,,,63,92
54144,note_off,,,,,192,0,4,,,,,3,,,62,0
54144,note_on,,,,,0,0,3,,,,,2,,,67,100
54144,note_on,,,,,4,0,8,,,,,7,,,55,60
54240,note_off,,,,,96,0,3,,,,,2,,,67,0
54240,note_on,,,,,0,0,3,,,,,2,,,68,100
54240,note_off,,,,,96,0,1,,,,,0,,,67,0
54240,note_on,,,,,0,0,1,,,,,0,,,68,80
54240,note_off,,,,,96,0,2,,,,,1,,,67,0
54240,note_on,,,,,0,0,2,,,,,1,,,68,77
54332,note_off,,,,,188,0,6,,,,,5,,,46,0
54332,note_off,,,,,0,0,8,,,,,7,,,63,0
54332,note_off,,,,,188,0,9,,,,,8,,,46,0
54332,note_off,,,,,92,0,1,,,,,0,,,68,0
54332,note_off,,,,,188,0,5,,,,,4,,,55,0
54332,note_off,,,,,188,0,7,,,,,6,,,34,0
54332,note_off,,,,,0,0,8,,,,,7,,,55,0
54332,note_off,,,,,92,0,2,,,,,1,,,68,0
54332,note_off,,,,,188,0,8,,,,,7,,,58,0
54336,note_on,,,,,0,0,8,,,,,7,,,58,60
54336,note_on,,,,,4,0,5,,,,,4,,,58,92
54336,note_off,,,,,96,0,3,,,,,2,,,68,0
54336,note_on,,,,,4,0,6,,,,,5,,,46,92
54336,note_on,,,,,4,0,7,,,,,6,,,34,80
54336,note_on,,,,,4,0,2,,,,,1,,,65,77
54336,note_off,,,,,192,0,4,,,,,3,,,63,0
54336,note_on,,,,,4,0,9,,,,,8,,,46,60
54336,note_on,,,,,4,0,8,,,,,7,,,53,60
54336,note_on,,,,,0,0,3,,,,,2,,,65,100
54336,note_on,,,,,4,0,1,,,,,0,,,65,80
54336,note_on,,,,,0,0,4,,,,,3,,,62,92
54336,note_on,,,,,0,0,8,,,,,7,,,62,60
54432,note_on,,,,,0,0,2,,,,,1,,,67,77
54432,note_off,,,,,96,0,2,,,,,1,,,65,0
54432,note_off,,,,,96,0,1,,,,,0,,,65,0
54432,note_on,,,,,0,0,1,,,,,0,,,67,80
54432,note_on,,,,,0,0,3,,,,,2,,,67,100
54432,note_off,,,,,96,0,3,,,,,2,,,65,0
54524,note_off,,,,,188,0,9,,,,,8,,,46,0
54524,note_off,,,,,188,0,5,,,,,4,,,58,0
54524,note_off,,,,,188,0,8,,,,,7,,,53,0
54524,note_off,,,,,188,0,7,,,,,6,,,34,0
54524,note_off,,,,,92,0,2,,,,,1,,,67,0
54524,note_off,,,,,92,0,1,,,,,0,,,67,0
54524,note_off,,,,,0,0,8,,,,,7,,,62,0
54524,note_off,,,,,188,0,6,,,,,5,,,46,0
54528,note_on,,,,,4,0,5,,,,,4,,,58,92
54528,note_on,,,,,4,0,7,,,,,6,,,34,80
54528,note_on,,,,,0,0,4,,,,,3,,,63,92
54528,note_on,,,,,4,0,9,,,,,8,,,46,60
54528,note_off,,,,,192,0,4,,,,,3,,,62,0
54528,note_on,,,,,4,0,2,,,,,1,,,63,77
54528,note_on,,,,,4,0,1,,,,,0,,,63,80
54528,note_on,,,,,0,0,3,,,,,2,,,63,100
54528,note_on,,,,,4,0,6,,,,,5,,,46,92
54528,note_on,,,,,4,0,8,,,,,7,,,55,60
54528,note_on,,,,,0,0,8,,,,,7,,,63,60
54528,note_off,,,,,96,0,3,,,,,2,,,67,0
54624,note_on,,,,,0,0,3,,,,,2,,,65,100
54624,note_off,,,,,96,0,3,,,,,2,,,63,0
54624,note_off,,,,,96,0,1,,,,,0,,,63,0
54624,note_off,,,,,96,0,2,,,,,1,,,63,0
54624,note_on,,,,,0,0,2,,,,,1,,,65,77
54624,note_on,,,,,0,0,1,,,,,0,,,65,80
54716,note_off,,,,,92,0,1,,,,,0,,,65,0
54716,note_off,,,,,188,0,9,,,,,8,,,46,0
54716,note_off,,,,,188,0,7,,,,,6,,,34,0
54716,note_off,,,,,188,0,5,,,,,4,,,58,0
54716,note_off,,,,,188,0,8,,,,,7,,,58,0
54716,note_off,,,,,0,0,8,,,,,7,,,63,0
54716,note_off,,,,,0,0,8,,,,,7,,,55,0
54716,note_off,,,,,188,0,6,,,,,5,,,46,0
54716,note_off,,,,,92,0,2,,,,,1,,,65,0
54720,note_on,,,,,0,0,4,,,,,3,,,62,92
54720,note_off,,,,,192,0,4,,,,,3,,,63,0
54720,note_on,,,,,0,0,3,,,,,2,,,58,100
54720,note_off,,,,,96,0,3,,,,,2,,,65,0
54720,note_on,,,,,0,0,8,,,,,7,,,62,60
54720,note_on,,,,,0,0,8,,,,,7,,,58,60
54720,note_on,,,,,4,0,8,,,,,7,,,53,60
54720,note_on,,,,,4,0,5,,,,,4,,,53,92
54720,note_on,,,,,4,0,1,,,,,0,,,58,80
54720,note_on,,,,,4,0,7,,,,,6,,,34,80
54720,note_on,,,,,4,0,9,,,,,8,,,46,60
54720,note_on,,,,,4,0,6,,,,,5,,,46,92
54720,note_on,,,,,4,0,2,,,,,1,,,58,77
54908,note_off,,,,,0,0,8,,,,,7,,,62,0
54908,note_off,,,,,188,0,9,,,,,8,,,46,0
54908,note_off,,,,,0,0,8,,,,,7,,,58,0
54908,note_off,,,,,188,0,8,,,,,7,,,53,0
54908,note_off,,,,,188,0,5,,,,,4,,,53,0
54908,note_off,,,,,188,0,6,,,,,5,,,46,0
54908,note_off,,,,,188,0,7,,,,,6,,,34,0
54912,note_on,,,,,4,0,5,,,,,4,,,53,92
54912,note_on,,,,,0,0,4,,,,,3,,,62,92
54912,note_off,,,,,192,0,4,,,,,3,,,62,0
54912,note_on,,,,,0,0,8,,,,,7,,,62,60
54912,note_on,,,,,4,0,9,,,,,8,,,46,60
54912,note_on,,,,,4,0,6,,,,,5,,,46,92
54912,note_on,,,,,0,0,8,,,,,7,,,58,60
54912,note_on,,,,,4,0,8,,,,,7,,,53,60
54912,note_on,,,,,4,0,7,,,,,6,,,34,80
55004,note_off,,,,,284,0,2,,,,,1,,,58,0
55004,note_off,,,,,284,0,1,,,,,0,,,58,0
55008,note_off,,,,,288,0,3,,,,,2,,,58,0
55008,note_on,,,,,4,0,2,,,,,1,,,82,77
55008,note_on,,,,,0,0,3,,,,,2,,,82,100
55008,note_on,,,,,4,0,1,,,,,0,,,82,80
55100,note_off,,,,,188,0,9,,,,,8,,,46,0
55100,note_off,,,,,92,0,1,,,,,0,,,82,0
55100,note_off,,,,,188,0,8,,,,,7,,,53,0
55100,note_off,,,,,0,0,8,,,,,7,,,62,0
55100,note_off,,,,,0,0,8,,,,,7,,,58,0
55100,note_off,,,,,188,0,6,,,,,5,,,46,0
55100,note_off,,,,,92,0,2,,,,,1,,,82,0
55100,note_off,,,,,188,0,5,,,,,4,,,53,0
55100,note_off,,,,,188,0,7,,,,,6,,,34,0
55104,note_on,,,,,4,0,7,,,,,6,,,34,80
55104,note_on,,,,,0,0,8,,,,,7,,,58,60
55104,note_on,,,,,0,0,8,,,,,7,,,62,60
55104,note_on,,,,,4,0,6,,,,,5,,,46,92
55104,note_on,,,,,4,0,8,,,,,7,,,53,60
55104,note_off,,,,,96,0,3,,,,,2,,,82,0
55104,note_on,,,,,4,0,5,,,,,4,,,53,92
55104,note_on,,,,,4,0,1,,,,,0,,,77,80
55104,note_on,,,,,0,0,3,,,,,2,,,77,100
55104,note_on,,,,,4,0,9,,,,,8,,,46,60
55104,note_on,,,,,0,0,4,,,,,3,,,62,92
55104,note_off,,,,,192,0,4,,,,,3,,,62,0
55104,note_on,,,,,4,0,2,,,,,1,,,77,77
55200,note_on,,,,,0,0,2,,,,,1,,,79,77
55200,note_off,,,,,96,0,2,,,,,1,,,77,0
55200,note_off,,,,,96,0,3,,,,,2,,,77,0
55200,note_on,,,,,0,0,3,,,,,2,,,79,100
55200,note_on,,,,,0,0,1,,,,,0,,,79,80
55200,note_off,,,,,96,0,1,,,,,0,,,77,0
55292,note_off,,,,,188,0,8,,,,,7,,,53,0
55292,note_off,,,,,0,0,8,,,,,7,,,62,0
55292,note_off,,,,,188,0,6,,,,,5,,,46,0
55292,note_off,,,,,92,0,1,,,,,0,,,79,0
55292,note_off,,,,,92,0,2,,,,,1,,,79,0
55292,note_off,,,,,188,0,9,,,,,8,,,46,0
55292,note_off,,,,,188,0,5,,,,,4,,,53,0
55292,note_off,,,,,0,0,8,,,,,7,,,58,0
55292,note_off,,,,,188,0,7,,,,,6,,,34,0
55296,note_off,,,,,96,0,3,,,,,2,,,79,0
55296,note_on,,,,,0,0,8,,,,,7,,,58,60
55296,note_on,,,,,4,0,6,,,,,5,,,46,92
55296,note_on,,,,,4,0,5,,,,,4,,,53,92
55296,note_on,,,,,4,0,7,,,,,6,,,34,80
55296,note_on,,,,,0,0,3,,,,,2,,,74,100
55296,note_on,,,,,4,0,1,,,,,0,,,74,80
55296,note_on,,,,,4,0,9,,,,,8,,,46,60
55296,note_on,,,,,4,0,2,,,,,1,,,74,77
55296,note_off,,,,,192,0,4,,,,,3,,,62,0
55296,note_on,,,,,0,0,8,,,,,7,,,62,60
55296,note_on,,,,,0,0,4,,,,,3,,,62,92
55296,note_on,,,,,4,0,8,,,,,7,,,53,60
55392,note_on,,,,,0,0,1,,,,,0,,,75,80
55392,note_on,,,,,0,0,2,,,,,1,,,75,77
55392,note_off,,,,,96,0,2,,,,,1,,,74,0
55392,note_off,,,,,96,0,1,,,,,0,,,74,0
55392,note_on,,,,,0,0,3,,,,,2,,,75,100
55392,note_off,,,,,96,0,3,,,,,2,,,74,0
55484,note_off,,,,,188,0,5,,,,,4,,,53,0
55484,note_off,,,,,92,0,2,,,,,1,,,75,0
55484,note_off,,,,,188,0,8,,,,,7,,,53,0
55484,note_off,,,,,188,0,6,,,,,5,,,46,0
55484,note_off,,,,,0,0,8,,,,,7,,,62,0
55484,note_off,,,,,92,0,1,,,,,0,,,75,0
55484,note_off,,,,,188,0,9,,,,,8,,,46,0
55484,note_off,,,,,188,0,7,,,,,6,,,34,0
55484,note_off,,,,,0,0,8,,,,,7,,,58,0
55488,note_on,,,,,4,0,8,,,,,7,,,53,60
55488,note_on,,,,,0,0,8,,,,,7,,,58,60
55488,note_off,,,,,192,0,4,,,,,3,,,62,0
55488,note_off,,,,,96,0,3,,,,,2,,,75,0
55488,note_on,,,,,4,0,5,,,,,4,,,53,92
55488,note_on,,,,,0,0,4,,,,,3,,,62,92
55488,note_on,,,,,4,0,1,,,,,0,,,70,80
55488,note_on,,,,,4,0,7,,,,,6,,,34,80
55488,note_on,,,,,4,0,6,,,,,5,,,46,92
55488,note_on,,,,,0,0,8,,,,,7,,,62,60
55488,note_on,,,,,0,0,3,,,,,2,,,70,100
55488,note_on,,,,,4,0,9,,,,,8,,,46,60
55488,note_on,,,,,4,0,2,,,,,1,,,70,77
55584,note_off,,,,,96,0,3,,,,,2,,,70,0
55584,note_on,,,,,0,0,3,,,,,2,,,72,100
55584,note_off,,,,,96,0,1,,,,,0,,,70,0
55584,note_on,,,,,0,0,1,,,,,0,,,72,80
55584,note_on,,,,,0,0,2,,,,,1,,,72,77
55584,note_off,,,,,96,0,2,,,,,1,,,70,0
55676,note_off,,,,,188,0,6,,,,,5,,,46,0
55676,note_off,,,,,188,0,7,,,,,6,,,34,0
55676,note_off,,,,,92,0,1,,,,,0,,,72,0
55676,note_off,,,,,0,0,8,,,,,7,,,62,0
55676,note_off,,,,,92,0,2,,,,,1,,,72,0
55676,note_off,,,,,188,0,9,,,,,8,,,46,0
55676,note_off,,,,,188,0,5,,,,,4,,,53,0
55676,note_off,,,,,188,0,8,,,,,7,,,53,0
55680,note_off,,,,,192,0,4,,,,,3,,,62,0
55680,note_on,,,,,4,0,1,,,,,0,,,67,80
55680,note_on,,,,,4,0,5,,,,,4,,,55,92
55680,note_on,,,,,4,0,2,,,,,1,,,67,77
55680,note_on,,,,,0,0,4,,,,,3,,,63,92
55680,note_on,,,,,4,0,8,,,,,7,,,55,60
55680,note_on,,,,,0,0,8,,,,,7,,,63,60
55680,note_on,,,,,4,0,6,,,,,5,,,46,92
55680,note_on,,,,,4,0,7,,,,,6,,,34,80
55680,note_off,,,,,96,0,3,,,,,2,,,72,0
55680,note_on,,,,,4,0,9,,,,,8,,,46,60
55680,note_on,,,,,0,0,3,,,,,2,,,67,100
55776,note_on,,,,,0,0,2,,,,,1,,,68,77
55776,note_off,,,,,96,0,2,,,,,1,,,67,0
55776,note_on,,,,,0,0,1,,,,,0,,,68,80
55776,note_on,,,,,0,0,3,,,,,2,,,68,100
55776,note_off,,,,,96,0,3,,,,,2,,,67,0
55776,note_off,,,,,96,0,1,,,,,0,,,67,0
55868,note_off,,,,,0,0,8,,,,,7,,,55,0
55868,note_off,,,,,188,0,9,,,,,8,,,46,0
55868,note_off,,,,,188,0,8,,,,,7,,,58,0
55868,note_off,,,,,188,0,7,,,,,6,,,34,0
55868,note_off,,,,,92,0,1,,,,,0,,,68,0
55868,note_off,,,,,188,0,6,,,,,5,,,46,0
55868,note_off,,,,,188,0,5,,,,,4,,,55,0
55868,note_off,,,,,92,0,2,,,,,1,,,68,0
55868,note_off,,,,,0,0,8,,,,,7,,,63,0
55872,note_on,,,,,4,0,8,,,,,7,,,53,60
55872,note_on,,,,,0,0,8,,,,,7,,,58,60
55872,note_on,,,,,0,0,8,,,,,7,,,62,60
55872,note_off,,,,,96,0,3,,,,,2,,,68,0
55872,note_on,,,,,4,0,2,,,,,1,,,65,77
55872,note_on,,,,,4,0,7,,,,,6,,,34,80
55872,note_on,,,,,4,0,6,,,,,5,,,46,92
55872,note_on,,,,,0,0,3,,,,,2,,,65,100
55872,note_on,,,,,0,0,4,,,,,3,,,62,92
55872,note_off,,,,,192,0,4,,,,,3,,,63,0
55872,note_on,,,,,4,0,9,,,,,8,,,46,60
55872,note_on,,,,,4,0,1,,,,,0,,,65,80
55872,note_on,,,,,4,0,5,,,,,4,,,58,92
55968,note_on,,,,,0,0,2,,,,,1,,,67,77
55968,note_on,,,,,0,0,3,,,,,2,,,67,100
55968,note_off,,,,,96,0,1,,,,,0,,,65,0
55968,note_off,,,,,96,0,3,,,,,2,,,65,0
55968,note_off,,,,,96,0,2,,,,,1,,,65,0
55968,note_on,,,,,0,0,1,,,,,0,,,67,80
56060,note_off,,,,,92,0,1,,,,,0,,,67,0
56060,note_off,,,,,188,0,7,,,,,6,,,34,0
56060,note_off,,,,,188,0,5,,,,,4,,,58,0
56060,note_off,,,,,0,0,8,,,,,7,,,62,0
56060,note_off,,,,,188,0,8,,,,,7,,,53,0
56060,note_off,,,,,92,0,2,,,,,1,,,67,0
56060,note_off,,,,,188,0,9,,,,,8,,,46,0
56060,note_off,,,,,188,0,6,,,,,5,,,46,0
56064,note_on,,,,,4,0,2,,,,,1,,,62,77
56064,note_on,,,,,4,0,5,,,,,4,,,58,92
56064,note_on,,,,,4,0,9,,,,,8,,,46,60
56064,note_on,,,,,4,0,1,,,,,0,,,62,80
56064,note_on,,,,,0,0,8,,,,,7,,,63,60
56064,note_off,,,,,192,0,4,,,,,3,,,62,0
56064,note_on,,,,,0,0,4,,,,,3,,,63,92
56064,note_on,,,,,4,0,7,,,,,6,,,34,80
56064,note_on,,,,,4,0,8,,,,,7,,,55,60
56064,note_on,,,,,4,0,6,,,,,5,,,46,92
56064,note_off,,,,,96,0,3,,,,,2,,,67,0
56064,note_on,,,,,0,0,3,,,,,2,,,62,100
56160,note_off,,,,,96,0,1,,,,,0,,,62,0
56160,note_on,,,,,0,0,1,,,,,0,,,63,80
56160,note_on,,,,,0,0,3,,,,,2,,,63,100
56160,note_on,,,,,0,0,2,,,,,1,,,63,77
56160,note_off,,,,,96,0,2,,,,,1,,,62,0
56160,note_off,,,,,96,0,3,,,,,2,,,62,0
56252,note_off,,,,,188,0,5,,,,,4,,,58,0
56252,note_off,,,,,188,0,9,,,,,8,,,46,0
56252,note_off,,,,,188,0,8,,,,,7,,,58,0
56252,note_off,,,,,0,0,8,,,,,7,,,63,0
56252,note_off,,,,,188,0,6,,,,,5,,,46,0
56252,note_off,,,,,92,0,2,,,,,1,,,63,0
56252,note_off,,,,,0,0,8,,,,,7,,,55,0
56252,note_off,,,,,92,0,1,,,,,0,,,63,0
56252,note_off,,,,,188,0,7,,,,,6,,,34,0
56256,note_on,,,,,0,0,8,,,,,7,,,62,60
56256,note_on,,,,,0,0,4,,,,,3,,,62,92
56256,note_on,,,,,4,0,8,,,,,7,,,53,60
56256,note_on,,,,,4,0,6,,,,,5,,,46,92
56256,note_off,,,,,192,0,4,,,,,3,,,63,0
56256,note_on,,,,,4,0,7,,,,,6,,,34,80
56256,note_on,,,,,4,0,2,,,,,1,,,58,77
56256,note_on,,,,,4,0,9,,,,,8,,,46,60
56256,note_off,,,,,96,0,3,,,,,2,,,63,0
56256,note_on,,,,,0,0,3,,,,,2,,,58,100
56256,note_on,,,,,4,0,5,,,,,4,,,53,92
56256,note_on,,,,,4,0,1,,,,,0,,,58,80
56256,note_on,,,,,0,0,8,,,,,7,,,58,60
56444,note_off,,,,,188,0,7,,,,,6,,,34,0
56444,note_off,,,,,188,0,8,,,,,7,,,53,0
56444,note_off,,,,,188,0,5,,,,,4,,,53,0
56444,note_off,,,,,188,0,9,,,,,8,,,46,0
56444,note_off,,,,,188,0,6,,,,,5,,,46,0
56444,note_off,,,,,0,0,8,,,,,7,,,58,0
56444,note_off,,,,,0,0,8,,,,,7,,,62,0
56448,note_on,,,,,0,0,8,,,,,7,,,62,30
56448,note_on,,,,,0,0,4,,,,,3,,,62,60
56448,note_off,,,,,192,0,4,,,,,3,,,62,0
56448,note_on,,,,,4,0,5,,,,,4,,,65,45
56448,note_on,,,,,4,0,6,,,,,5,,,56,45
56448,note_on,,,,,4,0,9,,,,,8,,,56,30
56448,note_on,,,,,0,0,8,,,,,7,,,65,30
56448,note_on,,,,,4,0,7,,,,,6,,,44,39
56448,note_on,,,,,4,0,8,,,,,7,,,58,30
56540,note_off,,,,,284,0,2,,,,,1,,,58,0
56540,note_off,,,,,284,0,1,,,,,0,,,58,0
56544,note_on,,,,,4,0,1,,,,,0,,,72,80
56544,note_off,,,,,288,0,3,,,,,2,,,58,0
56544,note_on,,,,,0,0,3,,,,,2,,,72,100
56544,note_on,,,,,4,0,2,,,,,1,,,72,77
56636,note_off,,,,,188,0,8,,,,,7,,,58,0
56636,note_off,,,,,0,0,8,,,,,7,,,62,0
56636,note_off,,,,,92,0,1,,,,,0,,,72,0
56636,note_off,,,,,188,0,9,,,,,8,,,56,0
56636,note_off,,,,,0,0,8,,,,,7,,,65,0
56636,note_off,,,,,188,0,6,,,,,5,,,56,0
56636,note_off,,,,,188,0,7,,,,,6,,,44,0
56636,note_off,,,,,188,0,5,,,,,4,,,65,0
56636,note_off,,,,,92,0,2,,,,,1,,,72,0
56640,note_on,,,,,4,0,7,,,,,6,,,44,39
56640,note_on,,,,,0,0,4,,,,,3,,,62,60
56640,note_off,,,,,192,0,4,,,,,3,,,62,0
56640,note_on,,,,,4,0,9,,,,,8,,,56,30
56640,note_on,,,,,4,0,5,,,,,4,,,65,45
56640,note_on,,,,,4,0,2,,,,,1,,,71,37
56640,note_off,,,,,96,0,3,,,,,2,,,72,0
56640,note_on,,,,,0,0,3,,,,,2,,,71,49
56640,note_on,,,,,0,0,8,,,,,7,,,65,30
56640,note_on,,,,,4,0,1,,,,,0,,,71,39
56640,note_on,,,,,4,0,8,,,,,7,,,59,30
56640,note_on,,,,,0,0,8,,,,,7,,,62,30
56640,note_on,,,,,4,0,6,,,,,5,,,56,45
56736,note_on,,,,,0,0,1,,,,,0,,,72,39
56736,note_off,,,,,96,0,1,,,,,0,,,71,0
56736,note_on,,,,,0,0,3,,,,,2,,,72,49
56736,note_off,,,,,96,0,3,,,,,2,,,71,0
56736,note_off,,,,,96,0,2,,,,,1,,,71,0
56736,note_on,,,,,0,0,2,,,,,1,,,72,37
56828,note_off,,,,,188,0,7,,,,,6,,,44,0
56828,note_off,,,,,92,0,1,,,,,0,,,72,0
56828,note_off,,,,,188,0,8,,,,,7,,,59,0
56828,note_off,,,,,0,0,8,,,,,7,,,62,0
56828,note_off,,,,,0,0,8,,,,,7,,,65,0
56828,note_off,,,,,92,0,2,,,,,1,,,72,0
56828,note_off,,,,,188,0,6,,,,,5,,,56,0
56828,note_off,,,,,188,0,5,,,,,4,,,65,0
56828,note_off,,,,,188,0,9,,,,,8,,,56,0
56832,note_on,,,,,0,0,4,,,,,3,,,62,60
56832,note_on,,,,,4,0,1,,,,,0,,,71,39
56832,note_on,,,,,4,0,7,,,,,6,,,44,39
56832,note_on,,,,,4,0,9,,,,,8,,,56,30
56832,note_on,,,,,4,0,5,,,,,4,,,65,45
56832,note_on,,,,,0,0,3,,,,,2,,,71,49
56832,note_off,,,,,96,0,3,,,,,2,,,72,0
56832,note_on,,,,,4,0,8,,,,,7,,,59,30
56832,note_on,,,,,0,0,8,,,,,7,,,62,30
56832,note_on,,,,,0,0,8,,,,,7,,,65,30
56832,note_off,,,,,192,0,4,,,,,3,,,62,0
56832,note_on,,,,,4,0,2,,,,,1,,,71,37
56832,note_on,,,,,4,0,6,,,,,5,,,56,45
56928,note_off,,,,,96,0,3,,,,,2,,,71,0
56928,note_on,,,,,0,0,2,,,,,1,,,72,37
56928,note_off,,,,,96,0,2,,,,,1,,,71,0
56928,note_off,,,,,96,0,1,,,,,0,,,71,0
56928,note_on,,,,,0,0,1,,,,,0,,,72,39
56928,note_on,,,,,0,0,3,,,,,2,,,72,49
57020,note_off,,,,,188,0,6,,,,,5,,,56,0
57020,note_off,,,,,188,0,5,,,,,4,,,65,0
57020,note_off,,,,,92,0,1,,,,,0,,,72,0
57020,note_off,,,,,188,0,7,,,,,6,,,44,0
57020,note_off,,,,,92,0,2,,,,,1,,,72,0
57020,note_off,,,,,188,0,8,,,,,7,,,59,0
57020,note_off,,,,,0,0,8,,,,,7,,,62,0
57020,note_off,,,,,0,0,8,,,,,7,,,65,0
57020,note_off,,,,,188,0,9,,,,,8,,,56,0
57024,note_on,,,,,4,0,1,,,,,0,,,71,39
57024,note_on,,,,,4,0,6,,,,,5,,,55,45
57024,note_on,,,,,4,0,5,,,,,4,,,67,45
57024,note_on,,,,,4,0,2,,,,,1,,,71,37
57024,note_on,,,,,0,0,8,,,,,7,,,67,30
57024,note_on,,,,,0,0,8,,,,,7,,,62,30
57024,note_on,,,,,4,0,8,,,,,7,,,59,30
57024,note_on,,,,,4,0,9,,,,,8,,,55,30
57024,note_on,,,,,4,0,7,,,,,6,,,43,39
57024,note_off,,,,,96,0,3,,,,,2,,,72,0
57024,note_on,,,,,0,0,3,,,,,2,,,71,49
57024,note_on,,,,,0,0,4,,,,,3,,,62,60
57024,note_off,,,,,192,0,4,,,,,3,,,62,0
57120,note_off,,,,,96,0,1,,,,,0,,,71,0
57120,note_on,,,,,0,0,1,,,,,0,,,72,39
57120,note_off,,,,,96,0,3,,,,,2,,,71,0
57120,note_on,,,,,0,0,2,,,,,1,,,72,37
57120,note_off,,,,,96,0,2,,,,,1,,,71,0
57120,note_on,,,,,0,0,3,,,,,2,,,72,49
57212,note_off,,,,,0,0,8,,,,,7,,,67,0
57212,note_off,,,,,188,0,8,,,,,7,,,59,0
57212,note_off,,,,,92,0,1,,,,,0,,,72,0
57212,note_off,,,,,0,0,8,,,,,7,,,62,0
57212,note_off,,,,,188,0,7,,,,,6,,,43,0
57212,note_off,,,,,92,0,2,,,,,1,,,72,0
57212,note_off,,,,,188,0,6,,,,,5,,,55,0
57212,note_off,,,,,188,0,9,,,,,8,,,55,0
57212,note_off,,,,,188,0,5,,,,,4,,,67,0
57216,note_on,,,,,4,0,5,,,,,4,,,67,45
57216,note_on,,,,,4,0,6,,,,,5,,,55,45
57216,note_on,,,,,4,0,9,,,,,8,,,55,30
57216,note_on,,,,,0,0,4,,,,,3,,,62,60
57216,note_on,,,,,0,0,8,,,,,7,,,62,30
57216,note_on,,,,,0,0,8,,,,,7,,,67,30
57216,note_on,,,,,4,0,1,,,,,0,,,71,39
57216,note_off,,,,,192,0,4,,,,,3,,,62,0
57216,note_on,,,,,4,0,7,,,,,6,,,43,39
57216,note_on,,,,,4,0,2,,,,,1,,,71,37
57216,note_off,,,,,96,0,3,,,,,2,,,72,0
57216,note_on,,,,,0,0,3,,,,,2,,,71,49
57216,note_on,,,,,4,0,8,,,,,7,,,59,30
57312,note_off,,,,,96,0,1,,,,,0,,,71,0
57312,note_on,,,,,0,0,1,,,,,0,,,72,39
57312,note_off,,,,,96,0,3,,,,,2,,,71,0
57312,note_on,,,,,0,0,2,,,,,1,,,72,37
57312,note_off,,,,,96,0,2,,,,,1,,,71,0
57312,note_on,,,,,0,0,3,,,,,2,,,72,49
57404,note_off,,,,,188,0,9,,,,,8,,,55,0
57404,note_off,,,,,92,0,2,,,,,1,,,72,0
57404,note_off,,,,,188,0,5,,,,,4,,,67,0
57404,note_off,,,,,0,0,8,,,,,7,,,67,0
57404,note_off,,,,,188,0,8,,,,,7,,,59,0
57404,note_off,,,,,0,0,8,,,,,7,,,62,0
57404,note_off,,,,,188,0,6,,,,,5,,,55,0
57404,note_off,,,,,92,0,1,,,,,0,,,72,0
57404,note_off,,,,,188,0,7,,,,,6,,,43,0
57408,note_on,,,,,0,0,4,,,,,3,,,62,60
57408,note_on,,,,,4,0,1,,,,,0,,,71,39
57408,note_on,,,,,4,0,8,,,,,7,,,59,30
57408,note_on,,,,,0,0,8,,,,,7,,,62,30
57408,note_on,,,,,0,0,8,,,,,7,,,67,30
57408,note_on,,,,,0,0,3,,,,,2,,,71,49
57408,note_off,,,,,96,0,3,,,,,2,,,72,0
57408,note_off,,,,,192,0,4,,,,,3,,,62,0
57408,note_on,,,,,4,0,2,,,,,1,,,71,37
57408,note_on,,,,,4,0,6,,,,,5,,,53,45
57408,note_on,,,,,4,0,5,,,,,4,,,67,45
57408,note_on,,,,,4,0,9,,,,,8,,,53,30
57408,note_on,,,,,4,0,7,,,,,6,,,41,39
57500,note_off,,,,,92,0,1,,,,,0,,,71,0
57500,note_off,,,,,92,0,2,,,,,1,,,71,0
57504,note_on,,,,,4,0,1,,,,,0,,,81,39
57504,note_on,,,,,4,0,2,,,,,1,,,81,37
57504,note_off,,,,,96,0,3,,,,,2,,,71,0
57504,note_on,,,,,0,0,3,,,,,2,,,81,49
57596,note_off,,,,,188,0,6,,,,,5,,,53,0
57596,note_off,,,,,188,0,9,,,,,8,,,53,0
57596,note_off,,,,,188,0,5,,,,,4,,,67,0
57596,note_off,,,,,188,0,7,,,,,6,,,41,0
57596,note_off,,,,,0,0,8,,,,,7,,,67,0
57596,note_off,,,,,92,0,1,,,,,0,,,81,0
57596,note_off,,,,,188,0,8,,,,,7,,,59,0
57596,note_off,,,,,92,0,2,,,,,1,,,81,0
57596,note_off,,,,,0,0,8,,,,,7,,,62,0
57600,note_on,,,,,4,0,7,,,,,6,,,41,39
57600,note_on,,,,,4,0,1,,,,,0,,,79,39
57600,note_on,,,,,0,0,4,,,,,3,,,62,60
57600,note_off,,,,,192,0,4,,,,,3,,,62,0
57600,note_on,,,,,4,0,8,,,,,7,,,59,30
57600,note_on,,,,,4,0,6,,,,,5,,,53,45
57600,note_on,,,,,0,0,8,,,,,7,,,62,30
57600,note_on,,,,,0,0,8,,,,,7,,,67,30
57600,note_off,,,,,96,0,3,,,,,2,,,81,0
57600,note_on,,,,,4,0,2,,,,,1,,,79,37
57600,note_on,,,,,4,0,9,,,,,8,,,53,30
57600,note_on,,,,,4,0,5,,,,,4,,,67,45
57600,note_on,,,,,0,0,3,,,,,2,,,79,49
57692,note_off,,,,,92,0,2,,,,,1,,,79,0
57692,note_off,,,,,92,0,1,,,,,0,,,79,0
57696,note_on,,,,,4,0,2,,,,,1,,,71,37
57696,note_on,,,,,4,0,1,,,,,0,,,71,39
57696,note_on,,,,,0,0,3,,,,,2,,,71,49
57696,note_off,,,,,96,0,3,,,,,2,,,79,0
57788,note_off,,,,,92,0,1,,,,,0,,,71,0
57788,note_off,,,,,0,0,8,,,,,7,,,62,0
57788,note_off,,,,,188,0,5,,,,,4,,,67,0
57788,note_off,,,,,188,0,7,,,,,6,,,41,0
57788,note_off,,,,,188,0,9,,,,,8,,,53,0
57788,note_off,,,,,0,0,8,,,,,7,,,67,0
57788,note_off,,,,,188,0,6,,,,,5,,,53,0
57788,note_off,,,,,188,0,8,,,,,7,,,59,0
57788,note_off,,,,,92,0,2,,,,,1,,,71,0
57792,note_on,,,,,4,0,1,,,,,0,,,72,39
57792,note_on,,,,,4,0,2,,,,,1,,,72,37
57792,note_on,,,,,0,0,4,,,,,3,,,67,60
57792,note_on,,,,,4,0,8,,,,,7,,,60,30
57792,note_off,,,,,96,0,3,,,,,2,,,71,0
57792,note_on,,,,,0,0,3,,,,,2,,,72,49
57792,note_off,,,,,192,0,4,,,,,3,,,62,0
57792,note_on,,,,,4,0,7,,,,,6,,,39,39
57792,note_on,,,,,0,0,8,,,,,7,,,67,30
57792,note_on,,,,,4,0,9,,,,,8,,,51,30
57792,note_on,,,,,4,0,5,,,,,4,,,67,45
57792,note_on,,,,,4,0,6,,,,,5,,,51,45
57980,note_off,,,,,188,0,9,,,,,8,,,51,0
57980,note_off,,,,,188,0,5,,,,,4,,,67,0
57980,note_off,,,,,188,0,8,,,,,7,,,60,0
57980,note_off,,,,,188,0,6,,,,,5,,,51,0
57980,note_off,,,,,188,0,7,,,,,6,,,39,0
57980,note_off,,,,,0,0,8,,,,,7,,,67,0
57984,note_on,,,,,4,0,5,,,,,4,,,67,45
57984,note_on,,,,,4,0,8,,,,,7,,,60,30
57984,note_on,,,,,4,0,9,,,,,8,,,51,30
57984,note_on,,,,,4,0,6,,,,,5,,,51,45
57984,note_off,,,,,192,0,4,,,,,3,,,67,0
57984,note_on,,,,,0,0,4,,,,,3,,,67,60
57984,note_on,,,,,0,0,8,,,,,7,,,67,30
57984,note_on,,,,,4,0,7,,,,,6,,,39,39
58076,note_off,,,,,284,0,2,,,,,1,,,72,0
58076,note_off,,,,,284,0,1,,,,,0,,,72,0
58080,note_on,,,,,4,0,2,,,,,1,,,74,37
58080,note_on,,,,,4,0,1,,,,,0,,,74,39
58080,note_on,,,,,0,0,3,,,,,2,,,74,49
58080,note_off,,,,,288,0,3,,,,,2,,,72,0
58172,note_off,,,,,92,0,1,,,,,0,,,74,0
58172,note_off,,,,,188,0,9,,,,,8,,,51,0
58172,note_off,,,,,188,0,6,,,,,5,,,51,0
58172,note_off,,,,,188,0,5,,,,,4,,,67,0
58172,note_off,,,,,0,0,8,,,,,7,,,67,0
58172,note_off,,,,,92,0,2,,,,,1,,,74,0
58172,note_off,,,,,188,0,8,,,,,7,,,60,0
58172,note_off,,,,,188,0,7,,,,,6,,,39,0
58176,note_off,,,,,192,0,4,,,,,3,,,67,0
58176,note_on,,,,,4,0,5,,,,,4,,,67,45
58176,note_on,,,,,4,0,1,,,,,0,,,72,39
58176,note_on,,,,,0,0,4,,,,,3,,,67,60
58176,note_on,,,,,4,0,9,,,,,8,,,51,30
58176,note_on,,,,,4,0,6,,,,,5,,,51,45
58176,note_on,,,,,4,0,8,,,,,7,,,60,30
58176,note_off,,,,,96,0,3,,,,,2,,,74,0
58176,note_on,,,,,0,0,3,,,,,2,,,72,49
58176,note_on,,,,,0,0,8,,,,,7,,,67,30
58176,note_on,,,,,4,0,7,,,,,6,,,39,39
58176,note_on,,,,,4,0,2,,,,,1,,,72,37
58272,note_on,,,,,0,0,2,,,,,1,,,74,37
58272,note_on,,,,,0,0,3,,,,,2,,,74,49
58272,note_off,,,,,96,0,1,,,,,0,,,72,0
58272,note_on,,,,,0,0,1,,,,,0,,,74,39
58272,note_off,,,,,96,0,2,,,,,1,,,72,0
58272,note_off,,,,,96,0,3,,,,,2,,,72,0
58364,note_off,,,,,92,0,1,,,,,0,,,74,0
58364,note_off,,,,,188,0,6,,,,,5,,,51,0
58364,note_off,,,,,188,0,7,,,,,6,,,39,0
58364,note_off,,,,,188,0,8,,,,,7,,,60,0
58364,note_off,,,,,0,0,8,,,,,7,,,67,0
58364,note_off,,,,,92,0,2,,,,,1,,,74,0
58364,note_off,,,,,188,0,5,,,,,4,,,67,0
58364,note_off,,,,,188,0,9,,,,,8,,,51,0
58368,note_on,,,,,4,0,6,,,,,5,,,51,45
58368,note_on,,,,,0,0,4,,,,,3,,,67,60
58368,note_on,,,,,4,0,5,,,,,4,,,67,45
58368,note_off,,,,,192,0,4,,,,,3,,,67,0
58368,note_on,,,,,4,0,1,,,,,0,,,72,39
58368,note_on,,,,,4,0,2,,,,,1,,,72,37
58368,note_on,,,,,4,0,7,,,,,6,,,39,39
58368,note_on,,,,,0,0,8,,,,,7,,,67,30
58368,note_on,,,,,4,0,8,,,,,7,,,60,30
58368,note_on,,,,,4,0,9,,,,,8,,,51,30
58368,note_on,,,,,0,0,3,,,,,2,,,72,49
58368,note_off,,,,,96,0,3,,,,,2,,,74,0
58464,note_on,,,,,0,0,1,,,,,0,,,74,39
58464,note_off,,,,,96,0,3,,,,,2,,,72,0
58464,note_on,,,,,0,0,3,,,,,2,,,74,49
58464,note_off,,,,,96,0,1,,,,,0,,,72,0
58464,note_on,,,,,0,0,2,,,,,1,,,74,37
58464,note_off,,,,,96,0,2,,,,,1,,,72,0
58556,note_off,,,,,188,0,5,,,,,4,,,67,0
58556,note_off,,,,,0,0,8,,,,,7,,,67,0
58556,note_off,,,,,188,0,6,,,,,5,,,51,0
58556,note_off,,,,,188,0,8,,,,,7,,,60,0
58556,note_off,,,,,92,0,1,,,,,0,,,74,0
58556,note_off,,,,,92,0,2,,,,,1,,,74,0
58556,note_off,,,,,188,0,9,,,,,8,,,51,0
58556,note_off,,,,,188,0,7,,,,,6,,,39,0
58560,note_on,,,,,0,0,4,,,,,3,,,67,60
58560,note_on,,,,,0,0,8,,,,,7,,,67,30
58560,note_on,,,,,0,0,8,,,,,7,,,61,30
58560,note_on,,,,,4,0,8,,,,,7,,,55,30
58560,note_off,,,,,96,0,3,,,,,2,,,74,0
58560,note_on,,,,,0,0,3,,,,,2,,,73,49
58560,note_on,,,,,4,0,5,,,,,4,,,64,45
58560,note_on,,,,,4,0,2,,,,,1,,,73,37
58560,note_on,,,,,4,0,7,,,,,6,,,40,39
58560,note_on,,,,,4,0,9,,,,,8,,,52,30
58560,note_on,,,,,4,0,1,,,,,0,,,73,39
58560,note_on,,,,,4,0,6,,,,,5,,,52,45
58560,note_off,,,,,192,0,4,,,,,3,,,67,0
58656,note_off,,,,,96,0,2,,,,,1,,,73,0
58656,note_on,,,,,0,0,3,,,,,2,,,74,49
58656,note_on,,,,,0,0,2,,,,,1,,,74,37
58656,note_off,,,,,96,0,3,,,,,2,,,73,0
58656,note_on,,,,,0,0,1,,,,,0,,,74,39
58656,note_off,,,,,96,0,1,,,,,0,,,73,0
58748,note_off,,,,,188,0,7,,,,,6,,,40,0
58748,note_off,,,,,92,0,2,,,,,1,,,74,0
58748,note_off,,,,,92,0,1,,,,,0,,,74,0
58748,note_off,,,,,188,0,6,,,,,5,,,52,0
58748,note_off,,,,,188,0,5,,,,,4,,,64,0
58748,note_off,,,,,188,0,9,,,,,8,,,52,0
58748,note_off,,,,,0,0,8,,,,,7,,,61,0
58748,note_off,,,,,0,0,8,,,,,7,,,67,0
58748,note_off,,,,,188,0,8,,,,,7,,,55,0
58752,note_on,,,,,0,0,4,,,,,3,,,67,60
58752,note_on,,,,,4,0,6,,,,,5,,,52,45
58752,note_on,,,,,4,0,2,,,,,1,,,73,37
58752,note_on,,,,,4,0,7,,,,,6,,,40,39
58752,note_on,,,,,4,0,5,,,,,4,,,64,45
58752,note_off,,,,,96,0,3,,,,,2,,,74,0
58752,note_on,,,,,0,0,3,,,,,2,,,73,49
58752,note_on,,,,,0,0,8,,,,,7,,,67,30
58752,note_on,,,,,4,0,1,,,,,0,,,73,39
58752,note_off,,,,,192,0,4,,,,,3,,,67,0
58752,note_on,,,,,4,0,8,,,,,7,,,55,30
58752,note_on,,,,,0,0,8,,,,,7,,,61,30
58752,note_on,,,,,4,0,9,,,,,8,,,52,30
58848,note_on,,,,,0,0,3,,,,,2,,,74,49
58848,note_off,,,,,96,0,1,,,,,0,,,73,0
58848,note_off,,,,,96,0,2,,,,,1,,,73,0
58848,note_on,,,,,0,0,1,,,,,0,,,74,39
58848,note_off,,,,,96,0,3,,,,,2,,,73,0
58848,note_on,,,,,0,0,2,,,,,1,,,74,37
58940,note_off,,,,,92,0,1,,,,,0,,,74,0
58940,note_off,,,,,188,0,9,,,,,8,,,52,0
58940,note_off,,,,,0,0,8,,,,,7,,,67,0
58940,note_off,,,,,0,0,8,,,,,7,,,61,0
58940,note_off,,,,,188,0,8,,,,,7,,,55,0
58940,note_off,,,,,188,0,5,,,,,4,,,64,0
58940,note_off,,,,,188,0,7,,,,,6,,,40,0
58940,note_off,,,,,188,0,6,,,,,5,,,52,0
58940,note_off,,,,,92,0,2,,,,,1,,,74,0
58944,note_on,,,,,4,0,5,,,,,4,,,64,45
58944,note_on,,,,,0,0,4,,,,,3,,,67,60
58944,note_off,,,,,96,0,3,,,,,2,,,74,0
58944,note_off,,,,,192,0,4,,,,,3,,,67,0
58944,note_on,,,,,4,0,8,,,,,7,,,55,30
58944,note_on,,,,,4,0,7,,,,,6,,,40,39
58944,note_on,,,,,0,0,3,,,,,2,,,73,49
58944,note_on,,,,,0,0,8,,,,,7,,,67,30
58944,note_on,,,,,4,0,2,,,,,1,,,73,37
58944,note_on,,,,,4,0,6,,,,,5,,,52,45
58944,note_on,,,,,4,0,1,,,,,0,,,73,39
58944,note_on,,,,,4,0,9,,,,,8,,,52,30
58944,note_on,,,,,0,0,8,,,,,7,,,61,30
59036,note_off,,,,,92,0,2,,,,,1,,,73,0
59036,note_off,,,,,92,0,1,,,,,0,,,73,0
59040,note_on,,,,,0,0,3,,,,,2,,,82,49
59040,note_on,,,,,4,0,1,,,,,0,,,82,39
59040,note_off,,,,,96,0,3,,,,,2,,,73,0
59040,note_on,,,,,4,0,2,,,,,1,,,82,37
59132,note_off,,,,,188,0,8,,,,,7,,,55,0
59132,note_off,,,,,0,0,8,,,,,7,,,61,0
59132,note_off,,,,,0,0,8,,,,,7,,,67,0
59132,note_off,,,,,92,0,1,,,,,0,,,82,0
59132,note_off,,,,,92,0,2,,,,,1,,,82,0
59132,note_off,,,,,188,0,7,,,,,6,,,40,0
59132,note_off,,,,,188,0,9,,,,,8,,,52,0
59132,note_off,,,,,188,0,5,,,,,4,,,64,0
59132,note_off,,,,,188,0,6,,,,,5,,,52,0
59136,note_on,,,,,0,0,8,,,,,7,,,67,30
59136,note_on,,,,,0,0,8,,,,,7,,,61,30
59136,note_on,,,,,4,0,8,,,,,7,,,55,30
59136,note_off,,,,,96,0,3,,,,,2,,,82,0
59136,note_on,,,,,0,0,3,,,,,2,,,81,49
59136,note_on,,,,,0,0,4,,,,,3,,,67,60
59136,note_off,,,,,192,0,4,,,,,3,,,67,0
59136,note_on,,,,,4,0,1,,,,,0,,,81,39
59136,note_on,,,,,4,0,2,,,,,1,,,81,37
59136,note_on,,,,,4,0,5,,,,,4,,,64,45
59136,note_on,,,,,4,0,9,,,,,8,,,52,30
59136,note_on,,,,,4,0,7,,,,,6,,,40,39
59136,note_on,,,,,4,0,6,,,,,5,,,52,45
59228,note_off,,,,,92,0,1,,,,,0,,,81,0
59228,note_off,,,,,92,0,2,,,,,1,,,81,0
59232,note_on,,,,,4,0,2,,,,,1,,,73,37
59232,note_on,,,,,4,0,1,,,,,0,,,73,39
59232,note_off,,,,,96,0,3,,,,,2,,,81,0
59232,note_on,,,,,0,0,3,,,,,2,,,73,49
59324,note_off,,,,,92,0,2,,,,,1,,,73,0
59324,note_off,,,,,92,0,1,,,,,0,,,73,0
59324,note_off,,,,,188,0,5,,,,,4,,,64,0
59324,note_off,,,,,188,0,7,,,,,6,,,40,0
59324,note_off,,,,,188,0,9,,,,,8,,,52,0
59324,note_off,,,,,188,0,6,,,,,5,,,52,0
59324,note_off,,,,,188,0,8,,,,,7,,,55,0
59324,note_off,,,,,0,0,8,,,,,7,,,67,0
59324,note_off,,,,,0,0,8,,,,,7,,,61,0
59328,note_off,,,,,192,0,4,,,,,3,,,67,0
59328,note_on,,,,,0,0,4,,,,,3,,,69,60
59328,note_on,,,,,4,0,5,,,,,4,,,62,45
59328,note_on,,,,,4,0,9,,,,,8,,,53,30
59328,note_off,,,,,96,0,3,,,,,2,,,73,0
59328,note_on,,,,,0,0,3,,,,,2,,,74,49
59328,note_on,,,,,4,0,7,,,,,6,,,41,39
59328,note_on,,,,,4,0,6,,,,,5,,,53,45
59328,note_on,,,,,4,0,1,,,,,0,,,74,39
59328,note_on,,,,,4,0,2,,,,,1,,,74,37
59328,note_on,,,,,0,0,8,,,,,7,,,65,30
59328,note_on,,,,,4,0,8,,,,,7,,,57,30
59328,note_on,,,,,0,0,8,,,,,7,,,62,30
59424,note_off,,,,,96,0,1,,,,,0,,,74,0
59424,note_on,,,,,0,0,1,,,,,0,,,76,39
59424,note_on,,,,,0,0,3,,,,,2,,,76,49
59424,note_off,,,,,96,0,3,,,,,2,,,74,0
59424,note_off,,,,,96,0,2,,,,,1,,,74,0
59424,note_on,,,,,0,0,2,,,,,1,,,76,37
59516,note_off,,,,,188,0,6,,,,,5,,,53,0
59516,note_off,,,,,188,0,5,,,,,4,,,62,0
59516,note_off,,,,,0,0,8,,,,,7,,,65,0
59516,note_off,,,,,0,0,8,,,,,7,,,62,0
59516,note_off,,,,,188,0,8,,,,,7,,,57,0
59516,note_off,,,,,188,0,7,,,,,6,,,41,0
59516,note_off,,,,,188,0,9,,,,,8,,,53,0
59516,note_off,,,,,92,0,1,,,,,0,,,76,0
59516,note_off,,,,,92,0,2,,,,,1,,,76,0
59520,note_on,,,,,4,0,5,,,,,4,,,62,45
59520,note_off,,,,,96,0,3,,,,,2,,,76,0
59520,note_on,,,,,4,0,1,,,,,0,,,74,39
59520,note_on,,,,,4,0,8,,,,,7,,,62,30
59520,note_on,,,,,0,0,8,,,,,7,,,69,30
59520,note_on,,,,,0,0,3,,,,,2,,,74,49
59520,note_off,,,,,192,0,4,,,,,3,,,69,0
59520,note_on,,,,,4,0,6,,,,,5,,,53,45
59520,note_on,,,,,4,0,9,,,,,8,,,53,30
59520,note_on,,,,,0,0,4,,,,,3,,,69,60
59520,note_on,,,,,4,0,7,,,,,6,,,41,39
59520,note_on,,,,,4,0,2,,,,,1,,,74,37
59616,note_off,,,,,96,0,1,,,,,0,,,74,0
59616,note_on,,,,,0,0,1,,,,,0,,,77,39
59616,note_on,,,,,0,0,3,,,,,2,,,77,49
59616,note_off,,,,,96,0,2,,,,,1,,,74,0
59616,note_on,,,,,0,0,2,,,,,1,,,77,37
59616,note_off,,,,,96,0,3,,,,,2,,,74,0
59708,note_off,,,,,188,0,7,,,,,6,,,41,0
59708,note_off,,,,,92,0,1,,,,,0,,,77,0
59708,note_off,,,,,188,0,6,,,,,5,,,53,0
59708,note_off,,,,,188,0,9,,,,,8,,,53,0
59708,note_off,,,,,92,0,2,,,,,1,,,77,0
59708,note_off,,,,,188,0,8,,,,,7,,,62,0
59708,note_off,,,,,0,0,8,,,,,7,,,69,0
59708,note_off,,,,,188,0,5,,,,,4,,,62,0
59712,note_on,,,,,4,0,6,,,,,5,,,49,45
59712,note_on,,,,,0,0,3,,,,,2,,,76,49
59712,note_on,,,,,4,0,5,,,,,4,,,61,45
59712,note_off,,,,,192,0,4,,,,,3,,,69,0
59712,note_on,,,,,4,0,1,,,,,0,,,76,39
59712,note_on,,,,,4,0,9,,,,,8,,,49,30
59712,note_on,,,,,0,0,4,,,,,3,,,69,60
59712,note_on,,,,,4,0,7,,,,,6,,,37,39
59712,note_off,,,,,96,0,3,,,,,2,,,77,0
59712,note_on,,,,,0,0,8,,,,,7,,,69,30
59712,note_on,,,,,4,0,8,,,,,7,,,63,30
59712,note_on,,,,,4,0,2,,,,,1,,,76,37
59804,note_off,,,,,92,0,1,,,,,0,,,76,0
59804,note_off,,,,,92,0,2,,,,,1,,,76,0
59808,note_on,,,,,0,0,3,,,,,2,,,77,49
59808,note_on,,,,,4,0,1,,,,,0,,,77,39
59808,note_on,,,,,4,0,2,,,,,1,,,77,37
59808,note_off,,,,,96,0,3,,,,,2,,,76,0
59900,note_off,,,,,188,0,7,,,,,6,,,37,0
59900,note_off,,,,,0,0,8,,,,,7,,,69,0
59900,note_off,,,,,188,0,5,,,,,4,,,61,0
59900,note_off,,,,,188,0,9,,,,,8,,,49,0
59900,note_off,,,,,92,0,2,,,,,1,,,77,0
59900,note_off,,,,,188,0,8,,,,,7,,,63,0
59900,note_off,,,,,188,0,6,,,,,5,,,49,0
59900,note_off,,,,,92,0,1,,,,,0,,,77,0
59904,note_on,,,,,4,0,6,,,,,5,,,49,45
59904,note_on,,,,,4,0,1,,,,,0,,,76,39
59904,note_off,,,,,96,0,3,,,,,2,,,77,0
59904,note_on,,,,,0,0,3,,,,,2,,,76,49
59904,note_on,,,,,0,0,8,,,,,7,,,69,30
59904,note_on,,,,,4,0,9,,,,,8,,,49,30
59904,note_on,,,,,4,0,5,,,,,4,,,65,45
59904,note_on,,,,,4,0,7,,,,,6,,,37,39
59904,note_on,,,,,4,0,8,,,,,7,,,64,30
59904,note_on,,,,,0,0,4,,,,,3,,,69,60
59904,note_on,,,,,4,0,2,,,,,1,,,76,37
59904,note_off,,,,,192,0,4,,,,,3,,,69,0
60044,note_off,,,,,140,0,2,,,,,1,,,76,0
60044,note_off,,,,,140,0,8,,,,,7,,,64,0
60044,note_off,,,,,140,0,1,,,,,0,,,76,0
60044,note_off,,,,,0,0,8,,,,,7,,,69,0
60044,note_off,,,,,140,0,6,,,,,5,,,49,0
60044,note_off,,,,,140,0,7,,,,,6,,,37,0
60044,note_off,,,,,140,0,9,,,,,8,,,49,0
60044,note_off,,,,,140,0,5,,,,,4,,,65,0
60048,note_off,,,,,144,0,4,,,,,3,,,69,0
60048,note_on,,,,,4,0,9,,,,,8,,,61,60
60048,note_on,,,,,4,0,6,,,,,5,,,61,92
60048,note_on,,,,,4,0,1,,,,,0,,,81,80
60048,note_on,,,,,0,0,4,,,,,3,,,76,108
60048,note_off,,,,,144,0,3,,,,,2,,,76,0
60048,note_on,,,,,0,0,3,,,,,2,,,81,100
60048,note_on,,,,,0,0,8,,,,,7,,,76,60
60048,note_on,,,,,0,0,8,,,,,7,,,69,60
60048,note_on,,,,,4,0,7,,,,,6,,,49,80
60048,note_on,,,,,4,0,2,,,,,1,,,81,77
60048,note_on,,,,,4,0,5,,,,,4,,,65,92
60048,note_on,,,,,4,0,8,,,,,7,,,64,60
60092,note_off,,,,,44,0,9,,,,,8,,,61,0
60092,note_off,,,,,44,0,5,,,,,4,,,65,0
60092,note_off,,,,,44,0,2,,,,,1,,,81,0
60092,note_off,,,,,44,0,6,,,,,5,,,61,0
60092,note_off,,,,,44,0,1,,,,,0,,,81,0
60092,note_off,,,,,0,0,8,,,,,7,,,69,0
60092,note_off,,,,,44,0,8,,,,,7,,,64,0
60092,note_off,,,,,0,0,8,,,,,7,,,76,0
60092,note_off,,,,,44,0,7,,,,,6,,,49,0
60096,note_on,,,,,4,0,6,,,,,5,,,62,92
60096,note_on,,,,,4,0,8,,,,,7,,,65,60
60096,note_on,,,,,0,0,8,,,,,7,,,69,60
60096,note_on,,,,,0,0,8,,,,,7,,,74,60
60096,note_on,,,,,4,0,1,,,,,0,,,77,80
60096,note_on,,,,,0,0,4,,,,,3,,,74,108
60096,note_on,,,,,4,0,2,,,,,1,,,77,77
60096,note_on,,,,,4,0,5,,,,,4,,,69,92
60096,note_off,,,,,48,0,4,,,,,3,,,76,0
60096,note_off,,,,,48,0,3,,,,,2,,,81,0
60096,note_on,,,,,4,0,7,,,,,6,,,50,80
60096,note_on,,,,,4,0,9,,,,,8,,,62,60
60096,note_on,,,,,0,0,3,,,,,2,,,77,100
60284,note_off,,,,,188,0,5,,,,,4,,,69,0
60284,note_off,,,,,188,0,7,,,,,6,,,50,0
60284,note_off,,,,,188,0,9,,,,,8,,,62,0
60284,note_off,,,,,188,0,6,,,,,5,,,62,0
60288,note_on,,,,,4,0,6,,,,,5,,,50,92
60288,note_on,,,,,4,0,7,,,,,6,,,38,80
60288,note_off,,,,,192,0,4,,,,,3,,,74,0
60288,note_on,,,,,4,0,9,,,,,8,,,50,60
60288,note_on,,,,,0,0,4,,,,,3,,,74,108
60288,note_on,,,,,4,0,5,,,,,4,,,69,92
60380,note_off,,,,,284,0,2,,,,,1,,,77,0
60380,note_off,,,,,284,0,1,,,,,0,,,77,0
60384,note_on,,,,,0,0,3,,,,,2,,,79,100
60384,note_off,,,,,288,0,3,,,,,2,,,77,0
60384,note_on,,,,,4,0,1,,,,,0,,,79,80
60384,note_on,,,,,4,0,2,,,,,1,,,79,77
60416,note_off,,,,,0,0,8,,,,,7,,,74,0
60416,note_off,,,,,320,0,8,,,,,7,,,65,0
60416,note_off,,,,,0,0,8,,,,,7,,,69,0
60476,note_off,,,,,188,0,6,,,,,5,,,50,0
60476,note_off,,,,,92,0,2,,,,,1,,,79,0
60476,note_off,,,,,188,0,7,,,,,6,,,38,0
60476,note_off,,,,,188,0,9,,,,,8,,,50,0
60476,note_off,,,,,92,0,1,,,,,0,,,79,0
60476,note_off,,,,,188,0,5,,,,,4,,,69,0
60480,note_on,,,,,4,0,5,,,,,4,,,62,92
60480,note_on,,,,,4,0,6,,,,,5,,,53,92
60480,note_on,,,,,0,0,8,,,,,7,,,69,60
60480,note_on,,,,,64,0,8,,,,,7,,,65,60
60480,note_on,,,,,4,0,7,,,,,6,,,41,80
60480,note_on,,,,,0,0,4,,,,,3,,,69,108
60480,note_off,,,,,192,0,4,,,,,3,,,74,0
60480,note_on,,,,,0,0,8,,,,,7,,,74,60
60480,note_on,,,,,4,0,2,,,,,1,,,81,77
60480,note_on,,,,,0,0,3,,,,,2,,,81,100
60480,note_off,,,,,96,0,3,,,,,2,,,79,0
60480,note_on,,,,,4,0,9,,,,,8,,,53,60
60480,note_on,,,,,4,0,1,,,,,0,,,81,80
60668,note_off,,,,,188,0,2,,,,,1,,,81,0
60668,note_off,,,,,188,0,7,,,,,6,,,41,0
60668,note_off,,,,,188,0,9,,,,,8,,,53,0
60668,note_off,,,,,0,0,8,,,,,7,,,74,0
60668,note_off,,,,,0,0,8,,,,,7,,,69,0
60668,note_off,,,,,188,0,1,,,,,0,,,81,0
60668,note_off,,,,,188,0,6,,,,,5,,,53,0
60668,note_off,,,,,188,0,5,,,,,4,,,62,0
60668,note_off,,,,,188,0,8,,,,,7,,,65,0
60672,note_on,,,,,4,0,1,,,,,0,,,76,80
60672,note_on,,,,,4,0,6,,,,,5,,,57,92
60672,note_off,,,,,192,0,4,,,,,3,,,69,0
60672,note_on,,,,,0,0,3,,,,,2,,,76,100
60672,note_on,,,,,0,0,8,,,,,7,,,69,60
60672,note_on,,,,,0,0,8,,,,,7,,,73,60
60672,note_on,,,,,4,0,2,,,,,1,,,76,77
60672,note_on,,,,,4,0,8,,,,,7,,,64,60
60672,note_on,,,,,4,0,7,,,,,6,,,45,80
60672,note_on,,,,,4,0,5,,,,,4,,,69,92
60672,note_off,,,,,192,0,3,,,,,2,,,81,0
60672,note_on,,,,,4,0,9,,,,,8,,,57,60
60672,note_on,,,,,0,0,4,,,,,3,,,73,108
60720,note_off,,,,,48,0,4,,,,,3,,,73,0
60720,note_on,,,,,0,0,4,,,,,3,,,74,108
60720,note_off,,,,,48,0,3,,,,,2,,,76,0
60720,note_on,,,,,0,0,2,,,,,1,,,77,77
60720,note_off,,,,,48,0,1,,,,,0,,,76,0
60720,note_on,,,,,0,0,1,,,,,0,,,77,80
60720,note_on,,,,,0,0,3,,,,,2,,,77,100
60720,note_off,,,,,48,0,2,,,,,1,,,76,0
60768,note_off,,,,,48,0,4,,,,,3,,,74,0
60768,note_off,,,,,48,0,2,,,,,1,,,77,0
60768,note_on,,,,,0,0,2,,,,,1,,,79,77
60768,note_off,,,,,48,0,1,,,,,0,,,77,0
60768,note_on,,,,,0,0,1,,,,,0,,,79,80
60768,note_on,,,,,0,0,3,,,,,2,,,79,100
60768,note_off,,,,,48,0,3,,,,,2,,,77,0
60768,note_on,,,,,0,0,4,,,,,3,,,76,108
60860,note_off,,,,,92,0,2,,,,,1,,,79,0
60860,note_off,,,,,188,0,7,,,,,6,,,45,0
60860,note_off,,,,,0,0,8,,,,,7,,,73,0
60860,note_off,,,,,0,0,8,,,,,7,,,69,0
60860,note_off,,,,,188,0,6,,,,,5,,,57,0
60860,note_off,,,,,188,0,5,,,,,4,,,69,0
60860,note_off,,,,,188,0,8,,,,,7,,,64,0
60860,note_off,,,,,92,0,1,,,,,0,,,79,0
60860,note_off,,,,,188,0,9,,,,,8,,,57,0
60864,note_on,,,,,0,0,8,,,,,7,,,69,60
60864,note_on,,,,,0,0,8,,,,,7,,,74,60
60864,note_on,,,,,4,0,1,,,,,0,,,77,80
60864,note_off,,,,,96,0,3,,,,,2,,,79,0
60864,note_on,,,,,4,0,2,,,,,1,,,77,77
60864,note_on,,,,,0,0,3,,,,,2,,,77,100
60864,note_on,,,,,4,0,5,,,,,4,,,69,92
60864,note_on,,,,,4,0,6,,,,,5,,,62,92
60864,note_on,,,,,4,0,7,,,,,6,,,50,80
60864,note_off,,,,,96,0,4,,,,,3,,,76,0
60864,note_on,,,,,0,0,4,,,,,3,,,74,108
60864,note_on,,,,,4,0,8,,,,,7,,,65,60
60864,note_on,,,,,4,0,9,,,,,8,,,62,60
61052,note_off,,,,,188,0,7,,,,,6,,,50,0
61052,note_off,,,,,188,0,5,,,,,4,,,69,0
61052,note_off,,,,,188,0,9,,,,,8,,,62,0
61052,note_off,,,,,188,0,6,,,,,5,,,62,0
61056,note_on,,,,,4,0,9,,,,,8,,,50,60
61056,note_on,,,,,4,0,5,,,,,4,,,69,92
61056,note_off,,,,,192,0,4,,,,,3,,,74,0
61056,note_on,,,,,4,0,6,,,,,5,,,50,92
61056,note_on,,,,,0,0,4,,,,,3,,,74,108
61056,note_on,,,,,4,0,7,,,,,6,,,38,80
61148,note_off,,,,,284,0,1,,,,,0,,,77,0
61148,note_off,,,,,284,0,2,,,,,1,,,77,0
61152,note_on,,,,,4,0,2,,,,,1,,,79,77
61152,note_on,,,,,4,0,1,,,,,0,,,79,80
61152,note_off,,,,,288,0,3,,,,,2,,,77,0
61152,note_on,,,,,0,0,3,,,,,2,,,79,100
61184,note_off,,,,,0,0,8,,,,,7,,,69,0
61184,note_off,,,,,320,0,8,,,,,7,,,65,0
61184,note_off,,,,,0,0,8,,,,,7,,,74,0
61244,note_off,,,,,188,0,9,,,,,8,,,50,0
61244,note_off,,,,,188,0,5,,,,,4,,,69,0
61244,note_off,,,,,188,0,7,,,,,6,,,38,0
61244,note_off,,,,,188,0,6,,,,,5,,,50,0
61244,note_off,,,,,92,0,2,,,,,1,,,79,0
61244,note_off,,,,,92,0,1,,,,,0,,,79,0
61248,note_on,,,,,0,0,4,,,,,3,,,69,108
61248,note_on,,,,,0,0,8,,,,,7,,,69,60
61248,note_on,,,,,0,0,8,,,,,7,,,74,60
61248,note_on,,,,,4,0,5,,,,,4,,,62,92
61248,note_on,,,,,4,0,1,,,,,0,,,81,80
61248,note_off,,,,,192,0,4,,,,,3,,,74,0
61248,note_on,,,,,4,0,6,,,,,5,,,53,92
61248,note_on,,,,,4,0,9,,,,,8,,,53,60
61248,note_on,,,,,4,0,7,,,,,6,,,41,80
61248,note_off,,,,,96,0,3,,,,,2,,,79,0
61248,note_on,,,,,64,0,8,,,,,7,,,65,60
61248,note_on,,,,,4,0,2,,,,,1,,,81,77
61248,note_on,,,,,0,0,3,,,,,2,,,81,100
61436,note_off,,,,,188,0,1,,,,,0,,,81,0
61436,note_off,,,,,188,0,8,,,,,7,,,65,0
61436,note_off,,,,,188,0,9,,,,,8,,,53,0
61436,note_off,,,,,188,0,2,,,,,1,,,81,0
61436,note_off,,,,,188,0,5,,,,,4,,,62,0
61436,note_off,,,,,0,0,8,,,,,7,,,74,0
61436,note_off,,,,,188,0,7,,,,,6,,,41,0
61436,note_off,,,,,188,0,6,,,,,5,,,53,0
61436,note_off,,,,,0,0,8,,,,,7,,,69,0
61440,note_on,,,,,4,0,9,,,,,8,,,57,60
61440,note_off,,,,,192,0,3,,,,,2,,,81,0
61440,note_on,,,,,0,0,3,,,,,2,,,76,100
61440,note_on,,,,,4,0,2,,,,,1,,,76,77
61440,note_on,,,,,4,0,7,,,,,6,,,45,80
61440,note_on,,,,,4,0,5,,,,,4,,,69,92
61440,note_on,,,,,4,0,8,,,,,7,,,64,60
61440,note_off,,,,,192,0,4,,,,,3,,,69,0
61440,note_on,,,,,0,0,4,,,,,3,,,73,108
61440,note_on,,,,,0,0,8,,,,,7,,,73,60
61440,note_on,,,,,4,0,6,,,,,5,,,57,92
61440,note_on,,,,,4,0,1,,,,,0,,,76,80
61440,note_on,,,,,0,0,8,,,,,7,,,69,60
61488,note_on,,,,,0,0,1,,,,,0,,,77,80
61488,note_on,,,,,0,0,2,,,,,1,,,77,77
61488,note_off,,,,,48,0,2,,,,,1,,,76,0
61488,note_off,,,,,48,0,4,,,,,3,,,73,0
61488,note_on,,,,,0,0,4,,,,,3,,,74,108
61488,note_off,,,,,48,0,1,,,,,0,,,76,0
61488,note_off,,,,,48,0,3,,,,,2,,,76,0
61488,note_on,,,,,0,0,3,,,,,2,,,77,100
61536,note_on,,,,,0,0,3,,,,,2,,,79,100
61536,note_on,,,,,0,0,2,,,,,1,,,79,77
61536,note_on,,,,,0,0,1,,,,,0,,,79,80
61536,note_off,,,,,48,0,3,,,,,2,,,77,0
61536,note_off,,,,,48,0,1,,,,,0,,,77,0
61536,note_off,,,,,48,0,2,,,,,1,,,77,0
61536,note_off,,,,,48,0,4,,,,,3,,,74,0
61536,note_on,,,,,0,0,4,,,,,3,,,76,108
61628,note_off,,,,,188,0,9,,,,,8,,,57,0
61628,note_off,,,,,92,0,2,,,,,1,,,79,0
61628,note_off,,,,,0,0,8,,,,,7,,,73,0
61628,note_off,,,,,92,0,1,,,,,0,,,79,0
61628,note_off,,,,,0,0,8,,,,,7,,,69,0
61628,note_off,,,,,188,0,7,,,,,6,,,45,0
61628,note_off,,,,,188,0,6,,,,,5,,,57,0
61628,note_off,,,,,188,0,5,,,,,4,,,69,0
61628,note_off,,,,,188,0,8,,,,,7,,,64,0
61632,note_on,,,,,4,0,9,,,,,8,,,62,60
61632,note_on,,,,,0,0,8,,,,,7,,,74,60
61632,note_on,,,,,0,0,8,,,,,7,,,69,60
61632,note_on,,,,,4,0,8,,,,,7,,,65,60
61632,note_off,,,,,96,0,3,,,,,2,,,79,0
61632,note_on,,,,,4,0,1,,,,,0,,,77,80
61632,note_on,,,,,0,0,3,,,,,2,,,77,100
61632,note_off,,,,,96,0,4,,,,,3,,,76,0
61632,note_on,,,,,0,0,4,,,,,3,,,74,108
61632,note_on,,,,,4,0,6,,,,,5,,,62,92
61632,note_on,,,,,4,0,5,,,,,4,,,69,92
61632,note_on,,,,,4,0,7,,,,,6,,,50,80
61632,note_on,,,,,4,0,2,,,,,1,,,77,77
61772,note_off,,,,,140,0,2,,,,,1,,,77,0
61772,note_off,,,,,140,0,1,,,,,0,,,77,0
61776,note_on,,,,,4,0,2,,,,,1,,,76,77
61776,note_on,,,,,0,0,3,,,,,2,,,76,100
61776,note_on,,,,,4,0,1,,,,,0,,,76,80
61776,note_off,,,,,144,0,3,,,,,2,,,77,0
61820,note_off,,,,,44,0,1,,,,,0,,,76,0
61820,note_off,,,,,188,0,6,,,,,5,,,62,0
61820,note_off,,,,,188,0,9,,,,,8,,,62,0
61820,note_off,,,,,188,0,7,,,,,6,,,50,0
61820,note_off,,,,,188,0,8,,,,,7,,,65,0
61820,note_off,,,,,0,0,8,,,,,7,,,69,0
61820,note_off,,,,,0,0,8,,,,,7,,,74,0
61820,note_off,,,,,44,0,2,,,,,1,,,76,0
61820,note_off,,,,,188,0,5,,,,,4,,,69,0
61824,note_on,,,,,4,0,7,,,,,6,,,38,80
61824,note_off,,,,,48,0,3,,,,,2,,,76,0
61824,note_on,,,,,4,0,9,,,,,8,,,50,60
61824,note_on,,,,,4,0,6,,,,,5,,,50,92
61824,note_on,,,,,4,0,1,,,,,0,,,74,80
61824,note_on,,,,,4,0,2,,,,,1,,,74,77
61824,note_on,,,,,0,0,8,,,,,7,,,69,60
61824,note_on,,,,,0,0,8,,,,,7,,,65,60
61824,note_on,,,,,4,0,8,,,,,7,,,62,60
61824,note_off,,,,,192,0,4,,,,,3,,,74,0
61824,note_on,,,,,0,0,4,,,,,3,,,69,108
61824,note_on,,,,,4,0,5,,,,,4,,,65,92
61824,note_on,,,,,0,0,3,,,,,2,,,74,100
62012,note_off,,,,,188,0,8,,,,,7,,,62,0
62012,note_off,,,,,188,0,6,,,,,5,,,50,0
62012,note_off,,,,,188,0,7,,,,,6,,,38,0
62012,note_off,,,,,188,0,1,,,,,0,,,74,0
62012,note_off,,,,,188,0,5,,,,,4,,,65,0
62012,note_off,,,,,0,0,8,,,,,7,,,65,0
62012,note_off,,,,,0,0,8,,,,,7,,,69,0
62012,note_off,,,,,188,0,2,,,,,1,,,74,0
62012,note_off,,,,,188,0,9,,,,,8,,,50,0
62016,note_off,,,,,192,0,3,,,,,2,,,74,0
62016,note_off,,,,,192,0,4,,,,,3,,,69,0
62208,note_on,,,,,196,0,6,,,,,5,,,41,45
62208,note_on,,,,,0,0,8,,,,,7,,,62,30
62208,note_on,,,,,196,0,2,,,,,1,,,62,37
62208,note_on,,,,,196,0,8,,,,,7,,,57,30
62208,note_on,,,,,192,0,3,,,,,2,,,62,49
62208,note_on,,,,,196,0,7,,,,,6,,,29,39
62208,note_on,,,,,196,0,1,,,,,0,,,62,39
62208,note_on,,,,,196,0,9,,,,,8,,,41,30
62208,note_on,,,,,196,0,5,,,,,4,,,57,45
62208,note_on,,,,,192,0,4,,,,,3,,,62,60
62348,note_off,,,,,140,0,1,,,,,0,,,62,0
62348,note_off,,,,,140,0,6,,,,,5,,,41,0
62348,note_off,,,,,140,0,2,,,,,1,,,62,0
62348,note_off,,,,,0,0,8,,,,,7,,,62,0
62348,note_off,,,,,140,0,8,,,,,7,,,57,0
62348,note_off,,,,,140,0,7,,,,,6,,,29,0
62348,note_off,,,,,140,0,9,,,,,8,,,41,0
62348,note_off,,,,,140,0,5,,,,,4,,,57,0
62352,note_on,,,,,4,0,5,,,,,4,,,57,45
62352,note_on,,,,,4,0,6,,,,,5,,,45,45
62352,note_on,,,,,4,0,2,,,,,1,,,64,37
62352,note_on,,,,,4,0,1,,,,,0,,,64,39
62352,note_on,,,,,4,0,7,,,,,6,,,33,39
62352,note_on,,,,,4,0,9,,,,,8,,,45,30
62352,note_on,,,,,0,0,3,,,,,2,,,64,49
62352,note_off,,,,,144,0,3,,,,,2,,,62,0
62352,note_off,,,,,144,0,4,,,,,3,,,62,0
62352,note_on,,,,,0,0,8,,,,,7,,,62,30
62352,note_on,,,,,0,0,8,,,,,7,,,60,30
62352,note_on,,,,,4,0,8,,,,,7,,,55,30
62352,note_on,,,,,0,0,4,,,,,3,,,61,60
62396,note_off,,,,,44,0,5,,,,,4,,,57,0
62396,note_off,,,,,0,0,8,,,,,7,,,62,0
62396,note_off,,,,,44,0,1,,,,,0,,,64,0
62396,note_off,,,,,0,0,8,,,,,7,,,60,0
62396,note_off,,,,,44,0,8,,,,,7,,,55,0
62396,note_off,,,,,44,0,2,,,,,1,,,64,0
62396,note_off,,,,,44,0,6,,,,,5,,,45,0
62396,note_off,,,,,44,0,7,,,,,6,,,33,0
62396,note_off,,,,,44,0,9,,,,,8,,,45,0
62400,note_on,,,,,0,0,8,,,,,7,,,63,30
62400,note_on,,,,,0,0,8,,,,,7,,,60,30
62400,note_on,,,,,4,0,8,,,,,7,,,55,30
62400,note_on,,,,,4,0,1,,,,,0,,,67,39
62400,note_on,,,,,4,0,9,,,,,8,,,50,30
62400,note_on,,,,,4,0,7,,,,,6,,,38,39
62400,note_on,,,,,0,0,4,,,,,3,,,62,60
62400,note_on,,,,,4,0,5,,,,,4,,,57,45
62400,note_on,,,,,0,0,3,,,,,2,,,67,49
62400,note_on,,,,,4,0,6,,,,,5,,,50,45
62400,note_off,,,,,48,0,4,,,,,3,,,61,0
62400,note_on,,,,,4,0,2,,,,,1,,,67,37
62400,note_off,,,,,48,0,3,,,,,2,,,64,0
62424,note_off,,,,,24,0,3,,,,,2,,,67,0
62424,note_on,,,,,0,0,3,,,,,2,,,65,49
62424,note_off,,,,,24,0,1,,,,,0,,,67,0
62424,note_on,,,,,0,0,1,,,,,0,,,65,39
62424,note_off,,,,,24,0,2,,,,,1,,,67,0
62424,note_on,,,,,0,0,2,,,,,1,,,65,37
62448,note_on,,,,,0,0,2,,,,,1,,,67,37
62448,note_on,,,,,0,0,1,,,,,0,,,67,39
62448,note_off,,,,,24,0,2,,,,,1,,,65,0
62448,note_off,,,,,24,0,1,,,,,0,,,65,0
62448,note_on,,,,,0,0,3,,,,,2,,,67,49
62448,note_off,,,,,24,0,3,,,,,2,,,65,0
62472,note_off,,,,,24,0,2,,,,,1,,,67,0
62472,note_on,,,,,0,0,3,,,,,2,,,65,49
62472,note_off,,,,,24,0,3,,,,,2,,,67,0
62472,note_off,,,,,24,0,1,,,,,0,,,67,0
62472,note_on,,,,,0,0,1,,,,,0,,,65,39
62472,note_on,,,,,0,0,2,,,,,1,,,65,37
62496,note_on,,,,,0,0,1,,,,,0,,,67,39
62496,note_on,,,,,0,0,3,,,,,2,,,67,49
62496,note_off,,,,,24,0,3,,,,,2,,,65,0
62496,note_off,,,,,24,0,1,,,,,0,,,65,0
62496,note_off,,,,,24,0,2,,,,,1,,,65,0
62496,note_on,,,,,0,0,2,,,,,1,,,67,37
62520,note_off,,,,,24,0,2,,,,,1,,,67,0
62520,note_off,,,,,24,0,1,,,,,0,,,67,0
62520,note_on,,,,,0,0,1,,,,,0,,,65,39
62520,note_on,,,,,0,0,2,,,,,1,,,65,37
62520,note_on,,,,,0,0,3,,,,,2,,,65,49
62520,note_off,,,,,24,0,3,,,,,2,,,67,0
62544,note_on,,,,,0,0,3,,,,,2,,,67,49
62544,note_off,,,,,24,0,2,,,,,1,,,65,0
62544,note_on,,,,,0,0,2,,,,,1,,,67,37
62544,note_off,,,,,24,0,1,,,,,0,,,65,0
62544,note_on,,,,,0,0,1,,,,,0,,,67,39
62544,note_off,,,,,24,0,3,,,,,2,,,65,0
62568,note_off,,,,,24,0,3,,,,,2,,,67,0
62568,note_on,,,,,0,0,3,,,,,2,,,65,49
62568,note_off,,,,,24,0,2,,,,,1,,,67,0
62568,note_on,,,,,0,0,2,,,,,1,,,65,37
62568,note_on,,,,,0,0,1,,,,,0,,,65,39
62568,note_off,,,,,24,0,1,,,,,0,,,67,0
62588,note_off,,,,,188,0,9,,,,,8,,,50,0
62588,note_off,,,,,188,0,5,,,,,4,,,57,0
62588,note_off,,,,,188,0,7,,,,,6,,,38,0
62588,note_off,,,,,188,0,6,,,,,5,,,50,0
62592,note_on,,,,,0,0,4,,,,,3,,,62,60
62592,note_on,,,,,4,0,7,,,,,6,,,26,39
62592,note_on,,,,,4,0,9,,,,,8,,,38,30
62592,note_on,,,,,4,0,6,,,,,5,,,38,45
62592,note_on,,,,,4,0,5,,,,,4,,,57,45
62592,note_off,,,,,192,0,4,,,,,3,,,62,0
62688,note_on,,,,,0,0,2,,,,,1,,,67,37
62688,note_off,,,,,120,0,2,,,,,1,,,65,0
62688,note_off,,,,,120,0,1,,,,,0,,,65,0
62688,note_on,,,,,0,0,1,,,,,0,,,67,39
62688,note_off,,,,,120,0,3,,,,,2,,,65,0
62688,note_on,,,,,0,0,3,,,,,2,,,67,49
62720,note_off,,,,,0,0,8,,,,,7,,,63,0
62720,note_off,,,,,0,0,8,,,,,7,,,60,0
62720,note_off,,,,,320,0,8,,,,,7,,,55,0
62780,note_off,,,,,188,0,7,,,,,6,,,26,0
62780,note_off,,,,,188,0,6,,,,,5,,,38,0
62780,note_off,,,,,92,0,2,,,,,1,,,67,0
62780,note_off,,,,,92,0,1,,,,,0,,,67,0
62780,note_off,,,,,188,0,9,,,,,8,,,38,0
62780,note_off,,,,,188,0,5,,,,,4,,,57,0
62784,note_on,,,,,4,0,9,,,,,8,,,41,30
62784,note_on,,,,,4,0,1,,,,,0,,,69,39
62784,note_on,,,,,0,0,8,,,,,7,,,60,30
62784,note_off,,,,,96,0,3,,,,,2,,,67,0
62784,note_on,,,,,4,0,6,,,,,5,,,41,45
62784,note_on,,,,,0,0,4,,,,,3,,,62,60
62784,note_off,,,,,192,0,4,,,,,3,,,62,0
62784,note_on,,,,,4,0,5,,,,,4,,,57,45
62784,note_on,,,,,4,0,2,,,,,1,,,69,37
62784,note_on,,,,,64,0,8,,,,,7,,,55,30
62784,note_on,,,,,4,0,7,,,,,6,,,29,39
62784,note_on,,,,,0,0,3,,,,,2,,,69,49
62972,note_off,,,,,188,0,6,,,,,5,,,41,0
62972,note_off,,,,,188,0,9,,,,,8,,,41,0
62972,note_off,,,,,188,0,5,,,,,4,,,57,0
62972,note_off,,,,,0,0,8,,,,,7,,,60,0
62972,note_off,,,,,188,0,7,,,,,6,,,29,0
62972,note_off,,,,,188,0,8,,,,,7,,,55,0
62972,note_off,,,,,188,0,2,,,,,1,,,69,0
62972,note_off,,,,,188,0,1,,,,,0,,,69,0
62976,note_on,,,,,0,0,8,,,,,7,,,60,30
62976,note_on,,,,,0,0,8,,,,,7,,,62,30
62976,note_on,,,,,0,0,3,,,,,2,,,64,49
62976,note_on,,,,,4,0,1,,,,,0,,,64,39
62976,note_on,,,,,4,0,8,,,,,7,,,55,30
62976,note_off,,,,,192,0,3,,,,,2,,,69,0
62976,note_off,,,,,192,0,4,,,,,3,,,62,0
62976,note_on,,,,,4,0,6,,,,,5,,,45,45
62976,note_on,,,,,0,0,4,,,,,3,,,61,60
62976,note_on,,,,,4,0,9,,,,,8,,,45,30
62976,note_on,,,,,4,0,5,,,,,4,,,57,45
62976,note_on,,,,,4,0,2,,,,,1,,,64,37
62976,note_on,,,,,4,0,7,,,,,6,,,33,39
63024,note_on,,,,,0,0,2,,,,,1,,,65,37
63024,note_off,,,,,48,0,3,,,,,2,,,64,0
63024,note_on,,,,,0,0,3,,,,,2,,,65,49
63024,note_on,,,,,0,0,1,,,,,0,,,65,39
63024,note_off,,,,,48,0,1,,,,,0,,,64,0
63024,note_off,,,,,48,0,2,,,,,1,,,64,0
63072,note_on,,,,,0,0,1,,,,,0,,,67,39
63072,note_off,,,,,48,0,1,,,,,0,,,65,0
63072,note_on,,,,,0,0,2,,,,,1,,,67,37
63072,note_off,,,,,48,0,2,,,,,1,,,65,0
63072,note_on,,,,,0,0,3,,,,,2,,,67,49
63072,note_off,,,,,48,0,3,,,,,2,,,65,0
63164,note_off,,,,,188,0,6,,,,,5,,,45,0
63164,note_off,,,,,188,0,9,,,,,8,,,45,0
63164,note_off,,,,,92,0,2,,,,,1,,,67,0
63164,note_off,,,,,188,0,8,,,,,7,,,55,0
63164,note_off,,,,,0,0,8,,,,,7,,,60,0
63164,note_off,,,,,0,0,8,,,,,7,,,62,0
63164,note_off,,,,,92,0,1,,,,,0,,,67,0
63164,note_off,,,,,188,0,7,,,,,6,,,33,0
63164,note_off,,,,,188,0,5,,,,,4,,,57,0
63168,note_on,,,,,4,0,1,,,,,0,,,65,39
63168,note_on,,,,,4,0,5,,,,,4,,,57,45
63168,note_on,,,,,4,0,6,,,,,5,,,50,45
63168,note_off,,,,,96,0,3,,,,,2,,,67,0
63168,note_on,,,,,0,0,3,,,,,2,,,65,49
63168,note_on,,,,,0,0,4,,,,,3,,,62,60
63168,note_off,,,,,192,0,4,,,,,3,,,61,0
63168,note_on,,,,,4,0,8,,,,,7,,,70,30
63168,note_on,,,,,4,0,9,,,,,8,,,50,30
63168,note_on,,,,,4,0,7,,,,,6,,,38,39
63168,note_on,,,,,4,0,2,,,,,1,,,65,37
63356,note_off,,,,,188,0,8,,,,,7,,,70,0
63356,note_off,,,,,188,0,7,,,,,6,,,38,0
63356,note_off,,,,,188,0,6,,,,,5,,,50,0
63356,note_off,,,,,188,0,5,,,,,4,,,57,0
63356,note_off,,,,,188,0,9,,,,,8,,,50,0
63360,note_on,,,,,4,0,8,,,,,7,,,58,30
63360,note_on,,,,,4,0,5,,,,,4,,,57,45
63360,note_on,,,,,0,0,4,,,,,3,,,62,60
63360,note_on,,,,,4,0,7,,,,,6,,,26,39
63360,note_on,,,,,4,0,6,,,,,5,,,38,45
63360,note_off,,,,,192,0,4,,,,,3,,,62,0
63360,note_on,,,,,4,0,9,,,,,8,,,38,30
63452,note_off,,,,,284,0,2,,,,,1,,,65,0
63452,note_off,,,,,284,0,1,,,,,0,,,65,0
63456,note_off,,,,,288,0,3,,,,,2,,,65,0
63456,note_on,,,,,0,0,3,,,,,2,,,67,49
63456,note_on,,,,,4,0,1,,,,,0,,,67,39
63456,note_on,,,,,4,0,2,,,,,1,,,67,37
63548,note_off,,,,,188,0,8,,,,,7,,,58,0
63548,note_off,,,,,188,0,6,,,,,5,,,38,0
63548,note_off,,,,,188,0,5,,,,,4,,,57,0
63548,note_off,,,,,92,0,1,,,,,0,,,67,0
63548,note_off,,,,,188,0,9,,,,,8,,,38,0
63548,note_off,,,,,188,0,7,,,,,6,,,26,0
63548,note_off,,,,,92,0,2,,,,,1,,,67,0
63552,note_on,,,,,4,0,7,,,,,6,,,29,39
63552,note_on,,,,,4,0,9,,,,,8,,,41,30
63552,note_on,,,,,4,0,8,,,,,7,,,62,30
63552,note_on,,,,,0,0,3,,,,,2,,,69,49
63552,note_on,,,,,4,0,5,,,,,4,,,57,45
63552,note_on,,,,,4,0,6,,,,,5,,,41,45
63552,note_off,,,,,96,0,3,,,,,2,,,67,0
63552,note_on,,,,,4,0,1,,,,,0,,,69,39
63552,note_on,,,,,4,0,2,,,,,1,,,69,37
63552,note_off,,,,,192,0,4,,,,,3,,,62,0
63552,note_on,,,,,0,0,4,,,,,3,,,62,60
63740,note_off,,,,,188,0,6,,,,,5,,,41,0
63740,note_off,,,,,188,0,7,,,,,6,,,29,0
63740,note_off,,,,,188,0,5,,,,,4,,,57,0
63740,note_off,,,,,188,0,9,,,,,8,,,41,0
63740,note_off,,,,,188,0,2,,,,,1,,,69,0
63740,note_off,,,,,188,0,8,,,,,7,,,62,0
63740,note_off,,,,,188,0,1,,,,,0,,,69,0
63744,note_on,,,,,4,0,9,,,,,8,,,45,30
63744,note_on,,,,,4,0,5,,,,,4,,,57,45
63744,note_on,,,,,4,0,6,,,,,5,,,45,45
63744,note_on,,,,,0,0,3,,,,,2,,,64,49
63744,note_on,,,,,4,0,2,,,,,1,,,64,37
63744,note_off,,,,,192,0,3,,,,,2,,,69,0
63744,note_on,,,,,4,0,8,,,,,7,,,65,30
63744,note_on,,,,,4,0,7,,,,,6,,,33,39
63744,note_on,,,,,0,0,4,,,,,3,,,61,60
63744,note_off,,,,,192,0,4,,,,,3,,,62,0
63744,note_on,,,,,4,0,1,,,,,0,,,64,39
63792,note_on,,,,,0,0,2,,,,,1,,,65,37
63792,note_off,,,,,48,0,1,,,,,0,,,64,0
63792,note_on,,,,,0,0,1,,,,,0,,,65,39
63792,note_off,,,,,48,0,2,,,,,1,,,64,0
63792,note_off,,,,,48,0,3,,,,,2,,,64,0
63792,note_on,,,,,0,0,3,,,,,2,,,65,49
63840,note_off,,,,,48,0,1,,,,,0,,,65,0
63840,note_off,,,,,48,0,2,,,,,1,,,65,0
63840,note_off,,,,,48,0,3,,,,,2,,,65,0
63840,note_on,,,,,0,0,2,,,,,1,,,67,37
63840,note_on,,,,,0,0,3,,,,,2,,,67,49
63840,note_on,,,,,0,0,1,,,,,0,,,67,39
63932,note_off,,,,,188,0,9,,,,,8,,,45,0
63932,note_off,,,,,188,0,7,,,,,6,,,33,0
63932,note_off,,,,,188,0,5,,,,,4,,,57,0
63932,note_off,,,,,92,0,2,,,,,1,,,67,0
63932,note_off,,,,,188,0,8,,,,,7,,,65,0
63932,note_off,,,,,92,0,1,,,,,0,,,67,0
63932,note_off,,,,,188,0,6,,,,,5,,,45,0
63936,note_on,,,,,4,0,2,,,,,1,,,65,37
63936,note_off,,,,,96,0,3,,,,,2,,,67,0
63936,note_on,,,,,0,0,4,,,,,3,,,62,60
63936,note_on,,,,,4,0,1,,,,,0,,,65,39
63936,note_on,,,,,4,0,9,,,,,8,,,50,30
63936,note_on,,,,,4,0,6,,,,,5,,,50,45
63936,note_on,,,,,4,0,5,,,,,4,,,57,45
63936,note_on,,,,,4,0,7,,,,,6,,,38,39
63936,note_on,,,,,4,0,8,,,,,7,,,70,30
63936,note_off,,,,,192,0,4,,,,,3,,,61,0
63936,note_on,,,,,0,0,3,,,,,2,,,65,49
64124,note_off,,,,,188,0,9,,,,,8,,,50,0
64124,note_off,,,,,188,0,6,,,,,5,,,50,0
64124,note_off,,,,,188,0,7,,,,,6,,,38,0
64124,note_off,,,,,188,0,8,,,,,7,,,70,0
64124,note_off,,,,,188,0,5,,,,,4,,,57,0
64128,note_on,,,,,4,0,6,,,,,5,,,38,45
64128,note_on,,,,,4,0,5,,,,,4,,,57,45
64128,note_on,,,,,4,0,7,,,,,6,,,26,39
64128,note_on,,,,,0,0,4,,,,,3,,,62,60
64128,note_off,,,,,192,0,4,,,,,3,,,62,0
64128,note_on,,,,,4,0,8,,,,,7,,,58,30
64128,note_on,,,,,4,0,9,,,,,8,,,38,30
64220,note_off,,,,,284,0,1,,,,,0,,,65,0
64220,note_off,,,,,284,0,2,,,,,1,,,65,0
64224,note_on,,,,,0,0,3,,,,,2,,,67,49
64224,note_on,,,,,4,0,1,,,,,0,,,67,39
64224,note_off,,,,,288,0,3,,,,,2,,,65,0
64224,note_on,,,,,4,0,2,,,,,1,,,67,37
64316,note_off,,,,,92,0,1,,,,,0,,,67,0
64316,note_off,,,,,188,0,5,,,,,4,,,57,0
64316,note_off,,,,,188,0,9,,,,,8,,,38,0
64316,note_off,,,,,188,0,8,,,,,7,,,58,0
64316,note_off,,,,,188,0,6,,,,,5,,,38,0
64316,note_off,,,,,92,0,2,,,,,1,,,67,0
64316,note_off,,,,,188,0,7,,,,,6,,,26,0
64320,note_off,,,,,192,0,4,,,,,3,,,62,0
64320,note_on,,,,,4,0,1,,,,,0,,,69,39
64320,note_off,,,,,96,0,3,,,,,2,,,67,0
64320,note_on,,,,,4,0,7,,,,,6,,,29,39
64320,note_on,,,,,4,0,2,,,,,1,,,69,37
64320,note_on,,,,,4,0,8,,,,,7,,,62,30
64320,note_on,,,,,4,0,9,,,,,8,,,41,30
64320,note_on,,,,,4,0,6,,,,,5,,,41,45
64320,note_on,,,,,0,0,3,,,,,2,,,69,49
64320,note_on,,,,,4,0,5,,,,,4,,,57,45
64320,note_on,,,,,0,0,4,,,,,3,,,62,60
64508,note_off,,,,,188,0,2,,,,,1,,,69,0
64508,note_off,,,,,188,0,5,,,,,4,,,57,0
64508,note_off,,,,,188,0,1,,,,,0,,,69,0
64508,note_off,,,,,188,0,9,,,,,8,,,41,0
64508,note_off,,,,,188,0,6,,,,,5,,,41,0
64508,note_off,,,,,188,0,7,,,,,6,,,29,0
64508,note_off,,,,,188,0,8,,,,,7,,,62,0
64512,note_on,,,,,4,0,6,,,,,5,,,45,45
64512,note_on,,,,,4,0,1,,,,,0,,,57,39
64512,note_on,,,,,4,0,7,,,,,6,,,33,39
64512,note_on,,,,,0,0,4,,,,,3,,,57,60
64512,note_off,,,,,192,0,4,,,,,3,,,62,0
64512,note_on,,,,,4,0,8,,,,,7,,,65,30
64512,note_on,,,,,4,0,9,,,,,8,,,45,30
64512,note_on,,,,,0,0,3,,,,,2,,,57,49
64512,note_off,,,,,192,0,3,,,,,2,,,69,0
64512,note_on,,,,,4,0,5,,,,,4,,,61,45
64512,note_on,,,,,4,0,2,,,,,1,,,57,37
64700,note_off,,,,,188,0,7,,,,,6,,,33,0
64700,note_off,,,,,188,0,8,,,,,7,,,65,0
64700,note_off,,,,,188,0,2,,,,,1,,,57,0
64700,note_off,,,,,188,0,6,,,,,5,,,45,0
64700,note_off,,,,,188,0,9,,,,,8,,,45,0
64700,note_off,,,,,188,0,5,,,,,4,,,61,0
64700,note_off,,,,,188,0,1,,,,,0,,,57,0
64704,note_on,,,,,4,0,7,,,,,6,,,41,80
64704,note_on,,,,,0,0,4,,,,,3,,,77,108
64704,note_off,,,,,192,0,4,,,,,3,,,57,0
64704,note_on,,,,,4,0,9,,,,,8,,,53,60
64704,note_on,,,,,4,0,1,,,,,0,,,81,80
64704,note_on,,,,,0,0,8,,,,,7,,,62,60
64704,note_on,,,,,4,0,8,,,,,7,,,57,60
64704,note_on,,,,,0,0,3,,,,,2,,,81,100
64704,note_off,,,,,192,0,3,,,,,2,,,57,0
64704,note_on,,,,,4,0,6,,,,,5,,,53,92
64704,note_on,,,,,4,0,2,,,,,1,,,81,77
64704,note_on,,,,,4,0,5,,,,,4,,,62,92
64844,note_off,,,,,140,0,8,,,,,7,,,57,0
64844,note_off,,,,,0,0,8,,,,,7,,,62,0
64844,note_off,,,,,140,0,2,,,,,1,,,81,0
64844,note_off,,,,,140,0,6,,,,,5,,,53,0
64844,note_off,,,,,140,0,7,,,,,6,,,41,0
64844,note_off,,,,,140,0,1,,,,,0,,,81,0
64844,note_off,,,,,140,0,9,,,,,8,,,53,0
64844,note_off,,,,,140,0,5,,,,,4,,,62,0
64848,note_on,,,,,4,0,5,,,,,4,,,61,92
64848,note_off,,,,,144,0,3,,,,,2,,,81,0
64848,note_on,,,,,0,0,3,,,,,2,,,79,100
64848,note_on,,,,,4,0,1,,,,,0,,,79,80
64848,note_on,,,,,4,0,6,,,,,5,,,57,92
64848,note_on,,,,,4,0,9,,,,,8,,,57,60
64848,note_off,,,,,144,0,4,,,,,3,,,77,0
64848,note_on,,,,,0,0,4,,,,,3,,,76,108
64848,note_on,,,,,4,0,7,,,,,6,,,45,80
64848,note_on,,,,,4,0,2,,,,,1,,,79,77
64848,note_on,,,,,4,0,8,,,,,7,,,60,60
64848,note_on,,,,,0,0,8,,,,,7,,,62,60
64892,note_off,,,,,44,0,1,,,,,0,,,79,0
64892,note_off,,,,,44,0,6,,,,,5,,,57,0
64892,note_off,,,,,44,0,2,,,,,1,,,79,0
64892,note_off,,,,,44,0,9,,,,,8,,,57,0
64892,note_off,,,,,44,0,5,,,,,4,,,61,0
64892,note_off,,,,,44,0,7,,,,,6,,,45,0
64892,note_off,,,,,0,0,8,,,,,7,,,62,0
64892,note_off,,,,,44,0,8,,,,,7,,,60,0
64896,note_on,,,,,0,0,8,,,,,7,,,63,60
64896,note_on,,,,,4,0,6,,,,,5,,,62,92
64896,note_off,,,,,48,0,3,,,,,2,,,79,0
64896,note_on,,,,,0,0,3,,,,,2,,,77,100
64896,note_on,,,,,4,0,2,,,,,1,,,77,77
64896,note_on,,,,,4,0,8,,,,,7,,,60,60
64896,note_on,,,,,4,0,9,,,,,8,,,62,60
64896,note_on,,,,,4,0,1,,,,,0,,,77,80
64896,note_on,,,,,4,0,7,,,,,6,,,50,80
64896,note_on,,,,,0,0,4,,,,,3,,,74,108
64896,note_off,,,,,48,0,4,,,,,3,,,76,0
64896,note_on,,,,,4,0,5,,,,,4,,,69,92
65036,note_off,,,,,0,0,8,,,,,7,,,63,0
65036,note_off,,,,,140,0,8,,,,,7,,,60,0
65036,note_off,,,,,140,0,9,,,,,8,,,62,0
65036,note_off,,,,,140,0,1,,,,,0,,,77,0
65036,note_off,,,,,140,0,7,,,,,6,,,50,0
65036,note_off,,,,,140,0,2,,,,,1,,,77,0
65036,note_off,,,,,140,0,6,,,,,5,,,62,0
65036,note_off,,,,,140,0,5,,,,,4,,,69,0
65040,note_off,,,,,144,0,3,,,,,2,,,77,0
65040,note_off,,,,,144,0,4,,,,,3,,,74,0
65040,note_on,,,,,0,0,4,,,,,3,,,74,108
65040,note_on,,,,,4,0,7,,,,,6,,,43,80
65040,note_on,,,,,4,0,2,,,,,1,,,76,77
65040,note_on,,,,,4,0,8,,,,,7,,,60,60
65040,note_on,,,,,4,0,5,,,,,4,,,70,92
65040,note_on,,,,,0,0,8,,,,,7,,,62,60
65040,note_on,,,,,0,0,3,,,,,2,,,76,100
65040,note_on,,,,,0,0,8,,,,,7,,,69,60
65040,note_on,,,,,4,0,9,,,,,8,,,55,60
65040,note_on,,,,,4,0,1,,,,,0,,,76,80
65040,note_on,,,,,4,0,6,,,,,5,,,55,92
65084,note_off,,,,,0,0,8,,,,,7,,,62,0
65084,note_off,,,,,44,0,8,,,,,7,,,60,0
65084,note_off,,,,,0,0,8,,,,,7,,,69,0
65084,note_off,,,,,44,0,1,,,,,0,,,76,0
65084,note_off,,,,,44,0,7,,,,,6,,,43,0
65084,note_off,,,,,44,0,2,,,,,1,,,76,0
65084,note_off,,,,,44,0,6,,,,,5,,,55,0
65084,note_off,,,,,44,0,5,,,,,4,,,70,0
65084,note_off,,,,,44,0,9,,,,,8,,,55,0
65088,note_on,,,,,4,0,1,,,,,0,,,77,80
65088,note_off,,,,,48,0,3,,,,,2,,,76,0
65088,note_on,,,,,0,0,4,,,,,3,,,74,108
65088,note_on,,,,,4,0,9,,,,,8,,,57,60
65088,note_on,,,,,4,0,8,,,,,7,,,60,60
65088,note_on,,,,,0,0,8,,,,,7,,,67,60
65088,note_on,,,,,0,0,8,,,,,7,,,63,60
65088,note_on,,,,,4,0,2,,,,,1,,,77,77
65088,note_off,,,,,48,0,4,,,,,3,,,74,0
65088,note_on,,,,,4,0,6,,,,,5,,,57,92
65088,note_on,,,,,4,0,5,,,,,4,,,69,92
65088,note_on,,,,,4,0,7,,,,,6,,,45,80
65088,note_on,,,,,0,0,3,,,,,2,,,77,100
65276,note_off,,,,,188,0,5,,,,,4,,,69,0
65276,note_off,,,,,0,0,8,,,,,7,,,63,0
65276,note_off,,,,,188,0,9,,,,,8,,,57,0
65276,note_off,,,,,188,0,8,,,,,7,,,60,0
65276,note_off,,,,,0,0,8,,,,,7,,,67,0
65276,note_off,,,,,188,0,6,,,,,5,,,57,0
65276,note_off,,,,,188,0,1,,,,,0,,,77,0
65276,note_off,,,,,188,0,7,,,,,6,,,45,0
65276,note_off,,,,,188,0,2,,,,,1,,,77,0
65280,note_on,,,,,4,0,6,,,,,5,,,45,92
65280,note_on,,,,,4,0,5,,,,,4,,,67,92
65280,note_on,,,,,4,0,1,,,,,0,,,76,80
65280,note_on,,,,,4,0,2,,,,,1,,,76,77
65280,note_on,,,,,0,0,3,,,,,2,,,76,100
65280,note_off,,,,,192,0,3,,,,,2,,,77,0
65280,note_on,,,,,4,0,9,,,,,8,,,45,60
65280,note_on,,,,,0,0,8,,,,,7,,,72,60
65280,note_on,,,,,4,0,7,,,,,6,,,33,80
65280,note_on,,,,,0,0,4,,,,,3,,,73,108
65280,note_on,,,,,0,0,8,,,,,7,,,67,60
65280,note_on,,,,,4,0,8,,,,,7,,,62,60
65280,note_off,,,,,192,0,4,,,,,3,,,74,0
65420,note_off,,,,,140,0,2,,,,,1,,,76,0
65420,note_off,,,,,140,0,1,,,,,0,,,76,0
65424,note_on,,,,,4,0,1,,,,,0,,,74,80
65424,note_on,,,,,0,0,3,,,,,2,,,74,100
65424,note_off,,,,,144,0,3,,,,,2,,,76,0
65424,note_on,,,,,4,0,2,,,,,1,,,74,77
65468,note_off,,,,,188,0,9,,,,,8,,,45,0
65468,note_off,,,,,0,0,8,,,,,7,,,67,0
65468,note_off,,,,,0,0,8,,,,,7,,,72,0
65468,note_off,,,,,188,0,8,,,,,7,,,62,0
65468,note_off,,,,,44,0,1,,,,,0,,,74,0
65468,note_off,,,,,188,0,7,,,,,6,,,33,0
65468,note_off,,,,,44,0,2,,,,,1,,,74,0
65468,note_off,,,,,188,0,5,,,,,4,,,67,0
65468,note_off,,,,,188,0,6,,,,,5,,,45,0
65472,note_on,,,,,0,0,8,,,,,7,,,72,60
65472,note_on,,,,,0,0,8,,,,,7,,,67,60
65472,note_on,,,,,4,0,8,,,,,7,,,63,60
65472,note_off,,,,,192,0,4,,,,,3,,,73,0
65472,note_on,,,,,4,0,9,,,,,8,,,50,60
65472,note_on,,,,,4,0,6,,,,,5,,,50,92
65472,note_on,,,,,4,0,2,,,,,1,,,74,77
65472,note_on,,,,,0,0,4,,,,,3,,,74,108
65472,note_on,,,,,4,0,7,,,,,6,,,38,80
65472,note_on,,,,,0,0,3,,,,,2,,,74,100
65472,note_off,,,,,48,0,3,,,,,2,,,74,0
65472,note_on,,,,,4,0,5,,,,,4,,,65,92
65472,note_on,,,,,4,0,1,,,,,0,,,74,80
65792,note_off,,,,,320,0,6,,,,,5,,,50,0
65792,note_off,,,,,320,0,9,,,,,8,,,50,0
65792,note_off,,,,,320,0,2,,,,,1,,,74,0
65792,note_off,,,,,320,0,7,,,,,6,,,38,0
65792,note_off,,,,,0,0,8,,,,,7,,,72,0
65792,note_off,,,,,320,0,5,,,,,4,,,65,0
65792,note_off,,,,,0,0,8,,,,,7,,,67,0
65792,note_off,,,,,320,0,8,,,,,7,,,63,0
65792,note_off,,,,,320,0,1,,,,,0,,,74,0
65856,note_off,,,,,384,0,3,,,,,2,,,74,0
65856,note_off,,,,,384,0,4,,,,,3,,,74,0
66048,note_on,,,,,192,0,3,,,,,2,,,70,100
66048,note_on,,,,,256,0,5,,,,,4,,,65,92
66048,note_on,,,,,256,0,1,,,,,0,,,70,80
66048,note_on,,,,,256,0,2,,,,,1,,,70,77
66048,note_on,,,,,192,0,4,,,,,3,,,65,108
66048,note_on,,,,,256,0,8,,,,,7,,,62,60
66048,note_on,,,,,256,0,7,,,,,6,,,38,80
66048,note_on,,,,,0,0,8,,,,,7,,,72,60
66048,note_on,,,,,0,0,8,,,,,7,,,65,60
66048,note_on,,,,,256,0,9,,,,,8,,,50,60
66048,note_on,,,,,256,0,6,,,,,5,,,50,92
66188,note_off,,,,,140,0,6,,,,,5,,,50,0
66188,note_off,,,,,0,0,8,,,,,7,,,65,0
66188,note_off,,,,,140,0,8,,,,,7,,,62,0
66188,note_off,,,,,0,0,8,,,,,7,,,72,0
66188,note_off,,,,,140,0,9,,,,,8,,,50,0
66188,note_off,,,,,140,0,2,,,,,1,,,70,0
66188,note_off,,,,,140,0,7,,,,,6,,,38,0
66188,note_off,,,,,140,0,1,,,,,0,,,70,0
66192,note_on,,,,,4,0,9,,,,,8,,,51,60
66192,note_on,,,,,4,0,6,,,,,5,,,51,92
66192,note_on,,,,,4,0,2,,,,,1,,,72,77
66192,note_on,,,,,4,0,8,,,,,7,,,60,60
66192,note_on,,,,,0,0,8,,,,,7,,,65,60
66192,note_off,,,,,144,0,3,,,,,2,,,70,0
66192,note_on,,,,,4,0,7,,,,,6,,,39,80
66192,note_on,,,,,0,0,4,,,,,3,,,69,108
66192,note_on,,,,,4,0,1,,,,,0,,,72,80
66192,note_off,,,,,144,0,4,,,,,3,,,65,0
66192,note_on,,,,,0,0,3,,,,,2,,,72,100
66192,note_on,,,,,0,0,8,,,,,7,,,69,60
66236,note_off,,,,,44,0,8,,,,,7,,,60,0
66236,note_off,,,,,44,0,1,,,,,0,,,72,0
66236,note_off,,,,,0,0,8,,,,,7,,,65,0
66236,note_off,,,,,0,0,8,,,,,7,,,69,0
66236,note_off,,,,,44,0,9,,,,,8,,,51,0
66236,note_off,,,,,44,0,7,,,,,6,,,39,0
66236,note_off,,,,,44,0,2,,,,,1,,,72,0
66236,note_off,,,,,188,0,5,,,,,4,,,65,0
66236,note_off,,,,,44,0,6,,,,,5,,,51,0
66240,note_on,,,,,4,0,5,,,,,4,,,65,92
66240,note_off,,,,,48,0,4,,,,,3,,,69,0
66240,note_on,,,,,0,0,4,,,,,3,,,70,108
66240,note_on,,,,,0,0,8,,,,,7,,,70,60
66240,note_on,,,,,0,0,8,,,,,7,,,65,60
66240,note_on,,,,,4,0,8,,,,,7,,,62,60
66240,note_on,,,,,4,0,2,,,,,1,,,74,77
66240,note_on,,,,,4,0,7,,,,,6,,,46,80
66240,note_on,,,,,4,0,1,,,,,0,,,74,80
66240,note_off,,,,,48,0,3,,,,,2,,,72,0
66240,note_on,,,,,0,0,3,,,,,2,,,74,100
66240,note_on,,,,,4,0,6,,,,,5,,,58,92
66240,note_on,,,,,4,0,9,,,,,8,,,58,60
66428,note_off,,,,,188,0,9,,,,,8,,,58,0
66428,note_off,,,,,188,0,5,,,,,4,,,65,0
66428,note_off,,,,,188,0,6,,,,,5,,,58,0
66428,note_off,,,,,188,0,7,,,,,6,,,46,0
66432,note_on,,,,,4,0,7,,,,,6,,,34,80
66432,note_on,,,,,4,0,5,,,,,4,,,70,92
66432,note_on,,,,,4,0,9,,,,,8,,,46,60
66432,note_on,,,,,0,0,4,,,,,3,,,65,108
66432,note_off,,,,,192,0,4,,,,,3,,,70,0
66432,note_on,,,,,4,0,6,,,,,5,,,46,92
66524,note_off,,,,,284,0,1,,,,,0,,,74,0
66524,note_off,,,,,284,0,2,,,,,1,,,74,0
66528,note_on,,,,,4,0,2,,,,,1,,,75,77
66528,note_on,,,,,0,0,3,,,,,2,,,75,100
66528,note_off,,,,,288,0,3,,,,,2,,,74,0
66528,note_on,,,,,4,0,1,,,,,0,,,75,80
66560,note_off,,,,,0,0,8,,,,,7,,,70,0
66560,note_off,,,,,0,0,8,,,,,7,,,65,0
66560,note_off,,,,,320,0,8,,,,,7,,,62,0
66620,note_off,,,,,188,0,9,,,,,8,,,46,0
66620,note_off,,,,,188,0,6,,,,,5,,,46,0
66620,note_off,,,,,92,0,2,,,,,1,,,75,0
66620,note_off,,,,,188,0,7,,,,,6,,,34,0
66620,note_off,,,,,92,0,1,,,,,0,,,75,0
66624,note_on,,,,,0,0,5,,,,,4,,,70,92
66624,note_on,,,,,4,0,7,,,,,6,,,38,80
66624,note_on,,,,,4,0,6,,,,,5,,,50,92
66624,note_off,,,,,96,0,3,,,,,2,,,75,0
66624,note_on,,,,,0,0,3,,,,,2,,,77,100
66624,note_on,,,,,4,0,2,,,,,1,,,77,77
66624,note_off,,,,,192,0,5,,,,,4,,,70,0
66624,note_on,,,,,4,0,9,,,,,8,,,50,60
66624,note_on,,,,,0,0,8,,,,,7,,,70,60
66624,note_on,,,,,0,0,8,,,,,7,,,65,60
66624,note_on,,,,,64,0,8,,,,,7,,,62,60
66624,note_on,,,,,4,0,1,,,,,0,,,77,80
66812,note_off,,,,,188,0,5,,,,,4,,,70,0
66812,note_off,,,,,0,0,8,,,,,7,,,65,0
66812,note_off,,,,,188,0,8,,,,,7,,,62,0
66812,note_off,,,,,188,0,7,,,,,6,,,38,0
66812,note_off,,,,,0,0,8,,,,,7,,,70,0
66812,note_off,,,,,188,0,2,,,,,1,,,77,0
66812,note_off,,,,,188,0,1,,,,,0,,,77,0
66812,note_off,,,,,188,0,9,,,,,8,,,50,0
66812,note_off,,,,,188,0,6,,,,,5,,,50,0
66816,note_on,,,,,4,0,8,,,,,7,,,60,60
66816,note_on,,,,,0,0,8,,,,,7,,,69,60
66816,note_on,,,,,4,0,6,,,,,5,,,53,92
66816,note_off,,,,,192,0,3,,,,,2,,,77,0
66816,note_on,,,,,0,0,3,,,,,2,,,72,100
66816,note_on,,,,,4,0,5,,,,,4,,,69,92
66816,note_on,,,,,0,0,8,,,,,7,,,65,60
66816,note_on,,,,,4,0,2,,,,,1,,,72,77
66816,note_on,,,,,4,0,1,,,,,0,,,72,80
66816,note_on,,,,,4,0,7,,,,,6,,,41,80
66816,note_on,,,,,0,0,4,,,,,3,,,69,108
66816,note_off,,,,,384,0,4,,,,,3,,,65,0
66816,note_on,,,,,4,0,9,,,,,8,,,53,60
66864,note_off,,,,,48,0,1,,,,,0,,,72,0
66864,note_off,,,,,48,0,2,,,,,1,,,72,0
66864,note_on,,,,,0,0,3,,,,,2,,,74,100
66864,note_off,,,,,48,0,3,,,,,2,,,72,0
66864,note_on,,,,,0,0,1,,,,,0,,,74,80
66864,note_on,,,,,0,0,4,,,,,3,,,70,108
66864,note_off,,,,,48,0,4,,,,,3,,,69,0
66864,note_on,,,,,0,0,2,,,,,1,,,74,77
66912,note_off,,,,,48,0,1,,,,,0,,,74,0
66912,note_on,,,,,0,0,1,,,,,0,,,75,80
66912,note_on,,,,,0,0,2,,,,,1,,,75,77
66912,note_off,,,,,48,0,4,,,,,3,,,70,0
66912,note_on,,,,,0,0,4,,,,,3,,,72,108
66912,note_off,,,,,48,0,3,,,,,2,,,74,0
66912,note_on,,,,,0,0,3,,,,,2,,,75,100
66912,note_off,,,,,48,0,2,,,,,1,,,74,0
67004,note_off,,,,,188,0,6,,,,,5,,,53,0
67004,note_off,,,,,188,0,7,,,,,6,,,41,0
67004,note_off,,,,,0,0,8,,,,,7,,,69,0
67004,note_off,,,,,188,0,8,,,,,7,,,60,0
67004,note_off,,,,,0,0,8,,,,,7,,,65,0
67004,note_off,,,,,92,0,2,,,,,1,,,75,0
67004,note_off,,,,,188,0,9,,,,,8,,,53,0
67004,note_off,,,,,188,0,5,,,,,4,,,69,0
67004,note_off,,,,,92,0,1,,,,,0,,,75,0
67008,note_on,,,,,4,0,1,,,,,0,,,74,80
67008,note_on,,,,,4,0,2,,,,,1,,,74,77
67008,note_on,,,,,0,0,3,,,,,2,,,74,100
67008,note_on,,,,,0,0,8,,,,,7,,,70,60
67008,note_on,,,,,0,0,8,,,,,7,,,65,60
67008,note_on,,,,,4,0,8,,,,,7,,,62,60
67008,note_off,,,,,96,0,4,,,,,3,,,72,0
67008,note_on,,,,,4,0,6,,,,,5,,,58,92
67008,note_on,,,,,4,0,5,,,,,4,,,65,92
67008,note_on,,,,,0,0,4,,,,,3,,,70,108
67008,note_on,,,,,4,0,9,,,,,8,,,58,60
67008,note_on,,,,,4,0,7,,,,,6,,,46,80
67008,note_off,,,,,96,0,3,,,,,2,,,75,0
67196,note_off,,,,,188,0,9,,,,,8,,,58,0
67196,note_off,,,,,188,0,6,,,,,5,,,58,0
67196,note_off,,,,,188,0,5,,,,,4,,,65,0
67196,note_off,,,,,188,0,7,,,,,6,,,46,0
67200,note_on,,,,,4,0,6,,,,,5,,,46,92
67200,note_on,,,,,4,0,5,,,,,4,,,70,92
67200,note_off,,,,,192,0,4,,,,,3,,,70,0
67200,note_on,,,,,0,0,4,,,,,3,,,65,108
67200,note_on,,,,,4,0,9,,,,,8,,,46,60
67200,note_on,,,,,4,0,7,,,,,6,,,34,80
67292,note_off,,,,,284,0,2,,,,,1,,,74,0
67292,note_off,,,,,284,0,1,,,,,0,,,74,0
67296,note_off,,,,,288,0,3,,,,,2,,,74,0
67296,note_on,,,,,0,0,3,,,,,2,,,75,100
67296,note_on,,,,,4,0,1,,,,,0,,,75,80
67296,note_on,,,,,4,0,2,,,,,1,,,75,77
67328,note_off,,,,,0,0,8,,,,,7,,,70,0
67328,note_off,,,,,0,0,8,,,,,7,,,65,0
67328,note_off,,,,,320,0,8,,,,,7,,,62,0
67388,note_off,,,,,188,0,7,,,,,6,,,34,0
67388,note_off,,,,,188,0,6,,,,,5,,,46,0
67388,note_off,,,,,92,0,1,,,,,0,,,75,0
67388,note_off,,,,,92,0,2,,,,,1,,,75,0
67388,note_off,,,,,188,0,9,,,,,8,,,46,0
67392,note_off,,,,,96,0,3,,,,,2,,,75,0
67392,note_on,,,,,4,0,7,,,,,6,,,38,80
67392,note_on,,,,,4,0,9,,,,,8,,,50,60
67392,note_on,,,,,4,0,6,,,,,5,,,50,92
67392,note_on,,,,,0,0,3,,,,,2,,,77,100
67392,note_off,,,,,192,0,5,,,,,4,,,70,0
67392,note_on,,,,,64,0,8,,,,,7,,,62,60
67392,note_on,,,,,4,0,1,,,,,0,,,77,80
67392,note_on,,,,,0,0,8,,,,,7,,,65,60
67392,note_on,,,,,0,0,8,,,,,7,,,70,60
67392,note_on,,,,,0,0,5,,,,,4,,,70,92
67392,note_on,,,,,4,0,2,,,,,1,,,77,77
67580,note_off,,,,,188,0,2,,,,,1,,,77,0
67580,note_off,,,,,188,0,9,,,,,8,,,50,0
67580,note_off,,,,,188,0,6,,,,,5,,,50,0
67580,note_off,,,,,188,0,7,,,,,6,,,38,0
67580,note_off,,,,,188,0,1,,,,,0,,,77,0
67580,note_off,,,,,0,0,8,,,,,7,,,70,0
67580,note_off,,,,,0,0,8,,,,,7,,,65,0
67580,note_off,,,,,188,0,5,,,,,4,,,70,0
67580,note_off,,,,,188,0,8,,,,,7,,,62,0
67584,note_on,,,,,4,0,5,,,,,4,,,69,92
67584,note_on,,,,,4,0,1,,,,,0,,,72,80
67584,note_on,,,,,4,0,8,,,,,7,,,60,60
67584,note_on,,,,,4,0,2,,,,,1,,,72,77
67584,note_on,,,,,0,0,8,,,,,7,,,65,60
67584,note_on,,,,,4,0,7,,,,,6,,,41,80
67584,note_on,,,,,4,0,9,,,,,8,,,53,60
67584,note_on,,,,,0,0,3,,,,,2,,,72,100
67584,note_on,,,,,0,0,8,,,,,7,,,69,60
67584,note_off,,,,,192,0,3,,,,,2,,,77,0
67584,note_on,,,,,0,0,4,,,,,3,,,69,108
67584,note_on,,,,,4,0,6,,,,,5,,,53,92
67584,note_off,,,,,384,0,4,,,,,3,,,65,0
67632,note_on,,,,,0,0,4,,,,,3,,,70,108
67632,note_off,,,,,48,0,4,,,,,3,,,69,0
67632,note_off,,,,,48,0,3,,,,,2,,,72,0
67632,note_off,,,,,48,0,2,,,,,1,,,72,0
67632,note_on,,,,,0,0,2,,,,,1,,,74,77
67632,note_on,,,,,0,0,1,,,,,0,,,74,80
67632,note_on,,,,,0,0,3,,,,,2,,,74,100
67632,note_off,,,,,48,0,1,,,,,0,,,72,0
67680,note_off,,,,,48,0,3,,,,,2,,,74,0
67680,note_on,,,,,0,0,3,,,,,2,,,75,100
67680,note_off,,,,,48,0,2,,,,,1,,,74,0
67680,note_off,,,,,48,0,4,,,,,3,,,70,0
67680,note_on,,,,,0,0,4,,,,,3,,,72,108
67680,note_on,,,,,0,0,1,,,,,0,,,75,80
67680,note_off,,,,,48,0,1,,,,,0,,,74,0
67680,note_on,,,,,0,0,2,,,,,1,,,75,77
67772,note_off,,,,,188,0,7,,,,,6,,,41,0
67772,note_off,,,,,188,0,6,,,,,5,,,53,0
67772,note_off,,,,,92,0,1,,,,,0,,,75,0
67772,note_off,,,,,0,0,8,,,,,7,,,65,0
67772,note_off,,,,,188,0,8,,,,,7,,,60,0
67772,note_off,,,,,188,0,9,,,,,8,,,53,0
67772,note_off,,,,,92,0,2,,,,,1,,,75,0
67772,note_off,,,,,0,0,8,,,,,7,,,69,0
67772,note_off,,,,,188,0,5,,,,,4,,,69,0
67776,note_on,,,,,4,0,2,,,,,1,,,74,77
67776,note_on,,,,,0,0,4,,,,,3,,,70,108
67776,note_off,,,,,96,0,4,,,,,3,,,72,0
67776,note_on,,,,,4,0,6,,,,,5,,,58,92
67776,note_on,,,,,4,0,9,,,,,8,,,58,60
67776,note_on,,,,,0,0,8,,,,,7,,,70,60
67776,note_on,,,,,0,0,8,,,,,7,,,65,60
67776,note_on,,,,,4,0,8,,,,,7,,,62,60
67776,note_off,,,,,96,0,3,,,,,2,,,75,0
67776,note_on,,,,,4,0,1,,,,,0,,,74,80
67776,note_on,,,,,4,0,5,,,,,4,,,65,92
67776,note_on,,,,,4,0,7,,,,,6,,,46,80
67776,note_on,,,,,0,0,3,,,,,2,,,74,100
67916,note_off,,,,,140,0,2,,,,,1,,,74,0
67916,note_off,,,,,140,0,1,,,,,0,,,74,0
67920,note_on,,,,,4,0,2,,,,,1,,,72,77
67920,note_on,,,,,4,0,1,,,,,0,,,72,80
67920,note_on,,,,,0,0,3,,,,,2,,,72,100
67920,note_off,,,,,144,0,3,,,,,2,,,74,0
67964,note_off,,,,,0,0,8,,,,,7,,,65,0
67964,note_off,,,,,188,0,9,,,,,8,,,58,0
67964,note_off,,,,,188,0,5,,,,,4,,,65,0
67964,note_off,,,,,44,0,2,,,,,1,,,72,0
67964,note_off,,,,,188,0,6,,,,,5,,,58,0
67964,note_off,,,,,0,0,8,,,,,7,,,70,0
67964,note_off,,,,,188,0,7,,,,,6,,,46,0
67964,note_off,,,,,44,0,1,,,,,0,,,72,0
67964,note_off,,,,,188,0,8,,,,,7,,,62,0
67968,note_on,,,,,4,0,9,,,,,8,,,46,60
67968,note_on,,,,,4,0,5,,,,,4,,,58,92
67968,note_on,,,,,4,0,2,,,,,1,,,70,77
67968,note_off,,,,,192,0,4,,,,,3,,,70,0
67968,note_on,,,,,0,0,4,,,,,3,,,65,108
67968,note_on,,,,,4,0,1,,,,,0,,,70,80
67968,note_on,,,,,0,0,8,,,,,7,,,65,60
67968,note_on,,,,,4,0,7,,,,,6,,,34,80
67968,note_off,,,,,48,0,3,,,,,2,,,72,0
67968,note_on,,,,,0,0,3,,,,,2,,,70,100
67968,note_on,,,,,4,0,6,,,,,5,,,46,92
67968,note_on,,,,,4,0,8,,,,,7,,,62,60
68156,note_off,,,,,188,0,8,,,,,7,,,62,0
68156,note_off,,,,,188,0,9,,,,,8,,,46,0
68156,note_off,,,,,188,0,6,,,,,5,,,46,0
68156,note_off,,,,,188,0,7,,,,,6,,,34,0
68156,note_off,,,,,188,0,2,,,,,1,,,70,0
68156,note_off,,,,,188,0,5,,,,,4,,,58,0
68156,note_off,,,,,188,0,1,,,,,0,,,70,0
68156,note_off,,,,,0,0,8,,,,,7,,,65,0
68160,note_off,,,,,192,0,3,,,,,2,,,70,0
68160,note_off,,,,,192,0,4,,,,,3,,,65,0
68352,note_on,,,,,196,0,8,,,,,7,,,62,60
68352,note_on,,,,,196,0,1,,,,,0,,,70,80
68352,note_on,,,,,196,0,6,,,,,5,,,50,92
68352,note_on,,,,,196,0,9,,,,,8,,,50,60
68352,note_on,,,,,196,0,5,,,,,4,,,62,92
68352,note_on,,,,,0,0,8,,,,,7,,,70,60
68352,note_on,,,,,192,0,3,,,,,2,,,70,100
68352,note_on,,,,,196,0,2,,,,,1,,,70,77
68352,note_on,,,,,0,0,8,,,,,7,,,65,60
68352,note_on,,,,,192,0,4,,,,,3,,,65,108
68352,note_on,,,,,196,0,7,,,,,6,,,38,80
68492,note_off,,,,,140,0,9,,,,,8,,,50,0
68492,note_off,,,,,140,0,6,,,,,5,,,50,0
68492,note_off,,,,,140,0,8,,,,,7,,,62,0
68492,note_off,,,,,0,0,8,,,,,7,,,65,0
68492,note_off,,,,,0,0,8,,,,,7,,,70,0
68492,note_off,,,,,140,0,2,,,,,1,,,70,0
68492,note_off,,,,,140,0,7,,,,,6,,,38,0
68492,note_off,,,,,140,0,1,,,,,0,,,70,0
68496,note_on,,,,,4,0,9,,,,,8,,,51,60
68496,note_on,,,,,4,0,7,,,,,6,,,39,80
68496,note_on,,,,,4,0,2,,,,,1,,,72,77
68496,note_on,,,,,0,0,4,,,,,3,,,69,108
68496,note_off,,,,,144,0,4,,,,,3,,,65,0
68496,note_on,,,,,0,0,8,,,,,7,,,69,60
68496,note_on,,,,,4,0,8,,,,,7,,,60,60
68496,note_on,,,,,4,0,1,,,,,0,,,72,80
68496,note_on,,,,,4,0,6,,,,,5,,,51,92
68496,note_on,,,,,0,0,8,,,,,7,,,65,60
68496,note_on,,,,,0,0,3,,,,,2,,,72,100
68496,note_off,,,,,144,0,3,,,,,2,,,70,0
68540,note_off,,,,,44,0,1,,,,,0,,,72,0
68540,note_off,,,,,44,0,8,,,,,7,,,60,0
68540,note_off,,,,,0,0,8,,,,,7,,,65,0
68540,note_off,,,,,0,0,8,,,,,7,,,69,0
68540,note_off,,,,,188,0,5,,,,,4,,,62,0
68540,note_off,,,,,44,0,2,,,,,1,,,72,0
68540,note_off,,,,,44,0,9,,,,,8,,,51,0
68540,note_off,,,,,44,0,6,,,,,5,,,51,0
68540,note_off,,,,,44,0,7,,,,,6,,,39,0
68544,note_on,,,,,4,0,2,,,,,1,,,74,77
68544,note_on,,,,,4,0,6,,,,,5,,,58,92
68544,note_off,,,,,48,0,4,,,,,3,,,69,0
68544,note_on,,,,,0,0,8,,,,,7,,,70,60
68544,note_on,,,,,0,0,8,,,,,7,,,65,60
68544,note_on,,,,,4,0,8,,,,,7,,,62,60
68544,note_on,,,,,4,0,5,,,,,4,,,65,92
68544,note_on,,,,,4,0,1,,,,,0,,,74,80
68544,note_on,,,,,0,0,4,,,,,3,,,70,108
68544,note_on,,,,,4,0,9,,,,,8,,,58,60
68544,note_on,,,,,0,0,3,,,,,2,,,74,100
68544,note_on,,,,,4,0,7,,,,,6,,,46,80
68544,note_off,,,,,48,0,3,,,,,2,,,72,0
68732,note_off,,,,,188,0,7,,,,,6,,,46,0
68732,note_off,,,,,188,0,9,,,,,8,,,58,0
68732,note_off,,,,,188,0,6,,,,,5,,,58,0
68732,note_off,,,,,188,0,5,,,,,4,,,65,0
68736,note_on,,,,,0,0,4,,,,,3,,,65,108
68736,note_off,,,,,192,0,4,,,,,3,,,70,0
68736,note_on,,,,,4,0,6,,,,,5,,,46,92
68736,note_on,,,,,4,0,9,,,,,8,,,46,60
68736,note_on,,,,,4,0,7,,,,,6,,,34,80
68736,note_on,,,,,4,0,5,,,,,4,,,70,92
68828,note_off,,,,,284,0,1,,,,,0,,,74,0
68828,note_off,,,,,284,0,2,,,,,1,,,74,0
68832,note_on,,,,,4,0,1,,,,,0,,,75,80
68832,note_on,,,,,4,0,2,,,,,1,,,75,77
68832,note_off,,,,,288,0,3,,,,,2,,,74,0
68832,note_on,,,,,0,0,3,,,,,2,,,75,100
68864,note_off,,,,,320,0,8,,,,,7,,,62,0
68864,note_off,,,,,0,0,8,,,,,7,,,65,0
68864,note_off,,,,,0,0,8,,,,,7,,,70,0
68924,note_off,,,,,188,0,7,,,,,6,,,34,0
68924,note_off,,,,,92,0,2,,,,,1,,,75,0
68924,note_off,,,,,188,0,9,,,,,8,,,46,0
68924,note_off,,,,,188,0,6,,,,,5,,,46,0
68924,note_off,,,,,92,0,1,,,,,0,,,75,0
68928,note_off,,,,,192,0,5,,,,,4,,,70,0
68928,note_on,,,,,4,0,7,,,,,6,,,38,80
68928,note_on,,,,,4,0,6,,,,,5,,,50,92
68928,note_on,,,,,4,0,1,,,,,0,,,77,80
68928,note_on,,,,,0,0,8,,,,,7,,,65,60
68928,note_on,,,,,64,0,8,,,,,7,,,62,60
68928,note_on,,,,,0,0,8,,,,,7,,,70,60
68928,note_off,,,,,96,0,3,,,,,2,,,75,0
68928,note_on,,,,,0,0,3,,,,,2,,,77,100
68928,note_on,,,,,4,0,9,,,,,8,,,50,60
68928,note_on,,,,,4,0,2,,,,,1,,,77,77
68928,note_on,,,,,0,0,5,,,,,4,,,70,92
69116,note_off,,,,,188,0,1,,,,,0,,,77,0
69116,note_off,,,,,188,0,2,,,,,1,,,77,0
69116,note_off,,,,,188,0,6,,,,,5,,,50,0
69116,note_off,,,,,188,0,5,,,,,4,,,70,0
69116,note_off,,,,,188,0,9,,,,,8,,,50,0
69116,note_off,,,,,0,0,8,,,,,7,,,70,0
69116,note_off,,,,,0,0,8,,,,,7,,,65,0
69116,note_off,,,,,188,0,8,,,,,7,,,62,0
69116,note_off,,,,,188,0,7,,,,,6,,,38,0
69120,note_on,,,,,4,0,9,,,,,8,,,53,60
69120,note_off,,,,,384,0,4,,,,,3,,,65,0
69120,note_on,,,,,4,0,8,,,,,7,,,60,60
69120,note_on,,,,,0,0,8,,,,,7,,,65,60
69120,note_on,,,,,4,0,2,,,,,1,,,72,77
69120,note_on,,,,,0,0,3,,,,,2,,,72,100
69120,note_off,,,,,192,0,3,,,,,2,,,77,0
69120,note_on,,,,,0,0,4,,,,,3,,,69,108
69120,note_on,,,,,0,0,8,,,,,7,,,69,60
69120,note_on,,,,,4,0,7,,,,,6,,,41,80
69120,note_on,,,,,4,0,1,,,,,0,,,72,80
69120,note_on,,,,,4,0,6,,,,,5,,,53,92
69120,note_on,,,,,4,0,5,,,,,4,,,69,92
69168,note_off,,,,,48,0,4,,,,,3,,,69,0
69168,note_on,,,,,0,0,4,,,,,3,,,70,108
69168,note_on,,,,,0,0,1,,,,,0,,,74,80
69168,note_off,,,,,48,0,2,,,,,1,,,72,0
69168,note_on,,,,,0,0,2,,,,,1,,,74,77
69168,note_off,,,,,48,0,1,,,,,0,,,72,0
69168,note_on,,,,,0,0,3,,,,,2,,,74,100
69168,note_off,,,,,48,0,3,,,,,2,,,72,0
69216,note_off,,,,,48,0,3,,,,,2,,,74,0
69216,note_off,,,,,48,0,2,,,,,1,,,74,0
69216,note_on,,,,,0,0,2,,,,,1,,,75,77
69216,note_on,,,,,0,0,3,,,,,2,,,75,100
69216,note_on,,,,,0,0,4,,,,,3,,,72,108
69216,note_on,,,,,0,0,1,,,,,0,,,75,80
69216,note_off,,,,,48,0,1,,,,,0,,,74,0
69216,note_off,,,,,48,0,4,,,,,3,,,70,0
69308,note_off,,,,,0,0,8,,,,,7,,,69,0
69308,note_off,,,,,188,0,5,,,,,4,,,69,0
69308,note_off,,,,,188,0,7,,,,,6,,,41,0
69308,note_off,,,,,0,0,8,,,,,7,,,65,0
69308,note_off,,,,,92,0,2,,,,,1,,,75,0
69308,note_off,,,,,92,0,1,,,,,0,,,75,0
69308,note_off,,,,,188,0,6,,,,,5,,,53,0
69308,note_off,,,,,188,0,9,,,,,8,,,53,0
69308,note_off,,,,,188,0,8,,,,,7,,,60,0
69312,note_on,,,,,4,0,1,,,,,0,,,74,80
69312,note_on,,,,,4,0,8,,,,,7,,,62,60
69312,note_on,,,,,4,0,5,,,,,4,,,65,92
69312,note_on,,,,,4,0,6,,,,,5,,,58,92
69312,note_on,,,,,0,0,8,,,,,7,,,65,60
69312,note_on,,,,,0,0,8,,,,,7,,,70,60
69312,note_on,,,,,4,0,7,,,,,6,,,46,80
69312,note_off,,,,,96,0,4,,,,,3,,,72,0
69312,note_on,,,,,0,0,3,,,,,2,,,74,100
69312,note_off,,,,,96,0,3,,,,,2,,,75,0
69312,note_on,,,,,0,0,4,,,,,3,,,70,108
69312,note_on,,,,,4,0,9,,,,,8,,,58,60
69312,note_on,,,,,4,0,2,,,,,1,,,74,77
69500,note_off,,,,,188,0,6,,,,,5,,,58,0
69500,note_off,,,,,188,0,7,,,,,6,,,46,0
69500,note_off,,,,,188,0,9,,,,,8,,,58,0
69500,note_off,,,,,188,0,5,,,,,4,,,65,0
69504,note_off,,,,,192,0,4,,,,,3,,,70,0
69504,note_on,,,,,0,0,4,,,,,3,,,65,108
69504,note_on,,,,,4,0,7,,,,,6,,,34,80
69504,note_on,,,,,4,0,9,,,,,8,,,46,60
69504,note_on,,,,,4,0,6,,,,,5,,,46,92
69504,note_on,,,,,4,0,5,,,,,4,,,70,92
69596,note_off,,,,,284,0,1,,,,,0,,,74,0
69596,note_off,,,,,284,0,2,,,,,1,,,74,0
69600,note_on,,,,,4,0,1,,,,,0,,,75,80
69600,note_on,,,,,4,0,2,,,,,1,,,75,77
69600,note_off,,,,,288,0,3,,,,,2,,,74,0
69600,note_on,,,,,0,0,3,,,,,2,,,75,100
69632,note_off,,,,,0,0,8,,,,,7,,,70,0
69632,note_off,,,,,0,0,8,,,,,7,,,65,0
69632,note_off,,,,,320,0,8,,,,,7,,,62,0
69692,note_off,,,,,188,0,9,,,,,8,,,46,0
69692,note_off,,,,,188,0,7,,,,,6,,,34,0
69692,note_off,,,,,92,0,2,,,,,1,,,75,0
69692,note_off,,,,,92,0,1,,,,,0,,,75,0
69692,note_off,,,,,188,0,6,,,,,5,,,46,0
69696,note_on,,,,,0,0,8,,,,,7,,,65,60
69696,note_on,,,,,4,0,1,,,,,0,,,77,80
69696,note_on,,,,,4,0,2,,,,,1,,,77,77
69696,note_on,,,,,0,0,8,,,,,7,,,70,60
69696,note_on,,,,,64,0,8,,,,,7,,,62,60
69696,note_on,,,,,4,0,9,,,,,8,,,50,60
69696,note_off,,,,,96,0,3,,,,,2,,,75,0
69696,note_on,,,,,4,0,7,,,,,6,,,38,80
69696,note_on,,,,,4,0,6,,,,,5,,,50,92
69696,note_on,,,,,0,0,5,,,,,4,,,70,92
69696,note_off,,,,,192,0,5,,,,,4,,,70,0
69696,note_on,,,,,0,0,3,,,,,2,,,77,100
69884,note_off,,,,,188,0,5,,,,,4,,,70,0
69884,note_off,,,,,188,0,1,,,,,0,,,77,0
69884,note_off,,,,,188,0,2,,,,,1,,,77,0
69884,note_off,,,,,188,0,7,,,,,6,,,38,0
69884,note_off,,,,,188,0,9,,,,,8,,,50,0
69884,note_off,,,,,0,0,8,,,,,7,,,70,0
69884,note_off,,,,,0,0,8,,,,,7,,,65,0
69884,note_off,,,,,188,0,8,,,,,7,,,62,0
69884,note_off,,,,,188,0,6,,,,,5,,,50,0
69888,note_on,,,,,0,0,4,,,,,3,,,69,108
69888,note_on,,,,,4,0,2,,,,,1,,,72,77
69888,note_on,,,,,4,0,7,,,,,6,,,41,80
69888,note_on,,,,,0,0,3,,,,,2,,,72,100
69888,note_on,,,,,4,0,9,,,,,8,,,53,60
69888,note_off,,,,,384,0,4,,,,,3,,,65,0
69888,note_on,,,,,4,0,1,,,,,0,,,72,80
69888,note_on,,,,,4,0,6,,,,,5,,,53,92
69888,note_on,,,,,0,0,8,,,,,7,,,69,60
69888,note_on,,,,,0,0,8,,,,,7,,,65,60
69888,note_on,,,,,4,0,8,,,,,7,,,60,60
69888,note_off,,,,,192,0,3,,,,,2,,,77,0
69888,note_on,,,,,4,0,5,,,,,4,,,69,92
69936,note_on,,,,,0,0,2,,,,,1,,,74,77
69936,note_off,,,,,48,0,4,,,,,3,,,69,0
69936,note_on,,,,,0,0,4,,,,,3,,,70,108
69936,note_on,,,,,0,0,1,,,,,0,,,74,80
69936,note_off,,,,,48,0,1,,,,,0,,,72,0
69936,note_off,,,,,48,0,2,,,,,1,,,72,0
69936,note_on,,,,,0,0,3,,,,,2,,,74,100
69936,note_off,,,,,48,0,3,,,,,2,,,72,0
69984,note_off,,,,,48,0,4,,,,,3,,,70,0
69984,note_off,,,,,48,0,1,,,,,0,,,74,0
69984,note_on,,,,,0,0,1,,,,,0,,,75,80
69984,note_on,,,,,0,0,2,,,,,1,,,75,77
69984,note_on,,,,,0,0,3,,,,,2,,,75,100
69984,note_off,,,,,48,0,3,,,,,2,,,74,0
69984,note_off,,,,,48,0,2,,,,,1,,,74,0
69984,note_on,,,,,0,0,4,,,,,3,,,72,108
70076,note_off,,,,,92,0,2,,,,,1,,,75,0
70076,note_off,,,,,0,0,8,,,,,7,,,65,0
70076,note_off,,,,,0,0,8,,,,,7,,,69,0
70076,note_off,,,,,188,0,7,,,,,6,,,41,0
70076,note_off,,,,,188,0,5,,,,,4,,,69,0
70076,note_off,,,,,188,0,9,,,,,8,,,53,0
70076,note_off,,,,,188,0,6,,,,,5,,,53,0
70076,note_off,,,,,92,0,1,,,,,0,,,75,0
70076,note_off,,,,,188,0,8,,,,,7,,,60,0
70080,note_on,,,,,4,0,7,,,,,6,,,46,80
70080,note_on,,,,,4,0,9,,,,,8,,,58,60
70080,note_on,,,,,4,0,1,,,,,0,,,74,80
70080,note_on,,,,,4,0,6,,,,,5,,,58,92
70080,note_off,,,,,96,0,4,,,,,3,,,72,0
70080,note_on,,,,,4,0,2,,,,,1,,,74,77
70080,note_on,,,,,0,0,3,,,,,2,,,74,100
70080,note_on,,,,,0,0,8,,,,,7,,,70,60
70080,note_off,,,,,96,0,3,,,,,2,,,75,0
70080,note_on,,,,,4,0,5,,,,,4,,,65,92
70080,note_on,,,,,4,0,8,,,,,7,,,62,60
70080,note_on,,,,,0,0,4,,,,,3,,,70,108
70080,note_on,,,,,0,0,8,,,,,7,,,65,60
70224,note_off,,,,,144,0,4,,,,,3,,,70,0
70224,note_on,,,,,0,0,4,,,,,3,,,65,108
70268,note_off,,,,,188,0,1,,,,,0,,,74,0
70268,note_off,,,,,188,0,7,,,,,6,,,46,0
70268,note_off,,,,,0,0,8,,,,,7,,,70,0
70268,note_off,,,,,188,0,6,,,,,5,,,58,0
70268,note_off,,,,,188,0,9,,,,,8,,,58,0
70268,note_off,,,,,188,0,5,,,,,4,,,65,0
70268,note_off,,,,,188,0,2,,,,,1,,,74,0
70268,note_off,,,,,0,0,8,,,,,7,,,65,0
70268,note_off,,,,,188,0,8,,,,,7,,,62,0
70272,note_off,,,,,48,0,4,,,,,3,,,65,0
70272,note_on,,,,,0,0,4,,,,,3,,,67,108
70272,note_on,,,,,4,0,7,,,,,6,,,39,80
70272,note_on,,,,,0,0,8,,,,,7,,,72,60
70272,note_on,,,,,4,0,6,,,,,5,,,51,92
70272,note_on,,,,,4,0,9,,,,,8,,,51,60
70272,note_on,,,,,0,0,3,,,,,2,,,74,100
70272,note_off,,,,,192,0,3,,,,,2,,,74,0
70272,note_on,,,,,4,0,8,,,,,7,,,63,60
70272,note_on,,,,,0,0,8,,,,,7,,,67,60
70272,note_on,,,,,4,0,2,,,,,1,,,74,77
70272,note_on,,,,,4,0,5,,,,,4,,,63,92
70272,note_on,,,,,4,0,1,,,,,0,,,74,80
70296,note_off,,,,,24,0,3,,,,,2,,,74,0
70296,note_on,,,,,0,0,3,,,,,2,,,72,100
70296,note_off,,,,,24,0,1,,,,,0,,,74,0
70296,note_on,,,,,0,0,2,,,,,1,,,72,77
70296,note_off,,,,,24,0,2,,,,,1,,,74,0
70296,note_on,,,,,0,0,1,,,,,0,,,72,80
70320,note_on,,,,,0,0,1,,,,,0,,,74,80
70320,note_off,,,,,24,0,3,,,,,2,,,72,0
70320,note_off,,,,,24,0,1,,,,,0,,,72,0
70320,note_off,,,,,24,0,2,,,,,1,,,72,0
70320,note_on,,,,,0,0,2,,,,,1,,,74,77
70320,note_on,,,,,0,0,3,,,,,2,,,74,100
70344,note_on,,,,,0,0,2,,,,,1,,,72,77
70344,note_off,,,,,24,0,3,,,,,2,,,74,0
70344,note_on,,,,,0,0,1,,,,,0,,,72,80
70344,note_on,,,,,0,0,3,,,,,2,,,72,100
70344,note_off,,,,,24,0,2,,,,,1,,,74,0
70344,note_off,,,,,24,0,1,,,,,0,,,74,0
70368,note_off,,,,,24,0,3,,,,,2,,,72,0
70368,note_on,,,,,0,0,3,,,,,2,,,74,100
70368,note_off,,,,,24,0,2,,,,,1,,,72,0
70368,note_on,,,,,0,0,2,,,,,1,,,74,77
70368,note_on,,,,,0,0,1,,,,,0,,,74,80
70368,note_off,,,,,24,0,1,,,,,0,,,72,0
70392,note_on,,,,,0,0,3,,,,,2,,,72,100
70392,note_off,,,,,24,0,3,,,,,2,,,74,0
70392,note_off,,,,,24,0,1,,,,,0,,,74,0
70392,note_off,,,,,24,0,2,,,,,1,,,74,0
70392,note_on,,,,,0,0,1,,,,,0,,,72,80
70392,note_on,,,,,0,0,2,,,,,1,,,72,77
70412,note_off,,,,,140,0,7,,,,,6,,,39,0
70412,note_off,,,,,0,0,8,,,,,7,,,72,0
70412,note_off,,,,,0,0,8,,,,,7,,,67,0
70412,note_off,,,,,140,0,8,,,,,7,,,63,0
70412,note_off,,,,,140,0,9,,,,,8,,,51,0
70412,note_off,,,,,140,0,6,,,,,5,,,51,0
70416,note_on,,,,,4,0,8,,,,,7,,,65,60
70416,note_on,,,,,0,0,2,,,,,1,,,70,77
70416,note_off,,,,,24,0,2,,,,,1,,,72,0
70416,note_on,,,,,0,0,3,,,,,2,,,70,100
70416,note_off,,,,,24,0,3,,,,,2,,,72,0
70416,note_on,,,,,4,0,6,,,,,5,,,50,92
70416,note_on,,,,,0,0,8,,,,,7,,,70,60
70416,note_on,,,,,4,0,7,,,,,6,,,38,80
70416,note_on,,,,,0,0,4,,,,,3,,,65,108
70416,note_off,,,,,144,0,4,,,,,3,,,67,0
70416,note_on,,,,,0,0,1,,,,,0,,,70,80
70416,note_on,,,,,4,0,9,,,,,8,,,50,60
70416,note_off,,,,,24,0,1,,,,,0,,,72,0
70460,note_off,,,,,44,0,2,,,,,1,,,70,0
70460,note_off,,,,,44,0,1,,,,,0,,,70,0
70460,note_off,,,,,44,0,9,,,,,8,,,50,0
70460,note_off,,,,,188,0,5,,,,,4,,,63,0
70460,note_off,,,,,44,0,7,,,,,6,,,38,0
70460,note_off,,,,,44,0,6,,,,,5,,,50,0
70460,note_off,,,,,44,0,8,,,,,7,,,65,0
70460,note_off,,,,,0,0,8,,,,,7,,,70,0
70464,note_on,,,,,4,0,1,,,,,0,,,69,80
70464,note_on,,,,,0,0,4,,,,,3,,,63,108
70464,note_on,,,,,0,0,8,,,,,7,,,69,60
70464,note_off,,,,,48,0,3,,,,,2,,,70,0
70464,note_on,,,,,4,0,7,,,,,6,,,36,80
70464,note_on,,,,,4,0,5,,,,,4,,,63,92
70464,note_on,,,,,4,0,9,,,,,8,,,48,60
70464,note_off,,,,,48,0,4,,,,,3,,,65,0
70464,note_on,,,,,0,0,3,,,,,2,,,69,100
70464,note_on,,,,,4,0,2,,,,,1,,,69,77
70464,note_on,,,,,4,0,8,,,,,7,,,63,60
70464,note_on,,,,,4,0,6,,,,,5,,,48,92
70556,note_off,,,,,92,0,1,,,,,0,,,69,0
70556,note_off,,,,,92,0,2,,,,,1,,,69,0
70560,note_on,,,,,4,0,1,,,,,0,,,70,80
70560,note_on,,,,,4,0,2,,,,,1,,,70,77
70560,note_off,,,,,96,0,3,,,,,2,,,69,0
70560,note_on,,,,,0,0,3,,,,,2,,,70,100
70652,note_off,,,,,188,0,6,,,,,5,,,48,0
70652,note_off,,,,,92,0,2,,,,,1,,,70,0
70652,note_off,,,,,188,0,9,,,,,8,,,48,0
70652,note_off,,,,,188,0,5,,,,,4,,,63,0
70652,note_off,,,,,188,0,7,,,,,6,,,36,0
70652,note_off,,,,,92,0,1,,,,,0,,,70,0
70652,note_off,,,,,188,0,8,,,,,7,,,63,0
70652,note_off,,,,,0,0,8,,,,,7,,,69,0
70656,note_off,,,,,192,0,4,,,,,3,,,63,0
70656,note_on,,,,,0,0,4,,,,,3,,,62,108
70656,note_on,,,,,4,0,6,,,,,5,,,46,92
70656,note_on,,,,,0,0,8,,,,,7,,,65,60
70656,note_off,,,,,96,0,3,,,,,2,,,70,0
70656,note_on,,,,,0,0,3,,,,,2,,,72,100
70656,note_on,,,,,4,0,7,,,,,6,,,34,80
70656,note_on,,,,,4,0,5,,,,,4,,,65,92
70656,note_on,,,,,4,0,9,,,,,8,,,46,60
70656,note_on,,,,,4,0,2,,,,,1,,,72,77
70656,note_on,,,,,4,0,8,,,,,7,,,62,60
70656,note_on,,,,,4,0,1,,,,,0,,,72,80
70656,note_on,,,,,0,0,8,,,,,7,,,70,60
70680,note_on,,,,,0,0,1,,,,,0,,,70,80
70680,note_off,,,,,24,0,1,,,,,0,,,72,0
70680,note_off,,,,,24,0,3,,,,,2,,,72,0
70680,note_off,,,,,24,0,2,,,,,1,,,72,0
70680,note_on,,,,,0,0,3,,,,,2,,,70,100
70680,note_on,,,,,0,0,2,,,,,1,,,70,77
70704,note_on,,,,,0,0,1,,,,,0,,,72,80
70704,note_off,,,,,24,0,1,,,,,0,,,70,0
70704,note_on,,,,,0,0,2,,,,,1,,,72,77
70704,note_off,,,,,24,0,2,,,,,1,,,70,0
70704,note_on,,,,,0,0,3,,,,,2,,,72,100
70704,note_off,,,,,24,0,3,,,,,2,,,70,0
70728,note_off,,,,,24,0,1,,,,,0,,,72,0
70728,note_off,,,,,24,0,2,,,,,1,,,72,0
70728,note_on,,,,,0,0,2,,,,,1,,,70,77
70728,note_on,,,,,0,0,1,,,,,0,,,70,80
70728,note_off,,,,,24,0,3,,,,,2,,,72,0
70728,note_on,,,,,0,0,3,,,,,2,,,70,100
70752,note_off,,,,,96,0,4,,,,,3,,,62,0
70752,note_on,,,,,0,0,4,,,,,3,,,70,108
70752,note_on,,,,,0,0,1,,,,,0,,,72,80
70752,note_off,,,,,24,0,1,,,,,0,,,70,0
70752,note_off,,,,,24,0,2,,,,,1,,,70,0
70752,note_on,,,,,0,0,2,,,,,1,,,72,77
70752,note_off,,,,,24,0,3,,,,,2,,,70,0
70752,note_on,,,,,0,0,3,,,,,2,,,72,100
70776,note_on,,,,,0,0,2,,,,,1,,,70,77
70776,note_off,,,,,24,0,2,,,,,1,,,72,0
70776,note_off,,,,,24,0,3,,,,,2,,,72,0
70776,note_on,,,,,0,0,3,,,,,2,,,70,100
70776,note_off,,,,,24,0,1,,,,,0,,,72,0
70776,note_on,,,,,0,0,1,,,,,0,,,70,80
70800,note_off,,,,,24,0,3,,,,,2,,,70,0
70800,note_on,,,,,0,0,3,,,,,2,,,69,100
70800,note_off,,,,,24,0,2,,,,,1,,,70,0
70800,note_on,,,,,0,0,2,,,,,1,,,69,77
70800,note_on,,,,,0,0,1,,,,,0,,,69,80
70800,note_off,,,,,24,0,1,,,,,0,,,70,0
70824,note_off,,,,,24,0,3,,,,,2,,,69,0
70824,note_on,,,,,0,0,3,,,,,2,,,70,100
70824,note_on,,,,,0,0,2,,,,,1,,,70,77
70824,note_on,,,,,0,0,1,,,,,0,,,70,80
70824,note_off,,,,,24,0,1,,,,,0,,,69,0
70824,note_off,,,,,24,0,2,,,,,1,,,69,0
70844,note_off,,,,,188,0,7,,,,,6,,,34,0
70844,note_off,,,,,188,0,6,,,,,5,,,46,0
70844,note_off,,,,,188,0,5,,,,,4,,,65,0
70844,note_off,,,,,20,0,2,,,,,1,,,70,0
70844,note_off,,,,,0,0,8,,,,,7,,,70,0
70844,note_off,,,,,0,0,8,,,,,7,,,65,0
70844,note_off,,,,,188,0,8,,,,,7,,,62,0
70844,note_off,,,,,188,0,9,,,,,8,,,46,0
70844,note_off,,,,,20,0,1,,,,,0,,,70,0
70848,note_off,,,,,24,0,3,,,,,2,,,70,0
70848,note_on,,,,,0,0,3,,,,,2,,,72,100
70848,note_on,,,,,4,0,2,,,,,1,,,72,77
70848,note_on,,,,,4,0,5,,,,,4,,,65,92
70848,note_on,,,,,0,0,4,,,,,3,,,69,108
70848,note_on,,,,,4,0,7,,,,,6,,,41,80
70848,note_on,,,,,4,0,9,,,,,8,,,53,60
70848,note_on,,,,,4,0,6,,,,,5,,,53,92
70848,note_on,,,,,4,0,8,,,,,7,,,60,60
70848,note_on,,,,,0,0,8,,,,,7,,,65,60
70848,note_on,,,,,0,0,8,,,,,7,,,69,60
70848,note_off,,,,,96,0,4,,,,,3,,,70,0
70848,note_on,,,,,4,0,1,,,,,0,,,72,80
71036,note_off,,,,,188,0,6,,,,,5,,,53,0
71036,note_off,,,,,188,0,1,,,,,0,,,72,0
71036,note_off,,,,,188,0,9,,,,,8,,,53,0
71036,note_off,,,,,188,0,5,,,,,4,,,65,0
71036,note_off,,,,,188,0,2,,,,,1,,,72,0
71036,note_off,,,,,188,0,8,,,,,7,,,60,0
71036,note_off,,,,,0,0,8,,,,,7,,,65,0
71036,note_off,,,,,0,0,8,,,,,7,,,69,0
71036,note_off,,,,,188,0,7,,,,,6,,,41,0
71040,note_on,,,,,0,0,8,,,,,7,,,70,60
71040,note_on,,,,,0,0,4,,,,,3,,,65,108
71040,note_on,,,,,0,0,3,,,,,2,,,77,100
71040,note_on,,,,,4,0,7,,,,,6,,,38,80
71040,note_on,,,,,4,0,6,,,,,5,,,50,92
71040,note_off,,,,,192,0,4,,,,,3,,,69,0
71040,note_off,,,,,192,0,3,,,,,2,,,72,0
71040,note_on,,,,,4,0,9,,,,,8,,,50,60
71040,note_on,,,,,0,0,8,,,,,7,,,65,60
71040,note_on,,,,,4,0,8,,,,,7,,,62,60
71040,note_on,,,,,4,0,1,,,,,0,,,77,80
71040,note_on,,,,,4,0,5,,,,,4,,,65,92
71040,note_on,,,,,4,0,2,,,,,1,,,77,77
71132,note_off,,,,,92,0,1,,,,,0,,,77,0
71132,note_off,,,,,92,0,2,,,,,1,,,77,0
71136,note_off,,,,,96,0,3,,,,,2,,,77,0
71136,note_on,,,,,4,0,1,,,,,0,,,70,80
71136,note_on,,,,,0,0,3,,,,,2,,,70,100
71136,note_on,,,,,4,0,2,,,,,1,,,70,77
71228,note_off,,,,,0,0,8,,,,,7,,,65,0
71228,note_off,,,,,0,0,8,,,,,7,,,70,0
71228,note_off,,,,,188,0,7,,,,,6,,,38,0
71228,note_off,,,,,188,0,6,,,,,5,,,50,0
71228,note_off,,,,,92,0,1,,,,,0,,,70,0
71228,note_off,,,,,188,0,8,,,,,7,,,62,0
71228,note_off,,,,,188,0,9,,,,,8,,,50,0
71228,note_off,,,,,92,0,2,,,,,1,,,70,0
71228,note_off,,,,,188,0,5,,,,,4,,,65,0
71232,note_off,,,,,96,0,3,,,,,2,,,70,0
71232,note_on,,,,,0,0,4,,,,,3,,,63,108
71232,note_on,,,,,4,0,6,,,,,5,,,48,92
71232,note_off,,,,,192,0,4,,,,,3,,,65,0
71232,note_on,,,,,0,0,3,,,,,2,,,69,100
71232,note_on,,,,,4,0,5,,,,,4,,,69,92
71232,note_on,,,,,4,0,7,,,,,6,,,36,80
71232,note_on,,,,,4,0,8,,,,,7,,,63,60
71232,note_on,,,,,4,0,1,,,,,0,,,69,80
71232,note_on,,,,,4,0,2,,,,,1,,,69,77
71232,note_on,,,,,4,0,9,,,,,8,,,48,60
71232,note_on,,,,,0,0,8,,,,,7,,,69,60
71324,note_off,,,,,92,0,1,,,,,0,,,69,0
71324,note_off,,,,,92,0,2,,,,,1,,,69,0
71328,note_off,,,,,96,0,3,,,,,2,,,69,0
71328,note_on,,,,,0,0,3,,,,,2,,,70,100
71328,note_on,,,,,4,0,1,,,,,0,,,70,80
71328,note_on,,,,,4,0,2,,,,,1,,,70,77
71420,note_off,,,,,188,0,7,,,,,6,,,36,0
71420,note_off,,,,,188,0,5,,,,,4,,,69,0
71420,note_off,,,,,188,0,6,,,,,5,,,48,0
71420,note_off,,,,,188,0,8,,,,,7,,,63,0
71420,note_off,,,,,0,0,8,,,,,7,,,69,0
71420,note_off,,,,,92,0,2,,,,,1,,,70,0
71420,note_off,,,,,92,0,1,,,,,0,,,70,0
71420,note_off,,,,,188,0,9,,,,,8,,,48,0
71424,note_off,,,,,192,0,4,,,,,3,,,63,0
71424,note_on,,,,,4,0,1,,,,,0,,,72,80
71424,note_on,,,,,0,0,3,,,,,2,,,72,100
71424,note_off,,,,,96,0,3,,,,,2,,,70,0
71424,note_on,,,,,4,0,5,,,,,4,,,65,92
71424,note_on,,,,,0,0,4,,,,,3,,,62,108
71424,note_on,,,,,4,0,2,,,,,1,,,72,77
71424,note_on,,,,,4,0,7,,,,,6,,,34,80
71424,note_on,,,,,4,0,8,,,,,7,,,62,60
71424,note_on,,,,,0,0,8,,,,,7,,,65,60
71424,note_on,,,,,0,0,8,,,,,7,,,70,60
71424,note_on,,,,,4,0,9,,,,,8,,,46,60
71424,note_on,,,,,4,0,6,,,,,5,,,46,92
71448,note_on,,,,,0,0,3,,,,,2,,,70,100
71448,note_off,,,,,24,0,2,,,,,1,,,72,0
71448,note_on,,,,,0,0,2,,,,,1,,,70,77
71448,note_off,,,,,24,0,3,,,,,2,,,72,0
71448,note_off,,,,,24,0,1,,,,,0,,,72,0
71448,note_on,,,,,0,0,1,,,,,0,,,70,80
71472,note_on,,,,,0,0,2,,,,,1,,,72,77
71472,note_off,,,,,24,0,3,,,,,2,,,70,0
71472,note_on,,,,,0,0,3,,,,,2,,,72,100
71472,note_on,,,,,0,0,1,,,,,0,,,72,80
71472,note_off,,,,,24,0,1,,,,,0,,,70,0
71472,note_off,,,,,24,0,2,,,,,1,,,70,0
71496,note_on,,,,,0,0,1,,,,,0,,,70,80
71496,note_off,,,,,24,0,3,,,,,2,,,72,0
71496,note_off,,,,,24,0,2,,,,,1,,,72,0
71496,note_on,,,,,0,0,2,,,,,1,,,70,77
71496,note_on,,,,,0,0,3,,,,,2,,,70,100
71496,note_off,,,,,24,0,1,,,,,0,,,72,0
71520,note_on,,,,,0,0,4,,,,,3,,,70,108
71520,note_off,,,,,24,0,3,,,,,2,,,70,0
71520,note_on,,,,,0,0,3,,,,,2,,,72,100
71520,note_on,,,,,0,0,1,,,,,0,,,72,80
71520,note_on,,,,,0,0,2,,,,,1,,,72,77
71520,note_off,,,,,24,0,2,,,,,1,,,70,0
71520,note_off,,,,,24,0,1,,,,,0,,,70,0
71520,note_off,,,,,96,0,4,,,,,3,,,62,0
71544,note_on,,,,,0,0,1,,,,,0,,,70,80
71544,note_on,,,,,0,0,3,,,,,2,,,70,100
71544,note_off,,,,,24,0,3,,,,,2,,,72,0
71544,note_on,,,,,0,0,2,,,,,1,,,70,77
71544,note_off,,,,,24,0,2,,,,,1,,,72,0
71544,note_off,,,,,24,0,1,,,,,0,,,72,0
71568,note_off,,,,,24,0,3,,,,,2,,,70,0
71568,note_on,,,,,0,0,1,,,,,0,,,69,80
71568,note_off,,,,,24,0,2,,,,,1,,,70,0
71568,note_on,,,,,0,0,2,,,,,1,,,69,77
71568,note_on,,,,,0,0,3,,,,,2,,,69,100
71568,note_off,,,,,24,0,1,,,,,0,,,70,0
71592,note_on,,,,,0,0,1,,,,,0,,,70,80
71592,note_off,,,,,24,0,1,,,,,0,,,69,0
71592,note_off,,,,,24,0,3,,,,,2,,,69,0
71592,note_on,,,,,0,0,2,,,,,1,,,70,77
71592,note_off,,,,,24,0,2,,,,,1,,,69,0
71592,note_on,,,,,0,0,3,,,,,2,,,70,100
71612,note_off,,,,,0,0,8,,,,,7,,,70,0
71612,note_off,,,,,0,0,8,,,,,7,,,65,0
71612,note_off,,,,,188,0,8,,,,,7,,,62,0
71612,note_off,,,,,20,0,1,,,,,0,,,70,0
71612,note_off,,,,,188,0,9,,,,,8,,,46,0
71612,note_off,,,,,20,0,2,,,,,1,,,70,0
71612,note_off,,,,,188,0,5,,,,,4,,,65,0
71612,note_off,,,,,188,0,7,,,,,6,,,34,0
71612,note_off,,,,,188,0,6,,,,,5,,,46,0
71616,note_off,,,,,96,0,4,,,,,3,,,70,0
71616,note_on,,,,,0,0,8,,,,,7,,,69,60
71616,note_on,,,,,4,0,9,,,,,8,,,53,60
71616,note_on,,,,,4,0,2,,,,,1,,,72,77
71616,note_on,,,,,4,0,1,,,,,0,,,72,80
71616,note_on,,,,,4,0,5,,,,,4,,,65,92
71616,note_on,,,,,0,0,8,,,,,7,,,65,60
71616,note_on,,,,,0,0,3,,,,,2,,,72,100
71616,note_off,,,,,24,0,3,,,,,2,,,70,0
71616,note_on,,,,,4,0,8,,,,,7,,,60,60
71616,note_on,,,,,4,0,6,,,,,5,,,53,92
71616,note_on,,,,,4,0,7,,,,,6,,,41,80
71616,note_on,,,,,0,0,4,,,,,3,,,69,108
71804,note_off,,,,,0,0,8,,,,,7,,,69,0
71804,note_off,,,,,188,0,8,,,,,7,,,60,0
71804,note_off,,,,,188,0,9,,,,,8,,,53,0
71804,note_off,,,,,0,0,8,,,,,7,,,65,0
71804,note_off,,,,,188,0,6,,,,,5,,,53,0
71804,note_off,,,,,188,0,5,,,,,4,,,65,0
71804,note_off,,,,,188,0,7,,,,,6,,,41,0
71808,note_on,,,,,4,0,7,,,,,6,,,45,80
71808,note_off,,,,,192,0,4,,,,,3,,,69,0
71808,note_on,,,,,0,0,8,,,,,7,,,65,60
71808,note_on,,,,,4,0,8,,,,,7,,,60,60
71808,note_on,,,,,4,0,6,,,,,5,,,57,92
71808,note_on,,,,,0,0,4,,,,,3,,,65,108
71808,note_on,,,,,4,0,5,,,,,4,,,65,92
71808,note_on,,,,,4,0,9,,,,,8,,,57,60
71936,note_off,,,,,320,0,2,,,,,1,,,72,0
71936,note_off,,,,,320,0,1,,,,,0,,,72,0
71996,note_off,,,,,188,0,6,,,,,5,,,57,0
71996,note_off,,,,,0,0,8,,,,,7,,,65,0
71996,note_off,,,,,188,0,9,,,,,8,,,57,0
71996,note_off,,,,,188,0,5,,,,,4,,,65,0
71996,note_off,,,,,188,0,7,,,,,6,,,45,0
71996,note_off,,,,,188,0,8,,,,,7,,,60,0
72000,note_on,,,,,4,0,7,,,,,6,,,46,80
72000,note_on,,,,,4,0,6,,,,,5,,,58,92
72000,note_on,,,,,4,0,8,,,,,7,,,62,60
72000,note_on,,,,,0,0,8,,,,,7,,,65,60
72000,note_off,,,,,384,0,3,,,,,2,,,72,0
72000,note_off,,,,,192,0,4,,,,,3,,,65,0
72000,note_on,,,,,0,0,4,,,,,3,,,74,108
72000,note_on,,,,,4,0,9,,,,,8,,,58,60
72000,note_on,,,,,4,0,5,,,,,4,,,65,92
72188,note_off,,,,,188,0,7,,,,,6,,,46,0
72188,note_off,,,,,188,0,6,,,,,5,,,58,0
72188,note_off,,,,,0,0,8,,,,,7,,,65,0
72188,note_off,,,,,188,0,8,,,,,7,,,62,0
72188,note_off,,,,,188,0,5,,,,,4,,,65,0
72188,note_off,,,,,188,0,9,,,,,8,,,58,0
72192,note_on,,,,,4,0,6,,,,,5,,,62,92
72192,note_off,,,,,192,0,4,,,,,3,,,74,0
72192,note_on,,,,,192,0,3,,,,,2,,,70,100
72192,note_on,,,,,256,0,2,,,,,1,,,70,77
72192,note_on,,,,,0,0,4,,,,,3,,,77,108
72192,note_on,,,,,0,0,8,,,,,7,,,70,60
72192,note_on,,,,,4,0,5,,,,,4,,,70,92
72192,note_on,,,,,256,0,1,,,,,0,,,70,80
72192,note_on,,,,,4,0,7,,,,,6,,,50,80
72192,note_on,,,,,4,0,9,,,,,8,,,62,60
72192,note_on,,,,,4,0,8,,,,,7,,,65,60
72380,note_off,,,,,188,0,5,,,,,4,,,70,0
72380,note_off,,,,,188,0,6,,,,,5,,,62,0
72380,note_off,,,,,188,0,9,,,,,8,,,62,0
72380,note_off,,,,,188,0,2,,,,,1,,,70,0
72380,note_off,,,,,188,0,7,,,,,6,,,50,0
72380,note_off,,,,,188,0,8,,,,,7,,,65,0
72380,note_off,,,,,0,0,8,,,,,7,,,70,0
72380,note_off,,,,,188,0,1,,,,,0,,,70,0
72384,note_on,,,,,4,0,5,,,,,4,,,75,92
72384,note_on,,,,,0,0,4,,,,,3,,,70,108
72384,note_off,,,,,192,0,4,,,,,3,,,77,0
72384,note_on,,,,,4,0,8,,,,,7,,,67,60
72384,note_on,,,,,0,0,8,,,,,7,,,70,60
72384,note_on,,,,,4,0,6,,,,,5,,,63,92
72384,note_on,,,,,0,0,3,,,,,2,,,79,100
72384,note_on,,,,,4,0,9,,,,,8,,,63,60
72384,note_on,,,,,4,0,1,,,,,0,,,79,80
72384,note_on,,,,,4,0,7,,,,,6,,,51,80
72384,note_on,,,,,4,0,2,,,,,1,,,79,77
72384,note_off,,,,,192,0,3,,,,,2,,,70,0
72476,note_off,,,,,92,0,2,,,,,1,,,79,0
72476,note_off,,,,,92,0,1,,,,,0,,,79,0
72480,note_on,,,,,4,0,1,,,,,0,,,75,80
72480,note_on,,,,,0,0,3,,,,,2,,,75,100
72480,note_off,,,,,96,0,3,,,,,2,,,79,0
72480,note_on,,,,,4,0,2,,,,,1,,,75,77
72572,note_off,,,,,188,0,7,,,,,6,,,51,0
72572,note_off,,,,,92,0,1,,,,,0,,,75,0
72572,note_off,,,,,188,0,8,,,,,7,,,67,0
72572,note_off,,,,,0,0,8,,,,,7,,,70,0
72572,note_off,,,,,92,0,2,,,,,1,,,75,0
72572,note_off,,,,,188,0,5,,,,,4,,,75,0
72572,note_off,,,,,188,0,6,,,,,5,,,63,0
72572,note_off,,,,,188,0,9,,,,,8,,,63,0
72576,note_on,,,,,0,0,3,,,,,2,,,74,100
72576,note_on,,,,,4,0,7,,,,,6,,,48,80
72576,note_on,,,,,0,0,8,,,,,7,,,72,60
72576,note_on,,,,,4,0,1,,,,,0,,,74,80
72576,note_on,,,,,4,0,8,,,,,7,,,63,60
72576,note_on,,,,,4,0,9,,,,,8,,,60,60
72576,note_on,,,,,4,0,6,,,,,5,,,60,92
72576,note_off,,,,,96,0,3,,,,,2,,,75,0
72576,note_on,,,,,0,0,8,,,,,7,,,67,60
72576,note_on,,,,,4,0,5,,,,,4,,,67,92
72576,note_off,,,,,192,0,4,,,,,3,,,70,0
72576,note_on,,,,,0,0,4,,,,,3,,,72,108
72576,note_on,,,,,4,0,2,,,,,1,,,74,77
72668,note_off,,,,,92,0,1,,,,,0,,,74,0
72668,note_off,,,,,92,0,2,,,,,1,,,74,0
72672,note_off,,,,,96,0,3,,,,,2,,,74,0
72672,note_on,,,,,4,0,1,,,,,0,,,75,80
72672,note_on,,,,,0,0,3,,,,,2,,,75,100
72672,note_on,,,,,4,0,2,,,,,1,,,75,77
72764,note_off,,,,,92,0,1,,,,,0,,,75,0
72764,note_off,,,,,188,0,7,,,,,6,,,48,0
72764,note_off,,,,,0,0,8,,,,,7,,,72,0
72764,note_off,,,,,188,0,8,,,,,7,,,63,0
72764,note_off,,,,,188,0,9,,,,,8,,,60,0
72764,note_off,,,,,188,0,5,,,,,4,,,67,0
72764,note_off,,,,,0,0,8,,,,,7,,,67,0
72764,note_off,,,,,188,0,6,,,,,5,,,60,0
72764,note_off,,,,,92,0,2,,,,,1,,,75,0
72768,note_off,,,,,96,0,3,,,,,2,,,75,0
72768,note_off,,,,,192,0,4,,,,,3,,,72,0
72768,note_on,,,,,0,0,3,,,,,2,,,84,100
72768,note_on,,,,,4,0,1,,,,,0,,,84,80
72768,note_on,,,,,4,0,2,,,,,1,,,84,77
72860,note_off,,,,,92,0,2,,,,,1,,,84,0
72860,note_off,,,,,92,0,1,,,,,0,,,84,0
72864,note_on,,,,,4,0,1,,,,,0,,,75,80
72864,note_on,,,,,4,0,2,,,,,1,,,75,77
72864,note_on,,,,,0,0,3,,,,,2,,,75,100
72864,note_off,,,,,96,0,3,,,,,2,,,84,0
72956,note_off,,,,,92,0,1,,,,,0,,,75,0
72956,note_off,,,,,92,0,2,,,,,1,,,75,0
72960,note_on,,,,,0,0,3,,,,,2,,,74,100
72960,note_on,,,,,196,0,7,,,,,6,,,46,80
72960,note_off,,,,,96,0,3,,,,,2,,,75,0
72960,note_on,,,,,196,0,9,,,,,8,,,58,60
72960,note_on,,,,,4,0,1,,,,,0,,,74,80
72960,note_on,,,,,196,0,6,,,,,5,,,58,92
72960,note_on,,,,,192,0,4,,,,,3,,,67,108
72960,note_on,,,,,196,0,5,,,,,4,,,60,92
72960,note_on,,,,,0,0,8,,,,,7,,,72,60
72960,note_on,,,,,0,0,8,,,,,7,,,67,60
72960,note_on,,,,,196,0,8,,,,,7,,,63,60
72960,note_on,,,,,4,0,2,,,,,1,,,74,77
73052,note_off,,,,,92,0,2,,,,,1,,,74,0
73052,note_off,,,,,92,0,1,,,,,0,,,74,0
73056,note_on,,,,,4,0,1,,,,,0,,,75,80
73056,note_on,,,,,4,0,2,,,,,1,,,75,77
73056,note_on,,,,,0,0,3,,,,,2,,,75,100
73056,note_off,,,,,96,0,3,,,,,2,,,74,0
73148,note_off,,,,,92,0,1,,,,,0,,,75,0
73148,note_off,,,,,188,0,5,,,,,4,,,60,0
73148,note_off,,,,,188,0,9,,,,,8,,,58,0
73148,note_off,,,,,188,0,6,,,,,5,,,58,0
73148,note_off,,,,,188,0,8,,,,,7,,,63,0
73148,note_off,,,,,188,0,7,,,,,6,,,46,0
73148,note_off,,,,,92,0,2,,,,,1,,,75,0
73148,note_off,,,,,0,0,8,,,,,7,,,67,0
73148,note_off,,,,,0,0,8,,,,,7,,,72,0
73152,note_on,,,,,4,0,2,,,,,1,,,77,77
73152,note_on,,,,,4,0,5,,,,,4,,,65,92
73152,note_on,,,,,0,0,8,,,,,7,,,65,60
73152,note_off,,,,,96,0,3,,,,,2,,,75,0
73152,note_off,,,,,192,0,4,,,,,3,,,67,0
73152,note_on,,,,,0,0,3,,,,,2,,,77,100
73152,note_on,,,,,0,0,8,,,,,7,,,70,60
73152,note_on,,,,,0,0,4,,,,,3,,,72,108
73152,note_on,,,,,4,0,6,,,,,5,,,57,92
73152,note_on,,,,,4,0,7,,,,,6,,,45,80
73152,note_on,,,,,4,0,1,,,,,0,,,77,80
73152,note_on,,,,,4,0,9,,,,,8,,,57,60
73152,note_on,,,,,4,0,8,,,,,7,,,60,60
73244,note_off,,,,,92,0,1,,,,,0,,,77,0
73244,note_off,,,,,92,0,2,,,,,1,,,77,0
73248,note_on,,,,,4,0,1,,,,,0,,,74,80
73248,note_on,,,,,4,0,2,,,,,1,,,74,77
73248,note_off,,,,,96,0,3,,,,,2,,,77,0
73248,note_on,,,,,0,0,3,,,,,2,,,74,100
73340,note_off,,,,,0,0,8,,,,,7,,,70,0
73340,note_off,,,,,188,0,6,,,,,5,,,57,0
73340,note_off,,,,,188,0,8,,,,,7,,,60,0
73340,note_off,,,,,0,0,8,,,,,7,,,65,0
73340,note_off,,,,,188,0,9,,,,,8,,,57,0
73340,note_off,,,,,188,0,5,,,,,4,,,65,0
73340,note_off,,,,,92,0,1,,,,,0,,,74,0
73340,note_off,,,,,92,0,2,,,,,1,,,74,0
73340,note_off,,,,,188,0,7,,,,,6,,,45,0
73344,note_on,,,,,0,0,8,,,,,7,,,65,60
73344,note_on,,,,,0,0,8,,,,,7,,,70,60
73344,note_on,,,,,4,0,6,,,,,5,,,58,92
73344,note_on,,,,,4,0,2,,,,,1,,,72,77
73344,note_on,,,,,0,0,3,,,,,2,,,72,100
73344,note_on,,,,,4,0,8,,,,,7,,,62,60
73344,note_on,,,,,4,0,9,,,,,8,,,58,60
73344,note_off,,,,,96,0,3,,,,,2,,,74,0
73344,note_off,,,,,192,0,4,,,,,3,,,72,0
73344,note_on,,,,,4,0,7,,,,,6,,,46,80
73344,note_on,,,,,4,0,1,,,,,0,,,72,80
73344,note_on,,,,,4,0,5,,,,,4,,,70,92
73344,note_on,,,,,0,0,4,,,,,3,,,65,108
73436,note_off,,,,,92,0,2,,,,,1,,,72,0
73436,note_off,,,,,92,0,1,,,,,0,,,72,0
73440,note_on,,,,,4,0,2,,,,,1,,,74,77
73440,note_on,,,,,4,0,1,,,,,0,,,74,80
73440,note_on,,,,,0,0,3,,,,,2,,,74,100
73440,note_off,,,,,96,0,3,,,,,2,,,72,0
73532,note_off,,,,,188,0,7,,,,,6,,,46,0
73532,note_off,,,,,92,0,1,,,,,0,,,74,0
73532,note_off,,,,,188,0,6,,,,,5,,,58,0
73532,note_off,,,,,188,0,9,,,,,8,,,58,0
73532,note_off,,,,,92,0,2,,,,,1,,,74,0
73532,note_off,,,,,0,0,8,,,,,7,,,70,0
73532,note_off,,,,,188,0,5,,,,,4,,,70,0
73532,note_off,,,,,188,0,8,,,,,7,,,62,0
73532,note_off,,,,,0,0,8,,,,,7,,,65,0
73536,note_on,,,,,4,0,2,,,,,1,,,82,77
73536,note_off,,,,,192,0,4,,,,,3,,,65,0
73536,note_on,,,,,4,0,1,,,,,0,,,82,80
73536,note_off,,,,,96,0,3,,,,,2,,,74,0
73536,note_on,,,,,0,0,3,,,,,2,,,82,100
73628,note_off,,,,,92,0,1,,,,,0,,,82,0
73628,note_off,,,,,92,0,2,,,,,1,,,82,0
73632,note_off,,,,,96,0,3,,,,,2,,,82,0
73632,note_on,,,,,0,0,3,,,,,2,,,74,100
73632,note_on,,,,,4,0,1,,,,,0,,,74,80
73632,note_on,,,,,4,0,2,,,,,1,,,74,77
73724,note_off,,,,,92,0,1,,,,,0,,,74,0
73724,note_off,,,,,92,0,2,,,,,1,,,74,0
73728,note_on,,,,,196,0,8,,,,,7,,,62,60
73728,note_on,,,,,196,0,5,,,,,4,,,62,92
73728,note_on,,,,,0,0,8,,,,,7,,,65,60
73728,note_on,,,,,0,0,8,,,,,7,,,69,60
73728,note_on,,,,,4,0,1,,,,,0,,,72,80
73728,note_on,,,,,4,0,2,,,,,1,,,72,77
73728,note_on,,,,,192,0,4,,,,,3,,,69,108
73728,note_on,,,,,0,0,3,,,,,2,,,72,100
73728,note_off,,,,,96,0,3,,,,,2,,,74,0
73728,note_on,,,,,196,0,9,,,,,8,,,53,60
73728,note_on,,,,,196,0,6,,,,,5,,,53,92
73728,note_on,,,,,196,0,7,,,,,6,,,41,80
73820,note_off,,,,,92,0,2,,,,,1,,,72,0
73820,note_off,,,,,92,0,1,,,,,0,,,72,0
73824,note_off,,,,,96,0,3,,,,,2,,,72,0
73824,note_on,,,,,0,0,3,,,,,2,,,74,100
73824,note_on,,,,,4,0,1,,,,,0,,,74,80
73824,note_on,,,,,4,0,2,,,,,1,,,74,77
73916,note_off,,,,,92,0,1,,,,,0,,,74,0
73916,note_off,,,,,188,0,5,,,,,4,,,62,0
73916,note_off,,,,,188,0,8,,,,,7,,,62,0
73916,note_off,,,,,92,0,2,,,,,1,,,74,0
73916,note_off,,,,,188,0,6,,,,,5,,,53,0
73916,note_off,,,,,0,0,8,,,,,7,,,69,0
73916,note_off,,,,,188,0,7,,,,,6,,,41,0
73916,note_off,,,,,188,0,9,,,,,8,,,53,0
73916,note_off,,,,,0,0,8,,,,,7,,,65,0
73920,note_on,,,,,0,0,3,,,,,2,,,75,100
73920,note_off,,,,,96,0,3,,,,,2,,,74,0
73920,note_on,,,,,4,0,8,,,,,7,,,58,60
73920,note_on,,,,,0,0,4,,,,,3,,,70,108
73920,note_on,,,,,4,0,2,,,,,1,,,75,77
73920,note_on,,,,,4,0,5,,,,,4,,,58,92
73920,note_off,,,,,192,0,4,,,,,3,,,69,0
73920,note_on,,,,,0,0,8,,,,,7,,,63,60
73920,note_on,,,,,4,0,9,,,,,8,,,55,60
73920,note_on,,,,,4,0,6,,,,,5,,,55,92
73920,note_on,,,,,4,0,7,,,,,6,,,43,80
73920,note_on,,,,,4,0,1,,,,,0,,,75,80
73920,note_on,,,,,0,0,8,,,,,7,,,70,60
74012,note_off,,,,,92,0,1,,,,,0,,,75,0
74012,note_off,,,,,92,0,2,,,,,1,,,75,0
74016,note_off,,,,,96,0,3,,,,,2,,,75,0
74016,note_on,,,,,4,0,2,,,,,1,,,63,77
74016,note_on,,,,,0,0,3,,,,,2,,,63,100
74016,note_on,,,,,4,0,1,,,,,0,,,63,80
74108,note_off,,,,,0,0,8,,,,,7,,,70,0
74108,note_off,,,,,0,0,8,,,,,7,,,63,0
74108,note_off,,,,,188,0,8,,,,,7,,,58,0
74108,note_off,,,,,188,0,9,,,,,8,,,55,0
74108,note_off,,,,,188,0,6,,,,,5,,,55,0
74108,note_off,,,,,188,0,7,,,,,6,,,43,0
74108,note_off,,,,,92,0,2,,,,,1,,,63,0
74108,note_off,,,,,92,0,1,,,,,0,,,63,0
74108,note_off,,,,,188,0,5,,,,,4,,,58,0
74112,note_on,,,,,4,0,6,,,,,5,,,60,92
74112,note_on,,,,,4,0,7,,,,,6,,,48,80
74112,note_on,,,,,4,0,2,,,,,1,,,65,77
74112,note_on,,,,,4,0,1,,,,,0,,,65,80
74112,note_on,,,,,4,0,5,,,,,4,,,60,92
74112,note_off,,,,,96,0,3,,,,,2,,,63,0
74112,note_on,,,,,0,0,3,,,,,2,,,65,100
74112,note_on,,,,,0,0,4,,,,,3,,,60,108
74112,note_off,,,,,192,0,4,,,,,3,,,70,0
74112,note_on,,,,,4,0,8,,,,,7,,,63,60
74112,note_on,,,,,0,0,8,,,,,7,,,67,60
74112,note_on,,,,,4,0,9,,,,,8,,,60,60
74204,note_off,,,,,92,0,2,,,,,1,,,65,0
74204,note_off,,,,,92,0,1,,,,,0,,,65,0
74208,note_off,,,,,96,0,3,,,,,2,,,65,0
74208,note_on,,,,,0,0,3,,,,,2,,,63,100
74208,note_on,,,,,4,0,2,,,,,1,,,63,77
74208,note_on,,,,,4,0,1,,,,,0,,,63,80
74300,note_off,,,,,92,0,2,,,,,1,,,63,0
74300,note_off,,,,,188,0,6,,,,,5,,,60,0
74300,note_off,,,,,92,0,1,,,,,0,,,63,0
74300,note_off,,,,,0,0,8,,,,,7,,,67,0
74300,note_off,,,,,188,0,5,,,,,4,,,60,0
74300,note_off,,,,,188,0,9,,,,,8,,,60,0
74300,note_off,,,,,188,0,8,,,,,7,,,63,0
74300,note_off,,,,,188,0,7,,,,,6,,,48,0
74304,note_on,,,,,0,0,8,,,,,7,,,63,60
74304,note_on,,,,,0,0,8,,,,,7,,,65,60
74304,note_on,,,,,4,0,8,,,,,7,,,60,60
74304,note_on,,,,,4,0,2,,,,,1,,,65,77
74304,note_on,,,,,0,0,3,,,,,2,,,65,100
74304,note_off,,,,,96,0,3,,,,,2,,,63,0
74304,note_on,,,,,4,0,5,,,,,4,,,65,92
74304,note_on,,,,,4,0,9,,,,,8,,,57,60
74304,note_on,,,,,4,0,6,,,,,5,,,57,92
74304,note_off,,,,,192,0,4,,,,,3,,,60,0
74304,note_on,,,,,0,0,4,,,,,3,,,60,108
74304,note_on,,,,,4,0,1,,,,,0,,,65,80
74304,note_on,,,,,4,0,7,,,,,6,,,45,80
74396,note_off,,,,,92,0,2,,,,,1,,,65,0
74396,note_off,,,,,92,0,1,,,,,0,,,65,0
74400,note_on,,,,,4,0,2,,,,,1,,,75,77
74400,note_off,,,,,96,0,3,,,,,2,,,65,0
74400,note_on,,,,,4,0,1,,,,,0,,,75,80
74400,note_on,,,,,0,0,3,,,,,2,,,75,100
74492,note_off,,,,,92,0,1,,,,,0,,,75,0
74492,note_off,,,,,92,0,2,,,,,1,,,75,0
74492,note_off,,,,,188,0,7,,,,,6,,,45,0
74492,note_off,,,,,188,0,5,,,,,4,,,65,0
74492,note_off,,,,,188,0,9,,,,,8,,,57,0
74492,note_off,,,,,188,0,6,,,,,5,,,57,0
74496,note_on,,,,,0,0,3,,,,,2,,,77,100
74496,note_on,,,,,4,0,7,,,,,6,,,41,80
74496,note_on,,,,,4,0,5,,,,,4,,,69,92
74496,note_on,,,,,4,0,1,,,,,0,,,77,80
74496,note_on,,,,,4,0,9,,,,,8,,,53,60
74496,note_on,,,,,0,0,4,,,,,3,,,72,108
74496,note_off,,,,,96,0,3,,,,,2,,,75,0
74496,note_on,,,,,4,0,6,,,,,5,,,53,92
74496,note_off,,,,,192,0,4,,,,,3,,,60,0
74496,note_on,,,,,4,0,2,,,,,1,,,77,77
74588,note_off,,,,,92,0,1,,,,,0,,,77,0
74588,note_off,,,,,92,0,2,,,,,1,,,77,0
74592,note_on,,,,,4,0,1,,,,,0,,,75,80
74592,note_off,,,,,96,0,3,,,,,2,,,77,0
74592,note_on,,,,,0,0,3,,,,,2,,,75,100
74592,note_on,,,,,4,0,2,,,,,1,,,75,77
74624,note_off,,,,,320,0,8,,,,,7,,,60,0
74624,note_off,,,,,0,0,8,,,,,7,,,63,0
74624,note_off,,,,,0,0,8,,,,,7,,,65,0
74684,note_off,,,,,188,0,5,,,,,4,,,69,0
74684,note_off,,,,,188,0,9,,,,,8,,,53,0
74684,note_off,,,,,92,0,2,,,,,1,,,75,0
74684,note_off,,,,,188,0,6,,,,,5,,,53,0
74684,note_off,,,,,188,0,7,,,,,6,,,41,0
74684,note_off,,,,,92,0,1,,,,,0,,,75,0
74688,note_on,,,,,4,0,2,,,,,1,,,74,77
74688,note_on,,,,,4,0,7,,,,,6,,,46,80
74688,note_on,,,,,0,0,3,,,,,2,,,74,100
74688,note_off,,,,,96,0,3,,,,,2,,,75,0
74688,note_on,,,,,64,0,8,,,,,7,,,62,60
74688,note_on,,,,,4,0,5,,,,,4,,,65,92
74688,note_off,,,,,192,0,4,,,,,3,,,72,0
74688,note_on,,,,,4,0,6,,,,,5,,,58,92
74688,note_on,,,,,0,0,4,,,,,3,,,70,108
74688,note_on,,,,,4,0,9,,,,,8,,,58,60
74688,note_on,,,,,4,0,1,,,,,0,,,74,80
74688,note_on,,,,,0,0,8,,,,,7,,,65,60
74876,note_off,,,,,188,0,7,,,,,6,,,46,0
74876,note_off,,,,,188,0,9,,,,,8,,,58,0
74876,note_off,,,,,188,0,6,,,,,5,,,58,0
74876,note_off,,,,,188,0,5,,,,,4,,,65,0
74880,note_on,,,,,4,0,6,,,,,5,,,46,92
74880,note_on,,,,,4,0,9,,,,,8,,,46,60
74880,note_off,,,,,192,0,4,,,,,3,,,70,0
74880,note_on,,,,,4,0,5,,,,,4,,,62,92
74880,note_on,,,,,4,0,7,,,,,6,,,34,80
74880,note_on,,,,,0,0,4,,,,,3,,,70,108
74972,note_off,,,,,284,0,1,,,,,0,,,74,0
74972,note_off,,,,,284,0,2,,,,,1,,,74,0
74976,note_off,,,,,288,0,3,,,,,2,,,74,0
74976,note_on,,,,,0,0,3,,,,,2,,,77,100
74976,note_on,,,,,4,0,2,,,,,1,,,77,77
74976,note_on,,,,,4,0,1,,,,,0,,,77,80
75008,note_off,,,,,320,0,8,,,,,7,,,62,0
75008,note_off,,,,,0,0,8,,,,,7,,,65,0
75068,note_off,,,,,188,0,6,,,,,5,,,46,0
75068,note_off,,,,,92,0,2,,,,,1,,,77,0
75068,note_off,,,,,188,0,5,,,,,4,,,62,0
75068,note_off,,,,,188,0,9,,,,,8,,,46,0
75068,note_off,,,,,92,0,1,,,,,0,,,77,0
75068,note_off,,,,,188,0,7,,,,,6,,,34,0
75072,note_on,,,,,4,0,9,,,,,8,,,50,60
75072,note_on,,,,,0,0,8,,,,,7,,,65,60
75072,note_on,,,,,4,0,1,,,,,0,,,77,80
75072,note_on,,,,,64,0,8,,,,,7,,,58,60
75072,note_on,,,,,4,0,7,,,,,6,,,38,80
75072,note_on,,,,,4,0,6,,,,,5,,,50,92
75072,note_on,,,,,0,0,4,,,,,3,,,65,108
75072,note_off,,,,,192,0,4,,,,,3,,,70,0
75072,note_on,,,,,4,0,5,,,,,4,,,58,92
75072,note_off,,,,,96,0,3,,,,,2,,,77,0
75072,note_on,,,,,0,0,3,,,,,2,,,77,100
75072,note_on,,,,,4,0,2,,,,,1,,,77,77
75164,note_off,,,,,92,0,1,,,,,0,,,77,0
75164,note_off,,,,,92,0,2,,,,,1,,,77,0
75168,note_on,,,,,4,0,1,,,,,0,,,70,80
75168,note_on,,,,,0,0,4,,,,,3,,,62,108
75168,note_on,,,,,4,0,2,,,,,1,,,70,77
75168,note_off,,,,,96,0,4,,,,,3,,,65,0
75168,note_off,,,,,96,0,3,,,,,2,,,77,0
75168,note_on,,,,,0,0,3,,,,,2,,,70,100
75260,note_off,,,,,188,0,5,,,,,4,,,58,0
75260,note_off,,,,,188,0,6,,,,,5,,,50,0
75260,note_off,,,,,188,0,7,,,,,6,,,38,0
75260,note_off,,,,,188,0,8,,,,,7,,,65,0
75260,note_off,,,,,92,0,1,,,,,0,,,70,0
75260,note_off,,,,,188,0,9,,,,,8,,,50,0
75260,note_off,,,,,92,0,2,,,,,1,,,70,0
75264,note_on,,,,,4,0,8,,,,,7,,,63,60
75264,note_on,,,,,0,0,4,,,,,3,,,60,108
75264,note_on,,,,,4,0,5,,,,,4,,,63,92
75264,note_off,,,,,96,0,4,,,,,3,,,62,0
75264,note_on,,,,,4,0,9,,,,,8,,,51,60
75264,note_on,,,,,0,0,8,,,,,7,,,67,60
75264,note_on,,,,,4,0,6,,,,,5,,,51,92
75264,note_on,,,,,4,0,7,,,,,6,,,39,80
75264,note_off,,,,,96,0,3,,,,,2,,,70,0
75264,note_on,,,,,0,0,3,,,,,2,,,69,100
75264,note_on,,,,,4,0,2,,,,,1,,,69,77
75264,note_on,,,,,4,0,1,,,,,0,,,69,80
75356,note_off,,,,,92,0,2,,,,,1,,,69,0
75356,note_off,,,,,92,0,1,,,,,0,,,69,0
75360,note_on,,,,,4,0,2,,,,,1,,,67,77
75360,note_on,,,,,4,0,1,,,,,0,,,67,80
75360,note_off,,,,,96,0,4,,,,,3,,,60,0
75360,note_on,,,,,0,0,4,,,,,3,,,58,108
75360,note_on,,,,,0,0,3,,,,,2,,,67,100
75360,note_off,,,,,96,0,3,,,,,2,,,69,0
75392,note_off,,,,,128,0,8,,,,,7,,,58,0
75452,note_off,,,,,188,0,5,,,,,4,,,63,0
75452,note_off,,,,,188,0,9,,,,,8,,,51,0
75452,note_off,,,,,92,0,1,,,,,0,,,67,0
75452,note_off,,,,,0,0,8,,,,,7,,,67,0
75452,note_off,,,,,188,0,7,,,,,6,,,39,0
75452,note_off,,,,,60,0,8,,,,,7,,,63,0
75452,note_off,,,,,92,0,2,,,,,1,,,67,0
75452,note_off,,,,,188,0,6,,,,,5,,,51,0
75456,note_on,,,,,0,0,8,,,,,7,,,60,60
75456,note_on,,,,,0,0,4,,,,,3,,,57,108
75456,note_off,,,,,96,0,4,,,,,3,,,58,0
75456,note_on,,,,,0,0,3,,,,,2,,,65,100
75456,note_off,,,,,96,0,3,,,,,2,,,67,0
75456,note_on,,,,,4,0,5,,,,,4,,,60,92
75456,note_on,,,,,4,0,8,,,,,7,,,57,60
75456,note_on,,,,,4,0,6,,,,,5,,,53,92
75456,note_on,,,,,4,0,9,,,,,8,,,53,60
75456,note_on,,,,,4,0,7,,,,,6,,,41,80
75456,note_on,,,,,4,0,2,,,,,1,,,65,77
75456,note_on,,,,,4,0,1,,,,,0,,,65,80
75644,note_off,,,,,188,0,9,,,,,8,,,53,0
75644,note_off,,,,,188,0,5,,,,,4,,,60,0
75644,note_off,,,,,188,0,8,,,,,7,,,60,0
75644,note_off,,,,,188,0,7,,,,,6,,,41,0
75644,note_off,,,,,188,0,6,,,,,5,,,53,0
75648,note_on,,,,,4,0,6,,,,,5,,,51,92
75648,note_on,,,,,0,0,4,,,,,3,,,69,108
75648,note_on,,,,,4,0,8,,,,,7,,,65,60
75648,note_on,,,,,4,0,5,,,,,4,,,60,92
75648,note_on,,,,,4,0,7,,,,,6,,,39,80
75648,note_off,,,,,192,0,4,,,,,3,,,57,0
75648,note_on,,,,,4,0,9,,,,,8,,,51,60
75740,note_off,,,,,284,0,1,,,,,0,,,65,0
75740,note_off,,,,,284,0,2,,,,,1,,,65,0
75744,note_on,,,,,0,0,3,,,,,2,,,77,100
75744,note_on,,,,,4,0,1,,,,,0,,,77,80
75744,note_off,,,,,288,0,3,,,,,2,,,65,0
75744,note_on,,,,,4,0,2,,,,,1,,,77,77
75776,note_off,,,,,128,0,8,,,,,7,,,57,0
75836,note_off,,,,,92,0,1,,,,,0,,,77,0
75836,note_off,,,,,188,0,9,,,,,8,,,51,0
75836,note_off,,,,,60,0,8,,,,,7,,,65,0
75836,note_off,,,,,188,0,7,,,,,6,,,39,0
75836,note_off,,,,,188,0,6,,,,,5,,,51,0
75836,note_off,,,,,188,0,5,,,,,4,,,60,0
75836,note_off,,,,,92,0,2,,,,,1,,,77,0
75840,note_on,,,,,4,0,7,,,,,6,,,38,80
75840,note_off,,,,,192,0,4,,,,,3,,,69,0
75840,note_on,,,,,0,0,4,,,,,3,,,70,108
75840,note_on,,,,,4,0,6,,,,,5,,,50,92
75840,note_on,,,,,4,0,9,,,,,8,,,50,60
75840,note_on,,,,,0,0,8,,,,,7,,,65,60
75840,note_on,,,,,0,0,3,,,,,2,,,77,100
75840,note_on,,,,,4,0,8,,,,,7,,,58,60
75840,note_on,,,,,4,0,1,,,,,0,,,77,80
75840,note_off,,,,,96,0,3,,,,,2,,,77,0
75840,note_on,,,,,4,0,2,,,,,1,,,77,77
75840,note_on,,,,,4,0,5,,,,,4,,,62,92
75932,note_off,,,,,92,0,2,,,,,1,,,77,0
75932,note_off,,,,,92,0,1,,,,,0,,,77,0
75932,note_off,,,,,92,0,5,,,,,4,,,62,0
75936,note_on,,,,,4,0,5,,,,,4,,,65,92
75936,note_off,,,,,96,0,3,,,,,2,,,77,0
75936,note_on,,,,,0,0,3,,,,,2,,,70,100
75936,note_on,,,,,0,0,4,,,,,3,,,62,108
75936,note_off,,,,,96,0,4,,,,,3,,,70,0
75936,note_on,,,,,4,0,2,,,,,1,,,70,77
75936,note_on,,,,,4,0,1,,,,,0,,,70,80
76028,note_off,,,,,92,0,2,,,,,1,,,70,0
76028,note_off,,,,,188,0,6,,,,,5,,,50,0
76028,note_off,,,,,188,0,8,,,,,7,,,65,0
76028,note_off,,,,,188,0,9,,,,,8,,,50,0
76028,note_off,,,,,188,0,7,,,,,6,,,38,0
76028,note_off,,,,,92,0,5,,,,,4,,,65,0
76028,note_off,,,,,92,0,1,,,,,0,,,70,0
76032,note_on,,,,,4,0,7,,,,,6,,,39,80
76032,note_on,,,,,0,0,8,,,,,7,,,67,60
76032,note_on,,,,,4,0,5,,,,,4,,,63,92
76032,note_on,,,,,4,0,1,,,,,0,,,69,80
76032,note_on,,,,,4,0,8,,,,,7,,,63,60
76032,note_on,,,,,4,0,6,,,,,5,,,51,92
76032,note_off,,,,,96,0,3,,,,,2,,,70,0
76032,note_on,,,,,0,0,3,,,,,2,,,69,100
76032,note_on,,,,,0,0,4,,,,,3,,,60,108
76032,note_on,,,,,4,0,9,,,,,8,,,51,60
76032,note_on,,,,,4,0,2,,,,,1,,,69,77
76032,note_off,,,,,96,0,4,,,,,3,,,62,0
76124,note_off,,,,,92,0,2,,,,,1,,,69,0
76124,note_off,,,,,92,0,1,,,,,0,,,69,0
76124,note_off,,,,,92,0,5,,,,,4,,,63,0
76128,note_on,,,,,0,0,4,,,,,3,,,58,108
76128,note_off,,,,,96,0,4,,,,,3,,,60,0
76128,note_on,,,,,4,0,5,,,,,4,,,62,92
76128,note_on,,,,,4,0,2,,,,,1,,,67,77
76128,note_off,,,,,96,0,3,,,,,2,,,69,0
76128,note_on,,,,,4,0,1,,,,,0,,,67,80
76128,note_on,,,,,0,0,3,,,,,2,,,67,100
76160,note_off,,,,,128,0,8,,,,,7,,,58,0
76220,note_off,,,,,92,0,5,,,,,4,,,62,0
76220,note_off,,,,,60,0,8,,,,,7,,,63,0
76220,note_off,,,,,188,0,9,,,,,8,,,51,0
76220,note_off,,,,,188,0,6,,,,,5,,,51,0
76220,note_off,,,,,188,0,7,,,,,6,,,39,0
76220,note_off,,,,,0,0,8,,,,,7,,,67,0
76220,note_off,,,,,92,0,2,,,,,1,,,67,0
76220,note_off,,,,,92,0,1,,,,,0,,,67,0
76224,note_on,,,,,4,0,7,,,,,6,,,41,80
76224,note_on,,,,,4,0,5,,,,,4,,,60,92
76224,note_on,,,,,0,0,3,,,,,2,,,65,100
76224,note_on,,,,,4,0,9,,,,,8,,,53,60
76224,note_on,,,,,4,0,8,,,,,7,,,57,60
76224,note_on,,,,,4,0,1,,,,,0,,,65,80
76224,note_off,,,,,96,0,3,,,,,2,,,67,0
76224,note_off,,,,,96,0,4,,,,,3,,,58,0
76224,note_on,,,,,4,0,2,,,,,1,,,65,77
76224,note_on,,,,,0,0,8,,,,,7,,,65,60
76224,note_on,,,,,4,0,6,,,,,5,,,53,92
76224,note_on,,,,,0,0,4,,,,,3,,,57,108
76224,note_on,,,,,0,0,8,,,,,7,,,60,60
76412,note_off,,,,,0,0,8,,,,,7,,,65,0
76412,note_off,,,,,188,0,8,,,,,7,,,57,0
76412,note_off,,,,,0,0,8,,,,,7,,,60,0
76412,note_off,,,,,188,0,7,,,,,6,,,41,0
76412,note_off,,,,,188,0,5,,,,,4,,,60,0
76412,note_off,,,,,188,0,6,,,,,5,,,53,0
76412,note_off,,,,,188,0,9,,,,,8,,,53,0
76416,note_on,,,,,4,0,5,,,,,4,,,60,92
76416,note_on,,,,,4,0,7,,,,,6,,,33,80
76416,note_on,,,,,4,0,6,,,,,5,,,45,92
76416,note_on,,,,,0,0,8,,,,,7,,,65,60
76416,note_off,,,,,192,0,4,,,,,3,,,57,0
76416,note_on,,,,,0,0,4,,,,,3,,,65,108
76416,note_on,,,,,4,0,8,,,,,7,,,60,60
76416,note_on,,,,,4,0,9,,,,,8,,,45,60
76508,note_off,,,,,284,0,1,,,,,0,,,65,0
76508,note_off,,,,,284,0,2,,,,,1,,,65,0
76512,note_on,,,,,0,0,3,,,,,2,,,77,100
76512,note_on,,,,,4,0,1,,,,,0,,,77,80
76512,note_on,,,,,4,0,2,,,,,1,,,77,77
76512,note_off,,,,,288,0,3,,,,,2,,,65,0
76604,note_off,,,,,92,0,2,,,,,1,,,77,0
76604,note_off,,,,,188,0,9,,,,,8,,,45,0
76604,note_off,,,,,188,0,5,,,,,4,,,60,0
76604,note_off,,,,,92,0,1,,,,,0,,,77,0
76604,note_off,,,,,0,0,8,,,,,7,,,65,0
76604,note_off,,,,,188,0,8,,,,,7,,,60,0
76604,note_off,,,,,188,0,6,,,,,5,,,45,0
76604,note_off,,,,,188,0,7,,,,,6,,,33,0
76608,note_on,,,,,4,0,1,,,,,0,,,86,80
76608,note_on,,,,,4,0,5,,,,,4,,,58,92
76608,note_on,,,,,4,0,9,,,,,8,,,46,60
76608,note_on,,,,,4,0,6,,,,,5,,,46,92
76608,note_on,,,,,4,0,2,,,,,1,,,86,77
76608,note_on,,,,,0,0,8,,,,,7,,,65,60
76608,note_on,,,,,4,0,8,,,,,7,,,62,60
76608,note_off,,,,,96,0,3,,,,,2,,,77,0
76608,note_on,,,,,0,0,3,,,,,2,,,86,100
76608,note_on,,,,,0,0,4,,,,,3,,,65,108
76608,note_off,,,,,192,0,4,,,,,3,,,65,0
76608,note_on,,,,,4,0,7,,,,,6,,,34,80
76704,note_on,,,,,0,0,2,,,,,1,,,84,77
76704,note_off,,,,,96,0,3,,,,,2,,,86,0
76704,note_on,,,,,0,0,3,,,,,2,,,84,100
76704,note_off,,,,,96,0,2,,,,,1,,,86,0
76704,note_off,,,,,96,0,1,,,,,0,,,86,0
76704,note_on,,,,,0,0,1,,,,,0,,,84,80
76796,note_off,,,,,188,0,9,,,,,8,,,46,0
76796,note_off,,,,,92,0,1,,,,,0,,,84,0
76796,note_off,,,,,188,0,6,,,,,5,,,46,0
76796,note_off,,,,,188,0,8,,,,,7,,,62,0
76796,note_off,,,,,0,0,8,,,,,7,,,65,0
76796,note_off,,,,,92,0,2,,,,,1,,,84,0
76796,note_off,,,,,188,0,5,,,,,4,,,58,0
76796,note_off,,,,,188,0,7,,,,,6,,,34,0
76800,note_on,,,,,4,0,5,,,,,4,,,63,92
76800,note_on,,,,,0,0,8,,,,,7,,,69,60
76800,note_off,,,,,96,0,3,,,,,2,,,84,0
76800,note_on,,,,,0,0,4,,,,,3,,,63,108
76800,note_on,,,,,0,0,8,,,,,7,,,63,60
76800,note_on,,,,,0,0,3,,,,,2,,,81,100
76800,note_on,,,,,4,0,2,,,,,1,,,81,77
76800,note_off,,,,,192,0,4,,,,,3,,,65,0
76800,note_on,,,,,4,0,9,,,,,8,,,48,60
76800,note_on,,,,,4,0,6,,,,,5,,,48,92
76800,note_on,,,,,4,0,1,,,,,0,,,81,80
76800,note_on,,,,,4,0,8,,,,,7,,,60,60
76800,note_on,,,,,4,0,7,,,,,6,,,36,80
76892,note_off,,,,,92,0,5,,,,,4,,,63,0
76896,note_off,,,,,96,0,3,,,,,2,,,81,0
76896,note_on,,,,,0,0,3,,,,,2,,,82,100
76896,note_on,,,,,0,0,2,,,,,1,,,82,77
76896,note_on,,,,,4,0,5,,,,,4,,,60,92
76896,note_off,,,,,96,0,1,,,,,0,,,81,0
76896,note_on,,,,,0,0,1,,,,,0,,,82,80
76896,note_off,,,,,96,0,2,,,,,1,,,81,0
76988,note_off,,,,,92,0,1,,,,,0,,,82,0
76988,note_off,,,,,92,0,2,,,,,1,,,82,0
76988,note_off,,,,,188,0,8,,,,,7,,,60,0
76988,note_off,,,,,188,0,9,,,,,8,,,48,0
76988,note_off,,,,,0,0,8,,,,,7,,,63,0
76988,note_off,,,,,188,0,6,,,,,5,,,48,0
76988,note_off,,,,,0,0,8,,,,,7,,,69,0
76988,note_off,,,,,188,0,7,,,,,6,,,36,0
76988,note_off,,,,,92,0,5,,,,,4,,,60,0
76992,note_on,,,,,0,0,8,,,,,7,,,65,60
76992,note_on,,,,,4,0,8,,,,,7,,,58,60
76992,note_on,,,,,0,0,8,,,,,7,,,70,60
76992,note_on,,,,,4,0,7,,,,,6,,,38,80
76992,note_off,,,,,96,0,3,,,,,2,,,82,0
76992,note_on,,,,,0,0,3,,,,,2,,,77,100
76992,note_on,,,,,4,0,1,,,,,0,,,77,80
76992,note_on,,,,,4,0,9,,,,,8,,,50,60
76992,note_off,,,,,192,0,4,,,,,3,,,63,0
76992,note_on,,,,,4,0,2,,,,,1,,,77,77
76992,note_on,,,,,4,0,5,,,,,4,,,70,92
76992,note_on,,,,,4,0,6,,,,,5,,,50,92
76992,note_on,,,,,0,0,4,,,,,3,,,62,108
77088,note_on,,,,,0,0,3,,,,,2,,,79,100
77088,note_on,,,,,0,0,2,,,,,1,,,79,77
77088,note_off,,,,,96,0,1,,,,,0,,,77,0
77088,note_off,,,,,96,0,2,,,,,1,,,77,0
77088,note_off,,,,,96,0,3,,,,,2,,,77,0
77088,note_on,,,,,0,0,1,,,,,0,,,79,80
77180,note_off,,,,,188,0,8,,,,,7,,,58,0
77180,note_off,,,,,188,0,9,,,,,8,,,50,0
77180,note_off,,,,,92,0,2,,,,,1,,,79,0
77180,note_off,,,,,188,0,6,,,,,5,,,50,0
77180,note_off,,,,,188,0,7,,,,,6,,,38,0
77180,note_off,,,,,0,0,8,,,,,7,,,65,0
77180,note_off,,,,,188,0,5,,,,,4,,,70,0
77180,note_off,,,,,92,0,1,,,,,0,,,79,0
77180,note_off,,,,,0,0,8,,,,,7,,,70,0
77184,note_on,,,,,4,0,9,,,,,8,,,46,60
77184,note_on,,,,,4,0,7,,,,,6,,,34,80
77184,note_on,,,,,4,0,8,,,,,7,,,62,60
77184,note_on,,,,,0,0,8,,,,,7,,,65,60
77184,note_on,,,,,4,0,5,,,,,4,,,65,92
77184,note_on,,,,,4,0,1,,,,,0,,,74,80
77184,note_off,,,,,192,0,4,,,,,3,,,62,0
77184,note_on,,,,,0,0,3,,,,,2,,,74,100
77184,note_on,,,,,4,0,2,,,,,1,,,74,77
77184,note_off,,,,,96,0,3,,,,,2,,,79,0
77184,note_on,,,,,4,0,6,,,,,5,,,46,92
77184,note_on,,,,,0,0,4,,,,,3,,,70,108
77280,note_off,,,,,96,0,3,,,,,2,,,74,0
77280,note_off,,,,,96,0,1,,,,,0,,,74,0
77280,note_on,,,,,0,0,2,,,,,1,,,75,77
77280,note_off,,,,,96,0,2,,,,,1,,,74,0
77280,note_on,,,,,0,0,3,,,,,2,,,75,100
77280,note_on,,,,,0,0,1,,,,,0,,,75,80
77372,note_off,,,,,92,0,1,,,,,0,,,75,0
77372,note_off,,,,,188,0,6,,,,,5,,,46,0
77372,note_off,,,,,188,0,8,,,,,7,,,62,0
77372,note_off,,,,,0,0,8,,,,,7,,,65,0
77372,note_off,,,,,188,0,9,,,,,8,,,46,0
77372,note_off,,,,,188,0,7,,,,,6,,,34,0
77372,note_off,,,,,92,0,2,,,,,1,,,75,0
77372,note_off,,,,,188,0,5,,,,,4,,,65,0
77376,note_on,,,,,4,0,8,,,,,7,,,58,60
77376,note_on,,,,,0,0,8,,,,,7,,,62,60
77376,note_on,,,,,0,0,8,,,,,7,,,67,60
77376,note_on,,,,,4,0,1,,,,,0,,,70,80
77376,note_on,,,,,4,0,2,,,,,1,,,70,77
77376,note_on,,,,,4,0,5,,,,,4,,,67,92
77376,note_on,,,,,0,0,3,,,,,2,,,70,100
77376,note_on,,,,,4,0,6,,,,,5,,,55,92
77376,note_off,,,,,96,0,3,,,,,2,,,75,0
77376,note_off,,,,,192,0,4,,,,,3,,,70,0
77376,note_on,,,,,4,0,9,,,,,8,,,55,60
77376,note_on,,,,,0,0,4,,,,,3,,,62,108
77376,note_on,,,,,4,0,7,,,,,6,,,43,80
77472,note_off,,,,,96,0,3,,,,,2,,,70,0
77472,note_on,,,,,0,0,3,,,,,2,,,72,100
77472,note_on,,,,,0,0,2,,,,,1,,,72,77
77472,note_off,,,,,96,0,2,,,,,1,,,70,0
77472,note_on,,,,,0,0,1,,,,,0,,,72,80
77472,note_off,,,,,96,0,1,,,,,0,,,70,0
77564,note_off,,,,,92,0,2,,,,,1,,,72,0
77564,note_off,,,,,92,0,1,,,,,0,,,72,0
77564,note_off,,,,,188,0,8,,,,,7,,,58,0
77564,note_off,,,,,0,0,8,,,,,7,,,62,0
77564,note_off,,,,,0,0,8,,,,,7,,,67,0
77564,note_off,,,,,188,0,5,,,,,4,,,67,0
77564,note_off,,,,,188,0,9,,,,,8,,,55,0
77564,note_off,,,,,188,0,7,,,,,6,,,43,0
77564,note_off,,,,,188,0,6,,,,,5,,,55,0
77568,note_on,,,,,4,0,9,,,,,8,,,48,60
77568,note_on,,,,,0,0,3,,,,,2,,,69,100
77568,note_off,,,,,96,0,3,,,,,2,,,72,0
77568,note_off,,,,,192,0,4,,,,,3,,,62,0
77568,note_on,,,,,4,0,7,,,,,6,,,36,80
77568,note_on,,,,,0,0,4,,,,,3,,,63,108
77568,note_on,,,,,0,0,8,,,,,7,,,67,60
77568,note_on,,,,,4,0,1,,,,,0,,,69,80
77568,note_on,,,,,4,0,2,,,,,1,,,69,77
77568,note_on,,,,,0,0,8,,,,,7,,,63,60
77568,note_on,,,,,4,0,8,,,,,7,,,60,60
77568,note_on,,,,,4,0,5,,,,,4,,,55,92
77568,note_on,,,,,4,0,6,,,,,5,,,48,92
77664,note_on,,,,,0,0,3,,,,,2,,,70,100
77664,note_off,,,,,96,0,3,,,,,2,,,69,0
77664,note_off,,,,,96,0,1,,,,,0,,,69,0
77664,note_on,,,,,0,0,1,,,,,0,,,70,80
77664,note_on,,,,,0,0,2,,,,,1,,,70,77
77664,note_off,,,,,96,0,2,,,,,1,,,69,0
77756,note_off,,,,,188,0,6,,,,,5,,,48,0
77756,note_off,,,,,188,0,8,,,,,7,,,60,0
77756,note_off,,,,,188,0,7,,,,,6,,,36,0
77756,note_off,,,,,92,0,1,,,,,0,,,70,0
77756,note_off,,,,,188,0,5,,,,,4,,,55,0
77756,note_off,,,,,92,0,2,,,,,1,,,70,0
77756,note_off,,,,,0,0,8,,,,,7,,,67,0
77756,note_off,,,,,188,0,9,,,,,8,,,48,0
77756,note_off,,,,,0,0,8,,,,,7,,,63,0
77760,note_on,,,,,4,0,8,,,,,7,,,60,60
77760,note_on,,,,,4,0,9,,,,,8,,,57,60
77760,note_on,,,,,4,0,7,,,,,6,,,45,80
77760,note_on,,,,,4,0,6,,,,,5,,,57,92
77760,note_off,,,,,96,0,3,,,,,2,,,70,0
77760,note_on,,,,,0,0,3,,,,,2,,,65,100
77760,note_on,,,,,4,0,5,,,,,4,,,57,92
77760,note_on,,,,,4,0,1,,,,,0,,,65,80
77760,note_on,,,,,0,0,8,,,,,7,,,65,60
77760,note_off,,,,,192,0,4,,,,,3,,,63,0
77760,note_on,,,,,4,0,2,,,,,1,,,65,77
77760,note_on,,,,,0,0,4,,,,,3,,,60,108
77948,note_off,,,,,188,0,5,,,,,4,,,57,0
77948,note_off,,,,,188,0,8,,,,,7,,,60,0
77948,note_off,,,,,0,0,8,,,,,7,,,65,0
77948,note_off,,,,,188,0,6,,,,,5,,,57,0
77948,note_off,,,,,188,0,9,,,,,8,,,57,0
77948,note_off,,,,,188,0,7,,,,,6,,,45,0
77952,note_on,,,,,4,0,7,,,,,6,,,46,80
77952,note_on,,,,,4,0,5,,,,,4,,,65,92
77952,note_on,,,,,4,0,6,,,,,5,,,58,92
77952,note_on,,,,,0,0,8,,,,,7,,,65,60
77952,note_on,,,,,0,0,4,,,,,3,,,58,108
77952,note_off,,,,,192,0,4,,,,,3,,,60,0
77952,note_on,,,,,4,0,8,,,,,7,,,62,60
77952,note_on,,,,,4,0,9,,,,,8,,,58,60
78044,note_off,,,,,284,0,2,,,,,1,,,65,0
78044,note_off,,,,,284,0,1,,,,,0,,,65,0
78048,note_on,,,,,4,0,2,,,,,1,,,86,77
78048,note_off,,,,,288,0,3,,,,,2,,,65,0
78048,note_on,,,,,4,0,1,,,,,0,,,86,80
78048,note_on,,,,,0,0,3,,,,,2,,,86,100
78140,note_off,,,,,188,0,7,,,,,6,,,46,0
78140,note_off,,,,,188,0,9,,,,,8,,,58,0
78140,note_off,,,,,92,0,1,,,,,0,,,86,0
78140,note_off,,,,,188,0,6,,,,,5,,,58,0
78140,note_off,,,,,0,0,8,,,,,7,,,65,0
78140,note_off,,,,,188,0,8,,,,,7,,,62,0
78140,note_off,,,,,92,0,2,,,,,1,,,86,0
78140,note_off,,,,,188,0,5,,,,,4,,,65,0
78144,note_on,,,,,4,0,9,,,,,8,,,46,60
78144,note_on,,,,,4,0,5,,,,,4,,,70,92
78144,note_on,,,,,4,0,8,,,,,7,,,62,60
78144,note_on,,,,,0,0,4,,,,,3,,,65,108
78144,note_off,,,,,192,0,4,,,,,3,,,58,0
78144,note_on,,,,,0,0,8,,,,,7,,,65,60
78144,note_on,,,,,0,0,8,,,,,7,,,70,60
78144,note_on,,,,,4,0,2,,,,,1,,,86,77
78144,note_off,,,,,96,0,3,,,,,2,,,86,0
78144,note_on,,,,,4,0,7,,,,,6,,,34,80
78144,note_on,,,,,4,0,6,,,,,5,,,46,92
78144,note_on,,,,,0,0,3,,,,,2,,,86,100
78144,note_on,,,,,4,0,1,,,,,0,,,86,80
78240,note_off,,,,,96,0,3,,,,,2,,,86,0
78240,note_on,,,,,0,0,3,,,,,2,,,84,100
78240,note_off,,,,,96,0,1,,,,,0,,,86,0
78240,note_on,,,,,0,0,1,,,,,0,,,84,80
78240,note_on,,,,,0,0,2,,,,,1,,,84,77
78240,note_off,,,,,96,0,2,,,,,1,,,86,0
78332,note_off,,,,,92,0,1,,,,,0,,,84,0
78332,note_off,,,,,188,0,9,,,,,8,,,46,0
78332,note_off,,,,,0,0,8,,,,,7,,,65,0
78332,note_off,,,,,188,0,6,,,,,5,,,46,0
78332,note_off,,,,,0,0,8,,,,,7,,,70,0
78332,note_off,,,,,188,0,5,,,,,4,,,70,0
78332,note_off,,,,,188,0,7,,,,,6,,,34,0
78332,note_off,,,,,188,0,8,,,,,7,,,62,0
78332,note_off,,,,,92,0,2,,,,,1,,,84,0
78336,note_on,,,,,0,0,8,,,,,7,,,69,60
78336,note_on,,,,,0,0,8,,,,,7,,,63,60
78336,note_on,,,,,4,0,8,,,,,7,,,60,60
78336,note_on,,,,,4,0,6,,,,,5,,,48,92
78336,note_on,,,,,4,0,7,,,,,6,,,36,80
78336,note_on,,,,,4,0,1,,,,,0,,,81,80
78336,note_on,,,,,0,0,4,,,,,3,,,63,108
78336,note_on,,,,,0,0,3,,,,,2,,,81,100
78336,note_off,,,,,96,0,3,,,,,2,,,84,0
78336,note_off,,,,,192,0,4,,,,,3,,,65,0
78336,note_on,,,,,4,0,2,,,,,1,,,81,77
78336,note_on,,,,,4,0,5,,,,,4,,,63,92
78336,note_on,,,,,4,0,9,,,,,8,,,48,60
78432,note_off,,,,,96,0,2,,,,,1,,,81,0
78432,note_on,,,,,0,0,2,,,,,1,,,82,77
78432,note_on,,,,,0,0,3,,,,,2,,,82,100
78432,note_off,,,,,96,0,3,,,,,2,,,81,0
78432,note_off,,,,,96,0,1,,,,,0,,,81,0
78432,note_on,,,,,0,0,1,,,,,0,,,82,80
78524,note_off,,,,,188,0,7,,,,,6,,,36,0
78524,note_off,,,,,0,0,8,,,,,7,,,69,0
78524,note_off,,,,,188,0,9,,,,,8,,,48,0
78524,note_off,,,,,188,0,6,,,,,5,,,48,0
78524,note_off,,,,,188,0,5,,,,,4,,,63,0
78524,note_off,,,,,188,0,8,,,,,7,,,60,0
78524,note_off,,,,,92,0,2,,,,,1,,,82,0
78524,note_off,,,,,0,0,8,,,,,7,,,63,0
78524,note_off,,,,,92,0,1,,,,,0,,,82,0
78528,note_on,,,,,4,0,5,,,,,4,,,70,92
78528,note_on,,,,,0,0,8,,,,,7,,,70,60
78528,note_on,,,,,4,0,6,,,,,5,,,50,92
78528,note_on,,,,,4,0,1,,,,,0,,,77,80
78528,note_off,,,,,192,0,4,,,,,3,,,63,0
78528,note_on,,,,,0,0,4,,,,,3,,,62,108
78528,note_on,,,,,0,0,3,,,,,2,,,77,100
78528,note_on,,,,,0,0,8,,,,,7,,,65,60
78528,note_on,,,,,4,0,9,,,,,8,,,50,60
78528,note_on,,,,,4,0,8,,,,,7,,,58,60
78528,note_off,,,,,96,0,3,,,,,2,,,82,0
78528,note_on,,,,,4,0,2,,,,,1,,,77,77
78528,note_on,,,,,4,0,7,,,,,6,,,38,80
78624,note_off,,,,,96,0,2,,,,,1,,,77,0
78624,note_off,,,,,96,0,3,,,,,2,,,77,0
78624,note_on,,,,,0,0,3,,,,,2,,,79,100
78624,note_off,,,,,96,0,1,,,,,0,,,77,0
78624,note_on,,,,,0,0,1,,,,,0,,,79,80
78624,note_on,,,,,0,0,2,,,,,1,,,79,77
78716,note_off,,,,,188,0,5,,,,,4,,,70,0
78716,note_off,,,,,92,0,1,,,,,0,,,79,0
78716,note_off,,,,,188,0,9,,,,,8,,,50,0
78716,note_off,,,,,92,0,2,,,,,1,,,79,0
78716,note_off,,,,,188,0,8,,,,,7,,,58,0
78716,note_off,,,,,0,0,8,,,,,7,,,65,0
78716,note_off,,,,,0,0,8,,,,,7,,,70,0
78716,note_off,,,,,188,0,6,,,,,5,,,50,0
78716,note_off,,,,,188,0,7,,,,,6,,,38,0
78720,note_on,,,,,4,0,2,,,,,1,,,74,77
78720,note_on,,,,,4,0,1,,,,,0,,,74,80
78720,note_on,,,,,4,0,8,,,,,7,,,62,60
78720,note_on,,,,,0,0,8,,,,,7,,,65,60
78720,note_on,,,,,4,0,9,,,,,8,,,46,60
78720,note_on,,,,,4,0,5,,,,,4,,,65,92
78720,note_on,,,,,4,0,6,,,,,5,,,46,92
78720,note_off,,,,,192,0,4,,,,,3,,,62,0
78720,note_on,,,,,0,0,4,,,,,3,,,70,108
78720,note_off,,,,,96,0,3,,,,,2,,,79,0
78720,note_on,,,,,4,0,7,,,,,6,,,34,80
78720,note_on,,,,,0,0,3,,,,,2,,,74,100
78816,note_on,,,,,0,0,2,,,,,1,,,75,77
78816,note_off,,,,,96,0,1,,,,,0,,,74,0
78816,note_on,,,,,0,0,3,,,,,2,,,75,100
78816,note_off,,,,,96,0,2,,,,,1,,,74,0
78816,note_on,,,,,0,0,1,,,,,0,,,75,80
78816,note_off,,,,,96,0,3,,,,,2,,,74,0
78908,note_off,,,,,188,0,8,,,,,7,,,62,0
78908,note_off,,,,,0,0,8,,,,,7,,,65,0
78908,note_off,,,,,92,0,1,,,,,0,,,75,0
78908,note_off,,,,,188,0,6,,,,,5,,,46,0
78908,note_off,,,,,92,0,2,,,,,1,,,75,0
78908,note_off,,,,,188,0,9,,,,,8,,,46,0
78908,note_off,,,,,188,0,7,,,,,6,,,34,0
78908,note_off,,,,,188,0,5,,,,,4,,,65,0
78912,note_on,,,,,0,0,4,,,,,3,,,62,108
78912,note_on,,,,,4,0,2,,,,,1,,,70,77
78912,note_on,,,,,4,0,9,,,,,8,,,55,60
78912,note_on,,,,,0,0,3,,,,,2,,,70,100
78912,note_off,,,,,192,0,4,,,,,3,,,70,0
78912,note_on,,,,,4,0,5,,,,,4,,,67,92
78912,note_on,,,,,0,0,8,,,,,7,,,67,60
78912,note_on,,,,,0,0,8,,,,,7,,,62,60
78912,note_on,,,,,4,0,8,,,,,7,,,58,60
78912,note_on,,,,,4,0,7,,,,,6,,,43,80
78912,note_on,,,,,4,0,1,,,,,0,,,70,80
78912,note_on,,,,,4,0,6,,,,,5,,,55,92
78912,note_off,,,,,96,0,3,,,,,2,,,75,0
79008,note_on,,,,,0,0,2,,,,,1,,,72,77
79008,note_on,,,,,0,0,3,,,,,2,,,72,100
79008,note_off,,,,,96,0,3,,,,,2,,,70,0
79008,note_off,,,,,96,0,1,,,,,0,,,70,0
79008,note_off,,,,,96,0,2,,,,,1,,,70,0
79008,note_on,,,,,0,0,1,,,,,0,,,72,80
79100,note_off,,,,,188,0,6,,,,,5,,,55,0
79100,note_off,,,,,92,0,1,,,,,0,,,72,0
79100,note_off,,,,,0,0,8,,,,,7,,,67,0
79100,note_off,,,,,188,0,5,,,,,4,,,67,0
79100,note_off,,,,,188,0,7,,,,,6,,,43,0
79100,note_off,,,,,0,0,8,,,,,7,,,62,0
79100,note_off,,,,,92,0,2,,,,,1,,,72,0
79100,note_off,,,,,188,0,9,,,,,8,,,55,0
79100,note_off,,,,,188,0,8,,,,,7,,,58,0
79104,note_on,,,,,0,0,8,,,,,7,,,67,60
79104,note_on,,,,,4,0,8,,,,,7,,,60,60
79104,note_on,,,,,4,0,5,,,,,4,,,60,92
79104,note_on,,,,,4,0,6,,,,,5,,,51,92
79104,note_on,,,,,0,0,3,,,,,2,,,69,100
79104,note_on,,,,,4,0,9,,,,,8,,,51,60
79104,note_on,,,,,4,0,1,,,,,0,,,69,80
79104,note_on,,,,,4,0,2,,,,,1,,,69,77
79104,note_on,,,,,4,0,7,,,,,6,,,39,80
79104,note_off,,,,,192,0,4,,,,,3,,,62,0
79104,note_on,,,,,0,0,4,,,,,3,,,60,108
79104,note_off,,,,,96,0,3,,,,,2,,,72,0
79200,note_off,,,,,96,0,1,,,,,0,,,69,0
79200,note_on,,,,,0,0,3,,,,,2,,,70,100
79200,note_off,,,,,96,0,3,,,,,2,,,69,0
79200,note_off,,,,,96,0,2,,,,,1,,,69,0
79200,note_on,,,,,0,0,2,,,,,1,,,70,77
79200,note_on,,,,,0,0,1,,,,,0,,,70,80
79292,note_off,,,,,0,0,8,,,,,7,,,67,0
79292,note_off,,,,,188,0,5,,,,,4,,,60,0
79292,note_off,,,,,188,0,9,,,,,8,,,51,0
79292,note_off,,,,,188,0,8,,,,,7,,,60,0
79292,note_off,,,,,188,0,6,,,,,5,,,51,0
79292,note_off,,,,,188,0,7,,,,,6,,,39,0
79292,note_off,,,,,92,0,2,,,,,1,,,70,0
79292,note_off,,,,,92,0,1,,,,,0,,,70,0
79296,note_on,,,,,4,0,5,,,,,4,,,57,92
79296,note_on,,,,,0,0,3,,,,,2,,,65,100
79296,note_on,,,,,0,0,8,,,,,7,,,65,60
79296,note_on,,,,,0,0,4,,,,,3,,,60,108
79296,note_on,,,,,0,0,8,,,,,7,,,60,60
79296,note_on,,,,,4,0,8,,,,,7,,,57,60
79296,note_on,,,,,4,0,6,,,,,5,,,53,92
79296,note_on,,,,,4,0,2,,,,,1,,,65,77
79296,note_on,,,,,4,0,7,,,,,6,,,41,80
79296,note_on,,,,,4,0,9,,,,,8,,,53,60
79296,note_off,,,,,96,0,3,,,,,2,,,70,0
79296,note_off,,,,,192,0,4,,,,,3,,,60,0
79296,note_on,,,,,4,0,1,,,,,0,,,65,80
79484,note_off,,,,,188,0,1,,,,,0,,,65,0
79484,note_off,,,,,188,0,2,,,,,1,,,65,0
79484,note_off,,,,,188,0,6,,,,,5,,,53,0
79484,note_off,,,,,0,0,8,,,,,7,,,60,0
79484,note_off,,,,,0,0,8,,,,,7,,,65,0
79484,note_off,,,,,188,0,7,,,,,6,,,41,0
79484,note_off,,,,,188,0,9,,,,,8,,,53,0
79484,note_off,,,,,188,0,5,,,,,4,,,57,0
79484,note_off,,,,,188,0,8,,,,,7,,,57,0
79488,note_off,,,,,192,0,3,,,,,2,,,65,0
79488,note_on,,,,,0,0,3,,,,,2,,,70,100
79488,note_on,,,,,0,0,4,,,,,3,,,65,108
79488,note_on,,,,,4,0,1,,,,,0,,,70,80
79488,note_on,,,,,4,0,7,,,,,6,,,38,80
79488,note_on,,,,,4,0,8,,,,,7,,,58,60
79488,note_on,,,,,0,0,8,,,,,7,,,65,60
79488,note_on,,,,,4,0,2,,,,,1,,,70,77
79488,note_on,,,,,4,0,9,,,,,8,,,50,60
79488,note_on,,,,,4,0,6,,,,,5,,,50,92
79488,note_on,,,,,4,0,5,,,,,4,,,62,92
79488,note_off,,,,,192,0,4,,,,,3,,,60,0
79584,note_on,,,,,0,0,3,,,,,2,,,72,100
79584,note_on,,,,,0,0,2,,,,,1,,,72,77
79584,note_off,,,,,96,0,2,,,,,1,,,70,0
79584,note_off,,,,,96,0,3,,,,,2,,,70,0
79584,note_off,,,,,96,0,1,,,,,0,,,70,0
79584,note_on,,,,,0,0,1,,,,,0,,,72,80
79676,note_off,,,,,188,0,5,,,,,4,,,62,0
79676,note_off,,,,,92,0,2,,,,,1,,,72,0
79676,note_off,,,,,188,0,9,,,,,8,,,50,0
79676,note_off,,,,,0,0,8,,,,,7,,,65,0
79676,note_off,,,,,188,0,6,,,,,5,,,50,0
79676,note_off,,,,,188,0,7,,,,,6,,,38,0
79676,note_off,,,,,92,0,1,,,,,0,,,72,0
79676,note_off,,,,,188,0,8,,,,,7,,,58,0
79680,note_on,,,,,4,0,7,,,,,6,,,39,80
79680,note_off,,,,,96,0,3,,,,,2,,,72,0
79680,note_on,,,,,4,0,8,,,,,7,,,63,60
79680,note_on,,,,,0,0,8,,,,,7,,,67,60
79680,note_on,,,,,4,0,5,,,,,4,,,60,92
79680,note_on,,,,,4,0,1,,,,,0,,,72,80
79680,note_on,,,,,0,0,3,,,,,2,,,72,100
79680,note_off,,,,,192,0,4,,,,,3,,,65,0
79680,note_on,,,,,0,0,4,,,,,3,,,67,108
79680,note_on,,,,,4,0,9,,,,,8,,,51,60
79680,note_on,,,,,4,0,6,,,,,5,,,51,92
79680,note_on,,,,,4,0,2,,,,,1,,,72,77
79776,note_on,,,,,0,0,3,,,,,2,,,74,100
79776,note_off,,,,,96,0,3,,,,,2,,,72,0
79776,note_on,,,,,0,0,1,,,,,0,,,74,80
79776,note_on,,,,,0,0,2,,,,,1,,,74,77
79776,note_off,,,,,96,0,2,,,,,1,,,72,0
79776,note_off,,,,,96,0,1,,,,,0,,,72,0
79868,note_off,,,,,0,0,8,,,,,7,,,67,0
79868,note_off,,,,,92,0,1,,,,,0,,,74,0
79868,note_off,,,,,188,0,5,,,,,4,,,60,0
79868,note_off,,,,,92,0,2,,,,,1,,,74,0
79868,note_off,,,,,188,0,8,,,,,7,,,63,0
79868,note_off,,,,,188,0,6,,,,,5,,,51,0
79868,note_off,,,,,188,0,9,,,,,8,,,51,0
79868,note_off,,,,,188,0,7,,,,,6,,,39,0
79872,note_on,,,,,4,0,2,,,,,1,,,74,77
79872,note_on,,,,,4,0,9,,,,,8,,,50,60
79872,note_off,,,,,192,0,4,,,,,3,,,67,0
79872,note_on,,,,,0,0,4,,,,,3,,,70,108
79872,note_on,,,,,4,0,5,,,,,4,,,65,92
79872,note_on,,,,,4,0,6,,,,,5,,,50,92
79872,note_on,,,,,4,0,1,,,,,0,,,74,80
79872,note_on,,,,,4,0,8,,,,,7,,,65,60
79872,note_on,,,,,0,0,3,,,,,2,,,74,100
79872,note_off,,,,,96,0,3,,,,,2,,,74,0
79872,note_on,,,,,4,0,7,,,,,6,,,38,80
79872,note_on,,,,,0,0,8,,,,,7,,,70,60
79968,note_off,,,,,96,0,2,,,,,1,,,74,0
79968,note_on,,,,,0,0,2,,,,,1,,,75,77
79968,note_on,,,,,0,0,3,,,,,2,,,75,100
79968,note_on,,,,,0,0,1,,,,,0,,,75,80
79968,note_off,,,,,96,0,1,,,,,0,,,74,0
79968,note_off,,,,,96,0,3,,,,,2,,,74,0
80060,note_off,,,,,0,0,8,,,,,7,,,70,0
80060,note_off,,,,,188,0,8,,,,,7,,,65,0
80060,note_off,,,,,92,0,1,,,,,0,,,75,0
80060,note_off,,,,,188,0,5,,,,,4,,,65,0
80060,note_off,,,,,188,0,9,,,,,8,,,50,0
80060,note_off,,,,,188,0,7,,,,,6,,,38,0
80060,note_off,,,,,92,0,2,,,,,1,,,75,0
80060,note_off,,,,,188,0,6,,,,,5,,,50,0
80064,note_off,,,,,96,0,3,,,,,2,,,75,0
80064,note_on,,,,,0,0,3,,,,,2,,,75,100
80064,note_on,,,,,0,0,4,,,,,3,,,72,108
80064,note_off,,,,,192,0,4,,,,,3,,,70,0
80064,note_on,,,,,4,0,6,,,,,5,,,48,92
80064,note_on,,,,,0,0,8,,,,,7,,,72,60
80064,note_on,,,,,0,0,8,,,,,7,,,67,60
80064,note_on,,,,,4,0,8,,,,,7,,,63,60
80064,note_on,,,,,4,0,5,,,,,4,,,67,92
80064,note_on,,,,,4,0,7,,,,,6,,,36,80
80064,note_on,,,,,4,0,2,,,,,1,,,75,77
80064,note_on,,,,,4,0,1,,,,,0,,,75,80
80064,note_on,,,,,4,0,9,,,,,8,,,48,60
80160,note_on,,,,,0,0,1,,,,,0,,,77,80
80160,note_off,,,,,96,0,1,,,,,0,,,75,0
80160,note_off,,,,,96,0,5,,,,,4,,,67,0
80160,note_on,,,,,0,0,5,,,,,4,,,65,92
80160,note_on,,,,,0,0,2,,,,,1,,,77,77
80160,note_off,,,,,96,0,3,,,,,2,,,75,0
80160,note_on,,,,,0,0,3,,,,,2,,,77,100
80160,note_on,,,,,0,0,4,,,,,3,,,74,108
80160,note_off,,,,,96,0,4,,,,,3,,,72,0
80160,note_off,,,,,96,0,2,,,,,1,,,75,0
80252,note_off,,,,,188,0,6,,,,,5,,,48,0
80252,note_off,,,,,92,0,5,,,,,4,,,65,0
80252,note_off,,,,,92,0,1,,,,,0,,,77,0
80252,note_off,,,,,92,0,2,,,,,1,,,77,0
80252,note_off,,,,,188,0,8,,,,,7,,,63,0
80252,note_off,,,,,188,0,7,,,,,6,,,36,0
80252,note_off,,,,,0,0,8,,,,,7,,,72,0
80252,note_off,,,,,188,0,9,,,,,8,,,48,0
80256,note_on,,,,,4,0,2,,,,,1,,,77,77
80256,note_on,,,,,0,0,4,,,,,3,,,74,108
80256,note_on,,,,,4,0,1,,,,,0,,,77,80
80256,note_on,,,,,4,0,8,,,,,7,,,65,60
80256,note_on,,,,,0,0,8,,,,,7,,,74,60
80256,note_on,,,,,4,0,6,,,,,5,,,48,92
80256,note_on,,,,,4,0,7,,,,,6,,,36,80
80256,note_on,,,,,4,0,5,,,,,4,,,65,92
80256,note_off,,,,,96,0,3,,,,,2,,,77,0
80256,note_on,,,,,0,0,3,,,,,2,,,77,100
80256,note_off,,,,,96,0,4,,,,,3,,,74,0
80256,note_on,,,,,4,0,9,,,,,8,,,48,60
80352,note_off,,,,,96,0,5,,,,,4,,,65,0
80352,note_on,,,,,0,0,5,,,,,4,,,63,92
80352,note_on,,,,,0,0,4,,,,,3,,,75,108
80352,note_off,,,,,96,0,4,,,,,3,,,74,0
80352,note_on,,,,,0,0,3,,,,,2,,,79,100
80352,note_off,,,,,96,0,1,,,,,0,,,77,0
80352,note_on,,,,,0,0,2,,,,,1,,,79,77
80352,note_off,,,,,96,0,2,,,,,1,,,77,0
80352,note_off,,,,,96,0,3,,,,,2,,,77,0
80352,note_on,,,,,0,0,1,,,,,0,,,79,80
80444,note_off,,,,,92,0,5,,,,,4,,,63,0
80444,note_off,,,,,188,0,9,,,,,8,,,48,0
80444,note_off,,,,,92,0,1,,,,,0,,,79,0
80444,note_off,,,,,92,0,2,,,,,1,,,79,0
80444,note_off,,,,,188,0,6,,,,,5,,,48,0
80444,note_off,,,,,188,0,7,,,,,6,,,36,0
80444,note_off,,,,,188,0,8,,,,,7,,,67,0
80444,note_off,,,,,0,0,8,,,,,7,,,65,0
80444,note_off,,,,,0,0,8,,,,,7,,,74,0
80448,note_on,,,,,4,0,8,,,,,7,,,67,60
80448,note_on,,,,,4,0,2,,,,,1,,,79,77
80448,note_on,,,,,4,0,5,,,,,4,,,63,92
80448,note_on,,,,,0,0,4,,,,,3,,,75,108
80448,note_on,,,,,0,0,3,,,,,2,,,79,100
80448,note_on,,,,,0,0,8,,,,,7,,,72,60
80448,note_on,,,,,0,0,8,,,,,7,,,75,60
80448,note_off,,,,,96,0,3,,,,,2,,,79,0
80448,note_on,,,,,4,0,1,,,,,0,,,79,80
80448,note_on,,,,,4,0,9,,,,,8,,,60,60
80448,note_on,,,,,4,0,6,,,,,5,,,60,92
80448,note_on,,,,,4,0,7,,,,,6,,,48,80
80448,note_off,,,,,96,0,4,,,,,3,,,75,0
80544,note_off,,,,,96,0,2,,,,,1,,,79,0
80544,note_on,,,,,0,0,2,,,,,1,,,81,77
80544,note_off,,,,,96,0,3,,,,,2,,,79,0
80544,note_on,,,,,0,0,1,,,,,0,,,81,80
80544,note_off,,,,,96,0,1,,,,,0,,,79,0
80544,note_on,,,,,0,0,3,,,,,2,,,81,100
80636,note_off,,,,,188,0,7,,,,,6,,,48,0
80636,note_off,,,,,92,0,2,,,,,1,,,81,0
80636,note_off,,,,,188,0,8,,,,,7,,,67,0
80636,note_off,,,,,0,0,8,,,,,7,,,72,0
80636,note_off,,,,,0,0,8,,,,,7,,,75,0
80636,note_off,,,,,188,0,9,,,,,8,,,60,0
80636,note_off,,,,,188,0,6,,,,,5,,,60,0
80636,note_off,,,,,188,0,5,,,,,4,,,63,0
80636,note_off,,,,,92,0,1,,,,,0,,,81,0
80640,note_on,,,,,4,0,5,,,,,4,,,67,92
80640,note_on,,,,,4,0,6,,,,,5,,,58,92
80640,note_on,,,,,4,0,9,,,,,8,,,58,60
80640,note_on,,,,,4,0,7,,,,,6,,,46,80
80640,note_on,,,,,4,0,2,,,,,1,,,81,77
80640,note_on,,,,,4,0,8,,,,,7,,,67,60
80640,note_on,,,,,0,0,8,,,,,7,,,72,60
80640,note_on,,,,,0,0,8,,,,,7,,,75,60
80640,note_off,,,,,192,0,4,,,,,3,,,75,0
80640,note_on,,,,,0,0,3,,,,,2,,,81,100
80640,note_off,,,,,96,0,3,,,,,2,,,81,0
80640,note_on,,,,,4,0,1,,,,,0,,,81,80
80640,note_on,,,,,0,0,4,,,,,3,,,75,108
80736,note_off,,,,,96,0,2,,,,,1,,,81,0
80736,note_on,,,,,0,0,2,,,,,1,,,82,77
80736,note_off,,,,,96,0,1,,,,,0,,,81,0
80736,note_on,,,,,0,0,1,,,,,0,,,82,80
80736,note_on,,,,,0,0,3,,,,,2,,,82,100
80736,note_off,,,,,96,0,3,,,,,2,,,81,0
80828,note_off,,,,,188,0,8,,,,,7,,,67,0
80828,note_off,,,,,0,0,8,,,,,7,,,75,0
80828,note_off,,,,,188,0,5,,,,,4,,,67,0
80828,note_off,,,,,92,0,2,,,,,1,,,82,0
80828,note_off,,,,,0,0,8,,,,,7,,,72,0
80828,note_off,,,,,188,0,9,,,,,8,,,58,0
80828,note_off,,,,,92,0,1,,,,,0,,,82,0
80828,note_off,,,,,188,0,6,,,,,5,,,58,0
80828,note_off,,,,,188,0,7,,,,,6,,,46,0
80832,note_on,,,,,4,0,2,,,,,1,,,84,77
80832,note_on,,,,,0,0,4,,,,,3,,,75,108
80832,note_off,,,,,192,0,4,,,,,3,,,75,0
80832,note_off,,,,,96,0,3,,,,,2,,,82,0
80832,note_on,,,,,0,0,3,,,,,2,,,84,100
80832,note_on,,,,,4,0,1,,,,,0,,,84,80
80832,note_on,,,,,4,0,6,,,,,5,,,57,92
80832,note_on,,,,,4,0,5,,,,,4,,,65,92
80832,note_on,,,,,4,0,9,,,,,8,,,57,60
80832,note_on,,,,,4,0,7,,,,,6,,,45,80
80832,note_on,,,,,4,0,8,,,,,7,,,65,60
80832,note_on,,,,,0,0,8,,,,,7,,,72,60
80832,note_on,,,,,0,0,8,,,,,7,,,75,60
81020,note_off,,,,,188,0,5,,,,,4,,,65,0
81020,note_off,,,,,0,0,8,,,,,7,,,75,0
81020,note_off,,,,,188,0,6,,,,,5,,,57,0
81020,note_off,,,,,0,0,8,,,,,7,,,72,0
81020,note_off,,,,,188,0,2,,,,,1,,,84,0
81020,note_off,,,,,188,0,1,,,,,0,,,84,0
81020,note_off,,,,,188,0,8,,,,,7,,,65,0
81020,note_off,,,,,188,0,7,,,,,6,,,45,0
81020,note_off,,,,,188,0,9,,,,,8,,,57,0
81024,note_on,,,,,4,0,1,,,,,0,,,77,80
81024,note_on,,,,,0,0,4,,,,,3,,,74,108
81024,note_off,,,,,192,0,4,,,,,3,,,75,0
81024,note_on,,,,,4,0,5,,,,,4,,,65,92
81024,note_on,,,,,0,0,8,,,,,7,,,74,60
81024,note_on,,,,,4,0,9,,,,,8,,,58,60
81024,note_on,,,,,4,0,8,,,,,7,,,65,60
81024,note_off,,,,,192,0,3,,,,,2,,,84,0
81024,note_on,,,,,0,0,3,,,,,2,,,77,100
81024,note_on,,,,,4,0,2,,,,,1,,,77,77
81024,note_on,,,,,4,0,6,,,,,5,,,58,92
81024,note_on,,,,,4,0,7,,,,,6,,,46,80
81116,note_off,,,,,92,0,6,,,,,5,,,58,0
81116,note_off,,,,,92,0,7,,,,,6,,,46,0
81116,note_off,,,,,92,0,9,,,,,8,,,58,0
81116,note_off,,,,,92,0,8,,,,,7,,,74,0
81120,note_on,,,,,4,0,6,,,,,5,,,57,92
81120,note_off,,,,,96,0,4,,,,,3,,,74,0
81120,note_on,,,,,4,0,7,,,,,6,,,45,80
81120,note_on,,,,,0,0,4,,,,,3,,,72,108
81120,note_on,,,,,4,0,8,,,,,7,,,72,60
81120,note_on,,,,,4,0,9,,,,,8,,,57,60
81212,note_off,,,,,188,0,1,,,,,0,,,77,0
81212,note_off,,,,,188,0,2,,,,,1,,,77,0
81212,note_off,,,,,92,0,8,,,,,7,,,72,0
81212,note_off,,,,,92,0,9,,,,,8,,,57,0
81212,note_off,,,,,92,0,7,,,,,6,,,45,0
81212,note_off,,,,,92,0,6,,,,,5,,,57,0
81216,note_off,,,,,96,0,4,,,,,3,,,72,0
81216,note_on,,,,,0,0,4,,,,,3,,,74,108
81216,note_on,,,,,4,0,7,,,,,6,,,46,80
81216,note_on,,,,,4,0,9,,,,,8,,,58,60
81216,note_off,,,,,192,0,3,,,,,2,,,77,0
81216,note_on,,,,,4,0,8,,,,,7,,,74,60
81216,note_on,,,,,4,0,6,,,,,5,,,58,92
81344,note_off,,,,,320,0,5,,,,,4,,,65,0
81404,note_off,,,,,188,0,9,,,,,8,,,58,0
81404,note_off,,,,,188,0,7,,,,,6,,,46,0
81404,note_off,,,,,188,0,6,,,,,5,,,58,0
81404,note_off,,,,,0,0,8,,,,,7,,,74,0
81404,note_off,,,,,188,0,8,,,,,7,,,65,0
81408,note_on,,,,,4,0,6,,,,,5,,,55,92
81408,note_on,,,,,196,0,2,,,,,1,,,75,77
81408,note_off,,,,,192,0,4,,,,,3,,,74,0
81408,note_on,,,,,0,0,4,,,,,3,,,70,108
81408,note_on,,,,,0,0,8,,,,,7,,,70,60
81408,note_on,,,,,0,0,8,,,,,7,,,75,60
81408,note_on,,,,,4,0,8,,,,,7,,,63,60
81408,note_on,,,,,64,0,5,,,,,4,,,67,92
81408,note_on,,,,,196,0,1,,,,,0,,,75,80
81408,note_on,,,,,4,0,7,,,,,6,,,43,80
81408,note_on,,,,,192,0,3,,,,,2,,,75,100
81408,note_on,,,,,4,0,9,,,,,8,,,55,60
81504,note_on,,,,,0,0,3,,,,,2,,,74,100
81504,note_off,,,,,96,0,3,,,,,2,,,75,0
81504,note_off,,,,,96,0,1,,,,,0,,,75,0
81504,note_on,,,,,0,0,1,,,,,0,,,74,80
81504,note_off,,,,,96,0,2,,,,,1,,,75,0
81504,note_on,,,,,0,0,2,,,,,1,,,74,77
81596,note_off,,,,,92,0,1,,,,,0,,,74,0
81596,note_off,,,,,0,0,8,,,,,7,,,70,0
81596,note_off,,,,,0,0,8,,,,,7,,,75,0
81596,note_off,,,,,188,0,5,,,,,4,,,67,0
81596,note_off,,,,,188,0,7,,,,,6,,,43,0
81596,note_off,,,,,92,0,2,,,,,1,,,74,0
81596,note_off,,,,,188,0,8,,,,,7,,,63,0
81596,note_off,,,,,188,0,6,,,,,5,,,55,0
81596,note_off,,,,,188,0,9,,,,,8,,,55,0
81600,note_on,,,,,4,0,9,,,,,8,,,53,60
81600,note_on,,,,,4,0,1,,,,,0,,,74,80
81600,note_on,,,,,4,0,2,,,,,1,,,74,77
81600,note_on,,,,,0,0,3,,,,,2,,,74,100
81600,note_off,,,,,96,0,3,,,,,2,,,74,0
81600,note_on,,,,,0,0,8,,,,,7,,,74,60
81600,note_on,,,,,0,0,8,,,,,7,,,70,60
81600,note_on,,,,,4,0,7,,,,,6,,,41,80
81600,note_on,,,,,4,0,8,,,,,7,,,65,60
81600,note_on,,,,,4,0,5,,,,,4,,,69,92
81600,note_off,,,,,192,0,4,,,,,3,,,70,0
81600,note_on,,,,,0,0,4,,,,,3,,,70,108
81600,note_on,,,,,4,0,6,,,,,5,,,53,92
81696,note_off,,,,,96,0,3,,,,,2,,,74,0
81696,note_on,,,,,0,0,3,,,,,2,,,72,100
81696,note_on,,,,,0,0,2,,,,,1,,,72,77
81696,note_off,,,,,96,0,2,,,,,1,,,74,0
81696,note_on,,,,,0,0,4,,,,,3,,,69,108
81696,note_off,,,,,96,0,4,,,,,3,,,70,0
81696,note_on,,,,,0,0,1,,,,,0,,,72,80
81696,note_off,,,,,96,0,1,,,,,0,,,74,0
81788,note_off,,,,,188,0,6,,,,,5,,,53,0
81788,note_off,,,,,188,0,5,,,,,4,,,69,0
81788,note_off,,,,,188,0,9,,,,,8,,,53,0
81788,note_off,,,,,188,0,7,,,,,6,,,41,0
81788,note_off,,,,,92,0,2,,,,,1,,,72,0
81788,note_off,,,,,188,0,8,,,,,7,,,65,0
81788,note_off,,,,,92,0,1,,,,,0,,,72,0
81792,note_on,,,,,4,0,1,,,,,0,,,72,80
81792,note_on,,,,,0,0,3,,,,,2,,,72,100
81792,note_on,,,,,4,0,6,,,,,5,,,63,92
81792,note_off,,,,,96,0,3,,,,,2,,,72,0
81792,note_on,,,,,4,0,8,,,,,7,,,67,60
81792,note_on,,,,,4,0,5,,,,,4,,,69,92
81792,note_on,,,,,4,0,2,,,,,1,,,72,77
81792,note_on,,,,,4,0,7,,,,,6,,,51,80
81792,note_on,,,,,0,0,4,,,,,3,,,69,108
81792,note_off,,,,,96,0,4,,,,,3,,,69,0
81792,note_on,,,,,4,0,9,,,,,8,,,63,60
81884,note_off,,,,,92,0,5,,,,,4,,,69,0
81888,note_on,,,,,0,0,2,,,,,1,,,70,77
81888,note_on,,,,,4,0,5,,,,,4,,,70,92
81888,note_off,,,,,96,0,2,,,,,1,,,72,0
81888,note_on,,,,,0,0,4,,,,,3,,,74,108
81888,note_off,,,,,96,0,4,,,,,3,,,69,0
81888,note_off,,,,,96,0,1,,,,,0,,,72,0
81888,note_on,,,,,0,0,3,,,,,2,,,70,100
81888,note_off,,,,,96,0,3,,,,,2,,,72,0
81888,note_on,,,,,0,0,1,,,,,0,,,70,80
81920,note_off,,,,,128,0,8,,,,,7,,,70,0
81920,note_off,,,,,0,0,8,,,,,7,,,74,0
81980,note_off,,,,,188,0,6,,,,,5,,,63,0
81980,note_off,,,,,92,0,5,,,,,4,,,70,0
81980,note_off,,,,,60,0,8,,,,,7,,,67,0
81980,note_off,,,,,188,0,7,,,,,6,,,51,0
81980,note_off,,,,,92,0,1,,,,,0,,,70,0
81980,note_off,,,,,188,0,9,,,,,8,,,63,0
81980,note_off,,,,,92,0,2,,,,,1,,,70,0
81984,note_on,,,,,0,0,8,,,,,7,,,72,60
81984,note_off,,,,,96,0,3,,,,,2,,,70,0
81984,note_on,,,,,4,0,2,,,,,1,,,70,77
81984,note_off,,,,,96,0,4,,,,,3,,,74,0
81984,note_on,,,,,0,0,4,,,,,3,,,74,108
81984,note_on,,,,,4,0,1,,,,,0,,,70,80
81984,note_on,,,,,4,0,7,,,,,6,,,53,80
81984,note_on,,,,,4,0,9,,,,,8,,,65,60
81984,note_on,,,,,4,0,8,,,,,7,,,69,60
81984,note_on,,,,,0,0,3,,,,,2,,,70,100
81984,note_on,,,,,4,0,5,,,,,4,,,65,92
81984,note_on,,,,,4,0,6,,,,,5,,,65,92
82080,note_on,,,,,0,0,4,,,,,3,,,72,108
82080,note_off,,,,,96,0,4,,,,,3,,,74,0
82080,note_on,,,,,0,0,2,,,,,1,,,69,77
82080,note_on,,,,,0,0,1,,,,,0,,,69,80
82080,note_off,,,,,96,0,1,,,,,0,,,70,0
82080,note_on,,,,,0,0,3,,,,,2,,,69,100
82080,note_off,,,,,96,0,3,,,,,2,,,70,0
82080,note_off,,,,,96,0,2,,,,,1,,,70,0
82172,note_off,,,,,188,0,7,,,,,6,,,53,0
82172,note_off,,,,,92,0,2,,,,,1,,,69,0
82172,note_off,,,,,188,0,6,,,,,5,,,65,0
82172,note_off,,,,,188,0,9,,,,,8,,,65,0
82172,note_off,,,,,92,0,1,,,,,0,,,69,0
82172,note_off,,,,,188,0,5,,,,,4,,,65,0
82176,note_on,,,,,4,0,5,,,,,4,,,65,92
82176,note_on,,,,,4,0,2,,,,,1,,,69,77
82176,note_on,,,,,4,0,9,,,,,8,,,53,60
82176,note_on,,,,,0,0,3,,,,,2,,,69,100
82176,note_off,,,,,96,0,3,,,,,2,,,69,0
82176,note_on,,,,,4,0,1,,,,,0,,,69,80
82176,note_on,,,,,0,0,4,,,,,3,,,72,108
82176,note_off,,,,,96,0,4,,,,,3,,,72,0
82176,note_on,,,,,4,0,7,,,,,6,,,41,80
82176,note_on,,,,,4,0,6,,,,,5,,,53,92
82272,note_on,,,,,0,0,4,,,,,3,,,74,108
82272,note_off,,,,,96,0,1,,,,,0,,,69,0
82272,note_on,,,,,0,0,1,,,,,0,,,70,80
82272,note_off,,,,,96,0,3,,,,,2,,,69,0
82272,note_on,,,,,0,0,3,,,,,2,,,70,100
82272,note_off,,,,,96,0,4,,,,,3,,,72,0
82272,note_on,,,,,0,0,2,,,,,1,,,70,77
82272,note_off,,,,,96,0,2,,,,,1,,,69,0
82304,note_off,,,,,0,0,8,,,,,7,,,72,0
82304,note_off,,,,,320,0,8,,,,,7,,,69,0
82364,note_off,,,,,188,0,5,,,,,4,,,65,0
82364,note_off,,,,,92,0,2,,,,,1,,,70,0
82364,note_off,,,,,188,0,9,,,,,8,,,53,0
82364,note_off,,,,,188,0,7,,,,,6,,,41,0
82364,note_off,,,,,188,0,6,,,,,5,,,53,0
82364,note_off,,,,,92,0,1,,,,,0,,,70,0
82368,note_on,,,,,4,0,5,,,,,4,,,65,92
82368,note_on,,,,,0,0,8,,,,,7,,,70,60
82368,note_on,,,,,4,0,7,,,,,6,,,38,80
82368,note_on,,,,,4,0,9,,,,,8,,,50,60
82368,note_on,,,,,0,0,3,,,,,2,,,70,100
82368,note_on,,,,,4,0,6,,,,,5,,,50,92
82368,note_on,,,,,0,0,4,,,,,3,,,65,108
82368,note_on,,,,,64,0,8,,,,,7,,,65,60
82368,note_off,,,,,96,0,4,,,,,3,,,74,0
82368,note_on,,,,,4,0,1,,,,,0,,,70,80
82368,note_off,,,,,96,0,3,,,,,2,,,70,0
82368,note_on,,,,,4,0,2,,,,,1,,,70,77
82460,note_off,,,,,92,0,1,,,,,0,,,70,0
82460,note_off,,,,,92,0,2,,,,,1,,,70,0
82464,note_on,,,,,4,0,1,,,,,0,,,63,80
82464,note_off,,,,,96,0,3,,,,,2,,,70,0
82464,note_on,,,,,0,0,3,,,,,2,,,63,100
82464,note_on,,,,,4,0,2,,,,,1,,,63,77
82556,note_off,,,,,188,0,5,,,,,4,,,65,0
82556,note_off,,,,,92,0,1,,,,,0,,,63,0
82556,note_off,,,,,188,0,6,,,,,5,,,50,0
82556,note_off,,,,,188,0,7,,,,,6,,,38,0
82556,note_off,,,,,188,0,9,,,,,8,,,50,0
82556,note_off,,,,,188,0,8,,,,,7,,,65,0
82556,note_off,,,,,0,0,8,,,,,7,,,70,0
82556,note_off,,,,,92,0,2,,,,,1,,,63,0
82560,note_on,,,,,4,0,8,,,,,7,,,63,60
82560,note_off,,,,,96,0,3,,,,,2,,,63,0
82560,note_on,,,,,0,0,3,,,,,2,,,63,100
82560,note_on,,,,,0,0,8,,,,,7,,,65,60
82560,note_on,,,,,4,0,5,,,,,4,,,53,92
82560,note_off,,,,,192,0,4,,,,,3,,,65,0
82560,note_on,,,,,4,0,2,,,,,1,,,63,77
82560,note_on,,,,,4,0,1,,,,,0,,,63,80
82560,note_on,,,,,4,0,7,,,,,6,,,33,80
82560,note_on,,,,,4,0,6,,,,,5,,,45,92
82560,note_on,,,,,0,0,4,,,,,3,,,60,108
82560,note_on,,,,,0,0,8,,,,,7,,,72,60
82560,note_on,,,,,4,0,9,,,,,8,,,45,60
82652,note_off,,,,,92,0,1,,,,,0,,,63,0
82652,note_off,,,,,92,0,2,,,,,1,,,63,0
82656,note_on,,,,,0,0,4,,,,,3,,,58,108
82656,note_off,,,,,96,0,3,,,,,2,,,63,0
82656,note_on,,,,,4,0,2,,,,,1,,,62,77
82656,note_on,,,,,0,0,3,,,,,2,,,62,100
82656,note_on,,,,,4,0,1,,,,,0,,,62,80
82656,note_off,,,,,96,0,4,,,,,3,,,60,0
82748,note_off,,,,,188,0,7,,,,,6,,,33,0
82748,note_off,,,,,188,0,9,,,,,8,,,45,0
82748,note_off,,,,,188,0,8,,,,,7,,,63,0
82748,note_off,,,,,92,0,2,,,,,1,,,62,0
82748,note_off,,,,,0,0,8,,,,,7,,,72,0
82748,note_off,,,,,92,0,1,,,,,0,,,62,0
82748,note_off,,,,,188,0,5,,,,,4,,,53,0
82748,note_off,,,,,188,0,6,,,,,5,,,45,0
82748,note_off,,,,,0,0,8,,,,,7,,,65,0
82752,note_on,,,,,0,0,8,,,,,7,,,70,60
82752,note_on,,,,,0,0,3,,,,,2,,,62,100
82752,note_off,,,,,96,0,3,,,,,2,,,62,0
82752,note_on,,,,,4,0,8,,,,,7,,,62,60
82752,note_on,,,,,0,0,8,,,,,7,,,65,60
82752,note_on,,,,,4,0,6,,,,,5,,,46,92
82752,note_on,,,,,4,0,2,,,,,1,,,62,77
82752,note_on,,,,,4,0,5,,,,,4,,,53,92
82752,note_on,,,,,0,0,4,,,,,3,,,58,108
82752,note_on,,,,,4,0,7,,,,,6,,,34,80
82752,note_on,,,,,4,0,1,,,,,0,,,62,80
82752,note_off,,,,,96,0,4,,,,,3,,,58,0
82752,note_on,,,,,4,0,9,,,,,8,,,46,60
82844,note_off,,,,,92,0,1,,,,,0,,,62,0
82844,note_off,,,,,92,0,2,,,,,1,,,62,0
82848,note_off,,,,,96,0,4,,,,,3,,,58,0
82848,note_on,,,,,4,0,2,,,,,1,,,60,77
82848,note_on,,,,,4,0,1,,,,,0,,,60,80
82848,note_off,,,,,96,0,3,,,,,2,,,62,0
82848,note_on,,,,,0,0,4,,,,,3,,,57,108
82848,note_on,,,,,0,0,3,,,,,2,,,60,100
82940,note_off,,,,,188,0,9,,,,,8,,,46,0
82940,note_off,,,,,188,0,8,,,,,7,,,62,0
82940,note_off,,,,,188,0,6,,,,,5,,,46,0
82940,note_off,,,,,92,0,2,,,,,1,,,60,0
82940,note_off,,,,,188,0,7,,,,,6,,,34,0
82940,note_off,,,,,188,0,5,,,,,4,,,53,0
82940,note_off,,,,,0,0,8,,,,,7,,,65,0
82940,note_off,,,,,0,0,8,,,,,7,,,70,0
82940,note_off,,,,,92,0,1,,,,,0,,,60,0
82944,note_on,,,,,0,0,3,,,,,2,,,60,100
82944,note_off,,,,,96,0,4,,,,,3,,,57,0
82944,note_on,,,,,0,0,4,,,,,3,,,57,108
82944,note_on,,,,,4,0,6,,,,,5,,,41,92
82944,note_on,,,,,4,0,2,,,,,1,,,60,77
82944,note_on,,,,,4,0,5,,,,,4,,,53,92
82944,note_on,,,,,4,0,7,,,,,6,,,29,80
82944,note_on,,,,,0,0,8,,,,,7,,,69,60
82944,note_on,,,,,4,0,8,,,,,7,,,60,60
82944,note_on,,,,,0,0,8,,,,,7,,,65,60
82944,note_on,,,,,4,0,1,,,,,0,,,60,80
82944,note_off,,,,,96,0,3,,,,,2,,,60,0
82944,note_on,,,,,4,0,9,,,,,8,,,41,60
83036,note_off,,,,,92,0,1,,,,,0,,,60,0
83036,note_off,,,,,92,0,2,,,,,1,,,60,0
83040,note_on,,,,,4,0,2,,,,,1,,,58,77
83040,note_on,,,,,4,0,1,,,,,0,,,58,80
83040,note_on,,,,,0,0,3,,,,,2,,,58,100
83040,note_off,,,,,96,0,3,,,,,2,,,60,0
83132,note_off,,,,,0,0,8,,,,,7,,,65,0
83132,note_off,,,,,188,0,6,,,,,5,,,41,0
83132,note_off,,,,,92,0,2,,,,,1,,,58,0
83132,note_off,,,,,188,0,5,,,,,4,,,53,0
83132,note_off,,,,,188,0,7,,,,,6,,,29,0
83132,note_off,,,,,0,0,8,,,,,7,,,69,0
83132,note_off,,,,,188,0,9,,,,,8,,,41,0
83132,note_off,,,,,188,0,8,,,,,7,,,60,0
83132,note_off,,,,,92,0,1,,,,,0,,,58,0
83136,note_on,,,,,0,0,3,,,,,2,,,77,100
83136,note_on,,,,,4,0,2,,,,,1,,,77,77
83136,note_off,,,,,192,0,4,,,,,3,,,57,0
83136,note_on,,,,,4,0,1,,,,,0,,,77,80
83136,note_off,,,,,96,0,3,,,,,2,,,58,0
83136,note_on,,,,,0,0,8,,,,,7,,,70,60
83136,note_on,,,,,4,0,9,,,,,8,,,62,60
83136,note_on,,,,,4,0,5,,,,,4,,,70,92
83136,note_on,,,,,4,0,7,,,,,6,,,50,80
83136,note_on,,,,,4,0,6,,,,,5,,,62,92
83136,note_on,,,,,0,0,8,,,,,7,,,77,60
83136,note_on,,,,,0,0,4,,,,,3,,,74,108
83136,note_on,,,,,4,0,8,,,,,7,,,65,60
83276,note_off,,,,,140,0,1,,,,,0,,,77,0
83276,note_off,,,,,140,0,2,,,,,1,,,77,0
83280,note_on,,,,,4,0,2,,,,,1,,,75,77
83280,note_on,,,,,4,0,1,,,,,0,,,75,80
83280,note_on,,,,,0,0,3,,,,,2,,,75,100
83280,note_off,,,,,144,0,4,,,,,3,,,74,0
83280,note_on,,,,,0,0,4,,,,,3,,,72,108
83280,note_off,,,,,144,0,3,,,,,2,,,77,0
83324,note_off,,,,,44,0,2,,,,,1,,,75,0
83324,note_off,,,,,188,0,7,,,,,6,,,50,0
83324,note_off,,,,,0,0,8,,,,,7,,,77,0
83324,note_off,,,,,188,0,9,,,,,8,,,62,0
83324,note_off,,,,,0,0,8,,,,,7,,,70,0
83324,note_off,,,,,188,0,8,,,,,7,,,65,0
83324,note_off,,,,,188,0,6,,,,,5,,,62,0
83324,note_off,,,,,44,0,1,,,,,0,,,75,0
83328,note_on,,,,,0,0,8,,,,,7,,,70,60
83328,note_on,,,,,0,0,8,,,,,7,,,75,60
83328,note_on,,,,,4,0,7,,,,,6,,,51,80
83328,note_on,,,,,4,0,8,,,,,7,,,67,60
83328,note_on,,,,,0,0,3,,,,,2,,,74,100
83328,note_on,,,,,4,0,1,,,,,0,,,74,80
83328,note_on,,,,,4,0,9,,,,,8,,,63,60
83328,note_on,,,,,4,0,2,,,,,1,,,74,77
83328,note_off,,,,,48,0,4,,,,,3,,,72,0
83328,note_on,,,,,0,0,4,,,,,3,,,70,108
83328,note_off,,,,,48,0,3,,,,,2,,,75,0
83328,note_on,,,,,4,0,6,,,,,5,,,63,92
83420,note_off,,,,,284,0,5,,,,,4,,,70,0
83424,note_on,,,,,4,0,5,,,,,4,,,67,92
83468,note_off,,,,,140,0,1,,,,,0,,,74,0
83468,note_off,,,,,140,0,2,,,,,1,,,74,0
83472,note_off,,,,,144,0,3,,,,,2,,,74,0
83472,note_on,,,,,0,0,3,,,,,2,,,72,100
83472,note_on,,,,,4,0,1,,,,,0,,,72,80
83472,note_on,,,,,4,0,2,,,,,1,,,72,77
83516,note_off,,,,,44,0,1,,,,,0,,,72,0
83516,note_off,,,,,188,0,6,,,,,5,,,63,0
83516,note_off,,,,,0,0,8,,,,,7,,,70,0
83516,note_off,,,,,188,0,8,,,,,7,,,67,0
83516,note_off,,,,,92,0,5,,,,,4,,,67,0
83516,note_off,,,,,188,0,9,,,,,8,,,63,0
83516,note_off,,,,,44,0,2,,,,,1,,,72,0
83516,note_off,,,,,0,0,8,,,,,7,,,75,0
83516,note_off,,,,,188,0,7,,,,,6,,,51,0
83520,note_on,,,,,4,0,6,,,,,5,,,65,92
83520,note_on,,,,,0,0,4,,,,,3,,,70,108
83520,note_on,,,,,4,0,1,,,,,0,,,74,80
83520,note_on,,,,,4,0,2,,,,,1,,,74,77
83520,note_off,,,,,192,0,4,,,,,3,,,70,0
83520,note_on,,,,,0,0,3,,,,,2,,,74,100
83520,note_off,,,,,48,0,3,,,,,2,,,72,0
83520,note_on,,,,,0,0,8,,,,,7,,,74,60
83520,note_on,,,,,0,0,8,,,,,7,,,70,60
83520,note_on,,,,,4,0,5,,,,,4,,,65,92
83520,note_on,,,,,4,0,9,,,,,8,,,65,60
83520,note_on,,,,,4,0,7,,,,,6,,,53,80
83520,note_on,,,,,4,0,8,,,,,7,,,65,60
83708,note_off,,,,,188,0,1,,,,,0,,,74,0
83708,note_off,,,,,188,0,2,,,,,1,,,74,0
83708,note_off,,,,,188,0,6,,,,,5,,,65,0
83708,note_off,,,,,188,0,9,,,,,8,,,65,0
83708,note_off,,,,,188,0,8,,,,,7,,,70,0
83708,note_off,,,,,0,0,8,,,,,7,,,74,0
83708,note_off,,,,,188,0,7,,,,,6,,,53,0
83708,note_off,,,,,188,0,5,,,,,4,,,65,0
83712,note_on,,,,,4,0,6,,,,,5,,,53,92
83712,note_on,,,,,4,0,9,,,,,8,,,53,60
83712,note_on,,,,,4,0,8,,,,,7,,,69,60
83712,note_on,,,,,0,0,8,,,,,7,,,72,60
83712,note_on,,,,,0,0,3,,,,,2,,,72,100
83712,note_on,,,,,4,0,2,,,,,1,,,72,77
83712,note_on,,,,,4,0,5,,,,,4,,,63,92
83712,note_off,,,,,192,0,4,,,,,3,,,70,0
83712,note_on,,,,,0,0,4,,,,,3,,,69,108
83712,note_on,,,,,4,0,1,,,,,0,,,72,80
83712,note_off,,,,,192,0,3,,,,,2,,,74,0
83712,note_on,,,,,4,0,7,,,,,6,,,41,80
83804,note_off,,,,,92,0,5,,,,,4,,,63,0
83808,note_on,,,,,4,0,5,,,,,4,,,60,92
83900,note_off,,,,,188,0,1,,,,,0,,,72,0
83900,note_off,,,,,92,0,5,,,,,4,,,60,0
83900,note_off,,,,,188,0,2,,,,,1,,,72,0
83900,note_off,,,,,188,0,7,,,,,6,,,41,0
83900,note_off,,,,,188,0,9,,,,,8,,,53,0
83900,note_off,,,,,188,0,6,,,,,5,,,53,0
83900,note_off,,,,,0,0,8,,,,,7,,,69,0
83900,note_off,,,,,0,0,8,,,,,7,,,72,0
83900,note_off,,,,,188,0,8,,,,,7,,,65,0
83904,note_on,,,,,4,0,9,,,,,8,,,50,30
83904,note_on,,,,,4,0,6,,,,,5,,,50,45
83904,note_on,,,,,0,0,4,,,,,3,,,62,60
83904,note_on,,,,,4,0,1,,,,,0,,,65,39
83904,note_on,,,,,4,0,8,,,,,7,,,65,30
83904,note_on,,,,,4,0,2,,,,,1,,,65,37
83904,note_on,,,,,0,0,8,,,,,7,,,70,30
83904,note_off,,,,,192,0,3,,,,,2,,,72,0
83904,note_on,,,,,0,0,3,,,,,2,,,65,49
83904,note_off,,,,,192,0,4,,,,,3,,,69,0
83904,note_on,,,,,4,0,7,,,,,6,,,38,39
83904,note_on,,,,,4,0,5,,,,,4,,,62,45
84044,note_off,,,,,140,0,2,,,,,1,,,65,0
84044,note_off,,,,,140,0,1,,,,,0,,,65,0
84048,note_on,,,,,4,0,2,,,,,1,,,63,37
84048,note_off,,,,,144,0,4,,,,,3,,,62,0
84048,note_on,,,,,0,0,4,,,,,3,,,60,60
84048,note_on,,,,,4,0,1,,,,,0,,,63,39
84048,note_on,,,,,0,0,3,,,,,2,,,63,49
84048,note_off,,,,,144,0,3,,,,,2,,,65,0
84092,note_off,,,,,188,0,9,,,,,8,,,50,0
84092,note_off,,,,,44,0,2,,,,,1,,,63,0
84092,note_off,,,,,188,0,7,,,,,6,,,38,0
84092,note_off,,,,,188,0,6,,,,,5,,,50,0
84092,note_off,,,,,44,0,1,,,,,0,,,63,0
84092,note_off,,,,,188,0,8,,,,,7,,,65,0
84096,note_off,,,,,48,0,3,,,,,2,,,63,0
84096,note_on,,,,,4,0,6,,,,,5,,,51,45
84096,note_on,,,,,4,0,7,,,,,6,,,39,39
84096,note_on,,,,,0,0,3,,,,,2,,,62,49
84096,note_off,,,,,48,0,4,,,,,3,,,60,0
84096,note_on,,,,,4,0,8,,,,,7,,,63,30
84096,note_on,,,,,4,0,9,,,,,8,,,51,30
84096,note_on,,,,,0,0,8,,,,,7,,,67,30
84096,note_on,,,,,4,0,1,,,,,0,,,62,39
84096,note_on,,,,,0,0,4,,,,,3,,,58,60
84096,note_on,,,,,4,0,2,,,,,1,,,62,37
84188,note_off,,,,,284,0,5,,,,,4,,,62,0
84192,note_on,,,,,4,0,5,,,,,4,,,55,45
84236,note_off,,,,,140,0,1,,,,,0,,,62,0
84236,note_off,,,,,140,0,2,,,,,1,,,62,0
84240,note_on,,,,,4,0,2,,,,,1,,,60,37
84240,note_on,,,,,4,0,1,,,,,0,,,60,39
84240,note_on,,,,,0,0,3,,,,,2,,,60,49
84240,note_off,,,,,144,0,3,,,,,2,,,62,0
84284,note_off,,,,,188,0,7,,,,,6,,,39,0
84284,note_off,,,,,92,0,5,,,,,4,,,55,0
84284,note_off,,,,,188,0,6,,,,,5,,,51,0
84284,note_off,,,,,188,0,9,,,,,8,,,51,0
84284,note_off,,,,,188,0,8,,,,,7,,,63,0
84284,note_off,,,,,0,0,8,,,,,7,,,67,0
84284,note_off,,,,,44,0,2,,,,,1,,,60,0
84284,note_off,,,,,44,0,1,,,,,0,,,60,0
84288,note_on,,,,,0,0,4,,,,,3,,,58,60
84288,note_off,,,,,192,0,4,,,,,3,,,58,0
84288,note_on,,,,,4,0,7,,,,,6,,,41,39
84288,note_on,,,,,4,0,9,,,,,8,,,53,30
84288,note_on,,,,,0,0,8,,,,,7,,,65,30
84288,note_on,,,,,0,0,3,,,,,2,,,62,49
84288,note_off,,,,,48,0,3,,,,,2,,,60,0
84288,note_on,,,,,4,0,1,,,,,0,,,62,39
84288,note_on,,,,,4,0,8,,,,,7,,,62,30
84288,note_on,,,,,4,0,5,,,,,4,,,53,45
84288,note_on,,,,,4,0,6,,,,,5,,,53,45
84288,note_on,,,,,4,0,2,,,,,1,,,62,37
84416,note_off,,,,,128,0,8,,,,,7,,,70,0
84476,note_off,,,,,188,0,7,,,,,6,,,41,0
84476,note_off,,,,,188,0,6,,,,,5,,,53,0
84476,note_off,,,,,0,0,8,,,,,7,,,65,0
84476,note_off,,,,,60,0,8,,,,,7,,,62,0
84476,note_off,,,,,188,0,1,,,,,0,,,62,0
84476,note_off,,,,,188,0,5,,,,,4,,,53,0
84476,note_off,,,,,188,0,9,,,,,8,,,53,0
84476,note_off,,,,,188,0,2,,,,,1,,,62,0
84480,note_on,,,,,4,0,7,,,,,6,,,29,39
84480,note_on,,,,,4,0,5,,,,,4,,,53,45
84480,note_off,,,,,192,0,3,,,,,2,,,62,0
84480,note_on,,,,,0,0,3,,,,,2,,,60,49
84480,note_on,,,,,4,0,9,,,,,8,,,41,30
84480,note_on,,,,,4,0,2,,,,,1,,,60,37
84480,note_on,,,,,0,0,8,,,,,7,,,69,30
84480,note_on,,,,,4,0,1,,,,,0,,,60,39
84480,note_on,,,,,0,0,8,,,,,7,,,65,30
84480,note_off,,,,,192,0,4,,,,,3,,,58,0
84480,note_on,,,,,0,0,4,,,,,3,,,57,60
84480,note_on,,,,,4,0,6,,,,,5,,,41,45
84480,note_on,,,,,4,0,8,,,,,7,,,60,30
84572,note_off,,,,,92,0,5,,,,,4,,,53,0
84576,note_on,,,,,4,0,5,,,,,4,,,58,45
84668,note_off,,,,,188,0,8,,,,,7,,,60,0
84668,note_off,,,,,0,0,8,,,,,7,,,65,0
84668,note_off,,,,,0,0,8,,,,,7,,,69,0
84668,note_off,,,,,92,0,5,,,,,4,,,58,0
84668,note_off,,,,,188,0,1,,,,,0,,,60,0
84668,note_off,,,,,188,0,9,,,,,8,,,41,0
84668,note_off,,,,,188,0,2,,,,,1,,,60,0
84668,note_off,,,,,188,0,6,,,,,5,,,41,0
84668,note_off,,,,,188,0,7,,,,,6,,,29,0
84672,note_on,,,,,4,0,9,,,,,8,,,62,60
84672,note_on,,,,,4,0,5,,,,,4,,,70,92
84672,note_on,,,,,4,0,6,,,,,5,,,62,92
84672,note_on,,,,,4,0,1,,,,,0,,,77,80
84672,note_on,,,,,0,0,8,,,,,7,,,70,60
84672,note_on,,,,,4,0,2,,,,,1,,,77,77
84672,note_on,,,,,4,0,8,,,,,7,,,65,60
84672,note_on,,,,,0,0,4,,,,,3,,,74,108
84672,note_on,,,,,0,0,3,,,,,2,,,77,100
84672,note_on,,,,,4,0,7,,,,,6,,,50,80
84672,note_off,,,,,192,0,4,,,,,3,,,57,0
84672,note_off,,,,,192,0,3,,,,,2,,,60,0
84672,note_on,,,,,0,0,8,,,,,7,,,77,60
84812,note_off,,,,,140,0,2,,,,,1,,,77,0
84812,note_off,,,,,140,0,1,,,,,0,,,77,0
84816,note_on,,,,,4,0,2,,,,,1,,,75,77
84816,note_off,,,,,144,0,4,,,,,3,,,74,0
84816,note_on,,,,,4,0,1,,,,,0,,,75,80
84816,note_on,,,,,0,0,4,,,,,3,,,72,108
84816,note_on,,,,,0,0,3,,,,,2,,,75,100
84816,note_off,,,,,144,0,3,,,,,2,,,77,0
84860,note_off,,,,,44,0,1,,,,,0,,,75,0
84860,note_off,,,,,0,0,8,,,,,7,,,77,0
84860,note_off,,,,,0,0,8,,,,,7,,,70,0
84860,note_off,,,,,44,0,2,,,,,1,,,75,0
84860,note_off,,,,,188,0,7,,,,,6,,,50,0
84860,note_off,,,,,188,0,9,,,,,8,,,62,0
84860,note_off,,,,,188,0,8,,,,,7,,,65,0
84860,note_off,,,,,188,0,6,,,,,5,,,62,0
84864,note_on,,,,,4,0,1,,,,,0,,,74,80
84864,note_on,,,,,4,0,2,,,,,1,,,74,77
84864,note_on,,,,,4,0,8,,,,,7,,,67,60
84864,note_on,,,,,4,0,7,,,,,6,,,51,80
84864,note_on,,,,,0,0,4,,,,,3,,,70,108
84864,note_on,,,,,0,0,8,,,,,7,,,75,60
84864,note_on,,,,,4,0,9,,,,,8,,,63,60
84864,note_off,,,,,48,0,4,,,,,3,,,72,0
84864,note_on,,,,,0,0,8,,,,,7,,,70,60
84864,note_on,,,,,0,0,3,,,,,2,,,74,100
84864,note_off,,,,,48,0,3,,,,,2,,,75,0
84864,note_on,,,,,4,0,6,,,,,5,,,63,92
84956,note_off,,,,,284,0,5,,,,,4,,,70,0
84960,note_on,,,,,4,0,5,,,,,4,,,67,92
85004,note_off,,,,,140,0,2,,,,,1,,,74,0
85004,note_off,,,,,140,0,1,,,,,0,,,74,0
85008,note_on,,,,,4,0,2,,,,,1,,,72,77
85008,note_on,,,,,0,0,3,,,,,2,,,72,100
85008,note_on,,,,,4,0,1,,,,,0,,,72,80
85008,note_off,,,,,144,0,3,,,,,2,,,74,0
85052,note_off,,,,,44,0,1,,,,,0,,,72,0
85052,note_off,,,,,44,0,2,,,,,1,,,72,0
85052,note_off,,,,,92,0,5,,,,,4,,,67,0
85052,note_off,,,,,188,0,7,,,,,6,,,51,0
85052,note_off,,,,,0,0,8,,,,,7,,,75,0
85052,note_off,,,,,0,0,8,,,,,7,,,70,0
85052,note_off,,,,,188,0,8,,,,,7,,,67,0
85052,note_off,,,,,188,0,9,,,,,8,,,63,0
85052,note_off,,,,,188,0,6,,,,,5,,,63,0
85056,note_on,,,,,4,0,9,,,,,8,,,65,60
85056,note_on,,,,,4,0,1,,,,,0,,,74,80
85056,note_on,,,,,4,0,7,,,,,6,,,53,80
85056,note_on,,,,,0,0,4,,,,,3,,,70,108
85056,note_on,,,,,4,0,6,,,,,5,,,65,92
85056,note_on,,,,,4,0,5,,,,,4,,,65,92
85056,note_off,,,,,48,0,3,,,,,2,,,72,0
85056,note_on,,,,,0,0,3,,,,,2,,,74,100
85056,note_on,,,,,4,0,2,,,,,1,,,74,77
85056,note_on,,,,,4,0,8,,,,,7,,,65,60
85056,note_off,,,,,192,0,4,,,,,3,,,70,0
85056,note_on,,,,,0,0,8,,,,,7,,,74,60
85056,note_on,,,,,0,0,8,,,,,7,,,70,60
85244,note_off,,,,,188,0,5,,,,,4,,,65,0
85244,note_off,,,,,188,0,6,,,,,5,,,65,0
85244,note_off,,,,,188,0,1,,,,,0,,,74,0
85244,note_off,,,,,188,0,2,,,,,1,,,74,0
85244,note_off,,,,,188,0,9,,,,,8,,,65,0
85244,note_off,,,,,188,0,7,,,,,6,,,53,0
85244,note_off,,,,,188,0,8,,,,,7,,,65,0
85244,note_off,,,,,0,0,8,,,,,7,,,70,0
85244,note_off,,,,,0,0,8,,,,,7,,,74,0
85248,note_off,,,,,192,0,4,,,,,3,,,70,0
85248,note_on,,,,,0,0,4,,,,,3,,,69,108
85248,note_on,,,,,4,0,6,,,,,5,,,53,92
85248,note_off,,,,,192,0,3,,,,,2,,,74,0
85248,note_on,,,,,4,0,9,,,,,8,,,53,60
85248,note_on,,,,,4,0,8,,,,,7,,,63,60
85248,note_on,,,,,0,0,3,,,,,2,,,72,100
85248,note_on,,,,,0,0,8,,,,,7,,,69,60
85248,note_on,,,,,4,0,5,,,,,4,,,63,92
85248,note_on,,,,,4,0,7,,,,,6,,,41,80
85248,note_on,,,,,4,0,1,,,,,0,,,72,80
85248,note_on,,,,,4,0,2,,,,,1,,,72,77
85436,note_off,,,,,188,0,8,,,,,7,,,63,0
85436,note_off,,,,,188,0,5,,,,,4,,,63,0
85436,note_off,,,,,188,0,9,,,,,8,,,53,0
85436,note_off,,,,,188,0,6,,,,,5,,,53,0
85436,note_off,,,,,188,0,7,,,,,6,,,41,0
85436,note_off,,,,,188,0,1,,,,,0,,,72,0
85436,note_off,,,,,0,0,8,,,,,7,,,69,0
85436,note_off,,,,,188,0,2,,,,,1,,,72,0
85440,note_on,,,,,4,0,9,,,,,8,,,55,60
85440,note_on,,,,,0,0,3,,,,,2,,,70,100
85440,note_on,,,,,4,0,1,,,,,0,,,70,80
85440,note_on,,,,,4,0,5,,,,,4,,,62,92
85440,note_on,,,,,4,0,8,,,,,7,,,62,60
85440,note_on,,,,,0,0,8,,,,,7,,,70,60
85440,note_on,,,,,4,0,6,,,,,5,,,55,92
85440,note_off,,,,,192,0,3,,,,,2,,,72,0
85440,note_on,,,,,4,0,7,,,,,6,,,43,80
85440,note_on,,,,,4,0,2,,,,,1,,,70,77
85440,note_on,,,,,0,0,4,,,,,3,,,70,108
85440,note_off,,,,,192,0,4,,,,,3,,,69,0
85760,note_off,,,,,0,0,8,,,,,7,,,70,0
85760,note_off,,,,,320,0,6,,,,,5,,,55,0
85760,note_off,,,,,320,0,7,,,,,6,,,43,0
85760,note_off,,,,,320,0,1,,,,,0,,,70,0
85760,note_off,,,,,320,0,5,,,,,4,,,62,0
85760,note_off,,,,,320,0,2,,,,,1,,,70,0
85760,note_off,,,,,320,0,9,,,,,8,,,55,0
85760,note_off,,,,,320,0,8,,,,,7,,,62,0
85824,note_off,,,,,384,0,3,,,,,2,,,70,0
85824,note_off,,,,,384,0,4,,,,,3,,,70,0
86016,note_on,,,,,256,0,1,,,,,0,,,63,39
86016,note_on,,,,,256,0,5,,,,,4,,,60,45
86016,note_on,,,,,256,0,7,,,,,6,,,36,39
86016,note_on,,,,,256,0,2,,,,,1,,,63,37
86016,note_on,,,,,256,0,9,,,,,8,,,48,30
86016,note_on,,,,,192,0,4,,,,,3,,,55,60
86016,note_on,,,,,192,0,3,,,,,2,,,63,49
86016,note_on,,,,,256,0,6,,,,,5,,,48,45
86016,note_on,,,,,0,0,8,,,,,7,,,63,30
86016,note_on,,,,,256,0,8,,,,,7,,,55,30
86016,note_on,,,,,0,0,8,,,,,7,,,60,30
86204,note_off,,,,,188,0,8,,,,,7,,,55,0
86204,note_off,,,,,188,0,5,,,,,4,,,60,0
86204,note_off,,,,,188,0,7,,,,,6,,,36,0
86204,note_off,,,,,188,0,6,,,,,5,,,48,0
86204,note_off,,,,,188,0,9,,,,,8,,,48,0
86204,note_off,,,,,188,0,1,,,,,0,,,63,0
86204,note_off,,,,,188,0,2,,,,,1,,,63,0
86204,note_off,,,,,0,0,8,,,,,7,,,63,0
86204,note_off,,,,,0,0,8,,,,,7,,,60,0
86208,note_off,,,,,192,0,3,,,,,2,,,63,0
86208,note_on,,,,,4,0,6,,,,,5,,,41,45
86208,note_on,,,,,4,0,5,,,,,4,,,60,45
86208,note_on,,,,,4,0,7,,,,,6,,,29,39
86208,note_off,,,,,192,0,4,,,,,3,,,55,0
86208,note_on,,,,,4,0,8,,,,,7,,,53,30
86208,note_on,,,,,0,0,4,,,,,3,,,57,60
86208,note_on,,,,,0,0,8,,,,,7,,,57,30
86208,note_on,,,,,0,0,8,,,,,7,,,60,30
86208,note_on,,,,,0,0,8,,,,,7,,,63,30
86208,note_on,,,,,4,0,2,,,,,1,,,63,37
86208,note_on,,,,,0,0,3,,,,,2,,,63,49
86208,note_on,,,,,4,0,9,,,,,8,,,41,30
86208,note_on,,,,,4,0,1,,,,,0,,,63,39
86396,note_off,,,,,188,0,5,,,,,4,,,60,0
86400,note_on,,,,,4,0,5,,,,,4,,,53,45
86528,note_off,,,,,320,0,7,,,,,6,,,29,0
86528,note_off,,,,,320,0,2,,,,,1,,,63,0
86528,note_off,,,,,0,0,8,,,,,7,,,63,0
86528,note_off,,,,,0,0,8,,,,,7,,,57,0
86528,note_off,,,,,0,0,8,,,,,7,,,60,0
86528,note_off,,,,,320,0,1,,,,,0,,,63,0
86528,note_off,,,,,320,0,8,,,,,7,,,53,0
86528,note_off,,,,,320,0,9,,,,,8,,,41,0
86528,note_off,,,,,320,0,6,,,,,5,,,41,0
86588,note_off,,,,,188,0,5,,,,,4,,,53,0
86592,note_on,,,,,64,0,6,,,,,5,,,46,45
86592,note_on,,,,,0,0,4,,,,,3,,,58,60
86592,note_off,,,,,384,0,3,,,,,2,,,63,0
86592,note_on,,,,,0,0,3,,,,,2,,,62,49
86592,note_off,,,,,384,0,4,,,,,3,,,57,0
86592,note_on,,,,,64,0,9,,,,,8,,,46,30
86592,note_on,,,,,4,0,5,,,,,4,,,53,45
86592,note_on,,,,,64,0,7,,,,,6,,,34,39
86592,note_on,,,,,64,0,8,,,,,7,,,53,30
86592,note_on,,,,,0,0,8,,,,,7,,,58,30
86592,note_on,,,,,64,0,1,,,,,0,,,62,39
86592,note_on,,,,,0,0,8,,,,,7,,,62,30
86592,note_on,,,,,64,0,2,,,,,1,,,62,37
86876,note_off,,,,,284,0,1,,,,,0,,,62,0
86876,note_off,,,,,284,0,2,,,,,1,,,62,0
86880,note_on,,,,,4,0,2,,,,,1,,,63,37
86880,note_on,,,,,4,0,1,,,,,0,,,63,39
86880,note_on,,,,,0,0,3,,,,,2,,,63,49
86880,note_off,,,,,288,0,3,,,,,2,,,62,0
86912,note_off,,,,,320,0,8,,,,,7,,,53,0
86912,note_off,,,,,0,0,8,,,,,7,,,58,0
86912,note_off,,,,,0,0,8,,,,,7,,,62,0
86912,note_off,,,,,320,0,7,,,,,6,,,34,0
86912,note_off,,,,,320,0,6,,,,,5,,,46,0
86912,note_off,,,,,320,0,5,,,,,4,,,53,0
86912,note_off,,,,,320,0,9,,,,,8,,,46,0
86972,note_off,,,,,92,0,2,,,,,1,,,63,0
86972,note_off,,,,,92,0,1,,,,,0,,,63,0
86976,note_on,,,,,0,0,3,,,,,2,,,62,49
86976,note_on,,,,,4,0,2,,,,,1,,,62,37
86976,note_on,,,,,64,0,5,,,,,4,,,53,45
86976,note_on,,,,,64,0,9,,,,,8,,,41,30
86976,note_on,,,,,0,0,8,,,,,7,,,58,30
86976,note_off,,,,,96,0,3,,,,,2,,,63,0
86976,note_on,,,,,0,0,8,,,,,7,,,60,30
86976,note_on,,,,,64,0,7,,,,,6,,,29,39
86976,note_on,,,,,64,0,8,,,,,7,,,53,30
86976,note_on,,,,,64,0,6,,,,,5,,,41,45
86976,note_on,,,,,4,0,1,,,,,0,,,62,39
87020,note_off,,,,,44,0,1,,,,,0,,,62,0
87020,note_off,,,,,44,0,2,,,,,1,,,62,0
87024,note_off,,,,,48,0,3,,,,,2,,,62,0
87024,note_on,,,,,0,0,3,,,,,2,,,60,49
87024,note_on,,,,,4,0,1,,,,,0,,,60,39
87024,note_on,,,,,4,0,2,,,,,1,,,60,37
87068,note_off,,,,,44,0,2,,,,,1,,,60,0
87068,note_off,,,,,44,0,1,,,,,0,,,60,0
87072,note_on,,,,,4,0,1,,,,,0,,,62,39
87072,note_off,,,,,48,0,3,,,,,2,,,60,0
87072,note_on,,,,,0,0,3,,,,,2,,,62,49
87072,note_on,,,,,4,0,2,,,,,1,,,62,37
87116,note_off,,,,,44,0,2,,,,,1,,,62,0
87116,note_off,,,,,44,0,1,,,,,0,,,62,0
87120,note_off,,,,,48,0,3,,,,,2,,,62,0
87120,note_on,,,,,4,0,2,,,,,1,,,60,37
87120,note_on,,,,,4,0,1,,,,,0,,,60,39
87120,note_on,,,,,0,0,3,,,,,2,,,60,49
87164,note_off,,,,,44,0,1,,,,,0,,,60,0
87164,note_off,,,,,44,0,2,,,,,1,,,60,0
87168,note_on,,,,,4,0,1,,,,,0,,,62,39
87168,note_off,,,,,48,0,3,,,,,2,,,60,0
87168,note_on,,,,,0,0,3,,,,,2,,,62,49
87168,note_on,,,,,4,0,2,,,,,1,,,62,37
87212,note_off,,,,,44,0,1,,,,,0,,,62,0
87212,note_off,,,,,44,0,2,,,,,1,,,62,0
87216,note_off,,,,,48,0,3,,,,,2,,,62,0
87216,note_on,,,,,0,0,3,,,,,2,,,60,49
87216,note_on,,,,,4,0,1,,,,,0,,,60,39
87216,note_on,,,,,4,0,2,,,,,1,,,60,37
87260,note_off,,,,,44,0,2,,,,,1,,,60,0
87260,note_off,,,,,44,0,1,,,,,0,,,60,0
87264,note_on,,,,,4,0,2,,,,,1,,,62,37
87264,note_on,,,,,4,0,1,,,,,0,,,62,39
87264,note_on,,,,,0,0,3,,,,,2,,,62,49
87264,note_off,,,,,48,0,3,,,,,2,,,60,0
87296,note_off,,,,,320,0,8,,,,,7,,,58,0
87308,note_off,,,,,44,0,1,,,,,0,,,62,0
87308,note_off,,,,,44,0,2,,,,,1,,,62,0
87312,note_off,,,,,48,0,3,,,,,2,,,62,0
87312,note_on,,,,,4,0,1,,,,,0,,,60,39
87312,note_on,,,,,0,0,3,,,,,2,,,60,49
87312,note_on,,,,,4,0,2,,,,,1,,,60,37
87356,note_off,,,,,44,0,1,,,,,0,,,60,0
87356,note_off,,,,,44,0,2,,,,,1,,,60,0
87360,note_on,,,,,64,0,8,,,,,7,,,57,30
87360,note_off,,,,,768,0,4,,,,,3,,,58,0
87360,note_on,,,,,4,0,1,,,,,0,,,62,39
87360,note_on,,,,,4,0,2,,,,,1,,,62,37
87360,note_off,,,,,48,0,3,,,,,2,,,60,0
87360,note_on,,,,,0,0,4,,,,,3,,,57,60
87360,note_on,,,,,0,0,3,,,,,2,,,62,49
87404,note_off,,,,,44,0,1,,,,,0,,,62,0
87404,note_off,,,,,44,0,2,,,,,1,,,62,0
87408,note_on,,,,,4,0,1,,,,,0,,,60,39
87408,note_on,,,,,4,0,2,,,,,1,,,60,37
87408,note_off,,,,,48,0,3,,,,,2,,,62,0
87408,note_on,,,,,0,0,3,,,,,2,,,60,49
87548,note_off,,,,,140,0,1,,,,,0,,,60,0
87548,note_off,,,,,140,0,2,,,,,1,,,60,0
87552,note_on,,,,,4,0,1,,,,,0,,,58,39
87552,note_off,,,,,144,0,3,,,,,2,,,60,0
87552,note_on,,,,,0,0,3,,,,,2,,,58,49
87552,note_on,,,,,4,0,2,,,,,1,,,58,37
87648,note_off,,,,,672,0,5,,,,,4,,,53,0
87648,note_off,,,,,672,0,9,,,,,8,,,41,0
87648,note_off,,,,,672,0,7,,,,,6,,,29,0
87648,note_off,,,,,672,0,6,,,,,5,,,41,0
87680,note_off,,,,,320,0,8,,,,,7,,,53,0
87680,note_off,,,,,0,0,8,,,,,7,,,57,0
87680,note_off,,,,,0,0,8,,,,,7,,,60,0
87740,note_off,,,,,188,0,1,,,,,0,,,58,0
87740,note_off,,,,,188,0,2,,,,,1,,,58,0
87744,note_on,,,,,96,0,5,,,,,4,,,53,45
87744,note_on,,,,,0,0,8,,,,,7,,,58,30
87744,note_on,,,,,0,0,8,,,,,7,,,53,30
87744,note_on,,,,,4,0,2,,,,,1,,,58,37
87744,note_off,,,,,384,0,4,,,,,3,,,57,0
87744,note_on,,,,,0,0,4,,,,,3,,,58,60
87744,note_on,,,,,4,0,1,,,,,0,,,58,39
87744,note_on,,,,,64,0,8,,,,,7,,,50,30
87744,note_on,,,,,96,0,9,,,,,8,,,46,30
87744,note_on,,,,,96,0,6,,,,,5,,,46,45
87744,note_on,,,,,96,0,7,,,,,6,,,34,39
87744,note_off,,,,,192,0,3,,,,,2,,,58,0
87744,note_on,,,,,0,0,3,,,,,2,,,58,49
89184,note_off,,,,,1440,0,1,,,,,0,,,58,0
89184,note_off,,,,,1440,0,5,,,,,4,,,53,0
89184,note_off,,,,,0,0,8,,,,,7,,,58,0
89184,note_off,,,,,1440,0,9,,,,,8,,,46,0
89184,note_off,,,,,0,0,8,,,,,7,,,53,0
89184,note_off,,,,,1440,0,7,,,,,6,,,34,0
89184,note_off,,,,,1440,0,6,,,,,5,,,46,0
89184,note_off,,,,,1440,0,8,,,,,7,,,50,0
89184,note_off,,,,,1440,0,2,,,,,1,,,58,0
89280,note_off,,,,,1536,0,4,,,,,3,,,58,0
89280,note_on,,,,,96,0,2,,,,,1,,,65,77
89280,note_on,,,,,96,0,7,,,,,6,,,33,80
89280,note_on,,,,,96,0,8,,,,,7,,,53,60
89280,note_on,,,,,0,0,8,,,,,7,,,60,60
89280,note_on,,,,,0,0,8,,,,,7,,,65,60
89280,note_on,,,,,96,0,1,,,,,0,,,65,80
89280,note_on,,,,,0,0,4,,,,,3,,,60,92
89280,note_off,,,,,1536,0,3,,,,,2,,,58,0
89280,note_on,,,,,96,0,9,,,,,8,,,45,60
89280,note_on,,,,,0,0,3,,,,,2,,,65,100
89280,note_on,,,,,96,0,5,,,,,4,,,53,92
89280,note_on,,,,,96,0,6,,,,,5,,,45,92
89600,note_off,,,,,320,0,2,,,,,1,,,65,0
89600,note_off,,,,,320,0,6,,,,,5,,,45,0
89600,note_off,,,,,320,0,8,,,,,7,,,53,0
89600,note_off,,,,,0,0,8,,,,,7,,,60,0
89600,note_off,,,,,320,0,1,,,,,0,,,65,0
89600,note_off,,,,,320,0,9,,,,,8,,,45,0
89600,note_off,,,,,320,0,7,,,,,6,,,33,0
89600,note_off,,,,,0,0,8,,,,,7,,,65,0
89600,note_off,,,,,320,0,5,,,,,4,,,53,0
89664,note_off,,,,,384,0,4,,,,,3,,,60,0
89664,note_off,,,,,384,0,3,,,,,2,,,65,0
90048,note_on,,,,,384,0,3,,,,,2,,,65,49
90048,note_on,,,,,448,0,1,,,,,0,,,65,39
90048,note_on,,,,,448,0,7,,,,,6,,,31,39
90048,set_tempo,,,,,90048,1,0,,1200000,,,,,,,
90048,note_on,,,,,384,0,4,,,,,3,,,58,60
90048,note_on,,,,,0,0,8,,,,,7,,,58,45
90048,note_on,,,,,0,0,8,,,,,7,,,64,45
90048,note_on,,,,,448,0,2,,,,,1,,,65,37
90048,note_on,,,,,448,0,6,,,,,5,,,43,45
90048,note_on,,,,,448,0,9,,,,,8,,,43,45
90048,note_on,,,,,448,0,5,,,,,4,,,55,45
90048,note_on,,,,,448,0,8,,,,,7,,,55,45
90072,note_off,,,,,24,0,1,,,,,0,,,65,0
90072,note_on,,,,,0,0,2,,,,,1,,,64,37
90072,note_off,,,,,24,0,2,,,,,1,,,65,0
90072,note_off,,,,,24,0,3,,,,,2,,,65,0
90072,note_on,,,,,0,0,1,,,,,0,,,64,39
90072,note_on,,,,,0,0,3,,,,,2,,,64,49
90096,note_off,,,,,24,0,3,,,,,2,,,64,0
90096,note_off,,,,,24,0,1,,,,,0,,,64,0
90096,note_on,,,,,0,0,1,,,,,0,,,65,39
90096,note_off,,,,,24,0,2,,,,,1,,,64,0
90096,note_on,,,,,0,0,3,,,,,2,,,65,49
90096,note_on,,,,,0,0,2,,,,,1,,,65,37
90120,note_off,,,,,24,0,2,,,,,1,,,65,0
90120,note_on,,,,,0,0,2,,,,,1,,,64,37
90120,note_on,,,,,0,0,3,,,,,2,,,64,49
90120,note_off,,,,,24,0,1,,,,,0,,,65,0
90120,note_on,,,,,0,0,1,,,,,0,,,64,39
90120,note_off,,,,,24,0,3,,,,,2,,,65,0
90144,note_off,,,,,24,0,2,,,,,1,,,64,0
90144,note_on,,,,,0,0,2,,,,,1,,,65,37
90144,note_on,,,,,0,0,1,,,,,0,,,65,39
90144,note_off,,,,,24,0,3,,,,,2,,,64,0
90144,note_on,,,,,0,0,3,,,,,2,,,65,49
90144,note_off,,,,,24,0,1,,,,,0,,,64,0
90168,note_off,,,,,24,0,2,,,,,1,,,65,0
90168,note_on,,,,,0,0,2,,,,,1,,,64,37
90168,note_off,,,,,24,0,3,,,,,2,,,65,0
90168,note_on,,,,,0,0,3,,,,,2,,,64,49
90168,note_on,,,,,0,0,1,,,,,0,,,64,39
90168,note_off,,,,,24,0,1,,,,,0,,,65,0
90192,note_off,,,,,24,0,1,,,,,0,,,64,0
90192,note_on,,,,,0,0,1,,,,,0,,,65,39
90192,note_on,,,,,0,0,2,,,,,1,,,65,37
90192,note_off,,,,,24,0,2,,,,,1,,,64,0
90192,note_off,,,,,24,0,3,,,,,2,,,64,0
90192,note_on,,,,,0,0,3,,,,,2,,,65,49
90216,note_off,,,,,24,0,1,,,,,0,,,65,0
90216,note_on,,,,,0,0,1,,,,,0,,,64,39
90216,note_on,,,,,0,0,2,,,,,1,,,64,37
90216,note_off,,,,,24,0,2,,,,,1,,,65,0
90216,note_off,,,,,24,0,3,,,,,2,,,65,0
90216,note_on,,,,,0,0,3,,,,,2,,,64,49
90240,note_off,,,,,24,0,2,,,,,1,,,64,0
90240,note_off,,,,,24,0,1,,,,,0,,,64,0
90240,note_on,,,,,0,0,1,,,,,0,,,65,39
90240,note_on,,,,,0,0,2,,,,,1,,,65,37
90240,note_on,,,,,0,0,3,,,,,2,,,65,49
90240,note_off,,,,,24,0,3,,,,,2,,,64,0
90264,note_on,,,,,0,0,2,,,,,1,,,65,37
90264,note_off,,,,,24,0,2,,,,,1,,,65,0
90264,note_off,,,,,24,0,3,,,,,2,,,65,0
90264,note_on,,,,,0,0,3,,,,,2,,,65,49
90264,note_on,,,,,0,0,1,,,,,0,,,65,39
90264,note_off,,,,,24,0,1,,,,,0,,,65,0
90288,note_off,,,,,24,0,3,,,,,2,,,65,0
90288,note_on,,,,,0,0,3,,,,,2,,,64,49
90288,note_off,,,,,24,0,2,,,,,1,,,65,0
90288,note_on,,,,,0,0,2,,,,,1,,,64,37
90288,note_off,,,,,24,0,1,,,,,0,,,65,0
90288,note_on,,,,,0,0,1,,,,,0,,,64,39
90312,note_off,,,,,24,0,2,,,,,1,,,64,0
90312,note_on,,,,,0,0,3,,,,,2,,,65,49
90312,note_off,,,,,24,0,3,,,,,2,,,64,0
90312,note_on,,,,,0,0,2,,,,,1,,,65,37
90312,note_off,,,,,24,0,1,,,,,0,,,64,0
90312,note_on,,,,,0,0,1,,,,,0,,,65,39
90336,note_on,,,,,0,0,2,,,,,1,,,64,37
90336,note_off,,,,,24,0,2,,,,,1,,,65,0
90336,note_off,,,,,24,0,1,,,,,0,,,65,0
90336,note_on,,,,,0,0,1,,,,,0,,,64,39
90336,note_off,,,,,24,0,3,,,,,2,,,65,0
90336,note_on,,,,,0,0,3,,,,,2,,,64,49
90360,note_off,,,,,24,0,1,,,,,0,,,64,0
90360,note_off,,,,,24,0,3,,,,,2,,,64,0
90360,note_on,,,,,0,0,3,,,,,2,,,65,49
90360,note_on,,,,,0,0,1,,,,,0,,,65,39
90360,note_on,,,,,0,0,2,,,,,1,,,65,37
90360,note_off,,,,,24,0,2,,,,,1,,,64,0
90384,note_off,,,,,24,0,1,,,,,0,,,65,0
90384,note_on,,,,,0,0,1,,,,,0,,,64,39
90384,note_on,,,,,0,0,2,,,,,1,,,64,37
90384,note_off,,,,,24,0,2,,,,,1,,,65,0
90384,note_on,,,,,0,0,3,,,,,2,,,64,49
90384,note_off,,,,,24,0,3,,,,,2,,,65,0
90408,note_on,,,,,0,0,2,,,,,1,,,65,37
90408,note_off,,,,,24,0,2,,,,,1,,,64,0
90408,note_on,,,,,0,0,3,,,,,2,,,65,49
90408,note_on,,,,,0,0,1,,,,,0,,,65,39
90408,note_off,,,,,24,0,1,,,,,0,,,64,0
90408,note_off,,,,,24,0,3,,,,,2,,,64,0
90432,note_off,,,,,24,0,1,,,,,0,,,65,0
90432,note_off,,,,,24,0,3,,,,,2,,,65,0
90432,note_off,,,,,24,0,2,,,,,1,,,65,0
90432,note_on,,,,,0,0,2,,,,,1,,,64,37
90432,note_on,,,,,0,0,1,,,,,0,,,64,39
90432,note_on,,,,,0,0,3,,,,,2,,,64,49
90456,note_off,,,,,24,0,1,,,,,0,,,64,0
90456,note_off,,,,,24,0,2,,,,,1,,,64,0
90456,note_off,,,,,24,0,3,,,,,2,,,64,0
90456,note_on,,,,,0,0,3,,,,,2,,,65,49
90456,note_on,,,,,0,0,1,,,,,0,,,65,39
90456,note_on,,,,,0,0,2,,,,,1,,,65,37
90480,note_on,,,,,0,0,1,,,,,0,,,64,39
90480,note_off,,,,,24,0,1,,,,,0,,,65,0
90480,note_on,,,,,0,0,2,,,,,1,,,64,37
90480,note_on,,,,,0,0,3,,,,,2,,,64,49
90480,note_off,,,,,24,0,2,,,,,1,,,65,0
90480,note_off,,,,,24,0,3,,,,,2,,,65,0
90624,note_off,,,,,144,0,2,,,,,1,,,64,0
90624,note_on,,,,,0,0,1,,,,,0,,,65,39
90624,note_on,,,,,0,0,3,,,,,2,,,65,49
90624,note_off,,,,,144,0,3,,,,,2,,,64,0
90624,set_tempo,,,,,576,1,0,,1000000,,,,,,,
90624,end_of_track,,,,,0,1,0,,,,,,,,,
90624,note_on,,,,,0,0,2,,,,,1,,,65,37
90624,note_off,,,,,144,0,1,,,,,0,,,64,0
90720,note_off,,,,,672,0,7,,,,,6,,,31,0
90720,note_off,,,,,672,0,8,,,,,7,,,55,0
90720,note_off,,,,,0,0,8,,,,,7,,,58,0
90720,note_off,,,,,672,0,5,,,,,4,,,55,0
90720,note_off,,,,,672,0,9,,,,,8,,,43,0
90720,note_off,,,,,0,0,8,,,,,7,,,64,0
90720,note_off,,,,,672,0,6,,,,,5,,,43,0
90812,note_off,,,,,188,0,1,,,,,0,,,65,0
90812,note_off,,,,,188,0,2,,,,,1,,,65,0
90816,note_on,,,,,96,0,6,,,,,5,,,41,45
90816,note_on,,,,,96,0,9,,,,,8,,,41,45
90816,note_on,,,,,0,0,8,,,,,7,,,65,45
90816,note_on,,,,,96,0,5,,,,,4,,,60,45
90816,note_on,,,,,96,0,8,,,,,7,,,57,45
90816,note_off,,,,,192,0,3,,,,,2,,,65,0
90816,note_on,,,,,4,0,1,,,,,0,,,65,39
90816,note_on,,,,,4,0,2,,,,,1,,,65,37
90816,note_off,,,,,768,0,4,,,,,3,,,58,0
90816,note_on,,,,,0,0,4,,,,,3,,,57,60
90816,note_on,,,,,96,0,7,,,,,6,,,29,39
90816,note_on,,,,,0,0,8,,,,,7,,,60,45
90816,note_on,,,,,0,0,3,,,,,2,,,65,49
92352,note_off,,,,,1536,0,1,,,,,0,,,65,55
92352,end_of_track,,,,,0,1,1,,,,,,,,,
92352,note_off,,,,,0,0,8,,,,,7,,,65,64
92352,note_off,,,,,1536,0,9,,,,,8,,,41,64
92352,note_off,,,,,1536,0,6,,,,,5,,,41,64
92352,end_of_track,,,,,0,1,4,,,,,,,,,
92352,note_off,,,,,1536,0,4,,,,,3,,,57,0
92352,end_of_track,,,,,0,1,6,,,,,,,,,
92352,note_off,,,,,1536,0,7,,,,,6,,,29,55
92352,note_off,,,,,1536,0,2,,,,,1,,,65,53
92352,end_of_track,,,,,0,1,9,,,,,,,,,
92352,end_of_track,,,,,0,1,5,,,,,,,,,
92352,note_off,,,,,1536,0,8,,,,,7,,,57,64
92352,note_off,,,,,0,0,8,,,,,7,,,60,64
92352,end_of_track,,,,,0,1,8,,,,,,,,,
92352,end_of_track,,,,,0,1,2,,,,,,,,,
92352,end_of_track,,,,,0,1,3,,,,,,,,,
92352,note_off,,,,,1536,0,3,,,,,2,,,65,0
92352,note_off,,,,,1536,0,5,,,,,4,,,60,64
92352,end_of_track,,,,,0,1,7,,,,,,,,,
