tick,type,numerator,denominator,clocks_per_click,notated_32nd_notes_per_beat,time,meta,track,data,tempo,control,value,channel,program,key,note,velocity
0,time_signature,4,4,96,8,0,1,0,,,,,,,,,
0,control_change,,,,,0,0,4,,,7,127,3,,,,
0,program_change,,,,,0,0,4,,,,,3,48,,,
0,key_signature,,,,,0,1,4,,,,,,,A,,
0,note_on,,,,,0,0,4,,,,,3,,,69,88
0,key_signature,,,,,0,1,13,,,,,,,C,,
0,track_name,,,,,0,1,5,,,,,,,,,
0,control_change,,,,,0,0,4,,,121,0,3,,,,
0,control_change,,,,,0,0,5,,,0,0,4,,,,
0,control_change,,,,,0,0,5,,,121,0,4,,,,
0,control_change,,,,,0,0,5,,,7,127,4,,,,
0,program_change,,,,,0,0,5,,,,,4,41,,,
0,key_signature,,,,,0,1,5,,,,,,,A,,
0,note_on,,,,,0,0,5,,,,,4,,,61,75
0,track_name,,,,,0,1,6,,,,,,,,,
0,control_change,,,,,0,0,5,,,10,105,4,,,,
0,control_change,,,,,0,0,6,,,0,0,5,,,,
0,control_change,,,,,0,0,4,,,10,105,3,,,,
0,track_name,,,,,0,1,4,,,,,,,,,
0,control_change,,,,,0,0,2,,,10,105,1,,,,
0,control_change,,,,,0,0,2,,,121,0,1,,,,
0,control_change,,,,,0,0,2,,,7,127,1,,,,
0,program_change,,,,,0,0,2,,,,,1,40,,,
0,key_signature,,,,,0,1,2,,,,,,,A,,
0,note_on,,,,,0,0,2,,,,,1,,,69,75
0,control_change,,,,,0,0,4,,,0,0,3,,,,
0,track_name,,,,,0,1,3,,,,,,,,,
0,control_change,,,,,0,0,3,,,10,21,2,,,,
0,control_change,,,,,0,0,3,,,121,0,2,,,,
0,control_change,,,,,0,0,3,,,7,127,2,,,,
0,program_change,,,,,0,0,3,,,,,2,48,,,
0,key_signature,,,,,0,1,3,,,,,,,A,,
0,note_on,,,,,0,0,3,,,,,2,,,69,94
0,control_change,,,,,0,0,3,,,0,0,2,,,,
0,control_change,,,,,0,0,2,,,0,0,1,,,,
0,control_change,,,,,0,0,6,,,10,24,5,,,,
0,control_change,,,,,0,0,6,,,7,127,5,,,,
0,note_on,,,,,0,0,8,,,,,7,,,57,60
0,track_name,,,,,0,1,9,,,,,,,,,
0,key_signature,,,,,0,1,9,,,,,,,C,,
0,end_of_track,,,,,0,1,9,,,,,,,,,
0,track_name,,,,,0,1,10,,,,,,,,,
0,key_signature,,,,,0,1,10,,,,,,,C,,
0,key_signature,,,,,0,1,8,,,,,,,A,,
0,end_of_track,,,,,0,1,10,,,,,,,,,
0,key_signature,,,,,0,1,11,,,,,,,C,,
0,end_of_track,,,,,0,1,11,,,,,,,,,
0,track_name,,,,,0,1,12,,,,,,,,,
0,key_signature,,,,,0,1,12,,,,,,,C,,
0,end_of_track,,,,,0,1,12,,,,,,,,,
0,track_name,,,,,0,1,13,,,,,,,,,
0,track_name,,,,,0,1,11,,,,,,,,,
0,control_change,,,,,0,0,6,,,121,0,5,,,,
0,program_change,,,,,0,0,8,,,,,7,6,,,
0,control_change,,,,,0,0,8,,,121,0,7,,,,
0,program_change,,,,,0,0,6,,,,,5,42,,,
0,key_signature,,,,,0,1,6,,,,,,,A,,
0,note_on,,,,,0,0,6,,,,,5,,,57,75
0,track_name,,,,,0,1,7,,,,,,,,,
0,control_change,,,,,0,0,7,,,0,0,6,,,,
0,control_change,,,,,0,0,7,,,10,64,6,,,,
0,control_change,,,,,0,0,8,,,7,127,7,,,,
0,control_change,,,,,0,0,7,,,121,0,6,,,,
0,program_change,,,,,0,0,7,,,,,6,43,,,
0,key_signature,,,,,0,1,7,,,,,,,A,,
0,note_on,,,,,0,0,7,,,,,6,,,45,75
0,track_name,,,,,0,1,8,,,,,,,,,
0,control_change,,,,,0,0,8,,,0,0,7,,,,
0,control_change,,,,,0,0,8,,,10,64,7,,,,
0,control_change,,,,,0,0,7,,,7,127,6,,,,
0,track_name,,,,,0,1,2,,,,,,,,,
0,end_of_track,,,,,0,1,13,,,,,,,,,
0,control_change,,,,,0,0,1,,,7,127,0,,,,
0,sequencer_specific,,,,,0,1,0,"(0, 0, 65)",,,,,,,,
0,control_change,,,,,0,0,1,,,10,24,0,,,,
0,program_change,,,,,0,0,1,,,,,0,40,,,
0,key_signature,,,,,0,1,1,,,,,,,A,,
0,set_tempo,,,,,0,1,0,,500000,,,,,,,
0,control_change,,,,,0,0,1,,,0,0,0,,,,
0,track_name,,,,,0,1,1,,,,,,,,,
0,control_change,,,,,0,0,1,,,121,0,0,,,,
0,note_on,,,,,0,0,1,,,,,0,,,69,75
384,note_on,,,,,0,0,3,,,,,2,,,71,94
384,note_off,,,,,384,0,4,,,,,3,,,69,0
384,note_on,,,,,0,0,5,,,,,4,,,64,75
384,note_on,,,,,0,0,7,,,,,6,,,44,75
384,note_off,,,,,384,0,7,,,,,6,,,45,0
384,note_on,,,,,0,0,1,,,,,0,,,71,75
384,note_on,,,,,0,0,2,,,,,1,,,64,75
384,note_on,,,,,0,0,4,,,,,3,,,64,88
384,note_off,,,,,384,0,1,,,,,0,,,69,0
384,note_off,,,,,384,0,5,,,,,4,,,61,0
384,note_off,,,,,384,0,6,,,,,5,,,57,0
384,note_on,,,,,0,0,6,,,,,5,,,56,75
384,note_on,,,,,0,0,8,,,,,7,,,56,60
384,note_off,,,,,384,0,3,,,,,2,,,69,0
384,note_off,,,,,384,0,2,,,,,1,,,69,0
384,note_off,,,,,384,0,8,,,,,7,,,57,0
576,note_off,,,,,192,0,3,,,,,2,,,71,0
576,note_off,,,,,192,0,8,,,,,7,,,56,0
576,note_on,,,,,0,0,3,,,,,2,,,73,94
576,note_on,,,,,0,0,5,,,,,4,,,64,75
576,note_off,,,,,192,0,5,,,,,4,,,64,0
576,note_on,,,,,0,0,6,,,,,5,,,52,75
576,note_on,,,,,0,0,8,,,,,7,,,52,60
576,note_off,,,,,192,0,6,,,,,5,,,56,0
576,note_on,,,,,0,0,7,,,,,6,,,40,75
576,note_on,,,,,0,0,1,,,,,0,,,73,75
576,note_off,,,,,192,0,1,,,,,0,,,71,0
576,note_off,,,,,192,0,7,,,,,6,,,44,0
576,note_off,,,,,192,0,4,,,,,3,,,64,0
576,note_on,,,,,0,0,4,,,,,3,,,68,88
576,note_off,,,,,192,0,2,,,,,1,,,64,0
576,note_on,,,,,0,0,2,,,,,1,,,68,75
768,note_on,,,,,0,0,7,,,,,6,,,42,75
768,note_off,,,,,192,0,1,,,,,0,,,73,0
768,note_on,,,,,0,0,3,,,,,2,,,74,94
768,note_off,,,,,192,0,3,,,,,2,,,73,0
768,note_off,,,,,192,0,2,,,,,1,,,68,0
768,note_off,,,,,192,0,6,,,,,5,,,52,0
768,note_on,,,,,0,0,6,,,,,5,,,54,75
768,note_on,,,,,0,0,2,,,,,1,,,69,75
768,note_on,,,,,0,0,4,,,,,3,,,69,88
768,note_off,,,,,192,0,8,,,,,7,,,52,0
768,note_on,,,,,0,0,1,,,,,0,,,74,75
768,note_off,,,,,192,0,4,,,,,3,,,68,0
768,note_on,,,,,0,0,5,,,,,4,,,62,75
768,note_off,,,,,192,0,5,,,,,4,,,64,0
768,note_off,,,,,192,0,7,,,,,6,,,40,0
768,note_on,,,,,0,0,8,,,,,7,,,54,60
960,note_off,,,,,192,0,4,,,,,3,,,69,0
960,note_off,,,,,192,0,1,,,,,0,,,74,0
960,note_on,,,,,0,0,1,,,,,0,,,71,75
960,note_on,,,,,0,0,5,,,,,4,,,62,75
960,note_off,,,,,192,0,5,,,,,4,,,62,0
960,note_on,,,,,0,0,4,,,,,3,,,64,88
960,note_off,,,,,192,0,3,,,,,2,,,74,0
960,note_on,,,,,0,0,8,,,,,7,,,56,60
960,note_off,,,,,192,0,2,,,,,1,,,69,0
960,note_on,,,,,0,0,2,,,,,1,,,64,75
960,note_off,,,,,192,0,8,,,,,7,,,54,0
960,note_on,,,,,0,0,3,,,,,2,,,71,94
960,note_off,,,,,192,0,6,,,,,5,,,54,0
960,note_on,,,,,0,0,6,,,,,5,,,56,75
960,note_on,,,,,0,0,7,,,,,6,,,44,75
960,note_off,,,,,192,0,7,,,,,6,,,42,0
1152,note_on,,,,,0,0,5,,,,,4,,,61,75
1152,note_on,,,,,0,0,3,,,,,2,,,73,94
1152,note_off,,,,,192,0,8,,,,,7,,,56,0
1152,note_on,,,,,0,0,7,,,,,6,,,45,75
1152,note_off,,,,,192,0,7,,,,,6,,,44,0
1152,note_on,,,,,0,0,1,,,,,0,,,73,75
1152,note_off,,,,,192,0,1,,,,,0,,,71,0
1152,note_on,,,,,0,0,8,,,,,7,,,57,60
1152,note_on,,,,,0,0,2,,,,,1,,,64,75
1152,note_on,,,,,0,0,6,,,,,5,,,57,75
1152,note_off,,,,,192,0,6,,,,,5,,,56,0
1152,note_off,,,,,192,0,2,,,,,1,,,64,0
1152,note_off,,,,,192,0,3,,,,,2,,,71,0
1152,note_off,,,,,192,0,4,,,,,3,,,64,0
1152,note_on,,,,,0,0,4,,,,,3,,,64,88
1152,note_off,,,,,192,0,5,,,,,4,,,62,0
1536,note_off,,,,,384,0,2,,,,,1,,,64,0
1536,note_off,,,,,384,0,7,,,,,6,,,45,0
1536,note_on,,,,,0,0,7,,,,,6,,,37,75
1536,note_on,,,,,0,0,8,,,,,7,,,49,60
1536,note_off,,,,,384,0,8,,,,,7,,,57,0
1536,note_off,,,,,384,0,4,,,,,3,,,64,0
1536,note_on,,,,,0,0,2,,,,,1,,,69,75
1536,note_off,,,,,384,0,3,,,,,2,,,73,0
1536,note_on,,,,,0,0,5,,,,,4,,,61,75
1536,note_on,,,,,0,0,3,,,,,2,,,76,94
1536,note_on,,,,,0,0,4,,,,,3,,,69,88
1536,note_off,,,,,384,0,6,,,,,5,,,57,0
1536,note_on,,,,,0,0,6,,,,,5,,,49,75
1536,note_off,,,,,384,0,5,,,,,4,,,61,0
1536,note_on,,,,,0,0,1,,,,,0,,,76,75
1536,note_off,,,,,384,0,1,,,,,0,,,73,0
1920,note_off,,,,,384,0,5,,,,,4,,,61,0
1920,note_on,,,,,0,0,6,,,,,5,,,54,75
1920,note_off,,,,,384,0,1,,,,,0,,,76,0
1920,note_on,,,,,0,0,1,,,,,0,,,74,75
1920,note_on,,,,,0,0,5,,,,,4,,,57,75
1920,note_on,,,,,0,0,8,,,,,7,,,54,60
1920,note_off,,,,,384,0,8,,,,,7,,,49,0
1920,note_off,,,,,384,0,6,,,,,5,,,49,0
1920,note_off,,,,,384,0,3,,,,,2,,,76,0
1920,note_off,,,,,384,0,7,,,,,6,,,37,0
1920,note_on,,,,,0,0,7,,,,,6,,,42,75
1920,note_on,,,,,0,0,3,,,,,2,,,74,94
2016,note_on,,,,,0,0,1,,,,,0,,,73,75
2016,note_on,,,,,0,0,3,,,,,2,,,73,94
2016,note_off,,,,,96,0,1,,,,,0,,,74,0
2016,note_off,,,,,96,0,3,,,,,2,,,74,0
2112,note_off,,,,,192,0,8,,,,,7,,,54,0
2112,note_on,,,,,0,0,4,,,,,3,,,66,88
2112,note_on,,,,,0,0,8,,,,,7,,,50,60
2112,note_off,,,,,576,0,2,,,,,1,,,69,0
2112,note_on,,,,,0,0,2,,,,,1,,,66,75
2112,note_off,,,,,192,0,7,,,,,6,,,42,0
2112,note_on,,,,,0,0,1,,,,,0,,,71,75
2112,note_off,,,,,96,0,1,,,,,0,,,73,0
2112,note_off,,,,,192,0,5,,,,,4,,,57,0
2112,note_on,,,,,0,0,5,,,,,4,,,59,75
2112,note_on,,,,,0,0,7,,,,,6,,,38,75
2112,note_on,,,,,0,0,6,,,,,5,,,50,75
2112,note_off,,,,,192,0,6,,,,,5,,,54,0
2112,note_off,,,,,96,0,3,,,,,2,,,73,0
2112,note_off,,,,,576,0,4,,,,,3,,,69,0
2112,note_on,,,,,0,0,3,,,,,2,,,71,94
2208,note_off,,,,,96,0,1,,,,,0,,,71,0
2208,note_off,,,,,96,0,3,,,,,2,,,71,0
2208,note_on,,,,,0,0,1,,,,,0,,,69,75
2208,note_on,,,,,0,0,3,,,,,2,,,69,94
2304,note_off,,,,,192,0,8,,,,,7,,,50,0
2304,note_on,,,,,0,0,5,,,,,4,,,64,75
2304,note_off,,,,,192,0,6,,,,,5,,,50,0
2304,note_on,,,,,0,0,7,,,,,6,,,40,75
2304,note_off,,,,,192,0,7,,,,,6,,,38,0
2304,note_off,,,,,192,0,5,,,,,4,,,59,0
2304,note_on,,,,,0,0,1,,,,,0,,,68,75
2304,note_off,,,,,96,0,1,,,,,0,,,69,0
2304,note_on,,,,,0,0,8,,,,,7,,,52,60
2304,note_on,,,,,0,0,6,,,,,5,,,52,75
2304,note_on,,,,,0,0,2,,,,,1,,,59,75
2304,note_off,,,,,192,0,2,,,,,1,,,66,0
2304,note_off,,,,,96,0,3,,,,,2,,,69,0
2304,note_off,,,,,192,0,4,,,,,3,,,66,0
2304,note_on,,,,,0,0,3,,,,,2,,,68,94
2304,note_on,,,,,0,0,4,,,,,3,,,59,88
2400,note_off,,,,,96,0,1,,,,,0,,,68,0
2400,note_on,,,,,0,0,1,,,,,0,,,69,75
2400,note_on,,,,,0,0,3,,,,,2,,,69,94
2400,note_off,,,,,96,0,3,,,,,2,,,68,0
2496,note_off,,,,,192,0,4,,,,,3,,,59,0
2496,note_on,,,,,0,0,4,,,,,3,,,64,88
2496,note_off,,,,,96,0,3,,,,,2,,,69,0
2496,note_on,,,,,0,0,2,,,,,1,,,64,75
2496,note_off,,,,,192,0,2,,,,,1,,,59,0
2496,note_on,,,,,0,0,7,,,,,6,,,28,75
2496,note_on,,,,,0,0,3,,,,,2,,,71,94
2496,note_off,,,,,192,0,5,,,,,4,,,64,0
2496,note_on,,,,,0,0,1,,,,,0,,,71,75
2496,note_off,,,,,192,0,8,,,,,7,,,52,0
2496,note_off,,,,,192,0,7,,,,,6,,,40,0
2496,note_on,,,,,0,0,8,,,,,7,,,40,60
2496,note_off,,,,,96,0,1,,,,,0,,,69,0
2496,note_on,,,,,0,0,6,,,,,5,,,40,75
2496,note_on,,,,,0,0,5,,,,,4,,,59,75
2496,note_off,,,,,192,0,6,,,,,5,,,52,0
2688,note_on,,,,,0,0,4,,,,,3,,,68,88
2688,note_off,,,,,192,0,7,,,,,6,,,28,0
2688,note_off,,,,,192,0,6,,,,,5,,,40,0
2688,note_off,,,,,192,0,4,,,,,3,,,64,0
2688,note_off,,,,,192,0,3,,,,,2,,,71,0
2688,note_on,,,,,0,0,5,,,,,4,,,64,75
2688,note_off,,,,,192,0,8,,,,,7,,,40,0
2688,note_off,,,,,192,0,2,,,,,1,,,64,0
2688,note_off,,,,,192,0,5,,,,,4,,,59,0
2688,note_off,,,,,192,0,1,,,,,0,,,71,0
2688,note_on,,,,,0,0,2,,,,,1,,,68,75
2880,note_on,,,,,0,0,2,,,,,1,,,71,75
2880,note_off,,,,,192,0,4,,,,,3,,,68,0
2880,note_on,,,,,0,0,4,,,,,3,,,71,88
2880,note_on,,,,,0,0,5,,,,,4,,,68,75
2880,note_off,,,,,192,0,5,,,,,4,,,64,0
2880,note_off,,,,,192,0,2,,,,,1,,,68,0
3072,note_on,,,,,0,0,5,,,,,4,,,64,75
3072,note_on,,,,,384,0,7,,,,,6,,,40,75
3072,note_off,,,,,192,0,5,,,,,4,,,68,0
3072,note_on,,,,,384,0,6,,,,,5,,,52,75
3072,note_on,,,,,384,0,1,,,,,0,,,71,75
3072,note_on,,,,,384,0,3,,,,,2,,,71,94
3072,note_on,,,,,0,0,4,,,,,3,,,68,88
3072,note_off,,,,,192,0,4,,,,,3,,,71,0
3072,note_on,,,,,0,0,2,,,,,1,,,68,75
3072,note_off,,,,,192,0,2,,,,,1,,,71,0
3072,note_on,,,,,384,0,8,,,,,7,,,52,60
3456,note_on,,,,,0,0,6,,,,,5,,,64,75
3456,note_on,,,,,0,0,5,,,,,4,,,64,75
3456,note_off,,,,,384,0,7,,,,,6,,,40,0
3456,note_on,,,,,0,0,7,,,,,6,,,52,75
3456,note_off,,,,,384,0,3,,,,,2,,,71,0
3456,note_off,,,,,384,0,4,,,,,3,,,68,0
3456,note_off,,,,,384,0,6,,,,,5,,,52,0
3456,note_on,,,,,0,0,8,,,,,7,,,64,60
3456,note_off,,,,,384,0,8,,,,,7,,,52,0
3456,note_on,,,,,0,0,4,,,,,3,,,69,88
3456,note_off,,,,,384,0,2,,,,,1,,,68,0
3456,note_off,,,,,384,0,5,,,,,4,,,64,0
3456,note_on,,,,,0,0,1,,,,,0,,,73,75
3456,note_on,,,,,0,0,2,,,,,1,,,69,75
3456,note_on,,,,,0,0,3,,,,,2,,,73,94
3456,note_off,,,,,384,0,1,,,,,0,,,71,0
3648,note_on,,,,,0,0,5,,,,,4,,,68,75
3648,note_off,,,,,192,0,5,,,,,4,,,64,0
3648,note_off,,,,,192,0,7,,,,,6,,,52,0
3648,note_off,,,,,192,0,1,,,,,0,,,73,0
3648,note_on,,,,,0,0,1,,,,,0,,,74,75
3648,note_on,,,,,0,0,7,,,,,6,,,50,75
3648,note_on,,,,,0,0,6,,,,,5,,,62,75
3648,note_off,,,,,192,0,3,,,,,2,,,73,0
3648,note_off,,,,,192,0,6,,,,,5,,,64,0
3648,note_off,,,,,192,0,4,,,,,3,,,69,0
3648,note_on,,,,,0,0,3,,,,,2,,,74,94
3648,note_off,,,,,192,0,8,,,,,7,,,64,0
3648,note_on,,,,,0,0,8,,,,,7,,,62,60
3648,note_on,,,,,0,0,4,,,,,3,,,71,88
3648,note_on,,,,,0,0,2,,,,,1,,,71,75
3648,note_off,,,,,192,0,2,,,,,1,,,69,0
3840,note_on,,,,,0,0,1,,,,,0,,,76,75
3840,note_off,,,,,192,0,1,,,,,0,,,74,0
3840,note_on,,,,,0,0,6,,,,,5,,,61,75
3840,note_off,,,,,192,0,6,,,,,5,,,62,0
3840,note_on,,,,,0,0,4,,,,,3,,,64,88
3840,note_off,,,,,192,0,4,,,,,3,,,71,0
3840,note_off,,,,,192,0,3,,,,,2,,,74,0
3840,note_off,,,,,192,0,2,,,,,1,,,71,0
3840,note_on,,,,,0,0,2,,,,,1,,,64,75
3840,note_off,,,,,192,0,8,,,,,7,,,62,0
3840,note_on,,,,,0,0,8,,,,,7,,,61,60
3840,note_on,,,,,0,0,5,,,,,4,,,69,75
3840,note_off,,,,,192,0,5,,,,,4,,,68,0
3840,note_on,,,,,0,0,3,,,,,2,,,76,94
3840,note_on,,,,,0,0,7,,,,,6,,,49,75
3840,note_off,,,,,192,0,7,,,,,6,,,50,0
4032,note_off,,,,,192,0,8,,,,,7,,,61,0
4032,note_on,,,,,0,0,8,,,,,7,,,54,60
4032,note_on,,,,,0,0,7,,,,,6,,,42,75
4032,note_off,,,,,192,0,7,,,,,6,,,49,0
4032,note_on,,,,,0,0,2,,,,,1,,,69,75
4032,note_off,,,,,192,0,1,,,,,0,,,76,0
4032,note_on,,,,,0,0,6,,,,,5,,,54,75
4032,note_off,,,,,192,0,6,,,,,5,,,61,0
4032,note_on,,,,,0,0,4,,,,,3,,,69,88
4032,note_off,,,,,192,0,4,,,,,3,,,64,0
4032,note_off,,,,,192,0,2,,,,,1,,,64,0
4032,note_on,,,,,0,0,3,,,,,2,,,73,94
4032,note_off,,,,,192,0,3,,,,,2,,,76,0
4032,note_on,,,,,0,0,1,,,,,0,,,73,75
4224,note_on,,,,,0,0,6,,,,,5,,,59,75
4224,note_off,,,,,192,0,7,,,,,6,,,42,0
4224,note_on,,,,,0,0,7,,,,,6,,,47,75
4224,note_off,,,,,192,0,2,,,,,1,,,69,0
4224,note_on,,,,,0,0,2,,,,,1,,,66,75
4224,note_off,,,,,192,0,6,,,,,5,,,54,0
4224,note_off,,,,,192,0,8,,,,,7,,,54,0
4224,note_off,,,,,192,0,3,,,,,2,,,73,0
4224,note_on,,,,,0,0,3,,,,,2,,,74,94
4224,note_on,,,,,0,0,4,,,,,3,,,66,88
4224,note_off,,,,,192,0,4,,,,,3,,,69,0
4224,note_on,,,,,0,0,8,,,,,7,,,59,60
4224,note_off,,,,,192,0,1,,,,,0,,,73,0
4224,note_on,,,,,0,0,1,,,,,0,,,74,75
4416,note_off,,,,,192,0,2,,,,,1,,,66,0
4416,note_off,,,,,192,0,3,,,,,2,,,74,0
4416,note_on,,,,,0,0,6,,,,,5,,,52,75
4416,note_off,,,,,192,0,6,,,,,5,,,59,0
4416,note_off,,,,,192,0,8,,,,,7,,,59,0
4416,note_on,,,,,0,0,8,,,,,7,,,52,60
4416,note_on,,,,,0,0,4,,,,,3,,,68,88
4416,note_off,,,,,192,0,4,,,,,3,,,66,0
4416,note_off,,,,,192,0,1,,,,,0,,,74,0
4416,note_on,,,,,0,0,1,,,,,0,,,71,75
4416,note_off,,,,,576,0,5,,,,,4,,,69,0
4416,note_on,,,,,0,0,5,,,,,4,,,68,75
4416,note_on,,,,,0,0,3,,,,,2,,,71,94
4416,note_on,,,,,0,0,2,,,,,1,,,68,75
4416,note_on,,,,,0,0,7,,,,,6,,,40,75
4416,note_off,,,,,192,0,7,,,,,6,,,47,0
4608,note_on,,,,,0,0,5,,,,,4,,,64,75
4608,note_on,,,,,0,0,1,,,,,0,,,73,75
4608,note_off,,,,,192,0,1,,,,,0,,,71,0
4608,note_on,,,,,0,0,8,,,,,7,,,57,60
4608,note_on,,,,,0,0,7,,,,,6,,,45,75
4608,note_off,,,,,192,0,7,,,,,6,,,40,0
4608,note_off,,,,,192,0,5,,,,,4,,,68,0
4608,note_on,,,,,0,0,4,,,,,3,,,69,88
4608,note_off,,,,,192,0,4,,,,,3,,,68,0
4608,note_on,,,,,0,0,2,,,,,1,,,69,75
4608,note_off,,,,,192,0,6,,,,,5,,,52,0
4608,note_on,,,,,0,0,6,,,,,5,,,57,75
4608,note_off,,,,,192,0,2,,,,,1,,,68,0
4608,note_off,,,,,192,0,3,,,,,2,,,71,0
4608,note_off,,,,,192,0,8,,,,,7,,,52,0
4608,note_on,,,,,0,0,3,,,,,2,,,73,94
4800,note_off,,,,,192,0,7,,,,,6,,,45,0
4800,note_on,,,,,0,0,8,,,,,7,,,49,60
4800,note_off,,,,,192,0,3,,,,,2,,,73,0
4800,note_on,,,,,0,0,1,,,,,0,,,69,75
4800,note_on,,,,,0,0,7,,,,,6,,,37,75
4800,note_off,,,,,192,0,6,,,,,5,,,57,0
4800,note_on,,,,,0,0,3,,,,,2,,,69,94
4800,note_on,,,,,0,0,6,,,,,5,,,49,75
4800,note_off,,,,,192,0,1,,,,,0,,,73,0
4800,note_off,,,,,192,0,8,,,,,7,,,57,0
4992,note_off,,,,,192,0,3,,,,,2,,,69,0
4992,note_off,,,,,384,0,4,,,,,3,,,69,0
4992,note_on,,,,,0,0,4,,,,,3,,,69,88
4992,note_on,,,,,0,0,3,,,,,2,,,73,94
4992,note_off,,,,,192,0,1,,,,,0,,,69,0
4992,note_off,,,,,384,0,5,,,,,4,,,64,0
4992,note_on,,,,,0,0,5,,,,,4,,,66,75
4992,note_on,,,,,0,0,2,,,,,1,,,69,75
4992,note_off,,,,,384,0,2,,,,,1,,,69,0
4992,note_off,,,,,192,0,6,,,,,5,,,49,0
4992,note_on,,,,,0,0,6,,,,,5,,,50,75
4992,note_on,,,,,0,0,1,,,,,0,,,73,75
4992,note_off,,,,,192,0,8,,,,,7,,,49,0
4992,note_on,,,,,0,0,8,,,,,7,,,50,60
4992,note_on,,,,,0,0,7,,,,,6,,,38,75
4992,note_off,,,,,192,0,7,,,,,6,,,37,0
5040,note_off,,,,,48,0,1,,,,,0,,,73,0
5040,note_off,,,,,48,0,3,,,,,2,,,73,0
5040,note_on,,,,,0,0,3,,,,,2,,,71,94
5040,note_on,,,,,0,0,1,,,,,0,,,71,75
5088,note_off,,,,,48,0,3,,,,,2,,,71,0
5088,note_off,,,,,48,0,1,,,,,0,,,71,0
5088,note_on,,,,,0,0,3,,,,,2,,,73,94
5088,note_on,,,,,0,0,1,,,,,0,,,73,75
5136,note_on,,,,,0,0,1,,,,,0,,,71,75
5136,note_on,,,,,0,0,3,,,,,2,,,71,94
5136,note_off,,,,,48,0,3,,,,,2,,,73,0
5136,note_off,,,,,48,0,1,,,,,0,,,73,0
5184,note_on,,,,,0,0,4,,,,,3,,,68,88
5184,note_on,,,,,0,0,2,,,,,1,,,68,75
5184,note_off,,,,,192,0,2,,,,,1,,,69,0
5184,note_on,,,,,0,0,6,,,,,5,,,52,75
5184,note_on,,,,,0,0,5,,,,,4,,,64,75
5184,note_on,,,,,0,0,7,,,,,6,,,40,75
5184,note_off,,,,,192,0,7,,,,,6,,,38,0
5184,note_off,,,,,192,0,6,,,,,5,,,50,0
5184,note_off,,,,,192,0,5,,,,,4,,,66,0
5184,note_off,,,,,192,0,4,,,,,3,,,69,0
5184,note_off,,,,,192,0,8,,,,,7,,,50,0
5184,note_off,,,,,48,0,1,,,,,0,,,71,0
5184,note_on,,,,,0,0,1,,,,,0,,,73,75
5184,note_on,,,,,0,0,8,,,,,7,,,52,60
5184,note_off,,,,,48,0,3,,,,,2,,,71,0
5184,note_on,,,,,0,0,3,,,,,2,,,73,94
5232,note_off,,,,,48,0,1,,,,,0,,,73,0
5232,note_on,,,,,0,0,1,,,,,0,,,71,75
5232,note_on,,,,,0,0,3,,,,,2,,,71,94
5232,note_off,,,,,48,0,3,,,,,2,,,73,0
5280,note_off,,,,,96,0,5,,,,,4,,,64,0
5280,note_on,,,,,0,0,5,,,,,4,,,62,75
5376,note_off,,,,,192,0,6,,,,,5,,,52,0
5376,note_off,,,,,96,0,5,,,,,4,,,62,0
5376,note_on,,,,,0,0,5,,,,,4,,,61,75
5376,note_on,,,,,0,0,7,,,,,6,,,33,75
5376,note_off,,,,,192,0,7,,,,,6,,,40,0
5376,note_on,,,,,0,0,8,,,,,7,,,45,60
5376,note_off,,,,,192,0,8,,,,,7,,,52,0
5376,note_off,,,,,192,0,2,,,,,1,,,68,0
5376,note_on,,,,,0,0,2,,,,,1,,,69,75
5376,note_on,,,,,0,0,4,,,,,3,,,69,88
5376,note_off,,,,,192,0,4,,,,,3,,,68,0
5376,note_on,,,,,0,0,3,,,,,2,,,69,94
5376,note_on,,,,,0,0,6,,,,,5,,,45,75
5376,note_off,,,,,144,0,3,,,,,2,,,71,0
5376,note_on,,,,,0,0,1,,,,,0,,,69,75
5376,note_off,,,,,144,0,1,,,,,0,,,71,0
5760,note_off,,,,,384,0,5,,,,,4,,,61,0
5760,note_off,,,,,384,0,3,,,,,2,,,69,0
5760,note_off,,,,,384,0,7,,,,,6,,,33,0
5760,note_off,,,,,384,0,2,,,,,1,,,69,0
5760,note_off,,,,,384,0,8,,,,,7,,,45,0
5760,note_off,,,,,384,0,4,,,,,3,,,69,0
5760,note_off,,,,,384,0,1,,,,,0,,,69,0
5760,note_off,,,,,384,0,6,,,,,5,,,45,0
6144,note_on,,,,,384,0,1,,,,,0,,,69,75
6336,note_on,,,,,576,0,2,,,,,1,,,69,75
6528,note_on,,,,,0,0,2,,,,,1,,,68,75
6528,note_on,,,,,0,0,1,,,,,0,,,71,75
6528,note_off,,,,,384,0,1,,,,,0,,,69,0
6528,note_off,,,,,192,0,2,,,,,1,,,69,0
6720,note_on,,,,,0,0,1,,,,,0,,,73,75
6720,note_off,,,,,192,0,1,,,,,0,,,71,0
6720,note_on,,,,,0,0,2,,,,,1,,,64,75
6720,note_off,,,,,192,0,2,,,,,1,,,68,0
6912,note_off,,,,,192,0,2,,,,,1,,,64,0
6912,note_on,,,,,0,0,1,,,,,0,,,74,75
6912,note_off,,,,,192,0,1,,,,,0,,,73,0
6912,note_on,,,,,0,0,2,,,,,1,,,66,75
7104,note_off,,,,,192,0,1,,,,,0,,,74,0
7104,note_on,,,,,0,0,1,,,,,0,,,71,75
7104,note_off,,,,,192,0,2,,,,,1,,,66,0
7104,note_on,,,,,0,0,2,,,,,1,,,68,75
7296,note_off,,,,,192,0,2,,,,,1,,,68,0
7296,note_on,,,,,0,0,1,,,,,0,,,73,75
7296,note_on,,,,,0,0,2,,,,,1,,,69,75
7296,note_off,,,,,192,0,1,,,,,0,,,71,0
7488,note_on,,,,,1728,0,6,,,,,5,,,57,75
7488,note_on,,,,,1728,0,7,,,,,6,,,45,75
7680,note_off,,,,,384,0,1,,,,,0,,,73,0
7680,note_on,,,,,0,0,1,,,,,0,,,76,75
7680,note_on,,,,,0,0,2,,,,,1,,,64,75
7680,note_off,,,,,192,0,7,,,,,6,,,45,0
7680,note_off,,,,,192,0,6,,,,,5,,,57,0
7680,note_on,,,,,0,0,6,,,,,5,,,61,75
7680,note_off,,,,,384,0,2,,,,,1,,,69,0
7680,note_on,,,,,0,0,7,,,,,6,,,49,75
7872,note_off,,,,,192,0,2,,,,,1,,,64,0
7872,note_on,,,,,0,0,7,,,,,6,,,45,75
7872,note_on,,,,,0,0,2,,,,,1,,,73,75
7872,note_off,,,,,192,0,7,,,,,6,,,49,0
7872,note_off,,,,,192,0,6,,,,,5,,,61,0
7872,note_on,,,,,0,0,6,,,,,5,,,57,75
8064,note_off,,,,,192,0,7,,,,,6,,,45,0
8064,note_on,,,,,0,0,2,,,,,1,,,69,75
8064,note_off,,,,,192,0,2,,,,,1,,,73,0
8064,note_on,,,,,0,0,1,,,,,0,,,74,75
8064,note_off,,,,,192,0,6,,,,,5,,,57,0
8064,note_off,,,,,384,0,1,,,,,0,,,76,0
8064,note_on,,,,,0,0,7,,,,,6,,,54,75
8064,note_on,,,,,0,0,6,,,,,5,,,66,75
8160,note_on,,,,,0,0,1,,,,,0,,,73,75
8160,note_off,,,,,96,0,1,,,,,0,,,74,0
8256,note_on,,,,,0,0,2,,,,,1,,,66,75
8256,note_off,,,,,192,0,2,,,,,1,,,69,0
8256,note_off,,,,,192,0,7,,,,,6,,,54,0
8256,note_off,,,,,192,0,6,,,,,5,,,66,0
8256,note_on,,,,,0,0,1,,,,,0,,,71,75
8256,note_on,,,,,0,0,7,,,,,6,,,50,75
8256,note_on,,,,,0,0,6,,,,,5,,,62,75
8256,note_off,,,,,96,0,1,,,,,0,,,73,0
8352,note_off,,,,,96,0,1,,,,,0,,,71,0
8352,note_on,,,,,0,0,1,,,,,0,,,69,75
8448,note_on,,,,,0,0,6,,,,,5,,,64,75
8448,note_off,,,,,192,0,6,,,,,5,,,62,0
8448,note_off,,,,,192,0,2,,,,,1,,,66,0
8448,note_on,,,,,0,0,2,,,,,1,,,64,75
8448,note_on,,,,,0,0,1,,,,,0,,,68,75
8448,note_off,,,,,192,0,7,,,,,6,,,50,0
8448,note_on,,,,,0,0,7,,,,,6,,,52,75
8448,note_off,,,,,96,0,1,,,,,0,,,69,0
8544,note_off,,,,,96,0,1,,,,,0,,,68,0
8544,note_on,,,,,0,0,1,,,,,0,,,69,75
8544,note_on,,,,,0,0,2,,,,,1,,,66,75
8544,note_off,,,,,96,0,2,,,,,1,,,64,0
8640,note_off,,,,,96,0,2,,,,,1,,,66,0
8640,note_off,,,,,192,0,6,,,,,5,,,64,0
8640,note_on,,,,,0,0,1,,,,,0,,,71,75
8640,note_on,,,,,0,0,7,,,,,6,,,40,75
8640,note_off,,,,,192,0,7,,,,,6,,,52,0
8640,note_off,,,,,96,0,1,,,,,0,,,69,0
8640,note_on,,,,,0,0,2,,,,,1,,,68,75
8640,note_on,,,,,0,0,6,,,,,5,,,52,75
8832,note_on,,,,,0,0,6,,,,,5,,,56,75
8832,note_off,,,,,192,0,6,,,,,5,,,52,0
8832,note_off,,,,,192,0,1,,,,,0,,,71,0
8832,note_off,,,,,192,0,2,,,,,1,,,68,0
8832,note_on,,,,,0,0,7,,,,,6,,,44,75
8832,note_off,,,,,192,0,7,,,,,6,,,40,0
9024,note_on,,,,,0,0,6,,,,,5,,,59,75
9024,note_off,,,,,192,0,6,,,,,5,,,56,0
9024,note_on,,,,,0,0,7,,,,,6,,,47,75
9024,note_off,,,,,192,0,7,,,,,6,,,44,0
9216,note_on,,,,,0,0,7,,,,,6,,,52,75
9216,note_off,,,,,192,0,7,,,,,6,,,47,0
9216,note_on,,,,,384,0,2,,,,,1,,,68,75
9216,note_on,,,,,384,0,1,,,,,0,,,71,75
9216,note_on,,,,,0,0,6,,,,,5,,,64,75
9216,note_off,,,,,192,0,6,,,,,5,,,59,0
9408,note_on,,,,,0,0,6,,,,,5,,,62,75
9408,note_on,,,,,0,0,7,,,,,6,,,50,75
9408,note_off,,,,,192,0,7,,,,,6,,,52,0
9408,note_off,,,,,192,0,6,,,,,5,,,64,0
9600,note_off,,,,,192,0,6,,,,,5,,,62,0
9600,note_on,,,,,0,0,6,,,,,5,,,61,75
9600,note_off,,,,,192,0,7,,,,,6,,,50,0
9600,note_off,,,,,384,0,1,,,,,0,,,71,0
9600,note_on,,,,,0,0,2,,,,,1,,,69,75
9600,note_on,,,,,0,0,1,,,,,0,,,73,75
9600,note_off,,,,,384,0,2,,,,,1,,,68,0
9600,note_on,,,,,0,0,7,,,,,6,,,49,75
9792,note_off,,,,,192,0,6,,,,,5,,,61,0
9792,note_off,,,,,192,0,1,,,,,0,,,73,0
9792,note_on,,,,,0,0,6,,,,,5,,,59,75
9792,note_on,,,,,0,0,7,,,,,6,,,47,75
9792,note_off,,,,,192,0,7,,,,,6,,,49,0
9792,note_off,,,,,192,0,2,,,,,1,,,69,0
9792,note_on,,,,,0,0,1,,,,,0,,,74,75
9792,note_on,,,,,0,0,2,,,,,1,,,71,75
9984,note_off,,,,,192,0,2,,,,,1,,,71,0
9984,note_on,,,,,0,0,7,,,,,6,,,49,75
9984,note_off,,,,,192,0,7,,,,,6,,,47,0
9984,note_off,,,,,192,0,1,,,,,0,,,74,0
9984,note_on,,,,,0,0,6,,,,,5,,,61,75
9984,note_off,,,,,192,0,6,,,,,5,,,59,0
9984,note_on,,,,,0,0,1,,,,,0,,,76,75
9984,note_on,,,,,0,0,2,,,,,1,,,64,75
10176,note_on,,,,,0,0,6,,,,,5,,,52,75
10176,note_on,,,,,0,0,2,,,,,1,,,68,75
10176,note_on,,,,,0,0,7,,,,,6,,,40,75
10176,note_off,,,,,192,0,7,,,,,6,,,49,0
10176,note_on,,,,,0,0,1,,,,,0,,,73,75
10176,note_off,,,,,192,0,2,,,,,1,,,64,0
10176,note_off,,,,,192,0,6,,,,,5,,,61,0
10176,note_off,,,,,192,0,1,,,,,0,,,76,0
10368,note_on,,,,,0,0,6,,,,,5,,,54,75
10368,note_off,,,,,192,0,1,,,,,0,,,73,0
10368,note_on,,,,,0,0,1,,,,,0,,,74,75
10368,note_off,,,,,192,0,6,,,,,5,,,52,0
10368,note_off,,,,,192,0,7,,,,,6,,,40,0
10368,note_on,,,,,0,0,7,,,,,6,,,42,75
10368,note_off,,,,,192,0,2,,,,,1,,,68,0
10368,note_on,,,,,0,0,2,,,,,1,,,69,75
10560,note_on,,,,,0,0,2,,,,,1,,,71,75
10560,note_off,,,,,192,0,2,,,,,1,,,69,0
10560,note_on,,,,,0,0,6,,,,,5,,,56,75
10560,note_off,,,,,192,0,7,,,,,6,,,42,0
10560,note_on,,,,,0,0,1,,,,,0,,,71,75
10560,note_off,,,,,192,0,1,,,,,0,,,74,0
10560,note_on,,,,,0,0,7,,,,,6,,,44,75
10560,note_off,,,,,192,0,6,,,,,5,,,54,0
10752,note_off,,,,,192,0,1,,,,,0,,,71,0
10752,note_on,,,,,0,0,6,,,,,5,,,57,75
10752,note_off,,,,,192,0,7,,,,,6,,,44,0
10752,note_on,,,,,0,0,7,,,,,6,,,45,75
10752,note_on,,,,,0,0,2,,,,,1,,,64,75
10752,note_off,,,,,192,0,2,,,,,1,,,71,0
10752,note_off,,,,,192,0,6,,,,,5,,,56,0
10752,note_on,,,,,0,0,1,,,,,0,,,73,75
10944,note_on,,,,,0,0,6,,,,,5,,,49,75
10944,note_off,,,,,192,0,6,,,,,5,,,57,0
10944,note_on,,,,,0,0,7,,,,,6,,,37,75
10944,note_on,,,,,0,0,2,,,,,1,,,69,75
10944,note_on,,,,,0,0,1,,,,,0,,,69,75
10944,note_off,,,,,192,0,1,,,,,0,,,73,0
10944,note_off,,,,,192,0,7,,,,,6,,,45,0
10944,note_off,,,,,192,0,2,,,,,1,,,64,0
11136,note_off,,,,,192,0,2,,,,,1,,,69,0
11136,note_off,,,,,192,0,1,,,,,0,,,69,0
11136,note_on,,,,,0,0,2,,,,,1,,,69,75
11136,note_on,,,,,0,0,1,,,,,0,,,73,75
11136,note_on,,,,,0,0,7,,,,,6,,,38,75
11136,note_off,,,,,192,0,7,,,,,6,,,37,0
11136,note_on,,,,,0,0,6,,,,,5,,,50,75
11136,note_off,,,,,192,0,6,,,,,5,,,49,0
11184,note_off,,,,,48,0,1,,,,,0,,,73,0
11184,note_on,,,,,0,0,1,,,,,0,,,71,75
11232,note_off,,,,,48,0,1,,,,,0,,,71,0
11232,note_on,,,,,0,0,1,,,,,0,,,73,75
11280,note_on,,,,,0,0,1,,,,,0,,,71,75
11280,note_off,,,,,48,0,1,,,,,0,,,73,0
11328,note_off,,,,,48,0,1,,,,,0,,,71,0
11328,note_off,,,,,192,0,6,,,,,5,,,50,0
11328,note_on,,,,,0,0,7,,,,,6,,,40,75
11328,note_off,,,,,192,0,7,,,,,6,,,38,0
11328,note_on,,,,,0,0,6,,,,,5,,,52,75
11328,note_on,,,,,0,0,2,,,,,1,,,68,75
11328,note_off,,,,,192,0,2,,,,,1,,,69,0
11328,note_on,,,,,0,0,1,,,,,0,,,73,75
11376,note_on,,,,,0,0,1,,,,,0,,,71,75
11376,note_off,,,,,48,0,1,,,,,0,,,73,0
11520,note_off,,,,,144,0,1,,,,,0,,,71,0
11520,note_on,,,,,0,0,1,,,,,0,,,69,75
11520,note_on,,,,,0,0,7,,,,,6,,,33,75
11520,note_off,,,,,192,0,7,,,,,6,,,40,0
11520,note_on,,,,,0,0,2,,,,,1,,,69,75
11520,note_off,,,,,192,0,2,,,,,1,,,68,0
11520,note_on,,,,,0,0,6,,,,,5,,,45,75
11520,note_off,,,,,192,0,6,,,,,5,,,52,0
11904,note_off,,,,,384,0,1,,,,,0,,,69,0
11904,note_off,,,,,384,0,7,,,,,6,,,33,0
11904,note_off,,,,,384,0,6,,,,,5,,,45,0
11904,note_off,,,,,384,0,2,,,,,1,,,69,0
12288,note_on,,,,,6528,0,3,,,,,2,,,71,94
12288,note_on,,,,,6528,0,5,,,,,4,,,64,75
12288,note_on,,,,,6528,0,8,,,,,7,,,52,60
12288,note_on,,,,,6528,0,4,,,,,3,,,68,88
12480,note_on,,,,,0,0,8,,,,,7,,,50,60
12480,note_off,,,,,192,0,8,,,,,7,,,52,0
12672,note_on,,,,,0,0,8,,,,,7,,,49,60
12672,note_off,,,,,192,0,8,,,,,7,,,50,0
12672,note_off,,,,,384,0,4,,,,,3,,,68,0
12672,note_on,,,,,0,0,4,,,,,3,,,69,88
12672,note_off,,,,,384,0,5,,,,,4,,,64,0
12672,note_on,,,,,0,0,3,,,,,2,,,73,94
12672,note_off,,,,,384,0,3,,,,,2,,,71,0
12672,note_on,,,,,0,0,5,,,,,4,,,64,75
12864,note_on,,,,,0,0,8,,,,,7,,,47,60
12864,note_off,,,,,192,0,5,,,,,4,,,64,0
12864,note_off,,,,,192,0,8,,,,,7,,,49,0
12864,note_on,,,,,0,0,5,,,,,4,,,62,75
12864,note_on,,,,,0,0,4,,,,,3,,,71,88
12864,note_off,,,,,192,0,4,,,,,3,,,69,0
12864,note_off,,,,,192,0,3,,,,,2,,,73,0
12864,note_on,,,,,0,0,3,,,,,2,,,74,94
13056,note_off,,,,,192,0,8,,,,,7,,,47,0
13056,note_off,,,,,192,0,4,,,,,3,,,71,0
13056,note_on,,,,,0,0,4,,,,,3,,,64,88
13056,note_on,,,,,0,0,5,,,,,4,,,69,75
13056,note_off,,,,,192,0,5,,,,,4,,,62,0
13056,note_on,,,,,0,0,8,,,,,7,,,49,60
13056,note_on,,,,,0,0,3,,,,,2,,,76,94
13056,note_off,,,,,192,0,3,,,,,2,,,74,0
13248,note_off,,,,,192,0,3,,,,,2,,,76,0
13248,note_off,,,,,192,0,8,,,,,7,,,49,0
13248,note_off,,,,,192,0,5,,,,,4,,,69,0
13248,note_on,,,,,0,0,3,,,,,2,,,73,94
13248,note_off,,,,,192,0,4,,,,,3,,,64,0
13248,note_on,,,,,0,0,5,,,,,4,,,68,75
13248,note_on,,,,,0,0,8,,,,,7,,,52,60
13248,note_on,,,,,0,0,4,,,,,3,,,68,88
13440,note_off,,,,,192,0,8,,,,,7,,,52,0
13440,note_on,,,,,0,0,4,,,,,3,,,69,88
13440,note_on,,,,,0,0,8,,,,,7,,,54,60
13440,note_off,,,,,192,0,3,,,,,2,,,73,0
13440,note_on,,,,,0,0,3,,,,,2,,,74,94
13440,note_off,,,,,192,0,5,,,,,4,,,68,0
13440,note_on,,,,,0,0,5,,,,,4,,,66,75
13440,note_off,,,,,192,0,4,,,,,3,,,68,0
13632,note_off,,,,,192,0,3,,,,,2,,,74,0
13632,note_on,,,,,0,0,3,,,,,2,,,71,94
13632,note_on,,,,,0,0,5,,,,,4,,,64,75
13632,note_off,,,,,192,0,8,,,,,7,,,54,0
13632,note_on,,,,,0,0,4,,,,,3,,,71,88
13632,note_off,,,,,192,0,5,,,,,4,,,66,0
13632,note_on,,,,,0,0,8,,,,,7,,,56,60
13632,note_off,,,,,192,0,4,,,,,3,,,69,0
13824,note_off,,,,,192,0,4,,,,,3,,,71,0
13824,note_on,,,,,0,0,4,,,,,3,,,64,88
13824,note_off,,,,,192,0,8,,,,,7,,,56,0
13824,note_on,,,,,0,0,8,,,,,7,,,57,60
13824,note_on,,,,,0,0,5,,,,,4,,,69,75
13824,note_off,,,,,192,0,5,,,,,4,,,64,0
13824,note_off,,,,,192,0,3,,,,,2,,,71,0
13824,note_on,,,,,0,0,3,,,,,2,,,73,94
14016,note_on,,,,,0,0,5,,,,,4,,,64,75
14016,note_on,,,,,0,0,4,,,,,3,,,69,88
14016,note_off,,,,,192,0,4,,,,,3,,,64,0
14016,note_off,,,,,192,0,3,,,,,2,,,73,0
14016,note_on,,,,,0,0,3,,,,,2,,,69,94
14016,note_on,,,,,0,0,8,,,,,7,,,49,60
14016,note_off,,,,,192,0,5,,,,,4,,,69,0
14016,note_off,,,,,192,0,8,,,,,7,,,57,0
14208,note_off,,,,,192,0,8,,,,,7,,,49,0
14208,note_on,,,,,0,0,3,,,,,2,,,73,94
14208,note_on,,,,,0,0,8,,,,,7,,,50,60
14208,note_off,,,,,192,0,3,,,,,2,,,69,0
14208,note_off,,,,,192,0,5,,,,,4,,,64,0
14208,note_on,,,,,0,0,5,,,,,4,,,66,75
14208,note_on,,,,,0,0,4,,,,,3,,,69,88
14208,note_off,,,,,192,0,4,,,,,3,,,69,0
14256,note_on,,,,,0,0,3,,,,,2,,,71,94
14256,note_off,,,,,48,0,3,,,,,2,,,73,0
14304,note_on,,,,,0,0,3,,,,,2,,,73,94
14304,note_off,,,,,48,0,3,,,,,2,,,71,0
14352,note_on,,,,,0,0,3,,,,,2,,,71,94
14352,note_off,,,,,48,0,3,,,,,2,,,73,0
14400,note_off,,,,,48,0,3,,,,,2,,,71,0
14400,note_off,,,,,192,0,5,,,,,4,,,66,0
14400,note_on,,,,,0,0,8,,,,,7,,,52,60
14400,note_off,,,,,192,0,8,,,,,7,,,50,0
14400,note_on,,,,,0,0,5,,,,,4,,,64,75
14400,note_on,,,,,0,0,4,,,,,3,,,68,88
14400,note_off,,,,,192,0,4,,,,,3,,,69,0
14400,note_on,,,,,0,0,3,,,,,2,,,73,94
14448,note_off,,,,,48,0,3,,,,,2,,,73,0
14448,note_on,,,,,0,0,3,,,,,2,,,71,94
14496,note_on,,,,,0,0,5,,,,,4,,,62,75
14496,note_off,,,,,96,0,5,,,,,4,,,64,0
14592,note_on,,,,,0,0,4,,,,,3,,,69,88
14592,note_off,,,,,144,0,3,,,,,2,,,71,0
14592,note_on,,,,,0,0,3,,,,,2,,,69,94
14592,note_on,,,,,0,0,5,,,,,4,,,61,75
14592,note_off,,,,,192,0,8,,,,,7,,,52,0
14592,note_on,,,,,0,0,8,,,,,7,,,45,60
14592,note_off,,,,,96,0,5,,,,,4,,,62,0
14592,note_off,,,,,192,0,4,,,,,3,,,68,0
14976,note_off,,,,,384,0,3,,,,,2,,,69,0
14976,note_off,,,,,384,0,8,,,,,7,,,45,0
14976,note_off,,,,,384,0,5,,,,,4,,,61,0
14976,note_off,,,,,384,0,4,,,,,3,,,69,0
15168,note_on,,,,,3264,0,1,,,,,0,,,74,75
15360,note_off,,,,,192,0,1,,,,,0,,,74,0
15360,note_on,,,,,0,0,1,,,,,0,,,74,75
15408,note_off,,,,,48,0,1,,,,,0,,,74,0
15408,note_on,,,,,0,0,1,,,,,0,,,73,75
15456,note_on,,,,,0,0,1,,,,,0,,,73,75
15456,note_on,,,,,0,0,1,,,,,0,,,74,75
15456,note_off,,,,,48,0,1,,,,,0,,,73,0
15504,note_off,,,,,48,0,1,,,,,0,,,73,0
15504,note_off,,,,,0,0,1,,,,,0,,,74,0
15504,note_on,,,,,0,0,1,,,,,0,,,71,75
15552,note_on,,,,,0,0,1,,,,,0,,,69,75
15552,note_off,,,,,48,0,1,,,,,0,,,71,0
15744,note_off,,,,,192,0,1,,,,,0,,,69,0
15744,note_on,,,,,0,0,1,,,,,0,,,71,75
15792,note_off,,,,,48,0,1,,,,,0,,,71,0
15792,note_on,,,,,0,0,1,,,,,0,,,69,75
15840,note_off,,,,,48,0,1,,,,,0,,,69,0
15840,note_on,,,,,0,0,1,,,,,0,,,71,75
15888,note_off,,,,,48,0,1,,,,,0,,,71,0
15888,note_on,,,,,0,0,1,,,,,0,,,69,75
15936,note_on,,,,,4032,0,6,,,,,5,,,62,75
15936,note_on,,,,,4032,0,7,,,,,6,,,50,75
15936,note_on,,,,,4032,0,2,,,,,1,,,66,75
15936,note_on,,,,,0,0,1,,,,,0,,,71,75
15936,note_off,,,,,48,0,1,,,,,0,,,69,0
15984,note_on,,,,,0,0,1,,,,,0,,,69,75
15984,note_off,,,,,48,0,1,,,,,0,,,71,0
16128,note_on,,,,,0,0,7,,,,,6,,,50,75
16128,note_on,,,,,0,0,2,,,,,1,,,64,75
16128,note_off,,,,,192,0,2,,,,,1,,,66,0
16128,note_off,,,,,192,0,7,,,,,6,,,50,0
16128,note_on,,,,,0,0,6,,,,,5,,,62,75
16128,note_off,,,,,192,0,6,,,,,5,,,62,0
16128,note_off,,,,,144,0,1,,,,,0,,,69,0
16128,note_on,,,,,0,0,1,,,,,0,,,71,75
16176,note_off,,,,,48,0,1,,,,,0,,,71,0
16176,note_on,,,,,0,0,1,,,,,0,,,69,75
16176,note_off,,,,,48,0,6,,,,,5,,,62,0
16176,note_off,,,,,48,0,7,,,,,6,,,50,0
16176,note_on,,,,,0,0,7,,,,,6,,,49,75
16176,note_on,,,,,0,0,6,,,,,5,,,61,75
16224,note_on,,,,,0,0,6,,,,,5,,,61,75
16224,note_on,,,,,0,0,6,,,,,5,,,62,75
16224,note_off,,,,,48,0,1,,,,,0,,,69,0
16224,note_on,,,,,0,0,7,,,,,6,,,50,75
16224,note_on,,,,,0,0,7,,,,,6,,,49,75
16224,note_off,,,,,48,0,7,,,,,6,,,49,0
16224,note_on,,,,,0,0,1,,,,,0,,,71,75
16224,note_off,,,,,48,0,6,,,,,5,,,61,0
16272,note_on,,,,,0,0,6,,,,,5,,,59,75
16272,note_off,,,,,0,0,6,,,,,5,,,62,0
16272,note_off,,,,,48,0,6,,,,,5,,,61,0
16272,note_off,,,,,144,0,2,,,,,1,,,64,0
16272,note_on,,,,,0,0,1,,,,,0,,,69,75
16272,note_on,,,,,0,0,2,,,,,1,,,62,75
16272,note_off,,,,,48,0,1,,,,,0,,,71,0
16272,note_off,,,,,48,0,7,,,,,6,,,49,0
16272,note_off,,,,,0,0,7,,,,,6,,,50,0
16272,note_on,,,,,0,0,7,,,,,6,,,47,75
16320,note_on,,,,,0,0,6,,,,,5,,,57,75
16320,note_off,,,,,48,0,1,,,,,0,,,69,0
16320,note_off,,,,,48,0,7,,,,,6,,,47,0
16320,note_off,,,,,48,0,2,,,,,1,,,62,0
16320,note_on,,,,,0,0,1,,,,,0,,,71,75
16320,note_on,,,,,0,0,2,,,,,1,,,61,75
16320,note_on,,,,,0,0,7,,,,,6,,,45,75
16320,note_off,,,,,48,0,6,,,,,5,,,59,0
16368,note_on,,,,,0,0,1,,,,,0,,,69,75
16368,note_off,,,,,48,0,1,,,,,0,,,71,0
16512,note_off,,,,,192,0,7,,,,,6,,,45,0
16512,note_off,,,,,192,0,6,,,,,5,,,57,0
16512,note_on,,,,,0,0,6,,,,,5,,,59,75
16512,note_on,,,,,0,0,7,,,,,6,,,47,75
16512,note_off,,,,,144,0,1,,,,,0,,,69,0
16512,note_on,,,,,0,0,2,,,,,1,,,71,75
16512,note_off,,,,,192,0,2,,,,,1,,,61,0
16560,note_on,,,,,0,0,2,,,,,1,,,69,75
16560,note_off,,,,,48,0,2,,,,,1,,,71,0
16560,note_off,,,,,48,0,7,,,,,6,,,47,0
16560,note_off,,,,,48,0,6,,,,,5,,,59,0
16560,note_on,,,,,0,0,7,,,,,6,,,45,75
16560,note_on,,,,,0,0,6,,,,,5,,,57,75
16608,note_on,,,,,0,0,2,,,,,1,,,71,75
16608,note_off,,,,,48,0,6,,,,,5,,,57,0
16608,note_on,,,,,0,0,6,,,,,5,,,59,75
16608,note_off,,,,,48,0,7,,,,,6,,,45,0
16608,note_on,,,,,0,0,7,,,,,6,,,47,75
16608,note_off,,,,,48,0,2,,,,,1,,,69,0
16656,note_off,,,,,48,0,7,,,,,6,,,47,0
16656,note_on,,,,,0,0,7,,,,,6,,,45,75
16656,note_on,,,,,0,0,2,,,,,1,,,69,75
16656,note_off,,,,,48,0,2,,,,,1,,,71,0
16656,note_off,,,,,48,0,6,,,,,5,,,59,0
16656,note_on,,,,,0,0,6,,,,,5,,,57,75
16704,note_off,,,,,48,0,7,,,,,6,,,45,0
16704,note_on,,,,,0,0,2,,,,,1,,,71,75
16704,note_off,,,,,48,0,6,,,,,5,,,57,0
16704,note_on,,,,,0,0,6,,,,,5,,,59,75
16704,note_on,,,,,1728,0,3,,,,,2,,,74,94
16704,note_on,,,,,0,0,7,,,,,6,,,47,75
16704,note_off,,,,,48,0,2,,,,,1,,,69,0
16752,note_off,,,,,48,0,2,,,,,1,,,71,0
16752,note_on,,,,,0,0,2,,,,,1,,,69,75
16752,note_on,,,,,0,0,6,,,,,5,,,57,75
16752,note_off,,,,,48,0,6,,,,,5,,,59,0
16752,note_on,,,,,0,0,7,,,,,6,,,45,75
16752,note_off,,,,,48,0,7,,,,,6,,,47,0
16896,note_on,,,,,0,0,3,,,,,2,,,74,94
16896,note_off,,,,,192,0,3,,,,,2,,,74,0
16896,note_off,,,,,144,0,6,,,,,5,,,57,0
16896,note_on,,,,,0,0,6,,,,,5,,,59,75
16896,note_on,,,,,0,0,2,,,,,1,,,71,75
16896,note_off,,,,,144,0,7,,,,,6,,,45,0
16896,note_on,,,,,0,0,7,,,,,6,,,47,75
16896,note_off,,,,,144,0,2,,,,,1,,,69,0
16944,note_off,,,,,48,0,2,,,,,1,,,71,0
16944,note_off,,,,,48,0,6,,,,,5,,,59,0
16944,note_on,,,,,0,0,6,,,,,5,,,57,75
16944,note_on,,,,,0,0,3,,,,,2,,,73,94
16944,note_off,,,,,48,0,3,,,,,2,,,74,0
16944,note_on,,,,,0,0,7,,,,,6,,,45,75
16944,note_on,,,,,0,0,2,,,,,1,,,69,75
16944,note_off,,,,,48,0,7,,,,,6,,,47,0
16992,note_on,,,,,0,0,7,,,,,6,,,47,75
16992,note_off,,,,,48,0,7,,,,,6,,,45,0
16992,note_on,,,,,0,0,2,,,,,1,,,71,75
16992,note_off,,,,,48,0,3,,,,,2,,,73,0
16992,note_on,,,,,0,0,3,,,,,2,,,73,94
16992,note_on,,,,,0,0,3,,,,,2,,,74,94
16992,note_on,,,,,0,0,6,,,,,5,,,59,75
16992,note_off,,,,,48,0,6,,,,,5,,,57,0
16992,note_off,,,,,48,0,2,,,,,1,,,69,0
17040,note_off,,,,,48,0,3,,,,,2,,,73,0
17040,note_off,,,,,0,0,3,,,,,2,,,74,0
17040,note_on,,,,,0,0,3,,,,,2,,,71,94
17040,note_on,,,,,0,0,2,,,,,1,,,69,75
17040,note_off,,,,,48,0,7,,,,,6,,,47,0
17040,note_off,,,,,48,0,6,,,,,5,,,59,0
17040,note_on,,,,,0,0,6,,,,,5,,,57,75
17040,note_off,,,,,48,0,2,,,,,1,,,71,0
17040,note_on,,,,,0,0,7,,,,,6,,,45,75
17088,note_on,,,,,0,0,3,,,,,2,,,69,94
17088,note_on,,,,,0,0,7,,,,,6,,,47,75
17088,note_off,,,,,48,0,2,,,,,1,,,69,0
17088,note_on,,,,,0,0,2,,,,,1,,,71,75
17088,note_off,,,,,48,0,7,,,,,6,,,45,0
17088,note_on,,,,,0,0,6,,,,,5,,,59,75
17088,note_off,,,,,48,0,6,,,,,5,,,57,0
17088,note_off,,,,,48,0,3,,,,,2,,,71,0
17136,note_off,,,,,48,0,2,,,,,1,,,71,0
17136,note_on,,,,,0,0,6,,,,,5,,,57,75
17136,note_off,,,,,48,0,6,,,,,5,,,59,0
17136,note_on,,,,,0,0,7,,,,,6,,,45,75
17136,note_off,,,,,48,0,7,,,,,6,,,47,0
17136,note_on,,,,,0,0,2,,,,,1,,,69,75
17280,note_off,,,,,144,0,2,,,,,1,,,69,0
17280,note_off,,,,,192,0,3,,,,,2,,,69,0
17280,note_on,,,,,0,0,3,,,,,2,,,71,94
17280,note_off,,,,,144,0,7,,,,,6,,,45,0
17280,note_off,,,,,144,0,6,,,,,5,,,57,0
17280,note_on,,,,,2304,0,4,,,,,3,,,71,88
17328,note_off,,,,,48,0,4,,,,,3,,,71,0
17328,note_off,,,,,48,0,3,,,,,2,,,71,0
17328,note_on,,,,,0,0,3,,,,,2,,,69,94
17328,note_on,,,,,0,0,4,,,,,3,,,69,88
17376,note_off,,,,,48,0,4,,,,,3,,,69,0
17376,note_on,,,,,0,0,4,,,,,3,,,71,88
17376,note_off,,,,,48,0,3,,,,,2,,,69,0
17376,note_on,,,,,0,0,3,,,,,2,,,71,94
17424,note_off,,,,,48,0,3,,,,,2,,,71,0
17424,note_on,,,,,0,0,3,,,,,2,,,69,94
17424,note_off,,,,,48,0,4,,,,,3,,,71,0
17424,note_on,,,,,0,0,4,,,,,3,,,69,88
17472,note_off,,,,,48,0,4,,,,,3,,,69,0
17472,note_on,,,,,0,0,4,,,,,3,,,71,88
17472,note_on,,,,,2496,0,5,,,,,4,,,66,75
17472,note_on,,,,,2496,0,8,,,,,7,,,62,60
17472,note_off,,,,,48,0,3,,,,,2,,,69,0
17472,note_on,,,,,0,0,3,,,,,2,,,71,94
17520,note_off,,,,,48,0,4,,,,,3,,,71,0
17520,note_off,,,,,48,0,3,,,,,2,,,71,0
17520,note_on,,,,,0,0,3,,,,,2,,,69,94
17520,note_on,,,,,0,0,4,,,,,3,,,69,88
17664,note_on,,,,,0,0,4,,,,,3,,,71,88
17664,note_on,,,,,0,0,5,,,,,4,,,64,75
17664,note_off,,,,,192,0,5,,,,,4,,,66,0
17664,note_off,,,,,144,0,3,,,,,2,,,69,0
17664,note_off,,,,,192,0,8,,,,,7,,,62,0
17664,note_on,,,,,0,0,8,,,,,7,,,61,60
17664,note_off,,,,,144,0,4,,,,,3,,,69,0
17664,note_on,,,,,0,0,3,,,,,2,,,71,94
17712,note_on,,,,,0,0,4,,,,,3,,,69,88
17712,note_off,,,,,48,0,4,,,,,3,,,71,0
17712,note_off,,,,,48,0,3,,,,,2,,,71,0
17712,note_on,,,,,0,0,3,,,,,2,,,69,94
17760,note_on,,,,,0,0,8,,,,,7,,,59,60
17760,note_off,,,,,48,0,3,,,,,2,,,69,0
17760,note_on,,,,,0,0,4,,,,,3,,,71,88
17760,note_off,,,,,48,0,4,,,,,3,,,69,0
17760,note_on,,,,,0,0,3,,,,,2,,,71,94
17760,note_on,,,,,0,0,5,,,,,4,,,62,75
17760,note_off,,,,,96,0,5,,,,,4,,,64,0
17760,note_off,,,,,96,0,8,,,,,7,,,61,0
17808,note_off,,,,,48,0,3,,,,,2,,,71,0
17808,note_on,,,,,0,0,4,,,,,3,,,69,88
17808,note_off,,,,,48,0,4,,,,,3,,,71,0
17808,note_on,,,,,0,0,3,,,,,2,,,69,94
17856,note_on,,,,,0,0,4,,,,,3,,,71,88
17856,note_on,,,,,0,0,5,,,,,4,,,61,75
17856,note_off,,,,,96,0,8,,,,,7,,,59,0
17856,note_on,,,,,0,0,8,,,,,7,,,57,60
17856,note_off,,,,,48,0,4,,,,,3,,,69,0
17856,note_off,,,,,96,0,5,,,,,4,,,62,0
17856,note_on,,,,,0,0,3,,,,,2,,,71,94
17856,note_off,,,,,48,0,3,,,,,2,,,69,0
17904,note_on,,,,,0,0,4,,,,,3,,,69,88
17904,note_off,,,,,48,0,3,,,,,2,,,71,0
17904,note_on,,,,,0,0,3,,,,,2,,,69,94
17904,note_off,,,,,48,0,4,,,,,3,,,71,0
18048,note_off,,,,,144,0,3,,,,,2,,,69,0
18048,note_off,,,,,192,0,8,,,,,7,,,57,0
18048,note_on,,,,,0,0,8,,,,,7,,,57,60
18048,note_off,,,,,192,0,5,,,,,4,,,61,0
18048,note_on,,,,,0,0,5,,,,,4,,,61,75
18048,note_off,,,,,144,0,4,,,,,3,,,69,0
18240,note_on,,,,,1728,0,1,,,,,0,,,81,75
18432,note_on,,,,,0,0,1,,,,,0,,,78,75
18432,note_off,,,,,384,0,5,,,,,4,,,61,0
18432,note_off,,,,,192,0,1,,,,,0,,,81,0
18432,note_off,,,,,384,0,8,,,,,7,,,57,0
18528,note_off,,,,,96,0,1,,,,,0,,,78,0
18528,note_on,,,,,0,0,1,,,,,0,,,76,75
18624,note_off,,,,,96,0,1,,,,,0,,,76,0
18624,note_on,,,,,0,0,1,,,,,0,,,74,75
18816,note_off,,,,,192,0,1,,,,,0,,,74,0
18816,note_on,,,,,0,0,1,,,,,0,,,76,75
18864,note_off,,,,,48,0,1,,,,,0,,,76,0
18864,note_on,,,,,0,0,1,,,,,0,,,74,75
18912,note_on,,,,,0,0,1,,,,,0,,,76,75
18912,note_off,,,,,48,0,1,,,,,0,,,74,0
18960,note_off,,,,,48,0,1,,,,,0,,,76,0
18960,note_on,,,,,0,0,1,,,,,0,,,74,75
19008,note_on,,,,,1728,0,6,,,,,5,,,69,75
19008,note_on,,,,,1728,0,2,,,,,1,,,69,75
19008,note_on,,,,,1728,0,7,,,,,6,,,57,75
19008,note_off,,,,,48,0,1,,,,,0,,,74,0
19008,note_on,,,,,0,0,1,,,,,0,,,76,75
19056,note_off,,,,,48,0,1,,,,,0,,,76,0
19056,note_on,,,,,0,0,1,,,,,0,,,74,75
19200,note_on,,,,,0,0,2,,,,,1,,,69,75
19200,note_on,,,,,0,0,6,,,,,5,,,66,75
19200,note_off,,,,,192,0,6,,,,,5,,,69,0
19200,note_off,,,,,192,0,2,,,,,1,,,69,0
19200,note_on,,,,,0,0,1,,,,,0,,,76,75
19200,note_off,,,,,144,0,1,,,,,0,,,74,0
19200,note_off,,,,,192,0,7,,,,,6,,,57,0
19200,note_on,,,,,0,0,7,,,,,6,,,54,75
19248,note_on,,,,,0,0,1,,,,,0,,,74,75
19248,note_off,,,,,48,0,1,,,,,0,,,76,0
19296,note_on,,,,,0,0,2,,,,,1,,,67,75
19296,note_on,,,,,0,0,1,,,,,0,,,76,75
19296,note_on,,,,,0,0,7,,,,,6,,,52,75
19296,note_on,,,,,0,0,6,,,,,5,,,64,75
19296,note_off,,,,,96,0,6,,,,,5,,,66,0
19296,note_off,,,,,96,0,2,,,,,1,,,69,0
19296,note_off,,,,,96,0,7,,,,,6,,,54,0
19296,note_off,,,,,48,0,1,,,,,0,,,74,0
19344,note_on,,,,,0,0,1,,,,,0,,,74,75
19344,note_off,,,,,48,0,1,,,,,0,,,76,0
19392,note_off,,,,,96,0,6,,,,,5,,,64,0
19392,note_on,,,,,0,0,6,,,,,5,,,62,75
19392,note_on,,,,,0,0,7,,,,,6,,,50,75
19392,note_off,,,,,96,0,7,,,,,6,,,52,0
19392,note_off,,,,,96,0,2,,,,,1,,,67,0
19392,note_on,,,,,0,0,2,,,,,1,,,66,75
19392,note_on,,,,,0,0,1,,,,,0,,,76,75
19392,note_off,,,,,48,0,1,,,,,0,,,74,0
19440,note_off,,,,,48,0,1,,,,,0,,,76,0
19440,note_on,,,,,0,0,1,,,,,0,,,74,75
19584,note_on,,,,,0,0,2,,,,,1,,,67,75
19584,note_off,,,,,192,0,2,,,,,1,,,66,0
19584,note_off,,,,,144,0,1,,,,,0,,,74,0
19584,note_on,,,,,0,0,6,,,,,5,,,64,75
19584,note_off,,,,,192,0,6,,,,,5,,,62,0
19584,note_on,,,,,0,0,7,,,,,6,,,52,75
19584,note_off,,,,,192,0,7,,,,,6,,,50,0
19632,note_off,,,,,48,0,2,,,,,1,,,67,0
19632,note_on,,,,,0,0,2,,,,,1,,,66,75
19632,note_off,,,,,48,0,7,,,,,6,,,52,0
19632,note_on,,,,,0,0,6,,,,,5,,,62,75
19632,note_off,,,,,48,0,6,,,,,5,,,64,0
19632,note_on,,,,,0,0,7,,,,,6,,,50,75
19680,note_on,,,,,0,0,7,,,,,6,,,52,75
19680,note_on,,,,,0,0,2,,,,,1,,,67,75
19680,note_off,,,,,48,0,7,,,,,6,,,50,0
19680,note_off,,,,,48,0,2,,,,,1,,,66,0
19680,note_off,,,,,48,0,6,,,,,5,,,62,0
19680,note_on,,,,,0,0,6,,,,,5,,,64,75
19728,note_off,,,,,48,0,7,,,,,6,,,52,0
19728,note_on,,,,,0,0,2,,,,,1,,,66,75
19728,note_on,,,,,0,0,7,,,,,6,,,50,75
19728,note_off,,,,,48,0,2,,,,,1,,,67,0
19728,note_off,,,,,48,0,6,,,,,5,,,64,0
19728,note_on,,,,,0,0,6,,,,,5,,,62,75
19776,note_on,,,,,0,0,2,,,,,1,,,67,75
19776,note_off,,,,,48,0,2,,,,,1,,,66,0
19776,note_on,,,,,1728,0,3,,,,,2,,,81,94
19776,note_off,,,,,48,0,6,,,,,5,,,62,0
19776,note_on,,,,,0,0,7,,,,,6,,,52,75
19776,note_off,,,,,48,0,7,,,,,6,,,50,0
19776,note_on,,,,,0,0,6,,,,,5,,,64,75
19824,note_on,,,,,0,0,6,,,,,5,,,62,75
19824,note_off,,,,,48,0,6,,,,,5,,,64,0
19824,note_on,,,,,0,0,2,,,,,1,,,66,75
19824,note_off,,,,,48,0,2,,,,,1,,,67,0
19824,note_off,,,,,48,0,7,,,,,6,,,52,0
19824,note_on,,,,,0,0,7,,,,,6,,,50,75
19968,note_on,,,,,0,0,7,,,,,6,,,52,75
19968,note_off,,,,,192,0,3,,,,,2,,,81,0
19968,note_on,,,,,0,0,3,,,,,2,,,78,94
19968,note_off,,,,,144,0,6,,,,,5,,,62,0
19968,note_on,,,,,0,0,6,,,,,5,,,64,75
19968,note_off,,,,,144,0,2,,,,,1,,,66,0
19968,note_off,,,,,144,0,7,,,,,6,,,50,0
20016,note_off,,,,,48,0,6,,,,,5,,,64,0
20016,note_on,,,,,0,0,7,,,,,6,,,50,75
20016,note_off,,,,,48,0,7,,,,,6,,,52,0
20016,note_on,,,,,0,0,6,,,,,5,,,62,75
20064,note_off,,,,,48,0,6,,,,,5,,,62,0
20064,note_on,,,,,0,0,6,,,,,5,,,64,75
20064,note_on,,,,,0,0,7,,,,,6,,,52,75
20064,note_off,,,,,48,0,7,,,,,6,,,50,0
20064,note_on,,,,,0,0,3,,,,,2,,,76,94
20064,note_off,,,,,96,0,3,,,,,2,,,78,0
20112,note_on,,,,,0,0,7,,,,,6,,,50,75
20112,note_off,,,,,48,0,7,,,,,6,,,52,0
20112,note_on,,,,,0,0,6,,,,,5,,,62,75
20112,note_off,,,,,48,0,6,,,,,5,,,64,0
20160,note_on,,,,,0,0,3,,,,,2,,,74,94
20160,note_on,,,,,0,0,7,,,,,6,,,52,75
20160,note_off,,,,,48,0,7,,,,,6,,,50,0
20160,note_on,,,,,0,0,6,,,,,5,,,64,75
20160,note_off,,,,,48,0,6,,,,,5,,,62,0
20160,note_off,,,,,96,0,3,,,,,2,,,76,0
20208,note_on,,,,,0,0,6,,,,,5,,,62,75
20208,note_off,,,,,48,0,7,,,,,6,,,52,0
20208,note_off,,,,,48,0,6,,,,,5,,,64,0
20208,note_on,,,,,0,0,7,,,,,6,,,50,75
20352,note_off,,,,,144,0,7,,,,,6,,,50,0
20352,note_off,,,,,192,0,3,,,,,2,,,74,0
20352,note_on,,,,,0,0,3,,,,,2,,,76,94
20352,note_off,,,,,144,0,6,,,,,5,,,62,0
20400,note_off,,,,,48,0,3,,,,,2,,,76,0
20400,note_on,,,,,0,0,3,,,,,2,,,74,94
20448,note_on,,,,,0,0,3,,,,,2,,,76,94
20448,note_off,,,,,48,0,3,,,,,2,,,74,0
20496,note_on,,,,,0,0,3,,,,,2,,,74,94
20496,note_off,,,,,48,0,3,,,,,2,,,76,0
20544,note_on,,,,,2496,0,4,,,,,3,,,69,88
20544,note_on,,,,,2112,0,8,,,,,7,,,57,60
20544,note_off,,,,,48,0,3,,,,,2,,,74,0
20544,note_on,,,,,2112,0,5,,,,,4,,,66,75
20544,note_on,,,,,0,0,3,,,,,2,,,76,94
20592,note_off,,,,,48,0,3,,,,,2,,,76,0
20592,note_on,,,,,0,0,3,,,,,2,,,74,94
20736,note_on,,,,,0,0,8,,,,,7,,,54,60
20736,note_off,,,,,192,0,5,,,,,4,,,66,0
20736,note_off,,,,,192,0,8,,,,,7,,,57,0
20736,note_off,,,,,192,0,4,,,,,3,,,69,0
20736,note_on,,,,,0,0,3,,,,,2,,,76,94
20736,note_off,,,,,144,0,3,,,,,2,,,74,0
20736,note_on,,,,,0,0,4,,,,,3,,,69,88
20736,note_on,,,,,0,0,5,,,,,4,,,66,75
20784,note_on,,,,,0,0,3,,,,,2,,,74,94
20784,note_off,,,,,48,0,3,,,,,2,,,76,0
20832,note_on,,,,,0,0,3,,,,,2,,,76,94
20832,note_off,,,,,48,0,3,,,,,2,,,74,0
20832,note_off,,,,,96,0,4,,,,,3,,,69,0
20832,note_off,,,,,96,0,8,,,,,7,,,54,0
20832,note_on,,,,,0,0,8,,,,,7,,,52,60
20832,note_on,,,,,0,0,4,,,,,3,,,67,88
20880,note_on,,,,,0,0,3,,,,,2,,,74,94
20880,note_off,,,,,48,0,3,,,,,2,,,76,0
20928,note_on,,,,,0,0,8,,,,,7,,,50,60
20928,note_off,,,,,96,0,8,,,,,7,,,52,0
20928,note_on,,,,,0,0,4,,,,,3,,,66,88
20928,note_off,,,,,96,0,4,,,,,3,,,67,0
20928,note_off,,,,,48,0,3,,,,,2,,,74,0
20928,note_on,,,,,0,0,3,,,,,2,,,76,94
20976,note_off,,,,,48,0,3,,,,,2,,,76,0
20976,note_on,,,,,0,0,3,,,,,2,,,74,94
21120,note_on,,,,,1152,0,2,,,,,1,,,86,75
21120,note_off,,,,,144,0,3,,,,,2,,,74,0
21120,note_on,,,,,0,0,8,,,,,7,,,50,60
21120,note_on,,,,,1536,0,1,,,,,0,,,86,75
21120,note_off,,,,,192,0,8,,,,,7,,,50,0
21120,note_on,,,,,0,0,5,,,,,4,,,57,75
21120,note_off,,,,,384,0,5,,,,,4,,,66,0
21120,note_off,,,,,192,0,4,,,,,3,,,66,0
21120,note_on,,,,,0,0,4,,,,,3,,,66,88
21312,note_on,,,,,0,0,4,,,,,3,,,71,88
21312,note_on,,,,,192,0,3,,,,,2,,,71,94
21312,note_off,,,,,192,0,4,,,,,3,,,66,0
21504,note_off,,,,,384,0,2,,,,,1,,,86,0
21504,note_on,,,,,0,0,2,,,,,1,,,86,75
21504,note_off,,,,,384,0,1,,,,,0,,,86,0
21504,note_on,,,,,0,0,1,,,,,0,,,86,75
21504,note_on,,,,,0,0,4,,,,,3,,,68,88
21504,note_off,,,,,384,0,5,,,,,4,,,57,0
21504,note_off,,,,,384,0,8,,,,,7,,,50,0
21504,note_off,,,,,192,0,4,,,,,3,,,71,0
21504,note_on,,,,,0,0,3,,,,,2,,,68,94
21504,note_off,,,,,192,0,3,,,,,2,,,71,0
21600,note_off,,,,,96,0,4,,,,,3,,,68,0
21600,note_on,,,,,0,0,4,,,,,3,,,66,88
21600,note_on,,,,,0,0,3,,,,,2,,,66,94
21600,note_off,,,,,96,0,3,,,,,2,,,68,0
21696,note_on,,,,,0,0,3,,,,,2,,,64,94
21696,note_on,,,,,0,0,4,,,,,3,,,64,88
21696,note_off,,,,,96,0,4,,,,,3,,,66,0
21696,note_off,,,,,96,0,3,,,,,2,,,66,0
21888,note_on,,,,,0,0,2,,,,,1,,,86,75
21888,note_off,,,,,384,0,2,,,,,1,,,86,0
21888,note_on,,,,,0,0,4,,,,,3,,,64,88
21888,note_off,,,,,192,0,4,,,,,3,,,64,0
21888,note_off,,,,,192,0,3,,,,,2,,,64,0
21888,note_on,,,,,0,0,3,,,,,2,,,64,94
21888,note_off,,,,,384,0,1,,,,,0,,,86,0
21888,note_on,,,,,0,0,1,,,,,0,,,86,75
22080,note_on,,,,,1728,0,7,,,,,6,,,47,75
22080,note_on,,,,,576,0,5,,,,,4,,,59,75
22080,note_on,,,,,1728,0,6,,,,,5,,,59,75
22080,note_on,,,,,576,0,8,,,,,7,,,59,60
22272,note_off,,,,,192,0,6,,,,,5,,,59,0
22272,note_on,,,,,0,0,1,,,,,0,,,86,75
22272,note_off,,,,,384,0,1,,,,,0,,,86,0
22272,note_off,,,,,192,0,8,,,,,7,,,59,0
22272,note_on,,,,,0,0,8,,,,,7,,,56,60
22272,note_off,,,,,192,0,7,,,,,6,,,47,0
22272,note_on,,,,,0,0,7,,,,,6,,,44,75
22272,note_on,,,,,0,0,6,,,,,5,,,56,75
22272,note_off,,,,,384,0,2,,,,,1,,,86,0
22272,note_on,,,,,0,0,4,,,,,3,,,71,88
22272,note_off,,,,,384,0,4,,,,,3,,,64,0
22272,note_on,,,,,0,0,2,,,,,1,,,86,75
22272,note_on,,,,,0,0,5,,,,,4,,,56,75
22272,note_on,,,,,0,0,3,,,,,2,,,71,94
22272,note_off,,,,,192,0,5,,,,,4,,,59,0
22272,note_off,,,,,384,0,3,,,,,2,,,64,0
22368,note_on,,,,,0,0,7,,,,,6,,,42,75
22368,note_off,,,,,96,0,7,,,,,6,,,44,0
22368,note_on,,,,,0,0,5,,,,,4,,,54,75
22368,note_on,,,,,0,0,8,,,,,7,,,54,60
22368,note_off,,,,,96,0,8,,,,,7,,,56,0
22368,note_on,,,,,0,0,6,,,,,5,,,54,75
22368,note_off,,,,,96,0,6,,,,,5,,,56,0
22368,note_off,,,,,96,0,5,,,,,4,,,56,0
22464,note_on,,,,,0,0,8,,,,,7,,,52,60
22464,note_on,,,,,0,0,7,,,,,6,,,40,75
22464,note_off,,,,,96,0,7,,,,,6,,,42,0
22464,note_on,,,,,0,0,6,,,,,5,,,52,75
22464,note_off,,,,,96,0,8,,,,,7,,,54,0
22464,note_off,,,,,96,0,6,,,,,5,,,54,0
22464,note_off,,,,,96,0,5,,,,,4,,,54,0
22464,note_on,,,,,0,0,5,,,,,4,,,52,75
22656,note_off,,,,,192,0,5,,,,,4,,,52,0
22656,note_on,,,,,0,0,3,,,,,2,,,71,94
22656,note_off,,,,,192,0,7,,,,,6,,,40,0
22656,note_on,,,,,0,0,7,,,,,6,,,40,75
22656,note_on,,,,,0,0,5,,,,,4,,,64,75
22656,note_on,,,,,0,0,6,,,,,5,,,52,75
22656,note_off,,,,,384,0,4,,,,,3,,,71,0
22656,note_on,,,,,0,0,4,,,,,3,,,68,88
22656,note_on,,,,,0,0,8,,,,,7,,,52,60
22656,note_off,,,,,192,0,8,,,,,7,,,52,0
22656,note_off,,,,,384,0,3,,,,,2,,,71,0
22656,note_off,,,,,192,0,6,,,,,5,,,52,0
22848,note_off,,,,,192,0,7,,,,,6,,,40,0
22848,note_on,,,,,0,0,7,,,,,6,,,52,75
22848,note_off,,,,,576,0,2,,,,,1,,,86,0
22848,note_on,,,,,0,0,2,,,,,1,,,80,75
22848,note_off,,,,,192,0,6,,,,,5,,,52,0
22848,note_on,,,,,0,0,6,,,,,5,,,64,75
22848,note_on,,,,,0,0,1,,,,,0,,,83,75
22848,note_off,,,,,576,0,1,,,,,0,,,86,0
23040,note_on,,,,,0,0,1,,,,,0,,,85,75
23040,note_on,,,,,0,0,2,,,,,1,,,81,75
23040,note_off,,,,,192,0,2,,,,,1,,,80,0
23040,note_off,,,,,192,0,1,,,,,0,,,83,0
23040,note_on,,,,,0,0,6,,,,,5,,,69,75
23040,note_off,,,,,192,0,6,,,,,5,,,64,0
23040,note_off,,,,,384,0,8,,,,,7,,,52,0
23040,note_off,,,,,192,0,7,,,,,6,,,52,0
23040,note_on,,,,,0,0,7,,,,,6,,,57,75
23040,note_off,,,,,384,0,4,,,,,3,,,68,0
23040,note_off,,,,,384,0,3,,,,,2,,,71,0
23040,note_off,,,,,384,0,5,,,,,4,,,64,0
23232,note_on,,,,,0,0,7,,,,,6,,,56,75
23232,note_on,,,,,0,0,6,,,,,5,,,68,75
23232,note_on,,,,,0,0,1,,,,,0,,,86,75
23232,note_off,,,,,192,0,2,,,,,1,,,81,0
23232,note_on,,,,,0,0,2,,,,,1,,,83,75
23232,note_off,,,,,192,0,6,,,,,5,,,69,0
23232,note_off,,,,,192,0,1,,,,,0,,,85,0
23232,note_off,,,,,192,0,7,,,,,6,,,57,0
23424,note_off,,,,,192,0,1,,,,,0,,,86,0
23424,note_on,,,,,0,0,1,,,,,0,,,86,75
23424,note_off,,,,,192,0,2,,,,,1,,,83,0
23424,note_off,,,,,192,0,6,,,,,5,,,68,0
23424,note_on,,,,,0,0,2,,,,,1,,,81,75
23424,note_on,,,,,0,0,7,,,,,6,,,57,75
23424,note_off,,,,,192,0,7,,,,,6,,,56,0
23424,note_on,,,,,0,0,6,,,,,5,,,69,75
23472,note_on,,,,,0,0,1,,,,,0,,,85,75
23472,note_off,,,,,48,0,1,,,,,0,,,86,0
23520,note_on,,,,,0,0,1,,,,,0,,,86,75
23520,note_off,,,,,48,0,1,,,,,0,,,85,0
23568,note_on,,,,,0,0,1,,,,,0,,,85,75
23568,note_off,,,,,48,0,1,,,,,0,,,86,0
23616,note_off,,,,,48,0,1,,,,,0,,,85,0
23616,note_on,,,,,0,0,1,,,,,0,,,86,75
23616,note_off,,,,,192,0,6,,,,,5,,,69,0
23616,note_off,,,,,192,0,7,,,,,6,,,57,0
23616,note_on,,,,,0,0,7,,,,,6,,,45,75
23616,note_on,,,,,0,0,6,,,,,5,,,57,75
23664,note_on,,,,,0,0,1,,,,,0,,,85,75
23664,note_off,,,,,48,0,1,,,,,0,,,86,0
23808,note_on,,,,,0,0,1,,,,,0,,,83,75
23808,note_on,,,,,0,0,2,,,,,1,,,80,75
23808,note_off,,,,,384,0,2,,,,,1,,,81,0
23808,note_off,,,,,144,0,1,,,,,0,,,85,0
23808,note_off,,,,,192,0,7,,,,,6,,,45,0
23808,note_on,,,,,0,0,7,,,,,6,,,52,75
23808,note_off,,,,,192,0,6,,,,,5,,,57,0
23808,note_on,,,,,0,0,6,,,,,5,,,64,75
24000,note_off,,,,,192,0,7,,,,,6,,,52,0
24000,note_off,,,,,192,0,6,,,,,5,,,64,0
24000,note_on,,,,,0,0,6,,,,,5,,,56,75
24000,note_on,,,,,0,0,7,,,,,6,,,44,75
24192,note_on,,,,,0,0,7,,,,,6,,,45,75
24192,note_off,,,,,384,0,2,,,,,1,,,80,0
24192,note_off,,,,,192,0,7,,,,,6,,,44,0
24192,note_off,,,,,384,0,1,,,,,0,,,83,0
24192,note_off,,,,,192,0,6,,,,,5,,,56,0
24192,note_on,,,,,0,0,6,,,,,5,,,57,75
24384,note_off,,,,,192,0,7,,,,,6,,,45,0
24384,note_on,,,,,0,0,7,,,,,6,,,47,75
24384,note_off,,,,,192,0,6,,,,,5,,,57,0
24384,note_on,,,,,0,0,6,,,,,5,,,59,75
24576,note_off,,,,,192,0,7,,,,,6,,,47,0
24576,note_on,,,,,1536,0,4,,,,,3,,,68,88
24576,note_on,,,,,1536,0,8,,,,,7,,,52,60
24576,note_on,,,,,0,0,6,,,,,5,,,52,75
24576,note_on,,,,,1536,0,5,,,,,4,,,64,75
24576,note_on,,,,,384,0,2,,,,,1,,,68,75
24576,note_off,,,,,192,0,6,,,,,5,,,59,0
24576,note_on,,,,,384,0,1,,,,,0,,,71,75
24576,note_on,,,,,0,0,7,,,,,6,,,40,75
24576,note_on,,,,,1536,0,3,,,,,2,,,71,94
24960,note_on,,,,,0,0,2,,,,,1,,,71,75
24960,note_off,,,,,384,0,2,,,,,1,,,68,0
24960,note_off,,,,,384,0,3,,,,,2,,,71,0
24960,note_off,,,,,384,0,1,,,,,0,,,71,0
24960,note_on,,,,,0,0,1,,,,,0,,,76,75
24960,note_on,,,,,0,0,8,,,,,7,,,56,60
24960,note_off,,,,,384,0,8,,,,,7,,,52,0
24960,note_off,,,,,384,0,7,,,,,6,,,40,0
24960,note_on,,,,,0,0,3,,,,,2,,,76,94
24960,note_on,,,,,0,0,5,,,,,4,,,59,75
24960,note_on,,,,,0,0,7,,,,,6,,,44,75
24960,note_off,,,,,384,0,4,,,,,3,,,68,0
24960,note_on,,,,,0,0,4,,,,,3,,,71,88
24960,note_on,,,,,0,0,6,,,,,5,,,56,75
24960,note_off,,,,,384,0,6,,,,,5,,,52,0
24960,note_off,,,,,384,0,5,,,,,4,,,64,0
25152,note_on,,,,,0,0,3,,,,,2,,,71,94
25152,note_on,,,,,0,0,6,,,,,5,,,52,75
25152,note_off,,,,,192,0,8,,,,,7,,,56,0
25152,note_off,,,,,192,0,6,,,,,5,,,56,0
25152,note_on,,,,,0,0,8,,,,,7,,,52,60
25152,note_off,,,,,192,0,1,,,,,0,,,76,0
25152,note_off,,,,,192,0,4,,,,,3,,,71,0
25152,note_off,,,,,192,0,3,,,,,2,,,76,0
25152,note_on,,,,,0,0,7,,,,,6,,,40,75
25152,note_off,,,,,192,0,7,,,,,6,,,44,0
25152,note_on,,,,,0,0,5,,,,,4,,,64,75
25152,note_off,,,,,192,0,5,,,,,4,,,59,0
25152,note_on,,,,,0,0,2,,,,,1,,,68,75
25152,note_off,,,,,192,0,2,,,,,1,,,71,0
25152,note_on,,,,,0,0,1,,,,,0,,,71,75
25152,note_on,,,,,0,0,4,,,,,3,,,68,88
25344,note_off,,,,,192,0,1,,,,,0,,,71,0
25344,note_on,,,,,0,0,1,,,,,0,,,73,75
25344,note_on,,,,,0,0,7,,,,,6,,,45,75
25344,note_off,,,,,192,0,8,,,,,7,,,52,0
25344,note_on,,,,,0,0,8,,,,,7,,,57,60
25344,note_off,,,,,192,0,7,,,,,6,,,40,0
25344,note_on,,,,,0,0,4,,,,,3,,,64,88
25344,note_off,,,,,192,0,4,,,,,3,,,68,0
25344,note_off,,,,,192,0,3,,,,,2,,,71,0
25344,note_on,,,,,0,0,3,,,,,2,,,73,94
25344,note_on,,,,,0,0,5,,,,,4,,,61,75
25344,note_on,,,,,0,0,6,,,,,5,,,57,75
25344,note_off,,,,,192,0,5,,,,,4,,,64,0
25344,note_off,,,,,192,0,6,,,,,5,,,52,0
25344,note_off,,,,,192,0,2,,,,,1,,,68,0
25344,note_on,,,,,0,0,2,,,,,1,,,64,75
25536,note_on,,,,,0,0,1,,,,,0,,,76,75
25536,note_off,,,,,192,0,3,,,,,2,,,73,0
25536,note_off,,,,,192,0,1,,,,,0,,,73,0
25536,note_on,,,,,0,0,3,,,,,2,,,76,94
25728,note_on,,,,,0,0,2,,,,,1,,,61,75
25728,note_on,,,,,0,0,3,,,,,2,,,69,94
25728,note_off,,,,,192,0,1,,,,,0,,,76,0
25728,note_on,,,,,0,0,1,,,,,0,,,69,75
25728,note_off,,,,,384,0,2,,,,,1,,,64,0
25728,note_off,,,,,384,0,5,,,,,4,,,61,0
25728,note_on,,,,,0,0,7,,,,,6,,,49,75
25728,note_off,,,,,384,0,7,,,,,6,,,45,0
25728,note_on,,,,,0,0,8,,,,,7,,,61,60
25728,note_off,,,,,384,0,8,,,,,7,,,57,0
25728,note_off,,,,,192,0,3,,,,,2,,,76,0
25728,note_on,,,,,0,0,4,,,,,3,,,61,88
25728,note_on,,,,,0,0,6,,,,,5,,,61,75
25728,note_off,,,,,384,0,6,,,,,5,,,57,0
25728,note_off,,,,,384,0,4,,,,,3,,,64,0
25728,note_on,,,,,0,0,5,,,,,4,,,64,75
26112,note_on,,,,,0,0,4,,,,,3,,,69,88
26112,note_off,,,,,384,0,4,,,,,3,,,61,0
26112,note_on,,,,,0,0,2,,,,,1,,,69,75
26112,note_off,,,,,384,0,5,,,,,4,,,64,0
26112,note_on,,,,,0,0,5,,,,,4,,,64,75
26112,note_on,,,,,0,0,1,,,,,0,,,76,75
26112,note_off,,,,,384,0,6,,,,,5,,,61,0
26112,note_on,,,,,0,0,6,,,,,5,,,49,75
26112,note_off,,,,,384,0,8,,,,,7,,,61,0
26112,note_off,,,,,384,0,7,,,,,6,,,49,0
26112,note_on,,,,,0,0,8,,,,,7,,,49,60
26112,note_on,,,,,0,0,7,,,,,6,,,37,75
26112,note_off,,,,,384,0,3,,,,,2,,,69,0
26112,note_on,,,,,0,0,3,,,,,2,,,76,94
26112,note_off,,,,,384,0,2,,,,,1,,,61,0
26112,note_off,,,,,384,0,1,,,,,0,,,69,0
26304,note_on,,,,,0,0,8,,,,,7,,,52,60
26304,note_on,,,,,0,0,7,,,,,6,,,40,75
26304,note_on,,,,,0,0,6,,,,,5,,,52,75
26304,note_off,,,,,192,0,6,,,,,5,,,49,0
26304,note_off,,,,,192,0,7,,,,,6,,,37,0
26304,note_off,,,,,192,0,8,,,,,7,,,49,0
26496,note_on,,,,,0,0,8,,,,,7,,,45,60
26496,note_off,,,,,192,0,8,,,,,7,,,52,0
26496,note_on,,,,,0,0,5,,,,,4,,,61,75
26496,note_off,,,,,384,0,5,,,,,4,,,64,0
26496,note_off,,,,,384,0,1,,,,,0,,,76,0
26496,note_off,,,,,384,0,3,,,,,2,,,76,0
26496,note_on,,,,,0,0,4,,,,,3,,,64,88
26496,note_off,,,,,192,0,7,,,,,6,,,40,0
26496,note_on,,,,,0,0,2,,,,,1,,,64,75
26496,note_off,,,,,384,0,2,,,,,1,,,69,0
26496,note_off,,,,,384,0,4,,,,,3,,,69,0
26496,note_on,,,,,0,0,1,,,,,0,,,67,75
26496,note_on,,,,,0,0,6,,,,,5,,,45,75
26496,note_off,,,,,192,0,6,,,,,5,,,52,0
26496,note_on,,,,,0,0,3,,,,,2,,,67,94
26496,note_on,,,,,0,0,7,,,,,6,,,33,75
26592,note_off,,,,,96,0,3,,,,,2,,,67,0
26592,note_on,,,,,0,0,3,,,,,2,,,66,94
26592,note_on,,,,,0,0,1,,,,,0,,,66,75
26592,note_off,,,,,96,0,1,,,,,0,,,67,0
26688,note_on,,,,,0,0,1,,,,,0,,,67,75
26688,note_off,,,,,192,0,4,,,,,3,,,64,0
26688,note_on,,,,,0,0,3,,,,,2,,,67,94
26688,note_off,,,,,96,0,3,,,,,2,,,66,0
26688,note_off,,,,,96,0,1,,,,,0,,,66,0
26688,note_off,,,,,192,0,5,,,,,4,,,61,0
26688,note_on,,,,,0,0,2,,,,,1,,,61,75
26688,note_off,,,,,192,0,2,,,,,1,,,64,0
26688,note_on,,,,,0,0,5,,,,,4,,,64,75
26688,note_on,,,,,0,0,4,,,,,3,,,61,88
26784,note_off,,,,,96,0,1,,,,,0,,,67,0
26784,note_on,,,,,0,0,3,,,,,2,,,64,94
26784,note_on,,,,,0,0,1,,,,,0,,,64,75
26784,note_off,,,,,96,0,3,,,,,2,,,67,0
26880,note_off,,,,,192,0,5,,,,,4,,,64,0
26880,note_off,,,,,96,0,1,,,,,0,,,64,0
26880,note_on,,,,,0,0,5,,,,,4,,,62,75
26880,note_on,,,,,0,0,7,,,,,6,,,38,75
26880,note_on,,,,,0,0,1,,,,,0,,,66,75
26880,note_off,,,,,384,0,6,,,,,5,,,45,0
26880,note_on,,,,,0,0,2,,,,,1,,,57,75
26880,note_off,,,,,192,0,2,,,,,1,,,61,0
26880,note_on,,,,,0,0,6,,,,,5,,,50,75
26880,note_off,,,,,96,0,3,,,,,2,,,64,0
26880,note_on,,,,,0,0,3,,,,,2,,,66,94
26880,note_on,,,,,0,0,8,,,,,7,,,50,60
26880,note_off,,,,,384,0,8,,,,,7,,,45,0
26880,note_on,,,,,0,0,4,,,,,3,,,57,88
26880,note_off,,,,,192,0,4,,,,,3,,,61,0
26880,note_off,,,,,384,0,7,,,,,6,,,33,0
27072,note_on,,,,,0,0,1,,,,,0,,,69,75
27072,note_off,,,,,192,0,3,,,,,2,,,66,0
27072,note_off,,,,,192,0,1,,,,,0,,,66,0
27072,note_on,,,,,0,0,3,,,,,2,,,69,94
27264,note_off,,,,,384,0,5,,,,,4,,,62,0
27264,note_on,,,,,0,0,7,,,,,6,,,42,75
27264,note_off,,,,,384,0,7,,,,,6,,,38,0
27264,note_on,,,,,0,0,6,,,,,5,,,54,75
27264,note_on,,,,,0,0,2,,,,,1,,,69,75
27264,note_off,,,,,384,0,2,,,,,1,,,57,0
27264,note_off,,,,,384,0,6,,,,,5,,,50,0
27264,note_on,,,,,0,0,1,,,,,0,,,74,75
27264,note_off,,,,,192,0,1,,,,,0,,,69,0
27264,note_off,,,,,192,0,3,,,,,2,,,69,0
27264,note_on,,,,,0,0,3,,,,,2,,,74,94
27264,note_on,,,,,0,0,4,,,,,3,,,69,88
27264,note_off,,,,,384,0,4,,,,,3,,,57,0
27264,note_off,,,,,384,0,8,,,,,7,,,50,0
27264,note_on,,,,,0,0,8,,,,,7,,,54,60
27264,note_on,,,,,0,0,5,,,,,4,,,62,75
27456,note_off,,,,,192,0,7,,,,,6,,,42,0
27456,note_on,,,,,0,0,7,,,,,6,,,45,75
27456,note_on,,,,,0,0,8,,,,,7,,,57,60
27456,note_off,,,,,192,0,6,,,,,5,,,54,0
27456,note_on,,,,,0,0,6,,,,,5,,,57,75
27456,note_off,,,,,192,0,8,,,,,7,,,54,0
27648,note_off,,,,,192,0,8,,,,,7,,,57,0
27648,note_on,,,,,0,0,8,,,,,7,,,51,60
27648,note_on,,,,,0,0,4,,,,,3,,,59,88
27648,note_off,,,,,384,0,5,,,,,4,,,62,0
27648,note_on,,,,,0,0,6,,,,,5,,,51,75
27648,note_off,,,,,192,0,6,,,,,5,,,57,0
27648,note_off,,,,,384,0,1,,,,,0,,,74,0
27648,note_on,,,,,0,0,1,,,,,0,,,78,75
27648,note_off,,,,,192,0,7,,,,,6,,,45,0
27648,note_on,,,,,0,0,7,,,,,6,,,39,75
27648,note_on,,,,,0,0,5,,,,,4,,,66,75
27648,note_off,,,,,384,0,4,,,,,3,,,69,0
27648,note_on,,,,,0,0,3,,,,,2,,,78,94
27648,note_off,,,,,384,0,3,,,,,2,,,74,0
27648,note_on,,,,,0,0,2,,,,,1,,,59,75
27648,note_off,,,,,384,0,2,,,,,1,,,69,0
27840,note_off,,,,,192,0,6,,,,,5,,,51,0
27840,note_on,,,,,0,0,7,,,,,6,,,42,75
27840,note_off,,,,,192,0,7,,,,,6,,,39,0
27840,note_off,,,,,192,0,8,,,,,7,,,51,0
27840,note_on,,,,,0,0,8,,,,,7,,,54,60
27840,note_on,,,,,0,0,6,,,,,5,,,54,75
28032,note_off,,,,,384,0,5,,,,,4,,,66,0
28032,note_off,,,,,384,0,2,,,,,1,,,59,0
28032,note_off,,,,,192,0,8,,,,,7,,,54,0
28032,note_on,,,,,0,0,8,,,,,7,,,47,60
28032,note_on,,,,,0,0,5,,,,,4,,,63,75
28032,note_off,,,,,192,0,6,,,,,5,,,54,0
28032,note_on,,,,,0,0,6,,,,,5,,,47,75
28032,note_off,,,,,384,0,4,,,,,3,,,59,0
28032,note_on,,,,,0,0,2,,,,,1,,,66,75
28032,note_on,,,,,0,0,7,,,,,6,,,35,75
28032,note_on,,,,,0,0,4,,,,,3,,,66,88
28032,note_off,,,,,192,0,7,,,,,6,,,42,0
28032,note_on,,,,,0,0,1,,,,,0,,,69,75
28032,note_off,,,,,384,0,1,,,,,0,,,78,0
28032,note_off,,,,,384,0,3,,,,,2,,,78,0
28032,note_on,,,,,0,0,3,,,,,2,,,69,94
28128,note_on,,,,,0,0,3,,,,,2,,,68,94
28128,note_on,,,,,0,0,1,,,,,0,,,68,75
28128,note_off,,,,,96,0,1,,,,,0,,,69,0
28128,note_off,,,,,96,0,3,,,,,2,,,69,0
28224,note_off,,,,,96,0,1,,,,,0,,,68,0
28224,note_on,,,,,0,0,1,,,,,0,,,69,75
28224,note_on,,,,,0,0,2,,,,,1,,,63,75
28224,note_on,,,,,0,0,4,,,,,3,,,63,88
28224,note_off,,,,,192,0,5,,,,,4,,,63,0
28224,note_on,,,,,0,0,5,,,,,4,,,66,75
28224,note_on,,,,,0,0,3,,,,,2,,,69,94
28224,note_off,,,,,192,0,2,,,,,1,,,66,0
28224,note_off,,,,,192,0,4,,,,,3,,,66,0
28224,note_off,,,,,96,0,3,,,,,2,,,68,0
28320,note_off,,,,,96,0,3,,,,,2,,,69,0
28320,note_on,,,,,0,0,3,,,,,2,,,66,94
28320,note_on,,,,,0,0,1,,,,,0,,,66,75
28320,note_off,,,,,96,0,1,,,,,0,,,69,0
28416,note_on,,,,,0,0,8,,,,,7,,,52,60
28416,note_on,,,,,0,0,1,,,,,0,,,68,75
28416,note_on,,,,,0,0,4,,,,,3,,,59,88
28416,note_off,,,,,192,0,4,,,,,3,,,63,0
28416,note_off,,,,,96,0,1,,,,,0,,,66,0
28416,note_off,,,,,384,0,8,,,,,7,,,47,0
28416,note_off,,,,,384,0,7,,,,,6,,,35,0
28416,note_on,,,,,0,0,2,,,,,1,,,59,75
28416,note_on,,,,,0,0,7,,,,,6,,,40,75
28416,note_off,,,,,384,0,6,,,,,5,,,47,0
28416,note_off,,,,,192,0,5,,,,,4,,,66,0
28416,note_on,,,,,0,0,6,,,,,5,,,52,75
28416,note_off,,,,,96,0,3,,,,,2,,,66,0
28416,note_on,,,,,0,0,3,,,,,2,,,68,94
28416,note_off,,,,,192,0,2,,,,,1,,,63,0
28416,note_on,,,,,0,0,5,,,,,4,,,64,75
28608,note_on,,,,,0,0,1,,,,,0,,,71,75
28608,note_off,,,,,192,0,1,,,,,0,,,68,0
28800,note_off,,,,,384,0,6,,,,,5,,,52,0
28800,note_on,,,,,0,0,1,,,,,0,,,64,75
28800,note_off,,,,,192,0,1,,,,,0,,,71,0
28800,note_off,,,,,384,0,2,,,,,1,,,59,0
28800,note_off,,,,,384,0,3,,,,,2,,,68,0
28800,note_off,,,,,384,0,8,,,,,7,,,52,0
28800,note_off,,,,,384,0,7,,,,,6,,,40,0
28800,note_off,,,,,384,0,4,,,,,3,,,59,0
28800,note_off,,,,,384,0,5,,,,,4,,,64,0
28992,note_off,,,,,192,0,1,,,,,0,,,64,0
28992,note_on,,,,,0,0,1,,,,,0,,,74,75
29184,note_off,,,,,192,0,1,,,,,0,,,74,0
29184,note_on,,,,,0,0,1,,,,,0,,,73,75
29280,note_on,,,,,0,0,1,,,,,0,,,71,75
29280,note_off,,,,,96,0,1,,,,,0,,,73,0
29376,note_on,,,,,0,0,1,,,,,0,,,69,75
29376,note_off,,,,,96,0,1,,,,,0,,,71,0
29568,note_on,,,,,0,0,1,,,,,0,,,71,75
29568,note_off,,,,,192,0,1,,,,,0,,,69,0
29616,note_off,,,,,48,0,1,,,,,0,,,71,0
29616,note_on,,,,,0,0,1,,,,,0,,,69,75
29664,note_off,,,,,48,0,1,,,,,0,,,69,0
29664,note_on,,,,,0,0,1,,,,,0,,,71,75
29712,note_off,,,,,48,0,1,,,,,0,,,71,0
29712,note_on,,,,,0,0,1,,,,,0,,,69,75
29760,note_on,,,,,960,0,7,,,,,6,,,50,75
29760,note_off,,,,,48,0,1,,,,,0,,,69,0
29760,note_on,,,,,960,0,6,,,,,5,,,62,75
29760,note_on,,,,,0,0,1,,,,,0,,,71,75
29760,note_on,,,,,960,0,2,,,,,1,,,66,75
29808,note_off,,,,,48,0,1,,,,,0,,,71,0
29808,note_on,,,,,0,0,1,,,,,0,,,69,75
29952,note_on,,,,,0,0,6,,,,,5,,,61,75
29952,note_on,,,,,0,0,7,,,,,6,,,49,75
29952,note_off,,,,,192,0,7,,,,,6,,,50,0
29952,note_on,,,,,0,0,1,,,,,0,,,71,75
29952,note_off,,,,,192,0,6,,,,,5,,,62,0
29952,note_on,,,,,0,0,2,,,,,1,,,64,75
29952,note_off,,,,,144,0,1,,,,,0,,,69,0
29952,note_off,,,,,192,0,2,,,,,1,,,66,0
30000,note_off,,,,,48,0,1,,,,,0,,,71,0
30000,note_on,,,,,0,0,1,,,,,0,,,69,75
30048,note_off,,,,,96,0,2,,,,,1,,,64,0
30048,note_on,,,,,0,0,2,,,,,1,,,62,75
30048,note_off,,,,,96,0,7,,,,,6,,,49,0
30048,note_on,,,,,0,0,7,,,,,6,,,47,75
30048,note_on,,,,,0,0,1,,,,,0,,,71,75
30048,note_on,,,,,0,0,6,,,,,5,,,59,75
30048,note_off,,,,,96,0,6,,,,,5,,,61,0
30048,note_off,,,,,48,0,1,,,,,0,,,69,0
30096,note_on,,,,,0,0,1,,,,,0,,,69,75
30096,note_off,,,,,48,0,1,,,,,0,,,71,0
30144,note_on,,,,,0,0,7,,,,,6,,,45,75
30144,note_on,,,,,0,0,6,,,,,5,,,57,75
30144,note_off,,,,,96,0,6,,,,,5,,,59,0
30144,note_on,,,,,0,0,1,,,,,0,,,71,75
30144,note_off,,,,,48,0,1,,,,,0,,,69,0
30144,note_off,,,,,96,0,7,,,,,6,,,47,0
30144,note_off,,,,,96,0,2,,,,,1,,,62,0
30144,note_on,,,,,0,0,2,,,,,1,,,61,75
30192,note_on,,,,,0,0,1,,,,,0,,,69,75
30192,note_off,,,,,48,0,1,,,,,0,,,71,0
30336,note_off,,,,,192,0,6,,,,,5,,,57,0
30336,note_on,,,,,0,0,2,,,,,1,,,69,75
30336,note_off,,,,,144,0,1,,,,,0,,,69,0
30336,note_on,,,,,0,0,7,,,,,6,,,47,75
30336,note_off,,,,,192,0,7,,,,,6,,,45,0
30336,note_off,,,,,192,0,2,,,,,1,,,61,0
30336,note_on,,,,,0,0,6,,,,,5,,,59,75
30384,note_on,,,,,0,0,6,,,,,5,,,57,75
30384,note_on,,,,,0,0,7,,,,,6,,,45,75
30384,note_off,,,,,48,0,7,,,,,6,,,47,0
30384,note_off,,,,,48,0,6,,,,,5,,,59,0
30432,note_off,,,,,48,0,6,,,,,5,,,57,0
30432,note_on,,,,,0,0,6,,,,,5,,,59,75
30432,note_on,,,,,0,0,7,,,,,6,,,47,75
30432,note_off,,,,,48,0,7,,,,,6,,,45,0
30480,note_off,,,,,48,0,6,,,,,5,,,59,0
30480,note_on,,,,,0,0,6,,,,,5,,,57,75
30480,note_on,,,,,0,0,7,,,,,6,,,45,75
30480,note_off,,,,,48,0,7,,,,,6,,,47,0
30528,note_off,,,,,48,0,6,,,,,5,,,57,0
30528,note_on,,,,,0,0,6,,,,,5,,,59,75
30528,note_on,,,,,1728,0,3,,,,,2,,,74,94
30528,note_on,,,,,1728,0,4,,,,,3,,,74,88
30528,note_off,,,,,48,0,7,,,,,6,,,45,0
30528,note_on,,,,,0,0,7,,,,,6,,,47,75
30576,note_off,,,,,48,0,7,,,,,6,,,47,0
30576,note_off,,,,,48,0,6,,,,,5,,,59,0
30576,note_on,,,,,0,0,6,,,,,5,,,57,75
30576,note_on,,,,,0,0,7,,,,,6,,,45,75
30720,note_off,,,,,384,0,2,,,,,1,,,69,0
30720,note_on,,,,,0,0,6,,,,,5,,,59,75
30720,note_off,,,,,144,0,6,,,,,5,,,57,0
30720,note_on,,,,,0,0,3,,,,,2,,,73,94
30720,note_off,,,,,192,0,3,,,,,2,,,74,0
30720,note_on,,,,,0,0,4,,,,,3,,,73,88
30720,note_off,,,,,192,0,4,,,,,3,,,74,0
30720,note_off,,,,,144,0,7,,,,,6,,,45,0
30720,note_on,,,,,0,0,7,,,,,6,,,47,75
30768,note_on,,,,,0,0,6,,,,,5,,,57,75
30768,note_off,,,,,48,0,6,,,,,5,,,59,0
30768,note_off,,,,,48,0,7,,,,,6,,,47,0
30768,note_on,,,,,0,0,7,,,,,6,,,45,75
30816,note_off,,,,,96,0,4,,,,,3,,,73,0
30816,note_on,,,,,0,0,7,,,,,6,,,47,75
30816,note_off,,,,,48,0,6,,,,,5,,,57,0
30816,note_on,,,,,0,0,6,,,,,5,,,59,75
30816,note_on,,,,,0,0,4,,,,,3,,,71,88
30816,note_off,,,,,96,0,3,,,,,2,,,73,0
30816,note_off,,,,,48,0,7,,,,,6,,,45,0
30816,note_on,,,,,0,0,3,,,,,2,,,71,94
30864,note_on,,,,,0,0,7,,,,,6,,,45,75
30864,note_off,,,,,48,0,7,,,,,6,,,47,0
30864,note_off,,,,,48,0,6,,,,,5,,,59,0
30864,note_on,,,,,0,0,6,,,,,5,,,57,75
30912,note_off,,,,,96,0,4,,,,,3,,,71,0
30912,note_on,,,,,0,0,4,,,,,3,,,69,88
30912,note_on,,,,,0,0,3,,,,,2,,,69,94
30912,note_off,,,,,48,0,6,,,,,5,,,57,0
30912,note_on,,,,,0,0,7,,,,,6,,,47,75
30912,note_off,,,,,48,0,7,,,,,6,,,45,0
30912,note_off,,,,,96,0,3,,,,,2,,,71,0
30912,note_on,,,,,0,0,6,,,,,5,,,59,75
30960,note_off,,,,,48,0,7,,,,,6,,,47,0
30960,note_on,,,,,0,0,6,,,,,5,,,57,75
30960,note_off,,,,,48,0,6,,,,,5,,,59,0
30960,note_on,,,,,0,0,7,,,,,6,,,45,75
31104,note_off,,,,,192,0,3,,,,,2,,,69,0
31104,note_on,,,,,0,0,3,,,,,2,,,71,94
31104,note_off,,,,,144,0,6,,,,,5,,,57,0
31104,note_on,,,,,0,0,4,,,,,3,,,71,88
31104,note_off,,,,,192,0,4,,,,,3,,,69,0
31104,note_off,,,,,144,0,7,,,,,6,,,45,0
31152,note_on,,,,,0,0,4,,,,,3,,,69,88
31152,note_off,,,,,48,0,4,,,,,3,,,71,0
31152,note_on,,,,,0,0,3,,,,,2,,,69,94
31152,note_off,,,,,48,0,3,,,,,2,,,71,0
31200,note_on,,,,,0,0,3,,,,,2,,,71,94
31200,note_off,,,,,48,0,4,,,,,3,,,69,0
31200,note_on,,,,,0,0,4,,,,,3,,,71,88
31200,note_off,,,,,48,0,3,,,,,2,,,69,0
31248,note_on,,,,,0,0,4,,,,,3,,,69,88
31248,note_off,,,,,48,0,3,,,,,2,,,71,0
31248,note_on,,,,,0,0,3,,,,,2,,,69,94
31248,note_off,,,,,48,0,4,,,,,3,,,71,0
31296,note_on,,,,,2496,0,5,,,,,4,,,66,75
31296,note_off,,,,,48,0,4,,,,,3,,,69,0
31296,note_on,,,,,192,0,7,,,,,6,,,50,75
31296,note_on,,,,,192,0,6,,,,,5,,,62,75
31296,note_on,,,,,0,0,4,,,,,3,,,71,88
31296,note_off,,,,,48,0,3,,,,,2,,,69,0
31296,note_on,,,,,2496,0,8,,,,,7,,,62,60
31296,note_on,,,,,0,0,3,,,,,2,,,71,94
31344,note_off,,,,,48,0,3,,,,,2,,,71,0
31344,note_on,,,,,0,0,4,,,,,3,,,69,88
31344,note_on,,,,,0,0,3,,,,,2,,,69,94
31344,note_off,,,,,48,0,4,,,,,3,,,71,0
31488,note_off,,,,,144,0,4,,,,,3,,,69,0
31488,note_off,,,,,192,0,7,,,,,6,,,50,0
31488,note_on,,,,,0,0,7,,,,,6,,,49,75
31488,note_off,,,,,192,0,8,,,,,7,,,62,0
31488,note_on,,,,,0,0,8,,,,,7,,,61,60
31488,note_on,,,,,0,0,4,,,,,3,,,71,88
31488,note_on,,,,,0,0,3,,,,,2,,,71,94
31488,note_on,,,,,0,0,6,,,,,5,,,61,75
31488,note_off,,,,,192,0,6,,,,,5,,,62,0
31488,note_off,,,,,144,0,3,,,,,2,,,69,0
31488,note_on,,,,,0,0,5,,,,,4,,,64,75
31488,note_off,,,,,192,0,5,,,,,4,,,66,0
31536,note_on,,,,,0,0,3,,,,,2,,,69,94
31536,note_off,,,,,48,0,4,,,,,3,,,71,0
31536,note_on,,,,,0,0,4,,,,,3,,,69,88
31536,note_off,,,,,48,0,3,,,,,2,,,71,0
31584,note_off,,,,,96,0,5,,,,,4,,,64,0
31584,note_on,,,,,0,0,3,,,,,2,,,71,94
31584,note_off,,,,,48,0,3,,,,,2,,,69,0
31584,note_on,,,,,0,0,7,,,,,6,,,47,75
31584,note_on,,,,,0,0,4,,,,,3,,,71,88
31584,note_off,,,,,96,0,6,,,,,5,,,61,0
31584,note_on,,,,,0,0,5,,,,,4,,,62,75
31584,note_on,,,,,0,0,6,,,,,5,,,59,75
31584,note_off,,,,,96,0,7,,,,,6,,,49,0
31584,note_on,,,,,0,0,8,,,,,7,,,59,60
31584,note_off,,,,,96,0,8,,,,,7,,,61,0
31584,note_off,,,,,48,0,4,,,,,3,,,69,0
31632,note_off,,,,,48,0,3,,,,,2,,,71,0
31632,note_on,,,,,0,0,3,,,,,2,,,69,94
31632,note_on,,,,,0,0,4,,,,,3,,,69,88
31632,note_off,,,,,48,0,4,,,,,3,,,71,0
31680,note_on,,,,,0,0,6,,,,,5,,,57,75
31680,note_on,,,,,0,0,5,,,,,4,,,61,75
31680,note_off,,,,,96,0,7,,,,,6,,,47,0
31680,note_on,,,,,0,0,3,,,,,2,,,71,94
31680,note_off,,,,,48,0,3,,,,,2,,,69,0
31680,note_on,,,,,0,0,4,,,,,3,,,71,88
31680,note_off,,,,,96,0,8,,,,,7,,,59,0
31680,note_on,,,,,0,0,8,,,,,7,,,57,60
31680,note_off,,,,,96,0,6,,,,,5,,,59,0
31680,note_on,,,,,0,0,7,,,,,6,,,45,75
31680,note_off,,,,,96,0,5,,,,,4,,,62,0
31680,note_off,,,,,48,0,4,,,,,3,,,69,0
31728,note_off,,,,,48,0,3,,,,,2,,,71,0
31728,note_on,,,,,0,0,4,,,,,3,,,69,88
31728,note_off,,,,,48,0,4,,,,,3,,,71,0
31728,note_on,,,,,0,0,3,,,,,2,,,69,94
31872,note_off,,,,,192,0,7,,,,,6,,,45,0
31872,note_on,,,,,0,0,7,,,,,6,,,45,75
31872,note_on,,,,,0,0,6,,,,,5,,,57,75
31872,note_off,,,,,192,0,8,,,,,7,,,57,0
31872,note_off,,,,,192,0,6,,,,,5,,,57,0
31872,note_off,,,,,144,0,4,,,,,3,,,69,0
31872,note_on,,,,,0,0,8,,,,,7,,,57,60
31872,note_off,,,,,144,0,3,,,,,2,,,69,0
31872,note_off,,,,,192,0,5,,,,,4,,,61,0
31872,note_on,,,,,0,0,5,,,,,4,,,69,75
32064,note_on,,,,,1728,0,1,,,,,0,,,86,75
32256,note_on,,,,,0,0,1,,,,,0,,,85,75
32256,note_on,,,,,0,0,6,,,,,5,,,57,75
32256,note_on,,,,,0,0,5,,,,,4,,,57,75
32256,note_off,,,,,384,0,6,,,,,5,,,57,0
32256,note_off,,,,,384,0,8,,,,,7,,,57,0
32256,note_on,,,,,0,0,8,,,,,7,,,57,60
32256,note_off,,,,,384,0,7,,,,,6,,,45,0
32256,note_on,,,,,0,0,7,,,,,6,,,45,75
32256,note_off,,,,,192,0,1,,,,,0,,,86,0
32256,note_off,,,,,384,0,5,,,,,4,,,69,0
32352,note_off,,,,,96,0,1,,,,,0,,,85,0
32352,note_on,,,,,0,0,1,,,,,0,,,83,75
32448,note_off,,,,,96,0,1,,,,,0,,,83,0
32448,note_on,,,,,0,0,1,,,,,0,,,81,75
32640,note_off,,,,,384,0,5,,,,,4,,,57,0
32640,note_off,,,,,192,0,1,,,,,0,,,81,0
32640,note_off,,,,,384,0,7,,,,,6,,,45,0
32640,note_off,,,,,384,0,6,,,,,5,,,57,0
32640,note_on,,,,,768,0,3,,,,,2,,,69,94
32640,note_off,,,,,384,0,8,,,,,7,,,57,0
32640,note_on,,,,,768,0,4,,,,,3,,,69,88
32832,note_on,,,,,2112,0,2,,,,,1,,,86,75
33024,note_off,,,,,192,0,2,,,,,1,,,86,0
33024,note_off,,,,,384,0,3,,,,,2,,,69,0
33024,note_on,,,,,0,0,2,,,,,1,,,85,75
33024,note_off,,,,,384,0,4,,,,,3,,,69,0
33120,note_off,,,,,96,0,2,,,,,1,,,85,0
33120,note_on,,,,,0,0,2,,,,,1,,,83,75
33216,note_on,,,,,0,0,2,,,,,1,,,81,75
33216,note_off,,,,,96,0,2,,,,,1,,,83,0
33408,note_on,,,,,384,0,4,,,,,3,,,69,88
33408,note_off,,,,,192,0,2,,,,,1,,,81,0
33408,note_on,,,,,384,0,3,,,,,2,,,69,94
33600,note_on,,,,,960,0,1,,,,,0,,,83,75
33696,note_off,,,,,96,0,1,,,,,0,,,83,0
33696,note_on,,,,,0,0,1,,,,,0,,,85,75
33744,note_on,,,,,0,0,1,,,,,0,,,86,75
33744,note_off,,,,,48,0,1,,,,,0,,,85,0
33792,note_on,,,,,0,0,1,,,,,0,,,85,75
33792,note_off,,,,,384,0,4,,,,,3,,,69,0
33792,note_off,,,,,48,0,1,,,,,0,,,86,0
33792,note_off,,,,,384,0,3,,,,,2,,,69,0
33888,note_off,,,,,96,0,1,,,,,0,,,85,0
33888,note_on,,,,,0,0,1,,,,,0,,,83,75
33984,note_off,,,,,96,0,1,,,,,0,,,83,0
33984,note_on,,,,,0,0,1,,,,,0,,,81,75
34176,note_on,,,,,384,0,3,,,,,2,,,69,94
34176,note_on,,,,,384,0,4,,,,,3,,,69,88
34176,note_off,,,,,192,0,1,,,,,0,,,81,0
34368,note_on,,,,,960,0,2,,,,,1,,,83,75
34464,note_off,,,,,96,0,2,,,,,1,,,83,0
34464,note_on,,,,,0,0,2,,,,,1,,,85,75
34512,note_off,,,,,48,0,2,,,,,1,,,85,0
34512,note_on,,,,,0,0,2,,,,,1,,,86,75
34560,note_off,,,,,48,0,2,,,,,1,,,86,0
34560,note_on,,,,,0,0,2,,,,,1,,,85,75
34560,note_off,,,,,384,0,4,,,,,3,,,69,0
34560,note_off,,,,,384,0,3,,,,,2,,,69,0
34656,note_off,,,,,96,0,2,,,,,1,,,85,0
34656,note_on,,,,,0,0,2,,,,,1,,,83,75
34752,note_off,,,,,96,0,2,,,,,1,,,83,0
34752,note_on,,,,,0,0,2,,,,,1,,,81,75
34944,note_on,,,,,384,0,4,,,,,3,,,69,88
34944,note_off,,,,,192,0,2,,,,,1,,,81,0
34944,note_on,,,,,384,0,3,,,,,2,,,69,94
35136,note_on,,,,,960,0,1,,,,,0,,,83,75
35232,note_on,,,,,0,0,1,,,,,0,,,85,75
35232,note_off,,,,,96,0,1,,,,,0,,,83,0
35280,note_on,,,,,0,0,1,,,,,0,,,86,75
35280,note_off,,,,,48,0,1,,,,,0,,,85,0
35328,note_off,,,,,384,0,4,,,,,3,,,69,0
35328,note_on,,,,,0,0,1,,,,,0,,,85,75
35328,note_off,,,,,48,0,1,,,,,0,,,86,0
35328,note_off,,,,,384,0,3,,,,,2,,,69,0
35376,note_off,,,,,48,0,1,,,,,0,,,85,0
35376,note_on,,,,,0,0,1,,,,,0,,,83,75
35424,note_on,,,,,0,0,1,,,,,0,,,81,75
35424,note_off,,,,,48,0,1,,,,,0,,,83,0
35712,note_on,,,,,0,0,1,,,,,0,,,80,75
35712,note_off,,,,,288,0,1,,,,,0,,,81,0
35712,note_on,,,,,384,0,4,,,,,3,,,69,88
35712,note_on,,,,,384,0,3,,,,,2,,,69,94
35760,note_off,,,,,48,0,1,,,,,0,,,80,0
35760,note_on,,,,,0,0,1,,,,,0,,,78,75
35808,note_off,,,,,48,0,1,,,,,0,,,78,0
35808,note_on,,,,,0,0,1,,,,,0,,,76,75
36096,note_on,,,,,0,0,4,,,,,3,,,71,88
36096,note_off,,,,,384,0,4,,,,,3,,,69,0
36096,note_off,,,,,288,0,1,,,,,0,,,76,0
36096,note_on,,,,,0,0,1,,,,,0,,,75,75
36096,note_off,,,,,384,0,3,,,,,2,,,69,0
36096,note_on,,,,,0,0,3,,,,,2,,,71,94
36144,note_off,,,,,48,0,1,,,,,0,,,75,0
36144,note_on,,,,,0,0,1,,,,,0,,,73,75
36192,note_off,,,,,48,0,1,,,,,0,,,73,0
36192,note_on,,,,,0,0,1,,,,,0,,,71,75
36480,note_on,,,,,0,0,3,,,,,2,,,63,94
36480,note_off,,,,,384,0,3,,,,,2,,,71,0
36480,note_off,,,,,288,0,1,,,,,0,,,71,0
36480,note_on,,,,,0,0,1,,,,,0,,,69,75
36480,note_on,,,,,0,0,4,,,,,3,,,63,88
36480,note_off,,,,,384,0,4,,,,,3,,,71,0
36528,note_off,,,,,48,0,1,,,,,0,,,69,0
36528,note_on,,,,,0,0,1,,,,,0,,,68,75
36576,note_off,,,,,48,0,1,,,,,0,,,68,0
36576,note_on,,,,,0,0,1,,,,,0,,,66,75
36864,note_on,,,,,0,0,1,,,,,0,,,68,75
36864,note_off,,,,,288,0,1,,,,,0,,,66,0
36864,note_on,,,,,0,0,4,,,,,3,,,64,88
36864,note_off,,,,,384,0,4,,,,,3,,,63,0
36864,note_off,,,,,384,0,3,,,,,2,,,63,0
36864,note_on,,,,,0,0,3,,,,,2,,,64,94
36912,note_off,,,,,48,0,1,,,,,0,,,68,0
36912,note_on,,,,,0,0,1,,,,,0,,,69,75
36960,note_off,,,,,48,0,1,,,,,0,,,69,0
36960,note_on,,,,,0,0,1,,,,,0,,,71,75
37248,note_off,,,,,288,0,1,,,,,0,,,71,0
37248,note_on,,,,,0,0,1,,,,,0,,,73,75
37248,note_off,,,,,384,0,3,,,,,2,,,64,0
37248,note_on,,,,,0,0,3,,,,,2,,,57,94
37248,note_off,,,,,384,0,4,,,,,3,,,64,0
37248,note_on,,,,,0,0,4,,,,,3,,,57,88
37296,note_off,,,,,48,0,1,,,,,0,,,73,0
37296,note_on,,,,,0,0,1,,,,,0,,,75,75
37344,note_on,,,,,0,0,1,,,,,0,,,76,75
37344,note_off,,,,,48,0,1,,,,,0,,,75,0
37632,note_off,,,,,384,0,3,,,,,2,,,57,0
37632,note_on,,,,,0,0,4,,,,,3,,,59,88
37632,note_off,,,,,384,0,4,,,,,3,,,57,0
37632,note_on,,,,,0,0,3,,,,,2,,,59,94
37632,note_off,,,,,288,0,1,,,,,0,,,76,0
37632,note_on,,,,,0,0,1,,,,,0,,,75,75
37824,note_on,,,,,2880,0,2,,,,,1,,,78,75
38016,note_off,,,,,384,0,4,,,,,3,,,59,0
38016,note_on,,,,,0,0,2,,,,,1,,,75,75
38016,note_off,,,,,192,0,2,,,,,1,,,78,0
38016,note_off,,,,,384,0,3,,,,,2,,,59,0
38208,note_on,,,,,0,0,2,,,,,1,,,71,75
38208,note_off,,,,,192,0,2,,,,,1,,,75,0
38208,note_on,,,,,0,0,1,,,,,0,,,78,75
38208,note_off,,,,,576,0,1,,,,,0,,,75,0
38400,note_off,,,,,192,0,1,,,,,0,,,78,0
38400,note_on,,,,,0,0,1,,,,,0,,,81,75
38400,note_off,,,,,192,0,2,,,,,1,,,71,0
38448,note_off,,,,,48,0,1,,,,,0,,,81,0
38448,note_on,,,,,0,0,1,,,,,0,,,80,75
38496,note_off,,,,,48,0,1,,,,,0,,,80,0
38496,note_on,,,,,0,0,1,,,,,0,,,80,75
38496,note_on,,,,,0,0,1,,,,,0,,,81,75
38544,note_off,,,,,48,0,1,,,,,0,,,80,0
38544,note_off,,,,,0,0,1,,,,,0,,,81,0
38544,note_on,,,,,0,0,1,,,,,0,,,81,75
38592,note_off,,,,,48,0,1,,,,,0,,,81,0
38592,note_on,,,,,0,0,1,,,,,0,,,83,75
38592,note_on,,,,,192,0,2,,,,,1,,,76,75
38784,note_on,,,,,0,0,1,,,,,0,,,83,75
38784,note_on,,,,,0,0,2,,,,,1,,,75,75
38784,note_off,,,,,192,0,1,,,,,0,,,83,0
38784,note_off,,,,,192,0,2,,,,,1,,,76,0
38976,note_off,,,,,192,0,2,,,,,1,,,75,0
38976,note_on,,,,,0,0,2,,,,,1,,,71,75
39168,note_off,,,,,384,0,1,,,,,0,,,83,0
39168,note_off,,,,,192,0,2,,,,,1,,,71,0
39168,note_on,,,,,1152,0,3,,,,,2,,,81,94
39216,note_off,,,,,48,0,3,,,,,2,,,81,0
39216,note_on,,,,,0,0,3,,,,,2,,,80,94
39264,note_off,,,,,48,0,3,,,,,2,,,80,0
39264,note_on,,,,,0,0,3,,,,,2,,,81,94
39264,note_on,,,,,0,0,3,,,,,2,,,80,94
39312,note_off,,,,,0,0,3,,,,,2,,,81,0
39312,note_on,,,,,0,0,3,,,,,2,,,81,94
39312,note_off,,,,,48,0,3,,,,,2,,,80,0
39360,note_off,,,,,48,0,3,,,,,2,,,81,0
39360,note_on,,,,,0,0,3,,,,,2,,,83,94
39360,note_on,,,,,1344,0,4,,,,,3,,,76,88
39552,note_off,,,,,192,0,4,,,,,3,,,76,0
39552,note_on,,,,,0,0,4,,,,,3,,,75,88
39552,note_off,,,,,192,0,3,,,,,2,,,83,0
39552,note_on,,,,,0,0,3,,,,,2,,,83,94
39744,note_on,,,,,0,0,4,,,,,3,,,71,88
39744,note_off,,,,,192,0,4,,,,,3,,,75,0
39936,note_off,,,,,384,0,3,,,,,2,,,83,0
39936,note_on,,,,,768,0,1,,,,,0,,,81,75
39936,note_off,,,,,192,0,4,,,,,3,,,71,0
39984,note_off,,,,,48,0,1,,,,,0,,,81,0
39984,note_on,,,,,0,0,1,,,,,0,,,80,75
40032,note_off,,,,,48,0,1,,,,,0,,,80,0
40032,note_on,,,,,0,0,1,,,,,0,,,80,75
40032,note_on,,,,,0,0,1,,,,,0,,,81,75
40080,note_on,,,,,0,0,1,,,,,0,,,81,75
40080,note_off,,,,,48,0,1,,,,,0,,,80,0
40080,note_off,,,,,0,0,1,,,,,0,,,81,0
40128,note_on,,,,,960,0,2,,,,,1,,,76,75
40128,note_off,,,,,48,0,1,,,,,0,,,81,0
40128,note_on,,,,,0,0,1,,,,,0,,,83,75
40320,note_on,,,,,0,0,2,,,,,1,,,75,75
40320,note_off,,,,,192,0,2,,,,,1,,,76,0
40320,note_on,,,,,0,0,1,,,,,0,,,83,75
40320,note_off,,,,,192,0,1,,,,,0,,,83,0
40512,note_on,,,,,0,0,2,,,,,1,,,71,75
40512,note_off,,,,,192,0,2,,,,,1,,,75,0
40704,note_on,,,,,768,0,3,,,,,2,,,81,94
40704,note_off,,,,,192,0,2,,,,,1,,,71,0
40704,note_off,,,,,384,0,1,,,,,0,,,83,0
40752,note_off,,,,,48,0,3,,,,,2,,,81,0
40752,note_on,,,,,0,0,3,,,,,2,,,80,94
40800,note_off,,,,,48,0,3,,,,,2,,,80,0
40800,note_on,,,,,0,0,3,,,,,2,,,80,94
40800,note_on,,,,,0,0,3,,,,,2,,,81,94
40848,note_on,,,,,0,0,3,,,,,2,,,81,94
40848,note_off,,,,,48,0,3,,,,,2,,,80,0
40848,note_off,,,,,0,0,3,,,,,2,,,81,0
40896,note_off,,,,,48,0,3,,,,,2,,,81,0
40896,note_on,,,,,960,0,4,,,,,3,,,76,88
40896,note_on,,,,,0,0,3,,,,,2,,,83,94
41088,note_on,,,,,0,0,4,,,,,3,,,75,88
41088,note_off,,,,,192,0,4,,,,,3,,,76,0
41088,note_on,,,,,0,0,3,,,,,2,,,83,94
41088,note_off,,,,,192,0,3,,,,,2,,,83,0
41280,note_off,,,,,192,0,4,,,,,3,,,75,0
41280,note_on,,,,,0,0,4,,,,,3,,,71,88
41472,note_on,,,,,768,0,2,,,,,1,,,76,75
41472,note_off,,,,,192,0,4,,,,,3,,,71,0
41472,note_off,,,,,384,0,3,,,,,2,,,83,0
41472,note_on,,,,,768,0,1,,,,,0,,,83,75
41472,note_on,,,,,8832,0,7,,,,,6,,,44,75
41472,note_on,,,,,8832,0,6,,,,,5,,,56,75
41568,note_off,,,,,96,0,1,,,,,0,,,83,0
41568,note_on,,,,,0,0,1,,,,,0,,,81,75
41664,note_on,,,,,9024,0,5,,,,,4,,,64,75
41664,note_off,,,,,96,0,1,,,,,0,,,81,0
41664,note_on,,,,,9024,0,8,,,,,7,,,52,60
41664,note_on,,,,,192,0,3,,,,,2,,,71,94
41664,note_on,,,,,0,0,1,,,,,0,,,80,75
41664,note_on,,,,,192,0,4,,,,,3,,,68,88
41760,note_on,,,,,0,0,1,,,,,0,,,78,75
41760,note_off,,,,,96,0,1,,,,,0,,,80,0
41856,note_on,,,,,0,0,3,,,,,2,,,76,94
41856,note_off,,,,,192,0,3,,,,,2,,,71,0
41856,note_off,,,,,192,0,4,,,,,3,,,68,0
41856,note_on,,,,,0,0,4,,,,,3,,,71,88
41856,note_off,,,,,384,0,6,,,,,5,,,56,0
41856,note_off,,,,,384,0,2,,,,,1,,,76,0
41856,note_off,,,,,192,0,5,,,,,4,,,64,0
41856,note_on,,,,,0,0,5,,,,,4,,,64,75
41856,note_off,,,,,96,0,1,,,,,0,,,78,0
41856,note_on,,,,,0,0,1,,,,,0,,,76,75
41856,note_off,,,,,192,0,8,,,,,7,,,52,0
41856,note_on,,,,,0,0,8,,,,,7,,,56,60
41856,note_off,,,,,384,0,7,,,,,6,,,44,0
41952,note_on,,,,,0,0,1,,,,,0,,,75,75
41952,note_off,,,,,96,0,1,,,,,0,,,76,0
42048,note_on,,,,,192,0,7,,,,,6,,,40,75
42048,note_on,,,,,192,0,6,,,,,5,,,52,75
42048,note_on,,,,,192,0,2,,,,,1,,,80,75
42048,note_on,,,,,0,0,1,,,,,0,,,73,75
42048,note_off,,,,,96,0,1,,,,,0,,,75,0
42144,note_on,,,,,0,0,1,,,,,0,,,71,75
42144,note_off,,,,,96,0,1,,,,,0,,,73,0
42240,note_off,,,,,384,0,5,,,,,4,,,64,0
42240,note_off,,,,,96,0,1,,,,,0,,,71,0
42240,note_on,,,,,0,0,1,,,,,0,,,73,75
42240,note_off,,,,,384,0,3,,,,,2,,,76,0
42240,note_on,,,,,0,0,2,,,,,1,,,73,75
42240,note_off,,,,,384,0,4,,,,,3,,,71,0
42240,note_on,,,,,0,0,6,,,,,5,,,57,75
42240,note_off,,,,,192,0,6,,,,,5,,,52,0
42240,note_off,,,,,192,0,7,,,,,6,,,40,0
42240,note_on,,,,,0,0,7,,,,,6,,,45,75
42240,note_off,,,,,384,0,8,,,,,7,,,56,0
42240,note_off,,,,,192,0,2,,,,,1,,,80,0
42336,note_on,,,,,0,0,1,,,,,0,,,69,75
42336,note_off,,,,,96,0,1,,,,,0,,,73,0
42432,note_on,,,,,0,0,1,,,,,0,,,73,75
42432,note_off,,,,,96,0,1,,,,,0,,,69,0
42432,note_on,,,,,192,0,4,,,,,3,,,64,88
42432,note_on,,,,,192,0,8,,,,,7,,,45,60
42432,note_on,,,,,192,0,5,,,,,4,,,61,75
42432,note_on,,,,,192,0,3,,,,,2,,,69,94
42528,note_on,,,,,0,0,1,,,,,0,,,76,75
42528,note_off,,,,,96,0,1,,,,,0,,,73,0
42624,note_on,,,,,0,0,8,,,,,7,,,57,60
42624,note_on,,,,,0,0,1,,,,,0,,,73,75
42624,note_off,,,,,96,0,1,,,,,0,,,76,0
42624,note_off,,,,,192,0,5,,,,,4,,,61,0
42624,note_on,,,,,0,0,5,,,,,4,,,64,75
42624,note_off,,,,,192,0,3,,,,,2,,,69,0
42624,note_on,,,,,0,0,3,,,,,2,,,73,94
42624,note_off,,,,,384,0,6,,,,,5,,,57,0
42624,note_off,,,,,192,0,4,,,,,3,,,64,0
42624,note_on,,,,,0,0,4,,,,,3,,,69,88
42624,note_off,,,,,192,0,8,,,,,7,,,45,0
42624,note_off,,,,,384,0,2,,,,,1,,,73,0
42624,note_off,,,,,384,0,7,,,,,6,,,45,0
42720,note_on,,,,,0,0,1,,,,,0,,,69,75
42720,note_off,,,,,96,0,1,,,,,0,,,73,0
42816,note_on,,,,,0,0,1,,,,,0,,,73,75
42816,note_off,,,,,96,0,1,,,,,0,,,69,0
42816,note_on,,,,,192,0,7,,,,,6,,,49,75
42816,note_on,,,,,192,0,6,,,,,5,,,61,75
42816,note_on,,,,,192,0,2,,,,,1,,,69,75
42912,note_on,,,,,0,0,1,,,,,0,,,76,75
42912,note_off,,,,,96,0,1,,,,,0,,,73,0
43008,note_off,,,,,384,0,8,,,,,7,,,57,0
43008,note_off,,,,,384,0,5,,,,,4,,,64,0
43008,note_on,,,,,0,0,1,,,,,0,,,75,75
43008,note_off,,,,,96,0,1,,,,,0,,,76,0
43008,note_off,,,,,192,0,6,,,,,5,,,61,0
43008,note_on,,,,,0,0,2,,,,,1,,,81,75
43008,note_off,,,,,384,0,3,,,,,2,,,73,0
43008,note_off,,,,,192,0,2,,,,,1,,,69,0
43008,note_on,,,,,0,0,6,,,,,5,,,54,75
43008,note_on,,,,,0,0,7,,,,,6,,,42,75
43008,note_off,,,,,192,0,7,,,,,6,,,49,0
43008,note_off,,,,,384,0,4,,,,,3,,,69,0
43104,note_off,,,,,96,0,1,,,,,0,,,75,0
43104,note_on,,,,,0,0,1,,,,,0,,,69,75
43200,note_on,,,,,192,0,4,,,,,3,,,69,88
43200,note_on,,,,,192,0,5,,,,,4,,,63,75
43200,note_on,,,,,0,0,1,,,,,0,,,75,75
43200,note_on,,,,,192,0,8,,,,,7,,,54,60
43200,note_on,,,,,192,0,3,,,,,2,,,69,94
43200,note_off,,,,,96,0,1,,,,,0,,,69,0
43296,note_on,,,,,0,0,1,,,,,0,,,78,75
43296,note_off,,,,,96,0,1,,,,,0,,,75,0
43392,note_off,,,,,384,0,2,,,,,1,,,81,0
43392,note_on,,,,,0,0,4,,,,,3,,,69,88
43392,note_off,,,,,384,0,6,,,,,5,,,54,0
43392,note_on,,,,,0,0,3,,,,,2,,,75,94
43392,note_off,,,,,192,0,3,,,,,2,,,69,0
43392,note_off,,,,,192,0,5,,,,,4,,,63,0
43392,note_on,,,,,0,0,5,,,,,4,,,66,75
43392,note_off,,,,,192,0,8,,,,,7,,,54,0
43392,note_on,,,,,0,0,8,,,,,7,,,59,60
43392,note_off,,,,,384,0,7,,,,,6,,,42,0
43392,note_off,,,,,192,0,4,,,,,3,,,69,0
43392,note_off,,,,,96,0,1,,,,,0,,,78,0
43392,note_on,,,,,0,0,1,,,,,0,,,75,75
43488,note_off,,,,,96,0,1,,,,,0,,,75,0
43488,note_on,,,,,0,0,1,,,,,0,,,69,75
43584,note_off,,,,,96,0,1,,,,,0,,,69,0
43584,note_on,,,,,0,0,1,,,,,0,,,75,75
43584,note_on,,,,,192,0,7,,,,,6,,,47,75
43584,note_on,,,,,192,0,6,,,,,5,,,59,75
43584,note_on,,,,,192,0,2,,,,,1,,,66,75
43680,note_on,,,,,0,0,1,,,,,0,,,78,75
43680,note_off,,,,,96,0,1,,,,,0,,,75,0
43776,note_off,,,,,96,0,1,,,,,0,,,78,0
43776,note_off,,,,,384,0,4,,,,,3,,,69,0
43776,note_off,,,,,192,0,7,,,,,6,,,47,0
43776,note_on,,,,,0,0,7,,,,,6,,,44,75
43776,note_off,,,,,384,0,3,,,,,2,,,75,0
43776,note_on,,,,,0,0,1,,,,,0,,,76,75
43776,note_on,,,,,0,0,2,,,,,1,,,71,75
43776,note_off,,,,,384,0,8,,,,,7,,,59,0
43776,note_off,,,,,192,0,6,,,,,5,,,59,0
43776,note_on,,,,,0,0,6,,,,,5,,,56,75
43776,note_off,,,,,384,0,5,,,,,4,,,66,0
43776,note_off,,,,,192,0,2,,,,,1,,,66,0
43872,note_off,,,,,96,0,1,,,,,0,,,76,0
43872,note_on,,,,,0,0,1,,,,,0,,,71,75
43968,note_on,,,,,192,0,3,,,,,2,,,71,94
43968,note_on,,,,,192,0,5,,,,,4,,,64,75
43968,note_off,,,,,96,0,1,,,,,0,,,71,0
43968,note_on,,,,,0,0,1,,,,,0,,,76,75
43968,note_on,,,,,192,0,8,,,,,7,,,56,60
43968,note_on,,,,,192,0,4,,,,,3,,,68,88
44064,note_on,,,,,0,0,1,,,,,0,,,80,75
44064,note_off,,,,,96,0,1,,,,,0,,,76,0
44160,note_off,,,,,192,0,8,,,,,7,,,56,0
44160,note_on,,,,,0,0,8,,,,,7,,,56,60
44160,note_on,,,,,0,0,1,,,,,0,,,76,75
44160,note_on,,,,,0,0,3,,,,,2,,,76,94
44160,note_off,,,,,192,0,4,,,,,3,,,68,0
44160,note_on,,,,,0,0,4,,,,,3,,,71,88
44160,note_off,,,,,384,0,7,,,,,6,,,44,0
44160,note_off,,,,,384,0,2,,,,,1,,,71,0
44160,note_off,,,,,384,0,6,,,,,5,,,56,0
44160,note_on,,,,,0,0,5,,,,,4,,,64,75
44160,note_off,,,,,192,0,5,,,,,4,,,64,0
44160,note_off,,,,,192,0,3,,,,,2,,,71,0
44160,note_off,,,,,96,0,1,,,,,0,,,80,0
44256,note_off,,,,,96,0,1,,,,,0,,,76,0
44256,note_on,,,,,0,0,1,,,,,0,,,71,75
44352,note_off,,,,,96,0,1,,,,,0,,,71,0
44352,note_on,,,,,0,0,1,,,,,0,,,76,75
44352,note_on,,,,,192,0,7,,,,,6,,,44,75
44352,note_on,,,,,192,0,2,,,,,1,,,76,75
44352,note_on,,,,,192,0,6,,,,,5,,,56,75
44448,note_off,,,,,96,0,1,,,,,0,,,76,0
44448,note_on,,,,,0,0,1,,,,,0,,,80,75
44544,note_off,,,,,192,0,7,,,,,6,,,44,0
44544,note_off,,,,,384,0,4,,,,,3,,,71,0
44544,note_off,,,,,192,0,2,,,,,1,,,76,0
44544,note_on,,,,,0,0,2,,,,,1,,,80,75
44544,note_on,,,,,0,0,1,,,,,0,,,83,75
44544,note_off,,,,,192,0,6,,,,,5,,,56,0
44544,note_on,,,,,0,0,6,,,,,5,,,52,75
44544,note_off,,,,,384,0,3,,,,,2,,,76,0
44544,note_off,,,,,96,0,1,,,,,0,,,80,0
44544,note_on,,,,,0,0,7,,,,,6,,,40,75
44544,note_off,,,,,384,0,5,,,,,4,,,64,0
44544,note_off,,,,,384,0,8,,,,,7,,,56,0
44640,note_off,,,,,96,0,1,,,,,0,,,83,0
44640,note_on,,,,,0,0,1,,,,,0,,,76,75
44736,note_on,,,,,192,0,3,,,,,2,,,76,94
44736,note_off,,,,,96,0,1,,,,,0,,,76,0
44736,note_on,,,,,192,0,8,,,,,7,,,52,60
44736,note_on,,,,,192,0,4,,,,,3,,,71,88
44736,note_on,,,,,192,0,5,,,,,4,,,68,75
44736,note_on,,,,,0,0,1,,,,,0,,,80,75
44832,note_on,,,,,0,0,1,,,,,0,,,83,75
44832,note_off,,,,,96,0,1,,,,,0,,,80,0
44928,note_off,,,,,192,0,8,,,,,7,,,52,0
44928,note_off,,,,,192,0,4,,,,,3,,,71,0
44928,note_on,,,,,0,0,4,,,,,3,,,76,88
44928,note_off,,,,,192,0,5,,,,,4,,,68,0
44928,note_off,,,,,384,0,7,,,,,6,,,40,0
44928,note_on,,,,,0,0,8,,,,,7,,,52,60
44928,note_off,,,,,192,0,3,,,,,2,,,76,0
44928,note_on,,,,,0,0,5,,,,,4,,,71,75
44928,note_off,,,,,384,0,6,,,,,5,,,52,0
44928,note_on,,,,,0,0,3,,,,,2,,,80,94
44928,note_off,,,,,384,0,2,,,,,1,,,80,0
44928,note_off,,,,,96,0,1,,,,,0,,,83,0
44928,note_on,,,,,0,0,1,,,,,0,,,80,75
45024,note_off,,,,,96,0,1,,,,,0,,,80,0
45024,note_on,,,,,0,0,1,,,,,0,,,76,75
45120,note_on,,,,,192,0,2,,,,,1,,,80,75
45120,note_on,,,,,0,0,1,,,,,0,,,80,75
45120,note_on,,,,,192,0,6,,,,,5,,,64,75
45120,note_off,,,,,96,0,1,,,,,0,,,76,0
45120,note_on,,,,,192,0,7,,,,,6,,,52,75
45216,note_off,,,,,96,0,1,,,,,0,,,80,0
45216,note_on,,,,,0,0,1,,,,,0,,,83,75
45312,note_on,,,,,0,0,1,,,,,0,,,73,75
45312,note_off,,,,,384,0,8,,,,,7,,,52,0
45312,note_off,,,,,384,0,4,,,,,3,,,76,0
45312,note_on,,,,,0,0,2,,,,,1,,,80,75
45312,note_on,,,,,0,0,7,,,,,6,,,45,75
45312,note_off,,,,,192,0,2,,,,,1,,,80,0
45312,note_on,,,,,0,0,6,,,,,5,,,57,75
45312,note_off,,,,,192,0,6,,,,,5,,,64,0
45312,note_off,,,,,384,0,3,,,,,2,,,80,0
45312,note_off,,,,,384,0,5,,,,,4,,,71,0
45312,note_off,,,,,96,0,1,,,,,0,,,83,0
45312,note_off,,,,,192,0,7,,,,,6,,,52,0
45408,note_on,,,,,0,0,1,,,,,0,,,83,75
45408,note_off,,,,,96,0,1,,,,,0,,,73,0
45504,note_on,,,,,192,0,4,,,,,3,,,73,88
45504,note_on,,,,,0,0,1,,,,,0,,,85,75
45504,note_on,,,,,192,0,5,,,,,4,,,71,75
45504,note_on,,,,,192,0,8,,,,,7,,,57,60
45504,note_off,,,,,96,0,1,,,,,0,,,83,0
45504,note_on,,,,,192,0,3,,,,,2,,,68,94
45600,note_off,,,,,96,0,1,,,,,0,,,85,0
45600,note_on,,,,,0,0,1,,,,,0,,,83,75
45696,note_off,,,,,384,0,2,,,,,1,,,80,0
45696,note_off,,,,,192,0,5,,,,,4,,,71,0
45696,note_on,,,,,0,0,5,,,,,4,,,71,75
45696,note_on,,,,,0,0,8,,,,,7,,,57,60
45696,note_off,,,,,192,0,8,,,,,7,,,57,0
45696,note_on,,,,,0,0,1,,,,,0,,,73,75
45696,note_off,,,,,96,0,1,,,,,0,,,83,0
45696,note_off,,,,,192,0,3,,,,,2,,,68,0
45696,note_on,,,,,0,0,3,,,,,2,,,68,94
45696,note_off,,,,,384,0,6,,,,,5,,,57,0
45696,note_off,,,,,192,0,4,,,,,3,,,73,0
45696,note_off,,,,,384,0,7,,,,,6,,,45,0
45696,note_on,,,,,0,0,4,,,,,3,,,73,88
45792,note_on,,,,,0,0,1,,,,,0,,,83,75
45792,note_off,,,,,96,0,1,,,,,0,,,73,0
45888,note_on,,,,,0,0,1,,,,,0,,,85,75
45888,note_off,,,,,96,0,1,,,,,0,,,83,0
45888,note_on,,,,,192,0,2,,,,,1,,,78,75
45888,note_on,,,,,192,0,7,,,,,6,,,45,75
45888,note_on,,,,,192,0,6,,,,,5,,,57,75
45984,note_off,,,,,96,0,1,,,,,0,,,85,0
45984,note_on,,,,,0,0,1,,,,,0,,,83,75
46080,note_off,,,,,192,0,2,,,,,1,,,78,0
46080,note_off,,,,,384,0,4,,,,,3,,,73,0
46080,note_on,,,,,0,0,7,,,,,6,,,45,75
46080,note_on,,,,,0,0,2,,,,,1,,,78,75
46080,note_off,,,,,384,0,5,,,,,4,,,71,0
46080,note_off,,,,,384,0,8,,,,,7,,,57,0
46080,note_off,,,,,192,0,7,,,,,6,,,45,0
46080,note_off,,,,,192,0,6,,,,,5,,,57,0
46080,note_on,,,,,0,0,1,,,,,0,,,73,75
46080,note_on,,,,,0,0,6,,,,,5,,,57,75
46080,note_off,,,,,384,0,3,,,,,2,,,68,0
46080,note_off,,,,,96,0,1,,,,,0,,,83,0
46176,note_on,,,,,0,0,1,,,,,0,,,81,75
46176,note_off,,,,,96,0,1,,,,,0,,,73,0
46272,note_on,,,,,192,0,3,,,,,2,,,66,94
46272,note_off,,,,,96,0,1,,,,,0,,,81,0
46272,note_on,,,,,192,0,4,,,,,3,,,73,88
46272,note_on,,,,,0,0,1,,,,,0,,,85,75
46272,note_on,,,,,192,0,5,,,,,4,,,69,75
46272,note_on,,,,,192,0,8,,,,,7,,,54,60
46368,note_off,,,,,96,0,1,,,,,0,,,85,0
46368,note_on,,,,,0,0,1,,,,,0,,,81,75
46464,note_off,,,,,384,0,7,,,,,6,,,45,0
46464,note_on,,,,,0,0,5,,,,,4,,,69,75
46464,note_off,,,,,192,0,5,,,,,4,,,69,0
46464,note_off,,,,,384,0,6,,,,,5,,,57,0
46464,note_off,,,,,96,0,1,,,,,0,,,81,0
46464,note_off,,,,,192,0,4,,,,,3,,,73,0
46464,note_off,,,,,192,0,3,,,,,2,,,66,0
46464,note_on,,,,,0,0,4,,,,,3,,,73,88
46464,note_on,,,,,0,0,8,,,,,7,,,54,60
46464,note_on,,,,,0,0,3,,,,,2,,,69,94
46464,note_off,,,,,384,0,2,,,,,1,,,78,0
46464,note_off,,,,,192,0,8,,,,,7,,,54,0
46464,note_on,,,,,0,0,1,,,,,0,,,73,75
46560,note_on,,,,,0,0,1,,,,,0,,,81,75
46560,note_off,,,,,96,0,1,,,,,0,,,73,0
46656,note_off,,,,,96,0,1,,,,,0,,,81,0
46656,note_on,,,,,0,0,1,,,,,0,,,85,75
46656,note_on,,,,,192,0,7,,,,,6,,,42,75
46656,note_on,,,,,192,0,6,,,,,5,,,54,75
46656,note_on,,,,,192,0,2,,,,,1,,,78,75
46752,note_off,,,,,96,0,1,,,,,0,,,85,0
46752,note_on,,,,,0,0,1,,,,,0,,,81,75
46848,note_off,,,,,384,0,3,,,,,2,,,69,0
46848,note_off,,,,,384,0,4,,,,,3,,,73,0
46848,note_off,,,,,384,0,5,,,,,4,,,69,0
46848,note_on,,,,,0,0,6,,,,,5,,,63,75
46848,note_off,,,,,192,0,6,,,,,5,,,54,0
46848,note_on,,,,,0,0,2,,,,,1,,,78,75
46848,note_on,,,,,0,0,7,,,,,6,,,51,75
46848,note_on,,,,,0,0,1,,,,,0,,,71,75
46848,note_off,,,,,96,0,1,,,,,0,,,81,0
46848,note_off,,,,,192,0,7,,,,,6,,,42,0
46848,note_off,,,,,192,0,2,,,,,1,,,78,0
46848,note_off,,,,,384,0,8,,,,,7,,,54,0
46944,note_on,,,,,0,0,1,,,,,0,,,81,75
46944,note_off,,,,,96,0,1,,,,,0,,,71,0
47040,note_on,,,,,0,0,1,,,,,0,,,83,75
47040,note_off,,,,,96,0,1,,,,,0,,,81,0
47040,note_on,,,,,192,0,5,,,,,4,,,66,75
47040,note_on,,,,,192,0,4,,,,,3,,,71,88
47040,note_on,,,,,192,0,8,,,,,7,,,51,60
47040,note_on,,,,,192,0,3,,,,,2,,,69,94
47136,note_on,,,,,0,0,1,,,,,0,,,81,75
47136,note_off,,,,,96,0,1,,,,,0,,,83,0
47232,note_off,,,,,192,0,5,,,,,4,,,66,0
47232,note_on,,,,,0,0,5,,,,,4,,,66,75
47232,note_off,,,,,384,0,2,,,,,1,,,78,0
47232,note_off,,,,,192,0,8,,,,,7,,,51,0
47232,note_off,,,,,192,0,3,,,,,2,,,69,0
47232,note_on,,,,,0,0,3,,,,,2,,,69,94
47232,note_off,,,,,192,0,4,,,,,3,,,71,0
47232,note_off,,,,,384,0,6,,,,,5,,,63,0
47232,note_on,,,,,0,0,4,,,,,3,,,71,88
47232,note_on,,,,,0,0,8,,,,,7,,,51,60
47232,note_off,,,,,96,0,1,,,,,0,,,81,0
47232,note_on,,,,,0,0,1,,,,,0,,,71,75
47232,note_off,,,,,384,0,7,,,,,6,,,51,0
47328,note_off,,,,,96,0,1,,,,,0,,,71,0
47328,note_on,,,,,0,0,1,,,,,0,,,81,75
47424,note_on,,,,,192,0,2,,,,,1,,,78,75
47424,note_on,,,,,192,0,7,,,,,6,,,51,75
47424,note_on,,,,,192,0,6,,,,,5,,,63,75
47424,note_off,,,,,96,0,1,,,,,0,,,81,0
47424,note_on,,,,,0,0,1,,,,,0,,,83,75
47520,note_off,,,,,96,0,1,,,,,0,,,83,0
47520,note_on,,,,,0,0,1,,,,,0,,,81,75
47616,note_on,,,,,0,0,1,,,,,0,,,71,75
47616,note_off,,,,,384,0,4,,,,,3,,,71,0
47616,note_off,,,,,384,0,3,,,,,2,,,69,0
47616,note_on,,,,,0,0,2,,,,,1,,,76,75
47616,note_off,,,,,192,0,2,,,,,1,,,78,0
47616,note_off,,,,,96,0,1,,,,,0,,,81,0
47616,note_on,,,,,0,0,6,,,,,5,,,64,75
47616,note_on,,,,,0,0,7,,,,,6,,,52,75
47616,note_off,,,,,192,0,7,,,,,6,,,51,0
47616,note_off,,,,,384,0,5,,,,,4,,,66,0
47616,note_off,,,,,384,0,8,,,,,7,,,51,0
47616,note_off,,,,,192,0,6,,,,,5,,,63,0
47712,note_on,,,,,0,0,1,,,,,0,,,80,75
47712,note_off,,,,,96,0,1,,,,,0,,,71,0
47808,note_on,,,,,192,0,3,,,,,2,,,68,94
47808,note_on,,,,,192,0,5,,,,,4,,,64,75
47808,note_off,,,,,96,0,1,,,,,0,,,80,0
47808,note_on,,,,,0,0,1,,,,,0,,,83,75
47808,note_on,,,,,192,0,4,,,,,3,,,71,88
47808,note_on,,,,,192,0,8,,,,,7,,,52,60
47904,note_off,,,,,96,0,1,,,,,0,,,83,0
47904,note_on,,,,,0,0,1,,,,,0,,,80,75
48000,note_off,,,,,192,0,4,,,,,3,,,71,0
48000,note_on,,,,,0,0,4,,,,,3,,,71,88
48000,note_off,,,,,384,0,6,,,,,5,,,64,0
48000,note_off,,,,,96,0,1,,,,,0,,,80,0
48000,note_on,,,,,0,0,3,,,,,2,,,68,94
48000,note_off,,,,,192,0,3,,,,,2,,,68,0
48000,note_off,,,,,384,0,7,,,,,6,,,52,0
48000,note_on,,,,,0,0,1,,,,,0,,,71,75
48000,note_off,,,,,384,0,2,,,,,1,,,76,0
48000,note_off,,,,,192,0,5,,,,,4,,,64,0
48000,note_on,,,,,0,0,5,,,,,4,,,64,75
48000,note_off,,,,,192,0,8,,,,,7,,,52,0
48000,note_on,,,,,0,0,8,,,,,7,,,52,60
48096,note_on,,,,,0,0,1,,,,,0,,,80,75
48096,note_off,,,,,96,0,1,,,,,0,,,71,0
48192,note_on,,,,,192,0,6,,,,,5,,,64,75
48192,note_on,,,,,192,0,7,,,,,6,,,52,75
48192,note_on,,,,,192,0,2,,,,,1,,,76,75
48192,note_on,,,,,0,0,1,,,,,0,,,83,75
48192,note_off,,,,,96,0,1,,,,,0,,,80,0
48288,note_on,,,,,0,0,1,,,,,0,,,80,75
48288,note_off,,,,,96,0,1,,,,,0,,,83,0
48384,note_off,,,,,192,0,7,,,,,6,,,52,0
48384,note_off,,,,,384,0,5,,,,,4,,,64,0
48384,note_off,,,,,384,0,4,,,,,3,,,71,0
48384,note_on,,,,,0,0,1,,,,,0,,,69,75
48384,note_off,,,,,384,0,8,,,,,7,,,52,0
48384,note_on,,,,,0,0,6,,,,,5,,,61,75
48384,note_off,,,,,192,0,6,,,,,5,,,64,0
48384,note_off,,,,,384,0,3,,,,,2,,,68,0
48384,note_off,,,,,192,0,2,,,,,1,,,76,0
48384,note_on,,,,,0,0,2,,,,,1,,,76,75
48384,note_on,,,,,0,0,7,,,,,6,,,49,75
48384,note_off,,,,,96,0,1,,,,,0,,,80,0
48480,note_on,,,,,0,0,1,,,,,0,,,80,75
48480,note_off,,,,,96,0,1,,,,,0,,,69,0
48576,note_on,,,,,192,0,4,,,,,3,,,69,88
48576,note_on,,,,,192,0,3,,,,,2,,,68,94
48576,note_on,,,,,192,0,8,,,,,7,,,49,60
48576,note_on,,,,,192,0,5,,,,,4,,,64,75
48576,note_on,,,,,0,0,1,,,,,0,,,81,75
48576,note_off,,,,,96,0,1,,,,,0,,,80,0
48672,note_on,,,,,0,0,1,,,,,0,,,80,75
48672,note_off,,,,,96,0,1,,,,,0,,,81,0
48768,note_off,,,,,192,0,4,,,,,3,,,69,0
48768,note_on,,,,,0,0,5,,,,,4,,,64,75
48768,note_off,,,,,192,0,5,,,,,4,,,64,0
48768,note_off,,,,,96,0,1,,,,,0,,,80,0
48768,note_on,,,,,0,0,1,,,,,0,,,69,75
48768,note_off,,,,,384,0,6,,,,,5,,,61,0
48768,note_off,,,,,384,0,2,,,,,1,,,76,0
48768,note_off,,,,,384,0,7,,,,,6,,,49,0
48768,note_off,,,,,192,0,8,,,,,7,,,49,0
48768,note_on,,,,,0,0,8,,,,,7,,,49,60
48768,note_off,,,,,192,0,3,,,,,2,,,68,0
48768,note_on,,,,,0,0,3,,,,,2,,,68,94
48768,note_on,,,,,0,0,4,,,,,3,,,69,88
48864,note_on,,,,,0,0,1,,,,,0,,,80,75
48864,note_off,,,,,96,0,1,,,,,0,,,69,0
48960,note_on,,,,,192,0,7,,,,,6,,,49,75
48960,note_on,,,,,192,0,2,,,,,1,,,76,75
48960,note_off,,,,,96,0,1,,,,,0,,,80,0
48960,note_on,,,,,192,0,6,,,,,5,,,61,75
48960,note_on,,,,,0,0,1,,,,,0,,,81,75
49056,note_off,,,,,96,0,1,,,,,0,,,81,0
49056,note_on,,,,,0,0,1,,,,,0,,,80,75
49152,note_on,,,,,0,0,1,,,,,0,,,71,75
49152,note_off,,,,,192,0,7,,,,,6,,,49,0
49152,note_off,,,,,96,0,1,,,,,0,,,80,0
49152,note_off,,,,,384,0,4,,,,,3,,,69,0
49152,note_on,,,,,0,0,6,,,,,5,,,63,75
49152,note_off,,,,,192,0,6,,,,,5,,,61,0
49152,note_off,,,,,192,0,2,,,,,1,,,76,0
49152,note_on,,,,,0,0,2,,,,,1,,,78,75
49152,note_off,,,,,384,0,8,,,,,7,,,49,0
49152,note_on,,,,,0,0,7,,,,,6,,,51,75
49152,note_off,,,,,384,0,3,,,,,2,,,68,0
49152,note_off,,,,,384,0,5,,,,,4,,,64,0
49248,note_on,,,,,0,0,1,,,,,0,,,78,75
49248,note_off,,,,,96,0,1,,,,,0,,,71,0
49344,note_on,,,,,192,0,8,,,,,7,,,51,60
49344,note_off,,,,,96,0,1,,,,,0,,,78,0
49344,note_on,,,,,192,0,4,,,,,3,,,69,88
49344,note_on,,,,,0,0,1,,,,,0,,,81,75
49344,note_on,,,,,192,0,5,,,,,4,,,59,75
49344,note_on,,,,,192,0,3,,,,,2,,,66,94
49440,note_off,,,,,96,0,1,,,,,0,,,81,0
49440,note_on,,,,,0,0,1,,,,,0,,,78,75
49536,note_off,,,,,96,0,1,,,,,0,,,78,0
49536,note_on,,,,,0,0,8,,,,,7,,,51,60
49536,note_off,,,,,192,0,8,,,,,7,,,51,0
49536,note_on,,,,,0,0,5,,,,,4,,,59,75
49536,note_off,,,,,192,0,5,,,,,4,,,59,0
49536,note_off,,,,,384,0,2,,,,,1,,,78,0
49536,note_off,,,,,192,0,4,,,,,3,,,69,0
49536,note_on,,,,,0,0,4,,,,,3,,,69,88
49536,note_on,,,,,0,0,1,,,,,0,,,71,75
49536,note_off,,,,,384,0,7,,,,,6,,,51,0
49536,note_off,,,,,384,0,6,,,,,5,,,63,0
49536,note_on,,,,,0,0,3,,,,,2,,,66,94
49536,note_off,,,,,192,0,3,,,,,2,,,66,0
49632,note_off,,,,,96,0,1,,,,,0,,,71,0
49632,note_on,,,,,0,0,1,,,,,0,,,78,75
49728,note_on,,,,,192,0,7,,,,,6,,,51,75
49728,note_on,,,,,192,0,6,,,,,5,,,63,75
49728,note_on,,,,,192,0,2,,,,,1,,,78,75
49728,note_off,,,,,96,0,1,,,,,0,,,78,0
49728,note_on,,,,,0,0,1,,,,,0,,,81,75
49824,note_off,,,,,96,0,1,,,,,0,,,81,0
49824,note_on,,,,,0,0,1,,,,,0,,,78,75
49920,note_off,,,,,384,0,4,,,,,3,,,69,0
49920,note_off,,,,,384,0,5,,,,,4,,,59,0
49920,note_off,,,,,192,0,6,,,,,5,,,63,0
49920,note_on,,,,,0,0,6,,,,,5,,,64,75
49920,note_off,,,,,192,0,7,,,,,6,,,51,0
49920,note_on,,,,,0,0,7,,,,,6,,,52,75
49920,note_off,,,,,96,0,1,,,,,0,,,78,0
49920,note_off,,,,,384,0,3,,,,,2,,,66,0
49920,note_on,,,,,0,0,2,,,,,1,,,68,75
49920,note_off,,,,,192,0,2,,,,,1,,,78,0
49920,note_off,,,,,384,0,8,,,,,7,,,51,0
49920,note_on,,,,,0,0,1,,,,,0,,,71,75
50016,note_off,,,,,96,0,1,,,,,0,,,71,0
50016,note_on,,,,,0,0,1,,,,,0,,,78,75
50112,note_on,,,,,192,0,5,,,,,4,,,59,75
50112,note_on,,,,,192,0,3,,,,,2,,,66,94
50112,note_on,,,,,192,0,4,,,,,3,,,68,88
50112,note_on,,,,,192,0,8,,,,,7,,,52,60
50112,note_on,,,,,0,0,1,,,,,0,,,80,75
50112,note_off,,,,,96,0,1,,,,,0,,,78,0
50208,note_on,,,,,0,0,1,,,,,0,,,78,75
50208,note_off,,,,,96,0,1,,,,,0,,,80,0
50304,note_on,,,,,0,0,5,,,,,4,,,59,75
50304,note_off,,,,,384,0,6,,,,,5,,,64,0
50304,note_on,,,,,0,0,4,,,,,3,,,68,88
50304,note_on,,,,,0,0,8,,,,,7,,,52,60
50304,note_off,,,,,192,0,8,,,,,7,,,52,0
50304,note_off,,,,,192,0,4,,,,,3,,,68,0
50304,note_off,,,,,192,0,5,,,,,4,,,59,0
50304,note_off,,,,,384,0,7,,,,,6,,,52,0
50304,note_off,,,,,192,0,3,,,,,2,,,66,0
50304,note_off,,,,,384,0,2,,,,,1,,,68,0
50304,note_on,,,,,0,0,1,,,,,0,,,71,75
50304,note_off,,,,,96,0,1,,,,,0,,,78,0
50304,note_on,,,,,0,0,3,,,,,2,,,66,94
50400,note_on,,,,,0,0,1,,,,,0,,,78,75
50400,note_off,,,,,96,0,1,,,,,0,,,71,0
50496,note_on,,,,,192,0,2,,,,,1,,,71,75
50496,note_on,,,,,192,0,7,,,,,6,,,52,75
50496,note_on,,,,,0,0,1,,,,,0,,,80,75
50496,note_off,,,,,96,0,1,,,,,0,,,78,0
50496,note_on,,,,,192,0,6,,,,,5,,,64,75
50592,note_on,,,,,0,0,1,,,,,0,,,78,75
50592,note_off,,,,,96,0,1,,,,,0,,,80,0
50688,note_off,,,,,384,0,8,,,,,7,,,52,0
50688,note_off,,,,,192,0,2,,,,,1,,,71,0
50688,note_on,,,,,0,0,2,,,,,1,,,76,75
50688,note_off,,,,,384,0,5,,,,,4,,,59,0
50688,note_on,,,,,0,0,6,,,,,5,,,56,75
50688,note_on,,,,,0,0,7,,,,,6,,,44,75
50688,note_off,,,,,192,0,7,,,,,6,,,52,0
50688,note_off,,,,,384,0,4,,,,,3,,,68,0
50688,note_on,,,,,0,0,1,,,,,0,,,71,75
50688,note_off,,,,,96,0,1,,,,,0,,,78,0
50688,note_off,,,,,384,0,3,,,,,2,,,66,0
50688,note_off,,,,,192,0,6,,,,,5,,,64,0
50784,note_on,,,,,0,0,1,,,,,0,,,76,75
50784,note_off,,,,,96,0,1,,,,,0,,,71,0
50880,note_on,,,,,0,0,1,,,,,0,,,80,75
50880,note_off,,,,,96,0,1,,,,,0,,,76,0
50880,note_on,,,,,192,0,8,,,,,7,,,56,60
50880,note_on,,,,,192,0,4,,,,,3,,,68,88
50880,note_on,,,,,192,0,5,,,,,4,,,59,75
50880,note_on,,,,,192,0,3,,,,,2,,,64,94
50976,note_off,,,,,96,0,1,,,,,0,,,80,0
50976,note_on,,,,,0,0,1,,,,,0,,,76,75
51072,note_off,,,,,192,0,3,,,,,2,,,64,0
51072,note_on,,,,,0,0,3,,,,,2,,,64,94
51072,note_off,,,,,384,0,7,,,,,6,,,44,0
51072,note_off,,,,,192,0,4,,,,,3,,,68,0
51072,note_on,,,,,0,0,4,,,,,3,,,68,88
51072,note_off,,,,,192,0,5,,,,,4,,,59,0
51072,note_on,,,,,0,0,1,,,,,0,,,71,75
51072,note_on,,,,,0,0,5,,,,,4,,,59,75
51072,note_off,,,,,96,0,1,,,,,0,,,76,0
51072,note_off,,,,,384,0,2,,,,,1,,,76,0
51072,note_off,,,,,384,0,6,,,,,5,,,56,0
51072,note_off,,,,,192,0,8,,,,,7,,,56,0
51072,note_on,,,,,0,0,8,,,,,7,,,56,60
51168,note_on,,,,,0,0,1,,,,,0,,,75,75
51168,note_off,,,,,96,0,1,,,,,0,,,71,0
51264,note_on,,,,,192,0,6,,,,,5,,,56,75
51264,note_on,,,,,192,0,7,,,,,6,,,44,75
51264,note_off,,,,,96,0,1,,,,,0,,,75,0
51264,note_on,,,,,0,0,1,,,,,0,,,80,75
51264,note_on,,,,,192,0,2,,,,,1,,,80,75
51360,note_off,,,,,96,0,1,,,,,0,,,80,0
51360,note_on,,,,,0,0,1,,,,,0,,,75,75
51456,note_on,,,,,0,0,2,,,,,1,,,73,75
51456,note_on,,,,,0,0,7,,,,,6,,,45,75
51456,note_off,,,,,192,0,7,,,,,6,,,44,0
51456,note_off,,,,,384,0,8,,,,,7,,,56,0
51456,note_off,,,,,96,0,1,,,,,0,,,75,0
51456,note_on,,,,,0,0,1,,,,,0,,,71,75
51456,note_off,,,,,384,0,3,,,,,2,,,64,0
51456,note_off,,,,,384,0,4,,,,,3,,,68,0
51456,note_off,,,,,384,0,5,,,,,4,,,59,0
51456,note_off,,,,,192,0,6,,,,,5,,,56,0
51456,note_on,,,,,0,0,6,,,,,5,,,57,75
51456,note_off,,,,,192,0,2,,,,,1,,,80,0
51552,note_off,,,,,96,0,1,,,,,0,,,71,0
51552,note_on,,,,,0,0,1,,,,,0,,,73,75
51648,note_on,,,,,192,0,3,,,,,2,,,73,94
51648,note_on,,,,,0,0,1,,,,,0,,,80,75
51648,note_off,,,,,96,0,1,,,,,0,,,73,0
51648,note_on,,,,,192,0,5,,,,,4,,,64,75
51648,note_on,,,,,192,0,8,,,,,7,,,57,60
51648,note_on,,,,,192,0,4,,,,,3,,,68,88
51744,note_on,,,,,0,0,1,,,,,0,,,73,75
51744,note_off,,,,,96,0,1,,,,,0,,,80,0
51840,note_off,,,,,96,0,1,,,,,0,,,73,0
51840,note_on,,,,,0,0,1,,,,,0,,,71,75
51840,note_on,,,,,0,0,4,,,,,3,,,68,88
51840,note_off,,,,,192,0,3,,,,,2,,,73,0
51840,note_off,,,,,384,0,7,,,,,6,,,45,0
51840,note_off,,,,,384,0,6,,,,,5,,,57,0
51840,note_off,,,,,384,0,2,,,,,1,,,73,0
51840,note_on,,,,,0,0,8,,,,,7,,,57,60
51840,note_off,,,,,192,0,8,,,,,7,,,57,0
51840,note_on,,,,,0,0,3,,,,,2,,,73,94
51840,note_off,,,,,192,0,5,,,,,4,,,64,0
51840,note_on,,,,,0,0,5,,,,,4,,,64,75
51840,note_off,,,,,192,0,4,,,,,3,,,68,0
51936,note_off,,,,,96,0,1,,,,,0,,,71,0
51936,note_on,,,,,0,0,1,,,,,0,,,73,75
52032,note_on,,,,,192,0,6,,,,,5,,,57,75
52032,note_off,,,,,96,0,1,,,,,0,,,73,0
52032,note_on,,,,,192,0,7,,,,,6,,,45,75
52032,note_on,,,,,192,0,2,,,,,1,,,64,75
52032,note_on,,,,,0,0,1,,,,,0,,,80,75
52128,note_on,,,,,0,0,1,,,,,0,,,73,75
52128,note_off,,,,,96,0,1,,,,,0,,,80,0
52224,note_on,,,,,0,0,6,,,,,5,,,57,75
52224,note_off,,,,,96,0,1,,,,,0,,,73,0
52224,note_off,,,,,384,0,4,,,,,3,,,68,0
52224,note_off,,,,,192,0,6,,,,,5,,,57,0
52224,note_on,,,,,0,0,1,,,,,0,,,69,75
52224,note_off,,,,,192,0,7,,,,,6,,,45,0
52224,note_on,,,,,0,0,2,,,,,1,,,66,75
52224,note_off,,,,,384,0,3,,,,,2,,,73,0
52224,note_on,,,,,0,0,7,,,,,6,,,45,75
52224,note_off,,,,,384,0,5,,,,,4,,,64,0
52224,note_off,,,,,384,0,8,,,,,7,,,57,0
52224,note_off,,,,,192,0,2,,,,,1,,,64,0
52320,note_on,,,,,0,0,1,,,,,0,,,73,75
52320,note_off,,,,,96,0,1,,,,,0,,,69,0
52416,note_on,,,,,192,0,3,,,,,2,,,73,94
52416,note_on,,,,,192,0,5,,,,,4,,,64,75
52416,note_on,,,,,192,0,8,,,,,7,,,45,60
52416,note_on,,,,,0,0,1,,,,,0,,,78,75
52416,note_on,,,,,192,0,4,,,,,3,,,66,88
52416,note_off,,,,,96,0,1,,,,,0,,,73,0
52512,note_off,,,,,96,0,1,,,,,0,,,78,0
52512,note_on,,,,,0,0,1,,,,,0,,,73,75
52608,note_on,,,,,0,0,1,,,,,0,,,69,75
52608,note_on,,,,,0,0,8,,,,,7,,,45,60
52608,note_off,,,,,192,0,8,,,,,7,,,45,0
52608,note_off,,,,,192,0,4,,,,,3,,,66,0
52608,note_on,,,,,0,0,4,,,,,3,,,66,88
52608,note_on,,,,,0,0,5,,,,,4,,,64,75
52608,note_off,,,,,192,0,5,,,,,4,,,64,0
52608,note_off,,,,,384,0,2,,,,,1,,,66,0
52608,note_off,,,,,384,0,6,,,,,5,,,57,0
52608,note_off,,,,,96,0,1,,,,,0,,,73,0
52608,note_off,,,,,384,0,7,,,,,6,,,45,0
52608,note_on,,,,,0,0,3,,,,,2,,,73,94
52608,note_off,,,,,192,0,3,,,,,2,,,73,0
52704,note_off,,,,,96,0,1,,,,,0,,,69,0
52704,note_on,,,,,0,0,1,,,,,0,,,73,75
52800,note_on,,,,,0,0,1,,,,,0,,,76,75
52800,note_on,,,,,192,0,7,,,,,6,,,45,75
52800,note_on,,,,,192,0,6,,,,,5,,,57,75
52800,note_off,,,,,96,0,1,,,,,0,,,73,0
52800,note_on,,,,,192,0,2,,,,,1,,,73,75
52896,note_on,,,,,0,0,1,,,,,0,,,73,75
52896,note_off,,,,,96,0,1,,,,,0,,,76,0
52992,note_on,,,,,0,0,1,,,,,0,,,69,75
52992,note_off,,,,,192,0,7,,,,,6,,,45,0
52992,note_off,,,,,96,0,1,,,,,0,,,73,0
52992,note_on,,,,,0,0,7,,,,,6,,,47,75
52992,note_on,,,,,0,0,6,,,,,5,,,59,75
52992,note_off,,,,,384,0,8,,,,,7,,,45,0
52992,note_off,,,,,384,0,5,,,,,4,,,64,0
52992,note_off,,,,,192,0,6,,,,,5,,,57,0
52992,note_off,,,,,384,0,4,,,,,3,,,66,0
52992,note_off,,,,,192,0,2,,,,,1,,,73,0
52992,note_on,,,,,0,0,2,,,,,1,,,66,75
52992,note_off,,,,,384,0,3,,,,,2,,,73,0
53088,note_on,,,,,0,0,1,,,,,0,,,71,75
53088,note_off,,,,,96,0,1,,,,,0,,,69,0
53184,note_on,,,,,0,0,1,,,,,0,,,75,75
53184,note_off,,,,,96,0,1,,,,,0,,,71,0
53184,note_on,,,,,192,0,5,,,,,4,,,63,75
53184,note_on,,,,,192,0,4,,,,,3,,,66,88
53184,note_on,,,,,192,0,3,,,,,2,,,69,94
53184,note_on,,,,,192,0,8,,,,,7,,,47,60
53280,note_off,,,,,96,0,1,,,,,0,,,75,0
53280,note_on,,,,,0,0,1,,,,,0,,,71,75
53376,note_on,,,,,0,0,1,,,,,0,,,69,75
53376,note_off,,,,,384,0,7,,,,,6,,,47,0
53376,note_on,,,,,0,0,3,,,,,2,,,69,94
53376,note_off,,,,,192,0,3,,,,,2,,,69,0
53376,note_off,,,,,96,0,1,,,,,0,,,71,0
53376,note_off,,,,,384,0,6,,,,,5,,,59,0
53376,note_on,,,,,0,0,4,,,,,3,,,66,88
53376,note_on,,,,,0,0,5,,,,,4,,,63,75
53376,note_off,,,,,192,0,8,,,,,7,,,47,0
53376,note_off,,,,,192,0,4,,,,,3,,,66,0
53376,note_on,,,,,0,0,8,,,,,7,,,47,60
53376,note_off,,,,,192,0,5,,,,,4,,,63,0
53376,note_off,,,,,384,0,2,,,,,1,,,66,0
53472,note_off,,,,,96,0,1,,,,,0,,,69,0
53472,note_on,,,,,0,0,1,,,,,0,,,71,75
53568,note_on,,,,,0,0,1,,,,,0,,,75,75
53568,note_on,,,,,192,0,6,,,,,5,,,59,75
53568,note_off,,,,,96,0,1,,,,,0,,,71,0
53568,note_on,,,,,192,0,7,,,,,6,,,47,75
53568,note_on,,,,,192,0,2,,,,,1,,,78,75
53664,note_on,,,,,0,0,1,,,,,0,,,71,75
53664,note_off,,,,,96,0,1,,,,,0,,,75,0
53760,note_on,,,,,0,0,1,,,,,0,,,68,75
53760,note_off,,,,,192,0,2,,,,,1,,,78,0
53760,note_off,,,,,192,0,7,,,,,6,,,47,0
53760,note_on,,,,,0,0,2,,,,,1,,,71,75
53760,note_off,,,,,192,0,6,,,,,5,,,59,0
53760,note_off,,,,,384,0,8,,,,,7,,,47,0
53760,note_off,,,,,384,0,5,,,,,4,,,63,0
53760,note_on,,,,,0,0,6,,,,,5,,,59,75
53760,note_off,,,,,384,0,3,,,,,2,,,69,0
53760,note_off,,,,,96,0,1,,,,,0,,,71,0
53760,note_on,,,,,0,0,7,,,,,6,,,47,75
53760,note_off,,,,,384,0,4,,,,,3,,,66,0
53856,note_off,,,,,96,0,1,,,,,0,,,68,0
53856,note_on,,,,,0,0,1,,,,,0,,,71,75
53952,note_on,,,,,192,0,8,,,,,7,,,47,60
53952,note_on,,,,,192,0,5,,,,,4,,,59,75
53952,note_on,,,,,192,0,4,,,,,3,,,64,88
53952,note_on,,,,,192,0,3,,,,,2,,,68,94
53952,note_off,,,,,96,0,1,,,,,0,,,71,0
53952,note_on,,,,,0,0,1,,,,,0,,,76,75
54048,note_off,,,,,96,0,1,,,,,0,,,76,0
54048,note_on,,,,,0,0,1,,,,,0,,,71,75
54144,note_off,,,,,192,0,3,,,,,2,,,68,0
54144,note_on,,,,,0,0,8,,,,,7,,,47,60
54144,note_off,,,,,384,0,7,,,,,6,,,47,0
54144,note_off,,,,,192,0,8,,,,,7,,,47,0
54144,note_on,,,,,0,0,4,,,,,3,,,64,88
54144,note_off,,,,,96,0,1,,,,,0,,,71,0
54144,note_on,,,,,0,0,1,,,,,0,,,68,75
54144,note_on,,,,,0,0,5,,,,,4,,,59,75
54144,note_off,,,,,192,0,4,,,,,3,,,64,0
54144,note_off,,,,,192,0,5,,,,,4,,,59,0
54144,note_on,,,,,0,0,3,,,,,2,,,68,94
54144,note_off,,,,,384,0,2,,,,,1,,,71,0
54144,note_off,,,,,384,0,6,,,,,5,,,59,0
54240,note_on,,,,,0,0,1,,,,,0,,,71,75
54240,note_off,,,,,96,0,1,,,,,0,,,68,0
54336,note_on,,,,,192,0,2,,,,,1,,,68,75
54336,note_off,,,,,96,0,1,,,,,0,,,71,0
54336,note_on,,,,,0,0,1,,,,,0,,,76,75
54336,note_on,,,,,192,0,7,,,,,6,,,47,75
54336,note_on,,,,,192,0,6,,,,,5,,,59,75
54432,note_off,,,,,96,0,1,,,,,0,,,76,0
54432,note_on,,,,,0,0,1,,,,,0,,,71,75
54528,note_off,,,,,192,0,2,,,,,1,,,68,0
54528,note_on,,,,,0,0,2,,,,,1,,,63,75
54528,note_off,,,,,384,0,3,,,,,2,,,68,0
54528,note_on,,,,,0,0,7,,,,,6,,,47,75
54528,note_off,,,,,384,0,4,,,,,3,,,64,0
54528,note_off,,,,,192,0,6,,,,,5,,,59,0
54528,note_off,,,,,192,0,7,,,,,6,,,47,0
54528,note_on,,,,,0,0,6,,,,,5,,,59,75
54528,note_off,,,,,384,0,8,,,,,7,,,47,0
54528,note_on,,,,,0,0,1,,,,,0,,,66,75
54528,note_off,,,,,384,0,5,,,,,4,,,59,0
54528,note_off,,,,,96,0,1,,,,,0,,,71,0
54624,note_on,,,,,0,0,1,,,,,0,,,69,75
54624,note_off,,,,,96,0,1,,,,,0,,,66,0
54720,note_on,,,,,0,0,1,,,,,0,,,71,75
54720,note_on,,,,,192,0,4,,,,,3,,,63,88
54720,note_on,,,,,192,0,3,,,,,2,,,66,94
54720,note_on,,,,,192,0,8,,,,,7,,,47,60
54720,note_off,,,,,96,0,1,,,,,0,,,69,0
54720,note_on,,,,,192,0,5,,,,,4,,,57,75
54816,note_on,,,,,0,0,1,,,,,0,,,69,75
54816,note_off,,,,,96,0,1,,,,,0,,,71,0
54912,note_off,,,,,384,0,2,,,,,1,,,63,0
54912,note_off,,,,,192,0,5,,,,,4,,,57,0
54912,note_on,,,,,0,0,3,,,,,2,,,66,94
54912,note_on,,,,,0,0,8,,,,,7,,,47,60
54912,note_off,,,,,192,0,8,,,,,7,,,47,0
54912,note_off,,,,,192,0,4,,,,,3,,,63,0
54912,note_off,,,,,384,0,7,,,,,6,,,47,0
54912,note_off,,,,,384,0,6,,,,,5,,,59,0
54912,note_on,,,,,0,0,5,,,,,4,,,57,75
54912,note_on,,,,,0,0,4,,,,,3,,,63,88
54912,note_off,,,,,192,0,3,,,,,2,,,66,0
54912,note_off,,,,,96,0,1,,,,,0,,,69,0
54912,note_on,,,,,0,0,1,,,,,0,,,66,75
55008,note_on,,,,,0,0,1,,,,,0,,,69,75
55008,note_off,,,,,96,0,1,,,,,0,,,66,0
55104,note_on,,,,,192,0,2,,,,,1,,,75,75
55104,note_on,,,,,0,0,1,,,,,0,,,71,75
55104,note_off,,,,,96,0,1,,,,,0,,,69,0
55104,note_on,,,,,192,0,7,,,,,6,,,47,75
55104,note_on,,,,,192,0,6,,,,,5,,,59,75
55200,note_off,,,,,96,0,1,,,,,0,,,71,0
55200,note_on,,,,,0,0,1,,,,,0,,,69,75
55296,note_on,,,,,0,0,7,,,,,6,,,47,75
55296,note_off,,,,,384,0,4,,,,,3,,,63,0
55296,note_off,,,,,384,0,8,,,,,7,,,47,0
55296,note_off,,,,,192,0,2,,,,,1,,,75,0
55296,note_off,,,,,96,0,1,,,,,0,,,69,0
55296,note_off,,,,,192,0,7,,,,,6,,,47,0
55296,note_off,,,,,384,0,3,,,,,2,,,66,0
55296,note_off,,,,,384,0,5,,,,,4,,,57,0
55296,note_on,,,,,0,0,6,,,,,5,,,59,75
55296,note_on,,,,,0,0,2,,,,,1,,,71,75
55296,note_off,,,,,192,0,6,,,,,5,,,59,0
55296,note_on,,,,,0,0,1,,,,,0,,,64,75
55392,note_off,,,,,96,0,1,,,,,0,,,64,0
55392,note_on,,,,,0,0,1,,,,,0,,,68,75
55488,note_on,,,,,192,0,3,,,,,2,,,64,94
55488,note_on,,,,,192,0,4,,,,,3,,,59,88
55488,note_on,,,,,0,0,1,,,,,0,,,71,75
55488,note_on,,,,,192,0,8,,,,,7,,,47,60
55488,note_off,,,,,96,0,1,,,,,0,,,68,0
55488,note_on,,,,,192,0,5,,,,,4,,,56,75
55584,note_off,,,,,96,0,1,,,,,0,,,71,0
55584,note_on,,,,,0,0,1,,,,,0,,,68,75
55680,note_off,,,,,192,0,8,,,,,7,,,47,0
55680,note_on,,,,,0,0,8,,,,,7,,,47,60
55680,note_off,,,,,384,0,7,,,,,6,,,47,0
55680,note_off,,,,,96,0,1,,,,,0,,,68,0
55680,note_on,,,,,0,0,1,,,,,0,,,64,75
55680,note_off,,,,,192,0,4,,,,,3,,,59,0
55680,note_off,,,,,192,0,5,,,,,4,,,56,0
55680,note_off,,,,,384,0,6,,,,,5,,,59,0
55680,note_off,,,,,192,0,3,,,,,2,,,64,0
55680,note_on,,,,,0,0,3,,,,,2,,,64,94
55680,note_off,,,,,384,0,2,,,,,1,,,71,0
55680,note_on,,,,,0,0,5,,,,,4,,,56,75
55680,note_on,,,,,0,0,4,,,,,3,,,59,88
55776,note_on,,,,,0,0,1,,,,,0,,,68,75
55776,note_off,,,,,96,0,1,,,,,0,,,64,0
55872,note_on,,,,,192,0,2,,,,,1,,,68,75
55872,note_on,,,,,192,0,7,,,,,6,,,47,75
55872,note_on,,,,,0,0,1,,,,,0,,,71,75
55872,note_off,,,,,96,0,1,,,,,0,,,68,0
55872,note_on,,,,,192,0,6,,,,,5,,,59,75
55968,note_off,,,,,96,0,1,,,,,0,,,71,0
55968,note_on,,,,,0,0,1,,,,,0,,,76,75
56064,note_off,,,,,96,0,1,,,,,0,,,76,0
56064,note_on,,,,,0,0,1,,,,,0,,,75,75
56064,note_on,,,,,0,0,7,,,,,6,,,47,75
56064,note_off,,,,,384,0,4,,,,,3,,,59,0
56064,note_off,,,,,384,0,3,,,,,2,,,64,0
56064,note_off,,,,,192,0,2,,,,,1,,,68,0
56064,note_off,,,,,192,0,7,,,,,6,,,47,0
56064,note_off,,,,,192,0,6,,,,,5,,,59,0
56064,note_off,,,,,384,0,5,,,,,4,,,56,0
56064,note_on,,,,,0,0,2,,,,,1,,,66,75
56064,note_off,,,,,384,0,8,,,,,7,,,47,0
56064,note_on,,,,,0,0,6,,,,,5,,,59,75
56160,note_on,,,,,0,0,1,,,,,0,,,71,75
56160,note_off,,,,,96,0,1,,,,,0,,,75,0
56256,note_on,,,,,192,0,4,,,,,3,,,59,88
56256,note_on,,,,,0,0,1,,,,,0,,,75,75
56256,note_off,,,,,96,0,1,,,,,0,,,71,0
56256,note_on,,,,,192,0,8,,,,,7,,,47,60
56256,note_on,,,,,192,0,3,,,,,2,,,63,94
56256,note_on,,,,,192,0,5,,,,,4,,,54,75
56352,note_off,,,,,96,0,1,,,,,0,,,75,0
56352,note_on,,,,,0,0,1,,,,,0,,,78,75
56448,note_on,,,,,0,0,5,,,,,4,,,54,75
56448,note_off,,,,,384,0,2,,,,,1,,,66,0
56448,note_off,,,,,96,0,1,,,,,0,,,78,0
56448,note_off,,,,,384,0,6,,,,,5,,,59,0
56448,note_off,,,,,192,0,8,,,,,7,,,47,0
56448,note_on,,,,,0,0,1,,,,,0,,,83,75
56448,note_off,,,,,192,0,3,,,,,2,,,63,0
56448,note_off,,,,,384,0,7,,,,,6,,,47,0
56448,note_on,,,,,0,0,3,,,,,2,,,63,94
56448,note_off,,,,,192,0,4,,,,,3,,,59,0
56448,note_on,,,,,0,0,4,,,,,3,,,59,88
56448,note_on,,,,,0,0,8,,,,,7,,,47,60
56448,note_off,,,,,192,0,5,,,,,4,,,54,0
56544,note_off,,,,,96,0,1,,,,,0,,,83,0
56544,note_on,,,,,0,0,1,,,,,0,,,71,75
56640,note_on,,,,,0,0,1,,,,,0,,,75,75
56640,note_off,,,,,96,0,1,,,,,0,,,71,0
56736,note_off,,,,,96,0,1,,,,,0,,,75,0
56736,note_on,,,,,0,0,1,,,,,0,,,71,75
56832,note_on,,,,,0,0,8,,,,,7,,,59,60
56832,note_on,,,,,384,0,6,,,,,5,,,59,75
56832,note_off,,,,,96,0,1,,,,,0,,,71,0
56832,note_on,,,,,0,0,1,,,,,0,,,78,75
56832,note_on,,,,,384,0,7,,,,,6,,,47,75
56832,note_on,,,,,0,0,3,,,,,2,,,78,94
56832,note_off,,,,,384,0,4,,,,,3,,,59,0
56832,note_off,,,,,384,0,8,,,,,7,,,47,0
56832,note_on,,,,,0,0,4,,,,,3,,,75,88
56832,note_on,,,,,0,0,5,,,,,4,,,71,75
56832,note_off,,,,,384,0,5,,,,,4,,,54,0
56832,note_off,,,,,384,0,3,,,,,2,,,63,0
56832,note_on,,,,,384,0,2,,,,,1,,,75,75
57216,note_off,,,,,384,0,5,,,,,4,,,71,0
57216,note_on,,,,,0,0,7,,,,,6,,,35,75
57216,note_off,,,,,384,0,8,,,,,7,,,59,0
57216,note_on,,,,,0,0,8,,,,,7,,,47,60
57216,note_off,,,,,384,0,7,,,,,6,,,47,0
57216,note_on,,,,,0,0,5,,,,,4,,,63,75
57216,note_off,,,,,384,0,6,,,,,5,,,59,0
57216,note_on,,,,,0,0,2,,,,,1,,,78,75
57216,note_off,,,,,384,0,2,,,,,1,,,75,0
57216,note_on,,,,,0,0,6,,,,,5,,,47,75
57216,note_off,,,,,384,0,3,,,,,2,,,78,0
57216,note_on,,,,,0,0,3,,,,,2,,,83,94
57216,note_on,,,,,0,0,4,,,,,3,,,78,88
57216,note_off,,,,,384,0,4,,,,,3,,,75,0
57216,note_on,,,,,0,0,1,,,,,0,,,83,75
57216,note_off,,,,,384,0,1,,,,,0,,,78,0
57408,note_off,,,,,192,0,3,,,,,2,,,83,0
57408,note_on,,,,,0,0,1,,,,,0,,,78,75
57408,note_off,,,,,192,0,1,,,,,0,,,83,0
57408,note_on,,,,,0,0,7,,,,,6,,,39,75
57408,note_off,,,,,192,0,7,,,,,6,,,35,0
57408,note_on,,,,,0,0,2,,,,,1,,,71,75
57408,note_on,,,,,0,0,3,,,,,2,,,78,94
57408,note_off,,,,,192,0,2,,,,,1,,,78,0
57408,note_off,,,,,192,0,8,,,,,7,,,47,0
57408,note_on,,,,,0,0,8,,,,,7,,,51,60
57408,note_on,,,,,0,0,6,,,,,5,,,51,75
57408,note_off,,,,,192,0,6,,,,,5,,,47,0
57408,note_on,,,,,0,0,4,,,,,3,,,71,88
57408,note_off,,,,,192,0,4,,,,,3,,,78,0
57408,note_off,,,,,192,0,5,,,,,4,,,63,0
57408,note_on,,,,,0,0,5,,,,,4,,,71,75
57600,note_on,,,,,0,0,4,,,,,3,,,71,88
57600,note_on,,,,,0,0,1,,,,,0,,,80,75
57600,note_off,,,,,192,0,1,,,,,0,,,78,0
57600,note_on,,,,,0,0,5,,,,,4,,,68,75
57600,note_off,,,,,192,0,4,,,,,3,,,71,0
57600,note_off,,,,,192,0,6,,,,,5,,,51,0
57600,note_on,,,,,0,0,6,,,,,5,,,52,75
57600,note_off,,,,,192,0,5,,,,,4,,,71,0
57600,note_off,,,,,192,0,2,,,,,1,,,71,0
57600,note_on,,,,,0,0,2,,,,,1,,,71,75
57600,note_on,,,,,0,0,8,,,,,7,,,52,60
57600,note_on,,,,,0,0,3,,,,,2,,,80,94
57600,note_off,,,,,192,0,3,,,,,2,,,78,0
57600,note_off,,,,,192,0,8,,,,,7,,,51,0
57600,note_on,,,,,0,0,7,,,,,6,,,40,75
57600,note_off,,,,,192,0,7,,,,,6,,,39,0
57792,note_on,,,,,0,0,1,,,,,0,,,83,75
57792,note_off,,,,,192,0,1,,,,,0,,,80,0
57792,note_on,,,,,0,0,3,,,,,2,,,83,94
57792,note_off,,,,,192,0,3,,,,,2,,,80,0
57984,note_on,,,,,0,0,7,,,,,6,,,44,75
57984,note_off,,,,,384,0,7,,,,,6,,,40,0
57984,note_off,,,,,192,0,1,,,,,0,,,83,0
57984,note_off,,,,,384,0,8,,,,,7,,,52,0
57984,note_on,,,,,0,0,6,,,,,5,,,56,75
57984,note_on,,,,,0,0,8,,,,,7,,,56,60
57984,note_on,,,,,0,0,1,,,,,0,,,76,75
57984,note_off,,,,,384,0,6,,,,,5,,,52,0
57984,note_on,,,,,0,0,3,,,,,2,,,76,94
57984,note_off,,,,,192,0,3,,,,,2,,,83,0
58176,note_off,,,,,576,0,4,,,,,3,,,71,0
58176,note_on,,,,,0,0,5,,,,,4,,,71,75
58176,note_on,,,,,0,0,2,,,,,1,,,68,75
58176,note_off,,,,,576,0,2,,,,,1,,,71,0
58176,note_off,,,,,576,0,5,,,,,4,,,68,0
58176,note_on,,,,,0,0,4,,,,,3,,,68,88
58368,note_off,,,,,192,0,4,,,,,3,,,68,0
58368,note_on,,,,,0,0,4,,,,,3,,,64,88
58368,note_on,,,,,0,0,3,,,,,2,,,83,94
58368,note_on,,,,,0,0,1,,,,,0,,,83,75
58368,note_off,,,,,384,0,1,,,,,0,,,76,0
58368,note_off,,,,,384,0,3,,,,,2,,,76,0
58368,note_on,,,,,0,0,5,,,,,4,,,59,75
58368,note_off,,,,,192,0,5,,,,,4,,,71,0
58368,note_on,,,,,0,0,6,,,,,5,,,44,75
58368,note_off,,,,,384,0,6,,,,,5,,,56,0
58368,note_off,,,,,384,0,7,,,,,6,,,44,0
58368,note_off,,,,,192,0,2,,,,,1,,,68,0
58368,note_on,,,,,0,0,2,,,,,1,,,64,75
58368,note_on,,,,,0,0,7,,,,,6,,,32,75
58368,note_on,,,,,0,0,8,,,,,7,,,44,60
58368,note_off,,,,,384,0,8,,,,,7,,,56,0
58560,note_off,,,,,192,0,8,,,,,7,,,44,0
58560,note_on,,,,,0,0,7,,,,,6,,,35,75
58560,note_on,,,,,0,0,8,,,,,7,,,47,60
58560,note_on,,,,,0,0,6,,,,,5,,,47,75
58560,note_off,,,,,192,0,6,,,,,5,,,44,0
58560,note_off,,,,,192,0,7,,,,,6,,,32,0
58752,note_off,,,,,384,0,1,,,,,0,,,83,0
58752,note_on,,,,,0,0,6,,,,,5,,,52,75
58752,note_off,,,,,192,0,6,,,,,5,,,47,0
58752,note_off,,,,,384,0,3,,,,,2,,,83,0
58752,note_on,,,,,0,0,3,,,,,2,,,74,94
58752,note_on,,,,,0,0,7,,,,,6,,,40,75
58752,note_off,,,,,192,0,8,,,,,7,,,47,0
58752,note_on,,,,,0,0,1,,,,,0,,,74,75
58752,note_on,,,,,0,0,8,,,,,7,,,52,60
58752,note_off,,,,,192,0,7,,,,,6,,,35,0
58752,note_on,,,,,0,0,4,,,,,3,,,71,88
58752,note_on,,,,,0,0,2,,,,,1,,,71,75
58752,note_off,,,,,384,0,2,,,,,1,,,64,0
58752,note_off,,,,,384,0,5,,,,,4,,,59,0
58752,note_off,,,,,384,0,4,,,,,3,,,64,0
58752,note_on,,,,,0,0,5,,,,,4,,,68,75
58848,note_on,,,,,0,0,4,,,,,3,,,69,88
58848,note_on,,,,,0,0,1,,,,,0,,,73,75
58848,note_off,,,,,96,0,1,,,,,0,,,74,0
58848,note_off,,,,,96,0,4,,,,,3,,,71,0
58848,note_on,,,,,0,0,3,,,,,2,,,73,94
58848,note_off,,,,,96,0,2,,,,,1,,,71,0
58848,note_on,,,,,0,0,2,,,,,1,,,69,75
58848,note_off,,,,,96,0,3,,,,,2,,,74,0
58944,note_on,,,,,0,0,3,,,,,2,,,74,94
58944,note_on,,,,,0,0,4,,,,,3,,,71,88
58944,note_off,,,,,96,0,4,,,,,3,,,69,0
58944,note_on,,,,,0,0,2,,,,,1,,,71,75
58944,note_off,,,,,96,0,2,,,,,1,,,69,0
58944,note_off,,,,,96,0,1,,,,,0,,,73,0
58944,note_on,,,,,0,0,1,,,,,0,,,74,75
58944,note_off,,,,,96,0,3,,,,,2,,,73,0
59040,note_on,,,,,0,0,4,,,,,3,,,68,88
59040,note_off,,,,,96,0,4,,,,,3,,,71,0
59040,note_on,,,,,0,0,2,,,,,1,,,68,75
59040,note_off,,,,,96,0,2,,,,,1,,,71,0
59040,note_on,,,,,0,0,3,,,,,2,,,71,94
59040,note_on,,,,,0,0,1,,,,,0,,,71,75
59040,note_off,,,,,96,0,1,,,,,0,,,74,0
59040,note_off,,,,,96,0,3,,,,,2,,,74,0
59136,note_on,,,,,0,0,5,,,,,4,,,69,75
59136,note_off,,,,,96,0,3,,,,,2,,,71,0
59136,note_off,,,,,96,0,2,,,,,1,,,68,0
59136,note_on,,,,,0,0,4,,,,,3,,,64,88
59136,note_off,,,,,96,0,4,,,,,3,,,68,0
59136,note_on,,,,,0,0,1,,,,,0,,,73,75
59136,note_off,,,,,384,0,7,,,,,6,,,40,0
59136,note_on,,,,,0,0,7,,,,,6,,,45,75
59136,note_on,,,,,0,0,8,,,,,7,,,57,60
59136,note_off,,,,,384,0,6,,,,,5,,,52,0
59136,note_on,,,,,0,0,6,,,,,5,,,57,75
59136,note_on,,,,,0,0,2,,,,,1,,,64,75
59136,note_off,,,,,384,0,8,,,,,7,,,52,0
59136,note_off,,,,,96,0,1,,,,,0,,,71,0
59136,note_off,,,,,384,0,5,,,,,4,,,68,0
59136,note_on,,,,,0,0,3,,,,,2,,,73,94
59328,note_on,,,,,0,0,5,,,,,4,,,73,75
59328,note_on,,,,,0,0,3,,,,,2,,,76,94
59328,note_off,,,,,192,0,5,,,,,4,,,69,0
59328,note_off,,,,,192,0,3,,,,,2,,,73,0
59328,note_on,,,,,0,0,1,,,,,0,,,76,75
59328,note_off,,,,,192,0,1,,,,,0,,,73,0
59520,note_on,,,,,0,0,6,,,,,5,,,61,75
59520,note_on,,,,,0,0,4,,,,,3,,,76,88
59520,note_off,,,,,384,0,8,,,,,7,,,57,0
59520,note_off,,,,,384,0,6,,,,,5,,,57,0
59520,note_off,,,,,384,0,4,,,,,3,,,64,0
59520,note_on,,,,,0,0,3,,,,,2,,,81,94
59520,note_off,,,,,192,0,1,,,,,0,,,76,0
59520,note_off,,,,,192,0,3,,,,,2,,,76,0
59520,note_on,,,,,0,0,8,,,,,7,,,61,60
59520,note_on,,,,,0,0,5,,,,,4,,,64,75
59520,note_on,,,,,0,0,7,,,,,6,,,49,75
59520,note_off,,,,,384,0,7,,,,,6,,,45,0
59520,note_on,,,,,0,0,2,,,,,1,,,76,75
59520,note_off,,,,,192,0,5,,,,,4,,,73,0
59520,note_off,,,,,384,0,2,,,,,1,,,64,0
59520,note_on,,,,,0,0,1,,,,,0,,,81,75
59712,note_on,,,,,0,0,4,,,,,3,,,73,88
59712,note_off,,,,,192,0,8,,,,,7,,,61,0
59712,note_on,,,,,0,0,6,,,,,5,,,64,75
59712,note_off,,,,,192,0,4,,,,,3,,,76,0
59712,note_off,,,,,192,0,6,,,,,5,,,61,0
59712,note_on,,,,,0,0,8,,,,,7,,,64,60
59712,note_on,,,,,0,0,7,,,,,6,,,52,75
59712,note_off,,,,,192,0,7,,,,,6,,,49,0
59712,note_off,,,,,192,0,2,,,,,1,,,76,0
59712,note_on,,,,,0,0,2,,,,,1,,,73,75
59904,note_off,,,,,192,0,8,,,,,7,,,64,0
59904,note_on,,,,,0,0,3,,,,,2,,,85,94
59904,note_off,,,,,384,0,3,,,,,2,,,81,0
59904,note_on,,,,,0,0,8,,,,,7,,,58,60
59904,note_off,,,,,384,0,5,,,,,4,,,64,0
59904,note_on,,,,,0,0,2,,,,,1,,,66,75
59904,note_off,,,,,192,0,2,,,,,1,,,73,0
59904,note_on,,,,,0,0,5,,,,,4,,,61,75
59904,note_off,,,,,192,0,4,,,,,3,,,73,0
59904,note_off,,,,,192,0,6,,,,,5,,,64,0
59904,note_on,,,,,0,0,6,,,,,5,,,58,75
59904,note_off,,,,,384,0,1,,,,,0,,,81,0
59904,note_on,,,,,0,0,1,,,,,0,,,85,75
59904,note_on,,,,,0,0,4,,,,,3,,,66,88
59904,note_off,,,,,192,0,7,,,,,6,,,52,0
59904,note_on,,,,,0,0,7,,,,,6,,,46,75
60096,note_on,,,,,0,0,6,,,,,5,,,61,75
60096,note_off,,,,,192,0,7,,,,,6,,,46,0
60096,note_off,,,,,192,0,6,,,,,5,,,58,0
60096,note_on,,,,,0,0,8,,,,,7,,,61,60
60096,note_off,,,,,192,0,8,,,,,7,,,58,0
60096,note_on,,,,,0,0,7,,,,,6,,,49,75
60288,note_off,,,,,384,0,4,,,,,3,,,66,0
60288,note_on,,,,,0,0,2,,,,,1,,,73,75
60288,note_on,,,,,0,0,4,,,,,3,,,73,88
60288,note_off,,,,,192,0,8,,,,,7,,,61,0
60288,note_off,,,,,384,0,2,,,,,1,,,66,0
60288,note_on,,,,,0,0,8,,,,,7,,,54,60
60288,note_on,,,,,0,0,3,,,,,2,,,76,94
60288,note_off,,,,,192,0,7,,,,,6,,,49,0
60288,note_on,,,,,0,0,7,,,,,6,,,42,75
60288,note_on,,,,,0,0,1,,,,,0,,,76,75
60288,note_off,,,,,384,0,1,,,,,0,,,85,0
60288,note_on,,,,,0,0,6,,,,,5,,,54,75
60288,note_off,,,,,192,0,6,,,,,5,,,61,0
60288,note_off,,,,,384,0,5,,,,,4,,,61,0
60288,note_on,,,,,0,0,5,,,,,4,,,70,75
60288,note_off,,,,,384,0,3,,,,,2,,,85,0
60384,note_on,,,,,0,0,4,,,,,3,,,71,88
60384,note_off,,,,,96,0,4,,,,,3,,,73,0
60384,note_on,,,,,0,0,1,,,,,0,,,75,75
60384,note_off,,,,,96,0,1,,,,,0,,,76,0
60384,note_off,,,,,96,0,3,,,,,2,,,76,0
60384,note_on,,,,,0,0,3,,,,,2,,,75,94
60384,note_on,,,,,0,0,2,,,,,1,,,71,75
60384,note_off,,,,,96,0,2,,,,,1,,,73,0
60480,note_on,,,,,0,0,3,,,,,2,,,76,94
60480,note_off,,,,,96,0,3,,,,,2,,,75,0
60480,note_on,,,,,0,0,1,,,,,0,,,76,75
60480,note_on,,,,,0,0,2,,,,,1,,,73,75
60480,note_off,,,,,96,0,2,,,,,1,,,71,0
60480,note_off,,,,,96,0,4,,,,,3,,,71,0
60480,note_on,,,,,0,0,4,,,,,3,,,73,88
60480,note_off,,,,,96,0,1,,,,,0,,,75,0
60480,note_on,,,,,0,0,5,,,,,4,,,66,75
60480,note_off,,,,,192,0,5,,,,,4,,,70,0
60576,note_on,,,,,0,0,4,,,,,3,,,70,88
60576,note_on,,,,,0,0,3,,,,,2,,,73,94
60576,note_off,,,,,96,0,4,,,,,3,,,73,0
60576,note_off,,,,,96,0,1,,,,,0,,,76,0
60576,note_on,,,,,0,0,1,,,,,0,,,73,75
60576,note_on,,,,,0,0,2,,,,,1,,,70,75
60576,note_off,,,,,96,0,2,,,,,1,,,73,0
60576,note_off,,,,,96,0,3,,,,,2,,,76,0
60672,note_on,,,,,0,0,5,,,,,4,,,66,75
60672,note_off,,,,,192,0,5,,,,,4,,,66,0
60672,note_on,,,,,0,0,6,,,,,5,,,47,75
60672,note_off,,,,,384,0,6,,,,,5,,,54,0
60672,note_on,,,,,0,0,7,,,,,6,,,35,75
60672,note_off,,,,,384,0,7,,,,,6,,,42,0
60672,note_off,,,,,96,0,1,,,,,0,,,73,0
60672,note_on,,,,,0,0,1,,,,,0,,,75,75
60672,note_on,,,,,0,0,8,,,,,7,,,47,60
60672,note_on,,,,,0,0,4,,,,,3,,,71,88
60672,note_off,,,,,384,0,8,,,,,7,,,54,0
60672,note_off,,,,,96,0,2,,,,,1,,,70,0
60672,note_on,,,,,0,0,2,,,,,1,,,71,75
60672,note_on,,,,,0,0,3,,,,,2,,,75,94
60672,note_off,,,,,96,0,3,,,,,2,,,73,0
60672,note_off,,,,,96,0,4,,,,,3,,,70,0
60864,note_off,,,,,192,0,3,,,,,2,,,75,0
60864,note_off,,,,,192,0,1,,,,,0,,,75,0
60864,note_on,,,,,0,0,1,,,,,0,,,78,75
60864,note_on,,,,,0,0,3,,,,,2,,,78,94
61056,note_off,,,,,384,0,7,,,,,6,,,35,0
61056,note_off,,,,,192,0,1,,,,,0,,,78,0
61056,note_off,,,,,384,0,6,,,,,5,,,47,0
61056,note_off,,,,,384,0,5,,,,,4,,,66,0
61056,note_off,,,,,384,0,4,,,,,3,,,71,0
61056,note_off,,,,,384,0,8,,,,,7,,,47,0
61056,note_off,,,,,384,0,2,,,,,1,,,71,0
61056,note_off,,,,,192,0,3,,,,,2,,,78,0
61056,note_on,,,,,0,0,3,,,,,2,,,71,94
61056,note_on,,,,,0,0,1,,,,,0,,,71,75
61248,note_off,,,,,192,0,1,,,,,0,,,71,0
61248,note_on,,,,,0,0,1,,,,,0,,,81,75
61248,note_on,,,,,0,0,3,,,,,2,,,81,94
61248,note_off,,,,,192,0,3,,,,,2,,,71,0
61440,note_off,,,,,192,0,1,,,,,0,,,81,0
61440,note_on,,,,,0,0,1,,,,,0,,,80,75
61440,note_on,,,,,0,0,3,,,,,2,,,80,94
61440,note_off,,,,,192,0,3,,,,,2,,,81,0
61536,note_off,,,,,96,0,3,,,,,2,,,80,0
61536,note_on,,,,,0,0,1,,,,,0,,,78,75
61536,note_off,,,,,96,0,1,,,,,0,,,80,0
61536,note_on,,,,,0,0,3,,,,,2,,,78,94
61632,note_on,,,,,0,0,3,,,,,2,,,76,94
61632,note_on,,,,,0,0,1,,,,,0,,,76,75
61632,note_off,,,,,96,0,1,,,,,0,,,78,0
61632,note_off,,,,,96,0,3,,,,,2,,,78,0
61824,note_on,,,,,0,0,1,,,,,0,,,78,75
61824,note_off,,,,,192,0,3,,,,,2,,,76,0
61824,note_on,,,,,0,0,3,,,,,2,,,78,94
61824,note_off,,,,,192,0,1,,,,,0,,,76,0
61872,note_off,,,,,48,0,3,,,,,2,,,78,0
61872,note_off,,,,,48,0,1,,,,,0,,,78,0
61872,note_on,,,,,0,0,1,,,,,0,,,76,75
61872,note_on,,,,,0,0,3,,,,,2,,,76,94
61920,note_off,,,,,48,0,1,,,,,0,,,76,0
61920,note_on,,,,,0,0,3,,,,,2,,,78,94
61920,note_off,,,,,48,0,3,,,,,2,,,76,0
61920,note_on,,,,,0,0,1,,,,,0,,,78,75
61968,note_on,,,,,0,0,3,,,,,2,,,76,94
61968,note_off,,,,,48,0,3,,,,,2,,,78,0
61968,note_off,,,,,48,0,1,,,,,0,,,78,0
61968,note_on,,,,,0,0,1,,,,,0,,,76,75
62016,note_on,,,,,960,0,8,,,,,7,,,57,60
62016,note_off,,,,,48,0,1,,,,,0,,,76,0
62016,note_on,,,,,960,0,4,,,,,3,,,73,88
62016,note_on,,,,,960,0,7,,,,,6,,,45,75
62016,note_on,,,,,960,0,2,,,,,1,,,73,75
62016,note_on,,,,,960,0,6,,,,,5,,,57,75
62016,note_on,,,,,0,0,3,,,,,2,,,78,94
62016,note_on,,,,,0,0,1,,,,,0,,,78,75
62016,note_off,,,,,48,0,3,,,,,2,,,76,0
62064,note_off,,,,,48,0,1,,,,,0,,,78,0
62064,note_on,,,,,0,0,1,,,,,0,,,76,75
62064,note_off,,,,,48,0,3,,,,,2,,,78,0
62064,note_on,,,,,0,0,3,,,,,2,,,76,94
62208,note_on,,,,,0,0,2,,,,,1,,,71,75
62208,note_off,,,,,144,0,3,,,,,2,,,76,0
62208,note_on,,,,,0,0,1,,,,,0,,,78,75
62208,note_off,,,,,144,0,1,,,,,0,,,76,0
62208,note_on,,,,,0,0,4,,,,,3,,,71,88
62208,note_off,,,,,192,0,4,,,,,3,,,73,0
62208,note_on,,,,,0,0,8,,,,,7,,,56,60
62208,note_off,,,,,192,0,8,,,,,7,,,57,0
62208,note_off,,,,,192,0,6,,,,,5,,,57,0
62208,note_off,,,,,192,0,2,,,,,1,,,73,0
62208,note_on,,,,,0,0,6,,,,,5,,,56,75
62208,note_on,,,,,0,0,3,,,,,2,,,78,94
62208,note_on,,,,,0,0,7,,,,,6,,,44,75
62208,note_off,,,,,192,0,7,,,,,6,,,45,0
62256,note_on,,,,,0,0,1,,,,,0,,,76,75
62256,note_off,,,,,48,0,1,,,,,0,,,78,0
62256,note_off,,,,,48,0,3,,,,,2,,,78,0
62256,note_on,,,,,0,0,3,,,,,2,,,76,94
62304,note_off,,,,,96,0,7,,,,,6,,,44,0
62304,note_off,,,,,48,0,1,,,,,0,,,76,0
62304,note_on,,,,,0,0,4,,,,,3,,,69,88
62304,note_off,,,,,96,0,4,,,,,3,,,71,0
62304,note_on,,,,,0,0,8,,,,,7,,,54,60
62304,note_on,,,,,0,0,7,,,,,6,,,42,75
62304,note_off,,,,,96,0,8,,,,,7,,,56,0
62304,note_on,,,,,0,0,3,,,,,2,,,78,94
62304,note_off,,,,,96,0,6,,,,,5,,,56,0
62304,note_on,,,,,0,0,6,,,,,5,,,54,75
62304,note_on,,,,,0,0,2,,,,,1,,,69,75
62304,note_off,,,,,96,0,2,,,,,1,,,71,0
62304,note_off,,,,,48,0,3,,,,,2,,,76,0
62304,note_on,,,,,0,0,1,,,,,0,,,78,75
62352,note_on,,,,,0,0,1,,,,,0,,,76,75
62352,note_off,,,,,48,0,1,,,,,0,,,78,0
62352,note_on,,,,,0,0,3,,,,,2,,,76,94
62352,note_off,,,,,48,0,3,,,,,2,,,78,0
62400,note_off,,,,,48,0,1,,,,,0,,,76,0
62400,note_on,,,,,0,0,1,,,,,0,,,78,75
62400,note_off,,,,,96,0,7,,,,,6,,,42,0
62400,note_on,,,,,0,0,6,,,,,5,,,52,75
62400,note_off,,,,,96,0,6,,,,,5,,,54,0
62400,note_on,,,,,0,0,4,,,,,3,,,68,88
62400,note_on,,,,,0,0,7,,,,,6,,,40,75
62400,note_off,,,,,96,0,8,,,,,7,,,54,0
62400,note_off,,,,,96,0,2,,,,,1,,,69,0
62400,note_on,,,,,0,0,2,,,,,1,,,68,75
62400,note_on,,,,,0,0,3,,,,,2,,,78,94
62400,note_off,,,,,48,0,3,,,,,2,,,76,0
62400,note_on,,,,,0,0,8,,,,,7,,,52,60
62400,note_off,,,,,96,0,4,,,,,3,,,69,0
62448,note_on,,,,,0,0,3,,,,,2,,,76,94
62448,note_on,,,,,0,0,1,,,,,0,,,76,75
62448,note_off,,,,,48,0,1,,,,,0,,,78,0
62448,note_off,,,,,48,0,3,,,,,2,,,78,0
62592,note_off,,,,,144,0,3,,,,,2,,,76,0
62592,note_on,,,,,0,0,2,,,,,1,,,68,75
62592,note_on,,,,,0,0,7,,,,,6,,,40,75
62592,note_off,,,,,192,0,7,,,,,6,,,40,0
62592,note_on,,,,,0,0,8,,,,,7,,,52,60
62592,note_off,,,,,192,0,8,,,,,7,,,52,0
62592,note_off,,,,,192,0,6,,,,,5,,,52,0
62592,note_off,,,,,192,0,2,,,,,1,,,68,0
62592,note_off,,,,,144,0,1,,,,,0,,,76,0
62592,note_on,,,,,0,0,6,,,,,5,,,52,75
62592,note_on,,,,,0,0,4,,,,,3,,,68,88
62592,note_off,,,,,192,0,4,,,,,3,,,68,0
62592,note_on,,,,,0,0,3,,,,,2,,,76,94
62592,note_on,,,,,0,0,1,,,,,0,,,76,75
62784,note_off,,,,,192,0,1,,,,,0,,,76,0
62784,note_on,,,,,1728,0,5,,,,,4,,,61,75
62784,note_off,,,,,192,0,3,,,,,2,,,76,0
62784,note_on,,,,,0,0,3,,,,,2,,,81,94
62784,note_on,,,,,0,0,1,,,,,0,,,81,75
62976,note_off,,,,,384,0,2,,,,,1,,,68,0
62976,note_off,,,,,192,0,3,,,,,2,,,81,0
62976,note_off,,,,,384,0,7,,,,,6,,,40,0
62976,note_on,,,,,0,0,2,,,,,1,,,68,75
62976,note_on,,,,,0,0,3,,,,,2,,,80,94
62976,note_on,,,,,0,0,4,,,,,3,,,68,88
62976,note_on,,,,,0,0,7,,,,,6,,,40,75
62976,note_off,,,,,384,0,4,,,,,3,,,68,0
62976,note_on,,,,,0,0,6,,,,,5,,,52,75
62976,note_on,,,,,0,0,5,,,,,4,,,59,75
62976,note_off,,,,,192,0,1,,,,,0,,,81,0
62976,note_on,,,,,0,0,1,,,,,0,,,80,75
62976,note_off,,,,,384,0,8,,,,,7,,,52,0
62976,note_off,,,,,192,0,5,,,,,4,,,61,0
62976,note_on,,,,,0,0,8,,,,,7,,,52,60
62976,note_off,,,,,384,0,6,,,,,5,,,52,0
63072,note_off,,,,,96,0,3,,,,,2,,,80,0
63072,note_on,,,,,0,0,5,,,,,4,,,57,75
63072,note_off,,,,,96,0,5,,,,,4,,,59,0
63072,note_on,,,,,0,0,3,,,,,2,,,78,94
63072,note_on,,,,,0,0,1,,,,,0,,,78,75
63072,note_off,,,,,96,0,1,,,,,0,,,80,0
63168,note_off,,,,,96,0,1,,,,,0,,,78,0
63168,note_on,,,,,0,0,1,,,,,0,,,76,75
63168,note_off,,,,,96,0,3,,,,,2,,,78,0
63168,note_on,,,,,0,0,3,,,,,2,,,76,94
63168,note_off,,,,,96,0,5,,,,,4,,,57,0
63168,note_on,,,,,0,0,5,,,,,4,,,56,75
63360,note_off,,,,,192,0,5,,,,,4,,,56,0
63360,note_off,,,,,384,0,4,,,,,3,,,68,0
63360,note_off,,,,,384,0,6,,,,,5,,,52,0
63360,note_on,,,,,0,0,5,,,,,4,,,68,75
63360,note_off,,,,,192,0,3,,,,,2,,,76,0
63360,note_off,,,,,384,0,7,,,,,6,,,40,0
63360,note_off,,,,,384,0,8,,,,,7,,,52,0
63360,note_on,,,,,0,0,3,,,,,2,,,78,94
63360,note_on,,,,,0,0,1,,,,,0,,,78,75
63360,note_off,,,,,384,0,2,,,,,1,,,68,0
63360,note_off,,,,,192,0,1,,,,,0,,,76,0
63408,note_on,,,,,0,0,3,,,,,2,,,76,94
63408,note_off,,,,,48,0,3,,,,,2,,,78,0
63408,note_on,,,,,0,0,1,,,,,0,,,76,75
63408,note_off,,,,,48,0,1,,,,,0,,,78,0
63456,note_off,,,,,96,0,5,,,,,4,,,68,0
63456,note_off,,,,,48,0,3,,,,,2,,,76,0
63456,note_on,,,,,0,0,3,,,,,2,,,78,94
63456,note_on,,,,,0,0,1,,,,,0,,,78,75
63456,note_off,,,,,48,0,1,,,,,0,,,76,0
63456,note_on,,,,,0,0,5,,,,,4,,,66,75
63504,note_on,,,,,0,0,3,,,,,2,,,76,94
63504,note_off,,,,,48,0,3,,,,,2,,,78,0
63504,note_off,,,,,48,0,1,,,,,0,,,78,0
63504,note_on,,,,,0,0,1,,,,,0,,,76,75
63552,note_on,,,,,192,0,6,,,,,5,,,57,75
63552,note_on,,,,,192,0,8,,,,,7,,,57,60
63552,note_on,,,,,192,0,7,,,,,6,,,45,75
63552,note_off,,,,,48,0,3,,,,,2,,,76,0
63552,note_off,,,,,48,0,1,,,,,0,,,76,0
63552,note_on,,,,,0,0,3,,,,,2,,,78,94
63552,note_on,,,,,0,0,5,,,,,4,,,64,75
63552,note_off,,,,,96,0,5,,,,,4,,,66,0
63552,note_on,,,,,192,0,4,,,,,3,,,73,88
63552,note_on,,,,,0,0,1,,,,,0,,,78,75
63552,note_on,,,,,192,0,2,,,,,1,,,73,75
63600,note_off,,,,,48,0,1,,,,,0,,,78,0
63600,note_on,,,,,0,0,1,,,,,0,,,76,75
63600,note_off,,,,,48,0,3,,,,,2,,,78,0
63600,note_on,,,,,0,0,3,,,,,2,,,76,94
63744,note_off,,,,,144,0,1,,,,,0,,,76,0
63744,note_on,,,,,0,0,1,,,,,0,,,78,75
63744,note_on,,,,,0,0,3,,,,,2,,,78,94
63744,note_off,,,,,144,0,3,,,,,2,,,76,0
63744,note_off,,,,,192,0,2,,,,,1,,,73,0
63744,note_off,,,,,192,0,7,,,,,6,,,45,0
63744,note_on,,,,,0,0,2,,,,,1,,,71,75
63744,note_on,,,,,0,0,4,,,,,3,,,71,88
63744,note_on,,,,,0,0,5,,,,,4,,,64,75
63744,note_off,,,,,192,0,5,,,,,4,,,64,0
63744,note_on,,,,,0,0,8,,,,,7,,,56,60
63744,note_on,,,,,0,0,7,,,,,6,,,44,75
63744,note_on,,,,,0,0,6,,,,,5,,,56,75
63744,note_off,,,,,192,0,6,,,,,5,,,57,0
63744,note_off,,,,,192,0,8,,,,,7,,,57,0
63744,note_off,,,,,192,0,4,,,,,3,,,73,0
63792,note_on,,,,,0,0,1,,,,,0,,,76,75
63792,note_off,,,,,48,0,3,,,,,2,,,78,0
63792,note_on,,,,,0,0,3,,,,,2,,,76,94
63792,note_off,,,,,48,0,1,,,,,0,,,78,0
63840,note_on,,,,,0,0,7,,,,,6,,,42,75
63840,note_on,,,,,0,0,6,,,,,5,,,54,75
63840,note_on,,,,,0,0,4,,,,,3,,,69,88
63840,note_off,,,,,96,0,6,,,,,5,,,56,0
63840,note_off,,,,,96,0,7,,,,,6,,,44,0
63840,note_off,,,,,96,0,2,,,,,1,,,71,0
63840,note_off,,,,,96,0,8,,,,,7,,,56,0
63840,note_on,,,,,0,0,8,,,,,7,,,54,60
63840,note_off,,,,,48,0,1,,,,,0,,,76,0
63840,note_on,,,,,0,0,1,,,,,0,,,78,75
63840,note_off,,,,,48,0,3,,,,,2,,,76,0
63840,note_on,,,,,0,0,3,,,,,2,,,78,94
63840,note_on,,,,,0,0,2,,,,,1,,,69,75
63840,note_off,,,,,96,0,4,,,,,3,,,71,0
63888,note_off,,,,,48,0,3,,,,,2,,,78,0
63888,note_on,,,,,0,0,3,,,,,2,,,76,94
63888,note_off,,,,,48,0,1,,,,,0,,,78,0
63888,note_on,,,,,0,0,1,,,,,0,,,76,75
63936,note_off,,,,,96,0,4,,,,,3,,,69,0
63936,note_on,,,,,0,0,4,,,,,3,,,68,88
63936,note_on,,,,,0,0,6,,,,,5,,,52,75
63936,note_off,,,,,96,0,6,,,,,5,,,54,0
63936,note_off,,,,,96,0,7,,,,,6,,,42,0
63936,note_on,,,,,0,0,8,,,,,7,,,52,60
63936,note_on,,,,,0,0,2,,,,,1,,,68,75
63936,note_off,,,,,96,0,2,,,,,1,,,69,0
63936,note_off,,,,,48,0,3,,,,,2,,,76,0
63936,note_off,,,,,48,0,1,,,,,0,,,76,0
63936,note_on,,,,,0,0,1,,,,,0,,,78,75
63936,note_on,,,,,0,0,3,,,,,2,,,78,94
63936,note_on,,,,,0,0,7,,,,,6,,,40,75
63936,note_off,,,,,96,0,8,,,,,7,,,54,0
63984,note_off,,,,,48,0,1,,,,,0,,,78,0
63984,note_on,,,,,0,0,3,,,,,2,,,76,94
63984,note_on,,,,,0,0,1,,,,,0,,,76,75
63984,note_off,,,,,48,0,3,,,,,2,,,78,0
64128,note_on,,,,,0,0,4,,,,,3,,,68,88
64128,note_off,,,,,192,0,4,,,,,3,,,68,0
64128,note_off,,,,,192,0,6,,,,,5,,,52,0
64128,note_on,,,,,0,0,6,,,,,5,,,52,75
64128,note_on,,,,,0,0,7,,,,,6,,,40,75
64128,note_off,,,,,192,0,7,,,,,6,,,40,0
64128,note_on,,,,,0,0,5,,,,,4,,,59,75
64128,note_on,,,,,0,0,2,,,,,1,,,68,75
64128,note_off,,,,,192,0,2,,,,,1,,,68,0
64128,note_off,,,,,192,0,8,,,,,7,,,52,0
64128,note_on,,,,,0,0,8,,,,,7,,,52,60
64128,note_off,,,,,384,0,5,,,,,4,,,64,0
64128,note_off,,,,,144,0,3,,,,,2,,,76,0
64128,note_on,,,,,0,0,3,,,,,2,,,76,94
64128,note_on,,,,,0,0,1,,,,,0,,,76,75
64128,note_off,,,,,144,0,1,,,,,0,,,76,0
64320,note_on,,,,,0,0,2,,,,,1,,,66,75
64320,note_off,,,,,192,0,1,,,,,0,,,76,0
64320,note_on,,,,,0,0,4,,,,,3,,,66,88
64320,note_off,,,,,192,0,4,,,,,3,,,68,0
64320,note_off,,,,,192,0,3,,,,,2,,,76,0
64320,note_on,,,,,0,0,3,,,,,2,,,78,94
64320,note_on,,,,,0,0,1,,,,,0,,,78,75
64320,note_on,,,,,0,0,5,,,,,4,,,63,75
64320,note_off,,,,,192,0,5,,,,,4,,,59,0
64320,note_off,,,,,192,0,2,,,,,1,,,68,0
64512,note_off,,,,,192,0,2,,,,,1,,,66,0
64512,note_on,,,,,0,0,2,,,,,1,,,64,75
64512,note_off,,,,,192,0,3,,,,,2,,,78,0
64512,note_on,,,,,0,0,1,,,,,0,,,80,75
64512,note_off,,,,,384,0,6,,,,,5,,,52,0
64512,note_off,,,,,192,0,1,,,,,0,,,78,0
64512,note_off,,,,,384,0,7,,,,,6,,,40,0
64512,note_on,,,,,0,0,7,,,,,6,,,40,75
64512,note_on,,,,,0,0,3,,,,,2,,,80,94
64512,note_off,,,,,384,0,8,,,,,7,,,52,0
64512,note_on,,,,,0,0,8,,,,,7,,,52,60
64512,note_off,,,,,192,0,5,,,,,4,,,63,0
64512,note_on,,,,,0,0,5,,,,,4,,,71,75
64512,note_off,,,,,192,0,4,,,,,3,,,66,0
64512,note_on,,,,,0,0,6,,,,,5,,,52,75
64512,note_on,,,,,0,0,4,,,,,3,,,64,88
64608,note_off,,,,,96,0,1,,,,,0,,,80,0
64608,note_on,,,,,0,0,1,,,,,0,,,78,75
64608,note_off,,,,,96,0,3,,,,,2,,,80,0
64608,note_on,,,,,0,0,3,,,,,2,,,78,94
64704,note_off,,,,,96,0,1,,,,,0,,,78,0
64704,note_on,,,,,0,0,1,,,,,0,,,76,75
64704,note_off,,,,,96,0,3,,,,,2,,,78,0
64704,note_on,,,,,0,0,3,,,,,2,,,76,94
64896,note_off,,,,,384,0,2,,,,,1,,,64,0
64896,note_on,,,,,0,0,5,,,,,4,,,69,75
64896,note_off,,,,,384,0,5,,,,,4,,,71,0
64896,note_off,,,,,192,0,3,,,,,2,,,76,0
64896,note_on,,,,,0,0,3,,,,,2,,,81,94
64896,note_on,,,,,0,0,8,,,,,7,,,54,60
64896,note_off,,,,,384,0,8,,,,,7,,,52,0
64896,note_on,,,,,0,0,6,,,,,5,,,54,75
64896,note_off,,,,,384,0,6,,,,,5,,,52,0
64896,note_on,,,,,0,0,2,,,,,1,,,63,75
64896,note_on,,,,,0,0,4,,,,,3,,,63,88
64896,note_off,,,,,384,0,4,,,,,3,,,64,0
64896,note_off,,,,,192,0,1,,,,,0,,,76,0
64896,note_off,,,,,384,0,7,,,,,6,,,40,0
64896,note_on,,,,,0,0,7,,,,,6,,,42,75
64896,note_on,,,,,0,0,1,,,,,0,,,81,75
64992,note_off,,,,,96,0,1,,,,,0,,,81,0
64992,note_on,,,,,0,0,1,,,,,0,,,80,75
64992,note_on,,,,,0,0,3,,,,,2,,,80,94
64992,note_off,,,,,96,0,3,,,,,2,,,81,0
65088,note_off,,,,,96,0,3,,,,,2,,,80,0
65088,note_on,,,,,0,0,3,,,,,2,,,78,94
65088,note_off,,,,,96,0,1,,,,,0,,,80,0
65088,note_on,,,,,0,0,1,,,,,0,,,78,75
65280,note_on,,,,,0,0,6,,,,,5,,,56,75
65280,note_on,,,,,0,0,3,,,,,2,,,83,94
65280,note_off,,,,,384,0,4,,,,,3,,,63,0
65280,note_on,,,,,0,0,4,,,,,3,,,64,88
65280,note_on,,,,,0,0,7,,,,,6,,,44,75
65280,note_off,,,,,384,0,7,,,,,6,,,42,0
65280,note_off,,,,,192,0,3,,,,,2,,,78,0
65280,note_off,,,,,384,0,6,,,,,5,,,54,0
65280,note_on,,,,,0,0,5,,,,,4,,,68,75
65280,note_on,,,,,0,0,1,,,,,0,,,83,75
65280,note_off,,,,,192,0,1,,,,,0,,,78,0
65280,note_off,,,,,384,0,8,,,,,7,,,54,0
65280,note_on,,,,,0,0,8,,,,,7,,,56,60
65280,note_off,,,,,384,0,2,,,,,1,,,63,0
65280,note_on,,,,,0,0,2,,,,,1,,,64,75
65280,note_off,,,,,384,0,5,,,,,4,,,69,0
65472,note_on,,,,,0,0,1,,,,,0,,,75,75
65472,note_off,,,,,192,0,1,,,,,0,,,83,0
65472,note_off,,,,,192,0,3,,,,,2,,,83,0
65472,note_on,,,,,0,0,5,,,,,4,,,71,75
65472,note_off,,,,,192,0,5,,,,,4,,,68,0
65472,note_on,,,,,0,0,3,,,,,2,,,75,94
65664,note_off,,,,,192,0,3,,,,,2,,,75,0
65664,note_on,,,,,0,0,3,,,,,2,,,76,94
65664,note_on,,,,,0,0,5,,,,,4,,,59,75
65664,note_off,,,,,192,0,5,,,,,4,,,71,0
65664,note_off,,,,,192,0,1,,,,,0,,,75,0
65664,note_on,,,,,0,0,1,,,,,0,,,76,75
65856,note_off,,,,,576,0,2,,,,,1,,,64,0
65856,note_on,,,,,0,0,2,,,,,1,,,66,75
65856,note_on,,,,,0,0,4,,,,,3,,,66,88
65856,note_off,,,,,576,0,4,,,,,3,,,64,0
65856,note_off,,,,,192,0,1,,,,,0,,,76,0
65856,note_off,,,,,576,0,6,,,,,5,,,56,0
65856,note_off,,,,,576,0,8,,,,,7,,,56,0
65856,note_on,,,,,0,0,8,,,,,7,,,57,60
65856,note_on,,,,,0,0,1,,,,,0,,,69,75
65856,note_on,,,,,0,0,5,,,,,4,,,61,75
65856,note_on,,,,,0,0,6,,,,,5,,,57,75
65856,note_off,,,,,192,0,5,,,,,4,,,59,0
65856,note_on,,,,,0,0,3,,,,,2,,,69,94
65856,note_off,,,,,192,0,3,,,,,2,,,76,0
65856,note_on,,,,,0,0,7,,,,,6,,,45,75
65856,note_off,,,,,576,0,7,,,,,6,,,44,0
66048,note_on,,,,,0,0,1,,,,,0,,,68,75
66048,note_off,,,,,192,0,3,,,,,2,,,69,0
66048,note_off,,,,,192,0,4,,,,,3,,,66,0
66048,note_off,,,,,192,0,1,,,,,0,,,69,0
66048,note_on,,,,,0,0,3,,,,,2,,,68,94
66048,note_on,,,,,0,0,2,,,,,1,,,68,75
66048,note_off,,,,,192,0,2,,,,,1,,,66,0
66048,note_off,,,,,192,0,7,,,,,6,,,45,0
66048,note_off,,,,,192,0,6,,,,,5,,,57,0
66048,note_off,,,,,192,0,8,,,,,7,,,57,0
66048,note_on,,,,,0,0,4,,,,,3,,,68,88
66048,note_on,,,,,0,0,8,,,,,7,,,59,60
66048,note_on,,,,,0,0,5,,,,,4,,,59,75
66048,note_off,,,,,192,0,5,,,,,4,,,61,0
66048,note_on,,,,,0,0,7,,,,,6,,,47,75
66048,note_on,,,,,0,0,6,,,,,5,,,59,75
66240,note_off,,,,,192,0,7,,,,,6,,,47,0
66240,note_off,,,,,192,0,3,,,,,2,,,68,0
66240,note_on,,,,,0,0,3,,,,,2,,,76,94
66240,note_off,,,,,192,0,6,,,,,5,,,59,0
66240,note_on,,,,,0,0,1,,,,,0,,,76,75
66240,note_on,,,,,0,0,6,,,,,5,,,61,75
66240,note_off,,,,,192,0,1,,,,,0,,,68,0
66240,note_on,,,,,0,0,8,,,,,7,,,61,60
66240,note_off,,,,,192,0,5,,,,,4,,,59,0
66240,note_on,,,,,0,0,5,,,,,4,,,64,75
66240,note_off,,,,,192,0,8,,,,,7,,,59,0
66240,note_on,,,,,0,0,7,,,,,6,,,49,75
66432,note_on,,,,,0,0,2,,,,,1,,,66,75
66432,note_on,,,,,0,0,7,,,,,6,,,45,75
66432,note_on,,,,,0,0,3,,,,,2,,,66,94
66432,note_off,,,,,192,0,1,,,,,0,,,76,0
66432,note_off,,,,,192,0,5,,,,,4,,,64,0
66432,note_on,,,,,0,0,5,,,,,4,,,61,75
66432,note_off,,,,,192,0,7,,,,,6,,,49,0
66432,note_off,,,,,192,0,3,,,,,2,,,76,0
66432,note_on,,,,,0,0,1,,,,,0,,,66,75
66432,note_on,,,,,0,0,6,,,,,5,,,57,75
66432,note_off,,,,,192,0,6,,,,,5,,,61,0
66432,note_on,,,,,0,0,4,,,,,3,,,66,88
66432,note_off,,,,,384,0,4,,,,,3,,,68,0
66432,note_off,,,,,384,0,2,,,,,1,,,68,0
66432,note_off,,,,,192,0,8,,,,,7,,,61,0
66432,note_on,,,,,0,0,8,,,,,7,,,57,60
66624,note_off,,,,,192,0,1,,,,,0,,,66,0
66624,note_on,,,,,0,0,1,,,,,0,,,75,75
66624,note_off,,,,,192,0,5,,,,,4,,,61,0
66624,note_on,,,,,0,0,3,,,,,2,,,75,94
66624,note_off,,,,,192,0,3,,,,,2,,,66,0
66624,note_on,,,,,0,0,8,,,,,7,,,59,60
66624,note_on,,,,,0,0,5,,,,,4,,,59,75
66624,note_on,,,,,0,0,6,,,,,5,,,59,75
66624,note_on,,,,,0,0,7,,,,,6,,,47,75
66624,note_off,,,,,192,0,7,,,,,6,,,45,0
66624,note_off,,,,,192,0,6,,,,,5,,,57,0
66624,note_off,,,,,192,0,8,,,,,7,,,57,0
66816,note_on,,,,,0,0,4,,,,,3,,,68,88
66816,note_on,,,,,0,0,2,,,,,1,,,68,75
66816,note_off,,,,,192,0,5,,,,,4,,,59,0
66816,note_on,,,,,0,0,5,,,,,4,,,59,75
66816,note_off,,,,,384,0,4,,,,,3,,,66,0
66816,note_on,,,,,0,0,6,,,,,5,,,52,75
66816,note_off,,,,,192,0,1,,,,,0,,,75,0
66816,note_on,,,,,0,0,8,,,,,7,,,52,60
66816,note_on,,,,,0,0,7,,,,,6,,,40,75
66816,note_on,,,,,0,0,1,,,,,0,,,76,75
66816,note_off,,,,,192,0,8,,,,,7,,,59,0
66816,note_on,,,,,0,0,3,,,,,2,,,76,94
66816,note_off,,,,,192,0,3,,,,,2,,,75,0
66816,note_off,,,,,192,0,6,,,,,5,,,59,0
66816,note_off,,,,,192,0,7,,,,,6,,,47,0
66816,note_off,,,,,384,0,2,,,,,1,,,66,0
67200,note_off,,,,,384,0,1,,,,,0,,,76,0
67200,note_off,,,,,384,0,2,,,,,1,,,68,0
67200,note_off,,,,,384,0,5,,,,,4,,,59,0
67200,note_off,,,,,384,0,8,,,,,7,,,52,0
67200,note_off,,,,,384,0,4,,,,,3,,,68,0
67200,note_off,,,,,384,0,7,,,,,6,,,40,0
67200,note_off,,,,,384,0,6,,,,,5,,,52,0
67200,note_off,,,,,384,0,3,,,,,2,,,76,0
67584,note_on,,,,,384,0,8,,,,,7,,,52,60
67584,note_on,,,,,384,0,7,,,,,6,,,40,75
67584,note_on,,,,,384,0,6,,,,,5,,,52,75
67584,note_on,,,,,384,0,2,,,,,1,,,68,75
67584,note_on,,,,,384,0,1,,,,,0,,,71,75
67968,note_on,,,,,0,0,7,,,,,6,,,44,75
67968,note_off,,,,,384,0,7,,,,,6,,,40,0
67968,note_off,,,,,384,0,8,,,,,7,,,52,0
67968,note_on,,,,,0,0,2,,,,,1,,,71,75
67968,note_on,,,,,0,0,1,,,,,0,,,76,75
67968,note_off,,,,,384,0,2,,,,,1,,,68,0
67968,note_on,,,,,0,0,8,,,,,7,,,56,60
67968,note_off,,,,,384,0,1,,,,,0,,,71,0
67968,note_off,,,,,384,0,6,,,,,5,,,52,0
67968,note_on,,,,,0,0,6,,,,,5,,,56,75
68160,note_on,,,,,0,0,7,,,,,6,,,40,75
68160,note_off,,,,,192,0,7,,,,,6,,,44,0
68160,note_off,,,,,192,0,8,,,,,7,,,56,0
68160,note_on,,,,,0,0,6,,,,,5,,,52,75
68160,note_off,,,,,192,0,6,,,,,5,,,56,0
68160,note_off,,,,,192,0,2,,,,,1,,,71,0
68160,note_on,,,,,0,0,2,,,,,1,,,68,75
68160,note_off,,,,,192,0,1,,,,,0,,,76,0
68160,note_on,,,,,0,0,1,,,,,0,,,71,75
68160,note_on,,,,,0,0,8,,,,,7,,,52,60
68352,note_on,,,,,0,0,1,,,,,0,,,73,75
68352,note_off,,,,,192,0,1,,,,,0,,,71,0
68352,note_on,,,,,0,0,6,,,,,5,,,57,75
68352,note_on,,,,,0,0,7,,,,,6,,,45,75
68352,note_on,,,,,0,0,2,,,,,1,,,69,75
68352,note_off,,,,,192,0,2,,,,,1,,,68,0
68352,note_off,,,,,192,0,7,,,,,6,,,40,0
68352,note_off,,,,,192,0,6,,,,,5,,,52,0
68352,note_on,,,,,0,0,8,,,,,7,,,57,60
68352,note_off,,,,,192,0,8,,,,,7,,,52,0
68544,note_on,,,,,0,0,2,,,,,1,,,73,75
68544,note_off,,,,,192,0,1,,,,,0,,,73,0
68544,note_on,,,,,0,0,1,,,,,0,,,76,75
68544,note_off,,,,,192,0,2,,,,,1,,,69,0
68736,note_off,,,,,384,0,7,,,,,6,,,45,0
68736,note_on,,,,,0,0,8,,,,,7,,,61,60
68736,note_on,,,,,0,0,6,,,,,5,,,61,75
68736,note_off,,,,,384,0,6,,,,,5,,,57,0
68736,note_on,,,,,0,0,2,,,,,1,,,64,75
68736,note_off,,,,,192,0,2,,,,,1,,,73,0
68736,note_off,,,,,192,0,1,,,,,0,,,76,0
68736,note_on,,,,,0,0,1,,,,,0,,,69,75
68736,note_off,,,,,384,0,8,,,,,7,,,57,0
68736,note_on,,,,,0,0,7,,,,,6,,,49,75
69120,note_on,,,,,1920,0,4,,,,,3,,,64,88
69120,note_on,,,,,1920,0,3,,,,,2,,,71,94
69120,note_off,,,,,384,0,1,,,,,0,,,69,0
69120,note_off,,,,,384,0,7,,,,,6,,,49,0
69120,note_on,,,,,1920,0,5,,,,,4,,,68,75
69120,note_off,,,,,384,0,6,,,,,5,,,61,0
69120,note_off,,,,,384,0,2,,,,,1,,,64,0
69120,note_off,,,,,384,0,8,,,,,7,,,61,0
69120,note_on,,,,,0,0,8,,,,,7,,,56,60
69504,note_on,,,,,0,0,5,,,,,4,,,71,75
69504,note_off,,,,,384,0,5,,,,,4,,,68,0
69504,note_off,,,,,384,0,8,,,,,7,,,56,0
69504,note_on,,,,,0,0,8,,,,,7,,,52,60
69504,note_off,,,,,384,0,3,,,,,2,,,71,0
69504,note_on,,,,,0,0,3,,,,,2,,,76,94
69504,note_off,,,,,384,0,4,,,,,3,,,64,0
69504,note_on,,,,,0,0,4,,,,,3,,,68,88
69696,note_on,,,,,0,0,8,,,,,7,,,56,60
69696,note_on,,,,,0,0,4,,,,,3,,,71,88
69696,note_off,,,,,192,0,4,,,,,3,,,68,0
69696,note_off,,,,,192,0,8,,,,,7,,,52,0
69696,note_off,,,,,192,0,3,,,,,2,,,76,0
69696,note_on,,,,,0,0,5,,,,,4,,,64,75
69696,note_off,,,,,192,0,5,,,,,4,,,71,0
69696,note_on,,,,,0,0,3,,,,,2,,,71,94
69888,note_on,,,,,0,0,8,,,,,7,,,57,60
69888,note_on,,,,,0,0,3,,,,,2,,,73,94
69888,note_off,,,,,192,0,5,,,,,4,,,64,0
69888,note_on,,,,,0,0,5,,,,,4,,,69,75
69888,note_off,,,,,192,0,8,,,,,7,,,56,0
69888,note_on,,,,,0,0,4,,,,,3,,,64,88
69888,note_off,,,,,192,0,4,,,,,3,,,71,0
69888,note_off,,,,,192,0,3,,,,,2,,,71,0
70080,note_off,,,,,192,0,3,,,,,2,,,73,0
70080,note_on,,,,,0,0,3,,,,,2,,,76,94
70272,note_off,,,,,192,0,3,,,,,2,,,76,0
70272,note_on,,,,,0,0,5,,,,,4,,,64,75
70272,note_on,,,,,0,0,3,,,,,2,,,69,94
70272,note_off,,,,,384,0,4,,,,,3,,,64,0
70272,note_on,,,,,0,0,4,,,,,3,,,61,88
70272,note_on,,,,,0,0,8,,,,,7,,,45,60
70272,note_off,,,,,384,0,8,,,,,7,,,57,0
70272,note_off,,,,,384,0,5,,,,,4,,,69,0
70656,note_off,,,,,384,0,4,,,,,3,,,61,0
70656,note_on,,,,,1536,0,7,,,,,6,,,45,75
70656,note_off,,,,,384,0,5,,,,,4,,,64,0
70656,note_on,,,,,1536,0,1,,,,,0,,,76,75
70656,note_on,,,,,1536,0,6,,,,,5,,,57,75
70656,note_off,,,,,384,0,8,,,,,7,,,45,0
70656,note_on,,,,,1536,0,2,,,,,1,,,73,75
70656,note_off,,,,,384,0,3,,,,,2,,,69,0
71040,note_off,,,,,384,0,6,,,,,5,,,57,0
71040,note_off,,,,,384,0,1,,,,,0,,,76,0
71040,note_on,,,,,0,0,1,,,,,0,,,67,75
71040,note_on,,,,,0,0,6,,,,,5,,,61,75
71040,note_off,,,,,384,0,2,,,,,1,,,73,0
71040,note_on,,,,,0,0,2,,,,,1,,,64,75
71040,note_on,,,,,0,0,7,,,,,6,,,49,75
71040,note_off,,,,,384,0,7,,,,,6,,,45,0
71136,note_on,,,,,0,0,1,,,,,0,,,66,75
71136,note_off,,,,,96,0,2,,,,,1,,,64,0
71136,note_on,,,,,0,0,2,,,,,1,,,62,75
71136,note_off,,,,,96,0,1,,,,,0,,,67,0
71232,note_on,,,,,0,0,2,,,,,1,,,64,75
71232,note_on,,,,,0,0,6,,,,,5,,,57,75
71232,note_off,,,,,192,0,7,,,,,6,,,49,0
71232,note_on,,,,,0,0,7,,,,,6,,,45,75
71232,note_off,,,,,96,0,1,,,,,0,,,66,0
71232,note_off,,,,,192,0,6,,,,,5,,,61,0
71232,note_off,,,,,96,0,2,,,,,1,,,62,0
71232,note_on,,,,,0,0,1,,,,,0,,,67,75
71328,note_off,,,,,96,0,2,,,,,1,,,64,0
71328,note_on,,,,,0,0,2,,,,,1,,,61,75
71328,note_off,,,,,96,0,1,,,,,0,,,67,0
71328,note_on,,,,,0,0,1,,,,,0,,,64,75
71424,note_on,,,,,0,0,2,,,,,1,,,62,75
71424,note_on,,,,,0,0,7,,,,,6,,,38,75
71424,note_off,,,,,96,0,1,,,,,0,,,64,0
71424,note_on,,,,,0,0,1,,,,,0,,,66,75
71424,note_on,,,,,0,0,6,,,,,5,,,50,75
71424,note_off,,,,,192,0,6,,,,,5,,,57,0
71424,note_off,,,,,192,0,7,,,,,6,,,45,0
71424,note_off,,,,,96,0,2,,,,,1,,,61,0
71616,note_on,,,,,0,0,1,,,,,0,,,69,75
71616,note_off,,,,,192,0,1,,,,,0,,,66,0
71616,note_off,,,,,192,0,2,,,,,1,,,62,0
71616,note_on,,,,,0,0,2,,,,,1,,,66,75
71808,note_on,,,,,0,0,1,,,,,0,,,74,75
71808,note_on,,,,,0,0,6,,,,,5,,,54,75
71808,note_off,,,,,384,0,6,,,,,5,,,50,0
71808,note_on,,,,,0,0,2,,,,,1,,,69,75
71808,note_off,,,,,384,0,7,,,,,6,,,38,0
71808,note_on,,,,,0,0,7,,,,,6,,,42,75
71808,note_off,,,,,192,0,1,,,,,0,,,69,0
71808,note_off,,,,,192,0,2,,,,,1,,,66,0
72192,note_on,,,,,1536,0,8,,,,,7,,,57,60
72192,note_off,,,,,384,0,6,,,,,5,,,54,0
72192,note_on,,,,,1536,0,5,,,,,4,,,69,75
72192,note_on,,,,,1536,0,3,,,,,2,,,76,94
72192,note_off,,,,,384,0,7,,,,,6,,,42,0
72192,note_off,,,,,384,0,1,,,,,0,,,74,0
72192,note_on,,,,,1536,0,4,,,,,3,,,73,88
72192,note_off,,,,,384,0,2,,,,,1,,,69,0
72576,note_on,,,,,0,0,4,,,,,3,,,64,88
72576,note_off,,,,,384,0,8,,,,,7,,,57,0
72576,note_on,,,,,0,0,8,,,,,7,,,49,60
72576,note_off,,,,,384,0,3,,,,,2,,,76,0
72576,note_on,,,,,0,0,3,,,,,2,,,67,94
72576,note_on,,,,,0,0,5,,,,,4,,,57,75
72576,note_off,,,,,384,0,4,,,,,3,,,73,0
72576,note_off,,,,,384,0,5,,,,,4,,,69,0
72672,note_on,,,,,0,0,3,,,,,2,,,66,94
72672,note_off,,,,,96,0,4,,,,,3,,,64,0
72672,note_on,,,,,0,0,4,,,,,3,,,62,88
72672,note_off,,,,,96,0,3,,,,,2,,,67,0
72768,note_on,,,,,0,0,5,,,,,4,,,57,75
72768,note_on,,,,,0,0,8,,,,,7,,,45,60
72768,note_on,,,,,0,0,4,,,,,3,,,64,88
72768,note_off,,,,,96,0,3,,,,,2,,,66,0
72768,note_off,,,,,192,0,5,,,,,4,,,57,0
72768,note_off,,,,,96,0,4,,,,,3,,,62,0
72768,note_on,,,,,0,0,3,,,,,2,,,67,94
72768,note_off,,,,,192,0,8,,,,,7,,,49,0
72864,note_off,,,,,96,0,3,,,,,2,,,67,0
72864,note_on,,,,,0,0,4,,,,,3,,,61,88
72864,note_on,,,,,0,0,3,,,,,2,,,64,94
72864,note_off,,,,,96,0,4,,,,,3,,,64,0
72960,note_off,,,,,96,0,3,,,,,2,,,64,0
72960,note_on,,,,,0,0,5,,,,,4,,,57,75
72960,note_on,,,,,0,0,8,,,,,7,,,50,60
72960,note_off,,,,,192,0,8,,,,,7,,,45,0
72960,note_on,,,,,0,0,4,,,,,3,,,62,88
72960,note_off,,,,,96,0,4,,,,,3,,,61,0
72960,note_off,,,,,192,0,5,,,,,4,,,57,0
72960,note_on,,,,,0,0,3,,,,,2,,,66,94
73152,note_off,,,,,192,0,3,,,,,2,,,66,0
73152,note_on,,,,,0,0,3,,,,,2,,,69,94
73152,note_off,,,,,192,0,4,,,,,3,,,62,0
73152,note_on,,,,,0,0,4,,,,,3,,,66,88
73344,note_on,,,,,0,0,5,,,,,4,,,57,75
73344,note_off,,,,,384,0,8,,,,,7,,,50,0
73344,note_off,,,,,192,0,3,,,,,2,,,69,0
73344,note_on,,,,,0,0,3,,,,,2,,,74,94
73344,note_off,,,,,192,0,4,,,,,3,,,66,0
73344,note_on,,,,,0,0,4,,,,,3,,,69,88
73344,note_on,,,,,0,0,8,,,,,7,,,38,60
73344,note_off,,,,,384,0,5,,,,,4,,,57,0
73728,note_off,,,,,384,0,4,,,,,3,,,69,0
73728,note_on,,,,,1536,0,6,,,,,5,,,59,75
73728,note_on,,,,,1536,0,7,,,,,6,,,47,75
73728,note_on,,,,,1536,0,1,,,,,0,,,78,75
73728,note_off,,,,,384,0,5,,,,,4,,,57,0
73728,note_off,,,,,384,0,3,,,,,2,,,74,0
73728,note_off,,,,,384,0,8,,,,,7,,,38,0
73728,note_on,,,,,1536,0,2,,,,,1,,,75,75
74112,note_on,,,,,0,0,1,,,,,0,,,69,75
74112,note_off,,,,,384,0,1,,,,,0,,,78,0
74112,note_on,,,,,0,0,6,,,,,5,,,63,75
74112,note_off,,,,,384,0,6,,,,,5,,,59,0
74112,note_on,,,,,0,0,2,,,,,1,,,66,75
74112,note_off,,,,,384,0,2,,,,,1,,,75,0
74112,note_off,,,,,384,0,7,,,,,6,,,47,0
74112,note_on,,,,,0,0,7,,,,,6,,,51,75
74208,note_off,,,,,96,0,1,,,,,0,,,69,0
74208,note_on,,,,,0,0,2,,,,,1,,,64,75
74208,note_on,,,,,0,0,1,,,,,0,,,68,75
74208,note_off,,,,,96,0,2,,,,,1,,,66,0
74304,note_on,,,,,0,0,6,,,,,5,,,59,75
74304,note_off,,,,,192,0,6,,,,,5,,,63,0
74304,note_off,,,,,96,0,2,,,,,1,,,64,0
74304,note_on,,,,,0,0,2,,,,,1,,,66,75
74304,note_on,,,,,0,0,7,,,,,6,,,47,75
74304,note_off,,,,,192,0,7,,,,,6,,,51,0
74304,note_off,,,,,96,0,1,,,,,0,,,68,0
74304,note_on,,,,,0,0,1,,,,,0,,,69,75
74400,note_off,,,,,96,0,2,,,,,1,,,66,0
74400,note_on,,,,,0,0,2,,,,,1,,,63,75
74400,note_off,,,,,96,0,1,,,,,0,,,69,0
74400,note_on,,,,,0,0,1,,,,,0,,,66,75
74496,note_on,,,,,0,0,2,,,,,1,,,64,75
74496,note_on,,,,,0,0,7,,,,,6,,,40,75
74496,note_off,,,,,192,0,7,,,,,6,,,47,0
74496,note_off,,,,,96,0,2,,,,,1,,,63,0
74496,note_off,,,,,96,0,1,,,,,0,,,66,0
74496,note_on,,,,,0,0,1,,,,,0,,,68,75
74496,note_on,,,,,0,0,6,,,,,5,,,52,75
74496,note_off,,,,,192,0,6,,,,,5,,,59,0
74688,note_on,,,,,0,0,2,,,,,1,,,68,75
74688,note_off,,,,,192,0,2,,,,,1,,,64,0
74688,note_on,,,,,0,0,1,,,,,0,,,71,75
74688,note_off,,,,,192,0,1,,,,,0,,,68,0
74880,note_off,,,,,192,0,1,,,,,0,,,71,0
74880,note_off,,,,,384,0,6,,,,,5,,,52,0
74880,note_off,,,,,384,0,7,,,,,6,,,40,0
74880,note_on,,,,,0,0,7,,,,,6,,,44,75
74880,note_on,,,,,0,0,2,,,,,1,,,71,75
74880,note_off,,,,,192,0,2,,,,,1,,,68,0
74880,note_on,,,,,0,0,1,,,,,0,,,76,75
74880,note_on,,,,,0,0,6,,,,,5,,,56,75
75264,note_on,,,,,1536,0,5,,,,,4,,,71,75
75264,note_on,,,,,1536,0,3,,,,,2,,,78,94
75264,note_off,,,,,384,0,7,,,,,6,,,44,0
75264,note_off,,,,,384,0,1,,,,,0,,,76,0
75264,note_on,,,,,1536,0,8,,,,,7,,,59,60
75264,note_off,,,,,384,0,6,,,,,5,,,56,0
75264,note_on,,,,,1536,0,4,,,,,3,,,75,88
75264,note_off,,,,,384,0,2,,,,,1,,,71,0
75648,note_off,,,,,384,0,3,,,,,2,,,78,0
75648,note_off,,,,,384,0,4,,,,,3,,,75,0
75648,note_on,,,,,0,0,4,,,,,3,,,66,88
75648,note_on,,,,,0,0,3,,,,,2,,,69,94
75648,note_off,,,,,384,0,5,,,,,4,,,71,0
75648,note_on,,,,,0,0,8,,,,,7,,,51,60
75648,note_off,,,,,384,0,8,,,,,7,,,59,0
75648,note_on,,,,,0,0,5,,,,,4,,,59,75
75744,note_on,,,,,0,0,4,,,,,3,,,64,88
75744,note_off,,,,,96,0,3,,,,,2,,,69,0
75744,note_on,,,,,0,0,3,,,,,2,,,68,94
75744,note_off,,,,,96,0,4,,,,,3,,,66,0
75840,note_on,,,,,0,0,3,,,,,2,,,69,94
75840,note_on,,,,,0,0,5,,,,,4,,,59,75
75840,note_off,,,,,192,0,5,,,,,4,,,59,0
75840,note_off,,,,,192,0,8,,,,,7,,,51,0
75840,note_off,,,,,96,0,4,,,,,3,,,64,0
75840,note_on,,,,,0,0,4,,,,,3,,,66,88
75840,note_off,,,,,96,0,3,,,,,2,,,68,0
75840,note_on,,,,,0,0,8,,,,,7,,,47,60
75936,note_on,,,,,0,0,4,,,,,3,,,63,88
75936,note_off,,,,,96,0,3,,,,,2,,,69,0
75936,note_on,,,,,0,0,3,,,,,2,,,66,94
75936,note_off,,,,,96,0,4,,,,,3,,,66,0
76032,note_on,,,,,0,0,8,,,,,7,,,52,60
76032,note_off,,,,,192,0,8,,,,,7,,,47,0
76032,note_on,,,,,0,0,3,,,,,2,,,68,94
76032,note_on,,,,,0,0,4,,,,,3,,,64,88
76032,note_off,,,,,192,0,5,,,,,4,,,59,0
76032,note_on,,,,,0,0,5,,,,,4,,,59,75
76032,note_off,,,,,96,0,3,,,,,2,,,66,0
76032,note_off,,,,,96,0,4,,,,,3,,,63,0
76224,note_off,,,,,192,0,5,,,,,4,,,59,0
76224,note_off,,,,,192,0,3,,,,,2,,,68,0
76224,note_on,,,,,0,0,5,,,,,4,,,64,75
76224,note_off,,,,,192,0,4,,,,,3,,,64,0
76224,note_on,,,,,0,0,3,,,,,2,,,71,94
76224,note_on,,,,,0,0,4,,,,,3,,,68,88
76416,note_on,,,,,0,0,5,,,,,4,,,68,75
76416,note_off,,,,,192,0,4,,,,,3,,,68,0
76416,note_on,,,,,0,0,3,,,,,2,,,76,94
76416,note_on,,,,,0,0,4,,,,,3,,,71,88
76416,note_off,,,,,384,0,8,,,,,7,,,52,0
76416,note_on,,,,,0,0,8,,,,,7,,,40,60
76416,note_off,,,,,192,0,5,,,,,4,,,64,0
76416,note_off,,,,,192,0,3,,,,,2,,,71,0
76608,note_on,,,,,1344,0,6,,,,,5,,,52,75
76608,note_on,,,,,1344,0,1,,,,,0,,,71,75
76608,note_on,,,,,1344,0,7,,,,,6,,,40,75
76608,note_on,,,,,1344,0,2,,,,,1,,,68,75
76800,note_on,,,,,0,0,6,,,,,5,,,57,75
76800,note_off,,,,,192,0,6,,,,,5,,,52,0
76800,note_off,,,,,384,0,4,,,,,3,,,71,0
76800,note_off,,,,,192,0,7,,,,,6,,,40,0
76800,note_on,,,,,0,0,1,,,,,0,,,73,75
76800,note_off,,,,,192,0,1,,,,,0,,,71,0
76800,note_off,,,,,384,0,3,,,,,2,,,76,0
76800,note_off,,,,,192,0,2,,,,,1,,,68,0
76800,note_on,,,,,0,0,2,,,,,1,,,69,75
76800,note_off,,,,,384,0,8,,,,,7,,,40,0
76800,note_on,,,,,0,0,7,,,,,6,,,45,75
76800,note_off,,,,,384,0,5,,,,,4,,,68,0
76992,note_off,,,,,192,0,6,,,,,5,,,57,0
76992,note_on,,,,,0,0,6,,,,,5,,,56,75
76992,note_off,,,,,192,0,1,,,,,0,,,73,0
76992,note_on,,,,,0,0,7,,,,,6,,,44,75
76992,note_off,,,,,192,0,7,,,,,6,,,45,0
76992,note_off,,,,,192,0,2,,,,,1,,,69,0
76992,note_on,,,,,0,0,2,,,,,1,,,71,75
76992,note_on,,,,,0,0,1,,,,,0,,,74,75
77184,note_off,,,,,192,0,2,,,,,1,,,71,0
77184,note_off,,,,,192,0,7,,,,,6,,,44,0
77184,note_on,,,,,0,0,6,,,,,5,,,57,75
77184,note_on,,,,,0,0,2,,,,,1,,,69,75
77184,note_off,,,,,192,0,6,,,,,5,,,56,0
77184,note_off,,,,,192,0,1,,,,,0,,,74,0
77184,note_on,,,,,0,0,1,,,,,0,,,74,75
77184,note_on,,,,,0,0,7,,,,,6,,,45,75
77232,note_off,,,,,48,0,1,,,,,0,,,74,0
77232,note_on,,,,,0,0,1,,,,,0,,,73,75
77280,note_off,,,,,48,0,1,,,,,0,,,73,0
77280,note_on,,,,,0,0,1,,,,,0,,,74,75
77328,note_off,,,,,48,0,1,,,,,0,,,74,0
77328,note_on,,,,,0,0,1,,,,,0,,,73,75
77376,note_off,,,,,48,0,1,,,,,0,,,73,0
77376,note_on,,,,,0,0,1,,,,,0,,,74,75
77424,note_off,,,,,48,0,1,,,,,0,,,74,0
77424,note_on,,,,,0,0,1,,,,,0,,,73,75
77568,note_on,,,,,0,0,7,,,,,6,,,40,75
77568,note_on,,,,,0,0,6,,,,,5,,,52,75
77568,note_off,,,,,144,0,1,,,,,0,,,73,0
77568,note_off,,,,,384,0,7,,,,,6,,,45,0
77568,note_off,,,,,384,0,6,,,,,5,,,57,0
77568,note_on,,,,,0,0,1,,,,,0,,,71,75
77568,note_off,,,,,384,0,2,,,,,1,,,69,0
77568,note_on,,,,,0,0,2,,,,,1,,,68,75
77952,note_off,,,,,384,0,1,,,,,0,,,71,0
77952,note_off,,,,,384,0,7,,,,,6,,,40,0
77952,note_off,,,,,384,0,2,,,,,1,,,68,0
77952,note_off,,,,,384,0,6,,,,,5,,,52,0
78144,note_on,,,,,1344,0,4,,,,,3,,,68,88
78144,note_on,,,,,1344,0,8,,,,,7,,,52,60
78144,note_on,,,,,1344,0,3,,,,,2,,,71,94
78144,note_on,,,,,1344,0,5,,,,,4,,,64,75
78336,note_on,,,,,0,0,8,,,,,7,,,57,60
78336,note_off,,,,,192,0,8,,,,,7,,,52,0
78336,note_off,,,,,192,0,3,,,,,2,,,71,0
78336,note_off,,,,,192,0,5,,,,,4,,,64,0
78336,note_on,,,,,0,0,5,,,,,4,,,64,75
78336,note_off,,,,,192,0,4,,,,,3,,,68,0
78336,note_on,,,,,0,0,3,,,,,2,,,73,94
78336,note_on,,,,,0,0,4,,,,,3,,,69,88
78528,note_on,,,,,0,0,4,,,,,3,,,71,88
78528,note_off,,,,,192,0,5,,,,,4,,,64,0
78528,note_on,,,,,0,0,5,,,,,4,,,64,75
78528,note_off,,,,,192,0,3,,,,,2,,,73,0
78528,note_off,,,,,192,0,4,,,,,3,,,69,0
78528,note_on,,,,,0,0,3,,,,,2,,,74,94
78528,note_off,,,,,192,0,8,,,,,7,,,57,0
78528,note_on,,,,,0,0,8,,,,,7,,,56,60
78720,note_off,,,,,192,0,3,,,,,2,,,74,0
78720,note_off,,,,,192,0,4,,,,,3,,,71,0
78720,note_on,,,,,0,0,4,,,,,3,,,69,88
78720,note_on,,,,,0,0,3,,,,,2,,,74,94
78720,note_on,,,,,0,0,8,,,,,7,,,57,60
78720,note_on,,,,,0,0,5,,,,,4,,,64,75
78720,note_off,,,,,192,0,5,,,,,4,,,64,0
78720,note_off,,,,,192,0,8,,,,,7,,,56,0
78768,note_on,,,,,0,0,3,,,,,2,,,73,94
78768,note_off,,,,,48,0,3,,,,,2,,,74,0
78816,note_off,,,,,48,0,3,,,,,2,,,73,0
78816,note_on,,,,,0,0,3,,,,,2,,,74,94
78864,note_off,,,,,48,0,3,,,,,2,,,74,0
78864,note_on,,,,,0,0,3,,,,,2,,,73,94
78912,note_off,,,,,48,0,3,,,,,2,,,73,0
78912,note_on,,,,,0,0,3,,,,,2,,,74,94
78960,note_off,,,,,48,0,3,,,,,2,,,74,0
78960,note_on,,,,,0,0,3,,,,,2,,,73,94
79104,note_on,,,,,0,0,4,,,,,3,,,68,88
79104,note_off,,,,,384,0,4,,,,,3,,,69,0
79104,note_off,,,,,144,0,3,,,,,2,,,73,0
79104,note_off,,,,,384,0,5,,,,,4,,,64,0
79104,note_on,,,,,0,0,5,,,,,4,,,64,75
79104,note_off,,,,,384,0,8,,,,,7,,,57,0
79104,note_on,,,,,0,0,8,,,,,7,,,52,60
79104,note_on,,,,,0,0,3,,,,,2,,,71,94
79296,note_on,,,,,1344,0,7,,,,,6,,,40,75
79296,note_on,,,,,1344,0,2,,,,,1,,,71,75
79296,note_on,,,,,1344,0,6,,,,,5,,,52,75
79488,note_off,,,,,192,0,7,,,,,6,,,40,0
79488,note_on,,,,,0,0,7,,,,,6,,,52,75
79488,note_on,,,,,1536,0,1,,,,,0,,,64,75
79488,note_off,,,,,384,0,8,,,,,7,,,52,0
79488,note_on,,,,,0,0,2,,,,,1,,,68,75
79488,note_off,,,,,384,0,4,,,,,3,,,68,0
79488,note_off,,,,,384,0,5,,,,,4,,,64,0
79488,note_off,,,,,192,0,2,,,,,1,,,71,0
79488,note_on,,,,,0,0,6,,,,,5,,,64,75
79488,note_off,,,,,192,0,6,,,,,5,,,52,0
79488,note_off,,,,,384,0,3,,,,,2,,,71,0
79680,note_on,,,,,0,0,2,,,,,1,,,71,75
79680,note_on,,,,,0,0,6,,,,,5,,,62,75
79680,note_off,,,,,192,0,6,,,,,5,,,64,0
79680,note_off,,,,,192,0,1,,,,,0,,,64,0
79680,note_on,,,,,0,0,1,,,,,0,,,66,75
79680,note_off,,,,,192,0,2,,,,,1,,,68,0
79680,note_on,,,,,0,0,7,,,,,6,,,50,75
79680,note_off,,,,,192,0,7,,,,,6,,,52,0
79776,note_on,,,,,0,0,1,,,,,0,,,68,75
79776,note_off,,,,,96,0,1,,,,,0,,,66,0
79872,note_off,,,,,96,0,1,,,,,0,,,68,0
79872,note_on,,,,,0,0,1,,,,,0,,,69,75
79872,note_on,,,,,0,0,7,,,,,6,,,49,75
79872,note_off,,,,,192,0,7,,,,,6,,,50,0
79872,note_off,,,,,192,0,6,,,,,5,,,62,0
79872,note_on,,,,,0,0,2,,,,,1,,,64,75
79872,note_off,,,,,192,0,2,,,,,1,,,71,0
79872,note_on,,,,,0,0,6,,,,,5,,,61,75
79968,note_on,,,,,0,0,1,,,,,0,,,64,75
79968,note_off,,,,,96,0,1,,,,,0,,,69,0
79968,note_on,,,,,0,0,2,,,,,1,,,61,75
79968,note_off,,,,,96,0,2,,,,,1,,,64,0
80064,note_on,,,,,0,0,1,,,,,0,,,69,75
80064,note_on,,,,,0,0,7,,,,,6,,,45,75
80064,note_off,,,,,192,0,7,,,,,6,,,49,0
80064,note_off,,,,,96,0,1,,,,,0,,,64,0
80064,note_off,,,,,192,0,6,,,,,5,,,61,0
80064,note_on,,,,,0,0,2,,,,,1,,,64,75
80064,note_off,,,,,96,0,2,,,,,1,,,61,0
80064,note_on,,,,,0,0,6,,,,,5,,,57,75
80160,note_off,,,,,96,0,2,,,,,1,,,64,0
80160,note_on,,,,,0,0,2,,,,,1,,,69,75
80160,note_off,,,,,96,0,1,,,,,0,,,69,0
80160,note_on,,,,,0,0,1,,,,,0,,,73,75
80256,note_on,,,,,0,0,1,,,,,0,,,71,75
80256,note_on,,,,,0,0,7,,,,,6,,,52,75
80256,note_off,,,,,192,0,7,,,,,6,,,45,0
80256,note_off,,,,,96,0,1,,,,,0,,,73,0
80256,note_on,,,,,0,0,6,,,,,5,,,64,75
80256,note_off,,,,,192,0,6,,,,,5,,,57,0
80256,note_off,,,,,96,0,2,,,,,1,,,69,0
80256,note_on,,,,,0,0,2,,,,,1,,,69,75
80352,note_off,,,,,96,0,1,,,,,0,,,71,0
80352,note_on,,,,,0,0,1,,,,,0,,,64,75
80448,note_on,,,,,0,0,1,,,,,0,,,71,75
80448,note_on,,,,,0,0,7,,,,,6,,,40,75
80448,note_off,,,,,192,0,6,,,,,5,,,64,0
80448,note_on,,,,,0,0,6,,,,,5,,,52,75
80448,note_off,,,,,192,0,7,,,,,6,,,52,0
80448,note_off,,,,,96,0,1,,,,,0,,,64,0
80448,note_off,,,,,192,0,2,,,,,1,,,69,0
80448,note_on,,,,,0,0,2,,,,,1,,,68,75
80544,note_off,,,,,96,0,1,,,,,0,,,71,0
80544,note_on,,,,,0,0,1,,,,,0,,,74,75
80640,note_on,,,,,0,0,6,,,,,5,,,57,75
80640,note_off,,,,,192,0,6,,,,,5,,,52,0
80640,note_off,,,,,96,0,1,,,,,0,,,74,0
80640,note_on,,,,,0,0,1,,,,,0,,,73,75
80640,note_off,,,,,192,0,2,,,,,1,,,68,0
80640,note_on,,,,,0,0,2,,,,,1,,,69,75
80640,note_off,,,,,192,0,7,,,,,6,,,40,0
80640,note_on,,,,,0,0,7,,,,,6,,,45,75
80736,note_on,,,,,0,0,1,,,,,0,,,64,75
80736,note_off,,,,,96,0,1,,,,,0,,,73,0
80832,note_on,,,,,0,0,1,,,,,0,,,69,75
80832,note_on,,,,,1344,0,4,,,,,3,,,61,88
80832,note_on,,,,,1344,0,8,,,,,7,,,45,60
80832,note_on,,,,,1344,0,3,,,,,2,,,64,94
80832,note_on,,,,,1344,0,5,,,,,4,,,57,75
80832,note_off,,,,,96,0,1,,,,,0,,,64,0
80928,note_off,,,,,96,0,1,,,,,0,,,69,0
80928,note_on,,,,,0,0,1,,,,,0,,,73,75
81024,note_on,,,,,0,0,4,,,,,3,,,61,88
81024,note_off,,,,,384,0,2,,,,,1,,,69,0
81024,note_off,,,,,96,0,1,,,,,0,,,73,0
81024,note_on,,,,,0,0,1,,,,,0,,,76,75
81024,note_on,,,,,0,0,8,,,,,7,,,45,60
81024,note_off,,,,,192,0,8,,,,,7,,,45,0
81024,note_off,,,,,384,0,7,,,,,6,,,45,0
81024,note_off,,,,,384,0,6,,,,,5,,,57,0
81024,note_off,,,,,192,0,4,,,,,3,,,61,0
81024,note_on,,,,,0,0,3,,,,,2,,,64,94
81024,note_off,,,,,192,0,3,,,,,2,,,64,0
81024,note_off,,,,,192,0,5,,,,,4,,,57,0
81024,note_on,,,,,0,0,5,,,,,4,,,57,75
81120,note_off,,,,,96,0,1,,,,,0,,,76,0
81120,note_on,,,,,0,0,1,,,,,0,,,64,75
81216,note_on,,,,,192,0,7,,,,,6,,,44,75
81216,note_on,,,,,192,0,2,,,,,1,,,64,75
81216,note_on,,,,,192,0,6,,,,,5,,,56,75
81216,note_off,,,,,96,0,1,,,,,0,,,64,0
81216,note_on,,,,,0,0,1,,,,,0,,,66,75
81312,note_off,,,,,96,0,1,,,,,0,,,66,0
81312,note_on,,,,,0,0,1,,,,,0,,,68,75
81408,note_off,,,,,96,0,1,,,,,0,,,68,0
81408,note_on,,,,,0,0,1,,,,,0,,,69,75
81408,note_off,,,,,192,0,7,,,,,6,,,44,0
81408,note_on,,,,,0,0,7,,,,,6,,,42,75
81408,note_off,,,,,192,0,6,,,,,5,,,56,0
81408,note_off,,,,,384,0,5,,,,,4,,,57,0
81408,note_off,,,,,192,0,2,,,,,1,,,64,0
81408,note_on,,,,,0,0,2,,,,,1,,,61,75
81408,note_on,,,,,0,0,6,,,,,5,,,54,75
81408,note_off,,,,,384,0,3,,,,,2,,,64,0
81408,note_off,,,,,384,0,8,,,,,7,,,45,0
81408,note_off,,,,,384,0,4,,,,,3,,,61,0
81504,note_off,,,,,96,0,1,,,,,0,,,69,0
81504,note_on,,,,,0,0,1,,,,,0,,,64,75
81600,note_on,,,,,0,0,7,,,,,6,,,37,75
81600,note_on,,,,,0,0,2,,,,,1,,,64,75
81600,note_off,,,,,192,0,2,,,,,1,,,61,0
81600,note_off,,,,,192,0,6,,,,,5,,,54,0
81600,note_on,,,,,0,0,6,,,,,5,,,49,75
81600,note_on,,,,,0,0,1,,,,,0,,,69,75
81600,note_off,,,,,96,0,1,,,,,0,,,64,0
81600,note_off,,,,,192,0,7,,,,,6,,,42,0
81696,note_on,,,,,0,0,1,,,,,0,,,73,75
81696,note_off,,,,,96,0,1,,,,,0,,,69,0
81792,note_on,,,,,0,0,1,,,,,0,,,71,75
81792,note_off,,,,,192,0,7,,,,,6,,,37,0
81792,note_on,,,,,0,0,7,,,,,6,,,38,75
81792,note_off,,,,,96,0,1,,,,,0,,,73,0
81792,note_on,,,,,0,0,6,,,,,5,,,50,75
81792,note_off,,,,,192,0,6,,,,,5,,,49,0
81792,note_off,,,,,192,0,2,,,,,1,,,64,0
81792,note_on,,,,,0,0,2,,,,,1,,,66,75
81888,note_off,,,,,96,0,1,,,,,0,,,71,0
81888,note_on,,,,,0,0,1,,,,,0,,,64,75
81984,note_on,,,,,0,0,7,,,,,6,,,40,75
81984,note_off,,,,,192,0,7,,,,,6,,,38,0
81984,note_on,,,,,0,0,6,,,,,5,,,52,75
81984,note_off,,,,,192,0,6,,,,,5,,,50,0
81984,note_on,,,,,0,0,1,,,,,0,,,71,75
81984,note_on,,,,,0,0,2,,,,,1,,,68,75
81984,note_off,,,,,192,0,2,,,,,1,,,66,0
81984,note_off,,,,,96,0,1,,,,,0,,,64,0
82080,note_off,,,,,96,0,1,,,,,0,,,71,0
82080,note_on,,,,,0,0,1,,,,,0,,,74,75
82176,note_on,,,,,0,0,2,,,,,1,,,69,75
82176,note_off,,,,,96,0,1,,,,,0,,,74,0
82176,note_on,,,,,0,0,1,,,,,0,,,73,75
82176,note_on,,,,,0,0,6,,,,,5,,,45,75
82176,note_off,,,,,192,0,2,,,,,1,,,68,0
82176,note_on,,,,,0,0,7,,,,,6,,,33,75
82176,note_off,,,,,192,0,7,,,,,6,,,40,0
82176,note_off,,,,,192,0,6,,,,,5,,,52,0
82272,note_off,,,,,96,0,1,,,,,0,,,73,0
82272,note_on,,,,,0,0,1,,,,,0,,,64,75
82368,note_on,,,,,960,0,5,,,,,4,,,64,75
82368,note_off,,,,,96,0,1,,,,,0,,,64,0
82368,note_on,,,,,0,0,1,,,,,0,,,69,75
82368,note_on,,,,,960,0,3,,,,,2,,,73,94
82368,note_on,,,,,960,0,4,,,,,3,,,69,88
82368,note_on,,,,,960,0,8,,,,,7,,,57,60
82464,note_on,,,,,0,0,1,,,,,0,,,73,75
82464,note_off,,,,,96,0,1,,,,,0,,,69,0
82560,note_off,,,,,384,0,6,,,,,5,,,45,0
82560,note_on,,,,,0,0,4,,,,,3,,,69,88
82560,note_off,,,,,384,0,7,,,,,6,,,33,0
82560,note_on,,,,,0,0,5,,,,,4,,,64,75
82560,note_off,,,,,192,0,5,,,,,4,,,64,0
82560,note_on,,,,,0,0,8,,,,,7,,,57,60
82560,note_off,,,,,384,0,2,,,,,1,,,69,0
82560,note_off,,,,,192,0,3,,,,,2,,,73,0
82560,note_on,,,,,0,0,3,,,,,2,,,73,94
82560,note_off,,,,,192,0,8,,,,,7,,,57,0
82560,note_off,,,,,192,0,4,,,,,3,,,69,0
82560,note_off,,,,,96,0,1,,,,,0,,,73,0
82560,note_on,,,,,0,0,1,,,,,0,,,76,75
82656,note_off,,,,,96,0,1,,,,,0,,,76,0
82656,note_on,,,,,0,0,1,,,,,0,,,69,75
82752,note_on,,,,,192,0,7,,,,,6,,,43,75
82752,note_on,,,,,0,0,1,,,,,0,,,71,75
82752,note_on,,,,,192,0,6,,,,,5,,,55,75
82752,note_on,,,,,192,0,2,,,,,1,,,69,75
82752,note_off,,,,,96,0,1,,,,,0,,,69,0
82848,note_off,,,,,96,0,1,,,,,0,,,71,0
82848,note_on,,,,,0,0,1,,,,,0,,,73,75
82944,note_on,,,,,0,0,7,,,,,6,,,42,75
82944,note_on,,,,,0,0,2,,,,,1,,,69,75
82944,note_off,,,,,384,0,3,,,,,2,,,73,0
82944,note_off,,,,,192,0,7,,,,,6,,,43,0
82944,note_off,,,,,384,0,5,,,,,4,,,64,0
82944,note_on,,,,,0,0,1,,,,,0,,,74,75
82944,note_on,,,,,0,0,6,,,,,5,,,54,75
82944,note_off,,,,,384,0,4,,,,,3,,,69,0
82944,note_off,,,,,192,0,2,,,,,1,,,69,0
82944,note_off,,,,,192,0,6,,,,,5,,,55,0
82944,note_off,,,,,384,0,8,,,,,7,,,57,0
82944,note_off,,,,,96,0,1,,,,,0,,,73,0
83040,note_off,,,,,96,0,2,,,,,1,,,69,0
83040,note_on,,,,,0,0,1,,,,,0,,,69,75
83040,note_on,,,,,0,0,2,,,,,1,,,66,75
83040,note_off,,,,,96,0,1,,,,,0,,,74,0
83136,note_off,,,,,96,0,2,,,,,1,,,66,0
83136,note_off,,,,,192,0,7,,,,,6,,,42,0
83136,note_on,,,,,0,0,2,,,,,1,,,62,75
83136,note_on,,,,,0,0,1,,,,,0,,,74,75
83136,note_off,,,,,96,0,1,,,,,0,,,69,0
83136,note_on,,,,,0,0,6,,,,,5,,,59,75
83136,note_on,,,,,0,0,7,,,,,6,,,47,75
83136,note_off,,,,,192,0,6,,,,,5,,,54,0
83232,note_off,,,,,96,0,2,,,,,1,,,62,0
83232,note_on,,,,,0,0,2,,,,,1,,,74,75
83232,note_on,,,,,0,0,1,,,,,0,,,78,75
83232,note_off,,,,,96,0,1,,,,,0,,,74,0
83328,note_off,,,,,96,0,2,,,,,1,,,74,0
83328,note_on,,,,,0,0,2,,,,,1,,,74,75
83328,note_off,,,,,192,0,6,,,,,5,,,59,0
83328,note_on,,,,,0,0,7,,,,,6,,,43,75
83328,note_off,,,,,192,0,7,,,,,6,,,47,0
83328,note_on,,,,,0,0,6,,,,,5,,,55,75
83328,note_on,,,,,0,0,1,,,,,0,,,76,75
83328,note_off,,,,,96,0,1,,,,,0,,,78,0
83424,note_on,,,,,0,0,1,,,,,0,,,69,75
83424,note_off,,,,,96,0,1,,,,,0,,,76,0
83520,note_off,,,,,192,0,7,,,,,6,,,43,0
83520,note_on,,,,,0,0,7,,,,,6,,,45,75
83520,note_off,,,,,96,0,1,,,,,0,,,69,0
83520,note_off,,,,,192,0,2,,,,,1,,,74,0
83520,note_on,,,,,0,0,6,,,,,5,,,57,75
83520,note_off,,,,,192,0,6,,,,,5,,,55,0
83520,note_on,,,,,0,0,2,,,,,1,,,73,75
83520,note_on,,,,,0,0,1,,,,,0,,,76,75
83616,note_off,,,,,96,0,1,,,,,0,,,76,0
83616,note_on,,,,,0,0,1,,,,,0,,,79,75
83712,note_off,,,,,192,0,6,,,,,5,,,57,0
83712,note_off,,,,,192,0,2,,,,,1,,,73,0
83712,note_on,,,,,0,0,2,,,,,1,,,74,75
83712,note_on,,,,,0,0,7,,,,,6,,,50,75
83712,note_off,,,,,192,0,7,,,,,6,,,45,0
83712,note_on,,,,,0,0,6,,,,,5,,,62,75
83712,note_on,,,,,0,0,1,,,,,0,,,78,75
83712,note_off,,,,,96,0,1,,,,,0,,,79,0
83808,note_on,,,,,0,0,1,,,,,0,,,69,75
83808,note_off,,,,,96,0,1,,,,,0,,,78,0
83904,note_on,,,,,960,0,8,,,,,7,,,50,60
83904,note_on,,,,,960,0,3,,,,,2,,,69,94
83904,note_on,,,,,960,0,5,,,,,4,,,62,75
83904,note_off,,,,,96,0,1,,,,,0,,,69,0
83904,note_on,,,,,0,0,1,,,,,0,,,74,75
83904,note_on,,,,,960,0,4,,,,,3,,,66,88
84000,note_off,,,,,96,0,1,,,,,0,,,74,0
84000,note_on,,,,,0,0,1,,,,,0,,,78,75
84096,note_off,,,,,384,0,2,,,,,1,,,74,0
84096,note_off,,,,,192,0,5,,,,,4,,,62,0
84096,note_off,,,,,192,0,3,,,,,2,,,69,0
84096,note_off,,,,,384,0,7,,,,,6,,,50,0
84096,note_off,,,,,192,0,4,,,,,3,,,66,0
84096,note_off,,,,,384,0,6,,,,,5,,,62,0
84096,note_off,,,,,96,0,1,,,,,0,,,78,0
84096,note_on,,,,,0,0,3,,,,,2,,,69,94
84096,note_off,,,,,192,0,8,,,,,7,,,50,0
84096,note_on,,,,,0,0,8,,,,,7,,,50,60
84096,note_on,,,,,0,0,4,,,,,3,,,66,88
84096,note_on,,,,,0,0,1,,,,,0,,,81,75
84096,note_on,,,,,0,0,5,,,,,4,,,62,75
84192,note_off,,,,,96,0,1,,,,,0,,,81,0
84192,note_on,,,,,0,0,1,,,,,0,,,69,75
84288,note_on,,,,,192,0,6,,,,,5,,,62,75
84288,note_on,,,,,192,0,2,,,,,1,,,69,75
84288,note_off,,,,,96,0,1,,,,,0,,,69,0
84288,note_on,,,,,0,0,1,,,,,0,,,71,75
84288,note_on,,,,,192,0,7,,,,,6,,,50,75
84384,note_on,,,,,0,0,1,,,,,0,,,73,75
84384,note_off,,,,,96,0,1,,,,,0,,,71,0
84480,note_off,,,,,192,0,6,,,,,5,,,62,0
84480,note_on,,,,,0,0,6,,,,,5,,,54,75
84480,note_off,,,,,384,0,4,,,,,3,,,66,0
84480,note_off,,,,,384,0,5,,,,,4,,,62,0
84480,note_off,,,,,192,0,2,,,,,1,,,69,0
84480,note_off,,,,,192,0,7,,,,,6,,,50,0
84480,note_on,,,,,0,0,2,,,,,1,,,69,75
84480,note_off,,,,,384,0,3,,,,,2,,,69,0
84480,note_on,,,,,0,0,7,,,,,6,,,42,75
84480,note_off,,,,,96,0,1,,,,,0,,,73,0
84480,note_on,,,,,0,0,1,,,,,0,,,74,75
84480,note_off,,,,,384,0,8,,,,,7,,,50,0
84576,note_off,,,,,96,0,1,,,,,0,,,74,0
84576,note_on,,,,,0,0,1,,,,,0,,,69,75
84672,note_off,,,,,96,0,1,,,,,0,,,69,0
84672,note_off,,,,,192,0,7,,,,,6,,,42,0
84672,note_on,,,,,0,0,7,,,,,6,,,38,75
84672,note_off,,,,,192,0,2,,,,,1,,,69,0
84672,note_on,,,,,0,0,2,,,,,1,,,66,75
84672,note_on,,,,,0,0,1,,,,,0,,,74,75
84672,note_on,,,,,0,0,6,,,,,5,,,50,75
84672,note_off,,,,,192,0,6,,,,,5,,,54,0
84768,note_on,,,,,0,0,1,,,,,0,,,78,75
84768,note_off,,,,,96,0,1,,,,,0,,,74,0
84864,note_off,,,,,96,0,1,,,,,0,,,78,0
84864,note_on,,,,,0,0,7,,,,,6,,,49,75
84864,note_on,,,,,0,0,1,,,,,0,,,76,75
84864,note_off,,,,,192,0,7,,,,,6,,,38,0
84864,note_on,,,,,0,0,2,,,,,1,,,69,75
84864,note_off,,,,,192,0,6,,,,,5,,,50,0
84864,note_on,,,,,0,0,6,,,,,5,,,61,75
84864,note_off,,,,,192,0,2,,,,,1,,,66,0
84960,note_on,,,,,0,0,1,,,,,0,,,69,75
84960,note_off,,,,,96,0,1,,,,,0,,,76,0
85056,note_off,,,,,192,0,7,,,,,6,,,49,0
85056,note_on,,,,,0,0,7,,,,,6,,,45,75
85056,note_off,,,,,192,0,6,,,,,5,,,61,0
85056,note_on,,,,,0,0,6,,,,,5,,,57,75
85056,note_off,,,,,96,0,1,,,,,0,,,69,0
85056,note_on,,,,,0,0,2,,,,,1,,,73,75
85056,note_off,,,,,192,0,2,,,,,1,,,69,0
85056,note_on,,,,,0,0,1,,,,,0,,,76,75
85152,note_on,,,,,0,0,1,,,,,0,,,79,75
85152,note_off,,,,,96,0,1,,,,,0,,,76,0
85248,note_on,,,,,0,0,2,,,,,1,,,74,75
85248,note_on,,,,,0,0,6,,,,,5,,,62,75
85248,note_off,,,,,192,0,6,,,,,5,,,57,0
85248,note_on,,,,,0,0,1,,,,,0,,,78,75
85248,note_off,,,,,192,0,7,,,,,6,,,45,0
85248,note_on,,,,,0,0,7,,,,,6,,,50,75
85248,note_off,,,,,96,0,1,,,,,0,,,79,0
85248,note_off,,,,,192,0,2,,,,,1,,,73,0
85344,note_off,,,,,96,0,1,,,,,0,,,78,0
85344,note_on,,,,,0,0,1,,,,,0,,,74,75
85440,note_on,,,,,0,0,1,,,,,0,,,78,75
85440,note_off,,,,,96,0,1,,,,,0,,,74,0
85440,note_on,,,,,960,0,5,,,,,4,,,69,75
85440,note_on,,,,,960,0,3,,,,,2,,,78,94
85440,note_on,,,,,960,0,4,,,,,3,,,74,88
85440,note_on,,,,,960,0,8,,,,,7,,,62,60
85536,note_on,,,,,0,0,1,,,,,0,,,81,75
85536,note_off,,,,,96,0,1,,,,,0,,,78,0
85632,note_on,,,,,0,0,1,,,,,0,,,78,75
85632,note_off,,,,,96,0,1,,,,,0,,,81,0
85632,note_on,,,,,0,0,4,,,,,3,,,74,88
85632,note_off,,,,,192,0,4,,,,,3,,,74,0
85632,note_off,,,,,384,0,7,,,,,6,,,50,0
85632,note_off,,,,,384,0,6,,,,,5,,,62,0
85632,note_off,,,,,192,0,8,,,,,7,,,62,0
85632,note_on,,,,,0,0,8,,,,,7,,,62,60
85632,note_on,,,,,0,0,3,,,,,2,,,78,94
85632,note_off,,,,,192,0,3,,,,,2,,,78,0
85632,note_off,,,,,192,0,5,,,,,4,,,69,0
85632,note_on,,,,,0,0,5,,,,,4,,,69,75
85632,note_off,,,,,384,0,2,,,,,1,,,74,0
85728,note_off,,,,,96,0,1,,,,,0,,,78,0
85728,note_on,,,,,0,0,1,,,,,0,,,74,75
85824,note_on,,,,,192,0,2,,,,,1,,,74,75
85824,note_on,,,,,0,0,1,,,,,0,,,78,75
85824,note_off,,,,,96,0,1,,,,,0,,,74,0
85824,note_on,,,,,192,0,6,,,,,5,,,62,75
85824,note_on,,,,,192,0,7,,,,,6,,,50,75
85920,note_off,,,,,96,0,1,,,,,0,,,78,0
85920,note_on,,,,,0,0,1,,,,,0,,,81,75
86016,note_off,,,,,384,0,8,,,,,7,,,62,0
86016,note_on,,,,,0,0,7,,,,,6,,,50,75
86016,note_off,,,,,192,0,7,,,,,6,,,50,0
86016,note_off,,,,,384,0,3,,,,,2,,,78,0
86016,note_off,,,,,192,0,6,,,,,5,,,62,0
86016,note_on,,,,,0,0,6,,,,,5,,,62,75
86016,note_on,,,,,0,0,2,,,,,1,,,71,75
86016,note_off,,,,,192,0,2,,,,,1,,,74,0
86016,note_off,,,,,384,0,5,,,,,4,,,69,0
86016,note_off,,,,,384,0,4,,,,,3,,,74,0
86016,note_on,,,,,0,0,1,,,,,0,,,80,75
86016,note_off,,,,,96,0,1,,,,,0,,,81,0
86112,note_off,,,,,96,0,1,,,,,0,,,80,0
86112,note_on,,,,,0,0,1,,,,,0,,,76,75
86208,note_on,,,,,192,0,5,,,,,4,,,64,75
86208,note_on,,,,,192,0,8,,,,,7,,,62,60
86208,note_on,,,,,192,0,3,,,,,2,,,71,94
86208,note_off,,,,,96,0,1,,,,,0,,,76,0
86208,note_on,,,,,0,0,1,,,,,0,,,80,75
86208,note_on,,,,,192,0,4,,,,,3,,,68,88
86304,note_off,,,,,96,0,1,,,,,0,,,80,0
86304,note_on,,,,,0,0,1,,,,,0,,,83,75
86400,note_on,,,,,0,0,4,,,,,3,,,68,88
86400,note_off,,,,,384,0,6,,,,,5,,,62,0
86400,note_on,,,,,0,0,5,,,,,4,,,64,75
86400,note_on,,,,,0,0,8,,,,,7,,,62,60
86400,note_off,,,,,96,0,1,,,,,0,,,83,0
86400,note_on,,,,,0,0,1,,,,,0,,,80,75
86400,note_off,,,,,384,0,7,,,,,6,,,50,0
86400,note_off,,,,,192,0,3,,,,,2,,,71,0
86400,note_off,,,,,192,0,5,,,,,4,,,64,0
86400,note_off,,,,,192,0,4,,,,,3,,,68,0
86400,note_off,,,,,192,0,8,,,,,7,,,62,0
86400,note_off,,,,,384,0,2,,,,,1,,,71,0
86400,note_on,,,,,0,0,3,,,,,2,,,71,94
86496,note_on,,,,,0,0,1,,,,,0,,,76,75
86496,note_off,,,,,96,0,1,,,,,0,,,80,0
86592,note_on,,,,,192,0,7,,,,,6,,,50,75
86592,note_off,,,,,96,0,1,,,,,0,,,76,0
86592,note_on,,,,,192,0,2,,,,,1,,,71,75
86592,note_on,,,,,192,0,6,,,,,5,,,62,75
86592,note_on,,,,,0,0,1,,,,,0,,,80,75
86688,note_on,,,,,0,0,1,,,,,0,,,83,75
86688,note_off,,,,,96,0,1,,,,,0,,,80,0
86784,note_off,,,,,192,0,7,,,,,6,,,50,0
86784,note_on,,,,,0,0,7,,,,,6,,,49,75
86784,note_off,,,,,192,0,2,,,,,1,,,71,0
86784,note_off,,,,,384,0,4,,,,,3,,,68,0
86784,note_off,,,,,192,0,6,,,,,5,,,62,0
86784,note_on,,,,,0,0,6,,,,,5,,,61,75
86784,note_off,,,,,384,0,3,,,,,2,,,71,0
86784,note_on,,,,,0,0,2,,,,,1,,,76,75
86784,note_off,,,,,384,0,5,,,,,4,,,64,0
86784,note_on,,,,,0,0,1,,,,,0,,,81,75
86784,note_off,,,,,96,0,1,,,,,0,,,83,0
86784,note_off,,,,,384,0,8,,,,,7,,,62,0
86880,note_on,,,,,0,0,1,,,,,0,,,76,75
86880,note_off,,,,,96,0,1,,,,,0,,,81,0
86976,note_on,,,,,192,0,5,,,,,4,,,64,75
86976,note_on,,,,,0,0,1,,,,,0,,,81,75
86976,note_off,,,,,96,0,1,,,,,0,,,76,0
86976,note_on,,,,,192,0,8,,,,,7,,,61,60
86976,note_on,,,,,192,0,4,,,,,3,,,69,88
86976,note_on,,,,,192,0,3,,,,,2,,,76,94
87072,note_off,,,,,96,0,1,,,,,0,,,81,0
87072,note_on,,,,,0,0,1,,,,,0,,,85,75
87168,note_on,,,,,0,0,1,,,,,0,,,81,75
87168,note_off,,,,,384,0,2,,,,,1,,,76,0
87168,note_off,,,,,384,0,7,,,,,6,,,49,0
87168,note_off,,,,,192,0,4,,,,,3,,,69,0
87168,note_off,,,,,192,0,5,,,,,4,,,64,0
87168,note_on,,,,,0,0,3,,,,,2,,,76,94
87168,note_off,,,,,192,0,3,,,,,2,,,76,0
87168,note_off,,,,,96,0,1,,,,,0,,,85,0
87168,note_on,,,,,0,0,4,,,,,3,,,69,88
87168,note_on,,,,,0,0,5,,,,,4,,,64,75
87168,note_off,,,,,384,0,6,,,,,5,,,61,0
87168,note_on,,,,,0,0,8,,,,,7,,,61,60
87168,note_off,,,,,192,0,8,,,,,7,,,61,0
87264,note_on,,,,,0,0,1,,,,,0,,,76,75
87264,note_off,,,,,96,0,1,,,,,0,,,81,0
87360,note_on,,,,,192,0,2,,,,,1,,,76,75
87360,note_on,,,,,0,0,1,,,,,0,,,81,75
87360,note_on,,,,,192,0,7,,,,,6,,,45,75
87360,note_off,,,,,96,0,1,,,,,0,,,76,0
87360,note_on,,,,,192,0,6,,,,,5,,,57,75
87456,note_on,,,,,0,0,1,,,,,0,,,85,75
87456,note_off,,,,,96,0,1,,,,,0,,,81,0
87552,note_on,,,,,0,0,1,,,,,0,,,83,75
87552,note_off,,,,,384,0,4,,,,,3,,,69,0
87552,note_on,,,,,0,0,7,,,,,6,,,44,75
87552,note_off,,,,,96,0,1,,,,,0,,,85,0
87552,note_off,,,,,192,0,7,,,,,6,,,45,0
87552,note_off,,,,,192,0,6,,,,,5,,,57,0
87552,note_off,,,,,192,0,2,,,,,1,,,76,0
87552,note_on,,,,,0,0,2,,,,,1,,,76,75
87552,note_off,,,,,384,0,3,,,,,2,,,76,0
87552,note_off,,,,,384,0,8,,,,,7,,,61,0
87552,note_off,,,,,384,0,5,,,,,4,,,64,0
87552,note_on,,,,,0,0,6,,,,,5,,,56,75
87648,note_off,,,,,96,0,1,,,,,0,,,83,0
87648,note_on,,,,,0,0,1,,,,,0,,,76,75
87744,note_off,,,,,96,0,1,,,,,0,,,76,0
87744,note_on,,,,,0,0,1,,,,,0,,,83,75
87744,note_on,,,,,192,0,8,,,,,7,,,56,60
87744,note_on,,,,,192,0,4,,,,,3,,,71,88
87744,note_on,,,,,192,0,5,,,,,4,,,68,75
87744,note_on,,,,,192,0,3,,,,,2,,,76,94
87840,note_off,,,,,96,0,1,,,,,0,,,83,0
87840,note_on,,,,,0,0,1,,,,,0,,,86,75
87936,note_off,,,,,192,0,8,,,,,7,,,56,0
87936,note_on,,,,,0,0,8,,,,,7,,,56,60
87936,note_off,,,,,384,0,2,,,,,1,,,76,0
87936,note_off,,,,,192,0,5,,,,,4,,,68,0
87936,note_on,,,,,0,0,4,,,,,3,,,71,88
87936,note_on,,,,,0,0,1,,,,,0,,,83,75
87936,note_off,,,,,384,0,6,,,,,5,,,56,0
87936,note_off,,,,,192,0,4,,,,,3,,,71,0
87936,note_off,,,,,384,0,7,,,,,6,,,44,0
87936,note_on,,,,,0,0,5,,,,,4,,,68,75
87936,note_on,,,,,0,0,3,,,,,2,,,76,94
87936,note_off,,,,,192,0,3,,,,,2,,,76,0
87936,note_off,,,,,96,0,1,,,,,0,,,86,0
88032,note_on,,,,,0,0,1,,,,,0,,,76,75
88032,note_off,,,,,96,0,1,,,,,0,,,83,0
88128,note_on,,,,,192,0,6,,,,,5,,,52,75
88128,note_on,,,,,192,0,7,,,,,6,,,40,75
88128,note_on,,,,,192,0,2,,,,,1,,,80,75
88128,note_on,,,,,0,0,1,,,,,0,,,83,75
88128,note_off,,,,,96,0,1,,,,,0,,,76,0
88224,note_off,,,,,96,0,1,,,,,0,,,83,0
88224,note_on,,,,,0,0,1,,,,,0,,,86,75
88320,note_on,,,,,0,0,1,,,,,0,,,85,75
88320,note_off,,,,,192,0,7,,,,,6,,,40,0
88320,note_on,,,,,0,0,7,,,,,6,,,45,75
88320,note_off,,,,,192,0,2,,,,,1,,,80,0
88320,note_off,,,,,384,0,8,,,,,7,,,56,0
88320,note_off,,,,,96,0,1,,,,,0,,,86,0
88320,note_on,,,,,0,0,2,,,,,1,,,81,75
88320,note_off,,,,,384,0,4,,,,,3,,,71,0
88320,note_off,,,,,192,0,6,,,,,5,,,52,0
88320,note_on,,,,,0,0,6,,,,,5,,,57,75
88320,note_off,,,,,384,0,5,,,,,4,,,68,0
88320,note_off,,,,,384,0,3,,,,,2,,,76,0
88416,note_off,,,,,96,0,1,,,,,0,,,85,0
88416,note_on,,,,,0,0,1,,,,,0,,,76,75
88512,note_off,,,,,96,0,1,,,,,0,,,76,0
88512,note_on,,,,,192,0,4,,,,,3,,,73,88
88512,note_on,,,,,192,0,5,,,,,4,,,61,75
88512,note_on,,,,,192,0,3,,,,,2,,,76,94
88512,note_on,,,,,0,0,1,,,,,0,,,78,75
88512,note_on,,,,,192,0,8,,,,,7,,,57,60
88608,note_off,,,,,96,0,1,,,,,0,,,78,0
88608,note_on,,,,,0,0,1,,,,,0,,,80,75
88704,note_off,,,,,192,0,8,,,,,7,,,57,0
88704,note_off,,,,,384,0,7,,,,,6,,,45,0
88704,note_on,,,,,0,0,5,,,,,4,,,69,75
88704,note_off,,,,,192,0,4,,,,,3,,,73,0
88704,note_off,,,,,192,0,3,,,,,2,,,76,0
88704,note_on,,,,,0,0,3,,,,,2,,,76,94
88704,note_on,,,,,0,0,4,,,,,3,,,73,88
88704,note_on,,,,,0,0,1,,,,,0,,,81,75
88704,note_off,,,,,192,0,5,,,,,4,,,61,0
88704,note_off,,,,,384,0,2,,,,,1,,,81,0
88704,note_off,,,,,96,0,1,,,,,0,,,80,0
88704,note_on,,,,,0,0,8,,,,,7,,,57,60
88704,note_off,,,,,384,0,6,,,,,5,,,57,0
88800,note_off,,,,,96,0,1,,,,,0,,,81,0
88800,note_on,,,,,0,0,1,,,,,0,,,76,75
88896,note_off,,,,,96,0,1,,,,,0,,,76,0
88896,note_on,,,,,192,0,2,,,,,1,,,76,75
88896,note_on,,,,,0,0,1,,,,,0,,,83,75
88896,note_on,,,,,192,0,6,,,,,5,,,56,75
88896,note_on,,,,,192,0,7,,,,,6,,,44,75
88992,note_on,,,,,0,0,1,,,,,0,,,76,75
88992,note_off,,,,,96,0,1,,,,,0,,,83,0
89088,note_off,,,,,96,0,1,,,,,0,,,76,0
89088,note_on,,,,,0,0,1,,,,,0,,,85,75
89088,note_off,,,,,192,0,6,,,,,5,,,56,0
89088,note_off,,,,,384,0,4,,,,,3,,,73,0
89088,note_off,,,,,192,0,2,,,,,1,,,76,0
89088,note_on,,,,,0,0,2,,,,,1,,,76,75
89088,note_off,,,,,384,0,3,,,,,2,,,76,0
89088,note_off,,,,,192,0,7,,,,,6,,,44,0
89088,note_on,,,,,0,0,7,,,,,6,,,45,75
89088,note_off,,,,,384,0,8,,,,,7,,,57,0
89088,note_off,,,,,384,0,5,,,,,4,,,69,0
89088,note_on,,,,,0,0,6,,,,,5,,,57,75
89184,note_off,,,,,96,0,1,,,,,0,,,85,0
89184,note_on,,,,,0,0,1,,,,,0,,,86,75
89280,note_on,,,,,0,0,1,,,,,0,,,83,75
89280,note_off,,,,,192,0,7,,,,,6,,,45,0
89280,note_on,,,,,0,0,7,,,,,6,,,44,75
89280,note_off,,,,,192,0,6,,,,,5,,,57,0
89280,note_off,,,,,192,0,2,,,,,1,,,76,0
89280,note_on,,,,,0,0,2,,,,,1,,,76,75
89280,note_off,,,,,96,0,1,,,,,0,,,86,0
89280,note_on,,,,,0,0,6,,,,,5,,,56,75
89376,note_off,,,,,96,0,1,,,,,0,,,83,0
89376,note_on,,,,,0,0,1,,,,,0,,,85,75
89472,note_on,,,,,0,0,2,,,,,1,,,81,75
89472,note_off,,,,,96,0,1,,,,,0,,,85,0
89472,note_on,,,,,0,0,1,,,,,0,,,86,75
89472,note_off,,,,,192,0,2,,,,,1,,,76,0
89472,note_on,,,,,0,0,7,,,,,6,,,42,75
89472,note_off,,,,,192,0,7,,,,,6,,,44,0
89472,note_off,,,,,192,0,6,,,,,5,,,56,0
89472,note_on,,,,,0,0,6,,,,,5,,,54,75
89568,note_off,,,,,96,0,1,,,,,0,,,86,0
89568,note_on,,,,,0,0,1,,,,,0,,,85,75
89664,note_off,,,,,192,0,7,,,,,6,,,42,0
89664,note_on,,,,,0,0,6,,,,,5,,,57,75
89664,note_on,,,,,0,0,2,,,,,1,,,78,75
89664,note_off,,,,,192,0,2,,,,,1,,,81,0
89664,note_off,,,,,192,0,6,,,,,5,,,54,0
89664,note_on,,,,,0,0,7,,,,,6,,,45,75
89664,note_off,,,,,96,0,1,,,,,0,,,85,0
89664,note_on,,,,,0,0,1,,,,,0,,,83,75
89760,note_on,,,,,0,0,1,,,,,0,,,81,75
89760,note_off,,,,,96,0,1,,,,,0,,,83,0
89856,note_off,,,,,96,0,1,,,,,0,,,81,0
89856,note_on,,,,,0,0,1,,,,,0,,,83,75
89856,note_off,,,,,192,0,6,,,,,5,,,57,0
89856,note_on,,,,,0,0,2,,,,,1,,,80,75
89856,note_on,,,,,0,0,6,,,,,5,,,52,75
89856,note_off,,,,,192,0,2,,,,,1,,,78,0
89856,note_on,,,,,0,0,7,,,,,6,,,40,75
89856,note_off,,,,,192,0,7,,,,,6,,,45,0
89952,note_off,,,,,96,0,1,,,,,0,,,83,0
89952,note_on,,,,,0,0,1,,,,,0,,,76,75
90048,note_off,,,,,96,0,1,,,,,0,,,76,0
90048,note_on,,,,,0,0,1,,,,,0,,,80,75
90048,note_on,,,,,960,0,4,,,,,3,,,59,88
90048,note_on,,,,,960,0,8,,,,,7,,,52,60
90048,note_on,,,,,960,0,5,,,,,4,,,56,75
90048,note_on,,,,,960,0,3,,,,,2,,,64,94
90144,note_off,,,,,96,0,1,,,,,0,,,80,0
90144,note_on,,,,,0,0,1,,,,,0,,,83,75
90240,note_off,,,,,192,0,4,,,,,3,,,59,0
90240,note_on,,,,,0,0,4,,,,,3,,,59,88
90240,note_off,,,,,384,0,7,,,,,6,,,40,0
90240,note_on,,,,,0,0,1,,,,,0,,,74,75
90240,note_off,,,,,96,0,1,,,,,0,,,83,0
90240,note_off,,,,,192,0,8,,,,,7,,,52,0
90240,note_off,,,,,384,0,2,,,,,1,,,80,0
90240,note_off,,,,,192,0,3,,,,,2,,,64,0
90240,note_on,,,,,0,0,3,,,,,2,,,64,94
90240,note_on,,,,,0,0,8,,,,,7,,,44,60
90240,note_off,,,,,192,0,5,,,,,4,,,56,0
90240,note_on,,,,,0,0,5,,,,,4,,,56,75
90240,note_off,,,,,384,0,6,,,,,5,,,52,0
90336,note_off,,,,,96,0,1,,,,,0,,,74,0
90336,note_on,,,,,0,0,1,,,,,0,,,78,75
90432,note_off,,,,,96,0,1,,,,,0,,,78,0
90432,note_on,,,,,192,0,6,,,,,5,,,56,75
90432,note_on,,,,,0,0,1,,,,,0,,,76,75
90432,note_on,,,,,192,0,2,,,,,1,,,71,75
90432,note_on,,,,,192,0,7,,,,,6,,,44,75
90528,note_on,,,,,0,0,1,,,,,0,,,74,75
90528,note_off,,,,,96,0,1,,,,,0,,,76,0
90624,note_off,,,,,96,0,1,,,,,0,,,74,0
90624,note_on,,,,,0,0,1,,,,,0,,,73,75
90624,note_on,,,,,0,0,6,,,,,5,,,57,75
90624,note_off,,,,,192,0,6,,,,,5,,,56,0
90624,note_off,,,,,384,0,5,,,,,4,,,56,0
90624,note_off,,,,,192,0,2,,,,,1,,,71,0
90624,note_on,,,,,0,0,2,,,,,1,,,64,75
90624,note_on,,,,,0,0,7,,,,,6,,,45,75
90624,note_off,,,,,384,0,8,,,,,7,,,44,0
90624,note_off,,,,,192,0,7,,,,,6,,,44,0
90624,note_off,,,,,384,0,4,,,,,3,,,59,0
90624,note_off,,,,,384,0,3,,,,,2,,,64,0
90720,note_off,,,,,96,0,1,,,,,0,,,73,0
90720,note_on,,,,,0,0,1,,,,,0,,,76,75
90816,note_on,,,,,192,0,4,,,,,3,,,69,88
90816,note_off,,,,,96,0,1,,,,,0,,,76,0
90816,note_on,,,,,0,0,1,,,,,0,,,78,75
90816,note_on,,,,,192,0,3,,,,,2,,,73,94
90816,note_on,,,,,192,0,5,,,,,4,,,64,75
90816,note_on,,,,,192,0,8,,,,,7,,,45,60
90912,note_off,,,,,96,0,1,,,,,0,,,78,0
90912,note_on,,,,,0,0,1,,,,,0,,,76,75
91008,note_off,,,,,384,0,7,,,,,6,,,45,0
91008,note_on,,,,,0,0,5,,,,,4,,,66,75
91008,note_off,,,,,192,0,5,,,,,4,,,64,0
91008,note_on,,,,,0,0,8,,,,,7,,,42,60
91008,note_off,,,,,96,0,1,,,,,0,,,76,0
91008,note_off,,,,,384,0,2,,,,,1,,,64,0
91008,note_on,,,,,0,0,4,,,,,3,,,69,88
91008,note_off,,,,,192,0,4,,,,,3,,,69,0
91008,note_on,,,,,0,0,1,,,,,0,,,74,75
91008,note_off,,,,,192,0,3,,,,,2,,,73,0
91008,note_off,,,,,384,0,6,,,,,5,,,57,0
91008,note_on,,,,,0,0,3,,,,,2,,,74,94
91008,note_off,,,,,192,0,8,,,,,7,,,45,0
91104,note_on,,,,,0,0,1,,,,,0,,,73,75
91104,note_off,,,,,96,0,1,,,,,0,,,74,0
91200,note_off,,,,,96,0,1,,,,,0,,,73,0
91200,note_on,,,,,0,0,8,,,,,7,,,54,60
91200,note_on,,,,,192,0,2,,,,,1,,,74,75
91200,note_off,,,,,192,0,8,,,,,7,,,42,0
91200,note_off,,,,,192,0,4,,,,,3,,,69,0
91200,note_on,,,,,0,0,1,,,,,0,,,71,75
91200,note_on,,,,,0,0,5,,,,,4,,,66,75
91200,note_on,,,,,192,0,6,,,,,5,,,54,75
91200,note_on,,,,,192,0,7,,,,,6,,,42,75
91200,note_off,,,,,192,0,3,,,,,2,,,74,0
91200,note_on,,,,,0,0,4,,,,,3,,,69,88
91200,note_on,,,,,0,0,3,,,,,2,,,74,94
91200,note_off,,,,,192,0,5,,,,,4,,,66,0
91296,note_off,,,,,96,0,1,,,,,0,,,71,0
91296,note_on,,,,,0,0,1,,,,,0,,,69,75
91392,note_off,,,,,192,0,5,,,,,4,,,66,0
91392,note_on,,,,,0,0,5,,,,,4,,,68,75
91392,note_off,,,,,192,0,4,,,,,3,,,69,0
91392,note_on,,,,,0,0,2,,,,,1,,,68,75
91392,note_off,,,,,192,0,2,,,,,1,,,74,0
91392,note_on,,,,,0,0,4,,,,,3,,,59,88
91392,note_off,,,,,192,0,6,,,,,5,,,54,0
91392,note_on,,,,,0,0,8,,,,,7,,,52,60
91392,note_on,,,,,0,0,7,,,,,6,,,40,75
91392,note_off,,,,,192,0,3,,,,,2,,,74,0
91392,note_on,,,,,0,0,6,,,,,5,,,52,75
91392,note_on,,,,,0,0,3,,,,,2,,,64,94
91392,note_on,,,,,0,0,1,,,,,0,,,83,75
91392,note_off,,,,,96,0,1,,,,,0,,,69,0
91392,note_off,,,,,192,0,8,,,,,7,,,54,0
91392,note_off,,,,,192,0,7,,,,,6,,,42,0
91488,note_on,,,,,0,0,1,,,,,0,,,81,75
91488,note_off,,,,,96,0,1,,,,,0,,,83,0
91584,note_on,,,,,0,0,1,,,,,0,,,80,75
91584,note_off,,,,,96,0,1,,,,,0,,,81,0
91680,note_off,,,,,96,0,1,,,,,0,,,80,0
91680,note_on,,,,,0,0,1,,,,,0,,,78,75
91776,note_off,,,,,384,0,8,,,,,7,,,52,0
91776,note_off,,,,,384,0,5,,,,,4,,,68,0
91776,note_off,,,,,384,0,4,,,,,3,,,59,0
91776,note_off,,,,,96,0,1,,,,,0,,,78,0
91776,note_on,,,,,0,0,1,,,,,0,,,76,75
91776,note_off,,,,,384,0,3,,,,,2,,,64,0
91776,note_off,,,,,384,0,7,,,,,6,,,40,0
91776,note_off,,,,,384,0,2,,,,,1,,,68,0
91776,note_off,,,,,384,0,6,,,,,5,,,52,0
91872,note_off,,,,,96,0,1,,,,,0,,,76,0
91872,note_on,,,,,0,0,1,,,,,0,,,74,75
91968,note_off,,,,,96,0,1,,,,,0,,,74,0
91968,note_on,,,,,0,0,1,,,,,0,,,73,75
92064,note_off,,,,,96,0,1,,,,,0,,,73,0
92064,note_on,,,,,0,0,1,,,,,0,,,71,75
92160,note_on,,,,,0,0,1,,,,,0,,,76,75
92160,note_off,,,,,96,0,1,,,,,0,,,71,0
92160,note_on,,,,,384,0,2,,,,,1,,,69,75
92160,note_on,,,,,384,0,7,,,,,6,,,49,75
92160,note_on,,,,,384,0,6,,,,,5,,,61,75
92544,note_off,,,,,384,0,6,,,,,5,,,61,0
92544,note_off,,,,,384,0,1,,,,,0,,,76,0
92544,note_on,,,,,0,0,1,,,,,0,,,81,75
92544,note_on,,,,,0,0,6,,,,,5,,,57,75
92544,note_on,,,,,0,0,2,,,,,1,,,73,75
92544,note_off,,,,,384,0,2,,,,,1,,,69,0
92544,note_off,,,,,384,0,7,,,,,6,,,49,0
92544,note_on,,,,,0,0,7,,,,,6,,,45,75
92736,note_off,,,,,192,0,7,,,,,6,,,45,0
92736,note_on,,,,,0,0,7,,,,,6,,,49,75
92736,note_on,,,,,0,0,2,,,,,1,,,76,75
92736,note_off,,,,,192,0,2,,,,,1,,,73,0
92736,note_on,,,,,0,0,1,,,,,0,,,76,75
92736,note_off,,,,,192,0,1,,,,,0,,,81,0
92736,note_on,,,,,0,0,6,,,,,5,,,61,75
92736,note_off,,,,,192,0,6,,,,,5,,,57,0
92928,note_off,,,,,192,0,2,,,,,1,,,76,0
92928,note_on,,,,,0,0,1,,,,,0,,,78,75
92928,note_off,,,,,192,0,1,,,,,0,,,76,0
92928,note_on,,,,,0,0,7,,,,,6,,,50,75
92928,note_off,,,,,192,0,7,,,,,6,,,49,0
92928,note_off,,,,,192,0,6,,,,,5,,,61,0
92928,note_on,,,,,0,0,6,,,,,5,,,62,75
92928,note_on,,,,,0,0,2,,,,,1,,,69,75
93120,note_off,,,,,192,0,1,,,,,0,,,78,0
93120,note_off,,,,,192,0,2,,,,,1,,,69,0
93120,note_on,,,,,0,0,2,,,,,1,,,74,75
93120,note_on,,,,,0,0,1,,,,,0,,,81,75
93312,note_on,,,,,0,0,1,,,,,0,,,74,75
93312,note_off,,,,,384,0,6,,,,,5,,,62,0
93312,note_on,,,,,0,0,7,,,,,6,,,38,75
93312,note_off,,,,,384,0,7,,,,,6,,,50,0
93312,note_off,,,,,192,0,1,,,,,0,,,81,0
93312,note_on,,,,,0,0,6,,,,,5,,,50,75
93312,note_off,,,,,192,0,2,,,,,1,,,74,0
93312,note_on,,,,,0,0,2,,,,,1,,,66,75
93696,note_on,,,,,1920,0,5,,,,,4,,,69,75
93696,note_off,,,,,384,0,7,,,,,6,,,38,0
93696,note_off,,,,,384,0,2,,,,,1,,,66,0
93696,note_on,,,,,1920,0,4,,,,,3,,,69,88
93696,note_on,,,,,1920,0,3,,,,,2,,,76,94
93696,note_off,,,,,384,0,1,,,,,0,,,74,0
93696,note_off,,,,,384,0,6,,,,,5,,,50,0
93696,note_on,,,,,1920,0,8,,,,,7,,,61,60
94080,note_off,,,,,384,0,8,,,,,7,,,61,0
94080,note_on,,,,,0,0,8,,,,,7,,,57,60
94080,note_on,,,,,0,0,5,,,,,4,,,64,75
94080,note_off,,,,,384,0,5,,,,,4,,,69,0
94080,note_on,,,,,0,0,4,,,,,3,,,73,88
94080,note_on,,,,,0,0,3,,,,,2,,,81,94
94080,note_off,,,,,384,0,3,,,,,2,,,76,0
94080,note_off,,,,,384,0,4,,,,,3,,,69,0
94272,note_on,,,,,0,0,4,,,,,3,,,76,88
94272,note_on,,,,,0,0,5,,,,,4,,,69,75
94272,note_off,,,,,192,0,5,,,,,4,,,64,0
94272,note_off,,,,,192,0,8,,,,,7,,,57,0
94272,note_on,,,,,0,0,3,,,,,2,,,76,94
94272,note_on,,,,,0,0,8,,,,,7,,,61,60
94272,note_off,,,,,192,0,3,,,,,2,,,81,0
94272,note_off,,,,,192,0,4,,,,,3,,,73,0
94464,note_off,,,,,192,0,5,,,,,4,,,69,0
94464,note_on,,,,,0,0,5,,,,,4,,,69,75
94464,note_on,,,,,0,0,3,,,,,2,,,78,94
94464,note_on,,,,,0,0,8,,,,,7,,,62,60
94464,note_off,,,,,192,0,8,,,,,7,,,61,0
94464,note_on,,,,,0,0,4,,,,,3,,,69,88
94464,note_off,,,,,192,0,4,,,,,3,,,76,0
94464,note_off,,,,,192,0,3,,,,,2,,,76,0
94656,note_on,,,,,0,0,3,,,,,2,,,81,94
94656,note_off,,,,,192,0,4,,,,,3,,,69,0
94656,note_on,,,,,0,0,4,,,,,3,,,74,88
94656,note_off,,,,,192,0,3,,,,,2,,,78,0
94848,note_on,,,,,0,0,8,,,,,7,,,50,60
94848,note_off,,,,,384,0,8,,,,,7,,,62,0
94848,note_on,,,,,0,0,4,,,,,3,,,66,88
94848,note_on,,,,,0,0,3,,,,,2,,,74,94
94848,note_off,,,,,192,0,3,,,,,2,,,81,0
94848,note_off,,,,,384,0,5,,,,,4,,,69,0
94848,note_on,,,,,0,0,5,,,,,4,,,69,75
94848,note_off,,,,,192,0,4,,,,,3,,,74,0
95232,note_off,,,,,384,0,3,,,,,2,,,74,0
95232,note_off,,,,,384,0,8,,,,,7,,,50,0
95232,note_on,,,,,1536,0,2,,,,,1,,,68,75
95232,note_on,,,,,1536,0,1,,,,,0,,,71,75
95232,note_off,,,,,384,0,5,,,,,4,,,69,0
95232,note_on,,,,,1536,0,7,,,,,6,,,52,75
95232,note_off,,,,,384,0,4,,,,,3,,,66,0
95232,note_on,,,,,1536,0,6,,,,,5,,,64,75
95616,note_on,,,,,0,0,1,,,,,0,,,76,75
95616,note_off,,,,,384,0,7,,,,,6,,,52,0
95616,note_on,,,,,0,0,7,,,,,6,,,44,75
95616,note_on,,,,,0,0,2,,,,,1,,,71,75
95616,note_on,,,,,0,0,6,,,,,5,,,56,75
95616,note_off,,,,,384,0,6,,,,,5,,,64,0
95616,note_off,,,,,384,0,2,,,,,1,,,68,0
95616,note_off,,,,,384,0,1,,,,,0,,,71,0
95808,note_on,,,,,0,0,1,,,,,0,,,71,75
95808,note_off,,,,,192,0,7,,,,,6,,,44,0
95808,note_on,,,,,0,0,7,,,,,6,,,40,75
95808,note_off,,,,,192,0,1,,,,,0,,,76,0
95808,note_on,,,,,0,0,2,,,,,1,,,68,75
95808,note_off,,,,,192,0,2,,,,,1,,,71,0
95808,note_on,,,,,0,0,6,,,,,5,,,52,75
95808,note_off,,,,,192,0,6,,,,,5,,,56,0
96000,note_on,,,,,0,0,1,,,,,0,,,73,75
96000,note_on,,,,,0,0,7,,,,,6,,,45,75
96000,note_off,,,,,192,0,1,,,,,0,,,71,0
96000,note_off,,,,,192,0,7,,,,,6,,,40,0
96000,note_on,,,,,0,0,6,,,,,5,,,57,75
96000,note_off,,,,,192,0,2,,,,,1,,,68,0
96000,note_off,,,,,192,0,6,,,,,5,,,52,0
96000,note_on,,,,,0,0,2,,,,,1,,,64,75
96192,note_off,,,,,192,0,1,,,,,0,,,73,0
96192,note_on,,,,,0,0,1,,,,,0,,,76,75
96384,note_off,,,,,384,0,6,,,,,5,,,57,0
96384,note_on,,,,,0,0,6,,,,,5,,,45,75
96384,note_off,,,,,192,0,1,,,,,0,,,76,0
96384,note_on,,,,,0,0,7,,,,,6,,,33,75
96384,note_on,,,,,0,0,1,,,,,0,,,69,75
96384,note_off,,,,,384,0,7,,,,,6,,,45,0
96384,note_off,,,,,384,0,2,,,,,1,,,64,0
96384,note_on,,,,,0,0,2,,,,,1,,,61,75
96768,note_on,,,,,1536,0,8,,,,,7,,,52,60
96768,note_on,,,,,1536,0,3,,,,,2,,,71,94
96768,note_on,,,,,1536,0,5,,,,,4,,,64,75
96768,note_off,,,,,384,0,7,,,,,6,,,33,0
96768,note_off,,,,,384,0,6,,,,,5,,,45,0
96768,note_on,,,,,1536,0,4,,,,,3,,,68,88
96768,note_off,,,,,384,0,1,,,,,0,,,69,0
96768,note_off,,,,,384,0,2,,,,,1,,,61,0
97152,note_on,,,,,0,0,4,,,,,3,,,71,88
97152,note_off,,,,,384,0,4,,,,,3,,,68,0
97152,note_on,,,,,0,0,8,,,,,7,,,56,60
97152,note_on,,,,,0,0,5,,,,,4,,,64,75
97152,note_off,,,,,384,0,5,,,,,4,,,64,0
97152,note_off,,,,,384,0,8,,,,,7,,,52,0
97152,note_on,,,,,0,0,3,,,,,2,,,76,94
97152,note_off,,,,,384,0,3,,,,,2,,,71,0
97344,note_on,,,,,0,0,8,,,,,7,,,52,60
97344,note_off,,,,,192,0,8,,,,,7,,,56,0
97344,note_off,,,,,192,0,5,,,,,4,,,64,0
97344,note_on,,,,,0,0,3,,,,,2,,,71,94
97344,note_off,,,,,192,0,4,,,,,3,,,71,0
97344,note_on,,,,,0,0,4,,,,,3,,,68,88
97344,note_on,,,,,0,0,5,,,,,4,,,64,75
97344,note_off,,,,,192,0,3,,,,,2,,,76,0
97536,note_on,,,,,0,0,5,,,,,4,,,64,75
97536,note_off,,,,,192,0,5,,,,,4,,,64,0
97536,note_off,,,,,192,0,8,,,,,7,,,52,0
97536,note_off,,,,,192,0,3,,,,,2,,,71,0
97536,note_on,,,,,0,0,3,,,,,2,,,73,94
97536,note_on,,,,,0,0,8,,,,,7,,,57,60
97536,note_on,,,,,0,0,4,,,,,3,,,69,88
97536,note_off,,,,,192,0,4,,,,,3,,,68,0
97728,note_on,,,,,0,0,5,,,,,4,,,69,75
97728,note_off,,,,,192,0,3,,,,,2,,,73,0
97728,note_on,,,,,0,0,3,,,,,2,,,76,94
97728,note_off,,,,,192,0,5,,,,,4,,,64,0
97728,note_on,,,,,0,0,4,,,,,3,,,73,88
97728,note_off,,,,,192,0,4,,,,,3,,,69,0
97920,note_off,,,,,192,0,5,,,,,4,,,69,0
97920,note_on,,,,,0,0,5,,,,,4,,,61,75
97920,note_on,,,,,0,0,4,,,,,3,,,64,88
97920,note_off,,,,,192,0,4,,,,,3,,,73,0
97920,note_off,,,,,384,0,8,,,,,7,,,57,0
97920,note_on,,,,,0,0,8,,,,,7,,,45,60
97920,note_off,,,,,192,0,3,,,,,2,,,76,0
97920,note_on,,,,,0,0,3,,,,,2,,,69,94
98304,note_on,,,,,1536,0,7,,,,,6,,,49,75
98304,note_off,,,,,384,0,3,,,,,2,,,69,0
98304,note_off,,,,,384,0,5,,,,,4,,,61,0
98304,note_off,,,,,384,0,4,,,,,3,,,64,0
98304,note_on,,,,,1536,0,1,,,,,0,,,81,75
98304,note_on,,,,,1536,0,6,,,,,5,,,61,75
98304,note_on,,,,,1536,0,2,,,,,1,,,76,75
98304,note_off,,,,,384,0,8,,,,,7,,,45,0
98688,note_on,,,,,0,0,6,,,,,5,,,64,75
98688,note_off,,,,,384,0,6,,,,,5,,,61,0
98688,note_on,,,,,0,0,2,,,,,1,,,73,75
98688,note_on,,,,,0,0,7,,,,,6,,,52,75
98688,note_off,,,,,384,0,1,,,,,0,,,81,0
98688,note_off,,,,,384,0,2,,,,,1,,,76,0
98688,note_on,,,,,0,0,1,,,,,0,,,79,75
98688,note_off,,,,,384,0,7,,,,,6,,,49,0
98784,note_off,,,,,96,0,1,,,,,0,,,79,0
98784,note_on,,,,,0,0,1,,,,,0,,,78,75
98880,note_on,,,,,0,0,7,,,,,6,,,49,75
98880,note_off,,,,,96,0,1,,,,,0,,,78,0
98880,note_on,,,,,0,0,6,,,,,5,,,61,75
98880,note_off,,,,,192,0,6,,,,,5,,,64,0
98880,note_on,,,,,0,0,1,,,,,0,,,79,75
98880,note_off,,,,,192,0,7,,,,,6,,,52,0
98976,note_on,,,,,0,0,1,,,,,0,,,76,75
98976,note_off,,,,,96,0,1,,,,,0,,,79,0
99072,note_off,,,,,192,0,6,,,,,5,,,61,0
99072,note_on,,,,,0,0,1,,,,,0,,,78,75
99072,note_on,,,,,0,0,7,,,,,6,,,50,75
99072,note_on,,,,,0,0,6,,,,,5,,,62,75
99072,note_off,,,,,96,0,1,,,,,0,,,76,0
99072,note_off,,,,,192,0,7,,,,,6,,,49,0
99072,note_on,,,,,0,0,2,,,,,1,,,69,75
99072,note_off,,,,,384,0,2,,,,,1,,,73,0
99264,note_off,,,,,192,0,2,,,,,1,,,69,0
99264,note_on,,,,,0,0,2,,,,,1,,,78,75
99264,note_off,,,,,192,0,1,,,,,0,,,78,0
99264,note_on,,,,,0,0,1,,,,,0,,,81,75
99456,note_off,,,,,384,0,7,,,,,6,,,50,0
99456,note_on,,,,,0,0,1,,,,,0,,,86,75
99456,note_off,,,,,384,0,6,,,,,5,,,62,0
99456,note_on,,,,,0,0,7,,,,,6,,,54,75
99456,note_off,,,,,192,0,2,,,,,1,,,78,0
99456,note_on,,,,,0,0,2,,,,,1,,,81,75
99456,note_off,,,,,192,0,1,,,,,0,,,81,0
99456,note_on,,,,,0,0,6,,,,,5,,,66,75
99840,note_on,,,,,1536,0,4,,,,,3,,,69,88
99840,note_on,,,,,1536,0,8,,,,,7,,,51,60
99840,note_on,,,,,1536,0,3,,,,,2,,,78,94
99840,note_off,,,,,384,0,1,,,,,0,,,86,0
99840,note_off,,,,,384,0,7,,,,,6,,,54,0
99840,note_off,,,,,384,0,2,,,,,1,,,81,0
99840,note_on,,,,,1536,0,5,,,,,4,,,59,75
99840,note_off,,,,,384,0,6,,,,,5,,,66,0
100032,note_on,,,,,0,0,8,,,,,7,,,54,60
100032,note_off,,,,,192,0,8,,,,,7,,,51,0
100224,note_on,,,,,0,0,4,,,,,3,,,66,88
100224,note_on,,,,,0,0,8,,,,,7,,,47,60
100224,note_off,,,,,384,0,3,,,,,2,,,78,0
100224,note_on,,,,,0,0,5,,,,,4,,,63,75
100224,note_off,,,,,384,0,5,,,,,4,,,59,0
100224,note_off,,,,,192,0,8,,,,,7,,,54,0
100224,note_off,,,,,384,0,4,,,,,3,,,69,0
100224,note_on,,,,,0,0,3,,,,,2,,,69,94
100320,note_off,,,,,96,0,3,,,,,2,,,69,0
100320,note_off,,,,,96,0,4,,,,,3,,,66,0
100320,note_on,,,,,0,0,4,,,,,3,,,64,88
100320,note_on,,,,,0,0,3,,,,,2,,,68,94
100416,note_off,,,,,96,0,3,,,,,2,,,68,0
100416,note_on,,,,,0,0,4,,,,,3,,,66,88
100416,note_off,,,,,96,0,4,,,,,3,,,64,0
100416,note_on,,,,,0,0,3,,,,,2,,,69,94
100512,note_on,,,,,0,0,3,,,,,2,,,66,94
100512,note_off,,,,,96,0,3,,,,,2,,,69,0
100512,note_off,,,,,96,0,4,,,,,3,,,66,0
100512,note_on,,,,,0,0,4,,,,,3,,,63,88
100608,note_off,,,,,96,0,3,,,,,2,,,66,0
100608,note_on,,,,,0,0,8,,,,,7,,,52,60
100608,note_off,,,,,96,0,4,,,,,3,,,63,0
100608,note_off,,,,,384,0,8,,,,,7,,,47,0
100608,note_on,,,,,0,0,4,,,,,3,,,64,88
100608,note_off,,,,,384,0,5,,,,,4,,,63,0
100608,note_on,,,,,0,0,5,,,,,4,,,59,75
100608,note_on,,,,,0,0,3,,,,,2,,,68,94
100800,note_on,,,,,0,0,4,,,,,3,,,68,88
100800,note_on,,,,,0,0,3,,,,,2,,,71,94
100800,note_off,,,,,192,0,4,,,,,3,,,64,0
100800,note_off,,,,,192,0,3,,,,,2,,,68,0
100800,note_off,,,,,192,0,5,,,,,4,,,59,0
100800,note_on,,,,,0,0,5,,,,,4,,,64,75
100992,note_on,,,,,0,0,8,,,,,7,,,40,60
100992,note_on,,,,,0,0,3,,,,,2,,,64,94
100992,note_off,,,,,192,0,3,,,,,2,,,71,0
100992,note_off,,,,,192,0,5,,,,,4,,,64,0
100992,note_on,,,,,0,0,4,,,,,3,,,59,88
100992,note_off,,,,,192,0,4,,,,,3,,,68,0
100992,note_off,,,,,384,0,8,,,,,7,,,52,0
100992,note_on,,,,,0,0,5,,,,,4,,,56,75
101184,note_on,,,,,1344,0,1,,,,,0,,,86,75
101376,note_on,,,,,0,0,1,,,,,0,,,85,75
101376,note_off,,,,,384,0,4,,,,,3,,,59,0
101376,note_off,,,,,192,0,1,,,,,0,,,86,0
101376,note_off,,,,,384,0,5,,,,,4,,,56,0
101376,note_off,,,,,384,0,8,,,,,7,,,40,0
101376,note_off,,,,,384,0,3,,,,,2,,,64,0
101472,note_on,,,,,0,0,1,,,,,0,,,83,75
101472,note_off,,,,,96,0,1,,,,,0,,,85,0
101568,note_on,,,,,0,0,1,,,,,0,,,81,75
101568,note_off,,,,,96,0,1,,,,,0,,,83,0
101760,note_on,,,,,0,0,1,,,,,0,,,83,75
101760,note_off,,,,,192,0,1,,,,,0,,,81,0
101808,note_on,,,,,0,0,1,,,,,0,,,81,75
101808,note_off,,,,,48,0,1,,,,,0,,,83,0
101856,note_on,,,,,0,0,1,,,,,0,,,83,75
101856,note_off,,,,,48,0,1,,,,,0,,,81,0
101904,note_off,,,,,48,0,1,,,,,0,,,83,0
101904,note_on,,,,,0,0,1,,,,,0,,,81,75
101952,note_on,,,,,2112,0,6,,,,,5,,,62,75
101952,note_off,,,,,48,0,1,,,,,0,,,81,0
101952,note_on,,,,,0,0,1,,,,,0,,,83,75
101952,note_on,,,,,2112,0,7,,,,,6,,,50,75
101952,note_on,,,,,2112,0,2,,,,,1,,,78,75
102000,note_off,,,,,48,0,1,,,,,0,,,83,0
102000,note_on,,,,,0,0,1,,,,,0,,,81,75
102144,note_on,,,,,0,0,6,,,,,5,,,61,75
102144,note_on,,,,,0,0,7,,,,,6,,,49,75
102144,note_off,,,,,192,0,2,,,,,1,,,78,0
102144,note_on,,,,,0,0,2,,,,,1,,,76,75
102144,note_on,,,,,0,0,1,,,,,0,,,83,75
102144,note_off,,,,,144,0,1,,,,,0,,,81,0
102144,note_off,,,,,192,0,7,,,,,6,,,50,0
102144,note_off,,,,,192,0,6,,,,,5,,,62,0
102192,note_on,,,,,0,0,1,,,,,0,,,81,75
102192,note_off,,,,,48,0,1,,,,,0,,,83,0
102240,note_on,,,,,0,0,6,,,,,5,,,59,75
102240,note_on,,,,,0,0,7,,,,,6,,,47,75
102240,note_on,,,,,0,0,1,,,,,0,,,83,75
102240,note_off,,,,,96,0,6,,,,,5,,,61,0
102240,note_on,,,,,0,0,2,,,,,1,,,74,75
102240,note_off,,,,,48,0,1,,,,,0,,,81,0
102240,note_off,,,,,96,0,2,,,,,1,,,76,0
102240,note_off,,,,,96,0,7,,,,,6,,,49,0
102288,note_off,,,,,48,0,1,,,,,0,,,83,0
102288,note_on,,,,,0,0,1,,,,,0,,,81,75
102336,note_on,,,,,0,0,2,,,,,1,,,73,75
102336,note_off,,,,,96,0,7,,,,,6,,,47,0
102336,note_on,,,,,0,0,7,,,,,6,,,45,75
102336,note_on,,,,,0,0,6,,,,,5,,,57,75
102336,note_off,,,,,96,0,2,,,,,1,,,74,0
102336,note_on,,,,,0,0,1,,,,,0,,,83,75
102336,note_off,,,,,96,0,6,,,,,5,,,59,0
102336,note_off,,,,,48,0,1,,,,,0,,,81,0
102384,note_on,,,,,0,0,1,,,,,0,,,81,75
102384,note_off,,,,,48,0,1,,,,,0,,,83,0
102528,note_off,,,,,144,0,1,,,,,0,,,81,0
102528,note_off,,,,,192,0,2,,,,,1,,,73,0
102528,note_on,,,,,0,0,2,,,,,1,,,83,75
102528,note_on,,,,,0,0,7,,,,,6,,,47,75
102528,note_off,,,,,192,0,7,,,,,6,,,45,0
102528,note_on,,,,,0,0,6,,,,,5,,,59,75
102528,note_off,,,,,192,0,6,,,,,5,,,57,0
102576,note_on,,,,,0,0,2,,,,,1,,,81,75
102576,note_on,,,,,0,0,6,,,,,5,,,57,75
102576,note_on,,,,,0,0,7,,,,,6,,,45,75
102576,note_off,,,,,48,0,2,,,,,1,,,83,0
102576,note_off,,,,,48,0,7,,,,,6,,,47,0
102576,note_off,,,,,48,0,6,,,,,5,,,59,0
102624,note_on,,,,,0,0,6,,,,,5,,,59,75
102624,note_off,,,,,48,0,6,,,,,5,,,57,0
102624,note_off,,,,,48,0,2,,,,,1,,,81,0
102624,note_off,,,,,48,0,7,,,,,6,,,45,0
102624,note_on,,,,,0,0,7,,,,,6,,,47,75
102624,note_on,,,,,0,0,2,,,,,1,,,83,75
102672,note_off,,,,,48,0,6,,,,,5,,,59,0
102672,note_on,,,,,0,0,6,,,,,5,,,57,75
102672,note_off,,,,,48,0,7,,,,,6,,,47,0
102672,note_off,,,,,48,0,2,,,,,1,,,83,0
102672,note_on,,,,,0,0,2,,,,,1,,,81,75
102672,note_on,,,,,0,0,7,,,,,6,,,45,75
102720,note_on,,,,,0,0,2,,,,,1,,,83,75
102720,note_on,,,,,0,0,6,,,,,5,,,59,75
102720,note_off,,,,,48,0,6,,,,,5,,,57,0
102720,note_on,,,,,1344,0,5,,,,,4,,,66,75
102720,note_on,,,,,1344,0,3,,,,,2,,,86,94
102720,note_off,,,,,48,0,2,,,,,1,,,81,0
102720,note_on,,,,,0,0,7,,,,,6,,,47,75
102720,note_off,,,,,48,0,7,,,,,6,,,45,0
102768,note_on,,,,,0,0,7,,,,,6,,,45,75
102768,note_off,,,,,48,0,7,,,,,6,,,47,0
102768,note_off,,,,,48,0,6,,,,,5,,,59,0
102768,note_off,,,,,48,0,2,,,,,1,,,83,0
102768,note_on,,,,,0,0,6,,,,,5,,,57,75
102768,note_on,,,,,0,0,2,,,,,1,,,81,75
102912,note_off,,,,,192,0,5,,,,,4,,,66,0
102912,note_on,,,,,0,0,7,,,,,6,,,47,75
102912,note_on,,,,,0,0,5,,,,,4,,,64,75
102912,note_off,,,,,144,0,7,,,,,6,,,45,0
102912,note_off,,,,,144,0,6,,,,,5,,,57,0
102912,note_on,,,,,0,0,2,,,,,1,,,83,75
102912,note_off,,,,,144,0,2,,,,,1,,,81,0
102912,note_off,,,,,192,0,3,,,,,2,,,86,0
102912,note_on,,,,,0,0,3,,,,,2,,,85,94
102912,note_on,,,,,0,0,6,,,,,5,,,59,75
102960,note_on,,,,,0,0,2,,,,,1,,,81,75
102960,note_off,,,,,48,0,2,,,,,1,,,83,0
102960,note_off,,,,,48,0,6,,,,,5,,,59,0
102960,note_on,,,,,0,0,7,,,,,6,,,45,75
102960,note_off,,,,,48,0,7,,,,,6,,,47,0
102960,note_on,,,,,0,0,6,,,,,5,,,57,75
103008,note_off,,,,,48,0,6,,,,,5,,,57,0
103008,note_on,,,,,0,0,6,,,,,5,,,59,75
103008,note_off,,,,,96,0,5,,,,,4,,,64,0
103008,note_on,,,,,0,0,3,,,,,2,,,83,94
103008,note_off,,,,,96,0,3,,,,,2,,,85,0
103008,note_on,,,,,0,0,7,,,,,6,,,47,75
103008,note_off,,,,,48,0,2,,,,,1,,,81,0
103008,note_off,,,,,48,0,7,,,,,6,,,45,0
103008,note_on,,,,,0,0,2,,,,,1,,,83,75
103008,note_on,,,,,0,0,5,,,,,4,,,62,75
103056,note_off,,,,,48,0,6,,,,,5,,,59,0
103056,note_on,,,,,0,0,6,,,,,5,,,57,75
103056,note_on,,,,,0,0,7,,,,,6,,,45,75
103056,note_off,,,,,48,0,7,,,,,6,,,47,0
103056,note_off,,,,,48,0,2,,,,,1,,,83,0
103056,note_on,,,,,0,0,2,,,,,1,,,81,75
103104,note_off,,,,,96,0,5,,,,,4,,,62,0
103104,note_on,,,,,0,0,3,,,,,2,,,81,94
103104,note_off,,,,,96,0,3,,,,,2,,,83,0
103104,note_on,,,,,0,0,2,,,,,1,,,83,75
103104,note_off,,,,,48,0,2,,,,,1,,,81,0
103104,note_on,,,,,0,0,6,,,,,5,,,59,75
103104,note_off,,,,,48,0,6,,,,,5,,,57,0
103104,note_on,,,,,0,0,7,,,,,6,,,47,75
103104,note_off,,,,,48,0,7,,,,,6,,,45,0
103104,note_on,,,,,0,0,5,,,,,4,,,61,75
103152,note_on,,,,,0,0,7,,,,,6,,,45,75
103152,note_off,,,,,48,0,7,,,,,6,,,47,0
103152,note_on,,,,,0,0,2,,,,,1,,,81,75
103152,note_off,,,,,48,0,6,,,,,5,,,59,0
103152,note_on,,,,,0,0,6,,,,,5,,,57,75
103152,note_off,,,,,48,0,2,,,,,1,,,83,0
103296,note_on,,,,,0,0,3,,,,,2,,,83,94
103296,note_off,,,,,144,0,2,,,,,1,,,81,0
103296,note_off,,,,,192,0,5,,,,,4,,,61,0
103296,note_off,,,,,144,0,6,,,,,5,,,57,0
103296,note_off,,,,,192,0,3,,,,,2,,,81,0
103296,note_off,,,,,144,0,7,,,,,6,,,45,0
103344,note_off,,,,,48,0,3,,,,,2,,,83,0
103344,note_on,,,,,0,0,3,,,,,2,,,81,94
103392,note_off,,,,,48,0,3,,,,,2,,,81,0
103392,note_on,,,,,0,0,3,,,,,2,,,83,94
103440,note_off,,,,,48,0,3,,,,,2,,,83,0
103440,note_on,,,,,0,0,3,,,,,2,,,81,94
103488,note_on,,,,,192,0,7,,,,,6,,,50,75
103488,note_on,,,,,2112,0,4,,,,,3,,,78,88
103488,note_on,,,,,192,0,6,,,,,5,,,62,75
103488,note_on,,,,,192,0,5,,,,,4,,,62,75
103488,note_on,,,,,2112,0,8,,,,,7,,,62,60
103488,note_on,,,,,0,0,3,,,,,2,,,83,94
103488,note_off,,,,,48,0,3,,,,,2,,,81,0
103536,note_off,,,,,48,0,3,,,,,2,,,83,0
103536,note_on,,,,,0,0,3,,,,,2,,,81,94
103680,note_on,,,,,0,0,4,,,,,3,,,76,88
103680,note_on,,,,,0,0,5,,,,,4,,,61,75
103680,note_off,,,,,192,0,5,,,,,4,,,62,0
103680,note_off,,,,,192,0,8,,,,,7,,,62,0
103680,note_off,,,,,192,0,4,,,,,3,,,78,0
103680,note_on,,,,,0,0,8,,,,,7,,,61,60
103680,note_on,,,,,0,0,3,,,,,2,,,83,94
103680,note_off,,,,,144,0,3,,,,,2,,,81,0
103680,note_on,,,,,0,0,7,,,,,6,,,49,75
103680,note_on,,,,,0,0,6,,,,,5,,,61,75
103680,note_off,,,,,192,0,6,,,,,5,,,62,0
103680,note_off,,,,,192,0,7,,,,,6,,,50,0
103728,note_on,,,,,0,0,3,,,,,2,,,81,94
103728,note_off,,,,,48,0,3,,,,,2,,,83,0
103776,note_on,,,,,0,0,3,,,,,2,,,83,94
103776,note_on,,,,,0,0,8,,,,,7,,,59,60
103776,note_off,,,,,96,0,7,,,,,6,,,49,0
103776,note_off,,,,,48,0,3,,,,,2,,,81,0
103776,note_off,,,,,96,0,8,,,,,7,,,61,0
103776,note_off,,,,,96,0,6,,,,,5,,,61,0
103776,note_off,,,,,96,0,4,,,,,3,,,76,0
103776,note_on,,,,,0,0,4,,,,,3,,,74,88
103776,note_on,,,,,0,0,5,,,,,4,,,59,75
103776,note_off,,,,,96,0,5,,,,,4,,,61,0
103776,note_on,,,,,0,0,6,,,,,5,,,59,75
103776,note_on,,,,,0,0,7,,,,,6,,,47,75
103824,note_on,,,,,0,0,3,,,,,2,,,81,94
103824,note_off,,,,,48,0,3,,,,,2,,,83,0
103872,note_on,,,,,0,0,7,,,,,6,,,45,75
103872,note_off,,,,,96,0,7,,,,,6,,,47,0
103872,note_off,,,,,96,0,8,,,,,7,,,59,0
103872,note_on,,,,,0,0,8,,,,,7,,,57,60
103872,note_on,,,,,0,0,3,,,,,2,,,83,94
103872,note_off,,,,,96,0,4,,,,,3,,,74,0
103872,note_off,,,,,96,0,6,,,,,5,,,59,0
103872,note_on,,,,,0,0,6,,,,,5,,,57,75
103872,note_on,,,,,0,0,5,,,,,4,,,57,75
103872,note_off,,,,,96,0,5,,,,,4,,,59,0
103872,note_off,,,,,48,0,3,,,,,2,,,81,0
103872,note_on,,,,,0,0,4,,,,,3,,,73,88
103920,note_off,,,,,48,0,3,,,,,2,,,83,0
103920,note_on,,,,,0,0,3,,,,,2,,,81,94
104064,note_off,,,,,192,0,7,,,,,6,,,45,0
104064,note_on,,,,,0,0,7,,,,,6,,,47,75
104064,note_on,,,,,0,0,6,,,,,5,,,59,75
104064,note_off,,,,,192,0,6,,,,,5,,,57,0
104064,note_off,,,,,192,0,5,,,,,4,,,57,0
104064,note_on,,,,,0,0,5,,,,,4,,,57,75
104064,note_on,,,,,0,0,4,,,,,3,,,81,88
104064,note_on,,,,,0,0,8,,,,,7,,,57,60
104064,note_off,,,,,192,0,4,,,,,3,,,73,0
104064,note_off,,,,,192,0,8,,,,,7,,,57,0
104064,note_off,,,,,144,0,3,,,,,2,,,81,0
104112,note_off,,,,,48,0,6,,,,,5,,,59,0
104112,note_on,,,,,0,0,6,,,,,5,,,57,75
104112,note_on,,,,,0,0,7,,,,,6,,,45,75
104112,note_off,,,,,48,0,7,,,,,6,,,47,0
104160,note_on,,,,,0,0,7,,,,,6,,,47,75
104160,note_on,,,,,0,0,6,,,,,5,,,59,75
104160,note_off,,,,,48,0,6,,,,,5,,,57,0
104160,note_off,,,,,48,0,7,,,,,6,,,45,0
104208,note_on,,,,,0,0,6,,,,,5,,,57,75
104208,note_off,,,,,48,0,6,,,,,5,,,59,0
104208,note_off,,,,,48,0,7,,,,,6,,,47,0
104208,note_on,,,,,0,0,7,,,,,6,,,45,75
104256,note_off,,,,,48,0,7,,,,,6,,,45,0
104256,note_on,,,,,0,0,7,,,,,6,,,47,75
104256,note_on,,,,,1728,0,1,,,,,0,,,86,75
104256,note_off,,,,,48,0,6,,,,,5,,,57,0
104256,note_on,,,,,0,0,6,,,,,5,,,59,75
104304,note_off,,,,,48,0,7,,,,,6,,,47,0
104304,note_on,,,,,0,0,7,,,,,6,,,45,75
104304,note_off,,,,,48,0,6,,,,,5,,,59,0
104304,note_on,,,,,0,0,6,,,,,5,,,57,75
104448,note_off,,,,,192,0,1,,,,,0,,,86,0
104448,note_on,,,,,0,0,1,,,,,0,,,85,75
104448,note_off,,,,,384,0,8,,,,,7,,,57,0
104448,note_off,,,,,384,0,4,,,,,3,,,81,0
104448,note_off,,,,,144,0,6,,,,,5,,,57,0
104448,note_off,,,,,144,0,7,,,,,6,,,45,0
104448,note_off,,,,,384,0,5,,,,,4,,,57,0
104544,note_on,,,,,0,0,1,,,,,0,,,83,75
104544,note_off,,,,,96,0,1,,,,,0,,,85,0
104640,note_off,,,,,96,0,1,,,,,0,,,83,0
104640,note_on,,,,,0,0,1,,,,,0,,,81,75
104832,note_on,,,,,384,0,4,,,,,3,,,69,88
104832,note_on,,,,,768,0,3,,,,,2,,,69,94
105024,note_on,,,,,1728,0,2,,,,,1,,,83,75
105024,note_off,,,,,384,0,1,,,,,0,,,81,0
105120,note_on,,,,,0,0,2,,,,,1,,,85,75
105120,note_off,,,,,96,0,2,,,,,1,,,83,0
105168,note_off,,,,,48,0,2,,,,,1,,,85,0
105168,note_on,,,,,0,0,2,,,,,1,,,86,75
105216,note_off,,,,,384,0,4,,,,,3,,,69,0
105216,note_off,,,,,384,0,3,,,,,2,,,69,0
105216,note_off,,,,,48,0,2,,,,,1,,,86,0
105216,note_on,,,,,0,0,2,,,,,1,,,85,75
105312,note_off,,,,,96,0,2,,,,,1,,,85,0
105312,note_on,,,,,0,0,2,,,,,1,,,83,75
105408,note_on,,,,,0,0,2,,,,,1,,,81,75
105408,note_off,,,,,96,0,2,,,,,1,,,83,0
105600,note_on,,,,,384,0,3,,,,,2,,,69,94
105600,note_on,,,,,384,0,4,,,,,3,,,69,88
105792,note_on,,,,,768,0,1,,,,,0,,,83,75
105792,note_off,,,,,384,0,2,,,,,1,,,81,0
105888,note_off,,,,,96,0,1,,,,,0,,,83,0
105888,note_on,,,,,0,0,1,,,,,0,,,85,75
105936,note_off,,,,,48,0,1,,,,,0,,,85,0
105936,note_on,,,,,0,0,1,,,,,0,,,86,75
105984,note_off,,,,,384,0,4,,,,,3,,,69,0
105984,note_off,,,,,384,0,3,,,,,2,,,69,0
105984,note_off,,,,,48,0,1,,,,,0,,,86,0
105984,note_on,,,,,0,0,1,,,,,0,,,85,75
106080,note_off,,,,,96,0,1,,,,,0,,,85,0
106080,note_on,,,,,0,0,1,,,,,0,,,83,75
106176,note_on,,,,,192,0,3,,,,,2,,,69,94
106176,note_on,,,,,0,0,1,,,,,0,,,81,75
106176,note_off,,,,,96,0,1,,,,,0,,,83,0
106176,note_on,,,,,1728,0,8,,,,,7,,,49,60
106176,note_on,,,,,192,0,4,,,,,3,,,64,88
106176,note_on,,,,,1728,0,5,,,,,4,,,61,75
106272,note_off,,,,,96,0,1,,,,,0,,,81,0
106272,note_on,,,,,0,0,1,,,,,0,,,80,75
106368,note_on,,,,,0,0,5,,,,,4,,,61,75
106368,note_off,,,,,192,0,5,,,,,4,,,61,0
106368,note_off,,,,,192,0,8,,,,,7,,,49,0
106368,note_on,,,,,0,0,3,,,,,2,,,69,94
106368,note_on,,,,,0,0,4,,,,,3,,,64,88
106368,note_off,,,,,192,0,4,,,,,3,,,64,0
106368,note_on,,,,,0,0,8,,,,,7,,,49,60
106368,note_off,,,,,96,0,1,,,,,0,,,80,0
106368,note_on,,,,,0,0,1,,,,,0,,,78,75
106368,note_off,,,,,192,0,3,,,,,2,,,69,0
106464,note_on,,,,,0,0,1,,,,,0,,,76,75
106464,note_off,,,,,96,0,1,,,,,0,,,78,0
106560,note_on,,,,,2112,0,6,,,,,5,,,57,75
106560,note_on,,,,,2112,0,7,,,,,6,,,45,75
106560,note_on,,,,,768,0,2,,,,,1,,,69,75
106560,note_off,,,,,96,0,1,,,,,0,,,76,0
106560,note_on,,,,,0,0,1,,,,,0,,,74,75
106656,note_off,,,,,96,0,1,,,,,0,,,74,0
106656,note_on,,,,,0,0,1,,,,,0,,,73,75
106752,note_off,,,,,384,0,4,,,,,3,,,64,0
106752,note_off,,,,,384,0,3,,,,,2,,,69,0
106752,note_off,,,,,384,0,5,,,,,4,,,61,0
106752,note_off,,,,,192,0,6,,,,,5,,,57,0
106752,note_on,,,,,0,0,2,,,,,1,,,66,75
106752,note_on,,,,,0,0,6,,,,,5,,,59,75
106752,note_on,,,,,0,0,1,,,,,0,,,74,75
106752,note_off,,,,,96,0,1,,,,,0,,,73,0
106752,note_off,,,,,192,0,7,,,,,6,,,45,0
106752,note_on,,,,,0,0,7,,,,,6,,,47,75
106752,note_off,,,,,384,0,8,,,,,7,,,49,0
106752,note_off,,,,,192,0,2,,,,,1,,,69,0
106848,note_on,,,,,0,0,1,,,,,0,,,71,75
106848,note_off,,,,,96,0,1,,,,,0,,,74,0
106944,note_off,,,,,96,0,1,,,,,0,,,71,0
106944,note_on,,,,,192,0,5,,,,,4,,,62,75
106944,note_on,,,,,192,0,4,,,,,3,,,66,88
106944,note_off,,,,,192,0,2,,,,,1,,,66,0
106944,note_on,,,,,0,0,2,,,,,1,,,78,75
106944,note_on,,,,,0,0,1,,,,,0,,,74,75
106944,note_on,,,,,192,0,3,,,,,2,,,71,94
106944,note_on,,,,,192,0,8,,,,,7,,,47,60
107040,note_on,,,,,0,0,1,,,,,0,,,78,75
107040,note_off,,,,,96,0,1,,,,,0,,,74,0
107136,note_off,,,,,192,0,5,,,,,4,,,62,0
107136,note_off,,,,,384,0,6,,,,,5,,,59,0
107136,note_off,,,,,96,0,1,,,,,0,,,78,0
107136,note_off,,,,,192,0,3,,,,,2,,,71,0
107136,note_on,,,,,0,0,5,,,,,4,,,62,75
107136,note_on,,,,,0,0,8,,,,,7,,,47,60
107136,note_on,,,,,0,0,1,,,,,0,,,83,75
107136,note_off,,,,,384,0,7,,,,,6,,,47,0
107136,note_on,,,,,0,0,2,,,,,1,,,74,75
107136,note_off,,,,,192,0,2,,,,,1,,,78,0
107136,note_on,,,,,0,0,3,,,,,2,,,71,94
107136,note_off,,,,,192,0,4,,,,,3,,,66,0
107136,note_on,,,,,0,0,4,,,,,3,,,66,88
107136,note_off,,,,,192,0,8,,,,,7,,,47,0
107232,note_off,,,,,96,0,2,,,,,1,,,74,0
107232,note_on,,,,,0,0,2,,,,,1,,,71,75
107328,note_on,,,,,192,0,6,,,,,5,,,59,75
107328,note_on,,,,,192,0,7,,,,,6,,,47,75
107328,note_on,,,,,0,0,2,,,,,1,,,74,75
107328,note_off,,,,,96,0,2,,,,,1,,,71,0
107424,note_on,,,,,0,0,2,,,,,1,,,78,75
107424,note_off,,,,,96,0,2,,,,,1,,,74,0
107520,note_off,,,,,96,0,2,,,,,1,,,78,0
107520,note_on,,,,,0,0,2,,,,,1,,,83,75
107520,note_off,,,,,384,0,4,,,,,3,,,66,0
107520,note_off,,,,,384,0,5,,,,,4,,,62,0
107520,note_off,,,,,192,0,6,,,,,5,,,59,0
107520,note_on,,,,,0,0,6,,,,,5,,,56,75
107520,note_off,,,,,384,0,3,,,,,2,,,71,0
107520,note_off,,,,,384,0,8,,,,,7,,,47,0
107520,note_on,,,,,0,0,7,,,,,6,,,44,75
107520,note_off,,,,,192,0,7,,,,,6,,,47,0
107616,note_on,,,,,0,0,1,,,,,0,,,81,75
107616,note_off,,,,,480,0,1,,,,,0,,,83,0
107712,note_off,,,,,96,0,1,,,,,0,,,81,0
107712,note_on,,,,,0,0,1,,,,,0,,,80,75
107712,note_on,,,,,192,0,8,,,,,7,,,44,60
107712,note_on,,,,,192,0,3,,,,,2,,,71,94
107712,note_on,,,,,192,0,4,,,,,3,,,64,88
107712,note_on,,,,,192,0,5,,,,,4,,,62,75
107808,note_on,,,,,0,0,1,,,,,0,,,78,75
107808,note_off,,,,,96,0,1,,,,,0,,,80,0
107904,note_on,,,,,0,0,8,,,,,7,,,44,60
107904,note_on,,,,,0,0,3,,,,,2,,,71,94
107904,note_off,,,,,192,0,3,,,,,2,,,71,0
107904,note_off,,,,,192,0,4,,,,,3,,,64,0
107904,note_on,,,,,0,0,4,,,,,3,,,64,88
107904,note_off,,,,,96,0,1,,,,,0,,,78,0
107904,note_off,,,,,192,0,8,,,,,7,,,44,0
107904,note_off,,,,,384,0,6,,,,,5,,,56,0
107904,note_on,,,,,0,0,5,,,,,4,,,62,75
107904,note_off,,,,,192,0,5,,,,,4,,,62,0
107904,note_on,,,,,0,0,1,,,,,0,,,76,75
107904,note_off,,,,,384,0,2,,,,,1,,,83,0
107904,note_off,,,,,384,0,7,,,,,6,,,44,0
108000,note_off,,,,,96,0,1,,,,,0,,,76,0
108000,note_on,,,,,0,0,1,,,,,0,,,74,75
108096,note_on,,,,,0,0,1,,,,,0,,,73,75
108096,note_on,,,,,192,0,7,,,,,6,,,44,75
108096,note_on,,,,,192,0,2,,,,,1,,,83,75
108096,note_off,,,,,96,0,1,,,,,0,,,74,0
108096,note_on,,,,,192,0,6,,,,,5,,,56,75
108192,note_on,,,,,0,0,1,,,,,0,,,71,75
108192,note_off,,,,,96,0,1,,,,,0,,,73,0
108288,note_off,,,,,192,0,2,,,,,1,,,83,0
108288,note_off,,,,,384,0,4,,,,,3,,,64,0
108288,note_off,,,,,384,0,5,,,,,4,,,62,0
108288,note_on,,,,,0,0,2,,,,,1,,,76,75
108288,note_off,,,,,384,0,3,,,,,2,,,71,0
108288,note_off,,,,,384,0,8,,,,,7,,,44,0
108288,note_on,,,,,0,0,7,,,,,6,,,45,75
108288,note_on,,,,,0,0,1,,,,,0,,,73,75
108288,note_off,,,,,192,0,7,,,,,6,,,44,0
108288,note_off,,,,,192,0,6,,,,,5,,,56,0
108288,note_off,,,,,96,0,1,,,,,0,,,71,0
108288,note_on,,,,,0,0,6,,,,,5,,,57,75
108384,note_on,,,,,0,0,1,,,,,0,,,69,75
108384,note_off,,,,,96,0,1,,,,,0,,,73,0
108480,note_on,,,,,192,0,4,,,,,3,,,64,88
108480,note_off,,,,,96,0,1,,,,,0,,,69,0
108480,note_on,,,,,0,0,1,,,,,0,,,73,75
108480,note_on,,,,,192,0,5,,,,,4,,,61,75
108480,note_on,,,,,0,0,2,,,,,1,,,69,75
108480,note_on,,,,,192,0,3,,,,,2,,,69,94
108480,note_off,,,,,192,0,2,,,,,1,,,76,0
108480,note_on,,,,,192,0,8,,,,,7,,,45,60
108576,note_off,,,,,96,0,1,,,,,0,,,73,0
108576,note_on,,,,,0,0,1,,,,,0,,,76,75
108672,note_off,,,,,192,0,3,,,,,2,,,69,0
108672,note_on,,,,,0,0,3,,,,,2,,,69,94
108672,note_off,,,,,384,0,6,,,,,5,,,57,0
108672,note_off,,,,,192,0,4,,,,,3,,,64,0
108672,note_on,,,,,0,0,4,,,,,3,,,64,88
108672,note_on,,,,,0,0,8,,,,,7,,,45,60
108672,note_off,,,,,192,0,8,,,,,7,,,45,0
108672,note_on,,,,,0,0,1,,,,,0,,,81,75
108672,note_off,,,,,96,0,1,,,,,0,,,76,0
108672,note_on,,,,,0,0,2,,,,,1,,,73,75
108672,note_off,,,,,192,0,2,,,,,1,,,69,0
108672,note_off,,,,,192,0,5,,,,,4,,,61,0
108672,note_on,,,,,0,0,5,,,,,4,,,61,75
108672,note_off,,,,,384,0,7,,,,,6,,,45,0
108768,note_on,,,,,0,0,2,,,,,1,,,69,75
108768,note_off,,,,,96,0,2,,,,,1,,,73,0
108864,note_on,,,,,192,0,6,,,,,5,,,57,75
108864,note_on,,,,,192,0,7,,,,,6,,,45,75
108864,note_off,,,,,96,0,2,,,,,1,,,69,0
108864,note_on,,,,,0,0,2,,,,,1,,,73,75
108960,note_on,,,,,0,0,2,,,,,1,,,76,75
108960,note_off,,,,,96,0,2,,,,,1,,,73,0
109056,note_off,,,,,384,0,5,,,,,4,,,61,0
109056,note_off,,,,,384,0,8,,,,,7,,,45,0
109056,note_on,,,,,0,0,2,,,,,1,,,81,75
109056,note_off,,,,,384,0,3,,,,,2,,,69,0
109056,note_off,,,,,96,0,2,,,,,1,,,76,0
109056,note_off,,,,,384,0,4,,,,,3,,,64,0
109056,note_off,,,,,192,0,6,,,,,5,,,57,0
109056,note_on,,,,,0,0,7,,,,,6,,,42,75
109056,note_off,,,,,192,0,7,,,,,6,,,45,0
109056,note_on,,,,,0,0,6,,,,,5,,,54,75
109152,note_off,,,,,480,0,1,,,,,0,,,81,0
109152,note_on,,,,,0,0,1,,,,,0,,,80,75
109248,note_off,,,,,96,0,1,,,,,0,,,80,0
109248,note_on,,,,,192,0,5,,,,,4,,,57,75
109248,note_on,,,,,192,0,3,,,,,2,,,69,94
109248,note_on,,,,,192,0,4,,,,,3,,,62,88
109248,note_on,,,,,192,0,8,,,,,7,,,54,60
109248,note_on,,,,,0,0,1,,,,,0,,,78,75
109344,note_off,,,,,96,0,1,,,,,0,,,78,0
109344,note_on,,,,,0,0,1,,,,,0,,,76,75
109440,note_off,,,,,96,0,1,,,,,0,,,76,0
109440,note_on,,,,,0,0,1,,,,,0,,,74,75
109440,note_off,,,,,192,0,4,,,,,3,,,62,0
109440,note_on,,,,,0,0,3,,,,,2,,,69,94
109440,note_on,,,,,0,0,8,,,,,7,,,54,60
109440,note_off,,,,,192,0,8,,,,,7,,,54,0
109440,note_off,,,,,192,0,3,,,,,2,,,69,0
109440,note_on,,,,,0,0,5,,,,,4,,,57,75
109440,note_off,,,,,192,0,5,,,,,4,,,57,0
109440,note_off,,,,,384,0,2,,,,,1,,,81,0
109440,note_on,,,,,0,0,4,,,,,3,,,62,88
109440,note_off,,,,,384,0,7,,,,,6,,,42,0
109440,note_off,,,,,384,0,6,,,,,5,,,54,0
109536,note_on,,,,,0,0,1,,,,,0,,,73,75
109536,note_off,,,,,96,0,1,,,,,0,,,74,0
109632,note_on,,,,,192,0,2,,,,,1,,,66,75
109632,note_on,,,,,192,0,7,,,,,6,,,38,75
109632,note_on,,,,,192,0,6,,,,,5,,,50,75
109632,note_off,,,,,96,0,1,,,,,0,,,73,0
109632,note_on,,,,,0,0,1,,,,,0,,,71,75
109728,note_on,,,,,0,0,1,,,,,0,,,69,75
109728,note_off,,,,,96,0,1,,,,,0,,,71,0
109824,note_on,,,,,0,0,7,,,,,6,,,40,75
109824,note_on,,,,,0,0,6,,,,,5,,,52,75
109824,note_on,,,,,0,0,1,,,,,0,,,68,75
109824,note_off,,,,,384,0,5,,,,,4,,,57,0
109824,note_off,,,,,384,0,8,,,,,7,,,54,0
109824,note_off,,,,,96,0,1,,,,,0,,,69,0
109824,note_off,,,,,192,0,7,,,,,6,,,38,0
109824,note_off,,,,,192,0,6,,,,,5,,,50,0
109824,note_on,,,,,0,0,2,,,,,1,,,71,75
109824,note_off,,,,,384,0,3,,,,,2,,,69,0
109824,note_off,,,,,384,0,4,,,,,3,,,62,0
109824,note_off,,,,,192,0,2,,,,,1,,,66,0
109920,note_off,,,,,96,0,1,,,,,0,,,68,0
109920,note_on,,,,,0,0,1,,,,,0,,,64,75
110016,note_on,,,,,192,0,5,,,,,4,,,64,75
110016,note_off,,,,,96,0,1,,,,,0,,,64,0
110016,note_on,,,,,0,0,1,,,,,0,,,68,75
110016,note_on,,,,,192,0,3,,,,,2,,,68,94
110016,note_on,,,,,192,0,4,,,,,3,,,71,88
110016,note_on,,,,,192,0,8,,,,,7,,,52,60
110112,note_off,,,,,96,0,1,,,,,0,,,68,0
110112,note_on,,,,,0,0,1,,,,,0,,,71,75
110208,note_off,,,,,96,0,1,,,,,0,,,71,0
110208,note_on,,,,,0,0,1,,,,,0,,,68,75
110208,note_off,,,,,192,0,3,,,,,2,,,68,0
110208,note_off,,,,,384,0,6,,,,,5,,,52,0
110208,note_on,,,,,0,0,3,,,,,2,,,68,94
110208,note_on,,,,,0,0,4,,,,,3,,,71,88
110208,note_off,,,,,192,0,4,,,,,3,,,71,0
110208,note_off,,,,,384,0,2,,,,,1,,,71,0
110208,note_off,,,,,192,0,8,,,,,7,,,52,0
110208,note_on,,,,,0,0,5,,,,,4,,,64,75
110208,note_off,,,,,384,0,7,,,,,6,,,40,0
110208,note_on,,,,,0,0,8,,,,,7,,,52,60
110208,note_off,,,,,192,0,5,,,,,4,,,64,0
110304,note_off,,,,,96,0,1,,,,,0,,,68,0
110304,note_on,,,,,0,0,1,,,,,0,,,64,75
110400,note_on,,,,,192,0,2,,,,,1,,,68,75
110400,note_on,,,,,192,0,6,,,,,5,,,50,75
110400,note_off,,,,,96,0,1,,,,,0,,,64,0
110400,note_on,,,,,0,0,1,,,,,0,,,68,75
110400,note_on,,,,,192,0,7,,,,,6,,,38,75
110496,note_off,,,,,96,0,1,,,,,0,,,68,0
110496,note_on,,,,,0,0,1,,,,,0,,,71,75
110592,note_off,,,,,384,0,4,,,,,3,,,71,0
110592,note_on,,,,,0,0,7,,,,,6,,,37,75
110592,note_off,,,,,192,0,7,,,,,6,,,38,0
110592,note_off,,,,,384,0,5,,,,,4,,,64,0
110592,note_on,,,,,0,0,2,,,,,1,,,64,75
110592,note_on,,,,,0,0,1,,,,,0,,,69,75
110592,note_off,,,,,96,0,1,,,,,0,,,71,0
110592,note_off,,,,,384,0,8,,,,,7,,,52,0
110592,note_off,,,,,192,0,2,,,,,1,,,68,0
110592,note_on,,,,,0,0,6,,,,,5,,,49,75
110592,note_off,,,,,192,0,6,,,,,5,,,50,0
110592,note_off,,,,,384,0,3,,,,,2,,,68,0
110688,note_off,,,,,96,0,1,,,,,0,,,69,0
110688,note_on,,,,,0,0,1,,,,,0,,,64,75
110784,note_on,,,,,192,0,5,,,,,4,,,69,75
110784,note_on,,,,,0,0,1,,,,,0,,,69,75
110784,note_on,,,,,192,0,3,,,,,2,,,69,94
110784,note_off,,,,,96,0,1,,,,,0,,,64,0
110784,note_on,,,,,192,0,4,,,,,3,,,64,88
110784,note_on,,,,,192,0,8,,,,,7,,,49,60
110880,note_on,,,,,0,0,1,,,,,0,,,73,75
110880,note_off,,,,,96,0,1,,,,,0,,,69,0
110976,note_off,,,,,96,0,1,,,,,0,,,73,0
110976,note_on,,,,,0,0,1,,,,,0,,,69,75
110976,note_off,,,,,384,0,7,,,,,6,,,37,0
110976,note_off,,,,,192,0,8,,,,,7,,,49,0
110976,note_on,,,,,0,0,3,,,,,2,,,69,94
110976,note_on,,,,,0,0,8,,,,,7,,,49,60
110976,note_on,,,,,0,0,5,,,,,4,,,73,75
110976,note_off,,,,,192,0,5,,,,,4,,,69,0
110976,note_off,,,,,192,0,3,,,,,2,,,69,0
110976,note_off,,,,,384,0,2,,,,,1,,,64,0
110976,note_off,,,,,192,0,4,,,,,3,,,64,0
110976,note_on,,,,,0,0,4,,,,,3,,,64,88
110976,note_off,,,,,384,0,6,,,,,5,,,49,0
111072,note_on,,,,,0,0,1,,,,,0,,,64,75
111072,note_off,,,,,96,0,1,,,,,0,,,69,0
111168,note_on,,,,,192,0,7,,,,,6,,,49,75
111168,note_on,,,,,0,0,1,,,,,0,,,69,75
111168,note_off,,,,,96,0,1,,,,,0,,,64,0
111168,note_on,,,,,192,0,2,,,,,1,,,64,75
111168,note_on,,,,,192,0,6,,,,,5,,,61,75
111264,note_on,,,,,0,0,1,,,,,0,,,73,75
111264,note_off,,,,,96,0,1,,,,,0,,,69,0
111360,note_off,,,,,384,0,5,,,,,4,,,73,0
111360,note_off,,,,,192,0,2,,,,,1,,,64,0
111360,note_on,,,,,0,0,2,,,,,1,,,76,75
111360,note_off,,,,,384,0,4,,,,,3,,,64,0
111360,note_on,,,,,0,0,6,,,,,5,,,56,75
111360,note_off,,,,,192,0,6,,,,,5,,,61,0
111360,note_off,,,,,384,0,3,,,,,2,,,69,0
111360,note_on,,,,,0,0,7,,,,,6,,,44,75
111360,note_off,,,,,384,0,8,,,,,7,,,49,0
111360,note_off,,,,,192,0,7,,,,,6,,,49,0
111360,note_on,,,,,0,0,1,,,,,0,,,71,75
111360,note_off,,,,,96,0,1,,,,,0,,,73,0
111456,note_off,,,,,96,0,1,,,,,0,,,71,0
111456,note_on,,,,,0,0,1,,,,,0,,,64,75
111552,note_on,,,,,192,0,4,,,,,3,,,64,88
111552,note_on,,,,,192,0,5,,,,,4,,,62,75
111552,note_on,,,,,0,0,1,,,,,0,,,71,75
111552,note_off,,,,,96,0,1,,,,,0,,,64,0
111552,note_on,,,,,192,0,3,,,,,2,,,71,94
111552,note_on,,,,,192,0,8,,,,,7,,,44,60
111648,note_on,,,,,0,0,1,,,,,0,,,74,75
111648,note_off,,,,,96,0,1,,,,,0,,,71,0
111744,note_on,,,,,0,0,5,,,,,4,,,62,75
111744,note_on,,,,,0,0,8,,,,,7,,,44,60
111744,note_off,,,,,384,0,2,,,,,1,,,76,0
111744,note_off,,,,,96,0,1,,,,,0,,,74,0
111744,note_off,,,,,192,0,4,,,,,3,,,64,0
111744,note_on,,,,,0,0,1,,,,,0,,,71,75
111744,note_off,,,,,192,0,5,,,,,4,,,62,0
111744,note_off,,,,,192,0,8,,,,,7,,,44,0
111744,note_off,,,,,384,0,7,,,,,6,,,44,0
111744,note_on,,,,,0,0,3,,,,,2,,,71,94
111744,note_on,,,,,0,0,4,,,,,3,,,64,88
111744,note_off,,,,,384,0,6,,,,,5,,,56,0
111744,note_off,,,,,192,0,3,,,,,2,,,71,0
111840,note_off,,,,,96,0,1,,,,,0,,,71,0
111840,note_on,,,,,0,0,1,,,,,0,,,64,75
111936,note_on,,,,,192,0,6,,,,,5,,,56,75
111936,note_off,,,,,96,0,1,,,,,0,,,64,0
111936,note_on,,,,,0,0,1,,,,,0,,,71,75
111936,note_on,,,,,192,0,7,,,,,6,,,44,75
111936,note_on,,,,,192,0,2,,,,,1,,,76,75
112032,note_off,,,,,96,0,1,,,,,0,,,71,0
112032,note_on,,,,,0,0,1,,,,,0,,,74,75
112128,note_off,,,,,384,0,4,,,,,3,,,64,0
112128,note_on,,,,,0,0,6,,,,,5,,,57,75
112128,note_off,,,,,192,0,6,,,,,5,,,56,0
112128,note_on,,,,,0,0,2,,,,,1,,,69,75
112128,note_off,,,,,96,0,1,,,,,0,,,74,0
112128,note_on,,,,,0,0,1,,,,,0,,,73,75
112128,note_off,,,,,384,0,3,,,,,2,,,71,0
112128,note_off,,,,,192,0,2,,,,,1,,,76,0
112128,note_off,,,,,384,0,5,,,,,4,,,62,0
112128,note_off,,,,,384,0,8,,,,,7,,,44,0
112128,note_off,,,,,192,0,7,,,,,6,,,44,0
112128,note_on,,,,,0,0,7,,,,,6,,,45,75
112224,note_off,,,,,96,0,1,,,,,0,,,73,0
112224,note_on,,,,,0,0,1,,,,,0,,,69,75
112320,note_off,,,,,96,0,1,,,,,0,,,69,0
112320,note_on,,,,,0,0,1,,,,,0,,,73,75
112320,note_on,,,,,192,0,4,,,,,3,,,64,88
112320,note_on,,,,,192,0,5,,,,,4,,,61,75
112320,note_on,,,,,192,0,8,,,,,7,,,45,60
112320,note_on,,,,,192,0,3,,,,,2,,,73,94
112416,note_on,,,,,0,0,1,,,,,0,,,76,75
112416,note_off,,,,,96,0,1,,,,,0,,,73,0
112512,note_on,,,,,0,0,3,,,,,2,,,75,94
112512,note_on,,,,,0,0,8,,,,,7,,,42,60
112512,note_off,,,,,96,0,1,,,,,0,,,76,0
112512,note_off,,,,,192,0,8,,,,,7,,,45,0
112512,note_on,,,,,0,0,1,,,,,0,,,75,75
112512,note_off,,,,,192,0,3,,,,,2,,,73,0
112512,note_off,,,,,384,0,7,,,,,6,,,45,0
112512,note_off,,,,,384,0,6,,,,,5,,,57,0
112512,note_off,,,,,384,0,2,,,,,1,,,69,0
112512,note_on,,,,,0,0,4,,,,,3,,,69,88
112512,note_off,,,,,192,0,4,,,,,3,,,64,0
112512,note_off,,,,,192,0,5,,,,,4,,,61,0
112512,note_on,,,,,0,0,5,,,,,4,,,66,75
112608,note_off,,,,,96,0,1,,,,,0,,,75,0
112608,note_on,,,,,0,0,1,,,,,0,,,69,75
112704,note_on,,,,,192,0,2,,,,,1,,,66,75
112704,note_on,,,,,0,0,8,,,,,7,,,47,60
112704,note_on,,,,,0,0,1,,,,,0,,,75,75
112704,note_off,,,,,96,0,1,,,,,0,,,69,0
112704,note_off,,,,,192,0,5,,,,,4,,,66,0
112704,note_off,,,,,192,0,3,,,,,2,,,75,0
112704,note_on,,,,,0,0,3,,,,,2,,,75,94
112704,note_on,,,,,0,0,4,,,,,3,,,71,88
112704,note_on,,,,,0,0,5,,,,,4,,,66,75
112704,note_off,,,,,192,0,4,,,,,3,,,69,0
112704,note_on,,,,,192,0,6,,,,,5,,,59,75
112704,note_on,,,,,192,0,7,,,,,6,,,47,75
112704,note_off,,,,,192,0,8,,,,,7,,,42,0
112800,note_on,,,,,0,0,1,,,,,0,,,78,75
112800,note_off,,,,,96,0,1,,,,,0,,,75,0
112896,note_off,,,,,192,0,7,,,,,6,,,47,0
112896,note_on,,,,,0,0,2,,,,,1,,,71,75
112896,note_off,,,,,192,0,2,,,,,1,,,66,0
112896,note_on,,,,,0,0,8,,,,,7,,,44,60
112896,note_on,,,,,0,0,6,,,,,5,,,56,75
112896,note_off,,,,,192,0,6,,,,,5,,,59,0
112896,note_off,,,,,192,0,4,,,,,3,,,71,0
112896,note_on,,,,,0,0,4,,,,,3,,,71,88
112896,note_on,,,,,0,0,1,,,,,0,,,76,75
112896,note_off,,,,,96,0,1,,,,,0,,,78,0
112896,note_off,,,,,192,0,5,,,,,4,,,66,0
112896,note_on,,,,,0,0,5,,,,,4,,,64,75
112896,note_off,,,,,192,0,8,,,,,7,,,47,0
112896,note_off,,,,,192,0,3,,,,,2,,,75,0
112896,note_on,,,,,0,0,7,,,,,6,,,44,75
112896,note_on,,,,,0,0,3,,,,,2,,,76,94
112992,note_on,,,,,0,0,1,,,,,0,,,71,75
112992,note_off,,,,,96,0,1,,,,,0,,,76,0
113088,note_on,,,,,0,0,1,,,,,0,,,73,75
113088,note_off,,,,,96,0,1,,,,,0,,,71,0
113184,note_on,,,,,0,0,1,,,,,0,,,75,75
113184,note_off,,,,,96,0,1,,,,,0,,,73,0
113280,note_off,,,,,96,0,1,,,,,0,,,75,0
113280,note_on,,,,,0,0,1,,,,,0,,,76,75
113280,note_off,,,,,384,0,8,,,,,7,,,44,0
113280,note_off,,,,,384,0,6,,,,,5,,,56,0
113280,note_off,,,,,384,0,5,,,,,4,,,64,0
113280,note_off,,,,,384,0,3,,,,,2,,,76,0
113280,note_off,,,,,384,0,4,,,,,3,,,71,0
113280,note_off,,,,,384,0,7,,,,,6,,,44,0
113280,note_off,,,,,384,0,2,,,,,1,,,71,0
113376,note_off,,,,,96,0,1,,,,,0,,,76,0
113376,note_on,,,,,0,0,1,,,,,0,,,78,75
113472,note_off,,,,,96,0,1,,,,,0,,,78,0
113472,note_on,,,,,0,0,1,,,,,0,,,80,75
113568,note_off,,,,,96,0,1,,,,,0,,,80,0
113568,note_on,,,,,0,0,1,,,,,0,,,76,75
113664,note_off,,,,,96,0,1,,,,,0,,,76,0
113664,note_on,,,,,384,0,7,,,,,6,,,49,75
113664,note_on,,,,,384,0,2,,,,,1,,,76,75
113664,note_on,,,,,384,0,8,,,,,7,,,61,60
113664,note_on,,,,,384,0,6,,,,,5,,,61,75
113664,note_on,,,,,384,0,4,,,,,3,,,76,88
113664,note_on,,,,,384,0,3,,,,,2,,,81,94
113664,note_on,,,,,384,0,5,,,,,4,,,73,75
113664,note_on,,,,,0,0,1,,,,,0,,,81,75
114048,note_off,,,,,384,0,1,,,,,0,,,81,0
114048,note_on,,,,,0,0,7,,,,,6,,,47,75
114048,note_off,,,,,384,0,7,,,,,6,,,49,0
114048,note_on,,,,,0,0,1,,,,,0,,,83,75
114048,note_off,,,,,384,0,8,,,,,7,,,61,0
114048,note_on,,,,,0,0,8,,,,,7,,,59,60
114048,note_on,,,,,0,0,2,,,,,1,,,80,75
114048,note_off,,,,,384,0,4,,,,,3,,,76,0
114048,note_on,,,,,0,0,4,,,,,3,,,80,88
114048,note_off,,,,,384,0,2,,,,,1,,,76,0
114048,note_off,,,,,384,0,5,,,,,4,,,73,0
114048,note_on,,,,,0,0,5,,,,,4,,,74,75
114048,note_off,,,,,384,0,6,,,,,5,,,61,0
114048,note_on,,,,,0,0,6,,,,,5,,,59,75
114048,note_on,,,,,0,0,3,,,,,2,,,83,94
114048,note_off,,,,,384,0,3,,,,,2,,,81,0
114240,note_on,,,,,0,0,1,,,,,0,,,85,75
114240,note_off,,,,,192,0,1,,,,,0,,,83,0
114240,note_on,,,,,0,0,3,,,,,2,,,85,94
114240,note_on,,,,,0,0,4,,,,,3,,,81,88
114240,note_off,,,,,192,0,3,,,,,2,,,83,0
114240,note_on,,,,,0,0,5,,,,,4,,,73,75
114240,note_off,,,,,192,0,5,,,,,4,,,74,0
114240,note_off,,,,,192,0,4,,,,,3,,,80,0
114240,note_on,,,,,0,0,7,,,,,6,,,45,75
114240,note_off,,,,,192,0,2,,,,,1,,,80,0
114240,note_off,,,,,192,0,7,,,,,6,,,47,0
114240,note_on,,,,,0,0,8,,,,,7,,,57,60
114240,note_off,,,,,192,0,8,,,,,7,,,59,0
114240,note_on,,,,,0,0,2,,,,,1,,,81,75
114240,note_off,,,,,192,0,6,,,,,5,,,59,0
114240,note_on,,,,,0,0,6,,,,,5,,,57,75
114432,note_off,,,,,192,0,4,,,,,3,,,81,0
114432,note_off,,,,,192,0,2,,,,,1,,,81,0
114432,note_on,,,,,0,0,2,,,,,1,,,81,75
114432,note_on,,,,,0,0,7,,,,,6,,,47,75
114432,note_off,,,,,192,0,1,,,,,0,,,85,0
114432,note_on,,,,,0,0,1,,,,,0,,,86,75
114432,note_off,,,,,192,0,7,,,,,6,,,45,0
114432,note_off,,,,,192,0,3,,,,,2,,,85,0
114432,note_off,,,,,192,0,5,,,,,4,,,73,0
114432,note_on,,,,,0,0,8,,,,,7,,,59,60
114432,note_off,,,,,192,0,8,,,,,7,,,57,0
114432,note_off,,,,,192,0,6,,,,,5,,,57,0
114432,note_on,,,,,0,0,6,,,,,5,,,59,75
114432,note_on,,,,,0,0,4,,,,,3,,,81,88
114432,note_on,,,,,0,0,3,,,,,2,,,86,94
114432,note_on,,,,,0,0,5,,,,,4,,,71,75
114624,note_off,,,,,192,0,5,,,,,4,,,71,0
114624,note_off,,,,,192,0,7,,,,,6,,,47,0
114624,note_on,,,,,0,0,7,,,,,6,,,40,75
114624,note_on,,,,,0,0,5,,,,,4,,,71,75
114624,note_on,,,,,0,0,1,,,,,0,,,83,75
114624,note_off,,,,,192,0,3,,,,,2,,,86,0
114624,note_off,,,,,192,0,4,,,,,3,,,81,0
114624,note_on,,,,,0,0,4,,,,,3,,,80,88
114624,note_on,,,,,0,0,3,,,,,2,,,83,94
114624,note_off,,,,,192,0,8,,,,,7,,,59,0
114624,note_on,,,,,0,0,8,,,,,7,,,52,60
114624,note_off,,,,,192,0,6,,,,,5,,,59,0
114624,note_off,,,,,192,0,2,,,,,1,,,81,0
114624,note_on,,,,,0,0,2,,,,,1,,,80,75
114624,note_off,,,,,192,0,1,,,,,0,,,86,0
114624,note_on,,,,,0,0,6,,,,,5,,,52,75
114816,note_off,,,,,192,0,1,,,,,0,,,83,0
114816,note_off,,,,,192,0,3,,,,,2,,,83,0
114816,note_on,,,,,0,0,3,,,,,2,,,85,94
114816,note_on,,,,,0,0,8,,,,,7,,,57,60
114816,note_off,,,,,192,0,8,,,,,7,,,52,0
114816,note_off,,,,,192,0,2,,,,,1,,,80,0
114816,note_on,,,,,0,0,7,,,,,6,,,45,75
114816,note_off,,,,,192,0,7,,,,,6,,,40,0
114816,note_off,,,,,192,0,6,,,,,5,,,52,0
114816,note_on,,,,,0,0,6,,,,,5,,,57,75
114816,note_off,,,,,192,0,5,,,,,4,,,71,0
114816,note_on,,,,,0,0,4,,,,,3,,,81,88
114816,note_off,,,,,192,0,4,,,,,3,,,80,0
114816,note_on,,,,,0,0,1,,,,,0,,,85,75
114816,note_on,,,,,0,0,2,,,,,1,,,81,75
114816,note_on,,,,,0,0,5,,,,,4,,,69,75
115008,note_off,,,,,192,0,8,,,,,7,,,57,0
115008,note_on,,,,,0,0,8,,,,,7,,,49,60
115008,note_on,,,,,0,0,2,,,,,1,,,76,75
115008,note_on,,,,,0,0,4,,,,,3,,,76,88
115008,note_off,,,,,192,0,2,,,,,1,,,81,0
115008,note_off,,,,,192,0,7,,,,,6,,,45,0
115008,note_off,,,,,192,0,6,,,,,5,,,57,0
115008,note_on,,,,,0,0,6,,,,,5,,,49,75
115008,note_on,,,,,0,0,7,,,,,6,,,37,75
115008,note_off,,,,,192,0,4,,,,,3,,,81,0
115200,note_on,,,,,0,0,5,,,,,4,,,69,75
115200,note_off,,,,,192,0,4,,,,,3,,,76,0
115200,note_on,,,,,0,0,4,,,,,3,,,78,88
115200,note_off,,,,,192,0,7,,,,,6,,,37,0
115200,note_on,,,,,0,0,6,,,,,5,,,50,75
115200,note_off,,,,,192,0,6,,,,,5,,,49,0
115200,note_on,,,,,0,0,2,,,,,1,,,78,75
115200,note_off,,,,,192,0,2,,,,,1,,,76,0
115200,note_off,,,,,192,0,8,,,,,7,,,49,0
115200,note_on,,,,,0,0,8,,,,,7,,,50,60
115200,note_on,,,,,0,0,7,,,,,6,,,38,75
115200,note_off,,,,,384,0,5,,,,,4,,,69,0
115392,note_off,,,,,576,0,3,,,,,2,,,85,0
115392,note_on,,,,,0,0,3,,,,,2,,,86,94
115392,note_on,,,,,0,0,1,,,,,0,,,86,75
115392,note_off,,,,,576,0,1,,,,,0,,,85,0
115392,note_off,,,,,192,0,5,,,,,4,,,69,0
115392,note_on,,,,,0,0,5,,,,,4,,,71,75
115488,note_on,,,,,0,0,1,,,,,0,,,85,75
115488,note_off,,,,,96,0,1,,,,,0,,,86,0
115488,note_off,,,,,96,0,5,,,,,4,,,71,0
115488,note_on,,,,,0,0,5,,,,,4,,,73,75
115488,note_off,,,,,96,0,3,,,,,2,,,86,0
115488,note_on,,,,,0,0,3,,,,,2,,,85,94
115584,note_off,,,,,96,0,1,,,,,0,,,85,0
115584,note_on,,,,,0,0,8,,,,,7,,,54,60
115584,note_off,,,,,384,0,8,,,,,7,,,50,0
115584,note_on,,,,,0,0,5,,,,,4,,,74,75
115584,note_on,,,,,0,0,1,,,,,0,,,83,75
115584,note_off,,,,,384,0,2,,,,,1,,,78,0
115584,note_on,,,,,0,0,7,,,,,6,,,42,75
115584,note_off,,,,,384,0,7,,,,,6,,,38,0
115584,note_on,,,,,0,0,4,,,,,3,,,74,88
115584,note_off,,,,,384,0,4,,,,,3,,,78,0
115584,note_off,,,,,384,0,6,,,,,5,,,50,0
115584,note_off,,,,,96,0,5,,,,,4,,,73,0
115584,note_on,,,,,0,0,6,,,,,5,,,54,75
115584,note_on,,,,,0,0,2,,,,,1,,,74,75
115584,note_off,,,,,96,0,3,,,,,2,,,85,0
115584,note_on,,,,,0,0,3,,,,,2,,,83,94
115776,note_off,,,,,192,0,5,,,,,4,,,74,0
115776,note_on,,,,,0,0,5,,,,,4,,,66,75
115776,note_off,,,,,192,0,3,,,,,2,,,83,0
115776,note_on,,,,,0,0,3,,,,,2,,,81,94
115776,note_off,,,,,192,0,1,,,,,0,,,83,0
115776,note_on,,,,,0,0,1,,,,,0,,,81,75
115968,note_off,,,,,384,0,6,,,,,5,,,54,0
115968,note_on,,,,,0,0,4,,,,,3,,,76,88
115968,note_off,,,,,384,0,4,,,,,3,,,74,0
115968,note_off,,,,,192,0,3,,,,,2,,,81,0
115968,note_on,,,,,0,0,3,,,,,2,,,80,94
115968,note_on,,,,,0,0,8,,,,,7,,,52,60
115968,note_off,,,,,384,0,8,,,,,7,,,54,0
115968,note_on,,,,,0,0,2,,,,,1,,,76,75
115968,note_off,,,,,384,0,2,,,,,1,,,74,0
115968,note_off,,,,,384,0,7,,,,,6,,,42,0
115968,note_on,,,,,0,0,1,,,,,0,,,80,75
115968,note_off,,,,,192,0,1,,,,,0,,,81,0
115968,note_off,,,,,192,0,5,,,,,4,,,66,0
115968,note_on,,,,,0,0,7,,,,,6,,,40,75
115968,note_on,,,,,0,0,6,,,,,5,,,52,75
115968,note_on,,,,,0,0,5,,,,,4,,,71,75
116064,note_on,,,,,0,0,1,,,,,0,,,78,75
116064,note_off,,,,,96,0,1,,,,,0,,,80,0
116064,note_on,,,,,0,0,3,,,,,2,,,78,94
116064,note_off,,,,,96,0,3,,,,,2,,,80,0
116160,note_on,,,,,0,0,4,,,,,3,,,71,88
116160,note_off,,,,,192,0,4,,,,,3,,,76,0
116160,note_on,,,,,0,0,1,,,,,0,,,76,75
116160,note_on,,,,,0,0,5,,,,,4,,,68,75
116160,note_off,,,,,96,0,1,,,,,0,,,78,0
116160,note_off,,,,,96,0,3,,,,,2,,,78,0
116160,note_on,,,,,0,0,3,,,,,2,,,76,94
116160,note_off,,,,,192,0,5,,,,,4,,,71,0
116160,note_on,,,,,0,0,2,,,,,1,,,71,75
116160,note_off,,,,,192,0,2,,,,,1,,,76,0
116352,note_off,,,,,192,0,1,,,,,0,,,76,0
116352,note_off,,,,,192,0,3,,,,,2,,,76,0
116352,note_off,,,,,384,0,8,,,,,7,,,52,0
116352,note_off,,,,,192,0,4,,,,,3,,,71,0
116352,note_on,,,,,0,0,4,,,,,3,,,68,88
116352,note_on,,,,,0,0,2,,,,,1,,,68,75
116352,note_off,,,,,384,0,7,,,,,6,,,40,0
116352,note_on,,,,,0,0,5,,,,,4,,,71,75
116352,note_off,,,,,192,0,5,,,,,4,,,68,0
116352,note_off,,,,,384,0,6,,,,,5,,,52,0
116352,note_off,,,,,192,0,2,,,,,1,,,71,0
116544,note_off,,,,,192,0,4,,,,,3,,,68,0
116544,note_off,,,,,192,0,2,,,,,1,,,68,0
116544,note_on,,,,,0,0,2,,,,,1,,,64,75
116544,note_on,,,,,0,0,5,,,,,4,,,68,75
116544,note_off,,,,,192,0,5,,,,,4,,,71,0
116544,note_on,,,,,0,0,4,,,,,3,,,64,88
116736,note_on,,,,,384,0,6,,,,,5,,,64,75
116736,note_on,,,,,384,0,8,,,,,7,,,64,60
116736,note_on,,,,,384,0,7,,,,,6,,,52,75
116736,note_on,,,,,0,0,4,,,,,3,,,68,88
116736,note_on,,,,,0,0,2,,,,,1,,,68,75
116736,note_on,,,,,384,0,3,,,,,2,,,71,94
116736,note_off,,,,,192,0,4,,,,,3,,,64,0
116736,note_on,,,,,384,0,1,,,,,0,,,71,75
116736,note_off,,,,,192,0,5,,,,,4,,,68,0
116736,note_on,,,,,0,0,5,,,,,4,,,64,75
116736,note_off,,,,,192,0,2,,,,,1,,,64,0
117120,note_on,,,,,0,0,4,,,,,3,,,69,88
117120,note_on,,,,,0,0,3,,,,,2,,,73,94
117120,note_off,,,,,384,0,3,,,,,2,,,71,0
117120,note_off,,,,,384,0,2,,,,,1,,,68,0
117120,note_on,,,,,0,0,2,,,,,1,,,69,75
117120,note_off,,,,,384,0,4,,,,,3,,,68,0
117120,note_off,,,,,384,0,1,,,,,0,,,71,0
117120,note_on,,,,,0,0,1,,,,,0,,,73,75
117312,note_off,,,,,192,0,1,,,,,0,,,73,0
117312,note_on,,,,,0,0,4,,,,,3,,,71,88
117312,note_on,,,,,0,0,8,,,,,7,,,62,60
117312,note_off,,,,,576,0,7,,,,,6,,,52,0
117312,note_off,,,,,192,0,4,,,,,3,,,69,0
117312,note_off,,,,,576,0,5,,,,,4,,,64,0
117312,note_off,,,,,576,0,8,,,,,7,,,64,0
117312,note_on,,,,,0,0,1,,,,,0,,,74,75
117312,note_off,,,,,576,0,6,,,,,5,,,64,0
117312,note_on,,,,,0,0,2,,,,,1,,,71,75
117312,note_off,,,,,192,0,2,,,,,1,,,69,0
117312,note_off,,,,,192,0,3,,,,,2,,,73,0
117312,note_on,,,,,0,0,3,,,,,2,,,74,94
117312,note_on,,,,,0,0,6,,,,,5,,,62,75
117312,note_on,,,,,0,0,5,,,,,4,,,68,75
117312,note_on,,,,,0,0,7,,,,,6,,,50,75
117504,note_on,,,,,0,0,3,,,,,2,,,76,94
117504,note_on,,,,,0,0,1,,,,,0,,,76,75
117504,note_off,,,,,192,0,3,,,,,2,,,74,0
117504,note_off,,,,,192,0,8,,,,,7,,,62,0
117504,note_on,,,,,0,0,4,,,,,3,,,64,88
117504,note_off,,,,,192,0,4,,,,,3,,,71,0
117504,note_off,,,,,192,0,2,,,,,1,,,71,0
117504,note_on,,,,,0,0,8,,,,,7,,,61,60
117504,note_on,,,,,0,0,2,,,,,1,,,64,75
117504,note_off,,,,,192,0,1,,,,,0,,,74,0
117504,note_off,,,,,192,0,6,,,,,5,,,62,0
117504,note_on,,,,,0,0,6,,,,,5,,,61,75
117504,note_off,,,,,192,0,5,,,,,4,,,68,0
117504,note_on,,,,,0,0,7,,,,,6,,,49,75
117504,note_off,,,,,192,0,7,,,,,6,,,50,0
117504,note_on,,,,,0,0,5,,,,,4,,,69,75
117696,note_off,,,,,192,0,1,,,,,0,,,76,0
117696,note_on,,,,,0,0,7,,,,,6,,,40,75
117696,note_on,,,,,0,0,1,,,,,0,,,73,75
117696,note_off,,,,,192,0,6,,,,,5,,,61,0
117696,note_off,,,,,192,0,7,,,,,6,,,49,0
117696,note_on,,,,,0,0,6,,,,,5,,,52,75
117696,note_off,,,,,192,0,3,,,,,2,,,76,0
117696,note_on,,,,,0,0,3,,,,,2,,,73,94
117696,note_on,,,,,0,0,8,,,,,7,,,52,60
117696,note_off,,,,,192,0,8,,,,,7,,,61,0
117888,note_off,,,,,192,0,3,,,,,2,,,73,0
117888,note_on,,,,,0,0,3,,,,,2,,,74,94
117888,note_on,,,,,0,0,1,,,,,0,,,74,75
117888,note_on,,,,,0,0,7,,,,,6,,,47,75
117888,note_off,,,,,384,0,5,,,,,4,,,69,0
117888,note_on,,,,,0,0,2,,,,,1,,,68,75
117888,note_off,,,,,384,0,2,,,,,1,,,64,0
117888,note_off,,,,,192,0,7,,,,,6,,,40,0
117888,note_on,,,,,0,0,4,,,,,3,,,68,88
117888,note_off,,,,,192,0,8,,,,,7,,,52,0
117888,note_on,,,,,0,0,8,,,,,7,,,59,60
117888,note_on,,,,,0,0,6,,,,,5,,,59,75
117888,note_off,,,,,192,0,6,,,,,5,,,52,0
117888,note_on,,,,,0,0,5,,,,,4,,,68,75
117888,note_off,,,,,384,0,4,,,,,3,,,64,0
117888,note_off,,,,,192,0,1,,,,,0,,,73,0
118080,note_on,,,,,0,0,8,,,,,7,,,52,60
118080,note_off,,,,,192,0,7,,,,,6,,,47,0
118080,note_on,,,,,0,0,7,,,,,6,,,40,75
118080,note_on,,,,,0,0,6,,,,,5,,,52,75
118080,note_off,,,,,192,0,6,,,,,5,,,59,0
118080,note_off,,,,,192,0,8,,,,,7,,,59,0
118080,note_off,,,,,192,0,1,,,,,0,,,74,0
118080,note_on,,,,,0,0,1,,,,,0,,,71,75
118080,note_on,,,,,0,0,5,,,,,4,,,64,75
118080,note_off,,,,,192,0,5,,,,,4,,,68,0
118080,note_on,,,,,0,0,3,,,,,2,,,71,94
118080,note_off,,,,,192,0,3,,,,,2,,,74,0
118272,note_on,,,,,0,0,8,,,,,7,,,57,60
118272,note_off,,,,,192,0,1,,,,,0,,,71,0
118272,note_off,,,,,192,0,8,,,,,7,,,52,0
118272,note_on,,,,,0,0,1,,,,,0,,,73,75
118272,note_on,,,,,0,0,5,,,,,4,,,64,75
118272,note_on,,,,,0,0,2,,,,,1,,,69,75
118272,note_off,,,,,192,0,5,,,,,4,,,64,0
118272,note_on,,,,,0,0,3,,,,,2,,,73,94
118272,note_off,,,,,192,0,3,,,,,2,,,71,0
118272,note_off,,,,,384,0,2,,,,,1,,,68,0
118272,note_off,,,,,192,0,7,,,,,6,,,40,0
118272,note_off,,,,,192,0,6,,,,,5,,,52,0
118272,note_on,,,,,0,0,7,,,,,6,,,45,75
118272,note_on,,,,,0,0,4,,,,,3,,,69,88
118272,note_off,,,,,384,0,4,,,,,3,,,68,0
118272,note_on,,,,,0,0,6,,,,,5,,,57,75
118464,note_off,,,,,192,0,6,,,,,5,,,57,0
118464,note_on,,,,,0,0,6,,,,,5,,,49,75
118464,note_off,,,,,192,0,7,,,,,6,,,45,0
118464,note_on,,,,,0,0,7,,,,,6,,,37,75
118464,note_off,,,,,192,0,8,,,,,7,,,57,0
118464,note_on,,,,,0,0,8,,,,,7,,,49,60
118464,note_off,,,,,192,0,1,,,,,0,,,73,0
118464,note_off,,,,,192,0,3,,,,,2,,,73,0
118464,note_on,,,,,0,0,3,,,,,2,,,69,94
118464,note_off,,,,,192,0,2,,,,,1,,,69,0
118464,note_on,,,,,0,0,1,,,,,0,,,69,75
118464,note_on,,,,,0,0,2,,,,,1,,,64,75
118464,note_on,,,,,0,0,4,,,,,3,,,64,88
118464,note_off,,,,,192,0,4,,,,,3,,,69,0
118656,note_on,,,,,0,0,6,,,,,5,,,50,75
118656,note_off,,,,,384,0,5,,,,,4,,,64,0
118656,note_on,,,,,0,0,3,,,,,2,,,73,94
118656,note_off,,,,,192,0,3,,,,,2,,,69,0
118656,note_off,,,,,192,0,8,,,,,7,,,49,0
118656,note_on,,,,,0,0,8,,,,,7,,,50,60
118656,note_on,,,,,0,0,2,,,,,1,,,66,75
118656,note_off,,,,,192,0,4,,,,,3,,,64,0
118656,note_on,,,,,0,0,4,,,,,3,,,66,88
118656,note_off,,,,,192,0,6,,,,,5,,,49,0
118656,note_on,,,,,0,0,5,,,,,4,,,62,75
118656,note_off,,,,,192,0,1,,,,,0,,,69,0
118656,note_on,,,,,0,0,1,,,,,0,,,73,75
118656,note_off,,,,,192,0,2,,,,,1,,,64,0
118656,note_off,,,,,192,0,7,,,,,6,,,37,0
118656,note_on,,,,,0,0,7,,,,,6,,,38,75
118704,note_on,,,,,0,0,1,,,,,0,,,71,75
118704,note_off,,,,,48,0,1,,,,,0,,,73,0
118704,note_off,,,,,48,0,3,,,,,2,,,73,0
118704,note_on,,,,,0,0,3,,,,,2,,,71,94
118752,note_on,,,,,0,0,1,,,,,0,,,73,75
118752,note_off,,,,,48,0,1,,,,,0,,,71,0
118752,note_off,,,,,48,0,3,,,,,2,,,71,0
118752,note_on,,,,,0,0,3,,,,,2,,,73,94
118800,note_off,,,,,48,0,1,,,,,0,,,73,0
118800,note_off,,,,,48,0,3,,,,,2,,,73,0
118800,note_on,,,,,0,0,1,,,,,0,,,71,75
118800,note_on,,,,,0,0,3,,,,,2,,,71,94
118848,note_off,,,,,192,0,4,,,,,3,,,66,0
118848,note_off,,,,,48,0,3,,,,,2,,,71,0
118848,note_on,,,,,0,0,3,,,,,2,,,73,94
118848,note_on,,,,,0,0,6,,,,,5,,,52,75
118848,note_off,,,,,192,0,6,,,,,5,,,50,0
118848,note_on,,,,,0,0,7,,,,,6,,,40,75
118848,note_off,,,,,192,0,7,,,,,6,,,38,0
118848,note_on,,,,,0,0,2,,,,,1,,,68,75
118848,note_off,,,,,192,0,2,,,,,1,,,66,0
118848,note_on,,,,,0,0,8,,,,,7,,,52,60
118848,note_on,,,,,0,0,4,,,,,3,,,68,88
118848,note_off,,,,,192,0,8,,,,,7,,,50,0
118848,note_off,,,,,48,0,1,,,,,0,,,71,0
118848,note_on,,,,,0,0,1,,,,,0,,,73,75
118848,note_off,,,,,192,0,5,,,,,4,,,62,0
118848,note_on,,,,,0,0,5,,,,,4,,,59,75
118896,note_off,,,,,48,0,3,,,,,2,,,73,0
118896,note_off,,,,,48,0,1,,,,,0,,,73,0
118896,note_on,,,,,0,0,1,,,,,0,,,71,75
118896,note_on,,,,,0,0,3,,,,,2,,,71,94
119040,note_off,,,,,144,0,3,,,,,2,,,71,0
119040,note_off,,,,,192,0,5,,,,,4,,,59,0
119040,note_on,,,,,0,0,5,,,,,4,,,61,75
119040,note_on,,,,,0,0,3,,,,,2,,,69,94
119040,note_off,,,,,192,0,7,,,,,6,,,40,0
119040,note_on,,,,,0,0,7,,,,,6,,,33,75
119040,note_off,,,,,192,0,6,,,,,5,,,52,0
119040,note_on,,,,,0,0,4,,,,,3,,,69,88
119040,note_off,,,,,192,0,8,,,,,7,,,52,0
119040,note_on,,,,,0,0,8,,,,,7,,,45,60
119040,note_on,,,,,0,0,2,,,,,1,,,69,75
119040,note_off,,,,,192,0,2,,,,,1,,,68,0
119040,note_on,,,,,0,0,1,,,,,0,,,69,75
119040,note_off,,,,,144,0,1,,,,,0,,,71,0
119040,note_off,,,,,192,0,4,,,,,3,,,68,0
119040,note_on,,,,,0,0,6,,,,,5,,,45,75
119232,note_on,,,,,0,0,6,,,,,5,,,57,75
119232,note_on,,,,,0,0,2,,,,,1,,,61,75
119232,note_off,,,,,192,0,2,,,,,1,,,69,0
119232,note_off,,,,,192,0,7,,,,,6,,,33,0
119232,note_off,,,,,192,0,6,,,,,5,,,45,0
119232,note_on,,,,,0,0,7,,,,,6,,,45,75
119232,note_off,,,,,192,0,5,,,,,4,,,61,0
119232,note_off,,,,,192,0,8,,,,,7,,,45,0
119232,note_on,,,,,0,0,4,,,,,3,,,61,88
119232,note_on,,,,,0,0,5,,,,,4,,,64,75
119232,note_on,,,,,0,0,8,,,,,7,,,57,60
119232,note_off,,,,,192,0,4,,,,,3,,,69,0
119424,note_off,,,,,192,0,2,,,,,1,,,61,0
119424,note_on,,,,,0,0,6,,,,,5,,,56,75
119424,note_off,,,,,192,0,6,,,,,5,,,57,0
119424,note_off,,,,,192,0,4,,,,,3,,,61,0
119424,note_on,,,,,0,0,4,,,,,3,,,59,88
119424,note_off,,,,,384,0,1,,,,,0,,,69,0
119424,note_off,,,,,192,0,8,,,,,7,,,57,0
119424,note_on,,,,,0,0,2,,,,,1,,,59,75
119424,note_on,,,,,0,0,8,,,,,7,,,56,60
119424,note_off,,,,,192,0,7,,,,,6,,,45,0
119424,note_off,,,,,192,0,5,,,,,4,,,64,0
119424,note_on,,,,,0,0,7,,,,,6,,,44,75
119424,note_off,,,,,384,0,3,,,,,2,,,69,0
119424,note_on,,,,,0,0,5,,,,,4,,,64,75
119616,note_on,,,,,0,0,4,,,,,3,,,57,88
119616,note_off,,,,,192,0,4,,,,,3,,,59,0
119616,note_on,,,,,0,0,2,,,,,1,,,57,75
119616,note_off,,,,,192,0,7,,,,,6,,,44,0
119616,note_off,,,,,192,0,2,,,,,1,,,59,0
119616,note_on,,,,,0,0,7,,,,,6,,,42,75
119616,note_on,,,,,0,0,6,,,,,5,,,54,75
119616,note_on,,,,,0,0,8,,,,,7,,,54,60
119616,note_off,,,,,192,0,8,,,,,7,,,56,0
119616,note_off,,,,,192,0,6,,,,,5,,,56,0
119616,note_off,,,,,192,0,5,,,,,4,,,64,0
119616,note_on,,,,,0,0,5,,,,,4,,,66,75
119808,note_off,,,,,192,0,2,,,,,1,,,57,0
119808,note_on,,,,,0,0,4,,,,,3,,,68,88
119808,note_off,,,,,192,0,4,,,,,3,,,57,0
119808,note_on,,,,,0,0,7,,,,,6,,,40,75
119808,note_off,,,,,192,0,5,,,,,4,,,66,0
119808,note_on,,,,,0,0,5,,,,,4,,,59,75
119808,note_on,,,,,384,0,3,,,,,2,,,71,94
119808,note_off,,,,,192,0,7,,,,,6,,,42,0
119808,note_on,,,,,384,0,1,,,,,0,,,71,75
119808,note_on,,,,,0,0,8,,,,,7,,,52,60
119808,note_off,,,,,192,0,8,,,,,7,,,54,0
119808,note_off,,,,,192,0,6,,,,,5,,,54,0
119808,note_on,,,,,0,0,6,,,,,5,,,52,75
119808,note_on,,,,,0,0,2,,,,,1,,,68,75
120192,note_off,,,,,384,0,4,,,,,3,,,68,0
120192,note_off,,,,,384,0,5,,,,,4,,,59,0
120192,note_on,,,,,0,0,5,,,,,4,,,64,75
120192,note_on,,,,,0,0,3,,,,,2,,,73,94
120192,note_on,,,,,0,0,4,,,,,3,,,69,88
120192,note_on,,,,,0,0,2,,,,,1,,,69,75
120192,note_off,,,,,384,0,2,,,,,1,,,68,0
120192,note_off,,,,,384,0,1,,,,,0,,,71,0
120192,note_on,,,,,0,0,1,,,,,0,,,73,75
120192,note_off,,,,,384,0,3,,,,,2,,,71,0
120384,note_on,,,,,0,0,4,,,,,3,,,71,88
120384,note_on,,,,,0,0,7,,,,,6,,,38,75
120384,note_off,,,,,576,0,7,,,,,6,,,40,0
120384,note_on,,,,,0,0,8,,,,,7,,,50,60
120384,note_off,,,,,576,0,8,,,,,7,,,52,0
120384,note_off,,,,,192,0,1,,,,,0,,,73,0
120384,note_on,,,,,0,0,1,,,,,0,,,74,75
120384,note_off,,,,,192,0,4,,,,,3,,,69,0
120384,note_on,,,,,0,0,6,,,,,5,,,50,75
120384,note_off,,,,,192,0,2,,,,,1,,,69,0
120384,note_off,,,,,192,0,5,,,,,4,,,64,0
120384,note_on,,,,,0,0,5,,,,,4,,,68,75
120384,note_on,,,,,0,0,2,,,,,1,,,71,75
120384,note_off,,,,,576,0,6,,,,,5,,,52,0
120384,note_off,,,,,192,0,3,,,,,2,,,73,0
120384,note_on,,,,,0,0,3,,,,,2,,,74,94
120576,note_on,,,,,0,0,1,,,,,0,,,76,75
120576,note_on,,,,,0,0,4,,,,,3,,,73,88
120576,note_off,,,,,192,0,4,,,,,3,,,71,0
120576,note_off,,,,,192,0,7,,,,,6,,,38,0
120576,note_on,,,,,0,0,2,,,,,1,,,73,75
120576,note_off,,,,,192,0,3,,,,,2,,,74,0
120576,note_on,,,,,0,0,3,,,,,2,,,76,94
120576,note_off,,,,,192,0,8,,,,,7,,,50,0
120576,note_on,,,,,0,0,7,,,,,6,,,37,75
120576,note_off,,,,,192,0,6,,,,,5,,,50,0
120576,note_on,,,,,0,0,6,,,,,5,,,49,75
120576,note_off,,,,,192,0,5,,,,,4,,,68,0
120576,note_on,,,,,0,0,5,,,,,4,,,69,75
120576,note_on,,,,,0,0,8,,,,,7,,,49,60
120576,note_off,,,,,192,0,2,,,,,1,,,71,0
120576,note_off,,,,,192,0,1,,,,,0,,,74,0
120864,note_off,,,,,288,0,3,,,,,2,,,76,0
120864,note_off,,,,,288,0,1,,,,,0,,,76,0
120864,note_on,,,,,0,0,1,,,,,0,,,78,75
120864,note_on,,,,,0,0,3,,,,,2,,,78,94
120912,note_off,,,,,48,0,3,,,,,2,,,78,0
120912,note_on,,,,,0,0,3,,,,,2,,,80,94
120912,note_on,,,,,0,0,1,,,,,0,,,80,75
120912,note_off,,,,,48,0,1,,,,,0,,,78,0
120960,note_off,,,,,48,0,1,,,,,0,,,80,0
120960,note_off,,,,,384,0,2,,,,,1,,,73,0
120960,note_off,,,,,384,0,4,,,,,3,,,73,0
120960,note_on,,,,,0,0,2,,,,,1,,,64,75
120960,note_on,,,,,0,0,1,,,,,0,,,81,75
120960,note_off,,,,,48,0,3,,,,,2,,,80,0
120960,note_on,,,,,0,0,3,,,,,2,,,81,94
120960,note_on,,,,,0,0,5,,,,,4,,,61,75
120960,note_off,,,,,384,0,5,,,,,4,,,69,0
120960,note_on,,,,,0,0,4,,,,,3,,,64,88
121152,note_on,,,,,0,0,7,,,,,6,,,35,75
121152,note_off,,,,,192,0,3,,,,,2,,,81,0
121152,note_on,,,,,0,0,3,,,,,2,,,74,94
121152,note_on,,,,,0,0,5,,,,,4,,,62,75
121152,note_off,,,,,192,0,5,,,,,4,,,61,0
121152,note_off,,,,,576,0,7,,,,,6,,,37,0
121152,note_on,,,,,0,0,6,,,,,5,,,47,75
121152,note_off,,,,,192,0,1,,,,,0,,,81,0
121152,note_off,,,,,192,0,2,,,,,1,,,64,0
121152,note_on,,,,,0,0,2,,,,,1,,,68,75
121152,note_on,,,,,0,0,8,,,,,7,,,47,60
121152,note_on,,,,,0,0,4,,,,,3,,,68,88
121152,note_off,,,,,192,0,4,,,,,3,,,64,0
121152,note_off,,,,,576,0,6,,,,,5,,,49,0
121152,note_off,,,,,576,0,8,,,,,7,,,49,0
121152,note_on,,,,,0,0,1,,,,,0,,,74,75
121344,note_off,,,,,192,0,8,,,,,7,,,47,0
121344,note_off,,,,,192,0,6,,,,,5,,,47,0
121344,note_on,,,,,0,0,8,,,,,7,,,45,60
121344,note_on,,,,,0,0,1,,,,,0,,,74,75
121344,note_off,,,,,192,0,2,,,,,1,,,68,0
121344,note_off,,,,,192,0,5,,,,,4,,,62,0
121344,note_off,,,,,192,0,1,,,,,0,,,74,0
121344,note_on,,,,,0,0,5,,,,,4,,,64,75
121344,note_on,,,,,0,0,2,,,,,1,,,69,75
121344,note_off,,,,,192,0,3,,,,,2,,,74,0
121344,note_on,,,,,0,0,7,,,,,6,,,33,75
121344,note_off,,,,,192,0,7,,,,,6,,,35,0
121344,note_on,,,,,0,0,3,,,,,2,,,74,94
121344,note_off,,,,,192,0,4,,,,,3,,,68,0
121344,note_on,,,,,0,0,6,,,,,5,,,45,75
121344,note_on,,,,,0,0,4,,,,,3,,,69,88
121392,note_on,,,,,0,0,1,,,,,0,,,73,75
121392,note_on,,,,,0,0,3,,,,,2,,,73,94
121392,note_off,,,,,48,0,1,,,,,0,,,74,0
121392,note_off,,,,,48,0,3,,,,,2,,,74,0
121440,note_off,,,,,48,0,3,,,,,2,,,73,0
121440,note_on,,,,,0,0,3,,,,,2,,,74,94
121440,note_off,,,,,48,0,1,,,,,0,,,73,0
121440,note_on,,,,,0,0,1,,,,,0,,,74,75
121488,note_off,,,,,48,0,3,,,,,2,,,74,0
121488,note_on,,,,,0,0,3,,,,,2,,,73,94
121488,note_on,,,,,0,0,1,,,,,0,,,73,75
121488,note_off,,,,,48,0,1,,,,,0,,,74,0
121536,note_on,,,,,0,0,3,,,,,2,,,74,94
121536,note_on,,,,,0,0,4,,,,,3,,,66,88
121536,note_off,,,,,192,0,4,,,,,3,,,69,0
121536,note_off,,,,,192,0,7,,,,,6,,,33,0
121536,note_on,,,,,0,0,1,,,,,0,,,74,75
121536,note_on,,,,,0,0,7,,,,,6,,,38,75
121536,note_off,,,,,48,0,3,,,,,2,,,73,0
121536,note_on,,,,,0,0,5,,,,,4,,,66,75
121536,note_on,,,,,0,0,6,,,,,5,,,50,75
121536,note_on,,,,,0,0,2,,,,,1,,,66,75
121536,note_on,,,,,0,0,8,,,,,7,,,50,60
121536,note_off,,,,,192,0,8,,,,,7,,,45,0
121536,note_off,,,,,48,0,1,,,,,0,,,73,0
121536,note_off,,,,,192,0,5,,,,,4,,,64,0
121536,note_off,,,,,192,0,2,,,,,1,,,69,0
121536,note_off,,,,,192,0,6,,,,,5,,,45,0
121584,note_off,,,,,48,0,3,,,,,2,,,74,0
121584,note_on,,,,,0,0,1,,,,,0,,,73,75
121584,note_off,,,,,48,0,1,,,,,0,,,74,0
121584,note_on,,,,,0,0,3,,,,,2,,,73,94
121728,note_on,,,,,0,0,3,,,,,2,,,73,94
121728,note_on,,,,,0,0,4,,,,,3,,,69,88
121728,note_on,,,,,0,0,1,,,,,0,,,73,75
121728,note_off,,,,,144,0,1,,,,,0,,,73,0
121728,note_off,,,,,144,0,3,,,,,2,,,73,0
121728,note_off,,,,,192,0,4,,,,,3,,,66,0
121728,note_off,,,,,192,0,5,,,,,4,,,66,0
121728,note_on,,,,,0,0,6,,,,,5,,,52,75
121728,note_off,,,,,192,0,6,,,,,5,,,50,0
121728,note_on,,,,,0,0,7,,,,,6,,,40,75
121728,note_off,,,,,192,0,2,,,,,1,,,66,0
121728,note_on,,,,,0,0,2,,,,,1,,,69,75
121728,note_on,,,,,0,0,5,,,,,4,,,64,75
121728,note_off,,,,,192,0,8,,,,,7,,,50,0
121728,note_on,,,,,0,0,8,,,,,7,,,52,60
121728,note_off,,,,,192,0,7,,,,,6,,,38,0
121776,note_on,,,,,0,0,1,,,,,0,,,71,75
121776,note_off,,,,,48,0,1,,,,,0,,,73,0
121776,note_on,,,,,0,0,3,,,,,2,,,71,94
121776,note_off,,,,,48,0,3,,,,,2,,,73,0
121776,note_on,,,,,0,0,4,,,,,3,,,68,88
121776,note_on,,,,,0,0,2,,,,,1,,,68,75
121776,note_off,,,,,48,0,2,,,,,1,,,69,0
121776,note_off,,,,,48,0,4,,,,,3,,,69,0
121824,note_off,,,,,48,0,3,,,,,2,,,71,0
121824,note_off,,,,,48,0,1,,,,,0,,,71,0
121824,note_on,,,,,0,0,4,,,,,3,,,71,88
121824,note_on,,,,,0,0,3,,,,,2,,,73,94
121824,note_off,,,,,48,0,2,,,,,1,,,68,0
121824,note_on,,,,,0,0,2,,,,,1,,,71,75
121824,note_on,,,,,0,0,1,,,,,0,,,73,75
121824,note_off,,,,,48,0,4,,,,,3,,,68,0
121872,note_off,,,,,48,0,1,,,,,0,,,73,0
121872,note_on,,,,,0,0,1,,,,,0,,,71,75
121872,note_on,,,,,0,0,4,,,,,3,,,69,88
121872,note_off,,,,,48,0,4,,,,,3,,,71,0
121872,note_on,,,,,0,0,3,,,,,2,,,71,94
121872,note_off,,,,,48,0,2,,,,,1,,,71,0
121872,note_on,,,,,0,0,2,,,,,1,,,69,75
121872,note_off,,,,,48,0,3,,,,,2,,,73,0
121920,note_off,,,,,48,0,3,,,,,2,,,71,0
121920,note_off,,,,,48,0,2,,,,,1,,,69,0
121920,note_on,,,,,0,0,2,,,,,1,,,71,75
121920,note_on,,,,,0,0,8,,,,,7,,,40,60
121920,note_off,,,,,192,0,8,,,,,7,,,52,0
121920,note_on,,,,,0,0,1,,,,,0,,,73,75
121920,note_on,,,,,0,0,6,,,,,5,,,40,75
121920,note_off,,,,,48,0,1,,,,,0,,,71,0
121920,note_on,,,,,0,0,5,,,,,4,,,59,75
121920,note_off,,,,,192,0,7,,,,,6,,,40,0
121920,note_on,,,,,0,0,7,,,,,6,,,28,75
121920,note_off,,,,,192,0,5,,,,,4,,,64,0
121920,note_off,,,,,48,0,4,,,,,3,,,69,0
121920,note_on,,,,,0,0,4,,,,,3,,,71,88
121920,note_on,,,,,0,0,3,,,,,2,,,73,94
121920,note_off,,,,,192,0,6,,,,,5,,,52,0
121968,note_off,,,,,48,0,3,,,,,2,,,73,0
121968,note_on,,,,,0,0,3,,,,,2,,,71,94
121968,note_off,,,,,48,0,4,,,,,3,,,71,0
121968,note_on,,,,,0,0,4,,,,,3,,,69,88
121968,note_off,,,,,48,0,1,,,,,0,,,73,0
121968,note_on,,,,,0,0,2,,,,,1,,,69,75
121968,note_off,,,,,48,0,2,,,,,1,,,71,0
121968,note_on,,,,,0,0,1,,,,,0,,,71,75
122016,note_off,,,,,48,0,1,,,,,0,,,71,0
122016,note_on,,,,,0,0,1,,,,,0,,,69,75
122016,note_off,,,,,48,0,3,,,,,2,,,71,0
122016,note_on,,,,,0,0,3,,,,,2,,,69,94
122112,note_off,,,,,96,0,1,,,,,0,,,69,0
122112,note_on,,,,,0,0,2,,,,,1,,,69,75
122112,note_off,,,,,144,0,2,,,,,1,,,69,0
122112,note_on,,,,,0,0,8,,,,,7,,,45,60
122112,note_off,,,,,192,0,8,,,,,7,,,40,0
122112,note_off,,,,,96,0,3,,,,,2,,,69,0
122112,note_on,,,,,0,0,5,,,,,4,,,61,75
122112,note_off,,,,,192,0,5,,,,,4,,,59,0
122112,note_on,,,,,0,0,3,,,,,2,,,69,94
122112,note_off,,,,,192,0,7,,,,,6,,,28,0
122112,note_on,,,,,0,0,7,,,,,6,,,33,75
122112,note_off,,,,,144,0,4,,,,,3,,,69,0
122112,note_on,,,,,0,0,4,,,,,3,,,69,88
122112,note_on,,,,,0,0,6,,,,,5,,,45,75
122112,note_off,,,,,192,0,6,,,,,5,,,40,0
122112,note_on,,,,,0,0,1,,,,,0,,,69,75
122496,note_off,,,,,384,0,7,,,,,6,,,33,0
122496,note_off,,,,,384,0,1,,,,,0,,,69,0
122496,note_off,,,,,384,0,5,,,,,4,,,61,0
122496,note_off,,,,,384,0,3,,,,,2,,,69,0
122496,note_off,,,,,384,0,6,,,,,5,,,45,0
122496,note_off,,,,,384,0,4,,,,,3,,,69,0
122496,note_off,,,,,384,0,8,,,,,7,,,45,0
122496,note_off,,,,,384,0,2,,,,,1,,,69,0
122880,note_on,,,,,384,0,7,,,,,6,,,45,75
122880,note_on,,,,,384,0,6,,,,,5,,,57,75
122880,note_on,,,,,384,0,1,,,,,0,,,78,75
122880,note_on,,,,,384,0,2,,,,,1,,,73,75
123264,note_off,,,,,384,0,7,,,,,6,,,45,0
123264,note_on,,,,,0,0,7,,,,,6,,,44,75
123264,note_off,,,,,384,0,6,,,,,5,,,57,0
123264,note_off,,,,,384,0,1,,,,,0,,,78,0
123264,note_on,,,,,0,0,1,,,,,0,,,80,75
123264,note_on,,,,,0,0,2,,,,,1,,,77,75
123264,note_off,,,,,384,0,2,,,,,1,,,73,0
123264,note_on,,,,,0,0,6,,,,,5,,,56,75
123456,note_off,,,,,192,0,2,,,,,1,,,77,0
123456,note_on,,,,,0,0,2,,,,,1,,,78,75
123456,note_off,,,,,192,0,6,,,,,5,,,56,0
123456,note_off,,,,,192,0,7,,,,,6,,,44,0
123456,note_on,,,,,0,0,6,,,,,5,,,54,75
123456,note_on,,,,,0,0,7,,,,,6,,,42,75
123456,note_off,,,,,192,0,1,,,,,0,,,80,0
123456,note_on,,,,,0,0,1,,,,,0,,,81,75
123648,note_off,,,,,192,0,6,,,,,5,,,54,0
123648,note_on,,,,,0,0,6,,,,,5,,,56,75
123648,note_on,,,,,0,0,2,,,,,1,,,78,75
123648,note_on,,,,,0,0,7,,,,,6,,,44,75
123648,note_off,,,,,192,0,7,,,,,6,,,42,0
123648,note_off,,,,,192,0,2,,,,,1,,,78,0
123648,note_on,,,,,0,0,1,,,,,0,,,83,75
123648,note_off,,,,,192,0,1,,,,,0,,,81,0
123840,note_on,,,,,0,0,7,,,,,6,,,49,75
123840,note_off,,,,,192,0,7,,,,,6,,,44,0
123840,note_on,,,,,0,0,2,,,,,1,,,77,75
123840,note_on,,,,,0,0,6,,,,,5,,,61,75
123840,note_off,,,,,192,0,6,,,,,5,,,56,0
123840,note_on,,,,,0,0,1,,,,,0,,,80,75
123840,note_off,,,,,192,0,1,,,,,0,,,83,0
123840,note_off,,,,,192,0,2,,,,,1,,,78,0
124032,note_off,,,,,192,0,1,,,,,0,,,80,0
124032,note_off,,,,,192,0,2,,,,,1,,,77,0
124032,note_on,,,,,0,0,2,,,,,1,,,78,75
124032,note_on,,,,,0,0,6,,,,,5,,,54,75
124032,note_off,,,,,192,0,6,,,,,5,,,61,0
124032,note_on,,,,,0,0,1,,,,,0,,,81,75
124032,note_off,,,,,192,0,7,,,,,6,,,49,0
124032,note_on,,,,,0,0,7,,,,,6,,,42,75
124224,note_on,,,,,0,0,6,,,,,5,,,57,75
124224,note_off,,,,,192,0,7,,,,,6,,,42,0
124224,note_off,,,,,192,0,6,,,,,5,,,54,0
124224,note_on,,,,,0,0,7,,,,,6,,,45,75
124224,note_on,,,,,0,0,2,,,,,1,,,73,75
124224,note_off,,,,,192,0,2,,,,,1,,,78,0
124224,note_off,,,,,192,0,1,,,,,0,,,81,0
124224,note_on,,,,,0,0,1,,,,,0,,,78,75
124416,note_off,,,,,192,0,7,,,,,6,,,45,0
124416,note_off,,,,,192,0,6,,,,,5,,,57,0
124416,note_on,,,,,0,0,1,,,,,0,,,85,75
124416,note_on,,,,,0,0,6,,,,,5,,,45,75
124416,note_off,,,,,192,0,1,,,,,0,,,78,0
124416,note_on,,,,,0,0,7,,,,,6,,,33,75
124416,note_on,,,,,0,0,2,,,,,1,,,78,75
124416,note_off,,,,,192,0,2,,,,,1,,,73,0
124608,note_off,,,,,192,0,6,,,,,5,,,45,0
124608,note_on,,,,,0,0,6,,,,,5,,,57,75
124608,note_on,,,,,0,0,7,,,,,6,,,45,75
124608,note_off,,,,,192,0,7,,,,,6,,,33,0
124800,note_off,,,,,384,0,1,,,,,0,,,85,0
124800,note_on,,,,,0,0,7,,,,,6,,,50,75
124800,note_off,,,,,192,0,6,,,,,5,,,57,0
124800,note_on,,,,,0,0,2,,,,,1,,,66,75
124800,note_off,,,,,384,0,2,,,,,1,,,78,0
124800,note_on,,,,,0,0,1,,,,,0,,,83,75
124800,note_off,,,,,192,0,7,,,,,6,,,45,0
124800,note_on,,,,,0,0,6,,,,,5,,,62,75
124896,note_on,,,,,0,0,1,,,,,0,,,81,75
124896,note_off,,,,,96,0,1,,,,,0,,,83,0
124992,note_off,,,,,192,0,6,,,,,5,,,62,0
124992,note_off,,,,,192,0,7,,,,,6,,,50,0
124992,note_on,,,,,0,0,7,,,,,6,,,47,75
124992,note_off,,,,,192,0,2,,,,,1,,,66,0
124992,note_on,,,,,0,0,2,,,,,1,,,71,75
124992,note_on,,,,,0,0,6,,,,,5,,,59,75
124992,note_off,,,,,96,0,1,,,,,0,,,81,0
124992,note_on,,,,,0,0,1,,,,,0,,,80,75
125088,note_off,,,,,96,0,1,,,,,0,,,80,0
125088,note_on,,,,,0,0,1,,,,,0,,,78,75
125184,note_off,,,,,96,0,1,,,,,0,,,78,0
125184,note_off,,,,,192,0,2,,,,,1,,,71,0
125184,note_on,,,,,0,0,6,,,,,5,,,61,75
125184,note_off,,,,,192,0,6,,,,,5,,,59,0
125184,note_on,,,,,0,0,7,,,,,6,,,49,75
125184,note_off,,,,,192,0,7,,,,,6,,,47,0
125184,note_on,,,,,0,0,1,,,,,0,,,77,75
125184,note_on,,,,,0,0,2,,,,,1,,,68,75
125280,note_on,,,,,0,0,1,,,,,0,,,75,75
125280,note_off,,,,,96,0,1,,,,,0,,,77,0
125376,note_off,,,,,96,0,1,,,,,0,,,75,0
125376,note_on,,,,,0,0,1,,,,,0,,,73,75
125568,note_off,,,,,384,0,6,,,,,5,,,61,0
125568,note_off,,,,,192,0,1,,,,,0,,,73,0
125568,note_off,,,,,384,0,7,,,,,6,,,49,0
125568,note_off,,,,,384,0,2,,,,,1,,,68,0
125952,note_on,,,,,3456,0,8,,,,,7,,,45,60
125952,note_on,,,,,3456,0,4,,,,,3,,,66,88
125952,note_on,,,,,3456,0,5,,,,,4,,,61,75
125952,note_on,,,,,3456,0,3,,,,,2,,,73,94
126336,note_off,,,,,384,0,8,,,,,7,,,45,0
126336,note_off,,,,,384,0,3,,,,,2,,,73,0
126336,note_on,,,,,0,0,3,,,,,2,,,71,94
126336,note_on,,,,,0,0,5,,,,,4,,,66,75
126336,note_off,,,,,384,0,4,,,,,3,,,66,0
126336,note_on,,,,,0,0,4,,,,,3,,,66,88
126336,note_off,,,,,384,0,5,,,,,4,,,61,0
126336,note_on,,,,,0,0,8,,,,,7,,,50,60
126432,note_off,,,,,96,0,3,,,,,2,,,71,0
126432,note_on,,,,,0,0,3,,,,,2,,,69,94
126528,note_on,,,,,0,0,3,,,,,2,,,68,94
126528,note_off,,,,,192,0,4,,,,,3,,,66,0
126528,note_off,,,,,192,0,8,,,,,7,,,50,0
126528,note_off,,,,,192,0,5,,,,,4,,,66,0
126528,note_off,,,,,96,0,3,,,,,2,,,69,0
126528,note_on,,,,,0,0,5,,,,,4,,,62,75
126528,note_on,,,,,0,0,8,,,,,7,,,47,60
126528,note_on,,,,,0,0,4,,,,,3,,,68,88
126624,note_on,,,,,0,0,3,,,,,2,,,66,94
126624,note_off,,,,,96,0,3,,,,,2,,,68,0
126720,note_on,,,,,0,0,3,,,,,2,,,73,94
126720,note_off,,,,,192,0,8,,,,,7,,,47,0
126720,note_off,,,,,192,0,4,,,,,3,,,68,0
126720,note_off,,,,,96,0,3,,,,,2,,,66,0
126720,note_off,,,,,192,0,5,,,,,4,,,62,0
126720,note_on,,,,,0,0,5,,,,,4,,,56,75
126720,note_on,,,,,0,0,8,,,,,7,,,49,60
126720,note_on,,,,,0,0,4,,,,,3,,,65,88
126912,note_on,,,,,0,0,3,,,,,2,,,68,94
126912,note_off,,,,,192,0,3,,,,,2,,,73,0
126912,note_on,,,,,0,0,5,,,,,4,,,61,75
126912,note_off,,,,,192,0,5,,,,,4,,,56,0
127104,note_off,,,,,384,0,4,,,,,3,,,65,0
127104,note_off,,,,,192,0,5,,,,,4,,,61,0
127104,note_off,,,,,384,0,8,,,,,7,,,49,0
127104,note_off,,,,,192,0,3,,,,,2,,,68,0
127488,note_on,,,,,1920,0,7,,,,,6,,,44,75
127488,note_on,,,,,1920,0,1,,,,,0,,,83,75
127488,note_on,,,,,1920,0,2,,,,,1,,,71,75
127488,note_on,,,,,1920,0,6,,,,,5,,,56,75
127872,note_off,,,,,384,0,7,,,,,6,,,44,0
127872,note_on,,,,,0,0,7,,,,,6,,,49,75
127872,note_off,,,,,384,0,6,,,,,5,,,56,0
127872,note_off,,,,,384,0,2,,,,,1,,,71,0
127872,note_off,,,,,384,0,1,,,,,0,,,83,0
127872,note_on,,,,,0,0,1,,,,,0,,,81,75
127872,note_on,,,,,0,0,6,,,,,5,,,61,75
127872,note_on,,,,,0,0,2,,,,,1,,,76,75
127968,note_off,,,,,96,0,1,,,,,0,,,81,0
127968,note_on,,,,,0,0,1,,,,,0,,,80,75
128064,note_off,,,,,192,0,6,,,,,5,,,61,0
128064,note_on,,,,,0,0,6,,,,,5,,,57,75
128064,note_on,,,,,0,0,2,,,,,1,,,73,75
128064,note_on,,,,,0,0,7,,,,,6,,,45,75
128064,note_off,,,,,192,0,7,,,,,6,,,49,0
128064,note_off,,,,,96,0,1,,,,,0,,,80,0
128064,note_off,,,,,192,0,2,,,,,1,,,76,0
128064,note_on,,,,,0,0,1,,,,,0,,,78,75
128160,note_off,,,,,96,0,1,,,,,0,,,78,0
128160,note_on,,,,,0,0,1,,,,,0,,,76,75
128256,note_off,,,,,96,0,1,,,,,0,,,76,0
128256,note_on,,,,,0,0,7,,,,,6,,,47,75
128256,note_off,,,,,192,0,7,,,,,6,,,45,0
128256,note_on,,,,,0,0,6,,,,,5,,,59,75
128256,note_off,,,,,192,0,6,,,,,5,,,57,0
128256,note_on,,,,,0,0,1,,,,,0,,,75,75
128256,note_off,,,,,192,0,2,,,,,1,,,73,0
128256,note_on,,,,,0,0,2,,,,,1,,,66,75
128352,note_off,,,,,96,0,1,,,,,0,,,75,0
128352,note_on,,,,,0,0,1,,,,,0,,,73,75
128448,note_off,,,,,96,0,1,,,,,0,,,73,0
128448,note_on,,,,,0,0,1,,,,,0,,,71,75
128640,note_off,,,,,384,0,6,,,,,5,,,59,0
128640,note_off,,,,,384,0,7,,,,,6,,,47,0
128640,note_off,,,,,384,0,2,,,,,1,,,66,0
128640,note_off,,,,,192,0,1,,,,,0,,,71,0
129024,note_on,,,,,1920,0,5,,,,,4,,,59,75
129024,note_on,,,,,1920,0,8,,,,,7,,,44,60
129024,note_on,,,,,1920,0,4,,,,,3,,,64,88
129024,note_on,,,,,1920,0,3,,,,,2,,,71,94
129408,note_off,,,,,384,0,3,,,,,2,,,71,0
129408,note_off,,,,,384,0,4,,,,,3,,,64,0
129408,note_on,,,,,0,0,3,,,,,2,,,69,94
129408,note_on,,,,,0,0,5,,,,,4,,,64,75
129408,note_off,,,,,384,0,5,,,,,4,,,59,0
129408,note_off,,,,,384,0,8,,,,,7,,,44,0
129408,note_on,,,,,0,0,8,,,,,7,,,49,60
129408,note_on,,,,,0,0,4,,,,,3,,,64,88
129504,note_off,,,,,96,0,3,,,,,2,,,69,0
129504,note_on,,,,,0,0,3,,,,,2,,,68,94
129600,note_off,,,,,192,0,8,,,,,7,,,49,0
129600,note_on,,,,,0,0,4,,,,,3,,,66,88
129600,note_off,,,,,192,0,4,,,,,3,,,64,0
129600,note_on,,,,,0,0,8,,,,,7,,,45,60
129600,note_on,,,,,0,0,5,,,,,4,,,61,75
129600,note_off,,,,,96,0,3,,,,,2,,,68,0
129600,note_on,,,,,0,0,3,,,,,2,,,66,94
129600,note_off,,,,,192,0,5,,,,,4,,,64,0
129696,note_off,,,,,96,0,3,,,,,2,,,66,0
129696,note_on,,,,,0,0,3,,,,,2,,,64,94
129792,note_on,,,,,0,0,5,,,,,4,,,54,75
129792,note_off,,,,,96,0,3,,,,,2,,,64,0
129792,note_on,,,,,0,0,3,,,,,2,,,71,94
129792,note_off,,,,,192,0,4,,,,,3,,,66,0
129792,note_on,,,,,0,0,4,,,,,3,,,63,88
129792,note_on,,,,,0,0,8,,,,,7,,,47,60
129792,note_off,,,,,192,0,8,,,,,7,,,45,0
129792,note_off,,,,,192,0,5,,,,,4,,,61,0
129984,note_off,,,,,192,0,3,,,,,2,,,71,0
129984,note_on,,,,,0,0,3,,,,,2,,,66,94
129984,note_off,,,,,192,0,5,,,,,4,,,54,0
129984,note_on,,,,,0,0,5,,,,,4,,,59,75
130176,note_off,,,,,192,0,5,,,,,4,,,59,0
130176,note_off,,,,,384,0,8,,,,,7,,,47,0
130176,note_off,,,,,192,0,3,,,,,2,,,66,0
130176,note_off,,,,,384,0,4,,,,,3,,,63,0
130560,note_on,,,,,1920,0,7,,,,,6,,,52,75
130560,note_on,,,,,1920,0,1,,,,,0,,,80,75
130560,note_on,,,,,1920,0,2,,,,,1,,,73,75
130560,note_on,,,,,1920,0,6,,,,,5,,,64,75
130944,note_off,,,,,384,0,2,,,,,1,,,73,0
130944,note_on,,,,,0,0,2,,,,,1,,,68,75
130944,note_off,,,,,384,0,6,,,,,5,,,64,0
130944,note_on,,,,,0,0,6,,,,,5,,,61,75
130944,note_off,,,,,384,0,7,,,,,6,,,52,0
130944,note_on,,,,,0,0,1,,,,,0,,,78,75
130944,note_off,,,,,384,0,1,,,,,0,,,80,0
130944,note_on,,,,,0,0,7,,,,,6,,,49,75
131040,note_on,,,,,0,0,1,,,,,0,,,76,75
131040,note_off,,,,,96,0,1,,,,,0,,,78,0
131136,note_on,,,,,0,0,6,,,,,5,,,64,75
131136,note_on,,,,,0,0,1,,,,,0,,,75,75
131136,note_off,,,,,96,0,1,,,,,0,,,76,0
131136,note_off,,,,,192,0,6,,,,,5,,,61,0
131136,note_off,,,,,192,0,7,,,,,6,,,49,0
131136,note_off,,,,,192,0,2,,,,,1,,,68,0
131136,note_on,,,,,0,0,2,,,,,1,,,68,75
131136,note_on,,,,,0,0,7,,,,,6,,,52,75
131232,note_on,,,,,0,0,1,,,,,0,,,73,75
131232,note_off,,,,,96,0,1,,,,,0,,,75,0
131328,note_off,,,,,192,0,7,,,,,6,,,52,0
131328,note_off,,,,,192,0,2,,,,,1,,,68,0
131328,note_on,,,,,0,0,2,,,,,1,,,78,75
131328,note_off,,,,,192,0,6,,,,,5,,,64,0
131328,note_on,,,,,0,0,6,,,,,5,,,66,75
131328,note_off,,,,,96,0,1,,,,,0,,,73,0
131328,note_on,,,,,0,0,1,,,,,0,,,81,75
131328,note_on,,,,,0,0,7,,,,,6,,,54,75
131424,note_on,,,,,0,0,1,,,,,0,,,73,75
131424,note_off,,,,,96,0,1,,,,,0,,,81,0
131520,note_off,,,,,96,0,1,,,,,0,,,73,0
131520,note_on,,,,,1344,0,5,,,,,4,,,66,75
131520,note_on,,,,,1344,0,4,,,,,3,,,69,88
131520,note_on,,,,,1344,0,3,,,,,2,,,73,94
131520,note_on,,,,,1344,0,8,,,,,7,,,54,60
131520,note_on,,,,,0,0,1,,,,,0,,,81,75
131616,note_off,,,,,96,0,1,,,,,0,,,81,0
131616,note_on,,,,,0,0,1,,,,,0,,,73,75
131712,note_off,,,,,96,0,1,,,,,0,,,73,0
131712,note_on,,,,,0,0,1,,,,,0,,,81,75
131712,note_on,,,,,0,0,8,,,,,7,,,57,60
131712,note_off,,,,,192,0,4,,,,,3,,,69,0
131712,note_on,,,,,0,0,4,,,,,3,,,73,88
131712,note_off,,,,,192,0,8,,,,,7,,,54,0
131712,note_off,,,,,384,0,2,,,,,1,,,78,0
131712,note_off,,,,,384,0,7,,,,,6,,,54,0
131712,note_off,,,,,192,0,3,,,,,2,,,73,0
131712,note_off,,,,,192,0,5,,,,,4,,,66,0
131712,note_on,,,,,0,0,5,,,,,4,,,61,75
131712,note_on,,,,,0,0,3,,,,,2,,,78,94
131712,note_off,,,,,384,0,6,,,,,5,,,66,0
131808,note_off,,,,,96,0,1,,,,,0,,,81,0
131808,note_on,,,,,0,0,1,,,,,0,,,73,75
131904,note_on,,,,,0,0,5,,,,,4,,,66,75
131904,note_on,,,,,0,0,4,,,,,3,,,69,88
131904,note_on,,,,,192,0,6,,,,,5,,,66,75
131904,note_off,,,,,192,0,8,,,,,7,,,57,0
131904,note_on,,,,,0,0,8,,,,,7,,,54,60
131904,note_on,,,,,0,0,3,,,,,2,,,73,94
131904,note_on,,,,,192,0,2,,,,,1,,,73,75
131904,note_off,,,,,192,0,4,,,,,3,,,73,0
131904,note_off,,,,,192,0,5,,,,,4,,,61,0
131904,note_off,,,,,192,0,3,,,,,2,,,78,0
131904,note_off,,,,,96,0,1,,,,,0,,,73,0
131904,note_on,,,,,192,0,7,,,,,6,,,54,75
131904,note_on,,,,,0,0,1,,,,,0,,,81,75
132000,note_on,,,,,0,0,1,,,,,0,,,73,75
132000,note_off,,,,,96,0,1,,,,,0,,,81,0
132096,note_off,,,,,192,0,6,,,,,5,,,66,0
132096,note_on,,,,,0,0,1,,,,,0,,,81,75
132096,note_off,,,,,96,0,1,,,,,0,,,73,0
132096,note_off,,,,,192,0,3,,,,,2,,,73,0
132096,note_off,,,,,192,0,4,,,,,3,,,69,0
132096,note_on,,,,,0,0,6,,,,,5,,,63,75
132096,note_off,,,,,192,0,5,,,,,4,,,66,0
132096,note_off,,,,,192,0,2,,,,,1,,,73,0
132096,note_on,,,,,0,0,2,,,,,1,,,71,75
132096,note_off,,,,,192,0,8,,,,,7,,,54,0
132096,note_on,,,,,0,0,7,,,,,6,,,51,75
132096,note_off,,,,,192,0,7,,,,,6,,,54,0
132192,note_off,,,,,96,0,1,,,,,0,,,81,0
132192,note_on,,,,,0,0,1,,,,,0,,,75,75
132288,note_on,,,,,192,0,3,,,,,2,,,75,94
132288,note_on,,,,,192,0,8,,,,,7,,,47,60
132288,note_on,,,,,0,0,1,,,,,0,,,81,75
132288,note_on,,,,,192,0,4,,,,,3,,,71,88
132288,note_off,,,,,96,0,1,,,,,0,,,75,0
132288,note_on,,,,,192,0,5,,,,,4,,,66,75
132384,note_off,,,,,96,0,1,,,,,0,,,81,0
132384,note_on,,,,,0,0,1,,,,,0,,,75,75
132480,note_off,,,,,192,0,8,,,,,7,,,47,0
132480,note_off,,,,,384,0,6,,,,,5,,,63,0
132480,note_off,,,,,192,0,3,,,,,2,,,75,0
132480,note_on,,,,,0,0,5,,,,,4,,,59,75
132480,note_off,,,,,192,0,5,,,,,4,,,66,0
132480,note_off,,,,,384,0,2,,,,,1,,,71,0
132480,note_off,,,,,384,0,7,,,,,6,,,51,0
132480,note_on,,,,,0,0,4,,,,,3,,,69,88
132480,note_on,,,,,0,0,8,,,,,7,,,51,60
132480,note_off,,,,,192,0,4,,,,,3,,,71,0
132480,note_off,,,,,96,0,1,,,,,0,,,75,0
132480,note_on,,,,,0,0,1,,,,,0,,,81,75
132480,note_on,,,,,0,0,3,,,,,2,,,78,94
132576,note_off,,,,,96,0,1,,,,,0,,,81,0
132576,note_on,,,,,0,0,1,,,,,0,,,75,75
132672,note_on,,,,,0,0,8,,,,,7,,,47,60
132672,note_on,,,,,0,0,5,,,,,4,,,63,75
132672,note_off,,,,,192,0,5,,,,,4,,,59,0
132672,note_on,,,,,192,0,6,,,,,5,,,63,75
132672,note_on,,,,,192,0,7,,,,,6,,,51,75
132672,note_on,,,,,0,0,1,,,,,0,,,81,75
132672,note_on,,,,,0,0,4,,,,,3,,,71,88
132672,note_off,,,,,96,0,1,,,,,0,,,75,0
132672,note_on,,,,,192,0,2,,,,,1,,,71,75
132672,note_on,,,,,0,0,3,,,,,2,,,66,94
132672,note_off,,,,,192,0,3,,,,,2,,,78,0
132672,note_off,,,,,192,0,4,,,,,3,,,69,0
132672,note_off,,,,,192,0,8,,,,,7,,,51,0
132768,note_off,,,,,96,0,1,,,,,0,,,81,0
132768,note_on,,,,,0,0,1,,,,,0,,,75,75
132864,note_off,,,,,192,0,5,,,,,4,,,63,0
132864,note_off,,,,,192,0,2,,,,,1,,,71,0
132864,note_off,,,,,192,0,7,,,,,6,,,51,0
132864,note_on,,,,,0,0,7,,,,,6,,,52,75
132864,note_off,,,,,96,0,1,,,,,0,,,75,0
132864,note_on,,,,,0,0,1,,,,,0,,,80,75
132864,note_on,,,,,0,0,2,,,,,1,,,71,75
132864,note_off,,,,,192,0,3,,,,,2,,,66,0
132864,note_off,,,,,192,0,8,,,,,7,,,47,0
132864,note_off,,,,,192,0,4,,,,,3,,,71,0
132864,note_on,,,,,0,0,6,,,,,5,,,64,75
132864,note_off,,,,,192,0,6,,,,,5,,,63,0
132960,note_on,,,,,0,0,1,,,,,0,,,75,75
132960,note_off,,,,,96,0,1,,,,,0,,,80,0
133056,note_on,,,,,192,0,8,,,,,7,,,52,60
133056,note_on,,,,,192,0,4,,,,,3,,,71,88
133056,note_off,,,,,96,0,1,,,,,0,,,75,0
133056,note_on,,,,,0,0,1,,,,,0,,,80,75
133056,note_on,,,,,192,0,3,,,,,2,,,68,94
133056,note_on,,,,,192,0,5,,,,,4,,,64,75
133152,note_off,,,,,96,0,1,,,,,0,,,80,0
133152,note_on,,,,,0,0,1,,,,,0,,,75,75
133248,note_on,,,,,0,0,5,,,,,4,,,59,75
133248,note_off,,,,,192,0,5,,,,,4,,,64,0
133248,note_off,,,,,192,0,8,,,,,7,,,52,0
133248,note_on,,,,,0,0,8,,,,,7,,,56,60
133248,note_off,,,,,384,0,2,,,,,1,,,71,0
133248,note_off,,,,,96,0,1,,,,,0,,,75,0
133248,note_off,,,,,192,0,4,,,,,3,,,71,0
133248,note_on,,,,,0,0,4,,,,,3,,,68,88
133248,note_off,,,,,192,0,3,,,,,2,,,68,0
133248,note_off,,,,,384,0,7,,,,,6,,,52,0
133248,note_on,,,,,0,0,3,,,,,2,,,71,94
133248,note_off,,,,,384,0,6,,,,,5,,,64,0
133248,note_on,,,,,0,0,1,,,,,0,,,80,75
133344,note_off,,,,,96,0,1,,,,,0,,,80,0
133344,note_on,,,,,0,0,1,,,,,0,,,75,75
133440,note_on,,,,,0,0,8,,,,,7,,,52,60
133440,note_off,,,,,192,0,5,,,,,4,,,59,0
133440,note_on,,,,,0,0,5,,,,,4,,,64,75
133440,note_on,,,,,192,0,6,,,,,5,,,64,75
133440,note_off,,,,,192,0,8,,,,,7,,,56,0
133440,note_on,,,,,0,0,3,,,,,2,,,68,94
133440,note_on,,,,,0,0,1,,,,,0,,,80,75
133440,note_off,,,,,96,0,1,,,,,0,,,75,0
133440,note_off,,,,,192,0,4,,,,,3,,,68,0
133440,note_on,,,,,0,0,4,,,,,3,,,71,88
133440,note_on,,,,,192,0,7,,,,,6,,,52,75
133440,note_on,,,,,192,0,2,,,,,1,,,71,75
133440,note_off,,,,,192,0,3,,,,,2,,,71,0
133536,note_on,,,,,0,0,1,,,,,0,,,75,75
133536,note_off,,,,,96,0,1,,,,,0,,,80,0
133632,note_on,,,,,0,0,2,,,,,1,,,69,75
133632,note_off,,,,,192,0,3,,,,,2,,,68,0
133632,note_off,,,,,192,0,6,,,,,5,,,64,0
133632,note_on,,,,,0,0,6,,,,,5,,,61,75
133632,note_off,,,,,192,0,4,,,,,3,,,71,0
133632,note_off,,,,,192,0,7,,,,,6,,,52,0
133632,note_off,,,,,192,0,8,,,,,7,,,52,0
133632,note_on,,,,,0,0,7,,,,,6,,,49,75
133632,note_off,,,,,192,0,2,,,,,1,,,71,0
133632,note_off,,,,,192,0,5,,,,,4,,,64,0
133632,note_on,,,,,0,0,1,,,,,0,,,80,75
133632,note_off,,,,,96,0,1,,,,,0,,,75,0
133728,note_on,,,,,0,0,1,,,,,0,,,73,75
133728,note_off,,,,,96,0,1,,,,,0,,,80,0
133824,note_on,,,,,192,0,4,,,,,3,,,69,88
133824,note_on,,,,,192,0,3,,,,,2,,,73,94
133824,note_off,,,,,96,0,1,,,,,0,,,73,0
133824,note_on,,,,,0,0,1,,,,,0,,,80,75
133824,note_on,,,,,192,0,8,,,,,7,,,57,60
133824,note_on,,,,,192,0,5,,,,,4,,,64,75
133920,note_off,,,,,96,0,1,,,,,0,,,80,0
133920,note_on,,,,,0,0,1,,,,,0,,,73,75
134016,note_off,,,,,384,0,7,,,,,6,,,49,0
134016,note_off,,,,,384,0,6,,,,,5,,,61,0
134016,note_on,,,,,0,0,5,,,,,4,,,57,75
134016,note_off,,,,,192,0,5,,,,,4,,,64,0
134016,note_off,,,,,192,0,4,,,,,3,,,69,0
134016,note_on,,,,,0,0,4,,,,,3,,,68,88
134016,note_off,,,,,192,0,8,,,,,7,,,57,0
134016,note_off,,,,,192,0,3,,,,,2,,,73,0
134016,note_off,,,,,384,0,2,,,,,1,,,69,0
134016,note_on,,,,,0,0,8,,,,,7,,,61,60
134016,note_on,,,,,0,0,1,,,,,0,,,80,75
134016,note_on,,,,,0,0,3,,,,,2,,,76,94
134016,note_off,,,,,96,0,1,,,,,0,,,73,0
134112,note_on,,,,,0,0,1,,,,,0,,,73,75
134112,note_off,,,,,96,0,1,,,,,0,,,80,0
134208,note_off,,,,,192,0,5,,,,,4,,,57,0
134208,note_off,,,,,192,0,3,,,,,2,,,76,0
134208,note_on,,,,,0,0,3,,,,,2,,,73,94
134208,note_on,,,,,0,0,8,,,,,7,,,57,60
134208,note_on,,,,,0,0,5,,,,,4,,,64,75
134208,note_on,,,,,192,0,7,,,,,6,,,49,75
134208,note_on,,,,,0,0,1,,,,,0,,,80,75
134208,note_off,,,,,96,0,1,,,,,0,,,73,0
134208,note_off,,,,,192,0,4,,,,,3,,,68,0
134208,note_on,,,,,0,0,4,,,,,3,,,69,88
134208,note_on,,,,,192,0,2,,,,,1,,,69,75
134208,note_off,,,,,192,0,8,,,,,7,,,61,0
134208,note_on,,,,,192,0,6,,,,,5,,,61,75
134304,note_on,,,,,0,0,1,,,,,0,,,73,75
134304,note_off,,,,,96,0,1,,,,,0,,,80,0
134400,note_off,,,,,192,0,3,,,,,2,,,73,0
134400,note_on,,,,,0,0,6,,,,,5,,,63,75
134400,note_off,,,,,192,0,5,,,,,4,,,64,0
134400,note_off,,,,,192,0,8,,,,,7,,,57,0
134400,note_on,,,,,0,0,1,,,,,0,,,78,75
134400,note_off,,,,,96,0,1,,,,,0,,,73,0
134400,note_on,,,,,0,0,7,,,,,6,,,51,75
134400,note_off,,,,,192,0,7,,,,,6,,,49,0
134400,note_off,,,,,192,0,4,,,,,3,,,69,0
134400,note_off,,,,,192,0,2,,,,,1,,,69,0
134400,note_on,,,,,0,0,2,,,,,1,,,69,75
134400,note_off,,,,,192,0,6,,,,,5,,,61,0
134496,note_on,,,,,0,0,1,,,,,0,,,73,75
134496,note_off,,,,,96,0,1,,,,,0,,,78,0
134592,note_on,,,,,0,0,1,,,,,0,,,78,75
134592,note_off,,,,,96,0,1,,,,,0,,,73,0
134592,note_on,,,,,192,0,3,,,,,2,,,73,94
134592,note_on,,,,,192,0,8,,,,,7,,,51,60
134592,note_on,,,,,192,0,4,,,,,3,,,69,88
134592,note_on,,,,,192,0,5,,,,,4,,,66,75
134688,note_on,,,,,0,0,1,,,,,0,,,73,75
134688,note_off,,,,,96,0,1,,,,,0,,,78,0
134784,note_on,,,,,0,0,1,,,,,0,,,78,75
134784,note_off,,,,,384,0,7,,,,,6,,,51,0
134784,note_off,,,,,96,0,1,,,,,0,,,73,0
134784,note_on,,,,,0,0,4,,,,,3,,,66,88
134784,note_off,,,,,384,0,6,,,,,5,,,63,0
134784,note_off,,,,,192,0,4,,,,,3,,,69,0
134784,note_on,,,,,0,0,8,,,,,7,,,54,60
134784,note_on,,,,,0,0,3,,,,,2,,,69,94
134784,note_off,,,,,192,0,8,,,,,7,,,51,0
134784,note_off,,,,,192,0,5,,,,,4,,,66,0
134784,note_on,,,,,0,0,5,,,,,4,,,61,75
134784,note_off,,,,,384,0,2,,,,,1,,,69,0
134784,note_off,,,,,192,0,3,,,,,2,,,73,0
134880,note_off,,,,,96,0,1,,,,,0,,,78,0
134880,note_on,,,,,0,0,1,,,,,0,,,73,75
134976,note_off,,,,,96,0,1,,,,,0,,,73,0
134976,note_on,,,,,0,0,1,,,,,0,,,78,75
134976,note_on,,,,,192,0,2,,,,,1,,,69,75
134976,note_on,,,,,0,0,4,,,,,3,,,69,88
134976,note_off,,,,,192,0,8,,,,,7,,,54,0
134976,note_on,,,,,192,0,7,,,,,6,,,51,75
134976,note_off,,,,,192,0,4,,,,,3,,,66,0
134976,note_on,,,,,0,0,8,,,,,7,,,51,60
134976,note_on,,,,,0,0,5,,,,,4,,,66,75
134976,note_off,,,,,192,0,5,,,,,4,,,61,0
134976,note_on,,,,,192,0,6,,,,,5,,,63,75
134976,note_off,,,,,192,0,3,,,,,2,,,69,0
134976,note_on,,,,,0,0,3,,,,,2,,,66,94
135072,note_on,,,,,0,0,1,,,,,0,,,73,75
135072,note_off,,,,,96,0,1,,,,,0,,,78,0
135168,note_off,,,,,192,0,4,,,,,3,,,69,0
135168,note_on,,,,,0,0,4,,,,,3,,,60,88
135168,note_off,,,,,192,0,7,,,,,6,,,51,0
135168,note_on,,,,,0,0,7,,,,,6,,,48,75
135168,note_off,,,,,192,0,2,,,,,1,,,69,0
135168,note_on,,,,,0,0,1,,,,,0,,,78,75
135168,note_on,,,,,0,0,5,,,,,4,,,66,75
135168,note_on,,,,,0,0,3,,,,,2,,,63,94
135168,note_on,,,,,0,0,8,,,,,7,,,56,60
135168,note_off,,,,,192,0,8,,,,,7,,,51,0
135168,note_off,,,,,192,0,3,,,,,2,,,66,0
135168,note_off,,,,,192,0,6,,,,,5,,,63,0
135168,note_on,,,,,0,0,6,,,,,5,,,60,75
135168,note_off,,,,,192,0,5,,,,,4,,,66,0
135168,note_on,,,,,0,0,2,,,,,1,,,68,75
135168,note_off,,,,,96,0,1,,,,,0,,,73,0
135264,note_on,,,,,0,0,1,,,,,0,,,72,75
135264,note_off,,,,,96,0,1,,,,,0,,,78,0
135360,note_on,,,,,0,0,8,,,,,7,,,44,60
135360,note_off,,,,,192,0,8,,,,,7,,,56,0
135360,note_off,,,,,96,0,1,,,,,0,,,72,0
135360,note_on,,,,,0,0,1,,,,,0,,,78,75
135456,note_on,,,,,0,0,1,,,,,0,,,72,75
135456,note_off,,,,,96,0,1,,,,,0,,,78,0
135552,note_off,,,,,384,0,6,,,,,5,,,60,0
135552,note_on,,,,,0,0,1,,,,,0,,,78,75
135552,note_off,,,,,96,0,1,,,,,0,,,72,0
135552,note_off,,,,,384,0,5,,,,,4,,,66,0
135552,note_off,,,,,192,0,8,,,,,7,,,44,0
135552,note_on,,,,,0,0,8,,,,,7,,,48,60
135552,note_off,,,,,384,0,2,,,,,1,,,68,0
135552,note_off,,,,,384,0,3,,,,,2,,,63,0
135552,note_off,,,,,384,0,4,,,,,3,,,60,0
135552,note_off,,,,,384,0,7,,,,,6,,,48,0
135648,note_off,,,,,96,0,1,,,,,0,,,78,0
135648,note_on,,,,,0,0,1,,,,,0,,,72,75
135744,note_on,,,,,0,0,1,,,,,0,,,78,75
135744,note_on,,,,,0,0,8,,,,,7,,,44,60
135744,note_on,,,,,192,0,2,,,,,1,,,68,75
135744,note_on,,,,,192,0,3,,,,,2,,,75,94
135744,note_on,,,,,192,0,4,,,,,3,,,72,88
135744,note_off,,,,,96,0,1,,,,,0,,,72,0
135744,note_on,,,,,192,0,7,,,,,6,,,48,75
135744,note_on,,,,,192,0,5,,,,,4,,,66,75
135744,note_on,,,,,192,0,6,,,,,5,,,60,75
135744,note_off,,,,,192,0,8,,,,,7,,,48,0
135840,note_off,,,,,96,0,1,,,,,0,,,78,0
135840,note_on,,,,,0,0,1,,,,,0,,,72,75
135936,note_on,,,,,0,0,3,,,,,2,,,76,94
135936,note_off,,,,,192,0,3,,,,,2,,,75,0
135936,note_on,,,,,0,0,7,,,,,6,,,49,75
135936,note_off,,,,,192,0,2,,,,,1,,,68,0
135936,note_on,,,,,0,0,2,,,,,1,,,76,75
135936,note_on,,,,,0,0,6,,,,,5,,,61,75
135936,note_on,,,,,0,0,1,,,,,0,,,76,75
135936,note_off,,,,,192,0,6,,,,,5,,,60,0
135936,note_off,,,,,192,0,7,,,,,6,,,48,0
135936,note_on,,,,,0,0,5,,,,,4,,,64,75
135936,note_off,,,,,192,0,5,,,,,4,,,66,0
135936,note_off,,,,,192,0,4,,,,,3,,,72,0
135936,note_on,,,,,0,0,4,,,,,3,,,68,88
135936,note_on,,,,,0,0,8,,,,,7,,,49,60
135936,note_off,,,,,192,0,8,,,,,7,,,44,0
135936,note_off,,,,,96,0,1,,,,,0,,,72,0
136032,note_on,,,,,0,0,2,,,,,1,,,73,75
136032,note_off,,,,,96,0,3,,,,,2,,,76,0
136032,note_off,,,,,96,0,2,,,,,1,,,76,0
136032,note_off,,,,,96,0,1,,,,,0,,,76,0
136032,note_on,,,,,0,0,1,,,,,0,,,73,75
136032,note_on,,,,,0,0,3,,,,,2,,,73,94
136128,note_off,,,,,96,0,3,,,,,2,,,73,0
136128,note_on,,,,,0,0,4,,,,,3,,,72,88
136128,note_off,,,,,192,0,4,,,,,3,,,68,0
136128,note_off,,,,,192,0,8,,,,,7,,,49,0
136128,note_on,,,,,0,0,8,,,,,7,,,51,60
136128,note_off,,,,,192,0,5,,,,,4,,,64,0
136128,note_on,,,,,0,0,5,,,,,4,,,63,75
136128,note_off,,,,,96,0,2,,,,,1,,,73,0
136128,note_off,,,,,192,0,6,,,,,5,,,61,0
136128,note_off,,,,,96,0,1,,,,,0,,,73,0
136128,note_on,,,,,0,0,1,,,,,0,,,78,75
136128,note_on,,,,,0,0,6,,,,,5,,,63,75
136128,note_off,,,,,192,0,7,,,,,6,,,49,0
136128,note_on,,,,,0,0,7,,,,,6,,,51,75
136128,note_on,,,,,0,0,2,,,,,1,,,78,75
136128,note_on,,,,,0,0,3,,,,,2,,,78,94
136224,note_off,,,,,96,0,3,,,,,2,,,78,0
136224,note_on,,,,,0,0,3,,,,,2,,,73,94
136224,note_on,,,,,0,0,2,,,,,1,,,73,75
136224,note_off,,,,,96,0,2,,,,,1,,,78,0
136224,note_on,,,,,0,0,1,,,,,0,,,73,75
136224,note_off,,,,,96,0,1,,,,,0,,,78,0
136320,note_off,,,,,96,0,3,,,,,2,,,73,0
136320,note_on,,,,,0,0,2,,,,,1,,,80,75
136320,note_off,,,,,96,0,2,,,,,1,,,73,0
136320,note_off,,,,,192,0,6,,,,,5,,,63,0
136320,note_on,,,,,0,0,3,,,,,2,,,80,94
136320,note_on,,,,,0,0,8,,,,,7,,,52,60
136320,note_off,,,,,192,0,4,,,,,3,,,72,0
136320,note_on,,,,,0,0,4,,,,,3,,,73,88
136320,note_on,,,,,0,0,6,,,,,5,,,64,75
136320,note_on,,,,,0,0,1,,,,,0,,,80,75
136320,note_off,,,,,96,0,1,,,,,0,,,73,0
136320,note_off,,,,,192,0,7,,,,,6,,,51,0
136320,note_off,,,,,192,0,8,,,,,7,,,51,0
136320,note_on,,,,,0,0,5,,,,,4,,,61,75
136320,note_on,,,,,0,0,7,,,,,6,,,52,75
136320,note_off,,,,,192,0,5,,,,,4,,,63,0
136416,note_off,,,,,96,0,1,,,,,0,,,80,0
136416,note_on,,,,,0,0,1,,,,,0,,,73,75
136416,note_on,,,,,0,0,3,,,,,2,,,73,94
136416,note_off,,,,,96,0,3,,,,,2,,,80,0
136416,note_on,,,,,0,0,2,,,,,1,,,73,75
136416,note_off,,,,,96,0,2,,,,,1,,,80,0
136512,note_on,,,,,0,0,3,,,,,2,,,76,94
136512,note_off,,,,,96,0,3,,,,,2,,,73,0
136512,note_on,,,,,0,0,2,,,,,1,,,76,75
136512,note_off,,,,,96,0,2,,,,,1,,,73,0
136512,note_off,,,,,192,0,7,,,,,6,,,52,0
136512,note_off,,,,,192,0,6,,,,,5,,,64,0
136512,note_on,,,,,0,0,1,,,,,0,,,76,75
136512,note_off,,,,,96,0,1,,,,,0,,,73,0
136512,note_on,,,,,0,0,8,,,,,7,,,49,60
136512,note_off,,,,,192,0,8,,,,,7,,,52,0
136512,note_on,,,,,0,0,7,,,,,6,,,49,75
136512,note_on,,,,,0,0,6,,,,,5,,,61,75
136608,note_off,,,,,96,0,2,,,,,1,,,76,0
136608,note_off,,,,,96,0,1,,,,,0,,,76,0
136608,note_on,,,,,0,0,1,,,,,0,,,73,75
136608,note_on,,,,,0,0,2,,,,,1,,,73,75
136608,note_on,,,,,0,0,3,,,,,2,,,73,94
136608,note_off,,,,,96,0,3,,,,,2,,,76,0
136704,note_off,,,,,192,0,6,,,,,5,,,61,0
136704,note_off,,,,,192,0,7,,,,,6,,,49,0
136704,note_on,,,,,0,0,7,,,,,6,,,42,75
136704,note_off,,,,,192,0,8,,,,,7,,,49,0
136704,note_on,,,,,0,0,8,,,,,7,,,54,60
136704,note_on,,,,,0,0,6,,,,,5,,,54,75
136704,note_on,,,,,0,0,4,,,,,3,,,73,88
136704,note_on,,,,,0,0,3,,,,,2,,,81,94
136704,note_off,,,,,384,0,4,,,,,3,,,73,0
136704,note_off,,,,,96,0,2,,,,,1,,,73,0
136704,note_off,,,,,384,0,5,,,,,4,,,61,0
136704,note_on,,,,,0,0,5,,,,,4,,,61,75
136704,note_on,,,,,0,0,1,,,,,0,,,81,75
136704,note_off,,,,,96,0,1,,,,,0,,,73,0
136704,note_off,,,,,96,0,3,,,,,2,,,73,0
136704,note_on,,,,,0,0,2,,,,,1,,,81,75
136896,note_off,,,,,192,0,6,,,,,5,,,54,0
136896,note_on,,,,,0,0,6,,,,,5,,,56,75
136896,note_on,,,,,0,0,2,,,,,1,,,80,75
136896,note_off,,,,,192,0,3,,,,,2,,,81,0
136896,note_off,,,,,192,0,1,,,,,0,,,81,0
136896,note_off,,,,,192,0,2,,,,,1,,,81,0
136896,note_off,,,,,192,0,8,,,,,7,,,54,0
136896,note_on,,,,,0,0,8,,,,,7,,,56,60
136896,note_on,,,,,0,0,7,,,,,6,,,44,75
136896,note_off,,,,,192,0,7,,,,,6,,,42,0
136896,note_on,,,,,0,0,4,,,,,3,,,72,88
136896,note_on,,,,,0,0,1,,,,,0,,,80,75
136896,note_off,,,,,192,0,4,,,,,3,,,73,0
136896,note_on,,,,,0,0,3,,,,,2,,,80,94
137088,note_on,,,,,0,0,7,,,,,6,,,45,75
137088,note_off,,,,,192,0,7,,,,,6,,,44,0
137088,note_on,,,,,0,0,6,,,,,5,,,57,75
137088,note_on,,,,,0,0,2,,,,,1,,,78,75
137088,note_off,,,,,192,0,1,,,,,0,,,80,0
137088,note_on,,,,,0,0,1,,,,,0,,,78,75
137088,note_on,,,,,0,0,8,,,,,7,,,57,60
137088,note_off,,,,,192,0,8,,,,,7,,,56,0
137088,note_off,,,,,192,0,6,,,,,5,,,56,0
137088,note_off,,,,,384,0,5,,,,,4,,,61,0
137088,note_on,,,,,0,0,5,,,,,4,,,66,75
137088,note_off,,,,,192,0,2,,,,,1,,,80,0
137088,note_on,,,,,0,0,3,,,,,2,,,78,94
137088,note_off,,,,,192,0,3,,,,,2,,,80,0
137088,note_off,,,,,192,0,4,,,,,3,,,72,0
137088,note_on,,,,,0,0,4,,,,,3,,,73,88
137280,note_on,,,,,0,0,8,,,,,7,,,54,60
137280,note_off,,,,,192,0,4,,,,,3,,,73,0
137280,note_on,,,,,0,0,6,,,,,5,,,54,75
137280,note_on,,,,,0,0,4,,,,,3,,,75,88
137280,note_on,,,,,0,0,7,,,,,6,,,42,75
137280,note_off,,,,,192,0,7,,,,,6,,,45,0
137280,note_off,,,,,192,0,8,,,,,7,,,57,0
137280,note_off,,,,,192,0,6,,,,,5,,,57,0
137472,note_off,,,,,192,0,4,,,,,3,,,75,0
137472,note_on,,,,,0,0,7,,,,,6,,,44,75
137472,note_off,,,,,192,0,7,,,,,6,,,42,0
137472,note_off,,,,,192,0,8,,,,,7,,,54,0
137472,note_on,,,,,0,0,8,,,,,7,,,56,60
137472,note_off,,,,,192,0,6,,,,,5,,,54,0
137472,note_on,,,,,0,0,4,,,,,3,,,72,88
137472,note_on,,,,,0,0,6,,,,,5,,,56,75
137472,note_on,,,,,0,0,5,,,,,4,,,63,75
137472,note_off,,,,,384,0,5,,,,,4,,,66,0
137664,note_on,,,,,0,0,3,,,,,2,,,80,94
137664,note_on,,,,,0,0,5,,,,,4,,,68,75
137664,note_on,,,,,0,0,8,,,,,7,,,60,60
137664,note_off,,,,,192,0,5,,,,,4,,,63,0
137664,note_off,,,,,192,0,4,,,,,3,,,72,0
137664,note_on,,,,,0,0,4,,,,,3,,,75,88
137664,note_off,,,,,192,0,7,,,,,6,,,44,0
137664,note_on,,,,,0,0,7,,,,,6,,,48,75
137664,note_off,,,,,576,0,3,,,,,2,,,78,0
137664,note_on,,,,,0,0,2,,,,,1,,,80,75
137664,note_off,,,,,192,0,8,,,,,7,,,56,0
137664,note_off,,,,,576,0,2,,,,,1,,,78,0
137664,note_on,,,,,0,0,1,,,,,0,,,80,75
137664,note_on,,,,,0,0,6,,,,,5,,,60,75
137664,note_off,,,,,192,0,6,,,,,5,,,56,0
137664,note_off,,,,,576,0,1,,,,,0,,,78,0
137856,note_off,,,,,192,0,8,,,,,7,,,60,0
137856,note_on,,,,,0,0,1,,,,,0,,,76,75
137856,note_on,,,,,0,0,2,,,,,1,,,76,75
137856,note_on,,,,,0,0,5,,,,,4,,,68,75
137856,note_off,,,,,192,0,1,,,,,0,,,80,0
137856,note_on,,,,,0,0,3,,,,,2,,,76,94
137856,note_off,,,,,192,0,3,,,,,2,,,80,0
137856,note_on,,,,,0,0,8,,,,,7,,,61,60
137856,note_off,,,,,192,0,2,,,,,1,,,80,0
137856,note_off,,,,,192,0,5,,,,,4,,,68,0
137856,note_off,,,,,192,0,4,,,,,3,,,75,0
137856,note_on,,,,,0,0,6,,,,,5,,,61,75
137856,note_off,,,,,192,0,6,,,,,5,,,60,0
137856,note_off,,,,,192,0,7,,,,,6,,,48,0
137856,note_on,,,,,0,0,7,,,,,6,,,49,75
137856,note_on,,,,,0,0,4,,,,,3,,,73,88
138048,note_off,,,,,192,0,2,,,,,1,,,76,0
138048,note_on,,,,,0,0,8,,,,,7,,,54,60
138048,note_off,,,,,192,0,8,,,,,7,,,61,0
138048,note_on,,,,,0,0,5,,,,,4,,,69,75
138048,note_off,,,,,192,0,1,,,,,0,,,76,0
138048,note_off,,,,,192,0,5,,,,,4,,,68,0
138048,note_on,,,,,0,0,1,,,,,0,,,75,75
138048,note_off,,,,,192,0,3,,,,,2,,,76,0
138048,note_on,,,,,0,0,7,,,,,6,,,42,75
138048,note_off,,,,,192,0,7,,,,,6,,,49,0
138048,note_off,,,,,192,0,6,,,,,5,,,61,0
138048,note_on,,,,,0,0,6,,,,,5,,,54,75
138048,note_on,,,,,0,0,3,,,,,2,,,75,94
138048,note_on,,,,,0,0,2,,,,,1,,,75,75
138240,note_off,,,,,192,0,8,,,,,7,,,54,0
138240,note_off,,,,,192,0,5,,,,,4,,,69,0
138240,note_on,,,,,0,0,5,,,,,4,,,68,75
138240,note_on,,,,,0,0,8,,,,,7,,,56,60
138240,note_off,,,,,192,0,1,,,,,0,,,75,0
138240,note_on,,,,,0,0,1,,,,,0,,,76,75
138240,note_off,,,,,192,0,3,,,,,2,,,75,0
138240,note_on,,,,,0,0,2,,,,,1,,,76,75
138240,note_on,,,,,0,0,4,,,,,3,,,73,88
138240,note_off,,,,,384,0,4,,,,,3,,,73,0
138240,note_on,,,,,0,0,3,,,,,2,,,76,94
138240,note_on,,,,,0,0,7,,,,,6,,,44,75
138240,note_off,,,,,192,0,7,,,,,6,,,42,0
138240,note_off,,,,,192,0,6,,,,,5,,,54,0
138240,note_on,,,,,0,0,6,,,,,5,,,56,75
138240,note_off,,,,,192,0,2,,,,,1,,,75,0
138624,note_off,,,,,384,0,4,,,,,3,,,73,0
138624,note_off,,,,,384,0,1,,,,,0,,,76,0
138624,note_on,,,,,0,0,1,,,,,0,,,76,75
138624,note_on,,,,,0,0,2,,,,,1,,,76,75
138624,note_on,,,,,0,0,8,,,,,7,,,44,60
138624,note_off,,,,,384,0,5,,,,,4,,,68,0
138624,note_on,,,,,0,0,5,,,,,4,,,66,75
138624,note_on,,,,,0,0,7,,,,,6,,,32,75
138624,note_off,,,,,384,0,7,,,,,6,,,44,0
138624,note_off,,,,,384,0,6,,,,,5,,,56,0
138624,note_on,,,,,0,0,6,,,,,5,,,44,75
138624,note_off,,,,,384,0,8,,,,,7,,,56,0
138624,note_off,,,,,384,0,2,,,,,1,,,76,0
138624,note_off,,,,,384,0,3,,,,,2,,,76,0
138624,note_on,,,,,0,0,3,,,,,2,,,76,94
138624,note_on,,,,,0,0,4,,,,,3,,,72,88
138672,note_on,,,,,0,0,3,,,,,2,,,75,94
138672,note_on,,,,,0,0,2,,,,,1,,,75,75
138672,note_on,,,,,0,0,1,,,,,0,,,75,75
138672,note_off,,,,,48,0,1,,,,,0,,,76,0
138672,note_off,,,,,48,0,3,,,,,2,,,76,0
138672,note_off,,,,,48,0,2,,,,,1,,,76,0
138720,note_off,,,,,48,0,2,,,,,1,,,75,0
138720,note_on,,,,,0,0,2,,,,,1,,,76,75
138720,note_off,,,,,48,0,1,,,,,0,,,75,0
138720,note_on,,,,,0,0,1,,,,,0,,,76,75
138720,note_off,,,,,48,0,3,,,,,2,,,75,0
138720,note_on,,,,,0,0,3,,,,,2,,,76,94
138768,note_off,,,,,48,0,1,,,,,0,,,76,0
138768,note_on,,,,,0,0,1,,,,,0,,,75,75
138768,note_off,,,,,48,0,2,,,,,1,,,76,0
138768,note_on,,,,,0,0,3,,,,,2,,,75,94
138768,note_off,,,,,48,0,3,,,,,2,,,76,0
138768,note_on,,,,,0,0,2,,,,,1,,,75,75
138816,note_on,,,,,0,0,3,,,,,2,,,76,94
138816,note_on,,,,,0,0,1,,,,,0,,,76,75
138816,note_off,,,,,48,0,1,,,,,0,,,75,0
138816,note_off,,,,,48,0,2,,,,,1,,,75,0
138816,note_on,,,,,0,0,2,,,,,1,,,76,75
138816,note_off,,,,,48,0,3,,,,,2,,,75,0
138864,note_off,,,,,48,0,1,,,,,0,,,76,0
138864,note_on,,,,,0,0,3,,,,,2,,,75,94
138864,note_on,,,,,0,0,2,,,,,1,,,75,75
138864,note_off,,,,,48,0,3,,,,,2,,,76,0
138864,note_off,,,,,48,0,2,,,,,1,,,76,0
138864,note_on,,,,,0,0,1,,,,,0,,,75,75
138912,note_off,,,,,48,0,2,,,,,1,,,75,0
138912,note_on,,,,,0,0,2,,,,,1,,,73,75
138912,note_on,,,,,0,0,3,,,,,2,,,73,94
138912,note_off,,,,,48,0,3,,,,,2,,,75,0
138912,note_on,,,,,0,0,1,,,,,0,,,73,75
138912,note_off,,,,,48,0,1,,,,,0,,,75,0
139008,note_off,,,,,384,0,5,,,,,4,,,66,0
139008,note_on,,,,,0,0,7,,,,,6,,,37,75
139008,note_off,,,,,384,0,7,,,,,6,,,32,0
139008,note_on,,,,,0,0,5,,,,,4,,,64,75
139008,note_off,,,,,96,0,2,,,,,1,,,73,0
139008,note_on,,,,,0,0,2,,,,,1,,,73,75
139008,note_off,,,,,384,0,6,,,,,5,,,44,0
139008,note_on,,,,,0,0,6,,,,,5,,,49,75
139008,note_off,,,,,96,0,1,,,,,0,,,73,0
139008,note_off,,,,,384,0,4,,,,,3,,,72,0
139008,note_on,,,,,0,0,1,,,,,0,,,73,75
139008,note_off,,,,,96,0,3,,,,,2,,,73,0
139008,note_on,,,,,0,0,3,,,,,2,,,73,94
139008,note_off,,,,,384,0,8,,,,,7,,,44,0
139008,note_on,,,,,0,0,8,,,,,7,,,49,60
139008,note_on,,,,,0,0,4,,,,,3,,,73,88
139392,note_off,,,,,384,0,7,,,,,6,,,37,0
139392,note_off,,,,,384,0,1,,,,,0,,,73,0
139392,note_off,,,,,384,0,5,,,,,4,,,64,0
139392,note_off,,,,,384,0,8,,,,,7,,,49,0
139392,note_off,,,,,384,0,3,,,,,2,,,73,0
139392,note_off,,,,,384,0,2,,,,,1,,,73,0
139392,note_off,,,,,384,0,6,,,,,5,,,49,0
139392,note_off,,,,,384,0,4,,,,,3,,,73,0
139776,note_on,,,,,384,0,8,,,,,7,,,58,60
139776,note_on,,,,,384,0,3,,,,,2,,,73,94
139776,note_on,,,,,384,0,5,,,,,4,,,61,75
139776,note_on,,,,,384,0,4,,,,,3,,,66,88
140160,note_on,,,,,0,0,8,,,,,7,,,54,60
140160,note_on,,,,,0,0,4,,,,,3,,,70,88
140160,note_off,,,,,384,0,4,,,,,3,,,66,0
140160,note_off,,,,,384,0,8,,,,,7,,,58,0
140160,note_on,,,,,0,0,3,,,,,2,,,78,94
140160,note_off,,,,,384,0,3,,,,,2,,,73,0
140160,note_off,,,,,384,0,5,,,,,4,,,61,0
140160,note_on,,,,,0,0,5,,,,,4,,,61,75
140352,note_off,,,,,192,0,8,,,,,7,,,54,0
140352,note_on,,,,,0,0,4,,,,,3,,,73,88
140352,note_off,,,,,192,0,4,,,,,3,,,70,0
140352,note_on,,,,,0,0,5,,,,,4,,,66,75
140352,note_off,,,,,192,0,5,,,,,4,,,61,0
140352,note_on,,,,,0,0,8,,,,,7,,,58,60
140352,note_on,,,,,0,0,3,,,,,2,,,73,94
140352,note_off,,,,,192,0,3,,,,,2,,,78,0
140544,note_off,,,,,192,0,3,,,,,2,,,73,0
140544,note_off,,,,,192,0,5,,,,,4,,,66,0
140544,note_on,,,,,0,0,5,,,,,4,,,71,75
140544,note_on,,,,,0,0,3,,,,,2,,,74,94
140544,note_on,,,,,0,0,8,,,,,7,,,59,60
140544,note_off,,,,,192,0,8,,,,,7,,,58,0
140544,note_off,,,,,192,0,4,,,,,3,,,73,0
140544,note_on,,,,,0,0,4,,,,,3,,,66,88
140736,note_on,,,,,0,0,4,,,,,3,,,71,88
140736,note_on,,,,,0,0,5,,,,,4,,,74,75
140736,note_off,,,,,192,0,3,,,,,2,,,74,0
140736,note_on,,,,,0,0,3,,,,,2,,,78,94
140736,note_off,,,,,192,0,4,,,,,3,,,66,0
140736,note_off,,,,,192,0,5,,,,,4,,,71,0
140928,note_off,,,,,192,0,5,,,,,4,,,74,0
140928,note_on,,,,,0,0,5,,,,,4,,,66,75
140928,note_on,,,,,0,0,3,,,,,2,,,71,94
140928,note_off,,,,,384,0,8,,,,,7,,,59,0
140928,note_off,,,,,192,0,3,,,,,2,,,78,0
140928,note_off,,,,,192,0,4,,,,,3,,,71,0
140928,note_on,,,,,0,0,4,,,,,3,,,62,88
140928,note_on,,,,,0,0,8,,,,,7,,,47,60
141312,note_off,,,,,384,0,8,,,,,7,,,47,0
141312,note_off,,,,,384,0,3,,,,,2,,,71,0
141312,note_on,,,,,1920,0,1,,,,,0,,,73,75
141312,note_off,,,,,384,0,5,,,,,4,,,66,0
141312,note_off,,,,,384,0,4,,,,,3,,,62,0
141312,note_on,,,,,1920,0,7,,,,,6,,,46,75
141312,note_on,,,,,1920,0,6,,,,,5,,,58,75
141312,note_on,,,,,1920,0,2,,,,,1,,,66,75
141696,note_off,,,,,384,0,2,,,,,1,,,66,0
141696,note_on,,,,,0,0,2,,,,,1,,,70,75
141696,note_off,,,,,384,0,7,,,,,6,,,46,0
141696,note_on,,,,,0,0,6,,,,,5,,,54,75
141696,note_on,,,,,0,0,7,,,,,6,,,42,75
141696,note_on,,,,,0,0,1,,,,,0,,,78,75
141696,note_off,,,,,384,0,1,,,,,0,,,73,0
141696,note_off,,,,,384,0,6,,,,,5,,,58,0
141888,note_off,,,,,192,0,2,,,,,1,,,70,0
141888,note_on,,,,,0,0,2,,,,,1,,,73,75
141888,note_on,,,,,0,0,1,,,,,0,,,73,75
141888,note_off,,,,,192,0,6,,,,,5,,,54,0
141888,note_off,,,,,192,0,1,,,,,0,,,78,0
141888,note_off,,,,,192,0,7,,,,,6,,,42,0
141888,note_on,,,,,0,0,7,,,,,6,,,46,75
141888,note_on,,,,,0,0,6,,,,,5,,,58,75
142080,note_on,,,,,0,0,7,,,,,6,,,47,75
142080,note_off,,,,,192,0,7,,,,,6,,,46,0
142080,note_on,,,,,0,0,6,,,,,5,,,59,75
142080,note_off,,,,,192,0,6,,,,,5,,,58,0
142080,note_on,,,,,0,0,2,,,,,1,,,66,75
142080,note_off,,,,,192,0,1,,,,,0,,,73,0
142080,note_on,,,,,0,0,1,,,,,0,,,74,75
142080,note_off,,,,,192,0,2,,,,,1,,,73,0
142272,note_off,,,,,192,0,2,,,,,1,,,66,0
142272,note_on,,,,,0,0,2,,,,,1,,,71,75
142272,note_off,,,,,192,0,1,,,,,0,,,74,0
142272,note_on,,,,,0,0,1,,,,,0,,,78,75
142464,note_off,,,,,192,0,1,,,,,0,,,78,0
142464,note_on,,,,,0,0,6,,,,,5,,,47,75
142464,note_on,,,,,0,0,7,,,,,6,,,35,75
142464,note_off,,,,,384,0,7,,,,,6,,,47,0
142464,note_off,,,,,192,0,2,,,,,1,,,71,0
142464,note_on,,,,,0,0,2,,,,,1,,,62,75
142464,note_off,,,,,384,0,6,,,,,5,,,59,0
142464,note_on,,,,,0,0,1,,,,,0,,,71,75
142848,note_off,,,,,384,0,2,,,,,1,,,62,0
142848,note_on,,,,,1536,0,4,,,,,3,,,64,88
142848,note_on,,,,,1536,0,5,,,,,4,,,59,75
142848,note_on,,,,,1536,0,8,,,,,7,,,56,60
142848,note_off,,,,,384,0,1,,,,,0,,,71,0
142848,note_on,,,,,1536,0,3,,,,,2,,,71,94
142848,note_off,,,,,384,0,6,,,,,5,,,47,0
142848,note_off,,,,,384,0,7,,,,,6,,,35,0
143232,note_on,,,,,0,0,4,,,,,3,,,68,88
143232,note_on,,,,,0,0,3,,,,,2,,,76,94
143232,note_off,,,,,384,0,3,,,,,2,,,71,0
143232,note_off,,,,,384,0,4,,,,,3,,,64,0
143232,note_on,,,,,0,0,8,,,,,7,,,52,60
143232,note_off,,,,,384,0,8,,,,,7,,,56,0
143232,note_on,,,,,0,0,5,,,,,4,,,59,75
143232,note_off,,,,,384,0,5,,,,,4,,,59,0
143424,note_off,,,,,192,0,8,,,,,7,,,52,0
143424,note_off,,,,,192,0,5,,,,,4,,,59,0
143424,note_on,,,,,0,0,8,,,,,7,,,56,60
143424,note_off,,,,,192,0,4,,,,,3,,,68,0
143424,note_on,,,,,0,0,4,,,,,3,,,71,88
143424,note_on,,,,,0,0,5,,,,,4,,,64,75
143424,note_on,,,,,0,0,3,,,,,2,,,71,94
143424,note_off,,,,,192,0,3,,,,,2,,,76,0
143616,note_off,,,,,192,0,5,,,,,4,,,64,0
143616,note_off,,,,,192,0,3,,,,,2,,,71,0
143616,note_off,,,,,192,0,4,,,,,3,,,71,0
143616,note_on,,,,,0,0,4,,,,,3,,,64,88
143616,note_on,,,,,0,0,5,,,,,4,,,69,75
143616,note_on,,,,,0,0,8,,,,,7,,,57,60
143616,note_off,,,,,192,0,8,,,,,7,,,56,0
143616,note_on,,,,,0,0,3,,,,,2,,,73,94
143808,note_off,,,,,192,0,5,,,,,4,,,69,0
143808,note_on,,,,,0,0,3,,,,,2,,,76,94
143808,note_off,,,,,192,0,4,,,,,3,,,64,0
143808,note_on,,,,,0,0,5,,,,,4,,,73,75
143808,note_on,,,,,0,0,4,,,,,3,,,69,88
143808,note_off,,,,,192,0,3,,,,,2,,,73,0
144000,note_on,,,,,0,0,5,,,,,4,,,64,75
144000,note_on,,,,,0,0,8,,,,,7,,,45,60
144000,note_on,,,,,0,0,4,,,,,3,,,61,88
144000,note_off,,,,,192,0,5,,,,,4,,,73,0
144000,note_on,,,,,0,0,3,,,,,2,,,69,94
144000,note_off,,,,,192,0,3,,,,,2,,,76,0
144000,note_off,,,,,384,0,8,,,,,7,,,57,0
144000,note_off,,,,,192,0,4,,,,,3,,,69,0
144384,note_off,,,,,384,0,8,,,,,7,,,45,0
144384,note_on,,,,,1536,0,2,,,,,1,,,64,75
144384,note_on,,,,,1536,0,6,,,,,5,,,56,75
144384,note_on,,,,,1536,0,1,,,,,0,,,71,75
144384,note_off,,,,,384,0,5,,,,,4,,,64,0
144384,note_on,,,,,1536,0,7,,,,,6,,,44,75
144384,note_off,,,,,384,0,4,,,,,3,,,61,0
144384,note_off,,,,,384,0,3,,,,,2,,,69,0
144768,note_off,,,,,384,0,6,,,,,5,,,56,0
144768,note_on,,,,,0,0,2,,,,,1,,,68,75
144768,note_off,,,,,384,0,2,,,,,1,,,64,0
144768,note_on,,,,,0,0,7,,,,,6,,,40,75
144768,note_off,,,,,384,0,1,,,,,0,,,71,0
144768,note_on,,,,,0,0,1,,,,,0,,,76,75
144768,note_on,,,,,0,0,6,,,,,5,,,52,75
144768,note_off,,,,,384,0,7,,,,,6,,,44,0
144960,note_off,,,,,192,0,6,,,,,5,,,52,0
144960,note_on,,,,,0,0,2,,,,,1,,,71,75
144960,note_off,,,,,192,0,2,,,,,1,,,68,0
144960,note_on,,,,,0,0,6,,,,,5,,,56,75
144960,note_on,,,,,0,0,1,,,,,0,,,71,75
144960,note_off,,,,,192,0,1,,,,,0,,,76,0
144960,note_off,,,,,192,0,7,,,,,6,,,40,0
144960,note_on,,,,,0,0,7,,,,,6,,,44,75
145152,note_off,,,,,192,0,2,,,,,1,,,71,0
145152,note_off,,,,,192,0,6,,,,,5,,,56,0
145152,note_on,,,,,0,0,1,,,,,0,,,73,75
145152,note_off,,,,,192,0,1,,,,,0,,,71,0
145152,note_off,,,,,192,0,7,,,,,6,,,44,0
145152,note_on,,,,,0,0,7,,,,,6,,,45,75
145152,note_on,,,,,0,0,6,,,,,5,,,57,75
145152,note_on,,,,,0,0,2,,,,,1,,,64,75
145344,note_on,,,,,0,0,2,,,,,1,,,69,75
145344,note_off,,,,,192,0,2,,,,,1,,,64,0
145344,note_off,,,,,192,0,1,,,,,0,,,73,0
145344,note_on,,,,,0,0,1,,,,,0,,,76,75
145536,note_off,,,,,384,0,6,,,,,5,,,57,0
145536,note_off,,,,,192,0,2,,,,,1,,,69,0
145536,note_off,,,,,384,0,7,,,,,6,,,45,0
145536,note_on,,,,,0,0,7,,,,,6,,,33,75
145536,note_on,,,,,0,0,6,,,,,5,,,45,75
145536,note_on,,,,,0,0,2,,,,,1,,,61,75
145536,note_on,,,,,0,0,1,,,,,0,,,69,75
145536,note_off,,,,,192,0,1,,,,,0,,,76,0
145920,note_off,,,,,384,0,2,,,,,1,,,61,0
145920,note_on,,,,,0,0,1,,,,,0,,,69,75
145920,note_on,,,,,1536,0,5,,,,,4,,,61,75
145920,note_on,,,,,1536,0,3,,,,,2,,,69,94
145920,note_on,,,,,1536,0,4,,,,,3,,,69,88
145920,note_off,,,,,384,0,6,,,,,5,,,45,0
145920,note_on,,,,,0,0,2,,,,,1,,,69,75
145920,note_on,,,,,0,0,6,,,,,5,,,57,75
145920,note_on,,,,,0,0,7,,,,,6,,,45,75
145920,note_off,,,,,384,0,1,,,,,0,,,69,0
145920,note_on,,,,,1536,0,8,,,,,7,,,57,60
145920,note_off,,,,,384,0,7,,,,,6,,,33,0
146304,note_on,,,,,0,0,1,,,,,0,,,71,75
146304,note_off,,,,,384,0,3,,,,,2,,,69,0
146304,note_on,,,,,0,0,3,,,,,2,,,71,94
146304,note_off,,,,,384,0,4,,,,,3,,,69,0
146304,note_on,,,,,0,0,4,,,,,3,,,64,88
146304,note_off,,,,,384,0,5,,,,,4,,,61,0
146304,note_on,,,,,0,0,5,,,,,4,,,64,75
146304,note_on,,,,,0,0,8,,,,,7,,,56,60
146304,note_off,,,,,384,0,7,,,,,6,,,45,0
146304,note_off,,,,,384,0,1,,,,,0,,,69,0
146304,note_on,,,,,0,0,2,,,,,1,,,64,75
146304,note_off,,,,,384,0,2,,,,,1,,,69,0
146304,note_on,,,,,0,0,7,,,,,6,,,44,75
146304,note_off,,,,,384,0,8,,,,,7,,,57,0
146304,note_off,,,,,384,0,6,,,,,5,,,57,0
146304,note_on,,,,,0,0,6,,,,,5,,,56,75
146496,note_on,,,,,0,0,5,,,,,4,,,64,75
146496,note_off,,,,,192,0,1,,,,,0,,,71,0
146496,note_off,,,,,192,0,5,,,,,4,,,64,0
146496,note_on,,,,,0,0,1,,,,,0,,,73,75
146496,note_on,,,,,0,0,7,,,,,6,,,40,75
146496,note_on,,,,,0,0,3,,,,,2,,,73,94
146496,note_on,,,,,0,0,8,,,,,7,,,52,60
146496,note_on,,,,,0,0,6,,,,,5,,,52,75
146496,note_off,,,,,192,0,3,,,,,2,,,71,0
146496,note_off,,,,,192,0,8,,,,,7,,,56,0
146496,note_on,,,,,0,0,4,,,,,3,,,68,88
146496,note_off,,,,,192,0,4,,,,,3,,,64,0
146496,note_off,,,,,192,0,6,,,,,5,,,56,0
146496,note_on,,,,,0,0,2,,,,,1,,,68,75
146496,note_off,,,,,192,0,2,,,,,1,,,64,0
146496,note_off,,,,,192,0,7,,,,,6,,,44,0
146688,note_off,,,,,192,0,7,,,,,6,,,40,0
146688,note_on,,,,,0,0,7,,,,,6,,,42,75
146688,note_off,,,,,192,0,4,,,,,3,,,68,0
146688,note_on,,,,,0,0,2,,,,,1,,,69,75
146688,note_on,,,,,0,0,1,,,,,0,,,74,75
146688,note_off,,,,,192,0,2,,,,,1,,,68,0
146688,note_on,,,,,0,0,5,,,,,4,,,62,75
146688,note_off,,,,,192,0,5,,,,,4,,,64,0
146688,note_on,,,,,0,0,4,,,,,3,,,69,88
146688,note_on,,,,,0,0,6,,,,,5,,,54,75
146688,note_off,,,,,192,0,6,,,,,5,,,52,0
146688,note_off,,,,,192,0,1,,,,,0,,,73,0
146688,note_on,,,,,0,0,8,,,,,7,,,54,60
146688,note_off,,,,,192,0,3,,,,,2,,,73,0
146688,note_on,,,,,0,0,3,,,,,2,,,74,94
146688,note_off,,,,,192,0,8,,,,,7,,,52,0
146880,note_off,,,,,192,0,8,,,,,7,,,54,0
146880,note_off,,,,,192,0,3,,,,,2,,,74,0
146880,note_on,,,,,0,0,3,,,,,2,,,71,94
146880,note_off,,,,,192,0,2,,,,,1,,,69,0
146880,note_on,,,,,0,0,2,,,,,1,,,64,75
146880,note_on,,,,,0,0,7,,,,,6,,,44,75
146880,note_off,,,,,192,0,7,,,,,6,,,42,0
146880,note_off,,,,,192,0,1,,,,,0,,,74,0
146880,note_on,,,,,0,0,1,,,,,0,,,71,75
146880,note_on,,,,,0,0,5,,,,,4,,,62,75
146880,note_off,,,,,192,0,4,,,,,3,,,69,0
146880,note_off,,,,,192,0,5,,,,,4,,,62,0
146880,note_on,,,,,0,0,8,,,,,7,,,56,60
146880,note_off,,,,,192,0,6,,,,,5,,,54,0
146880,note_on,,,,,0,0,6,,,,,5,,,56,75
146880,note_on,,,,,0,0,4,,,,,3,,,64,88
147072,note_off,,,,,192,0,4,,,,,3,,,64,0
147072,note_off,,,,,192,0,3,,,,,2,,,71,0
147072,note_off,,,,,192,0,7,,,,,6,,,44,0
147072,note_on,,,,,0,0,7,,,,,6,,,45,75
147072,note_off,,,,,192,0,1,,,,,0,,,71,0
147072,note_on,,,,,0,0,1,,,,,0,,,73,75
147072,note_on,,,,,0,0,2,,,,,1,,,64,75
147072,note_off,,,,,192,0,2,,,,,1,,,64,0
147072,note_on,,,,,0,0,6,,,,,5,,,57,75
147072,note_off,,,,,192,0,6,,,,,5,,,56,0
147072,note_on,,,,,0,0,5,,,,,4,,,61,75
147072,note_off,,,,,192,0,5,,,,,4,,,62,0
147072,note_on,,,,,0,0,4,,,,,3,,,64,88
147072,note_on,,,,,0,0,8,,,,,7,,,57,60
147072,note_off,,,,,192,0,8,,,,,7,,,56,0
147072,note_on,,,,,0,0,3,,,,,2,,,73,94
147456,note_off,,,,,384,0,2,,,,,1,,,64,0
147456,note_on,,,,,0,0,2,,,,,1,,,69,75
147456,note_on,,,,,0,0,7,,,,,6,,,37,75
147456,note_off,,,,,384,0,7,,,,,6,,,45,0
147456,note_on,,,,,0,0,6,,,,,5,,,49,75
147456,note_off,,,,,384,0,6,,,,,5,,,57,0
147456,note_off,,,,,384,0,1,,,,,0,,,73,0
147456,note_on,,,,,0,0,3,,,,,2,,,76,94
147456,note_off,,,,,384,0,8,,,,,7,,,57,0
147456,note_on,,,,,0,0,8,,,,,7,,,49,60
147456,note_off,,,,,384,0,5,,,,,4,,,61,0
147456,note_on,,,,,0,0,5,,,,,4,,,61,75
147456,note_off,,,,,384,0,3,,,,,2,,,73,0
147456,note_off,,,,,384,0,4,,,,,3,,,64,0
147456,note_on,,,,,0,0,1,,,,,0,,,76,75
147456,note_on,,,,,0,0,4,,,,,3,,,69,88
147840,note_off,,,,,384,0,7,,,,,6,,,37,0
147840,note_on,,,,,0,0,7,,,,,6,,,42,75
147840,note_on,,,,,0,0,6,,,,,5,,,54,75
147840,note_off,,,,,384,0,1,,,,,0,,,76,0
147840,note_on,,,,,0,0,1,,,,,0,,,74,75
147840,note_on,,,,,0,0,5,,,,,4,,,57,75
147840,note_off,,,,,384,0,5,,,,,4,,,61,0
147840,note_off,,,,,384,0,8,,,,,7,,,49,0
147840,note_on,,,,,0,0,8,,,,,7,,,54,60
147840,note_off,,,,,384,0,6,,,,,5,,,49,0
147840,note_on,,,,,0,0,3,,,,,2,,,74,94
147840,note_off,,,,,384,0,3,,,,,2,,,76,0
147936,note_on,,,,,0,0,1,,,,,0,,,73,75
147936,note_off,,,,,96,0,1,,,,,0,,,74,0
147936,note_off,,,,,96,0,3,,,,,2,,,74,0
147936,note_on,,,,,0,0,3,,,,,2,,,73,94
148032,note_on,,,,,0,0,4,,,,,3,,,66,88
148032,note_off,,,,,192,0,8,,,,,7,,,54,0
148032,note_off,,,,,96,0,3,,,,,2,,,73,0
148032,note_on,,,,,0,0,2,,,,,1,,,66,75
148032,note_off,,,,,576,0,4,,,,,3,,,69,0
148032,note_on,,,,,0,0,5,,,,,4,,,59,75
148032,note_off,,,,,192,0,5,,,,,4,,,57,0
148032,note_on,,,,,0,0,3,,,,,2,,,71,94
148032,note_off,,,,,96,0,1,,,,,0,,,73,0
148032,note_off,,,,,576,0,2,,,,,1,,,69,0
148032,note_on,,,,,0,0,8,,,,,7,,,50,60
148032,note_on,,,,,0,0,1,,,,,0,,,71,75
148032,note_on,,,,,0,0,7,,,,,6,,,38,75
148032,note_off,,,,,192,0,7,,,,,6,,,42,0
148032,note_off,,,,,192,0,6,,,,,5,,,54,0
148032,note_on,,,,,0,0,6,,,,,5,,,50,75
148128,note_off,,,,,96,0,1,,,,,0,,,71,0
148128,note_on,,,,,0,0,1,,,,,0,,,69,75
148128,note_on,,,,,0,0,3,,,,,2,,,69,94
148128,note_off,,,,,96,0,3,,,,,2,,,71,0
148224,note_on,,,,,0,0,4,,,,,3,,,59,88
148224,note_on,,,,,0,0,2,,,,,1,,,59,75
148224,note_off,,,,,192,0,8,,,,,7,,,50,0
148224,note_on,,,,,0,0,8,,,,,7,,,52,60
148224,note_off,,,,,96,0,3,,,,,2,,,69,0
148224,note_off,,,,,192,0,4,,,,,3,,,66,0
148224,note_off,,,,,192,0,2,,,,,1,,,66,0
148224,note_off,,,,,192,0,6,,,,,5,,,50,0
148224,note_on,,,,,0,0,6,,,,,5,,,52,75
148224,note_on,,,,,0,0,5,,,,,4,,,64,75
148224,note_off,,,,,192,0,5,,,,,4,,,59,0
148224,note_on,,,,,0,0,3,,,,,2,,,68,94
148224,note_on,,,,,0,0,7,,,,,6,,,40,75
148224,note_off,,,,,192,0,7,,,,,6,,,38,0
148224,note_off,,,,,96,0,1,,,,,0,,,69,0
148224,note_on,,,,,0,0,1,,,,,0,,,68,75
148320,note_on,,,,,0,0,3,,,,,2,,,69,94
148320,note_off,,,,,96,0,3,,,,,2,,,68,0
148320,note_off,,,,,96,0,1,,,,,0,,,68,0
148320,note_on,,,,,0,0,1,,,,,0,,,69,75
148416,note_on,,,,,0,0,8,,,,,7,,,40,60
148416,note_off,,,,,192,0,4,,,,,3,,,59,0
148416,note_on,,,,,0,0,4,,,,,3,,,64,88
148416,note_off,,,,,192,0,2,,,,,1,,,59,0
148416,note_on,,,,,0,0,2,,,,,1,,,64,75
148416,note_on,,,,,0,0,5,,,,,4,,,59,75
148416,note_off,,,,,192,0,5,,,,,4,,,64,0
148416,note_off,,,,,192,0,8,,,,,7,,,52,0
148416,note_off,,,,,192,0,6,,,,,5,,,52,0
148416,note_on,,,,,0,0,6,,,,,5,,,40,75
148416,note_on,,,,,0,0,3,,,,,2,,,71,94
148416,note_off,,,,,96,0,3,,,,,2,,,69,0
148416,note_on,,,,,0,0,7,,,,,6,,,28,75
148416,note_off,,,,,192,0,7,,,,,6,,,40,0
148416,note_on,,,,,0,0,1,,,,,0,,,71,75
148416,note_off,,,,,96,0,1,,,,,0,,,69,0
148608,note_off,,,,,192,0,3,,,,,2,,,71,0
148608,note_off,,,,,192,0,7,,,,,6,,,28,0
148608,note_off,,,,,192,0,5,,,,,4,,,59,0
148608,note_off,,,,,192,0,8,,,,,7,,,40,0
148608,note_off,,,,,192,0,6,,,,,5,,,40,0
148608,note_on,,,,,0,0,5,,,,,4,,,64,75
148608,note_off,,,,,192,0,1,,,,,0,,,71,0
148608,note_off,,,,,192,0,4,,,,,3,,,64,0
148608,note_off,,,,,192,0,2,,,,,1,,,64,0
148608,note_on,,,,,0,0,2,,,,,1,,,68,75
148608,note_on,,,,,0,0,4,,,,,3,,,68,88
148800,note_on,,,,,0,0,5,,,,,4,,,68,75
148800,note_off,,,,,192,0,5,,,,,4,,,64,0
148800,note_off,,,,,192,0,2,,,,,1,,,68,0
148800,note_on,,,,,0,0,2,,,,,1,,,71,75
148800,note_on,,,,,0,0,4,,,,,3,,,71,88
148800,note_off,,,,,192,0,4,,,,,3,,,68,0
148992,note_on,,,,,0,0,5,,,,,4,,,64,75
148992,note_on,,,,,384,0,1,,,,,0,,,71,75
148992,note_on,,,,,0,0,2,,,,,1,,,68,75
148992,note_off,,,,,192,0,2,,,,,1,,,71,0
148992,note_on,,,,,384,0,7,,,,,6,,,40,75
148992,note_on,,,,,384,0,8,,,,,7,,,52,60
148992,note_on,,,,,0,0,4,,,,,3,,,68,88
148992,note_on,,,,,384,0,6,,,,,5,,,52,75
148992,note_off,,,,,192,0,5,,,,,4,,,68,0
148992,note_on,,,,,384,0,3,,,,,2,,,71,94
148992,note_off,,,,,192,0,4,,,,,3,,,71,0
149376,note_on,,,,,0,0,2,,,,,1,,,69,75
149376,note_on,,,,,0,0,3,,,,,2,,,73,94
149376,note_off,,,,,384,0,5,,,,,4,,,64,0
149376,note_on,,,,,0,0,5,,,,,4,,,64,75
149376,note_off,,,,,384,0,8,,,,,7,,,52,0
149376,note_on,,,,,0,0,1,,,,,0,,,73,75
149376,note_off,,,,,384,0,1,,,,,0,,,71,0
149376,note_off,,,,,384,0,6,,,,,5,,,52,0
149376,note_on,,,,,0,0,6,,,,,5,,,64,75
149376,note_on,,,,,0,0,7,,,,,6,,,52,75
149376,note_off,,,,,384,0,7,,,,,6,,,40,0
149376,note_off,,,,,384,0,3,,,,,2,,,71,0
149376,note_on,,,,,0,0,8,,,,,7,,,64,60
149376,note_off,,,,,384,0,2,,,,,1,,,68,0
149376,note_off,,,,,384,0,4,,,,,3,,,68,0
149376,note_on,,,,,0,0,4,,,,,3,,,69,88
149568,note_off,,,,,192,0,1,,,,,0,,,73,0
149568,note_off,,,,,192,0,6,,,,,5,,,64,0
149568,note_off,,,,,192,0,5,,,,,4,,,64,0
149568,note_on,,,,,0,0,5,,,,,4,,,68,75
149568,note_on,,,,,0,0,6,,,,,5,,,62,75
149568,note_off,,,,,192,0,4,,,,,3,,,69,0
149568,note_on,,,,,0,0,4,,,,,3,,,71,88
149568,note_off,,,,,192,0,2,,,,,1,,,69,0
149568,note_on,,,,,0,0,1,,,,,0,,,74,75
149568,note_on,,,,,0,0,2,,,,,1,,,71,75
149568,note_off,,,,,192,0,7,,,,,6,,,52,0
149568,note_on,,,,,0,0,7,,,,,6,,,50,75
149568,note_on,,,,,0,0,3,,,,,2,,,74,94
149568,note_off,,,,,192,0,3,,,,,2,,,73,0
149568,note_on,,,,,0,0,8,,,,,7,,,62,60
149568,note_off,,,,,192,0,8,,,,,7,,,64,0
149760,note_on,,,,,0,0,3,,,,,2,,,76,94
149760,note_on,,,,,0,0,2,,,,,1,,,64,75
149760,note_off,,,,,192,0,7,,,,,6,,,50,0
149760,note_off,,,,,192,0,5,,,,,4,,,68,0
149760,note_on,,,,,0,0,5,,,,,4,,,69,75
149760,note_on,,,,,0,0,7,,,,,6,,,49,75
149760,note_on,,,,,0,0,8,,,,,7,,,61,60
149760,note_off,,,,,192,0,8,,,,,7,,,62,0
149760,note_off,,,,,192,0,4,,,,,3,,,71,0
149760,note_on,,,,,0,0,4,,,,,3,,,64,88
149760,note_off,,,,,192,0,6,,,,,5,,,62,0
149760,note_on,,,,,0,0,6,,,,,5,,,61,75
149760,note_off,,,,,192,0,1,,,,,0,,,74,0
149760,note_on,,,,,0,0,1,,,,,0,,,76,75
149760,note_off,,,,,192,0,3,,,,,2,,,74,0
149760,note_off,,,,,192,0,2,,,,,1,,,71,0
149952,note_off,,,,,192,0,6,,,,,5,,,61,0
149952,note_on,,,,,0,0,6,,,,,5,,,54,75
149952,note_on,,,,,0,0,3,,,,,2,,,73,94
149952,note_off,,,,,192,0,3,,,,,2,,,76,0
149952,note_on,,,,,0,0,8,,,,,7,,,54,60
149952,note_off,,,,,192,0,7,,,,,6,,,49,0
149952,note_off,,,,,192,0,2,,,,,1,,,64,0
149952,note_on,,,,,0,0,2,,,,,1,,,69,75
149952,note_on,,,,,0,0,1,,,,,0,,,73,75
149952,note_off,,,,,192,0,1,,,,,0,,,76,0
149952,note_on,,,,,0,0,7,,,,,6,,,42,75
149952,note_off,,,,,192,0,4,,,,,3,,,64,0
149952,note_on,,,,,0,0,4,,,,,3,,,69,88
149952,note_off,,,,,192,0,8,,,,,7,,,61,0
150144,note_off,,,,,192,0,6,,,,,5,,,54,0
150144,note_off,,,,,192,0,3,,,,,2,,,73,0
150144,note_on,,,,,0,0,3,,,,,2,,,74,94
150144,note_off,,,,,192,0,8,,,,,7,,,54,0
150144,note_on,,,,,0,0,8,,,,,7,,,59,60
150144,note_on,,,,,0,0,1,,,,,0,,,74,75
150144,note_on,,,,,0,0,6,,,,,5,,,59,75
150144,note_off,,,,,192,0,1,,,,,0,,,73,0
150144,note_on,,,,,0,0,4,,,,,3,,,66,88
150144,note_off,,,,,192,0,4,,,,,3,,,69,0
150144,note_off,,,,,192,0,7,,,,,6,,,42,0
150144,note_on,,,,,0,0,2,,,,,1,,,66,75
150144,note_off,,,,,192,0,2,,,,,1,,,69,0
150144,note_on,,,,,0,0,7,,,,,6,,,47,75
150336,note_on,,,,,0,0,1,,,,,0,,,71,75
150336,note_off,,,,,192,0,1,,,,,0,,,74,0
150336,note_off,,,,,192,0,4,,,,,3,,,66,0
150336,note_on,,,,,0,0,8,,,,,7,,,52,60
150336,note_on,,,,,0,0,6,,,,,5,,,52,75
150336,note_off,,,,,192,0,6,,,,,5,,,59,0
150336,note_on,,,,,0,0,2,,,,,1,,,68,75
150336,note_off,,,,,192,0,2,,,,,1,,,66,0
150336,note_on,,,,,0,0,4,,,,,3,,,68,88
150336,note_off,,,,,192,0,8,,,,,7,,,59,0
150336,note_off,,,,,192,0,3,,,,,2,,,74,0
150336,note_on,,,,,0,0,3,,,,,2,,,71,94
150336,note_on,,,,,0,0,7,,,,,6,,,40,75
150336,note_off,,,,,192,0,7,,,,,6,,,47,0
150336,note_on,,,,,0,0,5,,,,,4,,,68,75
150336,note_off,,,,,576,0,5,,,,,4,,,69,0
150528,note_on,,,,,0,0,4,,,,,3,,,69,88
150528,note_on,,,,,0,0,6,,,,,5,,,57,75
150528,note_off,,,,,192,0,6,,,,,5,,,52,0
150528,note_on,,,,,0,0,7,,,,,6,,,45,75
150528,note_off,,,,,192,0,7,,,,,6,,,40,0
150528,note_off,,,,,192,0,1,,,,,0,,,71,0
150528,note_on,,,,,0,0,1,,,,,0,,,73,75
150528,note_off,,,,,192,0,5,,,,,4,,,68,0
150528,note_off,,,,,192,0,3,,,,,2,,,71,0
150528,note_on,,,,,0,0,5,,,,,4,,,64,75
150528,note_off,,,,,192,0,4,,,,,3,,,68,0
150528,note_on,,,,,0,0,2,,,,,1,,,69,75
150528,note_off,,,,,192,0,2,,,,,1,,,68,0
150528,note_on,,,,,0,0,3,,,,,2,,,73,94
150528,note_on,,,,,0,0,8,,,,,7,,,57,60
150528,note_off,,,,,192,0,8,,,,,7,,,52,0
150720,note_off,,,,,192,0,3,,,,,2,,,73,0
150720,note_on,,,,,0,0,3,,,,,2,,,69,94
150720,note_on,,,,,0,0,6,,,,,5,,,49,75
150720,note_off,,,,,192,0,6,,,,,5,,,57,0
150720,note_on,,,,,0,0,1,,,,,0,,,69,75
150720,note_off,,,,,192,0,1,,,,,0,,,73,0
150720,note_on,,,,,0,0,7,,,,,6,,,37,75
150720,note_on,,,,,0,0,8,,,,,7,,,49,60
150720,note_off,,,,,192,0,8,,,,,7,,,57,0
150720,note_off,,,,,192,0,7,,,,,6,,,45,0
150912,note_on,,,,,0,0,3,,,,,2,,,73,94
150912,note_off,,,,,384,0,4,,,,,3,,,69,0
150912,note_on,,,,,0,0,5,,,,,4,,,66,75
150912,note_off,,,,,384,0,5,,,,,4,,,64,0
150912,note_off,,,,,192,0,3,,,,,2,,,69,0
150912,note_off,,,,,192,0,6,,,,,5,,,49,0
150912,note_off,,,,,192,0,7,,,,,6,,,37,0
150912,note_on,,,,,0,0,2,,,,,1,,,69,75
150912,note_on,,,,,0,0,6,,,,,5,,,50,75
150912,note_off,,,,,192,0,1,,,,,0,,,69,0
150912,note_off,,,,,192,0,8,,,,,7,,,49,0
150912,note_on,,,,,0,0,1,,,,,0,,,73,75
150912,note_on,,,,,0,0,7,,,,,6,,,38,75
150912,note_on,,,,,0,0,8,,,,,7,,,50,60
150912,note_on,,,,,0,0,4,,,,,3,,,69,88
150912,note_off,,,,,384,0,2,,,,,1,,,69,0
150960,note_on,,,,,0,0,3,,,,,2,,,71,94
150960,note_off,,,,,48,0,1,,,,,0,,,73,0
150960,note_on,,,,,0,0,1,,,,,0,,,71,75
150960,note_off,,,,,48,0,3,,,,,2,,,73,0
151008,note_on,,,,,0,0,3,,,,,2,,,73,94
151008,note_off,,,,,48,0,1,,,,,0,,,71,0
151008,note_on,,,,,0,0,1,,,,,0,,,73,75
151008,note_off,,,,,48,0,3,,,,,2,,,71,0
151056,note_on,,,,,0,0,3,,,,,2,,,71,94
151056,note_off,,,,,48,0,3,,,,,2,,,73,0
151056,note_on,,,,,0,0,1,,,,,0,,,71,75
151056,note_off,,,,,48,0,1,,,,,0,,,73,0
151104,note_off,,,,,192,0,8,,,,,7,,,50,0
151104,note_on,,,,,0,0,8,,,,,7,,,52,60
151104,note_on,,,,,0,0,3,,,,,2,,,73,94
151104,note_on,,,,,0,0,4,,,,,3,,,68,88
151104,note_off,,,,,192,0,4,,,,,3,,,69,0
151104,note_off,,,,,48,0,3,,,,,2,,,71,0
151104,note_off,,,,,192,0,2,,,,,1,,,69,0
151104,note_on,,,,,0,0,1,,,,,0,,,73,75
151104,note_on,,,,,0,0,2,,,,,1,,,68,75
151104,note_off,,,,,48,0,1,,,,,0,,,71,0
151104,note_off,,,,,192,0,7,,,,,6,,,38,0
151104,note_on,,,,,0,0,6,,,,,5,,,52,75
151104,note_off,,,,,192,0,6,,,,,5,,,50,0
151104,note_on,,,,,0,0,5,,,,,4,,,64,75
151104,note_off,,,,,192,0,5,,,,,4,,,66,0
151104,note_on,,,,,0,0,7,,,,,6,,,40,75
151152,note_off,,,,,48,0,1,,,,,0,,,73,0
151152,note_off,,,,,48,0,3,,,,,2,,,73,0
151152,note_on,,,,,0,0,3,,,,,2,,,71,94
151152,note_on,,,,,0,0,1,,,,,0,,,71,75
151200,note_on,,,,,0,0,5,,,,,4,,,62,75
151200,note_off,,,,,96,0,5,,,,,4,,,64,0
151296,note_off,,,,,192,0,7,,,,,6,,,40,0
151296,note_on,,,,,0,0,7,,,,,6,,,33,75
151296,note_on,,,,,0,0,2,,,,,1,,,69,75
151296,note_off,,,,,144,0,3,,,,,2,,,71,0
151296,note_on,,,,,0,0,3,,,,,2,,,69,94
151296,note_off,,,,,144,0,1,,,,,0,,,71,0
151296,note_on,,,,,0,0,1,,,,,0,,,69,75
151296,note_off,,,,,192,0,2,,,,,1,,,68,0
151296,note_on,,,,,0,0,5,,,,,4,,,61,75
151296,note_on,,,,,0,0,4,,,,,3,,,69,88
151296,note_on,,,,,0,0,8,,,,,7,,,45,60
151296,note_off,,,,,192,0,8,,,,,7,,,52,0
151296,note_off,,,,,192,0,6,,,,,5,,,52,0
151296,note_on,,,,,0,0,6,,,,,5,,,45,75
151296,note_off,,,,,192,0,4,,,,,3,,,68,0
151296,note_off,,,,,96,0,5,,,,,4,,,62,0
151680,note_off,,,,,384,0,4,,,,,3,,,69,0
151680,note_off,,,,,384,0,8,,,,,7,,,45,0
151680,note_off,,,,,384,0,3,,,,,2,,,69,0
151680,note_off,,,,,384,0,6,,,,,5,,,45,0
151680,note_off,,,,,384,0,7,,,,,6,,,33,0
151680,note_off,,,,,384,0,2,,,,,1,,,69,0
151680,note_off,,,,,384,0,1,,,,,0,,,69,0
151680,note_off,,,,,384,0,5,,,,,4,,,61,0
152064,note_on,,,,,384,0,1,,,,,0,,,69,75
152256,note_on,,,,,576,0,2,,,,,1,,,69,75
152448,note_off,,,,,384,0,1,,,,,0,,,69,0
152448,note_on,,,,,0,0,1,,,,,0,,,71,75
152448,note_on,,,,,0,0,2,,,,,1,,,68,75
152448,note_off,,,,,192,0,2,,,,,1,,,69,0
152640,note_off,,,,,192,0,2,,,,,1,,,68,0
152640,note_on,,,,,0,0,2,,,,,1,,,64,75
152640,note_on,,,,,0,0,1,,,,,0,,,73,75
152640,note_off,,,,,192,0,1,,,,,0,,,71,0
152832,note_off,,,,,192,0,1,,,,,0,,,73,0
152832,note_off,,,,,192,0,2,,,,,1,,,64,0
152832,note_on,,,,,0,0,2,,,,,1,,,66,75
152832,note_on,,,,,0,0,1,,,,,0,,,74,75
153024,note_on,,,,,0,0,1,,,,,0,,,71,75
153024,note_off,,,,,192,0,2,,,,,1,,,66,0
153024,note_on,,,,,0,0,2,,,,,1,,,68,75
153024,note_off,,,,,192,0,1,,,,,0,,,74,0
153216,note_on,,,,,0,0,1,,,,,0,,,73,75
153216,note_off,,,,,192,0,1,,,,,0,,,71,0
153216,note_off,,,,,192,0,2,,,,,1,,,68,0
153216,note_on,,,,,0,0,2,,,,,1,,,69,75
153408,note_on,,,,,1728,0,6,,,,,5,,,57,75
153408,note_on,,,,,1728,0,7,,,,,6,,,45,75
153600,note_off,,,,,192,0,6,,,,,5,,,57,0
153600,note_off,,,,,384,0,1,,,,,0,,,73,0
153600,note_on,,,,,0,0,1,,,,,0,,,76,75
153600,note_off,,,,,192,0,7,,,,,6,,,45,0
153600,note_on,,,,,0,0,7,,,,,6,,,49,75
153600,note_on,,,,,0,0,6,,,,,5,,,61,75
153600,note_on,,,,,0,0,2,,,,,1,,,64,75
153600,note_off,,,,,384,0,2,,,,,1,,,69,0
153792,note_off,,,,,192,0,6,,,,,5,,,61,0
153792,note_on,,,,,0,0,7,,,,,6,,,45,75
153792,note_off,,,,,192,0,7,,,,,6,,,49,0
153792,note_on,,,,,0,0,6,,,,,5,,,57,75
153792,note_off,,,,,192,0,2,,,,,1,,,64,0
153792,note_on,,,,,0,0,2,,,,,1,,,73,75
153984,note_off,,,,,384,0,1,,,,,0,,,76,0
153984,note_on,,,,,0,0,1,,,,,0,,,74,75
153984,note_on,,,,,0,0,6,,,,,5,,,66,75
153984,note_off,,,,,192,0,6,,,,,5,,,57,0
153984,note_on,,,,,0,0,7,,,,,6,,,54,75
153984,note_off,,,,,192,0,7,,,,,6,,,45,0
153984,note_on,,,,,0,0,2,,,,,1,,,69,75
153984,note_off,,,,,192,0,2,,,,,1,,,73,0
154080,note_off,,,,,96,0,1,,,,,0,,,74,0
154080,note_on,,,,,0,0,1,,,,,0,,,73,75
154176,note_on,,,,,0,0,7,,,,,6,,,50,75
154176,note_off,,,,,96,0,1,,,,,0,,,73,0
154176,note_on,,,,,0,0,6,,,,,5,,,62,75
154176,note_on,,,,,0,0,1,,,,,0,,,71,75
154176,note_on,,,,,0,0,2,,,,,1,,,66,75
154176,note_off,,,,,192,0,2,,,,,1,,,69,0
154176,note_off,,,,,192,0,6,,,,,5,,,66,0
154176,note_off,,,,,192,0,7,,,,,6,,,54,0
154272,note_on,,,,,0,0,1,,,,,0,,,69,75
154272,note_off,,,,,96,0,1,,,,,0,,,71,0
154368,note_off,,,,,96,0,1,,,,,0,,,69,0
154368,note_on,,,,,0,0,1,,,,,0,,,68,75
154368,note_off,,,,,192,0,7,,,,,6,,,50,0
154368,note_on,,,,,0,0,7,,,,,6,,,52,75
154368,note_off,,,,,192,0,2,,,,,1,,,66,0
154368,note_off,,,,,192,0,6,,,,,5,,,62,0
154368,note_on,,,,,0,0,6,,,,,5,,,64,75
154368,note_on,,,,,0,0,2,,,,,1,,,64,75
154464,note_off,,,,,96,0,2,,,,,1,,,64,0
154464,note_on,,,,,0,0,2,,,,,1,,,66,75
154464,note_off,,,,,96,0,1,,,,,0,,,68,0
154464,note_on,,,,,0,0,1,,,,,0,,,69,75
154560,note_on,,,,,0,0,6,,,,,5,,,52,75
154560,note_off,,,,,96,0,1,,,,,0,,,69,0
154560,note_on,,,,,0,0,1,,,,,0,,,71,75
154560,note_off,,,,,192,0,6,,,,,5,,,64,0
154560,note_on,,,,,0,0,7,,,,,6,,,40,75
154560,note_off,,,,,192,0,7,,,,,6,,,52,0
154560,note_off,,,,,96,0,2,,,,,1,,,66,0
154560,note_on,,,,,0,0,2,,,,,1,,,68,75
154752,note_on,,,,,0,0,7,,,,,6,,,44,75
154752,note_off,,,,,192,0,1,,,,,0,,,71,0
154752,note_off,,,,,192,0,7,,,,,6,,,40,0
154752,note_on,,,,,0,0,6,,,,,5,,,56,75
154752,note_off,,,,,192,0,6,,,,,5,,,52,0
154752,note_off,,,,,192,0,2,,,,,1,,,68,0
154944,note_on,,,,,0,0,7,,,,,6,,,47,75
154944,note_off,,,,,192,0,6,,,,,5,,,56,0
154944,note_on,,,,,0,0,6,,,,,5,,,59,75
154944,note_off,,,,,192,0,7,,,,,6,,,44,0
155136,note_on,,,,,384,0,2,,,,,1,,,68,75
155136,note_on,,,,,384,0,1,,,,,0,,,71,75
155136,note_off,,,,,192,0,7,,,,,6,,,47,0
155136,note_on,,,,,0,0,7,,,,,6,,,52,75
155136,note_off,,,,,192,0,6,,,,,5,,,59,0
155136,note_on,,,,,0,0,6,,,,,5,,,64,75
155328,note_on,,,,,0,0,7,,,,,6,,,50,75
155328,note_off,,,,,192,0,7,,,,,6,,,52,0
155328,note_on,,,,,0,0,6,,,,,5,,,62,75
155328,note_off,,,,,192,0,6,,,,,5,,,64,0
155520,note_on,,,,,0,0,7,,,,,6,,,49,75
155520,note_off,,,,,192,0,7,,,,,6,,,50,0
155520,note_off,,,,,384,0,1,,,,,0,,,71,0
155520,note_on,,,,,0,0,1,,,,,0,,,73,75
155520,note_on,,,,,0,0,6,,,,,5,,,61,75
155520,note_off,,,,,192,0,6,,,,,5,,,62,0
155520,note_off,,,,,384,0,2,,,,,1,,,68,0
155520,note_on,,,,,0,0,2,,,,,1,,,69,75
155712,note_on,,,,,0,0,2,,,,,1,,,71,75
155712,note_off,,,,,192,0,2,,,,,1,,,69,0
155712,note_on,,,,,0,0,7,,,,,6,,,47,75
155712,note_off,,,,,192,0,7,,,,,6,,,49,0
155712,note_off,,,,,192,0,6,,,,,5,,,61,0
155712,note_off,,,,,192,0,1,,,,,0,,,73,0
155712,note_on,,,,,0,0,1,,,,,0,,,74,75
155712,note_on,,,,,0,0,6,,,,,5,,,59,75
155904,note_off,,,,,192,0,7,,,,,6,,,47,0
155904,note_on,,,,,0,0,6,,,,,5,,,61,75
155904,note_off,,,,,192,0,1,,,,,0,,,74,0
155904,note_on,,,,,0,0,1,,,,,0,,,76,75
155904,note_on,,,,,0,0,7,,,,,6,,,49,75
155904,note_off,,,,,192,0,6,,,,,5,,,59,0
155904,note_off,,,,,192,0,2,,,,,1,,,71,0
155904,note_on,,,,,0,0,2,,,,,1,,,64,75
156096,note_off,,,,,192,0,7,,,,,6,,,49,0
156096,note_on,,,,,0,0,2,,,,,1,,,68,75
156096,note_on,,,,,0,0,7,,,,,6,,,40,75
156096,note_on,,,,,0,0,1,,,,,0,,,73,75
156096,note_off,,,,,192,0,1,,,,,0,,,76,0
156096,note_off,,,,,192,0,6,,,,,5,,,61,0
156096,note_on,,,,,0,0,6,,,,,5,,,52,75
156096,note_off,,,,,192,0,2,,,,,1,,,64,0
156288,note_off,,,,,192,0,6,,,,,5,,,52,0
156288,note_on,,,,,0,0,6,,,,,5,,,54,75
156288,note_off,,,,,192,0,2,,,,,1,,,68,0
156288,note_on,,,,,0,0,1,,,,,0,,,74,75
156288,note_on,,,,,0,0,2,,,,,1,,,69,75
156288,note_off,,,,,192,0,1,,,,,0,,,73,0
156288,note_off,,,,,192,0,7,,,,,6,,,40,0
156288,note_on,,,,,0,0,7,,,,,6,,,42,75
156480,note_off,,,,,192,0,2,,,,,1,,,69,0
156480,note_off,,,,,192,0,6,,,,,5,,,54,0
156480,note_off,,,,,192,0,1,,,,,0,,,74,0
156480,note_off,,,,,192,0,7,,,,,6,,,42,0
156480,note_on,,,,,0,0,7,,,,,6,,,44,75
156480,note_on,,,,,0,0,2,,,,,1,,,71,75
156480,note_on,,,,,0,0,1,,,,,0,,,71,75
156480,note_on,,,,,0,0,6,,,,,5,,,56,75
156672,note_off,,,,,192,0,2,,,,,1,,,71,0
156672,note_on,,,,,0,0,6,,,,,5,,,57,75
156672,note_on,,,,,0,0,2,,,,,1,,,64,75
156672,note_off,,,,,192,0,6,,,,,5,,,56,0
156672,note_on,,,,,0,0,1,,,,,0,,,73,75
156672,note_on,,,,,0,0,7,,,,,6,,,45,75
156672,note_off,,,,,192,0,7,,,,,6,,,44,0
156672,note_off,,,,,192,0,1,,,,,0,,,71,0
156864,note_on,,,,,0,0,2,,,,,1,,,69,75
156864,note_off,,,,,192,0,2,,,,,1,,,64,0
156864,note_on,,,,,0,0,1,,,,,0,,,69,75
156864,note_off,,,,,192,0,1,,,,,0,,,73,0
156864,note_on,,,,,0,0,7,,,,,6,,,37,75
156864,note_on,,,,,0,0,6,,,,,5,,,49,75
156864,note_off,,,,,192,0,6,,,,,5,,,57,0
156864,note_off,,,,,192,0,7,,,,,6,,,45,0
157056,note_on,,,,,0,0,2,,,,,1,,,69,75
157056,note_off,,,,,192,0,1,,,,,0,,,69,0
157056,note_on,,,,,0,0,1,,,,,0,,,73,75
157056,note_off,,,,,192,0,7,,,,,6,,,37,0
157056,note_off,,,,,192,0,6,,,,,5,,,49,0
157056,note_on,,,,,0,0,6,,,,,5,,,50,75
157056,note_on,,,,,0,0,7,,,,,6,,,38,75
157056,note_off,,,,,192,0,2,,,,,1,,,69,0
157104,note_off,,,,,48,0,1,,,,,0,,,73,0
157104,note_on,,,,,0,0,1,,,,,0,,,71,75
157152,note_off,,,,,48,0,1,,,,,0,,,71,0
157152,note_on,,,,,0,0,1,,,,,0,,,73,75
157200,note_on,,,,,0,0,1,,,,,0,,,71,75
157200,note_off,,,,,48,0,1,,,,,0,,,73,0
157248,note_off,,,,,48,0,1,,,,,0,,,71,0
157248,note_on,,,,,0,0,6,,,,,5,,,52,75
157248,note_off,,,,,192,0,6,,,,,5,,,50,0
157248,note_off,,,,,192,0,7,,,,,6,,,38,0
157248,note_on,,,,,0,0,7,,,,,6,,,40,75
157248,note_on,,,,,0,0,2,,,,,1,,,68,75
157248,note_on,,,,,0,0,1,,,,,0,,,73,75
157248,note_off,,,,,192,0,2,,,,,1,,,69,0
157296,note_off,,,,,48,0,1,,,,,0,,,73,0
157296,note_on,,,,,0,0,1,,,,,0,,,71,75
157440,note_on,,,,,0,0,7,,,,,6,,,33,75
157440,note_off,,,,,192,0,6,,,,,5,,,52,0
157440,note_on,,,,,0,0,6,,,,,5,,,45,75
157440,note_off,,,,,144,0,1,,,,,0,,,71,0
157440,note_on,,,,,0,0,2,,,,,1,,,69,75
157440,note_off,,,,,192,0,7,,,,,6,,,40,0
157440,note_off,,,,,192,0,2,,,,,1,,,68,0
157440,note_on,,,,,0,0,1,,,,,0,,,69,75
157824,note_off,,,,,384,0,1,,,,,0,,,69,0
157824,note_off,,,,,384,0,2,,,,,1,,,69,0
157824,note_off,,,,,384,0,7,,,,,6,,,33,0
157824,note_off,,,,,384,0,6,,,,,5,,,45,0
158208,note_on,,,,,6528,0,5,,,,,4,,,64,75
158208,note_on,,,,,6528,0,4,,,,,3,,,68,88
158208,note_on,,,,,6528,0,8,,,,,7,,,52,60
158208,note_on,,,,,6528,0,3,,,,,2,,,71,94
158400,note_on,,,,,0,0,8,,,,,7,,,50,60
158400,note_off,,,,,192,0,8,,,,,7,,,52,0
158592,note_on,,,,,0,0,4,,,,,3,,,69,88
158592,note_off,,,,,384,0,5,,,,,4,,,64,0
158592,note_on,,,,,0,0,5,,,,,4,,,64,75
158592,note_off,,,,,384,0,4,,,,,3,,,68,0
158592,note_on,,,,,0,0,8,,,,,7,,,49,60
158592,note_off,,,,,192,0,8,,,,,7,,,50,0
158592,note_on,,,,,0,0,3,,,,,2,,,73,94
158592,note_off,,,,,384,0,3,,,,,2,,,71,0
158784,note_off,,,,,192,0,3,,,,,2,,,73,0
158784,note_on,,,,,0,0,5,,,,,4,,,62,75
158784,note_on,,,,,0,0,8,,,,,7,,,47,60
158784,note_off,,,,,192,0,8,,,,,7,,,49,0
158784,note_on,,,,,0,0,3,,,,,2,,,74,94
158784,note_off,,,,,192,0,4,,,,,3,,,69,0
158784,note_on,,,,,0,0,4,,,,,3,,,71,88
158784,note_off,,,,,192,0,5,,,,,4,,,64,0
158976,note_on,,,,,0,0,3,,,,,2,,,76,94
158976,note_on,,,,,0,0,5,,,,,4,,,69,75
158976,note_off,,,,,192,0,5,,,,,4,,,62,0
158976,note_off,,,,,192,0,4,,,,,3,,,71,0
158976,note_on,,,,,0,0,4,,,,,3,,,64,88
158976,note_off,,,,,192,0,3,,,,,2,,,74,0
158976,note_on,,,,,0,0,8,,,,,7,,,49,60
158976,note_off,,,,,192,0,8,,,,,7,,,47,0
159168,note_on,,,,,0,0,5,,,,,4,,,68,75
159168,note_off,,,,,192,0,3,,,,,2,,,76,0
159168,note_on,,,,,0,0,8,,,,,7,,,52,60
159168,note_on,,,,,0,0,4,,,,,3,,,68,88
159168,note_off,,,,,192,0,4,,,,,3,,,64,0
159168,note_on,,,,,0,0,3,,,,,2,,,73,94
159168,note_off,,,,,192,0,5,,,,,4,,,69,0
159168,note_off,,,,,192,0,8,,,,,7,,,49,0
159360,note_off,,,,,192,0,3,,,,,2,,,73,0
159360,note_off,,,,,192,0,4,,,,,3,,,68,0
159360,note_on,,,,,0,0,3,,,,,2,,,74,94
159360,note_off,,,,,192,0,8,,,,,7,,,52,0
159360,note_on,,,,,0,0,8,,,,,7,,,54,60
159360,note_on,,,,,0,0,5,,,,,4,,,66,75
159360,note_on,,,,,0,0,4,,,,,3,,,69,88
159360,note_off,,,,,192,0,5,,,,,4,,,68,0
159552,note_off,,,,,192,0,4,,,,,3,,,69,0
159552,note_on,,,,,0,0,8,,,,,7,,,56,60
159552,note_off,,,,,192,0,8,,,,,7,,,54,0
159552,note_off,,,,,192,0,3,,,,,2,,,74,0
159552,note_on,,,,,0,0,3,,,,,2,,,71,94
159552,note_off,,,,,192,0,5,,,,,4,,,66,0
159552,note_on,,,,,0,0,5,,,,,4,,,64,75
159552,note_on,,,,,0,0,4,,,,,3,,,71,88
159744,note_off,,,,,192,0,8,,,,,7,,,56,0
159744,note_off,,,,,192,0,4,,,,,3,,,71,0
159744,note_off,,,,,192,0,5,,,,,4,,,64,0
159744,note_on,,,,,0,0,5,,,,,4,,,69,75
159744,note_off,,,,,192,0,3,,,,,2,,,71,0
159744,note_on,,,,,0,0,4,,,,,3,,,64,88
159744,note_on,,,,,0,0,3,,,,,2,,,73,94
159744,note_on,,,,,0,0,8,,,,,7,,,57,60
159936,note_on,,,,,0,0,5,,,,,4,,,64,75
159936,note_off,,,,,192,0,5,,,,,4,,,69,0
159936,note_off,,,,,192,0,4,,,,,3,,,64,0
159936,note_on,,,,,0,0,4,,,,,3,,,69,88
159936,note_off,,,,,192,0,3,,,,,2,,,73,0
159936,note_on,,,,,0,0,8,,,,,7,,,49,60
159936,note_off,,,,,192,0,8,,,,,7,,,57,0
159936,note_on,,,,,0,0,3,,,,,2,,,69,94
160128,note_on,,,,,0,0,5,,,,,4,,,66,75
160128,note_off,,,,,192,0,5,,,,,4,,,64,0
160128,note_on,,,,,0,0,8,,,,,7,,,50,60
160128,note_off,,,,,192,0,8,,,,,7,,,49,0
160128,note_off,,,,,192,0,3,,,,,2,,,69,0
160128,note_on,,,,,0,0,3,,,,,2,,,73,94
160128,note_on,,,,,0,0,4,,,,,3,,,69,88
160128,note_off,,,,,192,0,4,,,,,3,,,69,0
160176,note_off,,,,,48,0,3,,,,,2,,,73,0
160176,note_on,,,,,0,0,3,,,,,2,,,71,94
160224,note_off,,,,,48,0,3,,,,,2,,,71,0
160224,note_on,,,,,0,0,3,,,,,2,,,73,94
160272,note_off,,,,,48,0,3,,,,,2,,,73,0
160272,note_on,,,,,0,0,3,,,,,2,,,71,94
160320,note_off,,,,,192,0,8,,,,,7,,,50,0
160320,note_on,,,,,0,0,8,,,,,7,,,52,60
160320,note_off,,,,,48,0,3,,,,,2,,,71,0
160320,note_off,,,,,192,0,5,,,,,4,,,66,0
160320,note_on,,,,,0,0,5,,,,,4,,,64,75
160320,note_on,,,,,0,0,3,,,,,2,,,73,94
160320,note_off,,,,,192,0,4,,,,,3,,,69,0
160320,note_on,,,,,0,0,4,,,,,3,,,68,88
160368,note_off,,,,,48,0,3,,,,,2,,,73,0
160368,note_on,,,,,0,0,3,,,,,2,,,71,94
160416,note_on,,,,,0,0,5,,,,,4,,,62,75
160416,note_off,,,,,96,0,5,,,,,4,,,64,0
160512,note_on,,,,,0,0,3,,,,,2,,,69,94
160512,note_off,,,,,144,0,3,,,,,2,,,71,0
160512,note_on,,,,,0,0,5,,,,,4,,,61,75
160512,note_on,,,,,0,0,8,,,,,7,,,45,60
160512,note_off,,,,,192,0,8,,,,,7,,,52,0
160512,note_off,,,,,192,0,4,,,,,3,,,68,0
160512,note_on,,,,,0,0,4,,,,,3,,,69,88
160512,note_off,,,,,96,0,5,,,,,4,,,62,0
160896,note_off,,,,,384,0,5,,,,,4,,,61,0
160896,note_off,,,,,384,0,8,,,,,7,,,45,0
160896,note_off,,,,,384,0,4,,,,,3,,,69,0
160896,note_off,,,,,384,0,3,,,,,2,,,69,0
161088,note_on,,,,,3264,0,1,,,,,0,,,74,75
161280,note_off,,,,,192,0,1,,,,,0,,,74,0
161280,note_on,,,,,0,0,1,,,,,0,,,74,75
161328,note_on,,,,,0,0,1,,,,,0,,,73,75
161328,note_off,,,,,48,0,1,,,,,0,,,74,0
161376,note_off,,,,,48,0,1,,,,,0,,,73,0
161376,note_on,,,,,0,0,1,,,,,0,,,73,75
161376,note_on,,,,,0,0,1,,,,,0,,,74,75
161424,note_off,,,,,48,0,1,,,,,0,,,73,0
161424,note_off,,,,,0,0,1,,,,,0,,,74,0
161424,note_on,,,,,0,0,1,,,,,0,,,71,75
161472,note_on,,,,,0,0,1,,,,,0,,,69,75
161472,note_off,,,,,48,0,1,,,,,0,,,71,0
161664,note_on,,,,,0,0,1,,,,,0,,,71,75
161664,note_off,,,,,192,0,1,,,,,0,,,69,0
161712,note_off,,,,,48,0,1,,,,,0,,,71,0
161712,note_on,,,,,0,0,1,,,,,0,,,69,75
161760,note_on,,,,,0,0,1,,,,,0,,,71,75
161760,note_off,,,,,48,0,1,,,,,0,,,69,0
161808,note_on,,,,,0,0,1,,,,,0,,,69,75
161808,note_off,,,,,48,0,1,,,,,0,,,71,0
161856,note_off,,,,,48,0,1,,,,,0,,,69,0
161856,note_on,,,,,0,0,1,,,,,0,,,71,75
161856,note_on,,,,,4032,0,6,,,,,5,,,62,75
161856,note_on,,,,,4032,0,2,,,,,1,,,66,75
161856,note_on,,,,,4032,0,7,,,,,6,,,50,75
161904,note_off,,,,,48,0,1,,,,,0,,,71,0
161904,note_on,,,,,0,0,1,,,,,0,,,69,75
162048,note_on,,,,,0,0,7,,,,,6,,,50,75
162048,note_off,,,,,192,0,7,,,,,6,,,50,0
162048,note_on,,,,,0,0,2,,,,,1,,,64,75
162048,note_off,,,,,192,0,2,,,,,1,,,66,0
162048,note_off,,,,,192,0,6,,,,,5,,,62,0
162048,note_off,,,,,144,0,1,,,,,0,,,69,0
162048,note_on,,,,,0,0,1,,,,,0,,,71,75
162048,note_on,,,,,0,0,6,,,,,5,,,62,75
162096,note_off,,,,,48,0,7,,,,,6,,,50,0
162096,note_on,,,,,0,0,7,,,,,6,,,49,75
162096,note_on,,,,,0,0,1,,,,,0,,,69,75
162096,note_on,,,,,0,0,6,,,,,5,,,61,75
162096,note_off,,,,,48,0,6,,,,,5,,,62,0
162096,note_off,,,,,48,0,1,,,,,0,,,71,0
162144,note_on,,,,,0,0,6,,,,,5,,,62,75
162144,note_on,,,,,0,0,6,,,,,5,,,61,75
162144,note_off,,,,,48,0,6,,,,,5,,,61,0
162144,note_on,,,,,0,0,7,,,,,6,,,49,75
162144,note_on,,,,,0,0,7,,,,,6,,,50,75
162144,note_off,,,,,48,0,1,,,,,0,,,69,0
162144,note_on,,,,,0,0,1,,,,,0,,,71,75
162144,note_off,,,,,48,0,7,,,,,6,,,49,0
162192,note_off,,,,,48,0,7,,,,,6,,,49,0
162192,note_off,,,,,0,0,7,,,,,6,,,50,0
162192,note_on,,,,,0,0,7,,,,,6,,,47,75
162192,note_off,,,,,0,0,6,,,,,5,,,62,0
162192,note_off,,,,,48,0,6,,,,,5,,,61,0
162192,note_on,,,,,0,0,1,,,,,0,,,69,75
162192,note_off,,,,,144,0,2,,,,,1,,,64,0
162192,note_on,,,,,0,0,2,,,,,1,,,62,75
162192,note_on,,,,,0,0,6,,,,,5,,,59,75
162192,note_off,,,,,48,0,1,,,,,0,,,71,0
162240,note_on,,,,,0,0,2,,,,,1,,,61,75
162240,note_on,,,,,0,0,1,,,,,0,,,71,75
162240,note_off,,,,,48,0,7,,,,,6,,,47,0
162240,note_off,,,,,48,0,1,,,,,0,,,69,0
162240,note_on,,,,,0,0,6,,,,,5,,,57,75
162240,note_off,,,,,48,0,6,,,,,5,,,59,0
162240,note_on,,,,,0,0,7,,,,,6,,,45,75
162240,note_off,,,,,48,0,2,,,,,1,,,62,0
162288,note_off,,,,,48,0,1,,,,,0,,,71,0
162288,note_on,,,,,0,0,1,,,,,0,,,69,75
162432,note_off,,,,,192,0,7,,,,,6,,,45,0
162432,note_on,,,,,0,0,7,,,,,6,,,47,75
162432,note_on,,,,,0,0,2,,,,,1,,,71,75
162432,note_on,,,,,0,0,6,,,,,5,,,59,75
162432,note_off,,,,,144,0,1,,,,,0,,,69,0
162432,note_off,,,,,192,0,6,,,,,5,,,57,0
162432,note_off,,,,,192,0,2,,,,,1,,,61,0
162480,note_off,,,,,48,0,2,,,,,1,,,71,0
162480,note_on,,,,,0,0,2,,,,,1,,,69,75
162480,note_on,,,,,0,0,6,,,,,5,,,57,75
162480,note_off,,,,,48,0,6,,,,,5,,,59,0
162480,note_off,,,,,48,0,7,,,,,6,,,47,0
162480,note_on,,,,,0,0,7,,,,,6,,,45,75
162528,note_off,,,,,48,0,2,,,,,1,,,69,0
162528,note_on,,,,,0,0,7,,,,,6,,,47,75
162528,note_off,,,,,48,0,6,,,,,5,,,57,0
162528,note_on,,,,,0,0,6,,,,,5,,,59,75
162528,note_off,,,,,48,0,7,,,,,6,,,45,0
162528,note_on,,,,,0,0,2,,,,,1,,,71,75
162576,note_off,,,,,48,0,6,,,,,5,,,59,0
162576,note_off,,,,,48,0,2,,,,,1,,,71,0
162576,note_on,,,,,0,0,2,,,,,1,,,69,75
162576,note_off,,,,,48,0,7,,,,,6,,,47,0
162576,note_on,,,,,0,0,7,,,,,6,,,45,75
162576,note_on,,,,,0,0,6,,,,,5,,,57,75
162624,note_on,,,,,0,0,6,,,,,5,,,59,75
162624,note_on,,,,,1728,0,3,,,,,2,,,74,94
162624,note_off,,,,,48,0,2,,,,,1,,,69,0
162624,note_on,,,,,0,0,2,,,,,1,,,71,75
162624,note_off,,,,,48,0,6,,,,,5,,,57,0
162624,note_off,,,,,48,0,7,,,,,6,,,45,0
162624,note_on,,,,,0,0,7,,,,,6,,,47,75
162672,note_off,,,,,48,0,7,,,,,6,,,47,0
162672,note_off,,,,,48,0,2,,,,,1,,,71,0
162672,note_on,,,,,0,0,2,,,,,1,,,69,75
162672,note_on,,,,,0,0,6,,,,,5,,,57,75
162672,note_off,,,,,48,0,6,,,,,5,,,59,0
162672,note_on,,,,,0,0,7,,,,,6,,,45,75
162816,note_off,,,,,144,0,7,,,,,6,,,45,0
162816,note_on,,,,,0,0,7,,,,,6,,,47,75
162816,note_off,,,,,192,0,3,,,,,2,,,74,0
162816,note_on,,,,,0,0,3,,,,,2,,,74,94
162816,note_off,,,,,144,0,2,,,,,1,,,69,0
162816,note_off,,,,,144,0,6,,,,,5,,,57,0
162816,note_on,,,,,0,0,6,,,,,5,,,59,75
162816,note_on,,,,,0,0,2,,,,,1,,,71,75
162864,note_off,,,,,48,0,7,,,,,6,,,47,0
162864,note_on,,,,,0,0,2,,,,,1,,,69,75
162864,note_on,,,,,0,0,7,,,,,6,,,45,75
162864,note_off,,,,,48,0,2,,,,,1,,,71,0
162864,note_on,,,,,0,0,3,,,,,2,,,73,94
162864,note_on,,,,,0,0,6,,,,,5,,,57,75
162864,note_off,,,,,48,0,6,,,,,5,,,59,0
162864,note_off,,,,,48,0,3,,,,,2,,,74,0
162912,note_on,,,,,0,0,3,,,,,2,,,73,94
162912,note_on,,,,,0,0,3,,,,,2,,,74,94
162912,note_off,,,,,48,0,2,,,,,1,,,69,0
162912,note_on,,,,,0,0,7,,,,,6,,,47,75
162912,note_off,,,,,48,0,3,,,,,2,,,73,0
162912,note_off,,,,,48,0,7,,,,,6,,,45,0
162912,note_on,,,,,0,0,6,,,,,5,,,59,75
162912,note_off,,,,,48,0,6,,,,,5,,,57,0
162912,note_on,,,,,0,0,2,,,,,1,,,71,75
162960,note_off,,,,,48,0,7,,,,,6,,,47,0
162960,note_on,,,,,0,0,7,,,,,6,,,45,75
162960,note_on,,,,,0,0,2,,,,,1,,,69,75
162960,note_off,,,,,48,0,2,,,,,1,,,71,0
162960,note_on,,,,,0,0,3,,,,,2,,,71,94
162960,note_off,,,,,0,0,3,,,,,2,,,74,0
162960,note_off,,,,,48,0,3,,,,,2,,,73,0
162960,note_on,,,,,0,0,6,,,,,5,,,57,75
162960,note_off,,,,,48,0,6,,,,,5,,,59,0
163008,note_off,,,,,48,0,7,,,,,6,,,45,0
163008,note_on,,,,,0,0,7,,,,,6,,,47,75
163008,note_off,,,,,48,0,6,,,,,5,,,57,0
163008,note_on,,,,,0,0,6,,,,,5,,,59,75
163008,note_on,,,,,0,0,3,,,,,2,,,69,94
163008,note_off,,,,,48,0,2,,,,,1,,,69,0
163008,note_on,,,,,0,0,2,,,,,1,,,71,75
163008,note_off,,,,,48,0,3,,,,,2,,,71,0
163056,note_on,,,,,0,0,7,,,,,6,,,45,75
163056,note_off,,,,,48,0,7,,,,,6,,,47,0
163056,note_on,,,,,0,0,6,,,,,5,,,57,75
163056,note_off,,,,,48,0,6,,,,,5,,,59,0
163056,note_off,,,,,48,0,2,,,,,1,,,71,0
163056,note_on,,,,,0,0,2,,,,,1,,,69,75
163200,note_off,,,,,192,0,3,,,,,2,,,69,0
163200,note_off,,,,,144,0,6,,,,,5,,,57,0
163200,note_on,,,,,2304,0,4,,,,,3,,,71,88
163200,note_off,,,,,144,0,7,,,,,6,,,45,0
163200,note_off,,,,,144,0,2,,,,,1,,,69,0
163200,note_on,,,,,0,0,3,,,,,2,,,71,94
163248,note_off,,,,,48,0,4,,,,,3,,,71,0
163248,note_off,,,,,48,0,3,,,,,2,,,71,0
163248,note_on,,,,,0,0,3,,,,,2,,,69,94
163248,note_on,,,,,0,0,4,,,,,3,,,69,88
163296,note_off,,,,,48,0,3,,,,,2,,,69,0
163296,note_on,,,,,0,0,3,,,,,2,,,71,94
163296,note_on,,,,,0,0,4,,,,,3,,,71,88
163296,note_off,,,,,48,0,4,,,,,3,,,69,0
163344,note_on,,,,,0,0,4,,,,,3,,,69,88
163344,note_off,,,,,48,0,4,,,,,3,,,71,0
163344,note_off,,,,,48,0,3,,,,,2,,,71,0
163344,note_on,,,,,0,0,3,,,,,2,,,69,94
163392,note_on,,,,,0,0,3,,,,,2,,,71,94
163392,note_off,,,,,48,0,4,,,,,3,,,69,0
163392,note_on,,,,,0,0,4,,,,,3,,,71,88
163392,note_off,,,,,48,0,3,,,,,2,,,69,0
163392,note_on,,,,,2496,0,5,,,,,4,,,66,75
163392,note_on,,,,,2496,0,8,,,,,7,,,62,60
163440,note_on,,,,,0,0,3,,,,,2,,,69,94
163440,note_on,,,,,0,0,4,,,,,3,,,69,88
163440,note_off,,,,,48,0,4,,,,,3,,,71,0
163440,note_off,,,,,48,0,3,,,,,2,,,71,0
163584,note_off,,,,,144,0,3,,,,,2,,,69,0
163584,note_off,,,,,144,0,4,,,,,3,,,69,0
163584,note_on,,,,,0,0,5,,,,,4,,,64,75
163584,note_off,,,,,192,0,5,,,,,4,,,66,0
163584,note_on,,,,,0,0,8,,,,,7,,,61,60
163584,note_off,,,,,192,0,8,,,,,7,,,62,0
163584,note_on,,,,,0,0,3,,,,,2,,,71,94
163584,note_on,,,,,0,0,4,,,,,3,,,71,88
163632,note_off,,,,,48,0,4,,,,,3,,,71,0
163632,note_on,,,,,0,0,4,,,,,3,,,69,88
163632,note_on,,,,,0,0,3,,,,,2,,,69,94
163632,note_off,,,,,48,0,3,,,,,2,,,71,0
163680,note_off,,,,,48,0,4,,,,,3,,,69,0
163680,note_on,,,,,0,0,3,,,,,2,,,71,94
163680,note_on,,,,,0,0,5,,,,,4,,,62,75
163680,note_off,,,,,96,0,5,,,,,4,,,64,0
163680,note_off,,,,,48,0,3,,,,,2,,,69,0
163680,note_on,,,,,0,0,4,,,,,3,,,71,88
163680,note_on,,,,,0,0,8,,,,,7,,,59,60
163680,note_off,,,,,96,0,8,,,,,7,,,61,0
163728,note_off,,,,,48,0,4,,,,,3,,,71,0
163728,note_on,,,,,0,0,4,,,,,3,,,69,88
163728,note_on,,,,,0,0,3,,,,,2,,,69,94
163728,note_off,,,,,48,0,3,,,,,2,,,71,0
163776,note_on,,,,,0,0,4,,,,,3,,,71,88
163776,note_off,,,,,48,0,4,,,,,3,,,69,0
163776,note_off,,,,,96,0,8,,,,,7,,,59,0
163776,note_on,,,,,0,0,3,,,,,2,,,71,94
163776,note_on,,,,,0,0,8,,,,,7,,,57,60
163776,note_off,,,,,96,0,5,,,,,4,,,62,0
163776,note_on,,,,,0,0,5,,,,,4,,,61,75
163776,note_off,,,,,48,0,3,,,,,2,,,69,0
163824,note_on,,,,,0,0,4,,,,,3,,,69,88
163824,note_off,,,,,48,0,4,,,,,3,,,71,0
163824,note_off,,,,,48,0,3,,,,,2,,,71,0
163824,note_on,,,,,0,0,3,,,,,2,,,69,94
163968,note_off,,,,,192,0,8,,,,,7,,,57,0
163968,note_off,,,,,192,0,5,,,,,4,,,61,0
163968,note_off,,,,,144,0,3,,,,,2,,,69,0
163968,note_on,,,,,0,0,8,,,,,7,,,57,60
163968,note_off,,,,,144,0,4,,,,,3,,,69,0
163968,note_on,,,,,0,0,5,,,,,4,,,61,75
164160,note_on,,,,,1728,0,1,,,,,0,,,81,75
164352,note_off,,,,,192,0,1,,,,,0,,,81,0
164352,note_off,,,,,384,0,8,,,,,7,,,57,0
164352,note_on,,,,,0,0,1,,,,,0,,,78,75
164352,note_off,,,,,384,0,5,,,,,4,,,61,0
164448,note_off,,,,,96,0,1,,,,,0,,,78,0
164448,note_on,,,,,0,0,1,,,,,0,,,76,75
164544,note_off,,,,,96,0,1,,,,,0,,,76,0
164544,note_on,,,,,0,0,1,,,,,0,,,74,75
164736,note_off,,,,,192,0,1,,,,,0,,,74,0
164736,note_on,,,,,0,0,1,,,,,0,,,76,75
164784,note_off,,,,,48,0,1,,,,,0,,,76,0
164784,note_on,,,,,0,0,1,,,,,0,,,74,75
164832,note_off,,,,,48,0,1,,,,,0,,,74,0
164832,note_on,,,,,0,0,1,,,,,0,,,76,75
164880,note_off,,,,,48,0,1,,,,,0,,,76,0
164880,note_on,,,,,0,0,1,,,,,0,,,74,75
164928,note_on,,,,,1728,0,7,,,,,6,,,57,75
164928,note_off,,,,,48,0,1,,,,,0,,,74,0
164928,note_on,,,,,0,0,1,,,,,0,,,76,75
164928,note_on,,,,,1728,0,2,,,,,1,,,69,75
164928,note_on,,,,,1728,0,6,,,,,5,,,69,75
164976,note_on,,,,,0,0,1,,,,,0,,,74,75
164976,note_off,,,,,48,0,1,,,,,0,,,76,0
165120,note_on,,,,,0,0,7,,,,,6,,,54,75
165120,note_off,,,,,192,0,7,,,,,6,,,57,0
165120,note_off,,,,,192,0,6,,,,,5,,,69,0
165120,note_on,,,,,0,0,6,,,,,5,,,66,75
165120,note_off,,,,,192,0,2,,,,,1,,,69,0
165120,note_on,,,,,0,0,2,,,,,1,,,69,75
165120,note_off,,,,,144,0,1,,,,,0,,,74,0
165120,note_on,,,,,0,0,1,,,,,0,,,76,75
165168,note_off,,,,,48,0,1,,,,,0,,,76,0
165168,note_on,,,,,0,0,1,,,,,0,,,74,75
165216,note_off,,,,,48,0,1,,,,,0,,,74,0
165216,note_on,,,,,0,0,2,,,,,1,,,67,75
165216,note_off,,,,,96,0,2,,,,,1,,,69,0
165216,note_on,,,,,0,0,1,,,,,0,,,76,75
165216,note_on,,,,,0,0,6,,,,,5,,,64,75
165216,note_off,,,,,96,0,6,,,,,5,,,66,0
165216,note_on,,,,,0,0,7,,,,,6,,,52,75
165216,note_off,,,,,96,0,7,,,,,6,,,54,0
165264,note_on,,,,,0,0,1,,,,,0,,,74,75
165264,note_off,,,,,48,0,1,,,,,0,,,76,0
165312,note_on,,,,,0,0,1,,,,,0,,,76,75
165312,note_off,,,,,48,0,1,,,,,0,,,74,0
165312,note_off,,,,,96,0,7,,,,,6,,,52,0
165312,note_on,,,,,0,0,7,,,,,6,,,50,75
165312,note_on,,,,,0,0,2,,,,,1,,,66,75
165312,note_off,,,,,96,0,6,,,,,5,,,64,0
165312,note_on,,,,,0,0,6,,,,,5,,,62,75
165312,note_off,,,,,96,0,2,,,,,1,,,67,0
165360,note_on,,,,,0,0,1,,,,,0,,,74,75
165360,note_off,,,,,48,0,1,,,,,0,,,76,0
165504,note_on,,,,,0,0,2,,,,,1,,,67,75
165504,note_off,,,,,144,0,1,,,,,0,,,74,0
165504,note_on,,,,,0,0,6,,,,,5,,,64,75
165504,note_on,,,,,0,0,7,,,,,6,,,52,75
165504,note_off,,,,,192,0,2,,,,,1,,,66,0
165504,note_off,,,,,192,0,7,,,,,6,,,50,0
165504,note_off,,,,,192,0,6,,,,,5,,,62,0
165552,note_on,,,,,0,0,7,,,,,6,,,50,75
165552,note_off,,,,,48,0,6,,,,,5,,,64,0
165552,note_off,,,,,48,0,7,,,,,6,,,52,0
165552,note_on,,,,,0,0,2,,,,,1,,,66,75
165552,note_off,,,,,48,0,2,,,,,1,,,67,0
165552,note_on,,,,,0,0,6,,,,,5,,,62,75
165600,note_off,,,,,48,0,6,,,,,5,,,62,0
165600,note_on,,,,,0,0,6,,,,,5,,,64,75
165600,note_on,,,,,0,0,7,,,,,6,,,52,75
165600,note_on,,,,,0,0,2,,,,,1,,,69,75
165600,note_off,,,,,48,0,7,,,,,6,,,50,0
165600,note_off,,,,,48,0,2,,,,,1,,,66,0
165648,note_on,,,,,0,0,7,,,,,6,,,50,75
165648,note_off,,,,,48,0,7,,,,,6,,,52,0
165648,note_off,,,,,48,0,2,,,,,1,,,69,0
165648,note_off,,,,,48,0,6,,,,,5,,,64,0
165648,note_on,,,,,0,0,6,,,,,5,,,62,75
165648,note_on,,,,,0,0,2,,,,,1,,,67,75
165696,note_off,,,,,48,0,7,,,,,6,,,50,0
165696,note_off,,,,,48,0,6,,,,,5,,,62,0
165696,note_on,,,,,1728,0,3,,,,,2,,,81,94
165696,note_off,,,,,48,0,2,,,,,1,,,67,0
165696,note_on,,,,,0,0,2,,,,,1,,,69,75
165696,note_on,,,,,0,0,6,,,,,5,,,64,75
165696,note_on,,,,,0,0,7,,,,,6,,,52,75
165744,note_off,,,,,48,0,2,,,,,1,,,69,0
165744,note_on,,,,,0,0,2,,,,,1,,,67,75
165744,note_on,,,,,0,0,7,,,,,6,,,50,75
165744,note_off,,,,,48,0,7,,,,,6,,,52,0
165744,note_off,,,,,48,0,6,,,,,5,,,64,0
165744,note_on,,,,,0,0,6,,,,,5,,,62,75
165888,note_off,,,,,144,0,7,,,,,6,,,50,0
165888,note_on,,,,,0,0,7,,,,,6,,,52,75
165888,note_off,,,,,144,0,2,,,,,1,,,67,0
165888,note_off,,,,,192,0,3,,,,,2,,,81,0
165888,note_on,,,,,0,0,3,,,,,2,,,78,94
165888,note_off,,,,,144,0,6,,,,,5,,,62,0
165888,note_on,,,,,0,0,6,,,,,5,,,64,75
165936,note_on,,,,,0,0,6,,,,,5,,,62,75
165936,note_off,,,,,48,0,6,,,,,5,,,64,0
165936,note_on,,,,,0,0,7,,,,,6,,,50,75
165936,note_off,,,,,48,0,7,,,,,6,,,52,0
165984,note_on,,,,,0,0,3,,,,,2,,,76,94
165984,note_off,,,,,96,0,3,,,,,2,,,78,0
165984,note_on,,,,,0,0,7,,,,,6,,,52,75
165984,note_off,,,,,48,0,7,,,,,6,,,50,0
165984,note_off,,,,,48,0,6,,,,,5,,,62,0
165984,note_on,,,,,0,0,6,,,,,5,,,64,75
166032,note_off,,,,,48,0,7,,,,,6,,,52,0
166032,note_off,,,,,48,0,6,,,,,5,,,64,0
166032,note_on,,,,,0,0,6,,,,,5,,,62,75
166032,note_on,,,,,0,0,7,,,,,6,,,50,75
166080,note_off,,,,,96,0,3,,,,,2,,,76,0
166080,note_on,,,,,0,0,3,,,,,2,,,74,94
166080,note_on,,,,,0,0,6,,,,,5,,,64,75
166080,note_off,,,,,48,0,6,,,,,5,,,62,0
166080,note_on,,,,,0,0,7,,,,,6,,,52,75
166080,note_off,,,,,48,0,7,,,,,6,,,50,0
166128,note_off,,,,,48,0,6,,,,,5,,,64,0
166128,note_on,,,,,0,0,6,,,,,5,,,62,75
166128,note_off,,,,,48,0,7,,,,,6,,,52,0
166128,note_on,,,,,0,0,7,,,,,6,,,50,75
166272,note_on,,,,,0,0,3,,,,,2,,,76,94
166272,note_off,,,,,192,0,3,,,,,2,,,74,0
166272,note_off,,,,,144,0,7,,,,,6,,,50,0
166272,note_off,,,,,144,0,6,,,,,5,,,62,0
166320,note_on,,,,,0,0,3,,,,,2,,,74,94
166320,note_off,,,,,48,0,3,,,,,2,,,76,0
166368,note_off,,,,,48,0,3,,,,,2,,,74,0
166368,note_on,,,,,0,0,3,,,,,2,,,76,94
166416,note_on,,,,,0,0,3,,,,,2,,,74,94
166416,note_off,,,,,48,0,3,,,,,2,,,76,0
166464,note_on,,,,,0,0,3,,,,,2,,,76,94
166464,note_off,,,,,48,0,3,,,,,2,,,74,0
166464,note_on,,,,,2112,0,5,,,,,4,,,66,75
166464,note_on,,,,,2496,0,4,,,,,3,,,69,88
166464,note_on,,,,,2112,0,8,,,,,7,,,57,60
166512,note_off,,,,,48,0,3,,,,,2,,,76,0
166512,note_on,,,,,0,0,3,,,,,2,,,74,94
166656,note_on,,,,,0,0,4,,,,,3,,,69,88
166656,note_off,,,,,144,0,3,,,,,2,,,74,0
166656,note_on,,,,,0,0,3,,,,,2,,,76,94
166656,note_off,,,,,192,0,8,,,,,7,,,57,0
166656,note_on,,,,,0,0,5,,,,,4,,,66,75
166656,note_on,,,,,0,0,8,,,,,7,,,54,60
166656,note_off,,,,,192,0,5,,,,,4,,,66,0
166656,note_off,,,,,192,0,4,,,,,3,,,69,0
166704,note_on,,,,,0,0,3,,,,,2,,,74,94
166704,note_off,,,,,48,0,3,,,,,2,,,76,0
166752,note_on,,,,,0,0,8,,,,,7,,,52,60
166752,note_off,,,,,48,0,3,,,,,2,,,74,0
166752,note_off,,,,,96,0,8,,,,,7,,,54,0
166752,note_off,,,,,96,0,4,,,,,3,,,69,0
166752,note_on,,,,,0,0,4,,,,,3,,,67,88
166752,note_on,,,,,0,0,3,,,,,2,,,76,94
166800,note_on,,,,,0,0,3,,,,,2,,,74,94
166800,note_off,,,,,48,0,3,,,,,2,,,76,0
166848,note_on,,,,,0,0,4,,,,,3,,,66,88
166848,note_off,,,,,48,0,3,,,,,2,,,74,0
166848,note_on,,,,,0,0,3,,,,,2,,,76,94
166848,note_off,,,,,96,0,8,,,,,7,,,52,0
166848,note_off,,,,,96,0,4,,,,,3,,,67,0
166848,note_on,,,,,0,0,8,,,,,7,,,50,60
166896,note_off,,,,,48,0,3,,,,,2,,,76,0
166896,note_on,,,,,0,0,3,,,,,2,,,74,94
167040,note_on,,,,,0,0,5,,,,,4,,,57,75
167040,note_on,,,,,1152,0,2,,,,,1,,,86,75
167040,note_on,,,,,0,0,4,,,,,3,,,66,88
167040,note_off,,,,,192,0,4,,,,,3,,,66,0
167040,note_on,,,,,0,0,8,,,,,7,,,50,60
167040,note_off,,,,,192,0,8,,,,,7,,,50,0
167040,note_off,,,,,144,0,3,,,,,2,,,74,0
167040,note_on,,,,,1536,0,1,,,,,0,,,86,75
167040,note_off,,,,,384,0,5,,,,,4,,,66,0
167232,note_on,,,,,192,0,3,,,,,2,,,71,94
167232,note_off,,,,,192,0,4,,,,,3,,,66,0
167232,note_on,,,,,0,0,4,,,,,3,,,71,88
167424,note_off,,,,,384,0,5,,,,,4,,,57,0
167424,note_on,,,,,0,0,2,,,,,1,,,86,75
167424,note_off,,,,,384,0,2,,,,,1,,,86,0
167424,note_on,,,,,0,0,1,,,,,0,,,86,75
167424,note_off,,,,,192,0,4,,,,,3,,,71,0
167424,note_on,,,,,0,0,4,,,,,3,,,68,88
167424,note_on,,,,,0,0,3,,,,,2,,,68,94
167424,note_off,,,,,192,0,3,,,,,2,,,71,0
167424,note_off,,,,,384,0,8,,,,,7,,,50,0
167424,note_off,,,,,384,0,1,,,,,0,,,86,0
167520,note_off,,,,,96,0,4,,,,,3,,,68,0
167520,note_off,,,,,96,0,3,,,,,2,,,68,0
167520,note_on,,,,,0,0,4,,,,,3,,,66,88
167520,note_on,,,,,0,0,3,,,,,2,,,66,94
167616,note_on,,,,,0,0,4,,,,,3,,,64,88
167616,note_off,,,,,96,0,3,,,,,2,,,66,0
167616,note_on,,,,,0,0,3,,,,,2,,,64,94
167616,note_off,,,,,96,0,4,,,,,3,,,66,0
167808,note_off,,,,,384,0,1,,,,,0,,,86,0
167808,note_on,,,,,0,0,1,,,,,0,,,86,75
167808,note_off,,,,,192,0,3,,,,,2,,,64,0
167808,note_on,,,,,0,0,3,,,,,2,,,64,94
167808,note_off,,,,,192,0,4,,,,,3,,,64,0
167808,note_off,,,,,384,0,2,,,,,1,,,86,0
167808,note_on,,,,,0,0,2,,,,,1,,,86,75
167808,note_on,,,,,0,0,4,,,,,3,,,64,88
168000,note_on,,,,,1728,0,6,,,,,5,,,59,75
168000,note_on,,,,,576,0,8,,,,,7,,,59,60
168000,note_on,,,,,576,0,5,,,,,4,,,59,75
168000,note_on,,,,,1728,0,7,,,,,6,,,47,75
168192,note_off,,,,,384,0,4,,,,,3,,,64,0
168192,note_on,,,,,0,0,4,,,,,3,,,71,88
168192,note_on,,,,,0,0,3,,,,,2,,,71,94
168192,note_on,,,,,0,0,6,,,,,5,,,56,75
168192,note_off,,,,,192,0,6,,,,,5,,,59,0
168192,note_on,,,,,0,0,7,,,,,6,,,44,75
168192,note_off,,,,,192,0,7,,,,,6,,,47,0
168192,note_off,,,,,384,0,3,,,,,2,,,64,0
168192,note_off,,,,,192,0,5,,,,,4,,,59,0
168192,note_on,,,,,0,0,2,,,,,1,,,86,75
168192,note_off,,,,,384,0,1,,,,,0,,,86,0
168192,note_off,,,,,384,0,2,,,,,1,,,86,0
168192,note_on,,,,,0,0,1,,,,,0,,,86,75
168192,note_off,,,,,192,0,8,,,,,7,,,59,0
168192,note_on,,,,,0,0,8,,,,,7,,,56,60
168192,note_on,,,,,0,0,5,,,,,4,,,56,75
168288,note_on,,,,,0,0,6,,,,,5,,,54,75
168288,note_off,,,,,96,0,5,,,,,4,,,56,0
168288,note_on,,,,,0,0,5,,,,,4,,,54,75
168288,note_off,,,,,96,0,6,,,,,5,,,56,0
168288,note_on,,,,,0,0,8,,,,,7,,,54,60
168288,note_off,,,,,96,0,8,,,,,7,,,56,0
168288,note_on,,,,,0,0,7,,,,,6,,,42,75
168288,note_off,,,,,96,0,7,,,,,6,,,44,0
168384,note_on,,,,,0,0,6,,,,,5,,,52,75
168384,note_off,,,,,96,0,5,,,,,4,,,54,0
168384,note_off,,,,,96,0,6,,,,,5,,,54,0
168384,note_on,,,,,0,0,8,,,,,7,,,52,60
168384,note_off,,,,,96,0,8,,,,,7,,,54,0
168384,note_on,,,,,0,0,5,,,,,4,,,52,75
168384,note_on,,,,,0,0,7,,,,,6,,,40,75
168384,note_off,,,,,96,0,7,,,,,6,,,42,0
168576,note_on,,,,,0,0,8,,,,,7,,,52,60
168576,note_on,,,,,0,0,7,,,,,6,,,40,75
168576,note_off,,,,,192,0,7,,,,,6,,,40,0
168576,note_off,,,,,192,0,8,,,,,7,,,52,0
168576,note_off,,,,,192,0,5,,,,,4,,,52,0
168576,note_off,,,,,384,0,3,,,,,2,,,71,0
168576,note_on,,,,,0,0,3,,,,,2,,,71,94
168576,note_off,,,,,192,0,6,,,,,5,,,52,0
168576,note_on,,,,,0,0,6,,,,,5,,,52,75
168576,note_on,,,,,0,0,5,,,,,4,,,64,75
168576,note_on,,,,,0,0,4,,,,,3,,,68,88
168576,note_off,,,,,384,0,4,,,,,3,,,71,0
168768,note_off,,,,,576,0,1,,,,,0,,,86,0
168768,note_on,,,,,0,0,2,,,,,1,,,80,75
168768,note_off,,,,,576,0,2,,,,,1,,,86,0
168768,note_on,,,,,0,0,1,,,,,0,,,83,75
168768,note_on,,,,,0,0,7,,,,,6,,,52,75
168768,note_off,,,,,192,0,6,,,,,5,,,52,0
168768,note_on,,,,,0,0,6,,,,,5,,,64,75
168768,note_off,,,,,192,0,7,,,,,6,,,40,0
168960,note_off,,,,,192,0,1,,,,,0,,,83,0
168960,note_off,,,,,192,0,7,,,,,6,,,52,0
168960,note_on,,,,,0,0,7,,,,,6,,,57,75
168960,note_off,,,,,384,0,3,,,,,2,,,71,0
168960,note_off,,,,,192,0,6,,,,,5,,,64,0
168960,note_on,,,,,0,0,1,,,,,0,,,85,75
168960,note_on,,,,,0,0,6,,,,,5,,,69,75
168960,note_off,,,,,192,0,2,,,,,1,,,80,0
168960,note_on,,,,,0,0,2,,,,,1,,,81,75
168960,note_off,,,,,384,0,5,,,,,4,,,64,0
168960,note_off,,,,,384,0,4,,,,,3,,,68,0
168960,note_off,,,,,384,0,8,,,,,7,,,52,0
169152,note_off,,,,,192,0,7,,,,,6,,,57,0
169152,note_off,,,,,192,0,6,,,,,5,,,69,0
169152,note_off,,,,,192,0,2,,,,,1,,,81,0
169152,note_on,,,,,0,0,2,,,,,1,,,83,75
169152,note_on,,,,,0,0,1,,,,,0,,,86,75
169152,note_on,,,,,0,0,7,,,,,6,,,56,75
169152,note_on,,,,,0,0,6,,,,,5,,,68,75
169152,note_off,,,,,192,0,1,,,,,0,,,85,0
169344,note_off,,,,,192,0,7,,,,,6,,,56,0
169344,note_on,,,,,0,0,7,,,,,6,,,57,75
169344,note_on,,,,,0,0,2,,,,,1,,,81,75
169344,note_on,,,,,0,0,6,,,,,5,,,69,75
169344,note_off,,,,,192,0,6,,,,,5,,,68,0
169344,note_off,,,,,192,0,2,,,,,1,,,83,0
169344,note_on,,,,,0,0,1,,,,,0,,,86,75
169344,note_off,,,,,192,0,1,,,,,0,,,86,0
169392,note_off,,,,,48,0,1,,,,,0,,,86,0
169392,note_on,,,,,0,0,1,,,,,0,,,85,75
169440,note_off,,,,,48,0,1,,,,,0,,,85,0
169440,note_on,,,,,0,0,1,,,,,0,,,86,75
169488,note_on,,,,,0,0,1,,,,,0,,,85,75
169488,note_off,,,,,48,0,1,,,,,0,,,86,0
169536,note_off,,,,,192,0,7,,,,,6,,,57,0
169536,note_on,,,,,0,0,7,,,,,6,,,45,75
169536,note_off,,,,,192,0,6,,,,,5,,,69,0
169536,note_on,,,,,0,0,6,,,,,5,,,57,75
169536,note_off,,,,,48,0,1,,,,,0,,,85,0
169536,note_on,,,,,0,0,1,,,,,0,,,86,75
169584,note_on,,,,,0,0,1,,,,,0,,,85,75
169584,note_off,,,,,48,0,1,,,,,0,,,86,0
169728,note_off,,,,,192,0,6,,,,,5,,,57,0
169728,note_on,,,,,0,0,6,,,,,5,,,64,75
169728,note_on,,,,,0,0,7,,,,,6,,,52,75
169728,note_off,,,,,384,0,2,,,,,1,,,81,0
169728,note_on,,,,,0,0,2,,,,,1,,,80,75
169728,note_off,,,,,192,0,7,,,,,6,,,45,0
169728,note_on,,,,,0,0,1,,,,,0,,,83,75
169728,note_off,,,,,144,0,1,,,,,0,,,85,0
169920,note_off,,,,,192,0,7,,,,,6,,,52,0
169920,note_on,,,,,0,0,7,,,,,6,,,44,75
169920,note_off,,,,,192,0,6,,,,,5,,,64,0
169920,note_on,,,,,0,0,6,,,,,5,,,56,75
170112,note_off,,,,,384,0,1,,,,,0,,,83,0
170112,note_off,,,,,192,0,7,,,,,6,,,44,0
170112,note_off,,,,,192,0,6,,,,,5,,,56,0
170112,note_on,,,,,0,0,7,,,,,6,,,45,75
170112,note_off,,,,,384,0,2,,,,,1,,,80,0
170112,note_on,,,,,0,0,6,,,,,5,,,57,75
170304,note_off,,,,,192,0,6,,,,,5,,,57,0
170304,note_off,,,,,192,0,7,,,,,6,,,45,0
170304,note_on,,,,,0,0,6,,,,,5,,,59,75
170304,note_on,,,,,0,0,7,,,,,6,,,47,75
170496,note_on,,,,,1536,0,5,,,,,4,,,64,75
170496,note_on,,,,,0,0,6,,,,,5,,,52,75
170496,note_off,,,,,192,0,6,,,,,5,,,59,0
170496,note_on,,,,,1536,0,4,,,,,3,,,68,88
170496,note_on,,,,,0,0,7,,,,,6,,,40,75
170496,note_off,,,,,192,0,7,,,,,6,,,47,0
170496,note_on,,,,,1536,0,3,,,,,2,,,71,94
170496,note_on,,,,,1536,0,8,,,,,7,,,52,60
170496,note_on,,,,,384,0,2,,,,,1,,,68,75
170496,note_on,,,,,384,0,1,,,,,0,,,71,75
170880,note_on,,,,,0,0,8,,,,,7,,,56,60
170880,note_on,,,,,0,0,4,,,,,3,,,71,88
170880,note_off,,,,,384,0,2,,,,,1,,,68,0
170880,note_on,,,,,0,0,7,,,,,6,,,44,75
170880,note_off,,,,,384,0,7,,,,,6,,,40,0
170880,note_off,,,,,384,0,6,,,,,5,,,52,0
170880,note_on,,,,,0,0,6,,,,,5,,,56,75
170880,note_off,,,,,384,0,8,,,,,7,,,52,0
170880,note_off,,,,,384,0,4,,,,,3,,,68,0
170880,note_off,,,,,384,0,1,,,,,0,,,71,0
170880,note_off,,,,,384,0,3,,,,,2,,,71,0
170880,note_on,,,,,0,0,5,,,,,4,,,59,75
170880,note_off,,,,,384,0,5,,,,,4,,,64,0
170880,note_on,,,,,0,0,3,,,,,2,,,76,94
170880,note_on,,,,,0,0,2,,,,,1,,,71,75
170880,note_on,,,,,0,0,1,,,,,0,,,76,75
171072,note_off,,,,,192,0,6,,,,,5,,,56,0
171072,note_on,,,,,0,0,5,,,,,4,,,64,75
171072,note_off,,,,,192,0,5,,,,,4,,,59,0
171072,note_on,,,,,0,0,4,,,,,3,,,68,88
171072,note_off,,,,,192,0,4,,,,,3,,,71,0
171072,note_off,,,,,192,0,2,,,,,1,,,71,0
171072,note_on,,,,,0,0,6,,,,,5,,,52,75
171072,note_on,,,,,0,0,2,,,,,1,,,68,75
171072,note_off,,,,,192,0,8,,,,,7,,,56,0
171072,note_on,,,,,0,0,3,,,,,2,,,71,94
171072,note_off,,,,,192,0,3,,,,,2,,,76,0
171072,note_on,,,,,0,0,8,,,,,7,,,52,60
171072,note_on,,,,,0,0,7,,,,,6,,,40,75
171072,note_off,,,,,192,0,7,,,,,6,,,44,0
171072,note_on,,,,,0,0,1,,,,,0,,,71,75
171072,note_off,,,,,192,0,1,,,,,0,,,76,0
171264,note_on,,,,,0,0,2,,,,,1,,,64,75
171264,note_off,,,,,192,0,8,,,,,7,,,52,0
171264,note_on,,,,,0,0,8,,,,,7,,,57,60
171264,note_off,,,,,192,0,2,,,,,1,,,68,0
171264,note_off,,,,,192,0,5,,,,,4,,,64,0
171264,note_off,,,,,192,0,6,,,,,5,,,52,0
171264,note_on,,,,,0,0,6,,,,,5,,,57,75
171264,note_on,,,,,0,0,3,,,,,2,,,73,94
171264,note_off,,,,,192,0,1,,,,,0,,,71,0
171264,note_on,,,,,0,0,1,,,,,0,,,73,75
171264,note_on,,,,,0,0,4,,,,,3,,,64,88
171264,note_off,,,,,192,0,4,,,,,3,,,68,0
171264,note_off,,,,,192,0,7,,,,,6,,,40,0
171264,note_on,,,,,0,0,7,,,,,6,,,45,75
171264,note_on,,,,,0,0,5,,,,,4,,,61,75
171264,note_off,,,,,192,0,3,,,,,2,,,71,0
171456,note_on,,,,,0,0,1,,,,,0,,,76,75
171456,note_off,,,,,192,0,3,,,,,2,,,73,0
171456,note_off,,,,,192,0,1,,,,,0,,,73,0
171456,note_on,,,,,0,0,3,,,,,2,,,76,94
171648,note_on,,,,,0,0,2,,,,,1,,,61,75
171648,note_off,,,,,384,0,2,,,,,1,,,64,0
171648,note_off,,,,,384,0,5,,,,,4,,,61,0
171648,note_off,,,,,192,0,3,,,,,2,,,76,0
171648,note_on,,,,,0,0,3,,,,,2,,,69,94
171648,note_on,,,,,0,0,1,,,,,0,,,69,75
171648,note_off,,,,,192,0,1,,,,,0,,,76,0
171648,note_on,,,,,0,0,5,,,,,4,,,64,75
171648,note_off,,,,,384,0,4,,,,,3,,,64,0
171648,note_on,,,,,0,0,4,,,,,3,,,61,88
171648,note_off,,,,,384,0,8,,,,,7,,,57,0
171648,note_on,,,,,0,0,8,,,,,7,,,61,60
171648,note_off,,,,,384,0,6,,,,,5,,,57,0
171648,note_on,,,,,0,0,6,,,,,5,,,61,75
171648,note_on,,,,,0,0,7,,,,,6,,,49,75
171648,note_off,,,,,384,0,7,,,,,6,,,45,0
172032,note_off,,,,,384,0,3,,,,,2,,,69,0
172032,note_on,,,,,0,0,3,,,,,2,,,76,94
172032,note_on,,,,,0,0,1,,,,,0,,,76,75
172032,note_on,,,,,0,0,2,,,,,1,,,69,75
172032,note_off,,,,,384,0,2,,,,,1,,,61,0
172032,note_off,,,,,384,0,8,,,,,7,,,61,0
172032,note_off,,,,,384,0,1,,,,,0,,,69,0
172032,note_off,,,,,384,0,7,,,,,6,,,49,0
172032,note_on,,,,,0,0,7,,,,,6,,,37,75
172032,note_off,,,,,384,0,4,,,,,3,,,61,0
172032,note_on,,,,,0,0,4,,,,,3,,,69,88
172032,note_on,,,,,0,0,6,,,,,5,,,49,75
172032,note_on,,,,,0,0,8,,,,,7,,,49,60
172032,note_off,,,,,384,0,6,,,,,5,,,61,0
172032,note_off,,,,,384,0,5,,,,,4,,,64,0
172032,note_on,,,,,0,0,5,,,,,4,,,64,75
172224,note_on,,,,,0,0,8,,,,,7,,,52,60
172224,note_off,,,,,192,0,8,,,,,7,,,49,0
172224,note_off,,,,,192,0,7,,,,,6,,,37,0
172224,note_on,,,,,0,0,6,,,,,5,,,52,75
172224,note_off,,,,,192,0,6,,,,,5,,,49,0
172224,note_on,,,,,0,0,7,,,,,6,,,40,75
172416,note_off,,,,,192,0,7,,,,,6,,,40,0
172416,note_on,,,,,0,0,7,,,,,6,,,33,75
172416,note_off,,,,,384,0,2,,,,,1,,,69,0
172416,note_on,,,,,0,0,2,,,,,1,,,64,75
172416,note_on,,,,,0,0,1,,,,,0,,,67,75
172416,note_off,,,,,384,0,1,,,,,0,,,76,0
172416,note_off,,,,,192,0,8,,,,,7,,,52,0
172416,note_on,,,,,0,0,8,,,,,7,,,45,60
172416,note_on,,,,,0,0,5,,,,,4,,,61,75
172416,note_on,,,,,0,0,4,,,,,3,,,64,88
172416,note_on,,,,,0,0,6,,,,,5,,,45,75
172416,note_off,,,,,384,0,4,,,,,3,,,69,0
172416,note_off,,,,,384,0,3,,,,,2,,,76,0
172416,note_on,,,,,0,0,3,,,,,2,,,67,94
172416,note_off,,,,,192,0,6,,,,,5,,,52,0
172416,note_off,,,,,384,0,5,,,,,4,,,64,0
172512,note_off,,,,,96,0,1,,,,,0,,,67,0
172512,note_on,,,,,0,0,1,,,,,0,,,66,75
172512,note_off,,,,,96,0,3,,,,,2,,,67,0
172512,note_on,,,,,0,0,3,,,,,2,,,66,94
172608,note_off,,,,,96,0,1,,,,,0,,,66,0
172608,note_on,,,,,0,0,1,,,,,0,,,67,75
172608,note_on,,,,,0,0,3,,,,,2,,,67,94
172608,note_on,,,,,0,0,4,,,,,3,,,61,88
172608,note_on,,,,,0,0,2,,,,,1,,,61,75
172608,note_off,,,,,96,0,3,,,,,2,,,66,0
172608,note_off,,,,,192,0,5,,,,,4,,,61,0
172608,note_on,,,,,0,0,5,,,,,4,,,64,75
172608,note_off,,,,,192,0,2,,,,,1,,,64,0
172608,note_off,,,,,192,0,4,,,,,3,,,64,0
172704,note_on,,,,,0,0,1,,,,,0,,,64,75
172704,note_off,,,,,96,0,3,,,,,2,,,67,0
172704,note_on,,,,,0,0,3,,,,,2,,,64,94
172704,note_off,,,,,96,0,1,,,,,0,,,67,0
172800,note_off,,,,,192,0,5,,,,,4,,,64,0
172800,note_on,,,,,0,0,7,,,,,6,,,38,75
172800,note_on,,,,,0,0,5,,,,,4,,,62,75
172800,note_off,,,,,384,0,7,,,,,6,,,33,0
172800,note_on,,,,,0,0,1,,,,,0,,,66,75
172800,note_on,,,,,0,0,3,,,,,2,,,66,94
172800,note_off,,,,,96,0,3,,,,,2,,,64,0
172800,note_off,,,,,384,0,8,,,,,7,,,45,0
172800,note_on,,,,,0,0,8,,,,,7,,,50,60
172800,note_off,,,,,384,0,6,,,,,5,,,45,0
172800,note_off,,,,,96,0,1,,,,,0,,,64,0
172800,note_on,,,,,0,0,6,,,,,5,,,50,75
172800,note_on,,,,,0,0,2,,,,,1,,,57,75
172800,note_off,,,,,192,0,2,,,,,1,,,61,0
172800,note_on,,,,,0,0,4,,,,,3,,,57,88
172800,note_off,,,,,192,0,4,,,,,3,,,61,0
172992,note_on,,,,,0,0,1,,,,,0,,,69,75
172992,note_off,,,,,192,0,1,,,,,0,,,66,0
172992,note_off,,,,,192,0,3,,,,,2,,,66,0
172992,note_on,,,,,0,0,3,,,,,2,,,69,94
173184,note_on,,,,,0,0,6,,,,,5,,,54,75
173184,note_off,,,,,384,0,6,,,,,5,,,50,0
173184,note_on,,,,,0,0,7,,,,,6,,,42,75
173184,note_off,,,,,384,0,7,,,,,6,,,38,0
173184,note_on,,,,,0,0,4,,,,,3,,,69,88
173184,note_off,,,,,384,0,4,,,,,3,,,57,0
173184,note_on,,,,,0,0,5,,,,,4,,,62,75
173184,note_off,,,,,384,0,2,,,,,1,,,57,0
173184,note_on,,,,,0,0,1,,,,,0,,,74,75
173184,note_on,,,,,0,0,3,,,,,2,,,74,94
173184,note_off,,,,,384,0,5,,,,,4,,,62,0
173184,note_on,,,,,0,0,8,,,,,7,,,54,60
173184,note_off,,,,,192,0,1,,,,,0,,,69,0
173184,note_off,,,,,192,0,3,,,,,2,,,69,0
173184,note_off,,,,,384,0,8,,,,,7,,,50,0
173184,note_on,,,,,0,0,2,,,,,1,,,69,75
173376,note_off,,,,,192,0,8,,,,,7,,,54,0
173376,note_on,,,,,0,0,8,,,,,7,,,57,60
173376,note_on,,,,,0,0,7,,,,,6,,,45,75
173376,note_off,,,,,192,0,7,,,,,6,,,42,0
173376,note_off,,,,,192,0,6,,,,,5,,,54,0
173376,note_on,,,,,0,0,6,,,,,5,,,57,75
173568,note_off,,,,,192,0,8,,,,,7,,,57,0
173568,note_on,,,,,0,0,2,,,,,1,,,59,75
173568,note_off,,,,,384,0,2,,,,,1,,,69,0
173568,note_off,,,,,192,0,6,,,,,5,,,57,0
173568,note_on,,,,,0,0,6,,,,,5,,,51,75
173568,note_on,,,,,0,0,4,,,,,3,,,59,88
173568,note_off,,,,,384,0,3,,,,,2,,,74,0
173568,note_on,,,,,0,0,8,,,,,7,,,51,60
173568,note_on,,,,,0,0,3,,,,,2,,,78,94
173568,note_off,,,,,192,0,7,,,,,6,,,45,0
173568,note_on,,,,,0,0,7,,,,,6,,,39,75
173568,note_off,,,,,384,0,4,,,,,3,,,69,0
173568,note_on,,,,,0,0,1,,,,,0,,,78,75
173568,note_off,,,,,384,0,1,,,,,0,,,74,0
173568,note_on,,,,,0,0,5,,,,,4,,,66,75
173568,note_off,,,,,384,0,5,,,,,4,,,62,0
173760,note_off,,,,,192,0,8,,,,,7,,,51,0
173760,note_on,,,,,0,0,6,,,,,5,,,54,75
173760,note_on,,,,,0,0,7,,,,,6,,,42,75
173760,note_off,,,,,192,0,7,,,,,6,,,39,0
173760,note_off,,,,,192,0,6,,,,,5,,,51,0
173760,note_on,,,,,0,0,8,,,,,7,,,54,60
173952,note_off,,,,,384,0,5,,,,,4,,,66,0
173952,note_on,,,,,0,0,5,,,,,4,,,63,75
173952,note_on,,,,,0,0,4,,,,,3,,,66,88
173952,note_off,,,,,384,0,4,,,,,3,,,59,0
173952,note_on,,,,,0,0,8,,,,,7,,,47,60
173952,note_off,,,,,192,0,8,,,,,7,,,54,0
173952,note_on,,,,,0,0,6,,,,,5,,,47,75
173952,note_off,,,,,192,0,6,,,,,5,,,54,0
173952,note_off,,,,,384,0,3,,,,,2,,,78,0
173952,note_on,,,,,0,0,3,,,,,2,,,69,94
173952,note_off,,,,,384,0,2,,,,,1,,,59,0
173952,note_on,,,,,0,0,2,,,,,1,,,66,75
173952,note_on,,,,,0,0,1,,,,,0,,,69,75
173952,note_off,,,,,384,0,1,,,,,0,,,78,0
173952,note_off,,,,,192,0,7,,,,,6,,,42,0
173952,note_on,,,,,0,0,7,,,,,6,,,35,75
174048,note_on,,,,,0,0,3,,,,,2,,,68,94
174048,note_on,,,,,0,0,1,,,,,0,,,68,75
174048,note_off,,,,,96,0,1,,,,,0,,,69,0
174048,note_off,,,,,96,0,3,,,,,2,,,69,0
174144,note_on,,,,,0,0,4,,,,,3,,,63,88
174144,note_off,,,,,192,0,4,,,,,3,,,66,0
174144,note_on,,,,,0,0,1,,,,,0,,,69,75
174144,note_off,,,,,96,0,1,,,,,0,,,68,0
174144,note_off,,,,,96,0,3,,,,,2,,,68,0
174144,note_on,,,,,0,0,3,,,,,2,,,69,94
174144,note_off,,,,,192,0,5,,,,,4,,,63,0
174144,note_on,,,,,0,0,5,,,,,4,,,66,75
174144,note_on,,,,,0,0,2,,,,,1,,,63,75
174144,note_off,,,,,192,0,2,,,,,1,,,66,0
174240,note_on,,,,,0,0,1,,,,,0,,,66,75
174240,note_off,,,,,96,0,1,,,,,0,,,69,0
174240,note_on,,,,,0,0,3,,,,,2,,,66,94
174240,note_off,,,,,96,0,3,,,,,2,,,69,0
174336,note_on,,,,,0,0,8,,,,,7,,,52,60
174336,note_off,,,,,384,0,6,,,,,5,,,47,0
174336,note_on,,,,,0,0,6,,,,,5,,,52,75
174336,note_on,,,,,0,0,4,,,,,3,,,59,88
174336,note_off,,,,,96,0,3,,,,,2,,,66,0
174336,note_on,,,,,0,0,3,,,,,2,,,68,94
174336,note_off,,,,,192,0,4,,,,,3,,,63,0
174336,note_off,,,,,384,0,8,,,,,7,,,47,0
174336,note_on,,,,,0,0,5,,,,,4,,,64,75
174336,note_off,,,,,192,0,5,,,,,4,,,66,0
174336,note_on,,,,,0,0,1,,,,,0,,,68,75
174336,note_off,,,,,96,0,1,,,,,0,,,66,0
174336,note_off,,,,,192,0,2,,,,,1,,,63,0
174336,note_on,,,,,0,0,2,,,,,1,,,59,75
174336,note_off,,,,,384,0,7,,,,,6,,,35,0
174336,note_on,,,,,0,0,7,,,,,6,,,40,75
174528,note_on,,,,,0,0,1,,,,,0,,,71,75
174528,note_off,,,,,192,0,1,,,,,0,,,68,0
174720,note_off,,,,,384,0,5,,,,,4,,,64,0
174720,note_off,,,,,384,0,4,,,,,3,,,59,0
174720,note_off,,,,,384,0,2,,,,,1,,,59,0
174720,note_off,,,,,384,0,6,,,,,5,,,52,0
174720,note_off,,,,,384,0,8,,,,,7,,,52,0
174720,note_off,,,,,384,0,7,,,,,6,,,40,0
174720,note_on,,,,,0,0,1,,,,,0,,,64,75
174720,note_off,,,,,192,0,1,,,,,0,,,71,0
174720,note_off,,,,,384,0,3,,,,,2,,,68,0
174912,note_on,,,,,0,0,1,,,,,0,,,74,75
174912,note_off,,,,,192,0,1,,,,,0,,,64,0
175104,note_on,,,,,0,0,1,,,,,0,,,73,75
175104,note_off,,,,,192,0,1,,,,,0,,,74,0
175200,note_on,,,,,0,0,1,,,,,0,,,71,75
175200,note_off,,,,,96,0,1,,,,,0,,,73,0
175296,note_on,,,,,0,0,1,,,,,0,,,69,75
175296,note_off,,,,,96,0,1,,,,,0,,,71,0
175488,note_on,,,,,0,0,1,,,,,0,,,71,75
175488,note_off,,,,,192,0,1,,,,,0,,,69,0
175536,note_on,,,,,0,0,1,,,,,0,,,69,75
175536,note_off,,,,,48,0,1,,,,,0,,,71,0
175584,note_on,,,,,0,0,1,,,,,0,,,71,75
175584,note_off,,,,,48,0,1,,,,,0,,,69,0
175632,note_off,,,,,48,0,1,,,,,0,,,71,0
175632,note_on,,,,,0,0,1,,,,,0,,,69,75
175680,note_on,,,,,0,0,1,,,,,0,,,71,75
175680,note_off,,,,,48,0,1,,,,,0,,,69,0
175680,note_on,,,,,960,0,2,,,,,1,,,66,75
175680,note_on,,,,,960,0,6,,,,,5,,,62,75
175680,note_on,,,,,960,0,7,,,,,6,,,50,75
175728,note_off,,,,,48,0,1,,,,,0,,,71,0
175728,note_on,,,,,0,0,1,,,,,0,,,69,75
175872,note_on,,,,,0,0,7,,,,,6,,,49,75
175872,note_on,,,,,0,0,6,,,,,5,,,61,75
175872,note_off,,,,,192,0,6,,,,,5,,,62,0
175872,note_off,,,,,192,0,2,,,,,1,,,66,0
175872,note_off,,,,,144,0,1,,,,,0,,,69,0
175872,note_on,,,,,0,0,1,,,,,0,,,71,75
175872,note_on,,,,,0,0,2,,,,,1,,,64,75
175872,note_off,,,,,192,0,7,,,,,6,,,50,0
175920,note_on,,,,,0,0,1,,,,,0,,,69,75
175920,note_off,,,,,48,0,1,,,,,0,,,71,0
175968,note_on,,,,,0,0,1,,,,,0,,,71,75
175968,note_off,,,,,48,0,1,,,,,0,,,69,0
175968,note_off,,,,,96,0,6,,,,,5,,,61,0
175968,note_off,,,,,96,0,7,,,,,6,,,49,0
175968,note_on,,,,,0,0,7,,,,,6,,,47,75
175968,note_on,,,,,0,0,2,,,,,1,,,62,75
175968,note_on,,,,,0,0,6,,,,,5,,,59,75
175968,note_off,,,,,96,0,2,,,,,1,,,64,0
176016,note_off,,,,,48,0,1,,,,,0,,,71,0
176016,note_on,,,,,0,0,1,,,,,0,,,69,75
176064,note_off,,,,,96,0,7,,,,,6,,,47,0
176064,note_on,,,,,0,0,7,,,,,6,,,45,75
176064,note_on,,,,,0,0,1,,,,,0,,,71,75
176064,note_on,,,,,0,0,2,,,,,1,,,61,75
176064,note_off,,,,,96,0,2,,,,,1,,,62,0
176064,note_off,,,,,48,0,1,,,,,0,,,69,0
176064,note_on,,,,,0,0,6,,,,,5,,,57,75
176064,note_off,,,,,96,0,6,,,,,5,,,59,0
176112,note_on,,,,,0,0,1,,,,,0,,,69,75
176112,note_off,,,,,48,0,1,,,,,0,,,71,0
176256,note_off,,,,,192,0,6,,,,,5,,,57,0
176256,note_on,,,,,0,0,6,,,,,5,,,59,75
176256,note_off,,,,,192,0,2,,,,,1,,,61,0
176256,note_on,,,,,0,0,2,,,,,1,,,69,75
176256,note_off,,,,,144,0,1,,,,,0,,,69,0
176256,note_off,,,,,192,0,7,,,,,6,,,45,0
176256,note_on,,,,,0,0,7,,,,,6,,,47,75
176304,note_on,,,,,0,0,6,,,,,5,,,57,75
176304,note_off,,,,,48,0,6,,,,,5,,,59,0
176304,note_off,,,,,48,0,7,,,,,6,,,47,0
176304,note_on,,,,,0,0,7,,,,,6,,,45,75
176352,note_off,,,,,48,0,7,,,,,6,,,45,0
176352,note_on,,,,,0,0,7,,,,,6,,,47,75
176352,note_off,,,,,48,0,6,,,,,5,,,57,0
176352,note_on,,,,,0,0,6,,,,,5,,,59,75
176400,note_off,,,,,48,0,7,,,,,6,,,47,0
176400,note_on,,,,,0,0,7,,,,,6,,,45,75
176400,note_off,,,,,48,0,6,,,,,5,,,59,0
176400,note_on,,,,,0,0,6,,,,,5,,,57,75
176448,note_on,,,,,1728,0,3,,,,,2,,,74,94
176448,note_off,,,,,48,0,7,,,,,6,,,45,0
176448,note_on,,,,,0,0,7,,,,,6,,,47,75
176448,note_on,,,,,0,0,6,,,,,5,,,59,75
176448,note_on,,,,,1728,0,4,,,,,3,,,74,88
176448,note_off,,,,,48,0,6,,,,,5,,,57,0
176496,note_on,,,,,0,0,6,,,,,5,,,57,75
176496,note_off,,,,,48,0,6,,,,,5,,,59,0
176496,note_on,,,,,0,0,7,,,,,6,,,45,75
176496,note_off,,,,,48,0,7,,,,,6,,,47,0
176640,note_on,,,,,0,0,3,,,,,2,,,73,94
176640,note_on,,,,,0,0,4,,,,,3,,,73,88
176640,note_off,,,,,192,0,3,,,,,2,,,74,0
176640,note_on,,,,,0,0,6,,,,,5,,,59,75
176640,note_off,,,,,192,0,4,,,,,3,,,74,0
176640,note_off,,,,,384,0,2,,,,,1,,,69,0
176640,note_off,,,,,144,0,6,,,,,5,,,57,0
176640,note_on,,,,,0,0,7,,,,,6,,,47,75
176640,note_off,,,,,144,0,7,,,,,6,,,45,0
176688,note_off,,,,,48,0,6,,,,,5,,,59,0
176688,note_off,,,,,48,0,7,,,,,6,,,47,0
176688,note_on,,,,,0,0,7,,,,,6,,,45,75
176688,note_on,,,,,0,0,6,,,,,5,,,57,75
176736,note_off,,,,,48,0,6,,,,,5,,,57,0
176736,note_on,,,,,0,0,3,,,,,2,,,71,94
176736,note_off,,,,,96,0,3,,,,,2,,,73,0
176736,note_off,,,,,48,0,7,,,,,6,,,45,0
176736,note_on,,,,,0,0,7,,,,,6,,,47,75
176736,note_on,,,,,0,0,4,,,,,3,,,71,88
176736,note_off,,,,,96,0,4,,,,,3,,,73,0
176736,note_on,,,,,0,0,6,,,,,5,,,59,75
176784,note_on,,,,,0,0,6,,,,,5,,,57,75
176784,note_off,,,,,48,0,6,,,,,5,,,59,0
176784,note_on,,,,,0,0,7,,,,,6,,,45,75
176784,note_off,,,,,48,0,7,,,,,6,,,47,0
176832,note_on,,,,,0,0,6,,,,,5,,,59,75
176832,note_off,,,,,96,0,3,,,,,2,,,71,0
176832,note_on,,,,,0,0,7,,,,,6,,,47,75
176832,note_off,,,,,48,0,6,,,,,5,,,57,0
176832,note_on,,,,,0,0,3,,,,,2,,,69,94
176832,note_off,,,,,48,0,7,,,,,6,,,45,0
176832,note_off,,,,,96,0,4,,,,,3,,,71,0
176832,note_on,,,,,0,0,4,,,,,3,,,69,88
176880,note_off,,,,,48,0,6,,,,,5,,,59,0
176880,note_on,,,,,0,0,6,,,,,5,,,57,75
176880,note_on,,,,,0,0,7,,,,,6,,,45,75
176880,note_off,,,,,48,0,7,,,,,6,,,47,0
177024,note_off,,,,,144,0,7,,,,,6,,,45,0
177024,note_on,,,,,0,0,3,,,,,2,,,71,94
177024,note_off,,,,,144,0,6,,,,,5,,,57,0
177024,note_off,,,,,192,0,3,,,,,2,,,69,0
177024,note_on,,,,,0,0,4,,,,,3,,,71,88
177024,note_off,,,,,192,0,4,,,,,3,,,69,0
177072,note_on,,,,,0,0,4,,,,,3,,,69,88
177072,note_off,,,,,48,0,3,,,,,2,,,71,0
177072,note_on,,,,,0,0,3,,,,,2,,,69,94
177072,note_off,,,,,48,0,4,,,,,3,,,71,0
177120,note_off,,,,,48,0,4,,,,,3,,,69,0
177120,note_on,,,,,0,0,3,,,,,2,,,71,94
177120,note_on,,,,,0,0,4,,,,,3,,,71,88
177120,note_off,,,,,48,0,3,,,,,2,,,69,0
177168,note_off,,,,,48,0,4,,,,,3,,,71,0
177168,note_on,,,,,0,0,4,,,,,3,,,69,88
177168,note_off,,,,,48,0,3,,,,,2,,,71,0
177168,note_on,,,,,0,0,3,,,,,2,,,69,94
177216,note_off,,,,,48,0,4,,,,,3,,,69,0
177216,note_on,,,,,2496,0,5,,,,,4,,,66,75
177216,note_on,,,,,192,0,6,,,,,5,,,62,75
177216,note_on,,,,,2496,0,8,,,,,7,,,62,60
177216,note_on,,,,,0,0,3,,,,,2,,,71,94
177216,note_on,,,,,192,0,7,,,,,6,,,50,75
177216,note_on,,,,,0,0,4,,,,,3,,,71,88
177216,note_off,,,,,48,0,3,,,,,2,,,69,0
177264,note_on,,,,,0,0,3,,,,,2,,,69,94
177264,note_off,,,,,48,0,3,,,,,2,,,71,0
177264,note_off,,,,,48,0,4,,,,,3,,,71,0
177264,note_on,,,,,0,0,4,,,,,3,,,69,88
177408,note_on,,,,,0,0,6,,,,,5,,,61,75
177408,note_off,,,,,192,0,6,,,,,5,,,62,0
177408,note_on,,,,,0,0,4,,,,,3,,,71,88
177408,note_off,,,,,144,0,4,,,,,3,,,69,0
177408,note_off,,,,,192,0,7,,,,,6,,,50,0
177408,note_off,,,,,192,0,5,,,,,4,,,66,0
177408,note_off,,,,,192,0,8,,,,,7,,,62,0
177408,note_on,,,,,0,0,8,,,,,7,,,61,60
177408,note_on,,,,,0,0,3,,,,,2,,,71,94
177408,note_off,,,,,144,0,3,,,,,2,,,69,0
177408,note_on,,,,,0,0,7,,,,,6,,,49,75
177408,note_on,,,,,0,0,5,,,,,4,,,64,75
177456,note_on,,,,,0,0,3,,,,,2,,,69,94
177456,note_off,,,,,48,0,3,,,,,2,,,71,0
177456,note_off,,,,,48,0,4,,,,,3,,,71,0
177456,note_on,,,,,0,0,4,,,,,3,,,69,88
177504,note_on,,,,,0,0,7,,,,,6,,,47,75
177504,note_off,,,,,96,0,7,,,,,6,,,49,0
177504,note_on,,,,,0,0,4,,,,,3,,,71,88
177504,note_off,,,,,96,0,5,,,,,4,,,64,0
177504,note_off,,,,,96,0,8,,,,,7,,,61,0
177504,note_on,,,,,0,0,8,,,,,7,,,59,60
177504,note_on,,,,,0,0,3,,,,,2,,,71,94
177504,note_off,,,,,48,0,3,,,,,2,,,69,0
177504,note_on,,,,,0,0,6,,,,,5,,,59,75
177504,note_off,,,,,48,0,4,,,,,3,,,69,0
177504,note_on,,,,,0,0,5,,,,,4,,,62,75
177504,note_off,,,,,96,0,6,,,,,5,,,61,0
177552,note_on,,,,,0,0,4,,,,,3,,,69,88
177552,note_off,,,,,48,0,4,,,,,3,,,71,0
177552,note_off,,,,,48,0,3,,,,,2,,,71,0
177552,note_on,,,,,0,0,3,,,,,2,,,69,94
177600,note_off,,,,,48,0,4,,,,,3,,,69,0
177600,note_on,,,,,0,0,6,,,,,5,,,57,75
177600,note_off,,,,,96,0,6,,,,,5,,,59,0
177600,note_off,,,,,96,0,7,,,,,6,,,47,0
177600,note_on,,,,,0,0,8,,,,,7,,,57,60
177600,note_off,,,,,96,0,8,,,,,7,,,59,0
177600,note_on,,,,,0,0,7,,,,,6,,,45,75
177600,note_off,,,,,96,0,5,,,,,4,,,62,0
177600,note_on,,,,,0,0,5,,,,,4,,,61,75
177600,note_off,,,,,48,0,3,,,,,2,,,69,0
177600,note_on,,,,,0,0,3,,,,,2,,,71,94
177600,note_on,,,,,0,0,4,,,,,3,,,71,88
177648,note_off,,,,,48,0,4,,,,,3,,,71,0
177648,note_on,,,,,0,0,4,,,,,3,,,69,88
177648,note_off,,,,,48,0,3,,,,,2,,,71,0
177648,note_on,,,,,0,0,3,,,,,2,,,69,94
177792,note_off,,,,,144,0,3,,,,,2,,,69,0
177792,note_off,,,,,192,0,7,,,,,6,,,45,0
177792,note_off,,,,,144,0,4,,,,,3,,,69,0
177792,note_on,,,,,0,0,6,,,,,5,,,57,75
177792,note_off,,,,,192,0,6,,,,,5,,,57,0
177792,note_on,,,,,0,0,8,,,,,7,,,57,60
177792,note_on,,,,,0,0,7,,,,,6,,,45,75
177792,note_off,,,,,192,0,8,,,,,7,,,57,0
177792,note_off,,,,,192,0,5,,,,,4,,,61,0
177792,note_on,,,,,0,0,5,,,,,4,,,69,75
177984,note_on,,,,,1728,0,1,,,,,0,,,86,75
178176,note_off,,,,,384,0,6,,,,,5,,,57,0
178176,note_on,,,,,0,0,6,,,,,5,,,57,75
178176,note_off,,,,,384,0,5,,,,,4,,,69,0
178176,note_on,,,,,0,0,8,,,,,7,,,57,60
178176,note_on,,,,,0,0,5,,,,,4,,,57,75
178176,note_off,,,,,384,0,8,,,,,7,,,57,0
178176,note_on,,,,,0,0,7,,,,,6,,,45,75
178176,note_off,,,,,384,0,7,,,,,6,,,45,0
178176,note_on,,,,,0,0,1,,,,,0,,,85,75
178176,note_off,,,,,192,0,1,,,,,0,,,86,0
178272,note_on,,,,,0,0,1,,,,,0,,,83,75
178272,note_off,,,,,96,0,1,,,,,0,,,85,0
178368,note_on,,,,,0,0,1,,,,,0,,,81,75
178368,note_off,,,,,96,0,1,,,,,0,,,83,0
178560,note_off,,,,,384,0,5,,,,,4,,,57,0
178560,note_off,,,,,192,0,1,,,,,0,,,81,0
178560,note_off,,,,,384,0,8,,,,,7,,,57,0
178560,note_off,,,,,384,0,6,,,,,5,,,57,0
178560,note_on,,,,,768,0,4,,,,,3,,,69,88
178560,note_on,,,,,768,0,3,,,,,2,,,69,94
178560,note_off,,,,,384,0,7,,,,,6,,,45,0
178752,note_on,,,,,2112,0,2,,,,,1,,,86,75
178944,note_off,,,,,384,0,3,,,,,2,,,69,0
178944,note_off,,,,,192,0,2,,,,,1,,,86,0
178944,note_on,,,,,0,0,2,,,,,1,,,85,75
178944,note_off,,,,,384,0,4,,,,,3,,,69,0
179040,note_on,,,,,0,0,2,,,,,1,,,83,75
179040,note_off,,,,,96,0,2,,,,,1,,,85,0
179136,note_off,,,,,96,0,2,,,,,1,,,83,0
179136,note_on,,,,,0,0,2,,,,,1,,,81,75
179328,note_on,,,,,384,0,4,,,,,3,,,69,88
179328,note_on,,,,,384,0,3,,,,,2,,,69,94
179328,note_off,,,,,192,0,2,,,,,1,,,81,0
179520,note_on,,,,,960,0,1,,,,,0,,,83,75
179616,note_off,,,,,96,0,1,,,,,0,,,83,0
179616,note_on,,,,,0,0,1,,,,,0,,,85,75
179664,note_on,,,,,0,0,1,,,,,0,,,86,75
179664,note_off,,,,,48,0,1,,,,,0,,,85,0
179712,note_off,,,,,48,0,1,,,,,0,,,86,0
179712,note_off,,,,,384,0,3,,,,,2,,,69,0
179712,note_on,,,,,0,0,1,,,,,0,,,85,75
179712,note_off,,,,,384,0,4,,,,,3,,,69,0
179808,note_on,,,,,0,0,1,,,,,0,,,83,75
179808,note_off,,,,,96,0,1,,,,,0,,,85,0
179904,note_off,,,,,96,0,1,,,,,0,,,83,0
179904,note_on,,,,,0,0,1,,,,,0,,,81,75
180096,note_on,,,,,384,0,4,,,,,3,,,69,88
180096,note_on,,,,,384,0,3,,,,,2,,,69,94
180096,note_off,,,,,192,0,1,,,,,0,,,81,0
180288,note_on,,,,,960,0,2,,,,,1,,,83,75
180384,note_on,,,,,0,0,2,,,,,1,,,85,75
180384,note_off,,,,,96,0,2,,,,,1,,,83,0
180432,note_off,,,,,48,0,2,,,,,1,,,85,0
180432,note_on,,,,,0,0,2,,,,,1,,,86,75
180480,note_on,,,,,0,0,2,,,,,1,,,85,75
180480,note_off,,,,,48,0,2,,,,,1,,,86,0
180480,note_off,,,,,384,0,3,,,,,2,,,69,0
180480,note_off,,,,,384,0,4,,,,,3,,,69,0
180576,note_on,,,,,0,0,2,,,,,1,,,83,75
180576,note_off,,,,,96,0,2,,,,,1,,,85,0
180672,note_on,,,,,0,0,2,,,,,1,,,81,75
180672,note_off,,,,,96,0,2,,,,,1,,,83,0
180864,note_off,,,,,192,0,2,,,,,1,,,81,0
180864,note_on,,,,,384,0,3,,,,,2,,,69,94
180864,note_on,,,,,384,0,4,,,,,3,,,69,88
181056,note_on,,,,,960,0,1,,,,,0,,,83,75
181152,note_off,,,,,96,0,1,,,,,0,,,83,0
181152,note_on,,,,,0,0,1,,,,,0,,,85,75
181200,note_off,,,,,48,0,1,,,,,0,,,85,0
181200,note_on,,,,,0,0,1,,,,,0,,,86,75
181248,note_off,,,,,384,0,4,,,,,3,,,69,0
181248,note_off,,,,,384,0,3,,,,,2,,,69,0
181248,note_off,,,,,48,0,1,,,,,0,,,86,0
181248,note_on,,,,,0,0,1,,,,,0,,,85,75
181296,note_off,,,,,48,0,1,,,,,0,,,85,0
181296,note_on,,,,,0,0,1,,,,,0,,,83,75
181344,note_off,,,,,48,0,1,,,,,0,,,83,0
181344,note_on,,,,,0,0,1,,,,,0,,,81,75
181632,note_on,,,,,384,0,3,,,,,2,,,69,94
181632,note_on,,,,,0,0,1,,,,,0,,,80,75
181632,note_off,,,,,288,0,1,,,,,0,,,81,0
181632,note_on,,,,,384,0,4,,,,,3,,,69,88
181680,note_on,,,,,0,0,1,,,,,0,,,78,75
181680,note_off,,,,,48,0,1,,,,,0,,,80,0
181728,note_off,,,,,48,0,1,,,,,0,,,78,0
181728,note_on,,,,,0,0,1,,,,,0,,,76,75
182016,note_off,,,,,288,0,1,,,,,0,,,76,0
182016,note_on,,,,,0,0,1,,,,,0,,,75,75
182016,note_on,,,,,0,0,4,,,,,3,,,71,88
182016,note_off,,,,,384,0,4,,,,,3,,,69,0
182016,note_off,,,,,384,0,3,,,,,2,,,69,0
182016,note_on,,,,,0,0,3,,,,,2,,,71,94
182064,note_off,,,,,48,0,1,,,,,0,,,75,0
182064,note_on,,,,,0,0,1,,,,,0,,,73,75
182112,note_off,,,,,48,0,1,,,,,0,,,73,0
182112,note_on,,,,,0,0,1,,,,,0,,,71,75
182400,note_on,,,,,0,0,3,,,,,2,,,63,94
182400,note_on,,,,,0,0,4,,,,,3,,,63,88
182400,note_on,,,,,0,0,1,,,,,0,,,69,75
182400,note_off,,,,,288,0,1,,,,,0,,,71,0
182400,note_off,,,,,384,0,4,,,,,3,,,71,0
182400,note_off,,,,,384,0,3,,,,,2,,,71,0
182448,note_on,,,,,0,0,1,,,,,0,,,68,75
182448,note_off,,,,,48,0,1,,,,,0,,,69,0
182496,note_on,,,,,0,0,1,,,,,0,,,66,75
182496,note_off,,,,,48,0,1,,,,,0,,,68,0
182784,note_off,,,,,288,0,1,,,,,0,,,66,0
182784,note_on,,,,,0,0,1,,,,,0,,,68,75
182784,note_off,,,,,384,0,3,,,,,2,,,63,0
182784,note_on,,,,,0,0,3,,,,,2,,,64,94
182784,note_on,,,,,0,0,4,,,,,3,,,64,88
182784,note_off,,,,,384,0,4,,,,,3,,,63,0
182832,note_off,,,,,48,0,1,,,,,0,,,68,0
182832,note_on,,,,,0,0,1,,,,,0,,,69,75
182880,note_off,,,,,48,0,1,,,,,0,,,69,0
182880,note_on,,,,,0,0,1,,,,,0,,,71,75
183168,note_off,,,,,384,0,3,,,,,2,,,64,0
183168,note_off,,,,,384,0,4,,,,,3,,,64,0
183168,note_on,,,,,0,0,3,,,,,2,,,57,94
183168,note_on,,,,,0,0,1,,,,,0,,,73,75
183168,note_off,,,,,288,0,1,,,,,0,,,71,0
183168,note_on,,,,,0,0,4,,,,,3,,,57,88
183216,note_on,,,,,0,0,1,,,,,0,,,75,75
183216,note_off,,,,,48,0,1,,,,,0,,,73,0
183264,note_on,,,,,0,0,1,,,,,0,,,76,75
183264,note_off,,,,,48,0,1,,,,,0,,,75,0
183552,note_on,,,,,0,0,3,,,,,2,,,59,94
183552,note_on,,,,,0,0,4,,,,,3,,,59,88
183552,note_off,,,,,384,0,4,,,,,3,,,57,0
183552,note_off,,,,,288,0,1,,,,,0,,,76,0
183552,note_on,,,,,0,0,1,,,,,0,,,75,75
183552,note_off,,,,,384,0,3,,,,,2,,,57,0
183744,note_on,,,,,2880,0,2,,,,,1,,,78,75
183936,note_off,,,,,384,0,4,,,,,3,,,59,0
183936,note_off,,,,,192,0,2,,,,,1,,,78,0
183936,note_on,,,,,0,0,2,,,,,1,,,75,75
183936,note_off,,,,,384,0,3,,,,,2,,,59,0
184128,note_on,,,,,0,0,2,,,,,1,,,71,75
184128,note_on,,,,,0,0,1,,,,,0,,,78,75
184128,note_off,,,,,576,0,1,,,,,0,,,75,0
184128,note_off,,,,,192,0,2,,,,,1,,,75,0
184320,note_off,,,,,192,0,2,,,,,1,,,71,0
184320,note_on,,,,,0,0,1,,,,,0,,,81,75
184320,note_off,,,,,192,0,1,,,,,0,,,78,0
184368,note_off,,,,,48,0,1,,,,,0,,,81,0
184368,note_on,,,,,0,0,1,,,,,0,,,80,75
184416,note_off,,,,,48,0,1,,,,,0,,,80,0
184416,note_on,,,,,0,0,1,,,,,0,,,81,75
184416,note_on,,,,,0,0,1,,,,,0,,,80,75
184464,note_on,,,,,0,0,1,,,,,0,,,81,75
184464,note_off,,,,,48,0,1,,,,,0,,,80,0
184464,note_off,,,,,0,0,1,,,,,0,,,81,0
184512,note_on,,,,,192,0,2,,,,,1,,,76,75
184512,note_on,,,,,0,0,1,,,,,0,,,83,75
184512,note_off,,,,,48,0,1,,,,,0,,,81,0
184704,note_off,,,,,192,0,2,,,,,1,,,76,0
184704,note_on,,,,,0,0,2,,,,,1,,,75,75
184704,note_off,,,,,192,0,1,,,,,0,,,83,0
184704,note_on,,,,,0,0,1,,,,,0,,,83,75
184896,note_off,,,,,192,0,2,,,,,1,,,75,0
184896,note_on,,,,,0,0,2,,,,,1,,,71,75
185088,note_on,,,,,1152,0,3,,,,,2,,,81,94
185088,note_off,,,,,192,0,2,,,,,1,,,71,0
185088,note_off,,,,,384,0,1,,,,,0,,,83,0
185136,note_on,,,,,0,0,3,,,,,2,,,80,94
185136,note_off,,,,,48,0,3,,,,,2,,,81,0
185184,note_off,,,,,48,0,3,,,,,2,,,80,0
185184,note_on,,,,,0,0,3,,,,,2,,,80,94
185184,note_on,,,,,0,0,3,,,,,2,,,81,94
185232,note_off,,,,,48,0,3,,,,,2,,,80,0
185232,note_off,,,,,0,0,3,,,,,2,,,81,0
185232,note_on,,,,,0,0,3,,,,,2,,,81,94
185280,note_on,,,,,0,0,3,,,,,2,,,83,94
185280,note_off,,,,,48,0,3,,,,,2,,,81,0
185280,note_on,,,,,1344,0,4,,,,,3,,,76,88
185472,note_off,,,,,192,0,3,,,,,2,,,83,0
185472,note_on,,,,,0,0,3,,,,,2,,,83,94
185472,note_on,,,,,0,0,4,,,,,3,,,75,88
185472,note_off,,,,,192,0,4,,,,,3,,,76,0
185664,note_on,,,,,0,0,4,,,,,3,,,71,88
185664,note_off,,,,,192,0,4,,,,,3,,,75,0
185856,note_off,,,,,192,0,4,,,,,3,,,71,0
185856,note_off,,,,,384,0,3,,,,,2,,,83,0
185856,note_on,,,,,768,0,1,,,,,0,,,81,75
185904,note_off,,,,,48,0,1,,,,,0,,,81,0
185904,note_on,,,,,0,0,1,,,,,0,,,80,75
185952,note_off,,,,,48,0,1,,,,,0,,,80,0
185952,note_on,,,,,0,0,1,,,,,0,,,81,75
185952,note_on,,,,,0,0,1,,,,,0,,,80,75
186000,note_off,,,,,0,0,1,,,,,0,,,81,0
186000,note_off,,,,,48,0,1,,,,,0,,,80,0
186000,note_on,,,,,0,0,1,,,,,0,,,81,75
186048,note_off,,,,,48,0,1,,,,,0,,,81,0
186048,note_on,,,,,960,0,2,,,,,1,,,76,75
186048,note_on,,,,,0,0,1,,,,,0,,,83,75
186240,note_on,,,,,0,0,2,,,,,1,,,75,75
186240,note_off,,,,,192,0,2,,,,,1,,,76,0
186240,note_on,,,,,0,0,1,,,,,0,,,83,75
186240,note_off,,,,,192,0,1,,,,,0,,,83,0
186432,note_on,,,,,0,0,2,,,,,1,,,71,75
186432,note_off,,,,,192,0,2,,,,,1,,,75,0
186624,note_on,,,,,768,0,3,,,,,2,,,81,94
186624,note_off,,,,,192,0,2,,,,,1,,,71,0
186624,note_off,,,,,384,0,1,,,,,0,,,83,0
186672,note_off,,,,,48,0,3,,,,,2,,,81,0
186672,note_on,,,,,0,0,3,,,,,2,,,80,94
186720,note_off,,,,,48,0,3,,,,,2,,,80,0
186720,note_on,,,,,0,0,3,,,,,2,,,80,94
186720,note_on,,,,,0,0,3,,,,,2,,,81,94
186768,note_off,,,,,0,0,3,,,,,2,,,81,0
186768,note_on,,,,,0,0,3,,,,,2,,,81,94
186768,note_off,,,,,48,0,3,,,,,2,,,80,0
186816,note_on,,,,,960,0,4,,,,,3,,,76,88
186816,note_on,,,,,0,0,3,,,,,2,,,83,94
186816,note_off,,,,,48,0,3,,,,,2,,,81,0
187008,note_off,,,,,192,0,3,,,,,2,,,83,0
187008,note_off,,,,,192,0,4,,,,,3,,,76,0
187008,note_on,,,,,0,0,4,,,,,3,,,75,88
187008,note_on,,,,,0,0,3,,,,,2,,,83,94
187200,note_off,,,,,192,0,4,,,,,3,,,75,0
187200,note_on,,,,,0,0,4,,,,,3,,,71,88
187392,note_off,,,,,384,0,3,,,,,2,,,83,0
187392,note_on,,,,,768,0,2,,,,,1,,,76,75
187392,note_on,,,,,8832,0,7,,,,,6,,,44,75
187392,note_off,,,,,192,0,4,,,,,3,,,71,0
187392,note_on,,,,,768,0,1,,,,,0,,,83,75
187392,note_on,,,,,8832,0,6,,,,,5,,,56,75
187488,note_on,,,,,0,0,1,,,,,0,,,81,75
187488,note_off,,,,,96,0,1,,,,,0,,,83,0
187584,note_on,,,,,0,0,1,,,,,0,,,80,75
187584,note_on,,,,,192,0,4,,,,,3,,,68,88
187584,note_on,,,,,9024,0,8,,,,,7,,,52,60
187584,note_on,,,,,192,0,3,,,,,2,,,71,94
187584,note_off,,,,,96,0,1,,,,,0,,,81,0
187584,note_on,,,,,9024,0,5,,,,,4,,,64,75
187680,note_off,,,,,96,0,1,,,,,0,,,80,0
187680,note_on,,,,,0,0,1,,,,,0,,,78,75
187776,note_off,,,,,384,0,6,,,,,5,,,56,0
187776,note_off,,,,,96,0,1,,,,,0,,,78,0
187776,note_on,,,,,0,0,1,,,,,0,,,76,75
187776,note_off,,,,,192,0,5,,,,,4,,,64,0
187776,note_on,,,,,0,0,8,,,,,7,,,56,60
187776,note_on,,,,,0,0,5,,,,,4,,,64,75
187776,note_off,,,,,384,0,2,,,,,1,,,76,0
187776,note_off,,,,,384,0,7,,,,,6,,,44,0
187776,note_on,,,,,0,0,4,,,,,3,,,71,88
187776,note_off,,,,,192,0,3,,,,,2,,,71,0
187776,note_on,,,,,0,0,3,,,,,2,,,76,94
187776,note_off,,,,,192,0,4,,,,,3,,,68,0
187776,note_off,,,,,192,0,8,,,,,7,,,52,0
187872,note_on,,,,,0,0,1,,,,,0,,,75,75
187872,note_off,,,,,96,0,1,,,,,0,,,76,0
187968,note_on,,,,,0,0,1,,,,,0,,,73,75
187968,note_off,,,,,96,0,1,,,,,0,,,75,0
187968,note_on,,,,,192,0,6,,,,,5,,,52,75
187968,note_on,,,,,192,0,7,,,,,6,,,40,75
187968,note_on,,,,,192,0,2,,,,,1,,,80,75
188064,note_off,,,,,96,0,1,,,,,0,,,73,0
188064,note_on,,,,,0,0,1,,,,,0,,,71,75
188160,note_off,,,,,96,0,1,,,,,0,,,71,0
188160,note_on,,,,,0,0,1,,,,,0,,,73,75
188160,note_off,,,,,384,0,5,,,,,4,,,64,0
188160,note_off,,,,,192,0,7,,,,,6,,,40,0
188160,note_off,,,,,192,0,2,,,,,1,,,80,0
188160,note_off,,,,,384,0,8,,,,,7,,,56,0
188160,note_on,,,,,0,0,7,,,,,6,,,45,75
188160,note_off,,,,,384,0,4,,,,,3,,,71,0
188160,note_off,,,,,384,0,3,,,,,2,,,76,0
188160,note_off,,,,,192,0,6,,,,,5,,,52,0
188160,note_on,,,,,0,0,6,,,,,5,,,57,75
188160,note_on,,,,,0,0,2,,,,,1,,,73,75
188256,note_off,,,,,96,0,1,,,,,0,,,73,0
188256,note_on,,,,,0,0,1,,,,,0,,,69,75
188352,note_on,,,,,192,0,8,,,,,7,,,45,60
188352,note_on,,,,,0,0,1,,,,,0,,,73,75
188352,note_on,,,,,192,0,5,,,,,4,,,61,75
188352,note_on,,,,,192,0,3,,,,,2,,,69,94
188352,note_off,,,,,96,0,1,,,,,0,,,69,0
188352,note_on,,,,,192,0,4,,,,,3,,,64,88
188448,note_off,,,,,96,0,1,,,,,0,,,73,0
188448,note_on,,,,,0,0,1,,,,,0,,,76,75
188544,note_off,,,,,192,0,5,,,,,4,,,61,0
188544,note_off,,,,,192,0,3,,,,,2,,,69,0
188544,note_on,,,,,0,0,3,,,,,2,,,73,94
188544,note_off,,,,,192,0,4,,,,,3,,,64,0
188544,note_off,,,,,384,0,7,,,,,6,,,45,0
188544,note_off,,,,,384,0,2,,,,,1,,,73,0
188544,note_on,,,,,0,0,8,,,,,7,,,57,60
188544,note_off,,,,,192,0,8,,,,,7,,,45,0
188544,note_on,,,,,0,0,4,,,,,3,,,69,88
188544,note_off,,,,,384,0,6,,,,,5,,,57,0
188544,note_on,,,,,0,0,5,,,,,4,,,64,75
188544,note_off,,,,,96,0,1,,,,,0,,,76,0
188544,note_on,,,,,0,0,1,,,,,0,,,73,75
188640,note_on,,,,,0,0,1,,,,,0,,,69,75
188640,note_off,,,,,96,0,1,,,,,0,,,73,0
188736,note_on,,,,,192,0,2,,,,,1,,,69,75
188736,note_on,,,,,192,0,7,,,,,6,,,49,75
188736,note_on,,,,,192,0,6,,,,,5,,,61,75
188736,note_on,,,,,0,0,1,,,,,0,,,73,75
188736,note_off,,,,,96,0,1,,,,,0,,,69,0
188832,note_off,,,,,96,0,1,,,,,0,,,73,0
188832,note_on,,,,,0,0,1,,,,,0,,,76,75
188928,note_off,,,,,96,0,1,,,,,0,,,76,0
188928,note_on,,,,,0,0,1,,,,,0,,,75,75
188928,note_off,,,,,384,0,5,,,,,4,,,64,0
188928,note_off,,,,,384,0,8,,,,,7,,,57,0
188928,note_on,,,,,0,0,2,,,,,1,,,81,75
188928,note_on,,,,,0,0,6,,,,,5,,,54,75
188928,note_off,,,,,192,0,6,,,,,5,,,61,0
188928,note_off,,,,,192,0,2,,,,,1,,,69,0
188928,note_off,,,,,192,0,7,,,,,6,,,49,0
188928,note_on,,,,,0,0,7,,,,,6,,,42,75
188928,note_off,,,,,384,0,4,,,,,3,,,69,0
188928,note_off,,,,,384,0,3,,,,,2,,,73,0
189024,note_off,,,,,96,0,1,,,,,0,,,75,0
189024,note_on,,,,,0,0,1,,,,,0,,,69,75
189120,note_off,,,,,96,0,1,,,,,0,,,69,0
189120,note_on,,,,,192,0,5,,,,,4,,,63,75
189120,note_on,,,,,192,0,4,,,,,3,,,69,88
189120,note_on,,,,,192,0,8,,,,,7,,,54,60
189120,note_on,,,,,0,0,1,,,,,0,,,75,75
189120,note_on,,,,,192,0,3,,,,,2,,,69,94
189216,note_off,,,,,96,0,1,,,,,0,,,75,0
189216,note_on,,,,,0,0,1,,,,,0,,,78,75
189312,note_on,,,,,0,0,8,,,,,7,,,59,60
189312,note_off,,,,,192,0,8,,,,,7,,,54,0
189312,note_off,,,,,384,0,2,,,,,1,,,81,0
189312,note_off,,,,,192,0,3,,,,,2,,,69,0
189312,note_off,,,,,192,0,4,,,,,3,,,69,0
189312,note_on,,,,,0,0,3,,,,,2,,,75,94
189312,note_off,,,,,384,0,7,,,,,6,,,42,0
189312,note_off,,,,,192,0,5,,,,,4,,,63,0
189312,note_on,,,,,0,0,5,,,,,4,,,66,75
189312,note_off,,,,,384,0,6,,,,,5,,,54,0
189312,note_on,,,,,0,0,1,,,,,0,,,75,75
189312,note_off,,,,,96,0,1,,,,,0,,,78,0
189312,note_on,,,,,0,0,4,,,,,3,,,69,88
189408,note_on,,,,,0,0,1,,,,,0,,,69,75
189408,note_off,,,,,96,0,1,,,,,0,,,75,0
189504,note_on,,,,,192,0,6,,,,,5,,,59,75
189504,note_on,,,,,192,0,7,,,,,6,,,47,75
189504,note_on,,,,,192,0,2,,,,,1,,,66,75
189504,note_on,,,,,0,0,1,,,,,0,,,75,75
189504,note_off,,,,,96,0,1,,,,,0,,,69,0
189600,note_on,,,,,0,0,1,,,,,0,,,78,75
189600,note_off,,,,,96,0,1,,,,,0,,,75,0
189696,note_off,,,,,384,0,3,,,,,2,,,75,0
189696,note_off,,,,,192,0,7,,,,,6,,,47,0
189696,note_on,,,,,0,0,7,,,,,6,,,44,75
189696,note_off,,,,,192,0,6,,,,,5,,,59,0
189696,note_off,,,,,192,0,2,,,,,1,,,66,0
189696,note_on,,,,,0,0,2,,,,,1,,,71,75
189696,note_off,,,,,384,0,4,,,,,3,,,69,0
189696,note_off,,,,,384,0,5,,,,,4,,,66,0
189696,note_on,,,,,0,0,6,,,,,5,,,56,75
189696,note_off,,,,,384,0,8,,,,,7,,,59,0
189696,note_off,,,,,96,0,1,,,,,0,,,78,0
189696,note_on,,,,,0,0,1,,,,,0,,,76,75
189792,note_on,,,,,0,0,1,,,,,0,,,71,75
189792,note_off,,,,,96,0,1,,,,,0,,,76,0
189888,note_on,,,,,192,0,8,,,,,7,,,56,60
189888,note_off,,,,,96,0,1,,,,,0,,,71,0
189888,note_on,,,,,0,0,1,,,,,0,,,76,75
189888,note_on,,,,,192,0,5,,,,,4,,,64,75
189888,note_on,,,,,192,0,3,,,,,2,,,71,94
189888,note_on,,,,,192,0,4,,,,,3,,,68,88
189984,note_on,,,,,0,0,1,,,,,0,,,80,75
189984,note_off,,,,,96,0,1,,,,,0,,,76,0
190080,note_off,,,,,192,0,8,,,,,7,,,56,0
190080,note_off,,,,,192,0,5,,,,,4,,,64,0
190080,note_on,,,,,0,0,4,,,,,3,,,71,88
190080,note_on,,,,,0,0,5,,,,,4,,,64,75
190080,note_on,,,,,0,0,1,,,,,0,,,76,75
190080,note_off,,,,,384,0,7,,,,,6,,,44,0
190080,note_off,,,,,192,0,4,,,,,3,,,68,0
190080,note_off,,,,,192,0,3,,,,,2,,,71,0
190080,note_on,,,,,0,0,3,,,,,2,,,76,94
190080,note_off,,,,,384,0,2,,,,,1,,,71,0
190080,note_off,,,,,384,0,6,,,,,5,,,56,0
190080,note_off,,,,,96,0,1,,,,,0,,,80,0
190080,note_on,,,,,0,0,8,,,,,7,,,56,60
190176,note_on,,,,,0,0,1,,,,,0,,,71,75
190176,note_off,,,,,96,0,1,,,,,0,,,76,0
190272,note_off,,,,,96,0,1,,,,,0,,,71,0
190272,note_on,,,,,192,0,7,,,,,6,,,44,75
190272,note_on,,,,,192,0,6,,,,,5,,,56,75
190272,note_on,,,,,192,0,2,,,,,1,,,76,75
190272,note_on,,,,,0,0,1,,,,,0,,,76,75
190368,note_off,,,,,96,0,1,,,,,0,,,76,0
190368,note_on,,,,,0,0,1,,,,,0,,,80,75
190464,note_off,,,,,384,0,4,,,,,3,,,71,0
190464,note_on,,,,,0,0,2,,,,,1,,,80,75
190464,note_off,,,,,96,0,1,,,,,0,,,80,0
190464,note_on,,,,,0,0,1,,,,,0,,,83,75
190464,note_on,,,,,0,0,6,,,,,5,,,52,75
190464,note_off,,,,,192,0,6,,,,,5,,,56,0
190464,note_off,,,,,192,0,2,,,,,1,,,76,0
190464,note_off,,,,,384,0,3,,,,,2,,,76,0
190464,note_off,,,,,384,0,8,,,,,7,,,56,0
190464,note_off,,,,,384,0,5,,,,,4,,,64,0
190464,note_on,,,,,0,0,7,,,,,6,,,40,75
190464,note_off,,,,,192,0,7,,,,,6,,,44,0
190560,note_on,,,,,0,0,1,,,,,0,,,76,75
190560,note_off,,,,,96,0,1,,,,,0,,,83,0
190656,note_on,,,,,192,0,4,,,,,3,,,71,88
190656,note_on,,,,,192,0,8,,,,,7,,,52,60
190656,note_on,,,,,192,0,3,,,,,2,,,76,94
190656,note_on,,,,,192,0,5,,,,,4,,,68,75
190656,note_on,,,,,0,0,1,,,,,0,,,80,75
190656,note_off,,,,,96,0,1,,,,,0,,,76,0
190752,note_on,,,,,0,0,1,,,,,0,,,83,75
190752,note_off,,,,,96,0,1,,,,,0,,,80,0
190848,note_off,,,,,384,0,2,,,,,1,,,80,0
190848,note_on,,,,,0,0,8,,,,,7,,,52,60
190848,note_off,,,,,192,0,8,,,,,7,,,52,0
190848,note_off,,,,,384,0,6,,,,,5,,,52,0
190848,note_on,,,,,0,0,5,,,,,4,,,71,75
190848,note_off,,,,,192,0,5,,,,,4,,,68,0
190848,note_off,,,,,192,0,4,,,,,3,,,71,0
190848,note_on,,,,,0,0,4,,,,,3,,,76,88
190848,note_off,,,,,384,0,7,,,,,6,,,40,0
190848,note_on,,,,,0,0,1,,,,,0,,,80,75
190848,note_off,,,,,96,0,1,,,,,0,,,83,0
190848,note_on,,,,,0,0,3,,,,,2,,,80,94
190848,note_off,,,,,192,0,3,,,,,2,,,76,0
190944,note_on,,,,,0,0,1,,,,,0,,,76,75
190944,note_off,,,,,96,0,1,,,,,0,,,80,0
191040,note_on,,,,,192,0,6,,,,,5,,,64,75
191040,note_off,,,,,96,0,1,,,,,0,,,76,0
191040,note_on,,,,,0,0,1,,,,,0,,,80,75
191040,note_on,,,,,192,0,7,,,,,6,,,52,75
191040,note_on,,,,,192,0,2,,,,,1,,,80,75
191136,note_on,,,,,0,0,1,,,,,0,,,83,75
191136,note_off,,,,,96,0,1,,,,,0,,,80,0
191232,note_off,,,,,384,0,3,,,,,2,,,80,0
191232,note_off,,,,,96,0,1,,,,,0,,,83,0
191232,note_off,,,,,384,0,4,,,,,3,,,76,0
191232,note_on,,,,,0,0,1,,,,,0,,,73,75
191232,note_on,,,,,0,0,6,,,,,5,,,57,75
191232,note_off,,,,,384,0,8,,,,,7,,,52,0
191232,note_off,,,,,384,0,5,,,,,4,,,71,0
191232,note_off,,,,,192,0,7,,,,,6,,,52,0
191232,note_on,,,,,0,0,7,,,,,6,,,45,75
191232,note_off,,,,,192,0,2,,,,,1,,,80,0
191232,note_on,,,,,0,0,2,,,,,1,,,80,75
191232,note_off,,,,,192,0,6,,,,,5,,,64,0
191328,note_off,,,,,96,0,1,,,,,0,,,73,0
191328,note_on,,,,,0,0,1,,,,,0,,,83,75
191424,note_on,,,,,0,0,1,,,,,0,,,85,75
191424,note_on,,,,,192,0,5,,,,,4,,,71,75
191424,note_off,,,,,96,0,1,,,,,0,,,83,0
191424,note_on,,,,,192,0,3,,,,,2,,,68,94
191424,note_on,,,,,192,0,4,,,,,3,,,73,88
191424,note_on,,,,,192,0,8,,,,,7,,,57,60
191520,note_off,,,,,96,0,1,,,,,0,,,85,0
191520,note_on,,,,,0,0,1,,,,,0,,,83,75
191616,note_off,,,,,96,0,1,,,,,0,,,83,0
191616,note_on,,,,,0,0,1,,,,,0,,,73,75
191616,note_on,,,,,0,0,3,,,,,2,,,68,94
191616,note_off,,,,,192,0,3,,,,,2,,,68,0
191616,note_off,,,,,384,0,7,,,,,6,,,45,0
191616,note_on,,,,,0,0,8,,,,,7,,,57,60
191616,note_on,,,,,0,0,5,,,,,4,,,71,75
191616,note_off,,,,,192,0,5,,,,,4,,,71,0
191616,note_off,,,,,192,0,8,,,,,7,,,57,0
191616,note_off,,,,,384,0,6,,,,,5,,,57,0
191616,note_on,,,,,0,0,4,,,,,3,,,73,88
191616,note_off,,,,,384,0,2,,,,,1,,,80,0
191616,note_off,,,,,192,0,4,,,,,3,,,73,0
191712,note_off,,,,,96,0,1,,,,,0,,,73,0
191712,note_on,,,,,0,0,1,,,,,0,,,83,75
191808,note_on,,,,,192,0,6,,,,,5,,,57,75
191808,note_on,,,,,192,0,2,,,,,1,,,78,75
191808,note_on,,,,,192,0,7,,,,,6,,,45,75
191808,note_off,,,,,96,0,1,,,,,0,,,83,0
191808,note_on,,,,,0,0,1,,,,,0,,,85,75
191904,note_off,,,,,96,0,1,,,,,0,,,85,0
191904,note_on,,,,,0,0,1,,,,,0,,,83,75
192000,note_on,,,,,0,0,2,,,,,1,,,78,75
192000,note_on,,,,,0,0,1,,,,,0,,,73,75
192000,note_off,,,,,384,0,5,,,,,4,,,71,0
192000,note_off,,,,,192,0,6,,,,,5,,,57,0
192000,note_off,,,,,192,0,7,,,,,6,,,45,0
192000,note_on,,,,,0,0,7,,,,,6,,,45,75
192000,note_off,,,,,384,0,8,,,,,7,,,57,0
192000,note_off,,,,,384,0,3,,,,,2,,,68,0
192000,note_off,,,,,384,0,4,,,,,3,,,73,0
192000,note_on,,,,,0,0,6,,,,,5,,,57,75
192000,note_off,,,,,96,0,1,,,,,0,,,83,0
192000,note_off,,,,,192,0,2,,,,,1,,,78,0
192096,note_off,,,,,96,0,1,,,,,0,,,73,0
192096,note_on,,,,,0,0,1,,,,,0,,,81,75
192192,note_on,,,,,192,0,4,,,,,3,,,73,88
192192,note_on,,,,,192,0,3,,,,,2,,,66,94
192192,note_on,,,,,192,0,8,,,,,7,,,54,60
192192,note_on,,,,,192,0,5,,,,,4,,,69,75
192192,note_off,,,,,96,0,1,,,,,0,,,81,0
192192,note_on,,,,,0,0,1,,,,,0,,,85,75
192288,note_on,,,,,0,0,1,,,,,0,,,81,75
192288,note_off,,,,,96,0,1,,,,,0,,,85,0
192384,note_off,,,,,384,0,6,,,,,5,,,57,0
192384,note_on,,,,,0,0,4,,,,,3,,,73,88
192384,note_off,,,,,192,0,3,,,,,2,,,66,0
192384,note_off,,,,,192,0,8,,,,,7,,,54,0
192384,note_on,,,,,0,0,8,,,,,7,,,54,60
192384,note_on,,,,,0,0,1,,,,,0,,,73,75
192384,note_off,,,,,96,0,1,,,,,0,,,81,0
192384,note_off,,,,,192,0,4,,,,,3,,,73,0
192384,note_on,,,,,0,0,3,,,,,2,,,69,94
192384,note_off,,,,,384,0,7,,,,,6,,,45,0
192384,note_off,,,,,384,0,2,,,,,1,,,78,0
192384,note_off,,,,,192,0,5,,,,,4,,,69,0
192384,note_on,,,,,0,0,5,,,,,4,,,69,75
192480,note_on,,,,,0,0,1,,,,,0,,,81,75
192480,note_off,,,,,96,0,1,,,,,0,,,73,0
192576,note_off,,,,,96,0,1,,,,,0,,,81,0
192576,note_on,,,,,0,0,1,,,,,0,,,85,75
192576,note_on,,,,,192,0,6,,,,,5,,,54,75
192576,note_on,,,,,192,0,7,,,,,6,,,42,75
192576,note_on,,,,,192,0,2,,,,,1,,,78,75
192672,note_off,,,,,96,0,1,,,,,0,,,85,0
192672,note_on,,,,,0,0,1,,,,,0,,,81,75
192768,note_on,,,,,0,0,6,,,,,5,,,63,75
192768,note_off,,,,,384,0,4,,,,,3,,,73,0
192768,note_off,,,,,192,0,2,,,,,1,,,78,0
192768,note_off,,,,,192,0,6,,,,,5,,,54,0
192768,note_off,,,,,384,0,8,,,,,7,,,54,0
192768,note_on,,,,,0,0,7,,,,,6,,,51,75
192768,note_off,,,,,384,0,5,,,,,4,,,69,0
192768,note_off,,,,,192,0,7,,,,,6,,,42,0
192768,note_on,,,,,0,0,1,,,,,0,,,71,75
192768,note_on,,,,,0,0,2,,,,,1,,,78,75
192768,note_off,,,,,384,0,3,,,,,2,,,69,0
192768,note_off,,,,,96,0,1,,,,,0,,,81,0
192864,note_on,,,,,0,0,1,,,,,0,,,81,75
192864,note_off,,,,,96,0,1,,,,,0,,,71,0
192960,note_on,,,,,192,0,3,,,,,2,,,69,94
192960,note_on,,,,,192,0,8,,,,,7,,,51,60
192960,note_on,,,,,0,0,1,,,,,0,,,83,75
192960,note_on,,,,,192,0,4,,,,,3,,,71,88
192960,note_off,,,,,96,0,1,,,,,0,,,81,0
192960,note_on,,,,,192,0,5,,,,,4,,,66,75
193056,note_off,,,,,96,0,1,,,,,0,,,83,0
193056,note_on,,,,,0,0,1,,,,,0,,,81,75
193152,note_off,,,,,192,0,3,,,,,2,,,69,0
193152,note_on,,,,,0,0,3,,,,,2,,,69,94
193152,note_off,,,,,384,0,2,,,,,1,,,78,0
193152,note_off,,,,,192,0,4,,,,,3,,,71,0
193152,note_on,,,,,0,0,8,,,,,7,,,51,60
193152,note_on,,,,,0,0,4,,,,,3,,,71,88
193152,note_off,,,,,192,0,8,,,,,7,,,51,0
193152,note_off,,,,,384,0,7,,,,,6,,,51,0
193152,note_off,,,,,384,0,6,,,,,5,,,63,0
193152,note_off,,,,,96,0,1,,,,,0,,,81,0
193152,note_on,,,,,0,0,1,,,,,0,,,71,75
193152,note_on,,,,,0,0,5,,,,,4,,,66,75
193152,note_off,,,,,192,0,5,,,,,4,,,66,0
193248,note_off,,,,,96,0,1,,,,,0,,,71,0
193248,note_on,,,,,0,0,1,,,,,0,,,81,75
193344,note_on,,,,,192,0,6,,,,,5,,,63,75
193344,note_on,,,,,0,0,1,,,,,0,,,83,75
193344,note_on,,,,,192,0,2,,,,,1,,,78,75
193344,note_on,,,,,192,0,7,,,,,6,,,51,75
193344,note_off,,,,,96,0,1,,,,,0,,,81,0
193440,note_off,,,,,96,0,1,,,,,0,,,83,0
193440,note_on,,,,,0,0,1,,,,,0,,,81,75
193536,note_off,,,,,384,0,4,,,,,3,,,71,0
193536,note_off,,,,,192,0,6,,,,,5,,,63,0
193536,note_off,,,,,192,0,2,,,,,1,,,78,0
193536,note_on,,,,,0,0,1,,,,,0,,,71,75
193536,note_off,,,,,96,0,1,,,,,0,,,81,0
193536,note_on,,,,,0,0,2,,,,,1,,,76,75
193536,note_off,,,,,384,0,8,,,,,7,,,51,0
193536,note_on,,,,,0,0,6,,,,,5,,,64,75
193536,note_off,,,,,192,0,7,,,,,6,,,51,0
193536,note_off,,,,,384,0,5,,,,,4,,,66,0
193536,note_on,,,,,0,0,7,,,,,6,,,52,75
193536,note_off,,,,,384,0,3,,,,,2,,,69,0
193632,note_off,,,,,96,0,1,,,,,0,,,71,0
193632,note_on,,,,,0,0,1,,,,,0,,,80,75
193728,note_off,,,,,96,0,1,,,,,0,,,80,0
193728,note_on,,,,,0,0,1,,,,,0,,,83,75
193728,note_on,,,,,192,0,4,,,,,3,,,71,88
193728,note_on,,,,,192,0,5,,,,,4,,,64,75
193728,note_on,,,,,192,0,8,,,,,7,,,52,60
193728,note_on,,,,,192,0,3,,,,,2,,,68,94
193824,note_on,,,,,0,0,1,,,,,0,,,80,75
193824,note_off,,,,,96,0,1,,,,,0,,,83,0
193920,note_off,,,,,192,0,5,,,,,4,,,64,0
193920,note_on,,,,,0,0,5,,,,,4,,,64,75
193920,note_off,,,,,384,0,7,,,,,6,,,52,0
193920,note_off,,,,,384,0,6,,,,,5,,,64,0
193920,note_off,,,,,384,0,2,,,,,1,,,76,0
193920,note_off,,,,,192,0,8,,,,,7,,,52,0
193920,note_on,,,,,0,0,8,,,,,7,,,52,60
193920,note_on,,,,,0,0,4,,,,,3,,,71,88
193920,note_off,,,,,192,0,3,,,,,2,,,68,0
193920,note_off,,,,,96,0,1,,,,,0,,,80,0
193920,note_on,,,,,0,0,3,,,,,2,,,68,94
193920,note_off,,,,,192,0,4,,,,,3,,,71,0
193920,note_on,,,,,0,0,1,,,,,0,,,71,75
194016,note_off,,,,,96,0,1,,,,,0,,,71,0
194016,note_on,,,,,0,0,1,,,,,0,,,80,75
194112,note_on,,,,,192,0,2,,,,,1,,,76,75
194112,note_off,,,,,96,0,1,,,,,0,,,80,0
194112,note_on,,,,,192,0,6,,,,,5,,,64,75
194112,note_on,,,,,192,0,7,,,,,6,,,52,75
194112,note_on,,,,,0,0,1,,,,,0,,,83,75
194208,note_off,,,,,96,0,1,,,,,0,,,83,0
194208,note_on,,,,,0,0,1,,,,,0,,,80,75
194304,note_off,,,,,384,0,8,,,,,7,,,52,0
194304,note_off,,,,,384,0,5,,,,,4,,,64,0
194304,note_off,,,,,96,0,1,,,,,0,,,80,0
194304,note_on,,,,,0,0,1,,,,,0,,,69,75
194304,note_off,,,,,384,0,3,,,,,2,,,68,0
194304,note_on,,,,,0,0,6,,,,,5,,,61,75
194304,note_off,,,,,192,0,6,,,,,5,,,64,0
194304,note_on,,,,,0,0,7,,,,,6,,,49,75
194304,note_off,,,,,192,0,7,,,,,6,,,52,0
194304,note_off,,,,,192,0,2,,,,,1,,,76,0
194304,note_on,,,,,0,0,2,,,,,1,,,76,75
194304,note_off,,,,,384,0,4,,,,,3,,,71,0
194400,note_on,,,,,0,0,1,,,,,0,,,80,75
194400,note_off,,,,,96,0,1,,,,,0,,,69,0
194496,note_on,,,,,0,0,1,,,,,0,,,81,75
194496,note_off,,,,,96,0,1,,,,,0,,,80,0
194496,note_on,,,,,192,0,4,,,,,3,,,69,88
194496,note_on,,,,,192,0,8,,,,,7,,,49,60
194496,note_on,,,,,192,0,5,,,,,4,,,64,75
194496,note_on,,,,,192,0,3,,,,,2,,,68,94
194592,note_off,,,,,96,0,1,,,,,0,,,81,0
194592,note_on,,,,,0,0,1,,,,,0,,,80,75
194688,note_off,,,,,192,0,8,,,,,7,,,49,0
194688,note_on,,,,,0,0,8,,,,,7,,,49,60
194688,note_off,,,,,384,0,2,,,,,1,,,76,0
194688,note_on,,,,,0,0,3,,,,,2,,,68,94
194688,note_off,,,,,192,0,4,,,,,3,,,69,0
194688,note_off,,,,,384,0,7,,,,,6,,,49,0
194688,note_on,,,,,0,0,1,,,,,0,,,69,75
194688,note_on,,,,,0,0,5,,,,,4,,,64,75
194688,note_off,,,,,192,0,5,,,,,4,,,64,0
194688,note_off,,,,,192,0,3,,,,,2,,,68,0
194688,note_on,,,,,0,0,4,,,,,3,,,69,88
194688,note_off,,,,,96,0,1,,,,,0,,,80,0
194688,note_off,,,,,384,0,6,,,,,5,,,61,0
194784,note_off,,,,,96,0,1,,,,,0,,,69,0
194784,note_on,,,,,0,0,1,,,,,0,,,80,75
194880,note_on,,,,,192,0,7,,,,,6,,,49,75
194880,note_on,,,,,192,0,6,,,,,5,,,61,75
194880,note_on,,,,,192,0,2,,,,,1,,,76,75
194880,note_off,,,,,96,0,1,,,,,0,,,80,0
194880,note_on,,,,,0,0,1,,,,,0,,,81,75
194976,note_on,,,,,0,0,1,,,,,0,,,80,75
194976,note_off,,,,,96,0,1,,,,,0,,,81,0
195072,note_on,,,,,0,0,1,,,,,0,,,71,75
195072,note_on,,,,,0,0,2,,,,,1,,,78,75
195072,note_off,,,,,384,0,8,,,,,7,,,49,0
195072,note_off,,,,,384,0,3,,,,,2,,,68,0
195072,note_off,,,,,384,0,5,,,,,4,,,64,0
195072,note_off,,,,,384,0,4,,,,,3,,,69,0
195072,note_on,,,,,0,0,6,,,,,5,,,63,75
195072,note_off,,,,,192,0,6,,,,,5,,,61,0
195072,note_off,,,,,192,0,2,,,,,1,,,76,0
195072,note_on,,,,,0,0,7,,,,,6,,,51,75
195072,note_off,,,,,96,0,1,,,,,0,,,80,0
195072,note_off,,,,,192,0,7,,,,,6,,,49,0
195168,note_on,,,,,0,0,1,,,,,0,,,78,75
195168,note_off,,,,,96,0,1,,,,,0,,,71,0
195264,note_on,,,,,192,0,5,,,,,4,,,59,75
195264,note_on,,,,,192,0,3,,,,,2,,,66,94
195264,note_on,,,,,192,0,8,,,,,7,,,51,60
195264,note_off,,,,,96,0,1,,,,,0,,,78,0
195264,note_on,,,,,0,0,1,,,,,0,,,81,75
195264,note_on,,,,,192,0,4,,,,,3,,,69,88
195360,note_off,,,,,96,0,1,,,,,0,,,81,0
195360,note_on,,,,,0,0,1,,,,,0,,,78,75
195456,note_off,,,,,192,0,8,,,,,7,,,51,0
195456,note_off,,,,,384,0,7,,,,,6,,,51,0
195456,note_off,,,,,96,0,1,,,,,0,,,78,0
195456,note_on,,,,,0,0,1,,,,,0,,,71,75
195456,note_off,,,,,192,0,5,,,,,4,,,59,0
195456,note_on,,,,,0,0,5,,,,,4,,,59,75
195456,note_on,,,,,0,0,8,,,,,7,,,51,60
195456,note_off,,,,,384,0,6,,,,,5,,,63,0
195456,note_off,,,,,192,0,4,,,,,3,,,69,0
195456,note_off,,,,,192,0,3,,,,,2,,,66,0
195456,note_off,,,,,384,0,2,,,,,1,,,78,0
195456,note_on,,,,,0,0,4,,,,,3,,,69,88
195456,note_on,,,,,0,0,3,,,,,2,,,66,94
195552,note_off,,,,,96,0,1,,,,,0,,,71,0
195552,note_on,,,,,0,0,1,,,,,0,,,78,75
195648,note_on,,,,,192,0,7,,,,,6,,,51,75
195648,note_on,,,,,192,0,2,,,,,1,,,78,75
195648,note_off,,,,,96,0,1,,,,,0,,,78,0
195648,note_on,,,,,192,0,6,,,,,5,,,63,75
195648,note_on,,,,,0,0,1,,,,,0,,,81,75
195744,note_on,,,,,0,0,1,,,,,0,,,78,75
195744,note_off,,,,,96,0,1,,,,,0,,,81,0
195840,note_on,,,,,0,0,2,,,,,1,,,68,75
195840,note_off,,,,,96,0,1,,,,,0,,,78,0
195840,note_off,,,,,192,0,2,,,,,1,,,78,0
195840,note_off,,,,,192,0,7,,,,,6,,,51,0
195840,note_on,,,,,0,0,7,,,,,6,,,52,75
195840,note_on,,,,,0,0,1,,,,,0,,,71,75
195840,note_off,,,,,192,0,6,,,,,5,,,63,0
195840,note_off,,,,,384,0,3,,,,,2,,,66,0
195840,note_off,,,,,384,0,5,,,,,4,,,59,0
195840,note_off,,,,,384,0,8,,,,,7,,,51,0
195840,note_off,,,,,384,0,4,,,,,3,,,69,0
195840,note_on,,,,,0,0,6,,,,,5,,,64,75
195936,note_off,,,,,96,0,1,,,,,0,,,71,0
195936,note_on,,,,,0,0,1,,,,,0,,,78,75
196032,note_on,,,,,0,0,1,,,,,0,,,80,75
196032,note_off,,,,,96,0,1,,,,,0,,,78,0
196032,note_on,,,,,192,0,3,,,,,2,,,66,94
196032,note_on,,,,,192,0,4,,,,,3,,,68,88
196032,note_on,,,,,192,0,8,,,,,7,,,52,60
196032,note_on,,,,,192,0,5,,,,,4,,,59,75
196128,note_off,,,,,96,0,1,,,,,0,,,80,0
196128,note_on,,,,,0,0,1,,,,,0,,,78,75
196224,note_off,,,,,96,0,1,,,,,0,,,78,0
196224,note_on,,,,,0,0,1,,,,,0,,,71,75
196224,note_off,,,,,384,0,6,,,,,5,,,64,0
196224,note_off,,,,,192,0,3,,,,,2,,,66,0
196224,note_on,,,,,0,0,3,,,,,2,,,66,94
196224,note_off,,,,,384,0,2,,,,,1,,,68,0
196224,note_on,,,,,0,0,5,,,,,4,,,59,75
196224,note_off,,,,,192,0,5,,,,,4,,,59,0
196224,note_off,,,,,192,0,8,,,,,7,,,52,0
196224,note_on,,,,,0,0,8,,,,,7,,,52,60
196224,note_off,,,,,192,0,4,,,,,3,,,68,0
196224,note_on,,,,,0,0,4,,,,,3,,,68,88
196224,note_off,,,,,384,0,7,,,,,6,,,52,0
196320,note_on,,,,,0,0,1,,,,,0,,,78,75
196320,note_off,,,,,96,0,1,,,,,0,,,71,0
196416,note_on,,,,,0,0,1,,,,,0,,,80,75
196416,note_off,,,,,96,0,1,,,,,0,,,78,0
196416,note_on,,,,,192,0,7,,,,,6,,,52,75
196416,note_on,,,,,192,0,6,,,,,5,,,64,75
196416,note_on,,,,,192,0,2,,,,,1,,,71,75
196512,note_off,,,,,96,0,1,,,,,0,,,80,0
196512,note_on,,,,,0,0,1,,,,,0,,,78,75
196608,note_on,,,,,0,0,6,,,,,5,,,56,75
196608,note_off,,,,,384,0,8,,,,,7,,,52,0
196608,note_off,,,,,192,0,6,,,,,5,,,64,0
196608,note_on,,,,,0,0,1,,,,,0,,,71,75
196608,note_off,,,,,96,0,1,,,,,0,,,78,0
196608,note_off,,,,,384,0,4,,,,,3,,,68,0
196608,note_off,,,,,384,0,3,,,,,2,,,66,0
196608,note_on,,,,,0,0,7,,,,,6,,,44,75
196608,note_off,,,,,192,0,7,,,,,6,,,52,0
196608,note_on,,,,,0,0,2,,,,,1,,,76,75
196608,note_off,,,,,192,0,2,,,,,1,,,71,0
196608,note_off,,,,,384,0,5,,,,,4,,,59,0
196704,note_on,,,,,0,0,1,,,,,0,,,76,75
196704,note_off,,,,,96,0,1,,,,,0,,,71,0
196800,note_on,,,,,192,0,5,,,,,4,,,59,75
196800,note_off,,,,,96,0,1,,,,,0,,,76,0
196800,note_on,,,,,192,0,4,,,,,3,,,68,88
196800,note_on,,,,,0,0,1,,,,,0,,,80,75
196800,note_on,,,,,192,0,3,,,,,2,,,64,94
196800,note_on,,,,,192,0,8,,,,,7,,,56,60
196896,note_off,,,,,96,0,1,,,,,0,,,80,0
196896,note_on,,,,,0,0,1,,,,,0,,,76,75
196992,note_off,,,,,96,0,1,,,,,0,,,76,0
196992,note_on,,,,,0,0,1,,,,,0,,,71,75
196992,note_off,,,,,384,0,2,,,,,1,,,76,0
196992,note_off,,,,,192,0,4,,,,,3,,,68,0
196992,note_off,,,,,384,0,7,,,,,6,,,44,0
196992,note_off,,,,,384,0,6,,,,,5,,,56,0
196992,note_off,,,,,192,0,8,,,,,7,,,56,0
196992,note_on,,,,,0,0,8,,,,,7,,,56,60
196992,note_off,,,,,192,0,3,,,,,2,,,64,0
196992,note_on,,,,,0,0,3,,,,,2,,,64,94
196992,note_on,,,,,0,0,5,,,,,4,,,59,75
196992,note_off,,,,,192,0,5,,,,,4,,,59,0
196992,note_on,,,,,0,0,4,,,,,3,,,68,88
197088,note_on,,,,,0,0,1,,,,,0,,,75,75
197088,note_off,,,,,96,0,1,,,,,0,,,71,0
197184,note_on,,,,,192,0,7,,,,,6,,,44,75
197184,note_off,,,,,96,0,1,,,,,0,,,75,0
197184,note_on,,,,,192,0,6,,,,,5,,,56,75
197184,note_on,,,,,0,0,1,,,,,0,,,80,75
197184,note_on,,,,,192,0,2,,,,,1,,,80,75
197280,note_off,,,,,96,0,1,,,,,0,,,80,0
197280,note_on,,,,,0,0,1,,,,,0,,,75,75
197376,note_off,,,,,192,0,7,,,,,6,,,44,0
197376,note_off,,,,,192,0,2,,,,,1,,,80,0
197376,note_on,,,,,0,0,2,,,,,1,,,73,75
197376,note_off,,,,,192,0,6,,,,,5,,,56,0
197376,note_off,,,,,384,0,3,,,,,2,,,64,0
197376,note_off,,,,,384,0,8,,,,,7,,,56,0
197376,note_off,,,,,384,0,4,,,,,3,,,68,0
197376,note_on,,,,,0,0,6,,,,,5,,,57,75
197376,note_off,,,,,384,0,5,,,,,4,,,59,0
197376,note_on,,,,,0,0,7,,,,,6,,,45,75
197376,note_off,,,,,96,0,1,,,,,0,,,75,0
197376,note_on,,,,,0,0,1,,,,,0,,,71,75
197472,note_off,,,,,96,0,1,,,,,0,,,71,0
197472,note_on,,,,,0,0,1,,,,,0,,,73,75
197568,note_on,,,,,192,0,8,,,,,7,,,57,60
197568,note_on,,,,,192,0,3,,,,,2,,,73,94
197568,note_on,,,,,0,0,1,,,,,0,,,80,75
197568,note_off,,,,,96,0,1,,,,,0,,,73,0
197568,note_on,,,,,192,0,4,,,,,3,,,68,88
197568,note_on,,,,,192,0,5,,,,,4,,,64,75
197664,note_on,,,,,0,0,1,,,,,0,,,73,75
197664,note_off,,,,,96,0,1,,,,,0,,,80,0
197760,note_off,,,,,384,0,7,,,,,6,,,45,0
197760,note_on,,,,,0,0,3,,,,,2,,,73,94
197760,note_off,,,,,192,0,3,,,,,2,,,73,0
197760,note_off,,,,,192,0,8,,,,,7,,,57,0
197760,note_on,,,,,0,0,5,,,,,4,,,64,75
197760,note_on,,,,,0,0,8,,,,,7,,,57,60
197760,note_off,,,,,384,0,6,,,,,5,,,57,0
197760,note_off,,,,,192,0,4,,,,,3,,,68,0
197760,note_on,,,,,0,0,4,,,,,3,,,68,88
197760,note_off,,,,,384,0,2,,,,,1,,,73,0
197760,note_on,,,,,0,0,1,,,,,0,,,71,75
197760,note_off,,,,,96,0,1,,,,,0,,,73,0
197760,note_off,,,,,192,0,5,,,,,4,,,64,0
197856,note_on,,,,,0,0,1,,,,,0,,,73,75
197856,note_off,,,,,96,0,1,,,,,0,,,71,0
197952,note_on,,,,,192,0,2,,,,,1,,,64,75
197952,note_on,,,,,192,0,7,,,,,6,,,45,75
197952,note_off,,,,,96,0,1,,,,,0,,,73,0
197952,note_on,,,,,192,0,6,,,,,5,,,57,75
197952,note_on,,,,,0,0,1,,,,,0,,,80,75
198048,note_on,,,,,0,0,1,,,,,0,,,73,75
198048,note_off,,,,,96,0,1,,,,,0,,,80,0
198144,note_off,,,,,192,0,6,,,,,5,,,57,0
198144,note_off,,,,,384,0,8,,,,,7,,,57,0
198144,note_off,,,,,96,0,1,,,,,0,,,73,0
198144,note_on,,,,,0,0,2,,,,,1,,,66,75
198144,note_off,,,,,192,0,2,,,,,1,,,64,0
198144,note_on,,,,,0,0,6,,,,,5,,,57,75
198144,note_off,,,,,384,0,3,,,,,2,,,73,0
198144,note_off,,,,,384,0,4,,,,,3,,,68,0
198144,note_off,,,,,192,0,7,,,,,6,,,45,0
198144,note_on,,,,,0,0,7,,,,,6,,,45,75
198144,note_on,,,,,0,0,1,,,,,0,,,69,75
198144,note_off,,,,,384,0,5,,,,,4,,,64,0
198240,note_on,,,,,0,0,1,,,,,0,,,73,75
198240,note_off,,,,,96,0,1,,,,,0,,,69,0
198336,note_on,,,,,192,0,4,,,,,3,,,66,88
198336,note_off,,,,,96,0,1,,,,,0,,,73,0
198336,note_on,,,,,0,0,1,,,,,0,,,78,75
198336,note_on,,,,,192,0,8,,,,,7,,,45,60
198336,note_on,,,,,192,0,5,,,,,4,,,64,75
198336,note_on,,,,,192,0,3,,,,,2,,,73,94
198432,note_off,,,,,96,0,1,,,,,0,,,78,0
198432,note_on,,,,,0,0,1,,,,,0,,,73,75
198528,note_off,,,,,192,0,3,,,,,2,,,73,0
198528,note_on,,,,,0,0,3,,,,,2,,,73,94
198528,note_off,,,,,192,0,5,,,,,4,,,64,0
198528,note_on,,,,,0,0,4,,,,,3,,,66,88
198528,note_on,,,,,0,0,5,,,,,4,,,64,75
198528,note_off,,,,,192,0,4,,,,,3,,,66,0
198528,note_off,,,,,192,0,8,,,,,7,,,45,0
198528,note_on,,,,,0,0,8,,,,,7,,,45,60
198528,note_off,,,,,384,0,2,,,,,1,,,66,0
198528,note_off,,,,,384,0,6,,,,,5,,,57,0
198528,note_off,,,,,96,0,1,,,,,0,,,73,0
198528,note_on,,,,,0,0,1,,,,,0,,,69,75
198528,note_off,,,,,384,0,7,,,,,6,,,45,0
198624,note_off,,,,,96,0,1,,,,,0,,,69,0
198624,note_on,,,,,0,0,1,,,,,0,,,73,75
198720,note_on,,,,,192,0,2,,,,,1,,,73,75
198720,note_on,,,,,192,0,6,,,,,5,,,57,75
198720,note_on,,,,,192,0,7,,,,,6,,,45,75
198720,note_on,,,,,0,0,1,,,,,0,,,76,75
198720,note_off,,,,,96,0,1,,,,,0,,,73,0
198816,note_off,,,,,96,0,1,,,,,0,,,76,0
198816,note_on,,,,,0,0,1,,,,,0,,,73,75
198912,note_off,,,,,96,0,1,,,,,0,,,73,0
198912,note_on,,,,,0,0,1,,,,,0,,,69,75
198912,note_on,,,,,0,0,2,,,,,1,,,66,75
198912,note_off,,,,,384,0,4,,,,,3,,,66,0
198912,note_off,,,,,384,0,5,,,,,4,,,64,0
198912,note_off,,,,,384,0,8,,,,,7,,,45,0
198912,note_off,,,,,192,0,6,,,,,5,,,57,0
198912,note_on,,,,,0,0,6,,,,,5,,,59,75
198912,note_off,,,,,384,0,3,,,,,2,,,73,0
198912,note_on,,,,,0,0,7,,,,,6,,,47,75
198912,note_off,,,,,192,0,2,,,,,1,,,73,0
198912,note_off,,,,,192,0,7,,,,,6,,,45,0
199008,note_on,,,,,0,0,1,,,,,0,,,71,75
199008,note_off,,,,,96,0,1,,,,,0,,,69,0
199104,note_off,,,,,96,0,1,,,,,0,,,71,0
199104,note_on,,,,,0,0,1,,,,,0,,,75,75
199104,note_on,,,,,192,0,4,,,,,3,,,66,88
199104,note_on,,,,,192,0,8,,,,,7,,,47,60
199104,note_on,,,,,192,0,5,,,,,4,,,63,75
199104,note_on,,,,,192,0,3,,,,,2,,,69,94
199200,note_on,,,,,0,0,1,,,,,0,,,71,75
199200,note_off,,,,,96,0,1,,,,,0,,,75,0
199296,note_off,,,,,192,0,8,,,,,7,,,47,0
199296,note_on,,,,,0,0,8,,,,,7,,,47,60
199296,note_off,,,,,384,0,6,,,,,5,,,59,0
199296,note_on,,,,,0,0,3,,,,,2,,,69,94
199296,note_off,,,,,192,0,3,,,,,2,,,69,0
199296,note_off,,,,,192,0,4,,,,,3,,,66,0
199296,note_on,,,,,0,0,5,,,,,4,,,63,75
199296,note_on,,,,,0,0,4,,,,,3,,,66,88
199296,note_off,,,,,384,0,2,,,,,1,,,66,0
199296,note_off,,,,,96,0,1,,,,,0,,,71,0
199296,note_on,,,,,0,0,1,,,,,0,,,69,75
199296,note_off,,,,,384,0,7,,,,,6,,,47,0
199296,note_off,,,,,192,0,5,,,,,4,,,63,0
199392,note_off,,,,,96,0,1,,,,,0,,,69,0
199392,note_on,,,,,0,0,1,,,,,0,,,71,75
199488,note_on,,,,,192,0,7,,,,,6,,,47,75
199488,note_on,,,,,192,0,2,,,,,1,,,78,75
199488,note_on,,,,,192,0,6,,,,,5,,,59,75
199488,note_off,,,,,96,0,1,,,,,0,,,71,0
199488,note_on,,,,,0,0,1,,,,,0,,,75,75
199584,note_off,,,,,96,0,1,,,,,0,,,75,0
199584,note_on,,,,,0,0,1,,,,,0,,,71,75
199680,note_on,,,,,0,0,2,,,,,1,,,71,75
199680,note_off,,,,,192,0,2,,,,,1,,,78,0
199680,note_off,,,,,384,0,5,,,,,4,,,63,0
199680,note_off,,,,,384,0,3,,,,,2,,,69,0
199680,note_on,,,,,0,0,7,,,,,6,,,47,75
199680,note_off,,,,,192,0,7,,,,,6,,,47,0
199680,note_off,,,,,384,0,4,,,,,3,,,66,0
199680,note_on,,,,,0,0,1,,,,,0,,,68,75
199680,note_on,,,,,0,0,6,,,,,5,,,59,75
199680,note_off,,,,,192,0,6,,,,,5,,,59,0
199680,note_off,,,,,96,0,1,,,,,0,,,71,0
199680,note_off,,,,,384,0,8,,,,,7,,,47,0
199776,note_on,,,,,0,0,1,,,,,0,,,71,75
199776,note_off,,,,,96,0,1,,,,,0,,,68,0
199872,note_on,,,,,0,0,1,,,,,0,,,76,75
199872,note_off,,,,,96,0,1,,,,,0,,,71,0
199872,note_on,,,,,192,0,3,,,,,2,,,68,94
199872,note_on,,,,,192,0,5,,,,,4,,,59,75
199872,note_on,,,,,192,0,4,,,,,3,,,64,88
199872,note_on,,,,,192,0,8,,,,,7,,,47,60
199968,note_off,,,,,96,0,1,,,,,0,,,76,0
199968,note_on,,,,,0,0,1,,,,,0,,,71,75
200064,note_on,,,,,0,0,5,,,,,4,,,59,75
200064,note_off,,,,,384,0,7,,,,,6,,,47,0
200064,note_off,,,,,384,0,2,,,,,1,,,71,0
200064,note_off,,,,,192,0,5,,,,,4,,,59,0
200064,note_on,,,,,0,0,3,,,,,2,,,68,94
200064,note_on,,,,,0,0,1,,,,,0,,,68,75
200064,note_off,,,,,192,0,3,,,,,2,,,68,0
200064,note_off,,,,,192,0,8,,,,,7,,,47,0
200064,note_on,,,,,0,0,8,,,,,7,,,47,60
200064,note_off,,,,,384,0,6,,,,,5,,,59,0
200064,note_off,,,,,192,0,4,,,,,3,,,64,0
200064,note_off,,,,,96,0,1,,,,,0,,,71,0
200064,note_on,,,,,0,0,4,,,,,3,,,64,88
200160,note_on,,,,,0,0,1,,,,,0,,,71,75
200160,note_off,,,,,96,0,1,,,,,0,,,68,0
200256,note_on,,,,,192,0,7,,,,,6,,,47,75
200256,note_on,,,,,0,0,1,,,,,0,,,76,75
200256,note_on,,,,,192,0,6,,,,,5,,,59,75
200256,note_off,,,,,96,0,1,,,,,0,,,71,0
200256,note_on,,,,,192,0,2,,,,,1,,,68,75
200352,note_on,,,,,0,0,1,,,,,0,,,71,75
200352,note_off,,,,,96,0,1,,,,,0,,,76,0
200448,note_off,,,,,384,0,4,,,,,3,,,64,0
200448,note_on,,,,,0,0,6,,,,,5,,,59,75
200448,note_off,,,,,192,0,6,,,,,5,,,59,0
200448,note_off,,,,,384,0,8,,,,,7,,,47,0
200448,note_off,,,,,384,0,3,,,,,2,,,68,0
200448,note_off,,,,,96,0,1,,,,,0,,,71,0
200448,note_off,,,,,384,0,5,,,,,4,,,59,0
200448,note_on,,,,,0,0,1,,,,,0,,,66,75
200448,note_on,,,,,0,0,2,,,,,1,,,63,75
200448,note_on,,,,,0,0,7,,,,,6,,,47,75
200448,note_off,,,,,192,0,7,,,,,6,,,47,0
200448,note_off,,,,,192,0,2,,,,,1,,,68,0
200544,note_on,,,,,0,0,1,,,,,0,,,69,75
200544,note_off,,,,,96,0,1,,,,,0,,,66,0
200640,note_on,,,,,192,0,3,,,,,2,,,66,94
200640,note_on,,,,,192,0,5,,,,,4,,,57,75
200640,note_on,,,,,0,0,1,,,,,0,,,71,75
200640,note_off,,,,,96,0,1,,,,,0,,,69,0
200640,note_on,,,,,192,0,4,,,,,3,,,63,88
200640,note_on,,,,,192,0,8,,,,,7,,,47,60
200736,note_on,,,,,0,0,1,,,,,0,,,69,75
200736,note_off,,,,,96,0,1,,,,,0,,,71,0
200832,note_on,,,,,0,0,3,,,,,2,,,66,94
200832,note_off,,,,,192,0,4,,,,,3,,,63,0
200832,note_off,,,,,192,0,8,,,,,7,,,47,0
200832,note_on,,,,,0,0,8,,,,,7,,,47,60
200832,note_off,,,,,384,0,6,,,,,5,,,59,0
200832,note_off,,,,,384,0,2,,,,,1,,,63,0
200832,note_off,,,,,192,0,3,,,,,2,,,66,0
200832,note_on,,,,,0,0,4,,,,,3,,,63,88
200832,note_off,,,,,192,0,5,,,,,4,,,57,0
200832,note_off,,,,,96,0,1,,,,,0,,,69,0
200832,note_on,,,,,0,0,1,,,,,0,,,66,75
200832,note_on,,,,,0,0,5,,,,,4,,,57,75
200832,note_off,,,,,384,0,7,,,,,6,,,47,0
200928,note_on,,,,,0,0,1,,,,,0,,,69,75
200928,note_off,,,,,96,0,1,,,,,0,,,66,0
201024,note_on,,,,,192,0,7,,,,,6,,,47,75
201024,note_on,,,,,0,0,1,,,,,0,,,71,75
201024,note_on,,,,,192,0,2,,,,,1,,,75,75
201024,note_on,,,,,192,0,6,,,,,5,,,59,75
201024,note_off,,,,,96,0,1,,,,,0,,,69,0
201120,note_on,,,,,0,0,1,,,,,0,,,69,75
201120,note_off,,,,,96,0,1,,,,,0,,,71,0
201216,note_on,,,,,0,0,1,,,,,0,,,64,75
201216,note_on,,,,,0,0,6,,,,,5,,,59,75
201216,note_off,,,,,384,0,5,,,,,4,,,57,0
201216,note_off,,,,,96,0,1,,,,,0,,,69,0
201216,note_off,,,,,384,0,3,,,,,2,,,66,0
201216,note_off,,,,,192,0,6,,,,,5,,,59,0
201216,note_on,,,,,0,0,7,,,,,6,,,47,75
201216,note_on,,,,,0,0,2,,,,,1,,,71,75
201216,note_off,,,,,192,0,7,,,,,6,,,47,0
201216,note_off,,,,,384,0,8,,,,,7,,,47,0
201216,note_off,,,,,192,0,2,,,,,1,,,75,0
201216,note_off,,,,,384,0,4,,,,,3,,,63,0
201312,note_off,,,,,96,0,1,,,,,0,,,64,0
201312,note_on,,,,,0,0,1,,,,,0,,,68,75
201408,note_on,,,,,192,0,4,,,,,3,,,59,88
201408,note_on,,,,,192,0,5,,,,,4,,,56,75
201408,note_on,,,,,0,0,1,,,,,0,,,71,75
201408,note_on,,,,,192,0,3,,,,,2,,,64,94
201408,note_on,,,,,192,0,8,,,,,7,,,47,60
201408,note_off,,,,,96,0,1,,,,,0,,,68,0
201504,note_off,,,,,96,0,1,,,,,0,,,71,0
201504,note_on,,,,,0,0,1,,,,,0,,,68,75
201600,note_on,,,,,0,0,8,,,,,7,,,47,60
201600,note_off,,,,,192,0,8,,,,,7,,,47,0
201600,note_off,,,,,384,0,6,,,,,5,,,59,0
201600,note_on,,,,,0,0,3,,,,,2,,,64,94
201600,note_on,,,,,0,0,4,,,,,3,,,59,88
201600,note_on,,,,,0,0,5,,,,,4,,,56,75
201600,note_off,,,,,192,0,5,,,,,4,,,56,0
201600,note_off,,,,,192,0,3,,,,,2,,,64,0
201600,note_off,,,,,96,0,1,,,,,0,,,68,0
201600,note_off,,,,,384,0,7,,,,,6,,,47,0
201600,note_on,,,,,0,0,1,,,,,0,,,64,75
201600,note_off,,,,,384,0,2,,,,,1,,,71,0
201600,note_off,,,,,192,0,4,,,,,3,,,59,0
201696,note_off,,,,,96,0,1,,,,,0,,,64,0
201696,note_on,,,,,0,0,1,,,,,0,,,68,75
201792,note_on,,,,,192,0,2,,,,,1,,,68,75
201792,note_on,,,,,0,0,1,,,,,0,,,71,75
201792,note_on,,,,,192,0,7,,,,,6,,,47,75
201792,note_off,,,,,96,0,1,,,,,0,,,68,0
201792,note_on,,,,,192,0,6,,,,,5,,,59,75
201888,note_off,,,,,96,0,1,,,,,0,,,71,0
201888,note_on,,,,,0,0,1,,,,,0,,,76,75
201984,note_off,,,,,192,0,7,,,,,6,,,47,0
201984,note_on,,,,,0,0,1,,,,,0,,,75,75
201984,note_off,,,,,96,0,1,,,,,0,,,76,0
201984,note_off,,,,,384,0,5,,,,,4,,,56,0
201984,note_off,,,,,384,0,4,,,,,3,,,59,0
201984,note_on,,,,,0,0,7,,,,,6,,,47,75
201984,note_on,,,,,0,0,6,,,,,5,,,59,75
201984,note_off,,,,,384,0,8,,,,,7,,,47,0
201984,note_off,,,,,192,0,2,,,,,1,,,68,0
201984,note_on,,,,,0,0,2,,,,,1,,,66,75
201984,note_off,,,,,192,0,6,,,,,5,,,59,0
201984,note_off,,,,,384,0,3,,,,,2,,,64,0
202080,note_on,,,,,0,0,1,,,,,0,,,71,75
202080,note_off,,,,,96,0,1,,,,,0,,,75,0
202176,note_on,,,,,0,0,1,,,,,0,,,75,75
202176,note_on,,,,,192,0,5,,,,,4,,,54,75
202176,note_on,,,,,192,0,8,,,,,7,,,47,60
202176,note_off,,,,,96,0,1,,,,,0,,,71,0
202176,note_on,,,,,192,0,4,,,,,3,,,59,88
202176,note_on,,,,,192,0,3,,,,,2,,,63,94
202272,note_off,,,,,96,0,1,,,,,0,,,75,0
202272,note_on,,,,,0,0,1,,,,,0,,,78,75
202368,note_on,,,,,0,0,3,,,,,2,,,63,94
202368,note_off,,,,,384,0,2,,,,,1,,,66,0
202368,note_on,,,,,0,0,1,,,,,0,,,83,75
202368,note_off,,,,,96,0,1,,,,,0,,,78,0
202368,note_off,,,,,384,0,7,,,,,6,,,47,0
202368,note_off,,,,,192,0,3,,,,,2,,,63,0
202368,note_on,,,,,0,0,5,,,,,4,,,54,75
202368,note_on,,,,,0,0,4,,,,,3,,,59,88
202368,note_off,,,,,192,0,4,,,,,3,,,59,0
202368,note_off,,,,,384,0,6,,,,,5,,,59,0
202368,note_off,,,,,192,0,8,,,,,7,,,47,0
202368,note_on,,,,,0,0,8,,,,,7,,,47,60
202368,note_off,,,,,192,0,5,,,,,4,,,54,0
202464,note_off,,,,,96,0,1,,,,,0,,,83,0
202464,note_on,,,,,0,0,1,,,,,0,,,71,75
202560,note_on,,,,,0,0,1,,,,,0,,,75,75
202560,note_off,,,,,96,0,1,,,,,0,,,71,0
202656,note_off,,,,,96,0,1,,,,,0,,,75,0
202656,note_on,,,,,0,0,1,,,,,0,,,71,75
202752,note_on,,,,,384,0,7,,,,,6,,,47,75
202752,note_off,,,,,96,0,1,,,,,0,,,71,0
202752,note_off,,,,,384,0,3,,,,,2,,,63,0
202752,note_off,,,,,384,0,8,,,,,7,,,47,0
202752,note_on,,,,,0,0,8,,,,,7,,,59,60
202752,note_on,,,,,0,0,1,,,,,0,,,78,75
202752,note_on,,,,,0,0,3,,,,,2,,,78,94
202752,note_off,,,,,384,0,5,,,,,4,,,54,0
202752,note_on,,,,,384,0,6,,,,,5,,,59,75
202752,note_on,,,,,0,0,4,,,,,3,,,75,88
202752,note_on,,,,,0,0,5,,,,,4,,,71,75
202752,note_off,,,,,384,0,4,,,,,3,,,59,0
202752,note_on,,,,,384,0,2,,,,,1,,,75,75
203136,note_on,,,,,0,0,1,,,,,0,,,83,75
203136,note_off,,,,,384,0,1,,,,,0,,,78,0
203136,note_on,,,,,0,0,2,,,,,1,,,78,75
203136,note_off,,,,,384,0,7,,,,,6,,,47,0
203136,note_on,,,,,0,0,7,,,,,6,,,35,75
203136,note_off,,,,,384,0,2,,,,,1,,,75,0
203136,note_off,,,,,384,0,8,,,,,7,,,59,0
203136,note_on,,,,,0,0,6,,,,,5,,,47,75
203136,note_on,,,,,0,0,8,,,,,7,,,47,60
203136,note_on,,,,,0,0,3,,,,,2,,,83,94
203136,note_off,,,,,384,0,3,,,,,2,,,78,0
203136,note_off,,,,,384,0,4,,,,,3,,,75,0
203136,note_on,,,,,0,0,4,,,,,3,,,78,88
203136,note_on,,,,,0,0,5,,,,,4,,,63,75
203136,note_off,,,,,384,0,5,,,,,4,,,71,0
203136,note_off,,,,,384,0,6,,,,,5,,,59,0
203328,note_on,,,,,0,0,3,,,,,2,,,78,94
203328,note_on,,,,,0,0,6,,,,,5,,,51,75
203328,note_off,,,,,192,0,2,,,,,1,,,78,0
203328,note_on,,,,,0,0,7,,,,,6,,,39,75
203328,note_on,,,,,0,0,2,,,,,1,,,71,75
203328,note_off,,,,,192,0,7,,,,,6,,,35,0
203328,note_off,,,,,192,0,3,,,,,2,,,83,0
203328,note_off,,,,,192,0,1,,,,,0,,,83,0
203328,note_off,,,,,192,0,6,,,,,5,,,47,0
203328,note_on,,,,,0,0,1,,,,,0,,,78,75
203328,note_off,,,,,192,0,8,,,,,7,,,47,0
203328,note_on,,,,,0,0,4,,,,,3,,,71,88
203328,note_off,,,,,192,0,5,,,,,4,,,63,0
203328,note_on,,,,,0,0,5,,,,,4,,,71,75
203328,note_off,,,,,192,0,4,,,,,3,,,78,0
203328,note_on,,,,,0,0,8,,,,,7,,,51,60
203520,note_on,,,,,0,0,2,,,,,1,,,71,75
203520,note_off,,,,,192,0,3,,,,,2,,,78,0
203520,note_on,,,,,0,0,3,,,,,2,,,80,94
203520,note_on,,,,,0,0,8,,,,,7,,,52,60
203520,note_off,,,,,192,0,2,,,,,1,,,71,0
203520,note_off,,,,,192,0,6,,,,,5,,,51,0
203520,note_off,,,,,192,0,4,,,,,3,,,71,0
203520,note_off,,,,,192,0,7,,,,,6,,,39,0
203520,note_on,,,,,0,0,5,,,,,4,,,68,75
203520,note_off,,,,,192,0,5,,,,,4,,,71,0
203520,note_on,,,,,0,0,7,,,,,6,,,40,75
203520,note_on,,,,,0,0,1,,,,,0,,,80,75
203520,note_on,,,,,0,0,4,,,,,3,,,71,88
203520,note_off,,,,,192,0,1,,,,,0,,,78,0
203520,note_on,,,,,0,0,6,,,,,5,,,52,75
203520,note_off,,,,,192,0,8,,,,,7,,,51,0
203712,note_on,,,,,0,0,3,,,,,2,,,83,94
203712,note_on,,,,,0,0,1,,,,,0,,,83,75
203712,note_off,,,,,192,0,1,,,,,0,,,80,0
203712,note_off,,,,,192,0,3,,,,,2,,,80,0
203904,note_off,,,,,384,0,8,,,,,7,,,52,0
203904,note_on,,,,,0,0,1,,,,,0,,,76,75
203904,note_off,,,,,192,0,1,,,,,0,,,83,0
203904,note_on,,,,,0,0,6,,,,,5,,,56,75
203904,note_on,,,,,0,0,8,,,,,7,,,56,60
203904,note_off,,,,,384,0,6,,,,,5,,,52,0
203904,note_on,,,,,0,0,3,,,,,2,,,76,94
203904,note_off,,,,,192,0,3,,,,,2,,,83,0
203904,note_off,,,,,384,0,7,,,,,6,,,40,0
203904,note_on,,,,,0,0,7,,,,,6,,,44,75
204096,note_off,,,,,576,0,5,,,,,4,,,68,0
204096,note_on,,,,,0,0,5,,,,,4,,,71,75
204096,note_on,,,,,0,0,4,,,,,3,,,68,88
204096,note_on,,,,,0,0,2,,,,,1,,,68,75
204096,note_off,,,,,576,0,2,,,,,1,,,71,0
204096,note_off,,,,,576,0,4,,,,,3,,,71,0
204288,note_on,,,,,0,0,6,,,,,5,,,44,75
204288,note_on,,,,,0,0,5,,,,,4,,,59,75
204288,note_on,,,,,0,0,8,,,,,7,,,44,60
204288,note_on,,,,,0,0,2,,,,,1,,,64,75
204288,note_off,,,,,192,0,2,,,,,1,,,68,0
204288,note_off,,,,,384,0,7,,,,,6,,,44,0
204288,note_on,,,,,0,0,7,,,,,6,,,32,75
204288,note_off,,,,,192,0,5,,,,,4,,,71,0
204288,note_off,,,,,384,0,1,,,,,0,,,76,0
204288,note_off,,,,,384,0,3,,,,,2,,,76,0
204288,note_off,,,,,384,0,6,,,,,5,,,56,0
204288,note_on,,,,,0,0,4,,,,,3,,,64,88
204288,note_off,,,,,192,0,4,,,,,3,,,68,0
204288,note_off,,,,,384,0,8,,,,,7,,,56,0
204288,note_on,,,,,0,0,1,,,,,0,,,83,75
204288,note_on,,,,,0,0,3,,,,,2,,,83,94
204480,note_on,,,,,0,0,8,,,,,7,,,47,60
204480,note_off,,,,,192,0,8,,,,,7,,,44,0
204480,note_on,,,,,0,0,7,,,,,6,,,35,75
204480,note_off,,,,,192,0,7,,,,,6,,,32,0
204480,note_on,,,,,0,0,6,,,,,5,,,47,75
204480,note_off,,,,,192,0,6,,,,,5,,,44,0
204672,note_off,,,,,384,0,4,,,,,3,,,64,0
204672,note_on,,,,,0,0,8,,,,,7,,,52,60
204672,note_off,,,,,192,0,8,,,,,7,,,47,0
204672,note_on,,,,,0,0,4,,,,,3,,,71,88
204672,note_off,,,,,384,0,5,,,,,4,,,59,0
204672,note_on,,,,,0,0,5,,,,,4,,,68,75
204672,note_off,,,,,384,0,3,,,,,2,,,83,0
204672,note_off,,,,,192,0,6,,,,,5,,,47,0
204672,note_on,,,,,0,0,6,,,,,5,,,52,75
204672,note_off,,,,,192,0,7,,,,,6,,,35,0
204672,note_on,,,,,0,0,7,,,,,6,,,40,75
204672,note_off,,,,,384,0,2,,,,,1,,,64,0
204672,note_on,,,,,0,0,3,,,,,2,,,74,94
204672,note_on,,,,,0,0,2,,,,,1,,,71,75
204672,note_off,,,,,384,0,1,,,,,0,,,83,0
204672,note_on,,,,,0,0,1,,,,,0,,,74,75
204768,note_off,,,,,96,0,2,,,,,1,,,71,0
204768,note_on,,,,,0,0,2,,,,,1,,,69,75
204768,note_on,,,,,0,0,4,,,,,3,,,69,88
204768,note_off,,,,,96,0,4,,,,,3,,,71,0
204768,note_on,,,,,0,0,3,,,,,2,,,73,94
204768,note_off,,,,,96,0,1,,,,,0,,,74,0
204768,note_off,,,,,96,0,3,,,,,2,,,74,0
204768,note_on,,,,,0,0,1,,,,,0,,,73,75
204864,note_on,,,,,0,0,3,,,,,2,,,74,94
204864,note_on,,,,,0,0,4,,,,,3,,,71,88
204864,note_on,,,,,0,0,2,,,,,1,,,71,75
204864,note_off,,,,,96,0,3,,,,,2,,,73,0
204864,note_off,,,,,96,0,2,,,,,1,,,69,0
204864,note_off,,,,,96,0,1,,,,,0,,,73,0
204864,note_off,,,,,96,0,4,,,,,3,,,69,0
204864,note_on,,,,,0,0,1,,,,,0,,,74,75
204960,note_on,,,,,0,0,2,,,,,1,,,68,75
204960,note_off,,,,,96,0,2,,,,,1,,,71,0
204960,note_off,,,,,96,0,3,,,,,2,,,74,0
204960,note_on,,,,,0,0,3,,,,,2,,,71,94
204960,note_off,,,,,96,0,1,,,,,0,,,74,0
204960,note_on,,,,,0,0,1,,,,,0,,,71,75
204960,note_on,,,,,0,0,4,,,,,3,,,68,88
204960,note_off,,,,,96,0,4,,,,,3,,,71,0
205056,note_on,,,,,0,0,5,,,,,4,,,69,75
205056,note_off,,,,,384,0,6,,,,,5,,,52,0
205056,note_on,,,,,0,0,6,,,,,5,,,57,75
205056,note_off,,,,,384,0,5,,,,,4,,,68,0
205056,note_off,,,,,96,0,1,,,,,0,,,71,0
205056,note_on,,,,,0,0,1,,,,,0,,,73,75
205056,note_on,,,,,0,0,8,,,,,7,,,57,60
205056,note_off,,,,,96,0,4,,,,,3,,,68,0
205056,note_off,,,,,96,0,3,,,,,2,,,71,0
205056,note_on,,,,,0,0,3,,,,,2,,,73,94
205056,note_on,,,,,0,0,7,,,,,6,,,45,75
205056,note_off,,,,,384,0,7,,,,,6,,,40,0
205056,note_on,,,,,0,0,4,,,,,3,,,64,88
205056,note_on,,,,,0,0,2,,,,,1,,,64,75
205056,note_off,,,,,96,0,2,,,,,1,,,68,0
205056,note_off,,,,,384,0,8,,,,,7,,,52,0
205248,note_off,,,,,192,0,1,,,,,0,,,73,0
205248,note_on,,,,,0,0,3,,,,,2,,,76,94
205248,note_off,,,,,192,0,5,,,,,4,,,69,0
205248,note_on,,,,,0,0,5,,,,,4,,,73,75
205248,note_on,,,,,0,0,1,,,,,0,,,76,75
205248,note_off,,,,,192,0,3,,,,,2,,,73,0
205440,note_on,,,,,0,0,4,,,,,3,,,76,88
205440,note_on,,,,,0,0,1,,,,,0,,,81,75
205440,note_off,,,,,192,0,1,,,,,0,,,76,0
205440,note_off,,,,,384,0,2,,,,,1,,,64,0
205440,note_on,,,,,0,0,5,,,,,4,,,64,75
205440,note_off,,,,,192,0,5,,,,,4,,,73,0
205440,note_on,,,,,0,0,6,,,,,5,,,61,75
205440,note_off,,,,,384,0,6,,,,,5,,,57,0
205440,note_on,,,,,0,0,8,,,,,7,,,61,60
205440,note_off,,,,,384,0,8,,,,,7,,,57,0
205440,note_off,,,,,384,0,7,,,,,6,,,45,0
205440,note_off,,,,,384,0,4,,,,,3,,,64,0
205440,note_on,,,,,0,0,7,,,,,6,,,49,75
205440,note_on,,,,,0,0,2,,,,,1,,,76,75
205440,note_off,,,,,192,0,3,,,,,2,,,76,0
205440,note_on,,,,,0,0,3,,,,,2,,,81,94
205632,note_on,,,,,0,0,2,,,,,1,,,73,75
205632,note_on,,,,,0,0,4,,,,,3,,,73,88
205632,note_off,,,,,192,0,4,,,,,3,,,76,0
205632,note_on,,,,,0,0,6,,,,,5,,,64,75
205632,note_off,,,,,192,0,6,,,,,5,,,61,0
205632,note_off,,,,,192,0,2,,,,,1,,,76,0
205632,note_on,,,,,0,0,8,,,,,7,,,64,60
205632,note_off,,,,,192,0,8,,,,,7,,,61,0
205632,note_on,,,,,0,0,7,,,,,6,,,52,75
205632,note_off,,,,,192,0,7,,,,,6,,,49,0
205824,note_on,,,,,0,0,6,,,,,5,,,58,75
205824,note_off,,,,,192,0,7,,,,,6,,,52,0
205824,note_on,,,,,0,0,7,,,,,6,,,46,75
205824,note_off,,,,,192,0,6,,,,,5,,,64,0
205824,note_off,,,,,192,0,8,,,,,7,,,64,0
205824,note_on,,,,,0,0,8,,,,,7,,,58,60
205824,note_off,,,,,384,0,5,,,,,4,,,64,0
205824,note_on,,,,,0,0,3,,,,,2,,,85,94
205824,note_off,,,,,192,0,2,,,,,1,,,73,0
205824,note_on,,,,,0,0,2,,,,,1,,,66,75
205824,note_on,,,,,0,0,4,,,,,3,,,66,88
205824,note_off,,,,,192,0,4,,,,,3,,,73,0
205824,note_on,,,,,0,0,5,,,,,4,,,61,75
205824,note_on,,,,,0,0,1,,,,,0,,,85,75
205824,note_off,,,,,384,0,1,,,,,0,,,81,0
205824,note_off,,,,,384,0,3,,,,,2,,,81,0
206016,note_on,,,,,0,0,6,,,,,5,,,61,75
206016,note_off,,,,,192,0,6,,,,,5,,,58,0
206016,note_on,,,,,0,0,7,,,,,6,,,49,75
206016,note_off,,,,,192,0,7,,,,,6,,,46,0
206016,note_off,,,,,192,0,8,,,,,7,,,58,0
206016,note_on,,,,,0,0,8,,,,,7,,,61,60
206208,note_off,,,,,192,0,7,,,,,6,,,49,0
206208,note_on,,,,,0,0,8,,,,,7,,,54,60
206208,note_on,,,,,0,0,4,,,,,3,,,73,88
206208,note_off,,,,,384,0,3,,,,,2,,,85,0
206208,note_on,,,,,0,0,3,,,,,2,,,76,94
206208,note_on,,,,,0,0,7,,,,,6,,,42,75
206208,note_off,,,,,384,0,4,,,,,3,,,66,0
206208,note_on,,,,,0,0,6,,,,,5,,,54,75
206208,note_off,,,,,192,0,8,,,,,7,,,61,0
206208,note_off,,,,,192,0,6,,,,,5,,,61,0
206208,note_on,,,,,0,0,2,,,,,1,,,73,75
206208,note_off,,,,,384,0,2,,,,,1,,,66,0
206208,note_off,,,,,384,0,1,,,,,0,,,85,0
206208,note_on,,,,,0,0,1,,,,,0,,,76,75
206208,note_on,,,,,0,0,5,,,,,4,,,70,75
206208,note_off,,,,,384,0,5,,,,,4,,,61,0
206304,note_off,,,,,96,0,1,,,,,0,,,76,0
206304,note_on,,,,,0,0,3,,,,,2,,,75,94
206304,note_off,,,,,96,0,3,,,,,2,,,76,0
206304,note_on,,,,,0,0,1,,,,,0,,,75,75
206304,note_on,,,,,0,0,2,,,,,1,,,71,75
206304,note_off,,,,,96,0,2,,,,,1,,,73,0
206304,note_off,,,,,96,0,4,,,,,3,,,73,0
206304,note_on,,,,,0,0,4,,,,,3,,,71,88
206400,note_on,,,,,0,0,3,,,,,2,,,76,94
206400,note_off,,,,,96,0,3,,,,,2,,,75,0
206400,note_on,,,,,0,0,1,,,,,0,,,76,75
206400,note_off,,,,,96,0,1,,,,,0,,,75,0
206400,note_on,,,,,0,0,2,,,,,1,,,73,75
206400,note_off,,,,,96,0,2,,,,,1,,,71,0
206400,note_off,,,,,192,0,5,,,,,4,,,70,0
206400,note_on,,,,,0,0,5,,,,,4,,,66,75
206400,note_off,,,,,96,0,4,,,,,3,,,71,0
206400,note_on,,,,,0,0,4,,,,,3,,,73,88
206496,note_on,,,,,0,0,3,,,,,2,,,73,94
206496,note_off,,,,,96,0,3,,,,,2,,,76,0
206496,note_off,,,,,96,0,1,,,,,0,,,76,0
206496,note_on,,,,,0,0,2,,,,,1,,,70,75
206496,note_on,,,,,0,0,1,,,,,0,,,73,75
206496,note_on,,,,,0,0,4,,,,,3,,,70,88
206496,note_off,,,,,96,0,4,,,,,3,,,73,0
206496,note_off,,,,,96,0,2,,,,,1,,,73,0
206592,note_off,,,,,96,0,3,,,,,2,,,73,0
206592,note_off,,,,,384,0,6,,,,,5,,,54,0
206592,note_off,,,,,192,0,5,,,,,4,,,66,0
206592,note_on,,,,,0,0,5,,,,,4,,,66,75
206592,note_off,,,,,384,0,8,,,,,7,,,54,0
206592,note_on,,,,,0,0,8,,,,,7,,,47,60
206592,note_on,,,,,0,0,1,,,,,0,,,75,75
206592,note_on,,,,,0,0,7,,,,,6,,,35,75
206592,note_on,,,,,0,0,3,,,,,2,,,75,94
206592,note_on,,,,,0,0,6,,,,,5,,,47,75
206592,note_off,,,,,384,0,7,,,,,6,,,42,0
206592,note_off,,,,,96,0,4,,,,,3,,,70,0
206592,note_off,,,,,96,0,2,,,,,1,,,70,0
206592,note_on,,,,,0,0,2,,,,,1,,,71,75
206592,note_off,,,,,96,0,1,,,,,0,,,73,0
206592,note_on,,,,,0,0,4,,,,,3,,,71,88
206784,note_on,,,,,0,0,3,,,,,2,,,78,94
206784,note_off,,,,,192,0,3,,,,,2,,,75,0
206784,note_off,,,,,192,0,1,,,,,0,,,75,0
206784,note_on,,,,,0,0,1,,,,,0,,,78,75
206976,note_off,,,,,384,0,6,,,,,5,,,47,0
206976,note_off,,,,,384,0,4,,,,,3,,,71,0
206976,note_off,,,,,384,0,5,,,,,4,,,66,0
206976,note_off,,,,,384,0,2,,,,,1,,,71,0
206976,note_on,,,,,0,0,1,,,,,0,,,71,75
206976,note_off,,,,,192,0,1,,,,,0,,,78,0
206976,note_off,,,,,384,0,7,,,,,6,,,35,0
206976,note_on,,,,,0,0,3,,,,,2,,,71,94
206976,note_off,,,,,192,0,3,,,,,2,,,78,0
206976,note_off,,,,,384,0,8,,,,,7,,,47,0
207168,note_on,,,,,0,0,1,,,,,0,,,81,75
207168,note_off,,,,,192,0,1,,,,,0,,,71,0
207168,note_on,,,,,0,0,3,,,,,2,,,81,94
207168,note_off,,,,,192,0,3,,,,,2,,,71,0
207360,note_off,,,,,192,0,3,,,,,2,,,81,0
207360,note_off,,,,,192,0,1,,,,,0,,,81,0
207360,note_on,,,,,0,0,1,,,,,0,,,80,75
207360,note_on,,,,,0,0,3,,,,,2,,,80,94
207456,note_off,,,,,96,0,3,,,,,2,,,80,0
207456,note_on,,,,,0,0,3,,,,,2,,,78,94
207456,note_off,,,,,96,0,1,,,,,0,,,80,0
207456,note_on,,,,,0,0,1,,,,,0,,,78,75
207552,note_on,,,,,0,0,3,,,,,2,,,76,94
207552,note_off,,,,,96,0,1,,,,,0,,,78,0
207552,note_on,,,,,0,0,1,,,,,0,,,76,75
207552,note_off,,,,,96,0,3,,,,,2,,,78,0
207744,note_off,,,,,192,0,3,,,,,2,,,76,0
207744,note_on,,,,,0,0,3,,,,,2,,,78,94
207744,note_off,,,,,192,0,1,,,,,0,,,76,0
207744,note_on,,,,,0,0,1,,,,,0,,,78,75
207792,note_off,,,,,48,0,3,,,,,2,,,78,0
207792,note_on,,,,,0,0,3,,,,,2,,,76,94
207792,note_off,,,,,48,0,1,,,,,0,,,78,0
207792,note_on,,,,,0,0,1,,,,,0,,,76,75
207840,note_on,,,,,0,0,1,,,,,0,,,78,75
207840,note_off,,,,,48,0,1,,,,,0,,,76,0
207840,note_off,,,,,48,0,3,,,,,2,,,76,0
207840,note_on,,,,,0,0,3,,,,,2,,,78,94
207888,note_off,,,,,48,0,3,,,,,2,,,78,0
207888,note_on,,,,,0,0,1,,,,,0,,,76,75
207888,note_on,,,,,0,0,3,,,,,2,,,76,94
207888,note_off,,,,,48,0,1,,,,,0,,,78,0
207936,note_off,,,,,48,0,1,,,,,0,,,76,0
207936,note_on,,,,,960,0,8,,,,,7,,,57,60
207936,note_on,,,,,960,0,7,,,,,6,,,45,75
207936,note_on,,,,,0,0,1,,,,,0,,,78,75
207936,note_on,,,,,960,0,4,,,,,3,,,73,88
207936,note_on,,,,,960,0,6,,,,,5,,,57,75
207936,note_off,,,,,48,0,3,,,,,2,,,76,0
207936,note_on,,,,,0,0,3,,,,,2,,,78,94
207936,note_on,,,,,960,0,2,,,,,1,,,73,75
207984,note_off,,,,,48,0,3,,,,,2,,,78,0
207984,note_off,,,,,48,0,1,,,,,0,,,78,0
207984,note_on,,,,,0,0,3,,,,,2,,,76,94
207984,note_on,,,,,0,0,1,,,,,0,,,76,75
208128,note_off,,,,,192,0,4,,,,,3,,,73,0
208128,note_on,,,,,0,0,6,,,,,5,,,56,75
208128,note_off,,,,,192,0,2,,,,,1,,,73,0
208128,note_on,,,,,0,0,7,,,,,6,,,44,75
208128,note_on,,,,,0,0,3,,,,,2,,,78,94
208128,note_off,,,,,144,0,3,,,,,2,,,76,0
208128,note_on,,,,,0,0,2,,,,,1,,,71,75
208128,note_off,,,,,192,0,7,,,,,6,,,45,0
208128,note_on,,,,,0,0,4,,,,,3,,,71,88
208128,note_off,,,,,192,0,6,,,,,5,,,57,0
208128,note_on,,,,,0,0,1,,,,,0,,,78,75
208128,note_off,,,,,144,0,1,,,,,0,,,76,0
208128,note_off,,,,,192,0,8,,,,,7,,,57,0
208128,note_on,,,,,0,0,8,,,,,7,,,56,60
208176,note_off,,,,,48,0,1,,,,,0,,,78,0
208176,note_off,,,,,48,0,3,,,,,2,,,78,0
208176,note_on,,,,,0,0,3,,,,,2,,,76,94
208176,note_on,,,,,0,0,1,,,,,0,,,76,75
208224,note_on,,,,,0,0,4,,,,,3,,,69,88
208224,note_off,,,,,96,0,7,,,,,6,,,44,0
208224,note_on,,,,,0,0,7,,,,,6,,,42,75
208224,note_on,,,,,0,0,1,,,,,0,,,78,75
208224,note_on,,,,,0,0,3,,,,,2,,,78,94
208224,note_off,,,,,48,0,3,,,,,2,,,76,0
208224,note_off,,,,,96,0,8,,,,,7,,,56,0
208224,note_on,,,,,0,0,8,,,,,7,,,54,60
208224,note_off,,,,,96,0,6,,,,,5,,,56,0
208224,note_off,,,,,96,0,2,,,,,1,,,71,0
208224,note_off,,,,,48,0,1,,,,,0,,,76,0
208224,note_on,,,,,0,0,2,,,,,1,,,69,75
208224,note_off,,,,,96,0,4,,,,,3,,,71,0
208224,note_on,,,,,0,0,6,,,,,5,,,54,75
208272,note_on,,,,,0,0,1,,,,,0,,,76,75
208272,note_off,,,,,48,0,1,,,,,0,,,78,0
208272,note_off,,,,,48,0,3,,,,,2,,,78,0
208272,note_on,,,,,0,0,3,,,,,2,,,76,94
208320,note_on,,,,,0,0,2,,,,,1,,,68,75
208320,note_on,,,,,0,0,8,,,,,7,,,52,60
208320,note_off,,,,,96,0,8,,,,,7,,,54,0
208320,note_on,,,,,0,0,4,,,,,3,,,68,88
208320,note_off,,,,,96,0,4,,,,,3,,,69,0
208320,note_on,,,,,0,0,3,,,,,2,,,78,94
208320,note_off,,,,,48,0,1,,,,,0,,,76,0
208320,note_off,,,,,48,0,3,,,,,2,,,76,0
208320,note_off,,,,,96,0,7,,,,,6,,,42,0
208320,note_on,,,,,0,0,7,,,,,6,,,40,75
208320,note_on,,,,,0,0,6,,,,,5,,,52,75
208320,note_off,,,,,96,0,6,,,,,5,,,54,0
208320,note_on,,,,,0,0,1,,,,,0,,,78,75
208320,note_off,,,,,96,0,2,,,,,1,,,69,0
208368,note_off,,,,,48,0,3,,,,,2,,,78,0
208368,note_on,,,,,0,0,1,,,,,0,,,76,75
208368,note_off,,,,,48,0,1,,,,,0,,,78,0
208368,note_on,,,,,0,0,3,,,,,2,,,76,94
208512,note_off,,,,,192,0,8,,,,,7,,,52,0
208512,note_off,,,,,192,0,2,,,,,1,,,68,0
208512,note_off,,,,,192,0,7,,,,,6,,,40,0
208512,note_off,,,,,144,0,3,,,,,2,,,76,0
208512,note_on,,,,,0,0,8,,,,,7,,,52,60
208512,note_on,,,,,0,0,7,,,,,6,,,40,75
208512,note_off,,,,,144,0,1,,,,,0,,,76,0
208512,note_on,,,,,0,0,6,,,,,5,,,52,75
208512,note_on,,,,,0,0,2,,,,,1,,,68,75
208512,note_off,,,,,192,0,4,,,,,3,,,68,0
208512,note_on,,,,,0,0,4,,,,,3,,,68,88
208512,note_off,,,,,192,0,6,,,,,5,,,52,0
208704,note_on,,,,,1728,0,5,,,,,4,,,61,75
208704,note_on,,,,,192,0,3,,,,,2,,,81,94
208704,note_on,,,,,192,0,1,,,,,0,,,81,75
208896,note_off,,,,,384,0,4,,,,,3,,,68,0
208896,note_on,,,,,0,0,6,,,,,5,,,52,75
208896,note_off,,,,,384,0,6,,,,,5,,,52,0
208896,note_off,,,,,384,0,7,,,,,6,,,40,0
208896,note_off,,,,,192,0,3,,,,,2,,,81,0
208896,note_on,,,,,0,0,3,,,,,2,,,80,94
208896,note_off,,,,,384,0,2,,,,,1,,,68,0
208896,note_on,,,,,0,0,2,,,,,1,,,68,75
208896,note_on,,,,,0,0,4,,,,,3,,,68,88
208896,note_on,,,,,0,0,7,,,,,6,,,40,75
208896,note_on,,,,,0,0,8,,,,,7,,,52,60
208896,note_off,,,,,384,0,8,,,,,7,,,52,0
208896,note_off,,,,,192,0,5,,,,,4,,,61,0
208896,note_on,,,,,0,0,5,,,,,4,,,59,75
208896,note_off,,,,,192,0,1,,,,,0,,,81,0
208896,note_on,,,,,0,0,1,,,,,0,,,80,75
208992,note_on,,,,,0,0,5,,,,,4,,,57,75
208992,note_on,,,,,0,0,3,,,,,2,,,78,94
208992,note_off,,,,,96,0,3,,,,,2,,,80,0
208992,note_off,,,,,96,0,5,,,,,4,,,59,0
208992,note_on,,,,,0,0,1,,,,,0,,,78,75
208992,note_off,,,,,96,0,1,,,,,0,,,80,0
209088,note_off,,,,,96,0,1,,,,,0,,,78,0
209088,note_off,,,,,96,0,3,,,,,2,,,78,0
209088,note_off,,,,,96,0,5,,,,,4,,,57,0
209088,note_on,,,,,0,0,3,,,,,2,,,76,94
209088,note_on,,,,,0,0,5,,,,,4,,,56,75
209088,note_on,,,,,0,0,1,,,,,0,,,76,75
209280,note_off,,,,,192,0,3,,,,,2,,,76,0
209280,note_off,,,,,384,0,8,,,,,7,,,52,0
209280,note_off,,,,,192,0,1,,,,,0,,,76,0
209280,note_on,,,,,0,0,1,,,,,0,,,78,75
209280,note_off,,,,,192,0,5,,,,,4,,,56,0
209280,note_on,,,,,0,0,5,,,,,4,,,68,75
209280,note_off,,,,,384,0,7,,,,,6,,,40,0
209280,note_off,,,,,384,0,2,,,,,1,,,68,0
209280,note_on,,,,,0,0,3,,,,,2,,,78,94
209280,note_off,,,,,384,0,4,,,,,3,,,68,0
209280,note_off,,,,,384,0,6,,,,,5,,,52,0
209328,note_off,,,,,48,0,1,,,,,0,,,78,0
209328,note_off,,,,,48,0,3,,,,,2,,,78,0
209328,note_on,,,,,0,0,3,,,,,2,,,76,94
209328,note_on,,,,,0,0,1,,,,,0,,,76,75
209376,note_off,,,,,48,0,1,,,,,0,,,76,0
209376,note_off,,,,,48,0,3,,,,,2,,,76,0
209376,note_on,,,,,0,0,5,,,,,4,,,66,75
209376,note_off,,,,,96,0,5,,,,,4,,,68,0
209376,note_on,,,,,0,0,1,,,,,0,,,78,75
209376,note_on,,,,,0,0,3,,,,,2,,,78,94
209424,note_off,,,,,48,0,1,,,,,0,,,78,0
209424,note_on,,,,,0,0,1,,,,,0,,,76,75
209424,note_on,,,,,0,0,3,,,,,2,,,76,94
209424,note_off,,,,,48,0,3,,,,,2,,,78,0
209472,note_off,,,,,48,0,3,,,,,2,,,76,0
209472,note_on,,,,,192,0,2,,,,,1,,,73,75
209472,note_on,,,,,0,0,3,,,,,2,,,78,94
209472,note_on,,,,,192,0,8,,,,,7,,,57,60
209472,note_on,,,,,0,0,5,,,,,4,,,64,75
209472,note_off,,,,,96,0,5,,,,,4,,,66,0
209472,note_on,,,,,192,0,4,,,,,3,,,73,88
209472,note_on,,,,,0,0,1,,,,,0,,,78,75
209472,note_on,,,,,192,0,6,,,,,5,,,57,75
209472,note_on,,,,,192,0,7,,,,,6,,,45,75
209472,note_off,,,,,48,0,1,,,,,0,,,76,0
209520,note_on,,,,,0,0,1,,,,,0,,,76,75
209520,note_off,,,,,48,0,3,,,,,2,,,78,0
209520,note_on,,,,,0,0,3,,,,,2,,,76,94
209520,note_off,,,,,48,0,1,,,,,0,,,78,0
209664,note_off,,,,,144,0,3,,,,,2,,,76,0
209664,note_on,,,,,0,0,3,,,,,2,,,78,94
209664,note_off,,,,,192,0,2,,,,,1,,,73,0
209664,note_on,,,,,0,0,5,,,,,4,,,64,75
209664,note_on,,,,,0,0,7,,,,,6,,,44,75
209664,note_on,,,,,0,0,6,,,,,5,,,56,75
209664,note_off,,,,,192,0,5,,,,,4,,,64,0
209664,note_off,,,,,192,0,6,,,,,5,,,57,0
209664,note_off,,,,,192,0,8,,,,,7,,,57,0
209664,note_off,,,,,192,0,4,,,,,3,,,73,0
209664,note_off,,,,,192,0,7,,,,,6,,,45,0
209664,note_off,,,,,144,0,1,,,,,0,,,76,0
209664,note_on,,,,,0,0,1,,,,,0,,,78,75
209664,note_on,,,,,0,0,4,,,,,3,,,71,88
209664,note_on,,,,,0,0,8,,,,,7,,,56,60
209664,note_on,,,,,0,0,2,,,,,1,,,71,75
209712,note_off,,,,,48,0,1,,,,,0,,,78,0
209712,note_off,,,,,48,0,3,,,,,2,,,78,0
209712,note_on,,,,,0,0,1,,,,,0,,,76,75
209712,note_on,,,,,0,0,3,,,,,2,,,76,94
209760,note_off,,,,,48,0,1,,,,,0,,,76,0
209760,note_on,,,,,0,0,1,,,,,0,,,78,75
209760,note_off,,,,,96,0,8,,,,,7,,,56,0
209760,note_on,,,,,0,0,8,,,,,7,,,54,60
209760,note_on,,,,,0,0,6,,,,,5,,,54,75
209760,note_off,,,,,96,0,2,,,,,1,,,71,0
209760,note_on,,,,,0,0,2,,,,,1,,,69,75
209760,note_on,,,,,0,0,4,,,,,3,,,69,88
209760,note_off,,,,,96,0,4,,,,,3,,,71,0
209760,note_on,,,,,0,0,7,,,,,6,,,42,75
209760,note_off,,,,,96,0,7,,,,,6,,,44,0
209760,note_off,,,,,48,0,3,,,,,2,,,76,0
209760,note_off,,,,,96,0,6,,,,,5,,,56,0
209760,note_on,,,,,0,0,3,,,,,2,,,78,94
209808,note_on,,,,,0,0,1,,,,,0,,,76,75
209808,note_on,,,,,0,0,3,,,,,2,,,76,94
209808,note_off,,,,,48,0,1,,,,,0,,,78,0
209808,note_off,,,,,48,0,3,,,,,2,,,78,0
209856,note_off,,,,,48,0,3,,,,,2,,,76,0
209856,note_on,,,,,0,0,3,,,,,2,,,78,94
209856,note_off,,,,,96,0,8,,,,,7,,,54,0
209856,note_on,,,,,0,0,8,,,,,7,,,52,60
209856,note_on,,,,,0,0,4,,,,,3,,,68,88
209856,note_on,,,,,0,0,1,,,,,0,,,78,75
209856,note_on,,,,,0,0,6,,,,,5,,,52,75
209856,note_off,,,,,96,0,6,,,,,5,,,54,0
209856,note_off,,,,,96,0,4,,,,,3,,,69,0
209856,note_on,,,,,0,0,2,,,,,1,,,68,75
209856,note_off,,,,,96,0,2,,,,,1,,,69,0
209856,note_off,,,,,96,0,7,,,,,6,,,42,0
209856,note_on,,,,,0,0,7,,,,,6,,,40,75
209856,note_off,,,,,48,0,1,,,,,0,,,76,0
209904,note_off,,,,,48,0,1,,,,,0,,,78,0
209904,note_off,,,,,48,0,3,,,,,2,,,78,0
209904,note_on,,,,,0,0,3,,,,,2,,,76,94
209904,note_on,,,,,0,0,1,,,,,0,,,76,75
210048,note_on,,,,,0,0,7,,,,,6,,,40,75
210048,note_off,,,,,192,0,7,,,,,6,,,40,0
210048,note_off,,,,,144,0,1,,,,,0,,,76,0
210048,note_off,,,,,192,0,2,,,,,1,,,68,0
210048,note_on,,,,,0,0,2,,,,,1,,,68,75
210048,note_off,,,,,144,0,3,,,,,2,,,76,0
210048,note_off,,,,,192,0,4,,,,,3,,,68,0
210048,note_on,,,,,0,0,4,,,,,3,,,68,88
210048,note_on,,,,,0,0,5,,,,,4,,,59,75
210048,note_on,,,,,0,0,6,,,,,5,,,52,75
210048,note_on,,,,,0,0,8,,,,,7,,,52,60
210048,note_off,,,,,384,0,5,,,,,4,,,64,0
210048,note_off,,,,,192,0,6,,,,,5,,,52,0
210048,note_off,,,,,192,0,8,,,,,7,,,52,0
210240,note_on,,,,,0,0,5,,,,,4,,,63,75
210240,note_off,,,,,192,0,5,,,,,4,,,59,0
210240,note_on,,,,,192,0,1,,,,,0,,,78,75
210240,note_on,,,,,0,0,2,,,,,1,,,66,75
210240,note_off,,,,,192,0,2,,,,,1,,,68,0
210240,note_on,,,,,0,0,4,,,,,3,,,66,88
210240,note_on,,,,,192,0,3,,,,,2,,,78,94
210240,note_off,,,,,192,0,4,,,,,3,,,68,0
210432,note_off,,,,,192,0,4,,,,,3,,,66,0
210432,note_on,,,,,0,0,1,,,,,0,,,80,75
210432,note_off,,,,,192,0,1,,,,,0,,,78,0
210432,note_on,,,,,0,0,4,,,,,3,,,64,88
210432,note_off,,,,,192,0,2,,,,,1,,,66,0
210432,note_on,,,,,0,0,5,,,,,4,,,71,75
210432,note_off,,,,,192,0,5,,,,,4,,,63,0
210432,note_on,,,,,0,0,3,,,,,2,,,80,94
210432,note_off,,,,,192,0,3,,,,,2,,,78,0
210432,note_on,,,,,0,0,2,,,,,1,,,64,75
210432,note_off,,,,,384,0,8,,,,,7,,,52,0
210432,note_on,,,,,0,0,6,,,,,5,,,52,75
210432,note_off,,,,,384,0,6,,,,,5,,,52,0
210432,note_off,,,,,384,0,7,,,,,6,,,40,0
210432,note_on,,,,,0,0,7,,,,,6,,,40,75
210432,note_on,,,,,0,0,8,,,,,7,,,52,60
210528,note_on,,,,,0,0,1,,,,,0,,,78,75
210528,note_off,,,,,96,0,1,,,,,0,,,80,0
210528,note_off,,,,,96,0,3,,,,,2,,,80,0
210528,note_on,,,,,0,0,3,,,,,2,,,78,94
210624,note_on,,,,,0,0,1,,,,,0,,,76,75
210624,note_off,,,,,96,0,1,,,,,0,,,78,0
210624,note_off,,,,,96,0,3,,,,,2,,,78,0
210624,note_on,,,,,0,0,3,,,,,2,,,76,94
210816,note_off,,,,,192,0,1,,,,,0,,,76,0
210816,note_off,,,,,384,0,6,,,,,5,,,52,0
210816,note_on,,,,,0,0,6,,,,,5,,,54,75
210816,note_off,,,,,384,0,4,,,,,3,,,64,0
210816,note_off,,,,,384,0,5,,,,,4,,,71,0
210816,note_off,,,,,384,0,8,,,,,7,,,52,0
210816,note_on,,,,,0,0,8,,,,,7,,,54,60
210816,note_on,,,,,0,0,1,,,,,0,,,81,75
210816,note_on,,,,,0,0,5,,,,,4,,,69,75
210816,note_off,,,,,384,0,7,,,,,6,,,40,0
210816,note_on,,,,,0,0,7,,,,,6,,,42,75
210816,note_on,,,,,0,0,2,,,,,1,,,63,75
210816,note_off,,,,,384,0,2,,,,,1,,,64,0
210816,note_off,,,,,192,0,3,,,,,2,,,76,0
210816,note_on,,,,,0,0,3,,,,,2,,,81,94
210816,note_on,,,,,0,0,4,,,,,3,,,63,88
210912,note_on,,,,,0,0,1,,,,,0,,,80,75
210912,note_off,,,,,96,0,1,,,,,0,,,81,0
210912,note_on,,,,,0,0,3,,,,,2,,,80,94
210912,note_off,,,,,96,0,3,,,,,2,,,81,0
211008,note_off,,,,,96,0,1,,,,,0,,,80,0
211008,note_on,,,,,0,0,1,,,,,0,,,78,75
211008,note_on,,,,,0,0,3,,,,,2,,,78,94
211008,note_off,,,,,96,0,3,,,,,2,,,80,0
211200,note_on,,,,,0,0,5,,,,,4,,,68,75
211200,note_on,,,,,0,0,1,,,,,0,,,83,75
211200,note_off,,,,,192,0,1,,,,,0,,,78,0
211200,note_off,,,,,384,0,4,,,,,3,,,63,0
211200,note_off,,,,,384,0,6,,,,,5,,,54,0
211200,note_on,,,,,0,0,6,,,,,5,,,56,75
211200,note_off,,,,,384,0,8,,,,,7,,,54,0
211200,note_on,,,,,0,0,8,,,,,7,,,56,60
211200,note_off,,,,,384,0,2,,,,,1,,,63,0
211200,note_on,,,,,0,0,2,,,,,1,,,64,75
211200,note_off,,,,,192,0,3,,,,,2,,,78,0
211200,note_on,,,,,0,0,3,,,,,2,,,83,94
211200,note_on,,,,,0,0,7,,,,,6,,,44,75
211200,note_on,,,,,0,0,4,,,,,3,,,64,88
211200,note_off,,,,,384,0,7,,,,,6,,,42,0
211200,note_off,,,,,384,0,5,,,,,4,,,69,0
211392,note_off,,,,,192,0,5,,,,,4,,,68,0
211392,note_on,,,,,0,0,5,,,,,4,,,71,75
211392,note_on,,,,,0,0,1,,,,,0,,,75,75
211392,note_off,,,,,192,0,1,,,,,0,,,83,0
211392,note_off,,,,,192,0,3,,,,,2,,,83,0
211392,note_on,,,,,0,0,3,,,,,2,,,75,94
211584,note_off,,,,,192,0,1,,,,,0,,,75,0
211584,note_off,,,,,192,0,5,,,,,4,,,71,0
211584,note_on,,,,,0,0,5,,,,,4,,,59,75
211584,note_off,,,,,192,0,3,,,,,2,,,75,0
211584,note_on,,,,,0,0,3,,,,,2,,,76,94
211584,note_on,,,,,0,0,1,,,,,0,,,76,75
211776,note_off,,,,,576,0,7,,,,,6,,,44,0
211776,note_off,,,,,192,0,3,,,,,2,,,76,0
211776,note_off,,,,,576,0,2,,,,,1,,,64,0
211776,note_on,,,,,0,0,3,,,,,2,,,69,94
211776,note_off,,,,,576,0,8,,,,,7,,,56,0
211776,note_on,,,,,0,0,8,,,,,7,,,57,60
211776,note_on,,,,,0,0,7,,,,,6,,,45,75
211776,note_on,,,,,0,0,2,,,,,1,,,66,75
211776,note_off,,,,,576,0,6,,,,,5,,,56,0
211776,note_off,,,,,192,0,1,,,,,0,,,76,0
211776,note_on,,,,,0,0,1,,,,,0,,,69,75
211776,note_on,,,,,0,0,4,,,,,3,,,66,88
211776,note_on,,,,,0,0,5,,,,,4,,,61,75
211776,note_off,,,,,576,0,4,,,,,3,,,64,0
211776,note_on,,,,,0,0,6,,,,,5,,,57,75
211776,note_off,,,,,192,0,5,,,,,4,,,59,0
211968,note_on,,,,,0,0,6,,,,,5,,,59,75
211968,note_off,,,,,192,0,3,,,,,2,,,69,0
211968,note_on,,,,,0,0,3,,,,,2,,,68,94
211968,note_off,,,,,192,0,2,,,,,1,,,66,0
211968,note_on,,,,,0,0,2,,,,,1,,,68,75
211968,note_off,,,,,192,0,1,,,,,0,,,69,0
211968,note_off,,,,,192,0,5,,,,,4,,,61,0
211968,note_on,,,,,0,0,7,,,,,6,,,47,75
211968,note_off,,,,,192,0,6,,,,,5,,,57,0
211968,note_on,,,,,0,0,1,,,,,0,,,68,75
211968,note_off,,,,,192,0,4,,,,,3,,,66,0
211968,note_on,,,,,0,0,4,,,,,3,,,68,88
211968,note_on,,,,,0,0,5,,,,,4,,,59,75
211968,note_off,,,,,192,0,8,,,,,7,,,57,0
211968,note_on,,,,,0,0,8,,,,,7,,,59,60
211968,note_off,,,,,192,0,7,,,,,6,,,45,0
212160,note_off,,,,,192,0,7,,,,,6,,,47,0
212160,note_on,,,,,0,0,7,,,,,6,,,49,75
212160,note_off,,,,,192,0,1,,,,,0,,,68,0
212160,note_on,,,,,0,0,3,,,,,2,,,76,94
212160,note_off,,,,,192,0,6,,,,,5,,,59,0
212160,note_on,,,,,0,0,6,,,,,5,,,61,75
212160,note_off,,,,,192,0,3,,,,,2,,,68,0
212160,note_on,,,,,0,0,8,,,,,7,,,61,60
212160,note_off,,,,,192,0,8,,,,,7,,,59,0
212160,note_off,,,,,192,0,5,,,,,4,,,59,0
212160,note_on,,,,,0,0,5,,,,,4,,,64,75
212160,note_on,,,,,0,0,1,,,,,0,,,76,75
212352,note_off,,,,,192,0,7,,,,,6,,,49,0
212352,note_on,,,,,0,0,7,,,,,6,,,45,75
212352,note_on,,,,,0,0,1,,,,,0,,,66,75
212352,note_off,,,,,192,0,8,,,,,7,,,61,0
212352,note_off,,,,,192,0,1,,,,,0,,,76,0
212352,note_on,,,,,0,0,8,,,,,7,,,57,60
212352,note_on,,,,,0,0,4,,,,,3,,,66,88
212352,note_off,,,,,192,0,3,,,,,2,,,76,0
212352,note_off,,,,,384,0,2,,,,,1,,,68,0
212352,note_on,,,,,0,0,2,,,,,1,,,66,75
212352,note_on,,,,,0,0,5,,,,,4,,,61,75
212352,note_off,,,,,192,0,5,,,,,4,,,64,0
212352,note_on,,,,,0,0,6,,,,,5,,,57,75
212352,note_off,,,,,192,0,6,,,,,5,,,61,0
212352,note_off,,,,,384,0,4,,,,,3,,,68,0
212352,note_on,,,,,0,0,3,,,,,2,,,66,94
212544,note_off,,,,,192,0,8,,,,,7,,,57,0
212544,note_on,,,,,0,0,8,,,,,7,,,59,60
212544,note_on,,,,,0,0,7,,,,,6,,,47,75
212544,note_off,,,,,192,0,5,,,,,4,,,61,0
212544,note_on,,,,,0,0,5,,,,,4,,,59,75
212544,note_off,,,,,192,0,3,,,,,2,,,66,0
212544,note_off,,,,,192,0,7,,,,,6,,,45,0
212544,note_on,,,,,0,0,3,,,,,2,,,75,94
212544,note_off,,,,,192,0,6,,,,,5,,,57,0
212544,note_on,,,,,0,0,6,,,,,5,,,59,75
212544,note_on,,,,,0,0,1,,,,,0,,,75,75
212544,note_off,,,,,192,0,1,,,,,0,,,66,0
212736,note_on,,,,,0,0,4,,,,,3,,,68,88
212736,note_off,,,,,384,0,2,,,,,1,,,66,0
212736,note_on,,,,,0,0,8,,,,,7,,,52,60
212736,note_on,,,,,0,0,5,,,,,4,,,59,75
212736,note_off,,,,,384,0,4,,,,,3,,,66,0
212736,note_off,,,,,192,0,7,,,,,6,,,47,0
212736,note_on,,,,,0,0,7,,,,,6,,,40,75
212736,note_on,,,,,0,0,6,,,,,5,,,52,75
212736,note_off,,,,,192,0,6,,,,,5,,,59,0
212736,note_on,,,,,0,0,1,,,,,0,,,76,75
212736,note_off,,,,,192,0,1,,,,,0,,,75,0
212736,note_off,,,,,192,0,5,,,,,4,,,59,0
212736,note_on,,,,,0,0,3,,,,,2,,,76,94
212736,note_off,,,,,192,0,3,,,,,2,,,75,0
212736,note_on,,,,,0,0,2,,,,,1,,,68,75
212736,note_off,,,,,192,0,8,,,,,7,,,59,0
213120,note_off,,,,,384,0,6,,,,,5,,,52,0
213120,note_off,,,,,384,0,8,,,,,7,,,52,0
213120,note_off,,,,,384,0,4,,,,,3,,,68,0
213120,note_off,,,,,384,0,5,,,,,4,,,59,0
213120,note_off,,,,,384,0,2,,,,,1,,,68,0
213120,note_off,,,,,384,0,7,,,,,6,,,40,0
213120,note_off,,,,,384,0,1,,,,,0,,,76,0
213120,note_off,,,,,384,0,3,,,,,2,,,76,0
213504,note_on,,,,,384,0,6,,,,,5,,,52,75
213504,note_on,,,,,384,0,7,,,,,6,,,40,75
213504,note_on,,,,,384,0,1,,,,,0,,,71,75
213504,note_on,,,,,384,0,2,,,,,1,,,68,75
213504,note_on,,,,,384,0,8,,,,,7,,,52,60
213888,note_off,,,,,384,0,8,,,,,7,,,52,0
213888,note_on,,,,,0,0,8,,,,,7,,,56,60
213888,note_off,,,,,384,0,7,,,,,6,,,40,0
213888,note_on,,,,,0,0,7,,,,,6,,,44,75
213888,note_on,,,,,0,0,2,,,,,1,,,71,75
213888,note_on,,,,,0,0,6,,,,,5,,,56,75
213888,note_off,,,,,384,0,1,,,,,0,,,71,0
213888,note_on,,,,,0,0,1,,,,,0,,,76,75
213888,note_off,,,,,384,0,2,,,,,1,,,68,0
213888,note_off,,,,,384,0,6,,,,,5,,,52,0
214080,note_off,,,,,192,0,2,,,,,1,,,71,0
214080,note_off,,,,,192,0,6,,,,,5,,,56,0
214080,note_off,,,,,192,0,1,,,,,0,,,76,0
214080,note_off,,,,,192,0,7,,,,,6,,,44,0
214080,note_on,,,,,0,0,1,,,,,0,,,71,75
214080,note_on,,,,,0,0,2,,,,,1,,,68,75
214080,note_off,,,,,192,0,8,,,,,7,,,56,0
214080,note_on,,,,,0,0,8,,,,,7,,,52,60
214080,note_on,,,,,0,0,6,,,,,5,,,52,75
214080,note_on,,,,,0,0,7,,,,,6,,,40,75
214272,note_off,,,,,192,0,8,,,,,7,,,52,0
214272,note_on,,,,,0,0,6,,,,,5,,,57,75
214272,note_on,,,,,0,0,8,,,,,7,,,57,60
214272,note_on,,,,,0,0,1,,,,,0,,,73,75
214272,note_off,,,,,192,0,7,,,,,6,,,40,0
214272,note_off,,,,,192,0,1,,,,,0,,,71,0
214272,note_on,,,,,0,0,7,,,,,6,,,45,75
214272,note_off,,,,,192,0,2,,,,,1,,,68,0
214272,note_on,,,,,0,0,2,,,,,1,,,69,75
214272,note_off,,,,,192,0,6,,,,,5,,,52,0
214464,note_off,,,,,192,0,2,,,,,1,,,69,0
214464,note_off,,,,,192,0,1,,,,,0,,,73,0
214464,note_on,,,,,0,0,2,,,,,1,,,73,75
214464,note_on,,,,,0,0,1,,,,,0,,,76,75
214656,note_off,,,,,384,0,8,,,,,7,,,57,0
214656,note_off,,,,,384,0,6,,,,,5,,,57,0
214656,note_on,,,,,0,0,6,,,,,5,,,61,75
214656,note_off,,,,,192,0,1,,,,,0,,,76,0
214656,note_on,,,,,0,0,7,,,,,6,,,49,75
214656,note_on,,,,,0,0,2,,,,,1,,,64,75
214656,note_off,,,,,192,0,2,,,,,1,,,73,0
214656,note_on,,,,,0,0,8,,,,,7,,,61,60
214656,note_on,,,,,0,0,1,,,,,0,,,69,75
214656,note_off,,,,,384,0,7,,,,,6,,,45,0
215040,note_on,,,,,1920,0,5,,,,,4,,,68,75
215040,note_off,,,,,384,0,7,,,,,6,,,49,0
215040,note_on,,,,,1920,0,4,,,,,3,,,64,88
215040,note_off,,,,,384,0,1,,,,,0,,,69,0
215040,note_on,,,,,1920,0,3,,,,,2,,,71,94
215040,note_off,,,,,384,0,8,,,,,7,,,61,0
215040,note_on,,,,,0,0,8,,,,,7,,,56,60
215040,note_off,,,,,384,0,2,,,,,1,,,64,0
215040,note_off,,,,,384,0,6,,,,,5,,,61,0
215424,note_off,,,,,384,0,5,,,,,4,,,68,0
215424,note_on,,,,,0,0,5,,,,,4,,,71,75
215424,note_on,,,,,0,0,8,,,,,7,,,52,60
215424,note_on,,,,,0,0,3,,,,,2,,,76,94
215424,note_off,,,,,384,0,8,,,,,7,,,56,0
215424,note_off,,,,,384,0,3,,,,,2,,,71,0
215424,note_off,,,,,384,0,4,,,,,3,,,64,0
215424,note_on,,,,,0,0,4,,,,,3,,,68,88
215616,note_off,,,,,192,0,4,,,,,3,,,68,0
215616,note_on,,,,,0,0,8,,,,,7,,,56,60
215616,note_off,,,,,192,0,3,,,,,2,,,76,0
215616,note_on,,,,,0,0,3,,,,,2,,,71,94
215616,note_off,,,,,192,0,8,,,,,7,,,52,0
215616,note_on,,,,,0,0,4,,,,,3,,,71,88
215616,note_on,,,,,0,0,5,,,,,4,,,64,75
215616,note_off,,,,,192,0,5,,,,,4,,,71,0
215808,note_off,,,,,192,0,4,,,,,3,,,71,0
215808,note_off,,,,,192,0,5,,,,,4,,,64,0
215808,note_on,,,,,0,0,5,,,,,4,,,69,75
215808,note_on,,,,,0,0,3,,,,,2,,,73,94
215808,note_off,,,,,192,0,3,,,,,2,,,71,0
215808,note_on,,,,,0,0,4,,,,,3,,,64,88
215808,note_off,,,,,192,0,8,,,,,7,,,56,0
215808,note_on,,,,,0,0,8,,,,,7,,,57,60
216000,note_on,,,,,0,0,3,,,,,2,,,76,94
216000,note_off,,,,,192,0,3,,,,,2,,,73,0
216192,note_off,,,,,192,0,3,,,,,2,,,76,0
216192,note_on,,,,,0,0,3,,,,,2,,,69,94
216192,note_on,,,,,0,0,8,,,,,7,,,45,60
216192,note_off,,,,,384,0,8,,,,,7,,,57,0
216192,note_on,,,,,0,0,5,,,,,4,,,64,75
216192,note_off,,,,,384,0,4,,,,,3,,,64,0
216192,note_on,,,,,0,0,4,,,,,3,,,61,88
216192,note_off,,,,,384,0,5,,,,,4,,,69,0
216576,note_off,,,,,384,0,5,,,,,4,,,64,0
216576,note_on,,,,,1536,0,7,,,,,6,,,45,75
216576,note_off,,,,,384,0,3,,,,,2,,,69,0
216576,note_on,,,,,1536,0,2,,,,,1,,,73,75
216576,note_off,,,,,384,0,8,,,,,7,,,45,0
216576,note_on,,,,,1536,0,1,,,,,0,,,76,75
216576,note_off,,,,,384,0,4,,,,,3,,,61,0
216576,note_on,,,,,1536,0,6,,,,,5,,,57,75
216960,note_on,,,,,0,0,1,,,,,0,,,67,75
216960,note_on,,,,,0,0,2,,,,,1,,,64,75
216960,note_on,,,,,0,0,7,,,,,6,,,49,75
216960,note_on,,,,,0,0,6,,,,,5,,,61,75
216960,note_off,,,,,384,0,6,,,,,5,,,57,0
216960,note_off,,,,,384,0,7,,,,,6,,,45,0
216960,note_off,,,,,384,0,1,,,,,0,,,76,0
216960,note_off,,,,,384,0,2,,,,,1,,,73,0
217056,note_off,,,,,96,0,2,,,,,1,,,64,0
217056,note_off,,,,,96,0,1,,,,,0,,,67,0
217056,note_on,,,,,0,0,1,,,,,0,,,66,75
217056,note_on,,,,,0,0,2,,,,,1,,,62,75
217152,note_on,,,,,0,0,7,,,,,6,,,45,75
217152,note_off,,,,,192,0,6,,,,,5,,,61,0
217152,note_on,,,,,0,0,1,,,,,0,,,67,75
217152,note_off,,,,,96,0,1,,,,,0,,,66,0
217152,note_off,,,,,96,0,2,,,,,1,,,62,0
217152,note_on,,,,,0,0,2,,,,,1,,,64,75
217152,note_on,,,,,0,0,6,,,,,5,,,57,75
217152,note_off,,,,,192,0,7,,,,,6,,,49,0
217248,note_off,,,,,96,0,1,,,,,0,,,67,0
217248,note_on,,,,,0,0,1,,,,,0,,,64,75
217248,note_off,,,,,96,0,2,,,,,1,,,64,0
217248,note_on,,,,,0,0,2,,,,,1,,,61,75
217344,note_off,,,,,96,0,1,,,,,0,,,64,0
217344,note_off,,,,,192,0,7,,,,,6,,,45,0
217344,note_on,,,,,0,0,7,,,,,6,,,38,75
217344,note_on,,,,,0,0,1,,,,,0,,,66,75
217344,note_off,,,,,192,0,6,,,,,5,,,57,0
217344,note_on,,,,,0,0,6,,,,,5,,,50,75
217344,note_on,,,,,0,0,2,,,,,1,,,62,75
217344,note_off,,,,,96,0,2,,,,,1,,,61,0
217536,note_off,,,,,192,0,2,,,,,1,,,62,0
217536,note_on,,,,,0,0,2,,,,,1,,,66,75
217536,note_on,,,,,0,0,1,,,,,0,,,69,75
217536,note_off,,,,,192,0,1,,,,,0,,,66,0
217728,note_on,,,,,0,0,6,,,,,5,,,54,75
217728,note_off,,,,,192,0,1,,,,,0,,,69,0
217728,note_off,,,,,384,0,7,,,,,6,,,38,0
217728,note_off,,,,,192,0,2,,,,,1,,,66,0
217728,note_on,,,,,0,0,2,,,,,1,,,69,75
217728,note_on,,,,,0,0,1,,,,,0,,,74,75
217728,note_off,,,,,384,0,6,,,,,5,,,50,0
217728,note_on,,,,,0,0,7,,,,,6,,,42,75
218112,note_on,,,,,1536,0,3,,,,,2,,,76,94
218112,note_off,,,,,384,0,1,,,,,0,,,74,0
218112,note_on,,,,,1536,0,8,,,,,7,,,57,60
218112,note_off,,,,,384,0,6,,,,,5,,,54,0
218112,note_off,,,,,384,0,2,,,,,1,,,69,0
218112,note_on,,,,,1536,0,4,,,,,3,,,73,88
218112,note_off,,,,,384,0,7,,,,,6,,,42,0
218112,note_on,,,,,1536,0,5,,,,,4,,,69,75
218496,note_on,,,,,0,0,3,,,,,2,,,67,94
218496,note_off,,,,,384,0,4,,,,,3,,,73,0
218496,note_on,,,,,0,0,4,,,,,3,,,64,88
218496,note_on,,,,,0,0,5,,,,,4,,,57,75
218496,note_on,,,,,0,0,8,,,,,7,,,49,60
218496,note_off,,,,,384,0,8,,,,,7,,,57,0
218496,note_off,,,,,384,0,5,,,,,4,,,69,0
218496,note_off,,,,,384,0,3,,,,,2,,,76,0
218592,note_on,,,,,0,0,4,,,,,3,,,62,88
218592,note_on,,,,,0,0,3,,,,,2,,,66,94
218592,note_off,,,,,96,0,4,,,,,3,,,64,0
218592,note_off,,,,,96,0,3,,,,,2,,,67,0
218688,note_on,,,,,0,0,4,,,,,3,,,64,88
218688,note_on,,,,,0,0,5,,,,,4,,,57,75
218688,note_off,,,,,96,0,3,,,,,2,,,66,0
218688,note_on,,,,,0,0,3,,,,,2,,,67,94
218688,note_off,,,,,192,0,5,,,,,4,,,57,0
218688,note_off,,,,,192,0,8,,,,,7,,,49,0
218688,note_on,,,,,0,0,8,,,,,7,,,45,60
218688,note_off,,,,,96,0,4,,,,,3,,,62,0
218784,note_off,,,,,96,0,4,,,,,3,,,64,0
218784,note_on,,,,,0,0,4,,,,,3,,,61,88
218784,note_on,,,,,0,0,3,,,,,2,,,64,94
218784,note_off,,,,,96,0,3,,,,,2,,,67,0
218880,note_off,,,,,192,0,5,,,,,4,,,57,0
218880,note_on,,,,,0,0,3,,,,,2,,,66,94
218880,note_on,,,,,0,0,4,,,,,3,,,62,88
218880,note_on,,,,,0,0,5,,,,,4,,,57,75
218880,note_off,,,,,96,0,4,,,,,3,,,61,0
218880,note_on,,,,,0,0,8,,,,,7,,,50,60
218880,note_off,,,,,192,0,8,,,,,7,,,45,0
218880,note_off,,,,,96,0,3,,,,,2,,,64,0
219072,note_off,,,,,192,0,3,,,,,2,,,66,0
219072,note_on,,,,,0,0,3,,,,,2,,,69,94
219072,note_on,,,,,0,0,4,,,,,3,,,66,88
219072,note_off,,,,,192,0,4,,,,,3,,,62,0
219264,note_off,,,,,192,0,4,,,,,3,,,66,0
219264,note_off,,,,,192,0,3,,,,,2,,,69,0
219264,note_on,,,,,0,0,3,,,,,2,,,74,94
219264,note_off,,,,,384,0,8,,,,,7,,,50,0
219264,note_on,,,,,0,0,8,,,,,7,,,38,60
219264,note_off,,,,,384,0,5,,,,,4,,,57,0
219264,note_on,,,,,0,0,4,,,,,3,,,69,88
219264,note_on,,,,,0,0,5,,,,,4,,,57,75
219648,note_on,,,,,1536,0,6,,,,,5,,,59,75
219648,note_on,,,,,1536,0,2,,,,,1,,,75,75
219648,note_off,,,,,384,0,8,,,,,7,,,38,0
219648,note_off,,,,,384,0,4,,,,,3,,,69,0
219648,note_off,,,,,384,0,3,,,,,2,,,74,0
219648,note_on,,,,,1536,0,1,,,,,0,,,78,75
219648,note_off,,,,,384,0,5,,,,,4,,,57,0
219648,note_on,,,,,1536,0,7,,,,,6,,,47,75
220032,note_on,,,,,0,0,2,,,,,1,,,66,75
220032,note_on,,,,,0,0,7,,,,,6,,,51,75
220032,note_off,,,,,384,0,7,,,,,6,,,47,0
220032,note_off,,,,,384,0,2,,,,,1,,,75,0
220032,note_off,,,,,384,0,1,,,,,0,,,78,0
220032,note_off,,,,,384,0,6,,,,,5,,,59,0
220032,note_on,,,,,0,0,6,,,,,5,,,63,75
220032,note_on,,,,,0,0,1,,,,,0,,,69,75
220128,note_off,,,,,96,0,1,,,,,0,,,69,0
220128,note_on,,,,,0,0,1,,,,,0,,,68,75
220128,note_off,,,,,96,0,2,,,,,1,,,66,0
220128,note_on,,,,,0,0,2,,,,,1,,,64,75
220224,note_off,,,,,96,0,2,,,,,1,,,64,0
220224,note_on,,,,,0,0,2,,,,,1,,,66,75
220224,note_off,,,,,192,0,6,,,,,5,,,63,0
220224,note_on,,,,,0,0,6,,,,,5,,,59,75
220224,note_on,,,,,0,0,7,,,,,6,,,47,75
220224,note_off,,,,,192,0,7,,,,,6,,,51,0
220224,note_off,,,,,96,0,1,,,,,0,,,68,0
220224,note_on,,,,,0,0,1,,,,,0,,,69,75
220320,note_on,,,,,0,0,1,,,,,0,,,66,75
220320,note_off,,,,,96,0,2,,,,,1,,,66,0
220320,note_off,,,,,96,0,1,,,,,0,,,69,0
220320,note_on,,,,,0,0,2,,,,,1,,,63,75
220416,note_on,,,,,0,0,1,,,,,0,,,68,75
220416,note_off,,,,,192,0,6,,,,,5,,,59,0
220416,note_off,,,,,96,0,1,,,,,0,,,66,0
220416,note_on,,,,,0,0,2,,,,,1,,,64,75
220416,note_off,,,,,96,0,2,,,,,1,,,63,0
220416,note_on,,,,,0,0,6,,,,,5,,,52,75
220416,note_off,,,,,192,0,7,,,,,6,,,47,0
220416,note_on,,,,,0,0,7,,,,,6,,,40,75
220608,note_on,,,,,0,0,2,,,,,1,,,68,75
220608,note_on,,,,,0,0,1,,,,,0,,,71,75
220608,note_off,,,,,192,0,2,,,,,1,,,64,0
220608,note_off,,,,,192,0,1,,,,,0,,,68,0
220800,note_on,,,,,0,0,7,,,,,6,,,44,75
220800,note_off,,,,,192,0,2,,,,,1,,,68,0
220800,note_on,,,,,0,0,6,,,,,5,,,56,75
220800,note_on,,,,,0,0,2,,,,,1,,,71,75
220800,note_on,,,,,0,0,1,,,,,0,,,76,75
220800,note_off,,,,,384,0,6,,,,,5,,,52,0
220800,note_off,,,,,192,0,1,,,,,0,,,71,0
220800,note_off,,,,,384,0,7,,,,,6,,,40,0
221184,note_on,,,,,1536,0,5,,,,,4,,,71,75
221184,note_off,,,,,384,0,2,,,,,1,,,71,0
221184,note_off,,,,,384,0,7,,,,,6,,,44,0
221184,note_on,,,,,1536,0,4,,,,,3,,,75,88
221184,note_off,,,,,384,0,6,,,,,5,,,56,0
221184,note_off,,,,,384,0,1,,,,,0,,,76,0
221184,note_on,,,,,1536,0,3,,,,,2,,,78,94
221184,note_on,,,,,1536,0,8,,,,,7,,,59,60
221568,note_on,,,,,0,0,4,,,,,3,,,66,88
221568,note_on,,,,,0,0,3,,,,,2,,,69,94
221568,note_off,,,,,384,0,3,,,,,2,,,78,0
221568,note_on,,,,,0,0,8,,,,,7,,,51,60
221568,note_on,,,,,0,0,5,,,,,4,,,59,75
221568,note_off,,,,,384,0,4,,,,,3,,,75,0
221568,note_off,,,,,384,0,5,,,,,4,,,71,0
221568,note_off,,,,,384,0,8,,,,,7,,,59,0
221664,note_on,,,,,0,0,3,,,,,2,,,68,94
221664,note_off,,,,,96,0,3,,,,,2,,,69,0
221664,note_on,,,,,0,0,4,,,,,3,,,64,88
221664,note_off,,,,,96,0,4,,,,,3,,,66,0
221760,note_off,,,,,96,0,3,,,,,2,,,68,0
221760,note_on,,,,,0,0,3,,,,,2,,,69,94
221760,note_on,,,,,0,0,5,,,,,4,,,59,75
221760,note_on,,,,,0,0,8,,,,,7,,,47,60
221760,note_off,,,,,192,0,8,,,,,7,,,51,0
221760,note_off,,,,,96,0,4,,,,,3,,,64,0
221760,note_on,,,,,0,0,4,,,,,3,,,66,88
221760,note_off,,,,,192,0,5,,,,,4,,,59,0
221856,note_off,,,,,96,0,3,,,,,2,,,69,0
221856,note_on,,,,,0,0,3,,,,,2,,,66,94
221856,note_off,,,,,96,0,4,,,,,3,,,66,0
221856,note_on,,,,,0,0,4,,,,,3,,,63,88
221952,note_on,,,,,0,0,8,,,,,7,,,52,60
221952,note_off,,,,,96,0,3,,,,,2,,,66,0
221952,note_on,,,,,0,0,3,,,,,2,,,68,94
221952,note_on,,,,,0,0,4,,,,,3,,,64,88
221952,note_off,,,,,96,0,4,,,,,3,,,63,0
221952,note_off,,,,,192,0,8,,,,,7,,,47,0
221952,note_on,,,,,0,0,5,,,,,4,,,59,75
221952,note_off,,,,,192,0,5,,,,,4,,,59,0
222144,note_on,,,,,0,0,5,,,,,4,,,64,75
222144,note_off,,,,,192,0,5,,,,,4,,,59,0
222144,note_off,,,,,192,0,3,,,,,2,,,68,0
222144,note_on,,,,,0,0,4,,,,,3,,,68,88
222144,note_off,,,,,192,0,4,,,,,3,,,64,0
222144,note_on,,,,,0,0,3,,,,,2,,,71,94
222336,note_on,,,,,0,0,8,,,,,7,,,40,60
222336,note_on,,,,,0,0,4,,,,,3,,,71,88
222336,note_off,,,,,384,0,8,,,,,7,,,52,0
222336,note_on,,,,,0,0,3,,,,,2,,,76,94
222336,note_off,,,,,192,0,3,,,,,2,,,71,0
222336,note_off,,,,,192,0,5,,,,,4,,,64,0
222336,note_on,,,,,0,0,5,,,,,4,,,68,75
222336,note_off,,,,,192,0,4,,,,,3,,,68,0
222528,note_on,,,,,1344,0,2,,,,,1,,,68,75
222528,note_on,,,,,1344,0,6,,,,,5,,,52,75
222528,note_on,,,,,1344,0,7,,,,,6,,,40,75
222528,note_on,,,,,1344,0,1,,,,,0,,,71,75
222720,note_on,,,,,0,0,6,,,,,5,,,57,75
222720,note_off,,,,,192,0,1,,,,,0,,,71,0
222720,note_off,,,,,192,0,6,,,,,5,,,52,0
222720,note_on,,,,,0,0,7,,,,,6,,,45,75
222720,note_on,,,,,0,0,2,,,,,1,,,69,75
222720,note_off,,,,,192,0,2,,,,,1,,,68,0
222720,note_off,,,,,384,0,8,,,,,7,,,40,0
222720,note_on,,,,,0,0,1,,,,,0,,,73,75
222720,note_off,,,,,384,0,4,,,,,3,,,71,0
222720,note_off,,,,,384,0,5,,,,,4,,,68,0
222720,note_off,,,,,384,0,3,,,,,2,,,76,0
222720,note_off,,,,,192,0,7,,,,,6,,,40,0
222912,note_on,,,,,0,0,2,,,,,1,,,71,75
222912,note_off,,,,,192,0,1,,,,,0,,,73,0
222912,note_on,,,,,0,0,1,,,,,0,,,74,75
222912,note_off,,,,,192,0,7,,,,,6,,,45,0
222912,note_off,,,,,192,0,6,,,,,5,,,57,0
222912,note_on,,,,,0,0,7,,,,,6,,,44,75
222912,note_on,,,,,0,0,6,,,,,5,,,56,75
222912,note_off,,,,,192,0,2,,,,,1,,,69,0
223104,note_off,,,,,192,0,1,,,,,0,,,74,0
223104,note_on,,,,,0,0,1,,,,,0,,,74,75
223104,note_on,,,,,0,0,6,,,,,5,,,57,75
223104,note_off,,,,,192,0,7,,,,,6,,,44,0
223104,note_on,,,,,0,0,7,,,,,6,,,45,75
223104,note_on,,,,,0,0,2,,,,,1,,,69,75
223104,note_off,,,,,192,0,2,,,,,1,,,71,0
223104,note_off,,,,,192,0,6,,,,,5,,,56,0
223152,note_on,,,,,0,0,1,,,,,0,,,73,75
223152,note_off,,,,,48,0,1,,,,,0,,,74,0
223200,note_on,,,,,0,0,1,,,,,0,,,74,75
223200,note_off,,,,,48,0,1,,,,,0,,,73,0
223248,note_on,,,,,0,0,1,,,,,0,,,73,75
223248,note_off,,,,,48,0,1,,,,,0,,,74,0
223296,note_off,,,,,48,0,1,,,,,0,,,73,0
223296,note_on,,,,,0,0,1,,,,,0,,,74,75
223344,note_off,,,,,48,0,1,,,,,0,,,74,0
223344,note_on,,,,,0,0,1,,,,,0,,,73,75
223488,note_off,,,,,384,0,7,,,,,6,,,45,0
223488,note_off,,,,,144,0,1,,,,,0,,,73,0
223488,note_off,,,,,384,0,6,,,,,5,,,57,0
223488,note_on,,,,,0,0,1,,,,,0,,,71,75
223488,note_off,,,,,384,0,2,,,,,1,,,69,0
223488,note_on,,,,,0,0,2,,,,,1,,,68,75
223488,note_on,,,,,0,0,6,,,,,5,,,52,75
223488,note_on,,,,,0,0,7,,,,,6,,,40,75
223872,note_off,,,,,384,0,6,,,,,5,,,52,0
223872,note_off,,,,,384,0,7,,,,,6,,,40,0
223872,note_off,,,,,384,0,1,,,,,0,,,71,0
223872,note_off,,,,,384,0,2,,,,,1,,,68,0
224064,note_on,,,,,1344,0,5,,,,,4,,,64,75
224064,note_on,,,,,1344,0,4,,,,,3,,,68,88
224064,note_on,,,,,1344,0,8,,,,,7,,,52,60
224064,note_on,,,,,1344,0,3,,,,,2,,,71,94
224256,note_off,,,,,192,0,5,,,,,4,,,64,0
224256,note_on,,,,,0,0,4,,,,,3,,,69,88
224256,note_off,,,,,192,0,4,,,,,3,,,68,0
224256,note_on,,,,,0,0,8,,,,,7,,,57,60
224256,note_off,,,,,192,0,8,,,,,7,,,52,0
224256,note_on,,,,,0,0,5,,,,,4,,,64,75
224256,note_on,,,,,0,0,3,,,,,2,,,73,94
224256,note_off,,,,,192,0,3,,,,,2,,,71,0
224448,note_on,,,,,0,0,8,,,,,7,,,56,60
224448,note_off,,,,,192,0,8,,,,,7,,,57,0
224448,note_on,,,,,0,0,4,,,,,3,,,71,88
224448,note_off,,,,,192,0,4,,,,,3,,,69,0
224448,note_off,,,,,192,0,5,,,,,4,,,64,0
224448,note_on,,,,,0,0,5,,,,,4,,,64,75
224448,note_off,,,,,192,0,3,,,,,2,,,73,0
224448,note_on,,,,,0,0,3,,,,,2,,,74,94
224640,note_on,,,,,0,0,5,,,,,4,,,64,75
224640,note_off,,,,,192,0,5,,,,,4,,,64,0
224640,note_on,,,,,0,0,8,,,,,7,,,57,60
224640,note_off,,,,,192,0,8,,,,,7,,,56,0
224640,note_off,,,,,192,0,3,,,,,2,,,74,0
224640,note_on,,,,,0,0,3,,,,,2,,,74,94
224640,note_on,,,,,0,0,4,,,,,3,,,69,88
224640,note_off,,,,,192,0,4,,,,,3,,,71,0
224688,note_on,,,,,0,0,3,,,,,2,,,73,94
224688,note_off,,,,,48,0,3,,,,,2,,,74,0
224736,note_on,,,,,0,0,3,,,,,2,,,74,94
224736,note_off,,,,,48,0,3,,,,,2,,,73,0
224784,note_on,,,,,0,0,3,,,,,2,,,73,94
224784,note_off,,,,,48,0,3,,,,,2,,,74,0
224832,note_on,,,,,0,0,3,,,,,2,,,74,94
224832,note_off,,,,,48,0,3,,,,,2,,,73,0
224880,note_off,,,,,48,0,3,,,,,2,,,74,0
224880,note_on,,,,,0,0,3,,,,,2,,,73,94
225024,note_off,,,,,384,0,5,,,,,4,,,64,0
225024,note_on,,,,,0,0,5,,,,,4,,,64,75
225024,note_off,,,,,384,0,8,,,,,7,,,57,0
225024,note_on,,,,,0,0,8,,,,,7,,,52,60
225024,note_off,,,,,144,0,3,,,,,2,,,73,0
225024,note_on,,,,,0,0,3,,,,,2,,,71,94
225024,note_off,,,,,384,0,4,,,,,3,,,69,0
225024,note_on,,,,,0,0,4,,,,,3,,,68,88
225216,note_on,,,,,1344,0,2,,,,,1,,,71,75
225216,note_on,,,,,1344,0,7,,,,,6,,,40,75
225216,note_on,,,,,1344,0,6,,,,,5,,,52,75
225408,note_off,,,,,192,0,6,,,,,5,,,52,0
225408,note_off,,,,,384,0,5,,,,,4,,,64,0
225408,note_off,,,,,384,0,4,,,,,3,,,68,0
225408,note_off,,,,,384,0,3,,,,,2,,,71,0
225408,note_off,,,,,192,0,7,,,,,6,,,40,0
225408,note_on,,,,,0,0,6,,,,,5,,,64,75
225408,note_on,,,,,0,0,7,,,,,6,,,52,75
225408,note_off,,,,,192,0,2,,,,,1,,,71,0
225408,note_on,,,,,0,0,2,,,,,1,,,68,75
225408,note_off,,,,,384,0,8,,,,,7,,,52,0
225504,note_on,,,,,1632,0,1,,,,,0,,,64,75
225600,note_off,,,,,192,0,2,,,,,1,,,68,0
225600,note_off,,,,,96,0,1,,,,,0,,,64,0
225600,note_on,,,,,0,0,1,,,,,0,,,66,75
225600,note_on,,,,,0,0,6,,,,,5,,,62,75
225600,note_off,,,,,192,0,7,,,,,6,,,52,0
225600,note_on,,,,,0,0,7,,,,,6,,,50,75
225600,note_on,,,,,0,0,2,,,,,1,,,71,75
225600,note_off,,,,,192,0,6,,,,,5,,,64,0
225696,note_on,,,,,0,0,1,,,,,0,,,68,75
225696,note_off,,,,,96,0,1,,,,,0,,,66,0
225792,note_off,,,,,192,0,6,,,,,5,,,62,0
225792,note_off,,,,,192,0,2,,,,,1,,,71,0
225792,note_on,,,,,0,0,2,,,,,1,,,64,75
225792,note_on,,,,,0,0,1,,,,,0,,,69,75
225792,note_on,,,,,0,0,7,,,,,6,,,49,75
225792,note_off,,,,,192,0,7,,,,,6,,,50,0
225792,note_off,,,,,96,0,1,,,,,0,,,68,0
225792,note_on,,,,,0,0,6,,,,,5,,,61,75
225888,note_on,,,,,0,0,2,,,,,1,,,61,75
225888,note_off,,,,,96,0,2,,,,,1,,,64,0
225888,note_off,,,,,96,0,1,,,,,0,,,69,0
225888,note_on,,,,,0,0,1,,,,,0,,,64,75
225984,note_off,,,,,96,0,1,,,,,0,,,64,0
225984,note_on,,,,,0,0,2,,,,,1,,,64,75
225984,note_off,,,,,96,0,2,,,,,1,,,61,0
225984,note_on,,,,,0,0,6,,,,,5,,,57,75
225984,note_off,,,,,192,0,7,,,,,6,,,49,0
225984,note_on,,,,,0,0,7,,,,,6,,,45,75
225984,note_off,,,,,192,0,6,,,,,5,,,61,0
225984,note_on,,,,,0,0,1,,,,,0,,,69,75
226080,note_off,,,,,96,0,1,,,,,0,,,69,0
226080,note_off,,,,,96,0,2,,,,,1,,,64,0
226080,note_on,,,,,0,0,2,,,,,1,,,69,75
226080,note_on,,,,,0,0,1,,,,,0,,,73,75
226176,note_off,,,,,192,0,7,,,,,6,,,45,0
226176,note_on,,,,,0,0,7,,,,,6,,,52,75
226176,note_on,,,,,0,0,1,,,,,0,,,71,75
226176,note_off,,,,,96,0,2,,,,,1,,,69,0
226176,note_on,,,,,0,0,2,,,,,1,,,69,75
226176,note_off,,,,,96,0,1,,,,,0,,,73,0
226176,note_off,,,,,192,0,6,,,,,5,,,57,0
226176,note_on,,,,,0,0,6,,,,,5,,,64,75
226272,note_off,,,,,96,0,1,,,,,0,,,71,0
226272,note_on,,,,,0,0,1,,,,,0,,,64,75
226368,note_off,,,,,192,0,6,,,,,5,,,64,0
226368,note_off,,,,,192,0,2,,,,,1,,,69,0
226368,note_on,,,,,0,0,6,,,,,5,,,52,75
226368,note_on,,,,,0,0,2,,,,,1,,,68,75
226368,note_on,,,,,0,0,1,,,,,0,,,71,75
226368,note_off,,,,,96,0,1,,,,,0,,,64,0
226368,note_on,,,,,0,0,7,,,,,6,,,40,75
226368,note_off,,,,,192,0,7,,,,,6,,,52,0
226464,note_off,,,,,96,0,1,,,,,0,,,71,0
226464,note_on,,,,,0,0,1,,,,,0,,,74,75
226560,note_off,,,,,192,0,2,,,,,1,,,68,0
226560,note_off,,,,,192,0,7,,,,,6,,,40,0
226560,note_on,,,,,0,0,7,,,,,6,,,45,75
226560,note_off,,,,,192,0,6,,,,,5,,,52,0
226560,note_on,,,,,0,0,2,,,,,1,,,69,75
226560,note_on,,,,,0,0,6,,,,,5,,,57,75
226560,note_off,,,,,96,0,1,,,,,0,,,74,0
226560,note_on,,,,,0,0,1,,,,,0,,,73,75
226656,note_off,,,,,96,0,1,,,,,0,,,73,0
226656,note_on,,,,,0,0,1,,,,,0,,,64,75
226752,note_on,,,,,0,0,1,,,,,0,,,69,75
226752,note_on,,,,,1344,0,3,,,,,2,,,64,94
226752,note_off,,,,,96,0,1,,,,,0,,,64,0
226752,note_on,,,,,1344,0,4,,,,,3,,,61,88
226752,note_on,,,,,1344,0,5,,,,,4,,,57,75
226752,note_on,,,,,1344,0,8,,,,,7,,,45,60
226848,note_on,,,,,0,0,1,,,,,0,,,73,75
226848,note_off,,,,,96,0,1,,,,,0,,,69,0
226944,note_off,,,,,192,0,8,,,,,7,,,45,0
226944,note_off,,,,,384,0,7,,,,,6,,,45,0
226944,note_on,,,,,0,0,8,,,,,7,,,45,60
226944,note_off,,,,,192,0,4,,,,,3,,,61,0
226944,note_on,,,,,0,0,3,,,,,2,,,64,94
226944,note_off,,,,,192,0,3,,,,,2,,,64,0
226944,note_off,,,,,384,0,6,,,,,5,,,57,0
226944,note_on,,,,,0,0,5,,,,,4,,,57,75
226944,note_on,,,,,0,0,1,,,,,0,,,76,75
226944,note_off,,,,,96,0,1,,,,,0,,,73,0
226944,note_off,,,,,192,0,5,,,,,4,,,57,0
226944,note_off,,,,,384,0,2,,,,,1,,,69,0
226944,note_on,,,,,0,0,4,,,,,3,,,61,88
227040,note_on,,,,,0,0,1,,,,,0,,,64,75
227040,note_off,,,,,96,0,1,,,,,0,,,76,0
227136,note_on,,,,,0,0,1,,,,,0,,,66,75
227136,note_off,,,,,96,0,1,,,,,0,,,64,0
227136,note_on,,,,,192,0,7,,,,,6,,,44,75
227136,note_on,,,,,192,0,6,,,,,5,,,56,75
227136,note_on,,,,,192,0,2,,,,,1,,,64,75
227232,note_off,,,,,96,0,1,,,,,0,,,66,0
227232,note_on,,,,,0,0,1,,,,,0,,,68,75
227328,note_off,,,,,384,0,8,,,,,7,,,45,0
227328,note_off,,,,,384,0,4,,,,,3,,,61,0
227328,note_on,,,,,0,0,7,,,,,6,,,42,75
227328,note_off,,,,,384,0,5,,,,,4,,,57,0
227328,note_off,,,,,96,0,1,,,,,0,,,68,0
227328,note_off,,,,,192,0,6,,,,,5,,,56,0
227328,note_on,,,,,0,0,6,,,,,5,,,54,75
227328,note_off,,,,,384,0,3,,,,,2,,,64,0
227328,note_off,,,,,192,0,2,,,,,1,,,64,0
227328,note_on,,,,,0,0,2,,,,,1,,,61,75
227328,note_off,,,,,192,0,7,,,,,6,,,44,0
227328,note_on,,,,,0,0,1,,,,,0,,,69,75
227424,note_on,,,,,0,0,1,,,,,0,,,64,75
227424,note_off,,,,,96,0,1,,,,,0,,,69,0
227520,note_off,,,,,192,0,6,,,,,5,,,54,0
227520,note_on,,,,,0,0,6,,,,,5,,,49,75
227520,note_on,,,,,0,0,7,,,,,6,,,37,75
227520,note_off,,,,,192,0,7,,,,,6,,,42,0
227520,note_on,,,,,0,0,2,,,,,1,,,64,75
227520,note_on,,,,,0,0,1,,,,,0,,,69,75
227520,note_off,,,,,96,0,1,,,,,0,,,64,0
227520,note_off,,,,,192,0,2,,,,,1,,,61,0
227616,note_off,,,,,96,0,1,,,,,0,,,69,0
227616,note_on,,,,,0,0,1,,,,,0,,,73,75
227712,note_on,,,,,0,0,6,,,,,5,,,50,75
227712,note_off,,,,,96,0,1,,,,,0,,,73,0
227712,note_on,,,,,0,0,1,,,,,0,,,71,75
227712,note_off,,,,,192,0,6,,,,,5,,,49,0
227712,note_on,,,,,0,0,2,,,,,1,,,66,75
227712,note_off,,,,,192,0,2,,,,,1,,,64,0
227712,note_on,,,,,0,0,7,,,,,6,,,38,75
227712,note_off,,,,,192,0,7,,,,,6,,,37,0
227808,note_on,,,,,0,0,1,,,,,0,,,64,75
227808,note_off,,,,,96,0,1,,,,,0,,,71,0
227904,note_off,,,,,192,0,6,,,,,5,,,50,0
227904,note_off,,,,,192,0,7,,,,,6,,,38,0
227904,note_off,,,,,192,0,2,,,,,1,,,66,0
227904,note_on,,,,,0,0,1,,,,,0,,,71,75
227904,note_on,,,,,0,0,2,,,,,1,,,68,75
227904,note_on,,,,,0,0,7,,,,,6,,,40,75
227904,note_on,,,,,0,0,6,,,,,5,,,52,75
227904,note_off,,,,,96,0,1,,,,,0,,,64,0
228000,note_on,,,,,0,0,1,,,,,0,,,74,75
228000,note_off,,,,,96,0,1,,,,,0,,,71,0
228096,note_off,,,,,192,0,6,,,,,5,,,52,0
228096,note_off,,,,,96,0,1,,,,,0,,,74,0
228096,note_on,,,,,0,0,7,,,,,6,,,33,75
228096,note_on,,,,,0,0,6,,,,,5,,,45,75
228096,note_off,,,,,192,0,7,,,,,6,,,40,0
228096,note_on,,,,,0,0,2,,,,,1,,,69,75
228096,note_off,,,,,192,0,2,,,,,1,,,68,0
228096,note_on,,,,,0,0,1,,,,,0,,,73,75
228192,note_off,,,,,96,0,1,,,,,0,,,73,0
228192,note_on,,,,,0,0,1,,,,,0,,,64,75
228288,note_on,,,,,960,0,4,,,,,3,,,69,88
228288,note_on,,,,,960,0,8,,,,,7,,,57,60
228288,note_off,,,,,96,0,1,,,,,0,,,64,0
228288,note_on,,,,,960,0,5,,,,,4,,,64,75
228288,note_on,,,,,960,0,3,,,,,2,,,73,94
228288,note_on,,,,,0,0,1,,,,,0,,,69,75
228384,note_off,,,,,96,0,1,,,,,0,,,69,0
228384,note_on,,,,,0,0,1,,,,,0,,,73,75
228480,note_off,,,,,384,0,7,,,,,6,,,33,0
228480,note_off,,,,,192,0,3,,,,,2,,,73,0
228480,note_off,,,,,192,0,8,,,,,7,,,57,0
228480,note_on,,,,,0,0,8,,,,,7,,,57,60
228480,note_on,,,,,0,0,3,,,,,2,,,73,94
228480,note_off,,,,,96,0,1,,,,,0,,,73,0
228480,note_off,,,,,192,0,5,,,,,4,,,64,0
228480,note_on,,,,,0,0,5,,,,,4,,,64,75
228480,note_off,,,,,384,0,6,,,,,5,,,45,0
228480,note_off,,,,,192,0,4,,,,,3,,,69,0
228480,note_on,,,,,0,0,4,,,,,3,,,69,88
228480,note_off,,,,,384,0,2,,,,,1,,,69,0
228480,note_on,,,,,0,0,1,,,,,0,,,76,75
228576,note_on,,,,,0,0,1,,,,,0,,,69,75
228576,note_off,,,,,96,0,1,,,,,0,,,76,0
228672,note_on,,,,,192,0,6,,,,,5,,,55,75
228672,note_on,,,,,192,0,7,,,,,6,,,43,75
228672,note_on,,,,,192,0,2,,,,,1,,,69,75
228672,note_off,,,,,96,0,1,,,,,0,,,69,0
228672,note_on,,,,,0,0,1,,,,,0,,,71,75
228768,note_on,,,,,0,0,1,,,,,0,,,73,75
228768,note_off,,,,,96,0,1,,,,,0,,,71,0
228864,note_off,,,,,192,0,6,,,,,5,,,55,0
228864,note_off,,,,,384,0,8,,,,,7,,,57,0
228864,note_off,,,,,96,0,1,,,,,0,,,73,0
228864,note_on,,,,,0,0,1,,,,,0,,,74,75
228864,note_off,,,,,192,0,2,,,,,1,,,69,0
228864,note_off,,,,,192,0,7,,,,,6,,,43,0
228864,note_on,,,,,0,0,7,,,,,6,,,42,75
228864,note_off,,,,,384,0,5,,,,,4,,,64,0
228864,note_on,,,,,0,0,2,,,,,1,,,69,75
228864,note_on,,,,,0,0,6,,,,,5,,,54,75
228864,note_off,,,,,384,0,3,,,,,2,,,73,0
228864,note_off,,,,,384,0,4,,,,,3,,,69,0
228960,note_on,,,,,0,0,2,,,,,1,,,66,75
228960,note_off,,,,,96,0,2,,,,,1,,,69,0
228960,note_on,,,,,0,0,1,,,,,0,,,69,75
228960,note_off,,,,,96,0,1,,,,,0,,,74,0
229056,note_off,,,,,96,0,2,,,,,1,,,66,0
229056,note_on,,,,,0,0,2,,,,,1,,,62,75
229056,note_on,,,,,0,0,7,,,,,6,,,47,75
229056,note_off,,,,,192,0,7,,,,,6,,,42,0
229056,note_on,,,,,0,0,1,,,,,0,,,74,75
229056,note_off,,,,,96,0,1,,,,,0,,,69,0
229056,note_on,,,,,0,0,6,,,,,5,,,59,75
229056,note_off,,,,,192,0,6,,,,,5,,,54,0
229152,note_off,,,,,96,0,1,,,,,0,,,74,0
229152,note_on,,,,,0,0,1,,,,,0,,,78,75
229152,note_on,,,,,0,0,2,,,,,1,,,74,75
229152,note_off,,,,,96,0,2,,,,,1,,,62,0
229248,note_on,,,,,0,0,1,,,,,0,,,76,75
229248,note_on,,,,,0,0,2,,,,,1,,,74,75
229248,note_off,,,,,96,0,2,,,,,1,,,74,0
229248,note_off,,,,,192,0,6,,,,,5,,,59,0
229248,note_on,,,,,0,0,6,,,,,5,,,55,75
229248,note_on,,,,,0,0,7,,,,,6,,,43,75
229248,note_off,,,,,192,0,7,,,,,6,,,47,0
229248,note_off,,,,,96,0,1,,,,,0,,,78,0
229344,note_off,,,,,96,0,1,,,,,0,,,76,0
229344,note_on,,,,,0,0,1,,,,,0,,,69,75
229440,note_off,,,,,96,0,1,,,,,0,,,69,0
229440,note_on,,,,,0,0,6,,,,,5,,,57,75
229440,note_off,,,,,192,0,6,,,,,5,,,55,0
229440,note_on,,,,,0,0,7,,,,,6,,,45,75
229440,note_off,,,,,192,0,7,,,,,6,,,43,0
229440,note_on,,,,,0,0,1,,,,,0,,,76,75
229440,note_off,,,,,192,0,2,,,,,1,,,74,0
229440,note_on,,,,,0,0,2,,,,,1,,,73,75
229536,note_on,,,,,0,0,1,,,,,0,,,79,75
229536,note_off,,,,,96,0,1,,,,,0,,,76,0
229632,note_on,,,,,0,0,1,,,,,0,,,78,75
229632,note_off,,,,,96,0,1,,,,,0,,,79,0
229632,note_on,,,,,0,0,7,,,,,6,,,50,75
229632,note_off,,,,,192,0,7,,,,,6,,,45,0
229632,note_on,,,,,0,0,2,,,,,1,,,74,75
229632,note_off,,,,,192,0,2,,,,,1,,,73,0
229632,note_off,,,,,192,0,6,,,,,5,,,57,0
229632,note_on,,,,,0,0,6,,,,,5,,,62,75
229728,note_off,,,,,96,0,1,,,,,0,,,78,0
229728,note_on,,,,,0,0,1,,,,,0,,,69,75
229824,note_on,,,,,960,0,5,,,,,4,,,62,75
229824,note_on,,,,,960,0,3,,,,,2,,,69,94
229824,note_off,,,,,96,0,1,,,,,0,,,69,0
229824,note_on,,,,,0,0,1,,,,,0,,,74,75
229824,note_on,,,,,960,0,4,,,,,3,,,66,88
229824,note_on,,,,,960,0,8,,,,,7,,,50,60
229920,note_off,,,,,96,0,1,,,,,0,,,74,0
229920,note_on,,,,,0,0,1,,,,,0,,,78,75
230016,note_off,,,,,384,0,7,,,,,6,,,50,0
230016,note_off,,,,,96,0,1,,,,,0,,,78,0
230016,note_on,,,,,0,0,3,,,,,2,,,69,94
230016,note_off,,,,,192,0,3,,,,,2,,,69,0
230016,note_on,,,,,0,0,4,,,,,3,,,66,88
230016,note_off,,,,,192,0,5,,,,,4,,,62,0
230016,note_off,,,,,192,0,4,,,,,3,,,66,0
230016,note_on,,,,,0,0,5,,,,,4,,,62,75
230016,note_on,,,,,0,0,1,,,,,0,,,81,75
230016,note_off,,,,,384,0,2,,,,,1,,,74,0
230016,note_off,,,,,192,0,8,,,,,7,,,50,0
230016,note_on,,,,,0,0,8,,,,,7,,,50,60
230016,note_off,,,,,384,0,6,,,,,5,,,62,0
230112,note_on,,,,,0,0,1,,,,,0,,,69,75
230112,note_off,,,,,96,0,1,,,,,0,,,81,0
230208,note_on,,,,,192,0,2,,,,,1,,,69,75
230208,note_off,,,,,96,0,1,,,,,0,,,69,0
230208,note_on,,,,,192,0,6,,,,,5,,,62,75
230208,note_on,,,,,192,0,7,,,,,6,,,50,75
230208,note_on,,,,,0,0,1,,,,,0,,,71,75
230304,note_on,,,,,0,0,1,,,,,0,,,73,75
230304,note_off,,,,,96,0,1,,,,,0,,,71,0
230400,note_on,,,,,0,0,7,,,,,6,,,42,75
230400,note_off,,,,,192,0,2,,,,,1,,,69,0
230400,note_off,,,,,384,0,4,,,,,3,,,66,0
230400,note_on,,,,,0,0,2,,,,,1,,,69,75
230400,note_off,,,,,384,0,5,,,,,4,,,62,0
230400,note_off,,,,,192,0,6,,,,,5,,,62,0
230400,note_off,,,,,384,0,8,,,,,7,,,50,0
230400,note_on,,,,,0,0,1,,,,,0,,,74,75
230400,note_off,,,,,384,0,3,,,,,2,,,69,0
230400,note_off,,,,,192,0,7,,,,,6,,,50,0
230400,note_on,,,,,0,0,6,,,,,5,,,54,75
230400,note_off,,,,,96,0,1,,,,,0,,,73,0
230496,note_off,,,,,96,0,1,,,,,0,,,74,0
230496,note_on,,,,,0,0,1,,,,,0,,,69,75
230592,note_off,,,,,192,0,6,,,,,5,,,54,0
230592,note_on,,,,,0,0,6,,,,,5,,,50,75
230592,note_on,,,,,0,0,2,,,,,1,,,66,75
230592,note_on,,,,,0,0,7,,,,,6,,,38,75
230592,note_off,,,,,192,0,2,,,,,1,,,69,0
230592,note_on,,,,,0,0,1,,,,,0,,,74,75
230592,note_off,,,,,96,0,1,,,,,0,,,69,0
230592,note_off,,,,,192,0,7,,,,,6,,,42,0
230688,note_on,,,,,0,0,1,,,,,0,,,78,75
230688,note_off,,,,,96,0,1,,,,,0,,,74,0
230784,note_on,,,,,0,0,7,,,,,6,,,49,75
230784,note_on,,,,,0,0,1,,,,,0,,,76,75
230784,note_off,,,,,96,0,1,,,,,0,,,78,0
230784,note_on,,,,,0,0,6,,,,,5,,,61,75
230784,note_off,,,,,192,0,6,,,,,5,,,50,0
230784,note_off,,,,,192,0,7,,,,,6,,,38,0
230784,note_on,,,,,0,0,2,,,,,1,,,69,75
230784,note_off,,,,,192,0,2,,,,,1,,,66,0
230880,note_off,,,,,96,0,1,,,,,0,,,76,0
230880,note_on,,,,,0,0,1,,,,,0,,,69,75
230976,note_on,,,,,0,0,6,,,,,5,,,57,75
230976,note_off,,,,,192,0,6,,,,,5,,,61,0
230976,note_off,,,,,96,0,1,,,,,0,,,69,0
230976,note_on,,,,,0,0,1,,,,,0,,,76,75
230976,note_on,,,,,0,0,2,,,,,1,,,73,75
230976,note_off,,,,,192,0,2,,,,,1,,,69,0
230976,note_on,,,,,0,0,7,,,,,6,,,45,75
230976,note_off,,,,,192,0,7,,,,,6,,,49,0
231072,note_on,,,,,0,0,1,,,,,0,,,79,75
231072,note_off,,,,,96,0,1,,,,,0,,,76,0
231168,note_on,,,,,0,0,7,,,,,6,,,50,75
231168,note_off,,,,,192,0,7,,,,,6,,,45,0
231168,note_off,,,,,192,0,2,,,,,1,,,73,0
231168,note_on,,,,,0,0,6,,,,,5,,,62,75
231168,note_on,,,,,0,0,1,,,,,0,,,78,75
231168,note_off,,,,,96,0,1,,,,,0,,,79,0
231168,note_off,,,,,192,0,6,,,,,5,,,57,0
231168,note_on,,,,,0,0,2,,,,,1,,,74,75
231264,note_on,,,,,0,0,1,,,,,0,,,74,75
231264,note_off,,,,,96,0,1,,,,,0,,,78,0
231360,note_on,,,,,960,0,3,,,,,2,,,78,94
231360,note_off,,,,,96,0,1,,,,,0,,,74,0
231360,note_on,,,,,960,0,5,,,,,4,,,69,75
231360,note_on,,,,,0,0,1,,,,,0,,,78,75
231360,note_on,,,,,960,0,8,,,,,7,,,62,60
231360,note_on,,,,,960,0,4,,,,,3,,,74,88
231456,note_on,,,,,0,0,1,,,,,0,,,81,75
231456,note_off,,,,,96,0,1,,,,,0,,,78,0
231552,note_off,,,,,384,0,7,,,,,6,,,50,0
231552,note_on,,,,,0,0,5,,,,,4,,,69,75
231552,note_off,,,,,96,0,1,,,,,0,,,81,0
231552,note_on,,,,,0,0,1,,,,,0,,,78,75
231552,note_on,,,,,0,0,8,,,,,7,,,62,60
231552,note_off,,,,,384,0,6,,,,,5,,,62,0
231552,note_on,,,,,0,0,3,,,,,2,,,78,94
231552,note_off,,,,,192,0,3,,,,,2,,,78,0
231552,note_off,,,,,192,0,4,,,,,3,,,74,0
231552,note_on,,,,,0,0,4,,,,,3,,,74,88
231552,note_off,,,,,384,0,2,,,,,1,,,74,0
231552,note_off,,,,,192,0,8,,,,,7,,,62,0
231552,note_off,,,,,192,0,5,,,,,4,,,69,0
231648,note_on,,,,,0,0,1,,,,,0,,,74,75
231648,note_off,,,,,96,0,1,,,,,0,,,78,0
231744,note_on,,,,,192,0,2,,,,,1,,,74,75
231744,note_off,,,,,96,0,1,,,,,0,,,74,0
231744,note_on,,,,,0,0,1,,,,,0,,,78,75
231744,note_on,,,,,192,0,6,,,,,5,,,62,75
231744,note_on,,,,,192,0,7,,,,,6,,,50,75
231840,note_on,,,,,0,0,1,,,,,0,,,81,75
231840,note_off,,,,,96,0,1,,,,,0,,,78,0
231936,note_off,,,,,384,0,8,,,,,7,,,62,0
231936,note_on,,,,,0,0,6,,,,,5,,,62,75
231936,note_off,,,,,192,0,6,,,,,5,,,62,0
231936,note_on,,,,,0,0,2,,,,,1,,,71,75
231936,note_off,,,,,192,0,7,,,,,6,,,50,0
231936,note_off,,,,,384,0,4,,,,,3,,,74,0
231936,note_off,,,,,384,0,3,,,,,2,,,78,0
231936,note_on,,,,,0,0,7,,,,,6,,,50,75
231936,note_off,,,,,384,0,5,,,,,4,,,69,0
231936,note_off,,,,,96,0,1,,,,,0,,,81,0
231936,note_on,,,,,0,0,1,,,,,0,,,80,75
231936,note_off,,,,,192,0,2,,,,,1,,,74,0
232032,note_off,,,,,96,0,1,,,,,0,,,80,0
232032,note_on,,,,,0,0,1,,,,,0,,,76,75
232128,note_off,,,,,96,0,1,,,,,0,,,76,0
232128,note_on,,,,,0,0,1,,,,,0,,,80,75
232128,note_on,,,,,192,0,8,,,,,7,,,62,60
232128,note_on,,,,,192,0,5,,,,,4,,,64,75
232128,note_on,,,,,192,0,4,,,,,3,,,68,88
232128,note_on,,,,,192,0,3,,,,,2,,,71,94
232224,note_off,,,,,96,0,1,,,,,0,,,80,0
232224,note_on,,,,,0,0,1,,,,,0,,,83,75
232320,note_off,,,,,384,0,2,,,,,1,,,71,0
232320,note_off,,,,,192,0,3,,,,,2,,,71,0
232320,note_on,,,,,0,0,3,,,,,2,,,71,94
232320,note_on,,,,,0,0,4,,,,,3,,,68,88
232320,note_off,,,,,192,0,4,,,,,3,,,68,0
232320,note_off,,,,,192,0,8,,,,,7,,,62,0
232320,note_on,,,,,0,0,8,,,,,7,,,62,60
232320,note_off,,,,,192,0,5,,,,,4,,,64,0
232320,note_on,,,,,0,0,1,,,,,0,,,80,75
232320,note_off,,,,,96,0,1,,,,,0,,,83,0
232320,note_off,,,,,384,0,7,,,,,6,,,50,0
232320,note_off,,,,,384,0,6,,,,,5,,,62,0
232320,note_on,,,,,0,0,5,,,,,4,,,64,75
232416,note_on,,,,,0,0,1,,,,,0,,,76,75
232416,note_off,,,,,96,0,1,,,,,0,,,80,0
232512,note_on,,,,,0,0,1,,,,,0,,,80,75
232512,note_on,,,,,192,0,2,,,,,1,,,71,75
232512,note_on,,,,,192,0,7,,,,,6,,,50,75
232512,note_off,,,,,96,0,1,,,,,0,,,76,0
232512,note_on,,,,,192,0,6,,,,,5,,,62,75
232608,note_off,,,,,96,0,1,,,,,0,,,80,0
232608,note_on,,,,,0,0,1,,,,,0,,,83,75
232704,note_on,,,,,0,0,1,,,,,0,,,81,75
232704,note_off,,,,,384,0,5,,,,,4,,,64,0
232704,note_on,,,,,0,0,6,,,,,5,,,61,75
232704,note_off,,,,,192,0,6,,,,,5,,,62,0
232704,note_off,,,,,96,0,1,,,,,0,,,83,0
232704,note_off,,,,,192,0,7,,,,,6,,,50,0
232704,note_on,,,,,0,0,7,,,,,6,,,49,75
232704,note_on,,,,,0,0,2,,,,,1,,,76,75
232704,note_off,,,,,192,0,2,,,,,1,,,71,0
232704,note_off,,,,,384,0,8,,,,,7,,,62,0
232704,note_off,,,,,384,0,3,,,,,2,,,71,0
232704,note_off,,,,,384,0,4,,,,,3,,,68,0
232800,note_on,,,,,0,0,1,,,,,0,,,76,75
232800,note_off,,,,,96,0,1,,,,,0,,,81,0
232896,note_on,,,,,192,0,5,,,,,4,,,64,75
232896,note_on,,,,,192,0,3,,,,,2,,,76,94
232896,note_on,,,,,0,0,1,,,,,0,,,81,75
232896,note_off,,,,,96,0,1,,,,,0,,,76,0
232896,note_on,,,,,192,0,8,,,,,7,,,61,60
232896,note_on,,,,,192,0,4,,,,,3,,,69,88
232992,note_on,,,,,0,0,1,,,,,0,,,85,75
232992,note_off,,,,,96,0,1,,,,,0,,,81,0
233088,note_off,,,,,96,0,1,,,,,0,,,85,0
233088,note_on,,,,,0,0,1,,,,,0,,,81,75
233088,note_off,,,,,192,0,8,,,,,7,,,61,0
233088,note_on,,,,,0,0,4,,,,,3,,,69,88
233088,note_off,,,,,192,0,4,,,,,3,,,69,0
233088,note_on,,,,,0,0,8,,,,,7,,,61,60
233088,note_off,,,,,384,0,2,,,,,1,,,76,0
233088,note_on,,,,,0,0,5,,,,,4,,,64,75
233088,note_off,,,,,192,0,3,,,,,2,,,76,0
233088,note_on,,,,,0,0,3,,,,,2,,,76,94
233088,note_off,,,,,384,0,6,,,,,5,,,61,0
233088,note_off,,,,,192,0,5,,,,,4,,,64,0
233088,note_off,,,,,384,0,7,,,,,6,,,49,0
233184,note_on,,,,,0,0,1,,,,,0,,,76,75
233184,note_off,,,,,96,0,1,,,,,0,,,81,0
233280,note_on,,,,,0,0,1,,,,,0,,,81,75
233280,note_off,,,,,96,0,1,,,,,0,,,76,0
233280,note_on,,,,,192,0,2,,,,,1,,,76,75
233280,note_on,,,,,192,0,7,,,,,6,,,45,75
233280,note_on,,,,,192,0,6,,,,,5,,,57,75
233376,note_on,,,,,0,0,1,,,,,0,,,85,75
233376,note_off,,,,,96,0,1,,,,,0,,,81,0
233472,note_on,,,,,0,0,2,,,,,1,,,76,75
233472,note_off,,,,,384,0,3,,,,,2,,,76,0
233472,note_off,,,,,384,0,8,,,,,7,,,61,0
233472,note_on,,,,,0,0,6,,,,,5,,,56,75
233472,note_off,,,,,192,0,6,,,,,5,,,57,0
233472,note_on,,,,,0,0,7,,,,,6,,,44,75
233472,note_off,,,,,192,0,2,,,,,1,,,76,0
233472,note_off,,,,,192,0,7,,,,,6,,,45,0
233472,note_off,,,,,384,0,4,,,,,3,,,69,0
233472,note_off,,,,,96,0,1,,,,,0,,,85,0
233472,note_on,,,,,0,0,1,,,,,0,,,83,75
233472,note_off,,,,,384,0,5,,,,,4,,,64,0
233568,note_off,,,,,96,0,1,,,,,0,,,83,0
233568,note_on,,,,,0,0,1,,,,,0,,,76,75
233664,note_on,,,,,192,0,8,,,,,7,,,56,60
233664,note_on,,,,,192,0,5,,,,,4,,,68,75
233664,note_on,,,,,0,0,1,,,,,0,,,83,75
233664,note_on,,,,,192,0,4,,,,,3,,,71,88
233664,note_off,,,,,96,0,1,,,,,0,,,76,0
233664,note_on,,,,,192,0,3,,,,,2,,,76,94
233760,note_off,,,,,96,0,1,,,,,0,,,83,0
233760,note_on,,,,,0,0,1,,,,,0,,,86,75
233856,note_on,,,,,0,0,3,,,,,2,,,76,94
233856,note_off,,,,,384,0,7,,,,,6,,,44,0
233856,note_off,,,,,384,0,6,,,,,5,,,56,0
233856,note_off,,,,,384,0,2,,,,,1,,,76,0
233856,note_off,,,,,192,0,4,,,,,3,,,71,0
233856,note_off,,,,,192,0,8,,,,,7,,,56,0
233856,note_off,,,,,192,0,3,,,,,2,,,76,0
233856,note_off,,,,,96,0,1,,,,,0,,,86,0
233856,note_on,,,,,0,0,4,,,,,3,,,71,88
233856,note_on,,,,,0,0,5,,,,,4,,,68,75
233856,note_off,,,,,192,0,5,,,,,4,,,68,0
233856,note_on,,,,,0,0,8,,,,,7,,,56,60
233856,note_on,,,,,0,0,1,,,,,0,,,83,75
233952,note_off,,,,,96,0,1,,,,,0,,,83,0
233952,note_on,,,,,0,0,1,,,,,0,,,76,75
234048,note_on,,,,,192,0,2,,,,,1,,,80,75
234048,note_off,,,,,96,0,1,,,,,0,,,76,0
234048,note_on,,,,,0,0,1,,,,,0,,,83,75
234048,note_on,,,,,192,0,6,,,,,5,,,52,75
234048,note_on,,,,,192,0,7,,,,,6,,,40,75
234144,note_on,,,,,0,0,1,,,,,0,,,86,75
234144,note_off,,,,,96,0,1,,,,,0,,,83,0
234240,note_on,,,,,0,0,1,,,,,0,,,85,75
234240,note_off,,,,,96,0,1,,,,,0,,,86,0
234240,note_on,,,,,0,0,2,,,,,1,,,81,75
234240,note_off,,,,,192,0,2,,,,,1,,,80,0
234240,note_off,,,,,384,0,4,,,,,3,,,71,0
234240,note_off,,,,,384,0,3,,,,,2,,,76,0
234240,note_off,,,,,192,0,7,,,,,6,,,40,0
234240,note_on,,,,,0,0,7,,,,,6,,,45,75
234240,note_off,,,,,384,0,5,,,,,4,,,68,0
234240,note_on,,,,,0,0,6,,,,,5,,,57,75
234240,note_off,,,,,192,0,6,,,,,5,,,52,0
234240,note_off,,,,,384,0,8,,,,,7,,,56,0
234336,note_on,,,,,0,0,1,,,,,0,,,76,75
234336,note_off,,,,,96,0,1,,,,,0,,,85,0
234432,note_on,,,,,192,0,4,,,,,3,,,73,88
234432,note_on,,,,,192,0,3,,,,,2,,,76,94
234432,note_on,,,,,0,0,1,,,,,0,,,78,75
234432,note_off,,,,,96,0,1,,,,,0,,,76,0
234432,note_on,,,,,192,0,5,,,,,4,,,61,75
234432,note_on,,,,,192,0,8,,,,,7,,,57,60
234528,note_off,,,,,96,0,1,,,,,0,,,78,0
234528,note_on,,,,,0,0,1,,,,,0,,,80,75
234624,note_on,,,,,0,0,5,,,,,4,,,69,75
234624,note_off,,,,,384,0,6,,,,,5,,,57,0
234624,note_off,,,,,384,0,2,,,,,1,,,81,0
234624,note_off,,,,,192,0,8,,,,,7,,,57,0
234624,note_on,,,,,0,0,8,,,,,7,,,57,60
234624,note_off,,,,,384,0,7,,,,,6,,,45,0
234624,note_off,,,,,192,0,3,,,,,2,,,76,0
234624,note_off,,,,,192,0,5,,,,,4,,,61,0
234624,note_on,,,,,0,0,4,,,,,3,,,73,88
234624,note_off,,,,,192,0,4,,,,,3,,,73,0
234624,note_off,,,,,96,0,1,,,,,0,,,80,0
234624,note_on,,,,,0,0,1,,,,,0,,,81,75
234624,note_on,,,,,0,0,3,,,,,2,,,76,94
234720,note_off,,,,,96,0,1,,,,,0,,,81,0
234720,note_on,,,,,0,0,1,,,,,0,,,76,75
234816,note_on,,,,,192,0,7,,,,,6,,,44,75
234816,note_on,,,,,192,0,6,,,,,5,,,56,75
234816,note_off,,,,,96,0,1,,,,,0,,,76,0
234816,note_on,,,,,0,0,1,,,,,0,,,83,75
234816,note_on,,,,,192,0,2,,,,,1,,,76,75
234912,note_on,,,,,0,0,1,,,,,0,,,76,75
234912,note_off,,,,,96,0,1,,,,,0,,,83,0
235008,note_off,,,,,192,0,2,,,,,1,,,76,0
235008,note_on,,,,,0,0,2,,,,,1,,,76,75
235008,note_on,,,,,0,0,6,,,,,5,,,57,75
235008,note_off,,,,,192,0,6,,,,,5,,,56,0
235008,note_off,,,,,384,0,5,,,,,4,,,69,0
235008,note_off,,,,,384,0,8,,,,,7,,,57,0
235008,note_on,,,,,0,0,1,,,,,0,,,85,75
235008,note_off,,,,,384,0,3,,,,,2,,,76,0
235008,note_off,,,,,192,0,7,,,,,6,,,44,0
235008,note_on,,,,,0,0,7,,,,,6,,,45,75
235008,note_off,,,,,96,0,1,,,,,0,,,76,0
235008,note_off,,,,,384,0,4,,,,,3,,,73,0
235104,note_off,,,,,96,0,1,,,,,0,,,85,0
235104,note_on,,,,,0,0,1,,,,,0,,,86,75
235200,note_off,,,,,192,0,2,,,,,1,,,76,0
235200,note_on,,,,,0,0,2,,,,,1,,,76,75
235200,note_off,,,,,192,0,7,,,,,6,,,45,0
235200,note_on,,,,,0,0,7,,,,,6,,,44,75
235200,note_off,,,,,192,0,6,,,,,5,,,57,0
235200,note_on,,,,,0,0,6,,,,,5,,,56,75
235200,note_off,,,,,96,0,1,,,,,0,,,86,0
235200,note_on,,,,,0,0,1,,,,,0,,,83,75
235296,note_off,,,,,96,0,1,,,,,0,,,83,0
235296,note_on,,,,,0,0,1,,,,,0,,,85,75
235392,note_off,,,,,192,0,6,,,,,5,,,56,0
235392,note_on,,,,,0,0,7,,,,,6,,,42,75
235392,note_on,,,,,0,0,1,,,,,0,,,86,75
235392,note_off,,,,,96,0,1,,,,,0,,,85,0
235392,note_off,,,,,192,0,7,,,,,6,,,44,0
235392,note_on,,,,,0,0,2,,,,,1,,,81,75
235392,note_off,,,,,192,0,2,,,,,1,,,76,0
235392,note_on,,,,,0,0,6,,,,,5,,,54,75
235488,note_off,,,,,96,0,1,,,,,0,,,86,0
235488,note_on,,,,,0,0,1,,,,,0,,,85,75
235584,note_off,,,,,192,0,2,,,,,1,,,81,0
235584,note_off,,,,,192,0,6,,,,,5,,,54,0
235584,note_on,,,,,0,0,6,,,,,5,,,57,75
235584,note_on,,,,,0,0,2,,,,,1,,,78,75
235584,note_off,,,,,96,0,1,,,,,0,,,85,0
235584,note_on,,,,,0,0,7,,,,,6,,,45,75
235584,note_on,,,,,0,0,1,,,,,0,,,83,75
235584,note_off,,,,,192,0,7,,,,,6,,,42,0
235680,note_off,,,,,96,0,1,,,,,0,,,83,0
235680,note_on,,,,,0,0,1,,,,,0,,,81,75
235776,note_on,,,,,0,0,7,,,,,6,,,40,75
235776,note_off,,,,,96,0,1,,,,,0,,,81,0
235776,note_on,,,,,0,0,1,,,,,0,,,83,75
235776,note_off,,,,,192,0,7,,,,,6,,,45,0
235776,note_off,,,,,192,0,2,,,,,1,,,78,0
235776,note_on,,,,,0,0,2,,,,,1,,,80,75
235776,note_on,,,,,0,0,6,,,,,5,,,52,75
235776,note_off,,,,,192,0,6,,,,,5,,,57,0
235872,note_on,,,,,0,0,1,,,,,0,,,76,75
235872,note_off,,,,,96,0,1,,,,,0,,,83,0
235968,note_on,,,,,0,0,1,,,,,0,,,80,75
235968,note_off,,,,,96,0,1,,,,,0,,,76,0
235968,note_on,,,,,960,0,3,,,,,2,,,64,94
235968,note_on,,,,,960,0,5,,,,,4,,,56,75
235968,note_on,,,,,960,0,4,,,,,3,,,59,88
235968,note_on,,,,,960,0,8,,,,,7,,,52,60
236064,note_off,,,,,96,0,1,,,,,0,,,80,0
236064,note_on,,,,,0,0,1,,,,,0,,,83,75
236160,note_on,,,,,0,0,8,,,,,7,,,44,60
236160,note_off,,,,,384,0,7,,,,,6,,,40,0
236160,note_off,,,,,192,0,5,,,,,4,,,56,0
236160,note_on,,,,,0,0,5,,,,,4,,,56,75
236160,note_off,,,,,384,0,6,,,,,5,,,52,0
236160,note_off,,,,,384,0,2,,,,,1,,,80,0
236160,note_off,,,,,192,0,4,,,,,3,,,59,0
236160,note_on,,,,,0,0,4,,,,,3,,,59,88
236160,note_on,,,,,0,0,3,,,,,2,,,64,94
236160,note_off,,,,,96,0,1,,,,,0,,,83,0
236160,note_on,,,,,0,0,1,,,,,0,,,74,75
236160,note_off,,,,,192,0,8,,,,,7,,,52,0
236160,note_off,,,,,192,0,3,,,,,2,,,64,0
236256,note_off,,,,,96,0,1,,,,,0,,,74,0
236256,note_on,,,,,0,0,1,,,,,0,,,78,75
236352,note_on,,,,,192,0,6,,,,,5,,,56,75
236352,note_on,,,,,192,0,7,,,,,6,,,44,75
236352,note_on,,,,,0,0,1,,,,,0,,,76,75
236352,note_on,,,,,192,0,2,,,,,1,,,71,75
236352,note_off,,,,,96,0,1,,,,,0,,,78,0
236448,note_off,,,,,96,0,1,,,,,0,,,76,0
236448,note_on,,,,,0,0,1,,,,,0,,,74,75
236544,note_off,,,,,96,0,1,,,,,0,,,74,0
236544,note_on,,,,,0,0,2,,,,,1,,,64,75
236544,note_off,,,,,192,0,2,,,,,1,,,71,0
236544,note_on,,,,,0,0,7,,,,,6,,,45,75
236544,note_off,,,,,192,0,7,,,,,6,,,44,0
236544,note_on,,,,,0,0,6,,,,,5,,,57,75
236544,note_off,,,,,384,0,4,,,,,3,,,59,0
236544,note_on,,,,,0,0,1,,,,,0,,,73,75
236544,note_off,,,,,384,0,8,,,,,7,,,44,0
236544,note_off,,,,,192,0,6,,,,,5,,,56,0
236544,note_off,,,,,384,0,5,,,,,4,,,56,0
236544,note_off,,,,,384,0,3,,,,,2,,,64,0
236640,note_off,,,,,96,0,1,,,,,0,,,73,0
236640,note_on,,,,,0,0,1,,,,,0,,,76,75
236736,note_on,,,,,192,0,8,,,,,7,,,45,60
236736,note_off,,,,,96,0,1,,,,,0,,,76,0
236736,note_on,,,,,0,0,1,,,,,0,,,78,75
236736,note_on,,,,,192,0,5,,,,,4,,,64,75
236736,note_on,,,,,192,0,3,,,,,2,,,73,94
236736,note_on,,,,,192,0,4,,,,,3,,,69,88
236832,note_on,,,,,0,0,1,,,,,0,,,76,75
236832,note_off,,,,,96,0,1,,,,,0,,,78,0
236928,note_off,,,,,96,0,1,,,,,0,,,76,0
236928,note_on,,,,,0,0,8,,,,,7,,,42,60
236928,note_on,,,,,0,0,5,,,,,4,,,66,75
236928,note_off,,,,,384,0,7,,,,,6,,,45,0
236928,note_off,,,,,192,0,5,,,,,4,,,64,0
236928,note_on,,,,,0,0,3,,,,,2,,,74,94
236928,note_on,,,,,0,0,4,,,,,3,,,69,88
236928,note_off,,,,,192,0,4,,,,,3,,,69,0
236928,note_off,,,,,192,0,3,,,,,2,,,73,0
236928,note_off,,,,,192,0,8,,,,,7,,,45,0
236928,note_off,,,,,384,0,2,,,,,1,,,64,0
236928,note_off,,,,,384,0,6,,,,,5,,,57,0
236928,note_on,,,,,0,0,1,,,,,0,,,74,75
237024,note_off,,,,,96,0,1,,,,,0,,,74,0
237024,note_on,,,,,0,0,1,,,,,0,,,73,75
237120,note_off,,,,,96,0,1,,,,,0,,,73,0
237120,note_on,,,,,0,0,4,,,,,3,,,69,88
237120,note_off,,,,,192,0,4,,,,,3,,,69,0
237120,note_on,,,,,192,0,6,,,,,5,,,54,75
237120,note_off,,,,,192,0,3,,,,,2,,,74,0
237120,note_off,,,,,192,0,8,,,,,7,,,42,0
237120,note_on,,,,,0,0,8,,,,,7,,,54,60
237120,note_off,,,,,192,0,5,,,,,4,,,66,0
237120,note_on,,,,,192,0,2,,,,,1,,,74,75
237120,note_on,,,,,192,0,7,,,,,6,,,42,75
237120,note_on,,,,,0,0,3,,,,,2,,,74,94
237120,note_on,,,,,0,0,5,,,,,4,,,66,75
237120,note_on,,,,,0,0,1,,,,,0,,,71,75
237216,note_off,,,,,96,0,1,,,,,0,,,71,0
237216,note_on,,,,,0,0,1,,,,,0,,,69,75
237312,note_off,,,,,192,0,5,,,,,4,,,66,0
237312,note_off,,,,,192,0,2,,,,,1,,,74,0
237312,note_on,,,,,0,0,2,,,,,1,,,68,75
237312,note_on,,,,,0,0,5,,,,,4,,,68,75
237312,note_on,,,,,0,0,6,,,,,5,,,52,75
237312,note_off,,,,,192,0,6,,,,,5,,,54,0
237312,note_off,,,,,192,0,8,,,,,7,,,54,0
237312,note_on,,,,,0,0,8,,,,,7,,,52,60
237312,note_on,,,,,0,0,3,,,,,2,,,64,94
237312,note_off,,,,,96,0,1,,,,,0,,,69,0
237312,note_on,,,,,0,0,1,,,,,0,,,83,75
237312,note_off,,,,,192,0,3,,,,,2,,,74,0
237312,note_off,,,,,192,0,4,,,,,3,,,69,0
237312,note_on,,,,,0,0,4,,,,,3,,,59,88
237312,note_on,,,,,0,0,7,,,,,6,,,40,75
237312,note_off,,,,,192,0,7,,,,,6,,,42,0
237408,note_off,,,,,96,0,1,,,,,0,,,83,0
237408,note_on,,,,,0,0,1,,,,,0,,,81,75
237504,note_off,,,,,96,0,1,,,,,0,,,81,0
237504,note_on,,,,,0,0,1,,,,,0,,,80,75
237600,note_off,,,,,96,0,1,,,,,0,,,80,0
237600,note_on,,,,,0,0,1,,,,,0,,,78,75
237696,note_off,,,,,384,0,8,,,,,7,,,52,0
237696,note_off,,,,,384,0,3,,,,,2,,,64,0
237696,note_off,,,,,384,0,5,,,,,4,,,68,0
237696,note_on,,,,,0,0,1,,,,,0,,,76,75
237696,note_off,,,,,96,0,1,,,,,0,,,78,0
237696,note_off,,,,,384,0,2,,,,,1,,,68,0
237696,note_off,,,,,384,0,6,,,,,5,,,52,0
237696,note_off,,,,,384,0,4,,,,,3,,,59,0
237696,note_off,,,,,384,0,7,,,,,6,,,40,0
237792,note_off,,,,,96,0,1,,,,,0,,,76,0
237792,note_on,,,,,0,0,1,,,,,0,,,74,75
237888,note_off,,,,,96,0,1,,,,,0,,,74,0
237888,note_on,,,,,0,0,1,,,,,0,,,73,75
237984,note_off,,,,,96,0,1,,,,,0,,,73,0
237984,note_on,,,,,0,0,1,,,,,0,,,71,75
238080,note_on,,,,,384,0,7,,,,,6,,,49,75
238080,note_on,,,,,0,0,1,,,,,0,,,76,75
238080,note_off,,,,,96,0,1,,,,,0,,,71,0
238080,note_on,,,,,384,0,6,,,,,5,,,61,75
238080,note_on,,,,,384,0,2,,,,,1,,,69,75
238464,note_on,,,,,0,0,1,,,,,0,,,81,75
238464,note_on,,,,,0,0,2,,,,,1,,,73,75
238464,note_on,,,,,0,0,7,,,,,6,,,45,75
238464,note_off,,,,,384,0,1,,,,,0,,,76,0
238464,note_off,,,,,384,0,6,,,,,5,,,61,0
238464,note_on,,,,,0,0,6,,,,,5,,,57,75
238464,note_off,,,,,384,0,7,,,,,6,,,49,0
238464,note_off,,,,,384,0,2,,,,,1,,,69,0
238656,note_off,,,,,192,0,2,,,,,1,,,73,0
238656,note_on,,,,,0,0,7,,,,,6,,,49,75
238656,note_on,,,,,0,0,2,,,,,1,,,76,75
238656,note_off,,,,,192,0,1,,,,,0,,,81,0
238656,note_off,,,,,192,0,7,,,,,6,,,45,0
238656,note_off,,,,,192,0,6,,,,,5,,,57,0
238656,note_on,,,,,0,0,6,,,,,5,,,61,75
238656,note_on,,,,,0,0,1,,,,,0,,,76,75
238848,note_off,,,,,192,0,6,,,,,5,,,61,0
238848,note_off,,,,,192,0,7,,,,,6,,,49,0
238848,note_on,,,,,0,0,7,,,,,6,,,50,75
238848,note_off,,,,,192,0,2,,,,,1,,,76,0
238848,note_on,,,,,0,0,2,,,,,1,,,69,75
238848,note_on,,,,,0,0,1,,,,,0,,,78,75
238848,note_off,,,,,192,0,1,,,,,0,,,76,0
238848,note_on,,,,,0,0,6,,,,,5,,,62,75
239040,note_off,,,,,192,0,2,,,,,1,,,69,0
239040,note_on,,,,,0,0,2,,,,,1,,,74,75
239040,note_on,,,,,0,0,1,,,,,0,,,81,75
239040,note_off,,,,,192,0,1,,,,,0,,,78,0
239232,note_off,,,,,192,0,2,,,,,1,,,74,0
239232,note_on,,,,,0,0,2,,,,,1,,,66,75
239232,note_on,,,,,0,0,7,,,,,6,,,38,75
239232,note_off,,,,,192,0,1,,,,,0,,,81,0
239232,note_on,,,,,0,0,6,,,,,5,,,50,75
239232,note_off,,,,,384,0,7,,,,,6,,,50,0
239232,note_on,,,,,0,0,1,,,,,0,,,74,75
239232,note_off,,,,,384,0,6,,,,,5,,,62,0
239616,note_off,,,,,384,0,7,,,,,6,,,38,0
239616,note_on,,,,,1920,0,8,,,,,7,,,61,60
239616,note_on,,,,,1920,0,5,,,,,4,,,69,75
239616,note_off,,,,,384,0,1,,,,,0,,,74,0
239616,note_on,,,,,1920,0,3,,,,,2,,,76,94
239616,note_off,,,,,384,0,2,,,,,1,,,66,0
239616,note_on,,,,,1920,0,4,,,,,3,,,69,88
239616,note_off,,,,,384,0,6,,,,,5,,,50,0
240000,note_off,,,,,384,0,3,,,,,2,,,76,0
240000,note_on,,,,,0,0,4,,,,,3,,,73,88
240000,note_off,,,,,384,0,5,,,,,4,,,69,0
240000,note_on,,,,,0,0,8,,,,,7,,,57,60
240000,note_off,,,,,384,0,8,,,,,7,,,61,0
240000,note_off,,,,,384,0,4,,,,,3,,,69,0
240000,note_on,,,,,0,0,5,,,,,4,,,64,75
240000,note_on,,,,,0,0,3,,,,,2,,,81,94
240192,note_off,,,,,192,0,5,,,,,4,,,64,0
240192,note_on,,,,,0,0,8,,,,,7,,,61,60
240192,note_off,,,,,192,0,3,,,,,2,,,81,0
240192,note_on,,,,,0,0,5,,,,,4,,,69,75
240192,note_off,,,,,192,0,4,,,,,3,,,73,0
240192,note_on,,,,,0,0,4,,,,,3,,,76,88
240192,note_off,,,,,192,0,8,,,,,7,,,57,0
240192,note_on,,,,,0,0,3,,,,,2,,,76,94
240384,note_off,,,,,192,0,8,,,,,7,,,61,0
240384,note_on,,,,,0,0,8,,,,,7,,,62,60
240384,note_on,,,,,0,0,4,,,,,3,,,69,88
240384,note_on,,,,,0,0,3,,,,,2,,,78,94
240384,note_off,,,,,192,0,4,,,,,3,,,76,0
240384,note_off,,,,,192,0,5,,,,,4,,,69,0
240384,note_on,,,,,0,0,5,,,,,4,,,69,75
240384,note_off,,,,,192,0,3,,,,,2,,,76,0
240576,note_off,,,,,192,0,3,,,,,2,,,78,0
240576,note_on,,,,,0,0,3,,,,,2,,,81,94
240576,note_off,,,,,192,0,4,,,,,3,,,69,0
240576,note_on,,,,,0,0,4,,,,,3,,,74,88
240768,note_on,,,,,0,0,8,,,,,7,,,50,60
240768,note_off,,,,,384,0,8,,,,,7,,,62,0
240768,note_off,,,,,192,0,4,,,,,3,,,74,0
240768,note_off,,,,,384,0,5,,,,,4,,,69,0
240768,note_on,,,,,0,0,5,,,,,4,,,69,75
240768,note_off,,,,,192,0,3,,,,,2,,,81,0
240768,note_on,,,,,0,0,4,,,,,3,,,66,88
240768,note_on,,,,,0,0,3,,,,,2,,,74,94
241152,note_off,,,,,384,0,4,,,,,3,,,66,0
241152,note_off,,,,,384,0,5,,,,,4,,,69,0
241152,note_off,,,,,384,0,8,,,,,7,,,50,0
241152,note_on,,,,,1536,0,7,,,,,6,,,52,75
241152,note_on,,,,,1536,0,1,,,,,0,,,71,75
241152,note_off,,,,,384,0,3,,,,,2,,,74,0
241152,note_on,,,,,1536,0,6,,,,,5,,,64,75
241152,note_on,,,,,1536,0,2,,,,,1,,,68,75
241536,note_off,,,,,384,0,1,,,,,0,,,71,0
241536,note_off,,,,,384,0,2,,,,,1,,,68,0
241536,note_on,,,,,0,0,2,,,,,1,,,71,75
241536,note_on,,,,,0,0,7,,,,,6,,,44,75
241536,note_on,,,,,0,0,1,,,,,0,,,76,75
241536,note_off,,,,,384,0,6,,,,,5,,,64,0
241536,note_off,,,,,384,0,7,,,,,6,,,52,0
241536,note_on,,,,,0,0,6,,,,,5,,,56,75
241728,note_off,,,,,192,0,7,,,,,6,,,44,0
241728,note_on,,,,,0,0,7,,,,,6,,,40,75
241728,note_on,,,,,0,0,1,,,,,0,,,71,75
241728,note_off,,,,,192,0,1,,,,,0,,,76,0
241728,note_off,,,,,192,0,6,,,,,5,,,56,0
241728,note_on,,,,,0,0,6,,,,,5,,,52,75
241728,note_on,,,,,0,0,2,,,,,1,,,68,75
241728,note_off,,,,,192,0,2,,,,,1,,,71,0
241920,note_off,,,,,192,0,1,,,,,0,,,71,0
241920,note_on,,,,,0,0,1,,,,,0,,,73,75
241920,note_on,,,,,0,0,7,,,,,6,,,45,75
241920,note_on,,,,,0,0,6,,,,,5,,,57,75
241920,note_off,,,,,192,0,2,,,,,1,,,68,0
241920,note_on,,,,,0,0,2,,,,,1,,,64,75
241920,note_off,,,,,192,0,7,,,,,6,,,40,0
241920,note_off,,,,,192,0,6,,,,,5,,,52,0
242112,note_off,,,,,192,0,1,,,,,0,,,73,0
242112,note_on,,,,,0,0,1,,,,,0,,,76,75
242304,note_off,,,,,192,0,1,,,,,0,,,76,0
242304,note_on,,,,,0,0,1,,,,,0,,,69,75
242304,note_on,,,,,0,0,7,,,,,6,,,33,75
242304,note_off,,,,,384,0,7,,,,,6,,,45,0
242304,note_on,,,,,0,0,2,,,,,1,,,61,75
242304,note_off,,,,,384,0,6,,,,,5,,,57,0
242304,note_off,,,,,384,0,2,,,,,1,,,64,0
242304,note_on,,,,,0,0,6,,,,,5,,,45,75
242688,note_on,,,,,1536,0,5,,,,,4,,,64,75
242688,note_on,,,,,1536,0,8,,,,,7,,,52,60
242688,note_on,,,,,1536,0,3,,,,,2,,,71,94
242688,note_off,,,,,384,0,6,,,,,5,,,45,0
242688,note_off,,,,,384,0,7,,,,,6,,,33,0
242688,note_on,,,,,1536,0,4,,,,,3,,,68,88
242688,note_off,,,,,384,0,1,,,,,0,,,69,0
242688,note_off,,,,,384,0,2,,,,,1,,,61,0
243072,note_on,,,,,0,0,4,,,,,3,,,71,88
243072,note_on,,,,,0,0,3,,,,,2,,,76,94
243072,note_off,,,,,384,0,3,,,,,2,,,71,0
243072,note_off,,,,,384,0,8,,,,,7,,,52,0
243072,note_off,,,,,384,0,4,,,,,3,,,68,0
243072,note_on,,,,,0,0,8,,,,,7,,,56,60
243072,note_off,,,,,384,0,5,,,,,4,,,64,0
243072,note_on,,,,,0,0,5,,,,,4,,,64,75
243264,note_on,,,,,0,0,3,,,,,2,,,71,94
243264,note_off,,,,,192,0,8,,,,,7,,,56,0
243264,note_off,,,,,192,0,3,,,,,2,,,76,0
243264,note_off,,,,,192,0,5,,,,,4,,,64,0
243264,note_on,,,,,0,0,4,,,,,3,,,68,88
243264,note_on,,,,,0,0,5,,,,,4,,,64,75
243264,note_off,,,,,192,0,4,,,,,3,,,71,0
243264,note_on,,,,,0,0,8,,,,,7,,,52,60
243456,note_on,,,,,0,0,4,,,,,3,,,69,88
243456,note_off,,,,,192,0,4,,,,,3,,,68,0
243456,note_on,,,,,0,0,5,,,,,4,,,64,75
243456,note_off,,,,,192,0,5,,,,,4,,,64,0
243456,note_on,,,,,0,0,3,,,,,2,,,73,94
243456,note_off,,,,,192,0,3,,,,,2,,,71,0
243456,note_off,,,,,192,0,8,,,,,7,,,52,0
243456,note_on,,,,,0,0,8,,,,,7,,,57,60
243648,note_on,,,,,0,0,3,,,,,2,,,76,94
243648,note_off,,,,,192,0,3,,,,,2,,,73,0
243648,note_on,,,,,0,0,4,,,,,3,,,73,88
243648,note_off,,,,,192,0,4,,,,,3,,,69,0
243648,note_off,,,,,192,0,5,,,,,4,,,64,0
243648,note_on,,,,,0,0,5,,,,,4,,,69,75
243840,note_on,,,,,0,0,5,,,,,4,,,61,75
243840,note_off,,,,,192,0,5,,,,,4,,,69,0
243840,note_on,,,,,0,0,4,,,,,3,,,64,88
243840,note_on,,,,,0,0,8,,,,,7,,,45,60
243840,note_off,,,,,192,0,3,,,,,2,,,76,0
243840,note_on,,,,,0,0,3,,,,,2,,,69,94
243840,note_off,,,,,192,0,4,,,,,3,,,73,0
243840,note_off,,,,,384,0,8,,,,,7,,,57,0
244224,note_off,,,,,384,0,8,,,,,7,,,45,0
244224,note_off,,,,,384,0,4,,,,,3,,,64,0
244224,note_on,,,,,1536,0,1,,,,,0,,,81,75
244224,note_off,,,,,384,0,3,,,,,2,,,69,0
244224,note_on,,,,,1536,0,2,,,,,1,,,76,75
244224,note_on,,,,,1536,0,6,,,,,5,,,61,75
244224,note_off,,,,,384,0,5,,,,,4,,,61,0
244224,note_on,,,,,1536,0,7,,,,,6,,,49,75
244608,note_off,,,,,384,0,2,,,,,1,,,76,0
244608,note_on,,,,,0,0,1,,,,,0,,,79,75
244608,note_off,,,,,384,0,6,,,,,5,,,61,0
244608,note_on,,,,,0,0,6,,,,,5,,,64,75
244608,note_on,,,,,0,0,7,,,,,6,,,52,75
244608,note_off,,,,,384,0,7,,,,,6,,,49,0
244608,note_off,,,,,384,0,1,,,,,0,,,81,0
244608,note_on,,,,,0,0,2,,,,,1,,,73,75
244704,note_on,,,,,0,0,1,,,,,0,,,78,75
244704,note_off,,,,,96,0,1,,,,,0,,,79,0
244800,note_on,,,,,0,0,1,,,,,0,,,79,75
244800,note_off,,,,,96,0,1,,,,,0,,,78,0
244800,note_off,,,,,192,0,6,,,,,5,,,64,0
244800,note_on,,,,,0,0,6,,,,,5,,,61,75
244800,note_off,,,,,192,0,7,,,,,6,,,52,0
244800,note_on,,,,,0,0,7,,,,,6,,,49,75
244896,note_off,,,,,96,0,1,,,,,0,,,79,0
244896,note_on,,,,,0,0,1,,,,,0,,,76,75
244992,note_off,,,,,384,0,2,,,,,1,,,73,0
244992,note_on,,,,,0,0,6,,,,,5,,,62,75
244992,note_off,,,,,192,0,6,,,,,5,,,61,0
244992,note_off,,,,,192,0,7,,,,,6,,,49,0
244992,note_on,,,,,0,0,7,,,,,6,,,50,75
244992,note_on,,,,,0,0,1,,,,,0,,,78,75
244992,note_off,,,,,96,0,1,,,,,0,,,76,0
244992,note_on,,,,,0,0,2,,,,,1,,,69,75
245184,note_on,,,,,0,0,1,,,,,0,,,81,75
245184,note_off,,,,,192,0,1,,,,,0,,,78,0
245184,note_on,,,,,0,0,2,,,,,1,,,78,75
245184,note_off,,,,,192,0,2,,,,,1,,,69,0
245376,note_off,,,,,192,0,1,,,,,0,,,81,0
245376,note_on,,,,,0,0,1,,,,,0,,,86,75
245376,note_off,,,,,192,0,2,,,,,1,,,78,0
245376,note_on,,,,,0,0,2,,,,,1,,,81,75
245376,note_on,,,,,0,0,6,,,,,5,,,66,75
245376,note_off,,,,,384,0,7,,,,,6,,,50,0
245376,note_on,,,,,0,0,7,,,,,6,,,54,75
245376,note_off,,,,,384,0,6,,,,,5,,,62,0
245760,note_off,,,,,384,0,6,,,,,5,,,66,0
245760,note_on,,,,,1536,0,4,,,,,3,,,69,88
245760,note_off,,,,,384,0,7,,,,,6,,,54,0
245760,note_on,,,,,1536,0,3,,,,,2,,,78,94
245760,note_on,,,,,1536,0,5,,,,,4,,,59,75
245760,note_off,,,,,384,0,2,,,,,1,,,81,0
245760,note_on,,,,,1536,0,8,,,,,7,,,51,60
245760,note_off,,,,,384,0,1,,,,,0,,,86,0
245952,note_on,,,,,0,0,8,,,,,7,,,54,60
245952,note_off,,,,,192,0,8,,,,,7,,,51,0
246144,note_off,,,,,192,0,8,,,,,7,,,54,0
246144,note_on,,,,,0,0,8,,,,,7,,,47,60
246144,note_on,,,,,0,0,4,,,,,3,,,66,88
246144,note_on,,,,,0,0,3,,,,,2,,,69,94
246144,note_off,,,,,384,0,4,,,,,3,,,69,0
246144,note_off,,,,,384,0,5,,,,,4,,,59,0
246144,note_off,,,,,384,0,3,,,,,2,,,78,0
246144,note_on,,,,,0,0,5,,,,,4,,,63,75
246240,note_off,,,,,96,0,4,,,,,3,,,66,0
246240,note_off,,,,,96,0,3,,,,,2,,,69,0
246240,note_on,,,,,0,0,3,,,,,2,,,68,94
246240,note_on,,,,,0,0,4,,,,,3,,,64,88
246336,note_off,,,,,96,0,3,,,,,2,,,68,0
246336,note_on,,,,,0,0,3,,,,,2,,,69,94
246336,note_off,,,,,96,0,4,,,,,3,,,64,0
246336,note_on,,,,,0,0,4,,,,,3,,,66,88
246432,note_off,,,,,96,0,3,,,,,2,,,69,0
246432,note_on,,,,,0,0,3,,,,,2,,,66,94
246432,note_on,,,,,0,0,4,,,,,3,,,63,88
246432,note_off,,,,,96,0,4,,,,,3,,,66,0
246528,note_on,,,,,0,0,5,,,,,4,,,59,75
246528,note_off,,,,,384,0,8,,,,,7,,,47,0
246528,note_on,,,,,0,0,8,,,,,7,,,52,60
246528,note_off,,,,,384,0,5,,,,,4,,,63,0
246528,note_off,,,,,96,0,4,,,,,3,,,63,0
246528,note_on,,,,,0,0,3,,,,,2,,,68,94
246528,note_off,,,,,96,0,3,,,,,2,,,66,0
246528,note_on,,,,,0,0,4,,,,,3,,,64,88
246720,note_off,,,,,192,0,4,,,,,3,,,64,0
246720,note_on,,,,,0,0,3,,,,,2,,,71,94
246720,note_off,,,,,192,0,5,,,,,4,,,59,0
246720,note_on,,,,,0,0,5,,,,,4,,,64,75
246720,note_off,,,,,192,0,3,,,,,2,,,68,0
246720,note_on,,,,,0,0,4,,,,,3,,,68,88
246912,note_off,,,,,384,0,8,,,,,7,,,52,0
246912,note_on,,,,,0,0,4,,,,,3,,,59,88
246912,note_on,,,,,0,0,5,,,,,4,,,56,75
246912,note_off,,,,,192,0,5,,,,,4,,,64,0
246912,note_on,,,,,0,0,3,,,,,2,,,64,94
246912,note_off,,,,,192,0,3,,,,,2,,,71,0
246912,note_off,,,,,192,0,4,,,,,3,,,68,0
246912,note_on,,,,,0,0,8,,,,,7,,,40,60
247104,note_on,,,,,1344,0,1,,,,,0,,,86,75
247296,note_off,,,,,384,0,4,,,,,3,,,59,0
247296,note_off,,,,,384,0,8,,,,,7,,,40,0
247296,note_off,,,,,384,0,3,,,,,2,,,64,0
247296,note_off,,,,,384,0,5,,,,,4,,,56,0
247296,note_off,,,,,192,0,1,,,,,0,,,86,0
247296,note_on,,,,,0,0,1,,,,,0,,,85,75
247392,note_on,,,,,0,0,1,,,,,0,,,83,75
247392,note_off,,,,,96,0,1,,,,,0,,,85,0
247488,note_on,,,,,0,0,1,,,,,0,,,81,75
247488,note_off,,,,,96,0,1,,,,,0,,,83,0
247680,note_off,,,,,192,0,1,,,,,0,,,81,0
247680,note_on,,,,,0,0,1,,,,,0,,,83,75
247728,note_on,,,,,0,0,1,,,,,0,,,81,75
247728,note_off,,,,,48,0,1,,,,,0,,,83,0
247776,note_off,,,,,48,0,1,,,,,0,,,81,0
247776,note_on,,,,,0,0,1,,,,,0,,,83,75
247824,note_on,,,,,0,0,1,,,,,0,,,81,75
247824,note_off,,,,,48,0,1,,,,,0,,,83,0
247872,note_off,,,,,48,0,1,,,,,0,,,81,0
247872,note_on,,,,,0,0,1,,,,,0,,,83,75
247872,note_on,,,,,2112,0,6,,,,,5,,,62,75
247872,note_on,,,,,2112,0,2,,,,,1,,,78,75
247872,note_on,,,,,2112,0,7,,,,,6,,,50,75
247920,note_off,,,,,48,0,1,,,,,0,,,83,0
247920,note_on,,,,,0,0,1,,,,,0,,,81,75
248064,note_off,,,,,192,0,7,,,,,6,,,50,0
248064,note_off,,,,,192,0,2,,,,,1,,,78,0
248064,note_off,,,,,144,0,1,,,,,0,,,81,0
248064,note_on,,,,,0,0,1,,,,,0,,,83,75
248064,note_off,,,,,192,0,6,,,,,5,,,62,0
248064,note_on,,,,,0,0,6,,,,,5,,,61,75
248064,note_on,,,,,0,0,2,,,,,1,,,76,75
248064,note_on,,,,,0,0,7,,,,,6,,,49,75
248112,note_off,,,,,48,0,1,,,,,0,,,83,0
248112,note_on,,,,,0,0,1,,,,,0,,,81,75
248160,note_on,,,,,0,0,6,,,,,5,,,59,75
248160,note_on,,,,,0,0,2,,,,,1,,,74,75
248160,note_off,,,,,96,0,7,,,,,6,,,49,0
248160,note_on,,,,,0,0,7,,,,,6,,,47,75
248160,note_off,,,,,96,0,6,,,,,5,,,61,0
248160,note_off,,,,,48,0,1,,,,,0,,,81,0
248160,note_on,,,,,0,0,1,,,,,0,,,83,75
248160,note_off,,,,,96,0,2,,,,,1,,,76,0
248208,note_off,,,,,48,0,1,,,,,0,,,83,0
248208,note_on,,,,,0,0,1,,,,,0,,,81,75
248256,note_off,,,,,96,0,2,,,,,1,,,74,0
248256,note_on,,,,,0,0,2,,,,,1,,,73,75
248256,note_on,,,,,0,0,6,,,,,5,,,57,75
248256,note_off,,,,,96,0,7,,,,,6,,,47,0
248256,note_on,,,,,0,0,1,,,,,0,,,83,75
248256,note_off,,,,,48,0,1,,,,,0,,,81,0
248256,note_on,,,,,0,0,7,,,,,6,,,45,75
248256,note_off,,,,,96,0,6,,,,,5,,,59,0
248304,note_off,,,,,48,0,1,,,,,0,,,83,0
248304,note_on,,,,,0,0,1,,,,,0,,,81,75
248448,note_on,,,,,0,0,2,,,,,1,,,83,75
248448,note_off,,,,,192,0,2,,,,,1,,,73,0
248448,note_on,,,,,0,0,6,,,,,5,,,59,75
248448,note_off,,,,,144,0,1,,,,,0,,,81,0
248448,note_off,,,,,192,0,6,,,,,5,,,57,0
248448,note_off,,,,,192,0,7,,,,,6,,,45,0
248448,note_on,,,,,0,0,7,,,,,6,,,59,75
248496,note_on,,,,,0,0,6,,,,,5,,,57,75
248496,note_off,,,,,48,0,7,,,,,6,,,59,0
248496,note_on,,,,,0,0,7,,,,,6,,,57,75
248496,note_off,,,,,48,0,6,,,,,5,,,59,0
248496,note_on,,,,,0,0,2,,,,,1,,,81,75
248496,note_off,,,,,48,0,2,,,,,1,,,83,0
248544,note_on,,,,,0,0,2,,,,,1,,,83,75
248544,note_off,,,,,48,0,2,,,,,1,,,81,0
248544,note_off,,,,,48,0,6,,,,,5,,,57,0
248544,note_on,,,,,0,0,6,,,,,5,,,59,75
248544,note_on,,,,,0,0,7,,,,,6,,,59,75
248544,note_off,,,,,48,0,7,,,,,6,,,57,0
248592,note_on,,,,,0,0,7,,,,,6,,,57,75
248592,note_off,,,,,48,0,7,,,,,6,,,59,0
248592,note_off,,,,,48,0,2,,,,,1,,,83,0
248592,note_on,,,,,0,0,2,,,,,1,,,81,75
248592,note_on,,,,,0,0,6,,,,,5,,,57,75
248592,note_off,,,,,48,0,6,,,,,5,,,59,0
248640,note_on,,,,,0,0,6,,,,,5,,,59,75
248640,note_off,,,,,48,0,2,,,,,1,,,81,0
248640,note_on,,,,,0,0,2,,,,,1,,,83,75
248640,note_on,,,,,1344,0,3,,,,,2,,,86,94
248640,note_off,,,,,48,0,6,,,,,5,,,57,0
248640,note_off,,,,,48,0,7,,,,,6,,,57,0
248640,note_on,,,,,0,0,7,,,,,6,,,59,75
248640,note_on,,,,,1344,0,5,,,,,4,,,66,75
248688,note_off,,,,,48,0,7,,,,,6,,,59,0
248688,note_off,,,,,48,0,2,,,,,1,,,83,0
248688,note_on,,,,,0,0,2,,,,,1,,,81,75
248688,note_on,,,,,0,0,6,,,,,5,,,57,75
248688,note_off,,,,,48,0,6,,,,,5,,,59,0
248688,note_on,,,,,0,0,7,,,,,6,,,57,75
248832,note_off,,,,,192,0,5,,,,,4,,,66,0
248832,note_on,,,,,0,0,5,,,,,4,,,64,75
248832,note_off,,,,,144,0,2,,,,,1,,,81,0
248832,note_on,,,,,0,0,2,,,,,1,,,83,75
248832,note_on,,,,,0,0,3,,,,,2,,,85,94
248832,note_off,,,,,192,0,3,,,,,2,,,86,0
248832,note_off,,,,,144,0,7,,,,,6,,,57,0
248832,note_off,,,,,144,0,6,,,,,5,,,57,0
248832,note_on,,,,,0,0,7,,,,,6,,,59,75
248832,note_on,,,,,0,0,6,,,,,5,,,59,75
248880,note_off,,,,,48,0,2,,,,,1,,,83,0
248880,note_on,,,,,0,0,2,,,,,1,,,81,75
248880,note_on,,,,,0,0,7,,,,,6,,,57,75
248880,note_off,,,,,48,0,7,,,,,6,,,59,0
248880,note_off,,,,,48,0,6,,,,,5,,,59,0
248880,note_on,,,,,0,0,6,,,,,5,,,57,75
248928,note_on,,,,,0,0,6,,,,,5,,,59,75
248928,note_off,,,,,48,0,2,,,,,1,,,81,0
248928,note_on,,,,,0,0,2,,,,,1,,,83,75
248928,note_off,,,,,96,0,5,,,,,4,,,64,0
248928,note_off,,,,,48,0,7,,,,,6,,,57,0
248928,note_off,,,,,48,0,6,,,,,5,,,57,0
248928,note_on,,,,,0,0,7,,,,,6,,,59,75
248928,note_on,,,,,0,0,5,,,,,4,,,62,75
248928,note_on,,,,,0,0,3,,,,,2,,,83,94
248928,note_off,,,,,96,0,3,,,,,2,,,85,0
248976,note_on,,,,,0,0,7,,,,,6,,,57,75
248976,note_off,,,,,48,0,2,,,,,1,,,83,0
248976,note_on,,,,,0,0,6,,,,,5,,,57,75
248976,note_off,,,,,48,0,6,,,,,5,,,59,0
248976,note_on,,,,,0,0,2,,,,,1,,,81,75
248976,note_off,,,,,48,0,7,,,,,6,,,59,0
249024,note_on,,,,,0,0,5,,,,,4,,,61,75
249024,note_off,,,,,96,0,3,,,,,2,,,83,0
249024,note_off,,,,,96,0,5,,,,,4,,,62,0
249024,note_off,,,,,48,0,7,,,,,6,,,57,0
249024,note_on,,,,,0,0,7,,,,,6,,,59,75
249024,note_on,,,,,0,0,2,,,,,1,,,83,75
249024,note_off,,,,,48,0,2,,,,,1,,,81,0
249024,note_on,,,,,0,0,3,,,,,2,,,81,94
249024,note_on,,,,,0,0,6,,,,,5,,,59,75
249024,note_off,,,,,48,0,6,,,,,5,,,57,0
249072,note_on,,,,,0,0,2,,,,,1,,,81,75
249072,note_on,,,,,0,0,6,,,,,5,,,57,75
249072,note_off,,,,,48,0,6,,,,,5,,,59,0
249072,note_on,,,,,0,0,7,,,,,6,,,57,75
249072,note_off,,,,,48,0,2,,,,,1,,,83,0
249072,note_off,,,,,48,0,7,,,,,6,,,59,0
249216,note_off,,,,,192,0,5,,,,,4,,,61,0
249216,note_off,,,,,144,0,6,,,,,5,,,57,0
249216,note_off,,,,,144,0,7,,,,,6,,,57,0
249216,note_off,,,,,192,0,3,,,,,2,,,81,0
249216,note_on,,,,,0,0,3,,,,,2,,,83,94
249216,note_off,,,,,144,0,2,,,,,1,,,81,0
249264,note_on,,,,,0,0,3,,,,,2,,,81,94
249264,note_off,,,,,48,0,3,,,,,2,,,83,0
249312,note_off,,,,,48,0,3,,,,,2,,,81,0
249312,note_on,,,,,0,0,3,,,,,2,,,83,94
249360,note_on,,,,,0,0,3,,,,,2,,,81,94
249360,note_off,,,,,48,0,3,,,,,2,,,83,0
249408,note_on,,,,,192,0,6,,,,,5,,,62,75
249408,note_on,,,,,192,0,7,,,,,6,,,50,75
249408,note_on,,,,,192,0,5,,,,,4,,,62,75
249408,note_on,,,,,2112,0,8,,,,,7,,,62,60
249408,note_on,,,,,2112,0,4,,,,,3,,,78,88
249408,note_on,,,,,0,0,3,,,,,2,,,83,94
249408,note_off,,,,,48,0,3,,,,,2,,,81,0
249456,note_on,,,,,0,0,3,,,,,2,,,81,94
249456,note_off,,,,,48,0,3,,,,,2,,,83,0
249600,note_off,,,,,144,0,3,,,,,2,,,81,0
249600,note_on,,,,,0,0,8,,,,,7,,,61,60
249600,note_off,,,,,192,0,5,,,,,4,,,62,0
249600,note_on,,,,,0,0,5,,,,,4,,,61,75
249600,note_off,,,,,192,0,8,,,,,7,,,62,0
249600,note_on,,,,,0,0,7,,,,,6,,,49,75
249600,note_off,,,,,192,0,6,,,,,5,,,62,0
249600,note_off,,,,,192,0,4,,,,,3,,,78,0
249600,note_on,,,,,0,0,4,,,,,3,,,76,88
249600,note_off,,,,,192,0,7,,,,,6,,,50,0
249600,note_on,,,,,0,0,3,,,,,2,,,83,94
249600,note_on,,,,,0,0,6,,,,,5,,,61,75
249648,note_on,,,,,0,0,3,,,,,2,,,81,94
249648,note_off,,,,,48,0,3,,,,,2,,,83,0
249696,note_off,,,,,96,0,7,,,,,6,,,49,0
249696,note_off,,,,,96,0,5,,,,,4,,,61,0
249696,note_on,,,,,0,0,7,,,,,6,,,47,75
249696,note_on,,,,,0,0,5,,,,,4,,,59,75
249696,note_off,,,,,96,0,8,,,,,7,,,61,0
249696,note_off,,,,,96,0,6,,,,,5,,,61,0
249696,note_on,,,,,0,0,3,,,,,2,,,83,94
249696,note_on,,,,,0,0,4,,,,,3,,,74,88
249696,note_off,,,,,96,0,4,,,,,3,,,76,0
249696,note_on,,,,,0,0,8,,,,,7,,,59,60
249696,note_off,,,,,48,0,3,,,,,2,,,81,0
249696,note_on,,,,,0,0,6,,,,,5,,,59,75
249744,note_off,,,,,48,0,3,,,,,2,,,83,0
249744,note_on,,,,,0,0,3,,,,,2,,,81,94
249792,note_on,,,,,0,0,8,,,,,7,,,57,60
249792,note_off,,,,,96,0,8,,,,,7,,,59,0
249792,note_off,,,,,48,0,3,,,,,2,,,81,0
249792,note_on,,,,,0,0,5,,,,,4,,,57,75
249792,note_on,,,,,0,0,4,,,,,3,,,73,88
249792,note_off,,,,,96,0,4,,,,,3,,,74,0
249792,note_on,,,,,0,0,7,,,,,6,,,45,75
249792,note_on,,,,,0,0,3,,,,,2,,,83,94
249792,note_off,,,,,96,0,6,,,,,5,,,59,0
249792,note_on,,,,,0,0,6,,,,,5,,,57,75
249792,note_off,,,,,96,0,7,,,,,6,,,47,0
249792,note_off,,,,,96,0,5,,,,,4,,,59,0
249840,note_on,,,,,0,0,3,,,,,2,,,81,94
249840,note_off,,,,,48,0,3,,,,,2,,,83,0
249984,note_on,,,,,0,0,6,,,,,5,,,59,75
249984,note_off,,,,,192,0,7,,,,,6,,,45,0
249984,note_on,,,,,0,0,8,,,,,7,,,57,60
249984,note_off,,,,,192,0,8,,,,,7,,,57,0
249984,note_off,,,,,192,0,5,,,,,4,,,57,0
249984,note_on,,,,,0,0,5,,,,,4,,,57,75
249984,note_on,,,,,0,0,7,,,,,6,,,47,75
249984,note_off,,,,,144,0,3,,,,,2,,,81,0
249984,note_on,,,,,0,0,4,,,,,3,,,81,88
249984,note_off,,,,,192,0,4,,,,,3,,,73,0
249984,note_off,,,,,192,0,6,,,,,5,,,57,0
250032,note_off,,,,,48,0,6,,,,,5,,,59,0
250032,note_off,,,,,48,0,7,,,,,6,,,47,0
250032,note_on,,,,,0,0,7,,,,,6,,,45,75
250032,note_on,,,,,0,0,6,,,,,5,,,57,75
250080,note_off,,,,,48,0,6,,,,,5,,,57,0
250080,note_on,,,,,0,0,7,,,,,6,,,47,75
250080,note_on,,,,,0,0,6,,,,,5,,,59,75
250080,note_off,,,,,48,0,7,,,,,6,,,45,0
250128,note_off,,,,,48,0,7,,,,,6,,,47,0
250128,note_on,,,,,0,0,7,,,,,6,,,45,75
250128,note_off,,,,,48,0,6,,,,,5,,,59,0
250128,note_on,,,,,0,0,6,,,,,5,,,57,75
250176,note_off,,,,,48,0,6,,,,,5,,,57,0
250176,note_off,,,,,48,0,7,,,,,6,,,45,0
250176,note_on,,,,,1728,0,1,,,,,0,,,86,75
250176,note_on,,,,,0,0,7,,,,,6,,,47,75
250176,note_on,,,,,0,0,6,,,,,5,,,59,75
250224,note_off,,,,,48,0,6,,,,,5,,,59,0
250224,note_on,,,,,0,0,7,,,,,6,,,45,75
250224,note_off,,,,,48,0,7,,,,,6,,,47,0
250224,note_on,,,,,0,0,6,,,,,5,,,57,75
250368,note_off,,,,,192,0,1,,,,,0,,,86,0
250368,note_off,,,,,144,0,7,,,,,6,,,45,0
250368,note_off,,,,,384,0,8,,,,,7,,,57,0
250368,note_on,,,,,0,0,1,,,,,0,,,85,75
250368,note_off,,,,,384,0,4,,,,,3,,,81,0
250368,note_off,,,,,384,0,5,,,,,4,,,57,0
250368,note_off,,,,,144,0,6,,,,,5,,,57,0
250464,note_off,,,,,96,0,1,,,,,0,,,85,0
250464,note_on,,,,,0,0,1,,,,,0,,,83,75
250560,note_off,,,,,96,0,1,,,,,0,,,83,0
250560,note_on,,,,,0,0,1,,,,,0,,,81,75
250752,note_on,,,,,384,0,4,,,,,3,,,69,88
250752,note_on,,,,,768,0,3,,,,,2,,,69,94
250944,note_off,,,,,384,0,1,,,,,0,,,81,0
250944,note_on,,,,,1728,0,2,,,,,1,,,83,75
251040,note_off,,,,,96,0,2,,,,,1,,,83,0
251040,note_on,,,,,0,0,2,,,,,1,,,85,75
251088,note_on,,,,,0,0,2,,,,,1,,,86,75
251088,note_off,,,,,48,0,2,,,,,1,,,85,0
251136,note_off,,,,,384,0,4,,,,,3,,,69,0
251136,note_off,,,,,48,0,2,,,,,1,,,86,0
251136,note_on,,,,,0,0,2,,,,,1,,,85,75
251136,note_off,,,,,384,0,3,,,,,2,,,69,0
251232,note_off,,,,,96,0,2,,,,,1,,,85,0
251232,note_on,,,,,0,0,2,,,,,1,,,83,75
251328,note_off,,,,,96,0,2,,,,,1,,,83,0
251328,note_on,,,,,0,0,2,,,,,1,,,81,75
251520,note_on,,,,,384,0,3,,,,,2,,,69,94
251520,note_on,,,,,384,0,4,,,,,3,,,69,88
251712,note_on,,,,,768,0,1,,,,,0,,,83,75
251712,note_off,,,,,384,0,2,,,,,1,,,81,0
251808,note_off,,,,,96,0,1,,,,,0,,,83,0
251808,note_on,,,,,0,0,1,,,,,0,,,85,75
251856,note_off,,,,,48,0,1,,,,,0,,,85,0
251856,note_on,,,,,0,0,1,,,,,0,,,86,75
251904,note_off,,,,,384,0,4,,,,,3,,,69,0
251904,note_off,,,,,384,0,3,,,,,2,,,69,0
251904,note_on,,,,,0,0,1,,,,,0,,,85,75
251904,note_off,,,,,48,0,1,,,,,0,,,86,0
252000,note_on,,,,,0,0,1,,,,,0,,,83,75
252000,note_off,,,,,96,0,1,,,,,0,,,85,0
252096,note_on,,,,,192,0,3,,,,,2,,,69,94
252096,note_off,,,,,96,0,1,,,,,0,,,83,0
252096,note_on,,,,,0,0,1,,,,,0,,,81,75
252096,note_on,,,,,192,0,4,,,,,3,,,64,88
252096,note_on,,,,,1728,0,5,,,,,4,,,61,75
252096,note_on,,,,,1728,0,8,,,,,7,,,49,60
252192,note_off,,,,,96,0,1,,,,,0,,,81,0
252192,note_on,,,,,0,0,1,,,,,0,,,80,75
252288,note_off,,,,,192,0,4,,,,,3,,,64,0
252288,note_on,,,,,0,0,3,,,,,2,,,69,94
252288,note_off,,,,,192,0,3,,,,,2,,,69,0
252288,note_off,,,,,192,0,5,,,,,4,,,61,0
252288,note_on,,,,,0,0,4,,,,,3,,,64,88
252288,note_on,,,,,0,0,8,,,,,7,,,49,60
252288,note_off,,,,,192,0,8,,,,,7,,,49,0
252288,note_off,,,,,96,0,1,,,,,0,,,80,0
252288,note_on,,,,,0,0,1,,,,,0,,,78,75
252288,note_on,,,,,0,0,5,,,,,4,,,61,75
252384,note_off,,,,,96,0,1,,,,,0,,,78,0
252384,note_on,,,,,0,0,1,,,,,0,,,76,75
252480,note_on,,,,,2112,0,7,,,,,6,,,45,75
252480,note_on,,,,,2112,0,6,,,,,5,,,57,75
252480,note_on,,,,,768,0,2,,,,,1,,,69,75
252480,note_on,,,,,0,0,1,,,,,0,,,74,75
252480,note_off,,,,,96,0,1,,,,,0,,,76,0
252576,note_on,,,,,0,0,1,,,,,0,,,73,75
252576,note_off,,,,,96,0,1,,,,,0,,,74,0
252672,note_on,,,,,0,0,6,,,,,5,,,59,75
252672,note_off,,,,,192,0,6,,,,,5,,,57,0
252672,note_off,,,,,384,0,4,,,,,3,,,64,0
252672,note_off,,,,,384,0,8,,,,,7,,,49,0
252672,note_off,,,,,384,0,5,,,,,4,,,61,0
252672,note_off,,,,,384,0,3,,,,,2,,,69,0
252672,note_on,,,,,0,0,7,,,,,6,,,47,75
252672,note_off,,,,,192,0,2,,,,,1,,,69,0
252672,note_on,,,,,0,0,2,,,,,1,,,66,75
252672,note_off,,,,,192,0,7,,,,,6,,,45,0
252672,note_on,,,,,0,0,1,,,,,0,,,74,75
252672,note_off,,,,,96,0,1,,,,,0,,,73,0
252768,note_off,,,,,96,0,1,,,,,0,,,74,0
252768,note_on,,,,,0,0,1,,,,,0,,,71,75
252864,note_on,,,,,0,0,2,,,,,1,,,78,75
252864,note_on,,,,,192,0,5,,,,,4,,,62,75
252864,note_on,,,,,192,0,3,,,,,2,,,71,94
252864,note_on,,,,,192,0,8,,,,,7,,,47,60
252864,note_on,,,,,192,0,4,,,,,3,,,66,88
252864,note_off,,,,,96,0,1,,,,,0,,,71,0
252864,note_off,,,,,192,0,2,,,,,1,,,66,0
252864,note_on,,,,,0,0,1,,,,,0,,,74,75
252960,note_off,,,,,96,0,1,,,,,0,,,74,0
252960,note_on,,,,,0,0,1,,,,,0,,,78,75
253056,note_on,,,,,0,0,3,,,,,2,,,71,94
253056,note_off,,,,,384,0,7,,,,,6,,,47,0
253056,note_off,,,,,192,0,3,,,,,2,,,71,0
253056,note_on,,,,,0,0,2,,,,,1,,,74,75
253056,note_on,,,,,0,0,5,,,,,4,,,62,75
253056,note_off,,,,,192,0,5,,,,,4,,,62,0
253056,note_on,,,,,0,0,1,,,,,0,,,83,75
253056,note_on,,,,,0,0,8,,,,,7,,,47,60
253056,note_off,,,,,192,0,8,,,,,7,,,47,0
253056,note_off,,,,,96,0,1,,,,,0,,,78,0
253056,note_on,,,,,0,0,4,,,,,3,,,66,88
253056,note_off,,,,,192,0,4,,,,,3,,,66,0
253056,note_off,,,,,192,0,2,,,,,1,,,78,0
253056,note_off,,,,,384,0,6,,,,,5,,,59,0
253152,note_off,,,,,96,0,2,,,,,1,,,74,0
253152,note_on,,,,,0,0,2,,,,,1,,,71,75
253248,note_on,,,,,0,0,2,,,,,1,,,74,75
253248,note_on,,,,,192,0,7,,,,,6,,,47,75
253248,note_on,,,,,192,0,6,,,,,5,,,59,75
253248,note_off,,,,,96,0,2,,,,,1,,,71,0
253344,note_off,,,,,96,0,2,,,,,1,,,74,0
253344,note_on,,,,,0,0,2,,,,,1,,,78,75
253440,note_on,,,,,0,0,2,,,,,1,,,83,75
253440,note_off,,,,,384,0,8,,,,,7,,,47,0
253440,note_off,,,,,96,0,2,,,,,1,,,78,0
253440,note_on,,,,,0,0,6,,,,,5,,,56,75
253440,note_on,,,,,0,0,7,,,,,6,,,44,75
253440,note_off,,,,,192,0,7,,,,,6,,,47,0
253440,note_off,,,,,384,0,5,,,,,4,,,62,0
253440,note_off,,,,,384,0,3,,,,,2,,,71,0
253440,note_off,,,,,384,0,4,,,,,3,,,66,0
253440,note_off,,,,,192,0,6,,,,,5,,,59,0
253536,note_off,,,,,480,0,1,,,,,0,,,83,0
253536,note_on,,,,,0,0,1,,,,,0,,,81,75
253632,note_on,,,,,192,0,3,,,,,2,,,71,94
253632,note_on,,,,,192,0,8,,,,,7,,,44,60
253632,note_off,,,,,96,0,1,,,,,0,,,81,0
253632,note_on,,,,,0,0,1,,,,,0,,,80,75
253632,note_on,,,,,192,0,4,,,,,3,,,64,88
253632,note_on,,,,,192,0,5,,,,,4,,,62,75
253728,note_on,,,,,0,0,1,,,,,0,,,78,75
253728,note_off,,,,,96,0,1,,,,,0,,,80,0
253824,note_off,,,,,384,0,6,,,,,5,,,56,0
253824,note_off,,,,,96,0,1,,,,,0,,,78,0
253824,note_on,,,,,0,0,5,,,,,4,,,62,75
253824,note_on,,,,,0,0,3,,,,,2,,,71,94
253824,note_off,,,,,192,0,3,,,,,2,,,71,0
253824,note_off,,,,,384,0,7,,,,,6,,,44,0
253824,note_off,,,,,192,0,5,,,,,4,,,62,0
253824,note_on,,,,,0,0,8,,,,,7,,,44,60
253824,note_off,,,,,192,0,4,,,,,3,,,64,0
253824,note_on,,,,,0,0,4,,,,,3,,,64,88
253824,note_off,,,,,384,0,2,,,,,1,,,83,0
253824,note_off,,,,,192,0,8,,,,,7,,,44,0
253824,note_on,,,,,0,0,1,,,,,0,,,76,75
253920,note_off,,,,,96,0,1,,,,,0,,,76,0
253920,note_on,,,,,0,0,1,,,,,0,,,74,75
254016,note_on,,,,,192,0,2,,,,,1,,,83,75
254016,note_on,,,,,192,0,6,,,,,5,,,56,75
254016,note_on,,,,,192,0,7,,,,,6,,,44,75
254016,note_off,,,,,96,0,1,,,,,0,,,74,0
254016,note_on,,,,,0,0,1,,,,,0,,,73,75
254112,note_on,,,,,0,0,1,,,,,0,,,71,75
254112,note_off,,,,,96,0,1,,,,,0,,,73,0
254208,note_off,,,,,192,0,2,,,,,1,,,83,0
254208,note_off,,,,,384,0,8,,,,,7,,,44,0
254208,note_on,,,,,0,0,6,,,,,5,,,57,75
254208,note_off,,,,,192,0,6,,,,,5,,,56,0
254208,note_on,,,,,0,0,2,,,,,1,,,76,75
254208,note_off,,,,,384,0,4,,,,,3,,,64,0
254208,note_off,,,,,384,0,5,,,,,4,,,62,0
254208,note_off,,,,,384,0,3,,,,,2,,,71,0
254208,note_on,,,,,0,0,7,,,,,6,,,45,75
254208,note_off,,,,,192,0,7,,,,,6,,,44,0
254208,note_off,,,,,96,0,1,,,,,0,,,71,0
254208,note_on,,,,,0,0,1,,,,,0,,,73,75
254304,note_on,,,,,0,0,1,,,,,0,,,69,75
254304,note_off,,,,,96,0,1,,,,,0,,,73,0
254400,note_on,,,,,192,0,5,,,,,4,,,61,75
254400,note_on,,,,,0,0,1,,,,,0,,,73,75
254400,note_on,,,,,192,0,3,,,,,2,,,69,94
254400,note_off,,,,,192,0,2,,,,,1,,,76,0
254400,note_on,,,,,0,0,2,,,,,1,,,69,75
254400,note_off,,,,,96,0,1,,,,,0,,,69,0
254400,note_on,,,,,192,0,8,,,,,7,,,45,60
254400,note_on,,,,,192,0,4,,,,,3,,,64,88
254496,note_off,,,,,96,0,1,,,,,0,,,73,0
254496,note_on,,,,,0,0,1,,,,,0,,,76,75
254592,note_off,,,,,192,0,8,,,,,7,,,45,0
254592,note_on,,,,,0,0,5,,,,,4,,,61,75
254592,note_on,,,,,0,0,8,,,,,7,,,45,60
254592,note_on,,,,,0,0,2,,,,,1,,,73,75
254592,note_off,,,,,384,0,6,,,,,5,,,57,0
254592,note_on,,,,,0,0,1,,,,,0,,,81,75
254592,note_on,,,,,0,0,4,,,,,3,,,64,88
254592,note_off,,,,,384,0,7,,,,,6,,,45,0
254592,note_off,,,,,96,0,1,,,,,0,,,76,0
254592,note_off,,,,,192,0,5,,,,,4,,,61,0
254592,note_off,,,,,192,0,3,,,,,2,,,69,0
254592,note_off,,,,,192,0,2,,,,,1,,,69,0
254592,note_off,,,,,192,0,4,,,,,3,,,64,0
254592,note_on,,,,,0,0,3,,,,,2,,,69,94
254688,note_off,,,,,96,0,2,,,,,1,,,73,0
254688,note_on,,,,,0,0,2,,,,,1,,,69,75
254784,note_on,,,,,192,0,6,,,,,5,,,57,75
254784,note_on,,,,,0,0,2,,,,,1,,,73,75
254784,note_on,,,,,192,0,7,,,,,6,,,45,75
254784,note_off,,,,,96,0,2,,,,,1,,,69,0
254880,note_on,,,,,0,0,2,,,,,1,,,76,75
254880,note_off,,,,,96,0,2,,,,,1,,,73,0
254976,note_off,,,,,384,0,3,,,,,2,,,69,0
254976,note_off,,,,,192,0,6,,,,,5,,,57,0
254976,note_on,,,,,0,0,6,,,,,5,,,54,75
254976,note_off,,,,,96,0,2,,,,,1,,,76,0
254976,note_off,,,,,192,0,7,,,,,6,,,45,0
254976,note_on,,,,,0,0,7,,,,,6,,,42,75
254976,note_on,,,,,0,0,2,,,,,1,,,81,75
254976,note_off,,,,,384,0,5,,,,,4,,,61,0
254976,note_off,,,,,384,0,8,,,,,7,,,45,0
254976,note_off,,,,,384,0,4,,,,,3,,,64,0
255072,note_on,,,,,0,0,1,,,,,0,,,80,75
255072,note_off,,,,,480,0,1,,,,,0,,,81,0
255168,note_off,,,,,96,0,1,,,,,0,,,80,0
255168,note_on,,,,,192,0,4,,,,,3,,,62,88
255168,note_on,,,,,192,0,8,,,,,7,,,54,60
255168,note_on,,,,,192,0,5,,,,,4,,,57,75
255168,note_on,,,,,192,0,3,,,,,2,,,69,94
255168,note_on,,,,,0,0,1,,,,,0,,,78,75
255264,note_on,,,,,0,0,1,,,,,0,,,76,75
255264,note_off,,,,,96,0,1,,,,,0,,,78,0
255360,note_off,,,,,192,0,4,,,,,3,,,62,0
255360,note_off,,,,,384,0,2,,,,,1,,,81,0
255360,note_on,,,,,0,0,5,,,,,4,,,57,75
255360,note_off,,,,,192,0,5,,,,,4,,,57,0
255360,note_on,,,,,0,0,8,,,,,7,,,54,60
255360,note_off,,,,,192,0,8,,,,,7,,,54,0
255360,note_on,,,,,0,0,4,,,,,3,,,62,88
255360,note_off,,,,,384,0,7,,,,,6,,,42,0
255360,note_off,,,,,384,0,6,,,,,5,,,54,0
255360,note_off,,,,,192,0,3,,,,,2,,,69,0
255360,note_on,,,,,0,0,3,,,,,2,,,69,94
255360,note_off,,,,,96,0,1,,,,,0,,,76,0
255360,note_on,,,,,0,0,1,,,,,0,,,74,75
255456,note_off,,,,,96,0,1,,,,,0,,,74,0
255456,note_on,,,,,0,0,1,,,,,0,,,73,75
255552,note_off,,,,,96,0,1,,,,,0,,,73,0
255552,note_on,,,,,192,0,2,,,,,1,,,66,75
255552,note_on,,,,,192,0,6,,,,,5,,,50,75
255552,note_on,,,,,0,0,1,,,,,0,,,71,75
255552,note_on,,,,,192,0,7,,,,,6,,,38,75
255648,note_on,,,,,0,0,1,,,,,0,,,69,75
255648,note_off,,,,,96,0,1,,,,,0,,,71,0
255744,note_off,,,,,192,0,2,,,,,1,,,66,0
255744,note_off,,,,,96,0,1,,,,,0,,,69,0
255744,note_on,,,,,0,0,2,,,,,1,,,71,75
255744,note_on,,,,,0,0,1,,,,,0,,,68,75
255744,note_off,,,,,192,0,6,,,,,5,,,50,0
255744,note_off,,,,,384,0,3,,,,,2,,,69,0
255744,note_on,,,,,0,0,6,,,,,5,,,52,75
255744,note_off,,,,,384,0,8,,,,,7,,,54,0
255744,note_on,,,,,0,0,7,,,,,6,,,40,75
255744,note_off,,,,,192,0,7,,,,,6,,,38,0
255744,note_off,,,,,384,0,5,,,,,4,,,57,0
255744,note_off,,,,,384,0,4,,,,,3,,,62,0
255840,note_off,,,,,96,0,1,,,,,0,,,68,0
255840,note_on,,,,,0,0,1,,,,,0,,,64,75
255936,note_on,,,,,192,0,3,,,,,2,,,68,94
255936,note_on,,,,,192,0,8,,,,,7,,,52,60
255936,note_off,,,,,96,0,1,,,,,0,,,64,0
255936,note_on,,,,,0,0,1,,,,,0,,,68,75
255936,note_on,,,,,192,0,4,,,,,3,,,71,88
255936,note_on,,,,,192,0,5,,,,,4,,,64,75
256032,note_on,,,,,0,0,1,,,,,0,,,71,75
256032,note_off,,,,,96,0,1,,,,,0,,,68,0
256128,note_on,,,,,0,0,8,,,,,7,,,52,60
256128,note_off,,,,,384,0,7,,,,,6,,,40,0
256128,note_on,,,,,0,0,3,,,,,2,,,68,94
256128,note_on,,,,,0,0,4,,,,,3,,,71,88
256128,note_off,,,,,192,0,4,,,,,3,,,71,0
256128,note_off,,,,,192,0,3,,,,,2,,,68,0
256128,note_off,,,,,96,0,1,,,,,0,,,71,0
256128,note_off,,,,,192,0,8,,,,,7,,,52,0
256128,note_off,,,,,384,0,2,,,,,1,,,71,0
256128,note_off,,,,,192,0,5,,,,,4,,,64,0
256128,note_on,,,,,0,0,5,,,,,4,,,64,75
256128,note_on,,,,,0,0,1,,,,,0,,,68,75
256128,note_off,,,,,384,0,6,,,,,5,,,52,0
256224,note_off,,,,,96,0,1,,,,,0,,,68,0
256224,note_on,,,,,0,0,1,,,,,0,,,64,75
256320,note_on,,,,,192,0,7,,,,,6,,,38,75
256320,note_on,,,,,192,0,2,,,,,1,,,68,75
256320,note_on,,,,,0,0,1,,,,,0,,,68,75
256320,note_on,,,,,192,0,6,,,,,5,,,50,75
256320,note_off,,,,,96,0,1,,,,,0,,,64,0
256416,note_off,,,,,96,0,1,,,,,0,,,68,0
256416,note_on,,,,,0,0,1,,,,,0,,,71,75
256512,note_on,,,,,0,0,1,,,,,0,,,69,75
256512,note_on,,,,,0,0,7,,,,,6,,,37,75
256512,note_off,,,,,192,0,7,,,,,6,,,38,0
256512,note_off,,,,,192,0,2,,,,,1,,,68,0
256512,note_off,,,,,192,0,6,,,,,5,,,50,0
256512,note_off,,,,,96,0,1,,,,,0,,,71,0
256512,note_off,,,,,384,0,5,,,,,4,,,64,0
256512,note_off,,,,,384,0,4,,,,,3,,,71,0
256512,note_off,,,,,384,0,8,,,,,7,,,52,0
256512,note_off,,,,,384,0,3,,,,,2,,,68,0
256512,note_on,,,,,0,0,6,,,,,5,,,49,75
256512,note_on,,,,,0,0,2,,,,,1,,,64,75
256608,note_off,,,,,96,0,1,,,,,0,,,69,0
256608,note_on,,,,,0,0,1,,,,,0,,,64,75
256704,note_on,,,,,192,0,4,,,,,3,,,64,88
256704,note_on,,,,,0,0,1,,,,,0,,,69,75
256704,note_on,,,,,192,0,3,,,,,2,,,69,94
256704,note_on,,,,,192,0,5,,,,,4,,,69,75
256704,note_off,,,,,96,0,1,,,,,0,,,64,0
256704,note_on,,,,,192,0,8,,,,,7,,,49,60
256800,note_on,,,,,0,0,1,,,,,0,,,73,75
256800,note_off,,,,,96,0,1,,,,,0,,,69,0
256896,note_off,,,,,384,0,2,,,,,1,,,64,0
256896,note_on,,,,,0,0,3,,,,,2,,,69,94
256896,note_off,,,,,192,0,3,,,,,2,,,69,0
256896,note_on,,,,,0,0,1,,,,,0,,,69,75
256896,note_off,,,,,384,0,7,,,,,6,,,37,0
256896,note_off,,,,,96,0,1,,,,,0,,,73,0
256896,note_off,,,,,192,0,5,,,,,4,,,69,0
256896,note_on,,,,,0,0,5,,,,,4,,,73,75
256896,note_on,,,,,0,0,8,,,,,7,,,49,60
256896,note_off,,,,,192,0,8,,,,,7,,,49,0
256896,note_off,,,,,384,0,6,,,,,5,,,49,0
256896,note_off,,,,,192,0,4,,,,,3,,,64,0
256896,note_on,,,,,0,0,4,,,,,3,,,64,88
256992,note_off,,,,,96,0,1,,,,,0,,,69,0
256992,note_on,,,,,0,0,1,,,,,0,,,64,75
257088,note_on,,,,,192,0,2,,,,,1,,,64,75
257088,note_on,,,,,192,0,7,,,,,6,,,49,75
257088,note_on,,,,,192,0,6,,,,,5,,,61,75
257088,note_off,,,,,96,0,1,,,,,0,,,64,0
257088,note_on,,,,,0,0,1,,,,,0,,,69,75
257184,note_off,,,,,96,0,1,,,,,0,,,69,0
257184,note_on,,,,,0,0,1,,,,,0,,,73,75
257280,note_on,,,,,0,0,7,,,,,6,,,44,75
257280,note_off,,,,,384,0,8,,,,,7,,,49,0
257280,note_off,,,,,384,0,3,,,,,2,,,69,0
257280,note_off,,,,,192,0,7,,,,,6,,,49,0
257280,note_on,,,,,0,0,1,,,,,0,,,71,75
257280,note_off,,,,,96,0,1,,,,,0,,,73,0
257280,note_off,,,,,192,0,6,,,,,5,,,61,0
257280,note_on,,,,,0,0,2,,,,,1,,,76,75
257280,note_off,,,,,192,0,2,,,,,1,,,64,0
257280,note_off,,,,,384,0,4,,,,,3,,,64,0
257280,note_on,,,,,0,0,6,,,,,5,,,56,75
257280,note_off,,,,,384,0,5,,,,,4,,,73,0
257376,note_off,,,,,96,0,1,,,,,0,,,71,0
257376,note_on,,,,,0,0,1,,,,,0,,,64,75
257472,note_on,,,,,0,0,1,,,,,0,,,71,75
257472,note_off,,,,,96,0,1,,,,,0,,,64,0
257472,note_on,,,,,192,0,3,,,,,2,,,71,94
257472,note_on,,,,,192,0,4,,,,,3,,,64,88
257472,note_on,,,,,192,0,8,,,,,7,,,44,60
257472,note_on,,,,,192,0,5,,,,,4,,,62,75
257568,note_on,,,,,0,0,1,,,,,0,,,74,75
257568,note_off,,,,,96,0,1,,,,,0,,,71,0
257664,note_off,,,,,192,0,5,,,,,4,,,62,0
257664,note_on,,,,,0,0,5,,,,,4,,,62,75
257664,note_off,,,,,384,0,6,,,,,5,,,56,0
257664,note_off,,,,,96,0,1,,,,,0,,,74,0
257664,note_on,,,,,0,0,8,,,,,7,,,44,60
257664,note_on,,,,,0,0,1,,,,,0,,,71,75
257664,note_off,,,,,192,0,3,,,,,2,,,71,0
257664,note_off,,,,,192,0,4,,,,,3,,,64,0
257664,note_off,,,,,384,0,2,,,,,1,,,76,0
257664,note_off,,,,,384,0,7,,,,,6,,,44,0
257664,note_on,,,,,0,0,4,,,,,3,,,64,88
257664,note_on,,,,,0,0,3,,,,,2,,,71,94
257664,note_off,,,,,192,0,8,,,,,7,,,44,0
257760,note_on,,,,,0,0,1,,,,,0,,,64,75
257760,note_off,,,,,96,0,1,,,,,0,,,71,0
257856,note_on,,,,,192,0,6,,,,,5,,,56,75
257856,note_on,,,,,192,0,2,,,,,1,,,76,75
257856,note_on,,,,,192,0,7,,,,,6,,,44,75
257856,note_off,,,,,96,0,1,,,,,0,,,64,0
257856,note_on,,,,,0,0,1,,,,,0,,,71,75
257952,note_off,,,,,96,0,1,,,,,0,,,71,0
257952,note_on,,,,,0,0,1,,,,,0,,,74,75
258048,note_off,,,,,192,0,6,,,,,5,,,56,0
258048,note_off,,,,,96,0,1,,,,,0,,,74,0
258048,note_off,,,,,384,0,5,,,,,4,,,62,0
258048,note_on,,,,,0,0,7,,,,,6,,,45,75
258048,note_on,,,,,0,0,1,,,,,0,,,73,75
258048,note_off,,,,,192,0,7,,,,,6,,,44,0
258048,note_off,,,,,384,0,4,,,,,3,,,64,0
258048,note_off,,,,,384,0,3,,,,,2,,,71,0
258048,note_on,,,,,0,0,2,,,,,1,,,69,75
258048,note_off,,,,,192,0,2,,,,,1,,,76,0
258048,note_on,,,,,0,0,6,,,,,5,,,57,75
258048,note_off,,,,,384,0,8,,,,,7,,,44,0
258144,note_on,,,,,0,0,1,,,,,0,,,69,75
258144,note_off,,,,,96,0,1,,,,,0,,,73,0
258240,note_on,,,,,192,0,5,,,,,4,,,61,75
258240,note_on,,,,,0,0,1,,,,,0,,,73,75
258240,note_on,,,,,192,0,3,,,,,2,,,73,94
258240,note_on,,,,,192,0,4,,,,,3,,,64,88
258240,note_off,,,,,96,0,1,,,,,0,,,69,0
258240,note_on,,,,,192,0,8,,,,,7,,,45,60
258336,note_off,,,,,96,0,1,,,,,0,,,73,0
258336,note_on,,,,,0,0,1,,,,,0,,,76,75
258432,note_off,,,,,384,0,2,,,,,1,,,69,0
258432,note_on,,,,,0,0,3,,,,,2,,,75,94
258432,note_off,,,,,192,0,3,,,,,2,,,73,0
258432,note_off,,,,,192,0,4,,,,,3,,,64,0
258432,note_on,,,,,0,0,4,,,,,3,,,69,88
258432,note_off,,,,,384,0,7,,,,,6,,,45,0
258432,note_off,,,,,192,0,8,,,,,7,,,45,0
258432,note_on,,,,,0,0,1,,,,,0,,,75,75
258432,note_off,,,,,192,0,5,,,,,4,,,61,0
258432,note_on,,,,,0,0,5,,,,,4,,,66,75
258432,note_on,,,,,0,0,8,,,,,7,,,42,60
258432,note_off,,,,,96,0,1,,,,,0,,,76,0
258432,note_off,,,,,384,0,6,,,,,5,,,57,0
258528,note_off,,,,,96,0,1,,,,,0,,,75,0
258528,note_on,,,,,0,0,1,,,,,0,,,69,75
258624,note_on,,,,,192,0,6,,,,,5,,,59,75
258624,note_on,,,,,0,0,8,,,,,7,,,47,60
258624,note_off,,,,,192,0,8,,,,,7,,,42,0
258624,note_off,,,,,192,0,3,,,,,2,,,75,0
258624,note_on,,,,,0,0,3,,,,,2,,,75,94
258624,note_on,,,,,192,0,7,,,,,6,,,47,75
258624,note_on,,,,,0,0,4,,,,,3,,,71,88
258624,note_on,,,,,192,0,2,,,,,1,,,66,75
258624,note_off,,,,,192,0,5,,,,,4,,,66,0
258624,note_on,,,,,0,0,5,,,,,4,,,66,75
258624,note_on,,,,,0,0,1,,,,,0,,,75,75
258624,note_off,,,,,96,0,1,,,,,0,,,69,0
258624,note_off,,,,,192,0,4,,,,,3,,,69,0
258720,note_on,,,,,0,0,1,,,,,0,,,78,75
258720,note_off,,,,,96,0,1,,,,,0,,,75,0
258816,note_off,,,,,96,0,1,,,,,0,,,78,0
258816,note_off,,,,,192,0,4,,,,,3,,,71,0
258816,note_off,,,,,192,0,7,,,,,6,,,47,0
258816,note_off,,,,,192,0,5,,,,,4,,,66,0
258816,note_on,,,,,0,0,5,,,,,4,,,64,75
258816,note_on,,,,,0,0,7,,,,,6,,,44,75
258816,note_on,,,,,0,0,3,,,,,2,,,76,94
258816,note_off,,,,,192,0,8,,,,,7,,,47,0
258816,note_on,,,,,0,0,8,,,,,7,,,44,60
258816,note_on,,,,,0,0,2,,,,,1,,,71,75
258816,note_off,,,,,192,0,6,,,,,5,,,59,0
258816,note_on,,,,,0,0,6,,,,,5,,,56,75
258816,note_off,,,,,192,0,2,,,,,1,,,66,0
258816,note_off,,,,,192,0,3,,,,,2,,,75,0
258816,note_on,,,,,0,0,4,,,,,3,,,71,88
258816,note_on,,,,,0,0,1,,,,,0,,,76,75
258912,note_off,,,,,96,0,1,,,,,0,,,76,0
258912,note_on,,,,,0,0,1,,,,,0,,,71,75
259008,note_off,,,,,96,0,1,,,,,0,,,71,0
259008,note_on,,,,,0,0,1,,,,,0,,,73,75
259104,note_off,,,,,96,0,1,,,,,0,,,73,0
259104,note_on,,,,,0,0,1,,,,,0,,,75,75
259200,note_off,,,,,384,0,7,,,,,6,,,44,0
259200,note_off,,,,,384,0,6,,,,,5,,,56,0
259200,note_off,,,,,384,0,8,,,,,7,,,44,0
259200,note_off,,,,,384,0,2,,,,,1,,,71,0
259200,note_off,,,,,384,0,4,,,,,3,,,71,0
259200,note_off,,,,,384,0,5,,,,,4,,,64,0
259200,note_off,,,,,384,0,3,,,,,2,,,76,0
259200,note_on,,,,,0,0,1,,,,,0,,,76,75
259200,note_off,,,,,96,0,1,,,,,0,,,75,0
259296,note_off,,,,,96,0,1,,,,,0,,,76,0
259296,note_on,,,,,0,0,1,,,,,0,,,78,75
259392,note_off,,,,,96,0,1,,,,,0,,,78,0
259392,note_on,,,,,0,0,1,,,,,0,,,80,75
259488,note_off,,,,,96,0,1,,,,,0,,,80,0
259488,note_on,,,,,0,0,1,,,,,0,,,76,75
259584,note_on,,,,,384,0,4,,,,,3,,,76,88
259584,note_on,,,,,384,0,6,,,,,5,,,61,75
259584,note_off,,,,,96,0,1,,,,,0,,,76,0
259584,note_on,,,,,384,0,2,,,,,1,,,76,75
259584,note_on,,,,,384,0,5,,,,,4,,,73,75
259584,note_on,,,,,0,0,1,,,,,0,,,81,75
259584,note_on,,,,,384,0,8,,,,,7,,,61,60
259584,note_on,,,,,384,0,7,,,,,6,,,49,75
259584,note_on,,,,,384,0,3,,,,,2,,,81,94
259968,note_on,,,,,0,0,5,,,,,4,,,74,75
259968,note_on,,,,,0,0,4,,,,,3,,,80,88
259968,note_off,,,,,384,0,5,,,,,4,,,73,0
259968,note_off,,,,,384,0,1,,,,,0,,,81,0
259968,note_on,,,,,0,0,1,,,,,0,,,83,75
259968,note_off,,,,,384,0,8,,,,,7,,,61,0
259968,note_on,,,,,0,0,8,,,,,7,,,59,60
259968,note_on,,,,,0,0,6,,,,,5,,,59,75
259968,note_off,,,,,384,0,6,,,,,5,,,61,0
259968,note_on,,,,,0,0,2,,,,,1,,,80,75
259968,note_off,,,,,384,0,7,,,,,6,,,49,0
259968,note_on,,,,,0,0,7,,,,,6,,,47,75
259968,note_off,,,,,384,0,2,,,,,1,,,76,0
259968,note_off,,,,,384,0,3,,,,,2,,,81,0
259968,note_on,,,,,0,0,3,,,,,2,,,83,94
259968,note_off,,,,,384,0,4,,,,,3,,,76,0
260160,note_on,,,,,0,0,7,,,,,6,,,45,75
260160,note_on,,,,,0,0,2,,,,,1,,,81,75
260160,note_off,,,,,192,0,2,,,,,1,,,80,0
260160,note_on,,,,,0,0,6,,,,,5,,,57,75
260160,note_off,,,,,192,0,6,,,,,5,,,59,0
260160,note_off,,,,,192,0,5,,,,,4,,,74,0
260160,note_on,,,,,0,0,5,,,,,4,,,73,75
260160,note_on,,,,,0,0,1,,,,,0,,,85,75
260160,note_off,,,,,192,0,7,,,,,6,,,47,0
260160,note_off,,,,,192,0,8,,,,,7,,,59,0
260160,note_on,,,,,0,0,8,,,,,7,,,57,60
260160,note_on,,,,,0,0,4,,,,,3,,,81,88
260160,note_off,,,,,192,0,1,,,,,0,,,83,0
260160,note_off,,,,,192,0,3,,,,,2,,,83,0
260160,note_on,,,,,0,0,3,,,,,2,,,85,94
260160,note_off,,,,,192,0,4,,,,,3,,,80,0
260352,note_off,,,,,192,0,4,,,,,3,,,81,0
260352,note_on,,,,,0,0,2,,,,,1,,,81,75
260352,note_off,,,,,192,0,1,,,,,0,,,85,0
260352,note_on,,,,,0,0,6,,,,,5,,,59,75
260352,note_off,,,,,192,0,6,,,,,5,,,57,0
260352,note_on,,,,,0,0,1,,,,,0,,,86,75
260352,note_on,,,,,0,0,8,,,,,7,,,59,60
260352,note_on,,,,,0,0,3,,,,,2,,,86,94
260352,note_off,,,,,192,0,5,,,,,4,,,73,0
260352,note_on,,,,,0,0,5,,,,,4,,,71,75
260352,note_on,,,,,0,0,7,,,,,6,,,47,75
260352,note_off,,,,,192,0,7,,,,,6,,,45,0
260352,note_off,,,,,192,0,3,,,,,2,,,85,0
260352,note_off,,,,,192,0,8,,,,,7,,,57,0
260352,note_on,,,,,0,0,4,,,,,3,,,81,88
260352,note_off,,,,,192,0,2,,,,,1,,,81,0
260544,note_on,,,,,0,0,1,,,,,0,,,83,75
260544,note_on,,,,,0,0,7,,,,,6,,,40,75
260544,note_off,,,,,192,0,7,,,,,6,,,47,0
260544,note_off,,,,,192,0,8,,,,,7,,,59,0
260544,note_on,,,,,0,0,8,,,,,7,,,52,60
260544,note_off,,,,,192,0,1,,,,,0,,,86,0
260544,note_off,,,,,192,0,6,,,,,5,,,59,0
260544,note_on,,,,,0,0,2,,,,,1,,,80,75
260544,note_off,,,,,192,0,2,,,,,1,,,81,0
260544,note_on,,,,,0,0,6,,,,,5,,,52,75
260544,note_off,,,,,192,0,5,,,,,4,,,71,0
260544,note_on,,,,,0,0,5,,,,,4,,,71,75
260544,note_on,,,,,0,0,3,,,,,2,,,83,94
260544,note_off,,,,,192,0,3,,,,,2,,,86,0
260544,note_off,,,,,192,0,4,,,,,3,,,81,0
260544,note_on,,,,,0,0,4,,,,,3,,,80,88
260736,note_on,,,,,0,0,2,,,,,1,,,81,75
260736,note_on,,,,,0,0,3,,,,,2,,,85,94
260736,note_on,,,,,0,0,8,,,,,7,,,57,60
260736,note_off,,,,,192,0,8,,,,,7,,,52,0
260736,note_off,,,,,192,0,3,,,,,2,,,83,0
260736,note_off,,,,,192,0,6,,,,,5,,,52,0
260736,note_off,,,,,192,0,4,,,,,3,,,80,0
260736,note_on,,,,,0,0,4,,,,,3,,,81,88
260736,note_on,,,,,0,0,5,,,,,4,,,69,75
260736,note_off,,,,,192,0,5,,,,,4,,,71,0
260736,note_on,,,,,0,0,1,,,,,0,,,85,75
260736,note_off,,,,,192,0,1,,,,,0,,,83,0
260736,note_on,,,,,0,0,6,,,,,5,,,57,75
260736,note_off,,,,,192,0,7,,,,,6,,,40,0
260736,note_on,,,,,0,0,7,,,,,6,,,45,75
260736,note_off,,,,,192,0,2,,,,,1,,,80,0
260928,note_off,,,,,192,0,4,,,,,3,,,81,0
260928,note_on,,,,,0,0,4,,,,,3,,,76,88
260928,note_off,,,,,192,0,8,,,,,7,,,57,0
260928,note_on,,,,,0,0,8,,,,,7,,,49,60
260928,note_on,,,,,0,0,6,,,,,5,,,49,75
260928,note_off,,,,,192,0,6,,,,,5,,,57,0
260928,note_on,,,,,0,0,2,,,,,1,,,76,75
260928,note_off,,,,,192,0,2,,,,,1,,,81,0
260928,note_on,,,,,0,0,7,,,,,6,,,37,75
260928,note_off,,,,,192,0,7,,,,,6,,,45,0
261120,note_on,,,,,0,0,2,,,,,1,,,78,75
261120,note_on,,,,,0,0,8,,,,,7,,,50,60
261120,note_off,,,,,192,0,8,,,,,7,,,49,0
261120,note_off,,,,,192,0,6,,,,,5,,,49,0
261120,note_off,,,,,192,0,7,,,,,6,,,37,0
261120,note_on,,,,,0,0,6,,,,,5,,,50,75
261120,note_off,,,,,192,0,4,,,,,3,,,76,0
261120,note_on,,,,,0,0,5,,,,,4,,,69,75
261120,note_off,,,,,384,0,5,,,,,4,,,69,0
261120,note_on,,,,,0,0,4,,,,,3,,,78,88
261120,note_off,,,,,192,0,2,,,,,1,,,76,0
261120,note_on,,,,,0,0,7,,,,,6,,,38,75
261312,note_off,,,,,576,0,1,,,,,0,,,85,0
261312,note_on,,,,,0,0,1,,,,,0,,,86,75
261312,note_on,,,,,0,0,3,,,,,2,,,86,94
261312,note_off,,,,,576,0,3,,,,,2,,,85,0
261312,note_on,,,,,0,0,5,,,,,4,,,71,75
261312,note_off,,,,,192,0,5,,,,,4,,,69,0
261408,note_off,,,,,96,0,1,,,,,0,,,86,0
261408,note_on,,,,,0,0,3,,,,,2,,,85,94
261408,note_off,,,,,96,0,3,,,,,2,,,86,0
261408,note_on,,,,,0,0,5,,,,,4,,,73,75
261408,note_off,,,,,96,0,5,,,,,4,,,71,0
261408,note_on,,,,,0,0,1,,,,,0,,,85,75
261504,note_off,,,,,384,0,7,,,,,6,,,38,0
261504,note_off,,,,,96,0,5,,,,,4,,,73,0
261504,note_off,,,,,384,0,6,,,,,5,,,50,0
261504,note_on,,,,,0,0,7,,,,,6,,,42,75
261504,note_off,,,,,384,0,4,,,,,3,,,78,0
261504,note_off,,,,,384,0,2,,,,,1,,,78,0
261504,note_on,,,,,0,0,4,,,,,3,,,74,88
261504,note_off,,,,,96,0,3,,,,,2,,,85,0
261504,note_on,,,,,0,0,3,,,,,2,,,83,94
261504,note_on,,,,,0,0,6,,,,,5,,,54,75
261504,note_off,,,,,96,0,1,,,,,0,,,85,0
261504,note_on,,,,,0,0,5,,,,,4,,,74,75
261504,note_on,,,,,0,0,2,,,,,1,,,74,75
261504,note_on,,,,,0,0,8,,,,,7,,,54,60
261504,note_on,,,,,0,0,1,,,,,0,,,83,75
261504,note_off,,,,,384,0,8,,,,,7,,,50,0
261696,note_off,,,,,192,0,1,,,,,0,,,83,0
261696,note_on,,,,,0,0,1,,,,,0,,,81,75
261696,note_on,,,,,0,0,3,,,,,2,,,81,94
261696,note_off,,,,,192,0,3,,,,,2,,,83,0
261696,note_off,,,,,192,0,5,,,,,4,,,74,0
261696,note_on,,,,,0,0,5,,,,,4,,,66,75
261888,note_off,,,,,384,0,7,,,,,6,,,42,0
261888,note_on,,,,,0,0,8,,,,,7,,,52,60
261888,note_off,,,,,384,0,8,,,,,7,,,54,0
261888,note_on,,,,,0,0,4,,,,,3,,,76,88
261888,note_off,,,,,384,0,4,,,,,3,,,74,0
261888,note_on,,,,,0,0,7,,,,,6,,,40,75
261888,note_off,,,,,192,0,5,,,,,4,,,66,0
261888,note_on,,,,,0,0,6,,,,,5,,,52,75
261888,note_off,,,,,384,0,6,,,,,5,,,54,0
261888,note_off,,,,,384,0,2,,,,,1,,,74,0
261888,note_on,,,,,0,0,2,,,,,1,,,76,75
261888,note_off,,,,,192,0,3,,,,,2,,,81,0
261888,note_on,,,,,0,0,1,,,,,0,,,80,75
261888,note_off,,,,,192,0,1,,,,,0,,,81,0
261888,note_on,,,,,0,0,5,,,,,4,,,71,75
261888,note_on,,,,,0,0,3,,,,,2,,,80,94
261984,note_on,,,,,0,0,3,,,,,2,,,78,94
261984,note_on,,,,,0,0,1,,,,,0,,,78,75
261984,note_off,,,,,96,0,3,,,,,2,,,80,0
261984,note_off,,,,,96,0,1,,,,,0,,,80,0
262080,note_off,,,,,192,0,4,,,,,3,,,76,0
262080,note_on,,,,,0,0,4,,,,,3,,,71,88
262080,note_off,,,,,192,0,5,,,,,4,,,71,0
262080,note_on,,,,,0,0,5,,,,,4,,,68,75
262080,note_off,,,,,192,0,2,,,,,1,,,76,0
262080,note_on,,,,,0,0,2,,,,,1,,,71,75
262080,note_on,,,,,0,0,1,,,,,0,,,76,75
262080,note_on,,,,,0,0,3,,,,,2,,,76,94
262080,note_off,,,,,96,0,3,,,,,2,,,78,0
262080,note_off,,,,,96,0,1,,,,,0,,,78,0
262272,note_off,,,,,192,0,5,,,,,4,,,68,0
262272,note_off,,,,,384,0,8,,,,,7,,,52,0
262272,note_off,,,,,384,0,6,,,,,5,,,52,0
262272,note_on,,,,,0,0,2,,,,,1,,,68,75
262272,note_off,,,,,384,0,7,,,,,6,,,40,0
262272,note_on,,,,,0,0,5,,,,,4,,,71,75
262272,note_off,,,,,192,0,4,,,,,3,,,71,0
262272,note_on,,,,,0,0,4,,,,,3,,,68,88
262272,note_off,,,,,192,0,1,,,,,0,,,76,0
262272,note_off,,,,,192,0,3,,,,,2,,,76,0
262272,note_off,,,,,192,0,2,,,,,1,,,71,0
262464,note_off,,,,,192,0,2,,,,,1,,,68,0
262464,note_on,,,,,0,0,2,,,,,1,,,64,75
262464,note_off,,,,,192,0,4,,,,,3,,,68,0
262464,note_on,,,,,0,0,4,,,,,3,,,64,88
262464,note_off,,,,,192,0,5,,,,,4,,,71,0
262464,note_on,,,,,0,0,5,,,,,4,,,68,75
262656,note_off,,,,,192,0,2,,,,,1,,,64,0
262656,note_on,,,,,384,0,1,,,,,0,,,71,75
262656,note_on,,,,,0,0,2,,,,,1,,,68,75
262656,note_on,,,,,0,0,5,,,,,4,,,64,75
262656,note_on,,,,,384,0,8,,,,,7,,,64,60
262656,note_on,,,,,384,0,3,,,,,2,,,71,94
262656,note_off,,,,,192,0,5,,,,,4,,,68,0
262656,note_on,,,,,384,0,6,,,,,5,,,64,75
262656,note_on,,,,,384,0,7,,,,,6,,,52,75
262656,note_on,,,,,0,0,4,,,,,3,,,68,88
262656,note_off,,,,,192,0,4,,,,,3,,,64,0
263040,note_off,,,,,384,0,3,,,,,2,,,71,0
263040,note_on,,,,,0,0,4,,,,,3,,,69,88
263040,note_off,,,,,384,0,4,,,,,3,,,68,0
263040,note_on,,,,,0,0,2,,,,,1,,,69,75
263040,note_on,,,,,0,0,1,,,,,0,,,73,75
263040,note_off,,,,,384,0,1,,,,,0,,,71,0
263040,note_off,,,,,384,0,2,,,,,1,,,68,0
263040,note_on,,,,,0,0,3,,,,,2,,,73,94
263232,note_on,,,,,0,0,8,,,,,7,,,62,60
263232,note_off,,,,,576,0,8,,,,,7,,,64,0
263232,note_off,,,,,576,0,7,,,,,6,,,52,0
263232,note_on,,,,,0,0,2,,,,,1,,,71,75
263232,note_off,,,,,576,0,6,,,,,5,,,64,0
263232,note_on,,,,,0,0,6,,,,,5,,,62,75
263232,note_on,,,,,0,0,3,,,,,2,,,74,94
263232,note_off,,,,,192,0,3,,,,,2,,,73,0
263232,note_off,,,,,192,0,2,,,,,1,,,69,0
263232,note_on,,,,,0,0,7,,,,,6,,,50,75
263232,note_off,,,,,192,0,1,,,,,0,,,73,0
263232,note_on,,,,,0,0,4,,,,,3,,,71,88
263232,note_on,,,,,0,0,1,,,,,0,,,74,75
263232,note_off,,,,,576,0,5,,,,,4,,,64,0
263232,note_on,,,,,0,0,5,,,,,4,,,68,75
263232,note_off,,,,,192,0,4,,,,,3,,,69,0
263424,note_off,,,,,192,0,8,,,,,7,,,62,0
263424,note_off,,,,,192,0,7,,,,,6,,,50,0
263424,note_on,,,,,0,0,8,,,,,7,,,61,60
263424,note_on,,,,,0,0,5,,,,,4,,,69,75
263424,note_off,,,,,192,0,5,,,,,4,,,68,0
263424,note_on,,,,,0,0,2,,,,,1,,,64,75
263424,note_off,,,,,192,0,1,,,,,0,,,74,0
263424,note_on,,,,,0,0,3,,,,,2,,,76,94
263424,note_off,,,,,192,0,3,,,,,2,,,74,0
263424,note_on,,,,,0,0,4,,,,,3,,,64,88
263424,note_off,,,,,192,0,4,,,,,3,,,71,0
263424,note_off,,,,,192,0,2,,,,,1,,,71,0
263424,note_on,,,,,0,0,1,,,,,0,,,76,75
263424,note_on,,,,,0,0,7,,,,,6,,,49,75
263424,note_off,,,,,192,0,6,,,,,5,,,62,0
263424,note_on,,,,,0,0,6,,,,,5,,,61,75
263616,note_off,,,,,192,0,3,,,,,2,,,76,0
263616,note_on,,,,,0,0,3,,,,,2,,,73,94
263616,note_on,,,,,0,0,6,,,,,5,,,52,75
263616,note_off,,,,,192,0,7,,,,,6,,,49,0
263616,note_on,,,,,0,0,1,,,,,0,,,73,75
263616,note_off,,,,,192,0,1,,,,,0,,,76,0
263616,note_on,,,,,0,0,8,,,,,7,,,52,60
263616,note_on,,,,,0,0,7,,,,,6,,,40,75
263616,note_off,,,,,192,0,6,,,,,5,,,61,0
263616,note_off,,,,,192,0,8,,,,,7,,,61,0
263808,note_on,,,,,0,0,4,,,,,3,,,68,88
263808,note_off,,,,,192,0,1,,,,,0,,,73,0
263808,note_on,,,,,0,0,1,,,,,0,,,74,75
263808,note_off,,,,,192,0,7,,,,,6,,,40,0
263808,note_on,,,,,0,0,7,,,,,6,,,47,75
263808,note_off,,,,,384,0,4,,,,,3,,,64,0
263808,note_on,,,,,0,0,2,,,,,1,,,68,75
263808,note_on,,,,,0,0,6,,,,,5,,,59,75
263808,note_off,,,,,384,0,2,,,,,1,,,64,0
263808,note_on,,,,,0,0,5,,,,,4,,,68,75
263808,note_off,,,,,384,0,5,,,,,4,,,69,0
263808,note_on,,,,,0,0,3,,,,,2,,,74,94
263808,note_off,,,,,192,0,3,,,,,2,,,73,0
263808,note_on,,,,,0,0,8,,,,,7,,,59,60
263808,note_off,,,,,192,0,8,,,,,7,,,52,0
263808,note_off,,,,,192,0,6,,,,,5,,,52,0
264000,note_off,,,,,192,0,7,,,,,6,,,47,0
264000,note_on,,,,,0,0,3,,,,,2,,,71,94
264000,note_off,,,,,192,0,6,,,,,5,,,59,0
264000,note_on,,,,,0,0,5,,,,,4,,,64,75
264000,note_off,,,,,192,0,5,,,,,4,,,68,0
264000,note_on,,,,,0,0,7,,,,,6,,,40,75
264000,note_on,,,,,0,0,6,,,,,5,,,52,75
264000,note_off,,,,,192,0,1,,,,,0,,,74,0
264000,note_on,,,,,0,0,1,,,,,0,,,71,75
264000,note_on,,,,,0,0,8,,,,,7,,,52,60
264000,note_off,,,,,192,0,8,,,,,7,,,59,0
264000,note_off,,,,,192,0,3,,,,,2,,,74,0
264192,note_off,,,,,192,0,6,,,,,5,,,52,0
264192,note_on,,,,,0,0,6,,,,,5,,,57,75
264192,note_on,,,,,0,0,8,,,,,7,,,57,60
264192,note_off,,,,,192,0,8,,,,,7,,,52,0
264192,note_off,,,,,192,0,5,,,,,4,,,64,0
264192,note_on,,,,,0,0,5,,,,,4,,,64,75
264192,note_off,,,,,192,0,3,,,,,2,,,71,0
264192,note_on,,,,,0,0,3,,,,,2,,,73,94
264192,note_off,,,,,384,0,2,,,,,1,,,68,0
264192,note_on,,,,,0,0,7,,,,,6,,,45,75
264192,note_on,,,,,0,0,2,,,,,1,,,69,75
264192,note_off,,,,,192,0,7,,,,,6,,,40,0
264192,note_on,,,,,0,0,4,,,,,3,,,69,88
264192,note_off,,,,,384,0,4,,,,,3,,,68,0
264192,note_on,,,,,0,0,1,,,,,0,,,73,75
264192,note_off,,,,,192,0,1,,,,,0,,,71,0
264384,note_off,,,,,192,0,1,,,,,0,,,73,0
264384,note_off,,,,,192,0,7,,,,,6,,,45,0
264384,note_on,,,,,0,0,8,,,,,7,,,49,60
264384,note_off,,,,,192,0,8,,,,,7,,,57,0
264384,note_on,,,,,0,0,7,,,,,6,,,37,75
264384,note_off,,,,,192,0,2,,,,,1,,,69,0
264384,note_on,,,,,0,0,2,,,,,1,,,64,75
264384,note_off,,,,,192,0,6,,,,,5,,,57,0
264384,note_on,,,,,0,0,6,,,,,5,,,49,75
264384,note_on,,,,,0,0,4,,,,,3,,,64,88
264384,note_off,,,,,192,0,3,,,,,2,,,73,0
264384,note_on,,,,,0,0,3,,,,,2,,,69,94
264384,note_off,,,,,192,0,4,,,,,3,,,69,0
264384,note_on,,,,,0,0,1,,,,,0,,,69,75
264576,note_on,,,,,0,0,2,,,,,1,,,66,75
264576,note_off,,,,,192,0,2,,,,,1,,,64,0
264576,note_off,,,,,192,0,4,,,,,3,,,64,0
264576,note_on,,,,,0,0,5,,,,,4,,,62,75
264576,note_off,,,,,192,0,3,,,,,2,,,69,0
264576,note_on,,,,,0,0,3,,,,,2,,,73,94
264576,note_on,,,,,0,0,4,,,,,3,,,66,88
264576,note_off,,,,,192,0,7,,,,,6,,,37,0
264576,note_on,,,,,0,0,7,,,,,6,,,38,75
264576,note_on,,,,,0,0,6,,,,,5,,,50,75
264576,note_off,,,,,192,0,1,,,,,0,,,69,0
264576,note_on,,,,,0,0,1,,,,,0,,,73,75
264576,note_off,,,,,192,0,8,,,,,7,,,49,0
264576,note_on,,,,,0,0,8,,,,,7,,,50,60
264576,note_off,,,,,384,0,5,,,,,4,,,64,0
264576,note_off,,,,,192,0,6,,,,,5,,,49,0
264624,note_on,,,,,0,0,3,,,,,2,,,71,94
264624,note_off,,,,,48,0,3,,,,,2,,,73,0
264624,note_off,,,,,48,0,1,,,,,0,,,73,0
264624,note_on,,,,,0,0,1,,,,,0,,,71,75
264672,note_off,,,,,48,0,3,,,,,2,,,71,0
264672,note_on,,,,,0,0,3,,,,,2,,,73,94
264672,note_on,,,,,0,0,1,,,,,0,,,73,75
264672,note_off,,,,,48,0,1,,,,,0,,,71,0
264720,note_on,,,,,0,0,1,,,,,0,,,71,75
264720,note_off,,,,,48,0,1,,,,,0,,,73,0
264720,note_off,,,,,48,0,3,,,,,2,,,73,0
264720,note_on,,,,,0,0,3,,,,,2,,,71,94
264768,note_on,,,,,0,0,1,,,,,0,,,73,75
264768,note_off,,,,,192,0,6,,,,,5,,,50,0
264768,note_on,,,,,0,0,3,,,,,2,,,73,94
264768,note_off,,,,,192,0,4,,,,,3,,,66,0
264768,note_on,,,,,0,0,4,,,,,3,,,68,88
264768,note_on,,,,,0,0,6,,,,,5,,,52,75
264768,note_off,,,,,48,0,1,,,,,0,,,71,0
264768,note_off,,,,,48,0,3,,,,,2,,,71,0
264768,note_off,,,,,192,0,7,,,,,6,,,38,0
264768,note_on,,,,,0,0,7,,,,,6,,,40,75
264768,note_on,,,,,0,0,5,,,,,4,,,59,75
264768,note_off,,,,,192,0,5,,,,,4,,,62,0
264768,note_off,,,,,192,0,2,,,,,1,,,66,0
264768,note_on,,,,,0,0,2,,,,,1,,,68,75
264768,note_off,,,,,192,0,8,,,,,7,,,50,0
264768,note_on,,,,,0,0,8,,,,,7,,,52,60
264816,note_on,,,,,0,0,3,,,,,2,,,71,94
264816,note_off,,,,,48,0,3,,,,,2,,,73,0
264816,note_off,,,,,48,0,1,,,,,0,,,73,0
264816,note_on,,,,,0,0,1,,,,,0,,,71,75
264960,note_off,,,,,192,0,8,,,,,7,,,52,0
264960,note_off,,,,,144,0,3,,,,,2,,,71,0
264960,note_on,,,,,0,0,3,,,,,2,,,69,94
264960,note_on,,,,,0,0,6,,,,,5,,,45,75
264960,note_off,,,,,192,0,7,,,,,6,,,40,0
264960,note_on,,,,,0,0,5,,,,,4,,,61,75
264960,note_off,,,,,192,0,5,,,,,4,,,59,0
264960,note_off,,,,,192,0,6,,,,,5,,,52,0
264960,note_on,,,,,0,0,1,,,,,0,,,69,75
264960,note_off,,,,,144,0,1,,,,,0,,,71,0
264960,note_off,,,,,192,0,2,,,,,1,,,68,0
264960,note_on,,,,,0,0,2,,,,,1,,,69,75
264960,note_on,,,,,0,0,7,,,,,6,,,33,75
264960,note_on,,,,,0,0,4,,,,,3,,,69,88
264960,note_off,,,,,192,0,4,,,,,3,,,68,0
264960,note_on,,,,,0,0,8,,,,,7,,,45,60
265152,note_on,,,,,0,0,7,,,,,6,,,45,75
265152,note_on,,,,,0,0,8,,,,,7,,,57,60
265152,note_off,,,,,192,0,8,,,,,7,,,45,0
265152,note_on,,,,,0,0,6,,,,,5,,,57,75
265152,note_off,,,,,192,0,7,,,,,6,,,33,0
265152,note_off,,,,,192,0,6,,,,,5,,,45,0
265152,note_off,,,,,192,0,4,,,,,3,,,69,0
265152,note_on,,,,,0,0,4,,,,,3,,,61,88
265152,note_on,,,,,0,0,2,,,,,1,,,61,75
265152,note_off,,,,,192,0,2,,,,,1,,,69,0
265152,note_off,,,,,192,0,5,,,,,4,,,61,0
265152,note_on,,,,,0,0,5,,,,,4,,,64,75
265344,note_on,,,,,0,0,4,,,,,3,,,59,88
265344,note_on,,,,,0,0,2,,,,,1,,,59,75
265344,note_off,,,,,192,0,8,,,,,7,,,57,0
265344,note_on,,,,,0,0,7,,,,,6,,,44,75
265344,note_off,,,,,192,0,7,,,,,6,,,45,0
265344,note_off,,,,,192,0,2,,,,,1,,,61,0
265344,note_off,,,,,192,0,5,,,,,4,,,64,0
265344,note_on,,,,,0,0,8,,,,,7,,,56,60
265344,note_off,,,,,384,0,1,,,,,0,,,69,0
265344,note_off,,,,,384,0,3,,,,,2,,,69,0
265344,note_off,,,,,192,0,4,,,,,3,,,61,0
265344,note_off,,,,,192,0,6,,,,,5,,,57,0
265344,note_on,,,,,0,0,5,,,,,4,,,64,75
265344,note_on,,,,,0,0,6,,,,,5,,,56,75
265536,note_off,,,,,192,0,2,,,,,1,,,59,0
265536,note_on,,,,,0,0,5,,,,,4,,,66,75
265536,note_on,,,,,0,0,7,,,,,6,,,42,75
265536,note_off,,,,,192,0,7,,,,,6,,,44,0
265536,note_off,,,,,192,0,5,,,,,4,,,64,0
265536,note_off,,,,,192,0,6,,,,,5,,,56,0
265536,note_off,,,,,192,0,8,,,,,7,,,56,0
265536,note_on,,,,,0,0,4,,,,,3,,,57,88
265536,note_on,,,,,0,0,2,,,,,1,,,57,75
265536,note_off,,,,,192,0,4,,,,,3,,,59,0
265536,note_on,,,,,0,0,6,,,,,5,,,54,75
265536,note_on,,,,,0,0,8,,,,,7,,,54,60
265728,note_on,,,,,0,0,2,,,,,1,,,68,75
265728,note_on,,,,,0,0,4,,,,,3,,,68,88
265728,note_off,,,,,192,0,4,,,,,3,,,57,0
265728,note_off,,,,,192,0,5,,,,,4,,,66,0
265728,note_on,,,,,384,0,1,,,,,0,,,71,75
265728,note_on,,,,,0,0,5,,,,,4,,,59,75
265728,note_on,,,,,0,0,8,,,,,7,,,52,60
265728,note_off,,,,,192,0,7,,,,,6,,,42,0
265728,note_off,,,,,192,0,8,,,,,7,,,54,0
265728,note_off,,,,,192,0,6,,,,,5,,,54,0
265728,note_on,,,,,0,0,6,,,,,5,,,52,75
265728,note_on,,,,,384,0,3,,,,,2,,,71,94
265728,set_tempo,,,,,265728,1,0,,504201,,,,,,,
265728,note_off,,,,,192,0,2,,,,,1,,,57,0
265728,note_on,,,,,0,0,7,,,,,6,,,40,75
265920,set_tempo,,,,,192,1,0,,521739,,,,,,,
266112,note_on,,,,,0,0,1,,,,,0,,,73,75
266112,note_off,,,,,384,0,1,,,,,0,,,71,0
266112,note_on,,,,,0,0,2,,,,,1,,,69,75
266112,note_off,,,,,384,0,5,,,,,4,,,59,0
266112,note_off,,,,,384,0,4,,,,,3,,,68,0
266112,note_on,,,,,0,0,5,,,,,4,,,64,75
266112,note_off,,,,,384,0,3,,,,,2,,,71,0
266112,note_on,,,,,0,0,3,,,,,2,,,73,94
266112,set_tempo,,,,,192,1,0,,540540,,,,,,,
266112,note_on,,,,,0,0,4,,,,,3,,,69,88
266112,note_off,,,,,384,0,2,,,,,1,,,68,0
266304,note_off,,,,,192,0,3,,,,,2,,,73,0
266304,note_on,,,,,0,0,3,,,,,2,,,74,94
266304,note_off,,,,,192,0,4,,,,,3,,,69,0
266304,note_off,,,,,576,0,6,,,,,5,,,52,0
266304,note_on,,,,,0,0,6,,,,,5,,,50,75
266304,note_on,,,,,0,0,2,,,,,1,,,71,75
266304,note_off,,,,,192,0,2,,,,,1,,,69,0
266304,note_on,,,,,0,0,4,,,,,3,,,71,88
266304,note_on,,,,,0,0,5,,,,,4,,,68,75
266304,note_off,,,,,576,0,8,,,,,7,,,52,0
266304,note_on,,,,,0,0,8,,,,,7,,,50,60
266304,note_on,,,,,0,0,1,,,,,0,,,74,75
266304,note_off,,,,,192,0,1,,,,,0,,,73,0
266304,note_off,,,,,576,0,7,,,,,6,,,40,0
266304,note_on,,,,,0,0,7,,,,,6,,,38,75
266304,note_off,,,,,192,0,5,,,,,4,,,64,0
266304,set_tempo,,,,,192,1,0,,560747,,,,,,,
266496,note_off,,,,,192,0,8,,,,,7,,,50,0
266496,note_on,,,,,0,0,8,,,,,7,,,49,60
266496,set_tempo,,,,,192,1,0,,582524,,,,,,,
266496,note_off,,,,,192,0,2,,,,,1,,,71,0
266496,note_on,,,,,0,0,6,,,,,5,,,49,75
266496,note_off,,,,,192,0,3,,,,,2,,,74,0
266496,note_on,,,,,0,0,3,,,,,2,,,76,94
266496,note_off,,,,,192,0,5,,,,,4,,,68,0
266496,note_on,,,,,0,0,4,,,,,3,,,73,88
266496,note_on,,,,,0,0,2,,,,,1,,,73,75
266496,note_off,,,,,192,0,6,,,,,5,,,50,0
266496,note_on,,,,,0,0,7,,,,,6,,,37,75
266496,note_off,,,,,192,0,1,,,,,0,,,74,0
266496,note_off,,,,,192,0,7,,,,,6,,,38,0
266496,note_on,,,,,0,0,5,,,,,4,,,69,75
266496,note_on,,,,,0,0,1,,,,,0,,,76,75
266496,note_off,,,,,192,0,4,,,,,3,,,71,0
266688,set_tempo,,,,,192,1,0,,606060,,,,,,,
266784,note_on,,,,,0,0,1,,,,,0,,,78,75
266784,note_on,,,,,0,0,3,,,,,2,,,78,94
266784,note_off,,,,,288,0,3,,,,,2,,,76,0
266784,note_off,,,,,288,0,1,,,,,0,,,76,0
266832,note_off,,,,,48,0,1,,,,,0,,,78,0
266832,note_on,,,,,0,0,1,,,,,0,,,80,75
266832,note_on,,,,,0,0,3,,,,,2,,,80,94
266832,note_off,,,,,48,0,3,,,,,2,,,78,0
266880,note_off,,,,,384,0,4,,,,,3,,,73,0
266880,note_on,,,,,0,0,4,,,,,3,,,64,88
266880,note_off,,,,,48,0,1,,,,,0,,,80,0
266880,note_on,,,,,0,0,1,,,,,0,,,81,75
266880,set_tempo,,,,,192,1,0,,638297,,,,,,,
266880,note_off,,,,,384,0,5,,,,,4,,,69,0
266880,note_on,,,,,0,0,2,,,,,1,,,64,75
266880,note_on,,,,,0,0,5,,,,,4,,,61,75
266880,note_on,,,,,0,0,3,,,,,2,,,81,94
266880,note_off,,,,,48,0,3,,,,,2,,,80,0
266880,note_off,,,,,384,0,2,,,,,1,,,73,0
267072,note_on,,,,,0,0,1,,,,,0,,,74,75
267072,note_off,,,,,192,0,1,,,,,0,,,81,0
267072,note_off,,,,,576,0,6,,,,,5,,,49,0
267072,note_on,,,,,0,0,6,,,,,5,,,47,75
267072,note_off,,,,,192,0,2,,,,,1,,,64,0
267072,note_off,,,,,192,0,4,,,,,3,,,64,0
267072,note_on,,,,,0,0,4,,,,,3,,,68,88
267072,note_on,,,,,0,0,3,,,,,2,,,74,94
267072,note_off,,,,,192,0,3,,,,,2,,,81,0
267072,note_off,,,,,576,0,7,,,,,6,,,37,0
267072,note_on,,,,,0,0,2,,,,,1,,,68,75
267072,note_off,,,,,192,0,5,,,,,4,,,61,0
267072,note_on,,,,,0,0,5,,,,,4,,,62,75
267072,note_off,,,,,576,0,8,,,,,7,,,49,0
267072,note_on,,,,,0,0,8,,,,,7,,,47,60
267072,set_tempo,,,,,192,1,0,,666666,,,,,,,
267072,note_on,,,,,0,0,7,,,,,6,,,35,75
267264,note_off,,,,,192,0,7,,,,,6,,,35,0
267264,note_off,,,,,192,0,5,,,,,4,,,62,0
267264,note_on,,,,,0,0,5,,,,,4,,,64,75
267264,note_on,,,,,0,0,6,,,,,5,,,45,75
267264,note_on,,,,,0,0,3,,,,,2,,,74,94
267264,set_tempo,,,,,192,1,0,,705882,,,,,,,
267264,note_on,,,,,0,0,8,,,,,7,,,45,60
267264,note_off,,,,,192,0,4,,,,,3,,,68,0
267264,note_on,,,,,0,0,4,,,,,3,,,69,88
267264,note_off,,,,,192,0,8,,,,,7,,,47,0
267264,note_on,,,,,0,0,7,,,,,6,,,33,75
267264,note_off,,,,,192,0,1,,,,,0,,,74,0
267264,note_off,,,,,192,0,3,,,,,2,,,74,0
267264,note_on,,,,,0,0,1,,,,,0,,,74,75
267264,note_off,,,,,192,0,6,,,,,5,,,47,0
267264,note_off,,,,,192,0,2,,,,,1,,,68,0
267264,note_on,,,,,0,0,2,,,,,1,,,69,75
267312,note_off,,,,,48,0,1,,,,,0,,,74,0
267312,note_on,,,,,0,0,1,,,,,0,,,73,75
267312,note_on,,,,,0,0,3,,,,,2,,,73,94
267312,note_off,,,,,48,0,3,,,,,2,,,74,0
267360,note_on,,,,,0,0,3,,,,,2,,,74,94
267360,note_off,,,,,48,0,1,,,,,0,,,73,0
267360,note_on,,,,,0,0,1,,,,,0,,,74,75
267360,note_off,,,,,48,0,3,,,,,2,,,73,0
267408,note_off,,,,,48,0,1,,,,,0,,,74,0
267408,note_off,,,,,48,0,3,,,,,2,,,74,0
267408,note_on,,,,,0,0,3,,,,,2,,,73,94
267408,note_on,,,,,0,0,1,,,,,0,,,73,75
267456,note_off,,,,,192,0,4,,,,,3,,,69,0
267456,note_on,,,,,0,0,3,,,,,2,,,74,94
267456,note_on,,,,,0,0,4,,,,,3,,,66,88
267456,note_off,,,,,192,0,7,,,,,6,,,33,0
267456,note_on,,,,,0,0,7,,,,,6,,,38,75
267456,note_off,,,,,192,0,8,,,,,7,,,45,0
267456,note_on,,,,,0,0,8,,,,,7,,,50,60
267456,note_on,,,,,0,0,6,,,,,5,,,50,75
267456,note_off,,,,,48,0,3,,,,,2,,,73,0
267456,set_tempo,,,,,192,1,0,,759493,,,,,,,
267456,note_on,,,,,0,0,2,,,,,1,,,66,75
267456,note_off,,,,,192,0,2,,,,,1,,,69,0
267456,note_off,,,,,48,0,1,,,,,0,,,73,0
267456,note_on,,,,,0,0,1,,,,,0,,,74,75
267456,note_off,,,,,192,0,5,,,,,4,,,64,0
267456,note_off,,,,,192,0,6,,,,,5,,,45,0
267456,note_on,,,,,0,0,5,,,,,4,,,66,75
267504,note_on,,,,,0,0,3,,,,,2,,,73,94
267504,note_off,,,,,48,0,1,,,,,0,,,74,0
267504,note_off,,,,,48,0,3,,,,,2,,,74,0
267504,note_on,,,,,0,0,1,,,,,0,,,73,75
267648,note_off,,,,,144,0,3,,,,,2,,,73,0
267648,note_off,,,,,144,0,1,,,,,0,,,73,0
267648,note_off,,,,,192,0,4,,,,,3,,,66,0
267648,note_on,,,,,0,0,1,,,,,0,,,73,75
267648,note_on,,,,,0,0,3,,,,,2,,,73,94
267648,note_on,,,,,0,0,4,,,,,3,,,69,88
267648,note_off,,,,,192,0,6,,,,,5,,,50,0
267648,note_off,,,,,192,0,2,,,,,1,,,66,0
267648,note_off,,,,,192,0,7,,,,,6,,,38,0
267648,note_on,,,,,0,0,7,,,,,6,,,40,75
267648,note_on,,,,,0,0,5,,,,,4,,,64,75
267648,note_off,,,,,192,0,8,,,,,7,,,50,0
267648,note_on,,,,,0,0,8,,,,,7,,,52,60
267648,set_tempo,,,,,192,1,0,,869565,,,,,,,
267648,note_off,,,,,192,0,5,,,,,4,,,66,0
267648,note_on,,,,,0,0,2,,,,,1,,,69,75
267648,note_on,,,,,0,0,6,,,,,5,,,52,75
267696,note_on,,,,,0,0,2,,,,,1,,,68,75
267696,note_off,,,,,48,0,2,,,,,1,,,69,0
267696,note_off,,,,,48,0,4,,,,,3,,,69,0
267696,note_on,,,,,0,0,4,,,,,3,,,68,88
267696,note_on,,,,,0,0,1,,,,,0,,,71,75
267696,note_off,,,,,48,0,3,,,,,2,,,73,0
267696,note_on,,,,,0,0,3,,,,,2,,,71,94
267696,note_off,,,,,48,0,1,,,,,0,,,73,0
267744,note_on,,,,,0,0,1,,,,,0,,,73,75
267744,note_off,,,,,48,0,2,,,,,1,,,68,0
267744,note_on,,,,,0,0,2,,,,,1,,,71,75
267744,note_on,,,,,0,0,4,,,,,3,,,71,88
267744,note_off,,,,,48,0,1,,,,,0,,,71,0
267744,note_on,,,,,0,0,3,,,,,2,,,73,94
267744,note_off,,,,,48,0,4,,,,,3,,,68,0
267744,note_off,,,,,48,0,3,,,,,2,,,71,0
267792,note_off,,,,,48,0,3,,,,,2,,,73,0
267792,note_on,,,,,0,0,3,,,,,2,,,71,94
267792,note_off,,,,,48,0,1,,,,,0,,,73,0
267792,note_on,,,,,0,0,1,,,,,0,,,71,75
267792,note_on,,,,,0,0,2,,,,,1,,,69,75
267792,note_off,,,,,48,0,4,,,,,3,,,71,0
267792,note_on,,,,,0,0,4,,,,,3,,,69,88
267792,note_off,,,,,48,0,2,,,,,1,,,71,0
267840,note_off,,,,,192,0,7,,,,,6,,,40,0
267840,set_tempo,,,,,192,1,0,,1132075,,,,,,,
267840,note_on,,,,,0,0,5,,,,,4,,,59,75
267840,note_off,,,,,192,0,5,,,,,4,,,64,0
267840,note_on,,,,,0,0,8,,,,,7,,,40,60
267840,note_off,,,,,48,0,2,,,,,1,,,69,0
267840,note_on,,,,,0,0,6,,,,,5,,,40,75
267840,note_off,,,,,192,0,6,,,,,5,,,52,0
267840,note_on,,,,,0,0,1,,,,,0,,,73,75
267840,note_off,,,,,48,0,1,,,,,0,,,71,0
267840,note_off,,,,,192,0,8,,,,,7,,,52,0
267840,note_on,,,,,0,0,2,,,,,1,,,71,75
267840,note_on,,,,,0,0,7,,,,,6,,,28,75
267840,note_on,,,,,0,0,4,,,,,3,,,71,88
267840,note_off,,,,,48,0,4,,,,,3,,,69,0
267840,note_on,,,,,0,0,3,,,,,2,,,73,94
267840,note_off,,,,,48,0,3,,,,,2,,,71,0
267888,note_on,,,,,0,0,2,,,,,1,,,69,75
267888,note_on,,,,,0,0,4,,,,,3,,,69,88
267888,note_off,,,,,48,0,4,,,,,3,,,71,0
267888,note_off,,,,,48,0,1,,,,,0,,,73,0
267888,note_on,,,,,0,0,1,,,,,0,,,71,75
267888,note_on,,,,,0,0,3,,,,,2,,,71,94
267888,note_off,,,,,48,0,3,,,,,2,,,73,0
267888,note_off,,,,,48,0,2,,,,,1,,,71,0
267936,note_off,,,,,48,0,3,,,,,2,,,71,0
267936,note_on,,,,,0,0,4,,,,,3,,,69,88
267936,note_on,,,,,0,0,2,,,,,1,,,69,75
267936,note_on,,,,,0,0,3,,,,,2,,,69,94
267936,note_off,,,,,48,0,2,,,,,1,,,69,0
267936,note_on,,,,,0,0,1,,,,,0,,,69,75
267936,note_off,,,,,48,0,4,,,,,3,,,69,0
267936,note_off,,,,,48,0,1,,,,,0,,,71,0
268032,note_on,,,,,0,0,8,,,,,7,,,45,60
268032,note_off,,,,,192,0,8,,,,,7,,,40,0
268032,note_off,,,,,96,0,1,,,,,0,,,69,0
268032,note_on,,,,,0,0,3,,,,,2,,,69,94
268032,note_on,,,,,0,0,1,,,,,0,,,69,75
268032,note_off,,,,,192,0,6,,,,,5,,,40,0
268032,note_on,,,,,0,0,6,,,,,5,,,45,75
268032,end_of_track,,,,,0,1,0,,,,,,,,,
268032,note_off,,,,,96,0,4,,,,,3,,,69,0
268032,note_off,,,,,96,0,2,,,,,1,,,69,0
268032,note_on,,,,,0,0,2,,,,,1,,,69,75
268032,note_off,,,,,192,0,7,,,,,6,,,28,0
268032,note_on,,,,,0,0,7,,,,,6,,,33,75
268032,note_off,,,,,96,0,3,,,,,2,,,69,0
268032,note_on,,,,,0,0,4,,,,,3,,,69,88
268032,set_tempo,,,,,192,1,0,,3000000,,,,,,,
268032,note_on,,,,,0,0,5,,,,,4,,,61,75
268032,note_off,,,,,192,0,5,,,,,4,,,59,0
268416,end_of_track,,,,,0,1,5,,,,,,,,,
268416,note_off,,,,,384,0,3,,,,,2,,,69,0
268416,end_of_track,,,,,0,1,4,,,,,,,,,
268416,end_of_track,,,,,0,1,3,,,,,,,,,
268416,note_off,,,,,384,0,2,,,,,1,,,69,0
268416,end_of_track,,,,,0,1,6,,,,,,,,,
268416,end_of_track,,,,,0,1,2,,,,,,,,,
268416,note_off,,,,,384,0,6,,,,,5,,,45,0
268416,note_off,,,,,384,0,5,,,,,4,,,61,0
268416,note_off,,,,,384,0,7,,,,,6,,,33,0
268416,end_of_track,,,,,0,1,7,,,,,,,,,
268416,note_off,,,,,384,0,4,,,,,3,,,69,0
268416,end_of_track,,,,,0,1,8,,,,,,,,,
268416,note_off,,,,,384,0,8,,,,,7,,,45,0
268416,end_of_track,,,,,0,1,1,,,,,,,,,
268416,note_off,,,,,384,0,1,,,,,0,,,69,0
