tick,type,numerator,denominator,clocks_per_click,notated_32nd_notes_per_beat,time,meta,track,data,tempo,control,value,channel,program,key,note,velocity
0,time_signature,3,4,96,8,0,1,0,,,,,,,,,
0,track_name,,,,,0,1,5,,,,,,,,,
0,control_change,,,,,0,0,5,,,0,0,4,,,,
0,control_change,,,,,0,0,5,,,10,109,4,,,,
0,control_change,,,,,0,0,5,,,7,127,4,,,,
0,program_change,,,,,0,0,5,,,,,4,41,,,
0,key_signature,,,,,0,1,5,,,,,,,E,,
0,note_on,,,,,0,0,5,,,,,4,,,68,92
0,key_signature,,,,,0,1,16,,,,,,,C,,
0,track_name,,,,,0,1,6,,,,,,,,,
0,control_change,,,,,0,0,6,,,0,0,5,,,,
0,control_change,,,,,0,0,6,,,10,21,5,,,,
0,control_change,,,,,0,0,6,,,7,127,5,,,,
0,program_change,,,,,0,0,6,,,,,5,42,,,
0,key_signature,,,,,0,1,6,,,,,,,E,,
0,note_on,,,,,0,0,6,,,,,5,,,52,92
0,note_on,,,,,0,0,4,,,,,3,,,71,108
0,track_name,,,,,0,1,7,,,,,,,,,
0,key_signature,,,,,0,1,4,,,,,,,E,,
0,control_change,,,,,0,0,4,,,7,127,3,,,,
0,control_change,,,,,0,0,2,,,10,105,1,,,,
0,control_change,,,,,0,0,2,,,7,127,1,,,,
0,program_change,,,,,0,0,2,,,,,1,40,,,
0,key_signature,,,,,0,1,2,,,,,,,E,,
0,note_on,,,,,0,0,2,,,,,1,,,71,92
0,track_name,,,,,0,1,3,,,,,,,,,
0,control_change,,,,,0,0,3,,,0,0,2,,,,
0,control_change,,,,,0,0,3,,,10,21,2,,,,
0,control_change,,,,,0,0,3,,,7,127,2,,,,
0,program_change,,,,,0,0,3,,,,,2,48,,,
0,key_signature,,,,,0,1,3,,,,,,,E,,
0,note_on,,,,,0,0,3,,,,,2,,,71,108
0,track_name,,,,,0,1,4,,,,,,,,,
0,control_change,,,,,0,0,4,,,0,0,3,,,,
0,control_change,,,,,0,0,4,,,10,109,3,,,,
0,program_change,,,,,0,0,4,,,,,3,48,,,
0,control_change,,,,,0,0,7,,,0,0,6,,,,
0,control_change,,,,,0,0,7,,,10,63,6,,,,
0,control_change,,,,,0,0,7,,,7,127,6,,,,
0,track_name,,,,,0,1,11,,,,,,,,,
0,key_signature,,,,,0,1,11,,,,,,,C,,
0,end_of_track,,,,,0,1,11,,,,,,,,,
0,track_name,,,,,0,1,12,,,,,,,,,
0,key_signature,,,,,0,1,12,,,,,,,C,,
0,end_of_track,,,,,0,1,12,,,,,,,,,
0,track_name,,,,,0,1,13,,,,,,,,,
0,key_signature,,,,,0,1,13,,,,,,,C,,
0,end_of_track,,,,,0,1,13,,,,,,,,,
0,track_name,,,,,0,1,14,,,,,,,,,
0,key_signature,,,,,0,1,14,,,,,,,C,,
0,end_of_track,,,,,0,1,14,,,,,,,,,
0,track_name,,,,,0,1,15,,,,,,,,,
0,key_signature,,,,,0,1,15,,,,,,,C,,
0,end_of_track,,,,,0,1,15,,,,,,,,,
0,end_of_track,,,,,0,1,10,,,,,,,,,
0,key_signature,,,,,0,1,10,,,,,,,C,,
0,track_name,,,,,0,1,10,,,,,,,,,
0,note_on,,,,,0,0,9,,,,,8,,,52,60
0,program_change,,,,,0,0,7,,,,,6,43,,,
0,key_signature,,,,,0,1,7,,,,,,,E,,
0,note_on,,,,,0,0,7,,,,,6,,,52,92
0,track_name,,,,,0,1,8,,,,,,,,,
0,control_change,,,,,0,0,8,,,0,0,7,,,,
0,control_change,,,,,0,0,8,,,10,77,7,,,,
0,control_change,,,,,0,0,8,,,7,127,7,,,,
0,control_change,,,,,0,0,2,,,0,0,1,,,,
0,program_change,,,,,0,0,8,,,,,7,6,,,
0,note_on,,,,,0,0,8,,,,,7,,,68,60
0,track_name,,,,,0,1,9,,,,,,,,,
0,control_change,,,,,0,0,9,,,0,0,8,,,,
0,control_change,,,,,0,0,9,,,10,52,8,,,,
0,control_change,,,,,0,0,9,,,7,127,8,,,,
0,program_change,,,,,0,0,9,,,,,8,6,,,
0,key_signature,,,,,0,1,9,,,,,,,E,,
0,key_signature,,,,,0,1,8,,,,,,,E,,
0,track_name,,,,,0,1,2,,,,,,,,,
0,end_of_track,,,,,0,1,16,,,,,,,,,
0,control_change,,,,,0,0,1,,,10,24,0,,,,
0,track_name,,,,,0,1,1,,,,,,,,,
0,set_tempo,,,,,0,1,0,,937500,,,,,,,
0,sequencer_specific,,,,,0,1,0,"(0, 0, 65)",,,,,,,,
0,control_change,,,,,0,0,1,,,7,127,0,,,,
0,control_change,,,,,0,0,1,,,0,0,0,,,,
0,program_change,,,,,0,0,1,,,,,0,40,,,
0,note_on,,,,,0,0,1,,,,,0,,,71,92
0,key_signature,,,,,0,1,1,,,,,,,E,,
320,note_off,,,,,320,0,9,,,,,8,,,52,0
320,note_off,,,,,320,0,8,,,,,7,,,68,0
384,note_on,,,,,64,0,9,,,,,8,,,52,60
384,note_off,,,,,384,0,5,,,,,4,,,68,0
384,note_on,,,,,0,0,7,,,,,6,,,52,92
384,note_on,,,,,0,0,5,,,,,4,,,68,92
384,note_off,,,,,384,0,7,,,,,6,,,52,0
384,note_on,,,,,0,0,6,,,,,5,,,52,92
384,note_off,,,,,384,0,6,,,,,5,,,52,0
384,note_on,,,,,64,0,8,,,,,7,,,68,60
704,note_off,,,,,320,0,9,,,,,8,,,52,0
704,note_off,,,,,320,0,8,,,,,7,,,68,0
768,note_on,,,,,0,0,6,,,,,5,,,47,92
768,note_on,,,,,0,0,9,,,,,8,,,56,60
768,note_on,,,,,64,0,9,,,,,8,,,47,60
768,note_off,,,,,384,0,6,,,,,5,,,52,0
768,note_on,,,,,0,0,1,,,,,0,,,68,92
768,note_off,,,,,768,0,3,,,,,2,,,71,0
768,note_on,,,,,0,0,4,,,,,3,,,68,108
768,note_off,,,,,768,0,2,,,,,1,,,71,0
768,note_off,,,,,384,0,5,,,,,4,,,68,0
768,note_on,,,,,0,0,5,,,,,4,,,59,92
768,note_on,,,,,0,0,2,,,,,1,,,68,92
768,note_on,,,,,64,0,8,,,,,7,,,59,60
768,note_off,,,,,384,0,7,,,,,6,,,52,0
768,note_on,,,,,0,0,7,,,,,6,,,47,92
768,note_off,,,,,768,0,1,,,,,0,,,71,0
768,note_off,,,,,768,0,4,,,,,3,,,71,0
768,note_on,,,,,0,0,3,,,,,2,,,68,108
1088,note_off,,,,,320,0,8,,,,,7,,,59,0
1088,note_off,,,,,320,0,9,,,,,8,,,47,0
1088,note_off,,,,,0,0,9,,,,,8,,,56,0
1152,note_on,,,,,0,0,1,,,,,0,,,64,92
1152,note_off,,,,,384,0,3,,,,,2,,,68,0
1152,note_on,,,,,0,0,3,,,,,2,,,64,108
1152,note_off,,,,,384,0,7,,,,,6,,,47,0
1152,note_on,,,,,0,0,7,,,,,6,,,49,92
1152,note_off,,,,,384,0,4,,,,,3,,,68,0
1152,note_on,,,,,0,0,4,,,,,3,,,64,108
1152,note_on,,,,,0,0,5,,,,,4,,,56,92
1152,note_off,,,,,384,0,1,,,,,0,,,68,0
1152,note_on,,,,,0,0,6,,,,,5,,,49,92
1152,note_off,,,,,384,0,6,,,,,5,,,47,0
1152,note_off,,,,,384,0,5,,,,,4,,,59,0
1152,note_on,,,,,64,0,9,,,,,8,,,49,60
1152,note_off,,,,,384,0,2,,,,,1,,,68,0
1152,note_on,,,,,0,0,2,,,,,1,,,64,92
1152,note_on,,,,,64,0,8,,,,,7,,,56,60
1472,note_off,,,,,320,0,9,,,,,8,,,49,0
1472,note_off,,,,,320,0,8,,,,,7,,,56,0
1536,note_off,,,,,384,0,7,,,,,6,,,49,0
1536,note_on,,,,,0,0,7,,,,,6,,,49,92
1536,note_on,,,,,64,0,9,,,,,8,,,49,60
1536,note_on,,,,,64,0,8,,,,,7,,,56,60
1536,note_on,,,,,0,0,6,,,,,5,,,49,92
1536,note_on,,,,,0,0,5,,,,,4,,,56,92
1536,note_off,,,,,384,0,5,,,,,4,,,56,0
1536,note_off,,,,,384,0,6,,,,,5,,,49,0
1856,note_off,,,,,320,0,9,,,,,8,,,49,0
1856,note_off,,,,,320,0,8,,,,,7,,,56,0
1920,note_on,,,,,64,0,9,,,,,8,,,44,60
1920,note_on,,,,,0,0,9,,,,,8,,,52,60
1920,note_on,,,,,0,0,7,,,,,6,,,44,92
1920,note_off,,,,,384,0,7,,,,,6,,,49,0
1920,note_off,,,,,384,0,6,,,,,5,,,49,0
1920,note_on,,,,,0,0,5,,,,,4,,,64,92
1920,note_off,,,,,384,0,5,,,,,4,,,56,0
1920,note_on,,,,,64,0,8,,,,,7,,,64,60
1920,note_on,,,,,0,0,6,,,,,5,,,44,92
2240,note_off,,,,,320,0,9,,,,,8,,,44,0
2240,note_off,,,,,320,0,8,,,,,7,,,64,0
2240,note_off,,,,,0,0,9,,,,,8,,,52,0
2304,note_off,,,,,1152,0,3,,,,,2,,,64,0
2304,note_on,,,,,0,0,6,,,,,5,,,45,92
2304,note_on,,,,,64,0,9,,,,,8,,,45,60
2304,note_off,,,,,384,0,5,,,,,4,,,64,0
2304,note_on,,,,,0,0,7,,,,,6,,,45,92
2304,note_off,,,,,384,0,7,,,,,6,,,44,0
2304,note_off,,,,,384,0,6,,,,,5,,,44,0
2304,note_on,,,,,0,0,4,,,,,3,,,73,108
2304,note_off,,,,,1152,0,4,,,,,3,,,64,0
2304,note_on,,,,,0,0,1,,,,,0,,,73,92
2304,note_off,,,,,1152,0,1,,,,,0,,,64,0
2304,note_on,,,,,0,0,2,,,,,1,,,73,92
2304,note_on,,,,,0,0,5,,,,,4,,,64,92
2304,note_on,,,,,0,0,3,,,,,2,,,73,108
2304,note_on,,,,,64,0,8,,,,,7,,,64,60
2304,note_off,,,,,1152,0,2,,,,,1,,,64,0
2624,note_off,,,,,320,0,9,,,,,8,,,45,0
2624,note_off,,,,,320,0,8,,,,,7,,,64,0
2688,note_off,,,,,384,0,1,,,,,0,,,73,0
2688,note_on,,,,,0,0,6,,,,,5,,,47,92
2688,note_off,,,,,384,0,6,,,,,5,,,45,0
2688,note_off,,,,,384,0,3,,,,,2,,,73,0
2688,note_on,,,,,0,0,3,,,,,2,,,66,108
2688,note_on,,,,,64,0,9,,,,,8,,,47,60
2688,note_on,,,,,0,0,9,,,,,8,,,52,60
2688,note_off,,,,,384,0,5,,,,,4,,,64,0
2688,note_on,,,,,0,0,4,,,,,3,,,66,108
2688,note_on,,,,,0,0,5,,,,,4,,,64,92
2688,note_off,,,,,384,0,7,,,,,6,,,45,0
2688,note_on,,,,,64,0,8,,,,,7,,,64,60
2688,note_off,,,,,384,0,4,,,,,3,,,73,0
2688,note_on,,,,,0,0,7,,,,,6,,,47,92
2688,note_on,,,,,0,0,1,,,,,0,,,66,92
2688,note_on,,,,,0,0,2,,,,,1,,,66,92
2688,note_off,,,,,384,0,2,,,,,1,,,73,0
3008,note_off,,,,,0,0,9,,,,,8,,,52,0
3008,note_off,,,,,320,0,8,,,,,7,,,64,0
3008,note_off,,,,,320,0,9,,,,,8,,,47,0
3072,note_off,,,,,384,0,7,,,,,6,,,47,0
3072,note_on,,,,,0,0,6,,,,,5,,,47,92
3072,note_off,,,,,384,0,6,,,,,5,,,47,0
3072,note_on,,,,,0,0,1,,,,,0,,,68,92
3072,note_on,,,,,0,0,9,,,,,8,,,51,60
3072,note_on,,,,,0,0,7,,,,,6,,,47,92
3072,note_off,,,,,384,0,1,,,,,0,,,66,0
3072,note_on,,,,,64,0,9,,,,,8,,,47,60
3072,note_off,,,,,384,0,5,,,,,4,,,64,0
3072,note_on,,,,,0,0,4,,,,,3,,,68,108
3072,note_off,,,,,384,0,3,,,,,2,,,66,0
3072,note_off,,,,,384,0,4,,,,,3,,,66,0
3072,note_on,,,,,0,0,5,,,,,4,,,63,92
3072,note_off,,,,,384,0,2,,,,,1,,,66,0
3072,note_on,,,,,64,0,8,,,,,7,,,63,60
3072,note_on,,,,,0,0,3,,,,,2,,,68,108
3072,note_on,,,,,0,0,2,,,,,1,,,68,92
3264,note_off,,,,,192,0,4,,,,,3,,,68,0
3264,note_off,,,,,192,0,1,,,,,0,,,68,0
3264,note_on,,,,,0,0,1,,,,,0,,,69,92
3264,note_off,,,,,192,0,2,,,,,1,,,68,0
3264,note_on,,,,,0,0,4,,,,,3,,,69,108
3264,note_on,,,,,0,0,3,,,,,2,,,69,108
3264,note_off,,,,,192,0,3,,,,,2,,,68,0
3264,note_on,,,,,0,0,2,,,,,1,,,69,92
3392,note_off,,,,,320,0,8,,,,,7,,,63,0
3392,note_off,,,,,0,0,9,,,,,8,,,51,0
3392,note_off,,,,,320,0,9,,,,,8,,,47,0
3456,note_off,,,,,192,0,3,,,,,2,,,69,0
3456,note_on,,,,,64,0,9,,,,,8,,,40,60
3456,note_on,,,,,0,0,5,,,,,4,,,64,92
3456,note_off,,,,,384,0,5,,,,,4,,,63,0
3456,note_off,,,,,192,0,2,,,,,1,,,69,0
3456,note_on,,,,,0,0,3,,,,,2,,,68,108
3456,note_off,,,,,384,0,6,,,,,5,,,47,0
3456,note_on,,,,,0,0,4,,,,,3,,,68,108
3456,note_on,,,,,0,0,1,,,,,0,,,68,92
3456,note_off,,,,,192,0,4,,,,,3,,,69,0
3456,note_on,,,,,0,0,6,,,,,5,,,40,92
3456,note_on,,,,,64,0,8,,,,,7,,,64,60
3456,note_off,,,,,192,0,1,,,,,0,,,69,0
3456,note_on,,,,,0,0,2,,,,,1,,,68,92
3456,note_on,,,,,0,0,7,,,,,6,,,40,92
3456,note_off,,,,,384,0,7,,,,,6,,,47,0
3776,note_off,,,,,320,0,9,,,,,8,,,40,0
3776,note_off,,,,,320,0,8,,,,,7,,,64,0
3840,note_on,,,,,64,0,8,,,,,7,,,59,60
3840,note_on,,,,,0,0,7,,,,,6,,,44,92
3840,note_off,,,,,384,0,7,,,,,6,,,40,0
3840,note_off,,,,,384,0,6,,,,,5,,,40,0
3840,note_on,,,,,0,0,9,,,,,8,,,52,60
3840,note_on,,,,,64,0,9,,,,,8,,,44,60
3840,note_on,,,,,0,0,5,,,,,4,,,59,92
3840,note_off,,,,,384,0,5,,,,,4,,,64,0
3840,note_on,,,,,0,0,6,,,,,5,,,44,92
4160,note_off,,,,,320,0,8,,,,,7,,,59,0
4160,note_off,,,,,320,0,9,,,,,8,,,44,0
4160,note_off,,,,,0,0,9,,,,,8,,,52,0
4224,note_on,,,,,0,0,6,,,,,5,,,47,92
4224,note_on,,,,,64,0,8,,,,,7,,,63,60
4224,note_off,,,,,384,0,6,,,,,5,,,44,0
4224,note_off,,,,,384,0,5,,,,,4,,,59,0
4224,note_on,,,,,0,0,5,,,,,4,,,63,92
4224,note_on,,,,,0,0,7,,,,,6,,,47,92
4224,note_off,,,,,384,0,7,,,,,6,,,44,0
4224,note_on,,,,,64,0,9,,,,,8,,,47,60
4544,note_off,,,,,320,0,8,,,,,7,,,63,0
4544,note_off,,,,,320,0,9,,,,,8,,,47,0
4608,note_on,,,,,0,0,2,,,,,1,,,80,92
4608,note_on,,,,,64,0,8,,,,,7,,,64,60
4608,note_off,,,,,1152,0,2,,,,,1,,,68,0
4608,note_off,,,,,1152,0,4,,,,,3,,,68,0
4608,note_on,,,,,0,0,4,,,,,3,,,80,108
4608,note_off,,,,,1152,0,1,,,,,0,,,68,0
4608,note_off,,,,,384,0,6,,,,,5,,,47,0
4608,note_on,,,,,0,0,6,,,,,5,,,52,92
4608,note_off,,,,,384,0,7,,,,,6,,,47,0
4608,note_on,,,,,0,0,5,,,,,4,,,64,92
4608,note_off,,,,,384,0,5,,,,,4,,,63,0
4608,note_on,,,,,0,0,3,,,,,2,,,80,108
4608,note_off,,,,,1152,0,3,,,,,2,,,68,0
4608,note_on,,,,,64,0,9,,,,,8,,,52,60
4608,note_on,,,,,0,0,1,,,,,0,,,80,92
4608,note_on,,,,,0,0,7,,,,,6,,,52,92
4928,note_off,,,,,320,0,9,,,,,8,,,52,0
4928,note_off,,,,,320,0,8,,,,,7,,,64,0
4992,note_on,,,,,0,0,7,,,,,6,,,52,92
4992,note_on,,,,,64,0,9,,,,,8,,,52,60
4992,note_off,,,,,384,0,5,,,,,4,,,64,0
4992,note_on,,,,,0,0,5,,,,,4,,,71,92
4992,note_off,,,,,384,0,6,,,,,5,,,52,0
4992,note_on,,,,,0,0,6,,,,,5,,,52,92
4992,note_off,,,,,384,0,7,,,,,6,,,52,0
4992,note_on,,,,,64,0,8,,,,,7,,,71,60
5312,note_off,,,,,320,0,8,,,,,7,,,71,0
5312,note_off,,,,,320,0,9,,,,,8,,,52,0
5376,note_on,,,,,64,0,9,,,,,8,,,52,60
5376,note_off,,,,,384,0,6,,,,,5,,,52,0
5376,note_on,,,,,0,0,5,,,,,4,,,68,92
5376,note_off,,,,,384,0,5,,,,,4,,,71,0
5376,note_on,,,,,0,0,7,,,,,6,,,52,92
5376,note_off,,,,,384,0,7,,,,,6,,,52,0
5376,note_on,,,,,64,0,8,,,,,7,,,68,60
5376,note_on,,,,,0,0,6,,,,,5,,,52,92
5696,note_off,,,,,320,0,8,,,,,7,,,68,0
5696,note_off,,,,,320,0,9,,,,,8,,,52,0
5760,note_off,,,,,384,0,5,,,,,4,,,68,0
5760,note_on,,,,,0,0,5,,,,,4,,,64,92
5760,note_on,,,,,0,0,7,,,,,6,,,57,92
5760,note_on,,,,,0,0,6,,,,,5,,,57,92
5760,note_on,,,,,0,0,1,,,,,0,,,73,92
5760,note_off,,,,,1152,0,1,,,,,0,,,80,0
5760,note_on,,,,,64,0,8,,,,,7,,,64,60
5760,note_off,,,,,1152,0,2,,,,,1,,,80,0
5760,note_on,,,,,0,0,2,,,,,1,,,73,92
5760,note_off,,,,,1152,0,3,,,,,2,,,80,0
5760,note_on,,,,,0,0,3,,,,,2,,,73,108
5760,note_off,,,,,384,0,6,,,,,5,,,52,0
5760,note_on,,,,,0,0,4,,,,,3,,,73,108
5760,note_on,,,,,64,0,9,,,,,8,,,57,60
5760,note_off,,,,,1152,0,4,,,,,3,,,80,0
5760,note_off,,,,,384,0,7,,,,,6,,,52,0
6080,note_off,,,,,320,0,9,,,,,8,,,57,0
6080,note_off,,,,,320,0,8,,,,,7,,,64,0
6144,note_off,,,,,384,0,7,,,,,6,,,57,0
6144,note_on,,,,,0,0,6,,,,,5,,,57,92
6144,note_on,,,,,0,0,7,,,,,6,,,57,92
6144,note_off,,,,,384,0,5,,,,,4,,,64,0
6144,note_off,,,,,384,0,6,,,,,5,,,57,0
6144,note_on,,,,,64,0,9,,,,,8,,,57,60
6144,note_on,,,,,0,0,5,,,,,4,,,61,92
6144,note_on,,,,,64,0,8,,,,,7,,,61,60
6464,note_off,,,,,320,0,8,,,,,7,,,61,0
6464,note_off,,,,,320,0,9,,,,,8,,,57,0
6528,note_off,,,,,384,0,5,,,,,4,,,61,0
6528,note_off,,,,,384,0,7,,,,,6,,,57,0
6528,note_on,,,,,0,0,5,,,,,4,,,57,92
6528,note_on,,,,,64,0,9,,,,,8,,,57,60
6528,note_off,,,,,384,0,6,,,,,5,,,57,0
6528,note_on,,,,,0,0,7,,,,,6,,,57,92
6528,note_on,,,,,0,0,6,,,,,5,,,57,92
6528,note_on,,,,,64,0,8,,,,,7,,,57,60
6848,note_off,,,,,320,0,9,,,,,8,,,57,0
6848,note_off,,,,,320,0,8,,,,,7,,,57,0
6912,note_off,,,,,1152,0,2,,,,,1,,,73,0
6912,note_off,,,,,384,0,5,,,,,4,,,57,0
6912,note_off,,,,,1152,0,3,,,,,2,,,73,0
6912,note_on,,,,,0,0,3,,,,,2,,,81,108
6912,note_off,,,,,1152,0,4,,,,,3,,,73,0
6912,note_on,,,,,0,0,4,,,,,3,,,81,108
6912,note_off,,,,,1152,0,1,,,,,0,,,73,0
6912,note_on,,,,,64,0,9,,,,,8,,,54,60
6912,note_on,,,,,0,0,2,,,,,1,,,81,92
6912,note_on,,,,,0,0,5,,,,,4,,,61,92
6912,note_on,,,,,0,0,1,,,,,0,,,81,92
6912,note_on,,,,,64,0,8,,,,,7,,,61,60
6912,note_off,,,,,384,0,6,,,,,5,,,57,0
6912,note_on,,,,,0,0,6,,,,,5,,,54,92
6912,note_on,,,,,0,0,7,,,,,6,,,54,92
6912,note_off,,,,,384,0,7,,,,,6,,,57,0
7232,note_off,,,,,320,0,9,,,,,8,,,54,0
7232,note_off,,,,,320,0,8,,,,,7,,,61,0
7296,note_off,,,,,384,0,6,,,,,5,,,54,0
7296,note_on,,,,,0,0,6,,,,,5,,,54,92
7296,note_on,,,,,64,0,8,,,,,7,,,73,60
7296,note_on,,,,,0,0,5,,,,,4,,,73,92
7296,note_off,,,,,384,0,5,,,,,4,,,61,0
7296,note_on,,,,,64,0,9,,,,,8,,,54,60
7296,note_off,,,,,384,0,7,,,,,6,,,54,0
7296,note_on,,,,,0,0,7,,,,,6,,,54,92
7616,note_off,,,,,320,0,8,,,,,7,,,73,0
7616,note_off,,,,,320,0,9,,,,,8,,,54,0
7680,note_off,,,,,768,0,3,,,,,2,,,81,0
7680,note_on,,,,,0,0,1,,,,,0,,,78,92
7680,note_off,,,,,768,0,1,,,,,0,,,81,0
7680,note_on,,,,,64,0,9,,,,,8,,,54,60
7680,note_on,,,,,0,0,6,,,,,5,,,54,92
7680,note_on,,,,,0,0,4,,,,,3,,,78,108
7680,note_off,,,,,384,0,6,,,,,5,,,54,0
7680,note_off,,,,,384,0,7,,,,,6,,,54,0
7680,note_on,,,,,0,0,7,,,,,6,,,54,92
7680,note_on,,,,,0,0,3,,,,,2,,,78,108
7680,note_on,,,,,0,0,2,,,,,1,,,78,92
7680,note_off,,,,,768,0,4,,,,,3,,,81,0
7680,note_off,,,,,384,0,5,,,,,4,,,73,0
7680,note_on,,,,,0,0,5,,,,,4,,,69,92
7680,note_off,,,,,768,0,2,,,,,1,,,81,0
7680,note_on,,,,,64,0,8,,,,,7,,,69,60
8000,note_off,,,,,320,0,9,,,,,8,,,54,0
8000,note_off,,,,,320,0,8,,,,,7,,,69,0
8064,note_off,,,,,384,0,4,,,,,3,,,78,0
8064,note_off,,,,,384,0,6,,,,,5,,,54,0
8064,note_on,,,,,0,0,6,,,,,5,,,59,92
8064,note_on,,,,,0,0,5,,,,,4,,,66,92
8064,note_off,,,,,384,0,5,,,,,4,,,69,0
8064,note_off,,,,,384,0,1,,,,,0,,,78,0
8064,note_on,,,,,0,0,4,,,,,3,,,75,108
8064,note_off,,,,,384,0,7,,,,,6,,,54,0
8064,note_on,,,,,0,0,1,,,,,0,,,75,92
8064,note_on,,,,,0,0,3,,,,,2,,,75,108
8064,note_off,,,,,384,0,3,,,,,2,,,78,0
8064,note_on,,,,,0,0,7,,,,,6,,,59,92
8064,note_on,,,,,64,0,9,,,,,8,,,59,60
8064,note_off,,,,,384,0,2,,,,,1,,,78,0
8064,note_on,,,,,0,0,2,,,,,1,,,75,92
8064,note_on,,,,,64,0,8,,,,,7,,,66,60
8384,note_off,,,,,320,0,9,,,,,8,,,59,0
8384,note_off,,,,,320,0,8,,,,,7,,,66,0
8448,note_on,,,,,64,0,9,,,,,8,,,47,60
8448,note_off,,,,,384,0,5,,,,,4,,,66,0
8448,note_on,,,,,0,0,6,,,,,5,,,47,92
8448,note_off,,,,,384,0,6,,,,,5,,,59,0
8448,note_on,,,,,0,0,7,,,,,6,,,47,92
8448,note_off,,,,,384,0,7,,,,,6,,,59,0
8448,note_on,,,,,64,0,8,,,,,7,,,71,60
8448,note_on,,,,,0,0,5,,,,,4,,,71,92
8768,note_off,,,,,320,0,9,,,,,8,,,47,0
8768,note_off,,,,,320,0,8,,,,,7,,,71,0
8832,note_on,,,,,0,0,2,,,,,1,,,76,92
8832,note_off,,,,,384,0,7,,,,,6,,,47,0
8832,note_off,,,,,768,0,3,,,,,2,,,75,0
8832,note_on,,,,,64,0,9,,,,,8,,,49,60
8832,note_on,,,,,0,0,9,,,,,8,,,57,60
8832,note_on,,,,,0,0,3,,,,,2,,,76,108
8832,note_on,,,,,0,0,1,,,,,0,,,76,92
8832,note_off,,,,,768,0,1,,,,,0,,,75,0
8832,note_on,,,,,0,0,7,,,,,6,,,49,92
8832,note_off,,,,,768,0,2,,,,,1,,,75,0
8832,note_on,,,,,0,0,4,,,,,3,,,76,108
8832,note_off,,,,,768,0,4,,,,,3,,,75,0
8832,note_on,,,,,0,0,6,,,,,5,,,49,92
8832,note_off,,,,,384,0,6,,,,,5,,,47,0
8832,note_on,,,,,0,0,5,,,,,4,,,70,92
8832,note_off,,,,,384,0,5,,,,,4,,,71,0
8832,note_on,,,,,64,0,8,,,,,7,,,70,60
9152,note_off,,,,,0,0,9,,,,,8,,,57,0
9152,note_off,,,,,320,0,9,,,,,8,,,49,0
9152,note_off,,,,,320,0,8,,,,,7,,,70,0
9216,note_off,,,,,384,0,1,,,,,0,,,76,0
9216,note_on,,,,,0,0,5,,,,,4,,,71,92
9216,note_off,,,,,384,0,5,,,,,4,,,70,0
9216,note_off,,,,,384,0,7,,,,,6,,,49,0
9216,note_on,,,,,0,0,4,,,,,3,,,78,108
9216,note_off,,,,,384,0,2,,,,,1,,,76,0
9216,note_on,,,,,0,0,2,,,,,1,,,78,92
9216,note_off,,,,,384,0,4,,,,,3,,,76,0
9216,note_on,,,,,0,0,6,,,,,5,,,51,92
9216,note_off,,,,,384,0,6,,,,,5,,,49,0
9216,note_on,,,,,0,0,7,,,,,6,,,51,92
9216,note_on,,,,,64,0,9,,,,,8,,,51,60
9216,note_on,,,,,0,0,3,,,,,2,,,78,108
9216,note_off,,,,,384,0,3,,,,,2,,,76,0
9216,note_on,,,,,0,0,1,,,,,0,,,78,92
9216,note_on,,,,,64,0,8,,,,,7,,,71,60
9536,note_off,,,,,320,0,9,,,,,8,,,51,0
9536,note_off,,,,,320,0,8,,,,,7,,,71,0
9600,note_off,,,,,384,0,2,,,,,1,,,78,0
9600,note_on,,,,,0,0,2,,,,,1,,,80,92
9600,note_off,,,,,384,0,3,,,,,2,,,78,0
9600,note_off,,,,,384,0,4,,,,,3,,,78,0
9600,note_on,,,,,0,0,4,,,,,3,,,80,108
9600,note_on,,,,,0,0,7,,,,,6,,,52,92
9600,note_on,,,,,64,0,9,,,,,8,,,52,60
9600,note_on,,,,,0,0,3,,,,,2,,,80,108
9600,note_on,,,,,64,0,8,,,,,7,,,59,60
9600,note_on,,,,,0,0,5,,,,,4,,,59,92
9600,note_off,,,,,384,0,6,,,,,5,,,51,0
9600,note_on,,,,,0,0,6,,,,,5,,,52,92
9600,note_off,,,,,384,0,7,,,,,6,,,51,0
9600,note_off,,,,,384,0,5,,,,,4,,,71,0
9600,note_on,,,,,0,0,1,,,,,0,,,80,92
9600,note_off,,,,,384,0,1,,,,,0,,,78,0
9920,note_off,,,,,320,0,8,,,,,7,,,59,0
9920,note_off,,,,,320,0,9,,,,,8,,,52,0
9984,note_off,,,,,384,0,5,,,,,4,,,59,0
9984,note_on,,,,,0,0,2,,,,,1,,,76,92
9984,note_off,,,,,384,0,7,,,,,6,,,52,0
9984,note_off,,,,,384,0,1,,,,,0,,,80,0
9984,note_off,,,,,384,0,2,,,,,1,,,80,0
9984,note_on,,,,,0,0,1,,,,,0,,,76,92
9984,note_on,,,,,0,0,4,,,,,3,,,76,108
9984,note_off,,,,,384,0,4,,,,,3,,,80,0
9984,note_on,,,,,64,0,8,,,,,7,,,61,60
9984,note_on,,,,,0,0,7,,,,,6,,,49,92
9984,note_off,,,,,384,0,6,,,,,5,,,52,0
9984,note_on,,,,,0,0,6,,,,,5,,,49,92
9984,note_on,,,,,0,0,5,,,,,4,,,61,92
9984,note_on,,,,,64,0,9,,,,,8,,,49,60
9984,note_on,,,,,0,0,3,,,,,2,,,76,108
9984,note_off,,,,,384,0,3,,,,,2,,,80,0
10304,note_off,,,,,320,0,9,,,,,8,,,49,0
10304,note_off,,,,,320,0,8,,,,,7,,,61,0
10368,note_off,,,,,384,0,4,,,,,3,,,76,0
10368,note_on,,,,,0,0,1,,,,,0,,,73,92
10368,note_on,,,,,64,0,9,,,,,8,,,54,60
10368,note_off,,,,,384,0,2,,,,,1,,,76,0
10368,note_on,,,,,0,0,2,,,,,1,,,73,92
10368,note_on,,,,,64,0,8,,,,,7,,,58,60
10368,note_off,,,,,384,0,7,,,,,6,,,49,0
10368,note_on,,,,,0,0,7,,,,,6,,,54,92
10368,note_off,,,,,384,0,6,,,,,5,,,49,0
10368,note_on,,,,,0,0,6,,,,,5,,,54,92
10368,note_on,,,,,0,0,5,,,,,4,,,58,92
10368,note_off,,,,,384,0,5,,,,,4,,,61,0
10368,note_off,,,,,384,0,3,,,,,2,,,76,0
10368,note_on,,,,,0,0,4,,,,,3,,,73,108
10368,note_off,,,,,384,0,1,,,,,0,,,76,0
10368,note_on,,,,,0,0,3,,,,,2,,,73,108
10688,note_off,,,,,320,0,8,,,,,7,,,58,0
10752,note_on,,,,,0,0,4,,,,,3,,,70,108
10752,note_off,,,,,384,0,4,,,,,3,,,73,0
10752,note_off,,,,,384,0,1,,,,,0,,,73,0
10752,note_on,,,,,0,0,2,,,,,1,,,70,92
10752,note_on,,,,,0,0,5,,,,,4,,,66,92
10752,note_on,,,,,0,0,1,,,,,0,,,70,92
10752,note_off,,,,,384,0,3,,,,,2,,,73,0
10752,note_on,,,,,0,0,3,,,,,2,,,70,108
10752,note_on,,,,,64,0,8,,,,,7,,,66,60
10752,note_off,,,,,384,0,2,,,,,1,,,73,0
10752,note_off,,,,,384,0,5,,,,,4,,,58,0
11040,note_off,,,,,672,0,9,,,,,8,,,54,0
11072,note_off,,,,,320,0,8,,,,,7,,,66,0
11136,note_off,,,,,768,0,7,,,,,6,,,54,0
11136,note_on,,,,,0,0,7,,,,,6,,,56,92
11136,note_off,,,,,384,0,1,,,,,0,,,70,0
11136,note_on,,,,,0,0,1,,,,,0,,,71,92
11136,note_off,,,,,384,0,3,,,,,2,,,70,0
11136,note_on,,,,,0,0,3,,,,,2,,,71,108
11136,note_off,,,,,384,0,4,,,,,3,,,70,0
11136,note_on,,,,,0,0,4,,,,,3,,,71,108
11136,note_on,,,,,64,0,8,,,,,7,,,63,60
11136,note_on,,,,,96,0,9,,,,,8,,,56,60
11136,note_on,,,,,0,0,6,,,,,5,,,56,92
11136,note_off,,,,,768,0,6,,,,,5,,,54,0
11136,note_on,,,,,0,0,5,,,,,4,,,63,92
11136,note_off,,,,,384,0,5,,,,,4,,,66,0
11136,note_off,,,,,384,0,2,,,,,1,,,70,0
11136,note_on,,,,,0,0,2,,,,,1,,,71,92
11456,note_off,,,,,320,0,8,,,,,7,,,63,0
11456,note_off,,,,,320,0,9,,,,,8,,,56,0
11520,note_off,,,,,384,0,6,,,,,5,,,56,0
11520,note_on,,,,,0,0,1,,,,,0,,,76,92
11520,note_off,,,,,384,0,3,,,,,2,,,71,0
11520,note_on,,,,,0,0,3,,,,,2,,,76,108
11520,note_on,,,,,64,0,8,,,,,7,,,68,60
11520,note_on,,,,,0,0,6,,,,,5,,,52,92
11520,note_on,,,,,64,0,9,,,,,8,,,52,60
11520,note_off,,,,,384,0,1,,,,,0,,,71,0
11520,note_on,,,,,0,0,2,,,,,1,,,76,92
11520,note_off,,,,,384,0,2,,,,,1,,,71,0
11520,note_on,,,,,0,0,7,,,,,6,,,52,92
11520,note_off,,,,,384,0,7,,,,,6,,,56,0
11520,note_off,,,,,384,0,5,,,,,4,,,63,0
11520,note_on,,,,,0,0,5,,,,,4,,,68,92
11520,note_on,,,,,0,0,4,,,,,3,,,76,108
11520,note_off,,,,,384,0,4,,,,,3,,,71,0
11840,note_off,,,,,320,0,8,,,,,7,,,68,0
11840,note_off,,,,,320,0,9,,,,,8,,,52,0
11904,note_off,,,,,384,0,2,,,,,1,,,76,0
11904,note_on,,,,,0,0,2,,,,,1,,,73,92
11904,note_on,,,,,64,0,8,,,,,7,,,66,60
11904,note_on,,,,,0,0,3,,,,,2,,,75,108
11904,note_off,,,,,384,0,3,,,,,2,,,76,0
11904,note_on,,,,,0,0,5,,,,,4,,,70,92
11904,note_off,,,,,384,0,6,,,,,5,,,52,0
11904,note_on,,,,,0,0,6,,,,,5,,,54,92
11904,note_off,,,,,384,0,5,,,,,4,,,68,0
11904,note_on,,,,,0,0,4,,,,,3,,,73,108
11904,note_off,,,,,384,0,4,,,,,3,,,76,0
11904,note_on,,,,,0,0,1,,,,,0,,,75,92
11904,note_off,,,,,384,0,1,,,,,0,,,76,0
11904,note_off,,,,,384,0,7,,,,,6,,,52,0
11904,note_on,,,,,0,0,7,,,,,6,,,54,92
11904,note_on,,,,,64,0,9,,,,,8,,,54,60
11952,note_off,,,,,48,0,1,,,,,0,,,75,0
11952,note_on,,,,,0,0,1,,,,,0,,,73,92
11952,note_off,,,,,48,0,8,,,,,7,,,66,0
11952,note_off,,,,,48,0,3,,,,,2,,,75,0
11952,note_on,,,,,0,0,3,,,,,2,,,73,108
11952,note_on,,,,,0,0,8,,,,,7,,,64,60
12000,note_on,,,,,0,0,3,,,,,2,,,75,108
12000,note_on,,,,,0,0,8,,,,,7,,,66,60
12000,note_on,,,,,0,0,1,,,,,0,,,75,92
12000,note_off,,,,,48,0,1,,,,,0,,,73,0
12000,note_off,,,,,48,0,8,,,,,7,,,64,0
12000,note_off,,,,,48,0,3,,,,,2,,,73,0
12048,note_off,,,,,48,0,3,,,,,2,,,75,0
12048,note_off,,,,,48,0,8,,,,,7,,,66,0
12048,note_on,,,,,0,0,1,,,,,0,,,73,92
12048,note_off,,,,,48,0,1,,,,,0,,,75,0
12048,note_on,,,,,0,0,3,,,,,2,,,73,108
12048,note_on,,,,,0,0,8,,,,,7,,,64,60
12096,note_on,,,,,0,0,8,,,,,7,,,66,60
12096,note_off,,,,,48,0,8,,,,,7,,,64,0
12096,note_on,,,,,0,0,1,,,,,0,,,75,92
12096,note_on,,,,,0,0,3,,,,,2,,,75,108
12096,note_off,,,,,48,0,1,,,,,0,,,73,0
12096,note_off,,,,,48,0,3,,,,,2,,,73,0
12144,note_on,,,,,0,0,3,,,,,2,,,73,108
12144,note_off,,,,,48,0,3,,,,,2,,,75,0
12144,note_on,,,,,0,0,8,,,,,7,,,64,60
12144,note_off,,,,,48,0,8,,,,,7,,,66,0
12144,note_on,,,,,0,0,1,,,,,0,,,73,92
12144,note_off,,,,,48,0,1,,,,,0,,,75,0
12192,note_off,,,,,48,0,3,,,,,2,,,73,0
12192,note_on,,,,,0,0,3,,,,,2,,,75,108
12192,note_on,,,,,0,0,8,,,,,7,,,66,60
12192,note_off,,,,,48,0,8,,,,,7,,,64,0
12192,note_on,,,,,0,0,1,,,,,0,,,75,92
12192,note_off,,,,,48,0,1,,,,,0,,,73,0
12224,note_off,,,,,320,0,9,,,,,8,,,54,0
12240,note_on,,,,,0,0,3,,,,,2,,,73,108
12240,note_off,,,,,48,0,1,,,,,0,,,75,0
12240,note_on,,,,,0,0,1,,,,,0,,,73,92
12240,note_off,,,,,48,0,3,,,,,2,,,75,0
12240,note_off,,,,,48,0,8,,,,,7,,,66,0
12240,note_on,,,,,0,0,8,,,,,7,,,64,60
12288,note_off,,,,,384,0,7,,,,,6,,,54,0
12288,note_on,,,,,0,0,8,,,,,7,,,66,60
12288,note_on,,,,,0,0,7,,,,,6,,,42,92
12288,note_on,,,,,0,0,1,,,,,0,,,75,92
12288,note_on,,,,,0,0,3,,,,,2,,,75,108
12288,note_off,,,,,48,0,1,,,,,0,,,73,0
12288,note_on,,,,,64,0,9,,,,,8,,,42,60
12288,note_on,,,,,0,0,6,,,,,5,,,42,92
12288,note_off,,,,,48,0,3,,,,,2,,,73,0
12288,note_off,,,,,384,0,5,,,,,4,,,70,0
12288,note_off,,,,,384,0,6,,,,,5,,,54,0
12288,note_on,,,,,0,0,5,,,,,4,,,64,92
12288,note_off,,,,,48,0,8,,,,,7,,,64,0
12336,note_on,,,,,0,0,1,,,,,0,,,73,92
12336,note_off,,,,,48,0,1,,,,,0,,,75,0
12336,note_on,,,,,0,0,3,,,,,2,,,73,108
12336,note_on,,,,,0,0,8,,,,,7,,,64,60
12336,note_off,,,,,48,0,3,,,,,2,,,75,0
12336,note_off,,,,,48,0,8,,,,,7,,,66,0
12476,note_off,,,,,140,0,8,,,,,7,,,64,0
12480,note_off,,,,,144,0,1,,,,,0,,,73,0
12480,note_on,,,,,0,0,3,,,,,2,,,71,108
12480,note_on,,,,,0,0,2,,,,,1,,,71,92
12480,note_on,,,,,0,0,1,,,,,0,,,71,92
12480,note_off,,,,,576,0,2,,,,,1,,,73,0
12480,note_on,,,,,0,0,4,,,,,3,,,71,108
12480,note_off,,,,,144,0,3,,,,,2,,,73,0
12480,note_on,,,,,4,0,8,,,,,7,,,64,60
12480,note_off,,,,,576,0,4,,,,,3,,,73,0
12608,note_off,,,,,320,0,9,,,,,8,,,42,0
12668,note_off,,,,,188,0,8,,,,,7,,,64,0
12672,note_on,,,,,0,0,5,,,,,4,,,63,92
12672,note_on,,,,,0,0,1,,,,,0,,,71,92
12672,note_off,,,,,384,0,5,,,,,4,,,64,0
12672,note_off,,,,,192,0,1,,,,,0,,,71,0
12672,note_on,,,,,0,0,2,,,,,1,,,71,92
12672,note_off,,,,,192,0,2,,,,,1,,,71,0
12672,note_off,,,,,384,0,7,,,,,6,,,42,0
12672,note_off,,,,,192,0,4,,,,,3,,,71,0
12672,note_on,,,,,0,0,4,,,,,3,,,71,108
12672,note_off,,,,,384,0,6,,,,,5,,,42,0
12672,note_on,,,,,0,0,3,,,,,2,,,71,108
12672,note_off,,,,,192,0,3,,,,,2,,,71,0
12672,note_on,,,,,0,0,6,,,,,5,,,47,92
12672,note_on,,,,,64,0,9,,,,,8,,,47,60
12672,note_on,,,,,0,0,7,,,,,6,,,47,92
12672,note_on,,,,,4,0,8,,,,,7,,,63,60
12992,note_off,,,,,320,0,8,,,,,7,,,63,0
12992,note_off,,,,,320,0,9,,,,,8,,,47,0
13056,note_on,,,,,0,0,7,,,,,6,,,51,92
13056,note_off,,,,,384,0,5,,,,,4,,,63,0
13056,note_off,,,,,384,0,6,,,,,5,,,47,0
13056,note_on,,,,,0,0,6,,,,,5,,,51,92
13056,note_on,,,,,64,0,9,,,,,8,,,51,60
13056,note_off,,,,,384,0,7,,,,,6,,,47,0
13056,note_on,,,,,64,0,8,,,,,7,,,66,60
13056,note_on,,,,,0,0,5,,,,,4,,,66,92
13376,note_off,,,,,320,0,9,,,,,8,,,51,0
13376,note_off,,,,,320,0,8,,,,,7,,,66,0
13440,note_off,,,,,384,0,6,,,,,5,,,51,0
13440,note_on,,,,,0,0,6,,,,,5,,,47,92
13440,note_on,,,,,64,0,9,,,,,8,,,47,60
13440,note_off,,,,,384,0,7,,,,,6,,,51,0
13440,note_on,,,,,64,0,8,,,,,7,,,63,60
13440,note_off,,,,,384,0,5,,,,,4,,,66,0
13440,note_on,,,,,0,0,5,,,,,4,,,63,92
13440,note_on,,,,,0,0,7,,,,,6,,,47,92
13760,note_off,,,,,320,0,9,,,,,8,,,47,0
13760,note_off,,,,,320,0,8,,,,,7,,,63,0
13824,note_off,,,,,384,0,7,,,,,6,,,47,0
13824,note_off,,,,,384,0,6,,,,,5,,,47,0
13824,note_off,,,,,1152,0,2,,,,,1,,,71,0
13824,note_on,,,,,0,0,2,,,,,1,,,71,92
13824,note_on,,,,,64,0,8,,,,,7,,,68,60
13824,note_on,,,,,0,0,5,,,,,4,,,68,92
13824,note_on,,,,,0,0,3,,,,,2,,,71,108
13824,note_off,,,,,384,0,5,,,,,4,,,63,0
13824,note_on,,,,,64,0,9,,,,,8,,,52,60
13824,note_on,,,,,0,0,4,,,,,3,,,71,108
13824,note_off,,,,,1152,0,4,,,,,3,,,71,0
13824,note_on,,,,,0,0,7,,,,,6,,,52,92
13824,note_off,,,,,1152,0,3,,,,,2,,,71,0
13824,note_on,,,,,0,0,6,,,,,5,,,52,92
13824,note_off,,,,,1152,0,1,,,,,0,,,71,0
13824,note_on,,,,,0,0,1,,,,,0,,,71,92
13824,set_tempo,,,,,13824,1,0,,937500,,,,,,,
14144,note_off,,,,,320,0,9,,,,,8,,,52,0
14144,note_off,,,,,320,0,8,,,,,7,,,68,0
14208,note_on,,,,,0,0,5,,,,,4,,,68,92
14208,note_off,,,,,384,0,5,,,,,4,,,68,0
14208,note_on,,,,,0,0,6,,,,,5,,,52,92
14208,note_on,,,,,64,0,9,,,,,8,,,52,60
14208,note_on,,,,,0,0,7,,,,,6,,,52,92
14208,note_off,,,,,384,0,7,,,,,6,,,52,0
14208,note_on,,,,,64,0,8,,,,,7,,,68,60
14208,note_off,,,,,384,0,6,,,,,5,,,52,0
14528,note_off,,,,,320,0,8,,,,,7,,,68,0
14528,note_off,,,,,320,0,9,,,,,8,,,52,0
14592,note_on,,,,,0,0,5,,,,,4,,,59,92
14592,note_off,,,,,768,0,4,,,,,3,,,71,0
14592,note_on,,,,,0,0,1,,,,,0,,,68,92
14592,note_on,,,,,64,0,8,,,,,7,,,59,60
14592,note_off,,,,,768,0,1,,,,,0,,,71,0
14592,note_off,,,,,384,0,6,,,,,5,,,52,0
14592,note_on,,,,,0,0,6,,,,,5,,,47,92
14592,note_on,,,,,0,0,7,,,,,6,,,47,92
14592,note_on,,,,,0,0,4,,,,,3,,,68,108
14592,note_off,,,,,384,0,7,,,,,6,,,52,0
14592,note_off,,,,,768,0,3,,,,,2,,,71,0
14592,note_on,,,,,0,0,3,,,,,2,,,68,108
14592,note_on,,,,,64,0,9,,,,,8,,,47,60
14592,note_off,,,,,384,0,5,,,,,4,,,68,0
14592,note_on,,,,,0,0,2,,,,,1,,,68,92
14592,note_on,,,,,0,0,9,,,,,8,,,56,60
14592,note_off,,,,,768,0,2,,,,,1,,,71,0
14912,note_off,,,,,320,0,8,,,,,7,,,59,0
14912,note_off,,,,,0,0,9,,,,,8,,,56,0
14912,note_off,,,,,320,0,9,,,,,8,,,47,0
14976,note_off,,,,,384,0,6,,,,,5,,,47,0
14976,note_on,,,,,0,0,1,,,,,0,,,64,92
14976,note_off,,,,,384,0,1,,,,,0,,,68,0
14976,note_on,,,,,0,0,5,,,,,4,,,56,92
14976,note_on,,,,,0,0,4,,,,,3,,,64,108
14976,note_on,,,,,0,0,6,,,,,5,,,49,92
14976,note_off,,,,,384,0,4,,,,,3,,,68,0
14976,note_on,,,,,0,0,7,,,,,6,,,49,92
14976,note_off,,,,,384,0,2,,,,,1,,,68,0
14976,note_on,,,,,64,0,9,,,,,8,,,49,60
14976,note_on,,,,,0,0,3,,,,,2,,,64,108
14976,note_off,,,,,384,0,5,,,,,4,,,59,0
14976,note_on,,,,,64,0,8,,,,,7,,,56,60
14976,note_on,,,,,0,0,2,,,,,1,,,64,92
14976,note_off,,,,,384,0,7,,,,,6,,,47,0
14976,note_off,,,,,384,0,3,,,,,2,,,68,0
15296,note_off,,,,,320,0,9,,,,,8,,,49,0
15296,note_off,,,,,320,0,8,,,,,7,,,56,0
15360,note_off,,,,,384,0,7,,,,,6,,,49,0
15360,note_off,,,,,384,0,5,,,,,4,,,56,0
15360,note_on,,,,,0,0,5,,,,,4,,,56,92
15360,note_off,,,,,384,0,6,,,,,5,,,49,0
15360,note_on,,,,,0,0,6,,,,,5,,,49,92
15360,note_on,,,,,0,0,7,,,,,6,,,49,92
15360,note_on,,,,,64,0,8,,,,,7,,,56,60
15360,note_on,,,,,64,0,9,,,,,8,,,49,60
15680,note_off,,,,,320,0,8,,,,,7,,,56,0
15680,note_off,,,,,320,0,9,,,,,8,,,49,0
15744,note_on,,,,,0,0,9,,,,,8,,,52,60
15744,note_off,,,,,384,0,6,,,,,5,,,49,0
15744,note_on,,,,,64,0,8,,,,,7,,,64,60
15744,note_on,,,,,64,0,9,,,,,8,,,44,60
15744,note_on,,,,,0,0,5,,,,,4,,,64,92
15744,note_off,,,,,384,0,5,,,,,4,,,56,0
15744,note_on,,,,,0,0,7,,,,,6,,,44,92
15744,note_off,,,,,384,0,7,,,,,6,,,49,0
15744,note_on,,,,,0,0,6,,,,,5,,,44,92
16064,note_off,,,,,320,0,9,,,,,8,,,44,0
16064,note_off,,,,,0,0,9,,,,,8,,,52,0
16064,note_off,,,,,320,0,8,,,,,7,,,64,0
16128,note_on,,,,,0,0,6,,,,,5,,,45,92
16128,note_on,,,,,0,0,5,,,,,4,,,64,92
16128,note_on,,,,,64,0,9,,,,,8,,,45,60
16128,note_off,,,,,384,0,6,,,,,5,,,44,0
16128,note_off,,,,,1152,0,1,,,,,0,,,64,0
16128,note_off,,,,,384,0,7,,,,,6,,,44,0
16128,note_on,,,,,0,0,7,,,,,6,,,45,92
16128,note_off,,,,,1152,0,3,,,,,2,,,64,0
16128,note_on,,,,,0,0,3,,,,,2,,,73,108
16128,note_on,,,,,64,0,8,,,,,7,,,64,60
16128,note_off,,,,,1152,0,2,,,,,1,,,64,0
16128,note_on,,,,,0,0,2,,,,,1,,,73,92
16128,note_off,,,,,1152,0,4,,,,,3,,,64,0
16128,note_on,,,,,0,0,4,,,,,3,,,73,108
16128,note_off,,,,,384,0,5,,,,,4,,,64,0
16128,note_on,,,,,0,0,1,,,,,0,,,73,92
16448,note_off,,,,,320,0,9,,,,,8,,,45,0
16448,note_off,,,,,320,0,8,,,,,7,,,64,0
16512,note_off,,,,,384,0,4,,,,,3,,,73,0
16512,note_off,,,,,384,0,1,,,,,0,,,73,0
16512,note_on,,,,,0,0,4,,,,,3,,,66,108
16512,note_off,,,,,384,0,6,,,,,5,,,45,0
16512,note_on,,,,,0,0,6,,,,,5,,,47,92
16512,note_on,,,,,0,0,1,,,,,0,,,66,92
16512,note_on,,,,,0,0,9,,,,,8,,,52,60
16512,note_on,,,,,64,0,9,,,,,8,,,47,60
16512,note_on,,,,,0,0,5,,,,,4,,,64,92
16512,note_off,,,,,384,0,5,,,,,4,,,64,0
16512,note_off,,,,,384,0,7,,,,,6,,,45,0
16512,note_off,,,,,384,0,3,,,,,2,,,73,0
16512,note_on,,,,,0,0,3,,,,,2,,,66,108
16512,note_on,,,,,64,0,8,,,,,7,,,64,60
16512,note_on,,,,,0,0,7,,,,,6,,,47,92
16512,note_on,,,,,0,0,2,,,,,1,,,66,92
16512,note_off,,,,,384,0,2,,,,,1,,,73,0
16832,note_off,,,,,320,0,9,,,,,8,,,47,0
16832,note_off,,,,,320,0,8,,,,,7,,,64,0
16832,note_off,,,,,0,0,9,,,,,8,,,52,0
16896,note_off,,,,,384,0,4,,,,,3,,,66,0
16896,note_on,,,,,0,0,5,,,,,4,,,63,92
16896,note_off,,,,,384,0,6,,,,,5,,,47,0
16896,note_on,,,,,0,0,6,,,,,5,,,47,92
16896,note_off,,,,,384,0,1,,,,,0,,,66,0
16896,note_on,,,,,0,0,1,,,,,0,,,68,92
16896,note_on,,,,,0,0,9,,,,,8,,,51,60
16896,note_on,,,,,64,0,9,,,,,8,,,47,60
16896,note_on,,,,,0,0,2,,,,,1,,,68,92
16896,note_off,,,,,384,0,2,,,,,1,,,66,0
16896,note_off,,,,,384,0,5,,,,,4,,,64,0
16896,note_on,,,,,0,0,7,,,,,6,,,47,92
16896,note_on,,,,,0,0,4,,,,,3,,,68,108
16896,note_on,,,,,0,0,3,,,,,2,,,68,108
16896,note_on,,,,,64,0,8,,,,,7,,,63,60
16896,note_off,,,,,384,0,3,,,,,2,,,66,0
16896,note_off,,,,,384,0,7,,,,,6,,,47,0
17088,note_off,,,,,192,0,3,,,,,2,,,68,0
17088,note_on,,,,,0,0,2,,,,,1,,,69,92
17088,note_off,,,,,192,0,2,,,,,1,,,68,0
17088,note_on,,,,,0,0,1,,,,,0,,,69,92
17088,note_off,,,,,192,0,1,,,,,0,,,68,0
17088,note_on,,,,,0,0,4,,,,,3,,,69,108
17088,note_off,,,,,192,0,4,,,,,3,,,68,0
17088,note_on,,,,,0,0,3,,,,,2,,,69,108
17216,note_off,,,,,0,0,9,,,,,8,,,51,0
17216,note_off,,,,,320,0,9,,,,,8,,,47,0
17216,note_off,,,,,320,0,8,,,,,7,,,63,0
17280,note_on,,,,,0,0,1,,,,,0,,,68,92
17280,note_on,,,,,0,0,3,,,,,2,,,68,108
17280,note_off,,,,,192,0,3,,,,,2,,,69,0
17280,note_off,,,,,192,0,2,,,,,1,,,69,0
17280,note_on,,,,,0,0,2,,,,,1,,,68,92
17280,note_on,,,,,64,0,8,,,,,7,,,64,60
17280,note_on,,,,,0,0,7,,,,,6,,,40,92
17280,note_off,,,,,192,0,1,,,,,0,,,69,0
17280,note_off,,,,,384,0,7,,,,,6,,,47,0
17280,note_off,,,,,384,0,5,,,,,4,,,63,0
17280,note_on,,,,,64,0,9,,,,,8,,,40,60
17280,note_on,,,,,0,0,6,,,,,5,,,40,92
17280,note_off,,,,,192,0,4,,,,,3,,,69,0
17280,note_on,,,,,0,0,4,,,,,3,,,68,108
17280,note_on,,,,,0,0,5,,,,,4,,,64,92
17280,note_off,,,,,384,0,6,,,,,5,,,47,0
17600,note_off,,,,,320,0,8,,,,,7,,,64,0
17600,note_off,,,,,320,0,9,,,,,8,,,40,0
17664,note_on,,,,,0,0,7,,,,,6,,,44,92
17664,note_on,,,,,0,0,5,,,,,4,,,59,92
17664,note_on,,,,,64,0,9,,,,,8,,,44,60
17664,note_on,,,,,0,0,9,,,,,8,,,52,60
17664,note_on,,,,,64,0,8,,,,,7,,,59,60
17664,note_off,,,,,384,0,7,,,,,6,,,40,0
17664,note_off,,,,,384,0,5,,,,,4,,,64,0
17664,note_off,,,,,384,0,6,,,,,5,,,40,0
17664,note_on,,,,,0,0,6,,,,,5,,,44,92
17984,note_off,,,,,320,0,9,,,,,8,,,44,0
17984,note_off,,,,,0,0,9,,,,,8,,,52,0
17984,note_off,,,,,320,0,8,,,,,7,,,59,0
18048,note_on,,,,,64,0,9,,,,,8,,,47,60
18048,note_off,,,,,384,0,6,,,,,5,,,44,0
18048,note_on,,,,,0,0,6,,,,,5,,,47,92
18048,note_on,,,,,64,0,8,,,,,7,,,63,60
18048,note_off,,,,,384,0,5,,,,,4,,,59,0
18048,note_on,,,,,0,0,5,,,,,4,,,63,92
18048,note_on,,,,,0,0,7,,,,,6,,,47,92
18048,note_off,,,,,384,0,7,,,,,6,,,44,0
18368,note_off,,,,,320,0,9,,,,,8,,,47,0
18368,note_off,,,,,320,0,8,,,,,7,,,63,0
18432,note_on,,,,,0,0,7,,,,,6,,,52,92
18432,note_on,,,,,0,0,5,,,,,4,,,64,92
18432,note_off,,,,,1152,0,4,,,,,3,,,68,0
18432,note_on,,,,,0,0,4,,,,,3,,,80,108
18432,note_off,,,,,384,0,6,,,,,5,,,47,0
18432,note_on,,,,,0,0,6,,,,,5,,,52,92
18432,note_on,,,,,0,0,2,,,,,1,,,80,92
18432,note_off,,,,,384,0,7,,,,,6,,,47,0
18432,note_on,,,,,64,0,8,,,,,7,,,64,60
18432,note_off,,,,,1152,0,3,,,,,2,,,68,0
18432,note_off,,,,,384,0,5,,,,,4,,,63,0
18432,note_off,,,,,1152,0,1,,,,,0,,,68,0
18432,note_on,,,,,0,0,1,,,,,0,,,80,92
18432,note_on,,,,,64,0,9,,,,,8,,,52,60
18432,note_on,,,,,0,0,3,,,,,2,,,80,108
18432,note_off,,,,,1152,0,2,,,,,1,,,68,0
18752,note_off,,,,,320,0,9,,,,,8,,,52,0
18752,note_off,,,,,320,0,8,,,,,7,,,64,0
18816,note_off,,,,,384,0,6,,,,,5,,,52,0
18816,note_off,,,,,384,0,7,,,,,6,,,52,0
18816,note_off,,,,,384,0,5,,,,,4,,,64,0
18816,note_on,,,,,0,0,5,,,,,4,,,71,92
18816,note_on,,,,,64,0,8,,,,,7,,,71,60
18816,note_on,,,,,0,0,6,,,,,5,,,52,92
18816,note_on,,,,,64,0,9,,,,,8,,,52,60
18816,note_on,,,,,0,0,7,,,,,6,,,52,92
19136,note_off,,,,,320,0,9,,,,,8,,,52,0
19136,note_off,,,,,320,0,8,,,,,7,,,71,0
19200,note_on,,,,,0,0,7,,,,,6,,,52,92
19200,note_on,,,,,0,0,6,,,,,5,,,52,92
19200,note_on,,,,,0,0,5,,,,,4,,,68,92
19200,note_off,,,,,384,0,5,,,,,4,,,71,0
19200,note_on,,,,,64,0,8,,,,,7,,,68,60
19200,note_off,,,,,384,0,6,,,,,5,,,52,0
19200,note_on,,,,,64,0,9,,,,,8,,,52,60
19200,note_off,,,,,384,0,7,,,,,6,,,52,0
19520,note_off,,,,,320,0,9,,,,,8,,,52,0
19520,note_off,,,,,320,0,8,,,,,7,,,68,0
19584,note_on,,,,,0,0,4,,,,,3,,,73,108
19584,note_on,,,,,0,0,3,,,,,2,,,73,108
19584,note_on,,,,,64,0,9,,,,,8,,,57,60
19584,note_off,,,,,1152,0,3,,,,,2,,,80,0
19584,note_on,,,,,0,0,7,,,,,6,,,57,92
19584,note_off,,,,,384,0,7,,,,,6,,,52,0
19584,note_off,,,,,1152,0,4,,,,,3,,,80,0
19584,note_on,,,,,0,0,2,,,,,1,,,73,92
19584,note_on,,,,,0,0,6,,,,,5,,,57,92
19584,note_off,,,,,1152,0,1,,,,,0,,,80,0
19584,note_off,,,,,384,0,6,,,,,5,,,52,0
19584,note_off,,,,,384,0,5,,,,,4,,,68,0
19584,note_on,,,,,0,0,5,,,,,4,,,64,92
19584,note_off,,,,,1152,0,2,,,,,1,,,80,0
19584,note_on,,,,,0,0,1,,,,,0,,,73,92
19584,note_on,,,,,64,0,8,,,,,7,,,64,60
19904,note_off,,,,,320,0,9,,,,,8,,,57,0
19904,note_off,,,,,320,0,8,,,,,7,,,64,0
19968,note_on,,,,,0,0,6,,,,,5,,,57,92
19968,note_off,,,,,384,0,5,,,,,4,,,64,0
19968,note_on,,,,,0,0,5,,,,,4,,,61,92
19968,note_on,,,,,64,0,8,,,,,7,,,61,60
19968,note_off,,,,,384,0,6,,,,,5,,,57,0
19968,note_on,,,,,0,0,7,,,,,6,,,57,92
19968,note_off,,,,,384,0,7,,,,,6,,,57,0
19968,note_on,,,,,64,0,9,,,,,8,,,57,60
20288,note_off,,,,,320,0,8,,,,,7,,,61,0
20288,note_off,,,,,320,0,9,,,,,8,,,57,0
20352,note_off,,,,,384,0,7,,,,,6,,,57,0
20352,note_on,,,,,0,0,7,,,,,6,,,57,92
20352,note_off,,,,,384,0,6,,,,,5,,,57,0
20352,note_on,,,,,0,0,6,,,,,5,,,57,92
20352,note_on,,,,,64,0,8,,,,,7,,,57,60
20352,note_on,,,,,64,0,9,,,,,8,,,57,60
20352,note_on,,,,,0,0,5,,,,,4,,,57,92
20352,note_off,,,,,384,0,5,,,,,4,,,61,0
20672,note_off,,,,,320,0,9,,,,,8,,,57,0
20672,note_off,,,,,320,0,8,,,,,7,,,57,0
20736,note_off,,,,,1152,0,2,,,,,1,,,73,0
20736,note_on,,,,,0,0,6,,,,,5,,,54,92
20736,note_off,,,,,1152,0,1,,,,,0,,,73,0
20736,note_on,,,,,0,0,3,,,,,2,,,81,108
20736,note_off,,,,,1152,0,3,,,,,2,,,73,0
20736,note_off,,,,,384,0,6,,,,,5,,,57,0
20736,note_on,,,,,0,0,4,,,,,3,,,81,108
20736,note_off,,,,,384,0,7,,,,,6,,,57,0
20736,note_on,,,,,64,0,8,,,,,7,,,61,60
20736,note_on,,,,,64,0,9,,,,,8,,,54,60
20736,note_on,,,,,0,0,5,,,,,4,,,61,92
20736,note_off,,,,,384,0,5,,,,,4,,,57,0
20736,note_on,,,,,0,0,2,,,,,1,,,81,92
20736,note_on,,,,,0,0,1,,,,,0,,,81,92
20736,note_on,,,,,0,0,7,,,,,6,,,54,92
20736,note_off,,,,,1152,0,4,,,,,3,,,73,0
21056,note_off,,,,,320,0,8,,,,,7,,,61,0
21056,note_off,,,,,320,0,9,,,,,8,,,54,0
21120,note_off,,,,,384,0,7,,,,,6,,,54,0
21120,note_off,,,,,384,0,6,,,,,5,,,54,0
21120,note_on,,,,,64,0,9,,,,,8,,,54,60
21120,note_on,,,,,64,0,8,,,,,7,,,73,60
21120,note_on,,,,,0,0,7,,,,,6,,,54,92
21120,note_on,,,,,0,0,5,,,,,4,,,73,92
21120,note_off,,,,,384,0,5,,,,,4,,,61,0
21120,note_on,,,,,0,0,6,,,,,5,,,54,92
21440,note_off,,,,,320,0,8,,,,,7,,,73,0
21440,note_off,,,,,320,0,9,,,,,8,,,54,0
21504,note_on,,,,,0,0,3,,,,,2,,,78,108
21504,note_on,,,,,64,0,9,,,,,8,,,54,60
21504,note_on,,,,,64,0,8,,,,,7,,,69,60
21504,note_off,,,,,768,0,3,,,,,2,,,81,0
21504,note_off,,,,,768,0,4,,,,,3,,,81,0
21504,note_on,,,,,0,0,5,,,,,4,,,69,92
21504,note_off,,,,,768,0,2,,,,,1,,,81,0
21504,note_on,,,,,0,0,2,,,,,1,,,78,92
21504,note_on,,,,,0,0,1,,,,,0,,,78,92
21504,note_off,,,,,768,0,1,,,,,0,,,81,0
21504,note_on,,,,,0,0,7,,,,,6,,,54,92
21504,note_off,,,,,384,0,7,,,,,6,,,54,0
21504,note_off,,,,,384,0,6,,,,,5,,,54,0
21504,note_on,,,,,0,0,6,,,,,5,,,54,92
21504,note_on,,,,,0,0,4,,,,,3,,,78,108
21504,note_off,,,,,384,0,5,,,,,4,,,73,0
21824,note_off,,,,,320,0,8,,,,,7,,,69,0
21824,note_off,,,,,320,0,9,,,,,8,,,54,0
21888,note_off,,,,,384,0,6,,,,,5,,,54,0
21888,note_off,,,,,384,0,5,,,,,4,,,69,0
21888,note_on,,,,,0,0,5,,,,,4,,,66,92
21888,note_off,,,,,384,0,7,,,,,6,,,54,0
21888,note_on,,,,,0,0,7,,,,,6,,,59,92
21888,note_on,,,,,64,0,8,,,,,7,,,66,60
21888,note_off,,,,,384,0,1,,,,,0,,,78,0
21888,note_off,,,,,384,0,3,,,,,2,,,78,0
21888,note_on,,,,,0,0,3,,,,,2,,,75,108
21888,note_on,,,,,0,0,1,,,,,0,,,75,92
21888,note_on,,,,,64,0,9,,,,,8,,,59,60
21888,note_on,,,,,0,0,6,,,,,5,,,59,92
21888,note_off,,,,,384,0,4,,,,,3,,,78,0
21888,note_on,,,,,0,0,4,,,,,3,,,75,108
21888,note_on,,,,,0,0,2,,,,,1,,,75,92
21888,note_off,,,,,384,0,2,,,,,1,,,78,0
22208,note_off,,,,,320,0,8,,,,,7,,,66,0
22208,note_off,,,,,320,0,9,,,,,8,,,59,0
22272,note_on,,,,,0,0,7,,,,,6,,,47,92
22272,note_off,,,,,384,0,7,,,,,6,,,59,0
22272,note_on,,,,,0,0,5,,,,,4,,,71,92
22272,note_on,,,,,0,0,6,,,,,5,,,47,92
22272,note_off,,,,,384,0,6,,,,,5,,,59,0
22272,note_on,,,,,64,0,8,,,,,7,,,71,60
22272,note_off,,,,,384,0,5,,,,,4,,,66,0
22272,note_on,,,,,64,0,9,,,,,8,,,47,60
22592,note_off,,,,,320,0,8,,,,,7,,,71,0
22592,note_off,,,,,320,0,9,,,,,8,,,47,0
22656,note_on,,,,,0,0,6,,,,,5,,,49,92
22656,note_on,,,,,0,0,9,,,,,8,,,57,60
22656,note_on,,,,,0,0,3,,,,,2,,,76,108
22656,note_off,,,,,768,0,3,,,,,2,,,75,0
22656,note_off,,,,,384,0,6,,,,,5,,,47,0
22656,note_on,,,,,0,0,4,,,,,3,,,76,108
22656,note_on,,,,,64,0,9,,,,,8,,,49,60
22656,note_off,,,,,768,0,4,,,,,3,,,75,0
22656,note_off,,,,,384,0,5,,,,,4,,,71,0
22656,note_on,,,,,0,0,5,,,,,4,,,70,92
22656,note_off,,,,,768,0,2,,,,,1,,,75,0
22656,note_off,,,,,768,0,1,,,,,0,,,75,0
22656,note_on,,,,,0,0,1,,,,,0,,,76,92
22656,note_off,,,,,384,0,7,,,,,6,,,47,0
22656,note_on,,,,,0,0,7,,,,,6,,,49,92
22656,note_on,,,,,64,0,8,,,,,7,,,70,60
22656,note_on,,,,,0,0,2,,,,,1,,,76,92
22976,note_off,,,,,0,0,9,,,,,8,,,57,0
22976,note_off,,,,,320,0,9,,,,,8,,,49,0
22976,note_off,,,,,320,0,8,,,,,7,,,70,0
23040,note_on,,,,,0,0,4,,,,,3,,,78,108
23040,note_off,,,,,384,0,4,,,,,3,,,76,0
23040,note_off,,,,,384,0,6,,,,,5,,,49,0
23040,note_on,,,,,0,0,6,,,,,5,,,51,92
23040,note_on,,,,,0,0,5,,,,,4,,,71,92
23040,note_on,,,,,0,0,3,,,,,2,,,78,108
23040,note_off,,,,,384,0,3,,,,,2,,,76,0
23040,note_on,,,,,64,0,8,,,,,7,,,71,60
23040,note_off,,,,,384,0,7,,,,,6,,,49,0
23040,note_on,,,,,0,0,2,,,,,1,,,78,92
23040,note_off,,,,,384,0,2,,,,,1,,,76,0
23040,note_on,,,,,64,0,9,,,,,8,,,51,60
23040,note_off,,,,,384,0,1,,,,,0,,,76,0
23040,note_on,,,,,0,0,1,,,,,0,,,78,92
23040,note_off,,,,,384,0,5,,,,,4,,,70,0
23040,note_on,,,,,0,0,7,,,,,6,,,51,92
23360,note_off,,,,,320,0,9,,,,,8,,,51,0
23360,note_off,,,,,320,0,8,,,,,7,,,71,0
23424,note_off,,,,,384,0,6,,,,,5,,,51,0
23424,note_on,,,,,0,0,6,,,,,5,,,52,92
23424,note_on,,,,,0,0,7,,,,,6,,,52,92
23424,note_on,,,,,0,0,4,,,,,3,,,80,108
23424,note_off,,,,,384,0,4,,,,,3,,,78,0
23424,note_on,,,,,0,0,5,,,,,4,,,59,92
23424,note_off,,,,,384,0,5,,,,,4,,,71,0
23424,note_off,,,,,384,0,3,,,,,2,,,78,0
23424,note_on,,,,,0,0,2,,,,,1,,,80,92
23424,note_off,,,,,384,0,2,,,,,1,,,78,0
23424,note_on,,,,,0,0,3,,,,,2,,,80,108
23424,note_off,,,,,384,0,1,,,,,0,,,78,0
23424,note_on,,,,,0,0,1,,,,,0,,,80,92
23424,note_on,,,,,64,0,9,,,,,8,,,52,60
23424,note_off,,,,,384,0,7,,,,,6,,,51,0
23424,note_on,,,,,64,0,8,,,,,7,,,59,60
23744,note_off,,,,,320,0,8,,,,,7,,,59,0
23744,note_off,,,,,320,0,9,,,,,8,,,52,0
23808,note_off,,,,,384,0,3,,,,,2,,,80,0
23808,note_on,,,,,0,0,3,,,,,2,,,76,108
23808,note_on,,,,,0,0,1,,,,,0,,,76,92
23808,note_off,,,,,384,0,5,,,,,4,,,59,0
23808,note_on,,,,,64,0,9,,,,,8,,,49,60
23808,note_on,,,,,0,0,7,,,,,6,,,49,92
23808,note_off,,,,,384,0,7,,,,,6,,,52,0
23808,note_on,,,,,0,0,6,,,,,5,,,49,92
23808,note_off,,,,,384,0,6,,,,,5,,,52,0
23808,note_off,,,,,384,0,1,,,,,0,,,80,0
23808,note_on,,,,,0,0,5,,,,,4,,,61,92
23808,note_on,,,,,64,0,8,,,,,7,,,61,60
23808,note_off,,,,,384,0,4,,,,,3,,,80,0
23808,note_on,,,,,0,0,4,,,,,3,,,76,108
23808,note_on,,,,,0,0,2,,,,,1,,,76,92
23808,note_off,,,,,384,0,2,,,,,1,,,80,0
24128,note_off,,,,,320,0,9,,,,,8,,,49,0
24128,note_off,,,,,320,0,8,,,,,7,,,61,0
24192,note_off,,,,,384,0,7,,,,,6,,,49,0
24192,note_on,,,,,0,0,7,,,,,6,,,54,92
24192,note_off,,,,,384,0,3,,,,,2,,,76,0
24192,note_on,,,,,0,0,3,,,,,2,,,73,108
24192,note_on,,,,,0,0,6,,,,,5,,,54,92
24192,note_on,,,,,0,0,4,,,,,3,,,73,108
24192,note_off,,,,,384,0,5,,,,,4,,,61,0
24192,note_on,,,,,0,0,5,,,,,4,,,58,92
24192,note_on,,,,,64,0,9,,,,,8,,,54,60
24192,note_off,,,,,384,0,4,,,,,3,,,76,0
24192,note_on,,,,,64,0,8,,,,,7,,,58,60
24192,note_on,,,,,0,0,1,,,,,0,,,73,92
24192,note_off,,,,,384,0,6,,,,,5,,,49,0
24192,note_off,,,,,384,0,1,,,,,0,,,76,0
24192,note_off,,,,,384,0,2,,,,,1,,,76,0
24192,note_on,,,,,0,0,2,,,,,1,,,73,92
24512,note_off,,,,,320,0,8,,,,,7,,,58,0
24576,note_off,,,,,384,0,5,,,,,4,,,58,0
24576,note_on,,,,,0,0,3,,,,,2,,,70,108
24576,note_off,,,,,384,0,3,,,,,2,,,73,0
24576,note_off,,,,,384,0,1,,,,,0,,,73,0
24576,note_on,,,,,0,0,5,,,,,4,,,66,92
24576,note_on,,,,,0,0,1,,,,,0,,,70,92
24576,note_off,,,,,384,0,2,,,,,1,,,73,0
24576,note_on,,,,,64,0,8,,,,,7,,,66,60
24576,note_on,,,,,0,0,4,,,,,3,,,70,108
24576,note_off,,,,,384,0,4,,,,,3,,,73,0
24576,note_on,,,,,0,0,2,,,,,1,,,70,92
24864,note_off,,,,,672,0,9,,,,,8,,,54,0
24896,note_off,,,,,320,0,8,,,,,7,,,66,0
24960,note_on,,,,,0,0,2,,,,,1,,,71,92
24960,note_off,,,,,384,0,3,,,,,2,,,70,0
24960,note_off,,,,,384,0,5,,,,,4,,,66,0
24960,note_on,,,,,0,0,5,,,,,4,,,63,92
24960,note_off,,,,,768,0,6,,,,,5,,,54,0
24960,note_off,,,,,384,0,1,,,,,0,,,70,0
24960,note_off,,,,,384,0,2,,,,,1,,,70,0
24960,note_on,,,,,96,0,9,,,,,8,,,56,60
24960,note_on,,,,,0,0,4,,,,,3,,,71,108
24960,note_on,,,,,0,0,3,,,,,2,,,71,108
24960,note_on,,,,,0,0,1,,,,,0,,,71,92
24960,note_off,,,,,768,0,7,,,,,6,,,54,0
24960,note_on,,,,,64,0,8,,,,,7,,,63,60
24960,note_on,,,,,0,0,6,,,,,5,,,56,92
24960,note_off,,,,,384,0,4,,,,,3,,,70,0
24960,note_on,,,,,0,0,7,,,,,6,,,56,92
25280,note_off,,,,,320,0,8,,,,,7,,,63,0
25280,note_off,,,,,320,0,9,,,,,8,,,56,0
25344,note_on,,,,,64,0,9,,,,,8,,,52,60
25344,note_off,,,,,384,0,1,,,,,0,,,71,0
25344,note_off,,,,,384,0,2,,,,,1,,,71,0
25344,note_on,,,,,0,0,4,,,,,3,,,76,108
25344,note_on,,,,,0,0,2,,,,,1,,,76,92
25344,note_on,,,,,0,0,1,,,,,0,,,76,92
25344,note_off,,,,,384,0,4,,,,,3,,,71,0
25344,note_off,,,,,384,0,6,,,,,5,,,56,0
25344,note_on,,,,,0,0,6,,,,,5,,,52,92
25344,note_on,,,,,64,0,8,,,,,7,,,68,60
25344,note_off,,,,,384,0,7,,,,,6,,,56,0
25344,note_off,,,,,384,0,3,,,,,2,,,71,0
25344,note_on,,,,,0,0,3,,,,,2,,,76,108
25344,note_on,,,,,0,0,7,,,,,6,,,52,92
25344,note_on,,,,,0,0,5,,,,,4,,,68,92
25344,note_off,,,,,384,0,5,,,,,4,,,63,0
25664,note_off,,,,,320,0,8,,,,,7,,,68,0
25664,note_off,,,,,320,0,9,,,,,8,,,52,0
25728,note_off,,,,,384,0,3,,,,,2,,,76,0
25728,note_on,,,,,0,0,7,,,,,6,,,54,92
25728,note_on,,,,,0,0,3,,,,,2,,,75,108
25728,note_on,,,,,0,0,2,,,,,1,,,73,92
25728,note_on,,,,,0,0,4,,,,,3,,,73,108
25728,note_off,,,,,384,0,4,,,,,3,,,76,0
25728,note_on,,,,,0,0,6,,,,,5,,,54,92
25728,note_off,,,,,384,0,2,,,,,1,,,76,0
25728,note_off,,,,,384,0,7,,,,,6,,,52,0
25728,note_off,,,,,384,0,6,,,,,5,,,52,0
25728,note_on,,,,,0,0,5,,,,,4,,,70,92
25728,note_on,,,,,64,0,8,,,,,7,,,66,60
25728,note_on,,,,,64,0,9,,,,,8,,,54,60
25728,note_off,,,,,384,0,5,,,,,4,,,68,0
25728,note_on,,,,,0,0,1,,,,,0,,,75,92
25728,note_off,,,,,384,0,1,,,,,0,,,76,0
25776,note_off,,,,,48,0,8,,,,,7,,,66,0
25776,note_on,,,,,0,0,8,,,,,7,,,64,60
25776,note_off,,,,,48,0,1,,,,,0,,,75,0
25776,note_on,,,,,0,0,1,,,,,0,,,73,92
25776,note_off,,,,,48,0,3,,,,,2,,,75,0
25776,note_on,,,,,0,0,3,,,,,2,,,73,108
25824,note_off,,,,,48,0,1,,,,,0,,,73,0
25824,note_off,,,,,48,0,3,,,,,2,,,73,0
25824,note_off,,,,,48,0,8,,,,,7,,,64,0
25824,note_on,,,,,0,0,8,,,,,7,,,66,60
25824,note_on,,,,,0,0,3,,,,,2,,,75,108
25824,note_on,,,,,0,0,1,,,,,0,,,75,92
25872,note_off,,,,,48,0,3,,,,,2,,,75,0
25872,note_on,,,,,0,0,1,,,,,0,,,73,92
25872,note_on,,,,,0,0,8,,,,,7,,,64,60
25872,note_on,,,,,0,0,3,,,,,2,,,73,108
25872,note_off,,,,,48,0,1,,,,,0,,,75,0
25872,note_off,,,,,48,0,8,,,,,7,,,66,0
25920,note_on,,,,,0,0,1,,,,,0,,,75,92
25920,note_off,,,,,48,0,3,,,,,2,,,73,0
25920,note_off,,,,,48,0,1,,,,,0,,,73,0
25920,note_on,,,,,0,0,3,,,,,2,,,75,108
25920,note_on,,,,,0,0,8,,,,,7,,,66,60
25920,note_off,,,,,48,0,8,,,,,7,,,64,0
25968,note_off,,,,,48,0,1,,,,,0,,,75,0
25968,note_off,,,,,48,0,3,,,,,2,,,75,0
25968,note_on,,,,,0,0,3,,,,,2,,,73,108
25968,note_off,,,,,48,0,8,,,,,7,,,66,0
25968,note_on,,,,,0,0,1,,,,,0,,,73,92
25968,note_on,,,,,0,0,8,,,,,7,,,64,60
26016,note_off,,,,,48,0,3,,,,,2,,,73,0
26016,note_on,,,,,0,0,1,,,,,0,,,75,92
26016,note_on,,,,,0,0,3,,,,,2,,,75,108
26016,note_on,,,,,0,0,8,,,,,7,,,66,60
26016,note_off,,,,,48,0,1,,,,,0,,,73,0
26016,note_off,,,,,48,0,8,,,,,7,,,64,0
26048,note_off,,,,,320,0,9,,,,,8,,,54,0
26064,note_off,,,,,48,0,3,,,,,2,,,75,0
26064,note_on,,,,,0,0,3,,,,,2,,,73,108
26064,note_off,,,,,48,0,8,,,,,7,,,66,0
26064,note_on,,,,,0,0,1,,,,,0,,,73,92
26064,note_off,,,,,48,0,1,,,,,0,,,75,0
26064,note_on,,,,,0,0,8,,,,,7,,,64,60
26112,note_off,,,,,384,0,6,,,,,5,,,54,0
26112,note_off,,,,,384,0,7,,,,,6,,,54,0
26112,note_on,,,,,0,0,1,,,,,0,,,75,92
26112,note_off,,,,,48,0,1,,,,,0,,,73,0
26112,note_on,,,,,64,0,9,,,,,8,,,42,60
26112,note_on,,,,,0,0,3,,,,,2,,,75,108
26112,note_off,,,,,48,0,3,,,,,2,,,73,0
26112,note_on,,,,,0,0,5,,,,,4,,,64,92
26112,note_off,,,,,384,0,5,,,,,4,,,70,0
26112,note_on,,,,,0,0,8,,,,,7,,,66,60
26112,note_off,,,,,48,0,8,,,,,7,,,64,0
26112,note_on,,,,,0,0,6,,,,,5,,,42,92
26112,note_on,,,,,0,0,7,,,,,6,,,42,92
26160,note_on,,,,,0,0,3,,,,,2,,,73,108
26160,note_off,,,,,48,0,8,,,,,7,,,66,0
26160,note_off,,,,,48,0,1,,,,,0,,,75,0
26160,note_on,,,,,0,0,1,,,,,0,,,73,92
26160,note_off,,,,,48,0,3,,,,,2,,,75,0
26160,note_on,,,,,0,0,8,,,,,7,,,64,60
26300,note_off,,,,,140,0,8,,,,,7,,,64,0
26304,note_off,,,,,144,0,3,,,,,2,,,73,0
26304,note_off,,,,,144,0,1,,,,,0,,,73,0
26304,note_on,,,,,0,0,1,,,,,0,,,71,92
26304,note_off,,,,,576,0,2,,,,,1,,,73,0
26304,note_on,,,,,0,0,3,,,,,2,,,71,108
26304,note_off,,,,,576,0,4,,,,,3,,,73,0
26304,note_on,,,,,0,0,2,,,,,1,,,71,92
26304,note_on,,,,,0,0,4,,,,,3,,,71,108
26304,note_on,,,,,4,0,8,,,,,7,,,64,60
26432,note_off,,,,,320,0,9,,,,,8,,,42,0
26492,note_off,,,,,188,0,8,,,,,7,,,64,0
26496,note_on,,,,,0,0,2,,,,,1,,,71,92
26496,note_on,,,,,0,0,5,,,,,4,,,63,92
26496,note_off,,,,,384,0,5,,,,,4,,,64,0
26496,note_off,,,,,384,0,6,,,,,5,,,42,0
26496,note_off,,,,,192,0,3,,,,,2,,,71,0
26496,note_on,,,,,0,0,3,,,,,2,,,71,108
26496,note_off,,,,,192,0,1,,,,,0,,,71,0
26496,note_on,,,,,0,0,6,,,,,5,,,47,92
26496,note_off,,,,,192,0,4,,,,,3,,,71,0
26496,note_off,,,,,384,0,7,,,,,6,,,42,0
26496,note_on,,,,,4,0,8,,,,,7,,,63,60
26496,note_on,,,,,64,0,9,,,,,8,,,47,60
26496,note_off,,,,,192,0,2,,,,,1,,,71,0
26496,note_on,,,,,0,0,1,,,,,0,,,71,92
26496,note_on,,,,,0,0,7,,,,,6,,,47,92
26496,note_on,,,,,0,0,4,,,,,3,,,71,108
26816,note_off,,,,,320,0,9,,,,,8,,,47,0
26816,note_off,,,,,320,0,8,,,,,7,,,63,0
26880,note_on,,,,,64,0,9,,,,,8,,,51,60
26880,note_on,,,,,0,0,5,,,,,4,,,66,92
26880,note_off,,,,,384,0,5,,,,,4,,,63,0
26880,note_off,,,,,384,0,7,,,,,6,,,47,0
26880,note_on,,,,,64,0,8,,,,,7,,,66,60
26880,note_on,,,,,0,0,6,,,,,5,,,51,92
26880,note_off,,,,,384,0,6,,,,,5,,,47,0
26880,note_on,,,,,0,0,7,,,,,6,,,51,92
27200,note_off,,,,,320,0,8,,,,,7,,,66,0
27200,note_off,,,,,320,0,9,,,,,8,,,51,0
27264,note_off,,,,,384,0,7,,,,,6,,,51,0
27264,note_on,,,,,0,0,7,,,,,6,,,47,92
27264,note_on,,,,,64,0,9,,,,,8,,,47,60
27264,note_on,,,,,64,0,8,,,,,7,,,63,60
27264,note_off,,,,,384,0,5,,,,,4,,,66,0
27264,note_on,,,,,0,0,5,,,,,4,,,63,92
27264,note_off,,,,,384,0,6,,,,,5,,,51,0
27264,note_on,,,,,0,0,6,,,,,5,,,47,92
27584,note_off,,,,,320,0,9,,,,,8,,,47,0
27584,note_off,,,,,320,0,8,,,,,7,,,63,0
27648,note_off,,,,,384,0,6,,,,,5,,,47,0
27648,note_off,,,,,384,0,5,,,,,4,,,63,0
27648,note_off,,,,,1152,0,4,,,,,3,,,71,0
27648,note_on,,,,,0,0,4,,,,,3,,,83,108
27648,note_off,,,,,1152,0,2,,,,,1,,,71,0
27648,note_off,,,,,1152,0,1,,,,,0,,,71,0
27648,note_on,,,,,0,0,1,,,,,0,,,83,92
27648,note_off,,,,,384,0,7,,,,,6,,,47,0
27648,note_off,,,,,1152,0,3,,,,,2,,,71,0
27648,note_on,,,,,0,0,3,,,,,2,,,83,108
27648,note_on,,,,,0,0,2,,,,,1,,,83,92
28032,note_on,,,,,448,0,9,,,,,8,,,56,60
28032,note_on,,,,,384,0,7,,,,,6,,,56,92
28032,note_on,,,,,384,0,6,,,,,5,,,56,92
28032,note_on,,,,,448,0,8,,,,,7,,,68,60
28032,note_on,,,,,384,0,5,,,,,4,,,68,92
28352,note_off,,,,,320,0,9,,,,,8,,,56,0
28352,note_off,,,,,320,0,8,,,,,7,,,68,0
28416,note_on,,,,,0,0,7,,,,,6,,,59,92
28416,note_off,,,,,384,0,5,,,,,4,,,68,0
28416,note_on,,,,,0,0,5,,,,,4,,,63,92
28416,note_on,,,,,64,0,9,,,,,8,,,59,60
28416,note_off,,,,,384,0,6,,,,,5,,,56,0
28416,note_on,,,,,0,0,6,,,,,5,,,59,92
28416,note_on,,,,,64,0,8,,,,,7,,,63,60
28416,note_off,,,,,384,0,7,,,,,6,,,56,0
28736,note_off,,,,,320,0,8,,,,,7,,,63,0
28736,note_off,,,,,320,0,9,,,,,8,,,59,0
28800,note_off,,,,,1152,0,3,,,,,2,,,83,0
28800,note_on,,,,,0,0,5,,,,,4,,,68,92
28800,note_off,,,,,384,0,5,,,,,4,,,63,0
28800,note_on,,,,,64,0,9,,,,,8,,,61,60
28800,note_on,,,,,0,0,2,,,,,1,,,76,92
28800,note_off,,,,,1152,0,2,,,,,1,,,83,0
28800,note_on,,,,,0,0,3,,,,,2,,,76,108
28800,note_on,,,,,0,0,6,,,,,5,,,61,92
28800,note_on,,,,,0,0,7,,,,,6,,,61,92
28800,note_off,,,,,384,0,6,,,,,5,,,59,0
28800,note_off,,,,,1152,0,4,,,,,3,,,83,0
28800,note_on,,,,,0,0,1,,,,,0,,,76,92
28800,note_off,,,,,1152,0,1,,,,,0,,,83,0
28800,note_on,,,,,64,0,8,,,,,7,,,68,60
28800,note_on,,,,,0,0,4,,,,,3,,,76,108
28800,note_off,,,,,384,0,7,,,,,6,,,59,0
29120,note_off,,,,,320,0,9,,,,,8,,,61,0
29120,note_off,,,,,320,0,8,,,,,7,,,68,0
29184,note_on,,,,,64,0,9,,,,,8,,,52,60
29184,note_on,,,,,0,0,6,,,,,5,,,52,92
29184,note_off,,,,,384,0,6,,,,,5,,,61,0
29184,note_on,,,,,64,0,8,,,,,7,,,61,60
29184,note_on,,,,,0,0,5,,,,,4,,,61,92
29184,note_off,,,,,384,0,5,,,,,4,,,68,0
29184,note_off,,,,,384,0,7,,,,,6,,,61,0
29184,note_on,,,,,0,0,7,,,,,6,,,52,92
29504,note_off,,,,,320,0,8,,,,,7,,,61,0
29504,note_off,,,,,320,0,9,,,,,8,,,52,0
29568,note_on,,,,,0,0,5,,,,,4,,,64,92
29568,note_off,,,,,384,0,6,,,,,5,,,52,0
29568,note_on,,,,,0,0,6,,,,,5,,,49,92
29568,note_on,,,,,64,0,9,,,,,8,,,49,60
29568,note_on,,,,,64,0,8,,,,,7,,,64,60
29568,note_off,,,,,384,0,5,,,,,4,,,61,0
29568,note_off,,,,,384,0,7,,,,,6,,,52,0
29568,note_on,,,,,0,0,7,,,,,6,,,49,92
29888,note_off,,,,,320,0,9,,,,,8,,,49,0
29888,note_off,,,,,320,0,8,,,,,7,,,64,0
29952,note_on,,,,,0,0,5,,,,,4,,,73,92
29952,note_off,,,,,1152,0,2,,,,,1,,,76,0
29952,note_off,,,,,384,0,7,,,,,6,,,49,0
29952,note_on,,,,,0,0,2,,,,,1,,,81,92
29952,note_off,,,,,384,0,5,,,,,4,,,64,0
29952,note_on,,,,,64,0,9,,,,,8,,,54,60
29952,note_on,,,,,0,0,7,,,,,6,,,54,92
29952,note_off,,,,,1152,0,4,,,,,3,,,76,0
29952,note_off,,,,,384,0,6,,,,,5,,,49,0
29952,note_off,,,,,1152,0,3,,,,,2,,,76,0
29952,note_on,,,,,0,0,6,,,,,5,,,54,92
29952,note_on,,,,,0,0,3,,,,,2,,,81,108
29952,note_on,,,,,0,0,4,,,,,3,,,81,108
29952,note_on,,,,,64,0,8,,,,,7,,,73,60
29952,note_on,,,,,0,0,1,,,,,0,,,81,92
29952,note_off,,,,,1152,0,1,,,,,0,,,76,0
30272,note_off,,,,,320,0,9,,,,,8,,,54,0
30336,note_on,,,,,64,0,9,,,,,8,,,56,60
30336,note_on,,,,,0,0,6,,,,,5,,,56,92
30336,note_off,,,,,384,0,6,,,,,5,,,54,0
30336,note_off,,,,,384,0,7,,,,,6,,,54,0
30336,note_on,,,,,0,0,7,,,,,6,,,56,92
30464,note_off,,,,,512,0,8,,,,,7,,,73,0
30528,note_on,,,,,64,0,8,,,,,7,,,71,60
30528,note_off,,,,,576,0,5,,,,,4,,,73,0
30528,note_on,,,,,0,0,5,,,,,4,,,71,92
30656,note_off,,,,,320,0,9,,,,,8,,,56,0
30716,note_off,,,,,188,0,8,,,,,7,,,71,0
30720,note_on,,,,,0,0,7,,,,,6,,,57,92
30720,note_on,,,,,4,0,8,,,,,7,,,66,60
30720,note_off,,,,,768,0,2,,,,,1,,,81,0
30720,note_off,,,,,192,0,5,,,,,4,,,71,0
30720,note_on,,,,,0,0,3,,,,,2,,,78,108
30720,note_on,,,,,64,0,9,,,,,8,,,57,60
30720,note_on,,,,,0,0,8,,,,,7,,,69,60
30720,note_off,,,,,768,0,3,,,,,2,,,81,0
30720,note_on,,,,,0,0,5,,,,,4,,,69,92
30720,note_on,,,,,0,0,2,,,,,1,,,78,92
30720,note_on,,,,,0,0,4,,,,,3,,,78,108
30720,note_off,,,,,768,0,1,,,,,0,,,81,0
30720,note_on,,,,,0,0,1,,,,,0,,,78,92
30720,note_off,,,,,384,0,7,,,,,6,,,56,0
30720,note_off,,,,,768,0,4,,,,,3,,,81,0
30720,note_off,,,,,384,0,6,,,,,5,,,56,0
30720,note_on,,,,,0,0,6,,,,,5,,,57,92
30908,note_off,,,,,188,0,8,,,,,7,,,69,0
30912,note_on,,,,,0,0,5,,,,,4,,,68,92
30912,note_on,,,,,4,0,8,,,,,7,,,68,60
30912,note_off,,,,,192,0,5,,,,,4,,,69,0
31040,note_off,,,,,128,0,8,,,,,7,,,66,0
31040,note_off,,,,,320,0,9,,,,,8,,,57,0
31100,note_off,,,,,60,0,8,,,,,7,,,68,0
31104,note_off,,,,,384,0,3,,,,,2,,,78,0
31104,note_off,,,,,384,0,6,,,,,5,,,57,0
31104,note_on,,,,,0,0,6,,,,,5,,,59,92
31104,note_on,,,,,4,0,8,,,,,7,,,66,60
31104,note_on,,,,,0,0,1,,,,,0,,,75,92
31104,note_on,,,,,64,0,9,,,,,8,,,59,60
31104,note_off,,,,,384,0,1,,,,,0,,,78,0
31104,note_off,,,,,192,0,5,,,,,4,,,68,0
31104,note_on,,,,,0,0,3,,,,,2,,,75,108
31104,note_on,,,,,0,0,5,,,,,4,,,66,92
31104,note_on,,,,,0,0,2,,,,,1,,,75,92
31104,note_off,,,,,384,0,4,,,,,3,,,78,0
31104,note_on,,,,,0,0,4,,,,,3,,,75,108
31104,note_off,,,,,384,0,7,,,,,6,,,57,0
31104,note_off,,,,,384,0,2,,,,,1,,,78,0
31104,note_on,,,,,0,0,7,,,,,6,,,59,92
31424,note_off,,,,,320,0,9,,,,,8,,,59,0
31488,note_on,,,,,64,0,9,,,,,8,,,61,60
31488,note_off,,,,,384,0,7,,,,,6,,,59,0
31488,note_on,,,,,0,0,7,,,,,6,,,61,92
31488,note_off,,,,,384,0,6,,,,,5,,,59,0
31488,note_on,,,,,0,0,6,,,,,5,,,61,92
31680,note_on,,,,,0,0,1,,,,,0,,,73,92
31680,note_off,,,,,576,0,3,,,,,2,,,75,0
31680,note_on,,,,,0,0,3,,,,,2,,,73,108
31680,note_on,,,,,0,0,4,,,,,3,,,73,108
31680,note_off,,,,,576,0,1,,,,,0,,,75,0
31680,note_off,,,,,576,0,4,,,,,3,,,75,0
31680,note_on,,,,,0,0,2,,,,,1,,,73,92
31680,note_off,,,,,576,0,2,,,,,1,,,75,0
31776,note_off,,,,,672,0,8,,,,,7,,,66,0
31808,note_off,,,,,320,0,9,,,,,8,,,61,0
31872,note_on,,,,,0,0,6,,,,,5,,,63,92
31872,note_on,,,,,0,0,2,,,,,1,,,71,92
31872,note_on,,,,,64,0,9,,,,,8,,,63,60
31872,note_off,,,,,384,0,6,,,,,5,,,61,0
31872,note_on,,,,,0,0,8,,,,,7,,,71,60
31872,note_on,,,,,0,0,4,,,,,3,,,71,108
31872,note_off,,,,,384,0,7,,,,,6,,,61,0
31872,note_on,,,,,0,0,1,,,,,0,,,71,92
31872,note_on,,,,,96,0,8,,,,,7,,,66,60
31872,note_off,,,,,192,0,4,,,,,3,,,73,0
31872,note_on,,,,,0,0,5,,,,,4,,,66,92
31872,note_off,,,,,768,0,5,,,,,4,,,66,0
31872,note_off,,,,,192,0,2,,,,,1,,,73,0
31872,note_on,,,,,0,0,3,,,,,2,,,71,108
31872,note_off,,,,,192,0,3,,,,,2,,,73,0
31872,note_off,,,,,192,0,1,,,,,0,,,73,0
31872,note_on,,,,,0,0,7,,,,,6,,,63,92
32192,note_off,,,,,0,0,8,,,,,7,,,71,0
32192,note_off,,,,,320,0,8,,,,,7,,,66,0
32192,note_off,,,,,320,0,9,,,,,8,,,63,0
32256,note_off,,,,,384,0,4,,,,,3,,,71,0
32256,note_off,,,,,384,0,2,,,,,1,,,71,0
32256,note_on,,,,,0,0,5,,,,,4,,,71,92
32256,note_off,,,,,384,0,6,,,,,5,,,63,0
32256,note_off,,,,,384,0,1,,,,,0,,,71,0
32256,note_on,,,,,0,0,1,,,,,0,,,80,92
32256,note_on,,,,,0,0,3,,,,,2,,,80,108
32256,note_off,,,,,384,0,3,,,,,2,,,71,0
32256,note_on,,,,,0,0,6,,,,,5,,,64,92
32256,note_on,,,,,64,0,8,,,,,7,,,71,60
32256,note_on,,,,,0,0,4,,,,,3,,,80,108
32256,note_on,,,,,64,0,9,,,,,8,,,64,60
32256,note_on,,,,,0,0,2,,,,,1,,,80,92
32256,note_off,,,,,384,0,7,,,,,6,,,63,0
32256,note_on,,,,,0,0,7,,,,,6,,,64,92
32256,note_off,,,,,384,0,5,,,,,4,,,66,0
32576,note_off,,,,,320,0,8,,,,,7,,,71,0
32640,note_off,,,,,384,0,3,,,,,2,,,80,0
32640,note_off,,,,,384,0,1,,,,,0,,,80,0
32640,note_off,,,,,384,0,4,,,,,3,,,80,0
32640,note_on,,,,,0,0,3,,,,,2,,,76,108
32640,note_off,,,,,384,0,5,,,,,4,,,71,0
32640,note_on,,,,,0,0,5,,,,,4,,,68,92
32640,note_on,,,,,0,0,2,,,,,1,,,76,92
32640,note_on,,,,,64,0,8,,,,,7,,,68,60
32640,note_on,,,,,0,0,1,,,,,0,,,76,92
32640,note_on,,,,,0,0,4,,,,,3,,,76,108
32640,note_off,,,,,384,0,2,,,,,1,,,80,0
32928,note_off,,,,,672,0,9,,,,,8,,,64,0
33024,note_on,,,,,0,0,7,,,,,6,,,52,92
33024,note_off,,,,,768,0,7,,,,,6,,,64,0
33024,note_on,,,,,0,0,4,,,,,3,,,73,108
33024,note_off,,,,,384,0,4,,,,,3,,,76,0
33024,note_on,,,,,0,0,3,,,,,2,,,73,108
33024,note_on,,,,,0,0,6,,,,,5,,,52,92
33024,note_off,,,,,384,0,1,,,,,0,,,76,0
33024,note_on,,,,,96,0,9,,,,,8,,,52,60
33024,note_on,,,,,0,0,9,,,,,8,,,61,60
33024,note_off,,,,,384,0,3,,,,,2,,,76,0
33024,note_on,,,,,0,0,2,,,,,1,,,73,92
33024,note_off,,,,,384,0,2,,,,,1,,,76,0
33024,note_off,,,,,768,0,6,,,,,5,,,64,0
33024,note_on,,,,,0,0,1,,,,,0,,,73,92
33312,note_off,,,,,672,0,8,,,,,7,,,68,0
33344,note_off,,,,,320,0,9,,,,,8,,,52,0
33344,note_off,,,,,0,0,9,,,,,8,,,61,0
33408,note_on,,,,,0,0,4,,,,,3,,,81,108
33408,note_on,,,,,0,0,7,,,,,6,,,54,92
33408,note_on,,,,,0,0,3,,,,,2,,,81,108
33408,note_off,,,,,384,0,7,,,,,6,,,52,0
33408,note_on,,,,,0,0,5,,,,,4,,,61,92
33408,note_off,,,,,768,0,5,,,,,4,,,68,0
33408,note_on,,,,,0,0,1,,,,,0,,,81,92
33408,note_off,,,,,384,0,4,,,,,3,,,73,0
33408,note_off,,,,,384,0,3,,,,,2,,,73,0
33408,note_on,,,,,0,0,6,,,,,5,,,54,92
33408,note_off,,,,,384,0,6,,,,,5,,,52,0
33408,note_on,,,,,64,0,9,,,,,8,,,54,60
33408,note_off,,,,,384,0,2,,,,,1,,,73,0
33408,note_on,,,,,96,0,8,,,,,7,,,61,60
33408,note_off,,,,,384,0,1,,,,,0,,,73,0
33408,note_on,,,,,0,0,2,,,,,1,,,81,92
33728,note_off,,,,,320,0,8,,,,,7,,,61,0
33728,note_off,,,,,320,0,9,,,,,8,,,54,0
33792,note_on,,,,,0,0,3,,,,,2,,,80,108
33792,note_on,,,,,0,0,6,,,,,5,,,56,92
33792,note_off,,,,,384,0,3,,,,,2,,,81,0
33792,note_off,,,,,384,0,6,,,,,5,,,54,0
33792,note_on,,,,,64,0,9,,,,,8,,,56,60
33792,note_on,,,,,0,0,1,,,,,0,,,80,92
33792,note_off,,,,,384,0,1,,,,,0,,,81,0
33792,note_on,,,,,0,0,4,,,,,3,,,80,108
33792,note_off,,,,,384,0,5,,,,,4,,,61,0
33792,note_on,,,,,0,0,5,,,,,4,,,72,92
33792,note_on,,,,,64,0,8,,,,,7,,,72,60
33792,note_off,,,,,384,0,7,,,,,6,,,54,0
33792,note_off,,,,,384,0,4,,,,,3,,,81,0
33792,note_on,,,,,0,0,7,,,,,6,,,56,92
33792,note_off,,,,,384,0,2,,,,,1,,,81,0
33792,note_on,,,,,0,0,2,,,,,1,,,80,92
34112,note_off,,,,,320,0,9,,,,,8,,,56,0
34112,note_off,,,,,320,0,8,,,,,7,,,72,0
34176,note_on,,,,,64,0,9,,,,,8,,,57,60
34176,note_off,,,,,384,0,6,,,,,5,,,56,0
34176,note_on,,,,,0,0,2,,,,,1,,,78,92
34176,note_on,,,,,0,0,6,,,,,5,,,57,92
34176,note_on,,,,,0,0,4,,,,,3,,,78,108
34176,note_off,,,,,384,0,4,,,,,3,,,80,0
34176,note_off,,,,,384,0,5,,,,,4,,,72,0
34176,note_on,,,,,0,0,5,,,,,4,,,73,92
34176,note_on,,,,,0,0,8,,,,,7,,,73,60
34176,note_on,,,,,0,0,7,,,,,6,,,57,92
34176,note_on,,,,,0,0,3,,,,,2,,,78,108
34176,note_off,,,,,384,0,3,,,,,2,,,80,0
34176,note_off,,,,,384,0,2,,,,,1,,,80,0
34176,note_on,,,,,64,0,8,,,,,7,,,66,60
34176,note_off,,,,,384,0,7,,,,,6,,,56,0
34176,note_on,,,,,0,0,1,,,,,0,,,78,92
34176,note_off,,,,,384,0,1,,,,,0,,,80,0
34496,note_off,,,,,0,0,8,,,,,7,,,73,0
34496,note_off,,,,,320,0,8,,,,,7,,,66,0
34496,note_off,,,,,320,0,9,,,,,8,,,57,0
34560,note_on,,,,,0,0,7,,,,,6,,,54,92
34560,note_off,,,,,384,0,7,,,,,6,,,57,0
34560,note_off,,,,,384,0,5,,,,,4,,,73,0
34560,note_on,,,,,0,0,5,,,,,4,,,61,92
34560,note_on,,,,,0,0,3,,,,,2,,,76,108
34560,note_off,,,,,384,0,3,,,,,2,,,78,0
34560,note_on,,,,,64,0,9,,,,,8,,,54,60
34560,note_on,,,,,0,0,6,,,,,5,,,54,92
34560,note_on,,,,,0,0,2,,,,,1,,,76,92
34560,note_off,,,,,384,0,2,,,,,1,,,78,0
34560,note_off,,,,,384,0,4,,,,,3,,,78,0
34560,note_off,,,,,384,0,6,,,,,5,,,57,0
34560,note_on,,,,,0,0,8,,,,,7,,,64,60
34560,note_on,,,,,64,0,8,,,,,7,,,61,60
34560,note_on,,,,,0,0,4,,,,,3,,,76,108
34560,note_on,,,,,0,0,1,,,,,0,,,76,92
34560,note_off,,,,,384,0,1,,,,,0,,,78,0
34752,note_off,,,,,192,0,4,,,,,3,,,76,0
34752,note_on,,,,,0,0,1,,,,,0,,,75,92
34752,note_on,,,,,0,0,3,,,,,2,,,75,108
34752,note_off,,,,,192,0,3,,,,,2,,,76,0
34752,note_off,,,,,192,0,1,,,,,0,,,76,0
34752,note_off,,,,,192,0,2,,,,,1,,,76,0
34752,note_on,,,,,0,0,4,,,,,3,,,75,108
34752,note_on,,,,,0,0,2,,,,,1,,,75,92
34880,note_off,,,,,320,0,9,,,,,8,,,54,0
34944,note_on,,,,,0,0,7,,,,,6,,,56,92
34944,note_off,,,,,192,0,3,,,,,2,,,75,0
34944,note_off,,,,,384,0,7,,,,,6,,,54,0
34944,note_on,,,,,0,0,1,,,,,0,,,76,92
34944,note_off,,,,,192,0,1,,,,,0,,,75,0
34944,note_off,,,,,192,0,2,,,,,1,,,75,0
34944,note_on,,,,,0,0,2,,,,,1,,,75,92
34944,note_off,,,,,384,0,6,,,,,5,,,54,0
34944,note_on,,,,,0,0,9,,,,,8,,,61,60
34944,note_on,,,,,64,0,9,,,,,8,,,56,60
34944,note_on,,,,,0,0,4,,,,,3,,,75,108
34944,note_on,,,,,0,0,6,,,,,5,,,56,92
34944,note_on,,,,,0,0,3,,,,,2,,,76,108
34944,note_off,,,,,192,0,4,,,,,3,,,75,0
34992,note_off,,,,,48,0,1,,,,,0,,,76,0
34992,note_off,,,,,48,0,3,,,,,2,,,76,0
34992,note_on,,,,,0,0,1,,,,,0,,,75,92
34992,note_on,,,,,0,0,3,,,,,2,,,75,108
35040,note_off,,,,,48,0,3,,,,,2,,,75,0
35040,note_off,,,,,48,0,1,,,,,0,,,75,0
35040,note_on,,,,,0,0,1,,,,,0,,,76,92
35040,note_on,,,,,0,0,3,,,,,2,,,76,108
35088,note_off,,,,,48,0,1,,,,,0,,,76,0
35088,note_off,,,,,48,0,3,,,,,2,,,76,0
35088,note_on,,,,,0,0,3,,,,,2,,,75,108
35088,note_on,,,,,0,0,1,,,,,0,,,75,92
35136,note_on,,,,,0,0,1,,,,,0,,,76,92
35136,note_on,,,,,0,0,3,,,,,2,,,76,108
35136,note_off,,,,,48,0,3,,,,,2,,,75,0
35136,note_off,,,,,48,0,1,,,,,0,,,75,0
35184,note_on,,,,,0,0,1,,,,,0,,,75,92
35184,note_off,,,,,48,0,1,,,,,0,,,76,0
35184,note_on,,,,,0,0,3,,,,,2,,,75,108
35184,note_off,,,,,48,0,3,,,,,2,,,76,0
35232,note_on,,,,,0,0,1,,,,,0,,,76,92
35232,note_off,,,,,48,0,1,,,,,0,,,75,0
35232,note_on,,,,,0,0,3,,,,,2,,,76,108
35232,note_off,,,,,48,0,3,,,,,2,,,75,0
35232,note_off,,,,,0,0,8,,,,,7,,,64,0
35232,note_off,,,,,672,0,8,,,,,7,,,61,0
35264,note_off,,,,,320,0,9,,,,,8,,,56,0
35264,note_off,,,,,0,0,9,,,,,8,,,61,0
35280,note_off,,,,,48,0,3,,,,,2,,,76,0
35280,note_on,,,,,0,0,3,,,,,2,,,75,108
35280,note_off,,,,,48,0,1,,,,,0,,,76,0
35280,note_on,,,,,0,0,1,,,,,0,,,75,92
35328,note_on,,,,,96,0,8,,,,,7,,,60,60
35328,note_on,,,,,0,0,6,,,,,5,,,44,92
35328,note_on,,,,,0,0,1,,,,,0,,,76,92
35328,note_on,,,,,0,0,7,,,,,6,,,44,92
35328,note_on,,,,,0,0,5,,,,,4,,,60,92
35328,note_off,,,,,48,0,1,,,,,0,,,75,0
35328,note_off,,,,,768,0,5,,,,,4,,,61,0
35328,note_off,,,,,384,0,7,,,,,6,,,56,0
35328,note_off,,,,,48,0,3,,,,,2,,,75,0
35328,note_on,,,,,0,0,3,,,,,2,,,76,108
35328,note_on,,,,,64,0,9,,,,,8,,,44,60
35328,note_off,,,,,384,0,6,,,,,5,,,56,0
35376,note_off,,,,,48,0,3,,,,,2,,,76,0
35376,note_off,,,,,48,0,1,,,,,0,,,76,0
35376,note_on,,,,,0,0,3,,,,,2,,,75,108
35376,note_on,,,,,0,0,1,,,,,0,,,75,92
35520,note_off,,,,,576,0,2,,,,,1,,,75,0
35520,note_off,,,,,144,0,3,,,,,2,,,75,0
35520,note_on,,,,,0,0,3,,,,,2,,,73,108
35520,note_on,,,,,0,0,2,,,,,1,,,73,92
35520,note_on,,,,,0,0,1,,,,,0,,,73,92
35520,note_on,,,,,0,0,4,,,,,3,,,73,108
35520,note_off,,,,,576,0,4,,,,,3,,,75,0
35520,note_off,,,,,144,0,1,,,,,0,,,75,0
35648,note_off,,,,,320,0,8,,,,,7,,,60,0
35648,note_off,,,,,320,0,9,,,,,8,,,44,0
35712,note_off,,,,,192,0,4,,,,,3,,,73,0
35712,note_on,,,,,0,0,2,,,,,1,,,73,92
35712,note_on,,,,,64,0,9,,,,,8,,,49,60
35712,note_on,,,,,0,0,3,,,,,2,,,73,108
35712,note_off,,,,,192,0,3,,,,,2,,,73,0
35712,note_off,,,,,192,0,2,,,,,1,,,73,0
35712,note_on,,,,,0,0,4,,,,,3,,,73,108
35712,note_on,,,,,64,0,8,,,,,7,,,64,60
35712,note_on,,,,,0,0,5,,,,,4,,,64,92
35712,note_off,,,,,384,0,5,,,,,4,,,60,0
35712,note_off,,,,,384,0,7,,,,,6,,,44,0
35712,note_on,,,,,0,0,6,,,,,5,,,49,92
35712,note_off,,,,,384,0,6,,,,,5,,,44,0
35712,note_off,,,,,192,0,1,,,,,0,,,73,0
35712,note_on,,,,,0,0,1,,,,,0,,,73,92
35712,note_on,,,,,0,0,7,,,,,6,,,49,92
36032,note_off,,,,,320,0,8,,,,,7,,,64,0
36032,note_off,,,,,320,0,9,,,,,8,,,49,0
36096,note_on,,,,,64,0,9,,,,,8,,,52,60
36096,note_on,,,,,0,0,7,,,,,6,,,52,92
36096,note_off,,,,,384,0,7,,,,,6,,,49,0
36096,note_off,,,,,384,0,5,,,,,4,,,64,0
36096,note_on,,,,,64,0,8,,,,,7,,,68,60
36096,note_on,,,,,0,0,5,,,,,4,,,68,92
36096,note_off,,,,,384,0,6,,,,,5,,,49,0
36096,note_on,,,,,0,0,6,,,,,5,,,52,92
36416,note_off,,,,,320,0,9,,,,,8,,,52,0
36416,note_off,,,,,320,0,8,,,,,7,,,68,0
36480,note_off,,,,,384,0,7,,,,,6,,,52,0
36480,note_on,,,,,0,0,7,,,,,6,,,49,92
36480,note_on,,,,,64,0,9,,,,,8,,,49,60
36480,note_on,,,,,0,0,6,,,,,5,,,49,92
36480,note_off,,,,,384,0,5,,,,,4,,,68,0
36480,note_off,,,,,384,0,6,,,,,5,,,52,0
36480,note_on,,,,,64,0,8,,,,,7,,,64,60
36480,note_on,,,,,0,0,5,,,,,4,,,64,92
36800,note_off,,,,,320,0,9,,,,,8,,,49,0
36800,note_off,,,,,320,0,8,,,,,7,,,64,0
36864,note_off,,,,,384,0,5,,,,,4,,,64,0
36864,note_on,,,,,0,0,4,,,,,3,,,71,108
36864,note_off,,,,,1152,0,4,,,,,3,,,73,0
36864,note_on,,,,,0,0,6,,,,,5,,,56,92
36864,note_off,,,,,1152,0,2,,,,,1,,,73,0
36864,note_off,,,,,384,0,7,,,,,6,,,49,0
36864,note_on,,,,,0,0,7,,,,,6,,,56,92
36864,note_on,,,,,0,0,3,,,,,2,,,71,108
36864,note_on,,,,,0,0,9,,,,,8,,,63,60
36864,note_on,,,,,64,0,9,,,,,8,,,56,60
36864,note_on,,,,,0,0,2,,,,,1,,,71,92
36864,note_off,,,,,1152,0,1,,,,,0,,,73,0
36864,note_on,,,,,0,0,1,,,,,0,,,71,92
36864,note_off,,,,,384,0,6,,,,,5,,,49,0
36864,note_off,,,,,1152,0,3,,,,,2,,,73,0
37184,note_off,,,,,0,0,9,,,,,8,,,63,0
37184,note_off,,,,,320,0,9,,,,,8,,,56,0
37248,note_on,,,,,448,0,8,,,,,7,,,61,60
37248,note_on,,,,,384,0,5,,,,,4,,,61,92
37248,note_on,,,,,64,0,9,,,,,8,,,53,60
37248,note_on,,,,,0,0,6,,,,,5,,,53,92
37248,note_on,,,,,0,0,7,,,,,6,,,53,92
37248,note_off,,,,,384,0,7,,,,,6,,,56,0
37248,note_on,,,,,0,0,9,,,,,8,,,61,60
37248,note_off,,,,,384,0,6,,,,,5,,,56,0
37248,note_on,,,,,0,0,9,,,,,8,,,59,60
37568,note_off,,,,,320,0,8,,,,,7,,,61,0
37568,note_off,,,,,320,0,9,,,,,8,,,53,0
37568,note_off,,,,,0,0,9,,,,,8,,,61,0
37568,note_off,,,,,0,0,9,,,,,8,,,59,0
37632,note_on,,,,,64,0,8,,,,,7,,,65,60
37632,note_on,,,,,0,0,6,,,,,5,,,49,92
37632,note_off,,,,,384,0,6,,,,,5,,,53,0
37632,note_on,,,,,0,0,7,,,,,6,,,49,92
37632,note_off,,,,,384,0,7,,,,,6,,,53,0
37632,note_on,,,,,64,0,9,,,,,8,,,49,60
37632,note_on,,,,,0,0,5,,,,,4,,,65,92
37632,note_off,,,,,384,0,5,,,,,4,,,61,0
37952,note_off,,,,,320,0,9,,,,,8,,,49,0
37952,note_off,,,,,320,0,8,,,,,7,,,65,0
38016,note_off,,,,,1152,0,3,,,,,2,,,71,0
38016,note_on,,,,,64,0,9,,,,,8,,,54,60
38016,note_off,,,,,384,0,6,,,,,5,,,49,0
38016,note_on,,,,,0,0,6,,,,,5,,,54,92
38016,note_off,,,,,1152,0,4,,,,,3,,,71,0
38016,note_on,,,,,0,0,4,,,,,3,,,69,108
38016,note_on,,,,,64,0,8,,,,,7,,,61,60
38016,note_on,,,,,0,0,2,,,,,1,,,69,92
38016,note_off,,,,,1152,0,2,,,,,1,,,71,0
38016,note_on,,,,,0,0,1,,,,,0,,,69,92
38016,note_on,,,,,0,0,3,,,,,2,,,69,108
38016,note_on,,,,,0,0,5,,,,,4,,,61,92
38016,note_off,,,,,384,0,7,,,,,6,,,49,0
38016,note_on,,,,,0,0,7,,,,,6,,,54,92
38016,note_off,,,,,384,0,5,,,,,4,,,65,0
38016,note_off,,,,,1152,0,1,,,,,0,,,71,0
38336,note_off,,,,,320,0,9,,,,,8,,,54,0
38400,note_on,,,,,0,0,4,,,,,3,,,68,108
38400,note_off,,,,,384,0,4,,,,,3,,,69,0
38400,note_off,,,,,384,0,3,,,,,2,,,69,0
38400,note_on,,,,,0,0,3,,,,,2,,,68,108
38400,note_off,,,,,384,0,7,,,,,6,,,54,0
38400,note_on,,,,,0,0,7,,,,,6,,,49,92
38400,note_on,,,,,0,0,1,,,,,0,,,68,92
38400,note_off,,,,,384,0,1,,,,,0,,,69,0
38400,note_on,,,,,0,0,2,,,,,1,,,68,92
38400,note_on,,,,,64,0,9,,,,,8,,,49,60
38400,note_off,,,,,384,0,6,,,,,5,,,54,0
38400,note_on,,,,,0,0,6,,,,,5,,,49,92
38400,note_off,,,,,384,0,2,,,,,1,,,69,0
38688,note_off,,,,,672,0,8,,,,,7,,,61,0
38720,note_off,,,,,320,0,9,,,,,8,,,49,0
38784,note_off,,,,,384,0,1,,,,,0,,,68,0
38784,note_on,,,,,0,0,1,,,,,0,,,66,92
38784,note_on,,,,,96,0,8,,,,,7,,,66,60
38784,note_on,,,,,0,0,9,,,,,8,,,59,60
38784,note_on,,,,,64,0,9,,,,,8,,,51,60
38784,note_on,,,,,0,0,2,,,,,1,,,66,92
38784,note_off,,,,,384,0,2,,,,,1,,,68,0
38784,note_on,,,,,0,0,4,,,,,3,,,66,108
38784,note_off,,,,,384,0,4,,,,,3,,,68,0
38784,note_on,,,,,0,0,6,,,,,5,,,51,92
38784,note_on,,,,,0,0,5,,,,,4,,,66,92
38784,note_off,,,,,768,0,5,,,,,4,,,61,0
38784,note_off,,,,,384,0,7,,,,,6,,,49,0
38784,note_on,,,,,0,0,7,,,,,6,,,51,92
38784,note_on,,,,,0,0,3,,,,,2,,,66,108
38784,note_off,,,,,384,0,3,,,,,2,,,68,0
38784,note_off,,,,,384,0,6,,,,,5,,,49,0
39104,note_off,,,,,0,0,9,,,,,8,,,59,0
39104,note_off,,,,,320,0,8,,,,,7,,,66,0
39104,note_off,,,,,320,0,9,,,,,8,,,51,0
39168,note_on,,,,,64,0,8,,,,,7,,,59,60
39168,note_on,,,,,0,0,2,,,,,1,,,68,92
39168,note_on,,,,,0,0,6,,,,,5,,,52,92
39168,note_off,,,,,384,0,4,,,,,3,,,66,0
39168,note_on,,,,,0,0,4,,,,,3,,,68,108
39168,note_off,,,,,384,0,2,,,,,1,,,66,0
39168,note_off,,,,,384,0,6,,,,,5,,,51,0
39168,note_off,,,,,384,0,5,,,,,4,,,66,0
39168,note_on,,,,,0,0,3,,,,,2,,,68,108
39168,note_off,,,,,384,0,3,,,,,2,,,66,0
39168,note_on,,,,,0,0,1,,,,,0,,,68,92
39168,note_off,,,,,384,0,1,,,,,0,,,66,0
39168,note_on,,,,,0,0,5,,,,,4,,,59,92
39168,note_on,,,,,64,0,9,,,,,8,,,52,60
39168,note_off,,,,,384,0,7,,,,,6,,,51,0
39168,note_on,,,,,0,0,7,,,,,6,,,52,92
39488,note_off,,,,,320,0,8,,,,,7,,,59,0
39488,note_off,,,,,320,0,9,,,,,8,,,52,0
39552,note_off,,,,,384,0,5,,,,,4,,,59,0
39552,note_off,,,,,384,0,4,,,,,3,,,68,0
39552,note_on,,,,,64,0,9,,,,,8,,,49,60
39552,note_off,,,,,384,0,2,,,,,1,,,68,0
39552,note_on,,,,,0,0,6,,,,,5,,,49,92
39552,note_off,,,,,384,0,6,,,,,5,,,52,0
39552,note_on,,,,,0,0,5,,,,,4,,,61,92
39552,note_on,,,,,0,0,2,,,,,1,,,76,92
39552,note_on,,,,,0,0,4,,,,,3,,,76,108
39552,note_off,,,,,384,0,7,,,,,6,,,52,0
39552,note_on,,,,,0,0,7,,,,,6,,,49,92
39552,note_off,,,,,384,0,1,,,,,0,,,68,0
39552,note_off,,,,,384,0,3,,,,,2,,,68,0
39552,note_on,,,,,0,0,3,,,,,2,,,76,108
39552,note_on,,,,,0,0,1,,,,,0,,,76,92
39552,note_on,,,,,64,0,8,,,,,7,,,61,60
39872,note_off,,,,,320,0,9,,,,,8,,,49,0
39936,note_on,,,,,64,0,9,,,,,8,,,54,60
39936,note_off,,,,,384,0,7,,,,,6,,,49,0
39936,note_on,,,,,0,0,7,,,,,6,,,54,92
39936,note_off,,,,,384,0,3,,,,,2,,,76,0
39936,note_on,,,,,0,0,3,,,,,2,,,70,108
39936,note_off,,,,,384,0,6,,,,,5,,,49,0
39936,note_on,,,,,0,0,2,,,,,1,,,70,92
39936,note_on,,,,,0,0,4,,,,,3,,,70,108
39936,note_off,,,,,384,0,1,,,,,0,,,76,0
39936,note_on,,,,,0,0,1,,,,,0,,,70,92
39936,note_off,,,,,384,0,2,,,,,1,,,76,0
39936,note_off,,,,,384,0,4,,,,,3,,,76,0
39936,note_on,,,,,0,0,6,,,,,5,,,54,92
40224,note_off,,,,,672,0,8,,,,,7,,,61,0
40256,note_off,,,,,320,0,9,,,,,8,,,54,0
40320,note_on,,,,,0,0,2,,,,,1,,,71,92
40320,note_on,,,,,64,0,9,,,,,8,,,51,60
40320,note_off,,,,,384,0,7,,,,,6,,,54,0
40320,note_on,,,,,0,0,1,,,,,0,,,71,92
40320,note_on,,,,,0,0,5,,,,,4,,,66,92
40320,note_off,,,,,768,0,5,,,,,4,,,61,0
40320,note_off,,,,,384,0,1,,,,,0,,,70,0
40320,note_off,,,,,384,0,2,,,,,1,,,70,0
40320,note_on,,,,,0,0,3,,,,,2,,,71,108
40320,note_on,,,,,0,0,7,,,,,6,,,51,92
40320,note_off,,,,,384,0,3,,,,,2,,,70,0
40320,note_on,,,,,0,0,9,,,,,8,,,59,60
40320,note_on,,,,,0,0,6,,,,,5,,,51,92
40320,note_off,,,,,384,0,6,,,,,5,,,54,0
40320,note_off,,,,,384,0,4,,,,,3,,,70,0
40320,note_on,,,,,96,0,8,,,,,7,,,66,60
40320,note_on,,,,,0,0,4,,,,,3,,,71,108
40640,note_off,,,,,0,0,9,,,,,8,,,59,0
40640,note_off,,,,,320,0,9,,,,,8,,,51,0
40640,note_off,,,,,320,0,8,,,,,7,,,66,0
40704,note_off,,,,,384,0,7,,,,,6,,,51,0
40704,note_on,,,,,0,0,6,,,,,5,,,47,92
40704,note_off,,,,,384,0,6,,,,,5,,,51,0
40704,note_on,,,,,64,0,9,,,,,8,,,47,60
40704,note_off,,,,,384,0,5,,,,,4,,,66,0
40704,note_on,,,,,64,0,8,,,,,7,,,63,60
40704,note_on,,,,,0,0,5,,,,,4,,,63,92
40704,note_on,,,,,0,0,7,,,,,6,,,47,92
41024,note_off,,,,,320,0,9,,,,,8,,,47,0
41024,note_off,,,,,320,0,8,,,,,7,,,63,0
41088,note_off,,,,,384,0,6,,,,,5,,,47,0
41088,note_on,,,,,0,0,6,,,,,5,,,56,92
41088,note_on,,,,,0,0,5,,,,,4,,,59,92
41088,note_on,,,,,64,0,8,,,,,7,,,59,60
41088,note_off,,,,,384,0,7,,,,,6,,,47,0
41088,note_on,,,,,64,0,9,,,,,8,,,56,60
41088,note_off,,,,,384,0,5,,,,,4,,,63,0
41088,note_on,,,,,0,0,7,,,,,6,,,56,92
41408,note_off,,,,,320,0,9,,,,,8,,,56,0
41408,note_off,,,,,320,0,8,,,,,7,,,59,0
41472,note_off,,,,,384,0,5,,,,,4,,,59,0
41472,note_on,,,,,0,0,1,,,,,0,,,81,92
41472,note_on,,,,,0,0,5,,,,,4,,,64,92
41472,note_on,,,,,0,0,4,,,,,3,,,81,108
41472,note_on,,,,,0,0,2,,,,,1,,,81,92
41472,note_off,,,,,1152,0,3,,,,,2,,,71,0
41472,note_off,,,,,1152,0,2,,,,,1,,,71,0
41472,note_off,,,,,1152,0,1,,,,,0,,,71,0
41472,note_off,,,,,384,0,6,,,,,5,,,56,0
41472,note_on,,,,,0,0,3,,,,,2,,,81,108
41472,note_on,,,,,0,0,6,,,,,5,,,49,92
41472,note_on,,,,,0,0,9,,,,,8,,,57,60
41472,note_on,,,,,64,0,9,,,,,8,,,49,60
41472,note_off,,,,,1152,0,4,,,,,3,,,71,0
41472,note_on,,,,,0,0,7,,,,,6,,,49,92
41472,note_off,,,,,384,0,7,,,,,6,,,56,0
41472,note_on,,,,,64,0,8,,,,,7,,,64,60
41792,note_off,,,,,0,0,9,,,,,8,,,57,0
41792,note_off,,,,,320,0,9,,,,,8,,,49,0
41792,note_off,,,,,320,0,8,,,,,7,,,64,0
41856,note_on,,,,,0,0,5,,,,,4,,,69,92
41856,note_on,,,,,64,0,9,,,,,8,,,54,60
41856,note_on,,,,,64,0,8,,,,,7,,,69,60
41856,note_off,,,,,384,0,6,,,,,5,,,49,0
41856,note_on,,,,,0,0,7,,,,,6,,,54,92
41856,note_off,,,,,384,0,7,,,,,6,,,49,0
41856,note_off,,,,,384,0,5,,,,,4,,,64,0
41856,note_on,,,,,0,0,6,,,,,5,,,54,92
42176,note_off,,,,,320,0,9,,,,,8,,,54,0
42240,note_off,,,,,384,0,6,,,,,5,,,54,0
42240,note_on,,,,,0,0,7,,,,,6,,,57,92
42240,note_off,,,,,384,0,7,,,,,6,,,54,0
42240,note_on,,,,,0,0,6,,,,,5,,,57,92
42240,note_off,,,,,768,0,3,,,,,2,,,81,0
42240,note_off,,,,,768,0,1,,,,,0,,,81,0
42240,note_on,,,,,64,0,9,,,,,8,,,57,60
42240,note_on,,,,,0,0,1,,,,,0,,,73,92
42240,note_off,,,,,768,0,2,,,,,1,,,81,0
42240,note_on,,,,,0,0,4,,,,,3,,,73,108
42240,note_off,,,,,768,0,4,,,,,3,,,81,0
42240,note_on,,,,,0,0,3,,,,,2,,,73,108
42240,note_on,,,,,0,0,2,,,,,1,,,73,92
42560,note_off,,,,,320,0,9,,,,,8,,,57,0
42624,note_on,,,,,0,0,9,,,,,8,,,57,60
42624,note_on,,,,,0,0,9,,,,,8,,,59,60
42624,note_off,,,,,384,0,6,,,,,5,,,57,0
42624,note_on,,,,,0,0,6,,,,,5,,,51,92
42624,note_on,,,,,0,0,7,,,,,6,,,51,92
42624,note_off,,,,,384,0,7,,,,,6,,,57,0
42624,note_off,,,,,384,0,3,,,,,2,,,73,0
42624,note_on,,,,,0,0,2,,,,,1,,,71,92
42624,note_on,,,,,0,0,3,,,,,2,,,71,108
42624,note_on,,,,,64,0,9,,,,,8,,,51,60
42624,note_off,,,,,384,0,1,,,,,0,,,73,0
42624,note_off,,,,,384,0,4,,,,,3,,,73,0
42624,note_on,,,,,0,0,4,,,,,3,,,71,108
42624,note_on,,,,,0,0,1,,,,,0,,,71,92
42624,note_off,,,,,384,0,2,,,,,1,,,73,0
42944,note_off,,,,,320,0,9,,,,,8,,,51,0
42944,note_off,,,,,0,0,9,,,,,8,,,57,0
42944,note_off,,,,,0,0,9,,,,,8,,,59,0
42944,note_off,,,,,1088,0,8,,,,,7,,,69,0
43008,note_on,,,,,64,0,9,,,,,8,,,59,60
43008,note_on,,,,,64,0,8,,,,,7,,,68,60
43008,note_off,,,,,384,0,6,,,,,5,,,51,0
43008,note_on,,,,,0,0,6,,,,,5,,,59,92
43008,note_off,,,,,1152,0,5,,,,,4,,,69,0
43008,note_off,,,,,384,0,7,,,,,6,,,51,0
43008,note_on,,,,,0,0,5,,,,,4,,,68,92
43008,note_on,,,,,0,0,7,,,,,6,,,59,92
43196,note_off,,,,,188,0,8,,,,,7,,,68,0
43200,note_on,,,,,4,0,8,,,,,7,,,66,60
43200,note_on,,,,,0,0,5,,,,,4,,,66,92
43200,note_off,,,,,192,0,5,,,,,4,,,68,0
43328,note_off,,,,,320,0,9,,,,,8,,,59,0
43388,note_off,,,,,188,0,8,,,,,7,,,66,0
43392,note_off,,,,,384,0,6,,,,,5,,,59,0
43392,note_on,,,,,64,0,9,,,,,8,,,61,60
43392,note_on,,,,,0,0,6,,,,,5,,,61,92
43392,note_off,,,,,192,0,5,,,,,4,,,66,0
43392,note_on,,,,,0,0,5,,,,,4,,,64,92
43392,note_on,,,,,4,0,8,,,,,7,,,64,60
43392,note_off,,,,,768,0,1,,,,,0,,,71,0
43392,note_off,,,,,768,0,4,,,,,3,,,71,0
43392,note_on,,,,,0,0,3,,,,,2,,,76,108
43392,note_off,,,,,768,0,3,,,,,2,,,71,0
43392,note_off,,,,,384,0,7,,,,,6,,,59,0
43392,note_on,,,,,0,0,7,,,,,6,,,61,92
43392,note_on,,,,,0,0,2,,,,,1,,,76,92
43392,note_off,,,,,768,0,2,,,,,1,,,71,0
43392,note_on,,,,,0,0,4,,,,,3,,,76,108
43392,note_on,,,,,0,0,1,,,,,0,,,76,92
43712,note_off,,,,,320,0,8,,,,,7,,,64,0
43712,note_off,,,,,320,0,9,,,,,8,,,61,0
43776,note_off,,,,,384,0,7,,,,,6,,,61,0
43776,note_off,,,,,384,0,4,,,,,3,,,76,0
43776,note_on,,,,,0,0,8,,,,,7,,,64,60
43776,note_on,,,,,0,0,2,,,,,1,,,68,92
43776,note_off,,,,,384,0,2,,,,,1,,,76,0
43776,note_on,,,,,64,0,9,,,,,8,,,57,60
43776,note_on,,,,,0,0,4,,,,,3,,,68,108
43776,note_on,,,,,64,0,8,,,,,7,,,61,60
43776,note_off,,,,,384,0,1,,,,,0,,,76,0
43776,note_on,,,,,0,0,3,,,,,2,,,68,108
43776,note_off,,,,,384,0,6,,,,,5,,,61,0
43776,note_off,,,,,384,0,3,,,,,2,,,76,0
43776,note_off,,,,,384,0,5,,,,,4,,,64,0
43776,note_on,,,,,0,0,1,,,,,0,,,68,92
43776,note_on,,,,,0,0,7,,,,,6,,,57,92
43776,note_on,,,,,0,0,6,,,,,5,,,57,92
43776,note_on,,,,,0,0,5,,,,,4,,,64,92
43968,note_off,,,,,192,0,1,,,,,0,,,68,0
43968,note_off,,,,,192,0,3,,,,,2,,,68,0
43968,note_on,,,,,0,0,3,,,,,2,,,66,108
43968,note_on,,,,,0,0,2,,,,,1,,,66,92
43968,note_off,,,,,192,0,4,,,,,3,,,68,0
43968,note_on,,,,,0,0,4,,,,,3,,,66,108
43968,note_on,,,,,0,0,1,,,,,0,,,66,92
43968,note_off,,,,,192,0,2,,,,,1,,,68,0
44096,note_off,,,,,320,0,9,,,,,8,,,57,0
44096,note_off,,,,,320,0,8,,,,,7,,,61,0
44160,note_off,,,,,192,0,4,,,,,3,,,66,0
44160,note_on,,,,,64,0,9,,,,,8,,,59,60
44160,note_on,,,,,0,0,9,,,,,8,,,64,60
44160,note_off,,,,,384,0,6,,,,,5,,,57,0
44160,note_on,,,,,0,0,6,,,,,5,,,59,92
44160,note_on,,,,,64,0,8,,,,,7,,,64,60
44160,note_on,,,,,0,0,4,,,,,3,,,66,108
44160,note_on,,,,,0,0,7,,,,,6,,,59,92
44160,note_off,,,,,192,0,3,,,,,2,,,66,0
44160,note_off,,,,,384,0,7,,,,,6,,,57,0
44160,note_on,,,,,0,0,2,,,,,1,,,66,92
44160,note_off,,,,,192,0,2,,,,,1,,,66,0
44160,note_on,,,,,0,0,3,,,,,2,,,68,108
44160,note_on,,,,,0,0,1,,,,,0,,,68,92
44160,note_off,,,,,192,0,1,,,,,0,,,66,0
44208,note_off,,,,,48,0,3,,,,,2,,,68,0
44208,note_off,,,,,48,0,8,,,,,7,,,64,0
44208,note_on,,,,,0,0,8,,,,,7,,,63,60
44208,note_on,,,,,0,0,1,,,,,0,,,66,92
44208,note_off,,,,,48,0,1,,,,,0,,,68,0
44208,note_on,,,,,0,0,3,,,,,2,,,66,108
44256,note_on,,,,,0,0,3,,,,,2,,,68,108
44256,note_off,,,,,48,0,3,,,,,2,,,66,0
44256,note_off,,,,,48,0,1,,,,,0,,,66,0
44256,note_on,,,,,0,0,1,,,,,0,,,68,92
44256,note_on,,,,,0,0,8,,,,,7,,,64,60
44256,note_off,,,,,48,0,8,,,,,7,,,63,0
44304,note_off,,,,,48,0,1,,,,,0,,,68,0
44304,note_on,,,,,0,0,3,,,,,2,,,66,108
44304,note_on,,,,,0,0,1,,,,,0,,,66,92
44304,note_off,,,,,48,0,3,,,,,2,,,68,0
44304,note_off,,,,,48,0,8,,,,,7,,,64,0
44304,note_on,,,,,0,0,8,,,,,7,,,63,60
44352,note_off,,,,,48,0,8,,,,,7,,,63,0
44352,note_off,,,,,48,0,3,,,,,2,,,66,0
44352,note_on,,,,,0,0,3,,,,,2,,,68,108
44352,note_on,,,,,0,0,1,,,,,0,,,68,92
44352,note_off,,,,,48,0,1,,,,,0,,,66,0
44352,note_on,,,,,0,0,8,,,,,7,,,64,60
44400,note_off,,,,,48,0,1,,,,,0,,,68,0
44400,note_off,,,,,48,0,8,,,,,7,,,64,0
44400,note_on,,,,,0,0,1,,,,,0,,,66,92
44400,note_on,,,,,0,0,3,,,,,2,,,66,108
44400,note_off,,,,,48,0,3,,,,,2,,,68,0
44400,note_on,,,,,0,0,8,,,,,7,,,63,60
44448,note_off,,,,,48,0,8,,,,,7,,,64,0
44448,note_on,,,,,0,0,1,,,,,0,,,68,92
44448,note_on,,,,,0,0,3,,,,,2,,,68,108
44448,note_off,,,,,48,0,3,,,,,2,,,66,0
44448,note_off,,,,,48,0,1,,,,,0,,,66,0
44480,note_off,,,,,320,0,9,,,,,8,,,59,0
44480,note_off,,,,,0,0,9,,,,,8,,,64,0
44496,note_off,,,,,48,0,3,,,,,2,,,68,0
44496,note_on,,,,,0,0,1,,,,,0,,,66,92
44496,note_off,,,,,48,0,1,,,,,0,,,68,0
44496,note_on,,,,,0,0,3,,,,,2,,,66,108
44540,note_off,,,,,92,0,8,,,,,7,,,63,0
44544,note_off,,,,,48,0,3,,,,,2,,,66,0
44544,note_off,,,,,384,0,6,,,,,5,,,59,0
44544,note_on,,,,,0,0,6,,,,,5,,,47,92
44544,note_on,,,,,0,0,7,,,,,6,,,47,92
44544,note_on,,,,,4,0,8,,,,,7,,,63,60
44544,note_on,,,,,0,0,1,,,,,0,,,68,92
44544,note_off,,,,,48,0,1,,,,,0,,,66,0
44544,note_on,,,,,64,0,9,,,,,8,,,47,60
44544,note_off,,,,,384,0,7,,,,,6,,,59,0
44544,note_off,,,,,768,0,5,,,,,4,,,64,0
44544,note_on,,,,,0,0,5,,,,,4,,,63,92
44544,note_on,,,,,0,0,3,,,,,2,,,68,108
44544,note_on,,,,,0,0,9,,,,,8,,,51,60
44592,note_on,,,,,0,0,3,,,,,2,,,66,108
44592,note_off,,,,,48,0,3,,,,,2,,,68,0
44592,note_on,,,,,0,0,1,,,,,0,,,66,92
44592,note_off,,,,,48,0,1,,,,,0,,,68,0
44736,note_on,,,,,0,0,3,,,,,2,,,64,108
44736,note_off,,,,,144,0,3,,,,,2,,,66,0
44736,note_on,,,,,0,0,1,,,,,0,,,64,92
44736,note_off,,,,,576,0,4,,,,,3,,,66,0
44736,note_on,,,,,0,0,4,,,,,3,,,64,108
44736,note_on,,,,,0,0,2,,,,,1,,,64,92
44736,note_off,,,,,576,0,2,,,,,1,,,66,0
44736,note_off,,,,,144,0,1,,,,,0,,,66,0
44864,note_off,,,,,320,0,9,,,,,8,,,47,0
44864,note_off,,,,,0,0,9,,,,,8,,,51,0
44864,note_off,,,,,320,0,8,,,,,7,,,63,0
44928,note_off,,,,,384,0,6,,,,,5,,,47,0
44928,note_on,,,,,0,0,4,,,,,3,,,64,108
44928,note_off,,,,,192,0,4,,,,,3,,,64,0
44928,note_off,,,,,192,0,2,,,,,1,,,64,0
44928,note_on,,,,,0,0,2,,,,,1,,,64,92
44928,note_on,,,,,64,0,8,,,,,7,,,64,60
44928,note_on,,,,,64,0,9,,,,,8,,,52,60
44928,note_off,,,,,384,0,5,,,,,4,,,63,0
44928,note_on,,,,,0,0,5,,,,,4,,,64,92
44928,note_on,,,,,0,0,6,,,,,5,,,52,92
44928,note_off,,,,,384,0,7,,,,,6,,,47,0
44928,note_on,,,,,0,0,3,,,,,2,,,64,108
44928,note_on,,,,,0,0,7,,,,,6,,,52,92
44928,note_off,,,,,192,0,1,,,,,0,,,64,0
44928,note_off,,,,,192,0,3,,,,,2,,,64,0
44928,note_on,,,,,0,0,1,,,,,0,,,64,92
45248,note_off,,,,,320,0,9,,,,,8,,,52,0
45312,note_off,,,,,384,0,7,,,,,6,,,52,0
45312,note_on,,,,,0,0,7,,,,,6,,,56,92
45312,note_on,,,,,64,0,9,,,,,8,,,56,60
45312,note_off,,,,,384,0,6,,,,,5,,,52,0
45312,note_on,,,,,0,0,6,,,,,5,,,56,92
45632,note_off,,,,,320,0,9,,,,,8,,,56,0
45696,note_on,,,,,64,0,9,,,,,8,,,52,60
45696,note_off,,,,,384,0,6,,,,,5,,,56,0
45696,note_on,,,,,0,0,7,,,,,6,,,52,92
45696,note_off,,,,,384,0,7,,,,,6,,,56,0
45696,note_on,,,,,0,0,6,,,,,5,,,52,92
45984,note_off,,,,,1056,0,8,,,,,7,,,64,0
46016,note_off,,,,,320,0,9,,,,,8,,,52,0
46080,note_off,,,,,1152,0,3,,,,,2,,,64,0
46080,note_off,,,,,1152,0,1,,,,,0,,,64,0
46080,note_off,,,,,384,0,7,,,,,6,,,52,0
46080,note_on,,,,,0,0,4,,,,,3,,,83,108
46080,note_off,,,,,1152,0,5,,,,,4,,,64,0
46080,note_on,,,,,0,0,3,,,,,2,,,83,108
46080,note_off,,,,,1152,0,4,,,,,3,,,64,0
46080,note_on,,,,,0,0,1,,,,,0,,,83,92
46080,note_off,,,,,384,0,6,,,,,5,,,52,0
46080,note_on,,,,,0,0,2,,,,,1,,,83,92
46080,note_off,,,,,1152,0,2,,,,,1,,,64,0
46464,note_on,,,,,480,0,8,,,,,7,,,68,60
46464,note_on,,,,,448,0,9,,,,,8,,,56,60
46464,note_on,,,,,384,0,6,,,,,5,,,56,92
46464,note_on,,,,,384,0,5,,,,,4,,,68,92
46464,note_on,,,,,384,0,7,,,,,6,,,56,92
46784,note_off,,,,,320,0,9,,,,,8,,,56,0
46784,note_off,,,,,320,0,8,,,,,7,,,68,0
46848,note_off,,,,,384,0,6,,,,,5,,,56,0
46848,note_on,,,,,64,0,9,,,,,8,,,59,60
46848,note_off,,,,,384,0,5,,,,,4,,,68,0
46848,note_on,,,,,0,0,5,,,,,4,,,63,92
46848,note_on,,,,,0,0,7,,,,,6,,,59,92
46848,note_off,,,,,384,0,7,,,,,6,,,56,0
46848,note_on,,,,,0,0,6,,,,,5,,,59,92
46848,note_on,,,,,64,0,8,,,,,7,,,63,60
47168,note_off,,,,,320,0,8,,,,,7,,,63,0
47168,note_off,,,,,320,0,9,,,,,8,,,59,0
47232,note_off,,,,,1152,0,2,,,,,1,,,83,0
47232,note_on,,,,,0,0,2,,,,,1,,,76,92
47232,note_off,,,,,384,0,5,,,,,4,,,63,0
47232,note_on,,,,,0,0,5,,,,,4,,,68,92
47232,note_on,,,,,0,0,3,,,,,2,,,76,108
47232,note_on,,,,,0,0,7,,,,,6,,,61,92
47232,note_off,,,,,384,0,7,,,,,6,,,59,0
47232,note_off,,,,,1152,0,3,,,,,2,,,83,0
47232,note_off,,,,,384,0,6,,,,,5,,,59,0
47232,note_on,,,,,0,0,6,,,,,5,,,61,92
47232,note_off,,,,,1152,0,4,,,,,3,,,83,0
47232,note_on,,,,,0,0,4,,,,,3,,,76,108
47232,note_on,,,,,0,0,1,,,,,0,,,76,92
47232,note_off,,,,,1152,0,1,,,,,0,,,83,0
47232,note_on,,,,,64,0,8,,,,,7,,,68,60
47232,note_on,,,,,64,0,9,,,,,8,,,61,60
47552,note_off,,,,,320,0,8,,,,,7,,,68,0
47552,note_off,,,,,320,0,9,,,,,8,,,61,0
47616,note_on,,,,,0,0,6,,,,,5,,,52,92
47616,note_on,,,,,64,0,9,,,,,8,,,52,60
47616,note_on,,,,,64,0,8,,,,,7,,,61,60
47616,note_off,,,,,384,0,5,,,,,4,,,68,0
47616,note_off,,,,,384,0,7,,,,,6,,,61,0
47616,note_on,,,,,0,0,7,,,,,6,,,52,92
47616,note_off,,,,,384,0,6,,,,,5,,,61,0
47616,note_on,,,,,0,0,5,,,,,4,,,61,92
47936,note_off,,,,,320,0,9,,,,,8,,,52,0
47936,note_off,,,,,320,0,8,,,,,7,,,61,0
48000,note_on,,,,,64,0,9,,,,,8,,,49,60
48000,note_on,,,,,64,0,8,,,,,7,,,64,60
48000,note_on,,,,,0,0,6,,,,,5,,,49,92
48000,note_off,,,,,384,0,6,,,,,5,,,52,0
48000,note_on,,,,,0,0,7,,,,,6,,,49,92
48000,note_off,,,,,384,0,7,,,,,6,,,52,0
48000,note_off,,,,,384,0,5,,,,,4,,,61,0
48000,note_on,,,,,0,0,5,,,,,4,,,64,92
48320,note_off,,,,,320,0,8,,,,,7,,,64,0
48320,note_off,,,,,320,0,9,,,,,8,,,49,0
48384,note_on,,,,,0,0,5,,,,,4,,,73,92
48384,note_on,,,,,0,0,3,,,,,2,,,81,108
48384,note_off,,,,,1152,0,4,,,,,3,,,76,0
48384,note_off,,,,,1152,0,1,,,,,0,,,76,0
48384,note_on,,,,,0,0,1,,,,,0,,,81,92
48384,note_on,,,,,0,0,7,,,,,6,,,54,92
48384,note_off,,,,,384,0,7,,,,,6,,,49,0
48384,note_off,,,,,384,0,5,,,,,4,,,64,0
48384,note_on,,,,,0,0,4,,,,,3,,,81,108
48384,note_on,,,,,64,0,9,,,,,8,,,54,60
48384,note_off,,,,,1152,0,3,,,,,2,,,76,0
48384,note_off,,,,,1152,0,2,,,,,1,,,76,0
48384,note_on,,,,,0,0,6,,,,,5,,,54,92
48384,note_on,,,,,0,0,2,,,,,1,,,81,92
48384,note_on,,,,,64,0,8,,,,,7,,,73,60
48384,note_off,,,,,384,0,6,,,,,5,,,49,0
48704,note_off,,,,,320,0,9,,,,,8,,,54,0
48768,note_on,,,,,64,0,9,,,,,8,,,56,60
48768,note_on,,,,,0,0,6,,,,,5,,,56,92
48768,note_off,,,,,384,0,6,,,,,5,,,54,0
48768,note_on,,,,,0,0,7,,,,,6,,,56,92
48768,note_off,,,,,384,0,7,,,,,6,,,54,0
48896,note_off,,,,,512,0,8,,,,,7,,,73,0
48960,note_on,,,,,64,0,8,,,,,7,,,71,60
48960,note_on,,,,,0,0,5,,,,,4,,,71,92
48960,note_off,,,,,576,0,5,,,,,4,,,73,0
49088,note_off,,,,,320,0,9,,,,,8,,,56,0
49148,note_off,,,,,188,0,8,,,,,7,,,71,0
49152,note_on,,,,,0,0,1,,,,,0,,,78,92
49152,note_off,,,,,768,0,1,,,,,0,,,81,0
49152,note_off,,,,,768,0,2,,,,,1,,,81,0
49152,note_on,,,,,0,0,3,,,,,2,,,78,108
49152,note_off,,,,,768,0,3,,,,,2,,,81,0
49152,note_on,,,,,0,0,2,,,,,1,,,78,92
49152,note_on,,,,,0,0,6,,,,,5,,,57,92
49152,note_off,,,,,192,0,5,,,,,4,,,71,0
49152,note_off,,,,,384,0,7,,,,,6,,,56,0
49152,note_off,,,,,384,0,6,,,,,5,,,56,0
49152,note_on,,,,,0,0,8,,,,,7,,,69,60
49152,note_on,,,,,64,0,9,,,,,8,,,57,60
49152,note_on,,,,,0,0,4,,,,,3,,,78,108
49152,note_on,,,,,0,0,7,,,,,6,,,57,92
49152,note_on,,,,,4,0,8,,,,,7,,,66,60
49152,note_off,,,,,768,0,4,,,,,3,,,81,0
49152,note_on,,,,,0,0,5,,,,,4,,,69,92
49340,note_off,,,,,188,0,8,,,,,7,,,69,0
49344,note_on,,,,,4,0,8,,,,,7,,,68,60
49344,note_off,,,,,192,0,5,,,,,4,,,69,0
49344,note_on,,,,,0,0,5,,,,,4,,,68,92
49472,note_off,,,,,128,0,8,,,,,7,,,66,0
49472,note_off,,,,,320,0,9,,,,,8,,,57,0
49532,note_off,,,,,60,0,8,,,,,7,,,68,0
49536,note_on,,,,,0,0,4,,,,,3,,,75,108
49536,note_on,,,,,0,0,6,,,,,5,,,59,92
49536,note_on,,,,,0,0,2,,,,,1,,,75,92
49536,note_off,,,,,384,0,2,,,,,1,,,78,0
49536,note_on,,,,,0,0,1,,,,,0,,,75,92
49536,note_off,,,,,384,0,1,,,,,0,,,78,0
49536,note_off,,,,,384,0,6,,,,,5,,,57,0
49536,note_on,,,,,0,0,5,,,,,4,,,66,92
49536,note_off,,,,,384,0,4,,,,,3,,,78,0
49536,note_off,,,,,384,0,3,,,,,2,,,78,0
49536,note_on,,,,,64,0,9,,,,,8,,,59,60
49536,note_on,,,,,4,0,8,,,,,7,,,66,60
49536,note_off,,,,,192,0,5,,,,,4,,,68,0
49536,note_on,,,,,0,0,3,,,,,2,,,75,108
49536,note_on,,,,,0,0,7,,,,,6,,,59,92
49536,note_off,,,,,384,0,7,,,,,6,,,57,0
49856,note_off,,,,,320,0,9,,,,,8,,,59,0
49920,note_on,,,,,64,0,9,,,,,8,,,61,60
49920,note_off,,,,,384,0,6,,,,,5,,,59,0
49920,note_on,,,,,0,0,6,,,,,5,,,61,92
49920,note_off,,,,,384,0,7,,,,,6,,,59,0
49920,note_on,,,,,0,0,7,,,,,6,,,61,92
50112,note_off,,,,,576,0,1,,,,,0,,,75,0
50112,note_on,,,,,0,0,1,,,,,0,,,73,92
50112,note_off,,,,,576,0,4,,,,,3,,,75,0
50112,note_off,,,,,576,0,2,,,,,1,,,75,0
50112,note_on,,,,,0,0,3,,,,,2,,,73,108
50112,note_on,,,,,0,0,4,,,,,3,,,73,108
50112,note_off,,,,,576,0,3,,,,,2,,,75,0
50112,note_on,,,,,0,0,2,,,,,1,,,73,92
50208,note_off,,,,,672,0,8,,,,,7,,,66,0
50240,note_off,,,,,320,0,9,,,,,8,,,61,0
50304,note_off,,,,,384,0,7,,,,,6,,,61,0
50304,note_off,,,,,192,0,4,,,,,3,,,73,0
50304,note_on,,,,,96,0,8,,,,,7,,,66,60
50304,note_off,,,,,384,0,6,,,,,5,,,61,0
50304,note_on,,,,,0,0,8,,,,,7,,,71,60
50304,note_on,,,,,0,0,5,,,,,4,,,66,92
50304,note_on,,,,,0,0,6,,,,,5,,,63,92
50304,note_on,,,,,0,0,4,,,,,3,,,71,108
50304,note_off,,,,,192,0,1,,,,,0,,,73,0
50304,note_on,,,,,0,0,1,,,,,0,,,71,92
50304,note_on,,,,,0,0,7,,,,,6,,,63,92
50304,note_on,,,,,64,0,9,,,,,8,,,63,60
50304,note_off,,,,,192,0,3,,,,,2,,,73,0
50304,note_on,,,,,0,0,3,,,,,2,,,71,108
50304,note_on,,,,,0,0,2,,,,,1,,,71,92
50304,note_off,,,,,192,0,2,,,,,1,,,73,0
50304,note_off,,,,,768,0,5,,,,,4,,,66,0
50624,note_off,,,,,320,0,8,,,,,7,,,66,0
50624,note_off,,,,,320,0,9,,,,,8,,,63,0
50624,note_off,,,,,0,0,8,,,,,7,,,71,0
50688,note_off,,,,,384,0,5,,,,,4,,,66,0
50688,note_on,,,,,0,0,4,,,,,3,,,80,108
50688,note_off,,,,,384,0,4,,,,,3,,,71,0
50688,note_on,,,,,0,0,5,,,,,4,,,71,92
50688,note_off,,,,,384,0,7,,,,,6,,,63,0
50688,note_on,,,,,64,0,8,,,,,7,,,71,60
50688,note_on,,,,,0,0,6,,,,,5,,,64,92
50688,note_off,,,,,384,0,6,,,,,5,,,63,0
50688,note_off,,,,,384,0,2,,,,,1,,,71,0
50688,note_off,,,,,384,0,1,,,,,0,,,71,0
50688,note_on,,,,,64,0,9,,,,,8,,,64,60
50688,note_on,,,,,0,0,1,,,,,0,,,80,92
50688,note_off,,,,,384,0,3,,,,,2,,,71,0
50688,note_on,,,,,0,0,3,,,,,2,,,80,108
50688,note_on,,,,,0,0,7,,,,,6,,,64,92
50688,note_on,,,,,0,0,2,,,,,1,,,80,92
51008,note_off,,,,,320,0,8,,,,,7,,,71,0
51072,note_on,,,,,0,0,2,,,,,1,,,76,92
51072,note_off,,,,,384,0,1,,,,,0,,,80,0
51072,note_on,,,,,0,0,1,,,,,0,,,76,92
51072,note_on,,,,,64,0,8,,,,,7,,,68,60
51072,note_on,,,,,0,0,3,,,,,2,,,76,108
51072,note_on,,,,,0,0,4,,,,,3,,,76,108
51072,note_off,,,,,384,0,3,,,,,2,,,80,0
51072,note_off,,,,,384,0,5,,,,,4,,,71,0
51072,note_on,,,,,0,0,5,,,,,4,,,68,92
51072,note_off,,,,,384,0,4,,,,,3,,,80,0
51072,note_off,,,,,384,0,2,,,,,1,,,80,0
51360,note_off,,,,,672,0,9,,,,,8,,,64,0
51456,note_off,,,,,384,0,3,,,,,2,,,76,0
51456,note_on,,,,,0,0,3,,,,,2,,,73,108
51456,note_on,,,,,0,0,1,,,,,0,,,73,92
51456,note_off,,,,,384,0,1,,,,,0,,,76,0
51456,note_off,,,,,768,0,7,,,,,6,,,64,0
51456,note_on,,,,,96,0,9,,,,,8,,,52,60
51456,note_on,,,,,0,0,9,,,,,8,,,61,60
51456,note_on,,,,,0,0,4,,,,,3,,,73,108
51456,note_off,,,,,768,0,6,,,,,5,,,64,0
51456,note_on,,,,,0,0,6,,,,,5,,,52,92
51456,note_off,,,,,384,0,4,,,,,3,,,76,0
51456,note_on,,,,,0,0,2,,,,,1,,,73,92
51456,note_off,,,,,384,0,2,,,,,1,,,76,0
51456,note_on,,,,,0,0,7,,,,,6,,,52,92
51744,note_off,,,,,672,0,8,,,,,7,,,68,0
51776,note_off,,,,,320,0,9,,,,,8,,,52,0
51776,note_off,,,,,0,0,9,,,,,8,,,61,0
51840,note_off,,,,,384,0,4,,,,,3,,,73,0
51840,note_on,,,,,0,0,4,,,,,3,,,81,108
51840,note_on,,,,,96,0,8,,,,,7,,,61,60
51840,note_off,,,,,384,0,3,,,,,2,,,73,0
51840,note_off,,,,,768,0,5,,,,,4,,,68,0
51840,note_off,,,,,384,0,7,,,,,6,,,52,0
51840,note_on,,,,,0,0,1,,,,,0,,,81,92
51840,note_off,,,,,384,0,1,,,,,0,,,73,0
51840,note_on,,,,,0,0,2,,,,,1,,,81,92
51840,note_off,,,,,384,0,2,,,,,1,,,73,0
51840,note_on,,,,,0,0,5,,,,,4,,,61,92
51840,note_on,,,,,0,0,3,,,,,2,,,81,108
51840,note_on,,,,,0,0,6,,,,,5,,,54,92
51840,note_off,,,,,384,0,6,,,,,5,,,52,0
51840,note_on,,,,,64,0,9,,,,,8,,,54,60
51840,note_on,,,,,0,0,7,,,,,6,,,54,92
52160,note_off,,,,,320,0,9,,,,,8,,,54,0
52160,note_off,,,,,320,0,8,,,,,7,,,61,0
52224,note_off,,,,,384,0,4,,,,,3,,,81,0
52224,note_on,,,,,0,0,4,,,,,3,,,80,108
52224,note_on,,,,,64,0,8,,,,,7,,,72,60
52224,note_off,,,,,384,0,6,,,,,5,,,54,0
52224,note_on,,,,,0,0,6,,,,,5,,,56,92
52224,note_on,,,,,0,0,3,,,,,2,,,80,108
52224,note_off,,,,,384,0,3,,,,,2,,,81,0
52224,note_on,,,,,64,0,9,,,,,8,,,56,60
52224,note_on,,,,,0,0,5,,,,,4,,,72,92
52224,note_on,,,,,0,0,1,,,,,0,,,80,92
52224,note_off,,,,,384,0,5,,,,,4,,,61,0
52224,note_on,,,,,0,0,7,,,,,6,,,56,92
52224,note_off,,,,,384,0,2,,,,,1,,,81,0
52224,note_on,,,,,0,0,2,,,,,1,,,80,92
52224,note_off,,,,,384,0,7,,,,,6,,,54,0
52224,note_off,,,,,384,0,1,,,,,0,,,81,0
52544,note_off,,,,,320,0,9,,,,,8,,,56,0
52544,note_off,,,,,320,0,8,,,,,7,,,72,0
52608,note_off,,,,,384,0,7,,,,,6,,,56,0
52608,note_on,,,,,0,0,7,,,,,6,,,57,92
52608,note_off,,,,,384,0,5,,,,,4,,,72,0
52608,note_on,,,,,0,0,5,,,,,4,,,73,92
52608,note_on,,,,,0,0,3,,,,,2,,,78,108
52608,note_off,,,,,384,0,6,,,,,5,,,56,0
52608,note_on,,,,,0,0,6,,,,,5,,,57,92
52608,note_on,,,,,64,0,8,,,,,7,,,66,60
52608,note_on,,,,,0,0,1,,,,,0,,,78,92
52608,note_on,,,,,64,0,9,,,,,8,,,57,60
52608,note_on,,,,,0,0,8,,,,,7,,,73,60
52608,note_off,,,,,384,0,4,,,,,3,,,80,0
52608,note_on,,,,,0,0,4,,,,,3,,,78,108
52608,note_off,,,,,384,0,2,,,,,1,,,80,0
52608,note_on,,,,,0,0,2,,,,,1,,,78,92
52608,note_off,,,,,384,0,3,,,,,2,,,80,0
52608,note_off,,,,,384,0,1,,,,,0,,,80,0
52928,note_off,,,,,0,0,8,,,,,7,,,73,0
52928,note_off,,,,,320,0,8,,,,,7,,,66,0
52928,note_off,,,,,320,0,9,,,,,8,,,57,0
52992,note_off,,,,,384,0,3,,,,,2,,,78,0
52992,note_on,,,,,0,0,3,,,,,2,,,76,108
52992,note_on,,,,,64,0,9,,,,,8,,,54,60
52992,note_off,,,,,384,0,2,,,,,1,,,78,0
52992,note_on,,,,,0,0,6,,,,,5,,,54,92
52992,note_on,,,,,64,0,8,,,,,7,,,61,60
52992,note_on,,,,,0,0,7,,,,,6,,,54,92
52992,note_off,,,,,384,0,6,,,,,5,,,57,0
52992,note_on,,,,,0,0,2,,,,,1,,,76,92
52992,note_off,,,,,384,0,5,,,,,4,,,73,0
52992,note_on,,,,,0,0,5,,,,,4,,,61,92
52992,note_off,,,,,384,0,1,,,,,0,,,78,0
52992,note_on,,,,,0,0,1,,,,,0,,,76,92
52992,note_off,,,,,384,0,7,,,,,6,,,57,0
52992,note_on,,,,,0,0,8,,,,,7,,,64,60
52992,note_off,,,,,384,0,4,,,,,3,,,78,0
52992,note_on,,,,,0,0,4,,,,,3,,,76,108
53184,note_on,,,,,0,0,4,,,,,3,,,75,108
53184,note_off,,,,,192,0,4,,,,,3,,,76,0
53184,note_on,,,,,0,0,3,,,,,2,,,75,108
53184,note_on,,,,,0,0,1,,,,,0,,,75,92
53184,note_on,,,,,0,0,2,,,,,1,,,75,92
53184,note_off,,,,,192,0,1,,,,,0,,,76,0
53184,note_off,,,,,192,0,3,,,,,2,,,76,0
53184,note_off,,,,,192,0,2,,,,,1,,,76,0
53312,note_off,,,,,320,0,9,,,,,8,,,54,0
53376,note_on,,,,,0,0,1,,,,,0,,,76,92
53376,note_on,,,,,0,0,7,,,,,6,,,56,92
53376,note_on,,,,,0,0,3,,,,,2,,,76,108
53376,note_off,,,,,384,0,6,,,,,5,,,54,0
53376,note_on,,,,,0,0,6,,,,,5,,,56,92
53376,note_off,,,,,192,0,4,,,,,3,,,75,0
53376,note_on,,,,,0,0,4,,,,,3,,,75,108
53376,note_off,,,,,192,0,3,,,,,2,,,75,0
53376,note_off,,,,,192,0,1,,,,,0,,,75,0
53376,note_off,,,,,384,0,7,,,,,6,,,54,0
53376,note_off,,,,,192,0,2,,,,,1,,,75,0
53376,note_on,,,,,0,0,9,,,,,8,,,61,60
53376,note_on,,,,,64,0,9,,,,,8,,,56,60
53376,note_on,,,,,0,0,2,,,,,1,,,75,92
53424,note_off,,,,,48,0,1,,,,,0,,,76,0
53424,note_on,,,,,0,0,1,,,,,0,,,75,92
53424,note_off,,,,,48,0,3,,,,,2,,,76,0
53424,note_on,,,,,0,0,3,,,,,2,,,75,108
53472,note_off,,,,,48,0,1,,,,,0,,,75,0
53472,note_on,,,,,0,0,1,,,,,0,,,76,92
53472,note_on,,,,,0,0,3,,,,,2,,,76,108
53472,note_off,,,,,48,0,3,,,,,2,,,75,0
53520,note_on,,,,,0,0,3,,,,,2,,,75,108
53520,note_on,,,,,0,0,1,,,,,0,,,75,92
53520,note_off,,,,,48,0,1,,,,,0,,,76,0
53520,note_off,,,,,48,0,3,,,,,2,,,76,0
53568,note_on,,,,,0,0,1,,,,,0,,,76,92
53568,note_off,,,,,48,0,3,,,,,2,,,75,0
53568,note_off,,,,,48,0,1,,,,,0,,,75,0
53568,note_on,,,,,0,0,3,,,,,2,,,76,108
53616,note_off,,,,,48,0,3,,,,,2,,,76,0
53616,note_on,,,,,0,0,3,,,,,2,,,75,108
53616,note_off,,,,,48,0,1,,,,,0,,,76,0
53616,note_on,,,,,0,0,1,,,,,0,,,75,92
53664,note_off,,,,,48,0,3,,,,,2,,,75,0
53664,note_off,,,,,0,0,8,,,,,7,,,64,0
53664,note_off,,,,,672,0,8,,,,,7,,,61,0
53664,note_on,,,,,0,0,3,,,,,2,,,76,108
53664,note_on,,,,,0,0,1,,,,,0,,,76,92
53664,note_off,,,,,48,0,1,,,,,0,,,75,0
53696,note_off,,,,,0,0,9,,,,,8,,,61,0
53696,note_off,,,,,320,0,9,,,,,8,,,56,0
53712,note_on,,,,,0,0,3,,,,,2,,,75,108
53712,note_off,,,,,48,0,1,,,,,0,,,76,0
53712,note_on,,,,,0,0,1,,,,,0,,,75,92
53712,note_off,,,,,48,0,3,,,,,2,,,76,0
53760,note_off,,,,,48,0,3,,,,,2,,,75,0
53760,note_on,,,,,0,0,3,,,,,2,,,76,108
53760,note_on,,,,,0,0,7,,,,,6,,,44,92
53760,note_off,,,,,384,0,7,,,,,6,,,56,0
53760,note_off,,,,,768,0,5,,,,,4,,,61,0
53760,note_on,,,,,0,0,5,,,,,4,,,60,92
53760,note_on,,,,,64,0,9,,,,,8,,,44,60
53760,note_on,,,,,0,0,1,,,,,0,,,76,92
53760,note_off,,,,,48,0,1,,,,,0,,,75,0
53760,note_on,,,,,96,0,8,,,,,7,,,60,60
53760,note_on,,,,,0,0,6,,,,,5,,,44,92
53760,note_off,,,,,384,0,6,,,,,5,,,56,0
53808,note_on,,,,,0,0,3,,,,,2,,,75,108
53808,note_off,,,,,48,0,3,,,,,2,,,76,0
53808,note_on,,,,,0,0,1,,,,,0,,,75,92
53808,note_off,,,,,48,0,1,,,,,0,,,76,0
53952,note_on,,,,,0,0,2,,,,,1,,,73,92
53952,note_off,,,,,576,0,4,,,,,3,,,75,0
53952,note_on,,,,,0,0,4,,,,,3,,,73,108
53952,note_off,,,,,576,0,2,,,,,1,,,75,0
53952,note_on,,,,,0,0,1,,,,,0,,,73,92
53952,note_on,,,,,0,0,3,,,,,2,,,73,108
53952,note_off,,,,,144,0,1,,,,,0,,,75,0
53952,note_off,,,,,144,0,3,,,,,2,,,75,0
54080,note_off,,,,,320,0,8,,,,,7,,,60,0
54080,note_off,,,,,320,0,9,,,,,8,,,44,0
54144,note_on,,,,,64,0,8,,,,,7,,,64,60
54144,note_on,,,,,0,0,1,,,,,0,,,73,92
54144,note_on,,,,,0,0,3,,,,,2,,,73,108
54144,note_off,,,,,384,0,6,,,,,5,,,44,0
54144,note_on,,,,,0,0,6,,,,,5,,,49,92
54144,note_off,,,,,192,0,4,,,,,3,,,73,0
54144,note_on,,,,,0,0,4,,,,,3,,,73,108
54144,note_off,,,,,192,0,3,,,,,2,,,73,0
54144,note_off,,,,,192,0,1,,,,,0,,,73,0
54144,note_off,,,,,384,0,7,,,,,6,,,44,0
54144,note_on,,,,,0,0,7,,,,,6,,,49,92
54144,note_on,,,,,64,0,9,,,,,8,,,49,60
54144,note_off,,,,,384,0,5,,,,,4,,,60,0
54144,note_on,,,,,0,0,2,,,,,1,,,73,92
54144,note_on,,,,,0,0,5,,,,,4,,,64,92
54144,note_off,,,,,192,0,2,,,,,1,,,73,0
54464,note_off,,,,,320,0,8,,,,,7,,,64,0
54464,note_off,,,,,320,0,9,,,,,8,,,49,0
54528,note_off,,,,,384,0,7,,,,,6,,,49,0
54528,note_on,,,,,0,0,6,,,,,5,,,52,92
54528,note_on,,,,,64,0,9,,,,,8,,,52,60
54528,note_off,,,,,384,0,6,,,,,5,,,49,0
54528,note_on,,,,,64,0,8,,,,,7,,,68,60
54528,note_off,,,,,384,0,5,,,,,4,,,64,0
54528,note_on,,,,,0,0,5,,,,,4,,,68,92
54528,note_on,,,,,0,0,7,,,,,6,,,52,92
54848,note_off,,,,,320,0,8,,,,,7,,,68,0
54848,note_off,,,,,320,0,9,,,,,8,,,52,0
54912,note_off,,,,,384,0,5,,,,,4,,,68,0
54912,note_on,,,,,0,0,6,,,,,5,,,49,92
54912,note_off,,,,,384,0,6,,,,,5,,,52,0
54912,note_on,,,,,64,0,8,,,,,7,,,64,60
54912,note_on,,,,,0,0,5,,,,,4,,,64,92
54912,note_on,,,,,64,0,9,,,,,8,,,49,60
54912,note_on,,,,,0,0,7,,,,,6,,,49,92
54912,note_off,,,,,384,0,7,,,,,6,,,52,0
55232,note_off,,,,,320,0,9,,,,,8,,,49,0
55232,note_off,,,,,320,0,8,,,,,7,,,64,0
55296,note_off,,,,,1152,0,4,,,,,3,,,73,0
55296,note_on,,,,,64,0,9,,,,,8,,,56,60
55296,note_on,,,,,0,0,9,,,,,8,,,63,60
55296,note_off,,,,,1152,0,1,,,,,0,,,73,0
55296,note_on,,,,,0,0,6,,,,,5,,,56,92
55296,note_off,,,,,384,0,6,,,,,5,,,49,0
55296,note_on,,,,,0,0,1,,,,,0,,,71,92
55296,note_on,,,,,0,0,3,,,,,2,,,71,108
55296,note_off,,,,,1152,0,3,,,,,2,,,73,0
55296,note_off,,,,,1152,0,2,,,,,1,,,73,0
55296,note_off,,,,,384,0,5,,,,,4,,,64,0
55296,note_on,,,,,0,0,2,,,,,1,,,71,92
55296,note_on,,,,,0,0,4,,,,,3,,,71,108
55296,note_off,,,,,384,0,7,,,,,6,,,49,0
55296,note_on,,,,,0,0,7,,,,,6,,,56,92
55616,note_off,,,,,0,0,9,,,,,8,,,63,0
55616,note_off,,,,,320,0,9,,,,,8,,,56,0
55680,note_on,,,,,0,0,9,,,,,8,,,61,60
55680,note_on,,,,,0,0,9,,,,,8,,,59,60
55680,note_on,,,,,384,0,5,,,,,4,,,61,92
55680,note_on,,,,,448,0,8,,,,,7,,,61,60
55680,note_off,,,,,384,0,6,,,,,5,,,56,0
55680,note_on,,,,,0,0,7,,,,,6,,,53,92
55680,note_on,,,,,64,0,9,,,,,8,,,53,60
55680,note_off,,,,,384,0,7,,,,,6,,,56,0
55680,note_on,,,,,0,0,6,,,,,5,,,53,92
56000,note_off,,,,,320,0,8,,,,,7,,,61,0
56000,note_off,,,,,320,0,9,,,,,8,,,53,0
56000,note_off,,,,,0,0,9,,,,,8,,,59,0
56000,note_off,,,,,0,0,9,,,,,8,,,61,0
56064,note_on,,,,,0,0,7,,,,,6,,,49,92
56064,note_on,,,,,0,0,6,,,,,5,,,49,92
56064,note_off,,,,,384,0,6,,,,,5,,,53,0
56064,note_off,,,,,384,0,5,,,,,4,,,61,0
56064,note_on,,,,,0,0,5,,,,,4,,,65,92
56064,note_on,,,,,64,0,8,,,,,7,,,65,60
56064,note_off,,,,,384,0,7,,,,,6,,,53,0
56064,note_on,,,,,64,0,9,,,,,8,,,49,60
56384,note_off,,,,,320,0,8,,,,,7,,,65,0
56384,note_off,,,,,320,0,9,,,,,8,,,49,0
56448,note_on,,,,,0,0,4,,,,,3,,,69,108
56448,note_off,,,,,1152,0,4,,,,,3,,,71,0
56448,note_off,,,,,1152,0,3,,,,,2,,,71,0
56448,note_off,,,,,1152,0,1,,,,,0,,,71,0
56448,note_off,,,,,1152,0,2,,,,,1,,,71,0
56448,note_on,,,,,0,0,1,,,,,0,,,69,92
56448,note_off,,,,,384,0,5,,,,,4,,,65,0
56448,note_on,,,,,0,0,5,,,,,4,,,61,92
56448,note_off,,,,,384,0,6,,,,,5,,,49,0
56448,note_on,,,,,0,0,2,,,,,1,,,69,92
56448,note_on,,,,,0,0,6,,,,,5,,,54,92
56448,note_on,,,,,64,0,9,,,,,8,,,54,60
56448,note_on,,,,,0,0,7,,,,,6,,,54,92
56448,note_on,,,,,0,0,3,,,,,2,,,69,108
56448,note_off,,,,,384,0,7,,,,,6,,,49,0
56448,note_on,,,,,64,0,8,,,,,7,,,61,60
56768,note_off,,,,,320,0,9,,,,,8,,,54,0
56832,note_on,,,,,0,0,6,,,,,5,,,49,92
56832,note_off,,,,,384,0,6,,,,,5,,,54,0
56832,note_on,,,,,0,0,1,,,,,0,,,68,92
56832,note_off,,,,,384,0,1,,,,,0,,,69,0
56832,note_on,,,,,0,0,2,,,,,1,,,68,92
56832,note_off,,,,,384,0,7,,,,,6,,,54,0
56832,note_on,,,,,0,0,7,,,,,6,,,49,92
56832,note_off,,,,,384,0,2,,,,,1,,,69,0
56832,note_off,,,,,384,0,4,,,,,3,,,69,0
56832,note_off,,,,,384,0,3,,,,,2,,,69,0
56832,note_on,,,,,0,0,3,,,,,2,,,68,108
56832,note_on,,,,,64,0,9,,,,,8,,,49,60
56832,note_on,,,,,0,0,4,,,,,3,,,68,108
57120,note_off,,,,,672,0,8,,,,,7,,,61,0
57152,note_off,,,,,320,0,9,,,,,8,,,49,0
57216,note_on,,,,,0,0,7,,,,,6,,,51,92
57216,note_off,,,,,384,0,7,,,,,6,,,49,0
57216,note_on,,,,,96,0,8,,,,,7,,,66,60
57216,note_on,,,,,0,0,6,,,,,5,,,51,92
57216,note_on,,,,,0,0,5,,,,,4,,,66,92
57216,note_on,,,,,0,0,1,,,,,0,,,66,92
57216,note_off,,,,,384,0,1,,,,,0,,,68,0
57216,note_off,,,,,768,0,5,,,,,4,,,61,0
57216,note_on,,,,,0,0,2,,,,,1,,,66,92
57216,note_off,,,,,384,0,2,,,,,1,,,68,0
57216,note_on,,,,,0,0,9,,,,,8,,,59,60
57216,note_on,,,,,64,0,9,,,,,8,,,51,60
57216,note_off,,,,,384,0,6,,,,,5,,,49,0
57216,note_off,,,,,384,0,4,,,,,3,,,68,0
57216,note_on,,,,,0,0,4,,,,,3,,,66,108
57216,note_on,,,,,0,0,3,,,,,2,,,66,108
57216,note_off,,,,,384,0,3,,,,,2,,,68,0
57536,note_off,,,,,320,0,9,,,,,8,,,51,0
57536,note_off,,,,,0,0,9,,,,,8,,,59,0
57536,note_off,,,,,320,0,8,,,,,7,,,66,0
57600,note_off,,,,,384,0,3,,,,,2,,,66,0
57600,note_on,,,,,0,0,5,,,,,4,,,59,92
57600,note_off,,,,,384,0,5,,,,,4,,,66,0
57600,note_on,,,,,0,0,6,,,,,5,,,52,92
57600,note_on,,,,,0,0,3,,,,,2,,,68,108
57600,note_on,,,,,64,0,9,,,,,8,,,52,60
57600,note_on,,,,,0,0,4,,,,,3,,,68,108
57600,note_on,,,,,0,0,7,,,,,6,,,52,92
57600,note_off,,,,,384,0,2,,,,,1,,,66,0
57600,note_on,,,,,0,0,2,,,,,1,,,68,92
57600,note_off,,,,,384,0,1,,,,,0,,,66,0
57600,note_on,,,,,0,0,1,,,,,0,,,68,92
57600,note_off,,,,,384,0,4,,,,,3,,,66,0
57600,note_off,,,,,384,0,6,,,,,5,,,51,0
57600,note_off,,,,,384,0,7,,,,,6,,,51,0
57600,note_on,,,,,64,0,8,,,,,7,,,59,60
57920,note_off,,,,,320,0,9,,,,,8,,,52,0
57920,note_off,,,,,320,0,8,,,,,7,,,59,0
57984,note_off,,,,,384,0,7,,,,,6,,,52,0
57984,note_off,,,,,384,0,6,,,,,5,,,52,0
57984,note_on,,,,,0,0,6,,,,,5,,,49,92
57984,note_off,,,,,384,0,2,,,,,1,,,68,0
57984,note_on,,,,,0,0,2,,,,,1,,,76,92
57984,note_on,,,,,0,0,7,,,,,6,,,49,92
57984,note_on,,,,,64,0,8,,,,,7,,,61,60
57984,note_off,,,,,384,0,4,,,,,3,,,68,0
57984,note_on,,,,,0,0,4,,,,,3,,,76,108
57984,note_on,,,,,0,0,3,,,,,2,,,76,108
57984,note_off,,,,,384,0,5,,,,,4,,,59,0
57984,note_on,,,,,0,0,5,,,,,4,,,61,92
57984,note_on,,,,,64,0,9,,,,,8,,,49,60
57984,note_off,,,,,384,0,1,,,,,0,,,68,0
57984,note_on,,,,,0,0,1,,,,,0,,,76,92
57984,note_off,,,,,384,0,3,,,,,2,,,68,0
58304,note_off,,,,,320,0,9,,,,,8,,,49,0
58368,note_on,,,,,0,0,6,,,,,5,,,54,92
58368,note_on,,,,,64,0,9,,,,,8,,,54,60
58368,note_on,,,,,0,0,1,,,,,0,,,70,92
58368,note_off,,,,,384,0,7,,,,,6,,,49,0
58368,note_on,,,,,0,0,7,,,,,6,,,54,92
58368,note_off,,,,,384,0,6,,,,,5,,,49,0
58368,note_on,,,,,0,0,4,,,,,3,,,70,108
58368,note_off,,,,,384,0,1,,,,,0,,,76,0
58368,note_off,,,,,384,0,2,,,,,1,,,76,0
58368,note_on,,,,,0,0,2,,,,,1,,,70,92
58368,note_on,,,,,0,0,3,,,,,2,,,70,108
58368,note_off,,,,,384,0,3,,,,,2,,,76,0
58368,note_off,,,,,384,0,4,,,,,3,,,76,0
58656,note_off,,,,,672,0,8,,,,,7,,,61,0
58688,note_off,,,,,320,0,9,,,,,8,,,54,0
58752,note_off,,,,,384,0,7,,,,,6,,,54,0
58752,note_off,,,,,384,0,3,,,,,2,,,70,0
58752,note_off,,,,,384,0,1,,,,,0,,,70,0
58752,note_on,,,,,0,0,3,,,,,2,,,71,108
58752,note_on,,,,,0,0,5,,,,,4,,,66,92
58752,note_off,,,,,768,0,5,,,,,4,,,61,0
58752,note_on,,,,,0,0,9,,,,,8,,,59,60
58752,note_on,,,,,0,0,1,,,,,0,,,71,92
58752,note_on,,,,,0,0,2,,,,,1,,,71,92
58752,note_on,,,,,96,0,8,,,,,7,,,66,60
58752,note_off,,,,,384,0,2,,,,,1,,,70,0
58752,note_on,,,,,64,0,9,,,,,8,,,51,60
58752,note_off,,,,,384,0,6,,,,,5,,,54,0
58752,note_on,,,,,0,0,6,,,,,5,,,51,92
58752,note_on,,,,,0,0,4,,,,,3,,,71,108
58752,note_off,,,,,384,0,4,,,,,3,,,70,0
58752,note_on,,,,,0,0,7,,,,,6,,,51,92
59072,note_off,,,,,320,0,9,,,,,8,,,51,0
59072,note_off,,,,,320,0,8,,,,,7,,,66,0
59072,note_off,,,,,0,0,9,,,,,8,,,59,0
59136,note_off,,,,,384,0,5,,,,,4,,,66,0
59136,note_on,,,,,0,0,7,,,,,6,,,47,92
59136,note_on,,,,,0,0,5,,,,,4,,,63,92
59136,note_on,,,,,0,0,6,,,,,5,,,47,92
59136,note_off,,,,,384,0,7,,,,,6,,,51,0
59136,note_on,,,,,64,0,8,,,,,7,,,63,60
59136,note_off,,,,,384,0,6,,,,,5,,,51,0
59136,note_on,,,,,64,0,9,,,,,8,,,47,60
59456,note_off,,,,,320,0,8,,,,,7,,,63,0
59456,note_off,,,,,320,0,9,,,,,8,,,47,0
59520,note_on,,,,,64,0,9,,,,,8,,,56,60
59520,note_off,,,,,384,0,6,,,,,5,,,47,0
59520,note_on,,,,,0,0,5,,,,,4,,,59,92
59520,note_on,,,,,64,0,8,,,,,7,,,59,60
59520,note_on,,,,,0,0,7,,,,,6,,,56,92
59520,note_off,,,,,384,0,7,,,,,6,,,47,0
59520,note_off,,,,,384,0,5,,,,,4,,,63,0
59520,note_on,,,,,0,0,6,,,,,5,,,56,92
59840,note_off,,,,,320,0,8,,,,,7,,,59,0
59840,note_off,,,,,320,0,9,,,,,8,,,56,0
59904,note_off,,,,,1152,0,2,,,,,1,,,71,0
59904,note_on,,,,,0,0,2,,,,,1,,,81,92
59904,note_off,,,,,1152,0,1,,,,,0,,,71,0
59904,note_on,,,,,64,0,9,,,,,8,,,49,60
59904,note_off,,,,,384,0,6,,,,,5,,,56,0
59904,note_on,,,,,0,0,3,,,,,2,,,81,108
59904,note_off,,,,,1152,0,3,,,,,2,,,71,0
59904,note_on,,,,,0,0,1,,,,,0,,,81,92
59904,note_on,,,,,0,0,6,,,,,5,,,49,92
59904,note_on,,,,,0,0,9,,,,,8,,,57,60
59904,note_off,,,,,384,0,7,,,,,6,,,56,0
59904,note_on,,,,,0,0,7,,,,,6,,,49,92
59904,note_on,,,,,0,0,4,,,,,3,,,81,108
59904,note_off,,,,,1152,0,4,,,,,3,,,71,0
59904,note_off,,,,,384,0,5,,,,,4,,,59,0
59904,note_on,,,,,0,0,5,,,,,4,,,64,92
59904,note_on,,,,,64,0,8,,,,,7,,,64,60
60224,note_off,,,,,0,0,9,,,,,8,,,57,0
60224,note_off,,,,,320,0,9,,,,,8,,,49,0
60224,note_off,,,,,320,0,8,,,,,7,,,64,0
60288,note_on,,,,,64,0,9,,,,,8,,,54,60
60288,note_on,,,,,0,0,6,,,,,5,,,54,92
60288,note_off,,,,,384,0,6,,,,,5,,,49,0
60288,note_on,,,,,64,0,8,,,,,7,,,69,60
60288,note_off,,,,,384,0,7,,,,,6,,,49,0
60288,note_on,,,,,0,0,7,,,,,6,,,54,92
60288,note_off,,,,,384,0,5,,,,,4,,,64,0
60288,note_on,,,,,0,0,5,,,,,4,,,69,92
60608,note_off,,,,,320,0,9,,,,,8,,,54,0
60672,note_off,,,,,768,0,4,,,,,3,,,81,0
60672,note_off,,,,,384,0,7,,,,,6,,,54,0
60672,note_on,,,,,0,0,7,,,,,6,,,57,92
60672,note_on,,,,,0,0,4,,,,,3,,,73,108
60672,note_off,,,,,384,0,6,,,,,5,,,54,0
60672,note_on,,,,,0,0,6,,,,,5,,,57,92
60672,note_on,,,,,0,0,3,,,,,2,,,73,108
60672,note_on,,,,,0,0,1,,,,,0,,,73,92
60672,note_off,,,,,768,0,1,,,,,0,,,81,0
60672,note_on,,,,,64,0,9,,,,,8,,,57,60
60672,note_off,,,,,768,0,2,,,,,1,,,81,0
60672,note_on,,,,,0,0,2,,,,,1,,,73,92
60672,note_off,,,,,768,0,3,,,,,2,,,81,0
60992,note_off,,,,,320,0,9,,,,,8,,,57,0
61056,note_on,,,,,0,0,4,,,,,3,,,71,108
61056,note_on,,,,,0,0,9,,,,,8,,,59,60
61056,note_on,,,,,0,0,9,,,,,8,,,57,60
61056,note_on,,,,,64,0,9,,,,,8,,,51,60
61056,note_off,,,,,384,0,2,,,,,1,,,73,0
61056,note_on,,,,,0,0,2,,,,,1,,,71,92
61056,note_off,,,,,384,0,4,,,,,3,,,73,0
61056,note_on,,,,,0,0,1,,,,,0,,,71,92
61056,note_off,,,,,384,0,7,,,,,6,,,57,0
61056,note_off,,,,,384,0,3,,,,,2,,,73,0
61056,note_on,,,,,0,0,6,,,,,5,,,51,92
61056,note_on,,,,,0,0,3,,,,,2,,,71,108
61056,note_off,,,,,384,0,6,,,,,5,,,57,0
61056,note_on,,,,,0,0,7,,,,,6,,,51,92
61056,note_off,,,,,384,0,1,,,,,0,,,73,0
61376,note_off,,,,,1088,0,8,,,,,7,,,69,0
61376,note_off,,,,,320,0,9,,,,,8,,,51,0
61376,note_off,,,,,0,0,9,,,,,8,,,59,0
61376,note_off,,,,,0,0,9,,,,,8,,,57,0
61440,note_on,,,,,64,0,9,,,,,8,,,59,60
61440,note_off,,,,,1152,0,5,,,,,4,,,69,0
61440,note_on,,,,,0,0,5,,,,,4,,,68,92
61440,note_on,,,,,0,0,6,,,,,5,,,59,92
61440,note_off,,,,,384,0,6,,,,,5,,,51,0
61440,note_off,,,,,384,0,7,,,,,6,,,51,0
61440,note_on,,,,,64,0,8,,,,,7,,,68,60
61440,note_on,,,,,0,0,7,,,,,6,,,59,92
61628,note_off,,,,,188,0,8,,,,,7,,,68,0
61632,note_on,,,,,4,0,8,,,,,7,,,66,60
61632,note_on,,,,,0,0,5,,,,,4,,,66,92
61632,note_off,,,,,192,0,5,,,,,4,,,68,0
61760,note_off,,,,,320,0,9,,,,,8,,,59,0
61820,note_off,,,,,188,0,8,,,,,7,,,66,0
61824,note_on,,,,,0,0,3,,,,,2,,,76,108
61824,note_off,,,,,768,0,3,,,,,2,,,71,0
61824,note_on,,,,,0,0,1,,,,,0,,,76,92
61824,note_on,,,,,64,0,9,,,,,8,,,61,60
61824,note_off,,,,,768,0,1,,,,,0,,,71,0
61824,note_off,,,,,192,0,5,,,,,4,,,66,0
61824,note_on,,,,,4,0,8,,,,,7,,,64,60
61824,note_on,,,,,0,0,7,,,,,6,,,61,92
61824,note_off,,,,,768,0,4,,,,,3,,,71,0
61824,note_on,,,,,0,0,4,,,,,3,,,76,108
61824,note_off,,,,,384,0,6,,,,,5,,,59,0
61824,note_on,,,,,0,0,2,,,,,1,,,76,92
61824,note_off,,,,,768,0,2,,,,,1,,,71,0
61824,note_on,,,,,0,0,6,,,,,5,,,61,92
61824,note_on,,,,,0,0,5,,,,,4,,,64,92
61824,note_off,,,,,384,0,7,,,,,6,,,59,0
62144,note_off,,,,,320,0,8,,,,,7,,,64,0
62144,note_off,,,,,320,0,9,,,,,8,,,61,0
62208,note_off,,,,,384,0,3,,,,,2,,,76,0
62208,note_on,,,,,64,0,8,,,,,7,,,61,60
62208,note_on,,,,,0,0,3,,,,,2,,,68,108
62208,note_on,,,,,0,0,1,,,,,0,,,68,92
62208,note_off,,,,,384,0,5,,,,,4,,,64,0
62208,note_on,,,,,0,0,8,,,,,7,,,64,60
62208,note_on,,,,,0,0,5,,,,,4,,,64,92
62208,note_on,,,,,0,0,6,,,,,5,,,57,92
62208,note_on,,,,,0,0,7,,,,,6,,,57,92
62208,note_off,,,,,384,0,7,,,,,6,,,61,0
62208,note_off,,,,,384,0,4,,,,,3,,,76,0
62208,note_on,,,,,0,0,4,,,,,3,,,68,108
62208,note_off,,,,,384,0,2,,,,,1,,,76,0
62208,note_on,,,,,0,0,2,,,,,1,,,68,92
62208,note_on,,,,,64,0,9,,,,,8,,,57,60
62208,note_off,,,,,384,0,6,,,,,5,,,61,0
62208,note_off,,,,,384,0,1,,,,,0,,,76,0
62400,note_on,,,,,0,0,3,,,,,2,,,66,108
62400,note_off,,,,,192,0,3,,,,,2,,,68,0
62400,note_on,,,,,0,0,2,,,,,1,,,66,92
62400,note_on,,,,,0,0,4,,,,,3,,,66,108
62400,note_on,,,,,0,0,1,,,,,0,,,66,92
62400,note_off,,,,,192,0,1,,,,,0,,,68,0
62400,note_off,,,,,192,0,4,,,,,3,,,68,0
62400,note_off,,,,,192,0,2,,,,,1,,,68,0
62528,note_off,,,,,320,0,9,,,,,8,,,57,0
62528,note_off,,,,,320,0,8,,,,,7,,,61,0
62592,note_on,,,,,0,0,7,,,,,6,,,59,92
62592,note_off,,,,,384,0,7,,,,,6,,,57,0
62592,note_off,,,,,192,0,4,,,,,3,,,66,0
62592,note_off,,,,,192,0,2,,,,,1,,,66,0
62592,note_off,,,,,192,0,1,,,,,0,,,66,0
62592,note_off,,,,,384,0,6,,,,,5,,,57,0
62592,note_on,,,,,0,0,2,,,,,1,,,66,92
62592,note_on,,,,,0,0,4,,,,,3,,,66,108
62592,note_on,,,,,64,0,9,,,,,8,,,59,60
62592,note_on,,,,,0,0,9,,,,,8,,,64,60
62592,note_on,,,,,64,0,8,,,,,7,,,64,60
62592,note_off,,,,,192,0,3,,,,,2,,,66,0
62592,note_on,,,,,0,0,3,,,,,2,,,68,108
62592,note_on,,,,,0,0,6,,,,,5,,,59,92
62592,note_on,,,,,0,0,1,,,,,0,,,68,92
62640,note_on,,,,,0,0,1,,,,,0,,,66,92
62640,note_off,,,,,48,0,8,,,,,7,,,64,0
62640,note_on,,,,,0,0,8,,,,,7,,,63,60
62640,note_off,,,,,48,0,3,,,,,2,,,68,0
62640,note_on,,,,,0,0,3,,,,,2,,,66,108
62640,note_off,,,,,48,0,1,,,,,0,,,68,0
62688,note_off,,,,,48,0,1,,,,,0,,,66,0
62688,note_on,,,,,0,0,3,,,,,2,,,68,108
62688,note_off,,,,,48,0,3,,,,,2,,,66,0
62688,note_off,,,,,48,0,8,,,,,7,,,63,0
62688,note_on,,,,,0,0,8,,,,,7,,,64,60
62688,note_on,,,,,0,0,1,,,,,0,,,68,92
62736,note_off,,,,,48,0,3,,,,,2,,,68,0
62736,note_on,,,,,0,0,8,,,,,7,,,63,60
62736,note_off,,,,,48,0,1,,,,,0,,,68,0
62736,note_off,,,,,48,0,8,,,,,7,,,64,0
62736,note_on,,,,,0,0,1,,,,,0,,,66,92
62736,note_on,,,,,0,0,3,,,,,2,,,66,108
62784,note_on,,,,,0,0,8,,,,,7,,,64,60
62784,note_on,,,,,0,0,1,,,,,0,,,68,92
62784,note_off,,,,,48,0,1,,,,,0,,,66,0
62784,note_on,,,,,0,0,3,,,,,2,,,68,108
62784,note_off,,,,,48,0,8,,,,,7,,,63,0
62784,note_off,,,,,48,0,3,,,,,2,,,66,0
62832,note_on,,,,,0,0,1,,,,,0,,,66,92
62832,note_on,,,,,0,0,8,,,,,7,,,63,60
62832,note_off,,,,,48,0,1,,,,,0,,,68,0
62832,note_off,,,,,48,0,8,,,,,7,,,64,0
62832,note_off,,,,,48,0,3,,,,,2,,,68,0
62832,note_on,,,,,0,0,3,,,,,2,,,66,108
62880,note_on,,,,,0,0,3,,,,,2,,,68,108
62880,note_off,,,,,48,0,8,,,,,7,,,64,0
62880,note_off,,,,,48,0,3,,,,,2,,,66,0
62880,note_off,,,,,48,0,1,,,,,0,,,66,0
62880,note_on,,,,,0,0,1,,,,,0,,,68,92
62912,note_off,,,,,320,0,9,,,,,8,,,59,0
62912,note_off,,,,,0,0,9,,,,,8,,,64,0
62928,note_off,,,,,48,0,1,,,,,0,,,68,0
62928,note_on,,,,,0,0,1,,,,,0,,,66,92
62928,note_on,,,,,0,0,3,,,,,2,,,66,108
62928,note_off,,,,,48,0,3,,,,,2,,,68,0
62972,note_off,,,,,92,0,8,,,,,7,,,63,0
62976,note_on,,,,,4,0,8,,,,,7,,,63,60
62976,note_on,,,,,0,0,9,,,,,8,,,51,60
62976,note_on,,,,,64,0,9,,,,,8,,,47,60
62976,note_off,,,,,48,0,1,,,,,0,,,66,0
62976,note_on,,,,,0,0,1,,,,,0,,,68,92
62976,note_on,,,,,0,0,7,,,,,6,,,47,92
62976,note_off,,,,,384,0,7,,,,,6,,,59,0
62976,note_on,,,,,0,0,6,,,,,5,,,47,92
62976,note_on,,,,,0,0,3,,,,,2,,,68,108
62976,note_off,,,,,384,0,6,,,,,5,,,59,0
62976,note_on,,,,,0,0,5,,,,,4,,,63,92
62976,note_off,,,,,768,0,5,,,,,4,,,64,0
62976,note_off,,,,,48,0,3,,,,,2,,,66,0
63024,note_off,,,,,48,0,1,,,,,0,,,68,0
63024,note_on,,,,,0,0,3,,,,,2,,,66,108
63024,note_off,,,,,48,0,3,,,,,2,,,68,0
63024,note_on,,,,,0,0,1,,,,,0,,,66,92
63168,note_on,,,,,0,0,4,,,,,3,,,64,108
63168,note_off,,,,,144,0,3,,,,,2,,,66,0
63168,note_on,,,,,0,0,3,,,,,2,,,64,108
63168,note_off,,,,,576,0,4,,,,,3,,,66,0
63168,note_off,,,,,576,0,2,,,,,1,,,66,0
63168,note_on,,,,,0,0,2,,,,,1,,,64,92
63168,note_on,,,,,0,0,1,,,,,0,,,64,92
63168,note_off,,,,,144,0,1,,,,,0,,,66,0
63296,note_off,,,,,0,0,9,,,,,8,,,51,0
63296,note_off,,,,,320,0,9,,,,,8,,,47,0
63296,note_off,,,,,320,0,8,,,,,7,,,63,0
63360,note_off,,,,,192,0,1,,,,,0,,,64,0
63360,note_on,,,,,0,0,1,,,,,0,,,64,92
63360,note_on,,,,,0,0,3,,,,,2,,,64,108
63360,note_on,,,,,0,0,7,,,,,6,,,40,92
63360,note_off,,,,,384,0,7,,,,,6,,,47,0
63360,note_off,,,,,192,0,3,,,,,2,,,64,0
63360,note_off,,,,,384,0,5,,,,,4,,,63,0
63360,note_off,,,,,192,0,4,,,,,3,,,64,0
63360,note_on,,,,,0,0,4,,,,,3,,,64,108
63360,note_on,,,,,0,0,5,,,,,4,,,64,92
63360,note_on,,,,,64,0,8,,,,,7,,,64,60
63360,note_off,,,,,192,0,2,,,,,1,,,64,0
63360,note_on,,,,,0,0,2,,,,,1,,,64,92
63360,note_off,,,,,384,0,6,,,,,5,,,47,0
63360,note_on,,,,,0,0,6,,,,,5,,,40,92
63360,note_on,,,,,64,0,9,,,,,8,,,40,60
64416,note_off,,,,,1056,0,8,,,,,7,,,64,0
64416,note_off,,,,,1056,0,9,,,,,8,,,40,0
64512,note_on,,,,,96,0,9,,,,,8,,,52,75
64512,note_off,,,,,1152,0,3,,,,,2,,,64,0
64512,note_on,,,,,0,0,3,,,,,2,,,71,108
64512,note_off,,,,,1152,0,5,,,,,4,,,64,0
64512,note_off,,,,,1152,0,1,,,,,0,,,64,0
64512,note_on,,,,,0,0,1,,,,,0,,,71,92
64512,note_on,,,,,0,0,4,,,,,3,,,71,108
64512,note_off,,,,,1152,0,4,,,,,3,,,64,0
64512,note_on,,,,,0,0,6,,,,,5,,,52,92
64512,note_off,,,,,1152,0,2,,,,,1,,,64,0
64512,note_off,,,,,1152,0,7,,,,,6,,,40,0
64512,note_on,,,,,0,0,7,,,,,6,,,52,92
64512,note_on,,,,,96,0,8,,,,,7,,,68,75
64512,note_off,,,,,1152,0,6,,,,,5,,,40,0
64512,note_on,,,,,0,0,2,,,,,1,,,71,92
64512,note_on,,,,,0,0,5,,,,,4,,,68,92
64700,note_off,,,,,188,0,9,,,,,8,,,52,0
64704,note_off,,,,,192,0,6,,,,,5,,,52,0
64704,note_on,,,,,0,0,6,,,,,5,,,54,92
64704,note_on,,,,,4,0,9,,,,,8,,,54,75
64704,note_on,,,,,0,0,7,,,,,6,,,54,92
64704,note_off,,,,,192,0,7,,,,,6,,,52,0
64892,note_off,,,,,188,0,9,,,,,8,,,54,0
64896,note_on,,,,,0,0,7,,,,,6,,,56,92
64896,note_off,,,,,192,0,6,,,,,5,,,54,0
64896,note_on,,,,,0,0,6,,,,,5,,,56,92
64896,note_on,,,,,0,0,9,,,,,8,,,64,75
64896,note_off,,,,,192,0,7,,,,,6,,,54,0
64896,note_on,,,,,4,0,9,,,,,8,,,56,75
65084,note_off,,,,,0,0,9,,,,,8,,,64,0
65084,note_off,,,,,188,0,9,,,,,8,,,56,0
65088,note_on,,,,,0,0,7,,,,,6,,,57,92
65088,note_off,,,,,192,0,7,,,,,6,,,56,0
65088,note_on,,,,,4,0,9,,,,,8,,,57,75
65088,note_on,,,,,0,0,6,,,,,5,,,57,92
65088,note_off,,,,,192,0,6,,,,,5,,,56,0
65184,note_off,,,,,672,0,8,,,,,7,,,68,0
65276,note_off,,,,,188,0,9,,,,,8,,,57,0
65280,note_on,,,,,0,0,1,,,,,0,,,68,92
65280,note_on,,,,,0,0,3,,,,,2,,,68,108
65280,note_on,,,,,0,0,2,,,,,1,,,68,92
65280,note_off,,,,,768,0,2,,,,,1,,,71,0
65280,note_off,,,,,768,0,5,,,,,4,,,68,0
65280,note_on,,,,,0,0,6,,,,,5,,,59,92
65280,note_off,,,,,192,0,6,,,,,5,,,57,0
65280,note_off,,,,,192,0,7,,,,,6,,,57,0
65280,note_off,,,,,768,0,4,,,,,3,,,71,0
65280,note_off,,,,,768,0,1,,,,,0,,,71,0
65280,note_on,,,,,0,0,5,,,,,4,,,63,92
65280,note_on,,,,,0,0,4,,,,,3,,,68,108
65280,note_off,,,,,768,0,3,,,,,2,,,71,0
65280,note_on,,,,,96,0,8,,,,,7,,,63,75
65280,note_on,,,,,4,0,9,,,,,8,,,59,75
65280,note_on,,,,,0,0,7,,,,,6,,,59,92
65280,note_on,,,,,0,0,9,,,,,8,,,68,75
65468,note_off,,,,,188,0,9,,,,,8,,,59,0
65468,note_off,,,,,0,0,9,,,,,8,,,68,0
65472,note_on,,,,,4,0,9,,,,,8,,,47,75
65472,note_on,,,,,0,0,6,,,,,5,,,47,92
65472,note_off,,,,,192,0,6,,,,,5,,,59,0
65472,note_on,,,,,0,0,7,,,,,6,,,47,92
65472,note_off,,,,,192,0,7,,,,,6,,,59,0
65600,note_off,,,,,320,0,8,,,,,7,,,63,0
65660,note_off,,,,,188,0,9,,,,,8,,,47,0
65664,note_off,,,,,384,0,4,,,,,3,,,68,0
65664,note_on,,,,,0,0,5,,,,,4,,,61,92
65664,note_on,,,,,0,0,7,,,,,6,,,49,92
65664,note_on,,,,,0,0,4,,,,,3,,,64,108
65664,note_on,,,,,0,0,3,,,,,2,,,64,108
65664,note_off,,,,,384,0,3,,,,,2,,,68,0
65664,note_off,,,,,384,0,1,,,,,0,,,68,0
65664,note_on,,,,,0,0,6,,,,,5,,,49,92
65664,note_on,,,,,0,0,1,,,,,0,,,64,92
65664,note_off,,,,,384,0,2,,,,,1,,,68,0
65664,note_off,,,,,192,0,6,,,,,5,,,47,0
65664,note_on,,,,,0,0,2,,,,,1,,,64,92
65664,note_off,,,,,192,0,7,,,,,6,,,47,0
65664,note_on,,,,,4,0,9,,,,,8,,,49,75
65664,note_off,,,,,384,0,5,,,,,4,,,63,0
65664,note_on,,,,,64,0,8,,,,,7,,,61,75
65852,note_off,,,,,188,0,9,,,,,8,,,49,0
65856,note_off,,,,,192,0,7,,,,,6,,,49,0
65856,note_on,,,,,0,0,7,,,,,6,,,51,92
65856,note_on,,,,,4,0,9,,,,,8,,,51,75
65856,note_on,,,,,0,0,6,,,,,5,,,51,92
65856,note_off,,,,,192,0,6,,,,,5,,,49,0
66044,note_off,,,,,188,0,9,,,,,8,,,51,0
66048,note_on,,,,,0,0,6,,,,,5,,,52,92
66048,note_off,,,,,192,0,7,,,,,6,,,51,0
66048,note_on,,,,,0,0,7,,,,,6,,,52,92
66048,note_off,,,,,192,0,6,,,,,5,,,51,0
66048,note_on,,,,,4,0,9,,,,,8,,,52,75
66236,note_off,,,,,188,0,9,,,,,8,,,52,0
66240,note_on,,,,,0,0,6,,,,,5,,,54,92
66240,note_on,,,,,0,0,7,,,,,6,,,54,92
66240,note_off,,,,,192,0,7,,,,,6,,,52,0
66240,note_on,,,,,4,0,9,,,,,8,,,54,75
66240,note_off,,,,,192,0,6,,,,,5,,,52,0
66336,note_off,,,,,672,0,8,,,,,7,,,61,0
66428,note_off,,,,,188,0,9,,,,,8,,,54,0
66432,note_on,,,,,0,0,6,,,,,5,,,56,92
66432,note_off,,,,,192,0,6,,,,,5,,,54,0
66432,note_on,,,,,96,0,8,,,,,7,,,59,75
66432,note_off,,,,,768,0,5,,,,,4,,,61,0
66432,note_on,,,,,0,0,7,,,,,6,,,56,92
66432,note_on,,,,,4,0,9,,,,,8,,,56,75
66432,note_on,,,,,0,0,9,,,,,8,,,64,75
66432,note_off,,,,,192,0,7,,,,,6,,,54,0
66432,note_on,,,,,0,0,5,,,,,4,,,59,92
66620,note_off,,,,,188,0,9,,,,,8,,,56,0
66620,note_off,,,,,0,0,9,,,,,8,,,64,0
66624,note_on,,,,,0,0,7,,,,,6,,,44,92
66624,note_off,,,,,192,0,6,,,,,5,,,56,0
66624,note_on,,,,,4,0,9,,,,,8,,,44,75
66624,note_off,,,,,192,0,7,,,,,6,,,56,0
66624,note_on,,,,,0,0,6,,,,,5,,,44,92
66752,note_off,,,,,320,0,8,,,,,7,,,59,0
66812,note_off,,,,,188,0,9,,,,,8,,,44,0
66816,note_on,,,,,0,0,5,,,,,4,,,64,92
66816,note_on,,,,,64,0,8,,,,,7,,,64,75
66816,note_off,,,,,1152,0,1,,,,,0,,,64,0
66816,note_on,,,,,0,0,1,,,,,0,,,73,92
66816,note_off,,,,,192,0,7,,,,,6,,,44,0
66816,note_off,,,,,1152,0,3,,,,,2,,,64,0
66816,note_off,,,,,384,0,5,,,,,4,,,59,0
66816,note_on,,,,,0,0,7,,,,,6,,,45,92
66816,note_on,,,,,0,0,3,,,,,2,,,73,108
66816,note_off,,,,,192,0,6,,,,,5,,,44,0
66816,note_on,,,,,0,0,6,,,,,5,,,45,92
66816,note_on,,,,,0,0,2,,,,,1,,,73,92
66816,note_off,,,,,1152,0,4,,,,,3,,,64,0
66816,note_on,,,,,0,0,4,,,,,3,,,73,108
66816,note_off,,,,,1152,0,2,,,,,1,,,64,0
66816,note_on,,,,,4,0,9,,,,,8,,,45,75
66816,note_on,,,,,0,0,9,,,,,8,,,52,75
66816,note_on,,,,,0,0,9,,,,,8,,,54,75
67004,note_off,,,,,0,0,9,,,,,8,,,54,0
67004,note_off,,,,,0,0,9,,,,,8,,,52,0
67004,note_off,,,,,188,0,9,,,,,8,,,45,0
67008,note_off,,,,,192,0,7,,,,,6,,,45,0
67008,note_on,,,,,0,0,7,,,,,6,,,57,92
67008,note_on,,,,,4,0,9,,,,,8,,,57,75
67008,note_off,,,,,192,0,6,,,,,5,,,45,0
67008,note_on,,,,,0,0,6,,,,,5,,,57,92
67196,note_off,,,,,188,0,9,,,,,8,,,57,0
67200,note_on,,,,,0,0,1,,,,,0,,,66,92
67200,note_off,,,,,384,0,2,,,,,1,,,73,0
67200,note_on,,,,,0,0,2,,,,,1,,,66,92
67200,note_off,,,,,192,0,7,,,,,6,,,57,0
67200,note_on,,,,,0,0,7,,,,,6,,,59,92
67200,note_off,,,,,384,0,1,,,,,0,,,73,0
67200,note_off,,,,,192,0,6,,,,,5,,,57,0
67200,note_off,,,,,384,0,3,,,,,2,,,73,0
67200,note_on,,,,,4,0,9,,,,,8,,,59,75
67200,note_on,,,,,0,0,9,,,,,8,,,64,75
67200,note_off,,,,,384,0,4,,,,,3,,,73,0
67200,note_on,,,,,0,0,4,,,,,3,,,66,108
67200,note_on,,,,,0,0,3,,,,,2,,,66,108
67200,note_on,,,,,0,0,6,,,,,5,,,59,92
67388,note_off,,,,,188,0,9,,,,,8,,,59,0
67388,note_off,,,,,0,0,9,,,,,8,,,64,0
67392,note_on,,,,,0,0,7,,,,,6,,,57,92
67392,note_off,,,,,192,0,7,,,,,6,,,59,0
67392,note_on,,,,,0,0,6,,,,,5,,,57,92
67392,note_off,,,,,192,0,6,,,,,5,,,59,0
67392,note_on,,,,,4,0,9,,,,,8,,,57,75
67488,note_off,,,,,672,0,8,,,,,7,,,64,0
67580,note_off,,,,,188,0,9,,,,,8,,,57,0
67584,note_on,,,,,0,0,2,,,,,1,,,68,92
67584,note_off,,,,,384,0,4,,,,,3,,,66,0
67584,note_on,,,,,0,0,9,,,,,8,,,63,75
67584,note_on,,,,,0,0,4,,,,,3,,,68,108
67584,note_off,,,,,192,0,6,,,,,5,,,57,0
67584,note_off,,,,,384,0,2,,,,,1,,,66,0
67584,note_on,,,,,0,0,7,,,,,6,,,59,92
67584,note_on,,,,,0,0,6,,,,,5,,,59,92
67584,note_on,,,,,4,0,9,,,,,8,,,59,75
67584,note_on,,,,,0,0,1,,,,,0,,,68,92
67584,note_off,,,,,384,0,1,,,,,0,,,66,0
67584,note_on,,,,,96,0,8,,,,,7,,,63,75
67584,note_off,,,,,192,0,7,,,,,6,,,57,0
67584,note_on,,,,,0,0,5,,,,,4,,,63,92
67584,note_off,,,,,768,0,5,,,,,4,,,64,0
67584,note_on,,,,,0,0,3,,,,,2,,,68,108
67584,note_off,,,,,384,0,3,,,,,2,,,66,0
67772,note_off,,,,,0,0,9,,,,,8,,,63,0
67772,note_off,,,,,188,0,9,,,,,8,,,59,0
67776,note_on,,,,,0,0,4,,,,,3,,,69,108
67776,note_on,,,,,0,0,3,,,,,2,,,69,108
67776,note_off,,,,,192,0,6,,,,,5,,,59,0
67776,note_on,,,,,0,0,6,,,,,5,,,47,92
67776,note_on,,,,,0,0,1,,,,,0,,,69,92
67776,note_off,,,,,192,0,7,,,,,6,,,59,0
67776,note_on,,,,,0,0,7,,,,,6,,,47,92
67776,note_off,,,,,192,0,4,,,,,3,,,68,0
67776,note_off,,,,,192,0,3,,,,,2,,,68,0
67776,note_on,,,,,4,0,9,,,,,8,,,47,75
67776,note_on,,,,,0,0,2,,,,,1,,,69,92
67776,note_off,,,,,192,0,1,,,,,0,,,68,0
67776,note_off,,,,,192,0,2,,,,,1,,,68,0
67904,note_off,,,,,320,0,8,,,,,7,,,63,0
67964,note_off,,,,,188,0,9,,,,,8,,,47,0
67968,note_on,,,,,0,0,2,,,,,1,,,68,92
67968,note_off,,,,,192,0,3,,,,,2,,,69,0
67968,note_off,,,,,192,0,7,,,,,6,,,47,0
67968,note_on,,,,,64,0,8,,,,,7,,,64,75
67968,note_on,,,,,0,0,6,,,,,5,,,52,92
67968,note_off,,,,,192,0,6,,,,,5,,,47,0
67968,note_on,,,,,4,0,9,,,,,8,,,52,75
67968,note_on,,,,,0,0,7,,,,,6,,,52,92
67968,note_on,,,,,0,0,3,,,,,2,,,68,108
67968,note_on,,,,,0,0,5,,,,,4,,,64,92
67968,note_off,,,,,192,0,2,,,,,1,,,69,0
67968,note_off,,,,,192,0,4,,,,,3,,,69,0
67968,note_on,,,,,0,0,4,,,,,3,,,68,108
67968,note_off,,,,,384,0,5,,,,,4,,,63,0
67968,note_on,,,,,0,0,1,,,,,0,,,68,92
67968,note_off,,,,,192,0,1,,,,,0,,,69,0
68156,note_off,,,,,188,0,9,,,,,8,,,52,0
68160,note_on,,,,,0,0,6,,,,,5,,,59,92
68160,note_off,,,,,192,0,6,,,,,5,,,52,0
68160,note_on,,,,,4,0,9,,,,,8,,,59,75
68160,note_on,,,,,0,0,7,,,,,6,,,59,92
68160,note_off,,,,,192,0,7,,,,,6,,,52,0
68348,note_off,,,,,188,0,9,,,,,8,,,59,0
68352,note_on,,,,,0,0,7,,,,,6,,,61,92
68352,note_on,,,,,4,0,9,,,,,8,,,61,75
68352,note_off,,,,,192,0,7,,,,,6,,,59,0
68352,note_off,,,,,192,0,6,,,,,5,,,59,0
68352,note_on,,,,,0,0,6,,,,,5,,,61,92
68540,note_off,,,,,188,0,9,,,,,8,,,61,0
68544,note_off,,,,,192,0,6,,,,,5,,,61,0
68544,note_off,,,,,192,0,7,,,,,6,,,61,0
68544,note_on,,,,,4,0,9,,,,,8,,,63,75
68544,note_on,,,,,0,0,7,,,,,6,,,63,92
68544,note_on,,,,,0,0,6,,,,,5,,,63,92
68732,note_off,,,,,188,0,9,,,,,8,,,63,0
68736,note_on,,,,,4,0,9,,,,,8,,,64,75
68736,note_on,,,,,0,0,6,,,,,5,,,64,92
68736,note_off,,,,,192,0,7,,,,,6,,,63,0
68736,note_on,,,,,0,0,7,,,,,6,,,64,92
68736,note_off,,,,,192,0,6,,,,,5,,,63,0
68924,note_off,,,,,188,0,9,,,,,8,,,64,0
68928,note_off,,,,,192,0,7,,,,,6,,,64,0
68928,note_on,,,,,0,0,7,,,,,6,,,59,92
68928,note_off,,,,,192,0,6,,,,,5,,,64,0
68928,note_on,,,,,4,0,9,,,,,8,,,59,75
68928,note_on,,,,,0,0,6,,,,,5,,,59,92
69024,note_off,,,,,1056,0,8,,,,,7,,,64,0
69116,note_off,,,,,188,0,9,,,,,8,,,59,0
69120,note_on,,,,,96,0,8,,,,,7,,,71,75
69120,note_on,,,,,0,0,2,,,,,1,,,80,92
69120,note_off,,,,,1152,0,2,,,,,1,,,68,0
69120,note_off,,,,,192,0,7,,,,,6,,,59,0
69120,note_on,,,,,0,0,4,,,,,3,,,80,108
69120,note_on,,,,,0,0,1,,,,,0,,,80,92
69120,note_on,,,,,0,0,6,,,,,5,,,52,92
69120,note_off,,,,,192,0,6,,,,,5,,,59,0
69120,note_on,,,,,0,0,3,,,,,2,,,80,108
69120,note_off,,,,,1152,0,3,,,,,2,,,68,0
69120,note_on,,,,,4,0,9,,,,,8,,,52,75
69120,note_off,,,,,1152,0,1,,,,,0,,,68,0
69120,note_off,,,,,1152,0,5,,,,,4,,,64,0
69120,note_on,,,,,0,0,5,,,,,4,,,71,92
69120,note_on,,,,,0,0,7,,,,,6,,,52,92
69120,note_off,,,,,1152,0,4,,,,,3,,,68,0
69308,note_off,,,,,188,0,9,,,,,8,,,52,0
69312,note_on,,,,,0,0,6,,,,,5,,,51,92
69312,note_off,,,,,192,0,6,,,,,5,,,52,0
69312,note_on,,,,,0,0,7,,,,,6,,,51,92
69312,note_on,,,,,4,0,9,,,,,8,,,51,75
69312,note_off,,,,,192,0,7,,,,,6,,,52,0
69500,note_off,,,,,188,0,9,,,,,8,,,51,0
69504,note_off,,,,,192,0,6,,,,,5,,,51,0
69504,note_off,,,,,192,0,7,,,,,6,,,51,0
69504,note_on,,,,,0,0,7,,,,,6,,,52,92
69504,note_on,,,,,4,0,9,,,,,8,,,52,75
69504,note_on,,,,,0,0,6,,,,,5,,,52,92
69692,note_off,,,,,188,0,9,,,,,8,,,52,0
69696,note_off,,,,,192,0,6,,,,,5,,,52,0
69696,note_on,,,,,4,0,9,,,,,8,,,54,75
69696,note_off,,,,,192,0,7,,,,,6,,,52,0
69696,note_on,,,,,0,0,7,,,,,6,,,54,92
69696,note_on,,,,,0,0,6,,,,,5,,,54,92
69792,note_off,,,,,672,0,8,,,,,7,,,71,0
69884,note_off,,,,,188,0,9,,,,,8,,,54,0
69888,note_on,,,,,4,0,9,,,,,8,,,56,75
69888,note_on,,,,,0,0,9,,,,,8,,,64,75
69888,note_off,,,,,768,0,2,,,,,1,,,80,0
69888,note_on,,,,,0,0,2,,,,,1,,,76,92
69888,note_off,,,,,768,0,4,,,,,3,,,80,0
69888,note_on,,,,,0,0,4,,,,,3,,,76,108
69888,note_on,,,,,0,0,1,,,,,0,,,76,92
69888,note_on,,,,,96,0,8,,,,,7,,,68,75
69888,note_on,,,,,0,0,7,,,,,6,,,56,92
69888,note_off,,,,,192,0,7,,,,,6,,,54,0
69888,note_off,,,,,768,0,3,,,,,2,,,80,0
69888,note_on,,,,,0,0,3,,,,,2,,,76,108
69888,note_off,,,,,192,0,6,,,,,5,,,54,0
69888,note_on,,,,,0,0,6,,,,,5,,,56,92
69888,note_off,,,,,768,0,5,,,,,4,,,71,0
69888,note_off,,,,,768,0,1,,,,,0,,,80,0
69888,note_on,,,,,0,0,5,,,,,4,,,68,92
70076,note_off,,,,,188,0,9,,,,,8,,,56,0
70076,note_off,,,,,0,0,9,,,,,8,,,64,0
70080,note_on,,,,,4,0,9,,,,,8,,,52,75
70080,note_off,,,,,192,0,6,,,,,5,,,56,0
70080,note_on,,,,,0,0,7,,,,,6,,,52,92
70080,note_off,,,,,192,0,7,,,,,6,,,56,0
70080,note_on,,,,,0,0,6,,,,,5,,,52,92
70208,note_off,,,,,320,0,8,,,,,7,,,68,0
70268,note_off,,,,,188,0,9,,,,,8,,,52,0
70272,note_on,,,,,0,0,7,,,,,6,,,57,92
70272,note_off,,,,,192,0,7,,,,,6,,,52,0
70272,note_off,,,,,384,0,1,,,,,0,,,76,0
70272,note_on,,,,,0,0,1,,,,,0,,,73,92
70272,note_on,,,,,4,0,9,,,,,8,,,57,75
70272,note_off,,,,,384,0,3,,,,,2,,,76,0
70272,note_on,,,,,0,0,3,,,,,2,,,73,108
70272,note_on,,,,,64,0,8,,,,,7,,,64,75
70272,note_off,,,,,384,0,5,,,,,4,,,68,0
70272,note_on,,,,,0,0,5,,,,,4,,,64,92
70272,note_off,,,,,192,0,6,,,,,5,,,52,0
70272,note_off,,,,,384,0,2,,,,,1,,,76,0
70272,note_on,,,,,0,0,2,,,,,1,,,73,92
70272,note_on,,,,,0,0,6,,,,,5,,,57,92
70272,note_off,,,,,384,0,4,,,,,3,,,76,0
70272,note_on,,,,,0,0,4,,,,,3,,,73,108
70460,note_off,,,,,188,0,9,,,,,8,,,57,0
70464,note_off,,,,,192,0,6,,,,,5,,,57,0
70464,note_on,,,,,0,0,6,,,,,5,,,59,92
70464,note_off,,,,,192,0,7,,,,,6,,,57,0
70464,note_on,,,,,0,0,7,,,,,6,,,59,92
70464,note_on,,,,,4,0,9,,,,,8,,,59,75
70652,note_off,,,,,188,0,9,,,,,8,,,59,0
70656,note_on,,,,,0,0,7,,,,,6,,,61,92
70656,note_off,,,,,192,0,7,,,,,6,,,59,0
70656,note_off,,,,,192,0,6,,,,,5,,,59,0
70656,note_on,,,,,4,0,9,,,,,8,,,61,75
70656,note_on,,,,,0,0,6,,,,,5,,,61,92
70844,note_off,,,,,188,0,9,,,,,8,,,61,0
70848,note_off,,,,,192,0,7,,,,,6,,,61,0
70848,note_on,,,,,4,0,9,,,,,8,,,59,75
70848,note_on,,,,,0,0,6,,,,,5,,,59,92
70848,note_off,,,,,192,0,6,,,,,5,,,61,0
70848,note_on,,,,,0,0,7,,,,,6,,,59,92
70944,note_off,,,,,672,0,8,,,,,7,,,64,0
71036,note_off,,,,,188,0,9,,,,,8,,,59,0
71040,note_on,,,,,0,0,5,,,,,4,,,69,92
71040,note_off,,,,,192,0,7,,,,,6,,,59,0
71040,note_on,,,,,4,0,9,,,,,8,,,57,75
71040,note_on,,,,,0,0,6,,,,,5,,,57,92
71040,note_off,,,,,192,0,6,,,,,5,,,59,0
71040,note_on,,,,,96,0,8,,,,,7,,,69,75
71040,note_off,,,,,768,0,5,,,,,4,,,64,0
71040,note_on,,,,,0,0,7,,,,,6,,,57,92
71228,note_off,,,,,188,0,9,,,,,8,,,57,0
71232,note_on,,,,,0,0,7,,,,,6,,,56,92
71232,note_on,,,,,0,0,6,,,,,5,,,56,92
71232,note_on,,,,,4,0,9,,,,,8,,,56,75
71232,note_off,,,,,192,0,6,,,,,5,,,57,0
71232,note_off,,,,,192,0,7,,,,,6,,,57,0
71360,note_off,,,,,320,0,8,,,,,7,,,69,0
71420,note_off,,,,,188,0,9,,,,,8,,,56,0
71424,note_on,,,,,0,0,6,,,,,5,,,54,92
71424,note_off,,,,,192,0,7,,,,,6,,,56,0
71424,note_on,,,,,0,0,4,,,,,3,,,81,108
71424,note_off,,,,,1152,0,4,,,,,3,,,73,0
71424,note_on,,,,,64,0,8,,,,,7,,,73,75
71424,note_on,,,,,0,0,5,,,,,4,,,73,92
71424,note_off,,,,,384,0,5,,,,,4,,,69,0
71424,note_off,,,,,192,0,6,,,,,5,,,56,0
71424,note_on,,,,,0,0,7,,,,,6,,,54,92
71424,note_off,,,,,1152,0,3,,,,,2,,,73,0
71424,note_on,,,,,0,0,3,,,,,2,,,81,108
71424,note_on,,,,,0,0,1,,,,,0,,,81,92
71424,note_off,,,,,1152,0,2,,,,,1,,,73,0
71424,note_on,,,,,0,0,2,,,,,1,,,81,92
71424,note_on,,,,,4,0,9,,,,,8,,,54,75
71424,note_off,,,,,1152,0,1,,,,,0,,,73,0
71612,note_off,,,,,188,0,9,,,,,8,,,54,0
71616,note_on,,,,,0,0,7,,,,,6,,,52,92
71616,note_on,,,,,4,0,9,,,,,8,,,52,75
71616,note_on,,,,,0,0,6,,,,,5,,,52,92
71616,note_off,,,,,192,0,6,,,,,5,,,54,0
71616,note_off,,,,,192,0,7,,,,,6,,,54,0
71804,note_off,,,,,188,0,9,,,,,8,,,52,0
71808,note_off,,,,,192,0,6,,,,,5,,,52,0
71808,note_on,,,,,4,0,9,,,,,8,,,54,75
71808,note_off,,,,,192,0,7,,,,,6,,,52,0
71808,note_on,,,,,0,0,6,,,,,5,,,54,92
71808,note_on,,,,,0,0,7,,,,,6,,,54,92
71996,note_off,,,,,188,0,9,,,,,8,,,54,0
72000,note_on,,,,,4,0,9,,,,,8,,,56,75
72000,note_off,,,,,192,0,6,,,,,5,,,54,0
72000,note_on,,,,,0,0,7,,,,,6,,,56,92
72000,note_off,,,,,192,0,7,,,,,6,,,54,0
72000,note_on,,,,,0,0,6,,,,,5,,,56,92
72096,note_off,,,,,672,0,8,,,,,7,,,73,0
72188,note_off,,,,,188,0,9,,,,,8,,,56,0
72192,note_off,,,,,768,0,1,,,,,0,,,81,0
72192,note_on,,,,,96,0,8,,,,,7,,,69,75
72192,note_on,,,,,0,0,5,,,,,4,,,69,92
72192,note_off,,,,,768,0,5,,,,,4,,,73,0
72192,note_on,,,,,0,0,2,,,,,1,,,78,92
72192,note_off,,,,,768,0,2,,,,,1,,,81,0
72192,note_on,,,,,0,0,3,,,,,2,,,78,108
72192,note_off,,,,,768,0,3,,,,,2,,,81,0
72192,note_on,,,,,0,0,7,,,,,6,,,57,92
72192,note_off,,,,,192,0,7,,,,,6,,,56,0
72192,note_on,,,,,0,0,1,,,,,0,,,78,92
72192,note_on,,,,,0,0,6,,,,,5,,,57,92
72192,note_on,,,,,0,0,4,,,,,3,,,78,108
72192,note_off,,,,,192,0,6,,,,,5,,,56,0
72192,note_on,,,,,4,0,9,,,,,8,,,57,75
72192,note_off,,,,,768,0,4,,,,,3,,,81,0
72192,note_on,,,,,0,0,9,,,,,8,,,66,75
72380,note_off,,,,,188,0,9,,,,,8,,,57,0
72380,note_off,,,,,0,0,9,,,,,8,,,66,0
72384,note_off,,,,,192,0,7,,,,,6,,,57,0
72384,note_on,,,,,0,0,7,,,,,6,,,54,92
72384,note_on,,,,,0,0,6,,,,,5,,,54,92
72384,note_off,,,,,192,0,6,,,,,5,,,57,0
72384,note_on,,,,,4,0,9,,,,,8,,,54,75
72512,note_off,,,,,320,0,8,,,,,7,,,69,0
72572,note_off,,,,,188,0,9,,,,,8,,,54,0
72576,note_on,,,,,0,0,5,,,,,4,,,66,92
72576,note_on,,,,,0,0,4,,,,,3,,,75,108
72576,note_off,,,,,384,0,4,,,,,3,,,78,0
72576,note_on,,,,,0,0,7,,,,,6,,,59,92
72576,note_on,,,,,0,0,2,,,,,1,,,75,92
72576,note_off,,,,,192,0,7,,,,,6,,,54,0
72576,note_on,,,,,64,0,8,,,,,7,,,66,75
72576,note_on,,,,,0,0,3,,,,,2,,,75,108
72576,note_off,,,,,384,0,5,,,,,4,,,69,0
72576,note_off,,,,,384,0,2,,,,,1,,,78,0
72576,note_off,,,,,384,0,3,,,,,2,,,78,0
72576,note_on,,,,,0,0,6,,,,,5,,,59,92
72576,note_off,,,,,192,0,6,,,,,5,,,54,0
72576,note_on,,,,,4,0,9,,,,,8,,,59,75
72576,note_off,,,,,384,0,1,,,,,0,,,78,0
72576,note_on,,,,,0,0,1,,,,,0,,,75,92
72764,note_off,,,,,188,0,9,,,,,8,,,59,0
72768,note_on,,,,,4,0,9,,,,,8,,,58,75
72768,note_off,,,,,192,0,6,,,,,5,,,59,0
72768,note_off,,,,,192,0,7,,,,,6,,,59,0
72768,note_on,,,,,0,0,7,,,,,6,,,58,92
72768,note_on,,,,,0,0,6,,,,,5,,,58,92
72956,note_off,,,,,188,0,9,,,,,8,,,58,0
72960,note_off,,,,,192,0,7,,,,,6,,,58,0
72960,note_on,,,,,0,0,7,,,,,6,,,59,92
72960,note_off,,,,,192,0,6,,,,,5,,,58,0
72960,note_on,,,,,0,0,6,,,,,5,,,59,92
72960,note_on,,,,,4,0,9,,,,,8,,,59,75
73148,note_off,,,,,188,0,9,,,,,8,,,59,0
73152,note_off,,,,,192,0,7,,,,,6,,,59,0
73152,note_on,,,,,0,0,7,,,,,6,,,47,92
73152,note_on,,,,,4,0,9,,,,,8,,,47,75
73152,note_off,,,,,192,0,6,,,,,5,,,59,0
73152,note_on,,,,,0,0,6,,,,,5,,,47,92
73248,note_off,,,,,672,0,8,,,,,7,,,66,0
73340,note_off,,,,,188,0,9,,,,,8,,,47,0
73344,note_on,,,,,96,0,8,,,,,7,,,70,75
73344,note_off,,,,,768,0,3,,,,,2,,,75,0
73344,note_off,,,,,192,0,7,,,,,6,,,47,0
73344,note_on,,,,,0,0,7,,,,,6,,,49,92
73344,note_on,,,,,4,0,9,,,,,8,,,49,75
73344,note_on,,,,,0,0,9,,,,,8,,,58,75
73344,note_off,,,,,192,0,6,,,,,5,,,47,0
73344,note_on,,,,,0,0,6,,,,,5,,,49,92
73344,note_off,,,,,768,0,2,,,,,1,,,75,0
73344,note_on,,,,,0,0,1,,,,,0,,,76,92
73344,note_off,,,,,768,0,5,,,,,4,,,66,0
73344,note_on,,,,,0,0,5,,,,,4,,,70,92
73344,note_on,,,,,0,0,3,,,,,2,,,76,108
73344,note_on,,,,,0,0,4,,,,,3,,,76,108
73344,note_off,,,,,768,0,4,,,,,3,,,75,0
73344,note_off,,,,,768,0,1,,,,,0,,,75,0
73344,note_on,,,,,0,0,2,,,,,1,,,76,92
73532,note_off,,,,,188,0,9,,,,,8,,,49,0
73532,note_off,,,,,0,0,9,,,,,8,,,58,0
73536,note_off,,,,,192,0,7,,,,,6,,,49,0
73536,note_on,,,,,0,0,7,,,,,6,,,52,92
73536,note_off,,,,,192,0,6,,,,,5,,,49,0
73536,note_on,,,,,0,0,6,,,,,5,,,52,92
73536,note_on,,,,,4,0,9,,,,,8,,,52,75
73664,note_off,,,,,320,0,8,,,,,7,,,70,0
73724,note_off,,,,,188,0,9,,,,,8,,,52,0
73728,note_off,,,,,384,0,3,,,,,2,,,76,0
73728,note_off,,,,,192,0,6,,,,,5,,,52,0
73728,note_on,,,,,0,0,6,,,,,5,,,51,92
73728,note_on,,,,,4,0,9,,,,,8,,,51,75
73728,note_on,,,,,0,0,9,,,,,8,,,59,75
73728,note_on,,,,,0,0,4,,,,,3,,,78,108
73728,note_on,,,,,0,0,2,,,,,1,,,78,92
73728,note_off,,,,,384,0,2,,,,,1,,,76,0
73728,note_off,,,,,192,0,7,,,,,6,,,52,0
73728,note_on,,,,,0,0,1,,,,,0,,,78,92
73728,note_off,,,,,384,0,1,,,,,0,,,76,0
73728,note_off,,,,,384,0,5,,,,,4,,,70,0
73728,note_on,,,,,0,0,5,,,,,4,,,71,92
73728,note_on,,,,,0,0,7,,,,,6,,,51,92
73728,note_on,,,,,64,0,8,,,,,7,,,71,75
73728,note_on,,,,,0,0,3,,,,,2,,,78,108
73728,note_off,,,,,384,0,4,,,,,3,,,76,0
73916,note_off,,,,,188,0,9,,,,,8,,,51,0
73916,note_off,,,,,0,0,9,,,,,8,,,59,0
73920,note_on,,,,,0,0,7,,,,,6,,,47,92
73920,note_off,,,,,192,0,6,,,,,5,,,51,0
73920,note_off,,,,,192,0,7,,,,,6,,,51,0
73920,note_on,,,,,4,0,9,,,,,8,,,47,75
73920,note_on,,,,,0,0,6,,,,,5,,,47,92
74108,note_off,,,,,188,0,9,,,,,8,,,47,0
74112,note_off,,,,,192,0,7,,,,,6,,,47,0
74112,note_off,,,,,384,0,3,,,,,2,,,78,0
74112,note_on,,,,,0,0,3,,,,,2,,,80,108
74112,note_on,,,,,4,0,9,,,,,8,,,52,75
74112,note_on,,,,,0,0,2,,,,,1,,,80,92
74112,note_off,,,,,384,0,2,,,,,1,,,78,0
74112,note_on,,,,,0,0,4,,,,,3,,,80,108
74112,note_on,,,,,0,0,7,,,,,6,,,52,92
74112,note_off,,,,,384,0,4,,,,,3,,,78,0
74112,note_off,,,,,192,0,6,,,,,5,,,47,0
74112,note_on,,,,,0,0,6,,,,,5,,,52,92
74112,note_off,,,,,384,0,1,,,,,0,,,78,0
74112,note_on,,,,,0,0,1,,,,,0,,,80,92
74160,note_on,,,,,0,0,2,,,,,1,,,81,92
74160,note_off,,,,,48,0,2,,,,,1,,,80,0
74160,note_on,,,,,0,0,4,,,,,3,,,81,108
74160,note_off,,,,,48,0,4,,,,,3,,,80,0
74160,note_off,,,,,48,0,3,,,,,2,,,80,0
74160,note_on,,,,,0,0,1,,,,,0,,,81,92
74160,note_on,,,,,0,0,3,,,,,2,,,81,108
74160,note_off,,,,,48,0,1,,,,,0,,,80,0
74208,note_off,,,,,48,0,1,,,,,0,,,81,0
74208,note_off,,,,,48,0,2,,,,,1,,,81,0
74208,note_on,,,,,0,0,2,,,,,1,,,80,92
74208,note_on,,,,,0,0,4,,,,,3,,,80,108
74208,note_off,,,,,48,0,4,,,,,3,,,81,0
74208,note_off,,,,,48,0,3,,,,,2,,,81,0
74208,note_on,,,,,0,0,1,,,,,0,,,80,92
74208,note_on,,,,,0,0,3,,,,,2,,,80,108
74256,note_off,,,,,48,0,3,,,,,2,,,80,0
74256,note_on,,,,,0,0,2,,,,,1,,,81,92
74256,note_off,,,,,48,0,2,,,,,1,,,80,0
74256,note_on,,,,,0,0,1,,,,,0,,,81,92
74256,note_on,,,,,0,0,3,,,,,2,,,81,108
74256,note_off,,,,,48,0,4,,,,,3,,,80,0
74256,note_on,,,,,0,0,4,,,,,3,,,81,108
74256,note_off,,,,,48,0,1,,,,,0,,,80,0
74300,note_off,,,,,188,0,9,,,,,8,,,52,0
74304,note_off,,,,,48,0,2,,,,,1,,,81,0
74304,note_off,,,,,48,0,3,,,,,2,,,81,0
74304,note_on,,,,,0,0,3,,,,,2,,,80,108
74304,note_off,,,,,48,0,4,,,,,3,,,81,0
74304,note_on,,,,,0,0,4,,,,,3,,,80,108
74304,note_on,,,,,0,0,2,,,,,1,,,80,92
74304,note_off,,,,,48,0,1,,,,,0,,,81,0
74304,note_off,,,,,192,0,6,,,,,5,,,52,0
74304,note_on,,,,,4,0,9,,,,,8,,,51,75
74304,note_on,,,,,0,0,6,,,,,5,,,51,92
74304,note_on,,,,,0,0,7,,,,,6,,,51,92
74304,note_on,,,,,0,0,1,,,,,0,,,80,92
74304,note_off,,,,,192,0,7,,,,,6,,,52,0
74352,note_on,,,,,0,0,1,,,,,0,,,81,92
74352,note_off,,,,,48,0,4,,,,,3,,,80,0
74352,note_on,,,,,0,0,4,,,,,3,,,81,108
74352,note_off,,,,,48,0,1,,,,,0,,,80,0
74352,note_off,,,,,48,0,3,,,,,2,,,80,0
74352,note_on,,,,,0,0,3,,,,,2,,,81,108
74352,note_off,,,,,48,0,2,,,,,1,,,80,0
74352,note_on,,,,,0,0,2,,,,,1,,,81,92
74400,note_off,,,,,672,0,8,,,,,7,,,71,0
74400,note_on,,,,,0,0,2,,,,,1,,,80,92
74400,note_on,,,,,0,0,1,,,,,0,,,80,92
74400,note_off,,,,,48,0,1,,,,,0,,,81,0
74400,note_off,,,,,48,0,3,,,,,2,,,81,0
74400,note_on,,,,,0,0,4,,,,,3,,,80,108
74400,note_off,,,,,48,0,4,,,,,3,,,81,0
74400,note_off,,,,,48,0,2,,,,,1,,,81,0
74400,note_on,,,,,0,0,3,,,,,2,,,80,108
74492,note_off,,,,,188,0,9,,,,,8,,,51,0
74496,note_on,,,,,0,0,6,,,,,5,,,49,92
74496,note_off,,,,,192,0,6,,,,,5,,,51,0
74496,note_on,,,,,0,0,5,,,,,4,,,64,92
74496,note_on,,,,,96,0,8,,,,,7,,,64,75
74496,note_off,,,,,768,0,5,,,,,4,,,71,0
74496,note_on,,,,,4,0,9,,,,,8,,,49,75
74496,note_on,,,,,0,0,7,,,,,6,,,49,92
74496,note_off,,,,,192,0,7,,,,,6,,,51,0
74684,note_off,,,,,188,0,9,,,,,8,,,49,0
74688,note_on,,,,,0,0,7,,,,,6,,,52,92
74688,note_off,,,,,288,0,1,,,,,0,,,80,0
74688,note_on,,,,,0,0,1,,,,,0,,,78,92
74688,note_on,,,,,4,0,9,,,,,8,,,52,75
74688,note_off,,,,,288,0,3,,,,,2,,,80,0
74688,note_off,,,,,192,0,7,,,,,6,,,49,0
74688,note_on,,,,,0,0,3,,,,,2,,,78,108
74688,note_on,,,,,0,0,4,,,,,3,,,78,108
74688,note_on,,,,,0,0,2,,,,,1,,,78,92
74688,note_off,,,,,288,0,2,,,,,1,,,80,0
74688,note_off,,,,,192,0,6,,,,,5,,,49,0
74688,note_off,,,,,288,0,4,,,,,3,,,80,0
74688,note_on,,,,,0,0,6,,,,,5,,,52,92
74784,note_off,,,,,96,0,2,,,,,1,,,78,0
74784,note_off,,,,,96,0,3,,,,,2,,,78,0
74784,note_on,,,,,0,0,3,,,,,2,,,80,108
74784,note_off,,,,,96,0,1,,,,,0,,,78,0
74784,note_on,,,,,0,0,1,,,,,0,,,80,92
74784,note_off,,,,,96,0,4,,,,,3,,,78,0
74784,note_on,,,,,0,0,4,,,,,3,,,80,108
74784,note_on,,,,,0,0,2,,,,,1,,,80,92
74816,note_off,,,,,320,0,8,,,,,7,,,64,0
74876,note_off,,,,,188,0,9,,,,,8,,,52,0
74880,note_on,,,,,4,0,9,,,,,8,,,54,75
74880,note_on,,,,,0,0,2,,,,,1,,,82,92
74880,note_on,,,,,64,0,8,,,,,7,,,61,75
74880,note_off,,,,,96,0,2,,,,,1,,,80,0
74880,note_off,,,,,384,0,5,,,,,4,,,64,0
74880,note_on,,,,,0,0,1,,,,,0,,,82,92
74880,note_on,,,,,0,0,7,,,,,6,,,54,92
74880,note_off,,,,,192,0,7,,,,,6,,,52,0
74880,note_on,,,,,0,0,4,,,,,3,,,82,108
74880,note_off,,,,,96,0,1,,,,,0,,,80,0
74880,note_on,,,,,0,0,5,,,,,4,,,61,92
74880,note_on,,,,,0,0,6,,,,,5,,,54,92
74880,note_off,,,,,192,0,6,,,,,5,,,52,0
74880,note_on,,,,,0,0,3,,,,,2,,,82,108
74880,note_off,,,,,96,0,3,,,,,2,,,80,0
74880,note_off,,,,,96,0,4,,,,,3,,,80,0
75068,note_off,,,,,188,0,9,,,,,8,,,54,0
75072,note_on,,,,,0,0,6,,,,,5,,,49,92
75072,note_on,,,,,0,0,7,,,,,6,,,49,92
75072,note_off,,,,,192,0,6,,,,,5,,,54,0
75072,note_off,,,,,192,0,7,,,,,6,,,54,0
75072,note_on,,,,,4,0,9,,,,,8,,,49,75
75260,note_off,,,,,188,0,9,,,,,8,,,49,0
75264,note_on,,,,,0,0,6,,,,,5,,,54,92
75264,note_off,,,,,192,0,6,,,,,5,,,49,0
75264,note_on,,,,,0,0,7,,,,,6,,,54,92
75264,note_off,,,,,192,0,7,,,,,6,,,49,0
75264,note_on,,,,,4,0,9,,,,,8,,,54,75
75452,note_off,,,,,188,0,9,,,,,8,,,54,0
75456,note_on,,,,,4,0,9,,,,,8,,,52,75
75456,note_on,,,,,0,0,1,,,,,0,,,80,92
75456,note_on,,,,,0,0,4,,,,,3,,,80,108
75456,note_on,,,,,0,0,6,,,,,5,,,52,92
75456,note_off,,,,,192,0,7,,,,,6,,,54,0
75456,note_on,,,,,0,0,3,,,,,2,,,80,108
75456,note_off,,,,,576,0,3,,,,,2,,,82,0
75456,note_on,,,,,0,0,2,,,,,1,,,80,92
75456,note_off,,,,,576,0,2,,,,,1,,,82,0
75456,note_off,,,,,192,0,6,,,,,5,,,54,0
75456,note_on,,,,,0,0,7,,,,,6,,,52,92
75456,note_off,,,,,576,0,4,,,,,3,,,82,0
75456,note_off,,,,,576,0,1,,,,,0,,,82,0
75552,note_off,,,,,672,0,8,,,,,7,,,61,0
75552,note_off,,,,,96,0,1,,,,,0,,,80,0
75552,note_off,,,,,96,0,4,,,,,3,,,80,0
75552,note_on,,,,,0,0,2,,,,,1,,,82,92
75552,note_off,,,,,96,0,2,,,,,1,,,80,0
75552,note_on,,,,,0,0,3,,,,,2,,,82,108
75552,note_off,,,,,96,0,3,,,,,2,,,80,0
75552,note_on,,,,,0,0,1,,,,,0,,,82,92
75552,note_on,,,,,0,0,4,,,,,3,,,82,108
75644,note_off,,,,,188,0,9,,,,,8,,,52,0
75648,note_off,,,,,192,0,7,,,,,6,,,52,0
75648,note_on,,,,,0,0,7,,,,,6,,,51,92
75648,note_on,,,,,0,0,6,,,,,5,,,51,92
75648,note_off,,,,,192,0,6,,,,,5,,,52,0
75648,note_off,,,,,96,0,4,,,,,3,,,82,0
75648,note_off,,,,,96,0,3,,,,,2,,,82,0
75648,note_on,,,,,0,0,3,,,,,2,,,83,108
75648,note_on,,,,,0,0,4,,,,,3,,,83,108
75648,note_on,,,,,0,0,5,,,,,4,,,66,92
75648,note_off,,,,,768,0,5,,,,,4,,,61,0
75648,note_off,,,,,96,0,1,,,,,0,,,82,0
75648,note_on,,,,,0,0,1,,,,,0,,,83,92
75648,note_on,,,,,0,0,9,,,,,8,,,59,75
75648,note_on,,,,,4,0,9,,,,,8,,,51,75
75648,note_off,,,,,96,0,2,,,,,1,,,82,0
75648,note_on,,,,,96,0,8,,,,,7,,,66,75
75648,note_on,,,,,0,0,2,,,,,1,,,83,92
75836,note_off,,,,,0,0,9,,,,,8,,,59,0
75836,note_off,,,,,188,0,9,,,,,8,,,51,0
75840,note_on,,,,,0,0,6,,,,,5,,,47,92
75840,note_on,,,,,4,0,9,,,,,8,,,47,75
75840,note_off,,,,,192,0,6,,,,,5,,,51,0
75840,note_on,,,,,0,0,7,,,,,6,,,47,92
75840,note_off,,,,,192,0,7,,,,,6,,,51,0
75968,note_off,,,,,320,0,8,,,,,7,,,66,0
76028,note_off,,,,,188,0,9,,,,,8,,,47,0
76032,note_on,,,,,0,0,2,,,,,1,,,71,92
76032,note_off,,,,,384,0,2,,,,,1,,,83,0
76032,note_on,,,,,0,0,4,,,,,3,,,71,108
76032,note_off,,,,,384,0,4,,,,,3,,,83,0
76032,note_on,,,,,0,0,3,,,,,2,,,71,108
76032,note_off,,,,,192,0,7,,,,,6,,,47,0
76032,note_on,,,,,4,0,9,,,,,8,,,56,75
76032,note_on,,,,,0,0,7,,,,,6,,,56,92
76032,note_on,,,,,64,0,8,,,,,7,,,71,75
76032,note_on,,,,,0,0,5,,,,,4,,,71,92
76032,note_off,,,,,384,0,5,,,,,4,,,66,0
76032,note_off,,,,,384,0,1,,,,,0,,,83,0
76032,note_on,,,,,0,0,1,,,,,0,,,71,92
76032,note_off,,,,,384,0,3,,,,,2,,,83,0
76032,note_on,,,,,0,0,6,,,,,5,,,56,92
76032,note_off,,,,,192,0,6,,,,,5,,,47,0
76220,note_off,,,,,188,0,9,,,,,8,,,56,0
76224,note_on,,,,,0,0,1,,,,,0,,,76,92
76224,note_off,,,,,192,0,1,,,,,0,,,71,0
76224,note_off,,,,,192,0,6,,,,,5,,,56,0
76224,note_on,,,,,0,0,6,,,,,5,,,52,92
76224,note_on,,,,,0,0,3,,,,,2,,,76,108
76224,note_off,,,,,192,0,3,,,,,2,,,71,0
76224,note_on,,,,,0,0,7,,,,,6,,,52,92
76224,note_off,,,,,192,0,7,,,,,6,,,56,0
76224,note_off,,,,,192,0,4,,,,,3,,,71,0
76224,note_on,,,,,0,0,4,,,,,3,,,76,108
76224,note_off,,,,,192,0,2,,,,,1,,,71,0
76224,note_on,,,,,0,0,2,,,,,1,,,76,92
76224,note_on,,,,,4,0,9,,,,,8,,,52,75
76412,note_off,,,,,188,0,9,,,,,8,,,52,0
76416,note_on,,,,,0,0,4,,,,,3,,,75,108
76416,note_on,,,,,0,0,9,,,,,8,,,59,75
76416,note_on,,,,,0,0,7,,,,,6,,,54,92
76416,note_off,,,,,192,0,7,,,,,6,,,52,0
76416,note_on,,,,,0,0,6,,,,,5,,,54,92
76416,note_off,,,,,192,0,6,,,,,5,,,52,0
76416,note_on,,,,,0,0,9,,,,,8,,,63,75
76416,note_on,,,,,0,0,2,,,,,1,,,75,92
76416,note_on,,,,,4,0,9,,,,,8,,,54,75
76416,note_off,,,,,192,0,2,,,,,1,,,76,0
76416,note_on,,,,,0,0,1,,,,,0,,,75,92
76416,note_on,,,,,0,0,3,,,,,2,,,75,108
76416,note_off,,,,,192,0,3,,,,,2,,,76,0
76416,note_off,,,,,192,0,1,,,,,0,,,76,0
76416,note_off,,,,,192,0,4,,,,,3,,,76,0
76604,note_off,,,,,0,0,9,,,,,8,,,59,0
76604,note_off,,,,,0,0,9,,,,,8,,,63,0
76604,note_off,,,,,188,0,9,,,,,8,,,54,0
76608,note_off,,,,,192,0,7,,,,,6,,,54,0
76608,note_on,,,,,0,0,7,,,,,6,,,52,92
76608,note_on,,,,,0,0,6,,,,,5,,,52,92
76608,note_off,,,,,192,0,6,,,,,5,,,54,0
76608,note_on,,,,,4,0,9,,,,,8,,,52,75
76704,note_off,,,,,672,0,8,,,,,7,,,71,0
76796,note_off,,,,,188,0,9,,,,,8,,,52,0
76800,note_off,,,,,192,0,7,,,,,6,,,52,0
76800,note_on,,,,,0,0,7,,,,,6,,,54,92
76800,note_on,,,,,0,0,6,,,,,5,,,54,92
76800,note_on,,,,,0,0,1,,,,,0,,,75,92
76800,note_off,,,,,384,0,1,,,,,0,,,75,0
76800,note_on,,,,,4,0,9,,,,,8,,,54,75
76800,note_off,,,,,192,0,6,,,,,5,,,52,0
76800,note_on,,,,,0,0,9,,,,,8,,,61,75
76800,note_on,,,,,96,0,8,,,,,7,,,70,75
76800,note_off,,,,,384,0,3,,,,,2,,,75,0
76800,note_on,,,,,0,0,3,,,,,2,,,75,108
76800,note_on,,,,,0,0,4,,,,,3,,,73,108
76800,note_off,,,,,384,0,4,,,,,3,,,75,0
76800,note_off,,,,,384,0,2,,,,,1,,,75,0
76800,note_on,,,,,0,0,2,,,,,1,,,73,92
76800,note_on,,,,,0,0,5,,,,,4,,,70,92
76800,note_off,,,,,768,0,5,,,,,4,,,71,0
76848,note_on,,,,,0,0,3,,,,,2,,,73,108
76848,note_on,,,,,0,0,1,,,,,0,,,73,92
76848,note_off,,,,,48,0,1,,,,,0,,,75,0
76848,note_off,,,,,48,0,3,,,,,2,,,75,0
76896,note_off,,,,,48,0,1,,,,,0,,,73,0
76896,note_on,,,,,0,0,1,,,,,0,,,75,92
76896,note_off,,,,,48,0,3,,,,,2,,,73,0
76896,note_on,,,,,0,0,3,,,,,2,,,75,108
76944,note_off,,,,,48,0,1,,,,,0,,,75,0
76944,note_on,,,,,0,0,1,,,,,0,,,73,92
76944,note_off,,,,,48,0,3,,,,,2,,,75,0
76944,note_on,,,,,0,0,3,,,,,2,,,73,108
76988,note_off,,,,,188,0,9,,,,,8,,,54,0
76988,note_off,,,,,0,0,9,,,,,8,,,61,0
76992,note_on,,,,,0,0,3,,,,,2,,,75,108
76992,note_off,,,,,192,0,7,,,,,6,,,54,0
76992,note_on,,,,,0,0,7,,,,,6,,,42,92
76992,note_on,,,,,4,0,9,,,,,8,,,42,75
76992,note_on,,,,,0,0,6,,,,,5,,,42,92
76992,note_off,,,,,48,0,1,,,,,0,,,73,0
76992,note_on,,,,,0,0,1,,,,,0,,,75,92
76992,note_off,,,,,192,0,6,,,,,5,,,54,0
76992,note_off,,,,,48,0,3,,,,,2,,,73,0
77040,note_on,,,,,0,0,1,,,,,0,,,73,92
77040,note_off,,,,,48,0,1,,,,,0,,,75,0
77040,note_off,,,,,48,0,3,,,,,2,,,75,0
77040,note_on,,,,,0,0,3,,,,,2,,,73,108
77088,note_on,,,,,0,0,1,,,,,0,,,71,92
77088,note_off,,,,,48,0,1,,,,,0,,,73,0
77088,note_on,,,,,0,0,3,,,,,2,,,71,108
77088,note_off,,,,,48,0,3,,,,,2,,,73,0
77088,note_on,,,,,0,0,2,,,,,1,,,71,92
77088,note_off,,,,,288,0,2,,,,,1,,,73,0
77088,note_off,,,,,288,0,4,,,,,3,,,73,0
77088,note_on,,,,,0,0,4,,,,,3,,,71,108
77120,note_off,,,,,320,0,8,,,,,7,,,70,0
77180,note_off,,,,,188,0,9,,,,,8,,,42,0
77184,note_on,,,,,4,0,9,,,,,8,,,47,75
77184,note_off,,,,,96,0,2,,,,,1,,,71,0
77184,note_on,,,,,0,0,7,,,,,6,,,47,92
77184,note_on,,,,,0,0,1,,,,,0,,,71,92
77184,note_off,,,,,192,0,6,,,,,5,,,42,0
77184,note_on,,,,,0,0,6,,,,,5,,,47,92
77184,note_on,,,,,0,0,2,,,,,1,,,71,92
77184,note_on,,,,,0,0,4,,,,,3,,,71,108
77184,note_off,,,,,96,0,4,,,,,3,,,71,0
77184,note_off,,,,,384,0,5,,,,,4,,,70,0
77184,note_on,,,,,0,0,3,,,,,2,,,71,108
77184,note_off,,,,,96,0,3,,,,,2,,,71,0
77184,note_off,,,,,96,0,1,,,,,0,,,71,0
77184,note_on,,,,,0,0,5,,,,,4,,,71,92
77184,note_off,,,,,192,0,7,,,,,6,,,42,0
77184,note_on,,,,,64,0,8,,,,,7,,,71,75
77372,note_off,,,,,188,0,9,,,,,8,,,47,0
77376,note_off,,,,,192,0,6,,,,,5,,,47,0
77376,note_on,,,,,4,0,9,,,,,8,,,49,75
77376,note_on,,,,,0,0,6,,,,,5,,,49,92
77376,note_off,,,,,192,0,7,,,,,6,,,47,0
77376,note_on,,,,,0,0,7,,,,,6,,,49,92
77564,note_off,,,,,188,0,9,,,,,8,,,49,0
77568,note_on,,,,,4,0,9,,,,,8,,,51,75
77568,note_off,,,,,192,0,7,,,,,6,,,49,0
77568,note_on,,,,,0,0,7,,,,,6,,,51,92
77568,note_on,,,,,0,0,6,,,,,5,,,51,92
77568,note_off,,,,,192,0,6,,,,,5,,,49,0
77756,note_off,,,,,188,0,9,,,,,8,,,51,0
77760,note_on,,,,,4,0,9,,,,,8,,,49,75
77760,note_on,,,,,0,0,6,,,,,5,,,49,92
77760,note_off,,,,,192,0,6,,,,,5,,,51,0
77760,note_off,,,,,192,0,7,,,,,6,,,51,0
77760,note_on,,,,,0,0,7,,,,,6,,,49,92
77948,note_off,,,,,188,0,9,,,,,8,,,49,0
77952,note_on,,,,,4,0,9,,,,,8,,,51,75
77952,note_on,,,,,0,0,6,,,,,5,,,51,92
77952,note_off,,,,,192,0,6,,,,,5,,,49,0
77952,note_off,,,,,192,0,7,,,,,6,,,49,0
77952,note_on,,,,,0,0,7,,,,,6,,,51,92
78140,note_off,,,,,188,0,9,,,,,8,,,51,0
78144,note_on,,,,,0,0,7,,,,,6,,,47,92
78144,note_on,,,,,4,0,9,,,,,8,,,47,75
78144,note_on,,,,,0,0,6,,,,,5,,,47,92
78144,note_off,,,,,192,0,6,,,,,5,,,51,0
78144,note_off,,,,,192,0,7,,,,,6,,,51,0
78240,note_off,,,,,1056,0,8,,,,,7,,,71,0
78332,note_off,,,,,188,0,9,,,,,8,,,47,0
78336,note_on,,,,,0,0,5,,,,,4,,,59,60
78336,note_off,,,,,1152,0,5,,,,,4,,,71,0
78336,note_on,,,,,4,0,9,,,,,8,,,52,45
78336,note_off,,,,,1152,0,4,,,,,3,,,71,0
78336,note_on,,,,,96,0,8,,,,,7,,,59,45
78336,note_off,,,,,1152,0,3,,,,,2,,,71,0
78336,note_on,,,,,0,0,4,,,,,3,,,68,70
78336,note_on,,,,,0,0,3,,,,,2,,,68,70
78336,note_off,,,,,192,0,7,,,,,6,,,47,0
78336,note_on,,,,,0,0,6,,,,,5,,,52,60
78336,note_off,,,,,192,0,6,,,,,5,,,47,0
78336,note_on,,,,,0,0,7,,,,,6,,,52,60
78336,note_on,,,,,0,0,2,,,,,1,,,68,60
78336,note_on,,,,,0,0,1,,,,,0,,,68,60
78336,note_off,,,,,1152,0,1,,,,,0,,,71,0
78336,note_off,,,,,1152,0,2,,,,,1,,,71,0
78528,note_on,,,,,0,0,1,,,,,0,,,69,60
78528,note_off,,,,,192,0,1,,,,,0,,,68,0
78528,note_on,,,,,0,0,2,,,,,1,,,69,60
78528,note_on,,,,,0,0,3,,,,,2,,,69,70
78528,note_off,,,,,192,0,2,,,,,1,,,68,0
78528,note_off,,,,,192,0,4,,,,,3,,,68,0
78528,note_off,,,,,192,0,3,,,,,2,,,68,0
78528,note_on,,,,,0,0,4,,,,,3,,,69,70
78656,note_off,,,,,320,0,9,,,,,8,,,52,0
78656,note_off,,,,,320,0,8,,,,,7,,,59,0
78720,note_off,,,,,192,0,3,,,,,2,,,69,0
78720,note_on,,,,,0,0,3,,,,,2,,,71,70
78720,note_on,,,,,0,0,2,,,,,1,,,71,60
78720,note_on,,,,,0,0,4,,,,,3,,,71,70
78720,note_on,,,,,64,0,8,,,,,7,,,63,45
78720,note_on,,,,,0,0,1,,,,,0,,,71,60
78720,note_off,,,,,192,0,1,,,,,0,,,69,0
78720,note_off,,,,,384,0,7,,,,,6,,,52,0
78720,note_on,,,,,0,0,7,,,,,6,,,47,60
78720,note_off,,,,,384,0,5,,,,,4,,,59,0
78720,note_on,,,,,0,0,5,,,,,4,,,63,60
78720,note_off,,,,,384,0,6,,,,,5,,,52,0
78720,note_on,,,,,0,0,6,,,,,5,,,47,60
78720,note_off,,,,,192,0,4,,,,,3,,,69,0
78720,note_on,,,,,64,0,9,,,,,8,,,47,45
78720,note_off,,,,,192,0,2,,,,,1,,,69,0
78912,note_on,,,,,0,0,1,,,,,0,,,68,60
78912,note_off,,,,,192,0,1,,,,,0,,,71,0
78912,note_off,,,,,192,0,2,,,,,1,,,71,0
78912,note_off,,,,,192,0,3,,,,,2,,,71,0
78912,note_on,,,,,0,0,2,,,,,1,,,68,60
78912,note_on,,,,,0,0,4,,,,,3,,,68,70
78912,note_off,,,,,192,0,4,,,,,3,,,71,0
78912,note_on,,,,,0,0,3,,,,,2,,,68,70
79040,note_off,,,,,320,0,8,,,,,7,,,63,0
79040,note_off,,,,,320,0,9,,,,,8,,,47,0
79104,note_off,,,,,192,0,2,,,,,1,,,68,0
79104,note_on,,,,,0,0,2,,,,,1,,,69,60
79104,note_on,,,,,0,0,1,,,,,0,,,69,60
79104,note_off,,,,,384,0,6,,,,,5,,,47,0
79104,note_off,,,,,192,0,3,,,,,2,,,68,0
79104,note_off,,,,,384,0,7,,,,,6,,,47,0
79104,note_on,,,,,0,0,4,,,,,3,,,69,70
79104,note_off,,,,,192,0,1,,,,,0,,,68,0
79104,note_on,,,,,0,0,3,,,,,2,,,69,70
79104,note_off,,,,,192,0,4,,,,,3,,,68,0
79104,note_off,,,,,384,0,5,,,,,4,,,63,0
79296,note_off,,,,,192,0,1,,,,,0,,,69,0
79296,note_off,,,,,192,0,3,,,,,2,,,69,0
79296,note_on,,,,,0,0,3,,,,,2,,,66,70
79296,note_on,,,,,0,0,1,,,,,0,,,66,60
79296,note_off,,,,,192,0,4,,,,,3,,,69,0
79296,note_on,,,,,0,0,2,,,,,1,,,66,60
79296,note_on,,,,,0,0,4,,,,,3,,,66,70
79296,note_off,,,,,192,0,2,,,,,1,,,69,0
79488,note_on,,,,,384,0,5,,,,,4,,,64,60
79488,note_on,,,,,384,0,7,,,,,6,,,49,60
79488,note_on,,,,,448,0,8,,,,,7,,,64,45
79488,note_on,,,,,0,0,1,,,,,0,,,64,60
79488,note_off,,,,,192,0,1,,,,,0,,,66,0
79488,note_on,,,,,384,0,6,,,,,5,,,49,60
79488,note_off,,,,,192,0,3,,,,,2,,,66,0
79488,note_on,,,,,0,0,3,,,,,2,,,64,70
79488,note_off,,,,,192,0,4,,,,,3,,,66,0
79488,note_on,,,,,0,0,4,,,,,3,,,64,70
79488,note_off,,,,,192,0,2,,,,,1,,,66,0
79488,note_on,,,,,448,0,9,,,,,8,,,49,45
79488,note_on,,,,,0,0,2,,,,,1,,,64,60
79680,note_on,,,,,0,0,2,,,,,1,,,63,60
79680,note_off,,,,,192,0,1,,,,,0,,,64,0
79680,note_off,,,,,192,0,4,,,,,3,,,64,0
79680,note_on,,,,,0,0,4,,,,,3,,,63,70
79680,note_on,,,,,0,0,1,,,,,0,,,63,60
79680,note_off,,,,,192,0,2,,,,,1,,,64,0
79680,note_on,,,,,0,0,3,,,,,2,,,63,70
79680,note_off,,,,,192,0,3,,,,,2,,,64,0
79808,note_off,,,,,320,0,9,,,,,8,,,49,0
79808,note_off,,,,,320,0,8,,,,,7,,,64,0
79872,note_on,,,,,0,0,7,,,,,6,,,44,60
79872,note_off,,,,,384,0,7,,,,,6,,,49,0
79872,note_on,,,,,0,0,4,,,,,3,,,64,70
79872,note_off,,,,,192,0,4,,,,,3,,,63,0
79872,note_on,,,,,0,0,9,,,,,8,,,52,45
79872,note_on,,,,,0,0,3,,,,,2,,,64,70
79872,note_off,,,,,192,0,3,,,,,2,,,63,0
79872,note_on,,,,,0,0,2,,,,,1,,,64,60
79872,note_on,,,,,0,0,1,,,,,0,,,64,60
79872,note_on,,,,,0,0,5,,,,,4,,,59,60
79872,note_off,,,,,192,0,2,,,,,1,,,63,0
79872,note_off,,,,,192,0,1,,,,,0,,,63,0
79872,note_off,,,,,384,0,6,,,,,5,,,49,0
79872,note_on,,,,,0,0,6,,,,,5,,,44,60
79872,note_off,,,,,384,0,5,,,,,4,,,64,0
79872,note_on,,,,,64,0,8,,,,,7,,,59,45
79872,note_on,,,,,64,0,9,,,,,8,,,44,45
80064,note_on,,,,,0,0,4,,,,,3,,,76,70
80064,note_off,,,,,192,0,2,,,,,1,,,64,0
80064,note_off,,,,,192,0,4,,,,,3,,,64,0
80064,note_on,,,,,0,0,3,,,,,2,,,76,70
80064,note_off,,,,,192,0,3,,,,,2,,,64,0
80064,note_off,,,,,192,0,1,,,,,0,,,64,0
80064,note_on,,,,,0,0,1,,,,,0,,,76,60
80064,note_on,,,,,0,0,2,,,,,1,,,76,60
80192,note_off,,,,,320,0,9,,,,,8,,,44,0
80192,note_off,,,,,320,0,8,,,,,7,,,59,0
80192,note_off,,,,,0,0,9,,,,,8,,,52,0
80256,note_off,,,,,384,0,7,,,,,6,,,44,0
80256,note_on,,,,,0,0,1,,,,,0,,,75,60
80256,note_on,,,,,0,0,3,,,,,2,,,75,70
80256,note_on,,,,,0,0,2,,,,,1,,,75,60
80256,note_off,,,,,192,0,2,,,,,1,,,76,0
80256,note_off,,,,,192,0,4,,,,,3,,,76,0
80256,note_off,,,,,192,0,1,,,,,0,,,76,0
80256,note_off,,,,,192,0,3,,,,,2,,,76,0
80256,note_off,,,,,384,0,6,,,,,5,,,44,0
80256,note_on,,,,,0,0,4,,,,,3,,,75,70
80256,note_off,,,,,384,0,5,,,,,4,,,59,0
80448,note_off,,,,,192,0,2,,,,,1,,,75,0
80448,note_on,,,,,0,0,4,,,,,3,,,76,70
80448,note_on,,,,,0,0,1,,,,,0,,,76,60
80448,note_off,,,,,192,0,3,,,,,2,,,75,0
80448,note_off,,,,,192,0,4,,,,,3,,,75,0
80448,note_on,,,,,0,0,3,,,,,2,,,76,70
80448,note_off,,,,,192,0,1,,,,,0,,,75,0
80448,note_on,,,,,0,0,2,,,,,1,,,76,60
80640,note_on,,,,,384,0,7,,,,,6,,,45,60
80640,note_on,,,,,384,0,6,,,,,5,,,45,60
80640,note_off,,,,,192,0,3,,,,,2,,,76,0
80640,note_on,,,,,0,0,2,,,,,1,,,66,60
80640,note_off,,,,,192,0,2,,,,,1,,,76,0
80640,note_on,,,,,448,0,8,,,,,7,,,61,45
80640,note_on,,,,,0,0,3,,,,,2,,,66,70
80640,note_on,,,,,384,0,5,,,,,4,,,61,60
80640,note_on,,,,,448,0,9,,,,,8,,,45,45
80640,note_off,,,,,192,0,4,,,,,3,,,76,0
80640,note_on,,,,,0,0,4,,,,,3,,,66,70
80640,note_on,,,,,0,0,1,,,,,0,,,66,60
80640,note_off,,,,,192,0,1,,,,,0,,,76,0
80832,note_off,,,,,192,0,1,,,,,0,,,66,0
80832,note_off,,,,,192,0,3,,,,,2,,,66,0
80832,note_off,,,,,192,0,4,,,,,3,,,66,0
80832,note_on,,,,,0,0,3,,,,,2,,,76,70
80832,note_off,,,,,192,0,2,,,,,1,,,66,0
80832,note_on,,,,,0,0,1,,,,,0,,,76,60
80832,note_on,,,,,0,0,2,,,,,1,,,76,60
80832,note_on,,,,,0,0,4,,,,,3,,,76,70
80960,note_off,,,,,320,0,8,,,,,7,,,61,0
80960,note_off,,,,,320,0,9,,,,,8,,,45,0
81024,note_on,,,,,0,0,1,,,,,0,,,75,60
81024,note_on,,,,,0,0,3,,,,,2,,,75,70
81024,note_off,,,,,192,0,3,,,,,2,,,76,0
81024,note_off,,,,,192,0,1,,,,,0,,,76,0
81024,note_on,,,,,64,0,9,,,,,8,,,47,45
81024,note_on,,,,,0,0,6,,,,,5,,,47,60
81024,note_off,,,,,192,0,2,,,,,1,,,76,0
81024,note_off,,,,,192,0,4,,,,,3,,,76,0
81024,note_off,,,,,384,0,6,,,,,5,,,45,0
81024,note_on,,,,,0,0,7,,,,,6,,,47,60
81024,note_off,,,,,384,0,7,,,,,6,,,45,0
81024,note_off,,,,,384,0,5,,,,,4,,,61,0
81024,note_on,,,,,0,0,5,,,,,4,,,66,60
81024,note_on,,,,,64,0,8,,,,,7,,,66,45
81024,note_on,,,,,0,0,2,,,,,1,,,75,60
81024,note_on,,,,,0,0,4,,,,,3,,,75,70
81216,note_off,,,,,192,0,2,,,,,1,,,75,0
81216,note_on,,,,,0,0,2,,,,,1,,,73,60
81216,note_off,,,,,192,0,3,,,,,2,,,75,0
81216,note_on,,,,,0,0,4,,,,,3,,,73,70
81216,note_off,,,,,192,0,1,,,,,0,,,75,0
81216,note_on,,,,,0,0,1,,,,,0,,,73,60
81216,note_on,,,,,0,0,3,,,,,2,,,73,70
81216,note_off,,,,,192,0,4,,,,,3,,,75,0
81344,note_off,,,,,320,0,8,,,,,7,,,66,0
81344,note_off,,,,,320,0,9,,,,,8,,,47,0
81408,note_on,,,,,0,0,4,,,,,3,,,71,70
81408,note_on,,,,,0,0,5,,,,,4,,,66,60
81408,note_off,,,,,384,0,5,,,,,4,,,66,0
81408,note_on,,,,,0,0,6,,,,,5,,,51,60
81408,note_on,,,,,64,0,9,,,,,8,,,51,45
81408,note_off,,,,,384,0,7,,,,,6,,,47,0
81408,note_off,,,,,192,0,2,,,,,1,,,73,0
81408,note_on,,,,,0,0,2,,,,,1,,,71,60
81408,note_on,,,,,0,0,7,,,,,6,,,51,60
81408,note_off,,,,,192,0,4,,,,,3,,,73,0
81408,note_off,,,,,384,0,6,,,,,5,,,47,0
81408,note_off,,,,,192,0,3,,,,,2,,,73,0
81408,note_on,,,,,64,0,8,,,,,7,,,66,45
81408,note_on,,,,,0,0,3,,,,,2,,,71,70
81408,note_on,,,,,0,0,1,,,,,0,,,71,60
81408,note_off,,,,,192,0,1,,,,,0,,,73,0
81600,note_on,,,,,0,0,2,,,,,1,,,69,60
81600,note_on,,,,,0,0,1,,,,,0,,,69,60
81600,note_off,,,,,192,0,3,,,,,2,,,71,0
81600,note_on,,,,,0,0,3,,,,,2,,,69,70
81600,note_off,,,,,192,0,1,,,,,0,,,71,0
81600,note_off,,,,,192,0,4,,,,,3,,,71,0
81600,note_on,,,,,0,0,4,,,,,3,,,69,70
81600,note_off,,,,,192,0,2,,,,,1,,,71,0
81728,note_off,,,,,320,0,9,,,,,8,,,51,0
81728,note_off,,,,,320,0,8,,,,,7,,,66,0
81792,note_off,,,,,192,0,4,,,,,3,,,69,0
81792,note_on,,,,,0,0,4,,,,,3,,,68,70
81792,note_on,,,,,0,0,5,,,,,4,,,59,60
81792,note_off,,,,,384,0,5,,,,,4,,,66,0
81792,note_on,,,,,0,0,3,,,,,2,,,68,70
81792,note_off,,,,,192,0,3,,,,,2,,,69,0
81792,note_on,,,,,0,0,1,,,,,0,,,68,60
81792,note_off,,,,,384,0,6,,,,,5,,,51,0
81792,note_on,,,,,0,0,6,,,,,5,,,52,60
81792,note_off,,,,,384,0,7,,,,,6,,,51,0
81792,note_on,,,,,64,0,9,,,,,8,,,52,45
81792,note_on,,,,,0,0,7,,,,,6,,,52,60
81792,note_off,,,,,192,0,1,,,,,0,,,69,0
81792,note_on,,,,,64,0,8,,,,,7,,,59,45
81792,note_off,,,,,192,0,2,,,,,1,,,69,0
81792,note_on,,,,,0,0,2,,,,,1,,,68,60
81984,note_on,,,,,0,0,3,,,,,2,,,69,70
81984,note_on,,,,,0,0,1,,,,,0,,,69,60
81984,note_off,,,,,192,0,1,,,,,0,,,68,0
81984,note_off,,,,,192,0,3,,,,,2,,,68,0
81984,note_off,,,,,192,0,2,,,,,1,,,68,0
81984,note_on,,,,,0,0,4,,,,,3,,,69,70
81984,note_off,,,,,192,0,4,,,,,3,,,68,0
81984,note_on,,,,,0,0,2,,,,,1,,,69,60
82112,note_off,,,,,320,0,8,,,,,7,,,59,0
82112,note_off,,,,,320,0,9,,,,,8,,,52,0
82176,note_on,,,,,0,0,5,,,,,4,,,64,60
82176,note_off,,,,,384,0,5,,,,,4,,,59,0
82176,note_on,,,,,0,0,7,,,,,6,,,40,60
82176,note_off,,,,,192,0,2,,,,,1,,,69,0
82176,note_on,,,,,0,0,2,,,,,1,,,71,60
82176,note_on,,,,,0,0,6,,,,,5,,,40,60
82176,note_off,,,,,384,0,6,,,,,5,,,52,0
82176,note_on,,,,,0,0,1,,,,,0,,,71,60
82176,note_off,,,,,384,0,7,,,,,6,,,52,0
82176,note_off,,,,,192,0,1,,,,,0,,,69,0
82176,note_on,,,,,64,0,8,,,,,7,,,64,45
82176,note_on,,,,,0,0,4,,,,,3,,,71,70
82176,note_off,,,,,192,0,3,,,,,2,,,69,0
82176,note_off,,,,,192,0,4,,,,,3,,,69,0
82176,note_on,,,,,0,0,3,,,,,2,,,71,70
82176,note_on,,,,,64,0,9,,,,,8,,,40,45
82368,note_on,,,,,0,0,4,,,,,3,,,68,70
82368,note_on,,,,,0,0,1,,,,,0,,,68,60
82368,note_on,,,,,0,0,2,,,,,1,,,68,60
82368,note_off,,,,,192,0,2,,,,,1,,,71,0
82368,note_off,,,,,192,0,4,,,,,3,,,71,0
82368,note_off,,,,,192,0,1,,,,,0,,,71,0
82368,note_on,,,,,0,0,3,,,,,2,,,68,70
82368,note_off,,,,,192,0,3,,,,,2,,,71,0
82496,note_off,,,,,320,0,9,,,,,8,,,40,0
82496,note_off,,,,,320,0,8,,,,,7,,,64,0
82560,note_off,,,,,192,0,4,,,,,3,,,68,0
82560,note_on,,,,,0,0,4,,,,,3,,,66,70
82560,note_off,,,,,192,0,1,,,,,0,,,68,0
82560,note_on,,,,,0,0,1,,,,,0,,,66,60
82560,note_off,,,,,192,0,2,,,,,1,,,68,0
82560,note_on,,,,,0,0,2,,,,,1,,,66,60
82560,note_off,,,,,384,0,7,,,,,6,,,40,0
82560,note_off,,,,,384,0,5,,,,,4,,,64,0
82560,note_off,,,,,384,0,6,,,,,5,,,40,0
82560,note_on,,,,,0,0,3,,,,,2,,,66,70
82560,note_off,,,,,192,0,3,,,,,2,,,68,0
82752,note_off,,,,,192,0,4,,,,,3,,,66,0
82752,note_on,,,,,0,0,1,,,,,0,,,64,60
82752,note_on,,,,,0,0,4,,,,,3,,,64,70
82752,note_off,,,,,192,0,3,,,,,2,,,66,0
82752,note_off,,,,,192,0,1,,,,,0,,,66,0
82752,note_on,,,,,0,0,2,,,,,1,,,64,60
82752,note_off,,,,,192,0,2,,,,,1,,,66,0
82752,note_on,,,,,0,0,3,,,,,2,,,64,70
82944,note_on,,,,,0,0,4,,,,,3,,,80,70
82944,note_on,,,,,448,0,8,,,,,7,,,71,45
82944,note_on,,,,,384,0,5,,,,,4,,,71,60
82944,note_off,,,,,192,0,4,,,,,3,,,64,0
82944,note_on,,,,,0,0,3,,,,,2,,,80,70
82944,note_off,,,,,192,0,1,,,,,0,,,64,0
82944,note_on,,,,,448,0,9,,,,,8,,,52,45
82944,note_on,,,,,0,0,1,,,,,0,,,80,60
82944,note_on,,,,,384,0,7,,,,,6,,,52,60
82944,note_off,,,,,192,0,2,,,,,1,,,64,0
82944,note_on,,,,,384,0,6,,,,,5,,,52,60
82944,note_off,,,,,192,0,3,,,,,2,,,64,0
82944,note_on,,,,,0,0,2,,,,,1,,,80,60
83132,note_off,,,,,188,0,8,,,,,7,,,71,0
83136,note_on,,,,,0,0,5,,,,,4,,,73,60
83136,note_off,,,,,192,0,5,,,,,4,,,71,0
83136,note_on,,,,,4,0,8,,,,,7,,,73,45
83264,note_off,,,,,320,0,9,,,,,8,,,52,0
83324,note_off,,,,,188,0,8,,,,,7,,,73,0
83328,note_on,,,,,0,0,5,,,,,4,,,71,60
83328,note_on,,,,,64,0,9,,,,,8,,,54,45
83328,note_on,,,,,4,0,8,,,,,7,,,71,45
83328,note_off,,,,,384,0,7,,,,,6,,,52,0
83328,note_on,,,,,0,0,7,,,,,6,,,54,60
83328,note_on,,,,,0,0,6,,,,,5,,,54,60
83328,note_off,,,,,384,0,6,,,,,5,,,52,0
83328,note_off,,,,,192,0,5,,,,,4,,,73,0
83516,note_off,,,,,188,0,8,,,,,7,,,71,0
83520,note_on,,,,,0,0,5,,,,,4,,,69,60
83520,note_on,,,,,0,0,1,,,,,0,,,78,60
83520,note_off,,,,,576,0,1,,,,,0,,,80,0
83520,note_off,,,,,192,0,5,,,,,4,,,71,0
83520,note_on,,,,,0,0,2,,,,,1,,,78,60
83520,note_off,,,,,576,0,2,,,,,1,,,80,0
83520,note_off,,,,,576,0,3,,,,,2,,,80,0
83520,note_off,,,,,576,0,4,,,,,3,,,80,0
83520,note_on,,,,,0,0,4,,,,,3,,,78,70
83520,note_on,,,,,4,0,8,,,,,7,,,69,45
83520,note_on,,,,,0,0,3,,,,,2,,,78,70
83648,note_off,,,,,320,0,9,,,,,8,,,54,0
83708,note_off,,,,,188,0,8,,,,,7,,,69,0
83712,note_off,,,,,192,0,2,,,,,1,,,78,0
83712,note_on,,,,,0,0,2,,,,,1,,,76,60
83712,note_on,,,,,0,0,3,,,,,2,,,76,70
83712,note_off,,,,,384,0,7,,,,,6,,,54,0
83712,note_on,,,,,0,0,7,,,,,6,,,56,60
83712,note_on,,,,,0,0,5,,,,,4,,,68,60
83712,note_off,,,,,192,0,5,,,,,4,,,69,0
83712,note_off,,,,,192,0,3,,,,,2,,,78,0
83712,note_on,,,,,64,0,9,,,,,8,,,56,45
83712,note_on,,,,,0,0,4,,,,,3,,,76,70
83712,note_off,,,,,192,0,4,,,,,3,,,78,0
83712,note_on,,,,,0,0,1,,,,,0,,,76,60
83712,note_off,,,,,192,0,1,,,,,0,,,78,0
83712,note_on,,,,,4,0,8,,,,,7,,,68,45
83712,note_on,,,,,0,0,6,,,,,5,,,56,60
83712,note_on,,,,,0,0,9,,,,,8,,,64,45
83712,note_off,,,,,384,0,6,,,,,5,,,54,0
83900,note_off,,,,,188,0,8,,,,,7,,,68,0
83904,note_off,,,,,192,0,3,,,,,2,,,76,0
83904,note_on,,,,,0,0,3,,,,,2,,,75,70
83904,note_on,,,,,0,0,2,,,,,1,,,75,60
83904,note_off,,,,,192,0,1,,,,,0,,,76,0
83904,note_off,,,,,192,0,2,,,,,1,,,76,0
83904,note_off,,,,,192,0,4,,,,,3,,,76,0
83904,note_on,,,,,0,0,4,,,,,3,,,75,70
83904,note_on,,,,,0,0,1,,,,,0,,,75,60
83904,note_on,,,,,4,0,8,,,,,7,,,66,45
83904,note_off,,,,,192,0,5,,,,,4,,,68,0
83904,note_on,,,,,0,0,5,,,,,4,,,66,60
84032,note_off,,,,,320,0,9,,,,,8,,,56,0
84032,note_off,,,,,0,0,9,,,,,8,,,64,0
84092,note_off,,,,,188,0,8,,,,,7,,,66,0
84096,note_on,,,,,0,0,5,,,,,4,,,64,60
84096,note_on,,,,,0,0,4,,,,,3,,,73,70
84096,note_on,,,,,0,0,6,,,,,5,,,57,60
84096,note_off,,,,,384,0,7,,,,,6,,,56,0
84096,note_on,,,,,64,0,9,,,,,8,,,57,45
84096,note_on,,,,,0,0,7,,,,,6,,,57,60
84096,note_on,,,,,4,0,8,,,,,7,,,64,45
84096,note_off,,,,,192,0,2,,,,,1,,,75,0
84096,note_on,,,,,0,0,3,,,,,2,,,73,70
84096,note_off,,,,,192,0,4,,,,,3,,,75,0
84096,note_off,,,,,192,0,1,,,,,0,,,75,0
84096,note_on,,,,,0,0,2,,,,,1,,,73,60
84096,note_on,,,,,0,0,1,,,,,0,,,73,60
84096,note_off,,,,,384,0,6,,,,,5,,,56,0
84096,note_off,,,,,192,0,3,,,,,2,,,75,0
84096,note_off,,,,,192,0,5,,,,,4,,,66,0
84288,note_off,,,,,192,0,4,,,,,3,,,73,0
84288,note_on,,,,,0,0,1,,,,,0,,,71,60
84288,note_off,,,,,192,0,3,,,,,2,,,73,0
84288,note_on,,,,,0,0,3,,,,,2,,,71,70
84288,note_off,,,,,192,0,2,,,,,1,,,73,0
84288,note_on,,,,,0,0,4,,,,,3,,,71,70
84288,note_on,,,,,0,0,2,,,,,1,,,71,60
84288,note_off,,,,,192,0,1,,,,,0,,,73,0
84416,note_off,,,,,320,0,8,,,,,7,,,64,0
84416,note_off,,,,,320,0,9,,,,,8,,,57,0
84480,note_off,,,,,192,0,1,,,,,0,,,71,0
84480,note_on,,,,,0,0,1,,,,,0,,,69,60
84480,note_off,,,,,384,0,5,,,,,4,,,64,0
84480,note_on,,,,,64,0,9,,,,,8,,,59,45
84480,note_off,,,,,192,0,3,,,,,2,,,71,0
84480,note_on,,,,,0,0,3,,,,,2,,,69,70
84480,note_off,,,,,192,0,2,,,,,1,,,71,0
84480,note_on,,,,,0,0,2,,,,,1,,,69,60
84480,note_off,,,,,384,0,6,,,,,5,,,57,0
84480,note_off,,,,,192,0,4,,,,,3,,,71,0
84480,note_on,,,,,0,0,4,,,,,3,,,69,70
84480,note_off,,,,,384,0,7,,,,,6,,,57,0
84480,note_on,,,,,0,0,6,,,,,5,,,59,60
84480,note_on,,,,,0,0,7,,,,,6,,,59,60
84672,note_off,,,,,192,0,2,,,,,1,,,69,0
84672,note_off,,,,,192,0,4,,,,,3,,,69,0
84672,note_on,,,,,0,0,4,,,,,3,,,68,70
84672,note_on,,,,,0,0,1,,,,,0,,,68,60
84672,note_on,,,,,0,0,2,,,,,1,,,68,60
84672,note_off,,,,,192,0,1,,,,,0,,,69,0
84672,note_off,,,,,192,0,3,,,,,2,,,69,0
84672,note_on,,,,,0,0,3,,,,,2,,,68,70
84800,note_off,,,,,320,0,9,,,,,8,,,59,0
84864,note_on,,,,,0,0,3,,,,,2,,,66,70
84864,note_off,,,,,384,0,6,,,,,5,,,59,0
84864,note_off,,,,,192,0,4,,,,,3,,,68,0
84864,note_on,,,,,0,0,4,,,,,3,,,66,70
84864,note_on,,,,,0,0,1,,,,,0,,,66,60
84864,note_off,,,,,192,0,3,,,,,2,,,68,0
84864,note_on,,,,,0,0,6,,,,,5,,,61,60
84864,note_off,,,,,384,0,7,,,,,6,,,59,0
84864,note_on,,,,,0,0,2,,,,,1,,,66,60
84864,note_on,,,,,64,0,9,,,,,8,,,61,45
84864,note_off,,,,,192,0,1,,,,,0,,,68,0
84864,note_on,,,,,0,0,7,,,,,6,,,61,60
84864,note_off,,,,,192,0,2,,,,,1,,,68,0
85056,note_on,,,,,0,0,1,,,,,0,,,64,60
85056,note_on,,,,,0,0,2,,,,,1,,,64,60
85056,note_off,,,,,192,0,2,,,,,1,,,66,0
85056,note_off,,,,,192,0,4,,,,,3,,,66,0
85056,note_off,,,,,192,0,1,,,,,0,,,66,0
85056,note_on,,,,,0,0,3,,,,,2,,,64,70
85056,note_off,,,,,192,0,3,,,,,2,,,66,0
85056,note_on,,,,,0,0,4,,,,,3,,,64,70
85184,note_off,,,,,320,0,9,,,,,8,,,61,0
85248,note_off,,,,,192,0,4,,,,,3,,,64,0
85248,note_on,,,,,0,0,4,,,,,3,,,85,70
85248,note_off,,,,,384,0,7,,,,,6,,,61,0
85248,note_on,,,,,0,0,7,,,,,6,,,57,60
85248,note_off,,,,,192,0,1,,,,,0,,,64,0
85248,note_on,,,,,832,0,8,,,,,7,,,66,45
85248,note_off,,,,,384,0,6,,,,,5,,,61,0
85248,note_on,,,,,0,0,6,,,,,5,,,57,60
85248,note_off,,,,,192,0,3,,,,,2,,,64,0
85248,note_off,,,,,192,0,2,,,,,1,,,64,0
85248,note_on,,,,,0,0,2,,,,,1,,,85,60
85248,note_on,,,,,0,0,3,,,,,2,,,85,70
85248,note_on,,,,,768,0,5,,,,,4,,,66,60
85248,note_on,,,,,0,0,1,,,,,0,,,85,60
85248,note_on,,,,,64,0,9,,,,,8,,,57,45
85440,note_off,,,,,192,0,1,,,,,0,,,85,0
85440,note_off,,,,,192,0,2,,,,,1,,,85,0
85440,note_on,,,,,0,0,3,,,,,2,,,83,70
85440,note_off,,,,,192,0,4,,,,,3,,,85,0
85440,note_on,,,,,0,0,4,,,,,3,,,83,70
85440,note_off,,,,,192,0,3,,,,,2,,,85,0
85440,note_on,,,,,0,0,2,,,,,1,,,83,60
85440,note_on,,,,,0,0,1,,,,,0,,,83,60
85568,note_off,,,,,320,0,9,,,,,8,,,57,0
85568,note_off,,,,,320,0,8,,,,,7,,,66,0
85632,note_off,,,,,192,0,3,,,,,2,,,83,0
85632,note_on,,,,,0,0,2,,,,,1,,,81,60
85632,note_on,,,,,0,0,7,,,,,6,,,54,60
85632,note_off,,,,,192,0,1,,,,,0,,,83,0
85632,note_off,,,,,384,0,7,,,,,6,,,57,0
85632,note_off,,,,,192,0,2,,,,,1,,,83,0
85632,note_on,,,,,0,0,3,,,,,2,,,81,70
85632,note_on,,,,,64,0,9,,,,,8,,,54,45
85632,note_on,,,,,0,0,1,,,,,0,,,81,60
85632,note_on,,,,,0,0,6,,,,,5,,,54,60
85632,note_off,,,,,384,0,6,,,,,5,,,57,0
85632,note_on,,,,,64,0,8,,,,,7,,,73,45
85632,note_on,,,,,0,0,4,,,,,3,,,81,70
85632,note_off,,,,,192,0,4,,,,,3,,,83,0
85632,note_off,,,,,384,0,5,,,,,4,,,66,0
85632,note_on,,,,,0,0,5,,,,,4,,,73,60
85820,note_off,,,,,188,0,8,,,,,7,,,73,0
85824,note_off,,,,,192,0,5,,,,,4,,,73,0
85824,note_on,,,,,0,0,5,,,,,4,,,71,60
85824,note_off,,,,,192,0,1,,,,,0,,,81,0
85824,note_off,,,,,192,0,4,,,,,3,,,81,0
85824,note_on,,,,,0,0,4,,,,,3,,,80,70
85824,note_on,,,,,4,0,8,,,,,7,,,71,45
85824,note_off,,,,,192,0,2,,,,,1,,,81,0
85824,note_on,,,,,0,0,2,,,,,1,,,80,60
85824,note_on,,,,,0,0,1,,,,,0,,,80,60
85824,note_off,,,,,192,0,3,,,,,2,,,81,0
85824,note_on,,,,,0,0,3,,,,,2,,,80,70
85952,note_off,,,,,320,0,9,,,,,8,,,54,0
86012,note_off,,,,,188,0,8,,,,,7,,,71,0
86016,note_on,,,,,4,0,8,,,,,7,,,69,45
86016,note_off,,,,,192,0,4,,,,,3,,,80,0
86016,note_on,,,,,0,0,4,,,,,3,,,78,70
86016,note_off,,,,,192,0,3,,,,,2,,,80,0
86016,note_on,,,,,0,0,3,,,,,2,,,78,70
86016,note_on,,,,,0,0,6,,,,,5,,,57,60
86016,note_on,,,,,64,0,9,,,,,8,,,57,45
86016,note_on,,,,,0,0,2,,,,,1,,,78,60
86016,note_off,,,,,192,0,2,,,,,1,,,80,0
86016,note_off,,,,,192,0,1,,,,,0,,,80,0
86016,note_on,,,,,0,0,1,,,,,0,,,78,60
86016,note_on,,,,,0,0,7,,,,,6,,,57,60
86016,note_off,,,,,384,0,7,,,,,6,,,54,0
86016,note_on,,,,,0,0,5,,,,,4,,,69,60
86016,note_off,,,,,192,0,5,,,,,4,,,71,0
86016,note_off,,,,,384,0,6,,,,,5,,,54,0
86204,note_off,,,,,188,0,8,,,,,7,,,69,0
86208,note_on,,,,,0,0,2,,,,,1,,,76,60
86208,note_on,,,,,0,0,4,,,,,3,,,76,70
86208,note_off,,,,,192,0,1,,,,,0,,,78,0
86208,note_on,,,,,0,0,1,,,,,0,,,76,60
86208,note_off,,,,,192,0,2,,,,,1,,,78,0
86208,note_on,,,,,0,0,5,,,,,4,,,68,60
86208,note_off,,,,,192,0,5,,,,,4,,,69,0
86208,note_on,,,,,4,0,8,,,,,7,,,68,45
86208,note_off,,,,,192,0,4,,,,,3,,,78,0
86208,note_off,,,,,192,0,3,,,,,2,,,78,0
86208,note_on,,,,,0,0,3,,,,,2,,,76,70
86336,note_off,,,,,320,0,9,,,,,8,,,57,0
86396,note_off,,,,,188,0,8,,,,,7,,,68,0
86400,note_off,,,,,192,0,2,,,,,1,,,76,0
86400,note_off,,,,,192,0,3,,,,,2,,,76,0
86400,note_on,,,,,0,0,7,,,,,6,,,59,60
86400,note_off,,,,,384,0,6,,,,,5,,,57,0
86400,note_on,,,,,64,0,9,,,,,8,,,59,45
86400,note_on,,,,,0,0,3,,,,,2,,,75,70
86400,note_off,,,,,192,0,5,,,,,4,,,68,0
86400,note_on,,,,,0,0,5,,,,,4,,,66,60
86400,note_off,,,,,384,0,7,,,,,6,,,57,0
86400,note_on,,,,,0,0,2,,,,,1,,,75,60
86400,note_off,,,,,192,0,1,,,,,0,,,76,0
86400,note_on,,,,,0,0,1,,,,,0,,,75,60
86400,note_on,,,,,4,0,8,,,,,7,,,66,45
86400,note_on,,,,,0,0,4,,,,,3,,,75,70
86400,note_on,,,,,0,0,6,,,,,5,,,59,60
86400,note_off,,,,,192,0,4,,,,,3,,,76,0
86588,note_off,,,,,188,0,8,,,,,7,,,66,0
86592,note_on,,,,,0,0,2,,,,,1,,,73,60
86592,note_on,,,,,0,0,5,,,,,4,,,64,60
86592,note_off,,,,,192,0,5,,,,,4,,,66,0
86592,note_on,,,,,4,0,8,,,,,7,,,64,45
86592,note_on,,,,,0,0,3,,,,,2,,,73,70
86592,note_off,,,,,192,0,3,,,,,2,,,75,0
86592,note_off,,,,,192,0,4,,,,,3,,,75,0
86592,note_on,,,,,0,0,4,,,,,3,,,73,70
86592,note_off,,,,,192,0,1,,,,,0,,,75,0
86592,note_on,,,,,0,0,1,,,,,0,,,73,60
86592,note_off,,,,,192,0,2,,,,,1,,,75,0
86720,note_off,,,,,320,0,9,,,,,8,,,59,0
86780,note_off,,,,,188,0,8,,,,,7,,,64,0
86784,note_off,,,,,192,0,1,,,,,0,,,73,0
86784,note_on,,,,,0,0,1,,,,,0,,,71,60
86784,note_off,,,,,192,0,3,,,,,2,,,73,0
86784,note_on,,,,,0,0,3,,,,,2,,,71,70
86784,note_on,,,,,0,0,4,,,,,3,,,71,70
86784,note_off,,,,,384,0,6,,,,,5,,,59,0
86784,note_on,,,,,4,0,8,,,,,7,,,63,45
86784,note_off,,,,,192,0,4,,,,,3,,,73,0
86784,note_on,,,,,0,0,5,,,,,4,,,63,60
86784,note_off,,,,,192,0,5,,,,,4,,,64,0
86784,note_on,,,,,64,0,9,,,,,8,,,47,45
86784,note_off,,,,,384,0,7,,,,,6,,,59,0
86784,note_on,,,,,0,0,7,,,,,6,,,47,60
86784,note_off,,,,,192,0,2,,,,,1,,,73,0
86784,note_on,,,,,0,0,2,,,,,1,,,71,60
86784,note_on,,,,,0,0,6,,,,,5,,,47,60
86976,note_on,,,,,0,0,3,,,,,2,,,75,70
86976,note_off,,,,,192,0,3,,,,,2,,,71,0
86976,note_off,,,,,192,0,2,,,,,1,,,71,0
86976,note_on,,,,,0,0,1,,,,,0,,,75,60
86976,note_off,,,,,192,0,1,,,,,0,,,71,0
86976,note_on,,,,,0,0,4,,,,,3,,,75,70
86976,note_off,,,,,192,0,4,,,,,3,,,71,0
86976,note_on,,,,,0,0,2,,,,,1,,,75,60
87104,note_off,,,,,320,0,9,,,,,8,,,47,0
87104,note_off,,,,,320,0,8,,,,,7,,,63,0
87168,note_off,,,,,192,0,2,,,,,1,,,75,0
87168,note_on,,,,,0,0,2,,,,,1,,,76,60
87168,note_on,,,,,64,0,9,,,,,8,,,49,45
87168,note_off,,,,,192,0,3,,,,,2,,,75,0
87168,note_on,,,,,64,0,8,,,,,7,,,61,45
87168,note_on,,,,,0,0,3,,,,,2,,,76,70
87168,note_off,,,,,384,0,5,,,,,4,,,63,0
87168,note_off,,,,,192,0,4,,,,,3,,,75,0
87168,note_off,,,,,384,0,7,,,,,6,,,47,0
87168,note_on,,,,,0,0,7,,,,,6,,,49,60
87168,note_on,,,,,0,0,4,,,,,3,,,76,70
87168,note_on,,,,,0,0,5,,,,,4,,,61,60
87168,note_off,,,,,192,0,1,,,,,0,,,75,0
87168,note_on,,,,,0,0,6,,,,,5,,,49,60
87168,note_on,,,,,0,0,1,,,,,0,,,76,60
87168,note_off,,,,,384,0,6,,,,,5,,,47,0
87360,note_off,,,,,192,0,2,,,,,1,,,76,0
87360,note_on,,,,,0,0,4,,,,,3,,,71,70
87360,note_on,,,,,0,0,3,,,,,2,,,71,70
87360,note_off,,,,,192,0,3,,,,,2,,,76,0
87360,note_off,,,,,192,0,4,,,,,3,,,76,0
87360,note_on,,,,,0,0,2,,,,,1,,,71,60
87360,note_on,,,,,0,0,1,,,,,0,,,71,60
87360,note_off,,,,,192,0,1,,,,,0,,,76,0
87488,note_off,,,,,320,0,8,,,,,7,,,61,0
87488,note_off,,,,,320,0,9,,,,,8,,,49,0
87552,note_on,,,,,0,0,7,,,,,6,,,51,60
87552,note_off,,,,,384,0,7,,,,,6,,,49,0
87552,note_off,,,,,384,0,6,,,,,5,,,49,0
87552,note_on,,,,,0,0,5,,,,,4,,,59,60
87552,note_on,,,,,64,0,8,,,,,7,,,59,45
87552,note_on,,,,,64,0,9,,,,,8,,,51,45
87552,note_off,,,,,384,0,5,,,,,4,,,61,0
87552,note_off,,,,,192,0,2,,,,,1,,,71,0
87552,note_on,,,,,0,0,2,,,,,1,,,78,60
87552,note_on,,,,,0,0,3,,,,,2,,,78,70
87552,note_off,,,,,192,0,3,,,,,2,,,71,0
87552,note_off,,,,,192,0,4,,,,,3,,,71,0
87552,note_off,,,,,192,0,1,,,,,0,,,71,0
87552,note_on,,,,,0,0,1,,,,,0,,,78,60
87552,note_on,,,,,0,0,6,,,,,5,,,51,60
87552,note_on,,,,,0,0,4,,,,,3,,,78,70
87744,note_on,,,,,0,0,3,,,,,2,,,71,70
87744,note_off,,,,,192,0,1,,,,,0,,,78,0
87744,note_on,,,,,0,0,4,,,,,3,,,71,70
87744,note_on,,,,,0,0,1,,,,,0,,,71,60
87744,note_off,,,,,192,0,3,,,,,2,,,78,0
87744,note_off,,,,,192,0,4,,,,,3,,,78,0
87744,note_on,,,,,0,0,2,,,,,1,,,71,60
87744,note_off,,,,,192,0,2,,,,,1,,,78,0
87872,note_off,,,,,320,0,8,,,,,7,,,59,0
87872,note_off,,,,,320,0,9,,,,,8,,,51,0
87936,note_on,,,,,64,0,8,,,,,7,,,71,45
87936,note_on,,,,,0,0,1,,,,,0,,,80,60
87936,note_off,,,,,192,0,1,,,,,0,,,71,0
87936,note_off,,,,,192,0,3,,,,,2,,,71,0
87936,note_on,,,,,0,0,3,,,,,2,,,80,70
87936,note_on,,,,,0,0,2,,,,,1,,,80,60
87936,note_off,,,,,192,0,2,,,,,1,,,71,0
87936,note_on,,,,,0,0,6,,,,,5,,,52,60
87936,note_on,,,,,0,0,5,,,,,4,,,71,60
87936,note_on,,,,,0,0,7,,,,,6,,,52,60
87936,note_off,,,,,192,0,4,,,,,3,,,71,0
87936,note_on,,,,,0,0,4,,,,,3,,,80,70
87936,note_off,,,,,384,0,5,,,,,4,,,59,0
87936,note_off,,,,,384,0,6,,,,,5,,,51,0
87936,note_on,,,,,64,0,9,,,,,8,,,52,45
87936,note_off,,,,,384,0,7,,,,,6,,,51,0
88128,note_on,,,,,0,0,2,,,,,1,,,75,60
88128,note_on,,,,,0,0,3,,,,,2,,,75,70
88128,note_off,,,,,192,0,3,,,,,2,,,80,0
88128,note_off,,,,,192,0,4,,,,,3,,,80,0
88128,note_off,,,,,192,0,1,,,,,0,,,80,0
88128,note_on,,,,,0,0,1,,,,,0,,,75,60
88128,note_off,,,,,192,0,2,,,,,1,,,80,0
88128,note_on,,,,,0,0,4,,,,,3,,,75,70
88256,note_off,,,,,320,0,9,,,,,8,,,52,0
88256,note_off,,,,,320,0,8,,,,,7,,,71,0
88320,note_off,,,,,192,0,2,,,,,1,,,75,0
88320,note_off,,,,,384,0,6,,,,,5,,,52,0
88320,note_off,,,,,192,0,1,,,,,0,,,75,0
88320,note_on,,,,,0,0,6,,,,,5,,,56,60
88320,note_on,,,,,0,0,2,,,,,1,,,73,60
88320,note_off,,,,,192,0,3,,,,,2,,,75,0
88320,note_on,,,,,0,0,4,,,,,3,,,73,70
88320,note_off,,,,,192,0,4,,,,,3,,,75,0
88320,note_on,,,,,64,0,8,,,,,7,,,64,45
88320,note_on,,,,,0,0,3,,,,,2,,,73,70
88320,note_on,,,,,0,0,1,,,,,0,,,73,60
88320,note_on,,,,,0,0,5,,,,,4,,,64,60
88320,note_on,,,,,0,0,7,,,,,6,,,56,60
88320,note_off,,,,,384,0,5,,,,,4,,,71,0
88320,note_on,,,,,64,0,9,,,,,8,,,56,45
88320,note_off,,,,,384,0,7,,,,,6,,,52,0
88512,note_off,,,,,192,0,2,,,,,1,,,73,0
88512,note_on,,,,,0,0,2,,,,,1,,,71,60
88512,note_off,,,,,192,0,1,,,,,0,,,73,0
88512,note_off,,,,,192,0,4,,,,,3,,,73,0
88512,note_on,,,,,0,0,1,,,,,0,,,71,60
88512,note_off,,,,,192,0,3,,,,,2,,,73,0
88512,note_on,,,,,0,0,3,,,,,2,,,71,70
88512,note_on,,,,,0,0,4,,,,,3,,,71,70
88640,note_off,,,,,320,0,9,,,,,8,,,56,0
88640,note_off,,,,,320,0,8,,,,,7,,,64,0
88704,note_off,,,,,192,0,4,,,,,3,,,71,0
88704,note_on,,,,,0,0,4,,,,,3,,,70,70
88704,note_off,,,,,384,0,5,,,,,4,,,64,0
88704,note_on,,,,,0,0,5,,,,,4,,,66,60
88704,note_on,,,,,64,0,9,,,,,8,,,54,45
88704,note_off,,,,,192,0,2,,,,,1,,,71,0
88704,note_on,,,,,0,0,2,,,,,1,,,70,60
88704,note_on,,,,,0,0,6,,,,,5,,,54,60
88704,note_off,,,,,384,0,6,,,,,5,,,56,0
88704,note_on,,,,,64,0,8,,,,,7,,,66,45
88704,note_on,,,,,0,0,1,,,,,0,,,70,60
88704,note_off,,,,,384,0,7,,,,,6,,,56,0
88704,note_on,,,,,0,0,7,,,,,6,,,54,60
88704,note_off,,,,,192,0,1,,,,,0,,,71,0
88704,note_on,,,,,0,0,3,,,,,2,,,70,70
88704,note_off,,,,,192,0,3,,,,,2,,,71,0
88896,note_off,,,,,192,0,3,,,,,2,,,70,0
88896,note_off,,,,,192,0,4,,,,,3,,,70,0
88896,note_on,,,,,0,0,4,,,,,3,,,73,70
88896,note_off,,,,,192,0,2,,,,,1,,,70,0
88896,note_on,,,,,0,0,2,,,,,1,,,73,60
88896,note_on,,,,,0,0,3,,,,,2,,,73,70
88896,note_on,,,,,0,0,1,,,,,0,,,73,60
88896,note_off,,,,,192,0,1,,,,,0,,,70,0
89024,note_off,,,,,320,0,9,,,,,8,,,54,0
89088,note_on,,,,,0,0,3,,,,,2,,,78,70
89088,note_off,,,,,384,0,6,,,,,5,,,54,0
89088,note_on,,,,,0,0,2,,,,,1,,,78,60
89088,note_off,,,,,192,0,2,,,,,1,,,73,0
89088,note_on,,,,,0,0,1,,,,,0,,,78,60
89088,note_off,,,,,192,0,1,,,,,0,,,73,0
89088,note_on,,,,,0,0,7,,,,,6,,,51,60
89088,note_on,,,,,0,0,9,,,,,8,,,59,45
89088,note_on,,,,,64,0,9,,,,,8,,,51,45
89088,note_off,,,,,192,0,3,,,,,2,,,73,0
89088,note_on,,,,,0,0,6,,,,,5,,,51,60
89088,note_off,,,,,384,0,7,,,,,6,,,54,0
89088,note_on,,,,,0,0,4,,,,,3,,,78,70
89088,note_off,,,,,192,0,4,,,,,3,,,73,0
89216,note_off,,,,,512,0,8,,,,,7,,,66,0
89276,note_off,,,,,0,0,9,,,,,8,,,59,0
89276,note_off,,,,,188,0,9,,,,,8,,,51,0
89280,note_on,,,,,0,0,2,,,,,1,,,75,60
89280,note_on,,,,,0,0,6,,,,,5,,,54,60
89280,note_off,,,,,192,0,6,,,,,5,,,51,0
89280,note_off,,,,,192,0,2,,,,,1,,,78,0
89280,note_on,,,,,0,0,4,,,,,3,,,75,70
89280,note_off,,,,,192,0,4,,,,,3,,,78,0
89280,note_on,,,,,0,0,3,,,,,2,,,75,70
89280,note_off,,,,,192,0,3,,,,,2,,,78,0
89280,note_on,,,,,0,0,1,,,,,0,,,75,60
89280,note_on,,,,,4,0,9,,,,,8,,,54,45
89280,note_off,,,,,192,0,7,,,,,6,,,51,0
89280,note_on,,,,,0,0,7,,,,,6,,,54,60
89280,note_on,,,,,0,0,5,,,,,4,,,70,60
89280,note_off,,,,,576,0,5,,,,,4,,,66,0
89280,note_off,,,,,192,0,1,,,,,0,,,78,0
89280,note_on,,,,,64,0,8,,,,,7,,,70,45
89468,note_off,,,,,188,0,9,,,,,8,,,54,0
89468,note_off,,,,,188,0,8,,,,,7,,,70,0
89472,note_off,,,,,192,0,1,,,,,0,,,75,0
89472,note_off,,,,,192,0,2,,,,,1,,,75,0
89472,note_on,,,,,0,0,4,,,,,3,,,76,70
89472,note_off,,,,,192,0,7,,,,,6,,,54,0
89472,note_off,,,,,192,0,4,,,,,3,,,75,0
89472,note_on,,,,,4,0,8,,,,,7,,,71,45
89472,note_on,,,,,0,0,3,,,,,2,,,76,70
89472,note_on,,,,,0,0,1,,,,,0,,,76,60
89472,note_off,,,,,192,0,5,,,,,4,,,70,0
89472,note_on,,,,,4,0,9,,,,,8,,,56,45
89472,note_on,,,,,0,0,6,,,,,5,,,56,60
89472,note_on,,,,,0,0,5,,,,,4,,,71,60
89472,note_on,,,,,0,0,2,,,,,1,,,76,60
89472,note_on,,,,,0,0,7,,,,,6,,,56,60
89472,note_off,,,,,192,0,3,,,,,2,,,75,0
89472,note_off,,,,,192,0,6,,,,,5,,,54,0
89660,note_off,,,,,188,0,9,,,,,8,,,56,0
89660,note_off,,,,,188,0,8,,,,,7,,,71,0
89664,note_on,,,,,0,0,6,,,,,5,,,58,60
89664,note_on,,,,,4,0,8,,,,,7,,,73,45
89664,note_on,,,,,0,0,4,,,,,3,,,73,70
89664,note_on,,,,,0,0,2,,,,,1,,,73,60
89664,note_off,,,,,192,0,2,,,,,1,,,76,0
89664,note_off,,,,,192,0,6,,,,,5,,,56,0
89664,note_on,,,,,0,0,5,,,,,4,,,73,60
89664,note_on,,,,,0,0,7,,,,,6,,,58,60
89664,note_off,,,,,192,0,7,,,,,6,,,56,0
89664,note_off,,,,,192,0,5,,,,,4,,,71,0
89664,note_off,,,,,192,0,1,,,,,0,,,76,0
89664,note_on,,,,,0,0,1,,,,,0,,,73,60
89664,note_on,,,,,0,0,3,,,,,2,,,73,70
89664,note_off,,,,,192,0,3,,,,,2,,,76,0
89664,note_off,,,,,192,0,4,,,,,3,,,76,0
89664,note_on,,,,,4,0,9,,,,,8,,,58,45
89852,note_off,,,,,188,0,8,,,,,7,,,73,0
89852,note_off,,,,,188,0,9,,,,,8,,,58,0
89856,note_on,,,,,0,0,7,,,,,6,,,59,60
89856,note_off,,,,,192,0,5,,,,,4,,,73,0
89856,note_off,,,,,192,0,4,,,,,3,,,73,0
89856,note_on,,,,,0,0,4,,,,,3,,,75,70
89856,note_off,,,,,192,0,7,,,,,6,,,58,0
89856,note_on,,,,,0,0,2,,,,,1,,,75,60
89856,note_on,,,,,4,0,9,,,,,8,,,59,45
89856,note_on,,,,,0,0,5,,,,,4,,,66,60
89856,note_on,,,,,4,0,8,,,,,7,,,66,45
89856,note_off,,,,,192,0,2,,,,,1,,,73,0
89856,note_off,,,,,192,0,1,,,,,0,,,73,0
89856,note_on,,,,,0,0,1,,,,,0,,,75,60
89856,note_off,,,,,192,0,6,,,,,5,,,58,0
89856,note_on,,,,,0,0,6,,,,,5,,,59,60
89856,note_on,,,,,0,0,3,,,,,2,,,75,70
89856,note_off,,,,,192,0,3,,,,,2,,,73,0
90048,note_on,,,,,0,0,2,,,,,1,,,71,60
90048,note_on,,,,,0,0,3,,,,,2,,,71,70
90048,note_off,,,,,192,0,2,,,,,1,,,75,0
90048,note_off,,,,,192,0,3,,,,,2,,,75,0
90048,note_off,,,,,192,0,1,,,,,0,,,75,0
90048,note_on,,,,,0,0,1,,,,,0,,,71,60
90048,note_off,,,,,192,0,4,,,,,3,,,75,0
90048,note_on,,,,,0,0,4,,,,,3,,,71,70
90176,note_off,,,,,320,0,8,,,,,7,,,66,0
90176,note_off,,,,,320,0,9,,,,,8,,,59,0
90240,note_off,,,,,192,0,1,,,,,0,,,71,0
90240,note_off,,,,,384,0,5,,,,,4,,,66,0
90240,note_on,,,,,0,0,5,,,,,4,,,68,60
90240,note_off,,,,,192,0,3,,,,,2,,,71,0
90240,note_on,,,,,64,0,8,,,,,7,,,68,45
90240,note_on,,,,,0,0,3,,,,,2,,,73,70
90240,note_on,,,,,0,0,6,,,,,5,,,52,60
90240,note_on,,,,,0,0,1,,,,,0,,,73,60
90240,note_off,,,,,192,0,4,,,,,3,,,71,0
90240,note_on,,,,,0,0,4,,,,,3,,,73,70
90240,note_on,,,,,64,0,9,,,,,8,,,52,45
90240,note_on,,,,,0,0,7,,,,,6,,,52,60
90240,note_off,,,,,384,0,7,,,,,6,,,59,0
90240,note_off,,,,,192,0,2,,,,,1,,,71,0
90240,note_on,,,,,0,0,2,,,,,1,,,73,60
90240,note_off,,,,,384,0,6,,,,,5,,,59,0
90432,note_off,,,,,192,0,2,,,,,1,,,73,0
90432,note_on,,,,,0,0,2,,,,,1,,,76,60
90432,note_on,,,,,0,0,3,,,,,2,,,76,70
90432,note_on,,,,,0,0,1,,,,,0,,,76,60
90432,note_off,,,,,192,0,1,,,,,0,,,73,0
90432,note_off,,,,,192,0,3,,,,,2,,,73,0
90432,note_on,,,,,0,0,4,,,,,3,,,76,70
90432,note_off,,,,,192,0,4,,,,,3,,,73,0
90560,note_off,,,,,320,0,8,,,,,7,,,68,0
90560,note_off,,,,,320,0,9,,,,,8,,,52,0
90624,note_off,,,,,192,0,1,,,,,0,,,76,0
90624,note_on,,,,,0,0,6,,,,,5,,,54,60
90624,note_on,,,,,0,0,3,,,,,2,,,75,70
90624,note_off,,,,,192,0,3,,,,,2,,,76,0
90624,note_on,,,,,0,0,4,,,,,3,,,75,70
90624,note_on,,,,,0,0,1,,,,,0,,,75,60
90624,note_off,,,,,384,0,6,,,,,5,,,52,0
90624,note_off,,,,,192,0,4,,,,,3,,,76,0
90624,note_on,,,,,0,0,2,,,,,1,,,75,60
90624,note_off,,,,,192,0,2,,,,,1,,,76,0
90624,note_on,,,,,64,0,8,,,,,7,,,70,45
90624,note_on,,,,,0,0,7,,,,,6,,,54,60
90624,note_on,,,,,0,0,5,,,,,4,,,70,60
90624,note_off,,,,,384,0,5,,,,,4,,,68,0
90624,note_off,,,,,384,0,7,,,,,6,,,52,0
90624,note_on,,,,,64,0,9,,,,,8,,,54,45
90816,note_on,,,,,0,0,2,,,,,1,,,73,60
90816,note_off,,,,,192,0,4,,,,,3,,,75,0
90816,note_on,,,,,0,0,3,,,,,2,,,73,70
90816,note_off,,,,,192,0,3,,,,,2,,,75,0
90816,note_off,,,,,192,0,1,,,,,0,,,75,0
90816,note_on,,,,,0,0,1,,,,,0,,,73,60
90816,note_off,,,,,192,0,2,,,,,1,,,75,0
90816,note_on,,,,,0,0,4,,,,,3,,,73,70
90944,note_off,,,,,320,0,9,,,,,8,,,54,0
90944,note_off,,,,,320,0,8,,,,,7,,,70,0
91008,note_on,,,,,0,0,4,,,,,3,,,71,70
91008,note_on,,,,,0,0,6,,,,,5,,,47,60
91008,note_off,,,,,192,0,3,,,,,2,,,73,0
91008,note_on,,,,,0,0,5,,,,,4,,,71,60
91008,note_off,,,,,384,0,5,,,,,4,,,70,0
91008,note_off,,,,,384,0,7,,,,,6,,,54,0
91008,note_on,,,,,0,0,7,,,,,6,,,47,60
91008,note_off,,,,,192,0,4,,,,,3,,,73,0
91008,note_on,,,,,0,0,3,,,,,2,,,71,70
91008,note_off,,,,,384,0,6,,,,,5,,,54,0
91008,note_on,,,,,0,0,1,,,,,0,,,71,60
91008,note_on,,,,,64,0,9,,,,,8,,,47,45
91008,note_on,,,,,64,0,8,,,,,7,,,71,45
91008,note_off,,,,,192,0,1,,,,,0,,,73,0
91008,note_on,,,,,0,0,2,,,,,1,,,71,60
91008,note_off,,,,,192,0,2,,,,,1,,,73,0
91200,note_off,,,,,192,0,1,,,,,0,,,71,0
91200,note_on,,,,,0,0,1,,,,,0,,,63,60
91200,note_on,,,,,0,0,4,,,,,3,,,63,70
91200,note_on,,,,,0,0,2,,,,,1,,,63,60
91200,note_off,,,,,192,0,2,,,,,1,,,71,0
91200,note_on,,,,,0,0,3,,,,,2,,,63,70
91200,note_off,,,,,192,0,3,,,,,2,,,71,0
91200,note_off,,,,,192,0,4,,,,,3,,,71,0
91392,note_on,,,,,0,0,3,,,,,2,,,66,70
91392,note_off,,,,,192,0,1,,,,,0,,,63,0
91392,note_off,,,,,192,0,3,,,,,2,,,63,0
91392,note_on,,,,,0,0,1,,,,,0,,,66,60
91392,note_on,,,,,0,0,4,,,,,3,,,66,70
91392,note_off,,,,,192,0,2,,,,,1,,,63,0
91392,note_on,,,,,0,0,2,,,,,1,,,66,60
91392,note_off,,,,,192,0,4,,,,,3,,,63,0
91584,note_on,,,,,0,0,1,,,,,0,,,71,60
91584,note_on,,,,,0,0,3,,,,,2,,,71,70
91584,note_off,,,,,192,0,3,,,,,2,,,66,0
91584,note_on,,,,,0,0,4,,,,,3,,,71,70
91584,note_on,,,,,0,0,2,,,,,1,,,71,60
91584,note_off,,,,,192,0,4,,,,,3,,,66,0
91584,note_off,,,,,192,0,1,,,,,0,,,66,0
91584,note_off,,,,,192,0,2,,,,,1,,,66,0
91776,note_on,,,,,0,0,3,,,,,2,,,75,70
91776,note_off,,,,,192,0,3,,,,,2,,,71,0
91776,note_on,,,,,0,0,1,,,,,0,,,75,60
91776,note_off,,,,,192,0,4,,,,,3,,,71,0
91776,note_on,,,,,0,0,4,,,,,3,,,75,70
91776,note_off,,,,,192,0,2,,,,,1,,,71,0
91776,note_on,,,,,0,0,2,,,,,1,,,75,60
91776,note_off,,,,,192,0,1,,,,,0,,,71,0
91968,note_off,,,,,192,0,1,,,,,0,,,75,0
91968,note_off,,,,,192,0,3,,,,,2,,,75,0
91968,note_on,,,,,0,0,2,,,,,1,,,78,60
91968,note_off,,,,,192,0,2,,,,,1,,,75,0
91968,note_on,,,,,0,0,3,,,,,2,,,78,70
91968,note_off,,,,,192,0,4,,,,,3,,,75,0
91968,note_on,,,,,0,0,4,,,,,3,,,78,70
91968,note_on,,,,,0,0,1,,,,,0,,,78,60
92064,note_off,,,,,1056,0,8,,,,,7,,,71,0
92064,note_off,,,,,1056,0,9,,,,,8,,,47,0
92160,note_off,,,,,1152,0,5,,,,,4,,,71,0
92160,note_on,,,,,0,0,4,,,,,3,,,83,108
92160,note_on,,,,,0,0,1,,,,,0,,,83,92
92160,note_off,,,,,192,0,1,,,,,0,,,78,0
92160,note_off,,,,,1152,0,6,,,,,5,,,47,0
92160,note_on,,,,,0,0,3,,,,,2,,,83,108
92160,note_off,,,,,192,0,3,,,,,2,,,78,0
92160,note_off,,,,,192,0,2,,,,,1,,,78,0
92160,note_off,,,,,1152,0,7,,,,,6,,,47,0
92160,note_off,,,,,192,0,4,,,,,3,,,78,0
92160,note_on,,,,,0,0,2,,,,,1,,,83,92
92352,note_on,,,,,192,0,5,,,,,4,,,63,92
92352,note_on,,,,,192,0,7,,,,,6,,,59,92
92352,note_on,,,,,288,0,9,,,,,8,,,59,75
92352,note_on,,,,,288,0,8,,,,,7,,,63,75
92352,note_on,,,,,192,0,6,,,,,5,,,59,92
92540,note_off,,,,,188,0,8,,,,,7,,,63,0
92540,note_off,,,,,188,0,9,,,,,8,,,59,0
92544,note_on,,,,,0,0,7,,,,,6,,,56,92
92544,note_off,,,,,192,0,6,,,,,5,,,59,0
92544,note_off,,,,,192,0,7,,,,,6,,,59,0
92544,note_on,,,,,4,0,9,,,,,8,,,56,75
92544,note_off,,,,,192,0,5,,,,,4,,,63,0
92544,note_on,,,,,0,0,5,,,,,4,,,59,92
92544,note_on,,,,,4,0,8,,,,,7,,,59,75
92544,note_on,,,,,0,0,6,,,,,5,,,56,92
92732,note_off,,,,,188,0,9,,,,,8,,,56,0
92732,note_off,,,,,188,0,8,,,,,7,,,59,0
92736,note_on,,,,,0,0,5,,,,,4,,,61,92
92736,note_off,,,,,192,0,5,,,,,4,,,59,0
92736,note_off,,,,,192,0,7,,,,,6,,,56,0
92736,note_on,,,,,0,0,7,,,,,6,,,57,92
92736,note_on,,,,,4,0,8,,,,,7,,,61,75
92736,note_on,,,,,4,0,9,,,,,8,,,57,75
92736,note_on,,,,,0,0,6,,,,,5,,,57,92
92736,note_off,,,,,192,0,6,,,,,5,,,56,0
92924,note_off,,,,,188,0,8,,,,,7,,,61,0
92924,note_off,,,,,188,0,9,,,,,8,,,57,0
92928,note_on,,,,,0,0,6,,,,,5,,,59,92
92928,note_off,,,,,192,0,6,,,,,5,,,57,0
92928,note_off,,,,,192,0,5,,,,,4,,,61,0
92928,note_on,,,,,0,0,5,,,,,4,,,63,92
92928,note_off,,,,,192,0,7,,,,,6,,,57,0
92928,note_on,,,,,4,0,9,,,,,8,,,59,75
92928,note_on,,,,,4,0,8,,,,,7,,,63,75
92928,note_on,,,,,0,0,7,,,,,6,,,59,92
93116,note_off,,,,,188,0,8,,,,,7,,,63,0
93116,note_off,,,,,188,0,9,,,,,8,,,59,0
93120,note_on,,,,,4,0,9,,,,,8,,,56,75
93120,note_on,,,,,0,0,5,,,,,4,,,59,92
93120,note_off,,,,,192,0,5,,,,,4,,,63,0
93120,note_on,,,,,4,0,8,,,,,7,,,59,75
93120,note_on,,,,,0,0,7,,,,,6,,,56,92
93120,note_off,,,,,192,0,7,,,,,6,,,59,0
93120,note_on,,,,,0,0,6,,,,,5,,,56,92
93120,note_off,,,,,192,0,6,,,,,5,,,59,0
93308,note_off,,,,,188,0,9,,,,,8,,,56,0
93308,note_off,,,,,188,0,8,,,,,7,,,59,0
93312,note_on,,,,,0,0,1,,,,,0,,,76,92
93312,note_off,,,,,1152,0,2,,,,,1,,,83,0
93312,note_on,,,,,0,0,5,,,,,4,,,68,92
93312,note_off,,,,,192,0,5,,,,,4,,,59,0
93312,note_off,,,,,1152,0,1,,,,,0,,,83,0
93312,note_on,,,,,0,0,2,,,,,1,,,76,92
93312,note_off,,,,,192,0,7,,,,,6,,,56,0
93312,note_off,,,,,1152,0,3,,,,,2,,,83,0
93312,note_off,,,,,192,0,6,,,,,5,,,56,0
93312,note_on,,,,,0,0,6,,,,,5,,,61,92
93312,note_on,,,,,0,0,3,,,,,2,,,76,108
93312,note_off,,,,,1152,0,4,,,,,3,,,83,0
93312,note_on,,,,,0,0,4,,,,,3,,,76,108
93312,note_on,,,,,4,0,9,,,,,8,,,61,75
93312,note_on,,,,,0,0,7,,,,,6,,,61,92
93312,note_on,,,,,4,0,8,,,,,7,,,68,75
93500,note_off,,,,,188,0,9,,,,,8,,,61,0
93504,note_on,,,,,0,0,6,,,,,5,,,63,92
93504,note_on,,,,,4,0,9,,,,,8,,,63,75
93504,note_off,,,,,192,0,6,,,,,5,,,61,0
93504,note_off,,,,,192,0,7,,,,,6,,,61,0
93504,note_on,,,,,0,0,7,,,,,6,,,63,92
93692,note_off,,,,,188,0,9,,,,,8,,,63,0
93696,note_on,,,,,0,0,6,,,,,5,,,61,92
93696,note_off,,,,,192,0,6,,,,,5,,,63,0
93696,note_on,,,,,4,0,9,,,,,8,,,61,75
93696,note_off,,,,,192,0,7,,,,,6,,,63,0
93696,note_on,,,,,0,0,7,,,,,6,,,61,92
93824,note_off,,,,,512,0,8,,,,,7,,,68,0
93884,note_off,,,,,188,0,9,,,,,8,,,61,0
93888,note_on,,,,,4,0,9,,,,,8,,,59,75
93888,note_on,,,,,0,0,6,,,,,5,,,59,92
93888,note_on,,,,,0,0,7,,,,,6,,,59,92
93888,note_off,,,,,192,0,7,,,,,6,,,61,0
93888,note_off,,,,,576,0,5,,,,,4,,,68,0
93888,note_on,,,,,0,0,5,,,,,4,,,68,92
93888,note_on,,,,,64,0,8,,,,,7,,,68,75
93888,note_off,,,,,192,0,6,,,,,5,,,61,0
94076,note_off,,,,,188,0,8,,,,,7,,,68,0
94076,note_off,,,,,188,0,9,,,,,8,,,59,0
94080,note_off,,,,,192,0,6,,,,,5,,,59,0
94080,note_on,,,,,0,0,6,,,,,5,,,57,92
94080,note_on,,,,,0,0,5,,,,,4,,,69,92
94080,note_off,,,,,192,0,5,,,,,4,,,68,0
94080,note_off,,,,,192,0,7,,,,,6,,,59,0
94080,note_on,,,,,0,0,7,,,,,6,,,57,92
94080,note_on,,,,,4,0,9,,,,,8,,,57,75
94080,note_on,,,,,4,0,8,,,,,7,,,69,75
94268,note_off,,,,,188,0,8,,,,,7,,,69,0
94268,note_off,,,,,188,0,9,,,,,8,,,57,0
94272,note_on,,,,,0,0,6,,,,,5,,,56,92
94272,note_off,,,,,192,0,7,,,,,6,,,57,0
94272,note_on,,,,,4,0,9,,,,,8,,,56,75
94272,note_on,,,,,0,0,5,,,,,4,,,71,92
94272,note_off,,,,,192,0,5,,,,,4,,,69,0
94272,note_off,,,,,192,0,6,,,,,5,,,57,0
94272,note_on,,,,,4,0,8,,,,,7,,,71,75
94272,note_on,,,,,0,0,7,,,,,6,,,56,92
94460,note_off,,,,,188,0,9,,,,,8,,,56,0
94460,note_off,,,,,188,0,8,,,,,7,,,71,0
94464,note_on,,,,,0,0,2,,,,,1,,,81,92
94464,note_off,,,,,1152,0,2,,,,,1,,,76,0
94464,note_on,,,,,0,0,1,,,,,0,,,81,92
94464,note_off,,,,,192,0,7,,,,,6,,,56,0
94464,note_on,,,,,0,0,7,,,,,6,,,54,92
94464,note_on,,,,,0,0,3,,,,,2,,,81,108
94464,note_on,,,,,4,0,9,,,,,8,,,54,75
94464,note_off,,,,,1152,0,3,,,,,2,,,76,0
94464,note_off,,,,,1152,0,1,,,,,0,,,76,0
94464,note_on,,,,,0,0,5,,,,,4,,,73,92
94464,note_off,,,,,192,0,5,,,,,4,,,71,0
94464,note_off,,,,,192,0,6,,,,,5,,,56,0
94464,note_on,,,,,0,0,4,,,,,3,,,81,108
94464,note_off,,,,,1152,0,4,,,,,3,,,76,0
94464,note_on,,,,,4,0,8,,,,,7,,,73,75
94464,note_on,,,,,0,0,6,,,,,5,,,54,92
94652,note_off,,,,,188,0,9,,,,,8,,,54,0
94656,note_off,,,,,192,0,6,,,,,5,,,54,0
94656,note_on,,,,,4,0,9,,,,,8,,,52,75
94656,note_on,,,,,0,0,6,,,,,5,,,52,92
94656,note_off,,,,,192,0,7,,,,,6,,,54,0
94656,note_on,,,,,0,0,7,,,,,6,,,52,92
94844,note_off,,,,,188,0,9,,,,,8,,,52,0
94848,note_on,,,,,0,0,7,,,,,6,,,54,92
94848,note_on,,,,,0,0,6,,,,,5,,,54,92
94848,note_on,,,,,4,0,9,,,,,8,,,54,75
94848,note_off,,,,,192,0,7,,,,,6,,,52,0
94848,note_off,,,,,192,0,6,,,,,5,,,52,0
94976,note_off,,,,,512,0,8,,,,,7,,,73,0
95036,note_off,,,,,188,0,9,,,,,8,,,54,0
95040,note_on,,,,,0,0,7,,,,,6,,,56,92
95040,note_on,,,,,4,0,9,,,,,8,,,56,75
95040,note_on,,,,,64,0,8,,,,,7,,,71,75
95040,note_off,,,,,192,0,7,,,,,6,,,54,0
95040,note_on,,,,,0,0,5,,,,,4,,,71,92
95040,note_off,,,,,576,0,5,,,,,4,,,73,0
95040,note_on,,,,,0,0,6,,,,,5,,,56,92
95040,note_off,,,,,192,0,6,,,,,5,,,54,0
95228,note_off,,,,,188,0,9,,,,,8,,,56,0
95228,note_off,,,,,188,0,8,,,,,7,,,71,0
95232,note_on,,,,,0,0,6,,,,,5,,,57,92
95232,note_off,,,,,192,0,5,,,,,4,,,71,0
95232,note_on,,,,,0,0,5,,,,,4,,,69,92
95232,note_on,,,,,0,0,1,,,,,0,,,78,92
95232,note_off,,,,,192,0,6,,,,,5,,,56,0
95232,note_off,,,,,192,0,7,,,,,6,,,56,0
95232,note_off,,,,,768,0,4,,,,,3,,,81,0
95232,note_on,,,,,0,0,4,,,,,3,,,78,108
95232,note_on,,,,,4,0,8,,,,,7,,,69,75
95232,note_on,,,,,4,0,9,,,,,8,,,57,75
95232,note_off,,,,,768,0,1,,,,,0,,,81,0
95232,note_on,,,,,0,0,7,,,,,6,,,57,92
95232,note_on,,,,,0,0,2,,,,,1,,,78,92
95232,note_off,,,,,768,0,3,,,,,2,,,81,0
95232,note_on,,,,,0,0,3,,,,,2,,,78,108
95232,note_off,,,,,768,0,2,,,,,1,,,81,0
95420,note_off,,,,,188,0,8,,,,,7,,,69,0
95420,note_off,,,,,188,0,9,,,,,8,,,57,0
95424,note_off,,,,,192,0,7,,,,,6,,,57,0
95424,note_on,,,,,0,0,5,,,,,4,,,68,92
95424,note_off,,,,,192,0,5,,,,,4,,,69,0
95424,note_on,,,,,0,0,7,,,,,6,,,54,92
95424,note_on,,,,,4,0,9,,,,,8,,,54,75
95424,note_off,,,,,192,0,6,,,,,5,,,57,0
95424,note_on,,,,,0,0,6,,,,,5,,,54,92
95424,note_on,,,,,4,0,8,,,,,7,,,68,75
95612,note_off,,,,,188,0,9,,,,,8,,,54,0
95612,note_off,,,,,188,0,8,,,,,7,,,68,0
95616,note_off,,,,,384,0,2,,,,,1,,,78,0
95616,note_off,,,,,192,0,5,,,,,4,,,68,0
95616,note_on,,,,,0,0,5,,,,,4,,,66,92
95616,note_off,,,,,384,0,3,,,,,2,,,78,0
95616,note_on,,,,,0,0,6,,,,,5,,,59,92
95616,note_off,,,,,192,0,6,,,,,5,,,54,0
95616,note_off,,,,,384,0,4,,,,,3,,,78,0
95616,note_on,,,,,0,0,2,,,,,1,,,75,92
95616,note_on,,,,,4,0,9,,,,,8,,,59,75
95616,note_on,,,,,0,0,4,,,,,3,,,75,108
95616,note_on,,,,,0,0,7,,,,,6,,,59,92
95616,note_off,,,,,192,0,7,,,,,6,,,54,0
95616,note_off,,,,,384,0,1,,,,,0,,,78,0
95616,note_on,,,,,0,0,1,,,,,0,,,75,92
95616,note_on,,,,,0,0,3,,,,,2,,,75,108
95616,note_on,,,,,4,0,8,,,,,7,,,66,75
95804,note_off,,,,,188,0,9,,,,,8,,,59,0
95808,note_off,,,,,192,0,7,,,,,6,,,59,0
95808,note_on,,,,,0,0,7,,,,,6,,,61,92
95808,note_on,,,,,0,0,6,,,,,5,,,61,92
95808,note_off,,,,,192,0,6,,,,,5,,,59,0
95808,note_on,,,,,4,0,9,,,,,8,,,61,75
95996,note_off,,,,,188,0,9,,,,,8,,,61,0
96000,note_off,,,,,192,0,6,,,,,5,,,61,0
96000,note_off,,,,,192,0,7,,,,,6,,,61,0
96000,note_on,,,,,0,0,7,,,,,6,,,59,92
96000,note_on,,,,,4,0,9,,,,,8,,,59,75
96000,note_on,,,,,0,0,6,,,,,5,,,59,92
96128,note_off,,,,,512,0,8,,,,,7,,,66,0
96188,note_off,,,,,188,0,9,,,,,8,,,59,0
96192,note_on,,,,,4,0,9,,,,,8,,,57,75
96192,note_on,,,,,0,0,2,,,,,1,,,73,92
96192,note_on,,,,,0,0,1,,,,,0,,,73,92
96192,note_off,,,,,192,0,6,,,,,5,,,59,0
96192,note_on,,,,,0,0,4,,,,,3,,,73,108
96192,note_off,,,,,576,0,4,,,,,3,,,75,0
96192,note_on,,,,,0,0,6,,,,,5,,,57,92
96192,note_off,,,,,576,0,5,,,,,4,,,66,0
96192,note_on,,,,,0,0,5,,,,,4,,,66,92
96192,note_off,,,,,576,0,3,,,,,2,,,75,0
96192,note_on,,,,,0,0,3,,,,,2,,,73,108
96192,note_on,,,,,0,0,7,,,,,6,,,57,92
96192,note_off,,,,,576,0,1,,,,,0,,,75,0
96192,note_off,,,,,192,0,7,,,,,6,,,59,0
96192,note_on,,,,,64,0,8,,,,,7,,,66,75
96192,note_off,,,,,576,0,2,,,,,1,,,75,0
96380,note_off,,,,,188,0,8,,,,,7,,,66,0
96380,note_off,,,,,188,0,9,,,,,8,,,57,0
96384,note_on,,,,,0,0,7,,,,,6,,,56,92
96384,note_off,,,,,192,0,7,,,,,6,,,57,0
96384,note_on,,,,,4,0,9,,,,,8,,,56,75
96384,note_off,,,,,192,0,4,,,,,3,,,73,0
96384,note_on,,,,,0,0,3,,,,,2,,,71,108
96384,note_off,,,,,192,0,3,,,,,2,,,73,0
96384,note_off,,,,,192,0,2,,,,,1,,,73,0
96384,note_on,,,,,0,0,2,,,,,1,,,71,92
96384,note_off,,,,,192,0,1,,,,,0,,,73,0
96384,note_off,,,,,192,0,6,,,,,5,,,57,0
96384,note_on,,,,,4,0,8,,,,,7,,,68,75
96384,note_off,,,,,192,0,5,,,,,4,,,66,0
96384,note_on,,,,,0,0,5,,,,,4,,,68,92
96384,note_on,,,,,0,0,1,,,,,0,,,71,92
96384,note_on,,,,,0,0,6,,,,,5,,,56,92
96384,note_on,,,,,0,0,4,,,,,3,,,71,108
96572,note_off,,,,,188,0,8,,,,,7,,,68,0
96572,note_off,,,,,188,0,9,,,,,8,,,56,0
96576,note_off,,,,,192,0,6,,,,,5,,,56,0
96576,note_off,,,,,192,0,5,,,,,4,,,68,0
96576,note_on,,,,,0,0,5,,,,,4,,,69,92
96576,note_off,,,,,192,0,7,,,,,6,,,56,0
96576,note_on,,,,,4,0,9,,,,,8,,,54,75
96576,note_on,,,,,4,0,8,,,,,7,,,69,75
96576,note_on,,,,,0,0,6,,,,,5,,,54,92
96576,note_on,,,,,0,0,7,,,,,6,,,54,92
96764,note_off,,,,,188,0,8,,,,,7,,,69,0
96764,note_off,,,,,188,0,9,,,,,8,,,54,0
96768,note_on,,,,,4,0,9,,,,,8,,,52,75
96768,note_on,,,,,0,0,6,,,,,5,,,52,92
96768,note_off,,,,,192,0,6,,,,,5,,,54,0
96768,note_off,,,,,384,0,4,,,,,3,,,71,0
96768,note_off,,,,,192,0,7,,,,,6,,,54,0
96768,note_on,,,,,0,0,4,,,,,3,,,80,108
96768,note_on,,,,,0,0,7,,,,,6,,,52,92
96768,note_on,,,,,4,0,8,,,,,7,,,71,75
96768,note_off,,,,,384,0,2,,,,,1,,,71,0
96768,note_on,,,,,0,0,2,,,,,1,,,80,92
96768,note_off,,,,,192,0,5,,,,,4,,,69,0
96768,note_on,,,,,0,0,5,,,,,4,,,71,92
96768,note_on,,,,,0,0,1,,,,,0,,,80,92
96768,note_on,,,,,0,0,3,,,,,2,,,80,108
96768,note_off,,,,,384,0,1,,,,,0,,,71,0
96768,note_off,,,,,384,0,3,,,,,2,,,71,0
96956,note_off,,,,,188,0,9,,,,,8,,,52,0
96960,note_off,,,,,192,0,6,,,,,5,,,52,0
96960,note_on,,,,,0,0,6,,,,,5,,,51,92
96960,note_off,,,,,192,0,7,,,,,6,,,52,0
96960,note_on,,,,,0,0,7,,,,,6,,,51,92
96960,note_on,,,,,4,0,9,,,,,8,,,51,75
97088,note_off,,,,,320,0,8,,,,,7,,,71,0
97148,note_off,,,,,188,0,9,,,,,8,,,51,0
97152,note_off,,,,,384,0,5,,,,,4,,,71,0
97152,note_on,,,,,0,0,5,,,,,4,,,73,92
97152,note_on,,,,,0,0,4,,,,,3,,,76,108
97152,note_off,,,,,384,0,4,,,,,3,,,80,0
97152,note_on,,,,,64,0,8,,,,,7,,,73,75
97152,note_on,,,,,0,0,6,,,,,5,,,49,92
97152,note_off,,,,,192,0,6,,,,,5,,,51,0
97152,note_off,,,,,384,0,1,,,,,0,,,80,0
97152,note_on,,,,,0,0,1,,,,,0,,,76,92
97152,note_on,,,,,0,0,2,,,,,1,,,76,92
97152,note_on,,,,,4,0,9,,,,,8,,,49,75
97152,note_off,,,,,384,0,2,,,,,1,,,80,0
97152,note_on,,,,,0,0,3,,,,,2,,,76,108
97152,note_off,,,,,384,0,3,,,,,2,,,80,0
97152,note_on,,,,,0,0,7,,,,,6,,,49,92
97152,note_off,,,,,192,0,7,,,,,6,,,51,0
97340,note_off,,,,,188,0,9,,,,,8,,,49,0
97344,note_on,,,,,0,0,7,,,,,6,,,51,92
97344,note_off,,,,,192,0,7,,,,,6,,,49,0
97344,note_on,,,,,0,0,6,,,,,5,,,51,92
97344,note_off,,,,,192,0,6,,,,,5,,,49,0
97344,note_on,,,,,4,0,9,,,,,8,,,51,75
97472,note_off,,,,,320,0,8,,,,,7,,,73,0
97532,note_off,,,,,188,0,9,,,,,8,,,51,0
97536,note_off,,,,,384,0,3,,,,,2,,,76,0
97536,note_off,,,,,384,0,1,,,,,0,,,76,0
97536,note_on,,,,,0,0,1,,,,,0,,,73,92
97536,note_on,,,,,0,0,2,,,,,1,,,73,92
97536,note_off,,,,,384,0,2,,,,,1,,,76,0
97536,note_on,,,,,0,0,3,,,,,2,,,73,108
97536,note_on,,,,,0,0,4,,,,,3,,,73,108
97536,note_off,,,,,384,0,4,,,,,3,,,76,0
97536,note_on,,,,,0,0,7,,,,,6,,,52,92
97536,note_on,,,,,64,0,8,,,,,7,,,68,75
97536,note_off,,,,,192,0,7,,,,,6,,,51,0
97536,note_on,,,,,4,0,9,,,,,8,,,52,75
97536,note_on,,,,,0,0,5,,,,,4,,,68,92
97536,note_off,,,,,192,0,6,,,,,5,,,51,0
97536,note_on,,,,,0,0,6,,,,,5,,,52,92
97536,note_off,,,,,384,0,5,,,,,4,,,73,0
97724,note_off,,,,,188,0,9,,,,,8,,,52,0
97728,note_on,,,,,4,0,9,,,,,8,,,49,75
97728,note_off,,,,,192,0,6,,,,,5,,,52,0
97728,note_on,,,,,0,0,6,,,,,5,,,49,92
97728,note_off,,,,,192,0,7,,,,,6,,,52,0
97728,note_on,,,,,0,0,7,,,,,6,,,49,92
97856,note_off,,,,,320,0,8,,,,,7,,,68,0
97916,note_off,,,,,188,0,9,,,,,8,,,49,0
97920,note_on,,,,,0,0,7,,,,,6,,,54,92
97920,note_off,,,,,192,0,6,,,,,5,,,49,0
97920,note_on,,,,,0,0,6,,,,,5,,,54,92
97920,note_on,,,,,0,0,5,,,,,4,,,61,92
97920,note_off,,,,,192,0,7,,,,,6,,,49,0
97920,note_off,,,,,384,0,5,,,,,4,,,68,0
97920,note_on,,,,,0,0,4,,,,,3,,,81,108
97920,note_off,,,,,384,0,4,,,,,3,,,73,0
97920,note_on,,,,,0,0,3,,,,,2,,,81,108
97920,note_off,,,,,384,0,3,,,,,2,,,73,0
97920,note_off,,,,,384,0,1,,,,,0,,,73,0
97920,note_on,,,,,0,0,1,,,,,0,,,81,92
97920,note_on,,,,,0,0,2,,,,,1,,,81,92
97920,note_off,,,,,384,0,2,,,,,1,,,73,0
97920,note_on,,,,,4,0,9,,,,,8,,,54,75
97920,note_on,,,,,64,0,8,,,,,7,,,61,75
98108,note_off,,,,,188,0,9,,,,,8,,,54,0
98112,note_on,,,,,0,0,6,,,,,5,,,52,92
98112,note_on,,,,,4,0,9,,,,,8,,,52,75
98112,note_off,,,,,192,0,6,,,,,5,,,54,0
98112,note_on,,,,,0,0,7,,,,,6,,,52,92
98112,note_off,,,,,192,0,7,,,,,6,,,54,0
98300,note_off,,,,,188,0,9,,,,,8,,,52,0
98304,note_on,,,,,0,0,7,,,,,6,,,54,92
98304,note_off,,,,,192,0,7,,,,,6,,,52,0
98304,note_off,,,,,192,0,6,,,,,5,,,52,0
98304,note_on,,,,,0,0,6,,,,,5,,,54,92
98304,note_on,,,,,4,0,9,,,,,8,,,54,75
98492,note_off,,,,,188,0,9,,,,,8,,,54,0
98496,note_on,,,,,0,0,7,,,,,6,,,56,92
98496,note_off,,,,,576,0,1,,,,,0,,,81,0
98496,note_on,,,,,0,0,4,,,,,3,,,80,108
98496,note_on,,,,,0,0,6,,,,,5,,,56,92
98496,note_off,,,,,576,0,4,,,,,3,,,81,0
98496,note_on,,,,,0,0,2,,,,,1,,,80,92
98496,note_off,,,,,576,0,3,,,,,2,,,81,0
98496,note_on,,,,,0,0,3,,,,,2,,,80,108
98496,note_off,,,,,192,0,7,,,,,6,,,54,0
98496,note_off,,,,,192,0,6,,,,,5,,,54,0
98496,note_off,,,,,576,0,2,,,,,1,,,81,0
98496,note_on,,,,,0,0,1,,,,,0,,,80,92
98496,note_on,,,,,4,0,9,,,,,8,,,56,75
98592,note_off,,,,,672,0,8,,,,,7,,,61,0
98684,note_off,,,,,188,0,9,,,,,8,,,56,0
98688,note_off,,,,,192,0,4,,,,,3,,,80,0
98688,note_on,,,,,0,0,4,,,,,3,,,78,108
98688,note_on,,,,,0,0,5,,,,,4,,,73,92
98688,note_on,,,,,0,0,7,,,,,6,,,57,92
98688,note_off,,,,,768,0,5,,,,,4,,,61,0
98688,note_on,,,,,0,0,3,,,,,2,,,78,108
98688,note_off,,,,,192,0,3,,,,,2,,,80,0
98688,note_on,,,,,96,0,8,,,,,7,,,73,75
98688,note_off,,,,,192,0,6,,,,,5,,,56,0
98688,note_on,,,,,0,0,6,,,,,5,,,57,92
98688,note_off,,,,,192,0,7,,,,,6,,,56,0
98688,note_off,,,,,192,0,2,,,,,1,,,80,0
98688,note_on,,,,,4,0,9,,,,,8,,,57,75
98688,note_on,,,,,0,0,2,,,,,1,,,78,92
98688,note_off,,,,,192,0,1,,,,,0,,,80,0
98688,note_on,,,,,0,0,1,,,,,0,,,78,92
98876,note_off,,,,,188,0,9,,,,,8,,,57,0
98880,note_on,,,,,0,0,6,,,,,5,,,54,92
98880,note_off,,,,,192,0,6,,,,,5,,,57,0
98880,note_off,,,,,192,0,7,,,,,6,,,57,0
98880,note_on,,,,,4,0,9,,,,,8,,,54,75
98880,note_on,,,,,0,0,7,,,,,6,,,54,92
99008,note_off,,,,,320,0,8,,,,,7,,,73,0
99068,note_off,,,,,188,0,9,,,,,8,,,54,0
99072,note_on,,,,,0,0,7,,,,,6,,,61,92
99072,note_off,,,,,192,0,7,,,,,6,,,54,0
99072,note_off,,,,,192,0,6,,,,,5,,,54,0
99072,note_on,,,,,0,0,1,,,,,0,,,76,92
99072,note_on,,,,,64,0,8,,,,,7,,,61,75
99072,note_on,,,,,0,0,2,,,,,1,,,76,92
99072,note_off,,,,,384,0,2,,,,,1,,,78,0
99072,note_on,,,,,4,0,9,,,,,8,,,61,75
99072,note_on,,,,,0,0,6,,,,,5,,,61,92
99072,note_off,,,,,384,0,1,,,,,0,,,78,0
99072,note_on,,,,,0,0,3,,,,,2,,,76,108
99072,note_off,,,,,384,0,3,,,,,2,,,78,0
99072,note_off,,,,,384,0,5,,,,,4,,,73,0
99072,note_on,,,,,0,0,5,,,,,4,,,61,92
99072,note_off,,,,,384,0,4,,,,,3,,,78,0
99072,note_on,,,,,0,0,4,,,,,3,,,76,108
99260,note_off,,,,,188,0,9,,,,,8,,,61,0
99264,note_on,,,,,0,0,6,,,,,5,,,54,92
99264,note_on,,,,,0,0,1,,,,,0,,,75,92
99264,note_off,,,,,192,0,1,,,,,0,,,76,0
99264,note_off,,,,,192,0,6,,,,,5,,,61,0
99264,note_on,,,,,0,0,4,,,,,3,,,75,108
99264,note_off,,,,,192,0,3,,,,,2,,,76,0
99264,note_on,,,,,0,0,3,,,,,2,,,75,108
99264,note_on,,,,,0,0,2,,,,,1,,,75,92
99264,note_off,,,,,192,0,2,,,,,1,,,76,0
99264,note_off,,,,,192,0,4,,,,,3,,,76,0
99264,note_off,,,,,192,0,7,,,,,6,,,61,0
99264,note_on,,,,,0,0,7,,,,,6,,,54,92
99264,note_on,,,,,4,0,9,,,,,8,,,54,75
99452,note_off,,,,,188,0,9,,,,,8,,,54,0
99456,note_on,,,,,0,0,2,,,,,1,,,75,92
99456,note_on,,,,,0,0,1,,,,,0,,,76,92
99456,note_off,,,,,192,0,7,,,,,6,,,54,0
99456,note_off,,,,,192,0,4,,,,,3,,,75,0
99456,note_on,,,,,0,0,3,,,,,2,,,76,108
99456,note_on,,,,,0,0,4,,,,,3,,,75,108
99456,note_off,,,,,192,0,6,,,,,5,,,54,0
99456,note_off,,,,,192,0,3,,,,,2,,,75,0
99456,note_off,,,,,192,0,2,,,,,1,,,75,0
99456,note_on,,,,,4,0,9,,,,,8,,,56,75
99456,note_on,,,,,0,0,9,,,,,8,,,61,75
99456,note_off,,,,,192,0,1,,,,,0,,,75,0
99456,note_on,,,,,0,0,7,,,,,6,,,56,92
99456,note_on,,,,,0,0,6,,,,,5,,,56,92
99504,note_on,,,,,0,0,3,,,,,2,,,75,108
99504,note_off,,,,,48,0,1,,,,,0,,,76,0
99504,note_on,,,,,0,0,1,,,,,0,,,75,92
99504,note_off,,,,,48,0,3,,,,,2,,,76,0
99552,note_off,,,,,48,0,1,,,,,0,,,75,0
99552,note_off,,,,,48,0,3,,,,,2,,,75,0
99552,note_on,,,,,0,0,3,,,,,2,,,76,108
99552,note_on,,,,,0,0,1,,,,,0,,,76,92
99600,note_off,,,,,48,0,3,,,,,2,,,76,0
99600,note_on,,,,,0,0,3,,,,,2,,,75,108
99600,note_on,,,,,0,0,1,,,,,0,,,75,92
99600,note_off,,,,,48,0,1,,,,,0,,,76,0
99644,note_off,,,,,188,0,9,,,,,8,,,56,0
99644,note_off,,,,,0,0,9,,,,,8,,,61,0
99648,note_on,,,,,4,0,9,,,,,8,,,54,75
99648,note_on,,,,,0,0,3,,,,,2,,,76,108
99648,note_off,,,,,48,0,3,,,,,2,,,75,0
99648,note_on,,,,,0,0,7,,,,,6,,,54,92
99648,note_off,,,,,48,0,1,,,,,0,,,75,0
99648,note_on,,,,,0,0,6,,,,,5,,,54,92
99648,note_off,,,,,192,0,6,,,,,5,,,56,0
99648,note_on,,,,,0,0,1,,,,,0,,,76,92
99648,note_off,,,,,192,0,7,,,,,6,,,56,0
99696,note_on,,,,,0,0,1,,,,,0,,,75,92
99696,note_off,,,,,48,0,3,,,,,2,,,76,0
99696,note_off,,,,,48,0,1,,,,,0,,,76,0
99696,note_on,,,,,0,0,3,,,,,2,,,75,108
99744,note_off,,,,,48,0,1,,,,,0,,,75,0
99744,note_off,,,,,48,0,3,,,,,2,,,75,0
99744,note_on,,,,,0,0,3,,,,,2,,,76,108
99744,note_off,,,,,672,0,8,,,,,7,,,61,0
99744,note_on,,,,,0,0,1,,,,,0,,,76,92
99792,note_off,,,,,48,0,3,,,,,2,,,76,0
99792,note_on,,,,,0,0,1,,,,,0,,,75,92
99792,note_on,,,,,0,0,3,,,,,2,,,75,108
99792,note_off,,,,,48,0,1,,,,,0,,,76,0
99836,note_off,,,,,188,0,9,,,,,8,,,54,0
99840,note_off,,,,,48,0,3,,,,,2,,,75,0
99840,note_on,,,,,0,0,1,,,,,0,,,76,92
99840,note_on,,,,,0,0,3,,,,,2,,,76,108
99840,note_on,,,,,0,0,7,,,,,6,,,56,92
99840,note_off,,,,,48,0,1,,,,,0,,,75,0
99840,note_on,,,,,4,0,9,,,,,8,,,56,75
99840,note_on,,,,,0,0,5,,,,,4,,,60,92
99840,note_off,,,,,768,0,5,,,,,4,,,61,0
99840,note_off,,,,,192,0,7,,,,,6,,,54,0
99840,note_off,,,,,192,0,6,,,,,5,,,54,0
99840,note_on,,,,,96,0,8,,,,,7,,,60,75
99840,note_on,,,,,0,0,6,,,,,5,,,56,92
99888,note_off,,,,,48,0,3,,,,,2,,,76,0
99888,note_on,,,,,0,0,1,,,,,0,,,75,92
99888,note_off,,,,,48,0,1,,,,,0,,,76,0
99888,note_on,,,,,0,0,3,,,,,2,,,75,108
100028,note_off,,,,,188,0,9,,,,,8,,,56,0
100032,note_on,,,,,0,0,6,,,,,5,,,44,92
100032,note_on,,,,,0,0,1,,,,,0,,,73,92
100032,note_off,,,,,192,0,6,,,,,5,,,56,0
100032,note_off,,,,,576,0,2,,,,,1,,,75,0
100032,note_on,,,,,0,0,3,,,,,2,,,73,108
100032,note_off,,,,,576,0,4,,,,,3,,,75,0
100032,note_on,,,,,0,0,2,,,,,1,,,73,92
100032,note_on,,,,,0,0,7,,,,,6,,,44,92
100032,note_off,,,,,144,0,1,,,,,0,,,75,0
100032,note_on,,,,,0,0,4,,,,,3,,,73,108
100032,note_on,,,,,4,0,9,,,,,8,,,44,75
100032,note_off,,,,,144,0,3,,,,,2,,,75,0
100032,note_off,,,,,192,0,7,,,,,6,,,56,0
100160,note_off,,,,,320,0,8,,,,,7,,,60,0
100220,note_off,,,,,188,0,9,,,,,8,,,44,0
100224,note_on,,,,,0,0,1,,,,,0,,,73,92
100224,note_off,,,,,192,0,7,,,,,6,,,44,0
100224,note_on,,,,,0,0,7,,,,,6,,,49,92
100224,note_on,,,,,64,0,8,,,,,7,,,64,75
100224,note_off,,,,,192,0,1,,,,,0,,,73,0
100224,note_off,,,,,192,0,6,,,,,5,,,44,0
100224,note_off,,,,,192,0,3,,,,,2,,,73,0
100224,note_off,,,,,192,0,2,,,,,1,,,73,0
100224,note_on,,,,,0,0,2,,,,,1,,,73,92
100224,note_on,,,,,0,0,3,,,,,2,,,73,108
100224,note_on,,,,,0,0,5,,,,,4,,,64,92
100224,note_off,,,,,384,0,5,,,,,4,,,60,0
100224,note_off,,,,,192,0,4,,,,,3,,,73,0
100224,note_on,,,,,0,0,4,,,,,3,,,73,108
100224,note_on,,,,,0,0,6,,,,,5,,,49,92
100224,note_on,,,,,4,0,9,,,,,8,,,49,75
100412,note_off,,,,,188,0,8,,,,,7,,,64,0
100412,note_off,,,,,188,0,9,,,,,8,,,49,0
100416,note_on,,,,,4,0,9,,,,,8,,,51,75
100416,note_on,,,,,0,0,5,,,,,4,,,66,92
100416,note_on,,,,,4,0,8,,,,,7,,,66,75
100416,note_on,,,,,0,0,7,,,,,6,,,51,92
100416,note_off,,,,,192,0,7,,,,,6,,,49,0
100416,note_off,,,,,192,0,5,,,,,4,,,64,0
100416,note_on,,,,,0,0,6,,,,,5,,,51,92
100416,note_off,,,,,192,0,6,,,,,5,,,49,0
100604,note_off,,,,,188,0,9,,,,,8,,,51,0
100604,note_off,,,,,188,0,8,,,,,7,,,66,0
100608,note_off,,,,,192,0,5,,,,,4,,,66,0
100608,note_on,,,,,0,0,5,,,,,4,,,68,92
100608,note_on,,,,,4,0,8,,,,,7,,,68,75
100608,note_on,,,,,0,0,7,,,,,6,,,52,92
100608,note_off,,,,,192,0,6,,,,,5,,,51,0
100608,note_on,,,,,0,0,6,,,,,5,,,52,92
100608,note_on,,,,,4,0,9,,,,,8,,,52,75
100608,note_off,,,,,192,0,7,,,,,6,,,51,0
100796,note_off,,,,,188,0,8,,,,,7,,,68,0
100796,note_off,,,,,188,0,9,,,,,8,,,52,0
100800,note_off,,,,,192,0,7,,,,,6,,,52,0
100800,note_on,,,,,0,0,7,,,,,6,,,51,92
100800,note_on,,,,,4,0,8,,,,,7,,,66,75
100800,note_off,,,,,192,0,6,,,,,5,,,52,0
100800,note_on,,,,,0,0,6,,,,,5,,,51,92
100800,note_on,,,,,0,0,5,,,,,4,,,66,92
100800,note_off,,,,,192,0,5,,,,,4,,,68,0
100800,note_on,,,,,4,0,9,,,,,8,,,51,75
100988,note_off,,,,,188,0,9,,,,,8,,,51,0
100988,note_off,,,,,188,0,8,,,,,7,,,66,0
100992,note_off,,,,,192,0,6,,,,,5,,,51,0
100992,note_on,,,,,0,0,7,,,,,6,,,52,92
100992,note_off,,,,,192,0,7,,,,,6,,,51,0
100992,note_on,,,,,0,0,6,,,,,5,,,52,92
100992,note_on,,,,,4,0,8,,,,,7,,,68,75
100992,note_off,,,,,192,0,5,,,,,4,,,66,0
100992,note_on,,,,,0,0,5,,,,,4,,,68,92
100992,note_on,,,,,4,0,9,,,,,8,,,52,75
101180,note_off,,,,,188,0,9,,,,,8,,,52,0
101180,note_off,,,,,188,0,8,,,,,7,,,68,0
101184,note_on,,,,,4,0,9,,,,,8,,,49,75
101184,note_on,,,,,4,0,8,,,,,7,,,64,75
101184,note_off,,,,,192,0,5,,,,,4,,,68,0
101184,note_on,,,,,0,0,7,,,,,6,,,49,92
101184,note_off,,,,,192,0,6,,,,,5,,,52,0
101184,note_on,,,,,0,0,6,,,,,5,,,49,92
101184,note_off,,,,,192,0,7,,,,,6,,,52,0
101184,note_on,,,,,0,0,5,,,,,4,,,64,92
101372,note_off,,,,,188,0,9,,,,,8,,,49,0
101372,note_off,,,,,188,0,8,,,,,7,,,64,0
101376,note_off,,,,,192,0,6,,,,,5,,,49,0
101376,note_on,,,,,0,0,6,,,,,5,,,56,92
101376,note_on,,,,,4,0,8,,,,,7,,,63,75
101376,note_on,,,,,0,0,5,,,,,4,,,63,92
101376,note_off,,,,,1152,0,4,,,,,3,,,73,0
101376,note_off,,,,,1152,0,3,,,,,2,,,73,0
101376,note_on,,,,,0,0,7,,,,,6,,,56,92
101376,note_off,,,,,192,0,7,,,,,6,,,49,0
101376,note_on,,,,,4,0,9,,,,,8,,,56,75
101376,note_off,,,,,1152,0,2,,,,,1,,,73,0
101376,note_on,,,,,0,0,2,,,,,1,,,71,92
101376,note_off,,,,,192,0,5,,,,,4,,,64,0
101376,note_on,,,,,0,0,4,,,,,3,,,71,108
101376,note_on,,,,,0,0,3,,,,,2,,,71,108
101376,note_off,,,,,1152,0,1,,,,,0,,,73,0
101376,note_on,,,,,0,0,1,,,,,0,,,71,92
101564,note_off,,,,,188,0,9,,,,,8,,,56,0
101568,note_on,,,,,0,0,7,,,,,6,,,54,92
101568,note_on,,,,,0,0,6,,,,,5,,,54,92
101568,note_off,,,,,192,0,6,,,,,5,,,56,0
101568,note_on,,,,,4,0,9,,,,,8,,,54,75
101568,note_off,,,,,192,0,7,,,,,6,,,56,0
101696,note_off,,,,,320,0,8,,,,,7,,,63,0
101756,note_off,,,,,188,0,9,,,,,8,,,54,0
101760,note_on,,,,,0,0,5,,,,,4,,,68,92
101760,note_on,,,,,64,0,8,,,,,7,,,68,75
101760,note_on,,,,,0,0,6,,,,,5,,,53,92
101760,note_off,,,,,192,0,6,,,,,5,,,54,0
101760,note_on,,,,,0,0,7,,,,,6,,,53,92
101760,note_off,,,,,384,0,5,,,,,4,,,63,0
101760,note_off,,,,,192,0,7,,,,,6,,,54,0
101760,note_on,,,,,4,0,9,,,,,8,,,53,75
101948,note_off,,,,,188,0,8,,,,,7,,,68,0
101948,note_off,,,,,188,0,9,,,,,8,,,53,0
101952,note_on,,,,,0,0,5,,,,,4,,,66,92
101952,note_on,,,,,0,0,6,,,,,5,,,51,92
101952,note_on,,,,,4,0,8,,,,,7,,,66,75
101952,note_off,,,,,192,0,6,,,,,5,,,53,0
101952,note_on,,,,,4,0,9,,,,,8,,,51,75
101952,note_on,,,,,0,0,7,,,,,6,,,51,92
101952,note_off,,,,,192,0,7,,,,,6,,,53,0
101952,note_off,,,,,192,0,5,,,,,4,,,68,0
102140,note_off,,,,,188,0,8,,,,,7,,,66,0
102140,note_off,,,,,188,0,9,,,,,8,,,51,0
102144,note_on,,,,,4,0,9,,,,,8,,,53,75
102144,note_off,,,,,192,0,6,,,,,5,,,51,0
102144,note_off,,,,,192,0,5,,,,,4,,,66,0
102144,note_on,,,,,0,0,6,,,,,5,,,53,92
102144,note_on,,,,,0,0,7,,,,,6,,,53,92
102144,note_off,,,,,192,0,7,,,,,6,,,51,0
102144,note_on,,,,,0,0,5,,,,,4,,,68,92
102144,note_on,,,,,4,0,8,,,,,7,,,68,75
102332,note_off,,,,,188,0,8,,,,,7,,,68,0
102332,note_off,,,,,188,0,9,,,,,8,,,53,0
102336,note_on,,,,,0,0,7,,,,,6,,,49,92
102336,note_off,,,,,192,0,7,,,,,6,,,53,0
102336,note_on,,,,,4,0,9,,,,,8,,,49,75
102336,note_off,,,,,192,0,6,,,,,5,,,53,0
102336,note_on,,,,,0,0,6,,,,,5,,,49,92
102336,note_on,,,,,4,0,8,,,,,7,,,65,75
102336,note_on,,,,,0,0,5,,,,,4,,,65,92
102336,note_off,,,,,192,0,5,,,,,4,,,68,0
102524,note_off,,,,,188,0,8,,,,,7,,,65,0
102524,note_off,,,,,188,0,9,,,,,8,,,49,0
102528,note_on,,,,,0,0,7,,,,,6,,,54,92
102528,note_off,,,,,192,0,7,,,,,6,,,49,0
102528,note_on,,,,,0,0,2,,,,,1,,,69,92
102528,note_on,,,,,0,0,1,,,,,0,,,69,92
102528,note_off,,,,,1152,0,1,,,,,0,,,71,0
102528,note_on,,,,,4,0,9,,,,,8,,,54,75
102528,note_off,,,,,192,0,6,,,,,5,,,49,0
102528,note_off,,,,,192,0,5,,,,,4,,,65,0
102528,note_on,,,,,0,0,6,,,,,5,,,54,92
102528,note_off,,,,,1152,0,4,,,,,3,,,71,0
102528,note_on,,,,,0,0,4,,,,,3,,,69,108
102528,note_off,,,,,1152,0,3,,,,,2,,,71,0
102528,note_on,,,,,0,0,3,,,,,2,,,69,108
102528,note_off,,,,,1152,0,2,,,,,1,,,71,0
102528,note_on,,,,,0,0,5,,,,,4,,,61,92
102528,note_on,,,,,4,0,8,,,,,7,,,61,75
102716,note_off,,,,,188,0,9,,,,,8,,,54,0
102720,note_off,,,,,192,0,7,,,,,6,,,54,0
102720,note_off,,,,,192,0,6,,,,,5,,,54,0
102720,note_on,,,,,0,0,6,,,,,5,,,52,92
102720,note_on,,,,,0,0,7,,,,,6,,,52,92
102720,note_on,,,,,4,0,9,,,,,8,,,52,75
102848,note_off,,,,,320,0,8,,,,,7,,,61,0
102908,note_off,,,,,188,0,9,,,,,8,,,52,0
102912,note_on,,,,,0,0,6,,,,,5,,,51,92
102912,note_off,,,,,192,0,6,,,,,5,,,52,0
102912,note_off,,,,,384,0,5,,,,,4,,,61,0
102912,note_on,,,,,4,0,9,,,,,8,,,51,75
102912,note_on,,,,,0,0,7,,,,,6,,,51,92
102912,note_on,,,,,0,0,5,,,,,4,,,66,92
102912,note_on,,,,,64,0,8,,,,,7,,,66,75
102912,note_off,,,,,192,0,7,,,,,6,,,52,0
103100,note_off,,,,,188,0,9,,,,,8,,,51,0
103100,note_off,,,,,188,0,8,,,,,7,,,66,0
103104,note_off,,,,,192,0,5,,,,,4,,,66,0
103104,note_on,,,,,4,0,8,,,,,7,,,64,75
103104,note_on,,,,,0,0,7,,,,,6,,,49,92
103104,note_on,,,,,0,0,6,,,,,5,,,49,92
103104,note_on,,,,,4,0,9,,,,,8,,,49,75
103104,note_on,,,,,0,0,5,,,,,4,,,64,92
103104,note_off,,,,,192,0,7,,,,,6,,,51,0
103104,note_off,,,,,192,0,6,,,,,5,,,51,0
103292,note_off,,,,,188,0,9,,,,,8,,,49,0
103292,note_off,,,,,188,0,8,,,,,7,,,64,0
103296,note_on,,,,,4,0,9,,,,,8,,,51,75
103296,note_on,,,,,0,0,7,,,,,6,,,51,92
103296,note_off,,,,,192,0,6,,,,,5,,,49,0
103296,note_off,,,,,192,0,5,,,,,4,,,64,0
103296,note_on,,,,,0,0,5,,,,,4,,,66,92
103296,note_on,,,,,4,0,8,,,,,7,,,66,75
103296,note_off,,,,,192,0,7,,,,,6,,,49,0
103296,note_on,,,,,0,0,6,,,,,5,,,51,92
103484,note_off,,,,,188,0,9,,,,,8,,,51,0
103484,note_off,,,,,188,0,8,,,,,7,,,66,0
103488,note_on,,,,,0,0,6,,,,,5,,,47,92
103488,note_on,,,,,0,0,7,,,,,6,,,47,92
103488,note_off,,,,,192,0,6,,,,,5,,,51,0
103488,note_off,,,,,192,0,7,,,,,6,,,51,0
103488,note_off,,,,,192,0,5,,,,,4,,,66,0
103488,note_on,,,,,4,0,8,,,,,7,,,64,75
103488,note_on,,,,,0,0,5,,,,,4,,,64,92
103488,note_on,,,,,4,0,9,,,,,8,,,47,75
103676,note_off,,,,,188,0,8,,,,,7,,,64,0
103676,note_off,,,,,188,0,9,,,,,8,,,47,0
103680,note_on,,,,,4,0,9,,,,,8,,,52,75
103680,note_off,,,,,1152,0,1,,,,,0,,,69,0
103680,note_on,,,,,0,0,1,,,,,0,,,68,92
103680,note_off,,,,,192,0,6,,,,,5,,,47,0
103680,note_on,,,,,0,0,6,,,,,5,,,52,92
103680,note_on,,,,,0,0,4,,,,,3,,,68,108
103680,note_off,,,,,1152,0,4,,,,,3,,,69,0
103680,note_off,,,,,192,0,7,,,,,6,,,47,0
103680,note_on,,,,,0,0,5,,,,,4,,,59,92
103680,note_on,,,,,4,0,8,,,,,7,,,59,75
103680,note_on,,,,,0,0,2,,,,,1,,,68,92
103680,note_on,,,,,0,0,3,,,,,2,,,68,108
103680,note_off,,,,,1152,0,3,,,,,2,,,69,0
103680,note_on,,,,,0,0,7,,,,,6,,,52,92
103680,note_off,,,,,192,0,5,,,,,4,,,64,0
103680,note_off,,,,,1152,0,2,,,,,1,,,69,0
103868,note_off,,,,,188,0,9,,,,,8,,,52,0
103872,note_off,,,,,192,0,6,,,,,5,,,52,0
103872,note_off,,,,,192,0,7,,,,,6,,,52,0
103872,note_on,,,,,4,0,9,,,,,8,,,51,75
103872,note_on,,,,,0,0,6,,,,,5,,,51,92
103872,note_on,,,,,0,0,7,,,,,6,,,51,92
104000,note_off,,,,,320,0,8,,,,,7,,,59,0
104060,note_off,,,,,188,0,9,,,,,8,,,51,0
104064,note_on,,,,,0,0,3,,,,,2,,,76,108
104064,note_off,,,,,384,0,2,,,,,1,,,68,0
104064,note_off,,,,,192,0,6,,,,,5,,,51,0
104064,note_on,,,,,0,0,6,,,,,5,,,49,92
104064,note_on,,,,,64,0,8,,,,,7,,,61,75
104064,note_on,,,,,4,0,9,,,,,8,,,49,75
104064,note_off,,,,,384,0,3,,,,,2,,,68,0
104064,note_off,,,,,384,0,5,,,,,4,,,59,0
104064,note_on,,,,,0,0,5,,,,,4,,,61,92
104064,note_off,,,,,192,0,7,,,,,6,,,51,0
104064,note_on,,,,,0,0,7,,,,,6,,,49,92
104064,note_on,,,,,0,0,2,,,,,1,,,76,92
104064,note_off,,,,,384,0,1,,,,,0,,,68,0
104064,note_on,,,,,0,0,1,,,,,0,,,76,92
104064,note_off,,,,,384,0,4,,,,,3,,,68,0
104064,note_on,,,,,0,0,4,,,,,3,,,76,108
104252,note_off,,,,,188,0,9,,,,,8,,,49,0
104256,note_off,,,,,192,0,6,,,,,5,,,49,0
104256,note_on,,,,,0,0,6,,,,,5,,,52,92
104256,note_off,,,,,192,0,7,,,,,6,,,49,0
104256,note_on,,,,,4,0,9,,,,,8,,,52,75
104256,note_on,,,,,0,0,7,,,,,6,,,52,92
104444,note_off,,,,,188,0,9,,,,,8,,,52,0
104448,note_on,,,,,0,0,6,,,,,5,,,54,92
104448,note_on,,,,,4,0,9,,,,,8,,,54,75
104448,note_off,,,,,384,0,3,,,,,2,,,76,0
104448,note_on,,,,,0,0,3,,,,,2,,,70,108
104448,note_off,,,,,384,0,4,,,,,3,,,76,0
104448,note_on,,,,,0,0,4,,,,,3,,,70,108
104448,note_on,,,,,0,0,2,,,,,1,,,70,92
104448,note_off,,,,,384,0,2,,,,,1,,,76,0
104448,note_off,,,,,192,0,6,,,,,5,,,52,0
104448,note_on,,,,,0,0,7,,,,,6,,,54,92
104448,note_off,,,,,192,0,7,,,,,6,,,52,0
104448,note_on,,,,,0,0,1,,,,,0,,,70,92
104448,note_off,,,,,384,0,1,,,,,0,,,76,0
104576,note_off,,,,,512,0,8,,,,,7,,,61,0
104636,note_off,,,,,188,0,9,,,,,8,,,54,0
104640,note_off,,,,,576,0,5,,,,,4,,,61,0
104640,note_on,,,,,64,0,8,,,,,7,,,61,75
104640,note_on,,,,,0,0,5,,,,,4,,,61,92
104640,note_on,,,,,4,0,9,,,,,8,,,52,75
104640,note_off,,,,,192,0,6,,,,,5,,,54,0
104640,note_off,,,,,192,0,7,,,,,6,,,54,0
104640,note_on,,,,,0,0,6,,,,,5,,,52,92
104640,note_on,,,,,0,0,7,,,,,6,,,52,92
104828,note_off,,,,,188,0,8,,,,,7,,,61,0
104828,note_off,,,,,188,0,9,,,,,8,,,52,0
104832,note_on,,,,,0,0,5,,,,,4,,,66,92
104832,note_off,,,,,192,0,5,,,,,4,,,61,0
104832,note_off,,,,,192,0,7,,,,,6,,,52,0
104832,note_on,,,,,4,0,8,,,,,7,,,66,75
104832,note_off,,,,,384,0,2,,,,,1,,,70,0
104832,note_on,,,,,0,0,7,,,,,6,,,51,92
104832,note_off,,,,,384,0,4,,,,,3,,,70,0
104832,note_on,,,,,0,0,4,,,,,3,,,71,108
104832,note_on,,,,,0,0,1,,,,,0,,,71,92
104832,note_off,,,,,384,0,3,,,,,2,,,70,0
104832,note_off,,,,,384,0,1,,,,,0,,,70,0
104832,note_on,,,,,0,0,2,,,,,1,,,71,92
104832,note_on,,,,,0,0,3,,,,,2,,,71,108
104832,note_off,,,,,192,0,6,,,,,5,,,52,0
104832,note_on,,,,,0,0,9,,,,,8,,,59,75
104832,note_on,,,,,4,0,9,,,,,8,,,51,75
104832,note_on,,,,,0,0,6,,,,,5,,,51,92
105020,note_off,,,,,0,0,9,,,,,8,,,59,0
105020,note_off,,,,,188,0,8,,,,,7,,,66,0
105020,note_off,,,,,188,0,9,,,,,8,,,51,0
105024,note_on,,,,,0,0,5,,,,,4,,,64,92
105024,note_off,,,,,192,0,5,,,,,4,,,66,0
105024,note_on,,,,,4,0,8,,,,,7,,,64,75
105024,note_off,,,,,192,0,6,,,,,5,,,51,0
105024,note_on,,,,,0,0,6,,,,,5,,,49,92
105024,note_off,,,,,192,0,7,,,,,6,,,51,0
105024,note_on,,,,,0,0,7,,,,,6,,,49,92
105024,note_on,,,,,4,0,9,,,,,8,,,49,75
105212,note_off,,,,,188,0,9,,,,,8,,,49,0
105212,note_off,,,,,188,0,8,,,,,7,,,64,0
105216,note_on,,,,,0,0,6,,,,,5,,,47,92
105216,note_off,,,,,192,0,6,,,,,5,,,49,0
105216,note_on,,,,,0,0,7,,,,,6,,,47,92
105216,note_off,,,,,192,0,7,,,,,6,,,49,0
105216,note_on,,,,,4,0,9,,,,,8,,,47,75
105216,note_on,,,,,0,0,5,,,,,4,,,63,92
105216,note_off,,,,,192,0,5,,,,,4,,,64,0
105216,note_on,,,,,4,0,8,,,,,7,,,63,75
105404,note_off,,,,,188,0,8,,,,,7,,,63,0
105404,note_off,,,,,188,0,9,,,,,8,,,47,0
105408,note_off,,,,,192,0,7,,,,,6,,,47,0
105408,note_on,,,,,0,0,7,,,,,6,,,49,92
105408,note_off,,,,,192,0,6,,,,,5,,,47,0
105408,note_on,,,,,4,0,9,,,,,8,,,49,75
105408,note_off,,,,,192,0,5,,,,,4,,,63,0
105408,note_on,,,,,0,0,5,,,,,4,,,64,92
105408,note_on,,,,,0,0,6,,,,,5,,,49,92
105408,note_on,,,,,4,0,8,,,,,7,,,64,75
105596,note_off,,,,,188,0,8,,,,,7,,,64,0
105596,note_off,,,,,188,0,9,,,,,8,,,49,0
105600,note_on,,,,,4,0,8,,,,,7,,,66,75
105600,note_on,,,,,0,0,5,,,,,4,,,66,92
105600,note_on,,,,,0,0,6,,,,,5,,,51,92
105600,note_off,,,,,192,0,6,,,,,5,,,49,0
105600,note_off,,,,,192,0,5,,,,,4,,,64,0
105600,note_on,,,,,4,0,9,,,,,8,,,51,75
105600,note_off,,,,,192,0,7,,,,,6,,,49,0
105600,note_on,,,,,0,0,7,,,,,6,,,51,92
105788,note_off,,,,,188,0,8,,,,,7,,,66,0
105788,note_off,,,,,188,0,9,,,,,8,,,51,0
105792,note_on,,,,,0,0,6,,,,,5,,,52,92
105792,note_off,,,,,192,0,7,,,,,6,,,51,0
105792,note_on,,,,,0,0,7,,,,,6,,,52,92
105792,note_off,,,,,192,0,6,,,,,5,,,51,0
105792,note_on,,,,,4,0,8,,,,,7,,,68,75
105792,note_on,,,,,4,0,9,,,,,8,,,52,75
105792,note_on,,,,,0,0,5,,,,,4,,,68,92
105792,note_off,,,,,192,0,5,,,,,4,,,66,0
105980,note_off,,,,,188,0,9,,,,,8,,,52,0
105980,note_off,,,,,188,0,8,,,,,7,,,68,0
105984,note_off,,,,,192,0,6,,,,,5,,,52,0
105984,note_off,,,,,192,0,5,,,,,4,,,68,0
105984,note_on,,,,,0,0,5,,,,,4,,,61,92
105984,note_on,,,,,0,0,6,,,,,5,,,54,92
105984,note_off,,,,,1152,0,3,,,,,2,,,71,0
105984,note_on,,,,,4,0,8,,,,,7,,,61,75
105984,note_off,,,,,1152,0,4,,,,,3,,,71,0
105984,note_on,,,,,0,0,4,,,,,3,,,81,108
105984,note_off,,,,,192,0,7,,,,,6,,,52,0
105984,note_on,,,,,0,0,7,,,,,6,,,54,92
105984,note_on,,,,,0,0,2,,,,,1,,,81,92
105984,note_off,,,,,1152,0,2,,,,,1,,,71,0
105984,note_on,,,,,4,0,9,,,,,8,,,54,75
105984,note_on,,,,,0,0,3,,,,,2,,,81,108
105984,note_on,,,,,0,0,1,,,,,0,,,81,92
105984,note_off,,,,,1152,0,1,,,,,0,,,71,0
106172,note_off,,,,,188,0,9,,,,,8,,,54,0
106176,note_off,,,,,192,0,7,,,,,6,,,54,0
106176,note_on,,,,,4,0,9,,,,,8,,,56,75
106176,note_on,,,,,0,0,6,,,,,5,,,56,92
106176,note_off,,,,,192,0,6,,,,,5,,,54,0
106176,note_on,,,,,0,0,7,,,,,6,,,56,92
106304,note_off,,,,,320,0,8,,,,,7,,,61,0
106364,note_off,,,,,188,0,9,,,,,8,,,56,0
106368,note_off,,,,,192,0,7,,,,,6,,,56,0
106368,note_on,,,,,4,0,9,,,,,8,,,57,75
106368,note_off,,,,,384,0,5,,,,,4,,,61,0
106368,note_on,,,,,0,0,5,,,,,4,,,66,92
106368,note_on,,,,,64,0,8,,,,,7,,,66,75
106368,note_off,,,,,192,0,6,,,,,5,,,56,0
106368,note_on,,,,,0,0,6,,,,,5,,,57,92
106368,note_on,,,,,0,0,7,,,,,6,,,57,92
106556,note_off,,,,,188,0,9,,,,,8,,,57,0
106560,note_off,,,,,192,0,7,,,,,6,,,57,0
106560,note_on,,,,,0,0,6,,,,,5,,,56,92
106560,note_on,,,,,4,0,9,,,,,8,,,56,75
106560,note_off,,,,,192,0,6,,,,,5,,,57,0
106560,note_on,,,,,0,0,7,,,,,6,,,56,92
106688,note_off,,,,,320,0,8,,,,,7,,,66,0
106748,note_off,,,,,188,0,9,,,,,8,,,56,0
106752,note_off,,,,,768,0,1,,,,,0,,,81,0
106752,note_on,,,,,0,0,6,,,,,5,,,54,92
106752,note_off,,,,,192,0,6,,,,,5,,,56,0
106752,note_on,,,,,0,0,1,,,,,0,,,73,92
106752,note_on,,,,,64,0,8,,,,,7,,,69,75
106752,note_off,,,,,384,0,5,,,,,4,,,66,0
106752,note_on,,,,,4,0,9,,,,,8,,,54,75
106752,note_off,,,,,192,0,7,,,,,6,,,56,0
106752,note_on,,,,,0,0,5,,,,,4,,,69,92
106752,note_on,,,,,0,0,3,,,,,2,,,73,108
106752,note_on,,,,,0,0,7,,,,,6,,,54,92
106752,note_off,,,,,768,0,3,,,,,2,,,81,0
106940,note_off,,,,,188,0,9,,,,,8,,,54,0
106944,note_off,,,,,192,0,6,,,,,5,,,54,0
106944,note_on,,,,,4,0,9,,,,,8,,,52,75
106944,note_on,,,,,0,0,7,,,,,6,,,52,92
106944,note_on,,,,,0,0,6,,,,,5,,,52,92
106944,note_off,,,,,192,0,7,,,,,6,,,54,0
107072,note_off,,,,,320,0,8,,,,,7,,,69,0
107132,note_off,,,,,188,0,9,,,,,8,,,52,0
107136,note_on,,,,,0,0,4,,,,,3,,,71,108
107136,note_off,,,,,1152,0,4,,,,,3,,,81,0
107136,note_on,,,,,0,0,7,,,,,6,,,51,92
107136,note_on,,,,,0,0,9,,,,,8,,,59,75
107136,note_off,,,,,1152,0,2,,,,,1,,,81,0
107136,note_off,,,,,192,0,7,,,,,6,,,52,0
107136,note_off,,,,,192,0,6,,,,,5,,,52,0
107136,note_on,,,,,0,0,2,,,,,1,,,71,92
107136,note_on,,,,,4,0,9,,,,,8,,,51,75
107136,note_off,,,,,384,0,1,,,,,0,,,73,0
107136,note_on,,,,,0,0,3,,,,,2,,,71,108
107136,note_off,,,,,384,0,3,,,,,2,,,73,0
107136,note_on,,,,,0,0,1,,,,,0,,,71,92
107136,note_on,,,,,0,0,6,,,,,5,,,51,92
107136,note_on,,,,,64,0,8,,,,,7,,,69,75
107136,note_on,,,,,0,0,5,,,,,4,,,69,92
107136,note_off,,,,,384,0,5,,,,,4,,,69,0
107324,note_off,,,,,188,0,9,,,,,8,,,51,0
107324,note_off,,,,,0,0,9,,,,,8,,,59,0
107328,note_on,,,,,4,0,9,,,,,8,,,47,75
107328,note_on,,,,,0,0,7,,,,,6,,,47,92
107328,note_off,,,,,192,0,7,,,,,6,,,51,0
107328,note_off,,,,,192,0,6,,,,,5,,,51,0
107328,note_on,,,,,0,0,6,,,,,5,,,47,92
107456,note_off,,,,,320,0,8,,,,,7,,,69,0
107516,note_off,,,,,188,0,9,,,,,8,,,47,0
107520,note_off,,,,,384,0,5,,,,,4,,,69,0
107520,note_off,,,,,192,0,6,,,,,5,,,47,0
107520,note_on,,,,,0,0,6,,,,,5,,,52,92
107520,note_on,,,,,0,0,7,,,,,6,,,52,92
107520,note_off,,,,,192,0,7,,,,,6,,,47,0
107520,note_on,,,,,64,0,8,,,,,7,,,68,75
107520,note_on,,,,,0,0,5,,,,,4,,,68,92
107520,note_on,,,,,4,0,9,,,,,8,,,52,75
107708,note_off,,,,,188,0,8,,,,,7,,,68,0
107708,note_off,,,,,188,0,9,,,,,8,,,52,0
107712,note_on,,,,,4,0,8,,,,,7,,,66,75
107712,note_off,,,,,192,0,5,,,,,4,,,68,0
107712,note_off,,,,,192,0,7,,,,,6,,,52,0
107712,note_on,,,,,0,0,7,,,,,6,,,51,92
107712,note_on,,,,,0,0,6,,,,,5,,,51,92
107712,note_off,,,,,192,0,6,,,,,5,,,52,0
107712,note_on,,,,,4,0,9,,,,,8,,,51,75
107712,note_on,,,,,0,0,5,,,,,4,,,66,92
107900,note_off,,,,,188,0,8,,,,,7,,,66,0
107900,note_off,,,,,188,0,9,,,,,8,,,51,0
107904,note_off,,,,,768,0,1,,,,,0,,,71,0
107904,note_on,,,,,0,0,1,,,,,0,,,76,92
107904,note_on,,,,,0,0,3,,,,,2,,,76,108
107904,note_off,,,,,192,0,7,,,,,6,,,51,0
107904,note_on,,,,,4,0,9,,,,,8,,,49,75
107904,note_on,,,,,0,0,4,,,,,3,,,76,108
107904,note_off,,,,,768,0,4,,,,,3,,,71,0
107904,note_off,,,,,768,0,2,,,,,1,,,71,0
107904,note_on,,,,,0,0,2,,,,,1,,,76,92
107904,note_off,,,,,192,0,6,,,,,5,,,51,0
107904,note_on,,,,,0,0,6,,,,,5,,,49,92
107904,note_off,,,,,192,0,5,,,,,4,,,66,0
107904,note_on,,,,,0,0,5,,,,,4,,,68,92
107904,note_off,,,,,768,0,3,,,,,2,,,71,0
107904,note_on,,,,,0,0,7,,,,,6,,,49,92
107904,note_on,,,,,4,0,8,,,,,7,,,68,75
108092,note_off,,,,,188,0,9,,,,,8,,,49,0
108096,note_on,,,,,4,0,9,,,,,8,,,51,75
108096,note_on,,,,,0,0,7,,,,,6,,,51,92
108096,note_on,,,,,0,0,6,,,,,5,,,51,92
108096,note_off,,,,,192,0,6,,,,,5,,,49,0
108096,note_off,,,,,192,0,7,,,,,6,,,49,0
108224,note_off,,,,,320,0,8,,,,,7,,,68,0
108284,note_off,,,,,188,0,9,,,,,8,,,51,0
108288,note_off,,,,,384,0,1,,,,,0,,,76,0
108288,note_on,,,,,0,0,3,,,,,2,,,68,108
108288,note_off,,,,,384,0,5,,,,,4,,,68,0
108288,note_on,,,,,0,0,2,,,,,1,,,68,92
108288,note_off,,,,,384,0,2,,,,,1,,,76,0
108288,note_on,,,,,0,0,6,,,,,5,,,52,92
108288,note_off,,,,,192,0,6,,,,,5,,,51,0
108288,note_off,,,,,384,0,4,,,,,3,,,76,0
108288,note_on,,,,,0,0,4,,,,,3,,,68,108
108288,note_on,,,,,4,0,9,,,,,8,,,52,75
108288,note_on,,,,,0,0,5,,,,,4,,,64,92
108288,note_on,,,,,0,0,1,,,,,0,,,68,92
108288,note_off,,,,,384,0,3,,,,,2,,,76,0
108288,note_off,,,,,192,0,7,,,,,6,,,51,0
108288,note_on,,,,,0,0,7,,,,,6,,,52,92
108288,note_on,,,,,64,0,8,,,,,7,,,64,75
108476,note_off,,,,,188,0,9,,,,,8,,,52,0
108480,note_off,,,,,192,0,1,,,,,0,,,68,0
108480,note_on,,,,,0,0,2,,,,,1,,,66,92
108480,note_off,,,,,192,0,2,,,,,1,,,68,0
108480,note_on,,,,,0,0,1,,,,,0,,,66,92
108480,note_on,,,,,0,0,6,,,,,5,,,57,92
108480,note_off,,,,,192,0,6,,,,,5,,,52,0
108480,note_on,,,,,0,0,7,,,,,6,,,57,92
108480,note_off,,,,,192,0,3,,,,,2,,,68,0
108480,note_off,,,,,192,0,7,,,,,6,,,52,0
108480,note_on,,,,,0,0,4,,,,,3,,,66,108
108480,note_off,,,,,192,0,4,,,,,3,,,68,0
108480,note_on,,,,,4,0,9,,,,,8,,,57,75
108480,note_on,,,,,0,0,3,,,,,2,,,66,108
108608,note_off,,,,,320,0,8,,,,,7,,,64,0
108668,note_off,,,,,188,0,9,,,,,8,,,57,0
108672,note_on,,,,,0,0,2,,,,,1,,,66,92
108672,note_off,,,,,192,0,2,,,,,1,,,66,0
108672,note_on,,,,,0,0,3,,,,,2,,,68,108
108672,note_on,,,,,64,0,8,,,,,7,,,64,75
108672,note_off,,,,,192,0,1,,,,,0,,,66,0
108672,note_on,,,,,0,0,1,,,,,0,,,68,92
108672,note_on,,,,,4,0,9,,,,,8,,,59,75
108672,note_on,,,,,0,0,9,,,,,8,,,64,75
108672,note_off,,,,,192,0,3,,,,,2,,,66,0
108672,note_on,,,,,0,0,4,,,,,3,,,66,108
108672,note_off,,,,,192,0,4,,,,,3,,,66,0
108672,note_on,,,,,0,0,6,,,,,5,,,59,92
108672,note_off,,,,,192,0,6,,,,,5,,,57,0
108672,note_on,,,,,0,0,7,,,,,6,,,59,92
108672,note_off,,,,,192,0,7,,,,,6,,,57,0
108720,note_off,,,,,48,0,8,,,,,7,,,64,0
108720,note_off,,,,,48,0,1,,,,,0,,,68,0
108720,note_on,,,,,0,0,1,,,,,0,,,66,92
108720,note_on,,,,,0,0,8,,,,,7,,,66,75
108720,note_off,,,,,48,0,3,,,,,2,,,68,0
108720,note_on,,,,,0,0,3,,,,,2,,,66,108
108768,note_off,,,,,48,0,8,,,,,7,,,66,0
108768,note_on,,,,,0,0,8,,,,,7,,,64,75
108768,note_on,,,,,0,0,1,,,,,0,,,68,92
108768,note_off,,,,,48,0,3,,,,,2,,,66,0
108768,note_on,,,,,0,0,3,,,,,2,,,68,108
108768,note_off,,,,,48,0,1,,,,,0,,,66,0
108816,note_off,,,,,48,0,3,,,,,2,,,68,0
108816,note_on,,,,,0,0,8,,,,,7,,,66,75
108816,note_on,,,,,0,0,3,,,,,2,,,66,108
108816,note_on,,,,,0,0,1,,,,,0,,,66,92
108816,note_off,,,,,48,0,8,,,,,7,,,64,0
108816,note_off,,,,,48,0,1,,,,,0,,,68,0
108860,note_off,,,,,0,0,9,,,,,8,,,64,0
108860,note_off,,,,,188,0,9,,,,,8,,,59,0
108864,note_on,,,,,0,0,6,,,,,5,,,57,92
108864,note_off,,,,,192,0,6,,,,,5,,,59,0
108864,note_on,,,,,0,0,3,,,,,2,,,68,108
108864,note_off,,,,,48,0,3,,,,,2,,,66,0
108864,note_on,,,,,0,0,8,,,,,7,,,64,75
108864,note_off,,,,,48,0,8,,,,,7,,,66,0
108864,note_on,,,,,0,0,1,,,,,0,,,68,92
108864,note_off,,,,,48,0,1,,,,,0,,,66,0
108864,note_on,,,,,4,0,9,,,,,8,,,57,75
108864,note_on,,,,,0,0,7,,,,,6,,,57,92
108864,note_off,,,,,192,0,7,,,,,6,,,59,0
108912,note_off,,,,,48,0,8,,,,,7,,,64,0
108912,note_on,,,,,0,0,8,,,,,7,,,66,75
108912,note_off,,,,,48,0,3,,,,,2,,,68,0
108912,note_on,,,,,0,0,3,,,,,2,,,66,108
108912,note_on,,,,,0,0,1,,,,,0,,,66,92
108912,note_off,,,,,48,0,1,,,,,0,,,68,0
108960,note_on,,,,,0,0,1,,,,,0,,,68,92
108960,note_off,,,,,48,0,1,,,,,0,,,66,0
108960,note_off,,,,,48,0,3,,,,,2,,,66,0
108960,note_on,,,,,0,0,3,,,,,2,,,68,108
108960,note_on,,,,,0,0,8,,,,,7,,,64,75
108960,note_off,,,,,48,0,8,,,,,7,,,66,0
109008,note_off,,,,,48,0,3,,,,,2,,,68,0
109008,note_on,,,,,0,0,3,,,,,2,,,66,108
109008,note_off,,,,,48,0,1,,,,,0,,,68,0
109008,note_on,,,,,0,0,1,,,,,0,,,66,92
109052,note_off,,,,,188,0,9,,,,,8,,,57,0
109056,note_on,,,,,0,0,6,,,,,5,,,59,92
109056,note_on,,,,,4,0,9,,,,,8,,,59,75
109056,note_off,,,,,768,0,5,,,,,4,,,64,0
109056,note_on,,,,,0,0,7,,,,,6,,,59,92
109056,note_on,,,,,0,0,5,,,,,4,,,63,92
109056,note_off,,,,,192,0,7,,,,,6,,,57,0
109056,note_off,,,,,192,0,6,,,,,5,,,57,0
109244,note_off,,,,,188,0,9,,,,,8,,,59,0
109244,note_off,,,,,284,0,8,,,,,7,,,64,0
109248,note_off,,,,,192,0,6,,,,,5,,,59,0
109248,note_on,,,,,4,0,8,,,,,7,,,63,75
109248,note_on,,,,,0,0,2,,,,,1,,,64,92
109248,note_off,,,,,576,0,2,,,,,1,,,66,0
109248,note_off,,,,,240,0,3,,,,,2,,,66,0
109248,note_on,,,,,0,0,4,,,,,3,,,64,108
109248,note_off,,,,,192,0,7,,,,,6,,,59,0
109248,note_on,,,,,0,0,6,,,,,5,,,47,92
109248,note_on,,,,,4,0,9,,,,,8,,,47,75
109248,note_on,,,,,0,0,7,,,,,6,,,47,92
109248,note_on,,,,,0,0,1,,,,,0,,,64,92
109248,note_off,,,,,240,0,1,,,,,0,,,66,0
109248,note_off,,,,,576,0,4,,,,,3,,,66,0
109248,note_on,,,,,0,0,3,,,,,2,,,64,108
109436,note_off,,,,,188,0,8,,,,,7,,,63,0
109436,note_off,,,,,188,0,9,,,,,8,,,47,0
109440,note_on,,,,,0,0,1,,,,,0,,,64,92
109440,note_on,,,,,0,0,2,,,,,1,,,64,92
109440,note_off,,,,,192,0,2,,,,,1,,,64,0
109440,note_off,,,,,192,0,7,,,,,6,,,47,0
109440,note_on,,,,,0,0,7,,,,,6,,,52,92
109440,note_on,,,,,0,0,5,,,,,4,,,64,92
109440,note_on,,,,,0,0,6,,,,,5,,,52,92
109440,note_off,,,,,384,0,5,,,,,4,,,63,0
109440,note_off,,,,,192,0,6,,,,,5,,,47,0
109440,note_off,,,,,192,0,1,,,,,0,,,64,0
109440,note_off,,,,,192,0,3,,,,,2,,,64,0
109440,note_on,,,,,0,0,3,,,,,2,,,64,108
109440,note_on,,,,,4,0,8,,,,,7,,,64,75
109440,note_on,,,,,4,0,9,,,,,8,,,52,75
109440,note_off,,,,,192,0,4,,,,,3,,,64,0
109440,note_on,,,,,0,0,4,,,,,3,,,64,108
109628,note_off,,,,,188,0,9,,,,,8,,,52,0
109632,note_off,,,,,192,0,6,,,,,5,,,52,0
109632,note_on,,,,,4,0,9,,,,,8,,,47,75
109632,note_on,,,,,0,0,6,,,,,5,,,47,92
109632,note_off,,,,,192,0,7,,,,,6,,,52,0
109632,note_on,,,,,0,0,7,,,,,6,,,47,92
109820,note_off,,,,,188,0,9,,,,,8,,,47,0
109824,note_off,,,,,192,0,7,,,,,6,,,47,0
109824,note_on,,,,,0,0,7,,,,,6,,,49,92
109824,note_on,,,,,4,0,9,,,,,8,,,49,75
109824,note_off,,,,,192,0,6,,,,,5,,,47,0
109824,note_on,,,,,0,0,6,,,,,5,,,49,92
110012,note_off,,,,,188,0,9,,,,,8,,,49,0
110016,note_off,,,,,192,0,6,,,,,5,,,49,0
110016,note_off,,,,,192,0,7,,,,,6,,,49,0
110016,note_on,,,,,0,0,7,,,,,6,,,51,92
110016,note_on,,,,,4,0,9,,,,,8,,,51,75
110016,note_on,,,,,0,0,6,,,,,5,,,51,92
110204,note_off,,,,,188,0,9,,,,,8,,,51,0
110208,note_on,,,,,4,0,9,,,,,8,,,52,75
110208,note_on,,,,,0,0,6,,,,,5,,,52,92
110208,note_off,,,,,192,0,6,,,,,5,,,51,0
110208,note_on,,,,,0,0,7,,,,,6,,,52,92
110208,note_off,,,,,192,0,7,,,,,6,,,51,0
110396,note_off,,,,,188,0,9,,,,,8,,,52,0
110400,note_off,,,,,192,0,6,,,,,5,,,52,0
110400,note_on,,,,,0,0,7,,,,,6,,,54,92
110400,note_on,,,,,0,0,6,,,,,5,,,54,92
110400,note_off,,,,,192,0,7,,,,,6,,,52,0
110400,note_on,,,,,4,0,9,,,,,8,,,54,75
110496,note_off,,,,,1056,0,8,,,,,7,,,64,0
110588,note_off,,,,,188,0,9,,,,,8,,,54,0
110592,note_off,,,,,1152,0,4,,,,,3,,,64,0
110592,note_on,,,,,0,0,2,,,,,1,,,83,60
110592,note_on,,,,,0,0,4,,,,,3,,,83,70
110592,note_on,,,,,0,0,1,,,,,0,,,83,60
110592,note_off,,,,,192,0,7,,,,,6,,,54,0
110592,note_on,,,,,0,0,7,,,,,6,,,56,60
110592,note_on,,,,,96,0,8,,,,,7,,,63,45
110592,note_on,,,,,0,0,3,,,,,2,,,83,70
110592,note_off,,,,,1152,0,3,,,,,2,,,64,0
110592,note_off,,,,,1152,0,5,,,,,4,,,64,0
110592,note_on,,,,,0,0,5,,,,,4,,,63,60
110592,note_off,,,,,1152,0,1,,,,,0,,,64,0
110592,note_off,,,,,192,0,6,,,,,5,,,54,0
110592,note_on,,,,,0,0,6,,,,,5,,,56,60
110592,note_off,,,,,1152,0,2,,,,,1,,,64,0
110592,note_on,,,,,4,0,9,,,,,8,,,56,45
110784,note_on,,,,,0,0,3,,,,,2,,,81,70
110784,note_on,,,,,0,0,2,,,,,1,,,81,60
110784,note_off,,,,,192,0,3,,,,,2,,,83,0
110784,note_off,,,,,192,0,2,,,,,1,,,83,0
110784,note_on,,,,,0,0,1,,,,,0,,,81,60
110784,note_off,,,,,192,0,1,,,,,0,,,83,0
110784,note_on,,,,,0,0,4,,,,,3,,,81,70
110784,note_off,,,,,192,0,4,,,,,3,,,83,0
110912,note_off,,,,,320,0,9,,,,,8,,,56,0
110976,note_off,,,,,192,0,3,,,,,2,,,81,0
110976,note_on,,,,,0,0,1,,,,,0,,,80,60
110976,note_off,,,,,192,0,1,,,,,0,,,81,0
110976,note_on,,,,,0,0,6,,,,,5,,,57,60
110976,note_off,,,,,384,0,6,,,,,5,,,56,0
110976,note_on,,,,,0,0,2,,,,,1,,,80,60
110976,note_on,,,,,0,0,4,,,,,3,,,80,70
110976,note_off,,,,,192,0,4,,,,,3,,,81,0
110976,note_on,,,,,0,0,7,,,,,6,,,57,60
110976,note_off,,,,,192,0,2,,,,,1,,,81,0
110976,note_on,,,,,64,0,9,,,,,8,,,57,45
110976,note_off,,,,,384,0,7,,,,,6,,,56,0
110976,note_on,,,,,0,0,3,,,,,2,,,80,70
111168,note_on,,,,,0,0,2,,,,,1,,,78,60
111168,note_off,,,,,192,0,1,,,,,0,,,80,0
111168,note_on,,,,,0,0,1,,,,,0,,,78,60
111168,note_off,,,,,192,0,3,,,,,2,,,80,0
111168,note_on,,,,,0,0,4,,,,,3,,,78,70
111168,note_on,,,,,0,0,3,,,,,2,,,78,70
111168,note_off,,,,,192,0,2,,,,,1,,,80,0
111168,note_off,,,,,192,0,4,,,,,3,,,80,0
111264,note_off,,,,,672,0,8,,,,,7,,,63,0
111296,note_off,,,,,320,0,9,,,,,8,,,57,0
111360,note_off,,,,,192,0,1,,,,,0,,,78,0
111360,note_off,,,,,192,0,3,,,,,2,,,78,0
111360,note_off,,,,,192,0,2,,,,,1,,,78,0
111360,note_on,,,,,0,0,5,,,,,4,,,71,60
111360,note_on,,,,,0,0,6,,,,,5,,,59,60
111360,note_off,,,,,384,0,6,,,,,5,,,57,0
111360,note_on,,,,,0,0,3,,,,,2,,,76,70
111360,note_off,,,,,384,0,7,,,,,6,,,57,0
111360,note_off,,,,,192,0,4,,,,,3,,,78,0
111360,note_on,,,,,0,0,1,,,,,0,,,76,60
111360,note_on,,,,,0,0,4,,,,,3,,,76,70
111360,note_off,,,,,768,0,5,,,,,4,,,63,0
111360,note_on,,,,,64,0,9,,,,,8,,,59,45
111360,note_on,,,,,96,0,8,,,,,7,,,68,45
111360,note_on,,,,,0,0,8,,,,,7,,,71,45
111360,note_on,,,,,0,0,7,,,,,6,,,59,60
111360,note_on,,,,,0,0,2,,,,,1,,,76,60
111552,note_on,,,,,0,0,3,,,,,2,,,75,70
111552,note_on,,,,,0,0,1,,,,,0,,,75,60
111552,note_on,,,,,0,0,2,,,,,1,,,75,60
111552,note_off,,,,,192,0,2,,,,,1,,,76,0
111552,note_on,,,,,0,0,4,,,,,3,,,75,70
111552,note_off,,,,,192,0,4,,,,,3,,,76,0
111552,note_off,,,,,192,0,1,,,,,0,,,76,0
111552,note_off,,,,,192,0,3,,,,,2,,,76,0
111680,note_off,,,,,320,0,8,,,,,7,,,68,0
111680,note_off,,,,,320,0,9,,,,,8,,,59,0
111680,note_off,,,,,0,0,8,,,,,7,,,71,0
111744,note_on,,,,,0,0,6,,,,,5,,,49,60
111744,note_off,,,,,384,0,6,,,,,5,,,59,0
111744,note_on,,,,,0,0,1,,,,,0,,,76,60
111744,note_off,,,,,192,0,1,,,,,0,,,75,0
111744,note_on,,,,,64,0,9,,,,,8,,,49,45
111744,note_on,,,,,0,0,5,,,,,4,,,68,60
111744,note_off,,,,,384,0,5,,,,,4,,,71,0
111744,note_on,,,,,0,0,2,,,,,1,,,76,60
111744,note_off,,,,,192,0,2,,,,,1,,,75,0
111744,note_on,,,,,64,0,8,,,,,7,,,68,45
111744,note_off,,,,,192,0,3,,,,,2,,,75,0
111744,note_on,,,,,0,0,3,,,,,2,,,76,70
111744,note_off,,,,,192,0,4,,,,,3,,,75,0
111744,note_on,,,,,0,0,7,,,,,6,,,49,60
111744,note_off,,,,,384,0,7,,,,,6,,,59,0
111744,note_on,,,,,0,0,4,,,,,3,,,76,70
111936,note_off,,,,,192,0,4,,,,,3,,,76,0
111936,note_off,,,,,192,0,1,,,,,0,,,76,0
111936,note_off,,,,,192,0,3,,,,,2,,,76,0
111936,note_on,,,,,0,0,3,,,,,2,,,75,70
111936,note_on,,,,,0,0,2,,,,,1,,,75,60
111936,note_on,,,,,0,0,1,,,,,0,,,75,60
111936,note_on,,,,,0,0,4,,,,,3,,,75,70
111936,note_off,,,,,192,0,2,,,,,1,,,76,0
112064,note_off,,,,,320,0,9,,,,,8,,,49,0
112128,note_on,,,,,0,0,1,,,,,0,,,73,60
112128,note_off,,,,,192,0,1,,,,,0,,,75,0
112128,note_on,,,,,0,0,7,,,,,6,,,51,60
112128,note_off,,,,,384,0,6,,,,,5,,,49,0
112128,note_on,,,,,0,0,4,,,,,3,,,73,70
112128,note_off,,,,,192,0,4,,,,,3,,,75,0
112128,note_on,,,,,0,0,6,,,,,5,,,51,60
112128,note_off,,,,,384,0,7,,,,,6,,,49,0
112128,note_on,,,,,64,0,9,,,,,8,,,51,45
112128,note_off,,,,,192,0,2,,,,,1,,,75,0
112128,note_on,,,,,0,0,2,,,,,1,,,73,60
112128,note_off,,,,,192,0,3,,,,,2,,,75,0
112128,note_on,,,,,0,0,3,,,,,2,,,73,70
112320,note_off,,,,,192,0,4,,,,,3,,,73,0
112320,note_off,,,,,192,0,3,,,,,2,,,73,0
112320,note_on,,,,,0,0,4,,,,,3,,,71,70
112320,note_off,,,,,192,0,1,,,,,0,,,73,0
112320,note_on,,,,,0,0,3,,,,,2,,,71,70
112320,note_on,,,,,0,0,1,,,,,0,,,71,60
112320,note_on,,,,,0,0,2,,,,,1,,,71,60
112320,note_off,,,,,192,0,2,,,,,1,,,73,0
112416,note_off,,,,,672,0,8,,,,,7,,,68,0
112448,note_off,,,,,320,0,9,,,,,8,,,51,0
112512,note_off,,,,,192,0,3,,,,,2,,,71,0
112512,note_on,,,,,0,0,3,,,,,2,,,69,70
112512,note_on,,,,,0,0,6,,,,,5,,,52,60
112512,note_on,,,,,0,0,1,,,,,0,,,69,60
112512,note_off,,,,,192,0,4,,,,,3,,,71,0
112512,note_on,,,,,0,0,4,,,,,3,,,69,70
112512,note_off,,,,,192,0,1,,,,,0,,,71,0
112512,note_off,,,,,384,0,6,,,,,5,,,51,0
112512,note_on,,,,,96,0,8,,,,,7,,,64,45
112512,note_on,,,,,64,0,9,,,,,8,,,52,45
112512,note_off,,,,,768,0,5,,,,,4,,,68,0
112512,note_on,,,,,0,0,5,,,,,4,,,64,60
112512,note_off,,,,,192,0,2,,,,,1,,,71,0
112512,note_on,,,,,0,0,2,,,,,1,,,69,60
112512,note_on,,,,,0,0,7,,,,,6,,,52,60
112512,note_off,,,,,384,0,7,,,,,6,,,51,0
112512,note_on,,,,,0,0,8,,,,,7,,,73,45
112704,note_off,,,,,192,0,1,,,,,0,,,69,0
112704,note_on,,,,,0,0,4,,,,,3,,,68,70
112704,note_off,,,,,192,0,2,,,,,1,,,69,0
112704,note_on,,,,,0,0,2,,,,,1,,,68,60
112704,note_off,,,,,192,0,3,,,,,2,,,69,0
112704,note_on,,,,,0,0,3,,,,,2,,,68,70
112704,note_on,,,,,0,0,1,,,,,0,,,68,60
112704,note_off,,,,,192,0,4,,,,,3,,,69,0
112832,note_off,,,,,0,0,8,,,,,7,,,73,0
112832,note_off,,,,,320,0,9,,,,,8,,,52,0
112832,note_off,,,,,320,0,8,,,,,7,,,64,0
112896,note_on,,,,,0,0,1,,,,,0,,,81,60
112896,note_on,,,,,64,0,8,,,,,7,,,61,45
112896,note_off,,,,,192,0,1,,,,,0,,,68,0
112896,note_off,,,,,192,0,2,,,,,1,,,68,0
112896,note_on,,,,,0,0,2,,,,,1,,,81,60
112896,note_off,,,,,384,0,5,,,,,4,,,64,0
112896,note_on,,,,,0,0,5,,,,,4,,,61,60
112896,note_on,,,,,0,0,4,,,,,3,,,81,70
112896,note_off,,,,,384,0,7,,,,,6,,,52,0
112896,note_on,,,,,0,0,3,,,,,2,,,81,70
112896,note_off,,,,,192,0,3,,,,,2,,,68,0
112896,note_off,,,,,192,0,4,,,,,3,,,68,0
112896,note_on,,,,,0,0,6,,,,,5,,,54,60
112896,note_off,,,,,384,0,6,,,,,5,,,52,0
112896,note_on,,,,,0,0,7,,,,,6,,,54,60
112896,note_on,,,,,64,0,9,,,,,8,,,54,45
113088,note_on,,,,,0,0,4,,,,,3,,,80,70
113088,note_off,,,,,192,0,2,,,,,1,,,81,0
113088,note_on,,,,,0,0,2,,,,,1,,,80,60
113088,note_off,,,,,192,0,4,,,,,3,,,81,0
113088,note_on,,,,,0,0,3,,,,,2,,,80,70
113088,note_on,,,,,0,0,1,,,,,0,,,80,60
113088,note_off,,,,,192,0,1,,,,,0,,,81,0
113088,note_off,,,,,192,0,3,,,,,2,,,81,0
113216,note_off,,,,,320,0,9,,,,,8,,,54,0
113280,note_off,,,,,192,0,4,,,,,3,,,80,0
113280,note_on,,,,,0,0,7,,,,,6,,,56,60
113280,note_off,,,,,192,0,3,,,,,2,,,80,0
113280,note_on,,,,,0,0,3,,,,,2,,,78,70
113280,note_on,,,,,0,0,6,,,,,5,,,56,60
113280,note_off,,,,,384,0,6,,,,,5,,,54,0
113280,note_off,,,,,384,0,7,,,,,6,,,54,0
113280,note_on,,,,,0,0,4,,,,,3,,,78,70
113280,note_on,,,,,64,0,9,,,,,8,,,56,45
113280,note_off,,,,,192,0,2,,,,,1,,,80,0
113280,note_off,,,,,192,0,1,,,,,0,,,80,0
113280,note_on,,,,,0,0,2,,,,,1,,,78,60
113280,note_on,,,,,0,0,1,,,,,0,,,78,60
113472,note_off,,,,,192,0,1,,,,,0,,,78,0
113472,note_off,,,,,192,0,3,,,,,2,,,78,0
113472,note_on,,,,,0,0,3,,,,,2,,,76,70
113472,note_off,,,,,192,0,2,,,,,1,,,78,0
113472,note_on,,,,,0,0,4,,,,,3,,,76,70
113472,note_on,,,,,0,0,2,,,,,1,,,76,60
113472,note_off,,,,,192,0,4,,,,,3,,,78,0
113472,note_on,,,,,0,0,1,,,,,0,,,76,60
113568,note_off,,,,,672,0,8,,,,,7,,,61,0
113600,note_off,,,,,320,0,9,,,,,8,,,56,0
113664,note_on,,,,,64,0,9,,,,,8,,,57,45
113664,note_off,,,,,192,0,4,,,,,3,,,76,0
113664,note_on,,,,,0,0,4,,,,,3,,,75,70
113664,note_off,,,,,192,0,2,,,,,1,,,76,0
113664,note_off,,,,,384,0,7,,,,,6,,,56,0
113664,note_off,,,,,192,0,3,,,,,2,,,76,0
113664,note_on,,,,,0,0,7,,,,,6,,,57,60
113664,note_on,,,,,0,0,2,,,,,1,,,75,60
113664,note_off,,,,,192,0,1,,,,,0,,,76,0
113664,note_on,,,,,0,0,1,,,,,0,,,75,60
113664,note_on,,,,,0,0,3,,,,,2,,,75,70
113664,note_on,,,,,96,0,8,,,,,7,,,66,45
113664,note_off,,,,,768,0,5,,,,,4,,,61,0
113664,note_off,,,,,384,0,6,,,,,5,,,56,0
113664,note_on,,,,,0,0,6,,,,,5,,,57,60
113664,note_on,,,,,0,0,5,,,,,4,,,66,60
113856,note_off,,,,,192,0,3,,,,,2,,,75,0
113856,note_on,,,,,0,0,3,,,,,2,,,73,70
113856,note_on,,,,,0,0,2,,,,,1,,,73,60
113856,note_off,,,,,192,0,2,,,,,1,,,75,0
113856,note_on,,,,,0,0,4,,,,,3,,,73,70
113856,note_off,,,,,192,0,4,,,,,3,,,75,0
113856,note_on,,,,,0,0,1,,,,,0,,,73,60
113856,note_off,,,,,192,0,1,,,,,0,,,75,0
113984,note_off,,,,,320,0,8,,,,,7,,,66,0
113984,note_off,,,,,320,0,9,,,,,8,,,57,0
114048,note_off,,,,,384,0,5,,,,,4,,,66,0
114048,note_on,,,,,0,0,1,,,,,0,,,75,60
114048,note_on,,,,,0,0,5,,,,,4,,,66,60
114048,note_on,,,,,0,0,3,,,,,2,,,75,70
114048,note_off,,,,,192,0,3,,,,,2,,,73,0
114048,note_off,,,,,192,0,1,,,,,0,,,73,0
114048,note_off,,,,,192,0,4,,,,,3,,,73,0
114048,note_on,,,,,0,0,4,,,,,3,,,75,70
114048,note_off,,,,,384,0,6,,,,,5,,,57,0
114048,note_on,,,,,0,0,7,,,,,6,,,47,60
114048,note_on,,,,,0,0,6,,,,,5,,,47,60
114048,note_on,,,,,0,0,2,,,,,1,,,75,60
114048,note_off,,,,,192,0,2,,,,,1,,,73,0
114048,note_off,,,,,384,0,7,,,,,6,,,57,0
114048,note_on,,,,,64,0,9,,,,,8,,,47,45
114048,note_on,,,,,64,0,8,,,,,7,,,66,45
114240,note_off,,,,,192,0,3,,,,,2,,,75,0
114240,note_on,,,,,0,0,3,,,,,2,,,73,70
114240,note_on,,,,,0,0,4,,,,,3,,,73,70
114240,note_off,,,,,192,0,4,,,,,3,,,75,0
114240,note_off,,,,,192,0,2,,,,,1,,,75,0
114240,note_on,,,,,0,0,1,,,,,0,,,73,60
114240,note_off,,,,,192,0,1,,,,,0,,,75,0
114240,note_on,,,,,0,0,2,,,,,1,,,73,60
114368,note_off,,,,,320,0,9,,,,,8,,,47,0
114432,note_on,,,,,64,0,9,,,,,8,,,49,45
114432,note_off,,,,,384,0,6,,,,,5,,,47,0
114432,note_on,,,,,0,0,6,,,,,5,,,49,60
114432,note_off,,,,,192,0,3,,,,,2,,,73,0
114432,note_on,,,,,0,0,3,,,,,2,,,71,70
114432,note_off,,,,,384,0,7,,,,,6,,,47,0
114432,note_off,,,,,192,0,4,,,,,3,,,73,0
114432,note_on,,,,,0,0,2,,,,,1,,,71,60
114432,note_on,,,,,0,0,4,,,,,3,,,71,70
114432,note_off,,,,,192,0,2,,,,,1,,,73,0
114432,note_off,,,,,192,0,1,,,,,0,,,73,0
114432,note_on,,,,,0,0,1,,,,,0,,,71,60
114432,note_on,,,,,0,0,7,,,,,6,,,49,60
114624,note_on,,,,,0,0,2,,,,,1,,,69,60
114624,note_on,,,,,0,0,3,,,,,2,,,69,70
114624,note_off,,,,,192,0,3,,,,,2,,,71,0
114624,note_off,,,,,192,0,2,,,,,1,,,71,0
114624,note_off,,,,,192,0,1,,,,,0,,,71,0
114624,note_on,,,,,0,0,4,,,,,3,,,69,70
114624,note_off,,,,,192,0,4,,,,,3,,,71,0
114624,note_on,,,,,0,0,1,,,,,0,,,69,60
114720,note_off,,,,,672,0,8,,,,,7,,,66,0
114752,note_off,,,,,320,0,9,,,,,8,,,49,0
114816,note_off,,,,,768,0,5,,,,,4,,,66,0
114816,note_on,,,,,0,0,3,,,,,2,,,68,70
114816,note_on,,,,,96,0,8,,,,,7,,,59,45
114816,note_off,,,,,192,0,1,,,,,0,,,69,0
114816,note_on,,,,,0,0,1,,,,,0,,,68,60
114816,note_on,,,,,0,0,7,,,,,6,,,51,60
114816,note_off,,,,,384,0,7,,,,,6,,,49,0
114816,note_on,,,,,0,0,2,,,,,1,,,68,60
114816,note_off,,,,,192,0,2,,,,,1,,,69,0
114816,note_off,,,,,192,0,3,,,,,2,,,69,0
114816,note_on,,,,,64,0,9,,,,,8,,,51,45
114816,note_on,,,,,0,0,5,,,,,4,,,59,60
114816,note_on,,,,,0,0,4,,,,,3,,,68,70
114816,note_off,,,,,192,0,4,,,,,3,,,69,0
114816,note_off,,,,,384,0,6,,,,,5,,,49,0
114816,note_on,,,,,0,0,6,,,,,5,,,51,60
114816,note_on,,,,,0,0,9,,,,,8,,,59,45
115008,note_off,,,,,192,0,1,,,,,0,,,68,0
115008,note_on,,,,,0,0,4,,,,,3,,,66,70
115008,note_off,,,,,192,0,4,,,,,3,,,68,0
115008,note_on,,,,,0,0,1,,,,,0,,,66,60
115008,note_on,,,,,0,0,3,,,,,2,,,66,70
115008,note_on,,,,,0,0,2,,,,,1,,,66,60
115008,note_off,,,,,192,0,3,,,,,2,,,68,0
115008,note_off,,,,,192,0,2,,,,,1,,,68,0
115136,note_off,,,,,320,0,9,,,,,8,,,51,0
115136,note_off,,,,,320,0,8,,,,,7,,,59,0
115136,note_off,,,,,0,0,9,,,,,8,,,59,0
115200,note_on,,,,,0,0,7,,,,,6,,,52,60
115200,note_off,,,,,192,0,3,,,,,2,,,66,0
115200,note_on,,,,,64,0,8,,,,,7,,,64,45
115200,note_on,,,,,0,0,5,,,,,4,,,64,60
115200,note_off,,,,,384,0,5,,,,,4,,,59,0
115200,note_on,,,,,0,0,3,,,,,2,,,80,70
115200,note_off,,,,,192,0,2,,,,,1,,,66,0
115200,note_on,,,,,0,0,2,,,,,1,,,80,60
115200,note_off,,,,,192,0,4,,,,,3,,,66,0
115200,note_off,,,,,384,0,7,,,,,6,,,51,0
115200,note_on,,,,,0,0,4,,,,,3,,,80,70
115200,note_off,,,,,192,0,1,,,,,0,,,66,0
115200,note_on,,,,,0,0,1,,,,,0,,,80,60
115200,note_on,,,,,64,0,9,,,,,8,,,52,45
115200,note_off,,,,,384,0,6,,,,,5,,,51,0
115200,note_on,,,,,0,0,6,,,,,5,,,52,60
115392,note_off,,,,,192,0,3,,,,,2,,,80,0
115392,note_off,,,,,192,0,4,,,,,3,,,80,0
115392,note_on,,,,,0,0,4,,,,,3,,,78,70
115392,note_on,,,,,0,0,1,,,,,0,,,78,60
115392,note_off,,,,,192,0,1,,,,,0,,,80,0
115392,note_on,,,,,0,0,3,,,,,2,,,78,70
115392,note_off,,,,,192,0,2,,,,,1,,,80,0
115392,note_on,,,,,0,0,2,,,,,1,,,78,60
115520,note_off,,,,,320,0,9,,,,,8,,,52,0
115584,note_off,,,,,192,0,1,,,,,0,,,78,0
115584,note_on,,,,,0,0,1,,,,,0,,,76,60
115584,note_on,,,,,0,0,2,,,,,1,,,76,60
115584,note_off,,,,,192,0,2,,,,,1,,,78,0
115584,note_on,,,,,0,0,3,,,,,2,,,76,70
115584,note_on,,,,,0,0,7,,,,,6,,,56,60
115584,note_off,,,,,192,0,4,,,,,3,,,78,0
115584,note_off,,,,,384,0,6,,,,,5,,,52,0
115584,note_on,,,,,64,0,9,,,,,8,,,56,45
115584,note_off,,,,,384,0,7,,,,,6,,,52,0
115584,note_on,,,,,0,0,4,,,,,3,,,76,70
115584,note_on,,,,,0,0,6,,,,,5,,,56,60
115584,note_off,,,,,192,0,3,,,,,2,,,78,0
115776,note_off,,,,,192,0,4,,,,,3,,,76,0
115776,note_on,,,,,0,0,3,,,,,2,,,75,70
115776,note_off,,,,,192,0,1,,,,,0,,,76,0
115776,note_on,,,,,0,0,1,,,,,0,,,75,60
115776,note_on,,,,,0,0,2,,,,,1,,,75,60
115776,note_off,,,,,192,0,3,,,,,2,,,76,0
115776,note_on,,,,,0,0,4,,,,,3,,,75,70
115776,note_off,,,,,192,0,2,,,,,1,,,76,0
115904,note_off,,,,,320,0,9,,,,,8,,,56,0
115968,note_off,,,,,192,0,2,,,,,1,,,75,0
115968,note_on,,,,,0,0,3,,,,,2,,,73,70
115968,note_on,,,,,0,0,1,,,,,0,,,73,60
115968,note_off,,,,,192,0,1,,,,,0,,,75,0
115968,note_off,,,,,192,0,3,,,,,2,,,75,0
115968,note_on,,,,,64,0,9,,,,,8,,,61,45
115968,note_on,,,,,0,0,2,,,,,1,,,73,60
115968,note_off,,,,,384,0,6,,,,,5,,,56,0
115968,note_on,,,,,0,0,6,,,,,5,,,61,60
115968,note_off,,,,,384,0,7,,,,,6,,,56,0
115968,note_on,,,,,0,0,7,,,,,6,,,61,60
115968,note_off,,,,,192,0,4,,,,,3,,,75,0
115968,note_on,,,,,0,0,4,,,,,3,,,73,70
116160,note_on,,,,,0,0,3,,,,,2,,,80,70
116160,note_off,,,,,192,0,2,,,,,1,,,73,0
116160,note_on,,,,,0,0,2,,,,,1,,,80,60
116160,note_off,,,,,192,0,3,,,,,2,,,73,0
116160,note_off,,,,,192,0,1,,,,,0,,,73,0
116160,note_on,,,,,0,0,1,,,,,0,,,80,60
116160,note_on,,,,,0,0,4,,,,,3,,,80,70
116160,note_off,,,,,192,0,4,,,,,3,,,73,0
116256,note_off,,,,,1056,0,8,,,,,7,,,64,0
116288,note_off,,,,,320,0,9,,,,,8,,,61,0
116352,note_on,,,,,0,0,2,,,,,1,,,81,60
116352,note_on,,,,,0,0,5,,,,,4,,,61,60
116352,note_off,,,,,192,0,2,,,,,1,,,80,0
116352,note_off,,,,,1152,0,5,,,,,4,,,64,0
116352,note_on,,,,,0,0,3,,,,,2,,,81,70
116352,note_off,,,,,192,0,4,,,,,3,,,80,0
116352,note_on,,,,,0,0,6,,,,,5,,,54,60
116352,note_on,,,,,0,0,7,,,,,6,,,54,60
116352,note_off,,,,,384,0,7,,,,,6,,,61,0
116352,note_on,,,,,64,0,9,,,,,8,,,54,45
116352,note_on,,,,,96,0,8,,,,,7,,,61,45
116352,note_on,,,,,0,0,4,,,,,3,,,81,70
116352,note_off,,,,,192,0,3,,,,,2,,,80,0
116352,note_off,,,,,384,0,6,,,,,5,,,61,0
116352,note_on,,,,,0,0,1,,,,,0,,,81,60
116352,note_off,,,,,192,0,1,,,,,0,,,80,0
116544,note_off,,,,,192,0,3,,,,,2,,,81,0
116544,note_on,,,,,0,0,2,,,,,1,,,73,60
116544,note_off,,,,,192,0,4,,,,,3,,,81,0
116544,note_on,,,,,0,0,4,,,,,3,,,73,70
116544,note_off,,,,,192,0,2,,,,,1,,,81,0
116544,note_on,,,,,0,0,1,,,,,0,,,73,60
116544,note_on,,,,,0,0,3,,,,,2,,,73,70
116544,note_off,,,,,192,0,1,,,,,0,,,81,0
116672,note_off,,,,,320,0,9,,,,,8,,,54,0
116672,note_off,,,,,320,0,8,,,,,7,,,61,0
116736,note_off,,,,,192,0,4,,,,,3,,,73,0
116736,note_off,,,,,384,0,6,,,,,5,,,54,0
116736,note_on,,,,,0,0,6,,,,,5,,,56,60
116736,note_on,,,,,0,0,7,,,,,6,,,56,60
116736,note_off,,,,,384,0,7,,,,,6,,,54,0
116736,note_off,,,,,192,0,3,,,,,2,,,73,0
116736,note_on,,,,,0,0,3,,,,,2,,,72,70
116736,note_on,,,,,64,0,9,,,,,8,,,56,45
116736,note_on,,,,,64,0,8,,,,,7,,,68,45
116736,note_on,,,,,0,0,5,,,,,4,,,68,60
116736,note_on,,,,,0,0,2,,,,,1,,,72,60
116736,note_off,,,,,192,0,2,,,,,1,,,73,0
116736,note_off,,,,,384,0,5,,,,,4,,,61,0
116736,note_on,,,,,0,0,1,,,,,0,,,72,60
116736,note_off,,,,,192,0,1,,,,,0,,,73,0
116736,note_on,,,,,0,0,4,,,,,3,,,72,70
116928,note_on,,,,,0,0,3,,,,,2,,,80,70
116928,note_off,,,,,192,0,3,,,,,2,,,72,0
116928,note_off,,,,,192,0,1,,,,,0,,,72,0
116928,note_on,,,,,0,0,2,,,,,1,,,80,60
116928,note_off,,,,,192,0,2,,,,,1,,,72,0
116928,note_on,,,,,0,0,1,,,,,0,,,80,60
116928,note_on,,,,,0,0,4,,,,,3,,,80,70
116928,note_off,,,,,192,0,4,,,,,3,,,72,0
117056,note_off,,,,,320,0,8,,,,,7,,,68,0
117056,note_off,,,,,320,0,9,,,,,8,,,56,0
117120,note_off,,,,,192,0,2,,,,,1,,,80,0
117120,note_off,,,,,192,0,1,,,,,0,,,80,0
117120,note_on,,,,,0,0,2,,,,,1,,,73,60
117120,note_on,,,,,64,0,8,,,,,7,,,66,45
117120,note_off,,,,,192,0,3,,,,,2,,,80,0
117120,note_on,,,,,0,0,3,,,,,2,,,73,70
117120,note_on,,,,,0,0,4,,,,,3,,,73,70
117120,note_off,,,,,192,0,4,,,,,3,,,80,0
117120,note_on,,,,,64,0,9,,,,,8,,,57,45
117120,note_on,,,,,0,0,1,,,,,0,,,73,60
117120,note_on,,,,,0,0,7,,,,,6,,,57,60
117120,note_off,,,,,384,0,6,,,,,5,,,56,0
117120,note_off,,,,,384,0,5,,,,,4,,,68,0
117120,note_on,,,,,0,0,5,,,,,4,,,66,60
117120,note_on,,,,,0,0,6,,,,,5,,,57,60
117120,note_off,,,,,384,0,7,,,,,6,,,56,0
117308,note_off,,,,,188,0,8,,,,,7,,,66,0
117312,note_on,,,,,0,0,1,,,,,0,,,78,60
117312,note_off,,,,,192,0,5,,,,,4,,,66,0
117312,note_on,,,,,0,0,5,,,,,4,,,61,60
117312,note_off,,,,,192,0,3,,,,,2,,,73,0
117312,note_on,,,,,0,0,3,,,,,2,,,78,70
117312,note_on,,,,,4,0,8,,,,,7,,,61,45
117312,note_off,,,,,192,0,2,,,,,1,,,73,0
117312,note_on,,,,,0,0,2,,,,,1,,,78,60
117312,note_off,,,,,192,0,4,,,,,3,,,73,0
117312,note_on,,,,,0,0,4,,,,,3,,,78,70
117312,note_off,,,,,192,0,1,,,,,0,,,73,0
117440,note_off,,,,,320,0,9,,,,,8,,,57,0
117500,note_off,,,,,188,0,8,,,,,7,,,61,0
117504,note_on,,,,,4,0,8,,,,,7,,,61,45
117504,note_off,,,,,384,0,6,,,,,5,,,57,0
117504,note_on,,,,,0,0,6,,,,,5,,,54,60
117504,note_on,,,,,64,0,9,,,,,8,,,54,45
117504,note_on,,,,,0,0,7,,,,,6,,,54,60
117504,note_off,,,,,384,0,7,,,,,6,,,57,0
117504,note_on,,,,,0,0,9,,,,,8,,,64,45
117504,note_on,,,,,0,0,1,,,,,0,,,76,60
117504,note_off,,,,,192,0,4,,,,,3,,,78,0
117504,note_on,,,,,0,0,2,,,,,1,,,76,60
117504,note_on,,,,,0,0,4,,,,,3,,,76,70
117504,note_off,,,,,192,0,3,,,,,2,,,78,0
117504,note_on,,,,,0,0,3,,,,,2,,,76,70
117504,note_off,,,,,192,0,1,,,,,0,,,78,0
117504,note_off,,,,,192,0,2,,,,,1,,,78,0
117504,note_off,,,,,192,0,5,,,,,4,,,61,0
117504,note_on,,,,,0,0,5,,,,,4,,,61,60
117696,note_on,,,,,0,0,4,,,,,3,,,75,70
117696,note_off,,,,,192,0,4,,,,,3,,,76,0
117696,note_on,,,,,0,0,2,,,,,1,,,75,60
117696,note_on,,,,,0,0,3,,,,,2,,,75,70
117696,note_off,,,,,192,0,3,,,,,2,,,76,0
117696,note_on,,,,,0,0,1,,,,,0,,,75,60
117696,note_off,,,,,192,0,1,,,,,0,,,76,0
117696,note_off,,,,,192,0,2,,,,,1,,,76,0
117824,note_off,,,,,0,0,9,,,,,8,,,64,0
117824,note_off,,,,,320,0,9,,,,,8,,,54,0
117888,note_off,,,,,384,0,6,,,,,5,,,54,0
117888,note_on,,,,,0,0,6,,,,,5,,,56,60
117888,note_off,,,,,192,0,4,,,,,3,,,75,0
117888,note_on,,,,,0,0,4,,,,,3,,,76,70
117888,note_off,,,,,384,0,7,,,,,6,,,54,0
117888,note_on,,,,,0,0,2,,,,,1,,,76,60
117888,note_on,,,,,64,0,9,,,,,8,,,56,45
117888,note_on,,,,,0,0,9,,,,,8,,,61,45
117888,note_on,,,,,0,0,9,,,,,8,,,64,45
117888,note_on,,,,,0,0,3,,,,,2,,,76,70
117888,note_off,,,,,192,0,3,,,,,2,,,75,0
117888,note_on,,,,,0,0,1,,,,,0,,,76,60
117888,note_off,,,,,192,0,1,,,,,0,,,75,0
117888,note_off,,,,,192,0,2,,,,,1,,,75,0
117888,note_on,,,,,0,0,7,,,,,6,,,56,60
118080,note_on,,,,,0,0,4,,,,,3,,,73,70
118080,note_off,,,,,192,0,3,,,,,2,,,76,0
118080,note_on,,,,,0,0,3,,,,,2,,,73,70
118080,note_on,,,,,0,0,2,,,,,1,,,73,60
118080,note_off,,,,,192,0,2,,,,,1,,,76,0
118080,note_off,,,,,192,0,1,,,,,0,,,76,0
118080,note_on,,,,,0,0,1,,,,,0,,,73,60
118080,note_off,,,,,192,0,4,,,,,3,,,76,0
118176,note_off,,,,,672,0,8,,,,,7,,,61,0
118208,note_off,,,,,0,0,9,,,,,8,,,61,0
118208,note_off,,,,,0,0,9,,,,,8,,,64,0
118208,note_off,,,,,320,0,9,,,,,8,,,56,0
118272,note_on,,,,,0,0,2,,,,,1,,,68,60
118272,note_off,,,,,192,0,2,,,,,1,,,73,0
118272,note_on,,,,,0,0,7,,,,,6,,,44,60
118272,note_on,,,,,0,0,3,,,,,2,,,68,70
118272,note_on,,,,,96,0,8,,,,,7,,,60,45
118272,note_off,,,,,192,0,3,,,,,2,,,73,0
118272,note_on,,,,,0,0,1,,,,,0,,,68,60
118272,note_on,,,,,0,0,6,,,,,5,,,44,60
118272,note_off,,,,,192,0,1,,,,,0,,,73,0
118272,note_off,,,,,768,0,5,,,,,4,,,61,0
118272,note_on,,,,,0,0,5,,,,,4,,,60,60
118272,note_on,,,,,0,0,4,,,,,3,,,68,70
118272,note_off,,,,,192,0,4,,,,,3,,,73,0
118272,note_off,,,,,384,0,6,,,,,5,,,56,0
118272,note_off,,,,,384,0,7,,,,,6,,,56,0
118272,note_on,,,,,0,0,9,,,,,8,,,51,45
118272,note_on,,,,,64,0,9,,,,,8,,,44,45
118464,note_off,,,,,192,0,1,,,,,0,,,68,0
118464,note_on,,,,,0,0,2,,,,,1,,,72,60
118464,note_on,,,,,0,0,1,,,,,0,,,72,60
118464,note_off,,,,,192,0,4,,,,,3,,,68,0
118464,note_on,,,,,0,0,4,,,,,3,,,72,70
118464,note_on,,,,,0,0,3,,,,,2,,,72,70
118464,note_off,,,,,192,0,3,,,,,2,,,68,0
118464,note_off,,,,,192,0,2,,,,,1,,,68,0
118592,note_off,,,,,320,0,8,,,,,7,,,60,0
118592,note_off,,,,,0,0,9,,,,,8,,,51,0
118592,note_off,,,,,320,0,9,,,,,8,,,44,0
118656,note_on,,,,,64,0,8,,,,,7,,,64,45
118656,note_off,,,,,192,0,4,,,,,3,,,72,0
118656,note_on,,,,,0,0,4,,,,,3,,,73,70
118656,note_off,,,,,384,0,6,,,,,5,,,44,0
118656,note_on,,,,,0,0,1,,,,,0,,,73,60
118656,note_on,,,,,0,0,6,,,,,5,,,49,60
118656,note_off,,,,,192,0,2,,,,,1,,,72,0
118656,note_on,,,,,0,0,2,,,,,1,,,73,60
118656,note_on,,,,,64,0,9,,,,,8,,,49,45
118656,note_on,,,,,0,0,5,,,,,4,,,64,60
118656,note_off,,,,,384,0,5,,,,,4,,,60,0
118656,note_off,,,,,384,0,7,,,,,6,,,44,0
118656,note_on,,,,,0,0,7,,,,,6,,,49,60
118656,note_on,,,,,0,0,3,,,,,2,,,73,70
118656,note_off,,,,,192,0,3,,,,,2,,,72,0
118656,note_off,,,,,192,0,1,,,,,0,,,72,0
118844,note_off,,,,,188,0,8,,,,,7,,,64,0
118848,note_on,,,,,0,0,5,,,,,4,,,66,60
118848,note_off,,,,,192,0,5,,,,,4,,,64,0
118848,note_on,,,,,4,0,8,,,,,7,,,66,45
118848,note_on,,,,,0,0,4,,,,,3,,,75,70
118848,note_off,,,,,192,0,2,,,,,1,,,73,0
118848,note_off,,,,,192,0,3,,,,,2,,,73,0
118848,note_on,,,,,0,0,3,,,,,2,,,75,70
118848,note_on,,,,,0,0,2,,,,,1,,,75,60
118848,note_off,,,,,192,0,4,,,,,3,,,73,0
118848,note_off,,,,,192,0,1,,,,,0,,,73,0
118848,note_on,,,,,0,0,1,,,,,0,,,75,60
119036,note_off,,,,,188,0,8,,,,,7,,,66,0
119040,note_off,,,,,192,0,3,,,,,2,,,75,0
119040,note_on,,,,,0,0,3,,,,,2,,,76,70
119040,note_on,,,,,0,0,2,,,,,1,,,76,60
119040,note_off,,,,,192,0,2,,,,,1,,,75,0
119040,note_off,,,,,192,0,5,,,,,4,,,66,0
119040,note_on,,,,,0,0,5,,,,,4,,,68,60
119040,note_off,,,,,192,0,4,,,,,3,,,75,0
119040,note_on,,,,,0,0,1,,,,,0,,,76,60
119040,note_on,,,,,0,0,4,,,,,3,,,76,70
119040,note_off,,,,,192,0,1,,,,,0,,,75,0
119040,note_on,,,,,4,0,8,,,,,7,,,68,45
119168,note_off,,,,,512,0,9,,,,,8,,,49,0
119228,note_off,,,,,188,0,8,,,,,7,,,68,0
119232,note_off,,,,,576,0,6,,,,,5,,,49,0
119232,note_off,,,,,192,0,3,,,,,2,,,76,0
119232,note_on,,,,,0,0,3,,,,,2,,,78,70
119232,note_on,,,,,64,0,9,,,,,8,,,51,45
119232,note_off,,,,,192,0,4,,,,,3,,,76,0
119232,note_on,,,,,0,0,6,,,,,5,,,51,60
119232,note_on,,,,,0,0,2,,,,,1,,,78,60
119232,note_on,,,,,4,0,8,,,,,7,,,66,45
119232,note_on,,,,,0,0,7,,,,,6,,,51,60
119232,note_off,,,,,576,0,7,,,,,6,,,49,0
119232,note_on,,,,,0,0,4,,,,,3,,,78,70
119232,note_on,,,,,0,0,1,,,,,0,,,78,60
119232,note_off,,,,,192,0,1,,,,,0,,,76,0
119232,note_off,,,,,192,0,5,,,,,4,,,68,0
119232,note_off,,,,,192,0,2,,,,,1,,,76,0
119232,note_on,,,,,0,0,5,,,,,4,,,66,60
119420,note_off,,,,,188,0,8,,,,,7,,,66,0
119420,note_off,,,,,188,0,9,,,,,8,,,51,0
119424,note_off,,,,,192,0,2,,,,,1,,,78,0
119424,note_on,,,,,0,0,2,,,,,1,,,80,60
119424,note_on,,,,,0,0,5,,,,,4,,,64,60
119424,note_off,,,,,192,0,5,,,,,4,,,66,0
119424,note_off,,,,,192,0,7,,,,,6,,,51,0
119424,note_on,,,,,0,0,6,,,,,5,,,52,60
119424,note_on,,,,,4,0,9,,,,,8,,,52,45
119424,note_off,,,,,192,0,3,,,,,2,,,78,0
119424,note_on,,,,,0,0,3,,,,,2,,,80,70
119424,note_on,,,,,4,0,8,,,,,7,,,64,45
119424,note_off,,,,,192,0,6,,,,,5,,,51,0
119424,note_off,,,,,192,0,4,,,,,3,,,78,0
119424,note_on,,,,,0,0,4,,,,,3,,,80,70
119424,note_on,,,,,0,0,7,,,,,6,,,52,60
119424,note_on,,,,,0,0,1,,,,,0,,,80,60
119424,note_off,,,,,192,0,1,,,,,0,,,78,0
119612,note_off,,,,,188,0,9,,,,,8,,,52,0
119616,note_off,,,,,192,0,7,,,,,6,,,52,0
119616,note_on,,,,,0,0,1,,,,,0,,,73,60
119616,note_on,,,,,0,0,3,,,,,2,,,73,70
119616,note_off,,,,,192,0,3,,,,,2,,,80,0
119616,note_off,,,,,192,0,1,,,,,0,,,80,0
119616,note_on,,,,,0,0,6,,,,,5,,,54,60
119616,note_on,,,,,0,0,2,,,,,1,,,73,60
119616,note_off,,,,,192,0,2,,,,,1,,,80,0
119616,note_off,,,,,192,0,4,,,,,3,,,80,0
119616,note_on,,,,,0,0,4,,,,,3,,,73,70
119616,note_on,,,,,4,0,9,,,,,8,,,54,45
119616,note_on,,,,,0,0,7,,,,,6,,,54,60
119616,note_off,,,,,192,0,6,,,,,5,,,52,0
119744,note_off,,,,,320,0,8,,,,,7,,,64,0
119804,note_off,,,,,188,0,9,,,,,8,,,54,0
119808,note_off,,,,,192,0,1,,,,,0,,,73,0
119808,note_on,,,,,0,0,1,,,,,0,,,71,60
119808,note_on,,,,,4,0,9,,,,,8,,,56,45
119808,note_on,,,,,0,0,7,,,,,6,,,56,60
119808,note_off,,,,,192,0,7,,,,,6,,,54,0
119808,note_off,,,,,384,0,5,,,,,4,,,64,0
119808,note_on,,,,,0,0,2,,,,,1,,,71,60
119808,note_on,,,,,0,0,5,,,,,4,,,63,60
119808,note_off,,,,,192,0,3,,,,,2,,,73,0
119808,note_on,,,,,0,0,3,,,,,2,,,71,70
119808,note_on,,,,,64,0,8,,,,,7,,,63,45
119808,note_on,,,,,0,0,4,,,,,3,,,71,70
119808,note_off,,,,,192,0,2,,,,,1,,,73,0
119808,note_off,,,,,192,0,6,,,,,5,,,54,0
119808,note_off,,,,,192,0,4,,,,,3,,,73,0
119808,note_on,,,,,0,0,6,,,,,5,,,56,60
120000,note_on,,,,,0,0,1,,,,,0,,,81,60
120000,note_off,,,,,192,0,1,,,,,0,,,71,0
120000,note_on,,,,,0,0,4,,,,,3,,,81,70
120000,note_off,,,,,192,0,4,,,,,3,,,71,0
120000,note_off,,,,,192,0,2,,,,,1,,,71,0
120000,note_on,,,,,0,0,2,,,,,1,,,81,60
120000,note_on,,,,,0,0,3,,,,,2,,,81,70
120000,note_off,,,,,192,0,3,,,,,2,,,71,0
120128,note_off,,,,,320,0,9,,,,,8,,,56,0
120128,note_off,,,,,320,0,8,,,,,7,,,63,0
120192,note_on,,,,,0,0,1,,,,,0,,,80,60
120192,note_off,,,,,384,0,7,,,,,6,,,56,0
120192,note_on,,,,,0,0,7,,,,,6,,,53,60
120192,note_on,,,,,64,0,8,,,,,7,,,61,45
120192,note_on,,,,,0,0,6,,,,,5,,,53,60
120192,note_on,,,,,0,0,3,,,,,2,,,80,70
120192,note_off,,,,,192,0,1,,,,,0,,,81,0
120192,note_on,,,,,0,0,9,,,,,8,,,61,45
120192,note_on,,,,,64,0,9,,,,,8,,,53,45
120192,note_off,,,,,384,0,6,,,,,5,,,56,0
120192,note_on,,,,,0,0,5,,,,,4,,,61,60
120192,note_off,,,,,192,0,4,,,,,3,,,81,0
120192,note_off,,,,,192,0,3,,,,,2,,,81,0
120192,note_off,,,,,384,0,5,,,,,4,,,63,0
120192,note_on,,,,,0,0,4,,,,,3,,,80,70
120192,note_off,,,,,192,0,2,,,,,1,,,81,0
120192,note_on,,,,,0,0,2,,,,,1,,,80,60
120384,note_off,,,,,192,0,2,,,,,1,,,80,0
120384,note_on,,,,,0,0,4,,,,,3,,,78,70
120384,note_on,,,,,0,0,3,,,,,2,,,78,70
120384,note_off,,,,,192,0,3,,,,,2,,,80,0
120384,note_on,,,,,0,0,1,,,,,0,,,78,60
120384,note_off,,,,,192,0,1,,,,,0,,,80,0
120384,note_off,,,,,192,0,4,,,,,3,,,80,0
120384,note_on,,,,,0,0,2,,,,,1,,,78,60
120512,note_off,,,,,0,0,9,,,,,8,,,61,0
120512,note_off,,,,,320,0,8,,,,,7,,,61,0
120512,note_off,,,,,320,0,9,,,,,8,,,53,0
120576,note_on,,,,,0,0,2,,,,,1,,,80,60
120576,note_on,,,,,0,0,7,,,,,6,,,49,60
120576,note_off,,,,,192,0,1,,,,,0,,,78,0
120576,note_off,,,,,384,0,5,,,,,4,,,61,0
120576,note_on,,,,,0,0,5,,,,,4,,,65,60
120576,note_on,,,,,64,0,8,,,,,7,,,65,45
120576,note_on,,,,,0,0,3,,,,,2,,,80,70
120576,note_on,,,,,0,0,1,,,,,0,,,80,60
120576,note_off,,,,,192,0,3,,,,,2,,,78,0
120576,note_off,,,,,384,0,6,,,,,5,,,53,0
120576,note_on,,,,,0,0,6,,,,,5,,,49,60
120576,note_on,,,,,64,0,9,,,,,8,,,49,45
120576,note_off,,,,,192,0,4,,,,,3,,,78,0
120576,note_off,,,,,384,0,7,,,,,6,,,53,0
120576,note_off,,,,,192,0,2,,,,,1,,,78,0
120576,note_on,,,,,0,0,4,,,,,3,,,80,70
120768,note_off,,,,,192,0,3,,,,,2,,,80,0
120768,note_on,,,,,0,0,4,,,,,3,,,71,70
120768,note_on,,,,,0,0,2,,,,,1,,,71,60
120768,note_off,,,,,192,0,2,,,,,1,,,80,0
120768,note_off,,,,,192,0,1,,,,,0,,,80,0
120768,note_on,,,,,0,0,1,,,,,0,,,71,60
120768,note_off,,,,,192,0,4,,,,,3,,,80,0
120768,note_on,,,,,0,0,3,,,,,2,,,71,70
120896,note_off,,,,,320,0,9,,,,,8,,,49,0
120896,note_off,,,,,320,0,8,,,,,7,,,65,0
120960,note_off,,,,,384,0,6,,,,,5,,,49,0
120960,note_on,,,,,0,0,3,,,,,2,,,69,70
120960,note_on,,,,,0,0,6,,,,,5,,,54,60
120960,note_on,,,,,0,0,2,,,,,1,,,69,60
120960,note_off,,,,,192,0,4,,,,,3,,,71,0
120960,note_off,,,,,192,0,2,,,,,1,,,71,0
120960,note_on,,,,,0,0,4,,,,,3,,,69,70
120960,note_off,,,,,192,0,1,,,,,0,,,71,0
120960,note_off,,,,,192,0,3,,,,,2,,,71,0
120960,note_on,,,,,64,0,9,,,,,8,,,54,45
120960,note_on,,,,,0,0,1,,,,,0,,,69,60
120960,note_on,,,,,64,0,8,,,,,7,,,61,45
120960,note_off,,,,,384,0,5,,,,,4,,,65,0
120960,note_on,,,,,0,0,7,,,,,6,,,54,60
120960,note_on,,,,,0,0,5,,,,,4,,,61,60
120960,note_off,,,,,384,0,7,,,,,6,,,49,0
121152,note_on,,,,,0,0,3,,,,,2,,,80,70
121152,note_off,,,,,192,0,3,,,,,2,,,69,0
121152,note_on,,,,,0,0,2,,,,,1,,,80,60
121152,note_off,,,,,192,0,2,,,,,1,,,69,0
121152,note_off,,,,,192,0,4,,,,,3,,,69,0
121152,note_off,,,,,192,0,1,,,,,0,,,69,0
121152,note_on,,,,,0,0,1,,,,,0,,,80,60
121152,note_on,,,,,0,0,4,,,,,3,,,80,70
121280,note_off,,,,,320,0,8,,,,,7,,,61,0
121280,note_off,,,,,320,0,9,,,,,8,,,54,0
121344,note_off,,,,,192,0,3,,,,,2,,,80,0
121344,note_off,,,,,192,0,2,,,,,1,,,80,0
121344,note_on,,,,,0,0,7,,,,,6,,,51,60
121344,note_off,,,,,384,0,7,,,,,6,,,54,0
121344,note_on,,,,,0,0,2,,,,,1,,,78,60
121344,note_on,,,,,0,0,3,,,,,2,,,78,70
121344,note_off,,,,,384,0,5,,,,,4,,,61,0
121344,note_off,,,,,384,0,6,,,,,5,,,54,0
121344,note_on,,,,,0,0,6,,,,,5,,,51,60
121344,note_off,,,,,192,0,1,,,,,0,,,80,0
121344,note_on,,,,,64,0,9,,,,,8,,,51,45
121344,note_on,,,,,0,0,9,,,,,8,,,57,45
121344,note_on,,,,,0,0,9,,,,,8,,,59,45
121344,note_off,,,,,192,0,4,,,,,3,,,80,0
121344,note_on,,,,,64,0,8,,,,,7,,,63,45
121344,note_on,,,,,0,0,5,,,,,4,,,63,60
121344,note_on,,,,,0,0,4,,,,,3,,,78,70
121344,note_on,,,,,0,0,1,,,,,0,,,78,60
121536,note_on,,,,,0,0,2,,,,,1,,,76,60
121536,note_on,,,,,0,0,3,,,,,2,,,76,70
121536,note_off,,,,,192,0,2,,,,,1,,,78,0
121536,note_off,,,,,192,0,1,,,,,0,,,78,0
121536,note_on,,,,,0,0,1,,,,,0,,,76,60
121536,note_on,,,,,0,0,4,,,,,3,,,76,70
121536,note_off,,,,,192,0,3,,,,,2,,,78,0
121536,note_off,,,,,192,0,4,,,,,3,,,78,0
121664,note_off,,,,,0,0,9,,,,,8,,,59,0
121664,note_off,,,,,0,0,9,,,,,8,,,57,0
121664,note_off,,,,,320,0,9,,,,,8,,,51,0
121728,note_on,,,,,0,0,4,,,,,3,,,78,70
121728,note_off,,,,,192,0,2,,,,,1,,,76,0
121728,note_on,,,,,0,0,2,,,,,1,,,78,60
121728,note_on,,,,,0,0,7,,,,,6,,,47,60
121728,note_off,,,,,384,0,7,,,,,6,,,51,0
121728,note_on,,,,,64,0,9,,,,,8,,,47,45
121728,note_on,,,,,0,0,3,,,,,2,,,78,70
121728,note_off,,,,,192,0,4,,,,,3,,,76,0
121728,note_off,,,,,192,0,3,,,,,2,,,76,0
121728,note_off,,,,,192,0,1,,,,,0,,,76,0
121728,note_on,,,,,0,0,1,,,,,0,,,78,60
121728,note_off,,,,,384,0,6,,,,,5,,,51,0
121728,note_on,,,,,0,0,6,,,,,5,,,47,60
121920,note_on,,,,,0,0,1,,,,,0,,,69,60
121920,note_on,,,,,0,0,3,,,,,2,,,69,70
121920,note_off,,,,,192,0,3,,,,,2,,,78,0
121920,note_on,,,,,0,0,2,,,,,1,,,69,60
121920,note_off,,,,,192,0,1,,,,,0,,,78,0
121920,note_off,,,,,192,0,2,,,,,1,,,78,0
121920,note_on,,,,,0,0,4,,,,,3,,,69,70
121920,note_off,,,,,192,0,4,,,,,3,,,78,0
122016,note_off,,,,,672,0,8,,,,,7,,,63,0
122048,note_off,,,,,320,0,9,,,,,8,,,47,0
122112,note_on,,,,,0,0,1,,,,,0,,,68,60
122112,note_on,,,,,0,0,4,,,,,3,,,68,70
122112,note_off,,,,,384,0,6,,,,,5,,,47,0
122112,note_on,,,,,96,0,8,,,,,7,,,59,45
122112,note_off,,,,,192,0,4,,,,,3,,,69,0
122112,note_off,,,,,192,0,1,,,,,0,,,69,0
122112,note_off,,,,,384,0,7,,,,,6,,,47,0
122112,note_on,,,,,0,0,2,,,,,1,,,68,60
122112,note_on,,,,,0,0,6,,,,,5,,,52,60
122112,note_off,,,,,192,0,2,,,,,1,,,69,0
122112,note_on,,,,,0,0,7,,,,,6,,,52,60
122112,note_off,,,,,192,0,3,,,,,2,,,69,0
122112,note_on,,,,,0,0,3,,,,,2,,,68,70
122112,note_on,,,,,0,0,5,,,,,4,,,59,60
122112,note_off,,,,,768,0,5,,,,,4,,,63,0
122112,note_on,,,,,64,0,9,,,,,8,,,52,45
122300,note_off,,,,,188,0,9,,,,,8,,,52,0
122304,note_on,,,,,0,0,4,,,,,3,,,76,70
122304,note_off,,,,,192,0,6,,,,,5,,,52,0
122304,note_off,,,,,192,0,7,,,,,6,,,52,0
122304,note_on,,,,,0,0,7,,,,,6,,,49,60
122304,note_on,,,,,4,0,9,,,,,8,,,49,45
122304,note_off,,,,,192,0,1,,,,,0,,,68,0
122304,note_on,,,,,0,0,1,,,,,0,,,76,60
122304,note_off,,,,,192,0,2,,,,,1,,,68,0
122304,note_off,,,,,192,0,4,,,,,3,,,68,0
122304,note_on,,,,,0,0,3,,,,,2,,,76,70
122304,note_off,,,,,192,0,3,,,,,2,,,68,0
122304,note_on,,,,,0,0,2,,,,,1,,,76,60
122304,note_on,,,,,0,0,6,,,,,5,,,49,60
122432,note_off,,,,,320,0,8,,,,,7,,,59,0
122492,note_off,,,,,188,0,9,,,,,8,,,49,0
122496,note_off,,,,,192,0,6,,,,,5,,,49,0
122496,note_on,,,,,0,0,6,,,,,5,,,54,60
122496,note_on,,,,,0,0,3,,,,,2,,,75,70
122496,note_off,,,,,192,0,3,,,,,2,,,76,0
122496,note_off,,,,,192,0,7,,,,,6,,,49,0
122496,note_on,,,,,0,0,7,,,,,6,,,54,60
122496,note_off,,,,,192,0,4,,,,,3,,,76,0
122496,note_on,,,,,0,0,4,,,,,3,,,75,70
122496,note_on,,,,,0,0,1,,,,,0,,,75,60
122496,note_on,,,,,4,0,9,,,,,8,,,54,45
122496,note_off,,,,,384,0,5,,,,,4,,,59,0
122496,note_on,,,,,0,0,5,,,,,4,,,70,60
122496,note_off,,,,,192,0,1,,,,,0,,,76,0
122496,note_on,,,,,64,0,8,,,,,7,,,70,45
122496,note_off,,,,,192,0,2,,,,,1,,,76,0
122496,note_on,,,,,0,0,2,,,,,1,,,75,60
122688,note_off,,,,,192,0,2,,,,,1,,,75,0
122688,note_off,,,,,192,0,1,,,,,0,,,75,0
122688,note_on,,,,,0,0,1,,,,,0,,,73,60
122688,note_off,,,,,192,0,4,,,,,3,,,75,0
122688,note_on,,,,,0,0,4,,,,,3,,,73,70
122688,note_on,,,,,0,0,2,,,,,1,,,73,60
122688,note_on,,,,,0,0,3,,,,,2,,,73,70
122688,note_off,,,,,192,0,3,,,,,2,,,75,0
122880,note_on,,,,,0,0,3,,,,,2,,,71,70
122880,note_on,,,,,0,0,2,,,,,1,,,71,60
122880,note_off,,,,,192,0,2,,,,,1,,,73,0
122880,note_off,,,,,192,0,3,,,,,2,,,73,0
122880,note_on,,,,,0,0,4,,,,,3,,,71,70
122880,note_on,,,,,0,0,1,,,,,0,,,71,60
122880,note_off,,,,,192,0,4,,,,,3,,,73,0
122880,note_off,,,,,192,0,1,,,,,0,,,73,0
123008,note_off,,,,,512,0,9,,,,,8,,,54,0
123072,note_off,,,,,576,0,7,,,,,6,,,54,0
123072,note_on,,,,,64,0,9,,,,,8,,,52,45
123072,note_on,,,,,0,0,7,,,,,6,,,52,60
123072,note_off,,,,,576,0,6,,,,,5,,,54,0
123072,note_off,,,,,192,0,2,,,,,1,,,71,0
123072,note_on,,,,,0,0,6,,,,,5,,,52,60
123072,note_off,,,,,192,0,1,,,,,0,,,71,0
123072,note_on,,,,,0,0,3,,,,,2,,,70,70
123072,note_off,,,,,192,0,3,,,,,2,,,71,0
123072,note_on,,,,,0,0,1,,,,,0,,,70,60
123072,note_on,,,,,0,0,2,,,,,1,,,70,60
123072,note_off,,,,,192,0,4,,,,,3,,,71,0
123072,note_on,,,,,0,0,4,,,,,3,,,70,70
123168,note_off,,,,,672,0,8,,,,,7,,,70,0
123260,note_off,,,,,188,0,9,,,,,8,,,52,0
123264,note_on,,,,,4,0,9,,,,,8,,,51,45
123264,note_on,,,,,0,0,9,,,,,8,,,59,45
123264,note_on,,,,,96,0,8,,,,,7,,,66,45
123264,note_off,,,,,192,0,6,,,,,5,,,52,0
123264,note_on,,,,,0,0,2,,,,,1,,,71,60
123264,note_on,,,,,0,0,7,,,,,6,,,51,60
123264,note_off,,,,,192,0,7,,,,,6,,,52,0
123264,note_off,,,,,768,0,5,,,,,4,,,70,0
123264,note_off,,,,,192,0,2,,,,,1,,,70,0
123264,note_on,,,,,0,0,6,,,,,5,,,51,60
123264,note_on,,,,,0,0,5,,,,,4,,,66,60
123264,note_off,,,,,192,0,1,,,,,0,,,70,0
123264,note_on,,,,,0,0,1,,,,,0,,,71,60
123264,note_off,,,,,192,0,3,,,,,2,,,70,0
123264,note_on,,,,,0,0,4,,,,,3,,,71,70
123264,note_off,,,,,192,0,4,,,,,3,,,70,0
123264,note_on,,,,,0,0,3,,,,,2,,,71,70
123456,note_off,,,,,192,0,2,,,,,1,,,71,0
123456,note_on,,,,,0,0,2,,,,,1,,,73,60
123456,note_off,,,,,192,0,1,,,,,0,,,71,0
123456,note_on,,,,,0,0,1,,,,,0,,,73,60
123456,note_on,,,,,0,0,3,,,,,2,,,73,70
123456,note_off,,,,,192,0,3,,,,,2,,,71,0
123456,note_on,,,,,0,0,4,,,,,3,,,73,70
123456,note_off,,,,,192,0,4,,,,,3,,,71,0
123584,note_off,,,,,320,0,9,,,,,8,,,51,0
123584,note_off,,,,,0,0,9,,,,,8,,,59,0
123648,note_on,,,,,0,0,6,,,,,5,,,47,60
123648,note_on,,,,,0,0,4,,,,,3,,,75,70
123648,note_off,,,,,192,0,4,,,,,3,,,73,0
123648,note_on,,,,,64,0,9,,,,,8,,,47,45
123648,note_off,,,,,192,0,2,,,,,1,,,73,0
123648,note_on,,,,,0,0,2,,,,,1,,,75,60
123648,note_off,,,,,192,0,1,,,,,0,,,73,0
123648,note_on,,,,,0,0,1,,,,,0,,,75,60
123648,note_on,,,,,0,0,3,,,,,2,,,75,70
123648,note_on,,,,,0,0,7,,,,,6,,,47,60
123648,note_off,,,,,384,0,7,,,,,6,,,51,0
123648,note_off,,,,,192,0,3,,,,,2,,,73,0
123648,note_off,,,,,384,0,6,,,,,5,,,51,0
123840,note_off,,,,,192,0,1,,,,,0,,,75,0
123840,note_on,,,,,0,0,4,,,,,3,,,76,70
123840,note_on,,,,,0,0,2,,,,,1,,,76,60
123840,note_off,,,,,192,0,2,,,,,1,,,75,0
123840,note_on,,,,,0,0,3,,,,,2,,,76,70
123840,note_off,,,,,192,0,3,,,,,2,,,75,0
123840,note_on,,,,,0,0,1,,,,,0,,,76,60
123840,note_off,,,,,192,0,4,,,,,3,,,75,0
123936,note_off,,,,,672,0,8,,,,,7,,,66,0
123968,note_off,,,,,320,0,9,,,,,8,,,47,0
124032,note_off,,,,,192,0,2,,,,,1,,,76,0
124032,note_off,,,,,384,0,6,,,,,5,,,47,0
124032,note_off,,,,,768,0,5,,,,,4,,,66,0
124032,note_on,,,,,0,0,4,,,,,3,,,78,70
124032,note_off,,,,,192,0,4,,,,,3,,,76,0
124032,note_on,,,,,0,0,2,,,,,1,,,78,60
124032,note_off,,,,,384,0,7,,,,,6,,,47,0
124032,note_off,,,,,192,0,1,,,,,0,,,76,0
124032,note_on,,,,,0,0,1,,,,,0,,,78,60
124032,note_on,,,,,0,0,3,,,,,2,,,78,70
124032,note_off,,,,,192,0,3,,,,,2,,,76,0
124224,note_off,,,,,192,0,1,,,,,0,,,78,0
124224,note_on,,,,,0,0,2,,,,,1,,,80,60
124224,note_on,,,,,0,0,3,,,,,2,,,80,70
124224,note_off,,,,,192,0,3,,,,,2,,,78,0
124224,note_on,,,,,0,0,4,,,,,3,,,80,70
124224,note_on,,,,,0,0,1,,,,,0,,,80,60
124224,note_off,,,,,192,0,2,,,,,1,,,78,0
124224,note_off,,,,,192,0,4,,,,,3,,,78,0
124416,note_off,,,,,192,0,2,,,,,1,,,80,0
124416,note_on,,,,,0,0,2,,,,,1,,,81,92
124416,note_on,,,,,384,0,7,,,,,6,,,61,92
124416,note_off,,,,,192,0,1,,,,,0,,,80,0
124416,note_on,,,,,448,0,9,,,,,8,,,61,75
124416,note_on,,,,,480,0,8,,,,,7,,,64,75
124416,note_off,,,,,192,0,3,,,,,2,,,80,0
124416,note_on,,,,,0,0,1,,,,,0,,,81,92
124416,note_on,,,,,384,0,5,,,,,4,,,64,92
124416,note_on,,,,,0,0,8,,,,,7,,,69,75
124416,note_on,,,,,0,0,4,,,,,3,,,81,108
124416,note_off,,,,,192,0,4,,,,,3,,,80,0
124416,note_on,,,,,0,0,3,,,,,2,,,81,108
124416,note_on,,,,,384,0,6,,,,,5,,,61,92
124604,note_off,,,,,0,0,8,,,,,7,,,69,0
124604,note_off,,,,,188,0,9,,,,,8,,,61,0
124604,note_off,,,,,188,0,8,,,,,7,,,64,0
124608,note_off,,,,,192,0,5,,,,,4,,,64,0
124608,note_on,,,,,0,0,5,,,,,4,,,63,92
124608,note_on,,,,,0,0,7,,,,,6,,,59,92
124608,note_on,,,,,4,0,9,,,,,8,,,59,75
124608,note_off,,,,,192,0,7,,,,,6,,,61,0
124608,note_on,,,,,0,0,6,,,,,5,,,59,92
124608,note_on,,,,,4,0,8,,,,,7,,,63,75
124608,note_off,,,,,192,0,6,,,,,5,,,61,0
124796,note_off,,,,,188,0,8,,,,,7,,,63,0
124796,note_off,,,,,188,0,9,,,,,8,,,59,0
124800,note_on,,,,,0,0,7,,,,,6,,,57,92
124800,note_off,,,,,192,0,7,,,,,6,,,59,0
124800,note_on,,,,,4,0,9,,,,,8,,,57,75
124800,note_on,,,,,0,0,6,,,,,5,,,57,92
124800,note_off,,,,,192,0,6,,,,,5,,,59,0
124800,note_on,,,,,0,0,5,,,,,4,,,61,92
124800,note_on,,,,,4,0,8,,,,,7,,,61,75
124800,note_off,,,,,192,0,5,,,,,4,,,63,0
124988,note_off,,,,,188,0,9,,,,,8,,,57,0
124988,note_off,,,,,188,0,8,,,,,7,,,61,0
124992,note_off,,,,,192,0,7,,,,,6,,,57,0
124992,note_off,,,,,192,0,5,,,,,4,,,61,0
124992,note_off,,,,,192,0,6,,,,,5,,,57,0
124992,note_on,,,,,0,0,6,,,,,5,,,56,92
124992,note_on,,,,,0,0,5,,,,,4,,,64,92
124992,note_on,,,,,4,0,8,,,,,7,,,64,75
124992,note_on,,,,,4,0,9,,,,,8,,,56,75
124992,note_on,,,,,0,0,7,,,,,6,,,56,92
125180,note_off,,,,,188,0,9,,,,,8,,,56,0
125180,note_off,,,,,188,0,8,,,,,7,,,64,0
125184,note_on,,,,,0,0,7,,,,,6,,,54,92
125184,note_off,,,,,192,0,7,,,,,6,,,56,0
125184,note_on,,,,,0,0,2,,,,,1,,,73,92
125184,note_on,,,,,0,0,4,,,,,3,,,73,108
125184,note_off,,,,,768,0,2,,,,,1,,,81,0
125184,note_off,,,,,768,0,4,,,,,3,,,81,0
125184,note_on,,,,,4,0,9,,,,,8,,,54,75
125184,note_on,,,,,0,0,5,,,,,4,,,69,92
125184,note_on,,,,,4,0,8,,,,,7,,,69,75
125184,note_off,,,,,192,0,5,,,,,4,,,64,0
125184,note_on,,,,,0,0,1,,,,,0,,,73,92
125184,note_off,,,,,768,0,1,,,,,0,,,81,0
125184,note_off,,,,,768,0,3,,,,,2,,,81,0
125184,note_on,,,,,0,0,3,,,,,2,,,73,108
125184,note_on,,,,,0,0,6,,,,,5,,,54,92
125184,note_off,,,,,192,0,6,,,,,5,,,56,0
125372,note_off,,,,,188,0,9,,,,,8,,,54,0
125376,note_off,,,,,192,0,6,,,,,5,,,54,0
125376,note_on,,,,,4,0,9,,,,,8,,,52,75
125376,note_on,,,,,0,0,6,,,,,5,,,52,92
125376,note_off,,,,,192,0,7,,,,,6,,,54,0
125376,note_on,,,,,0,0,7,,,,,6,,,52,92
125504,note_off,,,,,320,0,8,,,,,7,,,69,0
125564,note_off,,,,,188,0,9,,,,,8,,,52,0
125568,note_off,,,,,384,0,5,,,,,4,,,69,0
125568,note_on,,,,,0,0,3,,,,,2,,,71,108
125568,note_on,,,,,0,0,5,,,,,4,,,69,92
125568,note_off,,,,,384,0,3,,,,,2,,,73,0
125568,note_on,,,,,64,0,8,,,,,7,,,69,75
125568,note_on,,,,,0,0,6,,,,,5,,,51,92
125568,note_off,,,,,384,0,2,,,,,1,,,73,0
125568,note_on,,,,,0,0,2,,,,,1,,,71,92
125568,note_off,,,,,192,0,6,,,,,5,,,52,0
125568,note_off,,,,,384,0,1,,,,,0,,,73,0
125568,note_on,,,,,0,0,1,,,,,0,,,71,92
125568,note_on,,,,,0,0,7,,,,,6,,,51,92
125568,note_off,,,,,192,0,7,,,,,6,,,52,0
125568,note_on,,,,,0,0,9,,,,,8,,,59,75
125568,note_on,,,,,0,0,9,,,,,8,,,57,75
125568,note_on,,,,,4,0,9,,,,,8,,,51,75
125568,note_off,,,,,384,0,4,,,,,3,,,73,0
125568,note_on,,,,,0,0,4,,,,,3,,,71,108
125756,note_off,,,,,0,0,9,,,,,8,,,57,0
125756,note_off,,,,,188,0,9,,,,,8,,,51,0
125756,note_off,,,,,0,0,9,,,,,8,,,59,0
125760,note_on,,,,,0,0,6,,,,,5,,,47,92
125760,note_on,,,,,0,0,7,,,,,6,,,47,92
125760,note_off,,,,,192,0,7,,,,,6,,,51,0
125760,note_off,,,,,192,0,6,,,,,5,,,51,0
125760,note_on,,,,,4,0,9,,,,,8,,,47,75
125888,note_off,,,,,320,0,8,,,,,7,,,69,0
125948,note_off,,,,,188,0,9,,,,,8,,,47,0
125952,note_on,,,,,0,0,5,,,,,4,,,68,92
125952,note_on,,,,,0,0,7,,,,,6,,,52,92
125952,note_off,,,,,192,0,7,,,,,6,,,47,0
125952,note_on,,,,,64,0,8,,,,,7,,,68,75
125952,note_on,,,,,0,0,6,,,,,5,,,52,92
125952,note_off,,,,,192,0,6,,,,,5,,,47,0
125952,note_on,,,,,4,0,9,,,,,8,,,52,75
125952,note_off,,,,,384,0,5,,,,,4,,,69,0
126140,note_off,,,,,188,0,8,,,,,7,,,68,0
126140,note_off,,,,,188,0,9,,,,,8,,,52,0
126144,note_off,,,,,192,0,6,,,,,5,,,52,0
126144,note_on,,,,,0,0,6,,,,,5,,,51,92
126144,note_off,,,,,192,0,7,,,,,6,,,52,0
126144,note_on,,,,,4,0,8,,,,,7,,,66,75
126144,note_on,,,,,0,0,7,,,,,6,,,51,92
126144,note_off,,,,,192,0,5,,,,,4,,,68,0
126144,note_on,,,,,0,0,5,,,,,4,,,66,92
126144,note_on,,,,,4,0,9,,,,,8,,,51,75
126332,note_off,,,,,188,0,9,,,,,8,,,51,0
126332,note_off,,,,,188,0,8,,,,,7,,,66,0
126336,note_on,,,,,0,0,1,,,,,0,,,76,92
126336,note_on,,,,,0,0,4,,,,,3,,,76,108
126336,note_off,,,,,192,0,5,,,,,4,,,66,0
126336,note_on,,,,,0,0,5,,,,,4,,,68,92
126336,note_off,,,,,768,0,4,,,,,3,,,71,0
126336,note_on,,,,,0,0,2,,,,,1,,,76,92
126336,note_off,,,,,768,0,3,,,,,2,,,71,0
126336,note_on,,,,,0,0,7,,,,,6,,,49,92
126336,note_off,,,,,192,0,7,,,,,6,,,51,0
126336,note_off,,,,,768,0,1,,,,,0,,,71,0
126336,note_off,,,,,192,0,6,,,,,5,,,51,0
126336,note_off,,,,,768,0,2,,,,,1,,,71,0
126336,note_on,,,,,4,0,8,,,,,7,,,68,75
126336,note_on,,,,,0,0,6,,,,,5,,,49,92
126336,note_on,,,,,0,0,3,,,,,2,,,76,108
126336,note_on,,,,,4,0,9,,,,,8,,,49,75
126524,note_off,,,,,188,0,8,,,,,7,,,68,0
126528,note_on,,,,,4,0,8,,,,,7,,,64,75
126528,note_off,,,,,192,0,5,,,,,4,,,68,0
126528,note_on,,,,,0,0,5,,,,,4,,,64,92
126656,note_off,,,,,320,0,9,,,,,8,,,49,0
126716,note_off,,,,,188,0,8,,,,,7,,,64,0
126720,note_on,,,,,0,0,2,,,,,1,,,68,92
126720,note_off,,,,,384,0,2,,,,,1,,,76,0
126720,note_off,,,,,384,0,4,,,,,3,,,76,0
126720,note_on,,,,,0,0,4,,,,,3,,,68,108
126720,note_on,,,,,64,0,9,,,,,8,,,57,75
126720,note_off,,,,,192,0,5,,,,,4,,,64,0
126720,note_off,,,,,384,0,7,,,,,6,,,49,0
126720,note_on,,,,,4,0,8,,,,,7,,,64,75
126720,note_off,,,,,384,0,6,,,,,5,,,49,0
126720,note_on,,,,,0,0,6,,,,,5,,,57,92
126720,note_on,,,,,0,0,3,,,,,2,,,68,108
126720,note_off,,,,,384,0,3,,,,,2,,,76,0
126720,note_on,,,,,0,0,1,,,,,0,,,68,92
126720,note_off,,,,,384,0,1,,,,,0,,,76,0
126720,note_on,,,,,0,0,7,,,,,6,,,57,92
126720,note_on,,,,,0,0,5,,,,,4,,,64,92
126912,note_on,,,,,0,0,2,,,,,1,,,66,92
126912,note_off,,,,,192,0,2,,,,,1,,,68,0
126912,note_on,,,,,0,0,4,,,,,3,,,66,108
126912,note_off,,,,,192,0,4,,,,,3,,,68,0
126912,note_off,,,,,192,0,3,,,,,2,,,68,0
126912,note_off,,,,,192,0,1,,,,,0,,,68,0
126912,note_on,,,,,0,0,1,,,,,0,,,66,92
126912,note_on,,,,,0,0,3,,,,,2,,,66,108
127040,note_off,,,,,320,0,8,,,,,7,,,64,0
127040,note_off,,,,,320,0,9,,,,,8,,,57,0
127104,note_on,,,,,0,0,2,,,,,1,,,66,92
127104,note_on,,,,,0,0,3,,,,,2,,,68,108
127104,note_off,,,,,384,0,6,,,,,5,,,57,0
127104,note_on,,,,,64,0,8,,,,,7,,,63,75
127104,note_off,,,,,192,0,2,,,,,1,,,66,0
127104,note_on,,,,,64,0,9,,,,,8,,,59,75
127104,note_off,,,,,384,0,7,,,,,6,,,57,0
127104,note_on,,,,,0,0,6,,,,,5,,,59,92
127104,note_off,,,,,192,0,4,,,,,3,,,66,0
127104,note_on,,,,,0,0,4,,,,,3,,,66,108
127104,note_off,,,,,192,0,1,,,,,0,,,66,0
127104,note_on,,,,,0,0,1,,,,,0,,,68,92
127104,note_on,,,,,0,0,7,,,,,6,,,59,92
127104,note_off,,,,,192,0,3,,,,,2,,,66,0
127152,note_on,,,,,0,0,3,,,,,2,,,66,108
127152,note_on,,,,,0,0,1,,,,,0,,,66,92
127152,note_off,,,,,48,0,1,,,,,0,,,68,0
127152,note_off,,,,,48,0,3,,,,,2,,,68,0
127152,note_on,,,,,0,0,8,,,,,7,,,64,75
127152,note_off,,,,,48,0,8,,,,,7,,,63,0
127200,note_on,,,,,0,0,1,,,,,0,,,68,92
127200,note_off,,,,,48,0,3,,,,,2,,,66,0
127200,note_on,,,,,0,0,3,,,,,2,,,68,108
127200,note_on,,,,,0,0,8,,,,,7,,,63,75
127200,note_off,,,,,48,0,8,,,,,7,,,64,0
127200,note_off,,,,,48,0,1,,,,,0,,,66,0
127248,note_on,,,,,0,0,3,,,,,2,,,66,108
127248,note_off,,,,,48,0,1,,,,,0,,,68,0
127248,note_on,,,,,0,0,1,,,,,0,,,66,92
127248,note_on,,,,,0,0,8,,,,,7,,,64,75
127248,note_off,,,,,48,0,8,,,,,7,,,63,0
127248,note_off,,,,,48,0,3,,,,,2,,,68,0
127296,note_off,,,,,48,0,8,,,,,7,,,64,0
127296,note_off,,,,,48,0,3,,,,,2,,,66,0
127296,note_on,,,,,0,0,8,,,,,7,,,63,75
127296,note_off,,,,,48,0,1,,,,,0,,,66,0
127296,note_on,,,,,0,0,1,,,,,0,,,68,92
127296,note_on,,,,,0,0,3,,,,,2,,,68,108
127344,note_off,,,,,48,0,3,,,,,2,,,68,0
127344,note_off,,,,,48,0,8,,,,,7,,,63,0
127344,note_on,,,,,0,0,8,,,,,7,,,64,75
127344,note_on,,,,,0,0,1,,,,,0,,,66,92
127344,note_off,,,,,48,0,1,,,,,0,,,68,0
127344,note_on,,,,,0,0,3,,,,,2,,,66,108
127392,note_off,,,,,48,0,3,,,,,2,,,66,0
127392,note_on,,,,,0,0,3,,,,,2,,,68,108
127392,note_off,,,,,48,0,8,,,,,7,,,64,0
127392,note_on,,,,,0,0,1,,,,,0,,,68,92
127392,note_off,,,,,48,0,1,,,,,0,,,66,0
127392,note_on,,,,,0,0,8,,,,,7,,,63,75
127424,note_off,,,,,320,0,9,,,,,8,,,59,0
127440,note_off,,,,,48,0,3,,,,,2,,,68,0
127440,note_on,,,,,0,0,1,,,,,0,,,66,92
127440,note_on,,,,,0,0,3,,,,,2,,,66,108
127440,note_off,,,,,48,0,1,,,,,0,,,68,0
127488,note_on,,,,,0,0,6,,,,,5,,,47,92
127488,note_on,,,,,64,0,9,,,,,8,,,47,75
127488,note_on,,,,,0,0,9,,,,,8,,,51,75
127488,note_off,,,,,768,0,5,,,,,4,,,64,0
127488,note_on,,,,,0,0,7,,,,,6,,,47,92
127488,note_on,,,,,0,0,5,,,,,4,,,63,92
127488,note_off,,,,,384,0,6,,,,,5,,,59,0
127488,note_off,,,,,384,0,7,,,,,6,,,59,0
127676,note_off,,,,,284,0,8,,,,,7,,,63,0
127680,note_on,,,,,0,0,2,,,,,1,,,64,92
127680,note_off,,,,,576,0,2,,,,,1,,,66,0
127680,note_on,,,,,4,0,8,,,,,7,,,63,75
127680,note_off,,,,,240,0,1,,,,,0,,,66,0
127680,note_on,,,,,0,0,1,,,,,0,,,64,92
127680,note_off,,,,,240,0,3,,,,,2,,,66,0
127680,note_on,,,,,0,0,3,,,,,2,,,64,108
127680,note_off,,,,,576,0,4,,,,,3,,,66,0
127680,note_on,,,,,0,0,4,,,,,3,,,64,108
127808,note_off,,,,,0,0,9,,,,,8,,,51,0
127808,note_off,,,,,320,0,9,,,,,8,,,47,0
127868,note_off,,,,,188,0,8,,,,,7,,,63,0
127872,note_on,,,,,0,0,4,,,,,3,,,64,108
127872,end_of_track,,,,,0,1,0,,,,,,,,,
127872,set_tempo,,,,,114048,1,0,,1090909,,,,,,,
127872,note_off,,,,,384,0,5,,,,,4,,,63,0
127872,note_on,,,,,0,0,5,,,,,4,,,64,92
127872,note_off,,,,,192,0,1,,,,,0,,,64,0
127872,note_on,,,,,0,0,1,,,,,0,,,64,92
127872,note_off,,,,,192,0,2,,,,,1,,,64,0
127872,note_on,,,,,0,0,2,,,,,1,,,64,92
127872,note_on,,,,,0,0,3,,,,,2,,,64,108
127872,note_off,,,,,192,0,4,,,,,3,,,64,0
127872,note_off,,,,,384,0,7,,,,,6,,,47,0
127872,note_on,,,,,64,0,9,,,,,8,,,40,75
127872,note_on,,,,,4,0,8,,,,,7,,,64,75
127872,note_on,,,,,0,0,6,,,,,5,,,40,92
127872,note_off,,,,,384,0,6,,,,,5,,,47,0
127872,note_on,,,,,0,0,7,,,,,6,,,40,92
127872,note_off,,,,,192,0,3,,,,,2,,,64,0
128928,note_off,,,,,1056,0,9,,,,,8,,,40,0
128928,end_of_track,,,,,0,1,9,,,,,,,,,
128928,note_off,,,,,1056,0,8,,,,,7,,,64,0
128928,end_of_track,,,,,0,1,8,,,,,,,,,
129024,note_off,,,,,1152,0,7,,,,,6,,,40,0
129024,end_of_track,,,,,0,1,4,,,,,,,,,
129024,end_of_track,,,,,0,1,7,,,,,,,,,
129024,note_off,,,,,1152,0,3,,,,,2,,,64,0
129024,note_off,,,,,1152,0,4,,,,,3,,,64,0
129024,note_off,,,,,1152,0,6,,,,,5,,,40,0
129024,end_of_track,,,,,0,1,6,,,,,,,,,
129024,note_off,,,,,1152,0,2,,,,,1,,,64,0
129024,end_of_track,,,,,0,1,2,,,,,,,,,
129024,end_of_track,,,,,0,1,5,,,,,,,,,
129024,note_off,,,,,1152,0,1,,,,,0,,,64,0
129024,end_of_track,,,,,0,1,1,,,,,,,,,
129024,end_of_track,,,,,0,1,3,,,,,,,,,
129024,note_off,,,,,1152,0,5,,,,,4,,,64,0
