tick,type,numerator,denominator,clocks_per_click,notated_32nd_notes_per_beat,time,meta,track,data,tempo,control,value,channel,program,key,note,velocity
0,time_signature,4,4,96,8,0,1,0,,,,,,,,,
0,control_change,,,,,0,0,6,,,10,24,5,,,,
0,control_change,,,,,0,0,6,,,0,0,5,,,,
0,track_name,,,,,0,1,6,,,,,,,,,
0,note_on,,,,,0,0,5,,,,,4,,,59,92
0,key_signature,,,,,0,1,5,,,,,,,C,,
0,program_change,,,,,0,0,5,,,,,4,41,,,
0,control_change,,,,,0,0,5,,,7,127,4,,,,
0,control_change,,,,,0,0,5,,,10,104,4,,,,
0,control_change,,,,,0,0,5,,,0,0,4,,,,
0,track_name,,,,,0,1,5,,,,,,,,,
0,key_signature,,,,,0,1,14,,,,,,,C,,
0,note_on,,,,,0,0,4,,,,,3,,,62,108
0,key_signature,,,,,0,1,4,,,,,,,C,,
0,program_change,,,,,0,0,4,,,,,3,48,,,
0,control_change,,,,,0,0,6,,,7,127,5,,,,
0,control_change,,,,,0,0,4,,,7,127,3,,,,
0,control_change,,,,,0,0,4,,,0,0,3,,,,
0,track_name,,,,,0,1,4,,,,,,,,,
0,note_on,,,,,0,0,3,,,,,2,,,67,108
0,key_signature,,,,,0,1,3,,,,,,,C,,
0,program_change,,,,,0,0,3,,,,,2,48,,,
0,control_change,,,,,0,0,3,,,7,127,2,,,,
0,control_change,,,,,0,0,3,,,10,24,2,,,,
0,control_change,,,,,0,0,3,,,0,0,2,,,,
0,track_name,,,,,0,1,3,,,,,,,,,
0,note_on,,,,,0,0,2,,,,,1,,,62,92
0,key_signature,,,,,0,1,2,,,,,,,C,,
0,program_change,,,,,0,0,2,,,,,1,40,,,
0,control_change,,,,,0,0,2,,,7,127,1,,,,
0,control_change,,,,,0,0,2,,,10,104,1,,,,
0,control_change,,,,,0,0,4,,,10,104,3,,,,
0,control_change,,,,,0,0,2,,,0,0,1,,,,
0,program_change,,,,,0,0,6,,,,,5,42,,,
0,note_on,,,,,0,0,6,,,,,5,,,43,92
0,track_name,,,,,0,1,14,,,,,,,,,
0,end_of_track,,,,,0,1,13,,,,,,,,,
0,key_signature,,,,,0,1,13,,,,,,,C,,
0,track_name,,,,,0,1,13,,,,,,,,,
0,end_of_track,,,,,0,1,12,,,,,,,,,
0,key_signature,,,,,0,1,12,,,,,,,C,,
0,track_name,,,,,0,1,12,,,,,,,,,
0,end_of_track,,,,,0,1,11,,,,,,,,,
0,key_signature,,,,,0,1,11,,,,,,,C,,
0,track_name,,,,,0,1,11,,,,,,,,,
0,end_of_track,,,,,0,1,10,,,,,,,,,
0,key_signature,,,,,0,1,10,,,,,,,C,,
0,track_name,,,,,0,1,10,,,,,,,,,
0,end_of_track,,,,,0,1,9,,,,,,,,,
0,key_signature,,,,,0,1,6,,,,,,,C,,
0,key_signature,,,,,0,1,9,,,,,,,C,,
0,note_on,,,,,0,0,8,,,,,7,,,43,60
0,key_signature,,,,,0,1,8,,,,,,,C,,
0,program_change,,,,,0,0,8,,,,,7,6,,,
0,control_change,,,,,0,0,8,,,7,127,7,,,,
0,control_change,,,,,0,0,8,,,10,64,7,,,,
0,control_change,,,,,0,0,8,,,0,0,7,,,,
0,track_name,,,,,0,1,8,,,,,,,,,
0,note_on,,,,,0,0,7,,,,,6,,,31,75
0,key_signature,,,,,0,1,7,,,,,,,C,,
0,program_change,,,,,0,0,7,,,,,6,43,,,
0,control_change,,,,,0,0,7,,,7,127,6,,,,
0,control_change,,,,,0,0,7,,,10,64,6,,,,
0,control_change,,,,,0,0,7,,,0,0,6,,,,
0,track_name,,,,,0,1,7,,,,,,,,,
0,track_name,,,,,0,1,9,,,,,,,,,
0,track_name,,,,,0,1,2,,,,,,,,,
0,end_of_track,,,,,0,1,14,,,,,,,,,
0,sequencer_specific,,,,,0,1,0,"(0, 0, 65)",,,,,,,,
0,key_signature,,,,,0,1,1,,,,,,,G,,
0,program_change,,,,,0,0,1,,,,,0,40,,,
0,control_change,,,,,0,0,1,,,7,127,0,,,,
0,note_on,,,,,0,0,1,,,,,0,,,67,92
0,control_change,,,,,0,0,1,,,0,0,0,,,,
0,track_name,,,,,0,1,1,,,,,,,,,
0,end_of_track,,,,,0,1,0,,,,,,,,,
0,control_change,,,,,0,0,1,,,10,24,0,,,,
0,set_tempo,,,,,0,1,0,,857142,,,,,,,
384,note_off,,,,,384,0,4,,,,,3,,,62,0
384,note_on,,,,,0,0,5,,,,,4,,,62,92
384,note_off,,,,,384,0,5,,,,,4,,,59,0
384,note_off,,,,,384,0,7,,,,,6,,,31,0
384,note_on,,,,,0,0,7,,,,,6,,,35,75
384,note_off,,,,,384,0,6,,,,,5,,,43,0
384,note_on,,,,,0,0,6,,,,,5,,,47,92
384,note_on,,,,,0,0,4,,,,,3,,,59,108
384,note_on,,,,,0,0,3,,,,,2,,,59,108
384,note_off,,,,,384,0,3,,,,,2,,,67,0
384,note_off,,,,,384,0,8,,,,,7,,,43,0
384,note_on,,,,,0,0,8,,,,,7,,,47,60
384,note_off,,,,,384,0,2,,,,,1,,,62,0
384,note_off,,,,,384,0,1,,,,,0,,,67,0
672,note_off,,,,,288,0,5,,,,,4,,,62,0
672,note_off,,,,,288,0,4,,,,,3,,,59,0
672,note_on,,,,,0,0,4,,,,,3,,,57,108
672,note_on,,,,,0,0,7,,,,,6,,,33,75
672,note_off,,,,,288,0,7,,,,,6,,,35,0
672,note_off,,,,,288,0,8,,,,,7,,,47,0
672,note_on,,,,,0,0,8,,,,,7,,,45,60
672,note_on,,,,,0,0,3,,,,,2,,,57,108
672,note_on,,,,,0,0,5,,,,,4,,,60,92
672,note_off,,,,,288,0,3,,,,,2,,,59,0
672,note_off,,,,,288,0,6,,,,,5,,,47,0
672,note_on,,,,,0,0,6,,,,,5,,,45,92
768,note_off,,,,,96,0,6,,,,,5,,,45,0
768,note_off,,,,,96,0,4,,,,,3,,,57,0
768,note_on,,,,,0,0,4,,,,,3,,,55,108
768,note_on,,,,,0,0,3,,,,,2,,,55,108
768,note_off,,,,,96,0,3,,,,,2,,,57,0
768,note_on,,,,,0,0,7,,,,,6,,,31,75
768,note_on,,,,,0,0,6,,,,,5,,,43,92
768,note_off,,,,,96,0,8,,,,,7,,,45,0
768,note_on,,,,,0,0,8,,,,,7,,,43,60
768,note_off,,,,,96,0,5,,,,,4,,,60,0
768,note_on,,,,,0,0,5,,,,,4,,,59,92
768,note_off,,,,,96,0,7,,,,,6,,,33,0
960,note_on,,,,,576,0,2,,,,,1,,,62,92
960,note_on,,,,,576,0,1,,,,,0,,,62,92
1056,note_off,,,,,96,0,2,,,,,1,,,62,0
1056,note_on,,,,,0,0,2,,,,,1,,,60,92
1056,note_off,,,,,96,0,1,,,,,0,,,62,0
1056,note_on,,,,,0,0,1,,,,,0,,,60,92
1152,note_off,,,,,96,0,2,,,,,1,,,60,0
1152,note_off,,,,,384,0,3,,,,,2,,,55,0
1152,note_off,,,,,384,0,6,,,,,5,,,43,0
1152,note_off,,,,,384,0,5,,,,,4,,,59,0
1152,note_on,,,,,0,0,1,,,,,0,,,59,92
1152,note_off,,,,,384,0,7,,,,,6,,,31,0
1152,note_on,,,,,0,0,2,,,,,1,,,59,92
1152,note_off,,,,,384,0,4,,,,,3,,,55,0
1152,note_off,,,,,384,0,8,,,,,7,,,43,0
1152,note_off,,,,,96,0,1,,,,,0,,,60,0
1248,note_off,,,,,96,0,2,,,,,1,,,59,0
1248,note_off,,,,,96,0,1,,,,,0,,,59,0
1248,note_on,,,,,0,0,1,,,,,0,,,57,92
1248,note_on,,,,,0,0,2,,,,,1,,,57,92
1344,note_off,,,,,96,0,1,,,,,0,,,57,0
1344,note_on,,,,,0,0,1,,,,,0,,,55,92
1344,note_off,,,,,96,0,2,,,,,1,,,57,0
1344,note_on,,,,,0,0,2,,,,,1,,,55,92
1536,note_on,,,,,384,0,3,,,,,2,,,74,108
1536,note_off,,,,,192,0,2,,,,,1,,,55,0
1536,note_on,,,,,384,0,5,,,,,4,,,62,92
1536,note_on,,,,,384,0,8,,,,,7,,,43,60
1536,note_on,,,,,384,0,4,,,,,3,,,62,108
1536,note_on,,,,,0,0,2,,,,,1,,,67,92
1536,note_on,,,,,384,0,6,,,,,5,,,43,92
1536,note_off,,,,,192,0,1,,,,,0,,,55,0
1536,note_on,,,,,0,0,1,,,,,0,,,71,92
1536,note_on,,,,,384,0,7,,,,,6,,,31,75
1920,note_off,,,,,384,0,7,,,,,6,,,31,0
1920,note_off,,,,,384,0,5,,,,,4,,,62,0
1920,note_on,,,,,0,0,5,,,,,4,,,62,92
1920,note_on,,,,,0,0,6,,,,,5,,,47,92
1920,note_off,,,,,384,0,6,,,,,5,,,43,0
1920,note_off,,,,,384,0,1,,,,,0,,,71,0
1920,note_off,,,,,384,0,3,,,,,2,,,74,0
1920,note_off,,,,,384,0,4,,,,,3,,,62,0
1920,note_on,,,,,0,0,8,,,,,7,,,47,60
1920,note_off,,,,,384,0,8,,,,,7,,,43,0
1920,note_on,,,,,0,0,4,,,,,3,,,59,108
1920,note_on,,,,,0,0,7,,,,,6,,,35,75
1920,note_on,,,,,0,0,3,,,,,2,,,59,108
1920,note_off,,,,,384,0,2,,,,,1,,,67,0
2208,note_on,,,,,0,0,8,,,,,7,,,45,60
2208,note_on,,,,,0,0,4,,,,,3,,,57,108
2208,note_on,,,,,0,0,7,,,,,6,,,33,75
2208,note_on,,,,,0,0,3,,,,,2,,,57,108
2208,note_off,,,,,288,0,3,,,,,2,,,59,0
2208,note_off,,,,,288,0,8,,,,,7,,,47,0
2208,note_off,,,,,288,0,7,,,,,6,,,35,0
2208,note_on,,,,,0,0,5,,,,,4,,,60,92
2208,note_off,,,,,288,0,6,,,,,5,,,47,0
2208,note_on,,,,,0,0,6,,,,,5,,,45,92
2208,note_off,,,,,288,0,5,,,,,4,,,62,0
2208,note_off,,,,,288,0,4,,,,,3,,,59,0
2304,note_off,,,,,96,0,8,,,,,7,,,45,0
2304,note_on,,,,,0,0,8,,,,,7,,,43,60
2304,note_on,,,,,0,0,3,,,,,2,,,55,108
2304,note_off,,,,,96,0,3,,,,,2,,,57,0
2304,note_on,,,,,0,0,7,,,,,6,,,31,75
2304,note_off,,,,,96,0,6,,,,,5,,,45,0
2304,note_on,,,,,0,0,6,,,,,5,,,43,92
2304,note_off,,,,,96,0,5,,,,,4,,,60,0
2304,note_on,,,,,0,0,5,,,,,4,,,59,92
2304,note_on,,,,,0,0,4,,,,,3,,,55,108
2304,note_off,,,,,96,0,4,,,,,3,,,57,0
2304,note_off,,,,,96,0,7,,,,,6,,,33,0
2496,note_on,,,,,576,0,2,,,,,1,,,62,92
2496,note_on,,,,,576,0,1,,,,,0,,,62,92
2592,note_off,,,,,96,0,2,,,,,1,,,62,0
2592,note_on,,,,,0,0,2,,,,,1,,,60,92
2592,note_off,,,,,96,0,1,,,,,0,,,62,0
2592,note_on,,,,,0,0,1,,,,,0,,,60,92
2688,note_off,,,,,384,0,7,,,,,6,,,31,0
2688,note_off,,,,,384,0,6,,,,,5,,,43,0
2688,note_on,,,,,0,0,1,,,,,0,,,59,92
2688,note_off,,,,,384,0,8,,,,,7,,,43,0
2688,note_off,,,,,384,0,5,,,,,4,,,59,0
2688,note_off,,,,,384,0,3,,,,,2,,,55,0
2688,note_on,,,,,0,0,2,,,,,1,,,59,92
2688,note_off,,,,,96,0,2,,,,,1,,,60,0
2688,note_off,,,,,384,0,4,,,,,3,,,55,0
2688,note_off,,,,,96,0,1,,,,,0,,,60,0
2784,note_on,,,,,0,0,1,,,,,0,,,57,92
2784,note_on,,,,,0,0,2,,,,,1,,,57,92
2784,note_off,,,,,96,0,2,,,,,1,,,59,0
2784,note_off,,,,,96,0,1,,,,,0,,,59,0
2880,note_on,,,,,0,0,1,,,,,0,,,55,92
2880,note_on,,,,,0,0,2,,,,,1,,,55,92
2880,note_off,,,,,96,0,1,,,,,0,,,57,0
2880,note_off,,,,,96,0,2,,,,,1,,,57,0
3072,note_on,,,,,384,0,6,,,,,5,,,43,92
3072,note_on,,,,,384,0,5,,,,,4,,,71,92
3072,note_on,,,,,384,0,8,,,,,7,,,43,60
3072,note_off,,,,,192,0,2,,,,,1,,,55,0
3072,note_on,,,,,0,0,1,,,,,0,,,79,92
3072,note_off,,,,,192,0,1,,,,,0,,,55,0
3072,note_on,,,,,0,0,2,,,,,1,,,74,92
3072,note_on,,,,,384,0,4,,,,,3,,,74,108
3072,note_on,,,,,384,0,3,,,,,2,,,79,108
3072,note_on,,,,,384,0,7,,,,,6,,,31,75
3456,note_off,,,,,384,0,6,,,,,5,,,43,0
3456,note_on,,,,,0,0,8,,,,,7,,,47,60
3456,note_off,,,,,384,0,8,,,,,7,,,43,0
3456,note_on,,,,,0,0,3,,,,,2,,,59,108
3456,note_off,,,,,384,0,3,,,,,2,,,79,0
3456,note_on,,,,,0,0,7,,,,,6,,,35,75
3456,note_on,,,,,0,0,5,,,,,4,,,62,92
3456,note_off,,,,,384,0,1,,,,,0,,,79,0
3456,note_off,,,,,384,0,7,,,,,6,,,31,0
3456,note_off,,,,,384,0,4,,,,,3,,,74,0
3456,note_on,,,,,0,0,4,,,,,3,,,59,108
3456,note_on,,,,,0,0,6,,,,,5,,,47,92
3456,note_off,,,,,384,0,5,,,,,4,,,71,0
3456,note_off,,,,,384,0,2,,,,,1,,,74,0
3744,note_on,,,,,0,0,6,,,,,5,,,45,92
3744,note_off,,,,,288,0,6,,,,,5,,,47,0
3744,note_on,,,,,0,0,5,,,,,4,,,60,92
3744,note_off,,,,,288,0,8,,,,,7,,,47,0
3744,note_on,,,,,0,0,7,,,,,6,,,33,75
3744,note_off,,,,,288,0,7,,,,,6,,,35,0
3744,note_on,,,,,0,0,3,,,,,2,,,57,108
3744,note_off,,,,,288,0,3,,,,,2,,,59,0
3744,note_off,,,,,288,0,4,,,,,3,,,59,0
3744,note_on,,,,,0,0,8,,,,,7,,,45,60
3744,note_on,,,,,0,0,4,,,,,3,,,57,108
3744,note_off,,,,,288,0,5,,,,,4,,,62,0
3840,note_on,,,,,0,0,6,,,,,5,,,43,92
3840,note_off,,,,,96,0,7,,,,,6,,,33,0
3840,note_on,,,,,0,0,8,,,,,7,,,43,60
3840,note_off,,,,,96,0,4,,,,,3,,,57,0
3840,note_on,,,,,0,0,4,,,,,3,,,55,108
3840,note_off,,,,,96,0,6,,,,,5,,,45,0
3840,note_on,,,,,0,0,3,,,,,2,,,55,108
3840,note_off,,,,,96,0,3,,,,,2,,,57,0
3840,note_on,,,,,0,0,5,,,,,4,,,59,92
3840,note_on,,,,,0,0,7,,,,,6,,,31,75
3840,note_off,,,,,96,0,8,,,,,7,,,45,0
3840,note_off,,,,,96,0,5,,,,,4,,,60,0
4032,note_on,,,,,576,0,1,,,,,0,,,74,92
4032,note_on,,,,,576,0,2,,,,,1,,,74,92
4128,note_on,,,,,0,0,1,,,,,0,,,72,92
4128,note_off,,,,,96,0,1,,,,,0,,,74,0
4128,note_off,,,,,96,0,2,,,,,1,,,74,0
4128,note_on,,,,,0,0,2,,,,,1,,,72,92
4224,note_off,,,,,384,0,5,,,,,4,,,59,0
4224,note_off,,,,,384,0,4,,,,,3,,,55,0
4224,note_on,,,,,0,0,1,,,,,0,,,71,92
4224,note_off,,,,,96,0,1,,,,,0,,,72,0
4224,note_off,,,,,384,0,8,,,,,7,,,43,0
4224,note_off,,,,,96,0,2,,,,,1,,,72,0
4224,note_off,,,,,384,0,3,,,,,2,,,55,0
4224,note_off,,,,,384,0,6,,,,,5,,,43,0
4224,note_off,,,,,384,0,7,,,,,6,,,31,0
4224,note_on,,,,,0,0,2,,,,,1,,,71,92
4320,note_on,,,,,0,0,1,,,,,0,,,69,92
4320,note_off,,,,,96,0,1,,,,,0,,,71,0
4320,note_off,,,,,96,0,2,,,,,1,,,71,0
4320,note_on,,,,,0,0,2,,,,,1,,,69,92
4416,note_on,,,,,0,0,1,,,,,0,,,67,92
4416,note_off,,,,,96,0,1,,,,,0,,,69,0
4416,note_on,,,,,0,0,2,,,,,1,,,67,92
4416,note_off,,,,,96,0,2,,,,,1,,,69,0
4608,note_on,,,,,384,0,8,,,,,7,,,55,60
4608,note_on,,,,,0,0,2,,,,,1,,,79,92
4608,note_off,,,,,192,0,2,,,,,1,,,67,0
4608,note_on,,,,,384,0,7,,,,,6,,,43,75
4608,note_off,,,,,192,0,1,,,,,0,,,67,0
4608,note_on,,,,,384,0,4,,,,,3,,,79,108
4608,note_on,,,,,384,0,3,,,,,2,,,83,108
4608,note_on,,,,,384,0,5,,,,,4,,,74,92
4608,note_on,,,,,0,0,1,,,,,0,,,83,92
4608,note_on,,,,,384,0,6,,,,,5,,,55,92
4992,note_on,,,,,0,0,7,,,,,6,,,47,75
4992,note_on,,,,,0,0,2,,,,,1,,,74,92
4992,note_off,,,,,384,0,2,,,,,1,,,79,0
4992,note_off,,,,,384,0,6,,,,,5,,,55,0
4992,note_off,,,,,384,0,7,,,,,6,,,43,0
4992,note_off,,,,,384,0,4,,,,,3,,,79,0
4992,note_on,,,,,0,0,4,,,,,3,,,74,108
4992,note_off,,,,,384,0,8,,,,,7,,,55,0
4992,note_on,,,,,0,0,6,,,,,5,,,59,92
4992,note_off,,,,,384,0,5,,,,,4,,,74,0
4992,note_on,,,,,0,0,8,,,,,7,,,59,60
4992,note_on,,,,,0,0,5,,,,,4,,,67,92
5280,note_off,,,,,288,0,6,,,,,5,,,59,0
5280,note_on,,,,,0,0,6,,,,,5,,,57,92
5280,note_on,,,,,0,0,2,,,,,1,,,72,92
5280,note_off,,,,,288,0,2,,,,,1,,,74,0
5280,note_on,,,,,0,0,7,,,,,6,,,45,75
5280,note_on,,,,,0,0,4,,,,,3,,,72,108
5280,note_on,,,,,0,0,8,,,,,7,,,57,60
5280,note_off,,,,,288,0,8,,,,,7,,,59,0
5280,note_off,,,,,288,0,4,,,,,3,,,74,0
5280,note_off,,,,,288,0,7,,,,,6,,,47,0
5376,note_on,,,,,0,0,7,,,,,6,,,43,75
5376,note_off,,,,,384,0,5,,,,,4,,,67,0
5376,note_on,,,,,0,0,5,,,,,4,,,62,92
5376,note_off,,,,,768,0,1,,,,,0,,,83,0
5376,note_off,,,,,96,0,2,,,,,1,,,72,0
5376,note_on,,,,,0,0,2,,,,,1,,,71,92
5376,note_off,,,,,96,0,4,,,,,3,,,72,0
5376,note_on,,,,,0,0,6,,,,,5,,,55,92
5376,note_off,,,,,96,0,6,,,,,5,,,57,0
5376,note_off,,,,,96,0,7,,,,,6,,,45,0
5376,note_on,,,,,0,0,4,,,,,3,,,71,108
5376,note_on,,,,,0,0,8,,,,,7,,,55,60
5376,note_off,,,,,96,0,8,,,,,7,,,57,0
5376,note_off,,,,,768,0,3,,,,,2,,,83,0
5472,note_on,,,,,96,0,1,,,,,0,,,81,92
5472,note_on,,,,,96,0,3,,,,,2,,,81,108
5568,note_off,,,,,96,0,3,,,,,2,,,81,0
5568,note_off,,,,,96,0,1,,,,,0,,,81,0
5568,note_on,,,,,0,0,3,,,,,2,,,79,108
5568,note_on,,,,,0,0,1,,,,,0,,,79,92
5760,note_off,,,,,384,0,7,,,,,6,,,43,0
5760,note_off,,,,,384,0,4,,,,,3,,,71,0
5760,note_off,,,,,384,0,5,,,,,4,,,62,0
5760,note_on,,,,,0,0,3,,,,,2,,,78,108
5760,note_on,,,,,0,0,1,,,,,0,,,78,92
5760,note_off,,,,,384,0,8,,,,,7,,,55,0
5760,note_off,,,,,192,0,1,,,,,0,,,79,0
5760,note_off,,,,,384,0,6,,,,,5,,,55,0
5760,note_on,,,,,0,0,5,,,,,4,,,67,92
5760,note_off,,,,,192,0,3,,,,,2,,,79,0
5856,note_on,,,,,0,0,1,,,,,0,,,76,92
5856,note_off,,,,,96,0,1,,,,,0,,,78,0
5856,note_off,,,,,96,0,3,,,,,2,,,78,0
5856,note_on,,,,,0,0,3,,,,,2,,,76,108
5952,note_off,,,,,96,0,3,,,,,2,,,76,0
5952,note_on,,,,,0,0,3,,,,,2,,,74,108
5952,note_off,,,,,96,0,1,,,,,0,,,76,0
5952,note_on,,,,,0,0,1,,,,,0,,,74,92
6144,note_on,,,,,384,0,7,,,,,6,,,45,75
6144,note_on,,,,,384,0,4,,,,,3,,,64,108
6144,note_on,,,,,0,0,5,,,,,4,,,64,92
6144,note_off,,,,,384,0,5,,,,,4,,,67,0
6144,note_on,,,,,384,0,8,,,,,7,,,57,60
6144,note_on,,,,,384,0,6,,,,,5,,,57,92
6144,note_off,,,,,192,0,3,,,,,2,,,74,0
6144,note_on,,,,,0,0,3,,,,,2,,,72,108
6144,note_off,,,,,192,0,1,,,,,0,,,74,0
6144,note_on,,,,,0,0,1,,,,,0,,,72,92
6240,note_off,,,,,96,0,1,,,,,0,,,72,0
6240,note_off,,,,,96,0,3,,,,,2,,,72,0
6240,note_on,,,,,0,0,1,,,,,0,,,74,92
6240,note_on,,,,,0,0,3,,,,,2,,,74,108
6288,note_off,,,,,48,0,1,,,,,0,,,74,0
6288,note_on,,,,,0,0,1,,,,,0,,,72,92
6288,note_on,,,,,0,0,1,,,,,0,,,74,92
6288,note_on,,,,,0,0,3,,,,,2,,,72,108
6288,note_off,,,,,48,0,3,,,,,2,,,74,0
6288,note_on,,,,,0,0,3,,,,,2,,,74,108
6336,note_off,,,,,48,0,1,,,,,0,,,72,0
6336,note_off,,,,,0,0,1,,,,,0,,,74,0
6336,note_on,,,,,0,0,1,,,,,0,,,74,92
6336,note_on,,,,,0,0,1,,,,,0,,,72,92
6336,note_on,,,,,0,0,3,,,,,2,,,74,108
6336,note_on,,,,,0,0,3,,,,,2,,,72,108
6336,note_off,,,,,0,0,3,,,,,2,,,74,0
6336,note_off,,,,,48,0,3,,,,,2,,,72,0
6384,note_on,,,,,0,0,3,,,,,2,,,72,108
6384,note_off,,,,,0,0,3,,,,,2,,,74,0
6384,note_on,,,,,0,0,3,,,,,2,,,74,108
6384,note_off,,,,,48,0,3,,,,,2,,,72,0
6384,note_off,,,,,48,0,1,,,,,0,,,72,0
6384,note_on,,,,,0,0,1,,,,,0,,,74,92
6384,note_on,,,,,0,0,1,,,,,0,,,72,92
6384,note_off,,,,,0,0,1,,,,,0,,,74,0
6432,note_on,,,,,0,0,1,,,,,0,,,72,92
6432,note_off,,,,,48,0,1,,,,,0,,,72,0
6432,note_on,,,,,0,0,1,,,,,0,,,74,92
6432,note_off,,,,,0,0,1,,,,,0,,,74,0
6432,note_on,,,,,0,0,3,,,,,2,,,74,108
6432,note_on,,,,,0,0,3,,,,,2,,,72,108
6432,note_off,,,,,0,0,3,,,,,2,,,74,0
6432,note_off,,,,,48,0,3,,,,,2,,,72,0
6480,note_off,,,,,0,0,1,,,,,0,,,74,0
6480,note_on,,,,,0,0,3,,,,,2,,,74,108
6480,note_on,,,,,0,0,3,,,,,2,,,72,108
6480,note_off,,,,,0,0,3,,,,,2,,,74,0
6480,note_off,,,,,48,0,3,,,,,2,,,72,0
6480,note_off,,,,,48,0,1,,,,,0,,,72,0
6480,note_on,,,,,0,0,1,,,,,0,,,72,92
6480,note_on,,,,,0,0,1,,,,,0,,,74,92
6528,note_off,,,,,384,0,5,,,,,4,,,64,0
6528,note_on,,,,,0,0,3,,,,,2,,,74,108
6528,note_on,,,,,0,0,3,,,,,2,,,72,108
6528,note_off,,,,,0,0,3,,,,,2,,,74,0
6528,note_off,,,,,48,0,3,,,,,2,,,72,0
6528,note_on,,,,,0,0,5,,,,,4,,,64,92
6528,note_off,,,,,384,0,4,,,,,3,,,64,0
6528,note_off,,,,,384,0,7,,,,,6,,,45,0
6528,note_off,,,,,1152,0,2,,,,,1,,,71,0
6528,note_on,,,,,0,0,2,,,,,1,,,69,92
6528,note_on,,,,,0,0,4,,,,,3,,,69,108
6528,note_off,,,,,384,0,8,,,,,7,,,57,0
6528,note_off,,,,,48,0,1,,,,,0,,,72,0
6528,note_off,,,,,0,0,1,,,,,0,,,74,0
6528,note_off,,,,,384,0,6,,,,,5,,,57,0
6528,note_on,,,,,0,0,6,,,,,5,,,60,92
6528,note_on,,,,,0,0,8,,,,,7,,,60,60
6528,note_on,,,,,0,0,1,,,,,0,,,72,92
6528,note_on,,,,,0,0,7,,,,,6,,,48,75
6528,note_on,,,,,0,0,1,,,,,0,,,74,92
6576,note_on,,,,,0,0,3,,,,,2,,,72,108
6576,note_off,,,,,0,0,3,,,,,2,,,74,0
6576,note_off,,,,,48,0,1,,,,,0,,,72,0
6576,note_on,,,,,0,0,1,,,,,0,,,72,92
6576,note_off,,,,,0,0,1,,,,,0,,,74,0
6576,note_off,,,,,48,0,3,,,,,2,,,72,0
6576,note_on,,,,,0,0,3,,,,,2,,,74,108
6576,note_on,,,,,0,0,1,,,,,0,,,74,92
6624,note_off,,,,,48,0,3,,,,,2,,,72,0
6624,note_on,,,,,0,0,3,,,,,2,,,72,108
6624,note_on,,,,,0,0,3,,,,,2,,,74,108
6624,note_off,,,,,0,0,3,,,,,2,,,74,0
6624,note_on,,,,,0,0,1,,,,,0,,,72,92
6624,note_on,,,,,0,0,1,,,,,0,,,74,92
6624,note_off,,,,,0,0,1,,,,,0,,,74,0
6624,note_off,,,,,48,0,1,,,,,0,,,72,0
6672,note_on,,,,,0,0,1,,,,,0,,,74,92
6672,note_off,,,,,48,0,1,,,,,0,,,72,0
6672,note_on,,,,,0,0,3,,,,,2,,,74,108
6672,note_on,,,,,0,0,3,,,,,2,,,72,108
6672,note_off,,,,,0,0,3,,,,,2,,,74,0
6672,note_off,,,,,48,0,3,,,,,2,,,72,0
6672,note_off,,,,,0,0,1,,,,,0,,,74,0
6672,note_on,,,,,0,0,1,,,,,0,,,72,92
6720,note_on,,,,,0,0,1,,,,,0,,,74,92
6720,note_off,,,,,48,0,1,,,,,0,,,72,0
6720,note_off,,,,,0,0,1,,,,,0,,,74,0
6720,note_on,,,,,0,0,3,,,,,2,,,72,108
6720,note_off,,,,,0,0,3,,,,,2,,,74,0
6720,note_on,,,,,0,0,1,,,,,0,,,72,92
6720,note_on,,,,,0,0,3,,,,,2,,,74,108
6720,note_off,,,,,48,0,3,,,,,2,,,72,0
6768,note_off,,,,,0,0,3,,,,,2,,,74,0
6768,note_off,,,,,48,0,1,,,,,0,,,72,0
6768,note_on,,,,,0,0,3,,,,,2,,,74,108
6768,note_on,,,,,0,0,3,,,,,2,,,72,108
6768,note_on,,,,,0,0,1,,,,,0,,,72,92
6768,note_on,,,,,0,0,1,,,,,0,,,74,92
6768,note_off,,,,,0,0,1,,,,,0,,,74,0
6768,note_off,,,,,48,0,3,,,,,2,,,72,0
6816,note_off,,,,,0,0,3,,,,,2,,,74,0
6816,note_off,,,,,48,0,3,,,,,2,,,72,0
6816,note_off,,,,,288,0,8,,,,,7,,,60,0
6816,note_off,,,,,288,0,7,,,,,6,,,48,0
6816,note_on,,,,,0,0,7,,,,,6,,,47,75
6816,note_on,,,,,0,0,3,,,,,2,,,72,108
6816,note_on,,,,,0,0,3,,,,,2,,,74,108
6816,note_off,,,,,288,0,6,,,,,5,,,60,0
6816,note_on,,,,,0,0,6,,,,,5,,,59,92
6816,note_off,,,,,48,0,1,,,,,0,,,72,0
6816,note_off,,,,,0,0,1,,,,,0,,,74,0
6816,note_off,,,,,288,0,4,,,,,3,,,69,0
6816,note_on,,,,,0,0,2,,,,,1,,,71,92
6816,note_off,,,,,288,0,2,,,,,1,,,69,0
6816,note_on,,,,,0,0,4,,,,,3,,,71,108
6816,note_on,,,,,0,0,1,,,,,0,,,72,92
6816,note_on,,,,,0,0,8,,,,,7,,,59,60
6816,note_on,,,,,0,0,1,,,,,0,,,74,92
6912,note_off,,,,,0,0,1,,,,,0,,,74,0
6912,note_off,,,,,96,0,4,,,,,3,,,71,0
6912,note_on,,,,,0,0,1,,,,,0,,,72,92
6912,note_on,,,,,0,0,3,,,,,2,,,72,108
6912,note_on,,,,,0,0,5,,,,,4,,,69,92
6912,note_off,,,,,0,0,3,,,,,2,,,74,0
6912,note_off,,,,,96,0,3,,,,,2,,,72,0
6912,note_off,,,,,96,0,2,,,,,1,,,71,0
6912,note_off,,,,,384,0,5,,,,,4,,,64,0
6912,note_on,,,,,0,0,7,,,,,6,,,45,75
6912,note_off,,,,,96,0,7,,,,,6,,,47,0
6912,note_on,,,,,0,0,8,,,,,7,,,57,60
6912,note_off,,,,,96,0,8,,,,,7,,,59,0
6912,note_off,,,,,96,0,6,,,,,5,,,59,0
6912,note_on,,,,,0,0,6,,,,,5,,,57,92
6912,note_on,,,,,0,0,4,,,,,3,,,72,108
6912,note_on,,,,,0,0,2,,,,,1,,,72,92
6912,note_off,,,,,96,0,1,,,,,0,,,72,0
7104,note_off,,,,,192,0,3,,,,,2,,,72,0
7104,note_on,,,,,0,0,3,,,,,2,,,76,108
7104,note_off,,,,,192,0,1,,,,,0,,,72,0
7104,note_on,,,,,0,0,1,,,,,0,,,76,92
7200,note_on,,,,,0,0,3,,,,,2,,,74,108
7200,note_off,,,,,96,0,1,,,,,0,,,76,0
7200,note_on,,,,,0,0,1,,,,,0,,,74,92
7200,note_off,,,,,96,0,3,,,,,2,,,76,0
7296,note_on,,,,,0,0,3,,,,,2,,,72,108
7296,note_off,,,,,384,0,8,,,,,7,,,57,0
7296,note_off,,,,,96,0,3,,,,,2,,,74,0
7296,note_off,,,,,384,0,7,,,,,6,,,45,0
7296,note_off,,,,,384,0,6,,,,,5,,,57,0
7296,note_on,,,,,0,0,1,,,,,0,,,72,92
7296,note_off,,,,,96,0,1,,,,,0,,,74,0
7296,note_off,,,,,384,0,4,,,,,3,,,72,0
7296,note_off,,,,,384,0,5,,,,,4,,,69,0
7392,note_off,,,,,96,0,1,,,,,0,,,72,0
7392,note_on,,,,,0,0,1,,,,,0,,,71,92
7392,note_on,,,,,0,0,3,,,,,2,,,71,108
7392,note_off,,,,,96,0,3,,,,,2,,,72,0
7488,note_on,,,,,0,0,1,,,,,0,,,69,92
7488,note_off,,,,,96,0,1,,,,,0,,,71,0
7488,note_on,,,,,0,0,3,,,,,2,,,69,108
7488,note_off,,,,,96,0,3,,,,,2,,,71,0
7680,note_off,,,,,192,0,1,,,,,0,,,69,0
7680,note_on,,,,,384,0,6,,,,,5,,,50,92
7680,note_on,,,,,384,0,8,,,,,7,,,50,60
7680,note_on,,,,,384,0,4,,,,,3,,,69,108
7680,note_on,,,,,0,0,1,,,,,0,,,78,92
7680,note_on,,,,,384,0,5,,,,,4,,,69,92
7680,note_on,,,,,384,0,7,,,,,6,,,38,75
7680,note_off,,,,,192,0,3,,,,,2,,,69,0
7680,note_on,,,,,0,0,3,,,,,2,,,78,108
7968,note_off,,,,,288,0,1,,,,,0,,,78,0
7968,note_on,,,,,0,0,1,,,,,0,,,74,92
7968,note_on,,,,,0,0,3,,,,,2,,,74,108
7968,note_off,,,,,288,0,3,,,,,2,,,78,0
8064,note_off,,,,,384,0,7,,,,,6,,,38,0
8064,note_on,,,,,0,0,3,,,,,2,,,81,108
8064,note_off,,,,,96,0,3,,,,,2,,,74,0
8064,note_off,,,,,384,0,5,,,,,4,,,69,0
8064,note_on,,,,,0,0,5,,,,,4,,,69,92
8064,note_off,,,,,384,0,8,,,,,7,,,50,0
8064,note_on,,,,,0,0,8,,,,,7,,,54,60
8064,note_on,,,,,0,0,6,,,,,5,,,54,92
8064,note_off,,,,,384,0,4,,,,,3,,,69,0
8064,note_off,,,,,384,0,6,,,,,5,,,50,0
8064,note_on,,,,,0,0,7,,,,,6,,,42,75
8064,note_on,,,,,0,0,1,,,,,0,,,81,92
8064,note_off,,,,,96,0,1,,,,,0,,,74,0
8064,note_on,,,,,0,0,4,,,,,3,,,62,108
8352,note_off,,,,,288,0,6,,,,,5,,,54,0
8352,note_on,,,,,0,0,4,,,,,3,,,64,108
8352,note_on,,,,,0,0,8,,,,,7,,,52,60
8352,note_off,,,,,288,0,8,,,,,7,,,54,0
8352,note_off,,,,,288,0,7,,,,,6,,,42,0
8352,note_off,,,,,288,0,4,,,,,3,,,62,0
8352,note_on,,,,,0,0,7,,,,,6,,,40,75
8352,note_on,,,,,0,0,6,,,,,5,,,52,92
8352,note_off,,,,,288,0,5,,,,,4,,,69,0
8352,note_on,,,,,0,0,5,,,,,4,,,67,92
8448,note_off,,,,,96,0,7,,,,,6,,,40,0
8448,note_on,,,,,0,0,7,,,,,6,,,38,75
8448,note_on,,,,,0,0,8,,,,,7,,,50,60
8448,note_off,,,,,96,0,8,,,,,7,,,52,0
8448,note_off,,,,,1536,0,2,,,,,1,,,72,0
8448,note_on,,,,,0,0,6,,,,,5,,,50,92
8448,note_on,,,,,0,0,5,,,,,4,,,66,92
8448,note_off,,,,,96,0,5,,,,,4,,,67,0
8448,note_off,,,,,96,0,6,,,,,5,,,52,0
8448,note_on,,,,,0,0,4,,,,,3,,,66,108
8448,note_off,,,,,96,0,4,,,,,3,,,64,0
8544,note_on,,,,,0,0,3,,,,,2,,,79,108
8544,note_off,,,,,480,0,3,,,,,2,,,81,0
8544,note_off,,,,,480,0,1,,,,,0,,,81,0
8544,note_on,,,,,0,0,1,,,,,0,,,79,92
8640,note_off,,,,,96,0,1,,,,,0,,,79,0
8640,note_on,,,,,0,0,1,,,,,0,,,78,92
8640,note_off,,,,,96,0,3,,,,,2,,,79,0
8640,note_on,,,,,0,0,3,,,,,2,,,78,108
8640,note_on,,,,,192,0,2,,,,,1,,,72,92
8832,note_off,,,,,192,0,3,,,,,2,,,78,0
8832,note_on,,,,,0,0,3,,,,,2,,,76,108
8832,note_on,,,,,0,0,2,,,,,1,,,72,92
8832,note_on,,,,,0,0,7,,,,,6,,,42,75
8832,note_off,,,,,192,0,1,,,,,0,,,78,0
8832,note_on,,,,,0,0,1,,,,,0,,,76,92
8832,note_on,,,,,0,0,8,,,,,7,,,54,60
8832,note_off,,,,,384,0,8,,,,,7,,,50,0
8832,note_off,,,,,384,0,6,,,,,5,,,50,0
8832,note_on,,,,,0,0,6,,,,,5,,,54,92
8832,note_on,,,,,0,0,5,,,,,4,,,66,92
8832,note_off,,,,,384,0,5,,,,,4,,,66,0
8832,note_on,,,,,0,0,4,,,,,3,,,69,108
8832,note_off,,,,,384,0,4,,,,,3,,,66,0
8832,note_off,,,,,192,0,2,,,,,1,,,72,0
8832,note_off,,,,,384,0,7,,,,,6,,,38,0
8928,note_off,,,,,96,0,3,,,,,2,,,76,0
8928,note_off,,,,,96,0,1,,,,,0,,,76,0
8928,note_on,,,,,0,0,1,,,,,0,,,74,92
8928,note_on,,,,,0,0,2,,,,,1,,,71,92
8928,note_off,,,,,96,0,2,,,,,1,,,72,0
8928,note_on,,,,,0,0,3,,,,,2,,,74,108
9024,note_off,,,,,96,0,3,,,,,2,,,74,0
9024,note_on,,,,,0,0,3,,,,,2,,,72,108
9024,note_off,,,,,96,0,1,,,,,0,,,74,0
9024,note_on,,,,,0,0,2,,,,,1,,,69,92
9024,note_off,,,,,96,0,2,,,,,1,,,71,0
9024,note_on,,,,,0,0,1,,,,,0,,,72,92
9216,note_off,,,,,192,0,1,,,,,0,,,72,0
9216,note_on,,,,,0,0,1,,,,,0,,,71,92
9216,note_on,,,,,0,0,4,,,,,3,,,67,108
9216,note_on,,,,,0,0,5,,,,,4,,,62,92
9216,note_off,,,,,384,0,8,,,,,7,,,54,0
9216,note_off,,,,,384,0,5,,,,,4,,,66,0
9216,note_on,,,,,0,0,6,,,,,5,,,55,92
9216,note_off,,,,,384,0,6,,,,,5,,,54,0
9216,note_off,,,,,384,0,7,,,,,6,,,42,0
9216,note_on,,,,,0,0,7,,,,,6,,,43,75
9216,note_off,,,,,192,0,3,,,,,2,,,72,0
9216,note_off,,,,,384,0,4,,,,,3,,,69,0
9216,note_on,,,,,0,0,8,,,,,7,,,55,60
9216,note_on,,,,,0,0,3,,,,,2,,,71,108
9216,note_off,,,,,192,0,2,,,,,1,,,69,0
9216,note_on,,,,,0,0,2,,,,,1,,,71,92
9600,note_on,,,,,0,0,8,,,,,7,,,64,60
9600,note_on,,,,,0,0,1,,,,,0,,,79,92
9600,note_off,,,,,384,0,1,,,,,0,,,71,0
9600,note_off,,,,,384,0,8,,,,,7,,,55,0
9600,note_off,,,,,384,0,2,,,,,1,,,71,0
9600,note_off,,,,,384,0,5,,,,,4,,,62,0
9600,note_off,,,,,384,0,7,,,,,6,,,43,0
9600,note_on,,,,,0,0,7,,,,,6,,,52,75
9600,note_off,,,,,384,0,3,,,,,2,,,71,0
9600,note_off,,,,,384,0,4,,,,,3,,,67,0
9600,note_off,,,,,384,0,6,,,,,5,,,55,0
9600,note_on,,,,,0,0,6,,,,,5,,,64,92
9792,note_off,,,,,192,0,1,,,,,0,,,79,0
9792,note_on,,,,,0,0,1,,,,,0,,,71,92
9984,note_on,,,,,0,0,8,,,,,7,,,60,60
9984,note_off,,,,,384,0,8,,,,,7,,,64,0
9984,note_on,,,,,0,0,6,,,,,5,,,60,92
9984,note_on,,,,,0,0,1,,,,,0,,,71,92
9984,note_off,,,,,192,0,1,,,,,0,,,71,0
9984,note_off,,,,,384,0,6,,,,,5,,,64,0
9984,note_on,,,,,0,0,7,,,,,6,,,48,75
9984,note_off,,,,,384,0,7,,,,,6,,,52,0
10176,note_on,,,,,0,0,1,,,,,0,,,69,92
10176,note_off,,,,,192,0,1,,,,,0,,,71,0
10368,note_on,,,,,0,0,6,,,,,5,,,62,92
10368,note_off,,,,,384,0,8,,,,,7,,,60,0
10368,note_on,,,,,0,0,7,,,,,6,,,50,75
10368,note_off,,,,,384,0,6,,,,,5,,,60,0
10368,note_off,,,,,192,0,1,,,,,0,,,69,0
10368,note_on,,,,,0,0,1,,,,,0,,,72,92
10368,note_off,,,,,384,0,7,,,,,6,,,48,0
10368,note_on,,,,,0,0,8,,,,,7,,,62,60
10560,note_off,,,,,192,0,1,,,,,0,,,72,0
10560,note_on,,,,,0,0,1,,,,,0,,,71,92
10752,note_off,,,,,192,0,1,,,,,0,,,71,0
10752,note_on,,,,,0,0,1,,,,,0,,,71,92
10752,note_on,,,,,0,0,8,,,,,7,,,55,60
10752,note_off,,,,,384,0,6,,,,,5,,,62,0
10752,note_on,,,,,0,0,6,,,,,5,,,55,92
10752,note_off,,,,,384,0,8,,,,,7,,,62,0
10752,note_on,,,,,0,0,7,,,,,6,,,43,75
10752,note_off,,,,,384,0,7,,,,,6,,,50,0
11136,note_on,,,,,1536,0,2,,,,,1,,,79,92
11136,note_off,,,,,384,0,6,,,,,5,,,55,0
11136,note_on,,,,,0,0,6,,,,,5,,,59,92
11136,note_on,,,,,0,0,7,,,,,6,,,47,75
11136,note_off,,,,,384,0,7,,,,,6,,,43,0
11136,note_on,,,,,0,0,8,,,,,7,,,59,60
11136,note_off,,,,,384,0,8,,,,,7,,,55,0
11328,note_on,,,,,0,0,2,,,,,1,,,71,92
11328,note_off,,,,,192,0,2,,,,,1,,,79,0
11328,note_off,,,,,576,0,1,,,,,0,,,71,0
11328,note_on,,,,,0,0,1,,,,,0,,,67,92
11520,note_off,,,,,192,0,2,,,,,1,,,71,0
11520,note_off,,,,,384,0,7,,,,,6,,,47,0
11520,note_on,,,,,0,0,7,,,,,6,,,48,75
11520,note_off,,,,,384,0,8,,,,,7,,,59,0
11520,note_on,,,,,0,0,8,,,,,7,,,60,60
11520,note_on,,,,,0,0,2,,,,,1,,,71,92
11520,note_on,,,,,0,0,1,,,,,0,,,67,92
11520,note_off,,,,,192,0,1,,,,,0,,,67,0
11520,note_off,,,,,384,0,6,,,,,5,,,59,0
11520,note_on,,,,,0,0,6,,,,,5,,,60,92
11712,note_on,,,,,0,0,2,,,,,1,,,69,92
11712,note_off,,,,,192,0,2,,,,,1,,,71,0
11904,note_on,,,,,0,0,8,,,,,7,,,62,60
11904,note_on,,,,,0,0,7,,,,,6,,,50,75
11904,note_off,,,,,384,0,7,,,,,6,,,48,0
11904,note_off,,,,,384,0,1,,,,,0,,,67,0
11904,note_on,,,,,0,0,1,,,,,0,,,66,92
11904,note_off,,,,,384,0,6,,,,,5,,,60,0
11904,note_on,,,,,0,0,6,,,,,5,,,62,92
11904,note_off,,,,,384,0,8,,,,,7,,,60,0
11904,note_on,,,,,0,0,2,,,,,1,,,72,92
11904,note_off,,,,,192,0,2,,,,,1,,,69,0
12096,note_on,,,,,0,0,2,,,,,1,,,71,92
12096,note_off,,,,,192,0,2,,,,,1,,,72,0
12288,note_off,,,,,384,0,7,,,,,6,,,50,0
12288,note_off,,,,,192,0,2,,,,,1,,,71,0
12288,note_on,,,,,0,0,2,,,,,1,,,71,92
12288,note_off,,,,,384,0,8,,,,,7,,,62,0
12288,note_on,,,,,0,0,6,,,,,5,,,67,92
12288,note_off,,,,,384,0,6,,,,,5,,,62,0
12288,note_on,,,,,0,0,8,,,,,7,,,67,60
12288,note_on,,,,,0,0,1,,,,,0,,,67,92
12288,note_off,,,,,384,0,1,,,,,0,,,66,0
12288,note_on,,,,,0,0,7,,,,,6,,,55,75
12672,note_off,,,,,384,0,1,,,,,0,,,67,0
12672,note_off,,,,,384,0,8,,,,,7,,,67,0
12672,note_on,,,,,0,0,1,,,,,0,,,79,92
12672,note_on,,,,,0,0,6,,,,,5,,,64,92
12672,note_off,,,,,384,0,7,,,,,6,,,55,0
12672,note_on,,,,,0,0,7,,,,,6,,,52,75
12672,note_on,,,,,0,0,8,,,,,7,,,64,60
12672,note_off,,,,,384,0,6,,,,,5,,,67,0
12864,note_off,,,,,576,0,2,,,,,1,,,71,0
12864,note_off,,,,,192,0,1,,,,,0,,,79,0
12864,note_on,,,,,0,0,2,,,,,1,,,67,92
12864,note_on,,,,,0,0,1,,,,,0,,,71,92
13056,note_off,,,,,192,0,1,,,,,0,,,71,0
13056,note_on,,,,,0,0,2,,,,,1,,,67,92
13056,note_off,,,,,192,0,2,,,,,1,,,67,0
13056,note_off,,,,,384,0,8,,,,,7,,,64,0
13056,note_on,,,,,0,0,8,,,,,7,,,60,60
13056,note_off,,,,,384,0,6,,,,,5,,,64,0
13056,note_on,,,,,0,0,6,,,,,5,,,60,92
13056,note_on,,,,,0,0,7,,,,,6,,,48,75
13056,note_off,,,,,384,0,7,,,,,6,,,52,0
13056,note_on,,,,,0,0,1,,,,,0,,,71,92
13248,note_off,,,,,192,0,1,,,,,0,,,71,0
13248,note_on,,,,,0,0,1,,,,,0,,,69,92
13440,note_off,,,,,384,0,7,,,,,6,,,48,0
13440,note_off,,,,,384,0,2,,,,,1,,,67,0
13440,note_on,,,,,0,0,2,,,,,1,,,66,92
13440,note_on,,,,,0,0,7,,,,,6,,,50,75
13440,note_off,,,,,192,0,1,,,,,0,,,69,0
13440,note_off,,,,,384,0,6,,,,,5,,,60,0
13440,note_on,,,,,0,0,6,,,,,5,,,62,92
13440,note_on,,,,,0,0,8,,,,,7,,,62,60
13440,note_off,,,,,384,0,8,,,,,7,,,60,0
13440,note_on,,,,,0,0,1,,,,,0,,,72,92
13632,note_on,,,,,0,0,1,,,,,0,,,71,92
13632,note_off,,,,,192,0,1,,,,,0,,,72,0
13824,note_off,,,,,384,0,6,,,,,5,,,62,0
13824,note_on,,,,,0,0,6,,,,,5,,,55,92
13824,note_on,,,,,0,0,8,,,,,7,,,55,60
13824,note_off,,,,,384,0,8,,,,,7,,,62,0
13824,note_off,,,,,384,0,7,,,,,6,,,50,0
13824,note_on,,,,,0,0,7,,,,,6,,,43,75
13824,note_on,,,,,0,0,1,,,,,0,,,71,92
13824,note_off,,,,,384,0,2,,,,,1,,,66,0
13824,note_on,,,,,0,0,2,,,,,1,,,67,92
13824,note_off,,,,,192,0,1,,,,,0,,,71,0
14208,note_on,,,,,0,0,2,,,,,1,,,71,92
14208,note_off,,,,,384,0,2,,,,,1,,,67,0
14208,note_on,,,,,0,0,1,,,,,0,,,74,92
14208,note_off,,,,,384,0,1,,,,,0,,,71,0
14208,note_off,,,,,384,0,6,,,,,5,,,55,0
14208,note_off,,,,,384,0,7,,,,,6,,,43,0
14208,note_off,,,,,384,0,8,,,,,7,,,55,0
14400,note_on,,,,,0,0,1,,,,,0,,,72,92
14400,note_off,,,,,192,0,1,,,,,0,,,74,0
14400,note_on,,,,,0,0,2,,,,,1,,,69,92
14400,note_off,,,,,192,0,2,,,,,1,,,71,0
14592,note_off,,,,,192,0,2,,,,,1,,,69,0
14592,note_on,,,,,0,0,2,,,,,1,,,69,92
14592,note_off,,,,,192,0,1,,,,,0,,,72,0
14592,note_on,,,,,0,0,1,,,,,0,,,72,92
14976,note_off,,,,,384,0,1,,,,,0,,,72,0
14976,note_on,,,,,0,0,1,,,,,0,,,76,92
14976,note_off,,,,,384,0,2,,,,,1,,,69,0
14976,note_on,,,,,0,0,2,,,,,1,,,72,92
15168,note_on,,,,,0,0,2,,,,,1,,,71,92
15168,note_on,,,,,0,0,1,,,,,0,,,74,92
15168,note_off,,,,,192,0,1,,,,,0,,,76,0
15168,note_off,,,,,192,0,2,,,,,1,,,72,0
15360,note_on,,,,,5760,0,4,,,,,3,,,71,108
15360,note_on,,,,,5760,0,3,,,,,2,,,74,108
15360,note_on,,,,,0,0,2,,,,,1,,,71,92
15360,note_off,,,,,192,0,2,,,,,1,,,71,0
15360,note_on,,,,,1152,0,6,,,,,5,,,55,92
15360,note_on,,,,,1152,0,7,,,,,6,,,43,75
15360,note_off,,,,,192,0,1,,,,,0,,,74,0
15360,note_on,,,,,5760,0,5,,,,,4,,,67,92
15360,note_on,,,,,1152,0,8,,,,,7,,,55,60
15360,note_on,,,,,0,0,1,,,,,0,,,74,92
15744,note_off,,,,,384,0,5,,,,,4,,,67,0
15744,note_on,,,,,0,0,4,,,,,3,,,59,108
15744,note_off,,,,,384,0,4,,,,,3,,,71,0
15744,note_on,,,,,0,0,3,,,,,2,,,59,108
15744,note_off,,,,,384,0,3,,,,,2,,,74,0
15744,note_on,,,,,0,0,7,,,,,6,,,47,75
15744,note_on,,,,,0,0,6,,,,,5,,,59,92
15744,note_off,,,,,384,0,8,,,,,7,,,55,0
15744,note_off,,,,,384,0,7,,,,,6,,,43,0
15744,note_on,,,,,0,0,8,,,,,7,,,59,60
15744,note_off,,,,,384,0,6,,,,,5,,,55,0
15744,note_on,,,,,0,0,5,,,,,4,,,62,92
16032,note_off,,,,,288,0,3,,,,,2,,,59,0
16032,note_on,,,,,0,0,3,,,,,2,,,57,108
16032,note_on,,,,,0,0,6,,,,,5,,,57,92
16032,note_on,,,,,0,0,7,,,,,6,,,45,75
16032,note_off,,,,,288,0,8,,,,,7,,,59,0
16032,note_off,,,,,288,0,4,,,,,3,,,59,0
16032,note_off,,,,,288,0,6,,,,,5,,,59,0
16032,note_on,,,,,0,0,5,,,,,4,,,60,92
16032,note_on,,,,,0,0,8,,,,,7,,,57,60
16032,note_on,,,,,0,0,4,,,,,3,,,57,108
16032,note_off,,,,,288,0,7,,,,,6,,,47,0
16032,note_off,,,,,288,0,5,,,,,4,,,62,0
16128,note_off,,,,,96,0,6,,,,,5,,,57,0
16128,note_on,,,,,0,0,6,,,,,5,,,55,92
16128,note_off,,,,,768,0,1,,,,,0,,,74,0
16128,note_off,,,,,96,0,8,,,,,7,,,57,0
16128,note_off,,,,,96,0,4,,,,,3,,,57,0
16128,note_on,,,,,0,0,7,,,,,6,,,43,75
16128,note_off,,,,,96,0,5,,,,,4,,,60,0
16128,note_off,,,,,96,0,3,,,,,2,,,57,0
16128,note_on,,,,,0,0,3,,,,,2,,,55,108
16128,note_on,,,,,0,0,4,,,,,3,,,55,108
16128,note_off,,,,,96,0,7,,,,,6,,,45,0
16128,note_on,,,,,0,0,5,,,,,4,,,59,92
16128,note_on,,,,,0,0,8,,,,,7,,,55,60
16128,note_off,,,,,768,0,2,,,,,1,,,71,0
16320,note_on,,,,,192,0,1,,,,,0,,,62,92
16320,note_on,,,,,192,0,2,,,,,1,,,62,92
16416,note_off,,,,,96,0,1,,,,,0,,,62,0
16416,note_on,,,,,0,0,1,,,,,0,,,60,92
16416,note_off,,,,,96,0,2,,,,,1,,,62,0
16416,note_on,,,,,0,0,2,,,,,1,,,60,92
16512,note_off,,,,,384,0,8,,,,,7,,,55,0
16512,note_on,,,,,0,0,1,,,,,0,,,59,92
16512,note_off,,,,,96,0,2,,,,,1,,,60,0
16512,note_on,,,,,0,0,2,,,,,1,,,59,92
16512,note_off,,,,,384,0,3,,,,,2,,,55,0
16512,note_off,,,,,384,0,5,,,,,4,,,59,0
16512,note_off,,,,,384,0,4,,,,,3,,,55,0
16512,note_off,,,,,384,0,6,,,,,5,,,55,0
16512,note_off,,,,,384,0,7,,,,,6,,,43,0
16512,note_off,,,,,96,0,1,,,,,0,,,60,0
16608,note_off,,,,,96,0,1,,,,,0,,,59,0
16608,note_off,,,,,96,0,2,,,,,1,,,59,0
16608,note_on,,,,,0,0,2,,,,,1,,,57,92
16608,note_on,,,,,0,0,1,,,,,0,,,57,92
16704,note_on,,,,,0,0,2,,,,,1,,,55,92
16704,note_off,,,,,96,0,1,,,,,0,,,57,0
16704,note_on,,,,,0,0,1,,,,,0,,,55,92
16704,note_off,,,,,96,0,2,,,,,1,,,57,0
16896,note_on,,,,,384,0,7,,,,,6,,,43,75
16896,note_on,,,,,0,0,2,,,,,1,,,74,92
16896,note_on,,,,,384,0,8,,,,,7,,,55,60
16896,note_off,,,,,192,0,2,,,,,1,,,55,0
16896,note_on,,,,,384,0,4,,,,,3,,,74,108
16896,note_on,,,,,0,0,1,,,,,0,,,79,92
16896,note_on,,,,,384,0,3,,,,,2,,,79,108
16896,note_on,,,,,384,0,5,,,,,4,,,71,92
16896,note_on,,,,,384,0,6,,,,,5,,,55,92
16896,note_off,,,,,192,0,1,,,,,0,,,55,0
17280,note_off,,,,,384,0,1,,,,,0,,,79,0
17280,note_off,,,,,384,0,2,,,,,1,,,74,0
17280,note_on,,,,,0,0,7,,,,,6,,,47,75
17280,note_off,,,,,384,0,7,,,,,6,,,43,0
17280,note_on,,,,,0,0,6,,,,,5,,,59,92
17280,note_off,,,,,384,0,6,,,,,5,,,55,0
17280,note_off,,,,,384,0,8,,,,,7,,,55,0
17280,note_off,,,,,384,0,3,,,,,2,,,79,0
17280,note_on,,,,,0,0,3,,,,,2,,,59,108
17280,note_off,,,,,384,0,4,,,,,3,,,74,0
17280,note_on,,,,,0,0,4,,,,,3,,,59,108
17280,note_on,,,,,0,0,5,,,,,4,,,62,92
17280,note_off,,,,,384,0,5,,,,,4,,,71,0
17280,note_on,,,,,0,0,8,,,,,7,,,59,60
17568,note_on,,,,,0,0,5,,,,,4,,,60,92
17568,note_off,,,,,288,0,5,,,,,4,,,62,0
17568,note_off,,,,,288,0,6,,,,,5,,,59,0
17568,note_on,,,,,0,0,6,,,,,5,,,57,92
17568,note_on,,,,,0,0,7,,,,,6,,,45,75
17568,note_off,,,,,288,0,7,,,,,6,,,47,0
17568,note_on,,,,,0,0,8,,,,,7,,,57,60
17568,note_on,,,,,0,0,3,,,,,2,,,57,108
17568,note_off,,,,,288,0,3,,,,,2,,,59,0
17568,note_off,,,,,288,0,4,,,,,3,,,59,0
17568,note_on,,,,,0,0,4,,,,,3,,,57,108
17568,note_off,,,,,288,0,8,,,,,7,,,59,0
17664,note_off,,,,,96,0,5,,,,,4,,,60,0
17664,note_on,,,,,0,0,5,,,,,4,,,59,92
17664,note_on,,,,,0,0,7,,,,,6,,,43,75
17664,note_off,,,,,96,0,3,,,,,2,,,57,0
17664,note_off,,,,,96,0,6,,,,,5,,,57,0
17664,note_on,,,,,0,0,6,,,,,5,,,55,92
17664,note_off,,,,,96,0,7,,,,,6,,,45,0
17664,note_on,,,,,0,0,4,,,,,3,,,55,108
17664,note_on,,,,,0,0,3,,,,,2,,,55,108
17664,note_on,,,,,0,0,8,,,,,7,,,55,60
17664,note_off,,,,,96,0,8,,,,,7,,,57,0
17664,note_off,,,,,96,0,4,,,,,3,,,57,0
17856,note_on,,,,,576,0,2,,,,,1,,,74,92
17856,note_on,,,,,576,0,1,,,,,0,,,74,92
17952,note_off,,,,,96,0,1,,,,,0,,,74,0
17952,note_on,,,,,0,0,1,,,,,0,,,72,92
17952,note_on,,,,,0,0,2,,,,,1,,,72,92
17952,note_off,,,,,96,0,2,,,,,1,,,74,0
18048,note_on,,,,,0,0,2,,,,,1,,,71,92
18048,note_off,,,,,384,0,8,,,,,7,,,55,0
18048,note_off,,,,,96,0,2,,,,,1,,,72,0
18048,note_on,,,,,0,0,1,,,,,0,,,71,92
18048,note_off,,,,,384,0,4,,,,,3,,,55,0
18048,note_off,,,,,384,0,3,,,,,2,,,55,0
18048,note_off,,,,,384,0,6,,,,,5,,,55,0
18048,note_off,,,,,96,0,1,,,,,0,,,72,0
18048,note_off,,,,,384,0,7,,,,,6,,,43,0
18048,note_off,,,,,384,0,5,,,,,4,,,59,0
18144,note_off,,,,,96,0,2,,,,,1,,,71,0
18144,note_on,,,,,0,0,2,,,,,1,,,69,92
18144,note_off,,,,,96,0,1,,,,,0,,,71,0
18144,note_on,,,,,0,0,1,,,,,0,,,69,92
18240,note_on,,,,,0,0,1,,,,,0,,,67,92
18240,note_off,,,,,96,0,2,,,,,1,,,69,0
18240,note_off,,,,,96,0,1,,,,,0,,,69,0
18240,note_on,,,,,0,0,2,,,,,1,,,67,92
18432,note_on,,,,,0,0,1,,,,,0,,,83,92
18432,note_on,,,,,384,0,8,,,,,7,,,49,60
18432,note_off,,,,,192,0,2,,,,,1,,,67,0
18432,note_on,,,,,0,0,2,,,,,1,,,79,92
18432,note_on,,,,,384,0,7,,,,,6,,,37,75
18432,note_on,,,,,384,0,4,,,,,3,,,67,108
18432,note_on,,,,,384,0,3,,,,,2,,,71,108
18432,note_off,,,,,192,0,1,,,,,0,,,67,0
18432,note_on,,,,,384,0,6,,,,,5,,,49,92
18432,note_on,,,,,384,0,5,,,,,4,,,76,92
18816,note_on,,,,,0,0,8,,,,,7,,,52,60
18816,note_on,,,,,0,0,6,,,,,5,,,52,92
18816,note_off,,,,,384,0,6,,,,,5,,,49,0
18816,note_on,,,,,0,0,7,,,,,6,,,40,75
18816,note_off,,,,,384,0,7,,,,,6,,,37,0
18816,note_off,,,,,384,0,8,,,,,7,,,49,0
19104,note_off,,,,,288,0,6,,,,,5,,,52,0
19104,note_on,,,,,0,0,6,,,,,5,,,50,92
19104,note_off,,,,,288,0,7,,,,,6,,,40,0
19104,note_on,,,,,0,0,7,,,,,6,,,38,75
19104,note_on,,,,,0,0,8,,,,,7,,,50,60
19104,note_off,,,,,288,0,8,,,,,7,,,52,0
19200,note_off,,,,,96,0,6,,,,,5,,,50,0
19200,note_on,,,,,0,0,6,,,,,5,,,49,92
19200,note_on,,,,,0,0,7,,,,,6,,,37,75
19200,note_off,,,,,96,0,7,,,,,6,,,38,0
19200,note_off,,,,,96,0,8,,,,,7,,,50,0
19200,note_on,,,,,0,0,8,,,,,7,,,49,60
19392,note_off,,,,,960,0,1,,,,,0,,,83,0
19392,note_off,,,,,960,0,3,,,,,2,,,71,0
19488,note_on,,,,,96,0,3,,,,,2,,,83,108
19488,note_on,,,,,96,0,1,,,,,0,,,83,92
19584,note_on,,,,,0,0,4,,,,,3,,,79,108
19584,note_off,,,,,1152,0,4,,,,,3,,,67,0
19584,note_off,,,,,1152,0,5,,,,,4,,,76,0
19584,note_off,,,,,384,0,6,,,,,5,,,49,0
19584,note_off,,,,,96,0,3,,,,,2,,,83,0
19584,note_on,,,,,0,0,3,,,,,2,,,83,108
19584,note_off,,,,,96,0,1,,,,,0,,,83,0
19584,note_on,,,,,0,0,1,,,,,0,,,83,92
19584,note_off,,,,,384,0,8,,,,,7,,,49,0
19584,note_off,,,,,384,0,7,,,,,6,,,37,0
19584,note_off,,,,,1152,0,2,,,,,1,,,79,0
19584,note_on,,,,,0,0,2,,,,,1,,,79,92
19584,note_on,,,,,0,0,5,,,,,4,,,64,92
19776,note_on,,,,,0,0,3,,,,,2,,,81,108
19776,note_off,,,,,192,0,3,,,,,2,,,83,0
19776,note_off,,,,,192,0,1,,,,,0,,,83,0
19776,note_on,,,,,0,0,1,,,,,0,,,81,92
19968,note_off,,,,,192,0,1,,,,,0,,,81,0
19968,note_on,,,,,0,0,1,,,,,0,,,81,92
19968,note_on,,,,,0,0,5,,,,,4,,,69,92
19968,note_off,,,,,384,0,4,,,,,3,,,79,0
19968,note_on,,,,,384,0,6,,,,,5,,,50,92
19968,note_off,,,,,192,0,3,,,,,2,,,81,0
19968,note_on,,,,,0,0,3,,,,,2,,,81,108
19968,note_on,,,,,384,0,8,,,,,7,,,50,60
19968,note_on,,,,,384,0,7,,,,,6,,,38,75
19968,note_off,,,,,384,0,2,,,,,1,,,79,0
19968,note_on,,,,,0,0,2,,,,,1,,,78,92
19968,note_on,,,,,0,0,4,,,,,3,,,78,108
19968,note_off,,,,,384,0,5,,,,,4,,,64,0
20352,note_on,,,,,0,0,6,,,,,5,,,59,92
20352,note_off,,,,,384,0,6,,,,,5,,,50,0
20352,note_off,,,,,384,0,1,,,,,0,,,81,0
20352,note_on,,,,,0,0,1,,,,,0,,,86,92
20352,note_off,,,,,384,0,4,,,,,3,,,78,0
20352,note_off,,,,,384,0,5,,,,,4,,,69,0
20352,note_off,,,,,384,0,8,,,,,7,,,50,0
20352,note_off,,,,,384,0,3,,,,,2,,,81,0
20352,note_on,,,,,0,0,7,,,,,6,,,47,75
20352,note_off,,,,,384,0,7,,,,,6,,,38,0
20352,note_on,,,,,0,0,8,,,,,7,,,59,60
20352,note_off,,,,,384,0,2,,,,,1,,,78,0
20544,note_off,,,,,192,0,1,,,,,0,,,86,0
20544,note_on,,,,,0,0,1,,,,,0,,,78,92
20736,note_off,,,,,384,0,8,,,,,7,,,59,0
20736,note_on,,,,,0,0,7,,,,,6,,,43,75
20736,note_off,,,,,384,0,7,,,,,6,,,47,0
20736,note_off,,,,,384,0,6,,,,,5,,,59,0
20736,note_on,,,,,0,0,6,,,,,5,,,55,92
20736,note_on,,,,,0,0,8,,,,,7,,,55,60
20736,note_off,,,,,192,0,1,,,,,0,,,78,0
20736,note_on,,,,,0,0,1,,,,,0,,,78,92
20928,note_off,,,,,192,0,1,,,,,0,,,78,0
20928,note_on,,,,,0,0,1,,,,,0,,,76,92
21120,note_off,,,,,384,0,8,,,,,7,,,55,0
21120,note_on,,,,,0,0,8,,,,,7,,,57,60
21120,note_on,,,,,0,0,7,,,,,6,,,45,75
21120,note_off,,,,,192,0,1,,,,,0,,,76,0
21120,note_off,,,,,384,0,7,,,,,6,,,43,0
21120,note_on,,,,,0,0,1,,,,,0,,,79,92
21120,note_off,,,,,384,0,6,,,,,5,,,55,0
21120,note_on,,,,,0,0,6,,,,,5,,,57,92
21312,note_on,,,,,0,0,1,,,,,0,,,78,92
21312,note_off,,,,,192,0,1,,,,,0,,,79,0
21504,note_on,,,,,0,0,1,,,,,0,,,78,92
21504,note_on,,,,,0,0,7,,,,,6,,,38,75
21504,note_off,,,,,384,0,7,,,,,6,,,45,0
21504,note_off,,,,,384,0,6,,,,,5,,,57,0
21504,note_off,,,,,192,0,1,,,,,0,,,78,0
21504,note_on,,,,,0,0,6,,,,,5,,,50,92
21504,note_off,,,,,384,0,8,,,,,7,,,57,0
21504,note_on,,,,,0,0,8,,,,,7,,,50,60
21888,note_on,,,,,0,0,6,,,,,5,,,54,92
21888,note_off,,,,,384,0,8,,,,,7,,,50,0
21888,note_on,,,,,0,0,8,,,,,7,,,54,60
21888,note_on,,,,,1536,0,2,,,,,1,,,86,92
21888,note_off,,,,,384,0,6,,,,,5,,,50,0
21888,note_off,,,,,384,0,7,,,,,6,,,38,0
21888,note_on,,,,,0,0,7,,,,,6,,,42,75
22080,note_off,,,,,576,0,1,,,,,0,,,78,0
22080,note_on,,,,,0,0,2,,,,,1,,,78,92
22080,note_on,,,,,0,0,1,,,,,0,,,74,92
22080,note_off,,,,,192,0,2,,,,,1,,,86,0
22272,note_off,,,,,192,0,2,,,,,1,,,78,0
22272,note_on,,,,,0,0,2,,,,,1,,,78,92
22272,note_off,,,,,384,0,8,,,,,7,,,54,0
22272,note_on,,,,,0,0,8,,,,,7,,,55,60
22272,note_off,,,,,192,0,1,,,,,0,,,74,0
22272,note_off,,,,,384,0,7,,,,,6,,,42,0
22272,note_on,,,,,0,0,6,,,,,5,,,55,92
22272,note_off,,,,,384,0,6,,,,,5,,,54,0
22272,note_on,,,,,0,0,7,,,,,6,,,43,75
22272,note_on,,,,,0,0,1,,,,,0,,,74,92
22464,note_on,,,,,0,0,2,,,,,1,,,76,92
22464,note_off,,,,,192,0,2,,,,,1,,,78,0
22656,note_on,,,,,0,0,7,,,,,6,,,45,75
22656,note_on,,,,,0,0,6,,,,,5,,,57,92
22656,note_on,,,,,0,0,8,,,,,7,,,57,60
22656,note_off,,,,,384,0,8,,,,,7,,,55,0
22656,note_off,,,,,192,0,2,,,,,1,,,76,0
22656,note_on,,,,,0,0,2,,,,,1,,,79,92
22656,note_off,,,,,384,0,6,,,,,5,,,55,0
22656,note_on,,,,,0,0,1,,,,,0,,,73,92
22656,note_off,,,,,384,0,7,,,,,6,,,43,0
22656,note_off,,,,,384,0,1,,,,,0,,,74,0
22848,note_on,,,,,0,0,2,,,,,1,,,78,92
22848,note_off,,,,,192,0,2,,,,,1,,,79,0
23040,note_on,,,,,0,0,8,,,,,7,,,62,60
23040,note_off,,,,,384,0,1,,,,,0,,,73,0
23040,note_on,,,,,0,0,1,,,,,0,,,74,92
23040,note_off,,,,,192,0,2,,,,,1,,,78,0
23040,note_on,,,,,0,0,2,,,,,1,,,78,92
23040,note_on,,,,,0,0,6,,,,,5,,,62,92
23040,note_off,,,,,384,0,8,,,,,7,,,57,0
23040,note_on,,,,,0,0,7,,,,,6,,,50,75
23040,note_off,,,,,384,0,7,,,,,6,,,45,0
23040,note_off,,,,,384,0,6,,,,,5,,,57,0
23424,note_off,,,,,384,0,8,,,,,7,,,62,0
23424,note_off,,,,,384,0,6,,,,,5,,,62,0
23424,note_on,,,,,0,0,6,,,,,5,,,59,92
23424,note_on,,,,,0,0,8,,,,,7,,,59,60
23424,note_on,,,,,0,0,1,,,,,0,,,86,92
23424,note_on,,,,,0,0,7,,,,,6,,,47,75
23424,note_off,,,,,384,0,1,,,,,0,,,74,0
23424,note_off,,,,,384,0,7,,,,,6,,,50,0
23616,note_off,,,,,576,0,2,,,,,1,,,78,0
23616,note_on,,,,,0,0,1,,,,,0,,,78,92
23616,note_on,,,,,0,0,2,,,,,1,,,74,92
23616,note_off,,,,,192,0,1,,,,,0,,,86,0
23808,note_off,,,,,192,0,2,,,,,1,,,74,0
23808,note_off,,,,,384,0,7,,,,,6,,,47,0
23808,note_off,,,,,192,0,1,,,,,0,,,78,0
23808,note_on,,,,,0,0,1,,,,,0,,,78,92
23808,note_off,,,,,384,0,6,,,,,5,,,59,0
23808,note_on,,,,,0,0,7,,,,,6,,,43,75
23808,note_on,,,,,0,0,8,,,,,7,,,55,60
23808,note_on,,,,,0,0,6,,,,,5,,,55,92
23808,note_on,,,,,0,0,2,,,,,1,,,74,92
23808,note_off,,,,,384,0,8,,,,,7,,,59,0
24000,note_off,,,,,192,0,1,,,,,0,,,78,0
24000,note_on,,,,,0,0,1,,,,,0,,,76,92
24192,note_off,,,,,384,0,6,,,,,5,,,55,0
24192,note_on,,,,,0,0,1,,,,,0,,,79,92
24192,note_off,,,,,192,0,1,,,,,0,,,76,0
24192,note_off,,,,,384,0,2,,,,,1,,,74,0
24192,note_on,,,,,0,0,2,,,,,1,,,73,92
24192,note_on,,,,,0,0,8,,,,,7,,,57,60
24192,note_off,,,,,384,0,7,,,,,6,,,43,0
24192,note_on,,,,,0,0,7,,,,,6,,,45,75
24192,note_off,,,,,384,0,8,,,,,7,,,55,0
24192,note_on,,,,,0,0,6,,,,,5,,,57,92
24384,note_off,,,,,192,0,1,,,,,0,,,79,0
24384,note_on,,,,,0,0,1,,,,,0,,,78,92
24576,note_on,,,,,0,0,6,,,,,5,,,50,92
24576,note_on,,,,,0,0,8,,,,,7,,,50,60
24576,note_off,,,,,384,0,8,,,,,7,,,57,0
24576,note_off,,,,,384,0,6,,,,,5,,,57,0
24576,note_off,,,,,192,0,1,,,,,0,,,78,0
24576,note_off,,,,,384,0,2,,,,,1,,,73,0
24576,note_on,,,,,0,0,1,,,,,0,,,78,92
24576,note_off,,,,,384,0,7,,,,,6,,,45,0
24576,note_on,,,,,0,0,2,,,,,1,,,74,92
24576,note_on,,,,,0,0,7,,,,,6,,,38,75
24960,note_off,,,,,384,0,8,,,,,7,,,50,0
24960,note_off,,,,,384,0,7,,,,,6,,,38,0
24960,note_off,,,,,384,0,1,,,,,0,,,78,0
24960,note_on,,,,,0,0,1,,,,,0,,,81,92
24960,note_off,,,,,384,0,2,,,,,1,,,74,0
24960,note_on,,,,,0,0,2,,,,,1,,,78,92
24960,note_off,,,,,384,0,6,,,,,5,,,50,0
25152,note_on,,,,,0,0,1,,,,,0,,,79,92
25152,note_off,,,,,192,0,1,,,,,0,,,81,0
25152,note_off,,,,,192,0,2,,,,,1,,,78,0
25152,note_on,,,,,0,0,2,,,,,1,,,76,92
25344,note_on,,,,,0,0,2,,,,,1,,,76,92
25344,note_off,,,,,192,0,1,,,,,0,,,79,0
25344,note_on,,,,,0,0,1,,,,,0,,,79,92
25344,note_off,,,,,192,0,2,,,,,1,,,76,0
25728,note_off,,,,,384,0,2,,,,,1,,,76,0
25728,note_off,,,,,384,0,1,,,,,0,,,79,0
25728,note_on,,,,,0,0,1,,,,,0,,,83,92
25728,note_on,,,,,0,0,2,,,,,1,,,79,92
25920,note_on,,,,,0,0,1,,,,,0,,,81,92
25920,note_off,,,,,192,0,1,,,,,0,,,83,0
25920,note_on,,,,,0,0,2,,,,,1,,,78,92
25920,note_off,,,,,192,0,2,,,,,1,,,79,0
26112,note_on,,,,,0,0,2,,,,,1,,,78,92
26112,note_off,,,,,192,0,2,,,,,1,,,78,0
26112,note_on,,,,,0,0,1,,,,,0,,,81,92
26112,note_off,,,,,192,0,1,,,,,0,,,81,0
26496,note_on,,,,,0,0,1,,,,,0,,,84,92
26496,note_off,,,,,384,0,1,,,,,0,,,81,0
26496,note_on,,,,,0,0,2,,,,,1,,,81,92
26496,note_off,,,,,384,0,2,,,,,1,,,78,0
26688,note_on,,,,,0,0,2,,,,,1,,,79,92
26688,note_off,,,,,192,0,1,,,,,0,,,84,0
26688,note_on,,,,,0,0,1,,,,,0,,,83,92
26688,note_off,,,,,192,0,2,,,,,1,,,81,0
26880,note_off,,,,,192,0,2,,,,,1,,,79,0
26880,note_on,,,,,0,0,2,,,,,1,,,79,92
26880,note_on,,,,,0,0,1,,,,,0,,,83,92
26880,note_off,,,,,192,0,1,,,,,0,,,83,0
27264,note_on,,,,,0,0,1,,,,,0,,,86,92
27264,note_off,,,,,384,0,2,,,,,1,,,79,0
27264,note_on,,,,,0,0,2,,,,,1,,,83,92
27264,note_off,,,,,384,0,1,,,,,0,,,83,0
27456,note_on,,,,,0,0,1,,,,,0,,,84,92
27456,note_off,,,,,192,0,2,,,,,1,,,83,0
27456,note_on,,,,,0,0,2,,,,,1,,,81,92
27456,note_off,,,,,192,0,1,,,,,0,,,86,0
27648,note_off,,,,,192,0,1,,,,,0,,,84,0
27648,note_on,,,,,7296,0,3,,,,,2,,,72,108
27648,note_on,,,,,2688,0,7,,,,,6,,,39,75
27648,note_on,,,,,7296,0,4,,,,,3,,,69,108
27648,note_on,,,,,0,0,2,,,,,1,,,81,92
27648,note_off,,,,,192,0,2,,,,,1,,,81,0
27648,note_on,,,,,7296,0,5,,,,,4,,,66,92
27648,note_on,,,,,2688,0,6,,,,,5,,,51,92
27648,note_on,,,,,2688,0,8,,,,,7,,,51,60
27648,note_on,,,,,0,0,1,,,,,0,,,84,92
28032,note_on,,,,,0,0,7,,,,,6,,,42,75
28032,note_off,,,,,384,0,8,,,,,7,,,51,0
28032,note_on,,,,,0,0,8,,,,,7,,,54,60
28032,note_off,,,,,384,0,7,,,,,6,,,39,0
28032,note_on,,,,,0,0,5,,,,,4,,,69,92
28032,note_off,,,,,384,0,6,,,,,5,,,51,0
28032,note_off,,,,,384,0,5,,,,,4,,,66,0
28032,note_on,,,,,0,0,6,,,,,5,,,54,92
28320,note_on,,,,,0,0,6,,,,,5,,,52,92
28320,note_off,,,,,288,0,8,,,,,7,,,54,0
28320,note_on,,,,,0,0,5,,,,,4,,,67,92
28320,note_on,,,,,0,0,7,,,,,6,,,40,75
28320,note_on,,,,,0,0,8,,,,,7,,,52,60
28320,note_off,,,,,288,0,7,,,,,6,,,42,0
28320,note_off,,,,,288,0,5,,,,,4,,,69,0
28320,note_off,,,,,288,0,6,,,,,5,,,54,0
28416,note_off,,,,,96,0,8,,,,,7,,,52,0
28416,note_off,,,,,96,0,5,,,,,4,,,67,0
28416,note_on,,,,,0,0,5,,,,,4,,,66,92
28416,note_on,,,,,0,0,7,,,,,6,,,39,75
28416,note_on,,,,,0,0,6,,,,,5,,,51,92
28416,note_off,,,,,96,0,6,,,,,5,,,52,0
28416,note_off,,,,,96,0,7,,,,,6,,,40,0
28416,note_on,,,,,0,0,8,,,,,7,,,51,60
28608,note_off,,,,,960,0,1,,,,,0,,,84,0
28608,note_off,,,,,960,0,2,,,,,1,,,81,0
28704,note_on,,,,,96,0,2,,,,,1,,,78,92
28704,note_on,,,,,96,0,1,,,,,0,,,81,92
28800,note_off,,,,,384,0,5,,,,,4,,,66,0
28800,note_off,,,,,384,0,6,,,,,5,,,51,0
28800,note_off,,,,,384,0,7,,,,,6,,,39,0
28800,note_off,,,,,96,0,2,,,,,1,,,78,0
28800,note_on,,,,,0,0,2,,,,,1,,,78,92
28800,note_off,,,,,384,0,8,,,,,7,,,51,0
28800,note_off,,,,,96,0,1,,,,,0,,,81,0
28800,note_on,,,,,0,0,1,,,,,0,,,81,92
29088,note_off,,,,,288,0,2,,,,,1,,,78,0
29088,note_on,,,,,0,0,2,,,,,1,,,79,92
29088,note_on,,,,,0,0,1,,,,,0,,,83,92
29088,note_off,,,,,288,0,1,,,,,0,,,81,0
29184,note_off,,,,,96,0,2,,,,,1,,,79,0
29184,note_on,,,,,384,0,5,,,,,4,,,66,92
29184,note_off,,,,,96,0,1,,,,,0,,,83,0
29184,note_on,,,,,0,0,1,,,,,0,,,84,92
29184,note_on,,,,,384,0,8,,,,,7,,,51,60
29184,note_on,,,,,384,0,7,,,,,6,,,39,75
29184,note_on,,,,,0,0,2,,,,,1,,,81,92
29184,note_on,,,,,384,0,6,,,,,5,,,51,92
29376,note_off,,,,,1728,0,4,,,,,3,,,69,0
29376,note_off,,,,,1728,0,3,,,,,2,,,72,0
29568,note_on,,,,,0,0,6,,,,,5,,,54,92
29568,note_on,,,,,192,0,4,,,,,3,,,81,108
29568,note_off,,,,,384,0,6,,,,,5,,,51,0
29568,note_on,,,,,0,0,7,,,,,6,,,42,75
29568,note_on,,,,,0,0,5,,,,,4,,,69,92
29568,note_off,,,,,384,0,8,,,,,7,,,51,0
29568,note_on,,,,,0,0,8,,,,,7,,,54,60
29568,note_off,,,,,384,0,7,,,,,6,,,39,0
29568,note_on,,,,,192,0,3,,,,,2,,,84,108
29568,note_off,,,,,384,0,5,,,,,4,,,66,0
29856,note_on,,,,,0,0,8,,,,,7,,,52,60
29856,note_off,,,,,288,0,7,,,,,6,,,42,0
29856,note_on,,,,,0,0,7,,,,,6,,,40,75
29856,note_on,,,,,0,0,6,,,,,5,,,52,92
29856,note_off,,,,,288,0,6,,,,,5,,,54,0
29856,note_on,,,,,0,0,5,,,,,4,,,67,92
29856,note_off,,,,,288,0,5,,,,,4,,,69,0
29856,note_off,,,,,288,0,8,,,,,7,,,54,0
29952,note_off,,,,,96,0,8,,,,,7,,,52,0
29952,note_on,,,,,0,0,8,,,,,7,,,51,60
29952,note_on,,,,,0,0,7,,,,,6,,,39,75
29952,note_on,,,,,0,0,5,,,,,4,,,66,92
29952,note_off,,,,,96,0,5,,,,,4,,,67,0
29952,note_off,,,,,96,0,7,,,,,6,,,40,0
29952,note_off,,,,,96,0,6,,,,,5,,,52,0
29952,note_on,,,,,0,0,6,,,,,5,,,51,92
30048,note_off,,,,,864,0,1,,,,,0,,,84,0
30048,note_off,,,,,864,0,2,,,,,1,,,81,0
30144,note_off,,,,,576,0,4,,,,,3,,,81,0
30144,note_on,,,,,96,0,1,,,,,0,,,83,92
30144,note_off,,,,,576,0,3,,,,,2,,,84,0
30144,note_on,,,,,96,0,2,,,,,1,,,79,92
30144,note_on,,,,,0,0,3,,,,,2,,,83,108
30144,note_on,,,,,0,0,4,,,,,3,,,79,108
30336,note_off,,,,,192,0,2,,,,,1,,,79,0
30336,note_off,,,,,384,0,6,,,,,5,,,51,0
30336,note_off,,,,,384,0,8,,,,,7,,,51,0
30336,note_off,,,,,384,0,7,,,,,6,,,39,0
30336,note_off,,,,,384,0,5,,,,,4,,,66,0
30336,note_off,,,,,192,0,3,,,,,2,,,83,0
30336,note_on,,,,,0,0,2,,,,,1,,,79,92
30336,note_off,,,,,192,0,1,,,,,0,,,83,0
30336,note_on,,,,,0,0,1,,,,,0,,,83,92
30336,note_on,,,,,0,0,4,,,,,3,,,79,108
30336,note_off,,,,,192,0,4,,,,,3,,,79,0
30336,note_on,,,,,0,0,3,,,,,2,,,83,108
30528,note_off,,,,,192,0,4,,,,,3,,,79,0
30528,note_on,,,,,0,0,4,,,,,3,,,78,108
30528,note_off,,,,,192,0,3,,,,,2,,,83,0
30528,note_off,,,,,192,0,2,,,,,1,,,79,0
30528,note_on,,,,,0,0,3,,,,,2,,,81,108
30528,note_off,,,,,192,0,1,,,,,0,,,83,0
30528,note_on,,,,,0,0,1,,,,,0,,,81,92
30528,note_on,,,,,0,0,2,,,,,1,,,78,92
30720,note_on,,,,,0,0,2,,,,,1,,,79,92
30720,note_on,,,,,384,0,8,,,,,7,,,52,60
30720,note_on,,,,,0,0,3,,,,,2,,,79,108
30720,note_on,,,,,384,0,6,,,,,5,,,52,92
30720,note_off,,,,,192,0,3,,,,,2,,,81,0
30720,note_off,,,,,192,0,1,,,,,0,,,81,0
30720,note_off,,,,,192,0,2,,,,,1,,,78,0
30720,note_on,,,,,384,0,7,,,,,6,,,40,75
30720,note_on,,,,,0,0,1,,,,,0,,,79,92
30720,note_on,,,,,384,0,5,,,,,4,,,71,92
30720,note_on,,,,,0,0,4,,,,,3,,,76,108
30720,note_off,,,,,192,0,4,,,,,3,,,78,0
31104,note_on,,,,,0,0,1,,,,,0,,,76,92
31104,note_off,,,,,384,0,4,,,,,3,,,76,0
31104,note_off,,,,,384,0,3,,,,,2,,,79,0
31104,note_off,,,,,384,0,6,,,,,5,,,52,0
31104,note_off,,,,,384,0,8,,,,,7,,,52,0
31104,note_off,,,,,384,0,5,,,,,4,,,71,0
31104,note_on,,,,,0,0,8,,,,,7,,,67,60
31104,note_on,,,,,0,0,2,,,,,1,,,71,92
31104,note_off,,,,,384,0,2,,,,,1,,,79,0
31104,note_off,,,,,384,0,1,,,,,0,,,79,0
31104,note_on,,,,,0,0,6,,,,,5,,,67,92
31104,note_on,,,,,0,0,7,,,,,6,,,55,75
31104,note_off,,,,,384,0,7,,,,,6,,,40,0
31392,note_on,,,,,0,0,6,,,,,5,,,66,92
31392,note_on,,,,,0,0,7,,,,,6,,,54,75
31392,note_off,,,,,288,0,7,,,,,6,,,55,0
31392,note_off,,,,,288,0,6,,,,,5,,,67,0
31392,note_off,,,,,288,0,1,,,,,0,,,76,0
31392,note_on,,,,,0,0,8,,,,,7,,,66,60
31392,note_off,,,,,288,0,8,,,,,7,,,67,0
31392,note_on,,,,,0,0,1,,,,,0,,,78,92
31488,note_on,,,,,0,0,7,,,,,6,,,52,75
31488,note_off,,,,,96,0,7,,,,,6,,,54,0
31488,note_on,,,,,0,0,1,,,,,0,,,79,92
31488,note_on,,,,,0,0,2,,,,,1,,,76,92
31488,note_off,,,,,96,0,1,,,,,0,,,78,0
31488,note_on,,,,,0,0,8,,,,,7,,,64,60
31488,note_off,,,,,96,0,8,,,,,7,,,66,0
31488,note_off,,,,,96,0,6,,,,,5,,,66,0
31488,note_on,,,,,0,0,6,,,,,5,,,64,92
31488,note_off,,,,,384,0,2,,,,,1,,,71,0
31776,note_on,,,,,0,0,8,,,,,7,,,62,60
31776,note_off,,,,,288,0,8,,,,,7,,,64,0
31776,note_off,,,,,288,0,7,,,,,6,,,52,0
31776,note_on,,,,,0,0,7,,,,,6,,,50,75
31776,note_off,,,,,288,0,6,,,,,5,,,64,0
31776,note_on,,,,,0,0,6,,,,,5,,,62,92
31872,note_off,,,,,96,0,8,,,,,7,,,62,0
31872,note_on,,,,,0,0,8,,,,,7,,,61,60
31872,note_on,,,,,0,0,7,,,,,6,,,49,75
31872,note_off,,,,,96,0,7,,,,,6,,,50,0
31872,note_off,,,,,96,0,6,,,,,5,,,62,0
31872,note_on,,,,,0,0,6,,,,,5,,,61,92
32160,note_on,,,,,0,0,6,,,,,5,,,59,92
32160,note_off,,,,,288,0,7,,,,,6,,,49,0
32160,note_on,,,,,0,0,8,,,,,7,,,59,60
32160,note_off,,,,,288,0,8,,,,,7,,,61,0
32160,note_on,,,,,0,0,7,,,,,6,,,47,75
32160,note_off,,,,,288,0,6,,,,,5,,,61,0
32256,note_on,,,,,1152,0,4,,,,,3,,,64,108
32256,note_off,,,,,96,0,7,,,,,6,,,47,0
32256,note_on,,,,,0,0,7,,,,,6,,,46,75
32256,note_off,,,,,96,0,8,,,,,7,,,59,0
32256,note_on,,,,,1152,0,5,,,,,4,,,61,92
32256,note_on,,,,,0,0,6,,,,,5,,,58,92
32256,note_off,,,,,96,0,6,,,,,5,,,59,0
32256,note_on,,,,,1152,0,3,,,,,2,,,67,108
32256,note_on,,,,,0,0,8,,,,,7,,,58,60
32640,note_on,,,,,0,0,6,,,,,5,,,61,92
32640,note_off,,,,,384,0,5,,,,,4,,,61,0
32640,note_off,,,,,384,0,6,,,,,5,,,58,0
32640,note_on,,,,,0,0,5,,,,,4,,,61,92
32640,note_on,,,,,0,0,4,,,,,3,,,76,108
32640,note_on,,,,,0,0,3,,,,,2,,,79,108
32640,note_on,,,,,0,0,7,,,,,6,,,49,75
32640,note_off,,,,,384,0,7,,,,,6,,,46,0
32640,note_on,,,,,0,0,2,,,,,1,,,76,92
32640,note_off,,,,,384,0,3,,,,,2,,,67,0
32640,note_off,,,,,384,0,4,,,,,3,,,64,0
32640,note_off,,,,,1152,0,2,,,,,1,,,76,0
32640,note_off,,,,,384,0,8,,,,,7,,,58,0
32640,note_on,,,,,0,0,8,,,,,7,,,61,60
32928,note_off,,,,,288,0,8,,,,,7,,,61,0
32928,note_on,,,,,0,0,2,,,,,1,,,74,92
32928,note_off,,,,,288,0,2,,,,,1,,,76,0
32928,note_on,,,,,0,0,8,,,,,7,,,59,60
32928,note_on,,,,,0,0,7,,,,,6,,,47,75
32928,note_on,,,,,0,0,4,,,,,3,,,74,108
32928,note_off,,,,,288,0,7,,,,,6,,,49,0
32928,note_on,,,,,0,0,6,,,,,5,,,59,92
32928,note_off,,,,,288,0,4,,,,,3,,,76,0
32928,note_off,,,,,288,0,6,,,,,5,,,61,0
33024,note_on,,,,,0,0,8,,,,,7,,,58,60
33024,note_on,,,,,0,0,7,,,,,6,,,46,75
33024,note_off,,,,,96,0,7,,,,,6,,,47,0
33024,note_off,,,,,96,0,8,,,,,7,,,59,0
33024,note_on,,,,,0,0,6,,,,,5,,,58,92
33024,note_off,,,,,96,0,6,,,,,5,,,59,0
33024,note_off,,,,,96,0,4,,,,,3,,,74,0
33024,note_off,,,,,1536,0,1,,,,,0,,,79,0
33024,note_on,,,,,0,0,4,,,,,3,,,73,108
33024,note_on,,,,,0,0,2,,,,,1,,,73,92
33024,note_off,,,,,96,0,2,,,,,1,,,74,0
33216,note_on,,,,,192,0,1,,,,,0,,,78,92
33216,note_off,,,,,576,0,3,,,,,2,,,79,0
33216,note_on,,,,,0,0,3,,,,,2,,,78,108
33408,note_on,,,,,0,0,5,,,,,4,,,73,92
33408,note_on,,,,,0,0,3,,,,,2,,,78,108
33408,note_off,,,,,192,0,3,,,,,2,,,78,0
33408,note_on,,,,,0,0,4,,,,,3,,,70,108
33408,note_off,,,,,384,0,4,,,,,3,,,73,0
33408,note_on,,,,,0,0,2,,,,,1,,,70,92
33408,note_off,,,,,384,0,2,,,,,1,,,73,0
33408,note_off,,,,,384,0,7,,,,,6,,,46,0
33408,note_off,,,,,384,0,8,,,,,7,,,58,0
33408,note_off,,,,,768,0,5,,,,,4,,,61,0
33408,note_off,,,,,384,0,6,,,,,5,,,58,0
33408,note_off,,,,,192,0,1,,,,,0,,,78,0
33408,note_on,,,,,0,0,1,,,,,0,,,78,92
33696,note_off,,,,,288,0,1,,,,,0,,,78,0
33696,note_on,,,,,0,0,1,,,,,0,,,76,92
33696,note_on,,,,,0,0,3,,,,,2,,,76,108
33696,note_off,,,,,288,0,3,,,,,2,,,78,0
33792,note_on,,,,,0,0,4,,,,,3,,,66,108
33792,note_off,,,,,384,0,4,,,,,3,,,70,0
33792,note_off,,,,,384,0,5,,,,,4,,,73,0
33792,note_on,,,,,384,0,7,,,,,6,,,47,75
33792,note_on,,,,,384,0,8,,,,,7,,,59,60
33792,note_on,,,,,0,0,3,,,,,2,,,74,108
33792,note_on,,,,,384,0,6,,,,,5,,,59,92
33792,note_off,,,,,96,0,3,,,,,2,,,76,0
33792,note_on,,,,,0,0,2,,,,,1,,,66,92
33792,note_on,,,,,0,0,1,,,,,0,,,74,92
33792,note_on,,,,,0,0,5,,,,,4,,,71,92
33792,note_off,,,,,96,0,1,,,,,0,,,76,0
33792,note_off,,,,,384,0,2,,,,,1,,,70,0
34176,note_off,,,,,384,0,4,,,,,3,,,66,0
34176,note_off,,,,,384,0,8,,,,,7,,,59,0
34176,note_on,,,,,0,0,7,,,,,6,,,50,75
34176,note_off,,,,,384,0,3,,,,,2,,,74,0
34176,note_off,,,,,384,0,5,,,,,4,,,71,0
34176,note_on,,,,,0,0,8,,,,,7,,,62,60
34176,note_off,,,,,384,0,7,,,,,6,,,47,0
34176,note_on,,,,,0,0,6,,,,,5,,,62,92
34176,note_off,,,,,384,0,1,,,,,0,,,74,0
34176,note_on,,,,,0,0,1,,,,,0,,,78,92
34176,note_off,,,,,384,0,6,,,,,5,,,59,0
34176,note_off,,,,,384,0,2,,,,,1,,,66,0
34176,note_on,,,,,0,0,2,,,,,1,,,71,92
34464,note_off,,,,,288,0,8,,,,,7,,,62,0
34464,note_on,,,,,0,0,8,,,,,7,,,60,60
34464,note_off,,,,,288,0,6,,,,,5,,,62,0
34464,note_on,,,,,0,0,6,,,,,5,,,60,92
34464,note_off,,,,,288,0,7,,,,,6,,,50,0
34464,note_on,,,,,0,0,7,,,,,6,,,48,75
34560,note_on,,,,,0,0,6,,,,,5,,,59,92
34560,note_off,,,,,384,0,1,,,,,0,,,78,0
34560,note_on,,,,,0,0,2,,,,,1,,,78,92
34560,note_off,,,,,384,0,2,,,,,1,,,71,0
34560,note_on,,,,,0,0,1,,,,,0,,,86,92
34560,note_on,,,,,0,0,7,,,,,6,,,47,75
34560,note_off,,,,,96,0,6,,,,,5,,,60,0
34560,note_off,,,,,96,0,7,,,,,6,,,48,0
34560,note_off,,,,,96,0,8,,,,,7,,,60,0
34560,note_on,,,,,0,0,8,,,,,7,,,59,60
34848,note_on,,,,,0,0,6,,,,,5,,,57,92
34848,note_off,,,,,288,0,8,,,,,7,,,59,0
34848,note_on,,,,,0,0,8,,,,,7,,,57,60
34848,note_off,,,,,288,0,6,,,,,5,,,59,0
34848,note_off,,,,,288,0,7,,,,,6,,,47,0
34848,note_on,,,,,0,0,7,,,,,6,,,45,75
34944,note_off,,,,,96,0,8,,,,,7,,,57,0
34944,note_on,,,,,0,0,8,,,,,7,,,56,60
34944,note_off,,,,,96,0,6,,,,,5,,,57,0
34944,note_on,,,,,0,0,6,,,,,5,,,56,92
34944,note_off,,,,,384,0,2,,,,,1,,,78,0
34944,note_on,,,,,0,0,2,,,,,1,,,83,92
34944,note_on,,,,,0,0,7,,,,,6,,,44,75
34944,note_off,,,,,96,0,7,,,,,6,,,45,0
35232,note_off,,,,,288,0,8,,,,,7,,,56,0
35232,note_on,,,,,0,0,7,,,,,6,,,42,75
35232,note_off,,,,,288,0,7,,,,,6,,,44,0
35232,note_off,,,,,288,0,6,,,,,5,,,56,0
35232,note_on,,,,,0,0,6,,,,,5,,,54,92
35232,note_on,,,,,0,0,8,,,,,7,,,54,60
35328,note_off,,,,,96,0,8,,,,,7,,,54,0
35328,note_on,,,,,0,0,8,,,,,7,,,52,60
35328,note_off,,,,,96,0,6,,,,,5,,,54,0
35328,note_on,,,,,0,0,6,,,,,5,,,52,92
35328,note_on,,,,,1152,0,3,,,,,2,,,74,108
35328,note_on,,,,,1152,0,4,,,,,3,,,71,108
35328,note_on,,,,,0,0,7,,,,,6,,,40,75
35328,note_off,,,,,96,0,7,,,,,6,,,42,0
35328,note_on,,,,,1152,0,5,,,,,4,,,68,92
35712,note_off,,,,,384,0,4,,,,,3,,,71,0
35712,note_on,,,,,0,0,6,,,,,5,,,56,92
35712,note_off,,,,,384,0,6,,,,,5,,,52,0
35712,note_on,,,,,0,0,4,,,,,3,,,83,108
35712,note_off,,,,,384,0,3,,,,,2,,,74,0
35712,note_off,,,,,384,0,7,,,,,6,,,40,0
35712,note_on,,,,,0,0,8,,,,,7,,,56,60
35712,note_off,,,,,384,0,8,,,,,7,,,52,0
35712,note_on,,,,,0,0,7,,,,,6,,,44,75
35712,note_on,,,,,0,0,3,,,,,2,,,86,108
35712,note_on,,,,,0,0,5,,,,,4,,,64,92
35712,note_off,,,,,384,0,5,,,,,4,,,68,0
36000,note_on,,,,,0,0,8,,,,,7,,,54,60
36000,note_off,,,,,288,0,8,,,,,7,,,56,0
36000,note_off,,,,,288,0,6,,,,,5,,,56,0
36000,note_off,,,,,288,0,7,,,,,6,,,44,0
36000,note_on,,,,,0,0,7,,,,,6,,,42,75
36000,note_on,,,,,0,0,6,,,,,5,,,54,92
36000,note_on,,,,,0,0,5,,,,,4,,,66,92
36000,note_off,,,,,288,0,5,,,,,4,,,64,0
36096,note_on,,,,,0,0,7,,,,,6,,,40,75
36096,note_off,,,,,96,0,6,,,,,5,,,54,0
36096,note_on,,,,,0,0,6,,,,,5,,,52,92
36096,note_off,,,,,1536,0,1,,,,,0,,,86,0
36096,note_on,,,,,0,0,5,,,,,4,,,68,92
36096,note_off,,,,,96,0,5,,,,,4,,,66,0
36096,note_off,,,,,96,0,8,,,,,7,,,54,0
36096,note_on,,,,,0,0,8,,,,,7,,,52,60
36096,note_off,,,,,96,0,7,,,,,6,,,42,0
36192,note_off,,,,,1248,0,2,,,,,1,,,83,0
36288,note_off,,,,,576,0,4,,,,,3,,,83,0
36288,note_off,,,,,576,0,3,,,,,2,,,86,0
36288,note_on,,,,,0,0,3,,,,,2,,,86,108
36288,note_on,,,,,192,0,1,,,,,0,,,86,92
36288,note_on,,,,,96,0,2,,,,,1,,,83,92
36288,note_on,,,,,0,0,4,,,,,3,,,83,108
36480,note_on,,,,,0,0,4,,,,,3,,,81,108
36480,note_off,,,,,192,0,4,,,,,3,,,83,0
36480,note_off,,,,,384,0,5,,,,,4,,,68,0
36480,note_off,,,,,384,0,6,,,,,5,,,52,0
36480,note_on,,,,,0,0,3,,,,,2,,,84,108
36480,note_off,,,,,384,0,7,,,,,6,,,40,0
36480,note_off,,,,,384,0,8,,,,,7,,,52,0
36480,note_on,,,,,0,0,2,,,,,1,,,81,92
36480,note_off,,,,,192,0,2,,,,,1,,,83,0
36480,note_off,,,,,192,0,3,,,,,2,,,86,0
36480,note_off,,,,,192,0,1,,,,,0,,,86,0
36480,note_on,,,,,0,0,1,,,,,0,,,84,92
36528,note_off,,,,,48,0,4,,,,,3,,,81,0
36528,note_on,,,,,0,0,4,,,,,3,,,83,108
36528,note_off,,,,,48,0,1,,,,,0,,,84,0
36528,note_on,,,,,0,0,1,,,,,0,,,84,92
36528,note_on,,,,,0,0,1,,,,,0,,,86,92
36528,note_on,,,,,0,0,3,,,,,2,,,86,108
36528,note_on,,,,,0,0,3,,,,,2,,,84,108
36528,note_off,,,,,48,0,2,,,,,1,,,81,0
36528,note_on,,,,,0,0,2,,,,,1,,,81,92
36528,note_off,,,,,48,0,3,,,,,2,,,84,0
36528,note_on,,,,,0,0,2,,,,,1,,,83,92
36528,note_on,,,,,0,0,4,,,,,3,,,81,108
36576,note_off,,,,,48,0,1,,,,,0,,,84,0
36576,note_off,,,,,0,0,1,,,,,0,,,86,0
36576,note_on,,,,,0,0,1,,,,,0,,,84,92
36576,note_on,,,,,0,0,1,,,,,0,,,86,92
36576,note_off,,,,,0,0,4,,,,,3,,,83,0
36576,note_off,,,,,48,0,4,,,,,3,,,81,0
36576,note_on,,,,,0,0,4,,,,,3,,,83,108
36576,note_on,,,,,0,0,3,,,,,2,,,84,108
36576,note_on,,,,,0,0,4,,,,,3,,,81,108
36576,note_off,,,,,0,0,3,,,,,2,,,86,0
36576,note_on,,,,,0,0,2,,,,,1,,,83,92
36576,note_on,,,,,0,0,2,,,,,1,,,81,92
36576,note_off,,,,,0,0,2,,,,,1,,,83,0
36576,note_off,,,,,48,0,2,,,,,1,,,81,0
36576,note_on,,,,,0,0,3,,,,,2,,,86,108
36576,note_off,,,,,48,0,3,,,,,2,,,84,0
36624,note_off,,,,,48,0,2,,,,,1,,,81,0
36624,note_off,,,,,0,0,2,,,,,1,,,83,0
36624,note_on,,,,,0,0,1,,,,,0,,,86,92
36624,note_on,,,,,0,0,1,,,,,0,,,84,92
36624,note_off,,,,,0,0,1,,,,,0,,,86,0
36624,note_on,,,,,0,0,2,,,,,1,,,83,92
36624,note_off,,,,,48,0,4,,,,,3,,,81,0
36624,note_off,,,,,48,0,1,,,,,0,,,84,0
36624,note_on,,,,,0,0,2,,,,,1,,,81,92
36624,note_on,,,,,0,0,3,,,,,2,,,86,108
36624,note_on,,,,,0,0,3,,,,,2,,,84,108
36624,note_off,,,,,0,0,3,,,,,2,,,86,0
36624,note_off,,,,,48,0,3,,,,,2,,,84,0
36624,note_on,,,,,0,0,4,,,,,3,,,83,108
36624,note_on,,,,,0,0,4,,,,,3,,,81,108
36624,note_off,,,,,0,0,4,,,,,3,,,83,0
36672,note_off,,,,,0,0,4,,,,,3,,,83,0
36672,note_off,,,,,48,0,4,,,,,3,,,81,0
36672,note_off,,,,,0,0,3,,,,,2,,,86,0
36672,note_off,,,,,48,0,3,,,,,2,,,84,0
36672,note_on,,,,,0,0,1,,,,,0,,,84,92
36672,note_off,,,,,0,0,1,,,,,0,,,86,0
36672,note_off,,,,,48,0,1,,,,,0,,,84,0
36672,note_on,,,,,0,0,3,,,,,2,,,84,108
36672,note_on,,,,,0,0,1,,,,,0,,,86,92
36672,note_on,,,,,0,0,4,,,,,3,,,81,108
36672,note_off,,,,,0,0,2,,,,,1,,,83,0
36672,note_on,,,,,0,0,2,,,,,1,,,81,92
36672,note_on,,,,,0,0,2,,,,,1,,,83,92
36672,note_off,,,,,48,0,2,,,,,1,,,81,0
36672,note_on,,,,,0,0,4,,,,,3,,,83,108
36672,note_on,,,,,0,0,3,,,,,2,,,86,108
36768,note_off,,,,,0,0,3,,,,,2,,,86,0
36768,note_on,,,,,0,0,3,,,,,2,,,83,108
36768,note_off,,,,,96,0,3,,,,,2,,,84,0
36768,note_on,,,,,0,0,4,,,,,3,,,80,108
36768,note_off,,,,,0,0,4,,,,,3,,,83,0
36768,note_off,,,,,96,0,1,,,,,0,,,84,0
36768,note_off,,,,,0,0,1,,,,,0,,,86,0
36768,note_on,,,,,0,0,1,,,,,0,,,83,92
36768,note_off,,,,,96,0,4,,,,,3,,,81,0
36768,note_off,,,,,0,0,2,,,,,1,,,83,0
36768,note_off,,,,,96,0,2,,,,,1,,,81,0
36768,note_on,,,,,0,0,2,,,,,1,,,80,92
36864,note_on,,,,,0,0,4,,,,,3,,,81,108
36864,note_off,,,,,96,0,4,,,,,3,,,80,0
36864,note_on,,,,,384,0,8,,,,,7,,,45,60
36864,note_on,,,,,384,0,6,,,,,5,,,45,92
36864,note_on,,,,,0,0,3,,,,,2,,,84,108
36864,note_on,,,,,384,0,7,,,,,6,,,33,75
36864,note_off,,,,,96,0,3,,,,,2,,,83,0
36864,note_on,,,,,0,0,2,,,,,1,,,81,92
36864,note_off,,,,,96,0,2,,,,,1,,,80,0
36864,note_off,,,,,96,0,1,,,,,0,,,83,0
36864,note_on,,,,,0,0,1,,,,,0,,,84,92
36864,note_on,,,,,384,0,5,,,,,4,,,64,92
37248,note_off,,,,,384,0,3,,,,,2,,,84,0
37248,note_off,,,,,384,0,8,,,,,7,,,45,0
37248,note_on,,,,,0,0,8,,,,,7,,,60,60
37248,note_off,,,,,384,0,4,,,,,3,,,81,0
37248,note_off,,,,,384,0,5,,,,,4,,,64,0
37248,note_off,,,,,384,0,2,,,,,1,,,81,0
37248,note_on,,,,,0,0,6,,,,,5,,,60,92
37248,note_off,,,,,384,0,6,,,,,5,,,45,0
37248,note_off,,,,,384,0,1,,,,,0,,,84,0
37248,note_off,,,,,384,0,7,,,,,6,,,33,0
37248,note_on,,,,,0,0,7,,,,,6,,,48,75
37536,note_off,,,,,288,0,7,,,,,6,,,48,0
37536,note_on,,,,,0,0,6,,,,,5,,,59,92
37536,note_on,,,,,0,0,8,,,,,7,,,59,60
37536,note_off,,,,,288,0,8,,,,,7,,,60,0
37536,note_off,,,,,288,0,6,,,,,5,,,60,0
37536,note_on,,,,,0,0,7,,,,,6,,,47,75
37632,note_on,,,,,384,0,4,,,,,3,,,69,108
37632,note_on,,,,,0,0,7,,,,,6,,,45,75
37632,note_off,,,,,96,0,6,,,,,5,,,59,0
37632,note_on,,,,,384,0,1,,,,,0,,,72,92
37632,note_on,,,,,384,0,2,,,,,1,,,69,92
37632,note_on,,,,,384,0,3,,,,,2,,,72,108
37632,note_on,,,,,384,0,5,,,,,4,,,64,92
37632,note_off,,,,,96,0,7,,,,,6,,,47,0
37632,note_on,,,,,0,0,6,,,,,5,,,57,92
37632,note_on,,,,,0,0,8,,,,,7,,,57,60
37632,note_off,,,,,96,0,8,,,,,7,,,59,0
37920,note_on,,,,,0,0,6,,,,,5,,,55,92
37920,note_off,,,,,288,0,8,,,,,7,,,57,0
37920,note_on,,,,,0,0,8,,,,,7,,,55,60
37920,note_off,,,,,288,0,6,,,,,5,,,57,0
37920,note_off,,,,,288,0,7,,,,,6,,,45,0
37920,note_on,,,,,0,0,7,,,,,6,,,43,75
38016,note_off,,,,,96,0,6,,,,,5,,,55,0
38016,note_on,,,,,0,0,6,,,,,5,,,54,92
38016,note_on,,,,,0,0,8,,,,,7,,,54,60
38016,note_off,,,,,96,0,8,,,,,7,,,55,0
38016,note_on,,,,,0,0,7,,,,,6,,,42,75
38016,note_off,,,,,96,0,7,,,,,6,,,43,0
38304,note_off,,,,,288,0,8,,,,,7,,,54,0
38304,note_on,,,,,0,0,8,,,,,7,,,52,60
38304,note_off,,,,,288,0,7,,,,,6,,,42,0
38304,note_on,,,,,0,0,7,,,,,6,,,40,75
38304,note_off,,,,,288,0,6,,,,,5,,,54,0
38304,note_on,,,,,0,0,6,,,,,5,,,52,92
38400,note_on,,,,,0,0,6,,,,,5,,,50,92
38400,note_off,,,,,768,0,5,,,,,4,,,64,0
38400,note_on,,,,,0,0,5,,,,,4,,,66,92
38400,note_off,,,,,96,0,7,,,,,6,,,40,0
38400,note_on,,,,,0,0,7,,,,,6,,,38,75
38400,note_off,,,,,96,0,8,,,,,7,,,52,0
38400,note_on,,,,,0,0,8,,,,,7,,,50,60
38400,note_off,,,,,96,0,6,,,,,5,,,52,0
38784,note_on,,,,,0,0,2,,,,,1,,,69,92
38784,note_off,,,,,1152,0,2,,,,,1,,,69,0
38784,note_on,,,,,0,0,3,,,,,2,,,72,108
38784,note_off,,,,,1152,0,4,,,,,3,,,69,0
38784,note_on,,,,,0,0,4,,,,,3,,,69,108
38784,note_on,,,,,0,0,1,,,,,0,,,72,92
38784,note_off,,,,,1152,0,1,,,,,0,,,72,0
38784,note_off,,,,,1152,0,3,,,,,2,,,72,0
39168,note_off,,,,,384,0,3,,,,,2,,,72,0
39168,note_on,,,,,0,0,3,,,,,2,,,70,108
39168,note_on,,,,,0,0,5,,,,,4,,,62,92
39168,note_off,,,,,768,0,5,,,,,4,,,66,0
39168,note_on,,,,,0,0,2,,,,,1,,,67,92
39168,note_off,,,,,384,0,2,,,,,1,,,69,0
39168,note_off,,,,,384,0,4,,,,,3,,,69,0
39168,note_on,,,,,0,0,4,,,,,3,,,67,108
39168,note_off,,,,,384,0,1,,,,,0,,,72,0
39168,note_on,,,,,0,0,1,,,,,0,,,70,92
39216,note_off,,,,,48,0,1,,,,,0,,,70,0
39216,note_on,,,,,0,0,1,,,,,0,,,72,92
39216,note_on,,,,,0,0,3,,,,,2,,,72,108
39216,note_off,,,,,48,0,3,,,,,2,,,70,0
39264,note_on,,,,,0,0,1,,,,,0,,,70,92
39264,note_off,,,,,48,0,1,,,,,0,,,72,0
39264,note_on,,,,,0,0,3,,,,,2,,,70,108
39264,note_off,,,,,48,0,3,,,,,2,,,72,0
39312,note_off,,,,,48,0,3,,,,,2,,,70,0
39312,note_on,,,,,0,0,3,,,,,2,,,72,108
39312,note_off,,,,,48,0,1,,,,,0,,,70,0
39312,note_on,,,,,0,0,1,,,,,0,,,72,92
39360,note_off,,,,,48,0,3,,,,,2,,,72,0
39360,note_on,,,,,0,0,3,,,,,2,,,70,108
39360,note_on,,,,,0,0,1,,,,,0,,,70,92
39360,note_off,,,,,48,0,1,,,,,0,,,72,0
39408,note_off,,,,,48,0,3,,,,,2,,,70,0
39408,note_on,,,,,0,0,3,,,,,2,,,72,108
39408,note_on,,,,,0,0,1,,,,,0,,,72,92
39408,note_off,,,,,48,0,1,,,,,0,,,70,0
39456,note_on,,,,,0,0,3,,,,,2,,,70,108
39456,note_off,,,,,48,0,3,,,,,2,,,72,0
39456,note_on,,,,,0,0,1,,,,,0,,,70,92
39456,note_off,,,,,48,0,1,,,,,0,,,72,0
39504,note_off,,,,,48,0,3,,,,,2,,,70,0
39504,note_on,,,,,0,0,3,,,,,2,,,72,108
39504,note_on,,,,,0,0,1,,,,,0,,,72,92
39504,note_off,,,,,48,0,1,,,,,0,,,70,0
39552,note_on,,,,,0,0,4,,,,,3,,,66,108
39552,note_off,,,,,48,0,1,,,,,0,,,72,0
39552,note_on,,,,,0,0,1,,,,,0,,,70,92
39552,note_off,,,,,384,0,4,,,,,3,,,67,0
39552,note_on,,,,,0,0,2,,,,,1,,,66,92
39552,note_off,,,,,48,0,3,,,,,2,,,72,0
39552,note_on,,,,,0,0,3,,,,,2,,,70,108
39552,note_off,,,,,384,0,2,,,,,1,,,67,0
39600,note_on,,,,,0,0,1,,,,,0,,,72,92
39600,note_off,,,,,48,0,1,,,,,0,,,70,0
39600,note_on,,,,,0,0,3,,,,,2,,,72,108
39600,note_off,,,,,48,0,3,,,,,2,,,70,0
39648,note_off,,,,,48,0,1,,,,,0,,,72,0
39648,note_on,,,,,0,0,1,,,,,0,,,70,92
39648,note_on,,,,,0,0,3,,,,,2,,,70,108
39648,note_off,,,,,48,0,3,,,,,2,,,72,0
39696,note_on,,,,,0,0,3,,,,,2,,,72,108
39696,note_off,,,,,48,0,1,,,,,0,,,70,0
39696,note_on,,,,,0,0,1,,,,,0,,,72,92
39696,note_off,,,,,48,0,3,,,,,2,,,70,0
39744,note_off,,,,,48,0,3,,,,,2,,,72,0
39744,note_off,,,,,48,0,1,,,,,0,,,72,0
39744,note_on,,,,,0,0,1,,,,,0,,,70,92
39744,note_on,,,,,0,0,3,,,,,2,,,70,108
39792,note_off,,,,,48,0,1,,,,,0,,,70,0
39792,note_on,,,,,0,0,1,,,,,0,,,69,92
39792,note_on,,,,,0,0,3,,,,,2,,,69,108
39792,note_off,,,,,48,0,3,,,,,2,,,70,0
39936,note_off,,,,,144,0,1,,,,,0,,,69,0
39936,note_on,,,,,0,0,1,,,,,0,,,70,92
39936,note_on,,,,,0,0,8,,,,,7,,,55,60
39936,note_off,,,,,384,0,4,,,,,3,,,66,0
39936,note_on,,,,,0,0,6,,,,,5,,,55,92
39936,note_off,,,,,1536,0,6,,,,,5,,,50,0
39936,note_off,,,,,1536,0,8,,,,,7,,,50,0
39936,note_on,,,,,0,0,5,,,,,4,,,62,92
39936,note_on,,,,,0,0,7,,,,,6,,,43,75
39936,note_off,,,,,768,0,5,,,,,4,,,62,0
39936,note_off,,,,,384,0,2,,,,,1,,,66,0
39936,note_on,,,,,0,0,2,,,,,1,,,67,92
39936,note_on,,,,,0,0,3,,,,,2,,,70,108
39936,note_off,,,,,144,0,3,,,,,2,,,69,0
39936,note_off,,,,,1536,0,7,,,,,6,,,38,0
39936,note_on,,,,,0,0,4,,,,,3,,,67,108
40320,note_on,,,,,0,0,5,,,,,4,,,62,92
40320,note_off,,,,,384,0,5,,,,,4,,,62,0
40320,note_off,,,,,384,0,8,,,,,7,,,55,0
40320,note_on,,,,,0,0,6,,,,,5,,,58,92
40320,note_on,,,,,0,0,8,,,,,7,,,58,60
40320,note_on,,,,,0,0,7,,,,,6,,,46,75
40320,note_off,,,,,384,0,7,,,,,6,,,43,0
40320,note_off,,,,,384,0,6,,,,,5,,,55,0
40608,note_off,,,,,288,0,6,,,,,5,,,58,0
40608,note_on,,,,,0,0,7,,,,,6,,,45,75
40608,note_off,,,,,288,0,7,,,,,6,,,46,0
40608,note_on,,,,,0,0,5,,,,,4,,,60,92
40608,note_on,,,,,0,0,6,,,,,5,,,57,92
40608,note_off,,,,,288,0,5,,,,,4,,,62,0
40608,note_on,,,,,0,0,8,,,,,7,,,57,60
40608,note_off,,,,,288,0,8,,,,,7,,,58,0
40704,note_off,,,,,96,0,7,,,,,6,,,45,0
40704,note_off,,,,,96,0,8,,,,,7,,,57,0
40704,note_on,,,,,0,0,6,,,,,5,,,55,92
40704,note_on,,,,,0,0,5,,,,,4,,,58,92
40704,note_off,,,,,96,0,5,,,,,4,,,60,0
40704,note_off,,,,,96,0,6,,,,,5,,,57,0
40704,note_on,,,,,0,0,7,,,,,6,,,43,75
40704,note_on,,,,,0,0,8,,,,,7,,,55,60
40704,note_on,,,,,0,0,1,,,,,0,,,74,92
40704,note_off,,,,,768,0,1,,,,,0,,,70,0
40704,note_off,,,,,768,0,2,,,,,1,,,67,0
40704,note_on,,,,,0,0,2,,,,,1,,,70,92
41088,note_off,,,,,384,0,7,,,,,6,,,43,0
41088,note_on,,,,,0,0,2,,,,,1,,,74,92
41088,note_off,,,,,384,0,8,,,,,7,,,55,0
41088,note_on,,,,,0,0,1,,,,,0,,,82,92
41088,note_off,,,,,384,0,1,,,,,0,,,74,0
41088,note_off,,,,,384,0,5,,,,,4,,,58,0
41088,note_off,,,,,384,0,2,,,,,1,,,70,0
41088,note_off,,,,,384,0,6,,,,,5,,,55,0
41376,note_off,,,,,288,0,2,,,,,1,,,74,0
41376,note_on,,,,,0,0,1,,,,,0,,,81,92
41376,note_on,,,,,0,0,2,,,,,1,,,72,92
41376,note_off,,,,,288,0,1,,,,,0,,,82,0
41472,note_off,,,,,96,0,1,,,,,0,,,81,0
41472,note_on,,,,,384,0,7,,,,,6,,,31,75
41472,note_on,,,,,0,0,1,,,,,0,,,79,92
41472,note_on,,,,,384,0,8,,,,,7,,,43,60
41472,note_on,,,,,0,0,2,,,,,1,,,70,92
41472,note_on,,,,,384,0,6,,,,,5,,,43,92
41472,note_on,,,,,384,0,5,,,,,4,,,62,92
41472,note_off,,,,,96,0,2,,,,,1,,,72,0
41856,note_off,,,,,384,0,7,,,,,6,,,31,0
41856,note_on,,,,,0,0,7,,,,,6,,,34,75
41856,note_off,,,,,384,0,5,,,,,4,,,62,0
41856,note_on,,,,,0,0,8,,,,,7,,,46,60
41856,note_off,,,,,384,0,8,,,,,7,,,43,0
41856,note_on,,,,,0,0,5,,,,,4,,,62,92
41856,note_off,,,,,384,0,6,,,,,5,,,43,0
41856,note_on,,,,,0,0,6,,,,,5,,,46,92
42144,note_off,,,,,288,0,8,,,,,7,,,46,0
42144,note_on,,,,,0,0,8,,,,,7,,,45,60
42144,note_off,,,,,288,0,6,,,,,5,,,46,0
42144,note_off,,,,,288,0,5,,,,,4,,,62,0
42144,note_on,,,,,0,0,5,,,,,4,,,60,92
42144,note_on,,,,,0,0,6,,,,,5,,,45,92
42144,note_on,,,,,0,0,7,,,,,6,,,33,75
42144,note_off,,,,,288,0,7,,,,,6,,,34,0
42240,note_on,,,,,0,0,1,,,,,0,,,62,92
42240,note_on,,,,,0,0,8,,,,,7,,,43,60
42240,note_off,,,,,96,0,8,,,,,7,,,45,0
42240,note_off,,,,,96,0,6,,,,,5,,,45,0
42240,note_off,,,,,96,0,5,,,,,4,,,60,0
42240,note_on,,,,,0,0,5,,,,,4,,,58,92
42240,note_off,,,,,768,0,1,,,,,0,,,79,0
42240,note_on,,,,,0,0,7,,,,,6,,,31,75
42240,note_off,,,,,96,0,7,,,,,6,,,33,0
42240,note_on,,,,,0,0,6,,,,,5,,,43,92
42624,note_off,,,,,384,0,8,,,,,7,,,43,0
42624,note_on,,,,,0,0,2,,,,,1,,,67,92
42624,note_off,,,,,384,0,7,,,,,6,,,31,0
42624,note_off,,,,,1152,0,2,,,,,1,,,70,0
42624,note_off,,,,,384,0,5,,,,,4,,,58,0
42624,note_on,,,,,0,0,1,,,,,0,,,70,92
42624,note_off,,,,,384,0,1,,,,,0,,,62,0
42624,note_off,,,,,2688,0,3,,,,,2,,,70,0
42624,note_on,,,,,0,0,3,,,,,2,,,70,108
42624,note_off,,,,,384,0,6,,,,,5,,,43,0
42912,note_on,,,,,0,0,1,,,,,0,,,69,92
42912,note_off,,,,,288,0,1,,,,,0,,,70,0
42912,note_on,,,,,0,0,2,,,,,1,,,66,92
42912,note_off,,,,,288,0,3,,,,,2,,,70,0
42912,note_off,,,,,288,0,2,,,,,1,,,67,0
42912,note_on,,,,,0,0,3,,,,,2,,,69,108
43008,note_on,,,,,0,0,4,,,,,3,,,58,108
43008,note_on,,,,,0,0,3,,,,,2,,,67,108
43008,note_on,,,,,0,0,1,,,,,0,,,67,92
43008,note_off,,,,,96,0,1,,,,,0,,,69,0
43008,note_off,,,,,96,0,3,,,,,2,,,69,0
43008,note_on,,,,,384,0,8,,,,,7,,,51,60
43008,note_off,,,,,3072,0,4,,,,,3,,,67,0
43008,note_on,,,,,0,0,2,,,,,1,,,67,92
43008,note_off,,,,,96,0,2,,,,,1,,,66,0
43008,note_on,,,,,384,0,7,,,,,6,,,39,75
43008,note_on,,,,,384,0,6,,,,,5,,,51,92
43008,note_on,,,,,384,0,5,,,,,4,,,58,92
43392,note_off,,,,,384,0,6,,,,,5,,,51,0
43392,note_off,,,,,384,0,8,,,,,7,,,51,0
43392,note_on,,,,,0,0,6,,,,,5,,,55,92
43392,note_off,,,,,384,0,5,,,,,4,,,58,0
43392,note_on,,,,,0,0,5,,,,,4,,,58,92
43392,note_on,,,,,0,0,7,,,,,6,,,43,75
43392,note_off,,,,,384,0,7,,,,,6,,,39,0
43392,note_on,,,,,0,0,8,,,,,7,,,55,60
43680,note_off,,,,,288,0,8,,,,,7,,,55,0
43680,note_on,,,,,0,0,6,,,,,5,,,53,92
43680,note_on,,,,,0,0,8,,,,,7,,,53,60
43680,note_off,,,,,288,0,6,,,,,5,,,55,0
43680,note_off,,,,,288,0,7,,,,,6,,,43,0
43680,note_off,,,,,288,0,5,,,,,4,,,58,0
43680,note_on,,,,,0,0,7,,,,,6,,,41,75
43680,note_on,,,,,0,0,5,,,,,4,,,57,92
43776,note_off,,,,,96,0,5,,,,,4,,,57,0
43776,note_off,,,,,96,0,7,,,,,6,,,41,0
43776,note_on,,,,,0,0,8,,,,,7,,,51,60
43776,note_on,,,,,0,0,7,,,,,6,,,39,75
43776,note_on,,,,,0,0,6,,,,,5,,,51,92
43776,note_off,,,,,96,0,8,,,,,7,,,53,0
43776,note_on,,,,,0,0,5,,,,,4,,,55,92
43776,note_off,,,,,96,0,6,,,,,5,,,53,0
44160,note_off,,,,,1152,0,2,,,,,1,,,67,0
44160,note_on,,,,,0,0,2,,,,,1,,,70,92
44160,note_on,,,,,0,0,1,,,,,0,,,67,92
44160,note_off,,,,,384,0,5,,,,,4,,,55,0
44160,note_on,,,,,0,0,8,,,,,7,,,50,60
44160,note_off,,,,,384,0,8,,,,,7,,,51,0
44160,note_off,,,,,384,0,6,,,,,5,,,51,0
44160,note_on,,,,,0,0,4,,,,,3,,,70,108
44160,note_off,,,,,1152,0,1,,,,,0,,,67,0
44160,note_off,,,,,384,0,7,,,,,6,,,39,0
44160,note_on,,,,,0,0,7,,,,,6,,,38,75
44160,note_off,,,,,1152,0,3,,,,,2,,,67,0
44160,note_on,,,,,0,0,5,,,,,4,,,62,92
44160,note_on,,,,,0,0,6,,,,,5,,,50,92
44160,note_off,,,,,1152,0,4,,,,,3,,,58,0
44160,note_on,,,,,0,0,3,,,,,2,,,67,108
44544,note_off,,,,,384,0,3,,,,,2,,,67,0
44544,note_off,,,,,384,0,8,,,,,7,,,50,0
44544,note_on,,,,,0,0,5,,,,,4,,,64,92
44544,note_on,,,,,0,0,3,,,,,2,,,67,108
44544,note_off,,,,,384,0,5,,,,,4,,,62,0
44544,note_on,,,,,0,0,8,,,,,7,,,49,60
44544,note_on,,,,,0,0,4,,,,,3,,,70,108
44544,note_off,,,,,384,0,2,,,,,1,,,70,0
44544,note_on,,,,,0,0,6,,,,,5,,,49,92
44544,note_off,,,,,384,0,6,,,,,5,,,50,0
44544,note_on,,,,,0,0,2,,,,,1,,,70,92
44544,note_off,,,,,384,0,7,,,,,6,,,38,0
44544,note_on,,,,,0,0,7,,,,,6,,,37,75
44544,note_off,,,,,384,0,1,,,,,0,,,67,0
44544,note_on,,,,,0,0,1,,,,,0,,,67,92
44544,note_off,,,,,384,0,4,,,,,3,,,70,0
44928,note_on,,,,,0,0,5,,,,,4,,,64,92
44928,note_off,,,,,384,0,5,,,,,4,,,64,0
44928,note_on,,,,,0,0,6,,,,,5,,,49,92
44928,note_off,,,,,384,0,4,,,,,3,,,70,0
44928,note_off,,,,,384,0,2,,,,,1,,,70,0
44928,note_off,,,,,384,0,7,,,,,6,,,37,0
44928,note_on,,,,,0,0,4,,,,,3,,,69,108
44928,note_on,,,,,0,0,8,,,,,7,,,49,60
44928,note_off,,,,,384,0,8,,,,,7,,,49,0
44928,note_off,,,,,384,0,6,,,,,5,,,49,0
44928,note_off,,,,,384,0,3,,,,,2,,,67,0
44928,note_on,,,,,0,0,2,,,,,1,,,69,92
44928,note_on,,,,,0,0,3,,,,,2,,,67,108
44928,note_on,,,,,0,0,7,,,,,6,,,37,75
44928,note_off,,,,,384,0,1,,,,,0,,,67,0
44928,note_on,,,,,0,0,1,,,,,0,,,67,92
45312,note_on,,,,,0,0,5,,,,,4,,,64,92
45312,note_on,,,,,0,0,1,,,,,0,,,67,92
45312,note_off,,,,,384,0,5,,,,,4,,,64,0
45312,note_off,,,,,384,0,1,,,,,0,,,67,0
45312,note_off,,,,,384,0,3,,,,,2,,,67,0
45312,note_off,,,,,384,0,8,,,,,7,,,49,0
45312,note_off,,,,,384,0,4,,,,,3,,,69,0
45312,note_off,,,,,384,0,6,,,,,5,,,49,0
45312,note_on,,,,,0,0,6,,,,,5,,,49,92
45312,note_on,,,,,0,0,2,,,,,1,,,69,92
45312,note_off,,,,,384,0,2,,,,,1,,,69,0
45312,note_on,,,,,0,0,3,,,,,2,,,67,108
45312,note_on,,,,,0,0,8,,,,,7,,,49,60
45312,note_on,,,,,0,0,4,,,,,3,,,69,108
45312,note_on,,,,,0,0,7,,,,,6,,,37,75
45312,note_off,,,,,384,0,7,,,,,6,,,37,0
45696,note_on,,,,,0,0,4,,,,,3,,,69,108
45696,note_on,,,,,0,0,1,,,,,0,,,67,92
45696,note_on,,,,,0,0,7,,,,,6,,,37,75
45696,note_off,,,,,384,0,7,,,,,6,,,37,0
45696,note_off,,,,,384,0,2,,,,,1,,,69,0
45696,note_on,,,,,0,0,2,,,,,1,,,69,92
45696,note_off,,,,,384,0,4,,,,,3,,,69,0
45696,note_off,,,,,384,0,1,,,,,0,,,67,0
45696,note_off,,,,,384,0,3,,,,,2,,,67,0
45696,note_on,,,,,0,0,6,,,,,5,,,49,92
45696,note_on,,,,,0,0,3,,,,,2,,,67,108
45696,note_on,,,,,0,0,8,,,,,7,,,49,60
45696,note_off,,,,,384,0,8,,,,,7,,,49,0
45696,note_off,,,,,384,0,5,,,,,4,,,64,0
45696,note_off,,,,,384,0,6,,,,,5,,,49,0
45696,note_on,,,,,0,0,5,,,,,4,,,64,92
46080,note_off,,,,,384,0,5,,,,,4,,,64,0
46080,note_on,,,,,0,0,1,,,,,0,,,66,92
46080,note_off,,,,,384,0,1,,,,,0,,,67,0
46080,note_on,,,,,0,0,5,,,,,4,,,62,92
46080,note_off,,,,,384,0,4,,,,,3,,,69,0
46080,note_on,,,,,0,0,7,,,,,6,,,38,75
46080,note_off,,,,,384,0,7,,,,,6,,,37,0
46080,note_on,,,,,0,0,3,,,,,2,,,66,108
46080,note_off,,,,,384,0,3,,,,,2,,,67,0
46080,note_on,,,,,0,0,6,,,,,5,,,50,92
46080,note_off,,,,,384,0,6,,,,,5,,,49,0
46080,note_on,,,,,0,0,4,,,,,3,,,69,108
46080,note_off,,,,,384,0,2,,,,,1,,,69,0
46080,note_on,,,,,0,0,2,,,,,1,,,69,92
46080,note_off,,,,,384,0,8,,,,,7,,,49,0
46080,note_on,,,,,0,0,8,,,,,7,,,50,60
46464,note_off,,,,,384,0,4,,,,,3,,,69,0
46464,note_off,,,,,384,0,5,,,,,4,,,62,0
46464,note_on,,,,,0,0,5,,,,,4,,,62,92
46464,note_off,,,,,384,0,3,,,,,2,,,66,0
46464,note_off,,,,,384,0,8,,,,,7,,,50,0
46464,note_off,,,,,384,0,7,,,,,6,,,38,0
46464,note_on,,,,,0,0,7,,,,,6,,,38,75
46464,note_on,,,,,0,0,6,,,,,5,,,50,92
46464,note_on,,,,,0,0,4,,,,,3,,,67,108
46464,note_off,,,,,384,0,6,,,,,5,,,50,0
46464,note_on,,,,,0,0,8,,,,,7,,,50,60
46464,note_off,,,,,384,0,2,,,,,1,,,69,0
46464,note_off,,,,,384,0,1,,,,,0,,,66,0
46464,note_on,,,,,0,0,1,,,,,0,,,67,92
46464,note_on,,,,,0,0,3,,,,,2,,,67,108
46464,note_on,,,,,0,0,2,,,,,1,,,67,92
46848,note_off,,,,,384,0,8,,,,,7,,,50,0
46848,note_on,,,,,0,0,8,,,,,7,,,50,60
46848,note_off,,,,,384,0,2,,,,,1,,,67,0
46848,note_on,,,,,0,0,1,,,,,0,,,68,92
46848,note_on,,,,,0,0,3,,,,,2,,,68,108
46848,note_off,,,,,384,0,3,,,,,2,,,67,0
46848,note_on,,,,,0,0,6,,,,,5,,,50,92
46848,note_off,,,,,384,0,6,,,,,5,,,50,0
46848,note_off,,,,,384,0,4,,,,,3,,,67,0
46848,note_on,,,,,0,0,4,,,,,3,,,65,108
46848,note_off,,,,,384,0,7,,,,,6,,,38,0
46848,note_on,,,,,0,0,7,,,,,6,,,38,75
46848,note_off,,,,,384,0,5,,,,,4,,,62,0
46848,note_on,,,,,0,0,5,,,,,4,,,62,92
46848,note_on,,,,,0,0,2,,,,,1,,,65,92
46848,note_off,,,,,384,0,1,,,,,0,,,67,0
47232,note_off,,,,,384,0,7,,,,,6,,,38,0
47232,note_on,,,,,0,0,7,,,,,6,,,36,75
47232,note_on,,,,,0,0,8,,,,,7,,,48,60
47232,note_off,,,,,384,0,8,,,,,7,,,50,0
47232,note_on,,,,,0,0,5,,,,,4,,,62,92
47232,note_off,,,,,384,0,5,,,,,4,,,62,0
47232,note_off,,,,,384,0,6,,,,,5,,,50,0
47232,note_on,,,,,0,0,6,,,,,5,,,48,92
47424,note_on,,,,,0,0,4,,,,,3,,,63,108
47424,note_off,,,,,576,0,4,,,,,3,,,65,0
47424,note_off,,,,,576,0,2,,,,,1,,,65,0
47424,note_on,,,,,0,0,2,,,,,1,,,63,92
47616,note_on,,,,,0,0,6,,,,,5,,,47,92
47616,note_off,,,,,192,0,2,,,,,1,,,63,0
47616,note_on,,,,,0,0,4,,,,,3,,,62,108
47616,note_on,,,,,0,0,2,,,,,1,,,62,92
47616,note_on,,,,,0,0,8,,,,,7,,,47,60
47616,note_off,,,,,384,0,8,,,,,7,,,48,0
47616,note_off,,,,,384,0,7,,,,,6,,,36,0
47616,note_on,,,,,0,0,7,,,,,6,,,35,75
47616,note_on,,,,,0,0,5,,,,,4,,,62,92
47616,note_off,,,,,192,0,4,,,,,3,,,63,0
47616,note_off,,,,,384,0,6,,,,,5,,,48,0
47616,note_off,,,,,384,0,5,,,,,4,,,62,0
47712,note_off,,,,,96,0,5,,,,,4,,,62,0
48000,note_off,,,,,384,0,6,,,,,5,,,47,0
48000,note_on,,,,,0,0,8,,,,,7,,,47,60
48000,note_on,,,,,288,0,5,,,,,4,,,55,92
48000,note_on,,,,,0,0,1,,,,,0,,,67,92
48000,note_on,,,,,0,0,6,,,,,5,,,47,92
48000,note_off,,,,,384,0,2,,,,,1,,,62,0
48000,note_off,,,,,1152,0,3,,,,,2,,,68,0
48000,note_on,,,,,0,0,3,,,,,2,,,67,108
48000,note_off,,,,,1152,0,1,,,,,0,,,68,0
48000,note_off,,,,,384,0,8,,,,,7,,,47,0
48000,note_on,,,,,0,0,4,,,,,3,,,62,108
48000,note_off,,,,,384,0,4,,,,,3,,,62,0
48000,note_on,,,,,0,0,7,,,,,6,,,35,75
48000,note_on,,,,,0,0,2,,,,,1,,,62,92
48000,note_off,,,,,384,0,7,,,,,6,,,35,0
48384,note_on,,,,,0,0,2,,,,,1,,,62,92
48384,note_off,,,,,384,0,8,,,,,7,,,47,0
48384,note_on,,,,,0,0,8,,,,,7,,,47,60
48384,note_off,,,,,384,0,5,,,,,4,,,55,0
48384,note_on,,,,,0,0,6,,,,,5,,,47,92
48384,note_off,,,,,384,0,6,,,,,5,,,47,0
48384,note_on,,,,,0,0,3,,,,,2,,,67,108
48384,note_off,,,,,384,0,3,,,,,2,,,67,0
48384,note_off,,,,,384,0,2,,,,,1,,,62,0
48384,note_off,,,,,384,0,4,,,,,3,,,62,0
48384,note_on,,,,,0,0,5,,,,,4,,,55,92
48384,note_on,,,,,0,0,4,,,,,3,,,62,108
48384,note_off,,,,,384,0,7,,,,,6,,,35,0
48384,note_off,,,,,384,0,1,,,,,0,,,67,0
48384,note_on,,,,,0,0,1,,,,,0,,,67,92
48384,note_on,,,,,0,0,7,,,,,6,,,35,75
48768,note_off,,,,,384,0,5,,,,,4,,,55,0
48768,note_off,,,,,384,0,2,,,,,1,,,62,0
48768,note_on,,,,,0,0,2,,,,,1,,,62,92
48768,note_on,,,,,0,0,6,,,,,5,,,47,92
48768,note_off,,,,,384,0,6,,,,,5,,,47,0
48768,note_on,,,,,0,0,1,,,,,0,,,65,92
48768,note_on,,,,,0,0,5,,,,,4,,,55,92
48768,note_on,,,,,0,0,4,,,,,3,,,62,108
48768,note_on,,,,,0,0,3,,,,,2,,,65,108
48768,note_off,,,,,384,0,3,,,,,2,,,67,0
48768,note_off,,,,,384,0,1,,,,,0,,,67,0
48768,note_off,,,,,384,0,7,,,,,6,,,35,0
48768,note_off,,,,,384,0,8,,,,,7,,,47,0
48768,note_on,,,,,0,0,7,,,,,6,,,35,75
48768,note_off,,,,,384,0,4,,,,,3,,,62,0
48768,note_on,,,,,0,0,8,,,,,7,,,47,60
49152,note_off,,,,,384,0,4,,,,,3,,,62,0
49152,note_on,,,,,0,0,4,,,,,3,,,62,108
49152,note_on,,,,,0,0,6,,,,,5,,,48,92
49152,note_off,,,,,384,0,6,,,,,5,,,47,0
49152,note_on,,,,,0,0,3,,,,,2,,,63,108
49152,note_on,,,,,0,0,8,,,,,7,,,48,60
49152,note_on,,,,,0,0,7,,,,,6,,,36,75
49152,note_off,,,,,384,0,7,,,,,6,,,35,0
49152,note_on,,,,,0,0,5,,,,,4,,,55,92
49152,note_off,,,,,384,0,2,,,,,1,,,62,0
49152,note_on,,,,,0,0,2,,,,,1,,,62,92
49152,note_off,,,,,384,0,3,,,,,2,,,65,0
49152,note_off,,,,,384,0,8,,,,,7,,,47,0
49152,note_off,,,,,384,0,5,,,,,4,,,55,0
49152,note_off,,,,,384,0,1,,,,,0,,,65,0
49152,note_on,,,,,0,0,1,,,,,0,,,63,92
49536,note_off,,,,,384,0,1,,,,,0,,,63,0
49536,note_on,,,,,0,0,1,,,,,0,,,63,92
49536,note_on,,,,,0,0,6,,,,,5,,,46,92
49536,note_off,,,,,384,0,2,,,,,1,,,62,0
49536,note_on,,,,,0,0,2,,,,,1,,,62,92
49536,note_off,,,,,384,0,7,,,,,6,,,36,0
49536,note_on,,,,,0,0,7,,,,,6,,,34,75
49536,note_on,,,,,0,0,8,,,,,7,,,46,60
49536,note_off,,,,,384,0,4,,,,,3,,,62,0
49536,note_off,,,,,384,0,6,,,,,5,,,48,0
49536,note_off,,,,,384,0,3,,,,,2,,,63,0
49536,note_on,,,,,0,0,3,,,,,2,,,63,108
49536,note_off,,,,,384,0,5,,,,,4,,,55,0
49536,note_on,,,,,0,0,5,,,,,4,,,55,92
49536,note_on,,,,,0,0,4,,,,,3,,,62,108
49536,note_off,,,,,384,0,8,,,,,7,,,48,0
49920,note_on,,,,,0,0,4,,,,,3,,,60,108
49920,note_off,,,,,384,0,4,,,,,3,,,62,0
49920,note_on,,,,,0,0,5,,,,,4,,,57,92
49920,note_off,,,,,384,0,8,,,,,7,,,46,0
49920,note_off,,,,,384,0,1,,,,,0,,,63,0
49920,note_off,,,,,384,0,5,,,,,4,,,55,0
49920,note_on,,,,,0,0,1,,,,,0,,,63,92
49920,note_on,,,,,0,0,8,,,,,7,,,45,60
49920,note_off,,,,,384,0,7,,,,,6,,,34,0
49920,note_on,,,,,0,0,7,,,,,6,,,33,75
49920,note_on,,,,,0,0,6,,,,,5,,,45,92
49920,note_off,,,,,384,0,2,,,,,1,,,62,0
49920,note_on,,,,,0,0,2,,,,,1,,,60,92
49920,note_off,,,,,384,0,6,,,,,5,,,46,0
49920,note_off,,,,,384,0,3,,,,,2,,,63,0
49920,note_on,,,,,0,0,3,,,,,2,,,63,108
50304,note_off,,,,,384,0,7,,,,,6,,,33,0
50304,note_on,,,,,0,0,6,,,,,5,,,43,92
50304,note_off,,,,,384,0,6,,,,,5,,,45,0
50304,note_off,,,,,384,0,1,,,,,0,,,63,0
50304,note_on,,,,,0,0,1,,,,,0,,,63,92
50304,note_on,,,,,0,0,5,,,,,4,,,57,92
50304,note_off,,,,,384,0,5,,,,,4,,,57,0
50304,note_on,,,,,0,0,3,,,,,2,,,63,108
50304,note_off,,,,,384,0,3,,,,,2,,,63,0
50304,note_on,,,,,0,0,2,,,,,1,,,60,92
50304,note_off,,,,,384,0,2,,,,,1,,,60,0
50304,note_on,,,,,0,0,4,,,,,3,,,60,108
50304,note_off,,,,,384,0,4,,,,,3,,,60,0
50304,note_off,,,,,384,0,8,,,,,7,,,45,0
50304,note_on,,,,,0,0,7,,,,,6,,,31,75
50304,note_on,,,,,0,0,8,,,,,7,,,43,60
50688,note_off,,,,,384,0,5,,,,,4,,,57,0
50688,note_on,,,,,0,0,5,,,,,4,,,57,92
50688,note_on,,,,,0,0,8,,,,,7,,,42,60
50688,note_off,,,,,384,0,8,,,,,7,,,43,0
50688,note_off,,,,,384,0,6,,,,,5,,,43,0
50688,note_on,,,,,0,0,4,,,,,3,,,60,108
50688,note_off,,,,,384,0,4,,,,,3,,,60,0
50688,note_on,,,,,0,0,6,,,,,5,,,42,92
50688,note_off,,,,,384,0,1,,,,,0,,,63,0
50688,note_on,,,,,0,0,1,,,,,0,,,62,92
50688,note_on,,,,,0,0,3,,,,,2,,,62,108
50688,note_off,,,,,384,0,3,,,,,2,,,63,0
50688,note_on,,,,,0,0,7,,,,,6,,,30,75
50688,note_off,,,,,384,0,7,,,,,6,,,31,0
50688,note_on,,,,,0,0,2,,,,,1,,,60,92
50688,note_off,,,,,384,0,2,,,,,1,,,60,0
52224,note_off,,,,,1536,0,4,,,,,3,,,60,0
52224,note_off,,,,,1536,0,1,,,,,0,,,62,0
52224,end_of_track,,,,,0,1,1,,,,,,,,,
52224,end_of_track,,,,,0,1,7,,,,,,,,,
52224,note_off,,,,,1536,0,7,,,,,6,,,30,0
52224,note_off,,,,,1536,0,2,,,,,1,,,60,0
52224,end_of_track,,,,,0,1,4,,,,,,,,,
52224,end_of_track,,,,,0,1,2,,,,,,,,,
52224,note_off,,,,,1536,0,3,,,,,2,,,62,0
52224,end_of_track,,,,,0,1,8,,,,,,,,,
52224,note_off,,,,,1536,0,8,,,,,7,,,42,0
52224,end_of_track,,,,,0,1,3,,,,,,,,,
52224,end_of_track,,,,,0,1,6,,,,,,,,,
52224,note_off,,,,,1536,0,6,,,,,5,,,42,0
52224,end_of_track,,,,,0,1,5,,,,,,,,,
52224,note_off,,,,,1536,0,5,,,,,4,,,57,0
