tick,type,numerator,denominator,clocks_per_click,notated_32nd_notes_per_beat,time,meta,track,data,tempo,control,value,channel,program,key,note,velocity
0,time_signature,3,4,96,8,0,1,0,,,,,,,,,
0,track_name,,,,,0,1,7,,,,,,,,,
0,key_signature,,,,,0,1,6,,,,,,,A,,
0,program_change,,,,,0,0,6,,,,,4,41,,,
0,control_change,,,,,0,0,6,,,7,127,4,,,,
0,control_change,,,,,0,0,6,,,10,109,4,,,,
0,control_change,,,,,0,0,6,,,0,0,4,,,,
0,track_name,,,,,0,1,6,,,,,,,,,
0,key_signature,,,,,0,1,5,,,,,,,A,,
0,program_change,,,,,0,0,5,,,,,3,48,,,
0,control_change,,,,,0,0,5,,,7,127,3,,,,
0,control_change,,,,,0,0,5,,,10,109,3,,,,
0,control_change,,,,,0,0,5,,,0,0,3,,,,
0,track_name,,,,,0,1,5,,,,,,,,,
0,key_signature,,,,,0,1,4,,,,,,,A,,
0,program_change,,,,,0,0,4,,,,,2,48,,,
0,control_change,,,,,0,0,4,,,7,127,2,,,,
0,control_change,,,,,0,0,4,,,10,21,2,,,,
0,control_change,,,,,0,0,2,,,10,109,1,,,,
0,control_change,,,,,0,0,2,,,7,127,1,,,,
0,program_change,,,,,0,0,2,,,,,1,40,,,
0,key_signature,,,,,0,1,2,,,,,,,A,,
0,track_name,,,,,0,1,3,,,,,,,,,
0,control_change,,,,,0,0,3,,,0,0,10,,,,
0,control_change,,,,,0,0,7,,,0,0,5,,,,
0,control_change,,,,,0,0,3,,,10,21,10,,,,
0,program_change,,,,,0,0,3,,,,,10,42,,,
0,key_signature,,,,,0,1,3,,,,,,,A,,
0,note_on,,,,,0,0,3,,,,,10,,,57,92
0,key_signature,,,,,0,1,15,,,,,,,C,,
0,track_name,,,,,0,1,4,,,,,,,,,
0,control_change,,,,,0,0,4,,,0,0,2,,,,
0,control_change,,,,,0,0,3,,,7,127,10,,,,
0,control_change,,,,,0,0,7,,,10,63,5,,,,
0,control_change,,,,,0,0,7,,,7,127,5,,,,
0,program_change,,,,,0,0,7,,,,,5,42,,,
0,end_of_track,,,,,0,1,10,,,,,,,,,
0,track_name,,,,,0,1,11,,,,,,,,,
0,key_signature,,,,,0,1,11,,,,,,,C,,
0,end_of_track,,,,,0,1,11,,,,,,,,,
0,track_name,,,,,0,1,12,,,,,,,,,
0,key_signature,,,,,0,1,12,,,,,,,C,,
0,key_signature,,,,,0,1,10,,,,,,,C,,
0,end_of_track,,,,,0,1,12,,,,,,,,,
0,key_signature,,,,,0,1,13,,,,,,,C,,
0,end_of_track,,,,,0,1,13,,,,,,,,,
0,track_name,,,,,0,1,14,,,,,,,,,
0,key_signature,,,,,0,1,14,,,,,,,C,,
0,end_of_track,,,,,0,1,14,,,,,,,,,
0,track_name,,,,,0,1,15,,,,,,,,,
0,track_name,,,,,0,1,13,,,,,,,,,
0,control_change,,,,,0,0,2,,,0,0,1,,,,
0,track_name,,,,,0,1,10,,,,,,,,,
0,key_signature,,,,,0,1,9,,,,,,,A,,
0,key_signature,,,,,0,1,7,,,,,,,A,,
0,note_on,,,,,0,0,7,,,,,5,,,57,92
0,track_name,,,,,0,1,8,,,,,,,,,
0,control_change,,,,,0,0,8,,,0,0,6,,,,
0,control_change,,,,,0,0,8,,,10,64,6,,,,
0,control_change,,,,,0,0,8,,,7,127,6,,,,
0,note_on,,,,,0,0,9,,,,,7,,,57,45
0,program_change,,,,,0,0,8,,,,,6,43,,,
0,note_on,,,,,0,0,8,,,,,6,,,45,75
0,track_name,,,,,0,1,9,,,,,,,,,
0,control_change,,,,,0,0,9,,,0,0,7,,,,
0,control_change,,,,,0,0,9,,,10,63,7,,,,
0,control_change,,,,,0,0,9,,,7,127,7,,,,
0,program_change,,,,,0,0,9,,,,,7,6,,,
0,key_signature,,,,,0,1,8,,,,,,,A,,
0,track_name,,,,,0,1,2,,,,,,,,,
0,end_of_track,,,,,0,1,15,,,,,,,,,
0,sequencer_specific,,,,,0,1,0,"(0, 0, 65)",,,,,,,,
0,key_signature,,,,,0,1,1,,,,,,,A,,
0,program_change,,,,,0,0,1,,,,,0,40,,,
0,control_change,,,,,0,0,1,,,7,127,0,,,,
0,set_tempo,,,,,0,1,0,,666666,,,,,,,
0,control_change,,,,,0,0,1,,,0,0,0,,,,
0,track_name,,,,,0,1,1,,,,,,,,,
0,control_change,,,,,0,0,1,,,10,21,0,,,,
320,note_off,,,,,320,0,9,,,,,7,,,57,0
320,note_off,,,,,320,0,8,,,,,6,,,45,0
384,note_on,,,,,384,0,1,,,,,0,,,73,127
384,note_on,,,,,64,0,9,,,,,7,,,45,45
384,note_on,,,,,0,0,7,,,,,5,,,45,92
384,note_off,,,,,384,0,7,,,,,5,,,57,0
384,note_on,,,,,384,0,4,,,,,2,,,73,127
384,note_on,,,,,64,0,8,,,,,6,,,33,75
384,note_on,,,,,384,0,5,,,,,3,,,69,127
384,note_on,,,,,384,0,6,,,,,4,,,64,127
384,note_on,,,,,384,0,2,,,,,1,,,69,127
384,note_on,,,,,0,0,3,,,,,10,,,45,92
384,note_off,,,,,384,0,3,,,,,10,,,57,0
704,note_off,,,,,320,0,8,,,,,6,,,33,0
704,note_off,,,,,320,0,9,,,,,7,,,45,0
768,note_on,,,,,0,0,4,,,,,2,,,74,127
768,note_off,,,,,384,0,4,,,,,2,,,73,0
768,note_on,,,,,0,0,6,,,,,4,,,62,127
768,note_off,,,,,384,0,7,,,,,5,,,45,0
768,note_off,,,,,384,0,5,,,,,3,,,69,0
768,note_on,,,,,0,0,5,,,,,3,,,71,127
768,note_off,,,,,384,0,3,,,,,10,,,45,0
768,note_off,,,,,384,0,6,,,,,4,,,64,0
768,note_on,,,,,0,0,1,,,,,0,,,74,127
768,note_off,,,,,384,0,1,,,,,0,,,73,0
768,note_on,,,,,0,0,2,,,,,1,,,71,127
768,note_off,,,,,384,0,2,,,,,1,,,69,0
1152,note_on,,,,,0,0,1,,,,,0,,,76,92
1152,note_on,,,,,0,0,4,,,,,2,,,76,108
1152,note_off,,,,,384,0,4,,,,,2,,,74,0
1152,note_off,,,,,384,0,5,,,,,3,,,71,0
1152,note_on,,,,,0,0,5,,,,,3,,,73,108
1152,note_on,,,,,0,0,2,,,,,1,,,73,92
1152,note_off,,,,,384,0,2,,,,,1,,,71,0
1152,note_on,,,,,0,0,6,,,,,4,,,61,92
1152,note_off,,,,,384,0,6,,,,,4,,,62,0
1152,note_off,,,,,384,0,1,,,,,0,,,74,0
1536,note_on,,,,,832,0,8,,,,,6,,,33,75
1536,note_on,,,,,832,0,9,,,,,7,,,45,45
1536,note_on,,,,,768,0,7,,,,,5,,,45,92
1536,note_on,,,,,768,0,3,,,,,10,,,45,92
1728,note_on,,,,,0,0,2,,,,,1,,,71,92
1728,note_on,,,,,0,0,1,,,,,0,,,74,92
1728,note_off,,,,,576,0,2,,,,,1,,,73,0
1728,note_off,,,,,576,0,1,,,,,0,,,76,0
1728,note_off,,,,,576,0,4,,,,,2,,,76,0
1728,note_on,,,,,0,0,5,,,,,3,,,71,108
1728,note_on,,,,,0,0,6,,,,,4,,,62,92
1728,note_off,,,,,576,0,6,,,,,4,,,61,0
1728,note_on,,,,,0,0,4,,,,,2,,,74,108
1728,note_off,,,,,576,0,5,,,,,3,,,73,0
1856,note_off,,,,,320,0,8,,,,,6,,,33,0
1856,note_off,,,,,320,0,9,,,,,7,,,45,0
1920,note_off,,,,,192,0,6,,,,,4,,,62,0
1920,note_on,,,,,64,0,8,,,,,6,,,37,75
1920,note_off,,,,,384,0,3,,,,,10,,,45,0
1920,note_on,,,,,0,0,6,,,,,4,,,64,92
1920,note_off,,,,,192,0,4,,,,,2,,,74,0
1920,note_on,,,,,0,0,4,,,,,2,,,73,108
1920,note_on,,,,,0,0,5,,,,,3,,,69,108
1920,note_on,,,,,64,0,9,,,,,7,,,49,45
1920,note_on,,,,,0,0,1,,,,,0,,,73,92
1920,note_off,,,,,192,0,1,,,,,0,,,74,0
1920,note_off,,,,,384,0,7,,,,,5,,,45,0
1920,note_on,,,,,0,0,2,,,,,1,,,69,92
1920,note_off,,,,,192,0,2,,,,,1,,,71,0
1920,note_on,,,,,0,0,7,,,,,5,,,49,92
1920,note_off,,,,,192,0,5,,,,,3,,,71,0
1920,note_on,,,,,0,0,3,,,,,10,,,49,92
2240,note_off,,,,,320,0,8,,,,,6,,,37,0
2240,note_off,,,,,320,0,9,,,,,7,,,49,0
2304,note_on,,,,,0,0,5,,,,,3,,,69,108
2304,note_on,,,,,64,0,9,,,,,7,,,50,45
2304,note_on,,,,,0,0,2,,,,,1,,,69,92
2304,note_off,,,,,384,0,2,,,,,1,,,69,0
2304,note_on,,,,,0,0,1,,,,,0,,,71,92
2304,note_off,,,,,384,0,1,,,,,0,,,73,0
2304,note_off,,,,,384,0,4,,,,,2,,,73,0
2304,note_on,,,,,0,0,4,,,,,2,,,71,108
2304,note_on,,,,,64,0,8,,,,,6,,,38,75
2304,note_off,,,,,384,0,5,,,,,3,,,69,0
2304,note_on,,,,,0,0,3,,,,,10,,,50,92
2304,note_off,,,,,384,0,3,,,,,10,,,49,0
2304,note_on,,,,,0,0,7,,,,,5,,,50,92
2304,note_off,,,,,384,0,7,,,,,5,,,49,0
2304,note_off,,,,,384,0,6,,,,,4,,,64,0
2304,note_on,,,,,0,0,6,,,,,4,,,66,92
2624,note_off,,,,,320,0,8,,,,,6,,,38,0
2624,note_off,,,,,320,0,9,,,,,7,,,50,0
2688,note_off,,,,,384,0,7,,,,,5,,,50,0
2688,note_on,,,,,0,0,6,,,,,4,,,64,92
2688,note_off,,,,,384,0,3,,,,,10,,,50,0
2688,note_on,,,,,0,0,3,,,,,10,,,52,92
2688,note_on,,,,,64,0,9,,,,,7,,,52,45
2688,note_off,,,,,384,0,5,,,,,3,,,69,0
2688,note_on,,,,,64,0,8,,,,,6,,,40,75
2688,note_off,,,,,384,0,1,,,,,0,,,71,0
2688,note_on,,,,,0,0,4,,,,,2,,,71,108
2688,note_on,,,,,0,0,1,,,,,0,,,71,92
2688,note_off,,,,,384,0,4,,,,,2,,,71,0
2688,note_on,,,,,0,0,5,,,,,3,,,68,108
2688,note_on,,,,,0,0,2,,,,,1,,,68,92
2688,note_off,,,,,384,0,2,,,,,1,,,69,0
2688,note_off,,,,,384,0,6,,,,,4,,,66,0
2688,note_on,,,,,0,0,7,,,,,5,,,52,92
3008,note_off,,,,,320,0,8,,,,,6,,,40,0
3008,note_off,,,,,320,0,9,,,,,7,,,52,0
3072,note_on,,,,,0,0,3,,,,,10,,,54,92
3072,note_off,,,,,384,0,3,,,,,10,,,52,0
3072,note_on,,,,,0,0,4,,,,,2,,,71,108
3072,note_on,,,,,0,0,1,,,,,0,,,71,92
3072,note_off,,,,,384,0,7,,,,,5,,,52,0
3072,note_off,,,,,384,0,5,,,,,3,,,68,0
3072,note_on,,,,,0,0,7,,,,,5,,,54,92
3072,note_off,,,,,384,0,6,,,,,4,,,64,0
3072,note_on,,,,,0,0,6,,,,,4,,,63,92
3072,note_on,,,,,64,0,9,,,,,7,,,54,45
3072,note_on,,,,,64,0,8,,,,,6,,,42,75
3072,note_off,,,,,384,0,4,,,,,2,,,71,0
3072,note_on,,,,,0,0,2,,,,,1,,,69,92
3072,note_off,,,,,384,0,2,,,,,1,,,68,0
3072,note_off,,,,,384,0,1,,,,,0,,,71,0
3072,note_on,,,,,0,0,5,,,,,3,,,69,108
3392,note_off,,,,,320,0,9,,,,,7,,,54,0
3392,note_off,,,,,320,0,8,,,,,6,,,42,0
3456,note_off,,,,,384,0,6,,,,,4,,,63,0
3456,note_on,,,,,0,0,6,,,,,4,,,64,92
3456,note_on,,,,,0,0,4,,,,,2,,,71,108
3456,note_on,,,,,0,0,1,,,,,0,,,71,92
3456,note_on,,,,,0,0,5,,,,,3,,,68,108
3456,note_on,,,,,0,0,3,,,,,10,,,52,92
3456,note_off,,,,,384,0,3,,,,,10,,,54,0
3456,note_off,,,,,384,0,1,,,,,0,,,71,0
3456,note_off,,,,,384,0,7,,,,,5,,,54,0
3456,note_on,,,,,0,0,7,,,,,5,,,52,92
3456,note_on,,,,,64,0,9,,,,,7,,,52,45
3456,note_on,,,,,64,0,8,,,,,6,,,40,75
3456,note_on,,,,,0,0,2,,,,,1,,,68,92
3456,note_off,,,,,384,0,2,,,,,1,,,69,0
3456,note_off,,,,,384,0,5,,,,,3,,,69,0
3456,note_off,,,,,384,0,4,,,,,2,,,71,0
3776,note_off,,,,,320,0,8,,,,,6,,,40,0
3776,note_off,,,,,320,0,9,,,,,7,,,52,0
3840,note_off,,,,,384,0,4,,,,,2,,,71,0
3840,note_on,,,,,0,0,4,,,,,2,,,76,108
3840,note_off,,,,,384,0,1,,,,,0,,,71,0
3840,note_off,,,,,384,0,5,,,,,3,,,68,0
3840,note_on,,,,,0,0,5,,,,,3,,,73,108
3840,note_on,,,,,0,0,1,,,,,0,,,76,92
3840,note_off,,,,,384,0,7,,,,,5,,,52,0
3840,note_on,,,,,0,0,2,,,,,1,,,73,92
3840,note_off,,,,,384,0,2,,,,,1,,,68,0
3840,note_off,,,,,384,0,6,,,,,4,,,64,0
3840,note_off,,,,,384,0,3,,,,,10,,,52,0
4224,note_off,,,,,384,0,4,,,,,2,,,76,0
4224,note_on,,,,,0,0,4,,,,,2,,,74,108
4224,note_off,,,,,384,0,1,,,,,0,,,76,0
4224,note_on,,,,,0,0,2,,,,,1,,,71,92
4224,note_off,,,,,384,0,2,,,,,1,,,73,0
4224,note_on,,,,,0,0,1,,,,,0,,,74,92
4224,note_off,,,,,384,0,5,,,,,3,,,73,0
4224,note_on,,,,,0,0,5,,,,,3,,,71,108
4608,note_off,,,,,384,0,1,,,,,0,,,74,0
4608,note_on,,,,,0,0,5,,,,,3,,,69,108
4608,note_on,,,,,0,0,1,,,,,0,,,73,92
4608,note_on,,,,,0,0,2,,,,,1,,,69,92
4608,note_off,,,,,384,0,2,,,,,1,,,71,0
4608,note_off,,,,,384,0,4,,,,,2,,,74,0
4608,note_on,,,,,0,0,4,,,,,2,,,73,108
4608,note_off,,,,,384,0,5,,,,,3,,,71,0
4992,note_on,,,,,0,0,2,,,,,1,,,68,92
4992,note_on,,,,,0,0,1,,,,,0,,,71,92
4992,note_off,,,,,384,0,4,,,,,2,,,73,0
4992,note_on,,,,,0,0,4,,,,,2,,,71,108
4992,note_on,,,,,1152,0,6,,,,,4,,,57,92
4992,note_on,,,,,1216,0,9,,,,,7,,,54,45
4992,note_off,,,,,384,0,2,,,,,1,,,69,0
4992,note_off,,,,,384,0,1,,,,,0,,,73,0
4992,note_on,,,,,1152,0,3,,,,,10,,,54,92
4992,note_on,,,,,1216,0,8,,,,,6,,,42,75
4992,note_off,,,,,384,0,5,,,,,3,,,69,0
4992,note_on,,,,,1152,0,7,,,,,5,,,54,92
4992,note_on,,,,,0,0,5,,,,,3,,,68,108
5312,note_off,,,,,320,0,9,,,,,7,,,54,0
5312,note_off,,,,,320,0,8,,,,,6,,,42,0
5376,note_on,,,,,0,0,7,,,,,5,,,52,92
5376,note_on,,,,,0,0,3,,,,,10,,,52,92
5376,note_off,,,,,384,0,3,,,,,10,,,54,0
5376,note_on,,,,,0,0,1,,,,,0,,,73,92
5376,note_on,,,,,0,0,6,,,,,4,,,56,92
5376,note_off,,,,,384,0,6,,,,,4,,,57,0
5376,note_on,,,,,0,0,2,,,,,1,,,69,92
5376,note_off,,,,,384,0,2,,,,,1,,,68,0
5376,note_off,,,,,384,0,5,,,,,3,,,68,0
5376,note_on,,,,,0,0,5,,,,,3,,,69,108
5376,note_on,,,,,64,0,9,,,,,7,,,52,45
5376,note_off,,,,,384,0,1,,,,,0,,,71,0
5376,note_off,,,,,384,0,7,,,,,5,,,54,0
5376,note_off,,,,,384,0,4,,,,,2,,,71,0
5376,note_on,,,,,64,0,8,,,,,6,,,40,75
5376,note_on,,,,,0,0,4,,,,,2,,,73,108
5696,note_off,,,,,320,0,9,,,,,7,,,52,0
5696,note_off,,,,,320,0,8,,,,,6,,,40,0
5760,note_on,,,,,0,0,4,,,,,2,,,74,108
5760,note_off,,,,,384,0,4,,,,,2,,,73,0
5760,note_on,,,,,0,0,3,,,,,10,,,50,92
5760,note_on,,,,,0,0,5,,,,,3,,,71,108
5760,note_off,,,,,384,0,1,,,,,0,,,73,0
5760,note_on,,,,,0,0,7,,,,,5,,,50,92
5760,note_off,,,,,384,0,7,,,,,5,,,52,0
5760,note_off,,,,,384,0,5,,,,,3,,,69,0
5760,note_on,,,,,0,0,1,,,,,0,,,74,92
5760,note_on,,,,,64,0,9,,,,,7,,,50,45
5760,note_off,,,,,384,0,3,,,,,10,,,52,0
5760,note_on,,,,,64,0,8,,,,,6,,,38,75
5760,note_on,,,,,0,0,2,,,,,1,,,71,92
5760,note_off,,,,,384,0,2,,,,,1,,,69,0
5760,note_on,,,,,0,0,6,,,,,4,,,54,92
5760,note_off,,,,,384,0,6,,,,,4,,,56,0
6080,note_off,,,,,320,0,9,,,,,7,,,50,0
6080,note_off,,,,,320,0,8,,,,,6,,,38,0
6144,note_off,,,,,384,0,1,,,,,0,,,74,0
6144,note_on,,,,,0,0,1,,,,,0,,,74,92
6144,note_on,,,,,0,0,7,,,,,5,,,49,92
6144,note_off,,,,,384,0,7,,,,,5,,,50,0
6144,note_on,,,,,64,0,8,,,,,6,,,37,75
6144,note_on,,,,,64,0,9,,,,,7,,,49,45
6144,note_off,,,,,384,0,4,,,,,2,,,74,0
6144,note_on,,,,,0,0,4,,,,,2,,,74,108
6144,note_off,,,,,384,0,6,,,,,4,,,54,0
6144,note_on,,,,,0,0,5,,,,,3,,,71,108
6144,note_off,,,,,384,0,5,,,,,3,,,71,0
6144,note_on,,,,,0,0,6,,,,,4,,,52,92
6144,note_on,,,,,0,0,3,,,,,10,,,49,92
6144,note_off,,,,,384,0,3,,,,,10,,,50,0
6144,note_on,,,,,0,0,2,,,,,1,,,71,92
6144,note_off,,,,,384,0,2,,,,,1,,,71,0
6464,note_off,,,,,320,0,8,,,,,6,,,37,0
6464,note_off,,,,,320,0,9,,,,,7,,,49,0
6528,note_off,,,,,384,0,1,,,,,0,,,74,0
6528,note_on,,,,,64,0,9,,,,,7,,,50,45
6528,note_off,,,,,384,0,3,,,,,10,,,49,0
6528,note_on,,,,,0,0,3,,,,,10,,,50,92
6528,note_on,,,,,0,0,6,,,,,4,,,54,92
6528,note_off,,,,,384,0,6,,,,,4,,,52,0
6528,note_on,,,,,0,0,4,,,,,2,,,73,108
6528,note_off,,,,,384,0,5,,,,,3,,,71,0
6528,note_on,,,,,0,0,5,,,,,3,,,69,108
6528,note_off,,,,,384,0,2,,,,,1,,,71,0
6528,note_on,,,,,0,0,1,,,,,0,,,73,92
6528,note_off,,,,,384,0,4,,,,,2,,,74,0
6528,note_on,,,,,0,0,7,,,,,5,,,50,92
6528,note_off,,,,,384,0,7,,,,,5,,,49,0
6528,note_on,,,,,64,0,8,,,,,6,,,38,75
6528,note_on,,,,,0,0,2,,,,,1,,,69,92
6848,note_off,,,,,320,0,8,,,,,6,,,38,0
6848,note_off,,,,,320,0,9,,,,,7,,,50,0
6912,note_on,,,,,0,0,4,,,,,2,,,71,108
6912,note_on,,,,,64,0,8,,,,,6,,,40,75
6912,note_off,,,,,384,0,3,,,,,10,,,50,0
6912,note_on,,,,,0,0,3,,,,,10,,,52,92
6912,note_on,,,,,0,0,7,,,,,5,,,52,92
6912,note_off,,,,,384,0,7,,,,,5,,,50,0
6912,note_off,,,,,384,0,6,,,,,4,,,54,0
6912,note_on,,,,,0,0,6,,,,,4,,,56,92
6912,note_on,,,,,0,0,5,,,,,3,,,68,108
6912,note_off,,,,,384,0,2,,,,,1,,,69,0
6912,note_on,,,,,0,0,2,,,,,1,,,68,92
6912,note_off,,,,,384,0,5,,,,,3,,,69,0
6912,note_on,,,,,64,0,9,,,,,7,,,52,45
6912,note_on,,,,,0,0,1,,,,,0,,,71,92
6912,note_off,,,,,384,0,1,,,,,0,,,73,0
6912,note_off,,,,,384,0,4,,,,,2,,,73,0
7232,note_off,,,,,320,0,8,,,,,6,,,40,0
7232,note_off,,,,,320,0,9,,,,,7,,,52,0
7296,note_on,,,,,64,0,9,,,,,7,,,52,45
7296,note_off,,,,,384,0,2,,,,,1,,,68,0
7296,note_off,,,,,384,0,5,,,,,3,,,68,0
7296,note_off,,,,,384,0,7,,,,,5,,,52,0
7296,note_on,,,,,0,0,7,,,,,5,,,52,92
7296,note_on,,,,,0,0,5,,,,,3,,,66,108
7296,note_on,,,,,0,0,2,,,,,1,,,66,92
7296,note_off,,,,,384,0,6,,,,,4,,,56,0
7296,note_on,,,,,0,0,3,,,,,10,,,52,92
7296,note_on,,,,,0,0,1,,,,,0,,,69,92
7296,note_off,,,,,384,0,1,,,,,0,,,71,0
7296,note_off,,,,,384,0,3,,,,,10,,,52,0
7296,note_on,,,,,64,0,8,,,,,6,,,40,75
7296,note_on,,,,,0,0,6,,,,,4,,,59,92
7296,note_on,,,,,0,0,4,,,,,2,,,69,108
7296,note_off,,,,,384,0,4,,,,,2,,,71,0
7616,note_off,,,,,320,0,8,,,,,6,,,40,0
7616,note_off,,,,,320,0,9,,,,,7,,,52,0
7680,note_on,,,,,0,0,7,,,,,5,,,50,92
7680,note_off,,,,,384,0,7,,,,,5,,,52,0
7680,note_on,,,,,0,0,6,,,,,4,,,64,92
7680,note_off,,,,,384,0,4,,,,,2,,,69,0
7680,note_on,,,,,0,0,4,,,,,2,,,71,108
7680,note_on,,,,,64,0,9,,,,,7,,,50,45
7680,note_on,,,,,64,0,8,,,,,6,,,38,75
7680,note_off,,,,,384,0,2,,,,,1,,,66,0
7680,note_on,,,,,0,0,2,,,,,1,,,68,92
7680,note_on,,,,,0,0,5,,,,,3,,,68,108
7680,note_off,,,,,384,0,5,,,,,3,,,66,0
7680,note_off,,,,,384,0,6,,,,,4,,,59,0
7680,note_off,,,,,384,0,3,,,,,10,,,52,0
7680,note_on,,,,,0,0,3,,,,,10,,,50,92
7680,note_on,,,,,0,0,1,,,,,0,,,71,92
7680,note_off,,,,,384,0,1,,,,,0,,,69,0
8000,note_off,,,,,320,0,9,,,,,7,,,50,0
8000,note_off,,,,,320,0,8,,,,,6,,,38,0
8064,note_off,,,,,384,0,2,,,,,1,,,68,0
8064,note_on,,,,,0,0,6,,,,,4,,,64,92
8064,note_off,,,,,384,0,6,,,,,4,,,64,0
8064,note_on,,,,,0,0,2,,,,,1,,,69,92
8064,note_on,,,,,64,0,9,,,,,7,,,49,45
8064,note_on,,,,,0,0,3,,,,,10,,,49,92
8064,note_on,,,,,0,0,4,,,,,2,,,73,108
8064,note_off,,,,,384,0,3,,,,,10,,,50,0
8064,note_off,,,,,384,0,7,,,,,5,,,50,0
8064,note_on,,,,,0,0,7,,,,,5,,,49,92
8064,note_on,,,,,0,0,1,,,,,0,,,73,92
8064,note_on,,,,,64,0,8,,,,,6,,,37,75
8064,note_on,,,,,0,0,5,,,,,3,,,69,108
8064,note_off,,,,,384,0,5,,,,,3,,,68,0
8064,note_off,,,,,384,0,1,,,,,0,,,71,0
8064,note_off,,,,,384,0,4,,,,,2,,,71,0
8384,note_off,,,,,320,0,9,,,,,7,,,49,0
8384,note_off,,,,,320,0,8,,,,,6,,,37,0
8448,note_off,,,,,384,0,3,,,,,10,,,49,0
8448,note_on,,,,,64,0,9,,,,,7,,,47,45
8448,note_on,,,,,64,0,8,,,,,6,,,35,75
8448,note_on,,,,,0,0,3,,,,,10,,,47,92
8448,note_on,,,,,0,0,7,,,,,5,,,47,92
8448,note_off,,,,,384,0,7,,,,,5,,,49,0
8640,note_on,,,,,0,0,4,,,,,2,,,74,108
8640,note_off,,,,,576,0,4,,,,,2,,,73,0
8640,note_off,,,,,576,0,2,,,,,1,,,69,0
8640,note_on,,,,,0,0,2,,,,,1,,,71,92
8640,note_off,,,,,576,0,1,,,,,0,,,73,0
8640,note_on,,,,,0,0,1,,,,,0,,,74,92
8640,note_on,,,,,0,0,6,,,,,4,,,68,92
8640,note_off,,,,,576,0,6,,,,,4,,,64,0
8640,note_off,,,,,576,0,5,,,,,3,,,69,0
8640,note_on,,,,,0,0,5,,,,,3,,,71,108
8768,note_off,,,,,320,0,9,,,,,7,,,47,0
8768,note_off,,,,,320,0,8,,,,,6,,,35,0
8832,note_on,,,,,64,0,8,,,,,6,,,33,75
8832,note_on,,,,,0,0,2,,,,,1,,,73,92
8832,note_off,,,,,192,0,2,,,,,1,,,71,0
8832,note_off,,,,,192,0,1,,,,,0,,,74,0
8832,note_on,,,,,0,0,6,,,,,4,,,69,92
8832,note_off,,,,,192,0,6,,,,,4,,,68,0
8832,note_on,,,,,64,0,9,,,,,7,,,45,45
8832,note_off,,,,,192,0,5,,,,,3,,,71,0
8832,note_on,,,,,0,0,5,,,,,3,,,73,108
8832,note_off,,,,,384,0,7,,,,,5,,,47,0
8832,note_off,,,,,384,0,3,,,,,10,,,47,0
8832,note_on,,,,,0,0,3,,,,,10,,,45,92
8832,note_on,,,,,0,0,7,,,,,5,,,45,92
8832,note_on,,,,,0,0,4,,,,,2,,,76,108
8832,note_off,,,,,192,0,4,,,,,2,,,74,0
8832,note_on,,,,,0,0,1,,,,,0,,,76,92
9152,note_off,,,,,320,0,9,,,,,7,,,45,0
9152,note_off,,,,,320,0,8,,,,,6,,,33,0
9216,note_on,,,,,0,0,1,,,,,0,,,74,92
9216,note_on,,,,,64,0,8,,,,,6,,,38,75
9216,note_on,,,,,0,0,7,,,,,5,,,50,92
9216,note_off,,,,,384,0,7,,,,,5,,,45,0
9216,note_off,,,,,384,0,4,,,,,2,,,76,0
9216,note_on,,,,,0,0,2,,,,,1,,,71,92
9216,note_off,,,,,384,0,3,,,,,10,,,45,0
9216,note_on,,,,,0,0,3,,,,,10,,,50,92
9216,note_off,,,,,384,0,1,,,,,0,,,76,0
9216,note_on,,,,,0,0,6,,,,,4,,,66,92
9216,note_off,,,,,384,0,6,,,,,4,,,69,0
9216,note_off,,,,,384,0,5,,,,,3,,,73,0
9216,note_on,,,,,0,0,5,,,,,3,,,71,108
9216,note_on,,,,,0,0,4,,,,,2,,,74,108
9216,note_off,,,,,384,0,2,,,,,1,,,73,0
9216,note_on,,,,,64,0,9,,,,,7,,,50,45
9408,note_off,,,,,192,0,2,,,,,1,,,71,0
9408,note_on,,,,,0,0,2,,,,,1,,,69,92
9408,note_off,,,,,192,0,4,,,,,2,,,74,0
9408,note_on,,,,,0,0,4,,,,,2,,,73,108
9408,note_on,,,,,0,0,1,,,,,0,,,73,92
9408,note_off,,,,,192,0,1,,,,,0,,,74,0
9408,note_off,,,,,192,0,5,,,,,3,,,71,0
9408,note_on,,,,,0,0,5,,,,,3,,,69,108
9536,note_off,,,,,320,0,8,,,,,6,,,38,0
9536,note_off,,,,,320,0,9,,,,,7,,,50,0
9600,note_on,,,,,0,0,6,,,,,4,,,59,92
9600,note_on,,,,,0,0,1,,,,,0,,,73,92
9600,note_off,,,,,192,0,1,,,,,0,,,73,0
9600,note_on,,,,,0,0,3,,,,,10,,,52,92
9600,note_off,,,,,192,0,4,,,,,2,,,73,0
9600,note_on,,,,,0,0,2,,,,,1,,,69,92
9600,note_off,,,,,384,0,6,,,,,4,,,66,0
9600,note_on,,,,,0,0,4,,,,,2,,,73,108
9600,note_on,,,,,0,0,5,,,,,3,,,69,108
9600,note_off,,,,,384,0,3,,,,,10,,,50,0
9600,note_off,,,,,192,0,5,,,,,3,,,69,0
9600,note_off,,,,,192,0,2,,,,,1,,,69,0
9600,note_on,,,,,64,0,8,,,,,6,,,40,75
9600,note_on,,,,,64,0,9,,,,,7,,,52,45
9600,note_off,,,,,384,0,7,,,,,5,,,50,0
9600,note_on,,,,,0,0,7,,,,,5,,,52,92
9648,note_on,,,,,0,0,4,,,,,2,,,71,108
9648,note_off,,,,,48,0,1,,,,,0,,,73,0
9648,note_on,,,,,0,0,5,,,,,3,,,68,108
9648,note_on,,,,,0,0,1,,,,,0,,,71,92
9648,note_on,,,,,0,0,2,,,,,1,,,68,92
9648,note_off,,,,,48,0,2,,,,,1,,,69,0
9648,note_off,,,,,48,0,5,,,,,3,,,69,0
9648,note_off,,,,,48,0,4,,,,,2,,,73,0
9696,note_on,,,,,0,0,5,,,,,3,,,69,108
9696,note_on,,,,,0,0,4,,,,,2,,,73,108
9696,note_on,,,,,0,0,2,,,,,1,,,69,92
9696,note_off,,,,,48,0,2,,,,,1,,,68,0
9696,note_off,,,,,48,0,5,,,,,3,,,68,0
9696,note_off,,,,,48,0,4,,,,,2,,,71,0
9696,note_off,,,,,48,0,1,,,,,0,,,71,0
9696,note_on,,,,,0,0,1,,,,,0,,,73,92
9744,note_off,,,,,48,0,2,,,,,1,,,69,0
9744,note_off,,,,,48,0,1,,,,,0,,,73,0
9744,note_on,,,,,0,0,1,,,,,0,,,71,92
9744,note_on,,,,,0,0,4,,,,,2,,,71,108
9744,note_off,,,,,48,0,4,,,,,2,,,73,0
9744,note_on,,,,,0,0,2,,,,,1,,,68,92
9744,note_off,,,,,48,0,5,,,,,3,,,69,0
9744,note_on,,,,,0,0,5,,,,,3,,,68,108
9792,note_off,,,,,48,0,1,,,,,0,,,71,0
9792,note_on,,,,,0,0,1,,,,,0,,,73,92
9792,note_on,,,,,0,0,4,,,,,2,,,73,108
9792,note_off,,,,,48,0,4,,,,,2,,,71,0
9792,note_on,,,,,0,0,2,,,,,1,,,69,92
9792,note_off,,,,,48,0,5,,,,,3,,,68,0
9792,note_on,,,,,0,0,5,,,,,3,,,69,108
9792,note_off,,,,,48,0,2,,,,,1,,,68,0
9840,note_on,,,,,0,0,5,,,,,3,,,68,108
9840,note_off,,,,,48,0,4,,,,,2,,,73,0
9840,note_on,,,,,0,0,1,,,,,0,,,71,92
9840,note_off,,,,,48,0,1,,,,,0,,,73,0
9840,note_on,,,,,0,0,2,,,,,1,,,68,92
9840,note_on,,,,,0,0,4,,,,,2,,,71,108
9840,note_off,,,,,48,0,5,,,,,3,,,69,0
9840,note_off,,,,,48,0,2,,,,,1,,,69,0
9888,note_off,,,,,48,0,1,,,,,0,,,71,0
9888,note_off,,,,,48,0,2,,,,,1,,,68,0
9888,note_on,,,,,0,0,2,,,,,1,,,69,92
9888,note_on,,,,,0,0,5,,,,,3,,,69,108
9888,note_on,,,,,0,0,1,,,,,0,,,73,92
9888,note_on,,,,,0,0,4,,,,,2,,,73,108
9888,note_off,,,,,48,0,4,,,,,2,,,71,0
9888,note_off,,,,,48,0,5,,,,,3,,,68,0
9920,note_off,,,,,320,0,8,,,,,6,,,40,0
9920,note_off,,,,,320,0,9,,,,,7,,,52,0
9936,note_off,,,,,48,0,2,,,,,1,,,69,0
9936,note_on,,,,,0,0,2,,,,,1,,,68,92
9936,note_on,,,,,0,0,5,,,,,3,,,68,108
9936,note_off,,,,,48,0,1,,,,,0,,,73,0
9936,note_off,,,,,48,0,4,,,,,2,,,73,0
9936,note_off,,,,,48,0,5,,,,,3,,,69,0
9936,note_on,,,,,0,0,1,,,,,0,,,71,92
9936,note_on,,,,,0,0,4,,,,,2,,,71,108
9984,note_off,,,,,48,0,1,,,,,0,,,71,0
9984,note_on,,,,,0,0,2,,,,,1,,,69,92
9984,note_on,,,,,0,0,1,,,,,0,,,73,92
9984,note_off,,,,,48,0,4,,,,,2,,,71,0
9984,note_on,,,,,0,0,4,,,,,2,,,73,108
9984,note_off,,,,,384,0,6,,,,,4,,,59,0
9984,note_on,,,,,0,0,6,,,,,4,,,64,92
9984,note_on,,,,,0,0,5,,,,,3,,,69,108
9984,note_on,,,,,64,0,8,,,,,6,,,28,75
9984,note_on,,,,,0,0,3,,,,,10,,,40,92
9984,note_off,,,,,48,0,5,,,,,3,,,68,0
9984,note_off,,,,,48,0,2,,,,,1,,,68,0
9984,note_off,,,,,384,0,7,,,,,5,,,52,0
9984,note_off,,,,,384,0,3,,,,,10,,,52,0
9984,note_on,,,,,64,0,9,,,,,7,,,40,45
9984,note_on,,,,,0,0,7,,,,,5,,,40,92
10032,note_on,,,,,0,0,4,,,,,2,,,71,108
10032,note_off,,,,,48,0,2,,,,,1,,,69,0
10032,note_on,,,,,0,0,2,,,,,1,,,68,92
10032,note_off,,,,,48,0,5,,,,,3,,,69,0
10032,note_on,,,,,0,0,5,,,,,3,,,68,108
10032,note_off,,,,,48,0,4,,,,,2,,,73,0
10032,note_on,,,,,0,0,1,,,,,0,,,71,92
10032,note_off,,,,,48,0,1,,,,,0,,,73,0
10176,note_off,,,,,144,0,4,,,,,2,,,71,0
10176,note_on,,,,,0,0,4,,,,,2,,,69,108
10176,note_on,,,,,0,0,5,,,,,3,,,69,108
10176,note_on,,,,,0,0,1,,,,,0,,,69,92
10176,note_off,,,,,144,0,1,,,,,0,,,71,0
10176,note_off,,,,,144,0,5,,,,,3,,,68,0
10176,note_off,,,,,144,0,2,,,,,1,,,68,0
10176,note_on,,,,,0,0,2,,,,,1,,,69,92
10304,note_off,,,,,320,0,9,,,,,7,,,40,0
10304,note_off,,,,,320,0,8,,,,,6,,,28,0
10368,note_off,,,,,384,0,6,,,,,4,,,64,0
10368,note_on,,,,,0,0,7,,,,,5,,,45,92
10368,note_on,,,,,64,0,9,,,,,7,,,45,45
10368,note_off,,,,,192,0,4,,,,,2,,,69,0
10368,note_on,,,,,0,0,4,,,,,2,,,69,108
10368,set_tempo,,,,,10368,1,0,,1333333,,,,,,,
10368,note_off,,,,,192,0,2,,,,,1,,,69,0
10368,note_on,,,,,0,0,6,,,,,4,,,61,92
10368,note_on,,,,,0,0,2,,,,,1,,,69,92
10368,note_off,,,,,192,0,5,,,,,3,,,69,0
10368,note_on,,,,,0,0,3,,,,,10,,,45,92
10368,note_off,,,,,192,0,1,,,,,0,,,69,0
10368,note_on,,,,,0,0,1,,,,,0,,,69,92
10368,note_off,,,,,384,0,3,,,,,10,,,40,0
10368,note_on,,,,,64,0,8,,,,,6,,,33,75
10368,note_on,,,,,0,0,5,,,,,3,,,69,108
10368,note_off,,,,,384,0,7,,,,,5,,,40,0
10688,note_off,,,,,320,0,9,,,,,7,,,45,0
10688,note_off,,,,,320,0,8,,,,,6,,,33,0
10752,note_off,,,,,384,0,5,,,,,3,,,69,0
10752,note_off,,,,,384,0,3,,,,,10,,,45,0
10752,note_off,,,,,384,0,6,,,,,4,,,61,0
10752,note_on,,,,,0,0,2,,,,,1,,,69,92
10752,note_off,,,,,384,0,2,,,,,1,,,69,0
10752,note_on,,,,,0,0,3,,,,,10,,,57,92
10752,set_tempo,,,,,384,1,0,,666666,,,,,,,
10752,note_off,,,,,384,0,4,,,,,2,,,69,0
10752,note_off,,,,,384,0,7,,,,,5,,,45,0
10752,note_off,,,,,384,0,1,,,,,0,,,69,0
10752,note_on,,,,,0,0,1,,,,,0,,,73,92
11136,note_off,,,,,384,0,1,,,,,0,,,73,0
11136,note_on,,,,,0,0,1,,,,,0,,,74,92
11136,note_off,,,,,384,0,3,,,,,10,,,57,0
11136,note_on,,,,,0,0,3,,,,,10,,,59,92
11136,note_on,,,,,0,0,2,,,,,1,,,68,92
11136,note_off,,,,,384,0,2,,,,,1,,,69,0
11520,note_off,,,,,384,0,2,,,,,1,,,68,0
11520,note_off,,,,,384,0,1,,,,,0,,,74,0
11520,note_on,,,,,0,0,1,,,,,0,,,76,92
11520,note_on,,,,,0,0,2,,,,,1,,,69,92
11520,note_off,,,,,384,0,3,,,,,10,,,59,0
11520,note_on,,,,,0,0,3,,,,,10,,,61,92
12096,note_on,,,,,0,0,1,,,,,0,,,74,92
12096,note_off,,,,,576,0,3,,,,,10,,,61,0
12096,note_on,,,,,0,0,3,,,,,10,,,59,92
12096,note_off,,,,,576,0,1,,,,,0,,,76,0
12288,note_off,,,,,192,0,3,,,,,10,,,59,0
12288,note_off,,,,,192,0,1,,,,,0,,,74,0
12288,note_on,,,,,0,0,1,,,,,0,,,73,92
12288,note_off,,,,,768,0,2,,,,,1,,,69,0
12288,note_on,,,,,0,0,3,,,,,10,,,57,92
12288,note_on,,,,,0,0,2,,,,,1,,,64,92
12672,note_on,,,,,0,0,3,,,,,10,,,50,92
12672,note_off,,,,,384,0,1,,,,,0,,,73,0
12672,note_on,,,,,0,0,1,,,,,0,,,71,92
12672,note_off,,,,,384,0,3,,,,,10,,,57,0
12672,note_on,,,,,0,0,2,,,,,1,,,66,92
12672,note_off,,,,,384,0,2,,,,,1,,,64,0
13056,note_off,,,,,384,0,2,,,,,1,,,66,0
13056,note_on,,,,,0,0,1,,,,,0,,,71,92
13056,note_on,,,,,0,0,2,,,,,1,,,68,92
13056,note_off,,,,,384,0,1,,,,,0,,,71,0
13056,note_on,,,,,0,0,3,,,,,10,,,52,92
13056,note_off,,,,,384,0,3,,,,,10,,,50,0
13440,note_off,,,,,384,0,2,,,,,1,,,68,0
13440,note_on,,,,,0,0,2,,,,,1,,,69,92
13440,note_off,,,,,384,0,3,,,,,10,,,52,0
13440,note_on,,,,,0,0,1,,,,,0,,,71,92
13440,note_off,,,,,384,0,1,,,,,0,,,71,0
13440,note_on,,,,,0,0,3,,,,,10,,,54,92
13824,note_off,,,,,384,0,1,,,,,0,,,71,0
13824,note_on,,,,,0,0,1,,,,,0,,,71,92
13824,note_off,,,,,384,0,3,,,,,10,,,54,0
13824,note_on,,,,,0,0,2,,,,,1,,,68,92
13824,note_on,,,,,0,0,3,,,,,10,,,52,92
13824,note_off,,,,,384,0,2,,,,,1,,,69,0
14208,note_off,,,,,384,0,1,,,,,0,,,71,0
14208,note_off,,,,,384,0,2,,,,,1,,,68,0
14208,note_on,,,,,3456,0,7,,,,,5,,,61,45
14208,note_on,,,,,3456,0,5,,,,,3,,,69,60
14208,note_on,,,,,3520,0,8,,,,,6,,,49,30
14208,note_off,,,,,384,0,3,,,,,10,,,52,0
14208,note_on,,,,,3520,0,9,,,,,7,,,61,30
14208,note_on,,,,,3456,0,6,,,,,4,,,64,45
14208,note_on,,,,,3456,0,4,,,,,2,,,73,60
14528,note_off,,,,,320,0,9,,,,,7,,,61,0
14528,note_off,,,,,320,0,8,,,,,6,,,49,0
14592,note_on,,,,,0,0,5,,,,,3,,,71,60
14592,note_off,,,,,384,0,5,,,,,3,,,69,0
14592,note_on,,,,,0,0,7,,,,,5,,,59,45
14592,note_on,,,,,0,0,4,,,,,2,,,74,60
14592,note_off,,,,,384,0,4,,,,,2,,,73,0
14592,note_off,,,,,384,0,7,,,,,5,,,61,0
14592,note_on,,,,,64,0,8,,,,,6,,,47,30
14592,note_on,,,,,64,0,9,,,,,7,,,59,30
14592,note_on,,,,,0,0,6,,,,,4,,,68,45
14592,note_off,,,,,384,0,6,,,,,4,,,64,0
14912,note_off,,,,,320,0,8,,,,,6,,,47,0
14912,note_off,,,,,320,0,9,,,,,7,,,59,0
14976,note_on,,,,,64,0,8,,,,,6,,,45,30
14976,note_on,,,,,0,0,5,,,,,3,,,73,60
14976,note_off,,,,,384,0,5,,,,,3,,,71,0
14976,note_on,,,,,0,0,7,,,,,5,,,57,45
14976,note_off,,,,,384,0,7,,,,,5,,,59,0
14976,note_off,,,,,384,0,6,,,,,4,,,68,0
14976,note_on,,,,,0,0,6,,,,,4,,,69,45
14976,note_on,,,,,64,0,9,,,,,7,,,57,30
14976,note_off,,,,,384,0,4,,,,,2,,,74,0
14976,note_on,,,,,0,0,4,,,,,2,,,76,60
15488,note_off,,,,,512,0,8,,,,,6,,,45,0
15488,note_off,,,,,512,0,9,,,,,7,,,57,0
15552,note_on,,,,,0,0,7,,,,,5,,,59,45
15552,note_off,,,,,576,0,7,,,,,5,,,57,0
15552,note_on,,,,,64,0,9,,,,,7,,,59,30
15552,note_off,,,,,576,0,4,,,,,2,,,76,0
15552,note_on,,,,,0,0,4,,,,,2,,,74,60
15552,note_off,,,,,576,0,5,,,,,3,,,73,0
15552,note_on,,,,,0,0,5,,,,,3,,,71,60
15552,note_on,,,,,64,0,8,,,,,6,,,47,30
15740,note_off,,,,,188,0,9,,,,,7,,,59,0
15740,note_off,,,,,188,0,8,,,,,6,,,47,0
15744,note_on,,,,,4,0,9,,,,,7,,,61,30
15744,note_off,,,,,192,0,5,,,,,3,,,71,0
15744,note_off,,,,,192,0,4,,,,,2,,,74,0
15744,note_off,,,,,192,0,7,,,,,5,,,59,0
15744,note_on,,,,,0,0,7,,,,,5,,,61,45
15744,note_on,,,,,4,0,8,,,,,6,,,49,30
15744,note_on,,,,,0,0,4,,,,,2,,,73,60
15744,note_on,,,,,0,0,5,,,,,3,,,69,60
15744,note_off,,,,,768,0,6,,,,,4,,,69,0
15744,note_on,,,,,0,0,6,,,,,4,,,64,45
16064,note_off,,,,,320,0,9,,,,,7,,,61,0
16064,note_off,,,,,320,0,8,,,,,6,,,49,0
16128,note_off,,,,,384,0,5,,,,,3,,,69,0
16128,note_off,,,,,384,0,4,,,,,2,,,73,0
16128,note_on,,,,,0,0,5,,,,,3,,,69,60
16128,note_on,,,,,0,0,4,,,,,2,,,71,60
16128,note_on,,,,,64,0,8,,,,,6,,,38,30
16128,note_on,,,,,64,0,9,,,,,7,,,50,30
16128,note_off,,,,,384,0,7,,,,,5,,,61,0
16128,note_on,,,,,0,0,7,,,,,5,,,50,45
16128,note_on,,,,,0,0,6,,,,,4,,,66,45
16128,note_off,,,,,384,0,6,,,,,4,,,64,0
16448,note_off,,,,,320,0,9,,,,,7,,,50,0
16448,note_off,,,,,320,0,8,,,,,6,,,38,0
16512,note_on,,,,,0,0,7,,,,,5,,,52,45
16512,note_off,,,,,384,0,7,,,,,5,,,50,0
16512,note_on,,,,,0,0,4,,,,,2,,,71,60
16512,note_on,,,,,0,0,6,,,,,4,,,64,45
16512,note_off,,,,,384,0,6,,,,,4,,,66,0
16512,note_on,,,,,64,0,8,,,,,6,,,40,30
16512,note_on,,,,,0,0,5,,,,,3,,,68,60
16512,note_on,,,,,64,0,9,,,,,7,,,52,30
16512,note_off,,,,,384,0,5,,,,,3,,,69,0
16512,note_off,,,,,384,0,4,,,,,2,,,71,0
16832,note_off,,,,,320,0,8,,,,,6,,,40,0
16832,note_off,,,,,320,0,9,,,,,7,,,52,0
16896,note_on,,,,,0,0,7,,,,,5,,,54,45
16896,note_on,,,,,64,0,8,,,,,6,,,42,30
16896,note_off,,,,,384,0,6,,,,,4,,,64,0
16896,note_on,,,,,0,0,4,,,,,2,,,71,60
16896,note_off,,,,,384,0,4,,,,,2,,,71,0
16896,note_off,,,,,384,0,5,,,,,3,,,68,0
16896,note_on,,,,,0,0,5,,,,,3,,,66,60
16896,note_on,,,,,0,0,6,,,,,4,,,63,45
16896,note_on,,,,,64,0,9,,,,,7,,,54,30
16896,note_off,,,,,384,0,7,,,,,5,,,52,0
17216,note_off,,,,,320,0,9,,,,,7,,,54,0
17216,note_off,,,,,320,0,8,,,,,6,,,42,0
17280,note_on,,,,,64,0,9,,,,,7,,,52,30
17280,note_off,,,,,384,0,7,,,,,5,,,54,0
17280,note_on,,,,,0,0,6,,,,,4,,,64,45
17280,note_on,,,,,0,0,5,,,,,3,,,68,60
17280,note_on,,,,,64,0,8,,,,,6,,,40,30
17280,note_off,,,,,384,0,4,,,,,2,,,71,0
17280,note_on,,,,,0,0,4,,,,,2,,,71,60
17280,note_off,,,,,384,0,5,,,,,3,,,66,0
17280,note_off,,,,,384,0,6,,,,,4,,,63,0
17280,note_on,,,,,0,0,7,,,,,5,,,52,45
17600,note_off,,,,,320,0,9,,,,,7,,,52,0
17600,note_off,,,,,320,0,8,,,,,6,,,40,0
17664,note_off,,,,,384,0,6,,,,,4,,,64,0
17664,note_on,,,,,3456,0,2,,,,,1,,,73,92
17664,note_off,,,,,384,0,5,,,,,3,,,68,0
17664,note_off,,,,,384,0,7,,,,,5,,,52,0
17664,note_off,,,,,384,0,4,,,,,2,,,71,0
17664,note_on,,,,,3456,0,3,,,,,10,,,64,92
17664,note_on,,,,,3456,0,1,,,,,0,,,76,92
17856,note_on,,,,,0,0,1,,,,,0,,,74,92
17856,note_off,,,,,192,0,1,,,,,0,,,76,0
17856,note_on,,,,,0,0,2,,,,,1,,,71,92
17856,note_off,,,,,192,0,2,,,,,1,,,73,0
18048,note_off,,,,,192,0,1,,,,,0,,,74,0
18048,note_on,,,,,0,0,2,,,,,1,,,71,92
18048,note_off,,,,,192,0,2,,,,,1,,,71,0
18048,note_on,,,,,0,0,1,,,,,0,,,74,92
18048,note_on,,,,,0,0,3,,,,,10,,,64,92
18048,note_off,,,,,384,0,3,,,,,10,,,64,0
18240,note_off,,,,,192,0,2,,,,,1,,,71,0
18240,note_on,,,,,0,0,2,,,,,1,,,69,92
18240,note_off,,,,,192,0,1,,,,,0,,,74,0
18240,note_on,,,,,0,0,1,,,,,0,,,73,92
18432,note_off,,,,,384,0,3,,,,,10,,,64,0
18432,note_on,,,,,0,0,3,,,,,10,,,66,92
18432,note_on,,,,,0,0,1,,,,,0,,,73,92
18432,note_off,,,,,192,0,2,,,,,1,,,69,0
18432,note_on,,,,,0,0,2,,,,,1,,,69,92
18432,note_off,,,,,192,0,1,,,,,0,,,73,0
18816,note_off,,,,,384,0,1,,,,,0,,,73,0
18816,note_on,,,,,0,0,1,,,,,0,,,71,92
18816,note_on,,,,,0,0,2,,,,,1,,,68,92
18816,note_on,,,,,0,0,3,,,,,10,,,66,92
18816,note_off,,,,,384,0,2,,,,,1,,,69,0
18816,note_off,,,,,384,0,3,,,,,10,,,66,0
19008,note_off,,,,,192,0,3,,,,,10,,,66,0
19008,note_on,,,,,0,0,3,,,,,10,,,64,92
19200,note_on,,,,,0,0,2,,,,,1,,,69,92
19200,note_off,,,,,192,0,3,,,,,10,,,64,0
19200,note_on,,,,,0,0,3,,,,,10,,,64,92
19200,note_off,,,,,384,0,2,,,,,1,,,68,0
19200,note_on,,,,,0,0,1,,,,,0,,,73,92
19200,note_off,,,,,384,0,1,,,,,0,,,71,0
19392,note_off,,,,,192,0,3,,,,,10,,,64,0
19392,note_on,,,,,0,0,3,,,,,10,,,62,92
19584,note_off,,,,,384,0,1,,,,,0,,,73,0
19584,note_on,,,,,0,0,2,,,,,1,,,71,92
19584,note_on,,,,,0,0,1,,,,,0,,,74,92
19584,note_off,,,,,384,0,2,,,,,1,,,69,0
19584,note_on,,,,,0,0,3,,,,,10,,,62,92
19584,note_off,,,,,192,0,3,,,,,10,,,62,0
19968,note_on,,,,,0,0,1,,,,,0,,,74,92
19968,note_off,,,,,384,0,1,,,,,0,,,74,0
19968,note_off,,,,,384,0,3,,,,,10,,,62,0
19968,note_on,,,,,0,0,2,,,,,1,,,71,92
19968,note_off,,,,,384,0,2,,,,,1,,,71,0
19968,note_on,,,,,0,0,3,,,,,10,,,61,92
20160,note_on,,,,,0,0,2,,,,,1,,,69,92
20160,note_on,,,,,0,0,1,,,,,0,,,73,92
20160,note_off,,,,,192,0,1,,,,,0,,,74,0
20160,note_off,,,,,192,0,2,,,,,1,,,71,0
20352,note_off,,,,,192,0,2,,,,,1,,,69,0
20352,note_on,,,,,0,0,2,,,,,1,,,69,92
20352,note_on,,,,,0,0,1,,,,,0,,,73,92
20352,note_on,,,,,0,0,3,,,,,10,,,62,92
20352,note_off,,,,,192,0,1,,,,,0,,,73,0
20352,note_off,,,,,384,0,3,,,,,10,,,61,0
20544,note_off,,,,,192,0,2,,,,,1,,,69,0
20544,note_on,,,,,0,0,2,,,,,1,,,68,92
20544,note_on,,,,,0,0,1,,,,,0,,,71,92
20544,note_off,,,,,192,0,1,,,,,0,,,73,0
20736,note_off,,,,,192,0,1,,,,,0,,,71,0
20736,note_on,,,,,0,0,1,,,,,0,,,71,92
20736,note_off,,,,,192,0,2,,,,,1,,,68,0
20736,note_on,,,,,0,0,2,,,,,1,,,68,92
20736,note_off,,,,,384,0,3,,,,,10,,,62,0
20736,note_on,,,,,0,0,3,,,,,10,,,64,92
21120,note_on,,,,,0,0,1,,,,,0,,,69,92
21120,note_on,,,,,0,0,2,,,,,1,,,66,92
21120,note_off,,,,,384,0,2,,,,,1,,,68,0
21120,note_off,,,,,384,0,1,,,,,0,,,71,0
21120,note_on,,,,,0,0,3,,,,,10,,,64,92
21120,note_off,,,,,384,0,3,,,,,10,,,64,0
21312,note_off,,,,,192,0,3,,,,,10,,,64,0
21312,note_on,,,,,0,0,3,,,,,10,,,62,92
21504,note_off,,,,,384,0,1,,,,,0,,,69,0
21504,note_off,,,,,384,0,2,,,,,1,,,66,0
21504,note_on,,,,,0,0,1,,,,,0,,,71,92
21504,note_on,,,,,0,0,2,,,,,1,,,68,92
21504,note_on,,,,,0,0,3,,,,,10,,,62,92
21504,note_off,,,,,192,0,3,,,,,10,,,62,0
21696,note_on,,,,,0,0,3,,,,,10,,,61,92
21696,note_off,,,,,192,0,3,,,,,10,,,62,0
21888,note_off,,,,,384,0,1,,,,,0,,,71,0
21888,note_off,,,,,192,0,3,,,,,10,,,61,0
21888,note_off,,,,,384,0,2,,,,,1,,,68,0
21888,note_on,,,,,0,0,2,,,,,1,,,69,92
21888,note_on,,,,,0,0,1,,,,,0,,,73,92
21888,note_on,,,,,0,0,3,,,,,10,,,61,92
22272,note_on,,,,,4608,0,6,,,,,4,,,64,45
22272,note_on,,,,,4608,0,5,,,,,3,,,73,60
22272,note_off,,,,,384,0,1,,,,,0,,,73,0
22272,note_on,,,,,4608,0,4,,,,,2,,,76,60
22272,note_off,,,,,384,0,3,,,,,10,,,61,0
22272,note_off,,,,,384,0,2,,,,,1,,,69,0
22464,note_on,,,,,0,0,4,,,,,2,,,74,60
22464,note_off,,,,,192,0,4,,,,,2,,,76,0
22464,note_off,,,,,192,0,5,,,,,3,,,73,0
22464,note_on,,,,,0,0,5,,,,,3,,,71,60
22656,note_off,,,,,192,0,4,,,,,2,,,74,0
22656,note_off,,,,,384,0,6,,,,,4,,,64,0
22656,note_off,,,,,192,0,5,,,,,3,,,71,0
22656,note_on,,,,,0,0,5,,,,,3,,,71,60
22656,note_on,,,,,0,0,6,,,,,4,,,64,45
22656,note_on,,,,,0,0,4,,,,,2,,,74,60
22848,note_on,,,,,0,0,4,,,,,2,,,73,60
22848,note_off,,,,,192,0,5,,,,,3,,,71,0
22848,note_on,,,,,0,0,5,,,,,3,,,69,60
22848,note_off,,,,,192,0,4,,,,,2,,,74,0
23040,note_on,,,,,0,0,5,,,,,3,,,69,60
23040,note_off,,,,,192,0,4,,,,,2,,,73,0
23040,note_off,,,,,192,0,5,,,,,3,,,69,0
23040,note_on,,,,,0,0,4,,,,,2,,,73,60
23040,note_off,,,,,384,0,6,,,,,4,,,64,0
23040,note_on,,,,,0,0,6,,,,,4,,,66,45
23424,note_on,,,,,0,0,6,,,,,4,,,66,45
23424,note_on,,,,,0,0,4,,,,,2,,,71,60
23424,note_off,,,,,384,0,5,,,,,3,,,69,0
23424,note_on,,,,,0,0,5,,,,,3,,,68,60
23424,note_off,,,,,384,0,4,,,,,2,,,73,0
23424,note_off,,,,,384,0,6,,,,,4,,,66,0
23616,note_on,,,,,0,0,6,,,,,4,,,64,45
23616,note_off,,,,,192,0,6,,,,,4,,,66,0
23808,note_off,,,,,384,0,4,,,,,2,,,71,0
23808,note_on,,,,,0,0,4,,,,,2,,,73,60
23808,note_off,,,,,384,0,5,,,,,3,,,68,0
23808,note_on,,,,,0,0,6,,,,,4,,,64,45
23808,note_off,,,,,192,0,6,,,,,4,,,64,0
23808,note_on,,,,,0,0,5,,,,,3,,,69,60
24000,note_on,,,,,0,0,6,,,,,4,,,62,45
24000,note_off,,,,,192,0,6,,,,,4,,,64,0
24192,note_on,,,,,0,0,4,,,,,2,,,74,60
24192,note_on,,,,,0,0,5,,,,,3,,,71,60
24192,note_off,,,,,384,0,5,,,,,3,,,69,0
24192,note_off,,,,,192,0,6,,,,,4,,,62,0
24192,note_on,,,,,0,0,6,,,,,4,,,62,45
24192,note_off,,,,,384,0,4,,,,,2,,,73,0
24576,note_on,,,,,0,0,4,,,,,2,,,74,60
24576,note_off,,,,,384,0,4,,,,,2,,,74,0
24576,note_on,,,,,0,0,5,,,,,3,,,71,60
24576,note_off,,,,,384,0,6,,,,,4,,,62,0
24576,note_on,,,,,0,0,6,,,,,4,,,61,45
24576,note_off,,,,,384,0,5,,,,,3,,,71,0
24768,note_off,,,,,192,0,4,,,,,2,,,74,0
24768,note_on,,,,,0,0,4,,,,,2,,,73,60
24768,note_on,,,,,0,0,5,,,,,3,,,69,60
24768,note_off,,,,,192,0,5,,,,,3,,,71,0
24960,note_on,,,,,0,0,6,,,,,4,,,62,45
24960,note_off,,,,,384,0,6,,,,,4,,,61,0
24960,note_on,,,,,0,0,4,,,,,2,,,73,60
24960,note_on,,,,,0,0,5,,,,,3,,,69,60
24960,note_off,,,,,192,0,5,,,,,3,,,69,0
24960,note_off,,,,,192,0,4,,,,,2,,,73,0
25152,note_off,,,,,192,0,5,,,,,3,,,69,0
25152,note_off,,,,,192,0,4,,,,,2,,,73,0
25152,note_on,,,,,0,0,4,,,,,2,,,71,60
25152,note_on,,,,,0,0,5,,,,,3,,,68,60
25344,note_on,,,,,0,0,6,,,,,4,,,64,45
25344,note_off,,,,,384,0,6,,,,,4,,,62,0
25344,note_on,,,,,0,0,5,,,,,3,,,68,60
25344,note_on,,,,,0,0,4,,,,,2,,,71,60
25344,note_off,,,,,192,0,4,,,,,2,,,71,0
25344,note_off,,,,,192,0,5,,,,,3,,,68,0
25728,note_off,,,,,384,0,4,,,,,2,,,71,0
25728,note_on,,,,,3456,0,2,,,,,1,,,66,92
25728,note_on,,,,,0,0,6,,,,,4,,,61,92
25728,note_off,,,,,384,0,6,,,,,4,,,64,0
25728,note_on,,,,,8128,0,9,,,,,7,,,52,45
25728,note_on,,,,,3456,0,3,,,,,10,,,52,92
25728,note_off,,,,,384,0,5,,,,,3,,,68,0
25728,note_on,,,,,3456,0,1,,,,,0,,,69,92
25728,note_on,,,,,8128,0,8,,,,,6,,,40,75
25728,note_on,,,,,0,0,5,,,,,3,,,66,108
25728,note_on,,,,,8064,0,7,,,,,5,,,52,92
25728,note_on,,,,,0,0,4,,,,,2,,,69,108
25916,note_off,,,,,188,0,8,,,,,6,,,40,0
25916,note_off,,,,,188,0,9,,,,,7,,,52,0
25920,note_off,,,,,192,0,6,,,,,4,,,61,0
25920,note_on,,,,,4,0,9,,,,,7,,,50,45
25920,note_off,,,,,192,0,3,,,,,10,,,52,0
25920,note_on,,,,,0,0,3,,,,,10,,,50,92
25920,note_on,,,,,4,0,8,,,,,6,,,38,75
25920,note_off,,,,,192,0,7,,,,,5,,,52,0
25920,note_on,,,,,0,0,7,,,,,5,,,50,92
25920,note_on,,,,,0,0,6,,,,,4,,,59,92
26108,note_off,,,,,188,0,8,,,,,6,,,38,0
26108,note_off,,,,,188,0,9,,,,,7,,,50,0
26112,note_off,,,,,384,0,5,,,,,3,,,66,0
26112,note_on,,,,,0,0,1,,,,,0,,,71,92
26112,note_off,,,,,384,0,1,,,,,0,,,69,0
26112,note_on,,,,,0,0,5,,,,,3,,,68,108
26112,note_off,,,,,192,0,6,,,,,4,,,59,0
26112,note_on,,,,,0,0,6,,,,,4,,,59,92
26112,note_on,,,,,4,0,8,,,,,6,,,38,75
26112,note_off,,,,,384,0,2,,,,,1,,,66,0
26112,note_on,,,,,0,0,3,,,,,10,,,50,92
26112,note_off,,,,,192,0,3,,,,,10,,,50,0
26112,note_off,,,,,384,0,4,,,,,2,,,69,0
26112,note_on,,,,,0,0,4,,,,,2,,,71,108
26112,note_off,,,,,192,0,7,,,,,5,,,50,0
26112,note_on,,,,,0,0,7,,,,,5,,,50,92
26112,note_on,,,,,4,0,9,,,,,7,,,50,45
26112,note_on,,,,,0,0,2,,,,,1,,,68,92
26300,note_off,,,,,188,0,8,,,,,6,,,38,0
26300,note_off,,,,,188,0,9,,,,,7,,,50,0
26304,note_on,,,,,0,0,3,,,,,10,,,49,92
26304,note_on,,,,,4,0,9,,,,,7,,,49,45
26304,note_off,,,,,192,0,3,,,,,10,,,50,0
26304,note_off,,,,,192,0,6,,,,,4,,,59,0
26304,note_on,,,,,0,0,6,,,,,4,,,57,92
26304,note_off,,,,,192,0,7,,,,,5,,,50,0
26304,note_on,,,,,0,0,7,,,,,5,,,49,92
26304,note_on,,,,,4,0,8,,,,,6,,,37,75
26492,note_off,,,,,188,0,8,,,,,6,,,37,0
26492,note_off,,,,,188,0,9,,,,,7,,,49,0
26496,note_on,,,,,0,0,7,,,,,5,,,49,92
26496,note_on,,,,,0,0,6,,,,,4,,,64,92
26496,note_off,,,,,192,0,6,,,,,4,,,57,0
26496,note_off,,,,,192,0,7,,,,,5,,,49,0
26496,note_on,,,,,0,0,2,,,,,1,,,69,92
26496,note_off,,,,,384,0,1,,,,,0,,,71,0
26496,note_on,,,,,4,0,9,,,,,7,,,50,45
26496,note_off,,,,,384,0,2,,,,,1,,,68,0
26496,note_on,,,,,0,0,5,,,,,3,,,69,108
26496,note_off,,,,,384,0,5,,,,,3,,,68,0
26496,note_on,,,,,4,0,8,,,,,6,,,37,75
26496,note_off,,,,,384,0,4,,,,,2,,,71,0
26496,note_on,,,,,0,0,3,,,,,10,,,49,92
26496,note_off,,,,,192,0,3,,,,,10,,,49,0
26496,note_on,,,,,0,0,1,,,,,0,,,73,92
26496,note_on,,,,,0,0,4,,,,,2,,,73,108
27008,note_off,,,,,512,0,9,,,,,7,,,50,0
27008,note_off,,,,,512,0,8,,,,,6,,,37,0
27072,note_on,,,,,0,0,1,,,,,0,,,74,92
27072,note_off,,,,,576,0,6,,,,,4,,,64,0
27072,note_on,,,,,0,0,4,,,,,2,,,74,108
27072,note_off,,,,,576,0,4,,,,,2,,,73,0
27072,note_on,,,,,0,0,7,,,,,5,,,47,92
27072,note_off,,,,,576,0,7,,,,,5,,,49,0
27072,note_off,,,,,576,0,1,,,,,0,,,73,0
27072,note_on,,,,,0,0,5,,,,,3,,,71,108
27072,note_on,,,,,0,0,6,,,,,4,,,68,92
27072,note_off,,,,,576,0,5,,,,,3,,,69,0
27072,note_on,,,,,0,0,3,,,,,10,,,47,92
27072,note_on,,,,,64,0,9,,,,,7,,,47,45
27072,note_on,,,,,0,0,2,,,,,1,,,71,92
27072,note_off,,,,,576,0,2,,,,,1,,,69,0
27072,note_on,,,,,64,0,8,,,,,6,,,35,75
27072,note_off,,,,,576,0,3,,,,,10,,,49,0
27260,note_off,,,,,188,0,8,,,,,6,,,35,0
27260,note_off,,,,,188,0,9,,,,,7,,,47,0
27264,note_off,,,,,192,0,1,,,,,0,,,74,0
27264,note_on,,,,,0,0,2,,,,,1,,,73,92
27264,note_on,,,,,4,0,9,,,,,7,,,45,45
27264,note_on,,,,,0,0,3,,,,,10,,,45,92
27264,note_off,,,,,192,0,3,,,,,10,,,47,0
27264,note_off,,,,,192,0,7,,,,,5,,,47,0
27264,note_on,,,,,0,0,7,,,,,5,,,45,92
27264,note_off,,,,,192,0,4,,,,,2,,,74,0
27264,note_off,,,,,192,0,2,,,,,1,,,71,0
27264,note_on,,,,,0,0,4,,,,,2,,,76,108
27264,note_on,,,,,0,0,5,,,,,3,,,73,108
27264,note_on,,,,,4,0,8,,,,,6,,,33,75
27264,note_off,,,,,192,0,6,,,,,4,,,68,0
27264,note_off,,,,,192,0,5,,,,,3,,,71,0
27264,note_on,,,,,0,0,1,,,,,0,,,76,92
27264,note_on,,,,,0,0,6,,,,,4,,,69,92
27584,note_off,,,,,320,0,9,,,,,7,,,45,0
27584,note_off,,,,,320,0,8,,,,,6,,,33,0
27648,note_off,,,,,384,0,3,,,,,10,,,45,0
27648,note_on,,,,,64,0,9,,,,,7,,,50,45
27648,note_off,,,,,384,0,5,,,,,3,,,73,0
27648,note_on,,,,,0,0,2,,,,,1,,,71,92
27648,note_off,,,,,384,0,7,,,,,5,,,45,0
27648,note_on,,,,,0,0,4,,,,,2,,,74,108
27648,note_on,,,,,64,0,8,,,,,6,,,38,75
27648,note_on,,,,,0,0,7,,,,,5,,,50,92
27648,note_on,,,,,0,0,3,,,,,10,,,50,92
27648,note_off,,,,,384,0,4,,,,,2,,,76,0
27648,note_on,,,,,0,0,5,,,,,3,,,71,108
27648,note_off,,,,,384,0,2,,,,,1,,,73,0
27648,note_on,,,,,0,0,6,,,,,4,,,66,92
27648,note_on,,,,,0,0,1,,,,,0,,,74,92
27648,note_off,,,,,384,0,6,,,,,4,,,69,0
27648,note_off,,,,,384,0,1,,,,,0,,,76,0
27840,note_on,,,,,0,0,5,,,,,3,,,69,108
27840,note_off,,,,,192,0,5,,,,,3,,,71,0
27840,note_off,,,,,192,0,1,,,,,0,,,74,0
27840,note_on,,,,,0,0,1,,,,,0,,,73,92
27840,note_off,,,,,192,0,4,,,,,2,,,74,0
27840,note_on,,,,,0,0,2,,,,,1,,,69,92
27840,note_off,,,,,192,0,2,,,,,1,,,71,0
27840,note_on,,,,,0,0,4,,,,,2,,,73,108
27968,note_off,,,,,320,0,9,,,,,7,,,50,0
27968,note_off,,,,,320,0,8,,,,,6,,,38,0
28032,note_off,,,,,192,0,4,,,,,2,,,73,0
28032,note_off,,,,,192,0,5,,,,,3,,,69,0
28032,note_on,,,,,64,0,9,,,,,7,,,52,45
28032,note_on,,,,,0,0,3,,,,,10,,,52,92
28032,note_off,,,,,384,0,3,,,,,10,,,50,0
28032,note_on,,,,,0,0,4,,,,,2,,,71,108
28032,note_on,,,,,0,0,2,,,,,1,,,69,92
28032,note_off,,,,,192,0,2,,,,,1,,,69,0
28032,note_on,,,,,0,0,5,,,,,3,,,68,108
28032,note_on,,,,,0,0,7,,,,,5,,,52,92
28032,note_on,,,,,0,0,6,,,,,4,,,59,92
28032,note_off,,,,,384,0,7,,,,,5,,,50,0
28032,note_off,,,,,192,0,1,,,,,0,,,73,0
28032,note_off,,,,,384,0,6,,,,,4,,,66,0
28032,note_on,,,,,0,0,1,,,,,0,,,73,92
28032,note_on,,,,,64,0,8,,,,,6,,,40,75
28080,note_off,,,,,48,0,1,,,,,0,,,73,0
28080,note_on,,,,,0,0,1,,,,,0,,,71,92
28080,note_on,,,,,0,0,2,,,,,1,,,68,92
28080,note_off,,,,,48,0,2,,,,,1,,,69,0
28128,note_off,,,,,48,0,1,,,,,0,,,71,0
28128,note_off,,,,,48,0,2,,,,,1,,,68,0
28128,note_on,,,,,0,0,1,,,,,0,,,73,92
28128,note_on,,,,,0,0,2,,,,,1,,,69,92
28176,note_off,,,,,48,0,1,,,,,0,,,73,0
28176,note_on,,,,,0,0,1,,,,,0,,,71,92
28176,note_on,,,,,0,0,2,,,,,1,,,68,92
28176,note_off,,,,,48,0,2,,,,,1,,,69,0
28224,note_off,,,,,48,0,2,,,,,1,,,68,0
28224,note_off,,,,,48,0,1,,,,,0,,,71,0
28224,note_on,,,,,0,0,1,,,,,0,,,73,92
28224,note_on,,,,,0,0,2,,,,,1,,,69,92
28272,note_on,,,,,0,0,2,,,,,1,,,68,92
28272,note_off,,,,,48,0,1,,,,,0,,,73,0
28272,note_on,,,,,0,0,1,,,,,0,,,71,92
28272,note_off,,,,,48,0,2,,,,,1,,,69,0
28320,note_off,,,,,48,0,1,,,,,0,,,71,0
28320,note_on,,,,,0,0,1,,,,,0,,,73,92
28320,note_off,,,,,48,0,2,,,,,1,,,68,0
28320,note_on,,,,,0,0,2,,,,,1,,,69,92
28352,note_off,,,,,320,0,8,,,,,6,,,40,0
28352,note_off,,,,,320,0,9,,,,,7,,,52,0
28368,note_on,,,,,0,0,1,,,,,0,,,71,92
28368,note_off,,,,,48,0,1,,,,,0,,,73,0
28368,note_off,,,,,48,0,2,,,,,1,,,69,0
28368,note_on,,,,,0,0,2,,,,,1,,,68,92
28416,note_on,,,,,0,0,6,,,,,4,,,64,92
28416,note_on,,,,,0,0,2,,,,,1,,,69,92
28416,note_off,,,,,384,0,6,,,,,4,,,59,0
28416,note_on,,,,,64,0,9,,,,,7,,,40,45
28416,note_on,,,,,0,0,3,,,,,10,,,40,92
28416,note_on,,,,,64,0,8,,,,,6,,,28,75
28416,note_on,,,,,0,0,1,,,,,0,,,73,92
28416,note_off,,,,,48,0,1,,,,,0,,,71,0
28416,note_on,,,,,0,0,7,,,,,5,,,40,92
28416,note_off,,,,,384,0,7,,,,,5,,,52,0
28416,note_off,,,,,48,0,2,,,,,1,,,68,0
28416,note_off,,,,,384,0,3,,,,,10,,,52,0
28464,note_off,,,,,48,0,1,,,,,0,,,73,0
28464,note_on,,,,,0,0,2,,,,,1,,,68,92
28464,note_on,,,,,0,0,1,,,,,0,,,71,92
28464,note_off,,,,,48,0,2,,,,,1,,,69,0
28608,note_off,,,,,144,0,2,,,,,1,,,68,0
28608,note_on,,,,,0,0,1,,,,,0,,,69,92
28608,note_off,,,,,144,0,1,,,,,0,,,71,0
28608,note_off,,,,,576,0,5,,,,,3,,,68,0
28608,note_on,,,,,0,0,5,,,,,3,,,69,108
28608,note_on,,,,,0,0,2,,,,,1,,,69,92
28608,note_off,,,,,576,0,4,,,,,2,,,71,0
28608,note_on,,,,,0,0,4,,,,,2,,,69,108
28736,note_off,,,,,320,0,8,,,,,6,,,28,0
28736,note_off,,,,,320,0,9,,,,,7,,,40,0
28800,note_on,,,,,0,0,4,,,,,2,,,69,108
28800,note_off,,,,,192,0,4,,,,,2,,,69,0
28800,note_off,,,,,384,0,7,,,,,5,,,40,0
28800,note_off,,,,,384,0,6,,,,,4,,,64,0
28800,note_on,,,,,0,0,2,,,,,1,,,69,92
28800,note_on,,,,,0,0,6,,,,,4,,,61,92
28800,note_on,,,,,0,0,5,,,,,3,,,69,108
28800,note_off,,,,,192,0,5,,,,,3,,,69,0
28800,note_off,,,,,384,0,3,,,,,10,,,40,0
28800,note_on,,,,,0,0,3,,,,,10,,,45,92
28800,note_on,,,,,64,0,8,,,,,6,,,33,75
28800,note_on,,,,,0,0,7,,,,,5,,,45,92
28800,note_off,,,,,192,0,1,,,,,0,,,69,0
28800,note_off,,,,,192,0,2,,,,,1,,,69,0
28800,note_on,,,,,64,0,9,,,,,7,,,45,45
28800,note_on,,,,,0,0,1,,,,,0,,,69,92
29084,note_off,,,,,284,0,1,,,,,0,,,69,0
29088,note_on,,,,,4,0,1,,,,,0,,,81,92
29120,note_off,,,,,320,0,8,,,,,6,,,33,0
29120,note_off,,,,,320,0,9,,,,,7,,,45,0
29180,note_off,,,,,92,0,1,,,,,0,,,81,0
29184,note_off,,,,,384,0,4,,,,,2,,,69,0
29184,note_off,,,,,384,0,7,,,,,5,,,45,0
29184,note_off,,,,,384,0,2,,,,,1,,,69,0
29184,note_off,,,,,384,0,6,,,,,4,,,61,0
29184,note_on,,,,,4,0,1,,,,,0,,,80,92
29184,note_off,,,,,384,0,3,,,,,10,,,45,0
29184,note_off,,,,,384,0,5,,,,,3,,,69,0
29276,note_off,,,,,92,0,1,,,,,0,,,80,0
29280,note_on,,,,,4,0,1,,,,,0,,,81,92
29372,note_off,,,,,92,0,1,,,,,0,,,81,0
29376,note_on,,,,,4,0,1,,,,,0,,,78,92
29564,note_off,,,,,188,0,1,,,,,0,,,78,0
29568,note_on,,,,,4,0,1,,,,,0,,,76,92
29660,note_off,,,,,92,0,1,,,,,0,,,76,0
29664,note_on,,,,,4,0,1,,,,,0,,,78,92
29756,note_off,,,,,92,0,1,,,,,0,,,78,0
29760,note_on,,,,,4,0,1,,,,,0,,,74,92
29948,note_off,,,,,188,0,1,,,,,0,,,74,0
29952,note_on,,,,,768,0,2,,,,,1,,,69,75
29952,note_on,,,,,768,0,3,,,,,10,,,57,75
29952,note_on,,,,,4,0,1,,,,,0,,,73,92
30236,note_off,,,,,284,0,1,,,,,0,,,73,0
30240,note_on,,,,,4,0,1,,,,,0,,,76,92
30332,note_off,,,,,92,0,1,,,,,0,,,76,0
30336,note_on,,,,,4,0,1,,,,,0,,,78,92
30336,note_off,,,,,384,0,3,,,,,10,,,57,0
30336,note_on,,,,,0,0,3,,,,,10,,,50,75
30336,note_off,,,,,384,0,2,,,,,1,,,69,0
30336,note_on,,,,,0,0,2,,,,,1,,,66,75
30620,note_off,,,,,284,0,1,,,,,0,,,78,0
30624,note_on,,,,,4,0,1,,,,,0,,,73,92
30716,note_off,,,,,92,0,1,,,,,0,,,73,0
30720,note_on,,,,,0,0,2,,,,,1,,,62,75
30720,note_on,,,,,0,0,3,,,,,10,,,54,75
30720,note_on,,,,,4,0,1,,,,,0,,,71,92
30720,note_off,,,,,384,0,2,,,,,1,,,66,0
30720,note_off,,,,,384,0,3,,,,,10,,,50,0
31004,note_off,,,,,284,0,1,,,,,0,,,71,0
31008,note_on,,,,,4,0,1,,,,,0,,,69,92
31100,note_off,,,,,92,0,1,,,,,0,,,69,0
31104,note_on,,,,,4,0,1,,,,,0,,,68,92
31104,note_on,,,,,0,0,3,,,,,10,,,52,75
31104,note_off,,,,,384,0,3,,,,,10,,,54,0
31104,note_off,,,,,384,0,2,,,,,1,,,62,0
31104,note_on,,,,,0,0,2,,,,,1,,,64,75
31228,note_off,,,,,124,0,1,,,,,0,,,68,0
31232,note_on,,,,,4,0,1,,,,,0,,,71,92
31356,note_off,,,,,124,0,1,,,,,0,,,71,0
31360,note_on,,,,,4,0,1,,,,,0,,,69,92
31484,note_off,,,,,124,0,1,,,,,0,,,69,0
31488,note_on,,,,,4,0,1,,,,,0,,,71,92
31488,note_off,,,,,384,0,2,,,,,1,,,64,0
31488,note_on,,,,,0,0,3,,,,,10,,,56,75
31488,note_off,,,,,384,0,3,,,,,10,,,52,0
31488,note_on,,,,,0,0,2,,,,,1,,,59,75
31612,note_off,,,,,124,0,1,,,,,0,,,71,0
31616,note_on,,,,,4,0,1,,,,,0,,,68,92
31740,note_off,,,,,124,0,1,,,,,0,,,68,0
31744,note_on,,,,,4,0,1,,,,,0,,,64,92
31868,note_off,,,,,124,0,1,,,,,0,,,64,0
31872,note_off,,,,,384,0,3,,,,,10,,,56,0
31872,note_on,,,,,4,0,1,,,,,0,,,62,92
31872,note_off,,,,,384,0,2,,,,,1,,,59,0
31872,note_on,,,,,0,0,3,,,,,10,,,52,75
31996,note_off,,,,,124,0,1,,,,,0,,,62,0
32000,note_on,,,,,4,0,1,,,,,0,,,61,92
32124,note_off,,,,,124,0,1,,,,,0,,,61,0
32128,note_on,,,,,4,0,1,,,,,0,,,59,92
32252,note_off,,,,,124,0,1,,,,,0,,,59,0
32256,note_on,,,,,0,0,3,,,,,10,,,57,75
32256,note_on,,,,,4,0,1,,,,,0,,,61,92
32256,note_off,,,,,384,0,3,,,,,10,,,52,0
32380,note_off,,,,,124,0,1,,,,,0,,,61,0
32384,note_on,,,,,4,0,1,,,,,0,,,64,92
32508,note_off,,,,,124,0,1,,,,,0,,,64,0
32512,note_on,,,,,4,0,1,,,,,0,,,61,92
32636,note_off,,,,,124,0,1,,,,,0,,,61,0
32640,note_on,,,,,4,0,1,,,,,0,,,69,92
32640,note_off,,,,,384,0,3,,,,,10,,,57,0
32640,note_on,,,,,768,0,2,,,,,1,,,61,75
32764,note_off,,,,,124,0,1,,,,,0,,,69,0
32768,note_on,,,,,4,0,1,,,,,0,,,73,92
32892,note_off,,,,,124,0,1,,,,,0,,,73,0
32896,note_on,,,,,4,0,1,,,,,0,,,69,92
33020,note_off,,,,,124,0,1,,,,,0,,,69,0
33024,note_on,,,,,384,0,3,,,,,10,,,61,75
33024,note_on,,,,,0,0,2,,,,,1,,,64,75
33024,note_off,,,,,384,0,2,,,,,1,,,61,0
33024,note_on,,,,,4,0,1,,,,,0,,,64,92
33148,note_off,,,,,124,0,1,,,,,0,,,64,0
33152,note_on,,,,,4,0,1,,,,,0,,,67,92
33276,note_off,,,,,124,0,1,,,,,0,,,67,0
33280,note_on,,,,,4,0,1,,,,,0,,,64,92
33404,note_off,,,,,124,0,1,,,,,0,,,64,0
33408,note_on,,,,,4,0,1,,,,,0,,,66,92
33408,note_off,,,,,384,0,2,,,,,1,,,64,0
33408,note_off,,,,,384,0,3,,,,,10,,,61,0
33408,note_on,,,,,0,0,3,,,,,10,,,62,75
33532,note_off,,,,,124,0,1,,,,,0,,,66,0
33536,note_on,,,,,4,0,1,,,,,0,,,69,92
33660,note_off,,,,,124,0,1,,,,,0,,,69,0
33664,note_on,,,,,4,0,1,,,,,0,,,66,92
33788,note_off,,,,,124,0,1,,,,,0,,,66,0
33792,note_on,,,,,384,0,2,,,,,1,,,66,75
33792,note_off,,,,,384,0,3,,,,,10,,,62,0
33792,note_on,,,,,0,0,3,,,,,10,,,59,75
33792,note_on,,,,,4,0,1,,,,,0,,,71,92
33916,note_off,,,,,124,0,1,,,,,0,,,71,0
33920,note_on,,,,,4,0,1,,,,,0,,,74,92
34044,note_off,,,,,124,0,1,,,,,0,,,74,0
34048,note_on,,,,,4,0,1,,,,,0,,,71,92
34172,note_off,,,,,124,0,1,,,,,0,,,71,0
34176,note_on,,,,,4,0,1,,,,,0,,,66,92
34176,note_off,,,,,384,0,3,,,,,10,,,59,0
34176,note_on,,,,,0,0,2,,,,,1,,,74,75
34176,note_off,,,,,384,0,2,,,,,1,,,66,0
34300,note_off,,,,,124,0,1,,,,,0,,,66,0
34304,note_on,,,,,4,0,1,,,,,0,,,69,92
34428,note_off,,,,,124,0,1,,,,,0,,,69,0
34432,note_on,,,,,4,0,1,,,,,0,,,66,92
34556,note_off,,,,,124,0,1,,,,,0,,,66,0
34560,note_on,,,,,4,0,1,,,,,0,,,68,92
34560,note_on,,,,,384,0,3,,,,,10,,,64,75
34560,note_off,,,,,384,0,2,,,,,1,,,74,0
34684,note_off,,,,,124,0,1,,,,,0,,,68,0
34688,note_on,,,,,4,0,1,,,,,0,,,71,92
34812,note_off,,,,,124,0,1,,,,,0,,,71,0
34816,note_on,,,,,4,0,1,,,,,0,,,68,92
34940,note_off,,,,,124,0,1,,,,,0,,,68,0
34944,note_on,,,,,4,0,1,,,,,0,,,73,92
34944,note_on,,,,,384,0,2,,,,,1,,,68,75
34944,note_off,,,,,384,0,3,,,,,10,,,64,0
34944,note_on,,,,,0,0,3,,,,,10,,,61,75
35068,note_off,,,,,124,0,1,,,,,0,,,73,0
35072,note_on,,,,,4,0,1,,,,,0,,,76,92
35196,note_off,,,,,124,0,1,,,,,0,,,76,0
35200,note_on,,,,,4,0,1,,,,,0,,,73,92
35324,note_off,,,,,124,0,1,,,,,0,,,73,0
35328,note_on,,,,,4,0,1,,,,,0,,,68,92
35328,note_on,,,,,0,0,2,,,,,1,,,76,75
35328,note_off,,,,,384,0,3,,,,,10,,,61,0
35328,note_off,,,,,384,0,2,,,,,1,,,68,0
35452,note_off,,,,,124,0,1,,,,,0,,,68,0
35456,note_on,,,,,4,0,1,,,,,0,,,71,92
35580,note_off,,,,,124,0,1,,,,,0,,,71,0
35584,note_on,,,,,4,0,1,,,,,0,,,68,92
35708,note_off,,,,,124,0,1,,,,,0,,,68,0
35712,note_on,,,,,4,0,1,,,,,0,,,69,92
35712,note_off,,,,,384,0,2,,,,,1,,,76,0
35712,note_on,,,,,384,0,3,,,,,10,,,66,75
35836,note_off,,,,,124,0,1,,,,,0,,,69,0
35840,note_on,,,,,4,0,1,,,,,0,,,73,92
35964,note_off,,,,,124,0,1,,,,,0,,,73,0
35968,note_on,,,,,4,0,1,,,,,0,,,69,92
36092,note_off,,,,,124,0,1,,,,,0,,,69,0
36096,note_off,,,,,384,0,3,,,,,10,,,66,0
36096,note_on,,,,,0,0,3,,,,,10,,,62,75
36096,note_on,,,,,4,0,1,,,,,0,,,74,92
36096,note_on,,,,,384,0,2,,,,,1,,,69,75
36220,note_off,,,,,124,0,1,,,,,0,,,74,0
36224,note_on,,,,,4,0,1,,,,,0,,,78,92
36348,note_off,,,,,124,0,1,,,,,0,,,78,0
36352,note_on,,,,,4,0,1,,,,,0,,,74,92
36476,note_off,,,,,124,0,1,,,,,0,,,74,0
36480,note_off,,,,,384,0,2,,,,,1,,,69,0
36480,note_on,,,,,4,0,1,,,,,0,,,69,92
36480,note_off,,,,,384,0,3,,,,,10,,,62,0
36480,note_on,,,,,0,0,2,,,,,1,,,78,75
36604,note_off,,,,,124,0,1,,,,,0,,,69,0
36608,note_on,,,,,4,0,1,,,,,0,,,73,92
36732,note_off,,,,,124,0,1,,,,,0,,,73,0
36736,note_on,,,,,4,0,1,,,,,0,,,69,92
36860,note_off,,,,,124,0,1,,,,,0,,,69,0
36864,note_off,,,,,384,0,2,,,,,1,,,78,0
36864,note_on,,,,,384,0,3,,,,,10,,,68,75
36864,note_on,,,,,4,0,1,,,,,0,,,71,92
36988,note_off,,,,,124,0,1,,,,,0,,,71,0
36992,note_on,,,,,4,0,1,,,,,0,,,74,92
37116,note_off,,,,,124,0,1,,,,,0,,,74,0
37120,note_on,,,,,4,0,1,,,,,0,,,71,92
37244,note_off,,,,,124,0,1,,,,,0,,,71,0
37248,note_on,,,,,0,0,3,,,,,10,,,64,75
37248,note_on,,,,,4,0,1,,,,,0,,,76,92
37248,note_on,,,,,384,0,2,,,,,1,,,71,75
37248,note_off,,,,,384,0,3,,,,,10,,,68,0
37372,note_off,,,,,124,0,1,,,,,0,,,76,0
37376,note_on,,,,,4,0,1,,,,,0,,,80,92
37500,note_off,,,,,124,0,1,,,,,0,,,80,0
37504,note_on,,,,,4,0,1,,,,,0,,,76,92
37628,note_off,,,,,124,0,1,,,,,0,,,76,0
37632,note_off,,,,,384,0,3,,,,,10,,,64,0
37632,note_on,,,,,0,0,2,,,,,1,,,80,75
37632,note_off,,,,,384,0,2,,,,,1,,,71,0
37632,note_on,,,,,4,0,1,,,,,0,,,71,92
37756,note_off,,,,,124,0,1,,,,,0,,,71,0
37760,note_on,,,,,4,0,1,,,,,0,,,74,92
37884,note_off,,,,,124,0,1,,,,,0,,,74,0
37888,note_on,,,,,4,0,1,,,,,0,,,71,92
38012,note_off,,,,,124,0,1,,,,,0,,,71,0
38016,note_on,,,,,4,0,1,,,,,0,,,73,92
38016,note_on,,,,,384,0,3,,,,,10,,,69,75
38016,note_off,,,,,384,0,2,,,,,1,,,80,0
38140,note_off,,,,,124,0,1,,,,,0,,,73,0
38144,note_on,,,,,4,0,1,,,,,0,,,76,92
38268,note_off,,,,,124,0,1,,,,,0,,,76,0
38272,note_on,,,,,4,0,1,,,,,0,,,73,92
38396,note_off,,,,,124,0,1,,,,,0,,,73,0
38400,note_on,,,,,384,0,2,,,,,1,,,73,75
38400,note_on,,,,,0,0,3,,,,,10,,,57,75
38400,note_on,,,,,4,0,1,,,,,0,,,78,92
38400,note_off,,,,,384,0,3,,,,,10,,,69,0
38524,note_off,,,,,124,0,1,,,,,0,,,78,0
38528,note_on,,,,,4,0,1,,,,,0,,,80,92
38652,note_off,,,,,124,0,1,,,,,0,,,80,0
38656,note_on,,,,,4,0,1,,,,,0,,,81,92
38780,note_off,,,,,124,0,1,,,,,0,,,81,0
38784,note_on,,,,,4,0,1,,,,,0,,,78,92
38784,note_off,,,,,384,0,3,,,,,10,,,57,0
38784,note_on,,,,,0,0,3,,,,,10,,,69,75
38784,note_on,,,,,0,0,2,,,,,1,,,81,75
38784,note_off,,,,,384,0,2,,,,,1,,,73,0
38908,note_off,,,,,124,0,1,,,,,0,,,78,0
38912,note_on,,,,,4,0,1,,,,,0,,,80,92
39036,note_off,,,,,124,0,1,,,,,0,,,80,0
39040,note_on,,,,,4,0,1,,,,,0,,,81,92
39164,note_off,,,,,124,0,1,,,,,0,,,81,0
39168,note_off,,,,,384,0,2,,,,,1,,,81,0
39168,note_on,,,,,4,0,1,,,,,0,,,71,92
39292,note_off,,,,,124,0,1,,,,,0,,,71,0
39296,note_on,,,,,4,0,1,,,,,0,,,75,92
39420,note_off,,,,,124,0,1,,,,,0,,,75,0
39424,note_on,,,,,4,0,1,,,,,0,,,71,92
39548,note_off,,,,,124,0,1,,,,,0,,,71,0
39552,note_on,,,,,4,0,1,,,,,0,,,76,92
39552,note_on,,,,,384,0,2,,,,,1,,,71,75
39552,note_on,,,,,0,0,3,,,,,10,,,68,75
39552,note_off,,,,,768,0,3,,,,,10,,,69,0
39676,note_off,,,,,124,0,1,,,,,0,,,76,0
39680,note_on,,,,,4,0,1,,,,,0,,,78,92
39804,note_off,,,,,124,0,1,,,,,0,,,78,0
39808,note_on,,,,,4,0,1,,,,,0,,,80,92
39932,note_off,,,,,124,0,1,,,,,0,,,80,0
39936,note_on,,,,,4,0,1,,,,,0,,,76,92
39936,note_on,,,,,0,0,2,,,,,1,,,83,75
39936,note_off,,,,,384,0,2,,,,,1,,,71,0
40060,note_off,,,,,124,0,1,,,,,0,,,76,0
40064,note_on,,,,,4,0,1,,,,,0,,,78,92
40188,note_off,,,,,124,0,1,,,,,0,,,78,0
40192,note_on,,,,,4,0,1,,,,,0,,,80,92
40316,note_off,,,,,124,0,1,,,,,0,,,80,0
40320,note_off,,,,,384,0,2,,,,,1,,,83,0
40320,note_on,,,,,4,0,1,,,,,0,,,69,92
40444,note_off,,,,,124,0,1,,,,,0,,,69,0
40448,note_on,,,,,4,0,1,,,,,0,,,73,92
40572,note_off,,,,,124,0,1,,,,,0,,,73,0
40576,note_on,,,,,4,0,1,,,,,0,,,69,92
40700,note_off,,,,,124,0,1,,,,,0,,,69,0
40704,note_on,,,,,384,0,2,,,,,1,,,69,75
40704,note_on,,,,,4,0,1,,,,,0,,,75,92
40704,note_on,,,,,0,0,3,,,,,10,,,66,75
40704,note_off,,,,,1152,0,3,,,,,10,,,68,0
40828,note_off,,,,,124,0,1,,,,,0,,,75,0
40832,note_on,,,,,4,0,1,,,,,0,,,76,92
40956,note_off,,,,,124,0,1,,,,,0,,,76,0
40960,note_on,,,,,4,0,1,,,,,0,,,78,92
41084,note_off,,,,,124,0,1,,,,,0,,,78,0
41088,note_off,,,,,384,0,2,,,,,1,,,69,0
41088,note_on,,,,,0,0,2,,,,,1,,,81,75
41088,note_on,,,,,4,0,1,,,,,0,,,75,92
41212,note_off,,,,,124,0,1,,,,,0,,,75,0
41216,note_on,,,,,4,0,1,,,,,0,,,76,92
41340,note_off,,,,,124,0,1,,,,,0,,,76,0
41344,note_on,,,,,4,0,1,,,,,0,,,78,92
41468,note_off,,,,,124,0,1,,,,,0,,,78,0
41472,note_off,,,,,768,0,3,,,,,10,,,66,0
41472,note_on,,,,,0,0,3,,,,,10,,,64,75
41472,note_on,,,,,4,0,1,,,,,0,,,68,92
41472,note_off,,,,,384,0,2,,,,,1,,,81,0
41596,note_off,,,,,124,0,1,,,,,0,,,68,0
41600,note_on,,,,,4,0,1,,,,,0,,,71,92
41724,note_off,,,,,124,0,1,,,,,0,,,71,0
41728,note_on,,,,,4,0,1,,,,,0,,,69,92
41852,note_off,,,,,124,0,1,,,,,0,,,69,0
41856,note_on,,,,,4,0,1,,,,,0,,,68,92
41856,note_on,,,,,384,0,2,,,,,1,,,71,75
41856,note_off,,,,,384,0,3,,,,,10,,,64,0
41980,note_off,,,,,124,0,1,,,,,0,,,68,0
41984,note_on,,,,,4,0,1,,,,,0,,,66,92
42108,note_off,,,,,124,0,1,,,,,0,,,66,0
42112,note_on,,,,,4,0,1,,,,,0,,,64,92
42236,note_off,,,,,124,0,1,,,,,0,,,64,0
42240,note_on,,,,,0,0,2,,,,,1,,,68,75
42240,note_off,,,,,384,0,2,,,,,1,,,71,0
42240,note_on,,,,,4,0,1,,,,,0,,,71,92
42364,note_off,,,,,124,0,1,,,,,0,,,71,0
42368,note_on,,,,,4,0,1,,,,,0,,,69,92
42492,note_off,,,,,124,0,1,,,,,0,,,69,0
42496,note_on,,,,,4,0,1,,,,,0,,,68,92
42620,note_off,,,,,124,0,1,,,,,0,,,68,0
42624,note_on,,,,,0,0,2,,,,,1,,,71,92
42624,note_on,,,,,13440,0,7,,,,,5,,,56,45
42624,note_off,,,,,384,0,2,,,,,1,,,68,0
42624,note_on,,,,,4,0,1,,,,,0,,,76,92
42624,note_on,,,,,13504,0,8,,,,,6,,,44,30
42624,note_on,,,,,768,0,3,,,,,10,,,56,92
42624,note_on,,,,,13440,0,4,,,,,2,,,76,60
42624,note_on,,,,,13440,0,5,,,,,3,,,71,60
42624,note_on,,,,,13504,0,9,,,,,7,,,56,30
42624,note_on,,,,,13440,0,6,,,,,4,,,64,45
42748,note_off,,,,,124,0,1,,,,,0,,,76,0
42752,note_on,,,,,4,0,1,,,,,0,,,78,92
42876,note_off,,,,,124,0,1,,,,,0,,,78,0
42880,note_on,,,,,4,0,1,,,,,0,,,80,92
42944,note_off,,,,,320,0,9,,,,,7,,,56,0
42944,note_off,,,,,320,0,8,,,,,6,,,44,0
42944,note_off,,,,,320,0,3,,,,,10,,,56,0
42944,note_off,,,,,320,0,2,,,,,1,,,71,0
43004,note_off,,,,,124,0,1,,,,,0,,,80,0
43008,note_off,,,,,384,0,6,,,,,4,,,64,0
43008,note_off,,,,,384,0,5,,,,,3,,,71,0
43008,note_on,,,,,4,0,1,,,,,0,,,76,92
43008,note_off,,,,,384,0,4,,,,,2,,,76,0
43008,note_off,,,,,384,0,7,,,,,5,,,56,0
43132,note_off,,,,,124,0,1,,,,,0,,,76,0
43136,note_on,,,,,4,0,1,,,,,0,,,78,92
43260,note_off,,,,,124,0,1,,,,,0,,,78,0
43264,note_on,,,,,4,0,1,,,,,0,,,80,92
43388,note_off,,,,,124,0,1,,,,,0,,,80,0
43392,note_on,,,,,448,0,3,,,,,10,,,56,92
43392,note_on,,,,,448,0,2,,,,,1,,,56,92
43392,note_on,,,,,4,0,1,,,,,0,,,64,92
43516,note_off,,,,,124,0,2,,,,,1,,,56,0
43516,note_off,,,,,124,0,3,,,,,10,,,56,0
43520,note_on,,,,,4,0,2,,,,,1,,,59,92
43520,note_on,,,,,4,0,3,,,,,10,,,61,92
43644,note_off,,,,,124,0,3,,,,,10,,,61,0
43644,note_off,,,,,124,0,2,,,,,1,,,59,0
43648,note_on,,,,,4,0,3,,,,,10,,,64,92
43648,note_on,,,,,4,0,2,,,,,1,,,64,92
43712,note_off,,,,,320,0,1,,,,,0,,,64,0
43772,note_off,,,,,124,0,2,,,,,1,,,64,0
43772,note_off,,,,,124,0,3,,,,,10,,,64,0
43776,note_on,,,,,768,0,7,,,,,5,,,57,45
43776,note_on,,,,,768,0,6,,,,,4,,,69,45
43776,note_on,,,,,768,0,5,,,,,3,,,73,60
43776,note_on,,,,,832,0,8,,,,,6,,,45,30
43776,note_on,,,,,768,0,4,,,,,2,,,76,60
43776,note_on,,,,,832,0,9,,,,,7,,,57,30
43776,note_on,,,,,4,0,2,,,,,1,,,73,92
43776,note_on,,,,,4,0,3,,,,,10,,,59,92
43776,note_on,,,,,64,0,1,,,,,0,,,76,92
43900,note_off,,,,,124,0,1,,,,,0,,,76,0
43904,note_on,,,,,4,0,1,,,,,0,,,78,92
44028,note_off,,,,,124,0,1,,,,,0,,,78,0
44032,note_on,,,,,4,0,1,,,,,0,,,80,92
44096,note_off,,,,,320,0,3,,,,,10,,,59,0
44096,note_off,,,,,320,0,2,,,,,1,,,73,0
44096,note_off,,,,,320,0,9,,,,,7,,,57,0
44096,note_off,,,,,320,0,8,,,,,6,,,45,0
44156,note_off,,,,,124,0,1,,,,,0,,,80,0
44160,note_off,,,,,384,0,6,,,,,4,,,69,0
44160,note_off,,,,,384,0,4,,,,,2,,,76,0
44160,note_off,,,,,384,0,5,,,,,3,,,73,0
44160,note_on,,,,,4,0,1,,,,,0,,,76,92
44160,note_off,,,,,384,0,7,,,,,5,,,57,0
44284,note_off,,,,,124,0,1,,,,,0,,,76,0
44288,note_on,,,,,4,0,1,,,,,0,,,78,92
44412,note_off,,,,,124,0,1,,,,,0,,,78,0
44416,note_on,,,,,4,0,1,,,,,0,,,80,92
44540,note_off,,,,,124,0,1,,,,,0,,,80,0
44544,note_on,,,,,448,0,2,,,,,1,,,57,92
44544,note_on,,,,,4,0,1,,,,,0,,,64,92
44544,note_on,,,,,448,0,3,,,,,10,,,57,92
44668,note_off,,,,,124,0,3,,,,,10,,,57,0
44668,note_off,,,,,124,0,2,,,,,1,,,57,0
44672,note_on,,,,,4,0,2,,,,,1,,,61,92
44672,note_on,,,,,4,0,3,,,,,10,,,61,92
44796,note_off,,,,,124,0,3,,,,,10,,,61,0
44796,note_off,,,,,124,0,2,,,,,1,,,61,0
44800,note_on,,,,,4,0,2,,,,,1,,,64,92
44800,note_on,,,,,4,0,3,,,,,10,,,64,92
44864,note_off,,,,,320,0,1,,,,,0,,,64,0
44924,note_off,,,,,124,0,3,,,,,10,,,64,0
44924,note_off,,,,,124,0,2,,,,,1,,,64,0
44928,note_on,,,,,4,0,3,,,,,10,,,59,92
44928,note_on,,,,,768,0,4,,,,,2,,,76,60
44928,note_on,,,,,832,0,9,,,,,7,,,59,30
44928,note_on,,,,,64,0,1,,,,,0,,,76,92
44928,note_on,,,,,832,0,8,,,,,6,,,47,30
44928,note_on,,,,,768,0,6,,,,,4,,,68,45
44928,note_on,,,,,768,0,7,,,,,5,,,59,45
44928,note_on,,,,,768,0,5,,,,,3,,,71,60
44928,note_on,,,,,4,0,2,,,,,1,,,71,92
45052,note_off,,,,,124,0,1,,,,,0,,,76,0
45056,note_on,,,,,4,0,1,,,,,0,,,78,92
45180,note_off,,,,,124,0,1,,,,,0,,,78,0
45184,note_on,,,,,4,0,1,,,,,0,,,80,92
45248,note_off,,,,,320,0,8,,,,,6,,,47,0
45248,note_off,,,,,320,0,9,,,,,7,,,59,0
45248,note_off,,,,,320,0,3,,,,,10,,,59,0
45248,note_off,,,,,320,0,2,,,,,1,,,71,0
45308,note_off,,,,,124,0,1,,,,,0,,,80,0
45312,note_on,,,,,4,0,1,,,,,0,,,76,92
45312,note_off,,,,,384,0,4,,,,,2,,,76,0
45312,note_off,,,,,384,0,5,,,,,3,,,71,0
45312,note_off,,,,,384,0,6,,,,,4,,,68,0
45312,note_off,,,,,384,0,7,,,,,5,,,59,0
45436,note_off,,,,,124,0,1,,,,,0,,,76,0
45440,note_on,,,,,4,0,1,,,,,0,,,78,92
45564,note_off,,,,,124,0,1,,,,,0,,,78,0
45568,note_on,,,,,4,0,1,,,,,0,,,80,92
45692,note_off,,,,,124,0,1,,,,,0,,,80,0
45696,note_on,,,,,448,0,3,,,,,10,,,59,92
45696,note_on,,,,,4,0,1,,,,,0,,,64,92
45696,note_on,,,,,448,0,2,,,,,1,,,59,92
45820,note_off,,,,,124,0,3,,,,,10,,,59,0
45820,note_off,,,,,124,0,2,,,,,1,,,59,0
45824,note_on,,,,,4,0,3,,,,,10,,,64,92
45824,note_on,,,,,4,0,2,,,,,1,,,64,92
45948,note_off,,,,,124,0,3,,,,,10,,,64,0
45948,note_off,,,,,124,0,2,,,,,1,,,64,0
45952,note_on,,,,,4,0,3,,,,,10,,,59,92
45952,note_on,,,,,4,0,2,,,,,1,,,68,92
46016,note_off,,,,,320,0,1,,,,,0,,,64,0
46076,note_off,,,,,124,0,2,,,,,1,,,68,0
46076,note_off,,,,,124,0,3,,,,,10,,,59,0
46080,note_on,,,,,768,0,5,,,,,3,,,68,60
46080,note_on,,,,,832,0,9,,,,,7,,,61,30
46080,note_on,,,,,768,0,4,,,,,2,,,76,60
46080,note_on,,,,,768,0,6,,,,,4,,,64,45
46080,note_on,,,,,64,0,1,,,,,0,,,76,92
46080,note_on,,,,,832,0,8,,,,,6,,,49,30
46080,note_on,,,,,768,0,7,,,,,5,,,61,45
46080,note_on,,,,,4,0,2,,,,,1,,,73,92
46080,note_on,,,,,4,0,3,,,,,10,,,61,92
46204,note_off,,,,,124,0,1,,,,,0,,,76,0
46208,note_on,,,,,4,0,1,,,,,0,,,78,92
46332,note_off,,,,,124,0,1,,,,,0,,,78,0
46336,note_on,,,,,4,0,1,,,,,0,,,80,92
46400,note_off,,,,,320,0,9,,,,,7,,,61,0
46400,note_off,,,,,320,0,8,,,,,6,,,49,0
46400,note_off,,,,,320,0,2,,,,,1,,,73,0
46400,note_off,,,,,320,0,3,,,,,10,,,61,0
46460,note_off,,,,,124,0,1,,,,,0,,,80,0
46464,note_off,,,,,384,0,4,,,,,2,,,76,0
46464,note_off,,,,,384,0,7,,,,,5,,,61,0
46464,note_off,,,,,384,0,5,,,,,3,,,68,0
46464,note_off,,,,,384,0,6,,,,,4,,,64,0
46464,note_on,,,,,4,0,1,,,,,0,,,76,92
46588,note_off,,,,,124,0,1,,,,,0,,,76,0
46592,note_on,,,,,4,0,1,,,,,0,,,78,92
46716,note_off,,,,,124,0,1,,,,,0,,,78,0
46720,note_on,,,,,4,0,1,,,,,0,,,80,92
46844,note_off,,,,,124,0,1,,,,,0,,,80,0
46848,note_on,,,,,448,0,2,,,,,1,,,61,92
46848,note_on,,,,,448,0,3,,,,,10,,,61,92
46848,note_on,,,,,4,0,1,,,,,0,,,64,92
46972,note_off,,,,,124,0,3,,,,,10,,,61,0
46972,note_off,,,,,124,0,2,,,,,1,,,61,0
46976,note_on,,,,,4,0,2,,,,,1,,,64,92
46976,note_on,,,,,4,0,3,,,,,10,,,64,92
47100,note_off,,,,,124,0,3,,,,,10,,,64,0
47100,note_off,,,,,124,0,2,,,,,1,,,64,0
47104,note_on,,,,,4,0,3,,,,,10,,,61,92
47104,note_on,,,,,4,0,2,,,,,1,,,68,92
47168,note_off,,,,,320,0,1,,,,,0,,,64,0
47228,note_off,,,,,124,0,2,,,,,1,,,68,0
47228,note_off,,,,,124,0,3,,,,,10,,,61,0
47232,note_on,,,,,768,0,5,,,,,3,,,71,60
47232,note_on,,,,,768,0,7,,,,,5,,,56,45
47232,note_on,,,,,4,0,3,,,,,10,,,56,92
47232,note_on,,,,,832,0,8,,,,,6,,,44,30
47232,note_on,,,,,832,0,9,,,,,7,,,56,30
47232,note_on,,,,,64,0,1,,,,,0,,,80,92
47232,note_on,,,,,4,0,2,,,,,1,,,76,92
47232,note_on,,,,,768,0,6,,,,,4,,,64,45
47232,note_on,,,,,768,0,4,,,,,2,,,76,60
47356,note_off,,,,,124,0,3,,,,,10,,,56,0
47356,note_off,,,,,124,0,1,,,,,0,,,80,0
47356,note_off,,,,,124,0,2,,,,,1,,,76,0
47360,note_on,,,,,4,0,1,,,,,0,,,81,92
47360,note_on,,,,,4,0,3,,,,,10,,,59,92
47360,note_on,,,,,4,0,2,,,,,1,,,78,92
47484,note_off,,,,,124,0,3,,,,,10,,,59,0
47484,note_off,,,,,124,0,2,,,,,1,,,78,0
47484,note_off,,,,,124,0,1,,,,,0,,,81,0
47488,note_on,,,,,4,0,3,,,,,10,,,64,92
47488,note_on,,,,,4,0,2,,,,,1,,,80,92
47488,note_on,,,,,4,0,1,,,,,0,,,83,92
47552,note_off,,,,,320,0,9,,,,,7,,,56,0
47552,note_off,,,,,320,0,8,,,,,6,,,44,0
47612,note_off,,,,,124,0,2,,,,,1,,,80,0
47612,note_off,,,,,124,0,3,,,,,10,,,64,0
47612,note_off,,,,,124,0,1,,,,,0,,,83,0
47616,note_on,,,,,4,0,3,,,,,10,,,56,92
47616,note_on,,,,,4,0,1,,,,,0,,,80,92
47616,note_on,,,,,4,0,2,,,,,1,,,76,92
47616,note_off,,,,,384,0,5,,,,,3,,,71,0
47616,note_off,,,,,384,0,7,,,,,5,,,56,0
47616,note_off,,,,,384,0,6,,,,,4,,,64,0
47616,note_off,,,,,384,0,4,,,,,2,,,76,0
47740,note_off,,,,,124,0,1,,,,,0,,,80,0
47740,note_off,,,,,124,0,2,,,,,1,,,76,0
47740,note_off,,,,,124,0,3,,,,,10,,,56,0
47744,note_on,,,,,4,0,2,,,,,1,,,78,92
47744,note_on,,,,,4,0,1,,,,,0,,,81,92
47744,note_on,,,,,4,0,3,,,,,10,,,59,92
47868,note_off,,,,,124,0,2,,,,,1,,,78,0
47868,note_off,,,,,124,0,3,,,,,10,,,59,0
47868,note_off,,,,,124,0,1,,,,,0,,,81,0
47872,note_on,,,,,4,0,1,,,,,0,,,83,92
47872,note_on,,,,,4,0,3,,,,,10,,,64,92
47872,note_on,,,,,4,0,2,,,,,1,,,80,92
47996,note_off,,,,,124,0,3,,,,,10,,,64,0
47996,note_off,,,,,124,0,1,,,,,0,,,83,0
47996,note_off,,,,,124,0,2,,,,,1,,,80,0
48000,note_on,,,,,4,0,2,,,,,1,,,76,92
48000,note_on,,,,,4,0,3,,,,,10,,,56,92
48000,note_on,,,,,4,0,1,,,,,0,,,80,92
48124,note_off,,,,,124,0,2,,,,,1,,,76,0
48124,note_off,,,,,124,0,3,,,,,10,,,56,0
48124,note_off,,,,,124,0,1,,,,,0,,,80,0
48128,note_on,,,,,4,0,1,,,,,0,,,81,92
48128,note_on,,,,,4,0,3,,,,,10,,,59,92
48128,note_on,,,,,4,0,2,,,,,1,,,78,92
48252,note_off,,,,,124,0,2,,,,,1,,,78,0
48252,note_off,,,,,124,0,3,,,,,10,,,59,0
48252,note_off,,,,,124,0,1,,,,,0,,,81,0
48256,note_on,,,,,4,0,2,,,,,1,,,80,92
48256,note_on,,,,,4,0,3,,,,,10,,,64,92
48256,note_on,,,,,4,0,1,,,,,0,,,83,92
48380,note_off,,,,,124,0,2,,,,,1,,,80,0
48380,note_off,,,,,124,0,3,,,,,10,,,64,0
48380,note_off,,,,,124,0,1,,,,,0,,,83,0
48384,note_on,,,,,768,0,6,,,,,4,,,69,45
48384,note_on,,,,,768,0,7,,,,,5,,,57,45
48384,note_on,,,,,4,0,3,,,,,10,,,57,92
48384,note_on,,,,,832,0,9,,,,,7,,,57,30
48384,note_on,,,,,4,0,1,,,,,0,,,80,92
48384,note_on,,,,,768,0,4,,,,,2,,,76,60
48384,note_on,,,,,768,0,5,,,,,3,,,73,60
48384,note_on,,,,,832,0,8,,,,,6,,,45,30
48384,note_on,,,,,4,0,2,,,,,1,,,76,92
48508,note_off,,,,,124,0,2,,,,,1,,,76,0
48508,note_off,,,,,124,0,1,,,,,0,,,80,0
48512,note_on,,,,,4,0,1,,,,,0,,,81,92
48512,note_on,,,,,4,0,2,,,,,1,,,78,92
48636,note_off,,,,,124,0,2,,,,,1,,,78,0
48636,note_off,,,,,124,0,1,,,,,0,,,81,0
48640,note_on,,,,,4,0,1,,,,,0,,,83,92
48640,note_on,,,,,4,0,2,,,,,1,,,80,92
48704,note_off,,,,,320,0,3,,,,,10,,,57,0
48704,note_off,,,,,320,0,9,,,,,7,,,57,0
48704,note_off,,,,,320,0,8,,,,,6,,,45,0
48764,note_off,,,,,124,0,2,,,,,1,,,80,0
48764,note_off,,,,,124,0,1,,,,,0,,,83,0
48768,note_on,,,,,4,0,1,,,,,0,,,80,92
48768,note_off,,,,,384,0,4,,,,,2,,,76,0
48768,note_off,,,,,384,0,6,,,,,4,,,69,0
48768,note_off,,,,,384,0,5,,,,,3,,,73,0
48768,note_off,,,,,384,0,7,,,,,5,,,57,0
48768,note_on,,,,,4,0,2,,,,,1,,,76,92
48892,note_off,,,,,124,0,1,,,,,0,,,80,0
48892,note_off,,,,,124,0,2,,,,,1,,,76,0
48896,note_on,,,,,4,0,2,,,,,1,,,78,92
48896,note_on,,,,,4,0,1,,,,,0,,,81,92
49020,note_off,,,,,124,0,1,,,,,0,,,81,0
49020,note_off,,,,,124,0,2,,,,,1,,,78,0
49024,note_on,,,,,4,0,1,,,,,0,,,83,92
49024,note_on,,,,,4,0,2,,,,,1,,,80,92
49148,note_off,,,,,124,0,2,,,,,1,,,80,0
49148,note_off,,,,,124,0,1,,,,,0,,,83,0
49152,note_on,,,,,4,0,2,,,,,1,,,76,92
49152,note_on,,,,,4,0,1,,,,,0,,,80,92
49276,note_off,,,,,124,0,2,,,,,1,,,76,0
49276,note_off,,,,,124,0,1,,,,,0,,,80,0
49280,note_on,,,,,4,0,2,,,,,1,,,78,92
49280,note_on,,,,,4,0,1,,,,,0,,,81,92
49404,note_off,,,,,124,0,2,,,,,1,,,78,0
49404,note_off,,,,,124,0,1,,,,,0,,,81,0
49408,note_on,,,,,4,0,1,,,,,0,,,83,92
49408,note_on,,,,,4,0,2,,,,,1,,,80,92
49532,note_off,,,,,124,0,1,,,,,0,,,83,0
49532,note_off,,,,,124,0,2,,,,,1,,,80,0
49536,note_on,,,,,4,0,2,,,,,1,,,76,92
49536,note_on,,,,,832,0,3,,,,,10,,,59,92
49536,note_on,,,,,832,0,8,,,,,6,,,47,30
49536,note_on,,,,,832,0,9,,,,,7,,,59,30
49536,note_on,,,,,768,0,7,,,,,5,,,59,45
49536,note_on,,,,,768,0,4,,,,,2,,,75,60
49536,note_on,,,,,4,0,1,,,,,0,,,80,92
49536,note_on,,,,,768,0,6,,,,,4,,,63,45
49536,note_on,,,,,768,0,5,,,,,3,,,68,60
49660,note_off,,,,,124,0,1,,,,,0,,,80,0
49660,note_off,,,,,124,0,2,,,,,1,,,76,0
49664,note_on,,,,,4,0,1,,,,,0,,,81,92
49664,note_on,,,,,4,0,2,,,,,1,,,78,92
49788,note_off,,,,,124,0,1,,,,,0,,,81,0
49788,note_off,,,,,124,0,2,,,,,1,,,78,0
49792,note_on,,,,,4,0,2,,,,,1,,,80,92
49792,note_on,,,,,4,0,1,,,,,0,,,83,92
49856,note_off,,,,,320,0,3,,,,,10,,,59,0
49856,note_off,,,,,320,0,9,,,,,7,,,59,0
49856,note_off,,,,,320,0,8,,,,,6,,,47,0
49916,note_off,,,,,124,0,1,,,,,0,,,83,0
49916,note_off,,,,,124,0,2,,,,,1,,,80,0
49920,note_off,,,,,384,0,7,,,,,5,,,59,0
49920,note_off,,,,,384,0,6,,,,,4,,,63,0
49920,note_on,,,,,4,0,2,,,,,1,,,76,92
49920,note_off,,,,,384,0,4,,,,,2,,,75,0
49920,note_off,,,,,384,0,5,,,,,3,,,68,0
49920,note_on,,,,,4,0,1,,,,,0,,,80,92
50044,note_off,,,,,124,0,2,,,,,1,,,76,0
50044,note_off,,,,,124,0,1,,,,,0,,,80,0
50048,note_on,,,,,4,0,2,,,,,1,,,78,92
50048,note_on,,,,,4,0,1,,,,,0,,,81,92
50172,note_off,,,,,124,0,1,,,,,0,,,81,0
50172,note_off,,,,,124,0,2,,,,,1,,,78,0
50176,note_on,,,,,4,0,1,,,,,0,,,83,92
50176,note_on,,,,,4,0,2,,,,,1,,,80,92
50300,note_off,,,,,124,0,1,,,,,0,,,83,0
50300,note_off,,,,,124,0,2,,,,,1,,,80,0
50304,note_on,,,,,4,0,1,,,,,0,,,80,92
50304,note_on,,,,,4,0,2,,,,,1,,,76,92
50428,note_off,,,,,124,0,2,,,,,1,,,76,0
50428,note_off,,,,,124,0,1,,,,,0,,,80,0
50432,note_on,,,,,4,0,1,,,,,0,,,81,92
50432,note_on,,,,,4,0,2,,,,,1,,,78,92
50556,note_off,,,,,124,0,1,,,,,0,,,81,0
50556,note_off,,,,,124,0,2,,,,,1,,,78,0
50560,note_on,,,,,4,0,2,,,,,1,,,80,92
50560,note_on,,,,,4,0,1,,,,,0,,,83,92
50684,note_off,,,,,124,0,2,,,,,1,,,80,0
50684,note_off,,,,,124,0,1,,,,,0,,,83,0
50688,note_on,,,,,768,0,7,,,,,5,,,61,45
50688,note_on,,,,,832,0,8,,,,,6,,,49,30
50688,note_on,,,,,768,0,4,,,,,2,,,76,60
50688,note_on,,,,,832,0,9,,,,,7,,,61,30
50688,note_on,,,,,768,0,5,,,,,3,,,73,60
50688,note_on,,,,,768,0,6,,,,,4,,,68,45
50688,note_on,,,,,832,0,3,,,,,10,,,61,92
50688,note_on,,,,,4,0,2,,,,,1,,,76,92
50688,note_on,,,,,4,0,1,,,,,0,,,76,92
50812,note_off,,,,,124,0,1,,,,,0,,,76,0
50816,note_on,,,,,4,0,1,,,,,0,,,81,92
50940,note_off,,,,,124,0,1,,,,,0,,,81,0
50944,note_on,,,,,4,0,1,,,,,0,,,80,92
51008,note_off,,,,,320,0,3,,,,,10,,,61,0
51008,note_off,,,,,320,0,2,,,,,1,,,76,0
51008,note_off,,,,,320,0,8,,,,,6,,,49,0
51008,note_off,,,,,320,0,9,,,,,7,,,61,0
51068,note_off,,,,,124,0,1,,,,,0,,,80,0
51072,note_off,,,,,384,0,7,,,,,5,,,61,0
51072,note_on,,,,,4,0,1,,,,,0,,,78,92
51072,note_off,,,,,384,0,4,,,,,2,,,76,0
51072,note_off,,,,,384,0,5,,,,,3,,,73,0
51072,note_off,,,,,384,0,6,,,,,4,,,68,0
51196,note_off,,,,,124,0,1,,,,,0,,,78,0
51200,note_on,,,,,4,0,1,,,,,0,,,80,92
51324,note_off,,,,,124,0,1,,,,,0,,,80,0
51328,note_on,,,,,4,0,1,,,,,0,,,76,92
51452,note_off,,,,,124,0,1,,,,,0,,,76,0
51456,note_on,,,,,4,0,1,,,,,0,,,75,92
51580,note_off,,,,,124,0,1,,,,,0,,,75,0
51584,note_on,,,,,4,0,1,,,,,0,,,76,92
51708,note_off,,,,,124,0,1,,,,,0,,,76,0
51712,note_on,,,,,4,0,1,,,,,0,,,73,92
51836,note_off,,,,,124,0,1,,,,,0,,,73,0
51840,note_on,,,,,832,0,9,,,,,7,,,63,30
51840,note_on,,,,,832,0,2,,,,,1,,,66,92
51840,note_on,,,,,768,0,5,,,,,3,,,66,60
51840,note_on,,,,,832,0,8,,,,,6,,,51,30
51840,note_on,,,,,768,0,4,,,,,2,,,71,60
51840,note_on,,,,,768,0,6,,,,,4,,,63,45
51840,note_on,,,,,768,0,7,,,,,5,,,63,45
51840,note_on,,,,,832,0,3,,,,,10,,,63,92
51840,note_on,,,,,4,0,1,,,,,0,,,71,92
51964,note_off,,,,,124,0,1,,,,,0,,,71,0
51968,note_on,,,,,4,0,1,,,,,0,,,75,92
52092,note_off,,,,,124,0,1,,,,,0,,,75,0
52096,note_on,,,,,4,0,1,,,,,0,,,78,92
52160,note_off,,,,,320,0,3,,,,,10,,,63,0
52160,note_off,,,,,320,0,2,,,,,1,,,66,0
52160,note_off,,,,,320,0,8,,,,,6,,,51,0
52160,note_off,,,,,320,0,9,,,,,7,,,63,0
52220,note_off,,,,,124,0,1,,,,,0,,,78,0
52224,note_on,,,,,4,0,1,,,,,0,,,83,92
52224,note_off,,,,,384,0,4,,,,,2,,,71,0
52224,note_off,,,,,384,0,7,,,,,5,,,63,0
52224,note_off,,,,,384,0,6,,,,,4,,,63,0
52224,note_off,,,,,384,0,5,,,,,3,,,66,0
52348,note_off,,,,,124,0,1,,,,,0,,,83,0
52352,note_on,,,,,4,0,1,,,,,0,,,81,92
52476,note_off,,,,,124,0,1,,,,,0,,,81,0
52480,note_on,,,,,4,0,1,,,,,0,,,80,92
52604,note_off,,,,,124,0,1,,,,,0,,,80,0
52608,note_on,,,,,4,0,1,,,,,0,,,81,92
52732,note_off,,,,,124,0,1,,,,,0,,,81,0
52736,note_on,,,,,4,0,1,,,,,0,,,80,92
52860,note_off,,,,,124,0,1,,,,,0,,,80,0
52864,note_on,,,,,4,0,1,,,,,0,,,78,92
52988,note_off,,,,,124,0,1,,,,,0,,,78,0
52992,note_on,,,,,768,0,7,,,,,5,,,64,45
52992,note_on,,,,,832,0,3,,,,,10,,,64,92
52992,note_on,,,,,832,0,9,,,,,7,,,64,30
52992,note_on,,,,,832,0,2,,,,,1,,,71,92
52992,note_on,,,,,4,0,1,,,,,0,,,80,92
52992,note_on,,,,,832,0,8,,,,,6,,,52,30
53312,note_off,,,,,320,0,9,,,,,7,,,64,0
53312,note_off,,,,,320,0,8,,,,,6,,,52,0
53312,note_off,,,,,320,0,1,,,,,0,,,80,0
53312,note_off,,,,,320,0,2,,,,,1,,,71,0
53312,note_off,,,,,320,0,3,,,,,10,,,64,0
53376,note_on,,,,,64,0,2,,,,,1,,,76,127
53376,note_on,,,,,1152,0,5,,,,,3,,,76,127
53376,note_on,,,,,64,0,9,,,,,7,,,52,63
53376,note_on,,,,,0,0,7,,,,,5,,,52,127
53376,note_off,,,,,384,0,7,,,,,5,,,64,0
53376,note_on,,,,,1152,0,4,,,,,2,,,80,127
53376,note_on,,,,,64,0,8,,,,,6,,,40,105
53376,note_on,,,,,1152,0,6,,,,,4,,,71,127
53376,note_on,,,,,64,0,3,,,,,10,,,52,127
53376,note_on,,,,,64,0,1,,,,,0,,,80,127
53696,note_off,,,,,320,0,8,,,,,6,,,40,0
53696,note_off,,,,,320,0,9,,,,,7,,,52,0
53760,note_off,,,,,384,0,1,,,,,0,,,80,0
53760,note_off,,,,,384,0,3,,,,,10,,,52,0
53760,note_on,,,,,0,0,3,,,,,10,,,54,127
53760,note_on,,,,,0,0,5,,,,,3,,,75,127
53760,note_on,,,,,64,0,9,,,,,7,,,54,63
53760,note_on,,,,,0,0,7,,,,,5,,,54,127
53760,note_off,,,,,384,0,7,,,,,5,,,52,0
53760,note_on,,,,,64,0,8,,,,,6,,,42,105
53760,note_on,,,,,0,0,6,,,,,4,,,69,127
53760,note_off,,,,,384,0,6,,,,,4,,,71,0
53760,note_on,,,,,0,0,1,,,,,0,,,81,127
53760,note_off,,,,,384,0,5,,,,,3,,,76,0
53760,note_off,,,,,384,0,4,,,,,2,,,80,0
53760,note_on,,,,,0,0,2,,,,,1,,,75,127
53760,note_off,,,,,384,0,2,,,,,1,,,76,0
53760,note_on,,,,,0,0,4,,,,,2,,,81,127
54080,note_off,,,,,320,0,9,,,,,7,,,54,0
54080,note_off,,,,,320,0,8,,,,,6,,,42,0
54144,note_on,,,,,0,0,1,,,,,0,,,83,92
54144,note_on,,,,,0,0,7,,,,,5,,,56,92
54144,note_on,,,,,64,0,9,,,,,7,,,56,45
54144,note_off,,,,,384,0,2,,,,,1,,,75,0
54144,note_on,,,,,64,0,8,,,,,6,,,44,75
54144,note_on,,,,,0,0,4,,,,,2,,,83,108
54144,note_on,,,,,0,0,2,,,,,1,,,76,92
54144,note_off,,,,,384,0,7,,,,,5,,,54,0
54144,note_off,,,,,384,0,6,,,,,4,,,69,0
54144,note_off,,,,,384,0,4,,,,,2,,,81,0
54144,note_on,,,,,0,0,3,,,,,10,,,56,92
54144,note_off,,,,,384,0,3,,,,,10,,,54,0
54144,note_off,,,,,384,0,5,,,,,3,,,75,0
54144,note_on,,,,,0,0,5,,,,,3,,,76,108
54144,note_off,,,,,384,0,1,,,,,0,,,81,0
54144,note_on,,,,,0,0,6,,,,,4,,,71,92
54656,note_off,,,,,512,0,8,,,,,6,,,44,0
54656,note_off,,,,,512,0,9,,,,,7,,,56,0
54720,note_off,,,,,576,0,3,,,,,10,,,56,0
54720,note_off,,,,,576,0,4,,,,,2,,,83,0
54720,note_on,,,,,0,0,4,,,,,2,,,81,108
54720,note_on,,,,,0,0,7,,,,,5,,,54,92
54720,note_off,,,,,576,0,7,,,,,5,,,56,0
54720,note_on,,,,,0,0,3,,,,,10,,,54,92
54720,note_on,,,,,64,0,9,,,,,7,,,54,45
54720,note_off,,,,,576,0,1,,,,,0,,,83,0
54720,note_on,,,,,64,0,8,,,,,6,,,42,75
54720,note_on,,,,,0,0,2,,,,,1,,,75,92
54720,note_on,,,,,0,0,1,,,,,0,,,81,92
54720,note_on,,,,,0,0,5,,,,,3,,,75,108
54720,note_off,,,,,576,0,5,,,,,3,,,76,0
54720,note_off,,,,,576,0,2,,,,,1,,,76,0
54908,note_off,,,,,188,0,9,,,,,7,,,54,0
54908,note_off,,,,,188,0,8,,,,,6,,,42,0
54912,note_on,,,,,4,0,9,,,,,7,,,52,45
54912,note_off,,,,,192,0,4,,,,,2,,,81,0
54912,note_on,,,,,0,0,3,,,,,10,,,52,92
54912,note_off,,,,,192,0,1,,,,,0,,,81,0
54912,note_on,,,,,0,0,1,,,,,0,,,80,92
54912,note_on,,,,,0,0,5,,,,,3,,,76,108
54912,note_off,,,,,192,0,5,,,,,3,,,75,0
54912,note_on,,,,,0,0,4,,,,,2,,,80,108
54912,note_off,,,,,192,0,3,,,,,10,,,54,0
54912,note_off,,,,,192,0,2,,,,,1,,,75,0
54912,note_on,,,,,0,0,2,,,,,1,,,76,92
54912,note_on,,,,,0,0,6,,,,,4,,,71,92
54912,note_off,,,,,768,0,6,,,,,4,,,71,0
54912,note_off,,,,,192,0,7,,,,,5,,,54,0
54912,note_on,,,,,0,0,7,,,,,5,,,52,92
54912,note_on,,,,,4,0,8,,,,,6,,,40,75
55232,note_off,,,,,320,0,8,,,,,6,,,40,0
55232,note_off,,,,,320,0,9,,,,,7,,,52,0
55296,note_on,,,,,64,0,9,,,,,7,,,57,45
55296,note_on,,,,,0,0,6,,,,,4,,,73,92
55296,note_off,,,,,384,0,6,,,,,4,,,71,0
55296,note_off,,,,,384,0,1,,,,,0,,,80,0
55296,note_off,,,,,384,0,7,,,,,5,,,52,0
55296,note_on,,,,,0,0,4,,,,,2,,,78,108
55296,note_off,,,,,384,0,4,,,,,2,,,80,0
55296,note_on,,,,,0,0,5,,,,,3,,,76,108
55296,note_off,,,,,384,0,5,,,,,3,,,76,0
55296,note_on,,,,,64,0,8,,,,,6,,,45,75
55296,note_on,,,,,0,0,3,,,,,10,,,57,92
55296,note_off,,,,,384,0,3,,,,,10,,,52,0
55296,note_on,,,,,0,0,7,,,,,5,,,57,92
55296,note_on,,,,,0,0,1,,,,,0,,,78,92
55296,note_off,,,,,384,0,2,,,,,1,,,76,0
55296,note_on,,,,,0,0,2,,,,,1,,,76,92
55616,note_off,,,,,320,0,9,,,,,7,,,57,0
55616,note_off,,,,,320,0,8,,,,,6,,,45,0
55680,note_off,,,,,384,0,6,,,,,4,,,73,0
55680,note_on,,,,,0,0,2,,,,,1,,,75,92
55680,note_off,,,,,384,0,5,,,,,3,,,76,0
55680,note_off,,,,,384,0,1,,,,,0,,,78,0
55680,note_on,,,,,0,0,4,,,,,2,,,78,108
55680,note_off,,,,,384,0,4,,,,,2,,,78,0
55680,note_off,,,,,384,0,2,,,,,1,,,76,0
55680,note_on,,,,,0,0,5,,,,,3,,,75,108
55680,note_on,,,,,0,0,6,,,,,4,,,71,92
55680,note_on,,,,,0,0,3,,,,,10,,,59,92
55680,note_on,,,,,64,0,9,,,,,7,,,59,45
55680,note_on,,,,,0,0,7,,,,,5,,,59,92
55680,note_off,,,,,384,0,7,,,,,5,,,57,0
55680,note_on,,,,,0,0,1,,,,,0,,,78,92
55680,note_off,,,,,384,0,3,,,,,10,,,57,0
55680,note_on,,,,,64,0,8,,,,,6,,,47,75
56000,note_off,,,,,320,0,9,,,,,7,,,59,0
56000,note_off,,,,,320,0,8,,,,,6,,,47,0
56064,note_off,,,,,384,0,5,,,,,3,,,75,0
56064,note_off,,,,,384,0,3,,,,,10,,,59,0
56064,note_on,,,,,64,0,8,,,,,6,,,49,75
56064,note_off,,,,,384,0,2,,,,,1,,,75,0
56064,note_on,,,,,0,0,3,,,,,10,,,61,92
56064,note_off,,,,,384,0,7,,,,,5,,,59,0
56064,note_on,,,,,0,0,7,,,,,5,,,61,92
56064,note_off,,,,,384,0,1,,,,,0,,,78,0
56064,note_on,,,,,0,0,2,,,,,1,,,76,92
56064,note_on,,,,,0,0,5,,,,,3,,,76,108
56064,note_on,,,,,0,0,1,,,,,0,,,78,92
56064,note_on,,,,,64,0,9,,,,,7,,,61,45
56064,note_off,,,,,384,0,4,,,,,2,,,78,0
56064,note_on,,,,,0,0,4,,,,,2,,,78,108
56064,note_off,,,,,384,0,6,,,,,4,,,71,0
56064,note_on,,,,,0,0,6,,,,,4,,,70,92
56384,note_off,,,,,320,0,9,,,,,7,,,61,0
56384,note_off,,,,,320,0,8,,,,,6,,,49,0
56448,note_off,,,,,384,0,5,,,,,3,,,76,0
56448,note_on,,,,,64,0,8,,,,,6,,,47,75
56448,note_on,,,,,0,0,1,,,,,0,,,78,92
56448,note_on,,,,,0,0,7,,,,,5,,,59,92
56448,note_off,,,,,384,0,7,,,,,5,,,61,0
56448,note_off,,,,,384,0,6,,,,,4,,,70,0
56448,note_on,,,,,0,0,6,,,,,4,,,71,92
56448,note_on,,,,,64,0,9,,,,,7,,,59,45
56448,note_on,,,,,0,0,5,,,,,3,,,75,108
56448,note_off,,,,,384,0,2,,,,,1,,,76,0
56448,note_on,,,,,0,0,2,,,,,1,,,75,92
56448,note_on,,,,,0,0,4,,,,,2,,,78,108
56448,note_off,,,,,384,0,4,,,,,2,,,78,0
56448,note_off,,,,,384,0,3,,,,,10,,,61,0
56448,note_on,,,,,0,0,3,,,,,10,,,59,92
56448,note_off,,,,,384,0,1,,,,,0,,,78,0
56576,note_off,,,,,128,0,3,,,,,10,,,59,0
56576,note_on,,,,,0,0,3,,,,,10,,,59,92
56704,note_on,,,,,0,0,3,,,,,10,,,57,92
56704,note_off,,,,,128,0,3,,,,,10,,,59,0
56768,note_off,,,,,320,0,8,,,,,6,,,47,0
56768,note_off,,,,,320,0,9,,,,,7,,,59,0
56832,note_off,,,,,384,0,1,,,,,0,,,78,0
56832,note_off,,,,,384,0,2,,,,,1,,,75,0
56832,note_off,,,,,384,0,6,,,,,4,,,71,0
56832,note_off,,,,,384,0,7,,,,,5,,,59,0
56832,note_off,,,,,384,0,5,,,,,3,,,75,0
56832,note_off,,,,,128,0,3,,,,,10,,,57,0
56832,note_on,,,,,0,0,3,,,,,10,,,56,92
56832,note_off,,,,,384,0,4,,,,,2,,,78,0
56960,note_off,,,,,128,0,3,,,,,10,,,56,0
56960,note_on,,,,,0,0,3,,,,,10,,,54,92
57088,note_off,,,,,128,0,3,,,,,10,,,54,0
57088,note_on,,,,,0,0,3,,,,,10,,,52,92
57216,note_off,,,,,128,0,3,,,,,10,,,52,0
57216,note_on,,,,,0,0,3,,,,,10,,,57,92
57344,note_off,,,,,128,0,3,,,,,10,,,57,0
57344,note_on,,,,,0,0,3,,,,,10,,,56,92
57472,note_off,,,,,128,0,3,,,,,10,,,56,0
57472,note_on,,,,,0,0,3,,,,,10,,,54,92
57600,note_off,,,,,128,0,3,,,,,10,,,54,0
57600,note_on,,,,,0,0,3,,,,,10,,,59,92
57728,note_off,,,,,128,0,3,,,,,10,,,59,0
57728,note_on,,,,,0,0,3,,,,,10,,,64,92
57856,note_off,,,,,128,0,3,,,,,10,,,64,0
57856,note_on,,,,,0,0,3,,,,,10,,,63,92
57984,note_on,,,,,0,0,3,,,,,10,,,61,92
57984,note_off,,,,,128,0,3,,,,,10,,,63,0
58112,note_off,,,,,128,0,3,,,,,10,,,61,0
58112,note_on,,,,,0,0,3,,,,,10,,,59,92
58240,note_off,,,,,128,0,3,,,,,10,,,59,0
58240,note_on,,,,,0,0,3,,,,,10,,,57,92
58368,note_off,,,,,128,0,3,,,,,10,,,57,0
58368,note_on,,,,,0,0,3,,,,,10,,,56,92
58496,note_off,,,,,128,0,3,,,,,10,,,56,0
58496,note_on,,,,,0,0,3,,,,,10,,,54,92
58624,note_off,,,,,128,0,3,,,,,10,,,54,0
58624,note_on,,,,,0,0,3,,,,,10,,,52,92
58752,note_on,,,,,1920,0,7,,,,,5,,,47,92
58752,note_on,,,,,1984,0,8,,,,,6,,,35,75
58752,note_off,,,,,128,0,3,,,,,10,,,52,0
58752,note_on,,,,,1984,0,9,,,,,7,,,47,45
58752,note_on,,,,,0,0,3,,,,,10,,,47,92
58752,note_on,,,,,1920,0,6,,,,,4,,,63,92
58752,note_on,,,,,1920,0,4,,,,,2,,,71,108
58752,note_on,,,,,1920,0,5,,,,,3,,,66,108
59072,note_off,,,,,320,0,9,,,,,7,,,47,0
59072,note_off,,,,,320,0,8,,,,,6,,,35,0
59136,note_off,,,,,384,0,7,,,,,5,,,47,0
59136,note_off,,,,,384,0,4,,,,,2,,,71,0
59136,note_off,,,,,384,0,6,,,,,4,,,63,0
59136,note_off,,,,,384,0,3,,,,,10,,,47,0
59136,note_on,,,,,2304,0,2,,,,,1,,,76,92
59136,note_on,,,,,2304,0,1,,,,,0,,,80,92
59136,note_off,,,,,384,0,5,,,,,3,,,66,0
59424,note_on,,,,,0,0,2,,,,,1,,,78,92
59424,note_off,,,,,288,0,2,,,,,1,,,76,0
59424,note_off,,,,,288,0,1,,,,,0,,,80,0
59424,note_on,,,,,0,0,1,,,,,0,,,81,92
59520,note_off,,,,,96,0,2,,,,,1,,,78,0
59520,note_on,,,,,0,0,1,,,,,0,,,81,92
59520,note_off,,,,,96,0,1,,,,,0,,,81,0
59520,note_on,,,,,0,0,2,,,,,1,,,78,92
59808,note_on,,,,,0,0,1,,,,,0,,,83,92
59808,note_off,,,,,288,0,1,,,,,0,,,81,0
59808,note_off,,,,,288,0,2,,,,,1,,,78,0
59808,note_on,,,,,0,0,2,,,,,1,,,80,92
59904,note_off,,,,,96,0,1,,,,,0,,,83,0
59904,note_on,,,,,0,0,2,,,,,1,,,80,92
59904,note_off,,,,,96,0,2,,,,,1,,,80,0
59904,note_on,,,,,0,0,1,,,,,0,,,83,92
60288,note_on,,,,,1152,0,3,,,,,10,,,64,92
60480,note_off,,,,,576,0,1,,,,,0,,,83,0
60480,note_on,,,,,0,0,2,,,,,1,,,78,92
60480,note_off,,,,,576,0,2,,,,,1,,,80,0
60480,note_on,,,,,0,0,1,,,,,0,,,81,92
60672,note_on,,,,,0,0,2,,,,,1,,,76,92
60672,note_off,,,,,384,0,3,,,,,10,,,64,0
60672,note_off,,,,,192,0,2,,,,,1,,,78,0
60672,note_off,,,,,192,0,1,,,,,0,,,81,0
60672,note_on,,,,,0,0,3,,,,,10,,,56,92
60672,note_on,,,,,0,0,1,,,,,0,,,80,92
61056,note_off,,,,,384,0,2,,,,,1,,,76,0
61056,note_on,,,,,0,0,2,,,,,1,,,76,92
61056,note_on,,,,,0,0,3,,,,,10,,,57,92
61056,note_off,,,,,384,0,3,,,,,10,,,56,0
61056,note_on,,,,,0,0,1,,,,,0,,,78,92
61056,note_off,,,,,384,0,1,,,,,0,,,80,0
61440,note_on,,,,,0,0,3,,,,,10,,,59,92
61440,note_off,,,,,384,0,3,,,,,10,,,57,0
61440,note_on,,,,,0,0,1,,,,,0,,,78,92
61440,note_off,,,,,384,0,2,,,,,1,,,76,0
61440,note_on,,,,,0,0,2,,,,,1,,,76,92
61440,note_off,,,,,384,0,1,,,,,0,,,78,0
61824,note_off,,,,,384,0,3,,,,,10,,,59,0
61824,note_on,,,,,0,0,3,,,,,10,,,61,92
61824,note_on,,,,,0,0,1,,,,,0,,,78,92
61824,note_off,,,,,384,0,1,,,,,0,,,78,0
61824,note_off,,,,,384,0,2,,,,,1,,,76,0
61824,note_on,,,,,0,0,2,,,,,1,,,76,92
62208,note_on,,,,,3072,0,5,,,,,3,,,66,108
62208,note_on,,,,,3072,0,6,,,,,4,,,63,92
62208,note_off,,,,,384,0,3,,,,,10,,,61,0
62208,note_off,,,,,384,0,2,,,,,1,,,76,0
62208,note_on,,,,,0,0,2,,,,,1,,,75,92
62208,note_on,,,,,3072,0,7,,,,,5,,,47,92
62208,note_on,,,,,0,0,3,,,,,10,,,59,92
62208,note_off,,,,,384,0,1,,,,,0,,,78,0
62208,note_on,,,,,3136,0,8,,,,,6,,,35,75
62208,note_on,,,,,3136,0,9,,,,,7,,,47,45
62208,note_on,,,,,3072,0,4,,,,,2,,,71,108
62208,note_on,,,,,0,0,1,,,,,0,,,78,92
62332,note_off,,,,,124,0,1,,,,,0,,,78,0
62336,note_on,,,,,4,0,1,,,,,0,,,83,92
62460,note_off,,,,,124,0,1,,,,,0,,,83,0
62464,note_on,,,,,4,0,1,,,,,0,,,81,92
62528,note_off,,,,,320,0,9,,,,,7,,,47,0
62528,note_off,,,,,320,0,8,,,,,6,,,35,0
62588,note_off,,,,,124,0,1,,,,,0,,,81,0
62592,note_off,,,,,384,0,2,,,,,1,,,75,0
62592,note_off,,,,,384,0,6,,,,,4,,,63,0
62592,note_on,,,,,4,0,1,,,,,0,,,80,92
62592,note_off,,,,,384,0,5,,,,,3,,,66,0
62592,note_off,,,,,384,0,3,,,,,10,,,59,0
62592,note_off,,,,,384,0,4,,,,,2,,,71,0
62592,note_off,,,,,384,0,7,,,,,5,,,47,0
62716,note_off,,,,,124,0,1,,,,,0,,,80,0
62720,note_on,,,,,4,0,1,,,,,0,,,78,92
62844,note_off,,,,,124,0,1,,,,,0,,,78,0
62848,note_on,,,,,4,0,1,,,,,0,,,76,92
62972,note_off,,,,,124,0,1,,,,,0,,,76,0
62976,note_on,,,,,4,0,1,,,,,0,,,75,92
63100,note_off,,,,,124,0,1,,,,,0,,,75,0
63104,note_on,,,,,4,0,1,,,,,0,,,76,92
63228,note_off,,,,,124,0,1,,,,,0,,,76,0
63232,note_on,,,,,4,0,1,,,,,0,,,78,92
63356,note_off,,,,,124,0,1,,,,,0,,,78,0
63360,note_on,,,,,4,0,1,,,,,0,,,71,92
63484,note_off,,,,,124,0,1,,,,,0,,,71,0
63488,note_on,,,,,4,0,1,,,,,0,,,76,92
63488,note_on,,,,,896,0,4,,,,,2,,,76,108
63488,note_on,,,,,896,0,5,,,,,3,,,76,108
63488,note_on,,,,,896,0,2,,,,,1,,,76,92
63612,note_off,,,,,124,0,1,,,,,0,,,76,0
63612,note_off,,,,,124,0,2,,,,,1,,,76,0
63616,note_off,,,,,128,0,5,,,,,3,,,76,0
63616,note_on,,,,,0,0,5,,,,,3,,,75,108
63616,note_on,,,,,4,0,2,,,,,1,,,75,92
63616,note_on,,,,,0,0,4,,,,,2,,,75,108
63616,note_on,,,,,4,0,1,,,,,0,,,75,92
63616,note_off,,,,,128,0,4,,,,,2,,,76,0
63740,note_off,,,,,124,0,1,,,,,0,,,75,0
63740,note_off,,,,,124,0,2,,,,,1,,,75,0
63744,note_on,,,,,4,0,1,,,,,0,,,73,92
63744,note_on,,,,,4,0,2,,,,,1,,,73,92
63744,note_on,,,,,0,0,4,,,,,2,,,73,108
63744,note_on,,,,,0,0,5,,,,,3,,,73,108
63744,note_off,,,,,128,0,5,,,,,3,,,75,0
63744,note_off,,,,,128,0,4,,,,,2,,,75,0
63868,note_off,,,,,124,0,2,,,,,1,,,73,0
63868,note_off,,,,,124,0,1,,,,,0,,,73,0
63872,note_on,,,,,4,0,1,,,,,0,,,71,92
63872,note_on,,,,,4,0,2,,,,,1,,,71,92
63872,note_off,,,,,128,0,4,,,,,2,,,73,0
63872,note_on,,,,,0,0,4,,,,,2,,,71,108
63872,note_off,,,,,128,0,5,,,,,3,,,73,0
63872,note_on,,,,,0,0,5,,,,,3,,,71,108
63996,note_off,,,,,124,0,1,,,,,0,,,71,0
63996,note_off,,,,,124,0,2,,,,,1,,,71,0
64000,note_on,,,,,4,0,2,,,,,1,,,69,92
64000,note_off,,,,,128,0,5,,,,,3,,,71,0
64000,note_on,,,,,0,0,5,,,,,3,,,69,108
64000,note_off,,,,,128,0,4,,,,,2,,,71,0
64000,note_on,,,,,4,0,1,,,,,0,,,69,92
64000,note_on,,,,,0,0,4,,,,,2,,,69,108
64124,note_off,,,,,124,0,2,,,,,1,,,69,0
64124,note_off,,,,,124,0,1,,,,,0,,,69,0
64128,note_off,,,,,128,0,5,,,,,3,,,69,0
64128,note_on,,,,,4,0,1,,,,,0,,,68,92
64128,note_off,,,,,128,0,4,,,,,2,,,69,0
64128,note_on,,,,,0,0,4,,,,,2,,,68,108
64128,note_on,,,,,4,0,2,,,,,1,,,68,92
64128,note_on,,,,,0,0,5,,,,,3,,,68,108
64252,note_off,,,,,124,0,2,,,,,1,,,68,0
64252,note_off,,,,,124,0,1,,,,,0,,,68,0
64256,note_off,,,,,128,0,4,,,,,2,,,68,0
64256,note_off,,,,,128,0,5,,,,,3,,,68,0
64256,note_on,,,,,4,0,1,,,,,0,,,66,92
64256,note_on,,,,,4,0,2,,,,,1,,,66,92
64256,note_on,,,,,0,0,4,,,,,2,,,66,108
64256,note_on,,,,,0,0,5,,,,,3,,,66,108
64380,note_off,,,,,124,0,1,,,,,0,,,66,0
64380,note_off,,,,,124,0,2,,,,,1,,,66,0
64384,note_on,,,,,0,0,4,,,,,2,,,64,108
64384,note_on,,,,,4,0,2,,,,,1,,,64,92
64384,note_on,,,,,0,0,5,,,,,3,,,64,108
64384,note_off,,,,,128,0,5,,,,,3,,,66,0
64384,note_off,,,,,128,0,4,,,,,2,,,66,0
64384,note_on,,,,,4,0,1,,,,,0,,,64,92
64508,note_off,,,,,124,0,1,,,,,0,,,64,0
64508,note_off,,,,,124,0,2,,,,,1,,,64,0
64512,note_off,,,,,128,0,5,,,,,3,,,64,0
64512,note_on,,,,,0,0,5,,,,,3,,,71,108
64512,note_on,,,,,4,0,1,,,,,0,,,71,92
64512,note_on,,,,,4,0,2,,,,,1,,,71,92
64512,note_on,,,,,0,0,4,,,,,2,,,71,108
64512,note_off,,,,,128,0,4,,,,,2,,,64,0
64636,note_off,,,,,124,0,1,,,,,0,,,71,0
64640,note_on,,,,,4,0,1,,,,,0,,,83,92
64764,note_off,,,,,124,0,1,,,,,0,,,83,0
64768,note_on,,,,,4,0,1,,,,,0,,,81,92
64832,note_off,,,,,320,0,2,,,,,1,,,71,0
64892,note_off,,,,,124,0,1,,,,,0,,,81,0
64896,note_on,,,,,4,0,1,,,,,0,,,80,92
64896,note_off,,,,,384,0,5,,,,,3,,,71,0
64896,note_off,,,,,384,0,4,,,,,2,,,71,0
65020,note_off,,,,,124,0,1,,,,,0,,,80,0
65024,note_on,,,,,4,0,1,,,,,0,,,78,92
65148,note_off,,,,,124,0,1,,,,,0,,,78,0
65152,note_on,,,,,4,0,1,,,,,0,,,76,92
65276,note_off,,,,,124,0,1,,,,,0,,,76,0
65280,note_on,,,,,4,0,1,,,,,0,,,75,92
65404,note_off,,,,,124,0,1,,,,,0,,,75,0
65408,note_on,,,,,4,0,1,,,,,0,,,76,92
65532,note_off,,,,,124,0,1,,,,,0,,,76,0
65536,note_on,,,,,4,0,1,,,,,0,,,78,92
65660,note_off,,,,,124,0,1,,,,,0,,,78,0
65664,note_on,,,,,4,0,1,,,,,0,,,71,92
65788,note_off,,,,,124,0,1,,,,,0,,,71,0
65792,note_on,,,,,896,0,5,,,,,3,,,76,108
65792,note_on,,,,,896,0,4,,,,,2,,,76,108
65792,note_on,,,,,4,0,1,,,,,0,,,76,92
65792,note_on,,,,,960,0,2,,,,,1,,,76,92
65916,note_off,,,,,124,0,1,,,,,0,,,76,0
65916,note_off,,,,,124,0,2,,,,,1,,,76,0
65920,note_off,,,,,128,0,5,,,,,3,,,76,0
65920,note_off,,,,,128,0,4,,,,,2,,,76,0
65920,note_on,,,,,4,0,1,,,,,0,,,75,92
65920,note_on,,,,,4,0,2,,,,,1,,,75,92
65920,note_on,,,,,0,0,4,,,,,2,,,75,108
65920,note_on,,,,,0,0,5,,,,,3,,,75,108
66044,note_off,,,,,124,0,1,,,,,0,,,75,0
66044,note_off,,,,,124,0,2,,,,,1,,,75,0
66048,note_on,,,,,0,0,5,,,,,3,,,73,108
66048,note_off,,,,,128,0,5,,,,,3,,,75,0
66048,note_on,,,,,0,0,4,,,,,2,,,73,108
66048,note_on,,,,,4,0,2,,,,,1,,,73,92
66048,note_off,,,,,128,0,4,,,,,2,,,75,0
66048,note_on,,,,,4,0,1,,,,,0,,,73,92
66172,note_off,,,,,124,0,2,,,,,1,,,73,0
66172,note_off,,,,,124,0,1,,,,,0,,,73,0
66176,note_on,,,,,0,0,4,,,,,2,,,71,108
66176,note_off,,,,,128,0,4,,,,,2,,,73,0
66176,note_on,,,,,4,0,1,,,,,0,,,71,92
66176,note_on,,,,,4,0,2,,,,,1,,,71,92
66176,note_off,,,,,128,0,5,,,,,3,,,73,0
66176,note_on,,,,,0,0,5,,,,,3,,,71,108
66300,note_off,,,,,124,0,1,,,,,0,,,71,0
66300,note_off,,,,,124,0,2,,,,,1,,,71,0
66304,note_on,,,,,0,0,5,,,,,3,,,69,108
66304,note_on,,,,,4,0,1,,,,,0,,,69,92
66304,note_on,,,,,4,0,2,,,,,1,,,69,92
66304,note_off,,,,,128,0,4,,,,,2,,,71,0
66304,note_on,,,,,0,0,4,,,,,2,,,69,108
66304,note_off,,,,,128,0,5,,,,,3,,,71,0
66428,note_off,,,,,124,0,2,,,,,1,,,69,0
66428,note_off,,,,,124,0,1,,,,,0,,,69,0
66432,note_on,,,,,4,0,1,,,,,0,,,68,92
66432,note_off,,,,,128,0,5,,,,,3,,,69,0
66432,note_on,,,,,0,0,5,,,,,3,,,68,108
66432,note_off,,,,,128,0,4,,,,,2,,,69,0
66432,note_on,,,,,0,0,4,,,,,2,,,68,108
66432,note_on,,,,,4,0,2,,,,,1,,,68,92
66556,note_off,,,,,124,0,1,,,,,0,,,68,0
66556,note_off,,,,,124,0,2,,,,,1,,,68,0
66560,note_on,,,,,4,0,2,,,,,1,,,66,92
66560,note_off,,,,,128,0,4,,,,,2,,,68,0
66560,note_on,,,,,0,0,4,,,,,2,,,66,108
66560,note_on,,,,,4,0,1,,,,,0,,,66,92
66560,note_on,,,,,0,0,5,,,,,3,,,66,108
66560,note_off,,,,,128,0,5,,,,,3,,,68,0
66684,note_off,,,,,124,0,2,,,,,1,,,66,0
66684,note_off,,,,,124,0,1,,,,,0,,,66,0
66688,note_off,,,,,128,0,4,,,,,2,,,66,0
66688,note_off,,,,,128,0,5,,,,,3,,,66,0
66688,note_on,,,,,4,0,2,,,,,1,,,64,92
66688,note_on,,,,,4,0,1,,,,,0,,,64,92
66688,note_on,,,,,0,0,5,,,,,3,,,64,108
66688,note_on,,,,,0,0,4,,,,,2,,,64,108
66812,note_off,,,,,124,0,2,,,,,1,,,64,0
66812,note_off,,,,,124,0,1,,,,,0,,,64,0
66816,note_on,,,,,4224,0,6,,,,,4,,,59,92
66816,note_on,,,,,0,0,4,,,,,2,,,59,108
66816,note_on,,,,,4288,0,8,,,,,6,,,35,75
66816,note_on,,,,,4,0,2,,,,,1,,,59,92
66816,note_on,,,,,4288,0,9,,,,,7,,,47,45
66816,note_on,,,,,4224,0,3,,,,,10,,,47,92
66816,note_on,,,,,4224,0,7,,,,,5,,,47,92
66816,note_on,,,,,4,0,1,,,,,0,,,59,92
66816,note_off,,,,,128,0,5,,,,,3,,,64,0
66816,note_off,,,,,128,0,4,,,,,2,,,64,0
66816,note_on,,,,,0,0,5,,,,,3,,,59,108
66940,note_off,,,,,124,0,2,,,,,1,,,59,0
66944,note_on,,,,,0,0,3,,,,,10,,,59,92
66944,note_off,,,,,128,0,3,,,,,10,,,47,0
66944,note_on,,,,,4,0,2,,,,,1,,,71,92
66944,note_off,,,,,128,0,6,,,,,4,,,59,0
66944,note_on,,,,,0,0,6,,,,,4,,,71,92
67068,note_off,,,,,124,0,2,,,,,1,,,71,0
67072,note_on,,,,,4,0,2,,,,,1,,,69,92
67072,note_off,,,,,128,0,3,,,,,10,,,59,0
67072,note_off,,,,,128,0,6,,,,,4,,,71,0
67072,note_on,,,,,0,0,6,,,,,4,,,69,92
67072,note_on,,,,,0,0,3,,,,,10,,,57,92
67136,note_off,,,,,320,0,1,,,,,0,,,59,0
67136,note_off,,,,,320,0,8,,,,,6,,,35,0
67136,note_off,,,,,320,0,9,,,,,7,,,47,0
67196,note_off,,,,,124,0,2,,,,,1,,,69,0
67200,note_on,,,,,0,0,3,,,,,10,,,56,92
67200,note_off,,,,,128,0,3,,,,,10,,,57,0
67200,note_on,,,,,4,0,2,,,,,1,,,68,92
67200,note_on,,,,,0,0,7,,,,,5,,,56,92
67200,note_on,,,,,64,0,8,,,,,6,,,44,75
67200,note_off,,,,,384,0,5,,,,,3,,,59,0
67200,note_on,,,,,0,0,4,,,,,2,,,71,108
67200,note_on,,,,,64,0,1,,,,,0,,,71,92
67200,note_off,,,,,384,0,4,,,,,2,,,59,0
67200,note_on,,,,,64,0,9,,,,,7,,,56,45
67200,note_on,,,,,0,0,5,,,,,3,,,59,108
67200,note_off,,,,,128,0,6,,,,,4,,,69,0
67200,note_off,,,,,384,0,7,,,,,5,,,47,0
67200,note_on,,,,,0,0,6,,,,,4,,,68,92
67324,note_off,,,,,124,0,2,,,,,1,,,68,0
67328,note_off,,,,,128,0,6,,,,,4,,,68,0
67328,note_on,,,,,0,0,6,,,,,4,,,69,92
67328,note_off,,,,,128,0,3,,,,,10,,,56,0
67328,note_on,,,,,0,0,3,,,,,10,,,57,92
67328,note_on,,,,,4,0,2,,,,,1,,,69,92
67452,note_off,,,,,124,0,2,,,,,1,,,69,0
67456,note_off,,,,,128,0,3,,,,,10,,,57,0
67456,note_on,,,,,4,0,2,,,,,1,,,71,92
67456,note_on,,,,,0,0,6,,,,,4,,,71,92
67456,note_off,,,,,128,0,6,,,,,4,,,69,0
67456,note_on,,,,,0,0,3,,,,,10,,,59,92
67520,note_off,,,,,320,0,8,,,,,6,,,44,0
67520,note_off,,,,,320,0,9,,,,,7,,,56,0
67520,note_off,,,,,320,0,1,,,,,0,,,71,0
67580,note_off,,,,,124,0,2,,,,,1,,,71,0
67584,note_on,,,,,0,0,4,,,,,2,,,71,108
67584,note_on,,,,,4,0,2,,,,,1,,,64,92
67584,note_off,,,,,384,0,4,,,,,2,,,71,0
67584,note_on,,,,,0,0,5,,,,,3,,,68,108
67584,note_off,,,,,384,0,7,,,,,5,,,56,0
67584,note_on,,,,,64,0,8,,,,,6,,,40,75
67584,note_on,,,,,0,0,7,,,,,5,,,52,92
67584,note_off,,,,,384,0,5,,,,,3,,,59,0
67584,note_on,,,,,0,0,3,,,,,10,,,52,92
67584,note_on,,,,,64,0,1,,,,,0,,,71,92
67584,note_off,,,,,128,0,3,,,,,10,,,59,0
67584,note_on,,,,,64,0,9,,,,,7,,,52,45
67584,note_off,,,,,128,0,6,,,,,4,,,71,0
67584,note_on,,,,,0,0,6,,,,,4,,,64,92
67708,note_off,,,,,124,0,2,,,,,1,,,64,0
67712,note_on,,,,,0,0,3,,,,,10,,,54,92
67712,note_on,,,,,0,0,6,,,,,4,,,66,92
67712,note_off,,,,,128,0,3,,,,,10,,,52,0
67712,note_on,,,,,4,0,2,,,,,1,,,66,92
67712,note_off,,,,,128,0,6,,,,,4,,,64,0
67836,note_off,,,,,124,0,2,,,,,1,,,66,0
67840,note_off,,,,,128,0,3,,,,,10,,,54,0
67840,note_on,,,,,0,0,3,,,,,10,,,56,92
67840,note_on,,,,,4,0,2,,,,,1,,,68,92
67840,note_off,,,,,128,0,6,,,,,4,,,66,0
67840,note_on,,,,,0,0,6,,,,,4,,,68,92
67904,note_off,,,,,320,0,8,,,,,6,,,40,0
67904,note_off,,,,,320,0,1,,,,,0,,,71,0
67904,note_off,,,,,320,0,9,,,,,7,,,52,0
67964,note_off,,,,,124,0,2,,,,,1,,,68,0
67968,note_on,,,,,0,0,5,,,,,3,,,64,108
67968,note_on,,,,,4,0,2,,,,,1,,,61,92
67968,note_on,,,,,0,0,4,,,,,2,,,71,108
67968,note_on,,,,,64,0,8,,,,,6,,,37,75
67968,note_on,,,,,64,0,1,,,,,0,,,71,92
67968,note_off,,,,,128,0,6,,,,,4,,,68,0
67968,note_on,,,,,0,0,6,,,,,4,,,61,92
67968,note_on,,,,,64,0,9,,,,,7,,,49,45
67968,note_on,,,,,0,0,7,,,,,5,,,49,92
67968,note_off,,,,,128,0,3,,,,,10,,,56,0
67968,note_on,,,,,0,0,3,,,,,10,,,49,92
67968,note_off,,,,,384,0,7,,,,,5,,,52,0
67968,note_off,,,,,384,0,5,,,,,3,,,68,0
67968,note_off,,,,,384,0,4,,,,,2,,,71,0
68092,note_off,,,,,124,0,2,,,,,1,,,61,0
68096,note_on,,,,,0,0,3,,,,,10,,,57,92
68096,note_off,,,,,128,0,3,,,,,10,,,49,0
68096,note_on,,,,,4,0,2,,,,,1,,,69,92
68096,note_on,,,,,0,0,6,,,,,4,,,69,92
68096,note_off,,,,,128,0,6,,,,,4,,,61,0
68220,note_off,,,,,124,0,2,,,,,1,,,69,0
68224,note_off,,,,,128,0,3,,,,,10,,,57,0
68224,note_on,,,,,0,0,6,,,,,4,,,68,92
68224,note_on,,,,,4,0,2,,,,,1,,,68,92
68224,note_off,,,,,128,0,6,,,,,4,,,69,0
68224,note_on,,,,,0,0,3,,,,,10,,,56,92
68288,note_off,,,,,320,0,9,,,,,7,,,49,0
68288,note_off,,,,,320,0,8,,,,,6,,,37,0
68288,note_off,,,,,320,0,1,,,,,0,,,71,0
68348,note_off,,,,,124,0,2,,,,,1,,,68,0
68352,note_off,,,,,384,0,4,,,,,2,,,71,0
68352,note_on,,,,,64,0,8,,,,,6,,,42,75
68352,note_on,,,,,0,0,4,,,,,2,,,69,108
68352,note_on,,,,,4,0,2,,,,,1,,,66,92
68352,note_off,,,,,128,0,6,,,,,4,,,68,0
68352,note_on,,,,,64,0,1,,,,,0,,,69,92
68352,note_on,,,,,64,0,9,,,,,7,,,54,45
68352,note_on,,,,,0,0,6,,,,,4,,,66,92
68352,note_on,,,,,0,0,5,,,,,3,,,61,108
68352,note_off,,,,,384,0,7,,,,,5,,,49,0
68352,note_on,,,,,0,0,7,,,,,5,,,54,92
68352,note_off,,,,,384,0,5,,,,,3,,,64,0
68352,note_off,,,,,128,0,3,,,,,10,,,56,0
68352,note_on,,,,,0,0,3,,,,,10,,,54,92
68476,note_off,,,,,124,0,2,,,,,1,,,66,0
68480,note_on,,,,,4,0,2,,,,,1,,,68,92
68480,note_on,,,,,0,0,6,,,,,4,,,68,92
68480,note_off,,,,,128,0,3,,,,,10,,,54,0
68480,note_on,,,,,0,0,3,,,,,10,,,56,92
68480,note_off,,,,,128,0,6,,,,,4,,,66,0
68604,note_off,,,,,124,0,2,,,,,1,,,68,0
68608,note_on,,,,,4,0,2,,,,,1,,,69,92
68608,note_off,,,,,128,0,3,,,,,10,,,56,0
68608,note_on,,,,,0,0,6,,,,,4,,,69,92
68608,note_off,,,,,128,0,6,,,,,4,,,68,0
68608,note_on,,,,,0,0,3,,,,,10,,,57,92
68672,note_off,,,,,320,0,9,,,,,7,,,54,0
68672,note_off,,,,,320,0,1,,,,,0,,,69,0
68672,note_off,,,,,320,0,8,,,,,6,,,42,0
68732,note_off,,,,,124,0,2,,,,,1,,,69,0
68736,note_off,,,,,384,0,5,,,,,3,,,61,0
68736,note_on,,,,,0,0,5,,,,,3,,,66,108
68736,note_on,,,,,4,0,2,,,,,1,,,63,92
68736,note_on,,,,,64,0,8,,,,,6,,,39,75
68736,note_off,,,,,128,0,3,,,,,10,,,57,0
68736,note_on,,,,,0,0,4,,,,,2,,,69,108
68736,note_on,,,,,0,0,3,,,,,10,,,51,92
68736,note_off,,,,,384,0,4,,,,,2,,,69,0
68736,note_on,,,,,64,0,9,,,,,7,,,51,45
68736,note_off,,,,,128,0,6,,,,,4,,,69,0
68736,note_on,,,,,0,0,6,,,,,4,,,63,92
68736,note_off,,,,,384,0,7,,,,,5,,,54,0
68736,note_on,,,,,0,0,7,,,,,5,,,51,92
68736,note_on,,,,,64,0,1,,,,,0,,,69,92
68860,note_off,,,,,124,0,2,,,,,1,,,63,0
68864,note_off,,,,,128,0,3,,,,,10,,,51,0
68864,note_off,,,,,128,0,6,,,,,4,,,63,0
68864,note_on,,,,,0,0,3,,,,,10,,,52,92
68864,note_on,,,,,4,0,2,,,,,1,,,64,92
68864,note_on,,,,,0,0,6,,,,,4,,,64,92
68988,note_off,,,,,124,0,2,,,,,1,,,64,0
68992,note_on,,,,,4,0,2,,,,,1,,,66,92
68992,note_off,,,,,128,0,6,,,,,4,,,64,0
68992,note_off,,,,,128,0,3,,,,,10,,,52,0
68992,note_on,,,,,0,0,6,,,,,4,,,66,92
68992,note_on,,,,,0,0,3,,,,,10,,,54,92
69056,note_off,,,,,320,0,9,,,,,7,,,51,0
69056,note_off,,,,,320,0,8,,,,,6,,,39,0
69056,note_off,,,,,320,0,1,,,,,0,,,69,0
69116,note_off,,,,,124,0,2,,,,,1,,,66,0
69120,note_off,,,,,384,0,7,,,,,5,,,51,0
69120,note_on,,,,,0,0,5,,,,,3,,,63,108
69120,note_on,,,,,64,0,9,,,,,7,,,47,45
69120,note_on,,,,,64,0,8,,,,,6,,,35,75
69120,note_on,,,,,0,0,4,,,,,2,,,69,108
69120,note_off,,,,,384,0,4,,,,,2,,,69,0
69120,note_on,,,,,0,0,7,,,,,5,,,47,92
69120,note_off,,,,,384,0,5,,,,,3,,,66,0
69120,note_on,,,,,4,0,2,,,,,1,,,59,92
69120,note_off,,,,,128,0,6,,,,,4,,,66,0
69120,note_on,,,,,0,0,6,,,,,4,,,59,92
69120,note_off,,,,,128,0,3,,,,,10,,,54,0
69120,note_on,,,,,0,0,3,,,,,10,,,47,92
69120,note_on,,,,,64,0,1,,,,,0,,,69,92
69248,note_off,,,,,128,0,6,,,,,4,,,59,0
69248,note_on,,,,,0,0,6,,,,,4,,,64,92
69248,note_off,,,,,128,0,3,,,,,10,,,47,0
69248,note_on,,,,,0,0,3,,,,,10,,,64,92
69376,note_on,,,,,0,0,3,,,,,10,,,63,92
69376,note_off,,,,,128,0,3,,,,,10,,,64,0
69376,note_off,,,,,128,0,6,,,,,4,,,64,0
69376,note_on,,,,,0,0,6,,,,,4,,,63,92
69440,note_off,,,,,320,0,1,,,,,0,,,69,0
69440,note_off,,,,,320,0,8,,,,,6,,,35,0
69440,note_off,,,,,320,0,9,,,,,7,,,47,0
69440,note_off,,,,,320,0,2,,,,,1,,,59,0
69504,note_on,,,,,0,0,4,,,,,2,,,68,108
69504,note_on,,,,,0,0,3,,,,,10,,,61,92
69504,note_off,,,,,384,0,4,,,,,2,,,69,0
69504,note_on,,,,,0,0,6,,,,,4,,,61,92
69504,note_off,,,,,128,0,6,,,,,4,,,63,0
69504,note_off,,,,,384,0,7,,,,,5,,,47,0
69504,note_on,,,,,0,0,7,,,,,5,,,61,92
69504,note_on,,,,,64,0,9,,,,,7,,,61,45
69504,note_off,,,,,384,0,5,,,,,3,,,63,0
69504,note_off,,,,,128,0,3,,,,,10,,,63,0
69504,note_on,,,,,64,0,1,,,,,0,,,68,92
69504,note_on,,,,,64,0,8,,,,,6,,,49,75
69504,note_on,,,,,64,0,2,,,,,1,,,76,92
69504,note_on,,,,,0,0,5,,,,,3,,,76,108
69632,note_off,,,,,128,0,3,,,,,10,,,61,0
69632,note_on,,,,,0,0,6,,,,,4,,,63,92
69632,note_off,,,,,128,0,6,,,,,4,,,61,0
69632,note_on,,,,,0,0,3,,,,,10,,,63,92
69760,note_on,,,,,0,0,6,,,,,4,,,64,92
69760,note_off,,,,,128,0,6,,,,,4,,,63,0
69760,note_off,,,,,128,0,3,,,,,10,,,63,0
69760,note_on,,,,,0,0,3,,,,,10,,,64,92
69824,note_off,,,,,320,0,2,,,,,1,,,76,0
69824,note_off,,,,,320,0,8,,,,,6,,,49,0
69824,note_off,,,,,320,0,9,,,,,7,,,61,0
69824,note_off,,,,,320,0,1,,,,,0,,,68,0
69888,note_on,,,,,64,0,8,,,,,6,,,45,75
69888,note_on,,,,,0,0,6,,,,,4,,,57,92
69888,note_on,,,,,0,0,3,,,,,10,,,57,92
69888,note_on,,,,,64,0,9,,,,,7,,,57,45
69888,note_on,,,,,0,0,7,,,,,5,,,57,92
69888,note_off,,,,,128,0,6,,,,,4,,,64,0
69888,note_off,,,,,384,0,4,,,,,2,,,68,0
69888,note_off,,,,,384,0,5,,,,,3,,,76,0
69888,note_on,,,,,0,0,5,,,,,3,,,76,108
69888,note_on,,,,,64,0,2,,,,,1,,,76,92
69888,note_off,,,,,128,0,3,,,,,10,,,64,0
69888,note_on,,,,,0,0,4,,,,,2,,,73,108
69888,note_off,,,,,384,0,7,,,,,5,,,61,0
70016,note_off,,,,,128,0,3,,,,,10,,,57,0
70016,note_on,,,,,0,0,3,,,,,10,,,59,92
70016,note_on,,,,,0,0,6,,,,,4,,,59,92
70016,note_off,,,,,128,0,6,,,,,4,,,57,0
70144,note_on,,,,,0,0,6,,,,,4,,,61,92
70144,note_off,,,,,128,0,6,,,,,4,,,59,0
70144,note_on,,,,,0,0,3,,,,,10,,,61,92
70144,note_off,,,,,128,0,3,,,,,10,,,59,0
70208,note_off,,,,,320,0,2,,,,,1,,,76,0
70208,note_off,,,,,320,0,8,,,,,6,,,45,0
70208,note_off,,,,,320,0,9,,,,,7,,,57,0
70272,note_off,,,,,384,0,7,,,,,5,,,57,0
70272,note_on,,,,,0,0,3,,,,,10,,,54,92
70272,note_off,,,,,384,0,5,,,,,3,,,76,0
70272,note_off,,,,,384,0,4,,,,,2,,,73,0
70272,note_on,,,,,64,0,9,,,,,7,,,54,45
70272,note_off,,,,,128,0,6,,,,,4,,,61,0
70272,note_on,,,,,0,0,7,,,,,5,,,54,92
70272,note_off,,,,,128,0,3,,,,,10,,,61,0
70272,note_on,,,,,64,0,8,,,,,6,,,42,75
70272,note_on,,,,,0,0,5,,,,,3,,,76,108
70272,note_on,,,,,64,0,2,,,,,1,,,76,92
70272,note_on,,,,,0,0,6,,,,,4,,,54,92
70272,note_on,,,,,0,0,4,,,,,2,,,69,108
70400,note_off,,,,,128,0,6,,,,,4,,,54,0
70400,note_on,,,,,0,0,6,,,,,4,,,56,92
70400,note_off,,,,,128,0,3,,,,,10,,,54,0
70400,note_on,,,,,0,0,3,,,,,10,,,56,92
70528,note_off,,,,,128,0,6,,,,,4,,,56,0
70528,note_off,,,,,128,0,3,,,,,10,,,56,0
70528,note_on,,,,,0,0,6,,,,,4,,,57,92
70528,note_on,,,,,0,0,3,,,,,10,,,57,92
70592,note_off,,,,,320,0,9,,,,,7,,,54,0
70592,note_off,,,,,320,0,2,,,,,1,,,76,0
70592,note_off,,,,,320,0,8,,,,,6,,,42,0
70656,note_off,,,,,384,0,4,,,,,2,,,69,0
70656,note_on,,,,,0,0,5,,,,,3,,,75,108
70656,note_off,,,,,384,0,5,,,,,3,,,76,0
70656,note_on,,,,,64,0,8,,,,,6,,,47,75
70656,note_off,,,,,384,0,7,,,,,5,,,54,0
70656,note_on,,,,,0,0,7,,,,,5,,,59,92
70656,note_on,,,,,64,0,9,,,,,7,,,59,45
70656,note_on,,,,,0,0,4,,,,,2,,,78,108
70656,note_on,,,,,0,0,3,,,,,10,,,47,92
70656,note_on,,,,,64,0,2,,,,,1,,,75,92
70656,note_off,,,,,128,0,6,,,,,4,,,57,0
70656,note_on,,,,,0,0,6,,,,,4,,,59,92
70656,note_off,,,,,128,0,3,,,,,10,,,57,0
70656,note_on,,,,,832,0,1,,,,,0,,,78,92
70784,note_off,,,,,128,0,6,,,,,4,,,59,0
70784,note_on,,,,,0,0,6,,,,,4,,,61,92
70784,note_off,,,,,128,0,3,,,,,10,,,47,0
70784,note_on,,,,,0,0,3,,,,,10,,,49,92
70848,note_on,,,,,0,0,5,,,,,3,,,73,108
70848,note_off,,,,,192,0,2,,,,,1,,,75,0
70848,note_off,,,,,192,0,5,,,,,3,,,75,0
70848,note_on,,,,,0,0,2,,,,,1,,,73,92
70912,note_off,,,,,128,0,6,,,,,4,,,61,0
70912,note_off,,,,,128,0,3,,,,,10,,,49,0
70912,note_on,,,,,0,0,3,,,,,10,,,51,92
70912,note_on,,,,,0,0,6,,,,,4,,,63,92
70976,note_off,,,,,320,0,9,,,,,7,,,59,0
70976,note_off,,,,,320,0,8,,,,,6,,,47,0
71040,note_off,,,,,384,0,7,,,,,5,,,59,0
71040,note_on,,,,,0,0,7,,,,,5,,,51,92
71040,note_on,,,,,64,0,8,,,,,6,,,39,75
71040,note_on,,,,,0,0,2,,,,,1,,,71,92
71040,note_off,,,,,192,0,2,,,,,1,,,73,0
71040,note_off,,,,,384,0,4,,,,,2,,,78,0
71040,note_on,,,,,0,0,5,,,,,3,,,71,108
71040,note_off,,,,,192,0,5,,,,,3,,,73,0
71040,note_on,,,,,64,0,9,,,,,7,,,51,45
71040,note_on,,,,,0,0,4,,,,,2,,,78,108
71040,note_on,,,,,0,0,3,,,,,10,,,47,92
71040,note_off,,,,,128,0,6,,,,,4,,,63,0
71040,note_on,,,,,0,0,6,,,,,4,,,59,92
71040,note_off,,,,,384,0,1,,,,,0,,,78,0
71040,note_on,,,,,0,0,1,,,,,0,,,78,92
71040,note_off,,,,,128,0,3,,,,,10,,,51,0
71168,note_on,,,,,0,0,6,,,,,4,,,61,92
71168,note_off,,,,,128,0,6,,,,,4,,,59,0
71168,note_off,,,,,128,0,3,,,,,10,,,47,0
71168,note_on,,,,,0,0,3,,,,,10,,,49,92
71232,note_on,,,,,0,0,2,,,,,1,,,69,92
71232,note_off,,,,,192,0,2,,,,,1,,,71,0
71232,note_off,,,,,192,0,5,,,,,3,,,71,0
71232,note_on,,,,,0,0,5,,,,,3,,,69,108
71296,note_off,,,,,128,0,6,,,,,4,,,61,0
71296,note_on,,,,,0,0,6,,,,,4,,,63,92
71296,note_off,,,,,128,0,3,,,,,10,,,49,0
71296,note_on,,,,,0,0,3,,,,,10,,,51,92
71360,note_off,,,,,320,0,9,,,,,7,,,51,0
71360,note_off,,,,,320,0,8,,,,,6,,,39,0
71424,note_off,,,,,128,0,3,,,,,10,,,51,0
71424,note_on,,,,,0,0,2,,,,,1,,,68,92
71424,note_off,,,,,384,0,4,,,,,2,,,78,0
71424,note_on,,,,,0,0,4,,,,,2,,,71,108
71424,note_on,,,,,64,0,8,,,,,6,,,40,75
71424,note_off,,,,,128,0,6,,,,,4,,,63,0
71424,note_on,,,,,0,0,6,,,,,4,,,64,92
71424,note_on,,,,,0,0,5,,,,,3,,,68,108
71424,note_off,,,,,192,0,5,,,,,3,,,69,0
71424,note_off,,,,,384,0,1,,,,,0,,,78,0
71424,note_off,,,,,384,0,7,,,,,5,,,51,0
71424,note_on,,,,,0,0,7,,,,,5,,,52,92
71424,note_on,,,,,64,0,9,,,,,7,,,52,45
71424,note_on,,,,,0,0,1,,,,,0,,,71,92
71424,note_on,,,,,0,0,3,,,,,10,,,52,92
71424,note_off,,,,,192,0,2,,,,,1,,,69,0
71744,note_off,,,,,320,0,8,,,,,6,,,40,0
71744,note_off,,,,,320,0,9,,,,,7,,,52,0
71808,note_off,,,,,384,0,4,,,,,2,,,71,0
71808,note_off,,,,,384,0,3,,,,,10,,,52,0
71808,note_off,,,,,384,0,7,,,,,5,,,52,0
71808,note_off,,,,,384,0,6,,,,,4,,,64,0
71808,note_on,,,,,0,0,1,,,,,0,,,83,92
71808,note_off,,,,,384,0,1,,,,,0,,,71,0
71808,note_off,,,,,384,0,2,,,,,1,,,68,0
71808,note_on,,,,,0,0,2,,,,,1,,,80,92
71808,note_off,,,,,384,0,5,,,,,3,,,68,0
72000,note_off,,,,,192,0,1,,,,,0,,,83,0
72000,note_off,,,,,192,0,2,,,,,1,,,80,0
72000,note_on,,,,,0,0,2,,,,,1,,,78,92
72000,note_on,,,,,0,0,1,,,,,0,,,81,92
72192,note_off,,,,,192,0,1,,,,,0,,,81,0
72192,note_on,,,,,0,0,1,,,,,0,,,81,92
72192,note_off,,,,,192,0,2,,,,,1,,,78,0
72192,note_on,,,,,0,0,2,,,,,1,,,78,92
72384,note_off,,,,,192,0,1,,,,,0,,,81,0
72384,note_on,,,,,0,0,1,,,,,0,,,80,92
72384,note_off,,,,,192,0,2,,,,,1,,,78,0
72384,note_on,,,,,0,0,2,,,,,1,,,76,92
72576,note_on,,,,,0,0,1,,,,,0,,,80,92
72576,note_on,,,,,0,0,2,,,,,1,,,76,92
72576,note_off,,,,,192,0,2,,,,,1,,,76,0
72576,note_off,,,,,192,0,1,,,,,0,,,80,0
72960,note_off,,,,,384,0,2,,,,,1,,,76,0
72960,note_on,,,,,0,0,2,,,,,1,,,75,92
72960,note_on,,,,,1152,0,3,,,,,10,,,61,92
72960,note_on,,,,,0,0,1,,,,,0,,,78,92
72960,note_off,,,,,384,0,1,,,,,0,,,80,0
73152,note_on,,,,,0,0,3,,,,,10,,,59,92
73152,note_off,,,,,192,0,3,,,,,10,,,61,0
73344,note_off,,,,,192,0,3,,,,,10,,,59,0
73344,note_off,,,,,384,0,2,,,,,1,,,75,0
73344,note_on,,,,,0,0,1,,,,,0,,,80,92
73344,note_on,,,,,0,0,3,,,,,10,,,59,92
73344,note_off,,,,,384,0,1,,,,,0,,,78,0
73344,note_on,,,,,0,0,2,,,,,1,,,76,92
73536,note_on,,,,,0,0,3,,,,,10,,,57,92
73536,note_off,,,,,192,0,3,,,,,10,,,59,0
73728,note_off,,,,,384,0,2,,,,,1,,,76,0
73728,note_on,,,,,0,0,1,,,,,0,,,81,92
73728,note_on,,,,,0,0,2,,,,,1,,,78,92
73728,note_off,,,,,384,0,1,,,,,0,,,80,0
73728,note_off,,,,,192,0,3,,,,,10,,,57,0
73728,note_on,,,,,0,0,3,,,,,10,,,57,92
74112,note_on,,,,,0,0,1,,,,,0,,,81,92
74112,note_off,,,,,384,0,2,,,,,1,,,78,0
74112,note_on,,,,,0,0,2,,,,,1,,,78,92
74112,note_off,,,,,384,0,3,,,,,10,,,57,0
74112,note_off,,,,,384,0,1,,,,,0,,,81,0
74112,note_on,,,,,0,0,3,,,,,10,,,56,92
74304,note_off,,,,,192,0,2,,,,,1,,,78,0
74304,note_off,,,,,192,0,1,,,,,0,,,81,0
74304,note_on,,,,,0,0,2,,,,,1,,,76,92
74304,note_on,,,,,0,0,1,,,,,0,,,80,92
74496,note_on,,,,,0,0,2,,,,,1,,,76,92
74496,note_off,,,,,192,0,2,,,,,1,,,76,0
74496,note_off,,,,,384,0,3,,,,,10,,,56,0
74496,note_on,,,,,0,0,1,,,,,0,,,80,92
74496,note_on,,,,,0,0,3,,,,,10,,,57,92
74496,note_off,,,,,192,0,1,,,,,0,,,80,0
74688,note_on,,,,,0,0,1,,,,,0,,,78,92
74688,note_off,,,,,192,0,2,,,,,1,,,76,0
74688,note_on,,,,,0,0,2,,,,,1,,,75,92
74688,note_off,,,,,192,0,1,,,,,0,,,80,0
74880,note_on,,,,,0,0,2,,,,,1,,,75,92
74880,note_on,,,,,0,0,3,,,,,10,,,59,92
74880,note_off,,,,,384,0,3,,,,,10,,,57,0
74880,note_off,,,,,192,0,2,,,,,1,,,75,0
74880,note_off,,,,,192,0,1,,,,,0,,,78,0
74880,note_on,,,,,0,0,1,,,,,0,,,78,92
75264,note_on,,,,,0,0,2,,,,,1,,,73,92
75264,note_off,,,,,384,0,2,,,,,1,,,75,0
75264,note_on,,,,,0,0,3,,,,,10,,,59,92
75264,note_on,,,,,0,0,1,,,,,0,,,76,92
75264,note_off,,,,,384,0,1,,,,,0,,,78,0
75264,note_off,,,,,384,0,3,,,,,10,,,59,0
75456,note_on,,,,,0,0,3,,,,,10,,,57,92
75456,note_off,,,,,192,0,3,,,,,10,,,59,0
75648,note_off,,,,,192,0,3,,,,,10,,,57,0
75648,note_on,,,,,0,0,3,,,,,10,,,57,92
75648,note_on,,,,,0,0,2,,,,,1,,,75,92
75648,note_off,,,,,384,0,2,,,,,1,,,73,0
75648,note_off,,,,,384,0,1,,,,,0,,,76,0
75648,note_on,,,,,0,0,1,,,,,0,,,78,92
75840,note_on,,,,,0,0,3,,,,,10,,,56,92
75840,note_off,,,,,192,0,3,,,,,10,,,57,0
76032,note_on,,,,,4288,0,8,,,,,6,,,44,75
76032,note_off,,,,,384,0,1,,,,,0,,,78,0
76032,note_on,,,,,0,0,1,,,,,0,,,80,92
76032,note_on,,,,,4224,0,7,,,,,5,,,56,92
76032,note_on,,,,,4288,0,9,,,,,7,,,56,45
76032,note_off,,,,,384,0,2,,,,,1,,,75,0
76032,note_on,,,,,0,0,3,,,,,10,,,56,92
76032,note_off,,,,,192,0,3,,,,,10,,,56,0
76032,note_on,,,,,4224,0,6,,,,,4,,,71,92
76032,note_on,,,,,4224,0,4,,,,,2,,,80,108
76032,note_on,,,,,4224,0,5,,,,,3,,,76,108
76032,note_on,,,,,0,0,2,,,,,1,,,76,92
76544,note_off,,,,,512,0,8,,,,,6,,,44,0
76544,note_off,,,,,512,0,9,,,,,7,,,56,0
76608,note_off,,,,,576,0,2,,,,,1,,,76,0
76608,note_off,,,,,576,0,5,,,,,3,,,76,0
76608,note_on,,,,,0,0,1,,,,,0,,,81,92
76608,note_off,,,,,576,0,1,,,,,0,,,80,0
76608,note_on,,,,,0,0,5,,,,,3,,,78,108
76608,note_on,,,,,0,0,7,,,,,5,,,54,92
76608,note_on,,,,,0,0,4,,,,,2,,,81,108
76608,note_off,,,,,576,0,7,,,,,5,,,56,0
76608,note_on,,,,,0,0,3,,,,,10,,,54,92
76608,note_on,,,,,64,0,9,,,,,7,,,54,45
76608,note_on,,,,,64,0,8,,,,,6,,,42,75
76608,note_off,,,,,576,0,3,,,,,10,,,56,0
76608,note_on,,,,,0,0,2,,,,,1,,,78,92
76608,note_off,,,,,576,0,4,,,,,2,,,80,0
76796,note_off,,,,,188,0,8,,,,,6,,,42,0
76796,note_off,,,,,188,0,9,,,,,7,,,54,0
76800,note_off,,,,,192,0,4,,,,,2,,,81,0
76800,note_on,,,,,0,0,4,,,,,2,,,83,108
76800,note_on,,,,,0,0,3,,,,,10,,,52,92
76800,note_on,,,,,0,0,7,,,,,5,,,52,92
76800,note_off,,,,,192,0,7,,,,,5,,,54,0
76800,note_off,,,,,192,0,3,,,,,10,,,54,0
76800,note_off,,,,,192,0,1,,,,,0,,,81,0
76800,note_on,,,,,0,0,1,,,,,0,,,83,92
76800,note_on,,,,,0,0,6,,,,,4,,,76,92
76800,note_off,,,,,192,0,5,,,,,3,,,78,0
76800,note_off,,,,,768,0,6,,,,,4,,,71,0
76800,note_on,,,,,0,0,5,,,,,3,,,80,108
76800,note_on,,,,,0,0,2,,,,,1,,,80,92
76800,note_off,,,,,192,0,2,,,,,1,,,78,0
76800,note_on,,,,,4,0,8,,,,,6,,,40,75
76800,note_on,,,,,4,0,9,,,,,7,,,52,45
77120,note_off,,,,,320,0,8,,,,,6,,,40,0
77120,note_off,,,,,320,0,9,,,,,7,,,52,0
77184,note_off,,,,,384,0,5,,,,,3,,,80,0
77184,note_on,,,,,0,0,4,,,,,2,,,81,108
77184,note_off,,,,,384,0,4,,,,,2,,,83,0
77184,note_on,,,,,0,0,6,,,,,4,,,73,92
77184,note_off,,,,,384,0,7,,,,,5,,,52,0
77184,note_on,,,,,0,0,7,,,,,5,,,57,92
77184,note_on,,,,,64,0,8,,,,,6,,,45,75
77184,note_on,,,,,0,0,3,,,,,10,,,57,92
77184,note_off,,,,,384,0,3,,,,,10,,,52,0
77184,note_on,,,,,64,0,9,,,,,7,,,57,45
77184,note_off,,,,,384,0,1,,,,,0,,,83,0
77184,note_on,,,,,0,0,1,,,,,0,,,81,92
77184,note_off,,,,,384,0,2,,,,,1,,,80,0
77184,note_on,,,,,0,0,2,,,,,1,,,78,92
77184,note_off,,,,,384,0,6,,,,,4,,,76,0
77184,note_on,,,,,0,0,5,,,,,3,,,78,108
77376,note_off,,,,,192,0,2,,,,,1,,,78,0
77376,note_on,,,,,0,0,2,,,,,1,,,76,92
77376,note_off,,,,,192,0,5,,,,,3,,,78,0
77376,note_off,,,,,192,0,4,,,,,2,,,81,0
77376,note_on,,,,,0,0,4,,,,,2,,,80,108
77376,note_on,,,,,0,0,5,,,,,3,,,76,108
77376,note_on,,,,,0,0,1,,,,,0,,,80,92
77376,note_off,,,,,192,0,1,,,,,0,,,81,0
77504,note_off,,,,,320,0,9,,,,,7,,,57,0
77504,note_off,,,,,320,0,8,,,,,6,,,45,0
77568,note_on,,,,,0,0,4,,,,,2,,,80,108
77568,note_on,,,,,0,0,2,,,,,1,,,76,92
77568,note_off,,,,,192,0,2,,,,,1,,,76,0
77568,note_on,,,,,0,0,1,,,,,0,,,80,92
77568,note_off,,,,,192,0,1,,,,,0,,,80,0
77568,note_on,,,,,64,0,9,,,,,7,,,59,45
77568,note_off,,,,,384,0,3,,,,,10,,,57,0
77568,note_on,,,,,64,0,8,,,,,6,,,47,75
77568,note_on,,,,,0,0,6,,,,,4,,,66,92
77568,note_off,,,,,192,0,4,,,,,2,,,80,0
77568,note_on,,,,,0,0,7,,,,,5,,,59,92
77568,note_off,,,,,384,0,7,,,,,5,,,57,0
77568,note_off,,,,,384,0,6,,,,,4,,,73,0
77568,note_off,,,,,192,0,5,,,,,3,,,76,0
77568,note_on,,,,,0,0,3,,,,,10,,,59,92
77568,note_on,,,,,0,0,5,,,,,3,,,76,108
77616,note_off,,,,,48,0,4,,,,,2,,,80,0
77616,note_on,,,,,0,0,4,,,,,2,,,78,108
77616,note_on,,,,,0,0,1,,,,,0,,,78,92
77616,note_off,,,,,48,0,1,,,,,0,,,80,0
77616,note_on,,,,,0,0,2,,,,,1,,,75,92
77616,note_on,,,,,0,0,5,,,,,3,,,75,108
77616,note_off,,,,,48,0,5,,,,,3,,,76,0
77616,note_off,,,,,48,0,2,,,,,1,,,76,0
77664,note_on,,,,,0,0,1,,,,,0,,,80,92
77664,note_off,,,,,48,0,5,,,,,3,,,75,0
77664,note_on,,,,,0,0,4,,,,,2,,,80,108
77664,note_off,,,,,48,0,4,,,,,2,,,78,0
77664,note_on,,,,,0,0,5,,,,,3,,,76,108
77664,note_off,,,,,48,0,1,,,,,0,,,78,0
77664,note_on,,,,,0,0,2,,,,,1,,,76,92
77664,note_off,,,,,48,0,2,,,,,1,,,75,0
77712,note_on,,,,,0,0,1,,,,,0,,,78,92
77712,note_off,,,,,48,0,2,,,,,1,,,76,0
77712,note_on,,,,,0,0,2,,,,,1,,,75,92
77712,note_off,,,,,48,0,1,,,,,0,,,80,0
77712,note_off,,,,,48,0,5,,,,,3,,,76,0
77712,note_on,,,,,0,0,5,,,,,3,,,75,108
77712,note_off,,,,,48,0,4,,,,,2,,,80,0
77712,note_on,,,,,0,0,4,,,,,2,,,78,108
77760,note_off,,,,,48,0,2,,,,,1,,,75,0
77760,note_off,,,,,48,0,5,,,,,3,,,75,0
77760,note_on,,,,,0,0,2,,,,,1,,,76,92
77760,note_on,,,,,0,0,5,,,,,3,,,76,108
77760,note_on,,,,,0,0,1,,,,,0,,,80,92
77760,note_off,,,,,48,0,1,,,,,0,,,78,0
77760,note_on,,,,,0,0,4,,,,,2,,,80,108
77760,note_off,,,,,48,0,4,,,,,2,,,78,0
77808,note_on,,,,,0,0,1,,,,,0,,,78,92
77808,note_on,,,,,0,0,2,,,,,1,,,75,92
77808,note_on,,,,,0,0,5,,,,,3,,,75,108
77808,note_off,,,,,48,0,1,,,,,0,,,80,0
77808,note_off,,,,,48,0,2,,,,,1,,,76,0
77808,note_off,,,,,48,0,4,,,,,2,,,80,0
77808,note_on,,,,,0,0,4,,,,,2,,,78,108
77808,note_off,,,,,48,0,5,,,,,3,,,76,0
77856,note_on,,,,,0,0,5,,,,,3,,,76,108
77856,note_off,,,,,48,0,4,,,,,2,,,78,0
77856,note_off,,,,,48,0,1,,,,,0,,,78,0
77856,note_on,,,,,0,0,1,,,,,0,,,80,92
77856,note_off,,,,,48,0,2,,,,,1,,,75,0
77856,note_on,,,,,0,0,2,,,,,1,,,76,92
77856,note_off,,,,,48,0,5,,,,,3,,,75,0
77856,note_on,,,,,0,0,4,,,,,2,,,80,108
77888,note_off,,,,,320,0,9,,,,,7,,,59,0
77888,note_off,,,,,320,0,8,,,,,6,,,47,0
77904,note_off,,,,,48,0,4,,,,,2,,,80,0
77904,note_on,,,,,0,0,5,,,,,3,,,75,108
77904,note_on,,,,,0,0,1,,,,,0,,,78,92
77904,note_on,,,,,0,0,2,,,,,1,,,75,92
77904,note_off,,,,,48,0,2,,,,,1,,,76,0
77904,note_off,,,,,48,0,1,,,,,0,,,80,0
77904,note_on,,,,,0,0,4,,,,,2,,,78,108
77904,note_off,,,,,48,0,5,,,,,3,,,76,0
77952,note_on,,,,,0,0,3,,,,,10,,,47,92
77952,note_off,,,,,48,0,1,,,,,0,,,78,0
77952,note_on,,,,,0,0,2,,,,,1,,,76,92
77952,note_off,,,,,48,0,4,,,,,2,,,78,0
77952,note_off,,,,,384,0,3,,,,,10,,,59,0
77952,note_on,,,,,64,0,9,,,,,7,,,47,45
77952,note_on,,,,,0,0,4,,,,,2,,,80,108
77952,note_off,,,,,48,0,2,,,,,1,,,75,0
77952,note_off,,,,,384,0,6,,,,,4,,,66,0
77952,note_on,,,,,0,0,6,,,,,4,,,71,92
77952,note_on,,,,,0,0,1,,,,,0,,,80,92
77952,note_on,,,,,64,0,8,,,,,6,,,35,75
77952,note_off,,,,,48,0,5,,,,,3,,,75,0
77952,note_on,,,,,0,0,7,,,,,5,,,47,92
77952,note_on,,,,,0,0,5,,,,,3,,,76,108
77952,note_off,,,,,384,0,7,,,,,5,,,59,0
78000,note_off,,,,,48,0,2,,,,,1,,,76,0
78000,note_on,,,,,0,0,2,,,,,1,,,75,92
78000,note_off,,,,,48,0,5,,,,,3,,,76,0
78000,note_off,,,,,48,0,4,,,,,2,,,80,0
78000,note_off,,,,,48,0,1,,,,,0,,,80,0
78000,note_on,,,,,0,0,1,,,,,0,,,78,92
78000,note_on,,,,,0,0,4,,,,,2,,,78,108
78000,note_on,,,,,0,0,5,,,,,3,,,75,108
78144,note_off,,,,,144,0,2,,,,,1,,,75,0
78144,note_on,,,,,0,0,2,,,,,1,,,76,92
78144,note_off,,,,,144,0,4,,,,,2,,,78,0
78144,note_on,,,,,0,0,4,,,,,2,,,76,108
78144,note_off,,,,,144,0,5,,,,,3,,,75,0
78144,note_on,,,,,0,0,5,,,,,3,,,76,108
78144,note_on,,,,,0,0,1,,,,,0,,,76,92
78144,note_off,,,,,144,0,1,,,,,0,,,78,0
78272,note_off,,,,,320,0,8,,,,,6,,,35,0
78272,note_off,,,,,320,0,9,,,,,7,,,47,0
78336,note_on,,,,,0,0,1,,,,,0,,,76,92
78336,note_on,,,,,0,0,2,,,,,1,,,76,92
78336,note_off,,,,,384,0,3,,,,,10,,,47,0
78336,note_on,,,,,0,0,4,,,,,2,,,76,108
78336,note_on,,,,,64,0,8,,,,,6,,,40,75
78336,note_off,,,,,384,0,7,,,,,5,,,47,0
78336,note_on,,,,,0,0,7,,,,,5,,,52,92
78336,note_on,,,,,0,0,6,,,,,4,,,68,92
78336,note_off,,,,,384,0,6,,,,,4,,,71,0
78336,note_on,,,,,64,0,9,,,,,7,,,52,45
78336,note_on,,,,,0,0,3,,,,,10,,,52,92
78336,note_off,,,,,192,0,5,,,,,3,,,76,0
78336,note_off,,,,,192,0,4,,,,,2,,,76,0
78336,note_off,,,,,192,0,1,,,,,0,,,76,0
78336,note_off,,,,,192,0,2,,,,,1,,,76,0
78336,note_on,,,,,0,0,5,,,,,3,,,76,108
78656,note_off,,,,,320,0,8,,,,,6,,,40,0
78656,note_off,,,,,320,0,9,,,,,7,,,52,0
78720,note_off,,,,,384,0,5,,,,,3,,,76,0
78720,note_on,,,,,0,0,1,,,,,0,,,83,92
78720,note_off,,,,,384,0,3,,,,,10,,,52,0
78720,note_on,,,,,0,0,2,,,,,1,,,80,92
78720,note_off,,,,,384,0,6,,,,,4,,,68,0
78720,note_off,,,,,384,0,1,,,,,0,,,76,0
78720,note_off,,,,,384,0,7,,,,,5,,,52,0
78720,note_off,,,,,384,0,4,,,,,2,,,76,0
78720,note_off,,,,,384,0,2,,,,,1,,,76,0
79008,note_off,,,,,288,0,2,,,,,1,,,80,0
79008,note_on,,,,,0,0,2,,,,,1,,,83,92
79008,note_off,,,,,288,0,1,,,,,0,,,83,0
79008,note_on,,,,,0,0,1,,,,,0,,,86,92
79104,note_off,,,,,96,0,2,,,,,1,,,83,0
79104,note_on,,,,,0,0,2,,,,,1,,,81,92
79104,note_off,,,,,96,0,1,,,,,0,,,86,0
79104,note_on,,,,,0,0,1,,,,,0,,,85,92
79392,note_on,,,,,0,0,2,,,,,1,,,83,92
79392,note_off,,,,,288,0,2,,,,,1,,,81,0
79392,note_on,,,,,0,0,1,,,,,0,,,86,92
79392,note_off,,,,,288,0,1,,,,,0,,,85,0
79488,note_on,,,,,0,0,2,,,,,1,,,80,92
79488,note_off,,,,,96,0,1,,,,,0,,,86,0
79488,note_on,,,,,0,0,1,,,,,0,,,83,92
79488,note_off,,,,,96,0,2,,,,,1,,,83,0
79616,note_on,,,,,896,0,3,,,,,10,,,64,92
79744,note_off,,,,,128,0,3,,,,,10,,,64,0
79744,note_on,,,,,0,0,3,,,,,10,,,62,92
79872,note_off,,,,,384,0,2,,,,,1,,,80,0
79872,note_off,,,,,384,0,1,,,,,0,,,83,0
79872,note_on,,,,,0,0,3,,,,,10,,,61,92
79872,note_off,,,,,128,0,3,,,,,10,,,62,0
80000,note_on,,,,,0,0,3,,,,,10,,,59,92
80000,note_off,,,,,128,0,3,,,,,10,,,61,0
80128,note_on,,,,,0,0,3,,,,,10,,,57,92
80128,note_off,,,,,128,0,3,,,,,10,,,59,0
80256,note_off,,,,,128,0,3,,,,,10,,,57,0
80256,note_on,,,,,0,0,3,,,,,10,,,56,92
80384,note_off,,,,,128,0,3,,,,,10,,,56,0
80384,note_on,,,,,0,0,3,,,,,10,,,57,92
80512,note_on,,,,,0,0,3,,,,,10,,,59,92
80512,note_off,,,,,128,0,3,,,,,10,,,57,0
80640,note_off,,,,,128,0,3,,,,,10,,,59,0
80640,note_on,,,,,0,0,3,,,,,10,,,52,92
81024,note_on,,,,,1152,0,2,,,,,1,,,68,92
81024,note_off,,,,,384,0,3,,,,,10,,,52,0
81024,note_on,,,,,1152,0,1,,,,,0,,,71,92
81312,note_off,,,,,288,0,2,,,,,1,,,68,0
81312,note_on,,,,,0,0,2,,,,,1,,,71,92
81312,note_off,,,,,288,0,1,,,,,0,,,71,0
81312,note_on,,,,,0,0,1,,,,,0,,,74,92
81408,note_off,,,,,96,0,1,,,,,0,,,74,0
81408,note_on,,,,,0,0,1,,,,,0,,,73,92
81408,note_on,,,,,0,0,2,,,,,1,,,69,92
81408,note_off,,,,,96,0,2,,,,,1,,,71,0
81696,note_on,,,,,0,0,1,,,,,0,,,74,92
81696,note_off,,,,,288,0,2,,,,,1,,,69,0
81696,note_on,,,,,0,0,2,,,,,1,,,71,92
81696,note_off,,,,,288,0,1,,,,,0,,,73,0
81792,note_off,,,,,96,0,2,,,,,1,,,71,0
81792,note_on,,,,,0,0,2,,,,,1,,,68,92
81792,note_off,,,,,96,0,1,,,,,0,,,74,0
81792,note_on,,,,,0,0,1,,,,,0,,,71,92
81920,note_on,,,,,896,0,3,,,,,10,,,52,92
82048,note_on,,,,,0,0,3,,,,,10,,,50,92
82048,note_off,,,,,128,0,3,,,,,10,,,52,0
82176,note_on,,,,,0,0,3,,,,,10,,,49,92
82176,note_off,,,,,384,0,1,,,,,0,,,71,0
82176,note_off,,,,,384,0,2,,,,,1,,,68,0
82176,note_off,,,,,128,0,3,,,,,10,,,50,0
82304,note_off,,,,,128,0,3,,,,,10,,,49,0
82304,note_on,,,,,0,0,3,,,,,10,,,47,92
82432,note_off,,,,,128,0,3,,,,,10,,,47,0
82432,note_on,,,,,0,0,3,,,,,10,,,45,92
82560,note_off,,,,,128,0,3,,,,,10,,,45,0
82560,note_on,,,,,0,0,3,,,,,10,,,44,92
82688,note_on,,,,,0,0,3,,,,,10,,,45,92
82688,note_off,,,,,128,0,3,,,,,10,,,44,0
82816,note_off,,,,,128,0,3,,,,,10,,,45,0
82816,note_on,,,,,0,0,3,,,,,10,,,47,92
82944,note_off,,,,,128,0,3,,,,,10,,,47,0
82944,note_on,,,,,0,0,3,,,,,10,,,40,92
83328,note_on,,,,,1152,0,2,,,,,1,,,69,92
83328,note_on,,,,,4672,0,9,,,,,7,,,49,45
83328,note_off,,,,,384,0,3,,,,,10,,,40,0
83328,note_on,,,,,0,0,3,,,,,10,,,49,92
83328,note_on,,,,,4608,0,7,,,,,5,,,49,92
83328,note_on,,,,,4672,0,8,,,,,6,,,37,75
83328,note_on,,,,,4608,0,4,,,,,2,,,69,108
83328,note_on,,,,,4608,0,6,,,,,4,,,64,92
83328,note_on,,,,,4608,0,5,,,,,3,,,69,108
83648,note_off,,,,,320,0,9,,,,,7,,,49,0
83648,note_off,,,,,320,0,8,,,,,6,,,37,0
83712,note_on,,,,,64,0,9,,,,,7,,,45,45
83712,note_on,,,,,0,0,7,,,,,5,,,45,92
83712,note_on,,,,,0,0,3,,,,,10,,,45,92
83712,note_off,,,,,384,0,6,,,,,4,,,64,0
83712,note_off,,,,,384,0,4,,,,,2,,,69,0
83712,note_on,,,,,0,0,2,,,,,1,,,69,92
83712,note_off,,,,,384,0,2,,,,,1,,,69,0
83712,note_on,,,,,0,0,4,,,,,2,,,69,108
83712,note_on,,,,,64,0,8,,,,,6,,,33,75
83712,note_off,,,,,384,0,3,,,,,10,,,49,0
83712,note_off,,,,,384,0,5,,,,,3,,,69,0
83712,note_off,,,,,384,0,7,,,,,5,,,49,0
83712,note_on,,,,,0,0,6,,,,,4,,,61,92
83712,note_on,,,,,0,0,5,,,,,3,,,69,108
84032,note_off,,,,,320,0,9,,,,,7,,,45,0
84032,note_off,,,,,320,0,8,,,,,6,,,33,0
84096,note_on,,,,,64,0,8,,,,,6,,,38,75
84096,note_on,,,,,0,0,4,,,,,2,,,59,108
84096,note_off,,,,,384,0,4,,,,,2,,,69,0
84096,note_on,,,,,0,0,5,,,,,3,,,69,108
84096,note_off,,,,,384,0,2,,,,,1,,,69,0
84096,note_on,,,,,0,0,2,,,,,1,,,69,92
84096,note_off,,,,,384,0,5,,,,,3,,,69,0
84096,note_off,,,,,384,0,6,,,,,4,,,61,0
84096,note_on,,,,,64,0,9,,,,,7,,,50,45
84096,note_on,,,,,0,0,7,,,,,5,,,50,92
84096,note_on,,,,,0,0,3,,,,,10,,,50,92
84096,note_off,,,,,384,0,3,,,,,10,,,45,0
84096,note_on,,,,,0,0,6,,,,,4,,,66,92
84096,note_off,,,,,384,0,7,,,,,5,,,45,0
84416,note_off,,,,,320,0,9,,,,,7,,,50,0
84416,note_off,,,,,320,0,8,,,,,6,,,38,0
84480,note_on,,,,,2304,0,1,,,,,0,,,71,92
84480,note_on,,,,,0,0,5,,,,,3,,,68,108
84480,note_off,,,,,384,0,5,,,,,3,,,69,0
84480,note_off,,,,,384,0,2,,,,,1,,,69,0
84480,note_on,,,,,0,0,2,,,,,1,,,68,92
84480,note_on,,,,,64,0,8,,,,,6,,,35,75
84480,note_on,,,,,0,0,3,,,,,10,,,47,92
84480,note_off,,,,,384,0,4,,,,,2,,,59,0
84480,note_off,,,,,384,0,3,,,,,10,,,50,0
84480,note_on,,,,,64,0,9,,,,,7,,,47,45
84480,note_on,,,,,0,0,4,,,,,2,,,71,108
84480,note_on,,,,,0,0,7,,,,,5,,,47,92
84480,note_off,,,,,384,0,6,,,,,4,,,66,0
84480,note_on,,,,,0,0,6,,,,,4,,,62,92
84480,note_off,,,,,384,0,7,,,,,5,,,50,0
84672,note_on,,,,,0,0,5,,,,,3,,,66,108
84672,note_off,,,,,192,0,5,,,,,3,,,68,0
84672,note_off,,,,,192,0,2,,,,,1,,,68,0
84672,note_on,,,,,0,0,2,,,,,1,,,66,92
84800,note_off,,,,,320,0,8,,,,,6,,,35,0
84800,note_off,,,,,320,0,9,,,,,7,,,47,0
84864,note_on,,,,,0,0,2,,,,,1,,,64,92
84864,note_off,,,,,192,0,2,,,,,1,,,66,0
84864,note_off,,,,,192,0,5,,,,,3,,,66,0
84864,note_on,,,,,0,0,5,,,,,3,,,64,108
84864,note_on,,,,,64,0,9,,,,,7,,,56,45
84864,note_on,,,,,0,0,1,,,,,0,,,71,92
84864,note_off,,,,,384,0,3,,,,,10,,,47,0
84864,note_on,,,,,64,0,8,,,,,6,,,44,75
84864,note_on,,,,,0,0,4,,,,,2,,,71,108
84864,note_off,,,,,384,0,4,,,,,2,,,71,0
84864,note_off,,,,,384,0,7,,,,,5,,,47,0
84864,note_on,,,,,0,0,7,,,,,5,,,56,92
84864,note_on,,,,,0,0,6,,,,,4,,,59,92
84864,note_off,,,,,384,0,6,,,,,4,,,62,0
84864,note_off,,,,,384,0,1,,,,,0,,,71,0
84864,note_on,,,,,0,0,3,,,,,10,,,56,92
85056,note_off,,,,,192,0,5,,,,,3,,,64,0
85056,note_on,,,,,0,0,2,,,,,1,,,62,92
85056,note_off,,,,,192,0,2,,,,,1,,,64,0
85056,note_on,,,,,0,0,5,,,,,3,,,62,108
85184,note_off,,,,,320,0,9,,,,,7,,,56,0
85184,note_off,,,,,320,0,8,,,,,6,,,44,0
85248,note_on,,,,,0,0,5,,,,,3,,,61,108
85248,note_off,,,,,384,0,1,,,,,0,,,71,0
85248,note_on,,,,,0,0,1,,,,,0,,,71,92
85248,note_on,,,,,0,0,4,,,,,2,,,71,108
85248,note_off,,,,,384,0,4,,,,,2,,,71,0
85248,note_off,,,,,384,0,6,,,,,4,,,59,0
85248,note_on,,,,,0,0,6,,,,,4,,,61,92
85248,note_off,,,,,192,0,5,,,,,3,,,62,0
85248,note_on,,,,,0,0,7,,,,,5,,,57,92
85248,note_off,,,,,192,0,2,,,,,1,,,62,0
85248,note_on,,,,,0,0,2,,,,,1,,,61,92
85248,note_on,,,,,64,0,8,,,,,6,,,45,75
85248,note_on,,,,,64,0,9,,,,,7,,,57,45
85248,note_on,,,,,0,0,3,,,,,10,,,57,92
85248,note_off,,,,,384,0,7,,,,,5,,,56,0
85248,note_off,,,,,384,0,3,,,,,10,,,56,0
85568,note_off,,,,,320,0,8,,,,,6,,,45,0
85568,note_off,,,,,320,0,9,,,,,7,,,57,0
85632,note_off,,,,,384,0,5,,,,,3,,,61,0
85632,note_on,,,,,0,0,5,,,,,3,,,78,108
85632,note_off,,,,,384,0,1,,,,,0,,,71,0
85632,note_on,,,,,0,0,1,,,,,0,,,69,92
85632,note_off,,,,,384,0,4,,,,,2,,,71,0
85632,note_off,,,,,384,0,3,,,,,10,,,57,0
85632,note_on,,,,,0,0,3,,,,,10,,,45,92
85632,note_off,,,,,384,0,6,,,,,4,,,61,0
85632,note_on,,,,,0,0,6,,,,,4,,,61,92
85632,note_off,,,,,384,0,7,,,,,5,,,57,0
85632,note_on,,,,,0,0,4,,,,,2,,,69,108
85632,note_on,,,,,0,0,7,,,,,5,,,45,92
85632,note_on,,,,,64,0,8,,,,,6,,,33,75
85632,note_on,,,,,0,0,2,,,,,1,,,78,92
85632,note_off,,,,,384,0,2,,,,,1,,,61,0
85632,note_on,,,,,64,0,9,,,,,7,,,45,45
85824,note_on,,,,,0,0,1,,,,,0,,,68,92
85824,note_off,,,,,192,0,1,,,,,0,,,69,0
85824,note_on,,,,,0,0,4,,,,,2,,,68,108
85824,note_off,,,,,192,0,4,,,,,2,,,69,0
85952,note_off,,,,,320,0,8,,,,,6,,,33,0
85952,note_off,,,,,320,0,9,,,,,7,,,45,0
86016,note_off,,,,,192,0,4,,,,,2,,,68,0
86016,note_on,,,,,0,0,4,,,,,2,,,69,108
86016,note_off,,,,,384,0,3,,,,,10,,,45,0
86016,note_on,,,,,0,0,3,,,,,10,,,50,92
86016,note_on,,,,,64,0,8,,,,,6,,,38,75
86016,note_on,,,,,0,0,6,,,,,4,,,66,92
86016,note_off,,,,,384,0,6,,,,,4,,,61,0
86016,note_on,,,,,0,0,1,,,,,0,,,69,92
86016,note_off,,,,,384,0,2,,,,,1,,,78,0
86016,note_on,,,,,64,0,9,,,,,7,,,50,45
86016,note_off,,,,,384,0,5,,,,,3,,,78,0
86016,note_on,,,,,0,0,5,,,,,3,,,78,108
86016,note_off,,,,,192,0,1,,,,,0,,,68,0
86016,note_on,,,,,0,0,7,,,,,5,,,50,92
86016,note_off,,,,,384,0,7,,,,,5,,,45,0
86016,note_on,,,,,0,0,2,,,,,1,,,78,92
86208,note_off,,,,,192,0,1,,,,,0,,,69,0
86208,note_off,,,,,192,0,4,,,,,2,,,69,0
86208,note_on,,,,,0,0,4,,,,,2,,,66,108
86208,note_on,,,,,0,0,1,,,,,0,,,66,92
86336,note_off,,,,,320,0,9,,,,,7,,,50,0
86336,note_off,,,,,320,0,8,,,,,6,,,38,0
86400,note_off,,,,,384,0,7,,,,,5,,,50,0
86400,note_on,,,,,0,0,2,,,,,1,,,78,92
86400,note_on,,,,,0,0,7,,,,,5,,,47,92
86400,note_off,,,,,384,0,3,,,,,10,,,50,0
86400,note_off,,,,,384,0,2,,,,,1,,,78,0
86400,note_on,,,,,64,0,8,,,,,6,,,35,75
86400,note_off,,,,,192,0,1,,,,,0,,,66,0
86400,note_on,,,,,0,0,3,,,,,10,,,47,92
86400,note_on,,,,,0,0,5,,,,,3,,,78,108
86400,note_off,,,,,384,0,5,,,,,3,,,78,0
86400,note_on,,,,,0,0,1,,,,,0,,,80,92
86400,note_off,,,,,192,0,4,,,,,2,,,66,0
86400,note_on,,,,,0,0,4,,,,,2,,,80,108
86400,note_on,,,,,64,0,9,,,,,7,,,47,45
86400,note_off,,,,,384,0,6,,,,,4,,,66,0
86400,note_on,,,,,0,0,6,,,,,4,,,62,92
86720,note_off,,,,,320,0,8,,,,,6,,,35,0
86720,note_off,,,,,320,0,9,,,,,7,,,47,0
86784,note_off,,,,,384,0,1,,,,,0,,,80,0
86784,note_on,,,,,64,0,8,,,,,6,,,37,75
86784,note_on,,,,,0,0,5,,,,,3,,,77,108
86784,note_off,,,,,384,0,5,,,,,3,,,78,0
86784,note_off,,,,,384,0,2,,,,,1,,,78,0
86784,note_on,,,,,64,0,9,,,,,7,,,49,45
86784,note_on,,,,,0,0,2,,,,,1,,,77,92
86784,note_on,,,,,0,0,3,,,,,10,,,49,92
86784,note_on,,,,,0,0,1,,,,,0,,,80,92
86784,note_off,,,,,384,0,6,,,,,4,,,62,0
86784,note_on,,,,,0,0,6,,,,,4,,,61,92
86784,note_off,,,,,384,0,3,,,,,10,,,47,0
86784,note_off,,,,,384,0,7,,,,,5,,,47,0
86784,note_on,,,,,0,0,7,,,,,5,,,49,92
86784,note_off,,,,,384,0,4,,,,,2,,,80,0
86784,note_on,,,,,0,0,4,,,,,2,,,80,108
86976,note_off,,,,,192,0,2,,,,,1,,,77,0
86976,note_on,,,,,0,0,2,,,,,1,,,75,92
86976,note_on,,,,,0,0,5,,,,,3,,,75,108
86976,note_off,,,,,192,0,5,,,,,3,,,77,0
87104,note_off,,,,,320,0,8,,,,,6,,,37,0
87104,note_off,,,,,320,0,9,,,,,7,,,49,0
87168,note_on,,,,,0,0,7,,,,,5,,,53,92
87168,note_off,,,,,384,0,7,,,,,5,,,49,0
87168,note_on,,,,,0,0,5,,,,,3,,,73,108
87168,note_off,,,,,192,0,5,,,,,3,,,75,0
87168,note_on,,,,,64,0,8,,,,,6,,,41,75
87168,note_off,,,,,384,0,6,,,,,4,,,61,0
87168,note_on,,,,,64,0,9,,,,,7,,,53,45
87168,note_off,,,,,384,0,3,,,,,10,,,49,0
87168,note_off,,,,,384,0,1,,,,,0,,,80,0
87168,note_on,,,,,0,0,1,,,,,0,,,80,92
87168,note_off,,,,,192,0,2,,,,,1,,,75,0
87168,note_on,,,,,0,0,3,,,,,10,,,53,92
87168,note_on,,,,,0,0,2,,,,,1,,,73,92
87168,note_on,,,,,0,0,6,,,,,4,,,61,92
87168,note_off,,,,,384,0,4,,,,,2,,,80,0
87168,note_on,,,,,0,0,4,,,,,2,,,80,108
87360,note_on,,,,,0,0,2,,,,,1,,,71,92
87360,note_off,,,,,192,0,5,,,,,3,,,73,0
87360,note_on,,,,,0,0,5,,,,,3,,,71,108
87360,note_off,,,,,192,0,2,,,,,1,,,73,0
87488,note_off,,,,,320,0,8,,,,,6,,,41,0
87488,note_off,,,,,320,0,9,,,,,7,,,53,0
87552,note_on,,,,,0,0,6,,,,,4,,,61,92
87552,note_off,,,,,384,0,6,,,,,4,,,61,0
87552,note_on,,,,,64,0,8,,,,,6,,,42,75
87552,note_on,,,,,0,0,2,,,,,1,,,69,92
87552,note_off,,,,,192,0,2,,,,,1,,,71,0
87552,note_off,,,,,384,0,7,,,,,5,,,53,0
87552,note_off,,,,,384,0,3,,,,,10,,,53,0
87552,note_on,,,,,0,0,3,,,,,10,,,54,92
87552,note_off,,,,,384,0,4,,,,,2,,,80,0
87552,note_on,,,,,0,0,4,,,,,2,,,81,108
87552,note_off,,,,,384,0,1,,,,,0,,,80,0
87552,note_on,,,,,0,0,1,,,,,0,,,81,92
87552,note_off,,,,,192,0,5,,,,,3,,,71,0
87552,note_on,,,,,0,0,5,,,,,3,,,69,108
87552,note_on,,,,,64,0,9,,,,,7,,,54,45
87552,note_on,,,,,0,0,7,,,,,5,,,54,92
87872,note_off,,,,,320,0,9,,,,,7,,,54,0
87872,note_off,,,,,320,0,8,,,,,6,,,42,0
87936,note_on,,,,,0,0,5,,,,,3,,,73,108
87936,note_off,,,,,384,0,5,,,,,3,,,69,0
87936,note_off,,,,,384,0,2,,,,,1,,,69,0
87936,note_on,,,,,0,0,2,,,,,1,,,73,92
87936,note_off,,,,,384,0,4,,,,,2,,,81,0
87936,note_on,,,,,0,0,4,,,,,2,,,82,108
87936,note_on,,,,,0,0,6,,,,,4,,,64,92
87936,note_off,,,,,384,0,6,,,,,4,,,61,0
87936,note_on,,,,,64,0,8,,,,,6,,,52,75
87936,note_off,,,,,384,0,3,,,,,10,,,54,0
87936,note_off,,,,,384,0,7,,,,,5,,,54,0
87936,note_on,,,,,0,0,7,,,,,5,,,64,92
87936,note_on,,,,,0,0,3,,,,,10,,,64,92
87936,note_off,,,,,384,0,1,,,,,0,,,81,0
87936,note_on,,,,,0,0,1,,,,,0,,,82,92
87936,note_on,,,,,64,0,9,,,,,7,,,64,45
88124,note_off,,,,,188,0,9,,,,,7,,,64,0
88124,note_off,,,,,188,0,8,,,,,6,,,52,0
88128,note_off,,,,,192,0,3,,,,,10,,,64,0
88128,note_on,,,,,0,0,3,,,,,10,,,62,92
88128,note_on,,,,,0,0,7,,,,,5,,,62,92
88128,note_on,,,,,0,0,6,,,,,4,,,62,92
88128,note_off,,,,,192,0,7,,,,,5,,,64,0
88128,note_on,,,,,4,0,9,,,,,7,,,62,45
88128,note_off,,,,,192,0,6,,,,,4,,,64,0
88128,note_on,,,,,4,0,8,,,,,6,,,50,75
88316,note_off,,,,,188,0,9,,,,,7,,,62,0
88316,note_off,,,,,188,0,8,,,,,6,,,50,0
88320,note_on,,,,,0,0,1,,,,,0,,,82,92
88320,note_on,,,,,0,0,3,,,,,10,,,64,92
88320,note_off,,,,,192,0,3,,,,,10,,,62,0
88320,note_off,,,,,384,0,4,,,,,2,,,82,0
88320,note_off,,,,,384,0,1,,,,,0,,,82,0
88320,note_on,,,,,0,0,4,,,,,2,,,82,108
88320,note_on,,,,,0,0,5,,,,,3,,,73,108
88320,note_off,,,,,384,0,5,,,,,3,,,73,0
88320,note_on,,,,,0,0,2,,,,,1,,,73,92
88320,note_on,,,,,4,0,8,,,,,6,,,52,75
88320,note_off,,,,,384,0,2,,,,,1,,,73,0
88320,note_on,,,,,0,0,7,,,,,5,,,64,92
88320,note_off,,,,,192,0,7,,,,,5,,,62,0
88320,note_off,,,,,192,0,6,,,,,4,,,62,0
88320,note_on,,,,,4,0,9,,,,,7,,,64,45
88320,note_on,,,,,0,0,6,,,,,4,,,64,92
88508,note_off,,,,,188,0,8,,,,,6,,,52,0
88508,note_off,,,,,188,0,9,,,,,7,,,64,0
88512,note_on,,,,,4,0,8,,,,,6,,,49,75
88512,note_on,,,,,4,0,9,,,,,7,,,61,45
88512,note_on,,,,,0,0,3,,,,,10,,,61,92
88512,note_on,,,,,0,0,7,,,,,5,,,61,92
88512,note_off,,,,,192,0,7,,,,,5,,,64,0
88512,note_off,,,,,192,0,6,,,,,4,,,64,0
88512,note_off,,,,,192,0,3,,,,,10,,,64,0
88512,note_on,,,,,0,0,6,,,,,4,,,61,92
88700,note_off,,,,,188,0,8,,,,,6,,,49,0
88700,note_off,,,,,188,0,9,,,,,7,,,61,0
88704,note_on,,,,,4,0,9,,,,,7,,,62,45
88704,note_on,,,,,4,0,8,,,,,6,,,50,75
88704,note_off,,,,,384,0,4,,,,,2,,,82,0
88704,note_on,,,,,0,0,4,,,,,2,,,83,108
88704,note_on,,,,,0,0,7,,,,,5,,,62,92
88704,note_off,,,,,192,0,3,,,,,10,,,61,0
88704,note_on,,,,,0,0,3,,,,,10,,,62,92
88704,note_off,,,,,192,0,6,,,,,4,,,61,0
88704,note_on,,,,,0,0,6,,,,,4,,,62,92
88704,note_on,,,,,0,0,5,,,,,3,,,78,108
88704,note_off,,,,,384,0,5,,,,,3,,,73,0
88704,note_off,,,,,384,0,2,,,,,1,,,73,0
88704,note_on,,,,,0,0,2,,,,,1,,,78,92
88704,note_off,,,,,192,0,7,,,,,5,,,61,0
88704,note_off,,,,,384,0,1,,,,,0,,,82,0
88704,note_on,,,,,0,0,1,,,,,0,,,83,92
89024,note_off,,,,,320,0,9,,,,,7,,,62,0
89024,note_off,,,,,320,0,8,,,,,6,,,50,0
89088,note_on,,,,,0,0,6,,,,,4,,,70,92
89088,note_off,,,,,384,0,2,,,,,1,,,78,0
89088,note_on,,,,,0,0,2,,,,,1,,,78,92
89088,note_on,,,,,0,0,1,,,,,0,,,85,92
89088,note_on,,,,,0,0,3,,,,,10,,,58,92
89088,note_off,,,,,384,0,3,,,,,10,,,62,0
89088,note_off,,,,,384,0,6,,,,,4,,,62,0
89088,note_off,,,,,384,0,5,,,,,3,,,78,0
89088,note_off,,,,,384,0,1,,,,,0,,,83,0
89088,note_on,,,,,64,0,8,,,,,6,,,46,75
89088,note_on,,,,,0,0,4,,,,,2,,,85,108
89088,note_off,,,,,384,0,7,,,,,5,,,62,0
89088,note_on,,,,,0,0,7,,,,,5,,,58,92
89088,note_on,,,,,64,0,9,,,,,7,,,58,45
89088,note_off,,,,,384,0,4,,,,,2,,,83,0
89088,note_on,,,,,0,0,5,,,,,3,,,78,108
89276,note_off,,,,,188,0,8,,,,,6,,,46,0
89276,note_off,,,,,188,0,9,,,,,7,,,58,0
89280,note_on,,,,,4,0,8,,,,,6,,,44,75
89280,note_off,,,,,192,0,3,,,,,10,,,58,0
89280,note_on,,,,,0,0,7,,,,,5,,,56,92
89280,note_on,,,,,4,0,9,,,,,7,,,56,45
89280,note_off,,,,,192,0,7,,,,,5,,,58,0
89280,note_off,,,,,192,0,6,,,,,4,,,70,0
89280,note_on,,,,,0,0,6,,,,,4,,,68,92
89280,note_on,,,,,0,0,3,,,,,10,,,56,92
89468,note_off,,,,,188,0,8,,,,,6,,,44,0
89468,note_off,,,,,188,0,9,,,,,7,,,56,0
89472,note_off,,,,,192,0,3,,,,,10,,,56,0
89472,note_on,,,,,0,0,3,,,,,10,,,58,92
89472,note_on,,,,,0,0,5,,,,,3,,,78,108
89472,note_off,,,,,384,0,5,,,,,3,,,78,0
89472,note_on,,,,,0,0,2,,,,,1,,,78,92
89472,note_on,,,,,0,0,6,,,,,4,,,70,92
89472,note_off,,,,,192,0,6,,,,,4,,,68,0
89472,note_off,,,,,384,0,2,,,,,1,,,78,0
89472,note_on,,,,,4,0,9,,,,,7,,,58,45
89472,note_on,,,,,4,0,8,,,,,6,,,46,75
89472,note_off,,,,,192,0,7,,,,,5,,,56,0
89472,note_on,,,,,0,0,7,,,,,5,,,58,92
89660,note_off,,,,,188,0,8,,,,,6,,,46,0
89660,note_off,,,,,188,0,9,,,,,7,,,58,0
89664,note_off,,,,,192,0,6,,,,,4,,,70,0
89664,note_on,,,,,4,0,9,,,,,7,,,54,45
89664,note_on,,,,,0,0,3,,,,,10,,,54,92
89664,note_on,,,,,0,0,7,,,,,5,,,54,92
89664,note_on,,,,,0,0,6,,,,,4,,,66,92
89664,note_off,,,,,192,0,3,,,,,10,,,58,0
89664,note_on,,,,,4,0,8,,,,,6,,,42,75
89664,note_off,,,,,192,0,7,,,,,5,,,58,0
89664,note_off,,,,,576,0,4,,,,,2,,,85,0
89664,note_on,,,,,0,0,4,,,,,2,,,85,108
89664,note_on,,,,,0,0,1,,,,,0,,,85,92
89664,note_off,,,,,576,0,1,,,,,0,,,85,0
89852,note_off,,,,,188,0,9,,,,,7,,,54,0
89852,note_off,,,,,188,0,8,,,,,6,,,42,0
89856,note_on,,,,,4,0,8,,,,,6,,,47,75
89856,note_off,,,,,192,0,6,,,,,4,,,66,0
89856,note_on,,,,,0,0,7,,,,,5,,,59,92
89856,note_off,,,,,192,0,7,,,,,5,,,54,0
89856,note_on,,,,,0,0,6,,,,,4,,,71,92
89856,note_on,,,,,0,0,1,,,,,0,,,86,92
89856,note_off,,,,,192,0,1,,,,,0,,,85,0
89856,note_on,,,,,0,0,2,,,,,1,,,78,92
89856,note_off,,,,,384,0,2,,,,,1,,,78,0
89856,note_on,,,,,0,0,4,,,,,2,,,86,108
89856,note_on,,,,,0,0,5,,,,,3,,,78,108
89856,note_off,,,,,384,0,5,,,,,3,,,78,0
89856,note_off,,,,,192,0,3,,,,,10,,,54,0
89856,note_on,,,,,0,0,3,,,,,10,,,59,92
89856,note_off,,,,,192,0,4,,,,,2,,,85,0
89856,note_on,,,,,4,0,9,,,,,7,,,59,45
90144,note_off,,,,,288,0,1,,,,,0,,,86,0
90144,note_on,,,,,0,0,1,,,,,0,,,85,92
90144,note_on,,,,,0,0,2,,,,,1,,,76,92
90144,note_on,,,,,0,0,5,,,,,3,,,76,108
90144,note_on,,,,,0,0,4,,,,,2,,,85,108
90144,note_off,,,,,288,0,5,,,,,3,,,78,0
90144,note_off,,,,,288,0,2,,,,,1,,,78,0
90144,note_off,,,,,288,0,4,,,,,2,,,86,0
90176,note_off,,,,,320,0,8,,,,,6,,,47,0
90176,note_off,,,,,320,0,9,,,,,7,,,59,0
90240,note_off,,,,,96,0,4,,,,,2,,,85,0
90240,note_on,,,,,0,0,7,,,,,5,,,52,92
90240,note_off,,,,,384,0,6,,,,,4,,,71,0
90240,note_on,,,,,0,0,4,,,,,2,,,85,108
90240,note_off,,,,,96,0,1,,,,,0,,,85,0
90240,note_off,,,,,384,0,7,,,,,5,,,59,0
90240,note_on,,,,,64,0,8,,,,,6,,,40,75
90240,note_on,,,,,0,0,3,,,,,10,,,52,92
90240,note_on,,,,,0,0,1,,,,,0,,,85,92
90240,note_off,,,,,96,0,5,,,,,3,,,76,0
90240,note_off,,,,,96,0,2,,,,,1,,,76,0
90240,note_on,,,,,0,0,2,,,,,1,,,76,92
90240,note_on,,,,,0,0,5,,,,,3,,,76,108
90240,note_off,,,,,384,0,3,,,,,10,,,59,0
90240,note_on,,,,,64,0,9,,,,,7,,,52,45
90240,note_on,,,,,0,0,6,,,,,4,,,64,92
90528,note_off,,,,,288,0,4,,,,,2,,,85,0
90528,note_on,,,,,0,0,4,,,,,2,,,83,108
90528,note_on,,,,,0,0,5,,,,,3,,,74,108
90528,note_on,,,,,0,0,1,,,,,0,,,83,92
90528,note_on,,,,,0,0,2,,,,,1,,,74,92
90528,note_off,,,,,288,0,2,,,,,1,,,76,0
90528,note_off,,,,,288,0,1,,,,,0,,,85,0
90528,note_off,,,,,288,0,5,,,,,3,,,76,0
90560,note_off,,,,,320,0,9,,,,,7,,,52,0
90560,note_off,,,,,320,0,8,,,,,6,,,40,0
90624,note_off,,,,,96,0,1,,,,,0,,,83,0
90624,note_on,,,,,0,0,1,,,,,0,,,83,92
90624,note_on,,,,,0,0,6,,,,,4,,,59,92
90624,note_on,,,,,0,0,2,,,,,1,,,74,92
90624,note_off,,,,,96,0,4,,,,,2,,,83,0
90624,note_on,,,,,0,0,4,,,,,2,,,83,108
90624,note_off,,,,,96,0,2,,,,,1,,,74,0
90624,note_on,,,,,64,0,9,,,,,7,,,47,45
90624,note_off,,,,,384,0,7,,,,,5,,,52,0
90624,note_on,,,,,0,0,7,,,,,5,,,47,92
90624,note_on,,,,,64,0,8,,,,,6,,,35,75
90624,note_on,,,,,0,0,3,,,,,10,,,47,92
90624,note_off,,,,,384,0,3,,,,,10,,,52,0
90624,note_off,,,,,384,0,6,,,,,4,,,64,0
90624,note_on,,,,,0,0,5,,,,,3,,,74,108
90624,note_off,,,,,96,0,5,,,,,3,,,74,0
90912,note_on,,,,,0,0,2,,,,,1,,,73,92
90912,note_off,,,,,288,0,5,,,,,3,,,74,0
90912,note_off,,,,,288,0,1,,,,,0,,,83,0
90912,note_on,,,,,0,0,5,,,,,3,,,73,108
90912,note_on,,,,,0,0,4,,,,,2,,,82,108
90912,note_off,,,,,288,0,4,,,,,2,,,83,0
90912,note_on,,,,,0,0,1,,,,,0,,,82,92
90912,note_off,,,,,288,0,2,,,,,1,,,74,0
90944,note_off,,,,,320,0,8,,,,,6,,,35,0
90944,note_off,,,,,320,0,9,,,,,7,,,47,0
91008,note_off,,,,,96,0,5,,,,,3,,,73,0
91008,note_off,,,,,96,0,1,,,,,0,,,82,0
91008,note_on,,,,,64,0,8,,,,,6,,,42,75
91008,note_on,,,,,0,0,5,,,,,3,,,73,108
91008,note_on,,,,,0,0,6,,,,,4,,,66,92
91008,note_off,,,,,384,0,3,,,,,10,,,47,0
91008,note_on,,,,,0,0,1,,,,,0,,,82,92
91008,note_on,,,,,64,0,9,,,,,7,,,54,45
91008,note_off,,,,,384,0,6,,,,,4,,,59,0
91008,note_on,,,,,0,0,4,,,,,2,,,82,108
91008,note_on,,,,,0,0,7,,,,,5,,,54,92
91008,note_off,,,,,384,0,7,,,,,5,,,47,0
91008,note_on,,,,,0,0,2,,,,,1,,,73,92
91008,note_off,,,,,96,0,2,,,,,1,,,73,0
91008,note_on,,,,,0,0,3,,,,,10,,,54,92
91008,note_off,,,,,96,0,4,,,,,2,,,82,0
91136,note_on,,,,,0,0,1,,,,,0,,,78,92
91136,note_off,,,,,128,0,1,,,,,0,,,82,0
91264,note_off,,,,,128,0,1,,,,,0,,,78,0
91264,note_on,,,,,0,0,1,,,,,0,,,76,92
91328,note_off,,,,,320,0,9,,,,,7,,,54,0
91328,note_off,,,,,320,0,8,,,,,6,,,42,0
91392,note_off,,,,,384,0,6,,,,,4,,,66,0
91392,note_off,,,,,128,0,1,,,,,0,,,76,0
91392,note_on,,,,,0,0,1,,,,,0,,,74,92
91392,note_off,,,,,384,0,3,,,,,10,,,54,0
91392,note_off,,,,,384,0,5,,,,,3,,,73,0
91392,note_off,,,,,384,0,7,,,,,5,,,54,0
91392,note_off,,,,,384,0,4,,,,,2,,,82,0
91392,note_off,,,,,384,0,2,,,,,1,,,73,0
91520,note_on,,,,,0,0,1,,,,,0,,,73,92
91520,note_off,,,,,128,0,1,,,,,0,,,74,0
91648,note_on,,,,,0,0,1,,,,,0,,,71,92
91648,note_off,,,,,128,0,1,,,,,0,,,73,0
91776,note_on,,,,,0,0,1,,,,,0,,,70,92
91776,note_off,,,,,128,0,1,,,,,0,,,71,0
91904,note_on,,,,,0,0,1,,,,,0,,,71,92
91904,note_off,,,,,128,0,1,,,,,0,,,70,0
92032,note_off,,,,,128,0,1,,,,,0,,,71,0
92032,note_on,,,,,0,0,1,,,,,0,,,73,92
92160,note_off,,,,,128,0,1,,,,,0,,,73,0
92160,note_on,,,,,0,0,1,,,,,0,,,66,92
92544,note_on,,,,,1152,0,5,,,,,3,,,70,60
92544,note_off,,,,,384,0,1,,,,,0,,,66,0
92544,note_on,,,,,1152,0,4,,,,,2,,,73,60
92544,note_on,,,,,1152,0,6,,,,,4,,,66,45
92832,note_on,,,,,0,0,5,,,,,3,,,73,60
92832,note_on,,,,,0,0,4,,,,,2,,,76,60
92832,note_off,,,,,288,0,4,,,,,2,,,73,0
92832,note_off,,,,,288,0,5,,,,,3,,,70,0
92928,note_on,,,,,0,0,6,,,,,4,,,66,45
92928,note_off,,,,,384,0,6,,,,,4,,,66,0
92928,note_on,,,,,0,0,5,,,,,3,,,71,60
92928,note_off,,,,,96,0,5,,,,,3,,,73,0
92928,note_on,,,,,0,0,4,,,,,2,,,74,60
92928,note_off,,,,,96,0,4,,,,,2,,,76,0
93216,note_off,,,,,288,0,4,,,,,2,,,74,0
93216,note_on,,,,,0,0,4,,,,,2,,,76,60
93216,note_on,,,,,0,0,5,,,,,3,,,73,60
93216,note_off,,,,,288,0,5,,,,,3,,,71,0
93312,note_off,,,,,96,0,5,,,,,3,,,73,0
93312,note_on,,,,,0,0,6,,,,,4,,,66,45
93312,note_off,,,,,96,0,4,,,,,2,,,76,0
93312,note_off,,,,,384,0,6,,,,,4,,,66,0
93312,note_on,,,,,0,0,4,,,,,2,,,73,60
93312,note_on,,,,,0,0,5,,,,,3,,,70,60
93440,note_on,,,,,2048,0,3,,,,,10,,,66,92
93568,note_off,,,,,128,0,3,,,,,10,,,66,0
93568,note_on,,,,,0,0,3,,,,,10,,,64,92
93696,note_off,,,,,128,0,3,,,,,10,,,64,0
93696,note_off,,,,,384,0,4,,,,,2,,,73,0
93696,note_on,,,,,0,0,3,,,,,10,,,62,92
93696,note_off,,,,,384,0,5,,,,,3,,,70,0
93696,note_off,,,,,384,0,6,,,,,4,,,66,0
93824,note_off,,,,,128,0,3,,,,,10,,,62,0
93824,note_on,,,,,0,0,3,,,,,10,,,61,92
93952,note_off,,,,,128,0,3,,,,,10,,,61,0
93952,note_on,,,,,0,0,3,,,,,10,,,59,92
94080,note_off,,,,,128,0,3,,,,,10,,,59,0
94080,note_on,,,,,0,0,3,,,,,10,,,58,92
94208,note_on,,,,,0,0,3,,,,,10,,,59,92
94208,note_off,,,,,128,0,3,,,,,10,,,58,0
94336,note_off,,,,,128,0,3,,,,,10,,,59,0
94336,note_on,,,,,0,0,3,,,,,10,,,61,92
94464,note_on,,,,,3136,0,8,,,,,6,,,42,75
94464,note_on,,,,,3136,0,9,,,,,7,,,54,45
94464,note_on,,,,,0,0,3,,,,,10,,,54,92
94464,note_on,,,,,3072,0,7,,,,,5,,,54,92
94464,note_off,,,,,128,0,3,,,,,10,,,61,0
94592,note_on,,,,,3200,0,2,,,,,1,,,73,92
94592,note_on,,,,,2048,0,1,,,,,0,,,73,92
94720,note_off,,,,,128,0,1,,,,,0,,,73,0
94720,note_on,,,,,0,0,1,,,,,0,,,71,92
94720,note_on,,,,,0,0,2,,,,,1,,,71,92
94720,note_off,,,,,128,0,2,,,,,1,,,73,0
94784,note_off,,,,,320,0,8,,,,,6,,,42,0
94784,note_off,,,,,320,0,9,,,,,7,,,54,0
94848,note_on,,,,,0,0,2,,,,,1,,,70,92
94848,note_off,,,,,128,0,2,,,,,1,,,71,0
94848,note_off,,,,,384,0,7,,,,,5,,,54,0
94848,note_on,,,,,64,0,8,,,,,6,,,42,30
94848,note_on,,,,,0,0,7,,,,,5,,,54,45
94848,note_on,,,,,1152,0,4,,,,,2,,,78,60
94848,note_on,,,,,1152,0,6,,,,,4,,,66,45
94848,note_off,,,,,128,0,1,,,,,0,,,71,0
94848,note_on,,,,,64,0,9,,,,,7,,,54,30
94848,note_on,,,,,0,0,3,,,,,10,,,54,45
94848,note_off,,,,,384,0,3,,,,,10,,,54,0
94848,note_on,,,,,0,0,1,,,,,0,,,70,92
94848,note_on,,,,,1152,0,5,,,,,3,,,73,60
94976,note_off,,,,,128,0,1,,,,,0,,,70,0
94976,note_on,,,,,0,0,2,,,,,1,,,71,92
94976,note_on,,,,,0,0,1,,,,,0,,,71,92
94976,note_off,,,,,128,0,2,,,,,1,,,70,0
95104,note_off,,,,,128,0,1,,,,,0,,,71,0
95104,note_on,,,,,0,0,1,,,,,0,,,73,92
95104,note_on,,,,,0,0,2,,,,,1,,,73,92
95104,note_off,,,,,128,0,2,,,,,1,,,71,0
95168,note_off,,,,,320,0,9,,,,,7,,,54,0
95168,note_off,,,,,320,0,8,,,,,6,,,42,0
95232,note_off,,,,,128,0,2,,,,,1,,,73,0
95232,note_off,,,,,384,0,4,,,,,2,,,78,0
95232,note_on,,,,,0,0,2,,,,,1,,,66,92
95232,note_on,,,,,0,0,5,,,,,3,,,70,60
95232,note_on,,,,,64,0,9,,,,,7,,,58,30
95232,note_off,,,,,128,0,1,,,,,0,,,73,0
95232,note_on,,,,,0,0,1,,,,,0,,,66,92
95232,note_off,,,,,384,0,5,,,,,3,,,73,0
95232,note_on,,,,,64,0,8,,,,,6,,,46,30
95232,note_on,,,,,0,0,4,,,,,2,,,73,60
95232,note_on,,,,,0,0,3,,,,,10,,,58,45
95232,note_off,,,,,384,0,6,,,,,4,,,66,0
95232,note_on,,,,,0,0,6,,,,,4,,,66,45
95232,note_off,,,,,384,0,3,,,,,10,,,54,0
95232,note_on,,,,,0,0,7,,,,,5,,,58,45
95232,note_off,,,,,384,0,7,,,,,5,,,54,0
95360,note_on,,,,,0,0,1,,,,,0,,,78,92
95360,note_off,,,,,128,0,1,,,,,0,,,66,0
95360,note_off,,,,,128,0,2,,,,,1,,,66,0
95360,note_on,,,,,0,0,2,,,,,1,,,78,92
95488,note_off,,,,,128,0,1,,,,,0,,,78,0
95488,note_off,,,,,128,0,2,,,,,1,,,78,0
95488,note_on,,,,,0,0,2,,,,,1,,,76,92
95488,note_on,,,,,0,0,1,,,,,0,,,76,92
95552,note_off,,,,,320,0,8,,,,,6,,,46,0
95552,note_off,,,,,320,0,9,,,,,7,,,58,0
95616,note_off,,,,,128,0,2,,,,,1,,,76,0
95616,note_on,,,,,0,0,2,,,,,1,,,74,92
95616,note_off,,,,,384,0,3,,,,,10,,,58,0
95616,note_off,,,,,384,0,5,,,,,3,,,70,0
95616,note_on,,,,,0,0,5,,,,,3,,,71,60
95616,note_off,,,,,384,0,6,,,,,4,,,66,0
95616,note_off,,,,,384,0,4,,,,,2,,,73,0
95616,note_on,,,,,64,0,8,,,,,6,,,47,30
95616,note_on,,,,,0,0,4,,,,,2,,,74,60
95616,note_off,,,,,384,0,7,,,,,5,,,58,0
95616,note_on,,,,,0,0,7,,,,,5,,,59,45
95616,note_off,,,,,128,0,1,,,,,0,,,76,0
95616,note_on,,,,,0,0,1,,,,,0,,,74,92
95616,note_on,,,,,0,0,6,,,,,4,,,66,45
95616,note_on,,,,,0,0,3,,,,,10,,,59,45
95616,note_on,,,,,64,0,9,,,,,7,,,59,30
95744,note_off,,,,,128,0,2,,,,,1,,,74,0
95744,note_on,,,,,0,0,2,,,,,1,,,78,92
95744,note_on,,,,,0,0,1,,,,,0,,,78,92
95744,note_off,,,,,128,0,1,,,,,0,,,74,0
95872,note_on,,,,,0,0,2,,,,,1,,,76,92
95872,note_off,,,,,128,0,2,,,,,1,,,78,0
95872,note_on,,,,,0,0,1,,,,,0,,,76,92
95872,note_off,,,,,128,0,1,,,,,0,,,78,0
95936,note_off,,,,,320,0,9,,,,,7,,,59,0
95936,note_off,,,,,320,0,8,,,,,6,,,47,0
96000,note_on,,,,,0,0,2,,,,,1,,,74,92
96000,note_off,,,,,128,0,2,,,,,1,,,76,0
96000,note_off,,,,,384,0,7,,,,,5,,,59,0
96000,note_off,,,,,384,0,3,,,,,10,,,59,0
96000,note_off,,,,,384,0,6,,,,,4,,,66,0
96000,note_off,,,,,384,0,5,,,,,3,,,71,0
96000,note_off,,,,,384,0,4,,,,,2,,,74,0
96000,note_off,,,,,128,0,1,,,,,0,,,76,0
96000,note_on,,,,,0,0,1,,,,,0,,,74,92
96128,note_off,,,,,128,0,1,,,,,0,,,74,0
96128,note_on,,,,,0,0,1,,,,,0,,,76,92
96128,note_off,,,,,128,0,2,,,,,1,,,74,0
96128,note_on,,,,,0,0,2,,,,,1,,,76,92
96256,note_off,,,,,128,0,1,,,,,0,,,76,0
96256,note_on,,,,,0,0,1,,,,,0,,,78,92
96256,note_off,,,,,128,0,2,,,,,1,,,76,0
96256,note_on,,,,,0,0,2,,,,,1,,,78,92
96384,note_on,,,,,384,0,6,,,,,4,,,62,45
96384,note_on,,,,,448,0,9,,,,,7,,,50,30
96384,note_on,,,,,384,0,3,,,,,10,,,50,45
96384,note_off,,,,,128,0,1,,,,,0,,,78,0
96384,note_on,,,,,0,0,1,,,,,0,,,71,92
96384,note_on,,,,,384,0,4,,,,,2,,,66,60
96384,note_on,,,,,384,0,5,,,,,3,,,66,60
96384,note_on,,,,,0,0,2,,,,,1,,,71,92
96384,note_off,,,,,128,0,2,,,,,1,,,78,0
96384,note_on,,,,,384,0,7,,,,,5,,,50,45
96384,note_on,,,,,448,0,8,,,,,6,,,38,30
96512,note_off,,,,,128,0,1,,,,,0,,,71,0
96512,note_on,,,,,0,0,1,,,,,0,,,83,92
96512,note_off,,,,,128,0,2,,,,,1,,,71,0
96512,note_on,,,,,0,0,2,,,,,1,,,83,92
96640,note_off,,,,,128,0,1,,,,,0,,,83,0
96640,note_on,,,,,0,0,1,,,,,0,,,81,92
96640,note_off,,,,,128,0,2,,,,,1,,,83,0
96640,note_on,,,,,0,0,2,,,,,1,,,81,92
96704,note_off,,,,,320,0,8,,,,,6,,,38,0
96704,note_off,,,,,320,0,9,,,,,7,,,50,0
96768,note_on,,,,,0,0,3,,,,,10,,,52,45
96768,note_off,,,,,384,0,5,,,,,3,,,66,0
96768,note_off,,,,,128,0,2,,,,,1,,,81,0
96768,note_on,,,,,0,0,2,,,,,1,,,79,92
96768,note_on,,,,,64,0,9,,,,,7,,,52,30
96768,note_off,,,,,384,0,7,,,,,5,,,50,0
96768,note_off,,,,,384,0,6,,,,,4,,,62,0
96768,note_on,,,,,0,0,6,,,,,4,,,59,45
96768,note_off,,,,,128,0,1,,,,,0,,,81,0
96768,note_on,,,,,64,0,8,,,,,6,,,40,30
96768,note_on,,,,,0,0,7,,,,,5,,,52,45
96768,note_off,,,,,384,0,4,,,,,2,,,66,0
96768,note_on,,,,,0,0,5,,,,,3,,,64,60
96768,note_off,,,,,384,0,3,,,,,10,,,50,0
96768,note_on,,,,,0,0,1,,,,,0,,,79,92
96768,note_on,,,,,0,0,4,,,,,2,,,67,60
96896,note_off,,,,,128,0,2,,,,,1,,,79,0
96896,note_on,,,,,0,0,2,,,,,1,,,81,92
96896,note_off,,,,,128,0,1,,,,,0,,,79,0
96896,note_on,,,,,0,0,1,,,,,0,,,81,92
97024,note_on,,,,,0,0,1,,,,,0,,,83,92
97024,note_off,,,,,128,0,1,,,,,0,,,81,0
97024,note_off,,,,,128,0,2,,,,,1,,,81,0
97024,note_on,,,,,0,0,2,,,,,1,,,83,92
97088,note_off,,,,,320,0,8,,,,,6,,,40,0
97088,note_off,,,,,320,0,9,,,,,7,,,52,0
97152,note_on,,,,,0,0,1,,,,,0,,,76,92
97152,note_off,,,,,384,0,4,,,,,2,,,67,0
97152,note_off,,,,,384,0,7,,,,,5,,,52,0
97152,note_off,,,,,384,0,5,,,,,3,,,64,0
97152,note_off,,,,,384,0,6,,,,,4,,,59,0
97152,note_off,,,,,128,0,1,,,,,0,,,83,0
97152,note_off,,,,,384,0,3,,,,,10,,,52,0
97152,note_off,,,,,128,0,2,,,,,1,,,83,0
97152,note_on,,,,,0,0,2,,,,,1,,,76,92
97280,note_on,,,,,0,0,2,,,,,1,,,78,92
97280,note_off,,,,,128,0,1,,,,,0,,,76,0
97280,note_on,,,,,0,0,1,,,,,0,,,78,92
97280,note_off,,,,,128,0,2,,,,,1,,,76,0
97408,note_off,,,,,128,0,1,,,,,0,,,78,0
97408,note_on,,,,,0,0,1,,,,,0,,,79,92
97408,note_on,,,,,0,0,2,,,,,1,,,79,92
97408,note_off,,,,,128,0,2,,,,,1,,,78,0
97536,note_on,,,,,448,0,8,,,,,6,,,44,30
97536,note_off,,,,,128,0,1,,,,,0,,,79,0
97536,note_on,,,,,0,0,1,,,,,0,,,71,92
97536,note_on,,,,,384,0,3,,,,,10,,,56,45
97536,note_off,,,,,128,0,2,,,,,1,,,79,0
97536,note_on,,,,,448,0,9,,,,,7,,,56,30
97536,note_on,,,,,384,0,4,,,,,2,,,79,60
97536,note_on,,,,,384,0,7,,,,,5,,,56,45
97536,note_on,,,,,384,0,5,,,,,3,,,83,60
97536,note_on,,,,,384,0,6,,,,,4,,,64,45
97536,note_on,,,,,0,0,2,,,,,1,,,71,92
97664,note_on,,,,,0,0,1,,,,,0,,,73,92
97664,note_off,,,,,128,0,1,,,,,0,,,71,0
97664,note_off,,,,,128,0,2,,,,,1,,,71,0
97664,note_on,,,,,0,0,2,,,,,1,,,73,92
97792,note_on,,,,,0,0,1,,,,,0,,,74,92
97792,note_off,,,,,128,0,1,,,,,0,,,73,0
97792,note_on,,,,,0,0,2,,,,,1,,,74,92
97792,note_off,,,,,128,0,2,,,,,1,,,73,0
97856,note_off,,,,,320,0,9,,,,,7,,,56,0
97856,note_off,,,,,320,0,8,,,,,6,,,44,0
97920,note_on,,,,,0,0,1,,,,,0,,,73,92
97920,note_off,,,,,128,0,1,,,,,0,,,74,0
97920,note_on,,,,,0,0,7,,,,,5,,,57,45
97920,note_off,,,,,384,0,7,,,,,5,,,56,0
97920,note_on,,,,,0,0,5,,,,,3,,,76,60
97920,note_off,,,,,384,0,5,,,,,3,,,83,0
97920,note_off,,,,,384,0,3,,,,,10,,,56,0
97920,note_on,,,,,0,0,3,,,,,10,,,57,45
97920,note_on,,,,,64,0,9,,,,,7,,,57,30
97920,note_on,,,,,64,0,8,,,,,6,,,45,30
97920,note_off,,,,,384,0,6,,,,,4,,,64,0
97920,note_on,,,,,0,0,6,,,,,4,,,64,45
97920,note_off,,,,,128,0,2,,,,,1,,,74,0
97920,note_on,,,,,0,0,2,,,,,1,,,73,92
97920,note_off,,,,,384,0,4,,,,,2,,,79,0
97920,note_on,,,,,0,0,4,,,,,2,,,73,60
98048,note_off,,,,,128,0,2,,,,,1,,,73,0
98048,note_on,,,,,0,0,2,,,,,1,,,74,92
98048,note_off,,,,,128,0,1,,,,,0,,,73,0
98048,note_on,,,,,0,0,1,,,,,0,,,74,92
98176,note_off,,,,,128,0,2,,,,,1,,,74,0
98176,note_on,,,,,0,0,2,,,,,1,,,76,92
98176,note_on,,,,,0,0,1,,,,,0,,,76,92
98176,note_off,,,,,128,0,1,,,,,0,,,74,0
98240,note_off,,,,,320,0,8,,,,,6,,,45,0
98240,note_off,,,,,320,0,9,,,,,7,,,57,0
98304,note_off,,,,,128,0,2,,,,,1,,,76,0
98304,note_on,,,,,0,0,2,,,,,1,,,69,92
98304,note_off,,,,,384,0,4,,,,,2,,,73,0
98304,note_off,,,,,384,0,6,,,,,4,,,64,0
98304,note_off,,,,,384,0,7,,,,,5,,,57,0
98304,note_off,,,,,384,0,5,,,,,3,,,76,0
98304,note_off,,,,,128,0,1,,,,,0,,,76,0
98304,note_off,,,,,384,0,3,,,,,10,,,57,0
98304,note_on,,,,,0,0,1,,,,,0,,,69,92
98432,note_on,,,,,0,0,1,,,,,0,,,71,92
98432,note_off,,,,,128,0,1,,,,,0,,,69,0
98432,note_on,,,,,0,0,2,,,,,1,,,71,92
98432,note_off,,,,,128,0,2,,,,,1,,,69,0
98560,note_off,,,,,128,0,1,,,,,0,,,71,0
98560,note_on,,,,,0,0,2,,,,,1,,,73,92
98560,note_off,,,,,128,0,2,,,,,1,,,71,0
98560,note_on,,,,,0,0,1,,,,,0,,,73,92
98688,note_on,,,,,384,0,5,,,,,3,,,76,60
98688,note_off,,,,,128,0,2,,,,,1,,,73,0
98688,note_on,,,,,0,0,2,,,,,1,,,64,92
98688,note_on,,,,,384,0,4,,,,,2,,,81,60
98688,note_on,,,,,0,0,1,,,,,0,,,64,92
98688,note_on,,,,,448,0,8,,,,,6,,,37,30
98688,note_on,,,,,384,0,6,,,,,4,,,64,45
98688,note_off,,,,,128,0,1,,,,,0,,,73,0
98688,note_on,,,,,448,0,9,,,,,7,,,49,30
98688,note_on,,,,,384,0,3,,,,,10,,,49,45
98688,note_on,,,,,384,0,7,,,,,5,,,49,45
98816,note_off,,,,,128,0,1,,,,,0,,,64,0
98816,note_off,,,,,128,0,2,,,,,1,,,64,0
98816,note_on,,,,,0,0,2,,,,,1,,,66,92
98816,note_on,,,,,0,0,1,,,,,0,,,66,92
98944,note_off,,,,,128,0,1,,,,,0,,,66,0
98944,note_off,,,,,128,0,2,,,,,1,,,66,0
98944,note_on,,,,,0,0,2,,,,,1,,,67,92
98944,note_on,,,,,0,0,1,,,,,0,,,67,92
99008,note_off,,,,,320,0,8,,,,,6,,,37,0
99008,note_off,,,,,320,0,9,,,,,7,,,49,0
99072,note_on,,,,,64,0,8,,,,,6,,,38,30
99072,note_on,,,,,0,0,6,,,,,4,,,62,45
99072,note_off,,,,,384,0,6,,,,,4,,,64,0
99072,note_on,,,,,64,0,9,,,,,7,,,50,30
99072,note_on,,,,,0,0,3,,,,,10,,,50,45
99072,note_on,,,,,0,0,1,,,,,0,,,66,92
99072,note_off,,,,,384,0,4,,,,,2,,,81,0
99072,note_on,,,,,0,0,4,,,,,2,,,69,60
99072,note_on,,,,,0,0,5,,,,,3,,,66,60
99072,note_off,,,,,384,0,5,,,,,3,,,76,0
99072,note_off,,,,,128,0,1,,,,,0,,,67,0
99072,note_off,,,,,384,0,7,,,,,5,,,49,0
99072,note_on,,,,,0,0,7,,,,,5,,,50,45
99072,note_off,,,,,128,0,2,,,,,1,,,67,0
99072,note_off,,,,,384,0,3,,,,,10,,,49,0
99072,note_on,,,,,0,0,2,,,,,1,,,66,92
99200,note_off,,,,,128,0,1,,,,,0,,,66,0
99200,note_off,,,,,128,0,2,,,,,1,,,66,0
99200,note_on,,,,,0,0,2,,,,,1,,,68,92
99200,note_on,,,,,0,0,1,,,,,0,,,68,92
99328,note_off,,,,,128,0,1,,,,,0,,,68,0
99328,note_off,,,,,128,0,2,,,,,1,,,68,0
99328,note_on,,,,,0,0,1,,,,,0,,,69,92
99328,note_on,,,,,0,0,2,,,,,1,,,69,92
99392,note_off,,,,,320,0,8,,,,,6,,,38,0
99392,note_off,,,,,320,0,9,,,,,7,,,50,0
99456,note_off,,,,,384,0,5,,,,,3,,,66,0
99456,note_on,,,,,64,0,8,,,,,6,,,35,30
99456,note_on,,,,,64,0,9,,,,,7,,,47,30
99456,note_off,,,,,384,0,7,,,,,5,,,50,0
99456,note_on,,,,,0,0,7,,,,,5,,,47,45
99456,note_off,,,,,384,0,6,,,,,4,,,62,0
99456,note_on,,,,,0,0,3,,,,,10,,,47,45
99456,note_off,,,,,384,0,3,,,,,10,,,50,0
99456,note_off,,,,,128,0,2,,,,,1,,,69,0
99456,note_on,,,,,0,0,1,,,,,0,,,71,92
99456,note_on,,,,,0,0,4,,,,,2,,,74,60
99456,note_off,,,,,384,0,4,,,,,2,,,69,0
99456,note_on,,,,,0,0,2,,,,,1,,,71,92
99456,note_on,,,,,0,0,6,,,,,4,,,66,45
99456,note_on,,,,,0,0,5,,,,,3,,,78,60
99456,note_off,,,,,128,0,1,,,,,0,,,69,0
99584,note_on,,,,,0,0,2,,,,,1,,,73,92
99584,note_off,,,,,128,0,2,,,,,1,,,71,0
99584,note_on,,,,,0,0,1,,,,,0,,,73,92
99584,note_off,,,,,128,0,1,,,,,0,,,71,0
99712,note_on,,,,,0,0,1,,,,,0,,,74,92
99712,note_off,,,,,128,0,1,,,,,0,,,73,0
99712,note_on,,,,,0,0,2,,,,,1,,,74,92
99712,note_off,,,,,128,0,2,,,,,1,,,73,0
99776,note_off,,,,,320,0,9,,,,,7,,,47,0
99776,note_off,,,,,320,0,8,,,,,6,,,35,0
99840,note_off,,,,,384,0,6,,,,,4,,,66,0
99840,note_on,,,,,0,0,2,,,,,1,,,66,92
99840,note_on,,,,,0,0,1,,,,,0,,,66,92
99840,note_off,,,,,128,0,1,,,,,0,,,74,0
99840,note_off,,,,,384,0,3,,,,,10,,,47,0
99840,note_off,,,,,384,0,4,,,,,2,,,74,0
99840,note_off,,,,,128,0,2,,,,,1,,,74,0
99840,note_off,,,,,384,0,5,,,,,3,,,78,0
99840,note_off,,,,,384,0,7,,,,,5,,,47,0
99968,note_off,,,,,128,0,2,,,,,1,,,66,0
99968,note_on,,,,,0,0,1,,,,,0,,,68,92
99968,note_off,,,,,128,0,1,,,,,0,,,66,0
99968,note_on,,,,,0,0,2,,,,,1,,,68,92
100096,note_off,,,,,128,0,1,,,,,0,,,68,0
100096,note_on,,,,,0,0,2,,,,,1,,,69,92
100096,note_on,,,,,0,0,1,,,,,0,,,69,92
100096,note_off,,,,,128,0,2,,,,,1,,,68,0
100224,note_off,,,,,128,0,2,,,,,1,,,69,0
100224,note_on,,,,,384,0,5,,,,,3,,,68,60
100224,note_on,,,,,0,0,1,,,,,0,,,68,92
100224,note_on,,,,,384,0,4,,,,,2,,,71,60
100224,note_off,,,,,128,0,1,,,,,0,,,69,0
100224,note_on,,,,,448,0,9,,,,,7,,,52,30
100224,note_on,,,,,384,0,7,,,,,5,,,52,45
100224,note_on,,,,,0,0,2,,,,,1,,,68,92
100224,note_on,,,,,384,0,3,,,,,10,,,52,45
100224,note_on,,,,,384,0,6,,,,,4,,,64,45
100224,note_on,,,,,448,0,8,,,,,6,,,40,30
100352,note_off,,,,,128,0,1,,,,,0,,,68,0
100352,note_off,,,,,128,0,2,,,,,1,,,68,0
100352,note_on,,,,,0,0,2,,,,,1,,,70,92
100352,note_on,,,,,0,0,1,,,,,0,,,70,92
100480,note_on,,,,,0,0,2,,,,,1,,,71,92
100480,note_off,,,,,128,0,2,,,,,1,,,70,0
100480,note_off,,,,,128,0,1,,,,,0,,,70,0
100480,note_on,,,,,0,0,1,,,,,0,,,71,92
100544,note_off,,,,,320,0,8,,,,,6,,,40,0
100544,note_off,,,,,320,0,9,,,,,7,,,52,0
100608,note_on,,,,,0,0,4,,,,,2,,,76,60
100608,note_on,,,,,64,0,9,,,,,7,,,49,30
100608,note_off,,,,,384,0,4,,,,,2,,,71,0
100608,note_off,,,,,128,0,2,,,,,1,,,71,0
100608,note_on,,,,,0,0,2,,,,,1,,,73,92
100608,note_on,,,,,0,0,5,,,,,3,,,73,60
100608,note_off,,,,,128,0,1,,,,,0,,,71,0
100608,note_off,,,,,384,0,5,,,,,3,,,68,0
100608,note_on,,,,,64,0,8,,,,,6,,,37,30
100608,note_off,,,,,384,0,7,,,,,5,,,52,0
100608,note_on,,,,,0,0,1,,,,,0,,,73,92
100608,note_on,,,,,0,0,6,,,,,4,,,68,45
100608,note_off,,,,,384,0,6,,,,,4,,,64,0
100608,note_off,,,,,384,0,3,,,,,10,,,52,0
100608,note_on,,,,,0,0,3,,,,,10,,,49,45
100608,note_on,,,,,0,0,7,,,,,5,,,49,45
100736,note_on,,,,,0,0,2,,,,,1,,,74,92
100736,note_off,,,,,128,0,1,,,,,0,,,73,0
100736,note_off,,,,,128,0,2,,,,,1,,,73,0
100736,note_on,,,,,0,0,1,,,,,0,,,74,92
100864,note_off,,,,,128,0,2,,,,,1,,,74,0
100864,note_on,,,,,0,0,2,,,,,1,,,76,92
100864,note_on,,,,,0,0,1,,,,,0,,,76,92
100864,note_off,,,,,128,0,1,,,,,0,,,74,0
100928,note_off,,,,,320,0,9,,,,,7,,,49,0
100928,note_off,,,,,320,0,8,,,,,6,,,37,0
100992,note_off,,,,,384,0,7,,,,,5,,,49,0
100992,note_off,,,,,384,0,5,,,,,3,,,73,0
100992,note_off,,,,,128,0,2,,,,,1,,,76,0
100992,note_on,,,,,0,0,2,,,,,1,,,68,92
100992,note_off,,,,,384,0,6,,,,,4,,,68,0
100992,note_off,,,,,384,0,4,,,,,2,,,76,0
100992,note_off,,,,,384,0,3,,,,,10,,,49,0
100992,note_on,,,,,0,0,1,,,,,0,,,68,92
100992,note_off,,,,,128,0,1,,,,,0,,,76,0
101120,note_on,,,,,0,0,2,,,,,1,,,70,92
101120,note_off,,,,,128,0,1,,,,,0,,,68,0
101120,note_on,,,,,0,0,1,,,,,0,,,70,92
101120,note_off,,,,,128,0,2,,,,,1,,,68,0
101248,note_off,,,,,128,0,2,,,,,1,,,70,0
101248,note_on,,,,,0,0,2,,,,,1,,,71,92
101248,note_off,,,,,128,0,1,,,,,0,,,70,0
101248,note_on,,,,,0,0,1,,,,,0,,,71,92
101376,note_on,,,,,384,0,4,,,,,2,,,73,60
101376,note_off,,,,,128,0,1,,,,,0,,,71,0
101376,note_on,,,,,384,0,7,,,,,5,,,54,45
101376,note_on,,,,,0,0,2,,,,,1,,,70,92
101376,note_on,,,,,384,0,5,,,,,3,,,70,60
101376,note_on,,,,,448,0,9,,,,,7,,,54,30
101376,note_on,,,,,0,0,1,,,,,0,,,70,92
101376,note_on,,,,,448,0,8,,,,,6,,,42,30
101376,note_off,,,,,128,0,2,,,,,1,,,71,0
101376,note_on,,,,,384,0,3,,,,,10,,,54,45
101376,note_on,,,,,384,0,6,,,,,4,,,66,45
101504,note_on,,,,,0,0,2,,,,,1,,,71,92
101504,note_off,,,,,128,0,2,,,,,1,,,70,0
101504,note_off,,,,,128,0,1,,,,,0,,,70,0
101504,note_on,,,,,0,0,1,,,,,0,,,71,92
101632,note_off,,,,,128,0,2,,,,,1,,,71,0
101632,note_on,,,,,0,0,2,,,,,1,,,73,92
101632,note_on,,,,,0,0,1,,,,,0,,,73,92
101632,note_off,,,,,128,0,1,,,,,0,,,71,0
101696,note_off,,,,,320,0,8,,,,,6,,,42,0
101696,note_off,,,,,320,0,9,,,,,7,,,54,0
101760,note_on,,,,,64,0,8,,,,,6,,,38,30
101760,note_on,,,,,0,0,7,,,,,5,,,50,45
101760,note_on,,,,,0,0,1,,,,,0,,,74,92
101760,note_on,,,,,0,0,2,,,,,1,,,74,92
101760,note_off,,,,,384,0,7,,,,,5,,,54,0
101760,note_on,,,,,0,0,3,,,,,10,,,50,45
101760,note_off,,,,,384,0,3,,,,,10,,,54,0
101760,note_off,,,,,128,0,2,,,,,1,,,73,0
101760,note_off,,,,,384,0,4,,,,,2,,,73,0
101760,note_on,,,,,0,0,4,,,,,2,,,78,60
101760,note_off,,,,,384,0,5,,,,,3,,,70,0
101760,note_on,,,,,0,0,5,,,,,3,,,74,60
101760,note_off,,,,,128,0,1,,,,,0,,,73,0
101760,note_on,,,,,0,0,6,,,,,4,,,66,45
101760,note_off,,,,,384,0,6,,,,,4,,,66,0
101760,note_on,,,,,64,0,9,,,,,7,,,50,30
101888,note_off,,,,,128,0,1,,,,,0,,,74,0
101888,note_off,,,,,128,0,2,,,,,1,,,74,0
101888,note_on,,,,,0,0,2,,,,,1,,,76,92
101888,note_on,,,,,0,0,1,,,,,0,,,76,92
102016,note_off,,,,,128,0,1,,,,,0,,,76,0
102016,note_on,,,,,0,0,1,,,,,0,,,78,92
102016,note_on,,,,,0,0,2,,,,,1,,,78,92
102016,note_off,,,,,128,0,2,,,,,1,,,76,0
102080,note_off,,,,,320,0,9,,,,,7,,,50,0
102080,note_off,,,,,320,0,8,,,,,6,,,38,0
102144,note_off,,,,,384,0,3,,,,,10,,,50,0
102144,note_off,,,,,384,0,7,,,,,5,,,50,0
102144,note_off,,,,,128,0,2,,,,,1,,,78,0
102144,note_on,,,,,0,0,2,,,,,1,,,70,92
102144,note_on,,,,,0,0,1,,,,,0,,,70,92
102144,note_off,,,,,128,0,1,,,,,0,,,78,0
102144,note_off,,,,,384,0,6,,,,,4,,,66,0
102144,note_off,,,,,384,0,5,,,,,3,,,74,0
102144,note_off,,,,,384,0,4,,,,,2,,,78,0
102272,note_off,,,,,128,0,2,,,,,1,,,70,0
102272,note_on,,,,,0,0,2,,,,,1,,,71,92
102272,note_off,,,,,128,0,1,,,,,0,,,70,0
102272,note_on,,,,,0,0,1,,,,,0,,,71,92
102400,note_off,,,,,128,0,2,,,,,1,,,71,0
102400,note_on,,,,,0,0,2,,,,,1,,,73,92
102400,note_off,,,,,128,0,1,,,,,0,,,71,0
102400,note_on,,,,,0,0,1,,,,,0,,,73,92
102528,note_on,,,,,384,0,6,,,,,4,,,67,45
102528,note_on,,,,,384,0,7,,,,,5,,,55,45
102528,note_on,,,,,384,0,4,,,,,2,,,71,60
102528,note_on,,,,,448,0,8,,,,,6,,,43,30
102528,note_on,,,,,0,0,2,,,,,1,,,71,92
102528,note_on,,,,,448,0,9,,,,,7,,,55,30
102528,note_on,,,,,384,0,5,,,,,3,,,71,60
102528,note_on,,,,,0,0,1,,,,,0,,,71,92
102528,note_on,,,,,384,0,3,,,,,10,,,55,45
102528,note_off,,,,,128,0,1,,,,,0,,,73,0
102528,note_off,,,,,128,0,2,,,,,1,,,73,0
102656,note_off,,,,,128,0,1,,,,,0,,,71,0
102656,note_on,,,,,0,0,1,,,,,0,,,73,92
102656,note_off,,,,,128,0,2,,,,,1,,,71,0
102656,note_on,,,,,0,0,2,,,,,1,,,73,92
102784,note_off,,,,,128,0,1,,,,,0,,,73,0
102784,note_off,,,,,128,0,2,,,,,1,,,73,0
102784,note_on,,,,,0,0,2,,,,,1,,,75,92
102784,note_on,,,,,0,0,1,,,,,0,,,75,92
102848,note_off,,,,,320,0,9,,,,,7,,,55,0
102848,note_off,,,,,320,0,8,,,,,6,,,43,0
102912,note_off,,,,,128,0,2,,,,,1,,,75,0
102912,note_on,,,,,0,0,2,,,,,1,,,76,92
102912,note_on,,,,,64,0,8,,,,,6,,,40,30
102912,note_on,,,,,0,0,5,,,,,3,,,71,60
102912,note_on,,,,,0,0,7,,,,,5,,,52,45
102912,note_on,,,,,0,0,6,,,,,4,,,67,45
102912,note_off,,,,,384,0,3,,,,,10,,,55,0
102912,note_on,,,,,0,0,3,,,,,10,,,52,45
102912,note_on,,,,,64,0,9,,,,,7,,,52,30
102912,note_off,,,,,384,0,4,,,,,2,,,71,0
102912,note_on,,,,,0,0,4,,,,,2,,,79,60
102912,note_off,,,,,384,0,6,,,,,4,,,67,0
102912,note_off,,,,,128,0,1,,,,,0,,,75,0
102912,note_off,,,,,384,0,5,,,,,3,,,71,0
102912,note_off,,,,,384,0,7,,,,,5,,,55,0
102912,note_on,,,,,0,0,1,,,,,0,,,76,92
103040,note_off,,,,,128,0,1,,,,,0,,,76,0
103040,note_off,,,,,128,0,2,,,,,1,,,76,0
103040,note_on,,,,,0,0,2,,,,,1,,,78,92
103040,note_on,,,,,0,0,1,,,,,0,,,78,92
103168,note_off,,,,,128,0,1,,,,,0,,,78,0
103168,note_on,,,,,0,0,1,,,,,0,,,80,92
103168,note_on,,,,,0,0,2,,,,,1,,,80,92
103168,note_off,,,,,128,0,2,,,,,1,,,78,0
103232,note_off,,,,,320,0,9,,,,,7,,,52,0
103232,note_off,,,,,320,0,8,,,,,6,,,40,0
103296,note_on,,,,,0,0,2,,,,,1,,,73,92
103296,note_off,,,,,128,0,2,,,,,1,,,80,0
103296,note_off,,,,,384,0,4,,,,,2,,,79,0
103296,note_off,,,,,384,0,7,,,,,5,,,52,0
103296,note_on,,,,,0,0,1,,,,,0,,,73,92
103296,note_off,,,,,384,0,3,,,,,10,,,52,0
103296,note_off,,,,,384,0,6,,,,,4,,,67,0
103296,note_off,,,,,384,0,5,,,,,3,,,71,0
103296,note_off,,,,,128,0,1,,,,,0,,,80,0
103424,note_on,,,,,0,0,2,,,,,1,,,75,92
103424,note_off,,,,,128,0,1,,,,,0,,,73,0
103424,note_on,,,,,0,0,1,,,,,0,,,75,92
103424,note_off,,,,,128,0,2,,,,,1,,,73,0
103552,note_off,,,,,128,0,1,,,,,0,,,75,0
103552,note_on,,,,,0,0,2,,,,,1,,,76,92
103552,note_off,,,,,128,0,2,,,,,1,,,75,0
103552,note_on,,,,,0,0,1,,,,,0,,,76,92
103680,note_on,,,,,384,0,5,,,,,3,,,71,60
103680,note_on,,,,,384,0,6,,,,,4,,,66,45
103680,note_off,,,,,128,0,1,,,,,0,,,76,0
103680,note_on,,,,,384,0,4,,,,,2,,,78,60
103680,note_on,,,,,384,0,7,,,,,5,,,62,45
103680,note_on,,,,,0,0,1,,,,,0,,,78,92
103680,note_on,,,,,384,0,3,,,,,10,,,62,45
103680,note_on,,,,,448,0,8,,,,,6,,,50,30
103680,note_on,,,,,448,0,9,,,,,7,,,62,30
103680,note_on,,,,,0,0,2,,,,,1,,,78,92
103680,note_off,,,,,128,0,2,,,,,1,,,76,0
103808,note_on,,,,,0,0,2,,,,,1,,,80,92
103808,note_on,,,,,0,0,1,,,,,0,,,80,92
103808,note_off,,,,,128,0,2,,,,,1,,,78,0
103808,note_off,,,,,128,0,1,,,,,0,,,78,0
103936,note_off,,,,,128,0,2,,,,,1,,,80,0
103936,note_on,,,,,0,0,2,,,,,1,,,82,92
103936,note_off,,,,,128,0,1,,,,,0,,,80,0
103936,note_on,,,,,0,0,1,,,,,0,,,82,92
104000,note_off,,,,,320,0,9,,,,,7,,,62,0
104000,note_off,,,,,320,0,8,,,,,6,,,50,0
104064,note_off,,,,,128,0,2,,,,,1,,,82,0
104064,note_on,,,,,64,0,9,,,,,7,,,59,30
104064,note_off,,,,,384,0,4,,,,,2,,,78,0
104064,note_off,,,,,384,0,6,,,,,4,,,66,0
104064,note_on,,,,,0,0,2,,,,,1,,,83,92
104064,note_on,,,,,0,0,4,,,,,2,,,83,60
104064,note_on,,,,,0,0,6,,,,,4,,,66,45
104064,note_off,,,,,384,0,5,,,,,3,,,71,0
104064,note_off,,,,,384,0,7,,,,,5,,,62,0
104064,note_on,,,,,64,0,8,,,,,6,,,47,30
104064,note_off,,,,,128,0,1,,,,,0,,,82,0
104064,note_on,,,,,0,0,1,,,,,0,,,83,92
104064,note_on,,,,,0,0,5,,,,,3,,,74,60
104064,note_on,,,,,0,0,3,,,,,10,,,59,45
104064,note_off,,,,,384,0,3,,,,,10,,,62,0
104064,note_on,,,,,0,0,7,,,,,5,,,59,45
104192,note_off,,,,,128,0,2,,,,,1,,,83,0
104192,note_on,,,,,0,0,2,,,,,1,,,85,92
104192,note_off,,,,,128,0,1,,,,,0,,,83,0
104192,note_on,,,,,0,0,1,,,,,0,,,85,92
104320,note_on,,,,,0,0,1,,,,,0,,,86,92
104320,note_on,,,,,0,0,2,,,,,1,,,86,92
104320,note_off,,,,,128,0,2,,,,,1,,,85,0
104320,note_off,,,,,128,0,1,,,,,0,,,85,0
104384,note_off,,,,,320,0,9,,,,,7,,,59,0
104384,note_off,,,,,320,0,8,,,,,6,,,47,0
104448,note_off,,,,,384,0,3,,,,,10,,,59,0
104448,note_on,,,,,0,0,2,,,,,1,,,83,92
104448,note_off,,,,,384,0,6,,,,,4,,,66,0
104448,note_off,,,,,384,0,4,,,,,2,,,83,0
104448,note_on,,,,,0,0,1,,,,,0,,,83,92
104448,note_off,,,,,384,0,5,,,,,3,,,74,0
104448,note_off,,,,,128,0,2,,,,,1,,,86,0
104448,note_off,,,,,128,0,1,,,,,0,,,86,0
104448,note_off,,,,,384,0,7,,,,,5,,,59,0
104576,note_off,,,,,128,0,1,,,,,0,,,83,0
104576,note_off,,,,,128,0,2,,,,,1,,,83,0
104576,note_on,,,,,0,0,2,,,,,1,,,85,92
104576,note_on,,,,,0,0,1,,,,,0,,,85,92
104704,note_on,,,,,0,0,2,,,,,1,,,86,92
104704,note_off,,,,,128,0,1,,,,,0,,,85,0
104704,note_off,,,,,128,0,2,,,,,1,,,85,0
104704,note_on,,,,,0,0,1,,,,,0,,,86,92
104832,note_off,,,,,128,0,2,,,,,1,,,86,0
104832,note_on,,,,,0,0,2,,,,,1,,,76,92
104832,note_on,,,,,448,0,8,,,,,6,,,43,30
104832,note_on,,,,,384,0,5,,,,,3,,,74,60
104832,note_on,,,,,384,0,3,,,,,10,,,55,45
104832,note_on,,,,,384,0,6,,,,,4,,,67,45
104832,note_on,,,,,448,0,9,,,,,7,,,55,30
104832,note_on,,,,,0,0,1,,,,,0,,,76,92
104832,note_off,,,,,128,0,1,,,,,0,,,86,0
104832,note_on,,,,,384,0,7,,,,,5,,,55,45
104832,note_on,,,,,384,0,4,,,,,2,,,76,60
104960,note_off,,,,,128,0,2,,,,,1,,,76,0
104960,note_on,,,,,0,0,2,,,,,1,,,86,92
104960,note_off,,,,,128,0,1,,,,,0,,,76,0
104960,note_on,,,,,0,0,1,,,,,0,,,86,92
105088,note_off,,,,,128,0,1,,,,,0,,,86,0
105088,note_on,,,,,0,0,1,,,,,0,,,85,92
105088,note_off,,,,,128,0,2,,,,,1,,,86,0
105088,note_on,,,,,0,0,2,,,,,1,,,85,92
105152,note_off,,,,,320,0,8,,,,,6,,,43,0
105152,note_off,,,,,320,0,9,,,,,7,,,55,0
105216,note_on,,,,,0,0,4,,,,,2,,,85,60
105216,note_off,,,,,384,0,4,,,,,2,,,76,0
105216,note_on,,,,,64,0,9,,,,,7,,,52,30
105216,note_off,,,,,384,0,7,,,,,5,,,55,0
105216,note_on,,,,,0,0,7,,,,,5,,,52,45
105216,note_off,,,,,384,0,6,,,,,4,,,67,0
105216,note_on,,,,,0,0,6,,,,,4,,,67,45
105216,note_off,,,,,384,0,3,,,,,10,,,55,0
105216,note_on,,,,,0,0,3,,,,,10,,,52,45
105216,note_on,,,,,0,0,5,,,,,3,,,73,60
105216,note_on,,,,,64,0,8,,,,,6,,,40,30
105216,note_off,,,,,128,0,1,,,,,0,,,85,0
105216,note_on,,,,,0,0,2,,,,,1,,,76,92
105216,note_off,,,,,128,0,2,,,,,1,,,85,0
105216,note_on,,,,,0,0,1,,,,,0,,,76,92
105216,note_off,,,,,384,0,5,,,,,3,,,74,0
105344,note_off,,,,,128,0,1,,,,,0,,,76,0
105344,note_on,,,,,0,0,1,,,,,0,,,86,92
105344,note_on,,,,,0,0,2,,,,,1,,,86,92
105344,note_off,,,,,128,0,2,,,,,1,,,76,0
105472,note_off,,,,,128,0,1,,,,,0,,,86,0
105472,note_off,,,,,128,0,2,,,,,1,,,86,0
105472,note_on,,,,,0,0,2,,,,,1,,,85,92
105472,note_on,,,,,0,0,1,,,,,0,,,85,92
105536,note_off,,,,,320,0,8,,,,,6,,,40,0
105536,note_off,,,,,320,0,9,,,,,7,,,52,0
105600,note_off,,,,,384,0,5,,,,,3,,,73,0
105600,note_on,,,,,64,0,8,,,,,6,,,43,30
105600,note_off,,,,,128,0,2,,,,,1,,,85,0
105600,note_on,,,,,0,0,2,,,,,1,,,83,92
105600,note_off,,,,,384,0,7,,,,,5,,,52,0
105600,note_on,,,,,0,0,7,,,,,5,,,55,45
105600,note_on,,,,,0,0,5,,,,,3,,,73,60
105600,note_off,,,,,384,0,3,,,,,10,,,52,0
105600,note_on,,,,,0,0,3,,,,,10,,,55,45
105600,note_on,,,,,0,0,4,,,,,2,,,76,60
105600,note_off,,,,,128,0,1,,,,,0,,,85,0
105600,note_on,,,,,0,0,1,,,,,0,,,83,92
105600,note_off,,,,,384,0,4,,,,,2,,,85,0
105600,note_on,,,,,64,0,9,,,,,7,,,55,30
105600,note_on,,,,,0,0,6,,,,,4,,,67,45
105600,note_off,,,,,384,0,6,,,,,4,,,67,0
105792,note_on,,,,,0,0,1,,,,,0,,,82,92
105792,note_on,,,,,0,0,2,,,,,1,,,82,92
105792,note_off,,,,,192,0,2,,,,,1,,,83,0
105792,note_off,,,,,192,0,1,,,,,0,,,83,0
105856,note_off,,,,,64,0,2,,,,,1,,,82,0
105856,note_on,,,,,0,0,2,,,,,1,,,83,92
105856,note_on,,,,,0,0,1,,,,,0,,,83,92
105856,note_off,,,,,64,0,1,,,,,0,,,82,0
105920,note_off,,,,,320,0,9,,,,,7,,,55,0
105920,note_off,,,,,320,0,8,,,,,6,,,43,0
105984,note_on,,,,,64,0,8,,,,,6,,,42,30
105984,note_off,,,,,128,0,2,,,,,1,,,83,0
105984,note_on,,,,,0,0,3,,,,,10,,,54,45
105984,note_off,,,,,384,0,3,,,,,10,,,55,0
105984,note_on,,,,,0,0,2,,,,,1,,,82,92
105984,note_on,,,,,0,0,4,,,,,2,,,82,60
105984,note_on,,,,,0,0,7,,,,,5,,,54,45
105984,note_off,,,,,384,0,6,,,,,4,,,67,0
105984,note_off,,,,,384,0,4,,,,,2,,,76,0
105984,note_off,,,,,384,0,7,,,,,5,,,55,0
105984,note_off,,,,,128,0,1,,,,,0,,,83,0
105984,note_on,,,,,0,0,1,,,,,0,,,82,92
105984,note_on,,,,,64,0,9,,,,,7,,,54,30
105984,note_off,,,,,384,0,5,,,,,3,,,73,0
105984,note_on,,,,,0,0,5,,,,,3,,,82,60
105984,note_on,,,,,0,0,6,,,,,4,,,61,45
106304,note_off,,,,,320,0,8,,,,,6,,,42,0
106304,note_off,,,,,320,0,9,,,,,7,,,54,0
106368,note_off,,,,,384,0,1,,,,,0,,,82,0
106368,note_on,,,,,0,0,1,,,,,0,,,86,92
106368,note_on,,,,,0,0,5,,,,,3,,,78,108
106368,note_off,,,,,384,0,5,,,,,3,,,82,0
106368,note_on,,,,,0,0,2,,,,,1,,,78,92
106368,note_off,,,,,384,0,3,,,,,10,,,54,0
106368,note_off,,,,,384,0,6,,,,,4,,,61,0
106368,note_off,,,,,384,0,4,,,,,2,,,82,0
106368,note_on,,,,,0,0,4,,,,,2,,,86,108
106368,note_off,,,,,384,0,2,,,,,1,,,82,0
106368,note_off,,,,,384,0,7,,,,,5,,,54,0
106752,note_on,,,,,0,0,2,,,,,1,,,76,92
106752,note_off,,,,,384,0,2,,,,,1,,,78,0
106752,note_on,,,,,0,0,5,,,,,3,,,76,108
106752,note_off,,,,,384,0,5,,,,,3,,,78,0
106752,note_off,,,,,384,0,4,,,,,2,,,86,0
106752,note_on,,,,,0,0,1,,,,,0,,,85,92
106752,note_on,,,,,0,0,4,,,,,2,,,85,108
106752,note_off,,,,,384,0,1,,,,,0,,,86,0
107136,note_on,,,,,0,0,4,,,,,2,,,83,108
107136,note_on,,,,,0,0,5,,,,,3,,,74,108
107136,note_off,,,,,384,0,5,,,,,3,,,76,0
107136,note_on,,,,,0,0,2,,,,,1,,,74,92
107136,note_off,,,,,384,0,2,,,,,1,,,76,0
107136,note_off,,,,,384,0,4,,,,,2,,,85,0
107136,note_off,,,,,384,0,1,,,,,0,,,85,0
107136,note_on,,,,,0,0,1,,,,,0,,,83,92
107520,note_on,,,,,1152,0,3,,,,,10,,,55,92
107520,note_on,,,,,1152,0,7,,,,,5,,,55,92
107520,note_on,,,,,1216,0,9,,,,,7,,,55,45
107520,note_on,,,,,0,0,1,,,,,0,,,82,92
107520,note_off,,,,,384,0,2,,,,,1,,,74,0
107520,note_off,,,,,384,0,1,,,,,0,,,83,0
107520,note_on,,,,,0,0,5,,,,,3,,,73,108
107520,note_on,,,,,1216,0,8,,,,,6,,,43,75
107520,note_on,,,,,0,0,2,,,,,1,,,73,92
107520,note_off,,,,,384,0,4,,,,,2,,,83,0
107520,note_on,,,,,0,0,4,,,,,2,,,82,108
107520,note_off,,,,,384,0,5,,,,,3,,,74,0
107520,note_on,,,,,1152,0,6,,,,,4,,,64,92
107840,note_off,,,,,320,0,8,,,,,6,,,43,0
107840,note_off,,,,,320,0,9,,,,,7,,,55,0
107904,note_off,,,,,384,0,3,,,,,10,,,55,0
107904,note_off,,,,,384,0,7,,,,,5,,,55,0
107904,note_on,,,,,0,0,1,,,,,0,,,83,92
107904,note_on,,,,,0,0,7,,,,,5,,,54,92
107904,note_off,,,,,384,0,1,,,,,0,,,82,0
107904,note_on,,,,,0,0,3,,,,,10,,,54,92
107904,note_off,,,,,384,0,2,,,,,1,,,73,0
107904,note_on,,,,,64,0,8,,,,,6,,,42,75
107904,note_off,,,,,384,0,6,,,,,4,,,64,0
107904,note_on,,,,,0,0,6,,,,,4,,,62,92
107904,note_on,,,,,0,0,4,,,,,2,,,83,108
107904,note_off,,,,,384,0,4,,,,,2,,,82,0
107904,note_off,,,,,384,0,5,,,,,3,,,73,0
107904,note_on,,,,,64,0,9,,,,,7,,,54,45
107904,note_on,,,,,0,0,5,,,,,3,,,74,108
107904,note_on,,,,,0,0,2,,,,,1,,,74,92
108224,note_off,,,,,320,0,8,,,,,6,,,42,0
108224,note_off,,,,,320,0,9,,,,,7,,,54,0
108288,note_off,,,,,384,0,2,,,,,1,,,74,0
108288,note_on,,,,,0,0,2,,,,,1,,,76,92
108288,note_off,,,,,384,0,1,,,,,0,,,83,0
108288,note_on,,,,,0,0,1,,,,,0,,,85,92
108288,note_on,,,,,0,0,6,,,,,4,,,67,92
108288,note_on,,,,,0,0,4,,,,,2,,,85,108
108288,note_off,,,,,384,0,6,,,,,4,,,62,0
108288,note_on,,,,,64,0,9,,,,,7,,,52,45
108288,note_off,,,,,384,0,7,,,,,5,,,54,0
108288,note_off,,,,,384,0,4,,,,,2,,,83,0
108288,note_on,,,,,64,0,8,,,,,6,,,40,75
108288,note_on,,,,,0,0,7,,,,,5,,,52,92
108288,note_on,,,,,0,0,5,,,,,3,,,76,108
108288,note_off,,,,,384,0,5,,,,,3,,,74,0
108288,note_off,,,,,384,0,3,,,,,10,,,54,0
108288,note_on,,,,,0,0,3,,,,,10,,,52,92
108608,note_off,,,,,320,0,9,,,,,7,,,52,0
108608,note_off,,,,,320,0,8,,,,,6,,,40,0
108672,note_off,,,,,384,0,5,,,,,3,,,76,0
108672,note_on,,,,,0,0,2,,,,,1,,,76,92
108672,note_on,,,,,0,0,5,,,,,3,,,76,108
108672,note_off,,,,,384,0,3,,,,,10,,,52,0
108672,note_on,,,,,64,0,8,,,,,6,,,38,75
108672,note_on,,,,,0,0,4,,,,,2,,,85,108
108672,note_on,,,,,0,0,1,,,,,0,,,85,92
108672,note_off,,,,,384,0,1,,,,,0,,,85,0
108672,note_off,,,,,384,0,6,,,,,4,,,67,0
108672,note_on,,,,,0,0,6,,,,,4,,,66,92
108672,note_on,,,,,0,0,7,,,,,5,,,50,92
108672,note_off,,,,,384,0,4,,,,,2,,,85,0
108672,note_on,,,,,64,0,9,,,,,7,,,50,45
108672,note_off,,,,,384,0,7,,,,,5,,,52,0
108672,note_off,,,,,384,0,2,,,,,1,,,76,0
108672,note_on,,,,,0,0,3,,,,,10,,,50,92
108992,note_off,,,,,320,0,8,,,,,6,,,38,0
108992,note_off,,,,,320,0,9,,,,,7,,,50,0
109056,note_on,,,,,0,0,5,,,,,3,,,74,108
109056,note_off,,,,,384,0,5,,,,,3,,,76,0
109056,note_off,,,,,384,0,6,,,,,4,,,66,0
109056,note_on,,,,,0,0,6,,,,,4,,,67,92
109056,note_on,,,,,0,0,2,,,,,1,,,74,92
109056,note_off,,,,,384,0,2,,,,,1,,,76,0
109056,note_on,,,,,64,0,9,,,,,7,,,52,45
109056,note_off,,,,,384,0,1,,,,,0,,,85,0
109056,note_on,,,,,0,0,1,,,,,0,,,83,92
109056,note_off,,,,,384,0,3,,,,,10,,,50,0
109056,note_on,,,,,0,0,7,,,,,5,,,52,92
109056,note_on,,,,,0,0,3,,,,,10,,,52,92
109056,note_off,,,,,384,0,7,,,,,5,,,50,0
109056,note_on,,,,,0,0,4,,,,,2,,,83,108
109056,note_off,,,,,384,0,4,,,,,2,,,85,0
109056,note_on,,,,,64,0,8,,,,,6,,,40,75
109376,note_off,,,,,320,0,9,,,,,7,,,52,0
109376,note_off,,,,,320,0,8,,,,,6,,,40,0
109440,note_off,,,,,384,0,1,,,,,0,,,83,0
109440,note_on,,,,,0,0,1,,,,,0,,,82,92
109440,note_on,,,,,0,0,4,,,,,2,,,82,108
109440,note_off,,,,,384,0,4,,,,,2,,,83,0
109440,note_on,,,,,64,0,8,,,,,6,,,42,75
109440,note_off,,,,,384,0,2,,,,,1,,,74,0
109440,note_on,,,,,0,0,2,,,,,1,,,73,92
109440,note_on,,,,,64,0,9,,,,,7,,,54,45
109440,note_off,,,,,384,0,6,,,,,4,,,67,0
109440,note_on,,,,,0,0,6,,,,,4,,,61,92
109440,note_on,,,,,0,0,5,,,,,3,,,73,108
109440,note_off,,,,,384,0,5,,,,,3,,,74,0
109440,note_on,,,,,0,0,3,,,,,10,,,54,92
109440,note_off,,,,,384,0,3,,,,,10,,,52,0
109440,note_on,,,,,0,0,7,,,,,5,,,54,92
109440,note_off,,,,,384,0,7,,,,,5,,,52,0
109760,note_off,,,,,320,0,9,,,,,7,,,54,0
109760,note_off,,,,,320,0,8,,,,,6,,,42,0
109824,note_on,,,,,0,0,3,,,,,10,,,59,92
109824,note_off,,,,,384,0,4,,,,,2,,,82,0
109824,note_on,,,,,0,0,4,,,,,2,,,78,108
109824,note_off,,,,,384,0,3,,,,,10,,,54,0
109824,note_off,,,,,384,0,7,,,,,5,,,54,0
109824,note_on,,,,,0,0,2,,,,,1,,,74,92
109824,note_on,,,,,0,0,7,,,,,5,,,59,92
109824,note_off,,,,,384,0,1,,,,,0,,,82,0
109824,note_on,,,,,0,0,1,,,,,0,,,78,92
109824,note_on,,,,,64,0,9,,,,,7,,,59,45
109824,note_on,,,,,0,0,5,,,,,3,,,74,108
109824,note_off,,,,,384,0,6,,,,,4,,,61,0
109824,note_off,,,,,384,0,5,,,,,3,,,73,0
109824,note_off,,,,,384,0,2,,,,,1,,,73,0
109824,note_on,,,,,64,0,8,,,,,6,,,47,75
109824,note_on,,,,,0,0,6,,,,,4,,,71,92
110016,note_off,,,,,192,0,5,,,,,3,,,74,0
110016,note_on,,,,,0,0,5,,,,,3,,,73,108
110016,note_on,,,,,0,0,2,,,,,1,,,73,92
110016,note_off,,,,,192,0,2,,,,,1,,,74,0
110144,note_off,,,,,320,0,8,,,,,6,,,47,0
110144,note_off,,,,,320,0,9,,,,,7,,,59,0
110208,note_on,,,,,64,0,9,,,,,7,,,55,45
110208,note_on,,,,,0,0,5,,,,,3,,,71,108
110208,note_on,,,,,0,0,6,,,,,4,,,62,92
110208,note_off,,,,,384,0,7,,,,,5,,,59,0
110208,note_off,,,,,384,0,3,,,,,10,,,59,0
110208,note_off,,,,,192,0,5,,,,,3,,,73,0
110208,note_on,,,,,64,0,8,,,,,6,,,43,75
110208,note_off,,,,,384,0,4,,,,,2,,,78,0
110208,note_on,,,,,0,0,4,,,,,2,,,83,108
110208,note_off,,,,,384,0,6,,,,,4,,,71,0
110208,note_on,,,,,0,0,3,,,,,10,,,55,92
110208,note_on,,,,,0,0,7,,,,,5,,,55,92
110208,note_on,,,,,0,0,1,,,,,0,,,83,92
110208,note_off,,,,,384,0,1,,,,,0,,,78,0
110208,note_off,,,,,192,0,2,,,,,1,,,73,0
110208,note_on,,,,,0,0,2,,,,,1,,,71,92
110528,note_off,,,,,320,0,9,,,,,7,,,55,0
110528,note_off,,,,,320,0,8,,,,,6,,,43,0
110592,note_off,,,,,384,0,7,,,,,5,,,55,0
110592,note_on,,,,,0,0,3,,,,,10,,,52,92
110592,note_off,,,,,384,0,3,,,,,10,,,55,0
110592,note_on,,,,,64,0,9,,,,,7,,,52,45
110592,note_off,,,,,384,0,6,,,,,4,,,62,0
110592,note_on,,,,,0,0,6,,,,,4,,,67,92
110592,note_off,,,,,384,0,5,,,,,3,,,71,0
110592,note_on,,,,,0,0,2,,,,,1,,,83,92
110592,note_off,,,,,384,0,2,,,,,1,,,71,0
110592,note_on,,,,,0,0,5,,,,,3,,,83,108
110592,note_on,,,,,0,0,7,,,,,5,,,52,92
110592,note_on,,,,,64,0,8,,,,,6,,,40,75
110784,note_off,,,,,576,0,4,,,,,2,,,83,0
110784,note_on,,,,,0,0,1,,,,,0,,,85,92
110784,note_off,,,,,576,0,1,,,,,0,,,83,0
110784,note_on,,,,,0,0,4,,,,,2,,,85,108
110912,note_off,,,,,320,0,8,,,,,6,,,40,0
110912,note_off,,,,,320,0,9,,,,,7,,,52,0
110976,note_off,,,,,384,0,7,,,,,5,,,52,0
110976,note_on,,,,,0,0,1,,,,,0,,,86,92
110976,note_off,,,,,192,0,1,,,,,0,,,85,0
110976,note_on,,,,,0,0,7,,,,,5,,,54,92
110976,note_on,,,,,0,0,4,,,,,2,,,86,108
110976,note_off,,,,,192,0,4,,,,,2,,,85,0
110976,note_on,,,,,0,0,6,,,,,4,,,66,92
110976,note_on,,,,,64,0,9,,,,,7,,,54,45
110976,note_on,,,,,0,0,5,,,,,3,,,83,108
110976,note_off,,,,,384,0,5,,,,,3,,,83,0
110976,note_off,,,,,384,0,3,,,,,10,,,52,0
110976,note_on,,,,,0,0,2,,,,,1,,,83,92
110976,note_off,,,,,384,0,2,,,,,1,,,83,0
110976,note_on,,,,,64,0,8,,,,,6,,,42,75
110976,note_off,,,,,384,0,6,,,,,4,,,67,0
110976,note_on,,,,,0,0,3,,,,,10,,,54,92
111024,note_off,,,,,48,0,4,,,,,2,,,86,0
111024,note_off,,,,,48,0,1,,,,,0,,,86,0
111024,note_on,,,,,0,0,4,,,,,2,,,85,108
111024,note_on,,,,,0,0,1,,,,,0,,,85,92
111072,note_off,,,,,48,0,1,,,,,0,,,85,0
111072,note_on,,,,,0,0,1,,,,,0,,,86,92
111072,note_off,,,,,48,0,4,,,,,2,,,85,0
111072,note_on,,,,,0,0,4,,,,,2,,,86,108
111120,note_off,,,,,48,0,1,,,,,0,,,86,0
111120,note_on,,,,,0,0,1,,,,,0,,,85,92
111120,note_off,,,,,48,0,4,,,,,2,,,86,0
111120,note_on,,,,,0,0,4,,,,,2,,,85,108
111168,note_on,,,,,0,0,1,,,,,0,,,86,92
111168,note_off,,,,,48,0,4,,,,,2,,,85,0
111168,note_on,,,,,0,0,4,,,,,2,,,86,108
111168,note_off,,,,,48,0,1,,,,,0,,,85,0
111216,note_off,,,,,48,0,4,,,,,2,,,86,0
111216,note_on,,,,,0,0,4,,,,,2,,,85,108
111216,note_on,,,,,0,0,1,,,,,0,,,85,92
111216,note_off,,,,,48,0,1,,,,,0,,,86,0
111264,note_on,,,,,0,0,1,,,,,0,,,86,92
111264,note_off,,,,,48,0,1,,,,,0,,,85,0
111264,note_off,,,,,48,0,4,,,,,2,,,85,0
111264,note_on,,,,,0,0,4,,,,,2,,,86,108
111296,note_off,,,,,320,0,8,,,,,6,,,42,0
111296,note_off,,,,,320,0,9,,,,,7,,,54,0
111312,note_off,,,,,48,0,1,,,,,0,,,86,0
111312,note_on,,,,,0,0,4,,,,,2,,,85,108
111312,note_on,,,,,0,0,1,,,,,0,,,85,92
111312,note_off,,,,,48,0,4,,,,,2,,,86,0
111360,note_off,,,,,48,0,1,,,,,0,,,85,0
111360,note_on,,,,,64,0,8,,,,,6,,,30,75
111360,note_off,,,,,384,0,2,,,,,1,,,83,0
111360,note_on,,,,,0,0,2,,,,,1,,,82,92
111360,note_on,,,,,0,0,6,,,,,4,,,66,92
111360,note_on,,,,,64,0,9,,,,,7,,,42,45
111360,note_off,,,,,384,0,5,,,,,3,,,83,0
111360,note_on,,,,,0,0,5,,,,,3,,,82,108
111360,note_on,,,,,0,0,1,,,,,0,,,86,92
111360,note_off,,,,,384,0,6,,,,,4,,,66,0
111360,note_off,,,,,48,0,4,,,,,2,,,85,0
111360,note_on,,,,,0,0,4,,,,,2,,,86,108
111360,note_off,,,,,384,0,7,,,,,5,,,54,0
111360,note_on,,,,,0,0,3,,,,,10,,,42,92
111360,note_on,,,,,0,0,7,,,,,5,,,42,92
111360,note_off,,,,,384,0,3,,,,,10,,,54,0
111408,note_off,,,,,48,0,4,,,,,2,,,86,0
111408,note_on,,,,,0,0,4,,,,,2,,,85,108
111408,note_off,,,,,48,0,1,,,,,0,,,86,0
111408,note_on,,,,,0,0,1,,,,,0,,,85,92
111552,note_off,,,,,144,0,4,,,,,2,,,85,0
111552,note_on,,,,,0,0,4,,,,,2,,,83,108
111552,note_on,,,,,0,0,1,,,,,0,,,83,92
111552,note_off,,,,,144,0,1,,,,,0,,,85,0
111680,note_off,,,,,320,0,9,,,,,7,,,42,0
111680,note_off,,,,,320,0,8,,,,,6,,,30,0
111744,note_off,,,,,384,0,6,,,,,4,,,66,0
111744,note_on,,,,,0,0,3,,,,,10,,,47,92
111744,note_on,,,,,64,0,9,,,,,7,,,47,45
111744,note_off,,,,,384,0,7,,,,,5,,,42,0
111744,note_off,,,,,384,0,3,,,,,10,,,42,0
111744,note_off,,,,,192,0,1,,,,,0,,,83,0
111744,note_on,,,,,0,0,2,,,,,1,,,83,92
111744,note_off,,,,,384,0,2,,,,,1,,,82,0
111744,note_off,,,,,384,0,5,,,,,3,,,82,0
111744,note_on,,,,,0,0,5,,,,,3,,,83,108
111744,note_on,,,,,0,0,7,,,,,5,,,47,92
111744,note_on,,,,,0,0,4,,,,,2,,,83,108
111744,note_off,,,,,192,0,4,,,,,2,,,83,0
111744,note_on,,,,,64,0,8,,,,,6,,,35,75
111744,note_on,,,,,0,0,1,,,,,0,,,83,92
111744,note_on,,,,,0,0,6,,,,,4,,,62,92
111868,note_off,,,,,124,0,1,,,,,0,,,83,0
111872,note_on,,,,,4,0,1,,,,,0,,,86,92
111996,note_off,,,,,124,0,1,,,,,0,,,86,0
112000,note_on,,,,,4,0,1,,,,,0,,,85,92
112064,note_off,,,,,320,0,8,,,,,6,,,35,0
112064,note_off,,,,,320,0,9,,,,,7,,,47,0
112124,note_off,,,,,124,0,1,,,,,0,,,85,0
112128,note_off,,,,,384,0,6,,,,,4,,,62,0
112128,note_off,,,,,384,0,4,,,,,2,,,83,0
112128,note_off,,,,,384,0,5,,,,,3,,,83,0
112128,note_off,,,,,384,0,3,,,,,10,,,47,0
112128,note_off,,,,,384,0,7,,,,,5,,,47,0
112128,note_off,,,,,384,0,2,,,,,1,,,83,0
112128,note_on,,,,,4,0,1,,,,,0,,,83,92
112252,note_off,,,,,124,0,1,,,,,0,,,83,0
112256,note_on,,,,,4,0,1,,,,,0,,,85,92
112380,note_off,,,,,124,0,1,,,,,0,,,85,0
112384,note_on,,,,,4,0,1,,,,,0,,,86,92
112508,note_off,,,,,124,0,1,,,,,0,,,86,0
112512,note_on,,,,,4,0,1,,,,,0,,,83,92
112636,note_off,,,,,124,0,1,,,,,0,,,83,0
112640,note_on,,,,,4,0,1,,,,,0,,,85,92
112764,note_off,,,,,124,0,1,,,,,0,,,85,0
112768,note_on,,,,,4,0,1,,,,,0,,,86,92
112892,note_off,,,,,124,0,1,,,,,0,,,86,0
112896,note_on,,,,,768,0,5,,,,,3,,,77,60
112896,note_on,,,,,832,0,8,,,,,6,,,35,30
112896,note_on,,,,,768,0,2,,,,,1,,,73,45
112896,note_on,,,,,768,0,6,,,,,4,,,68,45
112896,note_on,,,,,768,0,7,,,,,5,,,47,45
112896,note_on,,,,,4,0,1,,,,,0,,,80,92
112896,note_on,,,,,832,0,9,,,,,7,,,47,30
112896,note_on,,,,,768,0,3,,,,,10,,,47,45
112896,note_on,,,,,768,0,4,,,,,2,,,73,60
113020,note_off,,,,,124,0,1,,,,,0,,,80,0
113024,note_on,,,,,4,0,1,,,,,0,,,83,92
113148,note_off,,,,,124,0,1,,,,,0,,,83,0
113152,note_on,,,,,4,0,1,,,,,0,,,81,92
113216,note_off,,,,,320,0,8,,,,,6,,,35,0
113216,note_off,,,,,320,0,9,,,,,7,,,47,0
113276,note_off,,,,,124,0,1,,,,,0,,,81,0
113280,note_off,,,,,384,0,3,,,,,10,,,47,0
113280,note_off,,,,,384,0,5,,,,,3,,,77,0
113280,note_off,,,,,384,0,7,,,,,5,,,47,0
113280,note_off,,,,,384,0,4,,,,,2,,,73,0
113280,note_on,,,,,4,0,1,,,,,0,,,80,92
113280,note_off,,,,,384,0,2,,,,,1,,,73,0
113280,note_off,,,,,384,0,6,,,,,4,,,68,0
113404,note_off,,,,,124,0,1,,,,,0,,,80,0
113408,note_on,,,,,4,0,1,,,,,0,,,81,92
113532,note_off,,,,,124,0,1,,,,,0,,,81,0
113536,note_on,,,,,4,0,1,,,,,0,,,83,92
113660,note_off,,,,,124,0,1,,,,,0,,,83,0
113664,note_on,,,,,4,0,1,,,,,0,,,80,92
113788,note_off,,,,,124,0,1,,,,,0,,,80,0
113792,note_on,,,,,4,0,1,,,,,0,,,81,92
113916,note_off,,,,,124,0,1,,,,,0,,,81,0
113920,note_on,,,,,4,0,1,,,,,0,,,83,92
114044,note_off,,,,,124,0,1,,,,,0,,,83,0
114048,note_on,,,,,768,0,7,,,,,5,,,47,45
114048,note_on,,,,,768,0,2,,,,,1,,,73,45
114048,note_on,,,,,832,0,9,,,,,7,,,47,30
114048,note_on,,,,,768,0,4,,,,,2,,,73,60
114048,note_on,,,,,768,0,3,,,,,10,,,47,45
114048,note_on,,,,,768,0,5,,,,,3,,,68,60
114048,note_on,,,,,4,0,1,,,,,0,,,77,92
114048,note_on,,,,,768,0,6,,,,,4,,,65,45
114048,note_on,,,,,832,0,8,,,,,6,,,35,30
114172,note_off,,,,,124,0,1,,,,,0,,,77,0
114176,note_on,,,,,4,0,1,,,,,0,,,85,92
114300,note_off,,,,,124,0,1,,,,,0,,,85,0
114304,note_on,,,,,4,0,1,,,,,0,,,85,92
114368,note_off,,,,,320,0,9,,,,,7,,,47,0
114368,note_off,,,,,320,0,8,,,,,6,,,35,0
114428,note_off,,,,,124,0,1,,,,,0,,,85,0
114432,note_off,,,,,384,0,5,,,,,3,,,68,0
114432,note_off,,,,,384,0,7,,,,,5,,,47,0
114432,note_off,,,,,384,0,2,,,,,1,,,73,0
114432,note_off,,,,,384,0,4,,,,,2,,,73,0
114432,note_off,,,,,384,0,6,,,,,4,,,65,0
114432,note_on,,,,,4,0,1,,,,,0,,,77,92
114432,note_off,,,,,384,0,3,,,,,10,,,47,0
114556,note_off,,,,,124,0,1,,,,,0,,,77,0
114560,note_on,,,,,4,0,1,,,,,0,,,85,92
114684,note_off,,,,,124,0,1,,,,,0,,,85,0
114688,note_on,,,,,4,0,1,,,,,0,,,85,92
114812,note_off,,,,,124,0,1,,,,,0,,,85,0
114816,note_on,,,,,4,0,1,,,,,0,,,77,92
114940,note_off,,,,,124,0,1,,,,,0,,,77,0
114944,note_on,,,,,4,0,1,,,,,0,,,85,92
115068,note_off,,,,,124,0,1,,,,,0,,,85,0
115072,note_on,,,,,4,0,1,,,,,0,,,85,92
115196,note_off,,,,,124,0,1,,,,,0,,,85,0
115200,note_on,,,,,4,0,1,,,,,0,,,78,92
115200,note_on,,,,,768,0,2,,,,,1,,,73,45
115200,note_on,,,,,768,0,7,,,,,5,,,45,45
115200,note_on,,,,,832,0,9,,,,,7,,,45,30
115200,note_on,,,,,768,0,3,,,,,10,,,45,45
115200,note_on,,,,,768,0,4,,,,,2,,,73,60
115200,note_on,,,,,768,0,5,,,,,3,,,69,60
115200,note_on,,,,,832,0,8,,,,,6,,,33,30
115200,note_on,,,,,768,0,6,,,,,4,,,66,45
115324,note_off,,,,,124,0,1,,,,,0,,,78,0
115328,note_on,,,,,4,0,1,,,,,0,,,81,92
115452,note_off,,,,,124,0,1,,,,,0,,,81,0
115456,note_on,,,,,4,0,1,,,,,0,,,78,92
115520,note_off,,,,,320,0,9,,,,,7,,,45,0
115520,note_off,,,,,320,0,8,,,,,6,,,33,0
115580,note_off,,,,,124,0,1,,,,,0,,,78,0
115584,note_off,,,,,384,0,4,,,,,2,,,73,0
115584,note_off,,,,,384,0,5,,,,,3,,,69,0
115584,note_off,,,,,384,0,3,,,,,10,,,45,0
115584,note_on,,,,,4,0,1,,,,,0,,,69,92
115584,note_off,,,,,384,0,7,,,,,5,,,45,0
115584,note_off,,,,,384,0,2,,,,,1,,,73,0
115584,note_off,,,,,384,0,6,,,,,4,,,66,0
115708,note_off,,,,,124,0,1,,,,,0,,,69,0
115712,note_on,,,,,4,0,1,,,,,0,,,78,92
115836,note_off,,,,,124,0,1,,,,,0,,,78,0
115840,note_on,,,,,4,0,1,,,,,0,,,81,92
115964,note_off,,,,,124,0,1,,,,,0,,,81,0
115968,note_on,,,,,4,0,1,,,,,0,,,78,92
116092,note_off,,,,,124,0,1,,,,,0,,,78,0
116096,note_on,,,,,4,0,1,,,,,0,,,73,92
116220,note_off,,,,,124,0,1,,,,,0,,,73,0
116224,note_on,,,,,4,0,1,,,,,0,,,69,92
116348,note_off,,,,,124,0,1,,,,,0,,,69,0
116352,note_on,,,,,768,0,5,,,,,3,,,69,60
116352,note_on,,,,,832,0,9,,,,,7,,,45,30
116352,note_on,,,,,768,0,3,,,,,10,,,45,45
116352,note_on,,,,,768,0,4,,,,,2,,,73,60
116352,note_on,,,,,768,0,6,,,,,4,,,66,45
116352,note_on,,,,,768,0,7,,,,,5,,,45,45
116352,note_on,,,,,832,0,8,,,,,6,,,33,30
116352,note_on,,,,,4,0,1,,,,,0,,,66,92
116352,note_on,,,,,768,0,2,,,,,1,,,73,45
116476,note_off,,,,,124,0,1,,,,,0,,,66,0
116480,note_on,,,,,4,0,1,,,,,0,,,69,92
116604,note_off,,,,,124,0,1,,,,,0,,,69,0
116608,note_on,,,,,4,0,1,,,,,0,,,73,92
116672,note_off,,,,,320,0,9,,,,,7,,,45,0
116672,note_off,,,,,320,0,8,,,,,6,,,33,0
116732,note_off,,,,,124,0,1,,,,,0,,,73,0
116736,note_off,,,,,384,0,6,,,,,4,,,66,0
116736,note_off,,,,,384,0,5,,,,,3,,,69,0
116736,note_off,,,,,384,0,3,,,,,10,,,45,0
116736,note_off,,,,,384,0,4,,,,,2,,,73,0
116736,note_off,,,,,384,0,2,,,,,1,,,73,0
116736,note_off,,,,,384,0,7,,,,,5,,,45,0
116736,note_on,,,,,4,0,1,,,,,0,,,69,92
116860,note_off,,,,,124,0,1,,,,,0,,,69,0
116864,note_on,,,,,4,0,1,,,,,0,,,73,92
116988,note_off,,,,,124,0,1,,,,,0,,,73,0
116992,note_on,,,,,4,0,1,,,,,0,,,78,92
117116,note_off,,,,,124,0,1,,,,,0,,,78,0
117120,note_on,,,,,4,0,1,,,,,0,,,73,92
117244,note_off,,,,,124,0,1,,,,,0,,,73,0
117248,note_on,,,,,4,0,1,,,,,0,,,78,92
117372,note_off,,,,,124,0,1,,,,,0,,,78,0
117376,note_on,,,,,4,0,1,,,,,0,,,81,92
117500,note_off,,,,,124,0,1,,,,,0,,,81,0
117504,note_on,,,,,768,0,4,,,,,2,,,75,60
117504,note_on,,,,,832,0,8,,,,,6,,,33,30
117504,note_on,,,,,832,0,9,,,,,7,,,45,30
117504,note_on,,,,,768,0,3,,,,,10,,,45,45
117504,note_on,,,,,768,0,5,,,,,3,,,71,60
117504,note_on,,,,,768,0,7,,,,,5,,,45,45
117504,note_on,,,,,768,0,6,,,,,4,,,66,45
117504,note_on,,,,,768,0,2,,,,,1,,,75,45
117504,note_on,,,,,4,0,1,,,,,0,,,63,92
117628,note_off,,,,,124,0,1,,,,,0,,,63,0
117632,note_on,,,,,4,0,1,,,,,0,,,66,92
117756,note_off,,,,,124,0,1,,,,,0,,,66,0
117760,note_on,,,,,4,0,1,,,,,0,,,71,92
117824,note_off,,,,,320,0,8,,,,,6,,,33,0
117824,note_off,,,,,320,0,9,,,,,7,,,45,0
117884,note_off,,,,,124,0,1,,,,,0,,,71,0
117888,note_off,,,,,384,0,3,,,,,10,,,45,0
117888,note_off,,,,,384,0,5,,,,,3,,,71,0
117888,note_off,,,,,384,0,4,,,,,2,,,75,0
117888,note_off,,,,,384,0,7,,,,,5,,,45,0
117888,note_off,,,,,384,0,6,,,,,4,,,66,0
117888,note_off,,,,,384,0,2,,,,,1,,,75,0
117888,note_on,,,,,4,0,1,,,,,0,,,66,92
118012,note_off,,,,,124,0,1,,,,,0,,,66,0
118016,note_on,,,,,4,0,1,,,,,0,,,71,92
118140,note_off,,,,,124,0,1,,,,,0,,,71,0
118144,note_on,,,,,4,0,1,,,,,0,,,75,92
118268,note_off,,,,,124,0,1,,,,,0,,,75,0
118272,note_on,,,,,4,0,1,,,,,0,,,71,92
118396,note_off,,,,,124,0,1,,,,,0,,,71,0
118400,note_on,,,,,4,0,1,,,,,0,,,75,92
118524,note_off,,,,,124,0,1,,,,,0,,,75,0
118528,note_on,,,,,4,0,1,,,,,0,,,78,92
118652,note_off,,,,,124,0,1,,,,,0,,,78,0
118656,note_on,,,,,832,0,8,,,,,6,,,33,30
118656,note_on,,,,,768,0,6,,,,,4,,,66,45
118656,note_on,,,,,768,0,5,,,,,3,,,71,60
118656,note_on,,,,,768,0,3,,,,,10,,,45,45
118656,note_on,,,,,768,0,7,,,,,5,,,45,45
118656,note_on,,,,,768,0,2,,,,,1,,,75,45
118656,note_on,,,,,768,0,4,,,,,2,,,75,60
118656,note_on,,,,,4,0,1,,,,,0,,,83,92
118656,note_on,,,,,832,0,9,,,,,7,,,45,30
118780,note_off,,,,,124,0,1,,,,,0,,,83,0
118784,note_on,,,,,4,0,1,,,,,0,,,78,92
118908,note_off,,,,,124,0,1,,,,,0,,,78,0
118912,note_on,,,,,4,0,1,,,,,0,,,75,92
118976,note_off,,,,,320,0,9,,,,,7,,,45,0
118976,note_off,,,,,320,0,8,,,,,6,,,33,0
119036,note_off,,,,,124,0,1,,,,,0,,,75,0
119040,note_off,,,,,384,0,7,,,,,5,,,45,0
119040,note_on,,,,,4,0,1,,,,,0,,,71,92
119040,note_off,,,,,384,0,2,,,,,1,,,75,0
119040,note_off,,,,,384,0,3,,,,,10,,,45,0
119040,note_off,,,,,384,0,4,,,,,2,,,75,0
119040,note_off,,,,,384,0,6,,,,,4,,,66,0
119040,note_off,,,,,384,0,5,,,,,3,,,71,0
119164,note_off,,,,,124,0,1,,,,,0,,,71,0
119168,note_on,,,,,4,0,1,,,,,0,,,75,92
119292,note_off,,,,,124,0,1,,,,,0,,,75,0
119296,note_on,,,,,4,0,1,,,,,0,,,78,92
119420,note_off,,,,,124,0,1,,,,,0,,,78,0
119424,note_on,,,,,4,0,1,,,,,0,,,75,92
119548,note_off,,,,,124,0,1,,,,,0,,,75,0
119552,note_on,,,,,4,0,1,,,,,0,,,71,92
119676,note_off,,,,,124,0,1,,,,,0,,,71,0
119680,note_on,,,,,4,0,1,,,,,0,,,75,92
119804,note_off,,,,,124,0,1,,,,,0,,,75,0
119808,note_on,,,,,768,0,5,,,,,3,,,76,60
119808,note_on,,,,,768,0,2,,,,,1,,,83,45
119808,note_on,,,,,832,0,8,,,,,6,,,31,30
119808,note_on,,,,,768,0,3,,,,,10,,,43,45
119808,note_on,,,,,768,0,6,,,,,4,,,71,45
119808,note_on,,,,,768,0,4,,,,,2,,,83,60
119808,note_on,,,,,768,0,7,,,,,5,,,43,45
119808,note_on,,,,,832,0,9,,,,,7,,,43,30
119808,note_on,,,,,4,0,1,,,,,0,,,76,92
119932,note_off,,,,,124,0,1,,,,,0,,,76,0
119936,note_on,,,,,4,0,1,,,,,0,,,79,92
120060,note_off,,,,,124,0,1,,,,,0,,,79,0
120064,note_on,,,,,4,0,1,,,,,0,,,83,92
120128,note_off,,,,,320,0,9,,,,,7,,,43,0
120128,note_off,,,,,320,0,8,,,,,6,,,31,0
120188,note_off,,,,,124,0,1,,,,,0,,,83,0
120192,note_off,,,,,384,0,6,,,,,4,,,71,0
120192,note_off,,,,,384,0,3,,,,,10,,,43,0
120192,note_off,,,,,384,0,2,,,,,1,,,83,0
120192,note_off,,,,,384,0,5,,,,,3,,,76,0
120192,note_on,,,,,4,0,1,,,,,0,,,79,92
120192,note_off,,,,,384,0,7,,,,,5,,,43,0
120192,note_off,,,,,384,0,4,,,,,2,,,83,0
120316,note_off,,,,,124,0,1,,,,,0,,,79,0
120320,note_on,,,,,4,0,1,,,,,0,,,76,92
120444,note_off,,,,,124,0,1,,,,,0,,,76,0
120448,note_on,,,,,4,0,1,,,,,0,,,71,92
120572,note_off,,,,,124,0,1,,,,,0,,,71,0
120576,note_on,,,,,4,0,1,,,,,0,,,67,92
120700,note_off,,,,,124,0,1,,,,,0,,,67,0
120704,note_on,,,,,4,0,1,,,,,0,,,71,92
120828,note_off,,,,,124,0,1,,,,,0,,,71,0
120832,note_on,,,,,4,0,1,,,,,0,,,76,92
120956,note_off,,,,,124,0,1,,,,,0,,,76,0
120960,note_on,,,,,4,0,1,,,,,0,,,79,92
120960,note_on,,,,,768,0,4,,,,,2,,,71,60
120960,note_on,,,,,768,0,2,,,,,1,,,71,45
120960,note_on,,,,,832,0,8,,,,,6,,,31,30
120960,note_on,,,,,768,0,7,,,,,5,,,43,45
120960,note_on,,,,,832,0,9,,,,,7,,,43,30
120960,note_on,,,,,768,0,3,,,,,10,,,43,45
120960,note_on,,,,,768,0,6,,,,,4,,,64,45
120960,note_on,,,,,768,0,5,,,,,3,,,71,60
121084,note_off,,,,,124,0,1,,,,,0,,,79,0
121088,note_on,,,,,4,0,1,,,,,0,,,83,92
121212,note_off,,,,,124,0,1,,,,,0,,,83,0
121216,note_on,,,,,4,0,1,,,,,0,,,79,92
121280,note_off,,,,,320,0,8,,,,,6,,,31,0
121280,note_off,,,,,320,0,9,,,,,7,,,43,0
121340,note_off,,,,,124,0,1,,,,,0,,,79,0
121344,note_off,,,,,384,0,7,,,,,5,,,43,0
121344,note_off,,,,,384,0,2,,,,,1,,,71,0
121344,note_off,,,,,384,0,6,,,,,4,,,64,0
121344,note_off,,,,,384,0,3,,,,,10,,,43,0
121344,note_off,,,,,384,0,4,,,,,2,,,71,0
121344,note_on,,,,,4,0,1,,,,,0,,,76,92
121344,note_off,,,,,384,0,5,,,,,3,,,71,0
121468,note_off,,,,,124,0,1,,,,,0,,,76,0
121472,note_on,,,,,4,0,1,,,,,0,,,79,92
121596,note_off,,,,,124,0,1,,,,,0,,,79,0
121600,note_on,,,,,4,0,1,,,,,0,,,76,92
121724,note_off,,,,,124,0,1,,,,,0,,,76,0
121728,note_on,,,,,4,0,1,,,,,0,,,71,92
121852,note_off,,,,,124,0,1,,,,,0,,,71,0
121856,note_on,,,,,4,0,1,,,,,0,,,74,92
121980,note_off,,,,,124,0,1,,,,,0,,,74,0
121984,note_on,,,,,4,0,1,,,,,0,,,71,92
122108,note_off,,,,,124,0,1,,,,,0,,,71,0
122112,note_on,,,,,768,0,7,,,,,5,,,43,45
122112,note_on,,,,,768,0,2,,,,,1,,,69,45
122112,note_on,,,,,768,0,3,,,,,10,,,43,45
122112,note_on,,,,,832,0,8,,,,,6,,,31,30
122112,note_on,,,,,768,0,6,,,,,4,,,61,45
122112,note_on,,,,,768,0,5,,,,,3,,,69,60
122112,note_on,,,,,768,0,4,,,,,2,,,69,60
122112,note_on,,,,,832,0,9,,,,,7,,,43,30
122112,note_on,,,,,4,0,1,,,,,0,,,73,92
122236,note_off,,,,,124,0,1,,,,,0,,,73,0
122240,note_on,,,,,4,0,1,,,,,0,,,69,92
122364,note_off,,,,,124,0,1,,,,,0,,,69,0
122368,note_on,,,,,4,0,1,,,,,0,,,73,92
122432,note_off,,,,,320,0,9,,,,,7,,,43,0
122432,note_off,,,,,320,0,8,,,,,6,,,31,0
122492,note_off,,,,,124,0,1,,,,,0,,,73,0
122496,note_off,,,,,384,0,6,,,,,4,,,61,0
122496,note_off,,,,,384,0,3,,,,,10,,,43,0
122496,note_off,,,,,384,0,4,,,,,2,,,69,0
122496,note_off,,,,,384,0,7,,,,,5,,,43,0
122496,note_off,,,,,384,0,2,,,,,1,,,69,0
122496,note_off,,,,,384,0,5,,,,,3,,,69,0
122496,note_on,,,,,4,0,1,,,,,0,,,76,92
122620,note_off,,,,,124,0,1,,,,,0,,,76,0
122624,note_on,,,,,4,0,1,,,,,0,,,73,92
122748,note_off,,,,,124,0,1,,,,,0,,,73,0
122752,note_on,,,,,4,0,1,,,,,0,,,76,92
122876,note_off,,,,,124,0,1,,,,,0,,,76,0
122880,note_on,,,,,4,0,1,,,,,0,,,81,92
123004,note_off,,,,,124,0,1,,,,,0,,,81,0
123008,note_on,,,,,4,0,1,,,,,0,,,76,92
123132,note_off,,,,,124,0,1,,,,,0,,,76,0
123136,note_on,,,,,4,0,1,,,,,0,,,81,92
123260,note_off,,,,,124,0,1,,,,,0,,,81,0
123264,note_on,,,,,768,0,3,,,,,10,,,43,45
123264,note_on,,,,,768,0,2,,,,,1,,,69,45
123264,note_on,,,,,768,0,4,,,,,2,,,69,60
123264,note_on,,,,,768,0,7,,,,,5,,,43,45
123264,note_on,,,,,4,0,1,,,,,0,,,85,92
123264,note_on,,,,,832,0,9,,,,,7,,,43,30
123264,note_on,,,,,832,0,8,,,,,6,,,31,30
123264,note_on,,,,,768,0,5,,,,,3,,,69,60
123264,note_on,,,,,768,0,6,,,,,4,,,61,45
123388,note_off,,,,,124,0,1,,,,,0,,,85,0
123392,note_on,,,,,4,0,1,,,,,0,,,81,92
123516,note_off,,,,,124,0,1,,,,,0,,,81,0
123520,note_on,,,,,4,0,1,,,,,0,,,76,92
123584,note_off,,,,,320,0,9,,,,,7,,,43,0
123584,note_off,,,,,320,0,8,,,,,6,,,31,0
123644,note_off,,,,,124,0,1,,,,,0,,,76,0
123648,note_off,,,,,384,0,6,,,,,4,,,61,0
123648,note_off,,,,,384,0,3,,,,,10,,,43,0
123648,note_off,,,,,384,0,7,,,,,5,,,43,0
123648,note_off,,,,,384,0,5,,,,,3,,,69,0
123648,note_off,,,,,384,0,4,,,,,2,,,69,0
123648,note_off,,,,,384,0,2,,,,,1,,,69,0
123648,note_on,,,,,4,0,1,,,,,0,,,69,92
123772,note_off,,,,,124,0,1,,,,,0,,,69,0
123776,note_on,,,,,4,0,1,,,,,0,,,76,92
123900,note_off,,,,,124,0,1,,,,,0,,,76,0
123904,note_on,,,,,4,0,1,,,,,0,,,81,92
124028,note_off,,,,,124,0,1,,,,,0,,,81,0
124032,note_on,,,,,4,0,1,,,,,0,,,85,92
124156,note_off,,,,,124,0,1,,,,,0,,,85,0
124160,note_on,,,,,4,0,1,,,,,0,,,76,92
124284,note_off,,,,,124,0,1,,,,,0,,,76,0
124288,note_on,,,,,4,0,1,,,,,0,,,85,92
124412,note_off,,,,,124,0,1,,,,,0,,,85,0
124416,note_on,,,,,768,0,4,,,,,2,,,69,60
124416,note_on,,,,,768,0,3,,,,,10,,,42,45
124416,note_on,,,,,768,0,7,,,,,5,,,42,45
124416,note_on,,,,,768,0,6,,,,,4,,,57,45
124416,note_on,,,,,832,0,9,,,,,7,,,42,30
124416,note_on,,,,,4,0,1,,,,,0,,,86,92
124416,note_on,,,,,832,0,8,,,,,6,,,30,30
124416,note_on,,,,,768,0,2,,,,,1,,,69,45
124416,note_on,,,,,768,0,5,,,,,3,,,69,60
124540,note_off,,,,,124,0,1,,,,,0,,,86,0
124544,note_on,,,,,4,0,1,,,,,0,,,81,92
124668,note_off,,,,,124,0,1,,,,,0,,,81,0
124672,note_on,,,,,4,0,1,,,,,0,,,86,92
124736,note_off,,,,,320,0,8,,,,,6,,,30,0
124736,note_off,,,,,320,0,9,,,,,7,,,42,0
124796,note_off,,,,,124,0,1,,,,,0,,,86,0
124800,note_on,,,,,4,0,1,,,,,0,,,86,92
124800,note_off,,,,,384,0,7,,,,,5,,,42,0
124800,note_on,,,,,0,0,5,,,,,3,,,78,108
124800,note_off,,,,,384,0,5,,,,,3,,,69,0
124800,note_off,,,,,384,0,6,,,,,4,,,57,0
124800,note_on,,,,,64,0,9,,,,,7,,,50,45
124800,note_off,,,,,384,0,2,,,,,1,,,69,0
124800,note_off,,,,,384,0,4,,,,,2,,,69,0
124800,note_on,,,,,0,0,4,,,,,2,,,78,108
124800,note_off,,,,,384,0,3,,,,,10,,,42,0
124800,note_on,,,,,0,0,2,,,,,1,,,78,92
124800,note_on,,,,,0,0,3,,,,,10,,,50,92
124800,note_on,,,,,64,0,8,,,,,6,,,38,75
124800,note_on,,,,,0,0,6,,,,,4,,,69,92
124800,note_on,,,,,0,0,7,,,,,5,,,50,92
124924,note_off,,,,,124,0,1,,,,,0,,,86,0
124928,note_on,,,,,4,0,1,,,,,0,,,81,92
125052,note_off,,,,,124,0,1,,,,,0,,,81,0
125056,note_on,,,,,4,0,1,,,,,0,,,86,92
125120,note_off,,,,,320,0,9,,,,,7,,,50,0
125120,note_off,,,,,320,0,8,,,,,6,,,38,0
125180,note_off,,,,,124,0,1,,,,,0,,,86,0
125184,note_off,,,,,384,0,7,,,,,5,,,50,0
125184,note_on,,,,,0,0,4,,,,,2,,,79,108
125184,note_on,,,,,0,0,3,,,,,10,,,52,92
125184,note_off,,,,,384,0,3,,,,,10,,,50,0
125184,note_on,,,,,64,0,8,,,,,6,,,40,75
125184,note_on,,,,,0,0,7,,,,,5,,,52,92
125184,note_off,,,,,384,0,4,,,,,2,,,78,0
125184,note_on,,,,,0,0,6,,,,,4,,,67,92
125184,note_off,,,,,384,0,2,,,,,1,,,78,0
125184,note_on,,,,,0,0,5,,,,,3,,,79,108
125184,note_on,,,,,4,0,1,,,,,0,,,85,92
125184,note_on,,,,,0,0,2,,,,,1,,,79,92
125184,note_on,,,,,64,0,9,,,,,7,,,52,45
125184,note_off,,,,,384,0,5,,,,,3,,,78,0
125184,note_off,,,,,384,0,6,,,,,4,,,69,0
125308,note_off,,,,,124,0,1,,,,,0,,,85,0
125312,note_on,,,,,4,0,1,,,,,0,,,81,92
125436,note_off,,,,,124,0,1,,,,,0,,,81,0
125440,note_on,,,,,4,0,1,,,,,0,,,85,92
125504,note_off,,,,,320,0,8,,,,,6,,,40,0
125504,note_off,,,,,320,0,9,,,,,7,,,52,0
125564,note_off,,,,,124,0,1,,,,,0,,,85,0
125568,note_on,,,,,4,0,1,,,,,0,,,86,92
125568,note_on,,,,,0,0,6,,,,,4,,,66,92
125568,note_off,,,,,384,0,3,,,,,10,,,52,0
125568,note_off,,,,,384,0,6,,,,,4,,,67,0
125568,note_on,,,,,0,0,3,,,,,10,,,54,92
125568,note_on,,,,,64,0,8,,,,,6,,,42,75
125568,note_off,,,,,384,0,4,,,,,2,,,79,0
125568,note_on,,,,,0,0,2,,,,,1,,,81,92
125568,note_on,,,,,0,0,4,,,,,2,,,81,108
125568,note_on,,,,,64,0,9,,,,,7,,,54,45
125568,note_on,,,,,0,0,5,,,,,3,,,81,108
125568,note_off,,,,,384,0,5,,,,,3,,,79,0
125568,note_off,,,,,384,0,2,,,,,1,,,79,0
125568,note_on,,,,,0,0,7,,,,,5,,,54,92
125568,note_off,,,,,384,0,7,,,,,5,,,52,0
125692,note_off,,,,,124,0,1,,,,,0,,,86,0
125696,note_on,,,,,4,0,1,,,,,0,,,85,92
125820,note_off,,,,,124,0,1,,,,,0,,,85,0
125824,note_on,,,,,4,0,1,,,,,0,,,83,92
125948,note_off,,,,,124,0,1,,,,,0,,,83,0
125952,note_on,,,,,4,0,1,,,,,0,,,81,92
126076,note_off,,,,,124,0,1,,,,,0,,,81,0
126080,note_off,,,,,512,0,9,,,,,7,,,54,0
126080,note_on,,,,,4,0,1,,,,,0,,,83,92
126080,note_off,,,,,512,0,8,,,,,6,,,42,0
126144,note_on,,,,,64,0,8,,,,,6,,,40,75
126144,note_off,,,,,576,0,3,,,,,10,,,54,0
126144,note_on,,,,,0,0,3,,,,,10,,,52,92
126144,note_off,,,,,576,0,4,,,,,2,,,81,0
126144,note_on,,,,,0,0,5,,,,,3,,,79,108
126144,note_on,,,,,0,0,4,,,,,2,,,79,108
126144,note_off,,,,,576,0,6,,,,,4,,,66,0
126144,note_off,,,,,576,0,2,,,,,1,,,81,0
126144,note_on,,,,,0,0,2,,,,,1,,,79,92
126144,note_on,,,,,0,0,7,,,,,5,,,52,92
126144,note_off,,,,,576,0,7,,,,,5,,,54,0
126144,note_on,,,,,64,0,9,,,,,7,,,52,45
126144,note_off,,,,,576,0,5,,,,,3,,,81,0
126144,note_on,,,,,0,0,6,,,,,4,,,67,92
126204,note_off,,,,,124,0,1,,,,,0,,,83,0
126208,note_on,,,,,4,0,1,,,,,0,,,79,92
126332,note_off,,,,,188,0,9,,,,,7,,,52,0
126332,note_off,,,,,124,0,1,,,,,0,,,79,0
126332,note_off,,,,,188,0,8,,,,,6,,,40,0
126336,note_on,,,,,0,0,6,,,,,4,,,69,92
126336,note_off,,,,,192,0,4,,,,,2,,,79,0
126336,note_on,,,,,4,0,9,,,,,7,,,50,45
126336,note_on,,,,,0,0,4,,,,,2,,,78,108
126336,note_on,,,,,4,0,8,,,,,6,,,38,75
126336,note_off,,,,,192,0,7,,,,,5,,,52,0
126336,note_on,,,,,0,0,7,,,,,5,,,50,92
126336,note_on,,,,,0,0,2,,,,,1,,,78,92
126336,note_off,,,,,192,0,6,,,,,4,,,67,0
126336,note_off,,,,,192,0,5,,,,,3,,,79,0
126336,note_off,,,,,192,0,2,,,,,1,,,79,0
126336,note_on,,,,,4,0,1,,,,,0,,,78,92
126336,note_on,,,,,0,0,3,,,,,10,,,50,92
126336,note_off,,,,,192,0,3,,,,,10,,,52,0
126336,note_on,,,,,0,0,5,,,,,3,,,78,108
126460,note_off,,,,,124,0,1,,,,,0,,,78,0
126464,note_on,,,,,4,0,1,,,,,0,,,79,92
126588,note_off,,,,,124,0,1,,,,,0,,,79,0
126592,note_on,,,,,4,0,1,,,,,0,,,81,92
126656,note_off,,,,,320,0,9,,,,,7,,,50,0
126656,note_off,,,,,320,0,8,,,,,6,,,38,0
126716,note_off,,,,,124,0,1,,,,,0,,,81,0
126720,note_on,,,,,0,0,3,,,,,10,,,55,92
126720,note_on,,,,,0,0,4,,,,,2,,,76,108
126720,note_off,,,,,384,0,3,,,,,10,,,50,0
126720,note_on,,,,,64,0,8,,,,,6,,,43,75
126720,note_off,,,,,384,0,4,,,,,2,,,78,0
126720,note_on,,,,,4,0,1,,,,,0,,,76,92
126720,note_off,,,,,384,0,2,,,,,1,,,78,0
126720,note_on,,,,,64,0,9,,,,,7,,,55,45
126720,note_off,,,,,384,0,7,,,,,5,,,50,0
126720,note_on,,,,,0,0,7,,,,,5,,,55,92
126720,note_on,,,,,0,0,5,,,,,3,,,76,108
126720,note_off,,,,,384,0,6,,,,,4,,,69,0
126720,note_off,,,,,384,0,5,,,,,3,,,78,0
126720,note_on,,,,,0,0,6,,,,,4,,,71,92
126720,note_on,,,,,0,0,2,,,,,1,,,76,92
127040,note_off,,,,,320,0,9,,,,,7,,,55,0
127040,note_off,,,,,320,0,1,,,,,0,,,76,0
127040,note_off,,,,,320,0,8,,,,,6,,,43,0
127104,note_on,,,,,64,0,8,,,,,6,,,45,75
127104,note_on,,,,,0,0,3,,,,,10,,,57,92
127104,note_off,,,,,384,0,3,,,,,10,,,55,0
127104,note_on,,,,,0,0,2,,,,,1,,,76,92
127104,note_on,,,,,0,0,4,,,,,2,,,76,108
127104,note_off,,,,,384,0,4,,,,,2,,,76,0
127104,note_off,,,,,384,0,6,,,,,4,,,71,0
127104,note_on,,,,,0,0,6,,,,,4,,,69,92
127104,note_on,,,,,0,0,5,,,,,3,,,76,108
127104,note_off,,,,,384,0,2,,,,,1,,,76,0
127104,note_on,,,,,64,0,9,,,,,7,,,57,45
127104,note_off,,,,,384,0,5,,,,,3,,,76,0
127104,note_off,,,,,384,0,7,,,,,5,,,55,0
127104,note_on,,,,,0,0,7,,,,,5,,,57,92
127424,note_off,,,,,320,0,8,,,,,6,,,45,0
127424,note_off,,,,,320,0,9,,,,,7,,,57,0
127488,note_on,,,,,64,0,9,,,,,7,,,59,45
127488,note_on,,,,,0,0,5,,,,,3,,,76,108
127488,note_on,,,,,0,0,2,,,,,1,,,76,92
127488,note_off,,,,,384,0,2,,,,,1,,,76,0
127488,note_off,,,,,384,0,5,,,,,3,,,76,0
127488,note_on,,,,,64,0,8,,,,,6,,,47,75
127488,note_off,,,,,384,0,3,,,,,10,,,57,0
127488,note_on,,,,,0,0,3,,,,,10,,,59,92
127488,note_off,,,,,384,0,4,,,,,2,,,76,0
127488,note_on,,,,,0,0,7,,,,,5,,,59,92
127488,note_off,,,,,384,0,7,,,,,5,,,57,0
127488,note_off,,,,,384,0,6,,,,,4,,,69,0
127488,note_on,,,,,0,0,6,,,,,4,,,68,92
127488,note_on,,,,,0,0,4,,,,,2,,,76,108
127808,note_off,,,,,320,0,9,,,,,7,,,59,0
127808,note_off,,,,,320,0,8,,,,,6,,,47,0
127872,note_on,,,,,64,0,8,,,,,6,,,45,75
127872,note_off,,,,,384,0,7,,,,,5,,,59,0
127872,note_on,,,,,0,0,4,,,,,2,,,76,108
127872,note_on,,,,,0,0,3,,,,,10,,,57,92
127872,note_off,,,,,384,0,2,,,,,1,,,76,0
127872,note_on,,,,,0,0,7,,,,,5,,,57,92
127872,note_on,,,,,0,0,5,,,,,3,,,76,108
127872,note_off,,,,,384,0,5,,,,,3,,,76,0
127872,note_on,,,,,0,0,2,,,,,1,,,76,92
127872,note_off,,,,,384,0,4,,,,,2,,,76,0
127872,note_on,,,,,64,0,9,,,,,7,,,57,45
127872,note_off,,,,,384,0,6,,,,,4,,,68,0
127872,note_on,,,,,0,0,6,,,,,4,,,69,92
127872,note_off,,,,,384,0,3,,,,,10,,,59,0
128000,note_on,,,,,960,0,1,,,,,0,,,69,92
128124,note_off,,,,,124,0,1,,,,,0,,,69,0
128128,note_on,,,,,4,0,1,,,,,0,,,73,92
128192,note_off,,,,,320,0,9,,,,,7,,,57,0
128192,note_off,,,,,320,0,8,,,,,6,,,45,0
128252,note_off,,,,,124,0,1,,,,,0,,,73,0
128256,note_off,,,,,384,0,7,,,,,5,,,57,0
128256,note_off,,,,,384,0,5,,,,,3,,,76,0
128256,note_off,,,,,384,0,6,,,,,4,,,69,0
128256,note_off,,,,,384,0,2,,,,,1,,,76,0
128256,note_on,,,,,4,0,1,,,,,0,,,76,92
128256,note_off,,,,,384,0,4,,,,,2,,,76,0
128256,note_off,,,,,384,0,3,,,,,10,,,57,0
128380,note_off,,,,,124,0,1,,,,,0,,,76,0
128384,note_on,,,,,4,0,1,,,,,0,,,73,92
128508,note_off,,,,,124,0,1,,,,,0,,,73,0
128512,note_on,,,,,4,0,1,,,,,0,,,76,92
128636,note_off,,,,,124,0,1,,,,,0,,,76,0
128640,note_on,,,,,4,0,1,,,,,0,,,79,92
128764,note_off,,,,,124,0,1,,,,,0,,,79,0
128768,note_on,,,,,4,0,1,,,,,0,,,76,92
128892,note_off,,,,,124,0,1,,,,,0,,,76,0
128896,note_on,,,,,4,0,1,,,,,0,,,79,92
129020,note_off,,,,,124,0,1,,,,,0,,,79,0
129024,note_on,,,,,768,0,3,,,,,10,,,57,45
129024,note_on,,,,,832,0,8,,,,,6,,,45,30
129024,note_on,,,,,832,0,9,,,,,7,,,57,30
129024,note_on,,,,,768,0,2,,,,,1,,,69,45
129024,note_on,,,,,768,0,5,,,,,3,,,69,60
129024,note_on,,,,,768,0,6,,,,,4,,,69,45
129024,note_on,,,,,768,0,7,,,,,5,,,57,45
129024,note_on,,,,,4,0,1,,,,,0,,,78,92
129024,note_on,,,,,768,0,4,,,,,2,,,78,60
129148,note_off,,,,,124,0,1,,,,,0,,,78,0
129152,note_on,,,,,4,0,1,,,,,0,,,74,92
129276,note_off,,,,,124,0,1,,,,,0,,,74,0
129280,note_on,,,,,4,0,1,,,,,0,,,78,92
129344,note_off,,,,,320,0,8,,,,,6,,,45,0
129344,note_off,,,,,320,0,9,,,,,7,,,57,0
129404,note_off,,,,,124,0,1,,,,,0,,,78,0
129408,note_off,,,,,384,0,4,,,,,2,,,78,0
129408,note_off,,,,,384,0,3,,,,,10,,,57,0
129408,note_off,,,,,384,0,5,,,,,3,,,69,0
129408,note_on,,,,,4,0,1,,,,,0,,,81,92
129408,note_off,,,,,384,0,7,,,,,5,,,57,0
129408,note_off,,,,,384,0,6,,,,,4,,,69,0
129408,note_off,,,,,384,0,2,,,,,1,,,69,0
129532,note_off,,,,,124,0,1,,,,,0,,,81,0
129536,note_on,,,,,4,0,1,,,,,0,,,78,92
129660,note_off,,,,,124,0,1,,,,,0,,,78,0
129664,note_on,,,,,4,0,1,,,,,0,,,81,92
129788,note_off,,,,,124,0,1,,,,,0,,,81,0
129792,note_on,,,,,4,0,1,,,,,0,,,86,92
129916,note_off,,,,,124,0,1,,,,,0,,,86,0
129920,note_on,,,,,4,0,1,,,,,0,,,81,92
130044,note_off,,,,,124,0,1,,,,,0,,,81,0
130048,note_on,,,,,4,0,1,,,,,0,,,86,92
130172,note_off,,,,,124,0,1,,,,,0,,,86,0
130176,note_on,,,,,768,0,7,,,,,5,,,57,45
130176,note_on,,,,,832,0,8,,,,,6,,,45,30
130176,note_on,,,,,4,0,1,,,,,0,,,85,92
130176,note_on,,,,,768,0,3,,,,,10,,,57,45
130176,note_on,,,,,768,0,4,,,,,2,,,76,60
130176,note_on,,,,,832,0,9,,,,,7,,,57,30
130176,note_on,,,,,768,0,2,,,,,1,,,81,45
130176,note_on,,,,,768,0,5,,,,,3,,,81,60
130176,note_on,,,,,768,0,6,,,,,4,,,69,45
130300,note_off,,,,,124,0,1,,,,,0,,,85,0
130304,note_on,,,,,4,0,1,,,,,0,,,86,92
130428,note_off,,,,,124,0,1,,,,,0,,,86,0
130432,note_on,,,,,4,0,1,,,,,0,,,83,92
130496,note_off,,,,,320,0,8,,,,,6,,,45,0
130496,note_off,,,,,320,0,9,,,,,7,,,57,0
130556,note_off,,,,,124,0,1,,,,,0,,,83,0
130560,note_off,,,,,384,0,7,,,,,5,,,57,0
130560,note_off,,,,,384,0,3,,,,,10,,,57,0
130560,note_off,,,,,384,0,4,,,,,2,,,76,0
130560,note_off,,,,,384,0,6,,,,,4,,,69,0
130560,note_on,,,,,4,0,1,,,,,0,,,81,92
130560,note_off,,,,,384,0,2,,,,,1,,,81,0
130560,note_off,,,,,384,0,5,,,,,3,,,81,0
130684,note_off,,,,,124,0,1,,,,,0,,,81,0
130688,note_on,,,,,4,0,1,,,,,0,,,83,92
130812,note_off,,,,,124,0,1,,,,,0,,,83,0
130816,note_on,,,,,4,0,1,,,,,0,,,79,92
130940,note_off,,,,,124,0,1,,,,,0,,,79,0
130944,note_on,,,,,4,0,1,,,,,0,,,78,92
131068,note_off,,,,,124,0,1,,,,,0,,,78,0
131072,note_on,,,,,4,0,1,,,,,0,,,79,92
131196,note_off,,,,,124,0,1,,,,,0,,,79,0
131200,note_on,,,,,4,0,1,,,,,0,,,76,92
131324,note_off,,,,,124,0,1,,,,,0,,,76,0
131328,note_on,,,,,768,0,7,,,,,5,,,57,45
131328,note_on,,,,,832,0,9,,,,,7,,,57,30
131328,note_on,,,,,768,0,2,,,,,1,,,74,45
131328,note_on,,,,,768,0,3,,,,,10,,,57,45
131328,note_on,,,,,4,0,1,,,,,0,,,78,92
131328,note_on,,,,,768,0,4,,,,,2,,,78,60
131328,note_on,,,,,768,0,5,,,,,3,,,74,60
131328,note_on,,,,,768,0,6,,,,,4,,,66,45
131328,note_on,,,,,832,0,8,,,,,6,,,45,30
131452,note_off,,,,,124,0,1,,,,,0,,,78,0
131456,note_on,,,,,4,0,1,,,,,0,,,81,92
131580,note_off,,,,,124,0,1,,,,,0,,,81,0
131584,note_on,,,,,4,0,1,,,,,0,,,79,92
131648,note_off,,,,,320,0,9,,,,,7,,,57,0
131648,note_off,,,,,320,0,8,,,,,6,,,45,0
131708,note_off,,,,,124,0,1,,,,,0,,,79,0
131712,note_off,,,,,384,0,3,,,,,10,,,57,0
131712,note_off,,,,,384,0,7,,,,,5,,,57,0
131712,note_off,,,,,384,0,2,,,,,1,,,74,0
131712,note_off,,,,,384,0,6,,,,,4,,,66,0
131712,note_off,,,,,384,0,5,,,,,3,,,74,0
131712,note_off,,,,,384,0,4,,,,,2,,,78,0
131712,note_on,,,,,4,0,1,,,,,0,,,78,92
131836,note_off,,,,,124,0,1,,,,,0,,,78,0
131840,note_on,,,,,4,0,1,,,,,0,,,76,92
131964,note_off,,,,,124,0,1,,,,,0,,,76,0
131968,note_on,,,,,4,0,1,,,,,0,,,74,92
132092,note_off,,,,,124,0,1,,,,,0,,,74,0
132096,note_on,,,,,4,0,1,,,,,0,,,73,92
132220,note_off,,,,,124,0,1,,,,,0,,,73,0
132224,note_on,,,,,4,0,1,,,,,0,,,74,92
132348,note_off,,,,,124,0,1,,,,,0,,,74,0
132352,note_on,,,,,4,0,1,,,,,0,,,76,92
132476,note_off,,,,,124,0,1,,,,,0,,,76,0
132480,note_on,,,,,768,0,3,,,,,10,,,57,45
132480,note_on,,,,,768,0,4,,,,,2,,,73,60
132480,note_on,,,,,832,0,9,,,,,7,,,57,30
132480,note_on,,,,,4,0,1,,,,,0,,,69,92
132480,note_on,,,,,768,0,5,,,,,3,,,73,60
132480,note_on,,,,,832,0,8,,,,,6,,,45,30
132480,note_on,,,,,768,0,6,,,,,4,,,64,45
132480,note_on,,,,,768,0,7,,,,,5,,,57,45
132480,note_on,,,,,768,0,2,,,,,1,,,73,45
132604,note_off,,,,,124,0,1,,,,,0,,,69,0
132608,note_on,,,,,4,0,1,,,,,0,,,76,92
132732,note_off,,,,,124,0,1,,,,,0,,,76,0
132736,note_on,,,,,4,0,1,,,,,0,,,74,92
132800,note_off,,,,,320,0,8,,,,,6,,,45,0
132800,note_off,,,,,320,0,9,,,,,7,,,57,0
132860,note_off,,,,,124,0,1,,,,,0,,,74,0
132864,note_off,,,,,384,0,5,,,,,3,,,73,0
132864,note_off,,,,,384,0,3,,,,,10,,,57,0
132864,note_off,,,,,384,0,4,,,,,2,,,73,0
132864,note_on,,,,,4,0,1,,,,,0,,,73,92
132864,note_off,,,,,384,0,7,,,,,5,,,57,0
132864,note_off,,,,,384,0,2,,,,,1,,,73,0
132864,note_off,,,,,384,0,6,,,,,4,,,64,0
132988,note_off,,,,,124,0,1,,,,,0,,,73,0
132992,note_on,,,,,4,0,1,,,,,0,,,71,92
133116,note_off,,,,,124,0,1,,,,,0,,,71,0
133120,note_on,,,,,4,0,1,,,,,0,,,69,92
133244,note_off,,,,,124,0,1,,,,,0,,,69,0
133248,note_on,,,,,4,0,1,,,,,0,,,67,92
133372,note_off,,,,,124,0,1,,,,,0,,,67,0
133376,note_on,,,,,4,0,1,,,,,0,,,66,92
133500,note_off,,,,,124,0,1,,,,,0,,,66,0
133504,note_on,,,,,4,0,1,,,,,0,,,64,92
133628,note_off,,,,,124,0,1,,,,,0,,,64,0
133632,note_on,,,,,768,0,7,,,,,5,,,57,92
133632,note_on,,,,,768,0,2,,,,,1,,,74,92
133632,note_on,,,,,832,0,9,,,,,7,,,57,45
133632,note_on,,,,,832,0,8,,,,,6,,,45,75
133632,note_on,,,,,4,0,1,,,,,0,,,66,92
133632,note_on,,,,,768,0,6,,,,,4,,,66,92
133632,note_on,,,,,768,0,5,,,,,3,,,74,108
133632,note_on,,,,,768,0,4,,,,,2,,,74,108
133756,note_off,,,,,124,0,1,,,,,0,,,66,0
133760,note_off,,,,,128,0,4,,,,,2,,,74,0
133760,note_on,,,,,0,0,4,,,,,2,,,69,108
133760,note_on,,,,,896,0,3,,,,,10,,,57,92
133760,note_off,,,,,128,0,6,,,,,4,,,66,0
133760,note_on,,,,,0,0,6,,,,,4,,,69,92
133760,note_off,,,,,128,0,2,,,,,1,,,74,0
133760,note_on,,,,,0,0,5,,,,,3,,,69,108
133760,note_on,,,,,4,0,1,,,,,0,,,69,92
133760,note_off,,,,,128,0,5,,,,,3,,,74,0
133760,note_on,,,,,0,0,2,,,,,1,,,69,92
133884,note_off,,,,,124,0,1,,,,,0,,,69,0
133888,note_on,,,,,4,0,1,,,,,0,,,67,92
133888,note_off,,,,,128,0,2,,,,,1,,,69,0
133888,note_off,,,,,128,0,6,,,,,4,,,69,0
133888,note_on,,,,,0,0,6,,,,,4,,,67,92
133888,note_off,,,,,128,0,3,,,,,10,,,57,0
133888,note_on,,,,,0,0,2,,,,,1,,,67,92
133888,note_on,,,,,0,0,3,,,,,10,,,55,92
133888,note_on,,,,,0,0,5,,,,,3,,,67,108
133888,note_off,,,,,128,0,4,,,,,2,,,69,0
133888,note_on,,,,,0,0,4,,,,,2,,,67,108
133888,note_off,,,,,128,0,5,,,,,3,,,69,0
133916,note_off,,,,,284,0,9,,,,,7,,,57,0
133916,note_off,,,,,284,0,8,,,,,6,,,45,0
133920,note_on,,,,,4,0,8,,,,,6,,,43,75
133920,note_on,,,,,4,0,9,,,,,7,,,55,45
133920,note_on,,,,,0,0,7,,,,,5,,,55,92
133920,note_off,,,,,288,0,7,,,,,5,,,57,0
134012,note_off,,,,,124,0,1,,,,,0,,,67,0
134012,note_off,,,,,92,0,9,,,,,7,,,55,0
134012,note_off,,,,,92,0,8,,,,,6,,,43,0
134016,note_off,,,,,128,0,6,,,,,4,,,67,0
134016,note_on,,,,,0,0,5,,,,,3,,,66,108
134016,note_on,,,,,0,0,7,,,,,5,,,54,92
134016,note_off,,,,,96,0,7,,,,,5,,,55,0
134016,note_on,,,,,0,0,6,,,,,4,,,66,92
134016,note_off,,,,,128,0,5,,,,,3,,,67,0
134016,note_on,,,,,4,0,9,,,,,7,,,54,45
134016,note_on,,,,,0,0,4,,,,,2,,,66,108
134016,note_on,,,,,4,0,1,,,,,0,,,66,92
134016,note_on,,,,,4,0,8,,,,,6,,,42,75
134016,note_on,,,,,0,0,2,,,,,1,,,66,92
134016,note_off,,,,,128,0,2,,,,,1,,,67,0
134016,note_off,,,,,128,0,4,,,,,2,,,67,0
134016,note_off,,,,,128,0,3,,,,,10,,,55,0
134016,note_on,,,,,0,0,3,,,,,10,,,54,92
134140,note_off,,,,,124,0,1,,,,,0,,,66,0
134144,note_on,,,,,0,0,4,,,,,2,,,64,108
134144,note_off,,,,,128,0,4,,,,,2,,,66,0
134144,note_on,,,,,0,0,2,,,,,1,,,64,92
134144,note_off,,,,,128,0,2,,,,,1,,,66,0
134144,note_off,,,,,128,0,3,,,,,10,,,54,0
134144,note_on,,,,,0,0,3,,,,,10,,,52,92
134144,note_on,,,,,0,0,5,,,,,3,,,64,108
134144,note_on,,,,,4,0,1,,,,,0,,,64,92
134144,note_on,,,,,0,0,6,,,,,4,,,64,92
134144,note_off,,,,,128,0,6,,,,,4,,,66,0
134144,note_off,,,,,128,0,5,,,,,3,,,66,0
134268,note_off,,,,,124,0,1,,,,,0,,,64,0
134272,note_off,,,,,128,0,5,,,,,3,,,64,0
134272,note_on,,,,,0,0,5,,,,,3,,,62,108
134272,note_off,,,,,128,0,4,,,,,2,,,64,0
134272,note_on,,,,,0,0,4,,,,,2,,,62,108
134272,note_on,,,,,0,0,2,,,,,1,,,62,92
134272,note_on,,,,,0,0,3,,,,,10,,,50,92
134272,note_on,,,,,4,0,1,,,,,0,,,62,92
134272,note_off,,,,,128,0,2,,,,,1,,,64,0
134272,note_on,,,,,0,0,6,,,,,4,,,62,92
134272,note_off,,,,,128,0,6,,,,,4,,,64,0
134272,note_off,,,,,128,0,3,,,,,10,,,52,0
134300,note_off,,,,,284,0,9,,,,,7,,,54,0
134300,note_off,,,,,284,0,8,,,,,6,,,42,0
134304,note_off,,,,,288,0,7,,,,,5,,,54,0
134304,note_on,,,,,0,0,7,,,,,5,,,50,92
134304,note_on,,,,,4,0,9,,,,,7,,,50,45
134304,note_on,,,,,4,0,8,,,,,6,,,38,75
134396,note_off,,,,,92,0,8,,,,,6,,,38,0
134396,note_off,,,,,124,0,1,,,,,0,,,62,0
134396,note_off,,,,,92,0,9,,,,,7,,,50,0
134400,note_off,,,,,128,0,5,,,,,3,,,62,0
134400,note_on,,,,,0,0,2,,,,,1,,,61,92
134400,note_off,,,,,128,0,3,,,,,10,,,50,0
134400,note_on,,,,,0,0,3,,,,,10,,,49,92
134400,note_on,,,,,4,0,9,,,,,7,,,49,45
134400,note_on,,,,,0,0,5,,,,,3,,,61,108
134400,note_off,,,,,128,0,2,,,,,1,,,62,0
134400,note_on,,,,,4,0,1,,,,,0,,,61,92
134400,note_on,,,,,0,0,6,,,,,4,,,61,92
134400,note_off,,,,,128,0,6,,,,,4,,,62,0
134400,note_on,,,,,0,0,7,,,,,5,,,49,92
134400,note_on,,,,,0,0,4,,,,,2,,,61,108
134400,note_off,,,,,96,0,7,,,,,5,,,50,0
134400,note_on,,,,,4,0,8,,,,,6,,,37,75
134400,note_off,,,,,128,0,4,,,,,2,,,62,0
134524,note_off,,,,,124,0,1,,,,,0,,,61,0
134528,note_on,,,,,0,0,6,,,,,4,,,62,92
134528,note_off,,,,,128,0,4,,,,,2,,,61,0
134528,note_off,,,,,128,0,2,,,,,1,,,61,0
134528,note_on,,,,,0,0,2,,,,,1,,,62,92
134528,note_off,,,,,128,0,6,,,,,4,,,61,0
134528,note_off,,,,,128,0,3,,,,,10,,,49,0
134528,note_on,,,,,0,0,3,,,,,10,,,50,92
134528,note_on,,,,,0,0,4,,,,,2,,,62,108
134528,note_off,,,,,128,0,5,,,,,3,,,61,0
134528,note_on,,,,,0,0,5,,,,,3,,,62,108
134528,note_on,,,,,4,0,1,,,,,0,,,62,92
134652,note_off,,,,,124,0,1,,,,,0,,,62,0
134656,note_on,,,,,0,0,4,,,,,2,,,64,108
134656,note_off,,,,,128,0,4,,,,,2,,,62,0
134656,note_on,,,,,0,0,6,,,,,4,,,64,92
134656,note_off,,,,,128,0,6,,,,,4,,,62,0
134656,note_on,,,,,0,0,2,,,,,1,,,64,92
134656,note_off,,,,,128,0,3,,,,,10,,,50,0
134656,note_on,,,,,0,0,5,,,,,3,,,64,108
134656,note_off,,,,,128,0,5,,,,,3,,,62,0
134656,note_off,,,,,128,0,2,,,,,1,,,62,0
134656,note_on,,,,,4,0,1,,,,,0,,,64,92
134656,note_on,,,,,0,0,3,,,,,10,,,52,92
134684,note_off,,,,,284,0,9,,,,,7,,,49,0
134684,note_off,,,,,284,0,8,,,,,6,,,37,0
134688,note_on,,,,,4,0,8,,,,,6,,,40,75
134688,note_off,,,,,288,0,7,,,,,5,,,49,0
134688,note_on,,,,,0,0,7,,,,,5,,,52,92
134688,note_on,,,,,4,0,9,,,,,7,,,52,45
134780,note_off,,,,,92,0,8,,,,,6,,,40,0
134780,note_off,,,,,92,0,9,,,,,7,,,52,0
134780,note_off,,,,,124,0,1,,,,,0,,,64,0
134784,note_off,,,,,128,0,3,,,,,10,,,52,0
134784,note_on,,,,,0,0,7,,,,,5,,,45,92
134784,note_on,,,,,0,0,4,,,,,2,,,57,108
134784,note_off,,,,,128,0,4,,,,,2,,,64,0
134784,note_off,,,,,128,0,2,,,,,1,,,64,0
134784,note_on,,,,,0,0,2,,,,,1,,,57,92
134784,note_on,,,,,4,0,8,,,,,6,,,33,75
134784,note_on,,,,,0,0,5,,,,,3,,,57,108
134784,note_on,,,,,4,0,1,,,,,0,,,57,92
134784,note_off,,,,,96,0,7,,,,,5,,,52,0
134784,note_on,,,,,0,0,3,,,,,10,,,45,92
134784,note_off,,,,,128,0,5,,,,,3,,,64,0
134784,note_off,,,,,128,0,6,,,,,4,,,64,0
134784,note_on,,,,,4,0,9,,,,,7,,,45,45
134784,note_on,,,,,0,0,6,,,,,4,,,57,92
135104,note_off,,,,,320,0,9,,,,,7,,,45,0
135104,note_off,,,,,320,0,8,,,,,6,,,33,0
135168,note_off,,,,,384,0,5,,,,,3,,,57,0
135168,note_on,,,,,0,0,5,,,,,3,,,78,108
135168,note_off,,,,,384,0,6,,,,,4,,,57,0
135168,note_off,,,,,384,0,4,,,,,2,,,57,0
135168,note_on,,,,,0,0,4,,,,,2,,,81,108
135168,note_on,,,,,0,0,2,,,,,1,,,78,92
135168,note_off,,,,,384,0,1,,,,,0,,,57,0
135168,note_off,,,,,384,0,2,,,,,1,,,57,0
135168,note_off,,,,,384,0,3,,,,,10,,,45,0
135168,note_off,,,,,384,0,7,,,,,5,,,45,0
135168,note_on,,,,,0,0,1,,,,,0,,,81,92
135552,note_off,,,,,384,0,2,,,,,1,,,78,0
135552,note_on,,,,,0,0,2,,,,,1,,,76,92
135552,note_on,,,,,0,0,5,,,,,3,,,76,108
135552,note_on,,,,,0,0,1,,,,,0,,,79,92
135552,note_off,,,,,384,0,5,,,,,3,,,78,0
135552,note_off,,,,,384,0,4,,,,,2,,,81,0
135552,note_off,,,,,384,0,1,,,,,0,,,81,0
135552,note_on,,,,,0,0,4,,,,,2,,,79,108
135936,note_on,,,,,0,0,5,,,,,3,,,74,108
135936,note_on,,,,,0,0,2,,,,,1,,,74,92
135936,note_off,,,,,384,0,1,,,,,0,,,79,0
135936,note_on,,,,,0,0,1,,,,,0,,,78,92
135936,note_off,,,,,384,0,5,,,,,3,,,76,0
135936,note_off,,,,,384,0,2,,,,,1,,,76,0
135936,note_off,,,,,384,0,4,,,,,2,,,79,0
135936,note_on,,,,,0,0,4,,,,,2,,,78,108
136320,note_off,,,,,384,0,2,,,,,1,,,74,0
136320,note_on,,,,,0,0,2,,,,,1,,,73,92
136320,note_on,,,,,1216,0,8,,,,,6,,,47,75
136320,note_on,,,,,1152,0,6,,,,,4,,,62,92
136320,note_on,,,,,1152,0,7,,,,,5,,,59,92
136320,note_off,,,,,384,0,1,,,,,0,,,78,0
136320,note_on,,,,,0,0,1,,,,,0,,,76,92
136320,note_on,,,,,1216,0,9,,,,,7,,,59,45
136320,note_on,,,,,1152,0,3,,,,,10,,,59,92
136320,note_off,,,,,384,0,4,,,,,2,,,78,0
136320,note_on,,,,,0,0,4,,,,,2,,,76,108
136320,note_off,,,,,384,0,5,,,,,3,,,74,0
136320,note_on,,,,,0,0,5,,,,,3,,,73,108
136640,note_off,,,,,320,0,9,,,,,7,,,59,0
136640,note_off,,,,,320,0,8,,,,,6,,,47,0
136704,note_on,,,,,0,0,5,,,,,3,,,74,108
136704,note_on,,,,,0,0,7,,,,,5,,,57,92
136704,note_off,,,,,384,0,7,,,,,5,,,59,0
136704,note_on,,,,,0,0,1,,,,,0,,,78,92
136704,note_off,,,,,384,0,5,,,,,3,,,73,0
136704,note_off,,,,,384,0,1,,,,,0,,,76,0
136704,note_on,,,,,0,0,2,,,,,1,,,74,92
136704,note_off,,,,,384,0,4,,,,,2,,,76,0
136704,note_on,,,,,0,0,3,,,,,10,,,57,92
136704,note_on,,,,,64,0,9,,,,,7,,,57,45
136704,note_off,,,,,384,0,3,,,,,10,,,59,0
136704,note_on,,,,,0,0,6,,,,,4,,,61,92
136704,note_off,,,,,384,0,6,,,,,4,,,62,0
136704,note_on,,,,,0,0,4,,,,,2,,,78,108
136704,note_on,,,,,64,0,8,,,,,6,,,45,75
136704,note_off,,,,,384,0,2,,,,,1,,,73,0
137024,note_off,,,,,320,0,9,,,,,7,,,57,0
137024,note_off,,,,,320,0,8,,,,,6,,,45,0
137088,note_off,,,,,384,0,6,,,,,4,,,61,0
137088,note_on,,,,,0,0,6,,,,,4,,,59,92
137088,note_on,,,,,0,0,4,,,,,2,,,79,108
137088,note_off,,,,,384,0,5,,,,,3,,,74,0
137088,note_on,,,,,0,0,5,,,,,3,,,76,108
137088,note_on,,,,,0,0,1,,,,,0,,,79,92
137088,note_off,,,,,384,0,4,,,,,2,,,78,0
137088,note_off,,,,,384,0,1,,,,,0,,,78,0
137088,note_off,,,,,384,0,3,,,,,10,,,57,0
137088,note_on,,,,,64,0,9,,,,,7,,,55,45
137088,note_on,,,,,0,0,3,,,,,10,,,55,92
137088,note_off,,,,,384,0,2,,,,,1,,,74,0
137088,note_on,,,,,0,0,2,,,,,1,,,76,92
137088,note_on,,,,,64,0,8,,,,,6,,,43,75
137088,note_off,,,,,384,0,7,,,,,5,,,57,0
137088,note_on,,,,,0,0,7,,,,,5,,,55,92
137408,note_off,,,,,320,0,9,,,,,7,,,55,0
137408,note_off,,,,,320,0,8,,,,,6,,,43,0
137472,note_on,,,,,0,0,7,,,,,5,,,54,92
137472,note_off,,,,,384,0,1,,,,,0,,,79,0
137472,note_off,,,,,384,0,7,,,,,5,,,55,0
137472,note_on,,,,,0,0,4,,,,,2,,,79,108
137472,note_on,,,,,0,0,6,,,,,4,,,57,92
137472,note_off,,,,,384,0,4,,,,,2,,,79,0
137472,note_on,,,,,64,0,8,,,,,6,,,42,75
137472,note_off,,,,,384,0,6,,,,,4,,,59,0
137472,note_on,,,,,0,0,1,,,,,0,,,79,92
137472,note_on,,,,,0,0,2,,,,,1,,,76,92
137472,note_off,,,,,384,0,5,,,,,3,,,76,0
137472,note_on,,,,,0,0,5,,,,,3,,,76,108
137472,note_off,,,,,384,0,3,,,,,10,,,55,0
137472,note_on,,,,,64,0,9,,,,,7,,,54,45
137472,note_off,,,,,384,0,2,,,,,1,,,76,0
137472,note_on,,,,,0,0,3,,,,,10,,,54,92
137792,note_off,,,,,320,0,8,,,,,6,,,42,0
137792,note_off,,,,,320,0,9,,,,,7,,,54,0
137856,note_on,,,,,64,0,9,,,,,7,,,55,45
137856,note_on,,,,,0,0,3,,,,,10,,,55,92
137856,note_off,,,,,384,0,2,,,,,1,,,76,0
137856,note_on,,,,,0,0,1,,,,,0,,,78,92
137856,note_on,,,,,0,0,7,,,,,5,,,55,92
137856,note_on,,,,,0,0,2,,,,,1,,,74,92
137856,note_off,,,,,384,0,6,,,,,4,,,57,0
137856,note_on,,,,,0,0,6,,,,,4,,,59,92
137856,note_on,,,,,64,0,8,,,,,6,,,43,75
137856,note_off,,,,,384,0,7,,,,,5,,,54,0
137856,note_off,,,,,384,0,3,,,,,10,,,54,0
137856,note_off,,,,,384,0,1,,,,,0,,,79,0
137856,note_off,,,,,384,0,5,,,,,3,,,76,0
137856,note_on,,,,,0,0,5,,,,,3,,,74,108
137856,note_on,,,,,0,0,4,,,,,2,,,78,108
137856,note_off,,,,,384,0,4,,,,,2,,,79,0
138176,note_off,,,,,320,0,9,,,,,7,,,55,0
138176,note_off,,,,,320,0,8,,,,,6,,,43,0
138240,note_on,,,,,0,0,4,,,,,2,,,76,108
138240,note_off,,,,,384,0,1,,,,,0,,,78,0
138240,note_on,,,,,0,0,1,,,,,0,,,76,92
138240,note_on,,,,,0,0,3,,,,,10,,,57,92
138240,note_on,,,,,0,0,5,,,,,3,,,73,108
138240,note_off,,,,,384,0,2,,,,,1,,,74,0
138240,note_on,,,,,0,0,2,,,,,1,,,73,92
138240,note_off,,,,,384,0,7,,,,,5,,,55,0
138240,note_on,,,,,0,0,7,,,,,5,,,57,92
138240,note_off,,,,,384,0,4,,,,,2,,,78,0
138240,note_on,,,,,64,0,8,,,,,6,,,45,75
138240,note_off,,,,,384,0,5,,,,,3,,,74,0
138240,note_off,,,,,384,0,6,,,,,4,,,59,0
138240,note_off,,,,,384,0,3,,,,,10,,,55,0
138240,note_on,,,,,64,0,9,,,,,7,,,57,45
138240,note_on,,,,,0,0,6,,,,,4,,,61,92
138560,note_off,,,,,320,0,9,,,,,7,,,57,0
138560,note_off,,,,,320,0,8,,,,,6,,,45,0
138624,note_on,,,,,64,0,8,,,,,6,,,45,75
138624,note_off,,,,,384,0,4,,,,,2,,,76,0
138624,note_on,,,,,0,0,1,,,,,0,,,74,92
138624,note_on,,,,,0,0,4,,,,,2,,,74,108
138624,note_off,,,,,384,0,1,,,,,0,,,76,0
138624,note_off,,,,,384,0,7,,,,,5,,,57,0
138624,note_on,,,,,0,0,7,,,,,5,,,57,92
138624,note_off,,,,,384,0,5,,,,,3,,,73,0
138624,note_on,,,,,0,0,6,,,,,4,,,61,92
138624,note_on,,,,,0,0,3,,,,,10,,,57,92
138624,note_off,,,,,384,0,3,,,,,10,,,57,0
138624,note_on,,,,,64,0,9,,,,,7,,,57,45
138624,note_on,,,,,0,0,2,,,,,1,,,71,92
138624,note_on,,,,,0,0,5,,,,,3,,,71,108
138624,note_off,,,,,384,0,6,,,,,4,,,61,0
138624,note_off,,,,,384,0,2,,,,,1,,,73,0
138944,note_off,,,,,320,0,9,,,,,7,,,57,0
138944,note_off,,,,,320,0,8,,,,,6,,,45,0
139008,note_off,,,,,384,0,5,,,,,3,,,71,0
139008,note_off,,,,,384,0,3,,,,,10,,,57,0
139008,note_on,,,,,0,0,3,,,,,10,,,55,92
139008,note_on,,,,,0,0,1,,,,,0,,,76,92
139008,note_off,,,,,384,0,1,,,,,0,,,74,0
139008,note_off,,,,,384,0,6,,,,,4,,,61,0
139008,note_on,,,,,0,0,6,,,,,4,,,59,92
139008,note_on,,,,,64,0,9,,,,,7,,,55,45
139008,note_off,,,,,384,0,7,,,,,5,,,57,0
139008,note_on,,,,,0,0,2,,,,,1,,,73,92
139008,note_on,,,,,0,0,4,,,,,2,,,76,108
139008,note_on,,,,,0,0,5,,,,,3,,,73,108
139008,note_off,,,,,384,0,4,,,,,2,,,74,0
139008,note_off,,,,,384,0,2,,,,,1,,,71,0
139008,note_on,,,,,0,0,7,,,,,5,,,55,92
139008,note_on,,,,,64,0,8,,,,,6,,,43,75
139328,note_off,,,,,320,0,8,,,,,6,,,43,0
139328,note_off,,,,,320,0,9,,,,,7,,,55,0
139392,note_on,,,,,64,0,9,,,,,7,,,54,45
139392,note_on,,,,,0,0,7,,,,,5,,,54,92
139392,note_on,,,,,0,0,5,,,,,3,,,74,108
139392,note_off,,,,,384,0,5,,,,,3,,,73,0
139392,note_off,,,,,384,0,1,,,,,0,,,76,0
139392,note_on,,,,,0,0,1,,,,,0,,,78,92
139392,note_off,,,,,384,0,4,,,,,2,,,76,0
139392,note_off,,,,,384,0,7,,,,,5,,,55,0
139392,note_on,,,,,0,0,4,,,,,2,,,78,108
139392,note_on,,,,,64,0,8,,,,,6,,,42,75
139392,note_off,,,,,384,0,2,,,,,1,,,73,0
139392,note_on,,,,,0,0,3,,,,,10,,,54,92
139392,note_on,,,,,0,0,2,,,,,1,,,74,92
139392,note_off,,,,,384,0,3,,,,,10,,,55,0
139392,note_on,,,,,0,0,6,,,,,4,,,57,92
139392,note_off,,,,,384,0,6,,,,,4,,,59,0
139776,note_on,,,,,0,0,6,,,,,4,,,69,92
139776,note_off,,,,,384,0,6,,,,,4,,,57,0
139904,note_off,,,,,512,0,8,,,,,6,,,42,0
139904,note_off,,,,,512,0,9,,,,,7,,,54,0
139968,note_on,,,,,0,0,2,,,,,1,,,76,92
139968,note_off,,,,,576,0,2,,,,,1,,,74,0
139968,note_on,,,,,0,0,7,,,,,5,,,52,92
139968,note_off,,,,,576,0,7,,,,,5,,,54,0
139968,note_off,,,,,576,0,5,,,,,3,,,74,0
139968,note_off,,,,,576,0,4,,,,,2,,,78,0
139968,note_on,,,,,64,0,8,,,,,6,,,40,75
139968,note_on,,,,,0,0,3,,,,,10,,,52,92
139968,note_off,,,,,576,0,3,,,,,10,,,54,0
139968,note_on,,,,,64,0,9,,,,,7,,,52,45
139968,note_off,,,,,576,0,1,,,,,0,,,78,0
139968,note_on,,,,,0,0,1,,,,,0,,,79,92
139968,note_on,,,,,0,0,4,,,,,2,,,79,108
139968,note_on,,,,,0,0,5,,,,,3,,,76,108
140156,note_off,,,,,188,0,8,,,,,6,,,40,0
140156,note_off,,,,,188,0,9,,,,,7,,,52,0
140160,note_on,,,,,4,0,9,,,,,7,,,50,45
140160,note_on,,,,,0,0,4,,,,,2,,,81,108
140160,note_off,,,,,192,0,4,,,,,2,,,79,0
140160,note_on,,,,,0,0,3,,,,,10,,,50,92
140160,note_on,,,,,0,0,7,,,,,5,,,50,92
140160,note_off,,,,,192,0,1,,,,,0,,,79,0
140160,note_on,,,,,0,0,1,,,,,0,,,81,92
140160,note_on,,,,,4,0,8,,,,,6,,,38,75
140160,note_off,,,,,192,0,5,,,,,3,,,76,0
140160,note_off,,,,,192,0,7,,,,,5,,,52,0
140160,note_off,,,,,192,0,3,,,,,10,,,52,0
140160,note_on,,,,,0,0,6,,,,,4,,,62,92
140160,note_on,,,,,0,0,5,,,,,3,,,78,108
140160,note_off,,,,,192,0,2,,,,,1,,,76,0
140160,note_on,,,,,0,0,2,,,,,1,,,78,92
140160,note_off,,,,,384,0,6,,,,,4,,,69,0
140480,note_off,,,,,320,0,8,,,,,6,,,38,0
140480,note_off,,,,,320,0,9,,,,,7,,,50,0
140544,note_off,,,,,384,0,6,,,,,4,,,62,0
140544,note_off,,,,,384,0,4,,,,,2,,,81,0
140544,note_off,,,,,384,0,7,,,,,5,,,50,0
140544,note_on,,,,,0,0,7,,,,,5,,,55,92
140544,note_off,,,,,384,0,1,,,,,0,,,81,0
140544,note_on,,,,,0,0,1,,,,,0,,,79,92
140544,note_on,,,,,64,0,8,,,,,6,,,43,75
140544,note_on,,,,,0,0,4,,,,,2,,,79,108
140544,note_on,,,,,64,0,9,,,,,7,,,55,45
140544,note_off,,,,,384,0,2,,,,,1,,,78,0
140544,note_off,,,,,384,0,5,,,,,3,,,78,0
140544,note_on,,,,,0,0,5,,,,,3,,,76,108
140544,note_on,,,,,0,0,2,,,,,1,,,76,92
140544,note_off,,,,,384,0,3,,,,,10,,,50,0
140544,note_on,,,,,0,0,3,,,,,10,,,55,92
140544,note_on,,,,,0,0,6,,,,,4,,,71,92
140736,note_off,,,,,192,0,1,,,,,0,,,79,0
140736,note_on,,,,,0,0,1,,,,,0,,,78,92
140736,note_off,,,,,192,0,4,,,,,2,,,79,0
140736,note_on,,,,,0,0,4,,,,,2,,,78,108
140736,note_on,,,,,0,0,2,,,,,1,,,74,92
140736,note_off,,,,,192,0,2,,,,,1,,,76,0
140736,note_off,,,,,192,0,5,,,,,3,,,76,0
140736,note_on,,,,,0,0,5,,,,,3,,,74,108
140864,note_off,,,,,320,0,8,,,,,6,,,43,0
140864,note_off,,,,,320,0,9,,,,,7,,,55,0
140928,note_on,,,,,0,0,1,,,,,0,,,78,92
140928,note_on,,,,,0,0,7,,,,,5,,,57,92
140928,note_off,,,,,384,0,7,,,,,5,,,55,0
140928,note_on,,,,,0,0,2,,,,,1,,,74,92
140928,note_off,,,,,192,0,2,,,,,1,,,74,0
140928,note_off,,,,,192,0,1,,,,,0,,,78,0
140928,note_off,,,,,384,0,3,,,,,10,,,55,0
140928,note_on,,,,,0,0,6,,,,,4,,,64,92
140928,note_off,,,,,384,0,6,,,,,4,,,71,0
140928,note_on,,,,,64,0,9,,,,,7,,,57,45
140928,note_off,,,,,192,0,5,,,,,3,,,74,0
140928,note_off,,,,,192,0,4,,,,,2,,,78,0
140928,note_on,,,,,0,0,4,,,,,2,,,78,108
140928,note_on,,,,,0,0,5,,,,,3,,,74,108
140928,note_on,,,,,0,0,3,,,,,10,,,57,92
140928,note_on,,,,,64,0,8,,,,,6,,,45,75
140976,note_off,,,,,48,0,2,,,,,1,,,74,0
140976,note_on,,,,,0,0,2,,,,,1,,,73,92
140976,note_off,,,,,48,0,5,,,,,3,,,74,0
140976,note_on,,,,,0,0,5,,,,,3,,,73,108
140976,note_off,,,,,48,0,1,,,,,0,,,78,0
140976,note_on,,,,,0,0,1,,,,,0,,,76,92
140976,note_on,,,,,0,0,4,,,,,2,,,76,108
140976,note_off,,,,,48,0,4,,,,,2,,,78,0
141024,note_off,,,,,48,0,5,,,,,3,,,73,0
141024,note_off,,,,,48,0,4,,,,,2,,,76,0
141024,note_on,,,,,0,0,1,,,,,0,,,78,92
141024,note_on,,,,,0,0,4,,,,,2,,,78,108
141024,note_off,,,,,48,0,2,,,,,1,,,73,0
141024,note_on,,,,,0,0,2,,,,,1,,,74,92
141024,note_on,,,,,0,0,5,,,,,3,,,74,108
141024,note_off,,,,,48,0,1,,,,,0,,,76,0
141072,note_off,,,,,48,0,1,,,,,0,,,78,0
141072,note_off,,,,,48,0,5,,,,,3,,,74,0
141072,note_on,,,,,0,0,5,,,,,3,,,73,108
141072,note_off,,,,,48,0,4,,,,,2,,,78,0
141072,note_on,,,,,0,0,4,,,,,2,,,76,108
141072,note_off,,,,,48,0,2,,,,,1,,,74,0
141072,note_on,,,,,0,0,2,,,,,1,,,73,92
141072,note_on,,,,,0,0,1,,,,,0,,,76,92
141120,note_on,,,,,0,0,2,,,,,1,,,74,92
141120,note_off,,,,,48,0,5,,,,,3,,,73,0
141120,note_off,,,,,48,0,1,,,,,0,,,76,0
141120,note_off,,,,,48,0,2,,,,,1,,,73,0
141120,note_on,,,,,0,0,5,,,,,3,,,74,108
141120,note_on,,,,,0,0,1,,,,,0,,,78,92
141120,note_off,,,,,48,0,4,,,,,2,,,76,0
141120,note_on,,,,,0,0,4,,,,,2,,,78,108
141168,note_on,,,,,0,0,2,,,,,1,,,73,92
141168,note_on,,,,,0,0,1,,,,,0,,,76,92
141168,note_off,,,,,48,0,1,,,,,0,,,78,0
141168,note_on,,,,,0,0,5,,,,,3,,,73,108
141168,note_off,,,,,48,0,5,,,,,3,,,74,0
141168,note_on,,,,,0,0,4,,,,,2,,,76,108
141168,note_off,,,,,48,0,2,,,,,1,,,74,0
141168,note_off,,,,,48,0,4,,,,,2,,,78,0
141216,note_on,,,,,0,0,5,,,,,3,,,74,108
141216,note_on,,,,,0,0,4,,,,,2,,,78,108
141216,note_on,,,,,0,0,2,,,,,1,,,74,92
141216,note_off,,,,,48,0,2,,,,,1,,,73,0
141216,note_off,,,,,48,0,1,,,,,0,,,76,0
141216,note_on,,,,,0,0,1,,,,,0,,,78,92
141216,note_off,,,,,48,0,5,,,,,3,,,73,0
141216,note_off,,,,,48,0,4,,,,,2,,,76,0
141248,note_off,,,,,320,0,9,,,,,7,,,57,0
141248,note_off,,,,,320,0,8,,,,,6,,,45,0
141264,note_off,,,,,48,0,1,,,,,0,,,78,0
141264,note_on,,,,,0,0,1,,,,,0,,,76,92
141264,note_off,,,,,48,0,5,,,,,3,,,74,0
141264,note_off,,,,,48,0,4,,,,,2,,,78,0
141264,note_on,,,,,0,0,2,,,,,1,,,73,92
141264,note_off,,,,,48,0,2,,,,,1,,,74,0
141264,note_on,,,,,0,0,4,,,,,2,,,76,108
141264,note_on,,,,,0,0,5,,,,,3,,,73,108
141312,note_off,,,,,48,0,5,,,,,3,,,73,0
141312,note_off,,,,,384,0,7,,,,,5,,,57,0
141312,note_on,,,,,0,0,4,,,,,2,,,78,108
141312,note_on,,,,,64,0,8,,,,,6,,,33,75
141312,note_on,,,,,64,0,9,,,,,7,,,45,45
141312,note_off,,,,,48,0,4,,,,,2,,,76,0
141312,note_on,,,,,0,0,1,,,,,0,,,78,92
141312,note_off,,,,,48,0,1,,,,,0,,,76,0
141312,note_on,,,,,0,0,2,,,,,1,,,74,92
141312,note_off,,,,,48,0,2,,,,,1,,,73,0
141312,note_off,,,,,384,0,6,,,,,4,,,64,0
141312,note_on,,,,,0,0,3,,,,,10,,,45,92
141312,note_off,,,,,384,0,3,,,,,10,,,57,0
141312,note_on,,,,,0,0,5,,,,,3,,,74,108
141312,note_on,,,,,0,0,6,,,,,4,,,69,92
141312,note_on,,,,,0,0,7,,,,,5,,,45,92
141360,note_off,,,,,48,0,1,,,,,0,,,78,0
141360,note_on,,,,,0,0,1,,,,,0,,,76,92
141360,note_off,,,,,48,0,4,,,,,2,,,78,0
141360,note_on,,,,,0,0,2,,,,,1,,,73,92
141360,note_off,,,,,48,0,2,,,,,1,,,74,0
141360,note_on,,,,,0,0,4,,,,,2,,,76,108
141360,note_on,,,,,0,0,5,,,,,3,,,73,108
141360,note_off,,,,,48,0,5,,,,,3,,,74,0
141504,note_on,,,,,0,0,2,,,,,1,,,74,92
141504,note_off,,,,,144,0,1,,,,,0,,,76,0
141504,note_on,,,,,0,0,1,,,,,0,,,74,92
141504,note_off,,,,,144,0,2,,,,,1,,,73,0
141504,note_on,,,,,0,0,4,,,,,2,,,74,108
141504,note_off,,,,,144,0,5,,,,,3,,,73,0
141504,note_on,,,,,0,0,5,,,,,3,,,74,108
141504,note_off,,,,,144,0,4,,,,,2,,,76,0
141632,note_off,,,,,320,0,8,,,,,6,,,33,0
141632,note_off,,,,,320,0,9,,,,,7,,,45,0
141696,note_on,,,,,0,0,6,,,,,4,,,66,92
141696,note_on,,,,,0,0,3,,,,,10,,,50,92
141696,note_off,,,,,192,0,5,,,,,3,,,74,0
141696,set_tempo,,,,,130944,1,0,,1333333,,,,,,,
141696,note_on,,,,,0,0,2,,,,,1,,,74,92
141696,note_on,,,,,64,0,9,,,,,7,,,50,45
141696,note_on,,,,,0,0,5,,,,,3,,,74,108
141696,note_off,,,,,192,0,2,,,,,1,,,74,0
141696,note_on,,,,,64,0,8,,,,,6,,,38,75
141696,note_off,,,,,192,0,1,,,,,0,,,74,0
141696,note_on,,,,,0,0,1,,,,,0,,,74,92
141696,note_off,,,,,192,0,4,,,,,2,,,74,0
141696,note_off,,,,,384,0,7,,,,,5,,,45,0
141696,note_on,,,,,0,0,7,,,,,5,,,50,92
141696,note_off,,,,,384,0,3,,,,,10,,,45,0
141696,note_on,,,,,0,0,4,,,,,2,,,74,108
141696,note_off,,,,,384,0,6,,,,,4,,,69,0
142016,note_off,,,,,320,0,9,,,,,7,,,50,0
142016,note_off,,,,,320,0,8,,,,,6,,,38,0
142080,note_off,,,,,384,0,7,,,,,5,,,50,0
142080,note_on,,,,,0,0,7,,,,,5,,,57,92
142080,note_on,,,,,64,0,8,,,,,6,,,45,75
142080,note_on,,,,,0,0,6,,,,,4,,,64,92
142080,note_on,,,,,0,0,1,,,,,0,,,73,92
142080,note_on,,,,,64,0,9,,,,,7,,,57,45
142080,note_off,,,,,384,0,1,,,,,0,,,74,0
142080,note_off,,,,,384,0,6,,,,,4,,,66,0
142080,note_off,,,,,384,0,2,,,,,1,,,74,0
142080,note_on,,,,,0,0,2,,,,,1,,,64,92
142080,note_on,,,,,0,0,5,,,,,3,,,64,108
142080,note_on,,,,,0,0,4,,,,,2,,,73,108
142080,note_off,,,,,384,0,4,,,,,2,,,74,0
142080,note_off,,,,,384,0,5,,,,,3,,,74,0
142080,set_tempo,,,,,384,1,0,,666666,,,,,,,
142080,note_off,,,,,384,0,3,,,,,10,,,50,0
142080,note_on,,,,,0,0,3,,,,,10,,,57,92
142400,note_off,,,,,320,0,8,,,,,6,,,45,0
142400,note_off,,,,,320,0,9,,,,,7,,,57,0
142464,note_on,,,,,0,0,2,,,,,1,,,68,92
142464,note_on,,,,,0,0,1,,,,,0,,,74,92
142464,note_off,,,,,384,0,2,,,,,1,,,64,0
142464,note_off,,,,,384,0,1,,,,,0,,,73,0
142464,note_on,,,,,0,0,6,,,,,4,,,62,92
142464,note_off,,,,,384,0,3,,,,,10,,,57,0
142464,note_on,,,,,0,0,3,,,,,10,,,59,92
142464,note_off,,,,,384,0,7,,,,,5,,,57,0
142464,note_off,,,,,384,0,6,,,,,4,,,64,0
142464,note_off,,,,,384,0,4,,,,,2,,,73,0
142464,note_off,,,,,384,0,5,,,,,3,,,64,0
142464,note_on,,,,,0,0,5,,,,,3,,,68,108
142464,note_on,,,,,0,0,7,,,,,5,,,59,92
142464,note_on,,,,,64,0,8,,,,,6,,,47,75
142464,note_on,,,,,0,0,4,,,,,2,,,74,108
142464,note_on,,,,,64,0,9,,,,,7,,,59,45
142784,note_off,,,,,320,0,8,,,,,6,,,47,0
142784,note_off,,,,,320,0,9,,,,,7,,,59,0
142848,note_on,,,,,0,0,6,,,,,4,,,61,92
142848,note_on,,,,,0,0,4,,,,,2,,,76,108
142848,note_off,,,,,384,0,3,,,,,10,,,59,0
142848,note_off,,,,,384,0,1,,,,,0,,,74,0
142848,note_on,,,,,0,0,1,,,,,0,,,76,92
142848,note_on,,,,,0,0,2,,,,,1,,,69,92
142848,note_off,,,,,384,0,2,,,,,1,,,68,0
142848,note_on,,,,,64,0,9,,,,,7,,,61,45
142848,note_off,,,,,384,0,5,,,,,3,,,68,0
142848,note_on,,,,,0,0,5,,,,,3,,,69,108
142848,note_off,,,,,384,0,6,,,,,4,,,62,0
142848,note_off,,,,,384,0,7,,,,,5,,,59,0
142848,note_on,,,,,0,0,7,,,,,5,,,61,92
142848,note_off,,,,,384,0,4,,,,,2,,,74,0
142848,note_on,,,,,64,0,8,,,,,6,,,49,75
142848,note_on,,,,,0,0,3,,,,,10,,,61,92
143360,note_off,,,,,512,0,8,,,,,6,,,49,0
143360,note_off,,,,,512,0,9,,,,,7,,,61,0
143424,note_on,,,,,0,0,7,,,,,5,,,59,92
143424,note_off,,,,,576,0,6,,,,,4,,,61,0
143424,note_off,,,,,576,0,4,,,,,2,,,76,0
143424,note_on,,,,,0,0,4,,,,,2,,,74,108
143424,note_on,,,,,64,0,9,,,,,7,,,59,45
143424,note_on,,,,,0,0,1,,,,,0,,,74,92
143424,note_off,,,,,576,0,3,,,,,10,,,61,0
143424,note_off,,,,,576,0,7,,,,,5,,,61,0
143424,note_on,,,,,64,0,8,,,,,6,,,47,75
143424,note_on,,,,,0,0,3,,,,,10,,,59,92
143424,note_on,,,,,0,0,6,,,,,4,,,62,92
143424,note_off,,,,,576,0,1,,,,,0,,,76,0
143612,note_off,,,,,188,0,9,,,,,7,,,59,0
143612,note_off,,,,,188,0,8,,,,,6,,,47,0
143616,note_on,,,,,0,0,3,,,,,10,,,57,92
143616,note_on,,,,,0,0,2,,,,,1,,,69,92
143616,note_off,,,,,768,0,2,,,,,1,,,69,0
143616,note_on,,,,,0,0,5,,,,,3,,,69,108
143616,note_on,,,,,0,0,6,,,,,4,,,64,92
143616,note_off,,,,,192,0,6,,,,,4,,,62,0
143616,note_off,,,,,192,0,3,,,,,10,,,59,0
143616,note_off,,,,,768,0,5,,,,,3,,,69,0
143616,note_off,,,,,192,0,1,,,,,0,,,74,0
143616,note_on,,,,,0,0,7,,,,,5,,,57,92
143616,note_on,,,,,0,0,4,,,,,2,,,73,108
143616,note_off,,,,,192,0,4,,,,,2,,,74,0
143616,note_on,,,,,4,0,8,,,,,6,,,45,75
143616,note_on,,,,,4,0,9,,,,,7,,,57,45
143616,note_on,,,,,0,0,1,,,,,0,,,73,92
143616,note_off,,,,,192,0,7,,,,,5,,,59,0
143936,note_off,,,,,320,0,8,,,,,6,,,45,0
143936,note_off,,,,,320,0,9,,,,,7,,,57,0
144000,note_on,,,,,0,0,1,,,,,0,,,71,92
144000,note_on,,,,,0,0,3,,,,,10,,,50,92
144000,note_on,,,,,0,0,4,,,,,2,,,71,108
144000,note_off,,,,,384,0,5,,,,,3,,,69,0
144000,note_off,,,,,384,0,3,,,,,10,,,57,0
144000,note_on,,,,,0,0,6,,,,,4,,,66,92
144000,note_on,,,,,0,0,7,,,,,5,,,50,92
144000,note_on,,,,,0,0,5,,,,,3,,,69,108
144000,note_off,,,,,384,0,4,,,,,2,,,73,0
144000,note_on,,,,,0,0,2,,,,,1,,,69,92
144000,note_off,,,,,384,0,7,,,,,5,,,57,0
144000,note_off,,,,,384,0,6,,,,,4,,,64,0
144000,note_on,,,,,64,0,8,,,,,6,,,38,75
144000,note_off,,,,,384,0,1,,,,,0,,,73,0
144000,note_on,,,,,64,0,9,,,,,7,,,50,45
144000,note_off,,,,,384,0,2,,,,,1,,,69,0
144320,note_off,,,,,320,0,8,,,,,6,,,38,0
144320,note_off,,,,,320,0,9,,,,,7,,,50,0
144384,note_off,,,,,384,0,6,,,,,4,,,66,0
144384,note_on,,,,,0,0,6,,,,,4,,,64,92
144384,note_off,,,,,384,0,5,,,,,3,,,69,0
144384,note_on,,,,,64,0,8,,,,,6,,,40,75
144384,note_on,,,,,0,0,5,,,,,3,,,68,108
144384,note_on,,,,,0,0,1,,,,,0,,,71,92
144384,note_off,,,,,384,0,3,,,,,10,,,50,0
144384,note_on,,,,,0,0,7,,,,,5,,,52,92
144384,note_on,,,,,0,0,3,,,,,10,,,52,92
144384,note_on,,,,,0,0,4,,,,,2,,,71,108
144384,note_off,,,,,384,0,4,,,,,2,,,71,0
144384,note_on,,,,,0,0,2,,,,,1,,,68,92
144384,note_off,,,,,384,0,2,,,,,1,,,69,0
144384,note_on,,,,,64,0,9,,,,,7,,,52,45
144384,note_off,,,,,384,0,7,,,,,5,,,50,0
144384,note_off,,,,,384,0,1,,,,,0,,,71,0
144704,note_off,,,,,320,0,9,,,,,7,,,52,0
144704,note_off,,,,,320,0,8,,,,,6,,,40,0
144768,note_on,,,,,0,0,3,,,,,10,,,54,92
144768,note_off,,,,,384,0,3,,,,,10,,,52,0
144768,note_on,,,,,0,0,2,,,,,1,,,69,92
144768,note_off,,,,,384,0,2,,,,,1,,,68,0
144768,note_on,,,,,64,0,9,,,,,7,,,54,45
144768,note_off,,,,,384,0,5,,,,,3,,,68,0
144768,note_on,,,,,0,0,6,,,,,4,,,63,92
144768,note_on,,,,,0,0,1,,,,,0,,,71,92
144768,note_off,,,,,384,0,1,,,,,0,,,71,0
144768,note_on,,,,,0,0,5,,,,,3,,,69,108
144768,note_on,,,,,64,0,8,,,,,6,,,42,75
144768,note_on,,,,,0,0,4,,,,,2,,,71,108
144768,note_off,,,,,384,0,4,,,,,2,,,71,0
144768,note_off,,,,,384,0,7,,,,,5,,,52,0
144768,note_off,,,,,384,0,6,,,,,4,,,64,0
144768,note_on,,,,,0,0,7,,,,,5,,,54,92
145088,note_off,,,,,320,0,8,,,,,6,,,42,0
145088,note_off,,,,,320,0,9,,,,,7,,,54,0
145152,note_off,,,,,384,0,7,,,,,5,,,54,0
145152,note_on,,,,,0,0,7,,,,,5,,,52,92
145152,note_off,,,,,384,0,2,,,,,1,,,69,0
145152,note_on,,,,,64,0,9,,,,,7,,,52,45
145152,note_on,,,,,0,0,4,,,,,2,,,71,108
145152,note_on,,,,,0,0,2,,,,,1,,,68,92
145152,note_on,,,,,64,0,8,,,,,6,,,40,75
145152,note_on,,,,,0,0,5,,,,,3,,,68,108
145152,note_off,,,,,384,0,5,,,,,3,,,69,0
145152,note_off,,,,,384,0,3,,,,,10,,,54,0
145152,note_off,,,,,384,0,1,,,,,0,,,71,0
145152,note_on,,,,,0,0,1,,,,,0,,,71,92
145152,note_off,,,,,384,0,4,,,,,2,,,71,0
145152,note_on,,,,,0,0,3,,,,,10,,,52,92
145152,note_off,,,,,384,0,6,,,,,4,,,63,0
145152,note_on,,,,,0,0,6,,,,,4,,,64,92
145244,note_off,,,,,92,0,1,,,,,0,,,71,0
145248,note_on,,,,,4,0,1,,,,,0,,,76,92
145340,note_off,,,,,92,0,1,,,,,0,,,76,0
145344,note_on,,,,,4,0,1,,,,,0,,,74,92
145436,note_off,,,,,92,0,1,,,,,0,,,74,0
145440,note_on,,,,,4,0,1,,,,,0,,,73,92
145472,note_off,,,,,320,0,8,,,,,6,,,40,0
145472,note_off,,,,,320,0,9,,,,,7,,,52,0
145532,note_off,,,,,92,0,1,,,,,0,,,73,0
145536,note_off,,,,,384,0,7,,,,,5,,,52,0
145536,note_on,,,,,4,0,1,,,,,0,,,71,92
145536,note_off,,,,,384,0,3,,,,,10,,,52,0
145536,note_off,,,,,384,0,5,,,,,3,,,68,0
145536,note_off,,,,,384,0,4,,,,,2,,,71,0
145536,note_off,,,,,384,0,2,,,,,1,,,68,0
145536,note_off,,,,,384,0,6,,,,,4,,,64,0
145628,note_off,,,,,92,0,1,,,,,0,,,71,0
145632,note_on,,,,,4,0,1,,,,,0,,,69,92
145724,note_off,,,,,92,0,1,,,,,0,,,69,0
145728,note_on,,,,,4,0,1,,,,,0,,,68,92
145820,note_off,,,,,92,0,1,,,,,0,,,68,0
145824,note_on,,,,,4,0,1,,,,,0,,,66,92
145916,note_off,,,,,92,0,1,,,,,0,,,66,0
145920,note_on,,,,,4,0,1,,,,,0,,,64,92
146012,note_off,,,,,92,0,1,,,,,0,,,64,0
146016,note_on,,,,,4,0,1,,,,,0,,,76,92
146108,note_off,,,,,92,0,1,,,,,0,,,76,0
146112,note_on,,,,,4,0,1,,,,,0,,,71,92
146204,note_off,,,,,92,0,1,,,,,0,,,71,0
146208,note_on,,,,,4,0,1,,,,,0,,,68,92
146300,note_off,,,,,92,0,1,,,,,0,,,68,0
146304,note_on,,,,,4,0,1,,,,,0,,,64,92
146304,note_on,,,,,768,0,7,,,,,5,,,56,45
146304,note_on,,,,,768,0,2,,,,,1,,,71,45
146304,note_on,,,,,768,0,6,,,,,4,,,56,45
146304,note_on,,,,,832,0,8,,,,,6,,,44,30
146304,note_on,,,,,768,0,3,,,,,10,,,56,45
146304,note_on,,,,,832,0,9,,,,,7,,,56,30
146304,note_on,,,,,768,0,4,,,,,2,,,64,60
146304,note_on,,,,,768,0,5,,,,,3,,,59,60
146396,note_off,,,,,92,0,1,,,,,0,,,64,0
146400,note_on,,,,,4,0,1,,,,,0,,,76,92
146492,note_off,,,,,92,0,1,,,,,0,,,76,0
146496,note_on,,,,,4,0,1,,,,,0,,,74,92
146588,note_off,,,,,92,0,1,,,,,0,,,74,0
146592,note_on,,,,,4,0,1,,,,,0,,,73,92
146624,note_off,,,,,320,0,8,,,,,6,,,44,0
146624,note_off,,,,,320,0,9,,,,,7,,,56,0
146684,note_off,,,,,92,0,1,,,,,0,,,73,0
146688,note_off,,,,,384,0,3,,,,,10,,,56,0
146688,note_off,,,,,384,0,2,,,,,1,,,71,0
146688,note_off,,,,,384,0,7,,,,,5,,,56,0
146688,note_off,,,,,384,0,5,,,,,3,,,59,0
146688,note_off,,,,,384,0,6,,,,,4,,,56,0
146688,note_on,,,,,4,0,1,,,,,0,,,71,92
146688,note_off,,,,,384,0,4,,,,,2,,,64,0
146780,note_off,,,,,92,0,1,,,,,0,,,71,0
146784,note_on,,,,,4,0,1,,,,,0,,,69,92
146876,note_off,,,,,92,0,1,,,,,0,,,69,0
146880,note_on,,,,,4,0,1,,,,,0,,,68,92
146972,note_off,,,,,92,0,1,,,,,0,,,68,0
146976,note_on,,,,,4,0,1,,,,,0,,,66,92
147068,note_off,,,,,92,0,1,,,,,0,,,66,0
147072,note_on,,,,,4,0,1,,,,,0,,,64,92
147164,note_off,,,,,92,0,1,,,,,0,,,64,0
147168,note_on,,,,,4,0,1,,,,,0,,,76,92
147260,note_off,,,,,92,0,1,,,,,0,,,76,0
147264,note_on,,,,,4,0,1,,,,,0,,,74,92
147356,note_off,,,,,92,0,1,,,,,0,,,74,0
147360,note_on,,,,,4,0,1,,,,,0,,,76,92
147452,note_off,,,,,92,0,1,,,,,0,,,76,0
147456,note_on,,,,,768,0,2,,,,,1,,,69,45
147456,note_on,,,,,768,0,3,,,,,10,,,57,45
147456,note_on,,,,,768,0,5,,,,,3,,,61,60
147456,note_on,,,,,768,0,4,,,,,2,,,64,60
147456,note_on,,,,,832,0,8,,,,,6,,,45,30
147456,note_on,,,,,768,0,7,,,,,5,,,57,45
147456,note_on,,,,,768,0,6,,,,,4,,,64,45
147456,note_on,,,,,4,0,1,,,,,0,,,73,92
147456,note_on,,,,,832,0,9,,,,,7,,,57,30
147548,note_off,,,,,92,0,1,,,,,0,,,73,0
147552,note_on,,,,,4,0,1,,,,,0,,,81,92
147644,note_off,,,,,92,0,1,,,,,0,,,81,0
147648,note_on,,,,,4,0,1,,,,,0,,,80,92
147740,note_off,,,,,92,0,1,,,,,0,,,80,0
147744,note_on,,,,,4,0,1,,,,,0,,,78,92
147776,note_off,,,,,320,0,9,,,,,7,,,57,0
147776,note_off,,,,,320,0,8,,,,,6,,,45,0
147836,note_off,,,,,92,0,1,,,,,0,,,78,0
147840,note_off,,,,,384,0,2,,,,,1,,,69,0
147840,note_off,,,,,384,0,4,,,,,2,,,64,0
147840,note_off,,,,,384,0,7,,,,,5,,,57,0
147840,note_off,,,,,384,0,3,,,,,10,,,57,0
147840,note_on,,,,,4,0,1,,,,,0,,,76,92
147840,note_off,,,,,384,0,5,,,,,3,,,61,0
147840,note_off,,,,,384,0,6,,,,,4,,,64,0
147932,note_off,,,,,92,0,1,,,,,0,,,76,0
147936,note_on,,,,,4,0,1,,,,,0,,,74,92
148028,note_off,,,,,92,0,1,,,,,0,,,74,0
148032,note_on,,,,,4,0,1,,,,,0,,,73,92
148124,note_off,,,,,92,0,1,,,,,0,,,73,0
148128,note_on,,,,,4,0,1,,,,,0,,,71,92
148220,note_off,,,,,92,0,1,,,,,0,,,71,0
148224,note_on,,,,,4,0,1,,,,,0,,,69,92
148316,note_off,,,,,92,0,1,,,,,0,,,69,0
148320,note_on,,,,,4,0,1,,,,,0,,,81,92
148412,note_off,,,,,92,0,1,,,,,0,,,81,0
148416,note_on,,,,,4,0,1,,,,,0,,,76,92
148508,note_off,,,,,92,0,1,,,,,0,,,76,0
148512,note_on,,,,,4,0,1,,,,,0,,,73,92
148604,note_off,,,,,92,0,1,,,,,0,,,73,0
148608,note_on,,,,,768,0,7,,,,,5,,,49,45
148608,note_on,,,,,768,0,3,,,,,10,,,61,45
148608,note_on,,,,,832,0,9,,,,,7,,,49,30
148608,note_on,,,,,768,0,6,,,,,4,,,57,45
148608,note_on,,,,,768,0,5,,,,,3,,,73,60
148608,note_on,,,,,768,0,2,,,,,1,,,64,45
148608,note_on,,,,,4,0,1,,,,,0,,,73,92
148608,note_on,,,,,832,0,8,,,,,6,,,37,30
148608,note_on,,,,,768,0,4,,,,,2,,,64,60
148700,note_off,,,,,92,0,1,,,,,0,,,73,0
148704,note_on,,,,,4,0,1,,,,,0,,,81,92
148796,note_off,,,,,92,0,1,,,,,0,,,81,0
148800,note_on,,,,,4,0,1,,,,,0,,,80,92
148892,note_off,,,,,92,0,1,,,,,0,,,80,0
148896,note_on,,,,,4,0,1,,,,,0,,,78,92
148928,note_off,,,,,320,0,9,,,,,7,,,49,0
148928,note_off,,,,,320,0,8,,,,,6,,,37,0
148988,note_off,,,,,92,0,1,,,,,0,,,78,0
148992,note_on,,,,,4,0,1,,,,,0,,,76,92
148992,note_off,,,,,384,0,4,,,,,2,,,64,0
148992,note_off,,,,,384,0,7,,,,,5,,,49,0
148992,note_off,,,,,384,0,3,,,,,10,,,61,0
148992,note_off,,,,,384,0,5,,,,,3,,,73,0
148992,note_off,,,,,384,0,6,,,,,4,,,57,0
148992,note_off,,,,,384,0,2,,,,,1,,,64,0
149084,note_off,,,,,92,0,1,,,,,0,,,76,0
149088,note_on,,,,,4,0,1,,,,,0,,,74,92
149180,note_off,,,,,92,0,1,,,,,0,,,74,0
149184,note_on,,,,,4,0,1,,,,,0,,,73,92
149276,note_off,,,,,92,0,1,,,,,0,,,73,0
149280,note_on,,,,,4,0,1,,,,,0,,,71,92
149372,note_off,,,,,92,0,1,,,,,0,,,71,0
149376,note_on,,,,,4,0,1,,,,,0,,,69,92
149468,note_off,,,,,92,0,1,,,,,0,,,69,0
149472,note_on,,,,,4,0,1,,,,,0,,,81,92
149564,note_off,,,,,92,0,1,,,,,0,,,81,0
149568,note_on,,,,,4,0,1,,,,,0,,,80,92
149660,note_off,,,,,92,0,1,,,,,0,,,80,0
149664,note_on,,,,,4,0,1,,,,,0,,,81,92
149756,note_off,,,,,92,0,1,,,,,0,,,81,0
149760,note_on,,,,,768,0,3,,,,,10,,,62,45
149760,note_on,,,,,832,0,9,,,,,7,,,50,30
149760,note_on,,,,,768,0,7,,,,,5,,,50,45
149760,note_on,,,,,832,0,8,,,,,6,,,38,30
149760,note_on,,,,,768,0,6,,,,,4,,,62,45
149760,note_on,,,,,768,0,5,,,,,3,,,69,60
149760,note_on,,,,,768,0,2,,,,,1,,,66,45
149760,note_on,,,,,768,0,4,,,,,2,,,66,60
149760,note_on,,,,,4,0,1,,,,,0,,,78,92
149852,note_off,,,,,92,0,1,,,,,0,,,78,0
149856,note_on,,,,,4,0,1,,,,,0,,,81,92
149948,note_off,,,,,92,0,1,,,,,0,,,81,0
149952,note_on,,,,,4,0,1,,,,,0,,,80,92
150044,note_off,,,,,92,0,1,,,,,0,,,80,0
150048,note_on,,,,,4,0,1,,,,,0,,,81,92
150080,note_off,,,,,320,0,9,,,,,7,,,50,0
150080,note_off,,,,,320,0,8,,,,,6,,,38,0
150140,note_off,,,,,92,0,1,,,,,0,,,81,0
150144,note_off,,,,,384,0,2,,,,,1,,,66,0
150144,note_on,,,,,0,0,4,,,,,2,,,78,60
150144,note_off,,,,,384,0,6,,,,,4,,,62,0
150144,note_on,,,,,0,0,6,,,,,4,,,66,45
150144,note_on,,,,,4,0,1,,,,,0,,,78,92
150144,note_on,,,,,0,0,5,,,,,3,,,71,60
150144,note_off,,,,,384,0,5,,,,,3,,,69,0
150144,note_on,,,,,0,0,7,,,,,5,,,51,45
150144,note_off,,,,,384,0,7,,,,,5,,,50,0
150144,note_on,,,,,64,0,9,,,,,7,,,51,30
150144,note_on,,,,,0,0,3,,,,,10,,,63,45
150144,note_off,,,,,384,0,3,,,,,10,,,62,0
150144,note_on,,,,,0,0,2,,,,,1,,,71,45
150144,note_on,,,,,64,0,8,,,,,6,,,39,30
150144,note_off,,,,,384,0,4,,,,,2,,,66,0
150236,note_off,,,,,92,0,1,,,,,0,,,78,0
150240,note_on,,,,,4,0,1,,,,,0,,,83,92
150332,note_off,,,,,92,0,1,,,,,0,,,83,0
150336,note_on,,,,,4,0,1,,,,,0,,,81,92
150428,note_off,,,,,92,0,1,,,,,0,,,81,0
150432,note_on,,,,,4,0,1,,,,,0,,,83,92
150464,note_off,,,,,320,0,9,,,,,7,,,51,0
150464,note_off,,,,,320,0,8,,,,,6,,,39,0
150524,note_off,,,,,92,0,1,,,,,0,,,83,0
150528,note_off,,,,,384,0,3,,,,,10,,,63,0
150528,note_off,,,,,384,0,5,,,,,3,,,71,0
150528,note_off,,,,,384,0,7,,,,,5,,,51,0
150528,note_off,,,,,384,0,4,,,,,2,,,78,0
150528,note_off,,,,,384,0,2,,,,,1,,,71,0
150528,note_off,,,,,384,0,6,,,,,4,,,66,0
150528,note_on,,,,,4,0,1,,,,,0,,,78,92
150620,note_off,,,,,92,0,1,,,,,0,,,78,0
150624,note_on,,,,,4,0,1,,,,,0,,,83,92
150716,note_off,,,,,92,0,1,,,,,0,,,83,0
150720,note_on,,,,,4,0,1,,,,,0,,,81,92
150812,note_off,,,,,92,0,1,,,,,0,,,81,0
150816,note_on,,,,,4,0,1,,,,,0,,,83,92
150908,note_off,,,,,92,0,1,,,,,0,,,83,0
150912,note_on,,,,,384,0,3,,,,,10,,,52,45
150912,note_on,,,,,384,0,2,,,,,1,,,71,45
150912,note_on,,,,,4,0,1,,,,,0,,,80,92
150912,note_on,,,,,384,0,5,,,,,3,,,71,60
150912,note_on,,,,,384,0,7,,,,,5,,,52,45
150912,note_on,,,,,448,0,8,,,,,6,,,40,30
150912,note_on,,,,,384,0,6,,,,,4,,,64,45
150912,note_on,,,,,384,0,4,,,,,2,,,68,60
150912,note_on,,,,,448,0,9,,,,,7,,,52,30
151004,note_off,,,,,92,0,1,,,,,0,,,80,0
151008,note_on,,,,,4,0,1,,,,,0,,,83,92
151100,note_off,,,,,92,0,1,,,,,0,,,83,0
151104,note_on,,,,,4,0,1,,,,,0,,,81,92
151196,note_off,,,,,92,0,1,,,,,0,,,81,0
151200,note_on,,,,,4,0,1,,,,,0,,,83,92
151232,note_off,,,,,320,0,8,,,,,6,,,40,0
151232,note_off,,,,,320,0,9,,,,,7,,,52,0
151292,note_off,,,,,92,0,1,,,,,0,,,83,0
151296,note_on,,,,,0,0,3,,,,,10,,,53,45
151296,note_on,,,,,0,0,2,,,,,1,,,73,45
151296,note_off,,,,,384,0,2,,,,,1,,,71,0
151296,note_on,,,,,0,0,6,,,,,4,,,68,45
151296,note_off,,,,,384,0,6,,,,,4,,,64,0
151296,note_on,,,,,4,0,1,,,,,0,,,80,92
151296,note_on,,,,,0,0,5,,,,,3,,,73,60
151296,note_off,,,,,384,0,5,,,,,3,,,71,0
151296,note_off,,,,,384,0,4,,,,,2,,,68,0
151296,note_on,,,,,0,0,4,,,,,2,,,80,60
151296,note_on,,,,,64,0,8,,,,,6,,,41,30
151296,note_off,,,,,384,0,3,,,,,10,,,52,0
151296,note_on,,,,,0,0,7,,,,,5,,,53,45
151296,note_on,,,,,64,0,9,,,,,7,,,53,30
151296,note_off,,,,,384,0,7,,,,,5,,,52,0
151388,note_off,,,,,92,0,1,,,,,0,,,80,0
151392,note_on,,,,,4,0,1,,,,,0,,,85,92
151484,note_off,,,,,92,0,1,,,,,0,,,85,0
151488,note_on,,,,,4,0,1,,,,,0,,,83,92
151580,note_off,,,,,92,0,1,,,,,0,,,83,0
151584,note_on,,,,,4,0,1,,,,,0,,,85,92
151616,note_off,,,,,320,0,9,,,,,7,,,53,0
151616,note_off,,,,,320,0,8,,,,,6,,,41,0
151676,note_off,,,,,92,0,1,,,,,0,,,85,0
151680,note_off,,,,,384,0,4,,,,,2,,,80,0
151680,note_off,,,,,384,0,7,,,,,5,,,53,0
151680,note_on,,,,,4,0,1,,,,,0,,,80,92
151680,note_off,,,,,384,0,5,,,,,3,,,73,0
151680,note_off,,,,,384,0,6,,,,,4,,,68,0
151680,note_off,,,,,384,0,2,,,,,1,,,73,0
151680,note_off,,,,,384,0,3,,,,,10,,,53,0
151772,note_off,,,,,92,0,1,,,,,0,,,80,0
151776,note_on,,,,,4,0,1,,,,,0,,,85,92
151868,note_off,,,,,92,0,1,,,,,0,,,85,0
151872,note_on,,,,,4,0,1,,,,,0,,,83,92
151964,note_off,,,,,92,0,1,,,,,0,,,83,0
151968,note_on,,,,,4,0,1,,,,,0,,,85,92
152060,note_off,,,,,92,0,1,,,,,0,,,85,0
152064,note_on,,,,,448,0,9,,,,,7,,,54,30
152064,note_on,,,,,384,0,4,,,,,2,,,69,60
152064,note_on,,,,,384,0,5,,,,,3,,,73,60
152064,note_on,,,,,384,0,6,,,,,4,,,66,45
152064,note_on,,,,,448,0,8,,,,,6,,,42,30
152064,note_on,,,,,4,0,1,,,,,0,,,81,92
152064,note_on,,,,,384,0,2,,,,,1,,,73,45
152064,note_on,,,,,384,0,3,,,,,10,,,54,45
152064,note_on,,,,,384,0,7,,,,,5,,,54,45
152156,note_off,,,,,92,0,1,,,,,0,,,81,0
152160,note_on,,,,,4,0,1,,,,,0,,,85,92
152252,note_off,,,,,92,0,1,,,,,0,,,85,0
152256,note_on,,,,,4,0,1,,,,,0,,,83,92
152348,note_off,,,,,92,0,1,,,,,0,,,83,0
152352,note_on,,,,,4,0,1,,,,,0,,,85,92
152384,note_off,,,,,320,0,9,,,,,7,,,54,0
152384,note_off,,,,,320,0,8,,,,,6,,,42,0
152444,note_off,,,,,92,0,1,,,,,0,,,85,0
152448,note_on,,,,,0,0,2,,,,,1,,,74,45
152448,note_on,,,,,0,0,6,,,,,4,,,66,45
152448,note_on,,,,,4,0,1,,,,,0,,,81,92
152448,note_off,,,,,384,0,6,,,,,4,,,66,0
152448,note_off,,,,,384,0,2,,,,,1,,,73,0
152448,note_on,,,,,64,0,8,,,,,6,,,30,30
152448,note_on,,,,,0,0,7,,,,,5,,,42,45
152448,note_on,,,,,0,0,4,,,,,2,,,81,60
152448,note_off,,,,,384,0,4,,,,,2,,,69,0
152448,note_on,,,,,0,0,3,,,,,10,,,42,45
152448,note_off,,,,,384,0,7,,,,,5,,,54,0
152448,note_off,,,,,384,0,5,,,,,3,,,73,0
152448,note_on,,,,,0,0,5,,,,,3,,,74,60
152448,note_on,,,,,64,0,9,,,,,7,,,42,30
152448,note_off,,,,,384,0,3,,,,,10,,,54,0
152540,note_off,,,,,92,0,1,,,,,0,,,81,0
152544,note_on,,,,,4,0,1,,,,,0,,,86,92
152636,note_off,,,,,92,0,1,,,,,0,,,86,0
152640,note_on,,,,,4,0,1,,,,,0,,,85,92
152732,note_off,,,,,92,0,1,,,,,0,,,85,0
152736,note_on,,,,,4,0,1,,,,,0,,,86,92
152768,note_off,,,,,320,0,8,,,,,6,,,30,0
152768,note_off,,,,,320,0,9,,,,,7,,,42,0
152828,note_off,,,,,92,0,1,,,,,0,,,86,0
152832,note_off,,,,,384,0,6,,,,,4,,,66,0
152832,note_off,,,,,384,0,2,,,,,1,,,74,0
152832,note_off,,,,,384,0,3,,,,,10,,,42,0
152832,note_off,,,,,384,0,7,,,,,5,,,42,0
152832,note_on,,,,,4,0,1,,,,,0,,,81,92
152832,note_off,,,,,384,0,4,,,,,2,,,81,0
152832,note_off,,,,,384,0,5,,,,,3,,,74,0
152924,note_off,,,,,92,0,1,,,,,0,,,81,0
152928,note_on,,,,,4,0,1,,,,,0,,,86,92
153020,note_off,,,,,92,0,1,,,,,0,,,86,0
153024,note_on,,,,,4,0,1,,,,,0,,,85,92
153116,note_off,,,,,92,0,1,,,,,0,,,85,0
153120,note_on,,,,,4,0,1,,,,,0,,,86,92
153212,note_off,,,,,92,0,1,,,,,0,,,86,0
153216,note_on,,,,,4,0,1,,,,,0,,,83,92
153216,note_on,,,,,384,0,2,,,,,1,,,76,45
153216,note_on,,,,,448,0,9,,,,,7,,,56,30
153216,note_on,,,,,384,0,7,,,,,5,,,56,45
153216,note_on,,,,,384,0,6,,,,,4,,,64,45
153216,note_on,,,,,384,0,4,,,,,2,,,71,60
153216,note_on,,,,,384,0,3,,,,,10,,,56,45
153216,note_on,,,,,448,0,8,,,,,6,,,44,30
153216,note_on,,,,,384,0,5,,,,,3,,,76,60
153308,note_off,,,,,92,0,1,,,,,0,,,83,0
153312,note_on,,,,,4,0,1,,,,,0,,,76,92
153404,note_off,,,,,92,0,1,,,,,0,,,76,0
153408,note_on,,,,,4,0,1,,,,,0,,,80,92
153500,note_off,,,,,92,0,1,,,,,0,,,80,0
153504,note_on,,,,,4,0,1,,,,,0,,,83,92
153536,note_off,,,,,320,0,9,,,,,7,,,56,0
153536,note_off,,,,,320,0,8,,,,,6,,,44,0
153596,note_off,,,,,92,0,1,,,,,0,,,83,0
153600,note_on,,,,,0,0,3,,,,,10,,,44,45
153600,note_on,,,,,4,0,1,,,,,0,,,80,92
153600,note_off,,,,,384,0,2,,,,,1,,,76,0
153600,note_on,,,,,0,0,6,,,,,4,,,64,45
153600,note_off,,,,,384,0,6,,,,,4,,,64,0
153600,note_off,,,,,384,0,3,,,,,10,,,56,0
153600,note_on,,,,,64,0,8,,,,,6,,,32,30
153600,note_on,,,,,0,0,2,,,,,1,,,64,45
153600,note_on,,,,,0,0,5,,,,,3,,,74,60
153600,note_on,,,,,64,0,9,,,,,7,,,44,30
153600,note_off,,,,,384,0,7,,,,,5,,,56,0
153600,note_on,,,,,0,0,4,,,,,2,,,83,60
153600,note_off,,,,,384,0,4,,,,,2,,,71,0
153600,note_on,,,,,0,0,7,,,,,5,,,44,45
153600,note_off,,,,,384,0,5,,,,,3,,,76,0
153692,note_off,,,,,92,0,1,,,,,0,,,80,0
153696,note_on,,,,,4,0,1,,,,,0,,,76,92
153788,note_off,,,,,92,0,1,,,,,0,,,76,0
153792,note_on,,,,,4,0,1,,,,,0,,,80,92
153884,note_off,,,,,92,0,1,,,,,0,,,80,0
153888,note_on,,,,,4,0,1,,,,,0,,,83,92
153920,note_off,,,,,320,0,9,,,,,7,,,44,0
153920,note_off,,,,,320,0,8,,,,,6,,,32,0
153980,note_off,,,,,92,0,1,,,,,0,,,83,0
153984,note_off,,,,,384,0,6,,,,,4,,,64,0
153984,note_off,,,,,384,0,4,,,,,2,,,83,0
153984,note_off,,,,,384,0,7,,,,,5,,,44,0
153984,note_off,,,,,384,0,5,,,,,3,,,74,0
153984,note_off,,,,,384,0,3,,,,,10,,,44,0
153984,note_on,,,,,4,0,1,,,,,0,,,76,92
153984,note_off,,,,,384,0,2,,,,,1,,,64,0
154076,note_off,,,,,92,0,1,,,,,0,,,76,0
154080,note_on,,,,,4,0,1,,,,,0,,,73,92
154172,note_off,,,,,92,0,1,,,,,0,,,73,0
154176,note_on,,,,,4,0,1,,,,,0,,,74,92
154268,note_off,,,,,92,0,1,,,,,0,,,74,0
154272,note_on,,,,,4,0,1,,,,,0,,,71,92
154364,note_off,,,,,92,0,1,,,,,0,,,71,0
154368,note_on,,,,,384,0,3,,,,,10,,,57,45
154368,note_on,,,,,384,0,5,,,,,3,,,73,60
154368,note_on,,,,,384,0,4,,,,,2,,,69,60
154368,note_on,,,,,448,0,8,,,,,6,,,45,30
154368,note_on,,,,,384,0,6,,,,,4,,,64,45
154368,note_on,,,,,384,0,7,,,,,5,,,57,45
154368,note_on,,,,,4,0,1,,,,,0,,,73,92
154368,note_on,,,,,448,0,9,,,,,7,,,57,30
154368,note_on,,,,,384,0,2,,,,,1,,,64,45
154460,note_off,,,,,92,0,1,,,,,0,,,73,0
154464,note_on,,,,,4,0,1,,,,,0,,,69,92
154556,note_off,,,,,92,0,1,,,,,0,,,69,0
154560,note_on,,,,,4,0,1,,,,,0,,,73,92
154652,note_off,,,,,92,0,1,,,,,0,,,73,0
154656,note_on,,,,,4,0,1,,,,,0,,,76,92
154688,note_off,,,,,320,0,8,,,,,6,,,45,0
154688,note_off,,,,,320,0,9,,,,,7,,,57,0
154748,note_off,,,,,92,0,1,,,,,0,,,76,0
154752,note_off,,,,,384,0,6,,,,,4,,,64,0
154752,note_on,,,,,0,0,6,,,,,4,,,64,45
154752,note_off,,,,,384,0,5,,,,,3,,,73,0
154752,note_on,,,,,0,0,2,,,,,1,,,76,45
154752,note_off,,,,,384,0,3,,,,,10,,,57,0
154752,note_on,,,,,0,0,3,,,,,10,,,56,45
154752,note_off,,,,,384,0,2,,,,,1,,,64,0
154752,note_off,,,,,384,0,4,,,,,2,,,69,0
154752,note_on,,,,,0,0,4,,,,,2,,,69,60
154752,note_on,,,,,0,0,7,,,,,5,,,56,45
154752,note_off,,,,,384,0,7,,,,,5,,,57,0
154752,note_on,,,,,64,0,9,,,,,7,,,56,30
154752,note_on,,,,,64,0,8,,,,,6,,,44,30
154752,note_on,,,,,4,0,1,,,,,0,,,73,92
154752,note_on,,,,,0,0,5,,,,,3,,,73,60
154844,note_off,,,,,92,0,1,,,,,0,,,73,0
154848,note_on,,,,,4,0,1,,,,,0,,,69,92
154940,note_off,,,,,92,0,1,,,,,0,,,69,0
154944,note_on,,,,,4,0,1,,,,,0,,,73,92
155036,note_off,,,,,92,0,1,,,,,0,,,73,0
155040,note_on,,,,,4,0,1,,,,,0,,,76,92
155072,note_off,,,,,320,0,8,,,,,6,,,44,0
155072,note_off,,,,,320,0,9,,,,,7,,,56,0
155132,note_off,,,,,92,0,1,,,,,0,,,76,0
155136,note_on,,,,,0,0,3,,,,,10,,,54,45
155136,note_on,,,,,0,0,5,,,,,3,,,75,60
155136,note_off,,,,,384,0,4,,,,,2,,,69,0
155136,note_off,,,,,384,0,3,,,,,10,,,56,0
155136,note_on,,,,,64,0,8,,,,,6,,,42,30
155136,note_off,,,,,384,0,5,,,,,3,,,73,0
155136,note_on,,,,,0,0,4,,,,,2,,,81,60
155136,note_on,,,,,64,0,9,,,,,7,,,54,30
155136,note_on,,,,,4,0,1,,,,,0,,,81,92
155136,note_off,,,,,384,0,2,,,,,1,,,76,0
155136,note_on,,,,,0,0,7,,,,,5,,,54,45
155136,note_off,,,,,384,0,6,,,,,4,,,64,0
155136,note_off,,,,,384,0,7,,,,,5,,,56,0
155136,note_on,,,,,0,0,6,,,,,4,,,66,45
155136,note_on,,,,,0,0,2,,,,,1,,,75,45
155228,note_off,,,,,92,0,1,,,,,0,,,81,0
155232,note_on,,,,,4,0,1,,,,,0,,,85,92
155324,note_off,,,,,92,0,1,,,,,0,,,85,0
155328,note_on,,,,,4,0,1,,,,,0,,,83,92
155420,note_off,,,,,92,0,1,,,,,0,,,83,0
155424,note_on,,,,,4,0,1,,,,,0,,,81,92
155456,note_off,,,,,320,0,9,,,,,7,,,54,0
155456,note_off,,,,,320,0,8,,,,,6,,,42,0
155516,note_off,,,,,92,0,1,,,,,0,,,81,0
155520,note_off,,,,,384,0,2,,,,,1,,,75,0
155520,note_on,,,,,64,0,8,,,,,6,,,40,30
155520,note_off,,,,,384,0,7,,,,,5,,,54,0
155520,note_on,,,,,0,0,6,,,,,4,,,71,45
155520,note_on,,,,,4,0,1,,,,,0,,,80,92
155520,note_off,,,,,384,0,3,,,,,10,,,54,0
155520,note_on,,,,,0,0,3,,,,,10,,,52,45
155520,note_off,,,,,384,0,5,,,,,3,,,75,0
155520,note_on,,,,,0,0,7,,,,,5,,,52,45
155520,note_on,,,,,0,0,4,,,,,2,,,80,60
155520,note_on,,,,,64,0,9,,,,,7,,,52,30
155520,note_on,,,,,0,0,2,,,,,1,,,76,45
155520,note_off,,,,,384,0,4,,,,,2,,,81,0
155520,note_off,,,,,384,0,6,,,,,4,,,66,0
155520,note_on,,,,,0,0,5,,,,,3,,,76,60
155612,note_off,,,,,92,0,1,,,,,0,,,80,0
155616,note_on,,,,,4,0,1,,,,,0,,,81,92
155708,note_off,,,,,92,0,1,,,,,0,,,81,0
155712,note_on,,,,,4,0,1,,,,,0,,,83,92
155804,note_off,,,,,92,0,1,,,,,0,,,83,0
155808,note_on,,,,,4,0,1,,,,,0,,,80,92
155840,note_off,,,,,320,0,8,,,,,6,,,40,0
155840,note_off,,,,,320,0,9,,,,,7,,,52,0
155900,note_off,,,,,92,0,1,,,,,0,,,80,0
155904,note_off,,,,,384,0,3,,,,,10,,,52,0
155904,note_on,,,,,4,0,1,,,,,0,,,76,92
155904,note_off,,,,,384,0,2,,,,,1,,,76,0
155904,note_on,,,,,0,0,2,,,,,1,,,73,45
155904,note_off,,,,,384,0,4,,,,,2,,,80,0
155904,note_off,,,,,384,0,7,,,,,5,,,52,0
155904,note_off,,,,,384,0,5,,,,,3,,,76,0
155904,note_off,,,,,384,0,6,,,,,4,,,71,0
155904,note_on,,,,,0,0,3,,,,,10,,,64,45
156096,note_off,,,,,192,0,1,,,,,0,,,76,0
156096,note_off,,,,,192,0,2,,,,,1,,,73,0
156096,note_on,,,,,0,0,1,,,,,0,,,74,92
156096,note_on,,,,,0,0,2,,,,,1,,,71,45
156288,note_on,,,,,0,0,1,,,,,0,,,74,92
156288,note_off,,,,,192,0,1,,,,,0,,,74,0
156288,note_on,,,,,0,0,2,,,,,1,,,71,45
156288,note_on,,,,,0,0,3,,,,,10,,,64,45
156288,note_off,,,,,384,0,3,,,,,10,,,64,0
156288,note_off,,,,,192,0,2,,,,,1,,,71,0
156480,note_off,,,,,192,0,2,,,,,1,,,71,0
156480,note_on,,,,,0,0,2,,,,,1,,,69,45
156480,note_off,,,,,192,0,1,,,,,0,,,74,0
156480,note_on,,,,,0,0,1,,,,,0,,,73,92
156672,note_on,,,,,0,0,3,,,,,10,,,66,45
156672,note_off,,,,,384,0,3,,,,,10,,,64,0
156672,note_on,,,,,0,0,2,,,,,1,,,69,45
156672,note_off,,,,,192,0,2,,,,,1,,,69,0
156672,note_off,,,,,192,0,1,,,,,0,,,73,0
156672,note_on,,,,,0,0,1,,,,,0,,,73,92
157056,note_off,,,,,384,0,1,,,,,0,,,73,0
157056,note_on,,,,,0,0,1,,,,,0,,,71,92
157056,note_on,,,,,0,0,2,,,,,1,,,68,45
157056,note_off,,,,,384,0,2,,,,,1,,,69,0
157056,note_off,,,,,384,0,3,,,,,10,,,66,0
157056,note_on,,,,,0,0,3,,,,,10,,,66,45
157248,note_off,,,,,192,0,3,,,,,10,,,66,0
157248,note_on,,,,,0,0,3,,,,,10,,,64,45
157440,note_on,,,,,0,0,2,,,,,1,,,69,45
157440,note_off,,,,,384,0,2,,,,,1,,,68,0
157440,note_off,,,,,384,0,1,,,,,0,,,71,0
157440,note_on,,,,,0,0,1,,,,,0,,,73,92
157440,note_off,,,,,192,0,3,,,,,10,,,64,0
157440,note_on,,,,,0,0,3,,,,,10,,,64,45
157632,note_on,,,,,0,0,3,,,,,10,,,62,45
157632,note_off,,,,,192,0,3,,,,,10,,,64,0
157824,note_on,,,,,0,0,2,,,,,1,,,71,45
157824,note_off,,,,,384,0,2,,,,,1,,,69,0
157824,note_off,,,,,384,0,1,,,,,0,,,73,0
157824,note_on,,,,,0,0,1,,,,,0,,,74,92
157824,note_off,,,,,192,0,3,,,,,10,,,62,0
157824,note_on,,,,,0,0,3,,,,,10,,,62,45
158208,note_on,,,,,0,0,2,,,,,1,,,71,45
158208,note_off,,,,,384,0,2,,,,,1,,,71,0
158208,note_off,,,,,384,0,3,,,,,10,,,62,0
158208,note_on,,,,,0,0,3,,,,,10,,,61,45
158208,note_off,,,,,384,0,1,,,,,0,,,74,0
158208,note_on,,,,,0,0,1,,,,,0,,,74,92
158400,note_on,,,,,0,0,2,,,,,1,,,69,45
158400,note_off,,,,,192,0,2,,,,,1,,,71,0
158400,note_off,,,,,192,0,1,,,,,0,,,74,0
158400,note_on,,,,,0,0,1,,,,,0,,,73,92
158592,note_on,,,,,0,0,2,,,,,1,,,69,45
158592,note_on,,,,,0,0,3,,,,,10,,,62,45
158592,note_off,,,,,384,0,3,,,,,10,,,61,0
158592,note_off,,,,,192,0,2,,,,,1,,,69,0
158592,note_off,,,,,192,0,1,,,,,0,,,73,0
158592,note_on,,,,,0,0,1,,,,,0,,,73,92
158784,note_off,,,,,192,0,1,,,,,0,,,73,0
158784,note_off,,,,,192,0,2,,,,,1,,,69,0
158784,note_on,,,,,0,0,2,,,,,1,,,68,45
158784,note_on,,,,,0,0,1,,,,,0,,,71,92
158976,note_off,,,,,192,0,1,,,,,0,,,71,0
158976,note_off,,,,,192,0,2,,,,,1,,,68,0
158976,note_on,,,,,0,0,1,,,,,0,,,71,92
158976,note_on,,,,,0,0,2,,,,,1,,,68,45
158976,note_off,,,,,384,0,3,,,,,10,,,62,0
158976,note_on,,,,,0,0,3,,,,,10,,,64,45
159360,note_off,,,,,384,0,3,,,,,10,,,64,0
159360,note_off,,,,,384,0,1,,,,,0,,,71,0
159360,note_on,,,,,0,0,1,,,,,0,,,69,92
159360,note_off,,,,,384,0,2,,,,,1,,,68,0
159360,note_on,,,,,0,0,2,,,,,1,,,66,45
159360,note_on,,,,,0,0,3,,,,,10,,,64,45
159744,note_off,,,,,384,0,2,,,,,1,,,66,0
159744,note_on,,,,,0,0,3,,,,,10,,,62,45
159744,note_off,,,,,384,0,1,,,,,0,,,69,0
159744,note_on,,,,,0,0,1,,,,,0,,,71,92
159744,note_on,,,,,0,0,2,,,,,1,,,68,45
159744,note_off,,,,,384,0,3,,,,,10,,,64,0
160128,note_on,,,,,0,0,3,,,,,10,,,61,45
160128,note_on,,,,,0,0,2,,,,,1,,,69,45
160128,note_off,,,,,384,0,1,,,,,0,,,71,0
160128,note_on,,,,,0,0,1,,,,,0,,,73,92
160128,note_off,,,,,384,0,3,,,,,10,,,62,0
160128,note_off,,,,,384,0,2,,,,,1,,,68,0
160512,note_on,,,,,4672,0,9,,,,,7,,,49,45
160512,note_on,,,,,4608,0,4,,,,,2,,,76,108
160512,note_on,,,,,4672,0,8,,,,,6,,,37,75
160512,note_off,,,,,384,0,3,,,,,10,,,61,0
160512,note_on,,,,,4608,0,5,,,,,3,,,73,108
160512,note_off,,,,,384,0,2,,,,,1,,,69,0
160512,note_on,,,,,0,0,2,,,,,1,,,73,92
160512,note_on,,,,,4608,0,7,,,,,5,,,49,92
160512,note_off,,,,,384,0,1,,,,,0,,,73,0
160512,note_on,,,,,0,0,3,,,,,10,,,49,92
160512,note_on,,,,,4608,0,6,,,,,4,,,68,92
160512,note_on,,,,,0,0,1,,,,,0,,,76,92
160704,note_off,,,,,192,0,2,,,,,1,,,73,0
160704,note_on,,,,,0,0,4,,,,,2,,,74,108
160704,note_off,,,,,192,0,4,,,,,2,,,76,0
160704,note_off,,,,,192,0,5,,,,,3,,,73,0
160704,note_on,,,,,0,0,5,,,,,3,,,71,108
160704,note_on,,,,,0,0,1,,,,,0,,,74,92
160704,note_on,,,,,0,0,2,,,,,1,,,71,92
160704,note_off,,,,,192,0,1,,,,,0,,,76,0
160832,note_off,,,,,320,0,9,,,,,7,,,49,0
160832,note_off,,,,,320,0,8,,,,,6,,,37,0
160896,note_on,,,,,0,0,7,,,,,5,,,52,92
160896,note_on,,,,,64,0,9,,,,,7,,,52,45
160896,note_off,,,,,384,0,7,,,,,5,,,49,0
160896,note_on,,,,,0,0,2,,,,,1,,,71,92
160896,note_off,,,,,192,0,2,,,,,1,,,71,0
160896,note_on,,,,,0,0,3,,,,,10,,,52,92
160896,note_off,,,,,384,0,3,,,,,10,,,49,0
160896,note_off,,,,,192,0,4,,,,,2,,,74,0
160896,note_on,,,,,0,0,4,,,,,2,,,74,108
160896,note_off,,,,,384,0,6,,,,,4,,,68,0
160896,note_on,,,,,0,0,6,,,,,4,,,68,92
160896,note_off,,,,,192,0,1,,,,,0,,,74,0
160896,note_on,,,,,0,0,5,,,,,3,,,71,108
160896,note_off,,,,,192,0,5,,,,,3,,,71,0
160896,note_on,,,,,64,0,8,,,,,6,,,40,75
160896,note_on,,,,,0,0,1,,,,,0,,,74,92
161088,note_on,,,,,0,0,4,,,,,2,,,73,108
161088,note_on,,,,,0,0,1,,,,,0,,,73,92
161088,note_on,,,,,0,0,2,,,,,1,,,69,92
161088,note_on,,,,,0,0,5,,,,,3,,,69,108
161088,note_off,,,,,192,0,5,,,,,3,,,71,0
161088,note_off,,,,,192,0,2,,,,,1,,,71,0
161088,note_off,,,,,192,0,4,,,,,2,,,74,0
161088,note_off,,,,,192,0,1,,,,,0,,,74,0
161216,note_off,,,,,320,0,8,,,,,6,,,40,0
161216,note_off,,,,,320,0,9,,,,,7,,,52,0
161280,note_on,,,,,64,0,9,,,,,7,,,54,45
161280,note_on,,,,,0,0,6,,,,,4,,,69,92
161280,note_off,,,,,384,0,6,,,,,4,,,68,0
161280,note_off,,,,,384,0,3,,,,,10,,,52,0
161280,note_on,,,,,0,0,1,,,,,0,,,73,92
161280,note_on,,,,,0,0,4,,,,,2,,,73,108
161280,note_off,,,,,192,0,4,,,,,2,,,73,0
161280,note_on,,,,,64,0,8,,,,,6,,,42,75
161280,note_on,,,,,0,0,3,,,,,10,,,54,92
161280,note_off,,,,,192,0,1,,,,,0,,,73,0
161280,note_off,,,,,192,0,5,,,,,3,,,69,0
161280,note_on,,,,,0,0,5,,,,,3,,,69,108
161280,note_on,,,,,0,0,2,,,,,1,,,69,92
161280,note_off,,,,,192,0,2,,,,,1,,,69,0
161280,note_on,,,,,0,0,7,,,,,5,,,54,92
161280,note_off,,,,,384,0,7,,,,,5,,,52,0
161600,note_off,,,,,320,0,8,,,,,6,,,42,0
161600,note_off,,,,,320,0,9,,,,,7,,,54,0
161664,note_off,,,,,384,0,3,,,,,10,,,54,0
161664,note_off,,,,,384,0,4,,,,,2,,,73,0
161664,note_off,,,,,384,0,7,,,,,5,,,54,0
161664,note_off,,,,,384,0,1,,,,,0,,,73,0
161664,note_off,,,,,384,0,5,,,,,3,,,69,0
161664,note_on,,,,,0,0,3,,,,,10,,,54,92
161664,note_on,,,,,0,0,1,,,,,0,,,71,92
161664,note_on,,,,,64,0,8,,,,,6,,,42,75
161664,note_on,,,,,0,0,5,,,,,3,,,68,108
161664,note_on,,,,,0,0,7,,,,,5,,,54,92
161664,note_on,,,,,0,0,4,,,,,2,,,71,108
161664,note_on,,,,,0,0,2,,,,,1,,,68,92
161664,note_off,,,,,384,0,2,,,,,1,,,69,0
161664,note_on,,,,,64,0,9,,,,,7,,,54,45
161664,note_off,,,,,384,0,6,,,,,4,,,69,0
161664,note_on,,,,,0,0,6,,,,,4,,,57,92
161852,note_off,,,,,188,0,9,,,,,7,,,54,0
161852,note_off,,,,,188,0,8,,,,,6,,,42,0
161856,note_on,,,,,0,0,6,,,,,4,,,56,92
161856,note_on,,,,,0,0,3,,,,,10,,,52,92
161856,note_on,,,,,4,0,9,,,,,7,,,52,45
161856,note_off,,,,,192,0,6,,,,,4,,,57,0
161856,note_on,,,,,0,0,7,,,,,5,,,52,92
161856,note_off,,,,,192,0,7,,,,,5,,,54,0
161856,note_on,,,,,4,0,8,,,,,6,,,40,75
161856,note_off,,,,,192,0,3,,,,,10,,,54,0
162044,note_off,,,,,188,0,9,,,,,7,,,52,0
162044,note_off,,,,,188,0,8,,,,,6,,,40,0
162048,note_off,,,,,192,0,6,,,,,4,,,56,0
162048,note_on,,,,,4,0,8,,,,,6,,,40,75
162048,note_on,,,,,0,0,6,,,,,4,,,56,92
162048,note_off,,,,,192,0,3,,,,,10,,,52,0
162048,note_on,,,,,0,0,3,,,,,10,,,52,92
162048,note_on,,,,,4,0,9,,,,,7,,,52,45
162048,note_off,,,,,384,0,2,,,,,1,,,68,0
162048,note_off,,,,,192,0,7,,,,,5,,,52,0
162048,note_off,,,,,384,0,4,,,,,2,,,71,0
162048,note_on,,,,,0,0,4,,,,,2,,,73,108
162048,note_on,,,,,0,0,2,,,,,1,,,69,92
162048,note_on,,,,,0,0,7,,,,,5,,,52,92
162048,note_on,,,,,0,0,1,,,,,0,,,73,92
162048,note_off,,,,,384,0,1,,,,,0,,,71,0
162048,note_on,,,,,0,0,5,,,,,3,,,69,108
162048,note_off,,,,,384,0,5,,,,,3,,,68,0
162236,note_off,,,,,188,0,8,,,,,6,,,40,0
162236,note_off,,,,,188,0,9,,,,,7,,,52,0
162240,note_on,,,,,4,0,8,,,,,6,,,38,75
162240,note_on,,,,,0,0,3,,,,,10,,,50,92
162240,note_off,,,,,192,0,3,,,,,10,,,52,0
162240,note_on,,,,,0,0,7,,,,,5,,,50,92
162240,note_on,,,,,4,0,9,,,,,7,,,50,45
162240,note_on,,,,,0,0,6,,,,,4,,,54,92
162240,note_off,,,,,192,0,6,,,,,4,,,56,0
162240,note_off,,,,,192,0,7,,,,,5,,,52,0
162428,note_off,,,,,188,0,9,,,,,7,,,50,0
162428,note_off,,,,,188,0,8,,,,,6,,,38,0
162432,note_off,,,,,192,0,3,,,,,10,,,50,0
162432,note_off,,,,,192,0,7,,,,,5,,,50,0
162432,note_on,,,,,4,0,9,,,,,7,,,50,45
162432,note_on,,,,,0,0,3,,,,,10,,,50,92
162432,note_off,,,,,384,0,1,,,,,0,,,73,0
162432,note_on,,,,,4,0,8,,,,,6,,,38,75
162432,note_off,,,,,384,0,5,,,,,3,,,69,0
162432,note_on,,,,,0,0,5,,,,,3,,,71,108
162432,note_on,,,,,0,0,7,,,,,5,,,50,92
162432,note_on,,,,,0,0,1,,,,,0,,,74,92
162432,note_off,,,,,192,0,6,,,,,4,,,54,0
162432,note_on,,,,,0,0,2,,,,,1,,,71,92
162432,note_off,,,,,384,0,4,,,,,2,,,73,0
162432,note_on,,,,,0,0,4,,,,,2,,,74,108
162432,note_off,,,,,384,0,2,,,,,1,,,69,0
162432,note_on,,,,,0,0,6,,,,,4,,,54,92
162752,note_off,,,,,320,0,8,,,,,6,,,38,0
162752,note_off,,,,,320,0,9,,,,,7,,,50,0
162816,note_on,,,,,0,0,4,,,,,2,,,74,108
162816,note_off,,,,,384,0,4,,,,,2,,,74,0
162816,note_on,,,,,0,0,5,,,,,3,,,71,108
162816,note_off,,,,,384,0,5,,,,,3,,,71,0
162816,note_off,,,,,384,0,2,,,,,1,,,71,0
162816,note_on,,,,,0,0,2,,,,,1,,,71,92
162816,note_off,,,,,384,0,7,,,,,5,,,50,0
162816,note_on,,,,,0,0,7,,,,,5,,,49,92
162816,note_on,,,,,64,0,9,,,,,7,,,49,45
162816,note_on,,,,,0,0,3,,,,,10,,,49,92
162816,note_on,,,,,64,0,8,,,,,6,,,37,75
162816,note_off,,,,,384,0,3,,,,,10,,,50,0
162816,note_off,,,,,384,0,1,,,,,0,,,74,0
162816,note_on,,,,,0,0,1,,,,,0,,,74,92
162816,note_off,,,,,384,0,6,,,,,4,,,54,0
162816,note_on,,,,,0,0,6,,,,,4,,,64,92
163008,note_on,,,,,0,0,1,,,,,0,,,73,92
163008,note_on,,,,,0,0,4,,,,,2,,,73,108
163008,note_on,,,,,0,0,2,,,,,1,,,69,92
163008,note_off,,,,,192,0,2,,,,,1,,,71,0
163008,note_off,,,,,192,0,1,,,,,0,,,74,0
163008,note_off,,,,,192,0,5,,,,,3,,,71,0
163008,note_on,,,,,0,0,5,,,,,3,,,69,108
163008,note_off,,,,,192,0,4,,,,,2,,,74,0
163136,note_off,,,,,320,0,9,,,,,7,,,49,0
163136,note_off,,,,,320,0,8,,,,,6,,,37,0
163200,note_on,,,,,0,0,6,,,,,4,,,66,92
163200,note_on,,,,,64,0,9,,,,,7,,,50,45
163200,note_on,,,,,0,0,1,,,,,0,,,73,92
163200,note_off,,,,,192,0,2,,,,,1,,,69,0
163200,note_on,,,,,0,0,2,,,,,1,,,69,92
163200,note_off,,,,,192,0,4,,,,,2,,,73,0
163200,note_on,,,,,0,0,3,,,,,10,,,50,92
163200,note_off,,,,,384,0,3,,,,,10,,,49,0
163200,note_off,,,,,384,0,6,,,,,4,,,64,0
163200,note_on,,,,,0,0,7,,,,,5,,,50,92
163200,note_off,,,,,384,0,7,,,,,5,,,49,0
163200,note_off,,,,,192,0,1,,,,,0,,,73,0
163200,note_on,,,,,64,0,8,,,,,6,,,38,75
163200,note_on,,,,,0,0,5,,,,,3,,,69,108
163200,note_off,,,,,192,0,5,,,,,3,,,69,0
163200,note_on,,,,,0,0,4,,,,,2,,,73,108
163392,note_off,,,,,192,0,5,,,,,3,,,69,0
163392,note_on,,,,,0,0,5,,,,,3,,,68,108
163392,note_on,,,,,0,0,1,,,,,0,,,71,92
163392,note_off,,,,,192,0,4,,,,,2,,,73,0
163392,note_on,,,,,0,0,4,,,,,2,,,71,108
163392,note_off,,,,,192,0,2,,,,,1,,,69,0
163392,note_on,,,,,0,0,2,,,,,1,,,68,92
163392,note_off,,,,,192,0,1,,,,,0,,,73,0
163520,note_off,,,,,320,0,9,,,,,7,,,50,0
163520,note_off,,,,,320,0,8,,,,,6,,,38,0
163584,note_off,,,,,192,0,1,,,,,0,,,71,0
163584,note_off,,,,,192,0,4,,,,,2,,,71,0
163584,note_on,,,,,0,0,4,,,,,2,,,71,108
163584,note_off,,,,,384,0,7,,,,,5,,,50,0
163584,note_off,,,,,192,0,2,,,,,1,,,68,0
163584,note_on,,,,,0,0,7,,,,,5,,,52,92
163584,note_on,,,,,0,0,1,,,,,0,,,71,92
163584,note_on,,,,,0,0,2,,,,,1,,,68,92
163584,note_off,,,,,384,0,6,,,,,4,,,66,0
163584,note_on,,,,,0,0,6,,,,,4,,,59,92
163584,note_on,,,,,64,0,8,,,,,6,,,40,75
163584,note_off,,,,,384,0,3,,,,,10,,,50,0
163584,note_on,,,,,0,0,3,,,,,10,,,52,92
163584,note_on,,,,,0,0,5,,,,,3,,,68,108
163584,note_off,,,,,192,0,5,,,,,3,,,68,0
163584,note_on,,,,,64,0,9,,,,,7,,,52,45
163904,note_off,,,,,320,0,9,,,,,7,,,52,0
163904,note_off,,,,,320,0,8,,,,,6,,,40,0
163968,note_on,,,,,0,0,3,,,,,10,,,52,92
163968,note_off,,,,,384,0,3,,,,,10,,,52,0
163968,note_off,,,,,384,0,1,,,,,0,,,71,0
163968,note_off,,,,,384,0,5,,,,,3,,,68,0
163968,note_off,,,,,384,0,4,,,,,2,,,71,0
163968,note_on,,,,,0,0,4,,,,,2,,,69,108
163968,note_on,,,,,0,0,5,,,,,3,,,66,108
163968,note_on,,,,,0,0,1,,,,,0,,,69,92
163968,note_on,,,,,0,0,2,,,,,1,,,66,92
163968,note_off,,,,,384,0,7,,,,,5,,,52,0
163968,note_off,,,,,384,0,2,,,,,1,,,68,0
163968,note_off,,,,,384,0,6,,,,,4,,,59,0
163968,note_on,,,,,0,0,6,,,,,4,,,64,92
163968,note_on,,,,,64,0,8,,,,,6,,,40,75
163968,note_on,,,,,0,0,7,,,,,5,,,52,92
163968,note_on,,,,,64,0,9,,,,,7,,,52,45
164156,note_off,,,,,188,0,8,,,,,6,,,40,0
164156,note_off,,,,,188,0,9,,,,,7,,,52,0
164160,note_on,,,,,4,0,9,,,,,7,,,50,45
164160,note_on,,,,,0,0,7,,,,,5,,,50,92
164160,note_on,,,,,0,0,3,,,,,10,,,50,92
164160,note_off,,,,,192,0,7,,,,,5,,,52,0
164160,note_on,,,,,4,0,8,,,,,6,,,38,75
164160,note_off,,,,,192,0,3,,,,,10,,,52,0
164348,note_off,,,,,188,0,8,,,,,6,,,38,0
164348,note_off,,,,,188,0,9,,,,,7,,,50,0
164352,note_off,,,,,384,0,6,,,,,4,,,64,0
164352,note_on,,,,,0,0,6,,,,,4,,,64,92
164352,note_off,,,,,384,0,2,,,,,1,,,66,0
164352,note_on,,,,,0,0,5,,,,,3,,,68,108
164352,note_on,,,,,0,0,4,,,,,2,,,71,108
164352,note_off,,,,,384,0,5,,,,,3,,,66,0
164352,note_on,,,,,4,0,8,,,,,6,,,38,75
164352,note_off,,,,,384,0,4,,,,,2,,,69,0
164352,note_on,,,,,0,0,7,,,,,5,,,50,92
164352,note_off,,,,,384,0,1,,,,,0,,,69,0
164352,note_on,,,,,0,0,3,,,,,10,,,50,92
164352,note_off,,,,,192,0,3,,,,,10,,,50,0
164352,note_on,,,,,0,0,1,,,,,0,,,71,92
164352,note_on,,,,,4,0,9,,,,,7,,,50,45
164352,note_on,,,,,0,0,2,,,,,1,,,68,92
164352,note_off,,,,,192,0,7,,,,,5,,,50,0
164540,note_off,,,,,188,0,9,,,,,7,,,50,0
164540,note_off,,,,,188,0,8,,,,,6,,,38,0
164544,note_on,,,,,4,0,9,,,,,7,,,49,45
164544,note_on,,,,,0,0,3,,,,,10,,,49,92
164544,note_off,,,,,192,0,7,,,,,5,,,50,0
164544,note_on,,,,,0,0,7,,,,,5,,,49,92
164544,note_off,,,,,192,0,3,,,,,10,,,50,0
164544,note_on,,,,,4,0,8,,,,,6,,,37,75
164732,note_off,,,,,188,0,9,,,,,7,,,49,0
164732,note_off,,,,,188,0,8,,,,,6,,,37,0
164736,note_on,,,,,4,0,8,,,,,6,,,37,75
164736,note_on,,,,,0,0,2,,,,,1,,,69,92
164736,note_off,,,,,384,0,2,,,,,1,,,68,0
164736,note_off,,,,,384,0,1,,,,,0,,,71,0
164736,note_off,,,,,384,0,5,,,,,3,,,68,0
164736,note_on,,,,,0,0,3,,,,,10,,,49,92
164736,note_off,,,,,192,0,7,,,,,5,,,49,0
164736,note_off,,,,,384,0,4,,,,,2,,,71,0
164736,note_on,,,,,0,0,4,,,,,2,,,73,108
164736,note_on,,,,,0,0,6,,,,,4,,,64,92
164736,note_off,,,,,192,0,3,,,,,10,,,49,0
164736,note_off,,,,,384,0,6,,,,,4,,,64,0
164736,note_on,,,,,4,0,9,,,,,7,,,49,45
164736,note_on,,,,,0,0,1,,,,,0,,,73,92
164736,note_on,,,,,0,0,5,,,,,3,,,69,108
164736,note_on,,,,,0,0,7,,,,,5,,,49,92
165248,note_off,,,,,512,0,8,,,,,6,,,37,0
165248,note_off,,,,,512,0,9,,,,,7,,,49,0
165312,note_on,,,,,0,0,4,,,,,2,,,74,108
165312,note_on,,,,,64,0,9,,,,,7,,,47,45
165312,note_on,,,,,0,0,7,,,,,5,,,47,92
165312,note_off,,,,,576,0,4,,,,,2,,,73,0
165312,note_on,,,,,0,0,5,,,,,3,,,71,108
165312,note_on,,,,,64,0,8,,,,,6,,,35,75
165312,note_off,,,,,576,0,5,,,,,3,,,69,0
165312,note_off,,,,,576,0,3,,,,,10,,,49,0
165312,note_on,,,,,0,0,3,,,,,10,,,47,92
165312,note_off,,,,,576,0,2,,,,,1,,,69,0
165312,note_off,,,,,576,0,6,,,,,4,,,64,0
165312,note_on,,,,,0,0,2,,,,,1,,,71,92
165312,note_off,,,,,576,0,7,,,,,5,,,49,0
165312,note_on,,,,,0,0,6,,,,,4,,,68,92
165312,note_on,,,,,0,0,1,,,,,0,,,74,92
165312,note_off,,,,,576,0,1,,,,,0,,,73,0
165500,note_off,,,,,188,0,8,,,,,6,,,35,0
165500,note_off,,,,,188,0,9,,,,,7,,,47,0
165504,note_on,,,,,0,0,7,,,,,5,,,45,92
165504,note_on,,,,,4,0,9,,,,,7,,,45,45
165504,note_off,,,,,192,0,4,,,,,2,,,74,0
165504,note_on,,,,,0,0,3,,,,,10,,,45,92
165504,note_on,,,,,0,0,4,,,,,2,,,76,108
165504,note_off,,,,,192,0,7,,,,,5,,,47,0
165504,note_off,,,,,192,0,3,,,,,10,,,47,0
165504,note_on,,,,,0,0,5,,,,,3,,,73,108
165504,note_off,,,,,192,0,6,,,,,4,,,68,0
165504,note_on,,,,,0,0,6,,,,,4,,,69,92
165504,note_on,,,,,4,0,8,,,,,6,,,33,75
165504,note_on,,,,,0,0,2,,,,,1,,,73,92
165504,note_off,,,,,192,0,2,,,,,1,,,71,0
165504,note_on,,,,,0,0,1,,,,,0,,,76,92
165504,note_off,,,,,192,0,1,,,,,0,,,74,0
165504,note_off,,,,,192,0,5,,,,,3,,,71,0
165824,note_off,,,,,320,0,9,,,,,7,,,45,0
165824,note_off,,,,,320,0,8,,,,,6,,,33,0
165888,note_on,,,,,0,0,3,,,,,10,,,50,92
165888,note_off,,,,,384,0,3,,,,,10,,,45,0
165888,note_off,,,,,384,0,5,,,,,3,,,73,0
165888,note_on,,,,,0,0,5,,,,,3,,,71,108
165888,note_off,,,,,384,0,6,,,,,4,,,69,0
165888,note_on,,,,,0,0,6,,,,,4,,,66,92
165888,note_on,,,,,0,0,7,,,,,5,,,50,92
165888,note_off,,,,,384,0,7,,,,,5,,,45,0
165888,note_on,,,,,64,0,8,,,,,6,,,38,75
165888,note_off,,,,,384,0,2,,,,,1,,,73,0
165888,note_off,,,,,384,0,1,,,,,0,,,76,0
165888,note_on,,,,,0,0,1,,,,,0,,,74,92
165888,note_on,,,,,0,0,2,,,,,1,,,71,92
165888,note_on,,,,,64,0,9,,,,,7,,,50,45
165888,note_on,,,,,0,0,4,,,,,2,,,74,108
165888,note_off,,,,,384,0,4,,,,,2,,,76,0
166080,note_off,,,,,192,0,5,,,,,3,,,71,0
166080,note_on,,,,,0,0,1,,,,,0,,,73,92
166080,note_off,,,,,192,0,1,,,,,0,,,74,0
166080,note_on,,,,,0,0,2,,,,,1,,,69,92
166080,note_off,,,,,192,0,2,,,,,1,,,71,0
166080,note_off,,,,,192,0,4,,,,,2,,,74,0
166080,note_on,,,,,0,0,4,,,,,2,,,73,108
166080,note_on,,,,,0,0,5,,,,,3,,,69,108
166208,note_off,,,,,320,0,8,,,,,6,,,38,0
166208,note_off,,,,,320,0,9,,,,,7,,,50,0
166272,note_on,,,,,64,0,9,,,,,7,,,52,45
166272,note_on,,,,,0,0,6,,,,,4,,,59,92
166272,note_off,,,,,384,0,6,,,,,4,,,66,0
166272,note_on,,,,,0,0,7,,,,,5,,,52,92
166272,note_on,,,,,64,0,8,,,,,6,,,40,75
166272,note_off,,,,,192,0,2,,,,,1,,,69,0
166272,note_on,,,,,0,0,4,,,,,2,,,73,108
166272,note_on,,,,,0,0,2,,,,,1,,,69,92
166272,note_off,,,,,192,0,5,,,,,3,,,69,0
166272,note_on,,,,,0,0,3,,,,,10,,,52,92
166272,note_on,,,,,0,0,5,,,,,3,,,69,108
166272,note_off,,,,,384,0,3,,,,,10,,,50,0
166272,note_off,,,,,192,0,1,,,,,0,,,73,0
166272,note_on,,,,,0,0,1,,,,,0,,,73,92
166272,note_off,,,,,192,0,4,,,,,2,,,73,0
166272,note_off,,,,,384,0,7,,,,,5,,,50,0
166320,note_off,,,,,48,0,4,,,,,2,,,73,0
166320,note_on,,,,,0,0,4,,,,,2,,,71,108
166320,note_off,,,,,48,0,1,,,,,0,,,73,0
166320,note_on,,,,,0,0,1,,,,,0,,,71,92
166320,note_on,,,,,0,0,2,,,,,1,,,68,92
166320,note_off,,,,,48,0,2,,,,,1,,,69,0
166320,note_off,,,,,48,0,5,,,,,3,,,69,0
166320,note_on,,,,,0,0,5,,,,,3,,,68,108
166368,note_off,,,,,48,0,2,,,,,1,,,68,0
166368,note_on,,,,,0,0,1,,,,,0,,,73,92
166368,note_off,,,,,48,0,1,,,,,0,,,71,0
166368,note_on,,,,,0,0,2,,,,,1,,,69,92
166368,note_on,,,,,0,0,4,,,,,2,,,73,108
166368,note_off,,,,,48,0,5,,,,,3,,,68,0
166368,note_on,,,,,0,0,5,,,,,3,,,69,108
166368,note_off,,,,,48,0,4,,,,,2,,,71,0
166416,note_off,,,,,48,0,2,,,,,1,,,69,0
166416,note_on,,,,,0,0,4,,,,,2,,,71,108
166416,note_off,,,,,48,0,5,,,,,3,,,69,0
166416,note_on,,,,,0,0,2,,,,,1,,,68,92
166416,note_on,,,,,0,0,5,,,,,3,,,68,108
166416,note_off,,,,,48,0,4,,,,,2,,,73,0
166416,note_on,,,,,0,0,1,,,,,0,,,71,92
166416,note_off,,,,,48,0,1,,,,,0,,,73,0
166464,note_off,,,,,48,0,5,,,,,3,,,68,0
166464,note_on,,,,,0,0,5,,,,,3,,,69,108
166464,note_on,,,,,0,0,1,,,,,0,,,73,92
166464,note_off,,,,,48,0,1,,,,,0,,,71,0
166464,note_off,,,,,48,0,4,,,,,2,,,71,0
166464,note_on,,,,,0,0,2,,,,,1,,,69,92
166464,note_off,,,,,48,0,2,,,,,1,,,68,0
166464,note_on,,,,,0,0,4,,,,,2,,,73,108
166512,note_on,,,,,0,0,5,,,,,3,,,68,108
166512,note_off,,,,,48,0,2,,,,,1,,,69,0
166512,note_on,,,,,0,0,1,,,,,0,,,71,92
166512,note_on,,,,,0,0,2,,,,,1,,,68,92
166512,note_off,,,,,48,0,1,,,,,0,,,73,0
166512,note_on,,,,,0,0,4,,,,,2,,,71,108
166512,note_off,,,,,48,0,4,,,,,2,,,73,0
166512,note_off,,,,,48,0,5,,,,,3,,,69,0
166560,note_on,,,,,0,0,5,,,,,3,,,69,108
166560,note_off,,,,,48,0,5,,,,,3,,,68,0
166560,note_off,,,,,48,0,4,,,,,2,,,71,0
166560,note_on,,,,,0,0,1,,,,,0,,,73,92
166560,note_off,,,,,48,0,1,,,,,0,,,71,0
166560,note_off,,,,,48,0,2,,,,,1,,,68,0
166560,note_on,,,,,0,0,2,,,,,1,,,69,92
166560,note_on,,,,,0,0,4,,,,,2,,,73,108
166592,note_off,,,,,320,0,8,,,,,6,,,40,0
166592,note_off,,,,,320,0,9,,,,,7,,,52,0
166608,note_off,,,,,48,0,4,,,,,2,,,73,0
166608,note_on,,,,,0,0,1,,,,,0,,,71,92
166608,note_on,,,,,0,0,4,,,,,2,,,71,108
166608,note_on,,,,,0,0,5,,,,,3,,,68,108
166608,note_off,,,,,48,0,1,,,,,0,,,73,0
166608,note_off,,,,,48,0,5,,,,,3,,,69,0
166608,note_off,,,,,48,0,2,,,,,1,,,69,0
166608,note_on,,,,,0,0,2,,,,,1,,,68,92
166656,note_on,,,,,0,0,1,,,,,0,,,73,92
166656,note_off,,,,,48,0,1,,,,,0,,,71,0
166656,note_off,,,,,384,0,3,,,,,10,,,52,0
166656,note_on,,,,,64,0,9,,,,,7,,,40,45
166656,note_on,,,,,0,0,7,,,,,5,,,40,92
166656,note_on,,,,,0,0,4,,,,,2,,,73,108
166656,note_off,,,,,384,0,7,,,,,5,,,52,0
166656,note_on,,,,,64,0,8,,,,,6,,,28,75
166656,note_off,,,,,48,0,2,,,,,1,,,68,0
166656,note_on,,,,,0,0,2,,,,,1,,,69,92
166656,note_off,,,,,48,0,4,,,,,2,,,71,0
166656,note_on,,,,,0,0,6,,,,,4,,,64,92
166656,note_on,,,,,0,0,5,,,,,3,,,69,108
166656,note_off,,,,,384,0,6,,,,,4,,,59,0
166656,note_off,,,,,48,0,5,,,,,3,,,68,0
166656,note_on,,,,,0,0,3,,,,,10,,,40,92
166704,note_on,,,,,0,0,5,,,,,3,,,68,108
166704,note_off,,,,,48,0,1,,,,,0,,,73,0
166704,note_on,,,,,0,0,1,,,,,0,,,71,92
166704,note_off,,,,,48,0,2,,,,,1,,,69,0
166704,note_on,,,,,0,0,2,,,,,1,,,68,92
166704,note_off,,,,,48,0,4,,,,,2,,,73,0
166704,note_on,,,,,0,0,4,,,,,2,,,71,108
166704,note_off,,,,,48,0,5,,,,,3,,,69,0
166848,note_off,,,,,144,0,2,,,,,1,,,68,0
166848,note_off,,,,,144,0,4,,,,,2,,,71,0
166848,note_on,,,,,0,0,4,,,,,2,,,69,108
166848,note_on,,,,,0,0,1,,,,,0,,,69,92
166848,note_on,,,,,0,0,5,,,,,3,,,69,108
166848,note_off,,,,,144,0,5,,,,,3,,,68,0
166848,note_on,,,,,0,0,2,,,,,1,,,69,92
166848,note_off,,,,,144,0,1,,,,,0,,,71,0
166976,note_off,,,,,320,0,9,,,,,7,,,40,0
166976,note_off,,,,,320,0,8,,,,,6,,,28,0
167040,note_on,,,,,0,0,5,,,,,3,,,69,108
167040,note_on,,,,,0,0,3,,,,,10,,,45,92
167040,note_on,,,,,0,0,1,,,,,0,,,69,92
167040,note_off,,,,,192,0,1,,,,,0,,,69,0
167040,note_on,,,,,0,0,6,,,,,4,,,61,92
167040,note_off,,,,,384,0,6,,,,,4,,,64,0
167040,note_on,,,,,64,0,9,,,,,7,,,45,45
167040,note_off,,,,,192,0,2,,,,,1,,,69,0
167040,note_on,,,,,64,0,8,,,,,6,,,33,75
167040,note_off,,,,,192,0,4,,,,,2,,,69,0
167040,note_off,,,,,192,0,5,,,,,3,,,69,0
167040,note_off,,,,,384,0,7,,,,,5,,,40,0
167040,note_on,,,,,0,0,7,,,,,5,,,45,92
167040,note_off,,,,,384,0,3,,,,,10,,,40,0
167040,note_on,,,,,0,0,2,,,,,1,,,69,92
167040,note_on,,,,,0,0,4,,,,,2,,,69,108
167132,note_off,,,,,92,0,1,,,,,0,,,69,0
167136,note_on,,,,,4,0,1,,,,,0,,,64,92
167228,note_off,,,,,92,0,1,,,,,0,,,64,0
167232,note_on,,,,,4,0,1,,,,,0,,,66,92
167324,note_off,,,,,92,0,1,,,,,0,,,66,0
167328,note_on,,,,,4,0,1,,,,,0,,,68,92
167360,note_off,,,,,320,0,9,,,,,7,,,45,0
167360,note_off,,,,,320,0,8,,,,,6,,,33,0
167420,note_off,,,,,92,0,1,,,,,0,,,68,0
167424,note_off,,,,,384,0,2,,,,,1,,,69,0
167424,note_off,,,,,384,0,5,,,,,3,,,69,0
167424,note_off,,,,,384,0,3,,,,,10,,,45,0
167424,note_off,,,,,384,0,6,,,,,4,,,61,0
167424,note_off,,,,,384,0,7,,,,,5,,,45,0
167424,note_off,,,,,384,0,4,,,,,2,,,69,0
167424,note_on,,,,,4,0,1,,,,,0,,,69,92
167516,note_off,,,,,92,0,1,,,,,0,,,69,0
167520,note_on,,,,,4,0,1,,,,,0,,,71,92
167612,note_off,,,,,92,0,1,,,,,0,,,71,0
167616,note_on,,,,,4,0,1,,,,,0,,,73,92
167708,note_off,,,,,92,0,1,,,,,0,,,73,0
167712,note_on,,,,,4,0,1,,,,,0,,,74,92
167804,note_off,,,,,92,0,1,,,,,0,,,74,0
167808,note_on,,,,,384,0,4,,,,,2,,,71,60
167808,note_on,,,,,384,0,6,,,,,4,,,56,45
167808,note_on,,,,,384,0,2,,,,,1,,,71,45
167808,note_on,,,,,384,0,5,,,,,3,,,64,60
167808,note_on,,,,,384,0,3,,,,,10,,,56,45
167808,note_on,,,,,4,0,1,,,,,0,,,76,92
167900,note_off,,,,,92,0,1,,,,,0,,,76,0
167904,note_on,,,,,4,0,1,,,,,0,,,73,92
167996,note_off,,,,,92,0,1,,,,,0,,,73,0
168000,note_on,,,,,4,0,1,,,,,0,,,74,92
168092,note_off,,,,,92,0,1,,,,,0,,,74,0
168096,note_on,,,,,4,0,1,,,,,0,,,71,92
168188,note_off,,,,,92,0,1,,,,,0,,,71,0
168192,note_on,,,,,0,0,6,,,,,4,,,57,45
168192,note_off,,,,,384,0,5,,,,,3,,,64,0
168192,note_on,,,,,4,0,1,,,,,0,,,73,92
168192,note_on,,,,,0,0,5,,,,,3,,,73,60
168192,note_on,,,,,0,0,2,,,,,1,,,64,45
168192,note_off,,,,,384,0,3,,,,,10,,,56,0
168192,note_off,,,,,384,0,4,,,,,2,,,71,0
168192,note_on,,,,,0,0,4,,,,,2,,,64,60
168192,note_on,,,,,0,0,3,,,,,10,,,57,45
168192,note_off,,,,,384,0,2,,,,,1,,,71,0
168192,note_off,,,,,384,0,6,,,,,4,,,56,0
168284,note_off,,,,,92,0,1,,,,,0,,,73,0
168288,note_on,,,,,4,0,1,,,,,0,,,69,92
168380,note_off,,,,,92,0,1,,,,,0,,,69,0
168384,note_on,,,,,4,0,1,,,,,0,,,71,92
168476,note_off,,,,,92,0,1,,,,,0,,,71,0
168480,note_on,,,,,4,0,1,,,,,0,,,73,92
168572,note_off,,,,,92,0,1,,,,,0,,,73,0
168576,note_off,,,,,384,0,4,,,,,2,,,64,0
168576,note_off,,,,,384,0,2,,,,,1,,,64,0
168576,note_off,,,,,384,0,3,,,,,10,,,57,0
168576,note_off,,,,,384,0,6,,,,,4,,,57,0
168576,note_on,,,,,4,0,1,,,,,0,,,74,92
168576,note_off,,,,,384,0,5,,,,,3,,,73,0
168668,note_off,,,,,92,0,1,,,,,0,,,74,0
168672,note_on,,,,,4,0,1,,,,,0,,,76,92
168764,note_off,,,,,92,0,1,,,,,0,,,76,0
168768,note_on,,,,,4,0,1,,,,,0,,,78,92
168860,note_off,,,,,92,0,1,,,,,0,,,78,0
168864,note_on,,,,,4,0,1,,,,,0,,,79,92
168956,note_off,,,,,92,0,1,,,,,0,,,79,0
168960,note_on,,,,,384,0,2,,,,,1,,,76,45
168960,note_on,,,,,384,0,4,,,,,2,,,76,60
168960,note_on,,,,,384,0,6,,,,,4,,,61,45
168960,note_on,,,,,384,0,5,,,,,3,,,69,60
168960,note_on,,,,,4,0,1,,,,,0,,,81,92
168960,note_on,,,,,384,0,3,,,,,10,,,61,45
169052,note_off,,,,,92,0,1,,,,,0,,,81,0
169056,note_on,,,,,4,0,1,,,,,0,,,78,92
169148,note_off,,,,,92,0,1,,,,,0,,,78,0
169152,note_on,,,,,4,0,1,,,,,0,,,79,92
169244,note_off,,,,,92,0,1,,,,,0,,,79,0
169248,note_on,,,,,4,0,1,,,,,0,,,76,92
169340,note_off,,,,,92,0,1,,,,,0,,,76,0
169344,note_on,,,,,0,0,6,,,,,4,,,62,45
169344,note_off,,,,,384,0,6,,,,,4,,,61,0
169344,note_on,,,,,4,0,1,,,,,0,,,78,92
169344,note_off,,,,,384,0,2,,,,,1,,,76,0
169344,note_on,,,,,0,0,2,,,,,1,,,69,45
169344,note_off,,,,,384,0,5,,,,,3,,,69,0
169344,note_on,,,,,0,0,5,,,,,3,,,78,60
169344,note_on,,,,,0,0,4,,,,,2,,,69,60
169344,note_off,,,,,384,0,4,,,,,2,,,76,0
169344,note_off,,,,,384,0,3,,,,,10,,,61,0
169344,note_on,,,,,0,0,3,,,,,10,,,62,45
169436,note_off,,,,,92,0,1,,,,,0,,,78,0
169440,note_on,,,,,4,0,1,,,,,0,,,69,92
169532,note_off,,,,,92,0,1,,,,,0,,,69,0
169536,note_on,,,,,4,0,1,,,,,0,,,74,92
169628,note_off,,,,,92,0,1,,,,,0,,,74,0
169632,note_on,,,,,4,0,1,,,,,0,,,78,92
169724,note_off,,,,,92,0,1,,,,,0,,,78,0
169728,note_on,,,,,4,0,1,,,,,0,,,81,92
169728,note_off,,,,,384,0,5,,,,,3,,,78,0
169728,note_off,,,,,384,0,4,,,,,2,,,69,0
169728,note_off,,,,,384,0,6,,,,,4,,,62,0
169728,note_off,,,,,384,0,2,,,,,1,,,69,0
169728,note_off,,,,,384,0,3,,,,,10,,,62,0
169820,note_off,,,,,92,0,1,,,,,0,,,81,0
169824,note_on,,,,,4,0,1,,,,,0,,,74,92
169916,note_off,,,,,92,0,1,,,,,0,,,74,0
169920,note_on,,,,,4,0,1,,,,,0,,,78,92
170012,note_off,,,,,92,0,1,,,,,0,,,78,0
170016,note_on,,,,,4,0,1,,,,,0,,,81,92
170108,note_off,,,,,92,0,1,,,,,0,,,81,0
170112,note_on,,,,,384,0,6,,,,,4,,,59,45
170112,note_on,,,,,384,0,5,,,,,3,,,78,60
170112,note_on,,,,,4,0,1,,,,,0,,,86,92
170112,note_on,,,,,384,0,3,,,,,10,,,59,45
170112,note_on,,,,,384,0,4,,,,,2,,,71,60
170112,note_on,,,,,384,0,2,,,,,1,,,71,45
170204,note_off,,,,,92,0,1,,,,,0,,,86,0
170208,note_on,,,,,4,0,1,,,,,0,,,78,92
170300,note_off,,,,,92,0,1,,,,,0,,,78,0
170304,note_on,,,,,4,0,1,,,,,0,,,86,92
170396,note_off,,,,,92,0,1,,,,,0,,,86,0
170400,note_on,,,,,4,0,1,,,,,0,,,78,92
170492,note_off,,,,,92,0,1,,,,,0,,,78,0
170496,note_off,,,,,384,0,2,,,,,1,,,71,0
170496,note_off,,,,,384,0,6,,,,,4,,,59,0
170496,note_on,,,,,4,0,1,,,,,0,,,76,92
170496,note_on,,,,,0,0,6,,,,,4,,,56,45
170496,note_on,,,,,0,0,4,,,,,2,,,76,60
170496,note_off,,,,,384,0,5,,,,,3,,,78,0
170496,note_on,,,,,0,0,5,,,,,3,,,71,60
170496,note_off,,,,,384,0,4,,,,,2,,,71,0
170496,note_off,,,,,384,0,3,,,,,10,,,59,0
170496,note_on,,,,,0,0,3,,,,,10,,,56,45
170496,note_on,,,,,0,0,2,,,,,1,,,71,45
170588,note_off,,,,,92,0,1,,,,,0,,,76,0
170592,note_on,,,,,4,0,1,,,,,0,,,86,92
170684,note_off,,,,,92,0,1,,,,,0,,,86,0
170688,note_on,,,,,4,0,1,,,,,0,,,83,92
170780,note_off,,,,,92,0,1,,,,,0,,,83,0
170784,note_on,,,,,4,0,1,,,,,0,,,86,92
170876,note_off,,,,,92,0,1,,,,,0,,,86,0
170880,note_off,,,,,384,0,4,,,,,2,,,76,0
170880,note_off,,,,,384,0,3,,,,,10,,,56,0
170880,note_off,,,,,384,0,2,,,,,1,,,71,0
170880,note_off,,,,,384,0,5,,,,,3,,,71,0
170880,note_off,,,,,384,0,6,,,,,4,,,56,0
170880,note_on,,,,,4,0,1,,,,,0,,,76,92
170972,note_off,,,,,92,0,1,,,,,0,,,76,0
170976,note_on,,,,,4,0,1,,,,,0,,,86,92
171068,note_off,,,,,92,0,1,,,,,0,,,86,0
171072,note_on,,,,,4,0,1,,,,,0,,,83,92
171164,note_off,,,,,92,0,1,,,,,0,,,83,0
171168,note_on,,,,,4,0,1,,,,,0,,,86,92
171260,note_off,,,,,92,0,1,,,,,0,,,86,0
171264,note_on,,,,,384,0,2,,,,,1,,,73,45
171264,note_on,,,,,384,0,3,,,,,10,,,57,45
171264,note_on,,,,,384,0,5,,,,,3,,,76,60
171264,note_on,,,,,384,0,4,,,,,2,,,73,60
171264,note_on,,,,,4,0,1,,,,,0,,,76,92
171264,note_on,,,,,384,0,6,,,,,4,,,57,45
171356,note_off,,,,,92,0,1,,,,,0,,,76,0
171360,note_on,,,,,4,0,1,,,,,0,,,85,92
171452,note_off,,,,,92,0,1,,,,,0,,,85,0
171456,note_on,,,,,4,0,1,,,,,0,,,81,92
171548,note_off,,,,,92,0,1,,,,,0,,,81,0
171552,note_on,,,,,4,0,1,,,,,0,,,85,92
171644,note_off,,,,,92,0,1,,,,,0,,,85,0
171648,note_on,,,,,0,0,2,,,,,1,,,74,45
171648,note_off,,,,,384,0,5,,,,,3,,,76,0
171648,note_on,,,,,0,0,6,,,,,4,,,54,45
171648,note_on,,,,,0,0,3,,,,,10,,,54,45
171648,note_on,,,,,4,0,1,,,,,0,,,69,92
171648,note_off,,,,,384,0,2,,,,,1,,,73,0
171648,note_on,,,,,0,0,4,,,,,2,,,74,60
171648,note_off,,,,,384,0,4,,,,,2,,,73,0
171648,note_on,,,,,0,0,5,,,,,3,,,74,60
171648,note_off,,,,,384,0,3,,,,,10,,,57,0
171648,note_off,,,,,384,0,6,,,,,4,,,57,0
171740,note_off,,,,,92,0,1,,,,,0,,,69,0
171744,note_on,,,,,4,0,1,,,,,0,,,85,92
171836,note_off,,,,,92,0,1,,,,,0,,,85,0
171840,note_on,,,,,4,0,1,,,,,0,,,86,92
171932,note_off,,,,,92,0,1,,,,,0,,,86,0
171936,note_on,,,,,4,0,1,,,,,0,,,85,92
172028,note_off,,,,,92,0,1,,,,,0,,,85,0
172032,note_off,,,,,384,0,6,,,,,4,,,54,0
172032,note_off,,,,,384,0,2,,,,,1,,,74,0
172032,note_off,,,,,384,0,3,,,,,10,,,54,0
172032,note_off,,,,,384,0,4,,,,,2,,,74,0
172032,note_off,,,,,384,0,5,,,,,3,,,74,0
172032,note_on,,,,,4,0,1,,,,,0,,,83,92
172124,note_off,,,,,92,0,1,,,,,0,,,83,0
172128,note_on,,,,,4,0,1,,,,,0,,,85,92
172220,note_off,,,,,92,0,1,,,,,0,,,85,0
172224,note_on,,,,,4,0,1,,,,,0,,,86,92
172316,note_off,,,,,92,0,1,,,,,0,,,86,0
172320,note_on,,,,,4,0,1,,,,,0,,,85,92
172412,note_off,,,,,92,0,1,,,,,0,,,85,0
172416,note_on,,,,,384,0,3,,,,,10,,,50,45
172416,note_on,,,,,384,0,6,,,,,4,,,50,45
172416,note_on,,,,,384,0,2,,,,,1,,,78,45
172416,note_on,,,,,4,0,1,,,,,0,,,83,92
172416,note_on,,,,,384,0,4,,,,,2,,,78,60
172416,note_on,,,,,384,0,5,,,,,3,,,74,60
172508,note_off,,,,,92,0,1,,,,,0,,,83,0
172512,note_on,,,,,4,0,1,,,,,0,,,85,92
172604,note_off,,,,,92,0,1,,,,,0,,,85,0
172608,note_on,,,,,4,0,1,,,,,0,,,81,92
172700,note_off,,,,,92,0,1,,,,,0,,,81,0
172704,note_on,,,,,4,0,1,,,,,0,,,83,92
172796,note_off,,,,,92,0,1,,,,,0,,,83,0
172800,note_off,,,,,384,0,5,,,,,3,,,74,0
172800,note_on,,,,,4,0,1,,,,,0,,,76,92
172800,note_off,,,,,384,0,6,,,,,4,,,50,0
172800,note_on,,,,,0,0,6,,,,,4,,,52,45
172800,note_off,,,,,384,0,3,,,,,10,,,50,0
172800,note_on,,,,,0,0,3,,,,,10,,,52,45
172800,note_on,,,,,0,0,2,,,,,1,,,80,45
172800,note_off,,,,,384,0,2,,,,,1,,,78,0
172800,note_off,,,,,384,0,4,,,,,2,,,78,0
172800,note_on,,,,,0,0,4,,,,,2,,,80,60
172800,note_on,,,,,0,0,5,,,,,3,,,71,60
172892,note_off,,,,,92,0,1,,,,,0,,,76,0
172896,note_on,,,,,4,0,1,,,,,0,,,83,92
172988,note_off,,,,,92,0,1,,,,,0,,,83,0
172992,note_on,,,,,4,0,1,,,,,0,,,80,92
173084,note_off,,,,,92,0,1,,,,,0,,,80,0
173088,note_on,,,,,4,0,1,,,,,0,,,83,92
173180,note_off,,,,,92,0,1,,,,,0,,,83,0
173184,note_on,,,,,4,0,1,,,,,0,,,80,92
173184,note_off,,,,,384,0,5,,,,,3,,,71,0
173184,note_off,,,,,384,0,6,,,,,4,,,52,0
173184,note_off,,,,,384,0,2,,,,,1,,,80,0
173184,note_off,,,,,384,0,3,,,,,10,,,52,0
173184,note_off,,,,,384,0,4,,,,,2,,,80,0
173276,note_off,,,,,92,0,1,,,,,0,,,80,0
173280,note_on,,,,,4,0,1,,,,,0,,,76,92
173372,note_off,,,,,92,0,1,,,,,0,,,76,0
173376,note_on,,,,,4,0,1,,,,,0,,,80,92
173468,note_off,,,,,92,0,1,,,,,0,,,80,0
173472,note_on,,,,,4,0,1,,,,,0,,,83,92
173564,note_off,,,,,92,0,1,,,,,0,,,83,0
173568,note_on,,,,,384,0,6,,,,,4,,,56,45
173568,note_on,,,,,384,0,5,,,,,3,,,64,60
173568,note_on,,,,,384,0,3,,,,,10,,,56,45
173568,note_on,,,,,384,0,4,,,,,2,,,71,60
173568,note_on,,,,,4,0,1,,,,,0,,,74,92
173568,note_on,,,,,384,0,2,,,,,1,,,71,45
173660,note_off,,,,,92,0,1,,,,,0,,,74,0
173664,note_on,,,,,4,0,1,,,,,0,,,78,92
173756,note_off,,,,,92,0,1,,,,,0,,,78,0
173760,note_on,,,,,4,0,1,,,,,0,,,76,92
173852,note_off,,,,,92,0,1,,,,,0,,,76,0
173856,note_on,,,,,4,0,1,,,,,0,,,74,92
173948,note_off,,,,,92,0,1,,,,,0,,,74,0
173952,note_on,,,,,0,0,3,,,,,10,,,57,45
173952,note_off,,,,,384,0,3,,,,,10,,,56,0
173952,note_off,,,,,384,0,4,,,,,2,,,71,0
173952,note_on,,,,,0,0,4,,,,,2,,,73,60
173952,note_off,,,,,384,0,5,,,,,3,,,64,0
173952,note_on,,,,,0,0,5,,,,,3,,,64,60
173952,note_on,,,,,0,0,6,,,,,4,,,57,45
173952,note_off,,,,,384,0,2,,,,,1,,,71,0
173952,note_off,,,,,384,0,6,,,,,4,,,56,0
173952,note_on,,,,,4,0,1,,,,,0,,,73,92
173952,note_on,,,,,0,0,2,,,,,1,,,73,45
174044,note_off,,,,,92,0,1,,,,,0,,,73,0
174048,note_on,,,,,4,0,1,,,,,0,,,69,92
174140,note_off,,,,,92,0,1,,,,,0,,,69,0
174144,note_on,,,,,4,0,1,,,,,0,,,73,92
174236,note_off,,,,,92,0,1,,,,,0,,,73,0
174240,note_on,,,,,4,0,1,,,,,0,,,76,92
174332,note_off,,,,,92,0,1,,,,,0,,,76,0
174336,note_off,,,,,384,0,4,,,,,2,,,73,0
174336,note_off,,,,,384,0,5,,,,,3,,,64,0
174336,note_off,,,,,384,0,3,,,,,10,,,57,0
174336,note_off,,,,,384,0,2,,,,,1,,,73,0
174336,note_off,,,,,384,0,6,,,,,4,,,57,0
174336,note_on,,,,,4,0,1,,,,,0,,,73,92
174428,note_off,,,,,92,0,1,,,,,0,,,73,0
174432,note_on,,,,,4,0,1,,,,,0,,,69,92
174524,note_off,,,,,92,0,1,,,,,0,,,69,0
174528,note_on,,,,,4,0,1,,,,,0,,,73,92
174620,note_off,,,,,92,0,1,,,,,0,,,73,0
174624,note_on,,,,,4,0,1,,,,,0,,,76,92
174716,note_off,,,,,92,0,1,,,,,0,,,76,0
174720,note_on,,,,,384,0,4,,,,,2,,,73,60
174720,note_on,,,,,384,0,3,,,,,10,,,45,45
174720,note_on,,,,,4,0,1,,,,,0,,,69,92
174720,note_on,,,,,384,0,6,,,,,4,,,57,45
174720,note_on,,,,,384,0,2,,,,,1,,,73,45
174720,note_on,,,,,384,0,5,,,,,3,,,64,60
174812,note_off,,,,,92,0,1,,,,,0,,,69,0
174816,note_on,,,,,4,0,1,,,,,0,,,73,92
174908,note_off,,,,,92,0,1,,,,,0,,,73,0
174912,note_on,,,,,4,0,1,,,,,0,,,71,92
175004,note_off,,,,,92,0,1,,,,,0,,,71,0
175008,note_on,,,,,4,0,1,,,,,0,,,69,92
175100,note_off,,,,,92,0,1,,,,,0,,,69,0
175104,note_off,,,,,384,0,4,,,,,2,,,73,0
175104,note_on,,,,,4,0,1,,,,,0,,,68,92
175104,note_on,,,,,0,0,3,,,,,10,,,52,45
175104,note_on,,,,,0,0,4,,,,,2,,,71,60
175104,note_off,,,,,384,0,5,,,,,3,,,64,0
175104,note_on,,,,,0,0,5,,,,,3,,,68,60
175104,note_on,,,,,0,0,2,,,,,1,,,71,45
175104,note_on,,,,,0,0,6,,,,,4,,,52,45
175104,note_off,,,,,384,0,6,,,,,4,,,57,0
175104,note_off,,,,,384,0,2,,,,,1,,,73,0
175104,note_off,,,,,384,0,3,,,,,10,,,45,0
175104,set_tempo,,,,,33024,1,0,,1333333,,,,,,,
175424,note_off,,,,,320,0,1,,,,,0,,,68,0
175488,note_off,,,,,384,0,6,,,,,4,,,52,0
175488,note_off,,,,,384,0,3,,,,,10,,,52,0
175488,note_off,,,,,384,0,2,,,,,1,,,71,0
175488,set_tempo,,,,,384,1,0,,1000000,,,,,,,
175488,note_off,,,,,384,0,4,,,,,2,,,71,0
175488,note_off,,,,,384,0,5,,,,,3,,,68,0
175488,note_on,,,,,64,0,1,,,,,0,,,64,92
175676,note_off,,,,,188,0,1,,,,,0,,,64,0
175680,note_on,,,,,4,0,1,,,,,0,,,68,92
175868,note_off,,,,,188,0,1,,,,,0,,,68,0
175872,note_on,,,,,4,0,1,,,,,0,,,71,92
176060,note_off,,,,,188,0,1,,,,,0,,,71,0
176064,note_on,,,,,4,0,1,,,,,0,,,74,92
176444,note_off,,,,,380,0,1,,,,,0,,,74,0
176448,note_on,,,,,4,0,1,,,,,0,,,80,92
176636,note_off,,,,,188,0,1,,,,,0,,,80,0
176640,note_on,,,,,4,0,1,,,,,0,,,83,92
176828,note_off,,,,,188,0,1,,,,,0,,,83,0
176832,note_on,,,,,4,0,1,,,,,0,,,80,92
177020,note_off,,,,,188,0,1,,,,,0,,,80,0
177024,note_on,,,,,4,0,1,,,,,0,,,74,92
177344,note_off,,,,,320,0,1,,,,,0,,,74,0
177408,note_on,,,,,64,0,1,,,,,0,,,73,92
177692,note_off,,,,,284,0,1,,,,,0,,,73,0
177696,note_on,,,,,4,0,1,,,,,0,,,71,92
177884,note_off,,,,,188,0,1,,,,,0,,,71,0
177888,note_on,,,,,4,0,1,,,,,0,,,73,92
177936,note_off,,,,,48,0,1,,,,,0,,,73,0
177936,note_on,,,,,0,0,1,,,,,0,,,71,92
177984,note_off,,,,,48,0,1,,,,,0,,,71,0
177984,note_on,,,,,0,0,1,,,,,0,,,73,92
178032,note_on,,,,,0,0,1,,,,,0,,,71,92
178032,note_off,,,,,48,0,1,,,,,0,,,73,0
178080,note_off,,,,,48,0,1,,,,,0,,,71,0
178080,note_on,,,,,0,0,1,,,,,0,,,73,92
178128,note_on,,,,,0,0,1,,,,,0,,,71,92
178128,note_off,,,,,48,0,1,,,,,0,,,73,0
178176,note_off,,,,,48,0,1,,,,,0,,,71,0
178176,note_on,,,,,0,0,1,,,,,0,,,73,92
178224,note_off,,,,,48,0,1,,,,,0,,,73,0
178224,note_on,,,,,0,0,1,,,,,0,,,71,92
178364,note_off,,,,,140,0,1,,,,,0,,,71,0
178368,note_on,,,,,4,0,1,,,,,0,,,69,92
178556,note_off,,,,,188,0,1,,,,,0,,,69,0
178560,note_on,,,,,4,0,1,,,,,0,,,69,92
178560,set_tempo,,,,,3072,1,0,,1333333,,,,,,,
178880,note_off,,,,,320,0,1,,,,,0,,,69,0
178944,note_on,,,,,11584,0,8,,,,,6,,,45,75
178944,note_on,,,,,64,0,1,,,,,0,,,73,92
178944,note_on,,,,,11584,0,9,,,,,7,,,57,45
178944,note_on,,,,,3456,0,3,,,,,10,,,57,92
178944,set_tempo,,,,,384,1,0,,666666,,,,,,,
178944,note_on,,,,,3456,0,4,,,,,2,,,73,108
178944,note_on,,,,,3456,0,6,,,,,4,,,64,92
178944,note_on,,,,,11520,0,7,,,,,5,,,57,92
178944,note_on,,,,,3456,0,2,,,,,1,,,69,92
178944,note_on,,,,,3456,0,5,,,,,3,,,69,108
178944,end_of_track,,,,,0,1,0,,,,,,,,,
179264,note_off,,,,,320,0,8,,,,,6,,,45,0
179264,note_off,,,,,320,0,9,,,,,7,,,57,0
179264,note_off,,,,,320,0,1,,,,,0,,,73,0
179328,note_off,,,,,384,0,4,,,,,2,,,73,0
179328,note_on,,,,,0,0,4,,,,,2,,,74,108
179328,note_off,,,,,384,0,5,,,,,3,,,69,0
179328,note_on,,,,,0,0,5,,,,,3,,,71,108
179328,note_on,,,,,64,0,9,,,,,7,,,50,45
179328,note_on,,,,,64,0,1,,,,,0,,,74,92
179328,note_on,,,,,0,0,7,,,,,5,,,50,92
179328,note_on,,,,,0,0,3,,,,,10,,,50,92
179328,note_off,,,,,384,0,3,,,,,10,,,57,0
179328,note_on,,,,,0,0,6,,,,,4,,,66,92
179328,note_off,,,,,384,0,6,,,,,4,,,64,0
179328,note_off,,,,,384,0,7,,,,,5,,,57,0
179328,note_off,,,,,384,0,2,,,,,1,,,69,0
179328,note_on,,,,,0,0,2,,,,,1,,,71,92
179328,note_on,,,,,64,0,8,,,,,6,,,38,75
179648,note_off,,,,,320,0,1,,,,,0,,,74,0
179648,note_off,,,,,320,0,8,,,,,6,,,38,0
179648,note_off,,,,,320,0,9,,,,,7,,,50,0
179712,note_on,,,,,64,0,1,,,,,0,,,76,92
179712,note_on,,,,,0,0,6,,,,,4,,,61,92
179712,note_off,,,,,384,0,6,,,,,4,,,66,0
179712,note_on,,,,,64,0,8,,,,,6,,,33,75
179712,note_on,,,,,0,0,3,,,,,10,,,45,92
179712,note_off,,,,,384,0,4,,,,,2,,,74,0
179712,note_on,,,,,0,0,7,,,,,5,,,45,92
179712,note_off,,,,,384,0,7,,,,,5,,,50,0
179712,note_on,,,,,0,0,4,,,,,2,,,76,108
179712,note_on,,,,,64,0,9,,,,,7,,,45,45
179712,note_on,,,,,0,0,5,,,,,3,,,73,108
179712,note_off,,,,,384,0,3,,,,,10,,,50,0
179712,note_off,,,,,384,0,2,,,,,1,,,71,0
179712,note_on,,,,,0,0,2,,,,,1,,,73,92
179712,note_off,,,,,384,0,5,,,,,3,,,71,0
180224,note_off,,,,,512,0,9,,,,,7,,,45,0
180224,note_off,,,,,512,0,1,,,,,0,,,76,0
180224,note_off,,,,,512,0,8,,,,,6,,,33,0
180288,note_off,,,,,576,0,6,,,,,4,,,61,0
180288,note_on,,,,,0,0,6,,,,,4,,,62,92
180288,note_on,,,,,0,0,2,,,,,1,,,71,92
180288,note_off,,,,,576,0,3,,,,,10,,,45,0
180288,note_on,,,,,64,0,8,,,,,6,,,35,75
180288,note_on,,,,,0,0,3,,,,,10,,,47,92
180288,note_off,,,,,576,0,2,,,,,1,,,73,0
180288,note_on,,,,,64,0,9,,,,,7,,,47,45
180288,note_on,,,,,0,0,5,,,,,3,,,71,108
180288,note_off,,,,,576,0,7,,,,,5,,,45,0
180288,note_off,,,,,576,0,5,,,,,3,,,73,0
180288,note_on,,,,,0,0,7,,,,,5,,,47,92
180288,note_off,,,,,576,0,4,,,,,2,,,76,0
180288,note_on,,,,,0,0,4,,,,,2,,,74,108
180288,note_on,,,,,64,0,1,,,,,0,,,74,92
180476,note_off,,,,,188,0,9,,,,,7,,,47,0
180476,note_off,,,,,188,0,8,,,,,6,,,35,0
180476,note_off,,,,,188,0,1,,,,,0,,,74,0
180480,note_off,,,,,192,0,7,,,,,5,,,47,0
180480,note_off,,,,,192,0,5,,,,,3,,,71,0
180480,note_on,,,,,0,0,5,,,,,3,,,69,108
180480,note_on,,,,,4,0,8,,,,,6,,,37,75
180480,note_on,,,,,0,0,4,,,,,2,,,73,108
180480,note_off,,,,,192,0,4,,,,,2,,,74,0
180480,note_on,,,,,0,0,6,,,,,4,,,64,92
180480,note_off,,,,,192,0,6,,,,,4,,,62,0
180480,note_off,,,,,192,0,3,,,,,10,,,47,0
180480,note_on,,,,,0,0,2,,,,,1,,,69,92
180480,note_off,,,,,192,0,2,,,,,1,,,71,0
180480,note_on,,,,,4,0,1,,,,,0,,,73,92
180480,note_on,,,,,4,0,9,,,,,7,,,49,45
180480,note_on,,,,,0,0,3,,,,,10,,,49,92
180480,note_on,,,,,0,0,7,,,,,5,,,49,92
180800,note_off,,,,,320,0,1,,,,,0,,,73,0
180800,note_off,,,,,320,0,8,,,,,6,,,37,0
180800,note_off,,,,,320,0,9,,,,,7,,,49,0
180864,note_on,,,,,64,0,8,,,,,6,,,38,75
180864,note_off,,,,,384,0,4,,,,,2,,,73,0
180864,note_on,,,,,0,0,4,,,,,2,,,71,108
180864,note_on,,,,,0,0,2,,,,,1,,,69,92
180864,note_off,,,,,384,0,2,,,,,1,,,69,0
180864,note_on,,,,,0,0,6,,,,,4,,,66,92
180864,note_off,,,,,384,0,6,,,,,4,,,64,0
180864,note_off,,,,,384,0,5,,,,,3,,,69,0
180864,note_on,,,,,0,0,5,,,,,3,,,69,108
180864,note_on,,,,,64,0,1,,,,,0,,,71,92
180864,note_on,,,,,0,0,7,,,,,5,,,50,92
180864,note_off,,,,,384,0,7,,,,,5,,,49,0
180864,note_on,,,,,64,0,9,,,,,7,,,50,45
180864,note_on,,,,,0,0,3,,,,,10,,,50,92
180864,note_off,,,,,384,0,3,,,,,10,,,49,0
181184,note_off,,,,,320,0,8,,,,,6,,,38,0
181184,note_off,,,,,320,0,1,,,,,0,,,71,0
181184,note_off,,,,,320,0,9,,,,,7,,,50,0
181248,note_on,,,,,0,0,2,,,,,1,,,69,92
181248,note_on,,,,,64,0,9,,,,,7,,,52,45
181248,note_off,,,,,384,0,3,,,,,10,,,50,0
181248,note_on,,,,,0,0,3,,,,,10,,,52,92
181248,note_off,,,,,384,0,7,,,,,5,,,50,0
181248,note_on,,,,,0,0,7,,,,,5,,,52,92
181248,note_on,,,,,0,0,6,,,,,4,,,64,92
181248,note_off,,,,,384,0,6,,,,,4,,,66,0
181248,note_off,,,,,384,0,4,,,,,2,,,71,0
181248,note_off,,,,,384,0,2,,,,,1,,,69,0
181248,note_on,,,,,0,0,4,,,,,2,,,71,108
181248,note_on,,,,,64,0,1,,,,,0,,,71,92
181248,note_on,,,,,64,0,8,,,,,6,,,40,75
181248,note_off,,,,,384,0,5,,,,,3,,,69,0
181248,note_on,,,,,0,0,5,,,,,3,,,69,108
181568,note_off,,,,,320,0,1,,,,,0,,,71,0
181568,note_off,,,,,320,0,8,,,,,6,,,40,0
181568,note_off,,,,,320,0,9,,,,,7,,,52,0
181632,note_on,,,,,0,0,4,,,,,2,,,71,108
181632,note_off,,,,,384,0,2,,,,,1,,,69,0
181632,note_on,,,,,0,0,2,,,,,1,,,69,92
181632,note_off,,,,,384,0,5,,,,,3,,,69,0
181632,note_on,,,,,64,0,9,,,,,7,,,54,45
181632,note_on,,,,,0,0,6,,,,,4,,,63,92
181632,note_on,,,,,0,0,7,,,,,5,,,54,92
181632,note_off,,,,,384,0,3,,,,,10,,,52,0
181632,note_on,,,,,0,0,5,,,,,3,,,69,108
181632,note_off,,,,,384,0,7,,,,,5,,,52,0
181632,note_on,,,,,64,0,8,,,,,6,,,42,75
181632,note_on,,,,,64,0,1,,,,,0,,,71,92
181632,note_off,,,,,384,0,4,,,,,2,,,71,0
181632,note_on,,,,,0,0,3,,,,,10,,,54,92
181632,note_off,,,,,384,0,6,,,,,4,,,64,0
181952,note_off,,,,,320,0,8,,,,,6,,,42,0
181952,note_off,,,,,320,0,9,,,,,7,,,54,0
181952,note_off,,,,,320,0,1,,,,,0,,,71,0
182016,note_off,,,,,384,0,3,,,,,10,,,54,0
182016,note_on,,,,,0,0,3,,,,,10,,,52,92
182016,note_off,,,,,384,0,7,,,,,5,,,54,0
182016,note_on,,,,,0,0,6,,,,,4,,,64,92
182016,note_on,,,,,0,0,7,,,,,5,,,52,92
182016,note_off,,,,,384,0,6,,,,,4,,,63,0
182016,note_off,,,,,384,0,2,,,,,1,,,69,0
182016,note_on,,,,,0,0,2,,,,,1,,,68,92
182016,note_on,,,,,64,0,8,,,,,6,,,40,75
182016,note_off,,,,,384,0,4,,,,,2,,,71,0
182016,note_on,,,,,64,0,1,,,,,0,,,71,92
182016,note_on,,,,,64,0,9,,,,,7,,,52,45
182016,note_on,,,,,0,0,4,,,,,2,,,71,108
182016,note_on,,,,,0,0,5,,,,,3,,,68,108
182016,note_off,,,,,384,0,5,,,,,3,,,69,0
182336,note_off,,,,,320,0,1,,,,,0,,,71,0
182336,note_off,,,,,320,0,8,,,,,6,,,40,0
182336,note_off,,,,,320,0,9,,,,,7,,,52,0
182400,note_on,,,,,0,0,5,,,,,3,,,73,108
182400,note_off,,,,,384,0,4,,,,,2,,,71,0
182400,note_off,,,,,384,0,6,,,,,4,,,64,0
182400,note_off,,,,,384,0,3,,,,,10,,,52,0
182400,note_off,,,,,384,0,7,,,,,5,,,52,0
182400,note_off,,,,,384,0,2,,,,,1,,,68,0
182400,note_on,,,,,0,0,2,,,,,1,,,73,92
182400,note_on,,,,,0,0,4,,,,,2,,,76,108
182400,note_on,,,,,64,0,1,,,,,0,,,76,92
182400,note_off,,,,,384,0,5,,,,,3,,,68,0
182720,note_off,,,,,320,0,1,,,,,0,,,76,0
182784,note_on,,,,,0,0,4,,,,,2,,,74,108
182784,note_on,,,,,64,0,1,,,,,0,,,74,92
182784,note_off,,,,,384,0,4,,,,,2,,,76,0
182784,note_off,,,,,384,0,5,,,,,3,,,73,0
182784,note_on,,,,,0,0,5,,,,,3,,,71,108
182784,note_on,,,,,0,0,2,,,,,1,,,71,92
182784,note_off,,,,,384,0,2,,,,,1,,,73,0
183104,note_off,,,,,320,0,1,,,,,0,,,74,0
183168,note_on,,,,,0,0,5,,,,,3,,,69,108
183168,note_on,,,,,0,0,4,,,,,2,,,73,108
183168,note_off,,,,,384,0,4,,,,,2,,,74,0
183168,note_off,,,,,384,0,5,,,,,3,,,71,0
183168,note_on,,,,,0,0,2,,,,,1,,,69,92
183168,note_on,,,,,64,0,1,,,,,0,,,73,92
183168,note_off,,,,,384,0,2,,,,,1,,,71,0
183488,note_off,,,,,320,0,1,,,,,0,,,73,0
183552,note_on,,,,,1152,0,6,,,,,4,,,61,92
183552,note_on,,,,,64,0,1,,,,,0,,,71,92
183552,note_on,,,,,0,0,5,,,,,3,,,68,108
183552,note_on,,,,,1216,0,9,,,,,7,,,54,45
183552,note_off,,,,,384,0,5,,,,,3,,,69,0
183552,note_on,,,,,1152,0,3,,,,,10,,,54,92
183552,note_on,,,,,0,0,2,,,,,1,,,68,92
183552,note_on,,,,,1152,0,7,,,,,5,,,54,92
183552,note_on,,,,,0,0,4,,,,,2,,,71,108
183552,note_on,,,,,1216,0,8,,,,,6,,,42,75
183552,note_off,,,,,384,0,4,,,,,2,,,73,0
183552,note_off,,,,,384,0,2,,,,,1,,,69,0
183872,note_off,,,,,320,0,9,,,,,7,,,54,0
183872,note_off,,,,,320,0,8,,,,,6,,,42,0
183872,note_off,,,,,320,0,1,,,,,0,,,71,0
183936,note_on,,,,,64,0,1,,,,,0,,,73,92
183936,note_on,,,,,64,0,9,,,,,7,,,52,45
183936,note_on,,,,,0,0,3,,,,,10,,,52,92
183936,note_off,,,,,384,0,3,,,,,10,,,54,0
183936,note_off,,,,,384,0,2,,,,,1,,,68,0
183936,note_off,,,,,384,0,7,,,,,5,,,54,0
183936,note_on,,,,,0,0,7,,,,,5,,,52,92
183936,note_on,,,,,0,0,2,,,,,1,,,69,92
183936,note_on,,,,,0,0,5,,,,,3,,,69,108
183936,note_off,,,,,384,0,5,,,,,3,,,68,0
183936,note_on,,,,,64,0,8,,,,,6,,,40,75
183936,note_off,,,,,384,0,4,,,,,2,,,71,0
183936,note_on,,,,,0,0,4,,,,,2,,,73,108
183936,note_off,,,,,384,0,6,,,,,4,,,61,0
183936,note_on,,,,,0,0,6,,,,,4,,,66,92
184256,note_off,,,,,320,0,9,,,,,7,,,52,0
184256,note_off,,,,,320,0,1,,,,,0,,,73,0
184256,note_off,,,,,320,0,8,,,,,6,,,40,0
184320,note_on,,,,,0,0,2,,,,,1,,,71,92
184320,note_off,,,,,384,0,3,,,,,10,,,52,0
184320,note_on,,,,,0,0,4,,,,,2,,,74,108
184320,note_on,,,,,0,0,3,,,,,10,,,50,92
184320,note_off,,,,,384,0,5,,,,,3,,,69,0
184320,note_off,,,,,384,0,2,,,,,1,,,69,0
184320,note_on,,,,,64,0,9,,,,,7,,,50,45
184320,note_on,,,,,0,0,7,,,,,5,,,50,92
184320,note_off,,,,,384,0,4,,,,,2,,,73,0
184320,note_on,,,,,64,0,8,,,,,6,,,38,75
184320,note_off,,,,,384,0,6,,,,,4,,,66,0
184320,note_on,,,,,0,0,6,,,,,4,,,66,92
184320,note_off,,,,,384,0,7,,,,,5,,,52,0
184320,note_on,,,,,64,0,1,,,,,0,,,74,92
184320,note_on,,,,,0,0,5,,,,,3,,,71,108
184640,note_off,,,,,320,0,1,,,,,0,,,74,0
184640,note_off,,,,,320,0,9,,,,,7,,,50,0
184640,note_off,,,,,320,0,8,,,,,6,,,38,0
184704,note_on,,,,,64,0,9,,,,,7,,,49,45
184704,note_on,,,,,0,0,7,,,,,5,,,49,92
184704,note_off,,,,,384,0,7,,,,,5,,,50,0
184704,note_on,,,,,64,0,8,,,,,6,,,37,75
184704,note_on,,,,,64,0,1,,,,,0,,,86,92
184704,note_off,,,,,384,0,5,,,,,3,,,71,0
184704,note_off,,,,,384,0,4,,,,,2,,,74,0
184704,note_on,,,,,0,0,4,,,,,2,,,86,108
184704,note_on,,,,,0,0,5,,,,,3,,,83,108
184704,note_off,,,,,384,0,2,,,,,1,,,71,0
184704,note_on,,,,,0,0,2,,,,,1,,,83,92
184704,note_off,,,,,384,0,6,,,,,4,,,66,0
184704,note_on,,,,,0,0,6,,,,,4,,,64,92
184704,note_off,,,,,384,0,3,,,,,10,,,50,0
184704,note_on,,,,,0,0,3,,,,,10,,,49,92
185024,note_off,,,,,320,0,9,,,,,7,,,49,0
185024,note_off,,,,,320,0,8,,,,,6,,,37,0
185024,note_off,,,,,320,0,1,,,,,0,,,86,0
185088,note_off,,,,,384,0,7,,,,,5,,,49,0
185088,note_on,,,,,0,0,4,,,,,2,,,85,108
185088,note_on,,,,,64,0,1,,,,,0,,,85,92
185088,note_off,,,,,384,0,5,,,,,3,,,83,0
185088,note_on,,,,,64,0,9,,,,,7,,,50,45
185088,note_off,,,,,384,0,4,,,,,2,,,86,0
185088,note_on,,,,,64,0,8,,,,,6,,,38,75
185088,note_on,,,,,0,0,6,,,,,4,,,66,92
185088,note_off,,,,,384,0,6,,,,,4,,,64,0
185088,note_on,,,,,0,0,7,,,,,5,,,50,92
185088,note_on,,,,,0,0,5,,,,,3,,,81,108
185088,note_off,,,,,384,0,2,,,,,1,,,83,0
185088,note_on,,,,,0,0,2,,,,,1,,,81,92
185088,note_off,,,,,384,0,3,,,,,10,,,49,0
185088,note_on,,,,,0,0,3,,,,,10,,,50,92
185408,note_off,,,,,320,0,1,,,,,0,,,85,0
185408,note_off,,,,,320,0,8,,,,,6,,,38,0
185408,note_off,,,,,320,0,9,,,,,7,,,50,0
185472,note_on,,,,,64,0,8,,,,,6,,,40,75
185472,note_off,,,,,384,0,5,,,,,3,,,81,0
185472,note_on,,,,,0,0,5,,,,,3,,,80,108
185472,note_off,,,,,384,0,2,,,,,1,,,81,0
185472,note_off,,,,,384,0,6,,,,,4,,,66,0
185472,note_on,,,,,0,0,2,,,,,1,,,80,92
185472,note_off,,,,,384,0,3,,,,,10,,,50,0
185472,note_on,,,,,64,0,1,,,,,0,,,83,92
185472,note_on,,,,,0,0,4,,,,,2,,,83,108
185472,note_on,,,,,0,0,6,,,,,4,,,68,92
185472,note_on,,,,,0,0,3,,,,,10,,,52,92
185472,note_off,,,,,384,0,4,,,,,2,,,85,0
185472,note_on,,,,,0,0,7,,,,,5,,,52,92
185472,note_off,,,,,384,0,7,,,,,5,,,50,0
185472,note_on,,,,,64,0,9,,,,,7,,,52,45
185792,note_off,,,,,320,0,1,,,,,0,,,83,0
185792,note_off,,,,,320,0,8,,,,,6,,,40,0
185792,note_off,,,,,320,0,9,,,,,7,,,52,0
185856,note_on,,,,,64,0,8,,,,,6,,,52,75
185856,note_on,,,,,0,0,4,,,,,2,,,81,108
185856,note_on,,,,,0,0,5,,,,,3,,,78,108
185856,note_off,,,,,384,0,5,,,,,3,,,80,0
185856,note_on,,,,,0,0,2,,,,,1,,,78,92
185856,note_on,,,,,64,0,1,,,,,0,,,81,92
185856,note_on,,,,,0,0,6,,,,,4,,,69,92
185856,note_on,,,,,0,0,3,,,,,10,,,64,92
185856,note_off,,,,,384,0,3,,,,,10,,,52,0
185856,note_off,,,,,384,0,6,,,,,4,,,68,0
185856,note_off,,,,,384,0,7,,,,,5,,,52,0
185856,note_on,,,,,0,0,7,,,,,5,,,64,92
185856,note_off,,,,,384,0,4,,,,,2,,,83,0
185856,note_off,,,,,384,0,2,,,,,1,,,80,0
185856,note_on,,,,,64,0,9,,,,,7,,,64,45
186176,note_off,,,,,320,0,9,,,,,7,,,64,0
186176,note_off,,,,,320,0,1,,,,,0,,,81,0
186176,note_off,,,,,320,0,8,,,,,6,,,52,0
186240,note_on,,,,,64,0,1,,,,,0,,,83,92
186240,note_on,,,,,0,0,4,,,,,2,,,83,108
186240,note_off,,,,,384,0,4,,,,,2,,,81,0
186240,note_off,,,,,384,0,5,,,,,3,,,78,0
186240,note_on,,,,,0,0,5,,,,,3,,,80,108
186240,note_on,,,,,64,0,8,,,,,6,,,50,75
186240,note_on,,,,,64,0,9,,,,,7,,,62,45
186240,note_off,,,,,384,0,3,,,,,10,,,64,0
186240,note_on,,,,,0,0,7,,,,,5,,,62,92
186240,note_off,,,,,384,0,7,,,,,5,,,64,0
186240,note_on,,,,,0,0,6,,,,,4,,,68,92
186240,note_off,,,,,384,0,6,,,,,4,,,69,0
186240,note_on,,,,,0,0,2,,,,,1,,,80,92
186240,note_off,,,,,384,0,2,,,,,1,,,78,0
186240,note_on,,,,,0,0,3,,,,,10,,,62,92
186560,note_off,,,,,320,0,8,,,,,6,,,50,0
186560,note_off,,,,,320,0,9,,,,,7,,,62,0
186560,note_off,,,,,320,0,1,,,,,0,,,83,0
186624,note_on,,,,,0,0,2,,,,,1,,,76,92
186624,note_on,,,,,64,0,9,,,,,7,,,61,45
186624,note_on,,,,,64,0,1,,,,,0,,,85,92
186624,note_off,,,,,384,0,2,,,,,1,,,80,0
186624,note_off,,,,,384,0,6,,,,,4,,,68,0
186624,note_on,,,,,0,0,6,,,,,4,,,69,92
186624,note_on,,,,,0,0,3,,,,,10,,,61,92
186624,note_off,,,,,384,0,3,,,,,10,,,62,0
186624,note_off,,,,,384,0,7,,,,,5,,,62,0
186624,note_on,,,,,0,0,4,,,,,2,,,85,108
186624,note_off,,,,,384,0,4,,,,,2,,,83,0
186624,note_on,,,,,0,0,7,,,,,5,,,61,92
186624,note_on,,,,,64,0,8,,,,,6,,,49,75
186624,note_on,,,,,0,0,5,,,,,3,,,76,108
186624,note_off,,,,,384,0,5,,,,,3,,,80,0
186944,note_off,,,,,320,0,8,,,,,6,,,49,0
186944,note_off,,,,,320,0,9,,,,,7,,,61,0
187008,note_off,,,,,384,0,3,,,,,10,,,61,0
187008,note_on,,,,,0,0,3,,,,,10,,,52,92
187008,note_off,,,,,384,0,7,,,,,5,,,61,0
187008,note_on,,,,,0,0,7,,,,,5,,,52,92
187008,note_on,,,,,64,0,9,,,,,7,,,52,45
187008,note_on,,,,,64,0,8,,,,,6,,,40,75
187008,note_on,,,,,0,0,6,,,,,4,,,68,92
187008,note_off,,,,,384,0,6,,,,,4,,,69,0
187136,note_off,,,,,512,0,1,,,,,0,,,85,0
187200,note_off,,,,,576,0,4,,,,,2,,,85,0
187200,note_off,,,,,576,0,2,,,,,1,,,76,0
187200,note_on,,,,,0,0,2,,,,,1,,,74,92
187200,note_off,,,,,576,0,5,,,,,3,,,76,0
187200,note_on,,,,,0,0,4,,,,,2,,,83,108
187200,note_on,,,,,0,0,5,,,,,3,,,74,108
187200,note_on,,,,,64,0,1,,,,,0,,,83,92
187328,note_off,,,,,320,0,9,,,,,7,,,52,0
187328,note_off,,,,,320,0,8,,,,,6,,,40,0
187388,note_off,,,,,188,0,1,,,,,0,,,83,0
187392,note_off,,,,,384,0,7,,,,,5,,,52,0
187392,note_on,,,,,0,0,7,,,,,5,,,54,92
187392,note_off,,,,,192,0,5,,,,,3,,,74,0
187392,note_on,,,,,0,0,3,,,,,10,,,54,92
187392,note_off,,,,,192,0,4,,,,,2,,,83,0
187392,note_off,,,,,192,0,2,,,,,1,,,74,0
187392,note_on,,,,,0,0,2,,,,,1,,,73,92
187392,note_on,,,,,4,0,1,,,,,0,,,81,92
187392,note_off,,,,,384,0,6,,,,,4,,,68,0
187392,note_on,,,,,64,0,9,,,,,7,,,54,45
187392,note_off,,,,,384,0,3,,,,,10,,,52,0
187392,note_on,,,,,0,0,6,,,,,4,,,69,92
187392,note_on,,,,,64,0,8,,,,,6,,,42,75
187392,note_on,,,,,0,0,5,,,,,3,,,73,108
187392,note_on,,,,,0,0,4,,,,,2,,,81,108
187712,note_off,,,,,320,0,1,,,,,0,,,81,0
187712,note_off,,,,,320,0,9,,,,,7,,,54,0
187712,note_off,,,,,320,0,8,,,,,6,,,42,0
187776,note_off,,,,,384,0,3,,,,,10,,,54,0
187776,note_on,,,,,64,0,1,,,,,0,,,83,92
187776,note_on,,,,,64,0,9,,,,,7,,,50,45
187776,note_on,,,,,0,0,3,,,,,10,,,50,92
187776,note_off,,,,,384,0,2,,,,,1,,,73,0
187776,note_on,,,,,64,0,8,,,,,6,,,38,75
187776,note_off,,,,,384,0,4,,,,,2,,,81,0
187776,note_off,,,,,384,0,6,,,,,4,,,69,0
187776,note_on,,,,,0,0,6,,,,,4,,,66,92
187776,note_off,,,,,384,0,5,,,,,3,,,73,0
187776,note_on,,,,,0,0,5,,,,,3,,,74,108
187776,note_off,,,,,384,0,7,,,,,5,,,54,0
187776,note_on,,,,,0,0,4,,,,,2,,,83,108
187776,note_on,,,,,0,0,7,,,,,5,,,50,92
187776,note_on,,,,,0,0,2,,,,,1,,,74,92
188096,note_off,,,,,320,0,1,,,,,0,,,83,0
188096,note_off,,,,,320,0,9,,,,,7,,,50,0
188096,note_off,,,,,320,0,8,,,,,6,,,38,0
188160,note_on,,,,,64,0,1,,,,,0,,,81,92
188160,note_on,,,,,0,0,4,,,,,2,,,81,108
188160,note_on,,,,,0,0,5,,,,,3,,,71,108
188160,note_on,,,,,0,0,2,,,,,1,,,71,92
188160,note_off,,,,,384,0,5,,,,,3,,,74,0
188160,note_on,,,,,64,0,8,,,,,6,,,40,75
188160,note_on,,,,,0,0,7,,,,,5,,,52,92
188160,note_off,,,,,384,0,7,,,,,5,,,50,0
188160,note_on,,,,,0,0,3,,,,,10,,,52,92
188160,note_off,,,,,384,0,3,,,,,10,,,50,0
188160,note_off,,,,,384,0,4,,,,,2,,,83,0
188160,note_off,,,,,384,0,6,,,,,4,,,66,0
188160,note_off,,,,,384,0,2,,,,,1,,,74,0
188160,note_on,,,,,64,0,9,,,,,7,,,52,45
188160,note_on,,,,,0,0,6,,,,,4,,,71,92
188208,note_off,,,,,48,0,4,,,,,2,,,81,0
188208,note_on,,,,,0,0,4,,,,,2,,,80,108
188208,note_off,,,,,48,0,1,,,,,0,,,81,0
188208,note_on,,,,,0,0,1,,,,,0,,,80,92
188256,note_off,,,,,48,0,1,,,,,0,,,80,0
188256,note_on,,,,,0,0,4,,,,,2,,,81,108
188256,note_off,,,,,48,0,4,,,,,2,,,80,0
188256,note_on,,,,,0,0,1,,,,,0,,,81,92
188304,note_on,,,,,0,0,1,,,,,0,,,80,92
188304,note_on,,,,,0,0,4,,,,,2,,,80,108
188304,note_off,,,,,48,0,4,,,,,2,,,81,0
188304,note_off,,,,,48,0,1,,,,,0,,,81,0
188352,note_off,,,,,48,0,4,,,,,2,,,80,0
188352,note_on,,,,,0,0,1,,,,,0,,,81,92
188352,note_off,,,,,48,0,1,,,,,0,,,80,0
188352,note_on,,,,,0,0,4,,,,,2,,,81,108
188400,note_off,,,,,48,0,4,,,,,2,,,81,0
188400,note_off,,,,,48,0,1,,,,,0,,,81,0
188400,note_on,,,,,0,0,1,,,,,0,,,80,92
188400,note_on,,,,,0,0,4,,,,,2,,,80,108
188448,note_off,,,,,48,0,4,,,,,2,,,80,0
188448,note_off,,,,,48,0,1,,,,,0,,,80,0
188448,note_on,,,,,0,0,4,,,,,2,,,81,108
188448,note_on,,,,,0,0,1,,,,,0,,,81,92
188480,note_off,,,,,320,0,9,,,,,7,,,52,0
188480,note_off,,,,,320,0,8,,,,,6,,,40,0
188496,note_off,,,,,48,0,1,,,,,0,,,81,0
188496,note_off,,,,,48,0,4,,,,,2,,,81,0
188496,note_on,,,,,0,0,1,,,,,0,,,80,92
188496,note_on,,,,,0,0,4,,,,,2,,,80,108
188544,note_on,,,,,64,0,8,,,,,6,,,28,75
188544,note_off,,,,,384,0,2,,,,,1,,,71,0
188544,note_off,,,,,384,0,6,,,,,4,,,71,0
188544,note_off,,,,,48,0,4,,,,,2,,,80,0
188544,note_on,,,,,64,0,9,,,,,7,,,40,45
188544,note_on,,,,,0,0,4,,,,,2,,,81,108
188544,note_on,,,,,0,0,6,,,,,4,,,71,92
188544,note_on,,,,,0,0,1,,,,,0,,,81,92
188544,note_off,,,,,384,0,3,,,,,10,,,52,0
188544,note_on,,,,,0,0,2,,,,,1,,,76,92
188544,note_on,,,,,0,0,5,,,,,3,,,76,108
188544,note_on,,,,,0,0,3,,,,,10,,,40,92
188544,note_off,,,,,384,0,7,,,,,5,,,52,0
188544,note_off,,,,,384,0,5,,,,,3,,,71,0
188544,note_on,,,,,0,0,7,,,,,5,,,40,92
188544,note_off,,,,,48,0,1,,,,,0,,,80,0
188592,note_off,,,,,48,0,4,,,,,2,,,81,0
188592,note_on,,,,,0,0,1,,,,,0,,,80,92
188592,note_on,,,,,0,0,4,,,,,2,,,80,108
188592,note_off,,,,,48,0,1,,,,,0,,,81,0
188732,note_off,,,,,140,0,1,,,,,0,,,80,0
188736,note_on,,,,,4,0,1,,,,,0,,,81,92
188736,note_off,,,,,144,0,4,,,,,2,,,80,0
188736,note_on,,,,,0,0,4,,,,,2,,,81,108
188864,note_off,,,,,320,0,8,,,,,6,,,28,0
188864,note_off,,,,,320,0,9,,,,,7,,,40,0
188924,note_off,,,,,188,0,1,,,,,0,,,81,0
188928,note_on,,,,,64,0,8,,,,,6,,,30,75
188928,note_on,,,,,0,0,2,,,,,1,,,73,92
188928,note_off,,,,,384,0,2,,,,,1,,,76,0
188928,note_on,,,,,4,0,1,,,,,0,,,81,92
188928,note_on,,,,,64,0,9,,,,,7,,,42,45
188928,note_off,,,,,192,0,4,,,,,2,,,81,0
188928,note_on,,,,,0,0,6,,,,,4,,,69,92
188928,note_off,,,,,384,0,7,,,,,5,,,40,0
188928,note_on,,,,,0,0,7,,,,,5,,,42,92
188928,note_on,,,,,0,0,4,,,,,2,,,81,108
188928,note_off,,,,,384,0,6,,,,,4,,,71,0
188928,note_on,,,,,0,0,5,,,,,3,,,73,108
188928,note_off,,,,,384,0,5,,,,,3,,,76,0
188928,note_off,,,,,384,0,3,,,,,10,,,40,0
188928,note_on,,,,,0,0,3,,,,,10,,,42,92
189248,note_off,,,,,320,0,1,,,,,0,,,81,0
189312,note_on,,,,,0,0,5,,,,,3,,,69,108
189312,note_off,,,,,384,0,5,,,,,3,,,73,0
189312,note_off,,,,,384,0,6,,,,,4,,,69,0
189312,note_on,,,,,0,0,6,,,,,4,,,62,92
189312,note_on,,,,,0,0,4,,,,,2,,,80,108
189312,note_off,,,,,384,0,4,,,,,2,,,81,0
189312,note_on,,,,,64,0,1,,,,,0,,,80,92
189312,note_off,,,,,384,0,2,,,,,1,,,73,0
189312,note_on,,,,,0,0,2,,,,,1,,,69,92
189500,note_off,,,,,188,0,1,,,,,0,,,80,0
189504,note_on,,,,,4,0,1,,,,,0,,,78,92
189504,note_off,,,,,192,0,4,,,,,2,,,80,0
189504,note_on,,,,,0,0,4,,,,,2,,,78,108
189600,note_off,,,,,672,0,9,,,,,7,,,42,0
189600,note_off,,,,,672,0,8,,,,,6,,,30,0
189692,note_off,,,,,188,0,1,,,,,0,,,78,0
189696,note_on,,,,,0,0,2,,,,,1,,,71,92
189696,note_on,,,,,0,0,5,,,,,3,,,71,108
189696,note_off,,,,,384,0,2,,,,,1,,,69,0
189696,note_off,,,,,768,0,3,,,,,10,,,42,0
189696,note_on,,,,,0,0,3,,,,,10,,,44,92
189696,note_off,,,,,384,0,5,,,,,3,,,69,0
189696,note_on,,,,,0,0,6,,,,,4,,,59,92
189696,note_on,,,,,96,0,8,,,,,6,,,32,75
189696,note_on,,,,,4,0,1,,,,,0,,,76,92
189696,note_off,,,,,384,0,6,,,,,4,,,62,0
189696,note_on,,,,,0,0,4,,,,,2,,,76,108
189696,note_off,,,,,192,0,4,,,,,2,,,78,0
189696,note_on,,,,,0,0,7,,,,,5,,,44,92
189696,note_off,,,,,768,0,7,,,,,5,,,42,0
189696,note_on,,,,,96,0,9,,,,,7,,,44,45
189884,note_off,,,,,188,0,1,,,,,0,,,76,0
189888,note_off,,,,,192,0,4,,,,,2,,,76,0
189888,note_on,,,,,4,0,1,,,,,0,,,74,92
189888,note_on,,,,,0,0,4,,,,,2,,,74,108
190016,note_off,,,,,320,0,8,,,,,6,,,32,0
190016,note_off,,,,,320,0,9,,,,,7,,,44,0
190076,note_off,,,,,188,0,1,,,,,0,,,74,0
190080,note_on,,,,,64,0,9,,,,,7,,,45,45
190080,note_on,,,,,0,0,2,,,,,1,,,69,92
190080,note_on,,,,,0,0,3,,,,,10,,,45,92
190080,note_on,,,,,0,0,5,,,,,3,,,69,108
190080,note_off,,,,,384,0,5,,,,,3,,,71,0
190080,note_off,,,,,384,0,7,,,,,5,,,44,0
190080,note_on,,,,,0,0,7,,,,,5,,,45,92
190080,note_off,,,,,384,0,6,,,,,4,,,59,0
190080,note_on,,,,,0,0,6,,,,,4,,,64,92
190080,note_on,,,,,4,0,1,,,,,0,,,73,92
190080,note_off,,,,,384,0,3,,,,,10,,,44,0
190080,note_on,,,,,64,0,8,,,,,6,,,33,75
190080,note_off,,,,,384,0,2,,,,,1,,,71,0
190080,note_on,,,,,0,0,4,,,,,2,,,73,108
190080,note_off,,,,,192,0,4,,,,,2,,,74,0
190400,note_off,,,,,320,0,8,,,,,6,,,33,0
190400,note_off,,,,,320,0,9,,,,,7,,,45,0
190464,note_on,,,,,64,0,9,,,,,7,,,52,45
190464,note_on,,,,,0,0,7,,,,,5,,,52,92
190464,note_off,,,,,384,0,7,,,,,5,,,45,0
190464,note_on,,,,,0,0,3,,,,,10,,,52,92
190464,note_off,,,,,384,0,3,,,,,10,,,45,0
190464,note_on,,,,,64,0,8,,,,,6,,,40,75
190592,note_off,,,,,512,0,1,,,,,0,,,73,0
190656,note_off,,,,,576,0,4,,,,,2,,,73,0
190656,note_off,,,,,576,0,2,,,,,1,,,69,0
190656,note_on,,,,,0,0,5,,,,,3,,,68,108
190656,note_off,,,,,576,0,5,,,,,3,,,69,0
190656,note_on,,,,,0,0,2,,,,,1,,,68,92
190656,note_on,,,,,64,0,1,,,,,0,,,71,92
190656,note_on,,,,,0,0,4,,,,,2,,,71,108
190656,note_off,,,,,576,0,6,,,,,4,,,64,0
190656,note_on,,,,,0,0,6,,,,,4,,,62,92
190784,note_off,,,,,320,0,8,,,,,6,,,40,0
190784,note_off,,,,,320,0,9,,,,,7,,,52,0
190844,note_off,,,,,188,0,1,,,,,0,,,71,0
190848,note_on,,,,,0,0,4,,,,,2,,,69,108
190848,note_on,,,,,64,0,8,,,,,6,,,42,75
190848,note_off,,,,,192,0,4,,,,,2,,,71,0
190848,note_off,,,,,192,0,2,,,,,1,,,68,0
190848,note_on,,,,,0,0,2,,,,,1,,,69,92
190848,note_on,,,,,0,0,7,,,,,5,,,54,92
190848,note_on,,,,,0,0,6,,,,,4,,,61,92
190848,note_on,,,,,4,0,1,,,,,0,,,69,92
190848,note_on,,,,,0,0,3,,,,,10,,,54,92
190848,note_off,,,,,192,0,6,,,,,4,,,62,0
190848,note_off,,,,,384,0,7,,,,,5,,,52,0
190848,note_on,,,,,64,0,9,,,,,7,,,54,45
190848,note_off,,,,,192,0,5,,,,,3,,,68,0
190848,note_on,,,,,0,0,5,,,,,3,,,69,108
190848,note_off,,,,,384,0,3,,,,,10,,,52,0
191168,note_off,,,,,320,0,1,,,,,0,,,69,0
191168,note_off,,,,,320,0,8,,,,,6,,,42,0
191168,note_off,,,,,320,0,9,,,,,7,,,54,0
191232,note_on,,,,,64,0,1,,,,,0,,,71,92
191232,note_on,,,,,64,0,9,,,,,7,,,50,45
191232,note_off,,,,,384,0,7,,,,,5,,,54,0
191232,note_on,,,,,0,0,7,,,,,5,,,50,92
191232,note_off,,,,,384,0,3,,,,,10,,,54,0
191232,note_on,,,,,0,0,3,,,,,10,,,50,92
191232,note_on,,,,,0,0,4,,,,,2,,,71,108
191232,note_off,,,,,384,0,2,,,,,1,,,69,0
191232,note_off,,,,,384,0,4,,,,,2,,,69,0
191232,note_on,,,,,64,0,8,,,,,6,,,38,75
191232,note_on,,,,,0,0,5,,,,,3,,,66,108
191232,note_off,,,,,384,0,6,,,,,4,,,61,0
191232,note_on,,,,,0,0,6,,,,,4,,,62,92
191232,note_on,,,,,0,0,2,,,,,1,,,66,92
191232,note_off,,,,,384,0,5,,,,,3,,,69,0
191324,note_off,,,,,92,0,1,,,,,0,,,71,0
191328,note_on,,,,,0,0,4,,,,,2,,,73,108
191328,note_off,,,,,96,0,4,,,,,2,,,71,0
191328,note_on,,,,,4,0,1,,,,,0,,,73,92
191420,note_off,,,,,92,0,1,,,,,0,,,73,0
191424,note_off,,,,,96,0,4,,,,,2,,,73,0
191424,note_on,,,,,4,0,1,,,,,0,,,74,92
191424,note_on,,,,,0,0,4,,,,,2,,,74,108
191552,note_off,,,,,320,0,9,,,,,7,,,50,0
191552,note_off,,,,,320,0,8,,,,,6,,,38,0
191612,note_off,,,,,188,0,1,,,,,0,,,74,0
191616,note_off,,,,,192,0,4,,,,,2,,,74,0
191616,note_on,,,,,0,0,4,,,,,2,,,69,108
191616,note_off,,,,,384,0,7,,,,,5,,,50,0
191616,note_on,,,,,0,0,7,,,,,5,,,52,92
191616,note_on,,,,,0,0,6,,,,,4,,,59,92
191616,note_off,,,,,384,0,6,,,,,4,,,62,0
191616,note_off,,,,,384,0,5,,,,,3,,,66,0
191616,note_on,,,,,64,0,8,,,,,6,,,40,75
191616,note_on,,,,,4,0,1,,,,,0,,,69,92
191616,note_off,,,,,384,0,2,,,,,1,,,66,0
191616,note_off,,,,,384,0,3,,,,,10,,,50,0
191616,note_on,,,,,0,0,3,,,,,10,,,52,92
191616,note_on,,,,,64,0,9,,,,,7,,,52,45
191616,note_on,,,,,0,0,5,,,,,3,,,64,108
191616,note_on,,,,,0,0,2,,,,,1,,,64,92
191664,note_off,,,,,48,0,1,,,,,0,,,69,0
191664,note_on,,,,,0,0,4,,,,,2,,,68,108
191664,note_off,,,,,48,0,4,,,,,2,,,69,0
191664,note_on,,,,,0,0,1,,,,,0,,,68,92
191712,note_on,,,,,0,0,1,,,,,0,,,69,92
191712,note_on,,,,,0,0,4,,,,,2,,,69,108
191712,note_off,,,,,48,0,4,,,,,2,,,68,0
191712,note_off,,,,,48,0,1,,,,,0,,,68,0
191760,note_on,,,,,0,0,1,,,,,0,,,68,92
191760,note_on,,,,,0,0,4,,,,,2,,,68,108
191760,note_off,,,,,48,0,1,,,,,0,,,69,0
191760,note_off,,,,,48,0,4,,,,,2,,,69,0
191808,note_off,,,,,48,0,4,,,,,2,,,68,0
191808,note_on,,,,,0,0,1,,,,,0,,,69,92
191808,note_off,,,,,48,0,1,,,,,0,,,68,0
191808,note_on,,,,,0,0,4,,,,,2,,,69,108
191856,note_on,,,,,0,0,1,,,,,0,,,68,92
191856,note_off,,,,,48,0,1,,,,,0,,,69,0
191856,note_on,,,,,0,0,4,,,,,2,,,68,108
191856,note_off,,,,,48,0,4,,,,,2,,,69,0
191904,note_on,,,,,0,0,1,,,,,0,,,69,92
191904,note_off,,,,,48,0,1,,,,,0,,,68,0
191904,note_on,,,,,0,0,4,,,,,2,,,69,108
191904,note_off,,,,,48,0,4,,,,,2,,,68,0
191936,note_off,,,,,320,0,8,,,,,6,,,40,0
191936,note_off,,,,,320,0,9,,,,,7,,,52,0
191952,note_off,,,,,48,0,1,,,,,0,,,69,0
191952,note_off,,,,,48,0,4,,,,,2,,,69,0
191952,note_on,,,,,0,0,4,,,,,2,,,68,108
191952,note_on,,,,,0,0,1,,,,,0,,,68,92
192000,note_off,,,,,384,0,5,,,,,3,,,64,0
192000,note_on,,,,,0,0,5,,,,,3,,,64,108
192000,note_on,,,,,0,0,6,,,,,4,,,62,92
192000,note_on,,,,,0,0,3,,,,,10,,,40,92
192000,note_on,,,,,64,0,8,,,,,6,,,28,75
192000,note_off,,,,,384,0,3,,,,,10,,,52,0
192000,note_on,,,,,64,0,9,,,,,7,,,40,45
192000,note_off,,,,,384,0,2,,,,,1,,,64,0
192000,note_on,,,,,0,0,2,,,,,1,,,64,92
192000,note_on,,,,,0,0,1,,,,,0,,,69,92
192000,note_off,,,,,48,0,1,,,,,0,,,68,0
192000,note_off,,,,,384,0,7,,,,,5,,,52,0
192000,note_on,,,,,0,0,7,,,,,5,,,40,92
192000,note_off,,,,,384,0,6,,,,,4,,,59,0
192000,note_off,,,,,48,0,4,,,,,2,,,68,0
192000,note_on,,,,,0,0,4,,,,,2,,,69,108
192048,note_off,,,,,48,0,1,,,,,0,,,69,0
192048,note_on,,,,,0,0,1,,,,,0,,,68,92
192048,note_on,,,,,0,0,4,,,,,2,,,68,108
192048,note_off,,,,,48,0,4,,,,,2,,,69,0
192188,note_off,,,,,140,0,1,,,,,0,,,68,0
192192,note_on,,,,,0,0,4,,,,,2,,,69,108
192192,note_on,,,,,4,0,1,,,,,0,,,69,92
192192,note_off,,,,,144,0,4,,,,,2,,,68,0
192320,note_off,,,,,320,0,8,,,,,6,,,28,0
192320,note_off,,,,,320,0,9,,,,,7,,,40,0
192380,note_off,,,,,188,0,1,,,,,0,,,69,0
192384,note_on,,,,,0,0,2,,,,,1,,,64,92
192384,note_off,,,,,384,0,2,,,,,1,,,64,0
192384,note_on,,,,,64,0,9,,,,,7,,,45,45
192384,note_on,,,,,4,0,1,,,,,0,,,69,92
192384,note_off,,,,,384,0,3,,,,,10,,,40,0
192384,note_on,,,,,0,0,4,,,,,2,,,69,108
192384,note_on,,,,,0,0,6,,,,,4,,,61,92
192384,note_off,,,,,384,0,6,,,,,4,,,62,0
192384,note_off,,,,,192,0,4,,,,,2,,,69,0
192384,note_on,,,,,64,0,8,,,,,6,,,33,75
192384,note_on,,,,,0,0,5,,,,,3,,,64,108
192384,note_off,,,,,384,0,5,,,,,3,,,64,0
192384,note_off,,,,,384,0,7,,,,,5,,,40,0
192384,note_on,,,,,0,0,7,,,,,5,,,45,92
192384,note_on,,,,,0,0,3,,,,,10,,,45,92
193440,end_of_track,,,,,0,1,1,,,,,,,,,
193440,note_off,,,,,1056,0,1,,,,,0,,,69,0
193440,note_off,,,,,1056,0,9,,,,,7,,,45,0
193440,end_of_track,,,,,0,1,9,,,,,,,,,
193440,note_off,,,,,1056,0,8,,,,,6,,,33,0
193440,end_of_track,,,,,0,1,8,,,,,,,,,
193536,note_off,,,,,1152,0,2,,,,,1,,,64,0
193536,note_off,,,,,1152,0,5,,,,,3,,,64,0
193536,end_of_track,,,,,0,1,4,,,,,,,,,
193536,note_off,,,,,1152,0,4,,,,,2,,,69,0
193536,end_of_track,,,,,0,1,2,,,,,,,,,
193536,note_off,,,,,1152,0,7,,,,,5,,,45,0
193536,end_of_track,,,,,0,1,7,,,,,,,,,
193536,end_of_track,,,,,0,1,6,,,,,,,,,
193536,end_of_track,,,,,0,1,3,,,,,,,,,
193536,note_off,,,,,1152,0,3,,,,,10,,,45,0
193536,end_of_track,,,,,0,1,5,,,,,,,,,
193536,note_off,,,,,1152,0,6,,,,,4,,,61,0
