tick,type,time,meta,track,numerator,denominator,clocks_per_click,notated_32nd_notes_per_beat,key,tempo,control,value,channel,program,note,velocity
0,track_name,0,1,0,,,,,,,,,,,,
0,note_on,0,0,2,,,,,,,,,1,,43,100
0,program_change,0,0,2,,,,,,,,,1,6,,
0,control_change,0,0,2,,,,,,,32,0,1,,,
0,control_change,0,0,2,,,,,,,0,0,1,,,
0,track_name,0,1,2,,,,,,,,,,,,
0,note_on,0,0,1,,,,,,,,,0,,67,100
0,program_change,0,0,1,,,,,,,,,0,6,,
0,control_change,0,0,1,,,,,,,32,0,0,,,
0,end_of_track,0,1,3,,,,,,,,,,,,
0,control_change,0,0,1,,,,,,,0,0,0,,,
0,set_tempo,0,1,0,,,,,,705882,,,,,,
0,key_signature,0,1,0,,,,,C,,,,,,,
0,marker,0,1,0,,,,,,,,,,,,
0,time_signature,0,1,0,4,4,24,8,,,,,,,,
24,note_on,24,0,1,,,,,,,,,0,,67,0
24,note_on,0,0,1,,,,,,,,,0,,62,100
48,note_on,24,0,1,,,,,,,,,0,,62,0
48,note_on,0,0,1,,,,,,,,,0,,67,100
72,note_on,24,0,1,,,,,,,,,0,,67,0
72,note_on,0,0,1,,,,,,,,,0,,70,100
96,note_on,96,0,2,,,,,,,,,1,,43,0
96,note_on,0,0,1,,,,,,,,,0,,69,100
96,note_on,24,0,1,,,,,,,,,0,,70,0
120,note_on,0,0,1,,,,,,,,,0,,72,100
120,note_on,24,0,1,,,,,,,,,0,,69,0
144,note_on,48,0,2,,,,,,,,,1,,55,100
144,note_on,24,0,1,,,,,,,,,0,,72,0
144,note_on,0,0,1,,,,,,,,,0,,70,100
168,note_on,0,0,2,,,,,,,,,1,,50,100
168,note_on,24,0,2,,,,,,,,,1,,55,0
192,note_on,0,0,2,,,,,,,,,1,,55,100
192,note_on,48,0,1,,,,,,,,,0,,70,0
192,note_on,24,0,2,,,,,,,,,1,,50,0
192,note_on,0,0,1,,,,,,,,,0,,67,100
216,note_on,0,0,2,,,,,,,,,1,,58,100
216,note_on,24,0,2,,,,,,,,,1,,55,0
240,note_on,24,0,2,,,,,,,,,1,,58,0
240,note_on,48,0,1,,,,,,,,,0,,67,0
240,note_on,0,0,2,,,,,,,,,1,,57,100
240,note_on,0,0,1,,,,,,,,,0,,66,100
264,note_on,0,0,2,,,,,,,,,1,,60,100
264,note_on,24,0,2,,,,,,,,,1,,57,0
288,note_on,0,0,2,,,,,,,,,1,,58,100
288,note_on,24,0,2,,,,,,,,,1,,60,0
288,note_on,48,0,1,,,,,,,,,0,,66,0
288,note_on,0,0,1,,,,,,,,,0,,67,100
312,note_on,24,0,1,,,,,,,,,0,,67,0
312,note_on,0,0,1,,,,,,,,,0,,62,100
336,note_on,24,0,1,,,,,,,,,0,,62,0
336,note_on,0,0,1,,,,,,,,,0,,67,100
336,note_on,48,0,2,,,,,,,,,1,,58,0
336,note_on,0,0,2,,,,,,,,,1,,55,100
360,note_on,24,0,1,,,,,,,,,0,,67,0
360,note_on,0,0,1,,,,,,,,,0,,70,100
384,note_on,24,0,1,,,,,,,,,0,,70,0
384,note_on,48,0,2,,,,,,,,,1,,55,0
384,note_on,0,0,2,,,,,,,,,1,,54,100
384,note_on,0,0,1,,,,,,,,,0,,69,100
408,note_on,24,0,1,,,,,,,,,0,,69,0
408,note_on,0,0,1,,,,,,,,,0,,72,100
432,note_on,24,0,1,,,,,,,,,0,,72,0
432,note_on,0,0,1,,,,,,,,,0,,70,100
432,note_on,48,0,2,,,,,,,,,1,,54,0
432,note_on,0,0,2,,,,,,,,,1,,55,100
456,note_on,24,0,1,,,,,,,,,0,,70,0
456,note_on,0,0,1,,,,,,,,,0,,67,100
480,note_on,0,0,1,,,,,,,,,0,,70,100
480,note_on,24,0,1,,,,,,,,,0,,67,0
480,note_on,0,0,2,,,,,,,,,1,,43,100
480,note_on,48,0,2,,,,,,,,,1,,55,0
504,note_on,0,0,1,,,,,,,,,0,,74,100
504,note_on,24,0,1,,,,,,,,,0,,70,0
528,note_on,48,0,2,,,,,,,,,1,,43,0
528,note_on,24,0,1,,,,,,,,,0,,74,0
528,note_on,0,0,1,,,,,,,,,0,,72,100
528,note_on,0,0,2,,,,,,,,,1,,45,100
552,note_on,24,0,1,,,,,,,,,0,,72,0
552,note_on,0,0,1,,,,,,,,,0,,75,100
576,note_on,48,0,2,,,,,,,,,1,,45,0
576,note_on,0,0,2,,,,,,,,,1,,46,100
576,note_on,24,0,1,,,,,,,,,0,,75,0
576,note_on,0,0,1,,,,,,,,,0,,74,100
600,note_on,24,0,1,,,,,,,,,0,,74,0
600,note_on,0,0,1,,,,,,,,,0,,67,100
624,note_on,24,0,1,,,,,,,,,0,,67,0
624,note_on,0,0,1,,,,,,,,,0,,74,100
624,note_on,0,0,2,,,,,,,,,1,,58,100
624,note_on,48,0,2,,,,,,,,,1,,46,0
648,note_on,0,0,1,,,,,,,,,0,,79,100
648,note_on,24,0,1,,,,,,,,,0,,74,0
672,note_on,24,0,1,,,,,,,,,0,,79,0
672,note_on,0,0,1,,,,,,,,,0,,78,100
672,note_on,48,0,2,,,,,,,,,1,,58,0
672,note_on,0,0,2,,,,,,,,,1,,55,100
696,note_on,24,0,1,,,,,,,,,0,,78,0
696,note_on,0,0,1,,,,,,,,,0,,79,100
720,note_on,0,0,2,,,,,,,,,1,,57,100
720,note_on,48,0,2,,,,,,,,,1,,55,0
720,note_on,24,0,1,,,,,,,,,0,,79,0
720,note_on,0,0,1,,,,,,,,,0,,72,100
744,note_on,0,0,1,,,,,,,,,0,,75,100
744,note_on,24,0,1,,,,,,,,,0,,72,0
768,note_on,0,0,1,,,,,,,,,0,,74,100
768,note_on,48,0,2,,,,,,,,,1,,57,0
768,note_on,0,0,2,,,,,,,,,1,,54,100
768,note_on,24,0,1,,,,,,,,,0,,75,0
792,note_on,24,0,1,,,,,,,,,0,,74,0
792,note_on,0,0,1,,,,,,,,,0,,72,100
816,note_on,0,0,2,,,,,,,,,1,,50,100
816,note_on,48,0,2,,,,,,,,,1,,54,0
816,note_on,24,0,1,,,,,,,,,0,,72,0
816,note_on,0,0,1,,,,,,,,,0,,70,100
840,note_on,24,0,1,,,,,,,,,0,,70,0
840,note_on,0,0,1,,,,,,,,,0,,69,100
864,note_on,24,0,1,,,,,,,,,0,,69,0
864,note_on,0,0,1,,,,,,,,,0,,70,100
864,note_on,48,0,2,,,,,,,,,1,,50,0
864,note_on,0,0,2,,,,,,,,,1,,55,100
888,note_on,0,0,1,,,,,,,,,0,,74,100
888,note_on,24,0,1,,,,,,,,,0,,70,0
912,note_on,0,0,1,,,,,,,,,0,,72,100
912,note_on,24,0,1,,,,,,,,,0,,74,0
912,note_on,0,0,2,,,,,,,,,1,,51,100
912,note_on,48,0,2,,,,,,,,,1,,55,0
936,note_on,0,0,1,,,,,,,,,0,,70,100
936,note_on,24,0,1,,,,,,,,,0,,72,0
960,note_on,0,0,2,,,,,,,,,1,,48,100
960,note_on,0,0,1,,,,,,,,,0,,69,100
960,note_on,24,0,1,,,,,,,,,0,,70,0
960,note_on,48,0,2,,,,,,,,,1,,51,0
984,note_on,0,0,1,,,,,,,,,0,,67,100
984,note_on,24,0,1,,,,,,,,,0,,69,0
1008,note_on,48,0,2,,,,,,,,,1,,48,0
1008,note_on,0,0,2,,,,,,,,,1,,50,100
1008,note_on,0,0,1,,,,,,,,,0,,66,100
1008,note_on,24,0,1,,,,,,,,,0,,67,0
1032,note_on,24,0,1,,,,,,,,,0,,66,0
1032,note_on,0,0,1,,,,,,,,,0,,64,100
1056,note_on,24,0,1,,,,,,,,,0,,64,0
1056,note_on,0,0,1,,,,,,,,,0,,62,100
1080,note_on,0,0,2,,,,,,,,,1,,48,100
1080,note_on,72,0,2,,,,,,,,,1,,50,0
1104,note_on,24,0,2,,,,,,,,,1,,48,0
1104,note_on,0,0,2,,,,,,,,,1,,46,100
1128,note_on,24,0,2,,,,,,,,,1,,46,0
1128,note_on,0,0,2,,,,,,,,,1,,45,100
1152,note_on,0,0,1,,,,,,,,,0,,79,100
1152,note_on,0,0,2,,,,,,,,,1,,46,100
1152,note_on,24,0,2,,,,,,,,,1,,45,0
1152,note_on,96,0,1,,,,,,,,,0,,62,0
1176,note_on,24,0,1,,,,,,,,,0,,79,0
1176,note_on,0,0,1,,,,,,,,,0,,74,100
1200,note_on,0,0,1,,,,,,,,,0,,75,100
1200,note_on,24,0,1,,,,,,,,,0,,74,0
1200,note_on,0,0,2,,,,,,,,,1,,58,100
1200,note_on,48,0,2,,,,,,,,,1,,46,0
1224,note_on,24,0,1,,,,,,,,,0,,75,0
1224,note_on,0,0,1,,,,,,,,,0,,74,100
1248,note_on,0,0,1,,,,,,,,,0,,72,100
1248,note_on,48,0,2,,,,,,,,,1,,58,0
1248,note_on,24,0,1,,,,,,,,,0,,74,0
1248,note_on,0,0,2,,,,,,,,,1,,57,100
1272,note_on,0,0,1,,,,,,,,,0,,77,100
1272,note_on,24,0,1,,,,,,,,,0,,72,0
1296,note_on,24,0,1,,,,,,,,,0,,77,0
1296,note_on,0,0,1,,,,,,,,,0,,70,100
1296,note_on,0,0,2,,,,,,,,,1,,55,100
1296,note_on,48,0,2,,,,,,,,,1,,57,0
1320,note_on,24,0,1,,,,,,,,,0,,70,0
1320,note_on,0,0,1,,,,,,,,,0,,75,100
1344,note_on,24,0,1,,,,,,,,,0,,75,0
1344,note_on,0,0,1,,,,,,,,,0,,74,100
1368,note_on,24,0,1,,,,,,,,,0,,74,0
1368,note_on,0,0,1,,,,,,,,,0,,75,100
1392,note_on,96,0,2,,,,,,,,,1,,55,0
1392,note_on,0,0,2,,,,,,,,,1,,53,100
1392,note_on,0,0,1,,,,,,,,,0,,69,100
1392,note_on,24,0,1,,,,,,,,,0,,75,0
1416,note_on,0,0,1,,,,,,,,,0,,74,100
1416,note_on,24,0,1,,,,,,,,,0,,69,0
1440,note_on,24,0,1,,,,,,,,,0,,74,0
1440,note_on,0,0,2,,,,,,,,,1,,51,100
1440,note_on,48,0,2,,,,,,,,,1,,53,0
1440,note_on,0,0,1,,,,,,,,,0,,67,100
1464,note_on,24,0,1,,,,,,,,,0,,67,0
1464,note_on,0,0,1,,,,,,,,,0,,74,100
1488,note_on,48,0,2,,,,,,,,,1,,51,0
1488,note_on,0,0,2,,,,,,,,,1,,53,100
1488,note_on,24,0,1,,,,,,,,,0,,74,0
1488,note_on,0,0,1,,,,,,,,,0,,75,100
1512,note_on,24,0,1,,,,,,,,,0,,75,0
1512,note_on,0,0,1,,,,,,,,,0,,74,100
1536,note_on,48,0,2,,,,,,,,,1,,53,0
1536,note_on,0,0,2,,,,,,,,,1,,55,100
1536,note_on,0,0,1,,,,,,,,,0,,72,100
1536,note_on,24,0,1,,,,,,,,,0,,74,0
1560,note_on,24,0,1,,,,,,,,,0,,72,0
1560,note_on,0,0,1,,,,,,,,,0,,70,100
1584,note_on,0,0,2,,,,,,,,,1,,53,100
1584,note_on,48,0,2,,,,,,,,,1,,55,0
1584,note_on,24,0,1,,,,,,,,,0,,70,0
1584,note_on,0,0,1,,,,,,,,,0,,69,100
1608,note_on,24,0,1,,,,,,,,,0,,69,0
1608,note_on,0,0,1,,,,,,,,,0,,65,100
1632,note_on,24,0,1,,,,,,,,,0,,65,0
1632,note_on,0,0,1,,,,,,,,,0,,67,100
1656,note_on,24,0,1,,,,,,,,,0,,67,0
1656,note_on,0,0,1,,,,,,,,,0,,69,100
1680,note_on,96,0,2,,,,,,,,,1,,53,0
1680,note_on,24,0,1,,,,,,,,,0,,69,0
1680,note_on,0,0,1,,,,,,,,,0,,70,100
1680,note_on,0,0,2,,,,,,,,,1,,57,100
1704,note_on,24,0,1,,,,,,,,,0,,70,0
1704,note_on,0,0,1,,,,,,,,,0,,72,100
1728,note_on,0,0,2,,,,,,,,,1,,58,100
1728,note_on,24,0,1,,,,,,,,,0,,72,0
1728,note_on,0,0,1,,,,,,,,,0,,74,100
1728,note_on,48,0,2,,,,,,,,,1,,57,0
1752,note_on,24,0,1,,,,,,,,,0,,74,0
1752,note_on,0,0,1,,,,,,,,,0,,70,100
1776,note_on,24,0,1,,,,,,,,,0,,70,0
1776,note_on,0,0,1,,,,,,,,,0,,69,100
1776,note_on,48,0,2,,,,,,,,,1,,58,0
1776,note_on,0,0,2,,,,,,,,,1,,50,100
1800,note_on,24,0,1,,,,,,,,,0,,69,0
1800,note_on,0,0,1,,,,,,,,,0,,70,100
1824,note_on,48,0,2,,,,,,,,,1,,50,0
1824,note_on,0,0,2,,,,,,,,,1,,51,100
1824,note_on,24,0,1,,,,,,,,,0,,70,0
1824,note_on,0,0,1,,,,,,,,,0,,79,100
1848,note_on,24,0,1,,,,,,,,,0,,79,0
1848,note_on,0,0,1,,,,,,,,,0,,70,100
1872,note_on,48,0,2,,,,,,,,,1,,51,0
1872,note_on,0,0,2,,,,,,,,,1,,50,100
1872,note_on,0,0,1,,,,,,,,,0,,77,100
1872,note_on,24,0,1,,,,,,,,,0,,70,0
1896,note_on,24,0,1,,,,,,,,,0,,77,0
1896,note_on,0,0,1,,,,,,,,,0,,70,100
1920,note_on,48,0,2,,,,,,,,,1,,50,0
1920,note_on,24,0,1,,,,,,,,,0,,70,0
1920,note_on,0,0,1,,,,,,,,,0,,69,100
1920,note_on,0,0,2,,,,,,,,,1,,62,100
1944,note_on,24,0,1,,,,,,,,,0,,69,0
1944,note_on,0,0,1,,,,,,,,,0,,70,100
1968,note_on,0,0,2,,,,,,,,,1,,63,100
1968,note_on,48,0,2,,,,,,,,,1,,62,0
1968,note_on,0,0,1,,,,,,,,,0,,67,100
1968,note_on,24,0,1,,,,,,,,,0,,70,0
1992,note_on,24,0,1,,,,,,,,,0,,67,0
1992,note_on,0,0,1,,,,,,,,,0,,70,100
2016,note_on,24,0,1,,,,,,,,,0,,70,0
2016,note_on,48,0,2,,,,,,,,,1,,63,0
2016,note_on,0,0,1,,,,,,,,,0,,65,100
2016,note_on,0,0,2,,,,,,,,,1,,62,100
2040,note_on,24,0,1,,,,,,,,,0,,65,0
2040,note_on,0,0,1,,,,,,,,,0,,70,100
2064,note_on,24,0,1,,,,,,,,,0,,70,0
2064,note_on,0,0,1,,,,,,,,,0,,69,100
2088,note_on,24,0,1,,,,,,,,,0,,69,0
2088,note_on,0,0,1,,,,,,,,,0,,70,100
2112,note_on,96,0,2,,,,,,,,,1,,62,0
2112,note_on,0,0,2,,,,,,,,,1,,60,100
2112,note_on,0,0,1,,,,,,,,,0,,63,100
2112,note_on,24,0,1,,,,,,,,,0,,70,0
2136,note_on,24,0,1,,,,,,,,,0,,63,0
2136,note_on,0,0,1,,,,,,,,,0,,70,100
2160,note_on,48,0,2,,,,,,,,,1,,60,0
2160,note_on,0,0,2,,,,,,,,,1,,58,100
2160,note_on,24,0,1,,,,,,,,,0,,70,0
2160,note_on,0,0,1,,,,,,,,,0,,62,100
2184,note_on,0,0,1,,,,,,,,,0,,70,100
2184,note_on,24,0,1,,,,,,,,,0,,62,0
2208,note_on,0,0,1,,,,,,,,,0,,69,100
2208,note_on,24,0,1,,,,,,,,,0,,70,0
2232,note_on,0,0,1,,,,,,,,,0,,70,100
2232,note_on,24,0,1,,,,,,,,,0,,69,0
2256,note_on,0,0,1,,,,,,,,,0,,77,100
2256,note_on,0,0,2,,,,,,,,,1,,50,100
2256,note_on,96,0,2,,,,,,,,,1,,58,0
2256,note_on,24,0,1,,,,,,,,,0,,70,0
2280,note_on,24,0,1,,,,,,,,,0,,77,0
2280,note_on,0,0,1,,,,,,,,,0,,70,100
2304,note_on,24,0,1,,,,,,,,,0,,70,0
2304,note_on,0,0,1,,,,,,,,,0,,79,100
2304,note_on,48,0,2,,,,,,,,,1,,50,0
2304,note_on,0,0,2,,,,,,,,,1,,51,100
2328,note_on,24,0,1,,,,,,,,,0,,79,0
2328,note_on,0,0,1,,,,,,,,,0,,70,100
2352,note_on,24,0,1,,,,,,,,,0,,70,0
2352,note_on,0,0,1,,,,,,,,,0,,69,100
2376,note_on,24,0,1,,,,,,,,,0,,69,0
2376,note_on,0,0,1,,,,,,,,,0,,70,100
2400,note_on,24,0,1,,,,,,,,,0,,70,0
2400,note_on,0,0,2,,,,,,,,,1,,53,100
2400,note_on,96,0,2,,,,,,,,,1,,51,0
2400,note_on,0,0,1,,,,,,,,,0,,81,100
2424,note_on,0,0,1,,,,,,,,,0,,70,100
2424,note_on,24,0,1,,,,,,,,,0,,81,0
2448,note_on,24,0,1,,,,,,,,,0,,70,0
2448,note_on,0,0,1,,,,,,,,,0,,82,100
2448,note_on,48,0,2,,,,,,,,,1,,53,0
2448,note_on,0,0,2,,,,,,,,,1,,55,100
2472,note_on,24,0,1,,,,,,,,,0,,82,0
2472,note_on,0,0,1,,,,,,,,,0,,70,100
2496,note_on,0,0,1,,,,,,,,,0,,81,100
2496,note_on,24,0,1,,,,,,,,,0,,70,0
2496,note_on,48,0,2,,,,,,,,,1,,55,0
2496,note_on,0,0,2,,,,,,,,,1,,53,100
2520,note_on,0,0,1,,,,,,,,,0,,70,100
2520,note_on,24,0,1,,,,,,,,,0,,81,0
2544,note_on,24,0,1,,,,,,,,,0,,70,0
2544,note_on,48,0,2,,,,,,,,,1,,53,0
2544,note_on,0,0,2,,,,,,,,,1,,51,100
2544,note_on,0,0,1,,,,,,,,,0,,79,100
2568,note_on,0,0,1,,,,,,,,,0,,70,100
2568,note_on,24,0,1,,,,,,,,,0,,79,0
2592,note_on,48,0,2,,,,,,,,,1,,51,0
2592,note_on,0,0,2,,,,,,,,,1,,50,100
2592,note_on,24,0,1,,,,,,,,,0,,70,0
2592,note_on,0,0,1,,,,,,,,,0,,77,100
2616,note_on,24,0,1,,,,,,,,,0,,77,0
2616,note_on,0,0,1,,,,,,,,,0,,70,100
2640,note_on,0,0,2,,,,,,,,,1,,48,100
2640,note_on,24,0,1,,,,,,,,,0,,70,0
2640,note_on,0,0,1,,,,,,,,,0,,75,100
2640,note_on,48,0,2,,,,,,,,,1,,50,0
2664,note_on,0,0,1,,,,,,,,,0,,69,100
2664,note_on,24,0,1,,,,,,,,,0,,75,0
2688,note_on,24,0,1,,,,,,,,,0,,69,0
2688,note_on,0,0,1,,,,,,,,,0,,70,100
2688,note_on,0,0,2,,,,,,,,,1,,46,100
2688,note_on,48,0,2,,,,,,,,,1,,48,0
2712,note_on,24,0,1,,,,,,,,,0,,70,0
2712,note_on,0,0,1,,,,,,,,,0,,74,100
2736,note_on,48,0,2,,,,,,,,,1,,46,0
2736,note_on,0,0,2,,,,,,,,,1,,51,100
2736,note_on,24,0,1,,,,,,,,,0,,74,0
2736,note_on,0,0,1,,,,,,,,,0,,67,100
2760,note_on,0,0,1,,,,,,,,,0,,70,100
2760,note_on,24,0,1,,,,,,,,,0,,67,0
2784,note_on,48,0,2,,,,,,,,,1,,51,0
2784,note_on,24,0,1,,,,,,,,,0,,70,0
2784,note_on,0,0,2,,,,,,,,,1,,50,100
2784,note_on,0,0,1,,,,,,,,,0,,72,100
2808,note_on,0,0,1,,,,,,,,,0,,74,100
2808,note_on,24,0,1,,,,,,,,,0,,72,0
2832,note_on,24,0,1,,,,,,,,,0,,74,0
2832,note_on,48,0,2,,,,,,,,,1,,50,0
2832,note_on,0,0,2,,,,,,,,,1,,48,100
2832,note_on,0,0,1,,,,,,,,,0,,75,100
2856,note_on,0,0,1,,,,,,,,,0,,72,100
2856,note_on,24,0,1,,,,,,,,,0,,75,0
2880,note_on,0,0,1,,,,,,,,,0,,69,100
2880,note_on,48,0,2,,,,,,,,,1,,48,0
2880,note_on,0,0,2,,,,,,,,,1,,53,100
2880,note_on,24,0,1,,,,,,,,,0,,72,0
2904,note_on,24,0,1,,,,,,,,,0,,69,0
2904,note_on,0,0,1,,,,,,,,,0,,72,100
2928,note_on,0,0,2,,,,,,,,,1,,51,100
2928,note_on,48,0,2,,,,,,,,,1,,53,0
2928,note_on,0,0,1,,,,,,,,,0,,74,100
2928,note_on,24,0,1,,,,,,,,,0,,72,0
2952,note_on,24,0,1,,,,,,,,,0,,74,0
2952,note_on,0,0,1,,,,,,,,,0,,75,100
2976,note_on,0,0,2,,,,,,,,,1,,50,100
2976,note_on,48,0,2,,,,,,,,,1,,51,0
2976,note_on,24,0,1,,,,,,,,,0,,75,0
2976,note_on,0,0,1,,,,,,,,,0,,77,100
3000,note_on,0,0,1,,,,,,,,,0,,74,100
3000,note_on,24,0,1,,,,,,,,,0,,77,0
3024,note_on,24,0,1,,,,,,,,,0,,74,0
3024,note_on,0,0,2,,,,,,,,,1,,55,100
3024,note_on,48,0,2,,,,,,,,,1,,50,0
3024,note_on,0,0,1,,,,,,,,,0,,70,100
3048,note_on,24,0,1,,,,,,,,,0,,70,0
3048,note_on,0,0,1,,,,,,,,,0,,69,100
3072,note_on,48,0,2,,,,,,,,,1,,55,0
3072,note_on,0,0,2,,,,,,,,,1,,50,100
3072,note_on,0,0,1,,,,,,,,,0,,67,100
3072,note_on,24,0,1,,,,,,,,,0,,69,0
3096,note_on,24,0,1,,,,,,,,,0,,67,0
3096,note_on,0,0,1,,,,,,,,,0,,65,100
3120,note_on,0,0,1,,,,,,,,,0,,63,100
3120,note_on,0,0,2,,,,,,,,,1,,51,100
3120,note_on,48,0,2,,,,,,,,,1,,50,0
3120,note_on,24,0,1,,,,,,,,,0,,65,0
3144,note_on,24,0,1,,,,,,,,,0,,63,0
3144,note_on,0,0,1,,,,,,,,,0,,62,100
3168,note_on,0,0,1,,,,,,,,,0,,60,100
3168,note_on,24,0,1,,,,,,,,,0,,62,0
3168,note_on,0,0,2,,,,,,,,,1,,53,100
3168,note_on,48,0,2,,,,,,,,,1,,51,0
3216,note_on,0,0,1,,,,,,,,,0,,70,100
3216,note_on,48,0,1,,,,,,,,,0,,60,0
3264,note_on,0,0,2,,,,,,,,,1,,41,100
3264,note_on,48,0,1,,,,,,,,,0,,70,0
3264,note_on,0,0,1,,,,,,,,,0,,69,100
3264,note_on,96,0,2,,,,,,,,,1,,53,0
3312,note_on,48,0,2,,,,,,,,,1,,41,0
3312,note_on,0,0,2,,,,,,,,,1,,46,100
3312,note_on,0,0,1,,,,,,,,,0,,65,100
3312,note_on,48,0,1,,,,,,,,,0,,69,0
3312,note_on,0,0,1,,,,,,,,,0,,70,100
3312,note_on,0,0,1,,,,,,,,,0,,62,100
3336,note_on,24,0,2,,,,,,,,,1,,46,0
3336,note_on,0,0,2,,,,,,,,,1,,48,100
3360,note_on,24,0,2,,,,,,,,,1,,48,0
3360,note_on,0,0,2,,,,,,,,,1,,50,100
3384,note_on,0,0,2,,,,,,,,,1,,48,100
3384,note_on,24,0,2,,,,,,,,,1,,50,0
3408,note_on,24,0,2,,,,,,,,,1,,48,0
3408,note_on,0,0,2,,,,,,,,,1,,46,100
3432,note_on,24,0,2,,,,,,,,,1,,46,0
3432,note_on,0,0,2,,,,,,,,,1,,45,100
3456,note_on,144,0,1,,,,,,,,,0,,62,0
3456,note_on,24,0,2,,,,,,,,,1,,45,0
3456,note_on,0,0,2,,,,,,,,,1,,43,100
3456,note_on,0,0,1,,,,,,,,,0,,65,0
3456,note_on,0,0,1,,,,,,,,,0,,67,100
3456,note_on,0,0,1,,,,,,,,,0,,70,0
3480,note_on,0,0,1,,,,,,,,,0,,62,100
3480,note_on,24,0,1,,,,,,,,,0,,67,0
3504,note_on,0,0,1,,,,,,,,,0,,67,100
3504,note_on,24,0,1,,,,,,,,,0,,62,0
3528,note_on,24,0,1,,,,,,,,,0,,67,0
3528,note_on,0,0,1,,,,,,,,,0,,70,100
3552,note_on,0,0,1,,,,,,,,,0,,69,100
3552,note_on,96,0,2,,,,,,,,,1,,43,0
3552,note_on,24,0,1,,,,,,,,,0,,70,0
3576,note_on,0,0,1,,,,,,,,,0,,72,100
3576,note_on,24,0,1,,,,,,,,,0,,69,0
3600,note_on,48,0,2,,,,,,,,,1,,55,100
3600,note_on,24,0,1,,,,,,,,,0,,72,0
3600,note_on,0,0,1,,,,,,,,,0,,70,100
3624,note_on,0,0,2,,,,,,,,,1,,50,100
3624,note_on,24,0,2,,,,,,,,,1,,55,0
3648,note_on,0,0,1,,,,,,,,,0,,67,100
3648,note_on,48,0,1,,,,,,,,,0,,70,0
3648,note_on,24,0,2,,,,,,,,,1,,50,0
3648,note_on,0,0,2,,,,,,,,,1,,55,100
3672,note_on,24,0,2,,,,,,,,,1,,55,0
3672,note_on,0,0,2,,,,,,,,,1,,58,100
3696,note_on,24,0,2,,,,,,,,,1,,58,0
3696,note_on,0,0,2,,,,,,,,,1,,57,100
3696,note_on,48,0,1,,,,,,,,,0,,67,0
3696,note_on,0,0,1,,,,,,,,,0,,66,100
3720,note_on,24,0,2,,,,,,,,,1,,57,0
3720,note_on,0,0,2,,,,,,,,,1,,60,100
3744,note_on,24,0,2,,,,,,,,,1,,60,0
3744,note_on,0,0,2,,,,,,,,,1,,58,100
3744,note_on,0,0,1,,,,,,,,,0,,67,100
3744,note_on,48,0,1,,,,,,,,,0,,66,0
3768,note_on,0,0,1,,,,,,,,,0,,62,100
3768,note_on,24,0,1,,,,,,,,,0,,67,0
3792,note_on,24,0,1,,,,,,,,,0,,62,0
3792,note_on,48,0,2,,,,,,,,,1,,58,0
3792,note_on,0,0,2,,,,,,,,,1,,55,100
3792,note_on,0,0,1,,,,,,,,,0,,67,100
3816,note_on,0,0,1,,,,,,,,,0,,70,100
3816,note_on,24,0,1,,,,,,,,,0,,67,0
3840,note_on,24,0,1,,,,,,,,,0,,70,0
3840,note_on,0,0,2,,,,,,,,,1,,54,100
3840,note_on,0,0,1,,,,,,,,,0,,69,100
3840,note_on,48,0,2,,,,,,,,,1,,55,0
3864,note_on,24,0,1,,,,,,,,,0,,69,0
3864,note_on,0,0,1,,,,,,,,,0,,72,100
3888,note_on,48,0,2,,,,,,,,,1,,54,0
3888,note_on,0,0,2,,,,,,,,,1,,55,100
3888,note_on,24,0,1,,,,,,,,,0,,72,0
3888,note_on,0,0,1,,,,,,,,,0,,70,100
3912,note_on,24,0,1,,,,,,,,,0,,70,0
3912,note_on,0,0,1,,,,,,,,,0,,67,100
3936,note_on,48,0,2,,,,,,,,,1,,55,0
3936,note_on,0,0,2,,,,,,,,,1,,43,100
3936,note_on,24,0,1,,,,,,,,,0,,67,0
3936,note_on,0,0,1,,,,,,,,,0,,70,100
3960,note_on,0,0,1,,,,,,,,,0,,74,100
3960,note_on,24,0,1,,,,,,,,,0,,70,0
3984,note_on,24,0,1,,,,,,,,,0,,74,0
3984,note_on,0,0,2,,,,,,,,,1,,45,100
3984,note_on,48,0,2,,,,,,,,,1,,43,0
3984,note_on,0,0,1,,,,,,,,,0,,72,100
4008,note_on,24,0,1,,,,,,,,,0,,72,0
4008,note_on,0,0,1,,,,,,,,,0,,75,100
4032,note_on,24,0,1,,,,,,,,,0,,75,0
4032,note_on,0,0,2,,,,,,,,,1,,46,100
4032,note_on,48,0,2,,,,,,,,,1,,45,0
4032,note_on,0,0,1,,,,,,,,,0,,74,100
4056,note_on,24,0,1,,,,,,,,,0,,74,0
4056,note_on,0,0,1,,,,,,,,,0,,67,100
4080,note_on,48,0,2,,,,,,,,,1,,46,0
4080,note_on,24,0,1,,,,,,,,,0,,67,0
4080,note_on,0,0,1,,,,,,,,,0,,74,100
4080,note_on,0,0,2,,,,,,,,,1,,58,100
4104,note_on,24,0,1,,,,,,,,,0,,74,0
4104,note_on,0,0,1,,,,,,,,,0,,79,100
4128,note_on,24,0,1,,,,,,,,,0,,79,0
4128,note_on,0,0,1,,,,,,,,,0,,78,100
4128,note_on,48,0,2,,,,,,,,,1,,58,0
4128,note_on,0,0,2,,,,,,,,,1,,55,100
4152,note_on,24,0,1,,,,,,,,,0,,78,0
4152,note_on,0,0,1,,,,,,,,,0,,79,100
4176,note_on,48,0,2,,,,,,,,,1,,55,0
4176,note_on,0,0,2,,,,,,,,,1,,57,100
4176,note_on,0,0,1,,,,,,,,,0,,72,100
4176,note_on,24,0,1,,,,,,,,,0,,79,0
4200,note_on,0,0,1,,,,,,,,,0,,75,100
4200,note_on,24,0,1,,,,,,,,,0,,72,0
4224,note_on,0,0,2,,,,,,,,,1,,54,100
4224,note_on,24,0,1,,,,,,,,,0,,75,0
4224,note_on,0,0,1,,,,,,,,,0,,74,100
4224,note_on,48,0,2,,,,,,,,,1,,57,0
4248,note_on,24,0,1,,,,,,,,,0,,74,0
4248,note_on,0,0,1,,,,,,,,,0,,72,100
4272,note_on,0,0,2,,,,,,,,,1,,50,100
4272,note_on,0,0,1,,,,,,,,,0,,70,100
4272,note_on,24,0,1,,,,,,,,,0,,72,0
4272,note_on,48,0,2,,,,,,,,,1,,54,0
4296,note_on,0,0,1,,,,,,,,,0,,69,100
4296,note_on,24,0,1,,,,,,,,,0,,70,0
4320,note_on,0,0,2,,,,,,,,,1,,55,100
4320,note_on,48,0,2,,,,,,,,,1,,50,0
4320,note_on,0,0,1,,,,,,,,,0,,70,100
4320,note_on,24,0,1,,,,,,,,,0,,69,0
4344,note_on,0,0,1,,,,,,,,,0,,74,100
4344,note_on,24,0,1,,,,,,,,,0,,70,0
4368,note_on,0,0,1,,,,,,,,,0,,72,100
4368,note_on,24,0,1,,,,,,,,,0,,74,0
4368,note_on,48,0,2,,,,,,,,,1,,55,0
4368,note_on,0,0,2,,,,,,,,,1,,51,100
4392,note_on,0,0,1,,,,,,,,,0,,70,100
4392,note_on,24,0,1,,,,,,,,,0,,72,0
4416,note_on,24,0,1,,,,,,,,,0,,70,0
4416,note_on,48,0,2,,,,,,,,,1,,51,0
4416,note_on,0,0,1,,,,,,,,,0,,69,100
4416,note_on,0,0,2,,,,,,,,,1,,48,100
4440,note_on,0,0,1,,,,,,,,,0,,67,100
4440,note_on,24,0,1,,,,,,,,,0,,69,0
4464,note_on,48,0,2,,,,,,,,,1,,48,0
4464,note_on,24,0,1,,,,,,,,,0,,67,0
4464,note_on,0,0,2,,,,,,,,,1,,50,100
4464,note_on,0,0,1,,,,,,,,,0,,66,100
4488,note_on,24,0,1,,,,,,,,,0,,66,0
4488,note_on,0,0,1,,,,,,,,,0,,64,100
4512,note_on,0,0,1,,,,,,,,,0,,62,100
4512,note_on,24,0,1,,,,,,,,,0,,64,0
4536,note_on,0,0,2,,,,,,,,,1,,48,100
4536,note_on,72,0,2,,,,,,,,,1,,50,0
4560,note_on,0,0,2,,,,,,,,,1,,46,100
4560,note_on,24,0,2,,,,,,,,,1,,48,0
4584,note_on,0,0,2,,,,,,,,,1,,45,100
4584,note_on,24,0,2,,,,,,,,,1,,46,0
4608,note_on,0,0,1,,,,,,,,,0,,79,100
4608,note_on,0,0,2,,,,,,,,,1,,46,100
4608,note_on,24,0,2,,,,,,,,,1,,45,0
4608,note_on,96,0,1,,,,,,,,,0,,62,0
4632,note_on,0,0,1,,,,,,,,,0,,74,100
4632,note_on,24,0,1,,,,,,,,,0,,79,0
4656,note_on,24,0,1,,,,,,,,,0,,74,0
4656,note_on,0,0,1,,,,,,,,,0,,75,100
4656,note_on,0,0,2,,,,,,,,,1,,58,100
4656,note_on,48,0,2,,,,,,,,,1,,46,0
4680,note_on,24,0,1,,,,,,,,,0,,75,0
4680,note_on,0,0,1,,,,,,,,,0,,74,100
4704,note_on,0,0,2,,,,,,,,,1,,57,100
4704,note_on,48,0,2,,,,,,,,,1,,58,0
4704,note_on,24,0,1,,,,,,,,,0,,74,0
4704,note_on,0,0,1,,,,,,,,,0,,72,100
4728,note_on,24,0,1,,,,,,,,,0,,72,0
4728,note_on,0,0,1,,,,,,,,,0,,77,100
4752,note_on,24,0,1,,,,,,,,,0,,77,0
4752,note_on,0,0,1,,,,,,,,,0,,70,100
4752,note_on,48,0,2,,,,,,,,,1,,57,0
4752,note_on,0,0,2,,,,,,,,,1,,55,100
4776,note_on,24,0,1,,,,,,,,,0,,70,0
4776,note_on,0,0,1,,,,,,,,,0,,75,100
4800,note_on,24,0,1,,,,,,,,,0,,75,0
4800,note_on,0,0,1,,,,,,,,,0,,74,100
4824,note_on,24,0,1,,,,,,,,,0,,74,0
4824,note_on,0,0,1,,,,,,,,,0,,75,100
4848,note_on,24,0,1,,,,,,,,,0,,75,0
4848,note_on,0,0,2,,,,,,,,,1,,53,100
4848,note_on,96,0,2,,,,,,,,,1,,55,0
4848,note_on,0,0,1,,,,,,,,,0,,69,100
4872,note_on,24,0,1,,,,,,,,,0,,69,0
4872,note_on,0,0,1,,,,,,,,,0,,74,100
4896,note_on,48,0,2,,,,,,,,,1,,53,0
4896,note_on,0,0,2,,,,,,,,,1,,51,100
4896,note_on,0,0,1,,,,,,,,,0,,67,100
4896,note_on,24,0,1,,,,,,,,,0,,74,0
4920,note_on,24,0,1,,,,,,,,,0,,67,0
4920,note_on,0,0,1,,,,,,,,,0,,74,100
4944,note_on,24,0,1,,,,,,,,,0,,74,0
4944,note_on,48,0,2,,,,,,,,,1,,51,0
4944,note_on,0,0,1,,,,,,,,,0,,75,100
4944,note_on,0,0,2,,,,,,,,,1,,53,100
4968,note_on,24,0,1,,,,,,,,,0,,75,0
4968,note_on,0,0,1,,,,,,,,,0,,74,100
4992,note_on,0,0,1,,,,,,,,,0,,72,100
4992,note_on,0,0,2,,,,,,,,,1,,55,100
4992,note_on,48,0,2,,,,,,,,,1,,53,0
4992,note_on,24,0,1,,,,,,,,,0,,74,0
5016,note_on,24,0,1,,,,,,,,,0,,72,0
5016,note_on,0,0,1,,,,,,,,,0,,70,100
5040,note_on,0,0,2,,,,,,,,,1,,53,100
5040,note_on,48,0,2,,,,,,,,,1,,55,0
5040,note_on,24,0,1,,,,,,,,,0,,70,0
5040,note_on,0,0,1,,,,,,,,,0,,69,100
5064,note_on,0,0,1,,,,,,,,,0,,65,100
5064,note_on,24,0,1,,,,,,,,,0,,69,0
5088,note_on,0,0,1,,,,,,,,,0,,67,100
5088,note_on,24,0,1,,,,,,,,,0,,65,0
5112,note_on,24,0,1,,,,,,,,,0,,67,0
5112,note_on,0,0,1,,,,,,,,,0,,69,100
5136,note_on,0,0,2,,,,,,,,,1,,57,100
5136,note_on,24,0,1,,,,,,,,,0,,69,0
5136,note_on,0,0,1,,,,,,,,,0,,70,100
5136,note_on,96,0,2,,,,,,,,,1,,53,0
5160,note_on,0,0,1,,,,,,,,,0,,72,100
5160,note_on,24,0,1,,,,,,,,,0,,70,0
5184,note_on,48,0,2,,,,,,,,,1,,57,0
5184,note_on,0,0,1,,,,,,,,,0,,74,100
5184,note_on,24,0,1,,,,,,,,,0,,72,0
5184,note_on,0,0,2,,,,,,,,,1,,58,100
5208,note_on,24,0,1,,,,,,,,,0,,74,0
5208,note_on,0,0,1,,,,,,,,,0,,70,100
5232,note_on,24,0,1,,,,,,,,,0,,70,0
5232,note_on,0,0,1,,,,,,,,,0,,69,100
5232,note_on,0,0,2,,,,,,,,,1,,50,100
5232,note_on,48,0,2,,,,,,,,,1,,58,0
5256,note_on,24,0,1,,,,,,,,,0,,69,0
5256,note_on,0,0,1,,,,,,,,,0,,70,100
5280,note_on,24,0,1,,,,,,,,,0,,70,0
5280,note_on,0,0,1,,,,,,,,,0,,79,100
5280,note_on,48,0,2,,,,,,,,,1,,50,0
5280,note_on,0,0,2,,,,,,,,,1,,51,100
5304,note_on,0,0,1,,,,,,,,,0,,70,100
5304,note_on,24,0,1,,,,,,,,,0,,79,0
5328,note_on,0,0,1,,,,,,,,,0,,77,100
5328,note_on,24,0,1,,,,,,,,,0,,70,0
5328,note_on,0,0,2,,,,,,,,,1,,50,100
5328,note_on,48,0,2,,,,,,,,,1,,51,0
5352,note_on,0,0,1,,,,,,,,,0,,70,100
5352,note_on,24,0,1,,,,,,,,,0,,77,0
5376,note_on,0,0,2,,,,,,,,,1,,62,100
5376,note_on,24,0,1,,,,,,,,,0,,70,0
5376,note_on,48,0,2,,,,,,,,,1,,50,0
5376,note_on,0,0,1,,,,,,,,,0,,69,100
5400,note_on,0,0,1,,,,,,,,,0,,70,100
5400,note_on,24,0,1,,,,,,,,,0,,69,0
5424,note_on,24,0,1,,,,,,,,,0,,70,0
5424,note_on,0,0,1,,,,,,,,,0,,67,100
5424,note_on,48,0,2,,,,,,,,,1,,62,0
5424,note_on,0,0,2,,,,,,,,,1,,63,100
5448,note_on,24,0,1,,,,,,,,,0,,67,0
5448,note_on,0,0,1,,,,,,,,,0,,70,100
5472,note_on,0,0,2,,,,,,,,,1,,62,100
5472,note_on,48,0,2,,,,,,,,,1,,63,0
5472,note_on,0,0,1,,,,,,,,,0,,65,100
5472,note_on,24,0,1,,,,,,,,,0,,70,0
5496,note_on,0,0,1,,,,,,,,,0,,70,100
5496,note_on,24,0,1,,,,,,,,,0,,65,0
5520,note_on,24,0,1,,,,,,,,,0,,70,0
5520,note_on,0,0,1,,,,,,,,,0,,69,100
5544,note_on,24,0,1,,,,,,,,,0,,69,0
5544,note_on,0,0,1,,,,,,,,,0,,70,100
5568,note_on,96,0,2,,,,,,,,,1,,62,0
5568,note_on,0,0,2,,,,,,,,,1,,60,100
5568,note_on,24,0,1,,,,,,,,,0,,70,0
5568,note_on,0,0,1,,,,,,,,,0,,63,100
5592,note_on,0,0,1,,,,,,,,,0,,70,100
5592,note_on,24,0,1,,,,,,,,,0,,63,0
5616,note_on,0,0,1,,,,,,,,,0,,62,100
5616,note_on,24,0,1,,,,,,,,,0,,70,0
5616,note_on,0,0,2,,,,,,,,,1,,58,100
5616,note_on,48,0,2,,,,,,,,,1,,60,0
5640,note_on,0,0,1,,,,,,,,,0,,70,100
5640,note_on,24,0,1,,,,,,,,,0,,62,0
5664,note_on,0,0,1,,,,,,,,,0,,69,100
5664,note_on,24,0,1,,,,,,,,,0,,70,0
5688,note_on,24,0,1,,,,,,,,,0,,69,0
5688,note_on,0,0,1,,,,,,,,,0,,70,100
5712,note_on,0,0,1,,,,,,,,,0,,77,100
5712,note_on,24,0,1,,,,,,,,,0,,70,0
5712,note_on,96,0,2,,,,,,,,,1,,58,0
5712,note_on,0,0,2,,,,,,,,,1,,50,100
5736,note_on,24,0,1,,,,,,,,,0,,77,0
5736,note_on,0,0,1,,,,,,,,,0,,70,100
5760,note_on,48,0,2,,,,,,,,,1,,50,0
5760,note_on,0,0,2,,,,,,,,,1,,51,100
5760,note_on,24,0,1,,,,,,,,,0,,70,0
5760,note_on,0,0,1,,,,,,,,,0,,79,100
5784,note_on,24,0,1,,,,,,,,,0,,79,0
5784,note_on,0,0,1,,,,,,,,,0,,70,100
5808,note_on,24,0,1,,,,,,,,,0,,70,0
5808,note_on,0,0,1,,,,,,,,,0,,69,100
5832,note_on,24,0,1,,,,,,,,,0,,69,0
5832,note_on,0,0,1,,,,,,,,,0,,70,100
5856,note_on,0,0,1,,,,,,,,,0,,81,100
5856,note_on,24,0,1,,,,,,,,,0,,70,0
5856,note_on,96,0,2,,,,,,,,,1,,51,0
5856,note_on,0,0,2,,,,,,,,,1,,53,100
5880,note_on,0,0,1,,,,,,,,,0,,70,100
5880,note_on,24,0,1,,,,,,,,,0,,81,0
5904,note_on,0,0,1,,,,,,,,,0,,82,100
5904,note_on,24,0,1,,,,,,,,,0,,70,0
5904,note_on,48,0,2,,,,,,,,,1,,53,0
5904,note_on,0,0,2,,,,,,,,,1,,55,100
5928,note_on,0,0,1,,,,,,,,,0,,70,100
5928,note_on,24,0,1,,,,,,,,,0,,82,0
5952,note_on,24,0,1,,,,,,,,,0,,70,0
5952,note_on,48,0,2,,,,,,,,,1,,55,0
5952,note_on,0,0,2,,,,,,,,,1,,53,100
5952,note_on,0,0,1,,,,,,,,,0,,81,100
5976,note_on,0,0,1,,,,,,,,,0,,70,100
5976,note_on,24,0,1,,,,,,,,,0,,81,0
6000,note_on,0,0,2,,,,,,,,,1,,51,100
6000,note_on,48,0,2,,,,,,,,,1,,53,0
6000,note_on,0,0,1,,,,,,,,,0,,79,100
6000,note_on,24,0,1,,,,,,,,,0,,70,0
6024,note_on,0,0,1,,,,,,,,,0,,70,100
6024,note_on,24,0,1,,,,,,,,,0,,79,0
6048,note_on,0,0,2,,,,,,,,,1,,50,100
6048,note_on,48,0,2,,,,,,,,,1,,51,0
6048,note_on,24,0,1,,,,,,,,,0,,70,0
6048,note_on,0,0,1,,,,,,,,,0,,77,100
6072,note_on,24,0,1,,,,,,,,,0,,77,0
6072,note_on,0,0,1,,,,,,,,,0,,70,100
6096,note_on,48,0,2,,,,,,,,,1,,50,0
6096,note_on,24,0,1,,,,,,,,,0,,70,0
6096,note_on,0,0,1,,,,,,,,,0,,75,100
6096,note_on,0,0,2,,,,,,,,,1,,48,100
6120,note_on,0,0,1,,,,,,,,,0,,69,100
6120,note_on,24,0,1,,,,,,,,,0,,75,0
6144,note_on,0,0,1,,,,,,,,,0,,70,100
6144,note_on,24,0,1,,,,,,,,,0,,69,0
6144,note_on,48,0,2,,,,,,,,,1,,48,0
6144,note_on,0,0,2,,,,,,,,,1,,46,100
6168,note_on,24,0,1,,,,,,,,,0,,70,0
6168,note_on,0,0,1,,,,,,,,,0,,74,100
6192,note_on,24,0,1,,,,,,,,,0,,74,0
6192,note_on,48,0,2,,,,,,,,,1,,46,0
6192,note_on,0,0,2,,,,,,,,,1,,51,100
6192,note_on,0,0,1,,,,,,,,,0,,67,100
6216,note_on,24,0,1,,,,,,,,,0,,67,0
6216,note_on,0,0,1,,,,,,,,,0,,70,100
6240,note_on,0,0,1,,,,,,,,,0,,72,100
6240,note_on,24,0,1,,,,,,,,,0,,70,0
6240,note_on,48,0,2,,,,,,,,,1,,51,0
6240,note_on,0,0,2,,,,,,,,,1,,50,100
6264,note_on,0,0,1,,,,,,,,,0,,74,100
6264,note_on,24,0,1,,,,,,,,,0,,72,0
6288,note_on,0,0,1,,,,,,,,,0,,75,100
6288,note_on,24,0,1,,,,,,,,,0,,74,0
6288,note_on,0,0,2,,,,,,,,,1,,48,100
6288,note_on,48,0,2,,,,,,,,,1,,50,0
6312,note_on,0,0,1,,,,,,,,,0,,72,100
6312,note_on,24,0,1,,,,,,,,,0,,75,0
6336,note_on,0,0,1,,,,,,,,,0,,69,100
6336,note_on,24,0,1,,,,,,,,,0,,72,0
6336,note_on,48,0,2,,,,,,,,,1,,48,0
6336,note_on,0,0,2,,,,,,,,,1,,53,100
6360,note_on,24,0,1,,,,,,,,,0,,69,0
6360,note_on,0,0,1,,,,,,,,,0,,72,100
6384,note_on,0,0,1,,,,,,,,,0,,74,100
6384,note_on,24,0,1,,,,,,,,,0,,72,0
6384,note_on,48,0,2,,,,,,,,,1,,53,0
6384,note_on,0,0,2,,,,,,,,,1,,51,100
6408,note_on,24,0,1,,,,,,,,,0,,74,0
6408,note_on,0,0,1,,,,,,,,,0,,75,100
6432,note_on,0,0,1,,,,,,,,,0,,77,100
6432,note_on,48,0,2,,,,,,,,,1,,51,0
6432,note_on,0,0,2,,,,,,,,,1,,50,100
6432,note_on,24,0,1,,,,,,,,,0,,75,0
6456,note_on,24,0,1,,,,,,,,,0,,77,0
6456,note_on,0,0,1,,,,,,,,,0,,74,100
6480,note_on,48,0,2,,,,,,,,,1,,50,0
6480,note_on,0,0,2,,,,,,,,,1,,55,100
6480,note_on,0,0,1,,,,,,,,,0,,70,100
6480,note_on,24,0,1,,,,,,,,,0,,74,0
6504,note_on,0,0,1,,,,,,,,,0,,69,100
6504,note_on,24,0,1,,,,,,,,,0,,70,0
6528,note_on,24,0,1,,,,,,,,,0,,69,0
6528,note_on,0,0,2,,,,,,,,,1,,50,100
6528,note_on,48,0,2,,,,,,,,,1,,55,0
6528,note_on,0,0,1,,,,,,,,,0,,67,100
6552,note_on,0,0,1,,,,,,,,,0,,65,100
6552,note_on,24,0,1,,,,,,,,,0,,67,0
6576,note_on,48,0,2,,,,,,,,,1,,50,0
6576,note_on,0,0,1,,,,,,,,,0,,63,100
6576,note_on,24,0,1,,,,,,,,,0,,65,0
6576,note_on,0,0,2,,,,,,,,,1,,51,100
6600,note_on,0,0,1,,,,,,,,,0,,62,100
6600,note_on,24,0,1,,,,,,,,,0,,63,0
6624,note_on,24,0,1,,,,,,,,,0,,62,0
6624,note_on,0,0,1,,,,,,,,,0,,60,100
6624,note_on,48,0,2,,,,,,,,,1,,51,0
6624,note_on,0,0,2,,,,,,,,,1,,53,100
6672,note_on,48,0,1,,,,,,,,,0,,60,0
6672,note_on,0,0,1,,,,,,,,,0,,70,100
6720,note_on,48,0,1,,,,,,,,,0,,70,0
6720,note_on,0,0,1,,,,,,,,,0,,70,100
6720,note_on,0,0,2,,,,,,,,,1,,41,100
6720,note_on,96,0,2,,,,,,,,,1,,53,0
6732,note_on,12,0,1,,,,,,,,,0,,70,0
6732,note_on,0,0,1,,,,,,,,,0,,69,100
6744,note_on,12,0,1,,,,,,,,,0,,69,0
6744,note_on,0,0,1,,,,,,,,,0,,70,100
6756,note_on,12,0,1,,,,,,,,,0,,70,0
6756,note_on,0,0,1,,,,,,,,,0,,69,100
6768,note_on,12,0,1,,,,,,,,,0,,69,0
6768,note_on,0,0,1,,,,,,,,,0,,70,100
6768,note_on,0,0,1,,,,,,,,,0,,65,100
6768,note_on,0,0,1,,,,,,,,,0,,62,100
6768,note_on,48,0,2,,,,,,,,,1,,41,0
6768,note_on,0,0,2,,,,,,,,,1,,46,100
6792,note_on,24,0,2,,,,,,,,,1,,46,0
6792,note_on,0,0,2,,,,,,,,,1,,48,100
6816,note_on,24,0,2,,,,,,,,,1,,48,0
6816,note_on,0,0,2,,,,,,,,,1,,50,100
6840,note_on,0,0,2,,,,,,,,,1,,48,100
6840,note_on,24,0,2,,,,,,,,,1,,50,0
6864,note_on,24,0,2,,,,,,,,,1,,48,0
6864,note_on,0,0,2,,,,,,,,,1,,46,100
6888,note_on,0,0,2,,,,,,,,,1,,45,100
6888,note_on,24,0,2,,,,,,,,,1,,46,0
6912,note_on,24,0,2,,,,,,,,,1,,45,0
6912,note_on,0,0,2,,,,,,,,,1,,46,100
6912,note_on,144,0,1,,,,,,,,,0,,62,0
6912,note_on,0,0,1,,,,,,,,,0,,65,0
6912,note_on,0,0,1,,,,,,,,,0,,70,0
6912,note_on,0,0,1,,,,,,,,,0,,70,100
6936,note_on,24,0,1,,,,,,,,,0,,70,0
6936,note_on,0,0,1,,,,,,,,,0,,65,100
6960,note_on,24,0,1,,,,,,,,,0,,65,0
6960,note_on,0,0,1,,,,,,,,,0,,70,100
6984,note_on,0,0,1,,,,,,,,,0,,74,100
6984,note_on,24,0,1,,,,,,,,,0,,70,0
7008,note_on,96,0,2,,,,,,,,,1,,46,0
7008,note_on,0,0,1,,,,,,,,,0,,72,100
7008,note_on,24,0,1,,,,,,,,,0,,74,0
7032,note_on,24,0,1,,,,,,,,,0,,72,0
7032,note_on,0,0,1,,,,,,,,,0,,75,100
7056,note_on,0,0,1,,,,,,,,,0,,74,100
7056,note_on,24,0,1,,,,,,,,,0,,75,0
7056,note_on,48,0,2,,,,,,,,,1,,58,100
7080,note_on,24,0,2,,,,,,,,,1,,58,0
7080,note_on,0,0,2,,,,,,,,,1,,53,100
7104,note_on,0,0,2,,,,,,,,,1,,58,100
7104,note_on,48,0,1,,,,,,,,,0,,74,0
7104,note_on,0,0,1,,,,,,,,,0,,70,100
7104,note_on,24,0,2,,,,,,,,,1,,53,0
7128,note_on,0,0,2,,,,,,,,,1,,62,100
7128,note_on,24,0,2,,,,,,,,,1,,58,0
7152,note_on,0,0,2,,,,,,,,,1,,60,100
7152,note_on,0,0,1,,,,,,,,,0,,69,100
7152,note_on,48,0,1,,,,,,,,,0,,70,0
7152,note_on,24,0,2,,,,,,,,,1,,62,0
7176,note_on,0,0,2,,,,,,,,,1,,63,100
7176,note_on,24,0,2,,,,,,,,,1,,60,0
7200,note_on,48,0,1,,,,,,,,,0,,69,0
7200,note_on,24,0,2,,,,,,,,,1,,63,0
7200,note_on,0,0,2,,,,,,,,,1,,62,100
7200,note_on,0,0,1,,,,,,,,,0,,70,100
7224,note_on,24,0,1,,,,,,,,,0,,70,0
7224,note_on,0,0,1,,,,,,,,,0,,65,100
7248,note_on,0,0,1,,,,,,,,,0,,70,100
7248,note_on,0,0,2,,,,,,,,,1,,50,100
7248,note_on,48,0,2,,,,,,,,,1,,62,0
7248,note_on,24,0,1,,,,,,,,,0,,65,0
7272,note_on,0,0,1,,,,,,,,,0,,74,100
7272,note_on,24,0,1,,,,,,,,,0,,70,0
7296,note_on,24,0,1,,,,,,,,,0,,74,0
7296,note_on,0,0,1,,,,,,,,,0,,72,100
7296,note_on,0,0,2,,,,,,,,,1,,51,100
7296,note_on,48,0,2,,,,,,,,,1,,50,0
7320,note_on,24,0,1,,,,,,,,,0,,72,0
7320,note_on,0,0,1,,,,,,,,,0,,70,100
7344,note_on,24,0,1,,,,,,,,,0,,70,0
7344,note_on,0,0,1,,,,,,,,,0,,69,100
7344,note_on,48,0,2,,,,,,,,,1,,51,0
7344,note_on,0,0,2,,,,,,,,,1,,53,100
7368,note_on,0,0,1,,,,,,,,,0,,67,100
7368,note_on,24,0,1,,,,,,,,,0,,69,0
7392,note_on,0,0,1,,,,,,,,,0,,65,100
7392,note_on,24,0,1,,,,,,,,,0,,67,0
7416,note_on,72,0,2,,,,,,,,,1,,53,0
7416,note_on,0,0,2,,,,,,,,,1,,53,100
7440,note_on,0,0,2,,,,,,,,,1,,51,100
7440,note_on,24,0,2,,,,,,,,,1,,53,0
7464,note_on,24,0,2,,,,,,,,,1,,51,0
7464,note_on,0,0,2,,,,,,,,,1,,50,100
7488,note_on,0,0,1,,,,,,,,,0,,72,100
7488,note_on,24,0,2,,,,,,,,,1,,50,0
7488,note_on,0,0,2,,,,,,,,,1,,51,100
7488,note_on,96,0,1,,,,,,,,,0,,65,0
7512,note_on,24,0,1,,,,,,,,,0,,72,0
7512,note_on,0,0,1,,,,,,,,,0,,67,100
7536,note_on,0,0,1,,,,,,,,,0,,72,100
7536,note_on,24,0,1,,,,,,,,,0,,67,0
7536,note_on,48,0,2,,,,,,,,,1,,51,0
7536,note_on,0,0,2,,,,,,,,,1,,60,100
7560,note_on,0,0,1,,,,,,,,,0,,75,100
7560,note_on,24,0,1,,,,,,,,,0,,72,0
7584,note_on,0,0,1,,,,,,,,,0,,74,100
7584,note_on,24,0,1,,,,,,,,,0,,75,0
7584,note_on,48,0,2,,,,,,,,,1,,60,0
7584,note_on,0,0,2,,,,,,,,,1,,59,100
7608,note_on,0,0,1,,,,,,,,,0,,77,100
7608,note_on,24,0,1,,,,,,,,,0,,74,0
7632,note_on,24,0,1,,,,,,,,,0,,77,0
7632,note_on,0,0,1,,,,,,,,,0,,75,100
7632,note_on,0,0,2,,,,,,,,,1,,60,100
7632,note_on,48,0,2,,,,,,,,,1,,59,0
7656,note_on,24,0,1,,,,,,,,,0,,75,0
7656,note_on,0,0,1,,,,,,,,,0,,72,100
7680,note_on,48,0,2,,,,,,,,,1,,60,0
7680,note_on,0,0,2,,,,,,,,,1,,48,100
7680,note_on,0,0,1,,,,,,,,,0,,75,100
7680,note_on,24,0,1,,,,,,,,,0,,72,0
7704,note_on,24,0,1,,,,,,,,,0,,75,0
7704,note_on,0,0,1,,,,,,,,,0,,79,100
7728,note_on,0,0,2,,,,,,,,,1,,50,100
7728,note_on,48,0,2,,,,,,,,,1,,48,0
7728,note_on,0,0,1,,,,,,,,,0,,71,100
7728,note_on,24,0,1,,,,,,,,,0,,79,0
7752,note_on,24,0,1,,,,,,,,,0,,71,0
7752,note_on,0,0,1,,,,,,,,,0,,74,100
7776,note_on,48,0,2,,,,,,,,,1,,50,0
7776,note_on,24,0,1,,,,,,,,,0,,74,0
7776,note_on,0,0,1,,,,,,,,,0,,72,100
7776,note_on,0,0,2,,,,,,,,,1,,51,100
7800,note_on,24,0,1,,,,,,,,,0,,72,0
7800,note_on,0,0,1,,,,,,,,,0,,67,100
7824,note_on,24,0,1,,,,,,,,,0,,67,0
7824,note_on,0,0,1,,,,,,,,,0,,72,100
7824,note_on,48,0,2,,,,,,,,,1,,51,0
7824,note_on,0,0,2,,,,,,,,,1,,56,100
7848,note_on,0,0,1,,,,,,,,,0,,75,100
7848,note_on,24,0,1,,,,,,,,,0,,72,0
7872,note_on,48,0,2,,,,,,,,,1,,56,0
7872,note_on,24,0,1,,,,,,,,,0,,75,0
7872,note_on,0,0,2,,,,,,,,,1,,53,100
7872,note_on,0,0,1,,,,,,,,,0,,74,100
7896,note_on,24,0,1,,,,,,,,,0,,74,0
7896,note_on,0,0,1,,,,,,,,,0,,72,100
7920,note_on,0,0,2,,,,,,,,,1,,55,100
7920,note_on,48,0,2,,,,,,,,,1,,53,0
7920,note_on,24,0,1,,,,,,,,,0,,72,0
7920,note_on,0,0,1,,,,,,,,,0,,71,100
7944,note_on,24,0,1,,,,,,,,,0,,71,0
7944,note_on,0,0,1,,,,,,,,,0,,69,100
7968,note_on,24,0,1,,,,,,,,,0,,69,0
7968,note_on,0,0,1,,,,,,,,,0,,67,100
7992,note_on,72,0,2,,,,,,,,,1,,55,0
7992,note_on,0,0,2,,,,,,,,,1,,53,100
8016,note_on,24,0,2,,,,,,,,,1,,53,0
8016,note_on,0,0,2,,,,,,,,,1,,51,100
8040,note_on,24,0,2,,,,,,,,,1,,51,0
8040,note_on,0,0,2,,,,,,,,,1,,50,100
8064,note_on,0,0,1,,,,,,,,,0,,79,100
8064,note_on,96,0,1,,,,,,,,,0,,67,0
8064,note_on,0,0,2,,,,,,,,,1,,51,100
8064,note_on,24,0,2,,,,,,,,,1,,50,0
8088,note_on,24,0,1,,,,,,,,,0,,79,0
8088,note_on,0,0,1,,,,,,,,,0,,72,100
8112,note_on,0,0,2,,,,,,,,,1,,60,100
8112,note_on,48,0,2,,,,,,,,,1,,51,0
8112,note_on,0,0,1,,,,,,,,,0,,71,100
8112,note_on,24,0,1,,,,,,,,,0,,72,0
8136,note_on,24,0,1,,,,,,,,,0,,71,0
8136,note_on,0,0,1,,,,,,,,,0,,72,100
8160,note_on,48,0,2,,,,,,,,,1,,60,0
8160,note_on,24,0,1,,,,,,,,,0,,72,0
8160,note_on,0,0,1,,,,,,,,,0,,80,100
8160,note_on,0,0,2,,,,,,,,,1,,53,100
8184,note_on,24,0,1,,,,,,,,,0,,80,0
8184,note_on,0,0,1,,,,,,,,,0,,72,100
8208,note_on,0,0,2,,,,,,,,,1,,51,100
8208,note_on,24,0,1,,,,,,,,,0,,72,0
8208,note_on,0,0,1,,,,,,,,,0,,79,100
8208,note_on,48,0,2,,,,,,,,,1,,53,0
8232,note_on,24,0,1,,,,,,,,,0,,79,0
8232,note_on,0,0,1,,,,,,,,,0,,72,100
8256,note_on,0,0,1,,,,,,,,,0,,71,100
8256,note_on,24,0,1,,,,,,,,,0,,72,0
8280,note_on,0,0,1,,,,,,,,,0,,72,100
8280,note_on,24,0,1,,,,,,,,,0,,71,0
8304,note_on,0,0,1,,,,,,,,,0,,68,100
8304,note_on,24,0,1,,,,,,,,,0,,72,0
8304,note_on,0,0,2,,,,,,,,,1,,53,100
8304,note_on,96,0,2,,,,,,,,,1,,51,0
8328,note_on,24,0,1,,,,,,,,,0,,68,0
8328,note_on,0,0,1,,,,,,,,,0,,72,100
8352,note_on,24,0,1,,,,,,,,,0,,72,0
8352,note_on,0,0,1,,,,,,,,,0,,67,100
8352,note_on,0,0,2,,,,,,,,,1,,51,100
8352,note_on,48,0,2,,,,,,,,,1,,53,0
8376,note_on,24,0,1,,,,,,,,,0,,67,0
8376,note_on,0,0,1,,,,,,,,,0,,72,100
8400,note_on,24,0,1,,,,,,,,,0,,72,0
8400,note_on,0,0,1,,,,,,,,,0,,71,100
8424,note_on,24,0,1,,,,,,,,,0,,71,0
8424,note_on,0,0,1,,,,,,,,,0,,72,100
8448,note_on,0,0,2,,,,,,,,,1,,50,100
8448,note_on,96,0,2,,,,,,,,,1,,51,0
8448,note_on,24,0,1,,,,,,,,,0,,72,0
8448,note_on,0,0,1,,,,,,,,,0,,65,100
8472,note_on,24,0,1,,,,,,,,,0,,65,0
8472,note_on,0,0,1,,,,,,,,,0,,72,100
8496,note_on,24,0,1,,,,,,,,,0,,72,0
8496,note_on,48,0,2,,,,,,,,,1,,50,0
8496,note_on,0,0,2,,,,,,,,,1,,48,100
8496,note_on,0,0,1,,,,,,,,,0,,63,100
8520,note_on,0,0,1,,,,,,,,,0,,72,100
8520,note_on,24,0,1,,,,,,,,,0,,63,0
8544,note_on,0,0,1,,,,,,,,,0,,65,100
8544,note_on,24,0,1,,,,,,,,,0,,72,0
8544,note_on,48,0,2,,,,,,,,,1,,48,0
8544,note_on,0,0,2,,,,,,,,,1,,50,100
8568,note_on,0,0,1,,,,,,,,,0,,72,100
8568,note_on,24,0,1,,,,,,,,,0,,65,0
8592,note_on,0,0,1,,,,,,,,,0,,67,100
8592,note_on,48,0,2,,,,,,,,,1,,50,0
8592,note_on,0,0,2,,,,,,,,,1,,51,100
8592,note_on,24,0,1,,,,,,,,,0,,72,0
8616,note_on,24,0,1,,,,,,,,,0,,67,0
8616,note_on,0,0,1,,,,,,,,,0,,72,100
8640,note_on,24,0,1,,,,,,,,,0,,72,0
8640,note_on,0,0,1,,,,,,,,,0,,68,100
8640,note_on,48,0,2,,,,,,,,,1,,51,0
8640,note_on,0,0,2,,,,,,,,,1,,53,100
8664,note_on,24,0,1,,,,,,,,,0,,68,0
8664,note_on,0,0,1,,,,,,,,,0,,72,100
8688,note_on,48,0,2,,,,,,,,,1,,53,0
8688,note_on,0,0,2,,,,,,,,,1,,56,100
8688,note_on,24,0,1,,,,,,,,,0,,72,0
8688,note_on,0,0,1,,,,,,,,,0,,65,100
8712,note_on,0,0,1,,,,,,,,,0,,74,100
8712,note_on,24,0,1,,,,,,,,,0,,65,0
8736,note_on,0,0,2,,,,,,,,,1,,53,100
8736,note_on,48,0,2,,,,,,,,,1,,56,0
8736,note_on,0,0,1,,,,,,,,,0,,72,100
8736,note_on,24,0,1,,,,,,,,,0,,74,0
8760,note_on,24,0,1,,,,,,,,,0,,72,0
8760,note_on,0,0,1,,,,,,,,,0,,74,100
8784,note_on,0,0,2,,,,,,,,,1,,55,100
8784,note_on,48,0,2,,,,,,,,,1,,53,0
8784,note_on,24,0,1,,,,,,,,,0,,74,0
8784,note_on,0,0,1,,,,,,,,,0,,71,100
8808,note_on,24,0,1,,,,,,,,,0,,71,0
8808,note_on,0,0,1,,,,,,,,,0,,80,100
8832,note_on,48,0,2,,,,,,,,,1,,55,0
8832,note_on,24,0,1,,,,,,,,,0,,80,0
8832,note_on,0,0,1,,,,,,,,,0,,79,100
8832,note_on,0,0,2,,,,,,,,,1,,59,100
8856,note_on,0,0,1,,,,,,,,,0,,77,100
8856,note_on,24,0,1,,,,,,,,,0,,79,0
8880,note_on,0,0,1,,,,,,,,,0,,75,100
8880,note_on,24,0,1,,,,,,,,,0,,77,0
8880,note_on,48,0,2,,,,,,,,,1,,59,0
8880,note_on,0,0,2,,,,,,,,,1,,60,100
8904,note_on,0,0,1,,,,,,,,,0,,74,100
8904,note_on,24,0,1,,,,,,,,,0,,75,0
8928,note_on,0,0,1,,,,,,,,,0,,72,100
8928,note_on,48,0,2,,,,,,,,,1,,60,0
8928,note_on,0,0,2,,,,,,,,,1,,53,100
8928,note_on,24,0,1,,,,,,,,,0,,74,0
8952,note_on,0,0,1,,,,,,,,,0,,74,100
8952,note_on,24,0,1,,,,,,,,,0,,72,0
8976,note_on,0,0,2,,,,,,,,,1,,55,100
8976,note_on,48,0,2,,,,,,,,,1,,53,0
8976,note_on,24,0,1,,,,,,,,,0,,74,0
8976,note_on,0,0,1,,,,,,,,,0,,67,100
9024,note_on,48,0,2,,,,,,,,,1,,55,0
9024,note_on,48,0,1,,,,,,,,,0,,67,0
9024,note_on,0,0,1,,,,,,,,,0,,71,100
9024,note_on,0,0,2,,,,,,,,,1,,43,100
9072,note_on,48,0,1,,,,,,,,,0,,71,0
9072,note_on,0,0,2,,,,,,,,,1,,48,100
9072,note_on,0,0,1,,,,,,,,,0,,72,100
9072,note_on,48,0,2,,,,,,,,,1,,43,0
9120,note_on,48,0,2,,,,,,,,,1,,48,0
9120,note_on,0,0,2,,,,,,,,,1,,60,100
9144,note_on,0,0,1,,,,,,,,,0,,77,100
9144,note_on,72,0,1,,,,,,,,,0,,72,0
9168,note_on,0,0,2,,,,,,,,,1,,58,100
9168,note_on,0,0,1,,,,,,,,,0,,76,100
9168,note_on,24,0,1,,,,,,,,,0,,77,0
9168,note_on,48,0,2,,,,,,,,,1,,60,0
9192,note_on,24,0,1,,,,,,,,,0,,76,0
9192,note_on,0,0,1,,,,,,,,,0,,74,100
9216,note_on,0,0,1,,,,,,,,,0,,73,100
9216,note_on,24,0,1,,,,,,,,,0,,74,0
9216,note_on,48,0,2,,,,,,,,,1,,58,0
9216,note_on,0,0,2,,,,,,,,,1,,57,100
9240,note_on,0,0,1,,,,,,,,,0,,82,100
9240,note_on,24,0,1,,,,,,,,,0,,73,0
9264,note_on,0,0,1,,,,,,,,,0,,81,100
9264,note_on,24,0,1,,,,,,,,,0,,82,0
9264,note_on,48,0,2,,,,,,,,,1,,57,0
9264,note_on,0,0,2,,,,,,,,,1,,49,100
9288,note_on,0,0,1,,,,,,,,,0,,79,100
9288,note_on,24,0,1,,,,,,,,,0,,81,0
9312,note_on,0,0,1,,,,,,,,,0,,77,100
9312,note_on,48,0,2,,,,,,,,,1,,49,0
9312,note_on,0,0,2,,,,,,,,,1,,45,100
9312,note_on,24,0,1,,,,,,,,,0,,79,0
9336,note_on,24,0,1,,,,,,,,,0,,77,0
9336,note_on,0,0,1,,,,,,,,,0,,76,100
9360,note_on,0,0,1,,,,,,,,,0,,77,100
9360,note_on,0,0,2,,,,,,,,,1,,50,100
9360,note_on,48,0,2,,,,,,,,,1,,45,0
9360,note_on,24,0,1,,,,,,,,,0,,76,0
9384,note_on,24,0,1,,,,,,,,,0,,77,0
9384,note_on,0,0,1,,,,,,,,,0,,69,100
9408,note_on,0,0,2,,,,,,,,,1,,52,100
9408,note_on,48,0,2,,,,,,,,,1,,50,0
9408,note_on,24,0,1,,,,,,,,,0,,69,0
9408,note_on,0,0,1,,,,,,,,,0,,67,100
9432,note_on,0,0,1,,,,,,,,,0,,69,100
9432,note_on,24,0,1,,,,,,,,,0,,67,0
9456,note_on,0,0,2,,,,,,,,,1,,53,100
9456,note_on,0,0,1,,,,,,,,,0,,65,100
9456,note_on,48,0,2,,,,,,,,,1,,52,0
9456,note_on,24,0,1,,,,,,,,,0,,69,0
9480,note_on,0,0,1,,,,,,,,,0,,74,100
9480,note_on,24,0,1,,,,,,,,,0,,65,0
9504,note_on,0,0,1,,,,,,,,,0,,64,100
9504,note_on,24,0,1,,,,,,,,,0,,74,0
9504,note_on,0,0,2,,,,,,,,,1,,55,100
9504,note_on,48,0,2,,,,,,,,,1,,53,0
9528,note_on,0,0,1,,,,,,,,,0,,74,100
9528,note_on,24,0,1,,,,,,,,,0,,64,0
9552,note_on,0,0,2,,,,,,,,,1,,57,100
9552,note_on,48,0,2,,,,,,,,,1,,55,0
9552,note_on,24,0,1,,,,,,,,,0,,74,0
9552,note_on,0,0,1,,,,,,,,,0,,74,100
9564,note_on,12,0,1,,,,,,,,,0,,74,0
9564,note_on,0,0,1,,,,,,,,,0,,73,100
9576,note_on,12,0,1,,,,,,,,,0,,73,0
9576,note_on,0,0,1,,,,,,,,,0,,74,100
9588,note_on,12,0,1,,,,,,,,,0,,74,0
9588,note_on,0,0,1,,,,,,,,,0,,73,100
9600,note_on,0,0,2,,,,,,,,,1,,45,100
9600,note_on,48,0,2,,,,,,,,,1,,57,0
9600,note_on,0,0,1,,,,,,,,,0,,74,100
9600,note_on,12,0,1,,,,,,,,,0,,73,0
9612,note_on,12,0,1,,,,,,,,,0,,74,0
9612,note_on,0,0,1,,,,,,,,,0,,73,100
9624,note_on,12,0,1,,,,,,,,,0,,73,0
9624,note_on,0,0,1,,,,,,,,,0,,74,100
9648,note_on,0,0,1,,,,,,,,,0,,74,100
9648,note_on,0,0,2,,,,,,,,,1,,50,100
9648,note_on,24,0,1,,,,,,,,,0,,74,0
9648,note_on,48,0,2,,,,,,,,,1,,45,0
9672,note_on,24,0,2,,,,,,,,,1,,50,0
9672,note_on,0,0,2,,,,,,,,,1,,51,100
9696,note_on,24,0,2,,,,,,,,,1,,51,0
9696,note_on,0,0,2,,,,,,,,,1,,50,100
9720,note_on,72,0,1,,,,,,,,,0,,74,0
9720,note_on,0,0,1,,,,,,,,,0,,62,100
9720,note_on,24,0,2,,,,,,,,,1,,50,0
9720,note_on,0,0,2,,,,,,,,,1,,48,100
9744,note_on,24,0,2,,,,,,,,,1,,48,0
9744,note_on,0,0,2,,,,,,,,,1,,46,100
9744,note_on,24,0,1,,,,,,,,,0,,62,0
9744,note_on,0,0,1,,,,,,,,,0,,64,100
9768,note_on,24,0,2,,,,,,,,,1,,46,0
9768,note_on,0,0,2,,,,,,,,,1,,45,100
9768,note_on,24,0,1,,,,,,,,,0,,64,0
9768,note_on,0,0,1,,,,,,,,,0,,66,100
9792,note_on,0,0,2,,,,,,,,,1,,46,100
9792,note_on,24,0,1,,,,,,,,,0,,66,0
9792,note_on,0,0,1,,,,,,,,,0,,67,100
9792,note_on,24,0,2,,,,,,,,,1,,45,0
9816,note_on,24,0,1,,,,,,,,,0,,67,0
9816,note_on,0,0,1,,,,,,,,,0,,62,100
9840,note_on,0,0,1,,,,,,,,,0,,67,100
9840,note_on,24,0,1,,,,,,,,,0,,62,0
9840,note_on,48,0,2,,,,,,,,,1,,46,0
9840,note_on,0,0,2,,,,,,,,,1,,55,100
9864,note_on,24,0,1,,,,,,,,,0,,67,0
9864,note_on,0,0,1,,,,,,,,,0,,70,100
9888,note_on,24,0,1,,,,,,,,,0,,70,0
9888,note_on,48,0,2,,,,,,,,,1,,55,0
9888,note_on,0,0,1,,,,,,,,,0,,69,100
9888,note_on,0,0,2,,,,,,,,,1,,54,100
9912,note_on,24,0,1,,,,,,,,,0,,69,0
9912,note_on,0,0,1,,,,,,,,,0,,72,100
9936,note_on,24,0,1,,,,,,,,,0,,72,0
9936,note_on,0,0,1,,,,,,,,,0,,70,100
9936,note_on,48,0,2,,,,,,,,,1,,54,0
9936,note_on,0,0,2,,,,,,,,,1,,55,100
9960,note_on,0,0,2,,,,,,,,,1,,50,100
9960,note_on,24,0,2,,,,,,,,,1,,55,0
9984,note_on,0,0,2,,,,,,,,,1,,55,100
9984,note_on,24,0,2,,,,,,,,,1,,50,0
9984,note_on,0,0,1,,,,,,,,,0,,79,100
9984,note_on,48,0,1,,,,,,,,,0,,70,0
10008,note_on,0,0,2,,,,,,,,,1,,58,100
10008,note_on,24,0,2,,,,,,,,,1,,55,0
10032,note_on,0,0,1,,,,,,,,,0,,78,100
10032,note_on,48,0,1,,,,,,,,,0,,79,0
10032,note_on,0,0,2,,,,,,,,,1,,57,100
10032,note_on,24,0,2,,,,,,,,,1,,58,0
10056,note_on,0,0,2,,,,,,,,,1,,60,100
10056,note_on,24,0,2,,,,,,,,,1,,57,0
10080,note_on,24,0,2,,,,,,,,,1,,60,0
10080,note_on,0,0,2,,,,,,,,,1,,58,100
10080,note_on,48,0,1,,,,,,,,,0,,78,0
10080,note_on,0,0,1,,,,,,,,,0,,79,100
10104,note_on,24,0,1,,,,,,,,,0,,79,0
10104,note_on,0,0,1,,,,,,,,,0,,74,100
10128,note_on,48,0,2,,,,,,,,,1,,58,0
10128,note_on,24,0,1,,,,,,,,,0,,74,0
10128,note_on,0,0,1,,,,,,,,,0,,79,100
10128,note_on,0,0,2,,,,,,,,,1,,55,100
10152,note_on,0,0,1,,,,,,,,,0,,82,100
10152,note_on,24,0,1,,,,,,,,,0,,79,0
10176,note_on,0,0,2,,,,,,,,,1,,54,100
10176,note_on,24,0,1,,,,,,,,,0,,82,0
10176,note_on,48,0,2,,,,,,,,,1,,55,0
10176,note_on,0,0,1,,,,,,,,,0,,81,100
10200,note_on,0,0,1,,,,,,,,,0,,84,100
10200,note_on,24,0,1,,,,,,,,,0,,81,0
10224,note_on,24,0,1,,,,,,,,,0,,84,0
10224,note_on,0,0,1,,,,,,,,,0,,82,100
10224,note_on,48,0,2,,,,,,,,,1,,54,0
10224,note_on,0,0,2,,,,,,,,,1,,55,100
10248,note_on,24,0,1,,,,,,,,,0,,82,0
10248,note_on,0,0,1,,,,,,,,,0,,74,100
10272,note_on,24,0,1,,,,,,,,,0,,74,0
10272,note_on,0,0,1,,,,,,,,,0,,82,100
10272,note_on,0,0,2,,,,,,,,,1,,57,100
10272,note_on,48,0,2,,,,,,,,,1,,55,0
10296,note_on,0,0,1,,,,,,,,,0,,74,100
10296,note_on,24,0,1,,,,,,,,,0,,82,0
10320,note_on,48,0,2,,,,,,,,,1,,57,0
10320,note_on,0,0,2,,,,,,,,,1,,58,100
10320,note_on,0,0,1,,,,,,,,,0,,82,100
10320,note_on,24,0,1,,,,,,,,,0,,74,0
10344,note_on,0,0,1,,,,,,,,,0,,74,100
10344,note_on,24,0,1,,,,,,,,,0,,82,0
10368,note_on,0,0,1,,,,,,,,,0,,75,100
10368,note_on,0,0,2,,,,,,,,,1,,48,100
10368,note_on,48,0,2,,,,,,,,,1,,58,0
10368,note_on,24,0,1,,,,,,,,,0,,74,0
10392,note_on,0,0,1,,,,,,,,,0,,67,100
10392,note_on,24,0,1,,,,,,,,,0,,75,0
10416,note_on,48,0,2,,,,,,,,,1,,48,0
10416,note_on,0,0,2,,,,,,,,,1,,50,100
10416,note_on,24,0,1,,,,,,,,,0,,67,0
10416,note_on,0,0,1,,,,,,,,,0,,75,100
10440,note_on,0,0,1,,,,,,,,,0,,67,100
10440,note_on,24,0,1,,,,,,,,,0,,75,0
10464,note_on,48,0,2,,,,,,,,,1,,50,0
10464,note_on,0,0,2,,,,,,,,,1,,51,100
10464,note_on,24,0,1,,,,,,,,,0,,67,0
10464,note_on,0,0,1,,,,,,,,,0,,75,100
10488,note_on,0,0,1,,,,,,,,,0,,67,100
10488,note_on,24,0,1,,,,,,,,,0,,75,0
10512,note_on,48,0,2,,,,,,,,,1,,51,0
10512,note_on,0,0,2,,,,,,,,,1,,53,100
10512,note_on,24,0,1,,,,,,,,,0,,67,0
10512,note_on,0,0,1,,,,,,,,,0,,69,100
10536,note_on,24,0,1,,,,,,,,,0,,69,0
10536,note_on,0,0,1,,,,,,,,,0,,75,100
10560,note_on,0,0,2,,,,,,,,,1,,57,100
10560,note_on,48,0,2,,,,,,,,,1,,53,0
10560,note_on,0,0,1,,,,,,,,,0,,77,100
10560,note_on,24,0,1,,,,,,,,,0,,75,0
10584,note_on,0,0,1,,,,,,,,,0,,75,100
10584,note_on,24,0,1,,,,,,,,,0,,77,0
10608,note_on,0,0,1,,,,,,,,,0,,74,100
10608,note_on,24,0,1,,,,,,,,,0,,75,0
10608,note_on,0,0,2,,,,,,,,,1,,53,100
10608,note_on,48,0,2,,,,,,,,,1,,57,0
10632,note_on,0,0,1,,,,,,,,,0,,72,100
10632,note_on,24,0,1,,,,,,,,,0,,74,0
10656,note_on,0,0,1,,,,,,,,,0,,74,100
10656,note_on,0,0,2,,,,,,,,,1,,58,100
10656,note_on,24,0,1,,,,,,,,,0,,72,0
10656,note_on,48,0,2,,,,,,,,,1,,53,0
10680,note_on,24,0,1,,,,,,,,,0,,74,0
10680,note_on,0,0,1,,,,,,,,,0,,67,100
10704,note_on,48,0,2,,,,,,,,,1,,58,0
10704,note_on,24,0,1,,,,,,,,,0,,67,0
10704,note_on,0,0,1,,,,,,,,,0,,79,100
10704,note_on,0,0,2,,,,,,,,,1,,51,100
10728,note_on,24,0,1,,,,,,,,,0,,79,0
10728,note_on,0,0,1,,,,,,,,,0,,78,100
10752,note_on,48,0,2,,,,,,,,,1,,51,0
10752,note_on,24,0,1,,,,,,,,,0,,78,0
10752,note_on,0,0,1,,,,,,,,,0,,79,100
10752,note_on,0,0,2,,,,,,,,,1,,48,100
10776,note_on,24,0,1,,,,,,,,,0,,79,0
10776,note_on,0,0,1,,,,,,,,,0,,81,100
10800,note_on,48,0,2,,,,,,,,,1,,48,0
10800,note_on,0,0,1,,,,,,,,,0,,78,100
10800,note_on,0,0,2,,,,,,,,,1,,50,100
10800,note_on,24,0,1,,,,,,,,,0,,81,0
10824,note_on,24,0,1,,,,,,,,,0,,78,0
10824,note_on,0,0,1,,,,,,,,,0,,74,100
10848,note_on,24,0,1,,,,,,,,,0,,74,0
10848,note_on,0,0,1,,,,,,,,,0,,76,100
10848,note_on,0,0,2,,,,,,,,,1,,62,100
10848,note_on,48,0,2,,,,,,,,,1,,50,0
10872,note_on,24,0,1,,,,,,,,,0,,76,0
10872,note_on,0,0,1,,,,,,,,,0,,78,100
10896,note_on,48,0,2,,,,,,,,,1,,62,0
10896,note_on,24,0,1,,,,,,,,,0,,78,0
10896,note_on,0,0,1,,,,,,,,,0,,79,100
10896,note_on,0,0,2,,,,,,,,,1,,54,100
10920,note_on,24,0,1,,,,,,,,,0,,79,0
10920,note_on,0,0,1,,,,,,,,,0,,81,100
10944,note_on,24,0,1,,,,,,,,,0,,81,0
10944,note_on,48,0,2,,,,,,,,,1,,54,0
10944,note_on,0,0,2,,,,,,,,,1,,55,100
10944,note_on,0,0,1,,,,,,,,,0,,82,100
10968,note_on,24,0,1,,,,,,,,,0,,82,0
10968,note_on,0,0,1,,,,,,,,,0,,74,100
10992,note_on,24,0,1,,,,,,,,,0,,74,0
10992,note_on,0,0,1,,,,,,,,,0,,75,100
10992,note_on,48,0,2,,,,,,,,,1,,55,0
10992,note_on,0,0,2,,,,,,,,,1,,43,100
11016,note_on,0,0,1,,,,,,,,,0,,82,100
11016,note_on,24,0,1,,,,,,,,,0,,75,0
11040,note_on,0,0,2,,,,,,,,,1,,53,100
11040,note_on,0,0,1,,,,,,,,,0,,81,100
11040,note_on,24,0,1,,,,,,,,,0,,82,0
11040,note_on,48,0,2,,,,,,,,,1,,43,0
11064,note_on,0,0,1,,,,,,,,,0,,74,100
11064,note_on,24,0,1,,,,,,,,,0,,81,0
11088,note_on,0,0,1,,,,,,,,,0,,79,100
11088,note_on,48,0,2,,,,,,,,,1,,53,0
11088,note_on,24,0,1,,,,,,,,,0,,74,0
11088,note_on,0,0,2,,,,,,,,,1,,51,100
11112,note_on,0,0,1,,,,,,,,,0,,72,100
11112,note_on,24,0,1,,,,,,,,,0,,79,0
11136,note_on,0,0,1,,,,,,,,,0,,74,100
11136,note_on,24,0,1,,,,,,,,,0,,72,0
11160,note_on,0,0,1,,,,,,,,,0,,72,100
11160,note_on,24,0,1,,,,,,,,,0,,74,0
11184,note_on,96,0,2,,,,,,,,,1,,51,0
11184,note_on,0,0,1,,,,,,,,,0,,77,100
11184,note_on,24,0,1,,,,,,,,,0,,72,0
11184,note_on,0,0,2,,,,,,,,,1,,50,100
11208,note_on,24,0,1,,,,,,,,,0,,77,0
11208,note_on,0,0,1,,,,,,,,,0,,70,100
11232,note_on,48,0,2,,,,,,,,,1,,50,0
11232,note_on,0,0,2,,,,,,,,,1,,48,100
11232,note_on,0,0,1,,,,,,,,,0,,75,100
11232,note_on,24,0,1,,,,,,,,,0,,70,0
11256,note_on,24,0,1,,,,,,,,,0,,75,0
11256,note_on,0,0,1,,,,,,,,,0,,68,100
11280,note_on,24,0,1,,,,,,,,,0,,68,0
11280,note_on,0,0,1,,,,,,,,,0,,70,100
11304,note_on,24,0,1,,,,,,,,,0,,70,0
11304,note_on,0,0,1,,,,,,,,,0,,68,100
11328,note_on,0,0,2,,,,,,,,,1,,46,100
11328,note_on,96,0,2,,,,,,,,,1,,48,0
11328,note_on,0,0,1,,,,,,,,,0,,74,100
11328,note_on,24,0,1,,,,,,,,,0,,68,0
11352,note_on,24,0,1,,,,,,,,,0,,74,0
11352,note_on,0,0,1,,,,,,,,,0,,67,100
11376,note_on,0,0,2,,,,,,,,,1,,45,100
11376,note_on,48,0,2,,,,,,,,,1,,46,0
11376,note_on,24,0,1,,,,,,,,,0,,67,0
11376,note_on,0,0,1,,,,,,,,,0,,72,100
11400,note_on,24,0,1,,,,,,,,,0,,72,0
11400,note_on,0,0,1,,,,,,,,,0,,66,100
11424,note_on,24,0,1,,,,,,,,,0,,66,0
11424,note_on,0,0,1,,,,,,,,,0,,67,100
11448,note_on,24,0,1,,,,,,,,,0,,67,0
11448,note_on,0,0,1,,,,,,,,,0,,69,100
11472,note_on,96,0,2,,,,,,,,,1,,45,0
11472,note_on,24,0,1,,,,,,,,,0,,69,0
11472,note_on,0,0,1,,,,,,,,,0,,70,100
11472,note_on,0,0,2,,,,,,,,,1,,43,100
11496,note_on,24,0,1,,,,,,,,,0,,70,0
11496,note_on,0,0,1,,,,,,,,,0,,67,100
11520,note_on,0,0,1,,,,,,,,,0,,75,100
11520,note_on,0,0,2,,,,,,,,,1,,48,100
11520,note_on,24,0,1,,,,,,,,,0,,67,0
11520,note_on,48,0,2,,,,,,,,,1,,43,0
11544,note_on,24,0,1,,,,,,,,,0,,75,0
11544,note_on,0,0,1,,,,,,,,,0,,74,100
11568,note_on,48,0,2,,,,,,,,,1,,48,0
11568,note_on,0,0,2,,,,,,,,,1,,50,100
11568,note_on,0,0,1,,,,,,,,,0,,72,100
11568,note_on,24,0,1,,,,,,,,,0,,74,0
11592,note_on,0,0,1,,,,,,,,,0,,70,100
11592,note_on,24,0,1,,,,,,,,,0,,72,0
11616,note_on,0,0,1,,,,,,,,,0,,69,100
11616,note_on,48,0,2,,,,,,,,,1,,50,0
11616,note_on,0,0,2,,,,,,,,,1,,51,100
11616,note_on,24,0,1,,,,,,,,,0,,70,0
11640,note_on,0,0,1,,,,,,,,,0,,67,100
11640,note_on,24,0,1,,,,,,,,,0,,69,0
11664,note_on,0,0,1,,,,,,,,,0,,66,100
11664,note_on,0,0,2,,,,,,,,,1,,50,100
11664,note_on,24,0,1,,,,,,,,,0,,67,0
11664,note_on,48,0,2,,,,,,,,,1,,51,0
11688,note_on,0,0,1,,,,,,,,,0,,75,100
11688,note_on,24,0,1,,,,,,,,,0,,66,0
11712,note_on,0,0,1,,,,,,,,,0,,74,100
11712,note_on,0,0,2,,,,,,,,,1,,54,100
11712,note_on,48,0,2,,,,,,,,,1,,50,0
11712,note_on,24,0,1,,,,,,,,,0,,75,0
11736,note_on,24,0,1,,,,,,,,,0,,74,0
11736,note_on,0,0,1,,,,,,,,,0,,72,100
11760,note_on,0,0,2,,,,,,,,,1,,55,100
11760,note_on,48,0,2,,,,,,,,,1,,54,0
11760,note_on,24,0,1,,,,,,,,,0,,72,0
11760,note_on,0,0,1,,,,,,,,,0,,70,100
11784,note_on,0,0,1,,,,,,,,,0,,69,100
11784,note_on,24,0,1,,,,,,,,,0,,70,0
11808,note_on,48,0,2,,,,,,,,,1,,55,0
11808,note_on,0,0,2,,,,,,,,,1,,48,100
11808,note_on,0,0,1,,,,,,,,,0,,67,100
11808,note_on,24,0,1,,,,,,,,,0,,69,0
11832,note_on,24,0,1,,,,,,,,,0,,67,0
11832,note_on,0,0,1,,,,,,,,,0,,69,100
11856,note_on,48,0,2,,,,,,,,,1,,48,0
11856,note_on,24,0,1,,,,,,,,,0,,69,0
11856,note_on,0,0,1,,,,,,,,,0,,62,100
11856,note_on,0,0,2,,,,,,,,,1,,50,100
11904,note_on,0,0,2,,,,,,,,,1,,38,100
11904,note_on,48,0,2,,,,,,,,,1,,50,0
11904,note_on,48,0,1,,,,,,,,,0,,62,0
11904,note_on,0,0,1,,,,,,,,,0,,66,100
11952,note_on,0,0,2,,,,,,,,,1,,43,100
11952,note_on,48,0,2,,,,,,,,,1,,38,0
11952,note_on,48,0,1,,,,,,,,,0,,66,0
11952,note_on,0,0,1,,,,,,,,,0,,67,100
11976,note_on,24,0,1,,,,,,,,,0,,67,0
11976,note_on,0,0,1,,,,,,,,,0,,74,100
12000,note_on,24,0,1,,,,,,,,,0,,74,0
12000,note_on,0,0,1,,,,,,,,,0,,76,100
12024,note_on,0,0,1,,,,,,,,,0,,78,100
12024,note_on,24,0,1,,,,,,,,,0,,76,0
12048,note_on,0,0,1,,,,,,,,,0,,79,100
12048,note_on,24,0,1,,,,,,,,,0,,78,0
12072,note_on,0,0,1,,,,,,,,,0,,81,100
12072,note_on,24,0,1,,,,,,,,,0,,79,0
12096,note_on,0,0,1,,,,,,,,,0,,82,100
12096,note_on,24,0,1,,,,,,,,,0,,81,0
12096,note_on,0,0,2,,,,,,,,,1,,55,100
12096,note_on,144,0,2,,,,,,,,,1,,43,0
12120,note_on,24,0,1,,,,,,,,,0,,82,0
12120,note_on,0,0,1,,,,,,,,,0,,74,100
12144,note_on,0,0,1,,,,,,,,,0,,75,100
12144,note_on,48,0,2,,,,,,,,,1,,55,0
12144,note_on,0,0,2,,,,,,,,,1,,43,100
12144,note_on,24,0,1,,,,,,,,,0,,74,0
12168,note_on,0,0,1,,,,,,,,,0,,82,100
12168,note_on,24,0,1,,,,,,,,,0,,75,0
12192,note_on,24,0,1,,,,,,,,,0,,82,0
12192,note_on,0,0,2,,,,,,,,,1,,53,100
12192,note_on,48,0,2,,,,,,,,,1,,43,0
12192,note_on,0,0,1,,,,,,,,,0,,81,100
12216,note_on,24,0,1,,,,,,,,,0,,81,0
12216,note_on,0,0,1,,,,,,,,,0,,74,100
12240,note_on,24,0,1,,,,,,,,,0,,74,0
12240,note_on,0,0,2,,,,,,,,,1,,51,100
12240,note_on,48,0,2,,,,,,,,,1,,53,0
12240,note_on,0,0,1,,,,,,,,,0,,79,100
12264,note_on,24,0,1,,,,,,,,,0,,79,0
12264,note_on,0,0,1,,,,,,,,,0,,72,100
12288,note_on,0,0,1,,,,,,,,,0,,74,100
12288,note_on,24,0,1,,,,,,,,,0,,72,0
12312,note_on,0,0,1,,,,,,,,,0,,72,100
12312,note_on,24,0,1,,,,,,,,,0,,74,0
12336,note_on,0,0,1,,,,,,,,,0,,77,100
12336,note_on,96,0,2,,,,,,,,,1,,51,0
12336,note_on,0,0,2,,,,,,,,,1,,50,100
12336,note_on,24,0,1,,,,,,,,,0,,72,0
12360,note_on,24,0,1,,,,,,,,,0,,77,0
12360,note_on,0,0,1,,,,,,,,,0,,70,100
12384,note_on,48,0,2,,,,,,,,,1,,50,0
12384,note_on,0,0,1,,,,,,,,,0,,75,100
12384,note_on,24,0,1,,,,,,,,,0,,70,0
12384,note_on,0,0,2,,,,,,,,,1,,48,100
12408,note_on,0,0,1,,,,,,,,,0,,68,100
12408,note_on,24,0,1,,,,,,,,,0,,75,0
12432,note_on,24,0,1,,,,,,,,,0,,68,0
12432,note_on,0,0,1,,,,,,,,,0,,70,100
12456,note_on,0,0,1,,,,,,,,,0,,68,100
12456,note_on,24,0,1,,,,,,,,,0,,70,0
12480,note_on,24,0,1,,,,,,,,,0,,68,0
12480,note_on,0,0,1,,,,,,,,,0,,74,100
12480,note_on,0,0,2,,,,,,,,,1,,46,100
12480,note_on,96,0,2,,,,,,,,,1,,48,0
12504,note_on,0,0,1,,,,,,,,,0,,67,100
12504,note_on,24,0,1,,,,,,,,,0,,74,0
12528,note_on,0,0,2,,,,,,,,,1,,45,100
12528,note_on,48,0,2,,,,,,,,,1,,46,0
12528,note_on,0,0,1,,,,,,,,,0,,72,100
12528,note_on,24,0,1,,,,,,,,,0,,67,0
12552,note_on,0,0,1,,,,,,,,,0,,66,100
12552,note_on,24,0,1,,,,,,,,,0,,72,0
12576,note_on,0,0,1,,,,,,,,,0,,67,100
12576,note_on,24,0,1,,,,,,,,,0,,66,0
12600,note_on,0,0,1,,,,,,,,,0,,69,100
12600,note_on,24,0,1,,,,,,,,,0,,67,0
12624,note_on,24,0,1,,,,,,,,,0,,69,0
12624,note_on,96,0,2,,,,,,,,,1,,45,0
12624,note_on,0,0,2,,,,,,,,,1,,43,100
12624,note_on,0,0,1,,,,,,,,,0,,70,100
12648,note_on,24,0,1,,,,,,,,,0,,70,0
12648,note_on,0,0,1,,,,,,,,,0,,67,100
12672,note_on,24,0,1,,,,,,,,,0,,67,0
12672,note_on,0,0,1,,,,,,,,,0,,75,100
12672,note_on,0,0,2,,,,,,,,,1,,48,100
12672,note_on,48,0,2,,,,,,,,,1,,43,0
12696,note_on,24,0,1,,,,,,,,,0,,75,0
12696,note_on,0,0,1,,,,,,,,,0,,74,100
12720,note_on,24,0,1,,,,,,,,,0,,74,0
12720,note_on,0,0,1,,,,,,,,,0,,72,100
12720,note_on,0,0,2,,,,,,,,,1,,50,100
12720,note_on,48,0,2,,,,,,,,,1,,48,0
12744,note_on,24,0,1,,,,,,,,,0,,72,0
12744,note_on,0,0,1,,,,,,,,,0,,70,100
12768,note_on,0,0,2,,,,,,,,,1,,51,100
12768,note_on,48,0,2,,,,,,,,,1,,50,0
12768,note_on,24,0,1,,,,,,,,,0,,70,0
12768,note_on,0,0,1,,,,,,,,,0,,69,100
12792,note_on,24,0,1,,,,,,,,,0,,69,0
12792,note_on,0,0,1,,,,,,,,,0,,67,100
12816,note_on,48,0,2,,,,,,,,,1,,51,0
12816,note_on,0,0,1,,,,,,,,,0,,78,100
12816,note_on,0,0,2,,,,,,,,,1,,50,100
12816,note_on,24,0,1,,,,,,,,,0,,67,0
12840,note_on,24,0,1,,,,,,,,,0,,78,0
12840,note_on,0,0,1,,,,,,,,,0,,74,100
12864,note_on,24,0,1,,,,,,,,,0,,74,0
12864,note_on,0,0,1,,,,,,,,,0,,76,100
12864,note_on,48,0,2,,,,,,,,,1,,50,0
12864,note_on,0,0,2,,,,,,,,,1,,48,100
12888,note_on,24,0,1,,,,,,,,,0,,76,0
12888,note_on,0,0,1,,,,,,,,,0,,78,100
12912,note_on,24,0,1,,,,,,,,,0,,78,0
12912,note_on,0,0,1,,,,,,,,,0,,79,100
12912,note_on,48,0,2,,,,,,,,,1,,48,0
12912,note_on,0,0,2,,,,,,,,,1,,46,100
12936,note_on,0,0,1,,,,,,,,,0,,74,100
12936,note_on,24,0,1,,,,,,,,,0,,79,0
12960,note_on,24,0,1,,,,,,,,,0,,74,0
12960,note_on,0,0,1,,,,,,,,,0,,75,100
12960,note_on,0,0,2,,,,,,,,,1,,48,100
12960,note_on,48,0,2,,,,,,,,,1,,46,0
12984,note_on,24,0,1,,,,,,,,,0,,75,0
12984,note_on,0,0,1,,,,,,,,,0,,69,100
13008,note_on,48,0,2,,,,,,,,,1,,48,0
13008,note_on,0,0,2,,,,,,,,,1,,50,100
13008,note_on,0,0,1,,,,,,,,,0,,70,100
13008,note_on,24,0,1,,,,,,,,,0,,69,0
13056,note_on,0,0,1,,,,,,,,,0,,69,100
13056,note_on,48,0,1,,,,,,,,,0,,70,0
13056,note_on,48,0,2,,,,,,,,,1,,50,0
13056,note_on,0,0,2,,,,,,,,,1,,38,100
13080,note_on,0,0,1,,,,,,,,,0,,67,100
13080,note_on,24,0,1,,,,,,,,,0,,69,0
13104,note_on,24,0,1,,,,,,,,,0,,67,0
13104,note_on,0,0,1,,,,,,,,,0,,62,100
13104,note_on,0,0,1,,,,,,,,,0,,58,100
13104,note_on,48,0,2,,,,,,,,,1,,38,0
13104,note_on,0,0,2,,,,,,,,,1,,43,100
13104,note_on,0,0,1,,,,,,,,,0,,67,100
13128,note_on,24,0,2,,,,,,,,,1,,43,0
13128,note_on,0,0,2,,,,,,,,,1,,55,100
13152,note_on,24,0,2,,,,,,,,,1,,55,0
13152,note_on,0,0,2,,,,,,,,,1,,53,100
13176,note_on,0,0,2,,,,,,,,,1,,51,100
13176,note_on,24,0,2,,,,,,,,,1,,53,0
13200,note_on,0,0,2,,,,,,,,,1,,50,100
13200,note_on,24,0,2,,,,,,,,,1,,51,0
13224,note_on,0,0,2,,,,,,,,,1,,48,100
13224,note_on,24,0,2,,,,,,,,,1,,50,0
13248,note_on,0,0,1,,,,,,,,,0,,67,0
13248,note_on,0,0,2,,,,,,,,,1,,46,100
13248,note_on,24,0,2,,,,,,,,,1,,48,0
13248,note_on,144,0,1,,,,,,,,,0,,58,0
13248,note_on,0,0,1,,,,,,,,,0,,62,0
13248,note_on,0,0,1,,,,,,,,,0,,70,100
13272,note_on,24,0,1,,,,,,,,,0,,70,0
13272,note_on,0,0,1,,,,,,,,,0,,65,100
13296,note_on,0,0,1,,,,,,,,,0,,70,100
13296,note_on,24,0,1,,,,,,,,,0,,65,0
13320,note_on,24,0,1,,,,,,,,,0,,70,0
13320,note_on,0,0,1,,,,,,,,,0,,74,100
13344,note_on,0,0,1,,,,,,,,,0,,72,100
13344,note_on,96,0,2,,,,,,,,,1,,46,0
13344,note_on,24,0,1,,,,,,,,,0,,74,0
13368,note_on,24,0,1,,,,,,,,,0,,72,0
13368,note_on,0,0,1,,,,,,,,,0,,75,100
13392,note_on,24,0,1,,,,,,,,,0,,75,0
13392,note_on,0,0,1,,,,,,,,,0,,74,100
13392,note_on,48,0,2,,,,,,,,,1,,58,100
13416,note_on,0,0,2,,,,,,,,,1,,53,100
13416,note_on,24,0,2,,,,,,,,,1,,58,0
13440,note_on,0,0,1,,,,,,,,,0,,70,100
13440,note_on,0,0,2,,,,,,,,,1,,58,100
13440,note_on,24,0,2,,,,,,,,,1,,53,0
13440,note_on,48,0,1,,,,,,,,,0,,74,0
13464,note_on,0,0,2,,,,,,,,,1,,62,100
13464,note_on,24,0,2,,,,,,,,,1,,58,0
13488,note_on,48,0,1,,,,,,,,,0,,70,0
13488,note_on,0,0,2,,,,,,,,,1,,60,100
13488,note_on,24,0,2,,,,,,,,,1,,62,0
13488,note_on,0,0,1,,,,,,,,,0,,69,100
13512,note_on,0,0,2,,,,,,,,,1,,63,100
13512,note_on,24,0,2,,,,,,,,,1,,60,0
13536,note_on,24,0,2,,,,,,,,,1,,63,0
13536,note_on,0,0,1,,,,,,,,,0,,70,100
13536,note_on,48,0,1,,,,,,,,,0,,69,0
13536,note_on,0,0,2,,,,,,,,,1,,62,100
13560,note_on,0,0,1,,,,,,,,,0,,65,100
13560,note_on,24,0,1,,,,,,,,,0,,70,0
13584,note_on,24,0,1,,,,,,,,,0,,65,0
13584,note_on,0,0,2,,,,,,,,,1,,50,100
13584,note_on,0,0,1,,,,,,,,,0,,70,100
13584,note_on,48,0,2,,,,,,,,,1,,62,0
13608,note_on,0,0,1,,,,,,,,,0,,74,100
13608,note_on,24,0,1,,,,,,,,,0,,70,0
13632,note_on,0,0,1,,,,,,,,,0,,72,100
13632,note_on,24,0,1,,,,,,,,,0,,74,0
13632,note_on,0,0,2,,,,,,,,,1,,51,100
13632,note_on,48,0,2,,,,,,,,,1,,50,0
13656,note_on,0,0,1,,,,,,,,,0,,70,100
13656,note_on,24,0,1,,,,,,,,,0,,72,0
13680,note_on,0,0,1,,,,,,,,,0,,69,100
13680,note_on,24,0,1,,,,,,,,,0,,70,0
13680,note_on,48,0,2,,,,,,,,,1,,51,0
13680,note_on,0,0,2,,,,,,,,,1,,53,100
13704,note_on,24,0,1,,,,,,,,,0,,69,0
13704,note_on,0,0,1,,,,,,,,,0,,67,100
13728,note_on,24,0,1,,,,,,,,,0,,67,0
13728,note_on,0,0,1,,,,,,,,,0,,65,100
13752,note_on,0,0,2,,,,,,,,,1,,53,100
13752,note_on,72,0,2,,,,,,,,,1,,53,0
13776,note_on,0,0,2,,,,,,,,,1,,51,100
13776,note_on,24,0,2,,,,,,,,,1,,53,0
13800,note_on,0,0,2,,,,,,,,,1,,50,100
13800,note_on,24,0,2,,,,,,,,,1,,51,0
13824,note_on,24,0,2,,,,,,,,,1,,50,0
13824,note_on,0,0,2,,,,,,,,,1,,51,100
13824,note_on,0,0,1,,,,,,,,,0,,72,100
13824,note_on,96,0,1,,,,,,,,,0,,65,0
13848,note_on,24,0,1,,,,,,,,,0,,72,0
13848,note_on,0,0,1,,,,,,,,,0,,67,100
13872,note_on,48,0,2,,,,,,,,,1,,51,0
13872,note_on,24,0,1,,,,,,,,,0,,67,0
13872,note_on,0,0,1,,,,,,,,,0,,72,100
13872,note_on,0,0,2,,,,,,,,,1,,60,100
13896,note_on,24,0,1,,,,,,,,,0,,72,0
13896,note_on,0,0,1,,,,,,,,,0,,75,100
13920,note_on,0,0,1,,,,,,,,,0,,74,100
13920,note_on,24,0,1,,,,,,,,,0,,75,0
13920,note_on,48,0,2,,,,,,,,,1,,60,0
13920,note_on,0,0,2,,,,,,,,,1,,59,100
13944,note_on,0,0,1,,,,,,,,,0,,77,100
13944,note_on,24,0,1,,,,,,,,,0,,74,0
13968,note_on,0,0,2,,,,,,,,,1,,60,100
13968,note_on,24,0,1,,,,,,,,,0,,77,0
13968,note_on,0,0,1,,,,,,,,,0,,75,100
13968,note_on,48,0,2,,,,,,,,,1,,59,0
13992,note_on,0,0,1,,,,,,,,,0,,72,100
13992,note_on,24,0,1,,,,,,,,,0,,75,0
14016,note_on,0,0,1,,,,,,,,,0,,75,100
14016,note_on,24,0,1,,,,,,,,,0,,72,0
14016,note_on,48,0,2,,,,,,,,,1,,60,0
14016,note_on,0,0,2,,,,,,,,,1,,48,100
14040,note_on,0,0,1,,,,,,,,,0,,79,100
14040,note_on,24,0,1,,,,,,,,,0,,75,0
14064,note_on,0,0,1,,,,,,,,,0,,71,100
14064,note_on,0,0,2,,,,,,,,,1,,50,100
14064,note_on,48,0,2,,,,,,,,,1,,48,0
14064,note_on,24,0,1,,,,,,,,,0,,79,0
14088,note_on,24,0,1,,,,,,,,,0,,71,0
14088,note_on,0,0,1,,,,,,,,,0,,74,100
14112,note_on,0,0,1,,,,,,,,,0,,72,100
14112,note_on,24,0,1,,,,,,,,,0,,74,0
14112,note_on,48,0,2,,,,,,,,,1,,50,0
14112,note_on,0,0,2,,,,,,,,,1,,51,100
14136,note_on,24,0,1,,,,,,,,,0,,72,0
14136,note_on,0,0,1,,,,,,,,,0,,67,100
14160,note_on,0,0,1,,,,,,,,,0,,72,100
14160,note_on,24,0,1,,,,,,,,,0,,67,0
14160,note_on,48,0,2,,,,,,,,,1,,51,0
14160,note_on,0,0,2,,,,,,,,,1,,56,100
14184,note_on,0,0,1,,,,,,,,,0,,75,100
14184,note_on,24,0,1,,,,,,,,,0,,72,0
14208,note_on,48,0,2,,,,,,,,,1,,56,0
14208,note_on,0,0,2,,,,,,,,,1,,53,100
14208,note_on,0,0,1,,,,,,,,,0,,74,100
14208,note_on,24,0,1,,,,,,,,,0,,75,0
14232,note_on,24,0,1,,,,,,,,,0,,74,0
14232,note_on,0,0,1,,,,,,,,,0,,72,100
14256,note_on,48,0,2,,,,,,,,,1,,53,0
14256,note_on,24,0,1,,,,,,,,,0,,72,0
14256,note_on,0,0,1,,,,,,,,,0,,71,100
14256,note_on,0,0,2,,,,,,,,,1,,55,100
14280,note_on,0,0,1,,,,,,,,,0,,69,100
14280,note_on,24,0,1,,,,,,,,,0,,71,0
14304,note_on,24,0,1,,,,,,,,,0,,69,0
14304,note_on,0,0,1,,,,,,,,,0,,67,100
14328,note_on,0,0,2,,,,,,,,,1,,53,100
14328,note_on,72,0,2,,,,,,,,,1,,55,0
14352,note_on,0,0,2,,,,,,,,,1,,51,100
14352,note_on,24,0,2,,,,,,,,,1,,53,0
14376,note_on,0,0,2,,,,,,,,,1,,50,100
14376,note_on,24,0,2,,,,,,,,,1,,51,0
14400,note_on,24,0,2,,,,,,,,,1,,50,0
14400,note_on,0,0,2,,,,,,,,,1,,51,100
14400,note_on,0,0,1,,,,,,,,,0,,79,100
14400,note_on,96,0,1,,,,,,,,,0,,67,0
14424,note_on,24,0,1,,,,,,,,,0,,79,0
14424,note_on,0,0,1,,,,,,,,,0,,72,100
14448,note_on,24,0,1,,,,,,,,,0,,72,0
14448,note_on,0,0,1,,,,,,,,,0,,71,100
14448,note_on,48,0,2,,,,,,,,,1,,51,0
14448,note_on,0,0,2,,,,,,,,,1,,60,100
14472,note_on,24,0,1,,,,,,,,,0,,71,0
14472,note_on,0,0,1,,,,,,,,,0,,72,100
14496,note_on,48,0,2,,,,,,,,,1,,60,0
14496,note_on,0,0,2,,,,,,,,,1,,53,100
14496,note_on,0,0,1,,,,,,,,,0,,80,100
14496,note_on,24,0,1,,,,,,,,,0,,72,0
14520,note_on,24,0,1,,,,,,,,,0,,80,0
14520,note_on,0,0,1,,,,,,,,,0,,72,100
14544,note_on,24,0,1,,,,,,,,,0,,72,0
14544,note_on,48,0,2,,,,,,,,,1,,53,0
14544,note_on,0,0,2,,,,,,,,,1,,51,100
14544,note_on,0,0,1,,,,,,,,,0,,79,100
14568,note_on,0,0,1,,,,,,,,,0,,72,100
14568,note_on,24,0,1,,,,,,,,,0,,79,0
14592,note_on,24,0,1,,,,,,,,,0,,72,0
14592,note_on,0,0,1,,,,,,,,,0,,71,100
14616,note_on,24,0,1,,,,,,,,,0,,71,0
14616,note_on,0,0,1,,,,,,,,,0,,72,100
14640,note_on,24,0,1,,,,,,,,,0,,72,0
14640,note_on,0,0,1,,,,,,,,,0,,68,100
14640,note_on,0,0,2,,,,,,,,,1,,53,100
14640,note_on,96,0,2,,,,,,,,,1,,51,0
14664,note_on,24,0,1,,,,,,,,,0,,68,0
14664,note_on,0,0,1,,,,,,,,,0,,72,100
14688,note_on,24,0,1,,,,,,,,,0,,72,0
14688,note_on,0,0,2,,,,,,,,,1,,51,100
14688,note_on,48,0,2,,,,,,,,,1,,53,0
14688,note_on,0,0,1,,,,,,,,,0,,67,100
14712,note_on,24,0,1,,,,,,,,,0,,67,0
14712,note_on,0,0,1,,,,,,,,,0,,72,100
14736,note_on,0,0,1,,,,,,,,,0,,71,100
14736,note_on,24,0,1,,,,,,,,,0,,72,0
14760,note_on,0,0,1,,,,,,,,,0,,72,100
14760,note_on,24,0,1,,,,,,,,,0,,71,0
14784,note_on,24,0,1,,,,,,,,,0,,72,0
14784,note_on,96,0,2,,,,,,,,,1,,51,0
14784,note_on,0,0,1,,,,,,,,,0,,65,100
14784,note_on,0,0,2,,,,,,,,,1,,50,100
14808,note_on,0,0,1,,,,,,,,,0,,72,100
14808,note_on,24,0,1,,,,,,,,,0,,65,0
14832,note_on,0,0,2,,,,,,,,,1,,48,100
14832,note_on,48,0,2,,,,,,,,,1,,50,0
14832,note_on,24,0,1,,,,,,,,,0,,72,0
14832,note_on,0,0,1,,,,,,,,,0,,63,100
14856,note_on,0,0,1,,,,,,,,,0,,72,100
14856,note_on,24,0,1,,,,,,,,,0,,63,0
14880,note_on,0,0,2,,,,,,,,,1,,50,100
14880,note_on,48,0,2,,,,,,,,,1,,48,0
14880,note_on,0,0,1,,,,,,,,,0,,65,100
14880,note_on,24,0,1,,,,,,,,,0,,72,0
14904,note_on,24,0,1,,,,,,,,,0,,65,0
14904,note_on,0,0,1,,,,,,,,,0,,72,100
14928,note_on,0,0,2,,,,,,,,,1,,51,100
14928,note_on,48,0,2,,,,,,,,,1,,50,0
14928,note_on,24,0,1,,,,,,,,,0,,72,0
14928,note_on,0,0,1,,,,,,,,,0,,67,100
14952,note_on,24,0,1,,,,,,,,,0,,67,0
14952,note_on,0,0,1,,,,,,,,,0,,72,100
14976,note_on,0,0,1,,,,,,,,,0,,68,100
14976,note_on,24,0,1,,,,,,,,,0,,72,0
14976,note_on,48,0,2,,,,,,,,,1,,51,0
14976,note_on,0,0,2,,,,,,,,,1,,53,100
15000,note_on,0,0,1,,,,,,,,,0,,72,100
15000,note_on,24,0,1,,,,,,,,,0,,68,0
15024,note_on,0,0,1,,,,,,,,,0,,65,100
15024,note_on,24,0,1,,,,,,,,,0,,72,0
15024,note_on,0,0,2,,,,,,,,,1,,56,100
15024,note_on,48,0,2,,,,,,,,,1,,53,0
15048,note_on,24,0,1,,,,,,,,,0,,65,0
15048,note_on,0,0,1,,,,,,,,,0,,74,100
15072,note_on,48,0,2,,,,,,,,,1,,56,0
15072,note_on,0,0,2,,,,,,,,,1,,53,100
15072,note_on,24,0,1,,,,,,,,,0,,74,0
15072,note_on,0,0,1,,,,,,,,,0,,72,100
15096,note_on,24,0,1,,,,,,,,,0,,72,0
15096,note_on,0,0,1,,,,,,,,,0,,74,100
15120,note_on,0,0,2,,,,,,,,,1,,55,100
15120,note_on,24,0,1,,,,,,,,,0,,74,0
15120,note_on,0,0,1,,,,,,,,,0,,71,100
15120,note_on,48,0,2,,,,,,,,,1,,53,0
15144,note_on,24,0,1,,,,,,,,,0,,71,0
15144,note_on,0,0,1,,,,,,,,,0,,80,100
15168,note_on,24,0,1,,,,,,,,,0,,80,0
15168,note_on,0,0,1,,,,,,,,,0,,79,100
15168,note_on,0,0,2,,,,,,,,,1,,59,100
15168,note_on,48,0,2,,,,,,,,,1,,55,0
15192,note_on,24,0,1,,,,,,,,,0,,79,0
15192,note_on,0,0,1,,,,,,,,,0,,77,100
15216,note_on,24,0,1,,,,,,,,,0,,77,0
15216,note_on,0,0,1,,,,,,,,,0,,75,100
15216,note_on,0,0,2,,,,,,,,,1,,60,100
15216,note_on,48,0,2,,,,,,,,,1,,59,0
15240,note_on,24,0,1,,,,,,,,,0,,75,0
15240,note_on,0,0,1,,,,,,,,,0,,74,100
15264,note_on,48,0,2,,,,,,,,,1,,60,0
15264,note_on,0,0,2,,,,,,,,,1,,53,100
15264,note_on,24,0,1,,,,,,,,,0,,74,0
15264,note_on,0,0,1,,,,,,,,,0,,72,100
15288,note_on,24,0,1,,,,,,,,,0,,72,0
15288,note_on,0,0,1,,,,,,,,,0,,74,100
15312,note_on,0,0,1,,,,,,,,,0,,67,100
15312,note_on,0,0,2,,,,,,,,,1,,55,100
15312,note_on,48,0,2,,,,,,,,,1,,53,0
15312,note_on,24,0,1,,,,,,,,,0,,74,0
15360,note_on,0,0,2,,,,,,,,,1,,43,100
15360,note_on,48,0,2,,,,,,,,,1,,55,0
15360,note_on,0,0,1,,,,,,,,,0,,72,100
15360,note_on,48,0,1,,,,,,,,,0,,67,0
15372,note_on,0,0,1,,,,,,,,,0,,71,100
15372,note_on,12,0,1,,,,,,,,,0,,72,0
15384,note_on,0,0,1,,,,,,,,,0,,72,100
15384,note_on,12,0,1,,,,,,,,,0,,71,0
15396,note_on,12,0,1,,,,,,,,,0,,72,0
15396,note_on,0,0,1,,,,,,,,,0,,71,100
15408,note_on,12,0,1,,,,,,,,,0,,71,0
15408,note_on,0,0,1,,,,,,,,,0,,72,100
15408,note_on,48,0,2,,,,,,,,,1,,43,0
15408,note_on,0,0,2,,,,,,,,,1,,48,100
15456,note_on,48,0,2,,,,,,,,,1,,48,0
15456,note_on,0,0,2,,,,,,,,,1,,60,100
15480,note_on,0,0,1,,,,,,,,,0,,77,100
15480,note_on,72,0,1,,,,,,,,,0,,72,0
15504,note_on,48,0,2,,,,,,,,,1,,60,0
15504,note_on,0,0,1,,,,,,,,,0,,76,100
15504,note_on,24,0,1,,,,,,,,,0,,77,0
15504,note_on,0,0,2,,,,,,,,,1,,58,100
15528,note_on,24,0,1,,,,,,,,,0,,76,0
15528,note_on,0,0,1,,,,,,,,,0,,74,100
15552,note_on,48,0,2,,,,,,,,,1,,58,0
15552,note_on,0,0,2,,,,,,,,,1,,57,100
15552,note_on,0,0,1,,,,,,,,,0,,73,100
15552,note_on,24,0,1,,,,,,,,,0,,74,0
15576,note_on,0,0,1,,,,,,,,,0,,82,100
15576,note_on,24,0,1,,,,,,,,,0,,73,0
15600,note_on,0,0,1,,,,,,,,,0,,81,100
15600,note_on,48,0,2,,,,,,,,,1,,57,0
15600,note_on,0,0,2,,,,,,,,,1,,49,100
15600,note_on,24,0,1,,,,,,,,,0,,82,0
15624,note_on,0,0,1,,,,,,,,,0,,79,100
15624,note_on,24,0,1,,,,,,,,,0,,81,0
15648,note_on,24,0,1,,,,,,,,,0,,79,0
15648,note_on,0,0,2,,,,,,,,,1,,45,100
15648,note_on,48,0,2,,,,,,,,,1,,49,0
15648,note_on,0,0,1,,,,,,,,,0,,77,100
15672,note_on,0,0,1,,,,,,,,,0,,76,100
15672,note_on,24,0,1,,,,,,,,,0,,77,0
15696,note_on,24,0,1,,,,,,,,,0,,76,0
15696,note_on,0,0,1,,,,,,,,,0,,77,100
15696,note_on,48,0,2,,,,,,,,,1,,45,0
15696,note_on,0,0,2,,,,,,,,,1,,50,100
15720,note_on,24,0,1,,,,,,,,,0,,77,0
15720,note_on,0,0,1,,,,,,,,,0,,69,100
15744,note_on,0,0,2,,,,,,,,,1,,52,100
15744,note_on,24,0,1,,,,,,,,,0,,69,0
15744,note_on,0,0,1,,,,,,,,,0,,67,100
15744,note_on,48,0,2,,,,,,,,,1,,50,0
15768,note_on,24,0,1,,,,,,,,,0,,67,0
15768,note_on,0,0,1,,,,,,,,,0,,69,100
15792,note_on,0,0,1,,,,,,,,,0,,65,100
15792,note_on,24,0,1,,,,,,,,,0,,69,0
15792,note_on,48,0,2,,,,,,,,,1,,52,0
15792,note_on,0,0,2,,,,,,,,,1,,53,100
15816,note_on,24,0,1,,,,,,,,,0,,65,0
15816,note_on,0,0,1,,,,,,,,,0,,74,100
15840,note_on,48,0,2,,,,,,,,,1,,53,0
15840,note_on,0,0,2,,,,,,,,,1,,55,100
15840,note_on,24,0,1,,,,,,,,,0,,74,0
15840,note_on,0,0,1,,,,,,,,,0,,64,100
15864,note_on,24,0,1,,,,,,,,,0,,64,0
15864,note_on,0,0,1,,,,,,,,,0,,74,100
15888,note_on,24,0,1,,,,,,,,,0,,74,0
15888,note_on,0,0,2,,,,,,,,,1,,57,100
15888,note_on,48,0,2,,,,,,,,,1,,55,0
15888,note_on,0,0,1,,,,,,,,,0,,74,100
15900,note_on,12,0,1,,,,,,,,,0,,74,0
15900,note_on,0,0,1,,,,,,,,,0,,73,100
15912,note_on,12,0,1,,,,,,,,,0,,73,0
15912,note_on,0,0,1,,,,,,,,,0,,74,100
15924,note_on,12,0,1,,,,,,,,,0,,74,0
15924,note_on,0,0,1,,,,,,,,,0,,73,100
15936,note_on,48,0,2,,,,,,,,,1,,57,0
15936,note_on,12,0,1,,,,,,,,,0,,73,0
15936,note_on,0,0,2,,,,,,,,,1,,45,100
15936,note_on,0,0,1,,,,,,,,,0,,74,100
15948,note_on,12,0,1,,,,,,,,,0,,74,0
15948,note_on,0,0,1,,,,,,,,,0,,73,100
15960,note_on,0,0,1,,,,,,,,,0,,74,100
15960,note_on,12,0,1,,,,,,,,,0,,73,0
15984,note_on,0,0,1,,,,,,,,,0,,74,100
15984,note_on,24,0,1,,,,,,,,,0,,74,0
15984,note_on,48,0,2,,,,,,,,,1,,45,0
15984,note_on,0,0,2,,,,,,,,,1,,50,100
16008,note_on,24,0,2,,,,,,,,,1,,50,0
16008,note_on,0,0,2,,,,,,,,,1,,51,100
16032,note_on,24,0,2,,,,,,,,,1,,51,0
16032,note_on,0,0,2,,,,,,,,,1,,50,100
16056,note_on,0,0,2,,,,,,,,,1,,48,100
16056,note_on,0,0,1,,,,,,,,,0,,62,100
16056,note_on,24,0,2,,,,,,,,,1,,50,0
16056,note_on,72,0,1,,,,,,,,,0,,74,0
16080,note_on,24,0,1,,,,,,,,,0,,62,0
16080,note_on,0,0,1,,,,,,,,,0,,64,100
16080,note_on,0,0,2,,,,,,,,,1,,46,100
16080,note_on,24,0,2,,,,,,,,,1,,48,0
16104,note_on,24,0,2,,,,,,,,,1,,46,0
16104,note_on,0,0,2,,,,,,,,,1,,45,100
16104,note_on,24,0,1,,,,,,,,,0,,64,0
16104,note_on,0,0,1,,,,,,,,,0,,66,100
16128,note_on,0,0,1,,,,,,,,,0,,67,100
16128,note_on,24,0,2,,,,,,,,,1,,45,0
16128,note_on,24,0,1,,,,,,,,,0,,66,0
16128,note_on,0,0,2,,,,,,,,,1,,46,100
16152,note_on,0,0,1,,,,,,,,,0,,62,100
16152,note_on,24,0,1,,,,,,,,,0,,67,0
16176,note_on,48,0,2,,,,,,,,,1,,46,0
16176,note_on,0,0,1,,,,,,,,,0,,67,100
16176,note_on,24,0,1,,,,,,,,,0,,62,0
16176,note_on,0,0,2,,,,,,,,,1,,55,100
16200,note_on,24,0,1,,,,,,,,,0,,67,0
16200,note_on,0,0,1,,,,,,,,,0,,70,100
16224,note_on,24,0,1,,,,,,,,,0,,70,0
16224,note_on,0,0,1,,,,,,,,,0,,69,100
16224,note_on,0,0,2,,,,,,,,,1,,54,100
16224,note_on,48,0,2,,,,,,,,,1,,55,0
16248,note_on,24,0,1,,,,,,,,,0,,69,0
16248,note_on,0,0,1,,,,,,,,,0,,72,100
16272,note_on,0,0,1,,,,,,,,,0,,70,100
16272,note_on,0,0,2,,,,,,,,,1,,55,100
16272,note_on,48,0,2,,,,,,,,,1,,54,0
16272,note_on,24,0,1,,,,,,,,,0,,72,0
16296,note_on,24,0,2,,,,,,,,,1,,55,0
16296,note_on,0,0,2,,,,,,,,,1,,50,100
16320,note_on,24,0,2,,,,,,,,,1,,50,0
16320,note_on,0,0,2,,,,,,,,,1,,55,100
16320,note_on,48,0,1,,,,,,,,,0,,70,0
16320,note_on,0,0,1,,,,,,,,,0,,79,100
16344,note_on,24,0,2,,,,,,,,,1,,55,0
16344,note_on,0,0,2,,,,,,,,,1,,58,100
16368,note_on,0,0,1,,,,,,,,,0,,78,100
16368,note_on,48,0,1,,,,,,,,,0,,79,0
16368,note_on,0,0,2,,,,,,,,,1,,57,100
16368,note_on,24,0,2,,,,,,,,,1,,58,0
16392,note_on,24,0,2,,,,,,,,,1,,57,0
16392,note_on,0,0,2,,,,,,,,,1,,60,100
16416,note_on,48,0,1,,,,,,,,,0,,78,0
16416,note_on,0,0,1,,,,,,,,,0,,79,100
16416,note_on,24,0,2,,,,,,,,,1,,60,0
16416,note_on,0,0,2,,,,,,,,,1,,58,100
16440,note_on,24,0,1,,,,,,,,,0,,79,0
16440,note_on,0,0,1,,,,,,,,,0,,74,100
16464,note_on,48,0,2,,,,,,,,,1,,58,0
16464,note_on,0,0,2,,,,,,,,,1,,55,100
16464,note_on,24,0,1,,,,,,,,,0,,74,0
16464,note_on,0,0,1,,,,,,,,,0,,79,100
16488,note_on,24,0,1,,,,,,,,,0,,79,0
16488,note_on,0,0,1,,,,,,,,,0,,82,100
16512,note_on,48,0,2,,,,,,,,,1,,55,0
16512,note_on,0,0,2,,,,,,,,,1,,54,100
16512,note_on,0,0,1,,,,,,,,,0,,81,100
16512,note_on,24,0,1,,,,,,,,,0,,82,0
16536,note_on,0,0,1,,,,,,,,,0,,84,100
16536,note_on,24,0,1,,,,,,,,,0,,81,0
16560,note_on,0,0,1,,,,,,,,,0,,82,100
16560,note_on,24,0,1,,,,,,,,,0,,84,0
16560,note_on,48,0,2,,,,,,,,,1,,54,0
16560,note_on,0,0,2,,,,,,,,,1,,55,100
16584,note_on,0,0,1,,,,,,,,,0,,74,100
16584,note_on,24,0,1,,,,,,,,,0,,82,0
16608,note_on,0,0,2,,,,,,,,,1,,57,100
16608,note_on,48,0,2,,,,,,,,,1,,55,0
16608,note_on,0,0,1,,,,,,,,,0,,82,100
16608,note_on,24,0,1,,,,,,,,,0,,74,0
16632,note_on,0,0,1,,,,,,,,,0,,74,100
16632,note_on,24,0,1,,,,,,,,,0,,82,0
16656,note_on,0,0,1,,,,,,,,,0,,82,100
16656,note_on,24,0,1,,,,,,,,,0,,74,0
16656,note_on,48,0,2,,,,,,,,,1,,57,0
16656,note_on,0,0,2,,,,,,,,,1,,58,100
16680,note_on,24,0,1,,,,,,,,,0,,82,0
16680,note_on,0,0,1,,,,,,,,,0,,74,100
16704,note_on,0,0,1,,,,,,,,,0,,75,100
16704,note_on,24,0,1,,,,,,,,,0,,74,0
16704,note_on,0,0,2,,,,,,,,,1,,48,100
16704,note_on,48,0,2,,,,,,,,,1,,58,0
16728,note_on,24,0,1,,,,,,,,,0,,75,0
16728,note_on,0,0,1,,,,,,,,,0,,67,100
16752,note_on,48,0,2,,,,,,,,,1,,48,0
16752,note_on,0,0,1,,,,,,,,,0,,75,100
16752,note_on,0,0,2,,,,,,,,,1,,50,100
16752,note_on,24,0,1,,,,,,,,,0,,67,0
16776,note_on,0,0,1,,,,,,,,,0,,67,100
16776,note_on,24,0,1,,,,,,,,,0,,75,0
16800,note_on,24,0,1,,,,,,,,,0,,67,0
16800,note_on,0,0,1,,,,,,,,,0,,75,100
16800,note_on,0,0,2,,,,,,,,,1,,51,100
16800,note_on,48,0,2,,,,,,,,,1,,50,0
16824,note_on,0,0,1,,,,,,,,,0,,67,100
16824,note_on,24,0,1,,,,,,,,,0,,75,0
16848,note_on,0,0,1,,,,,,,,,0,,69,100
16848,note_on,48,0,2,,,,,,,,,1,,51,0
16848,note_on,0,0,2,,,,,,,,,1,,53,100
16848,note_on,24,0,1,,,,,,,,,0,,67,0
16872,note_on,0,0,1,,,,,,,,,0,,75,100
16872,note_on,24,0,1,,,,,,,,,0,,69,0
16896,note_on,0,0,1,,,,,,,,,0,,77,100
16896,note_on,48,0,2,,,,,,,,,1,,53,0
16896,note_on,0,0,2,,,,,,,,,1,,57,100
16896,note_on,24,0,1,,,,,,,,,0,,75,0
16920,note_on,0,0,1,,,,,,,,,0,,75,100
16920,note_on,24,0,1,,,,,,,,,0,,77,0
16944,note_on,48,0,2,,,,,,,,,1,,57,0
16944,note_on,0,0,2,,,,,,,,,1,,53,100
16944,note_on,24,0,1,,,,,,,,,0,,75,0
16944,note_on,0,0,1,,,,,,,,,0,,74,100
16968,note_on,0,0,1,,,,,,,,,0,,72,100
16968,note_on,24,0,1,,,,,,,,,0,,74,0
16992,note_on,0,0,2,,,,,,,,,1,,58,100
16992,note_on,48,0,2,,,,,,,,,1,,53,0
16992,note_on,0,0,1,,,,,,,,,0,,74,100
16992,note_on,24,0,1,,,,,,,,,0,,72,0
17016,note_on,24,0,1,,,,,,,,,0,,74,0
17016,note_on,0,0,1,,,,,,,,,0,,67,100
17040,note_on,48,0,2,,,,,,,,,1,,58,0
17040,note_on,24,0,1,,,,,,,,,0,,67,0
17040,note_on,0,0,1,,,,,,,,,0,,79,100
17040,note_on,0,0,2,,,,,,,,,1,,51,100
17064,note_on,24,0,1,,,,,,,,,0,,79,0
17064,note_on,0,0,1,,,,,,,,,0,,78,100
17088,note_on,0,0,2,,,,,,,,,1,,48,100
17088,note_on,24,0,1,,,,,,,,,0,,78,0
17088,note_on,0,0,1,,,,,,,,,0,,79,100
17088,note_on,48,0,2,,,,,,,,,1,,51,0
17112,note_on,24,0,1,,,,,,,,,0,,79,0
17112,note_on,0,0,1,,,,,,,,,0,,81,100
17136,note_on,48,0,2,,,,,,,,,1,,48,0
17136,note_on,0,0,2,,,,,,,,,1,,50,100
17136,note_on,24,0,1,,,,,,,,,0,,81,0
17136,note_on,0,0,1,,,,,,,,,0,,78,100
17160,note_on,24,0,1,,,,,,,,,0,,78,0
17160,note_on,0,0,1,,,,,,,,,0,,74,100
17184,note_on,0,0,2,,,,,,,,,1,,62,100
17184,note_on,48,0,2,,,,,,,,,1,,50,0
17184,note_on,0,0,1,,,,,,,,,0,,76,100
17184,note_on,24,0,1,,,,,,,,,0,,74,0
17208,note_on,24,0,1,,,,,,,,,0,,76,0
17208,note_on,0,0,1,,,,,,,,,0,,78,100
17232,note_on,24,0,1,,,,,,,,,0,,78,0
17232,note_on,0,0,1,,,,,,,,,0,,79,100
17232,note_on,0,0,2,,,,,,,,,1,,54,100
17232,note_on,48,0,2,,,,,,,,,1,,62,0
17256,note_on,24,0,1,,,,,,,,,0,,79,0
17256,note_on,0,0,1,,,,,,,,,0,,81,100
17280,note_on,0,0,1,,,,,,,,,0,,82,100
17280,note_on,24,0,1,,,,,,,,,0,,81,0
17280,note_on,0,0,2,,,,,,,,,1,,55,100
17280,note_on,48,0,2,,,,,,,,,1,,54,0
17304,note_on,0,0,1,,,,,,,,,0,,74,100
17304,note_on,24,0,1,,,,,,,,,0,,82,0
17328,note_on,0,0,2,,,,,,,,,1,,43,100
17328,note_on,0,0,1,,,,,,,,,0,,75,100
17328,note_on,48,0,2,,,,,,,,,1,,55,0
17328,note_on,24,0,1,,,,,,,,,0,,74,0
17352,note_on,0,0,1,,,,,,,,,0,,82,100
17352,note_on,24,0,1,,,,,,,,,0,,75,0
17376,note_on,0,0,1,,,,,,,,,0,,81,100
17376,note_on,48,0,2,,,,,,,,,1,,43,0
17376,note_on,0,0,2,,,,,,,,,1,,53,100
17376,note_on,24,0,1,,,,,,,,,0,,82,0
17400,note_on,0,0,1,,,,,,,,,0,,74,100
17400,note_on,24,0,1,,,,,,,,,0,,81,0
17424,note_on,48,0,2,,,,,,,,,1,,53,0
17424,note_on,0,0,1,,,,,,,,,0,,79,100
17424,note_on,24,0,1,,,,,,,,,0,,74,0
17424,note_on,0,0,2,,,,,,,,,1,,51,100
17448,note_on,0,0,1,,,,,,,,,0,,72,100
17448,note_on,24,0,1,,,,,,,,,0,,79,0
17472,note_on,24,0,1,,,,,,,,,0,,72,0
17472,note_on,0,0,1,,,,,,,,,0,,74,100
17496,note_on,24,0,1,,,,,,,,,0,,74,0
17496,note_on,0,0,1,,,,,,,,,0,,72,100
17520,note_on,24,0,1,,,,,,,,,0,,72,0
17520,note_on,0,0,2,,,,,,,,,1,,50,100
17520,note_on,0,0,1,,,,,,,,,0,,77,100
17520,note_on,96,0,2,,,,,,,,,1,,51,0
17544,note_on,24,0,1,,,,,,,,,0,,77,0
17544,note_on,0,0,1,,,,,,,,,0,,70,100
17568,note_on,24,0,1,,,,,,,,,0,,70,0
17568,note_on,0,0,1,,,,,,,,,0,,75,100
17568,note_on,0,0,2,,,,,,,,,1,,48,100
17568,note_on,48,0,2,,,,,,,,,1,,50,0
17592,note_on,24,0,1,,,,,,,,,0,,75,0
17592,note_on,0,0,1,,,,,,,,,0,,68,100
17616,note_on,24,0,1,,,,,,,,,0,,68,0
17616,note_on,0,0,1,,,,,,,,,0,,70,100
17640,note_on,0,0,1,,,,,,,,,0,,68,100
17640,note_on,24,0,1,,,,,,,,,0,,70,0
17664,note_on,24,0,1,,,,,,,,,0,,68,0
17664,note_on,0,0,1,,,,,,,,,0,,74,100
17664,note_on,96,0,2,,,,,,,,,1,,48,0
17664,note_on,0,0,2,,,,,,,,,1,,46,100
17688,note_on,0,0,1,,,,,,,,,0,,67,100
17688,note_on,24,0,1,,,,,,,,,0,,74,0
17712,note_on,48,0,2,,,,,,,,,1,,46,0
17712,note_on,24,0,1,,,,,,,,,0,,67,0
17712,note_on,0,0,1,,,,,,,,,0,,72,100
17712,note_on,0,0,2,,,,,,,,,1,,45,100
17736,note_on,24,0,1,,,,,,,,,0,,72,0
17736,note_on,0,0,1,,,,,,,,,0,,66,100
17760,note_on,24,0,1,,,,,,,,,0,,66,0
17760,note_on,0,0,1,,,,,,,,,0,,67,100
17784,note_on,0,0,1,,,,,,,,,0,,69,100
17784,note_on,24,0,1,,,,,,,,,0,,67,0
17808,note_on,24,0,1,,,,,,,,,0,,69,0
17808,note_on,0,0,1,,,,,,,,,0,,70,100
17808,note_on,96,0,2,,,,,,,,,1,,45,0
17808,note_on,0,0,2,,,,,,,,,1,,43,100
17832,note_on,24,0,1,,,,,,,,,0,,70,0
17832,note_on,0,0,1,,,,,,,,,0,,67,100
17856,note_on,48,0,2,,,,,,,,,1,,43,0
17856,note_on,0,0,2,,,,,,,,,1,,48,100
17856,note_on,0,0,1,,,,,,,,,0,,75,100
17856,note_on,24,0,1,,,,,,,,,0,,67,0
17880,note_on,0,0,1,,,,,,,,,0,,74,100
17880,note_on,24,0,1,,,,,,,,,0,,75,0
17904,note_on,0,0,2,,,,,,,,,1,,50,100
17904,note_on,48,0,2,,,,,,,,,1,,48,0
17904,note_on,24,0,1,,,,,,,,,0,,74,0
17904,note_on,0,0,1,,,,,,,,,0,,72,100
17928,note_on,0,0,1,,,,,,,,,0,,70,100
17928,note_on,24,0,1,,,,,,,,,0,,72,0
17952,note_on,48,0,2,,,,,,,,,1,,50,0
17952,note_on,0,0,2,,,,,,,,,1,,51,100
17952,note_on,0,0,1,,,,,,,,,0,,69,100
17952,note_on,24,0,1,,,,,,,,,0,,70,0
17976,note_on,0,0,1,,,,,,,,,0,,67,100
17976,note_on,24,0,1,,,,,,,,,0,,69,0
18000,note_on,0,0,1,,,,,,,,,0,,66,100
18000,note_on,24,0,1,,,,,,,,,0,,67,0
18000,note_on,48,0,2,,,,,,,,,1,,51,0
18000,note_on,0,0,2,,,,,,,,,1,,50,100
18024,note_on,0,0,1,,,,,,,,,0,,75,100
18024,note_on,24,0,1,,,,,,,,,0,,66,0
18048,note_on,0,0,1,,,,,,,,,0,,74,100
18048,note_on,24,0,1,,,,,,,,,0,,75,0
18048,note_on,48,0,2,,,,,,,,,1,,50,0
18048,note_on,0,0,2,,,,,,,,,1,,54,100
18072,note_on,0,0,1,,,,,,,,,0,,72,100
18072,note_on,24,0,1,,,,,,,,,0,,74,0
18096,note_on,0,0,1,,,,,,,,,0,,70,100
18096,note_on,48,0,2,,,,,,,,,1,,54,0
18096,note_on,24,0,1,,,,,,,,,0,,72,0
18096,note_on,0,0,2,,,,,,,,,1,,55,100
18120,note_on,0,0,1,,,,,,,,,0,,69,100
18120,note_on,24,0,1,,,,,,,,,0,,70,0
18144,note_on,0,0,1,,,,,,,,,0,,67,100
18144,note_on,24,0,1,,,,,,,,,0,,69,0
18144,note_on,48,0,2,,,,,,,,,1,,55,0
18144,note_on,0,0,2,,,,,,,,,1,,48,100
18168,note_on,24,0,1,,,,,,,,,0,,67,0
18168,note_on,0,0,1,,,,,,,,,0,,69,100
18192,note_on,0,0,2,,,,,,,,,1,,50,100
18192,note_on,48,0,2,,,,,,,,,1,,48,0
18192,note_on,24,0,1,,,,,,,,,0,,69,0
18192,note_on,0,0,1,,,,,,,,,0,,62,100
18240,note_on,0,0,2,,,,,,,,,1,,38,100
18240,note_on,48,0,1,,,,,,,,,0,,62,0
18240,note_on,0,0,1,,,,,,,,,0,,67,100
18240,note_on,48,0,2,,,,,,,,,1,,50,0
18252,note_on,0,0,1,,,,,,,,,0,,66,100
18252,note_on,12,0,1,,,,,,,,,0,,67,0
18264,note_on,12,0,1,,,,,,,,,0,,66,0
18264,note_on,0,0,1,,,,,,,,,0,,67,100
18276,note_on,12,0,1,,,,,,,,,0,,67,0
18276,note_on,0,0,1,,,,,,,,,0,,66,100
18288,note_on,0,0,2,,,,,,,,,1,,43,100
18288,note_on,12,0,1,,,,,,,,,0,,66,0
18288,note_on,0,0,1,,,,,,,,,0,,67,100
18288,note_on,48,0,2,,,,,,,,,1,,38,0
18312,note_on,0,0,1,,,,,,,,,0,,74,100
18312,note_on,24,0,1,,,,,,,,,0,,67,0
18336,note_on,24,0,1,,,,,,,,,0,,74,0
18336,note_on,0,0,1,,,,,,,,,0,,76,100
18360,note_on,24,0,1,,,,,,,,,0,,76,0
18360,note_on,0,0,1,,,,,,,,,0,,78,100
18384,note_on,24,0,1,,,,,,,,,0,,78,0
18384,note_on,0,0,1,,,,,,,,,0,,79,100
18408,note_on,24,0,1,,,,,,,,,0,,79,0
18408,note_on,0,0,1,,,,,,,,,0,,81,100
18432,note_on,24,0,1,,,,,,,,,0,,81,0
18432,note_on,0,0,1,,,,,,,,,0,,82,100
18432,note_on,0,0,2,,,,,,,,,1,,55,100
18432,note_on,144,0,2,,,,,,,,,1,,43,0
18456,note_on,0,0,1,,,,,,,,,0,,74,100
18456,note_on,24,0,1,,,,,,,,,0,,82,0
18480,note_on,48,0,2,,,,,,,,,1,,55,0
18480,note_on,24,0,1,,,,,,,,,0,,74,0
18480,note_on,0,0,1,,,,,,,,,0,,75,100
18480,note_on,0,0,2,,,,,,,,,1,,43,100
18504,note_on,24,0,1,,,,,,,,,0,,75,0
18504,note_on,0,0,1,,,,,,,,,0,,82,100
18528,note_on,24,0,1,,,,,,,,,0,,82,0
18528,note_on,0,0,1,,,,,,,,,0,,81,100
18528,note_on,0,0,2,,,,,,,,,1,,53,100
18528,note_on,48,0,2,,,,,,,,,1,,43,0
18552,note_on,0,0,1,,,,,,,,,0,,74,100
18552,note_on,24,0,1,,,,,,,,,0,,81,0
18576,note_on,0,0,1,,,,,,,,,0,,79,100
18576,note_on,0,0,2,,,,,,,,,1,,51,100
18576,note_on,48,0,2,,,,,,,,,1,,53,0
18576,note_on,24,0,1,,,,,,,,,0,,74,0
18600,note_on,0,0,1,,,,,,,,,0,,72,100
18600,note_on,24,0,1,,,,,,,,,0,,79,0
18624,note_on,24,0,1,,,,,,,,,0,,72,0
18624,note_on,0,0,1,,,,,,,,,0,,74,100
18648,note_on,0,0,1,,,,,,,,,0,,72,100
18648,note_on,24,0,1,,,,,,,,,0,,74,0
18672,note_on,0,0,1,,,,,,,,,0,,77,100
18672,note_on,24,0,1,,,,,,,,,0,,72,0
18672,note_on,96,0,2,,,,,,,,,1,,51,0
18672,note_on,0,0,2,,,,,,,,,1,,50,100
18696,note_on,0,0,1,,,,,,,,,0,,70,100
18696,note_on,24,0,1,,,,,,,,,0,,77,0
18720,note_on,0,0,1,,,,,,,,,0,,75,100
18720,note_on,48,0,2,,,,,,,,,1,,50,0
18720,note_on,0,0,2,,,,,,,,,1,,48,100
18720,note_on,24,0,1,,,,,,,,,0,,70,0
18744,note_on,24,0,1,,,,,,,,,0,,75,0
18744,note_on,0,0,1,,,,,,,,,0,,68,100
18768,note_on,24,0,1,,,,,,,,,0,,68,0
18768,note_on,0,0,1,,,,,,,,,0,,70,100
18792,note_on,0,0,1,,,,,,,,,0,,68,100
18792,note_on,24,0,1,,,,,,,,,0,,70,0
18816,note_on,24,0,1,,,,,,,,,0,,68,0
18816,note_on,96,0,2,,,,,,,,,1,,48,0
18816,note_on,0,0,2,,,,,,,,,1,,46,100
18816,note_on,0,0,1,,,,,,,,,0,,74,100
18840,note_on,24,0,1,,,,,,,,,0,,74,0
18840,note_on,0,0,1,,,,,,,,,0,,67,100
18864,note_on,24,0,1,,,,,,,,,0,,67,0
18864,note_on,48,0,2,,,,,,,,,1,,46,0
18864,note_on,0,0,1,,,,,,,,,0,,72,100
18864,note_on,0,0,2,,,,,,,,,1,,45,100
18888,note_on,24,0,1,,,,,,,,,0,,72,0
18888,note_on,0,0,1,,,,,,,,,0,,66,100
18912,note_on,24,0,1,,,,,,,,,0,,66,0
18912,note_on,0,0,1,,,,,,,,,0,,67,100
18936,note_on,24,0,1,,,,,,,,,0,,67,0
18936,note_on,0,0,1,,,,,,,,,0,,69,100
18960,note_on,96,0,2,,,,,,,,,1,,45,0
18960,note_on,24,0,1,,,,,,,,,0,,69,0
18960,note_on,0,0,1,,,,,,,,,0,,70,100
18960,note_on,0,0,2,,,,,,,,,1,,43,100
18984,note_on,24,0,1,,,,,,,,,0,,70,0
18984,note_on,0,0,1,,,,,,,,,0,,67,100
19008,note_on,0,0,2,,,,,,,,,1,,48,100
19008,note_on,24,0,1,,,,,,,,,0,,67,0
19008,note_on,0,0,1,,,,,,,,,0,,75,100
19008,note_on,48,0,2,,,,,,,,,1,,43,0
19032,note_on,0,0,1,,,,,,,,,0,,74,100
19032,note_on,24,0,1,,,,,,,,,0,,75,0
19056,note_on,24,0,1,,,,,,,,,0,,74,0
19056,note_on,0,0,1,,,,,,,,,0,,72,100
19056,note_on,0,0,2,,,,,,,,,1,,50,100
19056,note_on,48,0,2,,,,,,,,,1,,48,0
19080,note_on,24,0,1,,,,,,,,,0,,72,0
19080,note_on,0,0,1,,,,,,,,,0,,70,100
19104,note_on,0,0,2,,,,,,,,,1,,51,100
19104,note_on,48,0,2,,,,,,,,,1,,50,0
19104,note_on,24,0,1,,,,,,,,,0,,70,0
19104,note_on,0,0,1,,,,,,,,,0,,69,100
19128,note_on,0,0,1,,,,,,,,,0,,67,100
19128,note_on,24,0,1,,,,,,,,,0,,69,0
19152,note_on,0,0,2,,,,,,,,,1,,50,100
19152,note_on,48,0,2,,,,,,,,,1,,51,0
19152,note_on,24,0,1,,,,,,,,,0,,67,0
19152,note_on,0,0,1,,,,,,,,,0,,78,100
19176,note_on,24,0,1,,,,,,,,,0,,78,0
19176,note_on,0,0,1,,,,,,,,,0,,74,100
19200,note_on,0,0,1,,,,,,,,,0,,76,100
19200,note_on,24,0,1,,,,,,,,,0,,74,0
19200,note_on,48,0,2,,,,,,,,,1,,50,0
19200,note_on,0,0,2,,,,,,,,,1,,48,100
19224,note_on,0,0,1,,,,,,,,,0,,78,100
19224,note_on,24,0,1,,,,,,,,,0,,76,0
19248,note_on,48,0,2,,,,,,,,,1,,48,0
19248,note_on,0,0,2,,,,,,,,,1,,46,100
19248,note_on,24,0,1,,,,,,,,,0,,78,0
19248,note_on,0,0,1,,,,,,,,,0,,79,100
19272,note_on,24,0,1,,,,,,,,,0,,79,0
19272,note_on,0,0,1,,,,,,,,,0,,74,100
19296,note_on,24,0,1,,,,,,,,,0,,74,0
19296,note_on,0,0,1,,,,,,,,,0,,75,100
19296,note_on,0,0,2,,,,,,,,,1,,48,100
19296,note_on,48,0,2,,,,,,,,,1,,46,0
19320,note_on,24,0,1,,,,,,,,,0,,75,0
19320,note_on,0,0,1,,,,,,,,,0,,69,100
19344,note_on,0,0,2,,,,,,,,,1,,50,100
19344,note_on,48,0,2,,,,,,,,,1,,48,0
19344,note_on,24,0,1,,,,,,,,,0,,69,0
19344,note_on,0,0,1,,,,,,,,,0,,70,100
19392,note_on,0,0,1,,,,,,,,,0,,70,100
19392,note_on,48,0,1,,,,,,,,,0,,70,0
19392,set_tempo,19392,1,0,,,,,,1000000,,,,,,
19392,note_on,48,0,2,,,,,,,,,1,,50,0
19392,note_on,0,0,2,,,,,,,,,1,,38,100
19398,note_on,0,0,1,,,,,,,,,0,,69,100
19398,note_on,6,0,1,,,,,,,,,0,,70,0
19404,note_on,6,0,1,,,,,,,,,0,,69,0
19404,note_on,0,0,1,,,,,,,,,0,,70,100
19410,note_on,6,0,1,,,,,,,,,0,,70,0
19410,note_on,0,0,1,,,,,,,,,0,,69,100
19416,note_on,6,0,1,,,,,,,,,0,,69,0
19416,note_on,0,0,1,,,,,,,,,0,,67,100
19440,note_on,0,0,2,,,,,,,,,1,,43,100
19440,note_on,48,0,2,,,,,,,,,1,,38,0
19440,end_of_track,0,1,0,,,,,,,,,,,,
19440,note_on,24,0,1,,,,,,,,,0,,67,0
19440,note_on,0,0,1,,,,,,,,,0,,67,100
19440,note_on,0,0,1,,,,,,,,,0,,62,100
19440,note_on,0,0,1,,,,,,,,,0,,58,100
19440,set_tempo,48,1,0,,,,,,1200000,,,,,,
19584,end_of_track,0,1,2,,,,,,,,,,,,
19584,note_on,144,0,1,,,,,,,,,0,,58,0
19584,note_on,0,0,1,,,,,,,,,0,,62,0
19584,note_on,0,0,1,,,,,,,,,0,,67,0
19584,note_on,144,0,2,,,,,,,,,1,,43,0
19584,end_of_track,0,1,1,,,,,,,,,,,,
