tick,type,time,meta,track,numerator,denominator,clocks_per_click,notated_32nd_notes_per_beat,key,tempo,control,value,channel,program,note,velocity
0,track_name,0,1,0,,,,,,,,,,,,
0,end_of_track,0,1,6,,,,,,,,,,,,
0,track_name,0,1,2,,,,,,,,,,,,
0,control_change,0,0,2,,,,,,,0,0,1,,,
0,control_change,0,0,2,,,,,,,7,127,1,,,
0,control_change,0,0,2,,,,,,,10,54,1,,,
0,control_change,0,0,2,,,,,,,91,50,1,,,
0,control_change,0,0,2,,,,,,,93,0,1,,,
0,control_change,0,0,2,,,,,,,32,0,1,,,
0,track_name,0,1,3,,,,,,,,,,,,
0,end_of_track,0,1,3,,,,,,,,,,,,
0,track_name,0,1,4,,,,,,,,,,,,
0,end_of_track,0,1,4,,,,,,,,,,,,
0,track_name,0,1,5,,,,,,,,,,,,
0,end_of_track,0,1,5,,,,,,,,,,,,
0,track_name,0,1,6,,,,,,,,,,,,
0,control_change,0,0,1,,,,,,,32,0,0,,,
0,control_change,0,0,1,,,,,,,93,0,0,,,
0,end_of_track,0,1,7,,,,,,,,,,,,
0,control_change,0,0,1,,,,,,,10,73,0,,,
0,track_name,0,1,1,,,,,,,,,,,,
0,control_change,0,0,1,,,,,,,91,50,0,,,
0,marker,0,1,0,,,,,,,,,,,,
0,set_tempo,0,1,0,,,,,,1090909,,,,,,
0,key_signature,0,1,0,,,,,A,,,,,,,
0,time_signature,0,1,0,1,4,24,8,,,,,,,,
0,text,0,1,0,,,,,,,,,,,,
0,text,0,1,0,,,,,,,,,,,,
0,copyright,0,1,0,,,,,,,,,,,,
0,control_change,0,0,1,,,,,,,7,127,0,,,
0,control_change,0,0,1,,,,,,,0,0,0,,,
1,program_change,1,0,2,,,,,,,,,1,0,,
1,program_change,1,0,1,,,,,,,,,0,0,,
120,note_on,119,0,2,,,,,,,,,1,,57,85
239,text,119,1,2,,,,,,,,,,,,
240,note_on,1,0,2,,,,,,,,,1,,57,0
240,note_on,0,0,2,,,,,,,,,1,,57,85
240,text,0,1,2,,,,,,,,,,,,
299,note_on,59,0,2,,,,,,,,,1,,57,0
300,note_on,1,0,2,,,,,,,,,1,,56,85
329,note_on,29,0,2,,,,,,,,,1,,56,0
330,note_on,1,0,2,,,,,,,,,1,,57,85
359,note_on,29,0,2,,,,,,,,,1,,57,0
360,note_on,1,0,2,,,,,,,,,1,,56,85
419,note_on,59,0,2,,,,,,,,,1,,56,0
420,note_on,1,0,2,,,,,,,,,1,,54,85
480,time_signature,480,1,0,4,4,24,8,,,,,,,,
480,note_on,60,0,2,,,,,,,,,1,,54,0
480,note_on,0,0,2,,,,,,,,,1,,52,85
600,note_on,599,0,1,,,,,,,,,0,,64,85
720,note_on,240,0,2,,,,,,,,,1,,52,0
720,note_on,0,0,2,,,,,,,,,1,,50,85
720,note_on,120,0,1,,,,,,,,,0,,64,0
720,text,0,1,1,,,,,,,,,,,,
720,note_on,0,0,1,,,,,,,,,0,,66,100
749,note_on,29,0,1,,,,,,,,,0,,66,0
750,note_on,1,0,1,,,,,,,,,0,,64,100
779,note_on,29,0,1,,,,,,,,,0,,64,0
780,note_on,1,0,1,,,,,,,,,0,,66,100
899,note_on,119,0,1,,,,,,,,,0,,66,0
900,note_on,1,0,1,,,,,,,,,0,,68,85
960,note_on,0,0,1,,,,,,,,,0,,69,85
960,note_on,0,0,2,,,,,,,,,1,,49,85
960,note_on,240,0,2,,,,,,,,,1,,50,0
960,note_on,60,0,1,,,,,,,,,0,,68,0
1080,note_on,120,0,2,,,,,,,,,1,,52,85
1200,note_on,0,0,2,,,,,,,,,1,,47,85
1200,note_on,0,0,2,,,,,,,,,1,,49,0
1200,note_on,0,0,2,,,,,,,,,1,,54,85
1200,note_on,240,0,1,,,,,,,,,0,,69,0
1200,note_on,120,0,2,,,,,,,,,1,,52,0
1200,note_on,0,0,1,,,,,,,,,0,,74,85
1320,note_on,120,0,2,,,,,,,,,1,,54,0
1320,note_on,0,0,2,,,,,,,,,1,,56,85
1440,note_on,0,0,1,,,,,,,,,0,,73,85
1440,note_on,240,0,1,,,,,,,,,0,,74,0
1440,note_on,0,0,2,,,,,,,,,1,,45,85
1440,note_on,0,0,2,,,,,,,,,1,,57,85
1440,note_on,0,0,2,,,,,,,,,1,,47,0
1440,note_on,120,0,2,,,,,,,,,1,,56,0
1560,note_on,120,0,1,,,,,,,,,0,,81,85
1679,text,119,1,1,,,,,,,,,,,,
1680,note_on,1,0,1,,,,,,,,,0,,81,0
1680,text,0,1,1,,,,,,,,,,,,
1680,note_on,0,0,1,,,,,,,,,0,,81,100
1680,note_on,0,0,2,,,,,,,,,1,,59,85
1680,note_on,240,0,2,,,,,,,,,1,,57,0
1709,note_on,29,0,1,,,,,,,,,0,,81,0
1710,note_on,1,0,1,,,,,,,,,0,,80,100
1739,note_on,29,0,1,,,,,,,,,0,,80,0
1740,note_on,1,0,1,,,,,,,,,0,,81,100
1769,note_on,29,0,1,,,,,,,,,0,,81,0
1770,note_on,1,0,1,,,,,,,,,0,,80,100
1799,note_on,29,0,1,,,,,,,,,0,,80,0
1800,note_on,1,0,1,,,,,,,,,0,,78,100
1920,note_on,0,0,2,,,,,,,,,1,,61,85
1920,note_on,0,0,2,,,,,,,,,1,,45,0
1920,note_on,240,0,2,,,,,,,,,1,,59,0
1920,note_on,0,0,1,,,,,,,,,0,,73,0
1920,note_on,0,0,1,,,,,,,,,0,,76,85
1920,note_on,120,0,1,,,,,,,,,0,,78,0
2040,note_on,120,0,1,,,,,,,,,0,,64,85
2160,note_on,120,0,1,,,,,,,,,0,,64,0
2160,note_on,0,0,1,,,,,,,,,0,,76,0
2160,note_on,0,0,1,,,,,,,,,0,,74,85
2160,note_on,0,0,1,,,,,,,,,0,,66,85
2160,note_on,240,0,2,,,,,,,,,1,,61,0
2160,note_on,0,0,2,,,,,,,,,1,,62,85
2280,note_on,120,0,1,,,,,,,,,0,,66,0
2280,note_on,0,0,1,,,,,,,,,0,,68,85
2280,note_on,0,0,2,,,,,,,,,1,,64,85
2280,note_on,120,0,2,,,,,,,,,1,,62,0
2400,note_on,0,0,1,,,,,,,,,0,,73,85
2400,note_on,120,0,1,,,,,,,,,0,,68,0
2400,note_on,0,0,1,,,,,,,,,0,,74,0
2400,note_on,0,0,2,,,,,,,,,1,,57,85
2400,note_on,120,0,2,,,,,,,,,1,,64,0
2520,note_on,120,0,1,,,,,,,,,0,,64,85
2580,note_on,60,0,1,,,,,,,,,0,,73,0
2640,note_on,240,0,2,,,,,,,,,1,,57,0
2640,note_on,0,0,2,,,,,,,,,1,,56,85
2640,note_on,60,0,1,,,,,,,,,0,,73,85
2760,note_on,0,0,1,,,,,,,,,0,,64,85
2760,note_on,0,0,1,,,,,,,,,0,,71,85
2760,note_on,0,0,1,,,,,,,,,0,,71,85
2760,note_on,120,0,1,,,,,,,,,0,,73,0
2760,note_on,0,0,1,,,,,,,,,0,,64,0
2879,text,119,1,1,,,,,,,,,,,,
2880,note_on,240,0,2,,,,,,,,,1,,56,0
2880,text,0,1,1,,,,,,,,,,,,
2880,note_on,1,0,1,,,,,,,,,0,,71,0
2880,note_on,0,0,2,,,,,,,,,1,,54,85
2880,note_on,0,0,1,,,,,,,,,0,,71,0
2880,note_on,0,0,1,,,,,,,,,0,,71,85
2939,note_on,59,0,1,,,,,,,,,0,,71,0
2940,note_on,1,0,1,,,,,,,,,0,,69,85
2969,note_on,29,0,1,,,,,,,,,0,,69,0
2970,note_on,1,0,1,,,,,,,,,0,,71,85
2999,note_on,29,0,1,,,,,,,,,0,,71,0
3000,note_on,0,0,1,,,,,,,,,0,,69,85
3000,note_on,0,0,1,,,,,,,,,0,,64,85
3000,note_on,1,0,1,,,,,,,,,0,,64,0
3029,note_on,29,0,1,,,,,,,,,0,,69,0
3030,note_on,1,0,1,,,,,,,,,0,,71,85
3059,note_on,29,0,1,,,,,,,,,0,,71,0
3060,note_on,1,0,1,,,,,,,,,0,,69,85
3120,note_on,60,0,1,,,,,,,,,0,,64,0
3120,note_on,0,0,1,,,,,,,,,0,,63,85
3239,note_on,119,0,1,,,,,,,,,0,,69,0
3240,note_on,1,0,1,,,,,,,,,0,,71,85
3240,note_on,0,0,2,,,,,,,,,1,,54,85
3240,note_on,360,0,2,,,,,,,,,1,,54,0
3360,note_on,0,0,2,,,,,,,,,1,,52,85
3360,note_on,120,0,2,,,,,,,,,1,,54,0
3360,note_on,0,0,1,,,,,,,,,0,,63,0
3360,note_on,0,0,1,,,,,,,,,0,,69,85
3360,note_on,120,0,1,,,,,,,,,0,,71,0
3480,note_on,120,0,2,,,,,,,,,1,,59,85
3480,note_on,120,0,1,,,,,,,,,0,,69,0
3480,note_on,0,0,1,,,,,,,,,0,,68,85
3600,note_on,120,0,1,,,,,,,,,0,,68,0
3600,note_on,120,0,2,,,,,,,,,1,,59,0
3600,note_on,0,0,2,,,,,,,,,1,,61,85
3600,note_on,0,0,1,,,,,,,,,0,,69,85
3720,note_on,0,0,2,,,,,,,,,1,,50,85
3720,note_on,0,0,1,,,,,,,,,0,,71,85
3720,note_on,120,0,1,,,,,,,,,0,,69,0
3720,note_on,120,0,2,,,,,,,,,1,,61,0
3720,note_on,0,0,2,,,,,,,,,1,,52,0
3720,note_on,0,0,2,,,,,,,,,1,,62,85
3840,note_on,120,0,1,,,,,,,,,0,,71,0
3840,note_on,0,0,1,,,,,,,,,0,,64,85
3840,note_on,120,0,2,,,,,,,,,1,,50,0
3840,note_on,0,0,2,,,,,,,,,1,,62,0
3840,note_on,0,0,2,,,,,,,,,1,,49,85
3960,note_on,0,0,1,,,,,,,,,0,,69,85
3960,note_on,120,0,1,,,,,,,,,0,,64,0
4080,note_on,120,0,1,,,,,,,,,0,,69,0
4080,note_on,240,0,2,,,,,,,,,1,,52,85
4080,note_on,0,0,1,,,,,,,,,0,,71,85
4200,note_on,0,0,1,,,,,,,,,0,,73,85
4200,note_on,120,0,1,,,,,,,,,0,,71,0
4320,note_on,0,0,2,,,,,,,,,1,,50,85
4320,note_on,120,0,1,,,,,,,,,0,,73,0
4320,note_on,0,0,2,,,,,,,,,1,,54,85
4320,note_on,0,0,1,,,,,,,,,0,,66,85
4320,note_on,0,0,2,,,,,,,,,1,,49,0
4320,note_on,240,0,2,,,,,,,,,1,,52,0
4440,note_on,0,0,1,,,,,,,,,0,,74,85
4440,note_on,120,0,1,,,,,,,,,0,,66,0
4560,note_on,120,0,1,,,,,,,,,0,,74,0
4560,note_on,0,0,1,,,,,,,,,0,,76,85
4560,note_on,240,0,2,,,,,,,,,1,,54,0
4560,note_on,0,0,2,,,,,,,,,1,,50,0
4560,note_on,0,0,2,,,,,,,,,1,,52,85
4560,note_on,0,0,2,,,,,,,,,1,,49,85
4680,note_on,120,0,1,,,,,,,,,0,,76,0
4680,note_on,0,0,1,,,,,,,,,0,,78,85
4800,note_on,0,0,2,,,,,,,,,1,,52,0
4800,note_on,0,0,1,,,,,,,,,0,,76,85
4800,text,0,1,1,,,,,,,,,,,,
4800,note_on,120,0,1,,,,,,,,,0,,78,0
4800,note_on,240,0,2,,,,,,,,,1,,49,0
4800,note_on,0,0,2,,,,,,,,,1,,54,85
4800,note_on,0,0,2,,,,,,,,,1,,47,85
4859,note_on,59,0,1,,,,,,,,,0,,76,0
4860,note_on,1,0,1,,,,,,,,,0,,74,85
4889,note_on,29,0,1,,,,,,,,,0,,74,0
4890,note_on,1,0,1,,,,,,,,,0,,76,85
4919,note_on,29,0,1,,,,,,,,,0,,76,0
4920,note_on,1,0,1,,,,,,,,,0,,74,85
4949,note_on,29,0,1,,,,,,,,,0,,74,0
4950,note_on,1,0,1,,,,,,,,,0,,76,85
4979,note_on,29,0,1,,,,,,,,,0,,76,0
4980,note_on,1,0,1,,,,,,,,,0,,74,85
5040,note_on,240,0,2,,,,,,,,,1,,54,0
5040,note_on,0,0,2,,,,,,,,,1,,56,85
5159,note_on,179,0,1,,,,,,,,,0,,74,0
5160,note_on,1,0,1,,,,,,,,,0,,73,85
5280,note_on,0,0,2,,,,,,,,,1,,57,85
5280,note_on,0,0,2,,,,,,,,,1,,54,85
5280,note_on,0,0,2,,,,,,,,,1,,47,0
5280,note_on,240,0,2,,,,,,,,,1,,56,0
5280,note_on,0,0,1,,,,,,,,,0,,73,85
5280,note_on,120,0,1,,,,,,,,,0,,73,0
5400,note_on,120,0,1,,,,,,,,,0,,61,85
5400,note_on,120,0,2,,,,,,,,,1,,45,85
5520,note_on,0,0,2,,,,,,,,,1,,47,85
5520,note_on,0,0,1,,,,,,,,,0,,63,85
5520,note_on,120,0,1,,,,,,,,,0,,61,0
5520,note_on,120,0,2,,,,,,,,,1,,45,0
5640,note_on,120,0,2,,,,,,,,,1,,47,0
5640,note_on,120,0,1,,,,,,,,,0,,63,0
5640,note_on,0,0,2,,,,,,,,,1,,49,85
5640,note_on,0,0,1,,,,,,,,,0,,65,85
5759,text,119,1,2,,,,,,,,,,,,
5760,note_on,120,0,1,,,,,,,,,0,,65,0
5760,note_on,0,0,2,,,,,,,,,1,,57,0
5760,note_on,1,0,2,,,,,,,,,1,,49,0
5760,note_on,0,0,1,,,,,,,,,0,,66,85
5760,note_on,0,0,2,,,,,,,,,1,,54,0
5760,note_on,0,0,2,,,,,,,,,1,,50,85
5760,text,0,1,2,,,,,,,,,,,,
5789,note_on,29,0,2,,,,,,,,,1,,50,0
5790,note_on,1,0,2,,,,,,,,,1,,49,85
5792,note_on,0,0,1,,,,,,,,,0,,65,85
5792,note_on,32,0,1,,,,,,,,,0,,66,0
5819,note_on,29,0,2,,,,,,,,,1,,49,0
5820,note_on,1,0,2,,,,,,,,,1,,50,85
5824,note_on,0,0,1,,,,,,,,,0,,66,85
5824,note_on,32,0,1,,,,,,,,,0,,65,0
5849,note_on,29,0,2,,,,,,,,,1,,50,0
5850,note_on,1,0,2,,,,,,,,,1,,49,85
5879,note_on,29,0,2,,,,,,,,,1,,49,0
5880,note_on,1,0,2,,,,,,,,,1,,50,85
6000,note_on,0,0,1,,,,,,,,,0,,71,85
6000,note_on,176,0,1,,,,,,,,,0,,73,0
6119,note_on,239,0,2,,,,,,,,,1,,50,0
6120,note_on,1,0,2,,,,,,,,,1,,47,85
6120,note_on,120,0,1,,,,,,,,,0,,68,85
6240,note_on,120,0,1,,,,,,,,,0,,68,0
6240,note_on,0,0,2,,,,,,,,,1,,49,85
6240,note_on,120,0,2,,,,,,,,,1,,47,0
6240,note_on,0,0,1,,,,,,,,,0,,66,0
6240,note_on,0,0,1,,,,,,,,,0,,65,85
6360,note_on,0,0,1,,,,,,,,,0,,73,85
6360,note_on,120,0,1,,,,,,,,,0,,71,0
6480,note_on,0,0,2,,,,,,,,,1,,42,85
6480,note_on,240,0,2,,,,,,,,,1,,49,0
6480,note_on,0,0,1,,,,,,,,,0,,66,85
6480,note_on,0,0,1,,,,,,,,,0,,69,85
6480,note_on,0,0,1,,,,,,,,,0,,65,0
6480,note_on,120,0,1,,,,,,,,,0,,73,0
6600,note_on,0,0,1,,,,,,,,,0,,71,85
6600,note_on,120,0,1,,,,,,,,,0,,69,0
6720,note_on,0,0,1,,,,,,,,,0,,69,100
6720,text,0,1,1,,,,,,,,,,,,
6720,note_on,240,0,2,,,,,,,,,1,,42,0
6720,note_on,0,0,2,,,,,,,,,1,,49,85
6720,note_on,120,0,1,,,,,,,,,0,,71,0
6720,text,0,1,1,,,,,,,,,,,,
6779,note_on,59,0,1,,,,,,,,,0,,69,0
6780,note_on,1,0,1,,,,,,,,,0,,68,100
6809,note_on,29,0,1,,,,,,,,,0,,68,0
6810,note_on,1,0,1,,,,,,,,,0,,69,100
6839,note_on,29,0,1,,,,,,,,,0,,69,0
6840,note_on,1,0,1,,,,,,,,,0,,68,100
6869,note_on,29,0,1,,,,,,,,,0,,68,0
6870,note_on,1,0,1,,,,,,,,,0,,69,100
6899,note_on,29,0,1,,,,,,,,,0,,69,0
6900,note_on,1,0,1,,,,,,,,,0,,68,100
6959,note_on,59,0,1,,,,,,,,,0,,68,0
6960,note_on,1,0,1,,,,,,,,,0,,66,0
6960,note_on,0,0,2,,,,,,,,,1,,37,85
6960,note_on,240,0,2,,,,,,,,,1,,49,0
6960,note_on,0,0,1,,,,,,,,,0,,65,85
6960,note_on,0,0,1,,,,,,,,,0,,70,85
7080,note_on,120,0,1,,,,,,,,,0,,70,0
7080,note_on,0,0,1,,,,,,,,,0,,71,85
7200,note_on,0,0,2,,,,,,,,,1,,54,85
7200,note_on,0,0,2,,,,,,,,,1,,42,85
7200,note_on,240,0,2,,,,,,,,,1,,37,0
7200,note_on,120,0,1,,,,,,,,,0,,71,0
7200,note_on,0,0,1,,,,,,,,,0,,65,0
7200,note_on,0,0,1,,,,,,,,,0,,70,85
7320,note_on,120,0,1,,,,,,,,,0,,66,85
7440,note_on,120,0,1,,,,,,,,,0,,66,0
7440,note_on,0,0,1,,,,,,,,,0,,64,85
7560,note_on,360,0,2,,,,,,,,,1,,54,0
7560,note_on,0,0,2,,,,,,,,,1,,61,85
7560,note_on,120,0,1,,,,,,,,,0,,64,0
7560,note_on,0,0,1,,,,,,,,,0,,61,85
7680,note_on,0,0,2,,,,,,,,,1,,42,0
7680,note_on,0,0,2,,,,,,,,,1,,62,85
7680,note_on,0,0,1,,,,,,,,,0,,70,0
7680,note_on,120,0,1,,,,,,,,,0,,61,0
7680,note_on,0,0,1,,,,,,,,,0,,66,85
7680,note_on,120,0,2,,,,,,,,,1,,61,0
7800,note_on,120,0,1,,,,,,,,,0,,78,85
7920,note_on,0,0,1,,,,,,,,,0,,70,85
7920,note_on,0,0,1,,,,,,,,,0,,76,85
7920,note_on,0,0,1,,,,,,,,,0,,66,0
7920,note_on,120,0,1,,,,,,,,,0,,78,0
7920,note_on,0,0,2,,,,,,,,,1,,61,85
7920,note_on,240,0,2,,,,,,,,,1,,62,0
8040,note_on,120,0,1,,,,,,,,,0,,76,0
8040,note_on,0,0,1,,,,,,,,,0,,73,85
8159,text,119,1,1,,,,,,,,,,,,
8160,note_on,0,0,1,,,,,,,,,0,,71,85
8160,note_on,0,0,1,,,,,,,,,0,,74,85
8160,text,0,1,1,,,,,,,,,,,,
8160,note_on,0,0,1,,,,,,,,,0,,70,0
8160,note_on,1,0,1,,,,,,,,,0,,73,0
8160,note_on,0,0,2,,,,,,,,,1,,59,85
8160,note_on,240,0,2,,,,,,,,,1,,61,0
8189,note_on,29,0,1,,,,,,,,,0,,74,0
8190,note_on,1,0,1,,,,,,,,,0,,73,85
8219,note_on,29,0,1,,,,,,,,,0,,73,0
8220,note_on,1,0,1,,,,,,,,,0,,74,85
8399,note_on,179,0,1,,,,,,,,,0,,74,0
8400,note_on,0,0,1,,,,,,,,,0,,73,85
8400,note_on,1,0,1,,,,,,,,,0,,71,0
8400,note_on,240,0,2,,,,,,,,,1,,62,85
8520,note_on,120,0,1,,,,,,,,,0,,73,0
8520,note_on,0,0,1,,,,,,,,,0,,71,85
8639,text,119,1,1,,,,,,,,,,,,
8640,note_on,0,0,2,,,,,,,,,1,,59,0
8640,note_on,0,0,2,,,,,,,,,1,,64,85
8640,note_on,0,0,2,,,,,,,,,1,,61,85
8640,note_on,1,0,1,,,,,,,,,0,,71,0
8640,text,0,1,1,,,,,,,,,,,,
8640,note_on,0,0,1,,,,,,,,,0,,71,85
8640,note_on,240,0,2,,,,,,,,,1,,62,0
8699,note_on,59,0,1,,,,,,,,,0,,71,0
8700,note_on,1,0,1,,,,,,,,,0,,69,85
8729,note_on,29,0,1,,,,,,,,,0,,69,0
8730,note_on,1,0,1,,,,,,,,,0,,71,85
8759,note_on,29,0,1,,,,,,,,,0,,71,0
8760,note_on,1,0,1,,,,,,,,,0,,69,85
8789,note_on,29,0,1,,,,,,,,,0,,69,0
8790,note_on,1,0,1,,,,,,,,,0,,71,85
8819,note_on,29,0,1,,,,,,,,,0,,71,0
8820,note_on,1,0,1,,,,,,,,,0,,69,85
8880,note_on,0,0,2,,,,,,,,,1,,63,85
8880,note_on,0,0,2,,,,,,,,,1,,64,0
8880,note_on,240,0,2,,,,,,,,,1,,61,0
8880,note_on,0,0,2,,,,,,,,,1,,66,85
8940,note_on,120,0,1,,,,,,,,,0,,68,85
8999,note_on,59,0,1,,,,,,,,,0,,69,0
9000,note_on,0,0,1,,,,,,,,,0,,69,85
9000,note_on,1,0,1,,,,,,,,,0,,68,0
9060,note_on,0,0,1,,,,,,,,,0,,71,85
9060,note_on,60,0,1,,,,,,,,,0,,69,0
9120,note_on,0,0,2,,,,,,,,,1,,63,0
9120,note_on,240,0,2,,,,,,,,,1,,66,0
9120,note_on,60,0,1,,,,,,,,,0,,71,0
9120,note_on,0,0,1,,,,,,,,,0,,68,85
9120,note_on,0,0,2,,,,,,,,,1,,64,85
9240,note_on,120,0,2,,,,,,,,,1,,59,85
9360,note_on,120,0,2,,,,,,,,,1,,59,0
9360,note_on,0,0,2,,,,,,,,,1,,52,85
9480,note_on,0,0,1,,,,,,,,,0,,69,85
9480,note_on,360,0,1,,,,,,,,,0,,68,0
9480,note_on,120,0,2,,,,,,,,,1,,52,0
9480,note_on,0,0,2,,,,,,,,,1,,54,85
9600,note_on,0,0,2,,,,,,,,,1,,64,0
9600,note_on,120,0,2,,,,,,,,,1,,54,0
9600,note_on,120,0,1,,,,,,,,,0,,69,0
9600,note_on,0,0,1,,,,,,,,,0,,71,85
9600,note_on,0,0,2,,,,,,,,,1,,56,85
9720,note_on,0,0,1,,,,,,,,,0,,71,85
9720,note_on,120,0,1,,,,,,,,,0,,71,0
9840,note_on,0,0,1,,,,,,,,,0,,73,85
9840,note_on,240,0,2,,,,,,,,,1,,64,85
9840,note_on,120,0,1,,,,,,,,,0,,71,0
9960,note_on,120,0,1,,,,,,,,,0,,73,0
9960,note_on,0,0,1,,,,,,,,,0,,74,85
10080,note_on,0,0,2,,,,,,,,,1,,57,85
10080,note_on,0,0,1,,,,,,,,,0,,73,85
10080,note_on,120,0,1,,,,,,,,,0,,74,0
10080,note_on,240,0,2,,,,,,,,,1,,64,0
10080,note_on,0,0,2,,,,,,,,,1,,56,0
10200,note_on,120,0,1,,,,,,,,,0,,64,85
10320,note_on,0,0,1,,,,,,,,,0,,66,85
10320,note_on,240,0,2,,,,,,,,,1,,57,0
10320,note_on,0,0,2,,,,,,,,,1,,56,85
10320,note_on,120,0,1,,,,,,,,,0,,64,0
10440,note_on,0,0,1,,,,,,,,,0,,68,85
10440,note_on,120,0,1,,,,,,,,,0,,66,0
10560,note_on,240,0,2,,,,,,,,,1,,56,0
10560,note_on,0,0,2,,,,,,,,,1,,54,85
10560,note_on,0,0,1,,,,,,,,,0,,69,85
10560,note_on,120,0,1,,,,,,,,,0,,68,0
10680,note_on,0,0,1,,,,,,,,,0,,73,85
10680,note_on,120,0,1,,,,,,,,,0,,73,0
10800,note_on,240,0,2,,,,,,,,,1,,54,0
10800,note_on,0,0,1,,,,,,,,,0,,69,0
10800,note_on,0,0,2,,,,,,,,,1,,52,85
10800,note_on,0,0,1,,,,,,,,,0,,75,85
10800,note_on,120,0,1,,,,,,,,,0,,73,0
10800,note_on,0,0,1,,,,,,,,,0,,68,85
10920,note_on,120,0,1,,,,,,,,,0,,75,0
10920,note_on,0,0,1,,,,,,,,,0,,76,85
11039,text,119,1,1,,,,,,,,,,,,
11040,note_on,1,0,1,,,,,,,,,0,,76,0
11040,note_on,0,0,1,,,,,,,,,0,,68,0
11040,note_on,0,0,1,,,,,,,,,0,,66,85
11040,note_on,0,0,1,,,,,,,,,0,,76,85
11040,note_on,0,0,2,,,,,,,,,1,,47,85
11040,note_on,240,0,2,,,,,,,,,1,,52,0
11040,text,0,1,1,,,,,,,,,,,,
11099,note_on,59,0,1,,,,,,,,,0,,76,0
11100,note_on,1,0,1,,,,,,,,,0,,75,85
11129,note_on,29,0,1,,,,,,,,,0,,75,0
11130,note_on,1,0,1,,,,,,,,,0,,76,85
11159,note_on,29,0,1,,,,,,,,,0,,76,0
11160,note_on,120,0,2,,,,,,,,,1,,59,85
11160,note_on,1,0,1,,,,,,,,,0,,75,85
11189,note_on,29,0,1,,,,,,,,,0,,75,0
11190,note_on,1,0,1,,,,,,,,,0,,76,85
11219,note_on,29,0,1,,,,,,,,,0,,76,0
11220,note_on,1,0,1,,,,,,,,,0,,75,85
11280,note_on,0,0,2,,,,,,,,,1,,57,85
11280,note_on,120,0,2,,,,,,,,,1,,59,0
11400,note_on,120,0,2,,,,,,,,,1,,57,0
11400,note_on,0,0,2,,,,,,,,,1,,54,85
11519,note_on,299,0,1,,,,,,,,,0,,75,0
11520,note_on,1,0,1,,,,,,,,,0,,66,0
11520,note_on,0,0,2,,,,,,,,,1,,55,85
11520,note_on,0,0,2,,,,,,,,,1,,47,0
11520,note_on,120,0,2,,,,,,,,,1,,54,0
11640,note_on,120,0,2,,,,,,,,,1,,64,85
11640,note_on,120,0,1,,,,,,,,,0,,83,85
11760,note_on,0,0,1,,,,,,,,,0,,81,85
11760,note_on,120,0,1,,,,,,,,,0,,83,0
11760,note_on,0,0,2,,,,,,,,,1,,54,85
11760,note_on,120,0,2,,,,,,,,,1,,55,0
11880,note_on,120,0,1,,,,,,,,,0,,81,0
11880,note_on,0,0,2,,,,,,,,,1,,63,85
11880,note_on,120,0,2,,,,,,,,,1,,64,0
11880,note_on,0,0,1,,,,,,,,,0,,78,85
12000,note_on,0,0,2,,,,,,,,,1,,52,85
12000,note_on,0,0,2,,,,,,,,,1,,54,0
12000,note_on,120,0,2,,,,,,,,,1,,63,0
12000,note_on,0,0,1,,,,,,,,,0,,79,85
12000,note_on,120,0,1,,,,,,,,,0,,78,0
12120,note_on,120,0,2,,,,,,,,,1,,52,0
12120,note_on,120,0,1,,,,,,,,,0,,64,85
12240,note_on,0,0,1,,,,,,,,,0,,78,85
12240,note_on,0,0,1,,,,,,,,,0,,62,85
12240,note_on,0,0,1,,,,,,,,,0,,79,0
12240,note_on,120,0,1,,,,,,,,,0,,64,0
12360,note_on,120,0,1,,,,,,,,,0,,62,0
12360,note_on,0,0,1,,,,,,,,,0,,71,85
12480,note_on,360,0,2,,,,,,,,,1,,60,85
12480,note_on,120,0,1,,,,,,,,,0,,78,0
12480,note_on,0,0,1,,,,,,,,,0,,76,85
12600,note_on,120,0,1,,,,,,,,,0,,71,0
12600,note_on,0,0,1,,,,,,,,,0,,71,85
12720,note_on,0,0,1,,,,,,,,,0,,69,85
12720,note_on,120,0,1,,,,,,,,,0,,71,0
12840,note_on,120,0,1,,,,,,,,,0,,76,0
12840,note_on,0,0,1,,,,,,,,,0,,78,85
12840,note_on,0,0,2,,,,,,,,,1,,60,85
12840,note_on,360,0,2,,,,,,,,,1,,60,0
12960,note_on,0,0,2,,,,,,,,,1,,59,85
12960,note_on,120,0,2,,,,,,,,,1,,60,0
12960,note_on,120,0,1,,,,,,,,,0,,78,0
12960,note_on,0,0,1,,,,,,,,,0,,69,0
12960,note_on,0,0,1,,,,,,,,,0,,76,85
12988,note_on,28,0,1,,,,,,,,,0,,69,85
13080,note_on,92,0,1,,,,,,,,,0,,76,0
13080,note_on,0,0,1,,,,,,,,,0,,75,85
13176,note_on,96,0,1,,,,,,,,,0,,75,0
13200,note_on,24,0,1,,,,,,,,,0,,69,0
13200,note_on,0,0,1,,,,,,,,,0,,73,85
13200,note_on,0,0,1,,,,,,,,,0,,69,85
13320,note_on,120,0,1,,,,,,,,,0,,73,0
13320,note_on,0,0,1,,,,,,,,,0,,71,85
13440,note_on,0,0,1,,,,,,,,,0,,76,85
13440,note_on,120,0,1,,,,,,,,,0,,71,0
13560,note_on,0,0,1,,,,,,,,,0,,68,85
13560,note_on,120,0,1,,,,,,,,,0,,69,0
13680,note_on,0,0,1,,,,,,,,,0,,66,85
13680,note_on,120,0,1,,,,,,,,,0,,68,0
13800,note_on,0,0,1,,,,,,,,,0,,64,85
13800,note_on,120,0,1,,,,,,,,,0,,66,0
13920,note_on,0,0,1,,,,,,,,,0,,66,85
13920,note_on,120,0,1,,,,,,,,,0,,64,0
14040,note_on,0,0,1,,,,,,,,,0,,76,85
14040,note_on,120,0,1,,,,,,,,,0,,76,0
14159,text,119,1,1,,,,,,,,,,,,
14160,note_on,1200,0,2,,,,,,,,,1,,59,0
14160,note_on,0,0,1,,,,,,,,,0,,76,85
14160,note_on,1,0,1,,,,,,,,,0,,76,0
14160,text,0,1,1,,,,,,,,,,,,
14160,note_on,0,0,2,,,,,,,,,1,,59,85
14219,note_on,59,0,1,,,,,,,,,0,,76,0
14220,note_on,1,0,1,,,,,,,,,0,,75,85
14249,note_on,29,0,1,,,,,,,,,0,,75,0
14250,note_on,1,0,1,,,,,,,,,0,,76,85
14279,note_on,29,0,1,,,,,,,,,0,,76,0
14280,note_on,1,0,1,,,,,,,,,0,,75,85
14339,note_on,59,0,1,,,,,,,,,0,,75,0
14340,note_on,1,0,1,,,,,,,,,0,,73,85
14400,note_on,0,0,2,,,,,,,,,1,,60,85
14400,note_on,240,0,2,,,,,,,,,1,,59,0
14400,note_on,60,0,1,,,,,,,,,0,,73,0
14400,note_on,0,0,1,,,,,,,,,0,,75,85
14400,note_on,0,0,1,,,,,,,,,0,,75,13
14520,note_on,0,0,1,,,,,,,,,0,,69,85
14520,note_on,120,0,1,,,,,,,,,0,,75,0
14640,note_on,120,0,1,,,,,,,,,0,,69,0
14640,note_on,0,0,1,,,,,,,,,0,,68,85
14760,note_on,0,0,1,,,,,,,,,0,,66,85
14760,note_on,120,0,1,,,,,,,,,0,,66,0
14880,note_on,0,0,1,,,,,,,,,0,,68,0
14880,note_on,0,0,1,,,,,,,,,0,,75,0
14880,note_on,0,0,1,,,,,,,,,0,,64,85
14880,note_on,0,0,2,,,,,,,,,1,,61,85
14880,note_on,480,0,2,,,,,,,,,1,,60,0
14880,note_on,120,0,1,,,,,,,,,0,,66,0
14880,note_on,0,0,1,,,,,,,,,0,,75,85
15000,note_on,120,0,1,,,,,,,,,0,,75,0
15000,note_on,0,0,1,,,,,,,,,0,,68,85
15120,note_on,120,0,1,,,,,,,,,0,,68,0
15120,note_on,0,0,1,,,,,,,,,0,,73,85
15240,note_on,120,0,1,,,,,,,,,0,,64,0
15240,note_on,0,0,1,,,,,,,,,0,,64,85
15360,note_on,480,0,2,,,,,,,,,1,,61,0
15360,note_on,0,0,2,,,,,,,,,1,,56,85
15360,note_on,0,0,1,,,,,,,,,0,,63,85
15360,note_on,120,0,1,,,,,,,,,0,,64,0
15360,note_on,0,0,1,,,,,,,,,0,,73,0
15360,note_on,0,0,1,,,,,,,,,0,,73,85
15480,note_on,120,0,1,,,,,,,,,0,,73,0
15480,note_on,0,0,1,,,,,,,,,0,,75,85
15600,note_on,120,0,1,,,,,,,,,0,,75,0
15600,note_on,0,0,1,,,,,,,,,0,,71,85
15720,note_on,120,0,1,,,,,,,,,0,,63,0
15720,note_on,360,0,2,,,,,,,,,1,,56,0
15720,note_on,0,0,2,,,,,,,,,1,,54,85
15720,note_on,0,0,1,,,,,,,,,0,,68,85
15840,note_on,120,0,2,,,,,,,,,1,,54,0
15840,note_on,0,0,2,,,,,,,,,1,,52,85
15840,note_on,0,0,1,,,,,,,,,0,,71,85
15840,note_on,120,0,1,,,,,,,,,0,,61,85
15872,note_on,32,0,1,,,,,,,,,0,,68,0
15900,note_on,28,0,1,,,,,,,,,0,,71,0
15960,note_on,60,0,1,,,,,,,,,0,,71,0
15960,note_on,0,0,1,,,,,,,,,0,,73,85
16080,note_on,0,0,1,,,,,,,,,0,,69,85
16080,note_on,120,0,1,,,,,,,,,0,,73,0
16080,note_on,240,0,2,,,,,,,,,1,,52,0
16080,note_on,0,0,2,,,,,,,,,1,,54,85
16200,note_on,120,0,1,,,,,,,,,0,,61,0
16200,note_on,0,0,1,,,,,,,,,0,,66,85
16320,note_on,0,0,2,,,,,,,,,1,,51,85
16320,note_on,120,0,1,,,,,,,,,0,,66,0
16320,note_on,0,0,1,,,,,,,,,0,,59,85
16320,note_on,240,0,2,,,,,,,,,1,,54,0
16440,note_on,120,0,1,,,,,,,,,0,,69,0
16440,note_on,0,0,1,,,,,,,,,0,,71,85
16560,note_on,240,0,2,,,,,,,,,1,,51,0
16560,note_on,0,0,2,,,,,,,,,1,,52,85
16560,note_on,0,0,1,,,,,,,,,0,,68,85
16560,note_on,120,0,1,,,,,,,,,0,,71,0
16680,note_on,0,0,1,,,,,,,,,0,,64,85
16680,note_on,120,0,1,,,,,,,,,0,,59,0
16800,note_on,120,0,1,,,,,,,,,0,,64,0
16800,note_on,0,0,2,,,,,,,,,1,,45,85
16800,note_on,0,0,1,,,,,,,,,0,,68,0
16800,note_on,240,0,2,,,,,,,,,1,,52,0
16800,note_on,0,0,1,,,,,,,,,0,,61,85
16920,note_on,0,0,1,,,,,,,,,0,,66,85
16920,note_on,120,0,1,,,,,,,,,0,,61,0
17040,note_on,120,0,1,,,,,,,,,0,,66,0
17040,note_on,0,0,1,,,,,,,,,0,,68,85
17040,note_on,240,0,2,,,,,,,,,1,,54,85
17160,note_on,120,0,1,,,,,,,,,0,,68,0
17160,note_on,0,0,1,,,,,,,,,0,,69,85
17280,note_on,240,0,2,,,,,,,,,1,,54,0
17280,note_on,0,0,1,,,,,,,,,0,,63,85
17280,note_on,120,0,1,,,,,,,,,0,,69,0
17280,note_on,0,0,2,,,,,,,,,1,,45,0
17280,note_on,0,0,2,,,,,,,,,1,,47,85
17400,note_on,120,0,1,,,,,,,,,0,,63,0
17400,note_on,0,0,1,,,,,,,,,0,,68,85
17520,note_on,240,0,2,,,,,,,,,1,,56,85
17520,note_on,120,0,1,,,,,,,,,0,,68,0
17520,note_on,0,0,1,,,,,,,,,0,,69,85
17640,note_on,120,0,1,,,,,,,,,0,,69,0
17640,note_on,0,0,1,,,,,,,,,0,,71,85
17760,note_on,0,0,2,,,,,,,,,1,,47,0
17760,note_on,240,0,2,,,,,,,,,1,,56,0
17760,note_on,120,0,1,,,,,,,,,0,,71,0
17760,note_on,0,0,2,,,,,,,,,1,,49,85
17760,note_on,0,0,1,,,,,,,,,0,,64,85
17880,note_on,0,0,1,,,,,,,,,0,,73,85
17880,note_on,120,0,1,,,,,,,,,0,,64,0
18000,note_on,240,0,2,,,,,,,,,1,,57,85
18000,note_on,0,0,1,,,,,,,,,0,,75,85
18000,note_on,120,0,1,,,,,,,,,0,,73,0
18120,note_on,0,0,1,,,,,,,,,0,,76,85
18120,note_on,120,0,1,,,,,,,,,0,,75,0
18240,note_on,120,0,1,,,,,,,,,0,,76,0
18240,note_on,0,0,1,,,,,,,,,0,,66,85
18240,note_on,0,0,2,,,,,,,,,1,,51,85
18240,note_on,0,0,2,,,,,,,,,1,,49,0
18240,note_on,240,0,2,,,,,,,,,1,,57,0
18360,note_on,120,0,1,,,,,,,,,0,,66,0
18360,note_on,0,0,1,,,,,,,,,0,,73,85
18360,note_on,0,0,1,,,,,,,,,0,,76,85
18480,note_on,0,0,1,,,,,,,,,0,,75,85
18480,note_on,0,0,1,,,,,,,,,0,,73,0
18480,note_on,240,0,2,,,,,,,,,1,,59,85
18480,note_on,120,0,1,,,,,,,,,0,,76,0
18480,note_on,0,0,1,,,,,,,,,0,,71,85
18600,note_on,120,0,1,,,,,,,,,0,,75,0
18600,note_on,0,0,1,,,,,,,,,0,,71,0
18600,note_on,0,0,1,,,,,,,,,0,,69,85
18600,note_on,0,0,1,,,,,,,,,0,,73,85
18720,note_on,120,0,1,,,,,,,,,0,,69,0
18720,note_on,0,0,1,,,,,,,,,0,,68,85
18720,note_on,0,0,1,,,,,,,,,0,,71,85
18720,note_on,0,0,2,,,,,,,,,1,,52,85
18720,note_on,0,0,2,,,,,,,,,1,,51,0
18720,note_on,240,0,2,,,,,,,,,1,,59,0
18720,note_on,0,0,1,,,,,,,,,0,,73,0
18960,note_on,240,0,1,,,,,,,,,0,,71,0
18960,note_on,0,0,2,,,,,,,,,1,,45,85
18960,note_on,240,0,2,,,,,,,,,1,,52,0
18960,note_on,0,0,1,,,,,,,,,0,,68,0
18960,note_on,0,0,1,,,,,,,,,0,,69,85
18960,note_on,0,0,1,,,,,,,,,0,,66,85
19080,note_on,0,0,1,,,,,,,,,0,,69,0
19080,note_on,0,0,1,,,,,,,,,0,,64,85
19080,note_on,120,0,1,,,,,,,,,0,,66,0
19080,note_on,0,0,1,,,,,,,,,0,,68,85
19200,note_on,240,0,2,,,,,,,,,1,,45,0
19200,note_on,0,0,2,,,,,,,,,1,,47,85
19200,note_on,0,0,2,,,,,,,,,1,,47,85
19200,note_on,120,0,1,,,,,,,,,0,,64,0
19200,note_on,0,0,1,,,,,,,,,0,,68,0
19200,note_on,0,0,1,,,,,,,,,0,,68,85
19200,note_on,0,0,1,,,,,,,,,0,,64,85
19439,text,239,1,1,,,,,,,,,,,,
19440,note_on,1,0,1,,,,,,,,,0,,64,0
19440,note_on,0,0,1,,,,,,,,,0,,68,0
19440,note_on,0,0,1,,,,,,,,,0,,63,85
19440,note_on,0,0,1,,,,,,,,,0,,68,85
19440,text,0,1,1,,,,,,,,,,,,
19440,note_on,240,0,2,,,,,,,,,1,,47,0
19440,note_on,0,0,2,,,,,,,,,1,,47,0
19440,note_on,0,0,2,,,,,,,,,1,,35,85
19440,note_on,0,0,2,,,,,,,,,1,,35,85
19469,note_on,29,0,1,,,,,,,,,0,,68,0
19470,note_on,1,0,1,,,,,,,,,0,,66,85
19499,note_on,29,0,1,,,,,,,,,0,,66,0
19500,note_on,1,0,1,,,,,,,,,0,,68,85
19529,note_on,29,0,1,,,,,,,,,0,,68,0
19530,note_on,1,0,1,,,,,,,,,0,,66,85
19559,note_on,29,0,1,,,,,,,,,0,,66,0
19560,note_on,1,0,1,,,,,,,,,0,,64,85
19680,note_on,0,0,2,,,,,,,,,1,,35,0
19680,note_on,240,0,2,,,,,,,,,1,,35,0
19680,note_on,120,0,1,,,,,,,,,0,,64,0
19680,note_on,0,0,1,,,,,,,,,0,,63,0
19680,note_on,0,0,1,,,,,,,,,0,,64,85
19680,note_on,0,0,2,,,,,,,,,1,,40,85
19800,note_on,120,0,1,,,,,,,,,0,,57,85
19920,note_on,240,0,2,,,,,,,,,1,,52,85
19920,note_on,120,0,1,,,,,,,,,0,,57,0
19920,note_on,0,0,1,,,,,,,,,0,,59,85
20040,note_on,0,0,1,,,,,,,,,0,,56,85
20040,note_on,0,0,1,,,,,,,,,0,,64,0
20040,note_on,120,0,1,,,,,,,,,0,,59,0
20160,note_on,120,0,1,,,,,,,,,0,,56,0
20160,note_on,240,0,2,,,,,,,,,1,,52,0
20160,note_on,0,0,2,,,,,,,,,1,,54,85
20190,note_on,30,0,1,,,,,,,,,0,,57,85
20280,note_on,90,0,1,,,,,,,,,0,,61,85
20400,note_on,120,0,1,,,,,,,,,0,,61,0
20400,note_on,0,0,1,,,,,,,,,0,,69,85
20520,note_on,120,0,1,,,,,,,,,0,,69,0
20520,note_on,0,0,1,,,,,,,,,0,,63,85
20576,note_on,416,0,2,,,,,,,,,1,,40,0
20640,note_on,0,0,1,,,,,,,,,0,,57,0
20640,note_on,120,0,1,,,,,,,,,0,,63,0
20640,note_on,0,0,2,,,,,,,,,1,,40,85
20640,note_on,64,0,2,,,,,,,,,1,,54,0
20672,note_on,32,0,2,,,,,,,,,1,,52,85
20700,note_on,60,0,1,,,,,,,,,0,,56,85
20730,note_on,30,0,1,,,,,,,,,0,,59,85
20760,note_on,30,0,1,,,,,,,,,0,,64,85
21116,note_on,356,0,1,,,,,,,,,0,,64,0
21120,note_on,0,0,2,,,,,,,,,1,,40,0
21120,note_on,448,0,2,,,,,,,,,1,,52,0
21120,note_on,4,0,1,,,,,,,,,0,,59,0
21120,note_on,0,0,1,,,,,,,,,0,,56,0
21240,note_on,120,0,2,,,,,,,,,1,,57,85
21240,marker,20760,1,0,,,,,,,,,,,,
21360,note_on,0,0,2,,,,,,,,,1,,57,85
21360,note_on,120,0,2,,,,,,,,,1,,57,0
21419,note_on,59,0,2,,,,,,,,,1,,57,0
21420,note_on,1,0,2,,,,,,,,,1,,56,85
21449,note_on,29,0,2,,,,,,,,,1,,56,0
21450,note_on,1,0,2,,,,,,,,,1,,57,85
21479,note_on,29,0,2,,,,,,,,,1,,57,0
21480,note_on,1,0,2,,,,,,,,,1,,56,85
21539,note_on,59,0,2,,,,,,,,,1,,56,0
21540,note_on,1,0,2,,,,,,,,,1,,54,85
21600,note_on,60,0,2,,,,,,,,,1,,54,0
21600,note_on,0,0,2,,,,,,,,,1,,52,85
21720,note_on,600,0,1,,,,,,,,,0,,64,85
21840,text,0,1,1,,,,,,,,,,,,
21840,note_on,120,0,1,,,,,,,,,0,,64,0
21840,note_on,0,0,1,,,,,,,,,0,,66,100
21840,note_on,240,0,2,,,,,,,,,1,,52,0
21840,note_on,0,0,2,,,,,,,,,1,,50,85
21869,note_on,29,0,1,,,,,,,,,0,,66,0
21870,note_on,1,0,1,,,,,,,,,0,,64,100
21899,note_on,29,0,1,,,,,,,,,0,,64,0
21900,note_on,1,0,1,,,,,,,,,0,,66,100
22019,note_on,119,0,1,,,,,,,,,0,,66,0
22020,note_on,1,0,1,,,,,,,,,0,,68,85
22080,note_on,0,0,2,,,,,,,,,1,,49,85
22080,note_on,60,0,1,,,,,,,,,0,,68,0
22080,note_on,0,0,1,,,,,,,,,0,,69,85
22080,note_on,240,0,2,,,,,,,,,1,,50,0
22200,note_on,120,0,2,,,,,,,,,1,,52,85
22320,note_on,0,0,2,,,,,,,,,1,,49,0
22320,note_on,0,0,2,,,,,,,,,1,,54,85
22320,note_on,0,0,2,,,,,,,,,1,,47,85
22320,note_on,0,0,1,,,,,,,,,0,,74,85
22320,note_on,240,0,1,,,,,,,,,0,,69,0
22320,note_on,120,0,2,,,,,,,,,1,,52,0
22440,note_on,120,0,2,,,,,,,,,1,,54,0
22440,note_on,0,0,2,,,,,,,,,1,,56,85
22560,note_on,120,0,2,,,,,,,,,1,,56,0
22560,note_on,0,0,2,,,,,,,,,1,,47,0
22560,note_on,0,0,2,,,,,,,,,1,,45,85
22560,note_on,0,0,2,,,,,,,,,1,,57,85
22560,note_on,0,0,1,,,,,,,,,0,,73,85
22560,note_on,240,0,1,,,,,,,,,0,,74,0
22680,note_on,120,0,1,,,,,,,,,0,,81,85
22799,text,119,1,1,,,,,,,,,,,,
22800,note_on,0,0,1,,,,,,,,,0,,81,100
22800,note_on,1,0,1,,,,,,,,,0,,81,0
22800,note_on,0,0,2,,,,,,,,,1,,59,85
22800,note_on,240,0,2,,,,,,,,,1,,57,0
22800,text,0,1,1,,,,,,,,,,,,
22829,note_on,29,0,1,,,,,,,,,0,,81,0
22830,note_on,1,0,1,,,,,,,,,0,,80,100
22859,note_on,29,0,1,,,,,,,,,0,,80,0
22860,note_on,1,0,1,,,,,,,,,0,,81,100
22889,note_on,29,0,1,,,,,,,,,0,,81,0
22890,note_on,1,0,1,,,,,,,,,0,,80,100
22919,note_on,29,0,1,,,,,,,,,0,,80,0
22920,note_on,1,0,1,,,,,,,,,0,,78,100
23040,note_on,120,0,1,,,,,,,,,0,,78,0
23040,note_on,0,0,1,,,,,,,,,0,,73,0
23040,note_on,0,0,1,,,,,,,,,0,,76,85
23040,note_on,0,0,2,,,,,,,,,1,,61,85
23040,note_on,0,0,2,,,,,,,,,1,,45,0
23040,note_on,240,0,2,,,,,,,,,1,,59,0
23160,note_on,120,0,1,,,,,,,,,0,,64,85
23280,note_on,0,0,2,,,,,,,,,1,,62,85
23280,note_on,240,0,2,,,,,,,,,1,,61,0
23280,note_on,0,0,1,,,,,,,,,0,,74,85
23280,note_on,0,0,1,,,,,,,,,0,,66,85
23280,note_on,0,0,1,,,,,,,,,0,,76,0
23280,note_on,120,0,1,,,,,,,,,0,,64,0
23400,note_on,0,0,2,,,,,,,,,1,,64,85
23400,note_on,120,0,2,,,,,,,,,1,,62,0
23400,note_on,120,0,1,,,,,,,,,0,,66,0
23400,note_on,0,0,1,,,,,,,,,0,,68,85
23520,note_on,0,0,2,,,,,,,,,1,,57,85
23520,note_on,120,0,2,,,,,,,,,1,,64,0
23520,note_on,0,0,1,,,,,,,,,0,,74,0
23520,note_on,0,0,1,,,,,,,,,0,,73,85
23520,note_on,120,0,1,,,,,,,,,0,,68,0
23640,note_on,120,0,1,,,,,,,,,0,,64,85
23700,note_on,60,0,1,,,,,,,,,0,,73,0
23760,note_on,0,0,2,,,,,,,,,1,,56,85
23760,note_on,240,0,2,,,,,,,,,1,,57,0
23760,note_on,60,0,1,,,,,,,,,0,,73,85
23880,note_on,0,0,1,,,,,,,,,0,,64,85
23880,note_on,0,0,1,,,,,,,,,0,,71,85
23880,note_on,0,0,1,,,,,,,,,0,,71,85
23880,note_on,0,0,1,,,,,,,,,0,,64,0
23880,note_on,120,0,1,,,,,,,,,0,,73,0
23999,text,119,1,1,,,,,,,,,,,,
24000,note_on,0,0,2,,,,,,,,,1,,54,85
24000,note_on,240,0,2,,,,,,,,,1,,56,0
24000,text,0,1,1,,,,,,,,,,,,
24000,note_on,0,0,1,,,,,,,,,0,,71,85
24000,note_on,0,0,1,,,,,,,,,0,,71,0
24000,note_on,1,0,1,,,,,,,,,0,,71,0
24059,note_on,59,0,1,,,,,,,,,0,,71,0
24060,note_on,1,0,1,,,,,,,,,0,,69,85
24089,note_on,29,0,1,,,,,,,,,0,,69,0
24090,note_on,1,0,1,,,,,,,,,0,,71,85
24119,note_on,29,0,1,,,,,,,,,0,,71,0
24120,note_on,0,0,1,,,,,,,,,0,,69,85
24120,note_on,1,0,1,,,,,,,,,0,,64,0
24120,note_on,0,0,1,,,,,,,,,0,,64,85
24149,note_on,29,0,1,,,,,,,,,0,,69,0
24150,note_on,1,0,1,,,,,,,,,0,,71,85
24179,note_on,29,0,1,,,,,,,,,0,,71,0
24180,note_on,1,0,1,,,,,,,,,0,,69,85
24240,note_on,60,0,1,,,,,,,,,0,,64,0
24240,note_on,0,0,1,,,,,,,,,0,,63,85
24359,note_on,119,0,1,,,,,,,,,0,,69,0
24360,note_on,360,0,2,,,,,,,,,1,,54,0
24360,note_on,1,0,1,,,,,,,,,0,,71,85
24360,note_on,0,0,2,,,,,,,,,1,,54,85
24480,note_on,0,0,1,,,,,,,,,0,,63,0
24480,note_on,0,0,1,,,,,,,,,0,,69,85
24480,note_on,0,0,2,,,,,,,,,1,,52,85
24480,note_on,120,0,2,,,,,,,,,1,,54,0
24480,note_on,120,0,1,,,,,,,,,0,,71,0
24600,note_on,120,0,1,,,,,,,,,0,,69,0
24600,note_on,0,0,1,,,,,,,,,0,,68,85
24600,note_on,120,0,2,,,,,,,,,1,,59,85
24720,note_on,120,0,2,,,,,,,,,1,,59,0
24720,note_on,0,0,2,,,,,,,,,1,,61,85
24720,note_on,0,0,1,,,,,,,,,0,,69,85
24720,note_on,120,0,1,,,,,,,,,0,,68,0
24840,note_on,0,0,1,,,,,,,,,0,,71,85
24840,note_on,120,0,1,,,,,,,,,0,,69,0
24840,note_on,120,0,2,,,,,,,,,1,,61,0
24840,note_on,0,0,2,,,,,,,,,1,,52,0
24840,note_on,0,0,2,,,,,,,,,1,,62,85
24840,note_on,0,0,2,,,,,,,,,1,,50,85
24960,note_on,0,0,1,,,,,,,,,0,,64,85
24960,note_on,120,0,1,,,,,,,,,0,,71,0
24960,note_on,120,0,2,,,,,,,,,1,,50,0
24960,note_on,0,0,2,,,,,,,,,1,,49,85
24960,note_on,0,0,2,,,,,,,,,1,,62,0
25080,note_on,0,0,1,,,,,,,,,0,,69,85
25080,note_on,120,0,1,,,,,,,,,0,,64,0
25200,note_on,120,0,1,,,,,,,,,0,,69,0
25200,note_on,240,0,2,,,,,,,,,1,,52,85
25200,note_on,0,0,1,,,,,,,,,0,,71,85
25320,note_on,120,0,1,,,,,,,,,0,,71,0
25320,note_on,0,0,1,,,,,,,,,0,,73,85
25440,note_on,240,0,2,,,,,,,,,1,,52,0
25440,note_on,0,0,2,,,,,,,,,1,,49,0
25440,note_on,0,0,2,,,,,,,,,1,,54,85
25440,note_on,0,0,2,,,,,,,,,1,,50,85
25440,note_on,0,0,1,,,,,,,,,0,,66,85
25440,note_on,120,0,1,,,,,,,,,0,,73,0
25560,note_on,120,0,1,,,,,,,,,0,,66,0
25560,note_on,0,0,1,,,,,,,,,0,,74,85
25680,note_on,240,0,2,,,,,,,,,1,,50,0
25680,note_on,0,0,2,,,,,,,,,1,,54,0
25680,note_on,0,0,2,,,,,,,,,1,,52,85
25680,note_on,0,0,2,,,,,,,,,1,,49,85
25680,note_on,120,0,1,,,,,,,,,0,,74,0
25680,note_on,0,0,1,,,,,,,,,0,,76,85
25800,note_on,120,0,1,,,,,,,,,0,,76,0
25800,note_on,0,0,1,,,,,,,,,0,,78,85
25920,note_on,0,0,2,,,,,,,,,1,,52,0
25920,note_on,0,0,2,,,,,,,,,1,,54,85
25920,note_on,120,0,1,,,,,,,,,0,,78,0
25920,text,0,1,1,,,,,,,,,,,,
25920,note_on,0,0,1,,,,,,,,,0,,76,85
25920,note_on,240,0,2,,,,,,,,,1,,49,0
25920,note_on,0,0,2,,,,,,,,,1,,47,85
25979,note_on,59,0,1,,,,,,,,,0,,76,0
25980,note_on,1,0,1,,,,,,,,,0,,74,85
26009,note_on,29,0,1,,,,,,,,,0,,74,0
26010,note_on,1,0,1,,,,,,,,,0,,76,85
26039,note_on,29,0,1,,,,,,,,,0,,76,0
26040,note_on,1,0,1,,,,,,,,,0,,74,85
26069,note_on,29,0,1,,,,,,,,,0,,74,0
26070,note_on,1,0,1,,,,,,,,,0,,76,85
26099,note_on,29,0,1,,,,,,,,,0,,76,0
26100,note_on,1,0,1,,,,,,,,,0,,74,85
26160,note_on,240,0,2,,,,,,,,,1,,54,0
26160,note_on,0,0,2,,,,,,,,,1,,56,85
26279,note_on,179,0,1,,,,,,,,,0,,74,0
26280,note_on,1,0,1,,,,,,,,,0,,73,85
26400,note_on,120,0,1,,,,,,,,,0,,73,0
26400,note_on,0,0,1,,,,,,,,,0,,73,85
26400,note_on,0,0,2,,,,,,,,,1,,47,0
26400,note_on,240,0,2,,,,,,,,,1,,56,0
26400,note_on,0,0,2,,,,,,,,,1,,54,85
26430,note_on,30,0,2,,,,,,,,,1,,57,85
26520,note_on,90,0,2,,,,,,,,,1,,45,85
26520,note_on,120,0,1,,,,,,,,,0,,61,85
26640,note_on,120,0,2,,,,,,,,,1,,45,0
26640,note_on,120,0,1,,,,,,,,,0,,61,0
26640,note_on,0,0,1,,,,,,,,,0,,63,85
26640,note_on,0,0,2,,,,,,,,,1,,47,85
26760,note_on,0,0,2,,,,,,,,,1,,49,85
26760,note_on,120,0,1,,,,,,,,,0,,63,0
26760,note_on,0,0,1,,,,,,,,,0,,65,85
26760,note_on,120,0,2,,,,,,,,,1,,47,0
26879,text,119,1,2,,,,,,,,,,,,
26880,note_on,120,0,1,,,,,,,,,0,,65,0
26880,text,0,1,2,,,,,,,,,,,,
26880,note_on,0,0,2,,,,,,,,,1,,50,85
26880,note_on,0,0,2,,,,,,,,,1,,54,0
26880,note_on,1,0,2,,,,,,,,,1,,49,0
26880,note_on,0,0,1,,,,,,,,,0,,66,85
26880,note_on,0,0,2,,,,,,,,,1,,57,0
26909,note_on,29,0,2,,,,,,,,,1,,50,0
26910,note_on,1,0,2,,,,,,,,,1,,49,85
26912,note_on,32,0,1,,,,,,,,,0,,66,0
26912,note_on,0,0,1,,,,,,,,,0,,65,85
26939,note_on,29,0,2,,,,,,,,,1,,49,0
26940,note_on,1,0,2,,,,,,,,,1,,50,85
26944,note_on,32,0,1,,,,,,,,,0,,65,0
26944,note_on,0,0,1,,,,,,,,,0,,66,85
26969,note_on,29,0,2,,,,,,,,,1,,50,0
26970,note_on,1,0,2,,,,,,,,,1,,49,85
26999,note_on,29,0,2,,,,,,,,,1,,49,0
27000,note_on,1,0,2,,,,,,,,,1,,50,85
27120,note_on,0,0,1,,,,,,,,,0,,71,85
27120,note_on,176,0,1,,,,,,,,,0,,73,0
27239,note_on,239,0,2,,,,,,,,,1,,50,0
27240,note_on,1,0,2,,,,,,,,,1,,47,85
27240,note_on,120,0,1,,,,,,,,,0,,68,85
27360,note_on,120,0,2,,,,,,,,,1,,47,0
27360,note_on,0,0,2,,,,,,,,,1,,49,85
27360,note_on,120,0,1,,,,,,,,,0,,68,0
27360,note_on,0,0,1,,,,,,,,,0,,66,0
27360,note_on,0,0,1,,,,,,,,,0,,65,85
27480,note_on,120,0,1,,,,,,,,,0,,71,0
27480,note_on,0,0,1,,,,,,,,,0,,73,85
27600,note_on,120,0,1,,,,,,,,,0,,73,0
27600,note_on,0,0,1,,,,,,,,,0,,65,0
27600,note_on,0,0,2,,,,,,,,,1,,42,85
27600,note_on,240,0,2,,,,,,,,,1,,49,0
27600,note_on,0,0,1,,,,,,,,,0,,69,85
27600,note_on,0,0,1,,,,,,,,,0,,66,85
27720,note_on,120,0,1,,,,,,,,,0,,69,0
27720,note_on,0,0,1,,,,,,,,,0,,71,85
27840,note_on,120,0,1,,,,,,,,,0,,71,0
27840,text,0,1,1,,,,,,,,,,,,
27840,note_on,0,0,1,,,,,,,,,0,,69,100
27840,note_on,240,0,2,,,,,,,,,1,,42,0
27840,note_on,0,0,2,,,,,,,,,1,,49,85
27840,text,0,1,1,,,,,,,,,,,,
27899,note_on,59,0,1,,,,,,,,,0,,69,0
27900,note_on,1,0,1,,,,,,,,,0,,68,100
27929,note_on,29,0,1,,,,,,,,,0,,68,0
27930,note_on,1,0,1,,,,,,,,,0,,69,100
27959,note_on,29,0,1,,,,,,,,,0,,69,0
27960,note_on,1,0,1,,,,,,,,,0,,68,100
27989,note_on,29,0,1,,,,,,,,,0,,68,0
27990,note_on,1,0,1,,,,,,,,,0,,69,100
28019,note_on,29,0,1,,,,,,,,,0,,69,0
28020,note_on,1,0,1,,,,,,,,,0,,68,100
28079,note_on,59,0,1,,,,,,,,,0,,68,0
28080,note_on,0,0,2,,,,,,,,,1,,37,85
28080,note_on,0,0,1,,,,,,,,,0,,65,85
28080,note_on,0,0,1,,,,,,,,,0,,70,85
28080,note_on,1,0,1,,,,,,,,,0,,66,0
28080,note_on,240,0,2,,,,,,,,,1,,49,0
28200,note_on,0,0,1,,,,,,,,,0,,71,85
28200,note_on,120,0,1,,,,,,,,,0,,70,0
28320,note_on,240,0,2,,,,,,,,,1,,37,0
28320,note_on,0,0,1,,,,,,,,,0,,65,0
28320,note_on,120,0,1,,,,,,,,,0,,71,0
28320,note_on,0,0,1,,,,,,,,,0,,70,85
28320,note_on,0,0,2,,,,,,,,,1,,54,85
28320,note_on,0,0,2,,,,,,,,,1,,42,85
28440,note_on,120,0,1,,,,,,,,,0,,66,85
28560,note_on,120,0,1,,,,,,,,,0,,66,0
28560,note_on,0,0,1,,,,,,,,,0,,64,85
28680,note_on,360,0,2,,,,,,,,,1,,54,0
28680,note_on,0,0,2,,,,,,,,,1,,61,85
28680,note_on,0,0,1,,,,,,,,,0,,61,85
28680,note_on,120,0,1,,,,,,,,,0,,64,0
28800,note_on,0,0,1,,,,,,,,,0,,66,85
28800,note_on,120,0,1,,,,,,,,,0,,61,0
28800,note_on,0,0,1,,,,,,,,,0,,70,0
28800,note_on,0,0,2,,,,,,,,,1,,62,85
28800,note_on,0,0,2,,,,,,,,,1,,42,0
28800,note_on,120,0,2,,,,,,,,,1,,61,0
28920,note_on,120,0,1,,,,,,,,,0,,78,85
29040,note_on,120,0,1,,,,,,,,,0,,78,0
29040,note_on,0,0,1,,,,,,,,,0,,66,0
29040,note_on,0,0,1,,,,,,,,,0,,70,85
29040,note_on,0,0,1,,,,,,,,,0,,76,85
29040,note_on,240,0,2,,,,,,,,,1,,62,0
29040,note_on,0,0,2,,,,,,,,,1,,61,85
29160,note_on,120,0,1,,,,,,,,,0,,76,0
29160,note_on,0,0,1,,,,,,,,,0,,73,85
29279,text,119,1,1,,,,,,,,,,,,
29280,note_on,1,0,1,,,,,,,,,0,,73,0
29280,note_on,0,0,1,,,,,,,,,0,,70,0
29280,note_on,0,0,1,,,,,,,,,0,,71,85
29280,text,0,1,1,,,,,,,,,,,,
29280,note_on,240,0,2,,,,,,,,,1,,61,0
29280,note_on,0,0,1,,,,,,,,,0,,74,85
29280,note_on,0,0,2,,,,,,,,,1,,59,85
29309,note_on,29,0,1,,,,,,,,,0,,74,0
29310,note_on,1,0,1,,,,,,,,,0,,73,85
29339,note_on,29,0,1,,,,,,,,,0,,73,0
29340,note_on,1,0,1,,,,,,,,,0,,74,85
29519,note_on,179,0,1,,,,,,,,,0,,74,0
29520,note_on,1,0,1,,,,,,,,,0,,71,0
29520,note_on,240,0,2,,,,,,,,,1,,62,85
29520,note_on,0,0,1,,,,,,,,,0,,73,85
29640,note_on,0,0,1,,,,,,,,,0,,71,85
29640,note_on,120,0,1,,,,,,,,,0,,73,0
29759,text,119,1,1,,,,,,,,,,,,
29760,text,0,1,1,,,,,,,,,,,,
29760,note_on,240,0,2,,,,,,,,,1,,62,0
29760,note_on,0,0,1,,,,,,,,,0,,71,85
29760,note_on,0,0,2,,,,,,,,,1,,59,0
29760,note_on,0,0,2,,,,,,,,,1,,61,85
29760,note_on,0,0,2,,,,,,,,,1,,64,85
29760,note_on,1,0,1,,,,,,,,,0,,71,0
29819,note_on,59,0,1,,,,,,,,,0,,71,0
29820,note_on,1,0,1,,,,,,,,,0,,69,85
29849,note_on,29,0,1,,,,,,,,,0,,69,0
29850,note_on,1,0,1,,,,,,,,,0,,71,85
29879,note_on,29,0,1,,,,,,,,,0,,71,0
29880,note_on,1,0,1,,,,,,,,,0,,69,85
29909,note_on,29,0,1,,,,,,,,,0,,69,0
29910,note_on,1,0,1,,,,,,,,,0,,71,85
29939,note_on,29,0,1,,,,,,,,,0,,71,0
29940,note_on,1,0,1,,,,,,,,,0,,69,85
30000,note_on,0,0,2,,,,,,,,,1,,66,85
30000,note_on,0,0,2,,,,,,,,,1,,63,85
30000,note_on,240,0,2,,,,,,,,,1,,64,0
30000,note_on,0,0,2,,,,,,,,,1,,61,0
30060,note_on,120,0,1,,,,,,,,,0,,68,85
30119,note_on,59,0,1,,,,,,,,,0,,69,0
30120,note_on,0,0,1,,,,,,,,,0,,69,85
30120,note_on,1,0,1,,,,,,,,,0,,68,0
30180,note_on,60,0,1,,,,,,,,,0,,69,0
30180,note_on,0,0,1,,,,,,,,,0,,71,85
30240,note_on,60,0,1,,,,,,,,,0,,71,0
30240,note_on,240,0,2,,,,,,,,,1,,63,0
30240,note_on,0,0,2,,,,,,,,,1,,66,0
30240,note_on,0,0,2,,,,,,,,,1,,64,85
30240,note_on,0,0,1,,,,,,,,,0,,68,85
30360,note_on,120,0,2,,,,,,,,,1,,59,85
30480,note_on,120,0,2,,,,,,,,,1,,59,0
30480,note_on,0,0,2,,,,,,,,,1,,52,85
30600,note_on,0,0,1,,,,,,,,,0,,69,85
30600,note_on,0,0,2,,,,,,,,,1,,54,85
30600,note_on,360,0,1,,,,,,,,,0,,68,0
30600,note_on,120,0,2,,,,,,,,,1,,52,0
30720,note_on,120,0,2,,,,,,,,,1,,54,0
30720,note_on,0,0,2,,,,,,,,,1,,64,0
30720,note_on,0,0,2,,,,,,,,,1,,56,85
30720,note_on,120,0,1,,,,,,,,,0,,69,0
30720,note_on,0,0,1,,,,,,,,,0,,71,85
30840,note_on,0,0,1,,,,,,,,,0,,71,85
30840,note_on,120,0,1,,,,,,,,,0,,71,0
30960,note_on,240,0,2,,,,,,,,,1,,64,85
30960,note_on,0,0,1,,,,,,,,,0,,73,85
30960,note_on,120,0,1,,,,,,,,,0,,71,0
31080,note_on,120,0,1,,,,,,,,,0,,73,0
31080,note_on,0,0,1,,,,,,,,,0,,74,85
31200,note_on,0,0,2,,,,,,,,,1,,57,85
31200,note_on,0,0,1,,,,,,,,,0,,73,85
31200,note_on,120,0,1,,,,,,,,,0,,74,0
31200,note_on,240,0,2,,,,,,,,,1,,64,0
31200,note_on,0,0,2,,,,,,,,,1,,56,0
31320,note_on,120,0,1,,,,,,,,,0,,64,85
31440,note_on,120,0,1,,,,,,,,,0,,64,0
31440,note_on,0,0,1,,,,,,,,,0,,66,85
31440,note_on,0,0,2,,,,,,,,,1,,56,85
31440,note_on,240,0,2,,,,,,,,,1,,57,0
31560,note_on,120,0,1,,,,,,,,,0,,66,0
31560,note_on,0,0,1,,,,,,,,,0,,68,85
31680,note_on,120,0,1,,,,,,,,,0,,68,0
31680,note_on,240,0,2,,,,,,,,,1,,56,0
31680,note_on,0,0,2,,,,,,,,,1,,54,85
31680,note_on,0,0,1,,,,,,,,,0,,69,85
31800,note_on,0,0,1,,,,,,,,,0,,73,85
31800,note_on,120,0,1,,,,,,,,,0,,73,0
31920,note_on,0,0,1,,,,,,,,,0,,69,0
31920,note_on,0,0,1,,,,,,,,,0,,68,85
31920,note_on,0,0,1,,,,,,,,,0,,75,85
31920,note_on,120,0,1,,,,,,,,,0,,73,0
31920,note_on,240,0,2,,,,,,,,,1,,54,0
31920,note_on,0,0,2,,,,,,,,,1,,52,85
32040,note_on,120,0,1,,,,,,,,,0,,75,0
32040,note_on,0,0,1,,,,,,,,,0,,76,85
32159,text,119,1,1,,,,,,,,,,,,
32160,note_on,240,0,2,,,,,,,,,1,,52,0
32160,note_on,0,0,2,,,,,,,,,1,,47,85
32160,note_on,1,0,1,,,,,,,,,0,,76,0
32160,note_on,0,0,1,,,,,,,,,0,,68,0
32160,note_on,0,0,1,,,,,,,,,0,,66,85
32160,note_on,0,0,1,,,,,,,,,0,,76,85
32160,text,0,1,1,,,,,,,,,,,,
32219,note_on,59,0,1,,,,,,,,,0,,76,0
32220,note_on,1,0,1,,,,,,,,,0,,75,85
32249,note_on,29,0,1,,,,,,,,,0,,75,0
32250,note_on,1,0,1,,,,,,,,,0,,76,85
32279,note_on,29,0,1,,,,,,,,,0,,76,0
32280,note_on,1,0,1,,,,,,,,,0,,75,85
32280,note_on,120,0,2,,,,,,,,,1,,59,85
32309,note_on,29,0,1,,,,,,,,,0,,75,0
32310,note_on,1,0,1,,,,,,,,,0,,76,85
32339,note_on,29,0,1,,,,,,,,,0,,76,0
32340,note_on,1,0,1,,,,,,,,,0,,75,85
32400,note_on,120,0,2,,,,,,,,,1,,59,0
32400,note_on,0,0,2,,,,,,,,,1,,57,85
32520,note_on,0,0,2,,,,,,,,,1,,54,85
32520,note_on,120,0,2,,,,,,,,,1,,57,0
32639,note_on,299,0,1,,,,,,,,,0,,75,0
32640,note_on,0,0,2,,,,,,,,,1,,55,85
32640,note_on,0,0,2,,,,,,,,,1,,47,0
32640,note_on,120,0,2,,,,,,,,,1,,54,0
32640,note_on,1,0,1,,,,,,,,,0,,66,0
32760,note_on,120,0,1,,,,,,,,,0,,83,85
32760,note_on,120,0,2,,,,,,,,,1,,64,85
32880,note_on,0,0,1,,,,,,,,,0,,81,85
32880,note_on,120,0,1,,,,,,,,,0,,83,0
32880,note_on,0,0,2,,,,,,,,,1,,54,85
32880,note_on,120,0,2,,,,,,,,,1,,55,0
33000,note_on,0,0,1,,,,,,,,,0,,78,85
33000,note_on,120,0,1,,,,,,,,,0,,81,0
33000,note_on,0,0,2,,,,,,,,,1,,63,85
33000,note_on,120,0,2,,,,,,,,,1,,64,0
33120,note_on,0,0,2,,,,,,,,,1,,52,85
33120,note_on,120,0,2,,,,,,,,,1,,63,0
33120,note_on,0,0,2,,,,,,,,,1,,54,0
33120,note_on,120,0,1,,,,,,,,,0,,78,0
33120,note_on,0,0,1,,,,,,,,,0,,79,85
33240,note_on,120,0,1,,,,,,,,,0,,64,85
33240,note_on,120,0,2,,,,,,,,,1,,52,0
33360,note_on,120,0,1,,,,,,,,,0,,64,0
33360,note_on,0,0,1,,,,,,,,,0,,79,0
33360,note_on,0,0,1,,,,,,,,,0,,62,85
33360,note_on,0,0,1,,,,,,,,,0,,78,85
33480,note_on,120,0,1,,,,,,,,,0,,62,0
33480,note_on,0,0,1,,,,,,,,,0,,71,85
33600,note_on,360,0,2,,,,,,,,,1,,60,85
33600,note_on,120,0,1,,,,,,,,,0,,78,0
33600,note_on,0,0,1,,,,,,,,,0,,76,85
33720,note_on,120,0,1,,,,,,,,,0,,71,0
33720,note_on,0,0,1,,,,,,,,,0,,71,85
33840,note_on,0,0,1,,,,,,,,,0,,69,85
33840,note_on,120,0,1,,,,,,,,,0,,71,0
33960,note_on,0,0,1,,,,,,,,,0,,78,85
33960,note_on,120,0,1,,,,,,,,,0,,76,0
33960,note_on,0,0,2,,,,,,,,,1,,60,85
33960,note_on,360,0,2,,,,,,,,,1,,60,0
34080,note_on,120,0,1,,,,,,,,,0,,78,0
34080,note_on,0,0,1,,,,,,,,,0,,76,85
34080,note_on,0,0,2,,,,,,,,,1,,59,85
34080,note_on,0,0,1,,,,,,,,,0,,69,0
34080,note_on,120,0,2,,,,,,,,,1,,60,0
34108,note_on,28,0,1,,,,,,,,,0,,69,85
34200,note_on,0,0,1,,,,,,,,,0,,75,85
34200,note_on,92,0,1,,,,,,,,,0,,76,0
34296,note_on,96,0,1,,,,,,,,,0,,75,0
34320,note_on,0,0,1,,,,,,,,,0,,73,85
34320,note_on,0,0,1,,,,,,,,,0,,69,85
34320,note_on,24,0,1,,,,,,,,,0,,69,0
34440,note_on,0,0,1,,,,,,,,,0,,71,85
34440,note_on,120,0,1,,,,,,,,,0,,73,0
34560,note_on,0,0,1,,,,,,,,,0,,76,85
34560,note_on,120,0,1,,,,,,,,,0,,71,0
34680,note_on,0,0,1,,,,,,,,,0,,68,85
34680,note_on,120,0,1,,,,,,,,,0,,69,0
34800,note_on,0,0,1,,,,,,,,,0,,66,85
34800,note_on,120,0,1,,,,,,,,,0,,68,0
34920,note_on,0,0,1,,,,,,,,,0,,64,85
34920,note_on,120,0,1,,,,,,,,,0,,66,0
35040,note_on,120,0,1,,,,,,,,,0,,64,0
35040,note_on,0,0,1,,,,,,,,,0,,66,85
35160,note_on,120,0,1,,,,,,,,,0,,76,0
35160,note_on,0,0,1,,,,,,,,,0,,76,85
35279,text,119,1,1,,,,,,,,,,,,
35280,note_on,1,0,1,,,,,,,,,0,,76,0
35280,note_on,0,0,2,,,,,,,,,1,,59,85
35280,note_on,1200,0,2,,,,,,,,,1,,59,0
35280,note_on,0,0,1,,,,,,,,,0,,76,85
35280,text,0,1,1,,,,,,,,,,,,
35339,note_on,59,0,1,,,,,,,,,0,,76,0
35340,note_on,1,0,1,,,,,,,,,0,,75,85
35369,note_on,29,0,1,,,,,,,,,0,,75,0
35370,note_on,1,0,1,,,,,,,,,0,,76,85
35399,note_on,29,0,1,,,,,,,,,0,,76,0
35400,note_on,1,0,1,,,,,,,,,0,,75,85
35459,note_on,59,0,1,,,,,,,,,0,,75,0
35460,note_on,1,0,1,,,,,,,,,0,,73,85
35520,note_on,60,0,1,,,,,,,,,0,,73,0
35520,note_on,0,0,1,,,,,,,,,0,,75,13
35520,note_on,0,0,1,,,,,,,,,0,,75,85
35520,note_on,0,0,2,,,,,,,,,1,,60,85
35520,note_on,240,0,2,,,,,,,,,1,,59,0
35640,note_on,0,0,1,,,,,,,,,0,,69,85
35640,note_on,120,0,1,,,,,,,,,0,,75,0
35760,note_on,0,0,1,,,,,,,,,0,,68,85
35760,note_on,120,0,1,,,,,,,,,0,,69,0
35880,note_on,0,0,1,,,,,,,,,0,,66,85
35880,note_on,120,0,1,,,,,,,,,0,,66,0
36000,note_on,0,0,1,,,,,,,,,0,,64,85
36000,note_on,0,0,1,,,,,,,,,0,,75,85
36000,note_on,0,0,1,,,,,,,,,0,,68,0
36000,note_on,120,0,1,,,,,,,,,0,,66,0
36000,note_on,0,0,1,,,,,,,,,0,,75,0
36000,note_on,480,0,2,,,,,,,,,1,,60,0
36000,note_on,0,0,2,,,,,,,,,1,,61,85
36120,note_on,120,0,1,,,,,,,,,0,,75,0
36120,note_on,0,0,1,,,,,,,,,0,,68,85
36240,note_on,0,0,1,,,,,,,,,0,,73,85
36240,note_on,120,0,1,,,,,,,,,0,,68,0
36330,note_on,90,0,1,,,,,,,,,0,,64,0
36360,note_on,30,0,1,,,,,,,,,0,,64,85
36480,note_on,0,0,1,,,,,,,,,0,,73,85
36480,note_on,0,0,1,,,,,,,,,0,,73,0
36480,note_on,120,0,1,,,,,,,,,0,,64,0
36480,note_on,0,0,2,,,,,,,,,1,,56,85
36480,note_on,480,0,2,,,,,,,,,1,,61,0
36480,note_on,0,0,1,,,,,,,,,0,,63,85
36600,note_on,0,0,1,,,,,,,,,0,,75,85
36600,note_on,120,0,1,,,,,,,,,0,,73,0
36720,note_on,0,0,1,,,,,,,,,0,,71,85
36720,note_on,120,0,1,,,,,,,,,0,,75,0
36840,note_on,0,0,2,,,,,,,,,1,,54,85
36840,note_on,360,0,2,,,,,,,,,1,,56,0
36840,note_on,0,0,1,,,,,,,,,0,,68,85
36840,note_on,120,0,1,,,,,,,,,0,,63,0
36960,note_on,0,0,1,,,,,,,,,0,,61,85
36960,note_on,0,0,2,,,,,,,,,1,,52,85
36960,note_on,120,0,2,,,,,,,,,1,,54,0
36960,note_on,120,0,1,,,,,,,,,0,,71,85
36992,note_on,32,0,1,,,,,,,,,0,,68,0
37020,note_on,28,0,1,,,,,,,,,0,,71,0
37080,note_on,0,0,1,,,,,,,,,0,,73,85
37080,note_on,60,0,1,,,,,,,,,0,,71,0
37200,note_on,120,0,1,,,,,,,,,0,,73,0
37200,note_on,0,0,2,,,,,,,,,1,,54,85
37200,note_on,240,0,2,,,,,,,,,1,,52,0
37200,note_on,0,0,1,,,,,,,,,0,,69,85
37320,note_on,120,0,1,,,,,,,,,0,,61,0
37320,note_on,0,0,1,,,,,,,,,0,,66,85
37440,note_on,0,0,1,,,,,,,,,0,,59,85
37440,note_on,120,0,1,,,,,,,,,0,,66,0
37440,note_on,240,0,2,,,,,,,,,1,,54,0
37440,note_on,0,0,2,,,,,,,,,1,,51,85
37560,note_on,0,0,1,,,,,,,,,0,,71,85
37560,note_on,120,0,1,,,,,,,,,0,,69,0
37680,note_on,240,0,2,,,,,,,,,1,,51,0
37680,note_on,0,0,2,,,,,,,,,1,,52,85
37680,note_on,120,0,1,,,,,,,,,0,,71,0
37680,note_on,0,0,1,,,,,,,,,0,,68,85
37800,note_on,120,0,1,,,,,,,,,0,,59,0
37800,note_on,0,0,1,,,,,,,,,0,,64,85
37920,note_on,240,0,2,,,,,,,,,1,,52,0
37920,note_on,120,0,1,,,,,,,,,0,,64,0
37920,note_on,0,0,1,,,,,,,,,0,,68,0
37920,note_on,0,0,1,,,,,,,,,0,,61,85
37920,note_on,0,0,2,,,,,,,,,1,,45,85
38040,note_on,120,0,1,,,,,,,,,0,,61,0
38040,note_on,0,0,1,,,,,,,,,0,,66,85
38160,note_on,120,0,1,,,,,,,,,0,,66,0
38160,note_on,0,0,1,,,,,,,,,0,,68,85
38160,note_on,240,0,2,,,,,,,,,1,,54,85
38280,note_on,0,0,1,,,,,,,,,0,,69,85
38280,note_on,120,0,1,,,,,,,,,0,,68,0
38400,note_on,0,0,2,,,,,,,,,1,,45,0
38400,note_on,0,0,1,,,,,,,,,0,,63,85
38400,note_on,120,0,1,,,,,,,,,0,,69,0
38400,note_on,240,0,2,,,,,,,,,1,,54,0
38400,note_on,0,0,2,,,,,,,,,1,,47,85
38520,note_on,0,0,1,,,,,,,,,0,,68,85
38520,note_on,120,0,1,,,,,,,,,0,,63,0
38640,note_on,0,0,1,,,,,,,,,0,,69,85
38640,note_on,240,0,2,,,,,,,,,1,,56,85
38640,note_on,120,0,1,,,,,,,,,0,,68,0
38760,note_on,0,0,1,,,,,,,,,0,,71,85
38760,note_on,120,0,1,,,,,,,,,0,,69,0
38880,note_on,240,0,2,,,,,,,,,1,,56,0
38880,note_on,0,0,2,,,,,,,,,1,,47,0
38880,note_on,120,0,1,,,,,,,,,0,,71,0
38880,note_on,0,0,1,,,,,,,,,0,,64,85
38880,note_on,0,0,2,,,,,,,,,1,,49,85
39000,note_on,120,0,1,,,,,,,,,0,,64,0
39000,note_on,0,0,1,,,,,,,,,0,,73,85
39120,note_on,240,0,2,,,,,,,,,1,,57,85
39120,note_on,120,0,1,,,,,,,,,0,,73,0
39120,note_on,0,0,1,,,,,,,,,0,,75,85
39240,note_on,120,0,1,,,,,,,,,0,,75,0
39240,note_on,0,0,1,,,,,,,,,0,,76,85
39360,note_on,240,0,2,,,,,,,,,1,,57,0
39360,note_on,0,0,2,,,,,,,,,1,,49,0
39360,note_on,0,0,2,,,,,,,,,1,,51,85
39360,note_on,0,0,1,,,,,,,,,0,,66,85
39360,note_on,120,0,1,,,,,,,,,0,,76,0
39480,note_on,0,0,1,,,,,,,,,0,,76,85
39480,note_on,0,0,1,,,,,,,,,0,,73,85
39480,note_on,120,0,1,,,,,,,,,0,,66,0
39600,note_on,0,0,1,,,,,,,,,0,,75,85
39600,note_on,0,0,1,,,,,,,,,0,,71,85
39600,note_on,0,0,1,,,,,,,,,0,,73,0
39600,note_on,120,0,1,,,,,,,,,0,,76,0
39600,note_on,240,0,2,,,,,,,,,1,,59,85
39720,note_on,0,0,1,,,,,,,,,0,,73,85
39720,note_on,0,0,1,,,,,,,,,0,,71,0
39720,note_on,0,0,1,,,,,,,,,0,,69,85
39720,note_on,120,0,1,,,,,,,,,0,,75,0
39840,note_on,0,0,2,,,,,,,,,1,,52,85
39840,note_on,0,0,2,,,,,,,,,1,,51,0
39840,note_on,240,0,2,,,,,,,,,1,,59,0
39840,note_on,0,0,1,,,,,,,,,0,,69,0
39840,note_on,120,0,1,,,,,,,,,0,,73,0
39840,note_on,0,0,1,,,,,,,,,0,,68,85
39840,note_on,0,0,1,,,,,,,,,0,,71,85
40080,note_on,0,0,1,,,,,,,,,0,,66,85
40080,note_on,0,0,1,,,,,,,,,0,,69,85
40080,note_on,0,0,1,,,,,,,,,0,,71,0
40080,note_on,240,0,1,,,,,,,,,0,,68,0
40080,note_on,240,0,2,,,,,,,,,1,,52,0
40080,note_on,0,0,2,,,,,,,,,1,,45,85
40200,note_on,0,0,1,,,,,,,,,0,,64,85
40200,note_on,0,0,1,,,,,,,,,0,,69,0
40200,note_on,120,0,1,,,,,,,,,0,,66,0
40200,note_on,0,0,1,,,,,,,,,0,,68,85
40320,note_on,240,0,2,,,,,,,,,1,,45,0
40320,note_on,0,0,2,,,,,,,,,1,,47,85
40320,note_on,0,0,1,,,,,,,,,0,,68,0
40320,note_on,120,0,1,,,,,,,,,0,,64,0
40320,note_on,0,0,2,,,,,,,,,1,,47,85
40320,note_on,0,0,1,,,,,,,,,0,,64,85
40320,note_on,0,0,1,,,,,,,,,0,,68,85
40559,text,239,1,1,,,,,,,,,,,,
40560,note_on,0,0,1,,,,,,,,,0,,68,0
40560,note_on,0,0,1,,,,,,,,,0,,68,85
40560,note_on,0,0,2,,,,,,,,,1,,35,85
40560,note_on,0,0,2,,,,,,,,,1,,35,85
40560,note_on,0,0,2,,,,,,,,,1,,47,0
40560,note_on,0,0,1,,,,,,,,,0,,63,85
40560,text,0,1,1,,,,,,,,,,,,
40560,note_on,1,0,1,,,,,,,,,0,,64,0
40560,note_on,240,0,2,,,,,,,,,1,,47,0
40589,note_on,29,0,1,,,,,,,,,0,,68,0
40590,note_on,1,0,1,,,,,,,,,0,,66,85
40619,note_on,29,0,1,,,,,,,,,0,,66,0
40620,note_on,1,0,1,,,,,,,,,0,,68,85
40649,note_on,29,0,1,,,,,,,,,0,,68,0
40650,note_on,1,0,1,,,,,,,,,0,,66,85
40679,note_on,29,0,1,,,,,,,,,0,,66,0
40680,note_on,1,0,1,,,,,,,,,0,,64,85
40800,note_on,0,0,1,,,,,,,,,0,,63,0
40800,note_on,120,0,1,,,,,,,,,0,,64,0
40800,note_on,240,0,2,,,,,,,,,1,,35,0
40800,note_on,0,0,2,,,,,,,,,1,,35,0
40800,note_on,0,0,1,,,,,,,,,0,,64,85
40800,note_on,0,0,2,,,,,,,,,1,,40,85
40920,note_on,120,0,1,,,,,,,,,0,,57,85
41040,note_on,240,0,2,,,,,,,,,1,,52,85
41040,note_on,120,0,1,,,,,,,,,0,,57,0
41040,note_on,0,0,1,,,,,,,,,0,,59,85
41160,note_on,0,0,1,,,,,,,,,0,,64,0
41160,note_on,120,0,1,,,,,,,,,0,,59,0
41160,note_on,0,0,1,,,,,,,,,0,,56,85
41280,note_on,240,0,2,,,,,,,,,1,,52,0
41280,note_on,0,0,2,,,,,,,,,1,,54,85
41280,note_on,120,0,1,,,,,,,,,0,,56,0
41310,note_on,30,0,1,,,,,,,,,0,,57,85
41400,note_on,90,0,1,,,,,,,,,0,,61,85
41520,note_on,120,0,1,,,,,,,,,0,,61,0
41520,note_on,0,0,1,,,,,,,,,0,,69,85
41640,note_on,120,0,1,,,,,,,,,0,,69,0
41640,note_on,0,0,1,,,,,,,,,0,,63,85
41696,note_on,416,0,2,,,,,,,,,1,,40,0
41760,note_on,64,0,2,,,,,,,,,1,,54,0
41760,note_on,0,0,2,,,,,,,,,1,,40,85
41760,note_on,120,0,1,,,,,,,,,0,,63,0
41760,note_on,0,0,1,,,,,,,,,0,,57,0
41792,note_on,32,0,2,,,,,,,,,1,,52,85
41820,note_on,60,0,1,,,,,,,,,0,,56,85
41850,note_on,30,0,1,,,,,,,,,0,,59,85
41880,note_on,30,0,1,,,,,,,,,0,,64,85
42240,note_on,0,0,2,,,,,,,,,1,,40,0
42240,note_on,448,0,2,,,,,,,,,1,,52,0
42240,note_on,360,0,1,,,,,,,,,0,,64,0
42240,note_on,0,0,1,,,,,,,,,0,,59,0
42240,note_on,0,0,1,,,,,,,,,0,,56,0
42240,marker,21000,1,0,,,,,,,,,,,,
42360,note_on,120,0,1,,,,,,,,,0,,71,85
42479,text,119,1,1,,,,,,,,,,,,
42480,note_on,1,0,1,,,,,,,,,0,,71,0
42480,note_on,0,0,1,,,,,,,,,0,,73,85
42480,text,0,1,1,,,,,,,,,,,,
42509,note_on,29,0,1,,,,,,,,,0,,73,0
42510,note_on,1,0,1,,,,,,,,,0,,71,85
42539,note_on,29,0,1,,,,,,,,,0,,71,0
42540,note_on,1,0,1,,,,,,,,,0,,73,85
42659,note_on,119,0,1,,,,,,,,,0,,73,0
42660,note_on,1,0,1,,,,,,,,,0,,75,85
42720,note_on,0,0,1,,,,,,,,,0,,76,85
42720,note_on,60,0,1,,,,,,,,,0,,75,0
42840,note_on,600,0,2,,,,,,,,,1,,64,85
42960,note_on,0,0,1,,,,,,,,,0,,66,85
42960,note_on,240,0,1,,,,,,,,,0,,76,0
42960,note_on,0,0,2,,,,,,,,,1,,62,85
42960,note_on,120,0,2,,,,,,,,,1,,64,0
43080,note_on,120,0,2,,,,,,,,,1,,62,0
43080,note_on,0,0,2,,,,,,,,,1,,61,85
43080,note_on,0,0,1,,,,,,,,,0,,68,85
43080,note_on,120,0,1,,,,,,,,,0,,66,0
43199,text,119,1,1,,,,,,,,,,,,
43200,text,0,1,1,,,,,,,,,,,,
43200,note_on,120,0,2,,,,,,,,,1,,61,0
43200,note_on,0,0,1,,,,,,,,,0,,69,85
43200,note_on,0,0,2,,,,,,,,,1,,59,85
43200,note_on,1,0,1,,,,,,,,,0,,68,0
43259,note_on,59,0,1,,,,,,,,,0,,69,0
43260,note_on,1,0,1,,,,,,,,,0,,68,85
43289,note_on,29,0,1,,,,,,,,,0,,68,0
43290,note_on,1,0,1,,,,,,,,,0,,69,85
43319,note_on,29,0,1,,,,,,,,,0,,69,0
43320,note_on,1,0,1,,,,,,,,,0,,68,85
43320,note_on,120,0,2,,,,,,,,,1,,59,0
43320,note_on,0,0,2,,,,,,,,,1,,64,85
43349,note_on,29,0,1,,,,,,,,,0,,68,0
43350,note_on,1,0,1,,,,,,,,,0,,69,85
43379,note_on,29,0,1,,,,,,,,,0,,69,0
43380,note_on,1,0,1,,,,,,,,,0,,68,85
43440,note_on,120,0,2,,,,,,,,,1,,64,0
43440,note_on,0,0,2,,,,,,,,,1,,62,85
43559,note_on,179,0,1,,,,,,,,,0,,68,0
43560,note_on,120,0,2,,,,,,,,,1,,62,0
43560,note_on,0,0,2,,,,,,,,,1,,64,85
43560,note_on,1,0,1,,,,,,,,,0,,66,85
43620,note_on,60,0,1,,,,,,,,,0,,66,0
43620,note_on,0,0,1,,,,,,,,,0,,68,85
43680,note_on,120,0,2,,,,,,,,,1,,64,0
43680,note_on,60,0,1,,,,,,,,,0,,68,0
43680,note_on,0,0,2,,,,,,,,,1,,61,85
43680,note_on,0,0,1,,,,,,,,,0,,69,85
43800,note_on,120,0,2,,,,,,,,,1,,52,85
43920,note_on,120,0,2,,,,,,,,,1,,52,0
43920,note_on,0,0,2,,,,,,,,,1,,54,85
44040,note_on,120,0,2,,,,,,,,,1,,54,0
44040,note_on,0,0,2,,,,,,,,,1,,56,85
44160,note_on,120,0,2,,,,,,,,,1,,56,0
44160,note_on,0,0,2,,,,,,,,,1,,61,0
44160,note_on,0,0,2,,,,,,,,,1,,57,85
44160,note_on,480,0,1,,,,,,,,,0,,69,0
44280,note_on,120,0,1,,,,,,,,,0,,76,85
44400,note_on,240,0,2,,,,,,,,,1,,57,0
44400,note_on,0,0,2,,,,,,,,,1,,55,85
44400,note_on,0,0,1,,,,,,,,,0,,78,85
44400,note_on,120,0,1,,,,,,,,,0,,76,0
44520,note_on,0,0,1,,,,,,,,,0,,79,85
44520,note_on,120,0,1,,,,,,,,,0,,78,0
44640,note_on,0,0,2,,,,,,,,,1,,54,85
44640,note_on,240,0,2,,,,,,,,,1,,55,0
44640,note_on,0,0,1,,,,,,,,,0,,81,85
44640,note_on,120,0,1,,,,,,,,,0,,79,0
44760,note_on,120,0,1,,,,,,,,,0,,69,85
44880,note_on,240,0,2,,,,,,,,,1,,54,0
44880,note_on,0,0,1,,,,,,,,,0,,67,85
44880,note_on,0,0,1,,,,,,,,,0,,71,85
44880,note_on,0,0,1,,,,,,,,,0,,81,0
44880,note_on,120,0,1,,,,,,,,,0,,69,0
44880,note_on,0,0,2,,,,,,,,,1,,55,85
45000,note_on,0,0,1,,,,,,,,,0,,73,85
45000,note_on,120,0,1,,,,,,,,,0,,67,0
45000,note_on,0,0,1,,,,,,,,,0,,66,85
45000,note_on,0,0,1,,,,,,,,,0,,71,0
45120,note_on,0,0,2,,,,,,,,,1,,57,85
45120,note_on,240,0,2,,,,,,,,,1,,55,0
45120,note_on,120,0,1,,,,,,,,,0,,73,0
45120,note_on,0,0,1,,,,,,,,,0,,66,0
45120,note_on,0,0,1,,,,,,,,,0,,64,85
45120,note_on,0,0,1,,,,,,,,,0,,74,85
45240,note_on,120,0,1,,,,,,,,,0,,64,0
45240,note_on,0,0,1,,,,,,,,,0,,69,85
45360,note_on,120,0,1,,,,,,,,,0,,69,0
45360,note_on,0,0,1,,,,,,,,,0,,67,85
45360,note_on,0,0,1,,,,,,,,,0,,74,85
45360,note_on,0,0,1,,,,,,,,,0,,74,0
45392,note_on,32,0,1,,,,,,,,,0,,74,0
45392,note_on,0,0,1,,,,,,,,,0,,73,85
45424,note_on,32,0,1,,,,,,,,,0,,73,0
45424,note_on,0,0,1,,,,,,,,,0,,74,85
45456,note_on,0,0,1,,,,,,,,,0,,73,85
45456,note_on,32,0,1,,,,,,,,,0,,74,0
45480,note_on,0,0,1,,,,,,,,,0,,69,85
45480,note_on,24,0,1,,,,,,,,,0,,67,0
45600,note_on,0,0,2,,,,,,,,,1,,50,85
45600,note_on,120,0,1,,,,,,,,,0,,69,0
45600,note_on,0,0,1,,,,,,,,,0,,73,0
45600,note_on,0,0,1,,,,,,,,,0,,74,85
45600,note_on,480,0,2,,,,,,,,,1,,57,0
45600,note_on,0,0,1,,,,,,,,,0,,66,85
45720,note_on,0,0,2,,,,,,,,,1,,62,85
45720,note_on,120,0,2,,,,,,,,,1,,50,0
45839,text,119,1,2,,,,,,,,,,,,
45840,text,0,1,2,,,,,,,,,,,,
45840,note_on,1,0,2,,,,,,,,,1,,62,0
45840,note_on,0,0,2,,,,,,,,,1,,62,85
45899,note_on,59,0,2,,,,,,,,,1,,62,0
45900,note_on,1,0,2,,,,,,,,,1,,61,85
45929,note_on,29,0,2,,,,,,,,,1,,61,0
45930,note_on,1,0,2,,,,,,,,,1,,62,85
45959,note_on,29,0,2,,,,,,,,,1,,62,0
45960,note_on,1,0,2,,,,,,,,,1,,61,85
46019,note_on,59,0,2,,,,,,,,,1,,61,0
46020,note_on,1,0,2,,,,,,,,,1,,59,85
46080,note_on,0,0,1,,,,,,,,,0,,74,0
46080,note_on,0,0,2,,,,,,,,,1,,58,85
46080,note_on,60,0,2,,,,,,,,,1,,59,0
46080,note_on,480,0,1,,,,,,,,,0,,66,0
46200,note_on,120,0,1,,,,,,,,,0,,78,85
46319,note_on,119,0,1,,,,,,,,,0,,66,85
46320,note_on,0,0,1,,,,,,,,,0,,76,85
46320,note_on,1,0,1,,,,,,,,,0,,78,0
46440,note_on,120,0,1,,,,,,,,,0,,76,0
46440,note_on,0,0,1,,,,,,,,,0,,73,85
46560,note_on,0,0,1,,,,,,,,,0,,74,85
46560,note_on,120,0,1,,,,,,,,,0,,73,0
46560,note_on,480,0,2,,,,,,,,,1,,58,0
46560,note_on,0,0,2,,,,,,,,,1,,59,85
46671,note_on,111,0,1,,,,,,,,,0,,66,0
46680,note_on,9,0,1,,,,,,,,,0,,66,85
46800,note_on,0,0,2,,,,,,,,,1,,57,85
46800,note_on,120,0,1,,,,,,,,,0,,74,0
46800,note_on,0,0,1,,,,,,,,,0,,73,85
46800,note_on,240,0,2,,,,,,,,,1,,59,0
46888,note_on,88,0,1,,,,,,,,,0,,66,0
46920,note_on,0,0,1,,,,,,,,,0,,66,85
46920,note_on,32,0,1,,,,,,,,,0,,73,0
46920,note_on,0,0,1,,,,,,,,,0,,74,85
47040,note_on,240,0,2,,,,,,,,,1,,57,0
47040,note_on,120,0,1,,,,,,,,,0,,74,0
47040,note_on,0,0,1,,,,,,,,,0,,71,85
47040,note_on,0,0,2,,,,,,,,,1,,55,85
47128,note_on,88,0,1,,,,,,,,,0,,66,0
47160,note_on,32,0,1,,,,,,,,,0,,66,85
47280,note_on,120,0,1,,,,,,,,,0,,66,0
47280,note_on,0,0,1,,,,,,,,,0,,64,85
47400,note_on,120,0,1,,,,,,,,,0,,71,0
47400,note_on,0,0,1,,,,,,,,,0,,71,85
47520,note_on,0,0,1,,,,,,,,,0,,78,85
47520,note_on,120,0,1,,,,,,,,,0,,71,0
47520,note_on,480,0,2,,,,,,,,,1,,55,0
47520,note_on,0,0,2,,,,,,,,,1,,54,85
47640,note_on,120,0,1,,,,,,,,,0,,78,0
47640,note_on,0,0,1,,,,,,,,,0,,70,85
47760,note_on,0,0,1,,,,,,,,,0,,64,85
47760,note_on,0,0,1,,,,,,,,,0,,71,85
47760,note_on,0,0,1,,,,,,,,,0,,64,0
47760,note_on,120,0,1,,,,,,,,,0,,70,0
47880,note_on,0,0,1,,,,,,,,,0,,73,85
47880,note_on,120,0,1,,,,,,,,,0,,71,0
48000,note_on,120,0,1,,,,,,,,,0,,73,0
48000,note_on,0,0,1,,,,,,,,,0,,66,85
48000,note_on,480,0,2,,,,,,,,,1,,54,0
48000,note_on,0,0,2,,,,,,,,,1,,62,85
48000,note_on,0,0,1,,,,,,,,,0,,64,0
48120,note_on,120,0,1,,,,,,,,,0,,66,0
48120,note_on,0,0,1,,,,,,,,,0,,78,85
48240,note_on,120,0,1,,,,,,,,,0,,78,0
48240,note_on,240,0,2,,,,,,,,,1,,62,0
48240,note_on,0,0,2,,,,,,,,,1,,61,85
48240,note_on,0,0,1,,,,,,,,,0,,76,85
48360,note_on,0,0,1,,,,,,,,,0,,74,85
48360,note_on,120,0,2,,,,,,,,,1,,61,0
48360,note_on,0,0,2,,,,,,,,,1,,59,85
48360,note_on,120,0,1,,,,,,,,,0,,76,0
48480,note_on,120,0,1,,,,,,,,,0,,74,0
48480,note_on,0,0,1,,,,,,,,,0,,76,85
48480,note_on,120,0,2,,,,,,,,,1,,59,0
48480,note_on,0,0,2,,,,,,,,,1,,61,85
48600,note_on,0,0,2,,,,,,,,,1,,58,85
48600,note_on,0,0,1,,,,,,,,,0,,73,85
48600,note_on,120,0,1,,,,,,,,,0,,76,0
48600,note_on,120,0,2,,,,,,,,,1,,61,0
48720,note_on,120,0,2,,,,,,,,,1,,58,0
48720,note_on,0,0,2,,,,,,,,,1,,59,85
48720,note_on,0,0,1,,,,,,,,,0,,71,85
48720,note_on,0,0,1,,,,,,,,,0,,74,85
48720,note_on,120,0,1,,,,,,,,,0,,73,0
48840,note_on,120,0,1,,,,,,,,,0,,74,0
48840,note_on,0,0,1,,,,,,,,,0,,76,85
48840,note_on,120,0,2,,,,,,,,,1,,59,0
48840,note_on,0,0,2,,,,,,,,,1,,52,85
48960,note_on,120,0,1,,,,,,,,,0,,76,0
48960,note_on,0,0,1,,,,,,,,,0,,74,85
48960,note_on,0,0,1,,,,,,,,,0,,71,85
48960,note_on,120,0,2,,,,,,,,,1,,52,0
48960,note_on,0,0,2,,,,,,,,,1,,54,85
48960,note_on,0,0,1,,,,,,,,,0,,71,0
49080,note_on,120,0,1,,,,,,,,,0,,66,85
49200,note_on,240,0,2,,,,,,,,,1,,54,0
49200,note_on,0,0,1,,,,,,,,,0,,70,85
49200,note_on,0,0,1,,,,,,,,,0,,73,85
49200,note_on,0,0,1,,,,,,,,,0,,74,0
49200,note_on,120,0,1,,,,,,,,,0,,71,0
49200,note_on,0,0,2,,,,,,,,,1,,42,85
49320,note_on,120,0,1,,,,,,,,,0,,66,0
49320,note_on,0,0,1,,,,,,,,,0,,64,85
49440,note_on,0,0,1,,,,,,,,,0,,70,0
49440,note_on,0,0,1,,,,,,,,,0,,73,0
49440,note_on,0,0,1,,,,,,,,,0,,71,85
49440,note_on,120,0,1,,,,,,,,,0,,64,0
49440,note_on,240,0,2,,,,,,,,,1,,42,0
49440,note_on,0,0,2,,,,,,,,,1,,47,85
49560,note_on,120,0,1,,,,,,,,,0,,63,85
49680,note_on,120,0,1,,,,,,,,,0,,63,0
49680,note_on,0,0,1,,,,,,,,,0,,64,85
49680,note_on,240,0,2,,,,,,,,,1,,57,85
49800,note_on,0,0,1,,,,,,,,,0,,66,85
49800,note_on,120,0,1,,,,,,,,,0,,64,0
49920,note_on,120,0,1,,,,,,,,,0,,66,0
49920,note_on,0,0,1,,,,,,,,,0,,71,0
49920,note_on,0,0,1,,,,,,,,,0,,59,85
49920,note_on,240,0,2,,,,,,,,,1,,57,0
49920,note_on,0,0,2,,,,,,,,,1,,47,0
49920,note_on,0,0,2,,,,,,,,,1,,56,85
50040,note_on,120,0,1,,,,,,,,,0,,59,0
50040,note_on,0,0,1,,,,,,,,,0,,64,85
50160,note_on,240,0,2,,,,,,,,,1,,56,0
50160,note_on,0,0,2,,,,,,,,,1,,52,85
50160,note_on,120,0,1,,,,,,,,,0,,64,0
50160,note_on,0,0,1,,,,,,,,,0,,66,85
50280,note_on,120,0,1,,,,,,,,,0,,66,0
50280,note_on,0,0,1,,,,,,,,,0,,68,85
50400,note_on,120,0,1,,,,,,,,,0,,68,0
50400,note_on,0,0,1,,,,,,,,,0,,61,85
50400,note_on,240,0,2,,,,,,,,,1,,52,0
50400,note_on,0,0,2,,,,,,,,,1,,45,85
50520,note_on,120,0,1,,,,,,,,,0,,61,0
50520,note_on,0,0,1,,,,,,,,,0,,66,85
50640,note_on,120,0,1,,,,,,,,,0,,66,0
50640,note_on,0,0,1,,,,,,,,,0,,68,85
50640,note_on,240,0,2,,,,,,,,,1,,54,85
50760,note_on,120,0,1,,,,,,,,,0,,68,0
50760,note_on,0,0,1,,,,,,,,,0,,69,85
50880,note_on,120,0,1,,,,,,,,,0,,69,0
50880,note_on,0,0,1,,,,,,,,,0,,63,85
50880,note_on,240,0,2,,,,,,,,,1,,54,0
50880,note_on,0,0,2,,,,,,,,,1,,45,0
50880,note_on,0,0,2,,,,,,,,,1,,47,85
51000,note_on,0,0,1,,,,,,,,,0,,68,85
51000,note_on,120,0,1,,,,,,,,,0,,63,0
51120,note_on,120,0,1,,,,,,,,,0,,68,0
51120,note_on,240,0,2,,,,,,,,,1,,56,85
51120,note_on,0,0,1,,,,,,,,,0,,69,85
51240,note_on,0,0,1,,,,,,,,,0,,71,85
51240,note_on,120,0,1,,,,,,,,,0,,69,0
51360,note_on,240,0,2,,,,,,,,,1,,56,0
51360,note_on,0,0,2,,,,,,,,,1,,49,85
51360,note_on,120,0,1,,,,,,,,,0,,71,0
51360,note_on,0,0,1,,,,,,,,,0,,64,85
51360,note_on,0,0,2,,,,,,,,,1,,47,0
51480,note_on,120,0,1,,,,,,,,,0,,64,0
51480,note_on,0,0,1,,,,,,,,,0,,69,85
51600,note_on,0,0,1,,,,,,,,,0,,71,85
51600,note_on,240,0,2,,,,,,,,,1,,57,85
51600,note_on,120,0,1,,,,,,,,,0,,69,0
51720,note_on,0,0,1,,,,,,,,,0,,73,85
51720,note_on,120,0,1,,,,,,,,,0,,71,0
51840,note_on,120,0,1,,,,,,,,,0,,73,0
51840,note_on,240,0,2,,,,,,,,,1,,57,0
51840,note_on,0,0,2,,,,,,,,,1,,49,0
51840,note_on,0,0,2,,,,,,,,,1,,51,85
51840,note_on,0,0,1,,,,,,,,,0,,66,85
51960,note_on,120,0,1,,,,,,,,,0,,66,0
51960,note_on,0,0,1,,,,,,,,,0,,73,85
52080,note_on,0,0,1,,,,,,,,,0,,71,85
52080,note_on,120,0,1,,,,,,,,,0,,73,0
52080,note_on,240,0,2,,,,,,,,,1,,59,85
52200,note_on,120,0,1,,,,,,,,,0,,71,0
52200,note_on,0,0,1,,,,,,,,,0,,69,85
52320,note_on,0,0,2,,,,,,,,,1,,52,85
52320,note_on,0,0,2,,,,,,,,,1,,51,0
52320,note_on,0,0,1,,,,,,,,,0,,68,85
52320,note_on,240,0,2,,,,,,,,,1,,59,0
52320,note_on,120,0,1,,,,,,,,,0,,69,0
52440,note_on,0,0,1,,,,,,,,,0,,71,85
52440,note_on,120,0,1,,,,,,,,,0,,68,0
52560,note_on,120,0,1,,,,,,,,,0,,71,0
52560,note_on,240,0,2,,,,,,,,,1,,56,85
52560,note_on,0,0,1,,,,,,,,,0,,73,85
52680,note_on,0,0,1,,,,,,,,,0,,75,85
52680,note_on,120,0,1,,,,,,,,,0,,73,0
52800,note_on,120,0,1,,,,,,,,,0,,75,0
52800,note_on,240,0,2,,,,,,,,,1,,56,0
52800,note_on,0,0,1,,,,,,,,,0,,73,85
52800,note_on,0,0,2,,,,,,,,,1,,57,85
52800,note_on,0,0,2,,,,,,,,,1,,52,0
52920,note_on,0,0,1,,,,,,,,,0,,75,85
52920,note_on,120,0,1,,,,,,,,,0,,73,0
53039,text,119,1,1,,,,,,,,,,,,
53040,note_on,240,0,2,,,,,,,,,1,,54,85
53040,text,0,1,1,,,,,,,,,,,,
53040,note_on,1,0,1,,,,,,,,,0,,75,0
53040,note_on,0,0,1,,,,,,,,,0,,76,85
53099,note_on,59,0,1,,,,,,,,,0,,76,0
53100,note_on,1,0,1,,,,,,,,,0,,75,85
53129,note_on,29,0,1,,,,,,,,,0,,75,0
53130,note_on,1,0,1,,,,,,,,,0,,76,85
53159,note_on,29,0,1,,,,,,,,,0,,76,0
53160,note_on,1,0,1,,,,,,,,,0,,75,85
53219,note_on,59,0,1,,,,,,,,,0,,75,0
53220,note_on,1,0,1,,,,,,,,,0,,73,85
53250,note_on,0,0,1,,,,,,,,,0,,75,85
53250,note_on,30,0,1,,,,,,,,,0,,73,0
53280,note_on,240,0,2,,,,,,,,,1,,54,0
53280,note_on,0,0,1,,,,,,,,,0,,76,85
53280,note_on,0,0,2,,,,,,,,,1,,52,85
53280,note_on,0,0,2,,,,,,,,,1,,59,85
53280,note_on,0,0,2,,,,,,,,,1,,57,0
53280,note_on,30,0,1,,,,,,,,,0,,75,0
53400,note_on,120,0,1,,,,,,,,,0,,68,85
53520,note_on,0,0,1,,,,,,,,,0,,69,85
53520,note_on,120,0,1,,,,,,,,,0,,68,0
53520,note_on,0,0,2,,,,,,,,,1,,50,85
53520,note_on,240,0,2,,,,,,,,,1,,52,0
53640,note_on,0,0,1,,,,,,,,,0,,71,85
53640,note_on,120,0,1,,,,,,,,,0,,69,0
53760,note_on,0,0,2,,,,,,,,,1,,49,85
53760,note_on,0,0,2,,,,,,,,,1,,59,0
53760,note_on,0,0,1,,,,,,,,,0,,64,85
53760,note_on,0,0,1,,,,,,,,,0,,76,0
53760,note_on,240,0,2,,,,,,,,,1,,50,0
53760,note_on,120,0,1,,,,,,,,,0,,71,0
53880,note_on,120,0,1,,,,,,,,,0,,64,0
53880,note_on,0,0,1,,,,,,,,,0,,69,85
54000,note_on,120,0,1,,,,,,,,,0,,69,0
54000,note_on,240,0,2,,,,,,,,,1,,57,85
54000,note_on,0,0,1,,,,,,,,,0,,71,85
54120,note_on,0,0,1,,,,,,,,,0,,73,85
54120,note_on,120,0,1,,,,,,,,,0,,71,0
54240,note_on,120,0,1,,,,,,,,,0,,73,0
54240,note_on,0,0,1,,,,,,,,,0,,66,85
54240,note_on,0,0,2,,,,,,,,,1,,50,85
54240,note_on,0,0,2,,,,,,,,,1,,49,0
54240,note_on,240,0,2,,,,,,,,,1,,57,0
54360,note_on,120,0,1,,,,,,,,,0,,66,0
54360,note_on,0,0,1,,,,,,,,,0,,71,85
54480,note_on,0,0,1,,,,,,,,,0,,73,85
54480,note_on,240,0,2,,,,,,,,,1,,59,85
54480,note_on,120,0,1,,,,,,,,,0,,71,0
54600,note_on,120,0,1,,,,,,,,,0,,73,0
54600,note_on,0,0,1,,,,,,,,,0,,74,85
54720,note_on,0,0,1,,,,,,,,,0,,68,85
54720,note_on,120,0,1,,,,,,,,,0,,74,0
54720,note_on,0,0,2,,,,,,,,,1,,50,0
54720,note_on,240,0,2,,,,,,,,,1,,59,0
54720,note_on,0,0,2,,,,,,,,,1,,52,85
54840,note_on,120,0,1,,,,,,,,,0,,68,0
54840,note_on,0,0,1,,,,,,,,,0,,73,85
54960,note_on,0,0,1,,,,,,,,,0,,74,85
54960,note_on,120,0,1,,,,,,,,,0,,73,0
54960,note_on,240,0,2,,,,,,,,,1,,61,85
55080,note_on,120,0,1,,,,,,,,,0,,74,0
55080,note_on,0,0,1,,,,,,,,,0,,76,85
55200,note_on,0,0,1,,,,,,,,,0,,69,85
55200,note_on,120,0,1,,,,,,,,,0,,76,0
55200,note_on,240,0,2,,,,,,,,,1,,61,0
55200,note_on,0,0,2,,,,,,,,,1,,52,0
55200,note_on,0,0,2,,,,,,,,,1,,54,85
55320,note_on,0,0,1,,,,,,,,,0,,74,85
55320,note_on,120,0,1,,,,,,,,,0,,69,0
55440,note_on,120,0,1,,,,,,,,,0,,74,0
55440,note_on,0,0,1,,,,,,,,,0,,76,85
55440,note_on,240,0,2,,,,,,,,,1,,62,85
55560,note_on,120,0,1,,,,,,,,,0,,76,0
55560,note_on,0,0,1,,,,,,,,,0,,78,85
55680,note_on,240,0,2,,,,,,,,,1,,62,0
55680,note_on,0,0,2,,,,,,,,,1,,54,0
55680,note_on,0,0,2,,,,,,,,,1,,56,85
55680,note_on,0,0,1,,,,,,,,,0,,71,85
55680,note_on,120,0,1,,,,,,,,,0,,78,0
55800,note_on,0,0,1,,,,,,,,,0,,78,85
55800,note_on,120,0,1,,,,,,,,,0,,71,0
55920,note_on,240,0,2,,,,,,,,,1,,59,85
55920,note_on,120,0,1,,,,,,,,,0,,78,0
55920,note_on,0,0,1,,,,,,,,,0,,76,85
56040,note_on,120,0,1,,,,,,,,,0,,76,0
56040,note_on,0,0,1,,,,,,,,,0,,74,85
56160,note_on,240,0,2,,,,,,,,,1,,59,0
56160,note_on,0,0,2,,,,,,,,,1,,56,0
56160,note_on,0,0,2,,,,,,,,,1,,57,85
56160,note_on,120,0,1,,,,,,,,,0,,74,0
56160,note_on,0,0,1,,,,,,,,,0,,73,85
56280,note_on,120,0,1,,,,,,,,,0,,76,85
56400,note_on,0,0,2,,,,,,,,,1,,61,85
56400,note_on,240,0,2,,,,,,,,,1,,57,0
56400,note_on,0,0,1,,,,,,,,,0,,81,85
56400,note_on,120,0,1,,,,,,,,,0,,76,0
56520,note_on,120,0,1,,,,,,,,,0,,73,0
56520,note_on,0,0,1,,,,,,,,,0,,73,85
56520,note_on,120,0,2,,,,,,,,,1,,61,0
56520,note_on,0,0,2,,,,,,,,,1,,57,85
56640,note_on,120,0,1,,,,,,,,,0,,73,0
56640,note_on,0,0,1,,,,,,,,,0,,71,85
56640,note_on,0,0,2,,,,,,,,,1,,64,85
56640,note_on,120,0,2,,,,,,,,,1,,57,0
56744,note_on,104,0,1,,,,,,,,,0,,81,0
56760,note_on,16,0,1,,,,,,,,,0,,81,85
56760,note_on,0,0,2,,,,,,,,,1,,52,85
56760,note_on,120,0,2,,,,,,,,,1,,64,0
56880,note_on,0,0,2,,,,,,,,,1,,56,85
56880,note_on,120,0,2,,,,,,,,,1,,52,0
56880,note_on,0,0,1,,,,,,,,,0,,80,85
56880,note_on,120,0,1,,,,,,,,,0,,81,0
57000,note_on,120,0,2,,,,,,,,,1,,56,0
57000,note_on,120,0,1,,,,,,,,,0,,71,0
57000,note_on,0,0,1,,,,,,,,,0,,71,85
57000,note_on,0,0,2,,,,,,,,,1,,52,85
57120,note_on,120,0,1,,,,,,,,,0,,71,0
57120,note_on,120,0,2,,,,,,,,,1,,52,0
57120,note_on,0,0,2,,,,,,,,,1,,57,85
57120,note_on,0,0,1,,,,,,,,,0,,69,85
57232,note_on,112,0,1,,,,,,,,,0,,80,0
57240,note_on,8,0,1,,,,,,,,,0,,80,85
57240,note_on,120,0,2,,,,,,,,,1,,57,0
57240,note_on,0,0,2,,,,,,,,,1,,54,85
57360,note_on,0,0,2,,,,,,,,,1,,57,85
57360,note_on,120,0,1,,,,,,,,,0,,80,0
57360,note_on,0,0,1,,,,,,,,,0,,78,85
57360,note_on,120,0,2,,,,,,,,,1,,54,0
57480,note_on,0,0,2,,,,,,,,,1,,54,85
57480,note_on,120,0,1,,,,,,,,,0,,69,0
57480,note_on,120,0,2,,,,,,,,,1,,57,0
57480,note_on,0,0,1,,,,,,,,,0,,69,85
57600,note_on,120,0,2,,,,,,,,,1,,54,0
57600,note_on,0,0,1,,,,,,,,,0,,68,85
57600,note_on,0,0,2,,,,,,,,,1,,61,85
57600,note_on,120,0,1,,,,,,,,,0,,69,0
57720,note_on,0,0,2,,,,,,,,,1,,49,85
57720,note_on,0,0,1,,,,,,,,,0,,78,85
57720,note_on,120,0,1,,,,,,,,,0,,78,0
57720,note_on,120,0,2,,,,,,,,,1,,61,0
57840,note_on,0,0,2,,,,,,,,,1,,52,85
57840,note_on,120,0,2,,,,,,,,,1,,49,0
57840,note_on,0,0,1,,,,,,,,,0,,76,85
57840,note_on,120,0,1,,,,,,,,,0,,78,0
57960,note_on,0,0,2,,,,,,,,,1,,49,85
57960,note_on,120,0,2,,,,,,,,,1,,52,0
57960,note_on,0,0,1,,,,,,,,,0,,68,85
57960,note_on,120,0,1,,,,,,,,,0,,68,0
58080,note_on,0,0,2,,,,,,,,,1,,54,85
58080,note_on,120,0,2,,,,,,,,,1,,49,0
58080,note_on,0,0,1,,,,,,,,,0,,66,85
58080,note_on,120,0,1,,,,,,,,,0,,68,0
58200,note_on,0,0,2,,,,,,,,,1,,50,85
58200,note_on,120,0,2,,,,,,,,,1,,54,0
58200,note_on,120,0,1,,,,,,,,,0,,76,85
58232,note_on,32,0,1,,,,,,,,,0,,76,0
58320,note_on,0,0,2,,,,,,,,,1,,54,85
58320,note_on,120,0,2,,,,,,,,,1,,50,0
58320,note_on,0,0,1,,,,,,,,,0,,74,85
58320,note_on,88,0,1,,,,,,,,,0,,76,0
58440,note_on,0,0,2,,,,,,,,,1,,50,85
58440,note_on,120,0,1,,,,,,,,,0,,66,85
58440,note_on,120,0,2,,,,,,,,,1,,54,0
58532,note_on,92,0,1,,,,,,,,,0,,66,0
58560,note_on,0,0,2,,,,,,,,,1,,57,85
58560,note_on,120,0,2,,,,,,,,,1,,50,0
58560,note_on,28,0,1,,,,,,,,,0,,66,0
58560,note_on,0,0,1,,,,,,,,,0,,64,85
58680,note_on,120,0,1,,,,,,,,,0,,74,0
58680,note_on,0,0,1,,,,,,,,,0,,74,85
58680,note_on,120,0,2,,,,,,,,,1,,57,0
58680,note_on,0,0,2,,,,,,,,,1,,45,85
58800,note_on,120,0,2,,,,,,,,,1,,45,0
58800,note_on,0,0,2,,,,,,,,,1,,49,85
58800,note_on,0,0,1,,,,,,,,,0,,73,85
58800,note_on,120,0,1,,,,,,,,,0,,74,0
58920,note_on,0,0,2,,,,,,,,,1,,45,85
58920,note_on,120,0,2,,,,,,,,,1,,49,0
58920,note_on,0,0,1,,,,,,,,,0,,64,85
58920,note_on,120,0,1,,,,,,,,,0,,64,0
59040,note_on,0,0,1,,,,,,,,,0,,66,85
59040,note_on,0,0,1,,,,,,,,,0,,73,0
59040,note_on,120,0,1,,,,,,,,,0,,64,0
59040,note_on,0,0,2,,,,,,,,,1,,50,85
59040,note_on,120,0,2,,,,,,,,,1,,45,0
59160,note_on,120,0,1,,,,,,,,,0,,71,85
59280,note_on,0,0,1,,,,,,,,,0,,73,85
59280,note_on,0,0,2,,,,,,,,,1,,47,85
59280,note_on,240,0,2,,,,,,,,,1,,50,0
59280,note_on,120,0,1,,,,,,,,,0,,71,0
59400,note_on,120,0,1,,,,,,,,,0,,73,0
59400,note_on,0,0,1,,,,,,,,,0,,74,85
59520,note_on,0,0,1,,,,,,,,,0,,66,0
59520,note_on,0,0,1,,,,,,,,,0,,68,85
59520,note_on,120,0,1,,,,,,,,,0,,74,0
59520,note_on,0,0,2,,,,,,,,,1,,52,85
59520,note_on,240,0,2,,,,,,,,,1,,47,0
59640,note_on,120,0,1,,,,,,,,,0,,73,85
59760,note_on,0,0,2,,,,,,,,,1,,49,85
59760,note_on,0,0,1,,,,,,,,,0,,74,85
59760,note_on,120,0,1,,,,,,,,,0,,73,0
59760,note_on,240,0,2,,,,,,,,,1,,52,0
59880,note_on,0,0,1,,,,,,,,,0,,76,85
59880,note_on,120,0,1,,,,,,,,,0,,74,0
60000,note_on,0,0,2,,,,,,,,,1,,54,85
60000,note_on,240,0,2,,,,,,,,,1,,49,0
60000,note_on,120,0,1,,,,,,,,,0,,76,0
60000,note_on,0,0,1,,,,,,,,,0,,68,0
60000,note_on,0,0,1,,,,,,,,,0,,69,85
60120,note_on,120,0,1,,,,,,,,,0,,78,85
60240,note_on,120,0,1,,,,,,,,,0,,78,0
60240,note_on,0,0,1,,,,,,,,,0,,80,85
60240,note_on,0,0,2,,,,,,,,,1,,62,85
60240,note_on,240,0,2,,,,,,,,,1,,54,0
60360,note_on,0,0,1,,,,,,,,,0,,81,85
60360,note_on,120,0,1,,,,,,,,,0,,80,0
60480,note_on,240,0,2,,,,,,,,,1,,62,0
60480,note_on,0,0,2,,,,,,,,,1,,56,85
60480,note_on,0,0,1,,,,,,,,,0,,69,0
60480,note_on,0,0,1,,,,,,,,,0,,71,85
60480,note_on,120,0,1,,,,,,,,,0,,81,0
60600,note_on,0,0,1,,,,,,,,,0,,78,85
60600,note_on,120,0,1,,,,,,,,,0,,71,0
60600,note_on,0,0,1,,,,,,,,,0,,81,85
60720,note_on,0,0,2,,,,,,,,,1,,44,85
60720,note_on,120,0,1,,,,,,,,,0,,78,0
60720,note_on,0,0,1,,,,,,,,,0,,81,0
60720,note_on,0,0,1,,,,,,,,,0,,76,85
60720,note_on,240,0,2,,,,,,,,,1,,56,0
60720,note_on,0,0,1,,,,,,,,,0,,80,85
60840,note_on,0,0,1,,,,,,,,,0,,76,0
60840,note_on,0,0,1,,,,,,,,,0,,74,85
60840,note_on,0,0,1,,,,,,,,,0,,78,85
60840,note_on,120,0,1,,,,,,,,,0,,80,0
60960,note_on,0,0,2,,,,,,,,,1,,45,85
60960,note_on,120,0,1,,,,,,,,,0,,78,0
60960,note_on,0,0,1,,,,,,,,,0,,74,0
60960,note_on,0,0,1,,,,,,,,,0,,76,85
60960,note_on,0,0,1,,,,,,,,,0,,73,85
60960,note_on,240,0,2,,,,,,,,,1,,44,0
61200,note_on,240,0,2,,,,,,,,,1,,45,0
61200,note_on,240,0,1,,,,,,,,,0,,73,0
61200,note_on,0,0,1,,,,,,,,,0,,74,85
61200,note_on,0,0,1,,,,,,,,,0,,76,0
61200,note_on,0,0,1,,,,,,,,,0,,71,85
61200,note_on,0,0,2,,,,,,,,,1,,50,85
61320,note_on,120,0,1,,,,,,,,,0,,74,0
61320,note_on,0,0,1,,,,,,,,,0,,71,0
61320,note_on,0,0,1,,,,,,,,,0,,73,85
61320,note_on,0,0,1,,,,,,,,,0,,69,85
61440,note_on,0,0,1,,,,,,,,,0,,73,85
61440,note_on,0,0,2,,,,,,,,,1,,52,85
61440,note_on,240,0,2,,,,,,,,,1,,50,0
61440,note_on,120,0,1,,,,,,,,,0,,69,0
61440,note_on,0,0,1,,,,,,,,,0,,73,0
61440,note_on,0,0,1,,,,,,,,,0,,69,85
61679,text,239,1,1,,,,,,,,,,,,
61680,text,0,1,1,,,,,,,,,,,,
61680,note_on,0,0,1,,,,,,,,,0,,68,85
61680,note_on,0,0,1,,,,,,,,,0,,73,85
61680,note_on,1,0,1,,,,,,,,,0,,73,0
61680,note_on,0,0,2,,,,,,,,,1,,40,85
61680,note_on,240,0,2,,,,,,,,,1,,52,0
61680,note_on,0,0,1,,,,,,,,,0,,69,0
61709,note_on,29,0,1,,,,,,,,,0,,73,0
61710,note_on,1,0,1,,,,,,,,,0,,71,85
61739,note_on,29,0,1,,,,,,,,,0,,71,0
61740,note_on,1,0,1,,,,,,,,,0,,73,85
61769,note_on,29,0,1,,,,,,,,,0,,73,0
61770,note_on,1,0,1,,,,,,,,,0,,71,85
61799,note_on,29,0,1,,,,,,,,,0,,71,0
61800,note_on,1,0,1,,,,,,,,,0,,69,85
61920,note_on,120,0,1,,,,,,,,,0,,69,0
61920,note_on,0,0,1,,,,,,,,,0,,68,0
61920,note_on,0,0,1,,,,,,,,,0,,69,85
61920,note_on,0,0,2,,,,,,,,,1,,45,85
61920,note_on,240,0,2,,,,,,,,,1,,40,0
62040,note_on,120,0,1,,,,,,,,,0,,62,85
62160,note_on,120,0,1,,,,,,,,,0,,62,0
62160,note_on,0,0,1,,,,,,,,,0,,64,85
62160,note_on,240,0,2,,,,,,,,,1,,57,85
62280,note_on,120,0,1,,,,,,,,,0,,64,0
62280,note_on,0,0,1,,,,,,,,,0,,61,85
62400,note_on,240,0,2,,,,,,,,,1,,57,0
62400,note_on,0,0,2,,,,,,,,,1,,59,85
62400,note_on,120,0,1,,,,,,,,,0,,61,0
62400,note_on,0,0,1,,,,,,,,,0,,69,0
62400,note_on,0,0,1,,,,,,,,,0,,62,85
62520,note_on,120,0,1,,,,,,,,,0,,66,85
62640,note_on,120,0,1,,,,,,,,,0,,66,0
62640,note_on,0,0,1,,,,,,,,,0,,74,85
62760,note_on,120,0,1,,,,,,,,,0,,74,0
62760,note_on,0,0,1,,,,,,,,,0,,68,85
62760,note_on,360,0,2,,,,,,,,,1,,45,0
62880,note_on,120,0,1,,,,,,,,,0,,68,0
62880,note_on,120,0,2,,,,,,,,,1,,59,0
62880,note_on,0,0,1,,,,,,,,,0,,62,0
62880,note_on,0,0,2,,,,,,,,,1,,45,85
62912,note_on,32,0,2,,,,,,,,,1,,57,85
62940,note_on,28,0,2,,,,,,,,,1,,61,85
62970,note_on,90,0,1,,,,,,,,,0,,64,85
63000,note_on,30,0,1,,,,,,,,,0,,69,85
63360,note_on,360,0,1,,,,,,,,,0,,69,0
63360,note_on,420,0,2,,,,,,,,,1,,61,0
63360,note_on,0,0,2,,,,,,,,,1,,57,0
63360,note_on,0,0,2,,,,,,,,,1,,45,0
63360,note_on,0,0,1,,,,,,,,,0,,64,0
63360,marker,21120,1,0,,,,,,,,,,,,
63360,end_of_track,0,1,0,,,,,,,,,,,,
63480,note_on,120,0,1,,,,,,,,,0,,71,85
63599,text,119,1,1,,,,,,,,,,,,
63600,note_on,1,0,1,,,,,,,,,0,,71,0
63600,note_on,0,0,1,,,,,,,,,0,,73,85
63600,text,0,1,1,,,,,,,,,,,,
63629,note_on,29,0,1,,,,,,,,,0,,73,0
63630,note_on,1,0,1,,,,,,,,,0,,71,85
63659,note_on,29,0,1,,,,,,,,,0,,71,0
63660,note_on,1,0,1,,,,,,,,,0,,73,85
63779,note_on,119,0,1,,,,,,,,,0,,73,0
63780,note_on,1,0,1,,,,,,,,,0,,75,85
63840,note_on,60,0,1,,,,,,,,,0,,75,0
63840,note_on,0,0,1,,,,,,,,,0,,76,85
63960,note_on,600,0,2,,,,,,,,,1,,64,85
64080,note_on,120,0,2,,,,,,,,,1,,64,0
64080,note_on,240,0,1,,,,,,,,,0,,76,0
64080,note_on,0,0,2,,,,,,,,,1,,62,85
64080,note_on,0,0,1,,,,,,,,,0,,66,85
64200,note_on,0,0,2,,,,,,,,,1,,61,85
64200,note_on,0,0,1,,,,,,,,,0,,68,85
64200,note_on,120,0,1,,,,,,,,,0,,66,0
64200,note_on,120,0,2,,,,,,,,,1,,62,0
64319,text,119,1,1,,,,,,,,,,,,
64320,text,0,1,1,,,,,,,,,,,,
64320,note_on,0,0,1,,,,,,,,,0,,69,85
64320,note_on,1,0,1,,,,,,,,,0,,68,0
64320,note_on,120,0,2,,,,,,,,,1,,61,0
64320,note_on,0,0,2,,,,,,,,,1,,59,85
64379,note_on,59,0,1,,,,,,,,,0,,69,0
64380,note_on,1,0,1,,,,,,,,,0,,68,85
64409,note_on,29,0,1,,,,,,,,,0,,68,0
64410,note_on,1,0,1,,,,,,,,,0,,69,85
64439,note_on,29,0,1,,,,,,,,,0,,69,0
64440,note_on,120,0,2,,,,,,,,,1,,59,0
64440,note_on,1,0,1,,,,,,,,,0,,68,85
64440,note_on,0,0,2,,,,,,,,,1,,64,85
64469,note_on,29,0,1,,,,,,,,,0,,68,0
64470,note_on,1,0,1,,,,,,,,,0,,69,85
64499,note_on,29,0,1,,,,,,,,,0,,69,0
64500,note_on,1,0,1,,,,,,,,,0,,68,85
64560,note_on,0,0,2,,,,,,,,,1,,62,85
64560,note_on,120,0,2,,,,,,,,,1,,64,0
64679,note_on,179,0,1,,,,,,,,,0,,68,0
64680,note_on,0,0,2,,,,,,,,,1,,64,85
64680,note_on,1,0,1,,,,,,,,,0,,66,85
64680,note_on,120,0,2,,,,,,,,,1,,62,0
64740,note_on,60,0,1,,,,,,,,,0,,66,0
64740,note_on,0,0,1,,,,,,,,,0,,68,85
64800,note_on,60,0,1,,,,,,,,,0,,68,0
64800,note_on,120,0,2,,,,,,,,,1,,64,0
64800,note_on,0,0,2,,,,,,,,,1,,61,85
64800,note_on,0,0,1,,,,,,,,,0,,69,85
64920,note_on,120,0,2,,,,,,,,,1,,52,85
65040,note_on,120,0,2,,,,,,,,,1,,52,0
65040,note_on,0,0,2,,,,,,,,,1,,54,85
65160,note_on,0,0,2,,,,,,,,,1,,56,85
65160,note_on,120,0,2,,,,,,,,,1,,54,0
65280,note_on,480,0,1,,,,,,,,,0,,69,0
65280,note_on,0,0,2,,,,,,,,,1,,61,0
65280,note_on,0,0,2,,,,,,,,,1,,57,85
65280,note_on,120,0,2,,,,,,,,,1,,56,0
65400,note_on,120,0,1,,,,,,,,,0,,76,85
65520,note_on,240,0,2,,,,,,,,,1,,57,0
65520,note_on,120,0,1,,,,,,,,,0,,76,0
65520,note_on,0,0,2,,,,,,,,,1,,55,85
65520,note_on,0,0,1,,,,,,,,,0,,78,85
65640,note_on,0,0,1,,,,,,,,,0,,79,85
65640,note_on,120,0,1,,,,,,,,,0,,78,0
65760,note_on,240,0,2,,,,,,,,,1,,55,0
65760,note_on,0,0,2,,,,,,,,,1,,54,85
65760,note_on,0,0,1,,,,,,,,,0,,81,85
65760,note_on,120,0,1,,,,,,,,,0,,79,0
65880,note_on,120,0,1,,,,,,,,,0,,69,85
66000,note_on,120,0,1,,,,,,,,,0,,69,0
66000,note_on,240,0,2,,,,,,,,,1,,54,0
66000,note_on,0,0,2,,,,,,,,,1,,55,85
66000,note_on,0,0,1,,,,,,,,,0,,67,85
66000,note_on,0,0,1,,,,,,,,,0,,71,85
66000,note_on,0,0,1,,,,,,,,,0,,81,0
66120,note_on,0,0,1,,,,,,,,,0,,73,85
66120,note_on,0,0,1,,,,,,,,,0,,67,0
66120,note_on,0,0,1,,,,,,,,,0,,66,85
66120,note_on,120,0,1,,,,,,,,,0,,71,0
66240,note_on,0,0,2,,,,,,,,,1,,57,85
66240,note_on,240,0,2,,,,,,,,,1,,55,0
66240,note_on,0,0,1,,,,,,,,,0,,66,0
66240,note_on,120,0,1,,,,,,,,,0,,73,0
66240,note_on,0,0,1,,,,,,,,,0,,64,85
66240,note_on,0,0,1,,,,,,,,,0,,74,85
66360,note_on,0,0,1,,,,,,,,,0,,69,85
66360,note_on,120,0,1,,,,,,,,,0,,64,0
66480,note_on,120,0,1,,,,,,,,,0,,69,0
66480,note_on,0,0,1,,,,,,,,,0,,67,85
66480,note_on,0,0,1,,,,,,,,,0,,74,85
66480,note_on,0,0,1,,,,,,,,,0,,74,0
66512,note_on,0,0,1,,,,,,,,,0,,73,85
66512,note_on,32,0,1,,,,,,,,,0,,74,0
66544,note_on,32,0,1,,,,,,,,,0,,73,0
66544,note_on,0,0,1,,,,,,,,,0,,74,85
66576,note_on,32,0,1,,,,,,,,,0,,74,0
66576,note_on,0,0,1,,,,,,,,,0,,73,85
66600,note_on,0,0,1,,,,,,,,,0,,69,85
66600,note_on,24,0,1,,,,,,,,,0,,67,0
66720,note_on,480,0,2,,,,,,,,,1,,57,0
66720,note_on,0,0,1,,,,,,,,,0,,66,85
66720,note_on,0,0,1,,,,,,,,,0,,74,85
66720,note_on,0,0,1,,,,,,,,,0,,73,0
66720,note_on,120,0,1,,,,,,,,,0,,69,0
66720,note_on,0,0,2,,,,,,,,,1,,50,85
66840,note_on,0,0,2,,,,,,,,,1,,62,85
66840,note_on,120,0,2,,,,,,,,,1,,50,0
66959,text,119,1,2,,,,,,,,,,,,
66960,note_on,1,0,2,,,,,,,,,1,,62,0
66960,text,0,1,2,,,,,,,,,,,,
66960,note_on,0,0,2,,,,,,,,,1,,62,85
67019,note_on,59,0,2,,,,,,,,,1,,62,0
67020,note_on,1,0,2,,,,,,,,,1,,61,85
67049,note_on,29,0,2,,,,,,,,,1,,61,0
67050,note_on,1,0,2,,,,,,,,,1,,62,85
67079,note_on,29,0,2,,,,,,,,,1,,62,0
67080,note_on,1,0,2,,,,,,,,,1,,61,85
67139,note_on,59,0,2,,,,,,,,,1,,61,0
67140,note_on,1,0,2,,,,,,,,,1,,59,85
67200,note_on,60,0,2,,,,,,,,,1,,59,0
67200,note_on,480,0,1,,,,,,,,,0,,74,0
67200,note_on,0,0,1,,,,,,,,,0,,66,0
67200,note_on,0,0,2,,,,,,,,,1,,58,85
67320,note_on,120,0,1,,,,,,,,,0,,78,85
67439,note_on,119,0,1,,,,,,,,,0,,66,85
67440,note_on,1,0,1,,,,,,,,,0,,78,0
67440,note_on,0,0,1,,,,,,,,,0,,76,85
67560,note_on,0,0,1,,,,,,,,,0,,73,85
67560,note_on,120,0,1,,,,,,,,,0,,76,0
67680,note_on,480,0,2,,,,,,,,,1,,58,0
67680,note_on,0,0,2,,,,,,,,,1,,59,85
67680,note_on,120,0,1,,,,,,,,,0,,73,0
67680,note_on,0,0,1,,,,,,,,,0,,74,85
67791,note_on,111,0,1,,,,,,,,,0,,66,0
67800,note_on,9,0,1,,,,,,,,,0,,66,85
67920,note_on,240,0,2,,,,,,,,,1,,59,0
67920,note_on,0,0,2,,,,,,,,,1,,57,85
67920,note_on,120,0,1,,,,,,,,,0,,74,0
67920,note_on,0,0,1,,,,,,,,,0,,73,85
68008,note_on,88,0,1,,,,,,,,,0,,66,0
68040,note_on,0,0,1,,,,,,,,,0,,74,85
68040,note_on,32,0,1,,,,,,,,,0,,73,0
68040,note_on,0,0,1,,,,,,,,,0,,66,85
68160,note_on,120,0,1,,,,,,,,,0,,74,0
68160,note_on,0,0,1,,,,,,,,,0,,71,85
68160,note_on,0,0,2,,,,,,,,,1,,55,85
68160,note_on,240,0,2,,,,,,,,,1,,57,0
68248,note_on,88,0,1,,,,,,,,,0,,66,0
68280,note_on,32,0,1,,,,,,,,,0,,66,85
68400,note_on,0,0,1,,,,,,,,,0,,64,85
68400,note_on,120,0,1,,,,,,,,,0,,66,0
68520,note_on,120,0,1,,,,,,,,,0,,71,0
68520,note_on,0,0,1,,,,,,,,,0,,71,85
68640,note_on,120,0,1,,,,,,,,,0,,71,0
68640,note_on,480,0,2,,,,,,,,,1,,55,0
68640,note_on,0,0,2,,,,,,,,,1,,54,85
68640,note_on,0,0,1,,,,,,,,,0,,78,85
68760,note_on,0,0,1,,,,,,,,,0,,70,85
68760,note_on,120,0,1,,,,,,,,,0,,78,0
68880,note_on,0,0,1,,,,,,,,,0,,71,85
68880,note_on,0,0,1,,,,,,,,,0,,64,85
68880,note_on,0,0,1,,,,,,,,,0,,64,0
68880,note_on,120,0,1,,,,,,,,,0,,70,0
69000,note_on,0,0,1,,,,,,,,,0,,73,85
69000,note_on,120,0,1,,,,,,,,,0,,71,0
69120,note_on,0,0,1,,,,,,,,,0,,66,85
69120,note_on,0,0,1,,,,,,,,,0,,64,0
69120,note_on,120,0,1,,,,,,,,,0,,73,0
69120,note_on,480,0,2,,,,,,,,,1,,54,0
69120,note_on,0,0,2,,,,,,,,,1,,62,85
69240,note_on,120,0,1,,,,,,,,,0,,66,0
69240,note_on,0,0,1,,,,,,,,,0,,78,85
69360,note_on,120,0,1,,,,,,,,,0,,78,0
69360,note_on,0,0,2,,,,,,,,,1,,61,85
69360,note_on,240,0,2,,,,,,,,,1,,62,0
69360,note_on,0,0,1,,,,,,,,,0,,76,85
69480,note_on,0,0,1,,,,,,,,,0,,74,85
69480,note_on,0,0,2,,,,,,,,,1,,59,85
69480,note_on,120,0,2,,,,,,,,,1,,61,0
69480,note_on,120,0,1,,,,,,,,,0,,76,0
69600,note_on,0,0,1,,,,,,,,,0,,76,85
69600,note_on,120,0,2,,,,,,,,,1,,59,0
69600,note_on,120,0,1,,,,,,,,,0,,74,0
69600,note_on,0,0,2,,,,,,,,,1,,61,85
69720,note_on,0,0,1,,,,,,,,,0,,73,85
69720,note_on,120,0,1,,,,,,,,,0,,76,0
69720,note_on,0,0,2,,,,,,,,,1,,58,85
69720,note_on,120,0,2,,,,,,,,,1,,61,0
69840,note_on,0,0,2,,,,,,,,,1,,59,85
69840,note_on,120,0,1,,,,,,,,,0,,73,0
69840,note_on,0,0,1,,,,,,,,,0,,74,85
69840,note_on,120,0,2,,,,,,,,,1,,58,0
69840,note_on,0,0,1,,,,,,,,,0,,71,85
69960,note_on,120,0,1,,,,,,,,,0,,74,0
69960,note_on,120,0,2,,,,,,,,,1,,59,0
69960,note_on,0,0,1,,,,,,,,,0,,76,85
69960,note_on,0,0,2,,,,,,,,,1,,52,85
70080,note_on,0,0,1,,,,,,,,,0,,74,85
70080,note_on,0,0,1,,,,,,,,,0,,71,85
70080,note_on,120,0,1,,,,,,,,,0,,76,0
70080,note_on,0,0,1,,,,,,,,,0,,71,0
70080,note_on,0,0,2,,,,,,,,,1,,54,85
70080,note_on,120,0,2,,,,,,,,,1,,52,0
70200,note_on,120,0,1,,,,,,,,,0,,66,85
70320,note_on,0,0,1,,,,,,,,,0,,71,0
70320,note_on,240,0,2,,,,,,,,,1,,54,0
70320,note_on,0,0,1,,,,,,,,,0,,70,85
70320,note_on,0,0,2,,,,,,,,,1,,42,85
70320,note_on,120,0,1,,,,,,,,,0,,74,0
70320,note_on,0,0,1,,,,,,,,,0,,73,85
70440,note_on,0,0,1,,,,,,,,,0,,64,85
70440,note_on,120,0,1,,,,,,,,,0,,66,0
70560,note_on,240,0,2,,,,,,,,,1,,42,0
70560,note_on,0,0,2,,,,,,,,,1,,47,85
70560,note_on,120,0,1,,,,,,,,,0,,64,0
70560,note_on,0,0,1,,,,,,,,,0,,70,0
70560,note_on,0,0,1,,,,,,,,,0,,71,85
70560,note_on,0,0,1,,,,,,,,,0,,73,0
70680,note_on,120,0,1,,,,,,,,,0,,63,85
70800,note_on,240,0,2,,,,,,,,,1,,57,85
70800,note_on,0,0,1,,,,,,,,,0,,64,85
70800,note_on,120,0,1,,,,,,,,,0,,63,0
70920,note_on,0,0,1,,,,,,,,,0,,66,85
70920,note_on,120,0,1,,,,,,,,,0,,64,0
71040,note_on,0,0,2,,,,,,,,,1,,47,0
71040,note_on,0,0,1,,,,,,,,,0,,59,85
71040,note_on,0,0,1,,,,,,,,,0,,71,0
71040,note_on,120,0,1,,,,,,,,,0,,66,0
71040,note_on,0,0,2,,,,,,,,,1,,56,85
71040,note_on,240,0,2,,,,,,,,,1,,57,0
71160,note_on,0,0,1,,,,,,,,,0,,64,85
71160,note_on,120,0,1,,,,,,,,,0,,59,0
71280,note_on,240,0,2,,,,,,,,,1,,56,0
71280,note_on,0,0,2,,,,,,,,,1,,52,85
71280,note_on,0,0,1,,,,,,,,,0,,66,85
71280,note_on,120,0,1,,,,,,,,,0,,64,0
71400,note_on,0,0,1,,,,,,,,,0,,68,85
71400,note_on,120,0,1,,,,,,,,,0,,66,0
71520,note_on,0,0,1,,,,,,,,,0,,61,85
71520,note_on,120,0,1,,,,,,,,,0,,68,0
71520,note_on,240,0,2,,,,,,,,,1,,52,0
71520,note_on,0,0,2,,,,,,,,,1,,45,85
71640,note_on,0,0,1,,,,,,,,,0,,66,85
71640,note_on,120,0,1,,,,,,,,,0,,61,0
71760,note_on,240,0,2,,,,,,,,,1,,54,85
71760,note_on,0,0,1,,,,,,,,,0,,68,85
71760,note_on,120,0,1,,,,,,,,,0,,66,0
71880,note_on,0,0,1,,,,,,,,,0,,69,85
71880,note_on,120,0,1,,,,,,,,,0,,68,0
72000,note_on,0,0,2,,,,,,,,,1,,45,0
72000,note_on,240,0,2,,,,,,,,,1,,54,0
72000,note_on,0,0,1,,,,,,,,,0,,63,85
72000,note_on,120,0,1,,,,,,,,,0,,69,0
72000,note_on,0,0,2,,,,,,,,,1,,47,85
72120,note_on,120,0,1,,,,,,,,,0,,63,0
72120,note_on,0,0,1,,,,,,,,,0,,68,85
72240,note_on,240,0,2,,,,,,,,,1,,56,85
72240,note_on,120,0,1,,,,,,,,,0,,68,0
72240,note_on,0,0,1,,,,,,,,,0,,69,85
72360,note_on,0,0,1,,,,,,,,,0,,71,85
72360,note_on,120,0,1,,,,,,,,,0,,69,0
72480,note_on,0,0,1,,,,,,,,,0,,64,85
72480,note_on,120,0,1,,,,,,,,,0,,71,0
72480,note_on,0,0,2,,,,,,,,,1,,49,85
72480,note_on,240,0,2,,,,,,,,,1,,56,0
72480,note_on,0,0,2,,,,,,,,,1,,47,0
72600,note_on,0,0,1,,,,,,,,,0,,69,85
72600,note_on,120,0,1,,,,,,,,,0,,64,0
72720,note_on,120,0,1,,,,,,,,,0,,69,0
72720,note_on,0,0,1,,,,,,,,,0,,71,85
72720,note_on,240,0,2,,,,,,,,,1,,57,85
72840,note_on,120,0,1,,,,,,,,,0,,71,0
72840,note_on,0,0,1,,,,,,,,,0,,73,85
72960,note_on,240,0,2,,,,,,,,,1,,57,0
72960,note_on,120,0,1,,,,,,,,,0,,73,0
72960,note_on,0,0,1,,,,,,,,,0,,66,85
72960,note_on,0,0,2,,,,,,,,,1,,51,85
72960,note_on,0,0,2,,,,,,,,,1,,49,0
73080,note_on,120,0,1,,,,,,,,,0,,66,0
73080,note_on,0,0,1,,,,,,,,,0,,73,85
73200,note_on,120,0,1,,,,,,,,,0,,73,0
73200,note_on,0,0,1,,,,,,,,,0,,71,85
73200,note_on,240,0,2,,,,,,,,,1,,59,85
73320,note_on,0,0,1,,,,,,,,,0,,69,85
73320,note_on,120,0,1,,,,,,,,,0,,71,0
73440,note_on,120,0,1,,,,,,,,,0,,69,0
73440,note_on,0,0,2,,,,,,,,,1,,51,0
73440,note_on,240,0,2,,,,,,,,,1,,59,0
73440,note_on,0,0,1,,,,,,,,,0,,68,85
73440,note_on,0,0,2,,,,,,,,,1,,52,85
73560,note_on,0,0,1,,,,,,,,,0,,71,85
73560,note_on,120,0,1,,,,,,,,,0,,68,0
73680,note_on,0,0,1,,,,,,,,,0,,73,85
73680,note_on,120,0,1,,,,,,,,,0,,71,0
73680,note_on,240,0,2,,,,,,,,,1,,56,85
73800,note_on,0,0,1,,,,,,,,,0,,75,85
73800,note_on,120,0,1,,,,,,,,,0,,73,0
73920,note_on,240,0,2,,,,,,,,,1,,56,0
73920,note_on,120,0,1,,,,,,,,,0,,75,0
73920,note_on,0,0,1,,,,,,,,,0,,73,85
73920,note_on,0,0,2,,,,,,,,,1,,57,85
73920,note_on,0,0,2,,,,,,,,,1,,52,0
74040,note_on,0,0,1,,,,,,,,,0,,75,85
74040,note_on,120,0,1,,,,,,,,,0,,73,0
74159,text,119,1,1,,,,,,,,,,,,
74160,note_on,1,0,1,,,,,,,,,0,,75,0
74160,note_on,0,0,1,,,,,,,,,0,,76,85
74160,text,0,1,1,,,,,,,,,,,,
74160,note_on,240,0,2,,,,,,,,,1,,54,85
74219,note_on,59,0,1,,,,,,,,,0,,76,0
74220,note_on,1,0,1,,,,,,,,,0,,75,85
74249,note_on,29,0,1,,,,,,,,,0,,75,0
74250,note_on,1,0,1,,,,,,,,,0,,76,85
74279,note_on,29,0,1,,,,,,,,,0,,76,0
74280,note_on,1,0,1,,,,,,,,,0,,75,85
74339,note_on,59,0,1,,,,,,,,,0,,75,0
74340,note_on,1,0,1,,,,,,,,,0,,73,85
74370,note_on,0,0,1,,,,,,,,,0,,75,85
74370,note_on,30,0,1,,,,,,,,,0,,73,0
74400,note_on,240,0,2,,,,,,,,,1,,54,0
74400,note_on,0,0,1,,,,,,,,,0,,76,85
74400,note_on,30,0,1,,,,,,,,,0,,75,0
74400,note_on,0,0,2,,,,,,,,,1,,52,85
74400,note_on,0,0,2,,,,,,,,,1,,57,0
74400,note_on,0,0,2,,,,,,,,,1,,59,85
74520,note_on,120,0,1,,,,,,,,,0,,68,85
74640,note_on,0,0,2,,,,,,,,,1,,50,85
74640,note_on,240,0,2,,,,,,,,,1,,52,0
74640,note_on,120,0,1,,,,,,,,,0,,68,0
74640,note_on,0,0,1,,,,,,,,,0,,69,85
74760,note_on,0,0,1,,,,,,,,,0,,71,85
74760,note_on,120,0,1,,,,,,,,,0,,69,0
74880,note_on,120,0,1,,,,,,,,,0,,71,0
74880,note_on,0,0,1,,,,,,,,,0,,64,85
74880,note_on,0,0,2,,,,,,,,,1,,49,85
74880,note_on,0,0,2,,,,,,,,,1,,59,0
74880,note_on,240,0,2,,,,,,,,,1,,50,0
74880,note_on,0,0,1,,,,,,,,,0,,76,0
75000,note_on,120,0,1,,,,,,,,,0,,64,0
75000,note_on,0,0,1,,,,,,,,,0,,69,85
75120,note_on,120,0,1,,,,,,,,,0,,69,0
75120,note_on,0,0,1,,,,,,,,,0,,71,85
75120,note_on,240,0,2,,,,,,,,,1,,57,85
75240,note_on,120,0,1,,,,,,,,,0,,71,0
75240,note_on,0,0,1,,,,,,,,,0,,73,85
75360,note_on,0,0,2,,,,,,,,,1,,50,85
75360,note_on,240,0,2,,,,,,,,,1,,57,0
75360,note_on,120,0,1,,,,,,,,,0,,73,0
75360,note_on,0,0,1,,,,,,,,,0,,66,85
75360,note_on,0,0,2,,,,,,,,,1,,49,0
75480,note_on,120,0,1,,,,,,,,,0,,66,0
75480,note_on,0,0,1,,,,,,,,,0,,71,85
75600,note_on,120,0,1,,,,,,,,,0,,71,0
75600,note_on,0,0,1,,,,,,,,,0,,73,85
75600,note_on,240,0,2,,,,,,,,,1,,59,85
75720,note_on,120,0,1,,,,,,,,,0,,73,0
75720,note_on,0,0,1,,,,,,,,,0,,74,85
75840,note_on,0,0,2,,,,,,,,,1,,52,85
75840,note_on,0,0,2,,,,,,,,,1,,50,0
75840,note_on,240,0,2,,,,,,,,,1,,59,0
75840,note_on,120,0,1,,,,,,,,,0,,74,0
75840,note_on,0,0,1,,,,,,,,,0,,68,85
75960,note_on,0,0,1,,,,,,,,,0,,73,85
75960,note_on,120,0,1,,,,,,,,,0,,68,0
76080,note_on,0,0,1,,,,,,,,,0,,74,85
76080,note_on,240,0,2,,,,,,,,,1,,61,85
76080,note_on,120,0,1,,,,,,,,,0,,73,0
76200,note_on,0,0,1,,,,,,,,,0,,76,85
76200,note_on,120,0,1,,,,,,,,,0,,74,0
76320,note_on,0,0,2,,,,,,,,,1,,52,0
76320,note_on,120,0,1,,,,,,,,,0,,76,0
76320,note_on,0,0,1,,,,,,,,,0,,69,85
76320,note_on,0,0,2,,,,,,,,,1,,54,85
76320,note_on,240,0,2,,,,,,,,,1,,61,0
76440,note_on,120,0,1,,,,,,,,,0,,69,0
76440,note_on,0,0,1,,,,,,,,,0,,74,85
76560,note_on,120,0,1,,,,,,,,,0,,74,0
76560,note_on,240,0,2,,,,,,,,,1,,62,85
76560,note_on,0,0,1,,,,,,,,,0,,76,85
76680,note_on,0,0,1,,,,,,,,,0,,78,85
76680,note_on,120,0,1,,,,,,,,,0,,76,0
76800,note_on,240,0,2,,,,,,,,,1,,62,0
76800,note_on,120,0,1,,,,,,,,,0,,78,0
76800,note_on,0,0,1,,,,,,,,,0,,71,85
76800,note_on,0,0,2,,,,,,,,,1,,54,0
76800,note_on,0,0,2,,,,,,,,,1,,56,85
76920,note_on,120,0,1,,,,,,,,,0,,71,0
76920,note_on,0,0,1,,,,,,,,,0,,78,85
77040,note_on,0,0,1,,,,,,,,,0,,76,85
77040,note_on,240,0,2,,,,,,,,,1,,59,85
77040,note_on,120,0,1,,,,,,,,,0,,78,0
77160,note_on,120,0,1,,,,,,,,,0,,76,0
77160,note_on,0,0,1,,,,,,,,,0,,74,85
77280,note_on,0,0,1,,,,,,,,,0,,73,85
77280,note_on,120,0,1,,,,,,,,,0,,74,0
77280,note_on,240,0,2,,,,,,,,,1,,59,0
77280,note_on,0,0,2,,,,,,,,,1,,56,0
77280,note_on,0,0,2,,,,,,,,,1,,57,85
77400,note_on,120,0,1,,,,,,,,,0,,76,85
77520,note_on,120,0,1,,,,,,,,,0,,76,0
77520,note_on,0,0,1,,,,,,,,,0,,81,85
77520,note_on,240,0,2,,,,,,,,,1,,57,0
77520,note_on,0,0,2,,,,,,,,,1,,61,85
77640,note_on,120,0,2,,,,,,,,,1,,61,0
77640,note_on,0,0,1,,,,,,,,,0,,73,85
77640,note_on,0,0,2,,,,,,,,,1,,57,85
77640,note_on,120,0,1,,,,,,,,,0,,73,0
77760,note_on,0,0,2,,,,,,,,,1,,64,85
77760,note_on,120,0,1,,,,,,,,,0,,73,0
77760,note_on,0,0,1,,,,,,,,,0,,71,85
77760,note_on,120,0,2,,,,,,,,,1,,57,0
77864,note_on,104,0,1,,,,,,,,,0,,81,0
77880,note_on,0,0,2,,,,,,,,,1,,52,85
77880,note_on,120,0,2,,,,,,,,,1,,64,0
77880,note_on,16,0,1,,,,,,,,,0,,81,85
78000,note_on,0,0,1,,,,,,,,,0,,80,85
78000,note_on,0,0,2,,,,,,,,,1,,56,85
78000,note_on,120,0,2,,,,,,,,,1,,52,0
78000,note_on,120,0,1,,,,,,,,,0,,81,0
78120,note_on,0,0,1,,,,,,,,,0,,71,85
78120,note_on,120,0,2,,,,,,,,,1,,56,0
78120,note_on,0,0,2,,,,,,,,,1,,52,85
78120,note_on,120,0,1,,,,,,,,,0,,71,0
78240,note_on,120,0,1,,,,,,,,,0,,71,0
78240,note_on,0,0,1,,,,,,,,,0,,69,85
78240,note_on,0,0,2,,,,,,,,,1,,57,85
78240,note_on,120,0,2,,,,,,,,,1,,52,0
78352,note_on,112,0,1,,,,,,,,,0,,80,0
78360,note_on,120,0,2,,,,,,,,,1,,57,0
78360,note_on,8,0,1,,,,,,,,,0,,80,85
78360,note_on,0,0,2,,,,,,,,,1,,54,85
78480,note_on,0,0,1,,,,,,,,,0,,78,85
78480,note_on,120,0,1,,,,,,,,,0,,80,0
78480,note_on,120,0,2,,,,,,,,,1,,54,0
78480,note_on,0,0,2,,,,,,,,,1,,57,85
78600,note_on,120,0,2,,,,,,,,,1,,57,0
78600,note_on,0,0,1,,,,,,,,,0,,69,85
78600,note_on,120,0,1,,,,,,,,,0,,69,0
78600,note_on,0,0,2,,,,,,,,,1,,54,85
78720,note_on,120,0,1,,,,,,,,,0,,69,0
78720,note_on,120,0,2,,,,,,,,,1,,54,0
78720,note_on,0,0,2,,,,,,,,,1,,61,85
78720,note_on,0,0,1,,,,,,,,,0,,68,85
78840,note_on,120,0,1,,,,,,,,,0,,78,0
78840,note_on,0,0,2,,,,,,,,,1,,49,85
78840,note_on,0,0,1,,,,,,,,,0,,78,85
78840,note_on,120,0,2,,,,,,,,,1,,61,0
78960,note_on,0,0,2,,,,,,,,,1,,52,85
78960,note_on,120,0,2,,,,,,,,,1,,49,0
78960,note_on,120,0,1,,,,,,,,,0,,78,0
78960,note_on,0,0,1,,,,,,,,,0,,76,85
79080,note_on,0,0,2,,,,,,,,,1,,49,85
79080,note_on,120,0,2,,,,,,,,,1,,52,0
79080,note_on,0,0,1,,,,,,,,,0,,68,85
79080,note_on,120,0,1,,,,,,,,,0,,68,0
79200,note_on,0,0,2,,,,,,,,,1,,54,85
79200,note_on,120,0,2,,,,,,,,,1,,49,0
79200,note_on,0,0,1,,,,,,,,,0,,66,85
79200,note_on,120,0,1,,,,,,,,,0,,68,0
79320,note_on,0,0,2,,,,,,,,,1,,50,85
79320,note_on,120,0,2,,,,,,,,,1,,54,0
79320,note_on,120,0,1,,,,,,,,,0,,76,85
79352,note_on,32,0,1,,,,,,,,,0,,76,0
79440,note_on,120,0,2,,,,,,,,,1,,50,0
79440,note_on,0,0,1,,,,,,,,,0,,74,85
79440,note_on,88,0,1,,,,,,,,,0,,76,0
79440,note_on,0,0,2,,,,,,,,,1,,54,85
79560,note_on,0,0,2,,,,,,,,,1,,50,85
79560,note_on,120,0,2,,,,,,,,,1,,54,0
79560,note_on,120,0,1,,,,,,,,,0,,66,85
79652,note_on,92,0,1,,,,,,,,,0,,66,0
79680,note_on,120,0,2,,,,,,,,,1,,50,0
79680,note_on,0,0,1,,,,,,,,,0,,64,85
79680,note_on,28,0,1,,,,,,,,,0,,66,0
79680,note_on,0,0,2,,,,,,,,,1,,57,85
79800,note_on,120,0,2,,,,,,,,,1,,57,0
79800,note_on,0,0,1,,,,,,,,,0,,74,85
79800,note_on,0,0,2,,,,,,,,,1,,45,85
79800,note_on,120,0,1,,,,,,,,,0,,74,0
79920,note_on,0,0,1,,,,,,,,,0,,73,85
79920,note_on,120,0,1,,,,,,,,,0,,74,0
79920,note_on,0,0,2,,,,,,,,,1,,49,85
79920,note_on,120,0,2,,,,,,,,,1,,45,0
80040,note_on,120,0,1,,,,,,,,,0,,64,0
80040,note_on,0,0,2,,,,,,,,,1,,45,85
80040,note_on,120,0,2,,,,,,,,,1,,49,0
80040,note_on,0,0,1,,,,,,,,,0,,64,85
80160,note_on,0,0,1,,,,,,,,,0,,66,85
80160,note_on,0,0,2,,,,,,,,,1,,50,85
80160,note_on,120,0,1,,,,,,,,,0,,64,0
80160,note_on,120,0,2,,,,,,,,,1,,45,0
80160,note_on,0,0,1,,,,,,,,,0,,73,0
80280,note_on,120,0,1,,,,,,,,,0,,71,85
80400,note_on,120,0,1,,,,,,,,,0,,71,0
80400,note_on,0,0,1,,,,,,,,,0,,73,85
80400,note_on,240,0,2,,,,,,,,,1,,50,0
80400,note_on,0,0,2,,,,,,,,,1,,47,85
80520,note_on,120,0,1,,,,,,,,,0,,73,0
80520,note_on,0,0,1,,,,,,,,,0,,74,85
80640,note_on,120,0,1,,,,,,,,,0,,74,0
80640,note_on,240,0,2,,,,,,,,,1,,47,0
80640,note_on,0,0,2,,,,,,,,,1,,52,85
80640,note_on,0,0,1,,,,,,,,,0,,66,0
80640,note_on,0,0,1,,,,,,,,,0,,68,85
80760,note_on,120,0,1,,,,,,,,,0,,73,85
80880,note_on,240,0,2,,,,,,,,,1,,52,0
80880,note_on,0,0,2,,,,,,,,,1,,49,85
80880,note_on,120,0,1,,,,,,,,,0,,73,0
80880,note_on,0,0,1,,,,,,,,,0,,74,85
81000,note_on,120,0,1,,,,,,,,,0,,74,0
81000,note_on,0,0,1,,,,,,,,,0,,76,85
81120,note_on,0,0,2,,,,,,,,,1,,54,85
81120,note_on,240,0,2,,,,,,,,,1,,49,0
81120,note_on,0,0,1,,,,,,,,,0,,69,85
81120,note_on,120,0,1,,,,,,,,,0,,76,0
81120,note_on,0,0,1,,,,,,,,,0,,68,0
81240,note_on,120,0,1,,,,,,,,,0,,78,85
81360,note_on,0,0,2,,,,,,,,,1,,62,85
81360,note_on,240,0,2,,,,,,,,,1,,54,0
81360,note_on,120,0,1,,,,,,,,,0,,78,0
81360,note_on,0,0,1,,,,,,,,,0,,80,85
81480,note_on,120,0,1,,,,,,,,,0,,80,0
81480,note_on,0,0,1,,,,,,,,,0,,81,85
81600,note_on,120,0,1,,,,,,,,,0,,81,0
81600,note_on,240,0,2,,,,,,,,,1,,62,0
81600,note_on,0,0,2,,,,,,,,,1,,56,85
81600,note_on,0,0,1,,,,,,,,,0,,69,0
81600,note_on,0,0,1,,,,,,,,,0,,71,85
81720,note_on,120,0,1,,,,,,,,,0,,71,0
81720,note_on,0,0,1,,,,,,,,,0,,81,85
81720,note_on,0,0,1,,,,,,,,,0,,78,85
81840,note_on,0,0,1,,,,,,,,,0,,81,0
81840,note_on,240,0,2,,,,,,,,,1,,56,0
81840,note_on,0,0,2,,,,,,,,,1,,44,85
81840,note_on,0,0,1,,,,,,,,,0,,76,85
81840,note_on,0,0,1,,,,,,,,,0,,80,85
81840,note_on,120,0,1,,,,,,,,,0,,78,0
81960,note_on,0,0,1,,,,,,,,,0,,76,0
81960,note_on,120,0,1,,,,,,,,,0,,80,0
81960,note_on,0,0,1,,,,,,,,,0,,74,85
81960,note_on,0,0,1,,,,,,,,,0,,78,85
82080,note_on,120,0,1,,,,,,,,,0,,74,0
82080,note_on,0,0,1,,,,,,,,,0,,78,0
82080,note_on,0,0,1,,,,,,,,,0,,73,85
82080,note_on,0,0,1,,,,,,,,,0,,76,85
82080,note_on,240,0,2,,,,,,,,,1,,44,0
82080,note_on,0,0,2,,,,,,,,,1,,45,85
82320,note_on,240,0,1,,,,,,,,,0,,76,0
82320,note_on,0,0,1,,,,,,,,,0,,73,0
82320,note_on,0,0,1,,,,,,,,,0,,71,85
82320,note_on,0,0,1,,,,,,,,,0,,74,85
82320,note_on,240,0,2,,,,,,,,,1,,45,0
82320,note_on,0,0,2,,,,,,,,,1,,50,85
82440,note_on,0,0,1,,,,,,,,,0,,69,85
82440,note_on,0,0,1,,,,,,,,,0,,73,85
82440,note_on,0,0,1,,,,,,,,,0,,71,0
82440,note_on,120,0,1,,,,,,,,,0,,74,0
82560,note_on,0,0,1,,,,,,,,,0,,73,85
82560,note_on,0,0,1,,,,,,,,,0,,69,85
82560,note_on,120,0,1,,,,,,,,,0,,69,0
82560,note_on,0,0,2,,,,,,,,,1,,52,85
82560,note_on,240,0,2,,,,,,,,,1,,50,0
82560,note_on,0,0,1,,,,,,,,,0,,73,0
82799,text,239,1,1,,,,,,,,,,,,
82800,text,0,1,1,,,,,,,,,,,,
82800,note_on,0,0,1,,,,,,,,,0,,68,85
82800,note_on,0,0,1,,,,,,,,,0,,73,85
82800,note_on,0,0,2,,,,,,,,,1,,40,85
82800,note_on,1,0,1,,,,,,,,,0,,69,0
82800,note_on,240,0,2,,,,,,,,,1,,52,0
82800,note_on,0,0,1,,,,,,,,,0,,73,0
82829,note_on,29,0,1,,,,,,,,,0,,73,0
82830,note_on,1,0,1,,,,,,,,,0,,71,85
82859,note_on,29,0,1,,,,,,,,,0,,71,0
82860,note_on,1,0,1,,,,,,,,,0,,73,85
82889,note_on,29,0,1,,,,,,,,,0,,73,0
82890,note_on,1,0,1,,,,,,,,,0,,71,85
82919,note_on,29,0,1,,,,,,,,,0,,71,0
82920,note_on,1,0,1,,,,,,,,,0,,69,85
83040,note_on,0,0,1,,,,,,,,,0,,68,0
83040,note_on,0,0,1,,,,,,,,,0,,69,85
83040,note_on,120,0,1,,,,,,,,,0,,69,0
83040,note_on,0,0,2,,,,,,,,,1,,45,85
83040,note_on,240,0,2,,,,,,,,,1,,40,0
83160,note_on,120,0,1,,,,,,,,,0,,62,85
83280,note_on,120,0,1,,,,,,,,,0,,62,0
83280,note_on,0,0,1,,,,,,,,,0,,64,85
83280,note_on,240,0,2,,,,,,,,,1,,57,85
83400,note_on,120,0,1,,,,,,,,,0,,64,0
83400,note_on,0,0,1,,,,,,,,,0,,61,85
83520,note_on,240,0,2,,,,,,,,,1,,57,0
83520,note_on,0,0,2,,,,,,,,,1,,59,85
83520,note_on,0,0,1,,,,,,,,,0,,69,0
83520,note_on,120,0,1,,,,,,,,,0,,61,0
83550,note_on,30,0,1,,,,,,,,,0,,62,85
83640,note_on,90,0,1,,,,,,,,,0,,66,85
83760,note_on,0,0,1,,,,,,,,,0,,74,85
83760,note_on,120,0,1,,,,,,,,,0,,66,0
83880,note_on,360,0,2,,,,,,,,,1,,45,0
83880,note_on,120,0,1,,,,,,,,,0,,74,0
83880,note_on,0,0,1,,,,,,,,,0,,68,85
84000,note_on,0,0,2,,,,,,,,,1,,45,85
84000,note_on,120,0,1,,,,,,,,,0,,68,0
84000,note_on,0,0,1,,,,,,,,,0,,62,0
84000,note_on,120,0,2,,,,,,,,,1,,59,0
84032,note_on,32,0,2,,,,,,,,,1,,57,85
84060,note_on,28,0,2,,,,,,,,,1,,61,85
84090,note_on,90,0,1,,,,,,,,,0,,64,85
84480,note_on,420,0,2,,,,,,,,,1,,61,0
84480,note_on,0,0,2,,,,,,,,,1,,45,0
84480,end_of_track,0,1,2,,,,,,,,,,,,
84480,note_on,390,0,1,,,,,,,,,0,,64,0
84480,end_of_track,0,1,1,,,,,,,,,,,,
84480,note_on,0,0,2,,,,,,,,,1,,57,0
