tick,type,time,meta,track,numerator,denominator,clocks_per_click,notated_32nd_notes_per_beat,key,tempo,control,value,channel,program,note,velocity
0,track_name,0,1,0,,,,,,,,,,,,
0,note_on,0,0,2,,,,,,,,,1,,43,100
0,note_on,0,0,2,,,,,,,,,1,,46,100
0,note_on,0,0,2,,,,,,,,,1,,50,100
0,note_on,0,0,2,,,,,,,,,1,,55,100
0,program_change,0,0,2,,,,,,,,,1,6,,
0,control_change,0,0,2,,,,,,,32,0,1,,,
0,control_change,0,0,2,,,,,,,0,0,1,,,
0,track_name,0,1,2,,,,,,,,,,,,
0,note_on,0,0,1,,,,,,,,,0,,70,100
0,note_on,0,0,1,,,,,,,,,0,,79,100
0,program_change,0,0,1,,,,,,,,,0,6,,
0,end_of_track,0,1,3,,,,,,,,,,,,
0,control_change,0,0,1,,,,,,,0,0,0,,,
0,key_signature,0,1,0,,,,,C,,,,,,,
0,time_signature,0,1,0,4,4,24,8,,,,,,,,
0,control_change,0,0,1,,,,,,,32,0,0,,,
0,set_tempo,0,1,0,,,,,,500000,,,,,,
0,marker,0,1,0,,,,,,,,,,,,
144,note_on,144,0,1,,,,,,,,,0,,79,0
144,note_on,0,0,1,,,,,,,,,0,,74,100
192,note_on,192,0,2,,,,,,,,,1,,43,0
192,note_on,48,0,1,,,,,,,,,0,,74,0
192,note_on,0,0,2,,,,,,,,,1,,55,0
192,note_on,0,0,2,,,,,,,,,1,,50,0
192,note_on,0,0,2,,,,,,,,,1,,46,0
192,note_on,0,0,1,,,,,,,,,0,,70,0
192,note_on,0,0,1,,,,,,,,,0,,72,100
204,note_on,0,0,1,,,,,,,,,0,,70,100
204,note_on,12,0,1,,,,,,,,,0,,72,0
216,note_on,12,0,1,,,,,,,,,0,,70,0
216,note_on,0,0,1,,,,,,,,,0,,72,100
228,note_on,12,0,1,,,,,,,,,0,,72,0
228,note_on,0,0,1,,,,,,,,,0,,70,100
240,note_on,12,0,1,,,,,,,,,0,,70,0
240,note_on,0,0,1,,,,,,,,,0,,72,100
252,note_on,0,0,1,,,,,,,,,0,,70,100
252,note_on,12,0,1,,,,,,,,,0,,72,0
264,note_on,0,0,1,,,,,,,,,0,,72,100
264,note_on,12,0,1,,,,,,,,,0,,70,0
276,note_on,0,0,1,,,,,,,,,0,,70,100
276,note_on,12,0,1,,,,,,,,,0,,72,0
288,note_on,12,0,1,,,,,,,,,0,,70,0
288,note_on,0,0,1,,,,,,,,,0,,72,100
300,note_on,108,0,2,,,,,,,,,1,,43,100
300,note_on,0,0,1,,,,,,,,,0,,70,100
300,note_on,12,0,1,,,,,,,,,0,,72,0
312,note_on,0,0,1,,,,,,,,,0,,72,100
312,note_on,12,0,1,,,,,,,,,0,,70,0
312,note_on,0,0,2,,,,,,,,,1,,45,100
312,note_on,12,0,2,,,,,,,,,1,,43,0
324,note_on,12,0,1,,,,,,,,,0,,72,0
324,note_on,0,0,2,,,,,,,,,1,,46,100
324,note_on,12,0,2,,,,,,,,,1,,45,0
324,note_on,0,0,1,,,,,,,,,0,,70,100
336,note_on,0,0,2,,,,,,,,,1,,48,100
336,note_on,12,0,1,,,,,,,,,0,,70,0
336,note_on,12,0,2,,,,,,,,,1,,46,0
336,note_on,0,0,1,,,,,,,,,0,,69,100
348,note_on,12,0,2,,,,,,,,,1,,48,0
348,note_on,0,0,2,,,,,,,,,1,,50,100
360,note_on,24,0,1,,,,,,,,,0,,69,0
360,note_on,0,0,1,,,,,,,,,0,,67,100
360,note_on,12,0,2,,,,,,,,,1,,50,0
360,note_on,0,0,2,,,,,,,,,1,,52,100
372,note_on,12,0,2,,,,,,,,,1,,52,0
372,note_on,0,0,2,,,,,,,,,1,,54,100
384,note_on,0,0,1,,,,,,,,,0,,70,100
384,note_on,0,0,1,,,,,,,,,0,,67,100
384,note_on,0,0,1,,,,,,,,,0,,74,100
384,note_on,24,0,1,,,,,,,,,0,,67,0
384,note_on,12,0,2,,,,,,,,,1,,54,0
384,note_on,0,0,2,,,,,,,,,1,,55,100
408,note_on,24,0,2,,,,,,,,,1,,55,0
408,note_on,0,0,2,,,,,,,,,1,,53,100
408,note_on,24,0,1,,,,,,,,,0,,70,0
408,note_on,0,0,1,,,,,,,,,0,,69,100
432,note_on,24,0,1,,,,,,,,,0,,69,0
432,note_on,24,0,2,,,,,,,,,1,,53,0
432,note_on,0,0,2,,,,,,,,,1,,55,100
432,note_on,0,0,1,,,,,,,,,0,,70,100
528,note_on,96,0,2,,,,,,,,,1,,55,0
528,note_on,0,0,2,,,,,,,,,1,,50,100
576,note_on,48,0,2,,,,,,,,,1,,50,0
576,note_on,0,0,2,,,,,,,,,1,,48,100
576,note_on,144,0,1,,,,,,,,,0,,70,0
588,note_on,0,0,2,,,,,,,,,1,,46,100
588,note_on,12,0,2,,,,,,,,,1,,48,0
600,note_on,12,0,2,,,,,,,,,1,,46,0
600,note_on,0,0,2,,,,,,,,,1,,48,100
612,note_on,12,0,2,,,,,,,,,1,,48,0
612,note_on,0,0,2,,,,,,,,,1,,46,100
624,note_on,12,0,2,,,,,,,,,1,,46,0
624,note_on,0,0,2,,,,,,,,,1,,48,100
636,note_on,12,0,2,,,,,,,,,1,,48,0
636,note_on,0,0,2,,,,,,,,,1,,46,100
648,note_on,0,0,2,,,,,,,,,1,,48,100
648,note_on,12,0,2,,,,,,,,,1,,46,0
660,note_on,0,0,2,,,,,,,,,1,,46,100
660,note_on,12,0,2,,,,,,,,,1,,48,0
672,note_on,96,0,1,,,,,,,,,0,,67,0
672,note_on,0,0,2,,,,,,,,,1,,48,100
672,note_on,12,0,2,,,,,,,,,1,,46,0
672,note_on,0,0,1,,,,,,,,,0,,74,0
684,note_on,12,0,2,,,,,,,,,1,,48,0
684,note_on,0,0,2,,,,,,,,,1,,46,100
696,note_on,12,0,2,,,,,,,,,1,,46,0
696,note_on,0,0,2,,,,,,,,,1,,48,100
708,note_on,12,0,2,,,,,,,,,1,,48,0
708,note_on,0,0,2,,,,,,,,,1,,46,100
720,note_on,12,0,2,,,,,,,,,1,,46,0
720,note_on,0,0,2,,,,,,,,,1,,45,100
720,note_on,48,0,1,,,,,,,,,0,,74,100
744,note_on,24,0,2,,,,,,,,,1,,45,0
744,note_on,0,0,2,,,,,,,,,1,,43,100
768,note_on,48,0,1,,,,,,,,,0,,74,0
768,note_on,0,0,1,,,,,,,,,0,,74,100
768,note_on,0,0,2,,,,,,,,,1,,51,100
768,note_on,24,0,2,,,,,,,,,1,,43,0
768,note_on,0,0,2,,,,,,,,,1,,55,100
840,note_on,0,0,1,,,,,,,,,0,,67,100
840,note_on,72,0,1,,,,,,,,,0,,74,0
864,note_on,0,0,1,,,,,,,,,0,,69,100
864,note_on,24,0,1,,,,,,,,,0,,67,0
936,note_on,0,0,1,,,,,,,,,0,,70,100
936,note_on,72,0,1,,,,,,,,,0,,69,0
960,note_on,0,0,1,,,,,,,,,0,,69,100
960,note_on,0,0,2,,,,,,,,,1,,51,0
960,note_on,192,0,2,,,,,,,,,1,,55,0
960,note_on,0,0,1,,,,,,,,,0,,72,100
960,note_on,0,0,1,,,,,,,,,0,,63,100
960,note_on,24,0,1,,,,,,,,,0,,70,0
1008,note_on,48,0,2,,,,,,,,,1,,57,100
1056,note_on,48,0,2,,,,,,,,,1,,57,0
1056,note_on,0,0,2,,,,,,,,,1,,58,100
1056,note_on,96,0,1,,,,,,,,,0,,63,0
1056,note_on,0,0,1,,,,,,,,,0,,69,0
1104,note_on,48,0,2,,,,,,,,,1,,58,0
1104,note_on,48,0,1,,,,,,,,,0,,72,0
1104,note_on,0,0,1,,,,,,,,,0,,72,100
1104,note_on,0,0,2,,,,,,,,,1,,60,100
1152,note_on,48,0,1,,,,,,,,,0,,72,0
1152,note_on,0,0,1,,,,,,,,,0,,69,100
1152,note_on,48,0,2,,,,,,,,,1,,60,0
1152,note_on,0,0,1,,,,,,,,,0,,72,100
1152,note_on,0,0,2,,,,,,,,,1,,55,100
1152,note_on,0,0,1,,,,,,,,,0,,62,100
1164,note_on,0,0,2,,,,,,,,,1,,54,100
1164,note_on,12,0,2,,,,,,,,,1,,55,0
1176,note_on,0,0,2,,,,,,,,,1,,55,100
1176,note_on,12,0,2,,,,,,,,,1,,54,0
1188,note_on,0,0,2,,,,,,,,,1,,54,100
1188,note_on,12,0,2,,,,,,,,,1,,55,0
1200,note_on,0,0,2,,,,,,,,,1,,55,100
1200,note_on,12,0,2,,,,,,,,,1,,54,0
1212,note_on,0,0,2,,,,,,,,,1,,54,100
1212,note_on,12,0,2,,,,,,,,,1,,55,0
1224,note_on,0,0,2,,,,,,,,,1,,55,100
1224,note_on,12,0,2,,,,,,,,,1,,54,0
1236,note_on,12,0,2,,,,,,,,,1,,55,0
1236,note_on,0,0,2,,,,,,,,,1,,54,100
1248,note_on,12,0,2,,,,,,,,,1,,54,0
1248,note_on,0,0,2,,,,,,,,,1,,50,100
1248,note_on,96,0,1,,,,,,,,,0,,62,0
1248,note_on,0,0,1,,,,,,,,,0,,69,0
1248,note_on,0,0,1,,,,,,,,,0,,66,100
1296,note_on,48,0,1,,,,,,,,,0,,72,0
1296,note_on,0,0,1,,,,,,,,,0,,74,100
1344,note_on,48,0,1,,,,,,,,,0,,74,0
1344,note_on,0,0,1,,,,,,,,,0,,66,0
1344,note_on,0,0,1,,,,,,,,,0,,72,100
1344,note_on,0,0,1,,,,,,,,,0,,67,100
1344,note_on,96,0,2,,,,,,,,,1,,50,0
1344,note_on,0,0,2,,,,,,,,,1,,55,100
1356,note_on,0,0,1,,,,,,,,,0,,70,100
1356,note_on,12,0,1,,,,,,,,,0,,72,0
1368,note_on,12,0,1,,,,,,,,,0,,70,0
1368,note_on,0,0,1,,,,,,,,,0,,72,100
1380,note_on,12,0,1,,,,,,,,,0,,72,0
1380,note_on,0,0,1,,,,,,,,,0,,70,100
1392,note_on,12,0,1,,,,,,,,,0,,70,0
1392,note_on,0,0,1,,,,,,,,,0,,72,100
1404,note_on,12,0,1,,,,,,,,,0,,72,0
1404,note_on,0,0,1,,,,,,,,,0,,70,100
1416,note_on,12,0,1,,,,,,,,,0,,70,0
1416,note_on,0,0,1,,,,,,,,,0,,72,100
1428,note_on,12,0,1,,,,,,,,,0,,72,0
1428,note_on,0,0,1,,,,,,,,,0,,70,100
1440,note_on,96,0,2,,,,,,,,,1,,55,0
1440,note_on,0,0,2,,,,,,,,,1,,43,100
1440,note_on,12,0,1,,,,,,,,,0,,70,0
1440,note_on,0,0,1,,,,,,,,,0,,72,100
1452,note_on,12,0,1,,,,,,,,,0,,72,0
1452,note_on,0,0,1,,,,,,,,,0,,70,100
1464,note_on,0,0,1,,,,,,,,,0,,72,100
1464,note_on,12,0,1,,,,,,,,,0,,70,0
1476,note_on,12,0,1,,,,,,,,,0,,72,0
1476,note_on,0,0,1,,,,,,,,,0,,70,100
1488,note_on,12,0,1,,,,,,,,,0,,70,0
1488,note_on,0,0,1,,,,,,,,,0,,69,100
1536,note_on,0,0,1,,,,,,,,,0,,69,100
1536,note_on,0,0,2,,,,,,,,,1,,50,100
1536,note_on,0,0,2,,,,,,,,,1,,57,100
1536,note_on,0,0,2,,,,,,,,,1,,54,100
1536,note_on,48,0,1,,,,,,,,,0,,69,0
1536,note_on,0,0,1,,,,,,,,,0,,67,0
1536,note_on,0,0,1,,,,,,,,,0,,66,100
1536,note_on,96,0,2,,,,,,,,,1,,43,0
1536,note_on,0,0,1,,,,,,,,,0,,62,100
1620,note_on,84,0,1,,,,,,,,,0,,62,100
1632,note_on,0,0,1,,,,,,,,,0,,69,0
1632,note_on,0,0,1,,,,,,,,,0,,66,0
1632,note_on,0,0,2,,,,,,,,,1,,57,0
1632,note_on,0,0,2,,,,,,,,,1,,54,0
1632,note_on,0,0,1,,,,,,,,,0,,64,100
1632,note_on,96,0,2,,,,,,,,,1,,50,0
1632,note_on,12,0,1,,,,,,,,,0,,62,0
1632,note_on,0,0,1,,,,,,,,,0,,62,0
1644,note_on,0,0,1,,,,,,,,,0,,65,100
1644,note_on,12,0,1,,,,,,,,,0,,64,0
1656,note_on,12,0,1,,,,,,,,,0,,65,0
1656,note_on,0,0,1,,,,,,,,,0,,67,100
1668,note_on,0,0,1,,,,,,,,,0,,69,100
1668,note_on,12,0,1,,,,,,,,,0,,67,0
1680,note_on,12,0,1,,,,,,,,,0,,69,0
1680,note_on,0,0,1,,,,,,,,,0,,71,100
1692,note_on,12,0,1,,,,,,,,,0,,71,0
1692,note_on,0,0,1,,,,,,,,,0,,73,100
1704,note_on,12,0,1,,,,,,,,,0,,73,0
1704,note_on,0,0,1,,,,,,,,,0,,74,100
1710,note_on,6,0,1,,,,,,,,,0,,74,0
1716,note_on,6,0,1,,,,,,,,,0,,76,100
1722,note_on,6,0,1,,,,,,,,,0,,76,0
1728,note_on,6,0,1,,,,,,,,,0,,79,100
1728,note_on,0,0,1,,,,,,,,,0,,74,100
1728,note_on,0,0,1,,,,,,,,,0,,69,100
1740,note_on,12,0,1,,,,,,,,,0,,79,0
1740,note_on,0,0,1,,,,,,,,,0,,77,100
1752,note_on,0,0,1,,,,,,,,,0,,79,100
1752,note_on,12,0,1,,,,,,,,,0,,77,0
1764,note_on,12,0,1,,,,,,,,,0,,79,0
1764,note_on,0,0,1,,,,,,,,,0,,77,100
1776,note_on,144,0,2,,,,,,,,,1,,50,100
1776,note_on,12,0,1,,,,,,,,,0,,77,0
1776,note_on,0,0,1,,,,,,,,,0,,79,100
1788,note_on,12,0,1,,,,,,,,,0,,79,0
1788,note_on,0,0,1,,,,,,,,,0,,77,100
1800,note_on,12,0,1,,,,,,,,,0,,77,0
1800,note_on,0,0,1,,,,,,,,,0,,79,100
1812,note_on,12,0,1,,,,,,,,,0,,79,0
1812,note_on,0,0,1,,,,,,,,,0,,77,100
1824,note_on,0,0,2,,,,,,,,,1,,62,100
1824,note_on,12,0,1,,,,,,,,,0,,77,0
1824,note_on,0,0,1,,,,,,,,,0,,69,0
1824,note_on,0,0,1,,,,,,,,,0,,74,0
1824,note_on,0,0,1,,,,,,,,,0,,79,100
1824,note_on,48,0,2,,,,,,,,,1,,50,0
1836,note_on,12,0,1,,,,,,,,,0,,79,0
1836,note_on,0,0,1,,,,,,,,,0,,77,100
1848,note_on,12,0,1,,,,,,,,,0,,77,0
1848,note_on,0,0,1,,,,,,,,,0,,79,100
1860,note_on,12,0,1,,,,,,,,,0,,79,0
1860,note_on,0,0,1,,,,,,,,,0,,77,100
1872,note_on,0,0,1,,,,,,,,,0,,77,100
1872,note_on,12,0,1,,,,,,,,,0,,77,0
1896,note_on,0,0,2,,,,,,,,,1,,60,100
1896,note_on,72,0,2,,,,,,,,,1,,62,0
1920,note_on,0,0,1,,,,,,,,,0,,74,100
1920,note_on,0,0,2,,,,,,,,,1,,60,100
1920,note_on,24,0,2,,,,,,,,,1,,60,0
1920,note_on,0,0,1,,,,,,,,,0,,67,100
1920,note_on,0,0,1,,,,,,,,,0,,71,100
1920,note_on,0,0,1,,,,,,,,,0,,77,100
1920,note_on,48,0,1,,,,,,,,,0,,77,0
1932,note_on,12,0,2,,,,,,,,,1,,60,0
1932,note_on,0,0,2,,,,,,,,,1,,59,100
1944,note_on,0,0,2,,,,,,,,,1,,60,100
1944,note_on,12,0,2,,,,,,,,,1,,59,0
1956,note_on,0,0,2,,,,,,,,,1,,59,100
1956,note_on,12,0,2,,,,,,,,,1,,60,0
1968,note_on,0,0,2,,,,,,,,,1,,60,100
1968,note_on,12,0,2,,,,,,,,,1,,59,0
1980,note_on,0,0,2,,,,,,,,,1,,59,100
1980,note_on,12,0,2,,,,,,,,,1,,60,0
1992,note_on,12,0,2,,,,,,,,,1,,59,0
1992,note_on,0,0,2,,,,,,,,,1,,60,100
2004,note_on,0,0,2,,,,,,,,,1,,59,100
2004,note_on,12,0,2,,,,,,,,,1,,60,0
2016,note_on,12,0,2,,,,,,,,,1,,59,0
2016,note_on,0,0,2,,,,,,,,,1,,60,100
2028,note_on,12,0,2,,,,,,,,,1,,60,0
2028,note_on,0,0,2,,,,,,,,,1,,59,100
2040,note_on,12,0,2,,,,,,,,,1,,59,0
2040,note_on,0,0,2,,,,,,,,,1,,60,100
2052,note_on,12,0,2,,,,,,,,,1,,60,0
2052,note_on,0,0,2,,,,,,,,,1,,59,100
2064,note_on,144,0,1,,,,,,,,,0,,77,0
2064,note_on,0,0,1,,,,,,,,,0,,79,100
2064,note_on,12,0,2,,,,,,,,,1,,59,0
2064,note_on,0,0,2,,,,,,,,,1,,57,100
2088,note_on,24,0,2,,,,,,,,,1,,57,0
2088,note_on,0,0,2,,,,,,,,,1,,55,100
2112,note_on,24,0,2,,,,,,,,,1,,55,0
2112,note_on,0,0,2,,,,,,,,,1,,60,100
2112,note_on,0,0,1,,,,,,,,,0,,72,100
2112,note_on,0,0,1,,,,,,,,,0,,71,0
2112,note_on,0,0,1,,,,,,,,,0,,67,0
2112,note_on,0,0,1,,,,,,,,,0,,74,0
2112,note_on,48,0,1,,,,,,,,,0,,79,0
2112,note_on,0,0,1,,,,,,,,,0,,77,100
2124,note_on,0,0,1,,,,,,,,,0,,75,100
2124,note_on,12,0,1,,,,,,,,,0,,77,0
2136,note_on,0,0,1,,,,,,,,,0,,77,100
2136,note_on,12,0,1,,,,,,,,,0,,75,0
2148,note_on,12,0,1,,,,,,,,,0,,77,0
2148,note_on,0,0,1,,,,,,,,,0,,75,100
2160,note_on,12,0,1,,,,,,,,,0,,75,0
2160,note_on,0,0,1,,,,,,,,,0,,77,100
2172,note_on,12,0,1,,,,,,,,,0,,77,0
2172,note_on,0,0,1,,,,,,,,,0,,75,100
2184,note_on,12,0,1,,,,,,,,,0,,75,0
2184,note_on,0,0,1,,,,,,,,,0,,77,100
2196,note_on,12,0,1,,,,,,,,,0,,77,0
2196,note_on,0,0,1,,,,,,,,,0,,75,100
2208,note_on,0,0,2,,,,,,,,,1,,48,100
2208,note_on,12,0,1,,,,,,,,,0,,75,0
2208,note_on,0,0,1,,,,,,,,,0,,77,100
2208,note_on,96,0,2,,,,,,,,,1,,60,0
2220,note_on,12,0,1,,,,,,,,,0,,77,0
2220,note_on,0,0,1,,,,,,,,,0,,75,100
2232,note_on,12,0,1,,,,,,,,,0,,75,0
2232,note_on,0,0,1,,,,,,,,,0,,77,100
2244,note_on,0,0,1,,,,,,,,,0,,75,100
2244,note_on,12,0,1,,,,,,,,,0,,77,0
2256,note_on,0,0,1,,,,,,,,,0,,74,100
2256,note_on,12,0,1,,,,,,,,,0,,75,0
2304,note_on,48,0,1,,,,,,,,,0,,74,0
2304,note_on,0,0,1,,,,,,,,,0,,72,0
2304,note_on,0,0,1,,,,,,,,,0,,67,100
2304,note_on,0,0,1,,,,,,,,,0,,74,100
2304,note_on,0,0,1,,,,,,,,,0,,70,100
2304,note_on,0,0,2,,,,,,,,,1,,55,100
2304,note_on,96,0,2,,,,,,,,,1,,48,0
2400,note_on,96,0,2,,,,,,,,,1,,55,0
2412,note_on,12,0,2,,,,,,,,,1,,50,100
2424,note_on,0,0,2,,,,,,,,,1,,52,100
2424,note_on,12,0,2,,,,,,,,,1,,50,0
2436,note_on,12,0,2,,,,,,,,,1,,52,0
2436,note_on,0,0,2,,,,,,,,,1,,54,100
2448,note_on,12,0,2,,,,,,,,,1,,54,0
2448,note_on,0,0,2,,,,,,,,,1,,54,100
2472,note_on,24,0,2,,,,,,,,,1,,54,0
2496,note_on,192,0,1,,,,,,,,,0,,70,0
2496,note_on,0,0,1,,,,,,,,,0,,74,0
2496,note_on,0,0,1,,,,,,,,,0,,67,0
2496,note_on,0,0,2,,,,,,,,,1,,43,100
2496,note_on,24,0,2,,,,,,,,,1,,55,100
2544,note_on,48,0,1,,,,,,,,,0,,70,100
2568,note_on,0,0,1,,,,,,,,,0,,72,100
2568,note_on,24,0,1,,,,,,,,,0,,70,0
2592,note_on,24,0,1,,,,,,,,,0,,72,0
2592,note_on,0,0,1,,,,,,,,,0,,74,100
2604,note_on,12,0,1,,,,,,,,,0,,74,0
2604,note_on,0,0,1,,,,,,,,,0,,72,100
2616,note_on,0,0,1,,,,,,,,,0,,74,100
2616,note_on,12,0,1,,,,,,,,,0,,72,0
2628,note_on,0,0,1,,,,,,,,,0,,72,100
2628,note_on,12,0,1,,,,,,,,,0,,74,0
2640,note_on,0,0,1,,,,,,,,,0,,70,100
2640,note_on,12,0,1,,,,,,,,,0,,72,0
2664,note_on,0,0,1,,,,,,,,,0,,72,100
2664,note_on,24,0,1,,,,,,,,,0,,70,0
2676,note_on,12,0,1,,,,,,,,,0,,72,0
2676,note_on,0,0,1,,,,,,,,,0,,74,100
2688,note_on,0,0,2,,,,,,,,,1,,55,0
2688,note_on,0,0,1,,,,,,,,,0,,58,100
2688,note_on,0,0,1,,,,,,,,,0,,67,100
2688,note_on,12,0,1,,,,,,,,,0,,74,0
2688,note_on,192,0,2,,,,,,,,,1,,43,0
2736,note_on,48,0,2,,,,,,,,,1,,51,100
2760,note_on,0,0,2,,,,,,,,,1,,53,100
2760,note_on,24,0,2,,,,,,,,,1,,51,0
2784,note_on,0,0,2,,,,,,,,,1,,55,100
2784,note_on,24,0,2,,,,,,,,,1,,53,0
2796,note_on,12,0,2,,,,,,,,,1,,55,0
2796,note_on,0,0,2,,,,,,,,,1,,53,100
2808,note_on,0,0,2,,,,,,,,,1,,55,100
2808,note_on,12,0,2,,,,,,,,,1,,53,0
2820,note_on,12,0,2,,,,,,,,,1,,55,0
2820,note_on,0,0,2,,,,,,,,,1,,53,100
2832,note_on,12,0,2,,,,,,,,,1,,53,0
2832,note_on,0,0,2,,,,,,,,,1,,51,100
2856,note_on,0,0,2,,,,,,,,,1,,53,100
2856,note_on,24,0,2,,,,,,,,,1,,51,0
2868,note_on,0,0,2,,,,,,,,,1,,55,100
2868,note_on,12,0,2,,,,,,,,,1,,53,0
2880,note_on,192,0,1,,,,,,,,,0,,58,0
2880,note_on,0,0,2,,,,,,,,,1,,55,100
2880,note_on,0,0,2,,,,,,,,,1,,48,100
2880,note_on,12,0,2,,,,,,,,,1,,55,0
2880,note_on,0,0,1,,,,,,,,,0,,67,0
2928,note_on,48,0,1,,,,,,,,,0,,72,100
2952,note_on,24,0,1,,,,,,,,,0,,72,0
2952,note_on,0,0,1,,,,,,,,,0,,74,100
2976,note_on,24,0,1,,,,,,,,,0,,74,0
2976,note_on,0,0,1,,,,,,,,,0,,75,100
2988,note_on,12,0,1,,,,,,,,,0,,75,0
2988,note_on,0,0,1,,,,,,,,,0,,74,100
3000,note_on,12,0,1,,,,,,,,,0,,74,0
3000,note_on,0,0,1,,,,,,,,,0,,75,100
3012,note_on,12,0,1,,,,,,,,,0,,75,0
3012,note_on,0,0,1,,,,,,,,,0,,74,100
3024,note_on,0,0,1,,,,,,,,,0,,72,100
3024,note_on,12,0,1,,,,,,,,,0,,74,0
3048,note_on,24,0,1,,,,,,,,,0,,72,0
3048,note_on,0,0,1,,,,,,,,,0,,74,100
3060,note_on,12,0,1,,,,,,,,,0,,74,0
3060,note_on,0,0,1,,,,,,,,,0,,75,100
3072,note_on,12,0,1,,,,,,,,,0,,75,0
3072,note_on,0,0,1,,,,,,,,,0,,69,100
3072,note_on,192,0,2,,,,,,,,,1,,55,0
3072,note_on,0,0,2,,,,,,,,,1,,48,0
3072,note_on,0,0,2,,,,,,,,,1,,53,100
3072,note_on,0,0,2,,,,,,,,,1,,41,100
3084,note_on,0,0,1,,,,,,,,,0,,65,100
3084,note_on,12,0,1,,,,,,,,,0,,69,0
3096,note_on,12,0,1,,,,,,,,,0,,65,0
3096,note_on,0,0,1,,,,,,,,,0,,67,100
3108,note_on,12,0,1,,,,,,,,,0,,67,0
3108,note_on,0,0,1,,,,,,,,,0,,69,100
3120,note_on,0,0,1,,,,,,,,,0,,70,100
3120,note_on,12,0,1,,,,,,,,,0,,69,0
3132,note_on,0,0,1,,,,,,,,,0,,72,100
3132,note_on,12,0,1,,,,,,,,,0,,70,0
3144,note_on,0,0,1,,,,,,,,,0,,74,100
3144,note_on,12,0,1,,,,,,,,,0,,72,0
3156,note_on,12,0,1,,,,,,,,,0,,74,0
3156,note_on,0,0,1,,,,,,,,,0,,76,100
3168,note_on,0,0,1,,,,,,,,,0,,77,100
3168,note_on,12,0,1,,,,,,,,,0,,76,0
3240,note_on,0,0,1,,,,,,,,,0,,77,100
3240,note_on,72,0,1,,,,,,,,,0,,77,0
3264,note_on,0,0,1,,,,,,,,,0,,77,100
3264,note_on,24,0,1,,,,,,,,,0,,77,0
3264,note_on,0,0,2,,,,,,,,,1,,53,0
3264,note_on,192,0,2,,,,,,,,,1,,41,0
3288,note_on,24,0,1,,,,,,,,,0,,77,0
3288,note_on,0,0,1,,,,,,,,,0,,76,100
3312,note_on,48,0,2,,,,,,,,,1,,53,100
3312,note_on,24,0,1,,,,,,,,,0,,76,0
3312,note_on,0,0,1,,,,,,,,,0,,77,100
3312,note_on,0,0,1,,,,,,,,,0,,69,100
3360,note_on,48,0,2,,,,,,,,,1,,53,0
3360,note_on,0,0,2,,,,,,,,,1,,55,100
3360,note_on,48,0,1,,,,,,,,,0,,69,0
3360,note_on,0,0,1,,,,,,,,,0,,70,100
3432,note_on,0,0,2,,,,,,,,,1,,57,100
3432,note_on,72,0,1,,,,,,,,,0,,70,0
3432,note_on,0,0,1,,,,,,,,,0,,72,100
3432,note_on,72,0,2,,,,,,,,,1,,55,0
3456,note_on,0,0,2,,,,,,,,,1,,46,100
3456,note_on,0,0,2,,,,,,,,,1,,34,100
3456,note_on,0,0,1,,,,,,,,,0,,77,100
3456,note_on,0,0,1,,,,,,,,,0,,77,0
3456,note_on,24,0,1,,,,,,,,,0,,72,0
3456,note_on,24,0,2,,,,,,,,,1,,57,0
3456,note_on,0,0,1,,,,,,,,,0,,74,100
3528,note_on,0,0,1,,,,,,,,,0,,69,100
3528,note_on,72,0,1,,,,,,,,,0,,74,0
3528,note_on,72,0,2,,,,,,,,,1,,46,0
3528,note_on,0,0,2,,,,,,,,,1,,36,100
3528,note_on,0,0,2,,,,,,,,,1,,34,0
3528,note_on,0,0,2,,,,,,,,,1,,48,100
3552,note_on,0,0,1,,,,,,,,,0,,70,100
3552,note_on,0,0,2,,,,,,,,,1,,36,0
3552,note_on,24,0,2,,,,,,,,,1,,48,0
3552,note_on,0,0,2,,,,,,,,,1,,38,100
3552,note_on,0,0,2,,,,,,,,,1,,50,100
3552,note_on,24,0,1,,,,,,,,,0,,69,0
3624,note_on,0,0,2,,,,,,,,,1,,51,100
3624,note_on,0,0,2,,,,,,,,,1,,39,100
3624,note_on,0,0,2,,,,,,,,,1,,38,0
3624,note_on,72,0,2,,,,,,,,,1,,50,0
3624,note_on,0,0,1,,,,,,,,,0,,72,100
3624,note_on,72,0,1,,,,,,,,,0,,70,0
3648,note_on,0,0,1,,,,,,,,,0,,77,0
3648,note_on,0,0,1,,,,,,,,,0,,69,100
3648,note_on,0,0,2,,,,,,,,,1,,53,100
3648,note_on,0,0,2,,,,,,,,,1,,41,100
3648,note_on,24,0,2,,,,,,,,,1,,51,0
3648,note_on,24,0,1,,,,,,,,,0,,72,0
3648,note_on,0,0,2,,,,,,,,,1,,39,0
3720,note_on,0,0,2,,,,,,,,,1,,41,0
3720,note_on,0,0,2,,,,,,,,,1,,50,100
3720,note_on,0,0,2,,,,,,,,,1,,38,100
3720,note_on,72,0,2,,,,,,,,,1,,53,0
3720,note_on,0,0,1,,,,,,,,,0,,77,100
3720,note_on,72,0,1,,,,,,,,,0,,69,0
3744,note_on,24,0,1,,,,,,,,,0,,77,0
3744,note_on,0,0,1,,,,,,,,,0,,67,100
3744,note_on,0,0,1,,,,,,,,,0,,72,100
3744,note_on,0,0,2,,,,,,,,,1,,38,0
3744,note_on,0,0,2,,,,,,,,,1,,43,100
3744,note_on,24,0,2,,,,,,,,,1,,50,0
3744,note_on,0,0,2,,,,,,,,,1,,55,100
3756,note_on,12,0,1,,,,,,,,,0,,72,0
3756,note_on,0,0,1,,,,,,,,,0,,70,100
3768,note_on,0,0,1,,,,,,,,,0,,72,100
3768,note_on,12,0,1,,,,,,,,,0,,70,0
3816,note_on,0,0,1,,,,,,,,,0,,75,100
3816,note_on,0,0,2,,,,,,,,,1,,43,0
3816,note_on,0,0,2,,,,,,,,,1,,39,100
3816,note_on,0,0,2,,,,,,,,,1,,51,100
3816,note_on,48,0,1,,,,,,,,,0,,72,0
3816,note_on,72,0,2,,,,,,,,,1,,55,0
3840,note_on,24,0,1,,,,,,,,,0,,75,0
3840,note_on,0,0,1,,,,,,,,,0,,67,0
3840,note_on,0,0,1,,,,,,,,,0,,75,100
3840,note_on,0,0,1,,,,,,,,,0,,65,100
3840,note_on,0,0,2,,,,,,,,,1,,45,100
3840,note_on,0,0,2,,,,,,,,,1,,57,100
3840,note_on,0,0,2,,,,,,,,,1,,39,0
3840,note_on,24,0,2,,,,,,,,,1,,51,0
3912,note_on,0,0,2,,,,,,,,,1,,53,100
3912,note_on,0,0,2,,,,,,,,,1,,41,100
3912,note_on,0,0,1,,,,,,,,,0,,77,100
3912,note_on,72,0,1,,,,,,,,,0,,75,0
3912,note_on,0,0,2,,,,,,,,,1,,57,0
3912,note_on,72,0,2,,,,,,,,,1,,45,0
3936,note_on,24,0,1,,,,,,,,,0,,77,0
3936,note_on,0,0,1,,,,,,,,,0,,75,100
3936,note_on,0,0,1,,,,,,,,,0,,65,0
3936,note_on,0,0,2,,,,,,,,,1,,58,100
3936,note_on,0,0,2,,,,,,,,,1,,46,100
3936,note_on,0,0,2,,,,,,,,,1,,53,0
3936,note_on,24,0,2,,,,,,,,,1,,41,0
3936,note_on,0,0,1,,,,,,,,,0,,65,100
3948,note_on,0,0,1,,,,,,,,,0,,74,100
3948,note_on,12,0,1,,,,,,,,,0,,75,0
3960,note_on,12,0,1,,,,,,,,,0,,74,0
3960,note_on,0,0,1,,,,,,,,,0,,75,100
3972,note_on,12,0,1,,,,,,,,,0,,75,0
3972,note_on,0,0,1,,,,,,,,,0,,74,100
3984,note_on,48,0,2,,,,,,,,,1,,46,0
3984,note_on,12,0,1,,,,,,,,,0,,65,0
3984,note_on,0,0,1,,,,,,,,,0,,67,100
3984,note_on,0,0,2,,,,,,,,,1,,51,100
4008,note_on,0,0,1,,,,,,,,,0,,72,100
4008,note_on,24,0,1,,,,,,,,,0,,74,0
4032,note_on,0,0,1,,,,,,,,,0,,65,100
4032,note_on,0,0,1,,,,,,,,,0,,74,100
4032,note_on,0,0,1,,,,,,,,,0,,67,0
4032,note_on,0,0,1,,,,,,,,,0,,70,100
4032,note_on,48,0,2,,,,,,,,,1,,51,0
4032,note_on,0,0,2,,,,,,,,,1,,53,100
4032,note_on,24,0,1,,,,,,,,,0,,72,0
4128,note_on,0,0,1,,,,,,,,,0,,63,100
4128,note_on,0,0,1,,,,,,,,,0,,74,0
4128,note_on,0,0,1,,,,,,,,,0,,69,100
4128,note_on,0,0,1,,,,,,,,,0,,74,100
4128,note_on,96,0,2,,,,,,,,,1,,58,0
4128,note_on,0,0,2,,,,,,,,,1,,60,100
4128,note_on,0,0,1,,,,,,,,,0,,70,0
4128,note_on,96,0,1,,,,,,,,,0,,65,0
4140,note_on,0,0,1,,,,,,,,,0,,72,100
4140,note_on,12,0,1,,,,,,,,,0,,74,0
4152,note_on,12,0,1,,,,,,,,,0,,72,0
4152,note_on,0,0,1,,,,,,,,,0,,74,100
4164,note_on,12,0,1,,,,,,,,,0,,74,0
4164,note_on,0,0,1,,,,,,,,,0,,72,100
4200,note_on,36,0,1,,,,,,,,,0,,72,0
4200,note_on,0,0,1,,,,,,,,,0,,70,100
4224,note_on,24,0,1,,,,,,,,,0,,70,0
4224,note_on,96,0,2,,,,,,,,,1,,60,0
4224,note_on,0,0,2,,,,,,,,,1,,53,0
4224,note_on,0,0,2,,,,,,,,,1,,46,100
4224,note_on,0,0,1,,,,,,,,,0,,69,0
4224,note_on,0,0,1,,,,,,,,,0,,63,0
4224,note_on,0,0,1,,,,,,,,,0,,70,100
4224,note_on,0,0,1,,,,,,,,,0,,65,100
4224,note_on,0,0,1,,,,,,,,,0,,62,100
4320,note_on,96,0,2,,,,,,,,,1,,46,0
4332,note_on,12,0,2,,,,,,,,,1,,53,100
4344,note_on,12,0,2,,,,,,,,,1,,53,0
4344,note_on,0,0,2,,,,,,,,,1,,55,100
4356,note_on,0,0,2,,,,,,,,,1,,57,100
4356,note_on,12,0,2,,,,,,,,,1,,55,0
4368,note_on,0,0,2,,,,,,,,,1,,57,100
4368,note_on,12,0,2,,,,,,,,,1,,57,0
4392,note_on,24,0,2,,,,,,,,,1,,57,0
4416,note_on,24,0,2,,,,,,,,,1,,58,100
4416,note_on,0,0,1,,,,,,,,,0,,70,0
4416,note_on,192,0,1,,,,,,,,,0,,62,0
4416,note_on,0,0,1,,,,,,,,,0,,65,0
4464,note_on,48,0,1,,,,,,,,,0,,74,100
4512,note_on,96,0,2,,,,,,,,,1,,58,0
4512,note_on,0,0,2,,,,,,,,,1,,56,100
4512,note_on,0,0,2,,,,,,,,,1,,44,100
4512,note_on,48,0,1,,,,,,,,,0,,74,0
4512,note_on,0,0,1,,,,,,,,,0,,74,100
4512,note_on,0,0,1,,,,,,,,,0,,65,100
4524,note_on,12,0,1,,,,,,,,,0,,74,0
4524,note_on,0,0,1,,,,,,,,,0,,72,100
4584,note_on,60,0,1,,,,,,,,,0,,74,100
4596,note_on,12,0,1,,,,,,,,,0,,72,0
4608,note_on,96,0,2,,,,,,,,,1,,44,0
4608,note_on,0,0,2,,,,,,,,,1,,56,0
4608,note_on,0,0,2,,,,,,,,,1,,55,100
4608,note_on,0,0,2,,,,,,,,,1,,43,100
4608,note_on,0,0,1,,,,,,,,,0,,62,100
4608,note_on,0,0,1,,,,,,,,,0,,72,100
4608,note_on,12,0,1,,,,,,,,,0,,74,0
4608,note_on,0,0,1,,,,,,,,,0,,65,0
4620,note_on,12,0,1,,,,,,,,,0,,72,0
4620,note_on,0,0,1,,,,,,,,,0,,71,100
4632,note_on,12,0,1,,,,,,,,,0,,71,0
4632,note_on,0,0,1,,,,,,,,,0,,72,100
4644,note_on,12,0,1,,,,,,,,,0,,72,0
4644,note_on,0,0,1,,,,,,,,,0,,71,100
4656,note_on,12,0,1,,,,,,,,,0,,71,0
4656,note_on,0,0,1,,,,,,,,,0,,72,100
4668,note_on,0,0,1,,,,,,,,,0,,71,100
4668,note_on,12,0,1,,,,,,,,,0,,72,0
4680,note_on,12,0,1,,,,,,,,,0,,71,0
4680,note_on,0,0,1,,,,,,,,,0,,72,100
4692,note_on,0,0,1,,,,,,,,,0,,71,100
4692,note_on,12,0,1,,,,,,,,,0,,72,0
4704,note_on,96,0,2,,,,,,,,,1,,43,0
4704,note_on,0,0,2,,,,,,,,,1,,53,100
4704,note_on,0,0,1,,,,,,,,,0,,72,100
4704,note_on,0,0,2,,,,,,,,,1,,55,0
4704,note_on,0,0,2,,,,,,,,,1,,41,100
4704,note_on,12,0,1,,,,,,,,,0,,71,0
4716,note_on,0,0,1,,,,,,,,,0,,71,100
4716,note_on,12,0,1,,,,,,,,,0,,72,0
4752,note_on,0,0,1,,,,,,,,,0,,71,100
4752,note_on,36,0,1,,,,,,,,,0,,71,0
4800,note_on,48,0,1,,,,,,,,,0,,71,0
4800,note_on,96,0,2,,,,,,,,,1,,41,0
4800,note_on,0,0,2,,,,,,,,,1,,53,0
4800,note_on,0,0,2,,,,,,,,,1,,51,100
4800,note_on,0,0,2,,,,,,,,,1,,55,100
4800,note_on,0,0,1,,,,,,,,,0,,74,100
4812,note_on,12,0,1,,,,,,,,,0,,74,0
4812,note_on,0,0,1,,,,,,,,,0,,72,100
4824,note_on,12,0,1,,,,,,,,,0,,72,0
4824,note_on,0,0,1,,,,,,,,,0,,74,100
4836,note_on,12,0,1,,,,,,,,,0,,74,0
4836,note_on,0,0,1,,,,,,,,,0,,72,100
4848,note_on,12,0,1,,,,,,,,,0,,72,0
4848,note_on,0,0,1,,,,,,,,,0,,74,100
4860,note_on,0,0,1,,,,,,,,,0,,72,100
4860,note_on,12,0,1,,,,,,,,,0,,74,0
4896,note_on,0,0,2,,,,,,,,,1,,50,100
4896,note_on,0,0,2,,,,,,,,,1,,53,100
4896,note_on,0,0,2,,,,,,,,,1,,59,100
4896,note_on,0,0,2,,,,,,,,,1,,51,0
4896,note_on,96,0,2,,,,,,,,,1,,55,0
4896,note_on,0,0,1,,,,,,,,,0,,75,100
4896,note_on,36,0,1,,,,,,,,,0,,72,0
4908,note_on,0,0,1,,,,,,,,,0,,74,100
4908,note_on,12,0,1,,,,,,,,,0,,75,0
4920,note_on,0,0,1,,,,,,,,,0,,75,100
4920,note_on,12,0,1,,,,,,,,,0,,74,0
4932,note_on,12,0,1,,,,,,,,,0,,75,0
4932,note_on,0,0,1,,,,,,,,,0,,74,100
4944,note_on,12,0,1,,,,,,,,,0,,74,0
4944,note_on,0,0,1,,,,,,,,,0,,75,100
4956,note_on,12,0,1,,,,,,,,,0,,75,0
4956,note_on,0,0,1,,,,,,,,,0,,74,100
4992,note_on,0,0,2,,,,,,,,,1,,59,0
4992,note_on,0,0,2,,,,,,,,,1,,55,100
4992,note_on,0,0,2,,,,,,,,,1,,60,100
4992,note_on,0,0,2,,,,,,,,,1,,48,100
4992,note_on,96,0,2,,,,,,,,,1,,50,0
4992,note_on,0,0,1,,,,,,,,,0,,67,100
4992,note_on,0,0,1,,,,,,,,,0,,72,100
4992,note_on,0,0,1,,,,,,,,,0,,75,100
4992,note_on,0,0,1,,,,,,,,,0,,62,0
4992,note_on,36,0,1,,,,,,,,,0,,74,0
4992,note_on,0,0,2,,,,,,,,,1,,53,0
4992,note_on,0,0,2,,,,,,,,,1,,51,100
5088,note_on,96,0,1,,,,,,,,,0,,67,0
5088,note_on,0,0,1,,,,,,,,,0,,72,0
5088,note_on,0,0,1,,,,,,,,,0,,75,0
5088,note_on,0,0,1,,,,,,,,,0,,67,100
5088,note_on,0,0,2,,,,,,,,,1,,55,0
5088,note_on,0,0,2,,,,,,,,,1,,51,0
5088,note_on,0,0,2,,,,,,,,,1,,48,0
5088,note_on,96,0,2,,,,,,,,,1,,60,0
5100,note_on,12,0,1,,,,,,,,,0,,67,0
5100,note_on,0,0,1,,,,,,,,,0,,69,100
5112,note_on,0,0,1,,,,,,,,,0,,70,100
5112,note_on,12,0,1,,,,,,,,,0,,69,0
5124,note_on,0,0,1,,,,,,,,,0,,72,100
5124,note_on,12,0,1,,,,,,,,,0,,70,0
5136,note_on,12,0,1,,,,,,,,,0,,72,0
5136,note_on,0,0,1,,,,,,,,,0,,74,100
5136,note_on,48,0,2,,,,,,,,,1,,60,100
5148,note_on,0,0,1,,,,,,,,,0,,76,100
5148,note_on,12,0,1,,,,,,,,,0,,74,0
5160,note_on,12,0,1,,,,,,,,,0,,76,0
5160,note_on,0,0,1,,,,,,,,,0,,77,100
5172,note_on,12,0,1,,,,,,,,,0,,77,0
5172,note_on,0,0,1,,,,,,,,,0,,79,100
5184,note_on,12,0,1,,,,,,,,,0,,79,0
5184,note_on,0,0,1,,,,,,,,,0,,77,100
5184,note_on,0,0,1,,,,,,,,,0,,72,100
5184,note_on,48,0,2,,,,,,,,,1,,60,0
5184,note_on,0,0,2,,,,,,,,,1,,58,100
5196,note_on,12,0,1,,,,,,,,,0,,77,0
5196,note_on,0,0,1,,,,,,,,,0,,76,100
5208,note_on,12,0,1,,,,,,,,,0,,76,0
5208,note_on,0,0,1,,,,,,,,,0,,77,100
5220,note_on,0,0,1,,,,,,,,,0,,76,100
5220,note_on,12,0,1,,,,,,,,,0,,77,0
5232,note_on,0,0,1,,,,,,,,,0,,77,100
5232,note_on,12,0,1,,,,,,,,,0,,76,0
5244,note_on,0,0,1,,,,,,,,,0,,76,100
5244,note_on,12,0,1,,,,,,,,,0,,77,0
5256,note_on,0,0,1,,,,,,,,,0,,77,100
5256,note_on,12,0,1,,,,,,,,,0,,76,0
5268,note_on,12,0,1,,,,,,,,,0,,77,0
5268,note_on,0,0,1,,,,,,,,,0,,76,100
5280,note_on,0,0,1,,,,,,,,,0,,77,100
5280,note_on,12,0,1,,,,,,,,,0,,76,0
5292,note_on,12,0,1,,,,,,,,,0,,77,0
5292,note_on,0,0,1,,,,,,,,,0,,76,100
5328,note_on,0,0,2,,,,,,,,,1,,58,100
5328,note_on,144,0,2,,,,,,,,,1,,58,0
5328,note_on,36,0,1,,,,,,,,,0,,76,0
5328,note_on,0,0,1,,,,,,,,,0,,76,100
5376,note_on,0,0,1,,,,,,,,,0,,77,100
5376,note_on,0,0,2,,,,,,,,,1,,57,100
5376,note_on,48,0,2,,,,,,,,,1,,58,0
5376,note_on,48,0,1,,,,,,,,,0,,76,0
5376,note_on,0,0,1,,,,,,,,,0,,72,0
5388,note_on,12,0,1,,,,,,,,,0,,77,0
5388,note_on,0,0,1,,,,,,,,,0,,76,100
5400,note_on,12,0,1,,,,,,,,,0,,76,0
5400,note_on,0,0,1,,,,,,,,,0,,77,100
5472,note_on,0,0,2,,,,,,,,,1,,53,100
5472,note_on,96,0,2,,,,,,,,,1,,57,0
5472,note_on,72,0,1,,,,,,,,,0,,77,0
5496,note_on,24,0,1,,,,,,,,,0,,76,100
5520,note_on,24,0,1,,,,,,,,,0,,76,0
5520,note_on,0,0,1,,,,,,,,,0,,77,100
5544,note_on,24,0,1,,,,,,,,,0,,77,0
5544,note_on,0,0,1,,,,,,,,,0,,79,100
5568,note_on,0,0,1,,,,,,,,,0,,76,100
5568,note_on,24,0,1,,,,,,,,,0,,79,0
5568,note_on,0,0,1,,,,,,,,,0,,81,100
5568,note_on,96,0,2,,,,,,,,,1,,53,0
5568,note_on,0,0,2,,,,,,,,,1,,60,100
5580,note_on,12,0,1,,,,,,,,,0,,81,0
5580,note_on,0,0,1,,,,,,,,,0,,79,100
5592,note_on,12,0,1,,,,,,,,,0,,79,0
5592,note_on,0,0,1,,,,,,,,,0,,81,100
5604,note_on,12,0,1,,,,,,,,,0,,81,0
5604,note_on,0,0,1,,,,,,,,,0,,79,100
5616,note_on,12,0,1,,,,,,,,,0,,79,0
5616,note_on,0,0,1,,,,,,,,,0,,81,100
5628,note_on,0,0,1,,,,,,,,,0,,79,100
5628,note_on,12,0,1,,,,,,,,,0,,81,0
5640,note_on,0,0,1,,,,,,,,,0,,81,100
5640,note_on,12,0,1,,,,,,,,,0,,79,0
5652,note_on,0,0,1,,,,,,,,,0,,79,100
5652,note_on,12,0,1,,,,,,,,,0,,81,0
5664,note_on,0,0,1,,,,,,,,,0,,81,100
5664,note_on,12,0,1,,,,,,,,,0,,79,0
5664,note_on,96,0,2,,,,,,,,,1,,60,0
5664,note_on,0,0,2,,,,,,,,,1,,48,100
5676,note_on,0,0,1,,,,,,,,,0,,79,100
5676,note_on,12,0,1,,,,,,,,,0,,81,0
5712,note_on,0,0,1,,,,,,,,,0,,77,100
5712,note_on,36,0,1,,,,,,,,,0,,79,0
5736,note_on,24,0,1,,,,,,,,,0,,77,0
5736,note_on,0,0,1,,,,,,,,,0,,79,100
5760,note_on,96,0,2,,,,,,,,,1,,48,0
5760,note_on,24,0,1,,,,,,,,,0,,79,0
5760,note_on,0,0,1,,,,,,,,,0,,76,0
5760,note_on,0,0,2,,,,,,,,,1,,53,100
5760,note_on,0,0,1,,,,,,,,,0,,77,100
5760,note_on,0,0,1,,,,,,,,,0,,72,100
5760,note_on,0,0,1,,,,,,,,,0,,81,100
5856,note_on,96,0,2,,,,,,,,,1,,53,0
5868,note_on,12,0,2,,,,,,,,,1,,48,100
5880,note_on,12,0,2,,,,,,,,,1,,48,0
5880,note_on,0,0,2,,,,,,,,,1,,50,100
5892,note_on,12,0,2,,,,,,,,,1,,50,0
5892,note_on,0,0,2,,,,,,,,,1,,52,100
5904,note_on,12,0,2,,,,,,,,,1,,52,0
5904,note_on,0,0,2,,,,,,,,,1,,52,100
5928,note_on,24,0,2,,,,,,,,,1,,52,0
5952,note_on,24,0,2,,,,,,,,,1,,53,100
5952,note_on,0,0,1,,,,,,,,,0,,72,0
5952,note_on,0,0,1,,,,,,,,,0,,77,0
5952,note_on,192,0,1,,,,,,,,,0,,81,0
5952,note_on,0,0,2,,,,,,,,,1,,41,100
6000,note_on,48,0,1,,,,,,,,,0,,77,100
6024,note_on,0,0,1,,,,,,,,,0,,79,100
6024,note_on,24,0,1,,,,,,,,,0,,77,0
6048,note_on,0,0,1,,,,,,,,,0,,81,100
6048,note_on,24,0,1,,,,,,,,,0,,79,0
6060,note_on,0,0,1,,,,,,,,,0,,79,100
6060,note_on,12,0,1,,,,,,,,,0,,81,0
6072,note_on,12,0,1,,,,,,,,,0,,77,100
6084,note_on,12,0,1,,,,,,,,,0,,79,0
6096,note_on,0,0,1,,,,,,,,,0,,79,100
6096,note_on,12,0,1,,,,,,,,,0,,77,0
6120,note_on,0,0,1,,,,,,,,,0,,81,100
6120,note_on,24,0,1,,,,,,,,,0,,79,0
6144,note_on,0,0,1,,,,,,,,,0,,70,100
6144,note_on,24,0,1,,,,,,,,,0,,81,0
6144,note_on,0,0,1,,,,,,,,,0,,74,100
6144,note_on,0,0,1,,,,,,,,,0,,65,100
6144,note_on,0,0,2,,,,,,,,,1,,53,0
6144,note_on,192,0,2,,,,,,,,,1,,41,0
6192,note_on,48,0,2,,,,,,,,,1,,58,100
6216,note_on,0,0,2,,,,,,,,,1,,60,100
6216,note_on,24,0,2,,,,,,,,,1,,58,0
6240,note_on,0,0,2,,,,,,,,,1,,62,100
6240,note_on,24,0,2,,,,,,,,,1,,60,0
6252,note_on,0,0,2,,,,,,,,,1,,60,100
6252,note_on,12,0,2,,,,,,,,,1,,62,0
6264,note_on,12,0,2,,,,,,,,,1,,60,0
6264,note_on,0,0,2,,,,,,,,,1,,62,100
6276,note_on,12,0,2,,,,,,,,,1,,62,0
6276,note_on,0,0,2,,,,,,,,,1,,60,100
6300,note_on,24,0,2,,,,,,,,,1,,60,0
6300,note_on,0,0,2,,,,,,,,,1,,58,100
6312,note_on,12,0,2,,,,,,,,,1,,58,0
6312,note_on,0,0,2,,,,,,,,,1,,60,100
6324,note_on,0,0,2,,,,,,,,,1,,62,100
6324,note_on,12,0,2,,,,,,,,,1,,60,0
6336,note_on,192,0,1,,,,,,,,,0,,65,0
6336,note_on,0,0,2,,,,,,,,,1,,55,100
6336,note_on,0,0,2,,,,,,,,,1,,58,100
6336,note_on,0,0,2,,,,,,,,,1,,64,100
6336,note_on,12,0,2,,,,,,,,,1,,62,0
6336,note_on,0,0,1,,,,,,,,,0,,70,0
6336,note_on,0,0,1,,,,,,,,,0,,74,0
6384,note_on,48,0,1,,,,,,,,,0,,76,100
6408,note_on,0,0,1,,,,,,,,,0,,77,100
6408,note_on,24,0,1,,,,,,,,,0,,76,0
6432,note_on,0,0,1,,,,,,,,,0,,79,100
6432,note_on,24,0,1,,,,,,,,,0,,77,0
6444,note_on,12,0,1,,,,,,,,,0,,79,0
6444,note_on,0,0,1,,,,,,,,,0,,77,100
6456,note_on,12,0,1,,,,,,,,,0,,76,100
6468,note_on,12,0,1,,,,,,,,,0,,77,0
6480,note_on,12,0,1,,,,,,,,,0,,76,0
6480,note_on,0,0,1,,,,,,,,,0,,77,100
6504,note_on,24,0,1,,,,,,,,,0,,77,0
6504,note_on,0,0,1,,,,,,,,,0,,79,100
6528,note_on,24,0,1,,,,,,,,,0,,79,0
6528,note_on,0,0,1,,,,,,,,,0,,73,100
6528,note_on,0,0,1,,,,,,,,,0,,64,100
6528,note_on,0,0,1,,,,,,,,,0,,69,100
6528,note_on,192,0,2,,,,,,,,,1,,55,0
6528,note_on,0,0,2,,,,,,,,,1,,58,0
6528,note_on,0,0,2,,,,,,,,,1,,64,0
6576,note_on,48,0,2,,,,,,,,,1,,45,100
6624,note_on,0,0,2,,,,,,,,,1,,57,100
6624,note_on,48,0,2,,,,,,,,,1,,45,0
6696,note_on,0,0,2,,,,,,,,,1,,55,100
6696,note_on,72,0,2,,,,,,,,,1,,57,0
6720,note_on,0,0,2,,,,,,,,,1,,53,100
6720,note_on,24,0,2,,,,,,,,,1,,55,0
6720,note_on,0,0,1,,,,,,,,,0,,64,0
6720,note_on,0,0,1,,,,,,,,,0,,73,0
6720,note_on,192,0,1,,,,,,,,,0,,69,0
6768,note_on,48,0,1,,,,,,,,,0,,69,100
6792,note_on,72,0,2,,,,,,,,,1,,53,0
6792,note_on,0,0,2,,,,,,,,,1,,55,100
6816,note_on,0,0,1,,,,,,,,,0,,71,100
6816,note_on,48,0,1,,,,,,,,,0,,69,0
6816,note_on,0,0,2,,,,,,,,,1,,53,100
6816,note_on,24,0,2,,,,,,,,,1,,55,0
6888,note_on,72,0,2,,,,,,,,,1,,53,0
6888,note_on,72,0,1,,,,,,,,,0,,71,0
6888,note_on,0,0,1,,,,,,,,,0,,73,100
6888,note_on,0,0,2,,,,,,,,,1,,52,100
6912,note_on,24,0,2,,,,,,,,,1,,52,0
6912,note_on,0,0,2,,,,,,,,,1,,50,100
6912,note_on,24,0,1,,,,,,,,,0,,73,0
6912,note_on,0,0,1,,,,,,,,,0,,74,100
6984,note_on,72,0,2,,,,,,,,,1,,50,0
6984,note_on,0,0,2,,,,,,,,,1,,50,100
6984,note_on,0,0,2,,,,,,,,,1,,62,100
6984,note_on,72,0,1,,,,,,,,,0,,74,0
6984,note_on,0,0,1,,,,,,,,,0,,76,100
7008,note_on,24,0,2,,,,,,,,,1,,62,0
7008,note_on,0,0,2,,,,,,,,,1,,50,0
7008,note_on,0,0,2,,,,,,,,,1,,60,100
7008,note_on,24,0,1,,,,,,,,,0,,76,0
7008,note_on,0,0,2,,,,,,,,,1,,48,100
7008,note_on,0,0,1,,,,,,,,,0,,77,100
7080,note_on,72,0,2,,,,,,,,,1,,60,0
7080,note_on,0,0,2,,,,,,,,,1,,48,0
7080,note_on,0,0,2,,,,,,,,,1,,46,100
7080,note_on,0,0,1,,,,,,,,,0,,74,100
7080,note_on,72,0,1,,,,,,,,,0,,77,0
7080,note_on,0,0,2,,,,,,,,,1,,58,100
7104,note_on,0,0,2,,,,,,,,,1,,46,0
7104,note_on,24,0,2,,,,,,,,,1,,58,0
7104,note_on,0,0,1,,,,,,,,,0,,81,100
7104,note_on,0,0,2,,,,,,,,,1,,57,100
7104,note_on,24,0,1,,,,,,,,,0,,74,0
7104,note_on,0,0,2,,,,,,,,,1,,45,100
7176,note_on,72,0,2,,,,,,,,,1,,57,0
7176,note_on,0,0,2,,,,,,,,,1,,43,100
7176,note_on,0,0,2,,,,,,,,,1,,55,100
7176,note_on,72,0,1,,,,,,,,,0,,73,100
7176,note_on,0,0,1,,,,,,,,,0,,76,100
7176,note_on,0,0,2,,,,,,,,,1,,45,0
7200,note_on,24,0,2,,,,,,,,,1,,55,0
7200,note_on,0,0,2,,,,,,,,,1,,43,0
7200,note_on,0,0,1,,,,,,,,,0,,73,0
7200,note_on,0,0,1,,,,,,,,,0,,74,100
7200,note_on,0,0,1,,,,,,,,,0,,78,100
7200,note_on,0,0,2,,,,,,,,,1,,54,100
7200,note_on,24,0,1,,,,,,,,,0,,76,0
7200,note_on,0,0,1,,,,,,,,,0,,81,0
7200,note_on,0,0,2,,,,,,,,,1,,42,100
7272,note_on,0,0,2,,,,,,,,,1,,54,0
7272,note_on,0,0,1,,,,,,,,,0,,76,100
7272,note_on,0,0,2,,,,,,,,,1,,52,100
7272,note_on,72,0,2,,,,,,,,,1,,42,0
7272,note_on,0,0,2,,,,,,,,,1,,40,100
7272,note_on,0,0,1,,,,,,,,,0,,79,100
7272,note_on,72,0,1,,,,,,,,,0,,74,0
7272,note_on,0,0,1,,,,,,,,,0,,78,0
7296,note_on,0,0,1,,,,,,,,,0,,81,100
7296,note_on,0,0,2,,,,,,,,,1,,38,100
7296,note_on,0,0,2,,,,,,,,,1,,50,100
7296,note_on,0,0,2,,,,,,,,,1,,52,0
7296,note_on,24,0,2,,,,,,,,,1,,40,0
7296,note_on,0,0,1,,,,,,,,,0,,74,100
7296,note_on,0,0,1,,,,,,,,,0,,69,100
7296,note_on,0,0,1,,,,,,,,,0,,78,100
7296,note_on,0,0,1,,,,,,,,,0,,76,0
7296,note_on,24,0,1,,,,,,,,,0,,79,0
7368,note_on,0,0,2,,,,,,,,,1,,55,100
7368,note_on,0,0,2,,,,,,,,,1,,50,0
7368,note_on,72,0,2,,,,,,,,,1,,38,0
7368,note_on,0,0,2,,,,,,,,,1,,43,100
7392,note_on,24,0,2,,,,,,,,,1,,43,0
7392,note_on,0,0,2,,,,,,,,,1,,55,0
7392,note_on,0,0,2,,,,,,,,,1,,54,100
7392,note_on,0,0,2,,,,,,,,,1,,42,100
7464,note_on,0,0,2,,,,,,,,,1,,40,100
7464,note_on,0,0,2,,,,,,,,,1,,52,100
7464,note_on,0,0,2,,,,,,,,,1,,54,0
7464,note_on,72,0,2,,,,,,,,,1,,42,0
7488,note_on,0,0,1,,,,,,,,,0,,69,0
7488,note_on,0,0,1,,,,,,,,,0,,74,0
7488,note_on,192,0,1,,,,,,,,,0,,81,0
7488,note_on,24,0,2,,,,,,,,,1,,40,0
7488,note_on,0,0,2,,,,,,,,,1,,52,0
7488,note_on,0,0,1,,,,,,,,,0,,78,0
7488,note_on,0,0,2,,,,,,,,,1,,50,100
7488,note_on,0,0,2,,,,,,,,,1,,38,100
7524,note_on,36,0,1,,,,,,,,,0,,67,100
7536,note_on,12,0,1,,,,,,,,,0,,67,0
7536,note_on,0,0,1,,,,,,,,,0,,69,100
7548,note_on,0,0,1,,,,,,,,,0,,70,100
7548,note_on,12,0,1,,,,,,,,,0,,69,0
7560,note_on,12,0,1,,,,,,,,,0,,70,0
7560,note_on,0,0,1,,,,,,,,,0,,72,100
7560,note_on,72,0,2,,,,,,,,,1,,50,0
7560,note_on,0,0,2,,,,,,,,,1,,48,100
7572,note_on,0,0,1,,,,,,,,,0,,74,100
7572,note_on,12,0,1,,,,,,,,,0,,72,0
7584,note_on,0,0,2,,,,,,,,,1,,46,100
7584,note_on,12,0,1,,,,,,,,,0,,74,0
7584,note_on,24,0,2,,,,,,,,,1,,48,0
7584,note_on,0,0,2,,,,,,,,,1,,38,0
7584,note_on,0,0,1,,,,,,,,,0,,76,100
7596,note_on,12,0,1,,,,,,,,,0,,76,0
7596,note_on,0,0,1,,,,,,,,,0,,79,100
7608,note_on,12,0,1,,,,,,,,,0,,79,0
7608,note_on,0,0,1,,,,,,,,,0,,78,100
7644,note_on,36,0,1,,,,,,,,,0,,78,0
7644,note_on,0,0,1,,,,,,,,,0,,76,100
7656,note_on,0,0,1,,,,,,,,,0,,78,100
7656,note_on,0,0,2,,,,,,,,,1,,45,100
7656,note_on,12,0,1,,,,,,,,,0,,76,0
7656,note_on,72,0,2,,,,,,,,,1,,46,0
7680,note_on,0,0,2,,,,,,,,,1,,43,100
7680,note_on,0,0,2,,,,,,,,,1,,46,100
7680,note_on,0,0,2,,,,,,,,,1,,50,100
7680,note_on,0,0,2,,,,,,,,,1,,55,100
7680,note_on,24,0,2,,,,,,,,,1,,45,0
7680,note_on,0,0,1,,,,,,,,,0,,70,100
7680,note_on,24,0,1,,,,,,,,,0,,78,0
7680,note_on,0,0,1,,,,,,,,,0,,79,100
7824,note_on,0,0,1,,,,,,,,,0,,74,100
7824,note_on,144,0,1,,,,,,,,,0,,79,0
7872,note_on,0,0,2,,,,,,,,,1,,50,0
7872,note_on,0,0,2,,,,,,,,,1,,46,0
7872,note_on,0,0,2,,,,,,,,,1,,55,0
7872,note_on,192,0,2,,,,,,,,,1,,43,0
7872,note_on,48,0,1,,,,,,,,,0,,74,0
7872,note_on,0,0,1,,,,,,,,,0,,70,0
7872,note_on,0,0,1,,,,,,,,,0,,72,100
7884,note_on,12,0,1,,,,,,,,,0,,72,0
7884,note_on,0,0,1,,,,,,,,,0,,70,100
7896,note_on,12,0,1,,,,,,,,,0,,70,0
7896,note_on,0,0,1,,,,,,,,,0,,72,100
7908,note_on,12,0,1,,,,,,,,,0,,72,0
7908,note_on,0,0,1,,,,,,,,,0,,70,100
7920,note_on,12,0,1,,,,,,,,,0,,70,0
7920,note_on,0,0,1,,,,,,,,,0,,72,100
7932,note_on,12,0,1,,,,,,,,,0,,72,0
7932,note_on,0,0,1,,,,,,,,,0,,70,100
7944,note_on,12,0,1,,,,,,,,,0,,70,0
7944,note_on,0,0,1,,,,,,,,,0,,72,100
7956,note_on,12,0,1,,,,,,,,,0,,72,0
7956,note_on,0,0,1,,,,,,,,,0,,70,100
7968,note_on,12,0,1,,,,,,,,,0,,70,0
7968,note_on,0,0,1,,,,,,,,,0,,72,100
7980,note_on,12,0,1,,,,,,,,,0,,72,0
7980,note_on,0,0,1,,,,,,,,,0,,70,100
7980,note_on,108,0,2,,,,,,,,,1,,43,100
7992,note_on,0,0,2,,,,,,,,,1,,45,100
7992,note_on,12,0,2,,,,,,,,,1,,43,0
7992,note_on,0,0,1,,,,,,,,,0,,72,100
7992,note_on,12,0,1,,,,,,,,,0,,70,0
8004,note_on,0,0,1,,,,,,,,,0,,70,100
8004,note_on,12,0,1,,,,,,,,,0,,72,0
8004,note_on,12,0,2,,,,,,,,,1,,45,0
8004,note_on,0,0,2,,,,,,,,,1,,46,100
8016,note_on,0,0,1,,,,,,,,,0,,69,100
8016,note_on,12,0,1,,,,,,,,,0,,70,0
8016,note_on,12,0,2,,,,,,,,,1,,46,0
8016,note_on,0,0,2,,,,,,,,,1,,48,100
8028,note_on,12,0,2,,,,,,,,,1,,48,0
8028,note_on,0,0,2,,,,,,,,,1,,50,100
8040,note_on,24,0,1,,,,,,,,,0,,69,0
8040,note_on,12,0,2,,,,,,,,,1,,50,0
8040,note_on,0,0,2,,,,,,,,,1,,52,100
8040,note_on,0,0,1,,,,,,,,,0,,67,100
8052,note_on,12,0,2,,,,,,,,,1,,52,0
8052,note_on,0,0,2,,,,,,,,,1,,54,100
8064,note_on,12,0,2,,,,,,,,,1,,54,0
8064,note_on,0,0,1,,,,,,,,,0,,67,100
8064,note_on,0,0,1,,,,,,,,,0,,74,100
8064,note_on,0,0,2,,,,,,,,,1,,55,100
8064,note_on,24,0,1,,,,,,,,,0,,67,0
8064,note_on,0,0,1,,,,,,,,,0,,70,100
8088,note_on,24,0,1,,,,,,,,,0,,70,0
8088,note_on,0,0,1,,,,,,,,,0,,69,100
8088,note_on,24,0,2,,,,,,,,,1,,55,0
8088,note_on,0,0,2,,,,,,,,,1,,53,100
8112,note_on,24,0,1,,,,,,,,,0,,69,0
8112,note_on,24,0,2,,,,,,,,,1,,53,0
8112,note_on,0,0,2,,,,,,,,,1,,55,100
8112,note_on,0,0,1,,,,,,,,,0,,70,100
8208,note_on,96,0,2,,,,,,,,,1,,55,0
8208,note_on,0,0,2,,,,,,,,,1,,50,100
8256,note_on,48,0,2,,,,,,,,,1,,50,0
8256,note_on,0,0,2,,,,,,,,,1,,48,100
8256,note_on,144,0,1,,,,,,,,,0,,70,0
8268,note_on,12,0,2,,,,,,,,,1,,48,0
8268,note_on,0,0,2,,,,,,,,,1,,46,100
8280,note_on,0,0,2,,,,,,,,,1,,48,100
8280,note_on,12,0,2,,,,,,,,,1,,46,0
8292,note_on,0,0,2,,,,,,,,,1,,46,100
8292,note_on,12,0,2,,,,,,,,,1,,48,0
8304,note_on,12,0,2,,,,,,,,,1,,46,0
8304,note_on,0,0,2,,,,,,,,,1,,48,100
8316,note_on,0,0,2,,,,,,,,,1,,46,100
8316,note_on,12,0,2,,,,,,,,,1,,48,0
8328,note_on,12,0,2,,,,,,,,,1,,46,0
8328,note_on,0,0,2,,,,,,,,,1,,48,100
8340,note_on,12,0,2,,,,,,,,,1,,48,0
8340,note_on,0,0,2,,,,,,,,,1,,46,100
8352,note_on,12,0,2,,,,,,,,,1,,46,0
8352,note_on,0,0,2,,,,,,,,,1,,48,100
8352,note_on,96,0,1,,,,,,,,,0,,67,0
8352,note_on,0,0,1,,,,,,,,,0,,74,0
8364,note_on,0,0,2,,,,,,,,,1,,46,100
8364,note_on,12,0,2,,,,,,,,,1,,48,0
8376,note_on,12,0,2,,,,,,,,,1,,46,0
8376,note_on,0,0,2,,,,,,,,,1,,48,100
8388,note_on,12,0,2,,,,,,,,,1,,48,0
8388,note_on,0,0,2,,,,,,,,,1,,46,100
8400,note_on,48,0,1,,,,,,,,,0,,74,100
8400,note_on,12,0,2,,,,,,,,,1,,46,0
8400,note_on,0,0,2,,,,,,,,,1,,45,100
8424,note_on,0,0,2,,,,,,,,,1,,43,100
8424,note_on,24,0,2,,,,,,,,,1,,45,0
8448,note_on,0,0,2,,,,,,,,,1,,55,100
8448,note_on,0,0,2,,,,,,,,,1,,51,100
8448,note_on,24,0,2,,,,,,,,,1,,43,0
8448,note_on,0,0,1,,,,,,,,,0,,74,100
8448,note_on,48,0,1,,,,,,,,,0,,74,0
8520,note_on,0,0,1,,,,,,,,,0,,67,100
8520,note_on,72,0,1,,,,,,,,,0,,74,0
8544,note_on,0,0,1,,,,,,,,,0,,69,100
8544,note_on,24,0,1,,,,,,,,,0,,67,0
8616,note_on,0,0,1,,,,,,,,,0,,70,100
8616,note_on,72,0,1,,,,,,,,,0,,69,0
8640,note_on,192,0,2,,,,,,,,,1,,55,0
8640,note_on,0,0,2,,,,,,,,,1,,51,0
8640,note_on,0,0,1,,,,,,,,,0,,69,100
8640,note_on,0,0,1,,,,,,,,,0,,63,100
8640,note_on,24,0,1,,,,,,,,,0,,70,0
8640,note_on,0,0,1,,,,,,,,,0,,72,100
8688,note_on,48,0,2,,,,,,,,,1,,57,100
8736,note_on,96,0,1,,,,,,,,,0,,63,0
8736,note_on,48,0,2,,,,,,,,,1,,57,0
8736,note_on,0,0,2,,,,,,,,,1,,58,100
8736,note_on,0,0,1,,,,,,,,,0,,69,0
8784,note_on,0,0,2,,,,,,,,,1,,60,100
8784,note_on,48,0,1,,,,,,,,,0,,72,0
8784,note_on,0,0,1,,,,,,,,,0,,72,100
8784,note_on,48,0,2,,,,,,,,,1,,58,0
8832,note_on,0,0,2,,,,,,,,,1,,55,100
8832,note_on,0,0,1,,,,,,,,,0,,72,100
8832,note_on,48,0,2,,,,,,,,,1,,60,0
8832,note_on,0,0,1,,,,,,,,,0,,62,100
8832,note_on,0,0,1,,,,,,,,,0,,69,100
8832,note_on,48,0,1,,,,,,,,,0,,72,0
8844,note_on,12,0,2,,,,,,,,,1,,55,0
8844,note_on,0,0,2,,,,,,,,,1,,54,100
8856,note_on,12,0,2,,,,,,,,,1,,54,0
8856,note_on,0,0,2,,,,,,,,,1,,55,100
8868,note_on,12,0,2,,,,,,,,,1,,55,0
8868,note_on,0,0,2,,,,,,,,,1,,54,100
8880,note_on,12,0,2,,,,,,,,,1,,54,0
8880,note_on,0,0,2,,,,,,,,,1,,55,100
8892,note_on,12,0,2,,,,,,,,,1,,55,0
8892,note_on,0,0,2,,,,,,,,,1,,54,100
8904,note_on,0,0,2,,,,,,,,,1,,55,100
8904,note_on,12,0,2,,,,,,,,,1,,54,0
8916,note_on,12,0,2,,,,,,,,,1,,55,0
8916,note_on,0,0,2,,,,,,,,,1,,54,100
8928,note_on,0,0,1,,,,,,,,,0,,66,100
8928,note_on,12,0,2,,,,,,,,,1,,54,0
8928,note_on,0,0,2,,,,,,,,,1,,50,100
8928,note_on,96,0,1,,,,,,,,,0,,62,0
8928,note_on,0,0,1,,,,,,,,,0,,69,0
8976,note_on,48,0,1,,,,,,,,,0,,72,0
8976,note_on,0,0,1,,,,,,,,,0,,74,100
9024,note_on,48,0,1,,,,,,,,,0,,74,0
9024,note_on,0,0,1,,,,,,,,,0,,66,0
9024,note_on,0,0,1,,,,,,,,,0,,72,100
9024,note_on,0,0,2,,,,,,,,,1,,55,100
9024,note_on,96,0,2,,,,,,,,,1,,50,0
9024,note_on,0,0,1,,,,,,,,,0,,67,100
9036,note_on,0,0,1,,,,,,,,,0,,70,100
9036,note_on,12,0,1,,,,,,,,,0,,72,0
9048,note_on,0,0,1,,,,,,,,,0,,72,100
9048,note_on,12,0,1,,,,,,,,,0,,70,0
9060,note_on,0,0,1,,,,,,,,,0,,70,100
9060,note_on,12,0,1,,,,,,,,,0,,72,0
9072,note_on,0,0,1,,,,,,,,,0,,72,100
9072,note_on,12,0,1,,,,,,,,,0,,70,0
9084,note_on,0,0,1,,,,,,,,,0,,70,100
9084,note_on,12,0,1,,,,,,,,,0,,72,0
9096,note_on,0,0,1,,,,,,,,,0,,72,100
9096,note_on,12,0,1,,,,,,,,,0,,70,0
9108,note_on,0,0,1,,,,,,,,,0,,70,100
9108,note_on,12,0,1,,,,,,,,,0,,72,0
9120,note_on,96,0,2,,,,,,,,,1,,55,0
9120,note_on,0,0,2,,,,,,,,,1,,43,100
9120,note_on,0,0,1,,,,,,,,,0,,72,100
9120,note_on,12,0,1,,,,,,,,,0,,70,0
9132,note_on,0,0,1,,,,,,,,,0,,70,100
9132,note_on,12,0,1,,,,,,,,,0,,72,0
9144,note_on,0,0,1,,,,,,,,,0,,72,100
9144,note_on,12,0,1,,,,,,,,,0,,70,0
9156,note_on,12,0,1,,,,,,,,,0,,72,0
9156,note_on,0,0,1,,,,,,,,,0,,70,100
9168,note_on,12,0,1,,,,,,,,,0,,70,0
9168,note_on,0,0,1,,,,,,,,,0,,69,100
9216,note_on,48,0,1,,,,,,,,,0,,69,0
9216,note_on,0,0,1,,,,,,,,,0,,67,0
9216,note_on,0,0,1,,,,,,,,,0,,66,100
9216,note_on,0,0,1,,,,,,,,,0,,69,100
9216,note_on,0,0,1,,,,,,,,,0,,62,100
9216,note_on,96,0,2,,,,,,,,,1,,43,0
9216,note_on,0,0,2,,,,,,,,,1,,50,100
9216,note_on,0,0,2,,,,,,,,,1,,57,100
9216,note_on,0,0,2,,,,,,,,,1,,54,100
9300,note_on,84,0,1,,,,,,,,,0,,62,100
9312,note_on,0,0,2,,,,,,,,,1,,54,0
9312,note_on,0,0,2,,,,,,,,,1,,57,0
9312,note_on,96,0,2,,,,,,,,,1,,50,0
9312,note_on,0,0,1,,,,,,,,,0,,64,100
9312,note_on,12,0,1,,,,,,,,,0,,62,0
9312,note_on,0,0,1,,,,,,,,,0,,66,0
9312,note_on,0,0,1,,,,,,,,,0,,69,0
9312,note_on,0,0,1,,,,,,,,,0,,62,0
9324,note_on,0,0,1,,,,,,,,,0,,65,100
9324,note_on,12,0,1,,,,,,,,,0,,64,0
9336,note_on,0,0,1,,,,,,,,,0,,67,100
9336,note_on,12,0,1,,,,,,,,,0,,65,0
9348,note_on,0,0,1,,,,,,,,,0,,69,100
9348,note_on,12,0,1,,,,,,,,,0,,67,0
9360,note_on,0,0,1,,,,,,,,,0,,71,100
9360,note_on,12,0,1,,,,,,,,,0,,69,0
9372,note_on,12,0,1,,,,,,,,,0,,71,0
9372,note_on,0,0,1,,,,,,,,,0,,73,100
9384,note_on,12,0,1,,,,,,,,,0,,73,0
9384,note_on,0,0,1,,,,,,,,,0,,74,100
9390,note_on,6,0,1,,,,,,,,,0,,74,0
9396,note_on,6,0,1,,,,,,,,,0,,76,100
9402,note_on,6,0,1,,,,,,,,,0,,76,0
9408,note_on,6,0,1,,,,,,,,,0,,79,100
9408,note_on,0,0,1,,,,,,,,,0,,69,100
9408,note_on,0,0,1,,,,,,,,,0,,74,100
9420,note_on,0,0,1,,,,,,,,,0,,77,100
9420,note_on,12,0,1,,,,,,,,,0,,79,0
9432,note_on,12,0,1,,,,,,,,,0,,77,0
9432,note_on,0,0,1,,,,,,,,,0,,79,100
9444,note_on,12,0,1,,,,,,,,,0,,79,0
9444,note_on,0,0,1,,,,,,,,,0,,77,100
9456,note_on,0,0,1,,,,,,,,,0,,79,100
9456,note_on,144,0,2,,,,,,,,,1,,50,100
9456,note_on,12,0,1,,,,,,,,,0,,77,0
9468,note_on,12,0,1,,,,,,,,,0,,79,0
9468,note_on,0,0,1,,,,,,,,,0,,77,100
9480,note_on,12,0,1,,,,,,,,,0,,77,0
9480,note_on,0,0,1,,,,,,,,,0,,79,100
9492,note_on,12,0,1,,,,,,,,,0,,79,0
9492,note_on,0,0,1,,,,,,,,,0,,77,100
9504,note_on,48,0,2,,,,,,,,,1,,50,0
9504,note_on,0,0,1,,,,,,,,,0,,69,0
9504,note_on,0,0,1,,,,,,,,,0,,74,0
9504,note_on,0,0,1,,,,,,,,,0,,79,100
9504,note_on,0,0,2,,,,,,,,,1,,62,100
9504,note_on,12,0,1,,,,,,,,,0,,77,0
9516,note_on,12,0,1,,,,,,,,,0,,79,0
9516,note_on,0,0,1,,,,,,,,,0,,77,100
9528,note_on,12,0,1,,,,,,,,,0,,77,0
9528,note_on,0,0,1,,,,,,,,,0,,79,100
9540,note_on,12,0,1,,,,,,,,,0,,79,0
9540,note_on,0,0,1,,,,,,,,,0,,77,100
9552,note_on,12,0,1,,,,,,,,,0,,77,0
9552,note_on,0,0,1,,,,,,,,,0,,77,100
9576,note_on,72,0,2,,,,,,,,,1,,62,0
9576,note_on,0,0,2,,,,,,,,,1,,60,100
9600,note_on,24,0,2,,,,,,,,,1,,60,0
9600,note_on,0,0,2,,,,,,,,,1,,60,100
9600,note_on,0,0,1,,,,,,,,,0,,74,100
9600,note_on,0,0,1,,,,,,,,,0,,67,100
9600,note_on,0,0,1,,,,,,,,,0,,71,100
9600,note_on,0,0,1,,,,,,,,,0,,77,100
9600,note_on,48,0,1,,,,,,,,,0,,77,0
9612,note_on,0,0,2,,,,,,,,,1,,59,100
9612,note_on,12,0,2,,,,,,,,,1,,60,0
9624,note_on,12,0,2,,,,,,,,,1,,59,0
9624,note_on,0,0,2,,,,,,,,,1,,60,100
9636,note_on,0,0,2,,,,,,,,,1,,59,100
9636,note_on,12,0,2,,,,,,,,,1,,60,0
9648,note_on,0,0,2,,,,,,,,,1,,60,100
9648,note_on,12,0,2,,,,,,,,,1,,59,0
9660,note_on,0,0,2,,,,,,,,,1,,59,100
9660,note_on,12,0,2,,,,,,,,,1,,60,0
9672,note_on,12,0,2,,,,,,,,,1,,59,0
9672,note_on,0,0,2,,,,,,,,,1,,60,100
9684,note_on,12,0,2,,,,,,,,,1,,60,0
9684,note_on,0,0,2,,,,,,,,,1,,59,100
9696,note_on,12,0,2,,,,,,,,,1,,59,0
9696,note_on,0,0,2,,,,,,,,,1,,60,100
9708,note_on,12,0,2,,,,,,,,,1,,60,0
9708,note_on,0,0,2,,,,,,,,,1,,59,100
9720,note_on,12,0,2,,,,,,,,,1,,59,0
9720,note_on,0,0,2,,,,,,,,,1,,60,100
9732,note_on,0,0,2,,,,,,,,,1,,59,100
9732,note_on,12,0,2,,,,,,,,,1,,60,0
9744,note_on,0,0,2,,,,,,,,,1,,57,100
9744,note_on,144,0,1,,,,,,,,,0,,77,0
9744,note_on,0,0,1,,,,,,,,,0,,79,100
9744,note_on,12,0,2,,,,,,,,,1,,59,0
9768,note_on,0,0,2,,,,,,,,,1,,55,100
9768,note_on,24,0,2,,,,,,,,,1,,57,0
9792,note_on,0,0,2,,,,,,,,,1,,60,100
9792,note_on,0,0,1,,,,,,,,,0,,72,100
9792,note_on,24,0,2,,,,,,,,,1,,55,0
9792,note_on,0,0,1,,,,,,,,,0,,67,0
9792,note_on,0,0,1,,,,,,,,,0,,74,0
9792,note_on,48,0,1,,,,,,,,,0,,79,0
9792,note_on,0,0,1,,,,,,,,,0,,71,0
9792,note_on,0,0,1,,,,,,,,,0,,77,100
9804,note_on,12,0,1,,,,,,,,,0,,77,0
9804,note_on,0,0,1,,,,,,,,,0,,75,100
9816,note_on,12,0,1,,,,,,,,,0,,75,0
9816,note_on,0,0,1,,,,,,,,,0,,77,100
9828,note_on,0,0,1,,,,,,,,,0,,75,100
9828,note_on,12,0,1,,,,,,,,,0,,77,0
9840,note_on,0,0,1,,,,,,,,,0,,77,100
9840,note_on,12,0,1,,,,,,,,,0,,75,0
9852,note_on,0,0,1,,,,,,,,,0,,75,100
9852,note_on,12,0,1,,,,,,,,,0,,77,0
9864,note_on,12,0,1,,,,,,,,,0,,75,0
9864,note_on,0,0,1,,,,,,,,,0,,77,100
9876,note_on,12,0,1,,,,,,,,,0,,77,0
9876,note_on,0,0,1,,,,,,,,,0,,75,100
9888,note_on,12,0,1,,,,,,,,,0,,75,0
9888,note_on,0,0,1,,,,,,,,,0,,77,100
9888,note_on,0,0,2,,,,,,,,,1,,48,100
9888,note_on,96,0,2,,,,,,,,,1,,60,0
9900,note_on,0,0,1,,,,,,,,,0,,75,100
9900,note_on,12,0,1,,,,,,,,,0,,77,0
9912,note_on,12,0,1,,,,,,,,,0,,75,0
9912,note_on,0,0,1,,,,,,,,,0,,77,100
9924,note_on,12,0,1,,,,,,,,,0,,77,0
9924,note_on,0,0,1,,,,,,,,,0,,75,100
9936,note_on,0,0,1,,,,,,,,,0,,74,100
9936,note_on,12,0,1,,,,,,,,,0,,75,0
9984,note_on,0,0,1,,,,,,,,,0,,72,0
9984,note_on,48,0,1,,,,,,,,,0,,74,0
9984,note_on,0,0,2,,,,,,,,,1,,55,100
9984,note_on,96,0,2,,,,,,,,,1,,48,0
9984,note_on,0,0,1,,,,,,,,,0,,74,100
9984,note_on,0,0,1,,,,,,,,,0,,70,100
9984,note_on,0,0,1,,,,,,,,,0,,67,100
10080,note_on,96,0,2,,,,,,,,,1,,55,0
10092,note_on,12,0,2,,,,,,,,,1,,50,100
10104,note_on,0,0,2,,,,,,,,,1,,52,100
10104,note_on,12,0,2,,,,,,,,,1,,50,0
10116,note_on,0,0,2,,,,,,,,,1,,54,100
10116,note_on,12,0,2,,,,,,,,,1,,52,0
10128,note_on,12,0,2,,,,,,,,,1,,54,0
10128,note_on,0,0,2,,,,,,,,,1,,54,100
10152,note_on,24,0,2,,,,,,,,,1,,54,0
10176,note_on,0,0,2,,,,,,,,,1,,43,100
10176,note_on,192,0,1,,,,,,,,,0,,70,0
10176,note_on,0,0,1,,,,,,,,,0,,74,0
10176,note_on,0,0,1,,,,,,,,,0,,67,0
10176,note_on,24,0,2,,,,,,,,,1,,55,100
10224,note_on,48,0,1,,,,,,,,,0,,70,100
10248,note_on,24,0,1,,,,,,,,,0,,70,0
10248,note_on,0,0,1,,,,,,,,,0,,72,100
10272,note_on,0,0,1,,,,,,,,,0,,74,100
10272,note_on,24,0,1,,,,,,,,,0,,72,0
10284,note_on,12,0,1,,,,,,,,,0,,74,0
10284,note_on,0,0,1,,,,,,,,,0,,72,100
10296,note_on,12,0,1,,,,,,,,,0,,72,0
10296,note_on,0,0,1,,,,,,,,,0,,74,100
10308,note_on,12,0,1,,,,,,,,,0,,74,0
10308,note_on,0,0,1,,,,,,,,,0,,72,100
10320,note_on,12,0,1,,,,,,,,,0,,72,0
10320,note_on,0,0,1,,,,,,,,,0,,70,100
10344,note_on,0,0,1,,,,,,,,,0,,72,100
10344,note_on,24,0,1,,,,,,,,,0,,70,0
10356,note_on,12,0,1,,,,,,,,,0,,72,0
10356,note_on,0,0,1,,,,,,,,,0,,74,100
10368,note_on,192,0,2,,,,,,,,,1,,43,0
10368,note_on,12,0,1,,,,,,,,,0,,74,0
10368,note_on,0,0,1,,,,,,,,,0,,67,100
10368,note_on,0,0,1,,,,,,,,,0,,58,100
10368,note_on,0,0,2,,,,,,,,,1,,55,0
10416,note_on,48,0,2,,,,,,,,,1,,51,100
10440,note_on,24,0,2,,,,,,,,,1,,51,0
10440,note_on,0,0,2,,,,,,,,,1,,53,100
10464,note_on,24,0,2,,,,,,,,,1,,53,0
10464,note_on,0,0,2,,,,,,,,,1,,55,100
10476,note_on,12,0,2,,,,,,,,,1,,55,0
10476,note_on,0,0,2,,,,,,,,,1,,53,100
10488,note_on,12,0,2,,,,,,,,,1,,53,0
10488,note_on,0,0,2,,,,,,,,,1,,55,100
10500,note_on,12,0,2,,,,,,,,,1,,55,0
10500,note_on,0,0,2,,,,,,,,,1,,53,100
10512,note_on,0,0,2,,,,,,,,,1,,51,100
10512,note_on,12,0,2,,,,,,,,,1,,53,0
10536,note_on,24,0,2,,,,,,,,,1,,51,0
10536,note_on,0,0,2,,,,,,,,,1,,53,100
10548,note_on,0,0,2,,,,,,,,,1,,55,100
10548,note_on,12,0,2,,,,,,,,,1,,53,0
10560,note_on,12,0,2,,,,,,,,,1,,55,0
10560,note_on,0,0,1,,,,,,,,,0,,67,0
10560,note_on,0,0,2,,,,,,,,,1,,55,100
10560,note_on,192,0,1,,,,,,,,,0,,58,0
10560,note_on,0,0,2,,,,,,,,,1,,48,100
10608,note_on,48,0,1,,,,,,,,,0,,72,100
10632,note_on,24,0,1,,,,,,,,,0,,72,0
10632,note_on,0,0,1,,,,,,,,,0,,74,100
10656,note_on,24,0,1,,,,,,,,,0,,74,0
10656,note_on,0,0,1,,,,,,,,,0,,75,100
10668,note_on,12,0,1,,,,,,,,,0,,75,0
10668,note_on,0,0,1,,,,,,,,,0,,74,100
10680,note_on,12,0,1,,,,,,,,,0,,74,0
10680,note_on,0,0,1,,,,,,,,,0,,75,100
10692,note_on,0,0,1,,,,,,,,,0,,74,100
10692,note_on,12,0,1,,,,,,,,,0,,75,0
10704,note_on,0,0,1,,,,,,,,,0,,72,100
10704,note_on,12,0,1,,,,,,,,,0,,74,0
10728,note_on,0,0,1,,,,,,,,,0,,74,100
10728,note_on,24,0,1,,,,,,,,,0,,72,0
10740,note_on,0,0,1,,,,,,,,,0,,75,100
10740,note_on,12,0,1,,,,,,,,,0,,74,0
10752,note_on,0,0,2,,,,,,,,,1,,48,0
10752,note_on,0,0,2,,,,,,,,,1,,41,100
10752,note_on,12,0,1,,,,,,,,,0,,75,0
10752,note_on,0,0,1,,,,,,,,,0,,69,100
10752,note_on,192,0,2,,,,,,,,,1,,55,0
10752,note_on,0,0,2,,,,,,,,,1,,53,100
10764,note_on,12,0,1,,,,,,,,,0,,69,0
10764,note_on,0,0,1,,,,,,,,,0,,65,100
10776,note_on,12,0,1,,,,,,,,,0,,65,0
10776,note_on,0,0,1,,,,,,,,,0,,67,100
10788,note_on,12,0,1,,,,,,,,,0,,67,0
10788,note_on,0,0,1,,,,,,,,,0,,69,100
10800,note_on,12,0,1,,,,,,,,,0,,69,0
10800,note_on,0,0,1,,,,,,,,,0,,70,100
10812,note_on,12,0,1,,,,,,,,,0,,70,0
10812,note_on,0,0,1,,,,,,,,,0,,72,100
10824,note_on,0,0,1,,,,,,,,,0,,74,100
10824,note_on,12,0,1,,,,,,,,,0,,72,0
10836,note_on,12,0,1,,,,,,,,,0,,74,0
10836,note_on,0,0,1,,,,,,,,,0,,76,100
10848,note_on,12,0,1,,,,,,,,,0,,76,0
10848,note_on,0,0,1,,,,,,,,,0,,77,100
10920,note_on,72,0,1,,,,,,,,,0,,77,0
10920,note_on,0,0,1,,,,,,,,,0,,77,100
10944,note_on,24,0,1,,,,,,,,,0,,77,0
10944,note_on,192,0,2,,,,,,,,,1,,41,0
10944,note_on,0,0,2,,,,,,,,,1,,53,0
10944,note_on,0,0,1,,,,,,,,,0,,77,100
10968,note_on,0,0,1,,,,,,,,,0,,76,100
10968,note_on,24,0,1,,,,,,,,,0,,77,0
10992,note_on,24,0,1,,,,,,,,,0,,76,0
10992,note_on,48,0,2,,,,,,,,,1,,53,100
10992,note_on,0,0,1,,,,,,,,,0,,77,100
10992,note_on,0,0,1,,,,,,,,,0,,69,100
11040,note_on,0,0,2,,,,,,,,,1,,55,100
11040,note_on,48,0,2,,,,,,,,,1,,53,0
11040,note_on,48,0,1,,,,,,,,,0,,69,0
11040,note_on,0,0,1,,,,,,,,,0,,70,100
11112,note_on,0,0,2,,,,,,,,,1,,57,100
11112,note_on,72,0,2,,,,,,,,,1,,55,0
11112,note_on,72,0,1,,,,,,,,,0,,70,0
11112,note_on,0,0,1,,,,,,,,,0,,72,100
11136,note_on,24,0,1,,,,,,,,,0,,72,0
11136,note_on,0,0,2,,,,,,,,,1,,46,100
11136,note_on,0,0,1,,,,,,,,,0,,77,100
11136,note_on,0,0,1,,,,,,,,,0,,74,100
11136,note_on,24,0,2,,,,,,,,,1,,57,0
11136,note_on,0,0,2,,,,,,,,,1,,34,100
11136,note_on,0,0,1,,,,,,,,,0,,77,0
11208,note_on,72,0,2,,,,,,,,,1,,46,0
11208,note_on,72,0,1,,,,,,,,,0,,74,0
11208,note_on,0,0,1,,,,,,,,,0,,69,100
11208,note_on,0,0,2,,,,,,,,,1,,36,100
11208,note_on,0,0,2,,,,,,,,,1,,34,0
11208,note_on,0,0,2,,,,,,,,,1,,48,100
11232,note_on,0,0,2,,,,,,,,,1,,38,100
11232,note_on,24,0,1,,,,,,,,,0,,69,0
11232,note_on,0,0,2,,,,,,,,,1,,50,100
11232,note_on,0,0,2,,,,,,,,,1,,36,0
11232,note_on,0,0,1,,,,,,,,,0,,70,100
11232,note_on,24,0,2,,,,,,,,,1,,48,0
11304,note_on,72,0,1,,,,,,,,,0,,70,0
11304,note_on,0,0,2,,,,,,,,,1,,51,100
11304,note_on,0,0,2,,,,,,,,,1,,39,100
11304,note_on,0,0,2,,,,,,,,,1,,38,0
11304,note_on,72,0,2,,,,,,,,,1,,50,0
11304,note_on,0,0,1,,,,,,,,,0,,72,100
11328,note_on,24,0,2,,,,,,,,,1,,51,0
11328,note_on,0,0,2,,,,,,,,,1,,41,100
11328,note_on,0,0,2,,,,,,,,,1,,39,0
11328,note_on,24,0,1,,,,,,,,,0,,72,0
11328,note_on,0,0,1,,,,,,,,,0,,77,0
11328,note_on,0,0,1,,,,,,,,,0,,69,100
11328,note_on,0,0,2,,,,,,,,,1,,53,100
11400,note_on,72,0,1,,,,,,,,,0,,69,0
11400,note_on,0,0,1,,,,,,,,,0,,77,100
11400,note_on,72,0,2,,,,,,,,,1,,53,0
11400,note_on,0,0,2,,,,,,,,,1,,41,0
11400,note_on,0,0,2,,,,,,,,,1,,38,100
11400,note_on,0,0,2,,,,,,,,,1,,50,100
11424,note_on,24,0,1,,,,,,,,,0,,77,0
11424,note_on,24,0,2,,,,,,,,,1,,50,0
11424,note_on,0,0,2,,,,,,,,,1,,38,0
11424,note_on,0,0,2,,,,,,,,,1,,43,100
11424,note_on,0,0,2,,,,,,,,,1,,55,100
11424,note_on,0,0,1,,,,,,,,,0,,67,100
11424,note_on,0,0,1,,,,,,,,,0,,72,100
11436,note_on,0,0,1,,,,,,,,,0,,70,100
11436,note_on,12,0,1,,,,,,,,,0,,72,0
11448,note_on,12,0,1,,,,,,,,,0,,70,0
11448,note_on,0,0,1,,,,,,,,,0,,72,100
11496,note_on,72,0,2,,,,,,,,,1,,55,0
11496,note_on,0,0,2,,,,,,,,,1,,51,100
11496,note_on,0,0,2,,,,,,,,,1,,43,0
11496,note_on,0,0,1,,,,,,,,,0,,75,100
11496,note_on,48,0,1,,,,,,,,,0,,72,0
11496,note_on,0,0,2,,,,,,,,,1,,39,100
11520,note_on,24,0,1,,,,,,,,,0,,75,0
11520,note_on,0,0,1,,,,,,,,,0,,65,100
11520,note_on,0,0,1,,,,,,,,,0,,75,100
11520,note_on,0,0,2,,,,,,,,,1,,45,100
11520,note_on,0,0,2,,,,,,,,,1,,57,100
11520,note_on,0,0,2,,,,,,,,,1,,39,0
11520,note_on,24,0,2,,,,,,,,,1,,51,0
11520,note_on,0,0,1,,,,,,,,,0,,67,0
11592,note_on,72,0,1,,,,,,,,,0,,75,0
11592,note_on,0,0,1,,,,,,,,,0,,77,100
11592,note_on,0,0,2,,,,,,,,,1,,41,100
11592,note_on,0,0,2,,,,,,,,,1,,57,0
11592,note_on,72,0,2,,,,,,,,,1,,45,0
11592,note_on,0,0,2,,,,,,,,,1,,53,100
11616,note_on,0,0,2,,,,,,,,,1,,46,100
11616,note_on,0,0,1,,,,,,,,,0,,65,0
11616,note_on,0,0,1,,,,,,,,,0,,75,100
11616,note_on,0,0,1,,,,,,,,,0,,65,100
11616,note_on,0,0,2,,,,,,,,,1,,58,100
11616,note_on,0,0,2,,,,,,,,,1,,53,0
11616,note_on,24,0,1,,,,,,,,,0,,77,0
11616,note_on,24,0,2,,,,,,,,,1,,41,0
11628,note_on,12,0,1,,,,,,,,,0,,75,0
11628,note_on,0,0,1,,,,,,,,,0,,74,100
11640,note_on,12,0,1,,,,,,,,,0,,74,0
11640,note_on,0,0,1,,,,,,,,,0,,75,100
11652,note_on,12,0,1,,,,,,,,,0,,75,0
11652,note_on,0,0,1,,,,,,,,,0,,74,100
11664,note_on,48,0,2,,,,,,,,,1,,46,0
11664,note_on,0,0,2,,,,,,,,,1,,51,100
11664,note_on,0,0,1,,,,,,,,,0,,67,100
11664,note_on,12,0,1,,,,,,,,,0,,65,0
11688,note_on,24,0,1,,,,,,,,,0,,74,0
11688,note_on,0,0,1,,,,,,,,,0,,72,100
11712,note_on,0,0,1,,,,,,,,,0,,70,100
11712,note_on,0,0,1,,,,,,,,,0,,65,100
11712,note_on,0,0,1,,,,,,,,,0,,67,0
11712,note_on,0,0,2,,,,,,,,,1,,53,100
11712,note_on,48,0,2,,,,,,,,,1,,51,0
11712,note_on,24,0,1,,,,,,,,,0,,72,0
11712,note_on,0,0,1,,,,,,,,,0,,74,100
11808,note_on,0,0,1,,,,,,,,,0,,74,0
11808,note_on,0,0,1,,,,,,,,,0,,70,0
11808,note_on,96,0,1,,,,,,,,,0,,65,0
11808,note_on,96,0,2,,,,,,,,,1,,58,0
11808,note_on,0,0,2,,,,,,,,,1,,60,100
11808,note_on,0,0,1,,,,,,,,,0,,63,100
11808,note_on,0,0,1,,,,,,,,,0,,69,100
11808,note_on,0,0,1,,,,,,,,,0,,74,100
11820,note_on,12,0,1,,,,,,,,,0,,74,0
11820,note_on,0,0,1,,,,,,,,,0,,72,100
11832,note_on,12,0,1,,,,,,,,,0,,72,0
11832,note_on,0,0,1,,,,,,,,,0,,74,100
11844,note_on,12,0,1,,,,,,,,,0,,74,0
11844,note_on,0,0,1,,,,,,,,,0,,72,100
11880,note_on,36,0,1,,,,,,,,,0,,72,0
11880,note_on,0,0,1,,,,,,,,,0,,70,100
11904,note_on,96,0,2,,,,,,,,,1,,60,0
11904,note_on,0,0,2,,,,,,,,,1,,53,0
11904,note_on,0,0,2,,,,,,,,,1,,46,100
11904,note_on,0,0,1,,,,,,,,,0,,69,0
11904,note_on,0,0,1,,,,,,,,,0,,62,100
11904,note_on,0,0,1,,,,,,,,,0,,65,100
11904,note_on,0,0,1,,,,,,,,,0,,70,100
11904,note_on,0,0,1,,,,,,,,,0,,63,0
11904,note_on,24,0,1,,,,,,,,,0,,70,0
12000,note_on,96,0,2,,,,,,,,,1,,46,0
12012,note_on,12,0,2,,,,,,,,,1,,53,100
12024,note_on,12,0,2,,,,,,,,,1,,53,0
12024,note_on,0,0,2,,,,,,,,,1,,55,100
12036,note_on,0,0,2,,,,,,,,,1,,57,100
12036,note_on,12,0,2,,,,,,,,,1,,55,0
12048,note_on,0,0,2,,,,,,,,,1,,57,100
12048,note_on,12,0,2,,,,,,,,,1,,57,0
12072,note_on,24,0,2,,,,,,,,,1,,57,0
12096,note_on,0,0,1,,,,,,,,,0,,70,0
12096,note_on,192,0,1,,,,,,,,,0,,62,0
12096,note_on,24,0,2,,,,,,,,,1,,58,100
12096,note_on,0,0,1,,,,,,,,,0,,65,0
12144,note_on,48,0,1,,,,,,,,,0,,74,100
12192,note_on,0,0,2,,,,,,,,,1,,56,100
12192,note_on,0,0,2,,,,,,,,,1,,44,100
12192,note_on,0,0,1,,,,,,,,,0,,65,100
12192,note_on,0,0,1,,,,,,,,,0,,74,100
12192,note_on,48,0,1,,,,,,,,,0,,74,0
12192,note_on,96,0,2,,,,,,,,,1,,58,0
12204,note_on,0,0,1,,,,,,,,,0,,72,100
12204,note_on,12,0,1,,,,,,,,,0,,74,0
12264,note_on,60,0,1,,,,,,,,,0,,74,100
12276,note_on,12,0,1,,,,,,,,,0,,72,0
12288,note_on,0,0,2,,,,,,,,,1,,56,0
12288,note_on,0,0,2,,,,,,,,,1,,55,100
12288,note_on,0,0,2,,,,,,,,,1,,43,100
12288,note_on,96,0,2,,,,,,,,,1,,44,0
12288,note_on,0,0,1,,,,,,,,,0,,65,0
12288,note_on,0,0,1,,,,,,,,,0,,62,100
12288,note_on,12,0,1,,,,,,,,,0,,74,0
12288,note_on,0,0,1,,,,,,,,,0,,72,100
12300,note_on,0,0,1,,,,,,,,,0,,71,100
12300,note_on,12,0,1,,,,,,,,,0,,72,0
12312,note_on,12,0,1,,,,,,,,,0,,71,0
12312,note_on,0,0,1,,,,,,,,,0,,72,100
12324,note_on,12,0,1,,,,,,,,,0,,72,0
12324,note_on,0,0,1,,,,,,,,,0,,71,100
12336,note_on,12,0,1,,,,,,,,,0,,71,0
12336,note_on,0,0,1,,,,,,,,,0,,72,100
12348,note_on,12,0,1,,,,,,,,,0,,72,0
12348,note_on,0,0,1,,,,,,,,,0,,71,100
12360,note_on,12,0,1,,,,,,,,,0,,71,0
12360,note_on,0,0,1,,,,,,,,,0,,72,100
12372,note_on,12,0,1,,,,,,,,,0,,72,0
12372,note_on,0,0,1,,,,,,,,,0,,71,100
12384,note_on,0,0,1,,,,,,,,,0,,72,100
12384,note_on,12,0,1,,,,,,,,,0,,71,0
12384,note_on,96,0,2,,,,,,,,,1,,43,0
12384,note_on,0,0,2,,,,,,,,,1,,55,0
12384,note_on,0,0,2,,,,,,,,,1,,53,100
12384,note_on,0,0,2,,,,,,,,,1,,41,100
12396,note_on,12,0,1,,,,,,,,,0,,72,0
12396,note_on,0,0,1,,,,,,,,,0,,71,100
12432,note_on,36,0,1,,,,,,,,,0,,71,0
12432,note_on,0,0,1,,,,,,,,,0,,71,100
12480,note_on,0,0,2,,,,,,,,,1,,51,100
12480,note_on,0,0,2,,,,,,,,,1,,53,0
12480,note_on,96,0,2,,,,,,,,,1,,41,0
12480,note_on,0,0,1,,,,,,,,,0,,74,100
12480,note_on,48,0,1,,,,,,,,,0,,71,0
12480,note_on,0,0,2,,,,,,,,,1,,55,100
12492,note_on,0,0,1,,,,,,,,,0,,72,100
12492,note_on,12,0,1,,,,,,,,,0,,74,0
12504,note_on,0,0,1,,,,,,,,,0,,74,100
12504,note_on,12,0,1,,,,,,,,,0,,72,0
12516,note_on,12,0,1,,,,,,,,,0,,74,0
12516,note_on,0,0,1,,,,,,,,,0,,72,100
12528,note_on,12,0,1,,,,,,,,,0,,72,0
12528,note_on,0,0,1,,,,,,,,,0,,74,100
12540,note_on,0,0,1,,,,,,,,,0,,72,100
12540,note_on,12,0,1,,,,,,,,,0,,74,0
12576,note_on,36,0,1,,,,,,,,,0,,72,0
12576,note_on,96,0,2,,,,,,,,,1,,55,0
12576,note_on,0,0,2,,,,,,,,,1,,51,0
12576,note_on,0,0,2,,,,,,,,,1,,59,100
12576,note_on,0,0,2,,,,,,,,,1,,53,100
12576,note_on,0,0,2,,,,,,,,,1,,50,100
12576,note_on,0,0,1,,,,,,,,,0,,75,100
12588,note_on,12,0,1,,,,,,,,,0,,75,0
12588,note_on,0,0,1,,,,,,,,,0,,74,100
12600,note_on,12,0,1,,,,,,,,,0,,74,0
12600,note_on,0,0,1,,,,,,,,,0,,75,100
12612,note_on,12,0,1,,,,,,,,,0,,75,0
12612,note_on,0,0,1,,,,,,,,,0,,74,100
12624,note_on,0,0,1,,,,,,,,,0,,75,100
12624,note_on,12,0,1,,,,,,,,,0,,74,0
12636,note_on,0,0,1,,,,,,,,,0,,74,100
12636,note_on,12,0,1,,,,,,,,,0,,75,0
12672,note_on,0,0,1,,,,,,,,,0,,75,100
12672,note_on,0,0,1,,,,,,,,,0,,72,100
12672,note_on,36,0,1,,,,,,,,,0,,74,0
12672,note_on,0,0,2,,,,,,,,,1,,55,100
12672,note_on,0,0,2,,,,,,,,,1,,51,100
12672,note_on,0,0,2,,,,,,,,,1,,48,100
12672,note_on,0,0,2,,,,,,,,,1,,59,0
12672,note_on,0,0,2,,,,,,,,,1,,53,0
12672,note_on,96,0,2,,,,,,,,,1,,50,0
12672,note_on,0,0,1,,,,,,,,,0,,62,0
12672,note_on,0,0,2,,,,,,,,,1,,60,100
12672,note_on,0,0,1,,,,,,,,,0,,67,100
12768,note_on,0,0,1,,,,,,,,,0,,75,0
12768,note_on,96,0,2,,,,,,,,,1,,60,0
12768,note_on,0,0,2,,,,,,,,,1,,48,0
12768,note_on,0,0,2,,,,,,,,,1,,51,0
12768,note_on,0,0,2,,,,,,,,,1,,55,0
12768,note_on,0,0,1,,,,,,,,,0,,67,100
12768,note_on,0,0,1,,,,,,,,,0,,72,0
12768,note_on,96,0,1,,,,,,,,,0,,67,0
12780,note_on,0,0,1,,,,,,,,,0,,69,100
12780,note_on,12,0,1,,,,,,,,,0,,67,0
12792,note_on,0,0,1,,,,,,,,,0,,70,100
12792,note_on,12,0,1,,,,,,,,,0,,69,0
12804,note_on,12,0,1,,,,,,,,,0,,70,0
12804,note_on,0,0,1,,,,,,,,,0,,72,100
12816,note_on,0,0,1,,,,,,,,,0,,74,100
12816,note_on,12,0,1,,,,,,,,,0,,72,0
12816,note_on,48,0,2,,,,,,,,,1,,60,100
12828,note_on,0,0,1,,,,,,,,,0,,76,100
12828,note_on,12,0,1,,,,,,,,,0,,74,0
12840,note_on,12,0,1,,,,,,,,,0,,76,0
12840,note_on,0,0,1,,,,,,,,,0,,77,100
12852,note_on,0,0,1,,,,,,,,,0,,79,100
12852,note_on,12,0,1,,,,,,,,,0,,77,0
12864,note_on,12,0,1,,,,,,,,,0,,79,0
12864,note_on,0,0,1,,,,,,,,,0,,77,100
12864,note_on,0,0,2,,,,,,,,,1,,58,100
12864,note_on,48,0,2,,,,,,,,,1,,60,0
12864,note_on,0,0,1,,,,,,,,,0,,72,100
12876,note_on,0,0,1,,,,,,,,,0,,76,100
12876,note_on,12,0,1,,,,,,,,,0,,77,0
12888,note_on,12,0,1,,,,,,,,,0,,76,0
12888,note_on,0,0,1,,,,,,,,,0,,77,100
12900,note_on,12,0,1,,,,,,,,,0,,77,0
12900,note_on,0,0,1,,,,,,,,,0,,76,100
12912,note_on,0,0,1,,,,,,,,,0,,77,100
12912,note_on,12,0,1,,,,,,,,,0,,76,0
12924,note_on,12,0,1,,,,,,,,,0,,77,0
12924,note_on,0,0,1,,,,,,,,,0,,76,100
12936,note_on,12,0,1,,,,,,,,,0,,76,0
12936,note_on,0,0,1,,,,,,,,,0,,77,100
12948,note_on,12,0,1,,,,,,,,,0,,77,0
12948,note_on,0,0,1,,,,,,,,,0,,76,100
12960,note_on,12,0,1,,,,,,,,,0,,76,0
12960,note_on,0,0,1,,,,,,,,,0,,77,100
12972,note_on,0,0,1,,,,,,,,,0,,76,100
12972,note_on,12,0,1,,,,,,,,,0,,77,0
13008,note_on,144,0,2,,,,,,,,,1,,58,0
13008,note_on,0,0,2,,,,,,,,,1,,58,100
13008,note_on,0,0,1,,,,,,,,,0,,76,100
13008,note_on,36,0,1,,,,,,,,,0,,76,0
13056,note_on,48,0,2,,,,,,,,,1,,58,0
13056,note_on,0,0,2,,,,,,,,,1,,57,100
13056,note_on,48,0,1,,,,,,,,,0,,76,0
13056,note_on,0,0,1,,,,,,,,,0,,77,100
13056,note_on,0,0,1,,,,,,,,,0,,72,0
13068,note_on,12,0,1,,,,,,,,,0,,77,0
13068,note_on,0,0,1,,,,,,,,,0,,76,100
13080,note_on,12,0,1,,,,,,,,,0,,76,0
13080,note_on,0,0,1,,,,,,,,,0,,77,100
13152,note_on,0,0,2,,,,,,,,,1,,53,100
13152,note_on,96,0,2,,,,,,,,,1,,57,0
13152,note_on,72,0,1,,,,,,,,,0,,77,0
13176,note_on,24,0,1,,,,,,,,,0,,76,100
13200,note_on,0,0,1,,,,,,,,,0,,77,100
13200,note_on,24,0,1,,,,,,,,,0,,76,0
13224,note_on,24,0,1,,,,,,,,,0,,77,0
13224,note_on,0,0,1,,,,,,,,,0,,79,100
13248,note_on,0,0,2,,,,,,,,,1,,60,100
13248,note_on,96,0,2,,,,,,,,,1,,53,0
13248,note_on,24,0,1,,,,,,,,,0,,79,0
13248,note_on,0,0,1,,,,,,,,,0,,81,100
13248,note_on,0,0,1,,,,,,,,,0,,76,100
13260,note_on,12,0,1,,,,,,,,,0,,81,0
13260,note_on,0,0,1,,,,,,,,,0,,79,100
13272,note_on,12,0,1,,,,,,,,,0,,79,0
13272,note_on,0,0,1,,,,,,,,,0,,81,100
13284,note_on,0,0,1,,,,,,,,,0,,79,100
13284,note_on,12,0,1,,,,,,,,,0,,81,0
13296,note_on,12,0,1,,,,,,,,,0,,79,0
13296,note_on,0,0,1,,,,,,,,,0,,81,100
13308,note_on,12,0,1,,,,,,,,,0,,81,0
13308,note_on,0,0,1,,,,,,,,,0,,79,100
13320,note_on,12,0,1,,,,,,,,,0,,79,0
13320,note_on,0,0,1,,,,,,,,,0,,81,100
13332,note_on,12,0,1,,,,,,,,,0,,81,0
13332,note_on,0,0,1,,,,,,,,,0,,79,100
13344,note_on,96,0,2,,,,,,,,,1,,60,0
13344,note_on,12,0,1,,,,,,,,,0,,79,0
13344,note_on,0,0,2,,,,,,,,,1,,48,100
13344,note_on,0,0,1,,,,,,,,,0,,81,100
13356,note_on,0,0,1,,,,,,,,,0,,79,100
13356,note_on,12,0,1,,,,,,,,,0,,81,0
13392,note_on,36,0,1,,,,,,,,,0,,79,0
13392,note_on,0,0,1,,,,,,,,,0,,77,100
13416,note_on,24,0,1,,,,,,,,,0,,77,0
13416,note_on,0,0,1,,,,,,,,,0,,79,100
13440,note_on,24,0,1,,,,,,,,,0,,79,0
13440,note_on,0,0,1,,,,,,,,,0,,76,0
13440,note_on,0,0,1,,,,,,,,,0,,72,100
13440,note_on,0,0,1,,,,,,,,,0,,77,100
13440,note_on,0,0,1,,,,,,,,,0,,81,100
13440,note_on,96,0,2,,,,,,,,,1,,48,0
13440,note_on,0,0,2,,,,,,,,,1,,53,100
13536,note_on,96,0,2,,,,,,,,,1,,53,0
13548,note_on,12,0,2,,,,,,,,,1,,48,100
13560,note_on,12,0,2,,,,,,,,,1,,48,0
13560,note_on,0,0,2,,,,,,,,,1,,50,100
13572,note_on,12,0,2,,,,,,,,,1,,50,0
13572,note_on,0,0,2,,,,,,,,,1,,52,100
13584,note_on,0,0,2,,,,,,,,,1,,52,100
13584,note_on,12,0,2,,,,,,,,,1,,52,0
13608,note_on,24,0,2,,,,,,,,,1,,52,0
13632,note_on,0,0,2,,,,,,,,,1,,41,100
13632,note_on,192,0,1,,,,,,,,,0,,81,0
13632,note_on,0,0,1,,,,,,,,,0,,77,0
13632,note_on,0,0,1,,,,,,,,,0,,72,0
13632,note_on,24,0,2,,,,,,,,,1,,53,100
13680,note_on,48,0,1,,,,,,,,,0,,77,100
13704,note_on,0,0,1,,,,,,,,,0,,79,100
13704,note_on,24,0,1,,,,,,,,,0,,77,0
13728,note_on,24,0,1,,,,,,,,,0,,79,0
13728,note_on,0,0,1,,,,,,,,,0,,81,100
13740,note_on,12,0,1,,,,,,,,,0,,81,0
13740,note_on,0,0,1,,,,,,,,,0,,79,100
13752,note_on,12,0,1,,,,,,,,,0,,77,100
13764,note_on,12,0,1,,,,,,,,,0,,79,0
13776,note_on,12,0,1,,,,,,,,,0,,77,0
13776,note_on,0,0,1,,,,,,,,,0,,79,100
13800,note_on,24,0,1,,,,,,,,,0,,79,0
13800,note_on,0,0,1,,,,,,,,,0,,81,100
13824,note_on,24,0,1,,,,,,,,,0,,81,0
13824,note_on,0,0,1,,,,,,,,,0,,65,100
13824,note_on,0,0,1,,,,,,,,,0,,74,100
13824,note_on,0,0,1,,,,,,,,,0,,70,100
13824,note_on,0,0,2,,,,,,,,,1,,53,0
13824,note_on,192,0,2,,,,,,,,,1,,41,0
13872,note_on,48,0,2,,,,,,,,,1,,58,100
13896,note_on,0,0,2,,,,,,,,,1,,60,100
13896,note_on,24,0,2,,,,,,,,,1,,58,0
13920,note_on,0,0,2,,,,,,,,,1,,62,100
13920,note_on,24,0,2,,,,,,,,,1,,60,0
13932,note_on,0,0,2,,,,,,,,,1,,60,100
13932,note_on,12,0,2,,,,,,,,,1,,62,0
13944,note_on,12,0,2,,,,,,,,,1,,60,0
13944,note_on,0,0,2,,,,,,,,,1,,62,100
13956,note_on,0,0,2,,,,,,,,,1,,60,100
13956,note_on,12,0,2,,,,,,,,,1,,62,0
13980,note_on,0,0,2,,,,,,,,,1,,58,100
13980,note_on,24,0,2,,,,,,,,,1,,60,0
13992,note_on,0,0,2,,,,,,,,,1,,60,100
13992,note_on,12,0,2,,,,,,,,,1,,58,0
14004,note_on,12,0,2,,,,,,,,,1,,60,0
14004,note_on,0,0,2,,,,,,,,,1,,62,100
14016,note_on,0,0,1,,,,,,,,,0,,74,0
14016,note_on,0,0,1,,,,,,,,,0,,70,0
14016,note_on,192,0,1,,,,,,,,,0,,65,0
14016,note_on,12,0,2,,,,,,,,,1,,62,0
14016,note_on,0,0,2,,,,,,,,,1,,64,100
14016,note_on,0,0,2,,,,,,,,,1,,58,100
14016,note_on,0,0,2,,,,,,,,,1,,55,100
14064,note_on,48,0,1,,,,,,,,,0,,76,100
14088,note_on,24,0,1,,,,,,,,,0,,76,0
14088,note_on,0,0,1,,,,,,,,,0,,77,100
14112,note_on,24,0,1,,,,,,,,,0,,77,0
14112,note_on,0,0,1,,,,,,,,,0,,79,100
14124,note_on,12,0,1,,,,,,,,,0,,79,0
14124,note_on,0,0,1,,,,,,,,,0,,77,100
14136,note_on,12,0,1,,,,,,,,,0,,76,100
14148,note_on,12,0,1,,,,,,,,,0,,77,0
14160,note_on,12,0,1,,,,,,,,,0,,76,0
14160,note_on,0,0,1,,,,,,,,,0,,77,100
14184,note_on,24,0,1,,,,,,,,,0,,77,0
14184,note_on,0,0,1,,,,,,,,,0,,79,100
14208,note_on,24,0,1,,,,,,,,,0,,79,0
14208,note_on,0,0,1,,,,,,,,,0,,73,100
14208,note_on,0,0,1,,,,,,,,,0,,64,100
14208,note_on,0,0,1,,,,,,,,,0,,69,100
14208,note_on,192,0,2,,,,,,,,,1,,55,0
14208,note_on,0,0,2,,,,,,,,,1,,64,0
14208,note_on,0,0,2,,,,,,,,,1,,58,0
14256,note_on,48,0,2,,,,,,,,,1,,45,100
14304,note_on,48,0,2,,,,,,,,,1,,45,0
14304,note_on,0,0,2,,,,,,,,,1,,57,100
14376,note_on,0,0,2,,,,,,,,,1,,55,100
14376,note_on,72,0,2,,,,,,,,,1,,57,0
14400,note_on,0,0,1,,,,,,,,,0,,64,0
14400,note_on,0,0,1,,,,,,,,,0,,73,0
14400,note_on,0,0,2,,,,,,,,,1,,53,100
14400,note_on,24,0,2,,,,,,,,,1,,55,0
14400,note_on,192,0,1,,,,,,,,,0,,69,0
14448,note_on,48,0,1,,,,,,,,,0,,69,100
14472,note_on,72,0,2,,,,,,,,,1,,53,0
14472,note_on,0,0,2,,,,,,,,,1,,55,100
14496,note_on,0,0,1,,,,,,,,,0,,71,100
14496,note_on,48,0,1,,,,,,,,,0,,69,0
14496,note_on,24,0,2,,,,,,,,,1,,55,0
14496,note_on,0,0,2,,,,,,,,,1,,53,100
14568,note_on,0,0,1,,,,,,,,,0,,73,100
14568,note_on,72,0,2,,,,,,,,,1,,53,0
14568,note_on,72,0,1,,,,,,,,,0,,71,0
14568,note_on,0,0,2,,,,,,,,,1,,52,100
14592,note_on,24,0,1,,,,,,,,,0,,73,0
14592,note_on,0,0,1,,,,,,,,,0,,74,100
14592,note_on,24,0,2,,,,,,,,,1,,52,0
14592,note_on,0,0,2,,,,,,,,,1,,50,100
14664,note_on,0,0,2,,,,,,,,,1,,62,100
14664,note_on,0,0,1,,,,,,,,,0,,76,100
14664,note_on,0,0,2,,,,,,,,,1,,50,100
14664,note_on,72,0,2,,,,,,,,,1,,50,0
14664,note_on,72,0,1,,,,,,,,,0,,74,0
14688,note_on,24,0,1,,,,,,,,,0,,76,0
14688,note_on,0,0,1,,,,,,,,,0,,77,100
14688,note_on,0,0,2,,,,,,,,,1,,60,100
14688,note_on,0,0,2,,,,,,,,,1,,48,100
14688,note_on,0,0,2,,,,,,,,,1,,50,0
14688,note_on,24,0,2,,,,,,,,,1,,62,0
14760,note_on,0,0,1,,,,,,,,,0,,74,100
14760,note_on,72,0,1,,,,,,,,,0,,77,0
14760,note_on,72,0,2,,,,,,,,,1,,60,0
14760,note_on,0,0,2,,,,,,,,,1,,48,0
14760,note_on,0,0,2,,,,,,,,,1,,46,100
14760,note_on,0,0,2,,,,,,,,,1,,58,100
14784,note_on,0,0,2,,,,,,,,,1,,46,0
14784,note_on,24,0,1,,,,,,,,,0,,74,0
14784,note_on,0,0,1,,,,,,,,,0,,81,100
14784,note_on,24,0,2,,,,,,,,,1,,58,0
14784,note_on,0,0,2,,,,,,,,,1,,57,100
14784,note_on,0,0,2,,,,,,,,,1,,45,100
14856,note_on,0,0,1,,,,,,,,,0,,76,100
14856,note_on,0,0,2,,,,,,,,,1,,55,100
14856,note_on,0,0,2,,,,,,,,,1,,43,100
14856,note_on,0,0,2,,,,,,,,,1,,45,0
14856,note_on,72,0,2,,,,,,,,,1,,57,0
14856,note_on,72,0,1,,,,,,,,,0,,73,100
14880,note_on,24,0,1,,,,,,,,,0,,76,0
14880,note_on,0,0,1,,,,,,,,,0,,73,0
14880,note_on,0,0,1,,,,,,,,,0,,81,0
14880,note_on,0,0,2,,,,,,,,,1,,43,0
14880,note_on,0,0,2,,,,,,,,,1,,42,100
14880,note_on,0,0,2,,,,,,,,,1,,54,100
14880,note_on,0,0,1,,,,,,,,,0,,78,100
14880,note_on,24,0,2,,,,,,,,,1,,55,0
14880,note_on,0,0,1,,,,,,,,,0,,74,100
14952,note_on,0,0,1,,,,,,,,,0,,78,0
14952,note_on,0,0,1,,,,,,,,,0,,76,100
14952,note_on,0,0,1,,,,,,,,,0,,79,100
14952,note_on,72,0,1,,,,,,,,,0,,74,0
14952,note_on,0,0,2,,,,,,,,,1,,52,100
14952,note_on,0,0,2,,,,,,,,,1,,54,0
14952,note_on,72,0,2,,,,,,,,,1,,42,0
14952,note_on,0,0,2,,,,,,,,,1,,40,100
14976,note_on,0,0,1,,,,,,,,,0,,81,100
14976,note_on,24,0,1,,,,,,,,,0,,79,0
14976,note_on,0,0,1,,,,,,,,,0,,76,0
14976,note_on,0,0,1,,,,,,,,,0,,78,100
14976,note_on,0,0,1,,,,,,,,,0,,74,100
14976,note_on,0,0,2,,,,,,,,,1,,38,100
14976,set_tempo,14976,1,0,,,,,,375000,,,,,,
14976,note_on,24,0,2,,,,,,,,,1,,40,0
14976,note_on,0,0,2,,,,,,,,,1,,52,0
14976,note_on,0,0,2,,,,,,,,,1,,50,100
15048,note_on,0,0,1,,,,,,,,,0,,74,100
15048,note_on,72,0,1,,,,,,,,,0,,74,0
15072,note_on,96,0,2,,,,,,,,,1,,38,0
15072,note_on,0,0,1,,,,,,,,,0,,74,100
15072,note_on,0,0,1,,,,,,,,,0,,78,0
15072,note_on,0,0,1,,,,,,,,,0,,81,0
15072,note_on,24,0,1,,,,,,,,,0,,74,0
15072,note_on,0,0,2,,,,,,,,,1,,50,0
15144,note_on,0,0,1,,,,,,,,,0,,74,100
15144,note_on,72,0,1,,,,,,,,,0,,74,0
15168,note_on,0,0,1,,,,,,,,,0,,67,100
15168,note_on,24,0,1,,,,,,,,,0,,74,0
15240,note_on,72,0,1,,,,,,,,,0,,67,0
15240,note_on,0,0,1,,,,,,,,,0,,75,100
15264,note_on,0,0,1,,,,,,,,,0,,75,100
15264,note_on,24,0,1,,,,,,,,,0,,75,0
15336,note_on,0,0,1,,,,,,,,,0,,75,100
15336,note_on,72,0,1,,,,,,,,,0,,75,0
15360,note_on,24,0,1,,,,,,,,,0,,75,0
15360,note_on,0,0,1,,,,,,,,,0,,74,100
15432,note_on,72,0,1,,,,,,,,,0,,74,0
15432,note_on,0,0,1,,,,,,,,,0,,79,100
15456,note_on,24,0,1,,,,,,,,,0,,79,0
15456,note_on,0,0,1,,,,,,,,,0,,79,100
15528,note_on,72,0,1,,,,,,,,,0,,79,0
15528,note_on,0,0,1,,,,,,,,,0,,79,100
15552,note_on,0,0,1,,,,,,,,,0,,79,100
15552,note_on,24,0,1,,,,,,,,,0,,79,0
15624,note_on,0,0,1,,,,,,,,,0,,78,100
15624,note_on,72,0,1,,,,,,,,,0,,79,0
15648,note_on,24,0,1,,,,,,,,,0,,78,0
15648,note_on,0,0,1,,,,,,,,,0,,79,100
15720,note_on,72,0,1,,,,,,,,,0,,79,0
15720,note_on,0,0,1,,,,,,,,,0,,81,100
15744,note_on,24,0,1,,,,,,,,,0,,81,0
15744,note_on,0,0,1,,,,,,,,,0,,82,100
15816,note_on,72,0,1,,,,,,,,,0,,82,0
15816,note_on,0,0,1,,,,,,,,,0,,70,100
15816,note_on,0,0,1,,,,,,,,,0,,67,100
15840,note_on,0,0,1,,,,,,,,,0,,70,0
15840,note_on,0,0,1,,,,,,,,,0,,70,100
15840,note_on,0,0,1,,,,,,,,,0,,67,100
15840,note_on,24,0,1,,,,,,,,,0,,67,0
15912,note_on,72,0,1,,,,,,,,,0,,67,0
15912,note_on,0,0,1,,,,,,,,,0,,70,0
15912,note_on,0,0,1,,,,,,,,,0,,72,100
15912,note_on,0,0,1,,,,,,,,,0,,67,100
15936,note_on,24,0,1,,,,,,,,,0,,67,0
15936,note_on,0,0,1,,,,,,,,,0,,72,0
15936,note_on,0,0,1,,,,,,,,,0,,74,100
15936,note_on,0,0,1,,,,,,,,,0,,62,100
16008,note_on,0,0,1,,,,,,,,,0,,70,100
16008,note_on,0,0,1,,,,,,,,,0,,74,0
16008,note_on,72,0,1,,,,,,,,,0,,62,0
16008,note_on,0,0,1,,,,,,,,,0,,73,100
16032,note_on,24,0,1,,,,,,,,,0,,70,0
16032,note_on,0,0,1,,,,,,,,,0,,73,0
16032,note_on,0,0,1,,,,,,,,,0,,74,100
16032,note_on,0,0,1,,,,,,,,,0,,70,100
16104,note_on,72,0,1,,,,,,,,,0,,70,0
16104,note_on,0,0,1,,,,,,,,,0,,74,0
16104,note_on,0,0,1,,,,,,,,,0,,70,100
16104,note_on,0,0,1,,,,,,,,,0,,76,100
16128,note_on,0,0,1,,,,,,,,,0,,69,100
16128,note_on,0,0,1,,,,,,,,,0,,76,0
16128,note_on,0,0,1,,,,,,,,,0,,73,100
16128,note_on,24,0,1,,,,,,,,,0,,70,0
16200,note_on,72,0,1,,,,,,,,,0,,69,0
16200,note_on,0,0,1,,,,,,,,,0,,73,0
16200,note_on,0,0,1,,,,,,,,,0,,77,100
16200,note_on,0,0,1,,,,,,,,,0,,74,100
16224,note_on,0,0,1,,,,,,,,,0,,77,100
16224,note_on,0,0,1,,,,,,,,,0,,74,100
16224,note_on,24,0,1,,,,,,,,,0,,74,0
16224,note_on,0,0,1,,,,,,,,,0,,77,0
16296,note_on,72,0,1,,,,,,,,,0,,74,0
16296,note_on,0,0,1,,,,,,,,,0,,77,0
16296,note_on,0,0,1,,,,,,,,,0,,77,100
16296,note_on,0,0,1,,,,,,,,,0,,74,100
16320,note_on,24,0,1,,,,,,,,,0,,74,0
16320,note_on,0,0,1,,,,,,,,,0,,77,0
16320,note_on,0,0,1,,,,,,,,,0,,77,100
16320,note_on,0,0,1,,,,,,,,,0,,74,100
16392,note_on,0,0,1,,,,,,,,,0,,76,100
16392,note_on,0,0,1,,,,,,,,,0,,73,100
16392,note_on,72,0,1,,,,,,,,,0,,74,0
16392,note_on,0,0,1,,,,,,,,,0,,77,0
16416,note_on,24,0,1,,,,,,,,,0,,73,0
16416,note_on,0,0,1,,,,,,,,,0,,76,0
16416,note_on,0,0,1,,,,,,,,,0,,78,100
16416,note_on,0,0,1,,,,,,,,,0,,74,100
16488,note_on,72,0,1,,,,,,,,,0,,74,0
16488,note_on,0,0,1,,,,,,,,,0,,78,0
16488,note_on,0,0,1,,,,,,,,,0,,79,100
16488,note_on,0,0,1,,,,,,,,,0,,76,100
16512,note_on,0,0,1,,,,,,,,,0,,74,100
16512,note_on,0,0,1,,,,,,,,,0,,78,100
16512,note_on,24,0,1,,,,,,,,,0,,76,0
16512,note_on,0,0,1,,,,,,,,,0,,79,0
16584,note_on,72,0,1,,,,,,,,,0,,74,0
16584,note_on,0,0,1,,,,,,,,,0,,78,0
16584,note_on,0,0,1,,,,,,,,,0,,74,100
16584,note_on,0,0,1,,,,,,,,,0,,70,100
16608,note_on,24,0,1,,,,,,,,,0,,70,0
16608,note_on,0,0,1,,,,,,,,,0,,74,0
16608,note_on,0,0,1,,,,,,,,,0,,72,100
16608,note_on,0,0,1,,,,,,,,,0,,79,100
16680,note_on,0,0,1,,,,,,,,,0,,79,100
16680,note_on,0,0,1,,,,,,,,,0,,70,100
16680,note_on,72,0,1,,,,,,,,,0,,79,0
16680,note_on,0,0,1,,,,,,,,,0,,72,0
16704,note_on,24,0,1,,,,,,,,,0,,70,0
16704,note_on,0,0,1,,,,,,,,,0,,79,0
16704,note_on,0,0,1,,,,,,,,,0,,69,100
16704,note_on,0,0,1,,,,,,,,,0,,79,100
16776,note_on,1704,0,2,,,,,,,,,1,,62,100
16776,note_on,72,0,1,,,,,,,,,0,,79,0
16776,note_on,0,0,1,,,,,,,,,0,,81,100
16800,note_on,0,0,2,,,,,,,,,1,,62,100
16800,note_on,24,0,2,,,,,,,,,1,,62,0
16800,note_on,0,0,1,,,,,,,,,0,,74,100
16800,note_on,24,0,1,,,,,,,,,0,,81,0
16800,note_on,0,0,1,,,,,,,,,0,,78,100
16800,note_on,0,0,1,,,,,,,,,0,,69,0
16872,note_on,0,0,2,,,,,,,,,1,,62,100
16872,note_on,72,0,2,,,,,,,,,1,,62,0
16872,note_on,72,0,1,,,,,,,,,0,,74,0
16872,note_on,0,0,1,,,,,,,,,0,,72,100
16872,note_on,0,0,1,,,,,,,,,0,,79,100
16872,note_on,0,0,1,,,,,,,,,0,,78,0
16896,note_on,0,0,1,,,,,,,,,0,,79,100
16896,note_on,24,0,2,,,,,,,,,1,,62,0
16896,note_on,0,0,1,,,,,,,,,0,,79,0
16896,note_on,0,0,2,,,,,,,,,1,,55,100
16896,note_on,24,0,1,,,,,,,,,0,,72,0
16896,note_on,0,0,1,,,,,,,,,0,,70,100
16968,note_on,72,0,2,,,,,,,,,1,,55,0
16968,note_on,0,0,2,,,,,,,,,1,,63,100
16968,note_on,0,0,1,,,,,,,,,0,,67,100
16968,note_on,0,0,1,,,,,,,,,0,,72,100
16968,note_on,0,0,1,,,,,,,,,0,,70,0
16968,note_on,72,0,1,,,,,,,,,0,,79,0
16992,note_on,24,0,2,,,,,,,,,1,,63,0
16992,note_on,0,0,2,,,,,,,,,1,,63,100
16992,note_on,24,0,1,,,,,,,,,0,,67,0
16992,note_on,0,0,1,,,,,,,,,0,,67,100
16992,note_on,0,0,1,,,,,,,,,0,,72,100
16992,note_on,0,0,1,,,,,,,,,0,,72,0
17064,note_on,0,0,2,,,,,,,,,1,,63,100
17064,note_on,0,0,1,,,,,,,,,0,,67,100
17064,note_on,0,0,1,,,,,,,,,0,,72,100
17064,note_on,72,0,1,,,,,,,,,0,,67,0
17064,note_on,72,0,2,,,,,,,,,1,,63,0
17064,note_on,0,0,1,,,,,,,,,0,,72,0
17088,note_on,24,0,2,,,,,,,,,1,,63,0
17088,note_on,0,0,2,,,,,,,,,1,,62,100
17088,note_on,24,0,1,,,,,,,,,0,,67,0
17088,note_on,0,0,1,,,,,,,,,0,,66,100
17088,note_on,0,0,1,,,,,,,,,0,,72,100
17088,note_on,0,0,1,,,,,,,,,0,,72,0
17160,note_on,0,0,1,,,,,,,,,0,,74,100
17160,note_on,72,0,1,,,,,,,,,0,,72,0
17160,note_on,72,0,2,,,,,,,,,1,,62,0
17160,note_on,0,0,2,,,,,,,,,1,,55,100
17184,note_on,0,0,1,,,,,,,,,0,,70,100
17184,note_on,0,0,1,,,,,,,,,0,,66,0
17184,note_on,24,0,1,,,,,,,,,0,,74,0
17184,note_on,0,0,1,,,,,,,,,0,,67,100
17184,note_on,0,0,2,,,,,,,,,1,,55,100
17184,note_on,24,0,2,,,,,,,,,1,,55,0
17256,note_on,72,0,2,,,,,,,,,1,,55,0
17256,note_on,0,0,2,,,,,,,,,1,,55,100
17256,note_on,72,0,1,,,,,,,,,0,,70,0
17256,note_on,0,0,1,,,,,,,,,0,,69,100
17280,note_on,0,0,1,,,,,,,,,0,,67,0
17280,note_on,24,0,2,,,,,,,,,1,,55,0
17280,note_on,0,0,2,,,,,,,,,1,,50,100
17280,note_on,0,0,1,,,,,,,,,0,,69,100
17280,note_on,0,0,1,,,,,,,,,0,,66,100
17280,note_on,24,0,1,,,,,,,,,0,,69,0
17352,note_on,72,0,2,,,,,,,,,1,,50,0
17352,note_on,72,0,1,,,,,,,,,0,,69,0
17352,note_on,0,0,2,,,,,,,,,1,,58,100
17352,note_on,0,0,1,,,,,,,,,0,,74,100
17376,note_on,0,0,1,,,,,,,,,0,,67,100
17376,note_on,0,0,2,,,,,,,,,1,,58,100
17376,note_on,24,0,2,,,,,,,,,1,,58,0
17376,note_on,24,0,1,,,,,,,,,0,,74,0
17376,note_on,0,0,1,,,,,,,,,0,,66,0
17376,note_on,0,0,1,,,,,,,,,0,,74,100
17448,note_on,0,0,2,,,,,,,,,1,,58,100
17448,note_on,72,0,2,,,,,,,,,1,,58,0
17448,note_on,72,0,1,,,,,,,,,0,,74,0
17448,note_on,0,0,1,,,,,,,,,0,,74,100
17472,note_on,0,0,1,,,,,,,,,0,,69,100
17472,note_on,0,0,1,,,,,,,,,0,,73,100
17472,note_on,0,0,1,,,,,,,,,0,,67,0
17472,note_on,24,0,1,,,,,,,,,0,,74,0
17472,note_on,0,0,2,,,,,,,,,1,,57,100
17472,note_on,24,0,2,,,,,,,,,1,,58,0
17544,note_on,0,0,2,,,,,,,,,1,,62,100
17544,note_on,0,0,1,,,,,,,,,0,,73,0
17544,note_on,72,0,2,,,,,,,,,1,,57,0
17544,note_on,0,0,1,,,,,,,,,0,,77,100
17544,note_on,0,0,1,,,,,,,,,0,,69,100
17544,note_on,72,0,1,,,,,,,,,0,,69,0
17568,note_on,24,0,1,,,,,,,,,0,,69,0
17568,note_on,0,0,1,,,,,,,,,0,,77,100
17568,note_on,0,0,1,,,,,,,,,0,,77,0
17568,note_on,0,0,2,,,,,,,,,1,,62,100
17568,note_on,0,0,1,,,,,,,,,0,,69,100
17568,note_on,24,0,2,,,,,,,,,1,,62,0
17640,note_on,72,0,2,,,,,,,,,1,,62,0
17640,note_on,0,0,1,,,,,,,,,0,,77,0
17640,note_on,72,0,1,,,,,,,,,0,,69,0
17640,note_on,0,0,1,,,,,,,,,0,,77,100
17640,note_on,0,0,1,,,,,,,,,0,,69,100
17640,note_on,0,0,2,,,,,,,,,1,,62,100
17664,note_on,24,0,1,,,,,,,,,0,,69,0
17664,note_on,0,0,1,,,,,,,,,0,,67,100
17664,note_on,0,0,1,,,,,,,,,0,,70,100
17664,note_on,0,0,1,,,,,,,,,0,,76,100
17664,note_on,0,0,1,,,,,,,,,0,,77,0
17664,note_on,24,0,2,,,,,,,,,1,,62,0
17664,note_on,0,0,2,,,,,,,,,1,,62,100
17736,note_on,0,0,1,,,,,,,,,0,,76,0
17736,note_on,72,0,1,,,,,,,,,0,,67,0
17736,note_on,72,0,2,,,,,,,,,1,,62,0
17736,note_on,0,0,2,,,,,,,,,1,,55,100
17736,note_on,0,0,1,,,,,,,,,0,,76,100
17736,note_on,0,0,1,,,,,,,,,0,,70,100
17736,note_on,0,0,1,,,,,,,,,0,,67,100
17736,note_on,0,0,1,,,,,,,,,0,,70,0
17760,note_on,24,0,2,,,,,,,,,1,,55,0
17760,note_on,24,0,1,,,,,,,,,0,,67,0
17760,note_on,0,0,1,,,,,,,,,0,,70,0
17760,note_on,0,0,1,,,,,,,,,0,,76,0
17760,note_on,0,0,1,,,,,,,,,0,,69,100
17760,note_on,0,0,2,,,,,,,,,1,,60,100
17760,note_on,0,0,1,,,,,,,,,0,,76,100
17832,note_on,72,0,1,,,,,,,,,0,,69,0
17832,note_on,0,0,1,,,,,,,,,0,,76,0
17832,note_on,0,0,1,,,,,,,,,0,,69,100
17832,note_on,0,0,1,,,,,,,,,0,,81,100
17832,note_on,0,0,2,,,,,,,,,1,,60,100
17832,note_on,72,0,2,,,,,,,,,1,,60,0
17856,note_on,0,0,1,,,,,,,,,0,,69,0
17856,note_on,0,0,1,,,,,,,,,0,,66,100
17856,note_on,0,0,1,,,,,,,,,0,,74,100
17856,note_on,0,0,1,,,,,,,,,0,,69,100
17856,note_on,24,0,1,,,,,,,,,0,,81,0
17856,note_on,0,0,2,,,,,,,,,1,,60,100
17856,note_on,24,0,2,,,,,,,,,1,,60,0
17928,note_on,0,0,1,,,,,,,,,0,,74,100
17928,note_on,0,0,1,,,,,,,,,0,,69,100
17928,note_on,0,0,1,,,,,,,,,0,,66,100
17928,note_on,0,0,1,,,,,,,,,0,,66,0
17928,note_on,0,0,1,,,,,,,,,0,,69,0
17928,note_on,72,0,1,,,,,,,,,0,,74,0
17928,note_on,0,0,2,,,,,,,,,1,,60,100
17928,note_on,72,0,2,,,,,,,,,1,,60,0
17952,note_on,0,0,1,,,,,,,,,0,,70,100
17952,note_on,0,0,1,,,,,,,,,0,,67,100
17952,note_on,0,0,1,,,,,,,,,0,,66,0
17952,note_on,0,0,1,,,,,,,,,0,,69,0
17952,note_on,24,0,1,,,,,,,,,0,,74,0
17952,note_on,0,0,1,,,,,,,,,0,,74,100
17952,note_on,24,0,2,,,,,,,,,1,,60,0
17952,note_on,0,0,2,,,,,,,,,1,,58,100
18024,note_on,72,0,2,,,,,,,,,1,,58,0
18024,note_on,0,0,2,,,,,,,,,1,,58,100
18024,note_on,0,0,1,,,,,,,,,0,,74,100
18024,note_on,0,0,1,,,,,,,,,0,,70,100
18024,note_on,0,0,1,,,,,,,,,0,,67,100
18024,note_on,72,0,1,,,,,,,,,0,,74,0
18024,note_on,0,0,1,,,,,,,,,0,,70,0
18024,note_on,0,0,1,,,,,,,,,0,,67,0
18048,note_on,0,0,1,,,,,,,,,0,,67,100
18048,note_on,0,0,1,,,,,,,,,0,,72,100
18048,note_on,0,0,1,,,,,,,,,0,,67,0
18048,note_on,24,0,1,,,,,,,,,0,,74,0
18048,note_on,0,0,1,,,,,,,,,0,,70,0
18048,note_on,0,0,2,,,,,,,,,1,,57,100
18048,note_on,24,0,2,,,,,,,,,1,,58,0
18120,note_on,0,0,2,,,,,,,,,1,,57,100
18120,note_on,72,0,2,,,,,,,,,1,,57,0
18120,note_on,72,0,1,,,,,,,,,0,,67,0
18120,note_on,0,0,1,,,,,,,,,0,,72,0
18120,note_on,0,0,1,,,,,,,,,0,,72,100
18120,note_on,0,0,1,,,,,,,,,0,,67,100
18144,note_on,0,0,2,,,,,,,,,1,,50,100
18144,note_on,0,0,1,,,,,,,,,0,,72,100
18144,note_on,0,0,1,,,,,,,,,0,,66,100
18144,note_on,0,0,1,,,,,,,,,0,,72,0
18144,note_on,24,0,1,,,,,,,,,0,,67,0
18144,note_on,24,0,2,,,,,,,,,1,,57,0
18216,note_on,72,0,1,,,,,,,,,0,,72,0
18216,note_on,0,0,1,,,,,,,,,0,,66,0
18216,note_on,0,0,1,,,,,,,,,0,,66,100
18216,note_on,0,0,1,,,,,,,,,0,,72,100
18216,note_on,0,0,2,,,,,,,,,1,,50,100
18216,note_on,72,0,2,,,,,,,,,1,,50,0
18240,note_on,0,0,1,,,,,,,,,0,,70,100
18240,note_on,0,0,1,,,,,,,,,0,,66,0
18240,note_on,0,0,1,,,,,,,,,0,,67,100
18240,note_on,24,0,1,,,,,,,,,0,,72,0
18240,note_on,24,0,2,,,,,,,,,1,,50,0
18240,note_on,0,0,2,,,,,,,,,1,,55,100
18312,note_on,72,0,1,,,,,,,,,0,,70,0
18312,note_on,0,0,1,,,,,,,,,0,,67,100
18312,note_on,0,0,1,,,,,,,,,0,,70,100
18312,note_on,72,0,2,,,,,,,,,1,,55,0
18312,note_on,0,0,2,,,,,,,,,1,,55,100
18312,note_on,0,0,1,,,,,,,,,0,,67,0
18336,note_on,24,0,2,,,,,,,,,1,,55,0
18336,note_on,0,0,2,,,,,,,,,1,,48,100
18336,note_on,24,0,1,,,,,,,,,0,,70,0
18336,note_on,0,0,1,,,,,,,,,0,,67,0
18336,note_on,0,0,1,,,,,,,,,0,,67,100
18336,note_on,0,0,1,,,,,,,,,0,,75,100
18408,note_on,0,0,1,,,,,,,,,0,,67,0
18408,note_on,72,0,1,,,,,,,,,0,,75,0
18408,note_on,0,0,1,,,,,,,,,0,,75,100
18408,note_on,0,0,1,,,,,,,,,0,,67,100
18408,note_on,72,0,2,,,,,,,,,1,,48,0
18408,note_on,0,0,2,,,,,,,,,1,,48,100
18432,note_on,24,0,1,,,,,,,,,0,,75,0
18432,note_on,24,0,2,,,,,,,,,1,,48,0
18432,note_on,0,0,2,,,,,,,,,1,,53,100
18432,note_on,0,0,1,,,,,,,,,0,,65,100
18432,note_on,0,0,1,,,,,,,,,0,,67,0
18432,note_on,0,0,1,,,,,,,,,0,,69,100
18504,note_on,72,0,2,,,,,,,,,1,,53,0
18504,note_on,0,0,1,,,,,,,,,0,,65,0
18504,note_on,0,0,1,,,,,,,,,0,,69,100
18504,note_on,0,0,1,,,,,,,,,0,,65,100
18504,note_on,0,0,2,,,,,,,,,1,,53,100
18504,note_on,72,0,1,,,,,,,,,0,,69,0
18528,note_on,0,0,1,,,,,,,,,0,,74,100
18528,note_on,0,0,1,,,,,,,,,0,,65,0
18528,note_on,24,0,1,,,,,,,,,0,,69,0
18528,note_on,0,0,1,,,,,,,,,0,,65,100
18528,note_on,24,0,2,,,,,,,,,1,,53,0
18528,note_on,0,0,2,,,,,,,,,1,,46,100
18600,note_on,0,0,1,,,,,,,,,0,,74,100
18600,note_on,72,0,1,,,,,,,,,0,,74,0
18600,note_on,0,0,1,,,,,,,,,0,,65,0
18600,note_on,0,0,1,,,,,,,,,0,,65,100
18600,note_on,72,0,2,,,,,,,,,1,,46,0
18600,note_on,0,0,2,,,,,,,,,1,,46,100
18624,note_on,24,0,1,,,,,,,,,0,,74,0
18624,note_on,0,0,1,,,,,,,,,0,,67,100
18624,note_on,0,0,1,,,,,,,,,0,,63,100
18624,note_on,0,0,1,,,,,,,,,0,,65,0
18624,note_on,0,0,2,,,,,,,,,1,,51,100
18624,note_on,24,0,2,,,,,,,,,1,,46,0
18696,note_on,0,0,1,,,,,,,,,0,,67,100
18696,note_on,0,0,2,,,,,,,,,1,,51,100
18696,note_on,0,0,1,,,,,,,,,0,,63,100
18696,note_on,0,0,1,,,,,,,,,0,,63,0
18696,note_on,72,0,2,,,,,,,,,1,,51,0
18696,note_on,72,0,1,,,,,,,,,0,,67,0
18720,note_on,24,0,2,,,,,,,,,1,,51,0
18720,note_on,0,0,2,,,,,,,,,1,,50,100
18720,note_on,24,0,1,,,,,,,,,0,,67,0
18720,note_on,0,0,1,,,,,,,,,0,,63,0
18720,note_on,0,0,1,,,,,,,,,0,,65,100
18720,note_on,0,0,1,,,,,,,,,0,,72,100
18792,note_on,72,0,2,,,,,,,,,1,,50,0
18792,note_on,72,0,1,,,,,,,,,0,,72,0
18792,note_on,0,0,1,,,,,,,,,0,,65,0
18792,note_on,0,0,2,,,,,,,,,1,,48,100
18792,note_on,0,0,1,,,,,,,,,0,,72,100
18792,note_on,0,0,1,,,,,,,,,0,,63,100
18816,note_on,24,0,1,,,,,,,,,0,,63,0
18816,note_on,0,0,2,,,,,,,,,1,,50,100
18816,note_on,24,0,2,,,,,,,,,1,,48,0
18816,note_on,0,0,1,,,,,,,,,0,,65,100
18816,note_on,0,0,1,,,,,,,,,0,,72,100
18816,note_on,0,0,1,,,,,,,,,0,,72,0
18888,note_on,0,0,1,,,,,,,,,0,,65,100
18888,note_on,0,0,1,,,,,,,,,0,,72,100
18888,note_on,72,0,1,,,,,,,,,0,,72,0
18888,note_on,0,0,1,,,,,,,,,0,,65,0
18888,note_on,72,0,2,,,,,,,,,1,,50,0
18888,note_on,0,0,2,,,,,,,,,1,,50,100
18912,note_on,24,0,1,,,,,,,,,0,,72,0
18912,note_on,0,0,1,,,,,,,,,0,,65,0
18912,note_on,0,0,1,,,,,,,,,0,,65,100
18912,note_on,0,0,1,,,,,,,,,0,,70,100
18912,note_on,24,0,2,,,,,,,,,1,,50,0
18912,note_on,0,0,2,,,,,,,,,1,,50,100
18984,note_on,0,0,2,,,,,,,,,1,,50,100
18984,note_on,72,0,2,,,,,,,,,1,,50,0
18984,note_on,0,0,1,,,,,,,,,0,,70,100
18984,note_on,72,0,1,,,,,,,,,0,,70,0
18984,note_on,0,0,1,,,,,,,,,0,,67,100
18984,note_on,0,0,1,,,,,,,,,0,,65,0
19008,note_on,24,0,1,,,,,,,,,0,,70,0
19008,note_on,0,0,1,,,,,,,,,0,,67,0
19008,note_on,0,0,1,,,,,,,,,0,,60,100
19008,note_on,0,0,1,,,,,,,,,0,,70,100
19008,note_on,24,0,2,,,,,,,,,1,,50,0
19008,note_on,0,0,2,,,,,,,,,1,,53,100
19080,note_on,72,0,2,,,,,,,,,1,,53,0
19080,note_on,0,0,2,,,,,,,,,1,,53,100
19080,note_on,0,0,1,,,,,,,,,0,,60,100
19080,note_on,72,0,1,,,,,,,,,0,,70,0
19080,note_on,0,0,1,,,,,,,,,0,,60,0
19080,note_on,0,0,1,,,,,,,,,0,,70,100
19104,note_on,24,0,1,,,,,,,,,0,,70,0
19104,note_on,0,0,1,,,,,,,,,0,,60,0
19104,note_on,0,0,1,,,,,,,,,0,,62,100
19104,note_on,0,0,1,,,,,,,,,0,,69,100
19104,note_on,24,0,2,,,,,,,,,1,,53,0
19104,note_on,0,0,2,,,,,,,,,1,,41,100
19176,note_on,0,0,1,,,,,,,,,0,,69,100
19176,note_on,0,0,1,,,,,,,,,0,,63,100
19176,note_on,72,0,2,,,,,,,,,1,,41,0
19176,note_on,0,0,2,,,,,,,,,1,,41,100
19176,note_on,0,0,1,,,,,,,,,0,,62,0
19176,note_on,72,0,1,,,,,,,,,0,,69,0
19200,note_on,0,0,1,,,,,,,,,0,,70,100
19200,note_on,0,0,1,,,,,,,,,0,,63,0
19200,note_on,24,0,1,,,,,,,,,0,,69,0
19200,note_on,24,0,2,,,,,,,,,1,,41,0
19200,note_on,0,0,2,,,,,,,,,1,,46,100
19200,note_on,0,0,1,,,,,,,,,0,,62,100
19200,note_on,0,0,1,,,,,,,,,0,,65,100
19272,note_on,0,0,2,,,,,,,,,1,,58,100
19272,note_on,0,0,2,,,,,,,,,1,,62,100
19272,note_on,72,0,2,,,,,,,,,1,,46,0
19296,note_on,0,0,2,,,,,,,,,1,,62,100
19296,note_on,0,0,2,,,,,,,,,1,,58,100
19296,note_on,0,0,2,,,,,,,,,1,,58,0
19296,note_on,24,0,2,,,,,,,,,1,,62,0
19296,note_on,96,0,1,,,,,,,,,0,,70,0
19296,note_on,0,0,1,,,,,,,,,0,,65,0
19296,note_on,0,0,1,,,,,,,,,0,,62,0
19368,note_on,72,0,2,,,,,,,,,1,,62,0
19368,note_on,0,0,2,,,,,,,,,1,,62,100
19368,note_on,0,0,2,,,,,,,,,1,,58,100
19368,note_on,0,0,2,,,,,,,,,1,,58,0
19392,note_on,24,0,2,,,,,,,,,1,,62,0
19392,note_on,0,0,2,,,,,,,,,1,,58,0
19392,note_on,0,0,2,,,,,,,,,1,,57,100
19392,note_on,0,0,2,,,,,,,,,1,,60,100
19464,note_on,168,0,1,,,,,,,,,0,,77,100
19488,note_on,24,0,1,,,,,,,,,0,,77,0
19488,note_on,0,0,1,,,,,,,,,0,,77,100
19488,note_on,96,0,2,,,,,,,,,1,,60,0
19488,note_on,0,0,2,,,,,,,,,1,,57,0
19560,note_on,72,0,1,,,,,,,,,0,,77,0
19560,note_on,0,0,1,,,,,,,,,0,,77,100
19584,note_on,24,0,1,,,,,,,,,0,,77,0
19584,note_on,0,0,1,,,,,,,,,0,,74,100
19584,note_on,0,0,1,,,,,,,,,0,,70,100
19584,note_on,0,0,1,,,,,,,,,0,,65,100
19656,note_on,0,0,2,,,,,,,,,1,,62,100
19656,note_on,168,0,2,,,,,,,,,1,,58,100
19680,note_on,0,0,2,,,,,,,,,1,,58,0
19680,note_on,0,0,1,,,,,,,,,0,,70,0
19680,note_on,96,0,1,,,,,,,,,0,,65,0
19680,note_on,0,0,1,,,,,,,,,0,,74,0
19680,note_on,24,0,2,,,,,,,,,1,,62,0
19680,note_on,0,0,2,,,,,,,,,1,,62,100
19680,note_on,0,0,2,,,,,,,,,1,,58,100
19752,note_on,0,0,2,,,,,,,,,1,,62,100
19752,note_on,0,0,2,,,,,,,,,1,,58,100
19752,note_on,0,0,2,,,,,,,,,1,,58,0
19752,note_on,72,0,2,,,,,,,,,1,,62,0
19776,note_on,0,0,2,,,,,,,,,1,,60,100
19776,note_on,0,0,2,,,,,,,,,1,,58,0
19776,note_on,24,0,2,,,,,,,,,1,,62,0
19776,note_on,0,0,2,,,,,,,,,1,,57,100
19848,note_on,168,0,1,,,,,,,,,0,,77,100
19848,note_on,0,0,1,,,,,,,,,0,,72,100
19848,note_on,0,0,1,,,,,,,,,0,,69,100
19872,note_on,24,0,1,,,,,,,,,0,,69,0
19872,note_on,0,0,1,,,,,,,,,0,,72,0
19872,note_on,0,0,1,,,,,,,,,0,,72,100
19872,note_on,0,0,1,,,,,,,,,0,,77,100
19872,note_on,0,0,2,,,,,,,,,1,,57,0
19872,note_on,0,0,1,,,,,,,,,0,,69,100
19872,note_on,0,0,1,,,,,,,,,0,,77,0
19872,note_on,96,0,2,,,,,,,,,1,,60,0
19944,note_on,0,0,1,,,,,,,,,0,,69,100
19944,note_on,72,0,1,,,,,,,,,0,,69,0
19944,note_on,0,0,1,,,,,,,,,0,,72,0
19944,note_on,0,0,1,,,,,,,,,0,,72,100
19944,note_on,0,0,1,,,,,,,,,0,,77,0
19944,note_on,0,0,1,,,,,,,,,0,,77,100
19968,note_on,24,0,1,,,,,,,,,0,,69,0
19968,note_on,0,0,1,,,,,,,,,0,,72,0
19968,note_on,0,0,1,,,,,,,,,0,,77,0
19968,note_on,0,0,1,,,,,,,,,0,,74,100
19968,note_on,0,0,1,,,,,,,,,0,,70,100
19968,note_on,0,0,1,,,,,,,,,0,,65,100
20040,note_on,168,0,2,,,,,,,,,1,,58,100
20040,note_on,0,0,2,,,,,,,,,1,,62,100
20064,note_on,96,0,1,,,,,,,,,0,,65,0
20064,note_on,0,0,1,,,,,,,,,0,,74,0
20064,note_on,0,0,1,,,,,,,,,0,,70,0
20064,note_on,24,0,2,,,,,,,,,1,,62,0
20064,note_on,0,0,2,,,,,,,,,1,,58,0
20064,note_on,0,0,2,,,,,,,,,1,,58,100
20064,note_on,0,0,2,,,,,,,,,1,,62,100
20136,note_on,0,0,2,,,,,,,,,1,,58,0
20136,note_on,72,0,2,,,,,,,,,1,,62,0
20136,note_on,0,0,2,,,,,,,,,1,,58,100
20136,note_on,0,0,2,,,,,,,,,1,,62,100
20160,note_on,24,0,2,,,,,,,,,1,,62,0
20160,note_on,0,0,2,,,,,,,,,1,,58,0
20160,note_on,0,0,2,,,,,,,,,1,,57,100
20160,note_on,0,0,2,,,,,,,,,1,,53,100
20232,note_on,72,0,2,,,,,,,,,1,,53,0
20232,note_on,0,0,1,,,,,,,,,0,,69,100
20232,note_on,0,0,2,,,,,,,,,1,,57,0
20232,note_on,0,0,2,,,,,,,,,1,,57,100
20232,note_on,0,0,2,,,,,,,,,1,,60,100
20232,note_on,168,0,1,,,,,,,,,0,,77,100
20232,note_on,0,0,1,,,,,,,,,0,,72,100
20256,note_on,24,0,2,,,,,,,,,1,,60,0
20256,note_on,0,0,2,,,,,,,,,1,,57,0
20256,note_on,0,0,2,,,,,,,,,1,,57,100
20256,note_on,0,0,2,,,,,,,,,1,,60,100
20256,note_on,24,0,1,,,,,,,,,0,,69,0
20256,note_on,0,0,1,,,,,,,,,0,,77,100
20256,note_on,0,0,1,,,,,,,,,0,,72,0
20256,note_on,0,0,1,,,,,,,,,0,,77,0
20256,note_on,0,0,1,,,,,,,,,0,,72,100
20256,note_on,0,0,1,,,,,,,,,0,,69,100
20328,note_on,0,0,2,,,,,,,,,1,,60,100
20328,note_on,0,0,2,,,,,,,,,1,,57,100
20328,note_on,0,0,2,,,,,,,,,1,,57,0
20328,note_on,72,0,2,,,,,,,,,1,,60,0
20328,note_on,72,0,1,,,,,,,,,0,,69,0
20328,note_on,0,0,1,,,,,,,,,0,,77,0
20328,note_on,0,0,1,,,,,,,,,0,,77,100
20328,note_on,0,0,1,,,,,,,,,0,,72,100
20328,note_on,0,0,1,,,,,,,,,0,,72,0
20328,note_on,0,0,1,,,,,,,,,0,,69,100
20352,note_on,24,0,1,,,,,,,,,0,,69,0
20352,note_on,0,0,1,,,,,,,,,0,,72,0
20352,note_on,0,0,1,,,,,,,,,0,,77,0
20352,note_on,0,0,1,,,,,,,,,0,,65,100
20352,note_on,0,0,1,,,,,,,,,0,,74,100
20352,note_on,0,0,2,,,,,,,,,1,,62,100
20352,note_on,0,0,2,,,,,,,,,1,,58,100
20352,note_on,0,0,2,,,,,,,,,1,,57,0
20352,note_on,24,0,2,,,,,,,,,1,,60,0
20424,note_on,0,0,2,,,,,,,,,1,,58,0
20424,note_on,72,0,2,,,,,,,,,1,,62,0
20424,note_on,0,0,1,,,,,,,,,0,,74,100
20424,note_on,0,0,1,,,,,,,,,0,,65,100
20424,note_on,0,0,1,,,,,,,,,0,,65,0
20424,note_on,72,0,1,,,,,,,,,0,,74,0
20424,note_on,0,0,2,,,,,,,,,1,,58,100
20424,note_on,0,0,2,,,,,,,,,1,,62,100
20448,note_on,0,0,2,,,,,,,,,1,,57,100
20448,note_on,0,0,2,,,,,,,,,1,,58,0
20448,note_on,0,0,2,,,,,,,,,1,,60,100
20448,note_on,0,0,1,,,,,,,,,0,,79,100
20448,note_on,24,0,1,,,,,,,,,0,,74,0
20448,note_on,0,0,1,,,,,,,,,0,,65,0
20448,note_on,0,0,1,,,,,,,,,0,,70,100
20448,note_on,24,0,2,,,,,,,,,1,,62,0
20520,note_on,0,0,2,,,,,,,,,1,,55,100
20520,note_on,72,0,2,,,,,,,,,1,,60,0
20520,note_on,0,0,2,,,,,,,,,1,,57,0
20520,note_on,0,0,2,,,,,,,,,1,,58,100
20520,note_on,0,0,1,,,,,,,,,0,,70,100
20520,note_on,72,0,1,,,,,,,,,0,,79,0
20520,note_on,0,0,1,,,,,,,,,0,,70,0
20520,note_on,0,0,1,,,,,,,,,0,,79,100
20544,note_on,0,0,2,,,,,,,,,1,,60,100
20544,note_on,0,0,2,,,,,,,,,1,,57,100
20544,note_on,0,0,2,,,,,,,,,1,,55,0
20544,note_on,24,0,2,,,,,,,,,1,,58,0
20544,note_on,0,0,1,,,,,,,,,0,,70,0
20544,note_on,24,0,1,,,,,,,,,0,,79,0
20544,note_on,0,0,1,,,,,,,,,0,,72,100
20544,note_on,0,0,1,,,,,,,,,0,,65,100
20616,note_on,0,0,2,,,,,,,,,1,,57,100
20616,note_on,72,0,1,,,,,,,,,0,,72,0
20616,note_on,0,0,1,,,,,,,,,0,,65,0
20616,note_on,0,0,1,,,,,,,,,0,,65,100
20616,note_on,0,0,1,,,,,,,,,0,,72,100
20616,note_on,72,0,2,,,,,,,,,1,,60,0
20616,note_on,0,0,2,,,,,,,,,1,,57,0
20616,note_on,0,0,2,,,,,,,,,1,,60,100
20640,note_on,0,0,1,,,,,,,,,0,,69,100
20640,note_on,24,0,1,,,,,,,,,0,,72,0
20640,note_on,0,0,1,,,,,,,,,0,,77,100
20640,note_on,0,0,1,,,,,,,,,0,,65,0
20640,note_on,0,0,2,,,,,,,,,1,,57,0
20640,note_on,0,0,2,,,,,,,,,1,,55,100
20640,note_on,0,0,2,,,,,,,,,1,,58,100
20640,note_on,24,0,2,,,,,,,,,1,,60,0
20712,note_on,72,0,2,,,,,,,,,1,,58,0
20712,note_on,0,0,2,,,,,,,,,1,,55,0
20712,note_on,0,0,2,,,,,,,,,1,,53,100
20712,note_on,0,0,2,,,,,,,,,1,,57,100
20712,note_on,0,0,1,,,,,,,,,0,,77,100
20712,note_on,0,0,1,,,,,,,,,0,,69,100
20712,note_on,0,0,1,,,,,,,,,0,,69,0
20712,note_on,72,0,1,,,,,,,,,0,,77,0
20736,note_on,0,0,1,,,,,,,,,0,,70,100
20736,note_on,24,0,1,,,,,,,,,0,,77,0
20736,note_on,0,0,1,,,,,,,,,0,,69,0
20736,note_on,0,0,2,,,,,,,,,1,,58,100
20736,note_on,0,0,2,,,,,,,,,1,,55,100
20736,note_on,0,0,2,,,,,,,,,1,,53,0
20736,note_on,24,0,2,,,,,,,,,1,,57,0
20736,note_on,0,0,1,,,,,,,,,0,,67,100
20808,note_on,0,0,2,,,,,,,,,1,,55,100
20808,note_on,0,0,2,,,,,,,,,1,,55,0
20808,note_on,72,0,2,,,,,,,,,1,,58,0
20808,note_on,0,0,1,,,,,,,,,0,,70,100
20808,note_on,0,0,1,,,,,,,,,0,,67,100
20808,note_on,0,0,1,,,,,,,,,0,,67,0
20808,note_on,72,0,1,,,,,,,,,0,,70,0
20808,note_on,0,0,2,,,,,,,,,1,,58,100
20832,note_on,0,0,2,,,,,,,,,1,,57,100
20832,note_on,0,0,1,,,,,,,,,0,,75,100
20832,note_on,0,0,1,,,,,,,,,0,,67,0
20832,note_on,0,0,1,,,,,,,,,0,,67,100
20832,note_on,0,0,2,,,,,,,,,1,,53,100
20832,note_on,0,0,2,,,,,,,,,1,,55,0
20832,note_on,24,0,2,,,,,,,,,1,,58,0
20832,note_on,24,0,1,,,,,,,,,0,,70,0
20904,note_on,72,0,2,,,,,,,,,1,,57,0
20904,note_on,0,0,1,,,,,,,,,0,,75,100
20904,note_on,0,0,1,,,,,,,,,0,,67,0
20904,note_on,0,0,1,,,,,,,,,0,,67,100
20904,note_on,0,0,2,,,,,,,,,1,,53,0
20904,note_on,0,0,2,,,,,,,,,1,,55,100
20904,note_on,0,0,2,,,,,,,,,1,,51,100
20904,note_on,72,0,1,,,,,,,,,0,,75,0
20928,note_on,24,0,1,,,,,,,,,0,,75,0
20928,note_on,0,0,1,,,,,,,,,0,,69,100
20928,note_on,0,0,2,,,,,,,,,1,,57,100
20928,note_on,0,0,2,,,,,,,,,1,,53,100
20928,note_on,0,0,2,,,,,,,,,1,,51,0
20928,note_on,24,0,2,,,,,,,,,1,,55,0
20928,note_on,0,0,1,,,,,,,,,0,,67,0
20928,note_on,0,0,1,,,,,,,,,0,,65,100
21000,note_on,72,0,1,,,,,,,,,0,,69,0
21000,note_on,0,0,1,,,,,,,,,0,,72,100
21000,note_on,0,0,1,,,,,,,,,0,,69,100
21000,note_on,0,0,1,,,,,,,,,0,,65,0
21024,note_on,0,0,2,,,,,,,,,1,,53,0
21024,note_on,0,0,1,,,,,,,,,0,,72,100
21024,note_on,0,0,1,,,,,,,,,0,,69,100
21024,note_on,0,0,1,,,,,,,,,0,,69,0
21024,note_on,0,0,2,,,,,,,,,1,,53,100
21024,note_on,0,0,2,,,,,,,,,1,,41,100
21024,note_on,24,0,1,,,,,,,,,0,,72,0
21024,note_on,96,0,2,,,,,,,,,1,,57,0
21096,note_on,72,0,1,,,,,,,,,0,,72,0
21096,note_on,0,0,1,,,,,,,,,0,,69,0
21096,note_on,0,0,1,,,,,,,,,0,,69,100
21096,note_on,0,0,1,,,,,,,,,0,,72,100
21120,note_on,0,0,1,,,,,,,,,0,,70,100
21120,note_on,0,0,2,,,,,,,,,1,,53,0
21120,note_on,96,0,2,,,,,,,,,1,,41,0
21120,note_on,24,0,1,,,,,,,,,0,,72,0
21120,note_on,0,0,1,,,,,,,,,0,,69,0
21120,note_on,0,0,1,,,,,,,,,0,,73,100
21120,note_on,0,0,2,,,,,,,,,1,,53,100
21120,note_on,0,0,2,,,,,,,,,1,,41,100
21192,note_on,72,0,1,,,,,,,,,0,,70,0
21192,note_on,0,0,1,,,,,,,,,0,,73,100
21192,note_on,0,0,1,,,,,,,,,0,,70,100
21192,note_on,0,0,1,,,,,,,,,0,,73,0
21216,note_on,24,0,1,,,,,,,,,0,,70,0
21216,note_on,0,0,1,,,,,,,,,0,,73,0
21216,note_on,0,0,1,,,,,,,,,0,,69,100
21216,note_on,0,0,1,,,,,,,,,0,,72,100
21288,note_on,72,0,1,,,,,,,,,0,,72,0
21288,note_on,0,0,1,,,,,,,,,0,,67,100
21288,note_on,0,0,1,,,,,,,,,0,,70,100
21288,note_on,0,0,1,,,,,,,,,0,,69,0
21312,note_on,0,0,1,,,,,,,,,0,,75,100
21312,note_on,0,0,1,,,,,,,,,0,,72,100
21312,note_on,0,0,1,,,,,,,,,0,,67,0
21312,note_on,24,0,1,,,,,,,,,0,,70,0
21384,note_on,72,0,1,,,,,,,,,0,,75,0
21384,note_on,0,0,1,,,,,,,,,0,,72,0
21384,note_on,0,0,1,,,,,,,,,0,,72,100
21384,note_on,0,0,1,,,,,,,,,0,,75,100
21408,note_on,24,0,1,,,,,,,,,0,,75,0
21408,note_on,0,0,1,,,,,,,,,0,,70,100
21408,note_on,0,0,1,,,,,,,,,0,,73,100
21408,note_on,0,0,1,,,,,,,,,0,,72,0
21480,note_on,0,0,1,,,,,,,,,0,,72,100
21480,note_on,0,0,1,,,,,,,,,0,,69,100
21480,note_on,0,0,1,,,,,,,,,0,,73,0
21480,note_on,72,0,1,,,,,,,,,0,,70,0
21504,note_on,0,0,1,,,,,,,,,0,,69,0
21504,note_on,0,0,1,,,,,,,,,0,,73,100
21504,note_on,24,0,1,,,,,,,,,0,,72,0
21504,note_on,0,0,1,,,,,,,,,0,,70,100
21576,note_on,72,0,1,,,,,,,,,0,,70,0
21576,note_on,0,0,1,,,,,,,,,0,,70,100
21576,note_on,0,0,1,,,,,,,,,0,,73,100
21576,note_on,0,0,1,,,,,,,,,0,,73,0
21600,note_on,0,0,1,,,,,,,,,0,,72,100
21600,note_on,0,0,1,,,,,,,,,0,,69,100
21600,note_on,0,0,1,,,,,,,,,0,,73,0
21600,note_on,24,0,1,,,,,,,,,0,,70,0
21672,note_on,0,0,1,,,,,,,,,0,,70,100
21672,note_on,0,0,1,,,,,,,,,0,,67,100
21672,note_on,0,0,1,,,,,,,,,0,,69,0
21672,note_on,72,0,1,,,,,,,,,0,,72,0
21696,note_on,24,0,1,,,,,,,,,0,,67,0
21696,note_on,0,0,1,,,,,,,,,0,,72,100
21696,note_on,0,0,1,,,,,,,,,0,,69,100
21696,note_on,576,0,2,,,,,,,,,1,,41,0
21696,note_on,0,0,2,,,,,,,,,1,,53,0
21696,note_on,0,0,1,,,,,,,,,0,,70,0
21768,note_on,72,0,2,,,,,,,,,1,,53,100
21768,note_on,72,0,1,,,,,,,,,0,,72,0
21768,note_on,0,0,1,,,,,,,,,0,,69,0
21768,note_on,0,0,2,,,,,,,,,1,,41,100
21768,note_on,0,0,1,,,,,,,,,0,,77,100
21768,note_on,0,0,1,,,,,,,,,0,,69,100
21792,note_on,24,0,2,,,,,,,,,1,,41,0
21792,note_on,0,0,2,,,,,,,,,1,,53,0
21792,note_on,0,0,2,,,,,,,,,1,,41,100
21792,note_on,0,0,2,,,,,,,,,1,,53,100
21792,note_on,0,0,1,,,,,,,,,0,,77,100
21792,note_on,0,0,1,,,,,,,,,0,,69,100
21792,note_on,0,0,1,,,,,,,,,0,,69,0
21792,note_on,24,0,1,,,,,,,,,0,,77,0
21864,note_on,0,0,2,,,,,,,,,1,,53,0
21864,note_on,0,0,1,,,,,,,,,0,,69,100
21864,note_on,0,0,1,,,,,,,,,0,,77,100
21864,note_on,0,0,1,,,,,,,,,0,,69,0
21864,note_on,72,0,1,,,,,,,,,0,,77,0
21864,note_on,72,0,2,,,,,,,,,1,,41,0
21864,note_on,0,0,2,,,,,,,,,1,,53,100
21864,note_on,0,0,2,,,,,,,,,1,,41,100
21888,note_on,0,0,2,,,,,,,,,1,,53,0
21888,note_on,0,0,1,,,,,,,,,0,,69,0
21888,note_on,24,0,1,,,,,,,,,0,,77,0
21888,note_on,24,0,2,,,,,,,,,1,,41,0
21888,note_on,0,0,2,,,,,,,,,1,,55,100
21888,note_on,0,0,2,,,,,,,,,1,,43,100
21888,note_on,0,0,1,,,,,,,,,0,,77,100
21888,note_on,0,0,1,,,,,,,,,0,,70,100
21960,note_on,0,0,2,,,,,,,,,1,,55,100
21960,note_on,72,0,1,,,,,,,,,0,,77,0
21960,note_on,0,0,1,,,,,,,,,0,,70,0
21960,note_on,0,0,1,,,,,,,,,0,,75,100
21960,note_on,0,0,2,,,,,,,,,1,,43,100
21960,note_on,0,0,1,,,,,,,,,0,,70,100
21960,note_on,72,0,2,,,,,,,,,1,,43,0
21960,note_on,0,0,2,,,,,,,,,1,,55,0
21984,note_on,0,0,1,,,,,,,,,0,,69,100
21984,note_on,0,0,1,,,,,,,,,0,,75,0
21984,note_on,24,0,1,,,,,,,,,0,,70,0
21984,note_on,0,0,2,,,,,,,,,1,,55,0
21984,note_on,24,0,2,,,,,,,,,1,,43,0
21984,note_on,0,0,2,,,,,,,,,1,,53,100
21984,note_on,0,0,2,,,,,,,,,1,,41,100
21984,note_on,0,0,1,,,,,,,,,0,,75,100
22056,note_on,0,0,1,,,,,,,,,0,,69,0
22056,note_on,0,0,1,,,,,,,,,0,,75,100
22056,note_on,0,0,1,,,,,,,,,0,,70,100
22056,note_on,72,0,1,,,,,,,,,0,,75,0
22056,note_on,0,0,2,,,,,,,,,1,,43,100
22056,note_on,72,0,2,,,,,,,,,1,,41,0
22056,note_on,0,0,2,,,,,,,,,1,,55,100
22056,note_on,0,0,2,,,,,,,,,1,,53,0
22080,note_on,0,0,2,,,,,,,,,1,,45,100
22080,note_on,0,0,2,,,,,,,,,1,,57,100
22080,note_on,0,0,2,,,,,,,,,1,,55,0
22080,note_on,24,0,2,,,,,,,,,1,,43,0
22080,note_on,0,0,1,,,,,,,,,0,,75,100
22080,note_on,0,0,1,,,,,,,,,0,,72,100
22080,note_on,24,0,1,,,,,,,,,0,,75,0
22080,note_on,0,0,1,,,,,,,,,0,,70,0
22152,note_on,0,0,1,,,,,,,,,0,,72,0
22152,note_on,72,0,1,,,,,,,,,0,,75,0
22152,note_on,0,0,2,,,,,,,,,1,,57,100
22152,note_on,0,0,2,,,,,,,,,1,,45,100
22152,note_on,72,0,2,,,,,,,,,1,,45,0
22152,note_on,0,0,2,,,,,,,,,1,,57,0
22152,note_on,0,0,1,,,,,,,,,0,,72,100
22152,note_on,0,0,1,,,,,,,,,0,,75,100
22176,note_on,24,0,2,,,,,,,,,1,,45,0
22176,note_on,0,0,1,,,,,,,,,0,,72,0
22176,note_on,24,0,1,,,,,,,,,0,,75,0
22176,note_on,0,0,2,,,,,,,,,1,,43,100
22176,note_on,0,0,2,,,,,,,,,1,,57,0
22176,note_on,0,0,2,,,,,,,,,1,,55,100
22176,note_on,0,0,1,,,,,,,,,0,,75,100
22176,note_on,0,0,1,,,,,,,,,0,,70,100
22248,note_on,0,0,2,,,,,,,,,1,,57,100
22248,note_on,0,0,2,,,,,,,,,1,,45,100
22248,note_on,0,0,2,,,,,,,,,1,,55,0
22248,note_on,72,0,2,,,,,,,,,1,,43,0
22248,note_on,0,0,1,,,,,,,,,0,,70,0
22248,note_on,72,0,1,,,,,,,,,0,,75,0
22248,note_on,0,0,1,,,,,,,,,0,,72,100
22248,note_on,0,0,1,,,,,,,,,0,,75,100
22272,note_on,0,0,2,,,,,,,,,1,,46,100
22272,note_on,0,0,2,,,,,,,,,1,,58,100
22272,note_on,24,0,1,,,,,,,,,0,,75,0
22272,note_on,0,0,1,,,,,,,,,0,,72,0
22272,note_on,0,0,1,,,,,,,,,0,,65,100
22272,note_on,0,0,1,,,,,,,,,0,,74,100
22272,note_on,0,0,2,,,,,,,,,1,,45,0
22272,note_on,24,0,2,,,,,,,,,1,,57,0
22344,note_on,0,0,1,,,,,,,,,0,,74,100
22344,note_on,0,0,1,,,,,,,,,0,,65,0
22344,note_on,72,0,1,,,,,,,,,0,,74,0
22344,note_on,0,0,1,,,,,,,,,0,,70,100
22344,note_on,72,0,2,,,,,,,,,1,,58,0
22344,note_on,0,0,2,,,,,,,,,1,,46,0
22344,note_on,0,0,2,,,,,,,,,1,,58,100
22344,note_on,0,0,2,,,,,,,,,1,,46,100
22368,note_on,24,0,1,,,,,,,,,0,,74,0
22368,note_on,0,0,1,,,,,,,,,0,,70,0
22368,note_on,0,0,1,,,,,,,,,0,,79,100
22368,note_on,0,0,1,,,,,,,,,0,,70,100
22368,note_on,0,0,2,,,,,,,,,1,,39,100
22368,note_on,0,0,2,,,,,,,,,1,,51,100
22368,note_on,0,0,2,,,,,,,,,1,,58,0
22368,note_on,24,0,2,,,,,,,,,1,,46,0
22440,note_on,0,0,1,,,,,,,,,0,,70,100
22440,note_on,0,0,2,,,,,,,,,1,,51,0
22440,note_on,0,0,2,,,,,,,,,1,,51,100
22440,note_on,0,0,2,,,,,,,,,1,,39,100
22440,note_on,72,0,1,,,,,,,,,0,,79,0
22440,note_on,0,0,1,,,,,,,,,0,,70,0
22440,note_on,0,0,1,,,,,,,,,0,,79,100
22440,note_on,72,0,2,,,,,,,,,1,,39,0
22464,note_on,0,0,2,,,,,,,,,1,,41,100
22464,note_on,0,0,2,,,,,,,,,1,,51,0
22464,note_on,0,0,2,,,,,,,,,1,,53,100
22464,note_on,0,0,1,,,,,,,,,0,,72,100
22464,note_on,0,0,1,,,,,,,,,0,,69,100
22464,note_on,24,0,1,,,,,,,,,0,,79,0
22464,note_on,24,0,2,,,,,,,,,1,,39,0
22464,note_on,0,0,1,,,,,,,,,0,,70,0
22536,note_on,72,0,2,,,,,,,,,1,,41,0
22536,note_on,0,0,1,,,,,,,,,0,,69,0
22536,note_on,0,0,2,,,,,,,,,1,,53,0
22536,note_on,0,0,1,,,,,,,,,0,,72,100
22536,note_on,0,0,2,,,,,,,,,1,,41,100
22536,note_on,0,0,2,,,,,,,,,1,,53,100
22536,note_on,72,0,1,,,,,,,,,0,,72,0
22536,note_on,0,0,1,,,,,,,,,0,,69,100
22560,note_on,24,0,1,,,,,,,,,0,,72,0
22560,note_on,0,0,1,,,,,,,,,0,,69,0
22560,note_on,0,0,1,,,,,,,,,0,,70,100
22560,note_on,0,0,1,,,,,,,,,0,,74,100
22560,note_on,0,0,2,,,,,,,,,1,,46,100
22560,note_on,0,0,2,,,,,,,,,1,,53,0
22560,note_on,24,0,2,,,,,,,,,1,,41,0
22632,note_on,0,0,2,,,,,,,,,1,,51,100
22632,note_on,72,0,2,,,,,,,,,1,,46,0
22632,note_on,72,0,1,,,,,,,,,0,,74,0
22632,note_on,0,0,1,,,,,,,,,0,,72,100
22632,note_on,0,0,1,,,,,,,,,0,,70,0
22632,note_on,0,0,1,,,,,,,,,0,,75,100
22656,note_on,24,0,1,,,,,,,,,0,,75,0
22656,note_on,0,0,2,,,,,,,,,1,,53,100
22656,note_on,24,0,2,,,,,,,,,1,,51,0
22656,note_on,0,0,1,,,,,,,,,0,,72,0
22656,note_on,0,0,1,,,,,,,,,0,,74,100
22656,note_on,0,0,1,,,,,,,,,0,,70,100
22752,note_on,96,0,1,,,,,,,,,0,,70,0
22752,note_on,0,0,1,,,,,,,,,0,,74,0
22752,note_on,0,0,1,,,,,,,,,0,,69,100
22752,note_on,0,0,1,,,,,,,,,0,,72,100
22752,note_on,96,0,2,,,,,,,,,1,,53,0
22752,note_on,0,0,2,,,,,,,,,1,,41,100
22824,note_on,72,0,1,,,,,,,,,0,,72,0
22824,note_on,0,0,1,,,,,,,,,0,,70,100
22848,note_on,96,0,2,,,,,,,,,1,,41,0
22848,note_on,0,0,2,,,,,,,,,1,,46,100
22848,note_on,0,0,1,,,,,,,,,0,,70,100
22848,note_on,0,0,1,,,,,,,,,0,,62,100
22848,note_on,0,0,1,,,,,,,,,0,,69,0
22848,note_on,24,0,1,,,,,,,,,0,,70,0
22848,note_on,0,0,1,,,,,,,,,0,,65,100
22920,note_on,0,0,1,,,,,,,,,0,,74,100
22920,note_on,72,0,1,,,,,,,,,0,,70,0
22944,note_on,96,0,2,,,,,,,,,1,,46,0
22944,note_on,0,0,1,,,,,,,,,0,,65,0
22944,note_on,0,0,1,,,,,,,,,0,,74,100
22944,note_on,0,0,1,,,,,,,,,0,,62,0
22944,note_on,24,0,1,,,,,,,,,0,,74,0
23016,note_on,0,0,1,,,,,,,,,0,,74,100
23016,note_on,72,0,1,,,,,,,,,0,,74,0
23040,note_on,0,0,1,,,,,,,,,0,,58,100
23040,note_on,0,0,1,,,,,,,,,0,,67,100
23040,note_on,24,0,1,,,,,,,,,0,,74,0
23040,note_on,0,0,1,,,,,,,,,0,,62,100
23112,note_on,168,0,2,,,,,,,,,1,,55,100
23112,note_on,0,0,2,,,,,,,,,1,,58,100
23136,note_on,24,0,2,,,,,,,,,1,,58,0
23136,note_on,0,0,2,,,,,,,,,1,,55,0
23136,note_on,0,0,1,,,,,,,,,0,,62,0
23136,note_on,0,0,2,,,,,,,,,1,,58,100
23136,note_on,0,0,1,,,,,,,,,0,,67,0
23136,note_on,0,0,2,,,,,,,,,1,,55,100
23136,note_on,96,0,1,,,,,,,,,0,,58,0
23208,note_on,72,0,2,,,,,,,,,1,,58,0
23208,note_on,0,0,2,,,,,,,,,1,,55,0
23208,note_on,0,0,2,,,,,,,,,1,,55,100
23208,note_on,0,0,2,,,,,,,,,1,,58,100
23232,note_on,24,0,2,,,,,,,,,1,,58,0
23232,note_on,0,0,2,,,,,,,,,1,,55,0
23232,note_on,0,0,2,,,,,,,,,1,,54,100
23232,note_on,0,0,2,,,,,,,,,1,,57,100
23232,note_on,0,0,2,,,,,,,,,1,,50,100
23304,note_on,168,0,1,,,,,,,,,0,,74,100
23328,note_on,96,0,2,,,,,,,,,1,,50,0
23328,note_on,0,0,2,,,,,,,,,1,,54,0
23328,note_on,0,0,2,,,,,,,,,1,,57,0
23328,note_on,0,0,1,,,,,,,,,0,,74,100
23328,note_on,24,0,1,,,,,,,,,0,,74,0
23400,note_on,72,0,1,,,,,,,,,0,,74,0
23400,note_on,0,0,1,,,,,,,,,0,,74,100
23424,note_on,0,0,1,,,,,,,,,0,,62,100
23424,note_on,0,0,1,,,,,,,,,0,,58,100
23424,note_on,0,0,1,,,,,,,,,0,,67,100
23424,note_on,24,0,1,,,,,,,,,0,,74,0
23496,note_on,168,0,2,,,,,,,,,1,,55,100
23496,note_on,0,0,2,,,,,,,,,1,,58,100
23520,note_on,96,0,1,,,,,,,,,0,,58,0
23520,note_on,0,0,1,,,,,,,,,0,,62,0
23520,note_on,0,0,2,,,,,,,,,1,,58,100
23520,note_on,0,0,2,,,,,,,,,1,,55,100
23520,note_on,0,0,2,,,,,,,,,1,,55,0
23520,note_on,24,0,2,,,,,,,,,1,,58,0
23520,note_on,0,0,1,,,,,,,,,0,,67,0
23592,note_on,0,0,2,,,,,,,,,1,,55,0
23592,note_on,72,0,2,,,,,,,,,1,,58,0
23592,note_on,0,0,2,,,,,,,,,1,,55,100
23592,note_on,0,0,2,,,,,,,,,1,,58,100
23616,note_on,0,0,2,,,,,,,,,1,,50,100
23616,note_on,0,0,2,,,,,,,,,1,,57,100
23616,note_on,0,0,2,,,,,,,,,1,,55,0
23616,note_on,24,0,2,,,,,,,,,1,,58,0
23688,note_on,0,0,1,,,,,,,,,0,,74,100
23688,note_on,168,0,1,,,,,,,,,0,,66,100
23688,note_on,0,0,2,,,,,,,,,1,,48,100
23688,note_on,72,0,2,,,,,,,,,1,,50,0
23712,note_on,24,0,2,,,,,,,,,1,,48,0
23712,note_on,0,0,2,,,,,,,,,1,,57,0
23712,note_on,0,0,2,,,,,,,,,1,,46,100
23712,note_on,0,0,1,,,,,,,,,0,,66,0
23712,note_on,0,0,1,,,,,,,,,0,,66,100
23712,note_on,0,0,1,,,,,,,,,0,,74,100
23712,note_on,24,0,1,,,,,,,,,0,,74,0
23784,note_on,0,0,1,,,,,,,,,0,,74,100
23784,note_on,72,0,1,,,,,,,,,0,,74,0
23784,note_on,0,0,1,,,,,,,,,0,,66,0
23784,note_on,0,0,1,,,,,,,,,0,,66,100
23784,note_on,0,0,2,,,,,,,,,1,,45,100
23784,note_on,72,0,2,,,,,,,,,1,,46,0
23808,note_on,0,0,2,,,,,,,,,1,,43,100
23808,note_on,24,0,2,,,,,,,,,1,,45,0
23808,note_on,0,0,1,,,,,,,,,0,,66,0
23808,note_on,0,0,1,,,,,,,,,0,,67,100
23808,note_on,24,0,1,,,,,,,,,0,,74,0
23880,note_on,0,0,1,,,,,,,,,0,,75,100
23880,note_on,72,0,2,,,,,,,,,1,,43,0
23880,note_on,0,0,2,,,,,,,,,1,,42,100
23880,note_on,72,0,1,,,,,,,,,0,,67,0
23904,note_on,0,0,1,,,,,,,,,0,,75,100
23904,note_on,24,0,2,,,,,,,,,1,,42,0
23904,note_on,0,0,2,,,,,,,,,1,,43,100
23904,note_on,24,0,1,,,,,,,,,0,,75,0
23976,note_on,72,0,1,,,,,,,,,0,,75,0
23976,note_on,72,0,2,,,,,,,,,1,,43,0
23976,note_on,0,0,1,,,,,,,,,0,,75,100
23976,note_on,0,0,2,,,,,,,,,1,,45,100
24000,note_on,24,0,2,,,,,,,,,1,,45,0
24000,note_on,0,0,1,,,,,,,,,0,,74,100
24000,note_on,24,0,1,,,,,,,,,0,,75,0
24000,note_on,0,0,2,,,,,,,,,1,,46,100
24072,note_on,0,0,2,,,,,,,,,1,,45,100
24072,note_on,72,0,2,,,,,,,,,1,,46,0
24072,note_on,0,0,1,,,,,,,,,0,,79,100
24072,note_on,72,0,1,,,,,,,,,0,,74,0
24096,note_on,24,0,2,,,,,,,,,1,,45,0
24096,note_on,0,0,2,,,,,,,,,1,,46,100
24096,note_on,0,0,1,,,,,,,,,0,,79,100
24096,note_on,24,0,1,,,,,,,,,0,,79,0
24168,note_on,0,0,2,,,,,,,,,1,,48,100
24168,note_on,0,0,1,,,,,,,,,0,,79,100
24168,note_on,72,0,1,,,,,,,,,0,,79,0
24168,note_on,72,0,2,,,,,,,,,1,,46,0
24192,note_on,0,0,1,,,,,,,,,0,,78,100
24192,note_on,0,0,1,,,,,,,,,0,,74,100
24192,note_on,24,0,1,,,,,,,,,0,,79,0
24192,note_on,0,0,2,,,,,,,,,1,,50,100
24192,note_on,24,0,2,,,,,,,,,1,,48,0
24264,note_on,72,0,1,,,,,,,,,0,,74,0
24264,note_on,0,0,1,,,,,,,,,0,,78,0
24264,note_on,0,0,1,,,,,,,,,0,,78,100
24264,note_on,0,0,1,,,,,,,,,0,,81,100
24288,note_on,0,0,1,,,,,,,,,0,,81,100
24288,note_on,24,0,1,,,,,,,,,0,,81,0
24288,note_on,0,0,1,,,,,,,,,0,,78,0
24288,note_on,0,0,1,,,,,,,,,0,,78,100
24288,note_on,96,0,2,,,,,,,,,1,,50,0
24360,note_on,72,0,1,,,,,,,,,0,,81,0
24360,note_on,0,0,1,,,,,,,,,0,,78,0
24360,note_on,0,0,1,,,,,,,,,0,,79,100
24360,note_on,0,0,1,,,,,,,,,0,,82,100
24384,note_on,24,0,1,,,,,,,,,0,,82,0
24384,note_on,0,0,1,,,,,,,,,0,,79,0
24384,note_on,0,0,1,,,,,,,,,0,,78,100
24384,note_on,0,0,1,,,,,,,,,0,,81,100
24384,note_on,0,0,1,,,,,,,,,0,,74,100
24456,note_on,168,0,2,,,,,,,,,1,,62,100
24480,note_on,0,0,1,,,,,,,,,0,,78,0
24480,note_on,96,0,1,,,,,,,,,0,,74,0
24480,note_on,0,0,1,,,,,,,,,0,,81,0
24480,note_on,24,0,2,,,,,,,,,1,,62,0
24480,note_on,0,0,2,,,,,,,,,1,,62,100
24552,note_on,72,0,2,,,,,,,,,1,,62,0
24552,note_on,0,0,2,,,,,,,,,1,,55,100
24576,note_on,24,0,2,,,,,,,,,1,,55,0
24576,note_on,0,0,2,,,,,,,,,1,,62,100
24648,note_on,0,0,1,,,,,,,,,0,,81,100
24648,note_on,168,0,1,,,,,,,,,0,,78,100
24672,note_on,0,0,1,,,,,,,,,0,,78,0
24672,note_on,96,0,2,,,,,,,,,1,,62,0
24672,note_on,0,0,1,,,,,,,,,0,,81,100
24672,note_on,0,0,1,,,,,,,,,0,,78,100
24672,note_on,24,0,1,,,,,,,,,0,,81,0
24744,note_on,0,0,1,,,,,,,,,0,,79,100
24744,note_on,0,0,1,,,,,,,,,0,,78,0
24744,note_on,72,0,1,,,,,,,,,0,,81,0
24744,note_on,0,0,1,,,,,,,,,0,,82,100
24768,note_on,0,0,1,,,,,,,,,0,,79,0
24768,note_on,0,0,1,,,,,,,,,0,,74,100
24768,note_on,24,0,1,,,,,,,,,0,,82,0
24768,note_on,0,0,1,,,,,,,,,0,,81,100
24768,note_on,0,0,1,,,,,,,,,0,,78,100
24840,note_on,168,0,2,,,,,,,,,1,,62,100
24864,note_on,0,0,1,,,,,,,,,0,,81,0
24864,note_on,96,0,1,,,,,,,,,0,,74,0
24864,note_on,0,0,1,,,,,,,,,0,,78,0
24864,note_on,0,0,2,,,,,,,,,1,,62,100
24864,note_on,24,0,2,,,,,,,,,1,,62,0
24936,note_on,72,0,2,,,,,,,,,1,,62,0
24936,note_on,0,0,2,,,,,,,,,1,,55,100
24960,note_on,24,0,2,,,,,,,,,1,,55,0
24960,note_on,0,0,2,,,,,,,,,1,,62,100
25032,note_on,168,0,1,,,,,,,,,0,,78,100
25032,note_on,0,0,2,,,,,,,,,1,,62,100
25032,note_on,72,0,2,,,,,,,,,1,,62,0
25032,note_on,0,0,1,,,,,,,,,0,,74,100
25032,note_on,0,0,1,,,,,,,,,0,,81,100
25056,note_on,24,0,2,,,,,,,,,1,,62,0
25056,note_on,0,0,1,,,,,,,,,0,,81,0
25056,note_on,0,0,1,,,,,,,,,0,,78,100
25056,note_on,0,0,1,,,,,,,,,0,,81,100
25056,note_on,0,0,1,,,,,,,,,0,,74,100
25056,note_on,0,0,2,,,,,,,,,1,,62,100
25056,note_on,24,0,1,,,,,,,,,0,,74,0
25056,note_on,0,0,1,,,,,,,,,0,,78,0
25128,note_on,0,0,1,,,,,,,,,0,,78,0
25128,note_on,72,0,1,,,,,,,,,0,,74,0
25128,note_on,0,0,1,,,,,,,,,0,,81,0
25128,note_on,72,0,2,,,,,,,,,1,,62,0
25128,note_on,0,0,1,,,,,,,,,0,,79,100
25128,note_on,0,0,1,,,,,,,,,0,,82,100
25128,note_on,0,0,1,,,,,,,,,0,,74,100
25128,note_on,0,0,2,,,,,,,,,1,,55,100
25152,note_on,24,0,2,,,,,,,,,1,,55,0
25152,note_on,0,0,1,,,,,,,,,0,,74,100
25152,note_on,0,0,1,,,,,,,,,0,,81,100
25152,note_on,0,0,2,,,,,,,,,1,,62,100
25152,note_on,0,0,1,,,,,,,,,0,,79,0
25152,note_on,0,0,1,,,,,,,,,0,,78,100
25152,note_on,24,0,1,,,,,,,,,0,,74,0
25152,note_on,0,0,1,,,,,,,,,0,,82,0
25224,note_on,0,0,1,,,,,,,,,0,,78,0
25224,note_on,0,0,1,,,,,,,,,0,,78,100
25224,note_on,0,0,1,,,,,,,,,0,,81,100
25224,note_on,0,0,1,,,,,,,,,0,,74,100
25224,note_on,72,0,1,,,,,,,,,0,,74,0
25224,note_on,0,0,2,,,,,,,,,1,,62,100
25224,note_on,72,0,2,,,,,,,,,1,,62,0
25224,note_on,0,0,1,,,,,,,,,0,,81,0
25248,note_on,24,0,1,,,,,,,,,0,,74,0
25248,note_on,0,0,1,,,,,,,,,0,,78,0
25248,note_on,0,0,1,,,,,,,,,0,,78,100
25248,note_on,0,0,1,,,,,,,,,0,,81,100
25248,note_on,0,0,1,,,,,,,,,0,,74,100
25248,note_on,0,0,1,,,,,,,,,0,,81,0
25248,note_on,24,0,2,,,,,,,,,1,,62,0
25248,note_on,0,0,2,,,,,,,,,1,,62,100
25320,note_on,0,0,1,,,,,,,,,0,,79,100
25320,note_on,0,0,1,,,,,,,,,0,,82,100
25320,note_on,0,0,2,,,,,,,,,1,,55,100
25320,note_on,0,0,1,,,,,,,,,0,,74,100
25320,note_on,72,0,1,,,,,,,,,0,,74,0
25320,note_on,0,0,1,,,,,,,,,0,,81,0
25320,note_on,72,0,2,,,,,,,,,1,,62,0
25320,note_on,0,0,1,,,,,,,,,0,,78,0
25344,note_on,24,0,2,,,,,,,,,1,,55,0
25344,note_on,0,0,2,,,,,,,,,1,,62,100
25344,note_on,24,0,1,,,,,,,,,0,,74,0
25344,note_on,0,0,1,,,,,,,,,0,,82,0
25344,note_on,0,0,1,,,,,,,,,0,,79,0
25344,note_on,0,0,1,,,,,,,,,0,,78,100
25344,note_on,0,0,1,,,,,,,,,0,,81,100
25344,note_on,0,0,1,,,,,,,,,0,,74,100
25416,note_on,0,0,1,,,,,,,,,0,,66,100
25416,note_on,72,0,1,,,,,,,,,0,,74,0
25416,note_on,0,0,1,,,,,,,,,0,,81,0
25416,note_on,0,0,1,,,,,,,,,0,,78,0
25416,note_on,0,0,1,,,,,,,,,0,,69,100
25440,note_on,0,0,1,,,,,,,,,0,,69,100
25440,note_on,0,0,2,,,,,,,,,1,,50,100
25440,note_on,24,0,1,,,,,,,,,0,,69,0
25440,note_on,96,0,2,,,,,,,,,1,,62,0
25440,note_on,0,0,1,,,,,,,,,0,,66,100
25440,note_on,0,0,1,,,,,,,,,0,,66,0
25512,note_on,0,0,1,,,,,,,,,0,,66,0
25512,note_on,0,0,1,,,,,,,,,0,,66,100
25512,note_on,0,0,1,,,,,,,,,0,,69,100
25512,note_on,72,0,1,,,,,,,,,0,,69,0
25536,note_on,96,0,2,,,,,,,,,1,,50,0
25536,note_on,0,0,2,,,,,,,,,1,,50,100
25536,note_on,0,0,2,,,,,,,,,1,,38,100
25536,note_on,0,0,1,,,,,,,,,0,,70,100
25536,note_on,0,0,1,,,,,,,,,0,,67,100
25536,note_on,0,0,1,,,,,,,,,0,,66,0
25536,note_on,24,0,1,,,,,,,,,0,,69,0
25608,note_on,0,0,1,,,,,,,,,0,,70,100
25608,note_on,72,0,1,,,,,,,,,0,,70,0
25608,note_on,0,0,1,,,,,,,,,0,,67,100
25608,note_on,0,0,1,,,,,,,,,0,,67,0
25632,note_on,0,0,1,,,,,,,,,0,,69,100
25632,note_on,24,0,1,,,,,,,,,0,,70,0
25632,note_on,0,0,1,,,,,,,,,0,,67,0
25632,note_on,0,0,1,,,,,,,,,0,,66,100
25704,note_on,72,0,1,,,,,,,,,0,,69,0
25704,note_on,0,0,1,,,,,,,,,0,,66,0
25704,note_on,0,0,1,,,,,,,,,0,,67,100
25704,note_on,0,0,1,,,,,,,,,0,,70,100
25728,note_on,0,0,1,,,,,,,,,0,,67,0
25728,note_on,0,0,1,,,,,,,,,0,,69,100
25728,note_on,0,0,1,,,,,,,,,0,,72,100
25728,note_on,24,0,1,,,,,,,,,0,,70,0
25800,note_on,72,0,1,,,,,,,,,0,,72,0
25800,note_on,0,0,1,,,,,,,,,0,,69,100
25800,note_on,0,0,1,,,,,,,,,0,,72,100
25800,note_on,0,0,1,,,,,,,,,0,,69,0
25824,note_on,24,0,1,,,,,,,,,0,,72,0
25824,note_on,0,0,1,,,,,,,,,0,,69,0
25824,note_on,0,0,1,,,,,,,,,0,,67,100
25824,note_on,0,0,1,,,,,,,,,0,,70,100
25896,note_on,72,0,1,,,,,,,,,0,,70,0
25896,note_on,0,0,1,,,,,,,,,0,,67,0
25896,note_on,0,0,1,,,,,,,,,0,,66,100
25896,note_on,0,0,1,,,,,,,,,0,,69,100
25920,note_on,24,0,1,,,,,,,,,0,,69,0
25920,note_on,0,0,1,,,,,,,,,0,,66,0
25920,note_on,0,0,1,,,,,,,,,0,,67,100
25920,note_on,0,0,1,,,,,,,,,0,,70,100
25992,note_on,72,0,1,,,,,,,,,0,,70,0
25992,note_on,0,0,1,,,,,,,,,0,,67,100
25992,note_on,0,0,1,,,,,,,,,0,,70,100
25992,note_on,0,0,1,,,,,,,,,0,,67,0
26016,note_on,24,0,1,,,,,,,,,0,,70,0
26016,note_on,0,0,1,,,,,,,,,0,,67,0
26016,note_on,0,0,1,,,,,,,,,0,,66,100
26016,note_on,0,0,1,,,,,,,,,0,,69,100
26088,note_on,0,0,1,,,,,,,,,0,,66,0
26088,note_on,0,0,1,,,,,,,,,0,,64,100
26088,note_on,0,0,1,,,,,,,,,0,,67,100
26088,note_on,72,0,1,,,,,,,,,0,,69,0
26112,note_on,576,0,2,,,,,,,,,1,,38,0
26112,note_on,24,0,1,,,,,,,,,0,,67,0
26112,note_on,0,0,1,,,,,,,,,0,,64,0
26112,note_on,0,0,1,,,,,,,,,0,,66,100
26112,note_on,0,0,1,,,,,,,,,0,,69,100
26112,note_on,0,0,2,,,,,,,,,1,,50,0
26184,note_on,0,0,1,,,,,,,,,0,,74,100
26184,note_on,0,0,1,,,,,,,,,0,,66,100
26184,note_on,0,0,1,,,,,,,,,0,,66,0
26184,note_on,72,0,1,,,,,,,,,0,,69,0
26184,note_on,72,0,2,,,,,,,,,1,,50,100
26208,note_on,0,0,1,,,,,,,,,0,,74,100
26208,note_on,0,0,1,,,,,,,,,0,,66,100
26208,note_on,0,0,1,,,,,,,,,0,,66,0
26208,note_on,24,0,1,,,,,,,,,0,,74,0
26208,note_on,24,0,2,,,,,,,,,1,,50,0
26208,note_on,0,0,2,,,,,,,,,1,,50,100
26280,note_on,0,0,1,,,,,,,,,0,,74,100
26280,note_on,0,0,1,,,,,,,,,0,,66,100
26280,note_on,72,0,1,,,,,,,,,0,,74,0
26280,note_on,72,0,2,,,,,,,,,1,,50,0
26280,note_on,0,0,2,,,,,,,,,1,,50,100
26280,note_on,0,0,1,,,,,,,,,0,,66,0
26304,note_on,24,0,1,,,,,,,,,0,,74,0
26304,note_on,0,0,1,,,,,,,,,0,,74,100
26304,note_on,0,0,1,,,,,,,,,0,,67,100
26304,note_on,0,0,1,,,,,,,,,0,,66,0
26304,note_on,24,0,2,,,,,,,,,1,,50,0
26304,note_on,0,0,2,,,,,,,,,1,,51,100
26376,note_on,0,0,1,,,,,,,,,0,,74,100
26376,note_on,0,0,1,,,,,,,,,0,,67,100
26376,note_on,0,0,1,,,,,,,,,0,,67,0
26376,note_on,72,0,1,,,,,,,,,0,,74,0
26376,note_on,0,0,2,,,,,,,,,1,,51,100
26376,note_on,72,0,2,,,,,,,,,1,,51,0
26400,note_on,0,0,1,,,,,,,,,0,,67,0
26400,note_on,24,0,1,,,,,,,,,0,,74,0
26400,note_on,0,0,1,,,,,,,,,0,,69,100
26400,note_on,0,0,1,,,,,,,,,0,,72,100
26400,note_on,0,0,2,,,,,,,,,1,,50,100
26400,note_on,24,0,2,,,,,,,,,1,,51,0
26472,note_on,0,0,1,,,,,,,,,0,,72,100
26472,note_on,0,0,2,,,,,,,,,1,,48,100
26472,note_on,72,0,2,,,,,,,,,1,,50,0
26472,note_on,72,0,1,,,,,,,,,0,,72,0
26472,note_on,0,0,1,,,,,,,,,0,,69,0
26472,note_on,0,0,1,,,,,,,,,0,,69,100
26496,note_on,0,0,2,,,,,,,,,1,,50,100
26496,note_on,24,0,2,,,,,,,,,1,,48,0
26496,note_on,0,0,1,,,,,,,,,0,,72,100
26496,note_on,0,0,1,,,,,,,,,0,,66,100
26496,note_on,0,0,1,,,,,,,,,0,,69,0
26496,note_on,24,0,1,,,,,,,,,0,,72,0
26568,note_on,0,0,2,,,,,,,,,1,,50,100
26568,note_on,72,0,2,,,,,,,,,1,,50,0
26568,note_on,0,0,1,,,,,,,,,0,,74,100
26568,note_on,0,0,1,,,,,,,,,0,,66,0
26568,note_on,0,0,1,,,,,,,,,0,,66,100
26568,note_on,72,0,1,,,,,,,,,0,,72,0
26592,note_on,24,0,1,,,,,,,,,0,,74,0
26592,note_on,0,0,1,,,,,,,,,0,,66,0
26592,note_on,0,0,1,,,,,,,,,0,,67,100
26592,note_on,0,0,1,,,,,,,,,0,,70,100
26592,note_on,24,0,2,,,,,,,,,1,,50,0
26592,note_on,0,0,2,,,,,,,,,1,,43,100
26592,note_on,0,0,2,,,,,,,,,1,,55,100
26664,note_on,72,0,1,,,,,,,,,0,,70,0
26664,note_on,0,0,1,,,,,,,,,0,,69,100
26664,note_on,72,0,2,,,,,,,,,1,,43,0
26664,note_on,0,0,2,,,,,,,,,1,,48,100
26688,note_on,0,0,1,,,,,,,,,0,,70,100
26688,note_on,24,0,1,,,,,,,,,0,,69,0
26688,note_on,24,0,2,,,,,,,,,1,,48,0
26688,note_on,0,0,2,,,,,,,,,1,,55,0
26688,note_on,0,0,2,,,,,,,,,1,,50,100
26784,note_on,0,0,1,,,,,,,,,0,,67,0
26784,note_on,0,0,1,,,,,,,,,0,,66,100
26784,note_on,96,0,1,,,,,,,,,0,,70,0
26784,note_on,0,0,1,,,,,,,,,0,,69,100
26784,note_on,0,0,2,,,,,,,,,1,,38,100
26784,note_on,96,0,2,,,,,,,,,1,,50,0
26856,note_on,0,0,1,,,,,,,,,0,,67,100
26856,note_on,72,0,1,,,,,,,,,0,,69,0
26880,note_on,0,0,2,,,,,,,,,1,,43,100
26880,note_on,24,0,1,,,,,,,,,0,,67,0
26880,note_on,0,0,1,,,,,,,,,0,,66,0
26880,note_on,0,0,1,,,,,,,,,0,,67,100
26880,note_on,96,0,2,,,,,,,,,1,,38,0
26952,note_on,72,0,1,,,,,,,,,0,,67,0
26952,note_on,0,0,1,,,,,,,,,0,,72,100
26952,note_on,0,0,1,,,,,,,,,0,,81,100
26952,note_on,72,0,2,,,,,,,,,1,,43,0
26952,note_on,0,0,2,,,,,,,,,1,,54,100
26952,note_on,0,0,2,,,,,,,,,1,,57,100
26952,note_on,0,0,1,,,,,,,,,0,,74,100
26952,note_on,0,0,2,,,,,,,,,1,,60,100
26976,note_on,24,0,1,,,,,,,,,0,,81,0
26976,note_on,0,0,1,,,,,,,,,0,,74,100
26976,note_on,0,0,1,,,,,,,,,0,,72,100
26976,note_on,0,0,1,,,,,,,,,0,,72,0
26976,note_on,0,0,1,,,,,,,,,0,,74,0
26976,note_on,0,0,2,,,,,,,,,1,,57,100
26976,note_on,24,0,2,,,,,,,,,1,,60,0
26976,note_on,0,0,2,,,,,,,,,1,,57,0
26976,note_on,0,0,2,,,,,,,,,1,,54,0
26976,note_on,0,0,2,,,,,,,,,1,,54,100
26976,note_on,0,0,2,,,,,,,,,1,,60,100
26976,note_on,0,0,1,,,,,,,,,0,,81,100
27048,note_on,0,0,1,,,,,,,,,0,,81,100
27048,note_on,0,0,2,,,,,,,,,1,,57,0
27048,note_on,0,0,1,,,,,,,,,0,,74,100
27048,note_on,0,0,1,,,,,,,,,0,,72,0
27048,note_on,0,0,1,,,,,,,,,0,,74,0
27048,note_on,72,0,1,,,,,,,,,0,,81,0
27048,note_on,0,0,1,,,,,,,,,0,,72,100
27048,note_on,0,0,2,,,,,,,,,1,,57,100
27048,note_on,0,0,2,,,,,,,,,1,,54,100
27048,note_on,0,0,2,,,,,,,,,1,,54,0
27048,note_on,0,0,2,,,,,,,,,1,,60,100
27048,note_on,72,0,2,,,,,,,,,1,,60,0
27072,note_on,0,0,1,,,,,,,,,0,,81,100
27072,note_on,24,0,1,,,,,,,,,0,,81,0
27072,note_on,0,0,1,,,,,,,,,0,,74,0
27072,note_on,0,0,1,,,,,,,,,0,,72,0
27072,note_on,0,0,1,,,,,,,,,0,,72,100
27072,note_on,0,0,1,,,,,,,,,0,,74,100
27072,note_on,0,0,2,,,,,,,,,1,,57,100
27072,note_on,0,0,2,,,,,,,,,1,,60,100
27072,note_on,24,0,2,,,,,,,,,1,,60,0
27072,note_on,0,0,2,,,,,,,,,1,,54,100
27072,note_on,0,0,2,,,,,,,,,1,,57,0
27072,note_on,0,0,2,,,,,,,,,1,,54,0
27264,note_on,0,0,2,,,,,,,,,1,,57,0
27264,note_on,0,0,2,,,,,,,,,1,,54,0
27264,note_on,192,0,1,,,,,,,,,0,,81,0
27264,note_on,0,0,1,,,,,,,,,0,,74,0
27264,note_on,192,0,2,,,,,,,,,1,,60,0
27264,note_on,0,0,1,,,,,,,,,0,,72,0
27648,note_on,384,0,2,,,,,,,,,1,,50,100
27648,note_on,0,0,2,,,,,,,,,1,,38,100
27720,note_on,0,0,1,,,,,,,,,0,,69,100
27720,note_on,456,0,1,,,,,,,,,0,,66,100
27744,note_on,24,0,1,,,,,,,,,0,,69,0
27744,note_on,0,0,1,,,,,,,,,0,,66,100
27744,note_on,0,0,1,,,,,,,,,0,,69,100
27744,note_on,0,0,1,,,,,,,,,0,,66,0
27816,note_on,72,0,1,,,,,,,,,0,,69,0
27816,note_on,0,0,1,,,,,,,,,0,,66,0
27816,note_on,0,0,1,,,,,,,,,0,,66,100
27816,note_on,0,0,1,,,,,,,,,0,,69,100
27840,note_on,0,0,1,,,,,,,,,0,,67,100
27840,note_on,0,0,1,,,,,,,,,0,,66,0
27840,note_on,0,0,1,,,,,,,,,0,,70,100
27840,note_on,24,0,1,,,,,,,,,0,,69,0
27912,note_on,72,0,1,,,,,,,,,0,,70,0
27912,note_on,0,0,1,,,,,,,,,0,,67,0
27912,note_on,0,0,1,,,,,,,,,0,,67,100
27912,note_on,0,0,1,,,,,,,,,0,,70,100
27936,note_on,24,0,1,,,,,,,,,0,,70,0
27936,note_on,0,0,1,,,,,,,,,0,,67,0
27936,note_on,0,0,1,,,,,,,,,0,,66,100
27936,note_on,0,0,1,,,,,,,,,0,,69,100
28008,note_on,0,0,1,,,,,,,,,0,,67,100
28008,note_on,0,0,1,,,,,,,,,0,,70,100
28008,note_on,72,0,1,,,,,,,,,0,,69,0
28008,note_on,0,0,1,,,,,,,,,0,,66,0
28032,note_on,24,0,1,,,,,,,,,0,,70,0
28032,note_on,0,0,1,,,,,,,,,0,,67,0
28032,note_on,0,0,1,,,,,,,,,0,,69,100
28032,note_on,0,0,1,,,,,,,,,0,,72,100
28104,note_on,0,0,1,,,,,,,,,0,,72,100
28104,note_on,72,0,1,,,,,,,,,0,,72,0
28104,note_on,0,0,1,,,,,,,,,0,,69,0
28104,note_on,0,0,1,,,,,,,,,0,,69,100
28128,note_on,0,0,1,,,,,,,,,0,,67,100
28128,note_on,0,0,1,,,,,,,,,0,,69,0
28128,note_on,0,0,1,,,,,,,,,0,,70,100
28128,note_on,24,0,1,,,,,,,,,0,,72,0
28200,note_on,72,0,1,,,,,,,,,0,,70,0
28200,note_on,0,0,1,,,,,,,,,0,,67,0
28200,note_on,0,0,1,,,,,,,,,0,,66,100
28200,note_on,0,0,1,,,,,,,,,0,,69,100
28224,note_on,24,0,1,,,,,,,,,0,,69,0
28224,note_on,0,0,1,,,,,,,,,0,,66,0
28224,note_on,0,0,1,,,,,,,,,0,,67,100
28224,note_on,0,0,1,,,,,,,,,0,,70,100
28296,note_on,0,0,1,,,,,,,,,0,,70,100
28296,note_on,0,0,1,,,,,,,,,0,,67,100
28296,note_on,0,0,1,,,,,,,,,0,,67,0
28296,note_on,72,0,1,,,,,,,,,0,,70,0
28320,note_on,24,0,1,,,,,,,,,0,,70,0
28320,note_on,0,0,1,,,,,,,,,0,,67,0
28320,note_on,0,0,1,,,,,,,,,0,,66,100
28320,note_on,0,0,1,,,,,,,,,0,,69,100
28392,note_on,72,0,1,,,,,,,,,0,,69,0
28392,note_on,0,0,1,,,,,,,,,0,,66,0
28392,note_on,0,0,1,,,,,,,,,0,,64,100
28392,note_on,0,0,1,,,,,,,,,0,,67,100
28416,note_on,0,0,1,,,,,,,,,0,,69,100
28416,note_on,0,0,1,,,,,,,,,0,,66,100
28416,note_on,0,0,2,,,,,,,,,1,,50,0
28416,note_on,24,0,1,,,,,,,,,0,,67,0
28416,note_on,768,0,2,,,,,,,,,1,,38,0
28416,note_on,0,0,1,,,,,,,,,0,,64,0
28488,note_on,72,0,1,,,,,,,,,0,,69,0
28488,note_on,0,0,1,,,,,,,,,0,,66,100
28488,note_on,0,0,1,,,,,,,,,0,,74,100
28488,note_on,72,0,2,,,,,,,,,1,,50,100
28488,note_on,0,0,1,,,,,,,,,0,,66,0
28512,note_on,0,0,2,,,,,,,,,1,,50,100
28512,note_on,24,0,2,,,,,,,,,1,,50,0
28512,note_on,0,0,1,,,,,,,,,0,,66,0
28512,note_on,24,0,1,,,,,,,,,0,,74,0
28512,note_on,0,0,1,,,,,,,,,0,,66,100
28512,note_on,0,0,1,,,,,,,,,0,,74,100
28584,note_on,72,0,2,,,,,,,,,1,,50,0
28584,note_on,0,0,2,,,,,,,,,1,,50,100
28584,note_on,72,0,1,,,,,,,,,0,,74,0
28584,note_on,0,0,1,,,,,,,,,0,,74,100
28584,note_on,0,0,1,,,,,,,,,0,,66,100
28584,note_on,0,0,1,,,,,,,,,0,,66,0
28608,note_on,0,0,1,,,,,,,,,0,,74,100
28608,note_on,0,0,2,,,,,,,,,1,,51,100
28608,note_on,24,0,2,,,,,,,,,1,,50,0
28608,note_on,0,0,1,,,,,,,,,0,,66,0
28608,note_on,24,0,1,,,,,,,,,0,,74,0
28608,note_on,0,0,1,,,,,,,,,0,,67,100
28680,note_on,72,0,1,,,,,,,,,0,,74,0
28680,note_on,0,0,1,,,,,,,,,0,,67,0
28680,note_on,0,0,1,,,,,,,,,0,,67,100
28680,note_on,72,0,2,,,,,,,,,1,,51,0
28680,note_on,0,0,2,,,,,,,,,1,,51,100
28680,note_on,0,0,1,,,,,,,,,0,,74,100
28704,note_on,0,0,2,,,,,,,,,1,,50,100
28704,note_on,24,0,2,,,,,,,,,1,,51,0
28704,note_on,24,0,1,,,,,,,,,0,,74,0
28704,note_on,0,0,1,,,,,,,,,0,,67,0
28704,note_on,0,0,1,,,,,,,,,0,,69,100
28704,note_on,0,0,1,,,,,,,,,0,,72,100
28776,note_on,0,0,1,,,,,,,,,0,,72,100
28776,note_on,0,0,2,,,,,,,,,1,,48,100
28776,note_on,72,0,2,,,,,,,,,1,,50,0
28776,note_on,72,0,1,,,,,,,,,0,,72,0
28776,note_on,0,0,1,,,,,,,,,0,,69,0
28776,note_on,0,0,1,,,,,,,,,0,,69,100
28800,note_on,24,0,1,,,,,,,,,0,,72,0
28800,note_on,0,0,1,,,,,,,,,0,,69,0
28800,note_on,24,0,2,,,,,,,,,1,,48,0
28800,note_on,0,0,1,,,,,,,,,0,,66,100
28800,note_on,0,0,2,,,,,,,,,1,,50,100
28800,note_on,0,0,1,,,,,,,,,0,,72,100
28872,note_on,72,0,2,,,,,,,,,1,,50,0
28872,note_on,0,0,2,,,,,,,,,1,,54,100
28872,note_on,0,0,1,,,,,,,,,0,,66,0
28872,note_on,0,0,1,,,,,,,,,0,,74,100
28872,note_on,0,0,1,,,,,,,,,0,,66,100
28872,note_on,72,0,1,,,,,,,,,0,,72,0
28896,note_on,0,0,1,,,,,,,,,0,,67,100
28896,note_on,0,0,1,,,,,,,,,0,,66,0
28896,note_on,24,0,1,,,,,,,,,0,,74,0
28896,note_on,24,0,2,,,,,,,,,1,,54,0
28896,note_on,0,0,1,,,,,,,,,0,,70,100
28896,note_on,0,0,2,,,,,,,,,1,,55,100
28968,note_on,0,0,1,,,,,,,,,0,,69,100
28968,note_on,0,0,2,,,,,,,,,1,,48,100
28968,note_on,72,0,1,,,,,,,,,0,,70,0
28968,note_on,72,0,2,,,,,,,,,1,,55,0
28992,note_on,24,0,1,,,,,,,,,0,,69,0
28992,note_on,0,0,1,,,,,,,,,0,,70,100
28992,note_on,0,0,2,,,,,,,,,1,,50,100
28992,note_on,24,0,2,,,,,,,,,1,,48,0
29088,note_on,96,0,2,,,,,,,,,1,,50,0
29088,note_on,0,0,1,,,,,,,,,0,,69,100
29088,note_on,0,0,1,,,,,,,,,0,,66,100
29088,note_on,0,0,1,,,,,,,,,0,,67,0
29088,note_on,96,0,1,,,,,,,,,0,,70,0
29088,note_on,0,0,2,,,,,,,,,1,,38,100
29160,note_on,72,0,1,,,,,,,,,0,,69,0
29160,note_on,0,0,1,,,,,,,,,0,,67,100
29184,note_on,0,0,1,,,,,,,,,0,,58,100
29184,note_on,0,0,1,,,,,,,,,0,,62,100
29184,note_on,0,0,1,,,,,,,,,0,,66,0
29184,note_on,24,0,1,,,,,,,,,0,,67,0
29184,note_on,0,0,1,,,,,,,,,0,,67,100
29184,note_on,0,0,2,,,,,,,,,1,,50,100
29184,set_tempo,14208,1,0,,,,,,500000,,,,,,
29184,note_on,96,0,2,,,,,,,,,1,,38,0
29184,note_on,0,0,2,,,,,,,,,1,,55,100
29184,note_on,0,0,2,,,,,,,,,1,,46,100
29184,note_on,0,0,2,,,,,,,,,1,,43,100
29256,note_on,0,0,1,,,,,,,,,0,,69,100
29256,note_on,72,0,1,,,,,,,,,0,,67,0
29268,note_on,12,0,1,,,,,,,,,0,,69,0
29268,note_on,0,0,1,,,,,,,,,0,,67,100
29280,note_on,0,0,1,,,,,,,,,0,,62,0
29280,note_on,0,0,2,,,,,,,,,1,,50,0
29280,note_on,0,0,2,,,,,,,,,1,,46,0
29280,note_on,12,0,1,,,,,,,,,0,,67,0
29280,note_on,0,0,1,,,,,,,,,0,,58,0
29280,note_on,96,0,2,,,,,,,,,1,,43,0
29280,note_on,0,0,1,,,,,,,,,0,,69,100
29280,note_on,0,0,2,,,,,,,,,1,,55,0
29292,note_on,0,0,1,,,,,,,,,0,,67,100
29292,note_on,12,0,1,,,,,,,,,0,,69,0
29304,note_on,0,0,1,,,,,,,,,0,,66,100
29304,note_on,12,0,1,,,,,,,,,0,,67,0
29316,note_on,0,0,1,,,,,,,,,0,,67,100
29316,note_on,12,0,1,,,,,,,,,0,,66,0
29316,note_on,36,0,2,,,,,,,,,1,,55,100
29328,note_on,0,0,2,,,,,,,,,1,,53,100
29328,note_on,12,0,2,,,,,,,,,1,,55,0
29340,note_on,0,0,2,,,,,,,,,1,,51,100
29340,note_on,12,0,2,,,,,,,,,1,,53,0
29352,note_on,0,0,2,,,,,,,,,1,,50,100
29352,note_on,12,0,2,,,,,,,,,1,,51,0
29352,note_on,0,0,1,,,,,,,,,0,,69,100
29352,note_on,36,0,1,,,,,,,,,0,,67,0
29364,note_on,0,0,2,,,,,,,,,1,,48,100
29364,note_on,12,0,2,,,,,,,,,1,,50,0
29364,note_on,0,0,1,,,,,,,,,0,,71,100
29364,note_on,12,0,1,,,,,,,,,0,,69,0
29376,note_on,0,0,2,,,,,,,,,1,,48,100
29376,note_on,12,0,2,,,,,,,,,1,,48,0
29376,note_on,0,0,1,,,,,,,,,0,,72,100
29376,note_on,12,0,1,,,,,,,,,0,,71,0
29388,note_on,0,0,2,,,,,,,,,1,,47,100
29388,note_on,12,0,2,,,,,,,,,1,,48,0
29388,note_on,12,0,1,,,,,,,,,0,,72,0
29388,note_on,0,0,1,,,,,,,,,0,,74,100
29400,note_on,0,0,1,,,,,,,,,0,,75,100
29400,note_on,12,0,1,,,,,,,,,0,,74,0
29400,note_on,12,0,2,,,,,,,,,1,,47,0
29400,note_on,0,0,2,,,,,,,,,1,,48,100
29412,note_on,0,0,2,,,,,,,,,1,,47,100
29412,note_on,12,0,2,,,,,,,,,1,,48,0
29424,note_on,12,0,2,,,,,,,,,1,,47,0
29424,note_on,0,0,2,,,,,,,,,1,,48,100
29436,note_on,12,0,2,,,,,,,,,1,,48,0
29436,note_on,0,0,2,,,,,,,,,1,,47,100
29448,note_on,0,0,2,,,,,,,,,1,,48,100
29448,note_on,12,0,2,,,,,,,,,1,,47,0
29460,note_on,0,0,2,,,,,,,,,1,,47,100
29460,note_on,12,0,2,,,,,,,,,1,,48,0
29472,note_on,12,0,2,,,,,,,,,1,,47,0
29472,note_on,0,0,1,,,,,,,,,0,,71,100
29472,note_on,0,0,2,,,,,,,,,1,,48,100
29472,note_on,72,0,1,,,,,,,,,0,,75,0
29472,note_on,0,0,1,,,,,,,,,0,,79,100
29472,note_on,0,0,1,,,,,,,,,0,,67,100
29472,note_on,0,0,1,,,,,,,,,0,,74,100
29484,note_on,0,0,1,,,,,,,,,0,,77,100
29484,note_on,0,0,2,,,,,,,,,1,,47,100
29484,note_on,12,0,1,,,,,,,,,0,,79,0
29484,note_on,12,0,2,,,,,,,,,1,,48,0
29496,note_on,12,0,1,,,,,,,,,0,,77,0
29496,note_on,0,0,1,,,,,,,,,0,,79,100
29496,note_on,12,0,2,,,,,,,,,1,,47,0
29496,note_on,0,0,2,,,,,,,,,1,,48,100
29508,note_on,12,0,2,,,,,,,,,1,,48,0
29508,note_on,0,0,2,,,,,,,,,1,,47,100
29520,note_on,0,0,2,,,,,,,,,1,,45,100
29520,note_on,12,0,2,,,,,,,,,1,,47,0
29520,note_on,24,0,1,,,,,,,,,0,,79,100
29544,note_on,0,0,2,,,,,,,,,1,,43,100
29544,note_on,24,0,2,,,,,,,,,1,,45,0
29568,note_on,0,0,1,,,,,,,,,0,,71,0
29568,note_on,0,0,2,,,,,,,,,1,,48,100
29568,note_on,24,0,2,,,,,,,,,1,,43,0
29568,note_on,48,0,1,,,,,,,,,0,,79,0
29568,note_on,0,0,1,,,,,,,,,0,,74,0
29568,note_on,0,0,2,,,,,,,,,1,,36,100
29568,note_on,0,0,1,,,,,,,,,0,,67,0
29568,note_on,0,0,1,,,,,,,,,0,,79,0
29568,note_on,0,0,1,,,,,,,,,0,,75,100
29568,note_on,0,0,1,,,,,,,,,0,,72,100
29568,note_on,0,0,1,,,,,,,,,0,,67,100
29664,note_on,0,0,1,,,,,,,,,0,,75,0
29664,note_on,0,0,1,,,,,,,,,0,,72,0
29664,note_on,96,0,2,,,,,,,,,1,,36,0
29664,note_on,0,0,2,,,,,,,,,1,,48,0
29664,note_on,96,0,1,,,,,,,,,0,,67,0
29676,note_on,12,0,1,,,,,,,,,0,,67,100
29688,note_on,12,0,1,,,,,,,,,0,,67,0
29688,note_on,0,0,1,,,,,,,,,0,,69,100
29700,note_on,0,0,1,,,,,,,,,0,,70,100
29700,note_on,12,0,1,,,,,,,,,0,,69,0
29712,note_on,48,0,2,,,,,,,,,1,,60,100
29712,note_on,12,0,1,,,,,,,,,0,,70,0
29712,note_on,0,0,1,,,,,,,,,0,,72,100
29724,note_on,12,0,1,,,,,,,,,0,,72,0
29724,note_on,0,0,1,,,,,,,,,0,,74,100
29736,note_on,12,0,1,,,,,,,,,0,,74,0
29736,note_on,0,0,1,,,,,,,,,0,,76,100
29748,note_on,12,0,1,,,,,,,,,0,,76,0
29748,note_on,0,0,1,,,,,,,,,0,,77,100
29760,note_on,0,0,2,,,,,,,,,1,,58,100
29760,note_on,0,0,1,,,,,,,,,0,,72,100
29760,note_on,48,0,2,,,,,,,,,1,,60,0
29760,note_on,12,0,1,,,,,,,,,0,,77,0
29760,note_on,0,0,1,,,,,,,,,0,,77,100
29772,note_on,12,0,1,,,,,,,,,0,,77,0
29772,note_on,0,0,1,,,,,,,,,0,,76,100
29784,note_on,12,0,1,,,,,,,,,0,,76,0
29784,note_on,0,0,1,,,,,,,,,0,,77,100
29796,note_on,0,0,1,,,,,,,,,0,,76,100
29796,note_on,12,0,1,,,,,,,,,0,,77,0
29808,note_on,12,0,1,,,,,,,,,0,,76,0
29808,note_on,0,0,1,,,,,,,,,0,,77,100
29820,note_on,12,0,1,,,,,,,,,0,,77,0
29820,note_on,0,0,1,,,,,,,,,0,,76,100
29832,note_on,12,0,1,,,,,,,,,0,,76,0
29832,note_on,0,0,1,,,,,,,,,0,,77,100
29844,note_on,12,0,1,,,,,,,,,0,,77,0
29844,note_on,0,0,1,,,,,,,,,0,,76,100
29856,note_on,12,0,1,,,,,,,,,0,,76,0
29856,note_on,0,0,1,,,,,,,,,0,,77,100
29868,note_on,12,0,1,,,,,,,,,0,,77,0
29868,note_on,0,0,1,,,,,,,,,0,,76,100
29880,note_on,0,0,1,,,,,,,,,0,,77,100
29880,note_on,12,0,1,,,,,,,,,0,,76,0
29892,note_on,12,0,1,,,,,,,,,0,,77,0
29892,note_on,0,0,1,,,,,,,,,0,,76,100
29904,note_on,144,0,2,,,,,,,,,1,,58,0
29904,note_on,0,0,2,,,,,,,,,1,,58,100
29904,note_on,12,0,1,,,,,,,,,0,,76,0
29904,note_on,0,0,1,,,,,,,,,0,,74,100
29928,note_on,0,0,1,,,,,,,,,0,,72,100
29928,note_on,24,0,1,,,,,,,,,0,,74,0
29952,note_on,0,0,1,,,,,,,,,0,,77,100
29952,note_on,0,0,1,,,,,,,,,0,,72,0
29952,note_on,0,0,1,,,,,,,,,0,,72,100
29952,note_on,0,0,2,,,,,,,,,1,,57,100
29952,note_on,48,0,2,,,,,,,,,1,,58,0
29952,note_on,24,0,1,,,,,,,,,0,,72,0
30048,note_on,0,0,1,,,,,,,,,0,,72,0
30048,note_on,96,0,1,,,,,,,,,0,,77,0
30048,note_on,96,0,2,,,,,,,,,1,,57,0
30060,note_on,12,0,1,,,,,,,,,0,,69,100
30072,note_on,0,0,1,,,,,,,,,0,,70,100
30072,note_on,12,0,1,,,,,,,,,0,,69,0
30084,note_on,0,0,1,,,,,,,,,0,,72,100
30084,note_on,12,0,1,,,,,,,,,0,,70,0
30096,note_on,48,0,2,,,,,,,,,1,,62,100
30096,note_on,12,0,1,,,,,,,,,0,,72,0
30096,note_on,0,0,1,,,,,,,,,0,,74,100
30108,note_on,12,0,1,,,,,,,,,0,,74,0
30108,note_on,0,0,1,,,,,,,,,0,,76,100
30120,note_on,0,0,1,,,,,,,,,0,,78,100
30120,note_on,12,0,1,,,,,,,,,0,,76,0
30132,note_on,0,0,1,,,,,,,,,0,,79,100
30132,note_on,12,0,1,,,,,,,,,0,,78,0
30144,note_on,0,0,1,,,,,,,,,0,,74,100
30144,note_on,48,0,2,,,,,,,,,1,,62,0
30144,note_on,0,0,2,,,,,,,,,1,,60,100
30144,note_on,0,0,1,,,,,,,,,0,,79,100
30144,note_on,12,0,1,,,,,,,,,0,,79,0
30156,note_on,12,0,1,,,,,,,,,0,,79,0
30156,note_on,0,0,1,,,,,,,,,0,,78,100
30168,note_on,12,0,1,,,,,,,,,0,,78,0
30168,note_on,0,0,1,,,,,,,,,0,,79,100
30180,note_on,0,0,1,,,,,,,,,0,,78,100
30180,note_on,12,0,1,,,,,,,,,0,,79,0
30192,note_on,12,0,1,,,,,,,,,0,,78,0
30192,note_on,0,0,1,,,,,,,,,0,,79,100
30204,note_on,12,0,1,,,,,,,,,0,,79,0
30204,note_on,0,0,1,,,,,,,,,0,,78,100
30216,note_on,12,0,1,,,,,,,,,0,,78,0
30216,note_on,0,0,1,,,,,,,,,0,,79,100
30228,note_on,12,0,1,,,,,,,,,0,,79,0
30228,note_on,0,0,1,,,,,,,,,0,,78,100
30240,note_on,12,0,1,,,,,,,,,0,,78,0
30240,note_on,0,0,1,,,,,,,,,0,,79,100
30252,note_on,12,0,1,,,,,,,,,0,,79,0
30252,note_on,0,0,1,,,,,,,,,0,,78,100
30264,note_on,0,0,1,,,,,,,,,0,,79,100
30264,note_on,12,0,1,,,,,,,,,0,,78,0
30276,note_on,0,0,1,,,,,,,,,0,,78,100
30276,note_on,12,0,1,,,,,,,,,0,,79,0
30288,note_on,12,0,1,,,,,,,,,0,,78,0
30288,note_on,0,0,1,,,,,,,,,0,,76,100
30288,note_on,144,0,2,,,,,,,,,1,,60,0
30288,note_on,0,0,2,,,,,,,,,1,,60,100
30312,note_on,24,0,1,,,,,,,,,0,,76,0
30312,note_on,0,0,1,,,,,,,,,0,,74,100
30336,note_on,48,0,2,,,,,,,,,1,,60,0
30336,note_on,0,0,2,,,,,,,,,1,,58,100
30336,note_on,0,0,2,,,,,,,,,1,,62,100
30336,note_on,24,0,1,,,,,,,,,0,,74,0
30336,note_on,0,0,1,,,,,,,,,0,,74,0
30336,note_on,0,0,1,,,,,,,,,0,,79,100
30336,note_on,0,0,1,,,,,,,,,0,,74,100
30480,note_on,144,0,1,,,,,,,,,0,,79,0
30480,note_on,0,0,1,,,,,,,,,0,,74,0
30492,note_on,12,0,1,,,,,,,,,0,,67,100
30504,note_on,12,0,1,,,,,,,,,0,,67,0
30504,note_on,0,0,1,,,,,,,,,0,,69,100
30516,note_on,0,0,1,,,,,,,,,0,,70,100
30516,note_on,12,0,1,,,,,,,,,0,,69,0
30528,note_on,192,0,2,,,,,,,,,1,,62,0
30528,note_on,0,0,2,,,,,,,,,1,,58,0
30528,note_on,0,0,1,,,,,,,,,0,,72,100
30528,note_on,0,0,1,,,,,,,,,0,,67,100
30528,note_on,12,0,1,,,,,,,,,0,,70,0
30576,note_on,48,0,2,,,,,,,,,1,,51,100
30624,note_on,48,0,2,,,,,,,,,1,,51,0
30624,note_on,0,0,2,,,,,,,,,1,,50,100
30672,note_on,0,0,1,,,,,,,,,0,,72,100
30672,note_on,0,0,1,,,,,,,,,0,,69,100
30672,note_on,0,0,1,,,,,,,,,0,,67,0
30672,note_on,144,0,1,,,,,,,,,0,,72,0
30672,note_on,48,0,2,,,,,,,,,1,,50,0
30672,note_on,0,0,2,,,,,,,,,1,,48,100
30720,note_on,0,0,1,,,,,,,,,0,,69,100
30720,note_on,0,0,1,,,,,,,,,0,,69,0
30720,note_on,0,0,2,,,,,,,,,1,,54,100
30720,note_on,0,0,1,,,,,,,,,0,,62,100
30720,note_on,48,0,1,,,,,,,,,0,,72,0
30720,note_on,0,0,1,,,,,,,,,0,,72,100
30720,note_on,48,0,2,,,,,,,,,1,,48,0
30816,note_on,96,0,1,,,,,,,,,0,,62,0
30816,note_on,0,0,1,,,,,,,,,0,,66,100
30816,note_on,0,0,1,,,,,,,,,0,,69,0
30816,note_on,96,0,2,,,,,,,,,1,,54,0
30816,note_on,0,0,2,,,,,,,,,1,,50,100
30864,note_on,48,0,1,,,,,,,,,0,,72,0
30864,note_on,0,0,1,,,,,,,,,0,,74,100
30912,note_on,48,0,1,,,,,,,,,0,,74,0
30912,note_on,0,0,1,,,,,,,,,0,,67,100
30912,note_on,96,0,2,,,,,,,,,1,,50,0
30912,note_on,0,0,2,,,,,,,,,1,,55,100
30912,note_on,0,0,1,,,,,,,,,0,,66,0
30912,note_on,0,0,1,,,,,,,,,0,,72,100
30924,note_on,12,0,1,,,,,,,,,0,,72,0
30924,note_on,0,0,1,,,,,,,,,0,,70,100
30936,note_on,0,0,1,,,,,,,,,0,,72,100
30936,note_on,12,0,1,,,,,,,,,0,,70,0
30948,note_on,12,0,1,,,,,,,,,0,,72,0
30948,note_on,0,0,1,,,,,,,,,0,,70,100
30960,note_on,12,0,1,,,,,,,,,0,,70,0
30960,note_on,0,0,1,,,,,,,,,0,,72,100
30972,note_on,0,0,1,,,,,,,,,0,,70,100
30972,note_on,12,0,1,,,,,,,,,0,,72,0
30984,note_on,12,0,1,,,,,,,,,0,,70,0
30984,note_on,0,0,1,,,,,,,,,0,,72,100
30996,note_on,12,0,1,,,,,,,,,0,,72,0
30996,note_on,0,0,1,,,,,,,,,0,,70,100
31008,note_on,96,0,2,,,,,,,,,1,,55,0
31008,note_on,0,0,2,,,,,,,,,1,,43,100
31008,note_on,12,0,1,,,,,,,,,0,,70,0
31008,note_on,0,0,1,,,,,,,,,0,,72,100
31020,note_on,12,0,1,,,,,,,,,0,,72,0
31020,note_on,0,0,1,,,,,,,,,0,,70,100
31032,note_on,12,0,1,,,,,,,,,0,,70,0
31032,note_on,0,0,1,,,,,,,,,0,,72,100
31044,note_on,12,0,1,,,,,,,,,0,,72,0
31044,note_on,0,0,1,,,,,,,,,0,,70,100
31056,note_on,12,0,1,,,,,,,,,0,,70,0
31056,note_on,0,0,1,,,,,,,,,0,,69,100
31104,note_on,0,0,1,,,,,,,,,0,,69,100
31104,note_on,0,0,1,,,,,,,,,0,,66,100
31104,note_on,0,0,1,,,,,,,,,0,,67,0
31104,note_on,96,0,2,,,,,,,,,1,,43,0
31104,note_on,0,0,2,,,,,,,,,1,,38,100
31104,note_on,0,0,2,,,,,,,,,1,,50,100
31104,note_on,48,0,1,,,,,,,,,0,,69,0
31200,note_on,0,0,1,,,,,,,,,0,,66,0
31200,note_on,96,0,1,,,,,,,,,0,,69,0
31212,note_on,12,0,1,,,,,,,,,0,,62,100
31224,note_on,12,0,1,,,,,,,,,0,,62,0
31224,note_on,0,0,1,,,,,,,,,0,,64,100
31236,note_on,12,0,1,,,,,,,,,0,,64,0
31236,note_on,0,0,1,,,,,,,,,0,,66,100
31248,note_on,0,0,1,,,,,,,,,0,,67,100
31248,note_on,12,0,1,,,,,,,,,0,,66,0
31260,note_on,0,0,1,,,,,,,,,0,,69,100
31260,note_on,12,0,1,,,,,,,,,0,,67,0
31272,note_on,12,0,1,,,,,,,,,0,,69,0
31272,note_on,0,0,1,,,,,,,,,0,,70,100
31284,note_on,12,0,1,,,,,,,,,0,,70,0
31284,note_on,0,0,1,,,,,,,,,0,,72,100
31296,note_on,12,0,1,,,,,,,,,0,,72,0
31296,note_on,0,0,1,,,,,,,,,0,,67,100
31296,note_on,0,0,1,,,,,,,,,0,,74,100
31296,note_on,0,0,2,,,,,,,,,1,,50,0
31296,note_on,192,0,2,,,,,,,,,1,,38,0
31344,note_on,48,0,2,,,,,,,,,1,,46,100
31392,note_on,0,0,2,,,,,,,,,1,,45,100
31392,note_on,48,0,2,,,,,,,,,1,,46,0
31440,note_on,0,0,2,,,,,,,,,1,,43,100
31440,note_on,0,0,1,,,,,,,,,0,,74,100
31440,note_on,144,0,1,,,,,,,,,0,,74,0
31440,note_on,48,0,2,,,,,,,,,1,,45,0
31488,note_on,48,0,1,,,,,,,,,0,,74,0
31488,note_on,0,0,1,,,,,,,,,0,,74,100
31488,note_on,0,0,1,,,,,,,,,0,,67,100
31488,note_on,48,0,2,,,,,,,,,1,,43,0
31488,note_on,0,0,1,,,,,,,,,0,,67,0
31488,note_on,0,0,2,,,,,,,,,1,,51,100
31536,note_on,48,0,1,,,,,,,,,0,,74,0
31536,note_on,0,0,1,,,,,,,,,0,,72,100
31584,note_on,0,0,2,,,,,,,,,1,,48,100
31584,note_on,96,0,2,,,,,,,,,1,,51,0
31584,note_on,0,0,1,,,,,,,,,0,,70,100
31584,note_on,48,0,1,,,,,,,,,0,,72,0
31632,note_on,0,0,1,,,,,,,,,0,,69,100
31632,note_on,48,0,1,,,,,,,,,0,,70,0
31680,note_on,0,0,1,,,,,,,,,0,,67,0
31680,note_on,0,0,1,,,,,,,,,0,,70,100
31680,note_on,0,0,2,,,,,,,,,1,,50,100
31680,note_on,96,0,2,,,,,,,,,1,,48,0
31680,note_on,48,0,1,,,,,,,,,0,,69,0
31680,note_on,0,0,1,,,,,,,,,0,,67,100
31776,note_on,0,0,2,,,,,,,,,1,,38,100
31776,note_on,96,0,2,,,,,,,,,1,,50,0
31776,note_on,0,0,1,,,,,,,,,0,,66,100
31776,note_on,0,0,1,,,,,,,,,0,,69,100
31776,note_on,0,0,1,,,,,,,,,0,,67,0
31776,note_on,96,0,1,,,,,,,,,0,,70,0
31848,note_on,72,0,1,,,,,,,,,0,,69,0
31848,note_on,0,0,1,,,,,,,,,0,,67,100
31872,note_on,96,0,2,,,,,,,,,1,,38,0
31872,note_on,0,0,2,,,,,,,,,1,,43,100
31872,set_tempo,2688,1,0,,,,,,375000,,,,,,
31872,note_on,24,0,1,,,,,,,,,0,,67,0
31872,note_on,0,0,1,,,,,,,,,0,,66,0
31872,note_on,0,0,1,,,,,,,,,0,,62,100
31872,note_on,0,0,1,,,,,,,,,0,,58,100
31872,note_on,0,0,1,,,,,,,,,0,,67,100
31920,note_on,48,0,1,,,,,,,,,0,,58,0
31920,note_on,0,0,1,,,,,,,,,0,,62,0
31944,note_on,0,0,1,,,,,,,,,0,,74,100
31944,note_on,24,0,1,,,,,,,,,0,,67,0
31968,note_on,24,0,1,,,,,,,,,0,,74,0
31968,note_on,0,0,1,,,,,,,,,0,,74,100
31968,note_on,96,0,2,,,,,,,,,1,,43,0
32040,note_on,72,0,1,,,,,,,,,0,,74,0
32040,note_on,0,0,1,,,,,,,,,0,,74,100
32064,note_on,0,0,1,,,,,,,,,0,,67,100
32064,note_on,24,0,1,,,,,,,,,0,,74,0
32136,note_on,0,0,1,,,,,,,,,0,,75,100
32136,note_on,72,0,1,,,,,,,,,0,,67,0
32160,note_on,0,0,1,,,,,,,,,0,,75,100
32160,note_on,24,0,1,,,,,,,,,0,,75,0
32232,note_on,0,0,1,,,,,,,,,0,,75,100
32232,note_on,72,0,1,,,,,,,,,0,,75,0
32256,note_on,0,0,1,,,,,,,,,0,,74,100
32256,note_on,24,0,1,,,,,,,,,0,,75,0
32328,note_on,0,0,1,,,,,,,,,0,,79,100
32328,note_on,72,0,1,,,,,,,,,0,,74,0
32352,note_on,24,0,1,,,,,,,,,0,,79,0
32352,note_on,0,0,1,,,,,,,,,0,,79,100
32424,note_on,72,0,1,,,,,,,,,0,,79,0
32424,note_on,0,0,1,,,,,,,,,0,,79,100
32448,note_on,24,0,1,,,,,,,,,0,,79,0
32448,note_on,0,0,1,,,,,,,,,0,,79,100
32520,note_on,72,0,1,,,,,,,,,0,,79,0
32520,note_on,0,0,1,,,,,,,,,0,,78,100
32544,note_on,24,0,1,,,,,,,,,0,,78,0
32544,note_on,0,0,1,,,,,,,,,0,,79,100
32616,note_on,72,0,1,,,,,,,,,0,,79,0
32616,note_on,0,0,1,,,,,,,,,0,,81,100
32640,note_on,24,0,1,,,,,,,,,0,,81,0
32640,note_on,0,0,1,,,,,,,,,0,,82,100
32712,note_on,72,0,1,,,,,,,,,0,,82,0
32712,note_on,0,0,1,,,,,,,,,0,,70,100
32712,note_on,0,0,1,,,,,,,,,0,,67,100
32736,note_on,24,0,1,,,,,,,,,0,,67,0
32736,note_on,0,0,1,,,,,,,,,0,,70,0
32736,note_on,0,0,1,,,,,,,,,0,,70,100
32736,note_on,0,0,1,,,,,,,,,0,,67,100
32808,note_on,0,0,1,,,,,,,,,0,,67,100
32808,note_on,0,0,1,,,,,,,,,0,,70,0
32808,note_on,72,0,1,,,,,,,,,0,,67,0
32808,note_on,0,0,1,,,,,,,,,0,,72,100
32832,note_on,24,0,1,,,,,,,,,0,,67,0
32832,note_on,0,0,1,,,,,,,,,0,,72,0
32832,note_on,0,0,1,,,,,,,,,0,,74,100
32832,note_on,0,0,1,,,,,,,,,0,,62,100
32904,note_on,0,0,1,,,,,,,,,0,,70,100
32904,note_on,0,0,1,,,,,,,,,0,,74,0
32904,note_on,0,0,1,,,,,,,,,0,,73,100
32904,note_on,72,0,1,,,,,,,,,0,,62,0
32928,note_on,24,0,1,,,,,,,,,0,,70,0
32928,note_on,0,0,1,,,,,,,,,0,,73,0
32928,note_on,0,0,1,,,,,,,,,0,,74,100
32928,note_on,0,0,1,,,,,,,,,0,,70,100
33000,note_on,72,0,1,,,,,,,,,0,,70,0
33000,note_on,0,0,1,,,,,,,,,0,,74,0
33000,note_on,0,0,1,,,,,,,,,0,,76,100
33000,note_on,0,0,1,,,,,,,,,0,,70,100
33024,note_on,24,0,1,,,,,,,,,0,,70,0
33024,note_on,0,0,1,,,,,,,,,0,,76,0
33024,note_on,0,0,1,,,,,,,,,0,,73,100
33024,note_on,0,0,1,,,,,,,,,0,,69,100
33096,note_on,0,0,1,,,,,,,,,0,,74,100
33096,note_on,0,0,1,,,,,,,,,0,,77,100
33096,note_on,72,0,1,,,,,,,,,0,,69,0
33096,note_on,0,0,1,,,,,,,,,0,,73,0
33120,note_on,24,0,1,,,,,,,,,0,,74,0
33120,note_on,0,0,1,,,,,,,,,0,,77,0
33120,note_on,0,0,1,,,,,,,,,0,,77,100
33120,note_on,0,0,1,,,,,,,,,0,,74,100
33192,note_on,72,0,1,,,,,,,,,0,,74,0
33192,note_on,0,0,1,,,,,,,,,0,,77,0
33192,note_on,0,0,1,,,,,,,,,0,,77,100
33192,note_on,0,0,1,,,,,,,,,0,,74,100
33216,note_on,0,0,1,,,,,,,,,0,,74,100
33216,note_on,0,0,1,,,,,,,,,0,,77,0
33216,note_on,24,0,1,,,,,,,,,0,,74,0
33216,note_on,0,0,1,,,,,,,,,0,,77,100
33288,note_on,72,0,1,,,,,,,,,0,,74,0
33288,note_on,0,0,1,,,,,,,,,0,,77,0
33288,note_on,0,0,1,,,,,,,,,0,,76,100
33288,note_on,0,0,1,,,,,,,,,0,,73,100
33312,note_on,0,0,1,,,,,,,,,0,,74,100
33312,note_on,0,0,1,,,,,,,,,0,,76,0
33312,note_on,24,0,1,,,,,,,,,0,,73,0
33312,note_on,0,0,1,,,,,,,,,0,,78,100
33384,note_on,72,0,1,,,,,,,,,0,,74,0
33384,note_on,0,0,1,,,,,,,,,0,,78,0
33384,note_on,0,0,1,,,,,,,,,0,,79,100
33384,note_on,0,0,1,,,,,,,,,0,,76,100
33408,note_on,24,0,1,,,,,,,,,0,,76,0
33408,note_on,0,0,1,,,,,,,,,0,,79,0
33408,note_on,0,0,1,,,,,,,,,0,,78,100
33408,note_on,0,0,1,,,,,,,,,0,,74,100
33480,note_on,72,0,1,,,,,,,,,0,,74,0
33480,note_on,0,0,1,,,,,,,,,0,,78,0
33480,note_on,0,0,1,,,,,,,,,0,,74,100
33480,note_on,0,0,1,,,,,,,,,0,,70,100
33504,note_on,0,0,1,,,,,,,,,0,,79,100
33504,note_on,0,0,1,,,,,,,,,0,,72,100
33504,note_on,24,0,1,,,,,,,,,0,,70,0
33504,note_on,0,0,1,,,,,,,,,0,,74,0
33576,note_on,72,0,1,,,,,,,,,0,,79,0
33576,note_on,0,0,1,,,,,,,,,0,,72,0
33576,note_on,0,0,1,,,,,,,,,0,,79,100
33576,note_on,0,0,1,,,,,,,,,0,,70,100
33600,note_on,24,0,1,,,,,,,,,0,,70,0
33600,note_on,0,0,1,,,,,,,,,0,,79,0
33600,note_on,0,0,1,,,,,,,,,0,,69,100
33600,note_on,0,0,1,,,,,,,,,0,,79,100
33672,note_on,1704,0,2,,,,,,,,,1,,62,100
33672,note_on,0,0,1,,,,,,,,,0,,81,100
33672,note_on,72,0,1,,,,,,,,,0,,79,0
33696,note_on,0,0,1,,,,,,,,,0,,78,100
33696,note_on,0,0,1,,,,,,,,,0,,74,100
33696,note_on,24,0,1,,,,,,,,,0,,81,0
33696,note_on,24,0,2,,,,,,,,,1,,62,0
33696,note_on,0,0,1,,,,,,,,,0,,69,0
33696,note_on,0,0,2,,,,,,,,,1,,62,100
33768,note_on,0,0,2,,,,,,,,,1,,62,100
33768,note_on,72,0,2,,,,,,,,,1,,62,0
33768,note_on,72,0,1,,,,,,,,,0,,74,0
33768,note_on,0,0,1,,,,,,,,,0,,78,0
33768,note_on,0,0,1,,,,,,,,,0,,79,100
33768,note_on,0,0,1,,,,,,,,,0,,72,100
33792,note_on,0,0,1,,,,,,,,,0,,79,100
33792,note_on,0,0,1,,,,,,,,,0,,79,0
33792,note_on,24,0,2,,,,,,,,,1,,62,0
33792,note_on,24,0,1,,,,,,,,,0,,72,0
33792,note_on,0,0,2,,,,,,,,,1,,55,100
33792,note_on,0,0,1,,,,,,,,,0,,70,100
33864,note_on,72,0,2,,,,,,,,,1,,55,0
33864,note_on,0,0,2,,,,,,,,,1,,63,100
33864,note_on,0,0,1,,,,,,,,,0,,67,100
33864,note_on,0,0,1,,,,,,,,,0,,72,100
33864,note_on,0,0,1,,,,,,,,,0,,70,0
33864,note_on,72,0,1,,,,,,,,,0,,79,0
33888,note_on,0,0,1,,,,,,,,,0,,67,100
33888,note_on,0,0,2,,,,,,,,,1,,63,100
33888,note_on,24,0,2,,,,,,,,,1,,63,0
33888,note_on,0,0,1,,,,,,,,,0,,72,100
33888,note_on,0,0,1,,,,,,,,,0,,72,0
33888,note_on,24,0,1,,,,,,,,,0,,67,0
33960,note_on,0,0,1,,,,,,,,,0,,72,100
33960,note_on,0,0,2,,,,,,,,,1,,63,100
33960,note_on,72,0,2,,,,,,,,,1,,63,0
33960,note_on,0,0,1,,,,,,,,,0,,72,0
33960,note_on,72,0,1,,,,,,,,,0,,67,0
33960,note_on,0,0,1,,,,,,,,,0,,67,100
33984,note_on,0,0,2,,,,,,,,,1,,62,100
33984,note_on,24,0,2,,,,,,,,,1,,63,0
33984,note_on,0,0,1,,,,,,,,,0,,72,0
33984,note_on,0,0,1,,,,,,,,,0,,66,100
33984,note_on,0,0,1,,,,,,,,,0,,72,100
33984,note_on,24,0,1,,,,,,,,,0,,67,0
34056,note_on,0,0,1,,,,,,,,,0,,74,100
34056,note_on,72,0,1,,,,,,,,,0,,72,0
34056,note_on,72,0,2,,,,,,,,,1,,62,0
34056,note_on,0,0,2,,,,,,,,,1,,55,100
34080,note_on,0,0,1,,,,,,,,,0,,70,100
34080,note_on,0,0,1,,,,,,,,,0,,67,100
34080,note_on,0,0,1,,,,,,,,,0,,66,0
34080,note_on,24,0,1,,,,,,,,,0,,74,0
34080,note_on,0,0,2,,,,,,,,,1,,55,100
34080,note_on,24,0,2,,,,,,,,,1,,55,0
34152,note_on,72,0,1,,,,,,,,,0,,70,0
34152,note_on,72,0,2,,,,,,,,,1,,55,0
34152,note_on,0,0,1,,,,,,,,,0,,69,100
34152,note_on,0,0,2,,,,,,,,,1,,55,100
34176,note_on,24,0,2,,,,,,,,,1,,55,0
34176,note_on,0,0,2,,,,,,,,,1,,50,100
34176,note_on,0,0,1,,,,,,,,,0,,66,100
34176,note_on,24,0,1,,,,,,,,,0,,69,0
34176,note_on,0,0,1,,,,,,,,,0,,67,0
34176,note_on,0,0,1,,,,,,,,,0,,69,100
34248,note_on,72,0,1,,,,,,,,,0,,69,0
34248,note_on,0,0,1,,,,,,,,,0,,74,100
34248,note_on,0,0,2,,,,,,,,,1,,58,100
34248,note_on,72,0,2,,,,,,,,,1,,50,0
34272,note_on,0,0,1,,,,,,,,,0,,66,0
34272,note_on,24,0,2,,,,,,,,,1,,58,0
34272,note_on,0,0,2,,,,,,,,,1,,58,100
34272,note_on,0,0,1,,,,,,,,,0,,67,100
34272,note_on,0,0,1,,,,,,,,,0,,74,100
34272,note_on,24,0,1,,,,,,,,,0,,74,0
34344,note_on,72,0,2,,,,,,,,,1,,58,0
34344,note_on,72,0,1,,,,,,,,,0,,74,0
34344,note_on,0,0,2,,,,,,,,,1,,58,100
34344,note_on,0,0,1,,,,,,,,,0,,74,100
34368,note_on,0,0,2,,,,,,,,,1,,57,100
34368,note_on,24,0,2,,,,,,,,,1,,58,0
34368,note_on,0,0,1,,,,,,,,,0,,69,100
34368,note_on,0,0,1,,,,,,,,,0,,73,100
34368,note_on,0,0,1,,,,,,,,,0,,67,0
34368,note_on,24,0,1,,,,,,,,,0,,74,0
34440,note_on,0,0,2,,,,,,,,,1,,62,100
34440,note_on,72,0,2,,,,,,,,,1,,57,0
34440,note_on,0,0,1,,,,,,,,,0,,77,100
34440,note_on,0,0,1,,,,,,,,,0,,73,0
34440,note_on,0,0,1,,,,,,,,,0,,69,100
34440,note_on,72,0,1,,,,,,,,,0,,69,0
34464,note_on,0,0,2,,,,,,,,,1,,62,100
34464,note_on,24,0,2,,,,,,,,,1,,62,0
34464,note_on,24,0,1,,,,,,,,,0,,69,0
34464,note_on,0,0,1,,,,,,,,,0,,69,100
34464,note_on,0,0,1,,,,,,,,,0,,77,100
34464,note_on,0,0,1,,,,,,,,,0,,77,0
34536,note_on,0,0,2,,,,,,,,,1,,62,100
34536,note_on,72,0,2,,,,,,,,,1,,62,0
34536,note_on,72,0,1,,,,,,,,,0,,69,0
34536,note_on,0,0,1,,,,,,,,,0,,77,0
34536,note_on,0,0,1,,,,,,,,,0,,77,100
34536,note_on,0,0,1,,,,,,,,,0,,69,100
34560,note_on,24,0,1,,,,,,,,,0,,69,0
34560,note_on,0,0,1,,,,,,,,,0,,77,0
34560,note_on,0,0,1,,,,,,,,,0,,76,100
34560,note_on,0,0,1,,,,,,,,,0,,70,100
34560,note_on,0,0,1,,,,,,,,,0,,67,100
34560,note_on,0,0,2,,,,,,,,,1,,62,100
34560,note_on,24,0,2,,,,,,,,,1,,62,0
34632,note_on,0,0,2,,,,,,,,,1,,55,100
34632,note_on,72,0,2,,,,,,,,,1,,62,0
34632,note_on,0,0,1,,,,,,,,,0,,67,100
34632,note_on,0,0,1,,,,,,,,,0,,76,100
34632,note_on,0,0,1,,,,,,,,,0,,76,0
34632,note_on,0,0,1,,,,,,,,,0,,70,0
34632,note_on,72,0,1,,,,,,,,,0,,67,0
34632,note_on,0,0,1,,,,,,,,,0,,70,100
34656,note_on,24,0,2,,,,,,,,,1,,55,0
34656,note_on,0,0,1,,,,,,,,,0,,69,100
34656,note_on,0,0,1,,,,,,,,,0,,70,0
34656,note_on,0,0,1,,,,,,,,,0,,76,100
34656,note_on,0,0,2,,,,,,,,,1,,60,100
34656,note_on,0,0,1,,,,,,,,,0,,76,0
34656,note_on,24,0,1,,,,,,,,,0,,67,0
34728,note_on,72,0,2,,,,,,,,,1,,60,0
34728,note_on,72,0,1,,,,,,,,,0,,69,0
34728,note_on,0,0,1,,,,,,,,,0,,76,0
34728,note_on,0,0,1,,,,,,,,,0,,69,100
34728,note_on,0,0,1,,,,,,,,,0,,81,100
34728,note_on,0,0,2,,,,,,,,,1,,60,100
34752,note_on,24,0,2,,,,,,,,,1,,60,0
34752,note_on,0,0,2,,,,,,,,,1,,60,100
34752,note_on,24,0,1,,,,,,,,,0,,81,0
34752,note_on,0,0,1,,,,,,,,,0,,69,0
34752,note_on,0,0,1,,,,,,,,,0,,66,100
34752,note_on,0,0,1,,,,,,,,,0,,69,100
34752,note_on,0,0,1,,,,,,,,,0,,74,100
34824,note_on,72,0,1,,,,,,,,,0,,74,0
34824,note_on,0,0,1,,,,,,,,,0,,69,0
34824,note_on,0,0,1,,,,,,,,,0,,66,100
34824,note_on,0,0,1,,,,,,,,,0,,69,100
34824,note_on,0,0,2,,,,,,,,,1,,60,100
34824,note_on,72,0,2,,,,,,,,,1,,60,0
34824,note_on,0,0,1,,,,,,,,,0,,66,0
34824,note_on,0,0,1,,,,,,,,,0,,74,100
34848,note_on,0,0,1,,,,,,,,,0,,74,100
34848,note_on,24,0,1,,,,,,,,,0,,74,0
34848,note_on,0,0,1,,,,,,,,,0,,69,0
34848,note_on,0,0,1,,,,,,,,,0,,66,0
34848,note_on,0,0,1,,,,,,,,,0,,67,100
34848,note_on,0,0,1,,,,,,,,,0,,70,100
34848,note_on,0,0,2,,,,,,,,,1,,58,100
34848,note_on,24,0,2,,,,,,,,,1,,60,0
34920,note_on,0,0,1,,,,,,,,,0,,70,0
34920,note_on,0,0,2,,,,,,,,,1,,58,100
34920,note_on,0,0,1,,,,,,,,,0,,74,100
34920,note_on,0,0,1,,,,,,,,,0,,70,100
34920,note_on,0,0,1,,,,,,,,,0,,67,100
34920,note_on,0,0,1,,,,,,,,,0,,67,0
34920,note_on,72,0,1,,,,,,,,,0,,74,0
34920,note_on,72,0,2,,,,,,,,,1,,58,0
34944,note_on,24,0,2,,,,,,,,,1,,58,0
34944,note_on,0,0,2,,,,,,,,,1,,57,100
34944,note_on,0,0,1,,,,,,,,,0,,67,100
34944,note_on,0,0,1,,,,,,,,,0,,72,100
34944,note_on,0,0,1,,,,,,,,,0,,67,0
34944,note_on,0,0,1,,,,,,,,,0,,70,0
34944,note_on,24,0,1,,,,,,,,,0,,74,0
35016,note_on,72,0,2,,,,,,,,,1,,57,0
35016,note_on,0,0,2,,,,,,,,,1,,57,100
35016,note_on,72,0,1,,,,,,,,,0,,67,0
35016,note_on,0,0,1,,,,,,,,,0,,72,0
35016,note_on,0,0,1,,,,,,,,,0,,72,100
35016,note_on,0,0,1,,,,,,,,,0,,67,100
35040,note_on,0,0,1,,,,,,,,,0,,72,100
35040,note_on,0,0,2,,,,,,,,,1,,50,100
35040,note_on,24,0,2,,,,,,,,,1,,57,0
35040,note_on,24,0,1,,,,,,,,,0,,67,0
35040,note_on,0,0,1,,,,,,,,,0,,72,0
35040,note_on,0,0,1,,,,,,,,,0,,66,100
35112,note_on,0,0,2,,,,,,,,,1,,50,100
35112,note_on,72,0,2,,,,,,,,,1,,50,0
35112,note_on,0,0,1,,,,,,,,,0,,66,0
35112,note_on,0,0,1,,,,,,,,,0,,66,100
35112,note_on,72,0,1,,,,,,,,,0,,72,0
35112,note_on,0,0,1,,,,,,,,,0,,72,100
35136,note_on,24,0,1,,,,,,,,,0,,72,0
35136,note_on,0,0,1,,,,,,,,,0,,66,0
35136,note_on,0,0,1,,,,,,,,,0,,67,100
35136,note_on,0,0,1,,,,,,,,,0,,70,100
35136,note_on,0,0,2,,,,,,,,,1,,55,100
35136,note_on,24,0,2,,,,,,,,,1,,50,0
35208,note_on,0,0,2,,,,,,,,,1,,55,100
35208,note_on,72,0,2,,,,,,,,,1,,55,0
35208,note_on,0,0,1,,,,,,,,,0,,70,100
35208,note_on,0,0,1,,,,,,,,,0,,67,100
35208,note_on,0,0,1,,,,,,,,,0,,67,0
35208,note_on,72,0,1,,,,,,,,,0,,70,0
35232,note_on,0,0,1,,,,,,,,,0,,67,0
35232,note_on,0,0,1,,,,,,,,,0,,67,100
35232,note_on,24,0,2,,,,,,,,,1,,55,0
35232,note_on,24,0,1,,,,,,,,,0,,70,0
35232,note_on,0,0,2,,,,,,,,,1,,48,100
35232,note_on,0,0,1,,,,,,,,,0,,75,100
35304,note_on,0,0,1,,,,,,,,,0,,67,0
35304,note_on,0,0,2,,,,,,,,,1,,48,100
35304,note_on,72,0,2,,,,,,,,,1,,48,0
35304,note_on,72,0,1,,,,,,,,,0,,75,0
35304,note_on,0,0,1,,,,,,,,,0,,75,100
35304,note_on,0,0,1,,,,,,,,,0,,67,100
35328,note_on,0,0,1,,,,,,,,,0,,67,0
35328,note_on,0,0,1,,,,,,,,,0,,65,100
35328,note_on,0,0,1,,,,,,,,,0,,69,100
35328,note_on,24,0,1,,,,,,,,,0,,75,0
35328,note_on,24,0,2,,,,,,,,,1,,48,0
35328,note_on,0,0,2,,,,,,,,,1,,53,100
35400,note_on,72,0,1,,,,,,,,,0,,69,0
35400,note_on,0,0,1,,,,,,,,,0,,65,0
35400,note_on,0,0,1,,,,,,,,,0,,65,100
35400,note_on,0,0,1,,,,,,,,,0,,69,100
35400,note_on,0,0,2,,,,,,,,,1,,53,100
35400,note_on,72,0,2,,,,,,,,,1,,53,0
35424,note_on,24,0,2,,,,,,,,,1,,53,0
35424,note_on,0,0,1,,,,,,,,,0,,65,100
35424,note_on,0,0,2,,,,,,,,,1,,46,100
35424,note_on,0,0,1,,,,,,,,,0,,65,0
35424,note_on,24,0,1,,,,,,,,,0,,69,0
35424,note_on,0,0,1,,,,,,,,,0,,74,100
35496,note_on,72,0,1,,,,,,,,,0,,74,0
35496,note_on,0,0,1,,,,,,,,,0,,65,0
35496,note_on,0,0,1,,,,,,,,,0,,65,100
35496,note_on,0,0,1,,,,,,,,,0,,74,100
35496,note_on,0,0,2,,,,,,,,,1,,46,100
35496,note_on,72,0,2,,,,,,,,,1,,46,0
35520,note_on,24,0,2,,,,,,,,,1,,46,0
35520,note_on,24,0,1,,,,,,,,,0,,74,0
35520,note_on,0,0,1,,,,,,,,,0,,65,0
35520,note_on,0,0,2,,,,,,,,,1,,51,100
35520,note_on,0,0,1,,,,,,,,,0,,67,100
35520,note_on,0,0,1,,,,,,,,,0,,63,100
35592,note_on,72,0,2,,,,,,,,,1,,51,0
35592,note_on,0,0,1,,,,,,,,,0,,67,100
35592,note_on,0,0,1,,,,,,,,,0,,63,0
35592,note_on,72,0,1,,,,,,,,,0,,67,0
35592,note_on,0,0,1,,,,,,,,,0,,63,100
35592,note_on,0,0,2,,,,,,,,,1,,51,100
35616,note_on,0,0,2,,,,,,,,,1,,50,100
35616,note_on,24,0,2,,,,,,,,,1,,51,0
35616,note_on,24,0,1,,,,,,,,,0,,67,0
35616,note_on,0,0,1,,,,,,,,,0,,63,0
35616,note_on,0,0,1,,,,,,,,,0,,65,100
35616,note_on,0,0,1,,,,,,,,,0,,72,100
35688,note_on,72,0,2,,,,,,,,,1,,50,0
35688,note_on,0,0,2,,,,,,,,,1,,48,100
35688,note_on,72,0,1,,,,,,,,,0,,72,0
35688,note_on,0,0,1,,,,,,,,,0,,65,0
35688,note_on,0,0,1,,,,,,,,,0,,72,100
35688,note_on,0,0,1,,,,,,,,,0,,63,100
35712,note_on,24,0,2,,,,,,,,,1,,48,0
35712,note_on,0,0,2,,,,,,,,,1,,50,100
35712,note_on,24,0,1,,,,,,,,,0,,63,0
35712,note_on,0,0,1,,,,,,,,,0,,72,100
35712,note_on,0,0,1,,,,,,,,,0,,65,100
35712,note_on,0,0,1,,,,,,,,,0,,72,0
35784,note_on,0,0,2,,,,,,,,,1,,50,100
35784,note_on,72,0,2,,,,,,,,,1,,50,0
35784,note_on,0,0,1,,,,,,,,,0,,65,100
35784,note_on,0,0,1,,,,,,,,,0,,65,0
35784,note_on,0,0,1,,,,,,,,,0,,72,100
35784,note_on,72,0,1,,,,,,,,,0,,72,0
35808,note_on,24,0,2,,,,,,,,,1,,50,0
35808,note_on,0,0,2,,,,,,,,,1,,50,100
35808,note_on,0,0,1,,,,,,,,,0,,70,100
35808,note_on,0,0,1,,,,,,,,,0,,65,100
35808,note_on,0,0,1,,,,,,,,,0,,65,0
35808,note_on,24,0,1,,,,,,,,,0,,72,0
35880,note_on,0,0,1,,,,,,,,,0,,65,0
35880,note_on,72,0,1,,,,,,,,,0,,70,0
35880,note_on,0,0,1,,,,,,,,,0,,67,100
35880,note_on,0,0,1,,,,,,,,,0,,70,100
35880,note_on,72,0,2,,,,,,,,,1,,50,0
35880,note_on,0,0,2,,,,,,,,,1,,50,100
35904,note_on,0,0,1,,,,,,,,,0,,60,100
35904,note_on,24,0,2,,,,,,,,,1,,50,0
35904,note_on,0,0,2,,,,,,,,,1,,53,100
35904,note_on,0,0,1,,,,,,,,,0,,67,0
35904,note_on,0,0,1,,,,,,,,,0,,70,100
35904,note_on,24,0,1,,,,,,,,,0,,70,0
35976,note_on,72,0,1,,,,,,,,,0,,70,0
35976,note_on,0,0,1,,,,,,,,,0,,60,0
35976,note_on,0,0,2,,,,,,,,,1,,53,100
35976,note_on,72,0,2,,,,,,,,,1,,53,0
35976,note_on,0,0,1,,,,,,,,,0,,70,100
35976,note_on,0,0,1,,,,,,,,,0,,60,100
36000,note_on,0,0,1,,,,,,,,,0,,62,100
36000,note_on,0,0,2,,,,,,,,,1,,41,100
36000,note_on,24,0,2,,,,,,,,,1,,53,0
36000,note_on,24,0,1,,,,,,,,,0,,70,0
36000,note_on,0,0,1,,,,,,,,,0,,60,0
36000,note_on,0,0,1,,,,,,,,,0,,69,100
36072,note_on,0,0,1,,,,,,,,,0,,69,100
36072,note_on,0,0,1,,,,,,,,,0,,63,100
36072,note_on,0,0,1,,,,,,,,,0,,62,0
36072,note_on,72,0,1,,,,,,,,,0,,69,0
36072,note_on,0,0,2,,,,,,,,,1,,41,100
36072,note_on,72,0,2,,,,,,,,,1,,41,0
36096,note_on,0,0,2,,,,,,,,,1,,46,100
36096,note_on,24,0,2,,,,,,,,,1,,41,0
36096,note_on,24,0,1,,,,,,,,,0,,69,0
36096,note_on,0,0,1,,,,,,,,,0,,63,0
36096,note_on,0,0,1,,,,,,,,,0,,62,100
36096,note_on,0,0,1,,,,,,,,,0,,65,100
36096,note_on,0,0,1,,,,,,,,,0,,70,100
36168,note_on,0,0,2,,,,,,,,,1,,62,100
36168,note_on,0,0,2,,,,,,,,,1,,58,100
36168,note_on,72,0,2,,,,,,,,,1,,46,0
36192,note_on,96,0,1,,,,,,,,,0,,70,0
36192,note_on,0,0,1,,,,,,,,,0,,62,0
36192,note_on,0,0,1,,,,,,,,,0,,65,0
36192,note_on,0,0,2,,,,,,,,,1,,58,0
36192,note_on,0,0,2,,,,,,,,,1,,58,100
36192,note_on,0,0,2,,,,,,,,,1,,62,100
36192,note_on,24,0,2,,,,,,,,,1,,62,0
36264,note_on,0,0,2,,,,,,,,,1,,58,0
36264,note_on,0,0,2,,,,,,,,,1,,62,100
36264,note_on,72,0,2,,,,,,,,,1,,62,0
36264,note_on,0,0,2,,,,,,,,,1,,58,100
36288,note_on,0,0,2,,,,,,,,,1,,58,0
36288,note_on,0,0,2,,,,,,,,,1,,57,100
36288,note_on,0,0,2,,,,,,,,,1,,60,100
36288,note_on,24,0,2,,,,,,,,,1,,62,0
36360,note_on,168,0,1,,,,,,,,,0,,77,100
36384,note_on,24,0,1,,,,,,,,,0,,77,0
36384,note_on,96,0,2,,,,,,,,,1,,60,0
36384,note_on,0,0,2,,,,,,,,,1,,57,0
36384,note_on,0,0,1,,,,,,,,,0,,77,100
36456,note_on,72,0,1,,,,,,,,,0,,77,0
36456,note_on,0,0,1,,,,,,,,,0,,77,100
36480,note_on,24,0,1,,,,,,,,,0,,77,0
36480,note_on,0,0,1,,,,,,,,,0,,74,100
36480,note_on,0,0,1,,,,,,,,,0,,70,100
36480,note_on,0,0,1,,,,,,,,,0,,65,100
36552,note_on,0,0,2,,,,,,,,,1,,62,100
36552,note_on,168,0,2,,,,,,,,,1,,58,100
36576,note_on,0,0,2,,,,,,,,,1,,58,0
36576,note_on,96,0,1,,,,,,,,,0,,65,0
36576,note_on,0,0,1,,,,,,,,,0,,70,0
36576,note_on,0,0,2,,,,,,,,,1,,62,100
36576,note_on,0,0,2,,,,,,,,,1,,58,100
36576,note_on,0,0,1,,,,,,,,,0,,74,0
36576,note_on,24,0,2,,,,,,,,,1,,62,0
36648,note_on,0,0,2,,,,,,,,,1,,62,100
36648,note_on,0,0,2,,,,,,,,,1,,58,100
36648,note_on,72,0,2,,,,,,,,,1,,62,0
36648,note_on,0,0,2,,,,,,,,,1,,58,0
36672,note_on,0,0,2,,,,,,,,,1,,58,0
36672,note_on,24,0,2,,,,,,,,,1,,62,0
36672,note_on,0,0,2,,,,,,,,,1,,57,100
36672,note_on,0,0,2,,,,,,,,,1,,60,100
36744,note_on,168,0,1,,,,,,,,,0,,77,100
36744,note_on,0,0,1,,,,,,,,,0,,69,100
36744,note_on,0,0,1,,,,,,,,,0,,72,100
36768,note_on,96,0,2,,,,,,,,,1,,60,0
36768,note_on,0,0,2,,,,,,,,,1,,57,0
36768,note_on,0,0,1,,,,,,,,,0,,72,100
36768,note_on,24,0,1,,,,,,,,,0,,69,0
36768,note_on,0,0,1,,,,,,,,,0,,69,100
36768,note_on,0,0,1,,,,,,,,,0,,77,0
36768,note_on,0,0,1,,,,,,,,,0,,77,100
36768,note_on,0,0,1,,,,,,,,,0,,72,0
36840,note_on,72,0,1,,,,,,,,,0,,69,0
36840,note_on,0,0,1,,,,,,,,,0,,77,0
36840,note_on,0,0,1,,,,,,,,,0,,77,100
36840,note_on,0,0,1,,,,,,,,,0,,72,100
36840,note_on,0,0,1,,,,,,,,,0,,72,0
36840,note_on,0,0,1,,,,,,,,,0,,69,100
36864,note_on,24,0,1,,,,,,,,,0,,69,0
36864,note_on,0,0,1,,,,,,,,,0,,72,0
36864,note_on,0,0,1,,,,,,,,,0,,65,100
36864,note_on,0,0,1,,,,,,,,,0,,77,0
36864,note_on,0,0,1,,,,,,,,,0,,70,100
36864,note_on,0,0,1,,,,,,,,,0,,74,100
36936,note_on,168,0,2,,,,,,,,,1,,58,100
36936,note_on,0,0,2,,,,,,,,,1,,62,100
36960,note_on,24,0,2,,,,,,,,,1,,62,0
36960,note_on,0,0,2,,,,,,,,,1,,58,0
36960,note_on,0,0,2,,,,,,,,,1,,58,100
36960,note_on,0,0,2,,,,,,,,,1,,62,100
36960,note_on,96,0,1,,,,,,,,,0,,65,0
36960,note_on,0,0,1,,,,,,,,,0,,70,0
36960,note_on,0,0,1,,,,,,,,,0,,74,0
37032,note_on,0,0,2,,,,,,,,,1,,62,100
37032,note_on,72,0,2,,,,,,,,,1,,62,0
37032,note_on,0,0,2,,,,,,,,,1,,58,100
37032,note_on,0,0,2,,,,,,,,,1,,58,0
37056,note_on,24,0,2,,,,,,,,,1,,62,0
37056,note_on,0,0,2,,,,,,,,,1,,58,0
37056,note_on,0,0,2,,,,,,,,,1,,57,100
37056,note_on,0,0,2,,,,,,,,,1,,53,100
37128,note_on,0,0,1,,,,,,,,,0,,69,100
37128,note_on,0,0,1,,,,,,,,,0,,72,100
37128,note_on,168,0,1,,,,,,,,,0,,77,100
37128,note_on,72,0,2,,,,,,,,,1,,53,0
37128,note_on,0,0,2,,,,,,,,,1,,57,0
37128,note_on,0,0,2,,,,,,,,,1,,57,100
37128,note_on,0,0,2,,,,,,,,,1,,60,100
37152,note_on,24,0,2,,,,,,,,,1,,60,0
37152,note_on,0,0,1,,,,,,,,,0,,77,0
37152,note_on,0,0,1,,,,,,,,,0,,72,0
37152,note_on,24,0,1,,,,,,,,,0,,69,0
37152,note_on,0,0,1,,,,,,,,,0,,69,100
37152,note_on,0,0,1,,,,,,,,,0,,77,100
37152,note_on,0,0,2,,,,,,,,,1,,57,0
37152,note_on,0,0,2,,,,,,,,,1,,57,100
37152,note_on,0,0,1,,,,,,,,,0,,72,100
37152,note_on,0,0,2,,,,,,,,,1,,60,100
37224,note_on,72,0,2,,,,,,,,,1,,60,0
37224,note_on,0,0,2,,,,,,,,,1,,57,0
37224,note_on,0,0,2,,,,,,,,,1,,57,100
37224,note_on,0,0,2,,,,,,,,,1,,60,100
37224,note_on,0,0,1,,,,,,,,,0,,69,100
37224,note_on,0,0,1,,,,,,,,,0,,72,100
37224,note_on,0,0,1,,,,,,,,,0,,77,100
37224,note_on,72,0,1,,,,,,,,,0,,69,0
37224,note_on,0,0,1,,,,,,,,,0,,77,0
37224,note_on,0,0,1,,,,,,,,,0,,72,0
37248,note_on,0,0,2,,,,,,,,,1,,62,100
37248,note_on,0,0,1,,,,,,,,,0,,74,100
37248,note_on,0,0,1,,,,,,,,,0,,65,100
37248,note_on,0,0,2,,,,,,,,,1,,58,100
37248,note_on,24,0,1,,,,,,,,,0,,69,0
37248,note_on,0,0,2,,,,,,,,,1,,57,0
37248,note_on,24,0,2,,,,,,,,,1,,60,0
37248,note_on,0,0,1,,,,,,,,,0,,77,0
37248,note_on,0,0,1,,,,,,,,,0,,72,0
37320,note_on,0,0,1,,,,,,,,,0,,74,100
37320,note_on,0,0,1,,,,,,,,,0,,65,0
37320,note_on,72,0,2,,,,,,,,,1,,62,0
37320,note_on,0,0,2,,,,,,,,,1,,58,0
37320,note_on,0,0,2,,,,,,,,,1,,58,100
37320,note_on,0,0,2,,,,,,,,,1,,62,100
37320,note_on,0,0,1,,,,,,,,,0,,65,100
37320,note_on,72,0,1,,,,,,,,,0,,74,0
37344,note_on,0,0,2,,,,,,,,,1,,58,0
37344,note_on,0,0,1,,,,,,,,,0,,79,100
37344,note_on,0,0,2,,,,,,,,,1,,57,100
37344,note_on,0,0,1,,,,,,,,,0,,70,100
37344,note_on,0,0,1,,,,,,,,,0,,65,0
37344,note_on,0,0,2,,,,,,,,,1,,60,100
37344,note_on,24,0,2,,,,,,,,,1,,62,0
37344,note_on,24,0,1,,,,,,,,,0,,74,0
37416,note_on,72,0,1,,,,,,,,,0,,79,0
37416,note_on,0,0,1,,,,,,,,,0,,70,0
37416,note_on,0,0,2,,,,,,,,,1,,57,0
37416,note_on,0,0,2,,,,,,,,,1,,55,100
37416,note_on,0,0,2,,,,,,,,,1,,58,100
37416,note_on,72,0,2,,,,,,,,,1,,60,0
37416,note_on,0,0,1,,,,,,,,,0,,70,100
37416,note_on,0,0,1,,,,,,,,,0,,79,100
37440,note_on,24,0,1,,,,,,,,,0,,79,0
37440,note_on,0,0,1,,,,,,,,,0,,72,100
37440,note_on,0,0,2,,,,,,,,,1,,60,100
37440,note_on,0,0,2,,,,,,,,,1,,57,100
37440,note_on,0,0,1,,,,,,,,,0,,70,0
37440,note_on,0,0,2,,,,,,,,,1,,55,0
37440,note_on,24,0,2,,,,,,,,,1,,58,0
37440,note_on,0,0,1,,,,,,,,,0,,65,100
37512,note_on,72,0,2,,,,,,,,,1,,60,0
37512,note_on,0,0,2,,,,,,,,,1,,57,0
37512,note_on,0,0,2,,,,,,,,,1,,60,100
37512,note_on,0,0,1,,,,,,,,,0,,72,100
37512,note_on,0,0,1,,,,,,,,,0,,65,100
37512,note_on,0,0,1,,,,,,,,,0,,65,0
37512,note_on,72,0,1,,,,,,,,,0,,72,0
37512,note_on,0,0,2,,,,,,,,,1,,57,100
37536,note_on,0,0,1,,,,,,,,,0,,77,100
37536,note_on,0,0,1,,,,,,,,,0,,69,100
37536,note_on,0,0,1,,,,,,,,,0,,65,0
37536,note_on,24,0,1,,,,,,,,,0,,72,0
37536,note_on,0,0,2,,,,,,,,,1,,58,100
37536,note_on,0,0,2,,,,,,,,,1,,55,100
37536,note_on,0,0,2,,,,,,,,,1,,57,0
37536,note_on,24,0,2,,,,,,,,,1,,60,0
37608,note_on,0,0,1,,,,,,,,,0,,77,100
37608,note_on,0,0,1,,,,,,,,,0,,69,100
37608,note_on,0,0,2,,,,,,,,,1,,57,100
37608,note_on,0,0,1,,,,,,,,,0,,69,0
37608,note_on,72,0,1,,,,,,,,,0,,77,0
37608,note_on,0,0,2,,,,,,,,,1,,55,0
37608,note_on,72,0,2,,,,,,,,,1,,58,0
37608,note_on,0,0,2,,,,,,,,,1,,53,100
37632,note_on,24,0,1,,,,,,,,,0,,77,0
37632,note_on,0,0,2,,,,,,,,,1,,58,100
37632,note_on,0,0,1,,,,,,,,,0,,69,0
37632,note_on,0,0,2,,,,,,,,,1,,55,100
37632,note_on,0,0,2,,,,,,,,,1,,53,0
37632,note_on,24,0,2,,,,,,,,,1,,57,0
37632,note_on,0,0,1,,,,,,,,,0,,70,100
37632,note_on,0,0,1,,,,,,,,,0,,67,100
37704,note_on,72,0,1,,,,,,,,,0,,70,0
37704,note_on,0,0,1,,,,,,,,,0,,67,0
37704,note_on,0,0,1,,,,,,,,,0,,67,100
37704,note_on,0,0,2,,,,,,,,,1,,55,100
37704,note_on,0,0,1,,,,,,,,,0,,70,100
37704,note_on,0,0,2,,,,,,,,,1,,55,0
37704,note_on,72,0,2,,,,,,,,,1,,58,0
37704,note_on,0,0,2,,,,,,,,,1,,58,100
37728,note_on,24,0,1,,,,,,,,,0,,70,0
37728,note_on,0,0,1,,,,,,,,,0,,67,100
37728,note_on,0,0,1,,,,,,,,,0,,75,100
37728,note_on,24,0,2,,,,,,,,,1,,58,0
37728,note_on,0,0,2,,,,,,,,,1,,55,0
37728,note_on,0,0,2,,,,,,,,,1,,53,100
37728,note_on,0,0,2,,,,,,,,,1,,57,100
37728,note_on,0,0,1,,,,,,,,,0,,67,0
37800,note_on,72,0,1,,,,,,,,,0,,75,0
37800,note_on,0,0,1,,,,,,,,,0,,67,0
37800,note_on,0,0,1,,,,,,,,,0,,67,100
37800,note_on,0,0,1,,,,,,,,,0,,75,100
37800,note_on,72,0,2,,,,,,,,,1,,57,0
37800,note_on,0,0,2,,,,,,,,,1,,53,0
37800,note_on,0,0,2,,,,,,,,,1,,51,100
37800,note_on,0,0,2,,,,,,,,,1,,55,100
37824,note_on,0,0,2,,,,,,,,,1,,51,0
37824,note_on,0,0,2,,,,,,,,,1,,57,100
37824,note_on,0,0,2,,,,,,,,,1,,53,100
37824,note_on,0,0,1,,,,,,,,,0,,69,100
37824,note_on,0,0,1,,,,,,,,,0,,65,100
37824,note_on,0,0,1,,,,,,,,,0,,67,0
37824,note_on,24,0,1,,,,,,,,,0,,75,0
37824,note_on,24,0,2,,,,,,,,,1,,55,0
37896,note_on,72,0,1,,,,,,,,,0,,69,0
37896,note_on,0,0,1,,,,,,,,,0,,65,0
37896,note_on,0,0,1,,,,,,,,,0,,72,100
37896,note_on,0,0,1,,,,,,,,,0,,69,100
37920,note_on,0,0,2,,,,,,,,,1,,41,100
37920,note_on,24,0,1,,,,,,,,,0,,72,0
37920,note_on,0,0,1,,,,,,,,,0,,69,0
37920,note_on,0,0,1,,,,,,,,,0,,69,100
37920,note_on,0,0,1,,,,,,,,,0,,72,100
37920,note_on,96,0,2,,,,,,,,,1,,57,0
37920,note_on,0,0,2,,,,,,,,,1,,53,0
37920,note_on,0,0,2,,,,,,,,,1,,53,100
37992,note_on,72,0,1,,,,,,,,,0,,72,0
37992,note_on,0,0,1,,,,,,,,,0,,69,0
37992,note_on,0,0,1,,,,,,,,,0,,69,100
37992,note_on,0,0,1,,,,,,,,,0,,72,100
38016,note_on,0,0,2,,,,,,,,,1,,41,100
38016,note_on,0,0,2,,,,,,,,,1,,53,100
38016,note_on,24,0,1,,,,,,,,,0,,72,0
38016,note_on,0,0,1,,,,,,,,,0,,70,100
38016,note_on,0,0,1,,,,,,,,,0,,73,100
38016,note_on,0,0,1,,,,,,,,,0,,69,0
38016,note_on,0,0,2,,,,,,,,,1,,53,0
38016,note_on,96,0,2,,,,,,,,,1,,41,0
38088,note_on,0,0,1,,,,,,,,,0,,70,100
38088,note_on,72,0,1,,,,,,,,,0,,70,0
38088,note_on,0,0,1,,,,,,,,,0,,73,0
38088,note_on,0,0,1,,,,,,,,,0,,73,100
38112,note_on,0,0,1,,,,,,,,,0,,69,100
38112,note_on,0,0,1,,,,,,,,,0,,73,0
38112,note_on,24,0,1,,,,,,,,,0,,70,0
38112,note_on,0,0,1,,,,,,,,,0,,72,100
38184,note_on,0,0,1,,,,,,,,,0,,69,0
38184,note_on,0,0,1,,,,,,,,,0,,67,100
38184,note_on,0,0,1,,,,,,,,,0,,70,100
38184,note_on,72,0,1,,,,,,,,,0,,72,0
38208,note_on,24,0,1,,,,,,,,,0,,70,0
38208,note_on,0,0,1,,,,,,,,,0,,67,0
38208,note_on,0,0,1,,,,,,,,,0,,72,100
38208,note_on,0,0,1,,,,,,,,,0,,75,100
38280,note_on,0,0,1,,,,,,,,,0,,75,100
38280,note_on,0,0,1,,,,,,,,,0,,72,0
38280,note_on,72,0,1,,,,,,,,,0,,75,0
38280,note_on,0,0,1,,,,,,,,,0,,72,100
38304,note_on,0,0,1,,,,,,,,,0,,70,100
38304,note_on,0,0,1,,,,,,,,,0,,73,100
38304,note_on,0,0,1,,,,,,,,,0,,72,0
38304,note_on,24,0,1,,,,,,,,,0,,75,0
38376,note_on,0,0,1,,,,,,,,,0,,72,100
38376,note_on,72,0,1,,,,,,,,,0,,70,0
38376,note_on,0,0,1,,,,,,,,,0,,73,0
38376,note_on,0,0,1,,,,,,,,,0,,69,100
38400,note_on,0,0,1,,,,,,,,,0,,70,100
38400,note_on,0,0,1,,,,,,,,,0,,73,100
38400,note_on,0,0,1,,,,,,,,,0,,69,0
38400,note_on,24,0,1,,,,,,,,,0,,72,0
38472,note_on,0,0,1,,,,,,,,,0,,70,100
38472,note_on,0,0,1,,,,,,,,,0,,73,100
38472,note_on,0,0,1,,,,,,,,,0,,73,0
38472,note_on,72,0,1,,,,,,,,,0,,70,0
38496,note_on,0,0,1,,,,,,,,,0,,69,100
38496,note_on,24,0,1,,,,,,,,,0,,70,0
38496,note_on,0,0,1,,,,,,,,,0,,73,0
38496,note_on,0,0,1,,,,,,,,,0,,72,100
38568,note_on,0,0,1,,,,,,,,,0,,70,100
38568,note_on,0,0,1,,,,,,,,,0,,67,100
38568,note_on,0,0,1,,,,,,,,,0,,69,0
38568,note_on,72,0,1,,,,,,,,,0,,72,0
38592,note_on,24,0,1,,,,,,,,,0,,67,0
38592,note_on,0,0,1,,,,,,,,,0,,70,0
38592,note_on,0,0,1,,,,,,,,,0,,69,100
38592,note_on,0,0,1,,,,,,,,,0,,72,100
38592,note_on,0,0,2,,,,,,,,,1,,53,0
38592,note_on,576,0,2,,,,,,,,,1,,41,0
38664,note_on,0,0,1,,,,,,,,,0,,69,100
38664,note_on,0,0,1,,,,,,,,,0,,77,100
38664,note_on,0,0,1,,,,,,,,,0,,69,0
38664,note_on,72,0,1,,,,,,,,,0,,72,0
38664,note_on,0,0,2,,,,,,,,,1,,41,100
38664,note_on,72,0,2,,,,,,,,,1,,53,100
38688,note_on,0,0,2,,,,,,,,,1,,53,100
38688,note_on,0,0,2,,,,,,,,,1,,41,100
38688,note_on,24,0,2,,,,,,,,,1,,41,0
38688,note_on,0,0,1,,,,,,,,,0,,77,100
38688,note_on,0,0,1,,,,,,,,,0,,69,100
38688,note_on,0,0,1,,,,,,,,,0,,69,0
38688,note_on,24,0,1,,,,,,,,,0,,77,0
38688,note_on,0,0,2,,,,,,,,,1,,53,0
38760,note_on,0,0,1,,,,,,,,,0,,69,100
38760,note_on,72,0,1,,,,,,,,,0,,77,0
38760,note_on,0,0,1,,,,,,,,,0,,69,0
38760,note_on,0,0,1,,,,,,,,,0,,77,100
38760,note_on,0,0,2,,,,,,,,,1,,53,0
38760,note_on,72,0,2,,,,,,,,,1,,41,0
38760,note_on,0,0,2,,,,,,,,,1,,53,100
38760,note_on,0,0,2,,,,,,,,,1,,41,100
38784,note_on,0,0,1,,,,,,,,,0,,69,0
38784,note_on,0,0,1,,,,,,,,,0,,70,100
38784,note_on,0,0,1,,,,,,,,,0,,77,100
38784,note_on,24,0,2,,,,,,,,,1,,41,0
38784,note_on,0,0,2,,,,,,,,,1,,53,0
38784,note_on,0,0,2,,,,,,,,,1,,55,100
38784,note_on,0,0,2,,,,,,,,,1,,43,100
38784,note_on,24,0,1,,,,,,,,,0,,77,0
38856,note_on,0,0,2,,,,,,,,,1,,55,0
38856,note_on,0,0,2,,,,,,,,,1,,55,100
38856,note_on,0,0,2,,,,,,,,,1,,43,100
38856,note_on,72,0,1,,,,,,,,,0,,77,0
38856,note_on,0,0,1,,,,,,,,,0,,70,0
38856,note_on,0,0,1,,,,,,,,,0,,75,100
38856,note_on,0,0,1,,,,,,,,,0,,70,100
38856,note_on,72,0,2,,,,,,,,,1,,43,0
38880,note_on,0,0,2,,,,,,,,,1,,55,0
38880,note_on,0,0,2,,,,,,,,,1,,53,100
38880,note_on,0,0,2,,,,,,,,,1,,41,100
38880,note_on,24,0,1,,,,,,,,,0,,70,0
38880,note_on,0,0,1,,,,,,,,,0,,75,0
38880,note_on,0,0,1,,,,,,,,,0,,75,100
38880,note_on,0,0,1,,,,,,,,,0,,69,100
38880,note_on,24,0,2,,,,,,,,,1,,43,0
38952,note_on,72,0,1,,,,,,,,,0,,75,0
38952,note_on,0,0,1,,,,,,,,,0,,69,0
38952,note_on,0,0,1,,,,,,,,,0,,70,100
38952,note_on,0,0,1,,,,,,,,,0,,75,100
38952,note_on,72,0,2,,,,,,,,,1,,41,0
38952,note_on,0,0,2,,,,,,,,,1,,53,0
38952,note_on,0,0,2,,,,,,,,,1,,55,100
38952,note_on,0,0,2,,,,,,,,,1,,43,100
38976,note_on,0,0,2,,,,,,,,,1,,55,0
38976,note_on,0,0,1,,,,,,,,,0,,70,0
38976,note_on,0,0,2,,,,,,,,,1,,57,100
38976,note_on,24,0,2,,,,,,,,,1,,43,0
38976,note_on,0,0,2,,,,,,,,,1,,45,100
38976,note_on,0,0,1,,,,,,,,,0,,75,100
38976,note_on,0,0,1,,,,,,,,,0,,72,100
38976,note_on,24,0,1,,,,,,,,,0,,75,0
39048,note_on,0,0,1,,,,,,,,,0,,72,0
39048,note_on,0,0,1,,,,,,,,,0,,72,100
39048,note_on,0,0,1,,,,,,,,,0,,75,100
39048,note_on,72,0,2,,,,,,,,,1,,45,0
39048,note_on,0,0,2,,,,,,,,,1,,57,0
39048,note_on,0,0,2,,,,,,,,,1,,57,100
39048,note_on,0,0,2,,,,,,,,,1,,45,100
39048,note_on,72,0,1,,,,,,,,,0,,75,0
39072,note_on,0,0,2,,,,,,,,,1,,43,100
39072,note_on,24,0,2,,,,,,,,,1,,45,0
39072,note_on,0,0,2,,,,,,,,,1,,57,0
39072,note_on,0,0,2,,,,,,,,,1,,55,100
39072,note_on,24,0,1,,,,,,,,,0,,75,0
39072,note_on,0,0,1,,,,,,,,,0,,72,0
39072,note_on,0,0,1,,,,,,,,,0,,70,100
39072,note_on,0,0,1,,,,,,,,,0,,75,100
39144,note_on,72,0,2,,,,,,,,,1,,43,0
39144,note_on,72,0,1,,,,,,,,,0,,75,0
39144,note_on,0,0,1,,,,,,,,,0,,70,0
39144,note_on,0,0,1,,,,,,,,,0,,72,100
39144,note_on,0,0,1,,,,,,,,,0,,75,100
39144,note_on,0,0,2,,,,,,,,,1,,57,100
39144,note_on,0,0,2,,,,,,,,,1,,45,100
39144,note_on,0,0,2,,,,,,,,,1,,55,0
39168,note_on,0,0,2,,,,,,,,,1,,45,0
39168,note_on,24,0,2,,,,,,,,,1,,57,0
39168,note_on,0,0,1,,,,,,,,,0,,74,100
39168,note_on,24,0,1,,,,,,,,,0,,75,0
39168,note_on,0,0,1,,,,,,,,,0,,65,100
39168,note_on,0,0,1,,,,,,,,,0,,72,0
39168,note_on,0,0,2,,,,,,,,,1,,46,100
39168,note_on,0,0,2,,,,,,,,,1,,58,100
39240,note_on,0,0,2,,,,,,,,,1,,46,0
39240,note_on,0,0,2,,,,,,,,,1,,58,100
39240,note_on,72,0,2,,,,,,,,,1,,58,0
39240,note_on,0,0,1,,,,,,,,,0,,65,0
39240,note_on,0,0,1,,,,,,,,,0,,74,100
39240,note_on,0,0,1,,,,,,,,,0,,70,100
39240,note_on,72,0,1,,,,,,,,,0,,74,0
39240,note_on,0,0,2,,,,,,,,,1,,46,100
39264,note_on,0,0,2,,,,,,,,,1,,58,0
39264,note_on,0,0,2,,,,,,,,,1,,51,100
39264,note_on,0,0,2,,,,,,,,,1,,39,100
39264,note_on,24,0,1,,,,,,,,,0,,74,0
39264,note_on,0,0,1,,,,,,,,,0,,70,0
39264,note_on,0,0,1,,,,,,,,,0,,70,100
39264,note_on,0,0,1,,,,,,,,,0,,79,100
39264,note_on,24,0,2,,,,,,,,,1,,46,0
39336,note_on,72,0,2,,,,,,,,,1,,39,0
39336,note_on,0,0,2,,,,,,,,,1,,51,0
39336,note_on,0,0,2,,,,,,,,,1,,51,100
39336,note_on,0,0,2,,,,,,,,,1,,39,100
39336,note_on,72,0,1,,,,,,,,,0,,79,0
39336,note_on,0,0,1,,,,,,,,,0,,70,0
39336,note_on,0,0,1,,,,,,,,,0,,70,100
39336,note_on,0,0,1,,,,,,,,,0,,79,100
39360,note_on,0,0,1,,,,,,,,,0,,69,100
39360,note_on,0,0,1,,,,,,,,,0,,70,0
39360,note_on,0,0,1,,,,,,,,,0,,72,100
39360,note_on,0,0,2,,,,,,,,,1,,53,100
39360,note_on,0,0,2,,,,,,,,,1,,51,0
39360,note_on,24,0,2,,,,,,,,,1,,39,0
39360,note_on,0,0,2,,,,,,,,,1,,41,100
39360,note_on,24,0,1,,,,,,,,,0,,79,0
39432,note_on,0,0,2,,,,,,,,,1,,53,100
39432,note_on,0,0,2,,,,,,,,,1,,41,100
39432,note_on,72,0,1,,,,,,,,,0,,72,0
39432,note_on,0,0,2,,,,,,,,,1,,53,0
39432,note_on,0,0,1,,,,,,,,,0,,72,100
39432,note_on,72,0,2,,,,,,,,,1,,41,0
39432,note_on,0,0,1,,,,,,,,,0,,69,100
39432,note_on,0,0,1,,,,,,,,,0,,69,0
39456,note_on,24,0,1,,,,,,,,,0,,72,0
39456,note_on,0,0,2,,,,,,,,,1,,53,0
39456,note_on,0,0,2,,,,,,,,,1,,46,100
39456,note_on,24,0,2,,,,,,,,,1,,41,0
39456,note_on,0,0,1,,,,,,,,,0,,69,0
39456,note_on,0,0,1,,,,,,,,,0,,70,100
39456,note_on,0,0,1,,,,,,,,,0,,74,100
39528,note_on,0,0,1,,,,,,,,,0,,72,100
39528,note_on,0,0,1,,,,,,,,,0,,75,100
39528,note_on,72,0,1,,,,,,,,,0,,74,0
39528,note_on,72,0,2,,,,,,,,,1,,46,0
39528,note_on,0,0,1,,,,,,,,,0,,70,0
39528,note_on,0,0,2,,,,,,,,,1,,51,100
39552,note_on,24,0,1,,,,,,,,,0,,75,0
39552,note_on,0,0,1,,,,,,,,,0,,72,0
39552,note_on,0,0,1,,,,,,,,,0,,74,100
39552,note_on,0,0,1,,,,,,,,,0,,70,100
39552,note_on,24,0,2,,,,,,,,,1,,51,0
39552,note_on,0,0,2,,,,,,,,,1,,53,100
39648,note_on,0,0,1,,,,,,,,,0,,69,100
39648,note_on,0,0,2,,,,,,,,,1,,41,100
39648,note_on,0,0,1,,,,,,,,,0,,72,100
39648,note_on,0,0,1,,,,,,,,,0,,74,0
39648,note_on,96,0,1,,,,,,,,,0,,70,0
39648,note_on,96,0,2,,,,,,,,,1,,53,0
39720,note_on,72,0,1,,,,,,,,,0,,72,0
39720,note_on,0,0,1,,,,,,,,,0,,70,100
39744,note_on,0,0,2,,,,,,,,,1,,46,100
39744,note_on,24,0,1,,,,,,,,,0,,70,0
39744,note_on,0,0,1,,,,,,,,,0,,69,0
39744,note_on,0,0,1,,,,,,,,,0,,65,100
39744,note_on,0,0,1,,,,,,,,,0,,62,100
39744,note_on,0,0,1,,,,,,,,,0,,70,100
39744,note_on,96,0,2,,,,,,,,,1,,41,0
39816,note_on,72,0,1,,,,,,,,,0,,70,0
39816,note_on,0,0,1,,,,,,,,,0,,74,100
39840,note_on,24,0,1,,,,,,,,,0,,74,0
39840,note_on,0,0,1,,,,,,,,,0,,62,0
39840,note_on,0,0,1,,,,,,,,,0,,65,0
39840,note_on,0,0,1,,,,,,,,,0,,74,100
39840,note_on,96,0,2,,,,,,,,,1,,46,0
39912,note_on,0,0,1,,,,,,,,,0,,74,100
39912,note_on,72,0,1,,,,,,,,,0,,74,0
39936,note_on,0,0,1,,,,,,,,,0,,58,100
39936,note_on,0,0,1,,,,,,,,,0,,62,100
39936,note_on,0,0,1,,,,,,,,,0,,67,100
39936,note_on,24,0,1,,,,,,,,,0,,74,0
40008,note_on,168,0,2,,,,,,,,,1,,55,100
40008,note_on,0,0,2,,,,,,,,,1,,58,100
40032,note_on,0,0,2,,,,,,,,,1,,55,0
40032,note_on,0,0,2,,,,,,,,,1,,55,100
40032,note_on,0,0,2,,,,,,,,,1,,58,100
40032,note_on,0,0,1,,,,,,,,,0,,67,0
40032,note_on,0,0,1,,,,,,,,,0,,62,0
40032,note_on,96,0,1,,,,,,,,,0,,58,0
40032,note_on,24,0,2,,,,,,,,,1,,58,0
40104,note_on,0,0,2,,,,,,,,,1,,58,100
40104,note_on,0,0,2,,,,,,,,,1,,55,100
40104,note_on,72,0,2,,,,,,,,,1,,58,0
40104,note_on,0,0,2,,,,,,,,,1,,55,0
40128,note_on,24,0,2,,,,,,,,,1,,58,0
40128,note_on,0,0,2,,,,,,,,,1,,55,0
40128,note_on,0,0,2,,,,,,,,,1,,54,100
40128,note_on,0,0,2,,,,,,,,,1,,57,100
40128,note_on,0,0,2,,,,,,,,,1,,50,100
40200,note_on,168,0,1,,,,,,,,,0,,74,100
40224,note_on,0,0,2,,,,,,,,,1,,57,0
40224,note_on,24,0,1,,,,,,,,,0,,74,0
40224,note_on,96,0,2,,,,,,,,,1,,50,0
40224,note_on,0,0,1,,,,,,,,,0,,74,100
40224,note_on,0,0,2,,,,,,,,,1,,54,0
40296,note_on,72,0,1,,,,,,,,,0,,74,0
40296,note_on,0,0,1,,,,,,,,,0,,74,100
40320,note_on,24,0,1,,,,,,,,,0,,74,0
40320,note_on,0,0,1,,,,,,,,,0,,67,100
40320,note_on,0,0,1,,,,,,,,,0,,58,100
40320,note_on,0,0,1,,,,,,,,,0,,62,100
40392,note_on,168,0,2,,,,,,,,,1,,55,100
40392,note_on,0,0,2,,,,,,,,,1,,58,100
40416,note_on,0,0,1,,,,,,,,,0,,62,0
40416,note_on,0,0,2,,,,,,,,,1,,55,0
40416,note_on,0,0,2,,,,,,,,,1,,55,100
40416,note_on,0,0,2,,,,,,,,,1,,58,100
40416,note_on,96,0,1,,,,,,,,,0,,58,0
40416,note_on,0,0,1,,,,,,,,,0,,67,0
40416,note_on,24,0,2,,,,,,,,,1,,58,0
40488,note_on,72,0,2,,,,,,,,,1,,58,0
40488,note_on,0,0,2,,,,,,,,,1,,55,0
40488,note_on,0,0,2,,,,,,,,,1,,55,100
40488,note_on,0,0,2,,,,,,,,,1,,58,100
40512,note_on,0,0,2,,,,,,,,,1,,57,100
40512,note_on,0,0,2,,,,,,,,,1,,55,0
40512,note_on,24,0,2,,,,,,,,,1,,58,0
40512,note_on,0,0,2,,,,,,,,,1,,50,100
40584,note_on,72,0,2,,,,,,,,,1,,50,0
40584,note_on,0,0,2,,,,,,,,,1,,48,100
40584,note_on,0,0,1,,,,,,,,,0,,74,100
40584,note_on,168,0,1,,,,,,,,,0,,66,100
40608,note_on,24,0,2,,,,,,,,,1,,48,0
40608,note_on,0,0,2,,,,,,,,,1,,46,100
40608,note_on,24,0,1,,,,,,,,,0,,74,0
40608,note_on,0,0,1,,,,,,,,,0,,66,0
40608,note_on,0,0,1,,,,,,,,,0,,66,100
40608,note_on,0,0,1,,,,,,,,,0,,74,100
40608,note_on,0,0,2,,,,,,,,,1,,57,0
40680,note_on,72,0,1,,,,,,,,,0,,74,0
40680,note_on,0,0,1,,,,,,,,,0,,66,0
40680,note_on,0,0,1,,,,,,,,,0,,66,100
40680,note_on,0,0,1,,,,,,,,,0,,74,100
40680,note_on,0,0,2,,,,,,,,,1,,45,100
40680,note_on,72,0,2,,,,,,,,,1,,46,0
40704,note_on,0,0,1,,,,,,,,,0,,66,0
40704,note_on,0,0,2,,,,,,,,,1,,43,100
40704,note_on,24,0,2,,,,,,,,,1,,45,0
40704,note_on,0,0,1,,,,,,,,,0,,67,100
40704,note_on,24,0,1,,,,,,,,,0,,74,0
40776,note_on,72,0,1,,,,,,,,,0,,67,0
40776,note_on,72,0,2,,,,,,,,,1,,43,0
40776,note_on,0,0,1,,,,,,,,,0,,75,100
40776,note_on,0,0,2,,,,,,,,,1,,42,100
40800,note_on,0,0,2,,,,,,,,,1,,43,100
40800,note_on,24,0,2,,,,,,,,,1,,42,0
40800,note_on,24,0,1,,,,,,,,,0,,75,0
40800,note_on,0,0,1,,,,,,,,,0,,75,100
40872,note_on,72,0,1,,,,,,,,,0,,75,0
40872,note_on,0,0,2,,,,,,,,,1,,45,100
40872,note_on,0,0,1,,,,,,,,,0,,75,100
40872,note_on,72,0,2,,,,,,,,,1,,43,0
40896,note_on,0,0,1,,,,,,,,,0,,74,100
40896,note_on,24,0,1,,,,,,,,,0,,75,0
40896,note_on,0,0,2,,,,,,,,,1,,46,100
40896,note_on,24,0,2,,,,,,,,,1,,45,0
40968,note_on,72,0,2,,,,,,,,,1,,46,0
40968,note_on,0,0,2,,,,,,,,,1,,45,100
40968,note_on,72,0,1,,,,,,,,,0,,74,0
40968,note_on,0,0,1,,,,,,,,,0,,79,100
40992,note_on,24,0,2,,,,,,,,,1,,45,0
40992,note_on,0,0,2,,,,,,,,,1,,46,100
40992,note_on,24,0,1,,,,,,,,,0,,79,0
40992,note_on,0,0,1,,,,,,,,,0,,79,100
41064,note_on,72,0,1,,,,,,,,,0,,79,0
41064,note_on,72,0,2,,,,,,,,,1,,46,0
41064,note_on,0,0,2,,,,,,,,,1,,48,100
41064,note_on,0,0,1,,,,,,,,,0,,79,100
41088,note_on,24,0,2,,,,,,,,,1,,48,0
41088,note_on,0,0,2,,,,,,,,,1,,50,100
41088,note_on,24,0,1,,,,,,,,,0,,79,0
41088,note_on,0,0,1,,,,,,,,,0,,78,100
41088,note_on,0,0,1,,,,,,,,,0,,74,100
41160,note_on,72,0,1,,,,,,,,,0,,74,0
41160,note_on,0,0,1,,,,,,,,,0,,78,0
41160,note_on,0,0,1,,,,,,,,,0,,78,100
41160,note_on,0,0,1,,,,,,,,,0,,81,100
41184,note_on,0,0,1,,,,,,,,,0,,78,100
41184,note_on,0,0,1,,,,,,,,,0,,78,0
41184,note_on,0,0,1,,,,,,,,,0,,81,100
41184,note_on,96,0,2,,,,,,,,,1,,50,0
41184,note_on,24,0,1,,,,,,,,,0,,81,0
41256,note_on,72,0,1,,,,,,,,,0,,81,0
41256,note_on,0,0,1,,,,,,,,,0,,78,0
41256,note_on,0,0,1,,,,,,,,,0,,79,100
41256,note_on,0,0,1,,,,,,,,,0,,82,100
41280,note_on,0,0,1,,,,,,,,,0,,78,100
41280,note_on,24,0,1,,,,,,,,,0,,82,0
41280,note_on,0,0,1,,,,,,,,,0,,81,100
41280,note_on,0,0,1,,,,,,,,,0,,74,100
41280,note_on,0,0,1,,,,,,,,,0,,79,0
41352,note_on,168,0,2,,,,,,,,,1,,62,100
41376,note_on,96,0,1,,,,,,,,,0,,74,0
41376,note_on,0,0,1,,,,,,,,,0,,81,0
41376,note_on,0,0,1,,,,,,,,,0,,78,0
41376,note_on,24,0,2,,,,,,,,,1,,62,0
41376,note_on,0,0,2,,,,,,,,,1,,62,100
41448,note_on,0,0,2,,,,,,,,,1,,55,100
41448,note_on,72,0,2,,,,,,,,,1,,62,0
41472,note_on,0,0,2,,,,,,,,,1,,62,100
41472,note_on,24,0,2,,,,,,,,,1,,55,0
41544,note_on,0,0,1,,,,,,,,,0,,81,100
41544,note_on,168,0,1,,,,,,,,,0,,78,100
41568,note_on,96,0,2,,,,,,,,,1,,62,0
41568,note_on,0,0,1,,,,,,,,,0,,81,100
41568,note_on,0,0,1,,,,,,,,,0,,78,100
41568,note_on,0,0,1,,,,,,,,,0,,78,0
41568,note_on,24,0,1,,,,,,,,,0,,81,0
41640,note_on,0,0,1,,,,,,,,,0,,82,100
41640,note_on,0,0,1,,,,,,,,,0,,79,100
41640,note_on,0,0,1,,,,,,,,,0,,78,0
41640,note_on,72,0,1,,,,,,,,,0,,81,0
41664,note_on,0,0,1,,,,,,,,,0,,74,100
41664,note_on,0,0,1,,,,,,,,,0,,81,100
41664,note_on,0,0,1,,,,,,,,,0,,78,100
41664,note_on,0,0,1,,,,,,,,,0,,79,0
41664,note_on,24,0,1,,,,,,,,,0,,82,0
41736,note_on,168,0,2,,,,,,,,,1,,62,100
41760,note_on,0,0,1,,,,,,,,,0,,81,0
41760,note_on,0,0,1,,,,,,,,,0,,78,0
41760,note_on,96,0,1,,,,,,,,,0,,74,0
41760,note_on,24,0,2,,,,,,,,,1,,62,0
41760,note_on,0,0,2,,,,,,,,,1,,62,100
41832,note_on,72,0,2,,,,,,,,,1,,62,0
41832,note_on,0,0,2,,,,,,,,,1,,55,100
41856,note_on,24,0,2,,,,,,,,,1,,55,0
41856,note_on,0,0,2,,,,,,,,,1,,62,100
41928,note_on,0,0,1,,,,,,,,,0,,81,100
41928,note_on,72,0,2,,,,,,,,,1,,62,0
41928,note_on,0,0,2,,,,,,,,,1,,62,100
41928,note_on,0,0,1,,,,,,,,,0,,74,100
41928,note_on,168,0,1,,,,,,,,,0,,78,100
41952,note_on,24,0,2,,,,,,,,,1,,62,0
41952,note_on,0,0,2,,,,,,,,,1,,62,100
41952,note_on,0,0,1,,,,,,,,,0,,81,0
41952,note_on,0,0,1,,,,,,,,,0,,78,0
41952,note_on,0,0,1,,,,,,,,,0,,78,100
41952,note_on,0,0,1,,,,,,,,,0,,81,100
41952,note_on,0,0,1,,,,,,,,,0,,74,100
41952,note_on,24,0,1,,,,,,,,,0,,74,0
42024,note_on,0,0,1,,,,,,,,,0,,79,100
42024,note_on,72,0,2,,,,,,,,,1,,62,0
42024,note_on,72,0,1,,,,,,,,,0,,74,0
42024,note_on,0,0,1,,,,,,,,,0,,81,0
42024,note_on,0,0,1,,,,,,,,,0,,78,0
42024,note_on,0,0,1,,,,,,,,,0,,82,100
42024,note_on,0,0,1,,,,,,,,,0,,74,100
42024,note_on,0,0,2,,,,,,,,,1,,55,100
42048,note_on,24,0,2,,,,,,,,,1,,55,0
42048,note_on,0,0,2,,,,,,,,,1,,62,100
42048,note_on,0,0,1,,,,,,,,,0,,74,100
42048,note_on,0,0,1,,,,,,,,,0,,79,0
42048,note_on,0,0,1,,,,,,,,,0,,82,0
42048,note_on,24,0,1,,,,,,,,,0,,74,0
42048,note_on,0,0,1,,,,,,,,,0,,78,100
42048,note_on,0,0,1,,,,,,,,,0,,81,100
42120,note_on,0,0,1,,,,,,,,,0,,78,100
42120,note_on,0,0,2,,,,,,,,,1,,62,100
42120,note_on,0,0,1,,,,,,,,,0,,81,100
42120,note_on,0,0,1,,,,,,,,,0,,74,100
42120,note_on,72,0,1,,,,,,,,,0,,74,0
42120,note_on,0,0,1,,,,,,,,,0,,81,0
42120,note_on,0,0,1,,,,,,,,,0,,78,0
42120,note_on,72,0,2,,,,,,,,,1,,62,0
42144,note_on,0,0,1,,,,,,,,,0,,81,0
42144,note_on,24,0,2,,,,,,,,,1,,62,0
42144,note_on,0,0,1,,,,,,,,,0,,74,100
42144,note_on,0,0,1,,,,,,,,,0,,81,100
42144,note_on,0,0,2,,,,,,,,,1,,62,100
42144,note_on,24,0,1,,,,,,,,,0,,74,0
42144,note_on,0,0,1,,,,,,,,,0,,78,100
42144,note_on,0,0,1,,,,,,,,,0,,78,0
42216,note_on,0,0,1,,,,,,,,,0,,79,100
42216,note_on,0,0,1,,,,,,,,,0,,78,0
42216,note_on,0,0,1,,,,,,,,,0,,81,0
42216,note_on,72,0,1,,,,,,,,,0,,74,0
42216,note_on,0,0,1,,,,,,,,,0,,74,100
42216,note_on,72,0,2,,,,,,,,,1,,62,0
42216,note_on,0,0,2,,,,,,,,,1,,55,100
42216,note_on,0,0,1,,,,,,,,,0,,82,100
42240,note_on,0,0,1,,,,,,,,,0,,79,0
42240,note_on,0,0,1,,,,,,,,,0,,78,100
42240,note_on,0,0,1,,,,,,,,,0,,81,100
42240,note_on,0,0,2,,,,,,,,,1,,62,100
42240,note_on,0,0,1,,,,,,,,,0,,74,100
42240,note_on,0,0,1,,,,,,,,,0,,82,0
42240,note_on,24,0,2,,,,,,,,,1,,55,0
42240,note_on,24,0,1,,,,,,,,,0,,74,0
42312,note_on,72,0,1,,,,,,,,,0,,74,0
42312,note_on,0,0,1,,,,,,,,,0,,81,0
42312,note_on,0,0,1,,,,,,,,,0,,78,0
42312,note_on,0,0,1,,,,,,,,,0,,66,100
42312,note_on,0,0,1,,,,,,,,,0,,69,100
42336,note_on,96,0,2,,,,,,,,,1,,62,0
42336,note_on,0,0,2,,,,,,,,,1,,50,100
42336,note_on,24,0,1,,,,,,,,,0,,69,0
42336,note_on,0,0,1,,,,,,,,,0,,66,0
42336,note_on,0,0,1,,,,,,,,,0,,66,100
42336,note_on,0,0,1,,,,,,,,,0,,69,100
42408,note_on,0,0,1,,,,,,,,,0,,69,100
42408,note_on,0,0,1,,,,,,,,,0,,66,100
42408,note_on,0,0,1,,,,,,,,,0,,66,0
42408,note_on,72,0,1,,,,,,,,,0,,69,0
42432,note_on,96,0,2,,,,,,,,,1,,50,0
42432,note_on,0,0,2,,,,,,,,,1,,50,100
42432,note_on,24,0,1,,,,,,,,,0,,69,0
42432,note_on,0,0,1,,,,,,,,,0,,66,0
42432,note_on,0,0,1,,,,,,,,,0,,67,100
42432,note_on,0,0,2,,,,,,,,,1,,38,100
42432,note_on,0,0,1,,,,,,,,,0,,70,100
42504,note_on,72,0,1,,,,,,,,,0,,70,0
42504,note_on,0,0,1,,,,,,,,,0,,67,0
42504,note_on,0,0,1,,,,,,,,,0,,67,100
42504,note_on,0,0,1,,,,,,,,,0,,70,100
42528,note_on,24,0,1,,,,,,,,,0,,70,0
42528,note_on,0,0,1,,,,,,,,,0,,67,0
42528,note_on,0,0,1,,,,,,,,,0,,66,100
42528,note_on,0,0,1,,,,,,,,,0,,69,100
42600,note_on,0,0,1,,,,,,,,,0,,70,100
42600,note_on,72,0,1,,,,,,,,,0,,69,0
42600,note_on,0,0,1,,,,,,,,,0,,66,0
42600,note_on,0,0,1,,,,,,,,,0,,67,100
42624,note_on,0,0,1,,,,,,,,,0,,72,100
42624,note_on,0,0,1,,,,,,,,,0,,69,100
42624,note_on,0,0,1,,,,,,,,,0,,67,0
42624,note_on,24,0,1,,,,,,,,,0,,70,0
42696,note_on,0,0,1,,,,,,,,,0,,72,100
42696,note_on,0,0,1,,,,,,,,,0,,69,100
42696,note_on,0,0,1,,,,,,,,,0,,69,0
42696,note_on,72,0,1,,,,,,,,,0,,72,0
42720,note_on,24,0,1,,,,,,,,,0,,72,0
42720,note_on,0,0,1,,,,,,,,,0,,67,100
42720,note_on,0,0,1,,,,,,,,,0,,70,100
42720,note_on,0,0,1,,,,,,,,,0,,69,0
42792,note_on,72,0,1,,,,,,,,,0,,70,0
42792,note_on,0,0,1,,,,,,,,,0,,67,0
42792,note_on,0,0,1,,,,,,,,,0,,66,100
42792,note_on,0,0,1,,,,,,,,,0,,69,100
42816,note_on,0,0,1,,,,,,,,,0,,66,0
42816,note_on,0,0,1,,,,,,,,,0,,67,100
42816,note_on,0,0,1,,,,,,,,,0,,70,100
42816,note_on,24,0,1,,,,,,,,,0,,69,0
42888,note_on,0,0,1,,,,,,,,,0,,70,100
42888,note_on,72,0,1,,,,,,,,,0,,70,0
42888,note_on,0,0,1,,,,,,,,,0,,67,0
42888,note_on,0,0,1,,,,,,,,,0,,67,100
42912,note_on,0,0,1,,,,,,,,,0,,69,100
42912,note_on,0,0,1,,,,,,,,,0,,66,100
42912,note_on,0,0,1,,,,,,,,,0,,67,0
42912,note_on,24,0,1,,,,,,,,,0,,70,0
42984,note_on,72,0,1,,,,,,,,,0,,69,0
42984,note_on,0,0,1,,,,,,,,,0,,66,0
42984,note_on,0,0,1,,,,,,,,,0,,64,100
42984,note_on,0,0,1,,,,,,,,,0,,67,100
43008,note_on,0,0,2,,,,,,,,,1,,50,0
43008,note_on,24,0,1,,,,,,,,,0,,67,0
43008,note_on,0,0,1,,,,,,,,,0,,64,0
43008,note_on,0,0,1,,,,,,,,,0,,66,100
43008,note_on,0,0,1,,,,,,,,,0,,69,100
43008,note_on,576,0,2,,,,,,,,,1,,38,0
43080,note_on,72,0,2,,,,,,,,,1,,50,100
43080,note_on,72,0,1,,,,,,,,,0,,69,0
43080,note_on,0,0,1,,,,,,,,,0,,66,0
43080,note_on,0,0,1,,,,,,,,,0,,74,100
43080,note_on,0,0,1,,,,,,,,,0,,66,100
43104,note_on,24,0,1,,,,,,,,,0,,74,0
43104,note_on,0,0,1,,,,,,,,,0,,66,100
43104,note_on,0,0,1,,,,,,,,,0,,74,100
43104,note_on,0,0,2,,,,,,,,,1,,50,100
43104,note_on,24,0,2,,,,,,,,,1,,50,0
43104,note_on,0,0,1,,,,,,,,,0,,66,0
43176,note_on,0,0,2,,,,,,,,,1,,50,100
43176,note_on,72,0,2,,,,,,,,,1,,50,0
43176,note_on,0,0,1,,,,,,,,,0,,66,100
43176,note_on,0,0,1,,,,,,,,,0,,66,0
43176,note_on,72,0,1,,,,,,,,,0,,74,0
43176,note_on,0,0,1,,,,,,,,,0,,74,100
43200,note_on,0,0,2,,,,,,,,,1,,51,100
43200,note_on,0,0,1,,,,,,,,,0,,74,100
43200,note_on,24,0,2,,,,,,,,,1,,50,0
43200,note_on,0,0,1,,,,,,,,,0,,66,0
43200,note_on,0,0,1,,,,,,,,,0,,67,100
43200,note_on,24,0,1,,,,,,,,,0,,74,0
43272,note_on,72,0,1,,,,,,,,,0,,74,0
43272,note_on,0,0,1,,,,,,,,,0,,67,0
43272,note_on,0,0,1,,,,,,,,,0,,67,100
43272,note_on,0,0,1,,,,,,,,,0,,74,100
43272,note_on,72,0,2,,,,,,,,,1,,51,0
43272,note_on,0,0,2,,,,,,,,,1,,51,100
43296,note_on,0,0,2,,,,,,,,,1,,50,100
43296,note_on,24,0,2,,,,,,,,,1,,51,0
43296,note_on,0,0,1,,,,,,,,,0,,69,100
43296,note_on,0,0,1,,,,,,,,,0,,67,0
43296,note_on,24,0,1,,,,,,,,,0,,74,0
43296,note_on,0,0,1,,,,,,,,,0,,72,100
43368,note_on,72,0,2,,,,,,,,,1,,50,0
43368,note_on,0,0,2,,,,,,,,,1,,48,100
43368,note_on,0,0,1,,,,,,,,,0,,72,100
43368,note_on,0,0,1,,,,,,,,,0,,69,100
43368,note_on,0,0,1,,,,,,,,,0,,69,0
43368,note_on,72,0,1,,,,,,,,,0,,72,0
43392,note_on,24,0,2,,,,,,,,,1,,48,0
43392,note_on,0,0,1,,,,,,,,,0,,66,100
43392,note_on,0,0,1,,,,,,,,,0,,69,0
43392,note_on,24,0,1,,,,,,,,,0,,72,0
43392,note_on,0,0,2,,,,,,,,,1,,50,100
43392,note_on,0,0,1,,,,,,,,,0,,72,100
43464,note_on,72,0,2,,,,,,,,,1,,50,0
43464,note_on,0,0,2,,,,,,,,,1,,50,100
43464,note_on,72,0,1,,,,,,,,,0,,72,0
43464,note_on,0,0,1,,,,,,,,,0,,66,0
43464,note_on,0,0,1,,,,,,,,,0,,66,100
43464,note_on,0,0,1,,,,,,,,,0,,74,100
43488,note_on,0,0,2,,,,,,,,,1,,43,100
43488,note_on,0,0,2,,,,,,,,,1,,55,100
43488,note_on,24,0,1,,,,,,,,,0,,74,0
43488,note_on,0,0,1,,,,,,,,,0,,67,100
43488,note_on,24,0,2,,,,,,,,,1,,50,0
43488,note_on,0,0,1,,,,,,,,,0,,70,100
43488,note_on,0,0,1,,,,,,,,,0,,66,0
43560,note_on,72,0,1,,,,,,,,,0,,70,0
43560,note_on,0,0,1,,,,,,,,,0,,69,100
43560,note_on,72,0,2,,,,,,,,,1,,43,0
43560,note_on,0,0,2,,,,,,,,,1,,48,100
43584,note_on,24,0,1,,,,,,,,,0,,69,0
43584,note_on,24,0,2,,,,,,,,,1,,48,0
43584,note_on,0,0,2,,,,,,,,,1,,55,0
43584,note_on,0,0,1,,,,,,,,,0,,70,100
43584,note_on,0,0,2,,,,,,,,,1,,50,100
43680,note_on,0,0,2,,,,,,,,,1,,38,100
43680,note_on,0,0,1,,,,,,,,,0,,69,100
43680,note_on,0,0,1,,,,,,,,,0,,66,100
43680,note_on,96,0,1,,,,,,,,,0,,70,0
43680,note_on,0,0,1,,,,,,,,,0,,67,0
43680,note_on,96,0,2,,,,,,,,,1,,50,0
43752,note_on,72,0,1,,,,,,,,,0,,69,0
43752,note_on,0,0,1,,,,,,,,,0,,67,100
43776,note_on,0,0,2,,,,,,,,,1,,43,100
43776,note_on,24,0,1,,,,,,,,,0,,67,0
43776,note_on,0,0,1,,,,,,,,,0,,66,0
43776,note_on,0,0,1,,,,,,,,,0,,67,100
43776,note_on,96,0,2,,,,,,,,,1,,38,0
43848,note_on,72,0,1,,,,,,,,,0,,67,0
43848,note_on,0,0,1,,,,,,,,,0,,72,100
43848,note_on,0,0,1,,,,,,,,,0,,74,100
43848,note_on,0,0,1,,,,,,,,,0,,81,100
43848,note_on,0,0,2,,,,,,,,,1,,60,100
43848,note_on,0,0,2,,,,,,,,,1,,57,100
43848,note_on,0,0,2,,,,,,,,,1,,54,100
43848,note_on,72,0,2,,,,,,,,,1,,43,0
43872,note_on,0,0,2,,,,,,,,,1,,54,0
43872,note_on,0,0,2,,,,,,,,,1,,57,0
43872,note_on,24,0,2,,,,,,,,,1,,60,0
43872,note_on,0,0,2,,,,,,,,,1,,60,100
43872,note_on,0,0,2,,,,,,,,,1,,57,100
43872,note_on,0,0,2,,,,,,,,,1,,54,100
43872,note_on,0,0,1,,,,,,,,,0,,72,0
43872,note_on,0,0,1,,,,,,,,,0,,74,100
43872,note_on,0,0,1,,,,,,,,,0,,74,0
43872,note_on,24,0,1,,,,,,,,,0,,81,0
43872,note_on,0,0,1,,,,,,,,,0,,81,100
43872,note_on,0,0,1,,,,,,,,,0,,72,100
43944,note_on,72,0,2,,,,,,,,,1,,60,0
43944,note_on,0,0,2,,,,,,,,,1,,57,0
43944,note_on,0,0,2,,,,,,,,,1,,54,0
43944,note_on,0,0,2,,,,,,,,,1,,54,100
43944,note_on,0,0,2,,,,,,,,,1,,57,100
43944,note_on,0,0,2,,,,,,,,,1,,60,100
43944,note_on,72,0,1,,,,,,,,,0,,81,0
43944,note_on,0,0,1,,,,,,,,,0,,72,0
43944,note_on,0,0,1,,,,,,,,,0,,72,100
43944,note_on,0,0,1,,,,,,,,,0,,74,100
43944,note_on,0,0,1,,,,,,,,,0,,81,100
43944,note_on,0,0,1,,,,,,,,,0,,74,0
43968,note_on,24,0,1,,,,,,,,,0,,81,0
43968,note_on,0,0,1,,,,,,,,,0,,72,0
43968,note_on,0,0,1,,,,,,,,,0,,74,100
43968,note_on,0,0,1,,,,,,,,,0,,81,100
43968,note_on,0,0,1,,,,,,,,,0,,72,100
43968,note_on,0,0,1,,,,,,,,,0,,74,0
43968,note_on,0,0,2,,,,,,,,,1,,57,0
43968,note_on,0,0,2,,,,,,,,,1,,60,100
43968,note_on,0,0,2,,,,,,,,,1,,57,100
43968,note_on,24,0,2,,,,,,,,,1,,60,0
43968,note_on,0,0,2,,,,,,,,,1,,54,0
43968,note_on,0,0,2,,,,,,,,,1,,54,100
44160,note_on,192,0,2,,,,,,,,,1,,60,0
44160,note_on,0,0,2,,,,,,,,,1,,57,0
44160,note_on,192,0,1,,,,,,,,,0,,81,0
44160,note_on,0,0,1,,,,,,,,,0,,74,0
44160,note_on,0,0,1,,,,,,,,,0,,72,0
44160,note_on,0,0,2,,,,,,,,,1,,54,0
44544,note_on,384,0,2,,,,,,,,,1,,50,100
44544,note_on,0,0,2,,,,,,,,,1,,38,100
44616,note_on,0,0,1,,,,,,,,,0,,69,100
44616,note_on,456,0,1,,,,,,,,,0,,66,100
44640,note_on,0,0,1,,,,,,,,,0,,69,100
44640,note_on,0,0,1,,,,,,,,,0,,66,100
44640,note_on,0,0,1,,,,,,,,,0,,66,0
44640,note_on,24,0,1,,,,,,,,,0,,69,0
44712,note_on,72,0,1,,,,,,,,,0,,69,0
44712,note_on,0,0,1,,,,,,,,,0,,66,0
44712,note_on,0,0,1,,,,,,,,,0,,66,100
44712,note_on,0,0,1,,,,,,,,,0,,69,100
44736,note_on,0,0,1,,,,,,,,,0,,70,100
44736,note_on,0,0,1,,,,,,,,,0,,66,0
44736,note_on,0,0,1,,,,,,,,,0,,67,100
44736,note_on,24,0,1,,,,,,,,,0,,69,0
44808,note_on,72,0,1,,,,,,,,,0,,70,0
44808,note_on,0,0,1,,,,,,,,,0,,67,0
44808,note_on,0,0,1,,,,,,,,,0,,67,100
44808,note_on,0,0,1,,,,,,,,,0,,70,100
44832,note_on,0,0,1,,,,,,,,,0,,67,0
44832,note_on,0,0,1,,,,,,,,,0,,69,100
44832,note_on,24,0,1,,,,,,,,,0,,70,0
44832,note_on,0,0,1,,,,,,,,,0,,66,100
44904,note_on,0,0,1,,,,,,,,,0,,70,100
44904,note_on,0,0,1,,,,,,,,,0,,67,100
44904,note_on,0,0,1,,,,,,,,,0,,66,0
44904,note_on,72,0,1,,,,,,,,,0,,69,0
44928,note_on,0,0,1,,,,,,,,,0,,69,100
44928,note_on,0,0,1,,,,,,,,,0,,67,0
44928,note_on,0,0,1,,,,,,,,,0,,72,100
44928,note_on,24,0,1,,,,,,,,,0,,70,0
45000,note_on,72,0,1,,,,,,,,,0,,72,0
45000,note_on,0,0,1,,,,,,,,,0,,69,100
45000,note_on,0,0,1,,,,,,,,,0,,72,100
45000,note_on,0,0,1,,,,,,,,,0,,69,0
45024,note_on,24,0,1,,,,,,,,,0,,72,0
45024,note_on,0,0,1,,,,,,,,,0,,69,0
45024,note_on,0,0,1,,,,,,,,,0,,67,100
45024,note_on,0,0,1,,,,,,,,,0,,70,100
45096,note_on,72,0,1,,,,,,,,,0,,70,0
45096,note_on,0,0,1,,,,,,,,,0,,67,0
45096,note_on,0,0,1,,,,,,,,,0,,66,100
45096,note_on,0,0,1,,,,,,,,,0,,69,100
45120,note_on,0,0,1,,,,,,,,,0,,70,100
45120,note_on,24,0,1,,,,,,,,,0,,69,0
45120,note_on,0,0,1,,,,,,,,,0,,67,100
45120,note_on,0,0,1,,,,,,,,,0,,66,0
45192,note_on,72,0,1,,,,,,,,,0,,70,0
45192,note_on,0,0,1,,,,,,,,,0,,67,0
45192,note_on,0,0,1,,,,,,,,,0,,67,100
45192,note_on,0,0,1,,,,,,,,,0,,70,100
45216,note_on,24,0,1,,,,,,,,,0,,70,0
45216,note_on,0,0,1,,,,,,,,,0,,67,0
45216,note_on,0,0,1,,,,,,,,,0,,66,100
45216,note_on,0,0,1,,,,,,,,,0,,69,100
45288,note_on,0,0,1,,,,,,,,,0,,67,100
45288,note_on,0,0,1,,,,,,,,,0,,64,100
45288,note_on,0,0,1,,,,,,,,,0,,66,0
45288,note_on,72,0,1,,,,,,,,,0,,69,0
45312,note_on,0,0,2,,,,,,,,,1,,50,0
45312,note_on,0,0,1,,,,,,,,,0,,69,100
45312,note_on,768,0,2,,,,,,,,,1,,38,0
45312,note_on,0,0,1,,,,,,,,,0,,66,100
45312,note_on,0,0,1,,,,,,,,,0,,64,0
45312,note_on,24,0,1,,,,,,,,,0,,67,0
45384,note_on,72,0,2,,,,,,,,,1,,50,100
45384,note_on,72,0,1,,,,,,,,,0,,69,0
45384,note_on,0,0,1,,,,,,,,,0,,66,0
45384,note_on,0,0,1,,,,,,,,,0,,66,100
45384,note_on,0,0,1,,,,,,,,,0,,74,100
45408,note_on,0,0,2,,,,,,,,,1,,50,100
45408,note_on,24,0,2,,,,,,,,,1,,50,0
45408,note_on,0,0,1,,,,,,,,,0,,66,0
45408,note_on,0,0,1,,,,,,,,,0,,66,100
45408,note_on,24,0,1,,,,,,,,,0,,74,0
45408,note_on,0,0,1,,,,,,,,,0,,74,100
45480,note_on,0,0,1,,,,,,,,,0,,66,0
45480,note_on,0,0,1,,,,,,,,,0,,66,100
45480,note_on,0,0,1,,,,,,,,,0,,74,100
45480,note_on,0,0,2,,,,,,,,,1,,50,100
45480,note_on,72,0,2,,,,,,,,,1,,50,0
45480,note_on,72,0,1,,,,,,,,,0,,74,0
45504,note_on,24,0,2,,,,,,,,,1,,50,0
45504,note_on,0,0,2,,,,,,,,,1,,51,100
45504,note_on,0,0,1,,,,,,,,,0,,74,100
45504,note_on,0,0,1,,,,,,,,,0,,67,100
45504,note_on,0,0,1,,,,,,,,,0,,66,0
45504,note_on,24,0,1,,,,,,,,,0,,74,0
45576,note_on,0,0,1,,,,,,,,,0,,67,100
45576,note_on,0,0,1,,,,,,,,,0,,67,0
45576,note_on,72,0,2,,,,,,,,,1,,51,0
45576,note_on,0,0,2,,,,,,,,,1,,51,100
45576,note_on,0,0,1,,,,,,,,,0,,74,100
45576,note_on,72,0,1,,,,,,,,,0,,74,0
45600,note_on,24,0,1,,,,,,,,,0,,74,0
45600,note_on,0,0,1,,,,,,,,,0,,67,0
45600,note_on,0,0,1,,,,,,,,,0,,69,100
45600,note_on,0,0,1,,,,,,,,,0,,72,100
45600,note_on,0,0,2,,,,,,,,,1,,50,100
45600,note_on,24,0,2,,,,,,,,,1,,51,0
45672,note_on,0,0,2,,,,,,,,,1,,48,100
45672,note_on,0,0,1,,,,,,,,,0,,69,100
45672,note_on,0,0,1,,,,,,,,,0,,69,0
45672,note_on,72,0,1,,,,,,,,,0,,72,0
45672,note_on,72,0,2,,,,,,,,,1,,50,0
45672,note_on,0,0,1,,,,,,,,,0,,72,100
45696,note_on,24,0,2,,,,,,,,,1,,48,0
45696,note_on,0,0,2,,,,,,,,,1,,50,100
45696,note_on,24,0,1,,,,,,,,,0,,72,0
45696,note_on,0,0,1,,,,,,,,,0,,66,100
45696,note_on,0,0,1,,,,,,,,,0,,72,100
45696,note_on,0,0,1,,,,,,,,,0,,69,0
45768,note_on,0,0,1,,,,,,,,,0,,66,100
45768,note_on,0,0,1,,,,,,,,,0,,66,0
45768,note_on,72,0,1,,,,,,,,,0,,72,0
45768,note_on,72,0,2,,,,,,,,,1,,50,0
45768,note_on,0,0,1,,,,,,,,,0,,74,100
45768,note_on,0,0,2,,,,,,,,,1,,54,100
45792,note_on,24,0,2,,,,,,,,,1,,54,0
45792,note_on,0,0,2,,,,,,,,,1,,55,100
45792,note_on,0,0,1,,,,,,,,,0,,67,100
45792,note_on,24,0,1,,,,,,,,,0,,74,0
45792,note_on,0,0,1,,,,,,,,,0,,70,100
45792,note_on,0,0,1,,,,,,,,,0,,66,0
45864,note_on,72,0,2,,,,,,,,,1,,55,0
45864,note_on,0,0,2,,,,,,,,,1,,48,100
45864,note_on,0,0,1,,,,,,,,,0,,69,100
45864,note_on,72,0,1,,,,,,,,,0,,70,0
45888,end_of_track,0,1,0,,,,,,,,,,,,
45888,note_on,24,0,2,,,,,,,,,1,,48,0
45888,note_on,0,0,2,,,,,,,,,1,,50,100
45888,note_on,24,0,1,,,,,,,,,0,,69,0
45888,set_tempo,14016,1,0,,,,,,500000,,,,,,
45888,note_on,0,0,1,,,,,,,,,0,,70,100
45984,note_on,0,0,2,,,,,,,,,1,,38,100
45984,note_on,96,0,2,,,,,,,,,1,,50,0
45984,note_on,96,0,1,,,,,,,,,0,,70,0
45984,note_on,0,0,1,,,,,,,,,0,,67,0
45984,note_on,0,0,1,,,,,,,,,0,,66,100
45984,note_on,0,0,1,,,,,,,,,0,,69,100
46008,note_on,0,0,1,,,,,,,,,0,,70,100
46008,note_on,24,0,1,,,,,,,,,0,,69,0
46032,note_on,0,0,1,,,,,,,,,0,,69,100
46032,note_on,24,0,1,,,,,,,,,0,,70,0
46056,note_on,0,0,1,,,,,,,,,0,,67,100
46056,note_on,24,0,1,,,,,,,,,0,,69,0
46080,note_on,0,0,2,,,,,,,,,1,,43,100
46080,note_on,96,0,2,,,,,,,,,1,,38,0
46080,note_on,0,0,1,,,,,,,,,0,,58,100
46080,note_on,0,0,2,,,,,,,,,1,,55,100
46080,note_on,24,0,1,,,,,,,,,0,,67,0
46080,note_on,0,0,1,,,,,,,,,0,,66,0
46080,note_on,0,0,1,,,,,,,,,0,,67,100
46080,note_on,0,0,1,,,,,,,,,0,,62,100
46080,note_on,0,0,2,,,,,,,,,1,,50,100
46464,note_on,0,0,2,,,,,,,,,1,,55,0
46464,note_on,384,0,2,,,,,,,,,1,,50,0
46464,note_on,0,0,2,,,,,,,,,1,,43,0
46464,note_on,0,0,1,,,,,,,,,0,,62,0
46464,note_on,0,0,1,,,,,,,,,0,,67,0
46464,note_on,384,0,1,,,,,,,,,0,,58,0
46464,end_of_track,0,1,2,,,,,,,,,,,,
46464,end_of_track,0,1,1,,,,,,,,,,,,
