tick,type,time,meta,track,numerator,denominator,clocks_per_click,notated_32nd_notes_per_beat,key,tempo,program,channel,control,value,note,velocity
0,track_name,0,1,0,,,,,,,,,,,,
0,control_change,0,0,1,,,,,,,,0,7,127,,
0,control_change,0,0,1,,,,,,,,0,10,97,,
0,track_name,0,1,2,,,,,,,,,,,,
0,program_change,0,0,2,,,,,,,0,1,,,,
0,control_change,0,0,2,,,,,,,,1,7,127,,
0,control_change,0,0,2,,,,,,,,1,10,97,,
0,track_name,0,1,3,,,,,,,,,,,,
0,program_change,0,0,1,,,,,,,0,0,,,,
0,program_change,0,0,3,,,,,,,0,2,,,,
0,control_change,0,0,3,,,,,,,,2,10,30,,
0,note_on,0,0,3,,,,,,,,2,,,26,101
0,note_on,0,0,3,,,,,,,,2,,,38,101
0,track_name,0,1,4,,,,,,,,,,,,
0,program_change,0,0,4,,,,,,,0,3,,,,
0,control_change,0,0,4,,,,,,,,3,7,127,,
0,control_change,0,0,4,,,,,,,,3,10,30,,
0,control_change,0,0,3,,,,,,,,2,7,127,,
0,track_name,0,1,1,,,,,,,,,,,,
0,end_of_track,0,1,5,,,,,,,,,,,,
0,key_signature,0,1,0,,,,,F,,,,,,,
0,set_tempo,0,1,0,,,,,,555556,,,,,,
0,marker,0,1,0,,,,,,,,,,,,
0,copyright,0,1,0,,,,,,,,,,,,
0,text,0,1,0,,,,,,,,,,,,
0,time_signature,0,1,0,4,4,24,8,,,,,,,,
120,note_on,120,0,1,,,,,,,,0,,,50,75
240,note_on,0,0,1,,,,,,,,0,,,52,75
240,note_on,120,0,1,,,,,,,,0,,,50,0
360,note_on,120,0,1,,,,,,,,0,,,52,0
360,note_on,0,0,1,,,,,,,,0,,,53,75
480,note_on,0,0,1,,,,,,,,0,,,55,75
480,note_on,120,0,1,,,,,,,,0,,,53,0
600,note_on,0,0,1,,,,,,,,0,,,57,75
600,note_on,120,0,1,,,,,,,,0,,,55,0
720,note_on,120,0,1,,,,,,,,0,,,57,0
720,note_on,0,0,1,,,,,,,,0,,,59,88
840,note_on,0,0,1,,,,,,,,0,,,61,88
840,note_on,120,0,1,,,,,,,,0,,,59,0
960,note_on,0,0,1,,,,,,,,0,,,62,88
960,note_on,120,0,1,,,,,,,,0,,,61,0
1080,note_on,120,0,1,,,,,,,,0,,,62,0
1080,note_on,0,0,1,,,,,,,,0,,,64,88
1200,note_on,120,0,1,,,,,,,,0,,,64,0
1200,note_on,0,0,1,,,,,,,,0,,,65,88
1320,note_on,120,0,1,,,,,,,,0,,,65,0
1320,note_on,0,0,1,,,,,,,,0,,,67,88
1440,note_on,0,0,1,,,,,,,,0,,,69,101
1440,note_on,120,0,1,,,,,,,,0,,,67,0
1560,note_on,0,0,1,,,,,,,,0,,,64,101
1560,note_on,120,0,1,,,,,,,,0,,,69,0
1680,note_on,0,0,1,,,,,,,,0,,,65,101
1680,note_on,120,0,1,,,,,,,,0,,,64,0
1800,note_on,0,0,1,,,,,,,,0,,,61,101
1800,note_on,120,0,1,,,,,,,,0,,,65,0
1920,control_change,0,0,1,,,,,,,,0,64,127,,
1920,note_on,120,0,1,,,,,,,,0,,,61,0
1920,note_on,0,0,1,,,,,,,,0,,,62,75
2040,note_on,120,0,1,,,,,,,,0,,,62,0
2040,note_on,0,0,1,,,,,,,,0,,,65,75
2160,note_on,120,0,1,,,,,,,,0,,,65,0
2160,note_on,0,0,1,,,,,,,,0,,,69,75
2280,note_on,120,0,1,,,,,,,,0,,,69,0
2280,note_on,0,0,1,,,,,,,,0,,,74,88
2280,control_change,0,0,1,,,,,,,,0,64,0,,
2400,control_change,0,0,1,,,,,,,,0,64,127,,
2400,note_on,0,0,1,,,,,,,,0,,,64,88
2400,note_on,120,0,1,,,,,,,,0,,,74,0
2520,note_on,120,0,1,,,,,,,,0,,,64,0
2520,note_on,0,0,1,,,,,,,,0,,,67,88
2640,note_on,120,0,1,,,,,,,,0,,,67,0
2640,note_on,0,0,1,,,,,,,,0,,,76,101
2760,control_change,0,0,1,,,,,,,,0,64,0,,
2760,note_on,0,0,1,,,,,,,,0,,,73,101
2760,note_on,120,0,1,,,,,,,,0,,,76,0
2880,note_on,0,0,1,,,,,,,,0,,,74,75
2880,note_on,120,0,1,,,,,,,,0,,,73,0
2880,control_change,0,0,1,,,,,,,,0,64,127,,
3000,note_on,0,0,1,,,,,,,,0,,,69,75
3000,note_on,120,0,1,,,,,,,,0,,,74,0
3120,note_on,0,0,1,,,,,,,,0,,,77,88
3120,note_on,120,0,1,,,,,,,,0,,,69,0
3240,note_on,0,0,1,,,,,,,,0,,,74,88
3240,note_on,120,0,1,,,,,,,,0,,,77,0
3360,note_on,0,0,1,,,,,,,,0,,,81,101
3360,note_on,120,0,1,,,,,,,,0,,,74,0
3480,note_on,120,0,1,,,,,,,,0,,,81,0
3480,note_on,0,0,1,,,,,,,,0,,,76,101
3600,note_on,120,0,1,,,,,,,,0,,,76,0
3600,note_on,0,0,1,,,,,,,,0,,,77,88
3720,note_on,120,0,1,,,,,,,,0,,,77,0
3720,note_on,0,0,1,,,,,,,,0,,,73,88
3720,control_change,0,0,1,,,,,,,,0,64,0,,
3840,note_on,0,0,1,,,,,,,,0,,,74,101
3840,note_on,120,0,1,,,,,,,,0,,,73,0
3960,note_on,0,0,1,,,,,,,,0,,,82,101
3960,note_on,120,0,1,,,,,,,,0,,,74,0
4080,note_on,120,0,1,,,,,,,,0,,,82,0
4080,note_on,0,0,1,,,,,,,,0,,,81,101
4200,note_on,120,0,1,,,,,,,,0,,,81,0
4200,note_on,0,0,1,,,,,,,,0,,,79,88
4320,note_on,0,0,1,,,,,,,,0,,,81,88
4320,note_on,120,0,1,,,,,,,,0,,,79,0
4440,note_on,0,0,1,,,,,,,,0,,,76,75
4440,note_on,120,0,1,,,,,,,,0,,,81,0
4560,note_on,120,0,1,,,,,,,,0,,,76,0
4560,note_on,0,0,1,,,,,,,,0,,,77,75
4680,note_on,120,0,1,,,,,,,,0,,,77,0
4680,note_on,0,0,1,,,,,,,,0,,,79,75
4800,note_on,120,0,1,,,,,,,,0,,,79,0
4800,control_change,0,0,1,,,,,,,,0,64,127,,
4800,note_on,0,0,1,,,,,,,,0,,,77,75
4920,note_on,120,0,1,,,,,,,,0,,,77,0
4920,note_on,0,0,1,,,,,,,,0,,,81,75
5040,note_on,120,0,1,,,,,,,,0,,,81,0
5040,note_on,0,0,1,,,,,,,,0,,,74,75
5160,note_on,120,0,1,,,,,,,,0,,,74,0
5160,note_on,0,0,1,,,,,,,,0,,,77,75
5160,control_change,0,0,1,,,,,,,,0,64,0,,
5280,note_on,120,0,1,,,,,,,,0,,,77,0
5280,control_change,0,0,1,,,,,,,,0,64,127,,
5280,note_on,0,0,1,,,,,,,,0,,,76,88
5400,note_on,120,0,1,,,,,,,,0,,,76,0
5400,note_on,0,0,1,,,,,,,,0,,,79,88
5520,note_on,0,0,1,,,,,,,,0,,,73,88
5520,note_on,120,0,1,,,,,,,,0,,,79,0
5640,control_change,0,0,1,,,,,,,,0,64,0,,
5640,note_on,0,0,1,,,,,,,,0,,,76,88
5640,note_on,120,0,1,,,,,,,,0,,,73,0
5760,note_on,0,0,1,,,,,,,,0,,,74,88
5760,note_on,120,0,1,,,,,,,,0,,,76,0
5880,note_on,0,0,1,,,,,,,,0,,,77,88
5880,note_on,120,0,1,,,,,,,,0,,,74,0
6000,note_on,120,0,1,,,,,,,,0,,,77,0
6000,note_on,0,0,1,,,,,,,,0,,,69,88
6120,note_on,0,0,1,,,,,,,,0,,,72,88
6120,note_on,120,0,1,,,,,,,,0,,,69,0
6240,note_on,0,0,1,,,,,,,,0,,,70,75
6240,control_change,0,0,1,,,,,,,,0,64,127,,
6240,note_on,120,0,1,,,,,,,,0,,,72,0
6240,note_on,6240,0,3,,,,,,,,2,,,38,0
6240,note_on,0,0,3,,,,,,,,2,,,26,0
6360,note_on,0,0,1,,,,,,,,0,,,74,75
6360,note_on,120,0,1,,,,,,,,0,,,70,0
6480,note_on,120,0,1,,,,,,,,0,,,74,0
6480,note_on,0,0,1,,,,,,,,0,,,67,75
6600,note_on,0,0,1,,,,,,,,0,,,70,75
6600,note_on,120,0,1,,,,,,,,0,,,67,0
6720,note_on,0,0,1,,,,,,,,0,,,69,75
6720,note_on,120,0,1,,,,,,,,0,,,70,0
6840,note_on,0,0,1,,,,,,,,0,,,67,75
6840,note_on,120,0,1,,,,,,,,0,,,69,0
6960,note_on,120,0,1,,,,,,,,0,,,67,0
6960,note_on,0,0,1,,,,,,,,0,,,65,75
7080,note_on,0,0,1,,,,,,,,0,,,64,75
7080,control_change,0,0,1,,,,,,,,0,64,0,,
7080,note_on,120,0,1,,,,,,,,0,,,65,0
7200,note_on,120,0,1,,,,,,,,0,,,64,0
7200,note_on,0,0,1,,,,,,,,0,,,65,88
7200,control_change,0,0,1,,,,,,,,0,64,127,,
7320,note_on,120,0,1,,,,,,,,0,,,65,0
7320,note_on,0,0,1,,,,,,,,0,,,69,88
7440,note_on,0,0,1,,,,,,,,0,,,62,88
7440,note_on,120,0,1,,,,,,,,0,,,69,0
7560,note_on,0,0,1,,,,,,,,0,,,65,88
7560,control_change,0,0,1,,,,,,,,0,64,0,,
7560,note_on,120,0,1,,,,,,,,0,,,62,0
7680,note_on,120,0,1,,,,,,,,0,,,65,0
7680,control_change,0,0,1,,,,,,,,0,64,127,,
7680,note_on,0,0,1,,,,,,,,0,,,64,101
7800,note_on,120,0,1,,,,,,,,0,,,64,0
7800,note_on,0,0,1,,,,,,,,0,,,67,101
7920,note_on,0,0,1,,,,,,,,0,,,59,88
7920,note_on,120,0,1,,,,,,,,0,,,67,0
8040,note_on,120,0,1,,,,,,,,0,,,59,0
8040,control_change,0,0,1,,,,,,,,0,64,0,,
8040,note_on,0,0,1,,,,,,,,0,,,62,88
8160,note_on,120,0,1,,,,,,,,0,,,62,0
8160,note_on,0,0,1,,,,,,,,0,,,61,88
8160,control_change,0,0,1,,,,,,,,0,64,127,,
8280,note_on,120,0,1,,,,,,,,0,,,61,0
8280,note_on,0,0,1,,,,,,,,0,,,69,88
8400,note_on,0,0,1,,,,,,,,0,,,64,75
8400,note_on,120,0,1,,,,,,,,0,,,69,0
8520,note_on,0,0,1,,,,,,,,0,,,67,75
8520,control_change,0,0,1,,,,,,,,0,64,0,,
8520,note_on,120,0,1,,,,,,,,0,,,64,0
8640,note_on,0,0,1,,,,,,,,0,,,65,75
8640,control_change,0,0,1,,,,,,,,0,64,127,,
8640,note_on,120,0,1,,,,,,,,0,,,67,0
8760,note_on,120,0,1,,,,,,,,0,,,65,0
8760,note_on,0,0,1,,,,,,,,0,,,61,75
8880,note_on,120,0,1,,,,,,,,0,,,61,0
8880,note_on,0,0,1,,,,,,,,0,,,62,75
9000,note_on,120,0,1,,,,,,,,0,,,62,0
9000,note_on,0,0,1,,,,,,,,0,,,64,75
9120,note_on,120,0,1,,,,,,,,0,,,64,0
9120,note_on,0,0,1,,,,,,,,0,,,62,75
9240,note_on,0,0,1,,,,,,,,0,,,57,75
9240,note_on,120,0,1,,,,,,,,0,,,62,0
9360,note_on,120,0,1,,,,,,,,0,,,57,0
9360,note_on,0,0,1,,,,,,,,0,,,58,75
9480,note_on,0,0,1,,,,,,,,0,,,60,75
9480,note_on,120,0,1,,,,,,,,0,,,58,0
9600,note_on,120,0,1,,,,,,,,0,,,60,0
9600,note_on,0,0,1,,,,,,,,0,,,58,62
9720,note_on,0,0,1,,,,,,,,0,,,57,62
9720,note_on,120,0,1,,,,,,,,0,,,58,0
9840,note_on,120,0,1,,,,,,,,0,,,57,0
9840,note_on,0,0,1,,,,,,,,0,,,55,62
9960,note_on,0,0,1,,,,,,,,0,,,58,62
9960,note_on,120,0,1,,,,,,,,0,,,55,0
10080,note_on,120,0,1,,,,,,,,0,,,58,0
10080,note_on,0,0,1,,,,,,,,0,,,57,62
10200,note_on,0,0,1,,,,,,,,0,,,55,62
10200,note_on,120,0,1,,,,,,,,0,,,57,0
10320,note_on,0,0,1,,,,,,,,0,,,53,62
10320,note_on,120,0,1,,,,,,,,0,,,55,0
10440,note_on,120,0,1,,,,,,,,0,,,53,0
10440,control_change,0,0,1,,,,,,,,0,64,0,,
10440,note_on,0,0,1,,,,,,,,0,,,52,62
10560,note_on,120,0,1,,,,,,,,0,,,52,0
10560,note_on,0,0,1,,,,,,,,0,,,53,62
10560,control_change,0,0,1,,,,,,,,0,64,127,,
10680,note_on,0,0,1,,,,,,,,0,,,57,62
10680,note_on,120,0,1,,,,,,,,0,,,53,0
10800,note_on,120,0,1,,,,,,,,0,,,57,0
10800,note_on,0,0,1,,,,,,,,0,,,49,62
10920,note_on,120,0,1,,,,,,,,0,,,49,0
10920,control_change,0,0,1,,,,,,,,0,64,0,,
10920,note_on,0,0,1,,,,,,,,0,,,52,62
11040,note_on,120,0,1,,,,,,,,0,,,52,0
11040,note_on,0,0,1,,,,,,,,0,,,50,62
11160,note_on,0,0,1,,,,,,,,0,,,53,62
11160,note_on,120,0,1,,,,,,,,0,,,50,0
11280,note_on,0,0,1,,,,,,,,0,,,45,62
11280,note_on,120,0,1,,,,,,,,0,,,53,0
11400,note_on,0,0,1,,,,,,,,0,,,48,62
11400,note_on,120,0,1,,,,,,,,0,,,45,0
11520,note_on,120,0,1,,,,,,,,0,,,48,0
11520,control_change,0,0,1,,,,,,,,0,64,127,,
11520,note_on,0,0,1,,,,,,,,0,,,46,62
11640,note_on,120,0,1,,,,,,,,0,,,46,0
11640,note_on,0,0,1,,,,,,,,0,,,50,62
11760,note_on,0,0,1,,,,,,,,0,,,55,75
11760,note_on,120,0,1,,,,,,,,0,,,50,0
11880,note_on,120,0,1,,,,,,,,0,,,55,0
11880,note_on,0,0,1,,,,,,,,0,,,58,75
12000,note_on,0,0,1,,,,,,,,0,,,62,75
12000,note_on,120,0,1,,,,,,,,0,,,58,0
12120,note_on,120,0,1,,,,,,,,0,,,62,0
12120,note_on,0,0,1,,,,,,,,0,,,67,88
12240,note_on,0,0,1,,,,,,,,0,,,70,88
12240,note_on,120,0,1,,,,,,,,0,,,67,0
12360,note_on,0,0,1,,,,,,,,0,,,74,101
12360,note_on,120,0,1,,,,,,,,0,,,70,0
12480,note_on,120,0,1,,,,,,,,0,,,74,0
12480,note_on,0,0,1,,,,,,,,0,,,79,101
12600,note_on,120,0,1,,,,,,,,0,,,79,0
12600,note_on,0,0,1,,,,,,,,0,,,74,101
12720,note_on,120,0,1,,,,,,,,0,,,74,0
12720,note_on,0,0,1,,,,,,,,0,,,70,88
12840,note_on,0,0,1,,,,,,,,0,,,67,88
12840,note_on,120,0,1,,,,,,,,0,,,70,0
12960,note_on,120,0,1,,,,,,,,0,,,67,0
12960,note_on,0,0,1,,,,,,,,0,,,62,88
13080,note_on,0,0,1,,,,,,,,0,,,58,75
13080,note_on,120,0,1,,,,,,,,0,,,62,0
13200,note_on,120,0,1,,,,,,,,0,,,58,0
13200,note_on,0,0,1,,,,,,,,0,,,55,75
13320,note_on,120,0,1,,,,,,,,0,,,55,0
13320,note_on,0,0,1,,,,,,,,0,,,50,75
13440,note_on,120,0,1,,,,,,,,0,,,50,0
13440,note_on,0,0,1,,,,,,,,0,,,46,62
13560,note_on,0,0,1,,,,,,,,0,,,50,62
13560,note_on,120,0,1,,,,,,,,0,,,46,0
13680,note_on,120,0,1,,,,,,,,0,,,50,0
13680,note_on,0,0,1,,,,,,,,0,,,55,75
13800,note_on,120,0,1,,,,,,,,0,,,55,0
13800,note_on,0,0,1,,,,,,,,0,,,58,75
13920,note_on,7680,0,3,,,,,,,,2,,,42,101
13920,note_on,120,0,1,,,,,,,,0,,,58,0
13920,note_on,0,0,1,,,,,,,,0,,,58,88
14040,note_on,0,0,1,,,,,,,,0,,,67,88
14040,note_on,120,0,1,,,,,,,,0,,,58,0
14160,note_on,0,0,1,,,,,,,,0,,,70,101
14160,note_on,120,0,1,,,,,,,,0,,,67,0
14280,note_on,0,0,1,,,,,,,,0,,,74,101
14280,control_change,0,0,1,,,,,,,,0,64,0,,
14280,note_on,120,0,1,,,,,,,,0,,,70,0
14400,note_on,120,0,1,,,,,,,,0,,,74,0
14400,control_change,0,0,1,,,,,,,,0,64,127,,
14400,note_on,0,0,1,,,,,,,,0,,,69,101
14520,note_on,120,0,1,,,,,,,,0,,,69,0
14520,note_on,0,0,1,,,,,,,,0,,,81,88
14640,note_on,120,0,1,,,,,,,,0,,,81,0
14640,note_on,0,0,1,,,,,,,,0,,,78,88
14760,note_on,0,0,1,,,,,,,,0,,,74,88
14760,note_on,120,0,1,,,,,,,,0,,,78,0
14880,note_on,120,0,1,,,,,,,,0,,,74,0
14880,note_on,0,0,1,,,,,,,,0,,,69,75
15000,note_on,120,0,1,,,,,,,,0,,,69,0
15000,note_on,0,0,1,,,,,,,,0,,,66,75
15120,note_on,0,0,1,,,,,,,,0,,,62,75
15120,note_on,120,0,1,,,,,,,,0,,,66,0
15240,note_on,120,0,1,,,,,,,,0,,,62,0
15240,note_on,0,0,1,,,,,,,,0,,,60,62
15360,note_on,0,0,1,,,,,,,,0,,,57,62
15360,note_on,120,0,1,,,,,,,,0,,,60,0
15360,note_on,1440,0,3,,,,,,,,2,,,42,0
15440,note_on,0,0,1,,,,,,,,0,,,54,62
15440,note_on,80,0,1,,,,,,,,0,,,57,0
15519,note_on,79,0,1,,,,,,,,0,,,54,0
15519,note_on,0,0,1,,,,,,,,0,,,50,62
15600,note_on,81,0,1,,,,,,,,0,,,50,0
15600,note_on,0,0,1,,,,,,,,0,,,54,62
15680,note_on,0,0,1,,,,,,,,0,,,57,62
15680,note_on,80,0,1,,,,,,,,0,,,54,0
15759,note_on,79,0,1,,,,,,,,0,,,57,0
15759,note_on,0,0,1,,,,,,,,0,,,60,62
15840,note_on,0,0,1,,,,,,,,0,,,66,62
15840,note_on,81,0,1,,,,,,,,0,,,60,0
15840,note_on,480,0,3,,,,,,,,2,,,38,101
15920,note_on,80,0,1,,,,,,,,0,,,66,0
15920,note_on,0,0,1,,,,,,,,0,,,69,75
15999,note_on,79,0,1,,,,,,,,0,,,69,0
15999,note_on,0,0,1,,,,,,,,0,,,72,75
16080,note_on,81,0,1,,,,,,,,0,,,72,0
16080,note_on,0,0,1,,,,,,,,0,,,74,75
16160,note_on,0,0,1,,,,,,,,0,,,78,88
16160,note_on,80,0,1,,,,,,,,0,,,74,0
16239,control_change,0,0,1,,,,,,,,0,64,0,,
16239,note_on,79,0,1,,,,,,,,0,,,78,0
16239,note_on,0,0,1,,,,,,,,0,,,81,88
16320,note_on,81,0,1,,,,,,,,0,,,81,0
16320,control_change,0,0,1,,,,,,,,0,64,127,,
16320,note_on,0,0,1,,,,,,,,0,,,84,88
16440,note_on,120,0,1,,,,,,,,0,,,84,0
16440,note_on,0,0,1,,,,,,,,0,,,81,88
16560,note_on,120,0,1,,,,,,,,0,,,81,0
16560,note_on,0,0,1,,,,,,,,0,,,78,88
16680,note_on,0,0,1,,,,,,,,0,,,74,88
16680,note_on,120,0,1,,,,,,,,0,,,78,0
16800,note_on,120,0,1,,,,,,,,0,,,74,0
16800,note_on,0,0,1,,,,,,,,0,,,72,88
16920,note_on,0,0,1,,,,,,,,0,,,69,88
16920,note_on,120,0,1,,,,,,,,0,,,72,0
17040,note_on,0,0,1,,,,,,,,0,,,66,88
17040,note_on,120,0,1,,,,,,,,0,,,69,0
17160,note_on,0,0,1,,,,,,,,0,,,62,88
17160,note_on,120,0,1,,,,,,,,0,,,66,0
17280,note_on,1440,0,3,,,,,,,,2,,,38,0
17280,note_on,120,0,1,,,,,,,,0,,,62,0
17280,note_on,0,0,1,,,,,,,,0,,,60,88
17400,note_on,120,0,1,,,,,,,,0,,,60,0
17400,note_on,0,0,1,,,,,,,,0,,,57,88
17520,note_on,0,0,1,,,,,,,,0,,,54,88
17520,note_on,120,0,1,,,,,,,,0,,,57,0
17640,note_on,120,0,1,,,,,,,,0,,,54,0
17640,note_on,0,0,1,,,,,,,,0,,,50,88
17760,note_on,120,0,1,,,,,,,,0,,,50,0
17760,note_on,0,0,1,,,,,,,,0,,,54,88
17880,note_on,120,0,1,,,,,,,,0,,,54,0
17880,note_on,0,0,1,,,,,,,,0,,,57,88
18000,note_on,120,0,1,,,,,,,,0,,,57,0
18000,note_on,0,0,1,,,,,,,,0,,,60,88
18120,note_on,120,0,1,,,,,,,,0,,,60,0
18120,note_on,0,0,1,,,,,,,,0,,,66,88
18240,note_on,0,0,1,,,,,,,,0,,,69,88
18240,note_on,120,0,1,,,,,,,,0,,,66,0
18360,note_on,120,0,1,,,,,,,,0,,,69,0
18360,note_on,0,0,1,,,,,,,,0,,,72,88
18480,note_on,120,0,1,,,,,,,,0,,,72,0
18480,note_on,0,0,1,,,,,,,,0,,,74,88
18600,note_on,120,0,1,,,,,,,,0,,,74,0
18600,note_on,0,0,1,,,,,,,,0,,,78,88
18720,note_on,120,0,1,,,,,,,,0,,,78,0
18720,note_on,0,0,1,,,,,,,,0,,,81,88
18840,note_on,120,0,1,,,,,,,,0,,,81,0
18840,note_on,0,0,1,,,,,,,,0,,,84,88
18960,note_on,120,0,1,,,,,,,,0,,,84,0
18960,note_on,0,0,1,,,,,,,,0,,,82,88
19080,note_on,0,0,1,,,,,,,,0,,,81,88
19080,note_on,120,0,1,,,,,,,,0,,,82,0
19080,control_change,0,0,1,,,,,,,,0,64,0,,
19200,note_on,120,0,1,,,,,,,,0,,,81,0
19200,note_on,0,0,1,,,,,,,,0,,,82,88
19200,note_on,1920,0,3,,,,,,,,2,,,43,88
19200,control_change,0,0,1,,,,,,,,0,64,127,,
19320,note_on,0,0,1,,,,,,,,0,,,79,88
19320,note_on,120,0,1,,,,,,,,0,,,82,0
19440,note_on,120,0,1,,,,,,,,0,,,79,0
19440,note_on,0,0,1,,,,,,,,0,,,74,88
19560,note_on,120,0,1,,,,,,,,0,,,74,0
19560,note_on,0,0,1,,,,,,,,0,,,70,88
19680,note_on,120,0,1,,,,,,,,0,,,70,0
19680,note_on,0,0,1,,,,,,,,0,,,67,75
19800,note_on,0,0,1,,,,,,,,0,,,62,75
19800,note_on,120,0,1,,,,,,,,0,,,67,0
19920,note_on,120,0,1,,,,,,,,0,,,62,0
19920,note_on,0,0,1,,,,,,,,0,,,58,75
20040,note_on,120,0,1,,,,,,,,0,,,58,0
20040,note_on,0,0,1,,,,,,,,0,,,55,75
20160,note_on,0,0,1,,,,,,,,0,,,50,62
20160,note_on,120,0,1,,,,,,,,0,,,55,0
20240,note_on,0,0,1,,,,,,,,0,,,46,62
20240,note_on,80,0,1,,,,,,,,0,,,50,0
20319,note_on,79,0,1,,,,,,,,0,,,46,0
20319,note_on,0,0,1,,,,,,,,0,,,43,62
20400,note_on,81,0,1,,,,,,,,0,,,43,0
20400,note_on,0,0,1,,,,,,,,0,,,46,62
20480,note_on,80,0,1,,,,,,,,0,,,46,0
20480,note_on,0,0,1,,,,,,,,0,,,50,62
20559,note_on,79,0,1,,,,,,,,0,,,50,0
20559,note_on,0,0,1,,,,,,,,0,,,55,75
20640,note_on,81,0,1,,,,,,,,0,,,55,0
20640,note_on,0,0,1,,,,,,,,0,,,58,75
20720,note_on,80,0,1,,,,,,,,0,,,58,0
20720,note_on,0,0,1,,,,,,,,0,,,62,75
20799,note_on,79,0,1,,,,,,,,0,,,62,0
20799,note_on,0,0,1,,,,,,,,0,,,67,75
20880,note_on,81,0,1,,,,,,,,0,,,67,0
20880,note_on,0,0,1,,,,,,,,0,,,70,88
20960,note_on,0,0,1,,,,,,,,0,,,74,88
20960,note_on,80,0,1,,,,,,,,0,,,70,0
21039,note_on,79,0,1,,,,,,,,0,,,74,0
21039,note_on,0,0,1,,,,,,,,0,,,79,88
21039,control_change,0,0,1,,,,,,,,0,64,0,,
21120,note_on,1920,0,3,,,,,,,,2,,,43,0
21120,note_on,0,0,3,,,,,,,,2,,,36,88
21120,note_on,0,0,1,,,,,,,,0,,,82,88
21120,note_on,0,0,3,,,,,,,,2,,,48,88
21120,control_change,0,0,1,,,,,,,,0,64,127,,
21120,note_on,81,0,1,,,,,,,,0,,,79,0
21240,note_on,120,0,1,,,,,,,,0,,,82,0
21240,note_on,0,0,1,,,,,,,,0,,,79,88
21360,note_on,0,0,1,,,,,,,,0,,,76,75
21360,note_on,120,0,1,,,,,,,,0,,,79,0
21440,note_on,0,0,1,,,,,,,,0,,,72,75
21440,note_on,80,0,1,,,,,,,,0,,,76,0
21519,note_on,79,0,1,,,,,,,,0,,,72,0
21519,note_on,0,0,1,,,,,,,,0,,,70,75
21600,note_on,81,0,1,,,,,,,,0,,,70,0
21600,note_on,0,0,1,,,,,,,,0,,,67,75
21680,note_on,80,0,1,,,,,,,,0,,,67,0
21680,note_on,0,0,1,,,,,,,,0,,,64,75
21759,note_on,79,0,1,,,,,,,,0,,,64,0
21759,note_on,0,0,1,,,,,,,,0,,,60,62
21840,note_on,0,0,1,,,,,,,,0,,,58,62
21840,note_on,81,0,1,,,,,,,,0,,,60,0
21920,note_on,0,0,1,,,,,,,,0,,,55,62
21920,note_on,80,0,1,,,,,,,,0,,,58,0
21999,note_on,79,0,1,,,,,,,,0,,,55,0
21999,note_on,0,0,1,,,,,,,,0,,,52,62
22080,note_on,81,0,1,,,,,,,,0,,,52,0
22080,note_on,0,0,1,,,,,,,,0,,,48,62
22160,note_on,80,0,1,,,,,,,,0,,,48,0
22160,note_on,0,0,1,,,,,,,,0,,,52,62
22239,note_on,79,0,1,,,,,,,,0,,,52,0
22239,note_on,0,0,1,,,,,,,,0,,,55,62
22320,note_on,81,0,1,,,,,,,,0,,,55,0
22320,note_on,0,0,1,,,,,,,,0,,,58,75
22400,note_on,0,0,1,,,,,,,,0,,,60,75
22400,note_on,80,0,1,,,,,,,,0,,,58,0
22479,note_on,79,0,1,,,,,,,,0,,,60,0
22479,note_on,0,0,1,,,,,,,,0,,,64,75
22560,note_on,81,0,1,,,,,,,,0,,,64,0
22560,note_on,0,0,1,,,,,,,,0,,,67,75
22640,note_on,80,0,1,,,,,,,,0,,,67,0
22640,note_on,0,0,1,,,,,,,,0,,,70,75
22719,note_on,79,0,1,,,,,,,,0,,,70,0
22719,note_on,0,0,1,,,,,,,,0,,,72,88
22800,note_on,0,0,1,,,,,,,,0,,,76,88
22800,note_on,81,0,1,,,,,,,,0,,,72,0
22880,note_on,0,0,1,,,,,,,,0,,,79,88
22880,note_on,80,0,1,,,,,,,,0,,,76,0
22959,note_on,79,0,1,,,,,,,,0,,,79,0
22959,control_change,0,0,1,,,,,,,,0,64,0,,
22959,note_on,0,0,1,,,,,,,,0,,,82,88
23040,note_on,0,0,3,,,,,,,,2,,,36,88
23040,note_on,0,0,3,,,,,,,,2,,,36,0
23040,note_on,1920,0,3,,,,,,,,2,,,48,0
23040,control_change,0,0,1,,,,,,,,0,64,127,,
23040,note_on,81,0,1,,,,,,,,0,,,82,0
23040,note_on,0,0,3,,,,,,,,2,,,48,88
23040,note_on,0,0,1,,,,,,,,0,,,81,88
23120,note_on,80,0,1,,,,,,,,0,,,81,0
23120,note_on,0,0,1,,,,,,,,0,,,77,88
23199,note_on,79,0,1,,,,,,,,0,,,77,0
23199,note_on,0,0,1,,,,,,,,0,,,72,88
23280,note_on,0,0,1,,,,,,,,0,,,69,75
23280,note_on,81,0,1,,,,,,,,0,,,72,0
23360,note_on,0,0,1,,,,,,,,0,,,65,75
23360,note_on,80,0,1,,,,,,,,0,,,69,0
23439,note_on,79,0,1,,,,,,,,0,,,65,0
23439,note_on,0,0,1,,,,,,,,0,,,60,75
23520,note_on,81,0,1,,,,,,,,0,,,60,0
23520,note_on,0,0,1,,,,,,,,0,,,57,62
23600,note_on,0,0,1,,,,,,,,0,,,53,62
23600,note_on,80,0,1,,,,,,,,0,,,57,0
23679,note_on,0,0,1,,,,,,,,0,,,48,62
23679,note_on,79,0,1,,,,,,,,0,,,53,0
23760,note_on,0,0,1,,,,,,,,0,,,53,62
23760,note_on,81,0,1,,,,,,,,0,,,48,0
23840,note_on,0,0,1,,,,,,,,0,,,57,62
23840,note_on,80,0,1,,,,,,,,0,,,53,0
23919,note_on,79,0,1,,,,,,,,0,,,57,0
23919,note_on,0,0,1,,,,,,,,0,,,60,62
24000,note_on,81,0,1,,,,,,,,0,,,60,0
24000,note_on,0,0,1,,,,,,,,0,,,65,62
24080,note_on,0,0,1,,,,,,,,0,,,69,62
24080,note_on,80,0,1,,,,,,,,0,,,65,0
24159,note_on,0,0,1,,,,,,,,0,,,60,62
24159,note_on,79,0,1,,,,,,,,0,,,69,0
24240,note_on,0,0,1,,,,,,,,0,,,65,75
24240,note_on,81,0,1,,,,,,,,0,,,60,0
24320,note_on,80,0,1,,,,,,,,0,,,65,0
24320,control_change,0,0,1,,,,,,,,0,64,0,,
24320,note_on,0,0,1,,,,,,,,0,,,69,75
24399,note_on,79,0,1,,,,,,,,0,,,69,0
24399,note_on,0,0,1,,,,,,,,0,,,72,75
24480,note_on,81,0,1,,,,,,,,0,,,72,0
24480,note_on,0,0,1,,,,,,,,0,,,77,75
24560,note_on,0,0,1,,,,,,,,0,,,76,75
24560,note_on,80,0,1,,,,,,,,0,,,77,0
24639,note_on,0,0,1,,,,,,,,0,,,74,88
24639,note_on,79,0,1,,,,,,,,0,,,76,0
24720,note_on,81,0,1,,,,,,,,0,,,74,0
24720,note_on,0,0,1,,,,,,,,0,,,72,88
24780,note_on,0,0,1,,,,,,,,0,,,81,88
24780,note_on,60,0,1,,,,,,,,0,,,72,0
24840,note_on,0,0,1,,,,,,,,0,,,79,88
24840,note_on,60,0,1,,,,,,,,0,,,81,0
24900,note_on,60,0,1,,,,,,,,0,,,79,0
24900,note_on,0,0,1,,,,,,,,0,,,77,88
24960,note_on,0,0,1,,,,,,,,0,,,76,88
24960,control_change,0,0,1,,,,,,,,0,64,127,,
24960,note_on,1920,0,3,,,,,,,,2,,,48,0
24960,note_on,0,0,3,,,,,,,,2,,,36,0
24960,note_on,60,0,1,,,,,,,,0,,,77,0
25020,note_on,0,0,1,,,,,,,,0,,,74,88
25020,note_on,60,0,1,,,,,,,,0,,,76,0
25080,note_on,0,0,1,,,,,,,,0,,,72,88
25080,note_on,60,0,1,,,,,,,,0,,,74,0
25140,note_on,0,0,1,,,,,,,,0,,,70,88
25140,note_on,60,0,1,,,,,,,,0,,,72,0
25200,note_on,60,0,1,,,,,,,,0,,,70,0
25200,note_on,0,0,1,,,,,,,,0,,,69,88
25260,note_on,60,0,1,,,,,,,,0,,,69,0
25260,note_on,0,0,1,,,,,,,,0,,,67,88
25320,note_on,60,0,1,,,,,,,,0,,,67,0
25320,note_on,0,0,1,,,,,,,,0,,,65,88
25380,note_on,60,0,1,,,,,,,,0,,,65,0
25380,note_on,0,0,1,,,,,,,,0,,,64,88
25440,note_on,0,0,1,,,,,,,,0,,,62,75
25440,note_on,60,0,1,,,,,,,,0,,,64,0
25500,note_on,0,0,1,,,,,,,,0,,,60,75
25500,note_on,60,0,1,,,,,,,,0,,,62,0
25560,note_on,0,0,1,,,,,,,,0,,,58,75
25560,note_on,60,0,1,,,,,,,,0,,,60,0
25620,note_on,0,0,1,,,,,,,,0,,,57,75
25620,note_on,60,0,1,,,,,,,,0,,,58,0
25680,note_on,60,0,1,,,,,,,,0,,,57,0
25680,note_on,0,0,1,,,,,,,,0,,,55,62
25740,note_on,60,0,1,,,,,,,,0,,,55,0
25740,note_on,0,0,1,,,,,,,,0,,,53,62
25800,note_on,60,0,1,,,,,,,,0,,,53,0
25800,note_on,0,0,1,,,,,,,,0,,,52,62
25860,note_on,0,0,1,,,,,,,,0,,,50,62
25860,note_on,60,0,1,,,,,,,,0,,,52,0
25920,note_on,0,0,1,,,,,,,,0,,,48,62
25920,note_on,60,0,1,,,,,,,,0,,,50,0
26040,note_on,120,0,1,,,,,,,,0,,,48,0
26040,note_on,0,0,1,,,,,,,,0,,,52,62
26160,note_on,0,0,1,,,,,,,,0,,,55,75
26160,note_on,120,0,1,,,,,,,,0,,,52,0
26280,note_on,0,0,1,,,,,,,,0,,,58,75
26280,note_on,120,0,1,,,,,,,,0,,,55,0
26400,note_on,0,0,1,,,,,,,,0,,,64,75
26400,note_on,120,0,1,,,,,,,,0,,,58,0
26520,note_on,120,0,1,,,,,,,,0,,,64,0
26520,note_on,0,0,1,,,,,,,,0,,,67,88
26640,note_on,120,0,1,,,,,,,,0,,,67,0
26640,note_on,0,0,1,,,,,,,,0,,,70,88
26760,note_on,120,0,1,,,,,,,,0,,,70,0
26760,note_on,0,0,1,,,,,,,,0,,,76,88
26760,control_change,0,0,1,,,,,,,,0,64,0,,
26880,note_on,0,0,3,,,,,,,,2,,,49,88
26880,note_on,1920,0,3,,,,,,,,2,,,37,88
26880,note_on,0,0,1,,,,,,,,0,,,79,88
26880,control_change,0,0,1,,,,,,,,0,64,127,,
26880,note_on,120,0,1,,,,,,,,0,,,76,0
27000,note_on,0,0,1,,,,,,,,0,,,76,88
27000,note_on,120,0,1,,,,,,,,0,,,79,0
27120,note_on,0,0,1,,,,,,,,0,,,73,88
27120,note_on,120,0,1,,,,,,,,0,,,76,0
27240,note_on,120,0,1,,,,,,,,0,,,73,0
27240,note_on,0,0,1,,,,,,,,0,,,67,88
27360,note_on,120,0,1,,,,,,,,0,,,67,0
27360,note_on,0,0,1,,,,,,,,0,,,64,75
27440,note_on,80,0,1,,,,,,,,0,,,64,0
27440,note_on,0,0,1,,,,,,,,0,,,61,75
27519,note_on,0,0,1,,,,,,,,0,,,57,75
27519,note_on,79,0,1,,,,,,,,0,,,61,0
27600,note_on,0,0,1,,,,,,,,0,,,55,75
27600,note_on,81,0,1,,,,,,,,0,,,57,0
27680,note_on,0,0,1,,,,,,,,0,,,52,62
27680,note_on,80,0,1,,,,,,,,0,,,55,0
27759,note_on,0,0,1,,,,,,,,0,,,49,62
27759,note_on,79,0,1,,,,,,,,0,,,52,0
27840,note_on,0,0,1,,,,,,,,0,,,45,62
27840,note_on,81,0,1,,,,,,,,0,,,49,0
27920,note_on,80,0,1,,,,,,,,0,,,45,0
27920,note_on,0,0,1,,,,,,,,0,,,49,62
27999,note_on,79,0,1,,,,,,,,0,,,49,0
27999,note_on,0,0,1,,,,,,,,0,,,52,62
28080,note_on,0,0,1,,,,,,,,0,,,55,75
28080,note_on,81,0,1,,,,,,,,0,,,52,0
28160,note_on,0,0,1,,,,,,,,0,,,61,75
28160,note_on,80,0,1,,,,,,,,0,,,55,0
28239,note_on,0,0,1,,,,,,,,0,,,64,75
28239,note_on,79,0,1,,,,,,,,0,,,61,0
28320,note_on,0,0,1,,,,,,,,0,,,67,75
28320,note_on,81,0,1,,,,,,,,0,,,64,0
28400,note_on,0,0,1,,,,,,,,0,,,69,75
28400,note_on,80,0,1,,,,,,,,0,,,67,0
28479,note_on,0,0,1,,,,,,,,0,,,73,88
28479,note_on,79,0,1,,,,,,,,0,,,69,0
28560,note_on,0,0,1,,,,,,,,0,,,76,88
28560,note_on,81,0,1,,,,,,,,0,,,73,0
28620,note_on,0,0,1,,,,,,,,0,,,79,88
28620,note_on,60,0,1,,,,,,,,0,,,76,0
28680,note_on,60,0,1,,,,,,,,0,,,79,0
28680,note_on,0,0,1,,,,,,,,0,,,81,88
28740,note_on,0,0,1,,,,,,,,0,,,76,88
28740,control_change,0,0,1,,,,,,,,0,64,0,,
28740,note_on,60,0,1,,,,,,,,0,,,81,0
28800,note_on,0,0,3,,,,,,,,2,,,50,88
28800,note_on,0,0,3,,,,,,,,2,,,37,0
28800,note_on,1920,0,3,,,,,,,,2,,,49,0
28800,note_on,0,0,1,,,,,,,,0,,,77,101
28800,control_change,0,0,1,,,,,,,,0,64,127,,
28800,note_on,60,0,1,,,,,,,,0,,,76,0
28800,note_on,0,0,3,,,,,,,,2,,,38,88
28860,note_on,0,0,1,,,,,,,,0,,,73,101
28860,note_on,60,0,1,,,,,,,,0,,,77,0
28920,note_on,60,0,1,,,,,,,,0,,,73,0
28920,note_on,0,0,1,,,,,,,,0,,,74,101
28980,note_on,60,0,1,,,,,,,,0,,,74,0
28980,note_on,0,0,1,,,,,,,,0,,,77,101
29040,note_on,0,0,1,,,,,,,,0,,,69,101
29040,note_on,60,0,1,,,,,,,,0,,,77,0
29100,note_on,0,0,1,,,,,,,,0,,,74,101
29100,note_on,60,0,1,,,,,,,,0,,,69,0
29160,note_on,0,0,1,,,,,,,,0,,,65,101
29160,note_on,60,0,1,,,,,,,,0,,,74,0
29220,note_on,0,0,1,,,,,,,,0,,,69,101
29220,note_on,60,0,1,,,,,,,,0,,,65,0
29280,note_on,0,0,1,,,,,,,,0,,,62,88
29280,note_on,60,0,1,,,,,,,,0,,,69,0
29400,note_on,0,0,1,,,,,,,,0,,,65,88
29400,note_on,120,0,1,,,,,,,,0,,,62,0
29520,note_on,120,0,1,,,,,,,,0,,,65,0
29520,note_on,0,0,1,,,,,,,,0,,,57,88
29640,note_on,120,0,1,,,,,,,,0,,,57,0
29640,note_on,0,0,1,,,,,,,,0,,,62,88
29760,note_on,120,0,1,,,,,,,,0,,,62,0
29760,note_on,0,0,1,,,,,,,,0,,,53,75
29880,note_on,120,0,1,,,,,,,,0,,,53,0
29880,note_on,0,0,1,,,,,,,,0,,,57,75
30000,note_on,120,0,1,,,,,,,,0,,,57,0
30000,note_on,0,0,1,,,,,,,,0,,,50,75
30080,note_on,0,0,1,,,,,,,,0,,,53,75
30080,note_on,80,0,1,,,,,,,,0,,,50,0
30159,note_on,79,0,1,,,,,,,,0,,,53,0
30159,note_on,0,0,1,,,,,,,,0,,,57,75
30240,note_on,81,0,1,,,,,,,,0,,,57,0
30240,note_on,0,0,1,,,,,,,,0,,,62,88
30320,note_on,80,0,1,,,,,,,,0,,,62,0
30320,note_on,0,0,1,,,,,,,,0,,,65,88
30399,note_on,0,0,1,,,,,,,,0,,,69,88
30399,note_on,79,0,1,,,,,,,,0,,,65,0
30480,note_on,0,0,1,,,,,,,,0,,,74,101
30480,note_on,81,0,1,,,,,,,,0,,,69,0
30560,note_on,0,0,1,,,,,,,,0,,,77,101
30560,note_on,80,0,1,,,,,,,,0,,,74,0
30639,control_change,0,0,1,,,,,,,,0,64,0,,
30639,note_on,0,0,1,,,,,,,,0,,,69,101
30639,note_on,79,0,1,,,,,,,,0,,,77,0
30720,control_change,0,0,1,,,,,,,,0,64,127,,
30720,note_on,0,0,3,,,,,,,,2,,,43,88
30720,note_on,0,0,1,,,,,,,,0,,,70,101
30720,note_on,0,0,3,,,,,,,,2,,,55,88
30720,note_on,81,0,1,,,,,,,,0,,,69,0
30720,note_on,1920,0,3,,,,,,,,2,,,50,0
30720,note_on,0,0,3,,,,,,,,2,,,38,0
30720,note_on,0,0,3,,,,,,,,2,,,31,88
30800,note_on,0,0,1,,,,,,,,0,,,74,101
30800,note_on,80,0,1,,,,,,,,0,,,70,0
30879,note_on,0,0,1,,,,,,,,0,,,66,101
30879,note_on,79,0,1,,,,,,,,0,,,74,0
30960,note_on,0,0,1,,,,,,,,0,,,67,101
30960,note_on,81,0,1,,,,,,,,0,,,66,0
31040,note_on,0,0,1,,,,,,,,0,,,70,101
31040,note_on,80,0,1,,,,,,,,0,,,67,0
31119,control_change,0,0,1,,,,,,,,0,64,0,,
31119,note_on,79,0,1,,,,,,,,0,,,70,0
31119,note_on,0,0,1,,,,,,,,0,,,62,101
31200,note_on,0,0,1,,,,,,,,0,,,63,88
31200,note_on,81,0,1,,,,,,,,0,,,62,0
31200,control_change,0,0,1,,,,,,,,0,64,127,,
31260,note_on,60,0,1,,,,,,,,0,,,63,0
31260,note_on,0,0,1,,,,,,,,0,,,67,88
31320,note_on,0,0,1,,,,,,,,0,,,58,88
31320,note_on,60,0,1,,,,,,,,0,,,67,0
31380,note_on,0,0,1,,,,,,,,0,,,63,88
31380,note_on,60,0,1,,,,,,,,0,,,58,0
31440,note_on,0,0,1,,,,,,,,0,,,55,88
31440,note_on,60,0,1,,,,,,,,0,,,63,0
31500,note_on,0,0,1,,,,,,,,0,,,58,88
31500,note_on,60,0,1,,,,,,,,0,,,55,0
31560,note_on,0,0,1,,,,,,,,0,,,51,75
31560,note_on,60,0,1,,,,,,,,0,,,58,0
31620,note_on,60,0,1,,,,,,,,0,,,51,0
31620,note_on,0,0,1,,,,,,,,0,,,55,75
31680,note_on,60,0,1,,,,,,,,0,,,55,0
31680,note_on,0,0,1,,,,,,,,0,,,46,75
31800,note_on,0,0,1,,,,,,,,0,,,51,75
31800,note_on,120,0,1,,,,,,,,0,,,46,0
31920,note_on,0,0,1,,,,,,,,0,,,43,75
31920,note_on,120,0,1,,,,,,,,0,,,51,0
32000,note_on,0,0,1,,,,,,,,0,,,46,75
32000,note_on,80,0,1,,,,,,,,0,,,43,0
32079,note_on,0,0,1,,,,,,,,0,,,50,75
32079,note_on,79,0,1,,,,,,,,0,,,46,0
32160,note_on,0,0,1,,,,,,,,0,,,55,88
32160,note_on,81,0,1,,,,,,,,0,,,50,0
32240,note_on,0,0,1,,,,,,,,0,,,58,88
32240,note_on,80,0,1,,,,,,,,0,,,55,0
32319,note_on,0,0,1,,,,,,,,0,,,63,88
32319,note_on,79,0,1,,,,,,,,0,,,58,0
32400,note_on,0,0,1,,,,,,,,0,,,67,101
32400,note_on,81,0,1,,,,,,,,0,,,63,0
32480,note_on,80,0,1,,,,,,,,0,,,67,0
32480,note_on,0,0,1,,,,,,,,0,,,70,101
32559,note_on,0,0,1,,,,,,,,0,,,75,101
32559,note_on,79,0,1,,,,,,,,0,,,70,0
32559,control_change,0,0,1,,,,,,,,0,64,0,,
32640,note_on,0,0,3,,,,,,,,2,,,44,88
32640,note_on,0,0,3,,,,,,,,2,,,31,0
32640,note_on,0,0,3,,,,,,,,2,,,43,0
32640,note_on,1920,0,3,,,,,,,,2,,,55,0
32640,note_on,0,0,3,,,,,,,,2,,,32,88
32640,note_on,81,0,1,,,,,,,,0,,,75,0
32640,control_change,0,0,1,,,,,,,,0,64,127,,
32640,note_on,0,0,1,,,,,,,,0,,,74,101
32760,note_on,120,0,1,,,,,,,,0,,,74,0
32760,note_on,0,0,1,,,,,,,,0,,,71,101
32880,note_on,120,0,1,,,,,,,,0,,,71,0
32880,note_on,0,0,1,,,,,,,,0,,,68,101
33000,note_on,120,0,1,,,,,,,,0,,,68,0
33000,note_on,0,0,1,,,,,,,,0,,,65,101
33120,note_on,120,0,1,,,,,,,,0,,,65,0
33120,note_on,0,0,1,,,,,,,,0,,,62,88
33200,note_on,80,0,1,,,,,,,,0,,,62,0
33200,note_on,0,0,1,,,,,,,,0,,,59,88
33279,note_on,79,0,1,,,,,,,,0,,,59,0
33279,note_on,0,0,1,,,,,,,,0,,,56,88
33360,note_on,0,0,1,,,,,,,,0,,,53,88
33360,note_on,81,0,1,,,,,,,,0,,,56,0
33440,note_on,80,0,1,,,,,,,,0,,,53,0
33440,note_on,0,0,1,,,,,,,,0,,,50,75
33519,note_on,0,0,1,,,,,,,,0,,,47,75
33519,note_on,79,0,1,,,,,,,,0,,,50,0
33600,note_on,81,0,1,,,,,,,,0,,,47,0
33600,note_on,0,0,1,,,,,,,,0,,,44,75
33680,note_on,80,0,1,,,,,,,,0,,,44,0
33680,note_on,0,0,1,,,,,,,,0,,,47,75
33759,note_on,79,0,1,,,,,,,,0,,,47,0
33759,note_on,0,0,1,,,,,,,,0,,,50,75
33840,note_on,81,0,1,,,,,,,,0,,,50,0
33840,note_on,0,0,1,,,,,,,,0,,,56,75
33920,note_on,80,0,1,,,,,,,,0,,,56,0
33920,note_on,0,0,1,,,,,,,,0,,,59,88
33999,note_on,0,0,1,,,,,,,,0,,,62,88
33999,note_on,79,0,1,,,,,,,,0,,,59,0
34080,note_on,0,0,1,,,,,,,,0,,,65,114
34080,set_tempo,34080,1,0,,,,,,681818,,,,,,
34080,note_on,81,0,1,,,,,,,,0,,,62,0
34200,note_on,120,0,1,,,,,,,,0,,,65,0
34200,note_on,0,0,1,,,,,,,,0,,,68,127
34320,note_on,120,0,1,,,,,,,,0,,,68,0
34320,note_on,0,0,1,,,,,,,,0,,,71,127
34440,note_on,120,0,1,,,,,,,,0,,,71,0
34440,note_on,0,0,1,,,,,,,,0,,,74,127
34464,note_on,1824,0,3,,,,,,,,2,,,33,88
34488,note_on,24,0,3,,,,,,,,2,,,45,88
34512,note_on,24,0,3,,,,,,,,2,,,50,88
34536,note_on,24,0,3,,,,,,,,2,,,53,88
34560,note_on,34560,0,2,,,,,,,,1,,,62,101
34560,note_on,0,0,2,,,,,,,,1,,,65,101
34560,note_on,0,0,3,,,,,,,,2,,,57,88
34560,note_on,24,0,3,,,,,,,,2,,,44,0
34560,note_on,0,0,3,,,,,,,,2,,,32,0
34560,control_change,120,0,1,,,,,,,,0,64,0,,
34560,note_on,0,0,2,,,,,,,,1,,,69,101
35040,note_on,480,0,1,,,,,,,,0,,,74,0
35400,control_change,360,0,1,,,,,,,,0,64,127,,
35400,control_change,0,0,1,,,,,,,,0,64,127,,
35400,note_on,0,0,1,,,,,,,,0,,,72,101
35400,set_tempo,1320,1,0,,,,,,555556,,,,,,
35460,note_on,60,0,1,,,,,,,,0,,,72,0
35460,note_on,0,0,1,,,,,,,,0,,,70,101
35520,note_on,0,0,1,,,,,,,,0,,,69,101
35520,note_on,60,0,1,,,,,,,,0,,,70,0
35580,note_on,60,0,1,,,,,,,,0,,,69,0
35580,note_on,0,0,1,,,,,,,,0,,,67,101
35640,note_on,60,0,1,,,,,,,,0,,,67,0
35640,note_on,0,0,1,,,,,,,,0,,,70,101
35700,note_on,0,0,1,,,,,,,,0,,,69,101
35700,note_on,60,0,1,,,,,,,,0,,,70,0
35760,note_on,0,0,1,,,,,,,,0,,,67,101
35760,note_on,60,0,1,,,,,,,,0,,,69,0
35820,note_on,60,0,1,,,,,,,,0,,,67,0
35820,note_on,0,0,1,,,,,,,,0,,,65,101
35880,note_on,0,0,1,,,,,,,,0,,,64,101
35880,note_on,60,0,1,,,,,,,,0,,,65,0
35940,note_on,0,0,1,,,,,,,,0,,,62,101
35940,note_on,60,0,1,,,,,,,,0,,,64,0
36000,note_on,60,0,1,,,,,,,,0,,,62,0
36000,note_on,0,0,1,,,,,,,,0,,,61,101
36000,control_change,0,0,1,,,,,,,,0,64,0,,
36060,note_on,0,0,1,,,,,,,,0,,,59,101
36060,note_on,60,0,1,,,,,,,,0,,,61,0
36120,note_on,60,0,1,,,,,,,,0,,,59,0
36120,note_on,0,0,1,,,,,,,,0,,,57,101
36180,note_on,60,0,1,,,,,,,,0,,,57,0
36180,note_on,0,0,1,,,,,,,,0,,,55,101
36240,note_on,60,0,1,,,,,,,,0,,,55,0
36240,note_on,0,0,1,,,,,,,,0,,,53,101
36300,note_on,60,0,1,,,,,,,,0,,,53,0
36300,note_on,0,0,1,,,,,,,,0,,,52,101
36360,note_on,0,0,1,,,,,,,,0,,,50,101
36360,note_on,60,0,1,,,,,,,,0,,,52,0
36420,note_on,0,0,1,,,,,,,,0,,,62,101
36420,note_on,60,0,1,,,,,,,,0,,,50,0
36480,note_on,0,0,2,,,,,,,,1,,,57,101
36480,note_on,36480,0,4,,,,,,,,3,,,45,88
36480,time_signature,1080,1,0,8,4,24,8,,,,,,,,
36480,note_on,1920,0,2,,,,,,,,1,,,69,0
36480,note_on,0,0,3,,,,,,,,2,,,50,0
36480,note_on,1920,0,3,,,,,,,,2,,,57,0
36480,note_on,0,0,3,,,,,,,,2,,,33,0
36480,note_on,0,0,3,,,,,,,,2,,,45,0
36480,note_on,0,0,3,,,,,,,,2,,,53,0
36480,note_on,0,0,3,,,,,,,,2,,,53,88
36480,note_on,0,0,2,,,,,,,,1,,,62,0
36480,note_on,0,0,2,,,,,,,,1,,,65,0
36960,note_on,480,0,3,,,,,,,,2,,,53,0
36960,note_on,0,0,3,,,,,,,,2,,,52,88
37440,note_on,1020,0,1,,,,,,,,0,,,62,0
37440,control_change,0,0,1,,,,,,,,0,64,127,,
37440,note_on,0,0,1,,,,,,,,0,,,61,101
37500,note_on,0,0,1,,,,,,,,0,,,62,101
37500,note_on,60,0,1,,,,,,,,0,,,61,0
37560,note_on,60,0,1,,,,,,,,0,,,62,0
37560,note_on,0,0,1,,,,,,,,0,,,61,101
37620,note_on,0,0,1,,,,,,,,0,,,62,101
37620,note_on,60,0,1,,,,,,,,0,,,61,0
37680,note_on,0,0,1,,,,,,,,0,,,61,101
37680,note_on,60,0,1,,,,,,,,0,,,62,0
37740,note_on,0,0,1,,,,,,,,0,,,62,101
37740,note_on,60,0,1,,,,,,,,0,,,61,0
37800,note_on,60,0,1,,,,,,,,0,,,62,0
37800,note_on,0,0,1,,,,,,,,0,,,61,101
37860,note_on,0,0,1,,,,,,,,0,,,62,101
37860,note_on,60,0,1,,,,,,,,0,,,61,0
37920,note_on,960,0,3,,,,,,,,2,,,55,88
37920,note_on,0,0,1,,,,,,,,0,,,61,101
37920,note_on,60,0,1,,,,,,,,0,,,62,0
37980,note_on,0,0,1,,,,,,,,0,,,62,101
37980,note_on,60,0,1,,,,,,,,0,,,61,0
38040,note_on,0,0,1,,,,,,,,0,,,61,101
38040,note_on,60,0,1,,,,,,,,0,,,62,0
38100,note_on,0,0,1,,,,,,,,0,,,62,101
38100,note_on,60,0,1,,,,,,,,0,,,61,0
38160,note_on,60,0,1,,,,,,,,0,,,62,0
38160,control_change,0,0,1,,,,,,,,0,64,0,,
38160,note_on,0,0,1,,,,,,,,0,,,59,101
38280,note_on,120,0,1,,,,,,,,0,,,59,0
38280,note_on,0,0,1,,,,,,,,0,,,61,101
38400,note_on,0,0,2,,,,,,,,1,,,57,101
38400,note_on,480,0,3,,,,,,,,2,,,55,0
38400,note_on,0,0,3,,,,,,,,2,,,52,0
38400,note_on,0,0,3,,,,,,,,2,,,50,88
38400,note_on,0,0,1,,,,,,,,0,,,62,101
38400,note_on,120,0,1,,,,,,,,0,,,61,0
38400,note_on,1920,0,2,,,,,,,,1,,,57,0
38400,note_on,0,0,2,,,,,,,,1,,,53,101
38400,note_on,0,0,4,,,,,,,,3,,,38,88
38400,note_on,1920,0,4,,,,,,,,3,,,45,0
40320,note_on,1920,0,2,,,,,,,,1,,,57,0
40320,note_on,0,0,2,,,,,,,,1,,,53,0
40320,note_on,1920,0,1,,,,,,,,0,,,62,0
40320,set_tempo,0,1,0,,,,,,681818,,,,,,
40320,note_on,1920,0,4,,,,,,,,3,,,38,0
40320,note_on,1920,0,3,,,,,,,,2,,,50,0
40320,time_signature,3840,1,0,4,4,24,8,,,,,,,,
40540,marker,220,1,0,,,,,,,,,,,,
40560,note_on,240,0,1,,,,,,,,0,,,62,62
40740,note_on,180,0,1,,,,,,,,0,,,62,0
40740,note_on,0,0,1,,,,,,,,0,,,64,62
40800,note_on,0,0,1,,,,,,,,0,,,65,62
40800,note_on,60,0,1,,,,,,,,0,,,64,0
40920,note_on,0,0,1,,,,,,,,0,,,67,75
40920,note_on,120,0,1,,,,,,,,0,,,65,0
41040,note_on,120,0,1,,,,,,,,0,,,67,0
41040,note_on,0,0,1,,,,,,,,0,,,69,75
41160,note_on,120,0,1,,,,,,,,0,,,69,0
41160,note_on,0,0,1,,,,,,,,0,,,71,75
41280,note_on,120,0,1,,,,,,,,0,,,71,0
41280,note_on,0,0,1,,,,,,,,0,,,72,88
41303,note_on,23,0,1,,,,,,,,0,,,72,0
41520,note_on,217,0,1,,,,,,,,0,,,67,88
41543,note_on,23,0,1,,,,,,,,0,,,67,0
41760,note_on,217,0,1,,,,,,,,0,,,70,75
42240,note_on,0,0,1,,,,,,,,0,,,69,62
42240,note_on,480,0,1,,,,,,,,0,,,70,0
42263,note_on,23,0,1,,,,,,,,0,,,69,0
42480,note_on,217,0,1,,,,,,,,0,,,74,88
42840,note_on,0,0,1,,,,,,,,0,,,73,62
42840,note_on,360,0,1,,,,,,,,0,,,74,0
42960,note_on,0,0,1,,,,,,,,0,,,74,75
42960,note_on,120,0,1,,,,,,,,0,,,73,0
43080,note_on,120,0,1,,,,,,,,0,,,74,0
43080,note_on,0,0,1,,,,,,,,0,,,76,75
43200,note_on,120,0,1,,,,,,,,0,,,76,0
43200,note_on,0,0,1,,,,,,,,0,,,77,88
43440,note_on,3120,0,3,,,,,,,,2,,,57,62
43620,note_on,0,0,3,,,,,,,,2,,,59,62
43620,note_on,180,0,3,,,,,,,,2,,,57,0
43680,note_on,60,0,3,,,,,,,,2,,,59,0
43680,note_on,0,0,3,,,,,,,,2,,,60,62
43680,note_on,480,0,1,,,,,,,,0,,,77,0
43680,note_on,0,0,1,,,,,,,,0,,,76,75
43800,note_on,120,0,3,,,,,,,,2,,,60,0
43800,note_on,0,0,3,,,,,,,,2,,,62,75
43920,note_on,120,0,3,,,,,,,,2,,,62,0
43920,note_on,0,0,3,,,,,,,,2,,,64,75
43920,note_on,240,0,1,,,,,,,,0,,,76,0
43920,note_on,0,0,1,,,,,,,,0,,,72,88
44040,note_on,120,0,3,,,,,,,,2,,,64,0
44040,note_on,0,0,3,,,,,,,,2,,,66,75
44160,note_on,0,0,3,,,,,,,,2,,,67,75
44160,note_on,120,0,3,,,,,,,,2,,,66,0
44183,note_on,23,0,3,,,,,,,,2,,,67,0
44280,note_on,0,0,1,,,,,,,,0,,,74,62
44280,note_on,360,0,1,,,,,,,,0,,,72,0
44400,note_on,217,0,3,,,,,,,,2,,,62,75
44400,note_on,0,0,1,,,,,,,,0,,,70,62
44400,note_on,120,0,1,,,,,,,,0,,,74,0
44423,note_on,23,0,3,,,,,,,,2,,,62,0
44520,note_on,0,0,1,,,,,,,,0,,,72,62
44520,note_on,120,0,1,,,,,,,,0,,,70,0
44640,note_on,217,0,3,,,,,,,,2,,,65,75
44640,note_on,120,0,1,,,,,,,,0,,,72,0
44640,note_on,0,0,1,,,,,,,,0,,,69,62
44880,note_on,240,0,1,,,,,,,,0,,,69,0
44880,note_on,0,0,1,,,,,,,,0,,,74,62
45120,note_on,0,0,3,,,,,,,,2,,,64,75
45120,note_on,480,0,3,,,,,,,,2,,,65,0
45143,note_on,23,0,3,,,,,,,,2,,,64,0
45240,note_on,0,0,1,,,,,,,,0,,,76,62
45240,note_on,360,0,1,,,,,,,,0,,,74,0
45360,note_on,0,0,1,,,,,,,,0,,,72,62
45360,note_on,217,0,3,,,,,,,,2,,,69,101
45360,note_on,120,0,1,,,,,,,,0,,,76,0
45480,note_on,120,0,1,,,,,,,,0,,,72,0
45480,note_on,0,0,1,,,,,,,,0,,,74,62
45600,note_on,120,0,1,,,,,,,,0,,,74,0
45600,note_on,0,0,1,,,,,,,,0,,,71,62
45720,note_on,0,0,3,,,,,,,,2,,,68,75
45720,note_on,360,0,3,,,,,,,,2,,,69,0
45840,note_on,120,0,3,,,,,,,,2,,,68,0
45840,note_on,0,0,3,,,,,,,,2,,,69,75
45840,note_on,0,0,1,,,,,,,,0,,,72,62
45840,note_on,240,0,1,,,,,,,,0,,,71,0
45960,note_on,0,0,1,,,,,,,,0,,,74,62
45960,note_on,0,0,3,,,,,,,,2,,,71,75
45960,note_on,120,0,3,,,,,,,,2,,,69,0
45960,note_on,120,0,1,,,,,,,,0,,,72,0
46080,note_on,0,0,1,,,,,,,,0,,,76,75
46080,note_on,120,0,1,,,,,,,,0,,,74,0
46080,note_on,0,0,3,,,,,,,,2,,,72,75
46080,note_on,120,0,3,,,,,,,,2,,,71,0
46200,note_on,120,0,1,,,,,,,,0,,,76,0
46200,note_on,0,0,1,,,,,,,,0,,,80,75
46215,note_on,15,0,1,,,,,,,,0,,,80,0
46320,note_on,105,0,1,,,,,,,,0,,,81,101
46440,note_on,0,0,3,,,,,,,,2,,,69,75
46440,note_on,360,0,3,,,,,,,,2,,,72,0
46455,note_on,15,0,3,,,,,,,,2,,,69,0
46560,note_on,105,0,3,,,,,,,,2,,,70,101
46680,note_on,0,0,1,,,,,,,,0,,,74,75
46680,note_on,360,0,1,,,,,,,,0,,,81,0
46695,note_on,15,0,1,,,,,,,,0,,,74,0
46800,note_on,105,0,1,,,,,,,,0,,,79,101
46920,note_on,0,0,3,,,,,,,,2,,,72,75
46920,note_on,360,0,3,,,,,,,,2,,,70,0
47040,note_on,0,0,3,,,,,,,,2,,,74,75
47040,note_on,120,0,3,,,,,,,,2,,,72,0
47055,note_on,15,0,3,,,,,,,,2,,,74,0
47160,note_on,105,0,3,,,,,,,,2,,,69,75
47175,note_on,15,0,3,,,,,,,,2,,,69,0
47280,note_on,105,0,3,,,,,,,,2,,,74,101
47280,note_on,480,0,1,,,,,,,,0,,,79,0
47280,note_on,0,0,1,,,,,,,,0,,,77,75
47400,note_on,0,0,1,,,,,,,,0,,,79,75
47400,note_on,120,0,1,,,,,,,,0,,,77,0
47520,note_on,120,0,1,,,,,,,,0,,,79,0
47520,note_on,0,0,1,,,,,,,,0,,,81,75
47640,note_on,120,0,1,,,,,,,,0,,,81,0
47640,note_on,0,0,1,,,,,,,,0,,,76,75
47760,note_on,0,0,3,,,,,,,,2,,,73,75
47760,note_on,480,0,3,,,,,,,,2,,,74,0
47760,note_on,120,0,1,,,,,,,,0,,,76,0
47760,note_on,0,0,1,,,,,,,,0,,,81,75
47880,note_on,120,0,1,,,,,,,,0,,,81,0
47880,note_on,0,0,1,,,,,,,,0,,,79,75
48000,note_on,0,0,1,,,,,,,,0,,,77,75
48000,note_on,240,0,3,,,,,,,,2,,,73,0
48000,note_on,120,0,1,,,,,,,,0,,,79,0
48000,note_on,0,0,3,,,,,,,,2,,,74,75
48120,note_on,120,0,1,,,,,,,,0,,,77,0
48120,note_on,0,0,3,,,,,,,,2,,,72,75
48120,note_on,120,0,3,,,,,,,,2,,,74,0
48120,note_on,0,0,1,,,,,,,,0,,,76,75
48240,note_on,7920,0,4,,,,,,,,3,,,50,75
48240,note_on,0,0,3,,,,,,,,2,,,70,75
48240,note_on,120,0,3,,,,,,,,2,,,72,0
48240,note_on,120,0,1,,,,,,,,0,,,76,0
48240,note_on,0,0,1,,,,,,,,0,,,77,75
48360,note_on,120,0,1,,,,,,,,0,,,77,0
48360,note_on,0,0,1,,,,,,,,0,,,79,75
48420,note_on,180,0,4,,,,,,,,3,,,50,0
48420,note_on,0,0,4,,,,,,,,3,,,52,75
48480,note_on,60,0,4,,,,,,,,3,,,52,0
48480,note_on,0,0,4,,,,,,,,3,,,53,75
48480,note_on,0,0,1,,,,,,,,0,,,72,75
48480,note_on,120,0,1,,,,,,,,0,,,79,0
48600,note_on,120,0,4,,,,,,,,3,,,53,0
48600,note_on,0,0,4,,,,,,,,3,,,55,75
48720,note_on,120,0,4,,,,,,,,3,,,55,0
48720,note_on,240,0,1,,,,,,,,0,,,72,0
48720,note_on,0,0,4,,,,,,,,3,,,57,75
48720,note_on,0,0,3,,,,,,,,2,,,69,75
48720,note_on,0,0,1,,,,,,,,0,,,77,75
48720,note_on,480,0,3,,,,,,,,2,,,70,0
48840,note_on,120,0,4,,,,,,,,3,,,57,0
48840,note_on,0,0,4,,,,,,,,3,,,59,75
48960,note_on,240,0,3,,,,,,,,2,,,69,0
48960,note_on,0,0,3,,,,,,,,2,,,67,75
48960,note_on,0,0,4,,,,,,,,3,,,60,75
48960,note_on,120,0,4,,,,,,,,3,,,59,0
48983,note_on,23,0,4,,,,,,,,3,,,60,0
49080,note_on,0,0,1,,,,,,,,0,,,79,75
49080,note_on,360,0,1,,,,,,,,0,,,77,0
49095,note_on,15,0,1,,,,,,,,0,,,79,0
49200,note_on,105,0,1,,,,,,,,0,,,76,101
49200,note_on,217,0,4,,,,,,,,3,,,55,75
49223,note_on,23,0,4,,,,,,,,3,,,55,0
49440,note_on,217,0,4,,,,,,,,3,,,58,75
49440,note_on,480,0,3,,,,,,,,2,,,67,0
49440,note_on,0,0,3,,,,,,,,2,,,67,101
49560,note_on,360,0,1,,,,,,,,0,,,76,0
49560,note_on,0,0,1,,,,,,,,0,,,77,75
49680,note_on,0,0,1,,,,,,,,0,,,74,75
49680,note_on,120,0,1,,,,,,,,0,,,77,0
49800,note_on,0,0,1,,,,,,,,0,,,76,75
49800,note_on,120,0,1,,,,,,,,0,,,74,0
49920,note_on,120,0,1,,,,,,,,0,,,76,0
49920,note_on,0,0,1,,,,,,,,0,,,73,75
49920,note_on,480,0,4,,,,,,,,3,,,58,0
49920,note_on,0,0,4,,,,,,,,3,,,57,75
49943,note_on,23,0,4,,,,,,,,3,,,57,0
50040,note_on,120,0,1,,,,,,,,0,,,73,0
50040,note_on,0,0,1,,,,,,,,0,,,71,75
50160,note_on,720,0,3,,,,,,,,2,,,67,0
50160,note_on,0,0,3,,,,,,,,2,,,65,75
50160,note_on,0,0,1,,,,,,,,0,,,69,75
50160,note_on,217,0,4,,,,,,,,3,,,62,101
50160,note_on,120,0,1,,,,,,,,0,,,71,0
50280,note_on,120,0,3,,,,,,,,2,,,65,0
50280,note_on,0,0,3,,,,,,,,2,,,67,75
50400,note_on,120,0,3,,,,,,,,2,,,67,0
50400,note_on,0,0,3,,,,,,,,2,,,64,75
50400,note_on,240,0,1,,,,,,,,0,,,69,0
50520,note_on,360,0,4,,,,,,,,3,,,62,0
50520,note_on,0,0,4,,,,,,,,3,,,61,75
50640,note_on,120,0,4,,,,,,,,3,,,61,0
50640,note_on,0,0,4,,,,,,,,3,,,62,75
50640,note_on,240,0,1,,,,,,,,0,,,76,101
50640,note_on,240,0,3,,,,,,,,2,,,64,0
50640,note_on,0,0,3,,,,,,,,2,,,65,75
50760,note_on,120,0,4,,,,,,,,3,,,62,0
50760,note_on,0,0,4,,,,,,,,3,,,64,75
50760,note_on,0,0,3,,,,,,,,2,,,67,75
50760,note_on,120,0,3,,,,,,,,2,,,65,0
50880,note_on,0,0,3,,,,,,,,2,,,69,75
50880,note_on,0,0,3,,,,,,,,2,,,65,75
50880,note_on,120,0,3,,,,,,,,2,,,67,0
50880,note_on,120,0,4,,,,,,,,3,,,64,0
51000,note_on,0,0,1,,,,,,,,0,,,74,75
51000,note_on,360,0,1,,,,,,,,0,,,76,0
51120,note_on,240,0,4,,,,,,,,3,,,45,88
51120,note_on,120,0,1,,,,,,,,0,,,74,0
51120,note_on,0,0,1,,,,,,,,0,,,72,75
51240,note_on,120,0,4,,,,,,,,3,,,45,0
51240,note_on,0,0,4,,,,,,,,3,,,47,88
51240,note_on,120,0,1,,,,,,,,0,,,72,0
51240,note_on,0,0,1,,,,,,,,0,,,74,75
51360,note_on,480,0,3,,,,,,,,2,,,69,0
51360,note_on,0,0,3,,,,,,,,2,,,65,0
51360,note_on,0,0,3,,,,,,,,2,,,67,75
51360,note_on,0,0,4,,,,,,,,3,,,48,88
51360,note_on,120,0,4,,,,,,,,3,,,47,0
51360,note_on,120,0,1,,,,,,,,0,,,74,0
51360,note_on,0,0,1,,,,,,,,0,,,67,75
51480,note_on,0,0,4,,,,,,,,3,,,50,88
51480,note_on,120,0,4,,,,,,,,3,,,48,0
51600,note_on,0,0,4,,,,,,,,3,,,52,88
51600,note_on,120,0,4,,,,,,,,3,,,50,0
51600,note_on,0,0,3,,,,,,,,2,,,64,75
51600,note_on,240,0,3,,,,,,,,2,,,67,0
51600,note_on,240,0,1,,,,,,,,0,,,67,0
51600,note_on,0,0,1,,,,,,,,0,,,72,101
51720,note_on,0,0,4,,,,,,,,3,,,54,88
51720,note_on,120,0,4,,,,,,,,3,,,52,0
51840,note_on,120,0,4,,,,,,,,3,,,54,0
51840,note_on,0,0,3,,,,,,,,2,,,55,88
51840,note_on,240,0,3,,,,,,,,2,,,64,0
51840,note_on,11520,0,2,,,,,,,,1,,,62,88
51863,note_on,23,0,3,,,,,,,,2,,,55,0
51960,note_on,360,0,1,,,,,,,,0,,,72,0
51960,note_on,0,0,1,,,,,,,,0,,,74,88
51975,note_on,15,0,1,,,,,,,,0,,,74,0
52080,note_on,217,0,3,,,,,,,,2,,,50,88
52080,note_on,0,0,2,,,,,,,,1,,,65,114
52080,note_on,105,0,1,,,,,,,,0,,,71,114
52080,note_on,240,0,2,,,,,,,,1,,,62,0
52103,note_on,23,0,3,,,,,,,,2,,,50,0
52320,note_on,217,0,3,,,,,,,,2,,,53,88
52320,note_on,0,0,3,,,,,,,,2,,,62,88
52440,note_on,360,0,1,,,,,,,,0,,,71,0
52440,note_on,0,0,1,,,,,,,,0,,,72,88
52560,note_on,480,0,2,,,,,,,,1,,,65,0
52560,note_on,0,0,2,,,,,,,,1,,,57,88
52560,note_on,120,0,1,,,,,,,,0,,,72,0
52560,note_on,0,0,1,,,,,,,,0,,,69,88
52680,note_on,120,0,1,,,,,,,,0,,,69,0
52680,note_on,0,0,1,,,,,,,,0,,,71,88
52800,note_on,960,0,4,,,,,,,,3,,,52,88
52800,note_on,0,0,3,,,,,,,,2,,,59,88
52800,note_on,480,0,3,,,,,,,,2,,,62,0
52800,note_on,120,0,1,,,,,,,,0,,,71,0
52800,note_on,0,0,1,,,,,,,,0,,,68,88
52800,note_on,240,0,2,,,,,,,,1,,,57,0
52800,note_on,0,0,3,,,,,,,,2,,,53,0
52823,note_on,23,0,1,,,,,,,,0,,,68,0
53040,note_on,240,0,3,,,,,,,,2,,,59,0
53040,note_on,0,0,3,,,,,,,,2,,,60,88
53040,note_on,240,0,2,,,,,,,,1,,,60,88
53040,note_on,217,0,1,,,,,,,,0,,,64,88
53040,note_on,240,0,4,,,,,,,,3,,,52,0
53040,note_on,0,0,4,,,,,,,,3,,,57,114
53063,note_on,23,0,3,,,,,,,,2,,,60,0
53063,note_on,23,0,2,,,,,,,,1,,,60,0
53063,note_on,23,0,1,,,,,,,,0,,,64,0
53280,note_on,217,0,2,,,,,,,,1,,,64,88
53280,note_on,217,0,1,,,,,,,,0,,,71,114
53280,note_on,217,0,3,,,,,,,,2,,,59,88
53400,note_on,0,0,4,,,,,,,,3,,,56,88
53400,note_on,360,0,4,,,,,,,,3,,,57,0
53520,note_on,0,0,4,,,,,,,,3,,,57,88
53520,note_on,120,0,4,,,,,,,,3,,,56,0
53520,note_on,240,0,3,,,,,,,,2,,,59,0
53520,note_on,0,0,3,,,,,,,,2,,,60,88
53640,note_on,120,0,3,,,,,,,,2,,,60,0
53640,note_on,0,0,4,,,,,,,,3,,,59,88
53640,note_on,120,0,4,,,,,,,,3,,,57,0
53640,note_on,0,0,3,,,,,,,,2,,,62,88
53760,note_on,480,0,2,,,,,,,,1,,,64,0
53760,note_on,0,0,4,,,,,,,,3,,,60,88
53760,note_on,120,0,4,,,,,,,,3,,,59,0
53760,note_on,0,0,3,,,,,,,,2,,,64,88
53760,note_on,120,0,3,,,,,,,,2,,,62,0
53880,note_on,0,0,1,,,,,,,,0,,,72,88
53880,note_on,600,0,1,,,,,,,,0,,,71,0
54000,note_on,120,0,1,,,,,,,,0,,,72,0
54000,note_on,0,0,1,,,,,,,,0,,,69,88
54120,note_on,0,0,3,,,,,,,,2,,,65,88
54120,note_on,360,0,3,,,,,,,,2,,,64,0
54240,note_on,0,0,3,,,,,,,,2,,,62,88
54240,note_on,0,0,4,,,,,,,,3,,,59,88
54240,note_on,120,0,3,,,,,,,,2,,,65,0
54240,note_on,480,0,4,,,,,,,,3,,,60,0
54360,note_on,0,0,1,,,,,,,,0,,,68,88
54360,note_on,360,0,1,,,,,,,,0,,,69,0
54480,note_on,0,0,1,,,,,,,,0,,,69,88
54480,note_on,120,0,1,,,,,,,,0,,,68,0
54600,note_on,0,0,1,,,,,,,,0,,,71,88
54600,note_on,120,0,1,,,,,,,,0,,,69,0
54720,note_on,0,0,1,,,,,,,,0,,,72,88
54720,note_on,120,0,1,,,,,,,,0,,,71,0
54720,note_on,0,0,3,,,,,,,,2,,,60,88
54720,note_on,480,0,3,,,,,,,,2,,,62,0
54720,note_on,0,0,4,,,,,,,,3,,,57,88
54720,note_on,480,0,4,,,,,,,,3,,,59,0
54743,note_on,23,0,3,,,,,,,,2,,,60,0
54840,note_on,120,0,1,,,,,,,,0,,,72,0
54840,note_on,0,0,1,,,,,,,,0,,,74,88
54855,note_on,15,0,1,,,,,,,,0,,,74,0
54960,note_on,217,0,3,,,,,,,,2,,,59,88
54960,note_on,0,0,4,,,,,,,,3,,,55,88
54960,note_on,240,0,4,,,,,,,,3,,,57,0
54960,note_on,105,0,1,,,,,,,,0,,,76,88
55080,note_on,0,0,3,,,,,,,,2,,,60,88
55080,note_on,120,0,3,,,,,,,,2,,,59,0
55200,note_on,120,0,3,,,,,,,,2,,,60,0
55200,note_on,0,0,4,,,,,,,,3,,,53,88
55200,note_on,0,0,3,,,,,,,,2,,,57,88
55200,note_on,240,0,4,,,,,,,,3,,,55,0
55320,note_on,0,0,1,,,,,,,,0,,,69,88
55320,note_on,360,0,1,,,,,,,,0,,,76,0
55335,note_on,15,0,1,,,,,,,,0,,,69,0
55440,note_on,105,0,1,,,,,,,,0,,,74,88
55560,note_on,0,0,3,,,,,,,,2,,,59,88
55560,note_on,360,0,3,,,,,,,,2,,,57,0
55575,note_on,15,0,3,,,,,,,,2,,,59,0
55680,note_on,105,0,3,,,,,,,,2,,,56,88
55680,note_on,480,0,4,,,,,,,,3,,,53,0
55680,note_on,0,0,4,,,,,,,,3,,,52,88
55800,note_on,0,0,3,,,,,,,,2,,,57,88
55800,note_on,120,0,3,,,,,,,,2,,,56,0
55920,note_on,240,0,4,,,,,,,,3,,,52,0
55920,note_on,0,0,4,,,,,,,,3,,,56,88
55920,note_on,0,0,3,,,,,,,,2,,,59,88
55920,note_on,120,0,3,,,,,,,,2,,,57,0
55920,note_on,480,0,1,,,,,,,,0,,,74,0
55920,note_on,0,0,1,,,,,,,,0,,,76,88
56040,note_on,120,0,1,,,,,,,,0,,,76,0
56040,note_on,0,0,1,,,,,,,,0,,,74,88
56160,note_on,240,0,3,,,,,,,,2,,,59,0
56160,note_on,2400,0,2,,,,,,,,1,,,60,62
56160,note_on,240,0,4,,,,,,,,3,,,56,0
56160,note_on,0,0,1,,,,,,,,0,,,72,62
56160,note_on,120,0,1,,,,,,,,0,,,74,0
56160,note_on,0,0,3,,,,,,,,2,,,57,62
56280,note_on,0,0,1,,,,,,,,0,,,71,62
56280,note_on,120,0,1,,,,,,,,0,,,72,0
56400,note_on,0,0,1,,,,,,,,0,,,69,62
56400,note_on,120,0,1,,,,,,,,0,,,71,0
56400,note_on,240,0,3,,,,,,,,2,,,57,0
56400,note_on,0,0,3,,,,,,,,2,,,48,62
56423,note_on,23,0,3,,,,,,,,2,,,48,0
56520,note_on,120,0,1,,,,,,,,0,,,69,0
56520,note_on,0,0,1,,,,,,,,0,,,67,62
56640,note_on,0,0,1,,,,,,,,0,,,65,62
56640,note_on,120,0,1,,,,,,,,0,,,67,0
56640,note_on,217,0,3,,,,,,,,2,,,50,88
56880,note_on,0,0,1,,,,,,,,0,,,77,62
56880,note_on,720,0,2,,,,,,,,1,,,60,0
56880,note_on,240,0,1,,,,,,,,0,,,65,0
56880,note_on,0,0,2,,,,,,,,1,,,59,62
57000,note_on,120,0,1,,,,,,,,0,,,77,0
57000,note_on,0,0,1,,,,,,,,0,,,76,62
57120,note_on,240,0,2,,,,,,,,1,,,59,0
57120,note_on,120,0,1,,,,,,,,0,,,76,0
57120,note_on,0,0,1,,,,,,,,0,,,74,62
57120,note_on,0,0,2,,,,,,,,1,,,62,62
57240,note_on,120,0,1,,,,,,,,0,,,74,0
57240,note_on,0,0,1,,,,,,,,0,,,72,62
57360,note_on,0,0,3,,,,,,,,2,,,53,62
57360,note_on,0,0,1,,,,,,,,0,,,71,62
57360,note_on,120,0,1,,,,,,,,0,,,72,0
57360,note_on,720,0,3,,,,,,,,2,,,50,0
57383,note_on,23,0,3,,,,,,,,2,,,53,0
57480,note_on,120,0,1,,,,,,,,0,,,71,0
57480,note_on,0,0,1,,,,,,,,0,,,69,62
57600,note_on,120,0,1,,,,,,,,0,,,69,0
57600,note_on,0,0,1,,,,,,,,0,,,68,62
57600,note_on,217,0,3,,,,,,,,2,,,52,88
57623,note_on,23,0,1,,,,,,,,0,,,68,0
57720,note_on,0,0,2,,,,,,,,1,,,59,62
57720,note_on,600,0,2,,,,,,,,1,,,62,0
57840,note_on,0,0,2,,,,,,,,1,,,60,62
57840,note_on,120,0,2,,,,,,,,1,,,59,0
57840,note_on,217,0,1,,,,,,,,0,,,69,62
57960,note_on,120,0,2,,,,,,,,1,,,60,0
57960,note_on,0,0,2,,,,,,,,1,,,62,62
58080,note_on,120,0,2,,,,,,,,1,,,62,0
58080,note_on,480,0,3,,,,,,,,2,,,52,0
58080,note_on,0,0,2,,,,,,,,1,,,64,62
58200,note_on,120,0,2,,,,,,,,1,,,64,0
58200,note_on,0,0,2,,,,,,,,1,,,59,62
58320,note_on,480,0,1,,,,,,,,0,,,69,0
58320,note_on,120,0,2,,,,,,,,1,,,59,0
58320,note_on,0,0,2,,,,,,,,1,,,64,62
58320,note_on,0,0,1,,,,,,,,0,,,68,62
58440,note_on,0,0,2,,,,,,,,1,,,62,62
58440,note_on,120,0,2,,,,,,,,1,,,64,0
58560,note_on,120,0,2,,,,,,,,1,,,62,0
58560,note_on,240,0,1,,,,,,,,0,,,68,0
58560,note_on,0,0,2,,,,,,,,1,,,61,62
58583,note_on,23,0,2,,,,,,,,1,,,61,0
58800,note_on,240,0,1,,,,,,,,0,,,81,62
58800,note_on,217,0,2,,,,,,,,1,,,57,62
58823,note_on,23,0,2,,,,,,,,1,,,57,0
58920,note_on,120,0,1,,,,,,,,0,,,81,0
58920,note_on,0,0,1,,,,,,,,0,,,79,62
59040,note_on,120,0,1,,,,,,,,0,,,79,0
59040,control_change,0,0,1,,,,,,,,0,64,127,,
59040,note_on,0,0,1,,,,,,,,0,,,77,75
59040,note_on,217,0,2,,,,,,,,1,,,62,75
59160,note_on,120,0,1,,,,,,,,0,,,77,0
59160,note_on,0,0,1,,,,,,,,0,,,76,75
59280,note_on,1200,0,3,,,,,,,,2,,,53,75
59280,note_on,0,0,1,,,,,,,,0,,,74,75
59280,note_on,120,0,1,,,,,,,,0,,,76,0
59303,note_on,23,0,3,,,,,,,,2,,,53,0
59400,note_on,120,0,1,,,,,,,,0,,,74,0
59400,note_on,0,0,1,,,,,,,,0,,,72,75
59520,note_on,120,0,1,,,,,,,,0,,,72,0
59520,control_change,0,0,1,,,,,,,,0,64,0,,
59520,note_on,0,0,1,,,,,,,,0,,,70,75
59520,note_on,217,0,3,,,,,,,,2,,,55,75
59543,note_on,23,0,1,,,,,,,,0,,,70,0
59640,note_on,600,0,2,,,,,,,,1,,,62,0
59640,note_on,0,0,2,,,,,,,,1,,,65,75
59760,note_on,0,0,2,,,,,,,,1,,,64,75
59760,control_change,217,0,1,,,,,,,,0,64,127,,
59760,note_on,0,0,1,,,,,,,,0,,,79,75
59760,note_on,120,0,2,,,,,,,,1,,,65,0
59880,note_on,120,0,2,,,,,,,,1,,,64,0
59880,note_on,0,0,2,,,,,,,,1,,,62,75
59880,note_on,0,0,1,,,,,,,,0,,,77,75
59880,note_on,120,0,1,,,,,,,,0,,,79,0
60000,note_on,0,0,1,,,,,,,,0,,,76,75
60000,note_on,480,0,3,,,,,,,,2,,,55,0
60000,note_on,120,0,2,,,,,,,,1,,,62,0
60000,note_on,3840,0,4,,,,,,,,3,,,48,62
60000,note_on,0,0,3,,,,,,,,2,,,60,75
60000,note_on,120,0,1,,,,,,,,0,,,77,0
60120,note_on,0,0,3,,,,,,,,2,,,58,75
60120,note_on,0,0,1,,,,,,,,0,,,74,75
60120,note_on,120,0,1,,,,,,,,0,,,76,0
60120,note_on,120,0,3,,,,,,,,2,,,60,0
60240,note_on,0,0,1,,,,,,,,0,,,72,75
60240,note_on,120,0,1,,,,,,,,0,,,74,0
60240,note_on,120,0,3,,,,,,,,2,,,58,0
60240,note_on,0,0,3,,,,,,,,2,,,57,75
60360,note_on,0,0,1,,,,,,,,0,,,70,75
60360,note_on,120,0,3,,,,,,,,2,,,57,0
60360,note_on,0,0,3,,,,,,,,2,,,55,75
60360,note_on,120,0,1,,,,,,,,0,,,72,0
60480,note_on,120,0,1,,,,,,,,0,,,70,0
60480,note_on,120,0,3,,,,,,,,2,,,55,0
60480,note_on,480,0,4,,,,,,,,3,,,48,0
60480,note_on,0,0,1,,,,,,,,0,,,69,75
60480,control_change,0,0,1,,,,,,,,0,64,0,,
60480,note_on,0,0,3,,,,,,,,2,,,53,75
60600,note_on,120,0,3,,,,,,,,2,,,53,0
60600,note_on,0,0,3,,,,,,,,2,,,57,75
60720,note_on,240,0,4,,,,,,,,3,,,38,88
60720,note_on,0,0,3,,,,,,,,2,,,59,75
60720,note_on,120,0,3,,,,,,,,2,,,57,0
60840,note_on,120,0,3,,,,,,,,2,,,59,0
60840,note_on,0,0,3,,,,,,,,2,,,61,75
60840,note_on,0,0,4,,,,,,,,3,,,40,88
60840,note_on,120,0,4,,,,,,,,3,,,38,0
60960,note_on,480,0,1,,,,,,,,0,,,69,0
60960,note_on,0,0,1,,,,,,,,0,,,69,75
60960,note_on,120,0,3,,,,,,,,2,,,61,0
60960,note_on,960,0,2,,,,,,,,1,,,62,75
60960,note_on,0,0,4,,,,,,,,3,,,41,88
60960,note_on,120,0,4,,,,,,,,3,,,40,0
61080,note_on,0,0,2,,,,,,,,1,,,64,75
61080,note_on,120,0,2,,,,,,,,1,,,62,0
61080,note_on,120,0,4,,,,,,,,3,,,41,0
61080,note_on,0,0,4,,,,,,,,3,,,43,88
61200,note_on,120,0,4,,,,,,,,3,,,43,0
61200,note_on,0,0,4,,,,,,,,3,,,45,88
61200,note_on,120,0,2,,,,,,,,1,,,64,0
61200,note_on,0,0,2,,,,,,,,1,,,65,75
61320,note_on,0,0,4,,,,,,,,3,,,47,88
61320,note_on,120,0,4,,,,,,,,3,,,45,0
61440,note_on,120,0,4,,,,,,,,3,,,47,0
61440,note_on,0,0,1,,,,,,,,0,,,67,75
61440,note_on,480,0,1,,,,,,,,0,,,69,0
61440,note_on,480,0,3,,,,,,,,2,,,48,75
61463,note_on,23,0,3,,,,,,,,2,,,48,0
61680,note_on,217,0,3,,,,,,,,2,,,43,75
61680,note_on,0,0,2,,,,,,,,1,,,64,75
61680,note_on,480,0,2,,,,,,,,1,,,65,0
61703,note_on,23,0,3,,,,,,,,2,,,43,0
61800,note_on,0,0,2,,,,,,,,1,,,62,75
61800,note_on,120,0,2,,,,,,,,1,,,64,0
61920,note_on,480,0,1,,,,,,,,0,,,67,0
61920,note_on,120,0,2,,,,,,,,1,,,62,0
61920,note_on,0,0,2,,,,,,,,1,,,64,75
61920,note_on,217,0,3,,,,,,,,2,,,46,101
61920,note_on,0,0,1,,,,,,,,0,,,67,101
62040,note_on,120,0,2,,,,,,,,1,,,64,0
62040,note_on,0,0,2,,,,,,,,1,,,65,75
62160,note_on,0,0,2,,,,,,,,1,,,62,75
62160,note_on,120,0,2,,,,,,,,1,,,65,0
62280,note_on,120,0,2,,,,,,,,1,,,62,0
62280,note_on,0,0,2,,,,,,,,1,,,64,75
62400,note_on,0,0,3,,,,,,,,2,,,45,75
62400,note_on,480,0,3,,,,,,,,2,,,46,0
62400,note_on,120,0,2,,,,,,,,1,,,64,0
62400,note_on,0,0,2,,,,,,,,1,,,61,75
62423,note_on,23,0,2,,,,,,,,1,,,61,0
62520,note_on,600,0,1,,,,,,,,0,,,67,0
62520,note_on,0,0,1,,,,,,,,0,,,69,75
62640,note_on,1200,0,4,,,,,,,,3,,,50,114
62640,note_on,0,0,1,,,,,,,,0,,,65,75
62640,note_on,120,0,1,,,,,,,,0,,,69,0
62640,note_on,240,0,3,,,,,,,,2,,,45,0
62640,note_on,0,0,3,,,,,,,,2,,,57,75
62760,note_on,0,0,1,,,,,,,,0,,,67,75
62760,note_on,120,0,1,,,,,,,,0,,,65,0
62880,note_on,0,0,3,,,,,,,,2,,,55,75
62880,note_on,0,0,1,,,,,,,,0,,,64,75
62880,note_on,120,0,1,,,,,,,,0,,,67,0
62880,note_on,240,0,3,,,,,,,,2,,,57,0
63000,note_on,0,0,4,,,,,,,,3,,,49,88
63000,note_on,360,0,4,,,,,,,,3,,,50,0
63120,note_on,120,0,4,,,,,,,,3,,,49,0
63120,note_on,0,0,4,,,,,,,,3,,,50,88
63120,note_on,0,0,3,,,,,,,,2,,,53,75
63120,note_on,240,0,3,,,,,,,,2,,,55,0
63240,note_on,120,0,3,,,,,,,,2,,,53,0
63240,note_on,120,0,4,,,,,,,,3,,,50,0
63240,note_on,0,0,4,,,,,,,,3,,,52,88
63240,note_on,0,0,3,,,,,,,,2,,,55,75
63360,note_on,120,0,3,,,,,,,,2,,,55,0
63360,note_on,120,0,4,,,,,,,,3,,,52,0
63360,note_on,0,0,4,,,,,,,,3,,,53,88
63360,note_on,0,0,3,,,,,,,,2,,,57,75
63480,note_on,600,0,1,,,,,,,,0,,,64,0
63480,note_on,0,0,1,,,,,,,,0,,,65,75
63495,note_on,15,0,1,,,,,,,,0,,,65,0
63600,note_on,105,0,1,,,,,,,,0,,,62,75
63720,note_on,0,0,4,,,,,,,,3,,,55,88
63720,note_on,360,0,4,,,,,,,,3,,,53,0
63720,note_on,360,0,3,,,,,,,,2,,,57,0
63720,note_on,0,0,3,,,,,,,,2,,,58,75
63840,note_on,0,0,4,,,,,,,,3,,,52,88
63840,note_on,120,0,4,,,,,,,,3,,,55,0
63840,note_on,120,0,3,,,,,,,,2,,,58,0
63840,note_on,0,0,3,,,,,,,,2,,,55,75
63960,note_on,0,0,1,,,,,,,,0,,,61,75
63960,note_on,360,0,1,,,,,,,,0,,,62,0
64080,note_on,240,0,3,,,,,,,,2,,,55,0
64080,note_on,0,0,3,,,,,,,,2,,,57,75
64080,note_on,0,0,4,,,,,,,,3,,,45,88
64080,note_on,120,0,1,,,,,,,,0,,,61,0
64080,note_on,0,0,1,,,,,,,,0,,,62,75
64080,note_on,240,0,4,,,,,,,,3,,,52,0
64200,note_on,120,0,1,,,,,,,,0,,,62,0
64200,note_on,0,0,1,,,,,,,,0,,,64,75
64320,note_on,0,0,4,,,,,,,,3,,,38,88
64320,note_on,240,0,4,,,,,,,,3,,,45,0
64320,note_on,120,0,1,,,,,,,,0,,,64,0
64320,note_on,0,0,1,,,,,,,,0,,,65,75
64440,note_on,0,0,3,,,,,,,,2,,,50,75
64440,note_on,360,0,3,,,,,,,,2,,,57,0
64560,note_on,120,0,3,,,,,,,,2,,,50,0
64560,note_on,240,0,4,,,,,,,,3,,,38,0
64560,note_on,0,0,4,,,,,,,,3,,,50,88
64560,note_on,0,0,3,,,,,,,,2,,,52,75
64680,note_on,0,0,3,,,,,,,,2,,,53,75
64680,note_on,120,0,3,,,,,,,,2,,,52,0
64800,note_on,0,0,4,,,,,,,,3,,,46,88
64800,note_on,0,0,3,,,,,,,,2,,,55,75
64800,note_on,120,0,3,,,,,,,,2,,,53,0
64800,note_on,240,0,4,,,,,,,,3,,,50,0
64920,note_on,0,0,1,,,,,,,,0,,,64,75
64920,note_on,600,0,1,,,,,,,,0,,,65,0
65040,note_on,0,0,4,,,,,,,,3,,,48,88
65040,note_on,240,0,4,,,,,,,,3,,,46,0
65040,note_on,0,0,1,,,,,,,,0,,,65,75
65040,note_on,120,0,1,,,,,,,,0,,,64,0
65160,note_on,120,0,1,,,,,,,,0,,,65,0
65160,note_on,0,0,1,,,,,,,,0,,,67,75
65280,note_on,0,0,4,,,,,,,,3,,,41,88
65280,note_on,240,0,4,,,,,,,,3,,,48,0
65280,note_on,0,0,1,,,,,,,,0,,,69,75
65280,note_on,120,0,1,,,,,,,,0,,,67,0
65400,note_on,600,0,3,,,,,,,,2,,,55,0
65400,note_on,0,0,3,,,,,,,,2,,,53,75
65520,note_on,240,0,4,,,,,,,,3,,,41,0
65520,note_on,0,0,4,,,,,,,,3,,,53,88
65520,note_on,0,0,3,,,,,,,,2,,,55,75
65520,note_on,120,0,3,,,,,,,,2,,,53,0
65640,note_on,120,0,3,,,,,,,,2,,,55,0
65640,note_on,0,0,3,,,,,,,,2,,,57,75
65760,note_on,0,0,4,,,,,,,,3,,,50,88
65760,note_on,240,0,4,,,,,,,,3,,,53,0
65760,note_on,120,0,3,,,,,,,,2,,,57,0
65760,note_on,0,0,3,,,,,,,,2,,,58,75
65880,note_on,600,0,1,,,,,,,,0,,,69,0
65880,note_on,0,0,1,,,,,,,,0,,,65,75
65895,note_on,15,0,1,,,,,,,,0,,,65,0
66000,note_on,105,0,1,,,,,,,,0,,,67,101
66000,note_on,0,0,4,,,,,,,,3,,,52,88
66000,note_on,240,0,4,,,,,,,,3,,,50,0
66120,note_on,0,0,3,,,,,,,,2,,,55,75
66120,note_on,360,0,3,,,,,,,,2,,,58,0
66135,note_on,15,0,3,,,,,,,,2,,,55,0
66240,note_on,0,0,4,,,,,,,,3,,,48,88
66240,note_on,240,0,4,,,,,,,,3,,,52,0
66240,note_on,105,0,3,,,,,,,,2,,,57,75
66360,note_on,0,0,1,,,,,,,,0,,,64,75
66360,note_on,360,0,1,,,,,,,,0,,,67,0
66375,note_on,15,0,1,,,,,,,,0,,,64,0
66480,note_on,0,0,4,,,,,,,,3,,,50,88
66480,note_on,105,0,1,,,,,,,,0,,,65,101
66480,note_on,240,0,4,,,,,,,,3,,,48,0
66600,note_on,0,0,3,,,,,,,,2,,,53,75
66600,note_on,360,0,3,,,,,,,,2,,,57,0
66615,note_on,15,0,3,,,,,,,,2,,,53,0
66720,note_on,0,0,4,,,,,,,,3,,,46,88
66720,note_on,240,0,4,,,,,,,,3,,,50,0
66720,note_on,105,0,3,,,,,,,,2,,,55,75
66840,note_on,120,0,3,,,,,,,,2,,,55,0
66840,note_on,0,0,3,,,,,,,,2,,,62,75
66960,note_on,120,0,3,,,,,,,,2,,,62,0
66960,note_on,0,0,3,,,,,,,,2,,,60,75
66960,note_on,480,0,1,,,,,,,,0,,,65,0
66960,note_on,0,0,1,,,,,,,,0,,,64,75
66960,note_on,0,0,4,,,,,,,,3,,,48,88
66960,note_on,240,0,4,,,,,,,,3,,,46,0
67080,note_on,0,0,3,,,,,,,,2,,,58,75
67080,note_on,120,0,3,,,,,,,,2,,,60,0
67200,note_on,0,0,3,,,,,,,,2,,,57,75
67200,note_on,240,0,4,,,,,,,,3,,,48,0
67200,note_on,0,0,4,,,,,,,,3,,,53,88
67200,note_on,120,0,3,,,,,,,,2,,,58,0
67200,note_on,240,0,1,,,,,,,,0,,,64,0
67200,note_on,0,0,1,,,,,,,,0,,,65,75
67223,note_on,23,0,4,,,,,,,,3,,,53,0
67320,note_on,0,0,1,,,,,,,,0,,,67,75
67320,note_on,120,0,1,,,,,,,,0,,,65,0
67335,note_on,15,0,1,,,,,,,,0,,,67,0
67440,note_on,217,0,4,,,,,,,,3,,,48,88
67440,note_on,105,0,1,,,,,,,,0,,,69,101
67560,note_on,360,0,3,,,,,,,,2,,,57,0
67560,note_on,0,0,3,,,,,,,,2,,,58,75
67575,note_on,15,0,3,,,,,,,,2,,,58,0
67680,note_on,105,0,3,,,,,,,,2,,,60,75
67680,note_on,0,0,4,,,,,,,,3,,,51,88
67680,note_on,240,0,4,,,,,,,,3,,,48,0
67800,note_on,360,0,1,,,,,,,,0,,,69,0
67800,note_on,0,0,1,,,,,,,,0,,,70,75
67920,note_on,120,0,1,,,,,,,,0,,,70,0
67920,note_on,0,0,1,,,,,,,,0,,,67,75
68040,note_on,120,0,1,,,,,,,,0,,,67,0
68040,note_on,0,0,1,,,,,,,,0,,,69,75
68160,note_on,0,0,4,,,,,,,,3,,,50,88
68160,note_on,120,0,1,,,,,,,,0,,,69,0
68160,note_on,0,0,1,,,,,,,,0,,,66,75
68160,note_on,480,0,4,,,,,,,,3,,,51,0
68183,note_on,23,0,1,,,,,,,,0,,,66,0
68280,note_on,0,0,3,,,,,,,,2,,,62,75
68280,note_on,600,0,3,,,,,,,,2,,,60,0
68400,note_on,120,0,3,,,,,,,,2,,,62,0
68400,note_on,0,0,3,,,,,,,,2,,,58,75
68400,note_on,240,0,4,,,,,,,,3,,,50,0
68400,note_on,217,0,1,,,,,,,,0,,,62,75
68400,note_on,0,0,4,,,,,,,,3,,,55,114
68423,note_on,23,0,1,,,,,,,,0,,,62,0
68520,note_on,0,0,3,,,,,,,,2,,,60,75
68520,note_on,120,0,3,,,,,,,,2,,,58,0
68640,note_on,0,0,3,,,,,,,,2,,,57,75
68640,note_on,120,0,3,,,,,,,,2,,,60,0
68760,note_on,0,0,4,,,,,,,,3,,,54,88
68760,note_on,360,0,4,,,,,,,,3,,,55,0
68880,note_on,457,0,1,,,,,,,,0,,,62,101
68880,note_on,240,0,3,,,,,,,,2,,,57,0
68880,note_on,0,0,4,,,,,,,,3,,,55,88
68880,note_on,120,0,4,,,,,,,,3,,,54,0
69000,note_on,120,0,4,,,,,,,,3,,,55,0
69000,note_on,0,0,4,,,,,,,,3,,,57,88
69120,note_on,120,0,4,,,,,,,,3,,,57,0
69120,note_on,240,0,3,,,,,,,,2,,,58,75
69240,note_on,0,0,1,,,,,,,,0,,,60,75
69240,note_on,360,0,1,,,,,,,,0,,,62,0
69360,note_on,6937,0,2,,,,,,,,1,,,62,75
69360,note_on,0,0,1,,,,,,,,0,,,67,75
69360,note_on,120,0,1,,,,,,,,0,,,60,0
69480,note_on,0,0,2,,,,,,,,1,,,63,75
69480,note_on,120,0,2,,,,,,,,1,,,62,0
69600,note_on,120,0,2,,,,,,,,1,,,63,0
69600,note_on,480,0,3,,,,,,,,2,,,58,0
69600,note_on,0,0,3,,,,,,,,2,,,57,75
69600,note_on,0,0,2,,,,,,,,1,,,60,75
69720,note_on,360,0,1,,,,,,,,0,,,67,0
69720,note_on,0,0,1,,,,,,,,0,,,66,75
69840,note_on,120,0,1,,,,,,,,0,,,66,0
69840,note_on,0,0,1,,,,,,,,0,,,67,75
69960,note_on,0,0,1,,,,,,,,0,,,69,75
69960,note_on,120,0,1,,,,,,,,0,,,67,0
70080,note_on,0,0,1,,,,,,,,0,,,70,75
70080,note_on,120,0,1,,,,,,,,0,,,69,0
70080,note_on,0,0,3,,,,,,,,2,,,55,75
70080,note_on,480,0,3,,,,,,,,2,,,57,0
70080,note_on,0,0,2,,,,,,,,1,,,62,75
70080,note_on,480,0,2,,,,,,,,1,,,60,0
70103,note_on,23,0,3,,,,,,,,2,,,55,0
70200,note_on,120,0,2,,,,,,,,1,,,62,0
70200,note_on,0,0,2,,,,,,,,1,,,67,75
70320,note_on,217,0,3,,,,,,,,2,,,50,75
70320,note_on,0,0,2,,,,,,,,1,,,65,75
70320,note_on,120,0,2,,,,,,,,1,,,67,0
70343,note_on,23,0,3,,,,,,,,2,,,50,0
70440,note_on,0,0,2,,,,,,,,1,,,64,75
70440,note_on,120,0,2,,,,,,,,1,,,65,0
70560,note_on,120,0,2,,,,,,,,1,,,64,0
70560,note_on,0,0,2,,,,,,,,1,,,62,75
70560,note_on,217,0,3,,,,,,,,2,,,53,101
70680,note_on,600,0,1,,,,,,,,0,,,70,0
70680,note_on,0,0,1,,,,,,,,0,,,72,75
70800,note_on,0,0,1,,,,,,,,0,,,69,75
70800,note_on,120,0,1,,,,,,,,0,,,72,0
70920,note_on,120,0,1,,,,,,,,0,,,69,0
70920,note_on,0,0,1,,,,,,,,0,,,71,75
71040,note_on,120,0,1,,,,,,,,0,,,71,0
71040,note_on,0,0,1,,,,,,,,0,,,68,75
71040,note_on,0,0,3,,,,,,,,2,,,52,75
71040,note_on,480,0,3,,,,,,,,2,,,53,0
71063,note_on,23,0,1,,,,,,,,0,,,68,0
71160,note_on,0,0,2,,,,,,,,1,,,64,75
71160,note_on,600,0,2,,,,,,,,1,,,62,0
71280,note_on,120,0,2,,,,,,,,1,,,64,0
71280,note_on,0,0,2,,,,,,,,1,,,60,75
71280,note_on,217,0,1,,,,,,,,0,,,64,75
71280,note_on,240,0,3,,,,,,,,2,,,52,0
71280,note_on,0,0,3,,,,,,,,2,,,57,88
71303,note_on,23,0,1,,,,,,,,0,,,64,0
71400,note_on,0,0,2,,,,,,,,1,,,62,75
71400,note_on,120,0,2,,,,,,,,1,,,60,0
71520,note_on,120,0,2,,,,,,,,1,,,62,0
71520,note_on,0,0,2,,,,,,,,1,,,59,75
71543,note_on,23,0,2,,,,,,,,1,,,59,0
71640,note_on,360,0,3,,,,,,,,2,,,57,0
71640,note_on,0,0,3,,,,,,,,2,,,56,88
71760,note_on,120,0,3,,,,,,,,2,,,56,0
71760,note_on,0,0,3,,,,,,,,2,,,57,88
71760,note_on,217,0,2,,,,,,,,1,,,64,75
71880,note_on,120,0,3,,,,,,,,2,,,57,0
71880,note_on,0,0,3,,,,,,,,2,,,59,88
72000,note_on,0,0,3,,,,,,,,2,,,60,88
72000,note_on,120,0,3,,,,,,,,2,,,59,0
72120,note_on,0,0,2,,,,,,,,1,,,62,75
72120,note_on,360,0,2,,,,,,,,1,,,64,0
72240,note_on,0,0,2,,,,,,,,1,,,64,75
72240,note_on,937,0,1,,,,,,,,0,,,69,75
72240,note_on,120,0,2,,,,,,,,1,,,62,0
72360,note_on,0,0,2,,,,,,,,1,,,65,75
72360,note_on,120,0,2,,,,,,,,1,,,64,0
72480,note_on,0,0,2,,,,,,,,1,,,62,75
72480,note_on,120,0,2,,,,,,,,1,,,65,0
72480,note_on,480,0,3,,,,,,,,2,,,60,0
72480,note_on,0,0,3,,,,,,,,2,,,59,88
72600,note_on,360,0,1,,,,,,,,0,,,69,0
72600,note_on,0,0,1,,,,,,,,0,,,68,75
72720,note_on,0,0,1,,,,,,,,0,,,69,75
72720,note_on,120,0,1,,,,,,,,0,,,68,0
72840,note_on,0,0,1,,,,,,,,0,,,71,75
72840,note_on,120,0,1,,,,,,,,0,,,69,0
72960,note_on,0,0,3,,,,,,,,2,,,57,88
72960,note_on,480,0,2,,,,,,,,1,,,62,0
72960,note_on,480,0,3,,,,,,,,2,,,59,0
72960,note_on,0,0,1,,,,,,,,0,,,72,75
72960,note_on,120,0,1,,,,,,,,0,,,71,0
72960,note_on,0,0,2,,,,,,,,1,,,64,75
72983,note_on,23,0,2,,,,,,,,1,,,64,0
73200,note_on,0,0,1,,,,,,,,0,,,69,75
73200,note_on,217,0,2,,,,,,,,1,,,60,75
73200,note_on,240,0,1,,,,,,,,0,,,72,0
73223,note_on,23,0,2,,,,,,,,1,,,60,0
73320,note_on,0,0,1,,,,,,,,0,,,71,75
73320,note_on,120,0,1,,,,,,,,0,,,69,0
73440,note_on,0,0,1,,,,,,,,0,,,72,75
73440,note_on,120,0,1,,,,,,,,0,,,71,0
73440,note_on,0,0,3,,,,,,,,2,,,45,88
73440,note_on,480,0,3,,,,,,,,2,,,57,0
73560,note_on,120,0,3,,,,,,,,2,,,45,0
73560,note_on,120,0,1,,,,,,,,0,,,72,0
73560,note_on,0,0,3,,,,,,,,2,,,47,88
73560,note_on,0,0,1,,,,,,,,0,,,74,75
73680,note_on,457,0,2,,,,,,,,1,,,72,75
73680,note_on,120,0,1,,,,,,,,0,,,74,0
73680,note_on,120,0,3,,,,,,,,2,,,47,0
73680,note_on,0,0,3,,,,,,,,2,,,48,88
73680,note_on,0,0,1,,,,,,,,0,,,76,75
73800,note_on,0,0,3,,,,,,,,2,,,50,88
73800,note_on,120,0,3,,,,,,,,2,,,48,0
73800,note_on,120,0,1,,,,,,,,0,,,76,0
73800,note_on,0,0,1,,,,,,,,0,,,78,75
73920,note_on,0,0,3,,,,,,,,2,,,52,88
73920,note_on,120,0,3,,,,,,,,2,,,50,0
73920,note_on,0,0,1,,,,,,,,0,,,79,75
73920,note_on,120,0,1,,,,,,,,0,,,78,0
73943,note_on,23,0,1,,,,,,,,0,,,79,0
74040,note_on,0,0,2,,,,,,,,1,,,74,75
74040,note_on,120,0,3,,,,,,,,2,,,52,0
74040,note_on,0,0,3,,,,,,,,2,,,54,88
74040,note_on,360,0,2,,,,,,,,1,,,72,0
74160,note_on,0,0,3,,,,,,,,2,,,55,88
74160,note_on,120,0,3,,,,,,,,2,,,54,0
74160,note_on,0,0,2,,,,,,,,1,,,71,75
74160,note_on,120,0,2,,,,,,,,1,,,74,0
74160,note_on,217,0,1,,,,,,,,0,,,74,75
74183,note_on,23,0,1,,,,,,,,0,,,74,0
74183,note_on,23,0,3,,,,,,,,2,,,55,0
74280,note_on,0,0,2,,,,,,,,1,,,72,75
74280,note_on,120,0,2,,,,,,,,1,,,71,0
74400,note_on,120,0,2,,,,,,,,1,,,72,0
74400,note_on,0,0,2,,,,,,,,1,,,69,75
74400,note_on,217,0,1,,,,,,,,0,,,77,75
74400,note_on,217,0,3,,,,,,,,2,,,50,88
74423,note_on,23,0,2,,,,,,,,1,,,69,0
74520,note_on,0,0,3,,,,,,,,2,,,52,88
74520,note_on,120,0,3,,,,,,,,2,,,50,0
74640,note_on,217,0,2,,,,,,,,1,,,74,75
74640,note_on,0,0,3,,,,,,,,2,,,53,88
74640,note_on,120,0,3,,,,,,,,2,,,52,0
74760,note_on,0,0,3,,,,,,,,2,,,55,88
74760,note_on,120,0,3,,,,,,,,2,,,53,0
74880,note_on,0,0,3,,,,,,,,2,,,57,88
74880,note_on,0,0,1,,,,,,,,0,,,76,75
74880,note_on,480,0,1,,,,,,,,0,,,77,0
74880,note_on,120,0,3,,,,,,,,2,,,55,0
74903,note_on,23,0,1,,,,,,,,0,,,76,0
75000,note_on,120,0,3,,,,,,,,2,,,57,0
75000,note_on,0,0,3,,,,,,,,2,,,59,88
75120,note_on,120,0,3,,,,,,,,2,,,59,0
75120,note_on,0,0,3,,,,,,,,2,,,60,88
75120,note_on,217,0,1,,,,,,,,0,,,81,101
75120,note_on,480,0,2,,,,,,,,1,,,74,0
75120,note_on,0,0,2,,,,,,,,1,,,72,75
75143,note_on,23,0,2,,,,,,,,1,,,72,0
75240,note_on,0,0,3,,,,,,,,2,,,62,88
75240,note_on,120,0,3,,,,,,,,2,,,60,0
75360,note_on,0,0,3,,,,,,,,2,,,64,88
75360,note_on,120,0,3,,,,,,,,2,,,62,0
75360,note_on,217,0,2,,,,,,,,1,,,71,101
75480,note_on,360,0,1,,,,,,,,0,,,81,0
75480,note_on,0,0,1,,,,,,,,0,,,80,75
75600,note_on,0,0,3,,,,,,,,2,,,62,88
75600,note_on,240,0,3,,,,,,,,2,,,64,0
75600,note_on,0,0,1,,,,,,,,0,,,81,75
75600,note_on,120,0,1,,,,,,,,0,,,80,0
75720,note_on,0,0,1,,,,,,,,0,,,83,75
75720,note_on,120,0,1,,,,,,,,0,,,81,0
75840,note_on,240,0,3,,,,,,,,2,,,62,0
75840,note_on,0,0,3,,,,,,,,2,,,60,88
75840,note_on,0,0,1,,,,,,,,0,,,76,75
75840,note_on,120,0,1,,,,,,,,0,,,83,0
75960,note_on,0,0,2,,,,,,,,1,,,69,75
75960,note_on,600,0,2,,,,,,,,1,,,71,0
76080,note_on,240,0,3,,,,,,,,2,,,60,0
76080,note_on,0,0,3,,,,,,,,2,,,57,88
76080,note_on,120,0,2,,,,,,,,1,,,69,0
76080,note_on,0,0,2,,,,,,,,1,,,71,75
76200,note_on,0,0,2,,,,,,,,1,,,72,75
76200,note_on,120,0,2,,,,,,,,1,,,71,0
76320,note_on,0,0,3,,,,,,,,2,,,62,88
76320,note_on,0,0,2,,,,,,,,1,,,65,75
76320,note_on,240,0,3,,,,,,,,2,,,57,0
76320,note_on,120,0,2,,,,,,,,1,,,72,0
76440,note_on,0,0,1,,,,,,,,0,,,74,75
76440,note_on,600,0,1,,,,,,,,0,,,76,0
76560,note_on,0,0,3,,,,,,,,2,,,50,88
76560,note_on,240,0,2,,,,,,,,1,,,65,0
76560,note_on,0,0,1,,,,,,,,0,,,76,75
76560,note_on,0,0,2,,,,,,,,1,,,74,75
76560,note_on,240,0,3,,,,,,,,2,,,62,0
76560,note_on,120,0,1,,,,,,,,0,,,74,0
76680,note_on,120,0,1,,,,,,,,0,,,76,0
76680,note_on,0,0,1,,,,,,,,0,,,77,75
76800,note_on,240,0,3,,,,,,,,2,,,50,0
76800,note_on,0,0,3,,,,,,,,2,,,52,88
76800,note_on,240,0,2,,,,,,,,1,,,74,0
76800,note_on,120,0,1,,,,,,,,0,,,77,0
76800,note_on,0,0,1,,,,,,,,0,,,74,75
76800,note_on,0,0,2,,,,,,,,1,,,68,75
76920,note_on,0,0,1,,,,,,,,0,,,76,75
76920,note_on,120,0,1,,,,,,,,0,,,74,0
77040,note_on,120,0,1,,,,,,,,0,,,76,0
77040,note_on,0,0,2,,,,,,,,1,,,69,75
77040,note_on,0,0,1,,,,,,,,0,,,72,75
77040,note_on,0,0,3,,,,,,,,2,,,45,88
77040,note_on,240,0,3,,,,,,,,2,,,52,0
77040,note_on,240,0,2,,,,,,,,1,,,68,0
77160,note_on,120,0,1,,,,,,,,0,,,72,0
77160,note_on,0,0,1,,,,,,,,0,,,74,75
77280,note_on,120,0,1,,,,,,,,0,,,74,0
77280,note_on,240,0,3,,,,,,,,2,,,45,0
77280,note_on,0,0,3,,,,,,,,2,,,52,88
77280,note_on,0,0,1,,,,,,,,0,,,71,75
77520,note_on,0,0,2,,,,,,,,1,,,68,75
77520,note_on,0,0,3,,,,,,,,2,,,64,62
77520,note_on,480,0,2,,,,,,,,1,,,69,0
77520,note_on,240,0,3,,,,,,,,2,,,52,0
77640,note_on,0,0,3,,,,,,,,2,,,62,62
77640,note_on,120,0,3,,,,,,,,2,,,64,0
77760,note_on,240,0,2,,,,,,,,1,,,68,0
77760,note_on,480,0,1,,,,,,,,0,,,71,0
77760,note_on,120,0,3,,,,,,,,2,,,62,0
77760,note_on,0,0,3,,,,,,,,2,,,60,62
77760,note_on,0,0,2,,,,,,,,1,,,69,75
77760,note_on,0,0,1,,,,,,,,0,,,69,75
77783,note_on,23,0,2,,,,,,,,1,,,69,0
77783,note_on,23,0,1,,,,,,,,0,,,69,0
77880,note_on,0,0,3,,,,,,,,2,,,59,62
77880,note_on,120,0,3,,,,,,,,2,,,60,0
78000,note_on,217,0,1,,,,,,,,0,,,72,75
78000,note_on,0,0,3,,,,,,,,2,,,57,62
78000,note_on,120,0,3,,,,,,,,2,,,59,0
78120,note_on,0,0,3,,,,,,,,2,,,55,62
78120,note_on,120,0,1,,,,,,,,0,,,72,0
78120,note_on,120,0,3,,,,,,,,2,,,57,0
78120,note_on,0,0,1,,,,,,,,0,,,70,75
78240,note_on,0,0,3,,,,,,,,2,,,53,62
78240,note_on,120,0,3,,,,,,,,2,,,55,0
78240,note_on,0,0,1,,,,,,,,0,,,69,75
78240,note_on,120,0,1,,,,,,,,0,,,70,0
78263,note_on,23,0,3,,,,,,,,2,,,53,0
78360,note_on,120,0,1,,,,,,,,0,,,69,0
78360,note_on,0,0,1,,,,,,,,0,,,67,75
78480,note_on,120,0,1,,,,,,,,0,,,67,0
78480,note_on,0,0,1,,,,,,,,0,,,65,75
78480,note_on,217,0,3,,,,,,,,2,,,45,62
78503,note_on,23,0,3,,,,,,,,2,,,45,0
78600,note_on,0,0,1,,,,,,,,0,,,64,75
78600,note_on,120,0,1,,,,,,,,0,,,65,0
78720,note_on,9600,0,4,,,,,,,,3,,,46,101
78720,note_on,0,0,1,,,,,,,,0,,,62,88
78720,note_on,120,0,1,,,,,,,,0,,,64,0
78743,note_on,23,0,1,,,,,,,,0,,,62,0
78960,note_on,457,0,3,,,,,,,,2,,,53,75
78960,note_on,217,0,1,,,,,,,,0,,,74,88
78983,note_on,23,0,3,,,,,,,,2,,,53,0
79080,note_on,120,0,1,,,,,,,,0,,,74,0
79080,note_on,0,0,1,,,,,,,,0,,,72,88
79200,note_on,0,0,1,,,,,,,,0,,,70,88
79200,note_on,217,0,3,,,,,,,,2,,,55,101
79200,note_on,120,0,1,,,,,,,,0,,,72,0
79200,note_on,480,0,4,,,,,,,,3,,,46,0
79320,note_on,0,0,1,,,,,,,,0,,,69,88
79320,note_on,120,0,1,,,,,,,,0,,,70,0
79440,note_on,120,0,1,,,,,,,,0,,,69,0
79440,note_on,0,0,1,,,,,,,,0,,,67,88
79440,note_on,240,0,4,,,,,,,,3,,,47,75
79463,note_on,23,0,4,,,,,,,,3,,,47,0
79560,note_on,120,0,1,,,,,,,,0,,,67,0
79560,note_on,0,0,1,,,,,,,,0,,,65,88
79680,note_on,217,0,4,,,,,,,,3,,,48,114
79680,note_on,0,0,1,,,,,,,,0,,,64,88
79680,note_on,480,0,3,,,,,,,,2,,,55,0
79680,note_on,120,0,1,,,,,,,,0,,,65,0
79703,note_on,23,0,1,,,,,,,,0,,,64,0
79920,note_on,240,0,3,,,,,,,,2,,,55,88
79920,note_on,217,0,1,,,,,,,,0,,,76,88
79943,note_on,23,0,3,,,,,,,,2,,,55,0
80040,note_on,0,0,1,,,,,,,,0,,,74,88
80040,note_on,120,0,1,,,,,,,,0,,,76,0
80160,note_on,480,0,4,,,,,,,,3,,,48,0
80160,note_on,217,0,3,,,,,,,,2,,,57,114
80160,note_on,120,0,1,,,,,,,,0,,,74,0
80160,note_on,0,0,1,,,,,,,,0,,,72,88
80280,note_on,0,0,1,,,,,,,,0,,,70,88
80280,note_on,120,0,1,,,,,,,,0,,,72,0
80400,note_on,240,0,4,,,,,,,,3,,,49,88
80400,note_on,120,0,1,,,,,,,,0,,,70,0
80400,note_on,0,0,1,,,,,,,,0,,,69,88
80423,note_on,23,0,4,,,,,,,,3,,,49,0
80520,note_on,0,0,1,,,,,,,,0,,,67,88
80520,note_on,120,0,1,,,,,,,,0,,,69,0
80640,note_on,480,0,3,,,,,,,,2,,,57,0
80640,note_on,120,0,1,,,,,,,,0,,,67,0
80640,note_on,217,0,4,,,,,,,,3,,,50,114
80640,note_on,0,0,1,,,,,,,,0,,,65,88
80663,note_on,23,0,1,,,,,,,,0,,,65,0
80880,note_on,217,0,1,,,,,,,,0,,,77,88
80880,note_on,240,0,3,,,,,,,,2,,,57,88
80903,note_on,23,0,3,,,,,,,,2,,,57,0
81000,note_on,120,0,1,,,,,,,,0,,,77,0
81000,note_on,0,0,1,,,,,,,,0,,,76,88
81120,note_on,0,0,1,,,,,,,,0,,,74,88
81120,note_on,120,0,1,,,,,,,,0,,,76,0
81120,note_on,480,0,4,,,,,,,,3,,,50,0
81120,note_on,217,0,3,,,,,,,,2,,,58,114
81240,note_on,0,0,1,,,,,,,,0,,,72,88
81240,note_on,120,0,1,,,,,,,,0,,,74,0
81360,note_on,120,0,1,,,,,,,,0,,,72,0
81360,note_on,0,0,1,,,,,,,,0,,,70,88
81360,note_on,240,0,4,,,,,,,,3,,,50,88
81383,note_on,23,0,4,,,,,,,,3,,,50,0
81480,note_on,120,0,1,,,,,,,,0,,,70,0
81480,note_on,0,0,1,,,,,,,,0,,,69,88
81600,note_on,217,0,4,,,,,,,,3,,,52,114
81600,note_on,480,0,3,,,,,,,,2,,,58,0
81600,note_on,120,0,1,,,,,,,,0,,,69,0
81600,note_on,0,0,1,,,,,,,,0,,,67,88
81623,note_on,23,0,1,,,,,,,,0,,,67,0
81840,note_on,240,0,3,,,,,,,,2,,,55,88
81840,note_on,217,0,1,,,,,,,,0,,,79,88
81960,note_on,120,0,1,,,,,,,,0,,,79,0
81960,note_on,0,0,1,,,,,,,,0,,,77,88
82080,note_on,240,0,3,,,,,,,,2,,,55,0
82080,note_on,0,0,3,,,,,,,,2,,,60,88
82080,note_on,120,0,1,,,,,,,,0,,,77,0
82080,note_on,0,0,1,,,,,,,,0,,,76,88
82080,note_on,480,0,4,,,,,,,,3,,,52,0
82200,note_on,120,0,1,,,,,,,,0,,,76,0
82200,note_on,0,0,1,,,,,,,,0,,,74,88
82320,note_on,0,0,3,,,,,,,,2,,,64,88
82320,note_on,240,0,3,,,,,,,,2,,,60,0
82320,note_on,0,0,1,,,,,,,,0,,,72,88
82320,note_on,120,0,1,,,,,,,,0,,,74,0
82440,note_on,0,0,1,,,,,,,,0,,,70,88
82440,note_on,120,0,1,,,,,,,,0,,,72,0
82560,note_on,0,0,1,,,,,,,,0,,,69,88
82560,note_on,120,0,1,,,,,,,,0,,,70,0
82560,note_on,240,0,3,,,,,,,,2,,,64,0
82560,note_on,4777,0,2,,,,,,,,1,,,65,114
82583,note_on,23,0,1,,,,,,,,0,,,69,0
82800,note_on,217,0,1,,,,,,,,0,,,81,88
82800,note_on,240,0,3,,,,,,,,2,,,53,88
82920,note_on,0,0,1,,,,,,,,0,,,79,88
82920,note_on,120,0,1,,,,,,,,0,,,81,0
82920,note_on,120,0,3,,,,,,,,2,,,53,0
82920,note_on,0,0,3,,,,,,,,2,,,52,88
83040,note_on,120,0,1,,,,,,,,0,,,79,0
83040,note_on,480,0,2,,,,,,,,1,,,65,0
83040,note_on,0,0,1,,,,,,,,0,,,77,88
83040,note_on,120,0,3,,,,,,,,2,,,52,0
83040,note_on,0,0,3,,,,,,,,2,,,50,88
83160,note_on,0,0,1,,,,,,,,0,,,76,88
83160,note_on,120,0,1,,,,,,,,0,,,77,0
83160,note_on,120,0,3,,,,,,,,2,,,50,0
83160,note_on,0,0,3,,,,,,,,2,,,48,88
83280,note_on,120,0,3,,,,,,,,2,,,48,0
83280,note_on,0,0,3,,,,,,,,2,,,46,88
83280,note_on,240,0,2,,,,,,,,1,,,65,88
83280,note_on,0,0,1,,,,,,,,0,,,74,88
83280,note_on,120,0,1,,,,,,,,0,,,76,0
83303,note_on,23,0,2,,,,,,,,1,,,65,0
83400,note_on,120,0,3,,,,,,,,2,,,46,0
83400,note_on,0,0,3,,,,,,,,2,,,45,88
83400,note_on,0,0,1,,,,,,,,0,,,72,88
83400,note_on,120,0,1,,,,,,,,0,,,74,0
83520,note_on,217,0,2,,,,,,,,1,,,67,114
83520,note_on,0,0,3,,,,,,,,2,,,43,88
83520,note_on,120,0,3,,,,,,,,2,,,45,0
83520,note_on,0,0,1,,,,,,,,0,,,70,88
83520,note_on,120,0,1,,,,,,,,0,,,72,0
83543,note_on,23,0,1,,,,,,,,0,,,70,0
83760,note_on,217,0,1,,,,,,,,0,,,74,88
83760,note_on,240,0,3,,,,,,,,2,,,43,0
83760,note_on,0,0,3,,,,,,,,2,,,58,88
83783,note_on,23,0,1,,,,,,,,0,,,74,0
83880,note_on,0,0,3,,,,,,,,2,,,57,88
83880,note_on,120,0,3,,,,,,,,2,,,58,0
84000,note_on,217,0,1,,,,,,,,0,,,82,88
84000,note_on,480,0,2,,,,,,,,1,,,67,0
84000,note_on,120,0,3,,,,,,,,2,,,57,0
84000,note_on,0,0,3,,,,,,,,2,,,55,88
84120,note_on,120,0,3,,,,,,,,2,,,55,0
84120,note_on,0,0,3,,,,,,,,2,,,53,88
84240,note_on,240,0,2,,,,,,,,1,,,79,88
84240,note_on,0,0,3,,,,,,,,2,,,52,88
84240,note_on,120,0,3,,,,,,,,2,,,53,0
84263,note_on,23,0,2,,,,,,,,1,,,79,0
84360,note_on,0,0,3,,,,,,,,2,,,50,88
84360,note_on,120,0,3,,,,,,,,2,,,52,0
84480,note_on,120,0,3,,,,,,,,2,,,50,0
84480,note_on,0,0,3,,,,,,,,2,,,48,88
84480,note_on,217,0,2,,,,,,,,1,,,76,88
84503,note_on,23,0,2,,,,,,,,1,,,76,0
84600,note_on,600,0,1,,,,,,,,0,,,82,0
84600,note_on,0,0,1,,,,,,,,0,,,81,88
84720,note_on,217,0,2,,,,,,,,1,,,72,114
84720,note_on,120,0,1,,,,,,,,0,,,81,0
84720,note_on,0,0,1,,,,,,,,0,,,82,88
84840,note_on,0,0,1,,,,,,,,0,,,79,88
84840,note_on,120,0,1,,,,,,,,0,,,82,0
84960,note_on,0,0,1,,,,,,,,0,,,81,88
84960,note_on,120,0,1,,,,,,,,0,,,79,0
85080,note_on,0,0,2,,,,,,,,1,,,70,88
85080,note_on,360,0,2,,,,,,,,1,,,72,0
85200,note_on,120,0,2,,,,,,,,1,,,70,0
85200,note_on,0,0,2,,,,,,,,1,,,72,88
85320,note_on,0,0,2,,,,,,,,1,,,69,88
85320,note_on,120,0,2,,,,,,,,1,,,72,0
85440,note_on,120,0,2,,,,,,,,1,,,69,0
85440,note_on,0,0,3,,,,,,,,2,,,48,88
85440,note_on,0,0,3,,,,,,,,2,,,36,88
85440,note_on,960,0,3,,,,,,,,2,,,48,0
85440,note_on,0,0,2,,,,,,,,1,,,70,88
85560,note_on,600,0,1,,,,,,,,0,,,81,0
85560,note_on,0,0,1,,,,,,,,0,,,79,88
85680,note_on,120,0,1,,,,,,,,0,,,79,0
85680,note_on,0,0,1,,,,,,,,0,,,81,88
85800,note_on,0,0,1,,,,,,,,0,,,77,88
85800,note_on,120,0,1,,,,,,,,0,,,81,0
85920,note_on,120,0,1,,,,,,,,0,,,77,0
85920,note_on,0,0,1,,,,,,,,0,,,79,88
86040,note_on,600,0,2,,,,,,,,1,,,70,0
86040,note_on,0,0,2,,,,,,,,1,,,69,88
86160,note_on,0,0,2,,,,,,,,1,,,70,88
86160,note_on,120,0,2,,,,,,,,1,,,69,0
86280,note_on,120,0,2,,,,,,,,1,,,70,0
86280,note_on,0,0,2,,,,,,,,1,,,67,88
86400,note_on,0,0,3,,,,,,,,2,,,48,88
86400,note_on,0,0,2,,,,,,,,1,,,69,88
86400,note_on,960,0,3,,,,,,,,2,,,48,0
86400,note_on,0,0,3,,,,,,,,2,,,36,0
86400,note_on,120,0,2,,,,,,,,1,,,67,0
86520,note_on,600,0,1,,,,,,,,0,,,79,0
86520,note_on,0,0,1,,,,,,,,0,,,77,88
86640,note_on,0,0,1,,,,,,,,0,,,79,88
86640,note_on,120,0,1,,,,,,,,0,,,77,0
86760,note_on,0,0,1,,,,,,,,0,,,76,88
86760,note_on,120,0,1,,,,,,,,0,,,79,0
86880,note_on,120,0,1,,,,,,,,0,,,76,0
86880,note_on,0,0,1,,,,,,,,0,,,77,88
87000,note_on,600,0,2,,,,,,,,1,,,69,0
87000,note_on,0,0,2,,,,,,,,1,,,67,88
87120,note_on,120,0,2,,,,,,,,1,,,67,0
87120,note_on,0,0,2,,,,,,,,1,,,69,88
87240,note_on,120,0,2,,,,,,,,1,,,69,0
87240,note_on,0,0,2,,,,,,,,1,,,65,88
87360,note_on,120,0,2,,,,,,,,1,,,65,0
87360,note_on,0,0,2,,,,,,,,1,,,67,88
87480,note_on,600,0,1,,,,,,,,0,,,77,0
87480,note_on,0,0,1,,,,,,,,0,,,76,88
87600,note_on,120,0,1,,,,,,,,0,,,76,0
87600,note_on,0,0,1,,,,,,,,0,,,77,88
87720,note_on,0,0,1,,,,,,,,0,,,74,88
87720,note_on,120,0,1,,,,,,,,0,,,77,0
87840,note_on,1440,0,3,,,,,,,,2,,,48,0
87840,note_on,0,0,3,,,,,,,,2,,,60,88
87840,note_on,120,0,1,,,,,,,,0,,,74,0
87840,note_on,0,0,1,,,,,,,,0,,,76,88
87960,note_on,600,0,2,,,,,,,,1,,,67,0
87960,note_on,0,0,2,,,,,,,,1,,,65,88
88080,note_on,120,0,2,,,,,,,,1,,,65,0
88080,note_on,0,0,2,,,,,,,,1,,,67,88
88200,note_on,120,0,2,,,,,,,,1,,,67,0
88200,note_on,0,0,2,,,,,,,,1,,,64,88
88320,note_on,480,0,1,,,,,,,,0,,,76,0
88320,note_on,120,0,2,,,,,,,,1,,,64,0
88320,note_on,0,0,2,,,,,,,,1,,,65,88
88320,note_on,0,0,1,,,,,,,,0,,,74,88
88440,note_on,600,0,3,,,,,,,,2,,,60,0
88440,note_on,0,0,3,,,,,,,,2,,,58,88
88560,note_on,120,0,3,,,,,,,,2,,,58,0
88560,note_on,0,0,3,,,,,,,,2,,,60,88
88680,note_on,0,0,3,,,,,,,,2,,,57,88
88680,note_on,120,0,3,,,,,,,,2,,,60,0
88800,note_on,0,0,3,,,,,,,,2,,,58,88
88800,note_on,120,0,3,,,,,,,,2,,,57,0
88920,note_on,0,0,2,,,,,,,,1,,,64,88
88920,note_on,600,0,2,,,,,,,,1,,,65,0
89040,note_on,120,0,2,,,,,,,,1,,,64,0
89040,note_on,0,0,2,,,,,,,,1,,,65,88
89160,note_on,120,0,2,,,,,,,,1,,,65,0
89160,note_on,0,0,2,,,,,,,,1,,,62,88
89280,note_on,960,0,1,,,,,,,,0,,,74,0
89280,note_on,0,0,1,,,,,,,,0,,,72,101
89280,note_on,120,0,2,,,,,,,,1,,,62,0
89280,note_on,0,0,2,,,,,,,,1,,,64,101
89400,note_on,0,0,3,,,,,,,,2,,,57,88
89400,note_on,600,0,3,,,,,,,,2,,,58,0
89520,note_on,120,0,3,,,,,,,,2,,,57,0
89520,note_on,0,0,3,,,,,,,,2,,,58,88
89640,note_on,120,0,3,,,,,,,,2,,,58,0
89640,note_on,0,0,3,,,,,,,,2,,,55,88
89760,note_on,120,0,3,,,,,,,,2,,,55,0
89760,note_on,0,0,3,,,,,,,,2,,,57,101
89760,note_on,0,0,2,,,,,,,,1,,,65,101
89760,note_on,480,0,2,,,,,,,,1,,,64,0
89880,note_on,0,0,1,,,,,,,,0,,,70,101
89880,note_on,120,0,3,,,,,,,,2,,,57,0
89880,note_on,0,0,3,,,,,,,,2,,,55,101
89880,note_on,600,0,1,,,,,,,,0,,,72,0
90000,note_on,0,0,3,,,,,,,,2,,,57,101
90000,note_on,120,0,3,,,,,,,,2,,,55,0
90000,note_on,0,0,1,,,,,,,,0,,,72,101
90000,note_on,120,0,1,,,,,,,,0,,,70,0
90120,note_on,120,0,3,,,,,,,,2,,,57,0
90120,note_on,0,0,1,,,,,,,,0,,,69,101
90120,note_on,120,0,1,,,,,,,,0,,,72,0
90120,note_on,0,0,3,,,,,,,,2,,,53,101
90240,note_on,120,0,1,,,,,,,,0,,,69,0
90240,note_on,0,0,1,,,,,,,,0,,,70,101
90240,note_on,0,0,3,,,,,,,,2,,,55,101
90240,note_on,120,0,3,,,,,,,,2,,,53,0
90360,note_on,600,0,2,,,,,,,,1,,,65,0
90360,note_on,0,0,2,,,,,,,,1,,,64,101
90480,note_on,120,0,2,,,,,,,,1,,,64,0
90480,note_on,0,0,2,,,,,,,,1,,,65,101
90480,note_on,0,0,3,,,,,,,,2,,,58,101
90480,note_on,240,0,3,,,,,,,,2,,,55,0
90600,note_on,0,0,2,,,,,,,,1,,,62,101
90600,note_on,120,0,2,,,,,,,,1,,,65,0
90720,note_on,0,0,3,,,,,,,,2,,,60,101
90720,note_on,0,0,2,,,,,,,,1,,,64,101
90720,note_on,120,0,2,,,,,,,,1,,,62,0
90720,note_on,240,0,3,,,,,,,,2,,,58,0
90840,note_on,600,0,1,,,,,,,,0,,,70,0
90840,note_on,0,0,1,,,,,,,,0,,,69,101
90960,note_on,240,0,3,,,,,,,,2,,,60,0
90960,note_on,0,0,3,,,,,,,,2,,,48,101
90960,note_on,120,0,1,,,,,,,,0,,,69,0
90960,note_on,0,0,1,,,,,,,,0,,,70,101
91080,note_on,120,0,1,,,,,,,,0,,,70,0
91080,note_on,0,0,1,,,,,,,,0,,,67,101
91200,note_on,0,0,2,,,,,,,,1,,,65,101
91200,note_on,120,0,1,,,,,,,,0,,,67,0
91200,note_on,480,0,2,,,,,,,,1,,,64,0
91200,note_on,0,0,3,,,,,,,,2,,,53,101
91200,note_on,240,0,3,,,,,,,,2,,,48,0
91200,note_on,0,0,1,,,,,,,,0,,,69,101
91223,note_on,23,0,3,,,,,,,,2,,,53,0
91440,note_on,240,0,1,,,,,,,,0,,,69,0
91440,note_on,0,0,1,,,,,,,,0,,,57,62
91440,note_on,240,0,2,,,,,,,,1,,,65,0
91440,note_on,217,0,3,,,,,,,,2,,,41,62
91560,note_on,120,0,3,,,,,,,,2,,,41,0
91560,note_on,0,0,3,,,,,,,,2,,,43,62
91560,note_on,120,0,1,,,,,,,,0,,,57,0
91560,note_on,0,0,1,,,,,,,,0,,,58,62
91680,note_on,120,0,3,,,,,,,,2,,,43,0
91680,note_on,0,0,3,,,,,,,,2,,,45,62
91680,note_on,120,0,1,,,,,,,,0,,,58,0
91680,note_on,0,0,1,,,,,,,,0,,,60,62
91800,note_on,120,0,1,,,,,,,,0,,,60,0
91800,note_on,0,0,1,,,,,,,,0,,,62,62
91800,note_on,120,0,3,,,,,,,,2,,,45,0
91800,note_on,0,0,3,,,,,,,,2,,,46,62
91920,note_on,0,0,3,,,,,,,,2,,,48,62
91920,note_on,120,0,3,,,,,,,,2,,,46,0
91920,note_on,120,0,1,,,,,,,,0,,,62,0
91920,note_on,0,0,1,,,,,,,,0,,,64,62
92040,note_on,120,0,3,,,,,,,,2,,,48,0
92040,note_on,0,0,3,,,,,,,,2,,,50,62
92040,note_on,120,0,1,,,,,,,,0,,,64,0
92040,note_on,0,0,1,,,,,,,,0,,,65,62
92160,note_on,10080,0,4,,,,,,,,3,,,52,62
92160,note_on,0,0,1,,,,,,,,0,,,67,62
92160,note_on,120,0,1,,,,,,,,0,,,65,0
92160,note_on,120,0,3,,,,,,,,2,,,50,0
92183,note_on,23,0,4,,,,,,,,3,,,52,0
92400,note_on,217,0,4,,,,,,,,3,,,48,62
92400,note_on,0,0,1,,,,,,,,0,,,60,62
92400,note_on,240,0,1,,,,,,,,0,,,67,0
92400,note_on,240,0,3,,,,,,,,2,,,52,62
92520,note_on,0,0,1,,,,,,,,0,,,62,62
92520,note_on,120,0,1,,,,,,,,0,,,60,0
92640,note_on,240,0,4,,,,,,,,3,,,48,0
92640,note_on,0,0,1,,,,,,,,0,,,64,62
92640,note_on,120,0,1,,,,,,,,0,,,62,0
92640,note_on,0,0,4,,,,,,,,3,,,46,62
92760,note_on,120,0,1,,,,,,,,0,,,64,0
92760,note_on,0,0,1,,,,,,,,0,,,66,62
92880,note_on,0,0,3,,,,,,,,2,,,54,62
92880,note_on,0,0,1,,,,,,,,0,,,67,62
92880,note_on,120,0,1,,,,,,,,0,,,66,0
92880,note_on,240,0,4,,,,,,,,3,,,46,0
92880,note_on,0,0,4,,,,,,,,3,,,45,62
92880,note_on,480,0,3,,,,,,,,2,,,52,0
93000,note_on,0,0,1,,,,,,,,0,,,69,62
93000,note_on,120,0,1,,,,,,,,0,,,67,0
93120,note_on,240,0,4,,,,,,,,3,,,45,0
93120,note_on,0,0,4,,,,,,,,3,,,43,62
93120,note_on,0,0,3,,,,,,,,2,,,55,62
93120,note_on,120,0,1,,,,,,,,0,,,69,0
93120,note_on,0,0,1,,,,,,,,0,,,70,62
93120,note_on,240,0,3,,,,,,,,2,,,54,0
93360,note_on,0,0,1,,,,,,,,0,,,58,75
93360,note_on,240,0,1,,,,,,,,0,,,70,0
93360,note_on,0,0,4,,,,,,,,3,,,43,62
93360,note_on,240,0,4,,,,,,,,3,,,43,0
93480,note_on,0,0,4,,,,,,,,3,,,45,62
93480,note_on,120,0,1,,,,,,,,0,,,58,0
93480,note_on,0,0,1,,,,,,,,0,,,60,75
93480,note_on,120,0,4,,,,,,,,3,,,43,0
93600,note_on,120,0,1,,,,,,,,0,,,60,0
93600,note_on,480,0,3,,,,,,,,2,,,55,0
93600,note_on,0,0,1,,,,,,,,0,,,62,75
93600,note_on,0,0,4,,,,,,,,3,,,46,75
93600,note_on,120,0,4,,,,,,,,3,,,45,0
93720,note_on,120,0,1,,,,,,,,0,,,62,0
93720,note_on,120,0,4,,,,,,,,3,,,46,0
93720,note_on,0,0,1,,,,,,,,0,,,64,75
93720,note_on,0,0,4,,,,,,,,3,,,48,75
93840,note_on,0,0,1,,,,,,,,0,,,65,75
93840,note_on,120,0,4,,,,,,,,3,,,48,0
93840,note_on,0,0,4,,,,,,,,3,,,50,75
93840,note_on,120,0,1,,,,,,,,0,,,64,0
93960,note_on,120,0,1,,,,,,,,0,,,65,0
93960,note_on,0,0,1,,,,,,,,0,,,67,75
93960,note_on,120,0,4,,,,,,,,3,,,50,0
93960,note_on,0,0,4,,,,,,,,3,,,52,75
94080,note_on,120,0,1,,,,,,,,0,,,67,0
94080,note_on,120,0,4,,,,,,,,3,,,52,0
94080,note_on,0,0,1,,,,,,,,0,,,69,75
94080,note_on,480,0,3,,,,,,,,2,,,53,75
94320,note_on,0,0,1,,,,,,,,0,,,62,75
94320,note_on,240,0,1,,,,,,,,0,,,69,0
94440,note_on,0,0,1,,,,,,,,0,,,64,75
94440,note_on,120,0,1,,,,,,,,0,,,62,0
94560,note_on,480,0,3,,,,,,,,2,,,53,0
94560,note_on,0,0,3,,,,,,,,2,,,50,75
94560,note_on,120,0,1,,,,,,,,0,,,64,0
94560,note_on,0,0,1,,,,,,,,0,,,65,75
94680,note_on,120,0,1,,,,,,,,0,,,65,0
94680,note_on,0,0,1,,,,,,,,0,,,67,75
94800,note_on,120,0,1,,,,,,,,0,,,67,0
94800,note_on,0,0,1,,,,,,,,0,,,69,75
94920,note_on,0,0,1,,,,,,,,0,,,70,75
94920,note_on,120,0,1,,,,,,,,0,,,69,0
95040,note_on,480,0,3,,,,,,,,2,,,50,0
95040,note_on,0,0,1,,,,,,,,0,,,72,75
95040,note_on,120,0,1,,,,,,,,0,,,70,0
95063,note_on,23,0,1,,,,,,,,0,,,72,0
95280,note_on,217,0,1,,,,,,,,0,,,67,75
95280,note_on,240,0,3,,,,,,,,2,,,58,75
95303,note_on,23,0,1,,,,,,,,0,,,67,0
95400,note_on,120,0,3,,,,,,,,2,,,58,0
95400,note_on,0,0,3,,,,,,,,2,,,57,75
95520,note_on,120,0,3,,,,,,,,2,,,57,0
95520,note_on,0,0,3,,,,,,,,2,,,55,75
95520,note_on,217,0,1,,,,,,,,0,,,70,101
95640,note_on,120,0,3,,,,,,,,2,,,55,0
95640,note_on,0,0,3,,,,,,,,2,,,53,75
95760,note_on,120,0,3,,,,,,,,2,,,53,0
95760,note_on,0,0,3,,,,,,,,2,,,52,75
95760,note_on,4320,0,2,,,,,,,,1,,,67,75
95880,note_on,0,0,3,,,,,,,,2,,,50,75
95880,note_on,120,0,3,,,,,,,,2,,,52,0
96000,note_on,480,0,1,,,,,,,,0,,,70,0
96000,note_on,0,0,1,,,,,,,,0,,,69,75
96000,note_on,120,0,3,,,,,,,,2,,,50,0
96000,note_on,0,0,3,,,,,,,,2,,,49,75
96023,note_on,23,0,3,,,,,,,,2,,,49,0
96120,note_on,360,0,2,,,,,,,,1,,,67,0
96120,note_on,0,0,2,,,,,,,,1,,,64,75
96240,note_on,0,0,1,,,,,,,,0,,,69,75
96240,note_on,217,0,3,,,,,,,,2,,,50,75
96240,note_on,120,0,2,,,,,,,,1,,,64,0
96240,note_on,0,0,2,,,,,,,,1,,,65,75
96240,note_on,240,0,1,,,,,,,,0,,,69,0
96360,note_on,120,0,2,,,,,,,,1,,,65,0
96360,note_on,0,0,2,,,,,,,,1,,,64,75
96480,note_on,0,0,1,,,,,,,,0,,,74,75
96480,note_on,240,0,1,,,,,,,,0,,,69,0
96480,note_on,120,0,2,,,,,,,,1,,,64,0
96480,note_on,0,0,3,,,,,,,,2,,,46,75
96480,note_on,240,0,3,,,,,,,,2,,,50,0
96480,note_on,0,0,2,,,,,,,,1,,,62,75
96600,note_on,120,0,2,,,,,,,,1,,,62,0
96600,note_on,0,0,2,,,,,,,,1,,,64,75
96720,note_on,120,0,2,,,,,,,,1,,,64,0
96720,note_on,0,0,2,,,,,,,,1,,,65,75
96840,note_on,0,0,1,,,,,,,,0,,,76,75
96840,note_on,360,0,1,,,,,,,,0,,,74,0
96840,note_on,0,0,2,,,,,,,,1,,,67,75
96840,note_on,120,0,2,,,,,,,,1,,,65,0
96960,note_on,0,0,1,,,,,,,,0,,,73,75
96960,note_on,120,0,1,,,,,,,,0,,,76,0
96960,note_on,480,0,3,,,,,,,,2,,,46,0
96960,note_on,0,0,3,,,,,,,,2,,,45,75
96960,note_on,120,0,2,,,,,,,,1,,,67,0
96960,note_on,0,0,2,,,,,,,,1,,,69,75
96983,note_on,23,0,1,,,,,,,,0,,,73,0
96983,note_on,23,0,3,,,,,,,,2,,,45,0
97200,note_on,217,0,1,,,,,,,,0,,,69,75
97200,note_on,217,0,3,,,,,,,,2,,,38,75
97200,note_on,0,0,2,,,,,,,,1,,,65,75
97200,note_on,240,0,2,,,,,,,,1,,,69,0
97223,note_on,23,0,2,,,,,,,,1,,,65,0
97320,note_on,0,0,3,,,,,,,,2,,,40,75
97320,note_on,120,0,3,,,,,,,,2,,,38,0
97440,note_on,217,0,2,,,,,,,,1,,,69,75
97440,note_on,0,0,1,,,,,,,,0,,,77,75
97440,note_on,240,0,1,,,,,,,,0,,,69,0
97440,note_on,120,0,3,,,,,,,,2,,,40,0
97440,note_on,0,0,3,,,,,,,,2,,,41,75
97560,note_on,120,0,3,,,,,,,,2,,,41,0
97560,note_on,0,0,3,,,,,,,,2,,,43,75
97680,note_on,120,0,3,,,,,,,,2,,,43,0
97680,note_on,0,0,3,,,,,,,,2,,,45,75
97800,note_on,120,0,3,,,,,,,,2,,,45,0
97800,note_on,0,0,1,,,,,,,,0,,,79,75
97800,note_on,360,0,1,,,,,,,,0,,,77,0
97800,note_on,0,0,3,,,,,,,,2,,,47,75
97920,note_on,120,0,3,,,,,,,,2,,,47,0
97920,note_on,0,0,2,,,,,,,,1,,,67,114
97920,note_on,0,0,2,,,,,,,,1,,,76,114
97920,note_on,0,0,3,,,,,,,,2,,,48,88
97920,note_on,480,0,2,,,,,,,,1,,,69,0
97920,note_on,120,0,1,,,,,,,,0,,,79,0
97943,note_on,23,0,3,,,,,,,,2,,,48,0
97967,note_on,47,0,2,,,,,,,,1,,,76,0
97967,note_on,0,0,2,,,,,,,,1,,,67,0
98160,note_on,217,0,3,,,,,,,,2,,,43,88
98160,note_on,240,0,1,,,,,,,,0,,,82,88
98183,note_on,23,0,3,,,,,,,,2,,,43,0
98280,note_on,120,0,1,,,,,,,,0,,,82,0
98280,note_on,0,0,1,,,,,,,,0,,,81,88
98400,note_on,433,0,2,,,,,,,,1,,,67,114
98400,note_on,0,0,1,,,,,,,,0,,,79,88
98400,note_on,120,0,1,,,,,,,,0,,,81,0
98400,note_on,217,0,3,,,,,,,,2,,,46,88
98520,note_on,0,0,1,,,,,,,,0,,,77,88
98520,note_on,120,0,1,,,,,,,,0,,,79,0
98640,note_on,0,0,1,,,,,,,,0,,,76,88
98640,note_on,120,0,1,,,,,,,,0,,,77,0
98760,note_on,120,0,1,,,,,,,,0,,,76,0
98760,note_on,0,0,1,,,,,,,,0,,,74,88
98880,note_on,0,0,3,,,,,,,,2,,,45,88
98880,note_on,480,0,3,,,,,,,,2,,,46,0
98880,note_on,0,0,1,,,,,,,,0,,,73,88
98880,note_on,120,0,1,,,,,,,,0,,,74,0
98903,note_on,23,0,3,,,,,,,,2,,,45,0
99000,note_on,0,0,2,,,,,,,,1,,,69,88
99000,note_on,600,0,2,,,,,,,,1,,,67,0
99120,note_on,240,0,1,,,,,,,,0,,,73,0
99120,note_on,217,0,3,,,,,,,,2,,,50,114
99120,note_on,0,0,1,,,,,,,,0,,,69,88
99120,note_on,120,0,2,,,,,,,,1,,,69,0
99120,note_on,0,0,2,,,,,,,,1,,,65,88
99240,note_on,120,0,2,,,,,,,,1,,,65,0
99240,note_on,0,0,2,,,,,,,,1,,,67,88
99360,note_on,240,0,1,,,,,,,,0,,,69,0
99360,note_on,0,0,1,,,,,,,,0,,,67,88
99360,note_on,0,0,2,,,,,,,,1,,,64,88
99360,note_on,120,0,2,,,,,,,,1,,,67,0
99480,note_on,360,0,3,,,,,,,,2,,,50,0
99480,note_on,0,0,3,,,,,,,,2,,,49,88
99600,note_on,120,0,3,,,,,,,,2,,,49,0
99600,note_on,0,0,3,,,,,,,,2,,,50,88
99720,note_on,0,0,3,,,,,,,,2,,,52,88
99720,note_on,120,0,3,,,,,,,,2,,,50,0
99840,note_on,0,0,2,,,,,,,,1,,,65,88
99840,note_on,5760,0,4,,,,,,,,3,,,53,75
99840,note_on,480,0,1,,,,,,,,0,,,67,0
99840,note_on,120,0,3,,,,,,,,2,,,52,0
99840,note_on,0,0,3,,,,,,,,2,,,57,88
99840,note_on,480,0,2,,,,,,,,1,,,64,0
99840,note_on,0,0,2,,,,,,,,1,,,62,88
100080,note_on,240,0,1,,,,,,,,0,,,74,88
100080,note_on,240,0,4,,,,,,,,3,,,53,0
100080,note_on,0,0,4,,,,,,,,3,,,50,75
100200,note_on,0,0,1,,,,,,,,0,,,72,88
100200,note_on,120,0,1,,,,,,,,0,,,74,0
100320,note_on,480,0,2,,,,,,,,1,,,65,0
100320,note_on,0,0,2,,,,,,,,1,,,62,0
100320,note_on,0,0,2,,,,,,,,1,,,62,75
100320,note_on,480,0,3,,,,,,,,2,,,57,0
100320,note_on,0,0,1,,,,,,,,0,,,70,75
100320,note_on,0,0,4,,,,,,,,3,,,55,75
100320,note_on,120,0,1,,,,,,,,0,,,72,0
100320,note_on,240,0,4,,,,,,,,3,,,50,0
100440,note_on,120,0,1,,,,,,,,0,,,70,0
100440,note_on,0,0,1,,,,,,,,0,,,69,75
100560,note_on,240,0,4,,,,,,,,3,,,55,0
100560,note_on,0,0,4,,,,,,,,3,,,52,75
100560,note_on,120,0,1,,,,,,,,0,,,69,0
100560,note_on,0,0,1,,,,,,,,0,,,67,75
100680,note_on,120,0,1,,,,,,,,0,,,67,0
100680,note_on,0,0,1,,,,,,,,0,,,65,75
100800,note_on,0,0,4,,,,,,,,3,,,57,75
100800,note_on,480,0,3,,,,,,,,2,,,60,75
100800,note_on,480,0,2,,,,,,,,1,,,62,0
100800,note_on,120,0,1,,,,,,,,0,,,65,0
100800,note_on,0,0,1,,,,,,,,0,,,64,75
100800,note_on,240,0,4,,,,,,,,3,,,52,0
100823,note_on,23,0,1,,,,,,,,0,,,64,0
101040,note_on,217,0,1,,,,,,,,0,,,69,75
101040,note_on,0,0,4,,,,,,,,3,,,48,75
101040,note_on,240,0,4,,,,,,,,3,,,57,0
101063,note_on,23,0,1,,,,,,,,0,,,69,0
101280,note_on,217,0,1,,,,,,,,0,,,66,75
101280,note_on,0,0,4,,,,,,,,3,,,50,75
101280,note_on,240,0,4,,,,,,,,3,,,48,0
101400,note_on,600,0,3,,,,,,,,2,,,60,0
101400,note_on,0,0,3,,,,,,,,2,,,58,75
101520,note_on,0,0,3,,,,,,,,2,,,60,75
101520,note_on,120,0,3,,,,,,,,2,,,58,0
101640,note_on,0,0,3,,,,,,,,2,,,57,75
101640,note_on,120,0,3,,,,,,,,2,,,60,0
101760,note_on,0,0,3,,,,,,,,2,,,58,75
101760,note_on,120,0,3,,,,,,,,2,,,57,0
101760,note_on,0,0,4,,,,,,,,3,,,43,75
101760,note_on,480,0,1,,,,,,,,0,,,66,0
101760,note_on,480,0,4,,,,,,,,3,,,50,0
101760,note_on,0,0,1,,,,,,,,0,,,67,75
102000,note_on,240,0,4,,,,,,,,3,,,43,0
102000,note_on,0,0,3,,,,,,,,2,,,58,75
102000,note_on,1200,0,2,,,,,,,,1,,,62,75
102000,note_on,240,0,3,,,,,,,,2,,,58,0
102120,note_on,120,0,3,,,,,,,,2,,,58,0
102120,note_on,0,0,3,,,,,,,,2,,,57,75
102240,note_on,120,0,3,,,,,,,,2,,,57,0
102240,note_on,0,0,3,,,,,,,,2,,,55,75
102240,note_on,480,0,1,,,,,,,,0,,,67,0
102240,note_on,0,0,1,,,,,,,,0,,,70,75
102360,note_on,0,0,3,,,,,,,,2,,,53,75
102360,note_on,120,0,3,,,,,,,,2,,,55,0
102480,note_on,0,0,3,,,,,,,,2,,,52,75
102480,note_on,0,0,2,,,,,,,,1,,,67,101
102480,note_on,480,0,2,,,,,,,,1,,,62,0
102480,note_on,120,0,3,,,,,,,,2,,,53,0
102600,note_on,120,0,3,,,,,,,,2,,,52,0
102600,note_on,0,0,3,,,,,,,,2,,,50,75
102720,note_on,480,0,1,,,,,,,,0,,,70,0
102720,note_on,0,0,1,,,,,,,,0,,,69,75
102720,note_on,120,0,3,,,,,,,,2,,,50,0
102720,note_on,0,0,3,,,,,,,,2,,,49,75
102960,note_on,0,0,2,,,,,,,,1,,,64,75
102960,note_on,240,0,3,,,,,,,,2,,,49,0
102960,note_on,0,0,3,,,,,,,,2,,,61,75
102960,note_on,480,0,2,,,,,,,,1,,,67,0
102960,note_on,240,0,1,,,,,,,,0,,,69,0
102960,note_on,0,0,1,,,,,,,,0,,,81,75
103080,note_on,0,0,1,,,,,,,,0,,,79,75
103080,note_on,120,0,1,,,,,,,,0,,,81,0
103200,note_on,0,0,1,,,,,,,,0,,,77,75
103200,note_on,240,0,2,,,,,,,,1,,,64,0
103200,note_on,0,0,2,,,,,,,,1,,,62,75
103200,note_on,0,0,3,,,,,,,,2,,,62,75
103200,note_on,240,0,3,,,,,,,,2,,,61,0
103200,note_on,120,0,1,,,,,,,,0,,,79,0
103320,note_on,0,0,1,,,,,,,,0,,,76,75
103320,note_on,120,0,1,,,,,,,,0,,,77,0
103440,note_on,0,0,3,,,,,,,,2,,,53,75
103440,note_on,120,0,1,,,,,,,,0,,,76,0
103440,note_on,0,0,1,,,,,,,,0,,,74,75
103440,note_on,240,0,3,,,,,,,,2,,,62,0
103560,note_on,120,0,1,,,,,,,,0,,,74,0
103560,note_on,0,0,1,,,,,,,,0,,,72,75
103680,note_on,0,0,1,,,,,,,,0,,,71,75
103680,note_on,120,0,1,,,,,,,,0,,,72,0
103680,note_on,0,0,3,,,,,,,,2,,,55,75
103680,note_on,240,0,3,,,,,,,,2,,,53,0
103920,note_on,0,0,3,,,,,,,,2,,,52,75
103920,note_on,240,0,3,,,,,,,,2,,,55,0
103920,note_on,240,0,1,,,,,,,,0,,,71,0
103920,note_on,0,0,1,,,,,,,,0,,,76,75
103920,note_on,0,0,2,,,,,,,,1,,,67,75
103920,note_on,720,0,2,,,,,,,,1,,,62,0
104160,note_on,240,0,1,,,,,,,,0,,,76,0
104160,note_on,0,0,3,,,,,,,,2,,,57,75
104160,note_on,240,0,3,,,,,,,,2,,,52,0
104160,note_on,0,0,2,,,,,,,,1,,,64,75
104160,note_on,0,0,1,,,,,,,,0,,,73,75
104160,note_on,240,0,2,,,,,,,,1,,,67,0
104400,note_on,0,0,3,,,,,,,,2,,,45,75
104400,note_on,240,0,3,,,,,,,,2,,,57,0
104400,note_on,240,0,2,,,,,,,,1,,,64,0
104400,note_on,0,0,2,,,,,,,,1,,,69,75
104520,note_on,120,0,2,,,,,,,,1,,,69,0
104520,note_on,0,0,2,,,,,,,,1,,,67,75
104640,note_on,480,0,1,,,,,,,,0,,,73,0
104640,note_on,0,0,3,,,,,,,,2,,,50,75
104640,note_on,240,0,3,,,,,,,,2,,,45,0
104640,note_on,0,0,2,,,,,,,,1,,,65,75
104640,note_on,120,0,2,,,,,,,,1,,,67,0
104640,note_on,0,0,1,,,,,,,,0,,,74,75
104663,note_on,23,0,3,,,,,,,,2,,,50,0
104880,note_on,240,0,1,,,,,,,,0,,,74,0
104880,note_on,0,0,1,,,,,,,,0,,,77,75
104880,note_on,217,0,3,,,,,,,,2,,,57,75
104903,note_on,23,0,3,,,,,,,,2,,,57,0
105000,note_on,0,0,1,,,,,,,,0,,,76,75
105000,note_on,120,0,1,,,,,,,,0,,,77,0
105120,note_on,120,0,1,,,,,,,,0,,,76,0
105120,note_on,0,0,1,,,,,,,,0,,,74,75
105120,note_on,217,0,3,,,,,,,,2,,,62,101
105120,note_on,480,0,2,,,,,,,,1,,,65,0
105240,note_on,0,0,1,,,,,,,,0,,,72,75
105240,note_on,120,0,1,,,,,,,,0,,,74,0
105360,note_on,120,0,1,,,,,,,,0,,,72,0
105360,note_on,0,0,1,,,,,,,,0,,,71,75
105480,note_on,0,0,1,,,,,,,,0,,,69,75
105480,note_on,120,0,1,,,,,,,,0,,,71,0
105600,note_on,120,0,1,,,,,,,,0,,,69,0
105600,note_on,0,0,1,,,,,,,,0,,,68,75
105623,note_on,23,0,1,,,,,,,,0,,,68,0
105840,note_on,720,0,3,,,,,,,,2,,,62,0
105840,note_on,217,0,1,,,,,,,,0,,,64,75
105840,note_on,0,0,3,,,,,,,,2,,,45,75
105840,note_on,720,0,2,,,,,,,,1,,,60,75
105863,note_on,23,0,2,,,,,,,,1,,,60,0
105863,note_on,23,0,1,,,,,,,,0,,,64,0
105960,note_on,120,0,3,,,,,,,,2,,,45,0
105960,note_on,0,0,3,,,,,,,,2,,,47,75
106080,note_on,217,0,2,,,,,,,,1,,,60,75
106080,note_on,217,0,1,,,,,,,,0,,,64,75
106080,note_on,120,0,3,,,,,,,,2,,,47,0
106080,note_on,0,0,3,,,,,,,,2,,,48,75
106200,note_on,120,0,3,,,,,,,,2,,,48,0
106200,note_on,0,0,3,,,,,,,,2,,,50,75
106320,note_on,0,0,3,,,,,,,,2,,,52,75
106320,note_on,120,0,3,,,,,,,,2,,,50,0
106440,note_on,120,0,3,,,,,,,,2,,,52,0
106440,note_on,0,0,3,,,,,,,,2,,,54,75
106560,note_on,120,0,3,,,,,,,,2,,,54,0
106560,note_on,480,0,1,,,,,,,,0,,,64,0
106560,note_on,0,0,1,,,,,,,,0,,,62,75
106560,note_on,0,0,3,,,,,,,,2,,,55,75
106583,note_on,23,0,3,,,,,,,,2,,,55,0
106800,note_on,4800,0,4,,,,,,,,3,,,50,75
106800,note_on,240,0,1,,,,,,,,0,,,62,0
106800,note_on,0,0,1,,,,,,,,0,,,65,75
106800,note_on,720,0,2,,,,,,,,1,,,60,0
106800,note_on,217,0,3,,,,,,,,2,,,59,75
106823,note_on,23,0,4,,,,,,,,3,,,50,0
106920,note_on,0,0,1,,,,,,,,0,,,64,75
106920,note_on,120,0,1,,,,,,,,0,,,65,0
107040,note_on,120,0,1,,,,,,,,0,,,64,0
107040,note_on,217,0,4,,,,,,,,3,,,53,75
107040,note_on,0,0,1,,,,,,,,0,,,62,75
107040,note_on,0,0,3,,,,,,,,2,,,57,75
107040,note_on,240,0,3,,,,,,,,2,,,59,0
107160,note_on,0,0,1,,,,,,,,0,,,60,75
107160,note_on,120,0,1,,,,,,,,0,,,62,0
107280,note_on,240,0,3,,,,,,,,2,,,57,0
107280,note_on,0,0,1,,,,,,,,0,,,74,101
107280,note_on,120,0,1,,,,,,,,0,,,60,0
107280,note_on,0,0,3,,,,,,,,2,,,59,75
107400,note_on,0,0,3,,,,,,,,2,,,57,75
107400,note_on,120,0,3,,,,,,,,2,,,59,0
107520,note_on,480,0,4,,,,,,,,3,,,53,0
107520,note_on,120,0,3,,,,,,,,2,,,57,0
107520,note_on,0,0,3,,,,,,,,2,,,56,75
107520,note_on,0,0,4,,,,,,,,3,,,52,75
107543,note_on,23,0,4,,,,,,,,3,,,52,0
107543,note_on,23,0,3,,,,,,,,2,,,56,0
107640,note_on,360,0,1,,,,,,,,0,,,74,0
107640,note_on,0,0,1,,,,,,,,0,,,76,75
107760,note_on,120,0,1,,,,,,,,0,,,76,0
107760,note_on,0,0,1,,,,,,,,0,,,72,75
107760,note_on,217,0,3,,,,,,,,2,,,57,75
107760,note_on,960,0,2,,,,,,,,1,,,64,75
107880,note_on,120,0,1,,,,,,,,0,,,72,0
107880,note_on,0,0,1,,,,,,,,0,,,74,75
108000,note_on,0,0,1,,,,,,,,0,,,71,75
108000,note_on,120,0,1,,,,,,,,0,,,74,0
108120,note_on,0,0,3,,,,,,,,2,,,56,75
108120,note_on,360,0,3,,,,,,,,2,,,57,0
108240,note_on,0,0,3,,,,,,,,2,,,57,75
108240,note_on,120,0,3,,,,,,,,2,,,56,0
108360,note_on,0,0,3,,,,,,,,2,,,59,75
108360,note_on,120,0,3,,,,,,,,2,,,57,0
108360,note_on,600,0,2,,,,,,,,1,,,64,0
108360,note_on,0,0,2,,,,,,,,1,,,62,75
108480,note_on,0,0,3,,,,,,,,2,,,60,75
108480,note_on,120,0,3,,,,,,,,2,,,59,0
108480,note_on,120,0,2,,,,,,,,1,,,62,0
108480,note_on,0,0,2,,,,,,,,1,,,64,75
108600,note_on,600,0,1,,,,,,,,0,,,71,0
108600,note_on,0,0,1,,,,,,,,0,,,72,75
108615,note_on,15,0,1,,,,,,,,0,,,72,0
108720,note_on,105,0,1,,,,,,,,0,,,69,75
108840,note_on,0,0,2,,,,,,,,1,,,65,75
108840,note_on,0,0,3,,,,,,,,2,,,62,75
108840,note_on,360,0,2,,,,,,,,1,,,64,0
108840,note_on,360,0,3,,,,,,,,2,,,60,0
108855,note_on,15,0,3,,,,,,,,2,,,62,0
108960,note_on,105,0,3,,,,,,,,2,,,59,75
108960,note_on,0,0,2,,,,,,,,1,,,62,75
108960,note_on,120,0,2,,,,,,,,1,,,65,0
109080,note_on,0,0,1,,,,,,,,0,,,68,75
109080,note_on,360,0,1,,,,,,,,0,,,69,0
109200,note_on,0,0,1,,,,,,,,0,,,69,75
109200,note_on,120,0,1,,,,,,,,0,,,68,0
109320,note_on,120,0,1,,,,,,,,0,,,69,0
109320,note_on,0,0,1,,,,,,,,0,,,71,75
109440,note_on,120,0,1,,,,,,,,0,,,71,0
109440,note_on,0,0,1,,,,,,,,0,,,72,75
109440,note_on,480,0,2,,,,,,,,1,,,62,0
109440,note_on,0,0,2,,,,,,,,1,,,64,75
109560,note_on,600,0,3,,,,,,,,2,,,59,0
109560,note_on,0,0,3,,,,,,,,2,,,52,75
109575,note_on,15,0,3,,,,,,,,2,,,52,0
109680,note_on,105,0,3,,,,,,,,2,,,57,75
109800,note_on,360,0,1,,,,,,,,0,,,72,0
109800,note_on,0,0,1,,,,,,,,0,,,74,75
109815,note_on,15,0,1,,,,,,,,0,,,74,0
109920,note_on,480,0,2,,,,,,,,1,,,64,0
109920,note_on,105,0,1,,,,,,,,0,,,71,75
110040,note_on,0,0,3,,,,,,,,2,,,56,75
110040,note_on,360,0,3,,,,,,,,2,,,57,0
110160,note_on,0,0,3,,,,,,,,2,,,57,75
110160,note_on,120,0,3,,,,,,,,2,,,56,0
110280,note_on,120,0,3,,,,,,,,2,,,57,0
110280,note_on,0,0,3,,,,,,,,2,,,59,75
110400,note_on,120,0,3,,,,,,,,2,,,59,0
110400,note_on,0,0,3,,,,,,,,2,,,60,75
110520,note_on,0,0,1,,,,,,,,0,,,64,75
110520,note_on,600,0,1,,,,,,,,0,,,71,0
110535,note_on,15,0,1,,,,,,,,0,,,64,0
110640,note_on,105,0,1,,,,,,,,0,,,69,75
110760,note_on,360,0,3,,,,,,,,2,,,60,0
110760,note_on,0,0,3,,,,,,,,2,,,62,75
110775,note_on,15,0,3,,,,,,,,2,,,62,0
110880,note_on,105,0,3,,,,,,,,2,,,58,75
111000,note_on,360,0,1,,,,,,,,0,,,69,0
111000,note_on,0,0,1,,,,,,,,0,,,62,75
111015,note_on,15,0,1,,,,,,,,0,,,62,0
111120,note_on,105,0,1,,,,,,,,0,,,67,75
111240,note_on,360,0,3,,,,,,,,2,,,58,0
111240,note_on,0,0,3,,,,,,,,2,,,60,75
111255,note_on,15,0,3,,,,,,,,2,,,60,0
111360,note_on,105,0,3,,,,,,,,2,,,57,75
111480,note_on,360,0,1,,,,,,,,0,,,67,0
111480,note_on,0,0,1,,,,,,,,0,,,66,75
111600,note_on,120,0,1,,,,,,,,0,,,66,0
111600,note_on,0,0,1,,,,,,,,0,,,67,75
111720,note_on,0,0,1,,,,,,,,0,,,69,75
111720,note_on,120,0,1,,,,,,,,0,,,67,0
111840,note_on,120,0,1,,,,,,,,0,,,69,0
111840,note_on,0,0,1,,,,,,,,0,,,70,75
111960,note_on,600,0,3,,,,,,,,2,,,57,0
111960,note_on,0,0,3,,,,,,,,2,,,50,75
111975,note_on,15,0,3,,,,,,,,2,,,50,0
112080,note_on,105,0,3,,,,,,,,2,,,55,75
112200,note_on,0,0,1,,,,,,,,0,,,72,75
112200,note_on,360,0,1,,,,,,,,0,,,70,0
112215,note_on,15,0,1,,,,,,,,0,,,72,0
112320,note_on,105,0,1,,,,,,,,0,,,69,75
112440,note_on,360,0,3,,,,,,,,2,,,55,0
112440,note_on,0,0,3,,,,,,,,2,,,54,75
112560,note_on,120,0,3,,,,,,,,2,,,54,0
112560,note_on,0,0,3,,,,,,,,2,,,55,75
112680,note_on,120,0,3,,,,,,,,2,,,55,0
112680,note_on,0,0,3,,,,,,,,2,,,57,75
112800,note_on,120,0,3,,,,,,,,2,,,57,0
112800,note_on,0,0,3,,,,,,,,2,,,58,75
112920,note_on,600,0,1,,,,,,,,0,,,69,0
112920,note_on,0,0,1,,,,,,,,0,,,62,75
112935,note_on,15,0,1,,,,,,,,0,,,62,0
113040,note_on,105,0,1,,,,,,,,0,,,67,75
113160,note_on,360,0,3,,,,,,,,2,,,58,0
113160,note_on,0,0,3,,,,,,,,2,,,60,75
113175,note_on,15,0,3,,,,,,,,2,,,60,0
113280,note_on,105,0,3,,,,,,,,2,,,57,75
113400,note_on,360,0,1,,,,,,,,0,,,67,0
113400,note_on,0,0,1,,,,,,,,0,,,60,75
113415,note_on,15,0,1,,,,,,,,0,,,60,0
113520,note_on,105,0,1,,,,,,,,0,,,65,75
113640,note_on,360,0,3,,,,,,,,2,,,57,0
113640,note_on,0,0,3,,,,,,,,2,,,58,75
113655,note_on,15,0,3,,,,,,,,2,,,58,0
113760,note_on,105,0,3,,,,,,,,2,,,55,75
113880,note_on,360,0,1,,,,,,,,0,,,65,0
113880,note_on,0,0,1,,,,,,,,0,,,64,75
114000,note_on,120,0,1,,,,,,,,0,,,64,0
114000,note_on,0,0,1,,,,,,,,0,,,65,75
114120,note_on,0,0,1,,,,,,,,0,,,67,75
114120,note_on,120,0,1,,,,,,,,0,,,65,0
114240,note_on,0,0,1,,,,,,,,0,,,69,75
114240,note_on,120,0,1,,,,,,,,0,,,67,0
114360,note_on,600,0,3,,,,,,,,2,,,55,0
114360,note_on,0,0,3,,,,,,,,2,,,48,75
114375,note_on,15,0,3,,,,,,,,2,,,48,0
114480,note_on,105,0,3,,,,,,,,2,,,53,75
114600,note_on,0,0,1,,,,,,,,0,,,70,75
114600,note_on,360,0,1,,,,,,,,0,,,69,0
114615,note_on,15,0,1,,,,,,,,0,,,70,0
114720,note_on,105,0,1,,,,,,,,0,,,67,75
114840,note_on,360,0,3,,,,,,,,2,,,53,0
114840,note_on,0,0,3,,,,,,,,2,,,52,75
114960,note_on,0,0,3,,,,,,,,2,,,53,75
114960,note_on,120,0,3,,,,,,,,2,,,52,0
115080,note_on,120,0,3,,,,,,,,2,,,53,0
115080,note_on,0,0,3,,,,,,,,2,,,55,75
115200,note_on,120,0,3,,,,,,,,2,,,55,0
115200,note_on,0,0,3,,,,,,,,2,,,57,75
115320,note_on,600,0,1,,,,,,,,0,,,67,0
115320,note_on,0,0,1,,,,,,,,0,,,60,75
115335,note_on,15,0,1,,,,,,,,0,,,60,0
115440,note_on,105,0,1,,,,,,,,0,,,65,75
115560,note_on,360,0,3,,,,,,,,2,,,57,0
115560,note_on,0,0,3,,,,,,,,2,,,58,75
115575,note_on,15,0,3,,,,,,,,2,,,58,0
115680,note_on,105,0,3,,,,,,,,2,,,55,75
115800,note_on,360,0,1,,,,,,,,0,,,65,0
115800,note_on,0,0,1,,,,,,,,0,,,64,75
115920,note_on,120,0,1,,,,,,,,0,,,64,0
115920,note_on,0,0,1,,,,,,,,0,,,65,75
115920,note_on,240,0,3,,,,,,,,2,,,55,0
115920,note_on,0,0,3,,,,,,,,2,,,60,75
116040,note_on,120,0,1,,,,,,,,0,,,65,0
116040,note_on,0,0,1,,,,,,,,0,,,67,75
116160,note_on,0,0,3,,,,,,,,2,,,53,75
116160,note_on,240,0,3,,,,,,,,2,,,60,0
116160,note_on,6240,0,2,,,,,,,,1,,,69,88
116160,note_on,120,0,1,,,,,,,,0,,,67,0
116400,note_on,240,0,1,,,,,,,,0,,,74,88
116520,note_on,0,0,3,,,,,,,,2,,,52,75
116520,note_on,360,0,3,,,,,,,,2,,,53,0
116520,note_on,0,0,1,,,,,,,,0,,,76,88
116520,note_on,120,0,1,,,,,,,,0,,,74,0
116640,note_on,120,0,3,,,,,,,,2,,,52,0
116640,note_on,0,0,1,,,,,,,,0,,,77,88
116640,note_on,120,0,1,,,,,,,,0,,,76,0
116640,note_on,0,0,3,,,,,,,,2,,,50,75
116760,note_on,0,0,1,,,,,,,,0,,,79,88
116760,note_on,120,0,1,,,,,,,,0,,,77,0
116880,note_on,240,0,3,,,,,,,,2,,,50,0
116880,note_on,120,0,1,,,,,,,,0,,,79,0
116880,note_on,0,0,1,,,,,,,,0,,,81,88
116880,note_on,0,0,2,,,,,,,,1,,,65,88
116880,note_on,720,0,2,,,,,,,,1,,,69,0
116880,note_on,0,0,3,,,,,,,,2,,,62,88
117000,note_on,120,0,1,,,,,,,,0,,,81,0
117000,note_on,0,0,1,,,,,,,,0,,,83,88
117120,note_on,120,0,1,,,,,,,,0,,,83,0
117120,note_on,0,0,1,,,,,,,,0,,,84,88
117120,note_on,0,0,3,,,,,,,,2,,,57,88
117120,note_on,0,0,2,,,,,,,,1,,,64,88
117120,note_on,240,0,2,,,,,,,,1,,,65,0
117120,note_on,240,0,3,,,,,,,,2,,,62,0
117143,note_on,23,0,1,,,,,,,,0,,,84,0
117143,note_on,23,0,3,,,,,,,,2,,,57,0
117360,note_on,217,0,3,,,,,,,,2,,,60,88
117360,note_on,217,0,1,,,,,,,,0,,,79,88
117383,note_on,23,0,1,,,,,,,,0,,,79,0
117383,note_on,23,0,3,,,,,,,,2,,,60,0
117600,note_on,217,0,1,,,,,,,,0,,,82,114
117600,note_on,0,0,2,,,,,,,,1,,,62,88
117600,note_on,480,0,2,,,,,,,,1,,,64,0
117600,note_on,217,0,3,,,,,,,,2,,,55,114
117840,note_on,240,0,2,,,,,,,,1,,,62,0
117840,note_on,0,0,2,,,,,,,,1,,,67,88
118080,note_on,0,0,3,,,,,,,,2,,,62,88
118080,note_on,480,0,3,,,,,,,,2,,,55,0
118080,note_on,480,0,1,,,,,,,,0,,,82,0
118080,note_on,0,0,1,,,,,,,,0,,,81,88
118103,note_on,23,0,1,,,,,,,,0,,,81,0
118200,note_on,360,0,2,,,,,,,,1,,,67,0
118200,note_on,0,0,2,,,,,,,,1,,,64,88
118320,note_on,0,0,2,,,,,,,,1,,,65,88
118320,note_on,217,0,1,,,,,,,,0,,,74,114
118320,note_on,120,0,2,,,,,,,,1,,,64,0
118440,note_on,0,0,2,,,,,,,,1,,,67,88
118440,note_on,120,0,2,,,,,,,,1,,,65,0
118560,note_on,0,0,2,,,,,,,,1,,,64,88
118560,note_on,120,0,2,,,,,,,,1,,,67,0
118560,note_on,480,0,3,,,,,,,,2,,,62,0
118560,note_on,0,0,3,,,,,,,,2,,,57,88
118583,note_on,23,0,2,,,,,,,,1,,,64,0
118680,note_on,0,0,1,,,,,,,,0,,,73,88
118680,note_on,360,0,1,,,,,,,,0,,,74,0
118800,note_on,217,0,2,,,,,,,,1,,,69,114
118800,note_on,0,0,1,,,,,,,,0,,,74,88
118800,note_on,120,0,1,,,,,,,,0,,,73,0
118920,note_on,120,0,1,,,,,,,,0,,,74,0
118920,note_on,0,0,1,,,,,,,,0,,,76,88
119040,note_on,11497,0,4,,,,,,,,3,,,50,75
119040,note_on,120,0,1,,,,,,,,0,,,76,0
119040,note_on,0,0,1,,,,,,,,0,,,77,88
119040,note_on,480,0,3,,,,,,,,2,,,57,0
119160,note_on,360,0,2,,,,,,,,1,,,69,0
119160,note_on,120,0,3,,,,,,,,2,,,57,88
119280,note_on,240,0,1,,,,,,,,0,,,77,0
119280,note_on,120,0,3,,,,,,,,2,,,57,0
119280,note_on,0,0,3,,,,,,,,2,,,62,88
119280,note_on,0,0,1,,,,,,,,0,,,69,88
119400,note_on,120,0,3,,,,,,,,2,,,62,0
119400,note_on,0,0,3,,,,,,,,2,,,60,88
119520,note_on,480,0,4,,,,,,,,3,,,50,0
119520,note_on,0,0,4,,,,,,,,3,,,52,75
119520,note_on,0,0,3,,,,,,,,2,,,59,88
119520,note_on,120,0,3,,,,,,,,2,,,60,0
119640,note_on,0,0,1,,,,,,,,0,,,68,88
119640,note_on,360,0,1,,,,,,,,0,,,69,0
119760,note_on,240,0,3,,,,,,,,2,,,59,0
119760,note_on,600,0,2,,,,,,,,1,,,64,88
119760,note_on,120,0,1,,,,,,,,0,,,68,0
119760,note_on,0,0,1,,,,,,,,0,,,69,88
119880,note_on,120,0,1,,,,,,,,0,,,69,0
119880,note_on,0,0,1,,,,,,,,0,,,71,88
120000,note_on,120,0,1,,,,,,,,0,,,71,0
120000,note_on,480,0,4,,,,,,,,3,,,52,0
120000,note_on,0,0,4,,,,,,,,3,,,45,75
120000,note_on,0,0,1,,,,,,,,0,,,72,88
120120,note_on,0,0,2,,,,,,,,1,,,62,88
120120,note_on,360,0,2,,,,,,,,1,,,64,0
120240,note_on,0,0,1,,,,,,,,0,,,65,88
120240,note_on,240,0,1,,,,,,,,0,,,72,0
120240,note_on,0,0,4,,,,,,,,3,,,57,75
120240,note_on,120,0,2,,,,,,,,1,,,62,0
120240,note_on,0,0,2,,,,,,,,1,,,60,88
120240,note_on,240,0,4,,,,,,,,3,,,45,0
120360,note_on,0,0,2,,,,,,,,1,,,62,88
120360,note_on,120,0,2,,,,,,,,1,,,60,0
120480,note_on,120,0,2,,,,,,,,1,,,62,0
120480,note_on,240,0,4,,,,,,,,3,,,57,0
120480,note_on,0,0,4,,,,,,,,3,,,55,75
120480,note_on,720,0,3,,,,,,,,2,,,58,88
120600,note_on,0,0,1,,,,,,,,0,,,64,88
120600,note_on,360,0,1,,,,,,,,0,,,65,0
120720,note_on,240,0,4,,,,,,,,3,,,55,0
120720,note_on,0,0,4,,,,,,,,3,,,48,75
120720,note_on,0,0,1,,,,,,,,0,,,65,88
120720,note_on,120,0,1,,,,,,,,0,,,64,0
120840,note_on,120,0,1,,,,,,,,0,,,65,0
120840,note_on,0,0,1,,,,,,,,0,,,67,88
120960,note_on,480,0,3,,,,,,,,2,,,58,0
120960,note_on,240,0,4,,,,,,,,3,,,48,0
120960,note_on,0,0,4,,,,,,,,3,,,53,75
120960,note_on,0,0,1,,,,,,,,0,,,69,88
120960,note_on,120,0,1,,,,,,,,0,,,67,0
120960,note_on,0,0,3,,,,,,,,2,,,57,88
121080,note_on,120,0,1,,,,,,,,0,,,69,0
121080,note_on,0,0,1,,,,,,,,0,,,61,88
121095,note_on,15,0,1,,,,,,,,0,,,61,0
121200,note_on,105,0,1,,,,,,,,0,,,62,88
121320,note_on,360,0,3,,,,,,,,2,,,57,0
121320,note_on,0,0,3,,,,,,,,2,,,58,88
121335,note_on,15,0,3,,,,,,,,2,,,58,0
121440,note_on,0,0,4,,,,,,,,3,,,52,75
121440,note_on,105,0,3,,,,,,,,2,,,55,88
121440,note_on,480,0,4,,,,,,,,3,,,53,0
121463,note_on,23,0,4,,,,,,,,3,,,52,0
121560,note_on,360,0,1,,,,,,,,0,,,62,0
121560,note_on,0,0,1,,,,,,,,0,,,61,88
121680,note_on,217,0,4,,,,,,,,3,,,45,75
121680,note_on,0,0,1,,,,,,,,0,,,62,88
121680,note_on,120,0,1,,,,,,,,0,,,61,0
121703,note_on,23,0,4,,,,,,,,3,,,45,0
121800,note_on,0,0,1,,,,,,,,0,,,64,88
121800,note_on,120,0,1,,,,,,,,0,,,62,0
121920,note_on,120,0,1,,,,,,,,0,,,64,0
121920,note_on,0,0,1,,,,,,,,0,,,65,88
121920,note_on,480,0,3,,,,,,,,2,,,55,0
121920,note_on,217,0,4,,,,,,,,3,,,50,75
121920,note_on,0,0,3,,,,,,,,2,,,53,88
121967,note_on,47,0,4,,,,,,,,3,,,50,0
122040,note_on,120,0,1,,,,,,,,0,,,65,0
122040,note_on,0,0,1,,,,,,,,0,,,57,88
122055,note_on,15,0,1,,,,,,,,0,,,57,0
122160,note_on,105,0,1,,,,,,,,0,,,58,88
122160,set_tempo,81620,1,0,,,,,,750000,,,,,,
122280,note_on,360,0,3,,,,,,,,2,,,53,0
122280,note_on,0,0,3,,,,,,,,2,,,55,88
122295,note_on,15,0,3,,,,,,,,2,,,55,0
122400,note_on,105,0,3,,,,,,,,2,,,52,88
122400,set_tempo,240,1,0,,,,,,833333,,,,,,
122400,note_on,433,0,4,,,,,,,,3,,,48,75
122447,note_on,47,0,4,,,,,,,,3,,,48,0
122520,note_on,360,0,1,,,,,,,,0,,,58,0
122520,note_on,0,0,1,,,,,,,,0,,,60,88
122535,note_on,15,0,1,,,,,,,,0,,,60,0
122640,set_tempo,240,1,0,,,,,,937500,,,,,,
122640,note_on,105,0,1,,,,,,,,0,,,57,88
122760,note_on,360,0,3,,,,,,,,2,,,52,0
122760,note_on,0,0,3,,,,,,,,2,,,53,88
122775,note_on,15,0,3,,,,,,,,2,,,53,0
122880,note_on,105,0,3,,,,,,,,2,,,50,88
122880,note_on,433,0,4,,,,,,,,3,,,46,75
122880,set_tempo,240,1,0,,,,,,1071429,,,,,,
123000,note_on,0,0,1,,,,,,,,0,,,60,88
123000,note_on,360,0,1,,,,,,,,0,,,57,0
123120,set_tempo,240,1,0,,,,,,1250000,,,,,,
123120,note_on,0,0,1,,,,,,,,0,,,58,88
123120,note_on,120,0,1,,,,,,,,0,,,60,0
123240,note_on,120,0,1,,,,,,,,0,,,58,0
123240,note_on,0,0,1,,,,,,,,0,,,57,88
123360,note_on,120,0,1,,,,,,,,0,,,57,0
123360,note_on,0,0,1,,,,,,,,0,,,55,88
123360,set_tempo,240,1,0,,,,,,1500000,,,,,,
123480,note_on,120,0,1,,,,,,,,0,,,55,0
123480,note_on,0,0,1,,,,,,,,0,,,65,88
123600,note_on,0,0,1,,,,,,,,0,,,64,88
123600,note_on,720,0,4,,,,,,,,3,,,46,0
123600,note_on,0,0,4,,,,,,,,3,,,46,75
123600,note_on,120,0,1,,,,,,,,0,,,65,0
123600,set_tempo,240,1,0,,,,,,1875000,,,,,,
123720,note_on,0,0,1,,,,,,,,0,,,62,88
123720,note_on,120,0,1,,,,,,,,0,,,64,0
123840,note_on,0,0,1,,,,,,,,0,,,61,88
123840,note_on,0,0,4,,,,,,,,3,,,45,75
123840,note_on,120,0,1,,,,,,,,0,,,62,0
123840,note_on,960,0,3,,,,,,,,2,,,50,0
123840,note_on,240,0,4,,,,,,,,3,,,46,0
123840,note_on,0,0,3,,,,,,,,2,,,52,88
123840,set_tempo,240,1,0,,,,,,2500000,,,,,,
123863,note_on,23,0,1,,,,,,,,0,,,61,0
124080,note_on,217,0,1,,,,,,,,0,,,69,88
124080,set_tempo,240,1,0,,,,,,681818,,,,,,
124080,note_on,240,0,4,,,,,,,,3,,,45,0
124080,note_on,0,0,4,,,,,,,,3,,,49,75
124200,note_on,0,0,1,,,,,,,,0,,,67,88
124200,note_on,120,0,1,,,,,,,,0,,,69,0
124320,note_on,120,0,1,,,,,,,,0,,,67,0
124320,note_on,480,0,3,,,,,,,,2,,,52,0
124320,note_on,0,0,3,,,,,,,,2,,,57,88
124320,note_on,240,0,4,,,,,,,,3,,,49,0
124320,note_on,0,0,4,,,,,,,,3,,,50,88
124320,note_on,0,0,1,,,,,,,,0,,,65,88
124343,note_on,23,0,3,,,,,,,,2,,,57,0
124440,note_on,120,0,1,,,,,,,,0,,,65,0
124440,note_on,0,0,1,,,,,,,,0,,,64,88
124560,note_on,120,0,1,,,,,,,,0,,,64,0
124560,note_on,0,0,1,,,,,,,,0,,,62,88
124560,note_on,217,0,3,,,,,,,,2,,,53,114
124680,note_on,120,0,1,,,,,,,,0,,,62,0
124680,note_on,0,0,1,,,,,,,,0,,,60,88
124800,note_on,120,0,1,,,,,,,,0,,,60,0
124800,note_on,0,0,1,,,,,,,,0,,,58,88
124800,note_on,480,0,4,,,,,,,,3,,,50,0
124800,note_on,0,0,4,,,,,,,,3,,,43,88
125040,note_on,480,0,3,,,,,,,,2,,,53,0
125040,note_on,0,0,3,,,,,,,,2,,,52,88
125040,note_on,0,0,1,,,,,,,,0,,,70,88
125040,note_on,240,0,1,,,,,,,,0,,,58,0
125063,note_on,23,0,3,,,,,,,,2,,,52,0
125160,note_on,0,0,1,,,,,,,,0,,,69,88
125160,note_on,120,0,1,,,,,,,,0,,,70,0
125280,note_on,217,0,3,,,,,,,,2,,,55,88
125280,note_on,0,0,1,,,,,,,,0,,,67,88
125280,note_on,120,0,1,,,,,,,,0,,,69,0
125400,note_on,0,0,1,,,,,,,,0,,,65,88
125400,note_on,120,0,1,,,,,,,,0,,,67,0
125520,note_on,0,0,1,,,,,,,,0,,,64,88
125520,note_on,120,0,1,,,,,,,,0,,,65,0
125520,note_on,720,0,4,,,,,,,,3,,,43,0
125520,note_on,0,0,4,,,,,,,,3,,,46,88
125640,note_on,120,0,1,,,,,,,,0,,,64,0
125640,note_on,0,0,1,,,,,,,,0,,,62,88
125760,note_on,120,0,1,,,,,,,,0,,,62,0
125760,note_on,0,0,1,,,,,,,,0,,,61,88
125760,note_on,240,0,4,,,,,,,,3,,,46,0
125760,note_on,0,0,4,,,,,,,,3,,,45,88
125783,note_on,23,0,1,,,,,,,,0,,,61,0
126000,note_on,0,0,3,,,,,,,,2,,,34,88
126000,note_on,720,0,3,,,,,,,,2,,,55,0
126000,note_on,0,0,3,,,,,,,,2,,,53,88
126000,note_on,217,0,1,,,,,,,,0,,,57,88
126023,note_on,23,0,1,,,,,,,,0,,,57,0
126120,note_on,0,0,3,,,,,,,,2,,,34,0
126120,note_on,120,0,3,,,,,,,,2,,,53,0
126120,note_on,0,0,3,,,,,,,,2,,,36,88
126120,note_on,0,0,3,,,,,,,,2,,,52,88
126240,note_on,5760,0,2,,,,,,,,1,,,57,88
126240,note_on,217,0,1,,,,,,,,0,,,65,88
126240,note_on,120,0,3,,,,,,,,2,,,52,0
126240,note_on,0,0,3,,,,,,,,2,,,50,88
126240,note_on,0,0,4,,,,,,,,3,,,41,88
126240,note_on,480,0,4,,,,,,,,3,,,45,0
126240,note_on,0,0,3,,,,,,,,2,,,36,0
126263,note_on,23,0,2,,,,,,,,1,,,57,0
126360,note_on,120,0,4,,,,,,,,3,,,41,0
126360,note_on,0,0,4,,,,,,,,3,,,43,88
126480,note_on,240,0,3,,,,,,,,2,,,50,0
126480,note_on,0,0,3,,,,,,,,2,,,57,88
126480,note_on,217,0,2,,,,,,,,1,,,60,114
126480,note_on,120,0,4,,,,,,,,3,,,43,0
126480,note_on,0,0,4,,,,,,,,3,,,45,88
126600,note_on,120,0,4,,,,,,,,3,,,45,0
126600,note_on,0,0,4,,,,,,,,3,,,47,88
126720,note_on,240,0,3,,,,,,,,2,,,57,0
126720,note_on,120,0,4,,,,,,,,3,,,47,0
126720,note_on,0,0,4,,,,,,,,3,,,48,88
126720,note_on,0,0,3,,,,,,,,2,,,55,114
126840,note_on,0,0,1,,,,,,,,0,,,67,88
126840,note_on,600,0,1,,,,,,,,0,,,65,0
126960,note_on,0,0,2,,,,,,,,1,,,58,88
126960,note_on,240,0,4,,,,,,,,3,,,48,0
126960,note_on,0,0,4,,,,,,,,3,,,43,88
126960,set_tempo,2880,1,0,,,,,,750000,,,,,,
126960,note_on,0,0,1,,,,,,,,0,,,64,88
126960,note_on,120,0,1,,,,,,,,0,,,67,0
126960,note_on,480,0,2,,,,,,,,1,,,60,0
127200,note_on,240,0,4,,,,,,,,3,,,43,0
127200,note_on,0,0,4,,,,,,,,3,,,46,114
127200,set_tempo,240,1,0,,,,,,833333,,,,,,
127320,note_on,360,0,1,,,,,,,,0,,,64,0
127320,note_on,0,0,1,,,,,,,,0,,,65,88
127440,note_on,0,0,3,,,,,,,,2,,,50,88
127440,note_on,120,0,1,,,,,,,,0,,,65,0
127440,note_on,0,0,1,,,,,,,,0,,,62,88
127440,note_on,720,0,3,,,,,,,,2,,,55,0
127440,set_tempo,240,1,0,,,,,,937500,,,,,,
127440,note_on,480,0,2,,,,,,,,1,,,58,0
127440,end_of_track,0,1,2,,,,,,,,,,,,
127440,note_on,0,0,3,,,,,,,,2,,,55,88
127560,note_on,120,0,1,,,,,,,,0,,,62,0
127560,note_on,0,0,1,,,,,,,,0,,,64,88
127680,note_on,0,0,3,,,,,,,,2,,,50,0
127680,set_tempo,240,1,0,,,,,,1071429,,,,,,
127680,note_on,120,0,1,,,,,,,,0,,,64,0
127680,note_on,0,0,1,,,,,,,,0,,,61,88
127680,note_on,240,0,3,,,,,,,,2,,,55,0
127680,note_on,480,0,4,,,,,,,,3,,,46,0
127680,note_on,0,0,3,,,,,,,,2,,,57,88
127680,note_on,0,0,4,,,,,,,,3,,,45,88
127680,note_on,0,0,3,,,,,,,,2,,,55,88
127703,note_on,23,0,1,,,,,,,,0,,,61,0
127920,note_on,217,0,1,,,,,,,,0,,,62,101
127920,note_on,240,0,3,,,,,,,,2,,,57,0
127920,note_on,240,0,4,,,,,,,,3,,,45,0
127920,set_tempo,240,1,0,,,,,,1250000,,,,,,
127920,note_on,0,0,3,,,,,,,,2,,,55,0
127920,note_on,0,0,3,,,,,,,,2,,,53,101
127920,note_on,0,0,4,,,,,,,,3,,,38,101
128160,set_tempo,240,1,0,,,,,,1500000,,,,,,
128160,note_on,240,0,4,,,,,,,,3,,,38,0
128160,note_on,0,0,3,,,,,,,,2,,,52,101
128160,note_on,0,0,3,,,,,,,,2,,,57,101
128160,note_on,0,0,4,,,,,,,,3,,,45,101
128160,note_on,240,0,3,,,,,,,,2,,,53,0
128400,note_on,0,0,1,,,,,,,,0,,,61,101
128400,end_of_track,0,1,0,,,,,,,,,,,,
128400,set_tempo,240,1,0,,,,,,1875000,,,,,,
128400,note_on,480,0,1,,,,,,,,0,,,62,0
128640,note_on,0,0,4,,,,,,,,3,,,38,101
128640,note_on,480,0,4,,,,,,,,3,,,45,0
128640,note_on,240,0,1,,,,,,,,0,,,61,0
128640,note_on,0,0,3,,,,,,,,2,,,57,101
128640,note_on,0,0,3,,,,,,,,2,,,53,101
128640,note_on,0,0,3,,,,,,,,2,,,52,0
128640,note_on,480,0,3,,,,,,,,2,,,57,0
128640,note_on,0,0,1,,,,,,,,0,,,62,101
130560,note_on,1920,0,1,,,,,,,,0,,,62,0
130560,end_of_track,0,1,1,,,,,,,,,,,,
130560,note_on,0,0,3,,,,,,,,2,,,53,0
130560,note_on,1920,0,3,,,,,,,,2,,,57,0
130560,end_of_track,0,1,4,,,,,,,,,,,,
130560,note_on,1920,0,4,,,,,,,,3,,,38,0
130560,end_of_track,0,1,3,,,,,,,,,,,,
