tick,type,time,meta,track,numerator,denominator,clocks_per_click,notated_32nd_notes_per_beat,key,tempo,control,value,channel,program,note,velocity
0,track_name,0,1,0,,,,,,,,,,,,
0,control_change,0,0,1,,,,,,,32,0,0,,,
0,control_change,0,0,1,,,,,,,7,127,0,,,
0,control_change,0,0,1,,,,,,,10,73,0,,,
0,control_change,0,0,1,,,,,,,91,50,0,,,
0,control_change,0,0,1,,,,,,,93,0,0,,,
0,program_change,0,0,1,,,,,,,,,0,0,,
0,note_on,0,0,1,,,,,,,,,0,,74,85
0,end_of_track,0,1,6,,,,,,,,,,,,
0,track_name,0,1,2,,,,,,,,,,,,
0,control_change,0,0,2,,,,,,,0,0,1,,,
0,control_change,0,0,2,,,,,,,32,0,1,,,
0,control_change,0,0,2,,,,,,,7,127,1,,,
0,control_change,0,0,2,,,,,,,10,54,1,,,
0,control_change,0,0,2,,,,,,,91,50,1,,,
0,control_change,0,0,2,,,,,,,93,0,1,,,
0,program_change,0,0,2,,,,,,,,,1,0,,
0,note_on,0,0,2,,,,,,,,,1,,50,85
0,note_on,0,0,2,,,,,,,,,1,,62,85
0,note_on,0,0,2,,,,,,,,,1,,53,85
0,note_on,0,0,2,,,,,,,,,1,,57,85
0,track_name,0,1,3,,,,,,,,,,,,
0,end_of_track,0,1,3,,,,,,,,,,,,
0,track_name,0,1,4,,,,,,,,,,,,
0,end_of_track,0,1,4,,,,,,,,,,,,
0,track_name,0,1,5,,,,,,,,,,,,
0,end_of_track,0,1,5,,,,,,,,,,,,
0,track_name,0,1,6,,,,,,,,,,,,
0,control_change,0,0,1,,,,,,,0,0,0,,,
0,track_name,0,1,1,,,,,,,,,,,,
0,end_of_track,0,1,7,,,,,,,,,,,,
0,text,0,1,0,,,,,,,,,,,,
0,marker,0,1,0,,,,,,,,,,,,
0,set_tempo,0,1,0,,,,,,600000,,,,,,
0,key_signature,0,1,0,,,,,F,,,,,,,
0,copyright,0,1,0,,,,,,,,,,,,
0,text,0,1,0,,,,,,,,,,,,
0,time_signature,0,1,0,3,8,12,8,,,,,,,,
4,note_on,4,0,1,,,,,,,,,0,,65,85
100,note_on,96,0,1,,,,,,,,,0,,65,0
112,note_on,12,0,1,,,,,,,,,0,,69,85
120,note_on,0,0,1,,,,,,,,,0,,76,85
120,note_on,120,0,2,,,,,,,,,1,,62,0
120,note_on,8,0,1,,,,,,,,,0,,74,0
176,note_on,56,0,1,,,,,,,,,0,,69,0
236,text,60,1,1,,,,,,,,,,,,
240,note_on,120,0,2,,,,,,,,,1,,50,0
240,note_on,0,0,2,,,,,,,,,1,,53,0
240,note_on,0,0,2,,,,,,,,,1,,57,0
240,note_on,0,0,2,,,,,,,,,1,,52,85
240,note_on,0,0,2,,,,,,,,,1,,55,85
240,text,0,1,1,,,,,,,,,,,,
240,note_on,0,0,1,,,,,,,,,0,,74,85
240,note_on,0,0,1,,,,,,,,,0,,67,85
240,note_on,4,0,1,,,,,,,,,0,,76,0
240,note_on,0,0,2,,,,,,,,,1,,61,85
316,note_on,76,0,1,,,,,,,,,0,,74,0
320,note_on,4,0,1,,,,,,,,,0,,73,85
356,note_on,36,0,1,,,,,,,,,0,,73,0
360,note_on,4,0,1,,,,,,,,,0,,74,85
396,note_on,36,0,1,,,,,,,,,0,,74,0
400,note_on,4,0,1,,,,,,,,,0,,73,85
436,note_on,36,0,1,,,,,,,,,0,,73,0
440,note_on,4,0,1,,,,,,,,,0,,74,85
476,note_on,36,0,1,,,,,,,,,0,,74,0
480,note_on,4,0,1,,,,,,,,,0,,73,85
596,note_on,116,0,1,,,,,,,,,0,,73,0
640,note_on,44,0,1,,,,,,,,,0,,71,85
656,note_on,16,0,1,,,,,,,,,0,,67,0
660,note_on,4,0,1,,,,,,,,,0,,73,85
700,note_on,40,0,1,,,,,,,,,0,,71,0
720,note_on,0,0,1,,,,,,,,,0,,74,85
720,note_on,0,0,1,,,,,,,,,0,,69,85
720,note_on,0,0,1,,,,,,,,,0,,65,85
720,note_on,20,0,1,,,,,,,,,0,,73,0
720,note_on,480,0,2,,,,,,,,,1,,61,0
720,note_on,0,0,2,,,,,,,,,1,,55,0
720,note_on,0,0,2,,,,,,,,,1,,52,0
720,note_on,0,0,2,,,,,,,,,1,,53,85
720,note_on,0,0,2,,,,,,,,,1,,57,85
840,note_on,0,0,1,,,,,,,,,0,,69,0
840,note_on,120,0,1,,,,,,,,,0,,74,0
840,note_on,120,0,2,,,,,,,,,1,,57,0
960,note_on,0,0,1,,,,,,,,,0,,61,85
960,note_on,0,0,2,,,,,,,,,1,,49,85
960,note_on,120,0,2,,,,,,,,,1,,53,0
960,note_on,120,0,1,,,,,,,,,0,,65,0
960,note_on,0,0,1,,,,,,,,,0,,69,85
960,note_on,0,0,2,,,,,,,,,1,,52,85
960,note_on,0,0,2,,,,,,,,,1,,57,85
960,note_on,0,0,1,,,,,,,,,0,,64,85
1200,note_on,0,0,2,,,,,,,,,1,,52,0
1200,note_on,240,0,2,,,,,,,,,1,,57,0
1200,note_on,0,0,2,,,,,,,,,1,,49,0
1200,note_on,0,0,1,,,,,,,,,0,,61,0
1200,note_on,0,0,1,,,,,,,,,0,,64,0
1200,note_on,240,0,1,,,,,,,,,0,,69,0
1440,note_on,0,0,1,,,,,,,,,0,,74,85
1440,note_on,240,0,1,,,,,,,,,0,,69,85
1440,note_on,0,0,1,,,,,,,,,0,,77,85
1440,note_on,240,0,2,,,,,,,,,1,,50,85
1440,note_on,0,0,2,,,,,,,,,1,,62,85
1440,note_on,0,0,2,,,,,,,,,1,,57,85
1440,note_on,0,0,2,,,,,,,,,1,,53,85
1560,note_on,0,0,1,,,,,,,,,0,,69,0
1560,note_on,120,0,1,,,,,,,,,0,,77,0
1560,note_on,0,0,1,,,,,,,,,0,,74,0
1560,note_on,0,0,1,,,,,,,,,0,,79,85
1676,text,116,1,1,,,,,,,,,,,,
1680,text,0,1,1,,,,,,,,,,,,
1680,note_on,0,0,1,,,,,,,,,0,,77,85
1680,note_on,0,0,1,,,,,,,,,0,,73,85
1680,note_on,0,0,1,,,,,,,,,0,,69,85
1680,note_on,4,0,1,,,,,,,,,0,,79,0
1680,note_on,0,0,2,,,,,,,,,1,,57,0
1680,note_on,0,0,2,,,,,,,,,1,,64,85
1680,note_on,240,0,2,,,,,,,,,1,,62,0
1680,note_on,0,0,2,,,,,,,,,1,,50,0
1680,note_on,0,0,2,,,,,,,,,1,,61,85
1680,note_on,0,0,2,,,,,,,,,1,,57,85
1680,note_on,0,0,2,,,,,,,,,1,,53,0
1756,note_on,76,0,1,,,,,,,,,0,,77,0
1760,note_on,4,0,1,,,,,,,,,0,,76,85
1796,note_on,36,0,1,,,,,,,,,0,,76,0
1800,note_on,4,0,1,,,,,,,,,0,,77,85
1836,note_on,36,0,1,,,,,,,,,0,,77,0
1840,note_on,4,0,1,,,,,,,,,0,,76,85
1876,note_on,36,0,1,,,,,,,,,0,,76,0
1880,note_on,4,0,1,,,,,,,,,0,,77,85
1916,note_on,36,0,1,,,,,,,,,0,,77,0
1920,note_on,4,0,1,,,,,,,,,0,,76,85
2036,note_on,116,0,1,,,,,,,,,0,,76,0
2040,note_on,4,0,1,,,,,,,,,0,,74,85
2100,note_on,60,0,1,,,,,,,,,0,,74,0
2100,note_on,0,0,1,,,,,,,,,0,,76,85
2160,note_on,0,0,2,,,,,,,,,1,,62,85
2160,note_on,0,0,2,,,,,,,,,1,,62,85
2160,note_on,0,0,2,,,,,,,,,1,,57,0
2160,note_on,0,0,2,,,,,,,,,1,,61,0
2160,note_on,480,0,2,,,,,,,,,1,,64,0
2160,note_on,0,0,1,,,,,,,,,0,,69,0
2160,note_on,0,0,1,,,,,,,,,0,,69,85
2160,note_on,0,0,1,,,,,,,,,0,,74,85
2160,note_on,0,0,1,,,,,,,,,0,,77,85
2160,note_on,0,0,1,,,,,,,,,0,,73,0
2160,note_on,60,0,1,,,,,,,,,0,,76,0
2336,note_on,0,0,1,,,,,,,,,0,,77,0
2336,note_on,176,0,2,,,,,,,,,1,,62,0
2336,note_on,176,0,1,,,,,,,,,0,,69,0
2336,note_on,0,0,1,,,,,,,,,0,,74,0
2352,note_on,16,0,2,,,,,,,,,1,,62,0
2400,note_on,64,0,1,,,,,,,,,0,,74,85
2400,note_on,0,0,1,,,,,,,,,0,,65,85
2400,note_on,0,0,1,,,,,,,,,0,,69,85
2400,note_on,0,0,2,,,,,,,,,1,,53,85
2400,note_on,0,0,2,,,,,,,,,1,,57,85
2400,note_on,0,0,2,,,,,,,,,1,,62,85
2400,note_on,48,0,2,,,,,,,,,1,,50,85
2640,note_on,0,0,2,,,,,,,,,1,,62,0
2640,note_on,0,0,2,,,,,,,,,1,,53,0
2640,note_on,0,0,2,,,,,,,,,1,,50,0
2640,note_on,240,0,2,,,,,,,,,1,,57,0
2640,note_on,0,0,1,,,,,,,,,0,,65,0
2640,note_on,0,0,1,,,,,,,,,0,,74,0
2640,note_on,240,0,1,,,,,,,,,0,,69,0
2880,note_on,0,0,1,,,,,,,,,0,,77,85
2880,note_on,0,0,1,,,,,,,,,0,,70,85
2880,note_on,0,0,1,,,,,,,,,0,,82,85
2880,note_on,240,0,2,,,,,,,,,1,,62,85
2880,note_on,0,0,2,,,,,,,,,1,,65,85
2880,note_on,240,0,1,,,,,,,,,0,,74,85
3120,note_on,240,0,2,,,,,,,,,1,,65,0
3120,note_on,240,0,1,,,,,,,,,0,,82,0
3120,note_on,0,0,1,,,,,,,,,0,,74,0
3120,note_on,0,0,1,,,,,,,,,0,,77,0
3120,note_on,0,0,1,,,,,,,,,0,,70,0
3120,note_on,0,0,1,,,,,,,,,0,,72,85
3120,note_on,0,0,2,,,,,,,,,1,,62,0
3120,note_on,0,0,1,,,,,,,,,0,,76,85
3120,note_on,0,0,2,,,,,,,,,1,,64,85
3120,note_on,0,0,2,,,,,,,,,1,,60,85
3124,note_on,4,0,1,,,,,,,,,0,,82,85
3316,note_on,192,0,1,,,,,,,,,0,,82,0
3360,note_on,44,0,1,,,,,,,,,0,,81,85
3480,note_on,0,0,1,,,,,,,,,0,,82,85
3480,note_on,120,0,1,,,,,,,,,0,,81,0
3596,text,116,1,1,,,,,,,,,,,,
3600,text,0,1,1,,,,,,,,,,,,
3600,note_on,0,0,1,,,,,,,,,0,,74,85
3600,note_on,0,0,2,,,,,,,,,1,,67,85
3600,note_on,0,0,2,,,,,,,,,1,,62,85
3600,note_on,0,0,1,,,,,,,,,0,,81,85
3600,note_on,0,0,2,,,,,,,,,1,,60,0
3600,note_on,0,0,2,,,,,,,,,1,,58,85
3600,note_on,0,0,1,,,,,,,,,0,,70,85
3600,note_on,0,0,1,,,,,,,,,0,,76,0
3600,note_on,480,0,2,,,,,,,,,1,,64,0
3600,note_on,4,0,1,,,,,,,,,0,,82,0
3600,note_on,0,0,1,,,,,,,,,0,,72,0
3676,note_on,76,0,1,,,,,,,,,0,,81,0
3680,note_on,4,0,1,,,,,,,,,0,,79,85
3716,note_on,36,0,1,,,,,,,,,0,,79,0
3720,note_on,4,0,1,,,,,,,,,0,,81,85
3756,note_on,36,0,1,,,,,,,,,0,,81,0
3760,note_on,4,0,1,,,,,,,,,0,,79,85
3796,note_on,36,0,1,,,,,,,,,0,,79,0
3800,note_on,4,0,1,,,,,,,,,0,,81,85
3836,note_on,36,0,1,,,,,,,,,0,,81,0
3840,note_on,4,0,1,,,,,,,,,0,,79,85
4076,note_on,236,0,1,,,,,,,,,0,,79,0
4080,note_on,4,0,1,,,,,,,,,0,,74,0
4080,note_on,0,0,1,,,,,,,,,0,,72,85
4080,note_on,0,0,2,,,,,,,,,1,,57,85
4080,note_on,0,0,2,,,,,,,,,1,,65,85
4080,note_on,0,0,1,,,,,,,,,0,,70,0
4080,note_on,0,0,2,,,,,,,,,1,,60,85
4080,note_on,0,0,2,,,,,,,,,1,,58,0
4080,note_on,0,0,2,,,,,,,,,1,,62,0
4080,note_on,480,0,2,,,,,,,,,1,,67,0
4080,note_on,0,0,1,,,,,,,,,0,,77,85
4080,note_on,0,0,1,,,,,,,,,0,,69,85
4320,note_on,0,0,1,,,,,,,,,0,,72,0
4320,note_on,0,0,2,,,,,,,,,1,,64,85
4320,note_on,0,0,2,,,,,,,,,1,,58,85
4320,note_on,0,0,2,,,,,,,,,1,,55,85
4320,note_on,0,0,2,,,,,,,,,1,,57,0
4320,note_on,240,0,1,,,,,,,,,0,,77,0
4320,note_on,240,0,2,,,,,,,,,1,,65,0
4320,note_on,0,0,2,,,,,,,,,1,,60,0
4320,note_on,0,0,1,,,,,,,,,0,,76,85
4320,note_on,0,0,1,,,,,,,,,0,,70,85
4320,note_on,0,0,1,,,,,,,,,0,,67,85
4320,note_on,0,0,1,,,,,,,,,0,,69,0
4560,note_on,0,0,1,,,,,,,,,0,,67,0
4560,note_on,0,0,1,,,,,,,,,0,,67,85
4560,note_on,0,0,1,,,,,,,,,0,,74,85
4560,note_on,240,0,1,,,,,,,,,0,,76,0
4560,note_on,0,0,1,,,,,,,,,0,,70,0
4560,note_on,0,0,2,,,,,,,,,1,,58,85
4560,note_on,0,0,2,,,,,,,,,1,,64,85
4560,note_on,0,0,2,,,,,,,,,1,,62,85
4560,note_on,0,0,2,,,,,,,,,1,,55,0
4560,note_on,240,0,2,,,,,,,,,1,,64,0
4560,note_on,0,0,2,,,,,,,,,1,,58,0
4740,note_on,0,0,1,,,,,,,,,0,,73,85
4740,note_on,180,0,1,,,,,,,,,0,,74,0
4800,note_on,0,0,1,,,,,,,,,0,,74,85
4800,note_on,60,0,1,,,,,,,,,0,,73,0
4920,note_on,120,0,1,,,,,,,,,0,,74,0
4920,note_on,0,0,1,,,,,,,,,0,,76,85
5036,text,116,1,1,,,,,,,,,,,,
5040,note_on,0,0,1,,,,,,,,,0,,67,0
5040,note_on,0,0,2,,,,,,,,,1,,64,85
5040,text,0,1,1,,,,,,,,,,,,
5040,note_on,0,0,1,,,,,,,,,0,,74,85
5040,note_on,0,0,1,,,,,,,,,0,,69,85
5040,note_on,0,0,2,,,,,,,,,1,,57,85
5040,note_on,0,0,2,,,,,,,,,1,,58,0
5040,note_on,0,0,2,,,,,,,,,1,,62,0
5040,note_on,480,0,2,,,,,,,,,1,,64,0
5040,note_on,4,0,1,,,,,,,,,0,,76,0
5116,note_on,76,0,1,,,,,,,,,0,,74,0
5120,note_on,4,0,1,,,,,,,,,0,,73,85
5156,note_on,36,0,1,,,,,,,,,0,,73,0
5160,note_on,4,0,1,,,,,,,,,0,,74,85
5196,note_on,36,0,1,,,,,,,,,0,,74,0
5200,note_on,4,0,1,,,,,,,,,0,,73,85
5236,note_on,36,0,1,,,,,,,,,0,,73,0
5240,note_on,4,0,1,,,,,,,,,0,,74,85
5276,note_on,36,0,1,,,,,,,,,0,,74,0
5280,note_on,4,0,1,,,,,,,,,0,,73,85
5520,note_on,240,0,1,,,,,,,,,0,,69,0
5756,note_on,236,0,1,,,,,,,,,0,,73,0
5760,note_on,720,0,2,,,,,,,,,1,,64,0
5760,note_on,4,0,1,,,,,,,,,0,,69,85
5760,note_on,0,0,1,,,,,,,,,0,,73,85
5760,note_on,0,0,1,,,,,,,,,0,,76,85
5760,note_on,0,0,2,,,,,,,,,1,,61,85
5760,note_on,0,0,2,,,,,,,,,1,,57,0
5760,note_on,0,0,2,,,,,,,,,1,,57,85
6000,note_on,0,0,2,,,,,,,,,1,,62,85
6000,note_on,0,0,2,,,,,,,,,1,,53,85
6000,note_on,0,0,2,,,,,,,,,1,,57,0
6000,note_on,240,0,2,,,,,,,,,1,,61,0
6000,note_on,0,0,1,,,,,,,,,0,,74,85
6000,note_on,240,0,1,,,,,,,,,0,,76,0
6000,note_on,0,0,1,,,,,,,,,0,,73,0
6000,note_on,0,0,1,,,,,,,,,0,,69,0
6000,note_on,0,0,1,,,,,,,,,0,,77,85
6120,note_on,0,0,1,,,,,,,,,0,,76,85
6120,note_on,0,0,1,,,,,,,,,0,,77,0
6120,note_on,120,0,1,,,,,,,,,0,,74,0
6120,note_on,0,0,1,,,,,,,,,0,,73,85
6240,note_on,0,0,1,,,,,,,,,0,,74,85
6240,note_on,0,0,1,,,,,,,,,0,,77,85
6240,note_on,0,0,1,,,,,,,,,0,,76,0
6240,note_on,120,0,1,,,,,,,,,0,,73,0
6240,note_on,240,0,2,,,,,,,,,1,,53,0
6240,note_on,0,0,2,,,,,,,,,1,,50,85
6360,note_on,0,0,1,,,,,,,,,0,,77,0
6360,note_on,0,0,1,,,,,,,,,0,,79,85
6360,note_on,0,0,1,,,,,,,,,0,,76,85
6360,note_on,120,0,1,,,,,,,,,0,,74,0
6416,note_on,176,0,2,,,,,,,,,1,,62,0
6468,set_tempo,6468,1,0,,,,,,705882,,,,,,
6480,note_on,64,0,2,,,,,,,,,1,,50,0
6480,note_on,0,0,2,,,,,,,,,1,,57,85
6480,note_on,0,0,1,,,,,,,,,0,,79,0
6480,note_on,0,0,2,,,,,,,,,1,,64,85
6480,note_on,120,0,1,,,,,,,,,0,,76,0
6480,note_on,0,0,1,,,,,,,,,0,,77,85
6480,note_on,0,0,1,,,,,,,,,0,,74,85
6496,note_on,16,0,2,,,,,,,,,1,,61,85
6496,note_on,16,0,1,,,,,,,,,0,,69,85
6540,text,44,1,1,,,,,,,,,,,,
6544,text,0,1,1,,,,,,,,,,,,
6544,note_on,4,0,1,,,,,,,,,0,,74,0
6544,note_on,0,0,1,,,,,,,,,0,,77,0
6544,note_on,0,0,1,,,,,,,,,0,,77,85
6544,note_on,0,0,1,,,,,,,,,0,,73,85
6620,note_on,76,0,1,,,,,,,,,0,,77,0
6624,note_on,4,0,1,,,,,,,,,0,,76,85
6660,note_on,36,0,1,,,,,,,,,0,,76,0
6664,note_on,4,0,1,,,,,,,,,0,,77,85
6700,note_on,36,0,1,,,,,,,,,0,,77,0
6704,note_on,4,0,1,,,,,,,,,0,,76,85
6740,note_on,36,0,1,,,,,,,,,0,,76,0
6744,note_on,4,0,1,,,,,,,,,0,,77,85
6780,note_on,36,0,1,,,,,,,,,0,,77,0
6784,note_on,4,0,1,,,,,,,,,0,,76,85
7020,note_on,236,0,1,,,,,,,,,0,,76,0
7136,note_on,116,0,1,,,,,,,,,0,,73,0
7156,note_on,20,0,1,,,,,,,,,0,,69,0
7168,note_on,672,0,2,,,,,,,,,1,,64,0
7168,note_on,0,0,2,,,,,,,,,1,,57,0
7184,note_on,16,0,2,,,,,,,,,1,,61,0
7200,set_tempo,732,1,0,,,,,,461538,,,,,,
7200,note_on,44,0,1,,,,,,,,,0,,73,85
7200,marker,0,1,0,,,,,,,,,,,,
7200,note_on,16,0,2,,,,,,,,,1,,57,85
7320,note_on,120,0,1,,,,,,,,,0,,73,0
7320,note_on,0,0,1,,,,,,,,,0,,69,85
7440,note_on,240,0,2,,,,,,,,,1,,57,0
7440,note_on,0,0,2,,,,,,,,,1,,45,85
7440,note_on,0,0,1,,,,,,,,,0,,73,85
7440,note_on,120,0,1,,,,,,,,,0,,69,0
7560,note_on,120,0,1,,,,,,,,,0,,73,0
7560,note_on,0,0,1,,,,,,,,,0,,76,85
7680,note_on,0,0,1,,,,,,,,,0,,81,85
7680,note_on,0,0,2,,,,,,,,,1,,49,85
7680,note_on,240,0,2,,,,,,,,,1,,45,0
7680,note_on,120,0,1,,,,,,,,,0,,76,0
7800,note_on,0,0,1,,,,,,,,,0,,76,85
7800,note_on,120,0,1,,,,,,,,,0,,81,0
7920,note_on,0,0,1,,,,,,,,,0,,77,85
7920,note_on,240,0,2,,,,,,,,,1,,49,0
7920,note_on,0,0,2,,,,,,,,,1,,50,85
7920,note_on,120,0,1,,,,,,,,,0,,76,0
8040,note_on,120,0,1,,,,,,,,,0,,77,0
8040,note_on,0,0,1,,,,,,,,,0,,81,85
8160,note_on,240,0,2,,,,,,,,,1,,50,0
8160,note_on,0,0,2,,,,,,,,,1,,52,85
8160,note_on,120,0,1,,,,,,,,,0,,81,0
8160,note_on,0,0,1,,,,,,,,,0,,77,85
8280,note_on,120,0,1,,,,,,,,,0,,77,0
8280,note_on,0,0,1,,,,,,,,,0,,74,85
8400,note_on,0,0,1,,,,,,,,,0,,69,85
8400,note_on,120,0,1,,,,,,,,,0,,74,0
8400,note_on,240,0,2,,,,,,,,,1,,52,0
8400,note_on,0,0,2,,,,,,,,,1,,53,85
8520,note_on,0,0,1,,,,,,,,,0,,72,85
8520,note_on,120,0,1,,,,,,,,,0,,69,0
8640,note_on,0,0,1,,,,,,,,,0,,71,85
8640,note_on,120,0,1,,,,,,,,,0,,72,0
8640,note_on,240,0,2,,,,,,,,,1,,53,0
8640,note_on,0,0,2,,,,,,,,,1,,55,85
8760,note_on,0,0,1,,,,,,,,,0,,67,85
8760,note_on,120,0,1,,,,,,,,,0,,71,0
8880,note_on,0,0,2,,,,,,,,,1,,43,85
8880,note_on,120,0,1,,,,,,,,,0,,67,0
8880,note_on,0,0,1,,,,,,,,,0,,71,85
8880,note_on,240,0,2,,,,,,,,,1,,55,0
9000,note_on,0,0,1,,,,,,,,,0,,74,85
9000,note_on,120,0,1,,,,,,,,,0,,71,0
9120,note_on,240,0,2,,,,,,,,,1,,43,0
9120,note_on,0,0,2,,,,,,,,,1,,47,85
9120,note_on,120,0,1,,,,,,,,,0,,74,0
9120,note_on,0,0,1,,,,,,,,,0,,79,85
9240,note_on,120,0,1,,,,,,,,,0,,79,0
9240,note_on,0,0,1,,,,,,,,,0,,74,85
9360,note_on,0,0,1,,,,,,,,,0,,76,85
9360,note_on,240,0,2,,,,,,,,,1,,47,0
9360,note_on,0,0,2,,,,,,,,,1,,48,85
9360,note_on,120,0,1,,,,,,,,,0,,74,0
9480,note_on,0,0,1,,,,,,,,,0,,79,85
9480,note_on,120,0,1,,,,,,,,,0,,76,0
9600,note_on,0,0,2,,,,,,,,,1,,50,85
9600,note_on,0,0,1,,,,,,,,,0,,76,85
9600,note_on,240,0,2,,,,,,,,,1,,48,0
9600,note_on,120,0,1,,,,,,,,,0,,79,0
9720,note_on,120,0,1,,,,,,,,,0,,76,0
9720,note_on,0,0,1,,,,,,,,,0,,72,85
9840,note_on,0,0,2,,,,,,,,,1,,52,85
9840,note_on,0,0,1,,,,,,,,,0,,67,85
9840,note_on,120,0,1,,,,,,,,,0,,72,0
9840,note_on,240,0,2,,,,,,,,,1,,50,0
9960,note_on,120,0,1,,,,,,,,,0,,67,0
9960,note_on,0,0,1,,,,,,,,,0,,71,85
10080,note_on,0,0,2,,,,,,,,,1,,53,85
10080,note_on,240,0,2,,,,,,,,,1,,52,0
10080,note_on,120,0,1,,,,,,,,,0,,71,0
10080,note_on,0,0,1,,,,,,,,,0,,69,85
10200,note_on,0,0,1,,,,,,,,,0,,72,85
10200,note_on,120,0,1,,,,,,,,,0,,69,0
10320,note_on,0,0,2,,,,,,,,,1,,57,85
10320,note_on,240,0,2,,,,,,,,,1,,53,0
10320,note_on,120,0,1,,,,,,,,,0,,72,0
10320,note_on,0,0,1,,,,,,,,,0,,77,85
10440,note_on,0,0,1,,,,,,,,,0,,76,85
10440,note_on,120,0,1,,,,,,,,,0,,77,0
10560,note_on,120,0,1,,,,,,,,,0,,76,0
10560,note_on,0,0,1,,,,,,,,,0,,74,85
10560,note_on,0,0,2,,,,,,,,,1,,53,85
10560,note_on,240,0,2,,,,,,,,,1,,57,0
10680,note_on,120,0,1,,,,,,,,,0,,74,0
10680,note_on,0,0,1,,,,,,,,,0,,72,85
10800,note_on,0,0,2,,,,,,,,,1,,47,85
10800,note_on,120,0,1,,,,,,,,,0,,72,0
10800,note_on,0,0,1,,,,,,,,,0,,74,85
10800,note_on,240,0,2,,,,,,,,,1,,53,0
10920,note_on,120,0,1,,,,,,,,,0,,74,0
10920,note_on,0,0,1,,,,,,,,,0,,72,85
11040,note_on,0,0,1,,,,,,,,,0,,71,85
11040,note_on,120,0,1,,,,,,,,,0,,72,0
11040,note_on,0,0,2,,,,,,,,,1,,50,85
11040,note_on,240,0,2,,,,,,,,,1,,47,0
11160,note_on,0,0,1,,,,,,,,,0,,69,85
11160,note_on,120,0,1,,,,,,,,,0,,71,0
11280,note_on,240,0,2,,,,,,,,,1,,50,0
11280,note_on,0,0,2,,,,,,,,,1,,47,85
11280,note_on,120,0,1,,,,,,,,,0,,69,0
11280,note_on,0,0,1,,,,,,,,,0,,68,85
11400,note_on,0,0,1,,,,,,,,,0,,66,85
11400,note_on,120,0,1,,,,,,,,,0,,68,0
11520,note_on,240,0,2,,,,,,,,,1,,47,0
11520,note_on,0,0,2,,,,,,,,,1,,56,85
11520,note_on,120,0,1,,,,,,,,,0,,66,0
11520,note_on,0,0,1,,,,,,,,,0,,64,85
11640,note_on,120,0,1,,,,,,,,,0,,64,0
11640,note_on,0,0,1,,,,,,,,,0,,71,85
11760,note_on,120,0,1,,,,,,,,,0,,71,0
11760,note_on,0,0,2,,,,,,,,,1,,52,85
11760,note_on,240,0,2,,,,,,,,,1,,56,0
11760,note_on,0,0,1,,,,,,,,,0,,76,85
11880,note_on,0,0,1,,,,,,,,,0,,74,85
11880,note_on,120,0,1,,,,,,,,,0,,76,0
12000,note_on,120,0,1,,,,,,,,,0,,74,0
12000,note_on,0,0,1,,,,,,,,,0,,72,85
12000,note_on,0,0,2,,,,,,,,,1,,56,85
12000,note_on,240,0,2,,,,,,,,,1,,52,0
12120,note_on,120,0,1,,,,,,,,,0,,72,0
12120,note_on,0,0,1,,,,,,,,,0,,71,85
12240,note_on,120,0,1,,,,,,,,,0,,71,0
12240,note_on,0,0,1,,,,,,,,,0,,72,85
12240,note_on,0,0,2,,,,,,,,,1,,57,85
12240,note_on,240,0,2,,,,,,,,,1,,56,0
12360,note_on,0,0,1,,,,,,,,,0,,76,85
12360,note_on,120,0,1,,,,,,,,,0,,72,0
12480,note_on,120,0,1,,,,,,,,,0,,76,0
12480,note_on,0,0,1,,,,,,,,,0,,71,85
12480,note_on,0,0,2,,,,,,,,,1,,55,85
12480,note_on,240,0,2,,,,,,,,,1,,57,0
12600,note_on,120,0,1,,,,,,,,,0,,71,0
12600,note_on,0,0,1,,,,,,,,,0,,76,85
12720,note_on,240,0,2,,,,,,,,,1,,55,0
12720,note_on,120,0,1,,,,,,,,,0,,76,0
12720,note_on,0,0,1,,,,,,,,,0,,69,85
12720,note_on,0,0,2,,,,,,,,,1,,53,85
12840,note_on,120,0,1,,,,,,,,,0,,69,0
12840,note_on,0,0,1,,,,,,,,,0,,76,85
12960,note_on,240,0,2,,,,,,,,,1,,53,0
12960,note_on,0,0,2,,,,,,,,,1,,52,85
12960,note_on,120,0,1,,,,,,,,,0,,76,0
12960,note_on,0,0,1,,,,,,,,,0,,68,85
13080,note_on,0,0,1,,,,,,,,,0,,76,85
13080,note_on,120,0,1,,,,,,,,,0,,68,0
13200,note_on,0,0,1,,,,,,,,,0,,69,85
13200,note_on,0,0,2,,,,,,,,,1,,54,85
13200,note_on,240,0,2,,,,,,,,,1,,52,0
13200,note_on,120,0,1,,,,,,,,,0,,76,0
13320,note_on,120,0,1,,,,,,,,,0,,69,0
13320,note_on,0,0,1,,,,,,,,,0,,76,85
13440,note_on,0,0,2,,,,,,,,,1,,56,85
13440,note_on,120,0,1,,,,,,,,,0,,76,0
13440,note_on,0,0,1,,,,,,,,,0,,71,85
13440,note_on,240,0,2,,,,,,,,,1,,54,0
13560,note_on,120,0,1,,,,,,,,,0,,71,0
13560,note_on,0,0,1,,,,,,,,,0,,76,85
13680,note_on,240,0,2,,,,,,,,,1,,56,0
13680,note_on,0,0,2,,,,,,,,,1,,57,85
13680,note_on,120,0,1,,,,,,,,,0,,76,0
13680,note_on,0,0,1,,,,,,,,,0,,72,85
13800,note_on,120,0,1,,,,,,,,,0,,72,0
13800,note_on,0,0,1,,,,,,,,,0,,64,85
13920,note_on,120,0,1,,,,,,,,,0,,64,0
13920,note_on,0,0,1,,,,,,,,,0,,71,85
13920,note_on,240,0,2,,,,,,,,,1,,57,0
13920,note_on,0,0,2,,,,,,,,,1,,55,85
14040,note_on,120,0,1,,,,,,,,,0,,71,0
14040,note_on,0,0,1,,,,,,,,,0,,64,85
14160,note_on,120,0,1,,,,,,,,,0,,64,0
14160,note_on,0,0,1,,,,,,,,,0,,69,85
14160,note_on,0,0,2,,,,,,,,,1,,53,85
14160,note_on,240,0,2,,,,,,,,,1,,55,0
14280,note_on,120,0,1,,,,,,,,,0,,69,0
14280,note_on,0,0,1,,,,,,,,,0,,64,85
14380,set_tempo,7180,1,0,,,,,,461538,,,,,,
14400,note_on,0,0,1,,,,,,,,,0,,68,85
14400,note_on,0,0,2,,,,,,,,,1,,52,85
14400,note_on,240,0,2,,,,,,,,,1,,53,0
14400,note_on,120,0,1,,,,,,,,,0,,64,0
14520,note_on,120,0,1,,,,,,,,,0,,68,0
14520,note_on,0,0,1,,,,,,,,,0,,64,85
14640,note_on,0,0,2,,,,,,,,,1,,54,85
14640,note_on,240,0,2,,,,,,,,,1,,52,0
14640,note_on,120,0,1,,,,,,,,,0,,64,0
14640,note_on,0,0,1,,,,,,,,,0,,69,85
14760,note_on,0,0,1,,,,,,,,,0,,64,85
14760,note_on,120,0,1,,,,,,,,,0,,69,0
14880,note_on,120,0,1,,,,,,,,,0,,64,0
14880,note_on,240,0,2,,,,,,,,,1,,54,0
14880,note_on,0,0,2,,,,,,,,,1,,56,85
14880,note_on,0,0,1,,,,,,,,,0,,71,85
15000,note_on,0,0,1,,,,,,,,,0,,64,85
15000,note_on,120,0,1,,,,,,,,,0,,71,0
15120,note_on,240,0,2,,,,,,,,,1,,56,0
15120,note_on,0,0,2,,,,,,,,,1,,57,85
15120,note_on,120,0,1,,,,,,,,,0,,64,0
15120,note_on,0,0,1,,,,,,,,,0,,72,85
15240,note_on,120,0,1,,,,,,,,,0,,72,0
15240,note_on,0,0,1,,,,,,,,,0,,69,85
15360,note_on,120,0,1,,,,,,,,,0,,69,0
15360,note_on,0,0,2,,,,,,,,,1,,59,85
15360,note_on,240,0,2,,,,,,,,,1,,57,0
15360,note_on,0,0,1,,,,,,,,,0,,74,85
15480,note_on,120,0,1,,,,,,,,,0,,74,0
15480,note_on,0,0,1,,,,,,,,,0,,69,85
15600,note_on,0,0,2,,,,,,,,,1,,60,85
15600,note_on,240,0,2,,,,,,,,,1,,59,0
15600,note_on,0,0,1,,,,,,,,,0,,76,85
15600,note_on,120,0,1,,,,,,,,,0,,69,0
15720,note_on,0,0,1,,,,,,,,,0,,69,85
15720,note_on,120,0,1,,,,,,,,,0,,76,0
15840,note_on,0,0,2,,,,,,,,,1,,50,85
15840,note_on,240,0,2,,,,,,,,,1,,60,0
15840,note_on,0,0,1,,,,,,,,,0,,77,85
15840,note_on,120,0,1,,,,,,,,,0,,69,0
15960,note_on,120,0,2,,,,,,,,,1,,50,0
15960,note_on,0,0,2,,,,,,,,,1,,62,85
16080,note_on,240,0,1,,,,,,,,,0,,77,0
16080,note_on,0,0,1,,,,,,,,,0,,67,85
16080,note_on,120,0,2,,,,,,,,,1,,62,0
16080,note_on,0,0,2,,,,,,,,,1,,52,85
16200,note_on,120,0,2,,,,,,,,,1,,52,0
16200,note_on,0,0,2,,,,,,,,,1,,62,85
16320,note_on,0,0,2,,,,,,,,,1,,53,85
16320,note_on,0,0,1,,,,,,,,,0,,69,85
16320,note_on,240,0,1,,,,,,,,,0,,67,0
16320,note_on,120,0,2,,,,,,,,,1,,62,0
16440,note_on,0,0,2,,,,,,,,,1,,62,85
16440,note_on,120,0,2,,,,,,,,,1,,53,0
16560,note_on,0,0,1,,,,,,,,,0,,71,85
16560,note_on,120,0,2,,,,,,,,,1,,62,0
16560,note_on,0,0,2,,,,,,,,,1,,55,85
16560,note_on,240,0,1,,,,,,,,,0,,69,0
16680,note_on,0,0,1,,,,,,,,,0,,67,85
16680,note_on,120,0,1,,,,,,,,,0,,71,0
16800,note_on,120,0,1,,,,,,,,,0,,67,0
16800,note_on,0,0,2,,,,,,,,,1,,57,85
16800,note_on,240,0,2,,,,,,,,,1,,55,0
16800,note_on,0,0,1,,,,,,,,,0,,72,85
16920,note_on,0,0,1,,,,,,,,,0,,67,85
16920,note_on,120,0,1,,,,,,,,,0,,72,0
17040,note_on,0,0,2,,,,,,,,,1,,59,85
17040,note_on,0,0,1,,,,,,,,,0,,74,85
17040,note_on,120,0,1,,,,,,,,,0,,67,0
17040,note_on,240,0,2,,,,,,,,,1,,57,0
17160,note_on,120,0,1,,,,,,,,,0,,74,0
17160,note_on,0,0,1,,,,,,,,,0,,67,85
17280,note_on,120,0,1,,,,,,,,,0,,67,0
17280,note_on,0,0,1,,,,,,,,,0,,76,85
17280,note_on,0,0,2,,,,,,,,,1,,60,85
17280,note_on,240,0,2,,,,,,,,,1,,59,0
17400,note_on,0,0,1,,,,,,,,,0,,74,85
17400,note_on,120,0,1,,,,,,,,,0,,76,0
17520,note_on,120,0,1,,,,,,,,,0,,74,0
17520,note_on,0,0,1,,,,,,,,,0,,72,85
17520,note_on,240,0,2,,,,,,,,,1,,60,0
17520,note_on,0,0,2,,,,,,,,,1,,52,85
17640,note_on,0,0,1,,,,,,,,,0,,71,85
17640,note_on,120,0,1,,,,,,,,,0,,72,0
17760,note_on,0,0,1,,,,,,,,,0,,69,85
17760,note_on,120,0,1,,,,,,,,,0,,71,0
17760,note_on,0,0,2,,,,,,,,,1,,48,85
17760,note_on,240,0,2,,,,,,,,,1,,52,0
17880,note_on,0,0,1,,,,,,,,,0,,67,85
17880,note_on,120,0,1,,,,,,,,,0,,69,0
18000,note_on,0,0,1,,,,,,,,,0,,65,85
18000,note_on,120,0,1,,,,,,,,,0,,67,0
18000,note_on,0,0,2,,,,,,,,,1,,50,85
18000,note_on,240,0,2,,,,,,,,,1,,48,0
18120,note_on,0,0,1,,,,,,,,,0,,64,85
18120,note_on,120,0,1,,,,,,,,,0,,65,0
18240,note_on,240,0,2,,,,,,,,,1,,50,0
18240,note_on,0,0,2,,,,,,,,,1,,53,85
18240,note_on,120,0,1,,,,,,,,,0,,64,0
18240,note_on,0,0,1,,,,,,,,,0,,62,85
18360,note_on,120,0,1,,,,,,,,,0,,62,0
18360,note_on,0,0,1,,,,,,,,,0,,60,85
18480,note_on,0,0,2,,,,,,,,,1,,50,85
18480,note_on,120,0,1,,,,,,,,,0,,60,0
18480,note_on,0,0,2,,,,,,,,,1,,59,85
18480,note_on,240,0,2,,,,,,,,,1,,53,0
18600,note_on,120,0,2,,,,,,,,,1,,59,0
18600,note_on,0,0,2,,,,,,,,,1,,57,85
18720,note_on,120,0,2,,,,,,,,,1,,57,0
18720,note_on,0,0,2,,,,,,,,,1,,50,0
18720,note_on,0,0,2,,,,,,,,,1,,52,85
18720,note_on,0,0,2,,,,,,,,,1,,56,85
18840,note_on,120,0,2,,,,,,,,,1,,56,0
18840,note_on,0,0,2,,,,,,,,,1,,59,85
18960,note_on,120,0,2,,,,,,,,,1,,59,0
18960,note_on,480,0,1,,,,,,,,,0,,62,85
19080,note_on,0,0,1,,,,,,,,,0,,65,85
19080,note_on,120,0,1,,,,,,,,,0,,62,0
19200,note_on,0,0,1,,,,,,,,,0,,64,85
19200,note_on,120,0,1,,,,,,,,,0,,65,0
19200,note_on,240,0,2,,,,,,,,,1,,52,0
19320,note_on,0,0,1,,,,,,,,,0,,62,85
19320,note_on,120,0,1,,,,,,,,,0,,64,0
19440,note_on,0,0,1,,,,,,,,,0,,60,85
19440,note_on,120,0,1,,,,,,,,,0,,62,0
19440,note_on,240,0,2,,,,,,,,,1,,40,85
19560,note_on,120,0,1,,,,,,,,,0,,60,0
19560,note_on,0,0,1,,,,,,,,,0,,64,85
19680,note_on,0,0,1,,,,,,,,,0,,69,85
19680,note_on,120,0,1,,,,,,,,,0,,64,0
19800,note_on,120,0,1,,,,,,,,,0,,69,0
19800,note_on,0,0,1,,,,,,,,,0,,72,85
19920,note_on,0,0,1,,,,,,,,,0,,71,85
19920,note_on,120,0,1,,,,,,,,,0,,72,0
19920,note_on,480,0,2,,,,,,,,,1,,40,0
20040,note_on,120,0,1,,,,,,,,,0,,71,0
20040,note_on,0,0,1,,,,,,,,,0,,69,85
20160,note_on,240,0,2,,,,,,,,,1,,52,85
20160,note_on,120,0,1,,,,,,,,,0,,69,0
20160,note_on,0,0,1,,,,,,,,,0,,68,85
20280,note_on,120,0,1,,,,,,,,,0,,68,0
20280,note_on,0,0,1,,,,,,,,,0,,71,85
20400,note_on,120,0,1,,,,,,,,,0,,71,0
20400,note_on,0,0,1,,,,,,,,,0,,74,85
20520,note_on,120,0,1,,,,,,,,,0,,74,0
20520,note_on,0,0,1,,,,,,,,,0,,77,85
20640,note_on,120,0,1,,,,,,,,,0,,77,0
20640,note_on,480,0,2,,,,,,,,,1,,52,0
20640,note_on,0,0,1,,,,,,,,,0,,76,85
20760,note_on,120,0,1,,,,,,,,,0,,76,0
20760,note_on,0,0,1,,,,,,,,,0,,74,85
20880,note_on,0,0,1,,,,,,,,,0,,64,85
20880,note_on,120,0,1,,,,,,,,,0,,74,0
20880,note_on,0,0,1,,,,,,,,,0,,72,85
21000,note_on,120,0,1,,,,,,,,,0,,72,0
21000,note_on,0,0,1,,,,,,,,,0,,76,85
21120,note_on,120,0,1,,,,,,,,,0,,76,0
21120,note_on,0,0,1,,,,,,,,,0,,64,0
21120,note_on,0,0,1,,,,,,,,,0,,81,85
21120,note_on,0,0,1,,,,,,,,,0,,60,85
21240,note_on,120,0,1,,,,,,,,,0,,81,0
21240,note_on,0,0,1,,,,,,,,,0,,84,85
21360,note_on,0,0,1,,,,,,,,,0,,65,85
21360,note_on,0,0,1,,,,,,,,,0,,82,85
21360,note_on,120,0,1,,,,,,,,,0,,84,0
21360,note_on,0,0,1,,,,,,,,,0,,60,0
21480,note_on,0,0,1,,,,,,,,,0,,81,85
21480,note_on,120,0,1,,,,,,,,,0,,82,0
21600,note_on,0,0,1,,,,,,,,,0,,62,85
21600,note_on,120,0,1,,,,,,,,,0,,81,0
21600,note_on,0,0,1,,,,,,,,,0,,65,0
21600,note_on,0,0,1,,,,,,,,,0,,82,85
21720,note_on,120,0,1,,,,,,,,,0,,82,0
21720,note_on,0,0,1,,,,,,,,,0,,74,85
21840,note_on,0,0,1,,,,,,,,,0,,73,85
21840,note_on,120,0,1,,,,,,,,,0,,74,0
21960,note_on,0,0,1,,,,,,,,,0,,74,85
21960,note_on,120,0,1,,,,,,,,,0,,73,0
22080,note_on,120,0,1,,,,,,,,,0,,74,0
22080,note_on,0,0,1,,,,,,,,,0,,62,0
22080,note_on,0,0,1,,,,,,,,,0,,64,85
22080,note_on,0,0,1,,,,,,,,,0,,80,85
22200,note_on,120,0,1,,,,,,,,,0,,80,0
22200,note_on,0,0,1,,,,,,,,,0,,74,85
22320,note_on,120,0,1,,,,,,,,,0,,74,0
22320,note_on,0,0,1,,,,,,,,,0,,64,0
22320,note_on,0,0,1,,,,,,,,,0,,81,85
22320,note_on,0,0,1,,,,,,,,,0,,65,85
22440,note_on,120,0,1,,,,,,,,,0,,81,0
22440,note_on,0,0,1,,,,,,,,,0,,74,85
22560,note_on,120,0,1,,,,,,,,,0,,74,0
22560,note_on,0,0,1,,,,,,,,,0,,73,85
22680,note_on,120,0,1,,,,,,,,,0,,73,0
22680,note_on,0,0,1,,,,,,,,,0,,74,85
22800,note_on,120,0,1,,,,,,,,,0,,74,0
22800,note_on,0,0,1,,,,,,,,,0,,65,0
22800,note_on,0,0,1,,,,,,,,,0,,60,85
22800,note_on,0,0,1,,,,,,,,,0,,76,85
22920,note_on,120,0,1,,,,,,,,,0,,76,0
22920,note_on,0,0,1,,,,,,,,,0,,69,85
23040,note_on,120,0,1,,,,,,,,,0,,69,0
23040,note_on,0,0,1,,,,,,,,,0,,60,0
23040,note_on,0,0,1,,,,,,,,,0,,62,85
23040,note_on,0,0,1,,,,,,,,,0,,77,85
23160,note_on,120,0,1,,,,,,,,,0,,62,0
23160,note_on,0,0,1,,,,,,,,,0,,70,85
23280,note_on,120,0,1,,,,,,,,,0,,70,0
23280,note_on,0,0,1,,,,,,,,,0,,69,85
23400,note_on,0,0,1,,,,,,,,,0,,70,85
23400,note_on,120,0,1,,,,,,,,,0,,69,0
23520,note_on,0,0,1,,,,,,,,,0,,79,85
23520,note_on,120,0,1,,,,,,,,,0,,70,0
23520,note_on,0,0,1,,,,,,,,,0,,64,85
23520,note_on,0,0,1,,,,,,,,,0,,77,0
23640,note_on,0,0,1,,,,,,,,,0,,70,85
23640,note_on,120,0,1,,,,,,,,,0,,64,0
23760,note_on,0,0,1,,,,,,,,,0,,72,85
23760,note_on,0,0,1,,,,,,,,,0,,79,0
23760,note_on,120,0,1,,,,,,,,,0,,70,0
23760,note_on,0,0,1,,,,,,,,,0,,65,85
23880,note_on,0,0,1,,,,,,,,,0,,69,85
23880,note_on,120,0,1,,,,,,,,,0,,65,0
24000,note_on,0,0,1,,,,,,,,,0,,68,85
24000,note_on,120,0,1,,,,,,,,,0,,69,0
24120,note_on,0,0,1,,,,,,,,,0,,69,85
24120,note_on,120,0,1,,,,,,,,,0,,68,0
24240,note_on,0,0,1,,,,,,,,,0,,60,85
24240,note_on,0,0,1,,,,,,,,,0,,76,85
24240,note_on,0,0,1,,,,,,,,,0,,72,0
24240,note_on,120,0,1,,,,,,,,,0,,69,0
24360,note_on,0,0,1,,,,,,,,,0,,69,85
24360,note_on,120,0,1,,,,,,,,,0,,60,0
24480,note_on,120,0,1,,,,,,,,,0,,69,0
24480,note_on,0,0,1,,,,,,,,,0,,76,0
24480,note_on,0,0,1,,,,,,,,,0,,62,85
24480,note_on,0,0,1,,,,,,,,,0,,77,85
24600,note_on,120,0,1,,,,,,,,,0,,77,0
24600,note_on,0,0,1,,,,,,,,,0,,62,0
24600,note_on,0,0,1,,,,,,,,,0,,65,85
24600,note_on,0,0,1,,,,,,,,,0,,81,85
24720,note_on,120,0,1,,,,,,,,,0,,81,0
24720,note_on,0,0,1,,,,,,,,,0,,65,0
24720,note_on,0,0,1,,,,,,,,,0,,64,85
24720,note_on,0,0,1,,,,,,,,,0,,79,85
24840,note_on,0,0,1,,,,,,,,,0,,65,85
24840,note_on,120,0,1,,,,,,,,,0,,79,0
24840,note_on,0,0,1,,,,,,,,,0,,64,0
24840,note_on,0,0,1,,,,,,,,,0,,81,85
24960,note_on,0,0,1,,,,,,,,,0,,62,85
24960,note_on,0,0,1,,,,,,,,,0,,65,0
24960,note_on,0,0,1,,,,,,,,,0,,77,85
24960,note_on,120,0,1,,,,,,,,,0,,81,0
25080,note_on,0,0,1,,,,,,,,,0,,81,85
25080,note_on,0,0,1,,,,,,,,,0,,65,85
25080,note_on,0,0,1,,,,,,,,,0,,62,0
25080,note_on,120,0,1,,,,,,,,,0,,77,0
25200,note_on,4560,0,2,,,,,,,,,1,,59,85
25200,note_on,120,0,1,,,,,,,,,0,,81,0
25200,note_on,0,0,1,,,,,,,,,0,,65,0
25200,note_on,0,0,1,,,,,,,,,0,,74,85
25320,note_on,120,0,2,,,,,,,,,1,,59,0
25320,note_on,0,0,2,,,,,,,,,1,,62,85
25320,note_on,0,0,1,,,,,,,,,0,,77,85
25320,note_on,120,0,1,,,,,,,,,0,,74,0
25440,note_on,0,0,2,,,,,,,,,1,,55,85
25440,note_on,120,0,1,,,,,,,,,0,,77,0
25440,note_on,0,0,1,,,,,,,,,0,,71,85
25440,note_on,120,0,2,,,,,,,,,1,,62,0
25560,note_on,120,0,1,,,,,,,,,0,,71,0
25560,note_on,0,0,2,,,,,,,,,1,,62,85
25560,note_on,120,0,2,,,,,,,,,1,,55,0
25560,note_on,0,0,1,,,,,,,,,0,,77,85
25680,note_on,0,0,2,,,,,,,,,1,,60,85
25680,note_on,120,0,2,,,,,,,,,1,,62,0
25680,note_on,120,0,1,,,,,,,,,0,,77,0
25680,note_on,0,0,1,,,,,,,,,0,,76,85
25800,note_on,120,0,1,,,,,,,,,0,,76,0
25800,note_on,0,0,1,,,,,,,,,0,,74,85
25800,note_on,0,0,2,,,,,,,,,1,,59,85
25800,note_on,120,0,2,,,,,,,,,1,,60,0
25920,note_on,120,0,1,,,,,,,,,0,,74,0
25920,note_on,0,0,1,,,,,,,,,0,,76,85
25920,note_on,0,0,2,,,,,,,,,1,,60,85
25920,note_on,120,0,2,,,,,,,,,1,,59,0
26040,note_on,120,0,2,,,,,,,,,1,,60,0
26040,note_on,0,0,2,,,,,,,,,1,,64,85
26040,note_on,0,0,1,,,,,,,,,0,,67,85
26040,note_on,0,0,1,,,,,,,,,0,,79,85
26040,note_on,120,0,1,,,,,,,,,0,,76,0
26160,note_on,120,0,2,,,,,,,,,1,,64,0
26160,note_on,0,0,2,,,,,,,,,1,,62,85
26160,note_on,0,0,1,,,,,,,,,0,,77,85
26160,note_on,120,0,1,,,,,,,,,0,,79,0
26280,note_on,0,0,1,,,,,,,,,0,,79,85
26280,note_on,0,0,2,,,,,,,,,1,,64,85
26280,note_on,0,0,1,,,,,,,,,0,,67,0
26280,note_on,120,0,1,,,,,,,,,0,,77,0
26280,note_on,120,0,2,,,,,,,,,1,,62,0
26400,note_on,0,0,1,,,,,,,,,0,,76,85
26400,note_on,120,0,1,,,,,,,,,0,,79,0
26400,note_on,120,0,2,,,,,,,,,1,,64,0
26400,note_on,0,0,2,,,,,,,,,1,,60,85
26520,note_on,120,0,2,,,,,,,,,1,,60,0
26520,note_on,120,0,1,,,,,,,,,0,,76,0
26520,note_on,0,0,1,,,,,,,,,0,,79,85
26520,note_on,0,0,2,,,,,,,,,1,,64,85
26640,note_on,120,0,2,,,,,,,,,1,,64,0
26640,note_on,0,0,2,,,,,,,,,1,,57,85
26640,note_on,120,0,1,,,,,,,,,0,,79,0
26640,note_on,0,0,1,,,,,,,,,0,,72,85
26760,note_on,120,0,2,,,,,,,,,1,,57,0
26760,note_on,0,0,2,,,,,,,,,1,,60,85
26760,note_on,120,0,1,,,,,,,,,0,,72,0
26760,note_on,0,0,1,,,,,,,,,0,,76,85
26880,note_on,120,0,1,,,,,,,,,0,,76,0
26880,note_on,120,0,2,,,,,,,,,1,,60,0
26880,note_on,0,0,2,,,,,,,,,1,,59,85
26880,note_on,0,0,1,,,,,,,,,0,,74,85
27000,note_on,120,0,2,,,,,,,,,1,,59,0
27000,note_on,0,0,2,,,,,,,,,1,,60,85
27000,note_on,120,0,1,,,,,,,,,0,,74,0
27000,note_on,0,0,1,,,,,,,,,0,,76,85
27120,note_on,120,0,2,,,,,,,,,1,,60,0
27120,note_on,0,0,2,,,,,,,,,1,,57,85
27120,note_on,120,0,1,,,,,,,,,0,,76,0
27120,note_on,0,0,1,,,,,,,,,0,,72,85
27240,note_on,120,0,1,,,,,,,,,0,,72,0
27240,note_on,0,0,1,,,,,,,,,0,,76,85
27240,note_on,0,0,2,,,,,,,,,1,,60,85
27240,note_on,120,0,2,,,,,,,,,1,,57,0
27360,note_on,120,0,2,,,,,,,,,1,,60,0
27360,note_on,0,0,2,,,,,,,,,1,,53,85
27360,note_on,120,0,1,,,,,,,,,0,,76,0
27360,note_on,0,0,1,,,,,,,,,0,,69,85
27480,note_on,0,0,1,,,,,,,,,0,,77,85
27480,note_on,120,0,1,,,,,,,,,0,,69,0
27480,note_on,120,0,2,,,,,,,,,1,,53,0
27480,note_on,0,0,2,,,,,,,,,1,,57,85
27600,note_on,120,0,1,,,,,,,,,0,,77,0
27600,note_on,0,0,2,,,,,,,,,1,,55,85
27600,note_on,0,0,1,,,,,,,,,0,,76,85
27600,note_on,120,0,2,,,,,,,,,1,,57,0
27720,note_on,120,0,2,,,,,,,,,1,,55,0
27720,note_on,0,0,1,,,,,,,,,0,,77,85
27720,note_on,120,0,1,,,,,,,,,0,,76,0
27720,note_on,0,0,2,,,,,,,,,1,,57,85
27840,note_on,120,0,2,,,,,,,,,1,,57,0
27840,note_on,120,0,1,,,,,,,,,0,,77,0
27840,note_on,0,0,2,,,,,,,,,1,,53,85
27840,note_on,0,0,1,,,,,,,,,0,,74,85
27960,note_on,0,0,1,,,,,,,,,0,,77,85
27960,note_on,0,0,2,,,,,,,,,1,,57,85
27960,note_on,120,0,2,,,,,,,,,1,,53,0
27960,note_on,120,0,1,,,,,,,,,0,,74,0
28080,note_on,0,0,1,,,,,,,,,0,,70,85
28080,note_on,120,0,1,,,,,,,,,0,,77,0
28080,note_on,0,0,2,,,,,,,,,1,,50,85
28080,note_on,120,0,2,,,,,,,,,1,,57,0
28200,note_on,120,0,1,,,,,,,,,0,,70,0
28200,note_on,0,0,1,,,,,,,,,0,,65,85
28200,note_on,120,0,2,,,,,,,,,1,,50,0
28200,note_on,0,0,1,,,,,,,,,0,,74,85
28320,note_on,120,0,1,,,,,,,,,0,,74,0
28320,note_on,0,0,1,,,,,,,,,0,,72,85
28320,note_on,0,0,1,,,,,,,,,0,,64,85
28320,note_on,0,0,1,,,,,,,,,0,,65,0
28440,note_on,0,0,1,,,,,,,,,0,,64,0
28440,note_on,0,0,1,,,,,,,,,0,,65,85
28440,note_on,0,0,1,,,,,,,,,0,,74,85
28440,note_on,120,0,1,,,,,,,,,0,,72,0
28560,note_on,120,0,1,,,,,,,,,0,,74,0
28560,note_on,0,0,1,,,,,,,,,0,,65,0
28560,note_on,0,0,1,,,,,,,,,0,,62,85
28560,note_on,0,0,1,,,,,,,,,0,,70,85
28680,note_on,0,0,1,,,,,,,,,0,,74,85
28680,note_on,120,0,1,,,,,,,,,0,,70,0
28680,note_on,0,0,1,,,,,,,,,0,,62,0
28680,note_on,0,0,1,,,,,,,,,0,,65,85
28800,note_on,120,0,1,,,,,,,,,0,,74,0
28800,note_on,0,0,1,,,,,,,,,0,,65,0
28800,note_on,600,0,2,,,,,,,,,1,,59,85
28800,note_on,0,0,1,,,,,,,,,0,,68,85
28920,note_on,120,0,1,,,,,,,,,0,,68,0
28920,note_on,0,0,1,,,,,,,,,0,,71,85
28920,note_on,0,0,2,,,,,,,,,1,,62,85
28920,note_on,120,0,2,,,,,,,,,1,,59,0
29040,note_on,120,0,1,,,,,,,,,0,,71,0
29040,note_on,0,0,1,,,,,,,,,0,,69,85
29040,note_on,0,0,2,,,,,,,,,1,,60,85
29040,note_on,120,0,2,,,,,,,,,1,,62,0
29160,note_on,0,0,1,,,,,,,,,0,,71,85
29160,note_on,0,0,2,,,,,,,,,1,,62,85
29160,note_on,120,0,2,,,,,,,,,1,,60,0
29160,note_on,120,0,1,,,,,,,,,0,,69,0
29280,note_on,0,0,2,,,,,,,,,1,,59,85
29280,note_on,120,0,1,,,,,,,,,0,,71,0
29280,note_on,0,0,1,,,,,,,,,0,,68,85
29280,note_on,120,0,2,,,,,,,,,1,,62,0
29400,note_on,120,0,2,,,,,,,,,1,,59,0
29400,note_on,0,0,2,,,,,,,,,1,,62,85
29400,note_on,0,0,1,,,,,,,,,0,,71,85
29400,note_on,120,0,1,,,,,,,,,0,,68,0
29520,note_on,0,0,1,,,,,,,,,0,,74,85
29520,note_on,0,0,2,,,,,,,,,1,,56,85
29520,note_on,120,0,2,,,,,,,,,1,,62,0
29520,note_on,120,0,1,,,,,,,,,0,,71,0
29640,note_on,120,0,1,,,,,,,,,0,,74,0
29640,note_on,0,0,1,,,,,,,,,0,,77,85
29760,note_on,240,0,2,,,,,,,,,1,,56,0
29760,note_on,0,0,2,,,,,,,,,1,,52,85
29760,note_on,0,0,1,,,,,,,,,0,,76,85
29760,note_on,120,0,1,,,,,,,,,0,,77,0
29880,note_on,0,0,1,,,,,,,,,0,,74,85
29880,note_on,120,0,1,,,,,,,,,0,,76,0
30000,note_on,0,0,1,,,,,,,,,0,,72,85
30000,note_on,120,0,1,,,,,,,,,0,,74,0
30000,note_on,0,0,2,,,,,,,,,1,,56,85
30000,note_on,240,0,2,,,,,,,,,1,,52,0
30120,note_on,120,0,1,,,,,,,,,0,,72,0
30120,note_on,0,0,1,,,,,,,,,0,,71,85
30240,note_on,0,0,1,,,,,,,,,0,,72,85
30240,note_on,0,0,2,,,,,,,,,1,,57,85
30240,note_on,240,0,2,,,,,,,,,1,,56,0
30240,note_on,120,0,1,,,,,,,,,0,,71,0
30360,note_on,0,0,1,,,,,,,,,0,,69,85
30360,note_on,120,0,1,,,,,,,,,0,,72,0
30480,note_on,0,0,1,,,,,,,,,0,,68,85
30480,note_on,120,0,1,,,,,,,,,0,,69,0
30480,note_on,240,0,2,,,,,,,,,1,,57,0
30480,note_on,0,0,2,,,,,,,,,1,,45,85
30600,note_on,0,0,1,,,,,,,,,0,,69,85
30600,note_on,120,0,1,,,,,,,,,0,,68,0
30720,note_on,240,0,2,,,,,,,,,1,,45,0
30720,note_on,0,0,1,,,,,,,,,0,,74,85
30720,note_on,120,0,1,,,,,,,,,0,,69,0
30720,note_on,0,0,2,,,,,,,,,1,,47,85
30840,note_on,0,0,1,,,,,,,,,0,,69,85
30840,note_on,120,0,1,,,,,,,,,0,,74,0
30960,note_on,240,0,2,,,,,,,,,1,,47,0
30960,note_on,0,0,1,,,,,,,,,0,,76,85
30960,note_on,120,0,1,,,,,,,,,0,,69,0
30960,note_on,0,0,2,,,,,,,,,1,,48,85
31080,note_on,0,0,1,,,,,,,,,0,,69,85
31080,note_on,120,0,1,,,,,,,,,0,,76,0
31200,note_on,0,0,2,,,,,,,,,1,,60,85
31200,note_on,240,0,2,,,,,,,,,1,,48,0
31200,note_on,120,0,1,,,,,,,,,0,,69,0
31200,note_on,0,0,1,,,,,,,,,0,,76,85
31320,note_on,120,0,1,,,,,,,,,0,,76,0
31320,note_on,0,0,1,,,,,,,,,0,,81,85
31440,note_on,120,0,1,,,,,,,,,0,,81,0
31440,note_on,0,0,1,,,,,,,,,0,,79,85
31440,note_on,0,0,2,,,,,,,,,1,,57,85
31440,note_on,240,0,2,,,,,,,,,1,,60,0
31560,note_on,120,0,1,,,,,,,,,0,,79,0
31560,note_on,0,0,1,,,,,,,,,0,,81,85
31680,note_on,240,0,2,,,,,,,,,1,,57,0
31680,note_on,0,0,2,,,,,,,,,1,,62,85
31680,note_on,0,0,1,,,,,,,,,0,,77,85
31680,note_on,120,0,1,,,,,,,,,0,,81,0
31800,note_on,0,0,1,,,,,,,,,0,,76,85
31800,note_on,120,0,1,,,,,,,,,0,,77,0
31920,note_on,0,0,1,,,,,,,,,0,,74,85
31920,note_on,240,0,2,,,,,,,,,1,,62,0
31920,note_on,0,0,2,,,,,,,,,1,,53,85
31920,note_on,120,0,1,,,,,,,,,0,,76,0
32040,note_on,120,0,1,,,,,,,,,0,,74,0
32040,note_on,0,0,1,,,,,,,,,0,,83,85
32160,note_on,0,0,1,,,,,,,,,0,,81,85
32160,note_on,240,0,2,,,,,,,,,1,,53,0
32160,note_on,0,0,2,,,,,,,,,1,,62,85
32160,note_on,120,0,1,,,,,,,,,0,,83,0
32280,note_on,120,0,1,,,,,,,,,0,,81,0
32280,note_on,0,0,1,,,,,,,,,0,,83,85
32400,note_on,120,0,1,,,,,,,,,0,,83,0
32400,note_on,0,0,1,,,,,,,,,0,,80,85
32400,note_on,0,0,2,,,,,,,,,1,,64,85
32400,note_on,240,0,2,,,,,,,,,1,,62,0
32520,note_on,0,0,1,,,,,,,,,0,,76,85
32520,note_on,120,0,1,,,,,,,,,0,,80,0
32640,note_on,120,0,1,,,,,,,,,0,,76,0
32640,note_on,0,0,2,,,,,,,,,1,,52,85
32640,note_on,0,0,1,,,,,,,,,0,,80,85
32640,note_on,240,0,2,,,,,,,,,1,,64,0
32760,note_on,120,0,1,,,,,,,,,0,,80,0
32760,note_on,0,0,1,,,,,,,,,0,,84,85
32880,note_on,120,0,1,,,,,,,,,0,,84,0
32880,note_on,0,0,2,,,,,,,,,1,,64,85
32880,note_on,240,0,2,,,,,,,,,1,,52,0
32880,note_on,0,0,1,,,,,,,,,0,,83,85
33000,note_on,0,0,1,,,,,,,,,0,,84,85
33000,note_on,120,0,1,,,,,,,,,0,,83,0
33120,note_on,120,0,1,,,,,,,,,0,,84,0
33120,note_on,0,0,1,,,,,,,,,0,,81,85
33120,note_on,0,0,2,,,,,,,,,1,,65,85
33120,note_on,240,0,2,,,,,,,,,1,,64,0
33240,note_on,120,0,1,,,,,,,,,0,,81,0
33240,note_on,0,0,1,,,,,,,,,0,,80,85
33360,note_on,0,0,1,,,,,,,,,0,,81,85
33360,note_on,120,0,1,,,,,,,,,0,,80,0
33360,note_on,0,0,2,,,,,,,,,1,,53,85
33360,note_on,240,0,2,,,,,,,,,1,,65,0
33480,note_on,120,0,1,,,,,,,,,0,,81,0
33480,note_on,0,0,1,,,,,,,,,0,,84,85
33600,note_on,0,0,1,,,,,,,,,0,,83,85
33600,note_on,120,0,1,,,,,,,,,0,,84,0
33600,note_on,240,0,2,,,,,,,,,1,,53,0
33600,note_on,0,0,2,,,,,,,,,1,,65,85
33720,note_on,0,0,1,,,,,,,,,0,,84,85
33720,note_on,120,0,1,,,,,,,,,0,,83,0
33840,note_on,0,0,1,,,,,,,,,0,,81,85
33840,note_on,120,0,1,,,,,,,,,0,,84,0
33840,note_on,0,0,2,,,,,,,,,1,,60,85
33840,note_on,240,0,2,,,,,,,,,1,,65,0
33960,note_on,0,0,1,,,,,,,,,0,,76,85
33960,note_on,120,0,1,,,,,,,,,0,,81,0
34080,note_on,240,0,2,,,,,,,,,1,,60,0
34080,note_on,0,0,2,,,,,,,,,1,,48,85
34080,note_on,0,0,1,,,,,,,,,0,,81,85
34080,note_on,120,0,1,,,,,,,,,0,,76,0
34200,note_on,0,0,1,,,,,,,,,0,,79,85
34200,note_on,120,0,1,,,,,,,,,0,,81,0
34320,note_on,0,0,1,,,,,,,,,0,,77,85
34320,note_on,120,0,1,,,,,,,,,0,,79,0
34320,note_on,240,0,2,,,,,,,,,1,,48,0
34320,note_on,0,0,2,,,,,,,,,1,,60,85
34440,note_on,120,0,1,,,,,,,,,0,,77,0
34440,note_on,0,0,1,,,,,,,,,0,,76,85
34560,note_on,240,0,2,,,,,,,,,1,,60,0
34560,note_on,0,0,2,,,,,,,,,1,,62,85
34560,note_on,0,0,1,,,,,,,,,0,,77,85
34560,note_on,120,0,1,,,,,,,,,0,,76,0
34680,note_on,120,0,1,,,,,,,,,0,,77,0
34680,note_on,0,0,1,,,,,,,,,0,,81,85
34800,note_on,240,0,2,,,,,,,,,1,,62,0
34800,note_on,120,0,1,,,,,,,,,0,,81,0
34800,note_on,0,0,1,,,,,,,,,0,,79,85
34800,note_on,0,0,2,,,,,,,,,1,,50,85
34920,note_on,120,0,1,,,,,,,,,0,,79,0
34920,note_on,0,0,1,,,,,,,,,0,,81,85
35040,note_on,120,0,1,,,,,,,,,0,,81,0
35040,note_on,240,0,2,,,,,,,,,1,,50,0
35040,note_on,0,0,2,,,,,,,,,1,,52,85
35040,note_on,0,0,1,,,,,,,,,0,,77,85
35160,note_on,0,0,1,,,,,,,,,0,,81,85
35160,note_on,120,0,1,,,,,,,,,0,,77,0
35280,note_on,240,0,2,,,,,,,,,1,,52,0
35280,note_on,0,0,2,,,,,,,,,1,,53,85
35280,note_on,0,0,1,,,,,,,,,0,,74,85
35280,note_on,120,0,1,,,,,,,,,0,,81,0
35400,note_on,120,0,1,,,,,,,,,0,,74,0
35400,note_on,0,0,1,,,,,,,,,0,,77,85
35520,note_on,0,0,2,,,,,,,,,1,,50,85
35520,note_on,240,0,2,,,,,,,,,1,,53,0
35520,note_on,0,0,1,,,,,,,,,0,,71,85
35520,note_on,120,0,1,,,,,,,,,0,,77,0
35640,note_on,0,0,1,,,,,,,,,0,,84,85
35640,note_on,120,0,1,,,,,,,,,0,,71,0
35760,note_on,0,0,2,,,,,,,,,1,,62,85
35760,note_on,240,0,2,,,,,,,,,1,,50,0
35760,note_on,120,0,1,,,,,,,,,0,,84,0
35760,note_on,0,0,1,,,,,,,,,0,,83,85
35880,note_on,120,0,1,,,,,,,,,0,,83,0
35880,note_on,0,0,1,,,,,,,,,0,,81,85
36000,note_on,0,0,1,,,,,,,,,0,,80,85
36000,note_on,0,0,2,,,,,,,,,1,,64,85
36000,note_on,120,0,1,,,,,,,,,0,,81,0
36000,note_on,240,0,2,,,,,,,,,1,,62,0
36120,note_on,120,0,1,,,,,,,,,0,,80,0
36120,note_on,0,0,1,,,,,,,,,0,,83,85
36240,note_on,120,0,1,,,,,,,,,0,,83,0
36240,note_on,0,0,1,,,,,,,,,0,,76,85
36360,note_on,120,0,1,,,,,,,,,0,,76,0
36360,note_on,0,0,1,,,,,,,,,0,,74,85
36480,note_on,480,0,2,,,,,,,,,1,,64,0
36480,note_on,120,0,1,,,,,,,,,0,,74,0
36480,note_on,0,0,1,,,,,,,,,0,,72,85
36600,note_on,0,0,1,,,,,,,,,0,,71,85
36600,note_on,120,0,1,,,,,,,,,0,,72,0
36720,note_on,0,0,1,,,,,,,,,0,,72,85
36720,note_on,120,0,1,,,,,,,,,0,,71,0
36840,note_on,0,0,1,,,,,,,,,0,,76,85
36840,note_on,120,0,1,,,,,,,,,0,,72,0
36960,note_on,0,0,1,,,,,,,,,0,,74,85
36960,note_on,120,0,1,,,,,,,,,0,,76,0
37080,note_on,120,0,1,,,,,,,,,0,,74,0
37080,note_on,0,0,1,,,,,,,,,0,,72,85
37200,note_on,120,0,1,,,,,,,,,0,,72,0
37200,note_on,0,0,1,,,,,,,,,0,,71,85
37320,note_on,120,0,1,,,,,,,,,0,,71,0
37320,note_on,0,0,1,,,,,,,,,0,,69,85
37440,note_on,120,0,1,,,,,,,,,0,,69,0
37440,note_on,0,0,1,,,,,,,,,0,,68,85
37560,note_on,120,0,1,,,,,,,,,0,,68,0
37560,note_on,0,0,1,,,,,,,,,0,,71,85
37680,note_on,120,0,1,,,,,,,,,0,,71,0
37680,note_on,0,0,1,,,,,,,,,0,,64,85
37800,note_on,0,0,1,,,,,,,,,0,,62,85
37800,note_on,120,0,1,,,,,,,,,0,,64,0
37920,note_on,120,0,1,,,,,,,,,0,,62,0
37920,note_on,0,0,1,,,,,,,,,0,,60,85
38040,note_on,0,0,1,,,,,,,,,0,,59,85
38040,note_on,120,0,1,,,,,,,,,0,,60,0
38160,note_on,0,0,1,,,,,,,,,0,,60,85
38160,note_on,120,0,1,,,,,,,,,0,,59,0
38280,note_on,0,0,1,,,,,,,,,0,,64,85
38280,note_on,120,0,1,,,,,,,,,0,,60,0
38400,note_on,0,0,1,,,,,,,,,0,,62,85
38400,note_on,120,0,1,,,,,,,,,0,,64,0
38520,note_on,0,0,1,,,,,,,,,0,,60,85
38520,note_on,120,0,1,,,,,,,,,0,,62,0
38640,note_on,0,0,1,,,,,,,,,0,,59,85
38640,note_on,120,0,1,,,,,,,,,0,,60,0
38760,note_on,0,0,1,,,,,,,,,0,,57,85
38760,note_on,120,0,1,,,,,,,,,0,,59,0
38880,note_on,120,0,1,,,,,,,,,0,,57,0
38880,note_on,2400,0,2,,,,,,,,,1,,56,85
39000,note_on,120,0,2,,,,,,,,,1,,56,0
39000,note_on,0,0,2,,,,,,,,,1,,54,85
39120,note_on,0,0,2,,,,,,,,,1,,52,85
39120,note_on,120,0,2,,,,,,,,,1,,54,0
39240,note_on,0,0,2,,,,,,,,,1,,50,85
39240,note_on,120,0,2,,,,,,,,,1,,52,0
39360,note_on,0,0,2,,,,,,,,,1,,48,85
39360,note_on,120,0,2,,,,,,,,,1,,50,0
39480,note_on,0,0,2,,,,,,,,,1,,47,85
39480,note_on,120,0,2,,,,,,,,,1,,48,0
39584,set_tempo,25204,1,0,,,,,,600000,,,,,,
39600,note_on,720,0,1,,,,,,,,,0,,72,85
39600,note_on,0,0,2,,,,,,,,,1,,45,85
39600,note_on,0,0,2,,,,,,,,,1,,57,85
39600,note_on,0,0,2,,,,,,,,,1,,52,85
39600,note_on,0,0,2,,,,,,,,,1,,48,85
39600,note_on,0,0,1,,,,,,,,,0,,81,85
39600,note_on,0,0,1,,,,,,,,,0,,76,85
39600,note_on,120,0,2,,,,,,,,,1,,47,0
39720,note_on,0,0,1,,,,,,,,,0,,83,85
39720,note_on,120,0,1,,,,,,,,,0,,81,0
39836,text,116,1,1,,,,,,,,,,,,
39840,note_on,0,0,1,,,,,,,,,0,,72,0
39840,note_on,0,0,2,,,,,,,,,1,,50,85
39840,note_on,0,0,2,,,,,,,,,1,,47,85
39840,note_on,0,0,2,,,,,,,,,1,,52,0
39840,note_on,0,0,2,,,,,,,,,1,,48,0
39840,note_on,0,0,1,,,,,,,,,0,,81,85
39840,note_on,0,0,2,,,,,,,,,1,,45,0
39840,note_on,240,0,2,,,,,,,,,1,,57,0
39840,note_on,0,0,2,,,,,,,,,1,,59,85
39840,note_on,0,0,2,,,,,,,,,1,,56,85
39840,text,0,1,1,,,,,,,,,,,,
39840,note_on,0,0,1,,,,,,,,,0,,74,85
39840,note_on,4,0,1,,,,,,,,,0,,83,0
39840,note_on,0,0,1,,,,,,,,,0,,76,0
39916,note_on,76,0,1,,,,,,,,,0,,81,0
39920,note_on,4,0,1,,,,,,,,,0,,80,85
39956,note_on,36,0,1,,,,,,,,,0,,80,0
39960,note_on,4,0,1,,,,,,,,,0,,81,85
39996,note_on,36,0,1,,,,,,,,,0,,81,0
40000,note_on,4,0,1,,,,,,,,,0,,80,85
40036,note_on,36,0,1,,,,,,,,,0,,80,0
40040,note_on,4,0,1,,,,,,,,,0,,81,85
40076,note_on,36,0,1,,,,,,,,,0,,81,0
40080,note_on,4,0,1,,,,,,,,,0,,80,85
40196,note_on,116,0,1,,,,,,,,,0,,80,0
40200,note_on,4,0,1,,,,,,,,,0,,78,85
40260,note_on,0,0,1,,,,,,,,,0,,80,85
40260,note_on,60,0,1,,,,,,,,,0,,78,0
40320,note_on,0,0,2,,,,,,,,,1,,60,85
40320,note_on,0,0,2,,,,,,,,,1,,52,85
40320,note_on,0,0,2,,,,,,,,,1,,48,85
40320,note_on,0,0,2,,,,,,,,,1,,56,0
40320,note_on,0,0,2,,,,,,,,,1,,50,0
40320,note_on,0,0,2,,,,,,,,,1,,47,0
40320,note_on,480,0,2,,,,,,,,,1,,59,0
40320,note_on,0,0,2,,,,,,,,,1,,57,85
40320,note_on,0,0,1,,,,,,,,,0,,69,85
40320,note_on,0,0,1,,,,,,,,,0,,76,85
40320,note_on,0,0,1,,,,,,,,,0,,72,85
40320,note_on,0,0,1,,,,,,,,,0,,81,85
40320,note_on,0,0,1,,,,,,,,,0,,74,0
40320,note_on,60,0,1,,,,,,,,,0,,80,0
40560,note_on,0,0,1,,,,,,,,,0,,81,0
40560,note_on,0,0,1,,,,,,,,,0,,64,85
40560,note_on,0,0,1,,,,,,,,,0,,68,85
40560,note_on,0,0,1,,,,,,,,,0,,71,85
40560,note_on,0,0,1,,,,,,,,,0,,76,85
40560,note_on,240,0,1,,,,,,,,,0,,76,0
40560,note_on,0,0,1,,,,,,,,,0,,69,0
40560,note_on,0,0,2,,,,,,,,,1,,47,85
40560,note_on,0,0,2,,,,,,,,,1,,48,0
40560,note_on,240,0,2,,,,,,,,,1,,60,0
40560,note_on,0,0,2,,,,,,,,,1,,56,85
40560,note_on,0,0,2,,,,,,,,,1,,52,85
40560,note_on,0,0,1,,,,,,,,,0,,72,0
40560,note_on,0,0,2,,,,,,,,,1,,57,0
40560,note_on,0,0,2,,,,,,,,,1,,44,85
40560,note_on,0,0,2,,,,,,,,,1,,52,0
40800,note_on,0,0,1,,,,,,,,,0,,71,0
40800,note_on,0,0,1,,,,,,,,,0,,68,0
40800,note_on,0,0,1,,,,,,,,,0,,64,0
40800,note_on,240,0,1,,,,,,,,,0,,76,0
40800,note_on,0,0,2,,,,,,,,,1,,44,0
40800,note_on,0,0,2,,,,,,,,,1,,47,0
40800,note_on,240,0,2,,,,,,,,,1,,56,0
40800,note_on,0,0,2,,,,,,,,,1,,52,0
41040,note_on,0,0,2,,,,,,,,,1,,48,85
41040,note_on,0,0,2,,,,,,,,,1,,52,85
41040,note_on,240,0,1,,,,,,,,,0,,72,85
41040,note_on,0,0,1,,,,,,,,,0,,69,85
41040,note_on,0,0,2,,,,,,,,,1,,57,85
41040,note_on,240,0,2,,,,,,,,,1,,45,85
41160,note_on,0,0,1,,,,,,,,,0,,74,85
41160,note_on,120,0,1,,,,,,,,,0,,72,0
41276,text,116,1,1,,,,,,,,,,,,
41280,note_on,0,0,1,,,,,,,,,0,,69,0
41280,note_on,0,0,1,,,,,,,,,0,,64,85
41280,note_on,0,0,1,,,,,,,,,0,,72,85
41280,note_on,240,0,2,,,,,,,,,1,,57,0
41280,note_on,4,0,1,,,,,,,,,0,,74,0
41280,note_on,0,0,2,,,,,,,,,1,,45,0
41280,note_on,0,0,2,,,,,,,,,1,,48,0
41280,text,0,1,1,,,,,,,,,,,,
41280,note_on,0,0,2,,,,,,,,,1,,52,85
41280,note_on,0,0,2,,,,,,,,,1,,56,85
41280,note_on,0,0,2,,,,,,,,,1,,59,85
41280,note_on,0,0,2,,,,,,,,,1,,52,0
41284,note_on,4,0,1,,,,,,,,,0,,68,85
41356,note_on,72,0,1,,,,,,,,,0,,72,0
41360,note_on,4,0,1,,,,,,,,,0,,71,85
41396,note_on,36,0,1,,,,,,,,,0,,71,0
41400,note_on,4,0,1,,,,,,,,,0,,72,85
41436,note_on,36,0,1,,,,,,,,,0,,72,0
41440,note_on,4,0,1,,,,,,,,,0,,71,85
41476,note_on,36,0,1,,,,,,,,,0,,71,0
41480,note_on,4,0,1,,,,,,,,,0,,72,85
41516,note_on,36,0,1,,,,,,,,,0,,72,0
41520,note_on,4,0,1,,,,,,,,,0,,71,85
41604,note_on,84,0,1,,,,,,,,,0,,68,0
41636,note_on,32,0,1,,,,,,,,,0,,71,0
41640,note_on,4,0,1,,,,,,,,,0,,69,85
41700,note_on,60,0,1,,,,,,,,,0,,69,0
41700,note_on,0,0,1,,,,,,,,,0,,71,85
41760,note_on,480,0,2,,,,,,,,,1,,59,0
41760,note_on,0,0,2,,,,,,,,,1,,56,0
41760,note_on,0,0,2,,,,,,,,,1,,52,0
41760,note_on,0,0,2,,,,,,,,,1,,57,85
41760,note_on,0,0,2,,,,,,,,,1,,60,85
41760,note_on,60,0,1,,,,,,,,,0,,71,0
41760,note_on,0,0,1,,,,,,,,,0,,64,0
41760,note_on,0,0,1,,,,,,,,,0,,69,85
41760,note_on,0,0,1,,,,,,,,,0,,64,85
41760,note_on,0,0,1,,,,,,,,,0,,72,85
42000,note_on,0,0,2,,,,,,,,,1,,57,85
42000,note_on,0,0,2,,,,,,,,,1,,52,85
42000,note_on,0,0,2,,,,,,,,,1,,48,85
42000,note_on,0,0,2,,,,,,,,,1,,45,85
42000,note_on,0,0,2,,,,,,,,,1,,57,0
42000,note_on,240,0,2,,,,,,,,,1,,60,0
42000,note_on,0,0,1,,,,,,,,,0,,69,85
42000,note_on,0,0,1,,,,,,,,,0,,60,85
42000,note_on,0,0,1,,,,,,,,,0,,69,0
42000,note_on,0,0,1,,,,,,,,,0,,64,0
42000,note_on,240,0,1,,,,,,,,,0,,72,0
42000,note_on,0,0,1,,,,,,,,,0,,64,85
42240,note_on,240,0,1,,,,,,,,,0,,64,0
42240,note_on,0,0,1,,,,,,,,,0,,60,0
42240,note_on,240,0,2,,,,,,,,,1,,57,0
42240,note_on,0,0,2,,,,,,,,,1,,45,0
42240,note_on,0,0,2,,,,,,,,,1,,48,0
42240,note_on,0,0,2,,,,,,,,,1,,52,0
42240,note_on,0,0,1,,,,,,,,,0,,69,0
42480,note_on,240,0,2,,,,,,,,,1,,50,85
42480,note_on,0,0,1,,,,,,,,,0,,77,85
42480,note_on,240,0,1,,,,,,,,,0,,69,85
42484,note_on,4,0,2,,,,,,,,,1,,62,85
42484,note_on,0,0,2,,,,,,,,,1,,57,85
42720,note_on,240,0,1,,,,,,,,,0,,77,0
42720,note_on,0,0,1,,,,,,,,,0,,76,85
42720,note_on,236,0,2,,,,,,,,,1,,50,0
42720,note_on,0,0,2,,,,,,,,,1,,53,85
42840,note_on,0,0,1,,,,,,,,,0,,74,85
42840,note_on,120,0,1,,,,,,,,,0,,76,0
42896,note_on,56,0,1,,,,,,,,,0,,69,0
42916,note_on,196,0,2,,,,,,,,,1,,57,0
42932,note_on,16,0,2,,,,,,,,,1,,62,0
42960,note_on,0,0,1,,,,,,,,,0,,72,85
42960,note_on,28,0,2,,,,,,,,,1,,53,0
42960,note_on,0,0,2,,,,,,,,,1,,50,85
42960,note_on,64,0,1,,,,,,,,,0,,74,0
43080,note_on,0,0,1,,,,,,,,,0,,71,85
43080,note_on,120,0,1,,,,,,,,,0,,72,0
43200,note_on,0,0,1,,,,,,,,,0,,69,85
43200,note_on,120,0,1,,,,,,,,,0,,71,0
43200,note_on,240,0,2,,,,,,,,,1,,50,0
43200,note_on,0,0,2,,,,,,,,,1,,52,85
43320,note_on,120,0,1,,,,,,,,,0,,69,0
43320,note_on,0,0,1,,,,,,,,,0,,68,85
43440,note_on,120,0,1,,,,,,,,,0,,68,0
43440,note_on,240,0,2,,,,,,,,,1,,52,0
43440,note_on,0,0,2,,,,,,,,,1,,48,85
43440,note_on,0,0,1,,,,,,,,,0,,66,85
43560,note_on,0,0,1,,,,,,,,,0,,64,85
43560,note_on,120,0,1,,,,,,,,,0,,66,0
43680,note_on,240,0,2,,,,,,,,,1,,48,0
43680,note_on,0,0,2,,,,,,,,,1,,57,85
43680,note_on,120,0,1,,,,,,,,,0,,64,0
43680,note_on,0,0,2,,,,,,,,,1,,53,85
43684,note_on,4,0,1,,,,,,,,,0,,74,85
43876,note_on,192,0,1,,,,,,,,,0,,74,0
43920,note_on,44,0,1,,,,,,,,,0,,72,85
43920,note_on,0,0,1,,,,,,,,,0,,65,85
43920,note_on,0,0,1,,,,,,,,,0,,69,85
43920,note_on,240,0,2,,,,,,,,,1,,57,0
43920,note_on,0,0,2,,,,,,,,,1,,50,85
43920,note_on,0,0,2,,,,,,,,,1,,53,0
44040,note_on,120,0,1,,,,,,,,,0,,72,0
44040,note_on,0,0,1,,,,,,,,,0,,71,85
44160,note_on,120,0,1,,,,,,,,,0,,71,0
44160,note_on,0,0,1,,,,,,,,,0,,64,85
44160,note_on,0,0,1,,,,,,,,,0,,65,0
44160,note_on,0,0,1,,,,,,,,,0,,69,85
44160,note_on,0,0,1,,,,,,,,,0,,69,0
44160,note_on,240,0,2,,,,,,,,,1,,50,0
44160,note_on,0,0,2,,,,,,,,,1,,52,85
44164,note_on,4,0,1,,,,,,,,,0,,72,85
44388,note_on,224,0,1,,,,,,,,,0,,72,0
44400,note_on,240,0,2,,,,,,,,,1,,52,0
44400,note_on,0,0,2,,,,,,,,,1,,40,85
44400,note_on,12,0,1,,,,,,,,,0,,69,0
44400,note_on,0,0,1,,,,,,,,,0,,64,0
44400,note_on,0,0,1,,,,,,,,,0,,71,85
44400,note_on,0,0,1,,,,,,,,,0,,62,85
44416,note_on,16,0,1,,,,,,,,,0,,68,85
44520,note_on,104,0,1,,,,,,,,,0,,71,0
44520,note_on,0,0,1,,,,,,,,,0,,69,85
44612,set_tempo,5028,1,0,,,,,,983607,,,,,,
44624,note_on,104,0,1,,,,,,,,,0,,68,0
44640,note_on,0,0,2,,,,,,,,,1,,45,85
44640,note_on,240,0,2,,,,,,,,,1,,40,0
44640,note_on,0,0,1,,,,,,,,,0,,62,0
44640,note_on,0,0,1,,,,,,,,,0,,61,85
44640,note_on,16,0,1,,,,,,,,,0,,69,0
44656,note_on,16,0,1,,,,,,,,,0,,64,85
44656,note_on,16,0,2,,,,,,,,,1,,52,85
44672,note_on,16,0,1,,,,,,,,,0,,69,85
44672,note_on,16,0,2,,,,,,,,,1,,57,85
45232,note_on,560,0,1,,,,,,,,,0,,69,0
45344,note_on,112,0,1,,,,,,,,,0,,64,0
45344,note_on,0,0,2,,,,,,,,,1,,45,0
45344,note_on,672,0,2,,,,,,,,,1,,52,0
45344,note_on,0,0,1,,,,,,,,,0,,61,0
45356,note_on,12,0,2,,,,,,,,,1,,50,85
45356,set_tempo,744,1,0,,,,,,600000,,,,,,
45356,note_on,0,0,2,,,,,,,,,1,,53,85
45356,note_on,0,0,2,,,,,,,,,1,,57,85
45356,note_on,0,0,2,,,,,,,,,1,,62,85
45356,note_on,12,0,1,,,,,,,,,0,,74,85
45360,note_on,4,0,1,,,,,,,,,0,,65,85
45360,note_on,4,0,2,,,,,,,,,1,,57,0
45456,note_on,96,0,1,,,,,,,,,0,,65,0
45468,note_on,12,0,1,,,,,,,,,0,,69,85
45476,note_on,116,0,2,,,,,,,,,1,,62,0
45476,note_on,8,0,1,,,,,,,,,0,,74,0
45476,note_on,0,0,1,,,,,,,,,0,,76,85
45532,note_on,56,0,1,,,,,,,,,0,,69,0
45592,text,60,1,1,,,,,,,,,,,,
45596,note_on,0,0,1,,,,,,,,,0,,67,85
45596,note_on,0,0,2,,,,,,,,,1,,55,85
45596,note_on,120,0,2,,,,,,,,,1,,50,0
45596,note_on,0,0,2,,,,,,,,,1,,53,0
45596,note_on,0,0,2,,,,,,,,,1,,57,0
45596,note_on,0,0,2,,,,,,,,,1,,52,85
45596,note_on,0,0,2,,,,,,,,,1,,61,85
45596,note_on,4,0,1,,,,,,,,,0,,76,0
45596,note_on,0,0,1,,,,,,,,,0,,74,85
45596,text,0,1,1,,,,,,,,,,,,
45672,note_on,76,0,1,,,,,,,,,0,,74,0
45676,note_on,4,0,1,,,,,,,,,0,,73,85
45712,note_on,36,0,1,,,,,,,,,0,,73,0
45716,note_on,4,0,1,,,,,,,,,0,,74,85
45752,note_on,36,0,1,,,,,,,,,0,,74,0
45756,note_on,4,0,1,,,,,,,,,0,,73,85
45792,note_on,36,0,1,,,,,,,,,0,,73,0
45796,note_on,4,0,1,,,,,,,,,0,,74,85
45832,note_on,36,0,1,,,,,,,,,0,,74,0
45836,note_on,4,0,1,,,,,,,,,0,,73,85
45952,note_on,116,0,1,,,,,,,,,0,,73,0
45996,note_on,44,0,1,,,,,,,,,0,,71,85
46012,note_on,16,0,1,,,,,,,,,0,,67,0
46016,note_on,4,0,1,,,,,,,,,0,,73,85
46056,note_on,40,0,1,,,,,,,,,0,,71,0
46076,note_on,480,0,2,,,,,,,,,1,,61,0
46076,note_on,0,0,2,,,,,,,,,1,,52,0
46076,note_on,0,0,2,,,,,,,,,1,,55,0
46076,note_on,0,0,2,,,,,,,,,1,,57,85
46076,note_on,0,0,2,,,,,,,,,1,,53,85
46076,note_on,20,0,1,,,,,,,,,0,,73,0
46076,note_on,0,0,1,,,,,,,,,0,,65,85
46076,note_on,0,0,1,,,,,,,,,0,,69,85
46076,note_on,0,0,1,,,,,,,,,0,,74,85
46196,note_on,0,0,1,,,,,,,,,0,,69,0
46196,note_on,120,0,2,,,,,,,,,1,,57,0
46196,note_on,120,0,1,,,,,,,,,0,,74,0
46316,note_on,120,0,2,,,,,,,,,1,,53,0
46316,note_on,0,0,1,,,,,,,,,0,,69,85
46316,note_on,0,0,1,,,,,,,,,0,,64,85
46316,note_on,0,0,2,,,,,,,,,1,,52,85
46316,note_on,120,0,1,,,,,,,,,0,,65,0
46316,note_on,0,0,2,,,,,,,,,1,,57,85
46316,note_on,0,0,1,,,,,,,,,0,,61,85
46316,note_on,0,0,2,,,,,,,,,1,,49,85
46556,note_on,240,0,1,,,,,,,,,0,,69,0
46556,note_on,0,0,1,,,,,,,,,0,,61,0
46556,note_on,0,0,1,,,,,,,,,0,,64,0
46556,note_on,240,0,2,,,,,,,,,1,,57,0
46556,note_on,0,0,2,,,,,,,,,1,,52,0
46556,note_on,0,0,2,,,,,,,,,1,,49,0
46796,note_on,0,0,1,,,,,,,,,0,,77,85
46796,note_on,0,0,1,,,,,,,,,0,,74,85
46796,note_on,240,0,1,,,,,,,,,0,,69,85
46796,note_on,240,0,2,,,,,,,,,1,,50,85
46796,note_on,0,0,2,,,,,,,,,1,,53,85
46796,note_on,0,0,2,,,,,,,,,1,,57,85
46796,note_on,0,0,2,,,,,,,,,1,,62,85
46916,note_on,0,0,1,,,,,,,,,0,,79,85
46916,note_on,0,0,1,,,,,,,,,0,,74,0
46916,note_on,0,0,1,,,,,,,,,0,,69,0
46916,note_on,120,0,1,,,,,,,,,0,,77,0
47032,text,116,1,1,,,,,,,,,,,,
47036,note_on,0,0,2,,,,,,,,,1,,53,0
47036,note_on,0,0,2,,,,,,,,,1,,57,0
47036,note_on,0,0,2,,,,,,,,,1,,57,85
47036,note_on,240,0,2,,,,,,,,,1,,62,0
47036,note_on,0,0,2,,,,,,,,,1,,50,0
47036,note_on,0,0,2,,,,,,,,,1,,61,85
47036,note_on,0,0,1,,,,,,,,,0,,69,85
47036,note_on,4,0,1,,,,,,,,,0,,79,0
47036,text,0,1,1,,,,,,,,,,,,
47036,note_on,0,0,2,,,,,,,,,1,,64,85
47036,note_on,0,0,1,,,,,,,,,0,,73,85
47036,note_on,0,0,1,,,,,,,,,0,,77,85
47112,note_on,76,0,1,,,,,,,,,0,,77,0
47116,note_on,4,0,1,,,,,,,,,0,,76,85
47152,note_on,36,0,1,,,,,,,,,0,,76,0
47156,note_on,4,0,1,,,,,,,,,0,,77,85
47192,note_on,36,0,1,,,,,,,,,0,,77,0
47196,note_on,4,0,1,,,,,,,,,0,,76,85
47232,note_on,36,0,1,,,,,,,,,0,,76,0
47236,note_on,4,0,1,,,,,,,,,0,,77,85
47272,note_on,36,0,1,,,,,,,,,0,,77,0
47276,note_on,4,0,1,,,,,,,,,0,,76,85
47392,note_on,116,0,1,,,,,,,,,0,,76,0
47396,note_on,4,0,1,,,,,,,,,0,,74,85
47456,note_on,0,0,1,,,,,,,,,0,,76,85
47456,note_on,60,0,1,,,,,,,,,0,,74,0
47516,note_on,0,0,1,,,,,,,,,0,,77,85
47516,note_on,480,0,2,,,,,,,,,1,,64,0
47516,note_on,0,0,2,,,,,,,,,1,,61,0
47516,note_on,0,0,2,,,,,,,,,1,,57,0
47516,note_on,60,0,1,,,,,,,,,0,,76,0
47516,note_on,0,0,1,,,,,,,,,0,,73,0
47516,note_on,0,0,1,,,,,,,,,0,,69,0
47516,note_on,0,0,2,,,,,,,,,1,,62,85
47516,note_on,0,0,1,,,,,,,,,0,,74,85
47516,note_on,0,0,1,,,,,,,,,0,,69,85
47516,note_on,0,0,2,,,,,,,,,1,,62,85
47692,note_on,0,0,1,,,,,,,,,0,,77,0
47692,note_on,176,0,1,,,,,,,,,0,,69,0
47692,note_on,176,0,2,,,,,,,,,1,,62,0
47692,note_on,0,0,1,,,,,,,,,0,,74,0
47708,note_on,16,0,2,,,,,,,,,1,,62,0
47756,note_on,48,0,2,,,,,,,,,1,,50,85
47756,note_on,0,0,1,,,,,,,,,0,,65,85
47756,note_on,64,0,1,,,,,,,,,0,,74,85
47756,note_on,0,0,2,,,,,,,,,1,,53,85
47756,note_on,0,0,2,,,,,,,,,1,,62,85
47756,note_on,0,0,2,,,,,,,,,1,,57,85
47756,note_on,0,0,1,,,,,,,,,0,,69,85
47996,note_on,0,0,2,,,,,,,,,1,,62,0
47996,note_on,0,0,2,,,,,,,,,1,,53,0
47996,note_on,240,0,2,,,,,,,,,1,,57,0
47996,note_on,0,0,2,,,,,,,,,1,,50,0
47996,note_on,240,0,1,,,,,,,,,0,,69,0
47996,note_on,0,0,1,,,,,,,,,0,,65,0
47996,note_on,0,0,1,,,,,,,,,0,,74,0
48236,note_on,0,0,1,,,,,,,,,0,,82,85
48236,note_on,0,0,2,,,,,,,,,1,,65,85
48236,note_on,240,0,2,,,,,,,,,1,,62,85
48236,note_on,240,0,1,,,,,,,,,0,,74,85
48236,note_on,0,0,1,,,,,,,,,0,,77,85
48236,note_on,0,0,1,,,,,,,,,0,,70,85
48476,note_on,0,0,1,,,,,,,,,0,,72,85
48476,note_on,240,0,1,,,,,,,,,0,,82,0
48476,note_on,0,0,1,,,,,,,,,0,,74,0
48476,note_on,240,0,2,,,,,,,,,1,,65,0
48476,note_on,0,0,2,,,,,,,,,1,,62,0
48476,note_on,0,0,1,,,,,,,,,0,,70,0
48476,note_on,0,0,1,,,,,,,,,0,,77,0
48476,note_on,0,0,2,,,,,,,,,1,,64,85
48476,note_on,0,0,2,,,,,,,,,1,,60,85
48476,note_on,0,0,1,,,,,,,,,0,,76,85
48480,note_on,4,0,1,,,,,,,,,0,,82,85
48672,note_on,192,0,1,,,,,,,,,0,,82,0
48716,note_on,44,0,1,,,,,,,,,0,,81,85
48836,note_on,120,0,1,,,,,,,,,0,,81,0
48836,note_on,0,0,1,,,,,,,,,0,,82,85
48952,text,116,1,1,,,,,,,,,,,,
48956,text,0,1,1,,,,,,,,,,,,
48956,note_on,0,0,1,,,,,,,,,0,,74,85
48956,note_on,0,0,1,,,,,,,,,0,,81,85
48956,note_on,0,0,1,,,,,,,,,0,,70,85
48956,note_on,0,0,1,,,,,,,,,0,,76,0
48956,note_on,4,0,1,,,,,,,,,0,,82,0
48956,note_on,0,0,1,,,,,,,,,0,,72,0
48956,note_on,0,0,2,,,,,,,,,1,,67,85
48956,note_on,0,0,2,,,,,,,,,1,,62,85
48956,note_on,0,0,2,,,,,,,,,1,,58,85
48956,note_on,0,0,2,,,,,,,,,1,,60,0
48956,note_on,480,0,2,,,,,,,,,1,,64,0
49032,note_on,76,0,1,,,,,,,,,0,,81,0
49036,note_on,4,0,1,,,,,,,,,0,,79,85
49072,note_on,36,0,1,,,,,,,,,0,,79,0
49076,note_on,4,0,1,,,,,,,,,0,,81,85
49112,note_on,36,0,1,,,,,,,,,0,,81,0
49116,note_on,4,0,1,,,,,,,,,0,,79,85
49152,note_on,36,0,1,,,,,,,,,0,,79,0
49156,note_on,4,0,1,,,,,,,,,0,,81,85
49192,note_on,36,0,1,,,,,,,,,0,,81,0
49196,note_on,4,0,1,,,,,,,,,0,,79,85
49432,note_on,236,0,1,,,,,,,,,0,,79,0
49436,note_on,0,0,1,,,,,,,,,0,,69,85
49436,note_on,4,0,1,,,,,,,,,0,,74,0
49436,note_on,0,0,1,,,,,,,,,0,,70,0
49436,note_on,0,0,2,,,,,,,,,1,,57,85
49436,note_on,0,0,1,,,,,,,,,0,,72,85
49436,note_on,0,0,1,,,,,,,,,0,,77,85
49436,note_on,0,0,2,,,,,,,,,1,,58,0
49436,note_on,0,0,2,,,,,,,,,1,,65,85
49436,note_on,0,0,2,,,,,,,,,1,,62,0
49436,note_on,480,0,2,,,,,,,,,1,,67,0
49436,note_on,0,0,2,,,,,,,,,1,,60,85
49676,note_on,0,0,2,,,,,,,,,1,,64,85
49676,note_on,0,0,2,,,,,,,,,1,,58,85
49676,note_on,0,0,2,,,,,,,,,1,,55,85
49676,note_on,240,0,2,,,,,,,,,1,,65,0
49676,note_on,0,0,2,,,,,,,,,1,,60,0
49676,note_on,240,0,1,,,,,,,,,0,,77,0
49676,note_on,0,0,1,,,,,,,,,0,,72,0
49676,note_on,0,0,1,,,,,,,,,0,,69,0
49676,note_on,0,0,1,,,,,,,,,0,,67,85
49676,note_on,0,0,1,,,,,,,,,0,,70,85
49676,note_on,0,0,1,,,,,,,,,0,,76,85
49676,note_on,0,0,2,,,,,,,,,1,,57,0
49916,note_on,0,0,1,,,,,,,,,0,,74,85
49916,note_on,0,0,2,,,,,,,,,1,,58,85
49916,note_on,0,0,2,,,,,,,,,1,,58,0
49916,note_on,0,0,2,,,,,,,,,1,,55,0
49916,note_on,0,0,1,,,,,,,,,0,,67,85
49916,note_on,0,0,2,,,,,,,,,1,,62,85
49916,note_on,0,0,2,,,,,,,,,1,,64,85
49916,note_on,240,0,1,,,,,,,,,0,,76,0
49916,note_on,0,0,1,,,,,,,,,0,,70,0
49916,note_on,0,0,1,,,,,,,,,0,,67,0
49916,note_on,240,0,2,,,,,,,,,1,,64,0
50096,note_on,0,0,1,,,,,,,,,0,,73,85
50096,note_on,180,0,1,,,,,,,,,0,,74,0
50156,note_on,0,0,1,,,,,,,,,0,,74,85
50156,note_on,60,0,1,,,,,,,,,0,,73,0
50276,note_on,120,0,1,,,,,,,,,0,,74,0
50276,note_on,0,0,1,,,,,,,,,0,,76,85
50392,text,116,1,1,,,,,,,,,,,,
50396,note_on,0,0,2,,,,,,,,,1,,58,0
50396,note_on,4,0,1,,,,,,,,,0,,76,0
50396,note_on,0,0,1,,,,,,,,,0,,67,0
50396,note_on,0,0,1,,,,,,,,,0,,69,85
50396,note_on,0,0,1,,,,,,,,,0,,74,85
50396,text,0,1,1,,,,,,,,,,,,
50396,note_on,0,0,2,,,,,,,,,1,,62,0
50396,note_on,480,0,2,,,,,,,,,1,,64,0
50396,note_on,0,0,2,,,,,,,,,1,,57,85
50396,note_on,0,0,2,,,,,,,,,1,,64,85
50472,note_on,76,0,1,,,,,,,,,0,,74,0
50476,note_on,4,0,1,,,,,,,,,0,,73,85
50512,note_on,36,0,1,,,,,,,,,0,,73,0
50516,note_on,4,0,1,,,,,,,,,0,,74,85
50552,note_on,36,0,1,,,,,,,,,0,,74,0
50556,note_on,4,0,1,,,,,,,,,0,,73,85
50592,note_on,36,0,1,,,,,,,,,0,,73,0
50596,note_on,4,0,1,,,,,,,,,0,,74,85
50632,note_on,36,0,1,,,,,,,,,0,,74,0
50636,note_on,4,0,1,,,,,,,,,0,,73,85
50876,note_on,240,0,1,,,,,,,,,0,,69,0
51112,note_on,236,0,1,,,,,,,,,0,,73,0
51116,note_on,0,0,2,,,,,,,,,1,,57,85
51116,note_on,0,0,2,,,,,,,,,1,,61,85
51116,note_on,0,0,1,,,,,,,,,0,,76,85
51116,note_on,0,0,2,,,,,,,,,1,,57,0
51116,note_on,720,0,2,,,,,,,,,1,,64,0
51116,note_on,4,0,1,,,,,,,,,0,,69,85
51116,note_on,0,0,1,,,,,,,,,0,,73,85
51356,note_on,240,0,2,,,,,,,,,1,,61,0
51356,note_on,0,0,2,,,,,,,,,1,,57,0
51356,note_on,0,0,2,,,,,,,,,1,,53,85
51356,note_on,0,0,2,,,,,,,,,1,,62,85
51356,note_on,0,0,1,,,,,,,,,0,,73,0
51356,note_on,0,0,1,,,,,,,,,0,,74,85
51356,note_on,240,0,1,,,,,,,,,0,,76,0
51356,note_on,0,0,1,,,,,,,,,0,,69,0
51356,note_on,0,0,1,,,,,,,,,0,,77,85
51476,note_on,120,0,1,,,,,,,,,0,,74,0
51476,note_on,0,0,1,,,,,,,,,0,,77,0
51476,note_on,0,0,1,,,,,,,,,0,,76,85
51476,note_on,0,0,1,,,,,,,,,0,,73,85
51596,note_on,240,0,2,,,,,,,,,1,,53,0
51596,note_on,0,0,2,,,,,,,,,1,,50,85
51596,note_on,0,0,1,,,,,,,,,0,,74,85
51596,note_on,0,0,1,,,,,,,,,0,,77,85
51596,note_on,0,0,1,,,,,,,,,0,,76,0
51596,note_on,120,0,1,,,,,,,,,0,,73,0
51716,note_on,120,0,1,,,,,,,,,0,,74,0
51716,note_on,0,0,1,,,,,,,,,0,,79,85
51716,note_on,0,0,1,,,,,,,,,0,,76,85
51716,note_on,0,0,1,,,,,,,,,0,,77,0
51772,note_on,176,0,2,,,,,,,,,1,,62,0
51824,set_tempo,6468,1,0,,,,,,705882,,,,,,
51836,note_on,64,0,2,,,,,,,,,1,,50,0
51836,note_on,0,0,2,,,,,,,,,1,,57,85
51836,note_on,0,0,2,,,,,,,,,1,,64,85
51836,note_on,0,0,1,,,,,,,,,0,,79,0
51836,note_on,120,0,1,,,,,,,,,0,,76,0
51836,note_on,0,0,1,,,,,,,,,0,,77,85
51836,note_on,0,0,1,,,,,,,,,0,,74,85
51852,note_on,16,0,1,,,,,,,,,0,,69,85
51852,note_on,16,0,2,,,,,,,,,1,,61,85
51896,text,44,1,1,,,,,,,,,,,,
51900,note_on,0,0,1,,,,,,,,,0,,73,85
51900,note_on,4,0,1,,,,,,,,,0,,74,0
51900,note_on,0,0,1,,,,,,,,,0,,77,85
51900,text,0,1,1,,,,,,,,,,,,
51900,note_on,0,0,1,,,,,,,,,0,,77,0
51976,note_on,76,0,1,,,,,,,,,0,,77,0
51980,note_on,4,0,1,,,,,,,,,0,,76,85
52016,note_on,36,0,1,,,,,,,,,0,,76,0
52020,note_on,4,0,1,,,,,,,,,0,,77,85
52056,note_on,36,0,1,,,,,,,,,0,,77,0
52060,note_on,4,0,1,,,,,,,,,0,,76,85
52096,note_on,36,0,1,,,,,,,,,0,,76,0
52100,note_on,4,0,1,,,,,,,,,0,,77,85
52136,note_on,36,0,1,,,,,,,,,0,,77,0
52140,note_on,4,0,1,,,,,,,,,0,,76,85
52376,note_on,236,0,1,,,,,,,,,0,,76,0
52492,note_on,116,0,1,,,,,,,,,0,,73,0
52512,note_on,20,0,1,,,,,,,,,0,,69,0
52524,note_on,672,0,2,,,,,,,,,1,,64,0
52524,note_on,0,0,2,,,,,,,,,1,,57,0
52540,note_on,16,0,2,,,,,,,,,1,,61,0
52556,note_on,44,0,1,,,,,,,,,0,,73,85
52556,set_tempo,732,1,0,,,,,,461538,,,,,,
52556,marker,0,1,0,,,,,,,,,,,,
52556,note_on,16,0,2,,,,,,,,,1,,57,85
52676,note_on,0,0,1,,,,,,,,,0,,69,85
52676,note_on,120,0,1,,,,,,,,,0,,73,0
52796,note_on,120,0,1,,,,,,,,,0,,69,0
52796,note_on,0,0,1,,,,,,,,,0,,73,85
52796,note_on,240,0,2,,,,,,,,,1,,57,0
52796,note_on,0,0,2,,,,,,,,,1,,45,85
52916,note_on,0,0,1,,,,,,,,,0,,76,85
52916,note_on,120,0,1,,,,,,,,,0,,73,0
53036,note_on,120,0,1,,,,,,,,,0,,76,0
53036,note_on,0,0,2,,,,,,,,,1,,49,85
53036,note_on,240,0,2,,,,,,,,,1,,45,0
53036,note_on,0,0,1,,,,,,,,,0,,81,85
53156,note_on,120,0,1,,,,,,,,,0,,81,0
53156,note_on,0,0,1,,,,,,,,,0,,76,85
53276,note_on,120,0,1,,,,,,,,,0,,76,0
53276,note_on,0,0,1,,,,,,,,,0,,77,85
53276,note_on,240,0,2,,,,,,,,,1,,49,0
53276,note_on,0,0,2,,,,,,,,,1,,50,85
53396,note_on,0,0,1,,,,,,,,,0,,81,85
53396,note_on,120,0,1,,,,,,,,,0,,77,0
53516,note_on,0,0,1,,,,,,,,,0,,77,85
53516,note_on,120,0,1,,,,,,,,,0,,81,0
53516,note_on,240,0,2,,,,,,,,,1,,50,0
53516,note_on,0,0,2,,,,,,,,,1,,52,85
53636,note_on,120,0,1,,,,,,,,,0,,77,0
53636,note_on,0,0,1,,,,,,,,,0,,74,85
53756,note_on,0,0,2,,,,,,,,,1,,53,85
53756,note_on,240,0,2,,,,,,,,,1,,52,0
53756,note_on,0,0,1,,,,,,,,,0,,69,85
53756,note_on,120,0,1,,,,,,,,,0,,74,0
53876,note_on,120,0,1,,,,,,,,,0,,69,0
53876,note_on,0,0,1,,,,,,,,,0,,72,85
53996,note_on,240,0,2,,,,,,,,,1,,53,0
53996,note_on,0,0,2,,,,,,,,,1,,55,85
53996,note_on,120,0,1,,,,,,,,,0,,72,0
53996,note_on,0,0,1,,,,,,,,,0,,71,85
54116,note_on,0,0,1,,,,,,,,,0,,67,85
54116,note_on,120,0,1,,,,,,,,,0,,71,0
54236,note_on,120,0,1,,,,,,,,,0,,67,0
54236,note_on,0,0,1,,,,,,,,,0,,71,85
54236,note_on,0,0,2,,,,,,,,,1,,43,85
54236,note_on,240,0,2,,,,,,,,,1,,55,0
54356,note_on,0,0,1,,,,,,,,,0,,74,85
54356,note_on,120,0,1,,,,,,,,,0,,71,0
54476,note_on,0,0,1,,,,,,,,,0,,79,85
54476,note_on,120,0,1,,,,,,,,,0,,74,0
54476,note_on,0,0,2,,,,,,,,,1,,47,85
54476,note_on,240,0,2,,,,,,,,,1,,43,0
54596,note_on,0,0,1,,,,,,,,,0,,74,85
54596,note_on,120,0,1,,,,,,,,,0,,79,0
54716,note_on,0,0,1,,,,,,,,,0,,76,85
54716,note_on,240,0,2,,,,,,,,,1,,47,0
54716,note_on,0,0,2,,,,,,,,,1,,48,85
54716,note_on,120,0,1,,,,,,,,,0,,74,0
54836,note_on,120,0,1,,,,,,,,,0,,76,0
54836,note_on,0,0,1,,,,,,,,,0,,79,85
54956,note_on,120,0,1,,,,,,,,,0,,79,0
54956,note_on,0,0,1,,,,,,,,,0,,76,85
54956,note_on,0,0,2,,,,,,,,,1,,50,85
54956,note_on,240,0,2,,,,,,,,,1,,48,0
55076,note_on,120,0,1,,,,,,,,,0,,76,0
55076,note_on,0,0,1,,,,,,,,,0,,72,85
55196,note_on,120,0,1,,,,,,,,,0,,72,0
55196,note_on,0,0,1,,,,,,,,,0,,67,85
55196,note_on,240,0,2,,,,,,,,,1,,50,0
55196,note_on,0,0,2,,,,,,,,,1,,52,85
55316,note_on,120,0,1,,,,,,,,,0,,67,0
55316,note_on,0,0,1,,,,,,,,,0,,71,85
55436,note_on,120,0,1,,,,,,,,,0,,71,0
55436,note_on,0,0,2,,,,,,,,,1,,53,85
55436,note_on,240,0,2,,,,,,,,,1,,52,0
55436,note_on,0,0,1,,,,,,,,,0,,69,85
55556,note_on,0,0,1,,,,,,,,,0,,72,85
55556,note_on,120,0,1,,,,,,,,,0,,69,0
55676,note_on,120,0,1,,,,,,,,,0,,72,0
55676,note_on,0,0,1,,,,,,,,,0,,77,85
55676,note_on,240,0,2,,,,,,,,,1,,53,0
55676,note_on,0,0,2,,,,,,,,,1,,57,85
55796,note_on,120,0,1,,,,,,,,,0,,77,0
55796,note_on,0,0,1,,,,,,,,,0,,76,85
55916,note_on,0,0,2,,,,,,,,,1,,53,85
55916,note_on,120,0,1,,,,,,,,,0,,76,0
55916,note_on,240,0,2,,,,,,,,,1,,57,0
55916,note_on,0,0,1,,,,,,,,,0,,74,85
56036,note_on,0,0,1,,,,,,,,,0,,72,85
56036,note_on,120,0,1,,,,,,,,,0,,74,0
56156,note_on,240,0,2,,,,,,,,,1,,53,0
56156,note_on,120,0,1,,,,,,,,,0,,72,0
56156,note_on,0,0,2,,,,,,,,,1,,47,85
56156,note_on,0,0,1,,,,,,,,,0,,74,85
56276,note_on,120,0,1,,,,,,,,,0,,74,0
56276,note_on,0,0,1,,,,,,,,,0,,72,85
56396,note_on,120,0,1,,,,,,,,,0,,72,0
56396,note_on,0,0,1,,,,,,,,,0,,71,85
56396,note_on,240,0,2,,,,,,,,,1,,47,0
56396,note_on,0,0,2,,,,,,,,,1,,50,85
56516,note_on,0,0,1,,,,,,,,,0,,69,85
56516,note_on,120,0,1,,,,,,,,,0,,71,0
56636,note_on,240,0,2,,,,,,,,,1,,50,0
56636,note_on,0,0,2,,,,,,,,,1,,47,85
56636,note_on,120,0,1,,,,,,,,,0,,69,0
56636,note_on,0,0,1,,,,,,,,,0,,68,85
56756,note_on,120,0,1,,,,,,,,,0,,68,0
56756,note_on,0,0,1,,,,,,,,,0,,66,85
56876,note_on,240,0,2,,,,,,,,,1,,47,0
56876,note_on,120,0,1,,,,,,,,,0,,66,0
56876,note_on,0,0,1,,,,,,,,,0,,64,85
56876,note_on,0,0,2,,,,,,,,,1,,56,85
56996,note_on,0,0,1,,,,,,,,,0,,71,85
56996,note_on,120,0,1,,,,,,,,,0,,64,0
57116,note_on,0,0,1,,,,,,,,,0,,76,85
57116,note_on,120,0,1,,,,,,,,,0,,71,0
57116,note_on,0,0,2,,,,,,,,,1,,52,85
57116,note_on,240,0,2,,,,,,,,,1,,56,0
57236,note_on,120,0,1,,,,,,,,,0,,76,0
57236,note_on,0,0,1,,,,,,,,,0,,74,85
57356,note_on,0,0,2,,,,,,,,,1,,56,85
57356,note_on,120,0,1,,,,,,,,,0,,74,0
57356,note_on,0,0,1,,,,,,,,,0,,72,85
57356,note_on,240,0,2,,,,,,,,,1,,52,0
57476,note_on,120,0,1,,,,,,,,,0,,72,0
57476,note_on,0,0,1,,,,,,,,,0,,71,85
57596,note_on,240,0,2,,,,,,,,,1,,56,0
57596,note_on,0,0,2,,,,,,,,,1,,57,85
57596,note_on,0,0,1,,,,,,,,,0,,72,85
57596,note_on,120,0,1,,,,,,,,,0,,71,0
57716,note_on,120,0,1,,,,,,,,,0,,72,0
57716,note_on,0,0,1,,,,,,,,,0,,76,85
57836,note_on,0,0,1,,,,,,,,,0,,71,85
57836,note_on,0,0,2,,,,,,,,,1,,55,85
57836,note_on,240,0,2,,,,,,,,,1,,57,0
57836,note_on,120,0,1,,,,,,,,,0,,76,0
57956,note_on,0,0,1,,,,,,,,,0,,76,85
57956,note_on,120,0,1,,,,,,,,,0,,71,0
58076,note_on,0,0,2,,,,,,,,,1,,53,85
58076,note_on,240,0,2,,,,,,,,,1,,55,0
58076,note_on,120,0,1,,,,,,,,,0,,76,0
58076,note_on,0,0,1,,,,,,,,,0,,69,85
58196,note_on,120,0,1,,,,,,,,,0,,69,0
58196,note_on,0,0,1,,,,,,,,,0,,76,85
58316,note_on,120,0,1,,,,,,,,,0,,76,0
58316,note_on,0,0,1,,,,,,,,,0,,68,85
58316,note_on,240,0,2,,,,,,,,,1,,53,0
58316,note_on,0,0,2,,,,,,,,,1,,52,85
58436,note_on,0,0,1,,,,,,,,,0,,76,85
58436,note_on,120,0,1,,,,,,,,,0,,68,0
58556,note_on,0,0,1,,,,,,,,,0,,69,85
58556,note_on,120,0,1,,,,,,,,,0,,76,0
58556,note_on,0,0,2,,,,,,,,,1,,54,85
58556,note_on,240,0,2,,,,,,,,,1,,52,0
58676,note_on,120,0,1,,,,,,,,,0,,69,0
58676,note_on,0,0,1,,,,,,,,,0,,76,85
58796,note_on,0,0,2,,,,,,,,,1,,56,85
58796,note_on,120,0,1,,,,,,,,,0,,76,0
58796,note_on,0,0,1,,,,,,,,,0,,71,85
58796,note_on,240,0,2,,,,,,,,,1,,54,0
58916,note_on,0,0,1,,,,,,,,,0,,76,85
58916,note_on,120,0,1,,,,,,,,,0,,71,0
59036,note_on,240,0,2,,,,,,,,,1,,56,0
59036,note_on,0,0,2,,,,,,,,,1,,57,85
59036,note_on,0,0,1,,,,,,,,,0,,72,85
59036,note_on,120,0,1,,,,,,,,,0,,76,0
59156,note_on,120,0,1,,,,,,,,,0,,72,0
59156,note_on,0,0,1,,,,,,,,,0,,64,85
59276,note_on,120,0,1,,,,,,,,,0,,64,0
59276,note_on,240,0,2,,,,,,,,,1,,57,0
59276,note_on,0,0,2,,,,,,,,,1,,55,85
59276,note_on,0,0,1,,,,,,,,,0,,71,85
59396,note_on,0,0,1,,,,,,,,,0,,64,85
59396,note_on,120,0,1,,,,,,,,,0,,71,0
59516,note_on,120,0,1,,,,,,,,,0,,64,0
59516,note_on,0,0,1,,,,,,,,,0,,69,85
59516,note_on,240,0,2,,,,,,,,,1,,55,0
59516,note_on,0,0,2,,,,,,,,,1,,53,85
59636,note_on,0,0,1,,,,,,,,,0,,64,85
59636,note_on,120,0,1,,,,,,,,,0,,69,0
59736,set_tempo,7180,1,0,,,,,,461538,,,,,,
59756,note_on,0,0,2,,,,,,,,,1,,52,85
59756,note_on,120,0,1,,,,,,,,,0,,64,0
59756,note_on,0,0,1,,,,,,,,,0,,68,85
59756,note_on,240,0,2,,,,,,,,,1,,53,0
59876,note_on,0,0,1,,,,,,,,,0,,64,85
59876,note_on,120,0,1,,,,,,,,,0,,68,0
59996,note_on,240,0,2,,,,,,,,,1,,52,0
59996,note_on,0,0,2,,,,,,,,,1,,54,85
59996,note_on,0,0,1,,,,,,,,,0,,69,85
59996,note_on,120,0,1,,,,,,,,,0,,64,0
60116,note_on,0,0,1,,,,,,,,,0,,64,85
60116,note_on,120,0,1,,,,,,,,,0,,69,0
60236,note_on,0,0,2,,,,,,,,,1,,56,85
60236,note_on,240,0,2,,,,,,,,,1,,54,0
60236,note_on,0,0,1,,,,,,,,,0,,71,85
60236,note_on,120,0,1,,,,,,,,,0,,64,0
60356,note_on,120,0,1,,,,,,,,,0,,71,0
60356,note_on,0,0,1,,,,,,,,,0,,64,85
60476,note_on,0,0,2,,,,,,,,,1,,57,85
60476,note_on,0,0,1,,,,,,,,,0,,72,85
60476,note_on,240,0,2,,,,,,,,,1,,56,0
60476,note_on,120,0,1,,,,,,,,,0,,64,0
60596,note_on,120,0,1,,,,,,,,,0,,72,0
60596,note_on,0,0,1,,,,,,,,,0,,69,85
60716,note_on,0,0,2,,,,,,,,,1,,59,85
60716,note_on,240,0,2,,,,,,,,,1,,57,0
60716,note_on,0,0,1,,,,,,,,,0,,74,85
60716,note_on,120,0,1,,,,,,,,,0,,69,0
60836,note_on,120,0,1,,,,,,,,,0,,74,0
60836,note_on,0,0,1,,,,,,,,,0,,69,85
60956,note_on,120,0,1,,,,,,,,,0,,69,0
60956,note_on,240,0,2,,,,,,,,,1,,59,0
60956,note_on,0,0,1,,,,,,,,,0,,76,85
60956,note_on,0,0,2,,,,,,,,,1,,60,85
61076,note_on,120,0,1,,,,,,,,,0,,76,0
61076,note_on,0,0,1,,,,,,,,,0,,69,85
61196,note_on,0,0,2,,,,,,,,,1,,50,85
61196,note_on,240,0,2,,,,,,,,,1,,60,0
61196,note_on,120,0,1,,,,,,,,,0,,69,0
61196,note_on,0,0,1,,,,,,,,,0,,77,85
61316,note_on,0,0,2,,,,,,,,,1,,62,85
61316,note_on,120,0,2,,,,,,,,,1,,50,0
61436,note_on,0,0,1,,,,,,,,,0,,67,85
61436,note_on,240,0,1,,,,,,,,,0,,77,0
61436,note_on,120,0,2,,,,,,,,,1,,62,0
61436,note_on,0,0,2,,,,,,,,,1,,52,85
61556,note_on,120,0,2,,,,,,,,,1,,52,0
61556,note_on,0,0,2,,,,,,,,,1,,62,85
61676,note_on,0,0,2,,,,,,,,,1,,53,85
61676,note_on,120,0,2,,,,,,,,,1,,62,0
61676,note_on,240,0,1,,,,,,,,,0,,67,0
61676,note_on,0,0,1,,,,,,,,,0,,69,85
61796,note_on,120,0,2,,,,,,,,,1,,53,0
61796,note_on,0,0,2,,,,,,,,,1,,62,85
61916,note_on,240,0,1,,,,,,,,,0,,69,0
61916,note_on,0,0,1,,,,,,,,,0,,71,85
61916,note_on,120,0,2,,,,,,,,,1,,62,0
61916,note_on,0,0,2,,,,,,,,,1,,55,85
62036,note_on,120,0,1,,,,,,,,,0,,71,0
62036,note_on,0,0,1,,,,,,,,,0,,67,85
62156,note_on,120,0,1,,,,,,,,,0,,67,0
62156,note_on,240,0,2,,,,,,,,,1,,55,0
62156,note_on,0,0,2,,,,,,,,,1,,57,85
62156,note_on,0,0,1,,,,,,,,,0,,72,85
62276,note_on,120,0,1,,,,,,,,,0,,72,0
62276,note_on,0,0,1,,,,,,,,,0,,67,85
62396,note_on,120,0,1,,,,,,,,,0,,67,0
62396,note_on,0,0,1,,,,,,,,,0,,74,85
62396,note_on,240,0,2,,,,,,,,,1,,57,0
62396,note_on,0,0,2,,,,,,,,,1,,59,85
62516,note_on,120,0,1,,,,,,,,,0,,74,0
62516,note_on,0,0,1,,,,,,,,,0,,67,85
62636,note_on,240,0,2,,,,,,,,,1,,59,0
62636,note_on,0,0,2,,,,,,,,,1,,60,85
62636,note_on,0,0,1,,,,,,,,,0,,76,85
62636,note_on,120,0,1,,,,,,,,,0,,67,0
62756,note_on,0,0,1,,,,,,,,,0,,74,85
62756,note_on,120,0,1,,,,,,,,,0,,76,0
62876,note_on,120,0,1,,,,,,,,,0,,74,0
62876,note_on,0,0,2,,,,,,,,,1,,52,85
62876,note_on,240,0,2,,,,,,,,,1,,60,0
62876,note_on,0,0,1,,,,,,,,,0,,72,85
62996,note_on,120,0,1,,,,,,,,,0,,72,0
62996,note_on,0,0,1,,,,,,,,,0,,71,85
63116,note_on,0,0,2,,,,,,,,,1,,48,85
63116,note_on,120,0,1,,,,,,,,,0,,71,0
63116,note_on,240,0,2,,,,,,,,,1,,52,0
63116,note_on,0,0,1,,,,,,,,,0,,69,85
63236,note_on,0,0,1,,,,,,,,,0,,67,85
63236,note_on,120,0,1,,,,,,,,,0,,69,0
63356,note_on,240,0,2,,,,,,,,,1,,48,0
63356,note_on,120,0,1,,,,,,,,,0,,67,0
63356,note_on,0,0,1,,,,,,,,,0,,65,85
63356,note_on,0,0,2,,,,,,,,,1,,50,85
63476,note_on,120,0,1,,,,,,,,,0,,65,0
63476,note_on,0,0,1,,,,,,,,,0,,64,85
63596,note_on,120,0,1,,,,,,,,,0,,64,0
63596,note_on,240,0,2,,,,,,,,,1,,50,0
63596,note_on,0,0,1,,,,,,,,,0,,62,85
63596,note_on,0,0,2,,,,,,,,,1,,53,85
63716,note_on,120,0,1,,,,,,,,,0,,62,0
63716,note_on,0,0,1,,,,,,,,,0,,60,85
63836,note_on,120,0,1,,,,,,,,,0,,60,0
63836,note_on,0,0,2,,,,,,,,,1,,59,85
63836,note_on,0,0,2,,,,,,,,,1,,50,85
63836,note_on,240,0,2,,,,,,,,,1,,53,0
63956,note_on,0,0,2,,,,,,,,,1,,57,85
63956,note_on,120,0,2,,,,,,,,,1,,59,0
64076,note_on,0,0,2,,,,,,,,,1,,52,85
64076,note_on,0,0,2,,,,,,,,,1,,50,0
64076,note_on,0,0,2,,,,,,,,,1,,56,85
64076,note_on,120,0,2,,,,,,,,,1,,57,0
64196,note_on,120,0,2,,,,,,,,,1,,56,0
64196,note_on,0,0,2,,,,,,,,,1,,59,85
64316,note_on,120,0,2,,,,,,,,,1,,59,0
64316,note_on,480,0,1,,,,,,,,,0,,62,85
64436,note_on,0,0,1,,,,,,,,,0,,65,85
64436,note_on,120,0,1,,,,,,,,,0,,62,0
64556,note_on,240,0,2,,,,,,,,,1,,52,0
64556,note_on,0,0,1,,,,,,,,,0,,64,85
64556,note_on,120,0,1,,,,,,,,,0,,65,0
64676,note_on,120,0,1,,,,,,,,,0,,64,0
64676,note_on,0,0,1,,,,,,,,,0,,62,85
64796,note_on,0,0,1,,,,,,,,,0,,60,85
64796,note_on,240,0,2,,,,,,,,,1,,40,85
64796,note_on,120,0,1,,,,,,,,,0,,62,0
64916,note_on,120,0,1,,,,,,,,,0,,60,0
64916,note_on,0,0,1,,,,,,,,,0,,64,85
65036,note_on,120,0,1,,,,,,,,,0,,64,0
65036,note_on,0,0,1,,,,,,,,,0,,69,85
65156,note_on,120,0,1,,,,,,,,,0,,69,0
65156,note_on,0,0,1,,,,,,,,,0,,72,85
65276,note_on,120,0,1,,,,,,,,,0,,72,0
65276,note_on,0,0,1,,,,,,,,,0,,71,85
65276,note_on,480,0,2,,,,,,,,,1,,40,0
65396,note_on,0,0,1,,,,,,,,,0,,69,85
65396,note_on,120,0,1,,,,,,,,,0,,71,0
65516,note_on,0,0,1,,,,,,,,,0,,68,85
65516,note_on,240,0,2,,,,,,,,,1,,52,85
65516,note_on,120,0,1,,,,,,,,,0,,69,0
65636,note_on,120,0,1,,,,,,,,,0,,68,0
65636,note_on,0,0,1,,,,,,,,,0,,71,85
65756,note_on,120,0,1,,,,,,,,,0,,71,0
65756,note_on,0,0,1,,,,,,,,,0,,74,85
65876,note_on,120,0,1,,,,,,,,,0,,74,0
65876,note_on,0,0,1,,,,,,,,,0,,77,85
65996,note_on,120,0,1,,,,,,,,,0,,77,0
65996,note_on,480,0,2,,,,,,,,,1,,52,0
65996,note_on,0,0,1,,,,,,,,,0,,76,85
66116,note_on,120,0,1,,,,,,,,,0,,76,0
66116,note_on,0,0,1,,,,,,,,,0,,74,85
66236,note_on,0,0,1,,,,,,,,,0,,64,85
66236,note_on,120,0,1,,,,,,,,,0,,74,0
66236,note_on,0,0,1,,,,,,,,,0,,72,85
66356,note_on,120,0,1,,,,,,,,,0,,72,0
66356,note_on,0,0,1,,,,,,,,,0,,76,85
66476,note_on,120,0,1,,,,,,,,,0,,76,0
66476,note_on,0,0,1,,,,,,,,,0,,81,85
66476,note_on,0,0,1,,,,,,,,,0,,60,85
66476,note_on,0,0,1,,,,,,,,,0,,64,0
66596,note_on,120,0,1,,,,,,,,,0,,81,0
66596,note_on,0,0,1,,,,,,,,,0,,84,85
66716,note_on,120,0,1,,,,,,,,,0,,84,0
66716,note_on,0,0,1,,,,,,,,,0,,82,85
66716,note_on,0,0,1,,,,,,,,,0,,60,0
66716,note_on,0,0,1,,,,,,,,,0,,65,85
66836,note_on,120,0,1,,,,,,,,,0,,82,0
66836,note_on,0,0,1,,,,,,,,,0,,81,85
66956,note_on,0,0,1,,,,,,,,,0,,82,85
66956,note_on,0,0,1,,,,,,,,,0,,65,0
66956,note_on,120,0,1,,,,,,,,,0,,81,0
66956,note_on,0,0,1,,,,,,,,,0,,62,85
67076,note_on,120,0,1,,,,,,,,,0,,82,0
67076,note_on,0,0,1,,,,,,,,,0,,74,85
67196,note_on,120,0,1,,,,,,,,,0,,74,0
67196,note_on,0,0,1,,,,,,,,,0,,73,85
67316,note_on,0,0,1,,,,,,,,,0,,74,85
67316,note_on,120,0,1,,,,,,,,,0,,73,0
67436,note_on,120,0,1,,,,,,,,,0,,74,0
67436,note_on,0,0,1,,,,,,,,,0,,62,0
67436,note_on,0,0,1,,,,,,,,,0,,64,85
67436,note_on,0,0,1,,,,,,,,,0,,80,85
67556,note_on,0,0,1,,,,,,,,,0,,74,85
67556,note_on,120,0,1,,,,,,,,,0,,80,0
67676,note_on,0,0,1,,,,,,,,,0,,65,85
67676,note_on,0,0,1,,,,,,,,,0,,64,0
67676,note_on,120,0,1,,,,,,,,,0,,74,0
67676,note_on,0,0,1,,,,,,,,,0,,81,85
67796,note_on,120,0,1,,,,,,,,,0,,81,0
67796,note_on,0,0,1,,,,,,,,,0,,74,85
67916,note_on,120,0,1,,,,,,,,,0,,74,0
67916,note_on,0,0,1,,,,,,,,,0,,73,85
68036,note_on,120,0,1,,,,,,,,,0,,73,0
68036,note_on,0,0,1,,,,,,,,,0,,74,85
68156,note_on,0,0,1,,,,,,,,,0,,76,85
68156,note_on,0,0,1,,,,,,,,,0,,65,0
68156,note_on,0,0,1,,,,,,,,,0,,60,85
68156,note_on,120,0,1,,,,,,,,,0,,74,0
68276,note_on,120,0,1,,,,,,,,,0,,76,0
68276,note_on,0,0,1,,,,,,,,,0,,69,85
68396,note_on,120,0,1,,,,,,,,,0,,69,0
68396,note_on,0,0,1,,,,,,,,,0,,60,0
68396,note_on,0,0,1,,,,,,,,,0,,62,85
68396,note_on,0,0,1,,,,,,,,,0,,77,85
68516,note_on,120,0,1,,,,,,,,,0,,62,0
68516,note_on,0,0,1,,,,,,,,,0,,70,85
68636,note_on,120,0,1,,,,,,,,,0,,70,0
68636,note_on,0,0,1,,,,,,,,,0,,69,85
68756,note_on,120,0,1,,,,,,,,,0,,69,0
68756,note_on,0,0,1,,,,,,,,,0,,70,85
68876,note_on,0,0,1,,,,,,,,,0,,77,0
68876,note_on,0,0,1,,,,,,,,,0,,79,85
68876,note_on,120,0,1,,,,,,,,,0,,70,0
68876,note_on,0,0,1,,,,,,,,,0,,64,85
68996,note_on,0,0,1,,,,,,,,,0,,70,85
68996,note_on,120,0,1,,,,,,,,,0,,64,0
69116,note_on,120,0,1,,,,,,,,,0,,70,0
69116,note_on,0,0,1,,,,,,,,,0,,79,0
69116,note_on,0,0,1,,,,,,,,,0,,65,85
69116,note_on,0,0,1,,,,,,,,,0,,72,85
69236,note_on,120,0,1,,,,,,,,,0,,65,0
69236,note_on,0,0,1,,,,,,,,,0,,69,85
69356,note_on,0,0,1,,,,,,,,,0,,68,85
69356,note_on,120,0,1,,,,,,,,,0,,69,0
69476,note_on,0,0,1,,,,,,,,,0,,69,85
69476,note_on,120,0,1,,,,,,,,,0,,68,0
69596,note_on,120,0,1,,,,,,,,,0,,69,0
69596,note_on,0,0,1,,,,,,,,,0,,72,0
69596,note_on,0,0,1,,,,,,,,,0,,76,85
69596,note_on,0,0,1,,,,,,,,,0,,60,85
69716,note_on,120,0,1,,,,,,,,,0,,60,0
69716,note_on,0,0,1,,,,,,,,,0,,69,85
69836,note_on,0,0,1,,,,,,,,,0,,62,85
69836,note_on,0,0,1,,,,,,,,,0,,76,0
69836,note_on,120,0,1,,,,,,,,,0,,69,0
69836,note_on,0,0,1,,,,,,,,,0,,77,85
69956,note_on,120,0,1,,,,,,,,,0,,77,0
69956,note_on,0,0,1,,,,,,,,,0,,62,0
69956,note_on,0,0,1,,,,,,,,,0,,65,85
69956,note_on,0,0,1,,,,,,,,,0,,81,85
70076,note_on,0,0,1,,,,,,,,,0,,79,85
70076,note_on,120,0,1,,,,,,,,,0,,81,0
70076,note_on,0,0,1,,,,,,,,,0,,65,0
70076,note_on,0,0,1,,,,,,,,,0,,64,85
70196,note_on,120,0,1,,,,,,,,,0,,79,0
70196,note_on,0,0,1,,,,,,,,,0,,65,85
70196,note_on,0,0,1,,,,,,,,,0,,81,85
70196,note_on,0,0,1,,,,,,,,,0,,64,0
70316,note_on,120,0,1,,,,,,,,,0,,81,0
70316,note_on,0,0,1,,,,,,,,,0,,65,0
70316,note_on,0,0,1,,,,,,,,,0,,62,85
70316,note_on,0,0,1,,,,,,,,,0,,77,85
70436,note_on,120,0,1,,,,,,,,,0,,77,0
70436,note_on,0,0,1,,,,,,,,,0,,62,0
70436,note_on,0,0,1,,,,,,,,,0,,65,85
70436,note_on,0,0,1,,,,,,,,,0,,81,85
70556,note_on,4560,0,2,,,,,,,,,1,,59,85
70556,note_on,120,0,1,,,,,,,,,0,,81,0
70556,note_on,0,0,1,,,,,,,,,0,,65,0
70556,note_on,0,0,1,,,,,,,,,0,,74,85
70676,note_on,120,0,2,,,,,,,,,1,,59,0
70676,note_on,0,0,2,,,,,,,,,1,,62,85
70676,note_on,120,0,1,,,,,,,,,0,,74,0
70676,note_on,0,0,1,,,,,,,,,0,,77,85
70796,note_on,120,0,1,,,,,,,,,0,,77,0
70796,note_on,0,0,1,,,,,,,,,0,,71,85
70796,note_on,0,0,2,,,,,,,,,1,,55,85
70796,note_on,120,0,2,,,,,,,,,1,,62,0
70916,note_on,120,0,1,,,,,,,,,0,,71,0
70916,note_on,0,0,2,,,,,,,,,1,,62,85
70916,note_on,120,0,2,,,,,,,,,1,,55,0
70916,note_on,0,0,1,,,,,,,,,0,,77,85
71036,note_on,120,0,2,,,,,,,,,1,,62,0
71036,note_on,0,0,2,,,,,,,,,1,,60,85
71036,note_on,120,0,1,,,,,,,,,0,,77,0
71036,note_on,0,0,1,,,,,,,,,0,,76,85
71156,note_on,0,0,1,,,,,,,,,0,,74,85
71156,note_on,120,0,1,,,,,,,,,0,,76,0
71156,note_on,120,0,2,,,,,,,,,1,,60,0
71156,note_on,0,0,2,,,,,,,,,1,,59,85
71276,note_on,0,0,1,,,,,,,,,0,,76,85
71276,note_on,120,0,1,,,,,,,,,0,,74,0
71276,note_on,120,0,2,,,,,,,,,1,,59,0
71276,note_on,0,0,2,,,,,,,,,1,,60,85
71396,note_on,0,0,1,,,,,,,,,0,,67,85
71396,note_on,0,0,2,,,,,,,,,1,,64,85
71396,note_on,0,0,1,,,,,,,,,0,,79,85
71396,note_on,120,0,1,,,,,,,,,0,,76,0
71396,note_on,120,0,2,,,,,,,,,1,,60,0
71516,note_on,120,0,2,,,,,,,,,1,,64,0
71516,note_on,0,0,2,,,,,,,,,1,,62,85
71516,note_on,0,0,1,,,,,,,,,0,,77,85
71516,note_on,120,0,1,,,,,,,,,0,,79,0
71636,note_on,120,0,2,,,,,,,,,1,,62,0
71636,note_on,0,0,2,,,,,,,,,1,,64,85
71636,note_on,0,0,1,,,,,,,,,0,,67,0
71636,note_on,120,0,1,,,,,,,,,0,,77,0
71636,note_on,0,0,1,,,,,,,,,0,,79,85
71756,note_on,0,0,1,,,,,,,,,0,,76,85
71756,note_on,120,0,1,,,,,,,,,0,,79,0
71756,note_on,0,0,2,,,,,,,,,1,,60,85
71756,note_on,120,0,2,,,,,,,,,1,,64,0
71876,note_on,0,0,1,,,,,,,,,0,,79,85
71876,note_on,120,0,1,,,,,,,,,0,,76,0
71876,note_on,0,0,2,,,,,,,,,1,,64,85
71876,note_on,120,0,2,,,,,,,,,1,,60,0
71996,note_on,0,0,1,,,,,,,,,0,,72,85
71996,note_on,120,0,1,,,,,,,,,0,,79,0
71996,note_on,0,0,2,,,,,,,,,1,,57,85
71996,note_on,120,0,2,,,,,,,,,1,,64,0
72116,note_on,0,0,1,,,,,,,,,0,,76,85
72116,note_on,120,0,1,,,,,,,,,0,,72,0
72116,note_on,0,0,2,,,,,,,,,1,,60,85
72116,note_on,120,0,2,,,,,,,,,1,,57,0
72236,note_on,0,0,2,,,,,,,,,1,,59,85
72236,note_on,120,0,2,,,,,,,,,1,,60,0
72236,note_on,120,0,1,,,,,,,,,0,,76,0
72236,note_on,0,0,1,,,,,,,,,0,,74,85
72356,note_on,0,0,2,,,,,,,,,1,,60,85
72356,note_on,120,0,2,,,,,,,,,1,,59,0
72356,note_on,120,0,1,,,,,,,,,0,,74,0
72356,note_on,0,0,1,,,,,,,,,0,,76,85
72476,note_on,120,0,1,,,,,,,,,0,,76,0
72476,note_on,120,0,2,,,,,,,,,1,,60,0
72476,note_on,0,0,2,,,,,,,,,1,,57,85
72476,note_on,0,0,1,,,,,,,,,0,,72,85
72596,note_on,120,0,2,,,,,,,,,1,,57,0
72596,note_on,0,0,2,,,,,,,,,1,,60,85
72596,note_on,0,0,1,,,,,,,,,0,,76,85
72596,note_on,120,0,1,,,,,,,,,0,,72,0
72716,note_on,0,0,2,,,,,,,,,1,,53,85
72716,note_on,0,0,1,,,,,,,,,0,,69,85
72716,note_on,120,0,1,,,,,,,,,0,,76,0
72716,note_on,120,0,2,,,,,,,,,1,,60,0
72836,note_on,120,0,1,,,,,,,,,0,,69,0
72836,note_on,120,0,2,,,,,,,,,1,,53,0
72836,note_on,0,0,1,,,,,,,,,0,,77,85
72836,note_on,0,0,2,,,,,,,,,1,,57,85
72956,note_on,0,0,1,,,,,,,,,0,,76,85
72956,note_on,0,0,2,,,,,,,,,1,,55,85
72956,note_on,120,0,2,,,,,,,,,1,,57,0
72956,note_on,120,0,1,,,,,,,,,0,,77,0
73076,note_on,120,0,2,,,,,,,,,1,,55,0
73076,note_on,0,0,2,,,,,,,,,1,,57,85
73076,note_on,120,0,1,,,,,,,,,0,,76,0
73076,note_on,0,0,1,,,,,,,,,0,,77,85
73196,note_on,120,0,2,,,,,,,,,1,,57,0
73196,note_on,0,0,2,,,,,,,,,1,,53,85
73196,note_on,120,0,1,,,,,,,,,0,,77,0
73196,note_on,0,0,1,,,,,,,,,0,,74,85
73316,note_on,120,0,1,,,,,,,,,0,,74,0
73316,note_on,120,0,2,,,,,,,,,1,,53,0
73316,note_on,0,0,2,,,,,,,,,1,,57,85
73316,note_on,0,0,1,,,,,,,,,0,,77,85
73436,note_on,120,0,2,,,,,,,,,1,,57,0
73436,note_on,0,0,2,,,,,,,,,1,,50,85
73436,note_on,120,0,1,,,,,,,,,0,,77,0
73436,note_on,0,0,1,,,,,,,,,0,,70,85
73556,note_on,120,0,2,,,,,,,,,1,,50,0
73556,note_on,120,0,1,,,,,,,,,0,,70,0
73556,note_on,0,0,1,,,,,,,,,0,,74,85
73556,note_on,0,0,1,,,,,,,,,0,,65,85
73676,note_on,0,0,1,,,,,,,,,0,,64,85
73676,note_on,0,0,1,,,,,,,,,0,,72,85
73676,note_on,0,0,1,,,,,,,,,0,,65,0
73676,note_on,120,0,1,,,,,,,,,0,,74,0
73796,note_on,120,0,1,,,,,,,,,0,,72,0
73796,note_on,0,0,1,,,,,,,,,0,,64,0
73796,note_on,0,0,1,,,,,,,,,0,,74,85
73796,note_on,0,0,1,,,,,,,,,0,,65,85
73916,note_on,120,0,1,,,,,,,,,0,,74,0
73916,note_on,0,0,1,,,,,,,,,0,,65,0
73916,note_on,0,0,1,,,,,,,,,0,,62,85
73916,note_on,0,0,1,,,,,,,,,0,,70,85
74036,note_on,0,0,1,,,,,,,,,0,,74,85
74036,note_on,120,0,1,,,,,,,,,0,,70,0
74036,note_on,0,0,1,,,,,,,,,0,,62,0
74036,note_on,0,0,1,,,,,,,,,0,,65,85
74156,note_on,600,0,2,,,,,,,,,1,,59,85
74156,note_on,0,0,1,,,,,,,,,0,,68,85
74156,note_on,120,0,1,,,,,,,,,0,,74,0
74156,note_on,0,0,1,,,,,,,,,0,,65,0
74276,note_on,120,0,1,,,,,,,,,0,,68,0
74276,note_on,0,0,1,,,,,,,,,0,,71,85
74276,note_on,0,0,2,,,,,,,,,1,,62,85
74276,note_on,120,0,2,,,,,,,,,1,,59,0
74396,note_on,120,0,1,,,,,,,,,0,,71,0
74396,note_on,0,0,1,,,,,,,,,0,,69,85
74396,note_on,0,0,2,,,,,,,,,1,,60,85
74396,note_on,120,0,2,,,,,,,,,1,,62,0
74516,note_on,120,0,1,,,,,,,,,0,,69,0
74516,note_on,0,0,1,,,,,,,,,0,,71,85
74516,note_on,0,0,2,,,,,,,,,1,,62,85
74516,note_on,120,0,2,,,,,,,,,1,,60,0
74636,note_on,120,0,2,,,,,,,,,1,,62,0
74636,note_on,0,0,2,,,,,,,,,1,,59,85
74636,note_on,0,0,1,,,,,,,,,0,,68,85
74636,note_on,120,0,1,,,,,,,,,0,,71,0
74756,note_on,0,0,1,,,,,,,,,0,,71,85
74756,note_on,120,0,1,,,,,,,,,0,,68,0
74756,note_on,120,0,2,,,,,,,,,1,,59,0
74756,note_on,0,0,2,,,,,,,,,1,,62,85
74876,note_on,0,0,2,,,,,,,,,1,,56,85
74876,note_on,120,0,2,,,,,,,,,1,,62,0
74876,note_on,120,0,1,,,,,,,,,0,,71,0
74876,note_on,0,0,1,,,,,,,,,0,,74,85
74996,note_on,120,0,1,,,,,,,,,0,,74,0
74996,note_on,0,0,1,,,,,,,,,0,,77,85
75116,note_on,240,0,2,,,,,,,,,1,,56,0
75116,note_on,0,0,2,,,,,,,,,1,,52,85
75116,note_on,0,0,1,,,,,,,,,0,,76,85
75116,note_on,120,0,1,,,,,,,,,0,,77,0
75236,note_on,0,0,1,,,,,,,,,0,,74,85
75236,note_on,120,0,1,,,,,,,,,0,,76,0
75356,note_on,0,0,1,,,,,,,,,0,,72,85
75356,note_on,120,0,1,,,,,,,,,0,,74,0
75356,note_on,240,0,2,,,,,,,,,1,,52,0
75356,note_on,0,0,2,,,,,,,,,1,,56,85
75476,note_on,120,0,1,,,,,,,,,0,,72,0
75476,note_on,0,0,1,,,,,,,,,0,,71,85
75596,note_on,240,0,2,,,,,,,,,1,,56,0
75596,note_on,0,0,1,,,,,,,,,0,,72,85
75596,note_on,0,0,2,,,,,,,,,1,,57,85
75596,note_on,120,0,1,,,,,,,,,0,,71,0
75716,note_on,120,0,1,,,,,,,,,0,,72,0
75716,note_on,0,0,1,,,,,,,,,0,,69,85
75836,note_on,120,0,1,,,,,,,,,0,,69,0
75836,note_on,0,0,1,,,,,,,,,0,,68,85
75836,note_on,0,0,2,,,,,,,,,1,,45,85
75836,note_on,240,0,2,,,,,,,,,1,,57,0
75956,note_on,120,0,1,,,,,,,,,0,,68,0
75956,note_on,0,0,1,,,,,,,,,0,,69,85
76076,note_on,240,0,2,,,,,,,,,1,,45,0
76076,note_on,0,0,2,,,,,,,,,1,,47,85
76076,note_on,120,0,1,,,,,,,,,0,,69,0
76076,note_on,0,0,1,,,,,,,,,0,,74,85
76196,note_on,0,0,1,,,,,,,,,0,,69,85
76196,note_on,120,0,1,,,,,,,,,0,,74,0
76316,note_on,0,0,1,,,,,,,,,0,,76,85
76316,note_on,0,0,2,,,,,,,,,1,,48,85
76316,note_on,240,0,2,,,,,,,,,1,,47,0
76316,note_on,120,0,1,,,,,,,,,0,,69,0
76436,note_on,120,0,1,,,,,,,,,0,,76,0
76436,note_on,0,0,1,,,,,,,,,0,,69,85
76556,note_on,120,0,1,,,,,,,,,0,,69,0
76556,note_on,0,0,1,,,,,,,,,0,,76,85
76556,note_on,0,0,2,,,,,,,,,1,,60,85
76556,note_on,240,0,2,,,,,,,,,1,,48,0
76676,note_on,0,0,1,,,,,,,,,0,,81,85
76676,note_on,120,0,1,,,,,,,,,0,,76,0
76796,note_on,240,0,2,,,,,,,,,1,,60,0
76796,note_on,120,0,1,,,,,,,,,0,,81,0
76796,note_on,0,0,2,,,,,,,,,1,,57,85
76796,note_on,0,0,1,,,,,,,,,0,,79,85
76916,note_on,120,0,1,,,,,,,,,0,,79,0
76916,note_on,0,0,1,,,,,,,,,0,,81,85
77036,note_on,0,0,1,,,,,,,,,0,,77,85
77036,note_on,120,0,1,,,,,,,,,0,,81,0
77036,note_on,240,0,2,,,,,,,,,1,,57,0
77036,note_on,0,0,2,,,,,,,,,1,,62,85
77156,note_on,120,0,1,,,,,,,,,0,,77,0
77156,note_on,0,0,1,,,,,,,,,0,,76,85
77276,note_on,120,0,1,,,,,,,,,0,,76,0
77276,note_on,0,0,1,,,,,,,,,0,,74,85
77276,note_on,240,0,2,,,,,,,,,1,,62,0
77276,note_on,0,0,2,,,,,,,,,1,,53,85
77396,note_on,120,0,1,,,,,,,,,0,,74,0
77396,note_on,0,0,1,,,,,,,,,0,,83,85
77516,note_on,240,0,2,,,,,,,,,1,,53,0
77516,note_on,0,0,2,,,,,,,,,1,,62,85
77516,note_on,120,0,1,,,,,,,,,0,,83,0
77516,note_on,0,0,1,,,,,,,,,0,,81,85
77636,note_on,120,0,1,,,,,,,,,0,,81,0
77636,note_on,0,0,1,,,,,,,,,0,,83,85
77756,note_on,240,0,2,,,,,,,,,1,,62,0
77756,note_on,0,0,2,,,,,,,,,1,,64,85
77756,note_on,120,0,1,,,,,,,,,0,,83,0
77756,note_on,0,0,1,,,,,,,,,0,,80,85
77876,note_on,120,0,1,,,,,,,,,0,,80,0
77876,note_on,0,0,1,,,,,,,,,0,,76,85
77996,note_on,0,0,1,,,,,,,,,0,,80,85
77996,note_on,240,0,2,,,,,,,,,1,,64,0
77996,note_on,0,0,2,,,,,,,,,1,,52,85
77996,note_on,120,0,1,,,,,,,,,0,,76,0
78116,note_on,120,0,1,,,,,,,,,0,,80,0
78116,note_on,0,0,1,,,,,,,,,0,,84,85
78236,note_on,0,0,1,,,,,,,,,0,,83,85
78236,note_on,120,0,1,,,,,,,,,0,,84,0
78236,note_on,0,0,2,,,,,,,,,1,,64,85
78236,note_on,240,0,2,,,,,,,,,1,,52,0
78356,note_on,0,0,1,,,,,,,,,0,,84,85
78356,note_on,120,0,1,,,,,,,,,0,,83,0
78476,note_on,0,0,2,,,,,,,,,1,,65,85
78476,note_on,0,0,1,,,,,,,,,0,,81,85
78476,note_on,120,0,1,,,,,,,,,0,,84,0
78476,note_on,240,0,2,,,,,,,,,1,,64,0
78596,note_on,120,0,1,,,,,,,,,0,,81,0
78596,note_on,0,0,1,,,,,,,,,0,,80,85
78716,note_on,240,0,2,,,,,,,,,1,,65,0
78716,note_on,0,0,2,,,,,,,,,1,,53,85
78716,note_on,120,0,1,,,,,,,,,0,,80,0
78716,note_on,0,0,1,,,,,,,,,0,,81,85
78836,note_on,120,0,1,,,,,,,,,0,,81,0
78836,note_on,0,0,1,,,,,,,,,0,,84,85
78956,note_on,240,0,2,,,,,,,,,1,,53,0
78956,note_on,0,0,2,,,,,,,,,1,,65,85
78956,note_on,0,0,1,,,,,,,,,0,,83,85
78956,note_on,120,0,1,,,,,,,,,0,,84,0
79076,note_on,0,0,1,,,,,,,,,0,,84,85
79076,note_on,120,0,1,,,,,,,,,0,,83,0
79196,note_on,0,0,2,,,,,,,,,1,,60,85
79196,note_on,240,0,2,,,,,,,,,1,,65,0
79196,note_on,0,0,1,,,,,,,,,0,,81,85
79196,note_on,120,0,1,,,,,,,,,0,,84,0
79316,note_on,120,0,1,,,,,,,,,0,,81,0
79316,note_on,0,0,1,,,,,,,,,0,,76,85
79436,note_on,120,0,1,,,,,,,,,0,,76,0
79436,note_on,0,0,1,,,,,,,,,0,,81,85
79436,note_on,240,0,2,,,,,,,,,1,,60,0
79436,note_on,0,0,2,,,,,,,,,1,,48,85
79556,note_on,120,0,1,,,,,,,,,0,,81,0
79556,note_on,0,0,1,,,,,,,,,0,,79,85
79676,note_on,0,0,1,,,,,,,,,0,,77,85
79676,note_on,120,0,1,,,,,,,,,0,,79,0
79676,note_on,240,0,2,,,,,,,,,1,,48,0
79676,note_on,0,0,2,,,,,,,,,1,,60,85
79796,note_on,0,0,1,,,,,,,,,0,,76,85
79796,note_on,120,0,1,,,,,,,,,0,,77,0
79916,note_on,240,0,2,,,,,,,,,1,,60,0
79916,note_on,0,0,2,,,,,,,,,1,,62,85
79916,note_on,120,0,1,,,,,,,,,0,,76,0
79916,note_on,0,0,1,,,,,,,,,0,,77,85
80036,note_on,0,0,1,,,,,,,,,0,,81,85
80036,note_on,120,0,1,,,,,,,,,0,,77,0
80156,note_on,0,0,1,,,,,,,,,0,,79,85
80156,note_on,0,0,2,,,,,,,,,1,,50,85
80156,note_on,240,0,2,,,,,,,,,1,,62,0
80156,note_on,120,0,1,,,,,,,,,0,,81,0
80276,note_on,120,0,1,,,,,,,,,0,,79,0
80276,note_on,0,0,1,,,,,,,,,0,,81,85
80396,note_on,0,0,1,,,,,,,,,0,,77,85
80396,note_on,120,0,1,,,,,,,,,0,,81,0
80396,note_on,240,0,2,,,,,,,,,1,,50,0
80396,note_on,0,0,2,,,,,,,,,1,,52,85
80516,note_on,120,0,1,,,,,,,,,0,,77,0
80516,note_on,0,0,1,,,,,,,,,0,,81,85
80636,note_on,0,0,1,,,,,,,,,0,,74,85
80636,note_on,0,0,2,,,,,,,,,1,,53,85
80636,note_on,240,0,2,,,,,,,,,1,,52,0
80636,note_on,120,0,1,,,,,,,,,0,,81,0
80756,note_on,0,0,1,,,,,,,,,0,,77,85
80756,note_on,120,0,1,,,,,,,,,0,,74,0
80876,note_on,0,0,1,,,,,,,,,0,,71,85
80876,note_on,120,0,1,,,,,,,,,0,,77,0
80876,note_on,0,0,2,,,,,,,,,1,,50,85
80876,note_on,240,0,2,,,,,,,,,1,,53,0
80996,note_on,120,0,1,,,,,,,,,0,,71,0
80996,note_on,0,0,1,,,,,,,,,0,,84,85
81116,note_on,0,0,2,,,,,,,,,1,,62,85
81116,note_on,240,0,2,,,,,,,,,1,,50,0
81116,note_on,120,0,1,,,,,,,,,0,,84,0
81116,note_on,0,0,1,,,,,,,,,0,,83,85
81236,note_on,120,0,1,,,,,,,,,0,,83,0
81236,note_on,0,0,1,,,,,,,,,0,,81,85
81356,note_on,0,0,1,,,,,,,,,0,,80,85
81356,note_on,120,0,1,,,,,,,,,0,,81,0
81356,note_on,0,0,2,,,,,,,,,1,,64,85
81356,note_on,240,0,2,,,,,,,,,1,,62,0
81476,note_on,120,0,1,,,,,,,,,0,,80,0
81476,note_on,0,0,1,,,,,,,,,0,,83,85
81596,note_on,120,0,1,,,,,,,,,0,,83,0
81596,note_on,0,0,1,,,,,,,,,0,,76,85
81716,note_on,120,0,1,,,,,,,,,0,,76,0
81716,note_on,0,0,1,,,,,,,,,0,,74,85
81836,note_on,120,0,1,,,,,,,,,0,,74,0
81836,note_on,0,0,1,,,,,,,,,0,,72,85
81836,note_on,480,0,2,,,,,,,,,1,,64,0
81956,note_on,0,0,1,,,,,,,,,0,,71,85
81956,note_on,120,0,1,,,,,,,,,0,,72,0
82076,note_on,120,0,1,,,,,,,,,0,,71,0
82076,note_on,0,0,1,,,,,,,,,0,,72,85
82196,note_on,120,0,1,,,,,,,,,0,,72,0
82196,note_on,0,0,1,,,,,,,,,0,,76,85
82316,note_on,120,0,1,,,,,,,,,0,,76,0
82316,note_on,0,0,1,,,,,,,,,0,,74,85
82436,note_on,120,0,1,,,,,,,,,0,,74,0
82436,note_on,0,0,1,,,,,,,,,0,,72,85
82556,note_on,120,0,1,,,,,,,,,0,,72,0
82556,note_on,0,0,1,,,,,,,,,0,,71,85
82676,note_on,120,0,1,,,,,,,,,0,,71,0
82676,note_on,0,0,1,,,,,,,,,0,,69,85
82796,note_on,120,0,1,,,,,,,,,0,,69,0
82796,note_on,0,0,1,,,,,,,,,0,,68,85
82916,note_on,120,0,1,,,,,,,,,0,,68,0
82916,note_on,0,0,1,,,,,,,,,0,,71,85
83036,note_on,0,0,1,,,,,,,,,0,,64,85
83036,note_on,120,0,1,,,,,,,,,0,,71,0
83156,note_on,120,0,1,,,,,,,,,0,,64,0
83156,note_on,0,0,1,,,,,,,,,0,,62,85
83276,note_on,120,0,1,,,,,,,,,0,,62,0
83276,note_on,0,0,1,,,,,,,,,0,,60,85
83396,note_on,120,0,1,,,,,,,,,0,,60,0
83396,note_on,0,0,1,,,,,,,,,0,,59,85
83516,note_on,120,0,1,,,,,,,,,0,,59,0
83516,note_on,0,0,1,,,,,,,,,0,,60,85
83636,note_on,0,0,1,,,,,,,,,0,,64,85
83636,note_on,120,0,1,,,,,,,,,0,,60,0
83756,note_on,120,0,1,,,,,,,,,0,,64,0
83756,note_on,0,0,1,,,,,,,,,0,,62,85
83876,note_on,120,0,1,,,,,,,,,0,,62,0
83876,note_on,0,0,1,,,,,,,,,0,,60,85
83996,note_on,120,0,1,,,,,,,,,0,,60,0
83996,note_on,0,0,1,,,,,,,,,0,,59,85
84116,note_on,120,0,1,,,,,,,,,0,,59,0
84116,note_on,0,0,1,,,,,,,,,0,,57,85
84236,note_on,120,0,1,,,,,,,,,0,,57,0
84236,note_on,2400,0,2,,,,,,,,,1,,56,85
84356,note_on,120,0,2,,,,,,,,,1,,56,0
84356,note_on,0,0,2,,,,,,,,,1,,54,85
84476,note_on,120,0,2,,,,,,,,,1,,54,0
84476,note_on,0,0,2,,,,,,,,,1,,52,85
84596,note_on,120,0,2,,,,,,,,,1,,52,0
84596,note_on,0,0,2,,,,,,,,,1,,50,85
84716,note_on,120,0,2,,,,,,,,,1,,50,0
84716,note_on,0,0,2,,,,,,,,,1,,48,85
84836,note_on,120,0,2,,,,,,,,,1,,48,0
84836,note_on,0,0,2,,,,,,,,,1,,47,85
84940,set_tempo,25204,1,0,,,,,,600000,,,,,,
84956,note_on,0,0,1,,,,,,,,,0,,81,85
84956,note_on,0,0,1,,,,,,,,,0,,76,85
84956,note_on,720,0,1,,,,,,,,,0,,72,85
84956,note_on,0,0,2,,,,,,,,,1,,57,85
84956,note_on,120,0,2,,,,,,,,,1,,47,0
84956,note_on,0,0,2,,,,,,,,,1,,48,85
84956,note_on,0,0,2,,,,,,,,,1,,45,85
84956,note_on,0,0,2,,,,,,,,,1,,52,85
85076,note_on,120,0,1,,,,,,,,,0,,81,0
85076,note_on,0,0,1,,,,,,,,,0,,83,85
85192,text,116,1,1,,,,,,,,,,,,
85196,note_on,0,0,1,,,,,,,,,0,,72,0
85196,note_on,4,0,1,,,,,,,,,0,,83,0
85196,note_on,0,0,1,,,,,,,,,0,,76,0
85196,note_on,0,0,1,,,,,,,,,0,,74,85
85196,note_on,0,0,1,,,,,,,,,0,,81,85
85196,note_on,0,0,2,,,,,,,,,1,,59,85
85196,note_on,0,0,2,,,,,,,,,1,,56,85
85196,note_on,0,0,2,,,,,,,,,1,,50,85
85196,note_on,0,0,2,,,,,,,,,1,,47,85
85196,note_on,0,0,2,,,,,,,,,1,,52,0
85196,note_on,0,0,2,,,,,,,,,1,,48,0
85196,note_on,240,0,2,,,,,,,,,1,,57,0
85196,text,0,1,1,,,,,,,,,,,,
85196,note_on,0,0,2,,,,,,,,,1,,45,0
85272,note_on,76,0,1,,,,,,,,,0,,81,0
85276,note_on,4,0,1,,,,,,,,,0,,80,85
85312,note_on,36,0,1,,,,,,,,,0,,80,0
85316,note_on,4,0,1,,,,,,,,,0,,81,85
85352,note_on,36,0,1,,,,,,,,,0,,81,0
85356,note_on,4,0,1,,,,,,,,,0,,80,85
85392,note_on,36,0,1,,,,,,,,,0,,80,0
85396,note_on,4,0,1,,,,,,,,,0,,81,85
85432,note_on,36,0,1,,,,,,,,,0,,81,0
85436,note_on,4,0,1,,,,,,,,,0,,80,85
85552,note_on,116,0,1,,,,,,,,,0,,80,0
85556,note_on,4,0,1,,,,,,,,,0,,78,85
85616,note_on,0,0,1,,,,,,,,,0,,80,85
85616,note_on,60,0,1,,,,,,,,,0,,78,0
85676,note_on,0,0,1,,,,,,,,,0,,72,85
85676,note_on,0,0,2,,,,,,,,,1,,48,85
85676,note_on,0,0,1,,,,,,,,,0,,69,85
85676,note_on,0,0,1,,,,,,,,,0,,81,85
85676,note_on,0,0,1,,,,,,,,,0,,74,0
85676,note_on,60,0,1,,,,,,,,,0,,80,0
85676,note_on,480,0,2,,,,,,,,,1,,59,0
85676,note_on,0,0,2,,,,,,,,,1,,47,0
85676,note_on,0,0,2,,,,,,,,,1,,56,0
85676,note_on,0,0,1,,,,,,,,,0,,76,85
85676,note_on,0,0,2,,,,,,,,,1,,52,85
85676,note_on,0,0,2,,,,,,,,,1,,50,0
85676,note_on,0,0,2,,,,,,,,,1,,60,85
85676,note_on,0,0,2,,,,,,,,,1,,57,85
85916,note_on,0,0,2,,,,,,,,,1,,56,85
85916,note_on,240,0,1,,,,,,,,,0,,76,0
85916,note_on,0,0,1,,,,,,,,,0,,81,0
85916,note_on,0,0,1,,,,,,,,,0,,69,0
85916,note_on,0,0,1,,,,,,,,,0,,72,0
85916,note_on,0,0,1,,,,,,,,,0,,64,85
85916,note_on,0,0,1,,,,,,,,,0,,68,85
85916,note_on,0,0,1,,,,,,,,,0,,71,85
85916,note_on,0,0,1,,,,,,,,,0,,76,85
85916,note_on,0,0,2,,,,,,,,,1,,48,0
85916,note_on,240,0,2,,,,,,,,,1,,60,0
85916,note_on,0,0,2,,,,,,,,,1,,52,0
85916,note_on,0,0,2,,,,,,,,,1,,57,0
85916,note_on,0,0,2,,,,,,,,,1,,47,85
85916,note_on,0,0,2,,,,,,,,,1,,52,85
85916,note_on,0,0,2,,,,,,,,,1,,44,85
86156,note_on,240,0,1,,,,,,,,,0,,76,0
86156,note_on,0,0,1,,,,,,,,,0,,64,0
86156,note_on,0,0,2,,,,,,,,,1,,52,0
86156,note_on,0,0,2,,,,,,,,,1,,44,0
86156,note_on,0,0,2,,,,,,,,,1,,47,0
86156,note_on,240,0,2,,,,,,,,,1,,56,0
86156,note_on,0,0,1,,,,,,,,,0,,68,0
86156,note_on,0,0,1,,,,,,,,,0,,71,0
86396,note_on,0,0,2,,,,,,,,,1,,52,85
86396,note_on,0,0,1,,,,,,,,,0,,69,85
86396,note_on,240,0,1,,,,,,,,,0,,72,85
86396,note_on,0,0,2,,,,,,,,,1,,57,85
86396,note_on,0,0,2,,,,,,,,,1,,48,85
86396,note_on,240,0,2,,,,,,,,,1,,45,85
86516,note_on,120,0,1,,,,,,,,,0,,72,0
86516,note_on,0,0,1,,,,,,,,,0,,74,85
86632,text,116,1,1,,,,,,,,,,,,
86636,note_on,240,0,2,,,,,,,,,1,,57,0
86636,note_on,0,0,2,,,,,,,,,1,,45,0
86636,note_on,0,0,2,,,,,,,,,1,,48,0
86636,note_on,0,0,2,,,,,,,,,1,,52,85
86636,note_on,0,0,2,,,,,,,,,1,,56,85
86636,note_on,0,0,2,,,,,,,,,1,,59,85
86636,note_on,0,0,2,,,,,,,,,1,,52,0
86636,text,0,1,1,,,,,,,,,,,,
86636,note_on,0,0,1,,,,,,,,,0,,69,0
86636,note_on,0,0,1,,,,,,,,,0,,64,85
86636,note_on,0,0,1,,,,,,,,,0,,72,85
86636,note_on,4,0,1,,,,,,,,,0,,74,0
86640,note_on,4,0,1,,,,,,,,,0,,68,85
86712,note_on,72,0,1,,,,,,,,,0,,72,0
86716,note_on,4,0,1,,,,,,,,,0,,71,85
86752,note_on,36,0,1,,,,,,,,,0,,71,0
86756,note_on,4,0,1,,,,,,,,,0,,72,85
86792,note_on,36,0,1,,,,,,,,,0,,72,0
86796,note_on,4,0,1,,,,,,,,,0,,71,85
86832,note_on,36,0,1,,,,,,,,,0,,71,0
86836,note_on,4,0,1,,,,,,,,,0,,72,85
86872,note_on,36,0,1,,,,,,,,,0,,72,0
86876,note_on,4,0,1,,,,,,,,,0,,71,85
86960,note_on,84,0,1,,,,,,,,,0,,68,0
86992,note_on,32,0,1,,,,,,,,,0,,71,0
86996,note_on,4,0,1,,,,,,,,,0,,69,85
87056,note_on,60,0,1,,,,,,,,,0,,69,0
87056,note_on,0,0,1,,,,,,,,,0,,71,85
87116,note_on,480,0,2,,,,,,,,,1,,59,0
87116,note_on,0,0,2,,,,,,,,,1,,56,0
87116,note_on,0,0,2,,,,,,,,,1,,52,0
87116,note_on,0,0,2,,,,,,,,,1,,57,85
87116,note_on,0,0,2,,,,,,,,,1,,60,85
87116,note_on,0,0,1,,,,,,,,,0,,69,85
87116,note_on,60,0,1,,,,,,,,,0,,71,0
87116,note_on,0,0,1,,,,,,,,,0,,64,85
87116,note_on,0,0,1,,,,,,,,,0,,72,85
87116,note_on,0,0,1,,,,,,,,,0,,64,0
87356,note_on,240,0,1,,,,,,,,,0,,72,0
87356,note_on,0,0,1,,,,,,,,,0,,69,0
87356,note_on,0,0,1,,,,,,,,,0,,60,85
87356,note_on,240,0,2,,,,,,,,,1,,60,0
87356,note_on,0,0,2,,,,,,,,,1,,57,0
87356,note_on,0,0,2,,,,,,,,,1,,45,85
87356,note_on,0,0,2,,,,,,,,,1,,48,85
87356,note_on,0,0,2,,,,,,,,,1,,52,85
87356,note_on,0,0,2,,,,,,,,,1,,57,85
87356,note_on,0,0,1,,,,,,,,,0,,64,0
87356,note_on,0,0,1,,,,,,,,,0,,64,85
87356,note_on,0,0,1,,,,,,,,,0,,69,85
87596,note_on,0,0,2,,,,,,,,,1,,52,0
87596,note_on,0,0,1,,,,,,,,,0,,60,0
87596,note_on,0,0,1,,,,,,,,,0,,69,0
87596,note_on,240,0,1,,,,,,,,,0,,64,0
87596,note_on,240,0,2,,,,,,,,,1,,57,0
87596,note_on,0,0,2,,,,,,,,,1,,48,0
87596,note_on,0,0,2,,,,,,,,,1,,45,0
87836,note_on,240,0,2,,,,,,,,,1,,50,85
87836,note_on,240,0,1,,,,,,,,,0,,69,85
87836,note_on,0,0,1,,,,,,,,,0,,77,85
87840,note_on,0,0,2,,,,,,,,,1,,57,85
87840,note_on,4,0,2,,,,,,,,,1,,62,85
88076,note_on,0,0,2,,,,,,,,,1,,53,85
88076,note_on,0,0,1,,,,,,,,,0,,76,85
88076,note_on,240,0,1,,,,,,,,,0,,77,0
88076,note_on,236,0,2,,,,,,,,,1,,50,0
88196,note_on,0,0,1,,,,,,,,,0,,74,85
88196,note_on,120,0,1,,,,,,,,,0,,76,0
88252,note_on,56,0,1,,,,,,,,,0,,69,0
88272,note_on,196,0,2,,,,,,,,,1,,57,0
88288,note_on,16,0,2,,,,,,,,,1,,62,0
88316,note_on,0,0,1,,,,,,,,,0,,72,85
88316,note_on,64,0,1,,,,,,,,,0,,74,0
88316,note_on,28,0,2,,,,,,,,,1,,53,0
88316,note_on,0,0,2,,,,,,,,,1,,50,85
88436,note_on,120,0,1,,,,,,,,,0,,72,0
88436,note_on,0,0,1,,,,,,,,,0,,71,85
88556,note_on,0,0,2,,,,,,,,,1,,52,85
88556,note_on,240,0,2,,,,,,,,,1,,50,0
88556,note_on,0,0,1,,,,,,,,,0,,69,85
88556,note_on,120,0,1,,,,,,,,,0,,71,0
88676,note_on,0,0,1,,,,,,,,,0,,68,85
88676,note_on,120,0,1,,,,,,,,,0,,69,0
88796,note_on,240,0,2,,,,,,,,,1,,52,0
88796,note_on,0,0,2,,,,,,,,,1,,48,85
88796,note_on,0,0,1,,,,,,,,,0,,66,85
88796,note_on,120,0,1,,,,,,,,,0,,68,0
88916,note_on,120,0,1,,,,,,,,,0,,66,0
88916,note_on,0,0,1,,,,,,,,,0,,64,85
89036,note_on,120,0,1,,,,,,,,,0,,64,0
89036,note_on,240,0,2,,,,,,,,,1,,48,0
89036,note_on,0,0,2,,,,,,,,,1,,53,85
89036,note_on,0,0,2,,,,,,,,,1,,57,85
89040,note_on,4,0,1,,,,,,,,,0,,74,85
89232,note_on,192,0,1,,,,,,,,,0,,74,0
89276,note_on,0,0,1,,,,,,,,,0,,69,85
89276,note_on,0,0,1,,,,,,,,,0,,65,85
89276,note_on,44,0,1,,,,,,,,,0,,72,85
89276,note_on,240,0,2,,,,,,,,,1,,57,0
89276,note_on,0,0,2,,,,,,,,,1,,53,0
89276,note_on,0,0,2,,,,,,,,,1,,50,85
89396,note_on,120,0,1,,,,,,,,,0,,72,0
89396,note_on,0,0,1,,,,,,,,,0,,71,85
89516,note_on,0,0,2,,,,,,,,,1,,52,85
89516,note_on,120,0,1,,,,,,,,,0,,71,0
89516,note_on,0,0,1,,,,,,,,,0,,69,0
89516,note_on,0,0,1,,,,,,,,,0,,65,0
89516,note_on,0,0,1,,,,,,,,,0,,64,85
89516,note_on,0,0,1,,,,,,,,,0,,69,85
89516,note_on,240,0,2,,,,,,,,,1,,50,0
89520,note_on,4,0,1,,,,,,,,,0,,72,85
89744,note_on,224,0,1,,,,,,,,,0,,72,0
89756,note_on,0,0,1,,,,,,,,,0,,71,85
89756,note_on,0,0,1,,,,,,,,,0,,62,85
89756,note_on,0,0,2,,,,,,,,,1,,40,85
89756,note_on,0,0,1,,,,,,,,,0,,64,0
89756,note_on,240,0,2,,,,,,,,,1,,52,0
89756,note_on,12,0,1,,,,,,,,,0,,69,0
89772,note_on,16,0,1,,,,,,,,,0,,68,85
89876,note_on,0,0,1,,,,,,,,,0,,69,85
89876,note_on,104,0,1,,,,,,,,,0,,71,0
89968,set_tempo,5028,1,0,,,,,,983607,,,,,,
89980,note_on,104,0,1,,,,,,,,,0,,68,0
89996,note_on,0,0,2,,,,,,,,,1,,45,85
89996,note_on,0,0,1,,,,,,,,,0,,61,85
89996,note_on,240,0,2,,,,,,,,,1,,40,0
89996,note_on,0,0,1,,,,,,,,,0,,62,0
89996,note_on,16,0,1,,,,,,,,,0,,69,0
90012,note_on,16,0,1,,,,,,,,,0,,64,85
90012,note_on,16,0,2,,,,,,,,,1,,52,85
90028,note_on,16,0,1,,,,,,,,,0,,69,85
90028,note_on,16,0,2,,,,,,,,,1,,57,85
90588,note_on,560,0,1,,,,,,,,,0,,69,0
90700,note_on,112,0,1,,,,,,,,,0,,64,0
90700,note_on,0,0,1,,,,,,,,,0,,61,0
90700,note_on,0,0,2,,,,,,,,,1,,45,0
90700,note_on,672,0,2,,,,,,,,,1,,52,0
90716,note_on,16,0,2,,,,,,,,,1,,57,0
90720,note_on,0,0,1,,,,,,,,,0,,73,85
90720,marker,752,1,0,,,,,,,,,,,,
90720,note_on,20,0,1,,,,,,,,,0,,69,85
90736,set_tempo,16,1,0,,,,,,461538,,,,,,
90840,note_on,0,0,1,,,,,,,,,0,,81,85
90840,note_on,120,0,1,,,,,,,,,0,,73,0
90960,note_on,0,0,1,,,,,,,,,0,,71,85
90960,note_on,120,0,1,,,,,,,,,0,,81,0
90960,note_on,0,0,1,,,,,,,,,0,,69,0
90960,note_on,0,0,1,,,,,,,,,0,,74,85
91080,note_on,0,0,1,,,,,,,,,0,,81,85
91080,note_on,120,0,1,,,,,,,,,0,,74,0
91200,note_on,0,0,1,,,,,,,,,0,,73,85
91200,note_on,0,0,1,,,,,,,,,0,,71,0
91200,note_on,120,0,1,,,,,,,,,0,,81,0
91200,note_on,0,0,1,,,,,,,,,0,,76,85
91320,note_on,120,0,1,,,,,,,,,0,,76,0
91320,note_on,0,0,1,,,,,,,,,0,,81,85
91440,note_on,120,0,1,,,,,,,,,0,,81,0
91440,note_on,0,0,1,,,,,,,,,0,,73,0
91440,note_on,0,0,1,,,,,,,,,0,,74,85
91440,note_on,0,0,1,,,,,,,,,0,,77,85
91560,note_on,0,0,1,,,,,,,,,0,,81,85
91560,note_on,120,0,1,,,,,,,,,0,,77,0
91680,note_on,0,0,1,,,,,,,,,0,,74,0
91680,note_on,120,0,1,,,,,,,,,0,,81,0
91680,note_on,0,0,1,,,,,,,,,0,,72,85
91680,note_on,0,0,1,,,,,,,,,0,,76,85
91800,note_on,0,0,1,,,,,,,,,0,,81,85
91800,note_on,120,0,1,,,,,,,,,0,,76,0
91920,note_on,0,0,1,,,,,,,,,0,,70,85
91920,note_on,0,0,1,,,,,,,,,0,,74,85
91920,note_on,0,0,1,,,,,,,,,0,,72,0
91920,note_on,120,0,1,,,,,,,,,0,,81,0
92040,note_on,0,0,1,,,,,,,,,0,,81,85
92040,note_on,120,0,1,,,,,,,,,0,,74,0
92160,note_on,0,0,1,,,,,,,,,0,,69,85
92160,note_on,0,0,1,,,,,,,,,0,,73,85
92160,note_on,120,0,1,,,,,,,,,0,,81,0
92160,note_on,0,0,1,,,,,,,,,0,,70,0
92280,note_on,120,0,1,,,,,,,,,0,,73,0
92280,note_on,0,0,1,,,,,,,,,0,,81,85
92400,note_on,0,0,1,,,,,,,,,0,,74,85
92400,note_on,120,0,1,,,,,,,,,0,,81,0
92400,note_on,0,0,1,,,,,,,,,0,,69,0
92400,note_on,0,0,1,,,,,,,,,0,,71,85
92520,note_on,120,0,1,,,,,,,,,0,,74,0
92520,note_on,0,0,1,,,,,,,,,0,,81,85
92640,note_on,0,0,1,,,,,,,,,0,,73,85
92640,note_on,120,0,1,,,,,,,,,0,,81,0
92640,note_on,0,0,1,,,,,,,,,0,,71,0
92640,note_on,0,0,1,,,,,,,,,0,,76,85
92760,note_on,120,0,1,,,,,,,,,0,,76,0
92760,note_on,0,0,1,,,,,,,,,0,,81,85
92880,note_on,0,0,1,,,,,,,,,0,,74,85
92880,note_on,0,0,1,,,,,,,,,0,,77,85
92880,note_on,0,0,1,,,,,,,,,0,,73,0
92880,note_on,120,0,1,,,,,,,,,0,,81,0
93000,note_on,0,0,1,,,,,,,,,0,,81,85
93000,note_on,120,0,1,,,,,,,,,0,,77,0
93120,note_on,0,0,1,,,,,,,,,0,,74,0
93120,note_on,120,0,1,,,,,,,,,0,,81,0
93120,note_on,0,0,1,,,,,,,,,0,,65,85
93120,note_on,0,0,1,,,,,,,,,0,,74,85
93240,note_on,0,0,1,,,,,,,,,0,,76,85
93240,note_on,120,0,1,,,,,,,,,0,,74,0
93360,note_on,0,0,1,,,,,,,,,0,,62,85
93360,note_on,0,0,1,,,,,,,,,0,,72,85
93360,note_on,0,0,1,,,,,,,,,0,,65,0
93360,note_on,120,0,1,,,,,,,,,0,,76,0
93480,note_on,120,0,1,,,,,,,,,0,,72,0
93480,note_on,0,0,1,,,,,,,,,0,,74,85
93600,note_on,120,0,1,,,,,,,,,0,,74,0
93600,note_on,0,0,1,,,,,,,,,0,,71,85
93600,note_on,0,0,1,,,,,,,,,0,,67,85
93600,note_on,0,0,1,,,,,,,,,0,,62,0
93720,note_on,120,0,1,,,,,,,,,0,,71,0
93720,note_on,0,0,1,,,,,,,,,0,,79,85
93840,note_on,0,0,1,,,,,,,,,0,,72,85
93840,note_on,0,0,1,,,,,,,,,0,,67,0
93840,note_on,120,0,1,,,,,,,,,0,,79,0
93840,note_on,0,0,1,,,,,,,,,0,,69,85
93960,note_on,120,0,1,,,,,,,,,0,,72,0
93960,note_on,0,0,1,,,,,,,,,0,,79,85
94080,note_on,0,0,1,,,,,,,,,0,,71,85
94080,note_on,120,0,1,,,,,,,,,0,,79,0
94080,note_on,0,0,1,,,,,,,,,0,,69,0
94080,note_on,0,0,1,,,,,,,,,0,,74,85
94200,note_on,120,0,1,,,,,,,,,0,,74,0
94200,note_on,0,0,1,,,,,,,,,0,,79,85
94320,note_on,0,0,1,,,,,,,,,0,,72,85
94320,note_on,120,0,1,,,,,,,,,0,,79,0
94320,note_on,0,0,1,,,,,,,,,0,,71,0
94320,note_on,0,0,1,,,,,,,,,0,,76,85
94440,note_on,120,0,1,,,,,,,,,0,,76,0
94440,note_on,0,0,1,,,,,,,,,0,,79,85
94560,note_on,0,0,1,,,,,,,,,0,,72,0
94560,note_on,120,0,1,,,,,,,,,0,,79,0
94560,note_on,0,0,1,,,,,,,,,0,,74,85
94560,note_on,0,0,1,,,,,,,,,0,,71,85
94680,note_on,120,0,1,,,,,,,,,0,,74,0
94680,note_on,0,0,1,,,,,,,,,0,,79,85
94800,note_on,0,0,1,,,,,,,,,0,,69,85
94800,note_on,120,0,1,,,,,,,,,0,,79,0
94800,note_on,0,0,1,,,,,,,,,0,,71,0
94800,note_on,0,0,1,,,,,,,,,0,,72,85
94920,note_on,120,0,1,,,,,,,,,0,,72,0
94920,note_on,0,0,1,,,,,,,,,0,,79,85
95040,note_on,0,0,1,,,,,,,,,0,,67,85
95040,note_on,0,0,1,,,,,,,,,0,,71,85
95040,note_on,0,0,1,,,,,,,,,0,,69,0
95040,note_on,120,0,1,,,,,,,,,0,,79,0
95160,note_on,120,0,1,,,,,,,,,0,,71,0
95160,note_on,0,0,1,,,,,,,,,0,,79,85
95280,note_on,120,0,1,,,,,,,,,0,,79,0
95280,note_on,0,0,1,,,,,,,,,0,,67,0
95280,note_on,0,0,1,,,,,,,,,0,,69,85
95280,note_on,0,0,1,,,,,,,,,0,,72,85
95400,note_on,120,0,1,,,,,,,,,0,,72,0
95400,note_on,0,0,1,,,,,,,,,0,,79,85
95520,note_on,0,0,1,,,,,,,,,0,,74,85
95520,note_on,0,0,1,,,,,,,,,0,,71,85
95520,note_on,0,0,1,,,,,,,,,0,,69,0
95520,note_on,120,0,1,,,,,,,,,0,,79,0
95640,note_on,0,0,1,,,,,,,,,0,,79,85
95640,note_on,120,0,1,,,,,,,,,0,,74,0
95760,note_on,0,0,1,,,,,,,,,0,,71,0
95760,note_on,0,0,1,,,,,,,,,0,,72,85
95760,note_on,0,0,1,,,,,,,,,0,,76,85
95760,note_on,120,0,1,,,,,,,,,0,,79,0
95880,note_on,120,0,1,,,,,,,,,0,,76,0
95880,note_on,0,0,1,,,,,,,,,0,,79,85
96000,note_on,120,0,1,,,,,,,,,0,,79,0
96000,note_on,0,0,1,,,,,,,,,0,,72,0
96000,note_on,0,0,1,,,,,,,,,0,,72,85
96000,note_on,0,0,1,,,,,,,,,0,,64,85
96120,note_on,0,0,1,,,,,,,,,0,,74,85
96120,note_on,120,0,1,,,,,,,,,0,,72,0
96240,note_on,120,0,1,,,,,,,,,0,,74,0
96240,note_on,0,0,1,,,,,,,,,0,,64,0
96240,note_on,0,0,1,,,,,,,,,0,,60,85
96240,note_on,0,0,1,,,,,,,,,0,,70,85
96360,note_on,120,0,1,,,,,,,,,0,,70,0
96360,note_on,0,0,1,,,,,,,,,0,,72,85
96480,note_on,0,0,1,,,,,,,,,0,,69,85
96480,note_on,0,0,1,,,,,,,,,0,,65,85
96480,note_on,120,0,1,,,,,,,,,0,,72,0
96480,note_on,0,0,1,,,,,,,,,0,,60,0
96600,note_on,120,0,1,,,,,,,,,0,,69,0
96600,note_on,0,0,1,,,,,,,,,0,,77,85
96720,note_on,120,0,1,,,,,,,,,0,,77,0
96720,note_on,0,0,1,,,,,,,,,0,,65,0
96720,note_on,0,0,1,,,,,,,,,0,,67,85
96720,note_on,0,0,1,,,,,,,,,0,,70,85
96840,note_on,120,0,1,,,,,,,,,0,,70,0
96840,note_on,0,0,1,,,,,,,,,0,,77,85
96960,note_on,0,0,1,,,,,,,,,0,,69,85
96960,note_on,0,0,1,,,,,,,,,0,,72,85
96960,note_on,0,0,1,,,,,,,,,0,,67,0
96960,note_on,120,0,1,,,,,,,,,0,,77,0
97080,note_on,0,0,1,,,,,,,,,0,,77,85
97080,note_on,120,0,1,,,,,,,,,0,,72,0
97200,note_on,0,0,1,,,,,,,,,0,,69,0
97200,note_on,0,0,1,,,,,,,,,0,,70,85
97200,note_on,0,0,1,,,,,,,,,0,,74,85
97200,note_on,120,0,1,,,,,,,,,0,,77,0
97320,note_on,120,0,1,,,,,,,,,0,,74,0
97320,note_on,0,0,1,,,,,,,,,0,,77,85
97440,note_on,0,0,1,,,,,,,,,0,,70,0
97440,note_on,0,0,1,,,,,,,,,0,,72,85
97440,note_on,0,0,1,,,,,,,,,0,,69,85
97440,note_on,120,0,1,,,,,,,,,0,,77,0
97560,note_on,120,0,1,,,,,,,,,0,,72,0
97560,note_on,0,0,1,,,,,,,,,0,,77,85
97680,note_on,0,0,1,,,,,,,,,0,,69,0
97680,note_on,120,0,1,,,,,,,,,0,,77,0
97680,note_on,0,0,1,,,,,,,,,0,,67,85
97680,note_on,0,0,1,,,,,,,,,0,,70,85
97800,note_on,120,0,1,,,,,,,,,0,,70,0
97800,note_on,0,0,1,,,,,,,,,0,,77,85
97920,note_on,0,0,1,,,,,,,,,0,,67,0
97920,note_on,120,0,1,,,,,,,,,0,,77,0
97920,note_on,0,0,1,,,,,,,,,0,,69,85
97920,note_on,0,0,1,,,,,,,,,0,,65,85
98040,note_on,0,0,1,,,,,,,,,0,,77,85
98040,note_on,120,0,1,,,,,,,,,0,,69,0
98160,note_on,0,0,1,,,,,,,,,0,,70,85
98160,note_on,0,0,1,,,,,,,,,0,,65,0
98160,note_on,120,0,1,,,,,,,,,0,,77,0
98160,note_on,0,0,1,,,,,,,,,0,,67,85
98280,note_on,120,0,1,,,,,,,,,0,,70,0
98280,note_on,0,0,1,,,,,,,,,0,,77,85
98400,note_on,120,0,1,,,,,,,,,0,,77,0
98400,note_on,0,0,1,,,,,,,,,0,,67,0
98400,note_on,0,0,1,,,,,,,,,0,,72,85
98400,note_on,0,0,1,,,,,,,,,0,,69,85
98520,note_on,0,0,1,,,,,,,,,0,,77,85
98520,note_on,120,0,1,,,,,,,,,0,,72,0
98640,note_on,0,0,1,,,,,,,,,0,,74,85
98640,note_on,0,0,1,,,,,,,,,0,,69,0
98640,note_on,120,0,1,,,,,,,,,0,,77,0
98640,note_on,7924,0,2,,,,,,,,,1,,58,85
98760,note_on,120,0,1,,,,,,,,,0,,74,0
98760,note_on,0,0,1,,,,,,,,,0,,67,85
98880,note_on,120,0,1,,,,,,,,,0,,67,0
98880,note_on,0,0,1,,,,,,,,,0,,70,85
98880,note_on,240,0,2,,,,,,,,,1,,58,0
98880,note_on,0,0,2,,,,,,,,,1,,46,85
99000,note_on,0,0,1,,,,,,,,,0,,74,85
99000,note_on,120,0,1,,,,,,,,,0,,70,0
99120,note_on,120,0,1,,,,,,,,,0,,74,0
99120,note_on,0,0,1,,,,,,,,,0,,79,85
99120,note_on,240,0,2,,,,,,,,,1,,46,0
99240,note_on,0,0,1,,,,,,,,,0,,74,85
99240,note_on,120,0,1,,,,,,,,,0,,79,0
99360,note_on,120,0,1,,,,,,,,,0,,74,0
99360,note_on,0,0,1,,,,,,,,,0,,76,85
99360,note_on,240,0,2,,,,,,,,,1,,60,85
99480,note_on,120,0,1,,,,,,,,,0,,76,0
99480,note_on,0,0,1,,,,,,,,,0,,69,85
99600,note_on,120,0,1,,,,,,,,,0,,69,0
99600,note_on,0,0,1,,,,,,,,,0,,72,85
99600,note_on,0,0,2,,,,,,,,,1,,48,85
99600,note_on,240,0,2,,,,,,,,,1,,60,0
99720,note_on,0,0,1,,,,,,,,,0,,76,85
99720,note_on,120,0,1,,,,,,,,,0,,72,0
99840,note_on,240,0,2,,,,,,,,,1,,48,0
99840,note_on,0,0,1,,,,,,,,,0,,81,85
99840,note_on,120,0,1,,,,,,,,,0,,76,0
99960,note_on,0,0,1,,,,,,,,,0,,76,85
99960,note_on,120,0,1,,,,,,,,,0,,81,0
100080,note_on,240,0,2,,,,,,,,,1,,62,85
100080,note_on,120,0,1,,,,,,,,,0,,76,0
100080,note_on,0,0,1,,,,,,,,,0,,77,85
100200,note_on,120,0,1,,,,,,,,,0,,77,0
100200,note_on,0,0,1,,,,,,,,,0,,70,85
100320,note_on,0,0,2,,,,,,,,,1,,50,85
100320,note_on,240,0,2,,,,,,,,,1,,62,0
100320,note_on,120,0,1,,,,,,,,,0,,70,0
100320,note_on,0,0,1,,,,,,,,,0,,74,85
100440,note_on,120,0,1,,,,,,,,,0,,74,0
100440,note_on,0,0,1,,,,,,,,,0,,77,85
100560,note_on,120,0,1,,,,,,,,,0,,77,0
100560,note_on,240,0,2,,,,,,,,,1,,50,0
100560,note_on,0,0,1,,,,,,,,,0,,82,85
100680,note_on,0,0,1,,,,,,,,,0,,77,85
100680,note_on,120,0,1,,,,,,,,,0,,82,0
100800,note_on,0,0,1,,,,,,,,,0,,64,85
100800,note_on,120,0,1,,,,,,,,,0,,77,0
100800,note_on,0,0,1,,,,,,,,,0,,79,85
100920,note_on,120,0,1,,,,,,,,,0,,79,0
100920,note_on,0,0,1,,,,,,,,,0,,72,85
101040,note_on,480,0,2,,,,,,,,,1,,52,85
101040,note_on,120,0,1,,,,,,,,,0,,72,0
101040,note_on,0,0,1,,,,,,,,,0,,64,0
101040,note_on,0,0,1,,,,,,,,,0,,76,85
101160,note_on,0,0,1,,,,,,,,,0,,79,85
101160,note_on,120,0,1,,,,,,,,,0,,76,0
101280,note_on,120,0,1,,,,,,,,,0,,79,0
101280,note_on,0,0,1,,,,,,,,,0,,84,85
101280,note_on,240,0,2,,,,,,,,,1,,52,0
101400,note_on,0,0,1,,,,,,,,,0,,79,85
101400,note_on,120,0,1,,,,,,,,,0,,84,0
101520,note_on,120,0,1,,,,,,,,,0,,79,0
101520,note_on,0,0,1,,,,,,,,,0,,65,85
101520,note_on,0,0,1,,,,,,,,,0,,81,85
101640,note_on,120,0,1,,,,,,,,,0,,81,0
101640,note_on,0,0,1,,,,,,,,,0,,84,85
101760,note_on,120,0,1,,,,,,,,,0,,84,0
101760,note_on,0,0,1,,,,,,,,,0,,79,85
101760,note_on,0,0,1,,,,,,,,,0,,64,85
101760,note_on,0,0,1,,,,,,,,,0,,65,0
101880,note_on,0,0,1,,,,,,,,,0,,84,85
101880,note_on,120,0,1,,,,,,,,,0,,79,0
102000,note_on,0,0,1,,,,,,,,,0,,77,85
102000,note_on,0,0,1,,,,,,,,,0,,62,85
102000,note_on,0,0,1,,,,,,,,,0,,64,0
102000,note_on,120,0,1,,,,,,,,,0,,84,0
102120,note_on,0,0,1,,,,,,,,,0,,84,85
102120,note_on,120,0,1,,,,,,,,,0,,77,0
102240,note_on,0,0,1,,,,,,,,,0,,60,85
102240,note_on,0,0,1,,,,,,,,,0,,76,85
102240,note_on,0,0,1,,,,,,,,,0,,62,0
102240,note_on,120,0,1,,,,,,,,,0,,84,0
102360,note_on,0,0,1,,,,,,,,,0,,72,85
102360,note_on,120,0,1,,,,,,,,,0,,60,0
102480,note_on,0,0,1,,,,,,,,,0,,76,0
102480,note_on,0,0,1,,,,,,,,,0,,62,85
102480,note_on,0,0,1,,,,,,,,,0,,77,85
102480,note_on,120,0,1,,,,,,,,,0,,72,0
102600,note_on,120,0,1,,,,,,,,,0,,62,0
102600,note_on,0,0,1,,,,,,,,,0,,72,85
102720,note_on,0,0,1,,,,,,,,,0,,77,0
102720,note_on,0,0,1,,,,,,,,,0,,79,85
102720,note_on,0,0,1,,,,,,,,,0,,64,85
102720,note_on,120,0,1,,,,,,,,,0,,72,0
102840,note_on,120,0,1,,,,,,,,,0,,64,0
102840,note_on,0,0,1,,,,,,,,,0,,72,85
102960,note_on,0,0,1,,,,,,,,,0,,81,85
102960,note_on,120,0,1,,,,,,,,,0,,72,0
102960,note_on,0,0,1,,,,,,,,,0,,79,0
102960,note_on,0,0,1,,,,,,,,,0,,65,85
103080,note_on,120,0,1,,,,,,,,,0,,65,0
103080,note_on,0,0,1,,,,,,,,,0,,72,85
103200,note_on,120,0,1,,,,,,,,,0,,72,0
103200,note_on,0,0,1,,,,,,,,,0,,81,0
103200,note_on,0,0,1,,,,,,,,,0,,79,85
103200,note_on,0,0,1,,,,,,,,,0,,64,85
103320,note_on,120,0,1,,,,,,,,,0,,64,0
103320,note_on,0,0,1,,,,,,,,,0,,72,85
103440,note_on,120,0,1,,,,,,,,,0,,72,0
103440,note_on,0,0,1,,,,,,,,,0,,79,0
103440,note_on,0,0,1,,,,,,,,,0,,62,85
103440,note_on,0,0,1,,,,,,,,,0,,77,85
103560,note_on,120,0,1,,,,,,,,,0,,62,0
103560,note_on,0,0,1,,,,,,,,,0,,72,85
103680,note_on,0,0,1,,,,,,,,,0,,76,85
103680,note_on,120,0,1,,,,,,,,,0,,72,0
103680,note_on,0,0,1,,,,,,,,,0,,77,0
103680,note_on,0,0,1,,,,,,,,,0,,60,85
103800,note_on,0,0,1,,,,,,,,,0,,70,85
103800,note_on,120,0,1,,,,,,,,,0,,76,0
103920,note_on,120,0,1,,,,,,,,,0,,70,0
103920,note_on,0,0,1,,,,,,,,,0,,60,0
103920,note_on,0,0,1,,,,,,,,,0,,77,85
103920,note_on,0,0,1,,,,,,,,,0,,62,85
104040,note_on,120,0,1,,,,,,,,,0,,77,0
104040,note_on,0,0,1,,,,,,,,,0,,70,85
104160,note_on,0,0,1,,,,,,,,,0,,64,85
104160,note_on,0,0,1,,,,,,,,,0,,62,0
104160,note_on,0,0,1,,,,,,,,,0,,79,85
104160,note_on,120,0,1,,,,,,,,,0,,70,0
104280,note_on,0,0,1,,,,,,,,,0,,70,85
104280,note_on,120,0,1,,,,,,,,,0,,79,0
104400,note_on,0,0,1,,,,,,,,,0,,69,85
104400,note_on,0,0,1,,,,,,,,,0,,64,0
104400,note_on,120,0,1,,,,,,,,,0,,70,0
104400,note_on,3120,0,2,,,,,,,,,1,,53,85
104520,note_on,0,0,1,,,,,,,,,0,,65,85
104520,note_on,120,0,1,,,,,,,,,0,,69,0
104640,note_on,0,0,1,,,,,,,,,0,,70,85
104640,note_on,0,0,2,,,,,,,,,1,,55,85
104640,note_on,240,0,2,,,,,,,,,1,,53,0
104640,note_on,120,0,1,,,,,,,,,0,,65,0
104760,note_on,0,0,1,,,,,,,,,0,,65,85
104760,note_on,120,0,1,,,,,,,,,0,,70,0
104880,note_on,120,0,1,,,,,,,,,0,,65,0
104880,note_on,0,0,2,,,,,,,,,1,,57,85
104880,note_on,240,0,2,,,,,,,,,1,,55,0
104880,note_on,0,0,1,,,,,,,,,0,,72,85
105000,note_on,0,0,1,,,,,,,,,0,,65,85
105000,note_on,120,0,1,,,,,,,,,0,,72,0
105120,note_on,0,0,1,,,,,,,,,0,,74,85
105120,note_on,120,0,1,,,,,,,,,0,,65,0
105120,note_on,0,0,2,,,,,,,,,1,,58,85
105120,note_on,240,0,2,,,,,,,,,1,,57,0
105240,note_on,0,0,1,,,,,,,,,0,,72,85
105240,note_on,120,0,1,,,,,,,,,0,,74,0
105360,note_on,0,0,1,,,,,,,,,0,,70,85
105360,note_on,120,0,1,,,,,,,,,0,,72,0
105360,note_on,240,0,2,,,,,,,,,1,,58,0
105360,note_on,0,0,2,,,,,,,,,1,,60,85
105480,note_on,120,0,1,,,,,,,,,0,,70,0
105480,note_on,0,0,1,,,,,,,,,0,,69,85
105600,note_on,240,0,2,,,,,,,,,1,,60,0
105600,note_on,0,0,2,,,,,,,,,1,,62,85
105600,note_on,120,0,1,,,,,,,,,0,,69,0
105600,note_on,0,0,1,,,,,,,,,0,,67,85
105720,note_on,0,0,1,,,,,,,,,0,,65,85
105720,note_on,120,0,1,,,,,,,,,0,,67,0
105840,note_on,120,0,1,,,,,,,,,0,,65,0
105840,note_on,0,0,1,,,,,,,,,0,,64,85
105840,note_on,240,0,2,,,,,,,,,1,,62,0
105840,note_on,0,0,2,,,,,,,,,1,,60,85
105960,note_on,120,0,1,,,,,,,,,0,,64,0
105960,note_on,0,0,1,,,,,,,,,0,,67,85
106080,note_on,120,0,1,,,,,,,,,0,,67,0
106080,note_on,0,0,1,,,,,,,,,0,,70,85
106200,note_on,120,0,1,,,,,,,,,0,,70,0
106200,note_on,0,0,1,,,,,,,,,0,,74,85
106320,note_on,480,0,2,,,,,,,,,1,,60,0
106320,note_on,120,0,1,,,,,,,,,0,,74,0
106320,note_on,0,0,1,,,,,,,,,0,,72,85
106440,note_on,120,0,1,,,,,,,,,0,,72,0
106440,note_on,0,0,1,,,,,,,,,0,,70,85
106560,note_on,120,0,1,,,,,,,,,0,,70,0
106560,note_on,0,0,1,,,,,,,,,0,,69,85
106680,note_on,0,0,1,,,,,,,,,0,,72,85
106680,note_on,120,0,1,,,,,,,,,0,,69,0
106800,note_on,120,0,1,,,,,,,,,0,,72,0
106800,note_on,0,0,1,,,,,,,,,0,,77,85
106920,note_on,120,0,1,,,,,,,,,0,,77,0
106920,note_on,0,0,1,,,,,,,,,0,,81,85
107040,note_on,120,0,1,,,,,,,,,0,,81,0
107040,note_on,0,0,1,,,,,,,,,0,,79,85
107160,note_on,0,0,1,,,,,,,,,0,,77,85
107160,note_on,120,0,1,,,,,,,,,0,,79,0
107280,note_on,120,0,1,,,,,,,,,0,,77,0
107280,note_on,0,0,1,,,,,,,,,0,,76,85
107400,note_on,120,0,1,,,,,,,,,0,,76,0
107400,note_on,0,0,1,,,,,,,,,0,,74,85
107520,note_on,120,0,1,,,,,,,,,0,,74,0
107520,note_on,0,0,1,,,,,,,,,0,,72,85
107640,note_on,120,0,1,,,,,,,,,0,,72,0
107640,note_on,0,0,1,,,,,,,,,0,,70,85
107760,note_on,0,0,1,,,,,,,,,0,,69,85
107760,note_on,120,0,1,,,,,,,,,0,,70,0
107880,note_on,120,0,1,,,,,,,,,0,,69,0
107880,note_on,0,0,1,,,,,,,,,0,,67,85
108000,note_on,0,0,1,,,,,,,,,0,,69,85
108000,note_on,120,0,1,,,,,,,,,0,,67,0
108120,note_on,120,0,1,,,,,,,,,0,,69,0
108120,note_on,0,0,1,,,,,,,,,0,,72,85
108240,note_on,120,0,1,,,,,,,,,0,,72,0
108240,note_on,0,0,1,,,,,,,,,0,,70,85
108360,note_on,120,0,1,,,,,,,,,0,,70,0
108360,note_on,0,0,1,,,,,,,,,0,,69,85
108480,note_on,0,0,1,,,,,,,,,0,,67,85
108480,note_on,120,0,1,,,,,,,,,0,,69,0
108600,note_on,120,0,1,,,,,,,,,0,,67,0
108600,note_on,0,0,1,,,,,,,,,0,,65,85
108720,note_on,120,0,1,,,,,,,,,0,,65,0
108720,note_on,0,0,1,,,,,,,,,0,,64,85
108840,note_on,120,0,1,,,,,,,,,0,,64,0
108840,note_on,0,0,1,,,,,,,,,0,,67,85
108960,note_on,120,0,1,,,,,,,,,0,,67,0
108960,note_on,0,0,1,,,,,,,,,0,,60,85
109080,note_on,2760,0,2,,,,,,,,,1,,58,85
109080,note_on,120,0,1,,,,,,,,,0,,60,0
109200,note_on,120,0,2,,,,,,,,,1,,58,0
109200,note_on,0,0,2,,,,,,,,,1,,57,85
109320,note_on,120,0,2,,,,,,,,,1,,57,0
109320,note_on,0,0,2,,,,,,,,,1,,55,85
109440,note_on,0,0,2,,,,,,,,,1,,57,85
109440,note_on,120,0,2,,,,,,,,,1,,55,0
109560,note_on,0,0,2,,,,,,,,,1,,60,85
109560,note_on,120,0,2,,,,,,,,,1,,57,0
109680,note_on,0,0,2,,,,,,,,,1,,58,85
109680,note_on,120,0,2,,,,,,,,,1,,60,0
109800,note_on,0,0,2,,,,,,,,,1,,57,85
109800,note_on,120,0,2,,,,,,,,,1,,58,0
109920,note_on,0,0,2,,,,,,,,,1,,55,85
109920,note_on,120,0,2,,,,,,,,,1,,57,0
110040,note_on,120,0,2,,,,,,,,,1,,55,0
110040,note_on,0,0,2,,,,,,,,,1,,53,85
110160,note_on,0,0,2,,,,,,,,,1,,52,85
110160,note_on,120,0,2,,,,,,,,,1,,53,0
110280,note_on,120,0,2,,,,,,,,,1,,52,0
110280,note_on,0,0,2,,,,,,,,,1,,50,85
110400,note_on,120,0,2,,,,,,,,,1,,50,0
110400,note_on,0,0,2,,,,,,,,,1,,48,85
110520,note_on,0,0,2,,,,,,,,,1,,46,85
110520,note_on,120,0,2,,,,,,,,,1,,48,0
110640,note_on,0,0,2,,,,,,,,,1,,45,85
110640,note_on,120,0,2,,,,,,,,,1,,46,0
110760,note_on,120,0,2,,,,,,,,,1,,45,0
110760,note_on,0,0,2,,,,,,,,,1,,43,85
110880,note_on,1800,0,1,,,,,,,,,0,,69,85
110880,note_on,120,0,2,,,,,,,,,1,,43,0
110880,note_on,0,0,2,,,,,,,,,1,,41,85
110880,note_on,0,0,2,,,,,,,,,1,,48,85
110880,note_on,0,0,2,,,,,,,,,1,,53,85
110880,note_on,0,0,1,,,,,,,,,0,,77,85
110884,note_on,4,0,1,,,,,,,,,0,,72,85
110892,set_tempo,20156,1,0,,,,,,600000,,,,,,
111000,note_on,116,0,1,,,,,,,,,0,,77,0
111000,note_on,0,0,1,,,,,,,,,0,,79,85
111092,note_on,92,0,1,,,,,,,,,0,,72,0
111116,text,24,1,1,,,,,,,,,,,,
111120,note_on,4,0,1,,,,,,,,,0,,79,0
111120,note_on,0,0,2,,,,,,,,,1,,46,85
111120,note_on,0,0,2,,,,,,,,,1,,43,85
111120,note_on,0,0,2,,,,,,,,,1,,41,0
111120,note_on,0,0,2,,,,,,,,,1,,48,0
111120,note_on,240,0,2,,,,,,,,,1,,53,0
111120,note_on,0,0,2,,,,,,,,,1,,52,85
111120,note_on,0,0,2,,,,,,,,,1,,55,85
111120,note_on,0,0,1,,,,,,,,,0,,70,85
111120,note_on,0,0,1,,,,,,,,,0,,77,85
111120,text,0,1,1,,,,,,,,,,,,
111120,note_on,0,0,1,,,,,,,,,0,,69,0
111196,note_on,76,0,1,,,,,,,,,0,,77,0
111200,note_on,4,0,1,,,,,,,,,0,,76,85
111236,note_on,36,0,1,,,,,,,,,0,,76,0
111240,note_on,4,0,1,,,,,,,,,0,,77,85
111276,note_on,36,0,1,,,,,,,,,0,,77,0
111280,note_on,4,0,1,,,,,,,,,0,,76,85
111316,note_on,36,0,1,,,,,,,,,0,,76,0
111320,note_on,4,0,1,,,,,,,,,0,,77,85
111356,note_on,36,0,1,,,,,,,,,0,,77,0
111360,note_on,4,0,1,,,,,,,,,0,,76,85
111476,note_on,116,0,1,,,,,,,,,0,,76,0
111480,note_on,4,0,1,,,,,,,,,0,,74,85
111540,note_on,60,0,1,,,,,,,,,0,,74,0
111540,note_on,0,0,1,,,,,,,,,0,,76,85
111600,note_on,0,0,2,,,,,,,,,1,,46,0
111600,note_on,0,0,1,,,,,,,,,0,,72,85
111600,note_on,0,0,1,,,,,,,,,0,,70,0
111600,note_on,60,0,1,,,,,,,,,0,,76,0
111600,note_on,480,0,2,,,,,,,,,1,,55,0
111600,note_on,0,0,2,,,,,,,,,1,,43,0
111600,note_on,0,0,2,,,,,,,,,1,,45,85
111600,note_on,0,0,2,,,,,,,,,1,,52,0
111600,note_on,0,0,1,,,,,,,,,0,,77,85
111600,note_on,0,0,2,,,,,,,,,1,,48,85
111600,note_on,0,0,2,,,,,,,,,1,,53,85
111600,note_on,0,0,2,,,,,,,,,1,,57,85
111840,note_on,0,0,1,,,,,,,,,0,,67,85
111840,note_on,0,0,1,,,,,,,,,0,,72,0
111840,note_on,0,0,2,,,,,,,,,1,,48,85
111840,note_on,0,0,1,,,,,,,,,0,,72,85
111840,note_on,240,0,1,,,,,,,,,0,,77,0
111840,note_on,0,0,2,,,,,,,,,1,,52,85
111840,note_on,0,0,2,,,,,,,,,1,,48,0
111840,note_on,0,0,2,,,,,,,,,1,,43,85
111840,note_on,240,0,2,,,,,,,,,1,,57,0
111840,note_on,0,0,2,,,,,,,,,1,,45,0
111840,note_on,0,0,2,,,,,,,,,1,,40,85
111840,note_on,0,0,2,,,,,,,,,1,,53,0
112080,note_on,0,0,2,,,,,,,,,1,,40,0
112080,note_on,240,0,2,,,,,,,,,1,,52,0
112080,note_on,240,0,1,,,,,,,,,0,,72,0
112080,note_on,0,0,1,,,,,,,,,0,,67,0
112080,note_on,0,0,2,,,,,,,,,1,,48,0
112080,note_on,0,0,2,,,,,,,,,1,,43,0
112320,note_on,240,0,2,,,,,,,,,1,,53,85
112320,note_on,0,0,2,,,,,,,,,1,,57,85
112320,note_on,0,0,2,,,,,,,,,1,,60,85
112320,note_on,0,0,2,,,,,,,,,1,,65,85
112320,note_on,240,0,1,,,,,,,,,0,,81,85
112320,note_on,0,0,1,,,,,,,,,0,,77,85
112440,note_on,0,0,1,,,,,,,,,0,,82,85
112440,note_on,120,0,1,,,,,,,,,0,,81,0
112556,text,116,1,1,,,,,,,,,,,,
112560,note_on,0,0,1,,,,,,,,,0,,76,85
112560,note_on,0,0,2,,,,,,,,,1,,67,85
112560,note_on,0,0,2,,,,,,,,,1,,64,85
112560,note_on,0,0,2,,,,,,,,,1,,60,85
112560,note_on,0,0,2,,,,,,,,,1,,60,0
112560,note_on,0,0,2,,,,,,,,,1,,57,0
112560,note_on,0,0,1,,,,,,,,,0,,81,85
112560,note_on,0,0,2,,,,,,,,,1,,53,0
112560,note_on,240,0,2,,,,,,,,,1,,65,0
112560,text,0,1,1,,,,,,,,,,,,
112560,note_on,0,0,1,,,,,,,,,0,,77,0
112560,note_on,4,0,1,,,,,,,,,0,,82,0
112636,note_on,76,0,1,,,,,,,,,0,,81,0
112640,note_on,4,0,1,,,,,,,,,0,,79,85
112676,note_on,36,0,1,,,,,,,,,0,,79,0
112680,note_on,4,0,1,,,,,,,,,0,,81,85
112716,note_on,36,0,1,,,,,,,,,0,,81,0
112720,note_on,4,0,1,,,,,,,,,0,,79,85
112756,note_on,36,0,1,,,,,,,,,0,,79,0
112760,note_on,4,0,1,,,,,,,,,0,,81,85
112796,note_on,36,0,1,,,,,,,,,0,,81,0
112800,note_on,4,0,1,,,,,,,,,0,,79,85
112916,note_on,116,0,1,,,,,,,,,0,,79,0
112924,note_on,8,0,1,,,,,,,,,0,,77,85
112980,note_on,56,0,1,,,,,,,,,0,,79,85
112984,note_on,4,0,1,,,,,,,,,0,,77,0
112992,note_on,8,0,1,,,,,,,,,0,,76,0
113040,note_on,0,0,1,,,,,,,,,0,,81,85
113040,note_on,0,0,1,,,,,,,,,0,,77,85
113040,note_on,0,0,1,,,,,,,,,0,,72,85
113040,note_on,48,0,1,,,,,,,,,0,,79,0
113040,note_on,0,0,2,,,,,,,,,1,,60,0
113040,note_on,0,0,2,,,,,,,,,1,,64,0
113040,note_on,0,0,2,,,,,,,,,1,,65,85
113040,note_on,480,0,2,,,,,,,,,1,,67,0
113040,note_on,0,0,2,,,,,,,,,1,,69,85
113280,note_on,240,0,1,,,,,,,,,0,,81,0
113280,note_on,0,0,2,,,,,,,,,1,,67,85
113280,note_on,0,0,2,,,,,,,,,1,,64,85
113280,note_on,240,0,2,,,,,,,,,1,,69,0
113280,note_on,0,0,1,,,,,,,,,0,,77,0
113280,note_on,0,0,2,,,,,,,,,1,,65,0
113280,note_on,0,0,1,,,,,,,,,0,,72,0
113280,note_on,0,0,1,,,,,,,,,0,,72,85
113280,note_on,0,0,1,,,,,,,,,0,,79,85
113520,note_on,0,0,2,,,,,,,,,1,,64,0
113520,note_on,240,0,2,,,,,,,,,1,,67,0
113520,note_on,240,0,1,,,,,,,,,0,,79,0
113520,note_on,0,0,1,,,,,,,,,0,,72,0
113760,note_on,0,0,2,,,,,,,,,1,,65,85
113760,note_on,240,0,1,,,,,,,,,0,,74,85
113760,note_on,0,0,1,,,,,,,,,0,,77,85
113760,note_on,240,0,2,,,,,,,,,1,,62,85
113792,note_on,32,0,1,,,,,,,,,0,,82,85
114000,note_on,0,0,2,,,,,,,,,1,,62,0
114000,note_on,0,0,2,,,,,,,,,1,,60,85
114000,note_on,208,0,1,,,,,,,,,0,,82,0
114000,note_on,0,0,1,,,,,,,,,0,,77,0
114000,note_on,0,0,2,,,,,,,,,1,,64,85
114000,note_on,0,0,2,,,,,,,,,1,,69,85
114000,note_on,240,0,2,,,,,,,,,1,,65,0
114000,note_on,0,0,1,,,,,,,,,0,,74,0
114000,note_on,0,0,1,,,,,,,,,0,,76,85
114004,note_on,4,0,1,,,,,,,,,0,,81,85
114324,note_on,320,0,1,,,,,,,,,0,,81,0
114360,note_on,36,0,1,,,,,,,,,0,,82,85
114476,text,116,1,1,,,,,,,,,,,,
114480,text,0,1,1,,,,,,,,,,,,
114480,note_on,0,0,2,,,,,,,,,1,,67,85
114480,note_on,0,0,2,,,,,,,,,1,,62,85
114480,note_on,0,0,2,,,,,,,,,1,,58,85
114480,note_on,0,0,2,,,,,,,,,1,,60,0
114480,note_on,0,0,2,,,,,,,,,1,,64,0
114480,note_on,480,0,2,,,,,,,,,1,,69,0
114480,note_on,0,0,1,,,,,,,,,0,,81,85
114480,note_on,0,0,1,,,,,,,,,0,,70,85
114480,note_on,0,0,1,,,,,,,,,0,,76,0
114480,note_on,4,0,1,,,,,,,,,0,,82,0
114480,note_on,0,0,1,,,,,,,,,0,,74,85
114556,note_on,76,0,1,,,,,,,,,0,,81,0
114560,note_on,4,0,1,,,,,,,,,0,,79,85
114596,note_on,36,0,1,,,,,,,,,0,,79,0
114600,note_on,4,0,1,,,,,,,,,0,,81,85
114636,note_on,36,0,1,,,,,,,,,0,,81,0
114640,note_on,4,0,1,,,,,,,,,0,,79,85
114676,note_on,36,0,1,,,,,,,,,0,,79,0
114680,note_on,4,0,1,,,,,,,,,0,,81,85
114716,note_on,36,0,1,,,,,,,,,0,,81,0
114720,note_on,4,0,1,,,,,,,,,0,,79,85
114956,note_on,236,0,1,,,,,,,,,0,,79,0
114960,note_on,0,0,2,,,,,,,,,1,,57,85
114960,note_on,0,0,2,,,,,,,,,1,,62,0
114960,note_on,4,0,1,,,,,,,,,0,,74,0
114960,note_on,0,0,1,,,,,,,,,0,,70,0
114960,note_on,0,0,1,,,,,,,,,0,,69,85
114960,note_on,0,0,1,,,,,,,,,0,,77,85
114960,note_on,0,0,1,,,,,,,,,0,,72,85
114960,note_on,480,0,2,,,,,,,,,1,,67,0
114960,note_on,0,0,2,,,,,,,,,1,,60,85
114960,note_on,0,0,2,,,,,,,,,1,,65,85
114960,note_on,0,0,2,,,,,,,,,1,,58,0
115200,note_on,240,0,2,,,,,,,,,1,,65,0
115200,note_on,0,0,2,,,,,,,,,1,,60,0
115200,note_on,0,0,2,,,,,,,,,1,,57,0
115200,note_on,0,0,1,,,,,,,,,0,,76,85
115200,note_on,0,0,2,,,,,,,,,1,,58,85
115200,note_on,0,0,1,,,,,,,,,0,,67,85
115200,note_on,0,0,1,,,,,,,,,0,,70,85
115200,note_on,0,0,1,,,,,,,,,0,,69,0
115200,note_on,0,0,1,,,,,,,,,0,,77,0
115200,note_on,240,0,1,,,,,,,,,0,,72,0
115200,note_on,0,0,2,,,,,,,,,1,,64,85
115200,note_on,0,0,2,,,,,,,,,1,,55,85
115440,note_on,0,0,1,,,,,,,,,0,,77,85
115440,note_on,0,0,2,,,,,,,,,1,,58,0
115440,note_on,0,0,2,,,,,,,,,1,,53,85
115440,note_on,0,0,1,,,,,,,,,0,,69,85
115440,note_on,240,0,2,,,,,,,,,1,,64,0
115440,note_on,0,0,1,,,,,,,,,0,,70,0
115440,note_on,0,0,1,,,,,,,,,0,,76,0
115440,note_on,240,0,1,,,,,,,,,0,,67,0
115440,note_on,0,0,2,,,,,,,,,1,,55,0
115456,note_on,16,0,2,,,,,,,,,1,,57,85
115456,note_on,16,0,1,,,,,,,,,0,,72,85
115472,note_on,16,0,2,,,,,,,,,1,,60,85
115620,note_on,0,0,1,,,,,,,,,0,,76,85
115620,note_on,164,0,1,,,,,,,,,0,,77,0
115680,note_on,0,0,1,,,,,,,,,0,,77,85
115680,note_on,60,0,1,,,,,,,,,0,,76,0
115800,note_on,120,0,1,,,,,,,,,0,,77,0
115800,note_on,0,0,1,,,,,,,,,0,,79,85
115872,note_on,72,0,1,,,,,,,,,0,,72,0
115872,note_on,400,0,2,,,,,,,,,1,,57,0
115888,note_on,16,0,2,,,,,,,,,1,,60,0
115920,note_on,0,0,2,,,,,,,,,1,,52,85
115920,note_on,48,0,1,,,,,,,,,0,,79,0
115920,note_on,32,0,2,,,,,,,,,1,,53,0
115920,note_on,0,0,1,,,,,,,,,0,,69,0
115920,note_on,0,0,1,,,,,,,,,0,,64,85
115936,note_on,16,0,1,,,,,,,,,0,,67,85
115936,note_on,16,0,2,,,,,,,,,1,,55,85
115952,note_on,16,0,1,,,,,,,,,0,,72,85
115952,note_on,16,0,2,,,,,,,,,1,,60,85
116160,note_on,208,0,2,,,,,,,,,1,,52,0
116160,note_on,0,0,2,,,,,,,,,1,,50,85
116400,note_on,240,0,2,,,,,,,,,1,,50,0
116400,note_on,0,0,2,,,,,,,,,1,,52,85
116592,note_on,192,0,2,,,,,,,,,1,,60,0
116608,note_on,0,0,1,,,,,,,,,0,,67,0
116608,note_on,656,0,1,,,,,,,,,0,,72,0
116624,note_on,32,0,2,,,,,,,,,1,,55,0
116640,note_on,0,0,1,,,,,,,,,0,,64,85
116640,note_on,0,0,2,,,,,,,,,1,,48,85
116640,note_on,32,0,1,,,,,,,,,0,,64,0
116640,note_on,16,0,2,,,,,,,,,1,,52,0
116656,note_on,16,0,1,,,,,,,,,0,,67,85
116656,note_on,16,0,2,,,,,,,,,1,,60,85
116864,note_on,208,0,1,,,,,,,,,0,,67,0
116880,note_on,0,0,2,,,,,,,,,1,,53,85
116880,note_on,224,0,2,,,,,,,,,1,,48,0
116880,note_on,16,0,1,,,,,,,,,0,,64,0
116880,note_on,0,0,1,,,,,,,,,0,,65,85
116880,note_on,0,0,1,,,,,,,,,0,,69,85
116896,note_on,16,0,2,,,,,,,,,1,,60,0
117000,note_on,0,0,1,,,,,,,,,0,,65,0
117000,note_on,0,0,1,,,,,,,,,0,,64,85
117000,note_on,0,0,1,,,,,,,,,0,,67,85
117000,note_on,120,0,1,,,,,,,,,0,,69,0
117120,note_on,224,0,2,,,,,,,,,1,,53,0
117120,note_on,0,0,2,,,,,,,,,1,,41,85
117120,note_on,0,0,1,,,,,,,,,0,,64,0
117120,note_on,0,0,1,,,,,,,,,0,,69,85
117120,note_on,0,0,1,,,,,,,,,0,,65,85
117120,note_on,120,0,1,,,,,,,,,0,,67,0
117240,note_on,0,0,1,,,,,,,,,0,,67,85
117240,note_on,0,0,1,,,,,,,,,0,,70,85
117240,note_on,0,0,1,,,,,,,,,0,,65,0
117240,note_on,120,0,1,,,,,,,,,0,,69,0
117360,note_on,0,0,1,,,,,,,,,0,,69,85
117360,note_on,240,0,2,,,,,,,,,1,,41,0
117360,note_on,0,0,1,,,,,,,,,0,,65,85
117360,note_on,0,0,1,,,,,,,,,0,,67,0
117360,note_on,120,0,1,,,,,,,,,0,,70,0
117360,note_on,0,0,2,,,,,,,,,1,,48,85
117376,note_on,16,0,1,,,,,,,,,0,,60,85
117420,text,44,1,1,,,,,,,,,,,,
117424,note_on,4,0,1,,,,,,,,,0,,69,0
117424,note_on,0,0,1,,,,,,,,,0,,65,0
117424,note_on,0,0,1,,,,,,,,,0,,64,85
117424,note_on,0,0,1,,,,,,,,,0,,69,85
117424,text,0,1,1,,,,,,,,,,,,
117500,note_on,76,0,1,,,,,,,,,0,,69,0
117504,note_on,4,0,1,,,,,,,,,0,,67,85
117540,note_on,36,0,1,,,,,,,,,0,,67,0
117544,note_on,4,0,1,,,,,,,,,0,,69,85
117580,note_on,36,0,1,,,,,,,,,0,,69,0
117584,note_on,4,0,1,,,,,,,,,0,,67,85
117600,note_on,0,0,2,,,,,,,,,1,,43,85
117600,note_on,240,0,2,,,,,,,,,1,,48,0
117620,note_on,36,0,1,,,,,,,,,0,,67,0
117624,note_on,4,0,1,,,,,,,,,0,,69,85
117660,note_on,36,0,1,,,,,,,,,0,,69,0
117664,note_on,4,0,1,,,,,,,,,0,,67,85
117797,set_tempo,6905,1,0,,,,,,1382807,,,,,,
117801,set_tempo,4,1,0,,,,,,1405481,,,,,,
117840,note_on,240,0,2,,,,,,,,,1,,43,0
117840,note_on,0,0,2,,,,,,,,,1,,36,85
117900,note_on,236,0,1,,,,,,,,,0,,67,0
118032,note_on,132,0,1,,,,,,,,,0,,64,0
118036,note_on,4,0,1,,,,,,,,,0,,60,0
118080,note_on,0,0,2,,,,,,,,,1,,48,85
118080,note_on,44,0,1,,,,,,,,,0,,64,85
118080,note_on,240,0,2,,,,,,,,,1,,36,0
118092,set_tempo,291,1,0,,,,,,461538,,,,,,
118200,note_on,0,0,1,,,,,,,,,0,,72,85
118200,note_on,120,0,1,,,,,,,,,0,,64,0
118320,note_on,240,0,2,,,,,,,,,1,,48,0
118320,note_on,0,0,1,,,,,,,,,0,,65,85
118320,note_on,120,0,1,,,,,,,,,0,,72,0
118320,note_on,0,0,2,,,,,,,,,1,,50,85
118440,note_on,0,0,1,,,,,,,,,0,,72,85
118440,note_on,120,0,1,,,,,,,,,0,,65,0
118560,note_on,0,0,2,,,,,,,,,1,,52,85
118560,note_on,0,0,1,,,,,,,,,0,,67,85
118560,note_on,120,0,1,,,,,,,,,0,,72,0
118560,note_on,240,0,2,,,,,,,,,1,,50,0
118680,note_on,0,0,1,,,,,,,,,0,,72,85
118680,note_on,120,0,1,,,,,,,,,0,,67,0
118800,note_on,240,0,2,,,,,,,,,1,,52,0
118800,note_on,0,0,2,,,,,,,,,1,,53,85
118800,note_on,0,0,1,,,,,,,,,0,,69,85
118800,note_on,120,0,1,,,,,,,,,0,,72,0
118920,note_on,0,0,1,,,,,,,,,0,,72,85
118920,note_on,120,0,1,,,,,,,,,0,,69,0
119040,note_on,120,0,1,,,,,,,,,0,,72,0
119040,note_on,0,0,2,,,,,,,,,1,,52,85
119040,note_on,0,0,1,,,,,,,,,0,,67,85
119040,note_on,240,0,2,,,,,,,,,1,,53,0
119160,note_on,120,0,1,,,,,,,,,0,,67,0
119160,note_on,0,0,1,,,,,,,,,0,,72,85
119280,note_on,0,0,2,,,,,,,,,1,,50,85
119280,note_on,240,0,2,,,,,,,,,1,,52,0
119280,note_on,120,0,1,,,,,,,,,0,,72,0
119280,note_on,0,0,1,,,,,,,,,0,,65,85
119400,note_on,0,0,1,,,,,,,,,0,,72,85
119400,note_on,120,0,1,,,,,,,,,0,,65,0
119520,note_on,120,0,1,,,,,,,,,0,,72,0
119520,note_on,240,0,2,,,,,,,,,1,,50,0
119520,note_on,0,0,2,,,,,,,,,1,,48,85
119520,note_on,0,0,1,,,,,,,,,0,,64,85
119640,note_on,120,0,1,,,,,,,,,0,,64,0
119640,note_on,0,0,1,,,,,,,,,0,,72,85
119760,note_on,0,0,1,,,,,,,,,0,,65,85
119760,note_on,0,0,2,,,,,,,,,1,,50,85
119760,note_on,240,0,2,,,,,,,,,1,,48,0
119760,note_on,120,0,1,,,,,,,,,0,,72,0
119880,note_on,120,0,1,,,,,,,,,0,,65,0
119880,note_on,0,0,1,,,,,,,,,0,,72,85
120000,note_on,0,0,2,,,,,,,,,1,,52,85
120000,note_on,120,0,1,,,,,,,,,0,,72,0
120000,note_on,0,0,1,,,,,,,,,0,,67,85
120000,note_on,240,0,2,,,,,,,,,1,,50,0
120120,note_on,120,0,1,,,,,,,,,0,,67,0
120120,note_on,0,0,1,,,,,,,,,0,,72,85
120240,note_on,0,0,2,,,,,,,,,1,,53,85
120240,note_on,120,0,1,,,,,,,,,0,,72,0
120240,note_on,0,0,1,,,,,,,,,0,,69,85
120240,note_on,240,0,2,,,,,,,,,1,,52,0
120360,note_on,120,0,1,,,,,,,,,0,,69,0
120360,note_on,0,0,1,,,,,,,,,0,,70,85
120480,note_on,120,0,1,,,,,,,,,0,,70,0
120480,note_on,0,0,1,,,,,,,,,0,,72,85
120480,note_on,240,0,2,,,,,,,,,1,,53,0
120480,note_on,0,0,2,,,,,,,,,1,,41,85
120600,note_on,0,0,1,,,,,,,,,0,,70,85
120600,note_on,120,0,1,,,,,,,,,0,,72,0
120720,note_on,240,0,2,,,,,,,,,1,,41,0
120720,note_on,0,0,1,,,,,,,,,0,,69,85
120720,note_on,120,0,1,,,,,,,,,0,,70,0
120840,note_on,0,0,1,,,,,,,,,0,,67,85
120840,note_on,120,0,1,,,,,,,,,0,,69,0
120960,note_on,240,0,2,,,,,,,,,1,,50,85
120960,note_on,0,0,1,,,,,,,,,0,,66,85
120960,note_on,120,0,1,,,,,,,,,0,,67,0
121080,note_on,120,0,1,,,,,,,,,0,,66,0
121080,note_on,0,0,1,,,,,,,,,0,,74,85
121200,note_on,0,0,1,,,,,,,,,0,,67,85
121200,note_on,120,0,1,,,,,,,,,0,,74,0
121200,note_on,0,0,2,,,,,,,,,1,,52,85
121200,note_on,240,0,2,,,,,,,,,1,,50,0
121320,note_on,0,0,1,,,,,,,,,0,,74,85
121320,note_on,120,0,1,,,,,,,,,0,,67,0
121440,note_on,120,0,1,,,,,,,,,0,,74,0
121440,note_on,0,0,2,,,,,,,,,1,,54,85
121440,note_on,240,0,2,,,,,,,,,1,,52,0
121440,note_on,0,0,1,,,,,,,,,0,,69,85
121560,note_on,0,0,1,,,,,,,,,0,,74,85
121560,note_on,120,0,1,,,,,,,,,0,,69,0
121680,note_on,120,0,1,,,,,,,,,0,,74,0
121680,note_on,0,0,1,,,,,,,,,0,,70,85
121680,note_on,0,0,2,,,,,,,,,1,,55,85
121680,note_on,240,0,2,,,,,,,,,1,,54,0
121800,note_on,120,0,1,,,,,,,,,0,,70,0
121800,note_on,0,0,1,,,,,,,,,0,,74,85
121920,note_on,120,0,1,,,,,,,,,0,,74,0
121920,note_on,0,0,1,,,,,,,,,0,,69,85
121920,note_on,240,0,2,,,,,,,,,1,,55,0
121920,note_on,0,0,2,,,,,,,,,1,,53,85
122040,note_on,0,0,1,,,,,,,,,0,,74,85
122040,note_on,120,0,1,,,,,,,,,0,,69,0
122160,note_on,240,0,2,,,,,,,,,1,,53,0
122160,note_on,120,0,1,,,,,,,,,0,,74,0
122160,note_on,0,0,1,,,,,,,,,0,,67,85
122160,note_on,0,0,2,,,,,,,,,1,,51,85
122280,note_on,120,0,1,,,,,,,,,0,,67,0
122280,note_on,0,0,1,,,,,,,,,0,,74,85
122400,note_on,240,0,2,,,,,,,,,1,,51,0
122400,note_on,0,0,2,,,,,,,,,1,,50,85
122400,note_on,120,0,1,,,,,,,,,0,,74,0
122400,note_on,0,0,1,,,,,,,,,0,,66,85
122520,note_on,120,0,1,,,,,,,,,0,,66,0
122520,note_on,0,0,1,,,,,,,,,0,,74,85
122640,note_on,0,0,1,,,,,,,,,0,,67,85
122640,note_on,240,0,2,,,,,,,,,1,,50,0
122640,note_on,120,0,1,,,,,,,,,0,,74,0
122640,note_on,0,0,2,,,,,,,,,1,,52,85
122760,note_on,120,0,1,,,,,,,,,0,,67,0
122760,note_on,0,0,1,,,,,,,,,0,,74,85
122880,note_on,0,0,1,,,,,,,,,0,,69,85
122880,note_on,120,0,1,,,,,,,,,0,,74,0
122880,note_on,240,0,2,,,,,,,,,1,,52,0
122880,note_on,0,0,2,,,,,,,,,1,,54,85
123000,note_on,120,0,1,,,,,,,,,0,,69,0
123000,note_on,0,0,1,,,,,,,,,0,,74,85
123120,note_on,240,0,2,,,,,,,,,1,,54,0
123120,note_on,0,0,2,,,,,,,,,1,,55,85
123120,note_on,0,0,1,,,,,,,,,0,,70,85
123120,note_on,120,0,1,,,,,,,,,0,,74,0
123240,note_on,120,0,1,,,,,,,,,0,,70,0
123240,note_on,0,0,1,,,,,,,,,0,,67,85
123360,note_on,0,0,2,,,,,,,,,1,,43,85
123360,note_on,240,0,2,,,,,,,,,1,,55,0
123360,note_on,0,0,1,,,,,,,,,0,,69,85
123360,note_on,120,0,1,,,,,,,,,0,,67,0
123480,note_on,120,0,1,,,,,,,,,0,,69,0
123480,note_on,0,0,1,,,,,,,,,0,,70,85
123600,note_on,120,0,1,,,,,,,,,0,,70,0
123600,note_on,0,0,1,,,,,,,,,0,,72,85
123600,note_on,240,0,2,,,,,,,,,1,,43,0
123720,note_on,120,0,1,,,,,,,,,0,,72,0
123720,note_on,0,0,1,,,,,,,,,0,,74,85
123836,set_tempo,5744,1,0,,,,,,500000,,,,,,
123840,note_on,120,0,1,,,,,,,,,0,,74,0
123840,note_on,0,0,1,,,,,,,,,0,,67,85
123840,note_on,0,0,1,,,,,,,,,0,,72,85
123840,note_on,240,0,2,,,,,,,,,1,,48,85
123840,note_on,0,0,1,,,,,,,,,0,,75,85
124076,text,236,1,1,,,,,,,,,,,,
124080,note_on,240,0,2,,,,,,,,,1,,48,0
124080,note_on,0,0,2,,,,,,,,,1,,53,85
124080,text,0,1,1,,,,,,,,,,,,
124080,note_on,0,0,1,,,,,,,,,0,,74,85
124080,note_on,0,0,1,,,,,,,,,0,,65,85
124080,note_on,0,0,1,,,,,,,,,0,,67,0
124080,note_on,0,0,1,,,,,,,,,0,,72,0
124080,note_on,4,0,1,,,,,,,,,0,,75,0
124084,note_on,4,0,1,,,,,,,,,0,,69,85
124156,note_on,72,0,1,,,,,,,,,0,,74,0
124160,note_on,4,0,1,,,,,,,,,0,,72,85
124196,note_on,36,0,1,,,,,,,,,0,,72,0
124200,note_on,4,0,1,,,,,,,,,0,,74,85
124236,note_on,36,0,1,,,,,,,,,0,,74,0
124240,note_on,4,0,1,,,,,,,,,0,,72,85
124276,note_on,36,0,1,,,,,,,,,0,,72,0
124280,note_on,4,0,1,,,,,,,,,0,,74,85
124316,note_on,36,0,1,,,,,,,,,0,,74,0
124320,note_on,4,0,1,,,,,,,,,0,,72,85
124320,note_on,0,0,2,,,,,,,,,1,,41,85
124320,note_on,240,0,2,,,,,,,,,1,,53,0
124436,note_on,116,0,1,,,,,,,,,0,,72,0
124440,note_on,4,0,1,,,,,,,,,0,,70,85
124484,note_on,44,0,1,,,,,,,,,0,,69,0
124500,note_on,16,0,1,,,,,,,,,0,,70,0
124500,note_on,0,0,1,,,,,,,,,0,,72,85
124560,note_on,60,0,1,,,,,,,,,0,,72,0
124560,note_on,0,0,1,,,,,,,,,0,,65,0
124560,note_on,0,0,1,,,,,,,,,0,,70,85
124560,note_on,240,0,2,,,,,,,,,1,,41,0
124560,note_on,0,0,2,,,,,,,,,1,,46,85
124564,note_on,4,0,1,,,,,,,,,0,,74,85
124800,note_on,0,0,1,,,,,,,,,0,,66,85
124800,note_on,236,0,1,,,,,,,,,0,,70,0
124800,note_on,240,0,2,,,,,,,,,1,,46,0
124800,note_on,0,0,2,,,,,,,,,1,,50,85
124804,note_on,4,0,1,,,,,,,,,0,,74,0
124804,note_on,0,0,1,,,,,,,,,0,,69,85
125012,note_on,208,0,1,,,,,,,,,0,,69,0
125040,note_on,28,0,1,,,,,,,,,0,,66,0
125040,note_on,240,0,2,,,,,,,,,1,,50,0
125040,note_on,0,0,1,,,,,,,,,0,,67,85
125040,note_on,0,0,1,,,,,,,,,0,,70,85
125040,note_on,0,0,2,,,,,,,,,1,,55,85
125120,note_on,80,0,1,,,,,,,,,0,,70,0
125120,note_on,0,0,1,,,,,,,,,0,,72,85
125160,note_on,0,0,1,,,,,,,,,0,,70,85
125160,note_on,40,0,1,,,,,,,,,0,,72,0
125200,note_on,40,0,1,,,,,,,,,0,,70,0
125200,note_on,0,0,1,,,,,,,,,0,,69,85
125240,note_on,40,0,1,,,,,,,,,0,,69,0
125264,note_on,24,0,1,,,,,,,,,0,,70,85
125280,note_on,240,0,2,,,,,,,,,1,,55,0
125280,note_on,0,0,2,,,,,,,,,1,,48,85
125392,note_on,128,0,1,,,,,,,,,0,,70,0
125400,note_on,0,0,1,,,,,,,,,0,,69,85
125400,note_on,0,0,1,,,,,,,,,0,,72,85
125400,note_on,8,0,1,,,,,,,,,0,,67,0
125516,text,116,1,1,,,,,,,,,,,,
125520,text,0,1,1,,,,,,,,,,,,
125520,note_on,0,0,1,,,,,,,,,0,,70,85
125520,note_on,0,0,1,,,,,,,,,0,,66,85
125520,note_on,0,0,1,,,,,,,,,0,,72,0
125520,note_on,4,0,1,,,,,,,,,0,,69,0
125520,note_on,0,0,2,,,,,,,,,1,,50,85
125520,note_on,240,0,2,,,,,,,,,1,,48,0
125596,note_on,76,0,1,,,,,,,,,0,,70,0
125600,note_on,4,0,1,,,,,,,,,0,,69,85
125636,note_on,36,0,1,,,,,,,,,0,,69,0
125640,note_on,4,0,1,,,,,,,,,0,,70,85
125676,note_on,36,0,1,,,,,,,,,0,,70,0
125680,note_on,4,0,1,,,,,,,,,0,,69,85
125716,note_on,36,0,1,,,,,,,,,0,,69,0
125720,note_on,4,0,1,,,,,,,,,0,,70,85
125756,note_on,36,0,1,,,,,,,,,0,,70,0
125760,note_on,0,0,2,,,,,,,,,1,,38,85
125760,note_on,240,0,2,,,,,,,,,1,,50,0
125760,note_on,4,0,1,,,,,,,,,0,,69,85
125876,note_on,116,0,1,,,,,,,,,0,,69,0
125880,note_on,4,0,1,,,,,,,,,0,,67,85
125984,set_tempo,2148,1,0,,,,,,618557,,,,,,
125993,set_tempo,9,1,0,,,,,,1071620,,,,,,
125997,set_tempo,4,1,0,,,,,,1058388,,,,,,
126000,note_on,120,0,1,,,,,,,,,0,,67,0
126000,note_on,0,0,1,,,,,,,,,0,,66,0
126000,note_on,0,0,1,,,,,,,,,0,,67,85
126000,note_on,240,0,2,,,,,,,,,1,,38,0
126000,note_on,0,0,2,,,,,,,,,1,,43,85
126032,note_on,32,0,2,,,,,,,,,1,,46,85
126064,note_on,32,0,2,,,,,,,,,1,,50,85
126065,set_tempo,68,1,0,,,,,,1045478,,,,,,
126096,note_on,32,0,2,,,,,,,,,1,,55,85
126120,note_on,0,0,1,,,,,,,,,0,,74,85
126120,note_on,120,0,1,,,,,,,,,0,,67,0
126141,set_tempo,76,1,0,,,,,,501295,,,,,,
126240,note_on,0,0,1,,,,,,,,,0,,76,85
126240,note_on,120,0,1,,,,,,,,,0,,74,0
126252,set_tempo,111,1,0,,,,,,500835,,,,,,
126360,note_on,0,0,1,,,,,,,,,0,,78,85
126360,note_on,120,0,1,,,,,,,,,0,,76,0
126464,note_on,368,0,2,,,,,,,,,1,,50,0
126480,note_on,0,0,2,,,,,,,,,1,,55,0
126480,note_on,0,0,2,,,,,,,,,1,,46,0
126480,note_on,16,0,2,,,,,,,,,1,,43,0
126480,note_on,120,0,1,,,,,,,,,0,,78,0
126480,note_on,0,0,1,,,,,,,,,0,,79,85
126488,set_tempo,236,1,0,,,,,,463679,,,,,,
126600,note_on,0,0,1,,,,,,,,,0,,81,85
126600,note_on,120,0,1,,,,,,,,,0,,79,0
126720,note_on,0,0,1,,,,,,,,,0,,82,85
126720,note_on,120,0,1,,,,,,,,,0,,81,0
126720,note_on,240,0,2,,,,,,,,,1,,55,85
126764,set_tempo,276,1,0,,,,,,461538,,,,,,
126840,note_on,120,0,1,,,,,,,,,0,,82,0
126840,note_on,0,0,1,,,,,,,,,0,,81,85
126960,note_on,240,0,2,,,,,,,,,1,,55,0
126960,note_on,0,0,2,,,,,,,,,1,,58,85
126960,note_on,120,0,1,,,,,,,,,0,,81,0
126960,note_on,0,0,1,,,,,,,,,0,,79,85
127080,note_on,120,0,1,,,,,,,,,0,,79,0
127080,note_on,0,0,1,,,,,,,,,0,,77,85
127200,note_on,240,0,2,,,,,,,,,1,,58,0
127200,note_on,0,0,2,,,,,,,,,1,,60,85
127200,note_on,120,0,1,,,,,,,,,0,,77,0
127200,note_on,0,0,1,,,,,,,,,0,,76,85
127320,note_on,120,0,1,,,,,,,,,0,,76,0
127320,note_on,0,0,1,,,,,,,,,0,,79,85
127440,note_on,120,0,1,,,,,,,,,0,,79,0
127440,note_on,240,0,2,,,,,,,,,1,,60,0
127440,note_on,0,0,2,,,,,,,,,1,,53,85
127440,note_on,0,0,1,,,,,,,,,0,,81,85
127560,note_on,0,0,1,,,,,,,,,0,,79,85
127560,note_on,120,0,1,,,,,,,,,0,,81,0
127680,note_on,240,0,2,,,,,,,,,1,,53,0
127680,note_on,0,0,2,,,,,,,,,1,,57,85
127680,note_on,0,0,1,,,,,,,,,0,,77,85
127680,note_on,120,0,1,,,,,,,,,0,,79,0
127800,note_on,0,0,1,,,,,,,,,0,,76,85
127800,note_on,120,0,1,,,,,,,,,0,,77,0
127920,note_on,0,0,1,,,,,,,,,0,,74,85
127920,note_on,120,0,1,,,,,,,,,0,,76,0
127920,note_on,0,0,2,,,,,,,,,1,,58,85
127920,note_on,240,0,2,,,,,,,,,1,,57,0
128040,note_on,0,0,1,,,,,,,,,0,,77,85
128040,note_on,120,0,1,,,,,,,,,0,,74,0
128160,note_on,120,0,1,,,,,,,,,0,,77,0
128160,note_on,0,0,1,,,,,,,,,0,,79,85
128160,note_on,240,0,2,,,,,,,,,1,,58,0
128160,note_on,0,0,2,,,,,,,,,1,,52,85
128280,note_on,120,0,1,,,,,,,,,0,,79,0
128280,note_on,0,0,1,,,,,,,,,0,,77,85
128400,note_on,120,0,1,,,,,,,,,0,,77,0
128400,note_on,0,0,1,,,,,,,,,0,,76,85
128400,note_on,0,0,2,,,,,,,,,1,,55,85
128400,note_on,240,0,2,,,,,,,,,1,,52,0
128520,note_on,120,0,1,,,,,,,,,0,,76,0
128520,note_on,0,0,1,,,,,,,,,0,,77,85
128640,note_on,120,0,1,,,,,,,,,0,,77,0
128640,note_on,240,0,2,,,,,,,,,1,,55,0
128640,note_on,0,0,1,,,,,,,,,0,,74,85
128640,note_on,0,0,2,,,,,,,,,1,,52,85
128760,note_on,0,0,1,,,,,,,,,0,,76,85
128760,note_on,120,0,1,,,,,,,,,0,,74,0
128880,note_on,0,0,2,,,,,,,,,1,,57,85
128880,note_on,0,0,1,,,,,,,,,0,,73,85
128880,note_on,120,0,1,,,,,,,,,0,,76,0
128880,note_on,240,0,2,,,,,,,,,1,,52,0
129000,note_on,0,0,1,,,,,,,,,0,,76,85
129000,note_on,120,0,1,,,,,,,,,0,,73,0
129120,note_on,240,0,2,,,,,,,,,1,,57,0
129120,note_on,120,0,1,,,,,,,,,0,,76,0
129120,note_on,0,0,1,,,,,,,,,0,,69,85
129120,note_on,0,0,2,,,,,,,,,1,,45,85
129240,note_on,120,0,1,,,,,,,,,0,,69,0
129240,note_on,0,0,1,,,,,,,,,0,,70,85
129360,note_on,240,0,2,,,,,,,,,1,,45,0
129360,note_on,120,0,1,,,,,,,,,0,,70,0
129360,note_on,0,0,1,,,,,,,,,0,,69,85
129480,note_on,120,0,1,,,,,,,,,0,,69,0
129480,note_on,0,0,1,,,,,,,,,0,,67,85
129600,note_on,120,0,1,,,,,,,,,0,,67,0
129600,note_on,0,0,1,,,,,,,,,0,,65,85
129720,note_on,0,0,1,,,,,,,,,0,,64,85
129720,note_on,120,0,1,,,,,,,,,0,,65,0
129840,note_on,120,0,1,,,,,,,,,0,,64,0
129840,note_on,0,0,1,,,,,,,,,0,,62,85
129960,note_on,120,0,1,,,,,,,,,0,,62,0
129960,note_on,0,0,1,,,,,,,,,0,,64,85
130080,note_on,120,0,1,,,,,,,,,0,,64,0
130080,note_on,0,0,1,,,,,,,,,0,,65,85
130200,note_on,120,0,1,,,,,,,,,0,,65,0
130200,note_on,0,0,1,,,,,,,,,0,,67,85
130320,note_on,0,0,1,,,,,,,,,0,,69,85
130320,note_on,120,0,1,,,,,,,,,0,,67,0
130440,note_on,0,0,1,,,,,,,,,0,,64,85
130440,note_on,120,0,1,,,,,,,,,0,,69,0
130560,note_on,120,0,1,,,,,,,,,0,,64,0
130560,note_on,0,0,1,,,,,,,,,0,,69,85
130680,note_on,0,0,1,,,,,,,,,0,,71,85
130680,note_on,120,0,1,,,,,,,,,0,,69,0
130800,note_on,0,0,1,,,,,,,,,0,,73,85
130800,note_on,120,0,1,,,,,,,,,0,,71,0
130920,note_on,0,0,1,,,,,,,,,0,,69,85
130920,note_on,120,0,1,,,,,,,,,0,,73,0
131040,note_on,0,0,1,,,,,,,,,0,,74,85
131040,note_on,120,0,1,,,,,,,,,0,,69,0
131160,note_on,120,0,1,,,,,,,,,0,,74,0
131160,note_on,0,0,1,,,,,,,,,0,,69,85
131280,note_on,0,0,1,,,,,,,,,0,,74,85
131280,note_on,120,0,1,,,,,,,,,0,,69,0
131400,note_on,120,0,1,,,,,,,,,0,,74,0
131400,note_on,0,0,1,,,,,,,,,0,,77,85
131520,note_on,120,0,1,,,,,,,,,0,,77,0
131520,note_on,0,0,1,,,,,,,,,0,,76,85
131640,note_on,0,0,1,,,,,,,,,0,,74,85
131640,note_on,120,0,1,,,,,,,,,0,,76,0
131760,note_on,0,0,1,,,,,,,,,0,,73,85
131760,note_on,120,0,1,,,,,,,,,0,,74,0
131880,note_on,0,0,1,,,,,,,,,0,,76,85
131880,note_on,120,0,1,,,,,,,,,0,,73,0
132000,note_on,2640,0,2,,,,,,,,,1,,61,85
132000,note_on,0,0,1,,,,,,,,,0,,81,85
132000,note_on,120,0,1,,,,,,,,,0,,76,0
132120,note_on,0,0,1,,,,,,,,,0,,79,85
132120,note_on,120,0,1,,,,,,,,,0,,81,0
132240,note_on,240,0,2,,,,,,,,,1,,61,0
132240,note_on,0,0,1,,,,,,,,,0,,77,85
132240,note_on,0,0,2,,,,,,,,,1,,57,85
132240,note_on,120,0,1,,,,,,,,,0,,79,0
132360,note_on,0,0,1,,,,,,,,,0,,76,85
132360,note_on,120,0,1,,,,,,,,,0,,77,0
132480,note_on,0,0,2,,,,,,,,,1,,62,85
132480,note_on,0,0,1,,,,,,,,,0,,77,85
132480,note_on,120,0,1,,,,,,,,,0,,76,0
132480,note_on,240,0,2,,,,,,,,,1,,57,0
132600,note_on,120,0,2,,,,,,,,,1,,62,0
132600,note_on,0,0,2,,,,,,,,,1,,65,85
132600,note_on,0,0,1,,,,,,,,,0,,81,85
132600,note_on,120,0,1,,,,,,,,,0,,77,0
132720,note_on,0,0,2,,,,,,,,,1,,64,85
132720,note_on,0,0,1,,,,,,,,,0,,79,85
132720,note_on,120,0,1,,,,,,,,,0,,81,0
132720,note_on,120,0,2,,,,,,,,,1,,65,0
132840,note_on,120,0,1,,,,,,,,,0,,79,0
132840,note_on,0,0,1,,,,,,,,,0,,81,85
132840,note_on,120,0,2,,,,,,,,,1,,64,0
132840,note_on,0,0,2,,,,,,,,,1,,65,85
132960,note_on,120,0,2,,,,,,,,,1,,65,0
132960,note_on,0,0,2,,,,,,,,,1,,62,85
132960,note_on,0,0,1,,,,,,,,,0,,77,85
132960,note_on,120,0,1,,,,,,,,,0,,81,0
133080,note_on,0,0,2,,,,,,,,,1,,65,85
133080,note_on,120,0,2,,,,,,,,,1,,62,0
133080,note_on,120,0,1,,,,,,,,,0,,77,0
133080,note_on,0,0,1,,,,,,,,,0,,81,85
133200,note_on,120,0,2,,,,,,,,,1,,65,0
133200,note_on,0,0,2,,,,,,,,,1,,58,85
133200,note_on,120,0,1,,,,,,,,,0,,81,0
133200,note_on,0,0,1,,,,,,,,,0,,74,85
133320,note_on,0,0,2,,,,,,,,,1,,67,85
133320,note_on,120,0,2,,,,,,,,,1,,58,0
133320,note_on,120,0,1,,,,,,,,,0,,74,0
133320,note_on,0,0,1,,,,,,,,,0,,82,85
133440,note_on,0,0,2,,,,,,,,,1,,65,85
133440,note_on,120,0,2,,,,,,,,,1,,67,0
133440,note_on,120,0,1,,,,,,,,,0,,82,0
133440,note_on,0,0,1,,,,,,,,,0,,81,85
133560,note_on,120,0,2,,,,,,,,,1,,65,0
133560,note_on,0,0,2,,,,,,,,,1,,67,85
133560,note_on,120,0,1,,,,,,,,,0,,81,0
133560,note_on,0,0,1,,,,,,,,,0,,82,85
133680,note_on,0,0,1,,,,,,,,,0,,74,85
133680,note_on,120,0,1,,,,,,,,,0,,82,0
133680,note_on,120,0,2,,,,,,,,,1,,67,0
133680,note_on,0,0,2,,,,,,,,,1,,58,85
133800,note_on,0,0,1,,,,,,,,,0,,82,85
133800,note_on,120,0,1,,,,,,,,,0,,74,0
133800,note_on,120,0,2,,,,,,,,,1,,58,0
133800,note_on,0,0,2,,,,,,,,,1,,67,85
133920,note_on,0,0,1,,,,,,,,,0,,76,85
133920,note_on,120,0,1,,,,,,,,,0,,82,0
133920,note_on,0,0,2,,,,,,,,,1,,60,85
133920,note_on,120,0,2,,,,,,,,,1,,67,0
134040,note_on,0,0,1,,,,,,,,,0,,79,85
134040,note_on,120,0,1,,,,,,,,,0,,76,0
134040,note_on,0,0,2,,,,,,,,,1,,64,85
134040,note_on,120,0,2,,,,,,,,,1,,60,0
134160,note_on,0,0,1,,,,,,,,,0,,77,85
134160,note_on,120,0,1,,,,,,,,,0,,79,0
134160,note_on,120,0,2,,,,,,,,,1,,64,0
134160,note_on,0,0,2,,,,,,,,,1,,62,85
134280,note_on,120,0,2,,,,,,,,,1,,62,0
134280,note_on,0,0,2,,,,,,,,,1,,64,85
134280,note_on,120,0,1,,,,,,,,,0,,77,0
134280,note_on,0,0,1,,,,,,,,,0,,79,85
134400,note_on,0,0,2,,,,,,,,,1,,60,85
134400,note_on,120,0,2,,,,,,,,,1,,64,0
134400,note_on,0,0,1,,,,,,,,,0,,76,85
134400,note_on,120,0,1,,,,,,,,,0,,79,0
134520,note_on,0,0,2,,,,,,,,,1,,64,85
134520,note_on,120,0,1,,,,,,,,,0,,76,0
134520,note_on,0,0,1,,,,,,,,,0,,79,85
134520,note_on,120,0,2,,,,,,,,,1,,60,0
134640,note_on,120,0,2,,,,,,,,,1,,64,0
134640,note_on,0,0,2,,,,,,,,,1,,57,85
134640,note_on,0,0,1,,,,,,,,,0,,72,85
134640,note_on,120,0,1,,,,,,,,,0,,79,0
134760,note_on,0,0,1,,,,,,,,,0,,81,85
134760,note_on,0,0,2,,,,,,,,,1,,65,85
134760,note_on,120,0,2,,,,,,,,,1,,57,0
134760,note_on,120,0,1,,,,,,,,,0,,72,0
134880,note_on,0,0,1,,,,,,,,,0,,79,85
134880,note_on,0,0,2,,,,,,,,,1,,64,85
134880,note_on,120,0,2,,,,,,,,,1,,65,0
134880,note_on,120,0,1,,,,,,,,,0,,81,0
135000,note_on,120,0,2,,,,,,,,,1,,64,0
135000,note_on,0,0,2,,,,,,,,,1,,65,85
135000,note_on,120,0,1,,,,,,,,,0,,79,0
135000,note_on,0,0,1,,,,,,,,,0,,81,85
135120,note_on,0,0,1,,,,,,,,,0,,72,85
135120,note_on,120,0,2,,,,,,,,,1,,65,0
135120,note_on,120,0,1,,,,,,,,,0,,81,0
135120,note_on,0,0,2,,,,,,,,,1,,57,85
135240,note_on,120,0,2,,,,,,,,,1,,57,0
135240,note_on,0,0,1,,,,,,,,,0,,81,85
135240,note_on,120,0,1,,,,,,,,,0,,72,0
135240,note_on,0,0,2,,,,,,,,,1,,65,85
135360,note_on,120,0,2,,,,,,,,,1,,65,0
135360,note_on,0,0,2,,,,,,,,,1,,58,85
135360,note_on,120,0,1,,,,,,,,,0,,81,0
135360,note_on,0,0,1,,,,,,,,,0,,74,85
135480,note_on,120,0,1,,,,,,,,,0,,74,0
135480,note_on,120,0,2,,,,,,,,,1,,58,0
135480,note_on,0,0,2,,,,,,,,,1,,62,85
135480,note_on,0,0,1,,,,,,,,,0,,77,85
135600,note_on,120,0,1,,,,,,,,,0,,77,0
135600,note_on,0,0,2,,,,,,,,,1,,60,85
135600,note_on,120,0,2,,,,,,,,,1,,62,0
135600,note_on,0,0,1,,,,,,,,,0,,76,85
135720,note_on,120,0,1,,,,,,,,,0,,76,0
135720,note_on,0,0,1,,,,,,,,,0,,77,85
135720,note_on,0,0,2,,,,,,,,,1,,62,85
135720,note_on,120,0,2,,,,,,,,,1,,60,0
135840,note_on,120,0,2,,,,,,,,,1,,62,0
135840,note_on,120,0,1,,,,,,,,,0,,77,0
135840,note_on,0,0,1,,,,,,,,,0,,74,85
135840,note_on,0,0,2,,,,,,,,,1,,58,85
135960,note_on,120,0,1,,,,,,,,,0,,74,0
135960,note_on,0,0,1,,,,,,,,,0,,77,85
135960,note_on,120,0,2,,,,,,,,,1,,58,0
135960,note_on,0,0,2,,,,,,,,,1,,62,85
136080,note_on,120,0,1,,,,,,,,,0,,77,0
136080,note_on,120,0,2,,,,,,,,,1,,62,0
136080,note_on,0,0,2,,,,,,,,,1,,55,85
136080,note_on,0,0,1,,,,,,,,,0,,70,85
136200,note_on,120,0,1,,,,,,,,,0,,70,0
136200,note_on,0,0,2,,,,,,,,,1,,64,85
136200,note_on,120,0,2,,,,,,,,,1,,55,0
136200,note_on,0,0,1,,,,,,,,,0,,79,85
136320,note_on,0,0,2,,,,,,,,,1,,62,85
136320,note_on,120,0,1,,,,,,,,,0,,79,0
136320,note_on,0,0,1,,,,,,,,,0,,77,85
136320,note_on,120,0,2,,,,,,,,,1,,64,0
136440,note_on,120,0,1,,,,,,,,,0,,77,0
136440,note_on,0,0,1,,,,,,,,,0,,79,85
136440,note_on,0,0,2,,,,,,,,,1,,64,85
136440,note_on,120,0,2,,,,,,,,,1,,62,0
136560,note_on,0,0,2,,,,,,,,,1,,55,85
136560,note_on,120,0,2,,,,,,,,,1,,64,0
136560,note_on,0,0,1,,,,,,,,,0,,76,85
136560,note_on,120,0,1,,,,,,,,,0,,79,0
136680,note_on,120,0,1,,,,,,,,,0,,76,0
136680,note_on,120,0,2,,,,,,,,,1,,55,0
136680,note_on,0,0,2,,,,,,,,,1,,64,85
136680,note_on,0,0,1,,,,,,,,,0,,79,85
136800,note_on,120,0,1,,,,,,,,,0,,79,0
136800,note_on,0,0,1,,,,,,,,,0,,73,85
136800,note_on,120,0,2,,,,,,,,,1,,64,0
136800,note_on,0,0,2,,,,,,,,,1,,57,85
136920,note_on,120,0,1,,,,,,,,,0,,73,0
136920,note_on,0,0,2,,,,,,,,,1,,64,85
136920,note_on,0,0,1,,,,,,,,,0,,79,85
136920,note_on,120,0,2,,,,,,,,,1,,57,0
137040,note_on,0,0,1,,,,,,,,,0,,77,85
137040,note_on,0,0,2,,,,,,,,,1,,62,85
137040,note_on,120,0,1,,,,,,,,,0,,79,0
137040,note_on,120,0,2,,,,,,,,,1,,64,0
137160,note_on,120,0,2,,,,,,,,,1,,62,0
137160,note_on,0,0,2,,,,,,,,,1,,64,85
137160,note_on,120,0,1,,,,,,,,,0,,77,0
137160,note_on,0,0,1,,,,,,,,,0,,79,85
137280,note_on,120,0,2,,,,,,,,,1,,64,0
137280,note_on,0,0,2,,,,,,,,,1,,59,85
137280,note_on,0,0,1,,,,,,,,,0,,74,85
137280,note_on,120,0,1,,,,,,,,,0,,79,0
137400,note_on,120,0,2,,,,,,,,,1,,59,0
137400,note_on,0,0,2,,,,,,,,,1,,64,85
137400,note_on,0,0,1,,,,,,,,,0,,79,85
137400,note_on,120,0,1,,,,,,,,,0,,74,0
137520,note_on,0,0,1,,,,,,,,,0,,76,85
137520,note_on,0,0,2,,,,,,,,,1,,61,85
137520,note_on,120,0,1,,,,,,,,,0,,79,0
137520,note_on,120,0,2,,,,,,,,,1,,64,0
137640,note_on,120,0,1,,,,,,,,,0,,76,0
137640,note_on,0,0,2,,,,,,,,,1,,64,85
137640,note_on,0,0,1,,,,,,,,,0,,79,85
137640,note_on,120,0,2,,,,,,,,,1,,61,0
137760,note_on,120,0,2,,,,,,,,,1,,64,0
137760,note_on,0,0,2,,,,,,,,,1,,59,85
137760,note_on,0,0,1,,,,,,,,,0,,74,85
137760,note_on,120,0,1,,,,,,,,,0,,79,0
137880,note_on,120,0,2,,,,,,,,,1,,59,0
137880,note_on,0,0,1,,,,,,,,,0,,79,85
137880,note_on,120,0,1,,,,,,,,,0,,74,0
137880,note_on,0,0,2,,,,,,,,,1,,64,85
138000,note_on,0,0,1,,,,,,,,,0,,76,85
138000,note_on,0,0,2,,,,,,,,,1,,61,85
138000,note_on,120,0,2,,,,,,,,,1,,64,0
138000,note_on,120,0,1,,,,,,,,,0,,79,0
138120,note_on,120,0,1,,,,,,,,,0,,76,0
138120,note_on,0,0,1,,,,,,,,,0,,79,85
138120,note_on,120,0,2,,,,,,,,,1,,61,0
138120,note_on,0,0,2,,,,,,,,,1,,64,85
138240,note_on,120,0,2,,,,,,,,,1,,64,0
138240,note_on,120,0,1,,,,,,,,,0,,79,0
138240,note_on,0,0,1,,,,,,,,,0,,77,85
138240,note_on,0,0,2,,,,,,,,,1,,62,85
138360,note_on,120,0,1,,,,,,,,,0,,69,85
138480,note_on,240,0,2,,,,,,,,,1,,62,0
138480,note_on,0,0,2,,,,,,,,,1,,53,85
138480,note_on,0,0,1,,,,,,,,,0,,67,85
138480,note_on,120,0,1,,,,,,,,,0,,69,0
138600,note_on,120,0,1,,,,,,,,,0,,67,0
138600,note_on,0,0,1,,,,,,,,,0,,69,85
138720,note_on,240,0,2,,,,,,,,,1,,53,0
138720,note_on,0,0,1,,,,,,,,,0,,65,85
138720,note_on,120,0,1,,,,,,,,,0,,69,0
138720,note_on,0,0,2,,,,,,,,,1,,50,85
138840,note_on,0,0,1,,,,,,,,,0,,69,85
138840,note_on,120,0,1,,,,,,,,,0,,65,0
138960,note_on,240,0,2,,,,,,,,,1,,50,0
138960,note_on,0,0,1,,,,,,,,,0,,70,85
138960,note_on,0,0,1,,,,,,,,,0,,77,0
138960,note_on,0,0,2,,,,,,,,,1,,55,85
138960,note_on,120,0,1,,,,,,,,,0,,69,0
139080,note_on,120,0,1,,,,,,,,,0,,74,85
139200,note_on,0,0,1,,,,,,,,,0,,67,85
139200,note_on,120,0,1,,,,,,,,,0,,74,0
139200,note_on,0,0,2,,,,,,,,,1,,58,85
139200,note_on,240,0,2,,,,,,,,,1,,55,0
139320,note_on,0,0,1,,,,,,,,,0,,74,85
139320,note_on,120,0,1,,,,,,,,,0,,67,0
139440,note_on,0,0,1,,,,,,,,,0,,79,85
139440,note_on,120,0,1,,,,,,,,,0,,74,0
139440,note_on,0,0,2,,,,,,,,,1,,55,85
139440,note_on,240,0,2,,,,,,,,,1,,58,0
139560,note_on,0,0,1,,,,,,,,,0,,74,85
139560,note_on,120,0,1,,,,,,,,,0,,79,0
139680,note_on,240,0,2,,,,,,,,,1,,55,0
139680,note_on,0,0,2,,,,,,,,,1,,60,85
139680,note_on,0,0,1,,,,,,,,,0,,76,85
139680,note_on,0,0,1,,,,,,,,,0,,70,0
139680,note_on,120,0,1,,,,,,,,,0,,74,0
139800,note_on,120,0,1,,,,,,,,,0,,67,85
139920,note_on,0,0,1,,,,,,,,,0,,65,85
139920,note_on,120,0,1,,,,,,,,,0,,67,0
139920,note_on,240,0,2,,,,,,,,,1,,60,0
139920,note_on,0,0,2,,,,,,,,,1,,52,85
140040,note_on,0,0,1,,,,,,,,,0,,67,85
140040,note_on,120,0,1,,,,,,,,,0,,65,0
140160,note_on,0,0,1,,,,,,,,,0,,64,85
140160,note_on,120,0,1,,,,,,,,,0,,67,0
140160,note_on,0,0,2,,,,,,,,,1,,48,85
140160,note_on,240,0,2,,,,,,,,,1,,52,0
140280,note_on,120,0,1,,,,,,,,,0,,64,0
140280,note_on,0,0,1,,,,,,,,,0,,67,85
140400,note_on,0,0,1,,,,,,,,,0,,76,0
140400,note_on,0,0,2,,,,,,,,,1,,53,85
140400,note_on,120,0,1,,,,,,,,,0,,67,0
140400,note_on,0,0,1,,,,,,,,,0,,69,85
140400,note_on,240,0,2,,,,,,,,,1,,48,0
140520,note_on,120,0,1,,,,,,,,,0,,72,85
140640,note_on,240,0,2,,,,,,,,,1,,53,0
140640,note_on,0,0,2,,,,,,,,,1,,57,85
140640,note_on,120,0,1,,,,,,,,,0,,72,0
140640,note_on,0,0,1,,,,,,,,,0,,65,85
140760,note_on,0,0,1,,,,,,,,,0,,72,85
140760,note_on,120,0,1,,,,,,,,,0,,65,0
140880,note_on,120,0,1,,,,,,,,,0,,72,0
140880,note_on,0,0,1,,,,,,,,,0,,77,85
140880,note_on,240,0,2,,,,,,,,,1,,57,0
140880,note_on,0,0,2,,,,,,,,,1,,53,85
141000,note_on,120,0,1,,,,,,,,,0,,77,0
141000,note_on,0,0,1,,,,,,,,,0,,72,85
141120,note_on,0,0,2,,,,,,,,,1,,58,85
141120,note_on,240,0,2,,,,,,,,,1,,53,0
141120,note_on,0,0,1,,,,,,,,,0,,74,85
141120,note_on,0,0,1,,,,,,,,,0,,69,0
141120,note_on,120,0,1,,,,,,,,,0,,72,0
141240,note_on,120,0,1,,,,,,,,,0,,65,85
141360,note_on,0,0,1,,,,,,,,,0,,64,85
141360,note_on,240,0,2,,,,,,,,,1,,58,0
141360,note_on,0,0,2,,,,,,,,,1,,62,85
141360,note_on,120,0,1,,,,,,,,,0,,65,0
141480,note_on,120,0,1,,,,,,,,,0,,64,0
141480,note_on,0,0,1,,,,,,,,,0,,65,85
141600,note_on,0,0,2,,,,,,,,,1,,58,85
141600,note_on,240,0,2,,,,,,,,,1,,62,0
141600,note_on,120,0,1,,,,,,,,,0,,65,0
141600,note_on,0,0,1,,,,,,,,,0,,62,85
141720,note_on,120,0,1,,,,,,,,,0,,62,0
141720,note_on,0,0,1,,,,,,,,,0,,72,85
141840,note_on,240,0,2,,,,,,,,,1,,58,0
141840,note_on,120,0,1,,,,,,,,,0,,72,0
141840,note_on,0,0,1,,,,,,,,,0,,74,0
141840,note_on,0,0,1,,,,,,,,,0,,70,85
141840,note_on,0,0,2,,,,,,,,,1,,55,85
141960,note_on,120,0,1,,,,,,,,,0,,70,0
141960,note_on,0,0,1,,,,,,,,,0,,69,85
142080,note_on,120,0,1,,,,,,,,,0,,69,0
142080,note_on,240,0,2,,,,,,,,,1,,55,0
142080,note_on,0,0,2,,,,,,,,,1,,58,85
142080,note_on,0,0,1,,,,,,,,,0,,67,85
142200,note_on,0,0,1,,,,,,,,,0,,65,85
142200,note_on,120,0,1,,,,,,,,,0,,67,0
142320,note_on,120,0,1,,,,,,,,,0,,65,0
142320,note_on,240,0,2,,,,,,,,,1,,58,0
142320,note_on,0,0,2,,,,,,,,,1,,55,85
142320,note_on,0,0,1,,,,,,,,,0,,64,85
142440,note_on,120,0,1,,,,,,,,,0,,64,0
142440,note_on,0,0,1,,,,,,,,,0,,62,85
142560,note_on,120,0,1,,,,,,,,,0,,62,0
142560,note_on,240,0,2,,,,,,,,,1,,55,0
142560,note_on,0,0,2,,,,,,,,,1,,57,85
142560,note_on,0,0,1,,,,,,,,,0,,61,85
142680,note_on,120,0,1,,,,,,,,,0,,61,0
142680,note_on,0,0,1,,,,,,,,,0,,64,85
142800,note_on,0,0,1,,,,,,,,,0,,67,85
142800,note_on,120,0,1,,,,,,,,,0,,64,0
142920,note_on,120,0,1,,,,,,,,,0,,67,0
142920,note_on,0,0,1,,,,,,,,,0,,70,85
143040,note_on,0,0,1,,,,,,,,,0,,69,85
143040,note_on,480,0,2,,,,,,,,,1,,57,0
143040,note_on,120,0,1,,,,,,,,,0,,70,0
143160,note_on,120,0,1,,,,,,,,,0,,69,0
143160,note_on,0,0,1,,,,,,,,,0,,67,85
143280,note_on,120,0,1,,,,,,,,,0,,67,0
143280,note_on,0,0,1,,,,,,,,,0,,65,85
143400,note_on,120,0,1,,,,,,,,,0,,65,0
143400,note_on,0,0,1,,,,,,,,,0,,69,85
143520,note_on,120,0,1,,,,,,,,,0,,69,0
143520,note_on,0,0,1,,,,,,,,,0,,74,85
143640,note_on,120,0,1,,,,,,,,,0,,74,0
143640,note_on,0,0,1,,,,,,,,,0,,77,85
143760,note_on,0,0,1,,,,,,,,,0,,76,85
143760,note_on,120,0,1,,,,,,,,,0,,77,0
143880,note_on,120,0,1,,,,,,,,,0,,76,0
143880,note_on,0,0,1,,,,,,,,,0,,74,85
144000,note_on,120,0,1,,,,,,,,,0,,74,0
144000,note_on,0,0,1,,,,,,,,,0,,73,85
144120,note_on,120,0,1,,,,,,,,,0,,73,0
144120,note_on,0,0,1,,,,,,,,,0,,76,85
144240,note_on,120,0,1,,,,,,,,,0,,76,0
144240,note_on,0,0,1,,,,,,,,,0,,79,85
144360,note_on,120,0,1,,,,,,,,,0,,79,0
144360,note_on,0,0,1,,,,,,,,,0,,82,85
144480,note_on,120,0,1,,,,,,,,,0,,82,0
144480,note_on,0,0,1,,,,,,,,,0,,81,85
144600,note_on,120,0,1,,,,,,,,,0,,81,0
144600,note_on,0,0,1,,,,,,,,,0,,79,85
144720,note_on,120,0,1,,,,,,,,,0,,79,0
144720,note_on,0,0,1,,,,,,,,,0,,77,85
144840,note_on,120,0,1,,,,,,,,,0,,77,0
144840,note_on,0,0,1,,,,,,,,,0,,69,85
144960,note_on,0,0,1,,,,,,,,,0,,74,85
144960,note_on,120,0,1,,,,,,,,,0,,69,0
145080,note_on,0,0,1,,,,,,,,,0,,77,85
145080,note_on,120,0,1,,,,,,,,,0,,74,0
145200,note_on,0,0,1,,,,,,,,,0,,76,85
145200,note_on,120,0,1,,,,,,,,,0,,77,0
145320,note_on,0,0,1,,,,,,,,,0,,74,85
145320,note_on,120,0,1,,,,,,,,,0,,76,0
145440,note_on,0,0,1,,,,,,,,,0,,73,85
145440,note_on,120,0,1,,,,,,,,,0,,74,0
145560,note_on,0,0,1,,,,,,,,,0,,76,85
145560,note_on,120,0,1,,,,,,,,,0,,73,0
145680,note_on,0,0,1,,,,,,,,,0,,69,85
145680,note_on,120,0,1,,,,,,,,,0,,76,0
145800,note_on,0,0,1,,,,,,,,,0,,67,85
145800,note_on,120,0,1,,,,,,,,,0,,69,0
145920,note_on,0,0,1,,,,,,,,,0,,65,85
145920,note_on,120,0,1,,,,,,,,,0,,67,0
146040,note_on,0,0,1,,,,,,,,,0,,64,85
146040,note_on,120,0,1,,,,,,,,,0,,65,0
146160,note_on,0,0,1,,,,,,,,,0,,65,85
146160,note_on,120,0,1,,,,,,,,,0,,64,0
146280,note_on,0,0,1,,,,,,,,,0,,69,85
146280,note_on,120,0,1,,,,,,,,,0,,65,0
146400,note_on,0,0,1,,,,,,,,,0,,67,85
146400,note_on,120,0,1,,,,,,,,,0,,69,0
146520,note_on,120,0,1,,,,,,,,,0,,67,0
146520,note_on,0,0,1,,,,,,,,,0,,65,85
146640,note_on,120,0,1,,,,,,,,,0,,65,0
146640,note_on,0,0,1,,,,,,,,,0,,64,85
146760,note_on,120,0,1,,,,,,,,,0,,64,0
146760,note_on,0,0,1,,,,,,,,,0,,62,85
146880,note_on,0,0,1,,,,,,,,,0,,61,85
146880,note_on,120,0,1,,,,,,,,,0,,62,0
147000,note_on,0,0,1,,,,,,,,,0,,64,85
147000,note_on,120,0,1,,,,,,,,,0,,61,0
147120,note_on,120,0,1,,,,,,,,,0,,64,0
147120,note_on,4080,0,2,,,,,,,,,1,,57,85
147240,note_on,0,0,2,,,,,,,,,1,,55,85
147240,note_on,120,0,2,,,,,,,,,1,,57,0
147360,note_on,0,0,2,,,,,,,,,1,,53,85
147360,note_on,120,0,2,,,,,,,,,1,,55,0
147480,note_on,120,0,2,,,,,,,,,1,,53,0
147480,note_on,0,0,2,,,,,,,,,1,,52,85
147600,note_on,0,0,2,,,,,,,,,1,,53,85
147600,note_on,120,0,2,,,,,,,,,1,,52,0
147720,note_on,0,0,2,,,,,,,,,1,,57,85
147720,note_on,120,0,2,,,,,,,,,1,,53,0
147840,note_on,120,0,2,,,,,,,,,1,,57,0
147840,note_on,0,0,2,,,,,,,,,1,,55,85
147960,note_on,120,0,2,,,,,,,,,1,,55,0
147960,note_on,0,0,2,,,,,,,,,1,,53,85
148080,note_on,0,0,2,,,,,,,,,1,,52,85
148080,note_on,120,0,2,,,,,,,,,1,,53,0
148200,note_on,0,0,2,,,,,,,,,1,,50,85
148200,note_on,120,0,2,,,,,,,,,1,,52,0
148320,note_on,120,0,2,,,,,,,,,1,,50,0
148320,note_on,0,0,2,,,,,,,,,1,,49,85
148440,note_on,120,0,2,,,,,,,,,1,,49,0
148440,note_on,0,0,2,,,,,,,,,1,,47,85
148560,note_on,0,0,2,,,,,,,,,1,,45,85
148560,note_on,120,0,2,,,,,,,,,1,,47,0
148672,note_on,112,0,2,,,,,,,,,1,,43,85
148688,note_on,16,0,2,,,,,,,,,1,,45,0
148800,note_on,112,0,2,,,,,,,,,1,,43,0
148800,note_on,0,0,2,,,,,,,,,1,,41,85
148920,note_on,0,0,2,,,,,,,,,1,,40,85
148920,note_on,120,0,2,,,,,,,,,1,,41,0
149040,note_on,1920,0,1,,,,,,,,,0,,74,85
149040,note_on,0,0,1,,,,,,,,,0,,65,85
149040,note_on,0,0,1,,,,,,,,,0,,69,85
149040,note_on,0,0,2,,,,,,,,,1,,38,85
149040,note_on,120,0,2,,,,,,,,,1,,40,0
149040,note_on,0,0,2,,,,,,,,,1,,50,85
149048,set_tempo,22284,1,0,,,,,,600000,,,,,,
149160,note_on,0,0,1,,,,,,,,,0,,76,85
149160,note_on,120,0,1,,,,,,,,,0,,74,0
149276,text,116,1,1,,,,,,,,,,,,
149280,text,0,1,1,,,,,,,,,,,,
149280,note_on,0,0,2,,,,,,,,,1,,61,85
149280,note_on,0,0,2,,,,,,,,,1,,38,0
149280,note_on,240,0,2,,,,,,,,,1,,50,0
149280,note_on,0,0,2,,,,,,,,,1,,55,85
149280,note_on,4,0,1,,,,,,,,,0,,76,0
149280,note_on,0,0,1,,,,,,,,,0,,69,0
149280,note_on,0,0,1,,,,,,,,,0,,65,0
149280,note_on,0,0,1,,,,,,,,,0,,67,85
149280,note_on,0,0,1,,,,,,,,,0,,74,85
149280,note_on,0,0,2,,,,,,,,,1,,52,85
149356,note_on,76,0,1,,,,,,,,,0,,74,0
149360,note_on,4,0,1,,,,,,,,,0,,73,85
149396,note_on,36,0,1,,,,,,,,,0,,73,0
149400,note_on,4,0,1,,,,,,,,,0,,74,85
149436,note_on,36,0,1,,,,,,,,,0,,74,0
149440,note_on,4,0,1,,,,,,,,,0,,73,85
149476,note_on,36,0,1,,,,,,,,,0,,73,0
149480,note_on,4,0,1,,,,,,,,,0,,74,85
149516,note_on,36,0,1,,,,,,,,,0,,74,0
149520,note_on,4,0,1,,,,,,,,,0,,73,85
149636,note_on,116,0,1,,,,,,,,,0,,73,0
149640,note_on,4,0,1,,,,,,,,,0,,71,85
149700,note_on,0,0,1,,,,,,,,,0,,73,85
149700,note_on,60,0,1,,,,,,,,,0,,71,0
149760,note_on,0,0,1,,,,,,,,,0,,69,85
149760,note_on,0,0,2,,,,,,,,,1,,52,0
149760,note_on,0,0,2,,,,,,,,,1,,55,0
149760,note_on,0,0,2,,,,,,,,,1,,62,85
149760,note_on,480,0,2,,,,,,,,,1,,61,0
149760,note_on,0,0,2,,,,,,,,,1,,57,85
149760,note_on,0,0,1,,,,,,,,,0,,65,85
149760,note_on,0,0,1,,,,,,,,,0,,67,0
149760,note_on,60,0,1,,,,,,,,,0,,73,0
149760,note_on,0,0,2,,,,,,,,,1,,53,85
149764,note_on,4,0,1,,,,,,,,,0,,74,85
149956,note_on,192,0,1,,,,,,,,,0,,74,0
150000,note_on,44,0,1,,,,,,,,,0,,69,0
150000,note_on,240,0,2,,,,,,,,,1,,62,0
150000,note_on,0,0,2,,,,,,,,,1,,57,0
150000,note_on,0,0,2,,,,,,,,,1,,53,0
150000,note_on,0,0,2,,,,,,,,,1,,52,85
150000,note_on,0,0,2,,,,,,,,,1,,57,85
150000,note_on,0,0,1,,,,,,,,,0,,64,85
150000,note_on,0,0,1,,,,,,,,,0,,69,85
150000,note_on,0,0,1,,,,,,,,,0,,65,0
150000,note_on,0,0,2,,,,,,,,,1,,49,85
150000,note_on,0,0,1,,,,,,,,,0,,61,85
150240,note_on,0,0,2,,,,,,,,,1,,49,0
150240,note_on,240,0,1,,,,,,,,,0,,64,0
150240,note_on,0,0,1,,,,,,,,,0,,61,0
150240,note_on,0,0,2,,,,,,,,,1,,52,0
150240,note_on,0,0,1,,,,,,,,,0,,69,0
150240,note_on,240,0,2,,,,,,,,,1,,57,0
150480,note_on,0,0,1,,,,,,,,,0,,77,85
150480,note_on,240,0,1,,,,,,,,,0,,69,85
150480,note_on,0,0,2,,,,,,,,,1,,62,85
150480,note_on,0,0,2,,,,,,,,,1,,57,85
150480,note_on,0,0,2,,,,,,,,,1,,53,85
150480,note_on,240,0,2,,,,,,,,,1,,50,85
150484,note_on,4,0,1,,,,,,,,,0,,74,85
150600,note_on,0,0,1,,,,,,,,,0,,79,85
150600,note_on,116,0,1,,,,,,,,,0,,77,0
150708,note_on,108,0,1,,,,,,,,,0,,74,0
150716,text,8,1,1,,,,,,,,,,,,
150720,note_on,0,0,2,,,,,,,,,1,,50,0
150720,note_on,0,0,2,,,,,,,,,1,,53,0
150720,note_on,0,0,2,,,,,,,,,1,,57,0
150720,note_on,0,0,2,,,,,,,,,1,,57,85
150720,note_on,0,0,2,,,,,,,,,1,,61,85
150720,note_on,0,0,2,,,,,,,,,1,,64,85
150720,note_on,0,0,1,,,,,,,,,0,,69,0
150720,note_on,4,0,1,,,,,,,,,0,,79,0
150720,text,0,1,1,,,,,,,,,,,,
150720,note_on,0,0,1,,,,,,,,,0,,73,85
150720,note_on,240,0,2,,,,,,,,,1,,62,0
150720,note_on,0,0,1,,,,,,,,,0,,77,85
150796,note_on,76,0,1,,,,,,,,,0,,77,0
150800,note_on,4,0,1,,,,,,,,,0,,76,85
150836,note_on,36,0,1,,,,,,,,,0,,76,0
150840,note_on,4,0,1,,,,,,,,,0,,77,85
150876,note_on,36,0,1,,,,,,,,,0,,77,0
150880,note_on,4,0,1,,,,,,,,,0,,76,85
150916,note_on,36,0,1,,,,,,,,,0,,76,0
150920,note_on,4,0,1,,,,,,,,,0,,77,85
150956,note_on,36,0,1,,,,,,,,,0,,77,0
150960,note_on,4,0,1,,,,,,,,,0,,76,85
151076,note_on,116,0,1,,,,,,,,,0,,76,0
151080,note_on,4,0,1,,,,,,,,,0,,74,85
151140,note_on,60,0,1,,,,,,,,,0,,74,0
151140,note_on,0,0,1,,,,,,,,,0,,76,85
151168,note_on,28,0,1,,,,,,,,,0,,73,0
151200,note_on,480,0,2,,,,,,,,,1,,64,0
151200,note_on,0,0,2,,,,,,,,,1,,61,0
151200,note_on,0,0,1,,,,,,,,,0,,69,85
151200,note_on,0,0,1,,,,,,,,,0,,74,85
151200,note_on,0,0,1,,,,,,,,,0,,77,85
151200,note_on,32,0,1,,,,,,,,,0,,76,0
151200,note_on,0,0,2,,,,,,,,,1,,57,0
151200,note_on,0,0,2,,,,,,,,,1,,62,85
151440,note_on,0,0,1,,,,,,,,,0,,69,0
151440,note_on,0,0,2,,,,,,,,,1,,62,85
151440,note_on,0,0,2,,,,,,,,,1,,57,85
151440,note_on,0,0,2,,,,,,,,,1,,53,85
151440,note_on,0,0,2,,,,,,,,,1,,50,85
151440,note_on,0,0,1,,,,,,,,,0,,65,85
151440,note_on,240,0,2,,,,,,,,,1,,62,0
151440,note_on,0,0,1,,,,,,,,,0,,74,85
151440,note_on,240,0,1,,,,,,,,,0,,77,0
151440,note_on,0,0,1,,,,,,,,,0,,74,0
151680,note_on,0,0,1,,,,,,,,,0,,65,0
151680,note_on,240,0,1,,,,,,,,,0,,74,0
151680,note_on,240,0,2,,,,,,,,,1,,62,0
151680,note_on,0,0,2,,,,,,,,,1,,50,0
151680,note_on,0,0,2,,,,,,,,,1,,53,0
151680,note_on,0,0,2,,,,,,,,,1,,57,0
151920,note_on,240,0,1,,,,,,,,,0,,82,85
151920,note_on,240,0,2,,,,,,,,,1,,55,85
151920,note_on,0,0,1,,,,,,,,,0,,74,85
151936,note_on,16,0,2,,,,,,,,,1,,62,85
152160,note_on,224,0,2,,,,,,,,,1,,62,0
152160,note_on,0,0,1,,,,,,,,,0,,81,85
152160,note_on,0,0,2,,,,,,,,,1,,58,85
152160,note_on,240,0,1,,,,,,,,,0,,74,0
152160,note_on,0,0,1,,,,,,,,,0,,82,0
152160,note_on,0,0,2,,,,,,,,,1,,55,0
152280,note_on,120,0,1,,,,,,,,,0,,81,0
152280,note_on,0,0,1,,,,,,,,,0,,79,85
152400,note_on,240,0,2,,,,,,,,,1,,58,0
152400,note_on,0,0,2,,,,,,,,,1,,55,85
152400,note_on,0,0,1,,,,,,,,,0,,77,85
152400,note_on,120,0,1,,,,,,,,,0,,79,0
152520,note_on,120,0,1,,,,,,,,,0,,77,0
152520,note_on,0,0,1,,,,,,,,,0,,76,85
152640,note_on,240,0,2,,,,,,,,,1,,55,0
152640,note_on,0,0,2,,,,,,,,,1,,57,85
152640,note_on,0,0,1,,,,,,,,,0,,74,85
152640,note_on,120,0,1,,,,,,,,,0,,76,0
152760,note_on,0,0,1,,,,,,,,,0,,73,85
152760,note_on,120,0,1,,,,,,,,,0,,74,0
152880,note_on,0,0,1,,,,,,,,,0,,71,85
152880,note_on,240,0,2,,,,,,,,,1,,57,0
152880,note_on,120,0,1,,,,,,,,,0,,73,0
152880,note_on,0,0,2,,,,,,,,,1,,53,85
153000,note_on,120,0,1,,,,,,,,,0,,71,0
153000,note_on,0,0,1,,,,,,,,,0,,69,85
153104,set_tempo,4056,1,0,,,,,,710900,,,,,,
153120,note_on,0,0,1,,,,,,,,,0,,67,85
153120,note_on,120,0,1,,,,,,,,,0,,69,0
153120,note_on,240,0,2,,,,,,,,,1,,53,0
153120,note_on,0,0,2,,,,,,,,,1,,58,85
153136,note_on,16,0,2,,,,,,,,,1,,62,85
153136,note_on,16,0,1,,,,,,,,,0,,74,85
153152,note_on,16,0,1,,,,,,,,,0,,79,85
153328,note_on,0,0,1,,,,,,,,,0,,74,0
153328,note_on,176,0,1,,,,,,,,,0,,79,0
153360,note_on,224,0,2,,,,,,,,,1,,62,0
153360,note_on,0,0,2,,,,,,,,,1,,58,0
153360,note_on,0,0,2,,,,,,,,,1,,55,85
153360,note_on,0,0,1,,,,,,,,,0,,77,85
153360,note_on,32,0,1,,,,,,,,,0,,67,0
153376,note_on,16,0,1,,,,,,,,,0,,70,85
153376,set_tempo,272,1,0,,,,,,828729,,,,,,
153392,note_on,16,0,1,,,,,,,,,0,,74,85
153480,note_on,88,0,1,,,,,,,,,0,,77,0
153480,note_on,0,0,1,,,,,,,,,0,,76,85
153584,note_on,104,0,1,,,,,,,,,0,,74,0
153584,note_on,0,0,1,,,,,,,,,0,,70,0
153600,note_on,0,0,2,,,,,,,,,1,,57,85
153600,note_on,16,0,1,,,,,,,,,0,,76,0
153600,note_on,240,0,2,,,,,,,,,1,,55,0
153616,note_on,16,0,1,,,,,,,,,0,,69,85
153616,set_tempo,240,1,0,,,,,,974026,,,,,,
153632,note_on,16,0,1,,,,,,,,,0,,74,85
153648,note_on,16,0,1,,,,,,,,,0,,77,85
153808,note_on,160,0,1,,,,,,,,,0,,69,0
153824,note_on,16,0,1,,,,,,,,,0,,74,0
153840,note_on,240,0,2,,,,,,,,,1,,57,0
153840,note_on,0,0,2,,,,,,,,,1,,45,85
153840,set_tempo,224,1,0,,,,,,1224490,,,,,,
153840,note_on,16,0,1,,,,,,,,,0,,77,0
153840,note_on,0,0,1,,,,,,,,,0,,76,85
153840,note_on,0,0,1,,,,,,,,,0,,67,85
153856,note_on,16,0,1,,,,,,,,,0,,73,85
153960,note_on,0,0,1,,,,,,,,,0,,74,85
153960,note_on,104,0,1,,,,,,,,,0,,76,0
154016,note_on,56,0,1,,,,,,,,,0,,67,0
154048,note_on,0,0,1,,,,,,,,,0,,73,0
154048,note_on,32,0,1,,,,,,,,,0,,74,0
154080,note_on,240,0,2,,,,,,,,,1,,45,0
154080,note_on,32,0,1,,,,,,,,,0,,65,85
154080,note_on,0,0,2,,,,,,,,,1,,38,85
154096,note_on,16,0,2,,,,,,,,,1,,50,85
154096,note_on,16,0,1,,,,,,,,,0,,69,85
154112,note_on,16,0,1,,,,,,,,,0,,74,85
154784,note_on,688,0,2,,,,,,,,,1,,50,0
154784,note_on,672,0,1,,,,,,,,,0,,74,0
154784,note_on,0,0,1,,,,,,,,,0,,69,0
154800,note_on,16,0,2,,,,,,,,,1,,38,0
154800,note_on,16,0,1,,,,,,,,,0,,65,0
154800,note_on,0,0,1,,,,,,,,,0,,69,85
154800,marker,0,1,0,,,,,,,,,,,,
154800,set_tempo,960,1,0,,,,,,983607,,,,,,
154800,note_on,0,0,1,,,,,,,,,0,,73,85
154816,set_tempo,16,1,0,,,,,,461538,,,,,,
154920,note_on,0,0,1,,,,,,,,,0,,81,85
154920,note_on,120,0,1,,,,,,,,,0,,73,0
155040,note_on,120,0,1,,,,,,,,,0,,81,0
155040,note_on,0,0,1,,,,,,,,,0,,69,0
155040,note_on,0,0,1,,,,,,,,,0,,74,85
155040,note_on,0,0,1,,,,,,,,,0,,71,85
155160,note_on,120,0,1,,,,,,,,,0,,74,0
155160,note_on,0,0,1,,,,,,,,,0,,81,85
155280,note_on,0,0,1,,,,,,,,,0,,76,85
155280,note_on,0,0,1,,,,,,,,,0,,73,85
155280,note_on,0,0,1,,,,,,,,,0,,71,0
155280,note_on,120,0,1,,,,,,,,,0,,81,0
155400,note_on,120,0,1,,,,,,,,,0,,76,0
155400,note_on,0,0,1,,,,,,,,,0,,81,85
155520,note_on,0,0,1,,,,,,,,,0,,73,0
155520,note_on,0,0,1,,,,,,,,,0,,77,85
155520,note_on,0,0,1,,,,,,,,,0,,74,85
155520,note_on,120,0,1,,,,,,,,,0,,81,0
155640,note_on,0,0,1,,,,,,,,,0,,81,85
155640,note_on,120,0,1,,,,,,,,,0,,77,0
155760,note_on,0,0,1,,,,,,,,,0,,72,85
155760,note_on,0,0,1,,,,,,,,,0,,76,85
155760,note_on,0,0,1,,,,,,,,,0,,74,0
155760,note_on,120,0,1,,,,,,,,,0,,81,0
155880,note_on,120,0,1,,,,,,,,,0,,76,0
155880,note_on,0,0,1,,,,,,,,,0,,81,85
156000,note_on,120,0,1,,,,,,,,,0,,81,0
156000,note_on,0,0,1,,,,,,,,,0,,72,0
156000,note_on,0,0,1,,,,,,,,,0,,74,85
156000,note_on,0,0,1,,,,,,,,,0,,70,85
156120,note_on,0,0,1,,,,,,,,,0,,81,85
156120,note_on,120,0,1,,,,,,,,,0,,74,0
156240,note_on,0,0,1,,,,,,,,,0,,73,85
156240,note_on,0,0,1,,,,,,,,,0,,69,85
156240,note_on,120,0,1,,,,,,,,,0,,81,0
156240,note_on,0,0,1,,,,,,,,,0,,70,0
156360,note_on,0,0,1,,,,,,,,,0,,81,85
156360,note_on,120,0,1,,,,,,,,,0,,73,0
156480,note_on,0,0,1,,,,,,,,,0,,71,85
156480,note_on,0,0,1,,,,,,,,,0,,74,85
156480,note_on,0,0,1,,,,,,,,,0,,69,0
156480,note_on,120,0,1,,,,,,,,,0,,81,0
156600,note_on,0,0,1,,,,,,,,,0,,81,85
156600,note_on,120,0,1,,,,,,,,,0,,74,0
156720,note_on,0,0,1,,,,,,,,,0,,73,85
156720,note_on,0,0,1,,,,,,,,,0,,71,0
156720,note_on,120,0,1,,,,,,,,,0,,81,0
156720,note_on,0,0,1,,,,,,,,,0,,76,85
156840,note_on,120,0,1,,,,,,,,,0,,76,0
156840,note_on,0,0,1,,,,,,,,,0,,81,85
156960,note_on,120,0,1,,,,,,,,,0,,81,0
156960,note_on,0,0,1,,,,,,,,,0,,77,85
156960,note_on,0,0,1,,,,,,,,,0,,74,85
156960,note_on,0,0,1,,,,,,,,,0,,73,0
157080,note_on,0,0,1,,,,,,,,,0,,81,85
157080,note_on,120,0,1,,,,,,,,,0,,77,0
157200,note_on,0,0,1,,,,,,,,,0,,74,85
157200,note_on,0,0,1,,,,,,,,,0,,74,0
157200,note_on,120,0,1,,,,,,,,,0,,81,0
157200,note_on,0,0,1,,,,,,,,,0,,65,85
157320,note_on,120,0,1,,,,,,,,,0,,74,0
157320,note_on,0,0,1,,,,,,,,,0,,76,85
157440,note_on,120,0,1,,,,,,,,,0,,76,0
157440,note_on,0,0,1,,,,,,,,,0,,65,0
157440,note_on,0,0,1,,,,,,,,,0,,72,85
157440,note_on,0,0,1,,,,,,,,,0,,62,85
157560,note_on,0,0,1,,,,,,,,,0,,74,85
157560,note_on,120,0,1,,,,,,,,,0,,72,0
157680,note_on,120,0,1,,,,,,,,,0,,74,0
157680,note_on,0,0,1,,,,,,,,,0,,62,0
157680,note_on,0,0,1,,,,,,,,,0,,67,85
157680,note_on,0,0,1,,,,,,,,,0,,71,85
157800,note_on,120,0,1,,,,,,,,,0,,71,0
157800,note_on,0,0,1,,,,,,,,,0,,79,85
157920,note_on,120,0,1,,,,,,,,,0,,79,0
157920,note_on,0,0,1,,,,,,,,,0,,67,0
157920,note_on,0,0,1,,,,,,,,,0,,72,85
157920,note_on,0,0,1,,,,,,,,,0,,69,85
158040,note_on,120,0,1,,,,,,,,,0,,72,0
158040,note_on,0,0,1,,,,,,,,,0,,79,85
158160,note_on,0,0,1,,,,,,,,,0,,69,0
158160,note_on,0,0,1,,,,,,,,,0,,71,85
158160,note_on,0,0,1,,,,,,,,,0,,74,85
158160,note_on,120,0,1,,,,,,,,,0,,79,0
158280,note_on,0,0,1,,,,,,,,,0,,79,85
158280,note_on,120,0,1,,,,,,,,,0,,74,0
158400,note_on,0,0,1,,,,,,,,,0,,72,85
158400,note_on,0,0,1,,,,,,,,,0,,76,85
158400,note_on,0,0,1,,,,,,,,,0,,71,0
158400,note_on,120,0,1,,,,,,,,,0,,79,0
158520,note_on,0,0,1,,,,,,,,,0,,79,85
158520,note_on,120,0,1,,,,,,,,,0,,76,0
158640,note_on,120,0,1,,,,,,,,,0,,79,0
158640,note_on,0,0,1,,,,,,,,,0,,74,85
158640,note_on,0,0,1,,,,,,,,,0,,72,0
158640,note_on,0,0,1,,,,,,,,,0,,71,85
158760,note_on,0,0,1,,,,,,,,,0,,79,85
158760,note_on,120,0,1,,,,,,,,,0,,74,0
158880,note_on,0,0,1,,,,,,,,,0,,69,85
158880,note_on,0,0,1,,,,,,,,,0,,72,85
158880,note_on,0,0,1,,,,,,,,,0,,71,0
158880,note_on,120,0,1,,,,,,,,,0,,79,0
159000,note_on,120,0,1,,,,,,,,,0,,72,0
159000,note_on,0,0,1,,,,,,,,,0,,79,85
159120,note_on,120,0,1,,,,,,,,,0,,79,0
159120,note_on,0,0,1,,,,,,,,,0,,69,0
159120,note_on,0,0,1,,,,,,,,,0,,71,85
159120,note_on,0,0,1,,,,,,,,,0,,67,85
159240,note_on,0,0,1,,,,,,,,,0,,79,85
159240,note_on,120,0,1,,,,,,,,,0,,71,0
159360,note_on,0,0,1,,,,,,,,,0,,72,85
159360,note_on,0,0,1,,,,,,,,,0,,67,0
159360,note_on,0,0,1,,,,,,,,,0,,69,85
159360,note_on,120,0,1,,,,,,,,,0,,79,0
159480,note_on,0,0,1,,,,,,,,,0,,79,85
159480,note_on,120,0,1,,,,,,,,,0,,72,0
159600,note_on,0,0,1,,,,,,,,,0,,71,85
159600,note_on,0,0,1,,,,,,,,,0,,74,85
159600,note_on,0,0,1,,,,,,,,,0,,69,0
159600,note_on,120,0,1,,,,,,,,,0,,79,0
159720,note_on,0,0,1,,,,,,,,,0,,79,85
159720,note_on,120,0,1,,,,,,,,,0,,74,0
159840,note_on,0,0,1,,,,,,,,,0,,76,85
159840,note_on,0,0,1,,,,,,,,,0,,72,85
159840,note_on,0,0,1,,,,,,,,,0,,71,0
159840,note_on,120,0,1,,,,,,,,,0,,79,0
159960,note_on,0,0,1,,,,,,,,,0,,79,85
159960,note_on,120,0,1,,,,,,,,,0,,76,0
160080,note_on,0,0,1,,,,,,,,,0,,64,85
160080,note_on,0,0,1,,,,,,,,,0,,72,85
160080,note_on,120,0,1,,,,,,,,,0,,79,0
160080,note_on,0,0,1,,,,,,,,,0,,72,0
160200,note_on,0,0,1,,,,,,,,,0,,74,85
160200,note_on,120,0,1,,,,,,,,,0,,72,0
160320,note_on,0,0,1,,,,,,,,,0,,70,85
160320,note_on,0,0,1,,,,,,,,,0,,60,85
160320,note_on,0,0,1,,,,,,,,,0,,64,0
160320,note_on,120,0,1,,,,,,,,,0,,74,0
160440,note_on,0,0,1,,,,,,,,,0,,72,85
160440,note_on,120,0,1,,,,,,,,,0,,70,0
160560,note_on,0,0,1,,,,,,,,,0,,65,85
160560,note_on,0,0,1,,,,,,,,,0,,60,0
160560,note_on,120,0,1,,,,,,,,,0,,72,0
160560,note_on,0,0,1,,,,,,,,,0,,69,85
160680,note_on,0,0,1,,,,,,,,,0,,77,85
160680,note_on,120,0,1,,,,,,,,,0,,69,0
160800,note_on,0,0,1,,,,,,,,,0,,70,85
160800,note_on,0,0,1,,,,,,,,,0,,67,85
160800,note_on,0,0,1,,,,,,,,,0,,65,0
160800,note_on,120,0,1,,,,,,,,,0,,77,0
160920,note_on,0,0,1,,,,,,,,,0,,77,85
160920,note_on,120,0,1,,,,,,,,,0,,70,0
161040,note_on,0,0,1,,,,,,,,,0,,69,85
161040,note_on,0,0,1,,,,,,,,,0,,72,85
161040,note_on,0,0,1,,,,,,,,,0,,67,0
161040,note_on,120,0,1,,,,,,,,,0,,77,0
161160,note_on,0,0,1,,,,,,,,,0,,77,85
161160,note_on,120,0,1,,,,,,,,,0,,72,0
161280,note_on,0,0,1,,,,,,,,,0,,69,0
161280,note_on,0,0,1,,,,,,,,,0,,74,85
161280,note_on,0,0,1,,,,,,,,,0,,70,85
161280,note_on,120,0,1,,,,,,,,,0,,77,0
161400,note_on,120,0,1,,,,,,,,,0,,74,0
161400,note_on,0,0,1,,,,,,,,,0,,77,85
161520,note_on,120,0,1,,,,,,,,,0,,77,0
161520,note_on,0,0,1,,,,,,,,,0,,70,0
161520,note_on,0,0,1,,,,,,,,,0,,69,85
161520,note_on,0,0,1,,,,,,,,,0,,72,85
161640,note_on,120,0,1,,,,,,,,,0,,72,0
161640,note_on,0,0,1,,,,,,,,,0,,77,85
161760,note_on,120,0,1,,,,,,,,,0,,77,0
161760,note_on,0,0,1,,,,,,,,,0,,69,0
161760,note_on,0,0,1,,,,,,,,,0,,67,85
161760,note_on,0,0,1,,,,,,,,,0,,70,85
161880,note_on,0,0,1,,,,,,,,,0,,77,85
161880,note_on,120,0,1,,,,,,,,,0,,70,0
162000,note_on,0,0,1,,,,,,,,,0,,65,85
162000,note_on,0,0,1,,,,,,,,,0,,69,85
162000,note_on,0,0,1,,,,,,,,,0,,67,0
162000,note_on,120,0,1,,,,,,,,,0,,77,0
162120,note_on,0,0,1,,,,,,,,,0,,77,85
162120,note_on,120,0,1,,,,,,,,,0,,69,0
162240,note_on,0,0,1,,,,,,,,,0,,67,85
162240,note_on,0,0,1,,,,,,,,,0,,65,0
162240,note_on,120,0,1,,,,,,,,,0,,77,0
162240,note_on,0,0,1,,,,,,,,,0,,70,85
162360,note_on,120,0,1,,,,,,,,,0,,70,0
162360,note_on,0,0,1,,,,,,,,,0,,77,85
162480,note_on,120,0,1,,,,,,,,,0,,77,0
162480,note_on,0,0,1,,,,,,,,,0,,69,85
162480,note_on,0,0,1,,,,,,,,,0,,72,85
162480,note_on,0,0,1,,,,,,,,,0,,67,0
162600,note_on,0,0,1,,,,,,,,,0,,77,85
162600,note_on,120,0,1,,,,,,,,,0,,72,0
162720,note_on,0,0,1,,,,,,,,,0,,74,85
162720,note_on,0,0,1,,,,,,,,,0,,69,0
162720,note_on,120,0,1,,,,,,,,,0,,77,0
162720,note_on,7920,0,2,,,,,,,,,1,,58,85
162840,note_on,0,0,1,,,,,,,,,0,,67,85
162840,note_on,120,0,1,,,,,,,,,0,,74,0
162960,note_on,120,0,1,,,,,,,,,0,,67,0
162960,note_on,0,0,1,,,,,,,,,0,,70,85
162960,note_on,240,0,2,,,,,,,,,1,,58,0
162960,note_on,0,0,2,,,,,,,,,1,,46,85
163080,note_on,0,0,1,,,,,,,,,0,,74,85
163080,note_on,120,0,1,,,,,,,,,0,,70,0
163200,note_on,0,0,1,,,,,,,,,0,,79,85
163200,note_on,120,0,1,,,,,,,,,0,,74,0
163200,note_on,240,0,2,,,,,,,,,1,,46,0
163320,note_on,0,0,1,,,,,,,,,0,,74,85
163320,note_on,120,0,1,,,,,,,,,0,,79,0
163440,note_on,120,0,1,,,,,,,,,0,,74,0
163440,note_on,0,0,1,,,,,,,,,0,,76,85
163440,note_on,240,0,2,,,,,,,,,1,,60,85
163560,note_on,0,0,1,,,,,,,,,0,,69,85
163560,note_on,120,0,1,,,,,,,,,0,,76,0
163680,note_on,0,0,2,,,,,,,,,1,,48,85
163680,note_on,120,0,1,,,,,,,,,0,,69,0
163680,note_on,0,0,1,,,,,,,,,0,,72,85
163680,note_on,240,0,2,,,,,,,,,1,,60,0
163800,note_on,120,0,1,,,,,,,,,0,,72,0
163800,note_on,0,0,1,,,,,,,,,0,,76,85
163920,note_on,240,0,2,,,,,,,,,1,,48,0
163920,note_on,0,0,1,,,,,,,,,0,,81,85
163920,note_on,120,0,1,,,,,,,,,0,,76,0
164040,note_on,0,0,1,,,,,,,,,0,,76,85
164040,note_on,120,0,1,,,,,,,,,0,,81,0
164160,note_on,0,0,1,,,,,,,,,0,,77,85
164160,note_on,120,0,1,,,,,,,,,0,,76,0
164160,note_on,240,0,2,,,,,,,,,1,,62,85
164280,note_on,0,0,1,,,,,,,,,0,,70,85
164280,note_on,120,0,1,,,,,,,,,0,,77,0
164400,note_on,0,0,1,,,,,,,,,0,,74,85
164400,note_on,120,0,1,,,,,,,,,0,,70,0
164400,note_on,0,0,2,,,,,,,,,1,,50,85
164400,note_on,240,0,2,,,,,,,,,1,,62,0
164520,note_on,120,0,1,,,,,,,,,0,,74,0
164520,note_on,0,0,1,,,,,,,,,0,,77,85
164640,note_on,0,0,1,,,,,,,,,0,,82,85
164640,note_on,120,0,1,,,,,,,,,0,,77,0
164640,note_on,240,0,2,,,,,,,,,1,,50,0
164760,note_on,120,0,1,,,,,,,,,0,,82,0
164760,note_on,0,0,1,,,,,,,,,0,,77,85
164880,note_on,120,0,1,,,,,,,,,0,,77,0
164880,note_on,0,0,1,,,,,,,,,0,,64,85
164880,note_on,0,0,1,,,,,,,,,0,,79,85
165000,note_on,120,0,1,,,,,,,,,0,,79,0
165000,note_on,0,0,1,,,,,,,,,0,,72,85
165120,note_on,0,0,1,,,,,,,,,0,,64,0
165120,note_on,120,0,1,,,,,,,,,0,,72,0
165120,note_on,480,0,2,,,,,,,,,1,,52,85
165120,note_on,0,0,1,,,,,,,,,0,,76,85
165240,note_on,0,0,1,,,,,,,,,0,,79,85
165240,note_on,120,0,1,,,,,,,,,0,,76,0
165360,note_on,120,0,1,,,,,,,,,0,,79,0
165360,note_on,240,0,2,,,,,,,,,1,,52,0
165360,note_on,0,0,1,,,,,,,,,0,,84,85
165480,note_on,0,0,1,,,,,,,,,0,,79,85
165480,note_on,120,0,1,,,,,,,,,0,,84,0
165600,note_on,120,0,1,,,,,,,,,0,,79,0
165600,note_on,0,0,1,,,,,,,,,0,,65,85
165600,note_on,0,0,1,,,,,,,,,0,,81,85
165720,note_on,120,0,1,,,,,,,,,0,,81,0
165720,note_on,0,0,1,,,,,,,,,0,,84,85
165840,note_on,0,0,1,,,,,,,,,0,,79,85
165840,note_on,120,0,1,,,,,,,,,0,,84,0
165840,note_on,0,0,1,,,,,,,,,0,,65,0
165840,note_on,0,0,1,,,,,,,,,0,,64,85
165960,note_on,0,0,1,,,,,,,,,0,,84,85
165960,note_on,120,0,1,,,,,,,,,0,,79,0
166080,note_on,120,0,1,,,,,,,,,0,,84,0
166080,note_on,0,0,1,,,,,,,,,0,,64,0
166080,note_on,0,0,1,,,,,,,,,0,,62,85
166080,note_on,0,0,1,,,,,,,,,0,,77,85
166200,note_on,120,0,1,,,,,,,,,0,,77,0
166200,note_on,0,0,1,,,,,,,,,0,,84,85
166320,note_on,120,0,1,,,,,,,,,0,,84,0
166320,note_on,0,0,1,,,,,,,,,0,,62,0
166320,note_on,0,0,1,,,,,,,,,0,,60,85
166320,note_on,0,0,1,,,,,,,,,0,,76,85
166440,note_on,120,0,1,,,,,,,,,0,,60,0
166440,note_on,0,0,1,,,,,,,,,0,,72,85
166560,note_on,0,0,1,,,,,,,,,0,,77,85
166560,note_on,0,0,1,,,,,,,,,0,,62,85
166560,note_on,120,0,1,,,,,,,,,0,,72,0
166560,note_on,0,0,1,,,,,,,,,0,,76,0
166680,note_on,120,0,1,,,,,,,,,0,,62,0
166680,note_on,0,0,1,,,,,,,,,0,,72,85
166800,note_on,120,0,1,,,,,,,,,0,,72,0
166800,note_on,0,0,1,,,,,,,,,0,,77,0
166800,note_on,0,0,1,,,,,,,,,0,,79,85
166800,note_on,0,0,1,,,,,,,,,0,,64,85
166920,note_on,120,0,1,,,,,,,,,0,,64,0
166920,note_on,0,0,1,,,,,,,,,0,,72,85
167040,note_on,0,0,1,,,,,,,,,0,,81,85
167040,note_on,0,0,1,,,,,,,,,0,,65,85
167040,note_on,0,0,1,,,,,,,,,0,,79,0
167040,note_on,120,0,1,,,,,,,,,0,,72,0
167160,note_on,120,0,1,,,,,,,,,0,,65,0
167160,note_on,0,0,1,,,,,,,,,0,,72,85
167280,note_on,120,0,1,,,,,,,,,0,,72,0
167280,note_on,0,0,1,,,,,,,,,0,,81,0
167280,note_on,0,0,1,,,,,,,,,0,,79,85
167280,note_on,0,0,1,,,,,,,,,0,,64,85
167400,note_on,120,0,1,,,,,,,,,0,,64,0
167400,note_on,0,0,1,,,,,,,,,0,,72,85
167520,note_on,0,0,1,,,,,,,,,0,,77,85
167520,note_on,0,0,1,,,,,,,,,0,,62,85
167520,note_on,120,0,1,,,,,,,,,0,,72,0
167520,note_on,0,0,1,,,,,,,,,0,,79,0
167640,note_on,120,0,1,,,,,,,,,0,,62,0
167640,note_on,0,0,1,,,,,,,,,0,,72,85
167760,note_on,120,0,1,,,,,,,,,0,,72,0
167760,note_on,0,0,1,,,,,,,,,0,,77,0
167760,note_on,0,0,1,,,,,,,,,0,,60,85
167760,note_on,0,0,1,,,,,,,,,0,,76,85
167880,note_on,0,0,1,,,,,,,,,0,,70,85
167880,note_on,120,0,1,,,,,,,,,0,,76,0
168000,note_on,120,0,1,,,,,,,,,0,,70,0
168000,note_on,0,0,1,,,,,,,,,0,,60,0
168000,note_on,0,0,1,,,,,,,,,0,,62,85
168000,note_on,0,0,1,,,,,,,,,0,,77,85
168120,note_on,120,0,1,,,,,,,,,0,,77,0
168120,note_on,0,0,1,,,,,,,,,0,,70,85
168240,note_on,120,0,1,,,,,,,,,0,,70,0
168240,note_on,0,0,1,,,,,,,,,0,,62,0
168240,note_on,0,0,1,,,,,,,,,0,,64,85
168240,note_on,0,0,1,,,,,,,,,0,,79,85
168360,note_on,0,0,1,,,,,,,,,0,,70,85
168360,note_on,120,0,1,,,,,,,,,0,,79,0
168480,note_on,0,0,1,,,,,,,,,0,,64,0
168480,note_on,3120,0,2,,,,,,,,,1,,53,85
168480,note_on,0,0,1,,,,,,,,,0,,69,85
168480,note_on,120,0,1,,,,,,,,,0,,70,0
168600,note_on,120,0,1,,,,,,,,,0,,69,0
168600,note_on,0,0,1,,,,,,,,,0,,65,85
168720,note_on,0,0,1,,,,,,,,,0,,70,85
168720,note_on,120,0,1,,,,,,,,,0,,65,0
168720,note_on,240,0,2,,,,,,,,,1,,53,0
168720,note_on,0,0,2,,,,,,,,,1,,55,85
168840,note_on,0,0,1,,,,,,,,,0,,65,85
168840,note_on,120,0,1,,,,,,,,,0,,70,0
168960,note_on,0,0,1,,,,,,,,,0,,72,85
168960,note_on,120,0,1,,,,,,,,,0,,65,0
168960,note_on,0,0,2,,,,,,,,,1,,57,85
168960,note_on,240,0,2,,,,,,,,,1,,55,0
169080,note_on,0,0,1,,,,,,,,,0,,65,85
169080,note_on,120,0,1,,,,,,,,,0,,72,0
169200,note_on,0,0,2,,,,,,,,,1,,58,85
169200,note_on,0,0,1,,,,,,,,,0,,74,85
169200,note_on,120,0,1,,,,,,,,,0,,65,0
169200,note_on,240,0,2,,,,,,,,,1,,57,0
169320,note_on,0,0,1,,,,,,,,,0,,72,85
169320,note_on,120,0,1,,,,,,,,,0,,74,0
169440,note_on,240,0,2,,,,,,,,,1,,58,0
169440,note_on,120,0,1,,,,,,,,,0,,72,0
169440,note_on,0,0,1,,,,,,,,,0,,70,85
169440,note_on,0,0,2,,,,,,,,,1,,60,85
169560,note_on,120,0,1,,,,,,,,,0,,70,0
169560,note_on,0,0,1,,,,,,,,,0,,69,85
169680,note_on,0,0,1,,,,,,,,,0,,67,85
169680,note_on,120,0,1,,,,,,,,,0,,69,0
169680,note_on,0,0,2,,,,,,,,,1,,62,85
169680,note_on,240,0,2,,,,,,,,,1,,60,0
169800,note_on,120,0,1,,,,,,,,,0,,67,0
169800,note_on,0,0,1,,,,,,,,,0,,65,85
169920,note_on,0,0,1,,,,,,,,,0,,64,85
169920,note_on,120,0,1,,,,,,,,,0,,65,0
169920,note_on,0,0,2,,,,,,,,,1,,60,85
169920,note_on,240,0,2,,,,,,,,,1,,62,0
170040,note_on,120,0,1,,,,,,,,,0,,64,0
170040,note_on,0,0,1,,,,,,,,,0,,67,85
170160,note_on,120,0,1,,,,,,,,,0,,67,0
170160,note_on,0,0,1,,,,,,,,,0,,70,85
170280,note_on,120,0,1,,,,,,,,,0,,70,0
170280,note_on,0,0,1,,,,,,,,,0,,74,85
170400,note_on,120,0,1,,,,,,,,,0,,74,0
170400,note_on,0,0,1,,,,,,,,,0,,72,85
170400,note_on,480,0,2,,,,,,,,,1,,60,0
170520,note_on,0,0,1,,,,,,,,,0,,70,85
170520,note_on,120,0,1,,,,,,,,,0,,72,0
170640,note_on,120,0,1,,,,,,,,,0,,70,0
170640,note_on,0,0,1,,,,,,,,,0,,69,85
170760,note_on,0,0,1,,,,,,,,,0,,72,85
170760,note_on,120,0,1,,,,,,,,,0,,69,0
170880,note_on,120,0,1,,,,,,,,,0,,72,0
170880,note_on,0,0,1,,,,,,,,,0,,77,85
171000,note_on,120,0,1,,,,,,,,,0,,77,0
171000,note_on,0,0,1,,,,,,,,,0,,81,85
171120,note_on,0,0,1,,,,,,,,,0,,79,85
171120,note_on,120,0,1,,,,,,,,,0,,81,0
171240,note_on,120,0,1,,,,,,,,,0,,79,0
171240,note_on,0,0,1,,,,,,,,,0,,77,85
171360,note_on,120,0,1,,,,,,,,,0,,77,0
171360,note_on,0,0,1,,,,,,,,,0,,76,85
171480,note_on,120,0,1,,,,,,,,,0,,76,0
171480,note_on,0,0,1,,,,,,,,,0,,74,85
171600,note_on,0,0,1,,,,,,,,,0,,72,85
171600,note_on,120,0,1,,,,,,,,,0,,74,0
171720,note_on,120,0,1,,,,,,,,,0,,72,0
171720,note_on,0,0,1,,,,,,,,,0,,70,85
171840,note_on,120,0,1,,,,,,,,,0,,70,0
171840,note_on,0,0,1,,,,,,,,,0,,69,85
171960,note_on,0,0,1,,,,,,,,,0,,67,85
171960,note_on,120,0,1,,,,,,,,,0,,69,0
172080,note_on,0,0,1,,,,,,,,,0,,69,85
172080,note_on,120,0,1,,,,,,,,,0,,67,0
172200,note_on,0,0,1,,,,,,,,,0,,72,85
172200,note_on,120,0,1,,,,,,,,,0,,69,0
172320,note_on,0,0,1,,,,,,,,,0,,70,85
172320,note_on,120,0,1,,,,,,,,,0,,72,0
172440,note_on,0,0,1,,,,,,,,,0,,69,85
172440,note_on,120,0,1,,,,,,,,,0,,70,0
172560,note_on,0,0,1,,,,,,,,,0,,67,85
172560,note_on,120,0,1,,,,,,,,,0,,69,0
172680,note_on,120,0,1,,,,,,,,,0,,67,0
172680,note_on,0,0,1,,,,,,,,,0,,65,85
172800,note_on,0,0,1,,,,,,,,,0,,64,85
172800,note_on,120,0,1,,,,,,,,,0,,65,0
172920,note_on,120,0,1,,,,,,,,,0,,64,0
172920,note_on,0,0,1,,,,,,,,,0,,67,85
173040,note_on,120,0,1,,,,,,,,,0,,67,0
173040,note_on,0,0,1,,,,,,,,,0,,60,85
173160,note_on,120,0,1,,,,,,,,,0,,60,0
173160,note_on,2760,0,2,,,,,,,,,1,,58,85
173280,note_on,120,0,2,,,,,,,,,1,,58,0
173280,note_on,0,0,2,,,,,,,,,1,,57,85
173400,note_on,120,0,2,,,,,,,,,1,,57,0
173400,note_on,0,0,2,,,,,,,,,1,,55,85
173520,note_on,120,0,2,,,,,,,,,1,,55,0
173520,note_on,0,0,2,,,,,,,,,1,,57,85
173640,note_on,120,0,2,,,,,,,,,1,,57,0
173640,note_on,0,0,2,,,,,,,,,1,,60,85
173760,note_on,120,0,2,,,,,,,,,1,,60,0
173760,note_on,0,0,2,,,,,,,,,1,,58,85
173880,note_on,120,0,2,,,,,,,,,1,,58,0
173880,note_on,0,0,2,,,,,,,,,1,,57,85
174000,note_on,120,0,2,,,,,,,,,1,,57,0
174000,note_on,0,0,2,,,,,,,,,1,,55,85
174120,note_on,120,0,2,,,,,,,,,1,,55,0
174120,note_on,0,0,2,,,,,,,,,1,,53,85
174240,note_on,0,0,2,,,,,,,,,1,,52,85
174240,note_on,120,0,2,,,,,,,,,1,,53,0
174360,note_on,0,0,2,,,,,,,,,1,,50,85
174360,note_on,120,0,2,,,,,,,,,1,,52,0
174480,note_on,0,0,2,,,,,,,,,1,,48,85
174480,note_on,120,0,2,,,,,,,,,1,,50,0
174600,note_on,0,0,2,,,,,,,,,1,,46,85
174600,note_on,120,0,2,,,,,,,,,1,,48,0
174720,note_on,0,0,2,,,,,,,,,1,,45,85
174720,note_on,120,0,2,,,,,,,,,1,,46,0
174840,note_on,120,0,2,,,,,,,,,1,,45,0
174840,note_on,0,0,2,,,,,,,,,1,,43,85
174960,note_on,0,0,1,,,,,,,,,0,,77,85
174960,note_on,120,0,2,,,,,,,,,1,,43,0
174960,note_on,0,0,2,,,,,,,,,1,,41,85
174960,note_on,0,0,2,,,,,,,,,1,,53,85
174960,note_on,1800,0,1,,,,,,,,,0,,69,85
174960,note_on,0,0,2,,,,,,,,,1,,48,85
174964,note_on,4,0,1,,,,,,,,,0,,72,85
174972,set_tempo,20156,1,0,,,,,,600000,,,,,,
175080,note_on,0,0,1,,,,,,,,,0,,79,85
175080,note_on,116,0,1,,,,,,,,,0,,77,0
175172,note_on,92,0,1,,,,,,,,,0,,72,0
175196,text,24,1,1,,,,,,,,,,,,
175200,note_on,0,0,2,,,,,,,,,1,,41,0
175200,note_on,0,0,2,,,,,,,,,1,,43,85
175200,note_on,0,0,2,,,,,,,,,1,,46,85
175200,note_on,0,0,2,,,,,,,,,1,,52,85
175200,note_on,0,0,2,,,,,,,,,1,,55,85
175200,note_on,240,0,2,,,,,,,,,1,,53,0
175200,note_on,0,0,2,,,,,,,,,1,,48,0
175200,text,0,1,1,,,,,,,,,,,,
175200,note_on,0,0,1,,,,,,,,,0,,77,85
175200,note_on,0,0,1,,,,,,,,,0,,70,85
175200,note_on,0,0,1,,,,,,,,,0,,69,0
175200,note_on,4,0,1,,,,,,,,,0,,79,0
175276,note_on,76,0,1,,,,,,,,,0,,77,0
175280,note_on,4,0,1,,,,,,,,,0,,76,85
175316,note_on,36,0,1,,,,,,,,,0,,76,0
175320,note_on,4,0,1,,,,,,,,,0,,77,85
175356,note_on,36,0,1,,,,,,,,,0,,77,0
175360,note_on,4,0,1,,,,,,,,,0,,76,85
175396,note_on,36,0,1,,,,,,,,,0,,76,0
175400,note_on,4,0,1,,,,,,,,,0,,77,85
175436,note_on,36,0,1,,,,,,,,,0,,77,0
175440,note_on,4,0,1,,,,,,,,,0,,76,85
175556,note_on,116,0,1,,,,,,,,,0,,76,0
175560,note_on,4,0,1,,,,,,,,,0,,74,85
175620,note_on,0,0,1,,,,,,,,,0,,76,85
175620,note_on,60,0,1,,,,,,,,,0,,74,0
175680,note_on,0,0,2,,,,,,,,,1,,43,0
175680,note_on,480,0,2,,,,,,,,,1,,55,0
175680,note_on,0,0,1,,,,,,,,,0,,72,85
175680,note_on,0,0,1,,,,,,,,,0,,70,0
175680,note_on,60,0,1,,,,,,,,,0,,76,0
175680,note_on,0,0,1,,,,,,,,,0,,77,85
175680,note_on,0,0,2,,,,,,,,,1,,53,85
175680,note_on,0,0,2,,,,,,,,,1,,48,85
175680,note_on,0,0,2,,,,,,,,,1,,46,0
175680,note_on,0,0,2,,,,,,,,,1,,57,85
175680,note_on,0,0,2,,,,,,,,,1,,52,0
175680,note_on,0,0,2,,,,,,,,,1,,45,85
175920,note_on,0,0,2,,,,,,,,,1,,40,85
175920,note_on,0,0,1,,,,,,,,,0,,72,85
175920,note_on,0,0,1,,,,,,,,,0,,67,85
175920,note_on,240,0,2,,,,,,,,,1,,57,0
175920,note_on,0,0,2,,,,,,,,,1,,45,0
175920,note_on,0,0,2,,,,,,,,,1,,48,0
175920,note_on,0,0,2,,,,,,,,,1,,53,0
175920,note_on,0,0,2,,,,,,,,,1,,48,85
175920,note_on,0,0,2,,,,,,,,,1,,52,85
175920,note_on,0,0,1,,,,,,,,,0,,72,0
175920,note_on,240,0,1,,,,,,,,,0,,77,0
175920,note_on,0,0,2,,,,,,,,,1,,43,85
176160,note_on,240,0,2,,,,,,,,,1,,52,0
176160,note_on,0,0,2,,,,,,,,,1,,40,0
176160,note_on,0,0,2,,,,,,,,,1,,43,0
176160,note_on,0,0,2,,,,,,,,,1,,48,0
176160,note_on,240,0,1,,,,,,,,,0,,72,0
176160,note_on,0,0,1,,,,,,,,,0,,67,0
176400,note_on,0,0,1,,,,,,,,,0,,77,85
176400,note_on,240,0,1,,,,,,,,,0,,81,85
176400,note_on,0,0,2,,,,,,,,,1,,65,85
176400,note_on,0,0,2,,,,,,,,,1,,60,85
176400,note_on,0,0,2,,,,,,,,,1,,57,85
176400,note_on,240,0,2,,,,,,,,,1,,53,85
176520,note_on,120,0,1,,,,,,,,,0,,81,0
176520,note_on,0,0,1,,,,,,,,,0,,82,85
176636,text,116,1,1,,,,,,,,,,,,
176640,note_on,0,0,2,,,,,,,,,1,,67,85
176640,note_on,240,0,2,,,,,,,,,1,,65,0
176640,note_on,0,0,2,,,,,,,,,1,,64,85
176640,note_on,0,0,2,,,,,,,,,1,,60,0
176640,note_on,0,0,2,,,,,,,,,1,,53,0
176640,note_on,0,0,2,,,,,,,,,1,,60,85
176640,text,0,1,1,,,,,,,,,,,,
176640,note_on,0,0,1,,,,,,,,,0,,81,85
176640,note_on,0,0,1,,,,,,,,,0,,76,85
176640,note_on,0,0,1,,,,,,,,,0,,77,0
176640,note_on,4,0,1,,,,,,,,,0,,82,0
176640,note_on,0,0,2,,,,,,,,,1,,57,0
176716,note_on,76,0,1,,,,,,,,,0,,81,0
176720,note_on,4,0,1,,,,,,,,,0,,79,85
176756,note_on,36,0,1,,,,,,,,,0,,79,0
176760,note_on,4,0,1,,,,,,,,,0,,81,85
176796,note_on,36,0,1,,,,,,,,,0,,81,0
176800,note_on,4,0,1,,,,,,,,,0,,79,85
176836,note_on,36,0,1,,,,,,,,,0,,79,0
176840,note_on,4,0,1,,,,,,,,,0,,81,85
176876,note_on,36,0,1,,,,,,,,,0,,81,0
176880,note_on,4,0,1,,,,,,,,,0,,79,85
176996,note_on,116,0,1,,,,,,,,,0,,79,0
177004,note_on,8,0,1,,,,,,,,,0,,77,85
177060,note_on,56,0,1,,,,,,,,,0,,79,85
177064,note_on,4,0,1,,,,,,,,,0,,77,0
177072,note_on,8,0,1,,,,,,,,,0,,76,0
177120,note_on,48,0,1,,,,,,,,,0,,79,0
177120,note_on,0,0,2,,,,,,,,,1,,65,85
177120,note_on,0,0,2,,,,,,,,,1,,60,0
177120,note_on,0,0,2,,,,,,,,,1,,64,0
177120,note_on,480,0,2,,,,,,,,,1,,67,0
177120,note_on,0,0,2,,,,,,,,,1,,69,85
177120,note_on,0,0,1,,,,,,,,,0,,81,85
177120,note_on,0,0,1,,,,,,,,,0,,77,85
177120,note_on,0,0,1,,,,,,,,,0,,72,85
177360,note_on,0,0,1,,,,,,,,,0,,72,85
177360,note_on,0,0,2,,,,,,,,,1,,67,85
177360,note_on,0,0,2,,,,,,,,,1,,64,85
177360,note_on,0,0,2,,,,,,,,,1,,65,0
177360,note_on,0,0,1,,,,,,,,,0,,72,0
177360,note_on,240,0,2,,,,,,,,,1,,69,0
177360,note_on,240,0,1,,,,,,,,,0,,81,0
177360,note_on,0,0,1,,,,,,,,,0,,77,0
177360,note_on,0,0,1,,,,,,,,,0,,79,85
177600,note_on,0,0,1,,,,,,,,,0,,72,0
177600,note_on,240,0,1,,,,,,,,,0,,79,0
177600,note_on,240,0,2,,,,,,,,,1,,67,0
177600,note_on,0,0,2,,,,,,,,,1,,64,0
177840,note_on,0,0,2,,,,,,,,,1,,65,85
177840,note_on,240,0,2,,,,,,,,,1,,62,85
177840,note_on,0,0,1,,,,,,,,,0,,77,85
177840,note_on,240,0,1,,,,,,,,,0,,74,85
177872,note_on,32,0,1,,,,,,,,,0,,82,85
178080,note_on,240,0,2,,,,,,,,,1,,65,0
178080,note_on,208,0,1,,,,,,,,,0,,82,0
178080,note_on,0,0,2,,,,,,,,,1,,60,85
178080,note_on,0,0,2,,,,,,,,,1,,62,0
178080,note_on,0,0,1,,,,,,,,,0,,76,85
178080,note_on,0,0,1,,,,,,,,,0,,74,0
178080,note_on,0,0,1,,,,,,,,,0,,77,0
178080,note_on,0,0,2,,,,,,,,,1,,64,85
178080,note_on,0,0,2,,,,,,,,,1,,69,85
178084,note_on,4,0,1,,,,,,,,,0,,81,85
178404,note_on,320,0,1,,,,,,,,,0,,81,0
178440,note_on,36,0,1,,,,,,,,,0,,82,85
178556,text,116,1,1,,,,,,,,,,,,
178560,text,0,1,1,,,,,,,,,,,,
178560,note_on,0,0,1,,,,,,,,,0,,81,85
178560,note_on,0,0,1,,,,,,,,,0,,74,85
178560,note_on,0,0,1,,,,,,,,,0,,70,85
178560,note_on,0,0,1,,,,,,,,,0,,76,0
178560,note_on,0,0,2,,,,,,,,,1,,62,85
178560,note_on,480,0,2,,,,,,,,,1,,69,0
178560,note_on,0,0,2,,,,,,,,,1,,64,0
178560,note_on,0,0,2,,,,,,,,,1,,60,0
178560,note_on,0,0,2,,,,,,,,,1,,67,85
178560,note_on,0,0,2,,,,,,,,,1,,58,85
178560,note_on,4,0,1,,,,,,,,,0,,82,0
178636,note_on,76,0,1,,,,,,,,,0,,81,0
178640,note_on,4,0,1,,,,,,,,,0,,79,85
178676,note_on,36,0,1,,,,,,,,,0,,79,0
178680,note_on,4,0,1,,,,,,,,,0,,81,85
178716,note_on,36,0,1,,,,,,,,,0,,81,0
178720,note_on,4,0,1,,,,,,,,,0,,79,85
178756,note_on,36,0,1,,,,,,,,,0,,79,0
178760,note_on,4,0,1,,,,,,,,,0,,81,85
178796,note_on,36,0,1,,,,,,,,,0,,81,0
178800,note_on,4,0,1,,,,,,,,,0,,79,85
179036,note_on,236,0,1,,,,,,,,,0,,79,0
179040,note_on,0,0,2,,,,,,,,,1,,57,85
179040,note_on,0,0,2,,,,,,,,,1,,58,0
179040,note_on,0,0,1,,,,,,,,,0,,77,85
179040,note_on,0,0,2,,,,,,,,,1,,60,85
179040,note_on,0,0,1,,,,,,,,,0,,69,85
179040,note_on,4,0,1,,,,,,,,,0,,74,0
179040,note_on,0,0,1,,,,,,,,,0,,70,0
179040,note_on,0,0,2,,,,,,,,,1,,62,0
179040,note_on,0,0,2,,,,,,,,,1,,65,85
179040,note_on,480,0,2,,,,,,,,,1,,67,0
179040,note_on,0,0,1,,,,,,,,,0,,72,85
179280,note_on,0,0,1,,,,,,,,,0,,76,85
179280,note_on,240,0,1,,,,,,,,,0,,72,0
179280,note_on,0,0,1,,,,,,,,,0,,77,0
179280,note_on,0,0,1,,,,,,,,,0,,70,85
179280,note_on,0,0,2,,,,,,,,,1,,58,85
179280,note_on,0,0,2,,,,,,,,,1,,55,85
179280,note_on,0,0,2,,,,,,,,,1,,57,0
179280,note_on,0,0,2,,,,,,,,,1,,60,0
179280,note_on,0,0,2,,,,,,,,,1,,64,85
179280,note_on,0,0,1,,,,,,,,,0,,69,0
179280,note_on,240,0,2,,,,,,,,,1,,65,0
179280,note_on,0,0,1,,,,,,,,,0,,67,85
179520,note_on,0,0,1,,,,,,,,,0,,77,85
179520,note_on,0,0,1,,,,,,,,,0,,70,0
179520,note_on,0,0,1,,,,,,,,,0,,76,0
179520,note_on,240,0,2,,,,,,,,,1,,64,0
179520,note_on,0,0,2,,,,,,,,,1,,58,0
179520,note_on,0,0,2,,,,,,,,,1,,55,0
179520,note_on,0,0,2,,,,,,,,,1,,53,85
179520,note_on,240,0,1,,,,,,,,,0,,67,0
179520,note_on,0,0,1,,,,,,,,,0,,69,85
179536,note_on,16,0,2,,,,,,,,,1,,57,85
179536,note_on,16,0,1,,,,,,,,,0,,72,85
179552,note_on,16,0,2,,,,,,,,,1,,60,85
179700,note_on,164,0,1,,,,,,,,,0,,77,0
179700,note_on,0,0,1,,,,,,,,,0,,76,85
179760,note_on,60,0,1,,,,,,,,,0,,76,0
179760,note_on,0,0,1,,,,,,,,,0,,77,85
179880,note_on,120,0,1,,,,,,,,,0,,77,0
179880,note_on,0,0,1,,,,,,,,,0,,79,85
179952,note_on,72,0,1,,,,,,,,,0,,72,0
179952,note_on,400,0,2,,,,,,,,,1,,57,0
179968,note_on,16,0,2,,,,,,,,,1,,60,0
180000,note_on,0,0,1,,,,,,,,,0,,64,85
180000,note_on,0,0,1,,,,,,,,,0,,69,0
180000,note_on,48,0,1,,,,,,,,,0,,79,0
180000,note_on,32,0,2,,,,,,,,,1,,53,0
180000,note_on,0,0,2,,,,,,,,,1,,52,85
180016,note_on,16,0,2,,,,,,,,,1,,55,85
180016,note_on,16,0,1,,,,,,,,,0,,67,85
180032,note_on,16,0,1,,,,,,,,,0,,72,85
180032,note_on,16,0,2,,,,,,,,,1,,60,85
180240,note_on,0,0,2,,,,,,,,,1,,50,85
180240,note_on,208,0,2,,,,,,,,,1,,52,0
180480,note_on,0,0,2,,,,,,,,,1,,52,85
180480,note_on,240,0,2,,,,,,,,,1,,50,0
180672,note_on,192,0,2,,,,,,,,,1,,60,0
180688,note_on,0,0,1,,,,,,,,,0,,67,0
180688,note_on,656,0,1,,,,,,,,,0,,72,0
180704,note_on,32,0,2,,,,,,,,,1,,55,0
180720,note_on,32,0,1,,,,,,,,,0,,64,0
180720,note_on,0,0,1,,,,,,,,,0,,64,85
180720,note_on,0,0,2,,,,,,,,,1,,48,85
180720,note_on,16,0,2,,,,,,,,,1,,52,0
180736,note_on,16,0,1,,,,,,,,,0,,67,85
180736,note_on,16,0,2,,,,,,,,,1,,60,85
180944,note_on,208,0,1,,,,,,,,,0,,67,0
180960,note_on,224,0,2,,,,,,,,,1,,48,0
180960,note_on,0,0,1,,,,,,,,,0,,65,85
180960,note_on,0,0,1,,,,,,,,,0,,69,85
180960,note_on,0,0,2,,,,,,,,,1,,53,85
180960,note_on,16,0,1,,,,,,,,,0,,64,0
180976,note_on,16,0,2,,,,,,,,,1,,60,0
181080,note_on,120,0,1,,,,,,,,,0,,69,0
181080,note_on,0,0,1,,,,,,,,,0,,65,0
181080,note_on,0,0,1,,,,,,,,,0,,64,85
181080,note_on,0,0,1,,,,,,,,,0,,67,85
181200,note_on,224,0,2,,,,,,,,,1,,53,0
181200,note_on,0,0,2,,,,,,,,,1,,41,85
181200,note_on,0,0,1,,,,,,,,,0,,64,0
181200,note_on,0,0,1,,,,,,,,,0,,69,85
181200,note_on,0,0,1,,,,,,,,,0,,65,85
181200,note_on,120,0,1,,,,,,,,,0,,67,0
181320,note_on,0,0,1,,,,,,,,,0,,70,85
181320,note_on,0,0,1,,,,,,,,,0,,65,0
181320,note_on,120,0,1,,,,,,,,,0,,69,0
181320,note_on,0,0,1,,,,,,,,,0,,67,85
181440,note_on,0,0,1,,,,,,,,,0,,67,0
181440,note_on,0,0,1,,,,,,,,,0,,65,85
181440,note_on,0,0,1,,,,,,,,,0,,69,85
181440,note_on,0,0,2,,,,,,,,,1,,48,85
181440,note_on,240,0,2,,,,,,,,,1,,41,0
181440,note_on,120,0,1,,,,,,,,,0,,70,0
181456,note_on,16,0,1,,,,,,,,,0,,60,85
181500,text,44,1,1,,,,,,,,,,,,
181504,text,0,1,1,,,,,,,,,,,,
181504,note_on,0,0,1,,,,,,,,,0,,65,0
181504,note_on,0,0,1,,,,,,,,,0,,69,85
181504,note_on,4,0,1,,,,,,,,,0,,69,0
181504,note_on,0,0,1,,,,,,,,,0,,64,85
181580,note_on,76,0,1,,,,,,,,,0,,69,0
181584,note_on,4,0,1,,,,,,,,,0,,67,85
181620,note_on,36,0,1,,,,,,,,,0,,67,0
181624,note_on,4,0,1,,,,,,,,,0,,69,85
181660,note_on,36,0,1,,,,,,,,,0,,69,0
181664,note_on,4,0,1,,,,,,,,,0,,67,85
181680,note_on,0,0,2,,,,,,,,,1,,43,85
181680,note_on,240,0,2,,,,,,,,,1,,48,0
181700,note_on,36,0,1,,,,,,,,,0,,67,0
181704,note_on,4,0,1,,,,,,,,,0,,69,85
181740,note_on,36,0,1,,,,,,,,,0,,69,0
181744,note_on,4,0,1,,,,,,,,,0,,67,85
181904,set_tempo,6932,1,0,,,,,,715990,,,,,,
181906,set_tempo,2,1,0,,,,,,1058388,,,,,,
181920,note_on,240,0,2,,,,,,,,,1,,43,0
181920,note_on,0,0,2,,,,,,,,,1,,36,85
181980,note_on,236,0,1,,,,,,,,,0,,67,0
182112,note_on,132,0,1,,,,,,,,,0,,64,0
182116,note_on,4,0,1,,,,,,,,,0,,60,0
182160,note_on,240,0,2,,,,,,,,,1,,36,0
182160,note_on,0,0,2,,,,,,,,,1,,48,85
182160,note_on,44,0,1,,,,,,,,,0,,64,85
182172,set_tempo,266,1,0,,,,,,461538,,,,,,
182280,note_on,120,0,1,,,,,,,,,0,,64,0
182280,note_on,0,0,1,,,,,,,,,0,,72,85
182400,note_on,240,0,2,,,,,,,,,1,,48,0
182400,note_on,0,0,1,,,,,,,,,0,,65,85
182400,note_on,120,0,1,,,,,,,,,0,,72,0
182400,note_on,0,0,2,,,,,,,,,1,,50,85
182520,note_on,0,0,1,,,,,,,,,0,,72,85
182520,note_on,120,0,1,,,,,,,,,0,,65,0
182640,note_on,0,0,1,,,,,,,,,0,,67,85
182640,note_on,120,0,1,,,,,,,,,0,,72,0
182640,note_on,0,0,2,,,,,,,,,1,,52,85
182640,note_on,240,0,2,,,,,,,,,1,,50,0
182760,note_on,120,0,1,,,,,,,,,0,,67,0
182760,note_on,0,0,1,,,,,,,,,0,,72,85
182880,note_on,0,0,1,,,,,,,,,0,,69,85
182880,note_on,120,0,1,,,,,,,,,0,,72,0
182880,note_on,240,0,2,,,,,,,,,1,,52,0
182880,note_on,0,0,2,,,,,,,,,1,,53,85
183000,note_on,0,0,1,,,,,,,,,0,,72,85
183000,note_on,120,0,1,,,,,,,,,0,,69,0
183120,note_on,0,0,2,,,,,,,,,1,,52,85
183120,note_on,0,0,1,,,,,,,,,0,,67,85
183120,note_on,120,0,1,,,,,,,,,0,,72,0
183120,note_on,240,0,2,,,,,,,,,1,,53,0
183240,note_on,120,0,1,,,,,,,,,0,,67,0
183240,note_on,0,0,1,,,,,,,,,0,,72,85
183360,note_on,240,0,2,,,,,,,,,1,,52,0
183360,note_on,0,0,2,,,,,,,,,1,,50,85
183360,note_on,120,0,1,,,,,,,,,0,,72,0
183360,note_on,0,0,1,,,,,,,,,0,,65,85
183480,note_on,120,0,1,,,,,,,,,0,,65,0
183480,note_on,0,0,1,,,,,,,,,0,,72,85
183600,note_on,240,0,2,,,,,,,,,1,,50,0
183600,note_on,0,0,2,,,,,,,,,1,,48,85
183600,note_on,120,0,1,,,,,,,,,0,,72,0
183600,note_on,0,0,1,,,,,,,,,0,,64,85
183720,note_on,120,0,1,,,,,,,,,0,,64,0
183720,note_on,0,0,1,,,,,,,,,0,,72,85
183840,note_on,0,0,1,,,,,,,,,0,,65,85
183840,note_on,0,0,2,,,,,,,,,1,,50,85
183840,note_on,240,0,2,,,,,,,,,1,,48,0
183840,note_on,120,0,1,,,,,,,,,0,,72,0
183960,note_on,120,0,1,,,,,,,,,0,,65,0
183960,note_on,0,0,1,,,,,,,,,0,,72,85
184080,note_on,0,0,2,,,,,,,,,1,,52,85
184080,note_on,240,0,2,,,,,,,,,1,,50,0
184080,note_on,120,0,1,,,,,,,,,0,,72,0
184080,note_on,0,0,1,,,,,,,,,0,,67,85
184200,note_on,0,0,1,,,,,,,,,0,,72,85
184200,note_on,120,0,1,,,,,,,,,0,,67,0
184320,note_on,120,0,1,,,,,,,,,0,,72,0
184320,note_on,240,0,2,,,,,,,,,1,,52,0
184320,note_on,0,0,1,,,,,,,,,0,,69,85
184320,note_on,0,0,2,,,,,,,,,1,,53,85
184440,note_on,0,0,1,,,,,,,,,0,,70,85
184440,note_on,120,0,1,,,,,,,,,0,,69,0
184560,note_on,0,0,2,,,,,,,,,1,,41,85
184560,note_on,240,0,2,,,,,,,,,1,,53,0
184560,note_on,0,0,1,,,,,,,,,0,,72,85
184560,note_on,120,0,1,,,,,,,,,0,,70,0
184680,note_on,0,0,1,,,,,,,,,0,,70,85
184680,note_on,120,0,1,,,,,,,,,0,,72,0
184800,note_on,0,0,1,,,,,,,,,0,,69,85
184800,note_on,120,0,1,,,,,,,,,0,,70,0
184800,note_on,240,0,2,,,,,,,,,1,,41,0
184920,note_on,0,0,1,,,,,,,,,0,,67,85
184920,note_on,120,0,1,,,,,,,,,0,,69,0
185040,note_on,240,0,2,,,,,,,,,1,,50,85
185040,note_on,0,0,1,,,,,,,,,0,,66,85
185040,note_on,120,0,1,,,,,,,,,0,,67,0
185160,note_on,0,0,1,,,,,,,,,0,,74,85
185160,note_on,120,0,1,,,,,,,,,0,,66,0
185280,note_on,0,0,2,,,,,,,,,1,,52,85
185280,note_on,240,0,2,,,,,,,,,1,,50,0
185280,note_on,0,0,1,,,,,,,,,0,,67,85
185280,note_on,120,0,1,,,,,,,,,0,,74,0
185400,note_on,120,0,1,,,,,,,,,0,,67,0
185400,note_on,0,0,1,,,,,,,,,0,,74,85
185520,note_on,0,0,2,,,,,,,,,1,,54,85
185520,note_on,240,0,2,,,,,,,,,1,,52,0
185520,note_on,0,0,1,,,,,,,,,0,,69,85
185520,note_on,120,0,1,,,,,,,,,0,,74,0
185640,note_on,0,0,1,,,,,,,,,0,,74,85
185640,note_on,120,0,1,,,,,,,,,0,,69,0
185760,note_on,120,0,1,,,,,,,,,0,,74,0
185760,note_on,240,0,2,,,,,,,,,1,,54,0
185760,note_on,0,0,2,,,,,,,,,1,,55,85
185760,note_on,0,0,1,,,,,,,,,0,,70,85
185880,note_on,120,0,1,,,,,,,,,0,,70,0
185880,note_on,0,0,1,,,,,,,,,0,,74,85
186000,note_on,120,0,1,,,,,,,,,0,,74,0
186000,note_on,0,0,2,,,,,,,,,1,,53,85
186000,note_on,240,0,2,,,,,,,,,1,,55,0
186000,note_on,0,0,1,,,,,,,,,0,,69,85
186120,note_on,120,0,1,,,,,,,,,0,,69,0
186120,note_on,0,0,1,,,,,,,,,0,,74,85
186240,note_on,0,0,2,,,,,,,,,1,,51,85
186240,note_on,240,0,2,,,,,,,,,1,,53,0
186240,note_on,120,0,1,,,,,,,,,0,,74,0
186240,note_on,0,0,1,,,,,,,,,0,,67,85
186360,note_on,0,0,1,,,,,,,,,0,,74,85
186360,note_on,120,0,1,,,,,,,,,0,,67,0
186480,note_on,120,0,1,,,,,,,,,0,,74,0
186480,note_on,0,0,1,,,,,,,,,0,,66,85
186480,note_on,0,0,2,,,,,,,,,1,,50,85
186480,note_on,240,0,2,,,,,,,,,1,,51,0
186600,note_on,120,0,1,,,,,,,,,0,,66,0
186600,note_on,0,0,1,,,,,,,,,0,,74,85
186720,note_on,0,0,1,,,,,,,,,0,,67,85
186720,note_on,120,0,1,,,,,,,,,0,,74,0
186720,note_on,0,0,2,,,,,,,,,1,,52,85
186720,note_on,240,0,2,,,,,,,,,1,,50,0
186840,note_on,120,0,1,,,,,,,,,0,,67,0
186840,note_on,0,0,1,,,,,,,,,0,,74,85
186960,note_on,120,0,1,,,,,,,,,0,,74,0
186960,note_on,0,0,1,,,,,,,,,0,,69,85
186960,note_on,240,0,2,,,,,,,,,1,,52,0
186960,note_on,0,0,2,,,,,,,,,1,,54,85
187080,note_on,120,0,1,,,,,,,,,0,,69,0
187080,note_on,0,0,1,,,,,,,,,0,,74,85
187200,note_on,120,0,1,,,,,,,,,0,,74,0
187200,note_on,0,0,1,,,,,,,,,0,,70,85
187200,note_on,240,0,2,,,,,,,,,1,,54,0
187200,note_on,0,0,2,,,,,,,,,1,,55,85
187320,note_on,0,0,1,,,,,,,,,0,,67,85
187320,note_on,120,0,1,,,,,,,,,0,,70,0
187440,note_on,240,0,2,,,,,,,,,1,,55,0
187440,note_on,0,0,2,,,,,,,,,1,,43,85
187440,note_on,120,0,1,,,,,,,,,0,,67,0
187440,note_on,0,0,1,,,,,,,,,0,,69,85
187560,note_on,120,0,1,,,,,,,,,0,,69,0
187560,note_on,0,0,1,,,,,,,,,0,,70,85
187680,note_on,0,0,1,,,,,,,,,0,,72,85
187680,note_on,120,0,1,,,,,,,,,0,,70,0
187680,note_on,240,0,2,,,,,,,,,1,,43,0
187800,note_on,0,0,1,,,,,,,,,0,,74,85
187800,note_on,120,0,1,,,,,,,,,0,,72,0
187916,set_tempo,5744,1,0,,,,,,500000,,,,,,
187920,note_on,0,0,1,,,,,,,,,0,,72,85
187920,note_on,120,0,1,,,,,,,,,0,,74,0
187920,note_on,240,0,2,,,,,,,,,1,,48,85
187920,note_on,0,0,1,,,,,,,,,0,,75,85
187920,note_on,0,0,1,,,,,,,,,0,,67,85
188156,text,236,1,1,,,,,,,,,,,,
188160,note_on,0,0,2,,,,,,,,,1,,53,85
188160,note_on,240,0,2,,,,,,,,,1,,48,0
188160,text,0,1,1,,,,,,,,,,,,
188160,note_on,4,0,1,,,,,,,,,0,,75,0
188160,note_on,0,0,1,,,,,,,,,0,,72,0
188160,note_on,0,0,1,,,,,,,,,0,,67,0
188160,note_on,0,0,1,,,,,,,,,0,,65,85
188160,note_on,0,0,1,,,,,,,,,0,,74,85
188164,note_on,4,0,1,,,,,,,,,0,,69,85
188236,note_on,72,0,1,,,,,,,,,0,,74,0
188240,note_on,4,0,1,,,,,,,,,0,,72,85
188276,note_on,36,0,1,,,,,,,,,0,,72,0
188280,note_on,4,0,1,,,,,,,,,0,,74,85
188316,note_on,36,0,1,,,,,,,,,0,,74,0
188320,note_on,4,0,1,,,,,,,,,0,,72,85
188356,note_on,36,0,1,,,,,,,,,0,,72,0
188360,note_on,4,0,1,,,,,,,,,0,,74,85
188396,note_on,36,0,1,,,,,,,,,0,,74,0
188400,note_on,4,0,1,,,,,,,,,0,,72,85
188400,note_on,240,0,2,,,,,,,,,1,,53,0
188400,note_on,0,0,2,,,,,,,,,1,,41,85
188516,note_on,116,0,1,,,,,,,,,0,,72,0
188520,note_on,4,0,1,,,,,,,,,0,,70,85
188564,note_on,44,0,1,,,,,,,,,0,,69,0
188580,note_on,16,0,1,,,,,,,,,0,,70,0
188580,note_on,0,0,1,,,,,,,,,0,,72,85
188640,note_on,0,0,2,,,,,,,,,1,,46,85
188640,note_on,60,0,1,,,,,,,,,0,,72,0
188640,note_on,0,0,1,,,,,,,,,0,,65,0
188640,note_on,0,0,1,,,,,,,,,0,,70,85
188640,note_on,240,0,2,,,,,,,,,1,,41,0
188644,note_on,4,0,1,,,,,,,,,0,,74,85
188880,note_on,236,0,1,,,,,,,,,0,,70,0
188880,note_on,0,0,1,,,,,,,,,0,,66,85
188880,note_on,0,0,2,,,,,,,,,1,,50,85
188880,note_on,240,0,2,,,,,,,,,1,,46,0
188884,note_on,0,0,1,,,,,,,,,0,,69,85
188884,note_on,4,0,1,,,,,,,,,0,,74,0
189092,note_on,208,0,1,,,,,,,,,0,,69,0
189120,note_on,28,0,1,,,,,,,,,0,,66,0
189120,note_on,0,0,1,,,,,,,,,0,,67,85
189120,note_on,0,0,1,,,,,,,,,0,,70,85
189120,note_on,0,0,2,,,,,,,,,1,,55,85
189120,note_on,240,0,2,,,,,,,,,1,,50,0
189200,note_on,0,0,1,,,,,,,,,0,,72,85
189200,note_on,80,0,1,,,,,,,,,0,,70,0
189240,note_on,40,0,1,,,,,,,,,0,,72,0
189240,note_on,0,0,1,,,,,,,,,0,,70,85
189280,note_on,40,0,1,,,,,,,,,0,,70,0
189280,note_on,0,0,1,,,,,,,,,0,,69,85
189320,note_on,40,0,1,,,,,,,,,0,,69,0
189344,note_on,24,0,1,,,,,,,,,0,,70,85
189360,note_on,0,0,2,,,,,,,,,1,,48,85
189360,note_on,240,0,2,,,,,,,,,1,,55,0
189472,note_on,128,0,1,,,,,,,,,0,,70,0
189480,note_on,8,0,1,,,,,,,,,0,,67,0
189480,note_on,0,0,1,,,,,,,,,0,,69,85
189480,note_on,0,0,1,,,,,,,,,0,,72,85
189596,text,116,1,1,,,,,,,,,,,,
189600,note_on,4,0,1,,,,,,,,,0,,69,0
189600,note_on,0,0,1,,,,,,,,,0,,66,85
189600,note_on,0,0,1,,,,,,,,,0,,70,85
189600,note_on,0,0,2,,,,,,,,,1,,50,85
189600,text,0,1,1,,,,,,,,,,,,
189600,note_on,240,0,2,,,,,,,,,1,,48,0
189600,note_on,0,0,1,,,,,,,,,0,,72,0
189676,note_on,76,0,1,,,,,,,,,0,,70,0
189680,note_on,4,0,1,,,,,,,,,0,,69,85
189716,note_on,36,0,1,,,,,,,,,0,,69,0
189720,note_on,4,0,1,,,,,,,,,0,,70,85
189756,note_on,36,0,1,,,,,,,,,0,,70,0
189760,note_on,4,0,1,,,,,,,,,0,,69,85
189796,note_on,36,0,1,,,,,,,,,0,,69,0
189800,note_on,4,0,1,,,,,,,,,0,,70,85
189836,note_on,36,0,1,,,,,,,,,0,,70,0
189840,note_on,4,0,1,,,,,,,,,0,,69,85
189840,note_on,240,0,2,,,,,,,,,1,,50,0
189840,note_on,0,0,2,,,,,,,,,1,,38,85
189956,note_on,116,0,1,,,,,,,,,0,,69,0
189960,note_on,4,0,1,,,,,,,,,0,,67,85
190036,set_tempo,2120,1,0,,,,,,501295,,,,,,
190075,set_tempo,39,1,0,,,,,,1242493,,,,,,
190080,note_on,0,0,2,,,,,,,,,1,,43,85
190080,note_on,240,0,2,,,,,,,,,1,,38,0
190080,note_on,0,0,1,,,,,,,,,0,,66,0
190080,note_on,120,0,1,,,,,,,,,0,,67,0
190080,note_on,0,0,1,,,,,,,,,0,,67,85
190112,note_on,32,0,2,,,,,,,,,1,,46,85
190144,note_on,32,0,2,,,,,,,,,1,,50,85
190152,set_tempo,77,1,0,,,,,,1260769,,,,,,
190156,set_tempo,4,1,0,,,,,,832293,,,,,,
190161,set_tempo,5,1,0,,,,,,625717,,,,,,
190166,set_tempo,5,1,0,,,,,,501295,,,,,,
190171,set_tempo,5,1,0,,,,,,460865,,,,,,
190176,note_on,32,0,2,,,,,,,,,1,,55,85
190200,note_on,120,0,1,,,,,,,,,0,,67,0
190200,note_on,0,0,1,,,,,,,,,0,,74,85
190320,note_on,0,0,1,,,,,,,,,0,,76,85
190320,note_on,120,0,1,,,,,,,,,0,,74,0
190440,note_on,0,0,1,,,,,,,,,0,,78,85
190440,note_on,120,0,1,,,,,,,,,0,,76,0
190544,note_on,368,0,2,,,,,,,,,1,,50,0
190560,note_on,16,0,2,,,,,,,,,1,,43,0
190560,note_on,0,0,2,,,,,,,,,1,,46,0
190560,note_on,0,0,1,,,,,,,,,0,,79,85
190560,note_on,120,0,1,,,,,,,,,0,,78,0
190560,note_on,0,0,2,,,,,,,,,1,,55,0
190680,note_on,120,0,1,,,,,,,,,0,,79,0
190680,note_on,0,0,1,,,,,,,,,0,,81,85
190800,note_on,240,0,2,,,,,,,,,1,,55,85
190800,note_on,120,0,1,,,,,,,,,0,,81,0
190800,note_on,0,0,1,,,,,,,,,0,,82,85
190844,set_tempo,673,1,0,,,,,,461538,,,,,,
190920,note_on,0,0,1,,,,,,,,,0,,81,85
190920,note_on,120,0,1,,,,,,,,,0,,82,0
191040,note_on,240,0,2,,,,,,,,,1,,55,0
191040,note_on,120,0,1,,,,,,,,,0,,81,0
191040,note_on,0,0,1,,,,,,,,,0,,79,85
191040,note_on,0,0,2,,,,,,,,,1,,58,85
191160,note_on,0,0,1,,,,,,,,,0,,77,85
191160,note_on,120,0,1,,,,,,,,,0,,79,0
191280,note_on,0,0,2,,,,,,,,,1,,60,85
191280,note_on,120,0,1,,,,,,,,,0,,77,0
191280,note_on,0,0,1,,,,,,,,,0,,76,85
191280,note_on,240,0,2,,,,,,,,,1,,58,0
191400,note_on,120,0,1,,,,,,,,,0,,76,0
191400,note_on,0,0,1,,,,,,,,,0,,79,85
191520,note_on,240,0,2,,,,,,,,,1,,60,0
191520,note_on,0,0,2,,,,,,,,,1,,53,85
191520,note_on,120,0,1,,,,,,,,,0,,79,0
191520,note_on,0,0,1,,,,,,,,,0,,81,85
191640,note_on,120,0,1,,,,,,,,,0,,81,0
191640,note_on,0,0,1,,,,,,,,,0,,79,85
191760,note_on,0,0,1,,,,,,,,,0,,77,85
191760,note_on,0,0,2,,,,,,,,,1,,57,85
191760,note_on,240,0,2,,,,,,,,,1,,53,0
191760,note_on,120,0,1,,,,,,,,,0,,79,0
191880,note_on,120,0,1,,,,,,,,,0,,77,0
191880,note_on,0,0,1,,,,,,,,,0,,76,85
192000,note_on,0,0,1,,,,,,,,,0,,74,85
192000,note_on,0,0,2,,,,,,,,,1,,58,85
192000,note_on,240,0,2,,,,,,,,,1,,57,0
192000,note_on,120,0,1,,,,,,,,,0,,76,0
192120,note_on,0,0,1,,,,,,,,,0,,77,85
192120,note_on,120,0,1,,,,,,,,,0,,74,0
192240,note_on,240,0,2,,,,,,,,,1,,58,0
192240,note_on,120,0,1,,,,,,,,,0,,77,0
192240,note_on,0,0,1,,,,,,,,,0,,79,85
192240,note_on,0,0,2,,,,,,,,,1,,52,85
192360,note_on,120,0,1,,,,,,,,,0,,79,0
192360,note_on,0,0,1,,,,,,,,,0,,77,85
192480,note_on,120,0,1,,,,,,,,,0,,77,0
192480,note_on,0,0,1,,,,,,,,,0,,76,85
192480,note_on,0,0,2,,,,,,,,,1,,55,85
192480,note_on,240,0,2,,,,,,,,,1,,52,0
192600,note_on,120,0,1,,,,,,,,,0,,76,0
192600,note_on,0,0,1,,,,,,,,,0,,77,85
192720,note_on,240,0,2,,,,,,,,,1,,55,0
192720,note_on,120,0,1,,,,,,,,,0,,77,0
192720,note_on,0,0,1,,,,,,,,,0,,74,85
192720,note_on,0,0,2,,,,,,,,,1,,52,85
192840,note_on,120,0,1,,,,,,,,,0,,74,0
192840,note_on,0,0,1,,,,,,,,,0,,76,85
192960,note_on,0,0,2,,,,,,,,,1,,57,85
192960,note_on,120,0,1,,,,,,,,,0,,76,0
192960,note_on,240,0,2,,,,,,,,,1,,52,0
192960,note_on,0,0,1,,,,,,,,,0,,73,85
193080,note_on,0,0,1,,,,,,,,,0,,76,85
193080,note_on,120,0,1,,,,,,,,,0,,73,0
193200,note_on,240,0,2,,,,,,,,,1,,57,0
193200,note_on,0,0,2,,,,,,,,,1,,45,85
193200,note_on,120,0,1,,,,,,,,,0,,76,0
193200,note_on,0,0,1,,,,,,,,,0,,69,85
193320,note_on,120,0,1,,,,,,,,,0,,69,0
193320,note_on,0,0,1,,,,,,,,,0,,70,85
193440,note_on,240,0,2,,,,,,,,,1,,45,0
193440,note_on,120,0,1,,,,,,,,,0,,70,0
193440,note_on,0,0,1,,,,,,,,,0,,69,85
193560,note_on,120,0,1,,,,,,,,,0,,69,0
193560,note_on,0,0,1,,,,,,,,,0,,67,85
193680,note_on,120,0,1,,,,,,,,,0,,67,0
193680,note_on,0,0,1,,,,,,,,,0,,65,85
193800,note_on,0,0,1,,,,,,,,,0,,64,85
193800,note_on,120,0,1,,,,,,,,,0,,65,0
193920,note_on,120,0,1,,,,,,,,,0,,64,0
193920,note_on,0,0,1,,,,,,,,,0,,62,85
194040,note_on,0,0,1,,,,,,,,,0,,64,85
194040,note_on,120,0,1,,,,,,,,,0,,62,0
194160,note_on,120,0,1,,,,,,,,,0,,64,0
194160,note_on,0,0,1,,,,,,,,,0,,65,85
194280,note_on,120,0,1,,,,,,,,,0,,65,0
194280,note_on,0,0,1,,,,,,,,,0,,67,85
194400,note_on,120,0,1,,,,,,,,,0,,67,0
194400,note_on,0,0,1,,,,,,,,,0,,69,85
194520,note_on,120,0,1,,,,,,,,,0,,69,0
194520,note_on,0,0,1,,,,,,,,,0,,64,85
194640,note_on,0,0,1,,,,,,,,,0,,69,85
194640,note_on,120,0,1,,,,,,,,,0,,64,0
194760,note_on,120,0,1,,,,,,,,,0,,69,0
194760,note_on,0,0,1,,,,,,,,,0,,71,85
194880,note_on,120,0,1,,,,,,,,,0,,71,0
194880,note_on,0,0,1,,,,,,,,,0,,73,85
195000,note_on,0,0,1,,,,,,,,,0,,69,85
195000,note_on,120,0,1,,,,,,,,,0,,73,0
195120,note_on,120,0,1,,,,,,,,,0,,69,0
195120,note_on,0,0,1,,,,,,,,,0,,74,85
195240,note_on,0,0,1,,,,,,,,,0,,69,85
195240,note_on,120,0,1,,,,,,,,,0,,74,0
195360,note_on,0,0,1,,,,,,,,,0,,74,85
195360,note_on,120,0,1,,,,,,,,,0,,69,0
195480,note_on,120,0,1,,,,,,,,,0,,74,0
195480,note_on,0,0,1,,,,,,,,,0,,77,85
195600,note_on,0,0,1,,,,,,,,,0,,76,85
195600,note_on,120,0,1,,,,,,,,,0,,77,0
195720,note_on,0,0,1,,,,,,,,,0,,74,85
195720,note_on,120,0,1,,,,,,,,,0,,76,0
195840,note_on,0,0,1,,,,,,,,,0,,73,85
195840,note_on,120,0,1,,,,,,,,,0,,74,0
195960,note_on,120,0,1,,,,,,,,,0,,73,0
195960,note_on,0,0,1,,,,,,,,,0,,76,85
196080,note_on,0,0,1,,,,,,,,,0,,81,85
196080,note_on,2640,0,2,,,,,,,,,1,,61,85
196080,note_on,120,0,1,,,,,,,,,0,,76,0
196200,note_on,120,0,1,,,,,,,,,0,,81,0
196200,note_on,0,0,1,,,,,,,,,0,,79,85
196320,note_on,0,0,2,,,,,,,,,1,,57,85
196320,note_on,120,0,1,,,,,,,,,0,,79,0
196320,note_on,240,0,2,,,,,,,,,1,,61,0
196320,note_on,0,0,1,,,,,,,,,0,,77,85
196440,note_on,120,0,1,,,,,,,,,0,,77,0
196440,note_on,0,0,1,,,,,,,,,0,,76,85
196560,note_on,120,0,1,,,,,,,,,0,,76,0
196560,note_on,0,0,1,,,,,,,,,0,,77,85
196560,note_on,240,0,2,,,,,,,,,1,,57,0
196560,note_on,0,0,2,,,,,,,,,1,,62,85
196680,note_on,120,0,1,,,,,,,,,0,,77,0
196680,note_on,0,0,1,,,,,,,,,0,,81,85
196680,note_on,120,0,2,,,,,,,,,1,,62,0
196680,note_on,0,0,2,,,,,,,,,1,,65,85
196800,note_on,0,0,2,,,,,,,,,1,,64,85
196800,note_on,0,0,1,,,,,,,,,0,,79,85
196800,note_on,120,0,2,,,,,,,,,1,,65,0
196800,note_on,120,0,1,,,,,,,,,0,,81,0
196920,note_on,120,0,2,,,,,,,,,1,,64,0
196920,note_on,0,0,2,,,,,,,,,1,,65,85
196920,note_on,0,0,1,,,,,,,,,0,,81,85
196920,note_on,120,0,1,,,,,,,,,0,,79,0
197040,note_on,0,0,2,,,,,,,,,1,,62,85
197040,note_on,120,0,2,,,,,,,,,1,,65,0
197040,note_on,120,0,1,,,,,,,,,0,,81,0
197040,note_on,0,0,1,,,,,,,,,0,,77,85
197160,note_on,120,0,1,,,,,,,,,0,,77,0
197160,note_on,0,0,2,,,,,,,,,1,,65,85
197160,note_on,120,0,2,,,,,,,,,1,,62,0
197160,note_on,0,0,1,,,,,,,,,0,,81,85
197280,note_on,120,0,2,,,,,,,,,1,,65,0
197280,note_on,0,0,2,,,,,,,,,1,,58,85
197280,note_on,0,0,1,,,,,,,,,0,,74,85
197280,note_on,120,0,1,,,,,,,,,0,,81,0
197400,note_on,120,0,1,,,,,,,,,0,,74,0
197400,note_on,0,0,1,,,,,,,,,0,,82,85
197400,note_on,0,0,2,,,,,,,,,1,,67,85
197400,note_on,120,0,2,,,,,,,,,1,,58,0
197520,note_on,120,0,1,,,,,,,,,0,,82,0
197520,note_on,0,0,1,,,,,,,,,0,,81,85
197520,note_on,0,0,2,,,,,,,,,1,,65,85
197520,note_on,120,0,2,,,,,,,,,1,,67,0
197640,note_on,0,0,2,,,,,,,,,1,,67,85
197640,note_on,120,0,2,,,,,,,,,1,,65,0
197640,note_on,0,0,1,,,,,,,,,0,,82,85
197640,note_on,120,0,1,,,,,,,,,0,,81,0
197760,note_on,120,0,1,,,,,,,,,0,,82,0
197760,note_on,0,0,1,,,,,,,,,0,,74,85
197760,note_on,120,0,2,,,,,,,,,1,,67,0
197760,note_on,0,0,2,,,,,,,,,1,,58,85
197880,note_on,0,0,1,,,,,,,,,0,,82,85
197880,note_on,120,0,1,,,,,,,,,0,,74,0
197880,note_on,120,0,2,,,,,,,,,1,,58,0
197880,note_on,0,0,2,,,,,,,,,1,,67,85
198000,note_on,120,0,2,,,,,,,,,1,,67,0
198000,note_on,0,0,2,,,,,,,,,1,,60,85
198000,note_on,0,0,1,,,,,,,,,0,,76,85
198000,note_on,120,0,1,,,,,,,,,0,,82,0
198120,note_on,0,0,1,,,,,,,,,0,,79,85
198120,note_on,120,0,2,,,,,,,,,1,,60,0
198120,note_on,120,0,1,,,,,,,,,0,,76,0
198120,note_on,0,0,2,,,,,,,,,1,,64,85
198240,note_on,120,0,2,,,,,,,,,1,,64,0
198240,note_on,120,0,1,,,,,,,,,0,,79,0
198240,note_on,0,0,2,,,,,,,,,1,,62,85
198240,note_on,0,0,1,,,,,,,,,0,,77,85
198360,note_on,0,0,2,,,,,,,,,1,,64,85
198360,note_on,120,0,1,,,,,,,,,0,,77,0
198360,note_on,0,0,1,,,,,,,,,0,,79,85
198360,note_on,120,0,2,,,,,,,,,1,,62,0
198480,note_on,0,0,2,,,,,,,,,1,,60,85
198480,note_on,120,0,2,,,,,,,,,1,,64,0
198480,note_on,120,0,1,,,,,,,,,0,,79,0
198480,note_on,0,0,1,,,,,,,,,0,,76,85
198600,note_on,120,0,2,,,,,,,,,1,,60,0
198600,note_on,120,0,1,,,,,,,,,0,,76,0
198600,note_on,0,0,1,,,,,,,,,0,,79,85
198600,note_on,0,0,2,,,,,,,,,1,,64,85
198720,note_on,120,0,1,,,,,,,,,0,,79,0
198720,note_on,0,0,1,,,,,,,,,0,,72,85
198720,note_on,120,0,2,,,,,,,,,1,,64,0
198720,note_on,0,0,2,,,,,,,,,1,,57,85
198840,note_on,120,0,2,,,,,,,,,1,,57,0
198840,note_on,0,0,2,,,,,,,,,1,,65,85
198840,note_on,120,0,1,,,,,,,,,0,,72,0
198840,note_on,0,0,1,,,,,,,,,0,,81,85
198960,note_on,120,0,2,,,,,,,,,1,,65,0
198960,note_on,0,0,2,,,,,,,,,1,,64,85
198960,note_on,120,0,1,,,,,,,,,0,,81,0
198960,note_on,0,0,1,,,,,,,,,0,,79,85
199080,note_on,0,0,1,,,,,,,,,0,,81,85
199080,note_on,120,0,1,,,,,,,,,0,,79,0
199080,note_on,120,0,2,,,,,,,,,1,,64,0
199080,note_on,0,0,2,,,,,,,,,1,,65,85
199200,note_on,0,0,2,,,,,,,,,1,,57,85
199200,note_on,0,0,1,,,,,,,,,0,,72,85
199200,note_on,120,0,1,,,,,,,,,0,,81,0
199200,note_on,120,0,2,,,,,,,,,1,,65,0
199320,note_on,0,0,2,,,,,,,,,1,,65,85
199320,note_on,0,0,1,,,,,,,,,0,,81,85
199320,note_on,120,0,1,,,,,,,,,0,,72,0
199320,note_on,120,0,2,,,,,,,,,1,,57,0
199440,note_on,120,0,2,,,,,,,,,1,,65,0
199440,note_on,0,0,1,,,,,,,,,0,,74,85
199440,note_on,120,0,1,,,,,,,,,0,,81,0
199440,note_on,0,0,2,,,,,,,,,1,,58,85
199560,note_on,0,0,1,,,,,,,,,0,,77,85
199560,note_on,120,0,1,,,,,,,,,0,,74,0
199560,note_on,0,0,2,,,,,,,,,1,,62,85
199560,note_on,120,0,2,,,,,,,,,1,,58,0
199680,note_on,120,0,1,,,,,,,,,0,,77,0
199680,note_on,0,0,1,,,,,,,,,0,,76,85
199680,note_on,120,0,2,,,,,,,,,1,,62,0
199680,note_on,0,0,2,,,,,,,,,1,,60,85
199800,note_on,120,0,2,,,,,,,,,1,,60,0
199800,note_on,0,0,1,,,,,,,,,0,,77,85
199800,note_on,120,0,1,,,,,,,,,0,,76,0
199800,note_on,0,0,2,,,,,,,,,1,,62,85
199920,note_on,0,0,1,,,,,,,,,0,,74,85
199920,note_on,120,0,2,,,,,,,,,1,,62,0
199920,note_on,0,0,2,,,,,,,,,1,,58,85
199920,note_on,120,0,1,,,,,,,,,0,,77,0
200040,note_on,0,0,2,,,,,,,,,1,,62,85
200040,note_on,120,0,1,,,,,,,,,0,,74,0
200040,note_on,120,0,2,,,,,,,,,1,,58,0
200040,note_on,0,0,1,,,,,,,,,0,,77,85
200160,note_on,0,0,2,,,,,,,,,1,,55,85
200160,note_on,120,0,2,,,,,,,,,1,,62,0
200160,note_on,0,0,1,,,,,,,,,0,,70,85
200160,note_on,120,0,1,,,,,,,,,0,,77,0
200280,note_on,120,0,2,,,,,,,,,1,,55,0
200280,note_on,0,0,2,,,,,,,,,1,,64,85
200280,note_on,0,0,1,,,,,,,,,0,,79,85
200280,note_on,120,0,1,,,,,,,,,0,,70,0
200400,note_on,120,0,2,,,,,,,,,1,,64,0
200400,note_on,0,0,1,,,,,,,,,0,,77,85
200400,note_on,120,0,1,,,,,,,,,0,,79,0
200400,note_on,0,0,2,,,,,,,,,1,,62,85
200520,note_on,0,0,2,,,,,,,,,1,,64,85
200520,note_on,120,0,2,,,,,,,,,1,,62,0
200520,note_on,0,0,1,,,,,,,,,0,,79,85
200520,note_on,120,0,1,,,,,,,,,0,,77,0
200640,note_on,120,0,2,,,,,,,,,1,,64,0
200640,note_on,0,0,2,,,,,,,,,1,,55,85
200640,note_on,0,0,1,,,,,,,,,0,,76,85
200640,note_on,120,0,1,,,,,,,,,0,,79,0
200760,note_on,0,0,2,,,,,,,,,1,,64,85
200760,note_on,0,0,1,,,,,,,,,0,,79,85
200760,note_on,120,0,1,,,,,,,,,0,,76,0
200760,note_on,120,0,2,,,,,,,,,1,,55,0
200880,note_on,0,0,2,,,,,,,,,1,,57,85
200880,note_on,120,0,2,,,,,,,,,1,,64,0
200880,note_on,120,0,1,,,,,,,,,0,,79,0
200880,note_on,0,0,1,,,,,,,,,0,,73,85
201000,note_on,0,0,1,,,,,,,,,0,,79,85
201000,note_on,120,0,1,,,,,,,,,0,,73,0
201000,note_on,120,0,2,,,,,,,,,1,,57,0
201000,note_on,0,0,2,,,,,,,,,1,,64,85
201120,note_on,120,0,2,,,,,,,,,1,,64,0
201120,note_on,120,0,1,,,,,,,,,0,,79,0
201120,note_on,0,0,2,,,,,,,,,1,,62,85
201120,note_on,0,0,1,,,,,,,,,0,,77,85
201240,note_on,0,0,2,,,,,,,,,1,,64,85
201240,note_on,0,0,1,,,,,,,,,0,,79,85
201240,note_on,120,0,1,,,,,,,,,0,,77,0
201240,note_on,120,0,2,,,,,,,,,1,,62,0
201360,note_on,120,0,2,,,,,,,,,1,,64,0
201360,note_on,0,0,1,,,,,,,,,0,,74,85
201360,note_on,120,0,1,,,,,,,,,0,,79,0
201360,note_on,0,0,2,,,,,,,,,1,,59,85
201480,note_on,120,0,1,,,,,,,,,0,,74,0
201480,note_on,120,0,2,,,,,,,,,1,,59,0
201480,note_on,0,0,1,,,,,,,,,0,,79,85
201480,note_on,0,0,2,,,,,,,,,1,,64,85
201600,note_on,0,0,2,,,,,,,,,1,,61,85
201600,note_on,120,0,1,,,,,,,,,0,,79,0
201600,note_on,120,0,2,,,,,,,,,1,,64,0
201600,note_on,0,0,1,,,,,,,,,0,,76,85
201720,note_on,0,0,1,,,,,,,,,0,,79,85
201720,note_on,120,0,1,,,,,,,,,0,,76,0
201720,note_on,120,0,2,,,,,,,,,1,,61,0
201720,note_on,0,0,2,,,,,,,,,1,,64,85
201840,note_on,0,0,1,,,,,,,,,0,,74,85
201840,note_on,120,0,2,,,,,,,,,1,,64,0
201840,note_on,0,0,2,,,,,,,,,1,,59,85
201840,note_on,120,0,1,,,,,,,,,0,,79,0
201960,note_on,120,0,1,,,,,,,,,0,,74,0
201960,note_on,0,0,1,,,,,,,,,0,,79,85
201960,note_on,120,0,2,,,,,,,,,1,,59,0
201960,note_on,0,0,2,,,,,,,,,1,,64,85
202080,note_on,120,0,1,,,,,,,,,0,,79,0
202080,note_on,120,0,2,,,,,,,,,1,,64,0
202080,note_on,0,0,2,,,,,,,,,1,,61,85
202080,note_on,0,0,1,,,,,,,,,0,,76,85
202200,note_on,120,0,2,,,,,,,,,1,,61,0
202200,note_on,0,0,1,,,,,,,,,0,,79,85
202200,note_on,120,0,1,,,,,,,,,0,,76,0
202200,note_on,0,0,2,,,,,,,,,1,,64,85
202320,note_on,120,0,1,,,,,,,,,0,,79,0
202320,note_on,120,0,2,,,,,,,,,1,,64,0
202320,note_on,0,0,1,,,,,,,,,0,,77,85
202320,note_on,0,0,2,,,,,,,,,1,,62,85
202440,note_on,120,0,1,,,,,,,,,0,,69,85
202560,note_on,240,0,2,,,,,,,,,1,,62,0
202560,note_on,0,0,2,,,,,,,,,1,,53,85
202560,note_on,0,0,1,,,,,,,,,0,,67,85
202560,note_on,120,0,1,,,,,,,,,0,,69,0
202680,note_on,0,0,1,,,,,,,,,0,,69,85
202680,note_on,120,0,1,,,,,,,,,0,,67,0
202800,note_on,240,0,2,,,,,,,,,1,,53,0
202800,note_on,0,0,2,,,,,,,,,1,,50,85
202800,note_on,120,0,1,,,,,,,,,0,,69,0
202800,note_on,0,0,1,,,,,,,,,0,,65,85
202920,note_on,120,0,1,,,,,,,,,0,,65,0
202920,note_on,0,0,1,,,,,,,,,0,,69,85
203040,note_on,0,0,1,,,,,,,,,0,,70,85
203040,note_on,0,0,1,,,,,,,,,0,,77,0
203040,note_on,0,0,2,,,,,,,,,1,,55,85
203040,note_on,120,0,1,,,,,,,,,0,,69,0
203040,note_on,240,0,2,,,,,,,,,1,,50,0
203160,note_on,120,0,1,,,,,,,,,0,,74,85
203280,note_on,0,0,1,,,,,,,,,0,,67,85
203280,note_on,120,0,1,,,,,,,,,0,,74,0
203280,note_on,0,0,2,,,,,,,,,1,,58,85
203280,note_on,240,0,2,,,,,,,,,1,,55,0
203400,note_on,0,0,1,,,,,,,,,0,,74,85
203400,note_on,120,0,1,,,,,,,,,0,,67,0
203520,note_on,0,0,2,,,,,,,,,1,,55,85
203520,note_on,240,0,2,,,,,,,,,1,,58,0
203520,note_on,0,0,1,,,,,,,,,0,,79,85
203520,note_on,120,0,1,,,,,,,,,0,,74,0
203640,note_on,0,0,1,,,,,,,,,0,,74,85
203640,note_on,120,0,1,,,,,,,,,0,,79,0
203760,note_on,240,0,2,,,,,,,,,1,,55,0
203760,note_on,0,0,2,,,,,,,,,1,,60,85
203760,note_on,120,0,1,,,,,,,,,0,,74,0
203760,note_on,0,0,1,,,,,,,,,0,,70,0
203760,note_on,0,0,1,,,,,,,,,0,,76,85
203880,note_on,120,0,1,,,,,,,,,0,,67,85
204000,note_on,0,0,2,,,,,,,,,1,,52,85
204000,note_on,240,0,2,,,,,,,,,1,,60,0
204000,note_on,0,0,1,,,,,,,,,0,,65,85
204000,note_on,120,0,1,,,,,,,,,0,,67,0
204120,note_on,0,0,1,,,,,,,,,0,,67,85
204120,note_on,120,0,1,,,,,,,,,0,,65,0
204240,note_on,0,0,2,,,,,,,,,1,,48,85
204240,note_on,0,0,1,,,,,,,,,0,,64,85
204240,note_on,120,0,1,,,,,,,,,0,,67,0
204240,note_on,240,0,2,,,,,,,,,1,,52,0
204360,note_on,120,0,1,,,,,,,,,0,,64,0
204360,note_on,0,0,1,,,,,,,,,0,,67,85
204480,note_on,120,0,1,,,,,,,,,0,,67,0
204480,note_on,0,0,1,,,,,,,,,0,,76,0
204480,note_on,0,0,1,,,,,,,,,0,,69,85
204480,note_on,240,0,2,,,,,,,,,1,,48,0
204480,note_on,0,0,2,,,,,,,,,1,,53,85
204600,note_on,120,0,1,,,,,,,,,0,,72,85
204720,note_on,120,0,1,,,,,,,,,0,,72,0
204720,note_on,0,0,1,,,,,,,,,0,,65,85
204720,note_on,0,0,2,,,,,,,,,1,,57,85
204720,note_on,240,0,2,,,,,,,,,1,,53,0
204840,note_on,120,0,1,,,,,,,,,0,,65,0
204840,note_on,0,0,1,,,,,,,,,0,,72,85
204960,note_on,0,0,1,,,,,,,,,0,,77,85
204960,note_on,240,0,2,,,,,,,,,1,,57,0
204960,note_on,0,0,2,,,,,,,,,1,,53,85
204960,note_on,120,0,1,,,,,,,,,0,,72,0
205080,note_on,120,0,1,,,,,,,,,0,,77,0
205080,note_on,0,0,1,,,,,,,,,0,,72,85
205200,note_on,240,0,2,,,,,,,,,1,,53,0
205200,note_on,120,0,1,,,,,,,,,0,,72,0
205200,note_on,0,0,1,,,,,,,,,0,,69,0
205200,note_on,0,0,1,,,,,,,,,0,,74,85
205200,note_on,0,0,2,,,,,,,,,1,,58,85
205320,note_on,120,0,1,,,,,,,,,0,,65,85
205440,note_on,240,0,2,,,,,,,,,1,,58,0
205440,note_on,0,0,1,,,,,,,,,0,,64,85
205440,note_on,120,0,1,,,,,,,,,0,,65,0
205440,note_on,0,0,2,,,,,,,,,1,,62,85
205560,note_on,0,0,1,,,,,,,,,0,,65,85
205560,note_on,120,0,1,,,,,,,,,0,,64,0
205680,note_on,0,0,2,,,,,,,,,1,,58,85
205680,note_on,120,0,1,,,,,,,,,0,,65,0
205680,note_on,0,0,1,,,,,,,,,0,,62,85
205680,note_on,240,0,2,,,,,,,,,1,,62,0
205800,note_on,120,0,1,,,,,,,,,0,,62,0
205800,note_on,0,0,1,,,,,,,,,0,,72,85
205920,note_on,0,0,1,,,,,,,,,0,,70,85
205920,note_on,0,0,1,,,,,,,,,0,,74,0
205920,note_on,0,0,2,,,,,,,,,1,,55,85
205920,note_on,240,0,2,,,,,,,,,1,,58,0
205920,note_on,120,0,1,,,,,,,,,0,,72,0
206040,note_on,0,0,1,,,,,,,,,0,,69,85
206040,note_on,120,0,1,,,,,,,,,0,,70,0
206160,note_on,0,0,1,,,,,,,,,0,,67,85
206160,note_on,240,0,2,,,,,,,,,1,,55,0
206160,note_on,0,0,2,,,,,,,,,1,,58,85
206160,note_on,120,0,1,,,,,,,,,0,,69,0
206280,note_on,120,0,1,,,,,,,,,0,,67,0
206280,note_on,0,0,1,,,,,,,,,0,,65,85
206400,note_on,120,0,1,,,,,,,,,0,,65,0
206400,note_on,0,0,1,,,,,,,,,0,,64,85
206400,note_on,240,0,2,,,,,,,,,1,,58,0
206400,note_on,0,0,2,,,,,,,,,1,,55,85
206520,note_on,0,0,1,,,,,,,,,0,,62,85
206520,note_on,120,0,1,,,,,,,,,0,,64,0
206640,note_on,0,0,2,,,,,,,,,1,,57,85
206640,note_on,240,0,2,,,,,,,,,1,,55,0
206640,note_on,0,0,1,,,,,,,,,0,,61,85
206640,note_on,120,0,1,,,,,,,,,0,,62,0
206760,note_on,0,0,1,,,,,,,,,0,,64,85
206760,note_on,120,0,1,,,,,,,,,0,,61,0
206880,note_on,0,0,1,,,,,,,,,0,,67,85
206880,note_on,120,0,1,,,,,,,,,0,,64,0
207000,note_on,0,0,1,,,,,,,,,0,,70,85
207000,note_on,120,0,1,,,,,,,,,0,,67,0
207120,note_on,120,0,1,,,,,,,,,0,,70,0
207120,note_on,0,0,1,,,,,,,,,0,,69,85
207120,note_on,480,0,2,,,,,,,,,1,,57,0
207240,note_on,0,0,1,,,,,,,,,0,,67,85
207240,note_on,120,0,1,,,,,,,,,0,,69,0
207360,note_on,0,0,1,,,,,,,,,0,,65,85
207360,note_on,120,0,1,,,,,,,,,0,,67,0
207480,note_on,0,0,1,,,,,,,,,0,,69,85
207480,note_on,120,0,1,,,,,,,,,0,,65,0
207600,note_on,120,0,1,,,,,,,,,0,,69,0
207600,note_on,0,0,1,,,,,,,,,0,,74,85
207720,note_on,120,0,1,,,,,,,,,0,,74,0
207720,note_on,0,0,1,,,,,,,,,0,,77,85
207840,note_on,120,0,1,,,,,,,,,0,,77,0
207840,note_on,0,0,1,,,,,,,,,0,,76,85
207960,note_on,120,0,1,,,,,,,,,0,,76,0
207960,note_on,0,0,1,,,,,,,,,0,,74,85
208080,note_on,0,0,1,,,,,,,,,0,,73,85
208080,note_on,120,0,1,,,,,,,,,0,,74,0
208200,note_on,0,0,1,,,,,,,,,0,,76,85
208200,note_on,120,0,1,,,,,,,,,0,,73,0
208320,note_on,120,0,1,,,,,,,,,0,,76,0
208320,note_on,0,0,1,,,,,,,,,0,,79,85
208440,note_on,0,0,1,,,,,,,,,0,,82,85
208440,note_on,120,0,1,,,,,,,,,0,,79,0
208560,note_on,0,0,1,,,,,,,,,0,,81,85
208560,note_on,120,0,1,,,,,,,,,0,,82,0
208680,note_on,0,0,1,,,,,,,,,0,,79,85
208680,note_on,120,0,1,,,,,,,,,0,,81,0
208800,note_on,120,0,1,,,,,,,,,0,,79,0
208800,note_on,0,0,1,,,,,,,,,0,,77,85
208920,note_on,0,0,1,,,,,,,,,0,,69,85
208920,note_on,120,0,1,,,,,,,,,0,,77,0
209040,note_on,0,0,1,,,,,,,,,0,,74,85
209040,note_on,120,0,1,,,,,,,,,0,,69,0
209160,note_on,0,0,1,,,,,,,,,0,,77,85
209160,note_on,120,0,1,,,,,,,,,0,,74,0
209280,note_on,0,0,1,,,,,,,,,0,,76,85
209280,note_on,120,0,1,,,,,,,,,0,,77,0
209400,note_on,0,0,1,,,,,,,,,0,,74,85
209400,note_on,120,0,1,,,,,,,,,0,,76,0
209520,note_on,0,0,1,,,,,,,,,0,,73,85
209520,note_on,120,0,1,,,,,,,,,0,,74,0
209640,note_on,0,0,1,,,,,,,,,0,,76,85
209640,note_on,120,0,1,,,,,,,,,0,,73,0
209760,note_on,120,0,1,,,,,,,,,0,,76,0
209760,note_on,0,0,1,,,,,,,,,0,,69,85
209880,note_on,120,0,1,,,,,,,,,0,,69,0
209880,note_on,0,0,1,,,,,,,,,0,,67,85
210000,note_on,120,0,1,,,,,,,,,0,,67,0
210000,note_on,0,0,1,,,,,,,,,0,,65,85
210120,note_on,120,0,1,,,,,,,,,0,,65,0
210120,note_on,0,0,1,,,,,,,,,0,,64,85
210240,note_on,120,0,1,,,,,,,,,0,,64,0
210240,note_on,0,0,1,,,,,,,,,0,,65,85
210360,note_on,120,0,1,,,,,,,,,0,,65,0
210360,note_on,0,0,1,,,,,,,,,0,,69,85
210480,note_on,120,0,1,,,,,,,,,0,,69,0
210480,note_on,0,0,1,,,,,,,,,0,,67,85
210600,note_on,120,0,1,,,,,,,,,0,,67,0
210600,note_on,0,0,1,,,,,,,,,0,,65,85
210720,note_on,120,0,1,,,,,,,,,0,,65,0
210720,note_on,0,0,1,,,,,,,,,0,,64,85
210840,note_on,120,0,1,,,,,,,,,0,,64,0
210840,note_on,0,0,1,,,,,,,,,0,,62,85
210960,note_on,120,0,1,,,,,,,,,0,,62,0
210960,note_on,0,0,1,,,,,,,,,0,,61,85
211080,note_on,0,0,1,,,,,,,,,0,,64,85
211080,note_on,120,0,1,,,,,,,,,0,,61,0
211200,note_on,120,0,1,,,,,,,,,0,,64,0
211200,note_on,4080,0,2,,,,,,,,,1,,57,85
211320,note_on,0,0,2,,,,,,,,,1,,55,85
211320,note_on,120,0,2,,,,,,,,,1,,57,0
211440,note_on,120,0,2,,,,,,,,,1,,55,0
211440,note_on,0,0,2,,,,,,,,,1,,53,85
211560,note_on,120,0,2,,,,,,,,,1,,53,0
211560,note_on,0,0,2,,,,,,,,,1,,52,85
211680,note_on,120,0,2,,,,,,,,,1,,52,0
211680,note_on,0,0,2,,,,,,,,,1,,53,85
211800,note_on,0,0,2,,,,,,,,,1,,57,85
211800,note_on,120,0,2,,,,,,,,,1,,53,0
211920,note_on,120,0,2,,,,,,,,,1,,57,0
211920,note_on,0,0,2,,,,,,,,,1,,55,85
212040,note_on,120,0,2,,,,,,,,,1,,55,0
212040,note_on,0,0,2,,,,,,,,,1,,53,85
212160,note_on,0,0,2,,,,,,,,,1,,52,85
212160,note_on,120,0,2,,,,,,,,,1,,53,0
212280,note_on,120,0,2,,,,,,,,,1,,52,0
212280,note_on,0,0,2,,,,,,,,,1,,50,85
212400,note_on,120,0,2,,,,,,,,,1,,50,0
212400,note_on,0,0,2,,,,,,,,,1,,49,85
212520,note_on,120,0,2,,,,,,,,,1,,49,0
212520,note_on,0,0,2,,,,,,,,,1,,47,85
212640,note_on,120,0,2,,,,,,,,,1,,47,0
212640,note_on,0,0,2,,,,,,,,,1,,45,85
212752,note_on,112,0,2,,,,,,,,,1,,43,85
212768,note_on,16,0,2,,,,,,,,,1,,45,0
212880,note_on,0,0,2,,,,,,,,,1,,41,85
212880,note_on,112,0,2,,,,,,,,,1,,43,0
213000,note_on,120,0,2,,,,,,,,,1,,41,0
213000,note_on,0,0,2,,,,,,,,,1,,40,85
213120,note_on,0,0,1,,,,,,,,,0,,69,85
213120,note_on,0,0,2,,,,,,,,,1,,50,85
213120,note_on,0,0,2,,,,,,,,,1,,38,85
213120,note_on,120,0,2,,,,,,,,,1,,40,0
213120,note_on,0,0,1,,,,,,,,,0,,65,85
213120,note_on,1920,0,1,,,,,,,,,0,,74,85
213128,set_tempo,22284,1,0,,,,,,600000,,,,,,
213240,note_on,0,0,1,,,,,,,,,0,,76,85
213240,note_on,120,0,1,,,,,,,,,0,,74,0
213356,text,116,1,1,,,,,,,,,,,,
213360,note_on,0,0,1,,,,,,,,,0,,67,85
213360,note_on,0,0,1,,,,,,,,,0,,74,85
213360,text,0,1,1,,,,,,,,,,,,
213360,note_on,0,0,1,,,,,,,,,0,,65,0
213360,note_on,0,0,2,,,,,,,,,1,,55,85
213360,note_on,4,0,1,,,,,,,,,0,,76,0
213360,note_on,240,0,2,,,,,,,,,1,,50,0
213360,note_on,0,0,2,,,,,,,,,1,,38,0
213360,note_on,0,0,2,,,,,,,,,1,,61,85
213360,note_on,0,0,1,,,,,,,,,0,,69,0
213360,note_on,0,0,2,,,,,,,,,1,,52,85
213436,note_on,76,0,1,,,,,,,,,0,,74,0
213440,note_on,4,0,1,,,,,,,,,0,,73,85
213476,note_on,36,0,1,,,,,,,,,0,,73,0
213480,note_on,4,0,1,,,,,,,,,0,,74,85
213516,note_on,36,0,1,,,,,,,,,0,,74,0
213520,note_on,4,0,1,,,,,,,,,0,,73,85
213556,note_on,36,0,1,,,,,,,,,0,,73,0
213560,note_on,4,0,1,,,,,,,,,0,,74,85
213596,note_on,36,0,1,,,,,,,,,0,,74,0
213600,note_on,4,0,1,,,,,,,,,0,,73,85
213716,note_on,116,0,1,,,,,,,,,0,,73,0
213720,note_on,4,0,1,,,,,,,,,0,,71,85
213780,note_on,60,0,1,,,,,,,,,0,,71,0
213780,note_on,0,0,1,,,,,,,,,0,,73,85
213840,note_on,0,0,2,,,,,,,,,1,,57,85
213840,note_on,0,0,2,,,,,,,,,1,,53,85
213840,note_on,0,0,1,,,,,,,,,0,,65,85
213840,note_on,0,0,2,,,,,,,,,1,,52,0
213840,note_on,60,0,1,,,,,,,,,0,,73,0
213840,note_on,0,0,1,,,,,,,,,0,,67,0
213840,note_on,0,0,2,,,,,,,,,1,,62,85
213840,note_on,0,0,2,,,,,,,,,1,,55,0
213840,note_on,0,0,1,,,,,,,,,0,,69,85
213840,note_on,480,0,2,,,,,,,,,1,,61,0
213844,note_on,4,0,1,,,,,,,,,0,,74,85
214036,note_on,192,0,1,,,,,,,,,0,,74,0
214080,note_on,0,0,1,,,,,,,,,0,,64,85
214080,note_on,0,0,1,,,,,,,,,0,,69,85
214080,note_on,0,0,1,,,,,,,,,0,,61,85
214080,note_on,0,0,1,,,,,,,,,0,,65,0
214080,note_on,44,0,1,,,,,,,,,0,,69,0
214080,note_on,0,0,2,,,,,,,,,1,,57,0
214080,note_on,0,0,2,,,,,,,,,1,,49,85
214080,note_on,0,0,2,,,,,,,,,1,,52,85
214080,note_on,0,0,2,,,,,,,,,1,,57,85
214080,note_on,240,0,2,,,,,,,,,1,,62,0
214080,note_on,0,0,2,,,,,,,,,1,,53,0
214320,note_on,240,0,1,,,,,,,,,0,,64,0
214320,note_on,240,0,2,,,,,,,,,1,,57,0
214320,note_on,0,0,2,,,,,,,,,1,,52,0
214320,note_on,0,0,2,,,,,,,,,1,,49,0
214320,note_on,0,0,1,,,,,,,,,0,,61,0
214320,note_on,0,0,1,,,,,,,,,0,,69,0
214560,note_on,0,0,1,,,,,,,,,0,,77,85
214560,note_on,240,0,1,,,,,,,,,0,,69,85
214560,note_on,0,0,2,,,,,,,,,1,,62,85
214560,note_on,0,0,2,,,,,,,,,1,,57,85
214560,note_on,0,0,2,,,,,,,,,1,,53,85
214560,note_on,240,0,2,,,,,,,,,1,,50,85
214564,note_on,4,0,1,,,,,,,,,0,,74,85
214680,note_on,0,0,1,,,,,,,,,0,,79,85
214680,note_on,116,0,1,,,,,,,,,0,,77,0
214788,note_on,108,0,1,,,,,,,,,0,,74,0
214796,text,8,1,1,,,,,,,,,,,,
214800,note_on,0,0,2,,,,,,,,,1,,57,85
214800,note_on,0,0,2,,,,,,,,,1,,57,0
214800,note_on,0,0,2,,,,,,,,,1,,53,0
214800,note_on,0,0,2,,,,,,,,,1,,50,0
214800,note_on,240,0,2,,,,,,,,,1,,62,0
214800,note_on,0,0,2,,,,,,,,,1,,64,85
214800,note_on,4,0,1,,,,,,,,,0,,79,0
214800,note_on,0,0,2,,,,,,,,,1,,61,85
214800,note_on,0,0,1,,,,,,,,,0,,69,0
214800,note_on,0,0,1,,,,,,,,,0,,73,85
214800,note_on,0,0,1,,,,,,,,,0,,77,85
214800,text,0,1,1,,,,,,,,,,,,
214876,note_on,76,0,1,,,,,,,,,0,,77,0
214880,note_on,4,0,1,,,,,,,,,0,,76,85
214916,note_on,36,0,1,,,,,,,,,0,,76,0
214920,note_on,4,0,1,,,,,,,,,0,,77,85
214956,note_on,36,0,1,,,,,,,,,0,,77,0
214960,note_on,4,0,1,,,,,,,,,0,,76,85
214996,note_on,36,0,1,,,,,,,,,0,,76,0
215000,note_on,4,0,1,,,,,,,,,0,,77,85
215036,note_on,36,0,1,,,,,,,,,0,,77,0
215040,note_on,4,0,1,,,,,,,,,0,,76,85
215156,note_on,116,0,1,,,,,,,,,0,,76,0
215160,note_on,4,0,1,,,,,,,,,0,,74,85
215220,note_on,0,0,1,,,,,,,,,0,,76,85
215220,note_on,60,0,1,,,,,,,,,0,,74,0
215248,note_on,28,0,1,,,,,,,,,0,,73,0
215280,note_on,0,0,1,,,,,,,,,0,,77,85
215280,note_on,0,0,1,,,,,,,,,0,,74,85
215280,note_on,0,0,1,,,,,,,,,0,,69,85
215280,note_on,32,0,1,,,,,,,,,0,,76,0
215280,note_on,0,0,2,,,,,,,,,1,,61,0
215280,note_on,480,0,2,,,,,,,,,1,,64,0
215280,note_on,0,0,2,,,,,,,,,1,,62,85
215280,note_on,0,0,2,,,,,,,,,1,,57,0
215520,note_on,0,0,1,,,,,,,,,0,,65,85
215520,note_on,240,0,2,,,,,,,,,1,,62,0
215520,note_on,0,0,2,,,,,,,,,1,,50,85
215520,note_on,0,0,2,,,,,,,,,1,,53,85
215520,note_on,0,0,2,,,,,,,,,1,,57,85
215520,note_on,0,0,2,,,,,,,,,1,,62,85
215520,note_on,240,0,1,,,,,,,,,0,,77,0
215520,note_on,0,0,1,,,,,,,,,0,,74,0
215520,note_on,0,0,1,,,,,,,,,0,,69,0
215520,note_on,0,0,1,,,,,,,,,0,,74,85
215760,note_on,240,0,2,,,,,,,,,1,,62,0
215760,note_on,240,0,1,,,,,,,,,0,,74,0
215760,note_on,0,0,2,,,,,,,,,1,,50,0
215760,note_on,0,0,2,,,,,,,,,1,,57,0
215760,note_on,0,0,2,,,,,,,,,1,,53,0
215760,note_on,0,0,1,,,,,,,,,0,,65,0
216000,note_on,240,0,1,,,,,,,,,0,,82,85
216000,note_on,0,0,1,,,,,,,,,0,,74,85
216000,note_on,240,0,2,,,,,,,,,1,,55,85
216016,note_on,16,0,2,,,,,,,,,1,,62,85
216240,note_on,224,0,2,,,,,,,,,1,,62,0
216240,note_on,240,0,1,,,,,,,,,0,,74,0
216240,note_on,0,0,1,,,,,,,,,0,,82,0
216240,note_on,0,0,1,,,,,,,,,0,,81,85
216240,note_on,0,0,2,,,,,,,,,1,,58,85
216240,note_on,0,0,2,,,,,,,,,1,,55,0
216360,note_on,0,0,1,,,,,,,,,0,,79,85
216360,note_on,120,0,1,,,,,,,,,0,,81,0
216480,note_on,0,0,2,,,,,,,,,1,,55,85
216480,note_on,120,0,1,,,,,,,,,0,,79,0
216480,note_on,240,0,2,,,,,,,,,1,,58,0
216480,note_on,0,0,1,,,,,,,,,0,,77,85
216600,note_on,0,0,1,,,,,,,,,0,,76,85
216600,note_on,120,0,1,,,,,,,,,0,,77,0
216720,note_on,0,0,2,,,,,,,,,1,,57,85
216720,note_on,240,0,2,,,,,,,,,1,,55,0
216720,note_on,0,0,1,,,,,,,,,0,,74,85
216720,note_on,120,0,1,,,,,,,,,0,,76,0
216840,note_on,0,0,1,,,,,,,,,0,,73,85
216840,note_on,120,0,1,,,,,,,,,0,,74,0
216960,note_on,0,0,2,,,,,,,,,1,,53,85
216960,note_on,240,0,2,,,,,,,,,1,,57,0
216960,note_on,0,0,1,,,,,,,,,0,,71,85
216960,note_on,120,0,1,,,,,,,,,0,,73,0
217080,note_on,120,0,1,,,,,,,,,0,,71,0
217080,note_on,0,0,1,,,,,,,,,0,,69,85
217149,set_tempo,4021,1,0,,,,,,612307,,,,,,
217158,set_tempo,9,1,0,,,,,,616713,,,,,,
217168,set_tempo,10,1,0,,,,,,621182,,,,,,
217173,set_tempo,5,1,0,,,,,,625717,,,,,,
217182,set_tempo,9,1,0,,,,,,630318,,,,,,
217192,set_tempo,10,1,0,,,,,,634988,,,,,,
217197,set_tempo,5,1,0,,,,,,639727,,,,,,
217200,note_on,0,0,1,,,,,,,,,0,,67,85
217200,note_on,120,0,1,,,,,,,,,0,,69,0
217200,note_on,0,0,2,,,,,,,,,1,,58,85
217200,note_on,240,0,2,,,,,,,,,1,,53,0
217206,set_tempo,9,1,0,,,,,,644538,,,,,,
217216,set_tempo,10,1,0,,,,,,649421,,,,,,
217216,note_on,16,0,1,,,,,,,,,0,,74,85
217216,note_on,16,0,2,,,,,,,,,1,,62,85
217221,set_tempo,5,1,0,,,,,,654379,,,,,,
217230,set_tempo,9,1,0,,,,,,659413,,,,,,
217232,note_on,16,0,1,,,,,,,,,0,,79,85
217235,set_tempo,5,1,0,,,,,,664525,,,,,,
217245,set_tempo,10,1,0,,,,,,669718,,,,,,
217254,set_tempo,9,1,0,,,,,,674992,,,,,,
217259,set_tempo,5,1,0,,,,,,680349,,,,,,
217269,set_tempo,10,1,0,,,,,,685793,,,,,,
217278,set_tempo,9,1,0,,,,,,691324,,,,,,
217283,set_tempo,5,1,0,,,,,,696945,,,,,,
217293,set_tempo,10,1,0,,,,,,702658,,,,,,
217297,set_tempo,4,1,0,,,,,,708466,,,,,,
217307,set_tempo,10,1,0,,,,,,714371,,,,,,
217317,set_tempo,10,1,0,,,,,,720375,,,,,,
217321,set_tempo,4,1,0,,,,,,726480,,,,,,
217331,set_tempo,10,1,0,,,,,,732690,,,,,,
217341,set_tempo,10,1,0,,,,,,739007,,,,,,
217345,set_tempo,4,1,0,,,,,,745434,,,,,,
217355,set_tempo,10,1,0,,,,,,751974,,,,,,
217360,set_tempo,5,1,0,,,,,,758629,,,,,,
217369,set_tempo,9,1,0,,,,,,765404,,,,,,
217379,set_tempo,10,1,0,,,,,,772300,,,,,,
217384,set_tempo,5,1,0,,,,,,779322,,,,,,
217393,set_tempo,9,1,0,,,,,,786473,,,,,,
217403,set_tempo,10,1,0,,,,,,793756,,,,,,
217408,set_tempo,5,1,0,,,,,,801175,,,,,,
217408,note_on,176,0,1,,,,,,,,,0,,79,0
217408,note_on,0,0,1,,,,,,,,,0,,74,0
217417,set_tempo,9,1,0,,,,,,808734,,,,,,
217422,set_tempo,5,1,0,,,,,,816438,,,,,,
217432,set_tempo,10,1,0,,,,,,824289,,,,,,
217440,note_on,0,0,2,,,,,,,,,1,,55,85
217440,note_on,0,0,2,,,,,,,,,1,,58,0
217440,note_on,224,0,2,,,,,,,,,1,,62,0
217440,note_on,32,0,1,,,,,,,,,0,,67,0
217440,note_on,0,0,1,,,,,,,,,0,,77,85
217441,set_tempo,9,1,0,,,,,,832293,,,,,,
217446,set_tempo,5,1,0,,,,,,840454,,,,,,
217456,set_tempo,10,1,0,,,,,,848776,,,,,,
217456,note_on,16,0,1,,,,,,,,,0,,70,85
217463,set_tempo,7,1,0,,,,,,865926,,,,,,
217472,note_on,16,0,1,,,,,,,,,0,,74,85
217560,note_on,88,0,1,,,,,,,,,0,,77,0
217560,note_on,0,0,1,,,,,,,,,0,,76,85
217664,note_on,0,0,1,,,,,,,,,0,,70,0
217664,note_on,104,0,1,,,,,,,,,0,,74,0
217680,note_on,16,0,1,,,,,,,,,0,,76,0
217680,note_on,240,0,2,,,,,,,,,1,,55,0
217680,note_on,0,0,2,,,,,,,,,1,,57,85
217696,note_on,16,0,1,,,,,,,,,0,,69,85
217712,note_on,16,0,1,,,,,,,,,0,,74,85
217728,note_on,16,0,1,,,,,,,,,0,,77,85
217888,note_on,160,0,1,,,,,,,,,0,,69,0
217900,set_tempo,437,1,0,,,,,,865926,,,,,,
217904,note_on,16,0,1,,,,,,,,,0,,74,0
217905,set_tempo,5,1,0,,,,,,892990,,,,,,
217910,set_tempo,5,1,0,,,,,,931822,,,,,,
217914,set_tempo,4,1,0,,,,,,974184,,,,,,
217919,set_tempo,5,1,0,,,,,,1008573,,,,,,
217920,note_on,0,0,1,,,,,,,,,0,,67,85
217920,note_on,0,0,1,,,,,,,,,0,,76,85
217920,note_on,16,0,1,,,,,,,,,0,,77,0
217920,note_on,0,0,2,,,,,,,,,1,,45,85
217920,note_on,240,0,2,,,,,,,,,1,,57,0
217924,set_tempo,5,1,0,,,,,,1058388,,,,,,
217929,set_tempo,5,1,0,,,,,,1113379,,,,,,
217934,set_tempo,5,1,0,,,,,,1158525,,,,,,
217936,note_on,16,0,1,,,,,,,,,0,,73,85
217938,set_tempo,4,1,0,,,,,,1224740,,,,,,
217943,set_tempo,5,1,0,,,,,,1298982,,,,,,
217948,set_tempo,5,1,0,,,,,,1382807,,,,,,
217948,end_of_track,0,1,0,,,,,,,,,,,,
218040,note_on,104,0,1,,,,,,,,,0,,76,0
218040,note_on,0,0,1,,,,,,,,,0,,74,85
218096,note_on,56,0,1,,,,,,,,,0,,67,0
218128,note_on,32,0,1,,,,,,,,,0,,74,0
218128,note_on,0,0,1,,,,,,,,,0,,73,0
218160,note_on,32,0,1,,,,,,,,,0,,65,85
218160,note_on,0,0,2,,,,,,,,,1,,38,85
218160,note_on,240,0,2,,,,,,,,,1,,45,0
218176,note_on,16,0,1,,,,,,,,,0,,69,85
218176,note_on,16,0,2,,,,,,,,,1,,50,85
218192,note_on,16,0,1,,,,,,,,,0,,74,85
218864,note_on,688,0,2,,,,,,,,,1,,50,0
218864,note_on,672,0,1,,,,,,,,,0,,74,0
218864,note_on,0,0,1,,,,,,,,,0,,69,0
218880,note_on,16,0,2,,,,,,,,,1,,38,0
218880,end_of_track,0,1,2,,,,,,,,,,,,
218880,end_of_track,0,1,1,,,,,,,,,,,,
218880,note_on,16,0,1,,,,,,,,,0,,65,0
