tick,type,time,meta,track,numerator,denominator,clocks_per_click,notated_32nd_notes_per_beat,key,tempo,program,channel,control,value,note,velocity
0,track_name,0,1,0,,,,,,,,,,,,
0,note_on,0,0,2,,,,,,,,1,,,58,80
0,note_on,0,0,2,,,,,,,,1,,,62,80
0,note_on,0,0,2,,,,,,,,1,,,65,80
0,control_change,0,0,2,,,,,,,,1,10,70,,
0,control_change,0,0,2,,,,,,,,1,7,127,,
0,program_change,0,0,2,,,,,,,6,1,,,,
0,note_on,0,0,1,,,,,,,,0,,,70,80
0,control_change,0,0,1,,,,,,,,0,10,57,,
0,control_change,0,0,1,,,,,,,,0,7,127,,
0,program_change,0,0,1,,,,,,,6,0,,,,
0,end_of_track,0,1,3,,,,,,,,,,,,
0,marker,0,1,0,,,,,,,,,,,,
0,set_tempo,0,1,0,,,,,,857143,,,,,,
0,key_signature,0,1,0,,,,,C,,,,,,,
0,time_signature,0,1,0,4,4,24,8,,,,,,,,
192,note_on,0,0,2,,,,,,,,1,,,62,0
192,note_on,192,0,2,,,,,,,,1,,,58,0
192,note_on,0,0,2,,,,,,,,1,,,65,0
192,note_on,192,0,1,,,,,,,,0,,,70,0
240,note_on,48,0,2,,,,,,,,1,,,65,80
240,note_on,0,0,2,,,,,,,,1,,,57,80
240,note_on,0,0,2,,,,,,,,1,,,60,80
240,note_on,48,0,1,,,,,,,,0,,,72,80
264,note_on,24,0,1,,,,,,,,0,,,72,0
270,note_on,6,0,1,,,,,,,,0,,,74,80
294,note_on,24,0,1,,,,,,,,0,,,74,0
300,note_on,6,0,1,,,,,,,,0,,,72,80
324,note_on,24,0,1,,,,,,,,0,,,72,0
330,note_on,6,0,1,,,,,,,,0,,,74,80
354,note_on,24,0,1,,,,,,,,0,,,74,0
360,note_on,6,0,1,,,,,,,,0,,,72,80
384,note_on,24,0,1,,,,,,,,0,,,72,0
390,note_on,6,0,1,,,,,,,,0,,,74,80
414,note_on,24,0,1,,,,,,,,0,,,74,0
420,note_on,6,0,1,,,,,,,,0,,,70,80
432,note_on,0,0,2,,,,,,,,1,,,65,0
432,note_on,0,0,2,,,,,,,,1,,,57,0
432,note_on,192,0,2,,,,,,,,1,,,60,0
444,note_on,24,0,1,,,,,,,,0,,,70,0
450,note_on,6,0,1,,,,,,,,0,,,72,80
474,note_on,24,0,1,,,,,,,,0,,,72,0
480,note_on,6,0,1,,,,,,,,0,,,74,80
480,note_on,48,0,2,,,,,,,,1,,,65,80
480,note_on,0,0,2,,,,,,,,1,,,62,80
480,note_on,0,0,2,,,,,,,,1,,,58,80
528,note_on,48,0,1,,,,,,,,0,,,74,0
540,note_on,12,0,1,,,,,,,,0,,,72,80
588,note_on,48,0,1,,,,,,,,0,,,72,0
600,note_on,12,0,1,,,,,,,,0,,,70,80
648,note_on,48,0,1,,,,,,,,0,,,70,0
660,note_on,12,0,1,,,,,,,,0,,,72,80
672,note_on,192,0,2,,,,,,,,1,,,58,0
672,note_on,0,0,2,,,,,,,,1,,,62,0
672,note_on,0,0,2,,,,,,,,1,,,65,0
708,note_on,48,0,1,,,,,,,,0,,,72,0
720,note_on,12,0,1,,,,,,,,0,,,74,80
816,note_on,96,0,1,,,,,,,,0,,,74,0
840,note_on,24,0,1,,,,,,,,0,,,75,80
840,note_on,0,0,2,,,,,,,,1,,,58,80
840,note_on,168,0,2,,,,,,,,1,,,55,80
936,note_on,96,0,1,,,,,,,,0,,,75,0
936,note_on,0,0,2,,,,,,,,1,,,55,0
936,note_on,96,0,2,,,,,,,,1,,,58,0
960,note_on,24,0,2,,,,,,,,1,,,53,80
960,note_on,24,0,1,,,,,,,,0,,,74,80
960,note_on,0,0,2,,,,,,,,1,,,58,80
1152,note_on,192,0,2,,,,,,,,1,,,58,0
1152,note_on,0,0,2,,,,,,,,1,,,53,0
1152,note_on,192,0,1,,,,,,,,0,,,74,0
1200,note_on,0,0,2,,,,,,,,1,,,57,80
1200,note_on,48,0,2,,,,,,,,1,,,53,80
1200,note_on,48,0,1,,,,,,,,0,,,72,80
1224,note_on,24,0,1,,,,,,,,0,,,72,0
1230,note_on,6,0,1,,,,,,,,0,,,74,80
1254,note_on,24,0,1,,,,,,,,0,,,74,0
1260,note_on,6,0,1,,,,,,,,0,,,72,80
1284,note_on,24,0,1,,,,,,,,0,,,72,0
1290,note_on,6,0,1,,,,,,,,0,,,74,80
1314,note_on,24,0,1,,,,,,,,0,,,74,0
1320,note_on,6,0,1,,,,,,,,0,,,72,80
1344,note_on,24,0,1,,,,,,,,0,,,72,0
1350,note_on,6,0,1,,,,,,,,0,,,74,80
1374,note_on,24,0,1,,,,,,,,0,,,74,0
1380,note_on,6,0,1,,,,,,,,0,,,70,80
1392,note_on,192,0,2,,,,,,,,1,,,57,0
1392,note_on,0,0,2,,,,,,,,1,,,53,0
1404,note_on,24,0,1,,,,,,,,0,,,70,0
1410,note_on,6,0,1,,,,,,,,0,,,72,80
1434,note_on,24,0,1,,,,,,,,0,,,72,0
1440,note_on,0,0,2,,,,,,,,1,,,58,80
1440,note_on,6,0,1,,,,,,,,0,,,74,80
1440,note_on,48,0,2,,,,,,,,1,,,46,80
1497,note_on,57,0,1,,,,,,,,0,,,74,0
1500,note_on,3,0,1,,,,,,,,0,,,72,80
1557,note_on,57,0,1,,,,,,,,0,,,72,0
1560,note_on,3,0,1,,,,,,,,0,,,70,80
1617,note_on,57,0,1,,,,,,,,0,,,70,0
1620,note_on,3,0,1,,,,,,,,0,,,72,80
1632,note_on,192,0,2,,,,,,,,1,,,58,0
1632,note_on,0,0,2,,,,,,,,1,,,46,0
1668,note_on,48,0,1,,,,,,,,0,,,72,0
1680,note_on,12,0,1,,,,,,,,0,,,74,80
1776,note_on,96,0,1,,,,,,,,0,,,74,0
1800,note_on,168,0,2,,,,,,,,1,,,53,80
1800,note_on,0,0,2,,,,,,,,1,,,57,80
1800,note_on,24,0,1,,,,,,,,0,,,75,80
1896,note_on,0,0,2,,,,,,,,1,,,53,0
1896,note_on,96,0,1,,,,,,,,0,,,75,0
1896,note_on,96,0,2,,,,,,,,1,,,57,0
1920,note_on,24,0,2,,,,,,,,1,,,46,80
1920,note_on,0,0,2,,,,,,,,1,,,58,80
1920,note_on,24,0,1,,,,,,,,0,,,74,80
2112,note_on,192,0,2,,,,,,,,1,,,58,0
2112,note_on,192,0,1,,,,,,,,0,,,74,0
2112,note_on,0,0,2,,,,,,,,1,,,46,0
2160,note_on,48,0,1,,,,,,,,0,,,75,80
2160,note_on,48,0,2,,,,,,,,1,,,69,80
2160,note_on,0,0,2,,,,,,,,1,,,63,80
2160,note_on,0,0,2,,,,,,,,1,,,60,80
2184,note_on,24,0,1,,,,,,,,0,,,75,0
2190,note_on,6,0,1,,,,,,,,0,,,77,80
2214,note_on,24,0,1,,,,,,,,0,,,77,0
2220,note_on,6,0,1,,,,,,,,0,,,75,80
2244,note_on,24,0,1,,,,,,,,0,,,75,0
2250,note_on,6,0,1,,,,,,,,0,,,77,80
2274,note_on,24,0,1,,,,,,,,0,,,77,0
2280,note_on,6,0,1,,,,,,,,0,,,75,80
2304,note_on,24,0,1,,,,,,,,0,,,75,0
2310,note_on,6,0,1,,,,,,,,0,,,77,80
2334,note_on,24,0,1,,,,,,,,0,,,77,0
2340,note_on,6,0,1,,,,,,,,0,,,74,80
2352,note_on,192,0,2,,,,,,,,1,,,63,0
2352,note_on,0,0,2,,,,,,,,1,,,60,0
2352,note_on,0,0,2,,,,,,,,1,,,69,0
2364,note_on,24,0,1,,,,,,,,0,,,74,0
2370,note_on,6,0,1,,,,,,,,0,,,75,80
2394,note_on,24,0,1,,,,,,,,0,,,75,0
2400,note_on,0,0,2,,,,,,,,1,,,70,80
2400,note_on,0,0,2,,,,,,,,1,,,62,80
2400,note_on,48,0,2,,,,,,,,1,,,65,80
2400,note_on,6,0,1,,,,,,,,0,,,77,80
2448,note_on,48,0,1,,,,,,,,0,,,77,0
2460,note_on,12,0,1,,,,,,,,0,,,75,80
2508,note_on,48,0,1,,,,,,,,0,,,75,0
2520,note_on,12,0,1,,,,,,,,0,,,74,80
2568,note_on,48,0,1,,,,,,,,0,,,74,0
2580,note_on,12,0,1,,,,,,,,0,,,75,80
2592,note_on,0,0,2,,,,,,,,1,,,65,0
2592,note_on,192,0,2,,,,,,,,1,,,70,0
2592,note_on,0,0,2,,,,,,,,1,,,62,0
2628,note_on,48,0,1,,,,,,,,0,,,75,0
2640,note_on,12,0,1,,,,,,,,0,,,77,80
2736,note_on,96,0,1,,,,,,,,0,,,77,0
2760,note_on,0,0,2,,,,,,,,1,,,69,80
2760,note_on,168,0,2,,,,,,,,1,,,63,80
2760,note_on,24,0,1,,,,,,,,0,,,79,80
2856,note_on,0,0,2,,,,,,,,1,,,63,0
2856,note_on,96,0,2,,,,,,,,1,,,69,0
2856,note_on,96,0,1,,,,,,,,0,,,79,0
2880,note_on,24,0,1,,,,,,,,0,,,77,80
2880,note_on,0,0,2,,,,,,,,1,,,70,80
2880,note_on,24,0,2,,,,,,,,1,,,62,80
3072,note_on,192,0,1,,,,,,,,0,,,77,0
3072,note_on,0,0,2,,,,,,,,1,,,62,0
3072,note_on,192,0,2,,,,,,,,1,,,70,0
3120,note_on,48,0,1,,,,,,,,0,,,74,80
3120,note_on,48,0,2,,,,,,,,1,,,58,80
3120,note_on,0,0,2,,,,,,,,1,,,65,80
3120,note_on,0,0,2,,,,,,,,1,,,62,80
3144,note_on,24,0,1,,,,,,,,0,,,74,0
3150,note_on,6,0,1,,,,,,,,0,,,75,80
3174,note_on,24,0,1,,,,,,,,0,,,75,0
3180,note_on,6,0,1,,,,,,,,0,,,74,80
3204,note_on,24,0,1,,,,,,,,0,,,74,0
3210,note_on,6,0,1,,,,,,,,0,,,75,80
3234,note_on,24,0,1,,,,,,,,0,,,75,0
3240,note_on,6,0,1,,,,,,,,0,,,74,80
3264,note_on,24,0,1,,,,,,,,0,,,74,0
3270,note_on,6,0,1,,,,,,,,0,,,75,80
3294,note_on,24,0,1,,,,,,,,0,,,75,0
3300,note_on,6,0,1,,,,,,,,0,,,72,80
3312,note_on,0,0,2,,,,,,,,1,,,62,0
3312,note_on,192,0,2,,,,,,,,1,,,65,0
3312,note_on,0,0,2,,,,,,,,1,,,58,0
3312,note_on,12,0,1,,,,,,,,0,,,72,0
3315,note_on,3,0,1,,,,,,,,0,,,74,80
3327,note_on,12,0,1,,,,,,,,0,,,74,0
3330,note_on,3,0,1,,,,,,,,0,,,75,80
3354,note_on,24,0,1,,,,,,,,0,,,75,0
3360,note_on,48,0,2,,,,,,,,1,,,53,80
3360,note_on,6,0,1,,,,,,,,0,,,69,80
3360,note_on,0,0,1,,,,,,,,0,,,72,80
3360,note_on,0,0,2,,,,,,,,1,,,60,80
3360,note_on,0,0,2,,,,,,,,1,,,57,80
3552,note_on,192,0,1,,,,,,,,0,,,72,0
3552,note_on,192,0,2,,,,,,,,1,,,60,0
3552,note_on,0,0,1,,,,,,,,0,,,69,0
3552,note_on,0,0,2,,,,,,,,1,,,57,0
3552,note_on,0,0,2,,,,,,,,1,,,53,0
3630,note_on,78,0,1,,,,,,,,0,,,65,80
3654,note_on,24,0,1,,,,,,,,0,,,65,0
3660,note_on,6,0,1,,,,,,,,0,,,67,80
3684,note_on,24,0,1,,,,,,,,0,,,67,0
3690,note_on,6,0,1,,,,,,,,0,,,69,80
3714,note_on,24,0,1,,,,,,,,0,,,69,0
3720,note_on,6,0,1,,,,,,,,0,,,69,80
3744,note_on,24,0,1,,,,,,,,0,,,69,0
3750,note_on,6,0,1,,,,,,,,0,,,67,80
3774,note_on,24,0,1,,,,,,,,0,,,67,0
3780,note_on,6,0,1,,,,,,,,0,,,69,80
3804,note_on,24,0,1,,,,,,,,0,,,69,0
3810,note_on,6,0,1,,,,,,,,0,,,70,80
3834,note_on,24,0,1,,,,,,,,0,,,70,0
3840,note_on,6,0,1,,,,,,,,0,,,72,80
3840,note_on,0,0,2,,,,,,,,1,,,57,80
3840,note_on,0,0,2,,,,,,,,1,,,60,80
3840,note_on,288,0,2,,,,,,,,1,,,53,80
4032,note_on,192,0,1,,,,,,,,0,,,72,0
4032,note_on,192,0,2,,,,,,,,1,,,60,0
4032,note_on,0,0,2,,,,,,,,1,,,57,0
4032,note_on,0,0,2,,,,,,,,1,,,53,0
4080,note_on,48,0,2,,,,,,,,1,,,58,80
4080,note_on,48,0,1,,,,,,,,0,,,74,80
4080,note_on,0,0,2,,,,,,,,1,,,46,80
4176,note_on,96,0,1,,,,,,,,0,,,74,0
4200,note_on,24,0,1,,,,,,,,0,,,72,80
4248,note_on,48,0,1,,,,,,,,0,,,72,0
4260,note_on,12,0,1,,,,,,,,0,,,70,80
4272,note_on,0,0,2,,,,,,,,1,,,58,0
4272,note_on,192,0,2,,,,,,,,1,,,46,0
4308,note_on,48,0,1,,,,,,,,0,,,70,0
4320,note_on,0,0,2,,,,,,,,1,,,60,80
4320,note_on,12,0,1,,,,,,,,0,,,69,80
4320,note_on,48,0,2,,,,,,,,1,,,53,80
4368,note_on,48,0,1,,,,,,,,0,,,69,0
4380,note_on,12,0,1,,,,,,,,0,,,67,80
4428,note_on,48,0,1,,,,,,,,0,,,67,0
4440,note_on,12,0,1,,,,,,,,0,,,65,80
4488,note_on,48,0,1,,,,,,,,0,,,65,0
4500,note_on,12,0,1,,,,,,,,0,,,67,80
4512,note_on,192,0,2,,,,,,,,1,,,60,0
4512,note_on,0,0,2,,,,,,,,1,,,53,0
4548,note_on,48,0,1,,,,,,,,0,,,67,0
4560,note_on,12,0,1,,,,,,,,0,,,69,80
4656,note_on,96,0,1,,,,,,,,0,,,69,0
4680,note_on,0,0,2,,,,,,,,1,,,53,80
4680,note_on,24,0,1,,,,,,,,0,,,70,80
4680,note_on,168,0,2,,,,,,,,1,,,50,80
4776,note_on,96,0,2,,,,,,,,1,,,53,0
4776,note_on,96,0,1,,,,,,,,0,,,70,0
4776,note_on,0,0,2,,,,,,,,1,,,50,0
4800,note_on,24,0,1,,,,,,,,0,,,72,80
4800,note_on,24,0,2,,,,,,,,1,,,51,80
4800,note_on,0,0,2,,,,,,,,1,,,55,80
4896,note_on,96,0,1,,,,,,,,0,,,72,0
4920,note_on,24,0,1,,,,,,,,0,,,74,80
4992,note_on,192,0,2,,,,,,,,1,,,55,0
4992,note_on,0,0,2,,,,,,,,1,,,51,0
5016,note_on,96,0,1,,,,,,,,0,,,74,0
5040,note_on,48,0,2,,,,,,,,1,,,53,80
5040,note_on,0,0,2,,,,,,,,1,,,57,80
5040,note_on,24,0,1,,,,,,,,0,,,74,80
5064,note_on,24,0,1,,,,,,,,0,,,74,0
5070,note_on,6,0,1,,,,,,,,0,,,75,80
5094,note_on,24,0,1,,,,,,,,0,,,75,0
5100,note_on,6,0,1,,,,,,,,0,,,74,80
5124,note_on,24,0,1,,,,,,,,0,,,74,0
5130,note_on,6,0,1,,,,,,,,0,,,75,80
5154,note_on,24,0,1,,,,,,,,0,,,75,0
5160,note_on,6,0,1,,,,,,,,0,,,74,80
5184,note_on,24,0,1,,,,,,,,0,,,74,0
5190,note_on,6,0,1,,,,,,,,0,,,75,80
5214,note_on,24,0,1,,,,,,,,0,,,75,0
5220,note_on,6,0,1,,,,,,,,0,,,72,80
5232,note_on,0,0,2,,,,,,,,1,,,53,0
5232,note_on,192,0,2,,,,,,,,1,,,57,0
5244,note_on,24,0,1,,,,,,,,0,,,72,0
5250,note_on,6,0,1,,,,,,,,0,,,74,80
5274,note_on,24,0,1,,,,,,,,0,,,74,0
5280,note_on,0,0,2,,,,,,,,1,,,58,80
5280,note_on,48,0,2,,,,,,,,1,,,55,80
5280,note_on,6,0,1,,,,,,,,0,,,75,80
5328,note_on,48,0,1,,,,,,,,0,,,75,0
5340,note_on,12,0,1,,,,,,,,0,,,74,80
5388,note_on,48,0,1,,,,,,,,0,,,74,0
5400,note_on,12,0,1,,,,,,,,0,,,72,80
5448,note_on,48,0,1,,,,,,,,0,,,72,0
5460,note_on,12,0,1,,,,,,,,0,,,74,80
5472,note_on,0,0,2,,,,,,,,1,,,55,0
5472,note_on,192,0,2,,,,,,,,1,,,58,0
5508,note_on,48,0,1,,,,,,,,0,,,74,0
5520,note_on,12,0,1,,,,,,,,0,,,75,80
5616,note_on,96,0,1,,,,,,,,0,,,75,0
5640,note_on,0,0,2,,,,,,,,1,,,57,80
5640,note_on,168,0,2,,,,,,,,1,,,60,80
5640,note_on,24,0,1,,,,,,,,0,,,77,80
5736,note_on,96,0,1,,,,,,,,0,,,77,0
5736,note_on,96,0,2,,,,,,,,1,,,57,0
5736,note_on,0,0,2,,,,,,,,1,,,60,0
5760,note_on,0,0,2,,,,,,,,1,,,58,80
5760,note_on,24,0,2,,,,,,,,1,,,65,80
5760,note_on,24,0,1,,,,,,,,0,,,74,80
5952,note_on,0,0,2,,,,,,,,1,,,65,0
5952,note_on,192,0,2,,,,,,,,1,,,58,0
5952,note_on,192,0,1,,,,,,,,0,,,74,0
6000,note_on,48,0,1,,,,,,,,0,,,72,80
6000,note_on,0,0,2,,,,,,,,1,,,57,80
6000,note_on,48,0,2,,,,,,,,1,,,65,80
6024,note_on,24,0,1,,,,,,,,0,,,72,0
6030,note_on,6,0,1,,,,,,,,0,,,74,80
6054,note_on,24,0,1,,,,,,,,0,,,74,0
6060,note_on,6,0,1,,,,,,,,0,,,72,80
6084,note_on,24,0,1,,,,,,,,0,,,72,0
6090,note_on,6,0,1,,,,,,,,0,,,74,80
6114,note_on,24,0,1,,,,,,,,0,,,74,0
6120,note_on,6,0,1,,,,,,,,0,,,72,80
6144,note_on,24,0,1,,,,,,,,0,,,72,0
6150,note_on,6,0,1,,,,,,,,0,,,74,80
6174,note_on,24,0,1,,,,,,,,0,,,74,0
6180,note_on,6,0,1,,,,,,,,0,,,70,80
6192,note_on,0,0,2,,,,,,,,1,,,65,0
6192,note_on,192,0,2,,,,,,,,1,,,57,0
6204,note_on,24,0,1,,,,,,,,0,,,70,0
6210,note_on,6,0,1,,,,,,,,0,,,72,80
6234,note_on,24,0,1,,,,,,,,0,,,72,0
6240,note_on,0,0,2,,,,,,,,1,,,58,80
6240,note_on,6,0,1,,,,,,,,0,,,74,80
6240,note_on,48,0,2,,,,,,,,1,,,65,80
6288,note_on,48,0,1,,,,,,,,0,,,74,0
6300,note_on,12,0,1,,,,,,,,0,,,72,80
6348,note_on,48,0,1,,,,,,,,0,,,72,0
6360,note_on,12,0,1,,,,,,,,0,,,70,80
6408,note_on,48,0,1,,,,,,,,0,,,70,0
6420,note_on,12,0,1,,,,,,,,0,,,72,80
6432,note_on,192,0,2,,,,,,,,1,,,58,0
6432,note_on,0,0,2,,,,,,,,1,,,65,0
6468,note_on,48,0,1,,,,,,,,0,,,72,0
6480,note_on,12,0,1,,,,,,,,0,,,74,80
6576,note_on,96,0,1,,,,,,,,0,,,74,0
6600,note_on,0,0,2,,,,,,,,1,,,58,80
6600,note_on,168,0,2,,,,,,,,1,,,55,80
6600,note_on,24,0,1,,,,,,,,0,,,75,80
6696,note_on,0,0,2,,,,,,,,1,,,55,0
6696,note_on,96,0,2,,,,,,,,1,,,58,0
6696,note_on,96,0,1,,,,,,,,0,,,75,0
6720,note_on,24,0,1,,,,,,,,0,,,72,80
6720,note_on,0,0,2,,,,,,,,1,,,63,80
6720,note_on,24,0,2,,,,,,,,1,,,51,80
6912,note_on,192,0,1,,,,,,,,0,,,72,0
6912,note_on,0,0,2,,,,,,,,1,,,51,0
6912,note_on,192,0,2,,,,,,,,1,,,63,0
6960,note_on,48,0,1,,,,,,,,0,,,69,80
6960,note_on,48,0,2,,,,,,,,1,,,53,80
6960,note_on,0,0,2,,,,,,,,1,,,60,80
6984,note_on,24,0,1,,,,,,,,0,,,69,0
6990,note_on,6,0,1,,,,,,,,0,,,70,80
7014,note_on,24,0,1,,,,,,,,0,,,70,0
7020,note_on,6,0,1,,,,,,,,0,,,69,80
7044,note_on,24,0,1,,,,,,,,0,,,69,0
7050,note_on,6,0,1,,,,,,,,0,,,70,80
7074,note_on,24,0,1,,,,,,,,0,,,70,0
7080,note_on,6,0,1,,,,,,,,0,,,69,80
7104,note_on,24,0,1,,,,,,,,0,,,69,0
7110,note_on,6,0,1,,,,,,,,0,,,70,80
7134,note_on,24,0,1,,,,,,,,0,,,70,0
7140,note_on,6,0,1,,,,,,,,0,,,67,80
7152,note_on,192,0,2,,,,,,,,1,,,60,0
7152,note_on,0,0,2,,,,,,,,1,,,53,0
7164,note_on,24,0,1,,,,,,,,0,,,67,0
7170,note_on,6,0,1,,,,,,,,0,,,69,80
7194,note_on,24,0,1,,,,,,,,0,,,69,0
7200,note_on,0,0,2,,,,,,,,1,,,58,80
7200,note_on,48,0,2,,,,,,,,1,,,46,80
7200,note_on,6,0,1,,,,,,,,0,,,70,80
7392,note_on,192,0,1,,,,,,,,0,,,70,0
7412,marker,7412,1,0,,,,,,,,,,,,
7500,note_on,108,0,1,,,,,,,,0,,,72,80
7524,note_on,24,0,1,,,,,,,,0,,,72,0
7530,note_on,6,0,1,,,,,,,,0,,,70,80
7554,note_on,24,0,1,,,,,,,,0,,,70,0
7560,note_on,6,0,1,,,,,,,,0,,,69,80
7584,note_on,384,0,2,,,,,,,,1,,,58,0
7584,note_on,24,0,1,,,,,,,,0,,,69,0
7584,note_on,0,0,2,,,,,,,,1,,,46,0
7590,note_on,6,0,1,,,,,,,,0,,,70,80
7614,note_on,24,0,1,,,,,,,,0,,,70,0
7620,note_on,6,0,1,,,,,,,,0,,,70,80
7656,note_on,36,0,1,,,,,,,,0,,,70,0
7665,note_on,9,0,1,,,,,,,,0,,,69,80
7677,note_on,12,0,1,,,,,,,,0,,,69,0
7680,note_on,96,0,2,,,,,,,,1,,,58,80
7680,set_tempo,268,1,0,,,,,,500000,,,,,,
7680,note_on,3,0,1,,,,,,,,0,,,70,80
7728,note_on,48,0,1,,,,,,,,0,,,70,0
7740,note_on,12,0,1,,,,,,,,0,,,62,80
7776,note_on,96,0,2,,,,,,,,1,,,58,0
7788,note_on,48,0,1,,,,,,,,0,,,62,0
7800,note_on,24,0,2,,,,,,,,1,,,50,80
7800,note_on,12,0,1,,,,,,,,0,,,65,80
7848,note_on,48,0,1,,,,,,,,0,,,65,0
7860,note_on,12,0,1,,,,,,,,0,,,70,80
7896,note_on,96,0,2,,,,,,,,1,,,50,0
7908,note_on,48,0,1,,,,,,,,0,,,70,0
7920,note_on,12,0,1,,,,,,,,0,,,72,80
7920,note_on,24,0,2,,,,,,,,1,,,51,80
7968,note_on,48,0,1,,,,,,,,0,,,72,0
7980,note_on,12,0,1,,,,,,,,0,,,65,80
8016,note_on,96,0,2,,,,,,,,1,,,51,0
8028,note_on,48,0,1,,,,,,,,0,,,65,0
8040,note_on,24,0,2,,,,,,,,1,,,53,80
8040,note_on,12,0,1,,,,,,,,0,,,69,80
8088,note_on,48,0,1,,,,,,,,0,,,69,0
8100,note_on,12,0,1,,,,,,,,0,,,72,80
8136,note_on,96,0,2,,,,,,,,1,,,53,0
8148,note_on,48,0,1,,,,,,,,0,,,72,0
8160,note_on,24,0,2,,,,,,,,1,,,34,80
8160,note_on,0,0,2,,,,,,,,1,,,46,80
8160,note_on,12,0,1,,,,,,,,0,,,74,80
8208,note_on,48,0,1,,,,,,,,0,,,74,0
8220,note_on,12,0,1,,,,,,,,0,,,65,80
8268,note_on,48,0,1,,,,,,,,0,,,65,0
8280,note_on,12,0,1,,,,,,,,0,,,70,80
8328,note_on,48,0,1,,,,,,,,0,,,70,0
8340,note_on,12,0,1,,,,,,,,0,,,74,80
8352,note_on,192,0,2,,,,,,,,1,,,46,0
8352,note_on,0,0,2,,,,,,,,1,,,34,0
8388,note_on,48,0,1,,,,,,,,0,,,74,0
8400,note_on,12,0,1,,,,,,,,0,,,72,80
8448,note_on,48,0,1,,,,,,,,0,,,72,0
8460,note_on,12,0,1,,,,,,,,0,,,65,80
8508,note_on,48,0,1,,,,,,,,0,,,65,0
8520,note_on,12,0,1,,,,,,,,0,,,72,80
8520,note_on,168,0,2,,,,,,,,1,,,57,80
8568,note_on,48,0,1,,,,,,,,0,,,72,0
8580,note_on,12,0,1,,,,,,,,0,,,75,80
8616,note_on,96,0,2,,,,,,,,1,,,57,0
8628,note_on,48,0,1,,,,,,,,0,,,75,0
8640,note_on,24,0,2,,,,,,,,1,,,58,80
8640,note_on,12,0,1,,,,,,,,0,,,74,80
8688,note_on,48,0,1,,,,,,,,0,,,74,0
8700,note_on,12,0,1,,,,,,,,0,,,65,80
8736,note_on,96,0,2,,,,,,,,1,,,58,0
8748,note_on,48,0,1,,,,,,,,0,,,65,0
8760,note_on,12,0,1,,,,,,,,0,,,70,80
8760,note_on,24,0,2,,,,,,,,1,,,50,80
8808,note_on,48,0,1,,,,,,,,0,,,70,0
8820,note_on,12,0,1,,,,,,,,0,,,74,80
8856,note_on,96,0,2,,,,,,,,1,,,50,0
8868,note_on,48,0,1,,,,,,,,0,,,74,0
8880,note_on,24,0,2,,,,,,,,1,,,51,80
8880,note_on,12,0,1,,,,,,,,0,,,72,80
8928,note_on,48,0,1,,,,,,,,0,,,72,0
8940,note_on,12,0,1,,,,,,,,0,,,65,80
8976,note_on,96,0,2,,,,,,,,1,,,51,0
8988,note_on,48,0,1,,,,,,,,0,,,65,0
9000,note_on,24,0,2,,,,,,,,1,,,53,80
9000,note_on,12,0,1,,,,,,,,0,,,72,80
9048,note_on,48,0,1,,,,,,,,0,,,72,0
9060,note_on,12,0,1,,,,,,,,0,,,75,80
9096,note_on,96,0,2,,,,,,,,1,,,53,0
9108,note_on,48,0,1,,,,,,,,0,,,75,0
9120,note_on,12,0,1,,,,,,,,0,,,74,80
9120,note_on,24,0,2,,,,,,,,1,,,46,80
9120,note_on,0,0,2,,,,,,,,1,,,34,80
9168,note_on,48,0,1,,,,,,,,0,,,74,0
9180,note_on,12,0,1,,,,,,,,0,,,65,80
9228,note_on,48,0,1,,,,,,,,0,,,65,0
9240,note_on,12,0,1,,,,,,,,0,,,70,80
9288,note_on,48,0,1,,,,,,,,0,,,70,0
9300,note_on,12,0,1,,,,,,,,0,,,74,80
9312,note_on,0,0,2,,,,,,,,1,,,46,0
9312,note_on,192,0,2,,,,,,,,1,,,34,0
9348,note_on,48,0,1,,,,,,,,0,,,74,0
9360,note_on,12,0,1,,,,,,,,0,,,72,80
9408,note_on,48,0,1,,,,,,,,0,,,72,0
9420,note_on,12,0,1,,,,,,,,0,,,65,80
9468,note_on,48,0,1,,,,,,,,0,,,65,0
9480,note_on,168,0,2,,,,,,,,1,,,57,80
9480,note_on,12,0,1,,,,,,,,0,,,72,80
9528,note_on,48,0,1,,,,,,,,0,,,72,0
9540,note_on,12,0,1,,,,,,,,0,,,75,80
9576,note_on,96,0,2,,,,,,,,1,,,57,0
9588,note_on,48,0,1,,,,,,,,0,,,75,0
9600,note_on,12,0,1,,,,,,,,0,,,74,80
9600,note_on,24,0,2,,,,,,,,1,,,58,80
9648,note_on,48,0,1,,,,,,,,0,,,74,0
9660,note_on,12,0,1,,,,,,,,0,,,65,80
9696,note_on,96,0,2,,,,,,,,1,,,58,0
9708,note_on,48,0,1,,,,,,,,0,,,65,0
9720,note_on,24,0,2,,,,,,,,1,,,53,80
9720,note_on,12,0,1,,,,,,,,0,,,70,80
9768,note_on,48,0,1,,,,,,,,0,,,70,0
9780,note_on,12,0,1,,,,,,,,0,,,74,80
9816,note_on,96,0,2,,,,,,,,1,,,53,0
9828,note_on,48,0,1,,,,,,,,0,,,74,0
9840,note_on,24,0,2,,,,,,,,1,,,60,80
9840,note_on,12,0,1,,,,,,,,0,,,75,80
9888,note_on,48,0,1,,,,,,,,0,,,75,0
9900,note_on,12,0,1,,,,,,,,0,,,65,80
9936,note_on,96,0,2,,,,,,,,1,,,60,0
9948,note_on,48,0,1,,,,,,,,0,,,65,0
9960,note_on,12,0,1,,,,,,,,0,,,69,80
9960,note_on,24,0,2,,,,,,,,1,,,53,80
10008,note_on,48,0,1,,,,,,,,0,,,69,0
10020,note_on,12,0,1,,,,,,,,0,,,75,80
10056,note_on,96,0,2,,,,,,,,1,,,53,0
10068,note_on,48,0,1,,,,,,,,0,,,75,0
10080,note_on,12,0,1,,,,,,,,0,,,77,80
10080,note_on,24,0,2,,,,,,,,1,,,62,80
10128,note_on,48,0,1,,,,,,,,0,,,77,0
10140,note_on,12,0,1,,,,,,,,0,,,70,80
10176,note_on,96,0,2,,,,,,,,1,,,62,0
10188,note_on,48,0,1,,,,,,,,0,,,70,0
10200,note_on,12,0,1,,,,,,,,0,,,74,80
10200,note_on,24,0,2,,,,,,,,1,,,58,80
10248,note_on,48,0,1,,,,,,,,0,,,74,0
10260,note_on,12,0,1,,,,,,,,0,,,77,80
10296,note_on,96,0,2,,,,,,,,1,,,58,0
10308,note_on,48,0,1,,,,,,,,0,,,77,0
10320,note_on,24,0,2,,,,,,,,1,,,63,80
10320,note_on,12,0,1,,,,,,,,0,,,79,80
10368,note_on,48,0,1,,,,,,,,0,,,79,0
10380,note_on,12,0,1,,,,,,,,0,,,70,80
10416,note_on,96,0,2,,,,,,,,1,,,63,0
10428,note_on,48,0,1,,,,,,,,0,,,70,0
10440,note_on,24,0,2,,,,,,,,1,,,57,80
10440,note_on,12,0,1,,,,,,,,0,,,75,80
10488,note_on,48,0,1,,,,,,,,0,,,75,0
10500,note_on,12,0,1,,,,,,,,0,,,79,80
10536,note_on,96,0,2,,,,,,,,1,,,57,0
10548,note_on,48,0,1,,,,,,,,0,,,79,0
10560,note_on,12,0,1,,,,,,,,0,,,77,80
10560,note_on,24,0,2,,,,,,,,1,,,62,80
10608,note_on,48,0,1,,,,,,,,0,,,77,0
10620,note_on,12,0,1,,,,,,,,0,,,70,80
10656,note_on,96,0,2,,,,,,,,1,,,62,0
10668,note_on,48,0,1,,,,,,,,0,,,70,0
10680,note_on,24,0,2,,,,,,,,1,,,60,80
10680,note_on,12,0,1,,,,,,,,0,,,75,80
10728,note_on,48,0,1,,,,,,,,0,,,75,0
10740,note_on,12,0,1,,,,,,,,0,,,70,80
10776,note_on,96,0,2,,,,,,,,1,,,60,0
10788,note_on,48,0,1,,,,,,,,0,,,70,0
10800,note_on,24,0,2,,,,,,,,1,,,58,80
10800,note_on,12,0,1,,,,,,,,0,,,74,80
10848,note_on,48,0,1,,,,,,,,0,,,74,0
10860,note_on,12,0,1,,,,,,,,0,,,65,80
10896,note_on,96,0,2,,,,,,,,1,,,58,0
10908,note_on,48,0,1,,,,,,,,0,,,65,0
10920,note_on,24,0,2,,,,,,,,1,,,46,80
10920,note_on,12,0,1,,,,,,,,0,,,70,80
10968,note_on,48,0,1,,,,,,,,0,,,70,0
10980,note_on,12,0,1,,,,,,,,0,,,75,80
11016,note_on,96,0,2,,,,,,,,1,,,46,0
11028,note_on,48,0,1,,,,,,,,0,,,75,0
11040,note_on,0,0,2,,,,,,,,1,,,53,80
11040,note_on,24,0,2,,,,,,,,1,,,41,80
11040,note_on,12,0,1,,,,,,,,0,,,72,80
11088,note_on,48,0,1,,,,,,,,0,,,72,0
11100,note_on,12,0,1,,,,,,,,0,,,70,80
11148,note_on,48,0,1,,,,,,,,0,,,70,0
11160,note_on,12,0,1,,,,,,,,0,,,69,80
11208,note_on,48,0,1,,,,,,,,0,,,69,0
11220,note_on,12,0,1,,,,,,,,0,,,67,80
11232,note_on,192,0,2,,,,,,,,1,,,53,0
11232,note_on,0,0,2,,,,,,,,1,,,41,0
11268,note_on,48,0,1,,,,,,,,0,,,67,0
11280,note_on,12,0,1,,,,,,,,0,,,65,80
11328,note_on,48,0,1,,,,,,,,0,,,65,0
11340,note_on,12,0,1,,,,,,,,0,,,63,80
11388,note_on,48,0,1,,,,,,,,0,,,63,0
11400,note_on,12,0,1,,,,,,,,0,,,62,80
11448,note_on,48,0,1,,,,,,,,0,,,62,0
11460,note_on,12,0,1,,,,,,,,0,,,60,80
11508,note_on,48,0,1,,,,,,,,0,,,60,0
11520,note_on,12,0,1,,,,,,,,0,,,72,80
11520,note_on,288,0,2,,,,,,,,1,,,57,80
11568,note_on,48,0,1,,,,,,,,0,,,72,0
11580,note_on,12,0,1,,,,,,,,0,,,65,80
11616,note_on,96,0,2,,,,,,,,1,,,57,0
11628,note_on,48,0,1,,,,,,,,0,,,65,0
11640,note_on,12,0,1,,,,,,,,0,,,69,80
11640,note_on,24,0,2,,,,,,,,1,,,53,80
11688,note_on,48,0,1,,,,,,,,0,,,69,0
11700,note_on,12,0,1,,,,,,,,0,,,72,80
11736,note_on,96,0,2,,,,,,,,1,,,53,0
11748,note_on,48,0,1,,,,,,,,0,,,72,0
11760,note_on,12,0,1,,,,,,,,0,,,74,80
11760,note_on,24,0,2,,,,,,,,1,,,58,80
11808,note_on,48,0,1,,,,,,,,0,,,74,0
11820,note_on,12,0,1,,,,,,,,0,,,65,80
11856,note_on,96,0,2,,,,,,,,1,,,58,0
11868,note_on,48,0,1,,,,,,,,0,,,65,0
11880,note_on,24,0,2,,,,,,,,1,,,46,80
11880,note_on,12,0,1,,,,,,,,0,,,70,80
11928,note_on,48,0,1,,,,,,,,0,,,70,0
11940,note_on,12,0,1,,,,,,,,0,,,74,80
11976,note_on,96,0,2,,,,,,,,1,,,46,0
11988,note_on,48,0,1,,,,,,,,0,,,74,0
12000,note_on,24,0,2,,,,,,,,1,,,53,80
12000,note_on,12,0,1,,,,,,,,0,,,69,80
12048,note_on,48,0,1,,,,,,,,0,,,69,0
12060,note_on,12,0,1,,,,,,,,0,,,70,80
12096,note_on,96,0,2,,,,,,,,1,,,53,0
12108,note_on,48,0,1,,,,,,,,0,,,70,0
12120,note_on,12,0,1,,,,,,,,0,,,67,80
12120,note_on,24,0,2,,,,,,,,1,,,51,80
12168,note_on,48,0,1,,,,,,,,0,,,67,0
12180,note_on,12,0,1,,,,,,,,0,,,69,80
12216,note_on,96,0,2,,,,,,,,1,,,51,0
12228,note_on,48,0,1,,,,,,,,0,,,69,0
12240,note_on,12,0,1,,,,,,,,0,,,65,80
12240,note_on,24,0,2,,,,,,,,1,,,50,80
12288,note_on,48,0,1,,,,,,,,0,,,65,0
12300,note_on,12,0,1,,,,,,,,0,,,72,80
12336,note_on,96,0,2,,,,,,,,1,,,50,0
12348,note_on,48,0,1,,,,,,,,0,,,72,0
12360,note_on,12,0,1,,,,,,,,0,,,70,80
12360,note_on,24,0,2,,,,,,,,1,,,46,80
12408,note_on,48,0,1,,,,,,,,0,,,70,0
12420,note_on,12,0,1,,,,,,,,0,,,69,80
12456,note_on,96,0,2,,,,,,,,1,,,46,0
12468,note_on,48,0,1,,,,,,,,0,,,69,0
12480,note_on,24,0,2,,,,,,,,1,,,51,80
12480,note_on,12,0,1,,,,,,,,0,,,67,80
12528,note_on,48,0,1,,,,,,,,0,,,67,0
12540,note_on,12,0,1,,,,,,,,0,,,74,80
12576,note_on,96,0,2,,,,,,,,1,,,51,0
12588,note_on,48,0,1,,,,,,,,0,,,74,0
12600,note_on,24,0,2,,,,,,,,1,,,48,80
12600,note_on,12,0,1,,,,,,,,0,,,72,80
12648,note_on,48,0,1,,,,,,,,0,,,72,0
12660,note_on,12,0,1,,,,,,,,0,,,70,80
12696,note_on,96,0,2,,,,,,,,1,,,48,0
12708,note_on,48,0,1,,,,,,,,0,,,70,0
12720,note_on,24,0,2,,,,,,,,1,,,53,80
12720,note_on,12,0,1,,,,,,,,0,,,69,80
12768,note_on,48,0,1,,,,,,,,0,,,69,0
12780,note_on,12,0,1,,,,,,,,0,,,75,80
12816,note_on,96,0,2,,,,,,,,1,,,53,0
12828,note_on,48,0,1,,,,,,,,0,,,75,0
12840,note_on,24,0,2,,,,,,,,1,,,50,80
12840,note_on,12,0,1,,,,,,,,0,,,74,80
12888,note_on,48,0,1,,,,,,,,0,,,74,0
12900,note_on,12,0,1,,,,,,,,0,,,72,80
12936,note_on,96,0,2,,,,,,,,1,,,50,0
12948,note_on,48,0,1,,,,,,,,0,,,72,0
12960,note_on,12,0,1,,,,,,,,0,,,70,80
12960,note_on,24,0,2,,,,,,,,1,,,55,80
13008,note_on,48,0,1,,,,,,,,0,,,70,0
13020,note_on,12,0,1,,,,,,,,0,,,77,80
13056,note_on,96,0,2,,,,,,,,1,,,55,0
13068,note_on,48,0,1,,,,,,,,0,,,77,0
13080,note_on,12,0,1,,,,,,,,0,,,75,80
13080,note_on,24,0,2,,,,,,,,1,,,60,80
13128,note_on,48,0,1,,,,,,,,0,,,75,0
13140,note_on,12,0,1,,,,,,,,0,,,74,80
13176,note_on,96,0,2,,,,,,,,1,,,60,0
13188,note_on,48,0,1,,,,,,,,0,,,74,0
13200,note_on,12,0,1,,,,,,,,0,,,72,80
13200,note_on,24,0,2,,,,,,,,1,,,57,80
13248,note_on,48,0,1,,,,,,,,0,,,72,0
13260,note_on,12,0,1,,,,,,,,0,,,79,80
13296,note_on,96,0,2,,,,,,,,1,,,57,0
13308,note_on,48,0,1,,,,,,,,0,,,79,0
13320,note_on,24,0,2,,,,,,,,1,,,53,80
13320,note_on,12,0,1,,,,,,,,0,,,77,80
13368,note_on,48,0,1,,,,,,,,0,,,77,0
13380,note_on,12,0,1,,,,,,,,0,,,75,80
13416,note_on,96,0,2,,,,,,,,1,,,53,0
13428,note_on,48,0,1,,,,,,,,0,,,75,0
13440,note_on,24,0,2,,,,,,,,1,,,58,80
13440,note_on,12,0,1,,,,,,,,0,,,74,80
13488,note_on,48,0,1,,,,,,,,0,,,74,0
13500,note_on,12,0,1,,,,,,,,0,,,65,80
13536,note_on,96,0,2,,,,,,,,1,,,58,0
13548,note_on,48,0,1,,,,,,,,0,,,65,0
13560,note_on,12,0,1,,,,,,,,0,,,70,80
13560,note_on,24,0,2,,,,,,,,1,,,50,80
13608,note_on,48,0,1,,,,,,,,0,,,70,0
13620,note_on,12,0,1,,,,,,,,0,,,74,80
13656,note_on,96,0,2,,,,,,,,1,,,50,0
13668,note_on,48,0,1,,,,,,,,0,,,74,0
13680,note_on,24,0,2,,,,,,,,1,,,51,80
13680,note_on,12,0,1,,,,,,,,0,,,72,80
13728,note_on,48,0,1,,,,,,,,0,,,72,0
13740,note_on,12,0,1,,,,,,,,0,,,65,80
13776,note_on,96,0,2,,,,,,,,1,,,51,0
13788,note_on,48,0,1,,,,,,,,0,,,65,0
13800,note_on,12,0,1,,,,,,,,0,,,69,80
13800,note_on,24,0,2,,,,,,,,1,,,53,80
13848,note_on,48,0,1,,,,,,,,0,,,69,0
13860,note_on,12,0,1,,,,,,,,0,,,72,80
13896,note_on,96,0,2,,,,,,,,1,,,53,0
13908,note_on,48,0,1,,,,,,,,0,,,72,0
13920,note_on,24,0,2,,,,,,,,1,,,58,80
13920,note_on,12,0,1,,,,,,,,0,,,74,80
13968,note_on,48,0,1,,,,,,,,0,,,74,0
13980,note_on,12,0,1,,,,,,,,0,,,65,80
14016,note_on,96,0,2,,,,,,,,1,,,58,0
14028,note_on,48,0,1,,,,,,,,0,,,65,0
14040,note_on,24,0,2,,,,,,,,1,,,53,80
14040,note_on,12,0,1,,,,,,,,0,,,67,80
14088,note_on,48,0,1,,,,,,,,0,,,67,0
14100,note_on,12,0,1,,,,,,,,0,,,69,80
14136,note_on,96,0,2,,,,,,,,1,,,53,0
14148,note_on,48,0,1,,,,,,,,0,,,69,0
14160,note_on,12,0,1,,,,,,,,0,,,70,80
14160,note_on,24,0,2,,,,,,,,1,,,55,80
14208,note_on,48,0,1,,,,,,,,0,,,70,0
14220,note_on,12,0,1,,,,,,,,0,,,72,80
14256,note_on,96,0,2,,,,,,,,1,,,55,0
14268,note_on,48,0,1,,,,,,,,0,,,72,0
14280,note_on,12,0,1,,,,,,,,0,,,74,80
14280,note_on,24,0,2,,,,,,,,1,,,50,80
14328,note_on,48,0,1,,,,,,,,0,,,74,0
14340,note_on,12,0,1,,,,,,,,0,,,75,80
14376,note_on,96,0,2,,,,,,,,1,,,50,0
14388,note_on,48,0,1,,,,,,,,0,,,75,0
14400,note_on,24,0,2,,,,,,,,1,,,51,80
14400,note_on,12,0,1,,,,,,,,0,,,74,80
14448,note_on,48,0,1,,,,,,,,0,,,74,0
14460,note_on,12,0,1,,,,,,,,0,,,72,80
14496,note_on,96,0,2,,,,,,,,1,,,51,0
14508,note_on,48,0,1,,,,,,,,0,,,72,0
14520,note_on,24,0,2,,,,,,,,1,,,48,80
14520,note_on,12,0,1,,,,,,,,0,,,70,80
14568,note_on,48,0,1,,,,,,,,0,,,70,0
14580,note_on,12,0,1,,,,,,,,0,,,72,80
14616,note_on,96,0,2,,,,,,,,1,,,48,0
14628,note_on,48,0,1,,,,,,,,0,,,72,0
14640,note_on,12,0,1,,,,,,,,0,,,65,80
14640,note_on,24,0,2,,,,,,,,1,,,53,80
14688,note_on,48,0,1,,,,,,,,0,,,65,0
14700,note_on,12,0,1,,,,,,,,0,,,70,80
14736,note_on,96,0,2,,,,,,,,1,,,53,0
14748,note_on,48,0,1,,,,,,,,0,,,70,0
14760,note_on,12,0,1,,,,,,,,0,,,69,80
14760,note_on,24,0,2,,,,,,,,1,,,41,80
14808,note_on,48,0,1,,,,,,,,0,,,69,0
14820,note_on,12,0,1,,,,,,,,0,,,63,80
14856,note_on,96,0,2,,,,,,,,1,,,41,0
14868,note_on,48,0,1,,,,,,,,0,,,63,0
14880,note_on,12,0,1,,,,,,,,0,,,70,80
14880,note_on,24,0,2,,,,,,,,1,,,46,80
14928,note_on,48,0,1,,,,,,,,0,,,70,0
14940,note_on,12,0,1,,,,,,,,0,,,67,80
14988,note_on,48,0,1,,,,,,,,0,,,67,0
15000,note_on,12,0,1,,,,,,,,0,,,65,80
15048,note_on,48,0,1,,,,,,,,0,,,65,0
15060,note_on,12,0,1,,,,,,,,0,,,63,80
15072,note_on,192,0,2,,,,,,,,1,,,46,0
15108,note_on,48,0,1,,,,,,,,0,,,63,0
15120,note_on,12,0,1,,,,,,,,0,,,62,80
15168,note_on,48,0,1,,,,,,,,0,,,62,0
15180,note_on,12,0,1,,,,,,,,0,,,60,80
15228,note_on,48,0,1,,,,,,,,0,,,60,0
15240,note_on,12,0,1,,,,,,,,0,,,62,80
15288,note_on,48,0,1,,,,,,,,0,,,62,0
15300,note_on,12,0,1,,,,,,,,0,,,58,80
15348,note_on,48,0,1,,,,,,,,0,,,58,0
15360,note_on,288,0,2,,,,,,,,1,,,58,80
15360,note_on,0,0,1,,,,,,,,0,,,70,80
15360,marker,0,1,0,,,,,,,,,,,,
15360,note_on,12,0,1,,,,,,,,0,,,65,80
15360,set_tempo,7680,1,0,,,,,,441176,,,,,,
15408,note_on,48,0,2,,,,,,,,1,,,58,0
15420,note_on,12,0,2,,,,,,,,1,,,62,80
15468,note_on,48,0,2,,,,,,,,1,,,62,0
15480,note_on,12,0,2,,,,,,,,1,,,60,80
15528,note_on,48,0,2,,,,,,,,1,,,60,0
15540,note_on,12,0,2,,,,,,,,1,,,58,80
15552,note_on,0,0,1,,,,,,,,0,,,65,0
15552,note_on,192,0,1,,,,,,,,0,,,70,0
15588,note_on,48,0,2,,,,,,,,1,,,58,0
15600,note_on,12,0,2,,,,,,,,1,,,57,80
15600,note_on,48,0,1,,,,,,,,0,,,65,80
15600,note_on,0,0,1,,,,,,,,0,,,72,80
15648,note_on,48,0,2,,,,,,,,1,,,57,0
15660,note_on,12,0,2,,,,,,,,1,,,60,80
15708,note_on,48,0,2,,,,,,,,1,,,60,0
15720,note_on,12,0,2,,,,,,,,1,,,57,80
15768,note_on,48,0,2,,,,,,,,1,,,57,0
15780,note_on,12,0,2,,,,,,,,1,,,53,80
15792,note_on,192,0,1,,,,,,,,0,,,72,0
15792,note_on,0,0,1,,,,,,,,0,,,65,0
15828,note_on,48,0,2,,,,,,,,1,,,53,0
15840,note_on,12,0,2,,,,,,,,1,,,58,80
15840,note_on,48,0,1,,,,,,,,0,,,65,80
15840,note_on,0,0,1,,,,,,,,0,,,70,80
15840,note_on,0,0,1,,,,,,,,0,,,74,80
15888,note_on,48,0,2,,,,,,,,1,,,58,0
15900,note_on,12,0,2,,,,,,,,1,,,62,80
15948,note_on,48,0,2,,,,,,,,1,,,62,0
15960,note_on,12,0,2,,,,,,,,1,,,58,80
16008,note_on,48,0,2,,,,,,,,1,,,58,0
16020,note_on,12,0,2,,,,,,,,1,,,53,80
16032,note_on,0,0,1,,,,,,,,0,,,65,0
16032,note_on,0,0,1,,,,,,,,0,,,74,0
16032,note_on,192,0,1,,,,,,,,0,,,70,0
16068,note_on,48,0,2,,,,,,,,1,,,53,0
16080,note_on,12,0,2,,,,,,,,1,,,57,80
16128,note_on,48,0,2,,,,,,,,1,,,57,0
16140,note_on,12,0,2,,,,,,,,1,,,60,80
16188,note_on,48,0,2,,,,,,,,1,,,60,0
16200,note_on,12,0,2,,,,,,,,1,,,57,80
16200,note_on,0,0,1,,,,,,,,0,,,72,80
16200,note_on,0,0,1,,,,,,,,0,,,75,80
16200,note_on,168,0,1,,,,,,,,0,,,69,80
16248,note_on,48,0,2,,,,,,,,1,,,57,0
16260,note_on,12,0,2,,,,,,,,1,,,53,80
16296,note_on,0,0,1,,,,,,,,0,,,69,0
16296,note_on,96,0,1,,,,,,,,0,,,72,0
16296,note_on,0,0,1,,,,,,,,0,,,75,0
16308,note_on,48,0,2,,,,,,,,1,,,53,0
16320,note_on,12,0,2,,,,,,,,1,,,58,80
16320,note_on,0,0,1,,,,,,,,0,,,65,80
16320,note_on,0,0,1,,,,,,,,0,,,70,80
16320,note_on,24,0,1,,,,,,,,0,,,74,80
16368,note_on,48,0,2,,,,,,,,1,,,58,0
16380,note_on,12,0,2,,,,,,,,1,,,62,80
16428,note_on,48,0,2,,,,,,,,1,,,62,0
16440,note_on,12,0,2,,,,,,,,1,,,58,80
16488,note_on,48,0,2,,,,,,,,1,,,58,0
16500,note_on,12,0,2,,,,,,,,1,,,53,80
16512,note_on,0,0,1,,,,,,,,0,,,70,0
16512,note_on,192,0,1,,,,,,,,0,,,65,0
16512,note_on,0,0,1,,,,,,,,0,,,74,0
16548,note_on,48,0,2,,,,,,,,1,,,53,0
16560,note_on,12,0,2,,,,,,,,1,,,60,80
16560,note_on,0,0,1,,,,,,,,0,,,65,80
16560,note_on,0,0,1,,,,,,,,0,,,69,80
16560,note_on,48,0,1,,,,,,,,0,,,72,80
16608,note_on,48,0,2,,,,,,,,1,,,60,0
16620,note_on,12,0,2,,,,,,,,1,,,63,80
16668,note_on,48,0,2,,,,,,,,1,,,63,0
16680,note_on,12,0,2,,,,,,,,1,,,60,80
16728,note_on,48,0,2,,,,,,,,1,,,60,0
16740,note_on,12,0,2,,,,,,,,1,,,57,80
16752,note_on,0,0,1,,,,,,,,0,,,72,0
16752,note_on,0,0,1,,,,,,,,0,,,65,0
16752,note_on,192,0,1,,,,,,,,0,,,69,0
16788,note_on,48,0,2,,,,,,,,1,,,57,0
16800,note_on,12,0,2,,,,,,,,1,,,58,80
16800,note_on,48,0,1,,,,,,,,0,,,74,80
16800,note_on,0,0,1,,,,,,,,0,,,65,80
16800,note_on,0,0,1,,,,,,,,0,,,70,80
16848,note_on,48,0,2,,,,,,,,1,,,58,0
16860,note_on,12,0,2,,,,,,,,1,,,62,80
16908,note_on,48,0,2,,,,,,,,1,,,62,0
16920,note_on,12,0,2,,,,,,,,1,,,58,80
16968,note_on,48,0,2,,,,,,,,1,,,58,0
16980,note_on,12,0,2,,,,,,,,1,,,53,80
16992,note_on,192,0,1,,,,,,,,0,,,70,0
16992,note_on,0,0,1,,,,,,,,0,,,65,0
16992,note_on,0,0,1,,,,,,,,0,,,74,0
17028,note_on,48,0,2,,,,,,,,1,,,53,0
17040,note_on,12,0,2,,,,,,,,1,,,57,80
17088,note_on,48,0,2,,,,,,,,1,,,57,0
17100,note_on,12,0,2,,,,,,,,1,,,60,80
17148,note_on,48,0,2,,,,,,,,1,,,60,0
17160,note_on,0,0,1,,,,,,,,0,,,72,80
17160,note_on,0,0,1,,,,,,,,0,,,69,80
17160,note_on,168,0,1,,,,,,,,0,,,75,80
17160,note_on,12,0,2,,,,,,,,1,,,57,80
17208,note_on,48,0,2,,,,,,,,1,,,57,0
17220,note_on,12,0,2,,,,,,,,1,,,53,80
17256,note_on,0,0,1,,,,,,,,0,,,75,0
17256,note_on,0,0,1,,,,,,,,0,,,69,0
17256,note_on,96,0,1,,,,,,,,0,,,72,0
17268,note_on,48,0,2,,,,,,,,1,,,53,0
17280,note_on,0,0,1,,,,,,,,0,,,70,80
17280,note_on,0,0,1,,,,,,,,0,,,65,80
17280,note_on,24,0,1,,,,,,,,0,,,74,80
17280,note_on,12,0,2,,,,,,,,1,,,58,80
17328,note_on,48,0,2,,,,,,,,1,,,58,0
17340,note_on,12,0,2,,,,,,,,1,,,62,80
17388,note_on,48,0,2,,,,,,,,1,,,62,0
17400,note_on,12,0,2,,,,,,,,1,,,58,80
17448,note_on,48,0,2,,,,,,,,1,,,58,0
17460,note_on,12,0,2,,,,,,,,1,,,53,80
17472,note_on,192,0,1,,,,,,,,0,,,65,0
17472,note_on,0,0,1,,,,,,,,0,,,70,0
17472,note_on,0,0,1,,,,,,,,0,,,74,0
17508,note_on,48,0,2,,,,,,,,1,,,53,0
17520,note_on,12,0,2,,,,,,,,1,,,60,80
17520,note_on,48,0,1,,,,,,,,0,,,75,80
17520,note_on,0,0,1,,,,,,,,0,,,69,80
17520,note_on,0,0,1,,,,,,,,0,,,72,80
17568,note_on,48,0,2,,,,,,,,1,,,60,0
17580,note_on,12,0,2,,,,,,,,1,,,63,80
17628,note_on,48,0,2,,,,,,,,1,,,63,0
17640,note_on,12,0,2,,,,,,,,1,,,60,80
17688,note_on,48,0,2,,,,,,,,1,,,60,0
17700,note_on,12,0,2,,,,,,,,1,,,57,80
17712,note_on,0,0,1,,,,,,,,0,,,75,0
17712,note_on,192,0,1,,,,,,,,0,,,72,0
17712,note_on,0,0,1,,,,,,,,0,,,69,0
17748,note_on,48,0,2,,,,,,,,1,,,57,0
17760,note_on,0,0,1,,,,,,,,0,,,77,80
17760,note_on,0,0,1,,,,,,,,0,,,70,80
17760,note_on,48,0,1,,,,,,,,0,,,74,80
17760,note_on,12,0,2,,,,,,,,1,,,62,80
17808,note_on,48,0,2,,,,,,,,1,,,62,0
17820,note_on,12,0,2,,,,,,,,1,,,65,80
17868,note_on,48,0,2,,,,,,,,1,,,65,0
17880,note_on,12,0,2,,,,,,,,1,,,62,80
17928,note_on,48,0,2,,,,,,,,1,,,62,0
17940,note_on,12,0,2,,,,,,,,1,,,58,80
17952,note_on,192,0,1,,,,,,,,0,,,77,0
17952,note_on,0,0,1,,,,,,,,0,,,70,0
17952,note_on,0,0,1,,,,,,,,0,,,74,0
17988,note_on,48,0,2,,,,,,,,1,,,58,0
18000,note_on,12,0,2,,,,,,,,1,,,63,80
18048,note_on,48,0,2,,,,,,,,1,,,63,0
18060,note_on,12,0,2,,,,,,,,1,,,67,80
18108,note_on,48,0,2,,,,,,,,1,,,67,0
18120,note_on,12,0,2,,,,,,,,1,,,63,80
18120,note_on,0,0,1,,,,,,,,0,,,79,80
18120,note_on,168,0,1,,,,,,,,0,,,69,80
18168,note_on,48,0,2,,,,,,,,1,,,63,0
18180,note_on,12,0,2,,,,,,,,1,,,60,80
18216,note_on,96,0,1,,,,,,,,0,,,79,0
18216,note_on,0,0,1,,,,,,,,0,,,69,0
18228,note_on,48,0,2,,,,,,,,1,,,60,0
18240,note_on,24,0,1,,,,,,,,0,,,70,80
18240,note_on,0,0,1,,,,,,,,0,,,77,80
18240,note_on,12,0,2,,,,,,,,1,,,62,80
18288,note_on,48,0,2,,,,,,,,1,,,62,0
18300,note_on,12,0,2,,,,,,,,1,,,65,80
18336,note_on,96,0,1,,,,,,,,0,,,77,0
18336,note_on,0,0,1,,,,,,,,0,,,70,0
18348,note_on,48,0,2,,,,,,,,1,,,65,0
18360,note_on,24,0,1,,,,,,,,0,,,72,80
18360,note_on,0,0,1,,,,,,,,0,,,75,80
18360,note_on,12,0,2,,,,,,,,1,,,57,80
18408,note_on,48,0,2,,,,,,,,1,,,57,0
18420,note_on,12,0,2,,,,,,,,1,,,60,80
18456,note_on,96,0,1,,,,,,,,0,,,75,0
18456,note_on,0,0,1,,,,,,,,0,,,72,0
18468,note_on,48,0,2,,,,,,,,1,,,60,0
18480,note_on,24,0,1,,,,,,,,0,,,74,80
18480,note_on,12,0,2,,,,,,,,1,,,58,80
18480,note_on,0,0,1,,,,,,,,0,,,65,80
18528,note_on,48,0,2,,,,,,,,1,,,58,0
18540,note_on,12,0,2,,,,,,,,1,,,62,80
18576,note_on,96,0,1,,,,,,,,0,,,65,0
18576,note_on,0,0,1,,,,,,,,0,,,74,0
18588,note_on,48,0,2,,,,,,,,1,,,62,0
18600,note_on,24,0,1,,,,,,,,0,,,70,80
18600,note_on,12,0,2,,,,,,,,1,,,50,80
18648,note_on,48,0,2,,,,,,,,1,,,50,0
18660,note_on,12,0,2,,,,,,,,1,,,51,80
18696,note_on,96,0,1,,,,,,,,0,,,70,0
18708,note_on,48,0,2,,,,,,,,1,,,51,0
18720,note_on,12,0,2,,,,,,,,1,,,53,80
18720,note_on,0,0,1,,,,,,,,0,,,72,80
18720,note_on,0,0,1,,,,,,,,0,,,69,80
18720,note_on,24,0,1,,,,,,,,0,,,65,80
18768,note_on,48,0,2,,,,,,,,1,,,53,0
18780,note_on,12,0,2,,,,,,,,1,,,48,80
18828,note_on,48,0,2,,,,,,,,1,,,48,0
18840,note_on,12,0,2,,,,,,,,1,,,45,80
18888,note_on,48,0,2,,,,,,,,1,,,45,0
18900,note_on,12,0,2,,,,,,,,1,,,48,80
18912,note_on,0,0,1,,,,,,,,0,,,72,0
18912,note_on,0,0,1,,,,,,,,0,,,65,0
18912,note_on,192,0,1,,,,,,,,0,,,69,0
18948,note_on,48,0,2,,,,,,,,1,,,48,0
18960,note_on,12,0,2,,,,,,,,1,,,41,80
19008,note_on,48,0,2,,,,,,,,1,,,41,0
19020,note_on,12,0,2,,,,,,,,1,,,53,80
19068,note_on,48,0,2,,,,,,,,1,,,53,0
19080,note_on,12,0,2,,,,,,,,1,,,51,80
19128,note_on,48,0,2,,,,,,,,1,,,51,0
19140,note_on,12,0,2,,,,,,,,1,,,53,80
19188,note_on,48,0,2,,,,,,,,1,,,53,0
19200,note_on,288,0,1,,,,,,,,0,,,65,80
19200,note_on,12,0,2,,,,,,,,1,,,50,80
19200,note_on,0,0,1,,,,,,,,0,,,70,80
19248,note_on,48,0,2,,,,,,,,1,,,50,0
19260,note_on,12,0,2,,,,,,,,1,,,53,80
19308,note_on,48,0,2,,,,,,,,1,,,53,0
19320,note_on,12,0,2,,,,,,,,1,,,46,80
19368,note_on,48,0,2,,,,,,,,1,,,46,0
19380,note_on,12,0,2,,,,,,,,1,,,53,80
19392,note_on,192,0,1,,,,,,,,0,,,70,0
19392,note_on,0,0,1,,,,,,,,0,,,65,0
19428,note_on,48,0,2,,,,,,,,1,,,53,0
19440,note_on,48,0,1,,,,,,,,0,,,65,80
19440,note_on,12,0,2,,,,,,,,1,,,45,80
19440,note_on,0,0,1,,,,,,,,0,,,72,80
19488,note_on,48,0,2,,,,,,,,1,,,45,0
19500,note_on,12,0,2,,,,,,,,1,,,53,80
19548,note_on,48,0,2,,,,,,,,1,,,53,0
19560,note_on,12,0,2,,,,,,,,1,,,41,80
19608,note_on,48,0,2,,,,,,,,1,,,41,0
19620,note_on,12,0,2,,,,,,,,1,,,53,80
19632,note_on,0,0,1,,,,,,,,0,,,65,0
19632,note_on,192,0,1,,,,,,,,0,,,72,0
19668,note_on,48,0,2,,,,,,,,1,,,53,0
19680,note_on,48,0,1,,,,,,,,0,,,65,80
19680,note_on,0,0,1,,,,,,,,0,,,70,80
19680,note_on,12,0,2,,,,,,,,1,,,46,80
19680,note_on,0,0,1,,,,,,,,0,,,74,80
19728,note_on,48,0,2,,,,,,,,1,,,46,0
19740,note_on,12,0,2,,,,,,,,1,,,53,80
19788,note_on,48,0,2,,,,,,,,1,,,53,0
19800,note_on,12,0,2,,,,,,,,1,,,50,80
19848,note_on,48,0,2,,,,,,,,1,,,50,0
19860,note_on,12,0,2,,,,,,,,1,,,53,80
19872,note_on,0,0,1,,,,,,,,0,,,65,0
19872,note_on,0,0,1,,,,,,,,0,,,74,0
19872,note_on,192,0,1,,,,,,,,0,,,70,0
19908,note_on,48,0,2,,,,,,,,1,,,53,0
19920,note_on,12,0,2,,,,,,,,1,,,46,80
19968,note_on,48,0,2,,,,,,,,1,,,46,0
19980,note_on,12,0,2,,,,,,,,1,,,53,80
20028,note_on,48,0,2,,,,,,,,1,,,53,0
20040,note_on,12,0,2,,,,,,,,1,,,41,80
20040,note_on,0,0,1,,,,,,,,0,,,72,80
20040,note_on,168,0,1,,,,,,,,0,,,75,80
20040,note_on,0,0,1,,,,,,,,0,,,69,80
20088,note_on,48,0,2,,,,,,,,1,,,41,0
20100,note_on,12,0,2,,,,,,,,1,,,53,80
20136,note_on,0,0,1,,,,,,,,0,,,75,0
20136,note_on,96,0,1,,,,,,,,0,,,72,0
20136,note_on,0,0,1,,,,,,,,0,,,69,0
20148,note_on,48,0,2,,,,,,,,1,,,53,0
20160,note_on,24,0,1,,,,,,,,0,,,65,80
20160,note_on,0,0,1,,,,,,,,0,,,74,80
20160,note_on,12,0,2,,,,,,,,1,,,46,80
20208,note_on,48,0,2,,,,,,,,1,,,46,0
20220,note_on,12,0,2,,,,,,,,1,,,53,80
20256,note_on,96,0,1,,,,,,,,0,,,74,0
20256,note_on,0,0,1,,,,,,,,0,,,65,0
20268,note_on,48,0,2,,,,,,,,1,,,53,0
20280,note_on,24,0,1,,,,,,,,0,,,70,80
20280,note_on,12,0,2,,,,,,,,1,,,50,80
20328,note_on,48,0,2,,,,,,,,1,,,50,0
20340,note_on,12,0,2,,,,,,,,1,,,53,80
20376,note_on,96,0,1,,,,,,,,0,,,70,0
20388,note_on,48,0,2,,,,,,,,1,,,53,0
20400,note_on,0,0,1,,,,,,,,0,,,69,80
20400,note_on,24,0,1,,,,,,,,0,,,65,80
20400,note_on,12,0,2,,,,,,,,1,,,48,80
20448,note_on,48,0,2,,,,,,,,1,,,48,0
20460,note_on,12,0,2,,,,,,,,1,,,53,80
20496,note_on,96,0,1,,,,,,,,0,,,69,0
20496,note_on,0,0,1,,,,,,,,0,,,65,0
20508,note_on,48,0,2,,,,,,,,1,,,53,0
20520,note_on,24,0,1,,,,,,,,0,,,72,80
20520,note_on,12,0,2,,,,,,,,1,,,51,80
20568,note_on,48,0,2,,,,,,,,1,,,51,0
20580,note_on,12,0,2,,,,,,,,1,,,53,80
20616,note_on,96,0,1,,,,,,,,0,,,72,0
20628,note_on,48,0,2,,,,,,,,1,,,53,0
20640,note_on,0,0,1,,,,,,,,0,,,65,80
20640,note_on,24,0,1,,,,,,,,0,,,70,80
20640,note_on,12,0,2,,,,,,,,1,,,50,80
20688,note_on,48,0,2,,,,,,,,1,,,50,0
20700,note_on,12,0,2,,,,,,,,1,,,53,80
20736,note_on,96,0,1,,,,,,,,0,,,65,0
20736,note_on,0,0,1,,,,,,,,0,,,70,0
20748,note_on,48,0,2,,,,,,,,1,,,53,0
20760,note_on,24,0,1,,,,,,,,0,,,74,80
20760,note_on,12,0,2,,,,,,,,1,,,46,80
20808,note_on,48,0,2,,,,,,,,1,,,46,0
20820,note_on,12,0,2,,,,,,,,1,,,53,80
20856,note_on,96,0,1,,,,,,,,0,,,74,0
20868,note_on,48,0,2,,,,,,,,1,,,53,0
20880,note_on,24,0,1,,,,,,,,0,,,72,80
20880,note_on,12,0,2,,,,,,,,1,,,45,80
20880,note_on,0,0,1,,,,,,,,0,,,65,80
20928,note_on,48,0,2,,,,,,,,1,,,45,0
20940,note_on,12,0,2,,,,,,,,1,,,53,80
20976,note_on,96,0,1,,,,,,,,0,,,65,0
20976,note_on,0,0,1,,,,,,,,0,,,72,0
20988,note_on,48,0,2,,,,,,,,1,,,53,0
21000,note_on,12,0,2,,,,,,,,1,,,41,80
21000,note_on,24,0,1,,,,,,,,0,,,75,80
21048,note_on,48,0,2,,,,,,,,1,,,41,0
21060,note_on,12,0,2,,,,,,,,1,,,53,80
21096,note_on,96,0,1,,,,,,,,0,,,75,0
21108,note_on,48,0,2,,,,,,,,1,,,53,0
21120,note_on,12,0,2,,,,,,,,1,,,46,80
21120,note_on,24,0,1,,,,,,,,0,,,74,80
21168,note_on,48,0,2,,,,,,,,1,,,46,0
21180,note_on,12,0,2,,,,,,,,1,,,58,80
21216,note_on,96,0,1,,,,,,,,0,,,74,0
21228,note_on,48,0,2,,,,,,,,1,,,58,0
21240,note_on,24,0,1,,,,,,,,0,,,65,80
21240,note_on,12,0,2,,,,,,,,1,,,57,80
21288,note_on,48,0,2,,,,,,,,1,,,57,0
21300,note_on,12,0,2,,,,,,,,1,,,58,80
21336,note_on,96,0,1,,,,,,,,0,,,65,0
21348,note_on,48,0,2,,,,,,,,1,,,58,0
21360,note_on,24,0,1,,,,,,,,0,,,75,80
21360,note_on,12,0,2,,,,,,,,1,,,48,80
21408,note_on,48,0,2,,,,,,,,1,,,48,0
21420,note_on,12,0,2,,,,,,,,1,,,58,80
21456,note_on,96,0,1,,,,,,,,0,,,75,0
21468,note_on,48,0,2,,,,,,,,1,,,58,0
21480,note_on,24,0,1,,,,,,,,0,,,72,80
21480,note_on,12,0,2,,,,,,,,1,,,57,80
21528,note_on,48,0,2,,,,,,,,1,,,57,0
21540,note_on,12,0,2,,,,,,,,1,,,58,80
21576,note_on,96,0,1,,,,,,,,0,,,72,0
21588,note_on,48,0,2,,,,,,,,1,,,58,0
21600,note_on,0,0,1,,,,,,,,0,,,77,80
21600,note_on,12,0,2,,,,,,,,1,,,50,80
21600,note_on,24,0,1,,,,,,,,0,,,74,80
21600,note_on,0,0,1,,,,,,,,0,,,70,80
21648,note_on,48,0,2,,,,,,,,1,,,50,0
21660,note_on,12,0,2,,,,,,,,1,,,58,80
21708,note_on,48,0,2,,,,,,,,1,,,58,0
21720,note_on,12,0,2,,,,,,,,1,,,57,80
21768,note_on,48,0,2,,,,,,,,1,,,57,0
21780,note_on,12,0,2,,,,,,,,1,,,58,80
21792,note_on,0,0,1,,,,,,,,0,,,77,0
21792,note_on,192,0,1,,,,,,,,0,,,70,0
21792,note_on,0,0,1,,,,,,,,0,,,74,0
21828,note_on,48,0,2,,,,,,,,1,,,58,0
21840,note_on,12,0,2,,,,,,,,1,,,51,80
21888,note_on,48,0,2,,,,,,,,1,,,51,0
21900,note_on,12,0,2,,,,,,,,1,,,58,80
21948,note_on,48,0,2,,,,,,,,1,,,58,0
21960,note_on,168,0,1,,,,,,,,0,,,75,80
21960,note_on,0,0,1,,,,,,,,0,,,79,80
21960,note_on,12,0,2,,,,,,,,1,,,57,80
22008,note_on,48,0,2,,,,,,,,1,,,57,0
22020,note_on,12,0,2,,,,,,,,1,,,58,80
22056,note_on,96,0,1,,,,,,,,0,,,79,0
22056,note_on,0,0,1,,,,,,,,0,,,75,0
22068,note_on,48,0,2,,,,,,,,1,,,58,0
22080,note_on,12,0,2,,,,,,,,1,,,50,80
22080,note_on,24,0,1,,,,,,,,0,,,65,80
22080,note_on,0,0,1,,,,,,,,0,,,77,80
22128,note_on,48,0,2,,,,,,,,1,,,50,0
22140,note_on,12,0,2,,,,,,,,1,,,58,80
22176,note_on,0,0,1,,,,,,,,0,,,65,0
22176,note_on,96,0,1,,,,,,,,0,,,77,0
22188,note_on,48,0,2,,,,,,,,1,,,58,0
22200,note_on,0,0,1,,,,,,,,0,,,75,80
22200,note_on,24,0,1,,,,,,,,0,,,69,80
22200,note_on,12,0,2,,,,,,,,1,,,48,80
22248,note_on,48,0,2,,,,,,,,1,,,48,0
22260,note_on,12,0,2,,,,,,,,1,,,58,80
22296,note_on,96,0,1,,,,,,,,0,,,75,0
22296,note_on,0,0,1,,,,,,,,0,,,69,0
22308,note_on,48,0,2,,,,,,,,1,,,58,0
22320,note_on,24,0,1,,,,,,,,0,,,67,80
22320,note_on,0,0,1,,,,,,,,0,,,74,80
22320,note_on,12,0,2,,,,,,,,1,,,46,80
22368,note_on,48,0,2,,,,,,,,1,,,46,0
22380,note_on,12,0,2,,,,,,,,1,,,48,80
22428,note_on,48,0,2,,,,,,,,1,,,48,0
22440,note_on,12,0,2,,,,,,,,1,,,50,80
22488,note_on,48,0,2,,,,,,,,1,,,50,0
22500,note_on,12,0,2,,,,,,,,1,,,51,80
22512,note_on,0,0,1,,,,,,,,0,,,67,0
22512,note_on,192,0,1,,,,,,,,0,,,74,0
22548,note_on,48,0,2,,,,,,,,1,,,51,0
22560,note_on,12,0,2,,,,,,,,1,,,53,80
22560,note_on,48,0,1,,,,,,,,0,,,72,80
22608,note_on,48,0,1,,,,,,,,0,,,72,0
22620,note_on,12,0,1,,,,,,,,0,,,70,80
22668,note_on,48,0,1,,,,,,,,0,,,70,0
22680,note_on,12,0,1,,,,,,,,0,,,69,80
22728,note_on,48,0,1,,,,,,,,0,,,69,0
22740,note_on,12,0,1,,,,,,,,0,,,67,80
22752,note_on,192,0,2,,,,,,,,1,,,53,0
22788,note_on,48,0,1,,,,,,,,0,,,67,0
22800,note_on,12,0,1,,,,,,,,0,,,65,80
22848,note_on,48,0,1,,,,,,,,0,,,65,0
22860,note_on,12,0,1,,,,,,,,0,,,67,80
22860,note_on,108,0,2,,,,,,,,1,,,46,80
22908,note_on,48,0,1,,,,,,,,0,,,67,0
22908,note_on,48,0,2,,,,,,,,1,,,46,0
22920,note_on,12,0,1,,,,,,,,0,,,69,80
22920,note_on,12,0,2,,,,,,,,1,,,45,80
22968,note_on,48,0,2,,,,,,,,1,,,45,0
22968,note_on,48,0,1,,,,,,,,0,,,69,0
22980,note_on,12,0,2,,,,,,,,1,,,43,80
22980,note_on,12,0,1,,,,,,,,0,,,70,80
23028,note_on,48,0,1,,,,,,,,0,,,70,0
23028,note_on,48,0,2,,,,,,,,1,,,43,0
23040,note_on,12,0,2,,,,,,,,1,,,41,80
23040,note_on,0,0,1,,,,,,,,0,,,69,80
23040,note_on,12,0,1,,,,,,,,0,,,72,80
23088,note_on,48,0,2,,,,,,,,1,,,41,0
23100,note_on,12,0,2,,,,,,,,1,,,53,80
23136,note_on,0,0,1,,,,,,,,0,,,72,0
23136,note_on,96,0,1,,,,,,,,0,,,69,0
23148,note_on,48,0,2,,,,,,,,1,,,53,0
23160,note_on,12,0,2,,,,,,,,1,,,51,80
23160,note_on,24,0,1,,,,,,,,0,,,62,80
23208,note_on,48,0,2,,,,,,,,1,,,51,0
23220,note_on,12,0,2,,,,,,,,1,,,53,80
23256,note_on,96,0,1,,,,,,,,0,,,62,0
23268,note_on,48,0,2,,,,,,,,1,,,53,0
23280,note_on,0,0,1,,,,,,,,0,,,74,80
23280,note_on,24,0,1,,,,,,,,0,,,70,80
23280,note_on,12,0,2,,,,,,,,1,,,50,80
23328,note_on,48,0,2,,,,,,,,1,,,50,0
23340,note_on,12,0,2,,,,,,,,1,,,48,80
23376,note_on,0,0,1,,,,,,,,0,,,70,0
23376,note_on,96,0,1,,,,,,,,0,,,74,0
23388,note_on,48,0,2,,,,,,,,1,,,48,0
23400,note_on,24,0,1,,,,,,,,0,,,65,80
23400,note_on,12,0,2,,,,,,,,1,,,50,80
23448,note_on,48,0,2,,,,,,,,1,,,50,0
23460,note_on,12,0,2,,,,,,,,1,,,46,80
23496,note_on,96,0,1,,,,,,,,0,,,65,0
23508,note_on,48,0,2,,,,,,,,1,,,46,0
23520,note_on,12,0,2,,,,,,,,1,,,41,80
23520,note_on,24,0,1,,,,,,,,0,,,69,80
23568,note_on,48,0,2,,,,,,,,1,,,41,0
23580,note_on,12,0,2,,,,,,,,1,,,53,80
23616,note_on,96,0,1,,,,,,,,0,,,69,0
23628,note_on,48,0,2,,,,,,,,1,,,53,0
23640,note_on,12,0,2,,,,,,,,1,,,51,80
23640,note_on,24,0,1,,,,,,,,0,,,60,80
23688,note_on,48,0,2,,,,,,,,1,,,51,0
23700,note_on,12,0,2,,,,,,,,1,,,53,80
23736,note_on,96,0,1,,,,,,,,0,,,60,0
23748,note_on,48,0,2,,,,,,,,1,,,53,0
23760,note_on,12,0,2,,,,,,,,1,,,50,80
23760,note_on,0,0,1,,,,,,,,0,,,65,80
23760,note_on,24,0,1,,,,,,,,0,,,70,80
23808,note_on,48,0,2,,,,,,,,1,,,50,0
23817,note_on,57,0,1,,,,,,,,0,,,65,0
23817,note_on,0,0,1,,,,,,,,0,,,70,0
23820,note_on,3,0,1,,,,,,,,0,,,63,80
23820,note_on,12,0,2,,,,,,,,1,,,48,80
23868,note_on,48,0,2,,,,,,,,1,,,48,0
23877,note_on,57,0,1,,,,,,,,0,,,63,0
23880,note_on,3,0,1,,,,,,,,0,,,65,80
23880,note_on,12,0,2,,,,,,,,1,,,50,80
23928,note_on,48,0,1,,,,,,,,0,,,65,0
23928,note_on,48,0,2,,,,,,,,1,,,50,0
23940,note_on,12,0,1,,,,,,,,0,,,62,80
23940,note_on,12,0,2,,,,,,,,1,,,46,80
23988,note_on,48,0,1,,,,,,,,0,,,62,0
23988,note_on,48,0,2,,,,,,,,1,,,46,0
24000,note_on,0,0,1,,,,,,,,0,,,72,80
24000,note_on,12,0,1,,,,,,,,0,,,67,80
24000,note_on,12,0,2,,,,,,,,1,,,51,80
24048,note_on,0,0,1,,,,,,,,0,,,67,0
24048,note_on,48,0,1,,,,,,,,0,,,72,0
24048,note_on,48,0,2,,,,,,,,1,,,51,0
24060,note_on,12,0,1,,,,,,,,0,,,65,80
24060,note_on,12,0,2,,,,,,,,1,,,50,80
24108,note_on,48,0,1,,,,,,,,0,,,65,0
24108,note_on,48,0,2,,,,,,,,1,,,50,0
24120,note_on,12,0,2,,,,,,,,1,,,51,80
24120,note_on,12,0,1,,,,,,,,0,,,67,80
24168,note_on,48,0,2,,,,,,,,1,,,51,0
24168,note_on,48,0,1,,,,,,,,0,,,67,0
24180,note_on,12,0,2,,,,,,,,1,,,48,80
24180,note_on,12,0,1,,,,,,,,0,,,63,80
24228,note_on,48,0,2,,,,,,,,1,,,48,0
24228,note_on,48,0,1,,,,,,,,0,,,63,0
24240,note_on,12,0,2,,,,,,,,1,,,53,80
24240,note_on,0,0,1,,,,,,,,0,,,74,80
24240,note_on,12,0,1,,,,,,,,0,,,69,80
24288,note_on,48,0,1,,,,,,,,0,,,74,0
24288,note_on,48,0,2,,,,,,,,1,,,53,0
24288,note_on,0,0,1,,,,,,,,0,,,69,0
24300,note_on,12,0,2,,,,,,,,1,,,51,80
24300,note_on,12,0,1,,,,,,,,0,,,67,80
24348,note_on,48,0,2,,,,,,,,1,,,51,0
24348,note_on,48,0,1,,,,,,,,0,,,67,0
24360,note_on,12,0,1,,,,,,,,0,,,69,80
24360,note_on,12,0,2,,,,,,,,1,,,53,80
24408,note_on,48,0,2,,,,,,,,1,,,53,0
24408,note_on,48,0,1,,,,,,,,0,,,69,0
24420,note_on,12,0,2,,,,,,,,1,,,50,80
24420,note_on,12,0,1,,,,,,,,0,,,65,80
24468,note_on,48,0,2,,,,,,,,1,,,50,0
24468,note_on,48,0,1,,,,,,,,0,,,65,0
24480,note_on,12,0,1,,,,,,,,0,,,75,80
24480,note_on,0,0,1,,,,,,,,0,,,70,80
24480,note_on,12,0,2,,,,,,,,1,,,55,80
24528,note_on,48,0,2,,,,,,,,1,,,55,0
24528,note_on,48,0,1,,,,,,,,0,,,70,0
24528,note_on,0,0,1,,,,,,,,0,,,75,0
24540,note_on,12,0,1,,,,,,,,0,,,69,80
24540,note_on,12,0,2,,,,,,,,1,,,53,80
24588,note_on,48,0,1,,,,,,,,0,,,69,0
24588,note_on,48,0,2,,,,,,,,1,,,53,0
24600,note_on,12,0,1,,,,,,,,0,,,70,80
24600,note_on,12,0,2,,,,,,,,1,,,55,80
24648,note_on,48,0,2,,,,,,,,1,,,55,0
24648,note_on,48,0,1,,,,,,,,0,,,70,0
24660,note_on,12,0,1,,,,,,,,0,,,67,80
24660,note_on,12,0,2,,,,,,,,1,,,51,80
24708,note_on,48,0,1,,,,,,,,0,,,67,0
24708,note_on,48,0,2,,,,,,,,1,,,51,0
24720,note_on,12,0,2,,,,,,,,1,,,57,80
24720,note_on,12,0,1,,,,,,,,0,,,72,80
24768,note_on,48,0,2,,,,,,,,1,,,57,0
24768,note_on,48,0,1,,,,,,,,0,,,72,0
24780,note_on,12,0,2,,,,,,,,1,,,55,80
24780,note_on,12,0,1,,,,,,,,0,,,70,80
24828,note_on,48,0,2,,,,,,,,1,,,55,0
24828,note_on,48,0,1,,,,,,,,0,,,70,0
24840,note_on,12,0,2,,,,,,,,1,,,57,80
24840,note_on,12,0,1,,,,,,,,0,,,72,80
24840,note_on,0,0,1,,,,,,,,0,,,75,80
24888,note_on,48,0,2,,,,,,,,1,,,57,0
24888,note_on,0,0,1,,,,,,,,0,,,72,0
24888,note_on,48,0,1,,,,,,,,0,,,75,0
24900,note_on,12,0,1,,,,,,,,0,,,69,80
24900,note_on,12,0,2,,,,,,,,1,,,53,80
24948,note_on,48,0,1,,,,,,,,0,,,69,0
24948,note_on,48,0,2,,,,,,,,1,,,53,0
24960,note_on,0,0,1,,,,,,,,0,,,65,80
24960,note_on,12,0,1,,,,,,,,0,,,74,80
24960,note_on,12,0,2,,,,,,,,1,,,58,80
25008,note_on,48,0,2,,,,,,,,1,,,58,0
25020,note_on,12,0,2,,,,,,,,1,,,57,80
25056,note_on,0,0,1,,,,,,,,0,,,74,0
25056,note_on,96,0,1,,,,,,,,0,,,65,0
25068,note_on,48,0,2,,,,,,,,1,,,57,0
25080,note_on,12,0,2,,,,,,,,1,,,55,80
25080,note_on,24,0,1,,,,,,,,0,,,70,80
25128,note_on,48,0,2,,,,,,,,1,,,55,0
25140,note_on,12,0,2,,,,,,,,1,,,53,80
25176,note_on,96,0,1,,,,,,,,0,,,70,0
25188,note_on,48,0,2,,,,,,,,1,,,53,0
25200,note_on,24,0,1,,,,,,,,0,,,70,80
25200,note_on,0,0,1,,,,,,,,0,,,72,80
25200,note_on,12,0,2,,,,,,,,1,,,51,80
25248,note_on,48,0,2,,,,,,,,1,,,51,0
25260,note_on,12,0,2,,,,,,,,1,,,48,80
25296,note_on,96,0,1,,,,,,,,0,,,72,0
25296,note_on,0,0,1,,,,,,,,0,,,70,0
25308,note_on,48,0,2,,,,,,,,1,,,48,0
25320,note_on,12,0,2,,,,,,,,1,,,53,80
25320,note_on,24,0,1,,,,,,,,0,,,69,80
25368,note_on,48,0,2,,,,,,,,1,,,53,0
25380,note_on,12,0,2,,,,,,,,1,,,51,80
25416,note_on,96,0,1,,,,,,,,0,,,69,0
25428,note_on,48,0,2,,,,,,,,1,,,51,0
25440,note_on,12,0,2,,,,,,,,1,,,50,80
25440,note_on,0,0,1,,,,,,,,0,,,70,80
25440,note_on,24,0,1,,,,,,,,0,,,74,80
25488,note_on,48,0,2,,,,,,,,1,,,50,0
25500,note_on,12,0,2,,,,,,,,1,,,46,80
25536,note_on,96,0,1,,,,,,,,0,,,70,0
25536,note_on,0,0,1,,,,,,,,0,,,74,0
25548,note_on,48,0,2,,,,,,,,1,,,46,0
25560,note_on,24,0,1,,,,,,,,0,,,65,80
25560,note_on,12,0,2,,,,,,,,1,,,58,80
25608,note_on,48,0,2,,,,,,,,1,,,58,0
25620,note_on,12,0,2,,,,,,,,1,,,57,80
25656,note_on,96,0,1,,,,,,,,0,,,65,0
25668,note_on,48,0,2,,,,,,,,1,,,57,0
25680,note_on,24,0,1,,,,,,,,0,,,70,80
25680,note_on,12,0,2,,,,,,,,1,,,55,80
25728,note_on,48,0,2,,,,,,,,1,,,55,0
25740,note_on,12,0,2,,,,,,,,1,,,53,80
25776,note_on,96,0,1,,,,,,,,0,,,70,0
25788,note_on,48,0,2,,,,,,,,1,,,53,0
25800,note_on,12,0,2,,,,,,,,1,,,51,80
25800,note_on,24,0,1,,,,,,,,0,,,74,80
25848,note_on,48,0,2,,,,,,,,1,,,51,0
25860,note_on,12,0,2,,,,,,,,1,,,50,80
25896,note_on,96,0,1,,,,,,,,0,,,74,0
25908,note_on,48,0,2,,,,,,,,1,,,50,0
25920,note_on,12,0,2,,,,,,,,1,,,51,80
25920,note_on,0,0,1,,,,,,,,0,,,63,80
25920,note_on,24,0,1,,,,,,,,0,,,72,80
25968,note_on,48,0,2,,,,,,,,1,,,51,0
25980,note_on,12,0,2,,,,,,,,1,,,48,80
26016,note_on,0,0,1,,,,,,,,0,,,72,0
26016,note_on,96,0,1,,,,,,,,0,,,63,0
26028,note_on,48,0,2,,,,,,,,1,,,48,0
26040,note_on,24,0,1,,,,,,,,0,,,62,80
26040,note_on,12,0,2,,,,,,,,1,,,50,80
26040,note_on,0,0,1,,,,,,,,0,,,70,80
26088,note_on,48,0,2,,,,,,,,1,,,50,0
26100,note_on,12,0,2,,,,,,,,1,,,51,80
26136,note_on,0,0,1,,,,,,,,0,,,62,0
26136,note_on,96,0,1,,,,,,,,0,,,70,0
26148,note_on,48,0,2,,,,,,,,1,,,51,0
26160,note_on,0,0,1,,,,,,,,0,,,60,80
26160,note_on,24,0,1,,,,,,,,0,,,69,80
26160,note_on,12,0,2,,,,,,,,1,,,53,80
26208,note_on,48,0,2,,,,,,,,1,,,53,0
26220,note_on,12,0,2,,,,,,,,1,,,51,80
26256,note_on,0,0,1,,,,,,,,0,,,69,0
26256,note_on,96,0,1,,,,,,,,0,,,60,0
26268,note_on,48,0,2,,,,,,,,1,,,51,0
26280,note_on,24,0,1,,,,,,,,0,,,63,80
26280,note_on,12,0,2,,,,,,,,1,,,53,80
26328,note_on,48,0,2,,,,,,,,1,,,53,0
26340,note_on,12,0,2,,,,,,,,1,,,41,80
26376,note_on,96,0,1,,,,,,,,0,,,63,0
26388,note_on,48,0,2,,,,,,,,1,,,41,0
26400,note_on,0,0,1,,,,,,,,0,,,62,80
26400,note_on,24,0,1,,,,,,,,0,,,65,80
26400,note_on,12,0,2,,,,,,,,1,,,46,80
26400,note_on,0,0,1,,,,,,,,0,,,70,80
26784,note_on,384,0,2,,,,,,,,1,,,46,0
26784,note_on,384,0,1,,,,,,,,0,,,62,0
26784,note_on,0,0,1,,,,,,,,0,,,70,0
26784,note_on,0,0,1,,,,,,,,0,,,65,0
26880,set_tempo,0,1,0,,,,,,413793,,,,,,
26880,note_on,96,0,2,,,,,,,,1,,,58,80
26880,marker,0,1,0,,,,,,,,,,,,
26880,note_on,96,0,1,,,,,,,,0,,,70,80
26880,time_signature,11520,1,0,12,8,12,8,,,,,,,,
26976,note_on,96,0,1,,,,,,,,0,,,70,0
27000,note_on,24,0,1,,,,,,,,0,,,72,80
27096,note_on,96,0,1,,,,,,,,0,,,72,0
27120,note_on,24,0,1,,,,,,,,0,,,74,80
27168,note_on,288,0,2,,,,,,,,1,,,58,0
27216,note_on,96,0,1,,,,,,,,0,,,74,0
27240,note_on,24,0,1,,,,,,,,0,,,72,80
27336,note_on,96,0,1,,,,,,,,0,,,72,0
27360,note_on,24,0,1,,,,,,,,0,,,74,80
27456,note_on,96,0,1,,,,,,,,0,,,74,0
27480,note_on,24,0,1,,,,,,,,0,,,75,80
27480,note_on,312,0,2,,,,,,,,1,,,57,80
27576,note_on,96,0,1,,,,,,,,0,,,75,0
27576,note_on,96,0,2,,,,,,,,1,,,57,0
27600,note_on,0,0,1,,,,,,,,0,,,70,80
27600,note_on,0,0,1,,,,,,,,0,,,74,80
27600,note_on,24,0,2,,,,,,,,1,,,58,80
27600,note_on,24,0,1,,,,,,,,0,,,65,80
27696,note_on,96,0,2,,,,,,,,1,,,58,0
27720,note_on,24,0,2,,,,,,,,1,,,60,80
27816,note_on,96,0,2,,,,,,,,1,,,60,0
27840,note_on,24,0,2,,,,,,,,1,,,62,80
27888,note_on,288,0,1,,,,,,,,0,,,74,0
27888,note_on,0,0,1,,,,,,,,0,,,65,0
27888,note_on,0,0,1,,,,,,,,0,,,70,0
27936,note_on,96,0,2,,,,,,,,1,,,62,0
27960,note_on,24,0,2,,,,,,,,1,,,60,80
28056,note_on,96,0,2,,,,,,,,1,,,60,0
28080,note_on,24,0,2,,,,,,,,1,,,62,80
28176,note_on,96,0,2,,,,,,,,1,,,62,0
28200,note_on,312,0,1,,,,,,,,0,,,69,80
28200,note_on,24,0,2,,,,,,,,1,,,63,80
28296,note_on,96,0,2,,,,,,,,1,,,63,0
28296,note_on,96,0,1,,,,,,,,0,,,69,0
28320,note_on,24,0,1,,,,,,,,0,,,70,80
28320,note_on,24,0,2,,,,,,,,1,,,65,80
28320,note_on,0,0,2,,,,,,,,1,,,62,80
28416,note_on,96,0,1,,,,,,,,0,,,70,0
28440,note_on,24,0,1,,,,,,,,0,,,72,80
28536,note_on,96,0,1,,,,,,,,0,,,72,0
28560,note_on,24,0,1,,,,,,,,0,,,74,80
28608,note_on,0,0,2,,,,,,,,1,,,65,0
28608,note_on,288,0,2,,,,,,,,1,,,62,0
28656,note_on,96,0,1,,,,,,,,0,,,74,0
28680,note_on,24,0,1,,,,,,,,0,,,72,80
28776,note_on,96,0,1,,,,,,,,0,,,72,0
28800,note_on,24,0,1,,,,,,,,0,,,74,80
28896,note_on,96,0,1,,,,,,,,0,,,74,0
28920,note_on,24,0,1,,,,,,,,0,,,75,80
28920,note_on,312,0,2,,,,,,,,1,,,57,80
29016,note_on,96,0,1,,,,,,,,0,,,75,0
29016,note_on,96,0,2,,,,,,,,1,,,57,0
29040,note_on,24,0,1,,,,,,,,0,,,70,80
29040,note_on,0,0,1,,,,,,,,0,,,74,80
29040,note_on,0,0,1,,,,,,,,0,,,65,80
29040,note_on,24,0,2,,,,,,,,1,,,58,80
29136,note_on,96,0,2,,,,,,,,1,,,58,0
29160,note_on,24,0,2,,,,,,,,1,,,60,80
29256,note_on,96,0,2,,,,,,,,1,,,60,0
29280,note_on,24,0,2,,,,,,,,1,,,62,80
29328,note_on,0,0,1,,,,,,,,0,,,70,0
29328,note_on,0,0,1,,,,,,,,0,,,74,0
29328,note_on,288,0,1,,,,,,,,0,,,65,0
29376,note_on,96,0,2,,,,,,,,1,,,62,0
29400,note_on,24,0,2,,,,,,,,1,,,60,80
29496,note_on,96,0,2,,,,,,,,1,,,60,0
29520,note_on,24,0,2,,,,,,,,1,,,62,80
29616,note_on,96,0,2,,,,,,,,1,,,62,0
29640,note_on,312,0,1,,,,,,,,0,,,69,80
29640,note_on,24,0,2,,,,,,,,1,,,63,80
29736,note_on,96,0,1,,,,,,,,0,,,69,0
29736,note_on,96,0,2,,,,,,,,1,,,63,0
29760,note_on,24,0,1,,,,,,,,0,,,70,80
29760,note_on,24,0,2,,,,,,,,1,,,62,80
29856,note_on,96,0,2,,,,,,,,1,,,62,0
29856,note_on,96,0,1,,,,,,,,0,,,70,0
29880,note_on,24,0,2,,,,,,,,1,,,63,80
29880,note_on,24,0,1,,,,,,,,0,,,72,80
29976,note_on,96,0,1,,,,,,,,0,,,72,0
29976,note_on,96,0,2,,,,,,,,1,,,63,0
30000,note_on,24,0,1,,,,,,,,0,,,74,80
30000,note_on,24,0,2,,,,,,,,1,,,65,80
30096,note_on,96,0,2,,,,,,,,1,,,65,0
30096,note_on,96,0,1,,,,,,,,0,,,74,0
30120,note_on,24,0,2,,,,,,,,1,,,57,80
30120,note_on,24,0,1,,,,,,,,0,,,72,80
30216,note_on,96,0,1,,,,,,,,0,,,72,0
30216,note_on,96,0,2,,,,,,,,1,,,57,0
30240,note_on,24,0,1,,,,,,,,0,,,74,80
30240,note_on,24,0,2,,,,,,,,1,,,58,80
30336,note_on,96,0,2,,,,,,,,1,,,58,0
30336,note_on,96,0,1,,,,,,,,0,,,74,0
30360,note_on,24,0,1,,,,,,,,0,,,75,80
30360,note_on,24,0,2,,,,,,,,1,,,60,80
30456,note_on,96,0,1,,,,,,,,0,,,75,0
30456,note_on,96,0,2,,,,,,,,1,,,60,0
30480,note_on,24,0,1,,,,,,,,0,,,74,80
30480,note_on,24,0,2,,,,,,,,1,,,58,80
30576,note_on,96,0,1,,,,,,,,0,,,74,0
30576,note_on,96,0,2,,,,,,,,1,,,58,0
30600,note_on,24,0,1,,,,,,,,0,,,75,80
30600,note_on,24,0,2,,,,,,,,1,,,60,80
30696,note_on,96,0,1,,,,,,,,0,,,75,0
30696,note_on,96,0,2,,,,,,,,1,,,60,0
30720,note_on,24,0,1,,,,,,,,0,,,77,80
30720,note_on,24,0,2,,,,,,,,1,,,62,80
30816,note_on,96,0,1,,,,,,,,0,,,77,0
30816,note_on,96,0,2,,,,,,,,1,,,62,0
30840,note_on,24,0,1,,,,,,,,0,,,75,80
30840,note_on,24,0,2,,,,,,,,1,,,60,80
30936,note_on,96,0,1,,,,,,,,0,,,75,0
30936,note_on,96,0,2,,,,,,,,1,,,60,0
30960,note_on,24,0,1,,,,,,,,0,,,77,80
30960,note_on,24,0,2,,,,,,,,1,,,62,80
31056,note_on,96,0,1,,,,,,,,0,,,77,0
31056,note_on,96,0,2,,,,,,,,1,,,62,0
31080,note_on,24,0,1,,,,,,,,0,,,79,80
31080,note_on,24,0,2,,,,,,,,1,,,63,80
31176,note_on,96,0,1,,,,,,,,0,,,79,0
31176,note_on,96,0,2,,,,,,,,1,,,63,0
31200,note_on,24,0,1,,,,,,,,0,,,77,80
31200,note_on,24,0,2,,,,,,,,1,,,62,80
31296,note_on,96,0,1,,,,,,,,0,,,77,0
31296,note_on,96,0,2,,,,,,,,1,,,62,0
31320,note_on,24,0,1,,,,,,,,0,,,75,80
31320,note_on,24,0,2,,,,,,,,1,,,60,80
31416,note_on,96,0,1,,,,,,,,0,,,75,0
31416,note_on,96,0,2,,,,,,,,1,,,60,0
31440,note_on,24,0,2,,,,,,,,1,,,58,80
31440,note_on,24,0,1,,,,,,,,0,,,74,80
31536,note_on,96,0,2,,,,,,,,1,,,58,0
31536,note_on,96,0,1,,,,,,,,0,,,74,0
31560,note_on,24,0,1,,,,,,,,0,,,77,80
31560,note_on,24,0,2,,,,,,,,1,,,62,80
31656,note_on,96,0,2,,,,,,,,1,,,62,0
31656,note_on,96,0,1,,,,,,,,0,,,77,0
31680,note_on,24,0,2,,,,,,,,1,,,60,80
31680,note_on,24,0,1,,,,,,,,0,,,75,80
31776,note_on,96,0,2,,,,,,,,1,,,60,0
31776,note_on,96,0,1,,,,,,,,0,,,75,0
31800,note_on,24,0,2,,,,,,,,1,,,58,80
31800,note_on,24,0,1,,,,,,,,0,,,74,80
31896,note_on,96,0,1,,,,,,,,0,,,74,0
31896,note_on,96,0,2,,,,,,,,1,,,58,0
31920,note_on,24,0,1,,,,,,,,0,,,72,80
31920,note_on,24,0,2,,,,,,,,1,,,65,80
31920,note_on,0,0,1,,,,,,,,0,,,69,80
32016,note_on,96,0,2,,,,,,,,1,,,65,0
32040,note_on,24,0,2,,,,,,,,1,,,60,80
32136,note_on,96,0,2,,,,,,,,1,,,60,0
32160,note_on,24,0,2,,,,,,,,1,,,57,80
32208,note_on,288,0,1,,,,,,,,0,,,69,0
32208,note_on,0,0,1,,,,,,,,0,,,72,0
32256,note_on,96,0,2,,,,,,,,1,,,57,0
32280,note_on,24,0,2,,,,,,,,1,,,53,80
32376,note_on,96,0,2,,,,,,,,1,,,53,0
32400,note_on,24,0,2,,,,,,,,1,,,48,80
32496,note_on,96,0,2,,,,,,,,1,,,48,0
32520,note_on,24,0,2,,,,,,,,1,,,41,80
32616,note_on,96,0,2,,,,,,,,1,,,41,0
32640,note_on,432,0,1,,,,,,,,0,,,72,80
32640,note_on,0,0,2,,,,,,,,1,,,57,80
32640,note_on,24,0,2,,,,,,,,1,,,53,80
32736,note_on,96,0,1,,,,,,,,0,,,72,0
32760,note_on,24,0,1,,,,,,,,0,,,69,80
32856,note_on,96,0,1,,,,,,,,0,,,69,0
32880,note_on,24,0,1,,,,,,,,0,,,65,80
32928,note_on,0,0,2,,,,,,,,1,,,53,0
32928,note_on,288,0,2,,,,,,,,1,,,57,0
32976,note_on,96,0,1,,,,,,,,0,,,65,0
33000,note_on,72,0,2,,,,,,,,1,,,58,80
33000,note_on,24,0,1,,,,,,,,0,,,74,80
33000,note_on,0,0,2,,,,,,,,1,,,46,80
33096,note_on,96,0,1,,,,,,,,0,,,74,0
33120,note_on,24,0,1,,,,,,,,0,,,70,80
33216,note_on,96,0,1,,,,,,,,0,,,70,0
33240,note_on,24,0,1,,,,,,,,0,,,65,80
33288,note_on,288,0,2,,,,,,,,1,,,46,0
33288,note_on,0,0,2,,,,,,,,1,,,58,0
33336,note_on,96,0,1,,,,,,,,0,,,65,0
33360,note_on,24,0,1,,,,,,,,0,,,69,80
33360,note_on,0,0,2,,,,,,,,1,,,60,80
33360,note_on,72,0,2,,,,,,,,1,,,53,80
33552,note_on,192,0,1,,,,,,,,0,,,69,0
33552,note_on,0,0,2,,,,,,,,1,,,53,0
33552,note_on,192,0,2,,,,,,,,1,,,60,0
33600,note_on,48,0,1,,,,,,,,0,,,67,80
33600,note_on,48,0,2,,,,,,,,1,,,51,80
33696,note_on,96,0,2,,,,,,,,1,,,51,0
33696,note_on,96,0,1,,,,,,,,0,,,67,0
33720,note_on,24,0,2,,,,,,,,1,,,50,80
33720,note_on,24,0,1,,,,,,,,0,,,65,80
33816,note_on,96,0,2,,,,,,,,1,,,50,0
33816,note_on,96,0,1,,,,,,,,0,,,65,0
33840,note_on,24,0,2,,,,,,,,1,,,53,80
33840,note_on,24,0,1,,,,,,,,0,,,70,80
33936,note_on,96,0,2,,,,,,,,1,,,53,0
33936,note_on,96,0,1,,,,,,,,0,,,70,0
33960,note_on,24,0,2,,,,,,,,1,,,58,80
33960,note_on,24,0,1,,,,,,,,0,,,69,80
34056,note_on,96,0,1,,,,,,,,0,,,69,0
34056,note_on,96,0,2,,,,,,,,1,,,58,0
34080,note_on,24,0,1,,,,,,,,0,,,67,80
34080,note_on,24,0,2,,,,,,,,1,,,51,80
34176,note_on,96,0,1,,,,,,,,0,,,67,0
34176,note_on,96,0,2,,,,,,,,1,,,51,0
34200,note_on,24,0,1,,,,,,,,0,,,72,80
34200,note_on,24,0,2,,,,,,,,1,,,55,80
34296,note_on,96,0,2,,,,,,,,1,,,55,0
34296,note_on,96,0,1,,,,,,,,0,,,72,0
34320,note_on,24,0,1,,,,,,,,0,,,70,80
34320,note_on,24,0,2,,,,,,,,1,,,60,80
34416,note_on,96,0,2,,,,,,,,1,,,60,0
34416,note_on,96,0,1,,,,,,,,0,,,70,0
34440,note_on,24,0,2,,,,,,,,1,,,53,80
34440,note_on,24,0,1,,,,,,,,0,,,69,80
34536,note_on,96,0,2,,,,,,,,1,,,53,0
34536,note_on,96,0,1,,,,,,,,0,,,69,0
34560,note_on,24,0,2,,,,,,,,1,,,57,80
34560,note_on,24,0,1,,,,,,,,0,,,74,80
34656,note_on,96,0,2,,,,,,,,1,,,57,0
34656,note_on,96,0,1,,,,,,,,0,,,74,0
34680,note_on,24,0,2,,,,,,,,1,,,62,80
34680,note_on,24,0,1,,,,,,,,0,,,72,80
34776,note_on,96,0,2,,,,,,,,1,,,62,0
34776,note_on,96,0,1,,,,,,,,0,,,72,0
34800,note_on,24,0,2,,,,,,,,1,,,55,80
34800,note_on,24,0,1,,,,,,,,0,,,70,80
34896,note_on,96,0,2,,,,,,,,1,,,55,0
34896,note_on,96,0,1,,,,,,,,0,,,70,0
34920,note_on,24,0,1,,,,,,,,0,,,75,80
34920,note_on,24,0,2,,,,,,,,1,,,58,80
35016,note_on,96,0,2,,,,,,,,1,,,58,0
35016,note_on,96,0,1,,,,,,,,0,,,75,0
35040,note_on,24,0,1,,,,,,,,0,,,74,80
35040,note_on,24,0,2,,,,,,,,1,,,63,80
35136,note_on,96,0,1,,,,,,,,0,,,74,0
35136,note_on,96,0,2,,,,,,,,1,,,63,0
35160,note_on,24,0,1,,,,,,,,0,,,72,80
35160,note_on,24,0,2,,,,,,,,1,,,57,80
35256,note_on,96,0,2,,,,,,,,1,,,57,0
35256,note_on,96,0,1,,,,,,,,0,,,72,0
35280,note_on,24,0,2,,,,,,,,1,,,60,80
35280,note_on,24,0,1,,,,,,,,0,,,77,80
35376,note_on,96,0,2,,,,,,,,1,,,60,0
35376,note_on,96,0,1,,,,,,,,0,,,77,0
35400,note_on,24,0,1,,,,,,,,0,,,75,80
35400,note_on,24,0,2,,,,,,,,1,,,65,80
35496,note_on,96,0,2,,,,,,,,1,,,65,0
35496,note_on,96,0,1,,,,,,,,0,,,75,0
35520,note_on,24,0,1,,,,,,,,0,,,74,80
35520,note_on,24,0,2,,,,,,,,1,,,58,80
35616,note_on,96,0,1,,,,,,,,0,,,74,0
35616,note_on,96,0,2,,,,,,,,1,,,58,0
35640,note_on,24,0,1,,,,,,,,0,,,82,80
35640,note_on,24,0,2,,,,,,,,1,,,62,80
35736,note_on,96,0,1,,,,,,,,0,,,82,0
35736,note_on,96,0,2,,,,,,,,1,,,62,0
35760,note_on,24,0,1,,,,,,,,0,,,74,80
35760,note_on,24,0,2,,,,,,,,1,,,58,80
35856,note_on,96,0,1,,,,,,,,0,,,74,0
35856,note_on,96,0,2,,,,,,,,1,,,58,0
35880,note_on,24,0,1,,,,,,,,0,,,72,80
35880,note_on,24,0,2,,,,,,,,1,,,53,80
35976,note_on,96,0,1,,,,,,,,0,,,72,0
35976,note_on,96,0,2,,,,,,,,1,,,53,0
36000,note_on,24,0,2,,,,,,,,1,,,57,80
36000,note_on,24,0,1,,,,,,,,0,,,81,80
36096,note_on,96,0,1,,,,,,,,0,,,81,0
36096,note_on,96,0,2,,,,,,,,1,,,57,0
36120,note_on,24,0,2,,,,,,,,1,,,53,80
36120,note_on,24,0,1,,,,,,,,0,,,72,80
36216,note_on,96,0,2,,,,,,,,1,,,53,0
36216,note_on,96,0,1,,,,,,,,0,,,72,0
36240,note_on,24,0,2,,,,,,,,1,,,55,80
36240,note_on,24,0,1,,,,,,,,0,,,70,80
36336,note_on,96,0,1,,,,,,,,0,,,70,0
36336,note_on,96,0,2,,,,,,,,1,,,55,0
36360,note_on,24,0,1,,,,,,,,0,,,79,80
36360,note_on,24,0,2,,,,,,,,1,,,58,80
36456,note_on,96,0,1,,,,,,,,0,,,79,0
36456,note_on,96,0,2,,,,,,,,1,,,58,0
36480,note_on,24,0,2,,,,,,,,1,,,55,80
36480,note_on,24,0,1,,,,,,,,0,,,70,80
36576,note_on,96,0,2,,,,,,,,1,,,55,0
36576,note_on,96,0,1,,,,,,,,0,,,70,0
36600,note_on,24,0,1,,,,,,,,0,,,69,80
36600,note_on,24,0,2,,,,,,,,1,,,50,80
36696,note_on,96,0,2,,,,,,,,1,,,50,0
36696,note_on,96,0,1,,,,,,,,0,,,69,0
36720,note_on,24,0,1,,,,,,,,0,,,77,80
36720,note_on,24,0,2,,,,,,,,1,,,58,80
36816,note_on,96,0,1,,,,,,,,0,,,77,0
36816,note_on,96,0,2,,,,,,,,1,,,58,0
36840,note_on,24,0,1,,,,,,,,0,,,75,80
36840,note_on,24,0,2,,,,,,,,1,,,51,80
36936,note_on,96,0,1,,,,,,,,0,,,75,0
36936,note_on,96,0,2,,,,,,,,1,,,51,0
36960,note_on,24,0,2,,,,,,,,1,,,53,80
36960,note_on,24,0,1,,,,,,,,0,,,74,80
37056,note_on,96,0,1,,,,,,,,0,,,74,0
37080,note_on,24,0,1,,,,,,,,0,,,72,80
37176,note_on,96,0,1,,,,,,,,0,,,72,0
37200,note_on,24,0,1,,,,,,,,0,,,70,80
37248,note_on,288,0,2,,,,,,,,1,,,53,0
37296,note_on,96,0,1,,,,,,,,0,,,70,0
37320,note_on,72,0,2,,,,,,,,1,,,41,80
37320,note_on,24,0,1,,,,,,,,0,,,65,80
37416,note_on,96,0,1,,,,,,,,0,,,65,0
37440,note_on,24,0,1,,,,,,,,0,,,70,80
37536,note_on,96,0,1,,,,,,,,0,,,70,0
37560,note_on,24,0,1,,,,,,,,0,,,69,80
37608,note_on,288,0,2,,,,,,,,1,,,41,0
37656,note_on,96,0,1,,,,,,,,0,,,69,0
37680,note_on,72,0,2,,,,,,,,1,,,46,80
37680,note_on,0,0,2,,,,,,,,1,,,34,80
37680,note_on,24,0,1,,,,,,,,0,,,70,80
37776,note_on,96,0,1,,,,,,,,0,,,70,0
37800,note_on,24,0,1,,,,,,,,0,,,65,80
37896,note_on,96,0,1,,,,,,,,0,,,65,0
37920,note_on,24,0,1,,,,,,,,0,,,62,80
37968,note_on,0,0,2,,,,,,,,1,,,46,0
37968,note_on,288,0,2,,,,,,,,1,,,34,0
38016,note_on,96,0,1,,,,,,,,0,,,62,0
38040,note_on,24,0,1,,,,,,,,0,,,58,80
38136,note_on,96,0,1,,,,,,,,0,,,58,0
38160,note_on,192,0,2,,,,,,,,1,,,53,80
38256,note_on,96,0,2,,,,,,,,1,,,53,0
38280,note_on,24,0,2,,,,,,,,1,,,46,80
38376,note_on,96,0,2,,,,,,,,1,,,46,0
38400,set_tempo,11520,1,0,,,,,,352941,,,,,,
38400,note_on,24,0,2,,,,,,,,1,,,62,80
38400,note_on,0,0,1,,,,,,,,0,,,70,80
38400,note_on,264,0,1,,,,,,,,0,,,65,80
38400,marker,0,1,0,,,,,,,,,,,,
38496,note_on,96,0,2,,,,,,,,1,,,62,0
38520,note_on,24,0,2,,,,,,,,1,,,60,80
38616,note_on,96,0,2,,,,,,,,1,,,60,0
38640,note_on,24,0,2,,,,,,,,1,,,58,80
38688,note_on,0,0,1,,,,,,,,0,,,65,0
38688,note_on,288,0,1,,,,,,,,0,,,70,0
38736,note_on,96,0,2,,,,,,,,1,,,58,0
38760,note_on,0,0,1,,,,,,,,0,,,72,80
38760,note_on,72,0,1,,,,,,,,0,,,65,80
38760,note_on,24,0,2,,,,,,,,1,,,57,80
38856,note_on,96,0,2,,,,,,,,1,,,57,0
38880,note_on,24,0,2,,,,,,,,1,,,55,80
38976,note_on,96,0,2,,,,,,,,1,,,55,0
39000,note_on,24,0,2,,,,,,,,1,,,53,80
39048,note_on,0,0,1,,,,,,,,0,,,65,0
39048,note_on,288,0,1,,,,,,,,0,,,72,0
39096,note_on,96,0,2,,,,,,,,1,,,53,0
39120,note_on,0,0,1,,,,,,,,0,,,74,80
39120,note_on,0,0,1,,,,,,,,0,,,65,80
39120,note_on,72,0,1,,,,,,,,0,,,70,80
39120,note_on,24,0,2,,,,,,,,1,,,62,80
39216,note_on,96,0,2,,,,,,,,1,,,62,0
39240,note_on,24,0,2,,,,,,,,1,,,60,80
39336,note_on,96,0,2,,,,,,,,1,,,60,0
39360,note_on,24,0,2,,,,,,,,1,,,58,80
39408,note_on,288,0,1,,,,,,,,0,,,74,0
39408,note_on,0,0,1,,,,,,,,0,,,65,0
39408,note_on,0,0,1,,,,,,,,0,,,70,0
39456,note_on,96,0,2,,,,,,,,1,,,58,0
39480,note_on,24,0,2,,,,,,,,1,,,57,80
39576,note_on,96,0,2,,,,,,,,1,,,57,0
39600,note_on,24,0,2,,,,,,,,1,,,55,80
39696,note_on,96,0,2,,,,,,,,1,,,55,0
39720,note_on,24,0,2,,,,,,,,1,,,53,80
39720,note_on,312,0,1,,,,,,,,0,,,75,80
39720,note_on,0,0,1,,,,,,,,0,,,69,80
39816,note_on,96,0,2,,,,,,,,1,,,53,0
39816,note_on,96,0,1,,,,,,,,0,,,69,0
39816,note_on,0,0,1,,,,,,,,0,,,75,0
39840,note_on,24,0,1,,,,,,,,0,,,74,80
39840,note_on,24,0,2,,,,,,,,1,,,58,80
39936,note_on,96,0,2,,,,,,,,1,,,58,0
39936,note_on,96,0,1,,,,,,,,0,,,74,0
39960,note_on,24,0,1,,,,,,,,0,,,72,80
39960,note_on,24,0,2,,,,,,,,1,,,60,80
40056,note_on,96,0,2,,,,,,,,1,,,60,0
40056,note_on,96,0,1,,,,,,,,0,,,72,0
40080,note_on,24,0,2,,,,,,,,1,,,62,80
40080,note_on,24,0,1,,,,,,,,0,,,70,80
40176,note_on,96,0,2,,,,,,,,1,,,62,0
40176,note_on,96,0,1,,,,,,,,0,,,70,0
40200,note_on,24,0,1,,,,,,,,0,,,69,80
40200,note_on,24,0,2,,,,,,,,1,,,60,80
40296,note_on,96,0,2,,,,,,,,1,,,60,0
40296,note_on,96,0,1,,,,,,,,0,,,69,0
40320,note_on,24,0,2,,,,,,,,1,,,62,80
40320,note_on,24,0,1,,,,,,,,0,,,70,80
40416,note_on,96,0,2,,,,,,,,1,,,62,0
40416,note_on,96,0,1,,,,,,,,0,,,70,0
40440,note_on,24,0,1,,,,,,,,0,,,72,80
40440,note_on,24,0,2,,,,,,,,1,,,63,80
40536,note_on,96,0,1,,,,,,,,0,,,72,0
40536,note_on,96,0,2,,,,,,,,1,,,63,0
40560,note_on,0,0,1,,,,,,,,0,,,65,80
40560,note_on,0,0,1,,,,,,,,0,,,74,80
40560,note_on,24,0,1,,,,,,,,0,,,70,80
40560,note_on,24,0,2,,,,,,,,1,,,62,80
40656,note_on,96,0,2,,,,,,,,1,,,62,0
40680,note_on,24,0,2,,,,,,,,1,,,60,80
40776,note_on,96,0,2,,,,,,,,1,,,60,0
40800,note_on,24,0,2,,,,,,,,1,,,58,80
40848,note_on,288,0,1,,,,,,,,0,,,65,0
40848,note_on,0,0,1,,,,,,,,0,,,74,0
40848,note_on,0,0,1,,,,,,,,0,,,70,0
40896,note_on,96,0,2,,,,,,,,1,,,58,0
40920,note_on,24,0,2,,,,,,,,1,,,57,80
41016,note_on,96,0,2,,,,,,,,1,,,57,0
41040,note_on,24,0,2,,,,,,,,1,,,55,80
41136,note_on,96,0,2,,,,,,,,1,,,55,0
41160,note_on,24,0,2,,,,,,,,1,,,53,80
41160,note_on,0,0,1,,,,,,,,0,,,69,80
41160,note_on,312,0,1,,,,,,,,0,,,75,80
41256,note_on,0,0,1,,,,,,,,0,,,75,0
41256,note_on,96,0,2,,,,,,,,1,,,53,0
41256,note_on,96,0,1,,,,,,,,0,,,69,0
41280,note_on,0,0,1,,,,,,,,0,,,74,80
41280,note_on,24,0,2,,,,,,,,1,,,58,80
41280,note_on,24,0,1,,,,,,,,0,,,67,80
41376,note_on,0,0,1,,,,,,,,0,,,67,0
41376,note_on,96,0,1,,,,,,,,0,,,74,0
41376,note_on,96,0,2,,,,,,,,1,,,58,0
41400,note_on,24,0,2,,,,,,,,1,,,60,80
41400,note_on,24,0,1,,,,,,,,0,,,72,80
41496,note_on,96,0,2,,,,,,,,1,,,60,0
41496,note_on,96,0,1,,,,,,,,0,,,72,0
41520,note_on,24,0,1,,,,,,,,0,,,70,80
41520,note_on,24,0,2,,,,,,,,1,,,62,80
41616,note_on,96,0,2,,,,,,,,1,,,62,0
41616,note_on,96,0,1,,,,,,,,0,,,70,0
41640,note_on,24,0,2,,,,,,,,1,,,60,80
41640,note_on,24,0,1,,,,,,,,0,,,69,80
41640,note_on,0,0,1,,,,,,,,0,,,75,80
41736,note_on,0,0,1,,,,,,,,0,,,69,0
41736,note_on,96,0,1,,,,,,,,0,,,75,0
41736,note_on,96,0,2,,,,,,,,1,,,60,0
41760,note_on,24,0,2,,,,,,,,1,,,62,80
41760,note_on,24,0,1,,,,,,,,0,,,74,80
41856,note_on,96,0,1,,,,,,,,0,,,74,0
41856,note_on,96,0,2,,,,,,,,1,,,62,0
41880,note_on,24,0,1,,,,,,,,0,,,72,80
41880,note_on,24,0,2,,,,,,,,1,,,63,80
41976,note_on,96,0,1,,,,,,,,0,,,72,0
41976,note_on,96,0,2,,,,,,,,1,,,63,0
42000,note_on,24,0,1,,,,,,,,0,,,77,80
42000,note_on,0,0,1,,,,,,,,0,,,70,80
42000,note_on,24,0,2,,,,,,,,1,,,62,80
42096,note_on,96,0,1,,,,,,,,0,,,70,0
42096,note_on,96,0,2,,,,,,,,1,,,62,0
42096,note_on,0,0,1,,,,,,,,0,,,77,0
42120,note_on,24,0,2,,,,,,,,1,,,60,80
42120,note_on,24,0,1,,,,,,,,0,,,75,80
42216,note_on,96,0,1,,,,,,,,0,,,75,0
42216,note_on,96,0,2,,,,,,,,1,,,60,0
42240,note_on,24,0,2,,,,,,,,1,,,58,80
42240,note_on,24,0,1,,,,,,,,0,,,74,80
42336,note_on,96,0,2,,,,,,,,1,,,58,0
42336,note_on,96,0,1,,,,,,,,0,,,74,0
42360,note_on,24,0,2,,,,,,,,1,,,63,80
42360,note_on,0,0,1,,,,,,,,0,,,72,80
42360,note_on,24,0,1,,,,,,,,0,,,79,80
42456,note_on,96,0,2,,,,,,,,1,,,63,0
42456,note_on,96,0,1,,,,,,,,0,,,72,0
42456,note_on,0,0,1,,,,,,,,0,,,79,0
42480,note_on,24,0,1,,,,,,,,0,,,77,80
42480,note_on,24,0,2,,,,,,,,1,,,62,80
42576,note_on,96,0,1,,,,,,,,0,,,77,0
42576,note_on,96,0,2,,,,,,,,1,,,62,0
42600,note_on,24,0,2,,,,,,,,1,,,60,80
42600,note_on,24,0,1,,,,,,,,0,,,75,80
42696,note_on,96,0,2,,,,,,,,1,,,60,0
42696,note_on,96,0,1,,,,,,,,0,,,75,0
42720,note_on,24,0,1,,,,,,,,0,,,77,80
42720,note_on,24,0,2,,,,,,,,1,,,62,80
42720,note_on,0,0,1,,,,,,,,0,,,65,80
42816,note_on,96,0,2,,,,,,,,1,,,62,0
42816,note_on,0,0,1,,,,,,,,0,,,77,0
42816,note_on,96,0,1,,,,,,,,0,,,65,0
42840,note_on,24,0,2,,,,,,,,1,,,60,80
42840,note_on,24,0,1,,,,,,,,0,,,75,80
42936,note_on,96,0,1,,,,,,,,0,,,75,0
42936,note_on,96,0,2,,,,,,,,1,,,60,0
42960,note_on,24,0,1,,,,,,,,0,,,74,80
42960,note_on,24,0,2,,,,,,,,1,,,58,80
43056,note_on,96,0,1,,,,,,,,0,,,74,0
43056,note_on,96,0,2,,,,,,,,1,,,58,0
43080,note_on,24,0,1,,,,,,,,0,,,77,80
43080,note_on,0,0,1,,,,,,,,0,,,70,80
43080,note_on,24,0,2,,,,,,,,1,,,62,80
43176,note_on,96,0,1,,,,,,,,0,,,70,0
43176,note_on,0,0,1,,,,,,,,0,,,77,0
43176,note_on,96,0,2,,,,,,,,1,,,62,0
43200,note_on,24,0,1,,,,,,,,0,,,75,80
43200,note_on,24,0,2,,,,,,,,1,,,60,80
43296,note_on,96,0,1,,,,,,,,0,,,75,0
43296,note_on,96,0,2,,,,,,,,1,,,60,0
43320,note_on,24,0,1,,,,,,,,0,,,74,80
43320,note_on,24,0,2,,,,,,,,1,,,58,80
43416,note_on,96,0,1,,,,,,,,0,,,74,0
43416,note_on,96,0,2,,,,,,,,1,,,58,0
43440,note_on,24,0,1,,,,,,,,0,,,72,80
43440,note_on,0,0,1,,,,,,,,0,,,69,80
43440,note_on,24,0,2,,,,,,,,1,,,65,80
43536,note_on,96,0,2,,,,,,,,1,,,65,0
43560,note_on,24,0,2,,,,,,,,1,,,60,80
43656,note_on,96,0,2,,,,,,,,1,,,60,0
43680,note_on,24,0,2,,,,,,,,1,,,57,80
43776,note_on,96,0,2,,,,,,,,1,,,57,0
43800,note_on,24,0,2,,,,,,,,1,,,53,80
43896,note_on,96,0,2,,,,,,,,1,,,53,0
43920,note_on,24,0,2,,,,,,,,1,,,48,80
44016,note_on,96,0,2,,,,,,,,1,,,48,0
44016,note_on,0,0,1,,,,,,,,0,,,72,0
44016,note_on,576,0,1,,,,,,,,0,,,69,0
44040,note_on,24,0,2,,,,,,,,1,,,41,80
44136,note_on,96,0,2,,,,,,,,1,,,41,0
44160,note_on,144,0,1,,,,,,,,0,,,69,80
44160,note_on,0,0,1,,,,,,,,0,,,72,80
44160,note_on,24,0,2,,,,,,,,1,,,65,80
44256,note_on,96,0,2,,,,,,,,1,,,65,0
44280,note_on,24,0,2,,,,,,,,1,,,60,80
44376,note_on,96,0,2,,,,,,,,1,,,60,0
44400,note_on,24,0,2,,,,,,,,1,,,57,80
44448,note_on,288,0,1,,,,,,,,0,,,72,0
44448,note_on,0,0,1,,,,,,,,0,,,69,0
44496,note_on,96,0,2,,,,,,,,1,,,57,0
44520,note_on,24,0,2,,,,,,,,1,,,53,80
44616,note_on,96,0,2,,,,,,,,1,,,53,0
44640,note_on,24,0,2,,,,,,,,1,,,48,80
44736,note_on,96,0,2,,,,,,,,1,,,48,0
44760,note_on,24,0,2,,,,,,,,1,,,41,80
44760,note_on,312,0,1,,,,,,,,0,,,74,80
44856,note_on,96,0,2,,,,,,,,1,,,41,0
44856,note_on,96,0,1,,,,,,,,0,,,74,0
44880,note_on,24,0,2,,,,,,,,1,,,65,80
44880,note_on,24,0,1,,,,,,,,0,,,69,80
44976,note_on,96,0,2,,,,,,,,1,,,65,0
45000,note_on,24,0,2,,,,,,,,1,,,60,80
45096,note_on,96,0,2,,,,,,,,1,,,60,0
45120,note_on,24,0,2,,,,,,,,1,,,57,80
45168,note_on,288,0,1,,,,,,,,0,,,69,0
45216,note_on,96,0,2,,,,,,,,1,,,57,0
45240,note_on,24,0,2,,,,,,,,1,,,53,80
45336,note_on,96,0,2,,,,,,,,1,,,53,0
45360,note_on,24,0,2,,,,,,,,1,,,48,80
45456,note_on,96,0,2,,,,,,,,1,,,48,0
45480,note_on,0,0,1,,,,,,,,0,,,70,80
45480,note_on,312,0,1,,,,,,,,0,,,65,80
45480,note_on,24,0,2,,,,,,,,1,,,41,80
45576,note_on,96,0,2,,,,,,,,1,,,41,0
45576,note_on,0,0,1,,,,,,,,0,,,65,0
45576,note_on,96,0,1,,,,,,,,0,,,70,0
45600,note_on,24,0,1,,,,,,,,0,,,69,80
45600,note_on,0,0,1,,,,,,,,0,,,72,80
45600,note_on,24,0,2,,,,,,,,1,,,65,80
45696,note_on,96,0,2,,,,,,,,1,,,65,0
45720,note_on,24,0,2,,,,,,,,1,,,60,80
45816,note_on,96,0,2,,,,,,,,1,,,60,0
45840,note_on,24,0,2,,,,,,,,1,,,57,80
45888,note_on,0,0,1,,,,,,,,0,,,69,0
45888,note_on,288,0,1,,,,,,,,0,,,72,0
45936,note_on,96,0,2,,,,,,,,1,,,57,0
45960,note_on,24,0,2,,,,,,,,1,,,53,80
46056,note_on,96,0,2,,,,,,,,1,,,53,0
46080,note_on,24,0,2,,,,,,,,1,,,48,80
46176,note_on,96,0,2,,,,,,,,1,,,48,0
46200,note_on,312,0,1,,,,,,,,0,,,70,80
46200,note_on,0,0,1,,,,,,,,0,,,74,80
46200,note_on,24,0,2,,,,,,,,1,,,41,80
46296,note_on,96,0,2,,,,,,,,1,,,41,0
46296,note_on,0,0,1,,,,,,,,0,,,70,0
46296,note_on,96,0,1,,,,,,,,0,,,74,0
46320,note_on,24,0,1,,,,,,,,0,,,75,80
46320,note_on,0,0,1,,,,,,,,0,,,72,80
46320,note_on,0,0,1,,,,,,,,0,,,69,80
46320,note_on,24,0,2,,,,,,,,1,,,65,80
46416,note_on,96,0,2,,,,,,,,1,,,65,0
46440,note_on,24,0,2,,,,,,,,1,,,60,80
46536,note_on,96,0,2,,,,,,,,1,,,60,0
46560,note_on,24,0,2,,,,,,,,1,,,57,80
46608,note_on,0,0,1,,,,,,,,0,,,75,0
46608,note_on,0,0,1,,,,,,,,0,,,72,0
46608,note_on,288,0,1,,,,,,,,0,,,69,0
46656,note_on,96,0,2,,,,,,,,1,,,57,0
46680,note_on,24,0,2,,,,,,,,1,,,53,80
46776,note_on,96,0,2,,,,,,,,1,,,53,0
46800,note_on,24,0,2,,,,,,,,1,,,48,80
46896,note_on,96,0,2,,,,,,,,1,,,48,0
46920,note_on,312,0,1,,,,,,,,0,,,77,80
46920,note_on,24,0,2,,,,,,,,1,,,41,80
47016,note_on,96,0,1,,,,,,,,0,,,77,0
47016,note_on,96,0,2,,,,,,,,1,,,41,0
47040,note_on,0,0,1,,,,,,,,0,,,74,80
47040,note_on,24,0,2,,,,,,,,1,,,46,80
47040,note_on,24,0,1,,,,,,,,0,,,65,80
47136,note_on,96,0,2,,,,,,,,1,,,46,0
47160,note_on,24,0,2,,,,,,,,1,,,48,80
47232,note_on,0,0,1,,,,,,,,0,,,65,0
47232,note_on,192,0,1,,,,,,,,0,,,74,0
47256,note_on,96,0,2,,,,,,,,1,,,48,0
47280,note_on,48,0,1,,,,,,,,0,,,70,80
47280,note_on,24,0,2,,,,,,,,1,,,50,80
47376,note_on,96,0,2,,,,,,,,1,,,50,0
47376,note_on,96,0,1,,,,,,,,0,,,70,0
47400,note_on,24,0,2,,,,,,,,1,,,51,80
47400,note_on,0,0,1,,,,,,,,0,,,72,80
47400,note_on,24,0,1,,,,,,,,0,,,70,80
47496,note_on,96,0,2,,,,,,,,1,,,51,0
47520,note_on,24,0,2,,,,,,,,1,,,48,80
47592,note_on,0,0,1,,,,,,,,0,,,70,0
47592,note_on,192,0,1,,,,,,,,0,,,72,0
47616,note_on,96,0,2,,,,,,,,1,,,48,0
47640,note_on,48,0,1,,,,,,,,0,,,70,80
47640,note_on,24,0,2,,,,,,,,1,,,53,80
47736,note_on,96,0,1,,,,,,,,0,,,70,0
47736,note_on,96,0,2,,,,,,,,1,,,53,0
47760,note_on,0,0,1,,,,,,,,0,,,70,80
47760,note_on,0,0,1,,,,,,,,0,,,74,80
47760,note_on,24,0,2,,,,,,,,1,,,46,80
47760,note_on,24,0,1,,,,,,,,0,,,65,80
47856,note_on,96,0,2,,,,,,,,1,,,46,0
47880,note_on,24,0,2,,,,,,,,1,,,58,80
47976,note_on,96,0,2,,,,,,,,1,,,58,0
47985,note_on,225,0,1,,,,,,,,0,,,74,0
47985,note_on,0,0,1,,,,,,,,0,,,65,0
47985,note_on,0,0,1,,,,,,,,0,,,70,0
48000,note_on,24,0,2,,,,,,,,1,,,57,80
48096,note_on,96,0,2,,,,,,,,1,,,57,0
48120,note_on,24,0,2,,,,,,,,1,,,55,80
48216,note_on,96,0,2,,,,,,,,1,,,55,0
48240,note_on,24,0,2,,,,,,,,1,,,53,80
48336,note_on,96,0,2,,,,,,,,1,,,53,0
48360,note_on,24,0,2,,,,,,,,1,,,51,80
48360,note_on,375,0,1,,,,,,,,0,,,75,80
48456,note_on,96,0,1,,,,,,,,0,,,75,0
48456,note_on,96,0,2,,,,,,,,1,,,51,0
48480,note_on,24,0,1,,,,,,,,0,,,65,80
48480,note_on,24,0,2,,,,,,,,1,,,50,80
48576,note_on,96,0,2,,,,,,,,1,,,50,0
48600,note_on,24,0,2,,,,,,,,1,,,48,80
48672,note_on,192,0,1,,,,,,,,0,,,65,0
48696,note_on,96,0,2,,,,,,,,1,,,48,0
48720,note_on,48,0,1,,,,,,,,0,,,70,80
48720,note_on,24,0,2,,,,,,,,1,,,46,80
48816,note_on,96,0,1,,,,,,,,0,,,70,0
48816,note_on,96,0,2,,,,,,,,1,,,46,0
48840,note_on,24,0,2,,,,,,,,1,,,51,80
48840,note_on,24,0,1,,,,,,,,0,,,60,80
48936,note_on,96,0,2,,,,,,,,1,,,51,0
48960,note_on,24,0,2,,,,,,,,1,,,48,80
49032,note_on,192,0,1,,,,,,,,0,,,60,0
49056,note_on,96,0,2,,,,,,,,1,,,48,0
49080,note_on,24,0,2,,,,,,,,1,,,53,80
49080,note_on,48,0,1,,,,,,,,0,,,69,80
49176,note_on,96,0,2,,,,,,,,1,,,53,0
49176,note_on,96,0,1,,,,,,,,0,,,69,0
49200,note_on,24,0,1,,,,,,,,0,,,70,80
49200,note_on,24,0,2,,,,,,,,1,,,58,80
49200,note_on,0,0,1,,,,,,,,0,,,65,80
49200,note_on,0,0,1,,,,,,,,0,,,62,80
49296,note_on,96,0,2,,,,,,,,1,,,58,0
49320,note_on,24,0,2,,,,,,,,1,,,46,80
49392,note_on,192,0,1,,,,,,,,0,,,62,0
49392,note_on,0,0,1,,,,,,,,0,,,65,0
49392,note_on,0,0,1,,,,,,,,0,,,70,0
49416,note_on,96,0,2,,,,,,,,1,,,46,0
49440,note_on,24,0,2,,,,,,,,1,,,48,80
49536,note_on,96,0,2,,,,,,,,1,,,48,0
49560,note_on,24,0,2,,,,,,,,1,,,50,80
49656,note_on,96,0,2,,,,,,,,1,,,50,0
49680,note_on,24,0,2,,,,,,,,1,,,48,80
49776,note_on,96,0,2,,,,,,,,1,,,48,0
49800,note_on,24,0,2,,,,,,,,1,,,46,80
49896,note_on,96,0,2,,,,,,,,1,,,46,0
49920,note_on,24,0,2,,,,,,,,1,,,58,80
49920,note_on,528,0,1,,,,,,,,0,,,70,80
49920,time_signature,11520,1,0,4,4,24,8,,,,,,,,
49920,set_tempo,0,1,0,,,,,,400000,,,,,,
49920,end_of_track,0,1,0,,,,,,,,,,,,
49920,marker,0,1,0,,,,,,,,,,,,
49968,note_on,48,0,1,,,,,,,,0,,,70,0
49980,note_on,12,0,1,,,,,,,,0,,,65,80
50016,note_on,96,0,2,,,,,,,,1,,,58,0
50028,note_on,48,0,1,,,,,,,,0,,,65,0
50040,note_on,24,0,2,,,,,,,,1,,,50,80
50040,note_on,12,0,1,,,,,,,,0,,,70,80
50088,note_on,48,0,1,,,,,,,,0,,,70,0
50100,note_on,12,0,1,,,,,,,,0,,,65,80
50136,note_on,96,0,2,,,,,,,,1,,,50,0
50148,note_on,48,0,1,,,,,,,,0,,,65,0
50160,note_on,12,0,1,,,,,,,,0,,,72,80
50160,note_on,24,0,2,,,,,,,,1,,,51,80
50208,note_on,48,0,1,,,,,,,,0,,,72,0
50220,note_on,12,0,1,,,,,,,,0,,,65,80
50256,note_on,96,0,2,,,,,,,,1,,,51,0
50268,note_on,48,0,1,,,,,,,,0,,,65,0
50280,note_on,12,0,1,,,,,,,,0,,,69,80
50280,note_on,24,0,2,,,,,,,,1,,,53,80
50328,note_on,48,0,1,,,,,,,,0,,,69,0
50340,note_on,12,0,1,,,,,,,,0,,,65,80
50376,note_on,96,0,2,,,,,,,,1,,,53,0
50388,note_on,48,0,1,,,,,,,,0,,,65,0
50400,note_on,24,0,2,,,,,,,,1,,,34,80
50400,note_on,12,0,1,,,,,,,,0,,,74,80
50400,note_on,0,0,2,,,,,,,,1,,,46,80
50448,note_on,48,0,1,,,,,,,,0,,,74,0
50460,note_on,12,0,1,,,,,,,,0,,,65,80
50508,note_on,48,0,1,,,,,,,,0,,,65,0
50520,note_on,12,0,1,,,,,,,,0,,,70,80
50568,note_on,48,0,1,,,,,,,,0,,,70,0
50580,note_on,12,0,1,,,,,,,,0,,,65,80
50592,note_on,192,0,2,,,,,,,,1,,,46,0
50592,note_on,0,0,2,,,,,,,,1,,,34,0
50628,note_on,48,0,1,,,,,,,,0,,,65,0
50640,note_on,12,0,1,,,,,,,,0,,,72,80
50688,note_on,48,0,1,,,,,,,,0,,,72,0
50700,note_on,12,0,1,,,,,,,,0,,,65,80
50748,note_on,48,0,1,,,,,,,,0,,,65,0
50760,note_on,168,0,2,,,,,,,,1,,,57,80
50760,note_on,12,0,1,,,,,,,,0,,,75,80
50808,note_on,48,0,1,,,,,,,,0,,,75,0
50820,note_on,12,0,1,,,,,,,,0,,,65,80
50856,note_on,96,0,2,,,,,,,,1,,,57,0
50868,note_on,48,0,1,,,,,,,,0,,,65,0
50880,note_on,24,0,2,,,,,,,,1,,,58,80
50880,note_on,12,0,1,,,,,,,,0,,,74,80
50928,note_on,48,0,1,,,,,,,,0,,,74,0
50940,note_on,12,0,1,,,,,,,,0,,,65,80
50976,note_on,96,0,2,,,,,,,,1,,,58,0
50988,note_on,48,0,1,,,,,,,,0,,,65,0
51000,note_on,24,0,2,,,,,,,,1,,,50,80
51000,note_on,12,0,1,,,,,,,,0,,,70,80
51048,note_on,48,0,1,,,,,,,,0,,,70,0
51060,note_on,12,0,1,,,,,,,,0,,,65,80
51096,note_on,96,0,2,,,,,,,,1,,,50,0
51108,note_on,48,0,1,,,,,,,,0,,,65,0
51120,note_on,24,0,2,,,,,,,,1,,,51,80
51120,note_on,12,0,1,,,,,,,,0,,,72,80
51168,note_on,48,0,1,,,,,,,,0,,,72,0
51180,note_on,12,0,1,,,,,,,,0,,,65,80
51216,note_on,96,0,2,,,,,,,,1,,,51,0
51228,note_on,48,0,1,,,,,,,,0,,,65,0
51240,note_on,24,0,2,,,,,,,,1,,,53,80
51240,note_on,12,0,1,,,,,,,,0,,,69,80
51288,note_on,48,0,1,,,,,,,,0,,,69,0
51300,note_on,12,0,1,,,,,,,,0,,,65,80
51336,note_on,96,0,2,,,,,,,,1,,,53,0
51348,note_on,48,0,1,,,,,,,,0,,,65,0
51360,note_on,24,0,2,,,,,,,,1,,,46,80
51360,note_on,0,0,2,,,,,,,,1,,,34,80
51360,note_on,12,0,1,,,,,,,,0,,,74,80
51408,note_on,48,0,1,,,,,,,,0,,,74,0
51420,note_on,12,0,1,,,,,,,,0,,,65,80
51468,note_on,48,0,1,,,,,,,,0,,,65,0
51480,note_on,12,0,1,,,,,,,,0,,,70,80
51528,note_on,48,0,1,,,,,,,,0,,,70,0
51540,note_on,12,0,1,,,,,,,,0,,,65,80
51552,note_on,0,0,2,,,,,,,,1,,,46,0
51552,note_on,192,0,2,,,,,,,,1,,,34,0
51588,note_on,48,0,1,,,,,,,,0,,,65,0
51600,note_on,12,0,1,,,,,,,,0,,,72,80
51648,note_on,48,0,1,,,,,,,,0,,,72,0
51660,note_on,12,0,1,,,,,,,,0,,,65,80
51708,note_on,48,0,1,,,,,,,,0,,,65,0
51720,note_on,168,0,2,,,,,,,,1,,,57,80
51720,note_on,12,0,1,,,,,,,,0,,,75,80
51768,note_on,48,0,1,,,,,,,,0,,,75,0
51780,note_on,12,0,1,,,,,,,,0,,,65,80
51816,note_on,96,0,2,,,,,,,,1,,,57,0
51828,note_on,48,0,1,,,,,,,,0,,,65,0
51840,note_on,12,0,1,,,,,,,,0,,,74,80
51840,note_on,24,0,2,,,,,,,,1,,,58,80
51888,note_on,48,0,1,,,,,,,,0,,,74,0
51900,note_on,12,0,1,,,,,,,,0,,,65,80
51936,note_on,96,0,2,,,,,,,,1,,,58,0
51948,note_on,48,0,1,,,,,,,,0,,,65,0
51960,note_on,12,0,1,,,,,,,,0,,,70,80
51960,note_on,24,0,2,,,,,,,,1,,,62,80
52008,note_on,48,0,1,,,,,,,,0,,,70,0
52020,note_on,12,0,1,,,,,,,,0,,,65,80
52056,note_on,96,0,2,,,,,,,,1,,,62,0
52068,note_on,48,0,1,,,,,,,,0,,,65,0
52080,note_on,24,0,2,,,,,,,,1,,,60,80
52080,note_on,12,0,1,,,,,,,,0,,,75,80
52128,note_on,48,0,1,,,,,,,,0,,,75,0
52140,note_on,12,0,1,,,,,,,,0,,,69,80
52176,note_on,96,0,2,,,,,,,,1,,,60,0
52188,note_on,48,0,1,,,,,,,,0,,,69,0
52200,note_on,24,0,2,,,,,,,,1,,,53,80
52200,note_on,12,0,1,,,,,,,,0,,,72,80
52248,note_on,48,0,1,,,,,,,,0,,,72,0
52260,note_on,12,0,1,,,,,,,,0,,,69,80
52296,note_on,96,0,2,,,,,,,,1,,,53,0
52308,note_on,48,0,1,,,,,,,,0,,,69,0
52320,note_on,24,0,2,,,,,,,,1,,,62,80
52320,note_on,12,0,1,,,,,,,,0,,,77,80
52368,note_on,48,0,1,,,,,,,,0,,,77,0
52380,note_on,12,0,1,,,,,,,,0,,,70,80
52416,note_on,96,0,2,,,,,,,,1,,,62,0
52428,note_on,48,0,1,,,,,,,,0,,,70,0
52440,note_on,24,0,2,,,,,,,,1,,,58,80
52440,note_on,12,0,1,,,,,,,,0,,,74,80
52488,note_on,48,0,1,,,,,,,,0,,,74,0
52500,note_on,12,0,1,,,,,,,,0,,,70,80
52536,note_on,96,0,2,,,,,,,,1,,,58,0
52548,note_on,48,0,1,,,,,,,,0,,,70,0
52560,note_on,24,0,2,,,,,,,,1,,,63,80
52560,note_on,12,0,1,,,,,,,,0,,,79,80
52608,note_on,48,0,1,,,,,,,,0,,,79,0
52620,note_on,12,0,1,,,,,,,,0,,,69,80
52656,note_on,96,0,2,,,,,,,,1,,,63,0
52668,note_on,48,0,1,,,,,,,,0,,,69,0
52680,note_on,24,0,2,,,,,,,,1,,,60,80
52680,note_on,12,0,1,,,,,,,,0,,,75,80
52728,note_on,48,0,1,,,,,,,,0,,,75,0
52740,note_on,12,0,1,,,,,,,,0,,,69,80
52776,note_on,96,0,2,,,,,,,,1,,,60,0
52788,note_on,48,0,1,,,,,,,,0,,,69,0
52800,note_on,12,0,1,,,,,,,,0,,,77,80
52800,note_on,24,0,2,,,,,,,,1,,,62,80
52848,note_on,48,0,1,,,,,,,,0,,,77,0
52860,note_on,12,0,1,,,,,,,,0,,,65,80
52896,note_on,96,0,2,,,,,,,,1,,,62,0
52908,note_on,48,0,1,,,,,,,,0,,,65,0
52920,note_on,12,0,1,,,,,,,,0,,,75,80
52920,note_on,24,0,2,,,,,,,,1,,,57,80
52968,note_on,48,0,1,,,,,,,,0,,,75,0
52980,note_on,12,0,1,,,,,,,,0,,,65,80
53016,note_on,96,0,2,,,,,,,,1,,,57,0
53028,note_on,48,0,1,,,,,,,,0,,,65,0
53040,note_on,12,0,1,,,,,,,,0,,,74,80
53040,note_on,24,0,2,,,,,,,,1,,,58,80
53088,note_on,48,0,1,,,,,,,,0,,,74,0
53100,note_on,12,0,1,,,,,,,,0,,,62,80
53136,note_on,96,0,2,,,,,,,,1,,,58,0
53148,note_on,48,0,1,,,,,,,,0,,,62,0
53160,note_on,12,0,1,,,,,,,,0,,,70,80
53160,note_on,24,0,2,,,,,,,,1,,,46,80
53208,note_on,48,0,1,,,,,,,,0,,,70,0
53220,note_on,12,0,1,,,,,,,,0,,,74,80
53256,note_on,96,0,2,,,,,,,,1,,,46,0
53268,note_on,48,0,1,,,,,,,,0,,,74,0
53280,note_on,0,0,2,,,,,,,,1,,,41,80
53280,note_on,0,0,2,,,,,,,,1,,,53,80
53280,note_on,0,0,2,,,,,,,,1,,,45,80
53280,note_on,24,0,2,,,,,,,,1,,,48,80
53280,note_on,12,0,1,,,,,,,,0,,,72,80
53328,note_on,48,0,1,,,,,,,,0,,,72,0
53340,note_on,12,0,1,,,,,,,,0,,,70,80
53388,note_on,48,0,1,,,,,,,,0,,,70,0
53400,note_on,12,0,1,,,,,,,,0,,,69,80
53448,note_on,48,0,1,,,,,,,,0,,,69,0
53460,note_on,12,0,1,,,,,,,,0,,,67,80
53472,note_on,0,0,2,,,,,,,,1,,,53,0
53472,note_on,0,0,2,,,,,,,,1,,,45,0
53472,note_on,0,0,2,,,,,,,,1,,,48,0
53472,note_on,192,0,2,,,,,,,,1,,,41,0
53508,note_on,48,0,1,,,,,,,,0,,,67,0
53520,note_on,12,0,1,,,,,,,,0,,,65,80
53568,note_on,48,0,1,,,,,,,,0,,,65,0
53580,note_on,12,0,1,,,,,,,,0,,,63,80
53628,note_on,48,0,1,,,,,,,,0,,,63,0
53640,note_on,12,0,1,,,,,,,,0,,,62,80
53688,note_on,48,0,1,,,,,,,,0,,,62,0
53700,note_on,12,0,1,,,,,,,,0,,,60,80
53748,note_on,48,0,1,,,,,,,,0,,,60,0
53760,note_on,288,0,2,,,,,,,,1,,,53,80
53760,note_on,12,0,1,,,,,,,,0,,,72,80
53808,note_on,48,0,1,,,,,,,,0,,,72,0
53820,note_on,12,0,1,,,,,,,,0,,,69,80
53856,note_on,96,0,2,,,,,,,,1,,,53,0
53868,note_on,48,0,1,,,,,,,,0,,,69,0
53880,note_on,24,0,2,,,,,,,,1,,,57,80
53880,note_on,12,0,1,,,,,,,,0,,,65,80
53928,note_on,48,0,1,,,,,,,,0,,,65,0
53940,note_on,12,0,1,,,,,,,,0,,,60,80
53976,note_on,96,0,2,,,,,,,,1,,,57,0
53988,note_on,48,0,1,,,,,,,,0,,,60,0
54000,note_on,24,0,2,,,,,,,,1,,,58,80
54000,note_on,12,0,1,,,,,,,,0,,,74,80
54048,note_on,48,0,1,,,,,,,,0,,,74,0
54060,note_on,12,0,1,,,,,,,,0,,,70,80
54096,note_on,96,0,2,,,,,,,,1,,,58,0
54108,note_on,48,0,1,,,,,,,,0,,,70,0
54120,note_on,24,0,2,,,,,,,,1,,,46,80
54120,note_on,12,0,1,,,,,,,,0,,,65,80
54168,note_on,48,0,1,,,,,,,,0,,,65,0
54180,note_on,12,0,1,,,,,,,,0,,,62,80
54216,note_on,96,0,2,,,,,,,,1,,,46,0
54228,note_on,48,0,1,,,,,,,,0,,,62,0
54240,note_on,0,0,1,,,,,,,,0,,,69,80
54240,note_on,0,0,1,,,,,,,,0,,,60,80
54240,note_on,12,0,1,,,,,,,,0,,,65,80
54240,note_on,24,0,2,,,,,,,,1,,,41,80
54288,note_on,48,0,2,,,,,,,,1,,,41,0
54300,note_on,12,0,2,,,,,,,,1,,,45,80
54348,note_on,48,0,2,,,,,,,,1,,,45,0
54360,note_on,12,0,2,,,,,,,,1,,,48,80
54408,note_on,48,0,2,,,,,,,,1,,,48,0
54420,note_on,12,0,2,,,,,,,,1,,,53,80
54432,note_on,192,0,1,,,,,,,,0,,,69,0
54432,note_on,0,0,1,,,,,,,,0,,,65,0
54432,note_on,0,0,1,,,,,,,,0,,,60,0
54468,note_on,48,0,2,,,,,,,,1,,,53,0
54480,note_on,12,0,2,,,,,,,,1,,,50,80
54480,note_on,48,0,1,,,,,,,,0,,,58,80
54528,note_on,48,0,2,,,,,,,,1,,,50,0
54528,note_on,48,0,1,,,,,,,,0,,,58,0
54540,note_on,12,0,1,,,,,,,,0,,,62,80
54540,note_on,12,0,2,,,,,,,,1,,,53,80
54588,note_on,48,0,2,,,,,,,,1,,,53,0
54588,note_on,48,0,1,,,,,,,,0,,,62,0
54600,note_on,12,0,2,,,,,,,,1,,,58,80
54600,note_on,12,0,1,,,,,,,,0,,,65,80
54648,note_on,48,0,2,,,,,,,,1,,,58,0
54648,note_on,48,0,1,,,,,,,,0,,,65,0
54660,note_on,12,0,2,,,,,,,,1,,,62,80
54660,note_on,12,0,1,,,,,,,,0,,,70,80
54708,note_on,48,0,1,,,,,,,,0,,,70,0
54708,note_on,48,0,2,,,,,,,,1,,,62,0
54720,note_on,12,0,1,,,,,,,,0,,,60,80
54720,note_on,12,0,2,,,,,,,,1,,,51,80
54768,note_on,48,0,1,,,,,,,,0,,,60,0
54780,note_on,12,0,1,,,,,,,,0,,,63,80
54816,note_on,96,0,2,,,,,,,,1,,,51,0
54828,note_on,48,0,1,,,,,,,,0,,,63,0
54840,note_on,12,0,1,,,,,,,,0,,,67,80
54840,note_on,24,0,2,,,,,,,,1,,,39,80
54888,note_on,48,0,1,,,,,,,,0,,,67,0
54900,note_on,12,0,1,,,,,,,,0,,,72,80
54936,note_on,96,0,2,,,,,,,,1,,,39,0
54948,note_on,48,0,1,,,,,,,,0,,,72,0
54960,note_on,24,0,2,,,,,,,,1,,,41,80
54960,note_on,12,0,1,,,,,,,,0,,,62,80
55008,note_on,48,0,2,,,,,,,,1,,,41,0
55008,note_on,48,0,1,,,,,,,,0,,,62,0
55020,note_on,12,0,2,,,,,,,,1,,,45,80
55020,note_on,12,0,1,,,,,,,,0,,,65,80
55068,note_on,48,0,2,,,,,,,,1,,,45,0
55068,note_on,48,0,1,,,,,,,,0,,,65,0
55080,note_on,12,0,2,,,,,,,,1,,,48,80
55080,note_on,12,0,1,,,,,,,,0,,,69,80
55128,note_on,48,0,1,,,,,,,,0,,,69,0
55128,note_on,48,0,2,,,,,,,,1,,,48,0
55140,note_on,12,0,2,,,,,,,,1,,,53,80
55140,note_on,12,0,1,,,,,,,,0,,,74,80
55188,note_on,48,0,1,,,,,,,,0,,,74,0
55188,note_on,48,0,2,,,,,,,,1,,,53,0
55200,note_on,12,0,1,,,,,,,,0,,,63,80
55200,note_on,12,0,2,,,,,,,,1,,,43,80
55248,note_on,48,0,1,,,,,,,,0,,,63,0
55248,note_on,48,0,2,,,,,,,,1,,,43,0
55260,note_on,12,0,1,,,,,,,,0,,,67,80
55260,note_on,12,0,2,,,,,,,,1,,,46,80
55308,note_on,48,0,1,,,,,,,,0,,,67,0
55308,note_on,48,0,2,,,,,,,,1,,,46,0
55320,note_on,12,0,2,,,,,,,,1,,,51,80
55320,note_on,12,0,1,,,,,,,,0,,,70,80
55368,note_on,48,0,1,,,,,,,,0,,,70,0
55368,note_on,48,0,2,,,,,,,,1,,,51,0
55380,note_on,12,0,1,,,,,,,,0,,,75,80
55380,note_on,12,0,2,,,,,,,,1,,,55,80
55428,note_on,48,0,2,,,,,,,,1,,,55,0
55428,note_on,48,0,1,,,,,,,,0,,,75,0
55440,note_on,12,0,1,,,,,,,,0,,,65,80
55440,note_on,12,0,2,,,,,,,,1,,,45,80
55488,note_on,48,0,1,,,,,,,,0,,,65,0
55488,note_on,48,0,2,,,,,,,,1,,,45,0
55500,note_on,12,0,1,,,,,,,,0,,,69,80
55500,note_on,12,0,2,,,,,,,,1,,,48,80
55548,note_on,48,0,1,,,,,,,,0,,,69,0
55548,note_on,48,0,2,,,,,,,,1,,,48,0
55560,note_on,12,0,1,,,,,,,,0,,,72,80
55560,note_on,12,0,2,,,,,,,,1,,,53,80
55608,note_on,48,0,1,,,,,,,,0,,,72,0
55608,note_on,48,0,2,,,,,,,,1,,,53,0
55620,note_on,12,0,1,,,,,,,,0,,,75,80
55620,note_on,12,0,2,,,,,,,,1,,,57,80
55668,note_on,48,0,2,,,,,,,,1,,,57,0
55668,note_on,48,0,1,,,,,,,,0,,,75,0
55680,note_on,12,0,2,,,,,,,,1,,,46,80
55680,note_on,12,0,1,,,,,,,,0,,,62,80
55728,note_on,48,0,2,,,,,,,,1,,,46,0
55728,note_on,48,0,1,,,,,,,,0,,,62,0
55740,note_on,12,0,2,,,,,,,,1,,,50,80
55740,note_on,12,0,1,,,,,,,,0,,,65,80
55788,note_on,48,0,2,,,,,,,,1,,,50,0
55788,note_on,48,0,1,,,,,,,,0,,,65,0
55800,note_on,12,0,2,,,,,,,,1,,,53,80
55800,note_on,12,0,1,,,,,,,,0,,,70,80
55848,note_on,48,0,2,,,,,,,,1,,,53,0
55848,note_on,48,0,1,,,,,,,,0,,,70,0
55860,note_on,12,0,2,,,,,,,,1,,,58,80
55860,note_on,12,0,1,,,,,,,,0,,,74,80
55908,note_on,48,0,1,,,,,,,,0,,,74,0
55908,note_on,48,0,2,,,,,,,,1,,,58,0
55920,note_on,12,0,2,,,,,,,,1,,,57,80
55920,note_on,12,0,1,,,,,,,,0,,,60,80
55968,note_on,48,0,1,,,,,,,,0,,,60,0
55980,note_on,12,0,1,,,,,,,,0,,,65,80
56016,note_on,96,0,2,,,,,,,,1,,,57,0
56028,note_on,48,0,1,,,,,,,,0,,,65,0
56040,note_on,12,0,1,,,,,,,,0,,,69,80
56040,note_on,24,0,2,,,,,,,,1,,,53,80
56088,note_on,48,0,1,,,,,,,,0,,,69,0
56100,note_on,12,0,1,,,,,,,,0,,,72,80
56136,note_on,96,0,2,,,,,,,,1,,,53,0
56148,note_on,48,0,1,,,,,,,,0,,,72,0
56160,note_on,12,0,1,,,,,,,,0,,,82,80
56160,note_on,24,0,2,,,,,,,,1,,,50,80
56208,note_on,48,0,1,,,,,,,,0,,,82,0
56220,note_on,12,0,1,,,,,,,,0,,,81,80
56256,note_on,96,0,2,,,,,,,,1,,,50,0
56268,note_on,48,0,1,,,,,,,,0,,,81,0
56280,note_on,24,0,2,,,,,,,,1,,,58,80
56280,note_on,12,0,1,,,,,,,,0,,,79,80
56328,note_on,48,0,1,,,,,,,,0,,,79,0
56340,note_on,12,0,1,,,,,,,,0,,,77,80
56376,note_on,96,0,2,,,,,,,,1,,,58,0
56388,note_on,48,0,1,,,,,,,,0,,,77,0
56400,note_on,12,0,1,,,,,,,,0,,,75,80
56400,note_on,24,0,2,,,,,,,,1,,,48,80
56448,note_on,48,0,1,,,,,,,,0,,,75,0
56460,note_on,12,0,1,,,,,,,,0,,,74,80
56496,note_on,96,0,2,,,,,,,,1,,,48,0
56508,note_on,48,0,1,,,,,,,,0,,,74,0
56520,note_on,24,0,2,,,,,,,,1,,,51,80
56520,note_on,12,0,1,,,,,,,,0,,,72,80
56568,note_on,48,0,1,,,,,,,,0,,,72,0
56580,note_on,12,0,1,,,,,,,,0,,,70,80
56616,note_on,96,0,2,,,,,,,,1,,,51,0
56628,note_on,48,0,1,,,,,,,,0,,,70,0
56640,note_on,12,0,1,,,,,,,,0,,,69,80
56640,note_on,0,0,2,,,,,,,,1,,,53,80
56640,note_on,0,0,1,,,,,,,,0,,,60,80
56640,note_on,24,0,2,,,,,,,,1,,,41,80
56640,note_on,0,0,1,,,,,,,,0,,,65,80
56736,note_on,96,0,1,,,,,,,,0,,,60,0
56736,note_on,0,0,1,,,,,,,,0,,,69,0
56736,note_on,0,0,1,,,,,,,,0,,,65,0
56736,note_on,96,0,2,,,,,,,,1,,,53,0
56736,note_on,0,0,2,,,,,,,,1,,,41,0
56760,note_on,0,0,1,,,,,,,,0,,,62,80
56760,note_on,0,0,2,,,,,,,,1,,,53,80
56760,note_on,0,0,1,,,,,,,,0,,,65,80
56760,note_on,24,0,1,,,,,,,,0,,,70,80
56760,note_on,24,0,2,,,,,,,,1,,,46,80
56856,note_on,96,0,2,,,,,,,,1,,,53,0
56856,note_on,0,0,1,,,,,,,,0,,,70,0
56856,note_on,0,0,1,,,,,,,,0,,,65,0
56856,note_on,96,0,1,,,,,,,,0,,,62,0
56856,note_on,0,0,2,,,,,,,,1,,,46,0
56880,note_on,24,0,2,,,,,,,,1,,,53,80
56880,note_on,0,0,1,,,,,,,,0,,,65,80
56880,note_on,0,0,1,,,,,,,,0,,,70,80
56880,note_on,24,0,1,,,,,,,,0,,,60,80
56976,note_on,96,0,2,,,,,,,,1,,,53,0
56976,note_on,96,0,1,,,,,,,,0,,,65,0
56976,note_on,0,0,1,,,,,,,,0,,,60,0
56976,note_on,0,0,1,,,,,,,,0,,,70,0
57000,note_on,0,0,1,,,,,,,,0,,,63,80
57000,note_on,24,0,1,,,,,,,,0,,,69,80
57000,note_on,24,0,2,,,,,,,,1,,,41,80
57096,note_on,0,0,1,,,,,,,,0,,,69,0
57096,note_on,96,0,1,,,,,,,,0,,,63,0
57096,note_on,96,0,2,,,,,,,,1,,,41,0
57120,note_on,0,0,1,,,,,,,,0,,,65,80
57120,note_on,0,0,1,,,,,,,,0,,,70,80
57120,note_on,24,0,1,,,,,,,,0,,,62,80
57120,note_on,0,0,2,,,,,,,,1,,,46,80
57120,note_on,24,0,2,,,,,,,,1,,,34,80
57312,note_on,0,0,2,,,,,,,,1,,,34,0
57312,note_on,192,0,2,,,,,,,,1,,,46,0
57312,note_on,192,0,1,,,,,,,,0,,,65,0
57312,note_on,0,0,1,,,,,,,,0,,,70,0
57312,end_of_track,0,1,2,,,,,,,,,,,,
57312,end_of_track,0,1,1,,,,,,,,,,,,
57312,note_on,0,0,1,,,,,,,,0,,,62,0
