tick,type,time,meta,track,numerator,denominator,clocks_per_click,notated_32nd_notes_per_beat,key,tempo,program,channel,control,value,note,velocity
0,track_name,0,1,0,,,,,,,,,,,,
0,control_change,0,0,2,,,,,,,,1,10,0,,
0,control_change,0,0,2,,,,,,,,1,10,0,,
0,control_change,0,0,2,,,,,,,,1,7,120,,
0,control_change,0,0,2,,,,,,,,1,7,120,,
0,program_change,0,0,2,,,,,,,6,1,,,,
0,program_change,0,0,2,,,,,,,6,1,,,,
0,track_name,0,1,2,,,,,,,,,,,,
0,note_on,0,0,1,,,,,,,,0,,,69,75
0,control_change,0,0,1,,,,,,,,0,10,127,,
0,control_change,0,0,1,,,,,,,,0,10,127,,
0,control_change,0,0,1,,,,,,,,0,7,120,,
0,control_change,0,0,1,,,,,,,,0,7,120,,
0,program_change,0,0,1,,,,,,,6,0,,,,
0,program_change,0,0,1,,,,,,,6,0,,,,
0,end_of_track,0,1,3,,,,,,,,,,,,
0,marker,0,1,0,,,,,,,,,,,,
0,key_signature,0,1,0,,,,,F,,,,,,,
0,time_signature,0,1,0,4,4,24,8,,,,,,,,
0,text,0,1,0,,,,,,,,,,,,
0,text,0,1,0,,,,,,,,,,,,
0,copyright,0,1,0,,,,,,,,,,,,
0,track_name,0,1,1,,,,,,,,,,,,
0,set_tempo,0,1,0,,,,,,1153846,,,,,,
96,note_on,96,0,1,,,,,,,,0,,,69,0
96,note_on,0,0,1,,,,,,,,0,,,69,75
96,note_on,96,0,2,,,,,,,,1,,,62,75
144,note_on,48,0,1,,,,,,,,0,,,67,75
176,note_on,32,0,1,,,,,,,,0,,,67,0
190,note_on,94,0,2,,,,,,,,1,,,62,0
192,note_on,16,0,1,,,,,,,,0,,,65,75
192,note_on,2,0,2,,,,,,,,1,,,57,75
224,note_on,32,0,1,,,,,,,,0,,,65,0
240,note_on,16,0,1,,,,,,,,0,,,64,75
272,note_on,32,0,1,,,,,,,,0,,,64,0
286,note_on,94,0,2,,,,,,,,1,,,57,0
288,note_on,2,0,2,,,,,,,,1,,,50,75
288,note_on,16,0,1,,,,,,,,0,,,65,75
334,note_on,46,0,1,,,,,,,,0,,,69,0
336,note_on,2,0,1,,,,,,,,0,,,69,75
382,note_on,94,0,2,,,,,,,,1,,,50,0
384,note_on,0,0,1,,,,,,,,0,,,70,75
384,note_on,48,0,1,,,,,,,,0,,,69,0
384,note_on,2,0,2,,,,,,,,1,,,55,75
432,note_on,48,0,1,,,,,,,,0,,,70,0
432,note_on,0,0,1,,,,,,,,0,,,67,75
448,note_on,16,0,1,,,,,,,,0,,,65,0
478,note_on,94,0,2,,,,,,,,1,,,55,0
480,note_on,2,0,2,,,,,,,,1,,,62,75
480,note_on,32,0,1,,,,,,,,0,,,67,0
480,note_on,0,0,1,,,,,,,,0,,,69,75
528,note_on,48,0,1,,,,,,,,0,,,67,75
560,note_on,32,0,1,,,,,,,,0,,,67,0
574,note_on,94,0,2,,,,,,,,1,,,62,0
576,note_on,2,0,2,,,,,,,,1,,,57,75
576,note_on,16,0,1,,,,,,,,0,,,65,75
608,note_on,32,0,1,,,,,,,,0,,,65,0
624,note_on,16,0,1,,,,,,,,0,,,64,75
656,note_on,32,0,1,,,,,,,,0,,,64,0
670,note_on,94,0,2,,,,,,,,1,,,57,0
672,note_on,16,0,1,,,,,,,,0,,,65,75
672,note_on,2,0,2,,,,,,,,1,,,50,75
718,note_on,46,0,1,,,,,,,,0,,,69,0
720,note_on,2,0,1,,,,,,,,0,,,69,75
768,note_on,0,0,1,,,,,,,,0,,,70,75
768,note_on,48,0,1,,,,,,,,0,,,69,0
768,note_on,96,0,2,,,,,,,,1,,,60,75
816,note_on,0,0,1,,,,,,,,0,,,72,75
816,note_on,48,0,1,,,,,,,,0,,,70,0
832,note_on,16,0,1,,,,,,,,0,,,65,0
832,note_on,64,0,2,,,,,,,,1,,,50,0
862,note_on,30,0,2,,,,,,,,1,,,60,0
864,note_on,0,0,1,,,,,,,,0,,,74,75
864,note_on,32,0,1,,,,,,,,0,,,72,0
864,note_on,2,0,2,,,,,,,,1,,,58,75
912,note_on,48,0,1,,,,,,,,0,,,69,75
944,note_on,32,0,1,,,,,,,,0,,,69,0
958,note_on,94,0,2,,,,,,,,1,,,58,0
960,note_on,2,0,2,,,,,,,,1,,,57,75
960,note_on,16,0,1,,,,,,,,0,,,67,75
992,note_on,32,0,1,,,,,,,,0,,,67,0
1008,note_on,16,0,1,,,,,,,,0,,,65,75
1040,note_on,32,0,1,,,,,,,,0,,,65,0
1054,note_on,94,0,2,,,,,,,,1,,,57,0
1056,note_on,2,0,2,,,,,,,,1,,,58,75
1056,note_on,16,0,1,,,,,,,,0,,,67,75
1102,note_on,46,0,1,,,,,,,,0,,,74,0
1104,note_on,2,0,1,,,,,,,,0,,,77,75
1150,note_on,94,0,2,,,,,,,,1,,,58,0
1150,note_on,46,0,1,,,,,,,,0,,,77,0
1152,note_on,2,0,2,,,,,,,,1,,,55,75
1152,note_on,2,0,1,,,,,,,,0,,,76,75
1198,note_on,46,0,1,,,,,,,,0,,,76,0
1200,note_on,2,0,1,,,,,,,,0,,,74,75
1216,note_on,16,0,1,,,,,,,,0,,,67,0
1246,note_on,30,0,1,,,,,,,,0,,,74,0
1246,note_on,94,0,2,,,,,,,,1,,,55,0
1248,note_on,2,0,1,,,,,,,,0,,,74,75
1248,note_on,2,0,2,,,,,,,,1,,,57,75
1342,note_on,94,0,1,,,,,,,,0,,,74,0
1342,note_on,94,0,2,,,,,,,,1,,,57,0
1344,note_on,2,0,1,,,,,,,,0,,,73,75
1344,note_on,2,0,2,,,,,,,,1,,,64,75
1438,note_on,94,0,2,,,,,,,,1,,,64,0
1438,note_on,94,0,1,,,,,,,,0,,,73,0
1440,note_on,2,0,2,,,,,,,,1,,,69,75
1488,note_on,50,0,1,,,,,,,,0,,,73,75
1534,note_on,94,0,2,,,,,,,,1,,,69,0
1534,note_on,46,0,1,,,,,,,,0,,,73,0
1536,note_on,2,0,2,,,,,,,,1,,,61,75
1536,note_on,2,0,1,,,,,,,,0,,,74,75
1582,note_on,46,0,1,,,,,,,,0,,,74,0
1584,note_on,2,0,1,,,,,,,,0,,,76,75
1630,note_on,94,0,2,,,,,,,,1,,,61,0
1630,note_on,46,0,1,,,,,,,,0,,,76,0
1632,note_on,2,0,1,,,,,,,,0,,,77,75
1632,note_on,2,0,2,,,,,,,,1,,,62,75
1678,note_on,46,0,1,,,,,,,,0,,,77,0
1680,note_on,2,0,1,,,,,,,,0,,,69,75
1712,note_on,32,0,1,,,,,,,,0,,,69,0
1726,note_on,94,0,2,,,,,,,,1,,,62,0
1728,note_on,2,0,2,,,,,,,,1,,,60,75
1728,note_on,16,0,1,,,,,,,,0,,,76,75
1774,note_on,46,0,1,,,,,,,,0,,,76,0
1776,note_on,2,0,1,,,,,,,,0,,,69,75
1808,note_on,32,0,1,,,,,,,,0,,,69,0
1822,note_on,94,0,2,,,,,,,,1,,,60,0
1824,note_on,2,0,2,,,,,,,,1,,,58,75
1824,note_on,16,0,1,,,,,,,,0,,,74,75
1870,note_on,46,0,1,,,,,,,,0,,,74,0
1872,note_on,2,0,1,,,,,,,,0,,,67,75
1904,note_on,32,0,1,,,,,,,,0,,,67,0
1918,note_on,94,0,2,,,,,,,,1,,,58,0
1920,note_on,16,0,1,,,,,,,,0,,,72,75
1920,note_on,2,0,2,,,,,,,,1,,,57,75
1966,note_on,46,0,1,,,,,,,,0,,,72,0
1968,note_on,2,0,1,,,,,,,,0,,,65,75
2000,note_on,32,0,1,,,,,,,,0,,,65,0
2014,note_on,94,0,2,,,,,,,,1,,,57,0
2016,note_on,16,0,1,,,,,,,,0,,,70,75
2016,note_on,2,0,2,,,,,,,,1,,,55,75
2062,note_on,46,0,1,,,,,,,,0,,,70,0
2064,note_on,2,0,1,,,,,,,,0,,,64,75
2096,note_on,32,0,1,,,,,,,,0,,,64,0
2110,note_on,94,0,2,,,,,,,,1,,,55,0
2112,note_on,2,0,2,,,,,,,,1,,,53,75
2112,note_on,16,0,1,,,,,,,,0,,,69,75
2158,note_on,46,0,1,,,,,,,,0,,,69,0
2160,note_on,2,0,1,,,,,,,,0,,,65,75
2192,note_on,32,0,1,,,,,,,,0,,,65,0
2206,note_on,94,0,2,,,,,,,,1,,,53,0
2208,note_on,16,0,1,,,,,,,,0,,,67,75
2208,note_on,2,0,2,,,,,,,,1,,,60,75
2254,note_on,46,0,1,,,,,,,,0,,,67,0
2256,note_on,2,0,1,,,,,,,,0,,,64,75
2288,note_on,32,0,1,,,,,,,,0,,,64,0
2302,note_on,94,0,2,,,,,,,,1,,,60,0
2304,note_on,16,0,1,,,,,,,,0,,,76,75
2304,note_on,2,0,2,,,,,,,,1,,,58,75
2350,note_on,46,0,1,,,,,,,,0,,,76,0
2352,note_on,2,0,1,,,,,,,,0,,,64,75
2384,note_on,32,0,1,,,,,,,,0,,,64,0
2398,note_on,94,0,2,,,,,,,,1,,,58,0
2400,note_on,16,0,1,,,,,,,,0,,,65,75
2400,note_on,2,0,2,,,,,,,,1,,,62,75
2446,note_on,46,0,1,,,,,,,,0,,,65,0
2448,note_on,2,0,1,,,,,,,,0,,,64,75
2494,note_on,46,0,1,,,,,,,,0,,,64,0
2494,note_on,94,0,2,,,,,,,,1,,,62,0
2496,note_on,2,0,2,,,,,,,,1,,,58,75
2496,note_on,2,0,1,,,,,,,,0,,,65,75
2542,note_on,46,0,1,,,,,,,,0,,,65,0
2544,note_on,2,0,1,,,,,,,,0,,,67,75
2590,note_on,46,0,1,,,,,,,,0,,,67,0
2590,note_on,94,0,2,,,,,,,,1,,,58,0
2592,note_on,2,0,2,,,,,,,,1,,,60,75
2592,note_on,2,0,1,,,,,,,,0,,,69,75
2624,note_on,32,0,2,,,,,,,,1,,,60,0
2686,note_on,94,0,1,,,,,,,,0,,,69,0
2688,note_on,2,0,1,,,,,,,,0,,,67,75
2688,note_on,64,0,2,,,,,,,,1,,,48,75
2720,note_on,32,0,2,,,,,,,,1,,,48,0
2782,note_on,94,0,1,,,,,,,,0,,,67,0
2784,note_on,64,0,2,,,,,,,,1,,,53,75
2784,note_on,2,0,1,,,,,,,,0,,,69,75
2878,note_on,94,0,1,,,,,,,,0,,,69,0
2880,note_on,2,0,1,,,,,,,,0,,,65,75
2944,note_on,160,0,2,,,,,,,,1,,,53,0
2974,note_on,94,0,1,,,,,,,,0,,,65,0
2976,note_on,2,0,1,,,,,,,,0,,,64,75
2976,note_on,0,0,1,,,,,,,,0,,,67,75
2976,note_on,0,0,1,,,,,,,,0,,,72,75
3024,note_on,80,0,2,,,,,,,,1,,,52,75
3056,note_on,32,0,2,,,,,,,,1,,,52,0
3072,note_on,16,0,2,,,,,,,,1,,,50,75
3104,note_on,32,0,2,,,,,,,,1,,,50,0
3120,note_on,16,0,2,,,,,,,,1,,,48,75
3136,note_on,0,0,1,,,,,,,,0,,,67,0
3136,note_on,0,0,1,,,,,,,,0,,,64,0
3136,note_on,160,0,1,,,,,,,,0,,,72,0
3152,note_on,32,0,2,,,,,,,,1,,,48,0
3168,note_on,16,0,2,,,,,,,,1,,,55,75
3168,note_on,32,0,1,,,,,,,,0,,,62,75
3216,note_on,48,0,1,,,,,,,,0,,,70,75
3262,note_on,46,0,1,,,,,,,,0,,,70,0
3264,note_on,2,0,1,,,,,,,,0,,,69,75
3310,note_on,46,0,1,,,,,,,,0,,,69,0
3312,note_on,2,0,1,,,,,,,,0,,,67,75
3328,note_on,160,0,2,,,,,,,,1,,,55,0
3328,note_on,16,0,1,,,,,,,,0,,,62,0
3358,note_on,30,0,1,,,,,,,,0,,,67,0
3360,note_on,0,0,1,,,,,,,,0,,,69,75
3360,note_on,0,0,1,,,,,,,,0,,,74,75
3360,note_on,2,0,1,,,,,,,,0,,,65,75
3408,note_on,80,0,2,,,,,,,,1,,,53,75
3440,note_on,32,0,2,,,,,,,,1,,,53,0
3456,note_on,16,0,2,,,,,,,,1,,,52,75
3488,note_on,32,0,2,,,,,,,,1,,,52,0
3504,note_on,16,0,2,,,,,,,,1,,,50,75
3520,note_on,0,0,1,,,,,,,,0,,,65,0
3520,note_on,0,0,1,,,,,,,,0,,,69,0
3520,note_on,160,0,1,,,,,,,,0,,,74,0
3536,note_on,32,0,2,,,,,,,,1,,,50,0
3552,note_on,16,0,2,,,,,,,,1,,,57,75
3552,note_on,32,0,1,,,,,,,,0,,,64,75
3600,note_on,48,0,1,,,,,,,,0,,,72,75
3646,note_on,46,0,1,,,,,,,,0,,,72,0
3648,note_on,2,0,1,,,,,,,,0,,,71,75
3694,note_on,46,0,1,,,,,,,,0,,,71,0
3696,note_on,2,0,1,,,,,,,,0,,,69,75
3712,note_on,160,0,2,,,,,,,,1,,,57,0
3712,note_on,16,0,1,,,,,,,,0,,,64,0
3742,note_on,30,0,1,,,,,,,,0,,,69,0
3744,note_on,0,0,1,,,,,,,,0,,,76,75
3744,note_on,2,0,1,,,,,,,,0,,,71,75
3792,note_on,80,0,2,,,,,,,,1,,,56,75
3824,note_on,32,0,2,,,,,,,,1,,,56,0
3840,note_on,16,0,2,,,,,,,,1,,,54,75
3872,note_on,32,0,2,,,,,,,,1,,,54,0
3888,note_on,16,0,2,,,,,,,,1,,,52,75
3904,note_on,160,0,1,,,,,,,,0,,,76,0
3904,note_on,0,0,1,,,,,,,,0,,,71,0
3920,note_on,32,0,2,,,,,,,,1,,,52,0
3936,note_on,16,0,2,,,,,,,,1,,,60,75
3984,note_on,80,0,1,,,,,,,,0,,,69,75
4030,note_on,46,0,1,,,,,,,,0,,,69,0
4030,note_on,94,0,2,,,,,,,,1,,,60,0
4032,note_on,2,0,1,,,,,,,,0,,,77,75
4032,note_on,2,0,2,,,,,,,,1,,,62,75
4078,note_on,46,0,1,,,,,,,,0,,,77,0
4080,note_on,2,0,1,,,,,,,,0,,,77,75
4126,note_on,94,0,2,,,,,,,,1,,,62,0
4126,note_on,46,0,1,,,,,,,,0,,,77,0
4128,note_on,2,0,2,,,,,,,,1,,,59,75
4128,note_on,2,0,1,,,,,,,,0,,,67,75
4174,note_on,46,0,1,,,,,,,,0,,,67,0
4176,note_on,2,0,1,,,,,,,,0,,,76,75
4222,note_on,94,0,2,,,,,,,,1,,,59,0
4222,note_on,46,0,1,,,,,,,,0,,,76,0
4224,note_on,2,0,1,,,,,,,,0,,,76,75
4224,note_on,2,0,2,,,,,,,,1,,,60,75
4270,note_on,46,0,1,,,,,,,,0,,,76,0
4272,note_on,2,0,1,,,,,,,,0,,,76,75
4318,note_on,46,0,1,,,,,,,,0,,,76,0
4318,note_on,94,0,2,,,,,,,,1,,,60,0
4320,note_on,2,0,1,,,,,,,,0,,,74,75
4320,note_on,2,0,2,,,,,,,,1,,,53,75
4366,note_on,46,0,1,,,,,,,,0,,,74,0
4368,note_on,2,0,1,,,,,,,,0,,,65,75
4414,note_on,94,0,2,,,,,,,,1,,,53,0
4414,note_on,46,0,1,,,,,,,,0,,,65,0
4416,note_on,2,0,2,,,,,,,,1,,,55,75
4416,note_on,2,0,1,,,,,,,,0,,,65,75
4462,note_on,46,0,1,,,,,,,,0,,,65,0
4464,note_on,2,0,1,,,,,,,,0,,,65,75
4510,note_on,94,0,2,,,,,,,,1,,,55,0
4510,note_on,46,0,1,,,,,,,,0,,,65,0
4512,note_on,2,0,2,,,,,,,,1,,,57,75
4512,note_on,2,0,1,,,,,,,,0,,,64,75
4558,note_on,46,0,1,,,,,,,,0,,,64,0
4560,note_on,2,0,1,,,,,,,,0,,,72,75
4606,note_on,94,0,2,,,,,,,,1,,,57,0
4606,note_on,46,0,1,,,,,,,,0,,,72,0
4608,note_on,2,0,2,,,,,,,,1,,,45,75
4608,note_on,2,0,1,,,,,,,,0,,,72,75
4654,note_on,46,0,1,,,,,,,,0,,,72,0
4656,note_on,2,0,1,,,,,,,,0,,,72,75
4702,note_on,46,0,1,,,,,,,,0,,,72,0
4702,note_on,94,0,2,,,,,,,,1,,,45,0
4704,note_on,2,0,1,,,,,,,,0,,,65,75
4704,note_on,2,0,2,,,,,,,,1,,,50,75
4752,note_on,48,0,1,,,,,,,,0,,,72,75
4798,note_on,46,0,1,,,,,,,,0,,,72,0
4800,note_on,2,0,1,,,,,,,,0,,,71,75
4800,note_on,96,0,2,,,,,,,,1,,,62,75
4846,note_on,46,0,1,,,,,,,,0,,,71,0
4848,note_on,2,0,1,,,,,,,,0,,,69,75
4864,note_on,16,0,1,,,,,,,,0,,,65,0
4864,note_on,64,0,2,,,,,,,,1,,,50,0
4894,note_on,30,0,1,,,,,,,,0,,,69,0
4896,note_on,2,0,1,,,,,,,,0,,,64,75
4896,note_on,0,0,1,,,,,,,,0,,,68,75
4896,note_on,32,0,2,,,,,,,,1,,,52,75
4942,note_on,46,0,2,,,,,,,,1,,,62,0
4944,note_on,2,0,2,,,,,,,,1,,,60,75
4990,note_on,94,0,1,,,,,,,,0,,,68,0
4990,note_on,46,0,2,,,,,,,,1,,,60,0
4992,note_on,2,0,2,,,,,,,,1,,,59,75
4992,note_on,2,0,1,,,,,,,,0,,,69,75
5038,note_on,46,0,2,,,,,,,,1,,,59,0
5040,note_on,2,0,2,,,,,,,,1,,,57,75
5056,note_on,64,0,1,,,,,,,,0,,,64,0
5056,note_on,16,0,2,,,,,,,,1,,,52,0
5086,note_on,30,0,2,,,,,,,,1,,,57,0
5086,note_on,30,0,1,,,,,,,,0,,,69,0
5088,note_on,2,0,2,,,,,,,,1,,,56,75
5088,note_on,2,0,1,,,,,,,,0,,,71,75
5134,note_on,46,0,2,,,,,,,,1,,,56,0
5136,note_on,2,0,2,,,,,,,,1,,,52,75
5182,note_on,46,0,2,,,,,,,,1,,,52,0
5182,note_on,94,0,1,,,,,,,,0,,,71,0
5184,note_on,2,0,1,,,,,,,,0,,,72,75
5184,note_on,2,0,2,,,,,,,,1,,,57,75
5230,note_on,46,0,1,,,,,,,,0,,,72,0
5230,note_on,46,0,2,,,,,,,,1,,,57,0
5232,note_on,2,0,1,,,,,,,,0,,,74,75
5232,note_on,2,0,2,,,,,,,,1,,,50,75
5278,note_on,46,0,2,,,,,,,,1,,,50,0
5278,note_on,46,0,1,,,,,,,,0,,,74,0
5280,note_on,2,0,1,,,,,,,,0,,,72,75
5280,note_on,2,0,2,,,,,,,,1,,,52,75
5290,note_on,10,0,1,,,,,,,,0,,,72,0
5292,note_on,2,0,1,,,,,,,,0,,,71,75
5302,note_on,10,0,1,,,,,,,,0,,,71,0
5304,note_on,2,0,1,,,,,,,,0,,,72,75
5314,note_on,10,0,1,,,,,,,,0,,,72,0
5316,note_on,2,0,1,,,,,,,,0,,,71,75
5326,note_on,10,0,1,,,,,,,,0,,,71,0
5328,note_on,2,0,1,,,,,,,,0,,,72,75
5338,note_on,10,0,1,,,,,,,,0,,,72,0
5340,note_on,2,0,1,,,,,,,,0,,,71,75
5350,note_on,10,0,1,,,,,,,,0,,,71,0
5352,note_on,2,0,1,,,,,,,,0,,,71,75
5376,note_on,96,0,2,,,,,,,,1,,,56,75
5422,note_on,70,0,1,,,,,,,,0,,,71,0
5424,note_on,2,0,1,,,,,,,,0,,,69,75
5440,note_on,64,0,2,,,,,,,,1,,,52,0
5470,note_on,30,0,2,,,,,,,,1,,,56,0
5470,note_on,46,0,1,,,,,,,,0,,,69,0
5472,note_on,0,0,1,,,,,,,,0,,,64,75
5472,note_on,2,0,1,,,,,,,,0,,,61,75
5472,note_on,2,0,2,,,,,,,,1,,,57,75
5472,note_on,0,0,1,,,,,,,,0,,,69,75
5566,note_on,94,0,2,,,,,,,,1,,,57,0
5568,note_on,2,0,2,,,,,,,,1,,,45,75
5632,note_on,160,0,1,,,,,,,,0,,,69,0
5662,note_on,94,0,2,,,,,,,,1,,,45,0
5664,note_on,2,0,2,,,,,,,,1,,,49,75
5712,note_on,80,0,1,,,,,,,,0,,,69,75
5728,note_on,16,0,1,,,,,,,,0,,,64,0
5728,note_on,0,0,1,,,,,,,,0,,,61,0
5758,note_on,94,0,2,,,,,,,,1,,,49,0
5760,note_on,0,0,2,,,,,,,,1,,,59,75
5760,note_on,2,0,2,,,,,,,,1,,,52,75
5806,note_on,78,0,1,,,,,,,,0,,,69,0
5808,note_on,2,0,1,,,,,,,,0,,,68,75
5854,note_on,46,0,1,,,,,,,,0,,,68,0
5854,note_on,0,0,2,,,,,,,,1,,,52,0
5854,note_on,94,0,2,,,,,,,,1,,,59,0
5856,note_on,2,0,2,,,,,,,,1,,,45,75
5856,note_on,0,0,2,,,,,,,,1,,,52,75
5856,note_on,0,0,2,,,,,,,,1,,,57,75
5856,note_on,2,0,1,,,,,,,,0,,,61,75
5856,note_on,0,0,1,,,,,,,,0,,,64,75
5856,note_on,0,0,1,,,,,,,,0,,,69,75
6112,note_on,256,0,1,,,,,,,,0,,,69,0
6112,note_on,0,0,1,,,,,,,,0,,,64,0
6112,note_on,0,0,1,,,,,,,,0,,,61,0
6112,note_on,0,0,2,,,,,,,,1,,,45,0
6112,note_on,0,0,2,,,,,,,,1,,,52,0
6112,note_on,256,0,2,,,,,,,,1,,,57,0
6144,set_tempo,6144,1,0,,,,,,1153846,,,,,,
6144,note_on,32,0,1,,,,,,,,0,,,69,75
6240,note_on,96,0,1,,,,,,,,0,,,69,0
6240,note_on,128,0,2,,,,,,,,1,,,62,75
6240,note_on,0,0,1,,,,,,,,0,,,69,75
6288,note_on,48,0,1,,,,,,,,0,,,67,75
6320,note_on,32,0,1,,,,,,,,0,,,67,0
6334,note_on,94,0,2,,,,,,,,1,,,62,0
6336,note_on,16,0,1,,,,,,,,0,,,65,75
6336,note_on,2,0,2,,,,,,,,1,,,57,75
6368,note_on,32,0,1,,,,,,,,0,,,65,0
6384,note_on,16,0,1,,,,,,,,0,,,64,75
6416,note_on,32,0,1,,,,,,,,0,,,64,0
6430,note_on,94,0,2,,,,,,,,1,,,57,0
6432,note_on,16,0,1,,,,,,,,0,,,65,75
6432,note_on,2,0,2,,,,,,,,1,,,50,75
6478,note_on,46,0,1,,,,,,,,0,,,69,0
6480,note_on,2,0,1,,,,,,,,0,,,69,75
6526,note_on,94,0,2,,,,,,,,1,,,50,0
6528,note_on,48,0,1,,,,,,,,0,,,69,0
6528,note_on,0,0,1,,,,,,,,0,,,70,75
6528,note_on,2,0,2,,,,,,,,1,,,55,75
6576,note_on,48,0,1,,,,,,,,0,,,70,0
6576,note_on,0,0,1,,,,,,,,0,,,67,75
6592,note_on,16,0,1,,,,,,,,0,,,65,0
6622,note_on,94,0,2,,,,,,,,1,,,55,0
6624,note_on,32,0,1,,,,,,,,0,,,67,0
6624,note_on,0,0,1,,,,,,,,0,,,69,75
6624,note_on,2,0,2,,,,,,,,1,,,62,75
6672,note_on,48,0,1,,,,,,,,0,,,67,75
6704,note_on,32,0,1,,,,,,,,0,,,67,0
6718,note_on,94,0,2,,,,,,,,1,,,62,0
6720,note_on,2,0,2,,,,,,,,1,,,57,75
6720,note_on,16,0,1,,,,,,,,0,,,65,75
6752,note_on,32,0,1,,,,,,,,0,,,65,0
6768,note_on,16,0,1,,,,,,,,0,,,64,75
6800,note_on,32,0,1,,,,,,,,0,,,64,0
6814,note_on,94,0,2,,,,,,,,1,,,57,0
6816,note_on,2,0,2,,,,,,,,1,,,50,75
6816,note_on,16,0,1,,,,,,,,0,,,65,75
6862,note_on,46,0,1,,,,,,,,0,,,69,0
6864,note_on,2,0,1,,,,,,,,0,,,69,75
6912,note_on,48,0,1,,,,,,,,0,,,69,0
6912,note_on,0,0,1,,,,,,,,0,,,70,75
6912,note_on,96,0,2,,,,,,,,1,,,60,75
6960,note_on,48,0,1,,,,,,,,0,,,70,0
6960,note_on,0,0,1,,,,,,,,0,,,72,75
6976,note_on,16,0,1,,,,,,,,0,,,65,0
6976,note_on,64,0,2,,,,,,,,1,,,50,0
7006,note_on,30,0,2,,,,,,,,1,,,60,0
7008,note_on,2,0,2,,,,,,,,1,,,58,75
7008,note_on,32,0,1,,,,,,,,0,,,72,0
7008,note_on,0,0,1,,,,,,,,0,,,74,75
7056,note_on,48,0,1,,,,,,,,0,,,69,75
7088,note_on,32,0,1,,,,,,,,0,,,69,0
7102,note_on,94,0,2,,,,,,,,1,,,58,0
7104,note_on,2,0,2,,,,,,,,1,,,57,75
7104,note_on,16,0,1,,,,,,,,0,,,67,75
7136,note_on,32,0,1,,,,,,,,0,,,67,0
7152,note_on,16,0,1,,,,,,,,0,,,65,75
7184,note_on,32,0,1,,,,,,,,0,,,65,0
7198,note_on,94,0,2,,,,,,,,1,,,57,0
7200,note_on,2,0,2,,,,,,,,1,,,58,75
7200,note_on,16,0,1,,,,,,,,0,,,67,75
7246,note_on,46,0,1,,,,,,,,0,,,74,0
7248,note_on,2,0,1,,,,,,,,0,,,77,75
7294,note_on,94,0,2,,,,,,,,1,,,58,0
7294,note_on,46,0,1,,,,,,,,0,,,77,0
7296,note_on,2,0,2,,,,,,,,1,,,55,75
7296,note_on,2,0,1,,,,,,,,0,,,76,75
7342,note_on,46,0,1,,,,,,,,0,,,76,0
7344,note_on,2,0,1,,,,,,,,0,,,74,75
7360,note_on,16,0,1,,,,,,,,0,,,67,0
7390,note_on,30,0,1,,,,,,,,0,,,74,0
7390,note_on,94,0,2,,,,,,,,1,,,55,0
7392,note_on,2,0,1,,,,,,,,0,,,74,75
7392,note_on,2,0,2,,,,,,,,1,,,57,75
7486,note_on,94,0,1,,,,,,,,0,,,74,0
7486,note_on,94,0,2,,,,,,,,1,,,57,0
7488,note_on,2,0,2,,,,,,,,1,,,64,75
7488,note_on,2,0,1,,,,,,,,0,,,73,75
7582,note_on,94,0,1,,,,,,,,0,,,73,0
7582,note_on,94,0,2,,,,,,,,1,,,64,0
7584,note_on,2,0,2,,,,,,,,1,,,69,75
7632,note_on,50,0,1,,,,,,,,0,,,73,75
7678,note_on,46,0,1,,,,,,,,0,,,73,0
7678,note_on,94,0,2,,,,,,,,1,,,69,0
7680,note_on,2,0,1,,,,,,,,0,,,74,75
7680,note_on,2,0,2,,,,,,,,1,,,61,75
7726,note_on,46,0,1,,,,,,,,0,,,74,0
7728,note_on,2,0,1,,,,,,,,0,,,76,75
7774,note_on,46,0,1,,,,,,,,0,,,76,0
7774,note_on,94,0,2,,,,,,,,1,,,61,0
7776,note_on,2,0,1,,,,,,,,0,,,77,75
7776,note_on,2,0,2,,,,,,,,1,,,62,75
7822,note_on,46,0,1,,,,,,,,0,,,77,0
7824,note_on,2,0,1,,,,,,,,0,,,69,75
7856,note_on,32,0,1,,,,,,,,0,,,69,0
7870,note_on,94,0,2,,,,,,,,1,,,62,0
7872,note_on,2,0,2,,,,,,,,1,,,60,75
7872,note_on,16,0,1,,,,,,,,0,,,76,75
7918,note_on,46,0,1,,,,,,,,0,,,76,0
7920,note_on,2,0,1,,,,,,,,0,,,69,75
7952,note_on,32,0,1,,,,,,,,0,,,69,0
7966,note_on,94,0,2,,,,,,,,1,,,60,0
7968,note_on,2,0,2,,,,,,,,1,,,58,75
7968,note_on,16,0,1,,,,,,,,0,,,74,75
8014,note_on,46,0,1,,,,,,,,0,,,74,0
8016,note_on,2,0,1,,,,,,,,0,,,67,75
8048,note_on,32,0,1,,,,,,,,0,,,67,0
8062,note_on,94,0,2,,,,,,,,1,,,58,0
8064,note_on,16,0,1,,,,,,,,0,,,72,75
8064,note_on,2,0,2,,,,,,,,1,,,57,75
8110,note_on,46,0,1,,,,,,,,0,,,72,0
8112,note_on,2,0,1,,,,,,,,0,,,65,75
8144,note_on,32,0,1,,,,,,,,0,,,65,0
8158,note_on,94,0,2,,,,,,,,1,,,57,0
8160,note_on,2,0,2,,,,,,,,1,,,55,75
8160,note_on,16,0,1,,,,,,,,0,,,70,75
8206,note_on,46,0,1,,,,,,,,0,,,70,0
8208,note_on,2,0,1,,,,,,,,0,,,64,75
8240,note_on,32,0,1,,,,,,,,0,,,64,0
8254,note_on,94,0,2,,,,,,,,1,,,55,0
8256,note_on,16,0,1,,,,,,,,0,,,69,75
8256,note_on,2,0,2,,,,,,,,1,,,53,75
8302,note_on,46,0,1,,,,,,,,0,,,69,0
8304,note_on,2,0,1,,,,,,,,0,,,65,75
8336,note_on,32,0,1,,,,,,,,0,,,65,0
8350,note_on,94,0,2,,,,,,,,1,,,53,0
8352,note_on,16,0,1,,,,,,,,0,,,67,75
8352,note_on,2,0,2,,,,,,,,1,,,60,75
8398,note_on,46,0,1,,,,,,,,0,,,67,0
8400,note_on,2,0,1,,,,,,,,0,,,64,75
8432,note_on,32,0,1,,,,,,,,0,,,64,0
8446,note_on,94,0,2,,,,,,,,1,,,60,0
8448,note_on,16,0,1,,,,,,,,0,,,76,75
8448,note_on,2,0,2,,,,,,,,1,,,58,75
8494,note_on,46,0,1,,,,,,,,0,,,76,0
8496,note_on,2,0,1,,,,,,,,0,,,64,75
8528,note_on,32,0,1,,,,,,,,0,,,64,0
8542,note_on,94,0,2,,,,,,,,1,,,58,0
8544,note_on,16,0,1,,,,,,,,0,,,65,75
8544,note_on,2,0,2,,,,,,,,1,,,62,75
8590,note_on,46,0,1,,,,,,,,0,,,65,0
8592,note_on,2,0,1,,,,,,,,0,,,64,75
8638,note_on,94,0,2,,,,,,,,1,,,62,0
8638,note_on,46,0,1,,,,,,,,0,,,64,0
8640,note_on,2,0,2,,,,,,,,1,,,58,75
8640,note_on,2,0,1,,,,,,,,0,,,65,75
8686,note_on,46,0,1,,,,,,,,0,,,65,0
8688,note_on,2,0,1,,,,,,,,0,,,67,75
8734,note_on,94,0,2,,,,,,,,1,,,58,0
8734,note_on,46,0,1,,,,,,,,0,,,67,0
8736,note_on,2,0,2,,,,,,,,1,,,60,75
8736,note_on,2,0,1,,,,,,,,0,,,69,75
8768,note_on,32,0,2,,,,,,,,1,,,60,0
8830,note_on,94,0,1,,,,,,,,0,,,69,0
8832,note_on,64,0,2,,,,,,,,1,,,48,75
8832,note_on,2,0,1,,,,,,,,0,,,67,75
8864,note_on,32,0,2,,,,,,,,1,,,48,0
8926,note_on,94,0,1,,,,,,,,0,,,67,0
8928,note_on,64,0,2,,,,,,,,1,,,53,75
8928,note_on,2,0,1,,,,,,,,0,,,69,75
9022,note_on,94,0,1,,,,,,,,0,,,69,0
9024,note_on,2,0,1,,,,,,,,0,,,65,75
9088,note_on,160,0,2,,,,,,,,1,,,53,0
9118,note_on,94,0,1,,,,,,,,0,,,65,0
9120,note_on,0,0,1,,,,,,,,0,,,72,75
9120,note_on,0,0,1,,,,,,,,0,,,67,75
9120,note_on,2,0,1,,,,,,,,0,,,64,75
9168,note_on,80,0,2,,,,,,,,1,,,52,75
9200,note_on,32,0,2,,,,,,,,1,,,52,0
9216,note_on,16,0,2,,,,,,,,1,,,50,75
9248,note_on,32,0,2,,,,,,,,1,,,50,0
9264,note_on,16,0,2,,,,,,,,1,,,48,75
9280,note_on,0,0,1,,,,,,,,0,,,64,0
9280,note_on,160,0,1,,,,,,,,0,,,72,0
9280,note_on,0,0,1,,,,,,,,0,,,67,0
9296,note_on,32,0,2,,,,,,,,1,,,48,0
9312,note_on,32,0,1,,,,,,,,0,,,62,75
9312,note_on,16,0,2,,,,,,,,1,,,55,75
9360,note_on,48,0,1,,,,,,,,0,,,70,75
9406,note_on,46,0,1,,,,,,,,0,,,70,0
9408,note_on,2,0,1,,,,,,,,0,,,69,75
9454,note_on,46,0,1,,,,,,,,0,,,69,0
9456,note_on,2,0,1,,,,,,,,0,,,67,75
9472,note_on,16,0,1,,,,,,,,0,,,62,0
9472,note_on,160,0,2,,,,,,,,1,,,55,0
9502,note_on,30,0,1,,,,,,,,0,,,67,0
9504,note_on,0,0,1,,,,,,,,0,,,69,75
9504,note_on,2,0,1,,,,,,,,0,,,65,75
9504,note_on,0,0,1,,,,,,,,0,,,74,75
9552,note_on,80,0,2,,,,,,,,1,,,53,75
9584,note_on,32,0,2,,,,,,,,1,,,53,0
9600,note_on,16,0,2,,,,,,,,1,,,52,75
9632,note_on,32,0,2,,,,,,,,1,,,52,0
9648,note_on,16,0,2,,,,,,,,1,,,50,75
9664,note_on,160,0,1,,,,,,,,0,,,74,0
9664,note_on,0,0,1,,,,,,,,0,,,69,0
9664,note_on,0,0,1,,,,,,,,0,,,65,0
9680,note_on,32,0,2,,,,,,,,1,,,50,0
9696,note_on,32,0,1,,,,,,,,0,,,64,75
9696,note_on,16,0,2,,,,,,,,1,,,57,75
9744,note_on,48,0,1,,,,,,,,0,,,72,75
9790,note_on,46,0,1,,,,,,,,0,,,72,0
9792,note_on,2,0,1,,,,,,,,0,,,71,75
9838,note_on,46,0,1,,,,,,,,0,,,71,0
9840,note_on,2,0,1,,,,,,,,0,,,69,75
9856,note_on,160,0,2,,,,,,,,1,,,57,0
9856,note_on,16,0,1,,,,,,,,0,,,64,0
9886,note_on,30,0,1,,,,,,,,0,,,69,0
9888,note_on,2,0,1,,,,,,,,0,,,71,75
9888,note_on,0,0,1,,,,,,,,0,,,76,75
9936,note_on,80,0,2,,,,,,,,1,,,56,75
9968,note_on,32,0,2,,,,,,,,1,,,56,0
9984,note_on,16,0,2,,,,,,,,1,,,54,75
10016,note_on,32,0,2,,,,,,,,1,,,54,0
10032,note_on,16,0,2,,,,,,,,1,,,52,75
10048,note_on,160,0,1,,,,,,,,0,,,76,0
10048,note_on,0,0,1,,,,,,,,0,,,71,0
10064,note_on,32,0,2,,,,,,,,1,,,52,0
10080,note_on,16,0,2,,,,,,,,1,,,60,75
10128,note_on,80,0,1,,,,,,,,0,,,69,75
10174,note_on,46,0,1,,,,,,,,0,,,69,0
10174,note_on,94,0,2,,,,,,,,1,,,60,0
10176,note_on,2,0,1,,,,,,,,0,,,77,75
10176,note_on,2,0,2,,,,,,,,1,,,62,75
10222,note_on,46,0,1,,,,,,,,0,,,77,0
10224,note_on,2,0,1,,,,,,,,0,,,77,75
10270,note_on,46,0,1,,,,,,,,0,,,77,0
10270,note_on,94,0,2,,,,,,,,1,,,62,0
10272,note_on,2,0,1,,,,,,,,0,,,67,75
10272,note_on,2,0,2,,,,,,,,1,,,59,75
10318,note_on,46,0,1,,,,,,,,0,,,67,0
10320,note_on,2,0,1,,,,,,,,0,,,76,75
10366,note_on,46,0,1,,,,,,,,0,,,76,0
10366,note_on,94,0,2,,,,,,,,1,,,59,0
10368,note_on,2,0,2,,,,,,,,1,,,60,75
10368,note_on,2,0,1,,,,,,,,0,,,76,75
10414,note_on,46,0,1,,,,,,,,0,,,76,0
10416,note_on,2,0,1,,,,,,,,0,,,76,75
10462,note_on,94,0,2,,,,,,,,1,,,60,0
10462,note_on,46,0,1,,,,,,,,0,,,76,0
10464,note_on,2,0,1,,,,,,,,0,,,74,75
10464,note_on,2,0,2,,,,,,,,1,,,53,75
10510,note_on,46,0,1,,,,,,,,0,,,74,0
10512,note_on,2,0,1,,,,,,,,0,,,65,75
10558,note_on,94,0,2,,,,,,,,1,,,53,0
10558,note_on,46,0,1,,,,,,,,0,,,65,0
10560,note_on,2,0,1,,,,,,,,0,,,65,75
10560,note_on,2,0,2,,,,,,,,1,,,55,75
10606,note_on,46,0,1,,,,,,,,0,,,65,0
10608,note_on,2,0,1,,,,,,,,0,,,65,75
10654,note_on,46,0,1,,,,,,,,0,,,65,0
10654,note_on,94,0,2,,,,,,,,1,,,55,0
10656,note_on,2,0,1,,,,,,,,0,,,64,75
10656,note_on,2,0,2,,,,,,,,1,,,57,75
10702,note_on,46,0,1,,,,,,,,0,,,64,0
10704,note_on,2,0,1,,,,,,,,0,,,72,75
10750,note_on,46,0,1,,,,,,,,0,,,72,0
10750,note_on,94,0,2,,,,,,,,1,,,57,0
10752,note_on,2,0,1,,,,,,,,0,,,72,75
10752,note_on,2,0,2,,,,,,,,1,,,45,75
10798,note_on,46,0,1,,,,,,,,0,,,72,0
10800,note_on,2,0,1,,,,,,,,0,,,72,75
10846,note_on,46,0,1,,,,,,,,0,,,72,0
10846,note_on,94,0,2,,,,,,,,1,,,45,0
10848,note_on,2,0,2,,,,,,,,1,,,50,75
10848,note_on,2,0,1,,,,,,,,0,,,65,75
10896,note_on,48,0,1,,,,,,,,0,,,72,75
10942,note_on,46,0,1,,,,,,,,0,,,72,0
10944,note_on,2,0,1,,,,,,,,0,,,71,75
10944,note_on,96,0,2,,,,,,,,1,,,62,75
10990,note_on,46,0,1,,,,,,,,0,,,71,0
10992,note_on,2,0,1,,,,,,,,0,,,69,75
11008,note_on,16,0,1,,,,,,,,0,,,65,0
11008,note_on,64,0,2,,,,,,,,1,,,50,0
11038,note_on,30,0,1,,,,,,,,0,,,69,0
11040,note_on,32,0,2,,,,,,,,1,,,52,75
11040,note_on,0,0,1,,,,,,,,0,,,68,75
11040,note_on,2,0,1,,,,,,,,0,,,64,75
11086,note_on,46,0,2,,,,,,,,1,,,62,0
11088,note_on,2,0,2,,,,,,,,1,,,60,75
11134,note_on,94,0,1,,,,,,,,0,,,68,0
11134,note_on,46,0,2,,,,,,,,1,,,60,0
11136,note_on,2,0,1,,,,,,,,0,,,69,75
11136,note_on,2,0,2,,,,,,,,1,,,59,75
11182,note_on,46,0,2,,,,,,,,1,,,59,0
11184,note_on,2,0,2,,,,,,,,1,,,57,75
11200,note_on,64,0,1,,,,,,,,0,,,64,0
11200,note_on,16,0,2,,,,,,,,1,,,52,0
11230,note_on,30,0,1,,,,,,,,0,,,69,0
11230,note_on,30,0,2,,,,,,,,1,,,57,0
11232,note_on,2,0,1,,,,,,,,0,,,71,75
11232,note_on,2,0,2,,,,,,,,1,,,56,75
11278,note_on,46,0,2,,,,,,,,1,,,56,0
11280,note_on,2,0,2,,,,,,,,1,,,52,75
11326,note_on,94,0,1,,,,,,,,0,,,71,0
11326,note_on,46,0,2,,,,,,,,1,,,52,0
11328,note_on,2,0,1,,,,,,,,0,,,72,75
11328,note_on,2,0,2,,,,,,,,1,,,57,75
11374,note_on,46,0,2,,,,,,,,1,,,57,0
11374,note_on,46,0,1,,,,,,,,0,,,72,0
11376,note_on,2,0,2,,,,,,,,1,,,50,75
11376,note_on,2,0,1,,,,,,,,0,,,74,75
11422,note_on,46,0,2,,,,,,,,1,,,50,0
11422,note_on,46,0,1,,,,,,,,0,,,74,0
11424,note_on,2,0,2,,,,,,,,1,,,52,75
11424,note_on,2,0,1,,,,,,,,0,,,72,75
11434,note_on,10,0,1,,,,,,,,0,,,72,0
11436,note_on,2,0,1,,,,,,,,0,,,71,75
11446,note_on,10,0,1,,,,,,,,0,,,71,0
11448,note_on,2,0,1,,,,,,,,0,,,72,75
11458,note_on,10,0,1,,,,,,,,0,,,72,0
11460,note_on,2,0,1,,,,,,,,0,,,71,75
11470,note_on,10,0,1,,,,,,,,0,,,71,0
11472,note_on,2,0,1,,,,,,,,0,,,72,75
11482,note_on,10,0,1,,,,,,,,0,,,72,0
11484,note_on,2,0,1,,,,,,,,0,,,71,75
11494,note_on,10,0,1,,,,,,,,0,,,71,0
11496,note_on,2,0,1,,,,,,,,0,,,71,75
11520,note_on,96,0,2,,,,,,,,1,,,56,75
11566,note_on,70,0,1,,,,,,,,0,,,71,0
11568,note_on,2,0,1,,,,,,,,0,,,69,75
11584,note_on,64,0,2,,,,,,,,1,,,52,0
11614,note_on,46,0,1,,,,,,,,0,,,69,0
11614,note_on,30,0,2,,,,,,,,1,,,56,0
11616,note_on,2,0,2,,,,,,,,1,,,57,75
11616,note_on,2,0,1,,,,,,,,0,,,61,75
11616,note_on,0,0,1,,,,,,,,0,,,64,75
11616,note_on,0,0,1,,,,,,,,0,,,69,75
11710,note_on,94,0,2,,,,,,,,1,,,57,0
11712,note_on,2,0,2,,,,,,,,1,,,45,75
11776,note_on,160,0,1,,,,,,,,0,,,69,0
11806,note_on,94,0,2,,,,,,,,1,,,45,0
11808,note_on,2,0,2,,,,,,,,1,,,49,75
11856,note_on,80,0,1,,,,,,,,0,,,69,75
11872,note_on,16,0,1,,,,,,,,0,,,64,0
11872,note_on,0,0,1,,,,,,,,0,,,61,0
11902,note_on,94,0,2,,,,,,,,1,,,49,0
11904,note_on,2,0,2,,,,,,,,1,,,52,75
11904,note_on,0,0,2,,,,,,,,1,,,59,75
11950,note_on,78,0,1,,,,,,,,0,,,69,0
11952,note_on,2,0,1,,,,,,,,0,,,68,75
11998,note_on,0,0,2,,,,,,,,1,,,52,0
11998,note_on,94,0,2,,,,,,,,1,,,59,0
11998,note_on,46,0,1,,,,,,,,0,,,68,0
12000,note_on,2,0,2,,,,,,,,1,,,45,75
12000,note_on,0,0,2,,,,,,,,1,,,57,75
12000,note_on,2,0,1,,,,,,,,0,,,61,75
12000,note_on,0,0,1,,,,,,,,0,,,64,75
12000,note_on,0,0,1,,,,,,,,0,,,69,75
12000,note_on,0,0,2,,,,,,,,1,,,52,75
12256,note_on,256,0,1,,,,,,,,0,,,69,0
12256,note_on,0,0,2,,,,,,,,1,,,45,0
12256,note_on,0,0,2,,,,,,,,1,,,52,0
12256,note_on,256,0,2,,,,,,,,1,,,57,0
12256,note_on,0,0,1,,,,,,,,0,,,61,0
12256,note_on,0,0,1,,,,,,,,0,,,64,0
12288,note_on,32,0,1,,,,,,,,0,,,76,75
12382,note_on,94,0,1,,,,,,,,0,,,76,0
12384,note_on,2,0,1,,,,,,,,0,,,76,75
12384,note_on,128,0,2,,,,,,,,1,,,69,75
12432,note_on,48,0,1,,,,,,,,0,,,74,75
12464,note_on,32,0,1,,,,,,,,0,,,74,0
12478,note_on,94,0,2,,,,,,,,1,,,69,0
12480,note_on,2,0,2,,,,,,,,1,,,67,75
12480,note_on,16,0,1,,,,,,,,0,,,73,75
12512,note_on,32,0,1,,,,,,,,0,,,73,0
12528,note_on,16,0,1,,,,,,,,0,,,71,75
12560,note_on,32,0,1,,,,,,,,0,,,71,0
12574,note_on,94,0,2,,,,,,,,1,,,67,0
12576,note_on,16,0,1,,,,,,,,0,,,73,75
12576,note_on,2,0,2,,,,,,,,1,,,57,75
12622,note_on,46,0,1,,,,,,,,0,,,76,0
12624,note_on,2,0,1,,,,,,,,0,,,76,75
12670,note_on,46,0,1,,,,,,,,0,,,76,0
12670,note_on,94,0,2,,,,,,,,1,,,57,0
12672,note_on,2,0,1,,,,,,,,0,,,77,75
12672,note_on,2,0,2,,,,,,,,1,,,62,75
12718,note_on,46,0,1,,,,,,,,0,,,77,0
12720,note_on,2,0,1,,,,,,,,0,,,74,75
12736,note_on,16,0,1,,,,,,,,0,,,73,0
12766,note_on,94,0,2,,,,,,,,1,,,62,0
12766,note_on,30,0,1,,,,,,,,0,,,74,0
12768,note_on,2,0,2,,,,,,,,1,,,69,75
12768,note_on,2,0,1,,,,,,,,0,,,76,75
12816,note_on,48,0,1,,,,,,,,0,,,74,75
12848,note_on,32,0,1,,,,,,,,0,,,74,0
12862,note_on,94,0,2,,,,,,,,1,,,69,0
12864,note_on,16,0,1,,,,,,,,0,,,73,75
12864,note_on,2,0,2,,,,,,,,1,,,64,75
12896,note_on,32,0,1,,,,,,,,0,,,73,0
12912,note_on,16,0,1,,,,,,,,0,,,71,75
12944,note_on,32,0,1,,,,,,,,0,,,71,0
12958,note_on,94,0,2,,,,,,,,1,,,64,0
12960,note_on,16,0,1,,,,,,,,0,,,73,75
12960,note_on,2,0,2,,,,,,,,1,,,57,75
13008,note_on,48,0,2,,,,,,,,1,,,67,75
13024,note_on,64,0,1,,,,,,,,0,,,76,0
13040,note_on,32,0,2,,,,,,,,1,,,67,0
13056,note_on,32,0,1,,,,,,,,0,,,76,75
13056,note_on,16,0,2,,,,,,,,1,,,65,75
13088,note_on,32,0,2,,,,,,,,1,,,65,0
13104,note_on,16,0,2,,,,,,,,1,,,64,75
13120,note_on,64,0,1,,,,,,,,0,,,73,0
13120,note_on,16,0,2,,,,,,,,1,,,57,0
13136,note_on,16,0,2,,,,,,,,1,,,64,0
13150,note_on,30,0,1,,,,,,,,0,,,76,0
13152,note_on,2,0,1,,,,,,,,0,,,77,75
13152,note_on,16,0,2,,,,,,,,1,,,62,75
13200,note_on,48,0,1,,,,,,,,0,,,69,75
13232,note_on,32,0,1,,,,,,,,0,,,69,0
13246,note_on,94,0,2,,,,,,,,1,,,62,0
13248,note_on,16,0,1,,,,,,,,0,,,71,75
13248,note_on,2,0,2,,,,,,,,1,,,50,75
13280,note_on,32,0,1,,,,,,,,0,,,71,0
13296,note_on,16,0,1,,,,,,,,0,,,72,75
13328,note_on,32,0,1,,,,,,,,0,,,72,0
13342,note_on,94,0,2,,,,,,,,1,,,50,0
13344,note_on,2,0,2,,,,,,,,1,,,55,75
13344,note_on,16,0,1,,,,,,,,0,,,71,75
13390,note_on,46,0,1,,,,,,,,0,,,77,0
13392,note_on,2,0,1,,,,,,,,0,,,81,75
13438,note_on,94,0,2,,,,,,,,1,,,55,0
13438,note_on,46,0,1,,,,,,,,0,,,81,0
13440,note_on,2,0,2,,,,,,,,1,,,59,75
13440,note_on,2,0,1,,,,,,,,0,,,79,75
13486,note_on,46,0,1,,,,,,,,0,,,79,0
13488,note_on,2,0,1,,,,,,,,0,,,77,75
13504,note_on,16,0,1,,,,,,,,0,,,71,0
13534,note_on,30,0,1,,,,,,,,0,,,77,0
13534,note_on,94,0,2,,,,,,,,1,,,59,0
13536,note_on,0,0,1,,,,,,,,0,,,77,75
13536,note_on,2,0,1,,,,,,,,0,,,72,75
13536,note_on,2,0,2,,,,,,,,1,,,48,75
13630,note_on,94,0,1,,,,,,,,0,,,77,0
13630,note_on,94,0,2,,,,,,,,1,,,48,0
13632,note_on,2,0,2,,,,,,,,1,,,60,75
13632,note_on,2,0,1,,,,,,,,0,,,76,75
13696,note_on,64,0,1,,,,,,,,0,,,72,0
13726,note_on,94,0,2,,,,,,,,1,,,60,0
13726,note_on,30,0,1,,,,,,,,0,,,76,0
13728,note_on,2,0,2,,,,,,,,1,,,57,75
13776,note_on,50,0,1,,,,,,,,0,,,72,75
13822,note_on,94,0,2,,,,,,,,1,,,57,0
13822,note_on,46,0,1,,,,,,,,0,,,72,0
13824,note_on,2,0,1,,,,,,,,0,,,77,75
13824,note_on,2,0,2,,,,,,,,1,,,53,75
13870,note_on,46,0,1,,,,,,,,0,,,77,0
13872,note_on,2,0,1,,,,,,,,0,,,76,75
13918,note_on,46,0,1,,,,,,,,0,,,76,0
13918,note_on,94,0,2,,,,,,,,1,,,53,0
13920,note_on,2,0,2,,,,,,,,1,,,58,75
13920,note_on,2,0,1,,,,,,,,0,,,74,75
13968,note_on,48,0,1,,,,,,,,0,,,69,75
14014,note_on,46,0,1,,,,,,,,0,,,69,0
14016,note_on,0,0,2,,,,,,,,1,,,46,75
14016,note_on,2,0,1,,,,,,,,0,,,70,75
14016,note_on,96,0,2,,,,,,,,1,,,58,0
14062,note_on,46,0,1,,,,,,,,0,,,70,0
14064,note_on,2,0,1,,,,,,,,0,,,65,75
14096,note_on,32,0,1,,,,,,,,0,,,65,0
14110,note_on,94,0,2,,,,,,,,1,,,46,0
14112,note_on,2,0,2,,,,,,,,1,,,58,75
14112,note_on,16,0,1,,,,,,,,0,,,67,75
14144,note_on,32,0,1,,,,,,,,0,,,74,0
14160,note_on,16,0,1,,,,,,,,0,,,74,75
14206,note_on,46,0,1,,,,,,,,0,,,74,0
14208,note_on,2,0,1,,,,,,,,0,,,76,75
14208,note_on,0,0,2,,,,,,,,1,,,57,75
14208,note_on,96,0,2,,,,,,,,1,,,58,0
14240,note_on,32,0,2,,,,,,,,1,,,57,0
14254,note_on,46,0,1,,,,,,,,0,,,76,0
14256,note_on,16,0,2,,,,,,,,1,,,55,75
14256,note_on,2,0,1,,,,,,,,0,,,70,75
14288,note_on,32,0,1,,,,,,,,0,,,70,0
14288,note_on,32,0,2,,,,,,,,1,,,55,0
14304,note_on,16,0,2,,,,,,,,1,,,57,75
14304,note_on,16,0,1,,,,,,,,0,,,72,75
14336,note_on,32,0,2,,,,,,,,1,,,57,0
14350,note_on,46,0,1,,,,,,,,0,,,67,0
14352,note_on,2,0,1,,,,,,,,0,,,67,75
14398,note_on,46,0,1,,,,,,,,0,,,67,0
14400,note_on,64,0,2,,,,,,,,1,,,45,75
14400,note_on,2,0,1,,,,,,,,0,,,69,75
14446,note_on,46,0,1,,,,,,,,0,,,69,0
14448,note_on,2,0,1,,,,,,,,0,,,64,75
14464,note_on,16,0,1,,,,,,,,0,,,72,0
14480,note_on,16,0,1,,,,,,,,0,,,64,0
14496,note_on,16,0,1,,,,,,,,0,,,65,75
14496,note_on,96,0,2,,,,,,,,1,,,45,0
14496,note_on,0,0,1,,,,,,,,0,,,70,75
14496,note_on,0,0,2,,,,,,,,1,,,57,75
14542,note_on,46,0,1,,,,,,,,0,,,70,0
14544,note_on,2,0,1,,,,,,,,0,,,72,75
14590,note_on,46,0,1,,,,,,,,0,,,72,0
14592,note_on,0,0,2,,,,,,,,1,,,55,75
14592,note_on,96,0,2,,,,,,,,1,,,57,0
14592,note_on,2,0,1,,,,,,,,0,,,77,75
14624,note_on,32,0,2,,,,,,,,1,,,55,0
14638,note_on,46,0,1,,,,,,,,0,,,77,0
14640,note_on,2,0,1,,,,,,,,0,,,76,75
14640,note_on,16,0,2,,,,,,,,1,,,53,75
14656,note_on,16,0,1,,,,,,,,0,,,65,0
14672,note_on,32,0,2,,,,,,,,1,,,53,0
14686,note_on,30,0,1,,,,,,,,0,,,76,0
14688,note_on,2,0,1,,,,,,,,0,,,74,75
14688,note_on,16,0,2,,,,,,,,1,,,58,75
14734,note_on,46,0,1,,,,,,,,0,,,74,0
14736,note_on,2,0,1,,,,,,,,0,,,72,75
14782,note_on,46,0,1,,,,,,,,0,,,72,0
14784,note_on,2,0,1,,,,,,,,0,,,70,75
14830,note_on,46,0,1,,,,,,,,0,,,70,0
14832,note_on,2,0,1,,,,,,,,0,,,69,75
14848,note_on,160,0,2,,,,,,,,1,,,58,0
14878,note_on,46,0,1,,,,,,,,0,,,69,0
14880,note_on,2,0,1,,,,,,,,0,,,67,75
14880,note_on,32,0,2,,,,,,,,1,,,46,75
14926,note_on,46,0,1,,,,,,,,0,,,67,0
14928,note_on,2,0,1,,,,,,,,0,,,70,75
14974,note_on,46,0,1,,,,,,,,0,,,70,0
14976,note_on,2,0,1,,,,,,,,0,,,62,75
15022,note_on,46,0,1,,,,,,,,0,,,62,0
15024,note_on,2,0,1,,,,,,,,0,,,65,75
15070,note_on,46,0,1,,,,,,,,0,,,65,0
15072,note_on,2,0,1,,,,,,,,0,,,60,75
15072,note_on,0,0,1,,,,,,,,0,,,64,75
15072,note_on,192,0,2,,,,,,,,1,,,55,75
15118,note_on,46,0,2,,,,,,,,1,,,46,0
15120,note_on,2,0,2,,,,,,,,1,,,50,75
15166,note_on,46,0,2,,,,,,,,1,,,50,0
15168,note_on,2,0,2,,,,,,,,1,,,48,75
15214,note_on,46,0,2,,,,,,,,1,,,48,0
15216,note_on,2,0,2,,,,,,,,1,,,46,75
15232,note_on,16,0,2,,,,,,,,1,,,55,0
15232,note_on,0,0,1,,,,,,,,0,,,60,0
15232,note_on,160,0,1,,,,,,,,0,,,64,0
15262,note_on,30,0,2,,,,,,,,1,,,46,0
15264,note_on,2,0,2,,,,,,,,1,,,45,75
15312,note_on,80,0,1,,,,,,,,0,,,60,75
15358,note_on,46,0,1,,,,,,,,0,,,60,0
15358,note_on,94,0,2,,,,,,,,1,,,45,0
15360,note_on,2,0,1,,,,,,,,0,,,65,75
15360,note_on,2,0,2,,,,,,,,1,,,57,75
15406,note_on,46,0,1,,,,,,,,0,,,65,0
15408,note_on,2,0,1,,,,,,,,0,,,64,75
15454,note_on,46,0,1,,,,,,,,0,,,64,0
15454,note_on,94,0,2,,,,,,,,1,,,57,0
15456,note_on,2,0,2,,,,,,,,1,,,46,75
15456,note_on,2,0,1,,,,,,,,0,,,62,75
15502,note_on,46,0,1,,,,,,,,0,,,62,0
15504,note_on,2,0,1,,,,,,,,0,,,69,75
15550,note_on,94,0,2,,,,,,,,1,,,46,0
15550,note_on,46,0,1,,,,,,,,0,,,69,0
15552,note_on,2,0,2,,,,,,,,1,,,58,75
15552,note_on,2,0,1,,,,,,,,0,,,67,75
15598,note_on,46,0,1,,,,,,,,0,,,67,0
15600,note_on,2,0,1,,,,,,,,0,,,65,75
15646,note_on,46,0,1,,,,,,,,0,,,65,0
15646,note_on,94,0,2,,,,,,,,1,,,58,0
15648,note_on,2,0,2,,,,,,,,1,,,48,75
15648,note_on,2,0,1,,,,,,,,0,,,64,75
15694,note_on,46,0,1,,,,,,,,0,,,64,0
15696,note_on,2,0,1,,,,,,,,0,,,70,75
15742,note_on,94,0,2,,,,,,,,1,,,48,0
15742,note_on,46,0,1,,,,,,,,0,,,70,0
15744,note_on,2,0,2,,,,,,,,1,,,60,75
15744,note_on,2,0,1,,,,,,,,0,,,69,75
15790,note_on,46,0,1,,,,,,,,0,,,69,0
15792,note_on,2,0,1,,,,,,,,0,,,67,75
15838,note_on,46,0,1,,,,,,,,0,,,67,0
15838,note_on,94,0,2,,,,,,,,1,,,60,0
15840,note_on,2,0,2,,,,,,,,1,,,50,75
15840,note_on,2,0,1,,,,,,,,0,,,65,75
15888,note_on,48,0,2,,,,,,,,1,,,60,75
15934,note_on,46,0,2,,,,,,,,1,,,60,0
15936,note_on,2,0,2,,,,,,,,1,,,58,75
15982,note_on,46,0,2,,,,,,,,1,,,58,0
15984,note_on,2,0,2,,,,,,,,1,,,57,75
16000,note_on,160,0,1,,,,,,,,0,,,65,0
16000,note_on,16,0,2,,,,,,,,1,,,50,0
16030,note_on,30,0,2,,,,,,,,1,,,57,0
16032,note_on,32,0,1,,,,,,,,0,,,67,75
16032,note_on,0,0,2,,,,,,,,1,,,55,75
16032,note_on,2,0,2,,,,,,,,1,,,52,75
16126,note_on,94,0,2,,,,,,,,1,,,55,0
16126,note_on,0,0,2,,,,,,,,1,,,52,0
16126,note_on,94,0,1,,,,,,,,0,,,67,0
16128,note_on,2,0,1,,,,,,,,0,,,69,75
16128,note_on,0,0,2,,,,,,,,1,,,53,75
16128,note_on,2,0,2,,,,,,,,1,,,53,75
16150,note_on,22,0,1,,,,,,,,0,,,69,0
16152,note_on,2,0,1,,,,,,,,0,,,70,75
16174,note_on,22,0,1,,,,,,,,0,,,70,0
16176,note_on,2,0,1,,,,,,,,0,,,69,75
16222,note_on,0,0,2,,,,,,,,1,,,53,0
16222,note_on,94,0,2,,,,,,,,1,,,53,0
16224,note_on,2,0,2,,,,,,,,1,,,46,75
16318,note_on,142,0,1,,,,,,,,0,,,69,0
16318,note_on,94,0,2,,,,,,,,1,,,46,0
16320,note_on,2,0,1,,,,,,,,0,,,67,75
16320,note_on,2,0,2,,,,,,,,1,,,58,75
16366,note_on,46,0,1,,,,,,,,0,,,67,0
16368,note_on,2,0,1,,,,,,,,0,,,65,75
16414,note_on,94,0,2,,,,,,,,1,,,58,0
16414,note_on,46,0,1,,,,,,,,0,,,65,0
16416,note_on,2,0,1,,,,,,,,0,,,65,75
16416,note_on,0,0,2,,,,,,,,1,,,55,75
16416,note_on,2,0,2,,,,,,,,1,,,48,75
16438,note_on,22,0,1,,,,,,,,0,,,65,0
16440,note_on,2,0,1,,,,,,,,0,,,64,75
16456,note_on,16,0,1,,,,,,,,0,,,64,0
16464,note_on,8,0,1,,,,,,,,0,,,65,75
16472,note_on,8,0,1,,,,,,,,0,,,65,0
16476,note_on,4,0,1,,,,,,,,0,,,64,75
16484,note_on,8,0,1,,,,,,,,0,,,64,0
16488,note_on,4,0,1,,,,,,,,0,,,65,75
16496,note_on,8,0,1,,,,,,,,0,,,65,0
16500,note_on,4,0,1,,,,,,,,0,,,64,75
16508,note_on,8,0,1,,,,,,,,0,,,64,0
16510,note_on,94,0,2,,,,,,,,1,,,55,0
16512,note_on,4,0,1,,,,,,,,0,,,65,75
16512,note_on,2,0,2,,,,,,,,1,,,58,75
16528,note_on,16,0,1,,,,,,,,0,,,65,0
16536,note_on,8,0,1,,,,,,,,0,,,64,75
16552,note_on,16,0,1,,,,,,,,0,,,64,0
16560,note_on,8,0,1,,,,,,,,0,,,62,75
16576,note_on,64,0,2,,,,,,,,1,,,48,0
16582,note_on,22,0,1,,,,,,,,0,,,62,0
16584,note_on,2,0,1,,,,,,,,0,,,64,75
16606,note_on,22,0,1,,,,,,,,0,,,64,0
16606,note_on,30,0,2,,,,,,,,1,,,58,0
16608,note_on,2,0,2,,,,,,,,1,,,53,75
16608,note_on,0,0,2,,,,,,,,1,,,57,75
16608,note_on,2,0,1,,,,,,,,0,,,65,75
16702,note_on,94,0,2,,,,,,,,1,,,57,0
16702,note_on,0,0,2,,,,,,,,1,,,53,0
16704,note_on,0,0,2,,,,,,,,1,,,58,75
16704,note_on,2,0,2,,,,,,,,1,,,55,75
16768,note_on,160,0,1,,,,,,,,0,,,65,0
16798,note_on,94,0,2,,,,,,,,1,,,58,0
16798,note_on,0,0,2,,,,,,,,1,,,55,0
16800,note_on,0,0,2,,,,,,,,1,,,60,75
16800,note_on,2,0,2,,,,,,,,1,,,57,75
16848,note_on,80,0,1,,,,,,,,0,,,72,75
16894,note_on,0,0,2,,,,,,,,1,,,57,0
16894,note_on,46,0,1,,,,,,,,0,,,72,0
16894,note_on,94,0,2,,,,,,,,1,,,60,0
16896,note_on,2,0,2,,,,,,,,1,,,53,75
16896,note_on,0,0,2,,,,,,,,1,,,57,75
16896,note_on,2,0,1,,,,,,,,0,,,77,75
16942,note_on,46,0,1,,,,,,,,0,,,77,0
16944,note_on,2,0,1,,,,,,,,0,,,76,75
16990,note_on,46,0,1,,,,,,,,0,,,76,0
16990,note_on,94,0,2,,,,,,,,1,,,57,0
16990,note_on,0,0,2,,,,,,,,1,,,53,0
16992,note_on,0,0,1,,,,,,,,0,,,70,75
16992,note_on,0,0,1,,,,,,,,0,,,74,75
16992,note_on,2,0,1,,,,,,,,0,,,65,75
17040,note_on,50,0,2,,,,,,,,1,,,46,75
17086,note_on,46,0,2,,,,,,,,1,,,46,0
17088,note_on,2,0,2,,,,,,,,1,,,58,75
17134,note_on,46,0,2,,,,,,,,1,,,58,0
17136,note_on,2,0,2,,,,,,,,1,,,57,75
17152,note_on,0,0,1,,,,,,,,0,,,65,0
17152,note_on,0,0,1,,,,,,,,0,,,70,0
17152,note_on,160,0,1,,,,,,,,0,,,74,0
17168,note_on,32,0,2,,,,,,,,1,,,57,0
17184,note_on,16,0,2,,,,,,,,1,,,55,75
17232,note_on,80,0,1,,,,,,,,0,,,77,75
17278,note_on,46,0,1,,,,,,,,0,,,77,0
17280,note_on,2,0,1,,,,,,,,0,,,76,75
17326,note_on,46,0,1,,,,,,,,0,,,76,0
17328,note_on,2,0,1,,,,,,,,0,,,74,75
17374,note_on,46,0,1,,,,,,,,0,,,74,0
17376,note_on,0,0,1,,,,,,,,0,,,69,75
17376,note_on,192,0,2,,,,,,,,1,,,55,0
17376,note_on,2,0,1,,,,,,,,0,,,64,75
17376,note_on,0,0,1,,,,,,,,0,,,73,75
17424,note_on,48,0,2,,,,,,,,1,,,52,75
17470,note_on,46,0,2,,,,,,,,1,,,52,0
17472,note_on,2,0,2,,,,,,,,1,,,57,75
17518,note_on,46,0,2,,,,,,,,1,,,57,0
17520,note_on,2,0,2,,,,,,,,1,,,55,75
17536,note_on,0,0,1,,,,,,,,0,,,64,0
17536,note_on,0,0,1,,,,,,,,0,,,69,0
17536,note_on,160,0,1,,,,,,,,0,,,73,0
17552,note_on,32,0,2,,,,,,,,1,,,55,0
17568,note_on,16,0,2,,,,,,,,1,,,53,75
17616,note_on,80,0,1,,,,,,,,0,,,77,75
17662,note_on,94,0,2,,,,,,,,1,,,53,0
17662,note_on,46,0,1,,,,,,,,0,,,77,0
17664,note_on,2,0,2,,,,,,,,1,,,58,75
17664,note_on,2,0,1,,,,,,,,0,,,76,75
17710,note_on,46,0,1,,,,,,,,0,,,76,0
17712,note_on,2,0,1,,,,,,,,0,,,74,75
17758,note_on,46,0,1,,,,,,,,0,,,74,0
17758,note_on,94,0,2,,,,,,,,1,,,58,0
17760,note_on,2,0,1,,,,,,,,0,,,82,75
17776,note_on,16,0,1,,,,,,,,0,,,82,0
17784,note_on,8,0,1,,,,,,,,0,,,84,75
17800,note_on,16,0,1,,,,,,,,0,,,84,0
17808,note_on,8,0,1,,,,,,,,0,,,82,75
17808,note_on,50,0,2,,,,,,,,1,,,55,75
17824,note_on,16,0,1,,,,,,,,0,,,82,0
17832,note_on,8,0,1,,,,,,,,0,,,81,75
17848,note_on,16,0,1,,,,,,,,0,,,81,0
17854,note_on,46,0,2,,,,,,,,1,,,55,0
17856,note_on,2,0,2,,,,,,,,1,,,57,75
17856,note_on,8,0,1,,,,,,,,0,,,82,75
17902,note_on,46,0,2,,,,,,,,1,,,57,0
17904,note_on,2,0,2,,,,,,,,1,,,58,75
17950,note_on,46,0,2,,,,,,,,1,,,58,0
17950,note_on,94,0,1,,,,,,,,0,,,82,0
17952,note_on,2,0,2,,,,,,,,1,,,60,75
18000,note_on,50,0,1,,,,,,,,0,,,76,75
18046,note_on,94,0,2,,,,,,,,1,,,60,0
18046,note_on,46,0,1,,,,,,,,0,,,76,0
18048,note_on,2,0,1,,,,,,,,0,,,74,75
18048,note_on,2,0,2,,,,,,,,1,,,48,75
18094,note_on,46,0,1,,,,,,,,0,,,74,0
18096,note_on,2,0,1,,,,,,,,0,,,72,75
18142,note_on,94,0,2,,,,,,,,1,,,48,0
18142,note_on,46,0,1,,,,,,,,0,,,72,0
18144,note_on,2,0,1,,,,,,,,0,,,81,75
18160,note_on,16,0,1,,,,,,,,0,,,81,0
18168,note_on,8,0,1,,,,,,,,0,,,82,75
18184,note_on,16,0,1,,,,,,,,0,,,82,0
18192,note_on,50,0,2,,,,,,,,1,,,55,75
18192,note_on,8,0,1,,,,,,,,0,,,81,75
18208,note_on,16,0,1,,,,,,,,0,,,81,0
18216,note_on,8,0,1,,,,,,,,0,,,79,75
18232,note_on,16,0,1,,,,,,,,0,,,79,0
18238,note_on,46,0,2,,,,,,,,1,,,55,0
18240,note_on,2,0,2,,,,,,,,1,,,53,75
18240,note_on,8,0,1,,,,,,,,0,,,81,75
18286,note_on,46,0,2,,,,,,,,1,,,53,0
18288,note_on,2,0,2,,,,,,,,1,,,52,75
18334,note_on,46,0,2,,,,,,,,1,,,52,0
18334,note_on,94,0,1,,,,,,,,0,,,81,0
18336,note_on,2,0,2,,,,,,,,1,,,50,75
18384,note_on,50,0,1,,,,,,,,0,,,77,75
18430,note_on,46,0,1,,,,,,,,0,,,77,0
18430,note_on,94,0,2,,,,,,,,1,,,50,0
18432,note_on,2,0,1,,,,,,,,0,,,77,75
18432,note_on,2,0,2,,,,,,,,1,,,62,75
18478,note_on,46,0,1,,,,,,,,0,,,77,0
18480,note_on,2,0,1,,,,,,,,0,,,77,75
18526,note_on,46,0,1,,,,,,,,0,,,77,0
18526,note_on,94,0,2,,,,,,,,1,,,62,0
18528,note_on,2,0,1,,,,,,,,0,,,64,75
18528,note_on,2,0,2,,,,,,,,1,,,58,75
18538,note_on,10,0,1,,,,,,,,0,,,64,0
18540,note_on,2,0,1,,,,,,,,0,,,65,75
18550,note_on,10,0,1,,,,,,,,0,,,65,0
18552,note_on,2,0,1,,,,,,,,0,,,64,75
18574,note_on,22,0,1,,,,,,,,0,,,64,0
18576,note_on,2,0,1,,,,,,,,0,,,76,75
18622,note_on,94,0,2,,,,,,,,1,,,58,0
18622,note_on,46,0,1,,,,,,,,0,,,76,0
18624,note_on,2,0,2,,,,,,,,1,,,60,75
18624,note_on,2,0,1,,,,,,,,0,,,76,75
18670,note_on,46,0,1,,,,,,,,0,,,76,0
18672,note_on,2,0,1,,,,,,,,0,,,76,75
18718,note_on,46,0,1,,,,,,,,0,,,76,0
18718,note_on,94,0,2,,,,,,,,1,,,60,0
18720,note_on,2,0,2,,,,,,,,1,,,53,75
18720,set_tempo,12576,1,0,,,,,,1176471,,,,,,
18720,note_on,2,0,1,,,,,,,,0,,,74,75
18766,note_on,46,0,1,,,,,,,,0,,,74,0
18768,note_on,2,0,1,,,,,,,,0,,,65,75
18814,note_on,94,0,2,,,,,,,,1,,,53,0
18814,note_on,46,0,1,,,,,,,,0,,,65,0
18816,note_on,2,0,1,,,,,,,,0,,,65,75
18816,note_on,2,0,2,,,,,,,,1,,,55,75
18862,note_on,46,0,1,,,,,,,,0,,,65,0
18864,note_on,2,0,1,,,,,,,,0,,,65,75
18910,note_on,94,0,2,,,,,,,,1,,,55,0
18910,note_on,46,0,1,,,,,,,,0,,,65,0
18912,note_on,2,0,1,,,,,,,,0,,,64,75
18912,note_on,2,0,2,,,,,,,,1,,,57,75
18922,note_on,10,0,1,,,,,,,,0,,,64,0
18924,note_on,2,0,1,,,,,,,,0,,,65,75
18934,note_on,10,0,1,,,,,,,,0,,,65,0
18936,note_on,2,0,1,,,,,,,,0,,,64,75
18958,note_on,22,0,1,,,,,,,,0,,,64,0
18960,note_on,2,0,1,,,,,,,,0,,,72,75
19006,note_on,46,0,1,,,,,,,,0,,,72,0
19006,note_on,94,0,2,,,,,,,,1,,,57,0
19008,note_on,2,0,1,,,,,,,,0,,,72,75
19008,note_on,2,0,2,,,,,,,,1,,,45,75
19054,note_on,46,0,1,,,,,,,,0,,,72,0
19056,note_on,2,0,1,,,,,,,,0,,,72,75
19102,note_on,46,0,1,,,,,,,,0,,,72,0
19102,note_on,94,0,2,,,,,,,,1,,,45,0
19104,note_on,2,0,1,,,,,,,,0,,,70,75
19104,note_on,2,0,2,,,,,,,,1,,,50,75
19104,set_tempo,384,1,0,,,,,,1224490,,,,,,
19150,note_on,46,0,1,,,,,,,,0,,,70,0
19152,note_on,2,0,1,,,,,,,,0,,,62,75
19198,note_on,46,0,1,,,,,,,,0,,,62,0
19198,note_on,94,0,2,,,,,,,,1,,,50,0
19200,note_on,2,0,2,,,,,,,,1,,,52,75
19200,note_on,2,0,1,,,,,,,,0,,,62,75
19246,note_on,46,0,1,,,,,,,,0,,,62,0
19248,note_on,2,0,1,,,,,,,,0,,,62,75
19294,note_on,94,0,2,,,,,,,,1,,,52,0
19294,note_on,46,0,1,,,,,,,,0,,,62,0
19296,note_on,2,0,2,,,,,,,,1,,,53,75
19296,note_on,2,0,1,,,,,,,,0,,,60,75
19342,note_on,46,0,1,,,,,,,,0,,,60,0
19344,note_on,2,0,1,,,,,,,,0,,,69,75
19390,note_on,94,0,2,,,,,,,,1,,,53,0
19390,note_on,46,0,1,,,,,,,,0,,,69,0
19392,note_on,2,0,1,,,,,,,,0,,,69,75
19392,note_on,2,0,2,,,,,,,,1,,,41,75
19438,note_on,46,0,1,,,,,,,,0,,,69,0
19440,note_on,2,0,1,,,,,,,,0,,,69,75
19486,note_on,94,0,2,,,,,,,,1,,,41,0
19486,note_on,46,0,1,,,,,,,,0,,,69,0
19488,note_on,2,0,2,,,,,,,,1,,,46,75
19488,set_tempo,384,1,0,,,,,,1276596,,,,,,
19488,note_on,2,0,1,,,,,,,,0,,,67,75
19534,note_on,46,0,1,,,,,,,,0,,,67,0
19536,note_on,2,0,1,,,,,,,,0,,,58,75
19582,note_on,46,0,1,,,,,,,,0,,,58,0
19582,note_on,94,0,2,,,,,,,,1,,,46,0
19584,note_on,2,0,1,,,,,,,,0,,,58,75
19584,note_on,2,0,2,,,,,,,,1,,,48,75
19630,note_on,46,0,1,,,,,,,,0,,,58,0
19632,note_on,2,0,1,,,,,,,,0,,,58,75
19678,note_on,46,0,1,,,,,,,,0,,,58,0
19678,note_on,94,0,2,,,,,,,,1,,,48,0
19680,note_on,2,0,1,,,,,,,,0,,,57,75
19680,note_on,2,0,2,,,,,,,,1,,,50,75
19726,note_on,46,0,1,,,,,,,,0,,,57,0
19728,note_on,2,0,1,,,,,,,,0,,,65,75
19774,note_on,46,0,1,,,,,,,,0,,,65,0
19774,note_on,94,0,2,,,,,,,,1,,,50,0
19776,note_on,2,0,1,,,,,,,,0,,,64,75
19776,note_on,2,0,2,,,,,,,,1,,,43,75
19822,note_on,46,0,1,,,,,,,,0,,,64,0
19824,note_on,2,0,1,,,,,,,,0,,,62,75
19870,note_on,94,0,2,,,,,,,,1,,,43,0
19870,note_on,46,0,1,,,,,,,,0,,,62,0
19872,note_on,0,0,2,,,,,,,,1,,,52,75
19872,note_on,2,0,2,,,,,,,,1,,,45,75
19872,set_tempo,384,1,0,,,,,,1500000,,,,,,
19872,note_on,2,0,1,,,,,,,,0,,,61,75
19894,note_on,22,0,1,,,,,,,,0,,,61,0
19896,note_on,2,0,1,,,,,,,,0,,,62,75
19918,note_on,22,0,1,,,,,,,,0,,,62,0
19920,note_on,2,0,1,,,,,,,,0,,,61,75
19936,note_on,16,0,1,,,,,,,,0,,,61,0
19944,note_on,8,0,1,,,,,,,,0,,,59,75
19960,note_on,16,0,1,,,,,,,,0,,,59,0
19966,note_on,94,0,2,,,,,,,,1,,,52,0
19968,note_on,8,0,1,,,,,,,,0,,,61,75
19968,note_on,2,0,2,,,,,,,,1,,,55,75
20014,note_on,46,0,1,,,,,,,,0,,,61,0
20016,note_on,2,0,1,,,,,,,,0,,,62,75
20032,note_on,64,0,2,,,,,,,,1,,,45,0
20062,note_on,46,0,1,,,,,,,,0,,,62,0
20062,note_on,30,0,2,,,,,,,,1,,,55,0
20064,note_on,2,0,2,,,,,,,,1,,,50,75
20064,note_on,0,0,2,,,,,,,,1,,,57,75
20064,note_on,0,0,2,,,,,,,,1,,,53,75
20064,note_on,2,0,1,,,,,,,,0,,,62,75
20158,note_on,94,0,2,,,,,,,,1,,,50,0
20160,note_on,2,0,2,,,,,,,,1,,,38,75
20224,note_on,160,0,1,,,,,,,,0,,,62,0
20224,note_on,64,0,2,,,,,,,,1,,,57,0
20224,note_on,0,0,2,,,,,,,,1,,,53,0
20254,note_on,30,0,2,,,,,,,,1,,,38,0
20256,note_on,2,0,2,,,,,,,,1,,,41,75
20256,end_of_track,0,1,0,,,,,,,,,,,,
20256,set_tempo,384,1,0,,,,,,1578947,,,,,,
20304,note_on,80,0,1,,,,,,,,0,,,62,75
20350,note_on,94,0,2,,,,,,,,1,,,41,0
20352,note_on,2,0,2,,,,,,,,1,,,45,75
20352,note_on,0,0,2,,,,,,,,1,,,52,75
20398,note_on,94,0,1,,,,,,,,0,,,62,0
20400,note_on,2,0,1,,,,,,,,0,,,61,75
20446,note_on,0,0,2,,,,,,,,1,,,45,0
20446,note_on,94,0,2,,,,,,,,1,,,52,0
20446,note_on,46,0,1,,,,,,,,0,,,61,0
20448,note_on,2,0,1,,,,,,,,0,,,62,75
20448,note_on,2,0,2,,,,,,,,1,,,38,75
20448,note_on,0,0,2,,,,,,,,1,,,50,75
20448,note_on,0,0,2,,,,,,,,1,,,53,75
20448,note_on,0,0,2,,,,,,,,1,,,57,75
20704,note_on,0,0,2,,,,,,,,1,,,53,0
20704,note_on,0,0,2,,,,,,,,1,,,50,0
20704,end_of_track,0,1,2,,,,,,,,,,,,
20704,note_on,256,0,2,,,,,,,,1,,,57,0
20704,end_of_track,0,1,1,,,,,,,,,,,,
20704,note_on,0,0,2,,,,,,,,1,,,38,0
20704,note_on,256,0,1,,,,,,,,0,,,62,0
