tick,type,time,meta,track,numerator,denominator,clocks_per_click,notated_32nd_notes_per_beat,key,tempo,control,value,channel,program,note,velocity
0,track_name,0,1,0,,,,,,,,,,,,
0,control_change,0,0,1,,,,,,,7,127,0,,,
0,control_change,0,0,1,,,,,,,10,73,0,,,
0,control_change,0,0,1,,,,,,,91,50,0,,,
0,control_change,0,0,1,,,,,,,93,0,0,,,
0,control_change,0,0,1,,,,,,,32,0,0,,,
0,end_of_track,0,1,6,,,,,,,,,,,,
0,track_name,0,1,2,,,,,,,,,,,,
0,control_change,0,0,2,,,,,,,0,0,1,,,
0,control_change,0,0,2,,,,,,,7,127,1,,,
0,control_change,0,0,1,,,,,,,0,0,0,,,
0,control_change,0,0,2,,,,,,,10,54,1,,,
0,control_change,0,0,2,,,,,,,93,0,1,,,
0,control_change,0,0,2,,,,,,,32,0,1,,,
0,track_name,0,1,3,,,,,,,,,,,,
0,end_of_track,0,1,3,,,,,,,,,,,,
0,track_name,0,1,4,,,,,,,,,,,,
0,end_of_track,0,1,4,,,,,,,,,,,,
0,track_name,0,1,5,,,,,,,,,,,,
0,end_of_track,0,1,5,,,,,,,,,,,,
0,track_name,0,1,6,,,,,,,,,,,,
0,control_change,0,0,2,,,,,,,91,50,1,,,
0,track_name,0,1,1,,,,,,,,,,,,
0,end_of_track,0,1,7,,,,,,,,,,,,
0,copyright,0,1,0,,,,,,,,,,,,
0,text,0,1,0,,,,,,,,,,,,
0,time_signature,0,1,0,2,4,24,8,,,,,,,,
0,key_signature,0,1,0,,,,,A,,,,,,,
0,set_tempo,0,1,0,,,,,,571429,,,,,,
0,marker,0,1,0,,,,,,,,,,,,
0,text,0,1,0,,,,,,,,,,,,
1,program_change,1,0,1,,,,,,,,,0,0,,
1,program_change,1,0,2,,,,,,,,,1,0,,
240,note_on,239,0,2,,,,,,,,,1,,52,85
480,note_on,0,0,2,,,,,,,,,1,,57,85
480,note_on,240,0,2,,,,,,,,,1,,52,0
720,note_on,719,0,1,,,,,,,,,0,,61,85
960,note_on,480,0,2,,,,,,,,,1,,57,0
960,note_on,0,0,2,,,,,,,,,1,,45,85
960,time_signature,960,1,0,3,4,24,8,,,,,,,,
960,note_on,240,0,1,,,,,,,,,0,,64,85
1200,note_on,0,0,1,,,,,,,,,0,,59,85
1200,note_on,240,0,1,,,,,,,,,0,,61,0
1439,text,239,1,1,,,,,,,,,,,,
1440,note_on,0,0,1,,,,,,,,,0,,61,85
1440,note_on,1,0,1,,,,,,,,,0,,59,0
1440,text,0,1,1,,,,,,,,,,,,
1440,note_on,480,0,2,,,,,,,,,1,,33,85
1499,note_on,59,0,1,,,,,,,,,0,,61,0
1500,note_on,1,0,1,,,,,,,,,0,,59,85
1559,note_on,59,0,1,,,,,,,,,0,,59,0
1560,note_on,1,0,1,,,,,,,,,0,,61,85
1619,note_on,59,0,1,,,,,,,,,0,,61,0
1620,note_on,1,0,1,,,,,,,,,0,,59,85
1679,note_on,59,0,1,,,,,,,,,0,,59,0
1680,note_on,240,0,2,,,,,,,,,1,,57,88
1680,note_on,1,0,1,,,,,,,,,0,,61,85
1920,note_on,240,0,2,,,,,,,,,1,,45,0
1920,note_on,0,0,1,,,,,,,,,0,,62,85
1920,note_on,240,0,1,,,,,,,,,0,,64,0
1920,note_on,0,0,1,,,,,,,,,0,,59,85
2159,note_on,239,0,1,,,,,,,,,0,,61,0
2160,note_on,240,0,2,,,,,,,,,1,,57,0
2160,note_on,0,0,2,,,,,,,,,1,,56,77
2399,text,239,1,2,,,,,,,,,,,,
2400,note_on,0,0,2,,,,,,,,,1,,57,77
2400,note_on,241,0,1,,,,,,,,,0,,59,0
2400,note_on,0,0,1,,,,,,,,,0,,62,0
2400,note_on,0,0,1,,,,,,,,,0,,61,85
2400,note_on,1,0,2,,,,,,,,,1,,56,0
2400,note_on,0,0,2,,,,,,,,,1,,33,0
2400,text,0,1,2,,,,,,,,,,,,
2459,note_on,59,0,2,,,,,,,,,1,,57,0
2460,note_on,1,0,2,,,,,,,,,1,,56,77
2519,note_on,59,0,2,,,,,,,,,1,,56,0
2520,note_on,1,0,2,,,,,,,,,1,,57,77
2579,note_on,59,0,2,,,,,,,,,1,,57,0
2580,note_on,1,0,2,,,,,,,,,1,,56,77
2639,note_on,59,0,2,,,,,,,,,1,,56,0
2640,note_on,1,0,2,,,,,,,,,1,,57,77
2640,note_on,0,0,2,,,,,,,,,1,,54,77
2880,note_on,0,0,2,,,,,,,,,1,,52,77
2880,note_on,240,0,2,,,,,,,,,1,,54,0
3120,note_on,0,0,2,,,,,,,,,1,,50,77
3120,note_on,0,0,1,,,,,,,,,0,,64,85
3120,note_on,720,0,1,,,,,,,,,0,,61,0
3120,note_on,240,0,2,,,,,,,,,1,,52,0
3359,note_on,239,0,2,,,,,,,,,1,,57,0
3360,note_on,1,0,2,,,,,,,,,1,,50,0
3360,note_on,0,0,2,,,,,,,,,1,,49,77
3360,note_on,0,0,1,,,,,,,,,0,,66,85
3360,note_on,240,0,1,,,,,,,,,0,,64,0
3600,note_on,0,0,1,,,,,,,,,0,,68,85
3600,note_on,0,0,2,,,,,,,,,1,,47,85
3600,note_on,240,0,2,,,,,,,,,1,,49,0
3600,note_on,240,0,1,,,,,,,,,0,,66,0
3839,text,239,1,1,,,,,,,,,,,,
3840,note_on,0,0,2,,,,,,,,,1,,49,85
3840,note_on,240,0,2,,,,,,,,,1,,47,0
3840,note_on,0,0,1,,,,,,,,,0,,69,85
3840,text,0,1,1,,,,,,,,,,,,
3840,note_on,1,0,1,,,,,,,,,0,,68,0
3899,note_on,59,0,1,,,,,,,,,0,,69,0
3900,note_on,1,0,1,,,,,,,,,0,,68,85
3959,note_on,59,0,1,,,,,,,,,0,,68,0
3960,note_on,1,0,1,,,,,,,,,0,,69,85
4019,note_on,59,0,1,,,,,,,,,0,,69,0
4020,note_on,1,0,1,,,,,,,,,0,,68,85
4079,note_on,59,0,1,,,,,,,,,0,,68,0
4080,note_on,240,0,2,,,,,,,,,1,,52,85
4080,note_on,1,0,1,,,,,,,,,0,,69,85
4320,note_on,0,0,2,,,,,,,,,1,,54,85
4320,note_on,240,0,2,,,,,,,,,1,,52,0
4320,note_on,0,0,2,,,,,,,,,1,,49,0
4559,note_on,479,0,1,,,,,,,,,0,,69,0
4560,note_on,1,0,1,,,,,,,,,0,,71,85
4560,note_on,240,0,2,,,,,,,,,1,,54,0
4560,note_on,0,0,2,,,,,,,,,1,,56,85
4800,note_on,0,0,1,,,,,,,,,0,,73,85
4800,note_on,240,0,2,,,,,,,,,1,,56,0
4800,note_on,0,0,2,,,,,,,,,1,,57,85
4800,note_on,240,0,1,,,,,,,,,0,,71,0
5040,note_on,240,0,2,,,,,,,,,1,,45,85
5040,note_on,240,0,1,,,,,,,,,0,,73,0
5040,note_on,0,0,1,,,,,,,,,0,,74,85
5280,note_on,240,0,1,,,,,,,,,0,,74,0
5280,note_on,0,0,1,,,,,,,,,0,,73,85
5280,text,0,1,1,,,,,,,,,,,,
5280,note_on,0,0,2,,,,,,,,,1,,56,76
5280,note_on,0,0,2,,,,,,,,,1,,57,0
5280,note_on,240,0,2,,,,,,,,,1,,45,0
5280,note_on,0,0,2,,,,,,,,,1,,52,76
5399,note_on,119,0,1,,,,,,,,,0,,73,0
5400,note_on,1,0,1,,,,,,,,,0,,71,85
5459,note_on,59,0,1,,,,,,,,,0,,71,0
5460,note_on,1,0,1,,,,,,,,,0,,73,85
5519,note_on,59,0,1,,,,,,,,,0,,73,0
5520,note_on,1,0,1,,,,,,,,,0,,71,85
5520,note_on,240,0,2,,,,,,,,,1,,59,76
5579,note_on,59,0,1,,,,,,,,,0,,71,0
5580,note_on,1,0,1,,,,,,,,,0,,73,85
5639,note_on,59,0,1,,,,,,,,,0,,73,0
5640,note_on,1,0,1,,,,,,,,,0,,71,85
5760,note_on,0,0,2,,,,,,,,,1,,61,76
5760,note_on,240,0,2,,,,,,,,,1,,59,0
6000,note_on,0,0,2,,,,,,,,,1,,62,76
6000,note_on,240,0,2,,,,,,,,,1,,61,0
6239,note_on,599,0,1,,,,,,,,,0,,71,0
6240,text,1,1,1,,,,,,,,,,,,
6240,note_on,0,0,2,,,,,,,,,1,,52,0
6240,note_on,240,0,2,,,,,,,,,1,,62,0
6240,note_on,0,0,2,,,,,,,,,1,,56,0
6240,note_on,0,0,2,,,,,,,,,1,,64,76
6240,note_on,0,0,1,,,,,,,,,0,,69,85
6359,note_on,119,0,1,,,,,,,,,0,,69,0
6360,note_on,1,0,1,,,,,,,,,0,,68,85
6419,note_on,59,0,1,,,,,,,,,0,,68,0
6420,note_on,1,0,1,,,,,,,,,0,,69,85
6479,note_on,59,0,1,,,,,,,,,0,,69,0
6480,note_on,240,0,2,,,,,,,,,1,,52,76
6480,note_on,1,0,1,,,,,,,,,0,,68,85
6599,note_on,119,0,1,,,,,,,,,0,,68,0
6600,note_on,1,0,1,,,,,,,,,0,,66,85
6660,note_on,0,0,1,,,,,,,,,0,,68,85
6660,note_on,60,0,1,,,,,,,,,0,,66,0
6720,note_on,0,0,2,,,,,,,,,1,,54,76
6720,note_on,240,0,2,,,,,,,,,1,,52,0
6720,note_on,0,0,1,,,,,,,,,0,,69,85
6720,note_on,60,0,1,,,,,,,,,0,,68,0
6960,note_on,240,0,2,,,,,,,,,1,,64,0
6960,note_on,0,0,2,,,,,,,,,1,,64,76
6960,note_on,0,0,1,,,,,,,,,0,,68,85
6960,note_on,240,0,1,,,,,,,,,0,,69,0
7080,note_on,0,0,1,,,,,,,,,0,,69,85
7080,note_on,120,0,1,,,,,,,,,0,,68,0
7200,note_on,240,0,2,,,,,,,,,1,,64,0
7200,note_on,0,0,1,,,,,,,,,0,,71,85
7200,text,0,1,1,,,,,,,,,,,,
7200,note_on,120,0,1,,,,,,,,,0,,69,0
7200,note_on,0,0,2,,,,,,,,,1,,62,75
7259,note_on,59,0,1,,,,,,,,,0,,71,0
7260,note_on,1,0,1,,,,,,,,,0,,69,85
7319,note_on,59,0,1,,,,,,,,,0,,69,0
7320,note_on,1,0,1,,,,,,,,,0,,71,85
7379,note_on,59,0,1,,,,,,,,,0,,71,0
7380,note_on,1,0,1,,,,,,,,,0,,69,85
7439,note_on,59,0,1,,,,,,,,,0,,69,0
7440,note_on,0,0,2,,,,,,,,,1,,54,75
7440,note_on,240,0,2,,,,,,,,,1,,54,0
7560,note_on,121,0,1,,,,,,,,,0,,68,85
7620,note_on,60,0,1,,,,,,,,,0,,68,0
7620,note_on,0,0,1,,,,,,,,,0,,69,85
7680,note_on,0,0,2,,,,,,,,,1,,56,75
7680,note_on,240,0,2,,,,,,,,,1,,54,0
7680,note_on,0,0,1,,,,,,,,,0,,71,85
7680,note_on,60,0,1,,,,,,,,,0,,69,0
7800,note_on,120,0,1,,,,,,,,,0,,71,0
7800,note_on,0,0,1,,,,,,,,,0,,69,85
7920,note_on,0,0,1,,,,,,,,,0,,71,85
7920,note_on,120,0,1,,,,,,,,,0,,69,0
7920,note_on,240,0,2,,,,,,,,,1,,62,0
7920,note_on,0,0,2,,,,,,,,,1,,62,75
8160,note_on,240,0,1,,,,,,,,,0,,71,0
8160,note_on,0,0,1,,,,,,,,,0,,64,85
8160,note_on,240,0,2,,,,,,,,,1,,56,0
8160,note_on,0,0,2,,,,,,,,,1,,57,75
8400,note_on,240,0,2,,,,,,,,,1,,62,0
8400,note_on,0,0,2,,,,,,,,,1,,62,75
8640,note_on,240,0,2,,,,,,,,,1,,62,0
8640,note_on,0,0,2,,,,,,,,,1,,61,76
8880,note_on,720,0,1,,,,,,,,,0,,76,85
8880,note_on,0,0,2,,,,,,,,,1,,57,76
8880,note_on,240,0,2,,,,,,,,,1,,57,0
9120,note_on,240,0,1,,,,,,,,,0,,76,0
9120,note_on,0,0,2,,,,,,,,,1,,49,76
9120,note_on,240,0,2,,,,,,,,,1,,57,0
9120,note_on,0,0,1,,,,,,,,,0,,76,85
9360,note_on,0,0,1,,,,,,,,,0,,64,85
9360,note_on,0,0,2,,,,,,,,,1,,61,76
9360,note_on,240,0,2,,,,,,,,,1,,61,0
9360,note_on,240,0,1,,,,,,,,,0,,64,0
9600,note_on,0,0,2,,,,,,,,,1,,50,76
9600,note_on,240,0,1,,,,,,,,,0,,64,0
9600,note_on,0,0,1,,,,,,,,,0,,66,85
9600,note_on,240,0,2,,,,,,,,,1,,49,0
9840,note_on,240,0,2,,,,,,,,,1,,61,0
9840,note_on,0,0,1,,,,,,,,,0,,76,85
9840,note_on,240,0,1,,,,,,,,,0,,76,0
9840,note_on,0,0,2,,,,,,,,,1,,61,76
10080,note_on,0,0,2,,,,,,,,,1,,59,77
10080,note_on,240,0,2,,,,,,,,,1,,61,0
10080,note_on,240,0,1,,,,,,,,,0,,76,0
10080,note_on,0,0,1,,,,,,,,,0,,74,85
10320,note_on,240,0,2,,,,,,,,,1,,50,0
10320,note_on,0,0,2,,,,,,,,,1,,50,77
10320,note_on,0,0,1,,,,,,,,,0,,66,85
10320,note_on,240,0,1,,,,,,,,,0,,66,0
10560,note_on,0,0,2,,,,,,,,,1,,52,77
10560,note_on,240,0,2,,,,,,,,,1,,50,0
10560,note_on,0,0,2,,,,,,,,,1,,59,77
10560,note_on,240,0,1,,,,,,,,,0,,66,0
10560,note_on,0,0,2,,,,,,,,,1,,59,0
10560,note_on,0,0,1,,,,,,,,,0,,68,85
10800,note_on,0,0,1,,,,,,,,,0,,74,85
10800,note_on,240,0,1,,,,,,,,,0,,74,0
10800,note_on,240,0,2,,,,,,,,,1,,59,0
10800,note_on,0,0,2,,,,,,,,,1,,59,77
11040,note_on,0,0,1,,,,,,,,,0,,69,85
11040,note_on,240,0,1,,,,,,,,,0,,68,0
11040,note_on,240,0,2,,,,,,,,,1,,59,0
11040,note_on,0,0,2,,,,,,,,,1,,54,77
11040,note_on,0,0,2,,,,,,,,,1,,52,0
11280,note_on,0,0,1,,,,,,,,,0,,74,85
11280,note_on,240,0,1,,,,,,,,,0,,74,0
11280,note_on,240,0,2,,,,,,,,,1,,59,77
11520,note_on,0,0,1,,,,,,,,,0,,73,85
11520,note_on,0,0,1,,,,,,,,,0,,69,0
11520,note_on,0,0,2,,,,,,,,,1,,57,78
11520,note_on,240,0,1,,,,,,,,,0,,74,0
11520,note_on,240,0,2,,,,,,,,,1,,59,0
11520,note_on,0,0,2,,,,,,,,,1,,54,0
11760,note_on,0,0,2,,,,,,,,,1,,56,78
11760,note_on,240,0,1,,,,,,,,,0,,73,0
11760,note_on,240,0,2,,,,,,,,,1,,57,0
11760,note_on,0,0,1,,,,,,,,,0,,71,85
12000,note_on,240,0,2,,,,,,,,,1,,56,0
12000,note_on,0,0,2,,,,,,,,,1,,57,78
12000,note_on,0,0,1,,,,,,,,,0,,73,85
12000,note_on,240,0,1,,,,,,,,,0,,71,0
12240,note_on,240,0,1,,,,,,,,,0,,69,78
12240,note_on,240,0,2,,,,,,,,,1,,49,78
12480,note_on,0,0,1,,,,,,,,,0,,73,0
12480,note_on,240,0,2,,,,,,,,,1,,49,0
12480,note_on,0,0,2,,,,,,,,,1,,57,0
12480,note_on,0,0,2,,,,,,,,,1,,50,78
12480,note_on,240,0,1,,,,,,,,,0,,69,0
12510,note_on,30,0,1,,,,,,,,,0,,62,78
12540,note_on,30,0,1,,,,,,,,,0,,66,78
12720,note_on,180,0,1,,,,,,,,,0,,71,78
12960,note_on,480,0,2,,,,,,,,,1,,50,0
12960,note_on,0,0,2,,,,,,,,,1,,52,78
12960,note_on,240,0,1,,,,,,,,,0,,66,0
12960,note_on,0,0,1,,,,,,,,,0,,62,0
12990,note_on,30,0,1,,,,,,,,,0,,61,79
13020,note_on,30,0,1,,,,,,,,,0,,64,79
13200,note_on,180,0,1,,,,,,,,,0,,71,0
13200,note_on,0,0,1,,,,,,,,,0,,69,79
13440,note_on,240,0,1,,,,,,,,,0,,64,0
13440,note_on,480,0,2,,,,,,,,,1,,52,0
13440,note_on,0,0,1,,,,,,,,,0,,61,0
13440,note_on,0,0,2,,,,,,,,,1,,40,78
13470,note_on,30,0,1,,,,,,,,,0,,59,79
13500,note_on,30,0,1,,,,,,,,,0,,62,79
13680,note_on,0,0,1,,,,,,,,,0,,68,79
13680,note_on,180,0,1,,,,,,,,,0,,69,0
13783,set_tempo,12823,1,0,,,,,,540541,,,,,,
13791,set_tempo,8,1,0,,,,,,545455,,,,,,
13798,set_tempo,7,1,0,,,,,,550459,,,,,,
13806,set_tempo,8,1,0,,,,,,560748,,,,,,
13813,set_tempo,7,1,0,,,,,,566038,,,,,,
13821,set_tempo,8,1,0,,,,,,571429,,,,,,
13828,set_tempo,7,1,0,,,,,,582524,,,,,,
13836,set_tempo,8,1,0,,,,,,588235,,,,,,
13843,set_tempo,7,1,0,,,,,,600000,,,,,,
13851,set_tempo,8,1,0,,,,,,606061,,,,,,
13854,note_on,174,0,1,,,,,,,,,0,,59,0
13858,set_tempo,7,1,0,,,,,,612245,,,,,,
13866,set_tempo,8,1,0,,,,,,625000,,,,,,
13873,set_tempo,7,1,0,,,,,,631579,,,,,,
13881,set_tempo,8,1,0,,,,,,645161,,,,,,
13888,set_tempo,7,1,0,,,,,,652174,,,,,,
13896,set_tempo,8,1,0,,,,,,659341,,,,,,
13903,set_tempo,7,1,0,,,,,,674157,,,,,,
13911,set_tempo,8,1,0,,,,,,681818,,,,,,
13918,set_tempo,7,1,0,,,,,,697674,,,,,,
13920,note_on,0,0,2,,,,,,,,,1,,45,78
13920,note_on,480,0,2,,,,,,,,,1,,40,0
13920,note_on,0,0,1,,,,,,,,,0,,62,0
13920,note_on,66,0,1,,,,,,,,,0,,68,0
13926,set_tempo,8,1,0,,,,,,705882,,,,,,
13933,set_tempo,7,1,0,,,,,,714286,,,,,,
13941,set_tempo,8,1,0,,,,,,731707,,,,,,
13948,set_tempo,7,1,0,,,,,,740741,,,,,,
13952,note_on,32,0,1,,,,,,,,,0,,61,80
13956,set_tempo,8,1,0,,,,,,759494,,,,,,
13963,set_tempo,7,1,0,,,,,,714286,,,,,,
13971,set_tempo,8,1,0,,,,,,697674,,,,,,
13978,set_tempo,7,1,0,,,,,,689655,,,,,,
13984,note_on,32,0,1,,,,,,,,,0,,64,80
13986,set_tempo,8,1,0,,,,,,674157,,,,,,
13993,set_tempo,7,1,0,,,,,,666667,,,,,,
14001,set_tempo,8,1,0,,,,,,652174,,,,,,
14008,set_tempo,7,1,0,,,,,,645161,,,,,,
14016,note_on,32,0,1,,,,,,,,,0,,69,80
14016,set_tempo,8,1,0,,,,,,631579,,,,,,
14023,set_tempo,7,1,0,,,,,,625000,,,,,,
14031,set_tempo,8,1,0,,,,,,612245,,,,,,
14038,set_tempo,7,1,0,,,,,,606061,,,,,,
14046,set_tempo,8,1,0,,,,,,594059,,,,,,
14053,set_tempo,7,1,0,,,,,,588235,,,,,,
14061,set_tempo,8,1,0,,,,,,576923,,,,,,
14068,set_tempo,7,1,0,,,,,,571429,,,,,,
14076,set_tempo,8,1,0,,,,,,560748,,,,,,
14083,set_tempo,7,1,0,,,,,,555556,,,,,,
14091,set_tempo,8,1,0,,,,,,545455,,,,,,
14098,set_tempo,7,1,0,,,,,,571429,,,,,,
14160,note_on,240,0,2,,,,,,,,,1,,52,78
14400,note_on,0,0,2,,,,,,,,,1,,57,78
14400,note_on,240,0,2,,,,,,,,,1,,52,0
14640,note_on,624,0,1,,,,,,,,,0,,73,85
14736,note_on,96,0,1,,,,,,,,,0,,69,0
14848,note_on,112,0,1,,,,,,,,,0,,61,0
14880,note_on,32,0,1,,,,,,,,,0,,64,0
14880,note_on,0,0,1,,,,,,,,,0,,73,0
14880,note_on,480,0,2,,,,,,,,,1,,45,0
14880,note_on,0,0,1,,,,,,,,,0,,71,85
15120,note_on,240,0,2,,,,,,,,,1,,61,85
15240,note_on,0,0,1,,,,,,,,,0,,69,85
15240,note_on,360,0,1,,,,,,,,,0,,71,0
15360,note_on,0,0,2,,,,,,,,,1,,57,85
15360,note_on,0,0,2,,,,,,,,,1,,62,85
15360,note_on,0,0,2,,,,,,,,,1,,57,0
15360,note_on,240,0,2,,,,,,,,,1,,61,0
15360,note_on,120,0,1,,,,,,,,,0,,69,0
15360,note_on,0,0,1,,,,,,,,,0,,71,85
15600,note_on,240,0,1,,,,,,,,,0,,71,0
15600,note_on,0,0,1,,,,,,,,,0,,64,85
15840,note_on,0,0,2,,,,,,,,,1,,56,85
15840,note_on,0,0,2,,,,,,,,,1,,59,85
15840,note_on,0,0,2,,,,,,,,,1,,62,0
15840,note_on,480,0,2,,,,,,,,,1,,57,0
15840,note_on,240,0,1,,,,,,,,,0,,64,0
15840,note_on,0,0,1,,,,,,,,,0,,71,85
16080,note_on,0,0,1,,,,,,,,,0,,74,85
16080,note_on,240,0,1,,,,,,,,,0,,71,0
16320,note_on,0,0,1,,,,,,,,,0,,74,85
16320,text,0,1,1,,,,,,,,,,,,
16320,note_on,240,0,1,,,,,,,,,0,,74,0
16320,note_on,0,0,2,,,,,,,,,1,,64,76
16320,note_on,480,0,2,,,,,,,,,1,,59,0
16439,note_on,119,0,1,,,,,,,,,0,,74,0
16440,note_on,1,0,1,,,,,,,,,0,,73,85
16499,note_on,59,0,1,,,,,,,,,0,,73,0
16500,note_on,1,0,1,,,,,,,,,0,,74,85
16559,note_on,59,0,1,,,,,,,,,0,,74,0
16560,note_on,1,0,1,,,,,,,,,0,,73,85
16679,note_on,119,0,1,,,,,,,,,0,,73,0
16680,note_on,1,0,1,,,,,,,,,0,,71,85
16800,note_on,480,0,2,,,,,,,,,1,,64,0
16800,note_on,0,0,2,,,,,,,,,1,,57,76
16800,note_on,0,0,2,,,,,,,,,1,,56,0
16800,text,0,1,1,,,,,,,,,,,,
16800,note_on,120,0,1,,,,,,,,,0,,71,0
16800,note_on,0,0,1,,,,,,,,,0,,73,85
16859,note_on,59,0,1,,,,,,,,,0,,73,0
16860,note_on,1,0,1,,,,,,,,,0,,71,85
16919,note_on,59,0,1,,,,,,,,,0,,71,0
16920,note_on,1,0,1,,,,,,,,,0,,73,85
17040,note_on,240,0,2,,,,,,,,,1,,61,76
17159,note_on,239,0,1,,,,,,,,,0,,73,0
17280,note_on,0,0,2,,,,,,,,,1,,64,76
17280,note_on,240,0,2,,,,,,,,,1,,61,0
17520,note_on,240,0,2,,,,,,,,,1,,57,0
17520,note_on,0,0,2,,,,,,,,,1,,57,76
17520,note_on,361,0,1,,,,,,,,,0,,76,85
17760,note_on,240,0,2,,,,,,,,,1,,57,0
17760,note_on,0,0,1,,,,,,,,,0,,71,85
17760,note_on,240,0,1,,,,,,,,,0,,76,0
17760,note_on,0,0,2,,,,,,,,,1,,56,76
18000,note_on,240,0,2,,,,,,,,,1,,64,0
18000,note_on,0,0,1,,,,,,,,,0,,76,85
18000,note_on,240,0,1,,,,,,,,,0,,71,0
18000,note_on,0,0,2,,,,,,,,,1,,59,76
18240,note_on,240,0,1,,,,,,,,,0,,76,0
18240,note_on,0,0,2,,,,,,,,,1,,54,76
18240,note_on,0,0,2,,,,,,,,,1,,61,76
18240,note_on,0,0,2,,,,,,,,,1,,56,0
18240,note_on,240,0,2,,,,,,,,,1,,59,0
18240,note_on,0,0,1,,,,,,,,,0,,69,85
18480,note_on,240,0,1,,,,,,,,,0,,69,0
18480,note_on,0,0,2,,,,,,,,,1,,63,76
18480,note_on,0,0,1,,,,,,,,,0,,78,85
18480,note_on,240,0,2,,,,,,,,,1,,61,0
18720,note_on,240,0,2,,,,,,,,,1,,63,0
18720,note_on,0,0,2,,,,,,,,,1,,54,0
18720,note_on,240,0,1,,,,,,,,,0,,78,0
18720,text,0,1,1,,,,,,,,,,,,
18720,note_on,0,0,2,,,,,,,,,1,,64,76
18720,note_on,0,0,1,,,,,,,,,0,,69,85
18839,note_on,119,0,1,,,,,,,,,0,,69,0
18840,note_on,1,0,1,,,,,,,,,0,,68,85
18899,note_on,59,0,1,,,,,,,,,0,,68,0
18900,note_on,1,0,1,,,,,,,,,0,,69,85
18959,note_on,59,0,1,,,,,,,,,0,,69,0
18960,note_on,240,0,2,,,,,,,,,1,,59,76
18960,note_on,1,0,1,,,,,,,,,0,,68,85
19019,note_on,59,0,1,,,,,,,,,0,,68,0
19020,note_on,1,0,1,,,,,,,,,0,,69,85
19079,note_on,59,0,1,,,,,,,,,0,,69,0
19080,note_on,1,0,1,,,,,,,,,0,,68,85
19200,note_on,0,0,2,,,,,,,,,1,,56,76
19200,note_on,240,0,2,,,,,,,,,1,,56,76
19439,note_on,359,0,1,,,,,,,,,0,,68,0
19440,note_on,1,0,1,,,,,,,,,0,,69,85
19440,note_on,0,0,2,,,,,,,,,1,,52,76
19440,note_on,240,0,2,,,,,,,,,1,,56,0
19680,note_on,240,0,1,,,,,,,,,0,,69,0
19680,note_on,0,0,2,,,,,,,,,1,,56,0
19680,note_on,0,0,2,,,,,,,,,1,,59,0
19680,note_on,0,0,2,,,,,,,,,1,,59,76
19680,note_on,240,0,2,,,,,,,,,1,,52,0
19680,note_on,0,0,1,,,,,,,,,0,,66,85
19920,note_on,240,0,2,,,,,,,,,1,,64,0
19920,note_on,0,0,2,,,,,,,,,1,,64,76
20160,note_on,240,0,2,,,,,,,,,1,,64,0
20160,note_on,0,0,2,,,,,,,,,1,,63,76
20400,note_on,0,0,1,,,,,,,,,0,,76,85
20400,note_on,0,0,2,,,,,,,,,1,,61,76
20400,note_on,240,0,2,,,,,,,,,1,,63,0
20400,note_on,720,0,1,,,,,,,,,0,,66,0
20520,note_on,120,0,1,,,,,,,,,0,,76,0
20520,note_on,0,0,1,,,,,,,,,0,,75,85
20640,note_on,120,0,1,,,,,,,,,0,,75,0
20640,text,0,1,1,,,,,,,,,,,,
20640,note_on,240,0,2,,,,,,,,,1,,61,0
20640,note_on,0,0,2,,,,,,,,,1,,59,76
20640,note_on,0,0,2,,,,,,,,,1,,59,0
20640,note_on,0,0,1,,,,,,,,,0,,76,85
20759,note_on,119,0,1,,,,,,,,,0,,76,0
20760,note_on,1,0,1,,,,,,,,,0,,75,85
20819,note_on,59,0,1,,,,,,,,,0,,75,0
20820,note_on,1,0,1,,,,,,,,,0,,76,85
20879,note_on,59,0,1,,,,,,,,,0,,76,0
20880,note_on,240,0,2,,,,,,,,,1,,47,76
20880,note_on,1,0,1,,,,,,,,,0,,75,85
20999,note_on,119,0,1,,,,,,,,,0,,75,0
21000,note_on,1,0,1,,,,,,,,,0,,73,85
21060,note_on,0,0,1,,,,,,,,,0,,75,85
21060,note_on,60,0,1,,,,,,,,,0,,73,0
21120,note_on,0,0,2,,,,,,,,,1,,49,76
21120,note_on,60,0,1,,,,,,,,,0,,75,0
21120,note_on,240,0,2,,,,,,,,,1,,47,0
21120,note_on,0,0,1,,,,,,,,,0,,76,85
21360,note_on,240,0,2,,,,,,,,,1,,59,76
21360,note_on,240,0,1,,,,,,,,,0,,76,0
21360,note_on,0,0,1,,,,,,,,,0,,75,85
21420,note_on,60,0,2,,,,,,,,,1,,59,0
21480,note_on,120,0,1,,,,,,,,,0,,75,0
21480,note_on,0,0,1,,,,,,,,,0,,76,85
21600,note_on,0,0,2,,,,,,,,,1,,57,76
21600,note_on,180,0,2,,,,,,,,,1,,59,0
21600,note_on,120,0,1,,,,,,,,,0,,76,0
21600,note_on,0,0,1,,,,,,,,,0,,78,85
21600,text,0,1,1,,,,,,,,,,,,
21719,note_on,119,0,1,,,,,,,,,0,,78,0
21720,note_on,1,0,1,,,,,,,,,0,,76,85
21779,note_on,59,0,1,,,,,,,,,0,,76,0
21780,note_on,1,0,1,,,,,,,,,0,,78,85
21839,note_on,59,0,1,,,,,,,,,0,,78,0
21840,note_on,1,0,1,,,,,,,,,0,,76,85
21840,note_on,240,0,2,,,,,,,,,1,,49,76
21959,note_on,119,0,1,,,,,,,,,0,,76,0
21960,note_on,1,0,1,,,,,,,,,0,,75,85
22020,note_on,60,0,1,,,,,,,,,0,,75,0
22020,note_on,0,0,1,,,,,,,,,0,,76,85
22020,note_on,180,0,2,,,,,,,,,1,,49,0
22080,note_on,0,0,2,,,,,,,,,1,,51,76
22080,note_on,60,0,1,,,,,,,,,0,,76,0
22080,note_on,0,0,1,,,,,,,,,0,,78,85
22080,note_on,60,0,2,,,,,,,,,1,,49,0
22200,note_on,120,0,1,,,,,,,,,0,,78,0
22200,note_on,0,0,1,,,,,,,,,0,,76,85
22320,note_on,120,0,1,,,,,,,,,0,,76,0
22320,note_on,240,0,2,,,,,,,,,1,,57,0
22320,note_on,0,0,2,,,,,,,,,1,,57,76
22320,note_on,0,0,1,,,,,,,,,0,,78,85
22560,note_on,240,0,1,,,,,,,,,0,,78,0
22560,note_on,240,0,2,,,,,,,,,1,,51,0
22560,note_on,0,0,2,,,,,,,,,1,,52,76
22560,note_on,0,0,1,,,,,,,,,0,,71,85
22800,note_on,240,0,2,,,,,,,,,1,,57,0
22800,note_on,0,0,2,,,,,,,,,1,,57,76
23040,note_on,240,0,2,,,,,,,,,1,,57,0
23040,note_on,0,0,2,,,,,,,,,1,,56,76
23280,note_on,240,0,2,,,,,,,,,1,,52,0
23280,note_on,0,0,2,,,,,,,,,1,,52,76
23280,note_on,0,0,1,,,,,,,,,0,,71,85
23280,note_on,720,0,1,,,,,,,,,0,,71,0
23520,note_on,0,0,1,,,,,,,,,0,,71,85
23520,note_on,240,0,1,,,,,,,,,0,,71,0
23520,note_on,240,0,2,,,,,,,,,1,,52,0
23520,note_on,0,0,2,,,,,,,,,1,,44,76
23760,note_on,240,0,1,,,,,,,,,0,,59,85
23760,note_on,240,0,2,,,,,,,,,1,,56,0
23760,note_on,0,0,2,,,,,,,,,1,,56,76
24000,note_on,240,0,1,,,,,,,,,0,,59,0
24000,note_on,0,0,2,,,,,,,,,1,,45,76
24000,note_on,240,0,2,,,,,,,,,1,,44,0
24000,note_on,0,0,1,,,,,,,,,0,,61,85
24240,note_on,240,0,1,,,,,,,,,0,,71,0
24240,note_on,0,0,2,,,,,,,,,1,,56,76
24240,note_on,0,0,1,,,,,,,,,0,,71,85
24240,note_on,240,0,2,,,,,,,,,1,,56,0
24480,note_on,0,0,1,,,,,,,,,0,,69,85
24480,note_on,240,0,2,,,,,,,,,1,,56,0
24480,note_on,0,0,2,,,,,,,,,1,,54,76
24480,note_on,240,0,1,,,,,,,,,0,,71,0
24720,note_on,240,0,1,,,,,,,,,0,,61,0
24720,note_on,240,0,2,,,,,,,,,1,,45,0
24720,note_on,0,0,1,,,,,,,,,0,,61,85
24720,note_on,0,0,2,,,,,,,,,1,,45,76
24960,note_on,0,0,2,,,,,,,,,1,,47,75
24960,note_on,0,0,1,,,,,,,,,0,,63,85
24960,note_on,240,0,1,,,,,,,,,0,,61,0
24960,note_on,240,0,2,,,,,,,,,1,,45,0
25200,note_on,240,0,2,,,,,,,,,1,,54,0
25200,note_on,0,0,2,,,,,,,,,1,,54,75
25200,note_on,240,0,1,,,,,,,,,0,,69,0
25200,note_on,0,0,1,,,,,,,,,0,,69,85
25440,note_on,240,0,2,,,,,,,,,1,,54,0
25440,note_on,0,0,1,,,,,,,,,0,,63,0
25440,note_on,0,0,2,,,,,,,,,1,,52,75
25440,note_on,0,0,1,,,,,,,,,0,,68,85
25440,note_on,0,0,2,,,,,,,,,1,,47,0
25440,note_on,0,0,2,,,,,,,,,1,,49,75
25440,note_on,240,0,1,,,,,,,,,0,,69,0
25680,note_on,240,0,1,,,,,,,,,0,,68,0
25680,note_on,0,0,1,,,,,,,,,0,,64,85
25920,note_on,480,0,2,,,,,,,,,1,,49,0
25920,note_on,240,0,1,,,,,,,,,0,,64,0
25920,note_on,0,0,1,,,,,,,,,0,,76,85
26160,note_on,0,0,2,,,,,,,,,1,,54,75
26160,note_on,240,0,2,,,,,,,,,1,,52,0
26400,note_on,0,0,2,,,,,,,,,1,,56,75
26400,note_on,240,0,2,,,,,,,,,1,,54,0
26640,note_on,240,0,2,,,,,,,,,1,,44,75
26640,note_on,720,0,1,,,,,,,,,0,,76,0
26640,note_on,0,0,1,,,,,,,,,0,,75,85
26880,note_on,240,0,1,,,,,,,,,0,,75,0
26880,note_on,0,0,1,,,,,,,,,0,,73,85
26880,note_on,0,0,2,,,,,,,,,1,,45,75
26880,note_on,240,0,2,,,,,,,,,1,,44,0
27120,note_on,240,0,2,,,,,,,,,1,,56,0
27120,note_on,0,0,1,,,,,,,,,0,,71,85
27120,note_on,0,0,2,,,,,,,,,1,,56,75
27120,note_on,240,0,1,,,,,,,,,0,,73,0
27360,note_on,0,0,1,,,,,,,,,0,,61,85
27360,note_on,0,0,1,,,,,,,,,0,,69,85
27360,note_on,240,0,1,,,,,,,,,0,,71,0
27360,note_on,240,0,2,,,,,,,,,1,,56,0
27360,note_on,0,0,2,,,,,,,,,1,,54,75
27600,note_on,240,0,2,,,,,,,,,1,,54,0
27600,note_on,0,0,2,,,,,,,,,1,,56,75
27600,note_on,240,0,1,,,,,,,,,0,,69,0
27600,note_on,0,0,1,,,,,,,,,0,,68,85
27840,note_on,240,0,1,,,,,,,,,0,,68,0
27840,note_on,0,0,1,,,,,,,,,0,,66,85
27840,note_on,0,0,1,,,,,,,,,0,,61,0
27840,note_on,0,0,1,,,,,,,,,0,,69,85
27840,note_on,0,0,2,,,,,,,,,1,,57,75
27840,note_on,0,0,2,,,,,,,,,1,,45,0
27840,note_on,240,0,2,,,,,,,,,1,,56,0
28080,note_on,0,0,1,,,,,,,,,0,,69,85
28080,note_on,0,0,1,,,,,,,,,0,,66,0
28080,note_on,240,0,1,,,,,,,,,0,,69,0
28080,note_on,240,0,2,,,,,,,,,1,,49,75
28080,note_on,0,0,1,,,,,,,,,0,,64,85
28106,set_tempo,14008,1,0,,,,,,571429,,,,,,
28256,note_on,176,0,1,,,,,,,,,0,,69,0
28264,set_tempo,158,1,0,,,,,,566038,,,,,,
28268,set_tempo,4,1,0,,,,,,606061,,,,,,
28275,set_tempo,7,1,0,,,,,,652174,,,,,,
28283,set_tempo,8,1,0,,,,,,705882,,,,,,
28290,set_tempo,7,1,0,,,,,,769231,,,,,,
28298,set_tempo,8,1,0,,,,,,845070,,,,,,
28320,note_on,0,0,2,,,,,,,,,1,,47,75
28320,note_on,0,0,2,,,,,,,,,1,,57,0
28320,note_on,240,0,2,,,,,,,,,1,,49,0
28320,note_on,64,0,1,,,,,,,,,0,,64,0
28352,note_on,32,0,2,,,,,,,,,1,,51,75
28384,note_on,32,0,2,,,,,,,,,1,,54,75
28410,set_tempo,112,1,0,,,,,,845070,,,,,,
28410,note_on,90,0,1,,,,,,,,,0,,59,85
28425,set_tempo,15,1,0,,,,,,833333,,,,,,
28433,set_tempo,8,1,0,,,,,,821918,,,,,,
28440,note_on,30,0,1,,,,,,,,,0,,63,85
28440,set_tempo,7,1,0,,,,,,810811,,,,,,
28448,set_tempo,8,1,0,,,,,,800000,,,,,,
28455,set_tempo,7,1,0,,,,,,789474,,,,,,
28470,note_on,30,0,1,,,,,,,,,0,,66,85
28470,set_tempo,15,1,0,,,,,,779221,,,,,,
28478,set_tempo,8,1,0,,,,,,769231,,,,,,
28485,set_tempo,7,1,0,,,,,,759494,,,,,,
28493,set_tempo,8,1,0,,,,,,750000,,,,,,
28500,set_tempo,7,1,0,,,,,,740741,,,,,,
28500,note_on,30,0,1,,,,,,,,,0,,69,85
28508,set_tempo,8,1,0,,,,,,731707,,,,,,
28523,set_tempo,15,1,0,,,,,,722892,,,,,,
28530,set_tempo,7,1,0,,,,,,714286,,,,,,
28538,set_tempo,8,1,0,,,,,,705882,,,,,,
28545,set_tempo,7,1,0,,,,,,697674,,,,,,
28553,set_tempo,8,1,0,,,,,,689655,,,,,,
28560,set_tempo,7,1,0,,,,,,681818,,,,,,
28575,set_tempo,15,1,0,,,,,,674157,,,,,,
28583,set_tempo,8,1,0,,,,,,666667,,,,,,
28590,set_tempo,7,1,0,,,,,,659341,,,,,,
28598,set_tempo,8,1,0,,,,,,652174,,,,,,
28605,set_tempo,7,1,0,,,,,,645161,,,,,,
28613,set_tempo,8,1,0,,,,,,638298,,,,,,
28628,set_tempo,15,1,0,,,,,,631579,,,,,,
28635,set_tempo,7,1,0,,,,,,625000,,,,,,
28643,set_tempo,8,1,0,,,,,,618557,,,,,,
28650,set_tempo,7,1,0,,,,,,612245,,,,,,
28658,set_tempo,8,1,0,,,,,,606061,,,,,,
28665,set_tempo,7,1,0,,,,,,600000,,,,,,
28680,set_tempo,15,1,0,,,,,,594059,,,,,,
28688,set_tempo,8,1,0,,,,,,588235,,,,,,
28695,set_tempo,7,1,0,,,,,,582524,,,,,,
28703,set_tempo,8,1,0,,,,,,576923,,,,,,
28710,set_tempo,7,1,0,,,,,,571429,,,,,,
28714,set_tempo,4,1,0,,,,,,571429,,,,,,
28780,note_on,396,0,2,,,,,,,,,1,,51,0
28794,note_on,294,0,1,,,,,,,,,0,,69,0
28796,note_on,2,0,1,,,,,,,,,0,,66,0
28800,note_on,0,0,1,,,,,,,,,0,,71,85
28800,note_on,4,0,1,,,,,,,,,0,,63,0
28800,note_on,0,0,1,,,,,,,,,0,,59,0
28800,note_on,20,0,2,,,,,,,,,1,,54,0
28800,note_on,0,0,2,,,,,,,,,1,,51,75
28920,note_on,120,0,1,,,,,,,,,0,,71,0
28920,note_on,0,0,1,,,,,,,,,0,,69,85
29040,note_on,120,0,1,,,,,,,,,0,,69,0
29040,note_on,0,0,1,,,,,,,,,0,,68,85
29040,note_on,240,0,2,,,,,,,,,1,,51,0
29040,note_on,0,0,2,,,,,,,,,1,,52,75
29040,note_on,0,0,2,,,,,,,,,1,,47,0
29160,note_on,120,0,1,,,,,,,,,0,,68,0
29160,note_on,0,0,1,,,,,,,,,0,,66,85
29280,note_on,0,0,2,,,,,,,,,1,,44,75
29280,note_on,120,0,1,,,,,,,,,0,,66,0
29280,note_on,0,0,1,,,,,,,,,0,,68,85
29280,note_on,240,0,2,,,,,,,,,1,,52,0
29520,note_on,240,0,2,,,,,,,,,1,,44,0
29520,note_on,240,0,1,,,,,,,,,0,,68,0
29520,note_on,0,0,1,,,,,,,,,0,,64,85
29760,note_on,240,0,2,,,,,,,,,1,,45,78
29760,note_on,240,0,1,,,,,,,,,0,,64,0
29792,note_on,32,0,2,,,,,,,,,1,,57,78
29824,note_on,32,0,2,,,,,,,,,1,,61,78
30000,note_on,240,0,1,,,,,,,,,0,,66,85
30240,note_on,0,0,2,,,,,,,,,1,,45,0
30240,note_on,0,0,2,,,,,,,,,1,,47,79
30240,note_on,0,0,2,,,,,,,,,1,,57,0
30240,note_on,416,0,2,,,,,,,,,1,,61,0
30272,note_on,32,0,2,,,,,,,,,1,,56,79
30304,note_on,32,0,2,,,,,,,,,1,,59,79
30480,note_on,0,0,1,,,,,,,,,0,,64,85
30480,note_on,480,0,1,,,,,,,,,0,,66,0
30688,note_on,0,0,2,,,,,,,,,1,,56,0
30688,note_on,384,0,2,,,,,,,,,1,,59,0
30720,note_on,0,0,2,,,,,,,,,1,,35,79
30720,note_on,32,0,2,,,,,,,,,1,,47,0
30752,note_on,32,0,2,,,,,,,,,1,,54,79
30784,note_on,32,0,2,,,,,,,,,1,,57,79
30960,note_on,480,0,1,,,,,,,,,0,,64,0
30960,note_on,0,0,1,,,,,,,,,0,,63,85
31168,note_on,384,0,2,,,,,,,,,1,,57,0
31200,note_on,0,0,2,,,,,,,,,1,,35,0
31200,note_on,0,0,2,,,,,,,,,1,,40,80
31200,note_on,32,0,2,,,,,,,,,1,,54,0
31200,note_on,240,0,1,,,,,,,,,0,,63,0
31232,note_on,32,0,2,,,,,,,,,1,,52,80
31264,note_on,64,0,1,,,,,,,,,0,,64,85
31440,note_on,208,0,2,,,,,,,,,1,,59,80
31680,note_on,0,0,2,,,,,,,,,1,,57,85
31680,note_on,240,0,2,,,,,,,,,1,,59,0
31920,note_on,240,0,2,,,,,,,,,1,,57,0
31920,note_on,0,0,2,,,,,,,,,1,,54,75
32160,note_on,0,0,1,,,,,,,,,0,,69,85
32160,note_on,896,0,1,,,,,,,,,0,,64,0
32160,note_on,240,0,2,,,,,,,,,1,,52,0
32400,note_on,240,0,1,,,,,,,,,0,,69,0
32400,note_on,0,0,1,,,,,,,,,0,,63,85
32400,note_on,240,0,2,,,,,,,,,1,,54,0
32520,set_tempo,3806,1,0,,,,,,566038,,,,,,
32576,note_on,176,0,2,,,,,,,,,1,,40,0
32582,set_tempo,62,1,0,,,,,,566038,,,,,,
32589,set_tempo,7,1,0,,,,,,582524,,,,,,
32597,set_tempo,8,1,0,,,,,,606061,,,,,,
32604,set_tempo,7,1,0,,,,,,631579,,,,,,
32612,set_tempo,8,1,0,,,,,,652174,,,,,,
32619,set_tempo,7,1,0,,,,,,681818,,,,,,
32627,set_tempo,8,1,0,,,,,,714286,,,,,,
32634,set_tempo,7,1,0,,,,,,740741,,,,,,
32640,note_on,64,0,2,,,,,,,,,1,,40,76
32640,note_on,240,0,1,,,,,,,,,0,,63,0
32642,set_tempo,8,1,0,,,,,,779221,,,,,,
32649,set_tempo,7,1,0,,,,,,821918,,,,,,
32672,note_on,32,0,2,,,,,,,,,1,,47,76
32704,note_on,32,0,2,,,,,,,,,1,,52,76
32736,note_on,32,0,2,,,,,,,,,1,,56,76
32768,note_on,32,0,2,,,,,,,,,1,,59,76
32790,note_on,150,0,1,,,,,,,,,0,,64,85
32882,set_tempo,233,1,0,,,,,,821918,,,,,,
32889,set_tempo,7,1,0,,,,,,810811,,,,,,
32897,set_tempo,8,1,0,,,,,,789474,,,,,,
32904,set_tempo,7,1,0,,,,,,769231,,,,,,
32912,set_tempo,8,1,0,,,,,,750000,,,,,,
32919,set_tempo,7,1,0,,,,,,731707,,,,,,
32927,set_tempo,8,1,0,,,,,,722892,,,,,,
32934,set_tempo,7,1,0,,,,,,705882,,,,,,
32942,set_tempo,8,1,0,,,,,,689655,,,,,,
32949,set_tempo,7,1,0,,,,,,674157,,,,,,
32957,set_tempo,8,1,0,,,,,,659341,,,,,,
32964,set_tempo,7,1,0,,,,,,652174,,,,,,
32972,set_tempo,8,1,0,,,,,,638298,,,,,,
32979,set_tempo,7,1,0,,,,,,625000,,,,,,
32987,set_tempo,8,1,0,,,,,,612245,,,,,,
32994,set_tempo,7,1,0,,,,,,600000,,,,,,
33002,set_tempo,8,1,0,,,,,,594059,,,,,,
33009,set_tempo,7,1,0,,,,,,582524,,,,,,
33017,set_tempo,8,1,0,,,,,,571429,,,,,,
33022,set_tempo,5,1,0,,,,,,571429,,,,,,
33360,marker,338,1,0,,,,,,,,,,,,
33360,note_on,592,0,2,,,,,,,,,1,,59,0
33360,note_on,0,0,2,,,,,,,,,1,,52,0
33360,note_on,0,0,2,,,,,,,,,1,,40,0
33360,note_on,0,0,2,,,,,,,,,1,,47,0
33360,note_on,0,0,2,,,,,,,,,1,,56,0
33360,note_on,0,0,2,,,,,,,,,1,,52,85
33360,note_on,570,0,1,,,,,,,,,0,,64,0
33600,note_on,240,0,2,,,,,,,,,1,,52,0
33600,note_on,0,0,2,,,,,,,,,1,,57,85
33840,note_on,480,0,1,,,,,,,,,0,,61,85
34080,note_on,240,0,1,,,,,,,,,0,,64,85
34080,note_on,0,0,2,,,,,,,,,1,,45,85
34080,note_on,480,0,2,,,,,,,,,1,,57,0
34320,note_on,240,0,1,,,,,,,,,0,,61,0
34320,note_on,0,0,1,,,,,,,,,0,,59,85
34559,text,239,1,1,,,,,,,,,,,,
34560,note_on,480,0,2,,,,,,,,,1,,33,85
34560,note_on,0,0,1,,,,,,,,,0,,61,85
34560,text,0,1,1,,,,,,,,,,,,
34560,note_on,1,0,1,,,,,,,,,0,,59,0
34619,note_on,59,0,1,,,,,,,,,0,,61,0
34620,note_on,1,0,1,,,,,,,,,0,,59,85
34679,note_on,59,0,1,,,,,,,,,0,,59,0
34680,note_on,1,0,1,,,,,,,,,0,,61,85
34739,note_on,59,0,1,,,,,,,,,0,,61,0
34740,note_on,1,0,1,,,,,,,,,0,,59,85
34799,note_on,59,0,1,,,,,,,,,0,,59,0
34800,note_on,1,0,1,,,,,,,,,0,,61,85
34800,note_on,240,0,2,,,,,,,,,1,,57,88
35040,note_on,0,0,1,,,,,,,,,0,,59,85
35040,note_on,0,0,1,,,,,,,,,0,,62,85
35040,note_on,240,0,1,,,,,,,,,0,,64,0
35040,note_on,240,0,2,,,,,,,,,1,,45,0
35279,note_on,239,0,1,,,,,,,,,0,,61,0
35280,note_on,240,0,2,,,,,,,,,1,,57,0
35280,note_on,0,0,2,,,,,,,,,1,,56,76
35519,text,239,1,2,,,,,,,,,,,,
35520,text,0,1,2,,,,,,,,,,,,
35520,note_on,0,0,2,,,,,,,,,1,,57,76
35520,note_on,0,0,2,,,,,,,,,1,,33,0
35520,note_on,0,0,1,,,,,,,,,0,,62,0
35520,note_on,0,0,1,,,,,,,,,0,,61,85
35520,note_on,241,0,1,,,,,,,,,0,,59,0
35520,note_on,1,0,2,,,,,,,,,1,,56,0
35579,note_on,59,0,2,,,,,,,,,1,,57,0
35580,note_on,1,0,2,,,,,,,,,1,,56,76
35639,note_on,59,0,2,,,,,,,,,1,,56,0
35640,note_on,1,0,2,,,,,,,,,1,,57,76
35699,note_on,59,0,2,,,,,,,,,1,,57,0
35700,note_on,1,0,2,,,,,,,,,1,,56,76
35759,note_on,59,0,2,,,,,,,,,1,,56,0
35760,note_on,1,0,2,,,,,,,,,1,,57,76
35760,note_on,0,0,2,,,,,,,,,1,,54,76
36000,note_on,240,0,2,,,,,,,,,1,,54,0
36000,note_on,0,0,2,,,,,,,,,1,,52,76
36240,note_on,240,0,2,,,,,,,,,1,,52,0
36240,note_on,0,0,2,,,,,,,,,1,,50,77
36240,note_on,0,0,1,,,,,,,,,0,,64,85
36240,note_on,720,0,1,,,,,,,,,0,,61,0
36479,note_on,239,0,2,,,,,,,,,1,,57,0
36480,note_on,240,0,1,,,,,,,,,0,,64,0
36480,note_on,1,0,2,,,,,,,,,1,,50,0
36480,note_on,0,0,2,,,,,,,,,1,,49,77
36480,note_on,0,0,1,,,,,,,,,0,,66,85
36720,note_on,240,0,2,,,,,,,,,1,,49,0
36720,note_on,0,0,2,,,,,,,,,1,,47,77
36720,note_on,0,0,1,,,,,,,,,0,,68,85
36720,note_on,240,0,1,,,,,,,,,0,,66,0
36959,text,239,1,1,,,,,,,,,,,,
36960,note_on,0,0,1,,,,,,,,,0,,69,85
36960,text,0,1,1,,,,,,,,,,,,
36960,note_on,1,0,1,,,,,,,,,0,,68,0
36960,note_on,0,0,2,,,,,,,,,1,,49,77
36960,note_on,240,0,2,,,,,,,,,1,,47,0
37019,note_on,59,0,1,,,,,,,,,0,,69,0
37020,note_on,1,0,1,,,,,,,,,0,,68,85
37079,note_on,59,0,1,,,,,,,,,0,,68,0
37080,note_on,1,0,1,,,,,,,,,0,,69,85
37139,note_on,59,0,1,,,,,,,,,0,,69,0
37140,note_on,1,0,1,,,,,,,,,0,,68,85
37199,note_on,59,0,1,,,,,,,,,0,,68,0
37200,note_on,240,0,2,,,,,,,,,1,,52,77
37200,note_on,1,0,1,,,,,,,,,0,,69,85
37440,note_on,0,0,2,,,,,,,,,1,,54,77
37440,note_on,0,0,2,,,,,,,,,1,,49,0
37440,note_on,240,0,2,,,,,,,,,1,,52,0
37679,note_on,479,0,1,,,,,,,,,0,,69,0
37680,note_on,0,0,2,,,,,,,,,1,,56,77
37680,note_on,240,0,2,,,,,,,,,1,,54,0
37680,note_on,1,0,1,,,,,,,,,0,,71,85
37920,note_on,0,0,2,,,,,,,,,1,,57,77
37920,note_on,240,0,2,,,,,,,,,1,,56,0
37920,note_on,0,0,1,,,,,,,,,0,,73,85
37920,note_on,240,0,1,,,,,,,,,0,,71,0
38160,note_on,0,0,1,,,,,,,,,0,,74,85
38160,note_on,240,0,1,,,,,,,,,0,,73,0
38160,note_on,240,0,2,,,,,,,,,1,,45,77
38400,note_on,0,0,2,,,,,,,,,1,,57,0
38400,text,0,1,1,,,,,,,,,,,,
38400,note_on,240,0,1,,,,,,,,,0,,74,0
38400,note_on,0,0,1,,,,,,,,,0,,73,85
38400,note_on,0,0,2,,,,,,,,,1,,52,77
38400,note_on,0,0,2,,,,,,,,,1,,56,77
38400,note_on,240,0,2,,,,,,,,,1,,45,0
38519,note_on,119,0,1,,,,,,,,,0,,73,0
38520,note_on,1,0,1,,,,,,,,,0,,71,85
38579,note_on,59,0,1,,,,,,,,,0,,71,0
38580,note_on,1,0,1,,,,,,,,,0,,73,85
38639,note_on,59,0,1,,,,,,,,,0,,73,0
38640,note_on,1,0,1,,,,,,,,,0,,71,85
38640,note_on,240,0,2,,,,,,,,,1,,59,77
38699,note_on,59,0,1,,,,,,,,,0,,71,0
38700,note_on,1,0,1,,,,,,,,,0,,73,85
38759,note_on,59,0,1,,,,,,,,,0,,73,0
38760,note_on,1,0,1,,,,,,,,,0,,71,85
38880,note_on,240,0,2,,,,,,,,,1,,59,0
38880,note_on,0,0,2,,,,,,,,,1,,61,77
39120,note_on,240,0,2,,,,,,,,,1,,61,0
39120,note_on,0,0,2,,,,,,,,,1,,62,77
39359,note_on,599,0,1,,,,,,,,,0,,71,0
39360,note_on,240,0,2,,,,,,,,,1,,62,0
39360,note_on,0,0,2,,,,,,,,,1,,52,0
39360,note_on,0,0,2,,,,,,,,,1,,56,0
39360,note_on,0,0,2,,,,,,,,,1,,64,77
39360,text,1,1,1,,,,,,,,,,,,
39360,note_on,0,0,1,,,,,,,,,0,,69,85
39479,note_on,119,0,1,,,,,,,,,0,,69,0
39480,note_on,1,0,1,,,,,,,,,0,,68,85
39539,note_on,59,0,1,,,,,,,,,0,,68,0
39540,note_on,1,0,1,,,,,,,,,0,,69,85
39599,note_on,59,0,1,,,,,,,,,0,,69,0
39600,note_on,240,0,2,,,,,,,,,1,,52,77
39600,note_on,1,0,1,,,,,,,,,0,,68,85
39719,note_on,119,0,1,,,,,,,,,0,,68,0
39720,note_on,1,0,1,,,,,,,,,0,,66,85
39780,note_on,60,0,1,,,,,,,,,0,,66,0
39780,note_on,0,0,1,,,,,,,,,0,,68,85
39840,note_on,60,0,1,,,,,,,,,0,,68,0
39840,note_on,0,0,2,,,,,,,,,1,,54,77
39840,note_on,240,0,2,,,,,,,,,1,,52,0
39840,note_on,0,0,1,,,,,,,,,0,,69,85
40080,note_on,0,0,2,,,,,,,,,1,,64,77
40080,note_on,240,0,2,,,,,,,,,1,,64,0
40080,note_on,0,0,1,,,,,,,,,0,,68,85
40080,note_on,240,0,1,,,,,,,,,0,,69,0
40200,note_on,120,0,1,,,,,,,,,0,,68,0
40200,note_on,0,0,1,,,,,,,,,0,,69,85
40320,note_on,120,0,1,,,,,,,,,0,,69,0
40320,text,0,1,1,,,,,,,,,,,,
40320,note_on,0,0,1,,,,,,,,,0,,71,85
40320,note_on,240,0,2,,,,,,,,,1,,64,0
40320,note_on,0,0,2,,,,,,,,,1,,62,77
40379,note_on,59,0,1,,,,,,,,,0,,71,0
40380,note_on,1,0,1,,,,,,,,,0,,69,85
40439,note_on,59,0,1,,,,,,,,,0,,69,0
40440,note_on,1,0,1,,,,,,,,,0,,71,85
40499,note_on,59,0,1,,,,,,,,,0,,71,0
40500,note_on,1,0,1,,,,,,,,,0,,69,85
40559,note_on,59,0,1,,,,,,,,,0,,69,0
40560,note_on,240,0,2,,,,,,,,,1,,54,0
40560,note_on,0,0,2,,,,,,,,,1,,54,77
40680,note_on,121,0,1,,,,,,,,,0,,68,85
40740,note_on,60,0,1,,,,,,,,,0,,68,0
40740,note_on,0,0,1,,,,,,,,,0,,69,85
40800,note_on,60,0,1,,,,,,,,,0,,69,0
40800,note_on,0,0,1,,,,,,,,,0,,71,85
40800,note_on,0,0,2,,,,,,,,,1,,56,77
40800,note_on,240,0,2,,,,,,,,,1,,54,0
40920,note_on,0,0,1,,,,,,,,,0,,69,85
40920,note_on,120,0,1,,,,,,,,,0,,71,0
41040,note_on,0,0,2,,,,,,,,,1,,62,77
41040,note_on,0,0,1,,,,,,,,,0,,71,85
41040,note_on,120,0,1,,,,,,,,,0,,69,0
41040,note_on,240,0,2,,,,,,,,,1,,62,0
41280,note_on,240,0,2,,,,,,,,,1,,56,0
41280,note_on,0,0,2,,,,,,,,,1,,57,77
41280,note_on,0,0,1,,,,,,,,,0,,64,85
41280,note_on,240,0,1,,,,,,,,,0,,71,0
41520,note_on,240,0,2,,,,,,,,,1,,62,0
41520,note_on,0,0,2,,,,,,,,,1,,62,77
41760,note_on,240,0,2,,,,,,,,,1,,62,0
41760,note_on,0,0,2,,,,,,,,,1,,61,77
42000,note_on,720,0,1,,,,,,,,,0,,76,85
42000,note_on,240,0,2,,,,,,,,,1,,57,0
42000,note_on,0,0,2,,,,,,,,,1,,57,77
42240,note_on,240,0,2,,,,,,,,,1,,57,0
42240,note_on,240,0,1,,,,,,,,,0,,76,0
42240,note_on,0,0,2,,,,,,,,,1,,49,77
42240,note_on,0,0,1,,,,,,,,,0,,76,85
42480,note_on,240,0,2,,,,,,,,,1,,61,0
42480,note_on,0,0,2,,,,,,,,,1,,61,77
42480,note_on,0,0,1,,,,,,,,,0,,64,85
42480,note_on,240,0,1,,,,,,,,,0,,64,0
42720,note_on,240,0,2,,,,,,,,,1,,49,0
42720,note_on,0,0,2,,,,,,,,,1,,50,77
42720,note_on,0,0,1,,,,,,,,,0,,66,85
42720,note_on,240,0,1,,,,,,,,,0,,64,0
42960,note_on,240,0,1,,,,,,,,,0,,76,0
42960,note_on,240,0,2,,,,,,,,,1,,61,0
42960,note_on,0,0,2,,,,,,,,,1,,61,77
42960,note_on,0,0,1,,,,,,,,,0,,76,85
43200,note_on,240,0,2,,,,,,,,,1,,61,0
43200,note_on,0,0,1,,,,,,,,,0,,74,85
43200,note_on,240,0,1,,,,,,,,,0,,76,0
43200,note_on,0,0,2,,,,,,,,,1,,59,77
43440,note_on,0,0,1,,,,,,,,,0,,66,85
43440,note_on,240,0,1,,,,,,,,,0,,66,0
43440,note_on,240,0,2,,,,,,,,,1,,50,0
43440,note_on,0,0,2,,,,,,,,,1,,50,77
43680,note_on,0,0,2,,,,,,,,,1,,52,78
43680,note_on,0,0,2,,,,,,,,,1,,59,78
43680,note_on,240,0,2,,,,,,,,,1,,50,0
43680,note_on,0,0,2,,,,,,,,,1,,59,0
43680,note_on,240,0,1,,,,,,,,,0,,66,0
43680,note_on,0,0,1,,,,,,,,,0,,68,85
43920,note_on,0,0,1,,,,,,,,,0,,74,85
43920,note_on,240,0,2,,,,,,,,,1,,59,0
43920,note_on,240,0,1,,,,,,,,,0,,74,0
43920,note_on,0,0,2,,,,,,,,,1,,59,78
44160,note_on,240,0,1,,,,,,,,,0,,68,0
44160,note_on,0,0,1,,,,,,,,,0,,69,85
44160,note_on,0,0,2,,,,,,,,,1,,54,78
44160,note_on,240,0,2,,,,,,,,,1,,59,0
44160,note_on,0,0,2,,,,,,,,,1,,52,0
44400,note_on,240,0,1,,,,,,,,,0,,74,0
44400,note_on,0,0,1,,,,,,,,,0,,74,85
44400,note_on,240,0,2,,,,,,,,,1,,59,78
44640,note_on,0,0,1,,,,,,,,,0,,69,0
44640,note_on,240,0,1,,,,,,,,,0,,74,0
44640,note_on,240,0,2,,,,,,,,,1,,59,0
44640,note_on,0,0,2,,,,,,,,,1,,54,0
44640,note_on,0,0,2,,,,,,,,,1,,57,78
44640,note_on,0,0,1,,,,,,,,,0,,73,85
44880,note_on,0,0,2,,,,,,,,,1,,56,78
44880,note_on,0,0,1,,,,,,,,,0,,71,85
44880,note_on,240,0,1,,,,,,,,,0,,73,0
44880,note_on,240,0,2,,,,,,,,,1,,57,0
45120,note_on,240,0,2,,,,,,,,,1,,56,0
45120,note_on,0,0,2,,,,,,,,,1,,57,78
45120,note_on,240,0,1,,,,,,,,,0,,71,0
45120,note_on,0,0,1,,,,,,,,,0,,73,85
45360,note_on,240,0,2,,,,,,,,,1,,49,78
45360,note_on,240,0,1,,,,,,,,,0,,69,85
45514,set_tempo,12154,1,0,,,,,,571429,,,,,,
45520,set_tempo,6,1,0,,,,,,573175,,,,,,
45600,note_on,0,0,2,,,,,,,,,1,,57,0
45600,note_on,240,0,1,,,,,,,,,0,,69,0
45600,note_on,0,0,1,,,,,,,,,0,,73,0
45600,note_on,0,0,2,,,,,,,,,1,,50,79
45600,note_on,240,0,2,,,,,,,,,1,,49,0
45628,set_tempo,108,1,0,,,,,,574933,,,,,,
45630,note_on,30,0,1,,,,,,,,,0,,62,80
45660,note_on,30,0,1,,,,,,,,,0,,66,80
45742,set_tempo,114,1,0,,,,,,576701,,,,,,
45840,note_on,180,0,1,,,,,,,,,0,,71,80
45856,set_tempo,114,1,0,,,,,,578481,,,,,,
45970,set_tempo,114,1,0,,,,,,580271,,,,,,
46046,note_on,206,0,1,,,,,,,,,0,,62,0
46080,note_on,34,0,1,,,,,,,,,0,,66,0
46080,note_on,480,0,2,,,,,,,,,1,,50,0
46080,note_on,0,0,2,,,,,,,,,1,,52,79
46084,set_tempo,114,1,0,,,,,,582072,,,,,,
46110,note_on,30,0,1,,,,,,,,,0,,61,80
46140,note_on,30,0,1,,,,,,,,,0,,64,80
46198,set_tempo,114,1,0,,,,,,583885,,,,,,
46312,set_tempo,114,1,0,,,,,,585709,,,,,,
46320,note_on,0,0,1,,,,,,,,,0,,69,80
46320,note_on,180,0,1,,,,,,,,,0,,71,0
46426,set_tempo,114,1,0,,,,,,587544,,,,,,
46526,note_on,206,0,1,,,,,,,,,0,,61,0
46540,set_tempo,114,1,0,,,,,,589391,,,,,,
46560,note_on,0,0,2,,,,,,,,,1,,40,79
46560,note_on,480,0,2,,,,,,,,,1,,52,0
46560,note_on,34,0,1,,,,,,,,,0,,64,0
46590,note_on,30,0,1,,,,,,,,,0,,59,79
46620,note_on,30,0,1,,,,,,,,,0,,62,79
46654,set_tempo,114,1,0,,,,,,591250,,,,,,
46768,set_tempo,114,1,0,,,,,,593120,,,,,,
46800,note_on,0,0,1,,,,,,,,,0,,68,79
46800,note_on,180,0,1,,,,,,,,,0,,69,0
46882,set_tempo,114,1,0,,,,,,595002,,,,,,
46996,set_tempo,114,1,0,,,,,,596896,,,,,,
47040,note_on,240,0,1,,,,,,,,,0,,68,0
47040,note_on,0,0,1,,,,,,,,,0,,62,0
47040,note_on,0,0,2,,,,,,,,,1,,45,79
47040,note_on,480,0,2,,,,,,,,,1,,40,0
47040,note_on,0,0,1,,,,,,,,,0,,59,0
47072,note_on,32,0,1,,,,,,,,,0,,61,79
47104,note_on,32,0,1,,,,,,,,,0,,64,79
47110,set_tempo,114,1,0,,,,,,779221,,,,,,
47118,set_tempo,8,1,0,,,,,,769231,,,,,,
47125,set_tempo,7,1,0,,,,,,750000,,,,,,
47133,set_tempo,8,1,0,,,,,,731707,,,,,,
47136,note_on,32,0,1,,,,,,,,,0,,69,79
47140,set_tempo,7,1,0,,,,,,722892,,,,,,
47148,set_tempo,8,1,0,,,,,,705882,,,,,,
47155,set_tempo,7,1,0,,,,,,689655,,,,,,
47159,set_tempo,4,1,0,,,,,,586396,,,,,,
47169,set_tempo,10,1,0,,,,,,584567,,,,,,
47189,set_tempo,20,1,0,,,,,,582751,,,,,,
47219,set_tempo,30,1,0,,,,,,580945,,,,,,
47249,set_tempo,30,1,0,,,,,,579151,,,,,,
47279,set_tempo,30,1,0,,,,,,577367,,,,,,
47280,note_on,240,0,2,,,,,,,,,1,,52,79
47309,set_tempo,30,1,0,,,,,,575595,,,,,,
47339,set_tempo,30,1,0,,,,,,573833,,,,,,
47369,set_tempo,30,1,0,,,,,,572082,,,,,,
47520,note_on,240,0,2,,,,,,,,,1,,52,0
47520,note_on,0,0,2,,,,,,,,,1,,57,79
47760,note_on,624,0,1,,,,,,,,,0,,73,85
47856,note_on,96,0,1,,,,,,,,,0,,69,0
47968,note_on,112,0,1,,,,,,,,,0,,61,0
48000,note_on,32,0,1,,,,,,,,,0,,64,0
48000,note_on,0,0,1,,,,,,,,,0,,73,0
48000,note_on,0,0,1,,,,,,,,,0,,71,85
48000,note_on,480,0,2,,,,,,,,,1,,45,0
48240,note_on,240,0,2,,,,,,,,,1,,61,79
48360,note_on,0,0,1,,,,,,,,,0,,69,85
48360,note_on,360,0,1,,,,,,,,,0,,71,0
48480,note_on,0,0,2,,,,,,,,,1,,57,0
48480,note_on,240,0,2,,,,,,,,,1,,61,0
48480,note_on,0,0,2,,,,,,,,,1,,62,79
48480,note_on,0,0,2,,,,,,,,,1,,57,79
48480,note_on,120,0,1,,,,,,,,,0,,69,0
48480,note_on,0,0,1,,,,,,,,,0,,71,85
48720,note_on,240,0,1,,,,,,,,,0,,71,0
48720,note_on,0,0,1,,,,,,,,,0,,64,85
48960,note_on,480,0,2,,,,,,,,,1,,57,0
48960,note_on,0,0,2,,,,,,,,,1,,62,0
48960,note_on,0,0,2,,,,,,,,,1,,59,79
48960,note_on,0,0,2,,,,,,,,,1,,56,79
48960,note_on,240,0,1,,,,,,,,,0,,64,0
48960,note_on,0,0,1,,,,,,,,,0,,71,85
49200,note_on,0,0,1,,,,,,,,,0,,74,85
49200,note_on,240,0,1,,,,,,,,,0,,71,0
49440,note_on,0,0,2,,,,,,,,,1,,64,79
49440,note_on,480,0,2,,,,,,,,,1,,59,0
49440,note_on,0,0,1,,,,,,,,,0,,74,85
49440,text,0,1,1,,,,,,,,,,,,
49440,note_on,240,0,1,,,,,,,,,0,,74,0
49559,note_on,119,0,1,,,,,,,,,0,,74,0
49560,note_on,1,0,1,,,,,,,,,0,,73,85
49619,note_on,59,0,1,,,,,,,,,0,,73,0
49620,note_on,1,0,1,,,,,,,,,0,,74,85
49679,note_on,59,0,1,,,,,,,,,0,,74,0
49680,note_on,1,0,1,,,,,,,,,0,,73,85
49799,note_on,119,0,1,,,,,,,,,0,,73,0
49800,note_on,1,0,1,,,,,,,,,0,,71,85
49920,note_on,0,0,2,,,,,,,,,1,,56,0
49920,note_on,120,0,1,,,,,,,,,0,,71,0
49920,text,0,1,1,,,,,,,,,,,,
49920,note_on,0,0,1,,,,,,,,,0,,73,85
49920,note_on,0,0,2,,,,,,,,,1,,57,77
49920,note_on,480,0,2,,,,,,,,,1,,64,0
49979,note_on,59,0,1,,,,,,,,,0,,73,0
49980,note_on,1,0,1,,,,,,,,,0,,71,85
50039,note_on,59,0,1,,,,,,,,,0,,71,0
50040,note_on,1,0,1,,,,,,,,,0,,73,85
50160,note_on,240,0,2,,,,,,,,,1,,61,77
50279,note_on,239,0,1,,,,,,,,,0,,73,0
50400,note_on,0,0,2,,,,,,,,,1,,64,77
50400,note_on,240,0,2,,,,,,,,,1,,61,0
50640,note_on,240,0,2,,,,,,,,,1,,57,0
50640,note_on,361,0,1,,,,,,,,,0,,76,85
50640,note_on,0,0,2,,,,,,,,,1,,57,77
50880,note_on,0,0,2,,,,,,,,,1,,56,77
50880,note_on,0,0,1,,,,,,,,,0,,71,85
50880,note_on,240,0,1,,,,,,,,,0,,76,0
50880,note_on,240,0,2,,,,,,,,,1,,57,0
51120,note_on,240,0,2,,,,,,,,,1,,64,0
51120,note_on,0,0,2,,,,,,,,,1,,59,77
51120,note_on,0,0,1,,,,,,,,,0,,76,85
51120,note_on,240,0,1,,,,,,,,,0,,71,0
51360,note_on,0,0,2,,,,,,,,,1,,56,0
51360,note_on,240,0,1,,,,,,,,,0,,76,0
51360,note_on,0,0,2,,,,,,,,,1,,61,77
51360,note_on,0,0,2,,,,,,,,,1,,54,77
51360,note_on,0,0,1,,,,,,,,,0,,69,85
51360,note_on,240,0,2,,,,,,,,,1,,59,0
51600,note_on,240,0,2,,,,,,,,,1,,61,0
51600,note_on,0,0,2,,,,,,,,,1,,63,77
51600,note_on,0,0,1,,,,,,,,,0,,78,85
51600,note_on,240,0,1,,,,,,,,,0,,69,0
51840,note_on,240,0,2,,,,,,,,,1,,63,0
51840,note_on,0,0,2,,,,,,,,,1,,54,0
51840,note_on,0,0,2,,,,,,,,,1,,64,77
51840,text,0,1,1,,,,,,,,,,,,
51840,note_on,0,0,1,,,,,,,,,0,,69,85
51840,note_on,240,0,1,,,,,,,,,0,,78,0
51959,note_on,119,0,1,,,,,,,,,0,,69,0
51960,note_on,1,0,1,,,,,,,,,0,,68,85
52019,note_on,59,0,1,,,,,,,,,0,,68,0
52020,note_on,1,0,1,,,,,,,,,0,,69,85
52079,note_on,59,0,1,,,,,,,,,0,,69,0
52080,note_on,1,0,1,,,,,,,,,0,,68,85
52080,note_on,240,0,2,,,,,,,,,1,,59,77
52139,note_on,59,0,1,,,,,,,,,0,,68,0
52140,note_on,1,0,1,,,,,,,,,0,,69,85
52199,note_on,59,0,1,,,,,,,,,0,,69,0
52200,note_on,1,0,1,,,,,,,,,0,,68,85
52320,note_on,240,0,2,,,,,,,,,1,,56,77
52320,note_on,0,0,2,,,,,,,,,1,,56,77
52559,note_on,359,0,1,,,,,,,,,0,,68,0
52560,note_on,1,0,1,,,,,,,,,0,,69,85
52560,note_on,0,0,2,,,,,,,,,1,,52,77
52560,note_on,240,0,2,,,,,,,,,1,,56,0
52800,note_on,0,0,2,,,,,,,,,1,,59,77
52800,note_on,0,0,1,,,,,,,,,0,,66,85
52800,note_on,240,0,2,,,,,,,,,1,,52,0
52800,note_on,0,0,2,,,,,,,,,1,,56,0
52800,note_on,240,0,1,,,,,,,,,0,,69,0
52800,note_on,0,0,2,,,,,,,,,1,,59,0
53040,note_on,0,0,2,,,,,,,,,1,,64,77
53040,note_on,240,0,2,,,,,,,,,1,,64,0
53280,note_on,0,0,2,,,,,,,,,1,,63,77
53280,note_on,240,0,2,,,,,,,,,1,,64,0
53520,note_on,720,0,1,,,,,,,,,0,,66,0
53520,note_on,0,0,1,,,,,,,,,0,,76,85
53520,note_on,0,0,2,,,,,,,,,1,,61,77
53520,note_on,240,0,2,,,,,,,,,1,,63,0
53640,note_on,120,0,1,,,,,,,,,0,,76,0
53640,note_on,0,0,1,,,,,,,,,0,,75,85
53760,note_on,0,0,1,,,,,,,,,0,,76,85
53760,note_on,120,0,1,,,,,,,,,0,,75,0
53760,text,0,1,1,,,,,,,,,,,,
53760,note_on,240,0,2,,,,,,,,,1,,61,0
53760,note_on,0,0,2,,,,,,,,,1,,59,0
53760,note_on,0,0,2,,,,,,,,,1,,59,77
53879,note_on,119,0,1,,,,,,,,,0,,76,0
53880,note_on,1,0,1,,,,,,,,,0,,75,85
53939,note_on,59,0,1,,,,,,,,,0,,75,0
53940,note_on,1,0,1,,,,,,,,,0,,76,85
53999,note_on,59,0,1,,,,,,,,,0,,76,0
54000,note_on,240,0,2,,,,,,,,,1,,47,77
54000,note_on,1,0,1,,,,,,,,,0,,75,85
54119,note_on,119,0,1,,,,,,,,,0,,75,0
54120,note_on,1,0,1,,,,,,,,,0,,73,85
54180,note_on,60,0,1,,,,,,,,,0,,73,0
54180,note_on,0,0,1,,,,,,,,,0,,75,85
54240,note_on,0,0,1,,,,,,,,,0,,76,85
54240,note_on,60,0,1,,,,,,,,,0,,75,0
54240,note_on,240,0,2,,,,,,,,,1,,47,0
54240,note_on,0,0,2,,,,,,,,,1,,49,77
54480,note_on,240,0,2,,,,,,,,,1,,59,75
54480,note_on,240,0,1,,,,,,,,,0,,76,0
54480,note_on,0,0,1,,,,,,,,,0,,75,85
54540,note_on,60,0,2,,,,,,,,,1,,59,0
54600,note_on,0,0,1,,,,,,,,,0,,76,85
54600,note_on,120,0,1,,,,,,,,,0,,75,0
54720,note_on,0,0,2,,,,,,,,,1,,57,75
54720,note_on,180,0,2,,,,,,,,,1,,59,0
54720,note_on,0,0,1,,,,,,,,,0,,78,85
54720,text,0,1,1,,,,,,,,,,,,
54720,note_on,120,0,1,,,,,,,,,0,,76,0
54839,note_on,119,0,1,,,,,,,,,0,,78,0
54840,note_on,1,0,1,,,,,,,,,0,,76,85
54899,note_on,59,0,1,,,,,,,,,0,,76,0
54900,note_on,1,0,1,,,,,,,,,0,,78,85
54959,note_on,59,0,1,,,,,,,,,0,,78,0
54960,note_on,1,0,1,,,,,,,,,0,,76,85
54960,note_on,240,0,2,,,,,,,,,1,,49,75
55079,note_on,119,0,1,,,,,,,,,0,,76,0
55080,note_on,1,0,1,,,,,,,,,0,,75,85
55140,note_on,180,0,2,,,,,,,,,1,,49,0
55140,note_on,60,0,1,,,,,,,,,0,,75,0
55140,note_on,0,0,1,,,,,,,,,0,,76,85
55200,note_on,60,0,2,,,,,,,,,1,,49,0
55200,note_on,0,0,1,,,,,,,,,0,,78,85
55200,note_on,0,0,2,,,,,,,,,1,,51,75
55200,note_on,60,0,1,,,,,,,,,0,,76,0
55320,note_on,120,0,1,,,,,,,,,0,,78,0
55320,note_on,0,0,1,,,,,,,,,0,,76,85
55440,note_on,0,0,2,,,,,,,,,1,,57,75
55440,note_on,240,0,2,,,,,,,,,1,,57,0
55440,note_on,120,0,1,,,,,,,,,0,,76,0
55440,note_on,0,0,1,,,,,,,,,0,,78,85
55680,note_on,240,0,1,,,,,,,,,0,,78,0
55680,note_on,0,0,1,,,,,,,,,0,,71,85
55680,note_on,0,0,2,,,,,,,,,1,,52,75
55680,note_on,240,0,2,,,,,,,,,1,,51,0
55920,note_on,0,0,2,,,,,,,,,1,,57,75
55920,note_on,240,0,2,,,,,,,,,1,,57,0
56160,note_on,0,0,2,,,,,,,,,1,,56,75
56160,note_on,240,0,2,,,,,,,,,1,,57,0
56400,note_on,0,0,2,,,,,,,,,1,,52,75
56400,note_on,0,0,1,,,,,,,,,0,,71,85
56400,note_on,720,0,1,,,,,,,,,0,,71,0
56400,note_on,240,0,2,,,,,,,,,1,,52,0
56640,note_on,240,0,2,,,,,,,,,1,,52,0
56640,note_on,0,0,1,,,,,,,,,0,,71,85
56640,note_on,0,0,2,,,,,,,,,1,,44,75
56640,note_on,240,0,1,,,,,,,,,0,,71,0
56880,note_on,240,0,1,,,,,,,,,0,,59,85
56880,note_on,240,0,2,,,,,,,,,1,,56,0
56880,note_on,0,0,2,,,,,,,,,1,,56,74
57120,note_on,240,0,2,,,,,,,,,1,,44,0
57120,note_on,240,0,1,,,,,,,,,0,,59,0
57120,note_on,0,0,1,,,,,,,,,0,,61,85
57120,note_on,0,0,2,,,,,,,,,1,,45,74
57360,note_on,240,0,1,,,,,,,,,0,,71,0
57360,note_on,0,0,1,,,,,,,,,0,,71,85
57360,note_on,0,0,2,,,,,,,,,1,,56,74
57360,note_on,240,0,2,,,,,,,,,1,,56,0
57600,note_on,0,0,2,,,,,,,,,1,,54,74
57600,note_on,240,0,2,,,,,,,,,1,,56,0
57600,note_on,0,0,1,,,,,,,,,0,,69,85
57600,note_on,240,0,1,,,,,,,,,0,,71,0
57840,note_on,240,0,2,,,,,,,,,1,,45,0
57840,note_on,0,0,2,,,,,,,,,1,,45,74
57840,note_on,240,0,1,,,,,,,,,0,,61,0
57840,note_on,0,0,1,,,,,,,,,0,,61,85
58080,note_on,240,0,2,,,,,,,,,1,,45,0
58080,note_on,0,0,2,,,,,,,,,1,,47,74
58080,note_on,240,0,1,,,,,,,,,0,,61,0
58080,note_on,0,0,1,,,,,,,,,0,,63,85
58320,note_on,0,0,2,,,,,,,,,1,,54,74
58320,note_on,240,0,2,,,,,,,,,1,,54,0
58320,note_on,240,0,1,,,,,,,,,0,,69,0
58320,note_on,0,0,1,,,,,,,,,0,,69,85
58560,note_on,0,0,2,,,,,,,,,1,,47,0
58560,note_on,0,0,2,,,,,,,,,1,,49,77
58560,note_on,0,0,2,,,,,,,,,1,,52,77
58560,note_on,240,0,1,,,,,,,,,0,,69,0
58560,note_on,0,0,1,,,,,,,,,0,,63,0
58560,note_on,0,0,1,,,,,,,,,0,,68,85
58560,note_on,240,0,2,,,,,,,,,1,,54,0
58800,note_on,0,0,1,,,,,,,,,0,,64,85
58800,note_on,240,0,1,,,,,,,,,0,,68,0
59040,note_on,240,0,1,,,,,,,,,0,,64,0
59040,note_on,480,0,2,,,,,,,,,1,,49,0
59040,note_on,0,0,1,,,,,,,,,0,,76,85
59280,note_on,240,0,2,,,,,,,,,1,,52,0
59280,note_on,0,0,2,,,,,,,,,1,,54,77
59520,note_on,240,0,2,,,,,,,,,1,,54,0
59520,note_on,0,0,2,,,,,,,,,1,,56,77
59760,note_on,240,0,2,,,,,,,,,1,,44,77
59760,note_on,0,0,1,,,,,,,,,0,,75,85
59760,note_on,720,0,1,,,,,,,,,0,,76,0
60000,note_on,0,0,1,,,,,,,,,0,,73,85
60000,note_on,240,0,1,,,,,,,,,0,,75,0
60000,note_on,0,0,2,,,,,,,,,1,,45,77
60000,note_on,240,0,2,,,,,,,,,1,,44,0
60240,note_on,0,0,1,,,,,,,,,0,,71,85
60240,note_on,0,0,2,,,,,,,,,1,,56,77
60240,note_on,240,0,2,,,,,,,,,1,,56,0
60240,note_on,240,0,1,,,,,,,,,0,,73,0
60480,note_on,0,0,1,,,,,,,,,0,,61,85
60480,note_on,0,0,1,,,,,,,,,0,,69,85
60480,note_on,240,0,1,,,,,,,,,0,,71,0
60480,note_on,0,0,2,,,,,,,,,1,,54,77
60480,note_on,240,0,2,,,,,,,,,1,,56,0
60720,note_on,240,0,1,,,,,,,,,0,,69,0
60720,note_on,0,0,1,,,,,,,,,0,,68,85
60720,note_on,240,0,2,,,,,,,,,1,,54,0
60720,note_on,0,0,2,,,,,,,,,1,,56,77
60960,note_on,240,0,2,,,,,,,,,1,,56,0
60960,note_on,0,0,2,,,,,,,,,1,,45,0
60960,note_on,0,0,2,,,,,,,,,1,,57,76
60960,note_on,0,0,1,,,,,,,,,0,,66,85
60960,note_on,0,0,1,,,,,,,,,0,,69,85
60960,note_on,0,0,1,,,,,,,,,0,,61,0
60960,note_on,240,0,1,,,,,,,,,0,,68,0
61200,note_on,0,0,1,,,,,,,,,0,,69,0
61200,note_on,0,0,1,,,,,,,,,0,,69,85
61200,note_on,240,0,1,,,,,,,,,0,,66,0
61200,note_on,0,0,1,,,,,,,,,0,,64,85
61200,note_on,240,0,2,,,,,,,,,1,,49,76
61294,set_tempo,13925,1,0,,,,,,571429,,,,,,
61300,set_tempo,6,1,0,,,,,,573175,,,,,,
61312,set_tempo,12,1,0,,,,,,574933,,,,,,
61324,set_tempo,12,1,0,,,,,,576701,,,,,,
61342,set_tempo,18,1,0,,,,,,578481,,,,,,
61354,set_tempo,12,1,0,,,,,,580271,,,,,,
61372,set_tempo,18,1,0,,,,,,582072,,,,,,
61376,note_on,176,0,1,,,,,,,,,0,,69,0
61384,set_tempo,12,1,0,,,,,,583885,,,,,,
61402,set_tempo,18,1,0,,,,,,585709,,,,,,
61414,set_tempo,12,1,0,,,,,,587544,,,,,,
61431,set_tempo,17,1,0,,,,,,666667,,,,,,
61439,set_tempo,8,1,0,,,,,,714286,,,,,,
61440,note_on,0,0,2,,,,,,,,,1,,57,0
61440,note_on,0,0,2,,,,,,,,,1,,47,76
61440,note_on,64,0,1,,,,,,,,,0,,64,0
61440,note_on,240,0,2,,,,,,,,,1,,49,0
61446,set_tempo,7,1,0,,,,,,759494,,,,,,
61454,set_tempo,8,1,0,,,,,,821918,,,,,,
61472,note_on,32,0,2,,,,,,,,,1,,51,76
61504,note_on,32,0,2,,,,,,,,,1,,54,76
61530,note_on,90,0,1,,,,,,,,,0,,59,85
61560,note_on,30,0,1,,,,,,,,,0,,63,85
61590,note_on,30,0,1,,,,,,,,,0,,66,85
61596,set_tempo,142,1,0,,,,,,821918,,,,,,
61604,set_tempo,8,1,0,,,,,,810811,,,,,,
61611,set_tempo,7,1,0,,,,,,800000,,,,,,
61619,set_tempo,8,1,0,,,,,,789474,,,,,,
61620,note_on,30,0,1,,,,,,,,,0,,69,85
61626,set_tempo,7,1,0,,,,,,779221,,,,,,
61634,set_tempo,8,1,0,,,,,,769231,,,,,,
61641,set_tempo,7,1,0,,,,,,759494,,,,,,
61649,set_tempo,8,1,0,,,,,,750000,,,,,,
61656,set_tempo,7,1,0,,,,,,740741,,,,,,
61664,set_tempo,8,1,0,,,,,,722892,,,,,,
61671,set_tempo,7,1,0,,,,,,714286,,,,,,
61679,set_tempo,8,1,0,,,,,,705882,,,,,,
61686,set_tempo,7,1,0,,,,,,697674,,,,,,
61694,set_tempo,8,1,0,,,,,,689655,,,,,,
61701,set_tempo,7,1,0,,,,,,681818,,,,,,
61709,set_tempo,8,1,0,,,,,,674157,,,,,,
61716,set_tempo,7,1,0,,,,,,666667,,,,,,
61724,set_tempo,8,1,0,,,,,,652174,,,,,,
61731,set_tempo,7,1,0,,,,,,645161,,,,,,
61739,set_tempo,8,1,0,,,,,,638298,,,,,,
61746,set_tempo,7,1,0,,,,,,631579,,,,,,
61754,set_tempo,8,1,0,,,,,,625000,,,,,,
61761,set_tempo,7,1,0,,,,,,618557,,,,,,
61769,set_tempo,8,1,0,,,,,,612245,,,,,,
61776,set_tempo,7,1,0,,,,,,606061,,,,,,
61784,set_tempo,8,1,0,,,,,,594059,,,,,,
61791,set_tempo,7,1,0,,,,,,588235,,,,,,
61792,set_tempo,1,1,0,,,,,,571429,,,,,,
61900,note_on,396,0,2,,,,,,,,,1,,51,0
61914,note_on,294,0,1,,,,,,,,,0,,69,0
61916,note_on,2,0,1,,,,,,,,,0,,66,0
61920,note_on,0,0,1,,,,,,,,,0,,71,85
61920,note_on,0,0,1,,,,,,,,,0,,59,0
61920,note_on,4,0,1,,,,,,,,,0,,63,0
61920,note_on,20,0,2,,,,,,,,,1,,54,0
61920,note_on,0,0,2,,,,,,,,,1,,51,76
62040,note_on,0,0,1,,,,,,,,,0,,69,85
62040,note_on,120,0,1,,,,,,,,,0,,71,0
62160,note_on,120,0,1,,,,,,,,,0,,69,0
62160,note_on,0,0,2,,,,,,,,,1,,47,0
62160,note_on,240,0,2,,,,,,,,,1,,51,0
62160,note_on,0,0,1,,,,,,,,,0,,68,85
62160,note_on,0,0,2,,,,,,,,,1,,52,76
62227,set_tempo,435,1,0,,,,,,576923,,,,,,
62280,note_on,0,0,1,,,,,,,,,0,,66,85
62280,note_on,120,0,1,,,,,,,,,0,,68,0
62400,note_on,0,0,1,,,,,,,,,0,,68,85
62400,note_on,120,0,1,,,,,,,,,0,,66,0
62400,note_on,240,0,2,,,,,,,,,1,,52,0
62400,note_on,0,0,2,,,,,,,,,1,,44,76
62640,note_on,0,0,1,,,,,,,,,0,,64,85
62640,note_on,240,0,1,,,,,,,,,0,,68,0
62640,note_on,240,0,2,,,,,,,,,1,,44,0
62662,set_tempo,435,1,0,,,,,,582524,,,,,,
62880,note_on,240,0,1,,,,,,,,,0,,64,0
62880,note_on,240,0,2,,,,,,,,,1,,45,76
62912,note_on,32,0,2,,,,,,,,,1,,57,75
62944,note_on,32,0,2,,,,,,,,,1,,61,75
63089,set_tempo,427,1,0,,,,,,588235,,,,,,
63120,note_on,240,0,1,,,,,,,,,0,,66,85
63360,note_on,0,0,2,,,,,,,,,1,,47,75
63360,note_on,0,0,2,,,,,,,,,1,,45,0
63360,note_on,416,0,2,,,,,,,,,1,,61,0
63360,note_on,0,0,2,,,,,,,,,1,,57,0
63392,note_on,32,0,2,,,,,,,,,1,,56,75
63424,note_on,32,0,2,,,,,,,,,1,,59,75
63524,set_tempo,435,1,0,,,,,,594059,,,,,,
63600,note_on,480,0,1,,,,,,,,,0,,66,0
63600,note_on,0,0,1,,,,,,,,,0,,64,85
63808,note_on,384,0,2,,,,,,,,,1,,59,0
63808,note_on,0,0,2,,,,,,,,,1,,56,0
63840,note_on,32,0,2,,,,,,,,,1,,47,0
63840,note_on,0,0,2,,,,,,,,,1,,35,75
63872,note_on,32,0,2,,,,,,,,,1,,54,75
63904,note_on,32,0,2,,,,,,,,,1,,57,75
63959,set_tempo,435,1,0,,,,,,600000,,,,,,
64080,note_on,0,0,1,,,,,,,,,0,,63,85
64080,note_on,480,0,1,,,,,,,,,0,,64,0
64288,note_on,384,0,2,,,,,,,,,1,,57,0
64320,note_on,0,0,2,,,,,,,,,1,,35,0
64320,note_on,32,0,2,,,,,,,,,1,,54,0
64320,note_on,0,0,2,,,,,,,,,1,,40,76
64320,note_on,240,0,1,,,,,,,,,0,,63,0
64352,note_on,32,0,2,,,,,,,,,1,,52,76
64384,note_on,64,0,1,,,,,,,,,0,,64,85
64387,set_tempo,428,1,0,,,,,,606061,,,,,,
64560,note_on,208,0,2,,,,,,,,,1,,59,76
64800,note_on,0,0,2,,,,,,,,,1,,57,76
64800,note_on,240,0,2,,,,,,,,,1,,59,0
64822,set_tempo,435,1,0,,,,,,612245,,,,,,
65040,note_on,0,0,2,,,,,,,,,1,,54,76
65040,note_on,240,0,2,,,,,,,,,1,,57,0
65257,set_tempo,435,1,0,,,,,,618557,,,,,,
65280,note_on,240,0,2,,,,,,,,,1,,52,0
65280,note_on,0,0,1,,,,,,,,,0,,69,85
65280,note_on,896,0,1,,,,,,,,,0,,64,0
65520,note_on,240,0,2,,,,,,,,,1,,54,0
65520,note_on,240,0,1,,,,,,,,,0,,69,0
65520,note_on,0,0,1,,,,,,,,,0,,63,85
65684,set_tempo,427,1,0,,,,,,625000,,,,,,
65685,set_tempo,1,1,0,,,,,,618557,,,,,,
65690,set_tempo,5,1,0,,,,,,618557,,,,,,
65696,note_on,176,0,2,,,,,,,,,1,,40,0
65698,set_tempo,8,1,0,,,,,,631579,,,,,,
65705,set_tempo,7,1,0,,,,,,645161,,,,,,
65713,set_tempo,8,1,0,,,,,,659341,,,,,,
65720,set_tempo,7,1,0,,,,,,674157,,,,,,
65728,set_tempo,8,1,0,,,,,,689655,,,,,,
65735,set_tempo,7,1,0,,,,,,705882,,,,,,
65743,set_tempo,8,1,0,,,,,,722892,,,,,,
65750,set_tempo,7,1,0,,,,,,740741,,,,,,
65758,set_tempo,8,1,0,,,,,,759494,,,,,,
65760,note_on,240,0,1,,,,,,,,,0,,63,0
65760,note_on,64,0,2,,,,,,,,,1,,40,76
65765,set_tempo,7,1,0,,,,,,779221,,,,,,
65773,set_tempo,8,1,0,,,,,,800000,,,,,,
65780,set_tempo,7,1,0,,,,,,821918,,,,,,
65792,note_on,32,0,2,,,,,,,,,1,,47,76
65824,note_on,32,0,2,,,,,,,,,1,,52,76
65856,note_on,32,0,2,,,,,,,,,1,,56,76
65888,note_on,32,0,2,,,,,,,,,1,,59,76
65910,note_on,150,0,1,,,,,,,,,0,,64,85
66275,set_tempo,495,1,0,,,,,,810811,,,,,,
66283,set_tempo,8,1,0,,,,,,789474,,,,,,
66290,set_tempo,7,1,0,,,,,,769231,,,,,,
66298,set_tempo,8,1,0,,,,,,750000,,,,,,
66305,set_tempo,7,1,0,,,,,,722892,,,,,,
66313,set_tempo,8,1,0,,,,,,705882,,,,,,
66320,set_tempo,7,1,0,,,,,,689655,,,,,,
66328,set_tempo,8,1,0,,,,,,674157,,,,,,
66335,set_tempo,7,1,0,,,,,,652174,,,,,,
66343,set_tempo,8,1,0,,,,,,638298,,,,,,
66350,set_tempo,7,1,0,,,,,,625000,,,,,,
66358,set_tempo,8,1,0,,,,,,612245,,,,,,
66365,set_tempo,7,1,0,,,,,,594059,,,,,,
66373,set_tempo,8,1,0,,,,,,582524,,,,,,
66380,set_tempo,7,1,0,,,,,,571429,,,,,,
66388,set_tempo,8,1,0,,,,,,560748,,,,,,
66395,set_tempo,7,1,0,,,,,,571429,,,,,,
66480,note_on,0,0,2,,,,,,,,,1,,47,0
66480,note_on,0,0,2,,,,,,,,,1,,40,0
66480,note_on,0,0,2,,,,,,,,,1,,52,0
66480,note_on,592,0,2,,,,,,,,,1,,59,0
66480,note_on,0,0,2,,,,,,,,,1,,56,0
66480,note_on,570,0,1,,,,,,,,,0,,64,0
66480,marker,85,1,0,,,,,,,,,,,,
66484,note_on,4,0,1,,,,,,,,,0,,59,85
66720,note_on,236,0,1,,,,,,,,,0,,64,85
66724,note_on,4,0,1,,,,,,,,,0,,59,0
66960,note_on,236,0,1,,,,,,,,,0,,68,85
67200,note_on,720,0,2,,,,,,,,,1,,52,76
67200,note_on,240,0,1,,,,,,,,,0,,64,0
67200,note_on,0,0,1,,,,,,,,,0,,71,85
67440,note_on,0,0,1,,,,,,,,,0,,66,85
67440,note_on,240,0,1,,,,,,,,,0,,68,0
67680,note_on,240,0,1,,,,,,,,,0,,66,0
67680,note_on,0,0,1,,,,,,,,,0,,68,85
67680,note_on,480,0,2,,,,,,,,,1,,40,76
67920,note_on,240,0,1,,,,,,,,,0,,64,85
68160,note_on,480,0,2,,,,,,,,,1,,52,0
68160,note_on,0,0,1,,,,,,,,,0,,66,85
68160,note_on,0,0,1,,,,,,,,,0,,71,0
68160,note_on,240,0,1,,,,,,,,,0,,68,0
68160,note_on,0,0,1,,,,,,,,,0,,71,85
68400,note_on,0,0,1,,,,,,,,,0,,63,85
68400,note_on,240,0,1,,,,,,,,,0,,64,0
68640,note_on,0,0,1,,,,,,,,,0,,68,85
68640,note_on,0,0,1,,,,,,,,,0,,64,85
68640,note_on,240,0,1,,,,,,,,,0,,63,0
68640,note_on,0,0,1,,,,,,,,,0,,71,0
68640,note_on,0,0,1,,,,,,,,,0,,66,0
68640,note_on,480,0,2,,,,,,,,,1,,40,0
68880,note_on,240,0,2,,,,,,,,,1,,59,76
69120,note_on,0,0,2,,,,,,,,,1,,56,76
69120,note_on,240,0,2,,,,,,,,,1,,59,0
69360,note_on,720,0,1,,,,,,,,,0,,64,0
69360,note_on,0,0,1,,,,,,,,,0,,59,85
69360,note_on,0,0,1,,,,,,,,,0,,68,0
69360,note_on,240,0,2,,,,,,,,,1,,56,0
69360,note_on,0,0,2,,,,,,,,,1,,52,76
69600,note_on,0,0,2,,,,,,,,,1,,47,76
69600,note_on,0,0,1,,,,,,,,,0,,68,85
69600,note_on,240,0,1,,,,,,,,,0,,59,0
69600,note_on,240,0,2,,,,,,,,,1,,52,0
69840,note_on,0,0,2,,,,,,,,,1,,50,76
69840,note_on,240,0,2,,,,,,,,,1,,47,0
69840,note_on,240,0,1,,,,,,,,,0,,68,0
69840,note_on,0,0,1,,,,,,,,,0,,71,85
70080,note_on,0,0,1,,,,,,,,,0,,76,85
70080,note_on,240,0,2,,,,,,,,,1,,50,0
70080,note_on,0,0,2,,,,,,,,,1,,49,76
70080,note_on,240,0,1,,,,,,,,,0,,71,0
70320,note_on,240,0,1,,,,,,,,,0,,71,85
70560,note_on,0,0,1,,,,,,,,,0,,73,85
70560,note_on,240,0,1,,,,,,,,,0,,71,0
70800,note_on,720,0,2,,,,,,,,,1,,49,0
70800,note_on,0,0,2,,,,,,,,,1,,54,76
70800,note_on,240,0,1,,,,,,,,,0,,69,85
71040,note_on,240,0,2,,,,,,,,,1,,54,0
71040,note_on,0,0,2,,,,,,,,,1,,47,76
71040,note_on,0,0,1,,,,,,,,,0,,71,85
71040,note_on,240,0,1,,,,,,,,,0,,73,0
71040,note_on,0,0,1,,,,,,,,,0,,76,0
71040,note_on,0,0,1,,,,,,,,,0,,74,85
71280,note_on,0,0,1,,,,,,,,,0,,68,85
71280,note_on,0,0,2,,,,,,,,,1,,52,76
71280,note_on,240,0,2,,,,,,,,,1,,47,0
71280,note_on,240,0,1,,,,,,,,,0,,69,0
71520,note_on,0,0,2,,,,,,,,,1,,45,76
71520,note_on,240,0,2,,,,,,,,,1,,52,0
71520,note_on,240,0,1,,,,,,,,,0,,68,0
71520,note_on,0,0,1,,,,,,,,,0,,74,0
71520,note_on,0,0,1,,,,,,,,,0,,71,0
71520,note_on,0,0,1,,,,,,,,,0,,73,85
71520,note_on,0,0,1,,,,,,,,,0,,69,85
71760,note_on,0,0,1,,,,,,,,,0,,65,85
71760,note_on,240,0,1,,,,,,,,,0,,69,0
72000,note_on,0,0,1,,,,,,,,,0,,66,85
72000,note_on,240,0,1,,,,,,,,,0,,65,0
72240,note_on,0,0,1,,,,,,,,,0,,73,85
72240,note_on,240,0,1,,,,,,,,,0,,73,0
72240,note_on,0,0,2,,,,,,,,,1,,57,76
72240,note_on,720,0,2,,,,,,,,,1,,45,0
72480,note_on,240,0,2,,,,,,,,,1,,57,0
72480,note_on,0,0,1,,,,,,,,,0,,71,85
72480,note_on,0,0,1,,,,,,,,,0,,66,0
72480,note_on,240,0,1,,,,,,,,,0,,73,0
72480,note_on,0,0,2,,,,,,,,,1,,56,76
72720,note_on,240,0,2,,,,,,,,,1,,56,0
72720,note_on,0,0,2,,,,,,,,,1,,57,76
72720,note_on,0,0,1,,,,,,,,,0,,73,85
72720,note_on,240,0,1,,,,,,,,,0,,71,0
72960,note_on,240,0,2,,,,,,,,,1,,57,0
72960,note_on,240,0,1,,,,,,,,,0,,73,0
72960,note_on,0,0,2,,,,,,,,,1,,59,76
72960,note_on,0,0,1,,,,,,,,,0,,74,85
73200,note_on,240,0,2,,,,,,,,,1,,59,0
73200,note_on,0,0,2,,,,,,,,,1,,61,76
73200,note_on,240,0,1,,,,,,,,,0,,74,0
73200,note_on,0,0,1,,,,,,,,,0,,70,85
73440,note_on,240,0,1,,,,,,,,,0,,70,0
73440,note_on,0,0,1,,,,,,,,,0,,71,85
73440,note_on,240,0,2,,,,,,,,,1,,61,0
73440,note_on,0,0,2,,,,,,,,,1,,62,76
73680,note_on,240,0,1,,,,,,,,,0,,71,0
73680,note_on,0,0,1,,,,,,,,,0,,68,85
73680,note_on,0,0,2,,,,,,,,,1,,53,76
73680,note_on,240,0,2,,,,,,,,,1,,62,0
73920,note_on,240,0,1,,,,,,,,,0,,68,0
73920,note_on,0,0,1,,,,,,,,,0,,69,85
73920,note_on,0,0,2,,,,,,,,,1,,54,76
73920,note_on,240,0,2,,,,,,,,,1,,53,0
74160,note_on,0,0,1,,,,,,,,,0,,71,85
74160,note_on,240,0,2,,,,,,,,,1,,54,0
74160,note_on,0,0,2,,,,,,,,,1,,50,76
74160,note_on,240,0,1,,,,,,,,,0,,69,0
74400,note_on,240,0,2,,,,,,,,,1,,50,0
74400,note_on,0,0,2,,,,,,,,,1,,49,76
74400,note_on,240,0,1,,,,,,,,,0,,71,0
74400,note_on,0,0,1,,,,,,,,,0,,65,85
74640,note_on,240,0,2,,,,,,,,,1,,61,76
74880,note_on,240,0,2,,,,,,,,,1,,61,0
74880,note_on,0,0,2,,,,,,,,,1,,61,76
75120,note_on,0,0,2,,,,,,,,,1,,59,76
75120,note_on,0,0,1,,,,,,,,,0,,68,85
75120,note_on,720,0,1,,,,,,,,,0,,65,0
75120,note_on,240,0,2,,,,,,,,,1,,61,0
75360,note_on,0,0,2,,,,,,,,,1,,49,76
75360,note_on,0,0,2,,,,,,,,,1,,57,76
75360,note_on,0,0,1,,,,,,,,,0,,73,85
75360,note_on,0,0,2,,,,,,,,,1,,49,0
75360,note_on,240,0,1,,,,,,,,,0,,68,0
75360,note_on,240,0,2,,,,,,,,,1,,59,0
75600,note_on,0,0,2,,,,,,,,,1,,56,76
75600,note_on,240,0,2,,,,,,,,,1,,57,0
75600,note_on,0,0,1,,,,,,,,,0,,65,85
75600,note_on,240,0,1,,,,,,,,,0,,73,0
75840,note_on,240,0,2,,,,,,,,,1,,56,0
75840,note_on,0,0,2,,,,,,,,,1,,54,76
75840,note_on,0,0,2,,,,,,,,,1,,49,0
75840,note_on,240,0,1,,,,,,,,,0,,65,0
75840,note_on,0,0,1,,,,,,,,,0,,66,85
75840,note_on,0,0,2,,,,,,,,,1,,51,76
76080,note_on,240,0,2,,,,,,,,,1,,54,0
76080,note_on,0,0,2,,,,,,,,,1,,61,76
76319,text,479,1,1,,,,,,,,,,,,
76320,text,0,1,1,,,,,,,,,,,,
76320,note_on,240,0,2,,,,,,,,,1,,61,0
76320,note_on,1,0,1,,,,,,,,,0,,66,0
76320,note_on,0,0,1,,,,,,,,,0,,68,85
76320,note_on,0,0,2,,,,,,,,,1,,59,76
76439,note_on,119,0,1,,,,,,,,,0,,68,0
76440,note_on,1,0,1,,,,,,,,,0,,66,85
76499,note_on,59,0,1,,,,,,,,,0,,66,0
76500,note_on,1,0,1,,,,,,,,,0,,68,85
76559,note_on,59,0,1,,,,,,,,,0,,68,0
76560,note_on,0,0,2,,,,,,,,,1,,51,76
76560,note_on,240,0,2,,,,,,,,,1,,51,0
76560,note_on,1,0,1,,,,,,,,,0,,66,85
76679,note_on,119,0,1,,,,,,,,,0,,66,0
76680,note_on,1,0,1,,,,,,,,,0,,65,85
76680,note_on,0,0,1,,,,,,,,,0,,65,85
76740,note_on,60,0,1,,,,,,,,,0,,65,0
76740,note_on,0,0,1,,,,,,,,,0,,65,0
76740,note_on,0,0,1,,,,,,,,,0,,66,85
76800,note_on,60,0,1,,,,,,,,,0,,66,0
76800,note_on,0,0,1,,,,,,,,,0,,68,85
76800,note_on,240,0,2,,,,,,,,,1,,51,0
76800,note_on,0,0,2,,,,,,,,,1,,53,76
76920,note_on,120,0,1,,,,,,,,,0,,68,0
76920,note_on,0,0,1,,,,,,,,,0,,66,85
77040,note_on,0,0,1,,,,,,,,,0,,68,85
77040,note_on,120,0,1,,,,,,,,,0,,66,0
77040,note_on,240,0,2,,,,,,,,,1,,59,0
77040,note_on,0,0,2,,,,,,,,,1,,59,76
77280,note_on,240,0,1,,,,,,,,,0,,68,0
77280,note_on,0,0,2,,,,,,,,,1,,54,76
77280,note_on,0,0,1,,,,,,,,,0,,61,85
77280,note_on,240,0,2,,,,,,,,,1,,53,0
77520,note_on,240,0,2,,,,,,,,,1,,59,0
77520,note_on,0,0,2,,,,,,,,,1,,59,76
77760,note_on,240,0,2,,,,,,,,,1,,59,0
77760,note_on,0,0,2,,,,,,,,,1,,57,76
78000,note_on,720,0,1,,,,,,,,,0,,61,0
78000,note_on,0,0,2,,,,,,,,,1,,54,76
78000,note_on,0,0,1,,,,,,,,,0,,73,85
78000,note_on,240,0,2,,,,,,,,,1,,54,0
78240,note_on,240,0,2,,,,,,,,,1,,54,0
78240,note_on,0,0,2,,,,,,,,,1,,45,76
78240,note_on,0,0,1,,,,,,,,,0,,73,85
78240,note_on,240,0,1,,,,,,,,,0,,73,0
78480,note_on,240,0,1,,,,,,,,,0,,61,85
78480,note_on,0,0,2,,,,,,,,,1,,57,76
78480,note_on,240,0,2,,,,,,,,,1,,57,0
78720,note_on,0,0,2,,,,,,,,,1,,47,76
78720,note_on,240,0,2,,,,,,,,,1,,45,0
78720,note_on,240,0,1,,,,,,,,,0,,61,0
78720,note_on,0,0,1,,,,,,,,,0,,63,85
78960,note_on,240,0,1,,,,,,,,,0,,73,0
78960,note_on,0,0,2,,,,,,,,,1,,57,76
78960,note_on,240,0,2,,,,,,,,,1,,57,0
78960,note_on,0,0,1,,,,,,,,,0,,73,85
79200,note_on,0,0,1,,,,,,,,,0,,71,85
79200,note_on,0,0,2,,,,,,,,,1,,56,76
79200,note_on,240,0,1,,,,,,,,,0,,73,0
79200,note_on,240,0,2,,,,,,,,,1,,57,0
79440,note_on,240,0,1,,,,,,,,,0,,63,0
79440,note_on,0,0,1,,,,,,,,,0,,63,85
79680,note_on,0,0,1,,,,,,,,,0,,68,85
79680,note_on,240,0,1,,,,,,,,,0,,63,0
79680,note_on,480,0,2,,,,,,,,,1,,47,0
79872,note_on,192,0,1,,,,,,,,,0,,71,0
79920,note_on,0,0,1,,,,,,,,,0,,71,85
79920,note_on,48,0,1,,,,,,,,,0,,68,0
79920,note_on,0,0,1,,,,,,,,,0,,66,85
79920,note_on,240,0,2,,,,,,,,,1,,56,0
79920,note_on,0,0,2,,,,,,,,,1,,59,76
79920,note_on,0,0,2,,,,,,,,,1,,50,76
79953,set_tempo,13473,1,0,,,,,,566893,,,,,,
79963,set_tempo,10,1,0,,,,,,568613,,,,,,
80120,note_on,0,0,2,,,,,,,,,1,,59,0
80120,note_on,200,0,2,,,,,,,,,1,,50,0
80130,set_tempo,167,1,0,,,,,,697674,,,,,,
80138,set_tempo,8,1,0,,,,,,740741,,,,,,
80145,set_tempo,7,1,0,,,,,,789474,,,,,,
80153,set_tempo,8,1,0,,,,,,845070,,,,,,
80160,note_on,240,0,1,,,,,,,,,0,,71,0
80160,note_on,0,0,1,,,,,,,,,0,,66,0
80160,note_on,40,0,2,,,,,,,,,1,,49,76
80160,set_tempo,7,1,0,,,,,,923077,,,,,,
80190,note_on,30,0,2,,,,,,,,,1,,53,76
80220,note_on,30,0,2,,,,,,,,,1,,56,76
80250,note_on,30,0,2,,,,,,,,,1,,59,76
80280,note_on,120,0,1,,,,,,,,,0,,61,85
80310,note_on,30,0,1,,,,,,,,,0,,65,85
80333,set_tempo,173,1,0,,,,,,923077,,,,,,
80340,note_on,30,0,1,,,,,,,,,0,,68,85
80340,set_tempo,7,1,0,,,,,,909091,,,,,,
80348,set_tempo,8,1,0,,,,,,895522,,,,,,
80355,set_tempo,7,1,0,,,,,,882353,,,,,,
80363,set_tempo,8,1,0,,,,,,857143,,,,,,
80370,set_tempo,7,1,0,,,,,,845070,,,,,,
80370,note_on,30,0,1,,,,,,,,,0,,71,85
80378,set_tempo,8,1,0,,,,,,833333,,,,,,
80385,set_tempo,7,1,0,,,,,,810811,,,,,,
80393,set_tempo,8,1,0,,,,,,800000,,,,,,
80400,set_tempo,7,1,0,,,,,,789474,,,,,,
80408,set_tempo,8,1,0,,,,,,769231,,,,,,
80415,set_tempo,7,1,0,,,,,,759494,,,,,,
80423,set_tempo,8,1,0,,,,,,750000,,,,,,
80430,set_tempo,7,1,0,,,,,,731707,,,,,,
80438,set_tempo,8,1,0,,,,,,722892,,,,,,
80445,set_tempo,7,1,0,,,,,,714286,,,,,,
80453,set_tempo,8,1,0,,,,,,697674,,,,,,
80460,set_tempo,7,1,0,,,,,,689655,,,,,,
80468,set_tempo,8,1,0,,,,,,681818,,,,,,
80475,set_tempo,7,1,0,,,,,,666667,,,,,,
80483,set_tempo,8,1,0,,,,,,659341,,,,,,
80490,set_tempo,7,1,0,,,,,,652174,,,,,,
80498,set_tempo,8,1,0,,,,,,638298,,,,,,
80505,set_tempo,7,1,0,,,,,,631579,,,,,,
80513,set_tempo,8,1,0,,,,,,625000,,,,,,
80520,set_tempo,7,1,0,,,,,,612245,,,,,,
80523,set_tempo,3,1,0,,,,,,575595,,,,,,
80533,set_tempo,10,1,0,,,,,,573833,,,,,,
80573,set_tempo,40,1,0,,,,,,572082,,,,,,
80598,note_on,348,0,2,,,,,,,,,1,,53,0
80640,note_on,0,0,2,,,,,,,,,1,,56,0
80640,note_on,42,0,2,,,,,,,,,1,,59,0
80640,note_on,270,0,1,,,,,,,,,0,,71,0
80640,note_on,0,0,1,,,,,,,,,0,,68,0
80640,note_on,0,0,1,,,,,,,,,0,,65,0
80640,note_on,0,0,1,,,,,,,,,0,,61,0
80880,note_on,240,0,1,,,,,,,,,0,,73,85
80880,note_on,240,0,2,,,,,,,,,1,,49,0
80880,note_on,0,0,2,,,,,,,,,1,,53,76
81120,note_on,0,0,1,,,,,,,,,0,,69,85
81120,note_on,240,0,2,,,,,,,,,1,,53,0
81120,note_on,0,0,2,,,,,,,,,1,,54,76
81120,note_on,240,0,1,,,,,,,,,0,,73,0
81360,note_on,240,0,2,,,,,,,,,1,,49,76
81360,note_on,240,0,1,,,,,,,,,0,,69,0
81360,note_on,0,0,1,,,,,,,,,0,,65,85
81600,note_on,240,0,1,,,,,,,,,0,,65,0
81600,note_on,0,0,1,,,,,,,,,0,,66,85
81600,note_on,240,0,2,,,,,,,,,1,,49,0
81600,note_on,0,0,2,,,,,,,,,1,,54,76
81600,note_on,0,0,2,,,,,,,,,1,,50,76
81600,note_on,0,0,2,,,,,,,,,1,,54,0
81840,note_on,0,0,2,,,,,,,,,1,,47,76
81840,note_on,240,0,2,,,,,,,,,1,,50,0
81840,note_on,0,0,1,,,,,,,,,0,,71,85
81840,note_on,240,0,1,,,,,,,,,0,,66,0
82080,note_on,240,0,1,,,,,,,,,0,,71,0
82080,note_on,0,0,2,,,,,,,,,1,,49,76
82080,note_on,240,0,2,,,,,,,,,1,,47,0
82080,note_on,0,0,1,,,,,,,,,0,,69,85
82320,note_on,0,0,2,,,,,,,,,1,,54,76
82320,note_on,240,0,2,,,,,,,,,1,,54,0
82560,note_on,0,0,1,,,,,,,,,0,,69,85
82560,text,0,1,1,,,,,,,,,,,,
82560,note_on,480,0,1,,,,,,,,,0,,69,0
82560,note_on,0,0,2,,,,,,,,,1,,53,76
82560,note_on,240,0,2,,,,,,,,,1,,54,0
82679,note_on,119,0,1,,,,,,,,,0,,69,0
82680,note_on,1,0,1,,,,,,,,,0,,68,85
82739,note_on,59,0,1,,,,,,,,,0,,68,0
82740,note_on,1,0,1,,,,,,,,,0,,69,85
82799,note_on,59,0,1,,,,,,,,,0,,69,0
82800,note_on,240,0,2,,,,,,,,,1,,53,0
82800,note_on,0,0,2,,,,,,,,,1,,61,76
82800,note_on,1,0,1,,,,,,,,,0,,68,85
82919,note_on,119,0,1,,,,,,,,,0,,68,0
82920,note_on,1,0,1,,,,,,,,,0,,66,85
83040,note_on,0,0,2,,,,,,,,,1,,50,76
83040,note_on,240,0,2,,,,,,,,,1,,49,0
83040,note_on,120,0,1,,,,,,,,,0,,66,0
83040,note_on,0,0,1,,,,,,,,,0,,66,85
83280,note_on,0,0,2,,,,,,,,,1,,61,76
83280,note_on,240,0,2,,,,,,,,,1,,61,0
83520,note_on,240,0,2,,,,,,,,,1,,61,0
83520,note_on,0,0,2,,,,,,,,,1,,59,76
83760,note_on,0,0,1,,,,,,,,,0,,78,85
83760,note_on,720,0,1,,,,,,,,,0,,66,0
83760,note_on,240,0,2,,,,,,,,,1,,59,0
83760,note_on,0,0,2,,,,,,,,,1,,58,76
84000,note_on,0,0,1,,,,,,,,,0,,78,85
84000,note_on,240,0,1,,,,,,,,,0,,78,0
84000,note_on,240,0,2,,,,,,,,,1,,58,0
84000,note_on,0,0,2,,,,,,,,,1,,50,0
84000,note_on,0,0,2,,,,,,,,,1,,59,76
84240,note_on,240,0,1,,,,,,,,,0,,66,85
84240,note_on,240,0,2,,,,,,,,,1,,50,76
84480,note_on,240,0,1,,,,,,,,,0,,66,0
84480,note_on,0,0,1,,,,,,,,,0,,68,85
84480,note_on,240,0,2,,,,,,,,,1,,50,0
84480,note_on,0,0,2,,,,,,,,,1,,52,76
84720,note_on,240,0,1,,,,,,,,,0,,78,0
84720,note_on,0,0,2,,,,,,,,,1,,62,76
84720,note_on,0,0,1,,,,,,,,,0,,78,85
84720,note_on,240,0,2,,,,,,,,,1,,59,0
84960,note_on,0,0,2,,,,,,,,,1,,61,76
84960,note_on,0,0,1,,,,,,,,,0,,76,85
84960,note_on,240,0,1,,,,,,,,,0,,78,0
84960,note_on,240,0,2,,,,,,,,,1,,62,0
85200,note_on,0,0,1,,,,,,,,,0,,71,85
85200,note_on,240,0,1,,,,,,,,,0,,68,0
85200,note_on,240,0,2,,,,,,,,,1,,52,0
85200,note_on,0,0,2,,,,,,,,,1,,52,76
85440,note_on,240,0,1,,,,,,,,,0,,71,0
85440,note_on,0,0,1,,,,,,,,,0,,70,85
85440,note_on,0,0,2,,,,,,,,,1,,54,76
85440,note_on,240,0,2,,,,,,,,,1,,52,0
85680,note_on,240,0,1,,,,,,,,,0,,76,0
85680,note_on,0,0,1,,,,,,,,,0,,76,85
85680,note_on,0,0,2,,,,,,,,,1,,61,76
85680,note_on,240,0,2,,,,,,,,,1,,61,0
85920,note_on,0,0,2,,,,,,,,,1,,59,76
85920,note_on,240,0,1,,,,,,,,,0,,76,0
85920,note_on,0,0,1,,,,,,,,,0,,70,0
85920,note_on,0,0,1,,,,,,,,,0,,76,85
85920,text,0,1,1,,,,,,,,,,,,
85920,note_on,240,0,2,,,,,,,,,1,,61,0
85920,note_on,0,0,2,,,,,,,,,1,,54,0
86039,note_on,119,0,1,,,,,,,,,0,,76,0
86040,note_on,1,0,1,,,,,,,,,0,,74,85
86099,note_on,59,0,1,,,,,,,,,0,,74,0
86100,note_on,1,0,1,,,,,,,,,0,,76,85
86159,note_on,59,0,1,,,,,,,,,0,,76,0
86160,note_on,1,0,1,,,,,,,,,0,,74,85
86160,note_on,240,0,2,,,,,,,,,1,,54,76
86279,note_on,119,0,1,,,,,,,,,0,,74,0
86280,note_on,1,0,1,,,,,,,,,0,,73,85
86400,note_on,0,0,2,,,,,,,,,1,,47,76
86400,note_on,120,0,1,,,,,,,,,0,,73,0
86400,note_on,0,0,1,,,,,,,,,0,,71,85
86400,note_on,0,0,2,,,,,,,,,1,,59,0
86400,note_on,240,0,2,,,,,,,,,1,,54,0
86640,note_on,240,0,1,,,,,,,,,0,,68,85
86880,note_on,480,0,2,,,,,,,,,1,,47,0
86880,note_on,240,0,1,,,,,,,,,0,,68,0
86880,note_on,0,0,1,,,,,,,,,0,,68,85
87120,note_on,240,0,2,,,,,,,,,1,,56,76
87120,note_on,240,0,1,,,,,,,,,0,,71,0
87120,note_on,0,0,1,,,,,,,,,0,,71,85
87360,note_on,240,0,2,,,,,,,,,1,,56,0
87360,note_on,0,0,2,,,,,,,,,1,,57,76
87360,note_on,240,0,1,,,,,,,,,0,,71,0
87360,note_on,0,0,1,,,,,,,,,0,,73,85
87600,note_on,0,0,1,,,,,,,,,0,,68,0
87600,note_on,0,0,1,,,,,,,,,0,,68,85
87600,note_on,0,0,1,,,,,,,,,0,,75,85
87600,note_on,240,0,1,,,,,,,,,0,,73,0
87840,text,0,1,1,,,,,,,,,,,,
87840,text,0,1,1,,,,,,,,,,,,
87840,note_on,0,0,1,,,,,,,,,0,,66,85
87840,note_on,0,0,1,,,,,,,,,0,,76,85
87840,note_on,0,0,1,,,,,,,,,0,,68,0
87840,note_on,240,0,1,,,,,,,,,0,,75,0
87959,note_on,119,0,1,,,,,,,,,0,,76,0
87960,note_on,1,0,1,,,,,,,,,0,,75,85
88019,note_on,59,0,1,,,,,,,,,0,,75,0
88020,note_on,1,0,1,,,,,,,,,0,,76,85
88079,note_on,59,0,1,,,,,,,,,0,,76,0
88080,note_on,0,0,2,,,,,,,,,1,,57,76
88080,note_on,720,0,2,,,,,,,,,1,,57,0
88080,note_on,1,0,1,,,,,,,,,0,,75,85
88139,note_on,59,0,1,,,,,,,,,0,,75,0
88140,note_on,1,0,1,,,,,,,,,0,,76,85
88199,note_on,59,0,1,,,,,,,,,0,,76,0
88200,note_on,1,0,1,,,,,,,,,0,,75,85
88320,note_on,0,0,2,,,,,,,,,1,,59,76
88320,note_on,240,0,2,,,,,,,,,1,,57,0
88559,note_on,359,0,1,,,,,,,,,0,,75,0
88560,note_on,1,0,1,,,,,,,,,0,,66,0
88560,note_on,0,0,1,,,,,,,,,0,,69,85
88560,note_on,0,0,1,,,,,,,,,0,,73,85
88680,note_on,0,0,1,,,,,,,,,0,,75,85
88680,note_on,120,0,1,,,,,,,,,0,,73,0
88800,note_on,480,0,2,,,,,,,,,1,,59,0
88800,note_on,120,0,1,,,,,,,,,0,,75,0
88800,note_on,0,0,1,,,,,,,,,0,,69,0
88800,note_on,0,0,1,,,,,,,,,0,,68,85
88800,note_on,0,0,1,,,,,,,,,0,,76,85
89040,note_on,240,0,2,,,,,,,,,1,,52,74
89280,note_on,240,0,2,,,,,,,,,1,,56,74
89280,note_on,480,0,1,,,,,,,,,0,,68,0
89520,note_on,240,0,2,,,,,,,,,1,,59,74
89760,note_on,240,0,2,,,,,,,,,1,,59,0
89760,note_on,0,0,2,,,,,,,,,1,,56,0
89760,note_on,0,0,2,,,,,,,,,1,,64,74
89760,note_on,480,0,1,,,,,,,,,0,,76,0
89760,note_on,0,0,1,,,,,,,,,0,,81,85
89760,text,0,1,1,,,,,,,,,,,,
89879,note_on,119,0,1,,,,,,,,,0,,81,0
89880,note_on,1,0,1,,,,,,,,,0,,80,85
89939,note_on,59,0,1,,,,,,,,,0,,80,0
89940,note_on,1,0,1,,,,,,,,,0,,81,85
89999,note_on,59,0,1,,,,,,,,,0,,81,0
90000,note_on,0,0,2,,,,,,,,,1,,52,74
90000,note_on,240,0,2,,,,,,,,,1,,52,0
90000,note_on,1,0,1,,,,,,,,,0,,80,85
90119,note_on,119,0,1,,,,,,,,,0,,80,0
90120,note_on,1,0,1,,,,,,,,,0,,78,85
90180,note_on,60,0,1,,,,,,,,,0,,78,0
90180,note_on,0,0,1,,,,,,,,,0,,80,85
90240,note_on,60,0,1,,,,,,,,,0,,80,0
90240,note_on,0,0,1,,,,,,,,,0,,81,85
90240,note_on,0,0,2,,,,,,,,,1,,54,74
90240,note_on,240,0,2,,,,,,,,,1,,52,0
90480,note_on,240,0,1,,,,,,,,,0,,81,0
90480,note_on,0,0,2,,,,,,,,,1,,64,74
90480,note_on,240,0,2,,,,,,,,,1,,64,0
90480,note_on,0,0,1,,,,,,,,,0,,80,85
90600,note_on,120,0,1,,,,,,,,,0,,80,0
90600,note_on,0,0,1,,,,,,,,,0,,81,85
90720,note_on,240,0,2,,,,,,,,,1,,64,0
90720,note_on,0,0,1,,,,,,,,,0,,83,85
90720,note_on,0,0,2,,,,,,,,,1,,62,74
90720,note_on,120,0,1,,,,,,,,,0,,81,0
90720,text,0,1,1,,,,,,,,,,,,
90839,note_on,119,0,1,,,,,,,,,0,,83,0
90840,note_on,1,0,1,,,,,,,,,0,,81,85
90899,note_on,59,0,1,,,,,,,,,0,,81,0
90900,note_on,1,0,1,,,,,,,,,0,,83,85
90959,note_on,59,0,1,,,,,,,,,0,,83,0
90960,note_on,0,0,2,,,,,,,,,1,,54,74
90960,note_on,1,0,1,,,,,,,,,0,,81,85
90960,note_on,240,0,2,,,,,,,,,1,,54,0
91079,note_on,119,0,1,,,,,,,,,0,,81,0
91080,note_on,1,0,1,,,,,,,,,0,,80,85
91140,note_on,0,0,1,,,,,,,,,0,,81,85
91140,note_on,60,0,1,,,,,,,,,0,,80,0
91200,note_on,0,0,1,,,,,,,,,0,,83,85
91200,note_on,60,0,1,,,,,,,,,0,,81,0
91200,note_on,0,0,2,,,,,,,,,1,,56,74
91200,note_on,240,0,2,,,,,,,,,1,,54,0
91320,note_on,0,0,1,,,,,,,,,0,,81,85
91320,note_on,120,0,1,,,,,,,,,0,,83,0
91440,note_on,120,0,1,,,,,,,,,0,,81,0
91440,note_on,0,0,1,,,,,,,,,0,,83,85
91440,note_on,0,0,2,,,,,,,,,1,,62,74
91440,note_on,240,0,2,,,,,,,,,1,,62,0
91680,note_on,240,0,1,,,,,,,,,0,,83,0
91680,note_on,240,0,2,,,,,,,,,1,,56,0
91680,note_on,0,0,2,,,,,,,,,1,,57,74
91680,note_on,0,0,1,,,,,,,,,0,,76,85
91920,note_on,240,0,2,,,,,,,,,1,,62,0
91920,note_on,0,0,2,,,,,,,,,1,,62,74
92160,note_on,240,0,2,,,,,,,,,1,,62,0
92160,note_on,0,0,2,,,,,,,,,1,,57,0
92160,note_on,0,0,2,,,,,,,,,1,,61,74
92400,note_on,0,0,2,,,,,,,,,1,,59,75
92400,note_on,0,0,1,,,,,,,,,0,,80,85
92400,note_on,240,0,2,,,,,,,,,1,,61,0
92400,note_on,720,0,1,,,,,,,,,0,,76,0
92640,note_on,0,0,2,,,,,,,,,1,,61,75
92640,note_on,240,0,1,,,,,,,,,0,,80,0
92640,note_on,0,0,1,,,,,,,,,0,,81,85
92640,note_on,240,0,2,,,,,,,,,1,,59,0
92880,note_on,0,0,1,,,,,,,,,0,,69,85
92880,note_on,240,0,1,,,,,,,,,0,,81,0
92880,note_on,240,0,2,,,,,,,,,1,,49,75
93120,note_on,0,0,2,,,,,,,,,1,,50,75
93120,note_on,240,0,2,,,,,,,,,1,,49,0
93120,note_on,240,0,1,,,,,,,,,0,,69,0
93120,note_on,0,0,1,,,,,,,,,0,,78,85
93360,note_on,0,0,2,,,,,,,,,1,,61,75
93360,note_on,240,0,2,,,,,,,,,1,,61,0
93360,note_on,240,0,1,,,,,,,,,0,,78,0
93360,note_on,0,0,1,,,,,,,,,0,,76,85
93600,note_on,240,0,1,,,,,,,,,0,,76,0
93600,note_on,0,0,1,,,,,,,,,0,,74,85
93600,note_on,240,0,2,,,,,,,,,1,,61,0
93600,note_on,0,0,2,,,,,,,,,1,,59,75
93840,note_on,240,0,2,,,,,,,,,1,,59,0
93840,note_on,0,0,2,,,,,,,,,1,,61,75
93840,note_on,0,0,2,,,,,,,,,1,,52,75
93840,note_on,240,0,1,,,,,,,,,0,,74,0
93840,note_on,0,0,1,,,,,,,,,0,,73,85
93840,note_on,0,0,2,,,,,,,,,1,,50,0
94080,note_on,0,0,1,,,,,,,,,0,,71,85
94080,note_on,240,0,2,,,,,,,,,1,,52,0
94080,note_on,0,0,2,,,,,,,,,1,,61,0
94080,note_on,0,0,2,,,,,,,,,1,,62,75
94080,note_on,0,0,2,,,,,,,,,1,,54,75
94080,note_on,240,0,1,,,,,,,,,0,,73,0
94320,note_on,240,0,1,,,,,,,,,0,,71,0
94320,note_on,0,0,1,,,,,,,,,0,,69,85
94560,note_on,0,0,1,,,,,,,,,0,,68,85
94560,note_on,240,0,1,,,,,,,,,0,,69,0
94560,note_on,0,0,2,,,,,,,,,1,,52,75
94560,note_on,480,0,2,,,,,,,,,1,,54,0
94920,note_on,360,0,1,,,,,,,,,0,,68,0
94920,note_on,0,0,1,,,,,,,,,0,,66,85
95040,note_on,0,0,1,,,,,,,,,0,,64,85
95040,note_on,120,0,1,,,,,,,,,0,,66,0
95280,note_on,0,0,2,,,,,,,,,1,,62,75
95280,note_on,720,0,2,,,,,,,,,1,,62,0
95520,note_on,240,0,2,,,,,,,,,1,,62,0
95520,note_on,0,0,2,,,,,,,,,1,,61,75
95760,note_on,240,0,2,,,,,,,,,1,,61,0
95760,note_on,0,0,2,,,,,,,,,1,,59,75
95760,note_on,0,0,1,,,,,,,,,0,,68,85
95760,note_on,720,0,1,,,,,,,,,0,,64,0
96000,note_on,240,0,1,,,,,,,,,0,,68,0
96000,note_on,0,0,2,,,,,,,,,1,,57,75
96000,note_on,240,0,2,,,,,,,,,1,,59,0
96000,note_on,0,0,2,,,,,,,,,1,,52,0
96000,note_on,0,0,1,,,,,,,,,0,,69,85
96000,note_on,0,0,2,,,,,,,,,1,,54,75
96240,note_on,0,0,2,,,,,,,,,1,,64,75
96240,note_on,240,0,2,,,,,,,,,1,,57,0
96480,note_on,240,0,2,,,,,,,,,1,,64,0
96480,note_on,0,0,2,,,,,,,,,1,,62,75
96720,note_on,240,0,2,,,,,,,,,1,,54,0
96720,note_on,0,0,2,,,,,,,,,1,,54,74
96720,note_on,0,0,1,,,,,,,,,0,,68,85
96720,note_on,720,0,1,,,,,,,,,0,,69,0
96840,note_on,0,0,1,,,,,,,,,0,,69,85
96840,note_on,120,0,1,,,,,,,,,0,,68,0
96960,note_on,240,0,2,,,,,,,,,1,,54,0
96960,note_on,0,0,2,,,,,,,,,1,,56,74
96960,note_on,120,0,1,,,,,,,,,0,,69,0
96960,note_on,0,0,1,,,,,,,,,0,,71,85
97080,note_on,120,0,1,,,,,,,,,0,,71,0
97080,note_on,0,0,1,,,,,,,,,0,,69,85
97200,note_on,240,0,2,,,,,,,,,1,,62,0
97200,note_on,0,0,1,,,,,,,,,0,,71,85
97200,note_on,120,0,1,,,,,,,,,0,,69,0
97200,note_on,0,0,2,,,,,,,,,1,,62,74
97440,note_on,0,0,2,,,,,,,,,1,,49,74
97440,note_on,240,0,1,,,,,,,,,0,,71,0
97440,note_on,240,0,2,,,,,,,,,1,,62,0
97440,note_on,0,0,2,,,,,,,,,1,,56,0
97440,note_on,0,0,1,,,,,,,,,0,,64,85
97680,note_on,240,0,2,,,,,,,,,1,,49,0
97680,note_on,0,0,2,,,,,,,,,1,,62,74
97920,note_on,0,0,2,,,,,,,,,1,,61,74
97920,note_on,240,0,2,,,,,,,,,1,,62,0
98160,note_on,240,0,2,,,,,,,,,1,,61,0
98160,note_on,0,0,2,,,,,,,,,1,,59,74
98160,note_on,0,0,1,,,,,,,,,0,,76,85
98160,note_on,720,0,1,,,,,,,,,0,,64,0
98400,note_on,240,0,2,,,,,,,,,1,,59,0
98400,note_on,0,0,1,,,,,,,,,0,,76,85
98400,note_on,0,0,2,,,,,,,,,1,,61,74
98400,note_on,240,0,1,,,,,,,,,0,,76,0
98640,note_on,240,0,2,,,,,,,,,1,,49,74
98640,note_on,240,0,1,,,,,,,,,0,,64,85
98880,note_on,240,0,1,,,,,,,,,0,,64,0
98880,note_on,0,0,1,,,,,,,,,0,,66,85
98880,note_on,0,0,2,,,,,,,,,1,,50,75
98880,note_on,240,0,2,,,,,,,,,1,,49,0
99120,note_on,240,0,2,,,,,,,,,1,,61,0
99120,note_on,0,0,2,,,,,,,,,1,,61,75
99120,note_on,240,0,1,,,,,,,,,0,,76,85
99180,note_on,60,0,1,,,,,,,,,0,,76,0
99360,note_on,240,0,2,,,,,,,,,1,,61,0
99360,note_on,180,0,1,,,,,,,,,0,,76,0
99360,note_on,0,0,1,,,,,,,,,0,,74,85
99360,note_on,0,0,2,,,,,,,,,1,,59,75
99600,note_on,240,0,1,,,,,,,,,0,,66,85
99600,note_on,0,0,2,,,,,,,,,1,,50,75
99600,note_on,240,0,2,,,,,,,,,1,,50,0
99780,note_on,180,0,1,,,,,,,,,0,,66,0
99840,note_on,60,0,1,,,,,,,,,0,,66,0
99840,note_on,0,0,1,,,,,,,,,0,,68,85
99840,note_on,0,0,2,,,,,,,,,1,,52,75
99840,note_on,240,0,2,,,,,,,,,1,,50,0
100080,note_on,0,0,2,,,,,,,,,1,,59,75
100080,note_on,240,0,2,,,,,,,,,1,,59,0
100080,note_on,240,0,1,,,,,,,,,0,,74,0
100080,note_on,0,0,1,,,,,,,,,0,,74,85
100320,note_on,240,0,1,,,,,,,,,0,,74,0
100320,note_on,0,0,1,,,,,,,,,0,,69,85
100320,note_on,240,0,2,,,,,,,,,1,,59,0
100320,note_on,0,0,2,,,,,,,,,1,,52,0
100320,note_on,0,0,2,,,,,,,,,1,,54,75
100320,note_on,0,0,1,,,,,,,,,0,,68,0
100560,note_on,240,0,1,,,,,,,,,0,,69,0
100560,note_on,0,0,1,,,,,,,,,0,,74,85
100560,note_on,0,0,2,,,,,,,,,1,,59,75
100560,note_on,240,0,2,,,,,,,,,1,,54,0
100800,note_on,0,0,2,,,,,,,,,1,,57,75
100800,note_on,240,0,2,,,,,,,,,1,,59,0
100800,note_on,240,0,1,,,,,,,,,0,,74,0
100800,note_on,0,0,1,,,,,,,,,0,,73,85
101040,note_on,240,0,2,,,,,,,,,1,,57,0
101040,note_on,240,0,1,,,,,,,,,0,,73,0
101040,note_on,0,0,1,,,,,,,,,0,,71,85
101040,note_on,0,0,2,,,,,,,,,1,,56,74
101280,note_on,0,0,2,,,,,,,,,1,,57,74
101280,note_on,240,0,2,,,,,,,,,1,,56,0
101280,note_on,240,0,1,,,,,,,,,0,,71,0
101280,note_on,0,0,1,,,,,,,,,0,,73,85
101519,set_tempo,20946,1,0,,,,,,568613,,,,,,
101520,note_on,0,0,2,,,,,,,,,1,,49,74
101520,note_on,240,0,1,,,,,,,,,0,,73,0
101520,note_on,0,0,1,,,,,,,,,0,,69,85
101520,note_on,240,0,2,,,,,,,,,1,,57,0
101544,set_tempo,25,1,0,,,,,,566893,,,,,,
101760,note_on,240,0,2,,,,,,,,,1,,49,0
101760,note_on,0,0,2,,,,,,,,,1,,50,74
101760,note_on,240,0,1,,,,,,,,,0,,69,0
101790,note_on,30,0,1,,,,,,,,,0,,62,85
101820,note_on,30,0,1,,,,,,,,,0,,66,85
101923,set_tempo,379,1,0,,,,,,565185,,,,,,
102000,note_on,180,0,1,,,,,,,,,0,,71,85
102240,note_on,0,0,1,,,,,,,,,0,,62,0
102240,note_on,240,0,1,,,,,,,,,0,,66,0
102240,note_on,480,0,2,,,,,,,,,1,,50,0
102240,note_on,0,0,2,,,,,,,,,1,,52,74
102270,note_on,30,0,1,,,,,,,,,0,,61,85
102300,note_on,30,0,1,,,,,,,,,0,,64,85
102348,set_tempo,425,1,0,,,,,,571429,,,,,,
102480,note_on,180,0,1,,,,,,,,,0,,71,0
102480,note_on,0,0,1,,,,,,,,,0,,69,85
102498,set_tempo,150,1,0,,,,,,576923,,,,,,
102648,set_tempo,150,1,0,,,,,,582524,,,,,,
102720,note_on,240,0,1,,,,,,,,,0,,64,0
102720,note_on,0,0,1,,,,,,,,,0,,61,0
102720,note_on,0,0,2,,,,,,,,,1,,40,75
102720,note_on,480,0,2,,,,,,,,,1,,52,0
102750,note_on,30,0,1,,,,,,,,,0,,59,85
102780,note_on,30,0,1,,,,,,,,,0,,62,85
102798,set_tempo,150,1,0,,,,,,588235,,,,,,
102956,set_tempo,158,1,0,,,,,,594059,,,,,,
102960,note_on,0,0,1,,,,,,,,,0,,68,85
102960,note_on,180,0,1,,,,,,,,,0,,69,0
103106,set_tempo,150,1,0,,,,,,600000,,,,,,
103186,note_on,226,0,1,,,,,,,,,0,,62,0
103200,note_on,14,0,1,,,,,,,,,0,,68,0
103200,note_on,0,0,1,,,,,,,,,0,,59,0
103200,note_on,0,0,1,,,,,,,,,0,,69,85
103200,note_on,480,0,2,,,,,,,,,1,,40,0
103200,note_on,0,0,2,,,,,,,,,1,,45,75
103256,set_tempo,150,1,0,,,,,,606061,,,,,,
103413,set_tempo,157,1,0,,,,,,612245,,,,,,
103440,note_on,240,0,1,,,,,,,,,0,,62,85
103563,set_tempo,150,1,0,,,,,,618557,,,,,,
103680,note_on,0,0,1,,,,,,,,,0,,64,85
103680,note_on,240,0,1,,,,,,,,,0,,62,0
103680,note_on,480,0,2,,,,,,,,,1,,57,76
103713,set_tempo,150,1,0,,,,,,625000,,,,,,
103863,set_tempo,150,1,0,,,,,,631579,,,,,,
103920,note_on,0,0,1,,,,,,,,,0,,61,85
103920,note_on,240,0,1,,,,,,,,,0,,64,0
104021,set_tempo,158,1,0,,,,,,638298,,,,,,
104160,note_on,0,0,2,,,,,,,,,1,,59,76
104160,note_on,0,0,1,,,,,,,,,0,,74,85
104160,note_on,0,0,1,,,,,,,,,0,,69,0
104160,note_on,240,0,1,,,,,,,,,0,,61,0
104160,note_on,480,0,2,,,,,,,,,1,,57,0
104171,set_tempo,150,1,0,,,,,,645161,,,,,,
104321,set_tempo,150,1,0,,,,,,652174,,,,,,
104400,note_on,0,0,1,,,,,,,,,0,,68,85
104400,note_on,240,0,1,,,,,,,,,0,,74,0
104471,set_tempo,150,1,0,,,,,,659341,,,,,,
104484,set_tempo,13,1,0,,,,,,666667,,,,,,
104567,set_tempo,83,1,0,,,,,,681818,,,,,,
104574,set_tempo,7,1,0,,,,,,689655,,,,,,
104582,set_tempo,8,1,0,,,,,,705882,,,,,,
104589,set_tempo,7,1,0,,,,,,722892,,,,,,
104597,set_tempo,8,1,0,,,,,,731707,,,,,,
104604,set_tempo,7,1,0,,,,,,750000,,,,,,
104612,set_tempo,8,1,0,,,,,,769231,,,,,,
104619,set_tempo,7,1,0,,,,,,779221,,,,,,
104627,set_tempo,8,1,0,,,,,,800000,,,,,,
104634,set_tempo,7,1,0,,,,,,821918,,,,,,
104640,note_on,240,0,1,,,,,,,,,0,,68,0
104640,note_on,480,0,2,,,,,,,,,1,,59,0
104640,note_on,0,0,2,,,,,,,,,1,,45,0
104640,note_on,0,0,2,,,,,,,,,1,,45,75
104642,set_tempo,8,1,0,,,,,,833333,,,,,,
104649,set_tempo,7,1,0,,,,,,857143,,,,,,
104657,set_tempo,8,1,0,,,,,,882353,,,,,,
104664,set_tempo,7,1,0,,,,,,895522,,,,,,
104670,note_on,30,0,2,,,,,,,,,1,,52,75
104672,set_tempo,8,1,0,,,,,,923077,,,,,,
104679,set_tempo,7,1,0,,,,,,952381,,,,,,
104687,set_tempo,8,1,0,,,,,,967742,,,,,,
104694,set_tempo,7,1,0,,,,,,1000000,,,,,,
104700,note_on,30,0,2,,,,,,,,,1,,57,75
104702,set_tempo,8,1,0,,,,,,1034483,,,,,,
104709,set_tempo,7,1,0,,,,,,1071429,,,,,,
104730,note_on,90,0,1,,,,,,,,,0,,61,85
104760,note_on,30,0,1,,,,,,,,,0,,64,85
104790,note_on,30,0,1,,,,,,,,,0,,69,85
105319,note_on,619,0,2,,,,,,,,,1,,45,0
105330,note_on,0,0,1,,,,,,,,,0,,64,0
105330,note_on,0,0,1,,,,,,,,,0,,61,0
105330,note_on,540,0,1,,,,,,,,,0,,69,0
105330,note_on,0,0,2,,,,,,,,,1,,52,0
105330,note_on,11,0,2,,,,,,,,,1,,57,0
105335,set_tempo,626,1,0,,,,,,568613,,,,,,
105360,marker,25,1,0,,,,,,,,,,,,
105364,note_on,34,0,1,,,,,,,,,0,,59,85
105600,note_on,236,0,1,,,,,,,,,0,,64,85
105604,note_on,4,0,1,,,,,,,,,0,,59,0
105840,note_on,236,0,1,,,,,,,,,0,,68,85
106080,note_on,0,0,1,,,,,,,,,0,,71,85
106080,note_on,240,0,1,,,,,,,,,0,,64,0
106080,note_on,750,0,2,,,,,,,,,1,,52,75
106320,note_on,0,0,1,,,,,,,,,0,,66,85
106320,note_on,240,0,1,,,,,,,,,0,,68,0
106560,note_on,0,0,1,,,,,,,,,0,,68,85
106560,note_on,480,0,2,,,,,,,,,1,,40,75
106560,note_on,240,0,1,,,,,,,,,0,,66,0
106800,note_on,240,0,1,,,,,,,,,0,,64,85
107040,note_on,240,0,1,,,,,,,,,0,,68,0
107040,note_on,0,0,1,,,,,,,,,0,,66,85
107040,note_on,0,0,1,,,,,,,,,0,,71,85
107040,note_on,0,0,1,,,,,,,,,0,,71,0
107040,note_on,480,0,2,,,,,,,,,1,,52,0
107280,note_on,0,0,1,,,,,,,,,0,,63,85
107280,note_on,240,0,1,,,,,,,,,0,,64,0
107520,note_on,480,0,2,,,,,,,,,1,,40,0
107520,note_on,0,0,1,,,,,,,,,0,,71,0
107520,note_on,0,0,1,,,,,,,,,0,,66,0
107520,note_on,0,0,1,,,,,,,,,0,,68,85
107520,note_on,0,0,1,,,,,,,,,0,,64,85
107520,note_on,240,0,1,,,,,,,,,0,,63,0
107760,note_on,240,0,2,,,,,,,,,1,,59,75
108000,note_on,0,0,2,,,,,,,,,1,,56,75
108000,note_on,240,0,2,,,,,,,,,1,,59,0
108240,note_on,0,0,1,,,,,,,,,0,,59,85
108240,note_on,240,0,2,,,,,,,,,1,,56,0
108240,note_on,720,0,1,,,,,,,,,0,,64,0
108240,note_on,0,0,1,,,,,,,,,0,,68,0
108240,note_on,0,0,2,,,,,,,,,1,,52,75
108480,note_on,0,0,1,,,,,,,,,0,,68,85
108480,note_on,0,0,2,,,,,,,,,1,,47,75
108480,note_on,240,0,1,,,,,,,,,0,,59,0
108480,note_on,240,0,2,,,,,,,,,1,,52,0
108720,note_on,0,0,1,,,,,,,,,0,,71,85
108720,note_on,240,0,1,,,,,,,,,0,,68,0
108720,note_on,240,0,2,,,,,,,,,1,,47,0
108720,note_on,0,0,2,,,,,,,,,1,,50,75
108960,note_on,0,0,2,,,,,,,,,1,,49,75
108960,note_on,240,0,2,,,,,,,,,1,,50,0
108960,note_on,240,0,1,,,,,,,,,0,,71,0
108960,note_on,0,0,1,,,,,,,,,0,,76,85
109200,note_on,240,0,1,,,,,,,,,0,,71,85
109440,note_on,240,0,1,,,,,,,,,0,,71,0
109440,note_on,0,0,1,,,,,,,,,0,,73,85
109680,note_on,720,0,2,,,,,,,,,1,,49,0
109680,note_on,240,0,1,,,,,,,,,0,,69,85
109680,note_on,0,0,2,,,,,,,,,1,,54,75
109920,note_on,0,0,2,,,,,,,,,1,,47,75
109920,note_on,240,0,2,,,,,,,,,1,,54,0
109920,note_on,0,0,1,,,,,,,,,0,,76,0
109920,note_on,0,0,1,,,,,,,,,0,,74,85
109920,note_on,0,0,1,,,,,,,,,0,,71,85
109920,note_on,240,0,1,,,,,,,,,0,,73,0
110160,note_on,240,0,1,,,,,,,,,0,,69,0
110160,note_on,0,0,1,,,,,,,,,0,,68,85
110160,note_on,0,0,2,,,,,,,,,1,,52,75
110160,note_on,240,0,2,,,,,,,,,1,,47,0
110400,note_on,240,0,2,,,,,,,,,1,,52,0
110400,note_on,0,0,2,,,,,,,,,1,,45,75
110400,note_on,240,0,1,,,,,,,,,0,,68,0
110400,note_on,0,0,1,,,,,,,,,0,,74,0
110400,note_on,0,0,1,,,,,,,,,0,,71,0
110400,note_on,0,0,1,,,,,,,,,0,,69,85
110400,note_on,0,0,1,,,,,,,,,0,,73,85
110640,note_on,0,0,1,,,,,,,,,0,,65,85
110640,note_on,240,0,1,,,,,,,,,0,,69,0
110880,note_on,0,0,1,,,,,,,,,0,,66,85
110880,note_on,240,0,1,,,,,,,,,0,,65,0
111120,note_on,0,0,1,,,,,,,,,0,,73,85
111120,note_on,240,0,1,,,,,,,,,0,,73,0
111120,note_on,720,0,2,,,,,,,,,1,,45,0
111120,note_on,0,0,2,,,,,,,,,1,,57,75
111360,note_on,240,0,2,,,,,,,,,1,,57,0
111360,note_on,0,0,1,,,,,,,,,0,,71,85
111360,note_on,0,0,1,,,,,,,,,0,,66,0
111360,note_on,240,0,1,,,,,,,,,0,,73,0
111360,note_on,0,0,2,,,,,,,,,1,,56,75
111600,note_on,0,0,1,,,,,,,,,0,,73,85
111600,note_on,240,0,1,,,,,,,,,0,,71,0
111600,note_on,240,0,2,,,,,,,,,1,,56,0
111600,note_on,0,0,2,,,,,,,,,1,,57,75
111840,note_on,0,0,1,,,,,,,,,0,,74,85
111840,note_on,240,0,2,,,,,,,,,1,,57,0
111840,note_on,0,0,2,,,,,,,,,1,,59,75
111840,note_on,240,0,1,,,,,,,,,0,,73,0
112080,note_on,0,0,2,,,,,,,,,1,,61,75
112080,note_on,240,0,2,,,,,,,,,1,,59,0
112080,note_on,240,0,1,,,,,,,,,0,,74,0
112080,note_on,0,0,1,,,,,,,,,0,,70,85
112320,note_on,240,0,2,,,,,,,,,1,,61,0
112320,note_on,240,0,1,,,,,,,,,0,,70,0
112320,note_on,0,0,1,,,,,,,,,0,,71,85
112320,note_on,0,0,2,,,,,,,,,1,,62,75
112560,note_on,0,0,1,,,,,,,,,0,,68,85
112560,note_on,240,0,1,,,,,,,,,0,,71,0
112560,note_on,0,0,2,,,,,,,,,1,,53,75
112560,note_on,240,0,2,,,,,,,,,1,,62,0
112800,note_on,0,0,2,,,,,,,,,1,,54,75
112800,note_on,0,0,1,,,,,,,,,0,,69,85
112800,note_on,240,0,1,,,,,,,,,0,,68,0
112800,note_on,240,0,2,,,,,,,,,1,,53,0
113040,note_on,0,0,1,,,,,,,,,0,,71,85
113040,note_on,240,0,1,,,,,,,,,0,,69,0
113040,note_on,240,0,2,,,,,,,,,1,,54,0
113040,note_on,0,0,2,,,,,,,,,1,,50,75
113280,note_on,0,0,2,,,,,,,,,1,,49,75
113280,note_on,0,0,1,,,,,,,,,0,,65,85
113280,note_on,240,0,2,,,,,,,,,1,,50,0
113280,note_on,240,0,1,,,,,,,,,0,,71,0
113520,note_on,240,0,2,,,,,,,,,1,,61,75
113760,note_on,240,0,2,,,,,,,,,1,,61,0
113760,note_on,0,0,2,,,,,,,,,1,,61,75
114000,note_on,0,0,1,,,,,,,,,0,,68,85
114000,note_on,720,0,1,,,,,,,,,0,,65,0
114000,note_on,0,0,2,,,,,,,,,1,,59,75
114000,note_on,240,0,2,,,,,,,,,1,,61,0
114240,note_on,0,0,2,,,,,,,,,1,,49,75
114240,note_on,0,0,2,,,,,,,,,1,,49,0
114240,note_on,0,0,2,,,,,,,,,1,,57,75
114240,note_on,0,0,1,,,,,,,,,0,,73,85
114240,note_on,240,0,1,,,,,,,,,0,,68,0
114240,note_on,240,0,2,,,,,,,,,1,,59,0
114480,note_on,240,0,2,,,,,,,,,1,,57,0
114480,note_on,0,0,2,,,,,,,,,1,,56,75
114480,note_on,0,0,1,,,,,,,,,0,,65,85
114480,note_on,240,0,1,,,,,,,,,0,,73,0
114720,note_on,240,0,1,,,,,,,,,0,,65,0
114720,note_on,0,0,1,,,,,,,,,0,,66,85
114720,note_on,0,0,2,,,,,,,,,1,,49,0
114720,note_on,0,0,2,,,,,,,,,1,,54,75
114720,note_on,240,0,2,,,,,,,,,1,,56,0
114720,note_on,0,0,2,,,,,,,,,1,,51,75
114960,note_on,240,0,2,,,,,,,,,1,,54,0
114960,note_on,0,0,2,,,,,,,,,1,,61,75
115199,text,479,1,1,,,,,,,,,,,,
115200,note_on,1,0,1,,,,,,,,,0,,66,0
115200,text,0,1,1,,,,,,,,,,,,
115200,note_on,0,0,1,,,,,,,,,0,,68,85
115200,note_on,240,0,2,,,,,,,,,1,,61,0
115200,note_on,0,0,2,,,,,,,,,1,,59,75
115319,note_on,119,0,1,,,,,,,,,0,,68,0
115320,note_on,1,0,1,,,,,,,,,0,,66,85
115379,note_on,59,0,1,,,,,,,,,0,,66,0
115380,note_on,1,0,1,,,,,,,,,0,,68,85
115439,note_on,59,0,1,,,,,,,,,0,,68,0
115440,note_on,1,0,1,,,,,,,,,0,,66,85
115440,note_on,240,0,2,,,,,,,,,1,,51,0
115440,note_on,0,0,2,,,,,,,,,1,,51,75
115559,note_on,119,0,1,,,,,,,,,0,,66,0
115560,note_on,0,0,1,,,,,,,,,0,,65,85
115560,note_on,1,0,1,,,,,,,,,0,,65,85
115620,note_on,0,0,1,,,,,,,,,0,,66,85
115620,note_on,0,0,1,,,,,,,,,0,,65,0
115620,note_on,60,0,1,,,,,,,,,0,,65,0
115680,note_on,0,0,2,,,,,,,,,1,,53,75
115680,note_on,0,0,1,,,,,,,,,0,,68,85
115680,note_on,60,0,1,,,,,,,,,0,,66,0
115680,note_on,240,0,2,,,,,,,,,1,,51,0
115800,note_on,120,0,1,,,,,,,,,0,,68,0
115800,note_on,0,0,1,,,,,,,,,0,,66,85
115920,note_on,0,0,1,,,,,,,,,0,,68,85
115920,note_on,120,0,1,,,,,,,,,0,,66,0
115920,note_on,240,0,2,,,,,,,,,1,,59,0
115920,note_on,0,0,2,,,,,,,,,1,,59,75
116160,note_on,240,0,2,,,,,,,,,1,,53,0
116160,note_on,0,0,2,,,,,,,,,1,,54,75
116160,note_on,0,0,1,,,,,,,,,0,,61,85
116160,note_on,240,0,1,,,,,,,,,0,,68,0
116400,note_on,240,0,2,,,,,,,,,1,,59,0
116400,note_on,0,0,2,,,,,,,,,1,,59,75
116640,note_on,240,0,2,,,,,,,,,1,,59,0
116640,note_on,0,0,2,,,,,,,,,1,,57,75
116880,note_on,0,0,2,,,,,,,,,1,,54,75
116880,note_on,720,0,1,,,,,,,,,0,,61,0
116880,note_on,0,0,1,,,,,,,,,0,,73,85
116880,note_on,240,0,2,,,,,,,,,1,,54,0
117120,note_on,240,0,1,,,,,,,,,0,,73,0
117120,note_on,0,0,1,,,,,,,,,0,,73,85
117120,note_on,0,0,2,,,,,,,,,1,,45,75
117120,note_on,240,0,2,,,,,,,,,1,,54,0
117360,note_on,0,0,2,,,,,,,,,1,,57,75
117360,note_on,240,0,2,,,,,,,,,1,,57,0
117360,note_on,240,0,1,,,,,,,,,0,,61,85
117600,note_on,0,0,1,,,,,,,,,0,,63,85
117600,note_on,240,0,2,,,,,,,,,1,,45,0
117600,note_on,0,0,2,,,,,,,,,1,,47,75
117600,note_on,240,0,1,,,,,,,,,0,,61,0
117840,note_on,240,0,1,,,,,,,,,0,,73,0
117840,note_on,240,0,2,,,,,,,,,1,,57,0
117840,note_on,0,0,2,,,,,,,,,1,,57,75
117840,note_on,0,0,1,,,,,,,,,0,,73,85
118080,note_on,240,0,1,,,,,,,,,0,,73,0
118080,note_on,0,0,1,,,,,,,,,0,,71,85
118080,note_on,0,0,2,,,,,,,,,1,,56,75
118080,note_on,240,0,2,,,,,,,,,1,,57,0
118320,note_on,240,0,1,,,,,,,,,0,,63,0
118320,note_on,0,0,1,,,,,,,,,0,,63,85
118560,note_on,480,0,2,,,,,,,,,1,,47,0
118560,note_on,240,0,1,,,,,,,,,0,,63,0
118560,note_on,0,0,1,,,,,,,,,0,,68,85
118711,set_tempo,13351,1,0,,,,,,570342,,,,,,
118752,note_on,192,0,1,,,,,,,,,0,,71,0
118800,note_on,48,0,1,,,,,,,,,0,,68,0
118800,note_on,0,0,1,,,,,,,,,0,,71,85
118800,note_on,0,0,1,,,,,,,,,0,,66,85
118800,note_on,240,0,2,,,,,,,,,1,,56,0
118800,note_on,0,0,2,,,,,,,,,1,,50,75
118800,note_on,0,0,2,,,,,,,,,1,,59,75
118989,set_tempo,278,1,0,,,,,,568613,,,,,,
118995,set_tempo,6,1,0,,,,,,618557,,,,,,
119000,note_on,200,0,2,,,,,,,,,1,,59,0
119000,note_on,0,0,2,,,,,,,,,1,,50,0
119003,set_tempo,8,1,0,,,,,,652174,,,,,,
119010,set_tempo,7,1,0,,,,,,697674,,,,,,
119018,set_tempo,8,1,0,,,,,,740741,,,,,,
119025,set_tempo,7,1,0,,,,,,789474,,,,,,
119033,set_tempo,8,1,0,,,,,,845070,,,,,,
119040,note_on,0,0,1,,,,,,,,,0,,66,0
119040,note_on,240,0,1,,,,,,,,,0,,71,0
119040,note_on,40,0,2,,,,,,,,,1,,49,75
119040,set_tempo,7,1,0,,,,,,923077,,,,,,
119070,note_on,30,0,2,,,,,,,,,1,,53,75
119100,note_on,30,0,2,,,,,,,,,1,,56,75
119130,note_on,30,0,2,,,,,,,,,1,,59,75
119160,note_on,120,0,1,,,,,,,,,0,,61,85
119190,note_on,30,0,1,,,,,,,,,0,,65,85
119213,set_tempo,173,1,0,,,,,,923077,,,,,,
119220,set_tempo,7,1,0,,,,,,909091,,,,,,
119220,note_on,30,0,1,,,,,,,,,0,,68,85
119228,set_tempo,8,1,0,,,,,,895522,,,,,,
119235,set_tempo,7,1,0,,,,,,882353,,,,,,
119243,set_tempo,8,1,0,,,,,,857143,,,,,,
119250,set_tempo,7,1,0,,,,,,845070,,,,,,
119250,note_on,30,0,1,,,,,,,,,0,,71,85
119258,set_tempo,8,1,0,,,,,,833333,,,,,,
119265,set_tempo,7,1,0,,,,,,810811,,,,,,
119273,set_tempo,8,1,0,,,,,,800000,,,,,,
119280,set_tempo,7,1,0,,,,,,789474,,,,,,
119288,set_tempo,8,1,0,,,,,,769231,,,,,,
119295,set_tempo,7,1,0,,,,,,759494,,,,,,
119303,set_tempo,8,1,0,,,,,,750000,,,,,,
119310,set_tempo,7,1,0,,,,,,731707,,,,,,
119318,set_tempo,8,1,0,,,,,,722892,,,,,,
119325,set_tempo,7,1,0,,,,,,714286,,,,,,
119333,set_tempo,8,1,0,,,,,,697674,,,,,,
119340,set_tempo,7,1,0,,,,,,689655,,,,,,
119348,set_tempo,8,1,0,,,,,,681818,,,,,,
119355,set_tempo,7,1,0,,,,,,666667,,,,,,
119363,set_tempo,8,1,0,,,,,,659341,,,,,,
119368,set_tempo,5,1,0,,,,,,570342,,,,,,
119393,set_tempo,25,1,0,,,,,,568613,,,,,,
119478,note_on,348,0,2,,,,,,,,,1,,53,0
119520,note_on,0,0,1,,,,,,,,,0,,68,0
119520,note_on,0,0,1,,,,,,,,,0,,65,0
119520,note_on,0,0,1,,,,,,,,,0,,61,0
119520,note_on,270,0,1,,,,,,,,,0,,71,0
119520,note_on,0,0,2,,,,,,,,,1,,56,0
119520,note_on,42,0,2,,,,,,,,,1,,59,0
119760,note_on,0,0,2,,,,,,,,,1,,53,75
119760,note_on,240,0,2,,,,,,,,,1,,49,0
119760,note_on,240,0,1,,,,,,,,,0,,73,85
120000,note_on,0,0,2,,,,,,,,,1,,54,75
120000,note_on,0,0,1,,,,,,,,,0,,69,85
120000,note_on,240,0,1,,,,,,,,,0,,73,0
120000,note_on,240,0,2,,,,,,,,,1,,53,0
120240,note_on,240,0,2,,,,,,,,,1,,49,75
120240,note_on,0,0,1,,,,,,,,,0,,65,85
120240,note_on,240,0,1,,,,,,,,,0,,69,0
120480,note_on,240,0,2,,,,,,,,,1,,49,0
120480,note_on,0,0,2,,,,,,,,,1,,50,75
120480,note_on,240,0,1,,,,,,,,,0,,65,0
120480,note_on,0,0,1,,,,,,,,,0,,66,85
120480,note_on,0,0,2,,,,,,,,,1,,54,75
120480,note_on,0,0,2,,,,,,,,,1,,54,0
120720,note_on,240,0,1,,,,,,,,,0,,66,0
120720,note_on,240,0,2,,,,,,,,,1,,50,0
120720,note_on,0,0,2,,,,,,,,,1,,47,75
120720,note_on,0,0,1,,,,,,,,,0,,71,85
120960,note_on,0,0,1,,,,,,,,,0,,69,85
120960,note_on,240,0,1,,,,,,,,,0,,71,0
120960,note_on,240,0,2,,,,,,,,,1,,47,0
120960,note_on,0,0,2,,,,,,,,,1,,49,75
121200,note_on,240,0,2,,,,,,,,,1,,54,0
121200,note_on,0,0,2,,,,,,,,,1,,54,75
121440,note_on,0,0,1,,,,,,,,,0,,69,85
121440,note_on,480,0,1,,,,,,,,,0,,69,0
121440,text,0,1,1,,,,,,,,,,,,
121440,note_on,240,0,2,,,,,,,,,1,,54,0
121440,note_on,0,0,2,,,,,,,,,1,,53,75
121559,note_on,119,0,1,,,,,,,,,0,,69,0
121560,note_on,1,0,1,,,,,,,,,0,,68,85
121619,note_on,59,0,1,,,,,,,,,0,,68,0
121620,note_on,1,0,1,,,,,,,,,0,,69,85
121679,note_on,59,0,1,,,,,,,,,0,,69,0
121680,note_on,1,0,1,,,,,,,,,0,,68,85
121680,note_on,240,0,2,,,,,,,,,1,,53,0
121680,note_on,0,0,2,,,,,,,,,1,,61,75
121799,note_on,119,0,1,,,,,,,,,0,,68,0
121800,note_on,1,0,1,,,,,,,,,0,,66,85
121920,note_on,240,0,2,,,,,,,,,1,,49,0
121920,note_on,120,0,1,,,,,,,,,0,,66,0
121920,note_on,0,0,1,,,,,,,,,0,,66,85
121920,note_on,0,0,2,,,,,,,,,1,,50,75
122160,note_on,0,0,2,,,,,,,,,1,,61,75
122160,note_on,240,0,2,,,,,,,,,1,,61,0
122400,note_on,240,0,2,,,,,,,,,1,,61,0
122400,note_on,0,0,2,,,,,,,,,1,,59,75
122640,note_on,0,0,2,,,,,,,,,1,,58,75
122640,note_on,240,0,2,,,,,,,,,1,,59,0
122640,note_on,720,0,1,,,,,,,,,0,,66,0
122640,note_on,0,0,1,,,,,,,,,0,,78,85
122880,note_on,0,0,1,,,,,,,,,0,,78,85
122880,note_on,0,0,2,,,,,,,,,1,,59,75
122880,note_on,0,0,2,,,,,,,,,1,,50,0
122880,note_on,240,0,2,,,,,,,,,1,,58,0
122880,note_on,240,0,1,,,,,,,,,0,,78,0
123120,note_on,240,0,1,,,,,,,,,0,,66,85
123120,note_on,240,0,2,,,,,,,,,1,,50,75
123360,note_on,0,0,1,,,,,,,,,0,,68,85
123360,note_on,0,0,2,,,,,,,,,1,,52,75
123360,note_on,240,0,2,,,,,,,,,1,,50,0
123360,note_on,240,0,1,,,,,,,,,0,,66,0
123600,note_on,0,0,1,,,,,,,,,0,,78,85
123600,note_on,240,0,1,,,,,,,,,0,,78,0
123600,note_on,240,0,2,,,,,,,,,1,,59,0
123600,note_on,0,0,2,,,,,,,,,1,,62,75
123840,note_on,240,0,2,,,,,,,,,1,,62,0
123840,note_on,0,0,2,,,,,,,,,1,,61,75
123840,note_on,0,0,1,,,,,,,,,0,,76,85
123840,note_on,240,0,1,,,,,,,,,0,,78,0
124080,note_on,0,0,2,,,,,,,,,1,,52,75
124080,note_on,240,0,2,,,,,,,,,1,,52,0
124080,note_on,240,0,1,,,,,,,,,0,,68,0
124080,note_on,0,0,1,,,,,,,,,0,,71,85
124320,note_on,240,0,2,,,,,,,,,1,,52,0
124320,note_on,240,0,1,,,,,,,,,0,,71,0
124320,note_on,0,0,1,,,,,,,,,0,,70,85
124320,note_on,0,0,2,,,,,,,,,1,,54,75
124560,note_on,240,0,2,,,,,,,,,1,,61,0
124560,note_on,0,0,2,,,,,,,,,1,,61,75
124560,note_on,0,0,1,,,,,,,,,0,,76,85
124560,note_on,240,0,1,,,,,,,,,0,,76,0
124800,note_on,240,0,2,,,,,,,,,1,,61,0
124800,note_on,0,0,2,,,,,,,,,1,,54,0
124800,note_on,0,0,2,,,,,,,,,1,,59,75
124800,text,0,1,1,,,,,,,,,,,,
124800,note_on,0,0,1,,,,,,,,,0,,76,85
124800,note_on,0,0,1,,,,,,,,,0,,70,0
124800,note_on,240,0,1,,,,,,,,,0,,76,0
124919,note_on,119,0,1,,,,,,,,,0,,76,0
124920,note_on,1,0,1,,,,,,,,,0,,74,85
124979,note_on,59,0,1,,,,,,,,,0,,74,0
124980,note_on,1,0,1,,,,,,,,,0,,76,85
125039,note_on,59,0,1,,,,,,,,,0,,76,0
125040,note_on,240,0,2,,,,,,,,,1,,54,75
125040,note_on,1,0,1,,,,,,,,,0,,74,85
125159,note_on,119,0,1,,,,,,,,,0,,74,0
125160,note_on,1,0,1,,,,,,,,,0,,73,85
125280,note_on,240,0,2,,,,,,,,,1,,54,0
125280,note_on,0,0,2,,,,,,,,,1,,59,0
125280,note_on,0,0,1,,,,,,,,,0,,71,85
125280,note_on,120,0,1,,,,,,,,,0,,73,0
125280,note_on,0,0,2,,,,,,,,,1,,47,75
125520,note_on,240,0,1,,,,,,,,,0,,68,85
125760,note_on,0,0,1,,,,,,,,,0,,68,85
125760,note_on,480,0,2,,,,,,,,,1,,47,0
125760,note_on,240,0,1,,,,,,,,,0,,68,0
126000,note_on,0,0,1,,,,,,,,,0,,71,85
126000,note_on,240,0,2,,,,,,,,,1,,56,75
126000,note_on,240,0,1,,,,,,,,,0,,71,0
126240,note_on,240,0,2,,,,,,,,,1,,56,0
126240,note_on,0,0,1,,,,,,,,,0,,73,85
126240,note_on,240,0,1,,,,,,,,,0,,71,0
126240,note_on,0,0,2,,,,,,,,,1,,57,75
126480,note_on,0,0,1,,,,,,,,,0,,75,85
126480,note_on,0,0,1,,,,,,,,,0,,68,85
126480,note_on,0,0,1,,,,,,,,,0,,68,0
126480,note_on,240,0,1,,,,,,,,,0,,73,0
126720,text,0,1,1,,,,,,,,,,,,
126720,note_on,0,0,1,,,,,,,,,0,,68,0
126720,note_on,240,0,1,,,,,,,,,0,,75,0
126720,note_on,0,0,1,,,,,,,,,0,,76,85
126720,note_on,0,0,1,,,,,,,,,0,,66,85
126720,text,0,1,1,,,,,,,,,,,,
126839,note_on,119,0,1,,,,,,,,,0,,76,0
126840,note_on,1,0,1,,,,,,,,,0,,75,85
126899,note_on,59,0,1,,,,,,,,,0,,75,0
126900,note_on,1,0,1,,,,,,,,,0,,76,85
126959,note_on,59,0,1,,,,,,,,,0,,76,0
126960,note_on,0,0,2,,,,,,,,,1,,57,75
126960,note_on,720,0,2,,,,,,,,,1,,57,0
126960,note_on,1,0,1,,,,,,,,,0,,75,85
127019,note_on,59,0,1,,,,,,,,,0,,75,0
127020,note_on,1,0,1,,,,,,,,,0,,76,85
127079,note_on,59,0,1,,,,,,,,,0,,76,0
127080,note_on,1,0,1,,,,,,,,,0,,75,85
127200,note_on,240,0,2,,,,,,,,,1,,57,0
127200,note_on,0,0,2,,,,,,,,,1,,59,75
127439,note_on,359,0,1,,,,,,,,,0,,75,0
127440,note_on,1,0,1,,,,,,,,,0,,66,0
127440,note_on,0,0,1,,,,,,,,,0,,69,85
127440,note_on,0,0,1,,,,,,,,,0,,73,85
127560,note_on,120,0,1,,,,,,,,,0,,73,0
127560,note_on,0,0,1,,,,,,,,,0,,75,85
127680,note_on,0,0,1,,,,,,,,,0,,76,85
127680,note_on,0,0,1,,,,,,,,,0,,68,85
127680,note_on,480,0,2,,,,,,,,,1,,59,0
127680,note_on,0,0,1,,,,,,,,,0,,69,0
127680,note_on,120,0,1,,,,,,,,,0,,75,0
127920,note_on,240,0,2,,,,,,,,,1,,52,75
128160,note_on,240,0,2,,,,,,,,,1,,56,75
128160,note_on,480,0,1,,,,,,,,,0,,68,0
128400,note_on,240,0,2,,,,,,,,,1,,59,75
128640,note_on,480,0,1,,,,,,,,,0,,76,0
128640,note_on,0,0,1,,,,,,,,,0,,81,85
128640,text,0,1,1,,,,,,,,,,,,
128640,note_on,0,0,2,,,,,,,,,1,,56,0
128640,note_on,0,0,2,,,,,,,,,1,,64,75
128640,note_on,240,0,2,,,,,,,,,1,,59,0
128759,note_on,119,0,1,,,,,,,,,0,,81,0
128760,note_on,1,0,1,,,,,,,,,0,,80,85
128819,note_on,59,0,1,,,,,,,,,0,,80,0
128820,note_on,1,0,1,,,,,,,,,0,,81,85
128879,note_on,59,0,1,,,,,,,,,0,,81,0
128880,note_on,240,0,2,,,,,,,,,1,,52,0
128880,note_on,1,0,1,,,,,,,,,0,,80,85
128880,note_on,0,0,2,,,,,,,,,1,,52,75
128999,note_on,119,0,1,,,,,,,,,0,,80,0
129000,note_on,1,0,1,,,,,,,,,0,,78,85
129060,note_on,0,0,1,,,,,,,,,0,,80,85
129060,note_on,60,0,1,,,,,,,,,0,,78,0
129120,note_on,0,0,1,,,,,,,,,0,,81,85
129120,note_on,60,0,1,,,,,,,,,0,,80,0
129120,note_on,240,0,2,,,,,,,,,1,,52,0
129120,note_on,0,0,2,,,,,,,,,1,,54,75
129360,note_on,0,0,1,,,,,,,,,0,,80,85
129360,note_on,0,0,2,,,,,,,,,1,,64,75
129360,note_on,240,0,1,,,,,,,,,0,,81,0
129360,note_on,240,0,2,,,,,,,,,1,,64,0
129480,note_on,0,0,1,,,,,,,,,0,,81,85
129480,note_on,120,0,1,,,,,,,,,0,,80,0
129600,note_on,0,0,2,,,,,,,,,1,,62,75
129600,note_on,240,0,2,,,,,,,,,1,,64,0
129600,note_on,0,0,1,,,,,,,,,0,,83,85
129600,note_on,120,0,1,,,,,,,,,0,,81,0
129600,text,0,1,1,,,,,,,,,,,,
129719,note_on,119,0,1,,,,,,,,,0,,83,0
129720,note_on,1,0,1,,,,,,,,,0,,81,85
129779,note_on,59,0,1,,,,,,,,,0,,81,0
129780,note_on,1,0,1,,,,,,,,,0,,83,85
129839,note_on,59,0,1,,,,,,,,,0,,83,0
129840,note_on,0,0,2,,,,,,,,,1,,54,75
129840,note_on,240,0,2,,,,,,,,,1,,54,0
129840,note_on,1,0,1,,,,,,,,,0,,81,85
129959,note_on,119,0,1,,,,,,,,,0,,81,0
129960,note_on,1,0,1,,,,,,,,,0,,80,85
130020,note_on,60,0,1,,,,,,,,,0,,80,0
130020,note_on,0,0,1,,,,,,,,,0,,81,85
130080,note_on,60,0,1,,,,,,,,,0,,81,0
130080,note_on,0,0,1,,,,,,,,,0,,83,85
130080,note_on,0,0,2,,,,,,,,,1,,56,75
130080,note_on,240,0,2,,,,,,,,,1,,54,0
130200,note_on,120,0,1,,,,,,,,,0,,83,0
130200,note_on,0,0,1,,,,,,,,,0,,81,85
130320,note_on,240,0,2,,,,,,,,,1,,56,0
130320,note_on,0,0,2,,,,,,,,,1,,62,0
130320,note_on,0,0,2,,,,,,,,,1,,62,75
130320,note_on,120,0,1,,,,,,,,,0,,81,0
130320,note_on,0,0,1,,,,,,,,,0,,83,85
130560,note_on,240,0,2,,,,,,,,,1,,57,75
130560,note_on,0,0,1,,,,,,,,,0,,76,85
130560,note_on,240,0,1,,,,,,,,,0,,83,0
130800,note_on,240,0,2,,,,,,,,,1,,62,0
130800,note_on,0,0,2,,,,,,,,,1,,62,75
131040,note_on,240,0,2,,,,,,,,,1,,62,0
131040,note_on,0,0,2,,,,,,,,,1,,57,0
131040,note_on,0,0,2,,,,,,,,,1,,61,75
131280,note_on,240,0,2,,,,,,,,,1,,61,0
131280,note_on,0,0,2,,,,,,,,,1,,59,75
131280,note_on,0,0,1,,,,,,,,,0,,80,85
131280,note_on,720,0,1,,,,,,,,,0,,76,0
131520,note_on,0,0,2,,,,,,,,,1,,61,75
131520,note_on,240,0,2,,,,,,,,,1,,59,0
131520,note_on,240,0,1,,,,,,,,,0,,80,0
131520,note_on,0,0,1,,,,,,,,,0,,81,85
131760,note_on,240,0,2,,,,,,,,,1,,49,75
131760,note_on,0,0,1,,,,,,,,,0,,69,85
131760,note_on,240,0,1,,,,,,,,,0,,81,0
132000,note_on,240,0,2,,,,,,,,,1,,49,0
132000,note_on,0,0,2,,,,,,,,,1,,50,75
132000,note_on,0,0,1,,,,,,,,,0,,78,85
132000,note_on,240,0,1,,,,,,,,,0,,69,0
132240,note_on,240,0,1,,,,,,,,,0,,78,0
132240,note_on,0,0,1,,,,,,,,,0,,76,85
132240,note_on,240,0,2,,,,,,,,,1,,61,0
132240,note_on,0,0,2,,,,,,,,,1,,61,75
132480,note_on,240,0,1,,,,,,,,,0,,76,0
132480,note_on,0,0,1,,,,,,,,,0,,74,85
132480,note_on,240,0,2,,,,,,,,,1,,61,0
132480,note_on,0,0,2,,,,,,,,,1,,59,75
132720,note_on,240,0,2,,,,,,,,,1,,59,0
132720,note_on,0,0,2,,,,,,,,,1,,61,75
132720,note_on,0,0,2,,,,,,,,,1,,52,75
132720,note_on,0,0,2,,,,,,,,,1,,50,0
132720,note_on,0,0,1,,,,,,,,,0,,73,85
132720,note_on,240,0,1,,,,,,,,,0,,74,0
132960,note_on,0,0,2,,,,,,,,,1,,54,75
132960,note_on,0,0,2,,,,,,,,,1,,62,75
132960,note_on,0,0,2,,,,,,,,,1,,61,0
132960,note_on,240,0,2,,,,,,,,,1,,52,0
132960,note_on,240,0,1,,,,,,,,,0,,73,0
132960,note_on,0,0,1,,,,,,,,,0,,71,85
133200,note_on,240,0,1,,,,,,,,,0,,71,0
133200,note_on,0,0,1,,,,,,,,,0,,69,85
133440,note_on,0,0,2,,,,,,,,,1,,52,75
133440,note_on,0,0,1,,,,,,,,,0,,68,85
133440,note_on,480,0,2,,,,,,,,,1,,54,0
133440,note_on,240,0,1,,,,,,,,,0,,69,0
133800,note_on,360,0,1,,,,,,,,,0,,68,0
133800,note_on,0,0,1,,,,,,,,,0,,66,85
133920,note_on,120,0,1,,,,,,,,,0,,66,0
133920,note_on,0,0,1,,,,,,,,,0,,64,85
134160,note_on,720,0,2,,,,,,,,,1,,62,0
134160,note_on,0,0,2,,,,,,,,,1,,62,75
134400,note_on,0,0,2,,,,,,,,,1,,61,75
134400,note_on,240,0,2,,,,,,,,,1,,62,0
134640,note_on,240,0,2,,,,,,,,,1,,61,0
134640,note_on,0,0,2,,,,,,,,,1,,59,75
134640,note_on,0,0,1,,,,,,,,,0,,68,85
134640,note_on,720,0,1,,,,,,,,,0,,64,0
134880,note_on,0,0,1,,,,,,,,,0,,69,85
134880,note_on,240,0,1,,,,,,,,,0,,68,0
134880,note_on,240,0,2,,,,,,,,,1,,59,0
134880,note_on,0,0,2,,,,,,,,,1,,52,0
134880,note_on,0,0,2,,,,,,,,,1,,57,75
134880,note_on,0,0,2,,,,,,,,,1,,54,75
135120,note_on,240,0,2,,,,,,,,,1,,57,0
135120,note_on,0,0,2,,,,,,,,,1,,64,75
135360,note_on,240,0,2,,,,,,,,,1,,64,0
135360,note_on,0,0,2,,,,,,,,,1,,62,75
135600,note_on,240,0,2,,,,,,,,,1,,54,0
135600,note_on,0,0,2,,,,,,,,,1,,54,75
135600,note_on,720,0,1,,,,,,,,,0,,69,0
135600,note_on,0,0,1,,,,,,,,,0,,68,85
135720,note_on,0,0,1,,,,,,,,,0,,69,85
135720,note_on,120,0,1,,,,,,,,,0,,68,0
135840,note_on,120,0,1,,,,,,,,,0,,69,0
135840,note_on,240,0,2,,,,,,,,,1,,54,0
135840,note_on,0,0,2,,,,,,,,,1,,56,75
135840,note_on,0,0,1,,,,,,,,,0,,71,85
135960,note_on,120,0,1,,,,,,,,,0,,71,0
135960,note_on,0,0,1,,,,,,,,,0,,69,85
136080,note_on,0,0,1,,,,,,,,,0,,71,85
136080,note_on,240,0,2,,,,,,,,,1,,62,0
136080,note_on,0,0,2,,,,,,,,,1,,62,75
136080,note_on,120,0,1,,,,,,,,,0,,69,0
136320,note_on,240,0,2,,,,,,,,,1,,62,0
136320,note_on,0,0,1,,,,,,,,,0,,64,85
136320,note_on,0,0,2,,,,,,,,,1,,49,75
136320,note_on,0,0,2,,,,,,,,,1,,56,0
136320,note_on,240,0,1,,,,,,,,,0,,71,0
136560,note_on,240,0,2,,,,,,,,,1,,49,0
136560,note_on,0,0,2,,,,,,,,,1,,62,75
136800,note_on,0,0,2,,,,,,,,,1,,61,75
136800,note_on,240,0,2,,,,,,,,,1,,62,0
137040,note_on,0,0,2,,,,,,,,,1,,59,75
137040,note_on,240,0,2,,,,,,,,,1,,61,0
137040,note_on,720,0,1,,,,,,,,,0,,64,0
137040,note_on,0,0,1,,,,,,,,,0,,76,85
137280,note_on,240,0,1,,,,,,,,,0,,76,0
137280,note_on,0,0,2,,,,,,,,,1,,61,75
137280,note_on,240,0,2,,,,,,,,,1,,59,0
137280,note_on,0,0,1,,,,,,,,,0,,76,85
137520,note_on,240,0,2,,,,,,,,,1,,49,75
137520,note_on,240,0,1,,,,,,,,,0,,64,85
137760,note_on,0,0,2,,,,,,,,,1,,50,75
137760,note_on,240,0,2,,,,,,,,,1,,49,0
137760,note_on,0,0,1,,,,,,,,,0,,66,85
137760,note_on,240,0,1,,,,,,,,,0,,64,0
138000,note_on,240,0,1,,,,,,,,,0,,76,85
138000,note_on,0,0,2,,,,,,,,,1,,61,75
138000,note_on,240,0,2,,,,,,,,,1,,61,0
138060,note_on,60,0,1,,,,,,,,,0,,76,0
138240,note_on,0,0,2,,,,,,,,,1,,59,75
138240,note_on,0,0,1,,,,,,,,,0,,74,85
138240,note_on,240,0,2,,,,,,,,,1,,61,0
138240,note_on,180,0,1,,,,,,,,,0,,76,0
138480,note_on,240,0,2,,,,,,,,,1,,50,0
138480,note_on,240,0,1,,,,,,,,,0,,66,85
138480,note_on,0,0,2,,,,,,,,,1,,50,75
138660,note_on,180,0,1,,,,,,,,,0,,66,0
138720,note_on,240,0,2,,,,,,,,,1,,50,0
138720,note_on,60,0,1,,,,,,,,,0,,66,0
138720,note_on,0,0,1,,,,,,,,,0,,68,85
138720,note_on,0,0,2,,,,,,,,,1,,52,75
138960,note_on,0,0,2,,,,,,,,,1,,59,75
138960,note_on,240,0,1,,,,,,,,,0,,74,0
138960,note_on,0,0,1,,,,,,,,,0,,74,85
138960,note_on,240,0,2,,,,,,,,,1,,59,0
139200,note_on,240,0,1,,,,,,,,,0,,74,0
139200,note_on,240,0,2,,,,,,,,,1,,59,0
139200,note_on,0,0,1,,,,,,,,,0,,68,0
139200,note_on,0,0,2,,,,,,,,,1,,54,75
139200,note_on,0,0,1,,,,,,,,,0,,69,85
139200,note_on,0,0,2,,,,,,,,,1,,52,0
139440,note_on,0,0,2,,,,,,,,,1,,59,75
139440,note_on,240,0,2,,,,,,,,,1,,54,0
139440,note_on,0,0,1,,,,,,,,,0,,74,85
139440,note_on,240,0,1,,,,,,,,,0,,69,0
139680,note_on,240,0,1,,,,,,,,,0,,74,0
139680,note_on,0,0,1,,,,,,,,,0,,73,85
139680,note_on,240,0,2,,,,,,,,,1,,59,0
139680,note_on,0,0,2,,,,,,,,,1,,57,75
139920,note_on,240,0,2,,,,,,,,,1,,57,0
139920,note_on,0,0,2,,,,,,,,,1,,56,75
139920,note_on,0,0,1,,,,,,,,,0,,71,85
139920,note_on,240,0,1,,,,,,,,,0,,73,0
140160,note_on,240,0,2,,,,,,,,,1,,56,0
140160,note_on,0,0,2,,,,,,,,,1,,57,75
140160,note_on,240,0,1,,,,,,,,,0,,71,0
140160,note_on,0,0,1,,,,,,,,,0,,73,85
140400,note_on,240,0,2,,,,,,,,,1,,57,0
140400,note_on,0,0,2,,,,,,,,,1,,49,75
140400,note_on,240,0,1,,,,,,,,,0,,73,0
140400,note_on,0,0,1,,,,,,,,,0,,69,85
140613,set_tempo,21220,1,0,,,,,,550459,,,,,,
140640,note_on,240,0,1,,,,,,,,,0,,69,0
140640,note_on,240,0,2,,,,,,,,,1,,49,0
140640,note_on,0,0,2,,,,,,,,,1,,50,75
140670,note_on,30,0,1,,,,,,,,,0,,62,85
140700,note_on,30,0,1,,,,,,,,,0,,66,85
140771,set_tempo,158,1,0,,,,,,555556,,,,,,
140880,note_on,180,0,1,,,,,,,,,0,,71,85
140921,set_tempo,150,1,0,,,,,,560748,,,,,,
141071,set_tempo,150,1,0,,,,,,566038,,,,,,
141120,note_on,240,0,1,,,,,,,,,0,,66,0
141120,note_on,0,0,1,,,,,,,,,0,,62,0
141120,note_on,0,0,2,,,,,,,,,1,,52,75
141120,note_on,480,0,2,,,,,,,,,1,,50,0
141150,note_on,30,0,1,,,,,,,,,0,,61,85
141180,note_on,30,0,1,,,,,,,,,0,,64,85
141228,set_tempo,157,1,0,,,,,,571429,,,,,,
141360,note_on,180,0,1,,,,,,,,,0,,71,0
141360,note_on,0,0,1,,,,,,,,,0,,69,85
141378,set_tempo,150,1,0,,,,,,576923,,,,,,
141528,set_tempo,150,1,0,,,,,,582524,,,,,,
141600,note_on,0,0,2,,,,,,,,,1,,40,75
141600,note_on,0,0,1,,,,,,,,,0,,61,0
141600,note_on,240,0,1,,,,,,,,,0,,64,0
141600,note_on,480,0,2,,,,,,,,,1,,52,0
141630,note_on,30,0,1,,,,,,,,,0,,59,85
141660,note_on,30,0,1,,,,,,,,,0,,62,85
141678,set_tempo,150,1,0,,,,,,588235,,,,,,
141836,set_tempo,158,1,0,,,,,,594059,,,,,,
141840,note_on,0,0,1,,,,,,,,,0,,68,85
141840,note_on,180,0,1,,,,,,,,,0,,69,0
141986,set_tempo,150,1,0,,,,,,600000,,,,,,
142066,note_on,226,0,1,,,,,,,,,0,,62,0
142080,note_on,14,0,1,,,,,,,,,0,,68,0
142080,note_on,0,0,2,,,,,,,,,1,,45,75
142080,note_on,480,0,2,,,,,,,,,1,,40,0
142080,note_on,0,0,1,,,,,,,,,0,,59,0
142080,note_on,0,0,1,,,,,,,,,0,,69,85
142136,set_tempo,150,1,0,,,,,,606061,,,,,,
142293,set_tempo,157,1,0,,,,,,612245,,,,,,
142320,note_on,240,0,1,,,,,,,,,0,,62,85
142443,set_tempo,150,1,0,,,,,,618557,,,,,,
142560,note_on,0,0,1,,,,,,,,,0,,64,85
142560,note_on,480,0,2,,,,,,,,,1,,57,75
142560,note_on,240,0,1,,,,,,,,,0,,62,0
142593,set_tempo,150,1,0,,,,,,625000,,,,,,
142743,set_tempo,150,1,0,,,,,,631579,,,,,,
142800,note_on,0,0,1,,,,,,,,,0,,61,85
142800,note_on,240,0,1,,,,,,,,,0,,64,0
142901,set_tempo,158,1,0,,,,,,638298,,,,,,
143040,note_on,480,0,2,,,,,,,,,1,,57,0
143040,note_on,0,0,2,,,,,,,,,1,,59,75
143040,note_on,240,0,1,,,,,,,,,0,,61,0
143040,note_on,0,0,1,,,,,,,,,0,,69,0
143040,note_on,0,0,1,,,,,,,,,0,,74,85
143051,set_tempo,150,1,0,,,,,,645161,,,,,,
143201,set_tempo,150,1,0,,,,,,652174,,,,,,
143280,note_on,240,0,1,,,,,,,,,0,,74,0
143280,note_on,0,0,1,,,,,,,,,0,,68,85
143351,set_tempo,150,1,0,,,,,,659341,,,,,,
143364,set_tempo,13,1,0,,,,,,666667,,,,,,
143447,set_tempo,83,1,0,,,,,,681818,,,,,,
143454,set_tempo,7,1,0,,,,,,689655,,,,,,
143462,set_tempo,8,1,0,,,,,,705882,,,,,,
143469,set_tempo,7,1,0,,,,,,722892,,,,,,
143477,set_tempo,8,1,0,,,,,,731707,,,,,,
143484,set_tempo,7,1,0,,,,,,750000,,,,,,
143492,set_tempo,8,1,0,,,,,,769231,,,,,,
143499,set_tempo,7,1,0,,,,,,779221,,,,,,
143507,set_tempo,8,1,0,,,,,,800000,,,,,,
143514,set_tempo,7,1,0,,,,,,821918,,,,,,
143520,note_on,480,0,2,,,,,,,,,1,,59,0
143520,note_on,240,0,1,,,,,,,,,0,,68,0
143520,note_on,0,0,2,,,,,,,,,1,,45,75
143520,note_on,0,0,2,,,,,,,,,1,,45,0
143522,set_tempo,8,1,0,,,,,,833333,,,,,,
143529,set_tempo,7,1,0,,,,,,857143,,,,,,
143537,set_tempo,8,1,0,,,,,,882353,,,,,,
143544,set_tempo,7,1,0,,,,,,895522,,,,,,
143550,note_on,30,0,2,,,,,,,,,1,,52,75
143552,set_tempo,8,1,0,,,,,,923077,,,,,,
143559,set_tempo,7,1,0,,,,,,952381,,,,,,
143567,set_tempo,8,1,0,,,,,,967742,,,,,,
143574,set_tempo,7,1,0,,,,,,1000000,,,,,,
143580,note_on,30,0,2,,,,,,,,,1,,57,75
143582,set_tempo,8,1,0,,,,,,1034483,,,,,,
143589,set_tempo,7,1,0,,,,,,1071429,,,,,,
143589,end_of_track,0,1,0,,,,,,,,,,,,
143610,note_on,90,0,1,,,,,,,,,0,,61,85
143640,note_on,30,0,1,,,,,,,,,0,,64,85
144199,note_on,619,0,2,,,,,,,,,1,,45,0
144210,note_on,0,0,2,,,,,,,,,1,,52,0
144210,end_of_track,0,1,2,,,,,,,,,,,,
144210,end_of_track,0,1,1,,,,,,,,,,,,
144210,note_on,570,0,1,,,,,,,,,0,,64,0
144210,note_on,11,0,2,,,,,,,,,1,,57,0
144210,note_on,0,0,1,,,,,,,,,0,,61,0
