tick,type,time,meta,track,numerator,denominator,clocks_per_click,notated_32nd_notes_per_beat,key,tempo,program,channel,control,value,note,velocity
0,track_name,0,1,0,,,,,,,,,,,,
0,control_change,0,0,1,,,,,,,,0,10,64,,
0,control_change,0,0,1,,,,,,,,0,10,64,,
0,note_on,0,0,1,,,,,,,,0,,,74,110
0,end_of_track,0,1,3,,,,,,,,,,,,
0,track_name,0,1,2,,,,,,,,,,,,
0,program_change,0,0,2,,,,,,,6,1,,,,
0,program_change,0,0,2,,,,,,,6,1,,,,
0,control_change,0,0,2,,,,,,,,1,7,127,,
0,control_change,0,0,1,,,,,,,,0,7,127,,
0,control_change,0,0,2,,,,,,,,1,7,127,,
0,control_change,0,0,2,,,,,,,,1,10,64,,
0,note_on,0,0,2,,,,,,,,1,,,62,110
0,note_on,0,0,2,,,,,,,,1,,,65,110
0,track_name,0,1,3,,,,,,,,,,,,
0,control_change,0,0,3,,,,,,,,0,7,127,,
0,control_change,0,0,3,,,,,,,,0,7,127,,
0,control_change,0,0,3,,,,,,,,0,10,64,,
0,control_change,0,0,3,,,,,,,,0,10,64,,
0,control_change,0,0,2,,,,,,,,1,10,64,,
0,control_change,0,0,1,,,,,,,,0,7,127,,
0,end_of_track,0,1,4,,,,,,,,,,,,
0,program_change,0,0,1,,,,,,,6,0,,,,
0,marker,0,1,0,,,,,,,,,,,,
0,program_change,0,0,1,,,,,,,6,0,,,,
0,set_tempo,0,1,0,,,,,,500000,,,,,,
0,key_signature,0,1,0,,,,,C,,,,,,,
0,time_signature,0,1,0,3,4,24,8,,,,,,,,
0,text,0,1,0,,,,,,,,,,,,
0,track_name,0,1,1,,,,,,,,,,,,
46,note_on,46,0,1,,,,,,,,0,,,74,0
48,note_on,2,0,1,,,,,,,,0,,,77,110
94,note_on,46,0,1,,,,,,,,0,,,77,0
96,note_on,2,0,1,,,,,,,,0,,,81,110
142,note_on,46,0,1,,,,,,,,0,,,81,0
142,note_on,0,0,2,,,,,,,,1,,,62,0
142,note_on,142,0,2,,,,,,,,1,,,65,0
144,note_on,2,0,1,,,,,,,,0,,,69,110
144,note_on,0,0,2,,,,,,,,1,,,64,110
144,note_on,2,0,2,,,,,,,,1,,,61,110
190,note_on,46,0,1,,,,,,,,0,,,69,0
192,note_on,2,0,1,,,,,,,,0,,,76,110
238,note_on,46,0,1,,,,,,,,0,,,76,0
240,note_on,2,0,1,,,,,,,,0,,,81,110
286,note_on,0,0,2,,,,,,,,1,,,61,0
286,note_on,142,0,2,,,,,,,,1,,,64,0
286,note_on,46,0,1,,,,,,,,0,,,81,0
288,note_on,2,0,2,,,,,,,,1,,,62,110
288,note_on,2,0,1,,,,,,,,0,,,77,110
334,note_on,46,0,1,,,,,,,,0,,,77,0
336,note_on,2,0,1,,,,,,,,0,,,81,110
382,note_on,46,0,1,,,,,,,,0,,,81,0
382,note_on,94,0,2,,,,,,,,1,,,62,0
384,note_on,2,0,1,,,,,,,,0,,,74,110
430,note_on,46,0,1,,,,,,,,0,,,74,0
432,note_on,50,0,2,,,,,,,,1,,,57,110
432,note_on,2,0,1,,,,,,,,0,,,73,110
432,note_on,0,0,2,,,,,,,,1,,,64,110
478,note_on,46,0,1,,,,,,,,0,,,73,0
480,note_on,2,0,1,,,,,,,,0,,,76,110
526,note_on,46,0,1,,,,,,,,0,,,76,0
528,note_on,2,0,1,,,,,,,,0,,,69,110
574,note_on,142,0,2,,,,,,,,1,,,64,0
574,note_on,46,0,1,,,,,,,,0,,,69,0
574,note_on,0,0,2,,,,,,,,1,,,57,0
576,note_on,2,0,2,,,,,,,,1,,,50,110
576,note_on,2,0,1,,,,,,,,0,,,77,110
622,note_on,46,0,2,,,,,,,,1,,,50,0
624,note_on,2,0,2,,,,,,,,1,,,53,110
670,note_on,46,0,2,,,,,,,,1,,,53,0
672,note_on,2,0,2,,,,,,,,1,,,58,110
718,note_on,142,0,1,,,,,,,,0,,,77,0
718,note_on,46,0,2,,,,,,,,1,,,58,0
720,note_on,2,0,2,,,,,,,,1,,,52,110
720,note_on,2,0,1,,,,,,,,0,,,79,110
766,note_on,46,0,2,,,,,,,,1,,,52,0
768,note_on,2,0,2,,,,,,,,1,,,55,110
814,note_on,46,0,2,,,,,,,,1,,,55,0
816,note_on,2,0,2,,,,,,,,1,,,60,110
862,note_on,46,0,2,,,,,,,,1,,,60,0
862,note_on,142,0,1,,,,,,,,0,,,79,0
864,note_on,2,0,2,,,,,,,,1,,,53,110
864,note_on,2,0,1,,,,,,,,0,,,81,110
910,note_on,46,0,2,,,,,,,,1,,,53,0
910,note_on,46,0,1,,,,,,,,0,,,81,0
912,note_on,2,0,2,,,,,,,,1,,,57,110
912,note_on,2,0,1,,,,,,,,0,,,79,110
958,note_on,46,0,1,,,,,,,,0,,,79,0
958,note_on,46,0,2,,,,,,,,1,,,57,0
960,note_on,2,0,1,,,,,,,,0,,,77,110
960,note_on,2,0,2,,,,,,,,1,,,60,110
1006,note_on,46,0,1,,,,,,,,0,,,77,0
1006,note_on,46,0,2,,,,,,,,1,,,60,0
1008,note_on,2,0,1,,,,,,,,0,,,76,110
1008,note_on,2,0,2,,,,,,,,1,,,48,110
1054,note_on,46,0,1,,,,,,,,0,,,76,0
1056,note_on,2,0,1,,,,,,,,0,,,74,110
1102,note_on,46,0,1,,,,,,,,0,,,74,0
1104,note_on,2,0,1,,,,,,,,0,,,72,110
1150,note_on,46,0,1,,,,,,,,0,,,72,0
1150,note_on,142,0,2,,,,,,,,1,,,48,0
1152,note_on,2,0,2,,,,,,,,1,,,53,110
1152,note_on,2,0,1,,,,,,,,0,,,69,110
1152,note_on,0,0,2,,,,,,,,1,,,60,110
1198,note_on,46,0,1,,,,,,,,0,,,69,0
1200,note_on,2,0,1,,,,,,,,0,,,72,110
1246,note_on,46,0,1,,,,,,,,0,,,72,0
1248,note_on,2,0,1,,,,,,,,0,,,69,110
1294,note_on,46,0,1,,,,,,,,0,,,69,0
1294,note_on,0,0,2,,,,,,,,1,,,53,0
1294,note_on,142,0,2,,,,,,,,1,,,60,0
1296,note_on,2,0,2,,,,,,,,1,,,52,110
1296,note_on,0,0,2,,,,,,,,1,,,55,110
1296,note_on,2,0,1,,,,,,,,0,,,67,110
1342,note_on,46,0,1,,,,,,,,0,,,67,0
1344,note_on,2,0,1,,,,,,,,0,,,72,110
1390,note_on,46,0,1,,,,,,,,0,,,72,0
1392,note_on,2,0,1,,,,,,,,0,,,60,110
1438,note_on,142,0,2,,,,,,,,1,,,55,0
1438,note_on,0,0,2,,,,,,,,1,,,52,0
1438,note_on,46,0,1,,,,,,,,0,,,60,0
1440,note_on,2,0,1,,,,,,,,0,,,69,110
1440,note_on,2,0,2,,,,,,,,1,,,53,110
1486,note_on,46,0,1,,,,,,,,0,,,69,0
1488,note_on,2,0,1,,,,,,,,0,,,72,110
1534,note_on,94,0,2,,,,,,,,1,,,53,0
1534,note_on,46,0,1,,,,,,,,0,,,72,0
1536,note_on,2,0,1,,,,,,,,0,,,65,110
1582,note_on,46,0,1,,,,,,,,0,,,65,0
1584,note_on,50,0,2,,,,,,,,1,,,48,110
1584,note_on,2,0,1,,,,,,,,0,,,64,110
1584,note_on,0,0,2,,,,,,,,1,,,55,110
1630,note_on,46,0,1,,,,,,,,0,,,64,0
1632,note_on,2,0,1,,,,,,,,0,,,67,110
1678,note_on,46,0,1,,,,,,,,0,,,67,0
1680,note_on,2,0,1,,,,,,,,0,,,60,110
1726,note_on,46,0,1,,,,,,,,0,,,60,0
1726,note_on,0,0,2,,,,,,,,1,,,48,0
1726,note_on,142,0,2,,,,,,,,1,,,55,0
1728,note_on,2,0,2,,,,,,,,1,,,45,110
1728,note_on,2,0,1,,,,,,,,0,,,65,110
1774,note_on,46,0,1,,,,,,,,0,,,65,0
1774,note_on,46,0,2,,,,,,,,1,,,45,0
1776,note_on,2,0,1,,,,,,,,0,,,69,110
1776,note_on,2,0,2,,,,,,,,1,,,48,110
1822,note_on,46,0,2,,,,,,,,1,,,48,0
1822,note_on,46,0,1,,,,,,,,0,,,69,0
1824,note_on,2,0,1,,,,,,,,0,,,60,110
1824,note_on,2,0,2,,,,,,,,1,,,53,110
1870,note_on,46,0,1,,,,,,,,0,,,60,0
1870,note_on,46,0,2,,,,,,,,1,,,53,0
1872,note_on,2,0,1,,,,,,,,0,,,62,110
1872,note_on,2,0,2,,,,,,,,1,,,46,110
1918,note_on,46,0,2,,,,,,,,1,,,46,0
1918,note_on,46,0,1,,,,,,,,0,,,62,0
1920,note_on,2,0,2,,,,,,,,1,,,50,110
1920,note_on,2,0,1,,,,,,,,0,,,70,110
1966,note_on,46,0,2,,,,,,,,1,,,50,0
1966,note_on,46,0,1,,,,,,,,0,,,70,0
1968,note_on,2,0,1,,,,,,,,0,,,69,110
1968,note_on,2,0,2,,,,,,,,1,,,55,110
2014,note_on,46,0,1,,,,,,,,0,,,69,0
2014,note_on,46,0,2,,,,,,,,1,,,55,0
2016,note_on,2,0,2,,,,,,,,1,,,48,110
2016,note_on,2,0,1,,,,,,,,0,,,67,110
2062,note_on,46,0,2,,,,,,,,1,,,48,0
2062,note_on,46,0,1,,,,,,,,0,,,67,0
2064,note_on,2,0,1,,,,,,,,0,,,65,110
2064,note_on,2,0,2,,,,,,,,1,,,57,110
2110,note_on,46,0,2,,,,,,,,1,,,57,0
2110,note_on,46,0,1,,,,,,,,0,,,65,0
2112,note_on,2,0,2,,,,,,,,1,,,55,110
2112,note_on,2,0,1,,,,,,,,0,,,64,110
2158,note_on,46,0,1,,,,,,,,0,,,64,0
2158,note_on,46,0,2,,,,,,,,1,,,55,0
2160,note_on,2,0,1,,,,,,,,0,,,57,110
2160,note_on,0,0,1,,,,,,,,0,,,60,110
2160,note_on,0,0,1,,,,,,,,0,,,65,110
2160,note_on,2,0,2,,,,,,,,1,,,53,110
2206,note_on,46,0,2,,,,,,,,1,,,53,0
2208,note_on,2,0,2,,,,,,,,1,,,48,110
2254,note_on,46,0,2,,,,,,,,1,,,48,0
2256,note_on,2,0,2,,,,,,,,1,,,41,110
2302,note_on,142,0,1,,,,,,,,0,,,65,0
2302,note_on,0,0,1,,,,,,,,0,,,57,0
2302,note_on,46,0,2,,,,,,,,1,,,41,0
2302,note_on,0,0,1,,,,,,,,0,,,60,0
2304,note_on,2,0,1,,,,,,,,0,,,74,110
2304,note_on,0,0,2,,,,,,,,1,,,65,110
2304,note_on,2,0,2,,,,,,,,1,,,62,110
2350,note_on,46,0,1,,,,,,,,0,,,74,0
2352,note_on,2,0,1,,,,,,,,0,,,77,110
2398,note_on,46,0,1,,,,,,,,0,,,77,0
2400,note_on,2,0,1,,,,,,,,0,,,81,110
2446,note_on,142,0,2,,,,,,,,1,,,65,0
2446,note_on,0,0,2,,,,,,,,1,,,62,0
2446,note_on,46,0,1,,,,,,,,0,,,81,0
2448,note_on,2,0,1,,,,,,,,0,,,69,110
2448,note_on,0,0,2,,,,,,,,1,,,64,110
2448,note_on,2,0,2,,,,,,,,1,,,61,110
2494,note_on,46,0,1,,,,,,,,0,,,69,0
2496,note_on,2,0,1,,,,,,,,0,,,76,110
2542,note_on,46,0,1,,,,,,,,0,,,76,0
2544,note_on,2,0,1,,,,,,,,0,,,81,110
2590,note_on,46,0,1,,,,,,,,0,,,81,0
2590,note_on,0,0,2,,,,,,,,1,,,61,0
2590,note_on,142,0,2,,,,,,,,1,,,64,0
2592,note_on,2,0,1,,,,,,,,0,,,77,110
2592,note_on,2,0,2,,,,,,,,1,,,62,110
2638,note_on,46,0,1,,,,,,,,0,,,77,0
2640,note_on,2,0,1,,,,,,,,0,,,81,110
2686,note_on,46,0,1,,,,,,,,0,,,81,0
2686,note_on,94,0,2,,,,,,,,1,,,62,0
2688,note_on,2,0,1,,,,,,,,0,,,74,110
2734,note_on,46,0,1,,,,,,,,0,,,74,0
2736,note_on,2,0,1,,,,,,,,0,,,73,110
2736,note_on,0,0,2,,,,,,,,1,,,64,110
2736,note_on,50,0,2,,,,,,,,1,,,57,110
2782,note_on,46,0,1,,,,,,,,0,,,73,0
2784,note_on,2,0,1,,,,,,,,0,,,76,110
2830,note_on,46,0,1,,,,,,,,0,,,76,0
2832,note_on,2,0,1,,,,,,,,0,,,69,110
2878,note_on,46,0,1,,,,,,,,0,,,69,0
2878,note_on,0,0,2,,,,,,,,1,,,57,0
2878,note_on,142,0,2,,,,,,,,1,,,64,0
2880,note_on,2,0,2,,,,,,,,1,,,50,110
2880,note_on,2,0,1,,,,,,,,0,,,77,110
2926,note_on,46,0,2,,,,,,,,1,,,50,0
2928,note_on,2,0,2,,,,,,,,1,,,53,110
2974,note_on,46,0,2,,,,,,,,1,,,53,0
2976,note_on,2,0,2,,,,,,,,1,,,58,110
3022,note_on,46,0,2,,,,,,,,1,,,58,0
3022,note_on,142,0,1,,,,,,,,0,,,77,0
3024,note_on,2,0,2,,,,,,,,1,,,52,110
3024,note_on,2,0,1,,,,,,,,0,,,79,110
3070,note_on,46,0,2,,,,,,,,1,,,52,0
3072,note_on,2,0,2,,,,,,,,1,,,55,110
3118,note_on,46,0,2,,,,,,,,1,,,55,0
3120,note_on,2,0,2,,,,,,,,1,,,60,110
3166,note_on,46,0,2,,,,,,,,1,,,60,0
3166,note_on,142,0,1,,,,,,,,0,,,79,0
3168,note_on,2,0,2,,,,,,,,1,,,53,110
3168,note_on,2,0,1,,,,,,,,0,,,81,110
3214,note_on,46,0,2,,,,,,,,1,,,53,0
3214,note_on,46,0,1,,,,,,,,0,,,81,0
3216,note_on,2,0,1,,,,,,,,0,,,79,110
3216,note_on,2,0,2,,,,,,,,1,,,57,110
3262,note_on,46,0,1,,,,,,,,0,,,79,0
3262,note_on,46,0,2,,,,,,,,1,,,57,0
3264,note_on,2,0,2,,,,,,,,1,,,60,110
3264,note_on,2,0,1,,,,,,,,0,,,77,110
3310,note_on,46,0,1,,,,,,,,0,,,77,0
3310,note_on,46,0,2,,,,,,,,1,,,60,0
3312,note_on,2,0,2,,,,,,,,1,,,48,110
3312,note_on,2,0,1,,,,,,,,0,,,76,110
3358,note_on,46,0,1,,,,,,,,0,,,76,0
3360,note_on,2,0,1,,,,,,,,0,,,74,110
3406,note_on,46,0,1,,,,,,,,0,,,74,0
3408,note_on,2,0,1,,,,,,,,0,,,72,110
3454,note_on,142,0,2,,,,,,,,1,,,48,0
3454,note_on,46,0,1,,,,,,,,0,,,72,0
3456,note_on,2,0,2,,,,,,,,1,,,53,110
3456,note_on,0,0,2,,,,,,,,1,,,60,110
3456,note_on,2,0,1,,,,,,,,0,,,69,110
3502,note_on,46,0,1,,,,,,,,0,,,69,0
3504,note_on,2,0,1,,,,,,,,0,,,72,110
3550,note_on,46,0,1,,,,,,,,0,,,72,0
3552,note_on,2,0,1,,,,,,,,0,,,69,110
3598,note_on,142,0,2,,,,,,,,1,,,60,0
3598,note_on,0,0,2,,,,,,,,1,,,53,0
3598,note_on,46,0,1,,,,,,,,0,,,69,0
3600,note_on,2,0,2,,,,,,,,1,,,52,110
3600,note_on,2,0,1,,,,,,,,0,,,67,110
3600,note_on,0,0,2,,,,,,,,1,,,55,110
3646,note_on,46,0,1,,,,,,,,0,,,67,0
3648,note_on,2,0,1,,,,,,,,0,,,72,110
3694,note_on,46,0,1,,,,,,,,0,,,72,0
3696,note_on,2,0,1,,,,,,,,0,,,60,110
3742,note_on,46,0,1,,,,,,,,0,,,60,0
3742,note_on,142,0,2,,,,,,,,1,,,55,0
3742,note_on,0,0,2,,,,,,,,1,,,52,0
3744,note_on,2,0,1,,,,,,,,0,,,69,110
3744,note_on,2,0,2,,,,,,,,1,,,53,110
3790,note_on,46,0,1,,,,,,,,0,,,69,0
3792,note_on,2,0,1,,,,,,,,0,,,72,110
3838,note_on,94,0,2,,,,,,,,1,,,53,0
3838,note_on,46,0,1,,,,,,,,0,,,72,0
3840,note_on,2,0,1,,,,,,,,0,,,65,110
3886,note_on,46,0,1,,,,,,,,0,,,65,0
3888,note_on,0,0,2,,,,,,,,1,,,55,110
3888,note_on,2,0,1,,,,,,,,0,,,64,110
3888,note_on,50,0,2,,,,,,,,1,,,48,110
3934,note_on,46,0,1,,,,,,,,0,,,64,0
3936,note_on,2,0,1,,,,,,,,0,,,67,110
3982,note_on,46,0,1,,,,,,,,0,,,67,0
3984,note_on,2,0,1,,,,,,,,0,,,60,110
4030,note_on,142,0,2,,,,,,,,1,,,55,0
4030,note_on,46,0,1,,,,,,,,0,,,60,0
4030,note_on,0,0,2,,,,,,,,1,,,48,0
4032,note_on,2,0,1,,,,,,,,0,,,65,110
4032,note_on,2,0,2,,,,,,,,1,,,45,110
4078,note_on,46,0,2,,,,,,,,1,,,45,0
4078,note_on,46,0,1,,,,,,,,0,,,65,0
4080,note_on,2,0,1,,,,,,,,0,,,69,110
4080,note_on,2,0,2,,,,,,,,1,,,48,110
4126,note_on,46,0,1,,,,,,,,0,,,69,0
4126,note_on,46,0,2,,,,,,,,1,,,48,0
4128,note_on,2,0,1,,,,,,,,0,,,60,110
4128,note_on,2,0,2,,,,,,,,1,,,53,110
4174,note_on,46,0,2,,,,,,,,1,,,53,0
4174,note_on,46,0,1,,,,,,,,0,,,60,0
4176,note_on,2,0,1,,,,,,,,0,,,62,110
4176,note_on,2,0,2,,,,,,,,1,,,46,110
4222,note_on,46,0,1,,,,,,,,0,,,62,0
4222,note_on,46,0,2,,,,,,,,1,,,46,0
4224,note_on,2,0,1,,,,,,,,0,,,70,110
4224,note_on,2,0,2,,,,,,,,1,,,50,110
4270,note_on,46,0,2,,,,,,,,1,,,50,0
4270,note_on,46,0,1,,,,,,,,0,,,70,0
4272,note_on,2,0,2,,,,,,,,1,,,55,110
4272,note_on,2,0,1,,,,,,,,0,,,69,110
4318,note_on,46,0,2,,,,,,,,1,,,55,0
4318,note_on,46,0,1,,,,,,,,0,,,69,0
4320,note_on,2,0,2,,,,,,,,1,,,48,110
4320,note_on,2,0,1,,,,,,,,0,,,67,110
4366,note_on,46,0,2,,,,,,,,1,,,48,0
4366,note_on,46,0,1,,,,,,,,0,,,67,0
4368,note_on,2,0,1,,,,,,,,0,,,65,110
4368,note_on,2,0,2,,,,,,,,1,,,57,110
4414,note_on,46,0,1,,,,,,,,0,,,65,0
4414,note_on,46,0,2,,,,,,,,1,,,57,0
4416,note_on,2,0,1,,,,,,,,0,,,64,110
4416,note_on,2,0,2,,,,,,,,1,,,55,110
4462,note_on,46,0,1,,,,,,,,0,,,64,0
4462,note_on,46,0,2,,,,,,,,1,,,55,0
4464,note_on,2,0,2,,,,,,,,1,,,53,110
4464,note_on,2,0,1,,,,,,,,0,,,57,110
4464,note_on,0,0,1,,,,,,,,0,,,60,110
4464,note_on,0,0,1,,,,,,,,0,,,65,110
4510,note_on,46,0,2,,,,,,,,1,,,53,0
4512,note_on,2,0,2,,,,,,,,1,,,48,110
4558,note_on,46,0,2,,,,,,,,1,,,48,0
4560,note_on,2,0,2,,,,,,,,1,,,41,110
4606,note_on,142,0,1,,,,,,,,0,,,65,0
4606,note_on,46,0,2,,,,,,,,1,,,41,0
4606,note_on,0,0,1,,,,,,,,0,,,57,0
4606,note_on,0,0,1,,,,,,,,0,,,60,0
4608,set_tempo,4608,1,0,,,,,,250000,,,,,,
4608,note_on,2,0,1,,,,,,,,0,,,65,110
4608,note_on,2,0,2,,,,,,,,1,,,53,110
4608,note_on,0,0,2,,,,,,,,1,,,57,110
4702,note_on,94,0,1,,,,,,,,0,,,65,0
4704,note_on,2,0,1,,,,,,,,0,,,69,110
4768,note_on,160,0,2,,,,,,,,1,,,57,0
4768,note_on,0,0,2,,,,,,,,1,,,53,0
4798,note_on,94,0,1,,,,,,,,0,,,69,0
4800,note_on,2,0,1,,,,,,,,0,,,72,110
4894,note_on,94,0,1,,,,,,,,0,,,72,0
4896,note_on,0,0,2,,,,,,,,1,,,55,110
4896,note_on,128,0,2,,,,,,,,1,,,52,110
4896,note_on,2,0,1,,,,,,,,0,,,60,110
4990,note_on,94,0,1,,,,,,,,0,,,60,0
4992,note_on,2,0,1,,,,,,,,0,,,67,110
5086,note_on,94,0,1,,,,,,,,0,,,67,0
5088,note_on,2,0,1,,,,,,,,0,,,72,110
5152,note_on,0,0,2,,,,,,,,1,,,52,0
5152,note_on,256,0,2,,,,,,,,1,,,55,0
5182,note_on,94,0,1,,,,,,,,0,,,72,0
5184,note_on,32,0,2,,,,,,,,1,,,50,110
5184,note_on,2,0,1,,,,,,,,0,,,71,110
5278,note_on,94,0,2,,,,,,,,1,,,50,0
5278,note_on,94,0,1,,,,,,,,0,,,71,0
5280,note_on,2,0,2,,,,,,,,1,,,53,110
5280,note_on,2,0,1,,,,,,,,0,,,74,110
5374,note_on,94,0,1,,,,,,,,0,,,74,0
5374,note_on,94,0,2,,,,,,,,1,,,53,0
5376,note_on,2,0,2,,,,,,,,1,,,59,110
5376,note_on,2,0,1,,,,,,,,0,,,77,110
5470,note_on,94,0,2,,,,,,,,1,,,59,0
5470,note_on,94,0,1,,,,,,,,0,,,77,0
5472,note_on,2,0,2,,,,,,,,1,,,60,110
5472,note_on,2,0,1,,,,,,,,0,,,76,110
5566,note_on,94,0,2,,,,,,,,1,,,60,0
5568,note_on,2,0,2,,,,,,,,1,,,55,110
5614,note_on,142,0,1,,,,,,,,0,,,76,0
5616,note_on,2,0,1,,,,,,,,0,,,74,110
5662,note_on,94,0,2,,,,,,,,1,,,55,0
5662,note_on,46,0,1,,,,,,,,0,,,74,0
5664,note_on,2,0,2,,,,,,,,1,,,48,110
5664,note_on,2,0,1,,,,,,,,0,,,72,110
5758,note_on,94,0,2,,,,,,,,1,,,48,0
5758,note_on,94,0,1,,,,,,,,0,,,72,0
5760,note_on,2,0,2,,,,,,,,1,,,57,110
5760,note_on,0,0,1,,,,,,,,0,,,76,110
5760,note_on,2,0,1,,,,,,,,0,,,72,110
5854,note_on,94,0,2,,,,,,,,1,,,57,0
5856,note_on,2,0,2,,,,,,,,1,,,60,110
5920,note_on,160,0,1,,,,,,,,0,,,76,0
5920,note_on,0,0,1,,,,,,,,0,,,72,0
5950,note_on,94,0,2,,,,,,,,1,,,60,0
5952,note_on,2,0,2,,,,,,,,1,,,64,110
6046,note_on,94,0,2,,,,,,,,1,,,64,0
6048,note_on,128,0,1,,,,,,,,0,,,71,110
6048,note_on,0,0,1,,,,,,,,0,,,76,110
6048,note_on,2,0,2,,,,,,,,1,,,56,110
6142,note_on,94,0,2,,,,,,,,1,,,56,0
6144,note_on,2,0,2,,,,,,,,1,,,59,110
6238,note_on,94,0,2,,,,,,,,1,,,59,0
6240,note_on,2,0,2,,,,,,,,1,,,64,110
6304,note_on,256,0,1,,,,,,,,0,,,76,0
6304,note_on,0,0,1,,,,,,,,0,,,71,0
6334,note_on,94,0,2,,,,,,,,1,,,64,0
6336,note_on,2,0,2,,,,,,,,1,,,57,110
6336,note_on,32,0,1,,,,,,,,0,,,72,110
6430,note_on,94,0,2,,,,,,,,1,,,57,0
6430,note_on,94,0,1,,,,,,,,0,,,72,0
6432,note_on,2,0,1,,,,,,,,0,,,76,110
6432,note_on,2,0,2,,,,,,,,1,,,60,110
6526,note_on,94,0,1,,,,,,,,0,,,76,0
6526,note_on,94,0,2,,,,,,,,1,,,60,0
6528,note_on,2,0,2,,,,,,,,1,,,64,110
6528,note_on,2,0,1,,,,,,,,0,,,69,110
6622,note_on,94,0,1,,,,,,,,0,,,69,0
6622,note_on,94,0,2,,,,,,,,1,,,64,0
6624,note_on,2,0,1,,,,,,,,0,,,68,110
6624,note_on,2,0,2,,,,,,,,1,,,52,110
6718,note_on,94,0,1,,,,,,,,0,,,68,0
6718,note_on,94,0,2,,,,,,,,1,,,52,0
6720,note_on,2,0,1,,,,,,,,0,,,71,110
6720,note_on,2,0,2,,,,,,,,1,,,56,110
6814,note_on,94,0,1,,,,,,,,0,,,71,0
6814,note_on,94,0,2,,,,,,,,1,,,56,0
6816,note_on,2,0,1,,,,,,,,0,,,64,110
6816,note_on,2,0,2,,,,,,,,1,,,59,110
6910,note_on,94,0,1,,,,,,,,0,,,64,0
6910,note_on,94,0,2,,,,,,,,1,,,59,0
6912,note_on,2,0,1,,,,,,,,0,,,76,110
6912,note_on,2,0,2,,,,,,,,1,,,48,110
7006,note_on,94,0,2,,,,,,,,1,,,48,0
7006,note_on,94,0,1,,,,,,,,0,,,76,0
7008,note_on,2,0,1,,,,,,,,0,,,74,110
7008,note_on,2,0,2,,,,,,,,1,,,52,110
7102,note_on,94,0,1,,,,,,,,0,,,74,0
7102,note_on,94,0,2,,,,,,,,1,,,52,0
7104,note_on,2,0,1,,,,,,,,0,,,72,110
7104,note_on,2,0,2,,,,,,,,1,,,57,110
7198,note_on,94,0,1,,,,,,,,0,,,72,0
7198,note_on,94,0,2,,,,,,,,1,,,57,0
7200,note_on,2,0,2,,,,,,,,1,,,50,110
7200,note_on,2,0,1,,,,,,,,0,,,77,110
7294,note_on,94,0,1,,,,,,,,0,,,77,0
7294,note_on,94,0,2,,,,,,,,1,,,50,0
7296,note_on,2,0,1,,,,,,,,0,,,76,110
7296,note_on,2,0,2,,,,,,,,1,,,53,110
7390,note_on,94,0,1,,,,,,,,0,,,76,0
7390,note_on,94,0,2,,,,,,,,1,,,53,0
7392,note_on,2,0,1,,,,,,,,0,,,74,110
7392,note_on,2,0,2,,,,,,,,1,,,59,110
7486,note_on,94,0,1,,,,,,,,0,,,74,0
7486,note_on,94,0,2,,,,,,,,1,,,59,0
7488,note_on,2,0,2,,,,,,,,1,,,52,110
7488,note_on,2,0,1,,,,,,,,0,,,72,110
7582,note_on,94,0,2,,,,,,,,1,,,52,0
7584,note_on,2,0,2,,,,,,,,1,,,50,110
7630,note_on,142,0,1,,,,,,,,0,,,72,0
7632,note_on,2,0,1,,,,,,,,0,,,71,110
7678,note_on,94,0,2,,,,,,,,1,,,50,0
7678,note_on,46,0,1,,,,,,,,0,,,71,0
7680,note_on,2,0,1,,,,,,,,0,,,69,110
7680,note_on,2,0,2,,,,,,,,1,,,52,110
7774,note_on,94,0,2,,,,,,,,1,,,52,0
7774,note_on,94,0,1,,,,,,,,0,,,69,0
7776,note_on,2,0,2,,,,,,,,1,,,45,110
7776,note_on,2,0,1,,,,,,,,0,,,60,110
7776,note_on,0,0,1,,,,,,,,0,,,64,110
7776,note_on,0,0,1,,,,,,,,0,,,69,110
7870,note_on,94,0,2,,,,,,,,1,,,45,0
7872,note_on,2,0,2,,,,,,,,1,,,48,110
7966,note_on,94,0,2,,,,,,,,1,,,48,0
7968,note_on,2,0,2,,,,,,,,1,,,52,110
8032,note_on,0,0,1,,,,,,,,0,,,64,0
8032,note_on,0,0,1,,,,,,,,0,,,60,0
8032,note_on,256,0,1,,,,,,,,0,,,69,0
8062,note_on,94,0,2,,,,,,,,1,,,52,0
8064,note_on,2,0,2,,,,,,,,1,,,57,110
8064,set_tempo,3456,1,0,,,,,,500000,,,,,,
8064,note_on,32,0,1,,,,,,,,0,,,72,110
8064,note_on,0,0,1,,,,,,,,0,,,81,110
8110,note_on,0,0,1,,,,,,,,0,,,72,0
8110,note_on,46,0,1,,,,,,,,0,,,81,0
8112,note_on,2,0,1,,,,,,,,0,,,76,110
8158,note_on,94,0,2,,,,,,,,1,,,57,0
8158,note_on,46,0,1,,,,,,,,0,,,76,0
8160,note_on,2,0,1,,,,,,,,0,,,79,110
8160,note_on,2,0,2,,,,,,,,1,,,58,110
8206,note_on,46,0,1,,,,,,,,0,,,79,0
8206,note_on,46,0,2,,,,,,,,1,,,58,0
8208,note_on,2,0,1,,,,,,,,0,,,78,110
8208,note_on,2,0,2,,,,,,,,1,,,60,110
8254,note_on,46,0,2,,,,,,,,1,,,60,0
8254,note_on,46,0,1,,,,,,,,0,,,78,0
8256,note_on,2,0,1,,,,,,,,0,,,81,110
8302,note_on,46,0,1,,,,,,,,0,,,81,0
8304,note_on,2,0,1,,,,,,,,0,,,74,110
8350,note_on,46,0,1,,,,,,,,0,,,74,0
8352,note_on,98,0,2,,,,,,,,1,,,58,110
8352,note_on,0,0,2,,,,,,,,1,,,62,110
8352,note_on,2,0,1,,,,,,,,0,,,80,110
8398,note_on,46,0,1,,,,,,,,0,,,80,0
8400,note_on,2,0,1,,,,,,,,0,,,74,110
8446,note_on,0,0,2,,,,,,,,1,,,58,0
8446,note_on,94,0,2,,,,,,,,1,,,62,0
8446,note_on,46,0,1,,,,,,,,0,,,74,0
8448,note_on,2,0,2,,,,,,,,1,,,54,110
8448,note_on,2,0,1,,,,,,,,0,,,81,110
8494,note_on,46,0,1,,,,,,,,0,,,81,0
8494,note_on,46,0,2,,,,,,,,1,,,54,0
8496,note_on,2,0,1,,,,,,,,0,,,82,110
8496,note_on,2,0,2,,,,,,,,1,,,55,110
8542,note_on,46,0,2,,,,,,,,1,,,55,0
8544,note_on,2,0,2,,,,,,,,1,,,58,110
8590,note_on,46,0,2,,,,,,,,1,,,58,0
8592,note_on,2,0,2,,,,,,,,1,,,62,110
8638,note_on,142,0,1,,,,,,,,0,,,82,0
8638,note_on,46,0,2,,,,,,,,1,,,62,0
8640,note_on,2,0,1,,,,,,,,0,,,67,110
8640,note_on,0,0,1,,,,,,,,0,,,79,110
8640,note_on,2,0,2,,,,,,,,1,,,46,110
8686,note_on,0,0,1,,,,,,,,0,,,67,0
8686,note_on,46,0,1,,,,,,,,0,,,79,0
8688,note_on,2,0,1,,,,,,,,0,,,74,110
8734,note_on,46,0,1,,,,,,,,0,,,74,0
8736,note_on,2,0,1,,,,,,,,0,,,77,110
8782,note_on,46,0,1,,,,,,,,0,,,77,0
8782,note_on,142,0,2,,,,,,,,1,,,46,0
8784,note_on,2,0,1,,,,,,,,0,,,76,110
8784,note_on,2,0,2,,,,,,,,1,,,48,110
8830,note_on,46,0,1,,,,,,,,0,,,76,0
8830,note_on,46,0,2,,,,,,,,1,,,48,0
8832,note_on,2,0,1,,,,,,,,0,,,79,110
8832,note_on,2,0,2,,,,,,,,1,,,60,110
8878,note_on,46,0,1,,,,,,,,0,,,79,0
8878,note_on,46,0,2,,,,,,,,1,,,60,0
8880,note_on,2,0,1,,,,,,,,0,,,72,110
8880,note_on,2,0,2,,,,,,,,1,,,58,110
8926,note_on,46,0,1,,,,,,,,0,,,72,0
8926,note_on,46,0,2,,,,,,,,1,,,58,0
8928,note_on,2,0,2,,,,,,,,1,,,57,110
8928,note_on,2,0,1,,,,,,,,0,,,77,110
8974,note_on,46,0,1,,,,,,,,0,,,77,0
8974,note_on,46,0,2,,,,,,,,1,,,57,0
8976,note_on,2,0,2,,,,,,,,1,,,60,110
8976,note_on,2,0,1,,,,,,,,0,,,72,110
9022,note_on,46,0,1,,,,,,,,0,,,72,0
9022,note_on,46,0,2,,,,,,,,1,,,60,0
9024,note_on,2,0,2,,,,,,,,1,,,55,110
9024,note_on,2,0,1,,,,,,,,0,,,79,110
9070,note_on,46,0,1,,,,,,,,0,,,79,0
9070,note_on,46,0,2,,,,,,,,1,,,55,0
9072,note_on,2,0,2,,,,,,,,1,,,53,110
9072,note_on,2,0,1,,,,,,,,0,,,81,110
9118,note_on,46,0,2,,,,,,,,1,,,53,0
9120,note_on,2,0,2,,,,,,,,1,,,57,110
9166,note_on,46,0,2,,,,,,,,1,,,57,0
9168,note_on,2,0,2,,,,,,,,1,,,60,110
9214,note_on,142,0,1,,,,,,,,0,,,81,0
9214,note_on,46,0,2,,,,,,,,1,,,60,0
9216,note_on,0,0,2,,,,,,,,1,,,62,110
9216,note_on,2,0,1,,,,,,,,0,,,74,110
9216,note_on,2,0,2,,,,,,,,1,,,58,110
9262,note_on,46,0,1,,,,,,,,0,,,74,0
9264,note_on,2,0,1,,,,,,,,0,,,77,110
9310,note_on,46,0,1,,,,,,,,0,,,77,0
9312,note_on,2,0,1,,,,,,,,0,,,81,110
9358,note_on,46,0,1,,,,,,,,0,,,81,0
9358,note_on,142,0,2,,,,,,,,1,,,62,0
9358,note_on,0,0,2,,,,,,,,1,,,58,0
9360,note_on,2,0,1,,,,,,,,0,,,69,110
9360,note_on,2,0,2,,,,,,,,1,,,57,110
9360,note_on,0,0,2,,,,,,,,1,,,61,110
9406,note_on,46,0,1,,,,,,,,0,,,69,0
9408,note_on,2,0,1,,,,,,,,0,,,76,110
9454,note_on,46,0,1,,,,,,,,0,,,76,0
9456,note_on,2,0,1,,,,,,,,0,,,81,110
9502,note_on,0,0,2,,,,,,,,1,,,57,0
9502,note_on,142,0,2,,,,,,,,1,,,61,0
9502,note_on,46,0,1,,,,,,,,0,,,81,0
9504,note_on,2,0,1,,,,,,,,0,,,77,110
9504,note_on,2,0,2,,,,,,,,1,,,50,110
9550,note_on,46,0,1,,,,,,,,0,,,77,0
9550,note_on,46,0,2,,,,,,,,1,,,50,0
9552,note_on,2,0,2,,,,,,,,1,,,53,110
9552,note_on,2,0,1,,,,,,,,0,,,81,110
9598,note_on,46,0,1,,,,,,,,0,,,81,0
9598,note_on,46,0,2,,,,,,,,1,,,53,0
9600,note_on,2,0,1,,,,,,,,0,,,74,110
9600,note_on,2,0,2,,,,,,,,1,,,57,110
9646,note_on,46,0,1,,,,,,,,0,,,74,0
9646,note_on,46,0,2,,,,,,,,1,,,57,0
9648,note_on,2,0,2,,,,,,,,1,,,45,110
9648,note_on,2,0,1,,,,,,,,0,,,73,110
9694,note_on,46,0,2,,,,,,,,1,,,45,0
9694,note_on,46,0,1,,,,,,,,0,,,73,0
9696,note_on,2,0,2,,,,,,,,1,,,57,110
9696,note_on,2,0,1,,,,,,,,0,,,76,110
9742,note_on,46,0,2,,,,,,,,1,,,57,0
9742,note_on,46,0,1,,,,,,,,0,,,76,0
9744,note_on,2,0,2,,,,,,,,1,,,55,110
9744,note_on,2,0,1,,,,,,,,0,,,69,110
9790,note_on,46,0,1,,,,,,,,0,,,69,0
9790,note_on,46,0,2,,,,,,,,1,,,55,0
9792,note_on,2,0,1,,,,,,,,0,,,74,110
9792,note_on,2,0,2,,,,,,,,1,,,53,110
9792,note_on,0,0,2,,,,,,,,1,,,57,110
9838,note_on,46,0,1,,,,,,,,0,,,74,0
9840,note_on,2,0,1,,,,,,,,0,,,69,110
9886,note_on,46,0,1,,,,,,,,0,,,69,0
9888,note_on,2,0,1,,,,,,,,0,,,72,110
9934,note_on,46,0,1,,,,,,,,0,,,72,0
9934,note_on,0,0,2,,,,,,,,1,,,53,0
9934,note_on,142,0,2,,,,,,,,1,,,57,0
9936,note_on,2,0,1,,,,,,,,0,,,70,110
9936,note_on,2,0,2,,,,,,,,1,,,55,110
9982,note_on,46,0,1,,,,,,,,0,,,70,0
9984,note_on,2,0,1,,,,,,,,0,,,62,110
10030,note_on,46,0,1,,,,,,,,0,,,62,0
10032,note_on,2,0,1,,,,,,,,0,,,67,110
10078,note_on,142,0,2,,,,,,,,1,,,55,0
10078,note_on,46,0,1,,,,,,,,0,,,67,0
10080,note_on,2,0,2,,,,,,,,1,,,45,110
10080,note_on,2,0,1,,,,,,,,0,,,65,110
10126,note_on,46,0,1,,,,,,,,0,,,65,0
10128,note_on,2,0,1,,,,,,,,0,,,57,110
10174,note_on,46,0,1,,,,,,,,0,,,57,0
10174,note_on,94,0,2,,,,,,,,1,,,45,0
10176,note_on,0,0,1,,,,,,,,0,,,61,110
10176,note_on,2,0,1,,,,,,,,0,,,55,110
10176,note_on,2,0,2,,,,,,,,1,,,52,110
10222,note_on,0,0,1,,,,,,,,0,,,55,0
10222,note_on,46,0,1,,,,,,,,0,,,61,0
10222,note_on,46,0,2,,,,,,,,1,,,52,0
10224,note_on,2,0,2,,,,,,,,1,,,50,110
10224,note_on,0,0,2,,,,,,,,1,,,53,110
10224,note_on,2,0,1,,,,,,,,0,,,62,110
10270,note_on,46,0,2,,,,,,,,1,,,53,0
10270,note_on,0,0,2,,,,,,,,1,,,50,0
10272,note_on,2,0,2,,,,,,,,1,,,45,110
10318,note_on,46,0,2,,,,,,,,1,,,45,0
10320,note_on,2,0,2,,,,,,,,1,,,38,110
10366,note_on,142,0,1,,,,,,,,0,,,62,0
10366,note_on,46,0,2,,,,,,,,1,,,38,0
10368,note_on,0,0,2,,,,,,,,1,,,57,110
10368,note_on,2,0,1,,,,,,,,0,,,65,110
10368,set_tempo,2304,1,0,,,,,,250000,,,,,,
10368,note_on,2,0,2,,,,,,,,1,,,53,110
10462,note_on,94,0,1,,,,,,,,0,,,65,0
10464,note_on,2,0,1,,,,,,,,0,,,69,110
10528,note_on,160,0,2,,,,,,,,1,,,57,0
10528,note_on,0,0,2,,,,,,,,1,,,53,0
10558,note_on,94,0,1,,,,,,,,0,,,69,0
10560,note_on,2,0,1,,,,,,,,0,,,72,110
10654,note_on,94,0,1,,,,,,,,0,,,72,0
10656,note_on,128,0,2,,,,,,,,1,,,52,110
10656,note_on,0,0,2,,,,,,,,1,,,55,110
10656,note_on,2,0,1,,,,,,,,0,,,60,110
10750,note_on,94,0,1,,,,,,,,0,,,60,0
10752,note_on,2,0,1,,,,,,,,0,,,67,110
10846,note_on,94,0,1,,,,,,,,0,,,67,0
10848,note_on,2,0,1,,,,,,,,0,,,72,110
10912,note_on,256,0,2,,,,,,,,1,,,55,0
10912,note_on,0,0,2,,,,,,,,1,,,52,0
10942,note_on,94,0,1,,,,,,,,0,,,72,0
10944,note_on,32,0,2,,,,,,,,1,,,50,110
10944,note_on,2,0,1,,,,,,,,0,,,71,110
11038,note_on,94,0,1,,,,,,,,0,,,71,0
11038,note_on,94,0,2,,,,,,,,1,,,50,0
11040,note_on,2,0,2,,,,,,,,1,,,53,110
11040,note_on,2,0,1,,,,,,,,0,,,74,110
11134,note_on,94,0,2,,,,,,,,1,,,53,0
11134,note_on,94,0,1,,,,,,,,0,,,74,0
11136,note_on,2,0,2,,,,,,,,1,,,59,110
11136,note_on,2,0,1,,,,,,,,0,,,77,110
11230,note_on,94,0,2,,,,,,,,1,,,59,0
11230,note_on,94,0,1,,,,,,,,0,,,77,0
11232,note_on,2,0,2,,,,,,,,1,,,60,110
11232,note_on,2,0,1,,,,,,,,0,,,76,110
11326,note_on,94,0,2,,,,,,,,1,,,60,0
11328,note_on,2,0,2,,,,,,,,1,,,55,110
11374,note_on,142,0,1,,,,,,,,0,,,76,0
11376,note_on,2,0,1,,,,,,,,0,,,74,110
11422,note_on,46,0,1,,,,,,,,0,,,74,0
11422,note_on,94,0,2,,,,,,,,1,,,55,0
11424,note_on,2,0,2,,,,,,,,1,,,48,110
11424,note_on,2,0,1,,,,,,,,0,,,72,110
11518,note_on,94,0,2,,,,,,,,1,,,48,0
11518,note_on,94,0,1,,,,,,,,0,,,72,0
11520,note_on,0,0,1,,,,,,,,0,,,76,110
11520,note_on,2,0,1,,,,,,,,0,,,72,110
11520,note_on,2,0,2,,,,,,,,1,,,57,110
11614,note_on,94,0,2,,,,,,,,1,,,57,0
11616,note_on,2,0,2,,,,,,,,1,,,60,110
11680,note_on,160,0,1,,,,,,,,0,,,76,0
11680,note_on,0,0,1,,,,,,,,0,,,72,0
11710,note_on,94,0,2,,,,,,,,1,,,60,0
11712,note_on,2,0,2,,,,,,,,1,,,64,110
11806,note_on,94,0,2,,,,,,,,1,,,64,0
11808,note_on,128,0,1,,,,,,,,0,,,71,110
11808,note_on,2,0,2,,,,,,,,1,,,56,110
11808,note_on,0,0,1,,,,,,,,0,,,76,110
11902,note_on,94,0,2,,,,,,,,1,,,56,0
11904,note_on,2,0,2,,,,,,,,1,,,59,110
11998,note_on,94,0,2,,,,,,,,1,,,59,0
12000,note_on,2,0,2,,,,,,,,1,,,64,110
12064,note_on,256,0,1,,,,,,,,0,,,76,0
12064,note_on,0,0,1,,,,,,,,0,,,71,0
12094,note_on,94,0,2,,,,,,,,1,,,64,0
12096,note_on,32,0,1,,,,,,,,0,,,72,110
12096,note_on,2,0,2,,,,,,,,1,,,57,110
12190,note_on,94,0,1,,,,,,,,0,,,72,0
12190,note_on,94,0,2,,,,,,,,1,,,57,0
12192,note_on,2,0,1,,,,,,,,0,,,76,110
12192,note_on,2,0,2,,,,,,,,1,,,60,110
12286,note_on,94,0,1,,,,,,,,0,,,76,0
12286,note_on,94,0,2,,,,,,,,1,,,60,0
12288,note_on,2,0,2,,,,,,,,1,,,64,110
12288,note_on,2,0,1,,,,,,,,0,,,69,110
12382,note_on,94,0,1,,,,,,,,0,,,69,0
12382,note_on,94,0,2,,,,,,,,1,,,64,0
12384,note_on,2,0,1,,,,,,,,0,,,68,110
12384,note_on,2,0,2,,,,,,,,1,,,52,110
12478,note_on,94,0,2,,,,,,,,1,,,52,0
12478,note_on,94,0,1,,,,,,,,0,,,68,0
12480,note_on,2,0,2,,,,,,,,1,,,56,110
12480,note_on,2,0,1,,,,,,,,0,,,71,110
12574,note_on,94,0,1,,,,,,,,0,,,71,0
12574,note_on,94,0,2,,,,,,,,1,,,56,0
12576,note_on,2,0,1,,,,,,,,0,,,64,110
12576,note_on,2,0,2,,,,,,,,1,,,59,110
12670,note_on,94,0,1,,,,,,,,0,,,64,0
12670,note_on,94,0,2,,,,,,,,1,,,59,0
12672,note_on,2,0,1,,,,,,,,0,,,76,110
12672,note_on,2,0,2,,,,,,,,1,,,48,110
12766,note_on,94,0,2,,,,,,,,1,,,48,0
12766,note_on,94,0,1,,,,,,,,0,,,76,0
12768,note_on,2,0,1,,,,,,,,0,,,74,110
12768,note_on,2,0,2,,,,,,,,1,,,52,110
12862,note_on,94,0,1,,,,,,,,0,,,74,0
12862,note_on,94,0,2,,,,,,,,1,,,52,0
12864,note_on,2,0,1,,,,,,,,0,,,72,110
12864,note_on,2,0,2,,,,,,,,1,,,57,110
12958,note_on,94,0,1,,,,,,,,0,,,72,0
12958,note_on,94,0,2,,,,,,,,1,,,57,0
12960,note_on,2,0,2,,,,,,,,1,,,50,110
12960,note_on,2,0,1,,,,,,,,0,,,77,110
13054,note_on,94,0,2,,,,,,,,1,,,50,0
13054,note_on,94,0,1,,,,,,,,0,,,77,0
13056,note_on,2,0,1,,,,,,,,0,,,76,110
13056,note_on,2,0,2,,,,,,,,1,,,53,110
13150,note_on,94,0,2,,,,,,,,1,,,53,0
13150,note_on,94,0,1,,,,,,,,0,,,76,0
13152,note_on,2,0,2,,,,,,,,1,,,59,110
13152,note_on,2,0,1,,,,,,,,0,,,74,110
13246,note_on,94,0,2,,,,,,,,1,,,59,0
13246,note_on,94,0,1,,,,,,,,0,,,74,0
13248,set_tempo,2880,1,0,,,,,,250000,,,,,,
13248,note_on,2,0,2,,,,,,,,1,,,52,110
13248,note_on,2,0,1,,,,,,,,0,,,72,110
13342,note_on,94,0,2,,,,,,,,1,,,52,0
13344,note_on,2,0,2,,,,,,,,1,,,50,110
13390,note_on,142,0,1,,,,,,,,0,,,72,0
13392,note_on,2,0,1,,,,,,,,0,,,71,110
13438,note_on,46,0,1,,,,,,,,0,,,71,0
13438,note_on,94,0,2,,,,,,,,1,,,50,0
13440,note_on,2,0,1,,,,,,,,0,,,69,110
13440,note_on,2,0,2,,,,,,,,1,,,52,110
13534,note_on,94,0,1,,,,,,,,0,,,69,0
13534,note_on,94,0,2,,,,,,,,1,,,52,0
13536,note_on,2,0,1,,,,,,,,0,,,60,110
13536,note_on,0,0,1,,,,,,,,0,,,64,110
13536,note_on,0,0,1,,,,,,,,0,,,69,110
13536,note_on,2,0,2,,,,,,,,1,,,45,110
13630,note_on,94,0,2,,,,,,,,1,,,45,0
13632,note_on,2,0,2,,,,,,,,1,,,48,110
13726,note_on,94,0,2,,,,,,,,1,,,48,0
13728,note_on,2,0,2,,,,,,,,1,,,52,110
13792,note_on,0,0,1,,,,,,,,0,,,60,0
13792,note_on,256,0,1,,,,,,,,0,,,69,0
13792,note_on,0,0,1,,,,,,,,0,,,64,0
13822,note_on,94,0,2,,,,,,,,1,,,52,0
13824,note_on,2,0,2,,,,,,,,1,,,57,110
13824,set_tempo,576,1,0,,,,,,500000,,,,,,
13824,note_on,0,0,1,,,,,,,,0,,,81,110
13824,note_on,32,0,1,,,,,,,,0,,,72,110
13870,note_on,46,0,1,,,,,,,,0,,,81,0
13870,note_on,0,0,1,,,,,,,,0,,,72,0
13872,note_on,2,0,1,,,,,,,,0,,,76,110
13918,note_on,94,0,2,,,,,,,,1,,,57,0
13918,note_on,46,0,1,,,,,,,,0,,,76,0
13920,note_on,2,0,2,,,,,,,,1,,,58,110
13920,note_on,2,0,1,,,,,,,,0,,,79,110
13966,note_on,46,0,2,,,,,,,,1,,,58,0
13966,note_on,46,0,1,,,,,,,,0,,,79,0
13968,note_on,2,0,1,,,,,,,,0,,,78,110
13968,note_on,2,0,2,,,,,,,,1,,,60,110
14014,note_on,46,0,2,,,,,,,,1,,,60,0
14014,note_on,46,0,1,,,,,,,,0,,,78,0
14016,note_on,2,0,1,,,,,,,,0,,,81,110
14062,note_on,46,0,1,,,,,,,,0,,,81,0
14064,note_on,2,0,1,,,,,,,,0,,,74,110
14110,note_on,46,0,1,,,,,,,,0,,,74,0
14112,note_on,0,0,2,,,,,,,,1,,,62,110
14112,note_on,2,0,1,,,,,,,,0,,,80,110
14112,note_on,98,0,2,,,,,,,,1,,,58,110
14158,note_on,46,0,1,,,,,,,,0,,,80,0
14160,note_on,2,0,1,,,,,,,,0,,,74,110
14206,note_on,0,0,2,,,,,,,,1,,,58,0
14206,note_on,94,0,2,,,,,,,,1,,,62,0
14206,note_on,46,0,1,,,,,,,,0,,,74,0
14208,note_on,2,0,2,,,,,,,,1,,,54,110
14208,note_on,2,0,1,,,,,,,,0,,,81,110
14254,note_on,46,0,2,,,,,,,,1,,,54,0
14254,note_on,46,0,1,,,,,,,,0,,,81,0
14256,note_on,2,0,1,,,,,,,,0,,,82,110
14256,note_on,2,0,2,,,,,,,,1,,,55,110
14302,note_on,46,0,2,,,,,,,,1,,,55,0
14304,note_on,2,0,2,,,,,,,,1,,,58,110
14350,note_on,46,0,2,,,,,,,,1,,,58,0
14352,note_on,2,0,2,,,,,,,,1,,,62,110
14398,note_on,142,0,1,,,,,,,,0,,,82,0
14398,note_on,46,0,2,,,,,,,,1,,,62,0
14400,note_on,0,0,1,,,,,,,,0,,,79,110
14400,note_on,2,0,2,,,,,,,,1,,,46,110
14400,note_on,2,0,1,,,,,,,,0,,,67,110
14446,note_on,46,0,1,,,,,,,,0,,,79,0
14446,note_on,0,0,1,,,,,,,,0,,,67,0
14448,note_on,2,0,1,,,,,,,,0,,,74,110
14494,note_on,46,0,1,,,,,,,,0,,,74,0
14496,note_on,2,0,1,,,,,,,,0,,,77,110
14542,note_on,46,0,1,,,,,,,,0,,,77,0
14542,note_on,142,0,2,,,,,,,,1,,,46,0
14544,note_on,2,0,2,,,,,,,,1,,,48,110
14544,note_on,2,0,1,,,,,,,,0,,,76,110
14590,note_on,46,0,2,,,,,,,,1,,,48,0
14590,note_on,46,0,1,,,,,,,,0,,,76,0
14592,note_on,2,0,2,,,,,,,,1,,,60,110
14592,note_on,2,0,1,,,,,,,,0,,,79,110
14638,note_on,46,0,1,,,,,,,,0,,,79,0
14638,note_on,46,0,2,,,,,,,,1,,,60,0
14640,note_on,2,0,2,,,,,,,,1,,,58,110
14640,note_on,2,0,1,,,,,,,,0,,,72,110
14686,note_on,46,0,2,,,,,,,,1,,,58,0
14686,note_on,46,0,1,,,,,,,,0,,,72,0
14688,note_on,2,0,2,,,,,,,,1,,,57,110
14688,note_on,2,0,1,,,,,,,,0,,,77,110
14734,note_on,46,0,1,,,,,,,,0,,,77,0
14734,note_on,46,0,2,,,,,,,,1,,,57,0
14736,note_on,2,0,2,,,,,,,,1,,,60,110
14736,note_on,2,0,1,,,,,,,,0,,,72,110
14782,note_on,46,0,1,,,,,,,,0,,,72,0
14782,note_on,46,0,2,,,,,,,,1,,,60,0
14784,note_on,2,0,2,,,,,,,,1,,,55,110
14784,note_on,2,0,1,,,,,,,,0,,,79,110
14830,note_on,46,0,1,,,,,,,,0,,,79,0
14830,note_on,46,0,2,,,,,,,,1,,,55,0
14832,note_on,2,0,1,,,,,,,,0,,,81,110
14832,note_on,2,0,2,,,,,,,,1,,,53,110
14878,note_on,46,0,2,,,,,,,,1,,,53,0
14880,note_on,2,0,2,,,,,,,,1,,,57,110
14926,note_on,46,0,2,,,,,,,,1,,,57,0
14928,note_on,2,0,2,,,,,,,,1,,,60,110
14974,note_on,142,0,1,,,,,,,,0,,,81,0
14974,note_on,46,0,2,,,,,,,,1,,,60,0
14976,note_on,0,0,2,,,,,,,,1,,,62,110
14976,note_on,2,0,1,,,,,,,,0,,,74,110
14976,note_on,2,0,2,,,,,,,,1,,,58,110
15022,note_on,46,0,1,,,,,,,,0,,,74,0
15024,note_on,2,0,1,,,,,,,,0,,,77,110
15070,note_on,46,0,1,,,,,,,,0,,,77,0
15072,note_on,2,0,1,,,,,,,,0,,,81,110
15118,note_on,0,0,2,,,,,,,,1,,,58,0
15118,note_on,142,0,2,,,,,,,,1,,,62,0
15118,note_on,46,0,1,,,,,,,,0,,,81,0
15120,note_on,2,0,1,,,,,,,,0,,,69,110
15120,note_on,0,0,2,,,,,,,,1,,,61,110
15120,note_on,2,0,2,,,,,,,,1,,,57,110
15166,note_on,46,0,1,,,,,,,,0,,,69,0
15168,note_on,2,0,1,,,,,,,,0,,,76,110
15214,note_on,46,0,1,,,,,,,,0,,,76,0
15216,note_on,2,0,1,,,,,,,,0,,,81,110
15262,note_on,0,0,2,,,,,,,,1,,,57,0
15262,note_on,142,0,2,,,,,,,,1,,,61,0
15262,note_on,46,0,1,,,,,,,,0,,,81,0
15264,note_on,2,0,1,,,,,,,,0,,,77,110
15264,note_on,2,0,2,,,,,,,,1,,,50,110
15310,note_on,46,0,2,,,,,,,,1,,,50,0
15310,note_on,46,0,1,,,,,,,,0,,,77,0
15312,note_on,2,0,1,,,,,,,,0,,,81,110
15312,note_on,2,0,2,,,,,,,,1,,,53,110
15358,note_on,46,0,1,,,,,,,,0,,,81,0
15358,note_on,46,0,2,,,,,,,,1,,,53,0
15360,note_on,2,0,2,,,,,,,,1,,,57,110
15360,note_on,2,0,1,,,,,,,,0,,,74,110
15406,note_on,46,0,2,,,,,,,,1,,,57,0
15406,note_on,46,0,1,,,,,,,,0,,,74,0
15408,note_on,2,0,1,,,,,,,,0,,,73,110
15408,note_on,2,0,2,,,,,,,,1,,,45,110
15454,note_on,46,0,2,,,,,,,,1,,,45,0
15454,note_on,46,0,1,,,,,,,,0,,,73,0
15456,note_on,2,0,1,,,,,,,,0,,,76,110
15456,note_on,2,0,2,,,,,,,,1,,,57,110
15502,note_on,46,0,2,,,,,,,,1,,,57,0
15502,note_on,46,0,1,,,,,,,,0,,,76,0
15504,note_on,2,0,2,,,,,,,,1,,,55,110
15504,note_on,2,0,1,,,,,,,,0,,,69,110
15550,note_on,46,0,1,,,,,,,,0,,,69,0
15550,note_on,46,0,2,,,,,,,,1,,,55,0
15552,note_on,2,0,2,,,,,,,,1,,,53,110
15552,note_on,2,0,1,,,,,,,,0,,,74,110
15552,note_on,0,0,2,,,,,,,,1,,,57,110
15552,set_tempo,1728,1,0,,,,,,521739,,,,,,
15598,note_on,46,0,1,,,,,,,,0,,,74,0
15600,note_on,2,0,1,,,,,,,,0,,,69,110
15646,note_on,46,0,1,,,,,,,,0,,,69,0
15648,set_tempo,96,1,0,,,,,,582524,,,,,,
15648,note_on,2,0,1,,,,,,,,0,,,72,110
15694,note_on,0,0,2,,,,,,,,1,,,53,0
15694,note_on,142,0,2,,,,,,,,1,,,57,0
15694,note_on,46,0,1,,,,,,,,0,,,72,0
15696,note_on,2,0,1,,,,,,,,0,,,70,110
15696,note_on,2,0,2,,,,,,,,1,,,55,110
15742,note_on,46,0,1,,,,,,,,0,,,70,0
15744,set_tempo,96,1,0,,,,,,659341,,,,,,
15744,note_on,2,0,1,,,,,,,,0,,,62,110
15790,note_on,46,0,1,,,,,,,,0,,,62,0
15792,note_on,2,0,1,,,,,,,,0,,,67,110
15838,note_on,142,0,2,,,,,,,,1,,,55,0
15838,note_on,46,0,1,,,,,,,,0,,,67,0
15840,set_tempo,96,1,0,,,,,,759494,,,,,,
15840,note_on,2,0,2,,,,,,,,1,,,45,110
15840,note_on,2,0,1,,,,,,,,0,,,65,110
15886,note_on,46,0,1,,,,,,,,0,,,65,0
15888,note_on,2,0,1,,,,,,,,0,,,57,110
15934,note_on,94,0,2,,,,,,,,1,,,45,0
15934,note_on,46,0,1,,,,,,,,0,,,57,0
15936,note_on,2,0,2,,,,,,,,1,,,52,110
15936,set_tempo,96,1,0,,,,,,895522,,,,,,
15936,note_on,2,0,1,,,,,,,,0,,,55,110
15936,note_on,0,0,1,,,,,,,,0,,,61,110
15982,note_on,0,0,1,,,,,,,,0,,,55,0
15982,note_on,46,0,1,,,,,,,,0,,,61,0
15982,note_on,46,0,2,,,,,,,,1,,,52,0
15984,note_on,2,0,1,,,,,,,,0,,,62,110
15984,note_on,2,0,2,,,,,,,,1,,,50,110
15984,note_on,0,0,2,,,,,,,,1,,,53,110
16030,note_on,46,0,2,,,,,,,,1,,,53,0
16030,note_on,0,0,2,,,,,,,,1,,,50,0
16032,note_on,2,0,2,,,,,,,,1,,,45,110
16032,end_of_track,0,1,0,,,,,,,,,,,,
16032,set_tempo,96,1,0,,,,,,1000000,,,,,,
16078,note_on,46,0,2,,,,,,,,1,,,45,0
16080,note_on,2,0,2,,,,,,,,1,,,38,110
16126,end_of_track,0,1,1,,,,,,,,,,,,
16126,note_on,142,0,1,,,,,,,,0,,,62,0
16222,note_on,142,0,2,,,,,,,,1,,,38,0
16222,end_of_track,0,1,2,,,,,,,,,,,,
