tick,type,time,meta,track,numerator,denominator,clocks_per_click,notated_32nd_notes_per_beat,key,tempo,control,value,channel,program,note,velocity
0,track_name,0,1,0,,,,,,,,,,,,
0,control_change,0,0,1,,,,,,,7,127,0,,,
0,control_change,0,0,1,,,,,,,10,54,0,,,
0,control_change,0,0,1,,,,,,,91,50,0,,,
0,control_change,0,0,1,,,,,,,93,0,0,,,
0,control_change,0,0,1,,,,,,,32,0,0,,,
0,program_change,0,0,1,,,,,,,,,0,0,,
0,end_of_track,0,1,6,,,,,,,,,,,,
0,track_name,0,1,2,,,,,,,,,,,,
0,control_change,0,0,2,,,,,,,0,0,1,,,
0,control_change,0,0,2,,,,,,,7,127,1,,,
0,control_change,0,0,1,,,,,,,0,0,0,,,
0,control_change,0,0,2,,,,,,,10,73,1,,,
0,control_change,0,0,2,,,,,,,93,0,1,,,
0,control_change,0,0,2,,,,,,,32,0,1,,,
0,program_change,0,0,2,,,,,,,,,1,0,,
0,track_name,0,1,3,,,,,,,,,,,,
0,end_of_track,0,1,3,,,,,,,,,,,,
0,track_name,0,1,4,,,,,,,,,,,,
0,end_of_track,0,1,4,,,,,,,,,,,,
0,track_name,0,1,5,,,,,,,,,,,,
0,end_of_track,0,1,5,,,,,,,,,,,,
0,track_name,0,1,6,,,,,,,,,,,,
0,control_change,0,0,2,,,,,,,91,50,1,,,
0,track_name,0,1,1,,,,,,,,,,,,
0,end_of_track,0,1,7,,,,,,,,,,,,
0,marker,0,1,0,,,,,,,,,,,,
0,set_tempo,0,1,0,,,,,,631579,,,,,,
0,key_signature,0,1,0,,,,,F,,,,,,,
0,time_signature,0,1,0,3,4,24,8,,,,,,,,
0,text,0,1,0,,,,,,,,,,,,
0,text,0,1,0,,,,,,,,,,,,
0,copyright,0,1,0,,,,,,,,,,,,
240,marker,240,1,0,,,,,,,,,,,,
300,note_on,300,0,2,,,,,,,,,1,,49,85
300,note_on,300,0,1,,,,,,,,,0,,69,85
360,note_on,0,0,2,,,,,,,,,1,,50,85
360,note_on,60,0,2,,,,,,,,,1,,49,0
360,note_on,60,0,1,,,,,,,,,0,,69,0
368,note_on,8,0,1,,,,,,,,,0,,65,85
420,note_on,60,0,2,,,,,,,,,1,,53,85
480,note_on,60,0,2,,,,,,,,,1,,53,0
480,note_on,0,0,2,,,,,,,,,1,,57,85
536,note_on,168,0,1,,,,,,,,,0,,65,0
540,note_on,60,0,2,,,,,,,,,1,,50,0
540,note_on,4,0,1,,,,,,,,,0,,64,85
540,note_on,0,0,2,,,,,,,,,1,,48,85
600,note_on,0,0,2,,,,,,,,,1,,46,85
600,note_on,60,0,1,,,,,,,,,0,,64,0
600,note_on,0,0,1,,,,,,,,,0,,62,85
600,note_on,60,0,2,,,,,,,,,1,,48,0
660,note_on,60,0,2,,,,,,,,,1,,57,0
660,note_on,0,0,2,,,,,,,,,1,,55,85
660,note_on,60,0,1,,,,,,,,,0,,62,0
660,note_on,0,0,1,,,,,,,,,0,,74,85
720,note_on,60,0,2,,,,,,,,,1,,55,0
720,note_on,0,0,2,,,,,,,,,1,,45,85
720,note_on,0,0,2,,,,,,,,,1,,46,0
720,note_on,60,0,1,,,,,,,,,0,,74,0
728,note_on,8,0,2,,,,,,,,,1,,57,85
736,note_on,16,0,1,,,,,,,,,0,,73,85
780,note_on,52,0,2,,,,,,,,,1,,52,85
788,note_on,8,0,2,,,,,,,,,1,,57,0
840,note_on,0,0,2,,,,,,,,,1,,57,85
840,note_on,52,0,2,,,,,,,,,1,,52,0
888,note_on,152,0,1,,,,,,,,,0,,73,0
900,note_on,0,0,2,,,,,,,,,1,,55,85
900,note_on,60,0,2,,,,,,,,,1,,45,0
900,note_on,12,0,1,,,,,,,,,0,,71,85
960,note_on,60,0,2,,,,,,,,,1,,55,0
960,note_on,60,0,1,,,,,,,,,0,,71,0
960,note_on,0,0,1,,,,,,,,,0,,69,85
960,note_on,0,0,2,,,,,,,,,1,,53,85
1020,note_on,0,0,2,,,,,,,,,1,,52,85
1020,note_on,0,0,2,,,,,,,,,1,,61,85
1020,note_on,0,0,1,,,,,,,,,0,,81,85
1020,note_on,60,0,2,,,,,,,,,1,,53,0
1020,note_on,60,0,1,,,,,,,,,0,,69,0
1020,note_on,0,0,2,,,,,,,,,1,,57,0
1080,note_on,60,0,2,,,,,,,,,1,,52,0
1080,note_on,60,0,1,,,,,,,,,0,,81,0
1080,note_on,0,0,2,,,,,,,,,1,,50,85
1080,note_on,0,0,1,,,,,,,,,0,,79,85
1080,note_on,0,0,2,,,,,,,,,1,,61,0
1088,note_on,8,0,2,,,,,,,,,1,,62,85
1140,note_on,60,0,1,,,,,,,,,0,,79,0
1140,note_on,0,0,1,,,,,,,,,0,,77,85
1200,note_on,0,0,1,,,,,,,,,0,,76,85
1200,note_on,112,0,2,,,,,,,,,1,,53,85
1200,note_on,60,0,1,,,,,,,,,0,,77,0
1208,note_on,8,0,2,,,,,,,,,1,,62,0
1260,note_on,0,0,2,,,,,,,,,1,,52,85
1260,note_on,0,0,2,,,,,,,,,1,,50,0
1260,note_on,52,0,2,,,,,,,,,1,,53,0
1260,note_on,60,0,1,,,,,,,,,0,,76,0
1260,note_on,0,0,1,,,,,,,,,0,,74,85
1320,note_on,0,0,2,,,,,,,,,1,,55,85
1320,note_on,60,0,1,,,,,,,,,0,,74,0
1320,note_on,0,0,1,,,,,,,,,0,,72,85
1320,note_on,60,0,2,,,,,,,,,1,,52,0
1380,note_on,60,0,1,,,,,,,,,0,,72,0
1380,note_on,0,0,1,,,,,,,,,0,,70,85
1380,note_on,60,0,2,,,,,,,,,1,,55,0
1440,note_on,60,0,1,,,,,,,,,0,,70,0
1440,note_on,60,0,2,,,,,,,,,1,,49,85
1448,note_on,8,0,1,,,,,,,,,0,,64,85
1456,note_on,8,0,1,,,,,,,,,0,,69,85
1500,note_on,0,0,2,,,,,,,,,1,,52,85
1500,note_on,60,0,2,,,,,,,,,1,,49,0
1560,note_on,104,0,1,,,,,,,,,0,,61,85
1560,note_on,0,0,2,,,,,,,,,1,,45,85
1560,note_on,60,0,2,,,,,,,,,1,,52,0
1568,note_on,8,0,1,,,,,,,,,0,,64,0
1620,note_on,52,0,1,,,,,,,,,0,,67,85
1636,note_on,16,0,1,,,,,,,,,0,,69,0
1680,note_on,0,0,1,,,,,,,,,0,,65,85
1680,note_on,44,0,1,,,,,,,,,0,,67,0
1740,note_on,60,0,1,,,,,,,,,0,,65,0
1740,note_on,180,0,2,,,,,,,,,1,,45,0
1740,note_on,0,0,2,,,,,,,,,1,,49,85
1740,note_on,0,0,1,,,,,,,,,0,,64,85
1800,note_on,60,0,2,,,,,,,,,1,,49,0
1800,note_on,0,0,2,,,,,,,,,1,,50,85
1800,note_on,60,0,1,,,,,,,,,0,,64,0
1800,note_on,0,0,1,,,,,,,,,0,,61,0
1808,note_on,8,0,2,,,,,,,,,1,,57,85
1816,note_on,16,0,1,,,,,,,,,0,,65,85
1860,note_on,52,0,2,,,,,,,,,1,,50,0
1860,note_on,0,0,2,,,,,,,,,1,,53,85
1920,note_on,0,0,2,,,,,,,,,1,,45,85
1920,note_on,0,0,2,,,,,,,,,1,,57,0
1920,note_on,60,0,2,,,,,,,,,1,,53,0
1928,note_on,8,0,2,,,,,,,,,1,,60,85
1976,note_on,160,0,1,,,,,,,,,0,,65,0
1980,note_on,4,0,1,,,,,,,,,0,,65,85
2040,note_on,0,0,1,,,,,,,,,0,,67,85
2040,note_on,60,0,1,,,,,,,,,0,,65,0
2088,note_on,160,0,2,,,,,,,,,1,,45,0
2100,note_on,12,0,2,,,,,,,,,1,,45,85
2100,note_on,0,0,1,,,,,,,,,0,,69,85
2100,note_on,60,0,1,,,,,,,,,0,,67,0
2100,note_on,0,0,2,,,,,,,,,1,,45,85
2160,note_on,0,0,2,,,,,,,,,1,,60,0
2160,note_on,60,0,1,,,,,,,,,0,,69,0
2160,note_on,60,0,2,,,,,,,,,1,,45,0
2160,note_on,0,0,2,,,,,,,,,1,,45,0
2160,note_on,0,0,2,,,,,,,,,1,,46,85
2168,note_on,8,0,1,,,,,,,,,0,,62,85
2220,note_on,60,0,2,,,,,,,,,1,,50,85
2280,note_on,60,0,2,,,,,,,,,1,,53,85
2336,note_on,168,0,1,,,,,,,,,0,,62,0
2340,note_on,4,0,1,,,,,,,,,0,,62,85
2400,note_on,0,0,2,,,,,,,,,1,,46,85
2400,note_on,0,0,2,,,,,,,,,1,,46,0
2400,note_on,0,0,2,,,,,,,,,1,,50,0
2400,note_on,120,0,2,,,,,,,,,1,,53,0
2400,note_on,60,0,1,,,,,,,,,0,,62,0
2400,note_on,0,0,1,,,,,,,,,0,,64,85
2408,note_on,8,0,2,,,,,,,,,1,,48,85
2416,note_on,8,0,2,,,,,,,,,1,,55,85
2460,note_on,0,0,1,,,,,,,,,0,,65,85
2460,note_on,60,0,1,,,,,,,,,0,,64,0
2520,note_on,0,0,2,,,,,,,,,1,,46,0
2520,note_on,60,0,1,,,,,,,,,0,,65,0
2520,note_on,104,0,2,,,,,,,,,1,,55,0
2520,note_on,0,0,2,,,,,,,,,1,,48,0
2520,note_on,0,0,2,,,,,,,,,1,,45,85
2528,note_on,8,0,2,,,,,,,,,1,,53,85
2536,note_on,16,0,1,,,,,,,,,0,,60,85
2580,note_on,44,0,1,,,,,,,,,0,,74,85
2596,note_on,16,0,1,,,,,,,,,0,,60,0
2640,note_on,0,0,2,,,,,,,,,1,,43,85
2640,note_on,0,0,1,,,,,,,,,0,,72,85
2640,text,0,1,1,,,,,,,,,,,,
2640,note_on,112,0,2,,,,,,,,,1,,45,0
2640,note_on,44,0,1,,,,,,,,,0,,74,0
2667,note_on,27,0,1,,,,,,,,,0,,72,0
2668,note_on,1,0,1,,,,,,,,,0,,70,85
2681,note_on,13,0,1,,,,,,,,,0,,70,0
2682,note_on,1,0,1,,,,,,,,,0,,72,85
2688,note_on,48,0,2,,,,,,,,,1,,53,0
2695,note_on,13,0,1,,,,,,,,,0,,72,0
2696,note_on,1,0,1,,,,,,,,,0,,70,85
2700,note_on,12,0,2,,,,,,,,,1,,50,85
2709,note_on,13,0,1,,,,,,,,,0,,70,0
2710,note_on,1,0,1,,,,,,,,,0,,72,85
2723,note_on,13,0,1,,,,,,,,,0,,72,0
2724,note_on,1,0,1,,,,,,,,,0,,70,85
2760,note_on,0,0,2,,,,,,,,,1,,52,85
2760,note_on,60,0,2,,,,,,,,,1,,50,0
2819,note_on,95,0,1,,,,,,,,,0,,70,0
2820,note_on,0,0,2,,,,,,,,,1,,48,85
2820,note_on,1,0,1,,,,,,,,,0,,69,85
2820,note_on,60,0,2,,,,,,,,,1,,52,0
2880,note_on,0,0,2,,,,,,,,,1,,41,85
2880,note_on,60,0,2,,,,,,,,,1,,48,0
2880,note_on,60,0,1,,,,,,,,,0,,69,0
2880,note_on,0,0,2,,,,,,,,,1,,43,0
2888,note_on,8,0,2,,,,,,,,,1,,53,85
2896,note_on,16,0,1,,,,,,,,,0,,69,85
2940,note_on,44,0,1,,,,,,,,,0,,60,85
3000,note_on,60,0,1,,,,,,,,,0,,60,0
3000,note_on,0,0,1,,,,,,,,,0,,65,85
3056,note_on,56,0,1,,,,,,,,,0,,69,0
3060,note_on,4,0,1,,,,,,,,,0,,69,85
3104,note_on,216,0,2,,,,,,,,,1,,53,0
3120,note_on,16,0,2,,,,,,,,,1,,41,0
3120,note_on,60,0,1,,,,,,,,,0,,69,0
3120,note_on,0,0,1,,,,,,,,,0,,74,85
3120,note_on,0,0,2,,,,,,,,,1,,53,85
3128,note_on,8,0,2,,,,,,,,,1,,57,85
3180,note_on,0,0,1,,,,,,,,,0,,69,85
3180,note_on,60,0,1,,,,,,,,,0,,74,0
3240,note_on,60,0,1,,,,,,,,,0,,69,0
3240,note_on,0,0,1,,,,,,,,,0,,65,0
3240,note_on,112,0,2,,,,,,,,,1,,57,0
3240,note_on,0,0,2,,,,,,,,,1,,53,0
3240,note_on,0,0,2,,,,,,,,,1,,53,85
3248,note_on,8,0,2,,,,,,,,,1,,59,85
3256,note_on,16,0,1,,,,,,,,,0,,67,85
3300,note_on,52,0,2,,,,,,,,,1,,62,85
3308,note_on,8,0,2,,,,,,,,,1,,59,0
3359,text,51,1,2,,,,,,,,,,,,
3360,text,0,1,2,,,,,,,,,,,,
3360,note_on,1,0,2,,,,,,,,,1,,62,0
3360,note_on,0,0,2,,,,,,,,,1,,53,0
3360,note_on,0,0,2,,,,,,,,,1,,52,85
3360,note_on,0,0,2,,,,,,,,,1,,62,85
3387,note_on,27,0,2,,,,,,,,,1,,62,0
3388,note_on,1,0,2,,,,,,,,,1,,61,85
3401,note_on,13,0,2,,,,,,,,,1,,61,0
3402,note_on,1,0,2,,,,,,,,,1,,62,85
3408,note_on,152,0,1,,,,,,,,,0,,67,0
3415,note_on,13,0,2,,,,,,,,,1,,62,0
3416,note_on,1,0,2,,,,,,,,,1,,61,85
3420,note_on,12,0,1,,,,,,,,,0,,67,85
3429,note_on,13,0,2,,,,,,,,,1,,61,0
3430,note_on,1,0,2,,,,,,,,,1,,62,85
3443,note_on,13,0,2,,,,,,,,,1,,62,0
3444,note_on,1,0,2,,,,,,,,,1,,61,85
3480,note_on,60,0,1,,,,,,,,,0,,67,0
3480,note_on,0,0,1,,,,,,,,,0,,76,85
3539,note_on,95,0,2,,,,,,,,,1,,61,0
3540,note_on,1,0,2,,,,,,,,,1,,61,85
3540,note_on,60,0,1,,,,,,,,,0,,76,0
3540,note_on,0,0,1,,,,,,,,,0,,67,85
3600,note_on,0,0,2,,,,,,,,,1,,50,85
3600,note_on,60,0,1,,,,,,,,,0,,67,0
3600,note_on,60,0,2,,,,,,,,,1,,61,0
3600,note_on,0,0,2,,,,,,,,,1,,52,0
3608,note_on,8,0,2,,,,,,,,,1,,62,85
3616,note_on,16,0,1,,,,,,,,,0,,65,85
3660,note_on,52,0,2,,,,,,,,,1,,53,85
3668,note_on,8,0,2,,,,,,,,,1,,62,0
3720,note_on,0,0,2,,,,,,,,,1,,57,85
3720,note_on,52,0,2,,,,,,,,,1,,53,0
3780,note_on,164,0,1,,,,,,,,,0,,77,85
3796,note_on,16,0,1,,,,,,,,,0,,65,0
3832,note_on,36,0,1,,,,,,,,,0,,77,0
3840,note_on,0,0,2,,,,,,,,,1,,50,0
3840,note_on,120,0,2,,,,,,,,,1,,57,0
3840,note_on,8,0,1,,,,,,,,,0,,77,85
3840,note_on,0,0,2,,,,,,,,,1,,48,85
3848,note_on,8,0,1,,,,,,,,,0,,69,85
3900,note_on,52,0,1,,,,,,,,,0,,77,0
3900,note_on,0,0,1,,,,,,,,,0,,76,85
3960,note_on,60,0,1,,,,,,,,,0,,76,0
3960,note_on,120,0,2,,,,,,,,,1,,48,0
3960,note_on,0,0,2,,,,,,,,,1,,46,85
3960,note_on,0,0,1,,,,,,,,,0,,74,85
4020,note_on,60,0,1,,,,,,,,,0,,67,85
4028,note_on,8,0,1,,,,,,,,,0,,69,0
4080,note_on,0,0,1,,,,,,,,,0,,67,85
4080,note_on,0,0,2,,,,,,,,,1,,45,85
4080,note_on,120,0,2,,,,,,,,,1,,46,0
4080,note_on,52,0,1,,,,,,,,,0,,67,0
4080,text,0,1,1,,,,,,,,,,,,
4107,note_on,27,0,1,,,,,,,,,0,,67,0
4108,note_on,1,0,1,,,,,,,,,0,,66,85
4121,note_on,13,0,1,,,,,,,,,0,,66,0
4122,note_on,1,0,1,,,,,,,,,0,,67,85
4135,note_on,13,0,1,,,,,,,,,0,,67,0
4136,note_on,1,0,1,,,,,,,,,0,,66,85
4149,note_on,13,0,1,,,,,,,,,0,,66,0
4150,note_on,1,0,1,,,,,,,,,0,,67,85
4163,note_on,13,0,1,,,,,,,,,0,,67,0
4164,note_on,1,0,1,,,,,,,,,0,,66,85
4200,note_on,36,0,1,,,,,,,,,0,,74,0
4259,note_on,59,0,1,,,,,,,,,0,,66,0
4260,note_on,0,0,1,,,,,,,,,0,,69,85
4260,note_on,180,0,2,,,,,,,,,1,,54,85
4260,note_on,1,0,1,,,,,,,,,0,,72,85
4319,text,59,1,1,,,,,,,,,,,,
4320,note_on,1,0,1,,,,,,,,,0,,69,0
4320,note_on,0,0,1,,,,,,,,,0,,72,0
4320,note_on,0,0,1,,,,,,,,,0,,72,85
4320,text,0,1,1,,,,,,,,,,,,
4320,note_on,60,0,2,,,,,,,,,1,,54,0
4320,note_on,0,0,2,,,,,,,,,1,,45,0
4320,note_on,0,0,2,,,,,,,,,1,,43,85
4328,note_on,8,0,2,,,,,,,,,1,,55,85
4336,note_on,16,0,1,,,,,,,,,0,,62,85
4347,note_on,11,0,1,,,,,,,,,0,,72,0
4348,note_on,1,0,1,,,,,,,,,0,,70,85
4361,note_on,13,0,1,,,,,,,,,0,,70,0
4362,note_on,1,0,1,,,,,,,,,0,,72,85
4375,note_on,13,0,1,,,,,,,,,0,,72,0
4376,note_on,1,0,1,,,,,,,,,0,,70,85
4409,note_on,33,0,1,,,,,,,,,0,,70,0
4410,note_on,1,0,1,,,,,,,,,0,,69,85
4440,note_on,30,0,1,,,,,,,,,0,,69,0
4440,note_on,0,0,1,,,,,,,,,0,,70,85
4496,note_on,56,0,1,,,,,,,,,0,,62,0
4500,note_on,4,0,1,,,,,,,,,0,,70,0
4500,note_on,0,0,1,,,,,,,,,0,,64,85
4500,note_on,0,0,1,,,,,,,,,0,,72,85
4552,note_on,224,0,2,,,,,,,,,1,,55,0
4560,note_on,8,0,2,,,,,,,,,1,,43,0
4560,note_on,0,0,2,,,,,,,,,1,,53,85
4560,note_on,0,0,2,,,,,,,,,1,,50,85
4560,note_on,0,0,1,,,,,,,,,0,,72,0
4560,note_on,60,0,1,,,,,,,,,0,,64,0
4568,note_on,8,0,1,,,,,,,,,0,,65,85
4576,note_on,8,0,1,,,,,,,,,0,,69,85
4620,note_on,0,0,2,,,,,,,,,1,,55,85
4620,note_on,60,0,2,,,,,,,,,1,,53,0
4672,note_on,96,0,1,,,,,,,,,0,,65,0
4680,note_on,0,0,2,,,,,,,,,1,,48,85
4680,note_on,0,0,2,,,,,,,,,1,,50,0
4680,note_on,60,0,2,,,,,,,,,1,,55,0
4688,note_on,8,0,2,,,,,,,,,1,,57,85
4696,note_on,24,0,1,,,,,,,,,0,,64,85
4728,note_on,32,0,1,,,,,,,,,0,,69,0
4740,note_on,12,0,1,,,,,,,,,0,,70,85
4799,text,59,1,1,,,,,,,,,,,,
4800,text,0,1,1,,,,,,,,,,,,
4800,note_on,0,0,1,,,,,,,,,0,,64,0
4800,note_on,112,0,2,,,,,,,,,1,,57,0
4800,note_on,0,0,1,,,,,,,,,0,,69,85
4800,note_on,0,0,2,,,,,,,,,1,,46,85
4800,note_on,0,0,2,,,,,,,,,1,,48,0
4800,note_on,1,0,1,,,,,,,,,0,,70,0
4808,note_on,8,0,2,,,,,,,,,1,,50,85
4827,note_on,27,0,1,,,,,,,,,0,,69,0
4828,note_on,1,0,1,,,,,,,,,0,,67,85
4841,note_on,13,0,1,,,,,,,,,0,,67,0
4842,note_on,1,0,1,,,,,,,,,0,,69,85
4855,note_on,13,0,1,,,,,,,,,0,,69,0
4856,note_on,1,0,1,,,,,,,,,0,,67,85
4869,note_on,13,0,1,,,,,,,,,0,,67,0
4870,note_on,1,0,1,,,,,,,,,0,,69,85
4883,note_on,13,0,1,,,,,,,,,0,,69,0
4884,note_on,1,0,1,,,,,,,,,0,,67,85
4920,note_on,36,0,1,,,,,,,,,0,,62,85
4928,note_on,120,0,2,,,,,,,,,1,,50,0
4979,note_on,59,0,1,,,,,,,,,0,,67,0
4980,note_on,1,0,1,,,,,,,,,0,,69,85
5024,note_on,44,0,1,,,,,,,,,0,,62,0
5032,note_on,8,0,1,,,,,,,,,0,,69,0
5040,set_tempo,4800,1,0,,,,,,632644,,,,,,
5040,note_on,0,0,2,,,,,,,,,1,,45,85
5040,note_on,112,0,2,,,,,,,,,1,,46,0
5048,note_on,16,0,1,,,,,,,,,0,,62,85
5055,set_tempo,15,1,0,,,,,,633714,,,,,,
5056,note_on,8,0,1,,,,,,,,,0,,69,85
5065,set_tempo,10,1,0,,,,,,634786,,,,,,
5080,set_tempo,15,1,0,,,,,,635863,,,,,,
5088,note_on,32,0,1,,,,,,,,,0,,62,0
5090,set_tempo,10,1,0,,,,,,636943,,,,,,
5100,set_tempo,10,1,0,,,,,,638026,,,,,,
5100,note_on,12,0,1,,,,,,,,,0,,61,85
5115,set_tempo,15,1,0,,,,,,639114,,,,,,
5125,set_tempo,10,1,0,,,,,,640205,,,,,,
5140,set_tempo,15,1,0,,,,,,641300,,,,,,
5150,set_tempo,10,1,0,,,,,,642398,,,,,,
5160,note_on,60,0,1,,,,,,,,,0,,61,0
5160,note_on,0,0,1,,,,,,,,,0,,62,85
5160,set_tempo,10,1,0,,,,,,643501,,,,,,
5175,set_tempo,15,1,0,,,,,,644607,,,,,,
5185,set_tempo,10,1,0,,,,,,645717,,,,,,
5200,set_tempo,15,1,0,,,,,,646831,,,,,,
5210,set_tempo,10,1,0,,,,,,647948,,,,,,
5220,set_tempo,10,1,0,,,,,,649070,,,,,,
5220,note_on,60,0,1,,,,,,,,,0,,62,0
5220,note_on,0,0,1,,,,,,,,,0,,65,85
5235,set_tempo,15,1,0,,,,,,650195,,,,,,
5245,set_tempo,10,1,0,,,,,,651324,,,,,,
5260,set_tempo,15,1,0,,,,,,652458,,,,,,
5270,set_tempo,10,1,0,,,,,,653595,,,,,,
5280,set_tempo,10,1,0,,,,,,654736,,,,,,
5280,note_on,0,0,1,,,,,,,,,0,,64,85
5280,note_on,60,0,1,,,,,,,,,0,,65,0
5295,set_tempo,15,1,0,,,,,,655881,,,,,,
5305,set_tempo,10,1,0,,,,,,657030,,,,,,
5320,set_tempo,15,1,0,,,,,,658183,,,,,,
5330,set_tempo,10,1,0,,,,,,659341,,,,,,
5340,set_tempo,10,1,0,,,,,,660502,,,,,,
5340,note_on,0,0,1,,,,,,,,,0,,59,85
5340,note_on,60,0,1,,,,,,,,,0,,64,0
5355,set_tempo,15,1,0,,,,,,661667,,,,,,
5365,set_tempo,10,1,0,,,,,,662837,,,,,,
5380,set_tempo,15,1,0,,,,,,664011,,,,,,
5390,set_tempo,10,1,0,,,,,,665188,,,,,,
5400,note_on,60,0,1,,,,,,,,,0,,59,0
5400,note_on,0,0,1,,,,,,,,,0,,69,0
5400,set_tempo,10,1,0,,,,,,666371,,,,,,
5408,note_on,8,0,1,,,,,,,,,0,,61,85
5415,set_tempo,15,1,0,,,,,,667557,,,,,,
5416,note_on,8,0,1,,,,,,,,,0,,69,85
5425,set_tempo,10,1,0,,,,,,668747,,,,,,
5440,set_tempo,15,1,0,,,,,,669942,,,,,,
5450,set_tempo,10,1,0,,,,,,671141,,,,,,
5460,set_tempo,10,1,0,,,,,,672344,,,,,,
5460,note_on,0,0,2,,,,,,,,,1,,52,85
5460,note_on,420,0,2,,,,,,,,,1,,45,0
5475,set_tempo,15,1,0,,,,,,673552,,,,,,
5485,set_tempo,10,1,0,,,,,,674764,,,,,,
5500,set_tempo,15,1,0,,,,,,675980,,,,,,
5510,set_tempo,10,1,0,,,,,,677201,,,,,,
5520,note_on,60,0,2,,,,,,,,,1,,52,0
5520,note_on,0,0,2,,,,,,,,,1,,55,85
5520,set_tempo,10,1,0,,,,,,678426,,,,,,
5535,set_tempo,15,1,0,,,,,,679656,,,,,,
5545,set_tempo,10,1,0,,,,,,680890,,,,,,
5558,note_on,142,0,1,,,,,,,,,0,,61,0
5560,set_tempo,15,1,0,,,,,,682128,,,,,,
5570,set_tempo,10,1,0,,,,,,683371,,,,,,
5580,set_tempo,10,1,0,,,,,,684619,,,,,,
5580,note_on,0,0,2,,,,,,,,,1,,58,85
5580,note_on,60,0,2,,,,,,,,,1,,55,0
5595,set_tempo,15,1,0,,,,,,685871,,,,,,
5605,set_tempo,10,1,0,,,,,,687128,,,,,,
5620,set_tempo,15,1,0,,,,,,688389,,,,,,
5630,set_tempo,10,1,0,,,,,,689655,,,,,,
5640,note_on,82,0,1,,,,,,,,,0,,61,85
5640,note_on,0,0,2,,,,,,,,,1,,57,85
5640,note_on,60,0,2,,,,,,,,,1,,58,0
5640,set_tempo,10,1,0,,,,,,690926,,,,,,
5643,set_tempo,3,1,0,,,,,,800000,,,,,,
5644,set_tempo,1,1,0,,,,,,798297,,,,,,
5685,note_on,45,0,1,,,,,,,,,0,,61,0
5685,note_on,45,0,2,,,,,,,,,1,,57,0
5686,set_tempo,42,1,0,,,,,,651324,,,,,,
5688,note_on,3,0,1,,,,,,,,,0,,69,0
5689,set_tempo,3,1,0,,,,,,647948,,,,,,
5691,set_tempo,2,1,0,,,,,,646831,,,,,,
5700,note_on,15,0,2,,,,,,,,,1,,49,85
5700,marker,9,1,0,,,,,,,,,,,,
5700,note_on,12,0,1,,,,,,,,,0,,69,85
5713,set_tempo,13,1,0,,,,,,631579,,,,,,
5760,note_on,0,0,2,,,,,,,,,1,,50,85
5760,note_on,60,0,2,,,,,,,,,1,,49,0
5760,note_on,60,0,1,,,,,,,,,0,,69,0
5768,note_on,8,0,1,,,,,,,,,0,,65,85
5820,note_on,60,0,2,,,,,,,,,1,,53,85
5880,note_on,0,0,2,,,,,,,,,1,,57,85
5880,note_on,60,0,2,,,,,,,,,1,,53,0
5936,note_on,168,0,1,,,,,,,,,0,,65,0
5940,note_on,4,0,1,,,,,,,,,0,,64,85
5940,note_on,60,0,2,,,,,,,,,1,,50,0
5940,note_on,0,0,2,,,,,,,,,1,,48,85
6000,note_on,0,0,1,,,,,,,,,0,,62,85
6000,note_on,0,0,2,,,,,,,,,1,,46,85
6000,note_on,60,0,2,,,,,,,,,1,,48,0
6000,note_on,60,0,1,,,,,,,,,0,,64,0
6060,note_on,60,0,1,,,,,,,,,0,,62,0
6060,note_on,0,0,2,,,,,,,,,1,,55,85
6060,note_on,0,0,1,,,,,,,,,0,,74,85
6060,note_on,60,0,2,,,,,,,,,1,,57,0
6120,note_on,0,0,2,,,,,,,,,1,,45,85
6120,note_on,0,0,2,,,,,,,,,1,,46,0
6120,note_on,60,0,2,,,,,,,,,1,,55,0
6120,note_on,60,0,1,,,,,,,,,0,,74,0
6128,note_on,8,0,2,,,,,,,,,1,,57,85
6136,note_on,16,0,1,,,,,,,,,0,,73,85
6180,note_on,52,0,2,,,,,,,,,1,,52,85
6188,note_on,8,0,2,,,,,,,,,1,,57,0
6240,note_on,0,0,2,,,,,,,,,1,,57,85
6240,note_on,52,0,2,,,,,,,,,1,,52,0
6288,note_on,152,0,1,,,,,,,,,0,,73,0
6300,note_on,0,0,2,,,,,,,,,1,,55,85
6300,note_on,60,0,2,,,,,,,,,1,,45,0
6300,note_on,12,0,1,,,,,,,,,0,,71,85
6360,note_on,0,0,2,,,,,,,,,1,,53,85
6360,note_on,0,0,1,,,,,,,,,0,,69,85
6360,note_on,60,0,2,,,,,,,,,1,,55,0
6360,note_on,60,0,1,,,,,,,,,0,,71,0
6420,note_on,60,0,2,,,,,,,,,1,,53,0
6420,note_on,60,0,1,,,,,,,,,0,,69,0
6420,note_on,0,0,1,,,,,,,,,0,,81,85
6420,note_on,0,0,2,,,,,,,,,1,,61,85
6420,note_on,0,0,2,,,,,,,,,1,,57,0
6420,note_on,0,0,2,,,,,,,,,1,,52,85
6480,note_on,60,0,1,,,,,,,,,0,,81,0
6480,note_on,0,0,1,,,,,,,,,0,,79,85
6480,note_on,60,0,2,,,,,,,,,1,,52,0
6480,note_on,0,0,2,,,,,,,,,1,,61,0
6480,note_on,0,0,2,,,,,,,,,1,,50,85
6488,note_on,8,0,2,,,,,,,,,1,,62,85
6540,note_on,0,0,1,,,,,,,,,0,,77,85
6540,note_on,60,0,1,,,,,,,,,0,,79,0
6600,note_on,112,0,2,,,,,,,,,1,,53,85
6600,note_on,60,0,1,,,,,,,,,0,,77,0
6600,note_on,0,0,1,,,,,,,,,0,,76,85
6608,note_on,8,0,2,,,,,,,,,1,,62,0
6660,note_on,0,0,2,,,,,,,,,1,,52,85
6660,note_on,0,0,2,,,,,,,,,1,,50,0
6660,note_on,52,0,2,,,,,,,,,1,,53,0
6660,note_on,60,0,1,,,,,,,,,0,,76,0
6660,note_on,0,0,1,,,,,,,,,0,,74,85
6720,note_on,0,0,2,,,,,,,,,1,,55,85
6720,note_on,60,0,2,,,,,,,,,1,,52,0
6720,note_on,0,0,1,,,,,,,,,0,,72,85
6720,note_on,60,0,1,,,,,,,,,0,,74,0
6780,note_on,60,0,1,,,,,,,,,0,,72,0
6780,note_on,60,0,2,,,,,,,,,1,,55,0
6780,note_on,0,0,1,,,,,,,,,0,,70,85
6840,note_on,60,0,2,,,,,,,,,1,,49,85
6840,note_on,60,0,1,,,,,,,,,0,,70,0
6848,note_on,8,0,1,,,,,,,,,0,,64,85
6856,note_on,8,0,1,,,,,,,,,0,,69,85
6900,note_on,0,0,2,,,,,,,,,1,,52,85
6900,note_on,60,0,2,,,,,,,,,1,,49,0
6960,note_on,60,0,2,,,,,,,,,1,,52,0
6960,note_on,104,0,1,,,,,,,,,0,,61,85
6960,note_on,0,0,2,,,,,,,,,1,,45,85
6968,note_on,8,0,1,,,,,,,,,0,,64,0
7020,note_on,52,0,1,,,,,,,,,0,,67,85
7036,note_on,16,0,1,,,,,,,,,0,,69,0
7080,note_on,44,0,1,,,,,,,,,0,,67,0
7080,note_on,0,0,1,,,,,,,,,0,,65,85
7140,note_on,0,0,2,,,,,,,,,1,,49,85
7140,note_on,0,0,1,,,,,,,,,0,,64,85
7140,note_on,60,0,1,,,,,,,,,0,,65,0
7140,note_on,180,0,2,,,,,,,,,1,,45,0
7200,note_on,60,0,2,,,,,,,,,1,,49,0
7200,note_on,0,0,2,,,,,,,,,1,,50,85
7200,note_on,0,0,1,,,,,,,,,0,,61,0
7200,note_on,60,0,1,,,,,,,,,0,,64,0
7208,note_on,8,0,2,,,,,,,,,1,,57,85
7216,note_on,16,0,1,,,,,,,,,0,,65,85
7260,note_on,52,0,2,,,,,,,,,1,,50,0
7260,note_on,0,0,2,,,,,,,,,1,,53,85
7320,note_on,60,0,2,,,,,,,,,1,,53,0
7320,note_on,0,0,2,,,,,,,,,1,,57,0
7320,note_on,0,0,2,,,,,,,,,1,,45,85
7328,note_on,8,0,2,,,,,,,,,1,,60,85
7376,note_on,160,0,1,,,,,,,,,0,,65,0
7380,note_on,4,0,1,,,,,,,,,0,,65,85
7440,note_on,0,0,1,,,,,,,,,0,,67,85
7440,note_on,60,0,1,,,,,,,,,0,,65,0
7488,note_on,160,0,2,,,,,,,,,1,,45,0
7500,note_on,12,0,2,,,,,,,,,1,,45,85
7500,note_on,60,0,1,,,,,,,,,0,,67,0
7500,note_on,0,0,2,,,,,,,,,1,,45,85
7500,note_on,0,0,1,,,,,,,,,0,,69,85
7560,note_on,0,0,2,,,,,,,,,1,,46,85
7560,note_on,60,0,2,,,,,,,,,1,,45,0
7560,note_on,0,0,2,,,,,,,,,1,,60,0
7560,note_on,0,0,2,,,,,,,,,1,,45,0
7560,note_on,60,0,1,,,,,,,,,0,,69,0
7568,note_on,8,0,1,,,,,,,,,0,,62,85
7620,note_on,60,0,2,,,,,,,,,1,,50,85
7680,note_on,60,0,2,,,,,,,,,1,,53,85
7736,note_on,168,0,1,,,,,,,,,0,,62,0
7740,note_on,4,0,1,,,,,,,,,0,,62,85
7800,note_on,0,0,2,,,,,,,,,1,,46,0
7800,note_on,0,0,2,,,,,,,,,1,,50,0
7800,note_on,120,0,2,,,,,,,,,1,,53,0
7800,note_on,0,0,1,,,,,,,,,0,,64,85
7800,note_on,60,0,1,,,,,,,,,0,,62,0
7800,note_on,0,0,2,,,,,,,,,1,,46,85
7808,note_on,8,0,2,,,,,,,,,1,,48,85
7816,note_on,8,0,2,,,,,,,,,1,,55,85
7860,note_on,0,0,1,,,,,,,,,0,,65,85
7860,note_on,60,0,1,,,,,,,,,0,,64,0
7920,note_on,60,0,1,,,,,,,,,0,,65,0
7920,note_on,0,0,2,,,,,,,,,1,,46,0
7920,note_on,0,0,2,,,,,,,,,1,,45,85
7920,note_on,104,0,2,,,,,,,,,1,,55,0
7920,note_on,0,0,2,,,,,,,,,1,,48,0
7928,note_on,8,0,2,,,,,,,,,1,,53,85
7936,note_on,16,0,1,,,,,,,,,0,,60,85
7980,note_on,44,0,1,,,,,,,,,0,,74,85
7996,note_on,16,0,1,,,,,,,,,0,,60,0
8040,note_on,44,0,1,,,,,,,,,0,,74,0
8040,text,0,1,1,,,,,,,,,,,,
8040,note_on,0,0,1,,,,,,,,,0,,72,85
8040,note_on,0,0,2,,,,,,,,,1,,43,85
8040,note_on,112,0,2,,,,,,,,,1,,45,0
8067,note_on,27,0,1,,,,,,,,,0,,72,0
8068,note_on,1,0,1,,,,,,,,,0,,70,85
8081,note_on,13,0,1,,,,,,,,,0,,70,0
8082,note_on,1,0,1,,,,,,,,,0,,72,85
8088,note_on,48,0,2,,,,,,,,,1,,53,0
8095,note_on,13,0,1,,,,,,,,,0,,72,0
8096,note_on,1,0,1,,,,,,,,,0,,70,85
8100,note_on,12,0,2,,,,,,,,,1,,50,85
8109,note_on,13,0,1,,,,,,,,,0,,70,0
8110,note_on,1,0,1,,,,,,,,,0,,72,85
8123,note_on,13,0,1,,,,,,,,,0,,72,0
8124,note_on,1,0,1,,,,,,,,,0,,70,85
8160,note_on,60,0,2,,,,,,,,,1,,50,0
8160,note_on,0,0,2,,,,,,,,,1,,52,85
8219,note_on,95,0,1,,,,,,,,,0,,70,0
8220,note_on,0,0,2,,,,,,,,,1,,48,85
8220,note_on,1,0,1,,,,,,,,,0,,69,85
8220,note_on,60,0,2,,,,,,,,,1,,52,0
8280,note_on,60,0,2,,,,,,,,,1,,48,0
8280,note_on,0,0,2,,,,,,,,,1,,43,0
8280,note_on,0,0,2,,,,,,,,,1,,41,85
8280,note_on,60,0,1,,,,,,,,,0,,69,0
8288,note_on,8,0,2,,,,,,,,,1,,53,85
8296,note_on,16,0,1,,,,,,,,,0,,69,85
8340,note_on,44,0,1,,,,,,,,,0,,60,85
8400,note_on,60,0,1,,,,,,,,,0,,60,0
8400,note_on,0,0,1,,,,,,,,,0,,65,85
8456,note_on,56,0,1,,,,,,,,,0,,69,0
8460,note_on,4,0,1,,,,,,,,,0,,69,85
8504,note_on,216,0,2,,,,,,,,,1,,53,0
8520,note_on,60,0,1,,,,,,,,,0,,69,0
8520,note_on,0,0,2,,,,,,,,,1,,53,85
8520,note_on,16,0,2,,,,,,,,,1,,41,0
8520,note_on,0,0,1,,,,,,,,,0,,74,85
8528,note_on,8,0,2,,,,,,,,,1,,57,85
8580,note_on,0,0,1,,,,,,,,,0,,69,85
8580,note_on,60,0,1,,,,,,,,,0,,74,0
8640,note_on,60,0,1,,,,,,,,,0,,69,0
8640,note_on,0,0,1,,,,,,,,,0,,65,0
8640,note_on,112,0,2,,,,,,,,,1,,57,0
8640,note_on,0,0,2,,,,,,,,,1,,53,0
8640,note_on,0,0,2,,,,,,,,,1,,53,85
8648,note_on,8,0,2,,,,,,,,,1,,59,85
8656,note_on,16,0,1,,,,,,,,,0,,67,85
8700,note_on,52,0,2,,,,,,,,,1,,62,85
8708,note_on,8,0,2,,,,,,,,,1,,59,0
8759,text,51,1,2,,,,,,,,,,,,
8760,note_on,0,0,2,,,,,,,,,1,,52,85
8760,note_on,1,0,2,,,,,,,,,1,,62,0
8760,note_on,0,0,2,,,,,,,,,1,,53,0
8760,note_on,0,0,2,,,,,,,,,1,,62,85
8760,text,0,1,2,,,,,,,,,,,,
8787,note_on,27,0,2,,,,,,,,,1,,62,0
8788,note_on,1,0,2,,,,,,,,,1,,61,85
8801,note_on,13,0,2,,,,,,,,,1,,61,0
8802,note_on,1,0,2,,,,,,,,,1,,62,85
8808,note_on,152,0,1,,,,,,,,,0,,67,0
8815,note_on,13,0,2,,,,,,,,,1,,62,0
8816,note_on,1,0,2,,,,,,,,,1,,61,85
8820,note_on,12,0,1,,,,,,,,,0,,67,85
8829,note_on,13,0,2,,,,,,,,,1,,61,0
8830,note_on,1,0,2,,,,,,,,,1,,62,85
8843,note_on,13,0,2,,,,,,,,,1,,62,0
8844,note_on,1,0,2,,,,,,,,,1,,61,85
8880,note_on,60,0,1,,,,,,,,,0,,67,0
8880,note_on,0,0,1,,,,,,,,,0,,76,85
8939,note_on,95,0,2,,,,,,,,,1,,61,0
8940,note_on,1,0,2,,,,,,,,,1,,61,85
8940,note_on,0,0,1,,,,,,,,,0,,67,85
8940,note_on,60,0,1,,,,,,,,,0,,76,0
9000,note_on,0,0,2,,,,,,,,,1,,52,0
9000,note_on,60,0,1,,,,,,,,,0,,67,0
9000,note_on,60,0,2,,,,,,,,,1,,61,0
9000,note_on,0,0,2,,,,,,,,,1,,50,85
9008,note_on,8,0,2,,,,,,,,,1,,62,85
9016,note_on,16,0,1,,,,,,,,,0,,65,85
9060,note_on,52,0,2,,,,,,,,,1,,53,85
9068,note_on,8,0,2,,,,,,,,,1,,62,0
9120,note_on,52,0,2,,,,,,,,,1,,53,0
9120,note_on,0,0,2,,,,,,,,,1,,57,85
9180,note_on,164,0,1,,,,,,,,,0,,77,85
9196,note_on,16,0,1,,,,,,,,,0,,65,0
9232,note_on,36,0,1,,,,,,,,,0,,77,0
9240,note_on,120,0,2,,,,,,,,,1,,57,0
9240,note_on,0,0,2,,,,,,,,,1,,50,0
9240,note_on,0,0,2,,,,,,,,,1,,48,85
9240,note_on,8,0,1,,,,,,,,,0,,77,85
9248,note_on,8,0,1,,,,,,,,,0,,69,85
9300,note_on,0,0,1,,,,,,,,,0,,76,85
9300,note_on,52,0,1,,,,,,,,,0,,77,0
9360,note_on,120,0,2,,,,,,,,,1,,48,0
9360,note_on,0,0,2,,,,,,,,,1,,46,85
9360,note_on,60,0,1,,,,,,,,,0,,76,0
9360,note_on,0,0,1,,,,,,,,,0,,74,85
9420,note_on,60,0,1,,,,,,,,,0,,67,85
9428,note_on,8,0,1,,,,,,,,,0,,69,0
9480,note_on,0,0,2,,,,,,,,,1,,45,85
9480,note_on,120,0,2,,,,,,,,,1,,46,0
9480,note_on,52,0,1,,,,,,,,,0,,67,0
9480,text,0,1,1,,,,,,,,,,,,
9480,note_on,0,0,1,,,,,,,,,0,,67,85
9507,note_on,27,0,1,,,,,,,,,0,,67,0
9508,note_on,1,0,1,,,,,,,,,0,,66,85
9521,note_on,13,0,1,,,,,,,,,0,,66,0
9522,note_on,1,0,1,,,,,,,,,0,,67,85
9535,note_on,13,0,1,,,,,,,,,0,,67,0
9536,note_on,1,0,1,,,,,,,,,0,,66,85
9549,note_on,13,0,1,,,,,,,,,0,,66,0
9550,note_on,1,0,1,,,,,,,,,0,,67,85
9563,note_on,13,0,1,,,,,,,,,0,,67,0
9564,note_on,1,0,1,,,,,,,,,0,,66,85
9600,note_on,36,0,1,,,,,,,,,0,,74,0
9659,note_on,59,0,1,,,,,,,,,0,,66,0
9660,note_on,0,0,1,,,,,,,,,0,,69,85
9660,note_on,1,0,1,,,,,,,,,0,,72,85
9660,note_on,180,0,2,,,,,,,,,1,,54,85
9719,text,59,1,1,,,,,,,,,,,,
9720,text,0,1,1,,,,,,,,,,,,
9720,note_on,0,0,1,,,,,,,,,0,,72,0
9720,note_on,0,0,1,,,,,,,,,0,,72,85
9720,note_on,60,0,2,,,,,,,,,1,,54,0
9720,note_on,0,0,2,,,,,,,,,1,,45,0
9720,note_on,0,0,2,,,,,,,,,1,,43,85
9720,note_on,1,0,1,,,,,,,,,0,,69,0
9728,note_on,8,0,2,,,,,,,,,1,,55,85
9736,note_on,16,0,1,,,,,,,,,0,,62,85
9747,note_on,11,0,1,,,,,,,,,0,,72,0
9748,note_on,1,0,1,,,,,,,,,0,,70,85
9761,note_on,13,0,1,,,,,,,,,0,,70,0
9762,note_on,1,0,1,,,,,,,,,0,,72,85
9775,note_on,13,0,1,,,,,,,,,0,,72,0
9776,note_on,1,0,1,,,,,,,,,0,,70,85
9809,note_on,33,0,1,,,,,,,,,0,,70,0
9810,note_on,1,0,1,,,,,,,,,0,,69,85
9840,note_on,30,0,1,,,,,,,,,0,,69,0
9840,note_on,0,0,1,,,,,,,,,0,,70,85
9896,note_on,56,0,1,,,,,,,,,0,,62,0
9900,note_on,0,0,1,,,,,,,,,0,,72,85
9900,note_on,0,0,1,,,,,,,,,0,,64,85
9900,note_on,4,0,1,,,,,,,,,0,,70,0
9952,note_on,224,0,2,,,,,,,,,1,,55,0
9960,note_on,0,0,2,,,,,,,,,1,,53,85
9960,note_on,8,0,2,,,,,,,,,1,,43,0
9960,note_on,0,0,1,,,,,,,,,0,,72,0
9960,note_on,60,0,1,,,,,,,,,0,,64,0
9960,note_on,0,0,2,,,,,,,,,1,,50,85
9968,note_on,8,0,1,,,,,,,,,0,,65,85
9976,note_on,8,0,1,,,,,,,,,0,,69,85
10020,note_on,0,0,2,,,,,,,,,1,,55,85
10020,note_on,60,0,2,,,,,,,,,1,,53,0
10072,note_on,96,0,1,,,,,,,,,0,,65,0
10080,note_on,0,0,2,,,,,,,,,1,,50,0
10080,note_on,60,0,2,,,,,,,,,1,,55,0
10080,note_on,0,0,2,,,,,,,,,1,,48,85
10088,note_on,8,0,2,,,,,,,,,1,,57,85
10096,note_on,24,0,1,,,,,,,,,0,,64,85
10128,note_on,32,0,1,,,,,,,,,0,,69,0
10140,note_on,12,0,1,,,,,,,,,0,,70,85
10199,text,59,1,1,,,,,,,,,,,,
10200,note_on,112,0,2,,,,,,,,,1,,57,0
10200,note_on,0,0,1,,,,,,,,,0,,64,0
10200,note_on,0,0,1,,,,,,,,,0,,69,85
10200,note_on,1,0,1,,,,,,,,,0,,70,0
10200,note_on,0,0,2,,,,,,,,,1,,48,0
10200,note_on,0,0,2,,,,,,,,,1,,46,85
10200,text,0,1,1,,,,,,,,,,,,
10208,note_on,8,0,2,,,,,,,,,1,,50,85
10227,note_on,27,0,1,,,,,,,,,0,,69,0
10228,note_on,1,0,1,,,,,,,,,0,,67,85
10241,note_on,13,0,1,,,,,,,,,0,,67,0
10242,note_on,1,0,1,,,,,,,,,0,,69,85
10255,note_on,13,0,1,,,,,,,,,0,,69,0
10256,note_on,1,0,1,,,,,,,,,0,,67,85
10269,note_on,13,0,1,,,,,,,,,0,,67,0
10270,note_on,1,0,1,,,,,,,,,0,,69,85
10283,note_on,13,0,1,,,,,,,,,0,,69,0
10284,note_on,1,0,1,,,,,,,,,0,,67,85
10320,note_on,36,0,1,,,,,,,,,0,,62,85
10328,note_on,120,0,2,,,,,,,,,1,,50,0
10379,note_on,59,0,1,,,,,,,,,0,,67,0
10380,note_on,1,0,1,,,,,,,,,0,,69,85
10424,note_on,44,0,1,,,,,,,,,0,,62,0
10432,note_on,8,0,1,,,,,,,,,0,,69,0
10440,note_on,0,0,2,,,,,,,,,1,,45,85
10440,note_on,112,0,2,,,,,,,,,1,,46,0
10448,note_on,16,0,1,,,,,,,,,0,,62,85
10456,note_on,8,0,1,,,,,,,,,0,,69,85
10488,note_on,32,0,1,,,,,,,,,0,,62,0
10500,note_on,12,0,1,,,,,,,,,0,,61,85
10560,note_on,0,0,1,,,,,,,,,0,,62,85
10560,note_on,60,0,1,,,,,,,,,0,,61,0
10620,note_on,0,0,1,,,,,,,,,0,,65,85
10620,note_on,60,0,1,,,,,,,,,0,,62,0
10680,note_on,0,0,1,,,,,,,,,0,,64,85
10680,note_on,60,0,1,,,,,,,,,0,,65,0
10740,note_on,60,0,1,,,,,,,,,0,,64,0
10740,note_on,0,0,1,,,,,,,,,0,,59,85
10798,set_tempo,5085,1,0,,,,,,635863,,,,,,
10800,note_on,60,0,1,,,,,,,,,0,,59,0
10800,note_on,0,0,1,,,,,,,,,0,,69,0
10807,set_tempo,9,1,0,,,,,,636943,,,,,,
10808,note_on,8,0,1,,,,,,,,,0,,61,85
10814,set_tempo,7,1,0,,,,,,638026,,,,,,
10816,note_on,8,0,1,,,,,,,,,0,,69,85
10823,set_tempo,9,1,0,,,,,,639114,,,,,,
10830,set_tempo,7,1,0,,,,,,640205,,,,,,
10836,set_tempo,6,1,0,,,,,,641300,,,,,,
10845,set_tempo,9,1,0,,,,,,642398,,,,,,
10852,set_tempo,7,1,0,,,,,,643501,,,,,,
10858,set_tempo,6,1,0,,,,,,644607,,,,,,
10860,note_on,0,0,2,,,,,,,,,1,,52,85
10860,note_on,420,0,2,,,,,,,,,1,,45,0
10867,set_tempo,9,1,0,,,,,,645717,,,,,,
10874,set_tempo,7,1,0,,,,,,646831,,,,,,
10880,set_tempo,6,1,0,,,,,,647948,,,,,,
10890,set_tempo,10,1,0,,,,,,649070,,,,,,
10896,set_tempo,6,1,0,,,,,,650195,,,,,,
10905,set_tempo,9,1,0,,,,,,651324,,,,,,
10912,set_tempo,7,1,0,,,,,,652458,,,,,,
10918,set_tempo,6,1,0,,,,,,653595,,,,,,
10920,note_on,0,0,2,,,,,,,,,1,,55,85
10920,note_on,60,0,2,,,,,,,,,1,,52,0
10927,set_tempo,9,1,0,,,,,,654736,,,,,,
10934,set_tempo,7,1,0,,,,,,655881,,,,,,
10940,set_tempo,6,1,0,,,,,,657030,,,,,,
10950,set_tempo,10,1,0,,,,,,658183,,,,,,
10956,set_tempo,6,1,0,,,,,,659341,,,,,,
10958,note_on,142,0,1,,,,,,,,,0,,61,0
10962,set_tempo,6,1,0,,,,,,660502,,,,,,
10972,set_tempo,10,1,0,,,,,,661667,,,,,,
10978,set_tempo,6,1,0,,,,,,662837,,,,,,
10980,note_on,0,0,2,,,,,,,,,1,,58,85
10980,note_on,60,0,2,,,,,,,,,1,,55,0
10987,set_tempo,9,1,0,,,,,,664011,,,,,,
10994,set_tempo,7,1,0,,,,,,665188,,,,,,
11000,set_tempo,6,1,0,,,,,,666371,,,,,,
11010,set_tempo,10,1,0,,,,,,667557,,,,,,
11016,set_tempo,6,1,0,,,,,,668747,,,,,,
11022,set_tempo,6,1,0,,,,,,669942,,,,,,
11032,set_tempo,10,1,0,,,,,,671141,,,,,,
11036,set_tempo,4,1,0,,,,,,671141,,,,,,
11038,set_tempo,2,1,0,,,,,,721501,,,,,,
11040,note_on,82,0,1,,,,,,,,,0,,61,85
11040,note_on,0,0,2,,,,,,,,,1,,57,85
11040,note_on,60,0,2,,,,,,,,,1,,58,0
11040,set_tempo,2,1,0,,,,,,781657,,,,,,
11041,set_tempo,1,1,0,,,,,,815661,,,,,,
11082,set_tempo,41,1,0,,,,,,813890,,,,,,
11085,note_on,45,0,2,,,,,,,,,1,,57,0
11085,note_on,45,0,1,,,,,,,,,0,,61,0
11088,note_on,3,0,1,,,,,,,,,0,,69,0
11091,set_tempo,9,1,0,,,,,,630517,,,,,,
11100,note_on,12,0,1,,,,,,,,,0,,74,85
11100,marker,9,1,0,,,,,,,,,,,,
11100,note_on,0,0,1,,,,,,,,,0,,65,85
11160,note_on,60,0,1,,,,,,,,,0,,65,0
11160,note_on,0,0,1,,,,,,,,,0,,74,0
11160,note_on,0,0,1,,,,,,,,,0,,64,85
11168,note_on,8,0,1,,,,,,,,,0,,73,85
11220,note_on,52,0,1,,,,,,,,,0,,64,0
11220,note_on,0,0,1,,,,,,,,,0,,55,85
11280,note_on,195,0,2,,,,,,,,,1,,57,85
11280,note_on,60,0,1,,,,,,,,,0,,55,0
11340,note_on,60,0,1,,,,,,,,,0,,71,85
11340,note_on,0,0,1,,,,,,,,,0,,62,85
11348,note_on,8,0,1,,,,,,,,,0,,73,0
11400,note_on,0,0,1,,,,,,,,,0,,61,85
11400,note_on,0,0,1,,,,,,,,,0,,69,85
11400,note_on,0,0,1,,,,,,,,,0,,71,0
11400,note_on,52,0,1,,,,,,,,,0,,62,0
11440,note_on,160,0,2,,,,,,,,,1,,57,0
11460,note_on,60,0,1,,,,,,,,,0,,69,0
11460,note_on,0,0,1,,,,,,,,,0,,79,85
11460,note_on,20,0,2,,,,,,,,,1,,57,85
11520,note_on,60,0,2,,,,,,,,,1,,57,0
11520,note_on,60,0,1,,,,,,,,,0,,79,0
11520,note_on,0,0,1,,,,,,,,,0,,61,0
11520,note_on,0,0,1,,,,,,,,,0,,77,85
11520,note_on,0,0,2,,,,,,,,,1,,50,85
11580,note_on,60,0,2,,,,,,,,,1,,57,85
11640,note_on,60,0,2,,,,,,,,,1,,57,0
11640,note_on,0,0,2,,,,,,,,,1,,62,85
11700,note_on,0,0,1,,,,,,,,,0,,76,85
11700,note_on,180,0,1,,,,,,,,,0,,77,0
11700,note_on,0,0,2,,,,,,,,,1,,60,85
11700,note_on,60,0,2,,,,,,,,,1,,50,0
11760,note_on,60,0,1,,,,,,,,,0,,76,0
11760,note_on,0,0,2,,,,,,,,,1,,59,85
11760,note_on,0,0,2,,,,,,,,,1,,62,0
11760,note_on,60,0,2,,,,,,,,,1,,60,0
11760,note_on,0,0,1,,,,,,,,,0,,74,85
11820,note_on,60,0,1,,,,,,,,,0,,74,0
11820,note_on,0,0,1,,,,,,,,,0,,72,85
11820,note_on,0,0,2,,,,,,,,,1,,57,85
11820,note_on,60,0,2,,,,,,,,,1,,59,0
11820,note_on,0,0,1,,,,,,,,,0,,66,85
11880,note_on,0,0,2,,,,,,,,,1,,55,85
11880,note_on,60,0,2,,,,,,,,,1,,57,0
11880,note_on,60,0,1,,,,,,,,,0,,66,0
11880,note_on,0,0,1,,,,,,,,,0,,72,0
11888,note_on,8,0,1,,,,,,,,,0,,67,85
11896,note_on,8,0,1,,,,,,,,,0,,71,85
11940,note_on,44,0,1,,,,,,,,,0,,62,85
11948,note_on,8,0,1,,,,,,,,,0,,67,0
12000,note_on,0,0,1,,,,,,,,,0,,67,85
12000,note_on,52,0,1,,,,,,,,,0,,62,0
12048,note_on,48,0,1,,,,,,,,,0,,71,0
12060,note_on,0,0,1,,,,,,,,,0,,65,85
12060,note_on,0,0,1,,,,,,,,,0,,69,85
12060,note_on,12,0,1,,,,,,,,,0,,67,0
12120,note_on,240,0,2,,,,,,,,,1,,55,0
12120,note_on,60,0,1,,,,,,,,,0,,65,0
12120,note_on,0,0,1,,,,,,,,,0,,67,85
12120,note_on,0,0,1,,,,,,,,,0,,64,85
12120,note_on,0,0,1,,,,,,,,,0,,69,0
12180,note_on,0,0,1,,,,,,,,,0,,67,0
12180,note_on,0,0,1,,,,,,,,,0,,77,85
12180,note_on,0,0,1,,,,,,,,,0,,71,85
12180,note_on,0,0,1,,,,,,,,,0,,62,85
12180,note_on,60,0,1,,,,,,,,,0,,64,0
12240,note_on,60,0,1,,,,,,,,,0,,62,0
12240,note_on,0,0,1,,,,,,,,,0,,71,0
12240,note_on,0,0,1,,,,,,,,,0,,77,0
12240,note_on,120,0,2,,,,,,,,,1,,60,85
12248,note_on,8,0,1,,,,,,,,,0,,72,85
12256,note_on,8,0,1,,,,,,,,,0,,76,85
12300,note_on,60,0,2,,,,,,,,,1,,55,85
12360,note_on,0,0,2,,,,,,,,,1,,48,85
12360,note_on,60,0,2,,,,,,,,,1,,55,0
12408,note_on,152,0,1,,,,,,,,,0,,72,0
12416,note_on,8,0,1,,,,,,,,,0,,76,0
12420,note_on,4,0,1,,,,,,,,,0,,74,85
12420,note_on,0,0,1,,,,,,,,,0,,70,85
12480,note_on,60,0,1,,,,,,,,,0,,70,0
12480,note_on,0,0,1,,,,,,,,,0,,74,0
12480,note_on,0,0,1,,,,,,,,,0,,72,85
12480,note_on,0,0,1,,,,,,,,,0,,69,85
12480,note_on,0,0,2,,,,,,,,,1,,60,85
12480,note_on,120,0,2,,,,,,,,,1,,60,0
12540,note_on,0,0,1,,,,,,,,,0,,67,85
12540,note_on,60,0,1,,,,,,,,,0,,69,0
12540,note_on,0,0,1,,,,,,,,,0,,72,0
12540,note_on,0,0,1,,,,,,,,,0,,70,85
12600,note_on,60,0,1,,,,,,,,,0,,67,0
12600,note_on,0,0,1,,,,,,,,,0,,70,0
12600,note_on,120,0,2,,,,,,,,,1,,60,0
12600,note_on,0,0,2,,,,,,,,,1,,48,0
12600,note_on,0,0,2,,,,,,,,,1,,48,85
12608,note_on,8,0,2,,,,,,,,,1,,60,85
12616,note_on,16,0,1,,,,,,,,,0,,66,85
12624,note_on,8,0,1,,,,,,,,,0,,69,85
12780,note_on,156,0,1,,,,,,,,,0,,74,85
12780,note_on,0,0,1,,,,,,,,,0,,70,85
12784,note_on,4,0,1,,,,,,,,,0,,69,0
12784,note_on,0,0,1,,,,,,,,,0,,66,0
12808,note_on,200,0,2,,,,,,,,,1,,48,0
12824,note_on,16,0,2,,,,,,,,,1,,60,0
12840,note_on,0,0,1,,,,,,,,,0,,70,0
12840,note_on,56,0,1,,,,,,,,,0,,74,0
12840,note_on,16,0,2,,,,,,,,,1,,48,85
12848,note_on,8,0,2,,,,,,,,,1,,60,85
12856,note_on,16,0,1,,,,,,,,,0,,66,85
12864,note_on,8,0,1,,,,,,,,,0,,69,85
12896,note_on,32,0,1,,,,,,,,,0,,69,0
12896,note_on,0,0,1,,,,,,,,,0,,66,0
12900,note_on,4,0,1,,,,,,,,,0,,70,85
12900,note_on,0,0,1,,,,,,,,,0,,67,85
12952,note_on,104,0,2,,,,,,,,,1,,60,0
12960,note_on,0,0,1,,,,,,,,,0,,70,0
12960,note_on,60,0,1,,,,,,,,,0,,67,0
12960,note_on,0,0,2,,,,,,,,,1,,48,85
12960,note_on,8,0,2,,,,,,,,,1,,48,0
12968,note_on,8,0,2,,,,,,,,,1,,55,85
12976,note_on,16,0,1,,,,,,,,,0,,64,85
12984,note_on,8,0,1,,,,,,,,,0,,70,85
13128,note_on,144,0,1,,,,,,,,,0,,70,0
13140,note_on,12,0,1,,,,,,,,,0,,72,85
13200,note_on,0,0,2,,,,,,,,,1,,45,85
13200,note_on,232,0,2,,,,,,,,,1,,55,0
13200,note_on,60,0,1,,,,,,,,,0,,72,0
13200,note_on,0,0,1,,,,,,,,,0,,64,0
13200,note_on,0,0,2,,,,,,,,,1,,48,0
13208,note_on,8,0,2,,,,,,,,,1,,53,85
13216,note_on,16,0,1,,,,,,,,,0,,65,85
13224,note_on,8,0,1,,,,,,,,,0,,74,85
13260,note_on,36,0,1,,,,,,,,,0,,72,85
13264,note_on,4,0,1,,,,,,,,,0,,74,0
13304,note_on,40,0,1,,,,,,,,,0,,65,0
13320,note_on,112,0,2,,,,,,,,,1,,45,0
13320,note_on,0,0,2,,,,,,,,,1,,46,85
13320,note_on,16,0,1,,,,,,,,,0,,72,0
13320,note_on,0,0,1,,,,,,,,,0,,70,85
13328,note_on,8,0,1,,,,,,,,,0,,62,85
13336,note_on,8,0,1,,,,,,,,,0,,65,85
13350,note_on,0,0,1,,,,,,,,,0,,69,85
13350,note_on,14,0,1,,,,,,,,,0,,70,0
13380,note_on,0,0,1,,,,,,,,,0,,67,85
13380,note_on,30,0,1,,,,,,,,,0,,69,0
13416,note_on,36,0,1,,,,,,,,,0,,65,0
13440,note_on,24,0,1,,,,,,,,,0,,67,0
13440,note_on,0,0,2,,,,,,,,,1,,48,85
13440,note_on,0,0,1,,,,,,,,,0,,62,0
13440,note_on,120,0,2,,,,,,,,,1,,46,0
13448,note_on,8,0,1,,,,,,,,,0,,60,85
13456,note_on,8,0,1,,,,,,,,,0,,69,85
13552,note_on,112,0,2,,,,,,,,,1,,53,0
13559,text,103,1,1,,,,,,,,,,,,
13560,text,0,1,1,,,,,,,,,,,,
13560,note_on,0,0,1,,,,,,,,,0,,69,85
13560,note_on,1,0,1,,,,,,,,,0,,69,0
13560,note_on,8,0,2,,,,,,,,,1,,52,85
13587,note_on,27,0,1,,,,,,,,,0,,69,0
13588,note_on,1,0,1,,,,,,,,,0,,67,85
13601,note_on,13,0,1,,,,,,,,,0,,67,0
13602,note_on,1,0,1,,,,,,,,,0,,69,85
13608,note_on,6,0,1,,,,,,,,,0,,60,0
13615,note_on,7,0,1,,,,,,,,,0,,69,0
13616,note_on,1,0,1,,,,,,,,,0,,67,85
13620,note_on,4,0,1,,,,,,,,,0,,58,85
13649,note_on,29,0,1,,,,,,,,,0,,67,0
13650,note_on,1,0,1,,,,,,,,,0,,65,85
13680,note_on,0,0,2,,,,,,,,,1,,53,85
13680,note_on,120,0,2,,,,,,,,,1,,52,0
13680,note_on,0,0,2,,,,,,,,,1,,41,85
13680,note_on,0,0,2,,,,,,,,,1,,48,0
13680,note_on,0,0,1,,,,,,,,,0,,58,0
13680,note_on,30,0,1,,,,,,,,,0,,65,0
13688,note_on,8,0,1,,,,,,,,,0,,57,85
13696,note_on,8,0,1,,,,,,,,,0,,65,85
13740,note_on,60,0,2,,,,,,,,,1,,53,0
13740,note_on,0,0,2,,,,,,,,,1,,55,85
13800,note_on,0,0,2,,,,,,,,,1,,57,85
13800,note_on,60,0,2,,,,,,,,,1,,55,0
13848,note_on,48,0,2,,,,,,,,,1,,57,0
13856,note_on,160,0,1,,,,,,,,,0,,57,0
13860,note_on,4,0,1,,,,,,,,,0,,64,85
13860,note_on,0,0,2,,,,,,,,,1,,43,85
13860,note_on,0,0,2,,,,,,,,,1,,58,85
13860,note_on,12,0,2,,,,,,,,,1,,41,0
13864,note_on,4,0,1,,,,,,,,,0,,65,0
13920,note_on,60,0,2,,,,,,,,,1,,43,0
13920,note_on,0,0,2,,,,,,,,,1,,60,85
13920,note_on,0,0,1,,,,,,,,,0,,65,85
13920,note_on,56,0,1,,,,,,,,,0,,64,0
13920,note_on,0,0,2,,,,,,,,,1,,58,0
13920,note_on,0,0,2,,,,,,,,,1,,45,85
13980,note_on,0,0,2,,,,,,,,,1,,60,0
13980,note_on,0,0,2,,,,,,,,,1,,62,85
13980,note_on,0,0,2,,,,,,,,,1,,46,85
13980,note_on,60,0,2,,,,,,,,,1,,45,0
13980,note_on,60,0,1,,,,,,,,,0,,65,0
13980,note_on,0,0,1,,,,,,,,,0,,67,85
14040,note_on,60,0,1,,,,,,,,,0,,67,0
14040,note_on,60,0,2,,,,,,,,,1,,46,0
14040,note_on,0,0,2,,,,,,,,,1,,62,0
14040,note_on,0,0,2,,,,,,,,,1,,48,85
14048,note_on,8,0,2,,,,,,,,,1,,55,85
14056,note_on,16,0,1,,,,,,,,,0,,64,85
14096,note_on,40,0,1,,,,,,,,,0,,64,0
14100,note_on,52,0,2,,,,,,,,,1,,48,0
14100,note_on,4,0,1,,,,,,,,,0,,62,85
14100,note_on,0,0,2,,,,,,,,,1,,46,85
14152,note_on,52,0,2,,,,,,,,,1,,55,0
14160,note_on,60,0,1,,,,,,,,,0,,62,0
14160,note_on,8,0,2,,,,,,,,,1,,46,0
14160,note_on,0,0,2,,,,,,,,,1,,45,85
14168,note_on,8,0,1,,,,,,,,,0,,60,85
14176,note_on,8,0,1,,,,,,,,,0,,72,85
14220,note_on,0,0,2,,,,,,,,,1,,46,85
14220,note_on,44,0,1,,,,,,,,,0,,62,85
14220,note_on,60,0,2,,,,,,,,,1,,45,0
14228,note_on,8,0,1,,,,,,,,,0,,60,0
14280,note_on,60,0,2,,,,,,,,,1,,46,0
14280,note_on,0,0,1,,,,,,,,,0,,64,85
14280,note_on,52,0,1,,,,,,,,,0,,62,0
14280,note_on,0,0,2,,,,,,,,,1,,48,85
14328,note_on,48,0,1,,,,,,,,,0,,72,0
14340,note_on,60,0,2,,,,,,,,,1,,48,0
14340,note_on,0,0,2,,,,,,,,,1,,50,85
14340,note_on,0,0,1,,,,,,,,,0,,66,85
14340,note_on,12,0,1,,,,,,,,,0,,64,0
14340,note_on,0,0,1,,,,,,,,,0,,72,85
14400,note_on,0,0,1,,,,,,,,,0,,72,0
14400,note_on,60,0,2,,,,,,,,,1,,50,0
14400,note_on,0,0,2,,,,,,,,,1,,43,85
14400,note_on,60,0,1,,,,,,,,,0,,66,0
14408,note_on,8,0,1,,,,,,,,,0,,67,85
14408,note_on,0,0,1,,,,,,,,,0,,70,85
14408,note_on,8,0,2,,,,,,,,,1,,55,85
14448,note_on,40,0,1,,,,,,,,,0,,70,0
14456,note_on,48,0,2,,,,,,,,,1,,55,0
14460,note_on,12,0,1,,,,,,,,,0,,69,85
14460,note_on,4,0,2,,,,,,,,,1,,57,85
14504,note_on,44,0,1,,,,,,,,,0,,67,0
14520,note_on,60,0,2,,,,,,,,,1,,57,0
14520,note_on,0,0,2,,,,,,,,,1,,55,85
14520,note_on,0,0,2,,,,,,,,,1,,43,0
14520,note_on,16,0,1,,,,,,,,,0,,69,0
14520,note_on,0,0,2,,,,,,,,,1,,58,85
14520,note_on,0,0,1,,,,,,,,,0,,67,85
14580,note_on,60,0,2,,,,,,,,,1,,58,0
14580,note_on,0,0,2,,,,,,,,,1,,60,85
14580,note_on,60,0,1,,,,,,,,,0,,67,0
14580,note_on,0,0,1,,,,,,,,,0,,69,85
14640,note_on,0,0,1,,,,,,,,,0,,70,85
14640,note_on,60,0,2,,,,,,,,,1,,60,0
14640,note_on,0,0,2,,,,,,,,,1,,62,85
14640,note_on,60,0,1,,,,,,,,,0,,69,0
14688,note_on,48,0,2,,,,,,,,,1,,55,0
14700,note_on,12,0,2,,,,,,,,,1,,62,0
14700,note_on,0,0,2,,,,,,,,,1,,64,85
14700,note_on,60,0,1,,,,,,,,,0,,70,0
14700,note_on,0,0,1,,,,,,,,,0,,72,85
14700,note_on,0,0,2,,,,,,,,,1,,55,85
14760,note_on,60,0,2,,,,,,,,,1,,55,0
14760,note_on,60,0,1,,,,,,,,,0,,72,0
14760,note_on,0,0,2,,,,,,,,,1,,64,0
14760,note_on,0,0,2,,,,,,,,,1,,50,85
14768,note_on,8,0,1,,,,,,,,,0,,65,85
14776,note_on,8,0,1,,,,,,,,,0,,69,85
14816,note_on,40,0,1,,,,,,,,,0,,65,0
14820,note_on,4,0,1,,,,,,,,,0,,64,85
14824,note_on,4,0,1,,,,,,,,,0,,69,0
14880,note_on,0,0,1,,,,,,,,,0,,62,85
14880,note_on,56,0,1,,,,,,,,,0,,64,0
14880,note_on,0,0,1,,,,,,,,,0,,74,85
14880,note_on,120,0,2,,,,,,,,,1,,50,0
14880,note_on,0,0,2,,,,,,,,,1,,58,85
14940,note_on,60,0,1,,,,,,,,,0,,62,0
14940,note_on,0,0,1,,,,,,,,,0,,74,0
14940,note_on,0,0,1,,,,,,,,,0,,73,85
14940,note_on,0,0,1,,,,,,,,,0,,64,85
15000,note_on,0,0,1,,,,,,,,,0,,65,85
15000,note_on,0,0,1,,,,,,,,,0,,74,85
15000,note_on,0,0,1,,,,,,,,,0,,73,0
15000,note_on,60,0,1,,,,,,,,,0,,64,0
15048,note_on,168,0,2,,,,,,,,,1,,58,0
15060,note_on,60,0,1,,,,,,,,,0,,65,0
15060,note_on,12,0,2,,,,,,,,,1,,58,85
15060,note_on,0,0,1,,,,,,,,,0,,67,85
15060,note_on,0,0,1,,,,,,,,,0,,76,85
15060,note_on,0,0,1,,,,,,,,,0,,74,0
15120,note_on,60,0,2,,,,,,,,,1,,58,0
15120,note_on,60,0,1,,,,,,,,,0,,67,0
15120,note_on,0,0,1,,,,,,,,,0,,76,0
15120,note_on,0,0,2,,,,,,,,,1,,57,85
15128,note_on,8,0,1,,,,,,,,,0,,69,85
15136,note_on,8,0,1,,,,,,,,,0,,73,85
15180,note_on,0,0,2,,,,,,,,,1,,55,85
15180,note_on,44,0,1,,,,,,,,,0,,71,85
15180,note_on,60,0,2,,,,,,,,,1,,57,0
15196,note_on,16,0,1,,,,,,,,,0,,73,0
15240,note_on,0,0,1,,,,,,,,,0,,73,85
15240,note_on,0,0,2,,,,,,,,,1,,57,85
15240,note_on,60,0,2,,,,,,,,,1,,55,0
15240,note_on,44,0,1,,,,,,,,,0,,71,0
15240,note_on,0,0,1,,,,,,,,,0,,81,85
15248,note_on,8,0,1,,,,,,,,,0,,69,0
15300,note_on,0,0,1,,,,,,,,,0,,74,85
15300,note_on,52,0,1,,,,,,,,,0,,73,0
15300,note_on,0,0,2,,,,,,,,,1,,59,85
15300,note_on,60,0,2,,,,,,,,,1,,57,0
15360,note_on,0,0,1,,,,,,,,,0,,76,85
15360,note_on,0,0,2,,,,,,,,,1,,61,85
15360,note_on,60,0,2,,,,,,,,,1,,59,0
15360,note_on,60,0,1,,,,,,,,,0,,74,0
15420,note_on,0,0,2,,,,,,,,,1,,57,85
15420,note_on,60,0,2,,,,,,,,,1,,61,0
15420,note_on,0,0,1,,,,,,,,,0,,81,0
15420,note_on,0,0,1,,,,,,,,,0,,79,85
15420,note_on,0,0,1,,,,,,,,,0,,73,85
15420,note_on,60,0,1,,,,,,,,,0,,76,0
15480,note_on,60,0,2,,,,,,,,,1,,57,0
15480,note_on,60,0,1,,,,,,,,,0,,73,0
15480,note_on,0,0,1,,,,,,,,,0,,79,0
15480,note_on,0,0,2,,,,,,,,,1,,62,85
15488,note_on,8,0,1,,,,,,,,,0,,69,85
15496,note_on,8,0,1,,,,,,,,,0,,77,85
15540,note_on,44,0,1,,,,,,,,,0,,74,85
15556,note_on,16,0,1,,,,,,,,,0,,77,0
15600,note_on,120,0,2,,,,,,,,,1,,62,0
15600,note_on,0,0,1,,,,,,,,,0,,78,85
15600,note_on,44,0,1,,,,,,,,,0,,74,0
15600,note_on,0,0,2,,,,,,,,,1,,50,85
15660,note_on,60,0,1,,,,,,,,,0,,72,85
15668,note_on,8,0,1,,,,,,,,,0,,69,0
15720,note_on,52,0,1,,,,,,,,,0,,72,0
15720,note_on,0,0,1,,,,,,,,,0,,70,85
15768,note_on,48,0,1,,,,,,,,,0,,78,0
15780,note_on,0,0,1,,,,,,,,,0,,78,85
15780,note_on,0,0,1,,,,,,,,,0,,69,85
15780,note_on,12,0,1,,,,,,,,,0,,70,0
15780,note_on,180,0,2,,,,,,,,,1,,50,0
15780,note_on,0,0,2,,,,,,,,,1,,62,85
15840,note_on,60,0,1,,,,,,,,,0,,69,0
15840,note_on,0,0,1,,,,,,,,,0,,78,0
15840,note_on,60,0,2,,,,,,,,,1,,62,0
15840,note_on,0,0,2,,,,,,,,,1,,55,85
15848,note_on,8,0,1,,,,,,,,,0,,70,85
15856,note_on,8,0,1,,,,,,,,,0,,79,85
15900,note_on,44,0,1,,,,,,,,,0,,67,85
15908,note_on,8,0,1,,,,,,,,,0,,70,0
15960,note_on,0,0,1,,,,,,,,,0,,71,85
15960,note_on,52,0,1,,,,,,,,,0,,67,0
16020,note_on,180,0,2,,,,,,,,,1,,65,85
16080,note_on,60,0,2,,,,,,,,,1,,65,0
16080,note_on,0,0,2,,,,,,,,,1,,64,85
16128,note_on,168,0,1,,,,,,,,,0,,71,0
16140,note_on,12,0,1,,,,,,,,,0,,71,85
16140,note_on,60,0,2,,,,,,,,,1,,64,0
16140,note_on,0,0,2,,,,,,,,,1,,62,85
16200,note_on,60,0,2,,,,,,,,,1,,62,0
16200,note_on,0,0,2,,,,,,,,,1,,55,0
16200,note_on,60,0,1,,,,,,,,,0,,71,0
16200,note_on,0,0,2,,,,,,,,,1,,60,85
16208,note_on,8,0,2,,,,,,,,,1,,64,85
16216,note_on,16,0,1,,,,,,,,,0,,72,85
16256,note_on,40,0,1,,,,,,,,,0,,79,0
16260,note_on,4,0,1,,,,,,,,,0,,77,85
16304,note_on,96,0,2,,,,,,,,,1,,64,0
16312,note_on,8,0,2,,,,,,,,,1,,60,0
16320,note_on,60,0,1,,,,,,,,,0,,77,0
16320,note_on,0,0,1,,,,,,,,,0,,72,0
16320,note_on,0,0,1,,,,,,,,,0,,76,85
16320,note_on,8,0,2,,,,,,,,,1,,48,85
16328,note_on,8,0,2,,,,,,,,,1,,60,85
16336,note_on,16,0,1,,,,,,,,,0,,67,85
16380,note_on,44,0,1,,,,,,,,,0,,76,0
16380,note_on,0,0,1,,,,,,,,,0,,74,85
16440,note_on,60,0,1,,,,,,,,,0,,74,0
16440,note_on,0,0,1,,,,,,,,,0,,72,85
16500,note_on,60,0,1,,,,,,,,,0,,72,0
16500,note_on,172,0,2,,,,,,,,,1,,48,0
16500,note_on,0,0,2,,,,,,,,,1,,52,85
16500,note_on,0,0,1,,,,,,,,,0,,70,85
16552,note_on,52,0,2,,,,,,,,,1,,60,0
16560,note_on,60,0,1,,,,,,,,,0,,70,0
16560,note_on,8,0,2,,,,,,,,,1,,52,0
16560,note_on,0,0,2,,,,,,,,,1,,53,85
16568,note_on,8,0,1,,,,,,,,,0,,69,85
16620,note_on,52,0,1,,,,,,,,,0,,60,85
16624,note_on,4,0,1,,,,,,,,,0,,67,0
16680,note_on,120,0,2,,,,,,,,,1,,41,85
16680,note_on,0,0,1,,,,,,,,,0,,65,85
16680,note_on,56,0,1,,,,,,,,,0,,60,0
16720,note_on,40,0,1,,,,,,,,,0,,69,0
16740,note_on,20,0,1,,,,,,,,,0,,69,85
16784,note_on,104,0,2,,,,,,,,,1,,53,0
16784,note_on,44,0,1,,,,,,,,,0,,69,0
16800,note_on,16,0,1,,,,,,,,,0,,65,0
16800,note_on,0,0,2,,,,,,,,,1,,53,85
16800,note_on,16,0,2,,,,,,,,,1,,41,0
16808,note_on,8,0,1,,,,,,,,,0,,69,85
16808,note_on,8,0,2,,,,,,,,,1,,62,85
16840,note_on,32,0,1,,,,,,,,,0,,71,85
16848,note_on,8,0,1,,,,,,,,,0,,69,0
16880,note_on,32,0,1,,,,,,,,,0,,71,0
16880,note_on,0,0,1,,,,,,,,,0,,72,85
16920,note_on,112,0,2,,,,,,,,,1,,62,0
16920,note_on,40,0,1,,,,,,,,,0,,72,0
16920,note_on,0,0,1,,,,,,,,,0,,71,85
16928,note_on,8,0,2,,,,,,,,,1,,55,85
16952,note_on,32,0,1,,,,,,,,,0,,71,0
16960,note_on,8,0,1,,,,,,,,,0,,73,85
17000,note_on,40,0,1,,,,,,,,,0,,73,0
17000,note_on,0,0,1,,,,,,,,,0,,74,85
17040,note_on,0,0,2,,,,,,,,,1,,52,85
17040,note_on,112,0,2,,,,,,,,,1,,53,0
17040,note_on,40,0,1,,,,,,,,,0,,74,0
17040,note_on,0,0,1,,,,,,,,,0,,73,85
17100,note_on,60,0,1,,,,,,,,,0,,73,0
17100,note_on,0,0,1,,,,,,,,,0,,74,85
17152,note_on,112,0,2,,,,,,,,,1,,55,0
17160,note_on,0,0,2,,,,,,,,,1,,53,85
17160,text,0,1,1,,,,,,,,,,,,
17160,note_on,8,0,2,,,,,,,,,1,,52,0
17160,note_on,0,0,1,,,,,,,,,0,,76,85
17160,note_on,0,0,2,,,,,,,,,1,,50,85
17160,note_on,60,0,1,,,,,,,,,0,,74,0
17187,note_on,27,0,1,,,,,,,,,0,,76,0
17188,note_on,1,0,1,,,,,,,,,0,,74,85
17201,note_on,13,0,1,,,,,,,,,0,,74,0
17202,note_on,1,0,1,,,,,,,,,0,,76,85
17215,note_on,13,0,1,,,,,,,,,0,,76,0
17216,note_on,1,0,1,,,,,,,,,0,,74,85
17249,note_on,33,0,1,,,,,,,,,0,,74,0
17250,note_on,1,0,1,,,,,,,,,0,,73,85
17265,note_on,0,0,1,,,,,,,,,0,,74,85
17265,note_on,15,0,1,,,,,,,,,0,,73,0
17280,note_on,15,0,1,,,,,,,,,0,,74,0
17280,note_on,0,0,1,,,,,,,,,0,,76,85
17280,note_on,0,0,2,,,,,,,,,1,,49,85
17280,note_on,0,0,2,,,,,,,,,1,,52,85
17280,note_on,0,0,2,,,,,,,,,1,,53,0
17280,note_on,120,0,2,,,,,,,,,1,,50,0
17340,note_on,60,0,1,,,,,,,,,0,,76,0
17340,note_on,0,0,1,,,,,,,,,0,,81,85
17400,note_on,60,0,1,,,,,,,,,0,,81,0
17400,text,0,1,1,,,,,,,,,,,,
17400,note_on,0,0,1,,,,,,,,,0,,79,85
17400,note_on,120,0,2,,,,,,,,,1,,49,0
17400,note_on,0,0,2,,,,,,,,,1,,52,0
17400,note_on,0,0,2,,,,,,,,,1,,48,85
17408,note_on,8,0,2,,,,,,,,,1,,57,85
17427,note_on,27,0,1,,,,,,,,,0,,79,0
17428,note_on,1,0,1,,,,,,,,,0,,78,85
17441,note_on,13,0,1,,,,,,,,,0,,78,0
17442,note_on,1,0,1,,,,,,,,,0,,79,85
17455,note_on,13,0,1,,,,,,,,,0,,79,0
17456,note_on,1,0,1,,,,,,,,,0,,78,85
17469,note_on,13,0,1,,,,,,,,,0,,78,0
17470,note_on,1,0,1,,,,,,,,,0,,79,85
17483,note_on,13,0,1,,,,,,,,,0,,79,0
17484,note_on,1,0,1,,,,,,,,,0,,78,85
17579,note_on,95,0,1,,,,,,,,,0,,78,0
17580,note_on,1,0,1,,,,,,,,,0,,76,85
17610,note_on,30,0,1,,,,,,,,,0,,76,0
17610,note_on,0,0,1,,,,,,,,,0,,74,85
17632,note_on,224,0,2,,,,,,,,,1,,57,0
17640,note_on,30,0,1,,,,,,,,,0,,74,0
17640,note_on,0,0,2,,,,,,,,,1,,46,85
17640,note_on,8,0,2,,,,,,,,,1,,48,0
17640,note_on,0,0,1,,,,,,,,,0,,79,85
17640,text,0,1,1,,,,,,,,,,,,
17667,note_on,27,0,1,,,,,,,,,0,,79,0
17668,note_on,1,0,1,,,,,,,,,0,,78,85
17681,note_on,13,0,1,,,,,,,,,0,,78,0
17682,note_on,1,0,1,,,,,,,,,0,,79,85
17695,note_on,13,0,1,,,,,,,,,0,,79,0
17696,note_on,1,0,1,,,,,,,,,0,,78,85
17700,note_on,60,0,2,,,,,,,,,1,,50,85
17709,note_on,13,0,1,,,,,,,,,0,,78,0
17710,note_on,1,0,1,,,,,,,,,0,,79,85
17760,note_on,60,0,2,,,,,,,,,1,,50,0
17760,note_on,0,0,2,,,,,,,,,1,,55,85
17819,note_on,109,0,1,,,,,,,,,0,,79,0
17820,note_on,1,0,1,,,,,,,,,0,,73,85
17880,note_on,120,0,2,,,,,,,,,1,,46,0
17880,note_on,0,0,1,,,,,,,,,0,,74,85
17880,note_on,0,0,2,,,,,,,,,1,,46,85
17880,note_on,60,0,1,,,,,,,,,0,,73,0
17940,note_on,60,0,1,,,,,,,,,0,,74,0
17940,note_on,0,0,1,,,,,,,,,0,,76,85
18000,note_on,60,0,1,,,,,,,,,0,,76,0
18000,note_on,0,0,2,,,,,,,,,1,,45,85
18000,note_on,0,0,2,,,,,,,,,1,,55,0
18000,note_on,120,0,2,,,,,,,,,1,,46,0
18008,note_on,8,0,1,,,,,,,,,0,,61,85
18016,note_on,8,0,1,,,,,,,,,0,,67,85
18060,note_on,60,0,2,,,,,,,,,1,,52,85
18120,note_on,0,0,2,,,,,,,,,1,,57,85
18120,note_on,60,0,2,,,,,,,,,1,,52,0
18180,note_on,0,0,2,,,,,,,,,1,,55,85
18180,note_on,60,0,2,,,,,,,,,1,,57,0
18180,note_on,164,0,1,,,,,,,,,0,,70,85
18184,note_on,4,0,1,,,,,,,,,0,,67,0
18232,note_on,48,0,1,,,,,,,,,0,,61,0
18240,note_on,8,0,1,,,,,,,,,0,,70,0
18240,note_on,0,0,1,,,,,,,,,0,,69,85
18240,note_on,0,0,2,,,,,,,,,1,,45,0
18240,note_on,60,0,2,,,,,,,,,1,,55,0
18240,note_on,0,0,2,,,,,,,,,1,,53,85
18300,note_on,0,0,2,,,,,,,,,1,,52,85
18300,note_on,60,0,2,,,,,,,,,1,,53,0
18300,note_on,60,0,1,,,,,,,,,0,,69,0
18300,note_on,0,0,1,,,,,,,,,0,,73,85
18300,note_on,0,0,1,,,,,,,,,0,,67,85
18340,set_tempo,7240,1,0,,,,,,632644,,,,,,
18355,set_tempo,15,1,0,,,,,,633714,,,,,,
18360,note_on,60,0,1,,,,,,,,,0,,67,0
18360,note_on,0,0,2,,,,,,,,,1,,50,85
18360,note_on,60,0,2,,,,,,,,,1,,52,0
18360,note_on,0,0,1,,,,,,,,,0,,73,0
18368,note_on,8,0,1,,,,,,,,,0,,65,85
18370,set_tempo,15,1,0,,,,,,634786,,,,,,
18376,note_on,8,0,1,,,,,,,,,0,,74,85
18385,set_tempo,15,1,0,,,,,,635863,,,,,,
18400,set_tempo,15,1,0,,,,,,636943,,,,,,
18415,set_tempo,15,1,0,,,,,,638026,,,,,,
18416,note_on,40,0,1,,,,,,,,,0,,65,0
18420,note_on,60,0,2,,,,,,,,,1,,50,0
18420,note_on,0,0,2,,,,,,,,,1,,43,85
18420,note_on,4,0,1,,,,,,,,,0,,64,85
18430,set_tempo,15,1,0,,,,,,639114,,,,,,
18440,set_tempo,10,1,0,,,,,,640205,,,,,,
18455,set_tempo,15,1,0,,,,,,641300,,,,,,
18470,set_tempo,15,1,0,,,,,,642398,,,,,,
18480,note_on,60,0,1,,,,,,,,,0,,64,0
18480,note_on,0,0,2,,,,,,,,,1,,45,85
18480,note_on,60,0,2,,,,,,,,,1,,43,0
18485,set_tempo,15,1,0,,,,,,643501,,,,,,
18488,note_on,8,0,1,,,,,,,,,0,,74,0
18488,note_on,0,0,1,,,,,,,,,0,,62,85
18496,note_on,8,0,1,,,,,,,,,0,,65,85
18500,set_tempo,15,1,0,,,,,,644607,,,,,,
18515,set_tempo,15,1,0,,,,,,645717,,,,,,
18530,set_tempo,15,1,0,,,,,,646831,,,,,,
18540,set_tempo,10,1,0,,,,,,647948,,,,,,
18540,note_on,60,0,2,,,,,,,,,1,,57,85
18555,set_tempo,15,1,0,,,,,,649070,,,,,,
18570,set_tempo,15,1,0,,,,,,650195,,,,,,
18585,set_tempo,15,1,0,,,,,,651324,,,,,,
18600,set_tempo,15,1,0,,,,,,652458,,,,,,
18600,note_on,0,0,1,,,,,,,,,0,,61,85
18600,note_on,0,0,1,,,,,,,,,0,,62,0
18600,note_on,104,0,1,,,,,,,,,0,,65,0
18608,note_on,8,0,1,,,,,,,,,0,,64,85
18615,set_tempo,15,1,0,,,,,,653595,,,,,,
18625,set_tempo,10,1,0,,,,,,654736,,,,,,
18640,set_tempo,15,1,0,,,,,,655881,,,,,,
18655,set_tempo,15,1,0,,,,,,657030,,,,,,
18660,note_on,120,0,2,,,,,,,,,1,,57,0
18660,note_on,0,0,2,,,,,,,,,1,,55,85
18670,set_tempo,15,1,0,,,,,,658183,,,,,,
18685,set_tempo,15,1,0,,,,,,659341,,,,,,
18700,set_tempo,15,1,0,,,,,,660502,,,,,,
18704,note_on,44,0,2,,,,,,,,,1,,45,0
18715,set_tempo,15,1,0,,,,,,661667,,,,,,
18720,note_on,16,0,2,,,,,,,,,1,,38,85
18720,note_on,112,0,1,,,,,,,,,0,,64,0
18720,note_on,0,0,1,,,,,,,,,0,,61,0
18725,set_tempo,10,1,0,,,,,,662837,,,,,,
18728,note_on,8,0,1,,,,,,,,,0,,62,85
18740,set_tempo,15,1,0,,,,,,664011,,,,,,
18755,set_tempo,15,1,0,,,,,,665188,,,,,,
18770,set_tempo,15,1,0,,,,,,666371,,,,,,
18780,note_on,0,0,2,,,,,,,,,1,,53,85
18780,note_on,60,0,2,,,,,,,,,1,,55,0
18785,set_tempo,15,1,0,,,,,,667557,,,,,,
18800,set_tempo,15,1,0,,,,,,668747,,,,,,
18810,set_tempo,10,1,0,,,,,,669942,,,,,,
18825,set_tempo,15,1,0,,,,,,671141,,,,,,
18840,set_tempo,15,1,0,,,,,,672344,,,,,,
18840,note_on,60,0,2,,,,,,,,,1,,53,0
18840,note_on,0,0,2,,,,,,,,,1,,55,85
18855,set_tempo,15,1,0,,,,,,673552,,,,,,
18870,set_tempo,15,1,0,,,,,,674764,,,,,,
18877,set_tempo,7,1,0,,,,,,675980,,,,,,
18900,note_on,60,0,2,,,,,,,,,1,,55,0
18900,note_on,0,0,2,,,,,,,,,1,,58,85
18960,note_on,60,0,2,,,,,,,,,1,,58,0
18960,note_on,0,0,2,,,,,,,,,1,,57,85
19020,note_on,60,0,2,,,,,,,,,1,,57,0
19020,note_on,0,0,2,,,,,,,,,1,,52,85
19047,set_tempo,170,1,0,,,,,,677201,,,,,,
19080,note_on,352,0,1,,,,,,,,,0,,62,0
19080,note_on,60,0,2,,,,,,,,,1,,52,0
19088,note_on,8,0,2,,,,,,,,,1,,53,85
19096,note_on,8,0,2,,,,,,,,,1,,57,85
19104,note_on,24,0,1,,,,,,,,,0,,62,85
19140,note_on,0,0,2,,,,,,,,,1,,49,85
19140,note_on,44,0,2,,,,,,,,,1,,38,0
19200,note_on,60,0,2,,,,,,,,,1,,49,0
19200,note_on,0,0,2,,,,,,,,,1,,50,85
19217,set_tempo,170,1,0,,,,,,678426,,,,,,
19260,note_on,60,0,2,,,,,,,,,1,,50,0
19260,note_on,0,0,2,,,,,,,,,1,,45,85
19318,set_tempo,101,1,0,,,,,,812128,,,,,,
19320,note_on,0,0,2,,,,,,,,,1,,38,85
19320,note_on,60,0,2,,,,,,,,,1,,45,0
19320,set_tempo,2,1,0,,,,,,810373,,,,,,
19348,set_tempo,28,1,0,,,,,,808625,,,,,,
19365,note_on,0,0,2,,,,,,,,,1,,53,0
19365,note_on,45,0,2,,,,,,,,,1,,57,0
19365,note_on,261,0,1,,,,,,,,,0,,62,0
19380,note_on,15,0,1,,,,,,,,,0,,74,85
19380,note_on,15,0,2,,,,,,,,,1,,38,0
19380,marker,0,1,0,,,,,,,,,,,,
19380,note_on,0,0,1,,,,,,,,,0,,65,85
19380,set_tempo,32,1,0,,,,,,684619,,,,,,
19382,set_tempo,2,1,0,,,,,,673552,,,,,,
19384,set_tempo,2,1,0,,,,,,662837,,,,,,
19385,set_tempo,1,1,0,,,,,,653595,,,,,,
19387,set_tempo,2,1,0,,,,,,643501,,,,,,
19388,set_tempo,1,1,0,,,,,,634786,,,,,,
19390,set_tempo,2,1,0,,,,,,633714,,,,,,
19440,note_on,60,0,1,,,,,,,,,0,,65,0
19440,note_on,0,0,1,,,,,,,,,0,,74,0
19440,note_on,0,0,1,,,,,,,,,0,,64,85
19448,note_on,8,0,1,,,,,,,,,0,,73,85
19500,note_on,52,0,1,,,,,,,,,0,,64,0
19500,note_on,0,0,1,,,,,,,,,0,,55,85
19560,note_on,180,0,2,,,,,,,,,1,,57,85
19560,note_on,60,0,1,,,,,,,,,0,,55,0
19620,note_on,0,0,1,,,,,,,,,0,,62,85
19620,note_on,60,0,1,,,,,,,,,0,,71,85
19628,note_on,8,0,1,,,,,,,,,0,,73,0
19680,note_on,52,0,1,,,,,,,,,0,,62,0
19680,note_on,0,0,1,,,,,,,,,0,,71,0
19680,note_on,0,0,1,,,,,,,,,0,,69,85
19680,note_on,0,0,1,,,,,,,,,0,,61,85
19720,note_on,160,0,2,,,,,,,,,1,,57,0
19740,note_on,0,0,1,,,,,,,,,0,,79,85
19740,note_on,60,0,1,,,,,,,,,0,,69,0
19740,note_on,20,0,2,,,,,,,,,1,,57,85
19800,note_on,0,0,1,,,,,,,,,0,,61,0
19800,note_on,60,0,1,,,,,,,,,0,,79,0
19800,note_on,60,0,2,,,,,,,,,1,,57,0
19800,note_on,0,0,2,,,,,,,,,1,,50,85
19800,note_on,0,0,1,,,,,,,,,0,,77,85
19860,note_on,60,0,2,,,,,,,,,1,,57,85
19920,note_on,60,0,2,,,,,,,,,1,,57,0
19920,note_on,0,0,2,,,,,,,,,1,,62,85
19980,note_on,180,0,1,,,,,,,,,0,,77,0
19980,note_on,0,0,1,,,,,,,,,0,,76,85
19980,note_on,60,0,2,,,,,,,,,1,,50,0
19980,note_on,0,0,2,,,,,,,,,1,,60,85
20040,note_on,60,0,2,,,,,,,,,1,,60,0
20040,note_on,0,0,2,,,,,,,,,1,,59,85
20040,note_on,60,0,1,,,,,,,,,0,,76,0
20040,note_on,0,0,1,,,,,,,,,0,,74,85
20040,note_on,0,0,2,,,,,,,,,1,,62,0
20100,note_on,60,0,2,,,,,,,,,1,,59,0
20100,note_on,60,0,1,,,,,,,,,0,,74,0
20100,note_on,0,0,1,,,,,,,,,0,,72,85
20100,note_on,0,0,1,,,,,,,,,0,,66,85
20100,note_on,0,0,2,,,,,,,,,1,,57,85
20160,note_on,0,0,1,,,,,,,,,0,,72,0
20160,note_on,60,0,1,,,,,,,,,0,,66,0
20160,note_on,0,0,2,,,,,,,,,1,,55,85
20160,note_on,60,0,2,,,,,,,,,1,,57,0
20168,note_on,8,0,1,,,,,,,,,0,,67,85
20176,note_on,8,0,1,,,,,,,,,0,,71,85
20220,note_on,44,0,1,,,,,,,,,0,,62,85
20228,note_on,8,0,1,,,,,,,,,0,,67,0
20280,note_on,52,0,1,,,,,,,,,0,,62,0
20280,note_on,0,0,1,,,,,,,,,0,,67,85
20328,note_on,48,0,1,,,,,,,,,0,,71,0
20340,note_on,0,0,1,,,,,,,,,0,,65,85
20340,note_on,0,0,1,,,,,,,,,0,,69,85
20340,note_on,12,0,1,,,,,,,,,0,,67,0
20400,note_on,0,0,1,,,,,,,,,0,,64,85
20400,note_on,0,0,1,,,,,,,,,0,,67,85
20400,note_on,60,0,1,,,,,,,,,0,,65,0
20400,note_on,0,0,1,,,,,,,,,0,,69,0
20400,note_on,240,0,2,,,,,,,,,1,,55,0
20460,note_on,60,0,1,,,,,,,,,0,,64,0
20460,note_on,0,0,1,,,,,,,,,0,,67,0
20460,note_on,0,0,1,,,,,,,,,0,,77,85
20460,note_on,0,0,1,,,,,,,,,0,,71,85
20460,note_on,0,0,1,,,,,,,,,0,,62,85
20520,note_on,60,0,1,,,,,,,,,0,,62,0
20520,note_on,120,0,2,,,,,,,,,1,,60,85
20520,note_on,0,0,1,,,,,,,,,0,,71,0
20520,note_on,0,0,1,,,,,,,,,0,,77,0
20528,note_on,8,0,1,,,,,,,,,0,,72,85
20536,note_on,8,0,1,,,,,,,,,0,,76,85
20580,note_on,60,0,2,,,,,,,,,1,,55,85
20640,note_on,0,0,2,,,,,,,,,1,,48,85
20640,note_on,60,0,2,,,,,,,,,1,,55,0
20688,note_on,152,0,1,,,,,,,,,0,,72,0
20696,note_on,8,0,1,,,,,,,,,0,,76,0
20700,note_on,4,0,1,,,,,,,,,0,,74,85
20700,note_on,0,0,1,,,,,,,,,0,,70,85
20760,note_on,120,0,2,,,,,,,,,1,,60,0
20760,note_on,0,0,2,,,,,,,,,1,,60,85
20760,note_on,60,0,1,,,,,,,,,0,,70,0
20760,note_on,0,0,1,,,,,,,,,0,,74,0
20760,note_on,0,0,1,,,,,,,,,0,,69,85
20760,note_on,0,0,1,,,,,,,,,0,,72,85
20820,note_on,0,0,1,,,,,,,,,0,,72,0
20820,note_on,0,0,1,,,,,,,,,0,,67,85
20820,note_on,0,0,1,,,,,,,,,0,,70,85
20820,note_on,60,0,1,,,,,,,,,0,,69,0
20880,note_on,0,0,2,,,,,,,,,1,,48,85
20880,note_on,0,0,2,,,,,,,,,1,,48,0
20880,note_on,120,0,2,,,,,,,,,1,,60,0
20880,note_on,0,0,1,,,,,,,,,0,,70,0
20880,note_on,60,0,1,,,,,,,,,0,,67,0
20888,note_on,8,0,2,,,,,,,,,1,,60,85
20896,note_on,16,0,1,,,,,,,,,0,,66,85
20904,note_on,8,0,1,,,,,,,,,0,,69,85
21060,note_on,0,0,1,,,,,,,,,0,,70,85
21060,note_on,156,0,1,,,,,,,,,0,,74,85
21064,note_on,4,0,1,,,,,,,,,0,,69,0
21064,note_on,0,0,1,,,,,,,,,0,,66,0
21088,note_on,200,0,2,,,,,,,,,1,,48,0
21104,note_on,16,0,2,,,,,,,,,1,,60,0
21120,note_on,56,0,1,,,,,,,,,0,,74,0
21120,note_on,16,0,2,,,,,,,,,1,,48,85
21120,note_on,0,0,1,,,,,,,,,0,,70,0
21128,note_on,8,0,2,,,,,,,,,1,,60,85
21136,note_on,16,0,1,,,,,,,,,0,,66,85
21144,note_on,8,0,1,,,,,,,,,0,,69,85
21176,note_on,32,0,1,,,,,,,,,0,,69,0
21176,note_on,0,0,1,,,,,,,,,0,,66,0
21180,note_on,4,0,1,,,,,,,,,0,,70,85
21180,note_on,0,0,1,,,,,,,,,0,,67,85
21232,note_on,104,0,2,,,,,,,,,1,,60,0
21240,note_on,0,0,2,,,,,,,,,1,,48,85
21240,note_on,8,0,2,,,,,,,,,1,,48,0
21240,note_on,0,0,1,,,,,,,,,0,,70,0
21240,note_on,60,0,1,,,,,,,,,0,,67,0
21248,note_on,8,0,2,,,,,,,,,1,,55,85
21256,note_on,16,0,1,,,,,,,,,0,,64,85
21264,note_on,8,0,1,,,,,,,,,0,,70,85
21408,note_on,144,0,1,,,,,,,,,0,,70,0
21420,note_on,12,0,1,,,,,,,,,0,,72,85
21480,note_on,60,0,1,,,,,,,,,0,,72,0
21480,note_on,0,0,1,,,,,,,,,0,,64,0
21480,note_on,0,0,2,,,,,,,,,1,,45,85
21480,note_on,0,0,2,,,,,,,,,1,,48,0
21480,note_on,232,0,2,,,,,,,,,1,,55,0
21488,note_on,8,0,2,,,,,,,,,1,,53,85
21496,note_on,16,0,1,,,,,,,,,0,,65,85
21504,note_on,8,0,1,,,,,,,,,0,,74,85
21540,note_on,36,0,1,,,,,,,,,0,,72,85
21544,note_on,4,0,1,,,,,,,,,0,,74,0
21584,note_on,40,0,1,,,,,,,,,0,,65,0
21600,note_on,0,0,1,,,,,,,,,0,,70,85
21600,note_on,16,0,1,,,,,,,,,0,,72,0
21600,note_on,112,0,2,,,,,,,,,1,,45,0
21600,note_on,0,0,2,,,,,,,,,1,,46,85
21608,note_on,8,0,1,,,,,,,,,0,,62,85
21616,note_on,8,0,1,,,,,,,,,0,,65,85
21630,note_on,14,0,1,,,,,,,,,0,,70,0
21630,note_on,0,0,1,,,,,,,,,0,,69,85
21660,note_on,0,0,1,,,,,,,,,0,,67,85
21660,note_on,30,0,1,,,,,,,,,0,,69,0
21696,note_on,36,0,1,,,,,,,,,0,,65,0
21720,note_on,0,0,2,,,,,,,,,1,,48,85
21720,note_on,120,0,2,,,,,,,,,1,,46,0
21720,note_on,24,0,1,,,,,,,,,0,,67,0
21720,note_on,0,0,1,,,,,,,,,0,,62,0
21728,note_on,8,0,1,,,,,,,,,0,,60,85
21736,note_on,8,0,1,,,,,,,,,0,,69,85
21832,note_on,112,0,2,,,,,,,,,1,,53,0
21839,text,103,1,1,,,,,,,,,,,,
21840,note_on,0,0,1,,,,,,,,,0,,69,85
21840,note_on,8,0,2,,,,,,,,,1,,52,85
21840,text,0,1,1,,,,,,,,,,,,
21840,note_on,1,0,1,,,,,,,,,0,,69,0
21867,note_on,27,0,1,,,,,,,,,0,,69,0
21868,note_on,1,0,1,,,,,,,,,0,,67,85
21881,note_on,13,0,1,,,,,,,,,0,,67,0
21882,note_on,1,0,1,,,,,,,,,0,,69,85
21888,note_on,6,0,1,,,,,,,,,0,,60,0
21895,note_on,7,0,1,,,,,,,,,0,,69,0
21896,note_on,1,0,1,,,,,,,,,0,,67,85
21900,note_on,4,0,1,,,,,,,,,0,,58,85
21929,note_on,29,0,1,,,,,,,,,0,,67,0
21930,note_on,1,0,1,,,,,,,,,0,,65,85
21960,note_on,0,0,2,,,,,,,,,1,,53,85
21960,note_on,0,0,2,,,,,,,,,1,,41,85
21960,note_on,0,0,1,,,,,,,,,0,,58,0
21960,note_on,30,0,1,,,,,,,,,0,,65,0
21960,note_on,120,0,2,,,,,,,,,1,,52,0
21960,note_on,0,0,2,,,,,,,,,1,,48,0
21968,note_on,8,0,1,,,,,,,,,0,,57,85
21976,note_on,8,0,1,,,,,,,,,0,,65,85
22020,note_on,60,0,2,,,,,,,,,1,,53,0
22020,note_on,0,0,2,,,,,,,,,1,,55,85
22080,note_on,60,0,2,,,,,,,,,1,,55,0
22080,note_on,0,0,2,,,,,,,,,1,,57,85
22128,note_on,48,0,2,,,,,,,,,1,,57,0
22136,note_on,160,0,1,,,,,,,,,0,,57,0
22140,note_on,0,0,2,,,,,,,,,1,,43,85
22140,note_on,0,0,2,,,,,,,,,1,,58,85
22140,note_on,12,0,2,,,,,,,,,1,,41,0
22140,note_on,4,0,1,,,,,,,,,0,,64,85
22144,note_on,4,0,1,,,,,,,,,0,,65,0
22200,note_on,0,0,2,,,,,,,,,1,,45,85
22200,note_on,0,0,2,,,,,,,,,1,,60,85
22200,note_on,0,0,2,,,,,,,,,1,,58,0
22200,note_on,60,0,2,,,,,,,,,1,,43,0
22200,note_on,56,0,1,,,,,,,,,0,,64,0
22200,note_on,0,0,1,,,,,,,,,0,,65,85
22260,note_on,0,0,2,,,,,,,,,1,,62,85
22260,note_on,0,0,1,,,,,,,,,0,,67,85
22260,note_on,60,0,1,,,,,,,,,0,,65,0
22260,note_on,0,0,2,,,,,,,,,1,,46,85
22260,note_on,0,0,2,,,,,,,,,1,,60,0
22260,note_on,60,0,2,,,,,,,,,1,,45,0
22320,note_on,60,0,1,,,,,,,,,0,,67,0
22320,note_on,0,0,2,,,,,,,,,1,,62,0
22320,note_on,0,0,2,,,,,,,,,1,,48,85
22320,note_on,60,0,2,,,,,,,,,1,,46,0
22328,note_on,8,0,2,,,,,,,,,1,,55,85
22336,note_on,16,0,1,,,,,,,,,0,,64,85
22376,note_on,40,0,1,,,,,,,,,0,,64,0
22380,note_on,4,0,1,,,,,,,,,0,,62,85
22380,note_on,0,0,2,,,,,,,,,1,,46,85
22380,note_on,52,0,2,,,,,,,,,1,,48,0
22432,note_on,52,0,2,,,,,,,,,1,,55,0
22440,note_on,60,0,1,,,,,,,,,0,,62,0
22440,note_on,0,0,2,,,,,,,,,1,,45,85
22440,note_on,8,0,2,,,,,,,,,1,,46,0
22448,note_on,8,0,1,,,,,,,,,0,,60,85
22456,note_on,8,0,1,,,,,,,,,0,,72,85
22500,note_on,44,0,1,,,,,,,,,0,,62,85
22500,note_on,60,0,2,,,,,,,,,1,,45,0
22500,note_on,0,0,2,,,,,,,,,1,,46,85
22508,note_on,8,0,1,,,,,,,,,0,,60,0
22560,note_on,0,0,2,,,,,,,,,1,,48,85
22560,note_on,60,0,2,,,,,,,,,1,,46,0
22560,note_on,52,0,1,,,,,,,,,0,,62,0
22560,note_on,0,0,1,,,,,,,,,0,,64,85
22608,note_on,48,0,1,,,,,,,,,0,,72,0
22620,note_on,60,0,2,,,,,,,,,1,,48,0
22620,note_on,12,0,1,,,,,,,,,0,,64,0
22620,note_on,0,0,2,,,,,,,,,1,,50,85
22620,note_on,0,0,1,,,,,,,,,0,,72,85
22620,note_on,0,0,1,,,,,,,,,0,,66,85
22680,note_on,60,0,1,,,,,,,,,0,,66,0
22680,note_on,60,0,2,,,,,,,,,1,,50,0
22680,note_on,0,0,2,,,,,,,,,1,,43,85
22680,note_on,0,0,1,,,,,,,,,0,,72,0
22688,note_on,8,0,1,,,,,,,,,0,,67,85
22688,note_on,0,0,1,,,,,,,,,0,,70,85
22688,note_on,8,0,2,,,,,,,,,1,,55,85
22728,note_on,40,0,1,,,,,,,,,0,,70,0
22736,note_on,48,0,2,,,,,,,,,1,,55,0
22740,note_on,12,0,1,,,,,,,,,0,,69,85
22740,note_on,4,0,2,,,,,,,,,1,,57,85
22784,note_on,44,0,1,,,,,,,,,0,,67,0
22800,note_on,60,0,2,,,,,,,,,1,,57,0
22800,note_on,0,0,2,,,,,,,,,1,,43,0
22800,note_on,0,0,2,,,,,,,,,1,,58,85
22800,note_on,0,0,1,,,,,,,,,0,,67,85
22800,note_on,16,0,1,,,,,,,,,0,,69,0
22800,note_on,0,0,2,,,,,,,,,1,,55,85
22860,note_on,60,0,1,,,,,,,,,0,,67,0
22860,note_on,0,0,1,,,,,,,,,0,,69,85
22860,note_on,0,0,2,,,,,,,,,1,,60,85
22860,note_on,60,0,2,,,,,,,,,1,,58,0
22920,note_on,0,0,2,,,,,,,,,1,,62,85
22920,note_on,60,0,2,,,,,,,,,1,,60,0
22920,note_on,60,0,1,,,,,,,,,0,,69,0
22920,note_on,0,0,1,,,,,,,,,0,,70,85
22968,note_on,48,0,2,,,,,,,,,1,,55,0
22980,note_on,12,0,2,,,,,,,,,1,,62,0
22980,note_on,60,0,1,,,,,,,,,0,,70,0
22980,note_on,0,0,1,,,,,,,,,0,,72,85
22980,note_on,0,0,2,,,,,,,,,1,,55,85
22980,note_on,0,0,2,,,,,,,,,1,,64,85
23040,note_on,60,0,1,,,,,,,,,0,,72,0
23040,note_on,60,0,2,,,,,,,,,1,,55,0
23040,note_on,0,0,2,,,,,,,,,1,,64,0
23040,note_on,0,0,2,,,,,,,,,1,,50,85
23048,note_on,8,0,1,,,,,,,,,0,,65,85
23056,note_on,8,0,1,,,,,,,,,0,,69,85
23096,note_on,40,0,1,,,,,,,,,0,,65,0
23100,note_on,4,0,1,,,,,,,,,0,,64,85
23104,note_on,4,0,1,,,,,,,,,0,,69,0
23160,note_on,0,0,1,,,,,,,,,0,,74,85
23160,note_on,56,0,1,,,,,,,,,0,,64,0
23160,note_on,120,0,2,,,,,,,,,1,,50,0
23160,note_on,0,0,2,,,,,,,,,1,,58,85
23160,note_on,0,0,1,,,,,,,,,0,,62,85
23220,note_on,60,0,1,,,,,,,,,0,,62,0
23220,note_on,0,0,1,,,,,,,,,0,,74,0
23220,note_on,0,0,1,,,,,,,,,0,,73,85
23220,note_on,0,0,1,,,,,,,,,0,,64,85
23280,note_on,0,0,1,,,,,,,,,0,,74,85
23280,note_on,60,0,1,,,,,,,,,0,,64,0
23280,note_on,0,0,1,,,,,,,,,0,,73,0
23280,note_on,0,0,1,,,,,,,,,0,,65,85
23328,note_on,168,0,2,,,,,,,,,1,,58,0
23340,note_on,60,0,1,,,,,,,,,0,,65,0
23340,note_on,12,0,2,,,,,,,,,1,,58,85
23340,note_on,0,0,1,,,,,,,,,0,,67,85
23340,note_on,0,0,1,,,,,,,,,0,,76,85
23340,note_on,0,0,1,,,,,,,,,0,,74,0
23400,note_on,0,0,2,,,,,,,,,1,,57,85
23400,note_on,0,0,1,,,,,,,,,0,,76,0
23400,note_on,60,0,1,,,,,,,,,0,,67,0
23400,note_on,60,0,2,,,,,,,,,1,,58,0
23408,note_on,8,0,1,,,,,,,,,0,,69,85
23416,note_on,8,0,1,,,,,,,,,0,,73,85
23460,note_on,60,0,2,,,,,,,,,1,,57,0
23460,note_on,44,0,1,,,,,,,,,0,,71,85
23460,note_on,0,0,2,,,,,,,,,1,,55,85
23476,note_on,16,0,1,,,,,,,,,0,,73,0
23520,note_on,44,0,1,,,,,,,,,0,,71,0
23520,note_on,0,0,1,,,,,,,,,0,,81,85
23520,note_on,0,0,1,,,,,,,,,0,,73,85
23520,note_on,0,0,2,,,,,,,,,1,,57,85
23520,note_on,60,0,2,,,,,,,,,1,,55,0
23528,note_on,8,0,1,,,,,,,,,0,,69,0
23580,note_on,52,0,1,,,,,,,,,0,,73,0
23580,note_on,0,0,1,,,,,,,,,0,,74,85
23580,note_on,60,0,2,,,,,,,,,1,,57,0
23580,note_on,0,0,2,,,,,,,,,1,,59,85
23640,note_on,60,0,1,,,,,,,,,0,,74,0
23640,note_on,0,0,1,,,,,,,,,0,,76,85
23640,note_on,60,0,2,,,,,,,,,1,,59,0
23640,note_on,0,0,2,,,,,,,,,1,,61,85
23700,note_on,0,0,1,,,,,,,,,0,,79,85
23700,note_on,0,0,2,,,,,,,,,1,,57,85
23700,note_on,0,0,1,,,,,,,,,0,,73,85
23700,note_on,60,0,1,,,,,,,,,0,,76,0
23700,note_on,60,0,2,,,,,,,,,1,,61,0
23700,note_on,0,0,1,,,,,,,,,0,,81,0
23760,note_on,60,0,1,,,,,,,,,0,,73,0
23760,note_on,0,0,2,,,,,,,,,1,,62,85
23760,note_on,60,0,2,,,,,,,,,1,,57,0
23760,note_on,0,0,1,,,,,,,,,0,,79,0
23768,note_on,8,0,1,,,,,,,,,0,,69,85
23776,note_on,8,0,1,,,,,,,,,0,,77,85
23820,note_on,44,0,1,,,,,,,,,0,,74,85
23836,note_on,16,0,1,,,,,,,,,0,,77,0
23880,note_on,120,0,2,,,,,,,,,1,,62,0
23880,note_on,0,0,2,,,,,,,,,1,,50,85
23880,note_on,44,0,1,,,,,,,,,0,,74,0
23880,note_on,0,0,1,,,,,,,,,0,,78,85
23940,note_on,60,0,1,,,,,,,,,0,,72,85
23948,note_on,8,0,1,,,,,,,,,0,,69,0
24000,note_on,52,0,1,,,,,,,,,0,,72,0
24000,note_on,0,0,1,,,,,,,,,0,,70,85
24048,note_on,48,0,1,,,,,,,,,0,,78,0
24060,note_on,0,0,2,,,,,,,,,1,,62,85
24060,note_on,180,0,2,,,,,,,,,1,,50,0
24060,note_on,0,0,1,,,,,,,,,0,,78,85
24060,note_on,0,0,1,,,,,,,,,0,,69,85
24060,note_on,12,0,1,,,,,,,,,0,,70,0
24120,note_on,60,0,1,,,,,,,,,0,,69,0
24120,note_on,0,0,1,,,,,,,,,0,,78,0
24120,note_on,0,0,2,,,,,,,,,1,,55,85
24120,note_on,60,0,2,,,,,,,,,1,,62,0
24128,note_on,8,0,1,,,,,,,,,0,,70,85
24136,note_on,8,0,1,,,,,,,,,0,,79,85
24180,note_on,44,0,1,,,,,,,,,0,,67,85
24188,note_on,8,0,1,,,,,,,,,0,,70,0
24240,note_on,0,0,1,,,,,,,,,0,,71,85
24240,note_on,52,0,1,,,,,,,,,0,,67,0
24300,note_on,180,0,2,,,,,,,,,1,,65,85
24360,note_on,60,0,2,,,,,,,,,1,,65,0
24360,note_on,0,0,2,,,,,,,,,1,,64,85
24408,note_on,168,0,1,,,,,,,,,0,,71,0
24420,note_on,12,0,1,,,,,,,,,0,,71,85
24420,note_on,0,0,2,,,,,,,,,1,,62,85
24420,note_on,60,0,2,,,,,,,,,1,,64,0
24480,note_on,60,0,1,,,,,,,,,0,,71,0
24480,note_on,0,0,2,,,,,,,,,1,,55,0
24480,note_on,0,0,2,,,,,,,,,1,,60,85
24480,note_on,60,0,2,,,,,,,,,1,,62,0
24488,note_on,8,0,2,,,,,,,,,1,,64,85
24496,note_on,16,0,1,,,,,,,,,0,,72,85
24536,note_on,40,0,1,,,,,,,,,0,,79,0
24540,note_on,4,0,1,,,,,,,,,0,,77,85
24584,note_on,96,0,2,,,,,,,,,1,,64,0
24592,note_on,8,0,2,,,,,,,,,1,,60,0
24600,note_on,0,0,1,,,,,,,,,0,,72,0
24600,note_on,0,0,1,,,,,,,,,0,,76,85
24600,note_on,8,0,2,,,,,,,,,1,,48,85
24600,note_on,60,0,1,,,,,,,,,0,,77,0
24608,note_on,8,0,2,,,,,,,,,1,,60,85
24616,note_on,16,0,1,,,,,,,,,0,,67,85
24660,note_on,0,0,1,,,,,,,,,0,,74,85
24660,note_on,44,0,1,,,,,,,,,0,,76,0
24720,note_on,60,0,1,,,,,,,,,0,,74,0
24720,note_on,0,0,1,,,,,,,,,0,,72,85
24780,note_on,60,0,1,,,,,,,,,0,,72,0
24780,note_on,0,0,1,,,,,,,,,0,,70,85
24780,note_on,172,0,2,,,,,,,,,1,,48,0
24780,note_on,0,0,2,,,,,,,,,1,,52,85
24832,note_on,52,0,2,,,,,,,,,1,,60,0
24840,note_on,8,0,2,,,,,,,,,1,,52,0
24840,note_on,60,0,1,,,,,,,,,0,,70,0
24840,note_on,0,0,2,,,,,,,,,1,,53,85
24848,note_on,8,0,1,,,,,,,,,0,,69,85
24900,note_on,52,0,1,,,,,,,,,0,,60,85
24904,note_on,4,0,1,,,,,,,,,0,,67,0
24960,note_on,56,0,1,,,,,,,,,0,,60,0
24960,note_on,0,0,1,,,,,,,,,0,,65,85
24960,note_on,120,0,2,,,,,,,,,1,,41,85
25000,note_on,40,0,1,,,,,,,,,0,,69,0
25020,note_on,20,0,1,,,,,,,,,0,,69,85
25064,note_on,44,0,1,,,,,,,,,0,,69,0
25064,note_on,104,0,2,,,,,,,,,1,,53,0
25080,note_on,0,0,2,,,,,,,,,1,,53,85
25080,note_on,16,0,2,,,,,,,,,1,,41,0
25080,note_on,16,0,1,,,,,,,,,0,,65,0
25088,note_on,8,0,1,,,,,,,,,0,,69,85
25088,note_on,8,0,2,,,,,,,,,1,,62,85
25120,note_on,32,0,1,,,,,,,,,0,,71,85
25128,note_on,8,0,1,,,,,,,,,0,,69,0
25160,note_on,32,0,1,,,,,,,,,0,,71,0
25160,note_on,0,0,1,,,,,,,,,0,,72,85
25200,note_on,40,0,1,,,,,,,,,0,,72,0
25200,note_on,0,0,1,,,,,,,,,0,,71,85
25200,note_on,112,0,2,,,,,,,,,1,,62,0
25208,note_on,8,0,2,,,,,,,,,1,,55,85
25232,note_on,32,0,1,,,,,,,,,0,,71,0
25240,note_on,8,0,1,,,,,,,,,0,,73,85
25280,note_on,40,0,1,,,,,,,,,0,,73,0
25280,note_on,0,0,1,,,,,,,,,0,,74,85
25320,note_on,0,0,2,,,,,,,,,1,,52,85
25320,note_on,40,0,1,,,,,,,,,0,,74,0
25320,note_on,0,0,1,,,,,,,,,0,,73,85
25320,note_on,112,0,2,,,,,,,,,1,,53,0
25380,note_on,60,0,1,,,,,,,,,0,,73,0
25380,note_on,0,0,1,,,,,,,,,0,,74,85
25432,note_on,112,0,2,,,,,,,,,1,,55,0
25440,note_on,8,0,2,,,,,,,,,1,,52,0
25440,note_on,0,0,2,,,,,,,,,1,,53,85
25440,note_on,0,0,2,,,,,,,,,1,,50,85
25440,note_on,60,0,1,,,,,,,,,0,,74,0
25440,text,0,1,1,,,,,,,,,,,,
25440,note_on,0,0,1,,,,,,,,,0,,76,85
25467,note_on,27,0,1,,,,,,,,,0,,76,0
25468,note_on,1,0,1,,,,,,,,,0,,74,85
25481,note_on,13,0,1,,,,,,,,,0,,74,0
25482,note_on,1,0,1,,,,,,,,,0,,76,85
25495,note_on,13,0,1,,,,,,,,,0,,76,0
25496,note_on,1,0,1,,,,,,,,,0,,74,85
25529,note_on,33,0,1,,,,,,,,,0,,74,0
25530,note_on,1,0,1,,,,,,,,,0,,73,85
25545,note_on,0,0,1,,,,,,,,,0,,74,85
25545,note_on,15,0,1,,,,,,,,,0,,73,0
25560,note_on,0,0,2,,,,,,,,,1,,49,85
25560,note_on,0,0,1,,,,,,,,,0,,76,85
25560,note_on,15,0,1,,,,,,,,,0,,74,0
25560,note_on,0,0,2,,,,,,,,,1,,52,85
25560,note_on,0,0,2,,,,,,,,,1,,53,0
25560,note_on,120,0,2,,,,,,,,,1,,50,0
25620,note_on,0,0,1,,,,,,,,,0,,81,85
25620,note_on,60,0,1,,,,,,,,,0,,76,0
25680,note_on,0,0,2,,,,,,,,,1,,52,0
25680,note_on,0,0,2,,,,,,,,,1,,48,85
25680,note_on,120,0,2,,,,,,,,,1,,49,0
25680,note_on,60,0,1,,,,,,,,,0,,81,0
25680,text,0,1,1,,,,,,,,,,,,
25680,note_on,0,0,1,,,,,,,,,0,,79,85
25688,note_on,8,0,2,,,,,,,,,1,,57,85
25707,note_on,27,0,1,,,,,,,,,0,,79,0
25708,note_on,1,0,1,,,,,,,,,0,,78,85
25721,note_on,13,0,1,,,,,,,,,0,,78,0
25722,note_on,1,0,1,,,,,,,,,0,,79,85
25735,note_on,13,0,1,,,,,,,,,0,,79,0
25736,note_on,1,0,1,,,,,,,,,0,,78,85
25749,note_on,13,0,1,,,,,,,,,0,,78,0
25750,note_on,1,0,1,,,,,,,,,0,,79,85
25763,note_on,13,0,1,,,,,,,,,0,,79,0
25764,note_on,1,0,1,,,,,,,,,0,,78,85
25859,note_on,95,0,1,,,,,,,,,0,,78,0
25860,note_on,1,0,1,,,,,,,,,0,,76,85
25890,note_on,30,0,1,,,,,,,,,0,,76,0
25890,note_on,0,0,1,,,,,,,,,0,,74,85
25912,note_on,224,0,2,,,,,,,,,1,,57,0
25920,note_on,8,0,2,,,,,,,,,1,,48,0
25920,note_on,0,0,2,,,,,,,,,1,,46,85
25920,note_on,30,0,1,,,,,,,,,0,,74,0
25920,note_on,0,0,1,,,,,,,,,0,,79,85
25920,text,0,1,1,,,,,,,,,,,,
25947,note_on,27,0,1,,,,,,,,,0,,79,0
25948,note_on,1,0,1,,,,,,,,,0,,78,85
25961,note_on,13,0,1,,,,,,,,,0,,78,0
25962,note_on,1,0,1,,,,,,,,,0,,79,85
25975,note_on,13,0,1,,,,,,,,,0,,79,0
25976,note_on,1,0,1,,,,,,,,,0,,78,85
25980,note_on,60,0,2,,,,,,,,,1,,50,85
25989,note_on,13,0,1,,,,,,,,,0,,78,0
25990,note_on,1,0,1,,,,,,,,,0,,79,85
26040,note_on,60,0,2,,,,,,,,,1,,50,0
26040,note_on,0,0,2,,,,,,,,,1,,55,85
26099,note_on,109,0,1,,,,,,,,,0,,79,0
26100,note_on,1,0,1,,,,,,,,,0,,73,85
26160,note_on,60,0,1,,,,,,,,,0,,73,0
26160,note_on,0,0,1,,,,,,,,,0,,74,85
26160,note_on,0,0,2,,,,,,,,,1,,46,85
26160,note_on,120,0,2,,,,,,,,,1,,46,0
26220,note_on,0,0,1,,,,,,,,,0,,76,85
26220,note_on,60,0,1,,,,,,,,,0,,74,0
26280,note_on,60,0,1,,,,,,,,,0,,76,0
26280,note_on,120,0,2,,,,,,,,,1,,46,0
26280,note_on,0,0,2,,,,,,,,,1,,45,85
26280,note_on,0,0,2,,,,,,,,,1,,55,0
26288,note_on,8,0,1,,,,,,,,,0,,61,85
26296,note_on,8,0,1,,,,,,,,,0,,67,85
26340,note_on,60,0,2,,,,,,,,,1,,52,85
26400,note_on,0,0,2,,,,,,,,,1,,57,85
26400,note_on,60,0,2,,,,,,,,,1,,52,0
26460,note_on,0,0,2,,,,,,,,,1,,55,85
26460,note_on,60,0,2,,,,,,,,,1,,57,0
26460,note_on,164,0,1,,,,,,,,,0,,70,85
26464,note_on,4,0,1,,,,,,,,,0,,67,0
26512,note_on,48,0,1,,,,,,,,,0,,61,0
26520,note_on,8,0,1,,,,,,,,,0,,70,0
26520,note_on,0,0,1,,,,,,,,,0,,69,85
26520,note_on,60,0,2,,,,,,,,,1,,55,0
26520,note_on,0,0,2,,,,,,,,,1,,45,0
26520,note_on,0,0,2,,,,,,,,,1,,53,85
26580,note_on,60,0,2,,,,,,,,,1,,53,0
26580,note_on,0,0,2,,,,,,,,,1,,52,85
26580,note_on,60,0,1,,,,,,,,,0,,69,0
26580,note_on,0,0,1,,,,,,,,,0,,73,85
26580,note_on,0,0,1,,,,,,,,,0,,67,85
26637,set_tempo,7247,1,0,,,,,,631579,,,,,,
26640,note_on,60,0,2,,,,,,,,,1,,52,0
26640,note_on,0,0,2,,,,,,,,,1,,50,85
26640,note_on,60,0,1,,,,,,,,,0,,67,0
26640,note_on,0,0,1,,,,,,,,,0,,73,0
26648,note_on,8,0,1,,,,,,,,,0,,65,85
26650,set_tempo,13,1,0,,,,,,632644,,,,,,
26656,note_on,8,0,1,,,,,,,,,0,,74,85
26656,set_tempo,6,1,0,,,,,,633714,,,,,,
26669,set_tempo,13,1,0,,,,,,634786,,,,,,
26675,set_tempo,6,1,0,,,,,,635863,,,,,,
26688,set_tempo,13,1,0,,,,,,636943,,,,,,
26694,set_tempo,6,1,0,,,,,,638026,,,,,,
26696,note_on,40,0,1,,,,,,,,,0,,65,0
26700,note_on,4,0,1,,,,,,,,,0,,64,85
26700,note_on,0,0,2,,,,,,,,,1,,43,85
26700,note_on,60,0,2,,,,,,,,,1,,50,0
26707,set_tempo,13,1,0,,,,,,639114,,,,,,
26713,set_tempo,6,1,0,,,,,,640205,,,,,,
26726,set_tempo,13,1,0,,,,,,641300,,,,,,
26732,set_tempo,6,1,0,,,,,,642398,,,,,,
26745,set_tempo,13,1,0,,,,,,643501,,,,,,
26751,set_tempo,6,1,0,,,,,,644607,,,,,,
26760,note_on,60,0,1,,,,,,,,,0,,64,0
26760,note_on,0,0,2,,,,,,,,,1,,45,85
26760,note_on,60,0,2,,,,,,,,,1,,43,0
26764,set_tempo,13,1,0,,,,,,645717,,,,,,
26768,note_on,0,0,1,,,,,,,,,0,,62,85
26768,note_on,8,0,1,,,,,,,,,0,,74,0
26770,set_tempo,6,1,0,,,,,,646831,,,,,,
26776,note_on,8,0,1,,,,,,,,,0,,65,85
26783,set_tempo,13,1,0,,,,,,647948,,,,,,
26789,set_tempo,6,1,0,,,,,,649070,,,,,,
26802,set_tempo,13,1,0,,,,,,650195,,,,,,
26808,set_tempo,6,1,0,,,,,,651324,,,,,,
26814,set_tempo,6,1,0,,,,,,652458,,,,,,
26820,note_on,60,0,2,,,,,,,,,1,,57,85
26827,set_tempo,13,1,0,,,,,,653595,,,,,,
26833,set_tempo,6,1,0,,,,,,654736,,,,,,
26846,set_tempo,13,1,0,,,,,,655881,,,,,,
26852,set_tempo,6,1,0,,,,,,657030,,,,,,
26865,set_tempo,13,1,0,,,,,,658183,,,,,,
26871,set_tempo,6,1,0,,,,,,659341,,,,,,
26880,note_on,0,0,1,,,,,,,,,0,,62,0
26880,note_on,104,0,1,,,,,,,,,0,,65,0
26880,note_on,0,0,1,,,,,,,,,0,,61,85
26884,set_tempo,13,1,0,,,,,,660502,,,,,,
26888,note_on,8,0,1,,,,,,,,,0,,64,85
26890,set_tempo,6,1,0,,,,,,661667,,,,,,
26903,set_tempo,13,1,0,,,,,,662837,,,,,,
26909,set_tempo,6,1,0,,,,,,664011,,,,,,
26922,set_tempo,13,1,0,,,,,,665188,,,,,,
26928,set_tempo,6,1,0,,,,,,666371,,,,,,
26940,note_on,120,0,2,,,,,,,,,1,,57,0
26940,note_on,0,0,2,,,,,,,,,1,,55,85
26941,set_tempo,13,1,0,,,,,,667557,,,,,,
26947,set_tempo,6,1,0,,,,,,668747,,,,,,
26960,set_tempo,13,1,0,,,,,,669942,,,,,,
26966,set_tempo,6,1,0,,,,,,671141,,,,,,
26978,set_tempo,12,1,0,,,,,,672344,,,,,,
26984,note_on,44,0,2,,,,,,,,,1,,45,0
26985,set_tempo,7,1,0,,,,,,673552,,,,,,
26991,set_tempo,6,1,0,,,,,,674764,,,,,,
27000,note_on,0,0,1,,,,,,,,,0,,61,0
27000,note_on,112,0,1,,,,,,,,,0,,64,0
27000,note_on,16,0,2,,,,,,,,,1,,38,85
27004,set_tempo,13,1,0,,,,,,675980,,,,,,
27008,note_on,8,0,1,,,,,,,,,0,,62,85
27010,set_tempo,6,1,0,,,,,,677201,,,,,,
27023,set_tempo,13,1,0,,,,,,678426,,,,,,
27029,set_tempo,6,1,0,,,,,,679656,,,,,,
27042,set_tempo,13,1,0,,,,,,680890,,,,,,
27048,set_tempo,6,1,0,,,,,,682128,,,,,,
27060,note_on,60,0,2,,,,,,,,,1,,55,0
27060,note_on,0,0,2,,,,,,,,,1,,53,85
27061,set_tempo,13,1,0,,,,,,683371,,,,,,
27067,set_tempo,6,1,0,,,,,,684619,,,,,,
27080,set_tempo,13,1,0,,,,,,685871,,,,,,
27086,set_tempo,6,1,0,,,,,,687128,,,,,,
27098,set_tempo,12,1,0,,,,,,688389,,,,,,
27105,set_tempo,7,1,0,,,,,,689655,,,,,,
27117,set_tempo,12,1,0,,,,,,690926,,,,,,
27120,note_on,0,0,2,,,,,,,,,1,,55,85
27120,note_on,60,0,2,,,,,,,,,1,,53,0
27124,set_tempo,7,1,0,,,,,,692201,,,,,,
27136,set_tempo,12,1,0,,,,,,693481,,,,,,
27143,set_tempo,7,1,0,,,,,,694766,,,,,,
27155,set_tempo,12,1,0,,,,,,696056,,,,,,
27162,set_tempo,7,1,0,,,,,,697350,,,,,,
27168,set_tempo,6,1,0,,,,,,698649,,,,,,
27180,note_on,60,0,2,,,,,,,,,1,,55,0
27180,note_on,0,0,2,,,,,,,,,1,,58,85
27181,set_tempo,13,1,0,,,,,,699953,,,,,,
27187,set_tempo,6,1,0,,,,,,701262,,,,,,
27200,set_tempo,13,1,0,,,,,,702576,,,,,,
27206,set_tempo,6,1,0,,,,,,703895,,,,,,
27218,set_tempo,12,1,0,,,,,,705219,,,,,,
27225,set_tempo,7,1,0,,,,,,706547,,,,,,
27237,set_tempo,12,1,0,,,,,,707881,,,,,,
27240,note_on,0,0,2,,,,,,,,,1,,57,85
27240,note_on,60,0,2,,,,,,,,,1,,58,0
27244,set_tempo,7,1,0,,,,,,709220,,,,,,
27256,set_tempo,12,1,0,,,,,,710564,,,,,,
27263,set_tempo,7,1,0,,,,,,711913,,,,,,
27275,set_tempo,12,1,0,,,,,,713267,,,,,,
27282,set_tempo,7,1,0,,,,,,714626,,,,,,
27294,set_tempo,12,1,0,,,,,,715990,,,,,,
27300,note_on,60,0,2,,,,,,,,,1,,57,0
27300,note_on,0,0,2,,,,,,,,,1,,52,85
27301,set_tempo,7,1,0,,,,,,717360,,,,,,
27313,set_tempo,12,1,0,,,,,,718735,,,,,,
27320,set_tempo,7,1,0,,,,,,720115,,,,,,
27332,set_tempo,12,1,0,,,,,,721501,,,,,,
27338,set_tempo,6,1,0,,,,,,722892,,,,,,
27345,set_tempo,7,1,0,,,,,,724288,,,,,,
27357,set_tempo,12,1,0,,,,,,728509,,,,,,
27360,note_on,60,0,2,,,,,,,,,1,,52,0
27360,note_on,352,0,1,,,,,,,,,0,,62,0
27368,note_on,8,0,2,,,,,,,,,1,,53,85
27370,set_tempo,13,1,0,,,,,,729927,,,,,,
27376,note_on,8,0,2,,,,,,,,,1,,57,85
27383,set_tempo,13,1,0,,,,,,731351,,,,,,
27384,note_on,24,0,1,,,,,,,,,0,,62,85
27389,set_tempo,6,1,0,,,,,,732780,,,,,,
27402,set_tempo,13,1,0,,,,,,734214,,,,,,
27408,set_tempo,6,1,0,,,,,,735655,,,,,,
27420,note_on,0,0,2,,,,,,,,,1,,49,85
27420,note_on,44,0,2,,,,,,,,,1,,38,0
27421,set_tempo,13,1,0,,,,,,737101,,,,,,
27427,set_tempo,6,1,0,,,,,,738552,,,,,,
27440,set_tempo,13,1,0,,,,,,740010,,,,,,
27446,set_tempo,6,1,0,,,,,,741473,,,,,,
27458,set_tempo,12,1,0,,,,,,742942,,,,,,
27465,set_tempo,7,1,0,,,,,,744417,,,,,,
27477,set_tempo,12,1,0,,,,,,745898,,,,,,
27480,note_on,0,0,2,,,,,,,,,1,,50,85
27480,note_on,60,0,2,,,,,,,,,1,,49,0
27484,set_tempo,7,1,0,,,,,,747384,,,,,,
27496,set_tempo,12,1,0,,,,,,748877,,,,,,
27503,set_tempo,7,1,0,,,,,,750375,,,,,,
27515,set_tempo,12,1,0,,,,,,751880,,,,,,
27522,set_tempo,7,1,0,,,,,,753390,,,,,,
27534,set_tempo,12,1,0,,,,,,754907,,,,,,
27540,note_on,60,0,2,,,,,,,,,1,,50,0
27540,note_on,0,0,2,,,,,,,,,1,,45,85
27541,set_tempo,7,1,0,,,,,,756430,,,,,,
27553,set_tempo,12,1,0,,,,,,757959,,,,,,
27560,set_tempo,7,1,0,,,,,,759494,,,,,,
27572,set_tempo,12,1,0,,,,,,761035,,,,,,
27578,set_tempo,6,1,0,,,,,,762583,,,,,,
27591,set_tempo,13,1,0,,,,,,764137,,,,,,
27597,set_tempo,6,1,0,,,,,,765697,,,,,,
27600,note_on,60,0,2,,,,,,,,,1,,45,0
27600,note_on,0,0,2,,,,,,,,,1,,38,85
27610,set_tempo,13,1,0,,,,,,767263,,,,,,
27616,set_tempo,6,1,0,,,,,,768836,,,,,,
27629,set_tempo,13,1,0,,,,,,770416,,,,,,
27635,set_tempo,6,1,0,,,,,,772002,,,,,,
27645,end_of_track,0,1,1,,,,,,,,,,,,
27645,note_on,261,0,1,,,,,,,,,0,,62,0
27645,note_on,0,0,2,,,,,,,,,1,,53,0
27645,note_on,45,0,2,,,,,,,,,1,,57,0
27648,set_tempo,13,1,0,,,,,,773595,,,,,,
27654,set_tempo,6,1,0,,,,,,775194,,,,,,
27660,note_on,15,0,2,,,,,,,,,1,,38,0
27660,end_of_track,0,1,2,,,,,,,,,,,,
27667,set_tempo,13,1,0,,,,,,776800,,,,,,
27673,set_tempo,6,1,0,,,,,,778412,,,,,,
27673,end_of_track,0,1,0,,,,,,,,,,,,
