tick,type,tempo,time,meta,track,key,numerator,denominator,clocks_per_click,notated_32nd_notes_per_beat,port,program,channel,control,value,note,velocity
0,set_tempo,500000,0,1,0,,,,,,,,,,,,
0,control_change,,0,0,6,,,,,,,,0,10,24,,
0,key_signature,,0,1,6,G,,,,,,,,,,,
0,time_signature,,0,1,6,,2,2,24,8,,,,,,,
0,track_name,,0,1,6,,,,,,,,,,,,
0,midi_port,,0,1,7,,,,,,0,,,,,,
0,program_change,,0,0,7,,,,,,,48,1,,,,
0,control_change,,0,0,7,,,,,,,,1,7,127,,
0,control_change,,0,0,7,,,,,,,,1,10,104,,
0,key_signature,,0,1,7,G,,,,,,,,,,,
0,time_signature,,0,1,7,,2,2,24,8,,,,,,,
0,track_name,,0,1,7,,,,,,,,,,,,
0,midi_port,,0,1,8,,,,,,0,,,,,,
0,program_change,,0,0,8,,,,,,,41,2,,,,
0,control_change,,0,0,8,,,,,,,,2,7,127,,
0,control_change,,0,0,8,,,,,,,,2,10,104,,
0,key_signature,,0,1,8,G,,,,,,,,,,,
0,time_signature,,0,1,8,,2,2,24,8,,,,,,,
0,track_name,,0,1,8,,,,,,,,,,,,
0,midi_port,,0,1,9,,,,,,0,,,,,,
0,program_change,,0,0,9,,,,,,,42,3,,,,
0,control_change,,0,0,9,,,,,,,,3,7,127,,
0,control_change,,0,0,9,,,,,,,,3,10,24,,
0,key_signature,,0,1,9,G,,,,,,,,,,,
0,time_signature,,0,1,9,,2,2,24,8,,,,,,,
0,track_name,,0,1,9,,,,,,,,,,,,
0,track_name,,0,1,20,,,,,,,,,,,,
0,midi_port,,0,1,10,,,,,,0,,,,,,
0,control_change,,0,0,6,,,,,,,,0,7,127,,
0,program_change,,0,0,10,,,,,,,43,4,,,,
0,program_change,,0,0,6,,,,,,,48,0,,,,
0,track_name,,0,1,5,,,,,,,,,,,,
0,control_change,,0,0,2,,,,,,,,11,7,127,,
0,control_change,,0,0,2,,,,,,,,11,10,64,,
0,key_signature,,0,1,2,G,,,,,,,,,,,
0,time_signature,,0,1,2,,2,2,24,8,,,,,,,
0,note_on,,0,0,2,,,,,,,,11,,,71,108
0,track_name,,0,1,2,,,,,,,,,,,,
0,midi_port,,0,1,3,,,,,,0,,,,,,
0,program_change,,0,0,3,,,,,,,52,12,,,,
0,control_change,,0,0,3,,,,,,,,12,7,127,,
0,control_change,,0,0,3,,,,,,,,12,10,104,,
0,key_signature,,0,1,3,G,,,,,,,,,,,
0,time_signature,,0,1,3,,2,2,24,8,,,,,,,
0,note_on,,0,0,3,,,,,,,,12,,,67,108
0,track_name,,0,1,3,,,,,,,,,,,,
0,midi_port,,0,1,4,,,,,,0,,,,,,
0,program_change,,0,0,4,,,,,,,52,13,,,,
0,control_change,,0,0,4,,,,,,,,13,7,127,,
0,control_change,,0,0,4,,,,,,,,13,10,24,,
0,key_signature,,0,1,4,G,,,,,,,,,,,
0,time_signature,,0,1,4,,2,2,24,8,,,,,,,
0,track_name,,0,1,4,,,,,,,,,,,,
0,midi_port,,0,1,5,,,,,,0,,,,,,
0,program_change,,0,0,5,,,,,,,52,14,,,,
0,control_change,,0,0,5,,,,,,,,14,7,127,,
0,control_change,,0,0,5,,,,,,,,14,10,104,,
0,key_signature,,0,1,5,G,,,,,,,,,,,
0,time_signature,,0,1,5,,2,2,24,8,,,,,,,
0,midi_port,,0,1,6,,,,,,0,,,,,,
0,control_change,,0,0,10,,,,,,,,4,7,127,,
0,control_change,,0,0,10,,,,,,,,4,10,64,,
0,key_signature,,0,1,10,G,,,,,,,,,,,
0,control_change,,0,0,15,,,,,,,,9,7,127,,
0,control_change,,0,0,15,,,,,,,,9,10,64,,
0,track_name,,0,1,15,,,,,,,,,,,,
0,end_of_track,,0,1,15,,,,,,,,,,,,
0,midi_port,,0,1,16,,,,,,0,,,,,,
0,control_change,,0,0,16,,,,,,,,9,7,127,,
0,control_change,,0,0,16,,,,,,,,9,10,64,,
0,track_name,,0,1,16,,,,,,,,,,,,
0,end_of_track,,0,1,16,,,,,,,,,,,,
0,midi_port,,0,1,17,,,,,,0,,,,,,
0,control_change,,0,0,17,,,,,,,,9,7,127,,
0,control_change,,0,0,17,,,,,,,,9,10,64,,
0,track_name,,0,1,17,,,,,,,,,,,,
0,end_of_track,,0,1,17,,,,,,,,,,,,
0,midi_port,,0,1,18,,,,,,0,,,,,,
0,control_change,,0,0,18,,,,,,,,9,7,127,,
0,control_change,,0,0,18,,,,,,,,9,10,64,,
0,track_name,,0,1,18,,,,,,,,,,,,
0,end_of_track,,0,1,18,,,,,,,,,,,,
0,midi_port,,0,1,19,,,,,,0,,,,,,
0,control_change,,0,0,19,,,,,,,,9,7,127,,
0,control_change,,0,0,19,,,,,,,,9,10,64,,
0,track_name,,0,1,19,,,,,,,,,,,,
0,end_of_track,,0,1,19,,,,,,,,,,,,
0,midi_port,,0,1,20,,,,,,0,,,,,,
0,control_change,,0,0,20,,,,,,,,9,7,127,,
0,control_change,,0,0,20,,,,,,,,9,10,64,,
0,midi_port,,0,1,15,,,,,,0,,,,,,
0,track_name,,0,1,14,,,,,,,,,,,,
0,note_on,,0,0,14,,,,,,,,8,,,67,92
0,time_signature,,0,1,14,,2,2,24,8,,,,,,,
0,time_signature,,0,1,10,,2,2,24,8,,,,,,,
0,track_name,,0,1,10,,,,,,,,,,,,
0,midi_port,,0,1,11,,,,,,0,,,,,,
0,program_change,,0,0,11,,,,,,,60,5,,,,
0,control_change,,0,0,11,,,,,,,,5,7,127,,
0,control_change,,0,0,11,,,,,,,,5,10,72,,
0,time_signature,,0,1,11,,2,2,24,8,,,,,,,
0,track_name,,0,1,11,,,,,,,,,,,,
0,midi_port,,0,1,12,,,,,,0,,,,,,
0,program_change,,0,0,12,,,,,,,60,6,,,,
0,control_change,,0,0,12,,,,,,,,6,7,127,,
0,control_change,,0,0,12,,,,,,,,6,10,56,,
0,time_signature,,0,1,12,,2,2,24,8,,,,,,,
0,program_change,,0,0,2,,,,,,,52,11,,,,
0,track_name,,0,1,12,,,,,,,,,,,,
0,program_change,,0,0,13,,,,,,,19,7,,,,
0,control_change,,0,0,13,,,,,,,,7,7,127,,
0,control_change,,0,0,13,,,,,,,,7,10,72,,
0,key_signature,,0,1,13,G,,,,,,,,,,,
0,time_signature,,0,1,13,,2,2,24,8,,,,,,,
0,note_on,,0,0,13,,,,,,,,7,,,71,92
0,note_on,,0,0,13,,,,,,,,7,,,74,92
0,track_name,,0,1,13,,,,,,,,,,,,
0,midi_port,,0,1,14,,,,,,0,,,,,,
0,program_change,,0,0,14,,,,,,,19,8,,,,
0,control_change,,0,0,14,,,,,,,,8,7,127,,
0,control_change,,0,0,14,,,,,,,,8,10,56,,
0,key_signature,,0,1,14,G,,,,,,,,,,,
0,midi_port,,0,1,13,,,,,,0,,,,,,
0,midi_port,,0,1,2,,,,,,0,,,,,,
0,end_of_track,,0,1,20,,,,,,,,,,,,
0,copyright,,0,1,0,,,,,,,,,,,,
0,note_on,,0,0,1,,,,,,,,10,,,74,108
0,track_name,,0,1,1,,,,,,,,,,,,
0,control_change,,0,0,1,,,,,,,,10,10,24,,
0,control_change,,0,0,1,,,,,,,,10,7,127,,
0,program_change,,0,0,1,,,,,,,52,10,,,,
0,midi_port,,0,1,1,,,,,,0,,,,,,
0,copyright,,0,1,0,,,,,,,,,,,,
0,text,,0,1,0,,,,,,,,,,,,
0,text,,0,1,0,,,,,,,,,,,,
0,track_name,,0,1,0,,,,,,,,,,,,
0,time_signature,,0,1,0,,2,2,24,8,,,,,,,
0,key_signature,,0,1,0,G,,,,,,,,,,,
0,time_signature,,0,1,1,,2,2,24,8,,,,,,,
0,key_signature,,0,1,1,G,,,,,,,,,,,
384,note_on,,0,0,13,,,,,,,,7,,,74,0
384,note_on,,384,0,1,,,,,,,,10,,,74,0
384,note_on,,0,0,1,,,,,,,,10,,,71,108
384,note_on,,384,0,14,,,,,,,,8,,,67,0
384,note_on,,0,0,14,,,,,,,,8,,,55,92
384,note_on,,0,0,13,,,,,,,,7,,,71,92
384,note_on,,0,0,13,,,,,,,,7,,,67,92
384,note_on,,384,0,13,,,,,,,,7,,,71,0
384,note_on,,384,0,2,,,,,,,,11,,,71,0
384,note_on,,0,0,2,,,,,,,,11,,,67,108
576,note_on,,576,0,3,,,,,,,,12,,,67,0
576,note_on,,0,0,3,,,,,,,,12,,,62,108
672,note_on,,0,0,2,,,,,,,,11,,,69,108
672,note_on,,288,0,1,,,,,,,,10,,,71,0
672,note_on,,0,0,1,,,,,,,,10,,,72,108
672,note_on,,288,0,13,,,,,,,,7,,,67,0
672,note_on,,0,0,13,,,,,,,,7,,,71,0
672,note_on,,0,0,13,,,,,,,,7,,,69,92
672,note_on,,0,0,13,,,,,,,,7,,,72,92
672,note_on,,288,0,2,,,,,,,,11,,,67,0
768,note_on,,192,0,3,,,,,,,,12,,,62,0
768,note_on,,0,0,1,,,,,,,,10,,,74,108
768,note_on,,96,0,1,,,,,,,,10,,,72,0
768,note_on,,0,0,3,,,,,,,,12,,,67,108
768,note_on,,384,0,14,,,,,,,,8,,,55,0
768,note_on,,0,0,14,,,,,,,,8,,,67,92
768,note_on,,0,0,13,,,,,,,,7,,,74,92
768,note_on,,0,0,13,,,,,,,,7,,,72,0
768,note_on,,96,0,2,,,,,,,,11,,,69,0
768,note_on,,96,0,13,,,,,,,,7,,,69,0
768,note_on,,0,0,2,,,,,,,,11,,,71,108
768,note_on,,0,0,13,,,,,,,,7,,,71,92
1152,note_on,,384,0,13,,,,,,,,7,,,71,0
1152,note_on,,0,0,1,,,,,,,,10,,,67,108
1152,note_on,,0,0,3,,,,,,,,12,,,59,108
1152,note_on,,384,0,1,,,,,,,,10,,,74,0
1152,note_on,,384,0,2,,,,,,,,11,,,71,0
1152,note_on,,0,0,13,,,,,,,,7,,,67,92
1152,note_on,,384,0,3,,,,,,,,12,,,67,0
1152,note_on,,0,0,2,,,,,,,,11,,,67,108
1152,note_on,,384,0,14,,,,,,,,8,,,67,0
1152,note_on,,0,0,14,,,,,,,,8,,,59,92
1152,note_on,,0,0,13,,,,,,,,7,,,74,0
1536,note_on,,0,0,13,,,,,,,,7,,,66,92
1536,note_on,,384,0,14,,,,,,,,8,,,59,0
1536,note_on,,0,0,3,,,,,,,,12,,,62,108
1536,note_on,,384,0,3,,,,,,,,12,,,59,0
1536,note_on,,0,0,14,,,,,,,,8,,,62,92
1536,note_on,,384,0,1,,,,,,,,10,,,67,0
1536,note_on,,0,0,1,,,,,,,,10,,,69,108
1536,note_on,,0,0,13,,,,,,,,7,,,69,92
1536,note_on,,384,0,13,,,,,,,,7,,,67,0
1536,note_on,,384,0,2,,,,,,,,11,,,67,0
1536,note_on,,0,0,2,,,,,,,,11,,,66,108
1632,note_on,,96,0,1,,,,,,,,10,,,69,0
1632,note_on,,0,0,13,,,,,,,,7,,,71,92
1632,note_on,,96,0,2,,,,,,,,11,,,66,0
1632,note_on,,0,0,2,,,,,,,,11,,,67,108
1632,note_on,,0,0,1,,,,,,,,10,,,71,108
1632,note_on,,96,0,13,,,,,,,,7,,,66,0
1632,note_on,,0,0,13,,,,,,,,7,,,69,0
1632,note_on,,0,0,13,,,,,,,,7,,,67,92
1728,note_on,,0,0,14,,,,,,,,8,,,62,92
1728,note_on,,96,0,1,,,,,,,,10,,,71,0
1728,note_on,,192,0,14,,,,,,,,8,,,62,0
1728,note_on,,0,0,2,,,,,,,,11,,,69,108
1728,note_on,,0,0,1,,,,,,,,10,,,72,108
1728,note_on,,0,0,14,,,,,,,,8,,,55,92
1728,note_on,,96,0,2,,,,,,,,11,,,67,0
1728,note_on,,96,0,13,,,,,,,,7,,,67,0
1728,note_on,,0,0,13,,,,,,,,7,,,72,92
1728,note_on,,0,0,13,,,,,,,,7,,,69,92
1728,note_on,,0,0,13,,,,,,,,7,,,71,0
1824,note_on,,96,0,13,,,,,,,,7,,,69,0
1824,note_on,,0,0,13,,,,,,,,7,,,74,92
1824,note_on,,0,0,1,,,,,,,,10,,,74,108
1824,note_on,,96,0,1,,,,,,,,10,,,72,0
1824,note_on,,0,0,13,,,,,,,,7,,,72,0
1824,note_on,,0,0,13,,,,,,,,7,,,71,92
1824,note_on,,0,0,2,,,,,,,,11,,,71,108
1824,note_on,,96,0,2,,,,,,,,11,,,69,0
1920,note_on,,96,0,2,,,,,,,,11,,,71,0
1920,note_on,,192,0,14,,,,,,,,8,,,55,0
1920,note_on,,0,0,14,,,,,,,,8,,,54,92
1920,note_on,,0,0,13,,,,,,,,7,,,69,92
1920,note_on,,0,0,13,,,,,,,,7,,,72,92
1920,note_on,,0,0,2,,,,,,,,11,,,69,108
1920,note_on,,96,0,13,,,,,,,,7,,,71,0
1920,note_on,,96,0,1,,,,,,,,10,,,74,0
1920,note_on,,0,0,1,,,,,,,,10,,,72,108
1920,note_on,,0,0,13,,,,,,,,7,,,74,0
2112,note_on,,0,0,13,,,,,,,,7,,,71,92
2112,note_on,,192,0,14,,,,,,,,8,,,54,0
2112,note_on,,192,0,2,,,,,,,,11,,,69,0
2112,note_on,,0,0,2,,,,,,,,11,,,67,108
2112,note_on,,0,0,14,,,,,,,,8,,,55,92
2112,note_on,,0,0,13,,,,,,,,7,,,67,92
2112,note_on,,0,0,3,,,,,,,,12,,,67,108
2112,note_on,,0,0,13,,,,,,,,7,,,72,0
2112,note_on,,576,0,3,,,,,,,,12,,,62,0
2112,note_on,,192,0,13,,,,,,,,7,,,69,0
2112,note_on,,192,0,1,,,,,,,,10,,,72,0
2112,note_on,,0,0,1,,,,,,,,10,,,71,108
2304,note_on,,0,0,2,,,,,,,,11,,,66,108
2304,note_on,,192,0,2,,,,,,,,11,,,67,0
2304,note_on,,192,0,13,,,,,,,,7,,,67,0
2304,note_on,,0,0,13,,,,,,,,7,,,71,0
2304,note_on,,0,0,13,,,,,,,,7,,,66,92
2304,note_on,,0,0,13,,,,,,,,7,,,69,92
2304,note_on,,192,0,1,,,,,,,,10,,,71,0
2304,note_on,,192,0,14,,,,,,,,8,,,62,0
2304,note_on,,0,0,14,,,,,,,,8,,,55,0
2304,note_on,,0,0,14,,,,,,,,8,,,62,92
2304,note_on,,0,0,1,,,,,,,,10,,,69,108
2304,note_on,,0,0,3,,,,,,,,12,,,62,108
2304,note_on,,192,0,3,,,,,,,,12,,,67,0
3072,note_on,,0,0,14,,,,,,,,8,,,67,92
3072,note_on,,768,0,2,,,,,,,,11,,,66,0
3072,note_on,,768,0,1,,,,,,,,10,,,69,0
3072,note_on,,0,0,1,,,,,,,,10,,,71,108
3072,note_on,,768,0,14,,,,,,,,8,,,62,0
3072,note_on,,768,0,13,,,,,,,,7,,,66,0
3072,note_on,,0,0,2,,,,,,,,11,,,67,108
3072,note_on,,0,0,13,,,,,,,,7,,,69,0
3072,note_on,,768,0,3,,,,,,,,12,,,62,0
3072,note_on,,0,0,3,,,,,,,,12,,,67,108
3072,note_on,,0,0,13,,,,,,,,7,,,71,92
3168,note_on,,96,0,13,,,,,,,,7,,,71,0
3168,note_on,,0,0,13,,,,,,,,7,,,69,92
3168,note_on,,0,0,13,,,,,,,,7,,,72,92
3168,note_on,,0,0,2,,,,,,,,11,,,69,108
3168,note_on,,0,0,1,,,,,,,,10,,,72,108
3168,note_on,,96,0,1,,,,,,,,10,,,71,0
3168,note_on,,96,0,2,,,,,,,,11,,,67,0
3264,note_on,,0,0,2,,,,,,,,11,,,71,108
3264,note_on,,0,0,13,,,,,,,,7,,,74,92
3264,note_on,,96,0,13,,,,,,,,7,,,69,0
3264,note_on,,0,0,13,,,,,,,,7,,,72,0
3264,note_on,,0,0,13,,,,,,,,7,,,71,92
3264,note_on,,96,0,2,,,,,,,,11,,,69,0
3264,note_on,,0,0,1,,,,,,,,10,,,74,108
3264,note_on,,96,0,1,,,,,,,,10,,,72,0
3360,note_on,,96,0,2,,,,,,,,11,,,71,0
3360,note_on,,0,0,13,,,,,,,,7,,,72,92
3360,note_on,,0,0,13,,,,,,,,7,,,74,0
3360,note_on,,96,0,13,,,,,,,,7,,,71,0
3360,note_on,,0,0,1,,,,,,,,10,,,76,108
3360,note_on,,0,0,13,,,,,,,,7,,,76,92
3360,note_on,,96,0,1,,,,,,,,10,,,74,0
3360,note_on,,0,0,2,,,,,,,,11,,,72,108
3456,note_on,,0,0,1,,,,,,,,10,,,74,108
3456,note_on,,96,0,1,,,,,,,,10,,,76,0
3456,note_on,,0,0,2,,,,,,,,11,,,71,108
3456,note_on,,96,0,13,,,,,,,,7,,,72,0
3456,note_on,,0,0,13,,,,,,,,7,,,74,92
3456,note_on,,0,0,13,,,,,,,,7,,,71,92
3456,note_on,,0,0,13,,,,,,,,7,,,76,0
3456,note_on,,96,0,2,,,,,,,,11,,,72,0
3648,note_on,,0,0,1,,,,,,,,10,,,74,108
3648,note_on,,192,0,2,,,,,,,,11,,,71,0
3648,note_on,,0,0,2,,,,,,,,11,,,71,108
3648,note_on,,0,0,3,,,,,,,,12,,,67,108
3648,note_on,,192,0,1,,,,,,,,10,,,74,0
3648,note_on,,576,0,3,,,,,,,,12,,,67,0
3648,note_on,,0,0,13,,,,,,,,7,,,74,0
3648,note_on,,0,0,14,,,,,,,,8,,,67,92
3648,note_on,,576,0,14,,,,,,,,8,,,67,0
3648,note_on,,0,0,13,,,,,,,,7,,,74,92
3648,note_on,,0,0,13,,,,,,,,7,,,71,92
3648,note_on,,192,0,13,,,,,,,,7,,,71,0
3840,note_on,,0,0,2,,,,,,,,11,,,74,108
3840,note_on,,0,0,13,,,,,,,,7,,,79,92
3840,note_on,,0,0,13,,,,,,,,7,,,74,92
3840,note_on,,0,0,13,,,,,,,,7,,,74,0
3840,note_on,,192,0,14,,,,,,,,8,,,67,0
3840,note_on,,0,0,14,,,,,,,,8,,,71,92
3840,note_on,,192,0,2,,,,,,,,11,,,71,0
3840,note_on,,192,0,13,,,,,,,,7,,,71,0
3840,note_on,,0,0,1,,,,,,,,10,,,79,108
3840,note_on,,192,0,1,,,,,,,,10,,,74,0
3840,note_on,,0,0,3,,,,,,,,12,,,71,108
3840,note_on,,192,0,3,,,,,,,,12,,,67,0
4224,note_on,,0,0,3,,,,,,,,12,,,67,108
4224,note_on,,384,0,3,,,,,,,,12,,,71,0
4224,note_on,,0,0,13,,,,,,,,7,,,74,92
4224,note_on,,0,0,13,,,,,,,,7,,,71,92
4224,note_on,,0,0,13,,,,,,,,7,,,79,0
4224,note_on,,384,0,13,,,,,,,,7,,,74,0
4224,note_on,,384,0,14,,,,,,,,8,,,71,0
4224,note_on,,0,0,2,,,,,,,,11,,,71,108
4224,note_on,,384,0,2,,,,,,,,11,,,74,0
4224,note_on,,0,0,14,,,,,,,,8,,,67,92
4224,note_on,,0,0,1,,,,,,,,10,,,74,108
4224,note_on,,384,0,1,,,,,,,,10,,,79,0
4608,note_on,,384,0,2,,,,,,,,11,,,71,0
4608,note_on,,0,0,14,,,,,,,,8,,,69,92
4608,note_on,,0,0,13,,,,,,,,7,,,74,0
4608,note_on,,0,0,3,,,,,,,,12,,,66,108
4608,note_on,,384,0,3,,,,,,,,12,,,67,0
4608,note_on,,0,0,14,,,,,,,,8,,,66,92
4608,note_on,,384,0,14,,,,,,,,8,,,67,0
4608,note_on,,0,0,2,,,,,,,,11,,,69,108
4608,note_on,,384,0,1,,,,,,,,10,,,74,0
4608,note_on,,0,0,13,,,,,,,,7,,,72,92
4608,note_on,,384,0,13,,,,,,,,7,,,71,0
4608,note_on,,0,0,1,,,,,,,,10,,,72,108
4800,note_on,,0,0,3,,,,,,,,12,,,67,108
4800,note_on,,192,0,3,,,,,,,,12,,,66,0
4800,note_on,,0,0,13,,,,,,,,7,,,71,92
4800,note_on,,192,0,13,,,,,,,,7,,,72,0
4800,note_on,,192,0,14,,,,,,,,8,,,66,0
4800,note_on,,0,0,14,,,,,,,,8,,,69,0
4800,note_on,,192,0,1,,,,,,,,10,,,72,0
4800,note_on,,0,0,1,,,,,,,,10,,,71,108
4800,note_on,,0,0,14,,,,,,,,8,,,67,92
4800,note_on,,192,0,2,,,,,,,,11,,,69,0
4800,note_on,,0,0,2,,,,,,,,11,,,67,108
4896,note_on,,96,0,13,,,,,,,,7,,,71,0
4896,note_on,,0,0,13,,,,,,,,7,,,69,92
4896,note_on,,0,0,1,,,,,,,,10,,,69,108
4896,note_on,,96,0,1,,,,,,,,10,,,71,0
4992,note_on,,0,0,1,,,,,,,,10,,,69,108
4992,note_on,,0,0,3,,,,,,,,12,,,62,108
4992,note_on,,192,0,3,,,,,,,,12,,,67,0
4992,note_on,,96,0,1,,,,,,,,10,,,69,0
4992,note_on,,0,0,13,,,,,,,,7,,,69,92
4992,note_on,,0,0,14,,,,,,,,8,,,67,92
4992,note_on,,0,0,14,,,,,,,,8,,,62,92
4992,note_on,,96,0,13,,,,,,,,7,,,69,0
4992,note_on,,192,0,14,,,,,,,,8,,,67,0
5184,note_on,,192,0,14,,,,,,,,8,,,67,0
5184,note_on,,384,0,2,,,,,,,,11,,,67,0
5184,note_on,,0,0,14,,,,,,,,8,,,66,92
5184,note_on,,192,0,3,,,,,,,,12,,,62,0
5184,note_on,,0,0,3,,,,,,,,12,,,62,108
5184,note_on,,0,0,2,,,,,,,,11,,,66,108
5280,note_on,,288,0,13,,,,,,,,7,,,69,0
5280,note_on,,288,0,1,,,,,,,,10,,,69,0
5280,note_on,,0,0,13,,,,,,,,7,,,67,92
5280,note_on,,0,0,1,,,,,,,,10,,,67,108
5376,note_on,,0,0,2,,,,,,,,11,,,67,108
5376,note_on,,96,0,1,,,,,,,,10,,,67,0
5376,note_on,,0,0,1,,,,,,,,10,,,67,108
5376,note_on,,192,0,2,,,,,,,,11,,,66,0
5376,note_on,,0,0,3,,,,,,,,12,,,67,108
5376,note_on,,192,0,3,,,,,,,,12,,,62,0
5376,note_on,,0,0,13,,,,,,,,7,,,67,92
5376,note_on,,96,0,13,,,,,,,,7,,,67,0
5376,note_on,,0,0,14,,,,,,,,8,,,55,92
5376,note_on,,192,0,14,,,,,,,,8,,,62,0
5376,note_on,,0,0,14,,,,,,,,8,,,66,0
6144,note_on,,6144,0,11,,,,,,,,5,,,74,108
6144,note_on,,768,0,3,,,,,,,,12,,,67,0
6144,note_on,,768,0,1,,,,,,,,10,,,67,0
6144,note_on,,768,0,13,,,,,,,,7,,,67,0
6144,note_on,,768,0,14,,,,,,,,8,,,55,0
6144,note_on,,768,0,2,,,,,,,,11,,,67,0
6144,note_on,,6144,0,12,,,,,,,,6,,,71,108
6528,note_on,,384,0,11,,,,,,,,5,,,74,0
6528,note_on,,0,0,11,,,,,,,,5,,,71,108
6528,note_on,,0,0,12,,,,,,,,6,,,67,108
6528,note_on,,384,0,12,,,,,,,,6,,,71,0
6816,note_on,,0,0,11,,,,,,,,5,,,72,108
6816,note_on,,288,0,11,,,,,,,,5,,,71,0
6816,note_on,,288,0,12,,,,,,,,6,,,67,0
6816,note_on,,0,0,12,,,,,,,,6,,,69,108
6912,note_on,,96,0,12,,,,,,,,6,,,69,0
6912,note_on,,0,0,12,,,,,,,,6,,,71,108
6912,note_on,,96,0,11,,,,,,,,5,,,72,0
6912,note_on,,0,0,11,,,,,,,,5,,,74,108
7296,note_on,,0,0,12,,,,,,,,6,,,59,108
7296,note_on,,384,0,12,,,,,,,,6,,,71,0
7296,note_on,,384,0,11,,,,,,,,5,,,74,0
7296,note_on,,0,0,11,,,,,,,,5,,,67,108
7680,note_on,,0,0,12,,,,,,,,6,,,62,108
7680,note_on,,384,0,12,,,,,,,,6,,,59,0
7680,note_on,,0,0,11,,,,,,,,5,,,69,108
7680,note_on,,384,0,11,,,,,,,,5,,,67,0
7776,note_on,,0,0,11,,,,,,,,5,,,71,108
7776,note_on,,96,0,11,,,,,,,,5,,,69,0
7872,note_on,,0,0,12,,,,,,,,6,,,69,108
7872,note_on,,96,0,11,,,,,,,,5,,,71,0
7872,note_on,,0,0,11,,,,,,,,5,,,72,108
7872,note_on,,192,0,12,,,,,,,,6,,,62,0
7968,note_on,,0,0,11,,,,,,,,5,,,74,108
7968,note_on,,96,0,11,,,,,,,,5,,,72,0
8064,note_on,,0,0,12,,,,,,,,6,,,69,108
8064,note_on,,192,0,12,,,,,,,,6,,,69,0
8064,note_on,,0,0,11,,,,,,,,5,,,72,108
8064,note_on,,96,0,11,,,,,,,,5,,,74,0
8256,note_on,,0,0,12,,,,,,,,6,,,67,108
8256,note_on,,192,0,12,,,,,,,,6,,,69,0
8256,note_on,,0,0,11,,,,,,,,5,,,71,108
8256,note_on,,192,0,11,,,,,,,,5,,,72,0
8448,note_on,,0,0,11,,,,,,,,5,,,69,108
8448,note_on,,192,0,11,,,,,,,,5,,,71,0
8448,note_on,,192,0,12,,,,,,,,6,,,67,0
8448,note_on,,0,0,12,,,,,,,,6,,,62,108
9216,note_on,,0,0,12,,,,,,,,6,,,67,108
9216,note_on,,0,0,11,,,,,,,,5,,,71,108
9216,note_on,,768,0,12,,,,,,,,6,,,62,0
9216,note_on,,768,0,11,,,,,,,,5,,,69,0
9312,note_on,,96,0,11,,,,,,,,5,,,71,0
9312,note_on,,0,0,12,,,,,,,,6,,,69,108
9312,note_on,,96,0,12,,,,,,,,6,,,67,0
9312,note_on,,0,0,11,,,,,,,,5,,,72,108
9408,note_on,,96,0,11,,,,,,,,5,,,72,0
9408,note_on,,0,0,11,,,,,,,,5,,,74,108
9408,note_on,,0,0,12,,,,,,,,6,,,71,108
9408,note_on,,96,0,12,,,,,,,,6,,,69,0
9504,note_on,,96,0,11,,,,,,,,5,,,74,0
9504,note_on,,0,0,11,,,,,,,,5,,,76,108
9504,note_on,,0,0,12,,,,,,,,6,,,72,108
9504,note_on,,96,0,12,,,,,,,,6,,,71,0
9600,note_on,,0,0,12,,,,,,,,6,,,71,108
9600,note_on,,96,0,12,,,,,,,,6,,,72,0
9600,note_on,,0,0,11,,,,,,,,5,,,74,108
9600,note_on,,96,0,11,,,,,,,,5,,,76,0
9792,note_on,,192,0,11,,,,,,,,5,,,74,0
9792,note_on,,192,0,12,,,,,,,,6,,,71,0
9792,note_on,,0,0,11,,,,,,,,5,,,74,108
9792,note_on,,0,0,12,,,,,,,,6,,,71,108
9984,note_on,,192,0,11,,,,,,,,5,,,74,0
9984,note_on,,0,0,11,,,,,,,,5,,,79,108
9984,note_on,,0,0,12,,,,,,,,6,,,71,108
9984,note_on,,192,0,12,,,,,,,,6,,,71,0
10176,note_on,,0,0,12,,,,,,,,6,,,67,108
10176,note_on,,192,0,12,,,,,,,,6,,,71,0
10272,note_on,,0,0,12,,,,,,,,6,,,69,108
10272,note_on,,96,0,12,,,,,,,,6,,,67,0
10368,note_on,,0,0,11,,,,,,,,5,,,74,108
10368,note_on,,96,0,12,,,,,,,,6,,,69,0
10368,note_on,,384,0,11,,,,,,,,5,,,79,0
10368,note_on,,0,0,12,,,,,,,,6,,,71,108
10560,note_on,,192,0,12,,,,,,,,6,,,71,0
10560,note_on,,0,0,12,,,,,,,,6,,,62,108
10752,note_on,,384,0,11,,,,,,,,5,,,74,0
10752,note_on,,0,0,11,,,,,,,,5,,,72,108
10752,note_on,,192,0,12,,,,,,,,6,,,62,0
10752,note_on,,0,0,12,,,,,,,,6,,,69,108
10944,note_on,,0,0,11,,,,,,,,5,,,71,108
10944,note_on,,192,0,12,,,,,,,,6,,,69,0
10944,note_on,,0,0,12,,,,,,,,6,,,67,108
10944,note_on,,192,0,11,,,,,,,,5,,,72,0
11040,note_on,,96,0,11,,,,,,,,5,,,71,0
11040,note_on,,0,0,11,,,,,,,,5,,,69,108
11136,note_on,,192,0,12,,,,,,,,6,,,67,0
11136,note_on,,96,0,11,,,,,,,,5,,,69,0
11136,note_on,,0,0,12,,,,,,,,6,,,62,108
11136,note_on,,0,0,11,,,,,,,,5,,,69,108
11424,note_on,,288,0,11,,,,,,,,5,,,69,0
11424,note_on,,288,0,12,,,,,,,,6,,,62,0
11424,note_on,,0,0,12,,,,,,,,6,,,62,108
11424,note_on,,0,0,11,,,,,,,,5,,,67,108
11520,note_on,,96,0,11,,,,,,,,5,,,67,0
11520,note_on,,0,0,11,,,,,,,,5,,,67,108
11520,note_on,,96,0,12,,,,,,,,6,,,62,0
11520,note_on,,0,0,12,,,,,,,,6,,,59,108
12288,note_on,,6144,0,13,,,,,,,,7,,,71,92
12288,note_on,,6144,0,1,,,,,,,,10,,,71,108
12288,note_on,,768,0,11,,,,,,,,5,,,67,0
12288,note_on,,6144,0,14,,,,,,,,8,,,67,92
12288,note_on,,768,0,12,,,,,,,,6,,,59,0
12288,note_on,,6144,0,2,,,,,,,,11,,,67,108
12288,note_on,,6144,0,3,,,,,,,,12,,,67,108
12384,note_on,,0,0,13,,,,,,,,7,,,69,92
12384,note_on,,96,0,13,,,,,,,,7,,,71,0
12384,note_on,,0,0,1,,,,,,,,10,,,69,108
12384,note_on,,96,0,1,,,,,,,,10,,,71,0
12384,note_on,,96,0,2,,,,,,,,11,,,67,0
12384,note_on,,0,0,2,,,,,,,,11,,,66,108
12480,note_on,,0,0,13,,,,,,,,7,,,71,92
12480,note_on,,0,0,13,,,,,,,,7,,,67,92
12480,note_on,,96,0,13,,,,,,,,7,,,69,0
12480,note_on,,192,0,3,,,,,,,,12,,,67,0
12480,note_on,,0,0,3,,,,,,,,12,,,66,108
12480,note_on,,96,0,1,,,,,,,,10,,,69,0
12480,note_on,,0,0,14,,,,,,,,8,,,66,92
12480,note_on,,0,0,2,,,,,,,,11,,,67,108
12480,note_on,,96,0,2,,,,,,,,11,,,66,0
12480,note_on,,0,0,1,,,,,,,,10,,,71,108
12480,note_on,,192,0,14,,,,,,,,8,,,67,0
12576,note_on,,96,0,1,,,,,,,,10,,,71,0
12576,note_on,,0,0,1,,,,,,,,10,,,72,108
12576,note_on,,96,0,2,,,,,,,,11,,,67,0
12576,note_on,,0,0,2,,,,,,,,11,,,69,108
12576,note_on,,0,0,13,,,,,,,,7,,,72,92
12576,note_on,,0,0,13,,,,,,,,7,,,69,92
12576,note_on,,0,0,13,,,,,,,,7,,,71,0
12576,note_on,,96,0,13,,,,,,,,7,,,67,0
12672,note_on,,0,0,13,,,,,,,,7,,,71,92
12672,note_on,,0,0,13,,,,,,,,7,,,72,0
12672,note_on,,96,0,13,,,,,,,,7,,,69,0
12672,note_on,,192,0,3,,,,,,,,12,,,66,0
12672,note_on,,0,0,14,,,,,,,,8,,,67,92
12672,note_on,,192,0,14,,,,,,,,8,,,66,0
12672,note_on,,96,0,1,,,,,,,,10,,,72,0
12672,note_on,,0,0,2,,,,,,,,11,,,67,108
12672,note_on,,96,0,2,,,,,,,,11,,,69,0
12672,note_on,,0,0,1,,,,,,,,10,,,71,108
12672,note_on,,0,0,3,,,,,,,,12,,,67,108
12864,note_on,,0,0,2,,,,,,,,11,,,67,108
12864,note_on,,192,0,2,,,,,,,,11,,,67,0
12864,note_on,,0,0,1,,,,,,,,10,,,71,108
12864,note_on,,192,0,1,,,,,,,,10,,,71,0
12864,note_on,,192,0,14,,,,,,,,8,,,67,0
12864,note_on,,0,0,3,,,,,,,,12,,,64,108
12864,note_on,,192,0,3,,,,,,,,12,,,67,0
12864,note_on,,0,0,14,,,,,,,,8,,,64,92
12864,note_on,,0,0,13,,,,,,,,7,,,71,92
12864,note_on,,0,0,13,,,,,,,,7,,,67,92
12864,note_on,,192,0,13,,,,,,,,7,,,71,0
13056,note_on,,0,0,3,,,,,,,,12,,,66,108
13056,note_on,,192,0,2,,,,,,,,11,,,67,0
13056,note_on,,0,0,2,,,,,,,,11,,,66,108
13056,note_on,,192,0,14,,,,,,,,8,,,64,0
13056,note_on,,0,0,14,,,,,,,,8,,,66,92
13056,note_on,,0,0,13,,,,,,,,7,,,71,0
13056,note_on,,192,0,3,,,,,,,,12,,,64,0
13056,note_on,,0,0,1,,,,,,,,10,,,69,108
13056,note_on,,192,0,1,,,,,,,,10,,,71,0
13056,note_on,,0,0,13,,,,,,,,7,,,69,92
13056,note_on,,192,0,13,,,,,,,,7,,,67,0
13248,note_on,,192,0,1,,,,,,,,10,,,69,0
13248,note_on,,0,0,1,,,,,,,,10,,,71,108
13248,note_on,,0,0,2,,,,,,,,11,,,67,108
13248,note_on,,192,0,2,,,,,,,,11,,,66,0
13248,note_on,,0,0,13,,,,,,,,7,,,71,92
13248,note_on,,0,0,13,,,,,,,,7,,,67,92
13248,note_on,,192,0,14,,,,,,,,8,,,66,0
13248,note_on,,0,0,3,,,,,,,,12,,,63,108
13248,note_on,,192,0,3,,,,,,,,12,,,66,0
13248,note_on,,192,0,13,,,,,,,,7,,,69,0
13248,note_on,,0,0,14,,,,,,,,8,,,63,92
13344,note_on,,0,0,13,,,,,,,,7,,,69,92
13344,note_on,,96,0,13,,,,,,,,7,,,67,0
13344,note_on,,0,0,13,,,,,,,,7,,,71,0
13344,note_on,,0,0,13,,,,,,,,7,,,66,92
13344,note_on,,96,0,2,,,,,,,,11,,,67,0
13344,note_on,,0,0,2,,,,,,,,11,,,66,108
13344,note_on,,96,0,1,,,,,,,,10,,,71,0
13344,note_on,,0,0,1,,,,,,,,10,,,69,108
13440,note_on,,0,0,13,,,,,,,,7,,,67,92
13440,note_on,,0,0,13,,,,,,,,7,,,69,0
13440,note_on,,192,0,3,,,,,,,,12,,,63,0
13440,note_on,,0,0,1,,,,,,,,10,,,67,108
13440,note_on,,0,0,14,,,,,,,,8,,,64,92
13440,note_on,,96,0,13,,,,,,,,7,,,66,0
13440,note_on,,0,0,3,,,,,,,,12,,,64,108
13440,note_on,,96,0,2,,,,,,,,11,,,66,0
13440,note_on,,96,0,1,,,,,,,,10,,,69,0
13440,note_on,,0,0,2,,,,,,,,11,,,64,108
13440,note_on,,192,0,14,,,,,,,,8,,,63,0
13632,note_on,,0,0,14,,,,,,,,8,,,60,92
13632,note_on,,0,0,3,,,,,,,,12,,,60,108
13632,note_on,,192,0,3,,,,,,,,12,,,64,0
13632,note_on,,0,0,2,,,,,,,,11,,,64,108
13632,note_on,,0,0,13,,,,,,,,7,,,64,92
13632,note_on,,192,0,13,,,,,,,,7,,,67,0
13632,note_on,,0,0,13,,,,,,,,7,,,67,92
13632,note_on,,192,0,1,,,,,,,,10,,,67,0
13632,note_on,,0,0,1,,,,,,,,10,,,67,108
13632,note_on,,192,0,2,,,,,,,,11,,,64,0
13632,note_on,,192,0,14,,,,,,,,8,,,64,0
13824,note_on,,192,0,14,,,,,,,,8,,,60,0
13824,note_on,,192,0,2,,,,,,,,11,,,64,0
13824,note_on,,192,0,1,,,,,,,,10,,,67,0
13824,note_on,,0,0,1,,,,,,,,10,,,72,108
13824,note_on,,0,0,13,,,,,,,,7,,,72,92
13824,note_on,,0,0,14,,,,,,,,8,,,57,92
13824,note_on,,0,0,13,,,,,,,,7,,,69,92
13824,note_on,,192,0,13,,,,,,,,7,,,64,0
13824,note_on,,0,0,3,,,,,,,,12,,,57,108
13824,note_on,,192,0,3,,,,,,,,12,,,60,0
13824,note_on,,0,0,13,,,,,,,,7,,,67,0
13824,note_on,,0,0,2,,,,,,,,11,,,69,108
14016,note_on,,0,0,1,,,,,,,,10,,,71,108
14016,note_on,,192,0,13,,,,,,,,7,,,69,0
14016,note_on,,0,0,13,,,,,,,,7,,,72,0
14016,note_on,,0,0,13,,,,,,,,7,,,67,92
14016,note_on,,0,0,13,,,,,,,,7,,,71,92
14016,note_on,,192,0,1,,,,,,,,10,,,72,0
14016,note_on,,0,0,2,,,,,,,,11,,,67,108
14016,note_on,,192,0,2,,,,,,,,11,,,69,0
14208,note_on,,0,0,2,,,,,,,,11,,,66,108
14208,note_on,,192,0,2,,,,,,,,11,,,67,0
14208,note_on,,192,0,1,,,,,,,,10,,,71,0
14208,note_on,,0,0,13,,,,,,,,7,,,66,92
14208,note_on,,0,0,1,,,,,,,,10,,,69,108
14208,note_on,,0,0,13,,,,,,,,7,,,71,0
14208,note_on,,192,0,13,,,,,,,,7,,,67,0
14208,note_on,,0,0,13,,,,,,,,7,,,69,92
14400,note_on,,0,0,3,,,,,,,,12,,,57,108
14400,note_on,,576,0,3,,,,,,,,12,,,57,0
14400,note_on,,192,0,2,,,,,,,,11,,,66,0
14400,note_on,,0,0,13,,,,,,,,7,,,69,0
14400,note_on,,192,0,1,,,,,,,,10,,,69,0
14400,note_on,,0,0,1,,,,,,,,10,,,67,108
14400,note_on,,0,0,13,,,,,,,,7,,,67,92
14400,note_on,,0,0,2,,,,,,,,11,,,64,108
14400,note_on,,576,0,14,,,,,,,,8,,,57,0
14400,note_on,,0,0,14,,,,,,,,8,,,57,92
14400,note_on,,192,0,13,,,,,,,,7,,,66,0
14400,note_on,,0,0,13,,,,,,,,7,,,64,92
14592,note_on,,0,0,14,,,,,,,,8,,,59,92
14592,note_on,,0,0,3,,,,,,,,12,,,59,108
14592,note_on,,192,0,3,,,,,,,,12,,,57,0
14592,note_on,,192,0,13,,,,,,,,7,,,64,0
14592,note_on,,0,0,13,,,,,,,,7,,,67,0
14592,note_on,,0,0,13,,,,,,,,7,,,63,92
14592,note_on,,0,0,13,,,,,,,,7,,,66,92
14592,note_on,,192,0,1,,,,,,,,10,,,67,0
14592,note_on,,0,0,2,,,,,,,,11,,,63,108
14592,note_on,,192,0,2,,,,,,,,11,,,64,0
14592,note_on,,192,0,14,,,,,,,,8,,,57,0
14592,note_on,,0,0,1,,,,,,,,10,,,66,108
14784,note_on,,192,0,14,,,,,,,,8,,,57,92
14976,note_on,,192,0,14,,,,,,,,8,,,57,0
14976,note_on,,0,0,14,,,,,,,,8,,,55,92
15168,note_on,,192,0,14,,,,,,,,8,,,55,0
15168,note_on,,0,0,14,,,,,,,,8,,,54,92
15360,note_on,,768,0,1,,,,,,,,10,,,66,0
15360,note_on,,0,0,13,,,,,,,,7,,,76,92
15360,note_on,,768,0,3,,,,,,,,12,,,59,0
15360,note_on,,192,0,14,,,,,,,,8,,,54,0
15360,note_on,,0,0,14,,,,,,,,8,,,59,0
15360,note_on,,0,0,14,,,,,,,,8,,,52,92
15360,note_on,,0,0,14,,,,,,,,8,,,59,92
15360,note_on,,0,0,2,,,,,,,,11,,,71,108
15360,note_on,,768,0,2,,,,,,,,11,,,63,0
15360,note_on,,0,0,3,,,,,,,,12,,,67,108
15360,note_on,,0,0,13,,,,,,,,7,,,66,0
15360,note_on,,768,0,13,,,,,,,,7,,,63,0
15360,note_on,,0,0,1,,,,,,,,10,,,76,108
15360,note_on,,0,0,13,,,,,,,,7,,,67,92
15456,note_on,,0,0,3,,,,,,,,12,,,66,108
15456,note_on,,0,0,13,,,,,,,,7,,,75,92
15456,note_on,,96,0,3,,,,,,,,12,,,67,0
15456,note_on,,0,0,1,,,,,,,,10,,,75,108
15456,note_on,,96,0,1,,,,,,,,10,,,76,0
15456,note_on,,96,0,13,,,,,,,,7,,,67,0
15456,note_on,,0,0,13,,,,,,,,7,,,76,0
15456,note_on,,0,0,13,,,,,,,,7,,,66,92
15552,note_on,,0,0,13,,,,,,,,7,,,76,92
15552,note_on,,0,0,13,,,,,,,,7,,,75,0
15552,note_on,,0,0,13,,,,,,,,7,,,67,92
15552,note_on,,192,0,14,,,,,,,,8,,,52,0
15552,note_on,,96,0,3,,,,,,,,12,,,66,0
15552,note_on,,0,0,1,,,,,,,,10,,,76,108
15552,note_on,,96,0,1,,,,,,,,10,,,75,0
15552,note_on,,96,0,13,,,,,,,,7,,,66,0
15552,note_on,,0,0,3,,,,,,,,12,,,67,108
15648,note_on,,0,0,13,,,,,,,,7,,,69,92
15648,note_on,,0,0,13,,,,,,,,7,,,76,0
15648,note_on,,0,0,3,,,,,,,,12,,,69,108
15648,note_on,,96,0,3,,,,,,,,12,,,67,0
15648,note_on,,96,0,1,,,,,,,,10,,,76,0
15648,note_on,,96,0,13,,,,,,,,7,,,67,0
15648,note_on,,0,0,13,,,,,,,,7,,,78,92
15648,note_on,,0,0,1,,,,,,,,10,,,78,108
15744,note_on,,0,0,1,,,,,,,,10,,,76,108
15744,note_on,,96,0,1,,,,,,,,10,,,78,0
15744,note_on,,192,0,14,,,,,,,,8,,,59,0
15744,note_on,,0,0,13,,,,,,,,7,,,76,92
15744,note_on,,0,0,13,,,,,,,,7,,,71,92
15744,note_on,,96,0,13,,,,,,,,7,,,69,0
15744,note_on,,0,0,13,,,,,,,,7,,,78,0
15744,note_on,,96,0,3,,,,,,,,12,,,69,0
15744,note_on,,0,0,3,,,,,,,,12,,,67,108
15744,note_on,,0,0,13,,,,,,,,7,,,67,92
15936,note_on,,0,0,1,,,,,,,,10,,,76,108
15936,note_on,,192,0,1,,,,,,,,10,,,76,0
15936,note_on,,192,0,3,,,,,,,,12,,,67,0
15936,note_on,,192,0,14,,,,,,,,8,,,66,92
15936,note_on,,576,0,2,,,,,,,,11,,,71,0
15936,note_on,,0,0,13,,,,,,,,7,,,75,92
15936,note_on,,0,0,13,,,,,,,,7,,,76,0
15936,note_on,,0,0,2,,,,,,,,11,,,75,108
15936,note_on,,0,0,13,,,,,,,,7,,,71,0
15936,note_on,,192,0,13,,,,,,,,7,,,67,0
15936,note_on,,0,0,3,,,,,,,,12,,,66,108
15936,note_on,,0,0,13,,,,,,,,7,,,78,92
16128,note_on,,0,0,13,,,,,,,,7,,,78,0
16128,note_on,,0,0,13,,,,,,,,7,,,76,92
16128,note_on,,0,0,13,,,,,,,,7,,,79,92
16128,note_on,,192,0,13,,,,,,,,7,,,75,0
16128,note_on,,0,0,1,,,,,,,,10,,,79,108
16128,note_on,,192,0,3,,,,,,,,12,,,66,0
16128,note_on,,0,0,3,,,,,,,,12,,,64,108
16128,note_on,,0,0,2,,,,,,,,11,,,76,108
16128,note_on,,192,0,2,,,,,,,,11,,,75,0
16128,note_on,,0,0,14,,,,,,,,8,,,64,92
16128,note_on,,192,0,1,,,,,,,,10,,,76,0
16128,note_on,,192,0,14,,,,,,,,8,,,66,0
16512,note_on,,0,0,1,,,,,,,,10,,,76,108
16512,note_on,,384,0,3,,,,,,,,12,,,64,0
16512,note_on,,0,0,3,,,,,,,,12,,,69,108
16512,note_on,,0,0,14,,,,,,,,8,,,69,92
16512,note_on,,384,0,1,,,,,,,,10,,,79,0
16512,note_on,,384,0,14,,,,,,,,8,,,64,0
16512,note_on,,0,0,13,,,,,,,,7,,,79,0
16512,note_on,,0,0,13,,,,,,,,7,,,73,92
16512,note_on,,0,0,13,,,,,,,,7,,,76,92
16512,note_on,,0,0,2,,,,,,,,11,,,73,108
16512,note_on,,384,0,13,,,,,,,,7,,,76,0
16512,note_on,,384,0,2,,,,,,,,11,,,76,0
16896,note_on,,384,0,14,,,,,,,,8,,,69,0
16896,note_on,,0,0,14,,,,,,,,8,,,62,92
16896,note_on,,384,0,13,,,,,,,,7,,,73,0
16896,note_on,,0,0,3,,,,,,,,12,,,62,108
16896,note_on,,384,0,3,,,,,,,,12,,,69,0
16896,note_on,,0,0,13,,,,,,,,7,,,76,0
16896,note_on,,0,0,13,,,,,,,,7,,,74,92
16896,note_on,,0,0,13,,,,,,,,7,,,78,92
16896,note_on,,0,0,1,,,,,,,,10,,,78,108
16896,note_on,,384,0,1,,,,,,,,10,,,76,0
16896,note_on,,384,0,2,,,,,,,,11,,,73,0
16896,note_on,,0,0,2,,,,,,,,11,,,74,108
17088,note_on,,0,0,3,,,,,,,,12,,,67,108
17088,note_on,,192,0,3,,,,,,,,12,,,62,0
17088,note_on,,0,0,13,,,,,,,,7,,,76,92
17088,note_on,,0,0,13,,,,,,,,7,,,73,92
17088,note_on,,0,0,13,,,,,,,,7,,,78,0
17088,note_on,,192,0,13,,,,,,,,7,,,74,0
17088,note_on,,192,0,14,,,,,,,,8,,,62,0
17088,note_on,,192,0,1,,,,,,,,10,,,78,0
17088,note_on,,0,0,1,,,,,,,,10,,,76,108
17088,note_on,,0,0,14,,,,,,,,8,,,67,92
17088,note_on,,192,0,2,,,,,,,,11,,,74,0
17088,note_on,,0,0,2,,,,,,,,11,,,73,108
17184,note_on,,0,0,1,,,,,,,,10,,,74,108
17184,note_on,,0,0,13,,,,,,,,7,,,74,92
17184,note_on,,0,0,13,,,,,,,,7,,,71,92
17184,note_on,,0,0,13,,,,,,,,7,,,76,0
17184,note_on,,96,0,1,,,,,,,,10,,,76,0
17184,note_on,,96,0,2,,,,,,,,11,,,73,0
17184,note_on,,0,0,2,,,,,,,,11,,,71,108
17184,note_on,,96,0,13,,,,,,,,7,,,73,0
17280,note_on,,0,0,2,,,,,,,,11,,,69,108
17280,note_on,,0,0,1,,,,,,,,10,,,73,108
17280,note_on,,192,0,14,,,,,,,,8,,,67,0
17280,note_on,,0,0,14,,,,,,,,8,,,69,92
17280,note_on,,96,0,13,,,,,,,,7,,,71,0
17280,note_on,,0,0,13,,,,,,,,7,,,74,0
17280,note_on,,0,0,13,,,,,,,,7,,,73,92
17280,note_on,,96,0,1,,,,,,,,10,,,74,0
17280,note_on,,192,0,3,,,,,,,,12,,,67,0
17280,note_on,,0,0,3,,,,,,,,12,,,69,108
17280,note_on,,96,0,2,,,,,,,,11,,,71,0
17472,note_on,,192,0,3,,,,,,,,12,,,69,0
17472,note_on,,0,0,2,,,,,,,,11,,,67,108
17472,note_on,,0,0,3,,,,,,,,12,,,57,108
17472,note_on,,192,0,2,,,,,,,,11,,,69,0
17472,note_on,,192,0,14,,,,,,,,8,,,69,0
17472,note_on,,0,0,14,,,,,,,,8,,,57,92
17472,note_on,,0,0,14,,,,,,,,8,,,67,92
17568,note_on,,288,0,1,,,,,,,,10,,,73,0
17568,note_on,,0,0,1,,,,,,,,10,,,74,108
17568,note_on,,0,0,13,,,,,,,,7,,,74,92
17568,note_on,,288,0,13,,,,,,,,7,,,73,0
17664,note_on,,0,0,3,,,,,,,,12,,,62,108
17664,note_on,,0,0,1,,,,,,,,10,,,74,108
17664,note_on,,96,0,1,,,,,,,,10,,,74,0
17664,note_on,,0,0,14,,,,,,,,8,,,66,92
17664,note_on,,0,0,14,,,,,,,,8,,,62,92
17664,note_on,,0,0,14,,,,,,,,8,,,67,0
17664,note_on,,192,0,14,,,,,,,,8,,,57,0
17664,note_on,,192,0,3,,,,,,,,12,,,57,0
17664,note_on,,0,0,2,,,,,,,,11,,,66,108
17664,note_on,,96,0,13,,,,,,,,7,,,74,0
17664,note_on,,0,0,13,,,,,,,,7,,,74,92
17664,note_on,,192,0,2,,,,,,,,11,,,67,0
18432,note_on,,6144,0,11,,,,,,,,5,,,74,108
18432,note_on,,0,0,3,,,,,,,,12,,,67,108
18432,note_on,,768,0,3,,,,,,,,12,,,62,0
18432,note_on,,0,0,13,,,,,,,,7,,,71,92
18432,note_on,,0,0,14,,,,,,,,8,,,67,92
18432,note_on,,0,0,14,,,,,,,,8,,,66,0
18432,note_on,,0,0,1,,,,,,,,10,,,74,108
18432,note_on,,768,0,1,,,,,,,,10,,,74,0
18432,note_on,,768,0,13,,,,,,,,7,,,74,0
18432,note_on,,6144,0,12,,,,,,,,6,,,71,108
18432,note_on,,0,0,2,,,,,,,,11,,,71,108
18432,note_on,,768,0,2,,,,,,,,11,,,66,0
18432,note_on,,768,0,14,,,,,,,,8,,,62,0
18432,note_on,,0,0,13,,,,,,,,7,,,74,92
18816,note_on,,384,0,2,,,,,,,,11,,,71,0
18816,note_on,,0,0,2,,,,,,,,11,,,67,108
18816,note_on,,0,0,12,,,,,,,,6,,,67,108
18816,note_on,,384,0,12,,,,,,,,6,,,71,0
18816,note_on,,0,0,1,,,,,,,,10,,,71,108
18816,note_on,,0,0,13,,,,,,,,7,,,71,92
18816,note_on,,0,0,13,,,,,,,,7,,,67,92
18816,note_on,,0,0,11,,,,,,,,5,,,71,108
18816,note_on,,384,0,11,,,,,,,,5,,,74,0
18816,note_on,,0,0,13,,,,,,,,7,,,74,0
18816,note_on,,384,0,13,,,,,,,,7,,,71,0
18816,note_on,,384,0,14,,,,,,,,8,,,67,0
18816,note_on,,384,0,1,,,,,,,,10,,,74,0
18816,note_on,,0,0,14,,,,,,,,8,,,55,92
19008,note_on,,0,0,3,,,,,,,,12,,,62,108
19008,note_on,,576,0,3,,,,,,,,12,,,67,0
19104,note_on,,0,0,13,,,,,,,,7,,,69,92
19104,note_on,,0,0,13,,,,,,,,7,,,72,92
19104,note_on,,288,0,1,,,,,,,,10,,,71,0
19104,note_on,,0,0,1,,,,,,,,10,,,72,108
19104,note_on,,288,0,13,,,,,,,,7,,,67,0
19104,note_on,,288,0,2,,,,,,,,11,,,67,0
19104,note_on,,0,0,2,,,,,,,,11,,,69,108
19104,note_on,,0,0,12,,,,,,,,6,,,69,108
19104,note_on,,288,0,12,,,,,,,,6,,,67,0
19104,note_on,,288,0,11,,,,,,,,5,,,71,0
19104,note_on,,0,0,11,,,,,,,,5,,,72,108
19104,note_on,,0,0,13,,,,,,,,7,,,71,0
19200,note_on,,384,0,14,,,,,,,,8,,,55,0
19200,note_on,,192,0,3,,,,,,,,12,,,62,0
19200,note_on,,0,0,3,,,,,,,,12,,,67,108
19200,note_on,,0,0,14,,,,,,,,8,,,67,92
19200,note_on,,96,0,2,,,,,,,,11,,,69,0
19200,note_on,,0,0,2,,,,,,,,11,,,67,108
19200,note_on,,0,0,11,,,,,,,,5,,,74,108
19200,note_on,,96,0,13,,,,,,,,7,,,69,0
19200,note_on,,0,0,13,,,,,,,,7,,,72,0
19200,note_on,,0,0,13,,,,,,,,7,,,71,92
19200,note_on,,0,0,13,,,,,,,,7,,,74,92
19200,note_on,,96,0,1,,,,,,,,10,,,72,0
19200,note_on,,0,0,1,,,,,,,,10,,,74,108
19200,note_on,,96,0,12,,,,,,,,6,,,69,0
19200,note_on,,0,0,12,,,,,,,,6,,,71,108
19200,note_on,,96,0,11,,,,,,,,5,,,72,0
19776,note_on,,576,0,11,,,,,,,,5,,,74,0
19776,note_on,,0,0,11,,,,,,,,5,,,67,108
19776,note_on,,576,0,14,,,,,,,,8,,,67,0
19776,note_on,,576,0,12,,,,,,,,6,,,71,0
19776,note_on,,0,0,12,,,,,,,,6,,,59,108
19776,note_on,,576,0,3,,,,,,,,12,,,67,0
19776,note_on,,0,0,1,,,,,,,,10,,,67,108
19776,note_on,,576,0,1,,,,,,,,10,,,74,0
19776,note_on,,576,0,2,,,,,,,,11,,,67,0
19776,note_on,,0,0,14,,,,,,,,8,,,59,92
19776,note_on,,0,0,3,,,,,,,,12,,,59,108
19776,note_on,,0,0,2,,,,,,,,11,,,62,108
19776,note_on,,0,0,14,,,,,,,,8,,,62,92
19776,note_on,,0,0,13,,,,,,,,7,,,67,92
19776,note_on,,0,0,13,,,,,,,,7,,,74,0
19776,note_on,,576,0,13,,,,,,,,7,,,71,0
19968,note_on,,192,0,12,,,,,,,,6,,,59,0
19968,note_on,,192,0,1,,,,,,,,10,,,67,0
19968,note_on,,0,0,1,,,,,,,,10,,,69,108
19968,note_on,,0,0,3,,,,,,,,12,,,62,108
19968,note_on,,0,0,12,,,,,,,,6,,,62,108
19968,note_on,,192,0,13,,,,,,,,7,,,67,0
19968,note_on,,192,0,14,,,,,,,,8,,,59,0
19968,note_on,,0,0,14,,,,,,,,8,,,62,92
19968,note_on,,192,0,11,,,,,,,,5,,,67,0
19968,note_on,,0,0,11,,,,,,,,5,,,69,108
19968,note_on,,0,0,13,,,,,,,,7,,,69,92
19968,note_on,,192,0,2,,,,,,,,11,,,62,0
19968,note_on,,0,0,2,,,,,,,,11,,,66,108
19968,note_on,,192,0,3,,,,,,,,12,,,59,0
19968,note_on,,0,0,14,,,,,,,,8,,,62,0
19968,note_on,,0,0,13,,,,,,,,7,,,66,92
20064,note_on,,0,0,2,,,,,,,,11,,,67,108
20064,note_on,,0,0,11,,,,,,,,5,,,71,108
20064,note_on,,96,0,11,,,,,,,,5,,,69,0
20064,note_on,,0,0,1,,,,,,,,10,,,71,108
20064,note_on,,96,0,1,,,,,,,,10,,,69,0
20064,note_on,,0,0,13,,,,,,,,7,,,67,92
20064,note_on,,96,0,2,,,,,,,,11,,,66,0
20064,note_on,,0,0,13,,,,,,,,7,,,69,0
20064,note_on,,96,0,13,,,,,,,,7,,,66,0
20064,note_on,,0,0,13,,,,,,,,7,,,71,92
20160,note_on,,96,0,13,,,,,,,,7,,,67,0
20160,note_on,,0,0,11,,,,,,,,5,,,72,108
20160,note_on,,96,0,11,,,,,,,,5,,,71,0
20160,note_on,,0,0,2,,,,,,,,11,,,69,108
20160,note_on,,192,0,14,,,,,,,,8,,,55,92
20160,note_on,,192,0,12,,,,,,,,6,,,62,0
20160,note_on,,0,0,1,,,,,,,,10,,,72,108
20160,note_on,,96,0,1,,,,,,,,10,,,71,0
20160,note_on,,0,0,12,,,,,,,,6,,,69,108
20160,note_on,,96,0,2,,,,,,,,11,,,67,0
20160,note_on,,0,0,13,,,,,,,,7,,,72,92
20160,note_on,,0,0,13,,,,,,,,7,,,71,0
20160,note_on,,0,0,13,,,,,,,,7,,,69,92
20256,note_on,,96,0,13,,,,,,,,7,,,69,0
20256,note_on,,0,0,13,,,,,,,,7,,,74,92
20256,note_on,,0,0,2,,,,,,,,11,,,71,108
20256,note_on,,96,0,2,,,,,,,,11,,,69,0
20256,note_on,,0,0,1,,,,,,,,10,,,74,108
20256,note_on,,0,0,13,,,,,,,,7,,,72,0
20256,note_on,,0,0,13,,,,,,,,7,,,71,92
20256,note_on,,96,0,11,,,,,,,,5,,,72,0
20256,note_on,,0,0,11,,,,,,,,5,,,74,108
20256,note_on,,96,0,1,,,,,,,,10,,,72,0
20352,note_on,,0,0,12,,,,,,,,6,,,69,108
20352,note_on,,96,0,11,,,,,,,,5,,,74,0
20352,note_on,,0,0,11,,,,,,,,5,,,72,108
20352,note_on,,0,0,14,,,,,,,,8,,,54,92
20352,note_on,,0,0,13,,,,,,,,7,,,69,92
20352,note_on,,96,0,2,,,,,,,,11,,,71,0
20352,note_on,,96,0,13,,,,,,,,7,,,71,0
20352,note_on,,96,0,1,,,,,,,,10,,,74,0
20352,note_on,,0,0,13,,,,,,,,7,,,74,0
20352,note_on,,192,0,14,,,,,,,,8,,,55,0
20352,note_on,,0,0,2,,,,,,,,11,,,69,108
20352,note_on,,0,0,1,,,,,,,,10,,,72,108
20352,note_on,,0,0,13,,,,,,,,7,,,72,92
20352,note_on,,192,0,12,,,,,,,,6,,,69,0
20544,note_on,,0,0,13,,,,,,,,7,,,71,92
20544,note_on,,0,0,11,,,,,,,,5,,,71,108
20544,note_on,,192,0,11,,,,,,,,5,,,72,0
20544,note_on,,0,0,14,,,,,,,,8,,,55,92
20544,note_on,,0,0,2,,,,,,,,11,,,67,108
20544,note_on,,0,0,13,,,,,,,,7,,,67,92
20544,note_on,,0,0,3,,,,,,,,12,,,55,108
20544,note_on,,192,0,14,,,,,,,,8,,,54,0
20544,note_on,,192,0,13,,,,,,,,7,,,69,0
20544,note_on,,0,0,13,,,,,,,,7,,,72,0
20544,note_on,,192,0,1,,,,,,,,10,,,72,0
20544,note_on,,0,0,12,,,,,,,,6,,,67,108
20544,note_on,,192,0,12,,,,,,,,6,,,69,0
20544,note_on,,0,0,1,,,,,,,,10,,,71,108
20544,note_on,,576,0,3,,,,,,,,12,,,62,0
20544,note_on,,192,0,2,,,,,,,,11,,,69,0
20736,note_on,,0,0,14,,,,,,,,8,,,62,0
20736,note_on,,192,0,14,,,,,,,,8,,,55,0
20736,note_on,,192,0,12,,,,,,,,6,,,67,0
20736,note_on,,0,0,12,,,,,,,,6,,,62,108
20736,note_on,,192,0,1,,,,,,,,10,,,71,0
20736,note_on,,0,0,11,,,,,,,,5,,,69,108
20736,note_on,,192,0,11,,,,,,,,5,,,71,0
20736,note_on,,0,0,13,,,,,,,,7,,,69,92
20736,note_on,,0,0,13,,,,,,,,7,,,66,92
20736,note_on,,0,0,13,,,,,,,,7,,,71,0
20736,note_on,,192,0,13,,,,,,,,7,,,67,0
20736,note_on,,0,0,14,,,,,,,,8,,,62,92
20736,note_on,,192,0,2,,,,,,,,11,,,67,0
20736,note_on,,0,0,1,,,,,,,,10,,,69,108
20736,note_on,,0,0,2,,,,,,,,11,,,66,108
20736,note_on,,192,0,3,,,,,,,,12,,,55,0
20736,note_on,,0,0,3,,,,,,,,12,,,62,108
21504,note_on,,768,0,11,,,,,,,,5,,,69,0
21504,note_on,,768,0,2,,,,,,,,11,,,66,0
21504,note_on,,768,0,1,,,,,,,,10,,,69,0
21504,note_on,,0,0,11,,,,,,,,5,,,71,108
21504,note_on,,0,0,1,,,,,,,,10,,,71,108
21504,note_on,,0,0,2,,,,,,,,11,,,67,108
21504,note_on,,0,0,13,,,,,,,,7,,,69,0
21504,note_on,,768,0,13,,,,,,,,7,,,66,0
21504,note_on,,0,0,3,,,,,,,,12,,,67,108
21504,note_on,,768,0,3,,,,,,,,12,,,62,0
21504,note_on,,768,0,12,,,,,,,,6,,,62,0
21504,note_on,,0,0,12,,,,,,,,6,,,67,108
21504,note_on,,0,0,13,,,,,,,,7,,,71,92
21504,note_on,,0,0,14,,,,,,,,8,,,67,92
21504,note_on,,768,0,14,,,,,,,,8,,,62,0
21600,note_on,,96,0,13,,,,,,,,7,,,71,0
21600,note_on,,96,0,1,,,,,,,,10,,,71,0
21600,note_on,,0,0,1,,,,,,,,10,,,72,108
21600,note_on,,0,0,2,,,,,,,,11,,,69,108
21600,note_on,,0,0,12,,,,,,,,6,,,69,108
21600,note_on,,96,0,11,,,,,,,,5,,,71,0
21600,note_on,,0,0,11,,,,,,,,5,,,72,108
21600,note_on,,96,0,2,,,,,,,,11,,,67,0
21600,note_on,,0,0,13,,,,,,,,7,,,69,92
21600,note_on,,0,0,13,,,,,,,,7,,,72,92
21600,note_on,,96,0,12,,,,,,,,6,,,67,0
21696,note_on,,96,0,2,,,,,,,,11,,,69,0
21696,note_on,,0,0,2,,,,,,,,11,,,71,108
21696,note_on,,0,0,13,,,,,,,,7,,,71,92
21696,note_on,,0,0,1,,,,,,,,10,,,74,108
21696,note_on,,96,0,1,,,,,,,,10,,,72,0
21696,note_on,,0,0,13,,,,,,,,7,,,72,0
21696,note_on,,96,0,13,,,,,,,,7,,,69,0
21696,note_on,,0,0,12,,,,,,,,6,,,71,108
21696,note_on,,0,0,13,,,,,,,,7,,,74,92
21696,note_on,,0,0,11,,,,,,,,5,,,74,108
21696,note_on,,96,0,11,,,,,,,,5,,,72,0
21696,note_on,,96,0,12,,,,,,,,6,,,69,0
21792,note_on,,96,0,12,,,,,,,,6,,,71,0
21792,note_on,,0,0,13,,,,,,,,7,,,74,0
21792,note_on,,0,0,11,,,,,,,,5,,,76,108
21792,note_on,,0,0,13,,,,,,,,7,,,72,92
21792,note_on,,96,0,2,,,,,,,,11,,,71,0
21792,note_on,,0,0,13,,,,,,,,7,,,76,92
21792,note_on,,96,0,11,,,,,,,,5,,,74,0
21792,note_on,,0,0,1,,,,,,,,10,,,76,108
21792,note_on,,96,0,1,,,,,,,,10,,,74,0
21792,note_on,,0,0,2,,,,,,,,11,,,72,108
21792,note_on,,96,0,13,,,,,,,,7,,,71,0
21792,note_on,,0,0,12,,,,,,,,6,,,72,108
21888,note_on,,96,0,1,,,,,,,,10,,,76,0
21888,note_on,,96,0,2,,,,,,,,11,,,72,0
21888,note_on,,96,0,13,,,,,,,,7,,,72,0
21888,note_on,,0,0,13,,,,,,,,7,,,71,92
21888,note_on,,0,0,13,,,,,,,,7,,,74,92
21888,note_on,,0,0,2,,,,,,,,11,,,71,108
21888,note_on,,0,0,13,,,,,,,,7,,,76,0
21888,note_on,,0,0,1,,,,,,,,10,,,74,108
21888,note_on,,0,0,11,,,,,,,,5,,,74,108
21888,note_on,,96,0,11,,,,,,,,5,,,76,0
21888,note_on,,96,0,12,,,,,,,,6,,,72,0
21888,note_on,,0,0,12,,,,,,,,6,,,71,108
22080,note_on,,0,0,14,,,,,,,,8,,,67,92
22080,note_on,,0,0,3,,,,,,,,12,,,67,108
22080,note_on,,576,0,3,,,,,,,,12,,,67,0
22080,note_on,,0,0,2,,,,,,,,11,,,71,108
22080,note_on,,192,0,2,,,,,,,,11,,,71,0
22080,note_on,,0,0,13,,,,,,,,7,,,74,92
22080,note_on,,0,0,13,,,,,,,,7,,,71,92
22080,note_on,,0,0,13,,,,,,,,7,,,74,0
22080,note_on,,192,0,13,,,,,,,,7,,,71,0
22080,note_on,,192,0,12,,,,,,,,6,,,71,0
22080,note_on,,0,0,12,,,,,,,,6,,,71,108
22080,note_on,,192,0,11,,,,,,,,5,,,74,0
22080,note_on,,576,0,14,,,,,,,,8,,,67,0
22080,note_on,,0,0,11,,,,,,,,5,,,74,108
22080,note_on,,192,0,1,,,,,,,,10,,,74,0
22080,note_on,,0,0,1,,,,,,,,10,,,74,108
22272,note_on,,0,0,11,,,,,,,,5,,,79,108
22272,note_on,,0,0,14,,,,,,,,8,,,71,92
22272,note_on,,0,0,3,,,,,,,,12,,,71,108
22272,note_on,,192,0,3,,,,,,,,12,,,67,0
22272,note_on,,0,0,2,,,,,,,,11,,,74,108
22272,note_on,,192,0,2,,,,,,,,11,,,71,0
22272,note_on,,192,0,11,,,,,,,,5,,,74,0
22272,note_on,,0,0,13,,,,,,,,7,,,79,92
22272,note_on,,0,0,13,,,,,,,,7,,,74,92
22272,note_on,,0,0,13,,,,,,,,7,,,74,0
22272,note_on,,192,0,13,,,,,,,,7,,,71,0
22272,note_on,,0,0,12,,,,,,,,6,,,71,108
22272,note_on,,192,0,12,,,,,,,,6,,,71,0
22272,note_on,,192,0,14,,,,,,,,8,,,67,0
22272,note_on,,192,0,1,,,,,,,,10,,,74,0
22272,note_on,,0,0,1,,,,,,,,10,,,79,108
22464,note_on,,192,0,12,,,,,,,,6,,,71,0
22464,note_on,,0,0,12,,,,,,,,6,,,67,108
22560,note_on,,0,0,12,,,,,,,,6,,,69,108
22560,note_on,,96,0,12,,,,,,,,6,,,67,0
22656,note_on,,0,0,14,,,,,,,,8,,,67,92
22656,note_on,,384,0,14,,,,,,,,8,,,71,0
22656,note_on,,384,0,1,,,,,,,,10,,,79,0
22656,note_on,,0,0,3,,,,,,,,12,,,67,108
22656,note_on,,384,0,3,,,,,,,,12,,,71,0
22656,note_on,,384,0,13,,,,,,,,7,,,74,0
22656,note_on,,0,0,13,,,,,,,,7,,,79,0
22656,note_on,,384,0,11,,,,,,,,5,,,79,0
22656,note_on,,0,0,13,,,,,,,,7,,,71,92
22656,note_on,,384,0,2,,,,,,,,11,,,74,0
22656,note_on,,96,0,12,,,,,,,,6,,,69,0
22656,note_on,,0,0,13,,,,,,,,7,,,74,92
22656,note_on,,0,0,12,,,,,,,,6,,,71,108
22656,note_on,,0,0,1,,,,,,,,10,,,74,108
22656,note_on,,0,0,11,,,,,,,,5,,,74,108
22656,note_on,,0,0,2,,,,,,,,11,,,71,108
22848,note_on,,0,0,12,,,,,,,,6,,,62,108
22848,note_on,,192,0,12,,,,,,,,6,,,71,0
23040,note_on,,384,0,2,,,,,,,,11,,,71,0
23040,note_on,,0,0,2,,,,,,,,11,,,69,108
23040,note_on,,384,0,11,,,,,,,,5,,,74,0
23040,note_on,,0,0,1,,,,,,,,10,,,72,108
23040,note_on,,0,0,11,,,,,,,,5,,,72,108
23040,note_on,,192,0,12,,,,,,,,6,,,62,0
23040,note_on,,384,0,13,,,,,,,,7,,,71,0
23040,note_on,,0,0,13,,,,,,,,7,,,74,0
23040,note_on,,0,0,13,,,,,,,,7,,,72,92
23040,note_on,,0,0,14,,,,,,,,8,,,69,92
23040,note_on,,0,0,14,,,,,,,,8,,,66,92
23040,note_on,,384,0,14,,,,,,,,8,,,67,0
23040,note_on,,384,0,3,,,,,,,,12,,,67,0
23040,note_on,,0,0,3,,,,,,,,12,,,66,108
23040,note_on,,384,0,1,,,,,,,,10,,,74,0
23040,note_on,,0,0,12,,,,,,,,6,,,69,108
23232,note_on,,0,0,14,,,,,,,,8,,,67,92
23232,note_on,,0,0,14,,,,,,,,8,,,69,0
23232,note_on,,192,0,14,,,,,,,,8,,,66,0
23232,note_on,,192,0,2,,,,,,,,11,,,69,0
23232,note_on,,0,0,1,,,,,,,,10,,,71,108
23232,note_on,,0,0,3,,,,,,,,12,,,67,108
23232,note_on,,192,0,3,,,,,,,,12,,,66,0
23232,note_on,,192,0,1,,,,,,,,10,,,72,0
23232,note_on,,0,0,13,,,,,,,,7,,,71,92
23232,note_on,,0,0,12,,,,,,,,6,,,67,108
23232,note_on,,192,0,12,,,,,,,,6,,,69,0
23232,note_on,,192,0,13,,,,,,,,7,,,72,0
23232,note_on,,0,0,2,,,,,,,,11,,,67,108
23232,note_on,,0,0,11,,,,,,,,5,,,71,108
23232,note_on,,192,0,11,,,,,,,,5,,,72,0
23328,note_on,,0,0,13,,,,,,,,7,,,69,92
23328,note_on,,0,0,11,,,,,,,,5,,,69,108
23328,note_on,,96,0,11,,,,,,,,5,,,71,0
23328,note_on,,96,0,13,,,,,,,,7,,,71,0
23328,note_on,,0,0,1,,,,,,,,10,,,69,108
23328,note_on,,96,0,1,,,,,,,,10,,,71,0
23424,note_on,,192,0,14,,,,,,,,8,,,67,0
23424,note_on,,96,0,13,,,,,,,,7,,,69,0
23424,note_on,,0,0,12,,,,,,,,6,,,62,108
23424,note_on,,0,0,3,,,,,,,,12,,,62,108
23424,note_on,,0,0,14,,,,,,,,8,,,62,92
23424,note_on,,192,0,12,,,,,,,,6,,,67,0
23424,note_on,,0,0,11,,,,,,,,5,,,69,108
23424,note_on,,96,0,11,,,,,,,,5,,,69,0
23424,note_on,,0,0,13,,,,,,,,7,,,69,92
23424,note_on,,0,0,14,,,,,,,,8,,,67,92
23424,note_on,,192,0,3,,,,,,,,12,,,67,0
23424,note_on,,0,0,1,,,,,,,,10,,,69,108
23424,note_on,,96,0,1,,,,,,,,10,,,69,0
23616,note_on,,0,0,14,,,,,,,,8,,,66,92
23616,note_on,,192,0,14,,,,,,,,8,,,67,0
23616,note_on,,0,0,2,,,,,,,,11,,,66,108
23616,note_on,,384,0,2,,,,,,,,11,,,67,0
23712,note_on,,288,0,12,,,,,,,,6,,,62,0
23712,note_on,,0,0,12,,,,,,,,6,,,62,108
23712,note_on,,0,0,1,,,,,,,,10,,,67,108
23712,note_on,,288,0,1,,,,,,,,10,,,69,0
23712,note_on,,0,0,11,,,,,,,,5,,,67,108
23712,note_on,,288,0,11,,,,,,,,5,,,69,0
23712,note_on,,288,0,13,,,,,,,,7,,,69,0
23712,note_on,,0,0,13,,,,,,,,7,,,67,92
23808,note_on,,0,0,2,,,,,,,,11,,,67,108
23808,note_on,,96,0,13,,,,,,,,7,,,67,0
23808,note_on,,0,0,12,,,,,,,,6,,,59,108
23808,note_on,,96,0,12,,,,,,,,6,,,62,0
23808,note_on,,0,0,13,,,,,,,,7,,,67,92
23808,note_on,,192,0,14,,,,,,,,8,,,62,0
23808,note_on,,0,0,11,,,,,,,,5,,,67,108
23808,note_on,,96,0,11,,,,,,,,5,,,67,0
23808,note_on,,192,0,2,,,,,,,,11,,,66,0
23808,note_on,,0,0,3,,,,,,,,12,,,55,108
23808,note_on,,384,0,3,,,,,,,,12,,,62,0
23808,note_on,,0,0,14,,,,,,,,8,,,59,92
23808,note_on,,0,0,14,,,,,,,,8,,,66,0
23808,note_on,,0,0,14,,,,,,,,8,,,55,92
23808,note_on,,96,0,1,,,,,,,,10,,,67,0
23808,note_on,,0,0,1,,,,,,,,10,,,67,108
24576,note_on,,768,0,12,,,,,,,,6,,,59,0
24576,note_on,,768,0,2,,,,,,,,11,,,67,0
24576,note_on,,768,0,13,,,,,,,,7,,,67,0
24576,program_change,,0,0,13,,,,,,,73,7,,,,
24576,set_tempo,250000,24576,1,0,,,,,,,,,,,,
24576,note_on,,768,0,14,,,,,,,,8,,,55,0
24576,note_on,,0,0,14,,,,,,,,8,,,59,0
24576,note_on,,768,0,11,,,,,,,,5,,,67,0
24576,note_on,,768,0,3,,,,,,,,12,,,55,0
24576,note_on,,768,0,1,,,,,,,,10,,,67,0
24960,note_on,,384,0,1,,,,,,,,10,,,74,108
24960,note_on,,0,0,13,,,,,,,,7,,,86,92
24960,note_on,,384,0,13,,,,,,,,7,,,83,92
24960,note_on,,384,0,14,,,,,,,,8,,,67,75
24960,note_on,,384,0,2,,,,,,,,11,,,67,108
24960,set_tempo,500000,384,1,0,,,,,,,,,,,,
25344,note_on,,384,0,13,,,,,,,,7,,,83,0
25344,note_on,,0,0,13,,,,,,,,7,,,86,0
25344,note_on,,0,0,13,,,,,,,,7,,,79,92
25344,note_on,,0,0,13,,,,,,,,7,,,83,92
25344,note_on,,384,0,2,,,,,,,,11,,,67,0
25344,note_on,,0,0,14,,,,,,,,8,,,55,75
25344,note_on,,0,0,1,,,,,,,,10,,,71,108
25344,note_on,,384,0,1,,,,,,,,10,,,74,0
25344,note_on,,0,0,2,,,,,,,,11,,,67,108
25344,note_on,,384,0,14,,,,,,,,8,,,67,0
25632,note_on,,0,0,1,,,,,,,,10,,,72,108
25632,note_on,,288,0,1,,,,,,,,10,,,71,0
25632,note_on,,0,0,13,,,,,,,,7,,,83,0
25632,note_on,,288,0,2,,,,,,,,11,,,67,0
25632,note_on,,0,0,2,,,,,,,,11,,,66,108
25632,note_on,,0,0,13,,,,,,,,7,,,81,92
25632,note_on,,0,0,13,,,,,,,,7,,,84,92
25632,note_on,,288,0,13,,,,,,,,7,,,79,0
25728,note_on,,0,0,13,,,,,,,,7,,,84,0
25728,note_on,,0,0,13,,,,,,,,7,,,83,92
25728,note_on,,0,0,13,,,,,,,,7,,,86,92
25728,note_on,,96,0,13,,,,,,,,7,,,81,0
25728,note_on,,0,0,1,,,,,,,,10,,,74,108
25728,note_on,,96,0,1,,,,,,,,10,,,72,0
25728,note_on,,0,0,2,,,,,,,,11,,,67,108
25728,note_on,,96,0,2,,,,,,,,11,,,66,0
25728,note_on,,384,0,14,,,,,,,,8,,,55,0
25728,note_on,,0,0,14,,,,,,,,8,,,67,75
26112,note_on,,0,0,1,,,,,,,,10,,,67,108
26112,note_on,,0,0,13,,,,,,,,7,,,86,0
26112,note_on,,0,0,13,,,,,,,,7,,,79,92
26112,note_on,,384,0,1,,,,,,,,10,,,74,0
26112,note_on,,0,0,2,,,,,,,,11,,,62,108
26112,note_on,,384,0,2,,,,,,,,11,,,67,0
26112,note_on,,384,0,13,,,,,,,,7,,,83,0
26112,note_on,,0,0,14,,,,,,,,8,,,59,75
26112,note_on,,384,0,14,,,,,,,,8,,,67,0
26496,note_on,,384,0,1,,,,,,,,10,,,67,0
26496,note_on,,0,0,13,,,,,,,,7,,,81,92
26496,note_on,,0,0,2,,,,,,,,11,,,66,108
26496,note_on,,384,0,2,,,,,,,,11,,,62,0
26496,note_on,,0,0,13,,,,,,,,7,,,78,92
26496,note_on,,384,0,13,,,,,,,,7,,,79,0
26496,note_on,,0,0,1,,,,,,,,10,,,69,108
26496,note_on,,384,0,14,,,,,,,,8,,,59,0
26496,note_on,,0,0,14,,,,,,,,8,,,62,75
26592,note_on,,0,0,13,,,,,,,,7,,,81,0
26592,note_on,,0,0,13,,,,,,,,7,,,79,92
26592,note_on,,0,0,13,,,,,,,,7,,,83,92
26592,note_on,,96,0,2,,,,,,,,11,,,66,0
26592,note_on,,96,0,1,,,,,,,,10,,,69,0
26592,note_on,,0,0,1,,,,,,,,10,,,71,108
26592,note_on,,96,0,13,,,,,,,,7,,,78,0
26592,note_on,,0,0,2,,,,,,,,11,,,67,108
26688,note_on,,0,0,13,,,,,,,,7,,,83,0
26688,note_on,,96,0,1,,,,,,,,10,,,71,0
26688,note_on,,96,0,13,,,,,,,,7,,,79,0
26688,note_on,,0,0,13,,,,,,,,7,,,84,92
26688,note_on,,0,0,1,,,,,,,,10,,,72,108
26688,note_on,,0,0,13,,,,,,,,7,,,81,92
26688,note_on,,0,0,2,,,,,,,,11,,,69,108
26688,note_on,,96,0,2,,,,,,,,11,,,67,0
26784,note_on,,0,0,2,,,,,,,,11,,,71,108
26784,note_on,,0,0,1,,,,,,,,10,,,74,108
26784,note_on,,96,0,1,,,,,,,,10,,,72,0
26784,note_on,,96,0,13,,,,,,,,7,,,81,0
26784,note_on,,0,0,13,,,,,,,,7,,,84,0
26784,note_on,,96,0,2,,,,,,,,11,,,69,0
26784,note_on,,0,0,13,,,,,,,,7,,,86,92
26784,note_on,,0,0,13,,,,,,,,7,,,83,92
26880,note_on,,0,0,13,,,,,,,,7,,,81,92
26880,note_on,,0,0,13,,,,,,,,7,,,86,0
26880,note_on,,96,0,13,,,,,,,,7,,,83,0
26880,note_on,,96,0,1,,,,,,,,10,,,74,0
26880,note_on,,96,0,2,,,,,,,,11,,,71,0
26880,note_on,,0,0,1,,,,,,,,10,,,72,108
26880,note_on,,0,0,13,,,,,,,,7,,,84,92
26880,note_on,,0,0,14,,,,,,,,8,,,54,75
26880,note_on,,0,0,2,,,,,,,,11,,,69,108
26880,note_on,,384,0,14,,,,,,,,8,,,62,0
27072,note_on,,0,0,1,,,,,,,,10,,,71,108
27072,note_on,,192,0,13,,,,,,,,7,,,81,0
27072,note_on,,192,0,1,,,,,,,,10,,,72,0
27072,note_on,,0,0,13,,,,,,,,7,,,83,92
27072,note_on,,0,0,13,,,,,,,,7,,,79,92
27072,note_on,,0,0,2,,,,,,,,11,,,67,108
27072,note_on,,192,0,2,,,,,,,,11,,,69,0
27072,note_on,,192,0,14,,,,,,,,8,,,54,0
27072,note_on,,0,0,13,,,,,,,,7,,,84,0
27072,note_on,,0,0,14,,,,,,,,8,,,55,75
27264,note_on,,0,0,13,,,,,,,,7,,,83,0
27264,note_on,,0,0,13,,,,,,,,7,,,78,92
27264,note_on,,0,0,13,,,,,,,,7,,,81,92
27264,note_on,,0,0,2,,,,,,,,11,,,66,108
27264,note_on,,192,0,2,,,,,,,,11,,,67,0
27264,note_on,,0,0,1,,,,,,,,10,,,69,108
27264,note_on,,192,0,1,,,,,,,,10,,,71,0
27264,note_on,,192,0,14,,,,,,,,8,,,55,0
27264,note_on,,192,0,13,,,,,,,,7,,,79,0
27264,note_on,,0,0,14,,,,,,,,8,,,62,75
27360,note_on,,0,0,14,,,,,,,,8,,,60,75
27360,note_on,,96,0,14,,,,,,,,8,,,62,0
27456,note_on,,0,0,14,,,,,,,,8,,,62,75
27456,note_on,,96,0,14,,,,,,,,8,,,60,0
27552,note_on,,0,0,14,,,,,,,,8,,,64,75
27552,note_on,,96,0,14,,,,,,,,8,,,62,0
27648,note_on,,0,0,14,,,,,,,,8,,,62,75
27648,note_on,,96,0,14,,,,,,,,8,,,64,0
27744,note_on,,0,0,14,,,,,,,,8,,,60,75
27744,note_on,,96,0,14,,,,,,,,8,,,62,0
27840,note_on,,96,0,14,,,,,,,,8,,,60,0
27840,note_on,,0,0,14,,,,,,,,8,,,59,75
27936,note_on,,0,0,14,,,,,,,,8,,,57,75
27936,note_on,,96,0,14,,,,,,,,8,,,59,0
28032,note_on,,0,0,14,,,,,,,,8,,,55,75
28032,note_on,,96,0,14,,,,,,,,8,,,57,0
28032,note_on,,0,0,2,,,,,,,,11,,,67,108
28032,note_on,,768,0,2,,,,,,,,11,,,66,0
28032,note_on,,768,0,13,,,,,,,,7,,,78,0
28032,note_on,,0,0,13,,,,,,,,7,,,81,0
28032,note_on,,0,0,13,,,,,,,,7,,,83,92
28032,note_on,,768,0,1,,,,,,,,10,,,69,0
28032,note_on,,0,0,1,,,,,,,,10,,,71,108
28128,note_on,,96,0,1,,,,,,,,10,,,71,0
28128,note_on,,0,0,2,,,,,,,,11,,,69,108
28128,note_on,,0,0,1,,,,,,,,10,,,72,108
28128,note_on,,0,0,13,,,,,,,,7,,,84,92
28128,note_on,,0,0,13,,,,,,,,7,,,81,92
28128,note_on,,96,0,13,,,,,,,,7,,,83,0
28128,note_on,,96,0,2,,,,,,,,11,,,67,0
28224,note_on,,0,0,13,,,,,,,,7,,,83,92
28224,note_on,,96,0,13,,,,,,,,7,,,81,0
28224,note_on,,0,0,1,,,,,,,,10,,,74,108
28224,note_on,,96,0,1,,,,,,,,10,,,72,0
28224,note_on,,0,0,2,,,,,,,,11,,,71,108
28224,note_on,,0,0,13,,,,,,,,7,,,86,92
28224,note_on,,96,0,2,,,,,,,,11,,,69,0
28224,note_on,,0,0,13,,,,,,,,7,,,84,0
28320,note_on,,96,0,2,,,,,,,,11,,,71,0
28320,note_on,,0,0,13,,,,,,,,7,,,84,92
28320,note_on,,0,0,13,,,,,,,,7,,,86,0
28320,note_on,,96,0,13,,,,,,,,7,,,83,0
28320,note_on,,0,0,13,,,,,,,,7,,,88,92
28320,note_on,,0,0,2,,,,,,,,11,,,72,108
28320,note_on,,96,0,1,,,,,,,,10,,,74,0
28320,note_on,,0,0,1,,,,,,,,10,,,76,108
28416,note_on,,0,0,13,,,,,,,,7,,,88,0
28416,note_on,,0,0,1,,,,,,,,10,,,74,108
28416,note_on,,96,0,1,,,,,,,,10,,,76,0
28416,note_on,,384,0,14,,,,,,,,8,,,55,0
28416,note_on,,0,0,14,,,,,,,,8,,,67,75
28416,note_on,,96,0,2,,,,,,,,11,,,72,0
28416,note_on,,96,0,13,,,,,,,,7,,,84,0
28416,note_on,,0,0,13,,,,,,,,7,,,83,92
28416,note_on,,0,0,2,,,,,,,,11,,,71,108
28416,note_on,,0,0,13,,,,,,,,7,,,86,92
28608,note_on,,0,0,2,,,,,,,,11,,,71,108
28608,note_on,,192,0,2,,,,,,,,11,,,71,0
28608,note_on,,192,0,13,,,,,,,,7,,,83,0
28608,note_on,,0,0,13,,,,,,,,7,,,86,0
28608,note_on,,0,0,1,,,,,,,,10,,,74,108
28608,note_on,,0,0,13,,,,,,,,7,,,86,92
28608,note_on,,0,0,14,,,,,,,,8,,,67,75
28608,note_on,,0,0,13,,,,,,,,7,,,83,92
28608,note_on,,192,0,1,,,,,,,,10,,,74,0
28608,note_on,,192,0,14,,,,,,,,8,,,67,0
28800,note_on,,192,0,2,,,,,,,,11,,,71,0
28800,note_on,,192,0,1,,,,,,,,10,,,74,0
28800,note_on,,0,0,1,,,,,,,,10,,,79,108
28800,note_on,,192,0,13,,,,,,,,7,,,83,0
28800,note_on,,0,0,2,,,,,,,,11,,,74,108
28800,note_on,,0,0,13,,,,,,,,7,,,91,92
28800,note_on,,0,0,13,,,,,,,,7,,,86,0
28800,note_on,,0,0,14,,,,,,,,8,,,71,75
28800,note_on,,192,0,14,,,,,,,,8,,,67,0
28800,note_on,,0,0,13,,,,,,,,7,,,86,92
28896,note_on,,0,0,14,,,,,,,,8,,,69,75
28896,note_on,,96,0,14,,,,,,,,8,,,71,0
28992,note_on,,0,0,14,,,,,,,,8,,,71,75
28992,note_on,,96,0,14,,,,,,,,8,,,69,0
29088,note_on,,96,0,14,,,,,,,,8,,,71,0
29088,note_on,,0,0,14,,,,,,,,8,,,72,75
29184,note_on,,0,0,14,,,,,,,,8,,,71,75
29184,note_on,,0,0,13,,,,,,,,7,,,86,92
29184,note_on,,0,0,13,,,,,,,,7,,,83,92
29184,note_on,,0,0,13,,,,,,,,7,,,91,0
29184,note_on,,384,0,13,,,,,,,,7,,,86,0
29184,note_on,,96,0,14,,,,,,,,8,,,72,0
29376,note_on,,576,0,2,,,,,,,,11,,,74,0
29376,note_on,,0,0,2,,,,,,,,11,,,71,108
29376,note_on,,0,0,14,,,,,,,,8,,,67,75
29376,note_on,,192,0,14,,,,,,,,8,,,71,0
29376,note_on,,576,0,1,,,,,,,,10,,,79,0
29376,note_on,,0,0,1,,,,,,,,10,,,74,108
29568,note_on,,384,0,13,,,,,,,,7,,,83,0
29568,note_on,,0,0,2,,,,,,,,11,,,69,108
29568,note_on,,192,0,2,,,,,,,,11,,,71,0
29568,note_on,,0,0,13,,,,,,,,7,,,86,0
29568,note_on,,0,0,1,,,,,,,,10,,,72,108
29568,note_on,,0,0,13,,,,,,,,7,,,84,92
29568,note_on,,192,0,14,,,,,,,,8,,,67,0
29568,note_on,,0,0,14,,,,,,,,8,,,66,75
29568,note_on,,192,0,1,,,,,,,,10,,,74,0
29760,note_on,,192,0,1,,,,,,,,10,,,72,0
29760,note_on,,192,0,14,,,,,,,,8,,,66,0
29760,note_on,,0,0,14,,,,,,,,8,,,67,75
29760,note_on,,192,0,2,,,,,,,,11,,,69,0
29760,note_on,,0,0,2,,,,,,,,11,,,67,108
29760,note_on,,0,0,1,,,,,,,,10,,,71,108
29760,note_on,,0,0,13,,,,,,,,7,,,83,92
29760,note_on,,192,0,13,,,,,,,,7,,,84,0
29856,note_on,,0,0,1,,,,,,,,10,,,72,108
29856,note_on,,96,0,1,,,,,,,,10,,,71,0
29856,note_on,,0,0,2,,,,,,,,11,,,69,108
29856,note_on,,96,0,2,,,,,,,,11,,,67,0
29856,note_on,,96,0,13,,,,,,,,7,,,83,0
29856,note_on,,0,0,13,,,,,,,,7,,,81,92
29952,note_on,,0,0,2,,,,,,,,11,,,66,108
29952,note_on,,96,0,1,,,,,,,,10,,,72,0
29952,note_on,,0,0,1,,,,,,,,10,,,69,108
29952,note_on,,96,0,2,,,,,,,,11,,,69,0
29952,note_on,,0,0,13,,,,,,,,7,,,81,92
29952,note_on,,192,0,14,,,,,,,,8,,,67,0
29952,note_on,,0,0,14,,,,,,,,8,,,62,75
29952,note_on,,96,0,13,,,,,,,,7,,,81,0
30144,note_on,,192,0,14,,,,,,,,8,,,62,0
30144,note_on,,0,0,14,,,,,,,,8,,,50,75
30240,note_on,,288,0,2,,,,,,,,11,,,66,0
30240,note_on,,0,0,13,,,,,,,,7,,,79,92
30240,note_on,,288,0,13,,,,,,,,7,,,81,0
30240,note_on,,0,0,2,,,,,,,,11,,,67,108
30240,note_on,,288,0,1,,,,,,,,10,,,69,0
30240,note_on,,0,0,1,,,,,,,,10,,,67,108
30336,note_on,,0,0,1,,,,,,,,10,,,67,108
30336,note_on,,0,0,14,,,,,,,,8,,,55,75
30336,note_on,,192,0,14,,,,,,,,8,,,50,0
30336,note_on,,96,0,2,,,,,,,,11,,,67,0
30336,note_on,,0,0,2,,,,,,,,11,,,67,108
30336,note_on,,96,0,1,,,,,,,,10,,,67,0
30336,note_on,,0,0,13,,,,,,,,7,,,79,92
30336,note_on,,96,0,13,,,,,,,,7,,,79,0
31104,note_on,,0,0,1,,,,,,,,10,,,74,108
31104,note_on,,768,0,13,,,,,,,,7,,,79,0
31104,note_on,,0,0,13,,,,,,,,7,,,83,92
31104,set_tempo,500000,6144,1,0,,,,,,,,,,,,
31104,note_on,,0,0,13,,,,,,,,7,,,86,92
31104,note_on,,768,0,2,,,,,,,,11,,,67,0
31104,note_on,,0,0,2,,,,,,,,11,,,67,108
31104,note_on,,0,0,14,,,,,,,,8,,,67,75
31104,note_on,,768,0,14,,,,,,,,8,,,55,0
31104,note_on,,768,0,1,,,,,,,,10,,,67,0
31488,note_on,,0,0,1,,,,,,,,10,,,71,108
31488,note_on,,384,0,2,,,,,,,,11,,,67,0
31488,note_on,,0,0,2,,,,,,,,11,,,67,108
31488,note_on,,384,0,14,,,,,,,,8,,,67,0
31488,note_on,,0,0,14,,,,,,,,8,,,55,75
31488,note_on,,0,0,13,,,,,,,,7,,,83,92
31488,note_on,,0,0,13,,,,,,,,7,,,79,92
31488,note_on,,0,0,13,,,,,,,,7,,,86,0
31488,note_on,,384,0,13,,,,,,,,7,,,83,0
31488,note_on,,384,0,1,,,,,,,,10,,,74,0
31776,note_on,,0,0,1,,,,,,,,10,,,72,108
31776,note_on,,288,0,2,,,,,,,,11,,,67,0
31776,note_on,,0,0,13,,,,,,,,7,,,84,92
31776,note_on,,0,0,13,,,,,,,,7,,,81,92
31776,note_on,,0,0,13,,,,,,,,7,,,83,0
31776,note_on,,288,0,1,,,,,,,,10,,,71,0
31776,note_on,,0,0,2,,,,,,,,11,,,66,108
31776,note_on,,288,0,13,,,,,,,,7,,,79,0
31872,note_on,,0,0,14,,,,,,,,8,,,67,75
31872,note_on,,96,0,13,,,,,,,,7,,,81,0
31872,note_on,,96,0,1,,,,,,,,10,,,72,0
31872,note_on,,0,0,1,,,,,,,,10,,,74,108
31872,note_on,,0,0,2,,,,,,,,11,,,67,108
31872,note_on,,96,0,2,,,,,,,,11,,,66,0
31872,note_on,,384,0,14,,,,,,,,8,,,55,0
31872,note_on,,0,0,13,,,,,,,,7,,,84,0
31872,note_on,,0,0,13,,,,,,,,7,,,83,92
31872,note_on,,0,0,13,,,,,,,,7,,,86,92
32256,note_on,,0,0,13,,,,,,,,7,,,86,0
32256,note_on,,384,0,1,,,,,,,,10,,,74,0
32256,note_on,,0,0,1,,,,,,,,10,,,67,108
32256,note_on,,384,0,14,,,,,,,,8,,,67,0
32256,note_on,,0,0,14,,,,,,,,8,,,59,75
32256,note_on,,0,0,13,,,,,,,,7,,,79,92
32256,note_on,,384,0,2,,,,,,,,11,,,67,0
32256,note_on,,0,0,2,,,,,,,,11,,,62,108
32256,note_on,,384,0,13,,,,,,,,7,,,83,0
32640,note_on,,384,0,13,,,,,,,,7,,,79,0
32640,note_on,,0,0,13,,,,,,,,7,,,78,92
32640,note_on,,0,0,13,,,,,,,,7,,,81,92
32640,note_on,,0,0,14,,,,,,,,8,,,62,75
32640,note_on,,0,0,2,,,,,,,,11,,,66,108
32640,note_on,,384,0,1,,,,,,,,10,,,67,0
32640,note_on,,0,0,1,,,,,,,,10,,,69,108
32640,note_on,,384,0,2,,,,,,,,11,,,62,0
32640,note_on,,384,0,14,,,,,,,,8,,,59,0
32736,note_on,,0,0,2,,,,,,,,11,,,67,108
32736,note_on,,96,0,1,,,,,,,,10,,,69,0
32736,note_on,,0,0,1,,,,,,,,10,,,71,108
32736,note_on,,96,0,2,,,,,,,,11,,,66,0
32736,note_on,,96,0,13,,,,,,,,7,,,78,0
32736,note_on,,0,0,13,,,,,,,,7,,,81,0
32736,note_on,,0,0,13,,,,,,,,7,,,79,92
32736,note_on,,0,0,13,,,,,,,,7,,,83,92
32832,note_on,,0,0,13,,,,,,,,7,,,84,92
32832,note_on,,0,0,13,,,,,,,,7,,,81,92
32832,note_on,,0,0,13,,,,,,,,7,,,83,0
32832,note_on,,0,0,2,,,,,,,,11,,,69,108
32832,note_on,,0,0,1,,,,,,,,10,,,72,108
32832,note_on,,96,0,1,,,,,,,,10,,,71,0
32832,note_on,,96,0,13,,,,,,,,7,,,79,0
32832,note_on,,96,0,2,,,,,,,,11,,,67,0
32928,note_on,,0,0,13,,,,,,,,7,,,84,0
32928,note_on,,0,0,13,,,,,,,,7,,,83,92
32928,note_on,,0,0,2,,,,,,,,11,,,71,108
32928,note_on,,96,0,2,,,,,,,,11,,,69,0
32928,note_on,,96,0,13,,,,,,,,7,,,81,0
32928,note_on,,96,0,1,,,,,,,,10,,,72,0
32928,note_on,,0,0,1,,,,,,,,10,,,74,108
32928,note_on,,0,0,13,,,,,,,,7,,,86,92
33024,note_on,,0,0,13,,,,,,,,7,,,86,0
33024,note_on,,0,0,13,,,,,,,,7,,,81,92
33024,note_on,,0,0,13,,,,,,,,7,,,84,92
33024,note_on,,0,0,2,,,,,,,,11,,,69,108
33024,note_on,,96,0,2,,,,,,,,11,,,71,0
33024,note_on,,96,0,13,,,,,,,,7,,,83,0
33024,note_on,,384,0,14,,,,,,,,8,,,62,0
33024,note_on,,0,0,14,,,,,,,,8,,,54,75
33024,note_on,,96,0,1,,,,,,,,10,,,74,0
33024,note_on,,0,0,1,,,,,,,,10,,,72,108
33216,note_on,,0,0,2,,,,,,,,11,,,67,108
33216,note_on,,192,0,2,,,,,,,,11,,,69,0
33216,note_on,,0,0,1,,,,,,,,10,,,71,108
33216,note_on,,192,0,14,,,,,,,,8,,,54,0
33216,note_on,,192,0,1,,,,,,,,10,,,72,0
33216,note_on,,0,0,13,,,,,,,,7,,,83,92
33216,note_on,,0,0,13,,,,,,,,7,,,79,92
33216,note_on,,0,0,13,,,,,,,,7,,,84,0
33216,note_on,,192,0,13,,,,,,,,7,,,81,0
33216,note_on,,0,0,14,,,,,,,,8,,,55,75
33408,note_on,,0,0,13,,,,,,,,7,,,81,92
33408,note_on,,192,0,1,,,,,,,,10,,,71,0
33408,note_on,,0,0,13,,,,,,,,7,,,78,92
33408,note_on,,0,0,13,,,,,,,,7,,,83,0
33408,note_on,,192,0,13,,,,,,,,7,,,79,0
33408,note_on,,192,0,2,,,,,,,,11,,,67,0
33408,note_on,,0,0,2,,,,,,,,11,,,66,108
33408,note_on,,0,0,1,,,,,,,,10,,,69,108
33408,note_on,,0,0,14,,,,,,,,8,,,62,75
33408,note_on,,192,0,14,,,,,,,,8,,,55,0
33504,note_on,,96,0,14,,,,,,,,8,,,62,0
33504,note_on,,0,0,14,,,,,,,,8,,,60,75
33600,note_on,,96,0,14,,,,,,,,8,,,60,0
33600,note_on,,0,0,14,,,,,,,,8,,,62,75
33696,note_on,,96,0,14,,,,,,,,8,,,62,0
33696,note_on,,0,0,14,,,,,,,,8,,,64,75
33792,note_on,,96,0,14,,,,,,,,8,,,64,0
33792,note_on,,0,0,14,,,,,,,,8,,,62,75
33888,note_on,,96,0,14,,,,,,,,8,,,62,0
33888,note_on,,0,0,14,,,,,,,,8,,,60,75
33984,note_on,,0,0,14,,,,,,,,8,,,59,75
33984,note_on,,96,0,14,,,,,,,,8,,,60,0
34080,note_on,,96,0,14,,,,,,,,8,,,59,0
34080,note_on,,0,0,14,,,,,,,,8,,,57,75
34176,note_on,,768,0,1,,,,,,,,10,,,69,0
34176,note_on,,0,0,13,,,,,,,,7,,,83,92
34176,note_on,,768,0,2,,,,,,,,11,,,66,0
34176,note_on,,0,0,2,,,,,,,,11,,,67,108
34176,note_on,,768,0,13,,,,,,,,7,,,78,0
34176,note_on,,0,0,14,,,,,,,,8,,,55,75
34176,note_on,,96,0,14,,,,,,,,8,,,57,0
34176,note_on,,0,0,1,,,,,,,,10,,,71,108
34176,note_on,,0,0,13,,,,,,,,7,,,81,0
34272,note_on,,0,0,1,,,,,,,,10,,,72,108
34272,note_on,,0,0,2,,,,,,,,11,,,69,108
34272,note_on,,0,0,13,,,,,,,,7,,,84,92
34272,note_on,,96,0,13,,,,,,,,7,,,83,0
34272,note_on,,96,0,2,,,,,,,,11,,,67,0
34272,note_on,,0,0,13,,,,,,,,7,,,81,92
34272,note_on,,96,0,1,,,,,,,,10,,,71,0
34368,note_on,,96,0,1,,,,,,,,10,,,72,0
34368,note_on,,0,0,1,,,,,,,,10,,,74,108
34368,note_on,,0,0,13,,,,,,,,7,,,83,92
34368,note_on,,0,0,13,,,,,,,,7,,,84,0
34368,note_on,,96,0,13,,,,,,,,7,,,81,0
34368,note_on,,0,0,13,,,,,,,,7,,,86,92
34368,note_on,,0,0,2,,,,,,,,11,,,71,108
34368,note_on,,96,0,2,,,,,,,,11,,,69,0
34464,note_on,,0,0,13,,,,,,,,7,,,86,0
34464,note_on,,0,0,2,,,,,,,,11,,,72,108
34464,note_on,,96,0,2,,,,,,,,11,,,71,0
34464,note_on,,96,0,13,,,,,,,,7,,,83,0
34464,note_on,,96,0,1,,,,,,,,10,,,74,0
34464,note_on,,0,0,13,,,,,,,,7,,,88,92
34464,note_on,,0,0,1,,,,,,,,10,,,76,108
34464,note_on,,0,0,13,,,,,,,,7,,,84,92
34560,note_on,,96,0,13,,,,,,,,7,,,84,0
34560,note_on,,0,0,13,,,,,,,,7,,,86,92
34560,note_on,,0,0,13,,,,,,,,7,,,88,0
34560,note_on,,384,0,14,,,,,,,,8,,,55,0
34560,note_on,,0,0,14,,,,,,,,8,,,67,75
34560,note_on,,0,0,2,,,,,,,,11,,,71,108
34560,note_on,,0,0,1,,,,,,,,10,,,74,108
34560,note_on,,96,0,1,,,,,,,,10,,,76,0
34560,note_on,,0,0,13,,,,,,,,7,,,83,92
34560,note_on,,96,0,2,,,,,,,,11,,,72,0
34752,note_on,,192,0,2,,,,,,,,11,,,71,0
34752,note_on,,0,0,2,,,,,,,,11,,,71,108
34752,note_on,,192,0,1,,,,,,,,10,,,74,0
34752,note_on,,192,0,13,,,,,,,,7,,,83,0
34752,note_on,,192,0,14,,,,,,,,8,,,67,0
34752,note_on,,0,0,14,,,,,,,,8,,,67,75
34752,note_on,,0,0,13,,,,,,,,7,,,86,92
34752,note_on,,0,0,13,,,,,,,,7,,,83,92
34752,note_on,,0,0,13,,,,,,,,7,,,86,0
34752,note_on,,0,0,1,,,,,,,,10,,,74,108
34944,note_on,,0,0,13,,,,,,,,7,,,91,92
34944,note_on,,0,0,13,,,,,,,,7,,,86,92
34944,note_on,,192,0,13,,,,,,,,7,,,83,0
34944,note_on,,0,0,13,,,,,,,,7,,,86,0
34944,note_on,,0,0,2,,,,,,,,11,,,74,108
34944,note_on,,192,0,14,,,,,,,,8,,,67,0
34944,note_on,,0,0,14,,,,,,,,8,,,71,75
34944,note_on,,192,0,1,,,,,,,,10,,,74,0
34944,note_on,,0,0,1,,,,,,,,10,,,79,108
34944,note_on,,192,0,2,,,,,,,,11,,,71,0
35040,note_on,,96,0,14,,,,,,,,8,,,71,0
35040,note_on,,0,0,14,,,,,,,,8,,,69,75
35136,note_on,,0,0,14,,,,,,,,8,,,71,75
35136,note_on,,96,0,14,,,,,,,,8,,,69,0
35232,note_on,,0,0,14,,,,,,,,8,,,72,75
35232,note_on,,96,0,14,,,,,,,,8,,,71,0
35328,note_on,,0,0,14,,,,,,,,8,,,71,75
35328,note_on,,384,0,13,,,,,,,,7,,,86,0
35328,note_on,,0,0,13,,,,,,,,7,,,91,0
35328,note_on,,0,0,13,,,,,,,,7,,,83,92
35328,note_on,,0,0,13,,,,,,,,7,,,86,92
35328,note_on,,96,0,14,,,,,,,,8,,,72,0
35520,note_on,,576,0,2,,,,,,,,11,,,74,0
35520,note_on,,0,0,14,,,,,,,,8,,,67,75
35520,note_on,,0,0,2,,,,,,,,11,,,71,108
35520,note_on,,192,0,14,,,,,,,,8,,,71,0
35520,note_on,,576,0,1,,,,,,,,10,,,79,0
35520,note_on,,0,0,1,,,,,,,,10,,,74,108
35712,note_on,,0,0,2,,,,,,,,11,,,69,108
35712,note_on,,192,0,1,,,,,,,,10,,,74,0
35712,note_on,,0,0,1,,,,,,,,10,,,72,108
35712,note_on,,192,0,14,,,,,,,,8,,,67,0
35712,note_on,,384,0,13,,,,,,,,7,,,83,0
35712,note_on,,0,0,13,,,,,,,,7,,,86,0
35712,note_on,,0,0,13,,,,,,,,7,,,84,92
35712,note_on,,192,0,2,,,,,,,,11,,,71,0
35712,note_on,,0,0,14,,,,,,,,8,,,66,75
35904,note_on,,192,0,13,,,,,,,,7,,,84,0
35904,note_on,,0,0,13,,,,,,,,7,,,83,92
35904,note_on,,0,0,14,,,,,,,,8,,,67,75
35904,note_on,,192,0,1,,,,,,,,10,,,72,0
35904,note_on,,192,0,14,,,,,,,,8,,,66,0
35904,note_on,,0,0,1,,,,,,,,10,,,71,108
35904,note_on,,192,0,2,,,,,,,,11,,,69,0
35904,note_on,,0,0,2,,,,,,,,11,,,67,108
36000,note_on,,0,0,2,,,,,,,,11,,,69,108
36000,note_on,,0,0,1,,,,,,,,10,,,72,108
36000,note_on,,96,0,1,,,,,,,,10,,,71,0
36000,note_on,,96,0,2,,,,,,,,11,,,67,0
36000,note_on,,0,0,13,,,,,,,,7,,,81,92
36000,note_on,,96,0,13,,,,,,,,7,,,83,0
36096,note_on,,96,0,13,,,,,,,,7,,,81,0
36096,note_on,,192,0,14,,,,,,,,8,,,67,0
36096,note_on,,96,0,1,,,,,,,,10,,,72,0
36096,note_on,,0,0,1,,,,,,,,10,,,69,108
36096,note_on,,0,0,14,,,,,,,,8,,,62,75
36096,note_on,,96,0,2,,,,,,,,11,,,69,0
36096,note_on,,0,0,2,,,,,,,,11,,,66,108
36096,note_on,,0,0,13,,,,,,,,7,,,81,92
36288,note_on,,0,0,14,,,,,,,,8,,,50,75
36288,note_on,,192,0,14,,,,,,,,8,,,62,0
36384,note_on,,288,0,2,,,,,,,,11,,,66,0
36384,note_on,,0,0,2,,,,,,,,11,,,67,108
36384,note_on,,288,0,13,,,,,,,,7,,,81,0
36384,note_on,,0,0,13,,,,,,,,7,,,79,92
36384,note_on,,0,0,1,,,,,,,,10,,,67,108
36384,note_on,,288,0,1,,,,,,,,10,,,69,0
36480,note_on,,0,0,14,,,,,,,,8,,,55,75
36480,note_on,,96,0,13,,,,,,,,7,,,79,0
36480,note_on,,0,0,13,,,,,,,,7,,,79,92
36480,note_on,,0,0,2,,,,,,,,11,,,67,108
36480,note_on,,96,0,2,,,,,,,,11,,,67,0
36480,note_on,,0,0,1,,,,,,,,10,,,67,108
36480,note_on,,96,0,1,,,,,,,,10,,,67,0
36480,note_on,,192,0,14,,,,,,,,8,,,50,0
37248,note_on,,0,0,2,,,,,,,,11,,,67,108
37248,note_on,,768,0,2,,,,,,,,11,,,67,0
37248,note_on,,768,0,1,,,,,,,,10,,,67,0
37248,note_on,,0,0,14,,,,,,,,8,,,55,75
37248,note_on,,0,0,13,,,,,,,,7,,,83,92
37248,note_on,,0,0,13,,,,,,,,7,,,79,92
37248,note_on,,768,0,13,,,,,,,,7,,,79,0
37248,note_on,,0,0,1,,,,,,,,10,,,71,108
37248,note_on,,768,0,14,,,,,,,,8,,,55,0
37344,note_on,,96,0,2,,,,,,,,11,,,67,0
37344,note_on,,0,0,13,,,,,,,,7,,,81,92
37344,note_on,,0,0,13,,,,,,,,7,,,78,92
37344,note_on,,0,0,13,,,,,,,,7,,,83,0
37344,note_on,,96,0,13,,,,,,,,7,,,79,0
37344,note_on,,0,0,1,,,,,,,,10,,,69,108
37344,note_on,,0,0,2,,,,,,,,11,,,66,108
37344,note_on,,96,0,1,,,,,,,,10,,,71,0
37440,note_on,,0,0,2,,,,,,,,11,,,67,108
37440,note_on,,96,0,2,,,,,,,,11,,,66,0
37440,note_on,,0,0,13,,,,,,,,7,,,83,92
37440,note_on,,0,0,13,,,,,,,,7,,,79,92
37440,note_on,,96,0,13,,,,,,,,7,,,78,0
37440,note_on,,0,0,13,,,,,,,,7,,,81,0
37440,note_on,,96,0,1,,,,,,,,10,,,69,0
37440,note_on,,0,0,1,,,,,,,,10,,,71,108
37536,note_on,,96,0,2,,,,,,,,11,,,67,0
37536,note_on,,0,0,13,,,,,,,,7,,,84,92
37536,note_on,,0,0,13,,,,,,,,7,,,81,92
37536,note_on,,0,0,13,,,,,,,,7,,,83,0
37536,note_on,,96,0,13,,,,,,,,7,,,79,0
37536,note_on,,0,0,1,,,,,,,,10,,,72,108
37536,note_on,,96,0,1,,,,,,,,10,,,71,0
37536,note_on,,0,0,2,,,,,,,,11,,,69,108
37632,note_on,,96,0,1,,,,,,,,10,,,72,0
37632,note_on,,0,0,1,,,,,,,,10,,,71,108
37632,note_on,,0,0,2,,,,,,,,11,,,67,108
37632,note_on,,96,0,2,,,,,,,,11,,,69,0
37632,note_on,,96,0,13,,,,,,,,7,,,81,0
37632,note_on,,0,0,13,,,,,,,,7,,,84,0
37632,note_on,,0,0,13,,,,,,,,7,,,79,92
37632,note_on,,0,0,13,,,,,,,,7,,,83,92
37824,note_on,,192,0,1,,,,,,,,10,,,71,0
37824,note_on,,0,0,1,,,,,,,,10,,,71,108
37824,note_on,,576,0,14,,,,,,,,8,,,55,0
37824,note_on,,0,0,14,,,,,,,,8,,,59,75
37824,note_on,,192,0,13,,,,,,,,7,,,79,0
37824,note_on,,0,0,13,,,,,,,,7,,,79,92
37824,note_on,,0,0,13,,,,,,,,7,,,83,92
37824,note_on,,192,0,2,,,,,,,,11,,,67,0
37824,note_on,,0,0,2,,,,,,,,11,,,67,108
37824,note_on,,0,0,13,,,,,,,,7,,,83,0
38016,note_on,,0,0,14,,,,,,,,8,,,63,75
38016,note_on,,192,0,14,,,,,,,,8,,,59,0
38016,note_on,,0,0,1,,,,,,,,10,,,69,108
38016,note_on,,192,0,1,,,,,,,,10,,,71,0
38016,note_on,,0,0,2,,,,,,,,11,,,66,108
38016,note_on,,192,0,2,,,,,,,,11,,,67,0
38016,note_on,,0,0,13,,,,,,,,7,,,81,92
38016,note_on,,0,0,13,,,,,,,,7,,,78,92
38016,note_on,,0,0,13,,,,,,,,7,,,83,0
38016,note_on,,192,0,13,,,,,,,,7,,,79,0
38400,note_on,,0,0,2,,,,,,,,11,,,64,108
38400,note_on,,384,0,2,,,,,,,,11,,,66,0
38400,note_on,,0,0,13,,,,,,,,7,,,79,92
38400,note_on,,0,0,13,,,,,,,,7,,,76,92
38400,note_on,,0,0,13,,,,,,,,7,,,81,0
38400,note_on,,384,0,13,,,,,,,,7,,,78,0
38400,note_on,,384,0,1,,,,,,,,10,,,69,0
38400,note_on,,0,0,1,,,,,,,,10,,,67,108
38400,note_on,,384,0,14,,,,,,,,8,,,63,0
38400,note_on,,0,0,14,,,,,,,,8,,,64,75
38784,note_on,,0,0,2,,,,,,,,11,,,66,108
38784,note_on,,0,0,1,,,,,,,,10,,,72,108
38784,note_on,,384,0,1,,,,,,,,10,,,67,0
38784,note_on,,384,0,2,,,,,,,,11,,,64,0
38784,note_on,,384,0,14,,,,,,,,8,,,64,0
38784,note_on,,0,0,14,,,,,,,,8,,,57,75
38784,note_on,,0,0,13,,,,,,,,7,,,84,92
38784,note_on,,0,0,13,,,,,,,,7,,,78,92
38784,note_on,,0,0,13,,,,,,,,7,,,79,0
38784,note_on,,384,0,13,,,,,,,,7,,,76,0
38976,note_on,,0,0,2,,,,,,,,11,,,67,108
38976,note_on,,192,0,1,,,,,,,,10,,,72,0
38976,note_on,,0,0,1,,,,,,,,10,,,71,108
38976,note_on,,0,0,13,,,,,,,,7,,,83,92
38976,note_on,,0,0,13,,,,,,,,7,,,79,92
38976,note_on,,0,0,13,,,,,,,,7,,,84,0
38976,note_on,,192,0,13,,,,,,,,7,,,78,0
38976,note_on,,192,0,2,,,,,,,,11,,,66,0
39168,note_on,,0,0,13,,,,,,,,7,,,78,92
39168,note_on,,0,0,13,,,,,,,,7,,,81,92
39168,note_on,,192,0,1,,,,,,,,10,,,71,0
39168,note_on,,192,0,2,,,,,,,,11,,,67,0
39168,note_on,,0,0,2,,,,,,,,11,,,66,108
39168,note_on,,0,0,1,,,,,,,,10,,,69,108
39168,note_on,,0,0,13,,,,,,,,7,,,83,0
39168,note_on,,192,0,13,,,,,,,,7,,,79,0
39360,note_on,,192,0,1,,,,,,,,10,,,69,0
39360,note_on,,192,0,13,,,,,,,,7,,,78,0
39360,note_on,,192,0,2,,,,,,,,11,,,66,0
39360,note_on,,576,0,14,,,,,,,,8,,,57,0
39360,note_on,,0,0,13,,,,,,,,7,,,81,0
39360,note_on,,0,0,13,,,,,,,,7,,,76,92
39360,note_on,,0,0,13,,,,,,,,7,,,79,92
39360,note_on,,0,0,1,,,,,,,,10,,,67,108
39360,note_on,,0,0,14,,,,,,,,8,,,57,75
39360,note_on,,0,0,2,,,,,,,,11,,,64,108
39552,note_on,,0,0,14,,,,,,,,8,,,59,75
39552,note_on,,0,0,2,,,,,,,,11,,,63,108
39552,note_on,,0,0,13,,,,,,,,7,,,75,92
39552,note_on,,0,0,13,,,,,,,,7,,,78,92
39552,note_on,,192,0,14,,,,,,,,8,,,57,0
39552,note_on,,192,0,13,,,,,,,,7,,,76,0
39552,note_on,,0,0,1,,,,,,,,10,,,66,108
39552,note_on,,192,0,1,,,,,,,,10,,,67,0
39552,note_on,,192,0,2,,,,,,,,11,,,64,0
39552,note_on,,0,0,13,,,,,,,,7,,,79,0
39744,note_on,,192,0,14,,,,,,,,8,,,57,75
39936,note_on,,0,0,14,,,,,,,,8,,,55,75
39936,note_on,,192,0,14,,,,,,,,8,,,57,0
40128,note_on,,576,0,13,,,,,,,,7,,,75,0
40128,note_on,,0,0,13,,,,,,,,7,,,78,0
40128,note_on,,0,0,13,,,,,,,,7,,,75,92
40128,note_on,,0,0,13,,,,,,,,7,,,78,92
40128,note_on,,192,0,14,,,,,,,,8,,,55,0
40128,note_on,,0,0,14,,,,,,,,8,,,54,75
40320,note_on,,0,0,2,,,,,,,,11,,,64,108
40320,note_on,,192,0,14,,,,,,,,8,,,54,0
40320,note_on,,0,0,14,,,,,,,,8,,,59,0
40320,note_on,,0,0,14,,,,,,,,8,,,52,75
40320,note_on,,768,0,1,,,,,,,,10,,,66,0
40320,note_on,,0,0,1,,,,,,,,10,,,67,108
40320,note_on,,768,0,2,,,,,,,,11,,,63,0
40320,note_on,,0,0,13,,,,,,,,7,,,76,92
40320,note_on,,192,0,13,,,,,,,,7,,,75,0
40320,note_on,,0,0,13,,,,,,,,7,,,78,0
40320,note_on,,0,0,13,,,,,,,,7,,,79,92
40416,note_on,,0,0,13,,,,,,,,7,,,75,92
40416,note_on,,96,0,13,,,,,,,,7,,,76,0
40416,note_on,,0,0,13,,,,,,,,7,,,79,0
40416,note_on,,96,0,2,,,,,,,,11,,,64,0
40416,note_on,,0,0,2,,,,,,,,11,,,63,108
40416,note_on,,0,0,13,,,,,,,,7,,,78,92
40416,note_on,,96,0,1,,,,,,,,10,,,67,0
40416,note_on,,0,0,1,,,,,,,,10,,,66,108
40512,note_on,,96,0,2,,,,,,,,11,,,63,0
40512,note_on,,96,0,1,,,,,,,,10,,,66,0
40512,note_on,,0,0,1,,,,,,,,10,,,67,108
40512,note_on,,0,0,13,,,,,,,,7,,,76,92
40512,note_on,,0,0,2,,,,,,,,11,,,64,108
40512,note_on,,0,0,13,,,,,,,,7,,,79,92
40512,note_on,,96,0,13,,,,,,,,7,,,75,0
40512,note_on,,0,0,13,,,,,,,,7,,,78,0
40608,note_on,,0,0,1,,,,,,,,10,,,69,108
40608,note_on,,96,0,2,,,,,,,,11,,,64,0
40608,note_on,,96,0,13,,,,,,,,7,,,76,0
40608,note_on,,0,0,13,,,,,,,,7,,,79,0
40608,note_on,,0,0,13,,,,,,,,7,,,78,92
40608,note_on,,0,0,2,,,,,,,,11,,,66,108
40608,note_on,,0,0,13,,,,,,,,7,,,81,92
40608,note_on,,96,0,1,,,,,,,,10,,,67,0
40704,note_on,,96,0,13,,,,,,,,7,,,78,0
40704,note_on,,0,0,1,,,,,,,,10,,,67,108
40704,note_on,,0,0,13,,,,,,,,7,,,81,0
40704,note_on,,96,0,1,,,,,,,,10,,,69,0
40704,note_on,,0,0,13,,,,,,,,7,,,76,92
40704,note_on,,0,0,13,,,,,,,,7,,,79,92
40704,note_on,,0,0,2,,,,,,,,11,,,64,108
40704,note_on,,96,0,2,,,,,,,,11,,,66,0
40896,note_on,,0,0,2,,,,,,,,11,,,64,108
40896,note_on,,0,0,14,,,,,,,,8,,,62,75
40896,note_on,,576,0,14,,,,,,,,8,,,52,0
40896,note_on,,0,0,1,,,,,,,,10,,,67,108
40896,note_on,,0,0,13,,,,,,,,7,,,79,0
40896,note_on,,192,0,1,,,,,,,,10,,,67,0
40896,note_on,,192,0,13,,,,,,,,7,,,76,0
40896,note_on,,0,0,13,,,,,,,,7,,,83,92
40896,note_on,,0,0,13,,,,,,,,7,,,79,92
40896,note_on,,192,0,2,,,,,,,,11,,,64,0
41088,note_on,,0,0,13,,,,,,,,7,,,83,0
41088,note_on,,192,0,2,,,,,,,,11,,,64,0
41088,note_on,,0,0,13,,,,,,,,7,,,79,92
41088,note_on,,0,0,13,,,,,,,,7,,,76,92
41088,note_on,,192,0,13,,,,,,,,7,,,79,0
41088,note_on,,192,0,14,,,,,,,,8,,,62,0
41088,note_on,,0,0,14,,,,,,,,8,,,61,75
41088,note_on,,0,0,2,,,,,,,,11,,,67,108
41088,note_on,,0,0,1,,,,,,,,10,,,76,108
41088,note_on,,192,0,1,,,,,,,,10,,,67,0
41472,note_on,,384,0,1,,,,,,,,10,,,76,0
41472,note_on,,0,0,2,,,,,,,,11,,,69,108
41472,note_on,,0,0,13,,,,,,,,7,,,81,92
41472,note_on,,0,0,13,,,,,,,,7,,,79,0
41472,note_on,,384,0,13,,,,,,,,7,,,76,0
41472,note_on,,384,0,2,,,,,,,,11,,,67,0
41472,note_on,,0,0,13,,,,,,,,7,,,73,92
41472,note_on,,0,0,14,,,,,,,,8,,,57,75
41472,note_on,,0,0,1,,,,,,,,10,,,73,108
41472,note_on,,384,0,14,,,,,,,,8,,,61,0
41856,note_on,,384,0,2,,,,,,,,11,,,69,0
41856,note_on,,0,0,2,,,,,,,,11,,,66,108
41856,note_on,,0,0,1,,,,,,,,10,,,74,108
41856,note_on,,384,0,1,,,,,,,,10,,,73,0
41856,note_on,,0,0,13,,,,,,,,7,,,74,92
41856,note_on,,0,0,13,,,,,,,,7,,,81,0
41856,note_on,,384,0,13,,,,,,,,7,,,73,0
41856,note_on,,0,0,13,,,,,,,,7,,,78,92
41856,note_on,,0,0,14,,,,,,,,8,,,62,75
41856,note_on,,384,0,14,,,,,,,,8,,,57,0
42048,note_on,,192,0,14,,,,,,,,8,,,62,0
42048,note_on,,192,0,13,,,,,,,,7,,,74,0
42048,note_on,,0,0,13,,,,,,,,7,,,78,0
42048,note_on,,0,0,13,,,,,,,,7,,,79,92
42048,note_on,,192,0,1,,,,,,,,10,,,74,0
42048,note_on,,0,0,1,,,,,,,,10,,,76,108
42048,note_on,,0,0,14,,,,,,,,8,,,55,75
42048,note_on,,0,0,13,,,,,,,,7,,,76,92
42048,note_on,,192,0,2,,,,,,,,11,,,66,0
42048,note_on,,0,0,2,,,,,,,,11,,,67,108
42144,note_on,,0,0,1,,,,,,,,10,,,74,108
42144,note_on,,96,0,1,,,,,,,,10,,,76,0
42144,note_on,,0,0,2,,,,,,,,11,,,66,108
42144,note_on,,0,0,13,,,,,,,,7,,,74,92
42144,note_on,,96,0,13,,,,,,,,7,,,76,0
42144,note_on,,0,0,13,,,,,,,,7,,,79,0
42144,note_on,,96,0,2,,,,,,,,11,,,67,0
42144,note_on,,0,0,13,,,,,,,,7,,,78,92
42240,note_on,,96,0,13,,,,,,,,7,,,74,0
42240,note_on,,0,0,2,,,,,,,,11,,,64,108
42240,note_on,,0,0,13,,,,,,,,7,,,78,0
42240,note_on,,0,0,13,,,,,,,,7,,,73,92
42240,note_on,,0,0,13,,,,,,,,7,,,76,92
42240,note_on,,96,0,1,,,,,,,,10,,,74,0
42240,note_on,,0,0,1,,,,,,,,10,,,73,108
42240,note_on,,96,0,2,,,,,,,,11,,,66,0
42240,note_on,,192,0,14,,,,,,,,8,,,55,0
42240,note_on,,0,0,14,,,,,,,,8,,,57,75
42432,note_on,,0,0,13,,,,,,,,7,,,85,92
42432,note_on,,0,0,13,,,,,,,,7,,,76,92
42432,note_on,,0,0,14,,,,,,,,8,,,57,75
42432,note_on,,192,0,14,,,,,,,,8,,,57,0
42432,note_on,,192,0,13,,,,,,,,7,,,73,0
42432,note_on,,0,0,2,,,,,,,,11,,,69,108
42432,note_on,,0,0,13,,,,,,,,7,,,76,0
42432,note_on,,192,0,2,,,,,,,,11,,,64,0
42528,note_on,,0,0,1,,,,,,,,10,,,74,108
42528,note_on,,288,0,1,,,,,,,,10,,,73,0
42624,note_on,,0,0,13,,,,,,,,7,,,86,92
42624,note_on,,192,0,2,,,,,,,,11,,,69,0
42624,note_on,,0,0,13,,,,,,,,7,,,78,92
42624,note_on,,96,0,1,,,,,,,,10,,,74,0
42624,note_on,,0,0,1,,,,,,,,10,,,74,108
42624,note_on,,192,0,14,,,,,,,,8,,,57,0
42624,note_on,,0,0,14,,,,,,,,8,,,62,75
42624,note_on,,192,0,13,,,,,,,,7,,,76,0
42624,note_on,,0,0,13,,,,,,,,7,,,85,0
42624,note_on,,0,0,2,,,,,,,,11,,,66,108
43392,note_on,,0,0,13,,,,,,,,7,,,83,92
43392,note_on,,0,0,13,,,,,,,,7,,,86,92
43392,note_on,,0,0,14,,,,,,,,8,,,67,75
43392,note_on,,768,0,1,,,,,,,,10,,,74,0
43392,note_on,,768,0,14,,,,,,,,8,,,62,0
43392,note_on,,768,0,13,,,,,,,,7,,,78,0
43392,note_on,,0,0,13,,,,,,,,7,,,86,0
43392,note_on,,0,0,1,,,,,,,,10,,,74,108
43392,note_on,,768,0,2,,,,,,,,11,,,66,0
43392,note_on,,0,0,2,,,,,,,,11,,,71,108
43776,note_on,,0,0,1,,,,,,,,10,,,71,108
43776,note_on,,384,0,1,,,,,,,,10,,,74,0
43776,note_on,,0,0,13,,,,,,,,7,,,79,92
43776,note_on,,0,0,2,,,,,,,,11,,,67,108
43776,note_on,,384,0,13,,,,,,,,7,,,83,0
43776,note_on,,0,0,13,,,,,,,,7,,,83,92
43776,note_on,,384,0,14,,,,,,,,8,,,67,0
43776,note_on,,0,0,14,,,,,,,,8,,,55,75
43776,note_on,,384,0,2,,,,,,,,11,,,71,0
43776,note_on,,0,0,13,,,,,,,,7,,,86,0
44064,note_on,,0,0,1,,,,,,,,10,,,72,108
44064,note_on,,288,0,1,,,,,,,,10,,,71,0
44064,note_on,,288,0,2,,,,,,,,11,,,67,0
44064,note_on,,0,0,2,,,,,,,,11,,,69,108
44064,note_on,,0,0,13,,,,,,,,7,,,84,92
44064,note_on,,0,0,13,,,,,,,,7,,,81,92
44064,note_on,,0,0,13,,,,,,,,7,,,83,0
44064,note_on,,288,0,13,,,,,,,,7,,,79,0
44160,note_on,,96,0,13,,,,,,,,7,,,81,0
44160,note_on,,0,0,13,,,,,,,,7,,,83,92
44160,note_on,,96,0,2,,,,,,,,11,,,69,0
44160,note_on,,0,0,2,,,,,,,,11,,,71,108
44160,note_on,,384,0,14,,,,,,,,8,,,55,0
44160,note_on,,0,0,14,,,,,,,,8,,,67,75
44160,note_on,,0,0,13,,,,,,,,7,,,84,0
44160,note_on,,0,0,1,,,,,,,,10,,,74,108
44160,note_on,,0,0,13,,,,,,,,7,,,86,92
44160,note_on,,96,0,1,,,,,,,,10,,,72,0
44736,note_on,,576,0,1,,,,,,,,10,,,74,0
44736,note_on,,0,0,2,,,,,,,,11,,,62,108
44736,note_on,,576,0,2,,,,,,,,11,,,71,0
44736,note_on,,0,0,1,,,,,,,,10,,,67,108
44736,note_on,,576,0,14,,,,,,,,8,,,67,0
44736,note_on,,0,0,14,,,,,,,,8,,,59,75
44736,note_on,,0,0,13,,,,,,,,7,,,79,92
44736,note_on,,0,0,13,,,,,,,,7,,,86,0
44736,note_on,,576,0,13,,,,,,,,7,,,83,0
44928,note_on,,0,0,2,,,,,,,,11,,,66,108
44928,note_on,,192,0,2,,,,,,,,11,,,62,0
44928,note_on,,0,0,13,,,,,,,,7,,,81,92
44928,note_on,,192,0,1,,,,,,,,10,,,67,0
44928,note_on,,0,0,1,,,,,,,,10,,,69,108
44928,note_on,,192,0,14,,,,,,,,8,,,59,0
44928,note_on,,0,0,14,,,,,,,,8,,,62,75
44928,note_on,,0,0,13,,,,,,,,7,,,78,92
44928,note_on,,192,0,13,,,,,,,,7,,,79,0
45024,note_on,,0,0,13,,,,,,,,7,,,81,0
45024,note_on,,0,0,13,,,,,,,,7,,,79,92
45024,note_on,,96,0,13,,,,,,,,7,,,78,0
45024,note_on,,96,0,2,,,,,,,,11,,,66,0
45024,note_on,,0,0,2,,,,,,,,11,,,67,108
45024,note_on,,0,0,13,,,,,,,,7,,,83,92
45024,note_on,,0,0,1,,,,,,,,10,,,71,108
45024,note_on,,96,0,1,,,,,,,,10,,,69,0
45120,note_on,,0,0,2,,,,,,,,11,,,69,108
45120,note_on,,96,0,2,,,,,,,,11,,,67,0
45120,note_on,,0,0,1,,,,,,,,10,,,72,108
45120,note_on,,96,0,1,,,,,,,,10,,,71,0
45120,note_on,,0,0,13,,,,,,,,7,,,81,92
45120,note_on,,0,0,13,,,,,,,,7,,,83,0
45120,note_on,,0,0,13,,,,,,,,7,,,84,92
45120,note_on,,96,0,13,,,,,,,,7,,,79,0
45216,note_on,,0,0,2,,,,,,,,11,,,71,108
45216,note_on,,0,0,14,,,,,,,,8,,,55,75
45216,note_on,,0,0,13,,,,,,,,7,,,86,92
45216,note_on,,0,0,13,,,,,,,,7,,,84,0
45216,note_on,,96,0,13,,,,,,,,7,,,81,0
45216,note_on,,96,0,2,,,,,,,,11,,,69,0
45216,note_on,,288,0,14,,,,,,,,8,,,62,0
45216,note_on,,0,0,13,,,,,,,,7,,,83,92
45216,note_on,,0,0,1,,,,,,,,10,,,74,108
45216,note_on,,96,0,1,,,,,,,,10,,,72,0
45312,note_on,,96,0,13,,,,,,,,7,,,83,0
45312,note_on,,0,0,13,,,,,,,,7,,,86,0
45312,note_on,,0,0,13,,,,,,,,7,,,81,92
45312,note_on,,0,0,13,,,,,,,,7,,,84,92
45312,note_on,,0,0,1,,,,,,,,10,,,72,108
45312,note_on,,96,0,2,,,,,,,,11,,,71,0
45312,note_on,,0,0,2,,,,,,,,11,,,69,108
45312,note_on,,96,0,1,,,,,,,,10,,,74,0
45312,note_on,,0,0,14,,,,,,,,8,,,54,75
45312,note_on,,96,0,14,,,,,,,,8,,,55,0
45504,note_on,,0,0,1,,,,,,,,10,,,71,108
45504,note_on,,192,0,14,,,,,,,,8,,,54,0
45504,note_on,,192,0,1,,,,,,,,10,,,72,0
45504,note_on,,0,0,14,,,,,,,,8,,,55,75
45504,note_on,,0,0,13,,,,,,,,7,,,79,92
45504,note_on,,0,0,2,,,,,,,,11,,,67,108
45504,note_on,,192,0,2,,,,,,,,11,,,69,0
45504,note_on,,0,0,13,,,,,,,,7,,,84,0
45504,note_on,,192,0,13,,,,,,,,7,,,81,0
45504,note_on,,0,0,13,,,,,,,,7,,,83,92
45696,note_on,,0,0,13,,,,,,,,7,,,78,92
45696,note_on,,0,0,13,,,,,,,,7,,,81,92
45696,note_on,,192,0,13,,,,,,,,7,,,79,0
45696,note_on,,0,0,13,,,,,,,,7,,,83,0
45696,note_on,,192,0,14,,,,,,,,8,,,55,0
45696,note_on,,0,0,1,,,,,,,,10,,,69,108
45696,note_on,,0,0,14,,,,,,,,8,,,62,75
45696,note_on,,192,0,2,,,,,,,,11,,,67,0
45696,note_on,,192,0,1,,,,,,,,10,,,71,0
45696,note_on,,0,0,2,,,,,,,,11,,,66,108
45792,note_on,,96,0,14,,,,,,,,8,,,62,0
45792,note_on,,0,0,14,,,,,,,,8,,,60,75
45888,note_on,,96,0,14,,,,,,,,8,,,60,0
45888,note_on,,0,0,14,,,,,,,,8,,,62,75
45984,note_on,,0,0,14,,,,,,,,8,,,64,75
45984,note_on,,96,0,14,,,,,,,,8,,,62,0
46080,note_on,,96,0,14,,,,,,,,8,,,64,0
46080,note_on,,0,0,14,,,,,,,,8,,,62,75
46176,note_on,,96,0,14,,,,,,,,8,,,62,0
46176,note_on,,0,0,14,,,,,,,,8,,,60,75
46272,note_on,,576,0,1,,,,,,,,10,,,69,0
46272,note_on,,0,0,1,,,,,,,,10,,,71,108
46272,note_on,,0,0,2,,,,,,,,11,,,67,108
46272,note_on,,0,0,14,,,,,,,,8,,,59,75
46272,note_on,,576,0,2,,,,,,,,11,,,66,0
46272,note_on,,96,0,14,,,,,,,,8,,,60,0
46368,note_on,,96,0,2,,,,,,,,11,,,67,0
46368,note_on,,96,0,1,,,,,,,,10,,,71,0
46368,note_on,,96,0,14,,,,,,,,8,,,59,0
46368,note_on,,0,0,14,,,,,,,,8,,,57,75
46368,note_on,,0,0,2,,,,,,,,11,,,69,108
46368,note_on,,0,0,1,,,,,,,,10,,,72,108
46464,note_on,,96,0,2,,,,,,,,11,,,69,0
46464,note_on,,0,0,2,,,,,,,,11,,,71,108
46464,note_on,,96,0,1,,,,,,,,10,,,72,0
46464,note_on,,96,0,14,,,,,,,,8,,,57,0
46464,note_on,,768,0,13,,,,,,,,7,,,78,0
46464,note_on,,0,0,13,,,,,,,,7,,,81,0
46464,note_on,,0,0,13,,,,,,,,7,,,83,92
46464,note_on,,0,0,14,,,,,,,,8,,,55,75
46464,note_on,,0,0,1,,,,,,,,10,,,74,108
46560,note_on,,0,0,2,,,,,,,,11,,,69,108
46560,note_on,,96,0,2,,,,,,,,11,,,71,0
46560,note_on,,0,0,13,,,,,,,,7,,,84,92
46560,note_on,,96,0,13,,,,,,,,7,,,83,0
46560,note_on,,0,0,1,,,,,,,,10,,,72,108
46560,note_on,,96,0,1,,,,,,,,10,,,74,0
46560,note_on,,0,0,13,,,,,,,,7,,,81,92
46656,note_on,,0,0,13,,,,,,,,7,,,83,92
46656,note_on,,0,0,1,,,,,,,,10,,,74,108
46656,note_on,,0,0,2,,,,,,,,11,,,71,108
46656,note_on,,0,0,13,,,,,,,,7,,,84,0
46656,note_on,,96,0,13,,,,,,,,7,,,81,0
46656,note_on,,96,0,2,,,,,,,,11,,,69,0
46656,note_on,,0,0,13,,,,,,,,7,,,86,92
46656,note_on,,96,0,1,,,,,,,,10,,,72,0
46752,note_on,,0,0,2,,,,,,,,11,,,72,108
46752,note_on,,0,0,1,,,,,,,,10,,,76,108
46752,note_on,,96,0,1,,,,,,,,10,,,74,0
46752,note_on,,96,0,2,,,,,,,,11,,,71,0
46752,note_on,,0,0,13,,,,,,,,7,,,88,92
46752,note_on,,0,0,13,,,,,,,,7,,,86,0
46752,note_on,,0,0,13,,,,,,,,7,,,84,92
46752,note_on,,96,0,13,,,,,,,,7,,,83,0
46848,note_on,,96,0,2,,,,,,,,11,,,72,0
46848,note_on,,0,0,2,,,,,,,,11,,,71,108
46848,note_on,,0,0,13,,,,,,,,7,,,86,92
46848,note_on,,0,0,1,,,,,,,,10,,,74,108
46848,note_on,,0,0,13,,,,,,,,7,,,83,92
46848,note_on,,0,0,13,,,,,,,,7,,,88,0
46848,note_on,,96,0,1,,,,,,,,10,,,76,0
46848,note_on,,96,0,13,,,,,,,,7,,,84,0
47040,note_on,,0,0,2,,,,,,,,11,,,71,108
47040,note_on,,192,0,1,,,,,,,,10,,,74,0
47040,note_on,,0,0,14,,,,,,,,8,,,67,75
47040,note_on,,576,0,14,,,,,,,,8,,,55,0
47040,note_on,,192,0,2,,,,,,,,11,,,71,0
47040,note_on,,0,0,1,,,,,,,,10,,,74,108
47040,note_on,,0,0,13,,,,,,,,7,,,86,92
47040,note_on,,0,0,13,,,,,,,,7,,,83,92
47040,note_on,,192,0,13,,,,,,,,7,,,83,0
47040,note_on,,0,0,13,,,,,,,,7,,,86,0
47232,note_on,,0,0,14,,,,,,,,8,,,71,75
47232,note_on,,192,0,14,,,,,,,,8,,,67,0
47232,note_on,,0,0,13,,,,,,,,7,,,86,92
47232,note_on,,0,0,13,,,,,,,,7,,,86,0
47232,note_on,,192,0,13,,,,,,,,7,,,83,0
47232,note_on,,0,0,13,,,,,,,,7,,,91,92
47232,note_on,,0,0,1,,,,,,,,10,,,79,108
47232,note_on,,192,0,1,,,,,,,,10,,,74,0
47232,note_on,,192,0,2,,,,,,,,11,,,71,0
47232,note_on,,0,0,2,,,,,,,,11,,,74,108
47616,note_on,,0,0,1,,,,,,,,10,,,74,108
47616,note_on,,384,0,1,,,,,,,,10,,,79,0
47616,note_on,,384,0,13,,,,,,,,7,,,86,0
47616,note_on,,0,0,13,,,,,,,,7,,,91,0
47616,note_on,,0,0,13,,,,,,,,7,,,83,92
47616,note_on,,0,0,13,,,,,,,,7,,,86,92
47616,note_on,,0,0,14,,,,,,,,8,,,67,75
47616,note_on,,384,0,14,,,,,,,,8,,,71,0
47616,note_on,,0,0,2,,,,,,,,11,,,71,108
47616,note_on,,384,0,2,,,,,,,,11,,,74,0
48000,note_on,,0,0,14,,,,,,,,8,,,66,75
48000,note_on,,384,0,14,,,,,,,,8,,,67,0
48000,note_on,,0,0,1,,,,,,,,10,,,72,108
48000,note_on,,0,0,13,,,,,,,,7,,,84,92
48000,note_on,,0,0,13,,,,,,,,7,,,86,0
48000,note_on,,384,0,13,,,,,,,,7,,,83,0
48000,note_on,,0,0,2,,,,,,,,11,,,69,108
48000,note_on,,384,0,1,,,,,,,,10,,,74,0
48000,note_on,,384,0,2,,,,,,,,11,,,71,0
48192,note_on,,192,0,14,,,,,,,,8,,,66,0
48192,note_on,,0,0,14,,,,,,,,8,,,67,75
48192,note_on,,0,0,13,,,,,,,,7,,,83,92
48192,note_on,,0,0,1,,,,,,,,10,,,71,108
48192,note_on,,192,0,2,,,,,,,,11,,,69,0
48192,note_on,,192,0,13,,,,,,,,7,,,84,0
48192,note_on,,192,0,1,,,,,,,,10,,,72,0
48192,note_on,,0,0,2,,,,,,,,11,,,67,108
48288,note_on,,96,0,13,,,,,,,,7,,,83,0
48288,note_on,,0,0,13,,,,,,,,7,,,81,92
48384,note_on,,0,0,14,,,,,,,,8,,,62,75
48384,note_on,,192,0,14,,,,,,,,8,,,67,0
48384,note_on,,96,0,13,,,,,,,,7,,,81,0
48384,note_on,,0,0,13,,,,,,,,7,,,81,92
48384,note_on,,0,0,1,,,,,,,,10,,,69,108
48384,note_on,,192,0,1,,,,,,,,10,,,71,0
48576,note_on,,0,0,14,,,,,,,,8,,,50,75
48576,note_on,,192,0,14,,,,,,,,8,,,62,0
48576,note_on,,0,0,2,,,,,,,,11,,,66,108
48576,note_on,,384,0,2,,,,,,,,11,,,67,0
48672,note_on,,0,0,1,,,,,,,,10,,,67,108
48672,note_on,,288,0,1,,,,,,,,10,,,69,0
48672,note_on,,288,0,13,,,,,,,,7,,,81,0
48672,note_on,,0,0,13,,,,,,,,7,,,79,92
48768,note_on,,96,0,1,,,,,,,,10,,,67,0
48768,note_on,,0,0,14,,,,,,,,8,,,55,75
48768,note_on,,0,0,13,,,,,,,,7,,,79,92
48768,note_on,,96,0,13,,,,,,,,7,,,79,0
48768,note_on,,192,0,14,,,,,,,,8,,,50,0
48768,note_on,,0,0,1,,,,,,,,10,,,67,108
48768,note_on,,0,0,2,,,,,,,,11,,,67,108
48768,note_on,,192,0,2,,,,,,,,11,,,66,0
49536,note_on,,768,0,2,,,,,,,,11,,,67,0
49536,program_change,,0,0,13,,,,,,,19,7,,,,
49536,set_tempo,250000,18432,1,0,,,,,,,,,,,,
49536,program_change,,0,0,2,,,,,,,68,11,,,,
49536,note_on,,768,0,13,,,,,,,,7,,,79,0
49536,note_on,,768,0,1,,,,,,,,10,,,67,0
49536,note_on,,768,0,14,,,,,,,,8,,,55,0
49920,note_on,,384,0,14,,,,,,,,8,,,55,108
49920,note_on,,384,0,13,,,,,,,,7,,,71,108
49920,note_on,,384,0,1,,,,,,,,10,,,74,108
49920,set_tempo,500000,384,1,0,,,,,,,,,,,,
49920,note_on,,49920,0,5,,,,,,,,14,,,55,108
49920,note_on,,49920,0,4,,,,,,,,13,,,59,108
49920,note_on,,49920,0,6,,,,,,,,0,,,86,108
49920,note_on,,0,0,13,,,,,,,,7,,,74,108
49920,note_on,,25344,0,3,,,,,,,,12,,,67,108
49920,note_on,,49920,0,9,,,,,,,,3,,,55,92
49920,note_on,,25344,0,11,,,,,,,,5,,,74,92
49920,note_on,,384,0,2,,,,,,,,11,,,71,108
49920,note_on,,49920,0,10,,,,,,,,4,,,43,75
49920,note_on,,49920,0,8,,,,,,,,2,,,67,92
49920,note_on,,49920,0,7,,,,,,,,1,,,83,108
49920,note_on,,0,0,2,,,,,,,,11,,,74,108
49920,note_on,,25344,0,12,,,,,,,,6,,,71,92
50304,note_on,,0,0,13,,,,,,,,7,,,74,0
50304,note_on,,384,0,10,,,,,,,,4,,,43,0
50304,note_on,,0,0,4,,,,,,,,13,,,62,108
50304,note_on,,384,0,4,,,,,,,,13,,,59,0
50304,note_on,,0,0,7,,,,,,,,1,,,79,108
50304,note_on,,0,0,13,,,,,,,,7,,,67,108
50304,note_on,,0,0,6,,,,,,,,0,,,83,108
50304,note_on,,384,0,6,,,,,,,,0,,,86,0
50304,note_on,,0,0,10,,,,,,,,4,,,47,75
50304,note_on,,0,0,2,,,,,,,,11,,,67,108
50304,note_on,,0,0,2,,,,,,,,11,,,71,108
50304,note_on,,384,0,8,,,,,,,,2,,,67,0
50304,note_on,,0,0,8,,,,,,,,2,,,62,92
50304,note_on,,384,0,13,,,,,,,,7,,,71,0
50304,note_on,,384,0,7,,,,,,,,1,,,83,0
50304,note_on,,0,0,13,,,,,,,,7,,,71,108
50304,note_on,,384,0,9,,,,,,,,3,,,55,0
50304,note_on,,0,0,1,,,,,,,,10,,,71,108
50304,note_on,,384,0,11,,,,,,,,5,,,74,0
50304,note_on,,384,0,12,,,,,,,,6,,,71,0
50304,note_on,,0,0,12,,,,,,,,6,,,67,92
50304,note_on,,384,0,3,,,,,,,,12,,,67,0
50304,note_on,,0,0,5,,,,,,,,14,,,59,108
50304,note_on,,384,0,5,,,,,,,,14,,,55,0
50304,note_on,,0,0,3,,,,,,,,12,,,67,108
50304,note_on,,0,0,2,,,,,,,,11,,,74,0
50304,note_on,,384,0,2,,,,,,,,11,,,71,0
50304,note_on,,384,0,1,,,,,,,,10,,,74,0
50304,note_on,,0,0,9,,,,,,,,3,,,59,92
50304,note_on,,0,0,11,,,,,,,,5,,,71,92
50304,note_on,,0,0,14,,,,,,,,8,,,59,108
50304,note_on,,384,0,14,,,,,,,,8,,,55,0
50592,note_on,,288,0,14,,,,,,,,8,,,59,0
50592,note_on,,288,0,10,,,,,,,,4,,,47,0
50592,note_on,,288,0,11,,,,,,,,5,,,71,0
50592,note_on,,0,0,12,,,,,,,,6,,,69,92
50592,note_on,,288,0,12,,,,,,,,6,,,67,0
50592,note_on,,0,0,10,,,,,,,,4,,,45,75
50592,note_on,,0,0,11,,,,,,,,5,,,72,92
50592,note_on,,288,0,13,,,,,,,,7,,,67,0
50592,note_on,,288,0,2,,,,,,,,11,,,67,0
50592,note_on,,0,0,13,,,,,,,,7,,,69,108
50592,note_on,,288,0,3,,,,,,,,12,,,67,0
50592,note_on,,0,0,3,,,,,,,,12,,,66,108
50592,note_on,,0,0,1,,,,,,,,10,,,72,108
50592,note_on,,288,0,1,,,,,,,,10,,,71,0
50592,note_on,,0,0,7,,,,,,,,1,,,81,108
50592,note_on,,288,0,5,,,,,,,,14,,,59,0
50592,note_on,,0,0,5,,,,,,,,14,,,57,108
50592,note_on,,0,0,9,,,,,,,,3,,,57,92
50592,note_on,,288,0,9,,,,,,,,3,,,59,0
50592,note_on,,0,0,13,,,,,,,,7,,,71,0
50592,note_on,,0,0,4,,,,,,,,13,,,60,108
50592,note_on,,288,0,7,,,,,,,,1,,,79,0
50592,note_on,,0,0,6,,,,,,,,0,,,84,108
50592,note_on,,288,0,6,,,,,,,,0,,,83,0
50592,note_on,,0,0,2,,,,,,,,11,,,71,0
50592,note_on,,0,0,2,,,,,,,,11,,,69,108
50592,note_on,,0,0,2,,,,,,,,11,,,72,108
50592,note_on,,0,0,13,,,,,,,,7,,,72,108
50592,note_on,,288,0,4,,,,,,,,13,,,62,0
50592,note_on,,0,0,14,,,,,,,,8,,,57,108
50688,note_on,,0,0,14,,,,,,,,8,,,55,108
50688,note_on,,384,0,8,,,,,,,,2,,,62,0
50688,note_on,,0,0,8,,,,,,,,2,,,67,92
50688,note_on,,96,0,12,,,,,,,,6,,,69,0
50688,note_on,,0,0,12,,,,,,,,6,,,71,92
50688,note_on,,96,0,1,,,,,,,,10,,,72,0
50688,note_on,,0,0,1,,,,,,,,10,,,74,108
50688,note_on,,0,0,5,,,,,,,,14,,,55,108
50688,note_on,,0,0,13,,,,,,,,7,,,71,108
50688,note_on,,96,0,13,,,,,,,,7,,,69,0
50688,note_on,,0,0,13,,,,,,,,7,,,72,0
50688,note_on,,96,0,11,,,,,,,,5,,,72,0
50688,note_on,,0,0,11,,,,,,,,5,,,74,92
50688,note_on,,96,0,14,,,,,,,,8,,,57,0
50688,note_on,,0,0,13,,,,,,,,7,,,74,108
50688,note_on,,0,0,3,,,,,,,,12,,,67,108
50688,note_on,,96,0,3,,,,,,,,12,,,66,0
50688,note_on,,96,0,5,,,,,,,,14,,,57,0
50688,note_on,,96,0,2,,,,,,,,11,,,69,0
50688,note_on,,0,0,2,,,,,,,,11,,,72,0
50688,note_on,,0,0,2,,,,,,,,11,,,71,108
50688,note_on,,0,0,2,,,,,,,,11,,,74,108
50688,note_on,,96,0,4,,,,,,,,13,,,60,0
50688,note_on,,0,0,9,,,,,,,,3,,,55,92
50688,note_on,,0,0,4,,,,,,,,13,,,59,108
50688,note_on,,96,0,6,,,,,,,,0,,,84,0
50688,note_on,,0,0,6,,,,,,,,0,,,86,108
50688,note_on,,0,0,10,,,,,,,,4,,,43,75
50688,note_on,,96,0,10,,,,,,,,4,,,45,0
50688,note_on,,96,0,7,,,,,,,,1,,,81,0
50688,note_on,,0,0,7,,,,,,,,1,,,83,108
50688,note_on,,96,0,9,,,,,,,,3,,,57,0
51072,note_on,,384,0,12,,,,,,,,6,,,71,0
51072,note_on,,0,0,10,,,,,,,,4,,,47,75
51072,note_on,,384,0,10,,,,,,,,4,,,43,0
51072,note_on,,0,0,1,,,,,,,,10,,,67,108
51072,note_on,,384,0,13,,,,,,,,7,,,71,0
51072,note_on,,0,0,13,,,,,,,,7,,,74,0
51072,note_on,,0,0,3,,,,,,,,12,,,62,108
51072,note_on,,384,0,3,,,,,,,,12,,,67,0
51072,note_on,,384,0,1,,,,,,,,10,,,74,0
51072,note_on,,0,0,2,,,,,,,,11,,,79,108
51072,note_on,,384,0,8,,,,,,,,2,,,67,0
51072,note_on,,0,0,8,,,,,,,,2,,,67,92
51072,note_on,,0,0,2,,,,,,,,11,,,74,108
51072,note_on,,0,0,2,,,,,,,,11,,,74,0
51072,note_on,,0,0,13,,,,,,,,7,,,67,108
51072,note_on,,384,0,2,,,,,,,,11,,,71,0
51072,note_on,,0,0,12,,,,,,,,6,,,59,92
51072,note_on,,0,0,4,,,,,,,,13,,,62,108
51072,note_on,,384,0,4,,,,,,,,13,,,59,0
51072,note_on,,384,0,6,,,,,,,,0,,,86,0
51072,note_on,,384,0,9,,,,,,,,3,,,55,0
51072,note_on,,0,0,5,,,,,,,,14,,,59,108
51072,note_on,,384,0,5,,,,,,,,14,,,55,0
51072,note_on,,0,0,9,,,,,,,,3,,,59,92
51072,note_on,,384,0,7,,,,,,,,1,,,83,0
51072,note_on,,0,0,7,,,,,,,,1,,,74,108
51072,note_on,,0,0,6,,,,,,,,0,,,79,108
51072,note_on,,384,0,14,,,,,,,,8,,,55,0
51072,note_on,,384,0,11,,,,,,,,5,,,74,0
51072,note_on,,0,0,14,,,,,,,,8,,,59,108
51072,note_on,,0,0,11,,,,,,,,5,,,67,92
51456,note_on,,0,0,12,,,,,,,,6,,,62,92
51456,note_on,,384,0,2,,,,,,,,11,,,74,0
51456,note_on,,0,0,2,,,,,,,,11,,,79,0
51456,note_on,,0,0,10,,,,,,,,4,,,45,75
51456,note_on,,0,0,14,,,,,,,,8,,,57,108
51456,note_on,,384,0,10,,,,,,,,4,,,47,0
51456,note_on,,0,0,2,,,,,,,,11,,,69,108
51456,note_on,,0,0,6,,,,,,,,0,,,81,108
51456,note_on,,384,0,1,,,,,,,,10,,,67,0
51456,note_on,,0,0,1,,,,,,,,10,,,69,108
51456,note_on,,384,0,7,,,,,,,,1,,,74,0
51456,note_on,,384,0,14,,,,,,,,8,,,59,0
51456,note_on,,0,0,2,,,,,,,,11,,,66,108
51456,note_on,,0,0,8,,,,,,,,2,,,60,92
51456,note_on,,384,0,8,,,,,,,,2,,,67,0
51456,note_on,,384,0,4,,,,,,,,13,,,62,0
51456,note_on,,0,0,4,,,,,,,,13,,,60,108
51456,note_on,,384,0,11,,,,,,,,5,,,67,0
51456,note_on,,0,0,11,,,,,,,,5,,,69,92
51456,note_on,,384,0,13,,,,,,,,7,,,67,0
51456,note_on,,0,0,13,,,,,,,,7,,,66,108
51456,note_on,,0,0,13,,,,,,,,7,,,69,108
51456,note_on,,384,0,6,,,,,,,,0,,,79,0
51456,note_on,,0,0,7,,,,,,,,1,,,78,108
51456,note_on,,0,0,3,,,,,,,,12,,,66,108
51456,note_on,,384,0,3,,,,,,,,12,,,62,0
51456,note_on,,0,0,9,,,,,,,,3,,,57,92
51456,note_on,,384,0,9,,,,,,,,3,,,59,0
51456,note_on,,384,0,12,,,,,,,,6,,,59,0
51456,note_on,,384,0,5,,,,,,,,14,,,59,0
51456,note_on,,0,0,5,,,,,,,,14,,,57,108
51552,note_on,,0,0,11,,,,,,,,5,,,71,92
51552,note_on,,96,0,11,,,,,,,,5,,,69,0
51552,note_on,,96,0,1,,,,,,,,10,,,69,0
51552,note_on,,0,0,1,,,,,,,,10,,,71,108
51552,note_on,,0,0,6,,,,,,,,0,,,83,108
51552,note_on,,0,0,13,,,,,,,,7,,,69,0
51552,note_on,,96,0,3,,,,,,,,12,,,66,0
51552,note_on,,96,0,2,,,,,,,,11,,,66,0
51552,note_on,,0,0,7,,,,,,,,1,,,79,108
51552,note_on,,96,0,7,,,,,,,,1,,,78,0
51552,note_on,,96,0,6,,,,,,,,0,,,81,0
51552,note_on,,0,0,2,,,,,,,,11,,,69,0
51552,note_on,,0,0,13,,,,,,,,7,,,71,108
51552,note_on,,96,0,13,,,,,,,,7,,,66,0
51552,note_on,,0,0,3,,,,,,,,12,,,67,108
51552,note_on,,0,0,13,,,,,,,,7,,,67,108
51552,note_on,,0,0,2,,,,,,,,11,,,71,108
51552,note_on,,0,0,2,,,,,,,,11,,,67,108
51648,note_on,,96,0,6,,,,,,,,0,,,83,0
51648,note_on,,0,0,6,,,,,,,,0,,,84,108
51648,note_on,,0,0,12,,,,,,,,6,,,69,92
51648,note_on,,0,0,1,,,,,,,,10,,,72,108
51648,note_on,,0,0,2,,,,,,,,11,,,71,0
51648,note_on,,0,0,2,,,,,,,,11,,,69,108
51648,note_on,,0,0,2,,,,,,,,11,,,72,108
51648,note_on,,96,0,7,,,,,,,,1,,,79,0
51648,note_on,,0,0,7,,,,,,,,1,,,81,108
51648,note_on,,96,0,2,,,,,,,,11,,,67,0
51648,note_on,,96,0,3,,,,,,,,12,,,67,0
51648,note_on,,0,0,3,,,,,,,,12,,,69,108
51648,note_on,,0,0,13,,,,,,,,7,,,69,108
51648,note_on,,192,0,12,,,,,,,,6,,,62,0
51648,note_on,,96,0,13,,,,,,,,7,,,67,0
51648,note_on,,0,0,13,,,,,,,,7,,,71,0
51648,note_on,,96,0,1,,,,,,,,10,,,71,0
51648,note_on,,0,0,13,,,,,,,,7,,,72,108
51648,note_on,,0,0,4,,,,,,,,13,,,57,108
51648,note_on,,192,0,4,,,,,,,,13,,,60,0
51648,note_on,,192,0,8,,,,,,,,2,,,60,0
51648,note_on,,0,0,8,,,,,,,,2,,,66,92
51648,note_on,,0,0,11,,,,,,,,5,,,72,92
51648,note_on,,96,0,11,,,,,,,,5,,,71,0
51744,note_on,,0,0,2,,,,,,,,11,,,74,108
51744,note_on,,0,0,2,,,,,,,,11,,,71,108
51744,note_on,,96,0,11,,,,,,,,5,,,72,0
51744,note_on,,0,0,2,,,,,,,,11,,,72,0
51744,note_on,,96,0,2,,,,,,,,11,,,69,0
51744,note_on,,0,0,7,,,,,,,,1,,,83,108
51744,note_on,,0,0,13,,,,,,,,7,,,74,108
51744,note_on,,288,0,5,,,,,,,,14,,,57,0
51744,note_on,,288,0,9,,,,,,,,3,,,57,0
51744,note_on,,0,0,13,,,,,,,,7,,,71,108
51744,note_on,,0,0,5,,,,,,,,14,,,55,108
51744,note_on,,0,0,6,,,,,,,,0,,,86,108
51744,note_on,,96,0,6,,,,,,,,0,,,84,0
51744,note_on,,96,0,13,,,,,,,,7,,,69,0
51744,note_on,,0,0,13,,,,,,,,7,,,72,0
51744,note_on,,288,0,14,,,,,,,,8,,,57,0
51744,note_on,,96,0,3,,,,,,,,12,,,69,0
51744,note_on,,0,0,3,,,,,,,,12,,,71,108
51744,note_on,,0,0,9,,,,,,,,3,,,55,92
51744,note_on,,0,0,14,,,,,,,,8,,,55,108
51744,note_on,,96,0,7,,,,,,,,1,,,81,0
51744,note_on,,0,0,11,,,,,,,,5,,,74,92
51744,note_on,,96,0,1,,,,,,,,10,,,72,0
51744,note_on,,0,0,1,,,,,,,,10,,,74,108
51744,note_on,,0,0,10,,,,,,,,4,,,43,75
51744,note_on,,288,0,10,,,,,,,,4,,,45,0
51840,note_on,,96,0,3,,,,,,,,12,,,71,0
51840,note_on,,0,0,9,,,,,,,,3,,,54,92
51840,note_on,,0,0,2,,,,,,,,11,,,72,108
51840,note_on,,0,0,2,,,,,,,,11,,,69,108
51840,note_on,,0,0,2,,,,,,,,11,,,74,0
51840,note_on,,96,0,9,,,,,,,,3,,,55,0
51840,note_on,,0,0,5,,,,,,,,14,,,54,108
51840,note_on,,0,0,7,,,,,,,,1,,,81,108
51840,note_on,,96,0,7,,,,,,,,1,,,83,0
51840,note_on,,96,0,11,,,,,,,,5,,,74,0
51840,note_on,,96,0,2,,,,,,,,11,,,71,0
51840,note_on,,0,0,1,,,,,,,,10,,,72,108
51840,note_on,,96,0,14,,,,,,,,8,,,55,0
51840,note_on,,0,0,10,,,,,,,,4,,,42,75
51840,note_on,,96,0,10,,,,,,,,4,,,43,0
51840,note_on,,192,0,8,,,,,,,,2,,,66,0
51840,note_on,,0,0,8,,,,,,,,2,,,66,92
51840,note_on,,96,0,13,,,,,,,,7,,,71,0
51840,note_on,,0,0,6,,,,,,,,0,,,84,108
51840,note_on,,96,0,6,,,,,,,,0,,,86,0
51840,note_on,,0,0,3,,,,,,,,12,,,69,108
51840,note_on,,96,0,1,,,,,,,,10,,,74,0
51840,note_on,,0,0,14,,,,,,,,8,,,54,108
51840,note_on,,96,0,5,,,,,,,,14,,,55,0
51840,note_on,,0,0,13,,,,,,,,7,,,74,0
51840,note_on,,0,0,11,,,,,,,,5,,,72,92
51840,note_on,,192,0,4,,,,,,,,13,,,57,0
51840,note_on,,192,0,12,,,,,,,,6,,,69,0
51840,note_on,,0,0,4,,,,,,,,13,,,62,108
51840,note_on,,0,0,13,,,,,,,,7,,,72,108
51840,note_on,,0,0,12,,,,,,,,6,,,69,92
51840,note_on,,0,0,13,,,,,,,,7,,,69,108
52032,note_on,,0,0,1,,,,,,,,10,,,71,108
52032,note_on,,192,0,1,,,,,,,,10,,,72,0
52032,note_on,,0,0,13,,,,,,,,7,,,71,108
52032,note_on,,192,0,4,,,,,,,,13,,,62,0
52032,note_on,,192,0,10,,,,,,,,4,,,42,0
52032,note_on,,0,0,4,,,,,,,,13,,,62,108
52032,note_on,,0,0,14,,,,,,,,8,,,55,108
52032,note_on,,0,0,9,,,,,,,,3,,,55,92
52032,note_on,,0,0,3,,,,,,,,12,,,67,108
52032,note_on,,192,0,3,,,,,,,,12,,,69,0
52032,note_on,,0,0,6,,,,,,,,0,,,83,108
52032,note_on,,192,0,6,,,,,,,,0,,,84,0
52032,note_on,,0,0,11,,,,,,,,5,,,71,92
52032,note_on,,192,0,8,,,,,,,,2,,,66,0
52032,note_on,,0,0,8,,,,,,,,2,,,62,92
52032,note_on,,192,0,11,,,,,,,,5,,,72,0
52032,note_on,,192,0,12,,,,,,,,6,,,69,0
52032,note_on,,0,0,13,,,,,,,,7,,,67,108
52032,note_on,,0,0,10,,,,,,,,4,,,43,75
52032,note_on,,0,0,2,,,,,,,,11,,,72,0
52032,note_on,,192,0,14,,,,,,,,8,,,54,0
52032,note_on,,0,0,2,,,,,,,,11,,,67,108
52032,note_on,,0,0,13,,,,,,,,7,,,72,0
52032,note_on,,0,0,5,,,,,,,,14,,,55,108
52032,note_on,,192,0,13,,,,,,,,7,,,69,0
52032,note_on,,192,0,7,,,,,,,,1,,,81,0
52032,note_on,,0,0,7,,,,,,,,1,,,79,108
52032,note_on,,192,0,5,,,,,,,,14,,,54,0
52032,note_on,,192,0,2,,,,,,,,11,,,69,0
52032,note_on,,192,0,9,,,,,,,,3,,,54,0
52032,note_on,,0,0,12,,,,,,,,6,,,67,92
52032,note_on,,0,0,2,,,,,,,,11,,,71,108
52224,note_on,,0,0,11,,,,,,,,5,,,69,92
52224,note_on,,0,0,10,,,,,,,,4,,,38,75
52224,note_on,,0,0,12,,,,,,,,6,,,62,92
52224,note_on,,192,0,9,,,,,,,,3,,,55,0
52224,note_on,,192,0,11,,,,,,,,5,,,71,0
52224,note_on,,0,0,9,,,,,,,,3,,,50,92
52224,note_on,,192,0,3,,,,,,,,12,,,67,0
52224,note_on,,192,0,10,,,,,,,,4,,,43,0
52224,note_on,,0,0,3,,,,,,,,12,,,66,108
52224,note_on,,192,0,8,,,,,,,,2,,,62,0
52224,note_on,,0,0,4,,,,,,,,13,,,62,108
52224,note_on,,192,0,4,,,,,,,,13,,,62,0
52224,note_on,,192,0,5,,,,,,,,14,,,55,0
52224,note_on,,0,0,5,,,,,,,,14,,,50,108
52224,note_on,,192,0,12,,,,,,,,6,,,67,0
52224,note_on,,0,0,8,,,,,,,,2,,,62,92
52224,note_on,,192,0,2,,,,,,,,11,,,67,0
52224,note_on,,0,0,2,,,,,,,,11,,,66,108
52224,note_on,,192,0,7,,,,,,,,1,,,79,0
52224,note_on,,0,0,2,,,,,,,,11,,,71,0
52224,note_on,,192,0,1,,,,,,,,10,,,71,0
52224,note_on,,0,0,14,,,,,,,,8,,,50,108
52224,note_on,,192,0,6,,,,,,,,0,,,83,0
52224,note_on,,0,0,6,,,,,,,,0,,,81,108
52224,note_on,,0,0,7,,,,,,,,1,,,78,108
52224,note_on,,0,0,2,,,,,,,,11,,,69,108
52224,note_on,,0,0,1,,,,,,,,10,,,69,108
52224,note_on,,192,0,14,,,,,,,,8,,,55,0
52224,note_on,,0,0,13,,,,,,,,7,,,69,108
52224,note_on,,0,0,13,,,,,,,,7,,,66,108
52224,note_on,,0,0,13,,,,,,,,7,,,71,0
52224,note_on,,192,0,13,,,,,,,,7,,,67,0
52992,note_on,,0,0,8,,,,,,,,2,,,62,92
52992,note_on,,768,0,12,,,,,,,,6,,,62,0
52992,note_on,,768,0,8,,,,,,,,2,,,62,0
52992,note_on,,0,0,7,,,,,,,,1,,,79,108
52992,note_on,,768,0,14,,,,,,,,8,,,50,0
52992,note_on,,0,0,14,,,,,,,,8,,,59,108
52992,note_on,,0,0,9,,,,,,,,3,,,59,92
52992,note_on,,768,0,13,,,,,,,,7,,,66,0
52992,note_on,,0,0,13,,,,,,,,7,,,69,0
52992,note_on,,768,0,4,,,,,,,,13,,,62,0
52992,note_on,,0,0,4,,,,,,,,13,,,62,108
52992,note_on,,0,0,13,,,,,,,,7,,,71,108
52992,note_on,,0,0,11,,,,,,,,5,,,71,92
52992,note_on,,768,0,11,,,,,,,,5,,,69,0
52992,note_on,,768,0,9,,,,,,,,3,,,50,0
52992,note_on,,0,0,10,,,,,,,,4,,,47,75
52992,note_on,,0,0,12,,,,,,,,6,,,59,92
52992,note_on,,0,0,2,,,,,,,,11,,,74,108
52992,note_on,,0,0,2,,,,,,,,11,,,69,0
52992,note_on,,0,0,3,,,,,,,,12,,,67,108
52992,note_on,,768,0,3,,,,,,,,12,,,66,0
52992,note_on,,768,0,2,,,,,,,,11,,,66,0
52992,note_on,,768,0,1,,,,,,,,10,,,69,0
52992,note_on,,768,0,10,,,,,,,,4,,,38,0
52992,note_on,,0,0,2,,,,,,,,11,,,67,108
52992,note_on,,768,0,6,,,,,,,,0,,,81,0
52992,note_on,,0,0,6,,,,,,,,0,,,86,108
52992,note_on,,768,0,5,,,,,,,,14,,,50,0
52992,note_on,,0,0,1,,,,,,,,10,,,74,108
52992,note_on,,0,0,5,,,,,,,,14,,,59,108
52992,note_on,,768,0,7,,,,,,,,1,,,78,0
53088,note_on,,96,0,2,,,,,,,,11,,,74,0
53088,note_on,,96,0,13,,,,,,,,7,,,71,0
53088,note_on,,0,0,13,,,,,,,,7,,,69,108
53088,note_on,,0,0,2,,,,,,,,11,,,72,108
53088,note_on,,0,0,13,,,,,,,,7,,,72,108
53088,note_on,,96,0,6,,,,,,,,0,,,86,0
53088,note_on,,0,0,6,,,,,,,,0,,,84,108
53088,note_on,,96,0,10,,,,,,,,4,,,47,0
53088,note_on,,96,0,14,,,,,,,,8,,,59,0
53088,note_on,,0,0,9,,,,,,,,3,,,57,92
53088,note_on,,96,0,9,,,,,,,,3,,,59,0
53088,note_on,,0,0,5,,,,,,,,14,,,57,108
53088,note_on,,96,0,5,,,,,,,,14,,,59,0
53088,note_on,,96,0,1,,,,,,,,10,,,74,0
53088,note_on,,0,0,1,,,,,,,,10,,,72,108
53088,note_on,,0,0,14,,,,,,,,8,,,57,108
53088,note_on,,0,0,10,,,,,,,,4,,,45,75
53184,note_on,,0,0,13,,,,,,,,7,,,74,108
53184,note_on,,0,0,13,,,,,,,,7,,,71,108
53184,note_on,,0,0,13,,,,,,,,7,,,72,0
53184,note_on,,96,0,13,,,,,,,,7,,,69,0
53184,note_on,,0,0,10,,,,,,,,4,,,47,75
53184,note_on,,96,0,10,,,,,,,,4,,,45,0
53184,note_on,,0,0,4,,,,,,,,13,,,62,108
53184,note_on,,192,0,4,,,,,,,,13,,,62,0
53184,note_on,,0,0,2,,,,,,,,11,,,74,108
53184,note_on,,96,0,2,,,,,,,,11,,,72,0
53184,note_on,,0,0,9,,,,,,,,3,,,59,92
53184,note_on,,0,0,11,,,,,,,,5,,,67,92
53184,note_on,,0,0,14,,,,,,,,8,,,59,108
53184,note_on,,96,0,14,,,,,,,,8,,,57,0
53184,note_on,,192,0,11,,,,,,,,5,,,71,0
53184,note_on,,0,0,6,,,,,,,,0,,,86,108
53184,note_on,,96,0,6,,,,,,,,0,,,84,0
53184,note_on,,0,0,1,,,,,,,,10,,,74,108
53184,note_on,,0,0,5,,,,,,,,14,,,59,108
53184,note_on,,96,0,5,,,,,,,,14,,,57,0
53184,note_on,,96,0,9,,,,,,,,3,,,57,0
53184,note_on,,96,0,1,,,,,,,,10,,,72,0
53184,note_on,,0,0,12,,,,,,,,6,,,59,92
53184,note_on,,192,0,12,,,,,,,,6,,,59,0
53280,note_on,,0,0,12,,,,,,,,6,,,59,92
53280,note_on,,96,0,14,,,,,,,,8,,,59,0
53280,note_on,,0,0,10,,,,,,,,4,,,48,75
53280,note_on,,96,0,1,,,,,,,,10,,,74,0
53280,note_on,,0,0,1,,,,,,,,10,,,76,108
53280,note_on,,96,0,12,,,,,,,,6,,,59,0
53280,note_on,,0,0,5,,,,,,,,14,,,60,108
53280,note_on,,0,0,13,,,,,,,,7,,,76,108
53280,note_on,,96,0,6,,,,,,,,0,,,86,0
53280,note_on,,0,0,6,,,,,,,,0,,,88,108
53280,note_on,,0,0,13,,,,,,,,7,,,72,108
53280,note_on,,0,0,13,,,,,,,,7,,,74,0
53280,note_on,,96,0,13,,,,,,,,7,,,71,0
53280,note_on,,96,0,11,,,,,,,,5,,,67,0
53280,note_on,,96,0,2,,,,,,,,11,,,74,0
53280,note_on,,0,0,2,,,,,,,,11,,,76,108
53280,note_on,,0,0,14,,,,,,,,8,,,60,108
53280,note_on,,0,0,9,,,,,,,,3,,,60,92
53280,note_on,,96,0,10,,,,,,,,4,,,47,0
53280,note_on,,96,0,9,,,,,,,,3,,,59,0
53280,note_on,,96,0,5,,,,,,,,14,,,59,0
53280,note_on,,0,0,11,,,,,,,,5,,,67,92
53376,note_on,,96,0,10,,,,,,,,4,,,48,0
53376,note_on,,0,0,13,,,,,,,,7,,,76,0
53376,note_on,,96,0,13,,,,,,,,7,,,72,0
53376,note_on,,192,0,4,,,,,,,,13,,,62,0
53376,note_on,,0,0,4,,,,,,,,13,,,62,108
53376,note_on,,0,0,12,,,,,,,,6,,,62,92
53376,note_on,,96,0,6,,,,,,,,0,,,88,0
53376,note_on,,0,0,6,,,,,,,,0,,,86,108
53376,note_on,,96,0,9,,,,,,,,3,,,60,0
53376,note_on,,0,0,9,,,,,,,,3,,,59,92
53376,note_on,,0,0,13,,,,,,,,7,,,71,108
53376,note_on,,0,0,13,,,,,,,,7,,,74,108
53376,note_on,,0,0,1,,,,,,,,10,,,74,108
53376,note_on,,96,0,1,,,,,,,,10,,,76,0
53376,note_on,,0,0,5,,,,,,,,14,,,59,108
53376,note_on,,96,0,5,,,,,,,,14,,,60,0
53376,note_on,,96,0,11,,,,,,,,5,,,67,0
53376,note_on,,0,0,11,,,,,,,,5,,,71,92
53376,note_on,,0,0,14,,,,,,,,8,,,59,108
53376,note_on,,96,0,14,,,,,,,,8,,,60,0
53376,note_on,,96,0,2,,,,,,,,11,,,76,0
53376,note_on,,0,0,2,,,,,,,,11,,,74,108
53376,note_on,,0,0,10,,,,,,,,4,,,47,75
53376,note_on,,96,0,12,,,,,,,,6,,,59,0
53568,note_on,,0,0,14,,,,,,,,8,,,59,108
53568,note_on,,192,0,1,,,,,,,,10,,,74,0
53568,note_on,,192,0,14,,,,,,,,8,,,59,0
53568,note_on,,0,0,1,,,,,,,,10,,,74,108
53568,note_on,,0,0,2,,,,,,,,11,,,67,108
53568,note_on,,192,0,12,,,,,,,,6,,,62,0
53568,note_on,,192,0,13,,,,,,,,7,,,71,0
53568,note_on,,0,0,13,,,,,,,,7,,,74,0
53568,note_on,,0,0,12,,,,,,,,6,,,67,92
53568,note_on,,0,0,13,,,,,,,,7,,,74,108
53568,note_on,,576,0,8,,,,,,,,2,,,62,0
53568,note_on,,0,0,8,,,,,,,,2,,,62,92
53568,note_on,,192,0,2,,,,,,,,11,,,67,0
53568,note_on,,0,0,2,,,,,,,,11,,,74,0
53568,note_on,,0,0,2,,,,,,,,11,,,74,108
53568,note_on,,0,0,13,,,,,,,,7,,,71,108
53568,note_on,,0,0,10,,,,,,,,4,,,47,75
53568,note_on,,192,0,10,,,,,,,,4,,,47,0
53568,note_on,,0,0,3,,,,,,,,12,,,67,108
53568,note_on,,576,0,3,,,,,,,,12,,,67,0
53568,note_on,,192,0,6,,,,,,,,0,,,86,0
53568,note_on,,0,0,6,,,,,,,,0,,,86,108
53568,note_on,,0,0,4,,,,,,,,13,,,62,108
53568,note_on,,192,0,4,,,,,,,,13,,,62,0
53568,note_on,,192,0,11,,,,,,,,5,,,71,0
53568,note_on,,0,0,7,,,,,,,,1,,,79,108
53568,note_on,,192,0,5,,,,,,,,14,,,59,0
53568,note_on,,0,0,9,,,,,,,,3,,,59,92
53568,note_on,,192,0,9,,,,,,,,3,,,59,0
53568,note_on,,0,0,5,,,,,,,,14,,,59,108
53568,note_on,,576,0,7,,,,,,,,1,,,79,0
53568,note_on,,0,0,11,,,,,,,,5,,,71,92
53664,note_on,,96,0,12,,,,,,,,6,,,67,0
53664,note_on,,96,0,11,,,,,,,,5,,,71,0
53664,note_on,,0,0,12,,,,,,,,6,,,67,92
53664,note_on,,0,0,11,,,,,,,,5,,,71,92
53760,note_on,,0,0,11,,,,,,,,5,,,74,92
53760,note_on,,0,0,12,,,,,,,,6,,,71,92
53760,note_on,,96,0,12,,,,,,,,6,,,67,0
53760,note_on,,0,0,13,,,,,,,,7,,,74,0
53760,note_on,,0,0,2,,,,,,,,11,,,79,108
53760,note_on,,0,0,2,,,,,,,,11,,,74,0
53760,note_on,,192,0,2,,,,,,,,11,,,67,0
53760,note_on,,0,0,10,,,,,,,,4,,,47,75
53760,note_on,,192,0,10,,,,,,,,4,,,47,0
53760,note_on,,0,0,8,,,,,,,,2,,,71,92
53760,note_on,,192,0,8,,,,,,,,2,,,62,0
53760,note_on,,96,0,11,,,,,,,,5,,,71,0
53760,note_on,,0,0,2,,,,,,,,11,,,74,108
53760,note_on,,0,0,3,,,,,,,,12,,,67,108
53760,note_on,,192,0,9,,,,,,,,3,,,59,0
53760,note_on,,0,0,1,,,,,,,,10,,,79,108
53760,note_on,,192,0,1,,,,,,,,10,,,74,0
53760,note_on,,0,0,9,,,,,,,,3,,,59,92
53760,note_on,,0,0,13,,,,,,,,7,,,79,108
53760,note_on,,0,0,6,,,,,,,,0,,,86,108
53760,note_on,,192,0,4,,,,,,,,13,,,62,0
53760,note_on,,0,0,14,,,,,,,,8,,,59,108
53760,note_on,,192,0,6,,,,,,,,0,,,86,0
53760,note_on,,0,0,5,,,,,,,,14,,,59,108
53760,note_on,,192,0,14,,,,,,,,8,,,59,0
53760,note_on,,192,0,7,,,,,,,,1,,,79,0
53760,note_on,,192,0,5,,,,,,,,14,,,59,0
53760,note_on,,0,0,4,,,,,,,,13,,,62,108
53760,note_on,,0,0,7,,,,,,,,1,,,79,108
53760,note_on,,192,0,13,,,,,,,,7,,,71,0
53760,note_on,,192,0,3,,,,,,,,12,,,67,0
53760,note_on,,0,0,13,,,,,,,,7,,,74,108
54144,note_on,,0,0,9,,,,,,,,3,,,55,92
54144,note_on,,384,0,3,,,,,,,,12,,,67,0
54144,note_on,,0,0,4,,,,,,,,13,,,59,108
54144,note_on,,384,0,9,,,,,,,,3,,,59,0
54144,note_on,,384,0,2,,,,,,,,11,,,74,0
54144,note_on,,0,0,2,,,,,,,,11,,,79,0
54144,note_on,,0,0,2,,,,,,,,11,,,71,108
54144,note_on,,0,0,2,,,,,,,,11,,,74,108
54144,note_on,,384,0,4,,,,,,,,13,,,62,0
54144,note_on,,0,0,3,,,,,,,,12,,,67,108
54144,note_on,,384,0,7,,,,,,,,1,,,79,0
54144,note_on,,0,0,12,,,,,,,,6,,,67,92
54144,note_on,,0,0,10,,,,,,,,4,,,43,75
54144,note_on,,384,0,14,,,,,,,,8,,,59,0
54144,note_on,,0,0,14,,,,,,,,8,,,55,108
54144,note_on,,0,0,1,,,,,,,,10,,,74,108
54144,note_on,,384,0,1,,,,,,,,10,,,79,0
54144,note_on,,0,0,6,,,,,,,,0,,,79,108
54144,note_on,,384,0,6,,,,,,,,0,,,86,0
54144,note_on,,0,0,5,,,,,,,,14,,,55,108
54144,note_on,,384,0,5,,,,,,,,14,,,59,0
54144,note_on,,384,0,13,,,,,,,,7,,,74,0
54144,note_on,,0,0,13,,,,,,,,7,,,79,0
54144,note_on,,384,0,10,,,,,,,,4,,,47,0
54144,note_on,,0,0,13,,,,,,,,7,,,74,108
54144,note_on,,0,0,13,,,,,,,,7,,,71,108
54144,note_on,,0,0,7,,,,,,,,1,,,74,108
54144,note_on,,0,0,11,,,,,,,,5,,,71,92
54144,note_on,,384,0,11,,,,,,,,5,,,74,0
54144,note_on,,384,0,8,,,,,,,,2,,,71,0
54144,note_on,,0,0,8,,,,,,,,2,,,59,92
54144,note_on,,384,0,12,,,,,,,,6,,,71,0
54528,note_on,,384,0,10,,,,,,,,4,,,43,0
54528,note_on,,0,0,10,,,,,,,,4,,,45,75
54528,note_on,,384,0,14,,,,,,,,8,,,55,0
54528,note_on,,0,0,13,,,,,,,,7,,,74,0
54528,note_on,,384,0,12,,,,,,,,6,,,67,0
54528,note_on,,0,0,12,,,,,,,,6,,,69,92
54528,note_on,,0,0,11,,,,,,,,5,,,72,92
54528,note_on,,384,0,11,,,,,,,,5,,,71,0
54528,note_on,,0,0,13,,,,,,,,7,,,72,108
54528,note_on,,384,0,13,,,,,,,,7,,,71,0
54528,note_on,,0,0,14,,,,,,,,8,,,57,108
54528,note_on,,384,0,9,,,,,,,,3,,,55,0
54528,note_on,,384,0,3,,,,,,,,12,,,67,0
54528,note_on,,0,0,7,,,,,,,,1,,,78,108
54528,note_on,,384,0,7,,,,,,,,1,,,74,0
54528,note_on,,0,0,3,,,,,,,,12,,,66,108
54528,note_on,,384,0,6,,,,,,,,0,,,79,0
54528,note_on,,0,0,9,,,,,,,,3,,,57,92
54528,note_on,,384,0,4,,,,,,,,13,,,59,0
54528,note_on,,0,0,6,,,,,,,,0,,,84,108
54528,note_on,,0,0,8,,,,,,,,2,,,60,92
54528,note_on,,384,0,8,,,,,,,,2,,,59,0
54528,note_on,,0,0,2,,,,,,,,11,,,66,108
54528,note_on,,0,0,2,,,,,,,,11,,,74,0
54528,note_on,,384,0,2,,,,,,,,11,,,71,0
54528,note_on,,0,0,4,,,,,,,,13,,,60,108
54528,note_on,,384,0,5,,,,,,,,14,,,55,0
54528,note_on,,0,0,5,,,,,,,,14,,,57,108
54528,note_on,,384,0,1,,,,,,,,10,,,74,0
54528,note_on,,0,0,1,,,,,,,,10,,,72,108
54528,note_on,,0,0,2,,,,,,,,11,,,72,108
54720,note_on,,192,0,2,,,,,,,,11,,,66,0
54720,note_on,,0,0,9,,,,,,,,3,,,59,92
54720,note_on,,192,0,9,,,,,,,,3,,,57,0
54720,note_on,,192,0,10,,,,,,,,4,,,45,0
54720,note_on,,192,0,11,,,,,,,,5,,,72,0
54720,note_on,,0,0,11,,,,,,,,5,,,71,92
54720,note_on,,0,0,1,,,,,,,,10,,,71,108
54720,note_on,,0,0,3,,,,,,,,12,,,67,108
54720,note_on,,192,0,3,,,,,,,,12,,,66,0
54720,note_on,,192,0,5,,,,,,,,14,,,57,0
54720,note_on,,192,0,12,,,,,,,,6,,,69,0
54720,note_on,,0,0,12,,,,,,,,6,,,67,92
54720,note_on,,0,0,4,,,,,,,,13,,,62,108
54720,note_on,,192,0,4,,,,,,,,13,,,60,0
54720,note_on,,192,0,1,,,,,,,,10,,,72,0
54720,note_on,,0,0,13,,,,,,,,7,,,71,108
54720,note_on,,0,0,5,,,,,,,,14,,,59,108
54720,note_on,,192,0,13,,,,,,,,7,,,72,0
54720,note_on,,0,0,2,,,,,,,,11,,,72,0
54720,note_on,,192,0,6,,,,,,,,0,,,84,0
54720,note_on,,0,0,10,,,,,,,,4,,,47,75
54720,note_on,,0,0,2,,,,,,,,11,,,67,108
54720,note_on,,0,0,7,,,,,,,,1,,,79,108
54720,note_on,,0,0,2,,,,,,,,11,,,71,108
54720,note_on,,192,0,14,,,,,,,,8,,,57,0
54720,note_on,,0,0,14,,,,,,,,8,,,59,108
54720,note_on,,192,0,7,,,,,,,,1,,,78,0
54720,note_on,,0,0,8,,,,,,,,2,,,62,92
54720,note_on,,192,0,8,,,,,,,,2,,,60,0
54720,note_on,,0,0,6,,,,,,,,0,,,83,108
54816,note_on,,0,0,11,,,,,,,,5,,,69,92
54816,note_on,,0,0,13,,,,,,,,7,,,69,108
54816,note_on,,0,0,5,,,,,,,,14,,,60,108
54816,note_on,,0,0,10,,,,,,,,4,,,48,75
54816,note_on,,96,0,11,,,,,,,,5,,,71,0
54816,note_on,,96,0,10,,,,,,,,4,,,47,0
54816,note_on,,96,0,14,,,,,,,,8,,,59,0
54816,note_on,,0,0,14,,,,,,,,8,,,60,108
54816,note_on,,0,0,9,,,,,,,,3,,,60,92
54816,note_on,,96,0,13,,,,,,,,7,,,71,0
54816,note_on,,96,0,5,,,,,,,,14,,,59,0
54816,note_on,,96,0,9,,,,,,,,3,,,59,0
54912,note_on,,0,0,11,,,,,,,,5,,,69,92
54912,note_on,,192,0,7,,,,,,,,1,,,79,0
54912,note_on,,96,0,11,,,,,,,,5,,,69,0
54912,note_on,,0,0,5,,,,,,,,14,,,62,108
54912,note_on,,96,0,5,,,,,,,,14,,,60,0
54912,note_on,,0,0,7,,,,,,,,1,,,79,108
54912,note_on,,0,0,2,,,,,,,,11,,,67,108
54912,note_on,,192,0,1,,,,,,,,10,,,71,0
54912,note_on,,96,0,10,,,,,,,,4,,,48,0
54912,note_on,,0,0,10,,,,,,,,4,,,50,75
54912,note_on,,192,0,8,,,,,,,,2,,,62,0
54912,note_on,,0,0,8,,,,,,,,2,,,62,92
54912,note_on,,96,0,14,,,,,,,,8,,,60,0
54912,note_on,,0,0,14,,,,,,,,8,,,62,108
54912,note_on,,192,0,2,,,,,,,,11,,,67,0
54912,note_on,,0,0,9,,,,,,,,3,,,62,92
54912,note_on,,96,0,9,,,,,,,,3,,,60,0
54912,note_on,,0,0,2,,,,,,,,11,,,71,0
54912,note_on,,192,0,6,,,,,,,,0,,,83,0
54912,note_on,,0,0,1,,,,,,,,10,,,69,108
54912,note_on,,0,0,2,,,,,,,,11,,,69,108
54912,note_on,,0,0,13,,,,,,,,7,,,69,108
54912,note_on,,96,0,13,,,,,,,,7,,,69,0
54912,note_on,,192,0,12,,,,,,,,6,,,67,0
54912,note_on,,0,0,12,,,,,,,,6,,,62,92
54912,note_on,,0,0,4,,,,,,,,13,,,62,108
54912,note_on,,192,0,4,,,,,,,,13,,,62,0
54912,note_on,,0,0,6,,,,,,,,0,,,81,108
55104,note_on,,384,0,3,,,,,,,,12,,,67,0
55104,note_on,,0,0,2,,,,,,,,11,,,66,108
55104,note_on,,0,0,3,,,,,,,,12,,,66,108
55104,note_on,,192,0,4,,,,,,,,13,,,62,0
55104,note_on,,0,0,5,,,,,,,,14,,,50,108
55104,note_on,,0,0,14,,,,,,,,8,,,50,108
55104,note_on,,192,0,14,,,,,,,,8,,,62,0
55104,note_on,,192,0,5,,,,,,,,14,,,62,0
55104,note_on,,192,0,2,,,,,,,,11,,,67,0
55104,note_on,,0,0,4,,,,,,,,13,,,60,108
55104,note_on,,0,0,7,,,,,,,,1,,,78,108
55104,note_on,,192,0,10,,,,,,,,4,,,50,0
55104,note_on,,0,0,10,,,,,,,,4,,,38,75
55104,note_on,,192,0,8,,,,,,,,2,,,62,0
55104,note_on,,0,0,8,,,,,,,,2,,,60,92
55104,note_on,,192,0,7,,,,,,,,1,,,79,0
55104,note_on,,0,0,9,,,,,,,,3,,,50,92
55104,note_on,,192,0,9,,,,,,,,3,,,62,0
55104,note_on,,192,0,12,,,,,,,,6,,,62,0
55104,note_on,,0,0,12,,,,,,,,6,,,62,92
55200,note_on,,288,0,13,,,,,,,,7,,,69,0
55200,note_on,,96,0,12,,,,,,,,6,,,62,0
55200,note_on,,0,0,12,,,,,,,,6,,,62,92
55200,note_on,,288,0,11,,,,,,,,5,,,69,0
55200,note_on,,0,0,13,,,,,,,,7,,,67,108
55200,note_on,,0,0,11,,,,,,,,5,,,67,92
55248,note_on,,144,0,7,,,,,,,,1,,,78,0
55248,note_on,,0,0,7,,,,,,,,1,,,72,108
55296,note_on,,96,0,12,,,,,,,,6,,,62,0
55296,note_on,,0,0,3,,,,,,,,12,,,67,108
55296,note_on,,0,0,7,,,,,,,,1,,,71,108
55296,note_on,,0,0,11,,,,,,,,5,,,67,92
55296,note_on,,0,0,14,,,,,,,,8,,,55,108
55296,note_on,,192,0,14,,,,,,,,8,,,50,0
55296,note_on,,0,0,8,,,,,,,,2,,,62,92
55296,note_on,,192,0,8,,,,,,,,2,,,60,0
55296,note_on,,0,0,5,,,,,,,,14,,,55,108
55296,note_on,,192,0,9,,,,,,,,3,,,50,0
55296,note_on,,0,0,9,,,,,,,,3,,,55,92
55296,note_on,,0,0,10,,,,,,,,4,,,43,75
55296,note_on,,192,0,10,,,,,,,,4,,,38,0
55296,note_on,,192,0,5,,,,,,,,14,,,50,0
55296,note_on,,0,0,13,,,,,,,,7,,,67,108
55296,note_on,,96,0,13,,,,,,,,7,,,67,0
55296,note_on,,48,0,7,,,,,,,,1,,,72,0
55296,note_on,,0,0,4,,,,,,,,13,,,59,108
55296,note_on,,0,0,2,,,,,,,,11,,,67,108
55296,note_on,,0,0,2,,,,,,,,11,,,66,0
55296,note_on,,192,0,2,,,,,,,,11,,,69,0
55296,note_on,,0,0,1,,,,,,,,10,,,67,108
55296,note_on,,0,0,12,,,,,,,,6,,,59,92
55296,note_on,,192,0,3,,,,,,,,12,,,66,0
55296,note_on,,384,0,1,,,,,,,,10,,,69,0
55296,note_on,,192,0,4,,,,,,,,13,,,60,0
55296,note_on,,384,0,6,,,,,,,,0,,,81,0
55296,note_on,,96,0,11,,,,,,,,5,,,67,0
55296,note_on,,0,0,6,,,,,,,,0,,,79,108
56016,note_on,,720,0,4,,,,,,,,13,,,59,0
56016,note_on,,720,0,5,,,,,,,,14,,,55,0
56016,note_on,,720,0,8,,,,,,,,2,,,62,0
56016,note_on,,720,0,7,,,,,,,,1,,,71,0
56016,note_on,,720,0,12,,,,,,,,6,,,59,0
56016,note_on,,720,0,9,,,,,,,,3,,,55,0
56016,note_on,,720,0,10,,,,,,,,4,,,43,0
56016,note_on,,720,0,13,,,,,,,,7,,,67,0
56016,note_on,,720,0,2,,,,,,,,11,,,67,0
56016,note_on,,720,0,1,,,,,,,,10,,,67,0
56016,note_on,,720,0,6,,,,,,,,0,,,79,0
56016,note_on,,720,0,11,,,,,,,,5,,,67,0
56016,note_on,,720,0,14,,,,,,,,8,,,55,0
56064,note_on,,48,0,7,,,,,,,,1,,,83,108
56064,note_on,,48,0,5,,,,,,,,14,,,55,108
56064,note_on,,48,0,4,,,,,,,,13,,,59,108
56064,note_on,,48,0,10,,,,,,,,4,,,43,75
56064,note_on,,48,0,9,,,,,,,,3,,,55,92
56064,note_on,,48,0,8,,,,,,,,2,,,67,92
56064,note_on,,0,0,13,,,,,,,,7,,,74,108
56064,note_on,,48,0,13,,,,,,,,7,,,71,108
56064,note_on,,48,0,1,,,,,,,,10,,,74,108
56064,set_tempo,500000,6144,1,0,,,,,,,,,,,,
56064,note_on,,48,0,14,,,,,,,,8,,,55,108
56064,note_on,,48,0,11,,,,,,,,5,,,74,92
56064,note_on,,48,0,12,,,,,,,,6,,,71,92
56064,note_on,,48,0,6,,,,,,,,0,,,86,108
56064,note_on,,768,0,3,,,,,,,,12,,,67,0
56064,note_on,,0,0,3,,,,,,,,12,,,67,108
56064,note_on,,0,0,2,,,,,,,,11,,,74,108
56064,note_on,,48,0,2,,,,,,,,11,,,71,108
56400,note_on,,336,0,6,,,,,,,,0,,,86,0
56448,note_on,,0,0,2,,,,,,,,11,,,71,108
56448,note_on,,0,0,2,,,,,,,,11,,,67,108
56448,note_on,,384,0,2,,,,,,,,11,,,71,0
56448,note_on,,384,0,9,,,,,,,,3,,,55,0
56448,note_on,,0,0,9,,,,,,,,3,,,59,92
56448,note_on,,0,0,11,,,,,,,,5,,,71,92
56448,note_on,,384,0,11,,,,,,,,5,,,74,0
56448,note_on,,0,0,2,,,,,,,,11,,,74,0
56448,note_on,,0,0,5,,,,,,,,14,,,59,108
56448,note_on,,384,0,14,,,,,,,,8,,,55,0
56448,note_on,,0,0,12,,,,,,,,6,,,67,92
56448,note_on,,384,0,12,,,,,,,,6,,,71,0
56448,note_on,,48,0,6,,,,,,,,0,,,83,108
56448,note_on,,384,0,3,,,,,,,,12,,,67,0
56448,note_on,,0,0,3,,,,,,,,12,,,67,108
56448,note_on,,0,0,1,,,,,,,,10,,,71,108
56448,note_on,,384,0,1,,,,,,,,10,,,74,0
56448,note_on,,384,0,13,,,,,,,,7,,,71,0
56448,note_on,,384,0,4,,,,,,,,13,,,59,0
56448,note_on,,0,0,13,,,,,,,,7,,,74,0
56448,note_on,,0,0,13,,,,,,,,7,,,67,108
56448,note_on,,0,0,14,,,,,,,,8,,,59,108
56448,note_on,,0,0,4,,,,,,,,13,,,62,108
56448,note_on,,0,0,13,,,,,,,,7,,,71,108
56448,note_on,,384,0,5,,,,,,,,14,,,55,0
56448,note_on,,384,0,7,,,,,,,,1,,,83,0
56448,note_on,,0,0,7,,,,,,,,1,,,79,108
56448,note_on,,0,0,8,,,,,,,,2,,,62,92
56448,note_on,,384,0,8,,,,,,,,2,,,67,0
56448,note_on,,384,0,10,,,,,,,,4,,,43,0
56448,note_on,,0,0,10,,,,,,,,4,,,47,75
56704,note_on,,256,0,6,,,,,,,,0,,,83,0
56736,note_on,,0,0,13,,,,,,,,7,,,71,0
56736,note_on,,288,0,12,,,,,,,,6,,,67,0
56736,note_on,,0,0,9,,,,,,,,3,,,57,92
56736,note_on,,288,0,9,,,,,,,,3,,,59,0
56736,note_on,,288,0,1,,,,,,,,10,,,71,0
56736,note_on,,0,0,1,,,,,,,,10,,,72,108
56736,note_on,,288,0,13,,,,,,,,7,,,67,0
56736,note_on,,0,0,10,,,,,,,,4,,,45,75
56736,note_on,,0,0,13,,,,,,,,7,,,72,108
56736,note_on,,0,0,13,,,,,,,,7,,,69,108
56736,note_on,,0,0,12,,,,,,,,6,,,69,92
56736,note_on,,288,0,10,,,,,,,,4,,,47,0
56736,note_on,,288,0,5,,,,,,,,14,,,59,0
56736,note_on,,0,0,2,,,,,,,,11,,,69,108
56736,note_on,,0,0,4,,,,,,,,13,,,60,108
56736,note_on,,288,0,11,,,,,,,,5,,,71,0
56736,note_on,,0,0,2,,,,,,,,11,,,72,108
56736,note_on,,288,0,4,,,,,,,,13,,,62,0
56736,note_on,,0,0,11,,,,,,,,5,,,72,92
56736,note_on,,288,0,14,,,,,,,,8,,,59,0
56736,note_on,,0,0,14,,,,,,,,8,,,57,108
56736,note_on,,288,0,7,,,,,,,,1,,,79,0
56736,note_on,,0,0,7,,,,,,,,1,,,81,108
56736,note_on,,0,0,3,,,,,,,,12,,,66,108
56736,note_on,,288,0,3,,,,,,,,12,,,67,0
56736,note_on,,32,0,6,,,,,,,,0,,,84,108
56736,note_on,,288,0,2,,,,,,,,11,,,67,0
56736,note_on,,0,0,2,,,,,,,,11,,,71,0
56736,note_on,,0,0,5,,,,,,,,14,,,57,108
56830,note_on,,94,0,6,,,,,,,,0,,,84,0
56832,note_on,,0,0,5,,,,,,,,14,,,55,108
56832,note_on,,96,0,11,,,,,,,,5,,,72,0
56832,note_on,,0,0,13,,,,,,,,7,,,71,108
56832,note_on,,0,0,13,,,,,,,,7,,,74,108
56832,note_on,,96,0,5,,,,,,,,14,,,57,0
56832,note_on,,0,0,11,,,,,,,,5,,,74,92
56832,note_on,,0,0,12,,,,,,,,6,,,71,92
56832,note_on,,0,0,8,,,,,,,,2,,,67,92
56832,note_on,,0,0,4,,,,,,,,13,,,59,108
56832,note_on,,96,0,4,,,,,,,,13,,,60,0
56832,note_on,,0,0,2,,,,,,,,11,,,71,108
56832,note_on,,0,0,2,,,,,,,,11,,,74,108
56832,note_on,,0,0,13,,,,,,,,7,,,72,0
56832,note_on,,96,0,9,,,,,,,,3,,,57,0
56832,note_on,,0,0,3,,,,,,,,12,,,67,108
56832,note_on,,96,0,3,,,,,,,,12,,,66,0
56832,note_on,,96,0,12,,,,,,,,6,,,69,0
56832,note_on,,384,0,8,,,,,,,,2,,,62,0
56832,note_on,,0,0,9,,,,,,,,3,,,55,92
56832,note_on,,96,0,13,,,,,,,,7,,,69,0
56832,note_on,,0,0,14,,,,,,,,8,,,55,108
56832,note_on,,2,0,6,,,,,,,,0,,,86,108
56832,note_on,,0,0,1,,,,,,,,10,,,74,108
56832,note_on,,96,0,2,,,,,,,,11,,,69,0
56832,note_on,,96,0,1,,,,,,,,10,,,72,0
56832,note_on,,96,0,7,,,,,,,,1,,,81,0
56832,note_on,,0,0,10,,,,,,,,4,,,43,75
56832,note_on,,96,0,14,,,,,,,,8,,,57,0
56832,note_on,,96,0,10,,,,,,,,4,,,45,0
56832,note_on,,0,0,7,,,,,,,,1,,,83,108
56832,note_on,,0,0,2,,,,,,,,11,,,72,0
57168,note_on,,336,0,6,,,,,,,,0,,,86,0
57216,note_on,,0,0,3,,,,,,,,12,,,62,108
57216,note_on,,0,0,2,,,,,,,,11,,,79,108
57216,note_on,,384,0,3,,,,,,,,12,,,67,0
57216,note_on,,384,0,5,,,,,,,,14,,,55,0
57216,note_on,,48,0,6,,,,,,,,0,,,79,108
57216,note_on,,384,0,8,,,,,,,,2,,,67,0
57216,note_on,,384,0,12,,,,,,,,6,,,71,0
57216,note_on,,0,0,12,,,,,,,,6,,,59,92
57216,note_on,,0,0,2,,,,,,,,11,,,74,108
57216,note_on,,384,0,11,,,,,,,,5,,,74,0
57216,note_on,,0,0,11,,,,,,,,5,,,67,92
57216,note_on,,0,0,1,,,,,,,,10,,,67,108
57216,note_on,,384,0,1,,,,,,,,10,,,74,0
57216,note_on,,384,0,7,,,,,,,,1,,,83,0
57216,note_on,,0,0,7,,,,,,,,1,,,74,108
57216,note_on,,0,0,8,,,,,,,,2,,,67,92
57216,note_on,,0,0,2,,,,,,,,11,,,74,0
57216,note_on,,0,0,5,,,,,,,,14,,,59,108
57216,note_on,,0,0,10,,,,,,,,4,,,47,75
57216,note_on,,384,0,2,,,,,,,,11,,,71,0
57216,note_on,,0,0,13,,,,,,,,7,,,67,108
57216,note_on,,0,0,4,,,,,,,,13,,,62,108
57216,note_on,,384,0,13,,,,,,,,7,,,71,0
57216,note_on,,384,0,9,,,,,,,,3,,,55,0
57216,note_on,,0,0,9,,,,,,,,3,,,59,92
57216,note_on,,0,0,13,,,,,,,,7,,,74,0
57216,note_on,,0,0,14,,,,,,,,8,,,59,108
57216,note_on,,384,0,14,,,,,,,,8,,,55,0
57216,note_on,,384,0,10,,,,,,,,4,,,43,0
57216,note_on,,384,0,4,,,,,,,,13,,,59,0
57552,note_on,,336,0,6,,,,,,,,0,,,79,0
57600,note_on,,0,0,9,,,,,,,,3,,,57,92
57600,note_on,,384,0,7,,,,,,,,1,,,74,0
57600,note_on,,0,0,7,,,,,,,,1,,,78,108
57600,note_on,,384,0,1,,,,,,,,10,,,67,0
57600,note_on,,0,0,1,,,,,,,,10,,,69,108
57600,note_on,,0,0,11,,,,,,,,5,,,69,92
57600,note_on,,384,0,11,,,,,,,,5,,,67,0
57600,note_on,,384,0,13,,,,,,,,7,,,67,0
57600,note_on,,0,0,13,,,,,,,,7,,,66,108
57600,note_on,,48,0,6,,,,,,,,0,,,81,108
57600,note_on,,384,0,9,,,,,,,,3,,,59,0
57600,note_on,,0,0,13,,,,,,,,7,,,69,108
57600,note_on,,384,0,4,,,,,,,,13,,,62,0
57600,note_on,,384,0,3,,,,,,,,12,,,62,0
57600,note_on,,384,0,2,,,,,,,,11,,,74,0
57600,note_on,,0,0,2,,,,,,,,11,,,79,0
57600,note_on,,0,0,2,,,,,,,,11,,,66,108
57600,note_on,,0,0,2,,,,,,,,11,,,69,108
57600,note_on,,0,0,3,,,,,,,,12,,,66,108
57600,note_on,,384,0,10,,,,,,,,4,,,47,0
57600,note_on,,384,0,12,,,,,,,,6,,,59,0
57600,note_on,,0,0,14,,,,,,,,8,,,57,108
57600,note_on,,0,0,10,,,,,,,,4,,,45,75
57600,note_on,,0,0,5,,,,,,,,14,,,57,108
57600,note_on,,384,0,5,,,,,,,,14,,,59,0
57600,note_on,,0,0,4,,,,,,,,13,,,60,108
57600,note_on,,384,0,8,,,,,,,,2,,,67,0
57600,note_on,,0,0,8,,,,,,,,2,,,60,92
57600,note_on,,0,0,12,,,,,,,,6,,,62,92
57600,note_on,,384,0,14,,,,,,,,8,,,59,0
57694,note_on,,94,0,6,,,,,,,,0,,,81,0
57696,note_on,,96,0,1,,,,,,,,10,,,69,0
57696,note_on,,2,0,6,,,,,,,,0,,,83,108
57696,note_on,,96,0,3,,,,,,,,12,,,66,0
57696,note_on,,0,0,2,,,,,,,,11,,,71,108
57696,note_on,,0,0,1,,,,,,,,10,,,71,108
57696,note_on,,96,0,7,,,,,,,,1,,,78,0
57696,note_on,,0,0,3,,,,,,,,12,,,67,108
57696,note_on,,0,0,2,,,,,,,,11,,,67,108
57696,note_on,,96,0,13,,,,,,,,7,,,66,0
57696,note_on,,0,0,13,,,,,,,,7,,,71,108
57696,note_on,,0,0,2,,,,,,,,11,,,69,0
57696,note_on,,96,0,2,,,,,,,,11,,,66,0
57696,note_on,,0,0,7,,,,,,,,1,,,79,108
57696,note_on,,0,0,13,,,,,,,,7,,,67,108
57696,note_on,,0,0,11,,,,,,,,5,,,71,92
57696,note_on,,96,0,11,,,,,,,,5,,,69,0
57696,note_on,,0,0,13,,,,,,,,7,,,69,0
57790,note_on,,94,0,6,,,,,,,,0,,,83,0
57792,note_on,,0,0,1,,,,,,,,10,,,72,108
57792,note_on,,0,0,2,,,,,,,,11,,,72,108
57792,note_on,,0,0,2,,,,,,,,11,,,69,108
57792,note_on,,0,0,2,,,,,,,,11,,,71,0
57792,note_on,,96,0,2,,,,,,,,11,,,67,0
57792,note_on,,192,0,8,,,,,,,,2,,,60,0
57792,note_on,,0,0,12,,,,,,,,6,,,69,92
57792,note_on,,192,0,12,,,,,,,,6,,,62,0
57792,note_on,,0,0,8,,,,,,,,2,,,66,92
57792,note_on,,0,0,13,,,,,,,,7,,,72,108
57792,note_on,,96,0,7,,,,,,,,1,,,79,0
57792,note_on,,0,0,7,,,,,,,,1,,,81,108
57792,note_on,,0,0,4,,,,,,,,13,,,57,108
57792,note_on,,2,0,6,,,,,,,,0,,,84,108
57792,note_on,,0,0,3,,,,,,,,12,,,69,108
57792,note_on,,96,0,3,,,,,,,,12,,,67,0
57792,note_on,,96,0,13,,,,,,,,7,,,67,0
57792,note_on,,0,0,13,,,,,,,,7,,,71,0
57792,note_on,,96,0,1,,,,,,,,10,,,71,0
57792,note_on,,0,0,13,,,,,,,,7,,,69,108
57792,note_on,,0,0,11,,,,,,,,5,,,72,92
57792,note_on,,96,0,11,,,,,,,,5,,,71,0
57792,note_on,,192,0,4,,,,,,,,13,,,60,0
57886,note_on,,94,0,6,,,,,,,,0,,,84,0
57888,note_on,,0,0,3,,,,,,,,12,,,71,108
57888,note_on,,288,0,5,,,,,,,,14,,,57,0
57888,note_on,,288,0,10,,,,,,,,4,,,45,0
57888,note_on,,0,0,10,,,,,,,,4,,,43,75
57888,note_on,,96,0,3,,,,,,,,12,,,69,0
57888,note_on,,0,0,5,,,,,,,,14,,,55,108
57888,note_on,,0,0,2,,,,,,,,11,,,71,108
57888,note_on,,0,0,9,,,,,,,,3,,,55,92
57888,note_on,,96,0,1,,,,,,,,10,,,72,0
57888,note_on,,0,0,1,,,,,,,,10,,,74,108
57888,note_on,,0,0,13,,,,,,,,7,,,74,108
57888,note_on,,0,0,13,,,,,,,,7,,,71,108
57888,note_on,,0,0,13,,,,,,,,7,,,72,0
57888,note_on,,2,0,6,,,,,,,,0,,,86,108
57888,note_on,,96,0,13,,,,,,,,7,,,69,0
57888,note_on,,0,0,2,,,,,,,,11,,,74,108
57888,note_on,,288,0,14,,,,,,,,8,,,57,0
57888,note_on,,0,0,11,,,,,,,,5,,,74,92
57888,note_on,,96,0,11,,,,,,,,5,,,72,0
57888,note_on,,96,0,7,,,,,,,,1,,,81,0
57888,note_on,,0,0,7,,,,,,,,1,,,83,108
57888,note_on,,0,0,14,,,,,,,,8,,,55,108
57888,note_on,,96,0,2,,,,,,,,11,,,69,0
57888,note_on,,0,0,2,,,,,,,,11,,,72,0
57888,note_on,,288,0,9,,,,,,,,3,,,57,0
57982,note_on,,94,0,6,,,,,,,,0,,,86,0
57984,note_on,,0,0,13,,,,,,,,7,,,72,108
57984,note_on,,0,0,14,,,,,,,,8,,,54,108
57984,note_on,,0,0,3,,,,,,,,12,,,69,108
57984,note_on,,96,0,3,,,,,,,,12,,,71,0
57984,note_on,,96,0,10,,,,,,,,4,,,43,0
57984,note_on,,0,0,10,,,,,,,,4,,,42,75
57984,note_on,,0,0,12,,,,,,,,6,,,69,92
57984,note_on,,192,0,12,,,,,,,,6,,,69,0
57984,note_on,,192,0,8,,,,,,,,2,,,66,0
57984,note_on,,0,0,8,,,,,,,,2,,,66,92
57984,note_on,,96,0,13,,,,,,,,7,,,71,0
57984,note_on,,0,0,13,,,,,,,,7,,,74,0
57984,note_on,,0,0,13,,,,,,,,7,,,69,108
57984,note_on,,96,0,14,,,,,,,,8,,,55,0
57984,note_on,,2,0,6,,,,,,,,0,,,84,108
57984,note_on,,0,0,9,,,,,,,,3,,,54,92
57984,note_on,,0,0,1,,,,,,,,10,,,72,108
57984,note_on,,0,0,2,,,,,,,,11,,,72,108
57984,note_on,,0,0,2,,,,,,,,11,,,69,108
57984,note_on,,0,0,2,,,,,,,,11,,,74,0
57984,note_on,,0,0,7,,,,,,,,1,,,81,108
57984,note_on,,96,0,7,,,,,,,,1,,,83,0
57984,note_on,,96,0,11,,,,,,,,5,,,74,0
57984,note_on,,0,0,11,,,,,,,,5,,,72,92
57984,note_on,,96,0,2,,,,,,,,11,,,71,0
57984,note_on,,0,0,4,,,,,,,,13,,,62,108
57984,note_on,,0,0,5,,,,,,,,14,,,54,108
57984,note_on,,96,0,5,,,,,,,,14,,,55,0
57984,note_on,,192,0,4,,,,,,,,13,,,57,0
57984,note_on,,96,0,9,,,,,,,,3,,,55,0
57984,note_on,,96,0,1,,,,,,,,10,,,74,0
58144,note_on,,160,0,6,,,,,,,,0,,,84,0
58176,note_on,,0,0,1,,,,,,,,10,,,71,108
58176,note_on,,192,0,2,,,,,,,,11,,,69,0
58176,note_on,,0,0,13,,,,,,,,7,,,71,108
58176,note_on,,0,0,13,,,,,,,,7,,,67,108
58176,note_on,,0,0,13,,,,,,,,7,,,72,0
58176,note_on,,192,0,13,,,,,,,,7,,,69,0
58176,note_on,,192,0,8,,,,,,,,2,,,66,0
58176,note_on,,0,0,8,,,,,,,,2,,,62,92
58176,note_on,,0,0,12,,,,,,,,6,,,67,92
58176,note_on,,192,0,12,,,,,,,,6,,,69,0
58176,note_on,,0,0,11,,,,,,,,5,,,71,92
58176,note_on,,192,0,11,,,,,,,,5,,,72,0
58176,note_on,,0,0,7,,,,,,,,1,,,79,108
58176,note_on,,192,0,4,,,,,,,,13,,,62,0
58176,note_on,,0,0,4,,,,,,,,13,,,62,108
58176,note_on,,192,0,1,,,,,,,,10,,,72,0
58176,note_on,,32,0,6,,,,,,,,0,,,83,108
58176,note_on,,0,0,10,,,,,,,,4,,,43,75
58176,note_on,,192,0,7,,,,,,,,1,,,81,0
58176,note_on,,0,0,5,,,,,,,,14,,,55,108
58176,note_on,,192,0,3,,,,,,,,12,,,69,0
58176,note_on,,0,0,14,,,,,,,,8,,,55,108
58176,note_on,,0,0,3,,,,,,,,12,,,67,108
58176,note_on,,192,0,14,,,,,,,,8,,,54,0
58176,note_on,,192,0,9,,,,,,,,3,,,54,0
58176,note_on,,0,0,9,,,,,,,,3,,,55,92
58176,note_on,,192,0,10,,,,,,,,4,,,42,0
58176,note_on,,192,0,5,,,,,,,,14,,,54,0
58176,note_on,,0,0,2,,,,,,,,11,,,72,0
58176,note_on,,0,0,2,,,,,,,,11,,,67,108
58176,note_on,,0,0,2,,,,,,,,11,,,71,108
58336,note_on,,160,0,6,,,,,,,,0,,,83,0
58368,note_on,,192,0,4,,,,,,,,13,,,62,0
58368,note_on,,0,0,4,,,,,,,,13,,,62,108
58368,note_on,,192,0,9,,,,,,,,3,,,55,0
58368,note_on,,0,0,8,,,,,,,,2,,,62,92
58368,note_on,,192,0,3,,,,,,,,12,,,67,0
58368,note_on,,0,0,3,,,,,,,,12,,,66,108
58368,note_on,,192,0,1,,,,,,,,10,,,71,0
58368,note_on,,0,0,1,,,,,,,,10,,,69,108
58368,note_on,,192,0,14,,,,,,,,8,,,55,0
58368,note_on,,192,0,11,,,,,,,,5,,,71,0
58368,note_on,,0,0,9,,,,,,,,3,,,50,92
58368,note_on,,32,0,6,,,,,,,,0,,,81,108
58368,note_on,,192,0,5,,,,,,,,14,,,55,0
58368,note_on,,0,0,2,,,,,,,,11,,,69,108
58368,note_on,,192,0,10,,,,,,,,4,,,43,0
58368,note_on,,0,0,10,,,,,,,,4,,,38,75
58368,note_on,,0,0,13,,,,,,,,7,,,69,108
58368,note_on,,0,0,7,,,,,,,,1,,,78,108
58368,note_on,,192,0,7,,,,,,,,1,,,79,0
58368,note_on,,0,0,13,,,,,,,,7,,,66,108
58368,note_on,,0,0,13,,,,,,,,7,,,71,0
58368,note_on,,0,0,5,,,,,,,,14,,,50,108
58368,note_on,,0,0,11,,,,,,,,5,,,69,92
58368,note_on,,0,0,14,,,,,,,,8,,,50,108
58368,note_on,,192,0,2,,,,,,,,11,,,67,0
58368,note_on,,0,0,2,,,,,,,,11,,,71,0
58368,note_on,,0,0,2,,,,,,,,11,,,66,108
58368,note_on,,192,0,8,,,,,,,,2,,,62,0
58368,note_on,,0,0,12,,,,,,,,6,,,62,92
58368,note_on,,192,0,12,,,,,,,,6,,,67,0
58368,note_on,,192,0,13,,,,,,,,7,,,67,0
59088,note_on,,720,0,6,,,,,,,,0,,,81,0
59136,note_on,,768,0,9,,,,,,,,3,,,50,0
59136,note_on,,768,0,13,,,,,,,,7,,,66,0
59136,note_on,,0,0,11,,,,,,,,5,,,71,92
59136,note_on,,768,0,7,,,,,,,,1,,,78,0
59136,note_on,,0,0,9,,,,,,,,3,,,59,92
59136,note_on,,48,0,6,,,,,,,,0,,,86,108
59136,note_on,,0,0,8,,,,,,,,2,,,62,92
59136,note_on,,768,0,8,,,,,,,,2,,,62,0
59136,note_on,,0,0,13,,,,,,,,7,,,69,0
59136,note_on,,768,0,5,,,,,,,,14,,,50,0
59136,note_on,,0,0,5,,,,,,,,14,,,59,108
59136,note_on,,0,0,7,,,,,,,,1,,,79,108
59136,note_on,,0,0,10,,,,,,,,4,,,47,75
59136,note_on,,768,0,10,,,,,,,,4,,,38,0
59136,note_on,,768,0,11,,,,,,,,5,,,69,0
59136,note_on,,0,0,13,,,,,,,,7,,,71,108
59136,note_on,,768,0,3,,,,,,,,12,,,66,0
59136,note_on,,0,0,1,,,,,,,,10,,,74,108
59136,note_on,,0,0,4,,,,,,,,13,,,62,108
59136,note_on,,0,0,12,,,,,,,,6,,,59,92
59136,note_on,,768,0,1,,,,,,,,10,,,69,0
59136,note_on,,768,0,4,,,,,,,,13,,,62,0
59136,note_on,,0,0,14,,,,,,,,8,,,59,108
59136,note_on,,768,0,14,,,,,,,,8,,,50,0
59136,note_on,,768,0,2,,,,,,,,11,,,66,0
59136,note_on,,0,0,2,,,,,,,,11,,,69,0
59136,note_on,,0,0,2,,,,,,,,11,,,67,108
59136,note_on,,0,0,2,,,,,,,,11,,,74,108
59136,note_on,,768,0,12,,,,,,,,6,,,62,0
59136,note_on,,0,0,3,,,,,,,,12,,,67,108
59230,note_on,,94,0,6,,,,,,,,0,,,86,0
59232,note_on,,2,0,6,,,,,,,,0,,,84,108
59232,note_on,,0,0,13,,,,,,,,7,,,72,108
59232,note_on,,96,0,13,,,,,,,,7,,,71,0
59232,note_on,,0,0,10,,,,,,,,4,,,45,75
59232,note_on,,96,0,10,,,,,,,,4,,,47,0
59232,note_on,,0,0,14,,,,,,,,8,,,57,108
59232,note_on,,96,0,2,,,,,,,,11,,,74,0
59232,note_on,,0,0,5,,,,,,,,14,,,57,108
59232,note_on,,0,0,13,,,,,,,,7,,,69,108
59232,note_on,,96,0,14,,,,,,,,8,,,59,0
59232,note_on,,0,0,2,,,,,,,,11,,,72,108
59232,note_on,,96,0,1,,,,,,,,10,,,74,0
59232,note_on,,0,0,9,,,,,,,,3,,,57,92
59232,note_on,,96,0,5,,,,,,,,14,,,59,0
59232,note_on,,0,0,1,,,,,,,,10,,,72,108
59232,note_on,,96,0,9,,,,,,,,3,,,59,0
59326,note_on,,94,0,6,,,,,,,,0,,,84,0
59328,note_on,,96,0,9,,,,,,,,3,,,57,0
59328,note_on,,0,0,2,,,,,,,,11,,,74,108
59328,note_on,,0,0,12,,,,,,,,6,,,59,92
59328,note_on,,0,0,5,,,,,,,,14,,,59,108
59328,note_on,,0,0,14,,,,,,,,8,,,59,108
59328,note_on,,96,0,14,,,,,,,,8,,,57,0
59328,note_on,,96,0,2,,,,,,,,11,,,72,0
59328,note_on,,96,0,5,,,,,,,,14,,,57,0
59328,note_on,,0,0,9,,,,,,,,3,,,59,92
59328,note_on,,192,0,12,,,,,,,,6,,,59,0
59328,note_on,,96,0,10,,,,,,,,4,,,45,0
59328,note_on,,96,0,13,,,,,,,,7,,,69,0
59328,note_on,,0,0,13,,,,,,,,7,,,72,0
59328,note_on,,0,0,13,,,,,,,,7,,,74,108
59328,note_on,,0,0,11,,,,,,,,5,,,67,92
59328,note_on,,192,0,11,,,,,,,,5,,,71,0
59328,note_on,,0,0,1,,,,,,,,10,,,74,108
59328,note_on,,96,0,1,,,,,,,,10,,,72,0
59328,note_on,,192,0,4,,,,,,,,13,,,62,0
59328,note_on,,0,0,4,,,,,,,,13,,,62,108
59328,note_on,,2,0,6,,,,,,,,0,,,86,108
59328,note_on,,0,0,13,,,,,,,,7,,,71,108
59328,note_on,,0,0,10,,,,,,,,4,,,47,75
59422,note_on,,94,0,6,,,,,,,,0,,,86,0
59424,note_on,,96,0,1,,,,,,,,10,,,74,0
59424,note_on,,0,0,13,,,,,,,,7,,,74,0
59424,note_on,,0,0,13,,,,,,,,7,,,72,108
59424,note_on,,0,0,13,,,,,,,,7,,,76,108
59424,note_on,,96,0,11,,,,,,,,5,,,67,0
59424,note_on,,96,0,9,,,,,,,,3,,,59,0
59424,note_on,,0,0,9,,,,,,,,3,,,60,92
59424,note_on,,96,0,12,,,,,,,,6,,,59,0
59424,note_on,,96,0,5,,,,,,,,14,,,59,0
59424,note_on,,0,0,11,,,,,,,,5,,,67,92
59424,note_on,,0,0,1,,,,,,,,10,,,76,108
59424,note_on,,0,0,12,,,,,,,,6,,,59,92
59424,note_on,,96,0,2,,,,,,,,11,,,74,0
59424,note_on,,0,0,5,,,,,,,,14,,,60,108
59424,note_on,,0,0,2,,,,,,,,11,,,76,108
59424,note_on,,96,0,10,,,,,,,,4,,,47,0
59424,note_on,,0,0,10,,,,,,,,4,,,48,75
59424,note_on,,2,0,6,,,,,,,,0,,,88,108
59424,note_on,,96,0,14,,,,,,,,8,,,59,0
59424,note_on,,0,0,14,,,,,,,,8,,,60,108
59424,note_on,,96,0,13,,,,,,,,7,,,71,0
59518,note_on,,94,0,6,,,,,,,,0,,,88,0
59520,note_on,,2,0,6,,,,,,,,0,,,86,108
59520,note_on,,0,0,12,,,,,,,,6,,,62,92
59520,note_on,,0,0,5,,,,,,,,14,,,59,108
59520,note_on,,96,0,5,,,,,,,,14,,,60,0
59520,note_on,,192,0,4,,,,,,,,13,,,62,0
59520,note_on,,96,0,12,,,,,,,,6,,,59,0
59520,note_on,,0,0,4,,,,,,,,13,,,62,108
59520,note_on,,0,0,13,,,,,,,,7,,,74,108
59520,note_on,,96,0,13,,,,,,,,7,,,72,0
59520,note_on,,0,0,13,,,,,,,,7,,,71,108
59520,note_on,,0,0,13,,,,,,,,7,,,76,0
59520,note_on,,96,0,9,,,,,,,,3,,,60,0
59520,note_on,,0,0,9,,,,,,,,3,,,59,92
59520,note_on,,0,0,2,,,,,,,,11,,,74,108
59520,note_on,,96,0,2,,,,,,,,11,,,76,0
59520,note_on,,96,0,11,,,,,,,,5,,,67,0
59520,note_on,,96,0,1,,,,,,,,10,,,76,0
59520,note_on,,0,0,1,,,,,,,,10,,,74,108
59520,note_on,,0,0,14,,,,,,,,8,,,59,108
59520,note_on,,0,0,11,,,,,,,,5,,,71,92
59520,note_on,,0,0,10,,,,,,,,4,,,47,75
59520,note_on,,96,0,10,,,,,,,,4,,,48,0
59520,note_on,,96,0,14,,,,,,,,8,,,60,0
59680,note_on,,160,0,6,,,,,,,,0,,,86,0
59712,note_on,,0,0,12,,,,,,,,6,,,67,92
59712,note_on,,192,0,12,,,,,,,,6,,,62,0
59712,note_on,,192,0,2,,,,,,,,11,,,67,0
59712,note_on,,0,0,2,,,,,,,,11,,,74,0
59712,note_on,,192,0,4,,,,,,,,13,,,62,0
59712,note_on,,0,0,2,,,,,,,,11,,,67,108
59712,note_on,,0,0,8,,,,,,,,2,,,62,92
59712,note_on,,0,0,4,,,,,,,,13,,,62,108
59712,note_on,,192,0,10,,,,,,,,4,,,47,0
59712,note_on,,0,0,10,,,,,,,,4,,,47,75
59712,note_on,,0,0,1,,,,,,,,10,,,74,108
59712,note_on,,192,0,1,,,,,,,,10,,,74,0
59712,note_on,,192,0,14,,,,,,,,8,,,59,0
59712,note_on,,0,0,14,,,,,,,,8,,,59,108
59712,note_on,,192,0,5,,,,,,,,14,,,59,0
59712,note_on,,0,0,5,,,,,,,,14,,,59,108
59712,note_on,,0,0,3,,,,,,,,12,,,67,108
59712,note_on,,576,0,3,,,,,,,,12,,,67,0
59712,note_on,,0,0,2,,,,,,,,11,,,74,108
59712,note_on,,576,0,8,,,,,,,,2,,,62,0
59712,note_on,,32,0,6,,,,,,,,0,,,86,108
59712,note_on,,0,0,13,,,,,,,,7,,,74,108
59712,note_on,,192,0,11,,,,,,,,5,,,71,0
59712,note_on,,0,0,13,,,,,,,,7,,,71,108
59712,note_on,,192,0,9,,,,,,,,3,,,59,0
59712,note_on,,0,0,9,,,,,,,,3,,,59,92
59712,note_on,,0,0,11,,,,,,,,5,,,71,92
59712,note_on,,192,0,13,,,,,,,,7,,,71,0
59712,note_on,,576,0,7,,,,,,,,1,,,79,0
59712,note_on,,0,0,7,,,,,,,,1,,,79,108
59712,note_on,,0,0,13,,,,,,,,7,,,74,0
59808,note_on,,96,0,12,,,,,,,,6,,,67,0
59808,note_on,,0,0,11,,,,,,,,5,,,71,92
59808,note_on,,96,0,11,,,,,,,,5,,,71,0
59808,note_on,,0,0,12,,,,,,,,6,,,67,92
59872,note_on,,160,0,6,,,,,,,,0,,,86,0
59904,note_on,,0,0,3,,,,,,,,12,,,67,108
59904,note_on,,192,0,2,,,,,,,,11,,,67,0
59904,note_on,,0,0,2,,,,,,,,11,,,74,0
59904,note_on,,192,0,10,,,,,,,,4,,,47,0
59904,note_on,,0,0,10,,,,,,,,4,,,47,75
59904,note_on,,192,0,9,,,,,,,,3,,,59,0
59904,note_on,,0,0,9,,,,,,,,3,,,59,92
59904,note_on,,0,0,14,,,,,,,,8,,,59,108
59904,note_on,,192,0,7,,,,,,,,1,,,79,0
59904,note_on,,0,0,2,,,,,,,,11,,,74,108
59904,note_on,,0,0,2,,,,,,,,11,,,79,108
59904,note_on,,0,0,13,,,,,,,,7,,,74,0
59904,note_on,,0,0,7,,,,,,,,1,,,79,108
59904,note_on,,0,0,11,,,,,,,,5,,,74,92
59904,note_on,,0,0,5,,,,,,,,14,,,59,108
59904,note_on,,192,0,5,,,,,,,,14,,,59,0
59904,note_on,,0,0,4,,,,,,,,13,,,62,108
59904,note_on,,192,0,4,,,,,,,,13,,,62,0
59904,note_on,,96,0,11,,,,,,,,5,,,71,0
59904,note_on,,192,0,13,,,,,,,,7,,,71,0
59904,note_on,,0,0,8,,,,,,,,2,,,71,92
59904,note_on,,0,0,1,,,,,,,,10,,,79,108
59904,note_on,,192,0,8,,,,,,,,2,,,62,0
59904,note_on,,32,0,6,,,,,,,,0,,,86,108
59904,note_on,,192,0,3,,,,,,,,12,,,67,0
59904,note_on,,0,0,13,,,,,,,,7,,,79,108
59904,note_on,,0,0,13,,,,,,,,7,,,74,108
59904,note_on,,96,0,12,,,,,,,,6,,,67,0
59904,note_on,,0,0,12,,,,,,,,6,,,71,92
59904,note_on,,192,0,1,,,,,,,,10,,,74,0
59904,note_on,,192,0,14,,,,,,,,8,,,59,0
60240,note_on,,336,0,6,,,,,,,,0,,,86,0
60288,note_on,,384,0,3,,,,,,,,12,,,67,0
60288,note_on,,0,0,7,,,,,,,,1,,,74,108
60288,note_on,,384,0,7,,,,,,,,1,,,79,0
60288,note_on,,0,0,14,,,,,,,,8,,,55,108
60288,note_on,,384,0,14,,,,,,,,8,,,59,0
60288,note_on,,0,0,11,,,,,,,,5,,,71,92
60288,note_on,,384,0,9,,,,,,,,3,,,59,0
60288,note_on,,0,0,2,,,,,,,,11,,,74,108
60288,note_on,,0,0,2,,,,,,,,11,,,71,108
60288,note_on,,0,0,2,,,,,,,,11,,,79,0
60288,note_on,,384,0,2,,,,,,,,11,,,74,0
60288,note_on,,384,0,11,,,,,,,,5,,,74,0
60288,note_on,,384,0,5,,,,,,,,14,,,59,0
60288,note_on,,384,0,1,,,,,,,,10,,,79,0
60288,note_on,,0,0,1,,,,,,,,10,,,74,108
60288,note_on,,384,0,4,,,,,,,,13,,,62,0
60288,note_on,,0,0,4,,,,,,,,13,,,59,108
60288,note_on,,0,0,9,,,,,,,,3,,,55,92
60288,note_on,,0,0,5,,,,,,,,14,,,55,108
60288,note_on,,0,0,3,,,,,,,,12,,,67,108
60288,note_on,,0,0,13,,,,,,,,7,,,79,0
60288,note_on,,48,0,6,,,,,,,,0,,,79,108
60288,note_on,,384,0,12,,,,,,,,6,,,71,0
60288,note_on,,0,0,10,,,,,,,,4,,,43,75
60288,note_on,,384,0,13,,,,,,,,7,,,74,0
60288,note_on,,384,0,10,,,,,,,,4,,,47,0
60288,note_on,,0,0,12,,,,,,,,6,,,67,92
60288,note_on,,0,0,13,,,,,,,,7,,,71,108
60288,note_on,,0,0,13,,,,,,,,7,,,74,108
60288,note_on,,0,0,8,,,,,,,,2,,,59,92
60288,note_on,,384,0,8,,,,,,,,2,,,71,0
60624,note_on,,336,0,6,,,,,,,,0,,,79,0
60672,note_on,,384,0,12,,,,,,,,6,,,67,0
60672,note_on,,0,0,12,,,,,,,,6,,,69,92
60672,note_on,,0,0,13,,,,,,,,7,,,72,108
60672,note_on,,384,0,9,,,,,,,,3,,,55,0
60672,note_on,,48,0,6,,,,,,,,0,,,84,108
60672,note_on,,0,0,13,,,,,,,,7,,,74,0
60672,note_on,,384,0,13,,,,,,,,7,,,71,0
60672,note_on,,0,0,10,,,,,,,,4,,,45,75
60672,note_on,,384,0,10,,,,,,,,4,,,43,0
60672,note_on,,384,0,2,,,,,,,,11,,,71,0
60672,note_on,,0,0,2,,,,,,,,11,,,74,0
60672,note_on,,0,0,9,,,,,,,,3,,,57,92
60672,note_on,,0,0,2,,,,,,,,11,,,66,108
60672,note_on,,0,0,3,,,,,,,,12,,,66,108
60672,note_on,,384,0,1,,,,,,,,10,,,74,0
60672,note_on,,0,0,4,,,,,,,,13,,,60,108
60672,note_on,,0,0,7,,,,,,,,1,,,78,108
60672,note_on,,384,0,4,,,,,,,,13,,,59,0
60672,note_on,,0,0,5,,,,,,,,14,,,57,108
60672,note_on,,384,0,5,,,,,,,,14,,,55,0
60672,note_on,,384,0,14,,,,,,,,8,,,55,0
60672,note_on,,384,0,3,,,,,,,,12,,,67,0
60672,note_on,,0,0,14,,,,,,,,8,,,57,108
60672,note_on,,0,0,2,,,,,,,,11,,,72,108
60672,note_on,,0,0,1,,,,,,,,10,,,72,108
60672,note_on,,0,0,8,,,,,,,,2,,,60,92
60672,note_on,,384,0,11,,,,,,,,5,,,71,0
60672,note_on,,384,0,7,,,,,,,,1,,,74,0
60672,note_on,,384,0,8,,,,,,,,2,,,59,0
60672,note_on,,0,0,11,,,,,,,,5,,,72,92
60832,note_on,,160,0,6,,,,,,,,0,,,84,0
60864,note_on,,0,0,13,,,,,,,,7,,,71,108
60864,note_on,,0,0,11,,,,,,,,5,,,71,92
60864,note_on,,0,0,1,,,,,,,,10,,,71,108
60864,note_on,,192,0,13,,,,,,,,7,,,72,0
60864,note_on,,0,0,12,,,,,,,,6,,,67,92
60864,note_on,,192,0,4,,,,,,,,13,,,60,0
60864,note_on,,0,0,4,,,,,,,,13,,,62,108
60864,note_on,,192,0,11,,,,,,,,5,,,72,0
60864,note_on,,192,0,12,,,,,,,,6,,,69,0
60864,note_on,,192,0,1,,,,,,,,10,,,72,0
60864,note_on,,0,0,2,,,,,,,,11,,,72,0
60864,note_on,,0,0,7,,,,,,,,1,,,79,108
60864,note_on,,192,0,7,,,,,,,,1,,,78,0
60864,note_on,,0,0,5,,,,,,,,14,,,59,108
60864,note_on,,192,0,5,,,,,,,,14,,,57,0
60864,note_on,,192,0,14,,,,,,,,8,,,57,0
60864,note_on,,0,0,14,,,,,,,,8,,,59,108
60864,note_on,,192,0,8,,,,,,,,2,,,60,0
60864,note_on,,0,0,8,,,,,,,,2,,,62,92
60864,note_on,,192,0,2,,,,,,,,11,,,66,0
60864,note_on,,0,0,3,,,,,,,,12,,,67,108
60864,note_on,,0,0,9,,,,,,,,3,,,59,92
60864,note_on,,192,0,9,,,,,,,,3,,,57,0
60864,note_on,,192,0,3,,,,,,,,12,,,66,0
60864,note_on,,32,0,6,,,,,,,,0,,,83,108
60864,note_on,,0,0,2,,,,,,,,11,,,67,108
60864,note_on,,0,0,2,,,,,,,,11,,,71,108
60864,note_on,,192,0,10,,,,,,,,4,,,45,0
60864,note_on,,0,0,10,,,,,,,,4,,,47,75
60960,note_on,,0,0,5,,,,,,,,14,,,60,108
60960,note_on,,0,0,13,,,,,,,,7,,,69,108
60960,note_on,,0,0,11,,,,,,,,5,,,69,92
60960,note_on,,96,0,11,,,,,,,,5,,,71,0
60960,note_on,,96,0,5,,,,,,,,14,,,59,0
60960,note_on,,96,0,13,,,,,,,,7,,,71,0
60960,note_on,,0,0,14,,,,,,,,8,,,60,108
60960,note_on,,96,0,10,,,,,,,,4,,,47,0
60960,note_on,,0,0,10,,,,,,,,4,,,48,75
60960,note_on,,0,0,9,,,,,,,,3,,,60,92
60960,note_on,,96,0,9,,,,,,,,3,,,59,0
60960,note_on,,96,0,14,,,,,,,,8,,,59,0
61024,note_on,,160,0,6,,,,,,,,0,,,83,0
61056,note_on,,192,0,8,,,,,,,,2,,,62,0
61056,note_on,,0,0,9,,,,,,,,3,,,62,92
61056,note_on,,96,0,11,,,,,,,,5,,,69,0
61056,note_on,,32,0,6,,,,,,,,0,,,81,108
61056,note_on,,96,0,9,,,,,,,,3,,,60,0
61056,note_on,,192,0,7,,,,,,,,1,,,79,0
61056,note_on,,0,0,11,,,,,,,,5,,,69,92
61056,note_on,,0,0,8,,,,,,,,2,,,62,92
61056,note_on,,0,0,7,,,,,,,,1,,,79,108
61056,note_on,,0,0,10,,,,,,,,4,,,50,75
61056,note_on,,0,0,14,,,,,,,,8,,,62,108
61056,note_on,,96,0,5,,,,,,,,14,,,60,0
61056,note_on,,0,0,5,,,,,,,,14,,,62,108
61056,note_on,,96,0,10,,,,,,,,4,,,48,0
61056,note_on,,0,0,2,,,,,,,,11,,,67,108
61056,note_on,,0,0,2,,,,,,,,11,,,71,0
61056,note_on,,192,0,2,,,,,,,,11,,,67,0
61056,note_on,,96,0,14,,,,,,,,8,,,60,0
61056,note_on,,0,0,12,,,,,,,,6,,,62,92
61056,note_on,,192,0,12,,,,,,,,6,,,67,0
61056,note_on,,192,0,1,,,,,,,,10,,,71,0
61056,note_on,,0,0,1,,,,,,,,10,,,69,108
61056,note_on,,0,0,2,,,,,,,,11,,,69,108
61056,note_on,,0,0,4,,,,,,,,13,,,62,108
61056,note_on,,0,0,13,,,,,,,,7,,,69,108
61056,note_on,,96,0,13,,,,,,,,7,,,69,0
61056,note_on,,192,0,4,,,,,,,,13,,,62,0
61248,note_on,,192,0,2,,,,,,,,11,,,67,0
61248,note_on,,0,0,10,,,,,,,,4,,,38,75
61248,note_on,,192,0,10,,,,,,,,4,,,50,0
61248,note_on,,192,0,8,,,,,,,,2,,,62,0
61248,note_on,,0,0,8,,,,,,,,2,,,60,92
61248,note_on,,0,0,14,,,,,,,,8,,,50,108
61248,note_on,,0,0,3,,,,,,,,12,,,66,108
61248,note_on,,0,0,4,,,,,,,,13,,,60,108
61248,note_on,,0,0,9,,,,,,,,3,,,50,92
61248,note_on,,192,0,5,,,,,,,,14,,,62,0
61248,note_on,,0,0,7,,,,,,,,1,,,78,108
61248,note_on,,384,0,3,,,,,,,,12,,,67,0
61248,note_on,,192,0,7,,,,,,,,1,,,79,0
61248,note_on,,192,0,14,,,,,,,,8,,,62,0
61248,note_on,,0,0,12,,,,,,,,6,,,62,92
61248,note_on,,192,0,12,,,,,,,,6,,,62,0
61248,note_on,,0,0,5,,,,,,,,14,,,50,108
61248,note_on,,192,0,4,,,,,,,,13,,,62,0
61248,note_on,,192,0,9,,,,,,,,3,,,62,0
61248,note_on,,0,0,2,,,,,,,,11,,,66,108
61344,note_on,,0,0,12,,,,,,,,6,,,62,92
61344,note_on,,0,0,13,,,,,,,,7,,,67,108
61344,note_on,,0,0,11,,,,,,,,5,,,67,92
61344,note_on,,288,0,11,,,,,,,,5,,,69,0
61344,note_on,,96,0,12,,,,,,,,6,,,62,0
61344,note_on,,288,0,13,,,,,,,,7,,,69,0
61392,note_on,,336,0,6,,,,,,,,0,,,81,0
61392,note_on,,144,0,7,,,,,,,,1,,,78,0
61392,note_on,,0,0,7,,,,,,,,1,,,72,108
61440,note_on,,0,0,1,,,,,,,,10,,,67,108
61440,note_on,,0,0,14,,,,,,,,8,,,55,108
61440,note_on,,0,0,10,,,,,,,,4,,,43,75
61440,note_on,,192,0,10,,,,,,,,4,,,38,0
61440,note_on,,48,0,6,,,,,,,,0,,,79,108
61440,note_on,,0,0,5,,,,,,,,14,,,55,108
61440,note_on,,384,0,1,,,,,,,,10,,,69,0
61440,note_on,,192,0,9,,,,,,,,3,,,50,0
61440,note_on,,0,0,9,,,,,,,,3,,,55,92
61440,note_on,,192,0,14,,,,,,,,8,,,50,0
61440,note_on,,192,0,5,,,,,,,,14,,,50,0
61440,note_on,,0,0,4,,,,,,,,13,,,59,108
61440,note_on,,0,0,7,,,,,,,,1,,,71,108
61440,note_on,,96,0,13,,,,,,,,7,,,67,0
61440,note_on,,0,0,11,,,,,,,,5,,,67,92
61440,note_on,,192,0,4,,,,,,,,13,,,60,0
61440,note_on,,0,0,13,,,,,,,,7,,,67,108
61440,note_on,,0,0,12,,,,,,,,6,,,59,92
61440,note_on,,96,0,12,,,,,,,,6,,,62,0
61440,note_on,,0,0,8,,,,,,,,2,,,62,92
61440,note_on,,192,0,8,,,,,,,,2,,,60,0
61440,note_on,,0,0,3,,,,,,,,12,,,67,108
61440,note_on,,96,0,11,,,,,,,,5,,,67,0
61440,note_on,,48,0,7,,,,,,,,1,,,72,0
61440,note_on,,192,0,2,,,,,,,,11,,,69,0
61440,note_on,,0,0,2,,,,,,,,11,,,67,108
61440,note_on,,192,0,3,,,,,,,,12,,,66,0
61440,note_on,,0,0,2,,,,,,,,11,,,66,0
62160,note_on,,720,0,13,,,,,,,,7,,,67,0
62160,note_on,,720,0,14,,,,,,,,8,,,55,0
62160,note_on,,720,0,8,,,,,,,,2,,,62,0
62160,note_on,,720,0,2,,,,,,,,11,,,67,0
62160,note_on,,720,0,10,,,,,,,,4,,,43,0
62160,note_on,,720,0,5,,,,,,,,14,,,55,0
62160,note_on,,720,0,12,,,,,,,,6,,,59,0
62160,note_on,,720,0,9,,,,,,,,3,,,55,0
62160,note_on,,720,0,4,,,,,,,,13,,,59,0
62160,note_on,,720,0,11,,,,,,,,5,,,67,0
62160,note_on,,720,0,7,,,,,,,,1,,,71,0
62160,note_on,,720,0,6,,,,,,,,0,,,79,0
62160,note_on,,720,0,1,,,,,,,,10,,,67,0
62208,note_on,,0,0,2,,,,,,,,11,,,71,108
62208,note_on,,48,0,5,,,,,,,,14,,,55,108
62208,note_on,,48,0,13,,,,,,,,7,,,71,108
62208,note_on,,0,0,3,,,,,,,,12,,,67,108
62208,note_on,,768,0,3,,,,,,,,12,,,67,0
62208,note_on,,48,0,2,,,,,,,,11,,,67,108
62208,note_on,,48,0,12,,,,,,,,6,,,67,92
62208,note_on,,48,0,11,,,,,,,,5,,,71,92
62208,note_on,,48,0,1,,,,,,,,10,,,71,108
62208,note_on,,48,0,7,,,,,,,,1,,,79,108
62208,note_on,,48,0,14,,,,,,,,8,,,79,108
62208,note_on,,48,0,8,,,,,,,,2,,,62,92
62208,note_on,,48,0,6,,,,,,,,0,,,83,108
62208,note_on,,48,0,9,,,,,,,,3,,,55,92
62208,note_on,,48,0,10,,,,,,,,4,,,43,75
62208,note_on,,48,0,4,,,,,,,,13,,,62,108
62304,note_on,,96,0,11,,,,,,,,5,,,71,0
62304,note_on,,0,0,2,,,,,,,,11,,,66,108
62304,note_on,,0,0,2,,,,,,,,11,,,71,0
62304,note_on,,96,0,2,,,,,,,,11,,,67,0
62304,note_on,,96,0,7,,,,,,,,1,,,79,0
62304,note_on,,0,0,7,,,,,,,,1,,,78,108
62304,note_on,,0,0,6,,,,,,,,0,,,81,108
62304,note_on,,96,0,6,,,,,,,,0,,,83,0
62304,note_on,,96,0,3,,,,,,,,12,,,67,0
62304,note_on,,0,0,3,,,,,,,,12,,,66,108
62304,note_on,,0,0,12,,,,,,,,6,,,66,92
62304,note_on,,96,0,12,,,,,,,,6,,,67,0
62304,note_on,,0,0,13,,,,,,,,7,,,69,108
62304,note_on,,96,0,13,,,,,,,,7,,,71,0
62304,note_on,,0,0,1,,,,,,,,10,,,69,108
62304,note_on,,96,0,1,,,,,,,,10,,,71,0
62304,note_on,,0,0,2,,,,,,,,11,,,69,108
62304,note_on,,0,0,11,,,,,,,,5,,,69,92
62400,note_on,,96,0,12,,,,,,,,6,,,66,0
62400,note_on,,0,0,12,,,,,,,,6,,,67,92
62400,note_on,,0,0,2,,,,,,,,11,,,71,108
62400,note_on,,0,0,2,,,,,,,,11,,,67,108
62400,note_on,,0,0,13,,,,,,,,7,,,67,108
62400,note_on,,96,0,2,,,,,,,,11,,,66,0
62400,note_on,,96,0,7,,,,,,,,1,,,78,0
62400,note_on,,0,0,7,,,,,,,,1,,,79,108
62400,note_on,,0,0,6,,,,,,,,0,,,83,108
62400,note_on,,96,0,6,,,,,,,,0,,,81,0
62400,note_on,,0,0,2,,,,,,,,11,,,69,0
62400,note_on,,96,0,1,,,,,,,,10,,,69,0
62400,note_on,,96,0,11,,,,,,,,5,,,69,0
62400,note_on,,0,0,1,,,,,,,,10,,,71,108
62400,note_on,,96,0,13,,,,,,,,7,,,69,0
62400,note_on,,192,0,14,,,,,,,,8,,,79,0
62400,note_on,,0,0,13,,,,,,,,7,,,71,108
62400,note_on,,0,0,3,,,,,,,,12,,,67,108
62400,note_on,,96,0,3,,,,,,,,12,,,66,0
62400,note_on,,0,0,11,,,,,,,,5,,,71,92
62400,note_on,,0,0,14,,,,,,,,8,,,78,108
62496,note_on,,96,0,13,,,,,,,,7,,,67,0
62496,note_on,,0,0,13,,,,,,,,7,,,71,0
62496,note_on,,96,0,12,,,,,,,,6,,,67,0
62496,note_on,,0,0,12,,,,,,,,6,,,69,92
62496,note_on,,0,0,13,,,,,,,,7,,,69,108
62496,note_on,,0,0,13,,,,,,,,7,,,72,108
62496,note_on,,96,0,6,,,,,,,,0,,,83,0
62496,note_on,,0,0,6,,,,,,,,0,,,84,108
62496,note_on,,96,0,2,,,,,,,,11,,,67,0
62496,note_on,,96,0,3,,,,,,,,12,,,67,0
62496,note_on,,0,0,2,,,,,,,,11,,,71,0
62496,note_on,,0,0,3,,,,,,,,12,,,69,108
62496,note_on,,0,0,11,,,,,,,,5,,,72,92
62496,note_on,,0,0,2,,,,,,,,11,,,72,108
62496,note_on,,96,0,1,,,,,,,,10,,,71,0
62496,note_on,,0,0,1,,,,,,,,10,,,72,108
62496,note_on,,96,0,11,,,,,,,,5,,,71,0
62496,note_on,,0,0,7,,,,,,,,1,,,81,108
62496,note_on,,96,0,7,,,,,,,,1,,,79,0
62496,note_on,,0,0,2,,,,,,,,11,,,69,108
62592,note_on,,0,0,1,,,,,,,,10,,,71,108
62592,note_on,,96,0,6,,,,,,,,0,,,84,0
62592,note_on,,0,0,7,,,,,,,,1,,,79,108
62592,note_on,,96,0,7,,,,,,,,1,,,81,0
62592,note_on,,96,0,11,,,,,,,,5,,,72,0
62592,note_on,,0,0,11,,,,,,,,5,,,71,92
62592,note_on,,0,0,3,,,,,,,,12,,,67,108
62592,note_on,,96,0,3,,,,,,,,12,,,69,0
62592,note_on,,192,0,14,,,,,,,,8,,,78,0
62592,note_on,,96,0,1,,,,,,,,10,,,72,0
62592,note_on,,0,0,14,,,,,,,,8,,,79,108
62592,note_on,,96,0,13,,,,,,,,7,,,69,0
62592,note_on,,0,0,13,,,,,,,,7,,,71,108
62592,note_on,,0,0,13,,,,,,,,7,,,72,0
62592,note_on,,0,0,12,,,,,,,,6,,,67,92
62592,note_on,,96,0,12,,,,,,,,6,,,69,0
62592,note_on,,0,0,6,,,,,,,,0,,,83,108
62592,note_on,,0,0,2,,,,,,,,11,,,71,108
62592,note_on,,0,0,2,,,,,,,,11,,,67,108
62592,note_on,,0,0,2,,,,,,,,11,,,72,0
62592,note_on,,96,0,2,,,,,,,,11,,,69,0
62784,note_on,,192,0,3,,,,,,,,12,,,67,0
62784,note_on,,192,0,14,,,,,,,,8,,,79,0
62784,note_on,,0,0,14,,,,,,,,8,,,76,108
62784,note_on,,0,0,13,,,,,,,,7,,,67,108
62784,note_on,,0,0,13,,,,,,,,7,,,71,108
62784,note_on,,0,0,4,,,,,,,,13,,,62,108
62784,note_on,,576,0,4,,,,,,,,13,,,62,0
62784,note_on,,0,0,1,,,,,,,,10,,,71,108
62784,note_on,,192,0,13,,,,,,,,7,,,71,0
62784,note_on,,192,0,2,,,,,,,,11,,,67,0
62784,note_on,,0,0,5,,,,,,,,14,,,55,108
62784,note_on,,0,0,2,,,,,,,,11,,,71,108
62784,note_on,,0,0,2,,,,,,,,11,,,67,108
62784,note_on,,0,0,2,,,,,,,,11,,,71,0
62784,note_on,,0,0,3,,,,,,,,12,,,67,108
62784,note_on,,192,0,1,,,,,,,,10,,,71,0
62784,note_on,,576,0,5,,,,,,,,14,,,55,0
62784,note_on,,576,0,9,,,,,,,,3,,,55,0
62784,note_on,,0,0,6,,,,,,,,0,,,83,108
62784,note_on,,0,0,10,,,,,,,,4,,,43,75
62784,note_on,,576,0,10,,,,,,,,4,,,43,0
62784,note_on,,192,0,6,,,,,,,,0,,,83,0
62784,note_on,,0,0,11,,,,,,,,5,,,71,92
62784,note_on,,0,0,8,,,,,,,,2,,,62,92
62784,note_on,,192,0,12,,,,,,,,6,,,67,0
62784,note_on,,0,0,12,,,,,,,,6,,,67,92
62784,note_on,,0,0,7,,,,,,,,1,,,79,108
62784,note_on,,576,0,8,,,,,,,,2,,,62,0
62784,note_on,,0,0,9,,,,,,,,3,,,55,92
62784,note_on,,192,0,7,,,,,,,,1,,,79,0
62784,note_on,,192,0,11,,,,,,,,5,,,71,0
62976,note_on,,192,0,7,,,,,,,,1,,,79,0
62976,note_on,,192,0,2,,,,,,,,11,,,67,0
62976,note_on,,0,0,2,,,,,,,,11,,,71,0
62976,note_on,,0,0,4,,,,,,,,13,,,60,108
62976,note_on,,192,0,1,,,,,,,,10,,,71,0
62976,note_on,,192,0,14,,,,,,,,8,,,76,0
62976,note_on,,0,0,2,,,,,,,,11,,,66,108
62976,note_on,,0,0,2,,,,,,,,11,,,69,108
62976,note_on,,192,0,11,,,,,,,,5,,,71,0
62976,note_on,,0,0,7,,,,,,,,1,,,78,108
62976,note_on,,0,0,11,,,,,,,,5,,,69,92
62976,note_on,,192,0,4,,,,,,,,13,,,62,0
62976,note_on,,0,0,14,,,,,,,,8,,,78,108
62976,note_on,,192,0,5,,,,,,,,14,,,55,0
62976,note_on,,0,0,5,,,,,,,,14,,,50,108
62976,note_on,,0,0,8,,,,,,,,2,,,60,92
62976,note_on,,192,0,6,,,,,,,,0,,,83,0
62976,note_on,,0,0,6,,,,,,,,0,,,81,108
62976,note_on,,0,0,9,,,,,,,,3,,,50,92
62976,note_on,,192,0,10,,,,,,,,4,,,43,0
62976,note_on,,192,0,9,,,,,,,,3,,,55,0
62976,note_on,,0,0,13,,,,,,,,7,,,69,108
62976,note_on,,0,0,13,,,,,,,,7,,,71,0
62976,note_on,,0,0,3,,,,,,,,12,,,66,108
62976,note_on,,192,0,13,,,,,,,,7,,,67,0
62976,note_on,,192,0,3,,,,,,,,12,,,67,0
62976,note_on,,0,0,12,,,,,,,,6,,,66,92
62976,note_on,,0,0,1,,,,,,,,10,,,69,108
62976,note_on,,0,0,10,,,,,,,,4,,,38,75
62976,note_on,,192,0,8,,,,,,,,2,,,62,0
62976,note_on,,192,0,12,,,,,,,,6,,,67,0
63168,note_on,,0,0,13,,,,,,,,7,,,71,108
63168,note_on,,192,0,14,,,,,,,,8,,,78,0
63168,note_on,,192,0,13,,,,,,,,7,,,69,0
63168,note_on,,0,0,14,,,,,,,,8,,,75,108
63168,note_on,,0,0,13,,,,,,,,7,,,67,108
63264,note_on,,0,0,13,,,,,,,,7,,,69,108
63264,note_on,,0,0,13,,,,,,,,7,,,66,108
63264,note_on,,0,0,13,,,,,,,,7,,,71,0
63264,note_on,,96,0,13,,,,,,,,7,,,67,0
63360,note_on,,384,0,11,,,,,,,,5,,,69,0
63360,note_on,,0,0,11,,,,,,,,5,,,67,92
63360,note_on,,0,0,5,,,,,,,,14,,,52,108
63360,note_on,,96,0,13,,,,,,,,7,,,66,0
63360,note_on,,384,0,2,,,,,,,,11,,,66,0
63360,note_on,,0,0,3,,,,,,,,12,,,64,108
63360,note_on,,384,0,3,,,,,,,,12,,,66,0
63360,note_on,,0,0,12,,,,,,,,6,,,64,92
63360,note_on,,384,0,12,,,,,,,,6,,,66,0
63360,note_on,,384,0,8,,,,,,,,2,,,60,0
63360,note_on,,0,0,8,,,,,,,,2,,,59,92
63360,note_on,,384,0,4,,,,,,,,13,,,60,0
63360,note_on,,0,0,4,,,,,,,,13,,,59,108
63360,note_on,,384,0,9,,,,,,,,3,,,50,0
63360,note_on,,0,0,13,,,,,,,,7,,,69,0
63360,note_on,,0,0,13,,,,,,,,7,,,67,108
63360,note_on,,384,0,7,,,,,,,,1,,,78,0
63360,note_on,,0,0,2,,,,,,,,11,,,67,108
63360,note_on,,0,0,2,,,,,,,,11,,,64,108
63360,note_on,,0,0,2,,,,,,,,11,,,69,0
63360,note_on,,384,0,5,,,,,,,,14,,,50,0
63360,note_on,,0,0,9,,,,,,,,3,,,52,92
63360,note_on,,0,0,7,,,,,,,,1,,,76,108
63360,note_on,,0,0,1,,,,,,,,10,,,67,108
63360,note_on,,192,0,14,,,,,,,,8,,,75,0
63360,note_on,,0,0,14,,,,,,,,8,,,76,108
63360,note_on,,0,0,10,,,,,,,,4,,,40,75
63360,note_on,,384,0,1,,,,,,,,10,,,69,0
63360,note_on,,0,0,6,,,,,,,,0,,,79,108
63360,note_on,,384,0,6,,,,,,,,0,,,81,0
63360,note_on,,384,0,10,,,,,,,,4,,,38,0
63552,note_on,,192,0,13,,,,,,,,7,,,67,0
63552,note_on,,0,0,13,,,,,,,,7,,,64,108
63552,note_on,,0,0,13,,,,,,,,7,,,67,108
63552,note_on,,192,0,14,,,,,,,,8,,,76,0
63552,note_on,,0,0,14,,,,,,,,8,,,60,108
63744,note_on,,384,0,11,,,,,,,,5,,,67,0
63744,note_on,,0,0,11,,,,,,,,5,,,72,92
63744,note_on,,384,0,2,,,,,,,,11,,,64,0
63744,note_on,,384,0,10,,,,,,,,4,,,40,0
63744,note_on,,384,0,1,,,,,,,,10,,,67,0
63744,note_on,,384,0,4,,,,,,,,13,,,59,0
63744,note_on,,0,0,3,,,,,,,,12,,,69,108
63744,note_on,,384,0,3,,,,,,,,12,,,64,0
63744,note_on,,384,0,6,,,,,,,,0,,,79,0
63744,note_on,,0,0,6,,,,,,,,0,,,84,108
63744,note_on,,192,0,14,,,,,,,,8,,,60,0
63744,note_on,,384,0,5,,,,,,,,14,,,52,0
63744,note_on,,0,0,5,,,,,,,,14,,,54,108
63744,note_on,,384,0,12,,,,,,,,6,,,64,0
63744,note_on,,0,0,10,,,,,,,,4,,,42,75
63744,note_on,,0,0,14,,,,,,,,8,,,57,108
63744,note_on,,0,0,4,,,,,,,,13,,,63,108
63744,note_on,,192,0,13,,,,,,,,7,,,64,0
63744,note_on,,0,0,7,,,,,,,,1,,,81,108
63744,note_on,,0,0,1,,,,,,,,10,,,72,108
63744,note_on,,0,0,13,,,,,,,,7,,,72,108
63744,note_on,,384,0,8,,,,,,,,2,,,59,0
63744,note_on,,0,0,8,,,,,,,,2,,,63,92
63744,note_on,,0,0,13,,,,,,,,7,,,69,108
63744,note_on,,0,0,13,,,,,,,,7,,,67,0
63744,note_on,,0,0,12,,,,,,,,6,,,69,92
63744,note_on,,384,0,7,,,,,,,,1,,,76,0
63744,note_on,,0,0,9,,,,,,,,3,,,54,92
63744,note_on,,384,0,9,,,,,,,,3,,,52,0
63744,note_on,,0,0,2,,,,,,,,11,,,72,108
63744,note_on,,0,0,2,,,,,,,,11,,,69,108
63744,note_on,,0,0,2,,,,,,,,11,,,67,0
63936,note_on,,192,0,5,,,,,,,,14,,,54,0
63936,note_on,,0,0,6,,,,,,,,0,,,83,108
63936,note_on,,192,0,7,,,,,,,,1,,,81,0
63936,note_on,,0,0,7,,,,,,,,1,,,79,108
63936,note_on,,0,0,5,,,,,,,,14,,,55,108
63936,note_on,,0,0,10,,,,,,,,4,,,43,75
63936,note_on,,0,0,12,,,,,,,,6,,,67,92
63936,note_on,,192,0,10,,,,,,,,4,,,42,0
63936,note_on,,192,0,8,,,,,,,,2,,,63,0
63936,note_on,,0,0,8,,,,,,,,2,,,64,92
63936,note_on,,0,0,2,,,,,,,,11,,,71,108
63936,note_on,,0,0,2,,,,,,,,11,,,67,108
63936,note_on,,0,0,2,,,,,,,,11,,,72,0
63936,note_on,,192,0,2,,,,,,,,11,,,69,0
63936,note_on,,192,0,12,,,,,,,,6,,,69,0
63936,note_on,,0,0,4,,,,,,,,13,,,64,108
63936,note_on,,192,0,6,,,,,,,,0,,,84,0
63936,note_on,,192,0,1,,,,,,,,10,,,72,0
63936,note_on,,0,0,13,,,,,,,,7,,,67,108
63936,note_on,,192,0,11,,,,,,,,5,,,72,0
63936,note_on,,0,0,13,,,,,,,,7,,,72,0
63936,note_on,,192,0,3,,,,,,,,12,,,69,0
63936,note_on,,0,0,3,,,,,,,,12,,,67,108
63936,note_on,,0,0,13,,,,,,,,7,,,71,108
63936,note_on,,0,0,11,,,,,,,,5,,,71,92
63936,note_on,,192,0,13,,,,,,,,7,,,69,0
63936,note_on,,192,0,9,,,,,,,,3,,,54,0
63936,note_on,,0,0,9,,,,,,,,3,,,55,92
63936,note_on,,192,0,4,,,,,,,,13,,,63,0
63936,note_on,,0,0,1,,,,,,,,10,,,71,108
64128,note_on,,192,0,8,,,,,,,,2,,,64,0
64128,note_on,,0,0,8,,,,,,,,2,,,60,92
64128,note_on,,0,0,13,,,,,,,,7,,,71,0
64128,note_on,,192,0,5,,,,,,,,14,,,55,0
64128,note_on,,0,0,12,,,,,,,,6,,,66,92
64128,note_on,,0,0,2,,,,,,,,11,,,69,108
64128,note_on,,192,0,12,,,,,,,,6,,,67,0
64128,note_on,,192,0,3,,,,,,,,12,,,67,0
64128,note_on,,0,0,3,,,,,,,,12,,,66,108
64128,note_on,,192,0,7,,,,,,,,1,,,79,0
64128,note_on,,0,0,7,,,,,,,,1,,,78,108
64128,note_on,,0,0,6,,,,,,,,0,,,81,108
64128,note_on,,192,0,6,,,,,,,,0,,,83,0
64128,note_on,,192,0,13,,,,,,,,7,,,67,0
64128,note_on,,0,0,2,,,,,,,,11,,,66,108
64128,note_on,,192,0,2,,,,,,,,11,,,67,0
64128,note_on,,0,0,5,,,,,,,,14,,,57,108
64128,note_on,,192,0,4,,,,,,,,13,,,64,0
64128,note_on,,0,0,4,,,,,,,,13,,,60,108
64128,note_on,,0,0,2,,,,,,,,11,,,71,0
64128,note_on,,192,0,10,,,,,,,,4,,,43,0
64128,note_on,,0,0,13,,,,,,,,7,,,69,108
64128,note_on,,0,0,13,,,,,,,,7,,,66,108
64128,note_on,,0,0,11,,,,,,,,5,,,69,92
64128,note_on,,0,0,10,,,,,,,,4,,,45,75
64128,note_on,,0,0,1,,,,,,,,10,,,69,108
64128,note_on,,0,0,9,,,,,,,,3,,,57,92
64128,note_on,,192,0,1,,,,,,,,10,,,71,0
64128,note_on,,192,0,9,,,,,,,,3,,,55,0
64128,note_on,,192,0,11,,,,,,,,5,,,71,0
64320,note_on,,0,0,4,,,,,,,,13,,,59,108
64320,note_on,,192,0,8,,,,,,,,2,,,60,0
64320,note_on,,192,0,6,,,,,,,,0,,,81,0
64320,note_on,,0,0,6,,,,,,,,0,,,79,108
64320,note_on,,192,0,4,,,,,,,,13,,,60,0
64320,note_on,,0,0,10,,,,,,,,4,,,40,75
64320,note_on,,0,0,13,,,,,,,,7,,,64,108
64320,note_on,,0,0,13,,,,,,,,7,,,69,0
64320,note_on,,192,0,10,,,,,,,,4,,,45,0
64320,note_on,,192,0,13,,,,,,,,7,,,66,0
64320,note_on,,0,0,8,,,,,,,,2,,,59,92
64320,note_on,,0,0,13,,,,,,,,7,,,67,108
64320,note_on,,192,0,1,,,,,,,,10,,,69,0
64320,note_on,,0,0,2,,,,,,,,11,,,67,108
64320,note_on,,0,0,5,,,,,,,,14,,,52,108
64320,note_on,,192,0,5,,,,,,,,14,,,57,0
64320,note_on,,0,0,11,,,,,,,,5,,,67,92
64320,note_on,,192,0,11,,,,,,,,5,,,69,0
64320,note_on,,192,0,9,,,,,,,,3,,,57,0
64320,note_on,,0,0,12,,,,,,,,6,,,64,92
64320,note_on,,192,0,2,,,,,,,,11,,,66,0
64320,note_on,,0,0,2,,,,,,,,11,,,69,0
64320,note_on,,576,0,14,,,,,,,,8,,,57,0
64320,note_on,,0,0,9,,,,,,,,3,,,52,92
64320,note_on,,192,0,12,,,,,,,,6,,,66,0
64320,note_on,,0,0,2,,,,,,,,11,,,64,108
64320,note_on,,0,0,3,,,,,,,,12,,,64,108
64320,note_on,,0,0,1,,,,,,,,10,,,67,108
64320,note_on,,192,0,3,,,,,,,,12,,,66,0
64320,note_on,,0,0,7,,,,,,,,1,,,76,108
64320,note_on,,192,0,7,,,,,,,,1,,,78,0
64320,note_on,,0,0,14,,,,,,,,8,,,57,108
64512,note_on,,0,0,10,,,,,,,,4,,,47,75
64512,note_on,,192,0,10,,,,,,,,4,,,40,0
64512,note_on,,0,0,3,,,,,,,,12,,,63,108
64512,note_on,,192,0,3,,,,,,,,12,,,64,0
64512,note_on,,192,0,9,,,,,,,,3,,,52,0
64512,note_on,,192,0,11,,,,,,,,5,,,67,0
64512,note_on,,0,0,11,,,,,,,,5,,,67,92
64512,note_on,,192,0,13,,,,,,,,7,,,64,0
64512,note_on,,0,0,13,,,,,,,,7,,,67,0
64512,note_on,,0,0,13,,,,,,,,7,,,63,108
64512,note_on,,0,0,13,,,,,,,,7,,,66,108
64512,note_on,,0,0,5,,,,,,,,14,,,59,108
64512,note_on,,192,0,5,,,,,,,,14,,,52,0
64512,note_on,,0,0,9,,,,,,,,3,,,59,92
64512,note_on,,0,0,1,,,,,,,,10,,,66,108
64512,note_on,,192,0,1,,,,,,,,10,,,67,0
64512,note_on,,0,0,2,,,,,,,,11,,,63,108
64512,note_on,,192,0,12,,,,,,,,6,,,64,0
64512,note_on,,0,0,7,,,,,,,,1,,,75,108
64512,note_on,,192,0,7,,,,,,,,1,,,76,0
64512,note_on,,0,0,2,,,,,,,,11,,,66,108
64512,note_on,,192,0,6,,,,,,,,0,,,79,0
64512,note_on,,0,0,6,,,,,,,,0,,,78,108
64512,note_on,,0,0,2,,,,,,,,11,,,67,0
64512,note_on,,192,0,2,,,,,,,,11,,,64,0
64512,note_on,,0,0,12,,,,,,,,6,,,63,92
64512,note_on,,192,0,8,,,,,,,,2,,,59,0
64512,note_on,,0,0,8,,,,,,,,2,,,59,92
64512,note_on,,0,0,4,,,,,,,,13,,,59,108
64512,note_on,,192,0,4,,,,,,,,13,,,59,0
64512,note_on,,192,0,14,,,,,,,,8,,,57,0
64512,note_on,,0,0,14,,,,,,,,8,,,59,108
64704,note_on,,192,0,14,,,,,,,,8,,,57,108
64896,note_on,,0,0,14,,,,,,,,8,,,55,108
64896,note_on,,192,0,14,,,,,,,,8,,,57,0
65088,note_on,,0,0,14,,,,,,,,8,,,54,108
65088,note_on,,192,0,14,,,,,,,,8,,,55,0
65232,note_on,,720,0,4,,,,,,,,13,,,59,0
65232,note_on,,720,0,7,,,,,,,,1,,,75,0
65232,note_on,,720,0,2,,,,,,,,11,,,63,0
65232,note_on,,720,0,10,,,,,,,,4,,,47,0
65232,note_on,,0,0,2,,,,,,,,11,,,66,0
65232,note_on,,720,0,1,,,,,,,,10,,,66,0
65232,note_on,,720,0,3,,,,,,,,12,,,63,0
65232,note_on,,720,0,12,,,,,,,,6,,,63,0
65232,note_on,,720,0,6,,,,,,,,0,,,78,0
65232,note_on,,720,0,9,,,,,,,,3,,,59,0
65232,note_on,,0,0,13,,,,,,,,7,,,66,0
65232,note_on,,720,0,13,,,,,,,,7,,,63,0
65232,note_on,,720,0,8,,,,,,,,2,,,59,0
65232,note_on,,720,0,11,,,,,,,,5,,,67,0
65232,note_on,,720,0,5,,,,,,,,14,,,59,0
65280,note_on,,48,0,3,,,,,,,,12,,,64,108
65280,note_on,,48,0,6,,,,,,,,0,,,79,108
65280,note_on,,48,0,8,,,,,,,,2,,,71,92
65280,note_on,,48,0,12,,,,,,,,6,,,64,92
65280,note_on,,48,0,10,,,,,,,,4,,,40,75
65280,note_on,,48,0,13,,,,,,,,7,,,67,108
65280,note_on,,0,0,14,,,,,,,,8,,,59,108
65280,note_on,,0,0,14,,,,,,,,8,,,52,108
65280,note_on,,0,0,14,,,,,,,,8,,,59,0
65280,note_on,,192,0,14,,,,,,,,8,,,54,0
65280,note_on,,48,0,5,,,,,,,,14,,,52,108
65280,note_on,,48,0,4,,,,,,,,13,,,59,108
65280,note_on,,48,0,11,,,,,,,,5,,,67,92
65280,note_on,,48,0,9,,,,,,,,3,,,52,92
65280,note_on,,48,0,1,,,,,,,,10,,,67,108
65280,note_on,,48,0,7,,,,,,,,1,,,76,108
65280,note_on,,0,0,2,,,,,,,,11,,,79,108
65280,note_on,,0,0,13,,,,,,,,7,,,76,108
65280,note_on,,48,0,2,,,,,,,,11,,,71,108
65374,note_on,,94,0,13,,,,,,,,7,,,67,0
65374,note_on,,0,0,13,,,,,,,,7,,,76,0
65376,note_on,,96,0,3,,,,,,,,12,,,64,0
65376,note_on,,2,0,13,,,,,,,,7,,,66,108
65376,note_on,,0,0,13,,,,,,,,7,,,75,108
65376,note_on,,96,0,12,,,,,,,,6,,,64,0
65376,note_on,,0,0,12,,,,,,,,6,,,63,92
65376,note_on,,0,0,7,,,,,,,,1,,,75,108
65376,note_on,,0,0,6,,,,,,,,0,,,78,108
65376,note_on,,96,0,6,,,,,,,,0,,,79,0
65376,note_on,,0,0,11,,,,,,,,5,,,66,92
65376,note_on,,96,0,11,,,,,,,,5,,,67,0
65376,note_on,,96,0,7,,,,,,,,1,,,76,0
65376,note_on,,96,0,2,,,,,,,,11,,,79,0
65376,note_on,,0,0,1,,,,,,,,10,,,66,108
65376,note_on,,96,0,1,,,,,,,,10,,,67,0
65376,note_on,,0,0,3,,,,,,,,12,,,63,108
65376,note_on,,0,0,2,,,,,,,,11,,,78,108
65470,note_on,,94,0,13,,,,,,,,7,,,66,0
65470,note_on,,0,0,13,,,,,,,,7,,,75,0
65472,note_on,,96,0,11,,,,,,,,5,,,66,0
65472,note_on,,96,0,12,,,,,,,,6,,,63,0
65472,note_on,,0,0,12,,,,,,,,6,,,64,92
65472,note_on,,0,0,11,,,,,,,,5,,,67,92
65472,note_on,,0,0,1,,,,,,,,10,,,67,108
65472,note_on,,96,0,1,,,,,,,,10,,,66,0
65472,note_on,,96,0,3,,,,,,,,12,,,63,0
65472,note_on,,0,0,3,,,,,,,,12,,,64,108
65472,note_on,,192,0,14,,,,,,,,8,,,52,0
65472,note_on,,0,0,7,,,,,,,,1,,,76,108
65472,note_on,,96,0,7,,,,,,,,1,,,75,0
65472,note_on,,96,0,2,,,,,,,,11,,,71,0
65472,note_on,,0,0,2,,,,,,,,11,,,78,0
65472,note_on,,0,0,2,,,,,,,,11,,,71,108
65472,note_on,,96,0,6,,,,,,,,0,,,78,0
65472,note_on,,192,0,8,,,,,,,,2,,,71,0
65472,note_on,,0,0,2,,,,,,,,11,,,79,108
65472,note_on,,2,0,13,,,,,,,,7,,,67,108
65472,note_on,,0,0,13,,,,,,,,7,,,76,108
65472,note_on,,0,0,8,,,,,,,,2,,,71,92
65472,note_on,,0,0,6,,,,,,,,0,,,79,108
65566,note_on,,0,0,13,,,,,,,,7,,,76,0
65566,note_on,,94,0,13,,,,,,,,7,,,67,0
65568,note_on,,96,0,6,,,,,,,,0,,,79,0
65568,note_on,,0,0,1,,,,,,,,10,,,69,108
65568,note_on,,0,0,7,,,,,,,,1,,,78,108
65568,note_on,,0,0,6,,,,,,,,0,,,81,108
65568,note_on,,0,0,13,,,,,,,,7,,,78,108
65568,note_on,,2,0,13,,,,,,,,7,,,69,108
65568,note_on,,96,0,3,,,,,,,,12,,,64,0
65568,note_on,,0,0,3,,,,,,,,12,,,66,108
65568,note_on,,96,0,1,,,,,,,,10,,,67,0
65568,note_on,,96,0,7,,,,,,,,1,,,76,0
65568,note_on,,96,0,11,,,,,,,,5,,,67,0
65568,note_on,,0,0,12,,,,,,,,6,,,66,92
65568,note_on,,96,0,12,,,,,,,,6,,,64,0
65568,note_on,,96,0,2,,,,,,,,11,,,79,0
65568,note_on,,0,0,2,,,,,,,,11,,,81,108
65568,note_on,,0,0,11,,,,,,,,5,,,69,92
65662,note_on,,0,0,13,,,,,,,,7,,,78,0
65662,note_on,,94,0,13,,,,,,,,7,,,69,0
65664,note_on,,96,0,12,,,,,,,,6,,,66,0
65664,note_on,,96,0,3,,,,,,,,12,,,66,0
65664,note_on,,192,0,14,,,,,,,,8,,,59,0
65664,note_on,,96,0,2,,,,,,,,11,,,71,0
65664,note_on,,0,0,2,,,,,,,,11,,,81,0
65664,note_on,,0,0,11,,,,,,,,5,,,67,92
65664,note_on,,96,0,11,,,,,,,,5,,,69,0
65664,note_on,,0,0,2,,,,,,,,11,,,71,108
65664,note_on,,0,0,2,,,,,,,,11,,,79,108
65664,note_on,,96,0,1,,,,,,,,10,,,69,0
65664,note_on,,0,0,1,,,,,,,,10,,,67,108
65664,note_on,,0,0,13,,,,,,,,7,,,76,108
65664,note_on,,2,0,13,,,,,,,,7,,,67,108
65664,note_on,,0,0,8,,,,,,,,2,,,71,92
65664,note_on,,192,0,8,,,,,,,,2,,,71,0
65664,note_on,,0,0,12,,,,,,,,6,,,64,92
65664,note_on,,0,0,3,,,,,,,,12,,,64,108
65664,note_on,,0,0,13,,,,,,,,7,,,71,108
65664,note_on,,96,0,6,,,,,,,,0,,,81,0
65664,note_on,,96,0,7,,,,,,,,1,,,78,0
65664,note_on,,0,0,7,,,,,,,,1,,,76,108
65664,note_on,,0,0,6,,,,,,,,0,,,79,108
65824,note_on,,0,0,13,,,,,,,,7,,,76,0
65824,note_on,,0,0,13,,,,,,,,7,,,71,0
65824,note_on,,160,0,13,,,,,,,,7,,,67,0
65856,note_on,,0,0,10,,,,,,,,4,,,47,75
65856,note_on,,0,0,2,,,,,,,,11,,,79,0
65856,note_on,,0,0,3,,,,,,,,12,,,64,108
65856,note_on,,192,0,3,,,,,,,,12,,,64,0
65856,note_on,,192,0,6,,,,,,,,0,,,79,0
65856,note_on,,0,0,6,,,,,,,,0,,,79,108
65856,note_on,,0,0,2,,,,,,,,11,,,79,108
65856,note_on,,0,0,8,,,,,,,,2,,,71,92
65856,note_on,,576,0,4,,,,,,,,13,,,59,0
65856,note_on,,0,0,4,,,,,,,,13,,,59,108
65856,note_on,,0,0,2,,,,,,,,11,,,71,108
65856,note_on,,0,0,7,,,,,,,,1,,,76,108
65856,note_on,,192,0,7,,,,,,,,1,,,76,0
65856,note_on,,192,0,1,,,,,,,,10,,,67,0
65856,note_on,,576,0,10,,,,,,,,4,,,40,0
65856,note_on,,576,0,9,,,,,,,,3,,,52,0
65856,note_on,,0,0,9,,,,,,,,3,,,59,92
65856,note_on,,192,0,2,,,,,,,,11,,,71,0
65856,note_on,,0,0,13,,,,,,,,7,,,78,108
65856,note_on,,192,0,12,,,,,,,,6,,,64,0
65856,note_on,,0,0,12,,,,,,,,6,,,64,92
65856,note_on,,32,0,13,,,,,,,,7,,,75,108
65856,note_on,,192,0,8,,,,,,,,2,,,71,0
65856,note_on,,192,0,14,,,,,,,,8,,,66,108
65856,note_on,,0,0,11,,,,,,,,5,,,67,92
65856,note_on,,0,0,1,,,,,,,,10,,,67,108
65856,note_on,,0,0,5,,,,,,,,14,,,62,108
65856,note_on,,576,0,5,,,,,,,,14,,,52,0
65856,note_on,,192,0,11,,,,,,,,5,,,67,0
66016,note_on,,0,0,13,,,,,,,,7,,,78,0
66016,note_on,,160,0,13,,,,,,,,7,,,75,0
66048,note_on,,192,0,2,,,,,,,,11,,,71,0
66048,note_on,,0,0,8,,,,,,,,2,,,69,92
66048,note_on,,192,0,1,,,,,,,,10,,,67,0
66048,note_on,,192,0,12,,,,,,,,6,,,64,0
66048,note_on,,0,0,12,,,,,,,,6,,,67,92
66048,note_on,,0,0,10,,,,,,,,4,,,49,75
66048,note_on,,192,0,10,,,,,,,,4,,,47,0
66048,note_on,,192,0,4,,,,,,,,13,,,59,0
66048,note_on,,192,0,9,,,,,,,,3,,,59,0
66048,note_on,,0,0,2,,,,,,,,11,,,79,108
66048,note_on,,0,0,2,,,,,,,,11,,,69,108
66048,note_on,,0,0,14,,,,,,,,8,,,64,108
66048,note_on,,192,0,14,,,,,,,,8,,,66,0
66048,note_on,,0,0,2,,,,,,,,11,,,79,0
66048,note_on,,0,0,4,,,,,,,,13,,,61,108
66048,note_on,,0,0,1,,,,,,,,10,,,76,108
66048,note_on,,0,0,9,,,,,,,,3,,,61,92
66048,note_on,,192,0,3,,,,,,,,12,,,64,0
66048,note_on,,192,0,8,,,,,,,,2,,,71,0
66048,note_on,,0,0,5,,,,,,,,14,,,61,108
66048,note_on,,192,0,11,,,,,,,,5,,,67,0
66048,note_on,,0,0,11,,,,,,,,5,,,76,92
66048,note_on,,0,0,3,,,,,,,,12,,,67,108
66048,note_on,,192,0,6,,,,,,,,0,,,79,0
66048,note_on,,0,0,6,,,,,,,,0,,,79,108
66048,note_on,,32,0,13,,,,,,,,7,,,76,108
66048,note_on,,192,0,5,,,,,,,,14,,,62,0
66048,note_on,,0,0,7,,,,,,,,1,,,76,108
66048,note_on,,192,0,7,,,,,,,,1,,,76,0
66048,note_on,,0,0,13,,,,,,,,7,,,79,108
66384,note_on,,336,0,13,,,,,,,,7,,,76,0
66384,note_on,,0,0,13,,,,,,,,7,,,79,0
66432,note_on,,384,0,1,,,,,,,,10,,,76,0
66432,note_on,,0,0,8,,,,,,,,2,,,64,92
66432,note_on,,0,0,11,,,,,,,,5,,,73,92
66432,note_on,,0,0,14,,,,,,,,8,,,69,108
66432,note_on,,384,0,14,,,,,,,,8,,,64,0
66432,note_on,,384,0,11,,,,,,,,5,,,76,0
66432,note_on,,384,0,8,,,,,,,,2,,,69,0
66432,note_on,,0,0,1,,,,,,,,10,,,73,108
66432,note_on,,48,0,13,,,,,,,,7,,,73,108
66432,note_on,,0,0,10,,,,,,,,4,,,45,75
66432,note_on,,384,0,9,,,,,,,,3,,,61,0
66432,note_on,,0,0,9,,,,,,,,3,,,57,92
66432,note_on,,384,0,10,,,,,,,,4,,,49,0
66432,note_on,,384,0,7,,,,,,,,1,,,76,0
66432,note_on,,0,0,4,,,,,,,,13,,,64,108
66432,note_on,,384,0,4,,,,,,,,13,,,61,0
66432,note_on,,0,0,7,,,,,,,,1,,,76,108
66432,note_on,,0,0,6,,,,,,,,0,,,85,108
66432,note_on,,384,0,6,,,,,,,,0,,,79,0
66432,note_on,,0,0,13,,,,,,,,7,,,76,108
66432,note_on,,0,0,5,,,,,,,,14,,,57,108
66432,note_on,,384,0,5,,,,,,,,14,,,61,0
66432,note_on,,384,0,2,,,,,,,,11,,,69,0
66432,note_on,,0,0,2,,,,,,,,11,,,73,108
66624,note_on,,0,0,2,,,,,,,,11,,,79,108
66624,note_on,,576,0,3,,,,,,,,12,,,67,0
66624,note_on,,0,0,3,,,,,,,,12,,,67,108
66624,note_on,,192,0,2,,,,,,,,11,,,79,0
66624,note_on,,0,0,12,,,,,,,,6,,,67,92
66624,note_on,,576,0,12,,,,,,,,6,,,67,0
66720,note_on,,288,0,7,,,,,,,,1,,,76,0
66720,note_on,,0,0,7,,,,,,,,1,,,78,108
66768,note_on,,0,0,7,,,,,,,,1,,,79,108
66768,note_on,,0,0,13,,,,,,,,7,,,76,0
66768,note_on,,336,0,13,,,,,,,,7,,,73,0
66768,note_on,,48,0,7,,,,,,,,1,,,78,0
66816,note_on,,384,0,6,,,,,,,,0,,,85,0
66816,note_on,,0,0,2,,,,,,,,11,,,78,108
66816,note_on,,192,0,12,,,,,,,,6,,,67,0
66816,note_on,,48,0,7,,,,,,,,1,,,79,0
66816,note_on,,384,0,4,,,,,,,,13,,,64,0
66816,note_on,,0,0,4,,,,,,,,13,,,62,108
66816,note_on,,192,0,3,,,,,,,,12,,,67,0
66816,note_on,,384,0,10,,,,,,,,4,,,45,0
66816,note_on,,0,0,2,,,,,,,,11,,,74,108
66816,note_on,,48,0,13,,,,,,,,7,,,74,108
66816,note_on,,0,0,3,,,,,,,,12,,,66,108
66816,note_on,,0,0,5,,,,,,,,14,,,59,108
66816,note_on,,384,0,5,,,,,,,,14,,,57,0
66816,note_on,,0,0,6,,,,,,,,0,,,86,108
66816,note_on,,0,0,10,,,,,,,,4,,,47,75
66816,note_on,,0,0,13,,,,,,,,7,,,78,108
66816,note_on,,384,0,11,,,,,,,,5,,,73,0
66816,note_on,,192,0,2,,,,,,,,11,,,73,0
66816,note_on,,0,0,11,,,,,,,,5,,,74,92
66816,note_on,,0,0,14,,,,,,,,8,,,62,108
66816,note_on,,384,0,14,,,,,,,,8,,,69,0
66816,note_on,,0,0,12,,,,,,,,6,,,66,92
66816,note_on,,384,0,8,,,,,,,,2,,,64,0
66816,note_on,,0,0,8,,,,,,,,2,,,62,92
66816,note_on,,384,0,9,,,,,,,,3,,,57,0
66816,note_on,,0,0,7,,,,,,,,1,,,78,108
66816,note_on,,0,0,2,,,,,,,,11,,,79,0
66816,note_on,,384,0,1,,,,,,,,10,,,73,0
66816,note_on,,0,0,9,,,,,,,,3,,,59,92
66816,note_on,,0,0,1,,,,,,,,10,,,74,108
66976,note_on,,0,0,13,,,,,,,,7,,,78,0
66976,note_on,,160,0,13,,,,,,,,7,,,74,0
67008,note_on,,192,0,11,,,,,,,,5,,,74,0
67008,note_on,,0,0,11,,,,,,,,5,,,76,92
67008,note_on,,0,0,1,,,,,,,,10,,,76,108
67008,note_on,,0,0,7,,,,,,,,1,,,76,108
67008,note_on,,192,0,7,,,,,,,,1,,,78,0
67008,note_on,,192,0,5,,,,,,,,14,,,59,0
67008,note_on,,192,0,4,,,,,,,,13,,,62,0
67008,note_on,,0,0,9,,,,,,,,3,,,55,92
67008,note_on,,192,0,8,,,,,,,,2,,,62,0
67008,note_on,,32,0,13,,,,,,,,7,,,73,108
67008,note_on,,0,0,8,,,,,,,,2,,,71,92
67008,note_on,,192,0,1,,,,,,,,10,,,74,0
67008,note_on,,0,0,13,,,,,,,,7,,,76,108
67008,note_on,,0,0,4,,,,,,,,13,,,59,108
67008,note_on,,0,0,5,,,,,,,,14,,,55,108
67008,note_on,,192,0,9,,,,,,,,3,,,59,0
67008,note_on,,0,0,2,,,,,,,,11,,,79,108
67008,note_on,,0,0,14,,,,,,,,8,,,67,108
67008,note_on,,0,0,2,,,,,,,,11,,,78,0
67008,note_on,,0,0,12,,,,,,,,6,,,67,92
67008,note_on,,192,0,12,,,,,,,,6,,,66,0
67008,note_on,,0,0,2,,,,,,,,11,,,76,108
67008,note_on,,192,0,14,,,,,,,,8,,,62,0
67008,note_on,,192,0,10,,,,,,,,4,,,47,0
67008,note_on,,0,0,10,,,,,,,,4,,,43,75
67008,note_on,,0,0,6,,,,,,,,0,,,79,108
67008,note_on,,192,0,6,,,,,,,,0,,,86,0
67008,note_on,,192,0,3,,,,,,,,12,,,66,0
67008,note_on,,0,0,3,,,,,,,,12,,,67,108
67008,note_on,,192,0,2,,,,,,,,11,,,74,0
67102,note_on,,94,0,13,,,,,,,,7,,,73,0
67102,note_on,,0,0,13,,,,,,,,7,,,76,0
67104,note_on,,0,0,3,,,,,,,,12,,,66,108
67104,note_on,,96,0,3,,,,,,,,12,,,67,0
67104,note_on,,0,0,2,,,,,,,,11,,,78,108
67104,note_on,,0,0,2,,,,,,,,11,,,74,108
67104,note_on,,0,0,2,,,,,,,,11,,,79,0
67104,note_on,,96,0,2,,,,,,,,11,,,76,0
67104,note_on,,0,0,1,,,,,,,,10,,,74,108
67104,note_on,,96,0,1,,,,,,,,10,,,76,0
67104,note_on,,96,0,11,,,,,,,,5,,,76,0
67104,note_on,,0,0,7,,,,,,,,1,,,74,108
67104,note_on,,96,0,7,,,,,,,,1,,,76,0
67104,note_on,,96,0,6,,,,,,,,0,,,79,0
67104,note_on,,0,0,6,,,,,,,,0,,,78,108
67104,note_on,,0,0,13,,,,,,,,7,,,74,108
67104,note_on,,2,0,13,,,,,,,,7,,,71,108
67104,note_on,,0,0,11,,,,,,,,5,,,74,92
67198,note_on,,94,0,13,,,,,,,,7,,,71,0
67198,note_on,,0,0,13,,,,,,,,7,,,74,0
67200,note_on,,96,0,7,,,,,,,,1,,,74,0
67200,note_on,,192,0,14,,,,,,,,8,,,67,0
67200,note_on,,0,0,14,,,,,,,,8,,,69,108
67200,note_on,,192,0,9,,,,,,,,3,,,55,0
67200,note_on,,192,0,4,,,,,,,,13,,,59,0
67200,note_on,,2,0,13,,,,,,,,7,,,73,108
67200,note_on,,0,0,2,,,,,,,,11,,,76,108
67200,note_on,,0,0,2,,,,,,,,11,,,73,108
67200,note_on,,0,0,2,,,,,,,,11,,,78,0
67200,note_on,,96,0,2,,,,,,,,11,,,74,0
67200,note_on,,0,0,8,,,,,,,,2,,,64,92
67200,note_on,,0,0,12,,,,,,,,6,,,67,92
67200,note_on,,192,0,12,,,,,,,,6,,,67,0
67200,note_on,,0,0,7,,,,,,,,1,,,73,108
67200,note_on,,192,0,8,,,,,,,,2,,,71,0
67200,note_on,,0,0,4,,,,,,,,13,,,64,108
67200,note_on,,0,0,11,,,,,,,,5,,,73,92
67200,note_on,,96,0,3,,,,,,,,12,,,66,0
67200,note_on,,0,0,3,,,,,,,,12,,,64,108
67200,note_on,,0,0,10,,,,,,,,4,,,45,75
67200,note_on,,192,0,5,,,,,,,,14,,,55,0
67200,note_on,,192,0,10,,,,,,,,4,,,43,0
67200,note_on,,0,0,5,,,,,,,,14,,,57,108
67200,note_on,,96,0,6,,,,,,,,0,,,78,0
67200,note_on,,0,0,6,,,,,,,,0,,,76,108
67200,note_on,,96,0,11,,,,,,,,5,,,74,0
67200,note_on,,96,0,1,,,,,,,,10,,,74,0
67200,note_on,,0,0,1,,,,,,,,10,,,73,108
67200,note_on,,0,0,9,,,,,,,,3,,,57,92
67392,note_on,,0,0,6,,,,,,,,0,,,85,108
67392,note_on,,192,0,12,,,,,,,,6,,,67,0
67392,note_on,,0,0,12,,,,,,,,6,,,69,92
67392,note_on,,192,0,9,,,,,,,,3,,,57,0
67392,note_on,,192,0,14,,,,,,,,8,,,69,0
67392,note_on,,0,0,9,,,,,,,,3,,,57,92
67392,note_on,,0,0,4,,,,,,,,13,,,64,108
67392,note_on,,192,0,3,,,,,,,,12,,,64,0
67392,note_on,,192,0,10,,,,,,,,4,,,45,0
67392,note_on,,192,0,4,,,,,,,,13,,,64,0
67392,note_on,,192,0,8,,,,,,,,2,,,64,0
67392,note_on,,192,0,5,,,,,,,,14,,,57,0
67392,note_on,,0,0,5,,,,,,,,14,,,57,108
67392,note_on,,0,0,8,,,,,,,,2,,,69,92
67392,note_on,,192,0,7,,,,,,,,1,,,73,0
67392,note_on,,192,0,6,,,,,,,,0,,,76,0
67392,note_on,,0,0,10,,,,,,,,4,,,45,75
67392,note_on,,0,0,7,,,,,,,,1,,,76,108
67392,note_on,,0,0,3,,,,,,,,12,,,69,108
67392,note_on,,0,0,14,,,,,,,,8,,,57,108
67392,note_on,,0,0,14,,,,,,,,8,,,67,108
67456,note_on,,256,0,13,,,,,,,,7,,,73,0
67488,note_on,,288,0,11,,,,,,,,5,,,73,0
67488,note_on,,0,0,11,,,,,,,,5,,,74,92
67488,note_on,,32,0,13,,,,,,,,7,,,74,108
67488,note_on,,0,0,2,,,,,,,,11,,,76,0
67488,note_on,,288,0,1,,,,,,,,10,,,73,0
67488,note_on,,288,0,2,,,,,,,,11,,,73,0
67488,note_on,,0,0,1,,,,,,,,10,,,74,108
67488,note_on,,0,0,2,,,,,,,,11,,,74,108
67582,note_on,,94,0,13,,,,,,,,7,,,74,0
67584,note_on,,0,0,2,,,,,,,,11,,,74,108
67584,note_on,,0,0,4,,,,,,,,13,,,66,108
67584,note_on,,0,0,5,,,,,,,,14,,,50,108
67584,note_on,,192,0,5,,,,,,,,14,,,57,0
67584,note_on,,96,0,2,,,,,,,,11,,,74,0
67584,note_on,,192,0,4,,,,,,,,13,,,64,0
67584,note_on,,0,0,3,,,,,,,,12,,,69,108
67584,note_on,,192,0,3,,,,,,,,12,,,69,0
67584,note_on,,0,0,9,,,,,,,,3,,,50,92
67584,note_on,,192,0,9,,,,,,,,3,,,57,0
67584,note_on,,0,0,1,,,,,,,,10,,,74,108
67584,note_on,,96,0,1,,,,,,,,10,,,74,0
67584,note_on,,192,0,6,,,,,,,,0,,,85,0
67584,note_on,,0,0,6,,,,,,,,0,,,86,108
67584,note_on,,0,0,7,,,,,,,,1,,,78,108
67584,note_on,,192,0,7,,,,,,,,1,,,76,0
67584,note_on,,192,0,14,,,,,,,,8,,,57,0
67584,note_on,,0,0,14,,,,,,,,8,,,67,0
67584,note_on,,0,0,14,,,,,,,,8,,,62,108
67584,note_on,,0,0,14,,,,,,,,8,,,66,108
67584,note_on,,192,0,8,,,,,,,,2,,,69,0
67584,note_on,,0,0,8,,,,,,,,2,,,66,92
67584,note_on,,0,0,12,,,,,,,,6,,,69,92
67584,note_on,,0,0,11,,,,,,,,5,,,74,92
67584,note_on,,96,0,11,,,,,,,,5,,,74,0
67584,note_on,,2,0,13,,,,,,,,7,,,74,108
67584,note_on,,192,0,10,,,,,,,,4,,,45,0
67584,note_on,,0,0,10,,,,,,,,4,,,38,75
67584,note_on,,192,0,12,,,,,,,,6,,,69,0
68304,note_on,,720,0,13,,,,,,,,7,,,74,0
68352,note_on,,0,0,4,,,,,,,,13,,,59,108
68352,note_on,,0,0,1,,,,,,,,10,,,74,108
68352,note_on,,768,0,1,,,,,,,,10,,,74,0
68352,note_on,,0,0,2,,,,,,,,11,,,74,108
68352,note_on,,0,0,2,,,,,,,,11,,,71,108
68352,note_on,,768,0,2,,,,,,,,11,,,74,0
68352,note_on,,768,0,6,,,,,,,,0,,,86,0
68352,note_on,,0,0,9,,,,,,,,3,,,55,92
68352,note_on,,768,0,11,,,,,,,,5,,,74,0
68352,note_on,,0,0,3,,,,,,,,12,,,67,108
68352,note_on,,768,0,3,,,,,,,,12,,,69,0
68352,note_on,,768,0,10,,,,,,,,4,,,38,0
68352,note_on,,0,0,6,,,,,,,,0,,,86,108
68352,note_on,,0,0,11,,,,,,,,5,,,74,127
68352,note_on,,768,0,9,,,,,,,,3,,,50,0
68352,note_on,,0,0,10,,,,,,,,4,,,43,75
68352,note_on,,768,0,12,,,,,,,,6,,,69,0
68352,note_on,,768,0,4,,,,,,,,13,,,66,0
68352,note_on,,48,0,13,,,,,,,,7,,,71,108
68352,note_on,,0,0,5,,,,,,,,14,,,55,108
68352,note_on,,768,0,5,,,,,,,,14,,,50,0
68352,note_on,,0,0,12,,,,,,,,6,,,71,127
68352,note_on,,0,0,8,,,,,,,,2,,,67,92
68352,note_on,,768,0,8,,,,,,,,2,,,66,0
68352,note_on,,768,0,14,,,,,,,,8,,,62,0
68352,note_on,,0,0,7,,,,,,,,1,,,83,108
68352,note_on,,768,0,7,,,,,,,,1,,,78,0
68352,note_on,,0,0,14,,,,,,,,8,,,66,0
68352,note_on,,0,0,13,,,,,,,,7,,,74,108
68352,note_on,,0,0,14,,,,,,,,8,,,67,108
68736,note_on,,0,0,11,,,,,,,,5,,,71,127
68736,note_on,,0,0,8,,,,,,,,2,,,62,92
68736,note_on,,0,0,13,,,,,,,,7,,,74,0
68736,note_on,,384,0,13,,,,,,,,7,,,71,0
68736,note_on,,0,0,9,,,,,,,,3,,,59,92
68736,note_on,,384,0,3,,,,,,,,12,,,67,0
68736,note_on,,0,0,3,,,,,,,,12,,,67,108
68736,note_on,,0,0,10,,,,,,,,4,,,47,75
68736,note_on,,0,0,12,,,,,,,,6,,,67,127
68736,note_on,,384,0,12,,,,,,,,6,,,71,0
68736,note_on,,384,0,2,,,,,,,,11,,,71,0
68736,note_on,,0,0,2,,,,,,,,11,,,74,0
68736,note_on,,0,0,2,,,,,,,,11,,,67,108
68736,note_on,,0,0,2,,,,,,,,11,,,71,108
68736,note_on,,384,0,11,,,,,,,,5,,,74,0
68736,note_on,,384,0,8,,,,,,,,2,,,67,0
68736,note_on,,384,0,10,,,,,,,,4,,,43,0
68736,note_on,,384,0,5,,,,,,,,14,,,55,0
68736,note_on,,0,0,13,,,,,,,,7,,,67,108
68736,note_on,,0,0,1,,,,,,,,10,,,71,108
68736,note_on,,0,0,7,,,,,,,,1,,,79,108
68736,note_on,,384,0,7,,,,,,,,1,,,83,0
68736,note_on,,0,0,5,,,,,,,,14,,,59,108
68736,note_on,,0,0,4,,,,,,,,13,,,62,108
68736,note_on,,384,0,1,,,,,,,,10,,,74,0
68736,note_on,,384,0,4,,,,,,,,13,,,59,0
68736,note_on,,384,0,14,,,,,,,,8,,,67,0
68736,note_on,,384,0,6,,,,,,,,0,,,86,0
68736,note_on,,0,0,6,,,,,,,,0,,,83,108
68736,note_on,,384,0,9,,,,,,,,3,,,55,0
68736,note_on,,0,0,13,,,,,,,,7,,,71,108
68736,note_on,,0,0,14,,,,,,,,8,,,55,108
69024,note_on,,0,0,11,,,,,,,,5,,,72,127
69024,note_on,,288,0,11,,,,,,,,5,,,71,0
69024,note_on,,0,0,13,,,,,,,,7,,,72,108
69024,note_on,,0,0,13,,,,,,,,7,,,69,108
69024,note_on,,0,0,13,,,,,,,,7,,,71,0
69024,note_on,,288,0,2,,,,,,,,11,,,67,0
69024,note_on,,0,0,2,,,,,,,,11,,,71,0
69024,note_on,,288,0,13,,,,,,,,7,,,67,0
69024,note_on,,0,0,2,,,,,,,,11,,,69,108
69024,note_on,,288,0,7,,,,,,,,1,,,79,0
69024,note_on,,288,0,3,,,,,,,,12,,,67,0
69024,note_on,,0,0,3,,,,,,,,12,,,66,108
69024,note_on,,288,0,1,,,,,,,,10,,,71,0
69024,note_on,,0,0,1,,,,,,,,10,,,72,108
69024,note_on,,0,0,10,,,,,,,,4,,,45,75
69024,note_on,,288,0,10,,,,,,,,4,,,47,0
69024,note_on,,0,0,7,,,,,,,,1,,,81,108
69024,note_on,,288,0,9,,,,,,,,3,,,59,0
69024,note_on,,0,0,2,,,,,,,,11,,,72,108
69024,note_on,,288,0,5,,,,,,,,14,,,59,0
69024,note_on,,288,0,4,,,,,,,,13,,,62,0
69024,note_on,,0,0,4,,,,,,,,13,,,60,108
69024,note_on,,0,0,12,,,,,,,,6,,,69,127
69024,note_on,,288,0,12,,,,,,,,6,,,67,0
69024,note_on,,288,0,6,,,,,,,,0,,,83,0
69024,note_on,,0,0,6,,,,,,,,0,,,84,108
69024,note_on,,0,0,5,,,,,,,,14,,,57,108
69024,note_on,,0,0,9,,,,,,,,3,,,57,92
69120,note_on,,0,0,3,,,,,,,,12,,,67,108
69120,note_on,,0,0,1,,,,,,,,10,,,74,108
69120,note_on,,96,0,1,,,,,,,,10,,,72,0
69120,note_on,,384,0,14,,,,,,,,8,,,55,0
69120,note_on,,96,0,11,,,,,,,,5,,,72,0
69120,note_on,,0,0,11,,,,,,,,5,,,74,127
69120,note_on,,0,0,14,,,,,,,,8,,,67,108
69120,note_on,,96,0,3,,,,,,,,12,,,66,0
69120,note_on,,0,0,9,,,,,,,,3,,,55,92
69120,note_on,,0,0,10,,,,,,,,4,,,43,75
69120,note_on,,96,0,10,,,,,,,,4,,,45,0
69120,note_on,,0,0,12,,,,,,,,6,,,71,127
69120,note_on,,96,0,12,,,,,,,,6,,,69,0
69120,note_on,,96,0,9,,,,,,,,3,,,57,0
69120,note_on,,0,0,6,,,,,,,,0,,,86,108
69120,note_on,,96,0,6,,,,,,,,0,,,84,0
69120,note_on,,0,0,2,,,,,,,,11,,,71,108
69120,note_on,,0,0,13,,,,,,,,7,,,71,108
69120,note_on,,0,0,13,,,,,,,,7,,,74,108
69120,note_on,,0,0,2,,,,,,,,11,,,74,108
69120,note_on,,0,0,2,,,,,,,,11,,,72,0
69120,note_on,,96,0,2,,,,,,,,11,,,69,0
69120,note_on,,0,0,13,,,,,,,,7,,,72,0
69120,note_on,,0,0,5,,,,,,,,14,,,55,108
69120,note_on,,96,0,13,,,,,,,,7,,,69,0
69120,note_on,,96,0,4,,,,,,,,13,,,60,0
69120,note_on,,0,0,4,,,,,,,,13,,,59,108
69120,note_on,,0,0,7,,,,,,,,1,,,83,108
69120,note_on,,96,0,7,,,,,,,,1,,,81,0
69120,note_on,,384,0,8,,,,,,,,2,,,62,0
69120,note_on,,0,0,8,,,,,,,,2,,,67,92
69120,note_on,,96,0,5,,,,,,,,14,,,57,0
69504,note_on,,384,0,9,,,,,,,,3,,,55,0
69504,note_on,,0,0,9,,,,,,,,3,,,59,92
69504,note_on,,0,0,12,,,,,,,,6,,,59,127
69504,note_on,,384,0,11,,,,,,,,5,,,74,0
69504,note_on,,0,0,10,,,,,,,,4,,,47,75
69504,note_on,,384,0,10,,,,,,,,4,,,43,0
69504,note_on,,0,0,5,,,,,,,,14,,,59,108
69504,note_on,,384,0,5,,,,,,,,14,,,55,0
69504,note_on,,384,0,4,,,,,,,,13,,,59,0
69504,note_on,,0,0,4,,,,,,,,13,,,62,108
69504,note_on,,0,0,6,,,,,,,,0,,,79,108
69504,note_on,,384,0,6,,,,,,,,0,,,86,0
69504,note_on,,384,0,12,,,,,,,,6,,,71,0
69504,note_on,,384,0,2,,,,,,,,11,,,71,0
69504,note_on,,384,0,8,,,,,,,,2,,,67,0
69504,note_on,,384,0,13,,,,,,,,7,,,71,0
69504,note_on,,0,0,11,,,,,,,,5,,,67,127
69504,note_on,,0,0,1,,,,,,,,10,,,67,108
69504,note_on,,384,0,1,,,,,,,,10,,,74,0
69504,note_on,,0,0,7,,,,,,,,1,,,74,108
69504,note_on,,0,0,3,,,,,,,,12,,,62,108
69504,note_on,,0,0,2,,,,,,,,11,,,79,108
69504,note_on,,0,0,13,,,,,,,,7,,,74,0
69504,note_on,,384,0,7,,,,,,,,1,,,83,0
69504,note_on,,0,0,2,,,,,,,,11,,,74,0
69504,note_on,,0,0,8,,,,,,,,2,,,67,92
69504,note_on,,0,0,13,,,,,,,,7,,,67,108
69504,note_on,,0,0,2,,,,,,,,11,,,74,108
69504,note_on,,384,0,3,,,,,,,,12,,,67,0
69696,note_on,,576,0,14,,,,,,,,8,,,67,0
69696,note_on,,0,0,14,,,,,,,,8,,,59,108
69696,note_on,,0,0,14,,,,,,,,8,,,62,108
69840,note_on,,336,0,13,,,,,,,,7,,,67,0
69888,note_on,,384,0,3,,,,,,,,12,,,62,0
69888,note_on,,0,0,3,,,,,,,,12,,,66,108
69888,note_on,,0,0,2,,,,,,,,11,,,69,108
69888,note_on,,0,0,2,,,,,,,,11,,,66,108
69888,note_on,,0,0,2,,,,,,,,11,,,79,0
69888,note_on,,384,0,2,,,,,,,,11,,,74,0
69888,note_on,,0,0,12,,,,,,,,6,,,62,127
69888,note_on,,0,0,14,,,,,,,,8,,,62,108
69888,note_on,,0,0,14,,,,,,,,8,,,62,0
69888,note_on,,384,0,12,,,,,,,,6,,,59,0
69888,note_on,,192,0,14,,,,,,,,8,,,59,0
69888,note_on,,384,0,4,,,,,,,,13,,,62,0
69888,note_on,,0,0,6,,,,,,,,0,,,81,108
69888,note_on,,384,0,6,,,,,,,,0,,,79,0
69888,note_on,,0,0,1,,,,,,,,10,,,69,108
69888,note_on,,384,0,1,,,,,,,,10,,,67,0
69888,note_on,,0,0,7,,,,,,,,1,,,78,108
69888,note_on,,384,0,7,,,,,,,,1,,,74,0
69888,note_on,,384,0,11,,,,,,,,5,,,67,0
69888,note_on,,0,0,13,,,,,,,,7,,,69,108
69888,note_on,,0,0,4,,,,,,,,13,,,60,108
69888,note_on,,0,0,11,,,,,,,,5,,,69,127
69888,note_on,,384,0,9,,,,,,,,3,,,59,0
69888,note_on,,0,0,9,,,,,,,,3,,,57,92
69888,note_on,,0,0,10,,,,,,,,4,,,45,75
69888,note_on,,384,0,10,,,,,,,,4,,,47,0
69888,note_on,,384,0,8,,,,,,,,2,,,67,0
69888,note_on,,48,0,13,,,,,,,,7,,,66,108
69888,note_on,,0,0,8,,,,,,,,2,,,60,92
69888,note_on,,0,0,5,,,,,,,,14,,,57,108
69888,note_on,,384,0,5,,,,,,,,14,,,59,0
69982,note_on,,94,0,13,,,,,,,,7,,,66,0
69982,note_on,,0,0,13,,,,,,,,7,,,69,0
69984,note_on,,0,0,2,,,,,,,,11,,,69,0
69984,note_on,,96,0,2,,,,,,,,11,,,66,0
69984,note_on,,2,0,13,,,,,,,,7,,,67,108
69984,note_on,,0,0,2,,,,,,,,11,,,67,108
69984,note_on,,0,0,13,,,,,,,,7,,,71,108
69984,note_on,,0,0,2,,,,,,,,11,,,71,108
69984,note_on,,96,0,1,,,,,,,,10,,,69,0
69984,note_on,,96,0,3,,,,,,,,12,,,66,0
69984,note_on,,96,0,6,,,,,,,,0,,,81,0
69984,note_on,,0,0,6,,,,,,,,0,,,83,108
69984,note_on,,0,0,11,,,,,,,,5,,,71,127
69984,note_on,,0,0,3,,,,,,,,12,,,67,108
69984,note_on,,96,0,7,,,,,,,,1,,,78,0
69984,note_on,,96,0,11,,,,,,,,5,,,69,0
69984,note_on,,0,0,1,,,,,,,,10,,,71,108
69984,note_on,,0,0,7,,,,,,,,1,,,79,108
70078,note_on,,94,0,13,,,,,,,,7,,,67,0
70078,note_on,,0,0,13,,,,,,,,7,,,71,0
70080,note_on,,192,0,14,,,,,,,,8,,,55,108
70080,note_on,,0,0,11,,,,,,,,5,,,72,127
70080,note_on,,0,0,6,,,,,,,,0,,,84,108
70080,note_on,,96,0,6,,,,,,,,0,,,83,0
70080,note_on,,0,0,1,,,,,,,,10,,,72,108
70080,note_on,,96,0,1,,,,,,,,10,,,71,0
70080,note_on,,96,0,11,,,,,,,,5,,,71,0
70080,note_on,,0,0,3,,,,,,,,12,,,69,108
70080,note_on,,0,0,2,,,,,,,,11,,,71,0
70080,note_on,,0,0,8,,,,,,,,2,,,66,92
70080,note_on,,96,0,7,,,,,,,,1,,,79,0
70080,note_on,,0,0,13,,,,,,,,7,,,72,108
70080,note_on,,2,0,13,,,,,,,,7,,,69,108
70080,note_on,,96,0,2,,,,,,,,11,,,67,0
70080,note_on,,192,0,8,,,,,,,,2,,,60,0
70080,note_on,,96,0,3,,,,,,,,12,,,67,0
70080,note_on,,192,0,4,,,,,,,,13,,,60,0
70080,note_on,,0,0,4,,,,,,,,13,,,57,108
70080,note_on,,0,0,7,,,,,,,,1,,,81,108
70080,note_on,,0,0,2,,,,,,,,11,,,69,108
70080,note_on,,0,0,2,,,,,,,,11,,,72,108
70080,note_on,,192,0,12,,,,,,,,6,,,62,0
70080,note_on,,0,0,12,,,,,,,,6,,,69,127
70174,note_on,,0,0,13,,,,,,,,7,,,72,0
70174,note_on,,94,0,13,,,,,,,,7,,,69,0
70176,note_on,,0,0,13,,,,,,,,7,,,74,108
70176,note_on,,96,0,6,,,,,,,,0,,,84,0
70176,note_on,,0,0,6,,,,,,,,0,,,86,108
70176,note_on,,2,0,13,,,,,,,,7,,,71,108
70176,note_on,,0,0,9,,,,,,,,3,,,55,92
70176,note_on,,288,0,9,,,,,,,,3,,,57,0
70176,note_on,,96,0,11,,,,,,,,5,,,72,0
70176,note_on,,0,0,7,,,,,,,,1,,,83,108
70176,note_on,,96,0,7,,,,,,,,1,,,81,0
70176,note_on,,0,0,11,,,,,,,,5,,,74,127
70176,note_on,,288,0,5,,,,,,,,14,,,57,0
70176,note_on,,288,0,10,,,,,,,,4,,,45,0
70176,note_on,,0,0,10,,,,,,,,4,,,43,75
70176,note_on,,96,0,2,,,,,,,,11,,,69,0
70176,note_on,,0,0,2,,,,,,,,11,,,72,0
70176,note_on,,0,0,2,,,,,,,,11,,,71,108
70176,note_on,,96,0,3,,,,,,,,12,,,69,0
70176,note_on,,0,0,5,,,,,,,,14,,,55,108
70176,note_on,,0,0,2,,,,,,,,11,,,74,108
70176,note_on,,96,0,1,,,,,,,,10,,,72,0
70176,note_on,,0,0,1,,,,,,,,10,,,74,108
70176,note_on,,0,0,3,,,,,,,,12,,,71,108
70270,note_on,,94,0,13,,,,,,,,7,,,71,0
70270,note_on,,0,0,13,,,,,,,,7,,,74,0
70272,note_on,,0,0,1,,,,,,,,10,,,72,108
70272,note_on,,0,0,8,,,,,,,,2,,,66,92
70272,note_on,,96,0,7,,,,,,,,1,,,83,0
70272,note_on,,0,0,7,,,,,,,,1,,,81,108
70272,note_on,,96,0,11,,,,,,,,5,,,74,0
70272,note_on,,0,0,6,,,,,,,,0,,,84,108
70272,note_on,,96,0,6,,,,,,,,0,,,86,0
70272,note_on,,0,0,11,,,,,,,,5,,,72,127
70272,note_on,,0,0,5,,,,,,,,14,,,54,108
70272,note_on,,96,0,1,,,,,,,,10,,,74,0
70272,note_on,,96,0,5,,,,,,,,14,,,55,0
70272,note_on,,96,0,9,,,,,,,,3,,,55,0
70272,note_on,,0,0,12,,,,,,,,6,,,69,127
70272,note_on,,96,0,2,,,,,,,,11,,,71,0
70272,note_on,,0,0,2,,,,,,,,11,,,74,0
70272,note_on,,0,0,2,,,,,,,,11,,,69,108
70272,note_on,,0,0,2,,,,,,,,11,,,72,108
70272,note_on,,0,0,4,,,,,,,,13,,,62,108
70272,note_on,,192,0,4,,,,,,,,13,,,57,0
70272,note_on,,96,0,3,,,,,,,,12,,,71,0
70272,note_on,,0,0,3,,,,,,,,12,,,69,108
70272,note_on,,192,0,12,,,,,,,,6,,,69,0
70272,note_on,,96,0,10,,,,,,,,4,,,43,0
70272,note_on,,0,0,10,,,,,,,,4,,,42,75
70272,note_on,,0,0,14,,,,,,,,8,,,54,108
70272,note_on,,0,0,9,,,,,,,,3,,,54,92
70272,note_on,,192,0,14,,,,,,,,8,,,55,0
70272,note_on,,192,0,8,,,,,,,,2,,,66,0
70272,note_on,,2,0,13,,,,,,,,7,,,69,108
70272,note_on,,0,0,13,,,,,,,,7,,,72,108
70432,note_on,,160,0,13,,,,,,,,7,,,69,0
70432,note_on,,0,0,13,,,,,,,,7,,,72,0
70464,note_on,,192,0,14,,,,,,,,8,,,54,0
70464,note_on,,0,0,14,,,,,,,,8,,,55,108
70464,note_on,,32,0,13,,,,,,,,7,,,67,108
70464,note_on,,0,0,13,,,,,,,,7,,,71,108
70464,note_on,,0,0,11,,,,,,,,5,,,71,127
70464,note_on,,192,0,5,,,,,,,,14,,,54,0
70464,note_on,,0,0,5,,,,,,,,14,,,55,108
70464,note_on,,0,0,8,,,,,,,,2,,,62,92
70464,note_on,,192,0,8,,,,,,,,2,,,66,0
70464,note_on,,0,0,12,,,,,,,,6,,,67,127
70464,note_on,,192,0,12,,,,,,,,6,,,69,0
70464,note_on,,192,0,11,,,,,,,,5,,,72,0
70464,note_on,,192,0,4,,,,,,,,13,,,62,0
70464,note_on,,0,0,3,,,,,,,,12,,,67,108
70464,note_on,,0,0,7,,,,,,,,1,,,79,108
70464,note_on,,192,0,7,,,,,,,,1,,,81,0
70464,note_on,,192,0,10,,,,,,,,4,,,42,0
70464,note_on,,192,0,3,,,,,,,,12,,,69,0
70464,note_on,,0,0,10,,,,,,,,4,,,43,75
70464,note_on,,192,0,1,,,,,,,,10,,,72,0
70464,note_on,,0,0,1,,,,,,,,10,,,71,108
70464,note_on,,192,0,6,,,,,,,,0,,,84,0
70464,note_on,,0,0,4,,,,,,,,13,,,62,108
70464,note_on,,0,0,6,,,,,,,,0,,,83,108
70464,note_on,,0,0,9,,,,,,,,3,,,55,92
70464,note_on,,0,0,2,,,,,,,,11,,,71,108
70464,note_on,,0,0,2,,,,,,,,11,,,67,108
70464,note_on,,0,0,2,,,,,,,,11,,,72,0
70464,note_on,,192,0,2,,,,,,,,11,,,69,0
70464,note_on,,192,0,9,,,,,,,,3,,,54,0
70624,note_on,,0,0,13,,,,,,,,7,,,71,0
70624,note_on,,160,0,13,,,,,,,,7,,,67,0
70656,note_on,,192,0,9,,,,,,,,3,,,55,0
70656,note_on,,192,0,10,,,,,,,,4,,,43,0
70656,note_on,,0,0,9,,,,,,,,3,,,50,92
70656,note_on,,0,0,10,,,,,,,,4,,,38,75
70656,note_on,,0,0,13,,,,,,,,7,,,69,108
70656,note_on,,192,0,3,,,,,,,,12,,,67,0
70656,note_on,,192,0,2,,,,,,,,11,,,67,0
70656,note_on,,192,0,14,,,,,,,,8,,,55,0
70656,note_on,,0,0,14,,,,,,,,8,,,62,0
70656,note_on,,0,0,14,,,,,,,,8,,,62,108
70656,note_on,,0,0,6,,,,,,,,0,,,81,108
70656,note_on,,192,0,6,,,,,,,,0,,,83,0
70656,note_on,,0,0,4,,,,,,,,13,,,62,108
70656,note_on,,192,0,4,,,,,,,,13,,,62,0
70656,note_on,,0,0,3,,,,,,,,12,,,66,108
70656,note_on,,32,0,13,,,,,,,,7,,,66,108
70656,note_on,,0,0,1,,,,,,,,10,,,69,108
70656,note_on,,192,0,11,,,,,,,,5,,,71,0
70656,note_on,,192,0,8,,,,,,,,2,,,62,0
70656,note_on,,0,0,8,,,,,,,,2,,,62,92
70656,note_on,,0,0,5,,,,,,,,14,,,50,108
70656,note_on,,0,0,12,,,,,,,,6,,,62,127
70656,note_on,,192,0,12,,,,,,,,6,,,67,0
70656,note_on,,192,0,5,,,,,,,,14,,,55,0
70656,note_on,,192,0,1,,,,,,,,10,,,71,0
70656,note_on,,0,0,11,,,,,,,,5,,,69,127
70656,note_on,,0,0,7,,,,,,,,1,,,78,108
70656,note_on,,192,0,7,,,,,,,,1,,,79,0
70656,note_on,,0,0,2,,,,,,,,11,,,69,108
70656,note_on,,0,0,2,,,,,,,,11,,,66,108
70656,note_on,,0,0,2,,,,,,,,11,,,71,0
71376,note_on,,720,0,13,,,,,,,,7,,,66,0
71376,note_on,,0,0,13,,,,,,,,7,,,69,0
71424,note_on,,768,0,10,,,,,,,,4,,,38,0
71424,note_on,,768,0,1,,,,,,,,10,,,69,0
71424,note_on,,0,0,2,,,,,,,,11,,,69,0
71424,note_on,,768,0,8,,,,,,,,2,,,62,0
71424,note_on,,0,0,8,,,,,,,,2,,,62,92
71424,note_on,,0,0,5,,,,,,,,14,,,59,108
71424,note_on,,0,0,14,,,,,,,,8,,,67,108
71424,note_on,,768,0,2,,,,,,,,11,,,66,0
71424,note_on,,768,0,14,,,,,,,,8,,,62,0
71424,note_on,,768,0,12,,,,,,,,6,,,62,0
71424,note_on,,768,0,9,,,,,,,,3,,,50,0
71424,note_on,,0,0,9,,,,,,,,3,,,59,92
71424,note_on,,0,0,7,,,,,,,,1,,,79,108
71424,note_on,,768,0,7,,,,,,,,1,,,78,0
71424,note_on,,0,0,10,,,,,,,,4,,,47,75
71424,note_on,,0,0,12,,,,,,,,6,,,67,127
71424,note_on,,0,0,2,,,,,,,,11,,,67,108
71424,note_on,,0,0,1,,,,,,,,10,,,74,108
71424,note_on,,768,0,5,,,,,,,,14,,,50,0
71424,note_on,,0,0,4,,,,,,,,13,,,62,108
71424,note_on,,768,0,3,,,,,,,,12,,,66,0
71424,note_on,,0,0,3,,,,,,,,12,,,67,108
71424,note_on,,768,0,4,,,,,,,,13,,,62,0
71424,note_on,,0,0,6,,,,,,,,0,,,86,108
71424,note_on,,768,0,6,,,,,,,,0,,,81,0
71424,note_on,,0,0,11,,,,,,,,5,,,71,127
71424,note_on,,768,0,11,,,,,,,,5,,,69,0
71424,note_on,,48,0,13,,,,,,,,7,,,71,108
71424,note_on,,0,0,2,,,,,,,,11,,,74,108
71520,note_on,,96,0,9,,,,,,,,3,,,59,0
71520,note_on,,96,0,2,,,,,,,,11,,,74,0
71520,note_on,,96,0,1,,,,,,,,10,,,74,0
71520,note_on,,0,0,11,,,,,,,,5,,,72,127
71520,note_on,,96,0,11,,,,,,,,5,,,71,0
71520,note_on,,0,0,9,,,,,,,,3,,,57,92
71520,note_on,,0,0,2,,,,,,,,11,,,72,108
71520,note_on,,96,0,6,,,,,,,,0,,,86,0
71520,note_on,,0,0,5,,,,,,,,14,,,57,108
71520,note_on,,0,0,13,,,,,,,,7,,,69,108
71520,note_on,,96,0,13,,,,,,,,7,,,71,0
71520,note_on,,0,0,13,,,,,,,,7,,,72,108
71520,note_on,,96,0,5,,,,,,,,14,,,59,0
71520,note_on,,96,0,12,,,,,,,,6,,,67,0
71520,note_on,,0,0,12,,,,,,,,6,,,69,127
71520,note_on,,0,0,1,,,,,,,,10,,,72,108
71520,note_on,,96,0,10,,,,,,,,4,,,47,0
71520,note_on,,0,0,10,,,,,,,,4,,,45,75
71520,note_on,,0,0,6,,,,,,,,0,,,84,108
71616,note_on,,96,0,5,,,,,,,,14,,,57,0
71616,note_on,,96,0,1,,,,,,,,10,,,72,0
71616,note_on,,96,0,6,,,,,,,,0,,,84,0
71616,note_on,,0,0,9,,,,,,,,3,,,59,92
71616,note_on,,0,0,12,,,,,,,,6,,,71,127
71616,note_on,,96,0,2,,,,,,,,11,,,72,0
71616,note_on,,0,0,2,,,,,,,,11,,,74,108
71616,note_on,,96,0,12,,,,,,,,6,,,69,0
71616,note_on,,0,0,1,,,,,,,,10,,,74,108
71616,note_on,,96,0,9,,,,,,,,3,,,57,0
71616,note_on,,0,0,6,,,,,,,,0,,,86,108
71616,note_on,,0,0,13,,,,,,,,7,,,74,108
71616,note_on,,96,0,13,,,,,,,,7,,,69,0
71616,note_on,,96,0,10,,,,,,,,4,,,45,0
71616,note_on,,0,0,11,,,,,,,,5,,,74,127
71616,note_on,,96,0,11,,,,,,,,5,,,72,0
71616,note_on,,0,0,5,,,,,,,,14,,,59,108
71616,note_on,,0,0,10,,,,,,,,4,,,47,75
71616,note_on,,0,0,13,,,,,,,,7,,,71,108
71616,note_on,,0,0,13,,,,,,,,7,,,72,0
71712,note_on,,96,0,12,,,,,,,,6,,,71,0
71712,note_on,,0,0,12,,,,,,,,6,,,72,127
71712,note_on,,0,0,6,,,,,,,,0,,,88,108
71712,note_on,,0,0,13,,,,,,,,7,,,74,0
71712,note_on,,0,0,10,,,,,,,,4,,,48,75
71712,note_on,,0,0,1,,,,,,,,10,,,76,108
71712,note_on,,96,0,1,,,,,,,,10,,,74,0
71712,note_on,,0,0,13,,,,,,,,7,,,76,108
71712,note_on,,0,0,13,,,,,,,,7,,,72,108
71712,note_on,,96,0,6,,,,,,,,0,,,86,0
71712,note_on,,96,0,10,,,,,,,,4,,,47,0
71712,note_on,,96,0,13,,,,,,,,7,,,71,0
71712,note_on,,0,0,11,,,,,,,,5,,,76,127
71712,note_on,,96,0,11,,,,,,,,5,,,74,0
71712,note_on,,96,0,5,,,,,,,,14,,,59,0
71712,note_on,,0,0,5,,,,,,,,14,,,60,108
71712,note_on,,96,0,2,,,,,,,,11,,,74,0
71712,note_on,,0,0,9,,,,,,,,3,,,60,92
71712,note_on,,0,0,2,,,,,,,,11,,,76,108
71712,note_on,,96,0,9,,,,,,,,3,,,59,0
71808,note_on,,96,0,13,,,,,,,,7,,,72,0
71808,note_on,,0,0,13,,,,,,,,7,,,74,108
71808,note_on,,96,0,6,,,,,,,,0,,,88,0
71808,note_on,,0,0,6,,,,,,,,0,,,86,108
71808,note_on,,96,0,12,,,,,,,,6,,,72,0
71808,note_on,,0,0,12,,,,,,,,6,,,71,127
71808,note_on,,0,0,9,,,,,,,,3,,,59,92
71808,note_on,,96,0,9,,,,,,,,3,,,60,0
71808,note_on,,96,0,5,,,,,,,,14,,,60,0
71808,note_on,,0,0,5,,,,,,,,14,,,59,108
71808,note_on,,0,0,13,,,,,,,,7,,,71,108
71808,note_on,,0,0,13,,,,,,,,7,,,76,0
71808,note_on,,0,0,1,,,,,,,,10,,,74,108
71808,note_on,,0,0,11,,,,,,,,5,,,74,127
71808,note_on,,96,0,2,,,,,,,,11,,,76,0
71808,note_on,,0,0,2,,,,,,,,11,,,74,108
71808,note_on,,96,0,11,,,,,,,,5,,,76,0
71808,note_on,,0,0,10,,,,,,,,4,,,47,75
71808,note_on,,96,0,1,,,,,,,,10,,,76,0
71808,note_on,,96,0,10,,,,,,,,4,,,48,0
71968,note_on,,0,0,13,,,,,,,,7,,,74,0
71968,note_on,,160,0,13,,,,,,,,7,,,71,0
72000,note_on,,0,0,4,,,,,,,,13,,,62,108
72000,note_on,,576,0,4,,,,,,,,13,,,62,0
72000,note_on,,576,0,3,,,,,,,,12,,,67,0
72000,note_on,,0,0,3,,,,,,,,12,,,67,108
72000,note_on,,32,0,13,,,,,,,,7,,,71,108
72000,note_on,,0,0,14,,,,,,,,8,,,67,108
72000,note_on,,576,0,7,,,,,,,,1,,,79,0
72000,note_on,,0,0,13,,,,,,,,7,,,74,108
72000,note_on,,576,0,14,,,,,,,,8,,,67,0
72000,note_on,,0,0,5,,,,,,,,14,,,59,108
72000,note_on,,0,0,10,,,,,,,,4,,,47,75
72000,note_on,,192,0,10,,,,,,,,4,,,47,0
72000,note_on,,192,0,5,,,,,,,,14,,,59,0
72000,note_on,,192,0,1,,,,,,,,10,,,74,0
72000,note_on,,0,0,7,,,,,,,,1,,,79,108
72000,note_on,,192,0,9,,,,,,,,3,,,59,0
72000,note_on,,0,0,1,,,,,,,,10,,,74,108
72000,note_on,,576,0,8,,,,,,,,2,,,62,0
72000,note_on,,0,0,6,,,,,,,,0,,,86,108
72000,note_on,,192,0,11,,,,,,,,5,,,74,0
72000,note_on,,0,0,11,,,,,,,,5,,,74,127
72000,note_on,,192,0,2,,,,,,,,11,,,67,0
72000,note_on,,0,0,2,,,,,,,,11,,,74,0
72000,note_on,,192,0,6,,,,,,,,0,,,86,0
72000,note_on,,0,0,2,,,,,,,,11,,,74,108
72000,note_on,,0,0,2,,,,,,,,11,,,67,108
72000,note_on,,0,0,9,,,,,,,,3,,,59,92
72000,note_on,,0,0,12,,,,,,,,6,,,71,127
72000,note_on,,192,0,12,,,,,,,,6,,,71,0
72000,note_on,,0,0,8,,,,,,,,2,,,62,92
72160,note_on,,0,0,13,,,,,,,,7,,,74,0
72160,note_on,,160,0,13,,,,,,,,7,,,71,0
72192,note_on,,0,0,2,,,,,,,,11,,,74,0
72192,set_tempo,545454,16128,1,0,,,,,,,,,,,,
72192,note_on,,0,0,2,,,,,,,,11,,,74,108
72192,note_on,,0,0,2,,,,,,,,11,,,79,108
72192,note_on,,0,0,13,,,,,,,,7,,,79,108
72192,note_on,,192,0,9,,,,,,,,3,,,59,0
72192,note_on,,192,0,10,,,,,,,,4,,,47,0
72192,note_on,,192,0,2,,,,,,,,11,,,67,0
72192,note_on,,0,0,3,,,,,,,,12,,,67,108
72192,note_on,,192,0,3,,,,,,,,12,,,67,0
72192,note_on,,32,0,13,,,,,,,,7,,,74,108
72192,note_on,,0,0,9,,,,,,,,3,,,59,92
72192,note_on,,0,0,10,,,,,,,,4,,,47,75
72192,note_on,,192,0,4,,,,,,,,13,,,62,0
72192,note_on,,0,0,12,,,,,,,,6,,,71,127
72192,note_on,,192,0,1,,,,,,,,10,,,74,0
72192,note_on,,0,0,11,,,,,,,,5,,,79,127
72192,note_on,,192,0,5,,,,,,,,14,,,59,0
72192,note_on,,0,0,5,,,,,,,,14,,,59,108
72192,note_on,,192,0,11,,,,,,,,5,,,74,0
72192,note_on,,192,0,8,,,,,,,,2,,,62,0
72192,note_on,,0,0,7,,,,,,,,1,,,79,108
72192,note_on,,192,0,7,,,,,,,,1,,,79,0
72192,note_on,,192,0,6,,,,,,,,0,,,86,0
72192,note_on,,0,0,14,,,,,,,,8,,,71,108
72192,note_on,,192,0,14,,,,,,,,8,,,67,0
72192,note_on,,0,0,6,,,,,,,,0,,,86,108
72192,note_on,,192,0,12,,,,,,,,6,,,71,0
72192,note_on,,0,0,4,,,,,,,,13,,,62,108
72192,note_on,,0,0,8,,,,,,,,2,,,71,92
72192,note_on,,0,0,1,,,,,,,,10,,,79,108
72384,note_on,,192,0,12,,,,,,,,6,,,71,0
72384,note_on,,0,0,12,,,,,,,,6,,,67,127
72480,note_on,,0,0,12,,,,,,,,6,,,69,127
72480,note_on,,96,0,12,,,,,,,,6,,,67,0
72528,note_on,,0,0,13,,,,,,,,7,,,79,0
72528,note_on,,336,0,13,,,,,,,,7,,,74,0
72576,note_on,,0,0,1,,,,,,,,10,,,74,108
72576,note_on,,0,0,8,,,,,,,,2,,,59,92
72576,note_on,,48,0,13,,,,,,,,7,,,71,108
72576,note_on,,0,0,4,,,,,,,,13,,,59,108
72576,note_on,,0,0,6,,,,,,,,0,,,79,108
72576,note_on,,384,0,6,,,,,,,,0,,,86,0
72576,note_on,,0,0,9,,,,,,,,3,,,55,92
72576,note_on,,0,0,2,,,,,,,,11,,,79,0
72576,note_on,,384,0,8,,,,,,,,2,,,71,0
72576,note_on,,384,0,10,,,,,,,,4,,,47,0
72576,note_on,,0,0,10,,,,,,,,4,,,43,75
72576,note_on,,384,0,11,,,,,,,,5,,,79,0
72576,note_on,,0,0,11,,,,,,,,5,,,74,127
72576,note_on,,384,0,14,,,,,,,,8,,,71,0
72576,note_on,,384,0,1,,,,,,,,10,,,79,0
72576,note_on,,384,0,2,,,,,,,,11,,,74,0
72576,note_on,,0,0,14,,,,,,,,8,,,67,108
72576,note_on,,384,0,9,,,,,,,,3,,,59,0
72576,note_on,,0,0,12,,,,,,,,6,,,71,127
72576,note_on,,384,0,4,,,,,,,,13,,,62,0
72576,note_on,,0,0,3,,,,,,,,12,,,67,108
72576,note_on,,0,0,5,,,,,,,,14,,,55,108
72576,note_on,,384,0,5,,,,,,,,14,,,59,0
72576,note_on,,96,0,12,,,,,,,,6,,,69,0
72576,note_on,,0,0,2,,,,,,,,11,,,74,108
72576,note_on,,0,0,2,,,,,,,,11,,,71,108
72576,note_on,,384,0,3,,,,,,,,12,,,67,0
72576,note_on,,384,0,7,,,,,,,,1,,,79,0
72576,note_on,,0,0,7,,,,,,,,1,,,74,108
72576,note_on,,0,0,13,,,,,,,,7,,,74,108
72768,note_on,,192,0,12,,,,,,,,6,,,71,0
72768,note_on,,0,0,12,,,,,,,,6,,,62,127
72912,note_on,,336,0,13,,,,,,,,7,,,71,0
72912,note_on,,0,0,13,,,,,,,,7,,,74,0
72960,note_on,,384,0,7,,,,,,,,1,,,74,0
72960,note_on,,0,0,2,,,,,,,,11,,,66,108
72960,note_on,,0,0,2,,,,,,,,11,,,72,108
72960,note_on,,384,0,5,,,,,,,,14,,,55,0
72960,note_on,,0,0,14,,,,,,,,8,,,66,108
72960,note_on,,384,0,14,,,,,,,,8,,,67,0
72960,note_on,,0,0,4,,,,,,,,13,,,60,108
72960,note_on,,384,0,4,,,,,,,,13,,,59,0
72960,note_on,,384,0,3,,,,,,,,12,,,67,0
72960,note_on,,0,0,8,,,,,,,,2,,,60,92
72960,note_on,,384,0,8,,,,,,,,2,,,59,0
72960,note_on,,0,0,3,,,,,,,,12,,,66,108
72960,note_on,,0,0,2,,,,,,,,11,,,74,0
72960,note_on,,384,0,2,,,,,,,,11,,,71,0
72960,note_on,,0,0,10,,,,,,,,4,,,45,75
72960,note_on,,0,0,7,,,,,,,,1,,,78,108
72960,note_on,,0,0,9,,,,,,,,3,,,57,92
72960,note_on,,384,0,9,,,,,,,,3,,,55,0
72960,note_on,,384,0,6,,,,,,,,0,,,79,0
72960,note_on,,0,0,11,,,,,,,,5,,,72,127
72960,note_on,,0,0,6,,,,,,,,0,,,84,108
72960,note_on,,0,0,12,,,,,,,,6,,,69,127
72960,note_on,,384,0,10,,,,,,,,4,,,43,0
72960,note_on,,384,0,1,,,,,,,,10,,,74,0
72960,note_on,,0,0,5,,,,,,,,14,,,57,108
72960,note_on,,48,0,13,,,,,,,,7,,,72,108
72960,note_on,,0,0,14,,,,,,,,8,,,69,108
72960,set_tempo,600000,768,1,0,,,,,,,,,,,,
72960,note_on,,192,0,12,,,,,,,,6,,,62,0
72960,note_on,,0,0,1,,,,,,,,10,,,72,108
72960,note_on,,384,0,11,,,,,,,,5,,,74,0
73120,note_on,,160,0,13,,,,,,,,7,,,72,0
73152,note_on,,192,0,2,,,,,,,,11,,,66,0
73152,note_on,,0,0,2,,,,,,,,11,,,67,108
73152,note_on,,0,0,2,,,,,,,,11,,,72,0
73152,note_on,,192,0,14,,,,,,,,8,,,66,0
73152,note_on,,0,0,14,,,,,,,,8,,,67,108
73152,note_on,,192,0,3,,,,,,,,12,,,66,0
73152,note_on,,0,0,3,,,,,,,,12,,,67,108
73152,note_on,,0,0,2,,,,,,,,11,,,71,108
73152,note_on,,0,0,14,,,,,,,,8,,,69,0
73152,note_on,,192,0,7,,,,,,,,1,,,78,0
73152,note_on,,0,0,10,,,,,,,,4,,,47,75
73152,note_on,,0,0,5,,,,,,,,14,,,59,108
73152,note_on,,192,0,5,,,,,,,,14,,,57,0
73152,note_on,,0,0,7,,,,,,,,1,,,79,108
73152,note_on,,0,0,12,,,,,,,,6,,,67,127
73152,note_on,,192,0,12,,,,,,,,6,,,69,0
73152,note_on,,192,0,9,,,,,,,,3,,,57,0
73152,note_on,,0,0,9,,,,,,,,3,,,59,92
73152,note_on,,192,0,10,,,,,,,,4,,,45,0
73152,note_on,,0,0,1,,,,,,,,10,,,71,108
73152,note_on,,0,0,6,,,,,,,,0,,,83,108
73152,note_on,,192,0,6,,,,,,,,0,,,84,0
73152,note_on,,192,0,1,,,,,,,,10,,,72,0
73152,note_on,,0,0,4,,,,,,,,13,,,62,108
73152,note_on,,192,0,4,,,,,,,,13,,,60,0
73152,note_on,,32,0,13,,,,,,,,7,,,71,108
73152,note_on,,192,0,11,,,,,,,,5,,,72,0
73152,note_on,,0,0,11,,,,,,,,5,,,71,127
73152,note_on,,192,0,8,,,,,,,,2,,,60,0
73152,note_on,,0,0,8,,,,,,,,2,,,62,92
73246,note_on,,94,0,13,,,,,,,,7,,,71,0
73248,note_on,,96,0,11,,,,,,,,5,,,71,0
73248,note_on,,0,0,11,,,,,,,,5,,,69,127
73248,note_on,,0,0,5,,,,,,,,14,,,60,108
73248,note_on,,96,0,5,,,,,,,,14,,,59,0
73248,note_on,,96,0,10,,,,,,,,4,,,47,0
73248,note_on,,0,0,10,,,,,,,,4,,,48,75
73248,note_on,,2,0,13,,,,,,,,7,,,69,108
73248,note_on,,96,0,9,,,,,,,,3,,,59,0
73248,note_on,,0,0,9,,,,,,,,3,,,60,92
73342,note_on,,94,0,13,,,,,,,,7,,,69,0
73344,note_on,,0,0,5,,,,,,,,14,,,62,108
73344,note_on,,0,0,11,,,,,,,,5,,,69,127
73344,note_on,,96,0,11,,,,,,,,5,,,69,0
73344,note_on,,0,0,12,,,,,,,,6,,,62,127
73344,note_on,,192,0,12,,,,,,,,6,,,67,0
73344,note_on,,96,0,10,,,,,,,,4,,,48,0
73344,note_on,,0,0,10,,,,,,,,4,,,50,75
73344,note_on,,0,0,8,,,,,,,,2,,,62,92
73344,note_on,,2,0,13,,,,,,,,7,,,69,108
73344,note_on,,0,0,9,,,,,,,,3,,,62,92
73344,note_on,,96,0,9,,,,,,,,3,,,60,0
73344,note_on,,192,0,6,,,,,,,,0,,,83,0
73344,note_on,,0,0,6,,,,,,,,0,,,81,108
73344,note_on,,192,0,14,,,,,,,,8,,,67,0
73344,note_on,,0,0,2,,,,,,,,11,,,69,108
73344,note_on,,192,0,2,,,,,,,,11,,,71,0
73344,note_on,,0,0,7,,,,,,,,1,,,79,108
73344,note_on,,192,0,7,,,,,,,,1,,,79,0
73344,note_on,,0,0,14,,,,,,,,8,,,67,108
73344,note_on,,0,0,14,,,,,,,,8,,,62,108
73344,note_on,,0,0,1,,,,,,,,10,,,69,108
73344,note_on,,96,0,5,,,,,,,,14,,,60,0
73344,note_on,,192,0,1,,,,,,,,10,,,71,0
73344,note_on,,192,0,8,,,,,,,,2,,,62,0
73536,note_on,,384,0,3,,,,,,,,12,,,67,0
73536,note_on,,0,0,8,,,,,,,,2,,,60,92
73536,note_on,,192,0,8,,,,,,,,2,,,62,0
73536,note_on,,192,0,2,,,,,,,,11,,,67,0
73536,note_on,,192,0,7,,,,,,,,1,,,79,0
73536,note_on,,0,0,2,,,,,,,,11,,,66,108
73536,note_on,,192,0,5,,,,,,,,14,,,62,0
73536,note_on,,192,0,9,,,,,,,,3,,,62,0
73536,note_on,,0,0,5,,,,,,,,14,,,50,108
73536,note_on,,0,0,9,,,,,,,,3,,,50,92
73536,note_on,,192,0,14,,,,,,,,8,,,67,0
73536,note_on,,0,0,14,,,,,,,,8,,,66,108
73536,note_on,,384,0,4,,,,,,,,13,,,62,0
73536,note_on,,0,0,4,,,,,,,,13,,,60,108
73536,note_on,,0,0,10,,,,,,,,4,,,38,75
73536,note_on,,192,0,10,,,,,,,,4,,,50,0
73536,note_on,,0,0,7,,,,,,,,1,,,78,108
73536,note_on,,0,0,3,,,,,,,,12,,,66,108
73600,note_on,,256,0,13,,,,,,,,7,,,69,0
73632,note_on,,288,0,12,,,,,,,,6,,,62,0
73632,note_on,,0,0,12,,,,,,,,6,,,62,127
73632,note_on,,32,0,13,,,,,,,,7,,,67,108
73632,note_on,,288,0,11,,,,,,,,5,,,69,0
73632,note_on,,0,0,11,,,,,,,,5,,,67,127
73680,note_on,,0,0,7,,,,,,,,1,,,72,108
73680,note_on,,144,0,7,,,,,,,,1,,,78,0
73726,note_on,,94,0,13,,,,,,,,7,,,67,0
73728,note_on,,192,0,2,,,,,,,,11,,,69,0
73728,note_on,,192,0,5,,,,,,,,14,,,50,0
73728,note_on,,0,0,5,,,,,,,,14,,,55,108
73728,note_on,,192,0,9,,,,,,,,3,,,50,0
73728,note_on,,0,0,9,,,,,,,,3,,,55,92
73728,note_on,,192,0,14,,,,,,,,8,,,62,0
73728,note_on,,0,0,14,,,,,,,,8,,,66,0
73728,note_on,,0,0,14,,,,,,,,8,,,55,108
73728,note_on,,0,0,14,,,,,,,,8,,,59,108
73728,note_on,,0,0,10,,,,,,,,4,,,43,75
73728,note_on,,192,0,10,,,,,,,,4,,,38,0
73728,note_on,,192,0,4,,,,,,,,13,,,60,0
73728,note_on,,384,0,6,,,,,,,,0,,,81,0
73728,note_on,,0,0,6,,,,,,,,0,,,79,108
73728,note_on,,0,0,4,,,,,,,,13,,,59,108
73728,note_on,,0,0,2,,,,,,,,11,,,66,0
73728,note_on,,0,0,2,,,,,,,,11,,,67,108
73728,note_on,,192,0,8,,,,,,,,2,,,60,0
73728,note_on,,0,0,8,,,,,,,,2,,,62,92
73728,note_on,,48,0,7,,,,,,,,1,,,72,0
73728,note_on,,0,0,7,,,,,,,,1,,,71,108
73728,note_on,,2,0,13,,,,,,,,7,,,67,108
73728,note_on,,96,0,11,,,,,,,,5,,,67,0
73728,note_on,,96,0,12,,,,,,,,6,,,62,0
73728,note_on,,0,0,12,,,,,,,,6,,,59,127
73728,note_on,,384,0,1,,,,,,,,10,,,69,0
73728,note_on,,0,0,1,,,,,,,,10,,,67,108
73728,note_on,,0,0,11,,,,,,,,5,,,67,127
73728,set_tempo,666666,768,1,0,,,,,,,,,,,,
73728,note_on,,192,0,3,,,,,,,,12,,,66,0
73728,note_on,,0,0,3,,,,,,,,12,,,67,108
73728,end_of_track,,0,1,0,,,,,,,,,,,,
74448,note_on,,720,0,13,,,,,,,,7,,,67,0
74448,end_of_track,,0,1,13,,,,,,,,,,,,
74496,note_on,,768,0,4,,,,,,,,13,,,59,0
74496,end_of_track,,0,1,4,,,,,,,,,,,,
74496,end_of_track,,0,1,8,,,,,,,,,,,,
74496,end_of_track,,0,1,6,,,,,,,,,,,,
74496,note_on,,768,0,10,,,,,,,,4,,,43,0
74496,end_of_track,,0,1,10,,,,,,,,,,,,
74496,note_on,,768,0,5,,,,,,,,14,,,55,0
74496,end_of_track,,0,1,5,,,,,,,,,,,,
74496,note_on,,768,0,2,,,,,,,,11,,,67,0
74496,end_of_track,,0,1,2,,,,,,,,,,,,
74496,note_on,,768,0,7,,,,,,,,1,,,71,0
74496,end_of_track,,0,1,7,,,,,,,,,,,,
74496,note_on,,768,0,12,,,,,,,,6,,,59,0
74496,end_of_track,,0,1,12,,,,,,,,,,,,
74496,end_of_track,,0,1,3,,,,,,,,,,,,
74496,note_on,,768,0,1,,,,,,,,10,,,67,0
74496,end_of_track,,0,1,1,,,,,,,,,,,,
74496,end_of_track,,0,1,11,,,,,,,,,,,,
74496,note_on,,768,0,11,,,,,,,,5,,,67,0
74496,note_on,,768,0,8,,,,,,,,2,,,62,0
74496,note_on,,768,0,3,,,,,,,,12,,,67,0
74496,note_on,,768,0,14,,,,,,,,8,,,55,0
74496,note_on,,0,0,14,,,,,,,,8,,,59,0
74496,end_of_track,,0,1,14,,,,,,,,,,,,
74496,note_on,,768,0,6,,,,,,,,0,,,79,0
74496,end_of_track,,0,1,9,,,,,,,,,,,,
74496,note_on,,768,0,9,,,,,,,,3,,,55,0
