tick,type,tempo,time,meta,track,numerator,denominator,clocks_per_click,notated_32nd_notes_per_beat,port,program,channel,control,value,note,velocity
0,set_tempo,750000,0,1,0,,,,,,,,,,,
0,note_on,,0,0,5,,,,,,,4,,,45,75
0,track_name,,0,1,5,,,,,,,,,,,
0,midi_port,,0,1,6,,,,,0,,,,,,
0,program_change,,0,0,6,,,,,,43,5,,,,
0,control_change,,0,0,6,,,,,,,5,7,127,,
0,control_change,,0,0,6,,,,,,,5,10,64,,
0,time_signature,,0,1,6,1,8,24,8,,,,,,,
0,note_on,,0,0,6,,,,,,,5,,,33,60
0,track_name,,0,1,6,,,,,,,,,,,
0,track_name,,0,1,16,,,,,,,,,,,
0,midi_port,,0,1,7,,,,,0,,,,,,
0,program_change,,0,0,7,,,,,,56,6,,,,
0,control_change,,0,0,7,,,,,,,6,7,127,,
0,control_change,,0,0,7,,,,,,,6,10,80,,
0,time_signature,,0,1,7,1,8,24,8,,,,,,,
0,note_on,,0,0,7,,,,,,,6,,,69,108
0,track_name,,0,1,7,,,,,,,,,,,
0,midi_port,,0,1,8,,,,,0,,,,,,
0,program_change,,0,0,8,,,,,,68,10,,,,
0,time_signature,,0,1,5,1,8,24,8,,,,,,,
0,control_change,,0,0,5,,,,,,,4,10,24,,
0,control_change,,0,0,5,,,,,,,4,7,127,,
0,program_change,,0,0,5,,,,,,42,4,,,,
0,control_change,,0,0,2,,,,,,,1,7,127,,
0,control_change,,0,0,2,,,,,,,1,10,24,,
0,time_signature,,0,1,2,1,8,24,8,,,,,,,
0,note_on,,0,0,2,,,,,,,1,,,69,92
0,track_name,,0,1,2,,,,,,,,,,,
0,midi_port,,0,1,3,,,,,0,,,,,,
0,program_change,,0,0,3,,,,,,48,2,,,,
0,control_change,,0,0,3,,,,,,,2,7,127,,
0,control_change,,0,0,3,,,,,,,2,10,104,,
0,control_change,,0,0,8,,,,,,,10,7,127,,
0,time_signature,,0,1,3,1,8,24,8,,,,,,,
0,track_name,,0,1,3,,,,,,,,,,,
0,midi_port,,0,1,4,,,,,0,,,,,,
0,program_change,,0,0,4,,,,,,41,3,,,,
0,control_change,,0,0,4,,,,,,,3,7,127,,
0,control_change,,0,0,4,,,,,,,3,10,104,,
0,time_signature,,0,1,4,1,8,24,8,,,,,,,
0,note_on,,0,0,4,,,,,,,3,,,60,75
0,track_name,,0,1,4,,,,,,,,,,,
0,midi_port,,0,1,5,,,,,0,,,,,,
0,note_on,,0,0,3,,,,,,,2,,,64,92
0,program_change,,0,0,2,,,,,,48,1,,,,
0,control_change,,0,0,8,,,,,,,10,10,24,,
0,note_on,,0,0,8,,,,,,,10,,,69,75
0,end_of_track,,0,1,12,,,,,,,,,,,
0,midi_port,,0,1,13,,,,,0,,,,,,
0,control_change,,0,0,13,,,,,,,9,7,127,,
0,control_change,,0,0,13,,,,,,,9,10,64,,
0,track_name,,0,1,13,,,,,,,,,,,
0,end_of_track,,0,1,13,,,,,,,,,,,
0,midi_port,,0,1,14,,,,,0,,,,,,
0,control_change,,0,0,14,,,,,,,9,7,127,,
0,control_change,,0,0,14,,,,,,,9,10,64,,
0,track_name,,0,1,14,,,,,,,,,,,
0,end_of_track,,0,1,14,,,,,,,,,,,
0,midi_port,,0,1,15,,,,,0,,,,,,
0,control_change,,0,0,15,,,,,,,9,7,127,,
0,control_change,,0,0,15,,,,,,,9,10,64,,
0,track_name,,0,1,15,,,,,,,,,,,
0,end_of_track,,0,1,15,,,,,,,,,,,
0,midi_port,,0,1,16,,,,,0,,,,,,
0,control_change,,0,0,16,,,,,,,9,7,127,,
0,control_change,,0,0,16,,,,,,,9,10,64,,
0,track_name,,0,1,12,,,,,,,,,,,
0,control_change,,0,0,12,,,,,,,9,10,64,,
0,control_change,,0,0,12,,,,,,,9,7,127,,
0,midi_port,,0,1,12,,,,,0,,,,,,
0,track_name,,0,1,8,,,,,,,,,,,
0,midi_port,,0,1,9,,,,,0,,,,,,
0,program_change,,0,0,9,,,,,,68,11,,,,
0,control_change,,0,0,9,,,,,,,11,7,127,,
0,control_change,,0,0,9,,,,,,,11,10,104,,
0,time_signature,,0,1,9,1,8,24,8,,,,,,,
0,note_on,,0,0,9,,,,,,,11,,,64,75
0,track_name,,0,1,9,,,,,,,,,,,
0,midi_port,,0,1,10,,,,,0,,,,,,
0,time_signature,,0,1,8,1,8,24,8,,,,,,,
0,program_change,,0,0,10,,,,,,70,12,,,,
0,control_change,,0,0,10,,,,,,,12,10,104,,
0,time_signature,,0,1,10,1,8,24,8,,,,,,,
0,note_on,,0,0,10,,,,,,,12,,,45,75
0,track_name,,0,1,10,,,,,,,,,,,
0,midi_port,,0,1,11,,,,,0,,,,,,
0,control_change,,0,0,11,,,,,,,9,7,127,,
0,control_change,,0,0,11,,,,,,,9,10,64,,
0,track_name,,0,1,11,,,,,,,,,,,
0,end_of_track,,0,1,11,,,,,,,,,,,
0,control_change,,0,0,10,,,,,,,12,7,127,,
0,midi_port,,0,1,2,,,,,0,,,,,,
0,end_of_track,,0,1,16,,,,,,,,,,,
0,control_change,,0,0,1,,,,,,,0,7,127,,
0,track_name,,0,1,1,,,,,,,,,,,
0,time_signature,,0,1,1,1,8,24,8,,,,,,,
0,control_change,,0,0,1,,,,,,,0,10,48,,
0,program_change,,0,0,1,,,,,,70,0,,,,
0,midi_port,,0,1,1,,,,,0,,,,,,
0,copyright,,0,1,0,,,,,,,,,,,
0,copyright,,0,1,0,,,,,,,,,,,
0,text,,0,1,0,,,,,,,,,,,
0,text,,0,1,0,,,,,,,,,,,
0,time_signature,,0,1,0,1,8,24,8,,,,,,,
0,track_name,,0,1,0,,,,,,,,,,,
94,note_on,,94,0,6,,,,,,,5,,,33,0
94,note_on,,94,0,7,,,,,,,6,,,69,0
94,note_on,,94,0,10,,,,,,,12,,,45,0
94,note_on,,94,0,8,,,,,,,10,,,69,0
94,note_on,,94,0,3,,,,,,,2,,,64,0
94,note_on,,94,0,9,,,,,,,11,,,64,0
94,note_on,,94,0,4,,,,,,,3,,,60,0
94,note_on,,94,0,5,,,,,,,4,,,45,0
94,note_on,,94,0,2,,,,,,,1,,,69,0
96,time_signature,,2,1,8,4,4,24,8,,,,,,,
96,note_on,,0,0,8,,,,,,,10,,,76,75
96,note_on,,0,0,3,,,,,,,2,,,72,92
96,time_signature,,2,1,3,4,4,24,8,,,,,,,
96,time_signature,,2,1,6,4,4,24,8,,,,,,,
96,note_on,,0,0,10,,,,,,,12,,,57,75
96,time_signature,,2,1,10,4,4,24,8,,,,,,,
96,note_on,,0,0,7,,,,,,,6,,,76,108
96,time_signature,,2,1,7,4,4,24,8,,,,,,,
96,note_on,,0,0,9,,,,,,,11,,,72,75
96,note_on,,0,0,4,,,,,,,3,,,69,75
96,time_signature,,2,1,9,4,4,24,8,,,,,,,
96,time_signature,,96,1,0,4,4,24,8,,,,,,,
96,end_of_track,,0,1,0,,,,,,,,,,,
96,note_on,,0,0,2,,,,,,,1,,,76,92
96,time_signature,,2,1,4,4,4,24,8,,,,,,,
96,note_on,,0,0,6,,,,,,,5,,,45,60
96,note_on,,0,0,5,,,,,,,4,,,57,75
96,time_signature,,96,1,1,4,4,24,8,,,,,,,
96,time_signature,,2,1,2,4,4,24,8,,,,,,,
96,time_signature,,2,1,5,4,4,24,8,,,,,,,
190,note_on,,94,0,9,,,,,,,11,,,72,0
190,note_on,,94,0,3,,,,,,,2,,,72,0
190,note_on,,94,0,8,,,,,,,10,,,76,0
190,note_on,,94,0,4,,,,,,,3,,,69,0
190,note_on,,94,0,2,,,,,,,1,,,76,0
192,note_on,,2,0,9,,,,,,,11,,,69,75
192,note_on,,2,0,8,,,,,,,10,,,72,75
192,note_on,,2,0,2,,,,,,,1,,,72,92
192,note_on,,2,0,3,,,,,,,2,,,69,92
192,note_on,,2,0,4,,,,,,,3,,,64,75
286,note_on,,94,0,9,,,,,,,11,,,69,0
286,note_on,,94,0,4,,,,,,,3,,,64,0
286,note_on,,94,0,3,,,,,,,2,,,69,0
286,note_on,,94,0,8,,,,,,,10,,,72,0
286,note_on,,94,0,2,,,,,,,1,,,72,0
288,note_on,,2,0,3,,,,,,,2,,,69,92
288,note_on,,2,0,8,,,,,,,10,,,72,75
288,note_on,,2,0,9,,,,,,,11,,,69,75
288,note_on,,2,0,4,,,,,,,3,,,64,75
288,note_on,,2,0,2,,,,,,,1,,,72,92
352,note_on,,256,0,10,,,,,,,12,,,57,0
352,note_on,,256,0,5,,,,,,,4,,,57,0
352,note_on,,256,0,7,,,,,,,6,,,76,0
352,note_on,,256,0,6,,,,,,,5,,,45,0
382,note_on,,94,0,2,,,,,,,1,,,72,0
382,note_on,,94,0,8,,,,,,,10,,,72,0
382,note_on,,94,0,9,,,,,,,11,,,69,0
382,note_on,,94,0,3,,,,,,,2,,,69,0
382,note_on,,94,0,4,,,,,,,3,,,64,0
384,note_on,,32,0,5,,,,,,,4,,,57,75
384,note_on,,2,0,3,,,,,,,2,,,64,92
384,note_on,,32,0,10,,,,,,,12,,,57,75
384,note_on,,2,0,2,,,,,,,1,,,69,92
384,note_on,,32,0,7,,,,,,,6,,,76,108
384,note_on,,32,0,6,,,,,,,5,,,45,60
384,note_on,,2,0,8,,,,,,,10,,,69,75
384,note_on,,2,0,4,,,,,,,3,,,60,75
384,note_on,,2,0,9,,,,,,,11,,,64,75
478,note_on,,94,0,6,,,,,,,5,,,45,0
478,note_on,,94,0,10,,,,,,,12,,,57,0
478,note_on,,94,0,3,,,,,,,2,,,64,0
478,note_on,,94,0,2,,,,,,,1,,,69,0
478,note_on,,94,0,8,,,,,,,10,,,69,0
478,note_on,,94,0,7,,,,,,,6,,,76,0
478,note_on,,94,0,4,,,,,,,3,,,60,0
478,note_on,,94,0,5,,,,,,,4,,,57,0
478,note_on,,94,0,9,,,,,,,11,,,64,0
480,note_on,,2,0,9,,,,,,,11,,,64,75
480,note_on,,2,0,5,,,,,,,4,,,60,75
480,note_on,,2,0,2,,,,,,,1,,,69,92
480,note_on,,2,0,8,,,,,,,10,,,69,75
480,note_on,,2,0,3,,,,,,,2,,,64,92
480,note_on,,2,0,10,,,,,,,12,,,60,75
480,note_on,,2,0,7,,,,,,,6,,,81,108
480,note_on,,2,0,6,,,,,,,5,,,48,60
480,note_on,,2,0,4,,,,,,,3,,,60,75
574,note_on,,94,0,10,,,,,,,12,,,60,0
574,note_on,,94,0,5,,,,,,,4,,,60,0
574,note_on,,94,0,6,,,,,,,5,,,48,0
576,note_on,,2,0,6,,,,,,,5,,,45,60
576,note_on,,2,0,10,,,,,,,12,,,57,75
576,note_on,,2,0,5,,,,,,,4,,,57,75
670,note_on,,94,0,10,,,,,,,12,,,57,0
670,note_on,,94,0,6,,,,,,,5,,,45,0
670,note_on,,94,0,5,,,,,,,4,,,57,0
672,note_on,,2,0,5,,,,,,,4,,,57,75
672,note_on,,2,0,10,,,,,,,12,,,57,75
672,note_on,,2,0,6,,,,,,,5,,,45,60
736,note_on,,256,0,7,,,,,,,6,,,81,0
736,note_on,,256,0,9,,,,,,,11,,,64,0
736,note_on,,256,0,4,,,,,,,3,,,60,0
736,note_on,,256,0,2,,,,,,,1,,,69,0
736,note_on,,256,0,3,,,,,,,2,,,64,0
736,note_on,,256,0,8,,,,,,,10,,,69,0
766,note_on,,94,0,10,,,,,,,12,,,57,0
766,note_on,,94,0,5,,,,,,,4,,,57,0
766,note_on,,94,0,6,,,,,,,5,,,45,0
768,note_on,,32,0,9,,,,,,,11,,,76,75
768,note_on,,32,0,2,,,,,,,1,,,81,92
768,note_on,,32,0,8,,,,,,,10,,,81,75
768,note_on,,2,0,5,,,,,,,4,,,45,75
768,note_on,,32,0,3,,,,,,,2,,,76,92
768,note_on,,2,0,6,,,,,,,5,,,33,60
768,note_on,,32,0,7,,,,,,,6,,,81,108
768,note_on,,32,0,4,,,,,,,3,,,72,75
768,note_on,,2,0,10,,,,,,,12,,,45,75
862,note_on,,94,0,9,,,,,,,11,,,76,0
862,note_on,,94,0,2,,,,,,,1,,,81,0
862,note_on,,94,0,6,,,,,,,5,,,33,0
862,note_on,,94,0,8,,,,,,,10,,,81,0
862,note_on,,94,0,10,,,,,,,12,,,45,0
862,note_on,,94,0,4,,,,,,,3,,,72,0
862,note_on,,94,0,7,,,,,,,6,,,81,0
862,note_on,,94,0,5,,,,,,,4,,,45,0
862,note_on,,94,0,3,,,,,,,2,,,76,0
864,note_on,,2,0,3,,,,,,,2,,,72,92
864,note_on,,2,0,6,,,,,,,5,,,33,60
864,note_on,,2,0,7,,,,,,,6,,,76,108
864,note_on,,2,0,5,,,,,,,4,,,45,75
864,note_on,,2,0,10,,,,,,,12,,,45,75
864,note_on,,2,0,9,,,,,,,11,,,72,75
864,note_on,,2,0,4,,,,,,,3,,,69,75
864,note_on,,2,0,8,,,,,,,10,,,76,75
864,note_on,,2,0,2,,,,,,,1,,,76,92
958,note_on,,94,0,3,,,,,,,2,,,72,0
958,note_on,,94,0,9,,,,,,,11,,,72,0
958,note_on,,94,0,7,,,,,,,6,,,76,0
958,note_on,,94,0,4,,,,,,,3,,,69,0
958,note_on,,94,0,2,,,,,,,1,,,76,0
958,note_on,,94,0,8,,,,,,,10,,,76,0
960,note_on,,2,0,2,,,,,,,1,,,72,92
960,note_on,,2,0,3,,,,,,,2,,,69,92
960,note_on,,2,0,4,,,,,,,3,,,64,75
960,note_on,,2,0,7,,,,,,,6,,,72,108
960,note_on,,2,0,9,,,,,,,11,,,69,75
960,note_on,,2,0,8,,,,,,,10,,,72,75
1054,note_on,,94,0,4,,,,,,,3,,,64,0
1054,note_on,,94,0,9,,,,,,,11,,,69,0
1054,note_on,,94,0,8,,,,,,,10,,,72,0
1054,note_on,,94,0,3,,,,,,,2,,,69,0
1054,note_on,,94,0,2,,,,,,,1,,,72,0
1054,note_on,,94,0,7,,,,,,,6,,,72,0
1056,note_on,,2,0,9,,,,,,,11,,,69,75
1056,note_on,,2,0,4,,,,,,,3,,,64,75
1056,note_on,,2,0,2,,,,,,,1,,,72,92
1056,note_on,,2,0,7,,,,,,,6,,,72,108
1056,note_on,,2,0,3,,,,,,,2,,,69,92
1056,note_on,,2,0,8,,,,,,,10,,,72,75
1120,note_on,,256,0,10,,,,,,,12,,,45,0
1120,note_on,,256,0,6,,,,,,,5,,,33,0
1120,note_on,,256,0,5,,,,,,,4,,,45,0
1150,note_on,,94,0,2,,,,,,,1,,,72,0
1150,note_on,,94,0,9,,,,,,,11,,,69,0
1150,note_on,,94,0,7,,,,,,,6,,,72,0
1150,note_on,,94,0,3,,,,,,,2,,,69,0
1150,note_on,,94,0,8,,,,,,,10,,,72,0
1150,note_on,,94,0,4,,,,,,,3,,,64,0
1152,note_on,,2,0,8,,,,,,,10,,,69,75
1152,note_on,,32,0,5,,,,,,,4,,,57,75
1152,note_on,,2,0,4,,,,,,,3,,,60,75
1152,note_on,,2,0,9,,,,,,,11,,,64,75
1152,note_on,,32,0,10,,,,,,,12,,,57,75
1152,note_on,,32,0,6,,,,,,,5,,,45,60
1152,note_on,,2,0,2,,,,,,,1,,,69,92
1152,note_on,,2,0,3,,,,,,,2,,,64,92
1152,note_on,,2,0,7,,,,,,,6,,,69,108
1246,note_on,,94,0,10,,,,,,,12,,,57,0
1246,note_on,,94,0,4,,,,,,,3,,,60,0
1246,note_on,,94,0,7,,,,,,,6,,,69,0
1246,note_on,,94,0,9,,,,,,,11,,,64,0
1246,note_on,,94,0,3,,,,,,,2,,,64,0
1246,note_on,,94,0,6,,,,,,,5,,,45,0
1246,note_on,,94,0,8,,,,,,,10,,,69,0
1246,note_on,,94,0,5,,,,,,,4,,,57,0
1246,note_on,,94,0,2,,,,,,,1,,,69,0
1248,note_on,,2,0,10,,,,,,,12,,,60,75
1248,note_on,,2,0,6,,,,,,,5,,,48,60
1248,note_on,,2,0,3,,,,,,,2,,,64,92
1248,note_on,,2,0,2,,,,,,,1,,,69,92
1248,note_on,,2,0,4,,,,,,,3,,,60,75
1248,note_on,,2,0,5,,,,,,,4,,,60,75
1248,note_on,,2,0,8,,,,,,,10,,,69,75
1248,note_on,,2,0,9,,,,,,,11,,,64,75
1248,note_on,,2,0,7,,,,,,,6,,,69,108
1342,note_on,,94,0,5,,,,,,,4,,,60,0
1342,note_on,,94,0,6,,,,,,,5,,,48,0
1342,note_on,,94,0,10,,,,,,,12,,,60,0
1344,note_on,,2,0,5,,,,,,,4,,,57,75
1344,note_on,,2,0,6,,,,,,,5,,,45,60
1344,note_on,,2,0,10,,,,,,,12,,,57,75
1438,note_on,,94,0,6,,,,,,,5,,,45,0
1438,note_on,,94,0,10,,,,,,,12,,,57,0
1438,note_on,,94,0,5,,,,,,,4,,,57,0
1440,note_on,,2,0,6,,,,,,,5,,,45,60
1440,note_on,,2,0,5,,,,,,,4,,,57,75
1440,note_on,,2,0,10,,,,,,,12,,,57,75
1504,note_on,,256,0,9,,,,,,,11,,,64,0
1504,note_on,,256,0,3,,,,,,,2,,,64,0
1504,note_on,,256,0,8,,,,,,,10,,,69,0
1504,note_on,,256,0,4,,,,,,,3,,,60,0
1504,note_on,,256,0,7,,,,,,,6,,,69,0
1504,note_on,,256,0,2,,,,,,,1,,,69,0
1534,note_on,,94,0,10,,,,,,,12,,,57,0
1534,note_on,,94,0,6,,,,,,,5,,,45,0
1534,note_on,,94,0,5,,,,,,,4,,,57,0
1536,note_on,,2,0,6,,,,,,,5,,,40,60
1536,note_on,,32,0,9,,,,,,,11,,,72,75
1536,note_on,,32,0,7,,,,,,,6,,,76,108
1536,note_on,,32,0,3,,,,,,,2,,,72,92
1536,note_on,,32,0,4,,,,,,,3,,,67,75
1536,note_on,,2,0,5,,,,,,,4,,,52,75
1536,note_on,,2,0,10,,,,,,,12,,,52,75
1536,note_on,,32,0,2,,,,,,,1,,,76,92
1536,note_on,,32,0,8,,,,,,,10,,,76,75
1630,note_on,,94,0,5,,,,,,,4,,,52,0
1630,note_on,,94,0,9,,,,,,,11,,,72,0
1630,note_on,,94,0,6,,,,,,,5,,,40,0
1630,note_on,,94,0,2,,,,,,,1,,,76,0
1630,note_on,,94,0,7,,,,,,,6,,,76,0
1630,note_on,,94,0,4,,,,,,,3,,,67,0
1630,note_on,,94,0,3,,,,,,,2,,,72,0
1630,note_on,,94,0,10,,,,,,,12,,,52,0
1630,note_on,,94,0,8,,,,,,,10,,,76,0
1632,note_on,,2,0,2,,,,,,,1,,,79,92
1632,note_on,,2,0,6,,,,,,,5,,,40,60
1632,note_on,,2,0,5,,,,,,,4,,,52,75
1632,note_on,,2,0,4,,,,,,,3,,,72,75
1632,note_on,,2,0,8,,,,,,,10,,,79,75
1632,note_on,,2,0,7,,,,,,,6,,,79,108
1632,note_on,,2,0,3,,,,,,,2,,,76,92
1632,note_on,,2,0,10,,,,,,,12,,,52,75
1632,note_on,,2,0,9,,,,,,,11,,,76,75
1726,note_on,,94,0,9,,,,,,,11,,,76,0
1726,note_on,,94,0,8,,,,,,,10,,,79,0
1726,note_on,,94,0,3,,,,,,,2,,,76,0
1726,note_on,,94,0,7,,,,,,,6,,,79,0
1726,note_on,,94,0,2,,,,,,,1,,,79,0
1726,note_on,,94,0,4,,,,,,,3,,,72,0
1728,note_on,,2,0,9,,,,,,,11,,,72,75
1728,note_on,,2,0,4,,,,,,,3,,,67,75
1728,note_on,,2,0,8,,,,,,,10,,,76,75
1728,note_on,,2,0,3,,,,,,,2,,,72,92
1728,note_on,,2,0,2,,,,,,,1,,,76,92
1728,note_on,,2,0,7,,,,,,,6,,,76,108
1792,note_on,,160,0,10,,,,,,,12,,,52,0
1792,note_on,,160,0,5,,,,,,,4,,,52,0
1792,note_on,,160,0,6,,,,,,,5,,,40,0
1822,note_on,,94,0,3,,,,,,,2,,,72,0
1822,note_on,,94,0,9,,,,,,,11,,,72,0
1822,note_on,,94,0,7,,,,,,,6,,,76,0
1822,note_on,,94,0,2,,,,,,,1,,,76,0
1822,note_on,,94,0,8,,,,,,,10,,,76,0
1822,note_on,,94,0,4,,,,,,,3,,,67,0
1824,note_on,,2,0,4,,,,,,,3,,,67,75
1824,note_on,,2,0,7,,,,,,,6,,,76,108
1824,note_on,,2,0,8,,,,,,,10,,,76,75
1824,note_on,,2,0,2,,,,,,,1,,,76,92
1824,note_on,,2,0,3,,,,,,,2,,,72,92
1824,note_on,,2,0,9,,,,,,,11,,,72,75
1918,note_on,,94,0,2,,,,,,,1,,,76,0
1918,note_on,,94,0,4,,,,,,,3,,,67,0
1918,note_on,,94,0,8,,,,,,,10,,,76,0
1918,note_on,,94,0,3,,,,,,,2,,,72,0
1918,note_on,,94,0,9,,,,,,,11,,,72,0
1918,note_on,,94,0,7,,,,,,,6,,,76,0
1920,note_on,,128,0,10,,,,,,,12,,,55,75
1920,note_on,,2,0,8,,,,,,,10,,,72,75
1920,note_on,,2,0,3,,,,,,,2,,,67,92
1920,note_on,,2,0,4,,,,,,,3,,,64,75
1920,note_on,,128,0,5,,,,,,,4,,,55,75
1920,note_on,,128,0,6,,,,,,,5,,,43,60
1920,note_on,,2,0,7,,,,,,,6,,,72,108
1920,note_on,,2,0,2,,,,,,,1,,,72,92
1920,note_on,,2,0,9,,,,,,,11,,,67,75
1990,note_on,,70,0,2,,,,,,,1,,,72,0
1990,note_on,,70,0,4,,,,,,,3,,,64,0
1990,note_on,,70,0,8,,,,,,,10,,,72,0
1992,note_on,,2,0,4,,,,,,,3,,,62,75
1992,note_on,,2,0,2,,,,,,,1,,,71,92
1992,note_on,,2,0,8,,,,,,,10,,,71,75
2014,note_on,,94,0,6,,,,,,,5,,,43,0
2014,note_on,,94,0,10,,,,,,,12,,,55,0
2014,note_on,,22,0,8,,,,,,,10,,,71,0
2014,note_on,,94,0,7,,,,,,,6,,,72,0
2014,note_on,,22,0,2,,,,,,,1,,,71,0
2014,note_on,,94,0,5,,,,,,,4,,,55,0
2014,note_on,,22,0,4,,,,,,,3,,,62,0
2014,note_on,,94,0,3,,,,,,,2,,,67,0
2014,note_on,,94,0,9,,,,,,,11,,,67,0
2016,note_on,,2,0,10,,,,,,,12,,,64,75
2016,note_on,,2,0,3,,,,,,,2,,,67,92
2016,note_on,,2,0,9,,,,,,,11,,,67,75
2016,note_on,,2,0,8,,,,,,,10,,,72,75
2016,note_on,,2,0,6,,,,,,,5,,,52,60
2016,note_on,,2,0,7,,,,,,,6,,,72,108
2016,note_on,,2,0,2,,,,,,,1,,,72,92
2016,note_on,,2,0,4,,,,,,,3,,,64,75
2016,note_on,,2,0,5,,,,,,,4,,,64,75
2110,note_on,,94,0,5,,,,,,,4,,,64,0
2110,note_on,,94,0,6,,,,,,,5,,,52,0
2110,note_on,,94,0,10,,,,,,,12,,,64,0
2112,note_on,,2,0,10,,,,,,,12,,,60,75
2112,note_on,,2,0,5,,,,,,,4,,,60,75
2112,note_on,,2,0,6,,,,,,,5,,,48,60
2206,note_on,,94,0,10,,,,,,,12,,,60,0
2206,note_on,,94,0,5,,,,,,,4,,,60,0
2206,note_on,,94,0,6,,,,,,,5,,,48,0
2208,note_on,,2,0,5,,,,,,,4,,,60,75
2208,note_on,,2,0,10,,,,,,,12,,,60,75
2208,note_on,,2,0,6,,,,,,,5,,,48,60
2272,note_on,,256,0,2,,,,,,,1,,,72,0
2272,note_on,,256,0,7,,,,,,,6,,,72,0
2272,note_on,,256,0,4,,,,,,,3,,,64,0
2272,note_on,,256,0,3,,,,,,,2,,,67,0
2272,note_on,,256,0,9,,,,,,,11,,,67,0
2272,note_on,,256,0,8,,,,,,,10,,,72,0
2302,note_on,,94,0,6,,,,,,,5,,,48,0
2302,note_on,,94,0,10,,,,,,,12,,,60,0
2302,note_on,,94,0,5,,,,,,,4,,,60,0
2304,note_on,,32,0,7,,,,,,,6,,,76,108
2304,note_on,,2,0,5,,,,,,,4,,,57,75
2304,note_on,,32,0,8,,,,,,,10,,,76,75
2304,note_on,,32,0,4,,,,,,,3,,,69,75
2304,note_on,,32,0,9,,,,,,,11,,,72,75
2304,note_on,,32,0,2,,,,,,,1,,,76,92
2304,note_on,,2,0,10,,,,,,,12,,,57,75
2304,note_on,,32,0,3,,,,,,,2,,,72,92
2304,note_on,,2,0,6,,,,,,,5,,,45,60
2398,note_on,,94,0,5,,,,,,,4,,,57,0
2398,note_on,,94,0,4,,,,,,,3,,,69,0
2398,note_on,,94,0,3,,,,,,,2,,,72,0
2398,note_on,,94,0,7,,,,,,,6,,,76,0
2398,note_on,,94,0,6,,,,,,,5,,,45,0
2398,note_on,,94,0,2,,,,,,,1,,,76,0
2398,note_on,,94,0,9,,,,,,,11,,,72,0
2398,note_on,,94,0,8,,,,,,,10,,,76,0
2398,note_on,,94,0,10,,,,,,,12,,,57,0
2400,note_on,,2,0,9,,,,,,,11,,,72,75
2400,note_on,,2,0,5,,,,,,,4,,,50,75
2400,note_on,,2,0,6,,,,,,,5,,,38,60
2400,note_on,,2,0,4,,,,,,,3,,,69,75
2400,note_on,,2,0,8,,,,,,,10,,,78,75
2400,note_on,,2,0,2,,,,,,,1,,,78,92
2400,note_on,,2,0,7,,,,,,,6,,,78,108
2400,note_on,,2,0,3,,,,,,,2,,,72,92
2400,note_on,,2,0,10,,,,,,,12,,,50,75
2470,note_on,,70,0,7,,,,,,,6,,,78,0
2472,note_on,,2,0,7,,,,,,,6,,,76,108
2494,note_on,,94,0,2,,,,,,,1,,,78,0
2494,note_on,,94,0,8,,,,,,,10,,,78,0
2494,note_on,,94,0,3,,,,,,,2,,,72,0
2494,note_on,,94,0,9,,,,,,,11,,,72,0
2494,note_on,,94,0,4,,,,,,,3,,,69,0
2494,note_on,,22,0,7,,,,,,,6,,,76,0
2496,note_on,,2,0,3,,,,,,,2,,,71,92
2496,note_on,,2,0,8,,,,,,,10,,,79,75
2496,note_on,,2,0,2,,,,,,,1,,,79,92
2496,note_on,,2,0,9,,,,,,,11,,,71,75
2496,note_on,,2,0,4,,,,,,,3,,,62,75
2496,note_on,,2,0,7,,,,,,,6,,,74,108
2560,note_on,,160,0,5,,,,,,,4,,,50,0
2560,note_on,,160,0,10,,,,,,,12,,,50,0
2560,note_on,,160,0,6,,,,,,,5,,,38,0
2566,note_on,,70,0,8,,,,,,,10,,,79,0
2566,note_on,,70,0,2,,,,,,,1,,,79,0
2566,note_on,,70,0,7,,,,,,,6,,,74,0
2568,note_on,,2,0,8,,,,,,,10,,,78,75
2568,note_on,,2,0,2,,,,,,,1,,,78,92
2568,note_on,,2,0,7,,,,,,,6,,,76,108
2590,note_on,,22,0,7,,,,,,,6,,,76,0
2590,note_on,,22,0,8,,,,,,,10,,,78,0
2590,note_on,,94,0,9,,,,,,,11,,,71,0
2590,note_on,,22,0,2,,,,,,,1,,,78,0
2590,note_on,,94,0,4,,,,,,,3,,,62,0
2590,note_on,,94,0,3,,,,,,,2,,,71,0
2592,note_on,,2,0,2,,,,,,,1,,,78,92
2592,note_on,,2,0,4,,,,,,,3,,,62,75
2592,note_on,,2,0,8,,,,,,,10,,,78,75
2592,note_on,,2,0,3,,,,,,,2,,,69,92
2592,note_on,,2,0,9,,,,,,,11,,,69,75
2592,note_on,,2,0,7,,,,,,,6,,,78,108
2688,note_on,,128,0,5,,,,,,,4,,,60,75
2688,note_on,,128,0,6,,,,,,,5,,,48,60
2688,note_on,,128,0,10,,,,,,,12,,,60,75
2734,note_on,,142,0,2,,,,,,,1,,,78,0
2734,note_on,,142,0,7,,,,,,,6,,,78,0
2734,note_on,,142,0,3,,,,,,,2,,,69,0
2734,note_on,,142,0,9,,,,,,,11,,,69,0
2734,note_on,,142,0,8,,,,,,,10,,,78,0
2736,note_on,,2,0,3,,,,,,,2,,,69,92
2736,note_on,,2,0,7,,,,,,,6,,,78,108
2736,note_on,,2,0,2,,,,,,,1,,,78,92
2736,note_on,,2,0,9,,,,,,,11,,,69,75
2736,note_on,,2,0,8,,,,,,,10,,,78,75
2752,note_on,,160,0,4,,,,,,,3,,,62,0
2758,note_on,,22,0,2,,,,,,,1,,,78,0
2758,note_on,,22,0,8,,,,,,,10,,,78,0
2760,note_on,,2,0,2,,,,,,,1,,,78,92
2760,note_on,,2,0,8,,,,,,,10,,,78,75
2782,note_on,,22,0,2,,,,,,,1,,,78,0
2782,note_on,,46,0,9,,,,,,,11,,,69,0
2782,note_on,,94,0,6,,,,,,,5,,,48,0
2782,note_on,,94,0,5,,,,,,,4,,,60,0
2782,note_on,,22,0,8,,,,,,,10,,,78,0
2782,note_on,,46,0,3,,,,,,,2,,,69,0
2782,note_on,,46,0,7,,,,,,,6,,,78,0
2782,note_on,,94,0,10,,,,,,,12,,,60,0
2784,note_on,,2,0,10,,,,,,,12,,,59,75
2784,note_on,,2,0,5,,,,,,,4,,,59,75
2784,note_on,,2,0,2,,,,,,,1,,,79,92
2784,note_on,,2,0,7,,,,,,,6,,,79,108
2784,note_on,,2,0,9,,,,,,,11,,,74,75
2784,note_on,,2,0,8,,,,,,,10,,,79,75
2784,note_on,,2,0,6,,,,,,,5,,,47,60
2784,note_on,,2,0,3,,,,,,,2,,,74,92
2878,note_on,,94,0,3,,,,,,,2,,,74,0
2878,note_on,,94,0,9,,,,,,,11,,,74,0
2878,note_on,,94,0,5,,,,,,,4,,,59,0
2878,note_on,,94,0,6,,,,,,,5,,,47,0
2878,note_on,,94,0,10,,,,,,,12,,,59,0
2880,note_on,,2,0,6,,,,,,,5,,,43,60
2880,note_on,,2,0,9,,,,,,,11,,,71,75
2880,note_on,,2,0,3,,,,,,,2,,,71,92
2880,note_on,,2,0,10,,,,,,,12,,,55,75
2880,note_on,,2,0,5,,,,,,,4,,,55,75
2880,note_on,,128,0,4,,,,,,,3,,,62,75
2944,note_on,,160,0,2,,,,,,,1,,,79,0
2944,note_on,,160,0,8,,,,,,,10,,,79,0
2944,note_on,,160,0,7,,,,,,,6,,,79,0
2974,note_on,,94,0,10,,,,,,,12,,,55,0
2974,note_on,,94,0,6,,,,,,,5,,,43,0
2974,note_on,,94,0,5,,,,,,,4,,,55,0
2974,note_on,,94,0,3,,,,,,,2,,,71,0
2974,note_on,,94,0,9,,,,,,,11,,,71,0
2974,note_on,,94,0,4,,,,,,,3,,,62,0
2976,note_on,,2,0,4,,,,,,,3,,,62,75
2976,note_on,,2,0,3,,,,,,,2,,,71,92
2976,note_on,,2,0,9,,,,,,,11,,,71,75
2976,note_on,,2,0,6,,,,,,,5,,,43,60
2976,note_on,,2,0,10,,,,,,,12,,,55,75
2976,note_on,,2,0,5,,,,,,,4,,,55,75
3070,note_on,,94,0,6,,,,,,,5,,,43,0
3070,note_on,,94,0,10,,,,,,,12,,,55,0
3070,note_on,,94,0,5,,,,,,,4,,,55,0
3070,note_on,,94,0,4,,,,,,,3,,,62,0
3070,note_on,,94,0,9,,,,,,,11,,,71,0
3070,note_on,,94,0,3,,,,,,,2,,,71,0
3072,note_on,,2,0,6,,,,,,,5,,,41,60
3072,note_on,,2,0,4,,,,,,,3,,,62,75
3072,note_on,,2,0,10,,,,,,,12,,,53,75
3072,note_on,,2,0,3,,,,,,,2,,,74,92
3072,note_on,,128,0,7,,,,,,,6,,,81,108
3072,note_on,,128,0,2,,,,,,,1,,,81,92
3072,note_on,,2,0,5,,,,,,,4,,,53,75
3072,note_on,,2,0,9,,,,,,,11,,,74,75
3072,note_on,,128,0,8,,,,,,,10,,,81,75
3166,note_on,,94,0,2,,,,,,,1,,,81,0
3166,note_on,,94,0,4,,,,,,,3,,,62,0
3166,note_on,,94,0,3,,,,,,,2,,,74,0
3166,note_on,,94,0,8,,,,,,,10,,,81,0
3166,note_on,,94,0,6,,,,,,,5,,,41,0
3166,note_on,,94,0,9,,,,,,,11,,,74,0
3166,note_on,,94,0,7,,,,,,,6,,,81,0
3166,note_on,,94,0,10,,,,,,,12,,,53,0
3166,note_on,,94,0,5,,,,,,,4,,,53,0
3168,note_on,,2,0,3,,,,,,,2,,,76,92
3168,note_on,,2,0,4,,,,,,,3,,,71,75
3168,note_on,,2,0,2,,,,,,,1,,,80,92
3168,note_on,,2,0,10,,,,,,,12,,,52,75
3168,note_on,,2,0,6,,,,,,,5,,,40,60
3168,note_on,,2,0,7,,,,,,,6,,,80,108
3168,note_on,,2,0,9,,,,,,,11,,,76,75
3168,note_on,,2,0,8,,,,,,,10,,,80,75
3168,note_on,,2,0,5,,,,,,,4,,,52,75
3238,note_on,,70,0,8,,,,,,,10,,,80,0
3238,note_on,,70,0,2,,,,,,,1,,,80,0
3238,note_on,,70,0,7,,,,,,,6,,,80,0
3240,note_on,,2,0,8,,,,,,,10,,,78,75
3240,note_on,,2,0,2,,,,,,,1,,,78,92
3240,note_on,,2,0,7,,,,,,,6,,,78,108
3262,note_on,,22,0,2,,,,,,,1,,,78,0
3262,note_on,,94,0,9,,,,,,,11,,,76,0
3262,note_on,,94,0,4,,,,,,,3,,,71,0
3262,note_on,,94,0,10,,,,,,,12,,,52,0
3262,note_on,,22,0,8,,,,,,,10,,,78,0
3262,note_on,,22,0,7,,,,,,,6,,,78,0
3262,note_on,,94,0,3,,,,,,,2,,,76,0
3262,note_on,,94,0,6,,,,,,,5,,,40,0
3262,note_on,,94,0,5,,,,,,,4,,,52,0
3264,note_on,,2,0,6,,,,,,,5,,,52,60
3264,note_on,,2,0,9,,,,,,,11,,,71,75
3264,note_on,,2,0,7,,,,,,,6,,,76,108
3264,note_on,,2,0,5,,,,,,,4,,,64,75
3264,note_on,,2,0,4,,,,,,,3,,,68,75
3264,note_on,,2,0,10,,,,,,,12,,,64,75
3264,note_on,,2,0,3,,,,,,,2,,,71,92
3264,note_on,,2,0,2,,,,,,,1,,,76,92
3264,note_on,,2,0,8,,,,,,,10,,,76,75
3334,note_on,,70,0,2,,,,,,,1,,,76,0
3334,note_on,,70,0,8,,,,,,,10,,,76,0
3334,note_on,,70,0,7,,,,,,,6,,,76,0
3336,note_on,,2,0,2,,,,,,,1,,,78,92
3336,note_on,,2,0,8,,,,,,,10,,,78,75
3336,note_on,,2,0,7,,,,,,,6,,,78,108
3358,note_on,,94,0,4,,,,,,,3,,,68,0
3358,note_on,,22,0,8,,,,,,,10,,,78,0
3358,note_on,,94,0,3,,,,,,,2,,,71,0
3358,note_on,,94,0,10,,,,,,,12,,,64,0
3358,note_on,,94,0,5,,,,,,,4,,,64,0
3358,note_on,,94,0,6,,,,,,,5,,,52,0
3358,note_on,,22,0,7,,,,,,,6,,,78,0
3358,note_on,,94,0,9,,,,,,,11,,,71,0
3358,note_on,,22,0,2,,,,,,,1,,,78,0
3360,note_on,,2,0,4,,,,,,,3,,,64,75
3360,note_on,,2,0,7,,,,,,,6,,,80,108
3360,note_on,,2,0,3,,,,,,,2,,,71,92
3360,note_on,,2,0,6,,,,,,,5,,,52,60
3360,note_on,,2,0,9,,,,,,,11,,,71,75
3360,note_on,,2,0,8,,,,,,,10,,,80,75
3360,note_on,,2,0,2,,,,,,,1,,,80,92
3360,note_on,,2,0,10,,,,,,,12,,,64,75
3360,note_on,,2,0,5,,,,,,,4,,,64,75
3454,note_on,,94,0,10,,,,,,,12,,,64,0
3454,note_on,,94,0,3,,,,,,,2,,,71,0
3454,note_on,,94,0,6,,,,,,,5,,,52,0
3454,note_on,,94,0,5,,,,,,,4,,,64,0
3454,note_on,,94,0,9,,,,,,,11,,,71,0
3456,note_on,,2,0,5,,,,,,,4,,,62,75
3456,note_on,,2,0,9,,,,,,,11,,,71,75
3456,note_on,,2,0,10,,,,,,,12,,,62,75
3456,note_on,,2,0,3,,,,,,,2,,,71,92
3456,note_on,,2,0,6,,,,,,,5,,,50,60
3502,note_on,,142,0,2,,,,,,,1,,,80,0
3502,note_on,,142,0,8,,,,,,,10,,,80,0
3502,note_on,,142,0,7,,,,,,,6,,,80,0
3504,note_on,,2,0,2,,,,,,,1,,,80,92
3504,note_on,,2,0,7,,,,,,,6,,,80,108
3504,note_on,,2,0,8,,,,,,,10,,,80,75
3520,note_on,,160,0,4,,,,,,,3,,,64,0
3550,note_on,,46,0,2,,,,,,,1,,,80,0
3550,note_on,,94,0,10,,,,,,,12,,,62,0
3550,note_on,,94,0,3,,,,,,,2,,,71,0
3550,note_on,,94,0,6,,,,,,,5,,,50,0
3550,note_on,,94,0,9,,,,,,,11,,,71,0
3550,note_on,,46,0,8,,,,,,,10,,,80,0
3550,note_on,,94,0,5,,,,,,,4,,,62,0
3550,note_on,,46,0,7,,,,,,,6,,,80,0
3552,note_on,,2,0,6,,,,,,,5,,,48,60
3552,note_on,,2,0,2,,,,,,,1,,,81,92
3552,note_on,,2,0,9,,,,,,,11,,,76,75
3552,note_on,,2,0,5,,,,,,,4,,,60,75
3552,note_on,,2,0,8,,,,,,,10,,,81,75
3552,note_on,,2,0,3,,,,,,,2,,,76,92
3552,note_on,,2,0,10,,,,,,,12,,,60,75
3552,note_on,,2,0,7,,,,,,,6,,,81,108
3646,note_on,,94,0,5,,,,,,,4,,,60,0
3646,note_on,,94,0,8,,,,,,,10,,,81,0
3646,note_on,,94,0,3,,,,,,,2,,,76,0
3646,note_on,,94,0,7,,,,,,,6,,,81,0
3646,note_on,,94,0,9,,,,,,,11,,,76,0
3646,note_on,,94,0,6,,,,,,,5,,,48,0
3646,note_on,,94,0,10,,,,,,,12,,,60,0
3646,note_on,,94,0,2,,,,,,,1,,,81,0
3648,note_on,,128,0,4,,,,,,,3,,,64,75
3648,note_on,,2,0,3,,,,,,,2,,,69,92
3648,note_on,,2,0,7,,,,,,,6,,,76,108
3648,note_on,,2,0,8,,,,,,,10,,,76,75
3648,note_on,,2,0,10,,,,,,,12,,,60,75
3648,note_on,,2,0,6,,,,,,,5,,,48,60
3648,note_on,,2,0,9,,,,,,,11,,,69,75
3648,note_on,,2,0,2,,,,,,,1,,,76,92
3648,note_on,,2,0,5,,,,,,,4,,,60,75
3742,note_on,,94,0,6,,,,,,,5,,,48,0
3742,note_on,,94,0,5,,,,,,,4,,,60,0
3742,note_on,,94,0,3,,,,,,,2,,,69,0
3742,note_on,,94,0,4,,,,,,,3,,,64,0
3742,note_on,,94,0,9,,,,,,,11,,,69,0
3742,note_on,,94,0,10,,,,,,,12,,,60,0
3744,note_on,,2,0,10,,,,,,,12,,,60,75
3744,note_on,,2,0,6,,,,,,,5,,,48,60
3744,note_on,,2,0,5,,,,,,,4,,,60,75
3744,note_on,,2,0,4,,,,,,,3,,,64,75
3744,note_on,,2,0,9,,,,,,,11,,,69,75
3744,note_on,,2,0,3,,,,,,,2,,,69,92
3808,note_on,,160,0,8,,,,,,,10,,,76,0
3808,note_on,,160,0,7,,,,,,,6,,,76,0
3808,note_on,,160,0,2,,,,,,,1,,,76,0
3838,note_on,,94,0,6,,,,,,,5,,,48,0
3838,note_on,,94,0,10,,,,,,,12,,,60,0
3838,note_on,,94,0,9,,,,,,,11,,,69,0
3838,note_on,,94,0,3,,,,,,,2,,,69,0
3838,note_on,,94,0,4,,,,,,,3,,,64,0
3838,note_on,,94,0,5,,,,,,,4,,,60,0
3840,note_on,,2,0,3,,,,,,,2,,,68,92
3840,note_on,,2,0,10,,,,,,,12,,,59,75
3840,note_on,,2,0,9,,,,,,,11,,,68,75
3840,note_on,,2,0,5,,,,,,,4,,,59,75
3840,note_on,,32,0,8,,,,,,,10,,,76,75
3840,note_on,,2,0,6,,,,,,,5,,,47,60
3840,note_on,,2,0,4,,,,,,,3,,,62,75
3840,note_on,,32,0,2,,,,,,,1,,,76,92
3840,note_on,,32,0,7,,,,,,,6,,,76,108
3934,note_on,,94,0,7,,,,,,,6,,,76,0
3934,note_on,,94,0,9,,,,,,,11,,,68,0
3934,note_on,,94,0,8,,,,,,,10,,,76,0
3934,note_on,,94,0,5,,,,,,,4,,,59,0
3934,note_on,,94,0,6,,,,,,,5,,,47,0
3934,note_on,,94,0,4,,,,,,,3,,,62,0
3934,note_on,,94,0,2,,,,,,,1,,,76,0
3934,note_on,,94,0,10,,,,,,,12,,,59,0
3934,note_on,,94,0,3,,,,,,,2,,,68,0
3936,note_on,,2,0,9,,,,,,,11,,,72,75
3936,note_on,,2,0,6,,,,,,,5,,,45,60
3936,note_on,,2,0,10,,,,,,,12,,,57,75
3936,note_on,,2,0,7,,,,,,,6,,,81,108
3936,note_on,,2,0,4,,,,,,,3,,,64,75
3936,note_on,,2,0,2,,,,,,,1,,,81,92
3936,note_on,,2,0,3,,,,,,,2,,,72,92
3936,note_on,,2,0,8,,,,,,,10,,,81,75
3936,note_on,,2,0,5,,,,,,,4,,,57,75
4030,note_on,,94,0,6,,,,,,,5,,,45,0
4030,note_on,,94,0,7,,,,,,,6,,,81,0
4030,note_on,,94,0,3,,,,,,,2,,,72,0
4030,note_on,,94,0,10,,,,,,,12,,,57,0
4030,note_on,,94,0,5,,,,,,,4,,,57,0
4030,note_on,,94,0,2,,,,,,,1,,,81,0
4030,note_on,,94,0,4,,,,,,,3,,,64,0
4030,note_on,,94,0,8,,,,,,,10,,,81,0
4030,note_on,,94,0,9,,,,,,,11,,,72,0
4032,note_on,,2,0,6,,,,,,,5,,,45,60
4032,note_on,,2,0,8,,,,,,,10,,,76,75
4032,note_on,,2,0,2,,,,,,,1,,,76,92
4032,note_on,,2,0,10,,,,,,,12,,,57,75
4032,note_on,,2,0,4,,,,,,,3,,,64,75
4032,note_on,,2,0,5,,,,,,,4,,,57,75
4032,note_on,,2,0,7,,,,,,,6,,,76,108
4032,note_on,,2,0,9,,,,,,,11,,,72,75
4032,note_on,,2,0,3,,,,,,,2,,,72,92
4126,note_on,,94,0,6,,,,,,,5,,,45,0
4126,note_on,,94,0,4,,,,,,,3,,,64,0
4126,note_on,,94,0,7,,,,,,,6,,,76,0
4126,note_on,,94,0,9,,,,,,,11,,,72,0
4126,note_on,,94,0,3,,,,,,,2,,,72,0
4126,note_on,,94,0,8,,,,,,,10,,,76,0
4126,note_on,,94,0,2,,,,,,,1,,,76,0
4126,note_on,,94,0,5,,,,,,,4,,,57,0
4126,note_on,,94,0,10,,,,,,,12,,,57,0
4128,note_on,,2,0,4,,,,,,,3,,,64,75
4128,note_on,,2,0,5,,,,,,,4,,,57,75
4128,note_on,,2,0,7,,,,,,,6,,,72,108
4128,note_on,,2,0,8,,,,,,,10,,,72,75
4128,note_on,,2,0,10,,,,,,,12,,,57,75
4128,note_on,,2,0,9,,,,,,,11,,,69,75
4128,note_on,,2,0,6,,,,,,,5,,,45,60
4128,note_on,,2,0,3,,,,,,,2,,,69,92
4128,note_on,,2,0,2,,,,,,,1,,,72,92
4222,note_on,,94,0,10,,,,,,,12,,,57,0
4222,note_on,,94,0,7,,,,,,,6,,,72,0
4222,note_on,,94,0,2,,,,,,,1,,,72,0
4222,note_on,,94,0,9,,,,,,,11,,,69,0
4222,note_on,,94,0,5,,,,,,,4,,,57,0
4222,note_on,,94,0,3,,,,,,,2,,,69,0
4222,note_on,,94,0,4,,,,,,,3,,,64,0
4222,note_on,,94,0,8,,,,,,,10,,,72,0
4222,note_on,,94,0,6,,,,,,,5,,,45,0
4224,note_on,,2,0,5,,,,,,,4,,,55,75
4224,note_on,,2,0,7,,,,,,,6,,,69,108
4224,note_on,,2,0,2,,,,,,,1,,,69,92
4224,note_on,,2,0,3,,,,,,,2,,,64,92
4224,note_on,,2,0,8,,,,,,,10,,,69,75
4224,note_on,,2,0,4,,,,,,,3,,,64,75
4224,note_on,,2,0,9,,,,,,,11,,,64,75
4224,note_on,,2,0,6,,,,,,,5,,,43,60
4224,note_on,,2,0,10,,,,,,,12,,,55,75
4318,note_on,,94,0,4,,,,,,,3,,,64,0
4318,note_on,,94,0,7,,,,,,,6,,,69,0
4318,note_on,,94,0,9,,,,,,,11,,,64,0
4318,note_on,,94,0,2,,,,,,,1,,,69,0
4318,note_on,,94,0,3,,,,,,,2,,,64,0
4318,note_on,,94,0,6,,,,,,,5,,,43,0
4318,note_on,,94,0,10,,,,,,,12,,,55,0
4318,note_on,,94,0,8,,,,,,,10,,,69,0
4318,note_on,,94,0,5,,,,,,,4,,,55,0
4320,note_on,,2,0,3,,,,,,,2,,,69,92
4320,note_on,,2,0,8,,,,,,,10,,,74,75
4320,note_on,,2,0,4,,,,,,,3,,,65,75
4320,note_on,,2,0,7,,,,,,,6,,,74,108
4320,note_on,,2,0,10,,,,,,,12,,,53,75
4320,note_on,,2,0,2,,,,,,,1,,,74,92
4320,note_on,,2,0,9,,,,,,,11,,,69,75
4320,note_on,,2,0,5,,,,,,,4,,,53,75
4320,note_on,,2,0,6,,,,,,,5,,,41,60
4414,note_on,,94,0,10,,,,,,,12,,,53,0
4414,note_on,,94,0,5,,,,,,,4,,,53,0
4414,note_on,,94,0,2,,,,,,,1,,,74,0
4414,note_on,,94,0,8,,,,,,,10,,,74,0
4414,note_on,,94,0,7,,,,,,,6,,,74,0
4414,note_on,,94,0,6,,,,,,,5,,,41,0
4416,note_on,,2,0,8,,,,,,,10,,,69,75
4416,note_on,,2,0,7,,,,,,,6,,,69,108
4416,note_on,,2,0,6,,,,,,,5,,,41,60
4416,note_on,,2,0,2,,,,,,,1,,,69,92
4416,note_on,,2,0,5,,,,,,,4,,,53,75
4416,note_on,,2,0,10,,,,,,,12,,,53,75
4480,note_on,,160,0,4,,,,,,,3,,,65,0
4480,note_on,,160,0,3,,,,,,,2,,,69,0
4480,note_on,,160,0,9,,,,,,,11,,,69,0
4510,note_on,,94,0,7,,,,,,,6,,,69,0
4510,note_on,,94,0,10,,,,,,,12,,,53,0
4510,note_on,,94,0,5,,,,,,,4,,,53,0
4510,note_on,,94,0,6,,,,,,,5,,,41,0
4510,note_on,,94,0,8,,,,,,,10,,,69,0
4510,note_on,,94,0,2,,,,,,,1,,,69,0
4512,note_on,,2,0,5,,,,,,,4,,,53,75
4512,note_on,,2,0,6,,,,,,,5,,,41,60
4512,note_on,,2,0,7,,,,,,,6,,,62,108
4512,note_on,,2,0,10,,,,,,,12,,,53,75
4512,note_on,,2,0,2,,,,,,,1,,,62,92
4512,note_on,,2,0,8,,,,,,,10,,,62,75
4606,note_on,,94,0,8,,,,,,,10,,,62,0
4606,note_on,,94,0,6,,,,,,,5,,,41,0
4606,note_on,,94,0,2,,,,,,,1,,,62,0
4606,note_on,,94,0,5,,,,,,,4,,,53,0
4606,note_on,,94,0,10,,,,,,,12,,,53,0
4606,note_on,,94,0,7,,,,,,,6,,,62,0
4608,note_on,,2,0,2,,,,,,,1,,,69,92
4608,note_on,,128,0,9,,,,,,,11,,,67,75
4608,note_on,,2,0,7,,,,,,,6,,,69,108
4608,note_on,,2,0,10,,,,,,,12,,,52,75
4608,note_on,,2,0,5,,,,,,,4,,,52,75
4608,note_on,,128,0,4,,,,,,,3,,,61,75
4608,note_on,,2,0,6,,,,,,,5,,,40,60
4608,note_on,,2,0,8,,,,,,,10,,,69,75
4608,note_on,,128,0,3,,,,,,,2,,,67,92
4702,note_on,,94,0,4,,,,,,,3,,,61,0
4702,note_on,,94,0,6,,,,,,,5,,,40,0
4702,note_on,,94,0,2,,,,,,,1,,,69,0
4702,note_on,,94,0,8,,,,,,,10,,,69,0
4702,note_on,,94,0,10,,,,,,,12,,,52,0
4702,note_on,,94,0,5,,,,,,,4,,,52,0
4702,note_on,,94,0,7,,,,,,,6,,,69,0
4702,note_on,,94,0,3,,,,,,,2,,,67,0
4702,note_on,,94,0,9,,,,,,,11,,,67,0
4704,note_on,,2,0,9,,,,,,,11,,,65,75
4704,note_on,,2,0,6,,,,,,,5,,,38,60
4704,note_on,,2,0,7,,,,,,,6,,,74,108
4704,note_on,,2,0,2,,,,,,,1,,,74,92
4704,note_on,,2,0,8,,,,,,,10,,,74,75
4704,note_on,,2,0,3,,,,,,,2,,,65,92
4704,note_on,,2,0,4,,,,,,,3,,,69,75
4704,note_on,,2,0,10,,,,,,,12,,,50,75
4704,note_on,,2,0,5,,,,,,,4,,,50,75
4798,note_on,,94,0,4,,,,,,,3,,,69,0
4798,note_on,,94,0,9,,,,,,,11,,,65,0
4798,note_on,,94,0,10,,,,,,,12,,,50,0
4798,note_on,,94,0,3,,,,,,,2,,,65,0
4798,note_on,,94,0,6,,,,,,,5,,,38,0
4798,note_on,,94,0,5,,,,,,,4,,,50,0
4798,note_on,,94,0,7,,,,,,,6,,,74,0
4798,note_on,,94,0,2,,,,,,,1,,,74,0
4798,note_on,,94,0,8,,,,,,,10,,,74,0
4800,note_on,,2,0,4,,,,,,,3,,,57,75
4800,note_on,,2,0,7,,,,,,,6,,,69,108
4800,note_on,,2,0,10,,,,,,,12,,,48,75
4800,note_on,,2,0,5,,,,,,,4,,,48,75
4800,note_on,,2,0,9,,,,,,,11,,,64,75
4800,note_on,,2,0,6,,,,,,,5,,,36,60
4800,note_on,,2,0,3,,,,,,,2,,,64,92
4800,note_on,,2,0,2,,,,,,,1,,,69,92
4800,note_on,,2,0,8,,,,,,,10,,,69,75
4894,note_on,,94,0,10,,,,,,,12,,,48,0
4894,note_on,,94,0,7,,,,,,,6,,,69,0
4894,note_on,,94,0,9,,,,,,,11,,,64,0
4894,note_on,,94,0,6,,,,,,,5,,,36,0
4894,note_on,,94,0,2,,,,,,,1,,,69,0
4894,note_on,,94,0,5,,,,,,,4,,,48,0
4894,note_on,,94,0,8,,,,,,,10,,,69,0
4894,note_on,,94,0,3,,,,,,,2,,,64,0
4894,note_on,,94,0,4,,,,,,,3,,,57,0
4896,note_on,,2,0,8,,,,,,,10,,,74,75
4896,note_on,,2,0,3,,,,,,,2,,,74,92
4896,note_on,,2,0,7,,,,,,,6,,,74,108
4896,note_on,,2,0,6,,,,,,,5,,,35,60
4896,note_on,,2,0,2,,,,,,,1,,,74,92
4896,note_on,,2,0,5,,,,,,,4,,,47,75
4896,note_on,,2,0,4,,,,,,,3,,,68,75
4896,note_on,,2,0,9,,,,,,,11,,,74,75
4896,note_on,,2,0,10,,,,,,,12,,,47,75
4990,note_on,,94,0,2,,,,,,,1,,,74,0
4990,note_on,,94,0,3,,,,,,,2,,,74,0
4990,note_on,,94,0,9,,,,,,,11,,,74,0
4990,note_on,,94,0,10,,,,,,,12,,,47,0
4990,note_on,,94,0,4,,,,,,,3,,,68,0
4990,note_on,,94,0,5,,,,,,,4,,,47,0
4990,note_on,,94,0,7,,,,,,,6,,,74,0
4990,note_on,,94,0,6,,,,,,,5,,,35,0
4990,note_on,,94,0,8,,,,,,,10,,,74,0
4992,note_on,,2,0,3,,,,,,,2,,,72,92
4992,note_on,,2,0,9,,,,,,,11,,,72,75
4992,note_on,,2,0,10,,,,,,,12,,,45,75
4992,note_on,,2,0,6,,,,,,,5,,,33,60
4992,note_on,,2,0,7,,,,,,,6,,,69,108
4992,note_on,,2,0,2,,,,,,,1,,,69,92
4992,note_on,,2,0,4,,,,,,,3,,,64,75
4992,note_on,,2,0,8,,,,,,,10,,,69,75
4992,note_on,,2,0,5,,,,,,,4,,,45,75
5086,note_on,,94,0,10,,,,,,,12,,,45,0
5086,note_on,,94,0,7,,,,,,,6,,,69,0
5086,note_on,,94,0,2,,,,,,,1,,,69,0
5086,note_on,,94,0,4,,,,,,,3,,,64,0
5086,note_on,,94,0,5,,,,,,,4,,,45,0
5086,note_on,,94,0,3,,,,,,,2,,,72,0
5086,note_on,,94,0,6,,,,,,,5,,,33,0
5086,note_on,,94,0,8,,,,,,,10,,,69,0
5086,note_on,,94,0,9,,,,,,,11,,,72,0
5088,note_on,,2,0,5,,,,,,,4,,,44,75
5088,note_on,,2,0,3,,,,,,,2,,,71,92
5088,note_on,,2,0,2,,,,,,,1,,,74,92
5088,note_on,,2,0,10,,,,,,,12,,,44,75
5088,note_on,,2,0,8,,,,,,,10,,,74,75
5088,note_on,,2,0,6,,,,,,,5,,,32,60
5088,note_on,,2,0,7,,,,,,,6,,,74,108
5088,note_on,,2,0,4,,,,,,,3,,,65,75
5088,note_on,,2,0,9,,,,,,,11,,,71,75
5182,note_on,,94,0,4,,,,,,,3,,,65,0
5184,note_on,,2,0,4,,,,,,,3,,,64,75
5248,note_on,,160,0,10,,,,,,,12,,,44,0
5248,note_on,,160,0,5,,,,,,,4,,,44,0
5248,note_on,,160,0,6,,,,,,,5,,,32,0
5278,note_on,,94,0,4,,,,,,,3,,,64,0
5280,note_on,,2,0,4,,,,,,,3,,,64,75
5344,note_on,,256,0,3,,,,,,,2,,,71,0
5344,note_on,,256,0,8,,,,,,,10,,,74,0
5344,note_on,,256,0,7,,,,,,,6,,,74,0
5344,note_on,,256,0,2,,,,,,,1,,,74,0
5344,note_on,,256,0,9,,,,,,,11,,,71,0
5374,note_on,,94,0,4,,,,,,,3,,,64,0
5376,note_on,,32,0,9,,,,,,,11,,,74,75
5376,note_on,,128,0,6,,,,,,,5,,,44,60
5376,note_on,,128,0,10,,,,,,,12,,,56,75
5376,note_on,,32,0,7,,,,,,,6,,,74,108
5376,note_on,,32,0,8,,,,,,,10,,,74,75
5376,note_on,,32,0,2,,,,,,,1,,,74,92
5376,note_on,,2,0,4,,,,,,,3,,,71,75
5376,note_on,,128,0,5,,,,,,,4,,,56,75
5376,note_on,,32,0,3,,,,,,,2,,,74,92
5470,note_on,,94,0,10,,,,,,,12,,,56,0
5470,note_on,,94,0,7,,,,,,,6,,,74,0
5470,note_on,,94,0,2,,,,,,,1,,,74,0
5470,note_on,,94,0,8,,,,,,,10,,,74,0
5470,note_on,,94,0,4,,,,,,,3,,,71,0
5470,note_on,,94,0,6,,,,,,,5,,,44,0
5470,note_on,,94,0,9,,,,,,,11,,,74,0
5470,note_on,,94,0,3,,,,,,,2,,,74,0
5470,note_on,,94,0,5,,,,,,,4,,,56,0
5472,note_on,,2,0,6,,,,,,,5,,,45,60
5472,note_on,,2,0,7,,,,,,,6,,,72,108
5472,note_on,,2,0,9,,,,,,,11,,,72,75
5472,note_on,,2,0,5,,,,,,,4,,,57,75
5472,note_on,,2,0,8,,,,,,,10,,,76,75
5472,note_on,,2,0,10,,,,,,,12,,,57,75
5472,note_on,,2,0,2,,,,,,,1,,,76,92
5472,note_on,,2,0,4,,,,,,,3,,,60,75
5472,note_on,,2,0,3,,,,,,,2,,,72,92
5566,note_on,,94,0,5,,,,,,,4,,,57,0
5566,note_on,,94,0,2,,,,,,,1,,,76,0
5566,note_on,,94,0,4,,,,,,,3,,,60,0
5566,note_on,,94,0,10,,,,,,,12,,,57,0
5566,note_on,,94,0,8,,,,,,,10,,,76,0
5566,note_on,,94,0,9,,,,,,,11,,,72,0
5566,note_on,,94,0,7,,,,,,,6,,,72,0
5566,note_on,,94,0,6,,,,,,,5,,,45,0
5566,note_on,,94,0,3,,,,,,,2,,,72,0
5568,note_on,,2,0,7,,,,,,,6,,,81,108
5568,note_on,,2,0,5,,,,,,,4,,,50,75
5568,note_on,,2,0,9,,,,,,,11,,,71,75
5568,note_on,,2,0,8,,,,,,,10,,,74,75
5568,note_on,,2,0,2,,,,,,,1,,,74,92
5568,note_on,,2,0,10,,,,,,,12,,,50,75
5568,note_on,,2,0,4,,,,,,,3,,,65,75
5568,note_on,,2,0,6,,,,,,,5,,,38,60
5568,note_on,,2,0,3,,,,,,,2,,,71,92
5614,note_on,,46,0,2,,,,,,,1,,,74,0
5614,note_on,,46,0,8,,,,,,,10,,,74,0
5614,note_on,,46,0,9,,,,,,,11,,,71,0
5614,note_on,,46,0,3,,,,,,,2,,,71,0
5616,note_on,,2,0,8,,,,,,,10,,,72,75
5616,note_on,,2,0,3,,,,,,,2,,,69,92
5616,note_on,,2,0,9,,,,,,,11,,,69,75
5616,note_on,,2,0,2,,,,,,,1,,,72,92
5662,note_on,,46,0,3,,,,,,,2,,,69,0
5662,note_on,,94,0,6,,,,,,,5,,,38,0
5662,note_on,,94,0,5,,,,,,,4,,,50,0
5662,note_on,,46,0,9,,,,,,,11,,,69,0
5662,note_on,,46,0,2,,,,,,,1,,,72,0
5662,note_on,,46,0,8,,,,,,,10,,,72,0
5662,note_on,,94,0,4,,,,,,,3,,,65,0
5662,note_on,,94,0,10,,,,,,,12,,,50,0
5662,note_on,,94,0,7,,,,,,,6,,,81,0
5664,note_on,,2,0,8,,,,,,,10,,,71,75
5664,note_on,,2,0,3,,,,,,,2,,,68,92
5664,note_on,,2,0,6,,,,,,,5,,,40,60
5664,note_on,,2,0,7,,,,,,,6,,,81,108
5664,note_on,,2,0,9,,,,,,,11,,,68,75
5664,note_on,,2,0,10,,,,,,,12,,,52,75
5664,note_on,,2,0,4,,,,,,,3,,,59,75
5664,note_on,,2,0,2,,,,,,,1,,,71,92
5664,note_on,,2,0,5,,,,,,,4,,,52,75
5676,note_on,,0,0,7,,,,,,,6,,,80,108
5676,note_on,,12,0,7,,,,,,,6,,,81,0
5688,note_on,,12,0,7,,,,,,,6,,,80,0
5688,note_on,,0,0,7,,,,,,,6,,,81,108
5700,note_on,,0,0,7,,,,,,,6,,,80,108
5700,note_on,,12,0,7,,,,,,,6,,,81,0
5712,note_on,,0,0,7,,,,,,,6,,,81,108
5712,note_on,,12,0,7,,,,,,,6,,,80,0
5724,note_on,,12,0,7,,,,,,,6,,,81,0
5724,note_on,,0,0,7,,,,,,,6,,,80,108
5736,note_on,,0,0,7,,,,,,,6,,,81,108
5736,note_on,,12,0,7,,,,,,,6,,,80,0
5748,note_on,,12,0,7,,,,,,,6,,,81,0
5748,note_on,,0,0,7,,,,,,,6,,,80,108
5758,note_on,,94,0,10,,,,,,,12,,,52,0
5758,note_on,,94,0,4,,,,,,,3,,,59,0
5758,note_on,,94,0,6,,,,,,,5,,,40,0
5758,note_on,,94,0,5,,,,,,,4,,,52,0
5760,note_on,,2,0,6,,,,,,,5,,,28,60
5760,note_on,,2,0,5,,,,,,,4,,,40,75
5760,note_on,,2,0,4,,,,,,,3,,,64,75
5760,note_on,,2,0,10,,,,,,,12,,,40,75
5806,note_on,,142,0,9,,,,,,,11,,,68,0
5806,note_on,,142,0,2,,,,,,,1,,,71,0
5806,note_on,,142,0,3,,,,,,,2,,,68,0
5806,note_on,,58,0,7,,,,,,,6,,,80,0
5806,note_on,,142,0,8,,,,,,,10,,,71,0
5808,note_on,,2,0,2,,,,,,,1,,,69,92
5808,note_on,,2,0,3,,,,,,,2,,,69,92
5808,note_on,,2,0,8,,,,,,,10,,,69,75
5808,note_on,,2,0,7,,,,,,,6,,,81,108
5808,note_on,,2,0,9,,,,,,,11,,,69,75
5854,note_on,,94,0,6,,,,,,,5,,,28,0
5854,note_on,,46,0,3,,,,,,,2,,,69,0
5854,note_on,,46,0,7,,,,,,,6,,,81,0
5854,note_on,,46,0,2,,,,,,,1,,,69,0
5854,note_on,,94,0,5,,,,,,,4,,,40,0
5854,note_on,,46,0,8,,,,,,,10,,,69,0
5854,note_on,,46,0,9,,,,,,,11,,,69,0
5854,note_on,,94,0,10,,,,,,,12,,,40,0
5854,note_on,,94,0,4,,,,,,,3,,,64,0
5856,note_on,,2,0,5,,,,,,,4,,,45,75
5856,note_on,,2,0,4,,,,,,,3,,,60,75
5856,note_on,,2,0,3,,,,,,,2,,,69,92
5856,note_on,,2,0,6,,,,,,,5,,,33,60
5856,note_on,,2,0,8,,,,,,,10,,,69,75
5856,note_on,,2,0,2,,,,,,,1,,,69,92
5856,note_on,,2,0,10,,,,,,,12,,,45,75
5856,note_on,,2,0,9,,,,,,,11,,,69,75
5856,note_on,,2,0,7,,,,,,,6,,,81,108
6016,note_on,,160,0,8,,,,,,,10,,,69,0
6016,note_on,,160,0,7,,,,,,,6,,,81,0
6016,note_on,,160,0,4,,,,,,,3,,,60,0
6016,note_on,,160,0,6,,,,,,,5,,,33,0
6016,note_on,,160,0,9,,,,,,,11,,,69,0
6016,note_on,,160,0,5,,,,,,,4,,,45,0
6016,note_on,,160,0,2,,,,,,,1,,,69,0
6016,note_on,,160,0,3,,,,,,,2,,,69,0
6016,note_on,,160,0,10,,,,,,,12,,,45,0
6144,note_on,,6048,0,1,,,,,,,0,,,57,108
6238,note_on,,94,0,1,,,,,,,0,,,57,0
6240,note_on,,2,0,1,,,,,,,0,,,64,108
6334,note_on,,94,0,1,,,,,,,0,,,64,0
6336,note_on,,2,0,1,,,,,,,0,,,60,108
6430,note_on,,94,0,1,,,,,,,0,,,60,0
6432,note_on,,2,0,1,,,,,,,0,,,60,108
6526,note_on,,94,0,1,,,,,,,0,,,60,0
6528,note_on,,2,0,1,,,,,,,0,,,57,108
6622,note_on,,94,0,1,,,,,,,0,,,57,0
6624,note_on,,2,0,1,,,,,,,0,,,57,108
6766,note_on,,142,0,1,,,,,,,0,,,57,0
6768,note_on,,2,0,1,,,,,,,0,,,56,108
6814,note_on,,46,0,1,,,,,,,0,,,56,0
6816,note_on,,2,0,1,,,,,,,0,,,57,108
6912,note_on,,896,0,4,,,,,,,3,,,69,75
6912,note_on,,896,0,7,,,,,,,6,,,76,108
6912,note_on,,896,0,5,,,,,,,4,,,55,75
6912,note_on,,896,0,2,,,,,,,1,,,76,92
6912,note_on,,896,0,8,,,,,,,10,,,76,75
6912,note_on,,896,0,6,,,,,,,5,,,43,60
6912,note_on,,896,0,3,,,,,,,2,,,72,92
6912,note_on,,896,0,9,,,,,,,11,,,72,75
6912,note_on,,896,0,10,,,,,,,12,,,55,75
6976,note_on,,160,0,1,,,,,,,0,,,57,0
7006,note_on,,94,0,8,,,,,,,10,,,76,0
7006,note_on,,94,0,4,,,,,,,3,,,69,0
7006,note_on,,94,0,9,,,,,,,11,,,72,0
7006,note_on,,94,0,3,,,,,,,2,,,72,0
7006,note_on,,94,0,10,,,,,,,12,,,55,0
7006,note_on,,94,0,6,,,,,,,5,,,43,0
7006,note_on,,94,0,7,,,,,,,6,,,76,0
7006,note_on,,94,0,5,,,,,,,4,,,55,0
7006,note_on,,94,0,2,,,,,,,1,,,76,0
7008,note_on,,2,0,4,,,,,,,3,,,69,75
7008,note_on,,2,0,3,,,,,,,2,,,77,92
7008,note_on,,2,0,7,,,,,,,6,,,81,108
7008,note_on,,2,0,5,,,,,,,4,,,60,75
7008,note_on,,2,0,9,,,,,,,11,,,77,75
7008,note_on,,2,0,2,,,,,,,1,,,81,92
7008,note_on,,2,0,8,,,,,,,10,,,81,75
7008,note_on,,2,0,6,,,,,,,5,,,48,60
7008,note_on,,2,0,10,,,,,,,12,,,60,75
7102,note_on,,94,0,9,,,,,,,11,,,77,0
7102,note_on,,94,0,5,,,,,,,4,,,60,0
7102,note_on,,94,0,10,,,,,,,12,,,60,0
7102,note_on,,94,0,6,,,,,,,5,,,48,0
7102,note_on,,94,0,4,,,,,,,3,,,69,0
7102,note_on,,94,0,2,,,,,,,1,,,81,0
7102,note_on,,94,0,3,,,,,,,2,,,77,0
7102,note_on,,94,0,7,,,,,,,6,,,81,0
7102,note_on,,94,0,8,,,,,,,10,,,81,0
7104,note_on,,2,0,6,,,,,,,5,,,45,60
7104,note_on,,2,0,2,,,,,,,1,,,76,92
7104,note_on,,2,0,4,,,,,,,3,,,69,75
7104,note_on,,2,0,10,,,,,,,12,,,57,75
7104,note_on,,2,0,3,,,,,,,2,,,72,92
7104,note_on,,2,0,7,,,,,,,6,,,76,108
7104,note_on,,2,0,5,,,,,,,4,,,57,75
7104,note_on,,2,0,8,,,,,,,10,,,76,75
7104,note_on,,2,0,9,,,,,,,11,,,72,75
7198,note_on,,94,0,4,,,,,,,3,,,69,0
7198,note_on,,94,0,6,,,,,,,5,,,45,0
7198,note_on,,94,0,8,,,,,,,10,,,76,0
7198,note_on,,94,0,2,,,,,,,1,,,76,0
7198,note_on,,94,0,5,,,,,,,4,,,57,0
7198,note_on,,94,0,3,,,,,,,2,,,72,0
7198,note_on,,94,0,7,,,,,,,6,,,76,0
7198,note_on,,94,0,9,,,,,,,11,,,72,0
7198,note_on,,94,0,10,,,,,,,12,,,57,0
7200,note_on,,2,0,3,,,,,,,2,,,72,92
7200,note_on,,2,0,6,,,,,,,5,,,45,60
7200,note_on,,2,0,10,,,,,,,12,,,57,75
7200,note_on,,2,0,7,,,,,,,6,,,76,108
7200,note_on,,2,0,8,,,,,,,10,,,76,75
7200,note_on,,2,0,4,,,,,,,3,,,69,75
7200,note_on,,2,0,2,,,,,,,1,,,76,92
7200,note_on,,2,0,5,,,,,,,4,,,57,75
7200,note_on,,2,0,9,,,,,,,11,,,72,75
7294,note_on,,94,0,10,,,,,,,12,,,57,0
7294,note_on,,94,0,7,,,,,,,6,,,76,0
7294,note_on,,94,0,4,,,,,,,3,,,69,0
7294,note_on,,94,0,5,,,,,,,4,,,57,0
7294,note_on,,94,0,6,,,,,,,5,,,45,0
7294,note_on,,94,0,9,,,,,,,11,,,72,0
7294,note_on,,94,0,8,,,,,,,10,,,76,0
7294,note_on,,94,0,3,,,,,,,2,,,72,0
7294,note_on,,94,0,2,,,,,,,1,,,76,0
7296,note_on,,2,0,4,,,,,,,3,,,64,75
7296,note_on,,2,0,7,,,,,,,6,,,72,108
7296,note_on,,2,0,10,,,,,,,12,,,45,75
7296,note_on,,2,0,8,,,,,,,10,,,72,75
7296,note_on,,2,0,9,,,,,,,11,,,69,75
7296,note_on,,2,0,3,,,,,,,2,,,69,92
7296,note_on,,2,0,6,,,,,,,5,,,33,60
7296,note_on,,2,0,5,,,,,,,4,,,45,75
7296,note_on,,2,0,2,,,,,,,1,,,72,92
7390,note_on,,94,0,2,,,,,,,1,,,72,0
7390,note_on,,94,0,4,,,,,,,3,,,64,0
7390,note_on,,94,0,9,,,,,,,11,,,69,0
7390,note_on,,94,0,8,,,,,,,10,,,72,0
7390,note_on,,94,0,6,,,,,,,5,,,33,0
7390,note_on,,94,0,3,,,,,,,2,,,69,0
7390,note_on,,94,0,5,,,,,,,4,,,45,0
7390,note_on,,94,0,7,,,,,,,6,,,72,0
7390,note_on,,94,0,10,,,,,,,12,,,45,0
7392,note_on,,2,0,7,,,,,,,6,,,72,108
7392,note_on,,2,0,10,,,,,,,12,,,45,75
7392,note_on,,2,0,8,,,,,,,10,,,72,75
7392,note_on,,2,0,4,,,,,,,3,,,64,75
7392,note_on,,2,0,2,,,,,,,1,,,72,92
7392,note_on,,2,0,5,,,,,,,4,,,45,75
7392,note_on,,2,0,9,,,,,,,11,,,69,75
7392,note_on,,2,0,6,,,,,,,5,,,33,60
7392,note_on,,2,0,3,,,,,,,2,,,69,92
7486,note_on,,94,0,2,,,,,,,1,,,72,0
7486,note_on,,94,0,8,,,,,,,10,,,72,0
7486,note_on,,94,0,7,,,,,,,6,,,72,0
7486,note_on,,94,0,3,,,,,,,2,,,69,0
7486,note_on,,94,0,4,,,,,,,3,,,64,0
7486,note_on,,94,0,9,,,,,,,11,,,69,0
7488,note_on,,2,0,7,,,,,,,6,,,69,108
7488,note_on,,2,0,2,,,,,,,1,,,69,92
7488,note_on,,2,0,3,,,,,,,2,,,64,92
7488,note_on,,2,0,4,,,,,,,3,,,60,75
7488,note_on,,2,0,8,,,,,,,10,,,69,75
7488,note_on,,2,0,9,,,,,,,11,,,64,75
7582,note_on,,94,0,9,,,,,,,11,,,64,0
7582,note_on,,94,0,7,,,,,,,6,,,69,0
7582,note_on,,94,0,2,,,,,,,1,,,69,0
7582,note_on,,94,0,8,,,,,,,10,,,69,0
7582,note_on,,94,0,4,,,,,,,3,,,60,0
7582,note_on,,94,0,3,,,,,,,2,,,64,0
7584,note_on,,2,0,8,,,,,,,10,,,69,75
7584,note_on,,2,0,9,,,,,,,11,,,64,75
7584,note_on,,2,0,4,,,,,,,3,,,60,75
7584,note_on,,2,0,7,,,,,,,6,,,69,108
7584,note_on,,2,0,2,,,,,,,1,,,69,92
7584,note_on,,2,0,3,,,,,,,2,,,64,92
7648,note_on,,256,0,5,,,,,,,4,,,45,0
7648,note_on,,256,0,10,,,,,,,12,,,45,0
7648,note_on,,256,0,6,,,,,,,5,,,33,0
7680,note_on,,32,0,6,,,,,,,5,,,45,60
7680,note_on,,32,0,10,,,,,,,12,,,57,75
7680,note_on,,32,0,5,,,,,,,4,,,57,75
7680,note_on,,704,0,1,,,,,,,0,,,64,108
7744,note_on,,160,0,3,,,,,,,2,,,64,0
7744,note_on,,160,0,2,,,,,,,1,,,69,0
7744,note_on,,160,0,9,,,,,,,11,,,64,0
7744,note_on,,160,0,4,,,,,,,3,,,60,0
7744,note_on,,160,0,8,,,,,,,10,,,69,0
7744,note_on,,160,0,7,,,,,,,6,,,69,0
7774,note_on,,94,0,10,,,,,,,12,,,57,0
7774,note_on,,94,0,1,,,,,,,0,,,64,0
7774,note_on,,94,0,6,,,,,,,5,,,45,0
7774,note_on,,94,0,5,,,,,,,4,,,57,0
7776,note_on,,2,0,10,,,,,,,12,,,52,75
7776,note_on,,2,0,1,,,,,,,0,,,67,108
7776,note_on,,2,0,6,,,,,,,5,,,40,60
7776,note_on,,2,0,5,,,,,,,4,,,52,75
7870,note_on,,94,0,6,,,,,,,5,,,40,0
7870,note_on,,94,0,10,,,,,,,12,,,52,0
7870,note_on,,94,0,5,,,,,,,4,,,52,0
7870,note_on,,94,0,1,,,,,,,0,,,67,0
7872,note_on,,2,0,5,,,,,,,4,,,48,75
7872,note_on,,2,0,1,,,,,,,0,,,64,108
7872,note_on,,2,0,10,,,,,,,12,,,48,75
7872,note_on,,2,0,6,,,,,,,5,,,36,60
7966,note_on,,94,0,10,,,,,,,12,,,48,0
7966,note_on,,94,0,5,,,,,,,4,,,48,0
7966,note_on,,94,0,6,,,,,,,5,,,36,0
7966,note_on,,94,0,1,,,,,,,0,,,64,0
7968,note_on,,2,0,10,,,,,,,12,,,55,75
7968,note_on,,2,0,6,,,,,,,5,,,43,60
7968,note_on,,2,0,5,,,,,,,4,,,55,75
7968,note_on,,2,0,1,,,,,,,0,,,64,108
8062,note_on,,94,0,6,,,,,,,5,,,43,0
8062,note_on,,94,0,1,,,,,,,0,,,64,0
8062,note_on,,94,0,10,,,,,,,12,,,55,0
8062,note_on,,94,0,5,,,,,,,4,,,55,0
8064,note_on,,2,0,6,,,,,,,5,,,40,60
8064,note_on,,2,0,10,,,,,,,12,,,52,75
8064,note_on,,2,0,5,,,,,,,4,,,52,75
8064,note_on,,2,0,1,,,,,,,0,,,60,108
8158,note_on,,94,0,6,,,,,,,5,,,40,0
8158,note_on,,94,0,1,,,,,,,0,,,60,0
8158,note_on,,94,0,5,,,,,,,4,,,52,0
8158,note_on,,94,0,10,,,,,,,12,,,52,0
8160,note_on,,2,0,1,,,,,,,0,,,60,108
8160,note_on,,2,0,5,,,,,,,4,,,60,75
8160,note_on,,2,0,6,,,,,,,5,,,48,60
8160,note_on,,2,0,10,,,,,,,12,,,60,75
8254,note_on,,94,0,5,,,,,,,4,,,60,0
8254,note_on,,94,0,6,,,,,,,5,,,48,0
8254,note_on,,94,0,10,,,,,,,12,,,60,0
8256,note_on,,2,0,5,,,,,,,4,,,55,75
8256,note_on,,2,0,6,,,,,,,5,,,43,60
8256,note_on,,2,0,10,,,,,,,12,,,55,75
8302,note_on,,142,0,1,,,,,,,0,,,60,0
8304,note_on,,2,0,1,,,,,,,0,,,59,108
8350,note_on,,94,0,6,,,,,,,5,,,43,0
8350,note_on,,46,0,1,,,,,,,0,,,59,0
8350,note_on,,94,0,10,,,,,,,12,,,55,0
8350,note_on,,94,0,5,,,,,,,4,,,55,0
8352,note_on,,2,0,10,,,,,,,12,,,52,75
8352,note_on,,2,0,5,,,,,,,4,,,52,75
8352,note_on,,2,0,1,,,,,,,0,,,60,108
8352,note_on,,2,0,6,,,,,,,5,,,40,60
8446,note_on,,94,0,6,,,,,,,5,,,40,0
8446,note_on,,94,0,10,,,,,,,12,,,52,0
8446,note_on,,94,0,5,,,,,,,4,,,52,0
8448,note_on,,2,0,10,,,,,,,12,,,48,75
8448,note_on,,704,0,4,,,,,,,3,,,67,75
8448,note_on,,704,0,3,,,,,,,2,,,72,92
8448,note_on,,704,0,9,,,,,,,11,,,72,75
8448,note_on,,2,0,5,,,,,,,4,,,48,75
8448,note_on,,704,0,8,,,,,,,10,,,76,75
8448,note_on,,704,0,7,,,,,,,6,,,76,108
8448,note_on,,2,0,6,,,,,,,5,,,36,60
8448,note_on,,704,0,2,,,,,,,1,,,76,92
8512,note_on,,160,0,1,,,,,,,0,,,60,0
8542,note_on,,94,0,2,,,,,,,1,,,76,0
8542,note_on,,94,0,5,,,,,,,4,,,48,0
8542,note_on,,94,0,10,,,,,,,12,,,48,0
8542,note_on,,94,0,7,,,,,,,6,,,76,0
8542,note_on,,94,0,6,,,,,,,5,,,36,0
8542,note_on,,94,0,4,,,,,,,3,,,67,0
8542,note_on,,94,0,3,,,,,,,2,,,72,0
8542,note_on,,94,0,8,,,,,,,10,,,76,0
8542,note_on,,94,0,9,,,,,,,11,,,72,0
8544,note_on,,2,0,9,,,,,,,11,,,76,75
8544,note_on,,2,0,6,,,,,,,5,,,36,60
8544,note_on,,2,0,7,,,,,,,6,,,79,108
8544,note_on,,2,0,8,,,,,,,10,,,79,75
8544,note_on,,2,0,10,,,,,,,12,,,48,75
8544,note_on,,2,0,5,,,,,,,4,,,48,75
8544,note_on,,2,0,4,,,,,,,3,,,72,75
8544,note_on,,2,0,2,,,,,,,1,,,79,92
8544,note_on,,2,0,3,,,,,,,2,,,76,92
8638,note_on,,94,0,2,,,,,,,1,,,79,0
8638,note_on,,94,0,7,,,,,,,6,,,79,0
8638,note_on,,94,0,8,,,,,,,10,,,79,0
8638,note_on,,94,0,3,,,,,,,2,,,76,0
8638,note_on,,94,0,4,,,,,,,3,,,72,0
8638,note_on,,94,0,9,,,,,,,11,,,76,0
8640,note_on,,2,0,3,,,,,,,2,,,72,92
8640,note_on,,2,0,2,,,,,,,1,,,76,92
8640,note_on,,2,0,4,,,,,,,3,,,67,75
8640,note_on,,2,0,9,,,,,,,11,,,72,75
8640,note_on,,2,0,7,,,,,,,6,,,76,108
8640,note_on,,2,0,8,,,,,,,10,,,76,75
8704,note_on,,160,0,6,,,,,,,5,,,36,0
8704,note_on,,160,0,10,,,,,,,12,,,48,0
8704,note_on,,160,0,5,,,,,,,4,,,48,0
8734,note_on,,94,0,8,,,,,,,10,,,76,0
8734,note_on,,94,0,3,,,,,,,2,,,72,0
8734,note_on,,94,0,7,,,,,,,6,,,76,0
8734,note_on,,94,0,9,,,,,,,11,,,72,0
8734,note_on,,94,0,4,,,,,,,3,,,67,0
8734,note_on,,94,0,2,,,,,,,1,,,76,0
8736,note_on,,2,0,2,,,,,,,1,,,76,92
8736,note_on,,2,0,9,,,,,,,11,,,72,75
8736,note_on,,2,0,7,,,,,,,6,,,76,108
8736,note_on,,2,0,3,,,,,,,2,,,72,92
8736,note_on,,2,0,4,,,,,,,3,,,67,75
8736,note_on,,2,0,8,,,,,,,10,,,76,75
8830,note_on,,94,0,9,,,,,,,11,,,72,0
8830,note_on,,94,0,4,,,,,,,3,,,67,0
8830,note_on,,94,0,7,,,,,,,6,,,76,0
8830,note_on,,94,0,2,,,,,,,1,,,76,0
8830,note_on,,94,0,3,,,,,,,2,,,72,0
8830,note_on,,94,0,8,,,,,,,10,,,76,0
8832,note_on,,128,0,5,,,,,,,4,,,48,75
8832,note_on,,2,0,3,,,,,,,2,,,69,92
8832,note_on,,2,0,8,,,,,,,10,,,72,75
8832,note_on,,2,0,2,,,,,,,1,,,72,92
8832,note_on,,128,0,10,,,,,,,12,,,48,75
8832,note_on,,2,0,4,,,,,,,3,,,64,75
8832,note_on,,2,0,7,,,,,,,6,,,72,108
8832,note_on,,128,0,6,,,,,,,5,,,36,60
8832,note_on,,2,0,9,,,,,,,11,,,69,75
8926,note_on,,94,0,5,,,,,,,4,,,48,0
8926,note_on,,94,0,4,,,,,,,3,,,64,0
8926,note_on,,94,0,6,,,,,,,5,,,36,0
8926,note_on,,94,0,10,,,,,,,12,,,48,0
8926,note_on,,94,0,3,,,,,,,2,,,69,0
8926,note_on,,94,0,7,,,,,,,6,,,72,0
8926,note_on,,94,0,2,,,,,,,1,,,72,0
8926,note_on,,94,0,8,,,,,,,10,,,72,0
8926,note_on,,94,0,9,,,,,,,11,,,69,0
8928,note_on,,2,0,3,,,,,,,2,,,67,92
8928,note_on,,2,0,6,,,,,,,5,,,40,60
8928,note_on,,2,0,7,,,,,,,6,,,72,108
8928,note_on,,2,0,4,,,,,,,3,,,60,75
8928,note_on,,2,0,2,,,,,,,1,,,72,92
8928,note_on,,2,0,8,,,,,,,10,,,72,75
8928,note_on,,2,0,9,,,,,,,11,,,67,75
8928,note_on,,2,0,5,,,,,,,4,,,52,75
8928,note_on,,2,0,10,,,,,,,12,,,52,75
9022,note_on,,94,0,3,,,,,,,2,,,67,0
9022,note_on,,94,0,2,,,,,,,1,,,72,0
9022,note_on,,94,0,5,,,,,,,4,,,52,0
9022,note_on,,94,0,9,,,,,,,11,,,67,0
9022,note_on,,94,0,8,,,,,,,10,,,72,0
9022,note_on,,94,0,6,,,,,,,5,,,40,0
9022,note_on,,94,0,10,,,,,,,12,,,52,0
9022,note_on,,94,0,4,,,,,,,3,,,60,0
9024,note_on,,2,0,9,,,,,,,11,,,64,75
9024,note_on,,2,0,10,,,,,,,12,,,48,75
9024,note_on,,2,0,6,,,,,,,5,,,36,60
9024,note_on,,2,0,4,,,,,,,3,,,60,75
9024,note_on,,2,0,3,,,,,,,2,,,64,92
9024,note_on,,2,0,8,,,,,,,10,,,67,75
9024,note_on,,2,0,2,,,,,,,1,,,67,92
9024,note_on,,2,0,5,,,,,,,4,,,48,75
9070,note_on,,142,0,7,,,,,,,6,,,72,0
9072,note_on,,2,0,7,,,,,,,6,,,72,108
9118,note_on,,94,0,2,,,,,,,1,,,67,0
9118,note_on,,94,0,6,,,,,,,5,,,36,0
9118,note_on,,94,0,3,,,,,,,2,,,64,0
9118,note_on,,94,0,9,,,,,,,11,,,64,0
9118,note_on,,94,0,5,,,,,,,4,,,48,0
9118,note_on,,94,0,4,,,,,,,3,,,60,0
9118,note_on,,46,0,7,,,,,,,6,,,72,0
9118,note_on,,94,0,10,,,,,,,12,,,48,0
9118,note_on,,94,0,8,,,,,,,10,,,67,0
9120,note_on,,2,0,6,,,,,,,5,,,36,60
9120,note_on,,2,0,2,,,,,,,1,,,64,92
9120,note_on,,2,0,4,,,,,,,3,,,60,75
9120,note_on,,2,0,7,,,,,,,6,,,72,108
9120,note_on,,2,0,8,,,,,,,10,,,64,75
9120,note_on,,2,0,9,,,,,,,11,,,60,75
9120,note_on,,2,0,10,,,,,,,12,,,48,75
9120,note_on,,2,0,5,,,,,,,4,,,48,75
9120,note_on,,2,0,3,,,,,,,2,,,60,92
9214,note_on,,94,0,6,,,,,,,5,,,36,0
9214,note_on,,94,0,7,,,,,,,6,,,72,0
9214,note_on,,94,0,5,,,,,,,4,,,48,0
9214,note_on,,94,0,10,,,,,,,12,,,48,0
9216,note_on,,704,0,1,,,,,,,0,,,60,108
9216,note_on,,2,0,7,,,,,,,6,,,76,108
9216,note_on,,2,0,6,,,,,,,5,,,33,60
9216,note_on,,2,0,5,,,,,,,4,,,45,75
9216,note_on,,2,0,10,,,,,,,12,,,45,75
9280,note_on,,160,0,4,,,,,,,3,,,60,0
9280,note_on,,160,0,3,,,,,,,2,,,60,0
9280,note_on,,160,0,9,,,,,,,11,,,60,0
9280,note_on,,160,0,8,,,,,,,10,,,64,0
9280,note_on,,160,0,2,,,,,,,1,,,64,0
9310,note_on,,94,0,10,,,,,,,12,,,45,0
9310,note_on,,94,0,1,,,,,,,0,,,60,0
9310,note_on,,94,0,5,,,,,,,4,,,45,0
9310,note_on,,94,0,6,,,,,,,5,,,33,0
9310,note_on,,94,0,7,,,,,,,6,,,76,0
9312,note_on,,2,0,6,,,,,,,5,,,38,60
9312,note_on,,2,0,1,,,,,,,0,,,60,108
9312,note_on,,2,0,5,,,,,,,4,,,50,75
9312,note_on,,2,0,10,,,,,,,12,,,50,75
9312,note_on,,2,0,7,,,,,,,6,,,78,108
9382,note_on,,70,0,7,,,,,,,6,,,78,0
9384,note_on,,2,0,7,,,,,,,6,,,76,108
9406,note_on,,22,0,7,,,,,,,6,,,76,0
9406,note_on,,94,0,1,,,,,,,0,,,60,0
9408,note_on,,2,0,7,,,,,,,6,,,74,108
9408,note_on,,2,0,1,,,,,,,0,,,59,108
9472,note_on,,160,0,6,,,,,,,5,,,38,0
9472,note_on,,160,0,10,,,,,,,12,,,50,0
9472,note_on,,160,0,5,,,,,,,4,,,50,0
9478,note_on,,70,0,7,,,,,,,6,,,74,0
9480,note_on,,2,0,7,,,,,,,6,,,76,108
9502,note_on,,22,0,7,,,,,,,6,,,76,0
9502,note_on,,94,0,1,,,,,,,0,,,59,0
9504,note_on,,2,0,1,,,,,,,0,,,57,108
9504,note_on,,2,0,7,,,,,,,6,,,78,108
9600,note_on,,128,0,10,,,,,,,12,,,50,75
9600,note_on,,128,0,5,,,,,,,4,,,50,75
9600,note_on,,128,0,6,,,,,,,5,,,38,60
9646,note_on,,142,0,1,,,,,,,0,,,57,0
9646,note_on,,142,0,7,,,,,,,6,,,78,0
9648,note_on,,2,0,1,,,,,,,0,,,62,108
9648,note_on,,2,0,7,,,,,,,6,,,78,108
9694,note_on,,94,0,10,,,,,,,12,,,50,0
9694,note_on,,94,0,6,,,,,,,5,,,38,0
9694,note_on,,46,0,7,,,,,,,6,,,78,0
9694,note_on,,46,0,1,,,,,,,0,,,62,0
9694,note_on,,94,0,5,,,,,,,4,,,50,0
9696,note_on,,2,0,6,,,,,,,5,,,31,60
9696,note_on,,2,0,7,,,,,,,6,,,79,108
9696,note_on,,2,0,5,,,,,,,4,,,43,75
9696,note_on,,2,0,1,,,,,,,0,,,59,108
9696,note_on,,2,0,10,,,,,,,12,,,43,75
9790,note_on,,94,0,6,,,,,,,5,,,31,0
9790,note_on,,94,0,10,,,,,,,12,,,43,0
9790,note_on,,94,0,1,,,,,,,0,,,59,0
9790,note_on,,94,0,5,,,,,,,4,,,43,0
9792,note_on,,2,0,10,,,,,,,12,,,52,75
9792,note_on,,2,0,6,,,,,,,5,,,40,60
9792,note_on,,2,0,5,,,,,,,4,,,52,75
9792,note_on,,2,0,1,,,,,,,0,,,64,108
9856,note_on,,160,0,7,,,,,,,6,,,79,0
9886,note_on,,94,0,5,,,,,,,4,,,52,0
9886,note_on,,94,0,1,,,,,,,0,,,64,0
9886,note_on,,94,0,10,,,,,,,12,,,52,0
9886,note_on,,94,0,6,,,,,,,5,,,40,0
9888,note_on,,2,0,5,,,,,,,4,,,57,75
9888,note_on,,2,0,10,,,,,,,12,,,57,75
9888,note_on,,2,0,6,,,,,,,5,,,45,60
9888,note_on,,2,0,1,,,,,,,0,,,61,108
9982,note_on,,94,0,6,,,,,,,5,,,45,0
9982,note_on,,94,0,5,,,,,,,4,,,57,0
9982,note_on,,94,0,10,,,,,,,12,,,57,0
9982,note_on,,94,0,1,,,,,,,0,,,61,0
9984,note_on,,2,0,10,,,,,,,12,,,49,75
9984,note_on,,2,0,6,,,,,,,5,,,37,60
9984,note_on,,2,0,1,,,,,,,0,,,57,108
9984,note_on,,2,0,5,,,,,,,4,,,49,75
9984,note_on,,128,0,7,,,,,,,6,,,76,108
10078,note_on,,94,0,1,,,,,,,0,,,57,0
10078,note_on,,94,0,6,,,,,,,5,,,37,0
10078,note_on,,94,0,5,,,,,,,4,,,49,0
10078,note_on,,94,0,7,,,,,,,6,,,76,0
10078,note_on,,94,0,10,,,,,,,12,,,49,0
10080,note_on,,2,0,1,,,,,,,0,,,65,108
10080,note_on,,2,0,7,,,,,,,6,,,69,108
10080,note_on,,2,0,5,,,,,,,4,,,50,75
10080,note_on,,2,0,10,,,,,,,12,,,50,75
10080,note_on,,2,0,6,,,,,,,5,,,38,60
10174,note_on,,94,0,6,,,,,,,5,,,38,0
10174,note_on,,94,0,7,,,,,,,6,,,69,0
10174,note_on,,94,0,10,,,,,,,12,,,50,0
10174,note_on,,94,0,5,,,,,,,4,,,50,0
10176,note_on,,2,0,7,,,,,,,6,,,69,108
10176,note_on,,2,0,5,,,,,,,4,,,52,75
10176,note_on,,2,0,10,,,,,,,12,,,52,75
10176,note_on,,2,0,6,,,,,,,5,,,40,60
10222,note_on,,142,0,1,,,,,,,0,,,65,0
10222,note_on,,46,0,7,,,,,,,6,,,69,0
10224,note_on,,2,0,7,,,,,,,6,,,69,108
10224,note_on,,2,0,1,,,,,,,0,,,64,108
10270,note_on,,94,0,6,,,,,,,5,,,40,0
10270,note_on,,94,0,5,,,,,,,4,,,52,0
10270,note_on,,46,0,7,,,,,,,6,,,69,0
10270,note_on,,94,0,10,,,,,,,12,,,52,0
10270,note_on,,46,0,1,,,,,,,0,,,64,0
10272,note_on,,2,0,10,,,,,,,12,,,53,75
10272,note_on,,2,0,1,,,,,,,0,,,62,108
10272,note_on,,2,0,7,,,,,,,6,,,69,108
10272,note_on,,2,0,6,,,,,,,5,,,41,60
10272,note_on,,2,0,5,,,,,,,4,,,53,75
10320,note_on,,48,0,1,,,,,,,0,,,62,0
10320,note_on,,0,0,1,,,,,,,0,,,60,108
10366,note_on,,94,0,10,,,,,,,12,,,53,0
10366,note_on,,94,0,6,,,,,,,5,,,41,0
10366,note_on,,94,0,7,,,,,,,6,,,69,0
10366,note_on,,46,0,1,,,,,,,0,,,60,0
10366,note_on,,94,0,5,,,,,,,4,,,53,0
10368,note_on,,2,0,1,,,,,,,0,,,59,108
10368,note_on,,2,0,5,,,,,,,4,,,41,75
10368,note_on,,2,0,7,,,,,,,6,,,74,108
10368,note_on,,2,0,10,,,,,,,12,,,41,75
10368,note_on,,2,0,6,,,,,,,5,,,29,60
10416,note_on,,48,0,1,,,,,,,0,,,59,0
10416,note_on,,0,0,1,,,,,,,0,,,57,108
10462,note_on,,94,0,7,,,,,,,6,,,74,0
10462,note_on,,46,0,1,,,,,,,0,,,57,0
10462,note_on,,94,0,5,,,,,,,4,,,41,0
10462,note_on,,94,0,10,,,,,,,12,,,41,0
10462,note_on,,94,0,6,,,,,,,5,,,29,0
10464,note_on,,2,0,7,,,,,,,6,,,76,108
10464,note_on,,2,0,10,,,,,,,12,,,40,75
10464,note_on,,2,0,5,,,,,,,4,,,40,75
10464,note_on,,2,0,6,,,,,,,5,,,28,60
10464,note_on,,2,0,1,,,,,,,0,,,56,108
10558,note_on,,94,0,1,,,,,,,0,,,56,0
10560,note_on,,2,0,1,,,,,,,0,,,52,108
10624,note_on,,160,0,7,,,,,,,6,,,76,0
10624,note_on,,160,0,6,,,,,,,5,,,28,0
10624,note_on,,160,0,5,,,,,,,4,,,40,0
10624,note_on,,160,0,10,,,,,,,12,,,40,0
10654,note_on,,94,0,1,,,,,,,0,,,52,0
10656,note_on,,2,0,1,,,,,,,0,,,64,108
10752,note_on,,128,0,10,,,,,,,12,,,48,75
10752,note_on,,128,0,5,,,,,,,4,,,48,75
10752,note_on,,128,0,7,,,,,,,6,,,81,108
10752,note_on,,128,0,6,,,,,,,5,,,36,60
10846,note_on,,94,0,10,,,,,,,12,,,48,0
10846,note_on,,94,0,5,,,,,,,4,,,48,0
10846,note_on,,94,0,7,,,,,,,6,,,81,0
10846,note_on,,94,0,6,,,,,,,5,,,36,0
10848,note_on,,2,0,5,,,,,,,4,,,44,75
10848,note_on,,2,0,10,,,,,,,12,,,44,75
10848,note_on,,2,0,7,,,,,,,6,,,76,108
10848,note_on,,2,0,6,,,,,,,5,,,32,60
10920,note_on,,0,0,1,,,,,,,0,,,62,108
10920,note_on,,264,0,1,,,,,,,0,,,64,0
10942,note_on,,94,0,6,,,,,,,5,,,32,0
10942,note_on,,94,0,10,,,,,,,12,,,44,0
10942,note_on,,94,0,5,,,,,,,4,,,44,0
10944,note_on,,0,0,1,,,,,,,0,,,60,108
10944,note_on,,24,0,1,,,,,,,0,,,62,0
10944,note_on,,2,0,6,,,,,,,5,,,45,60
10944,note_on,,2,0,5,,,,,,,4,,,57,75
10944,note_on,,2,0,10,,,,,,,12,,,57,75
11016,note_on,,72,0,1,,,,,,,0,,,60,0
11016,note_on,,0,0,1,,,,,,,0,,,62,108
11038,note_on,,94,0,10,,,,,,,12,,,57,0
11038,note_on,,94,0,6,,,,,,,5,,,45,0
11038,note_on,,94,0,5,,,,,,,4,,,57,0
11040,note_on,,2,0,6,,,,,,,5,,,44,60
11040,note_on,,2,0,5,,,,,,,4,,,56,75
11040,note_on,,0,0,1,,,,,,,0,,,64,108
11040,note_on,,24,0,1,,,,,,,0,,,62,0
11040,note_on,,2,0,10,,,,,,,12,,,56,75
11112,note_on,,0,0,1,,,,,,,0,,,62,108
11112,note_on,,72,0,1,,,,,,,0,,,64,0
11134,note_on,,94,0,5,,,,,,,4,,,56,0
11134,note_on,,94,0,10,,,,,,,12,,,56,0
11134,note_on,,94,0,6,,,,,,,5,,,44,0
11136,note_on,,2,0,5,,,,,,,4,,,57,75
11136,note_on,,24,0,1,,,,,,,0,,,62,0
11136,note_on,,2,0,10,,,,,,,12,,,57,75
11136,note_on,,0,0,1,,,,,,,0,,,60,108
11136,note_on,,2,0,6,,,,,,,5,,,45,60
11208,note_on,,0,0,1,,,,,,,0,,,62,108
11208,note_on,,72,0,1,,,,,,,0,,,60,0
11230,note_on,,94,0,5,,,,,,,4,,,57,0
11230,note_on,,94,0,6,,,,,,,5,,,45,0
11230,note_on,,94,0,10,,,,,,,12,,,57,0
11232,note_on,,2,0,6,,,,,,,5,,,40,60
11232,note_on,,2,0,5,,,,,,,4,,,52,75
11232,note_on,,24,0,1,,,,,,,0,,,62,0
11232,note_on,,2,0,10,,,,,,,12,,,52,75
11232,note_on,,0,0,1,,,,,,,0,,,64,108
11302,note_on,,454,0,7,,,,,,,6,,,76,0
11304,note_on,,2,0,7,,,,,,,6,,,74,108
11326,note_on,,94,0,5,,,,,,,4,,,52,0
11326,note_on,,94,0,10,,,,,,,12,,,52,0
11326,note_on,,22,0,7,,,,,,,6,,,74,0
11326,note_on,,94,0,6,,,,,,,5,,,40,0
11328,note_on,,2,0,10,,,,,,,12,,,57,75
11328,note_on,,2,0,7,,,,,,,6,,,72,108
11328,note_on,,2,0,6,,,,,,,5,,,45,60
11328,note_on,,2,0,5,,,,,,,4,,,57,75
11392,note_on,,160,0,1,,,,,,,0,,,64,0
11398,note_on,,70,0,7,,,,,,,6,,,72,0
11400,note_on,,2,0,7,,,,,,,6,,,74,108
11422,note_on,,22,0,7,,,,,,,6,,,74,0
11422,note_on,,94,0,5,,,,,,,4,,,57,0
11422,note_on,,94,0,10,,,,,,,12,,,57,0
11422,note_on,,94,0,6,,,,,,,5,,,45,0
11424,note_on,,2,0,7,,,,,,,6,,,76,108
11424,note_on,,2,0,5,,,,,,,4,,,56,75
11424,note_on,,2,0,6,,,,,,,5,,,44,60
11424,note_on,,2,0,10,,,,,,,12,,,56,75
11494,note_on,,70,0,7,,,,,,,6,,,76,0
11496,note_on,,2,0,7,,,,,,,6,,,74,108
11518,note_on,,94,0,6,,,,,,,5,,,44,0
11518,note_on,,22,0,7,,,,,,,6,,,74,0
11518,note_on,,94,0,5,,,,,,,4,,,56,0
11518,note_on,,94,0,10,,,,,,,12,,,56,0
11520,note_on,,2,0,5,,,,,,,4,,,57,75
11520,note_on,,2,0,6,,,,,,,5,,,45,60
11520,note_on,,2,0,7,,,,,,,6,,,72,108
11520,note_on,,2,0,10,,,,,,,12,,,57,75
11520,note_on,,128,0,1,,,,,,,0,,,64,108
11590,note_on,,70,0,7,,,,,,,6,,,72,0
11592,note_on,,2,0,7,,,,,,,6,,,74,108
11614,note_on,,94,0,1,,,,,,,0,,,64,0
11614,note_on,,94,0,10,,,,,,,12,,,57,0
11614,note_on,,94,0,6,,,,,,,5,,,45,0
11614,note_on,,94,0,5,,,,,,,4,,,57,0
11614,note_on,,22,0,7,,,,,,,6,,,74,0
11616,note_on,,2,0,6,,,,,,,5,,,36,60
11616,note_on,,2,0,10,,,,,,,12,,,48,75
11616,note_on,,2,0,7,,,,,,,6,,,76,108
11616,note_on,,2,0,5,,,,,,,4,,,48,75
11616,note_on,,2,0,1,,,,,,,0,,,69,108
11710,note_on,,94,0,1,,,,,,,0,,,69,0
11712,note_on,,2,0,1,,,,,,,0,,,64,108
11776,note_on,,160,0,6,,,,,,,5,,,36,0
11776,note_on,,160,0,10,,,,,,,12,,,48,0
11776,note_on,,160,0,5,,,,,,,4,,,48,0
11806,note_on,,94,0,1,,,,,,,0,,,64,0
11808,note_on,,2,0,1,,,,,,,0,,,60,108
11872,note_on,,256,0,7,,,,,,,6,,,76,0
11902,note_on,,94,0,1,,,,,,,0,,,60,0
11904,note_on,,128,0,10,,,,,,,12,,,48,75
11904,note_on,,32,0,7,,,,,,,6,,,76,108
11904,note_on,,128,0,5,,,,,,,4,,,48,75
11904,note_on,,128,0,6,,,,,,,5,,,36,60
11904,note_on,,2,0,1,,,,,,,0,,,57,108
11998,note_on,,94,0,5,,,,,,,4,,,48,0
11998,note_on,,94,0,1,,,,,,,0,,,57,0
11998,note_on,,94,0,6,,,,,,,5,,,36,0
11998,note_on,,94,0,7,,,,,,,6,,,76,0
11998,note_on,,94,0,10,,,,,,,12,,,48,0
12000,note_on,,2,0,1,,,,,,,0,,,65,108
12000,note_on,,2,0,5,,,,,,,4,,,50,75
12000,note_on,,2,0,6,,,,,,,5,,,38,60
12000,note_on,,2,0,7,,,,,,,6,,,69,108
12000,note_on,,2,0,10,,,,,,,12,,,50,75
12094,note_on,,94,0,7,,,,,,,6,,,69,0
12096,note_on,,2,0,7,,,,,,,6,,,62,108
12142,note_on,,142,0,1,,,,,,,0,,,65,0
12144,note_on,,2,0,1,,,,,,,0,,,64,108
12160,note_on,,160,0,6,,,,,,,5,,,38,0
12160,note_on,,160,0,10,,,,,,,12,,,50,0
12160,note_on,,160,0,5,,,,,,,4,,,50,0
12190,note_on,,94,0,7,,,,,,,6,,,62,0
12190,note_on,,46,0,1,,,,,,,0,,,64,0
12192,note_on,,2,0,1,,,,,,,0,,,65,108
12192,note_on,,2,0,7,,,,,,,6,,,74,108
12264,note_on,,0,0,1,,,,,,,0,,,69,108
12264,note_on,,72,0,1,,,,,,,0,,,65,0
12288,note_on,,128,0,10,,,,,,,12,,,47,75
12288,note_on,,128,0,5,,,,,,,4,,,47,75
12288,note_on,,0,0,1,,,,,,,0,,,67,108
12288,note_on,,24,0,1,,,,,,,0,,,69,0
12288,note_on,,128,0,6,,,,,,,5,,,35,60
12334,note_on,,142,0,7,,,,,,,6,,,74,0
12336,note_on,,2,0,7,,,,,,,6,,,74,108
12360,note_on,,0,0,1,,,,,,,0,,,65,108
12360,note_on,,72,0,1,,,,,,,0,,,67,0
12382,note_on,,94,0,6,,,,,,,5,,,35,0
12382,note_on,,94,0,10,,,,,,,12,,,47,0
12382,note_on,,46,0,7,,,,,,,6,,,74,0
12382,note_on,,94,0,5,,,,,,,4,,,47,0
12384,note_on,,24,0,1,,,,,,,0,,,65,0
12384,note_on,,2,0,6,,,,,,,5,,,36,60
12384,note_on,,2,0,10,,,,,,,12,,,48,75
12384,note_on,,0,0,1,,,,,,,0,,,64,108
12384,note_on,,2,0,5,,,,,,,4,,,48,75
12384,note_on,,2,0,7,,,,,,,6,,,76,108
12456,note_on,,72,0,1,,,,,,,0,,,64,0
12456,note_on,,0,0,1,,,,,,,0,,,62,108
12480,note_on,,0,0,1,,,,,,,0,,,60,108
12480,note_on,,24,0,1,,,,,,,0,,,62,0
12544,note_on,,160,0,7,,,,,,,6,,,76,0
12544,note_on,,160,0,10,,,,,,,12,,,48,0
12544,note_on,,160,0,6,,,,,,,5,,,36,0
12544,note_on,,160,0,5,,,,,,,4,,,48,0
12552,note_on,,0,0,1,,,,,,,0,,,62,108
12552,note_on,,72,0,1,,,,,,,0,,,60,0
12576,note_on,,0,0,1,,,,,,,0,,,64,108
12576,note_on,,24,0,1,,,,,,,0,,,62,0
12648,note_on,,0,0,1,,,,,,,0,,,67,108
12648,note_on,,72,0,1,,,,,,,0,,,64,0
12672,note_on,,128,0,10,,,,,,,12,,,57,75
12672,note_on,,128,0,6,,,,,,,5,,,45,60
12672,note_on,,0,0,1,,,,,,,0,,,65,108
12672,note_on,,24,0,1,,,,,,,0,,,67,0
12672,note_on,,128,0,5,,,,,,,4,,,57,75
12744,note_on,,0,0,1,,,,,,,0,,,64,108
12744,note_on,,72,0,1,,,,,,,0,,,65,0
12766,note_on,,94,0,6,,,,,,,5,,,45,0
12766,note_on,,94,0,10,,,,,,,12,,,57,0
12766,note_on,,94,0,5,,,,,,,4,,,57,0
12768,note_on,,2,0,10,,,,,,,12,,,59,75
12768,note_on,,2,0,6,,,,,,,5,,,47,60
12768,note_on,,2,0,5,,,,,,,4,,,59,75
12768,note_on,,0,0,1,,,,,,,0,,,62,108
12768,note_on,,24,0,1,,,,,,,0,,,64,0
12840,note_on,,0,0,1,,,,,,,0,,,60,108
12840,note_on,,72,0,1,,,,,,,0,,,62,0
12864,note_on,,24,0,1,,,,,,,0,,,60,0
12864,note_on,,0,0,1,,,,,,,0,,,59,108
12928,note_on,,160,0,10,,,,,,,12,,,59,0
12928,note_on,,160,0,6,,,,,,,5,,,47,0
12928,note_on,,160,0,5,,,,,,,4,,,59,0
12936,note_on,,0,0,1,,,,,,,0,,,60,108
12936,note_on,,72,0,1,,,,,,,0,,,59,0
12960,note_on,,0,0,1,,,,,,,0,,,62,108
12960,note_on,,24,0,1,,,,,,,0,,,60,0
13032,note_on,,0,0,1,,,,,,,0,,,65,108
13032,note_on,,72,0,1,,,,,,,0,,,62,0
13056,note_on,,128,0,10,,,,,,,12,,,56,75
13056,note_on,,128,0,6,,,,,,,5,,,44,60
13056,note_on,,128,0,5,,,,,,,4,,,56,75
13056,note_on,,24,0,1,,,,,,,0,,,65,0
13056,note_on,,0,0,1,,,,,,,0,,,64,108
13128,note_on,,72,0,1,,,,,,,0,,,64,0
13128,note_on,,0,0,1,,,,,,,0,,,62,108
13150,note_on,,94,0,5,,,,,,,4,,,56,0
13150,note_on,,94,0,6,,,,,,,5,,,44,0
13150,note_on,,94,0,10,,,,,,,12,,,56,0
13152,note_on,,2,0,5,,,,,,,4,,,57,75
13152,note_on,,2,0,6,,,,,,,5,,,45,60
13152,note_on,,2,0,10,,,,,,,12,,,57,75
13152,note_on,,0,0,1,,,,,,,0,,,60,108
13152,note_on,,24,0,1,,,,,,,0,,,62,0
13224,note_on,,72,0,1,,,,,,,0,,,60,0
13224,note_on,,0,0,1,,,,,,,0,,,57,108
13246,note_on,,94,0,6,,,,,,,5,,,45,0
13246,note_on,,94,0,5,,,,,,,4,,,57,0
13246,note_on,,94,0,10,,,,,,,12,,,57,0
13248,note_on,,24,0,1,,,,,,,0,,,57,0
13248,note_on,,0,0,1,,,,,,,0,,,65,108
13248,note_on,,2,0,10,,,,,,,12,,,45,75
13248,note_on,,2,0,5,,,,,,,4,,,45,75
13248,note_on,,2,0,6,,,,,,,5,,,33,60
13320,note_on,,0,0,1,,,,,,,0,,,64,108
13320,note_on,,72,0,1,,,,,,,0,,,65,0
13342,note_on,,94,0,5,,,,,,,4,,,45,0
13342,note_on,,94,0,6,,,,,,,5,,,33,0
13342,note_on,,94,0,10,,,,,,,12,,,45,0
13344,note_on,,2,0,5,,,,,,,4,,,50,75
13344,note_on,,2,0,6,,,,,,,5,,,38,60
13344,note_on,,0,0,1,,,,,,,0,,,62,108
13344,note_on,,2,0,10,,,,,,,12,,,50,75
13344,note_on,,24,0,1,,,,,,,0,,,64,0
13416,note_on,,0,0,1,,,,,,,0,,,60,108
13416,note_on,,72,0,1,,,,,,,0,,,62,0
13438,note_on,,94,0,10,,,,,,,12,,,50,0
13438,note_on,,94,0,5,,,,,,,4,,,50,0
13438,note_on,,94,0,6,,,,,,,5,,,38,0
13440,note_on,,24,0,1,,,,,,,0,,,60,0
13440,note_on,,0,0,1,,,,,,,0,,,59,108
13440,note_on,,2,0,5,,,,,,,4,,,53,75
13440,note_on,,2,0,6,,,,,,,5,,,41,60
13440,note_on,,2,0,10,,,,,,,12,,,53,75
13512,note_on,,72,0,1,,,,,,,0,,,59,0
13512,note_on,,0,0,1,,,,,,,0,,,57,108
13534,note_on,,94,0,5,,,,,,,4,,,53,0
13534,note_on,,94,0,6,,,,,,,5,,,41,0
13534,note_on,,94,0,10,,,,,,,12,,,53,0
13536,note_on,,2,0,6,,,,,,,5,,,40,60
13536,note_on,,2,0,10,,,,,,,12,,,52,75
13536,note_on,,2,0,5,,,,,,,4,,,52,75
13536,note_on,,0,0,1,,,,,,,0,,,56,108
13536,note_on,,24,0,1,,,,,,,0,,,57,0
13696,note_on,,160,0,10,,,,,,,12,,,52,0
13696,note_on,,160,0,6,,,,,,,5,,,40,0
13696,note_on,,160,0,1,,,,,,,0,,,56,0
13696,note_on,,160,0,5,,,,,,,4,,,52,0
13824,note_on,,128,0,1,,,,,,,0,,,52,108
13918,note_on,,94,0,1,,,,,,,0,,,52,0
13920,note_on,,2,0,1,,,,,,,0,,,64,108
14014,note_on,,94,0,1,,,,,,,0,,,64,0
14016,note_on,,2,0,1,,,,,,,0,,,60,108
14110,note_on,,94,0,1,,,,,,,0,,,60,0
14112,note_on,,2,0,1,,,,,,,0,,,60,108
14206,note_on,,94,0,1,,,,,,,0,,,60,0
14208,note_on,,1664,0,7,,,,,,,6,,,76,108
14208,note_on,,2,0,1,,,,,,,0,,,57,108
14208,note_on,,512,0,10,,,,,,,12,,,57,75
14208,note_on,,512,0,5,,,,,,,4,,,57,75
14208,note_on,,512,0,6,,,,,,,5,,,45,60
14302,note_on,,94,0,10,,,,,,,12,,,57,0
14302,note_on,,94,0,7,,,,,,,6,,,76,0
14302,note_on,,94,0,6,,,,,,,5,,,45,0
14302,note_on,,94,0,5,,,,,,,4,,,57,0
14302,note_on,,94,0,1,,,,,,,0,,,57,0
14304,note_on,,2,0,6,,,,,,,5,,,48,60
14304,note_on,,2,0,7,,,,,,,6,,,81,108
14304,note_on,,2,0,5,,,,,,,4,,,60,75
14304,note_on,,2,0,10,,,,,,,12,,,60,75
14304,note_on,,2,0,1,,,,,,,0,,,57,108
14398,note_on,,94,0,6,,,,,,,5,,,48,0
14398,note_on,,94,0,7,,,,,,,6,,,81,0
14398,note_on,,94,0,10,,,,,,,12,,,60,0
14398,note_on,,94,0,5,,,,,,,4,,,60,0
14400,note_on,,2,0,5,,,,,,,4,,,57,75
14400,note_on,,2,0,6,,,,,,,5,,,45,60
14400,note_on,,2,0,7,,,,,,,6,,,76,108
14400,note_on,,2,0,10,,,,,,,12,,,57,75
14446,note_on,,142,0,1,,,,,,,0,,,57,0
14448,note_on,,2,0,1,,,,,,,0,,,56,108
14494,note_on,,94,0,10,,,,,,,12,,,57,0
14494,note_on,,94,0,7,,,,,,,6,,,76,0
14494,note_on,,94,0,6,,,,,,,5,,,45,0
14494,note_on,,94,0,5,,,,,,,4,,,57,0
14494,note_on,,46,0,1,,,,,,,0,,,56,0
14496,note_on,,2,0,1,,,,,,,0,,,57,108
14496,note_on,,2,0,10,,,,,,,12,,,57,75
14496,note_on,,2,0,7,,,,,,,6,,,76,108
14496,note_on,,2,0,6,,,,,,,5,,,45,60
14496,note_on,,2,0,5,,,,,,,4,,,57,75
14590,note_on,,94,0,1,,,,,,,0,,,57,0
14590,note_on,,94,0,7,,,,,,,6,,,76,0
14590,note_on,,94,0,10,,,,,,,12,,,57,0
14590,note_on,,94,0,6,,,,,,,5,,,45,0
14590,note_on,,94,0,5,,,,,,,4,,,57,0
14592,note_on,,2,0,1,,,,,,,0,,,64,108
14592,note_on,,2,0,7,,,,,,,6,,,72,108
14592,note_on,,2,0,10,,,,,,,12,,,52,75
14592,note_on,,2,0,5,,,,,,,4,,,52,75
14592,note_on,,2,0,6,,,,,,,5,,,40,60
14686,note_on,,94,0,10,,,,,,,12,,,52,0
14686,note_on,,94,0,1,,,,,,,0,,,64,0
14686,note_on,,94,0,7,,,,,,,6,,,72,0
14686,note_on,,94,0,6,,,,,,,5,,,40,0
14686,note_on,,94,0,5,,,,,,,4,,,52,0
14688,note_on,,2,0,5,,,,,,,4,,,52,75
14688,note_on,,2,0,10,,,,,,,12,,,52,75
14688,note_on,,2,0,6,,,,,,,5,,,40,60
14688,note_on,,2,0,7,,,,,,,6,,,72,108
14688,note_on,,2,0,1,,,,,,,0,,,67,108
14782,note_on,,94,0,1,,,,,,,0,,,67,0
14784,note_on,,2,0,1,,,,,,,0,,,64,108
14848,note_on,,160,0,5,,,,,,,4,,,52,0
14848,note_on,,160,0,10,,,,,,,12,,,52,0
14848,note_on,,160,0,6,,,,,,,5,,,40,0
14848,note_on,,160,0,7,,,,,,,6,,,72,0
14878,note_on,,94,0,1,,,,,,,0,,,64,0
14880,note_on,,2,0,1,,,,,,,0,,,64,108
14974,note_on,,94,0,1,,,,,,,0,,,64,0
14976,note_on,,128,0,10,,,,,,,12,,,60,75
14976,note_on,,128,0,7,,,,,,,6,,,76,108
14976,note_on,,128,0,6,,,,,,,5,,,48,60
14976,note_on,,128,0,5,,,,,,,4,,,60,75
14976,note_on,,2,0,1,,,,,,,0,,,60,108
15070,note_on,,94,0,10,,,,,,,12,,,60,0
15070,note_on,,94,0,5,,,,,,,4,,,60,0
15070,note_on,,94,0,1,,,,,,,0,,,60,0
15070,note_on,,94,0,6,,,,,,,5,,,48,0
15070,note_on,,94,0,7,,,,,,,6,,,76,0
15072,note_on,,2,0,5,,,,,,,4,,,64,75
15072,note_on,,2,0,6,,,,,,,5,,,52,60
15072,note_on,,2,0,1,,,,,,,0,,,60,108
15072,note_on,,2,0,10,,,,,,,12,,,64,75
15072,note_on,,2,0,7,,,,,,,6,,,79,108
15166,note_on,,94,0,10,,,,,,,12,,,64,0
15166,note_on,,94,0,7,,,,,,,6,,,79,0
15166,note_on,,94,0,6,,,,,,,5,,,52,0
15166,note_on,,94,0,5,,,,,,,4,,,64,0
15168,note_on,,2,0,10,,,,,,,12,,,60,75
15168,note_on,,2,0,7,,,,,,,6,,,76,108
15168,note_on,,2,0,6,,,,,,,5,,,48,60
15168,note_on,,2,0,5,,,,,,,4,,,60,75
15214,note_on,,142,0,1,,,,,,,0,,,60,0
15216,note_on,,2,0,1,,,,,,,0,,,59,108
15262,note_on,,94,0,7,,,,,,,6,,,76,0
15262,note_on,,46,0,1,,,,,,,0,,,59,0
15262,note_on,,94,0,6,,,,,,,5,,,48,0
15262,note_on,,94,0,10,,,,,,,12,,,60,0
15262,note_on,,94,0,5,,,,,,,4,,,60,0
15264,note_on,,2,0,7,,,,,,,6,,,76,108
15264,note_on,,2,0,10,,,,,,,12,,,60,75
15264,note_on,,2,0,5,,,,,,,4,,,60,75
15264,note_on,,2,0,6,,,,,,,5,,,48,60
15264,note_on,,2,0,1,,,,,,,0,,,60,108
15358,note_on,,94,0,5,,,,,,,4,,,60,0
15358,note_on,,94,0,10,,,,,,,12,,,60,0
15358,note_on,,94,0,6,,,,,,,5,,,48,0
15358,note_on,,94,0,7,,,,,,,6,,,76,0
15358,note_on,,94,0,1,,,,,,,0,,,60,0
15360,note_on,,2,0,7,,,,,,,6,,,72,108
15360,note_on,,2,0,6,,,,,,,5,,,36,60
15360,note_on,,2,0,10,,,,,,,12,,,48,75
15360,note_on,,2,0,1,,,,,,,0,,,64,108
15360,note_on,,2,0,5,,,,,,,4,,,48,75
15454,note_on,,94,0,5,,,,,,,4,,,48,0
15454,note_on,,94,0,1,,,,,,,0,,,64,0
15454,note_on,,94,0,10,,,,,,,12,,,48,0
15454,note_on,,94,0,7,,,,,,,6,,,72,0
15454,note_on,,94,0,6,,,,,,,5,,,36,0
15456,note_on,,2,0,7,,,,,,,6,,,72,108
15456,note_on,,2,0,5,,,,,,,4,,,48,75
15456,note_on,,2,0,1,,,,,,,0,,,69,108
15456,note_on,,2,0,10,,,,,,,12,,,48,75
15456,note_on,,2,0,6,,,,,,,5,,,36,60
15550,note_on,,94,0,1,,,,,,,0,,,69,0
15552,note_on,,2,0,1,,,,,,,0,,,64,108
15646,note_on,,94,0,1,,,,,,,0,,,64,0
15648,note_on,,2,0,1,,,,,,,0,,,60,108
15712,note_on,,256,0,5,,,,,,,4,,,48,0
15712,note_on,,256,0,6,,,,,,,5,,,36,0
15712,note_on,,256,0,7,,,,,,,6,,,72,0
15712,note_on,,256,0,10,,,,,,,12,,,48,0
15742,note_on,,94,0,1,,,,,,,0,,,60,0
15744,note_on,,32,0,6,,,,,,,5,,,41,60
15744,note_on,,32,0,7,,,,,,,6,,,74,108
15744,note_on,,32,0,10,,,,,,,12,,,53,75
15744,note_on,,2,0,1,,,,,,,0,,,57,108
15744,note_on,,32,0,5,,,,,,,4,,,53,75
15838,note_on,,94,0,7,,,,,,,6,,,74,0
15838,note_on,,94,0,5,,,,,,,4,,,53,0
15838,note_on,,94,0,6,,,,,,,5,,,41,0
15838,note_on,,94,0,1,,,,,,,0,,,57,0
15838,note_on,,94,0,10,,,,,,,12,,,53,0
15840,note_on,,2,0,5,,,,,,,4,,,52,75
15840,note_on,,2,0,10,,,,,,,12,,,52,75
15840,note_on,,2,0,6,,,,,,,5,,,40,60
15840,note_on,,2,0,7,,,,,,,6,,,76,108
15840,note_on,,2,0,1,,,,,,,0,,,64,108
15982,note_on,,142,0,1,,,,,,,0,,,64,0
15984,note_on,,2,0,1,,,,,,,0,,,52,108
16030,note_on,,46,0,1,,,,,,,0,,,52,0
16032,note_on,,2,0,1,,,,,,,0,,,52,108
16096,note_on,,256,0,10,,,,,,,12,,,52,0
16096,note_on,,256,0,5,,,,,,,4,,,52,0
16096,note_on,,256,0,6,,,,,,,5,,,40,0
16102,note_on,,262,0,7,,,,,,,6,,,76,0
16104,note_on,,2,0,7,,,,,,,6,,,74,108
16126,note_on,,22,0,7,,,,,,,6,,,74,0
16128,note_on,,2,0,7,,,,,,,6,,,72,108
16128,note_on,,32,0,6,,,,,,,5,,,45,60
16128,note_on,,32,0,10,,,,,,,12,,,57,75
16128,note_on,,32,0,5,,,,,,,4,,,57,75
16192,note_on,,160,0,1,,,,,,,0,,,52,0
16198,note_on,,70,0,7,,,,,,,6,,,72,0
16200,note_on,,2,0,7,,,,,,,6,,,74,108
16222,note_on,,94,0,6,,,,,,,5,,,45,0
16222,note_on,,94,0,10,,,,,,,12,,,57,0
16222,note_on,,94,0,5,,,,,,,4,,,57,0
16222,note_on,,22,0,7,,,,,,,6,,,74,0
16224,note_on,,2,0,10,,,,,,,12,,,56,75
16224,note_on,,2,0,7,,,,,,,6,,,76,108
16224,note_on,,2,0,6,,,,,,,5,,,44,60
16224,note_on,,2,0,5,,,,,,,4,,,56,75
16294,note_on,,70,0,7,,,,,,,6,,,76,0
16296,note_on,,2,0,7,,,,,,,6,,,74,108
16318,note_on,,22,0,7,,,,,,,6,,,74,0
16318,note_on,,94,0,5,,,,,,,4,,,56,0
16318,note_on,,94,0,6,,,,,,,5,,,44,0
16318,note_on,,94,0,10,,,,,,,12,,,56,0
16320,note_on,,2,0,5,,,,,,,4,,,57,75
16320,note_on,,2,0,6,,,,,,,5,,,45,60
16320,note_on,,2,0,7,,,,,,,6,,,72,108
16320,note_on,,2,0,10,,,,,,,12,,,57,75
16390,note_on,,70,0,7,,,,,,,6,,,72,0
16392,note_on,,2,0,7,,,,,,,6,,,74,108
16414,note_on,,94,0,6,,,,,,,5,,,45,0
16414,note_on,,22,0,7,,,,,,,6,,,74,0
16414,note_on,,94,0,10,,,,,,,12,,,57,0
16414,note_on,,94,0,5,,,,,,,4,,,57,0
16416,note_on,,2,0,10,,,,,,,12,,,56,75
16416,note_on,,2,0,5,,,,,,,4,,,56,75
16416,note_on,,2,0,6,,,,,,,5,,,44,60
16416,note_on,,2,0,7,,,,,,,6,,,76,108
16486,note_on,,70,0,7,,,,,,,6,,,76,0
16488,note_on,,2,0,7,,,,,,,6,,,74,108
16510,note_on,,22,0,7,,,,,,,6,,,74,0
16510,note_on,,94,0,10,,,,,,,12,,,56,0
16510,note_on,,94,0,5,,,,,,,4,,,56,0
16510,note_on,,94,0,6,,,,,,,5,,,44,0
16512,note_on,,2,0,7,,,,,,,6,,,72,108
16512,note_on,,2,0,10,,,,,,,12,,,57,75
16512,note_on,,2,0,5,,,,,,,4,,,57,75
16512,note_on,,2,0,6,,,,,,,5,,,45,60
16582,note_on,,70,0,7,,,,,,,6,,,72,0
16584,note_on,,2,0,7,,,,,,,6,,,74,108
16606,note_on,,94,0,6,,,,,,,5,,,45,0
16606,note_on,,94,0,10,,,,,,,12,,,57,0
16606,note_on,,94,0,5,,,,,,,4,,,57,0
16606,note_on,,22,0,7,,,,,,,6,,,74,0
16608,note_on,,2,0,10,,,,,,,12,,,52,75
16608,note_on,,2,0,5,,,,,,,4,,,52,75
16608,note_on,,2,0,7,,,,,,,6,,,76,108
16608,note_on,,2,0,6,,,,,,,5,,,40,60
16702,note_on,,94,0,10,,,,,,,12,,,52,0
16702,note_on,,94,0,6,,,,,,,5,,,40,0
16702,note_on,,94,0,5,,,,,,,4,,,52,0
16704,note_on,,7424,0,4,,,,,,,3,,,59,75
16704,note_on,,7424,0,9,,,,,,,11,,,68,75
16704,note_on,,2,0,5,,,,,,,4,,,52,75
16704,note_on,,7424,0,3,,,,,,,2,,,68,92
16704,note_on,,7424,0,2,,,,,,,1,,,76,92
16704,note_on,,7424,0,8,,,,,,,10,,,76,75
16704,note_on,,2,0,10,,,,,,,12,,,52,75
16704,note_on,,2,0,6,,,,,,,5,,,40,60
16774,note_on,,70,0,6,,,,,,,5,,,40,0
16774,note_on,,70,0,9,,,,,,,11,,,68,0
16774,note_on,,70,0,5,,,,,,,4,,,52,0
16774,note_on,,70,0,3,,,,,,,2,,,68,0
16774,note_on,,70,0,2,,,,,,,1,,,76,0
16774,note_on,,70,0,10,,,,,,,12,,,52,0
16774,note_on,,70,0,8,,,,,,,10,,,76,0
16774,note_on,,70,0,4,,,,,,,3,,,59,0
16776,note_on,,2,0,8,,,,,,,10,,,76,75
16776,note_on,,2,0,4,,,,,,,3,,,59,75
16776,note_on,,2,0,5,,,,,,,4,,,52,75
16776,note_on,,2,0,6,,,,,,,5,,,40,60
16776,note_on,,2,0,10,,,,,,,12,,,52,75
16776,note_on,,2,0,3,,,,,,,2,,,68,92
16776,note_on,,2,0,9,,,,,,,11,,,68,75
16776,note_on,,2,0,2,,,,,,,1,,,76,92
16798,note_on,,22,0,6,,,,,,,5,,,40,0
16798,note_on,,22,0,3,,,,,,,2,,,68,0
16798,note_on,,22,0,8,,,,,,,10,,,76,0
16798,note_on,,22,0,9,,,,,,,11,,,68,0
16798,note_on,,22,0,10,,,,,,,12,,,52,0
16798,note_on,,22,0,5,,,,,,,4,,,52,0
16798,note_on,,22,0,4,,,,,,,3,,,59,0
16798,note_on,,22,0,2,,,,,,,1,,,76,0
16800,note_on,,2,0,5,,,,,,,4,,,52,75
16800,note_on,,2,0,9,,,,,,,11,,,68,75
16800,note_on,,2,0,6,,,,,,,5,,,40,60
16800,note_on,,2,0,8,,,,,,,10,,,76,75
16800,note_on,,2,0,3,,,,,,,2,,,68,92
16800,note_on,,2,0,10,,,,,,,12,,,52,75
16800,note_on,,2,0,4,,,,,,,3,,,59,75
16800,note_on,,2,0,2,,,,,,,1,,,76,92
16864,note_on,,256,0,7,,,,,,,6,,,76,0
16894,note_on,,94,0,9,,,,,,,11,,,68,0
16894,note_on,,94,0,6,,,,,,,5,,,40,0
16894,note_on,,94,0,3,,,,,,,2,,,68,0
16894,note_on,,94,0,10,,,,,,,12,,,52,0
16894,note_on,,94,0,5,,,,,,,4,,,52,0
16894,note_on,,94,0,4,,,,,,,3,,,59,0
16894,note_on,,94,0,8,,,,,,,10,,,76,0
16894,note_on,,94,0,2,,,,,,,1,,,76,0
16896,note_on,,2,0,9,,,,,,,11,,,71,75
16896,note_on,,32,0,7,,,,,,,6,,,76,108
16896,note_on,,2,0,10,,,,,,,12,,,62,75
16896,note_on,,2,0,5,,,,,,,4,,,62,75
16896,note_on,,2,0,6,,,,,,,5,,,50,60
16896,note_on,,2,0,3,,,,,,,2,,,71,92
16896,note_on,,2,0,4,,,,,,,3,,,68,75
16920,note_on,,26,0,8,,,,,,,10,,,76,75
16920,note_on,,26,0,2,,,,,,,1,,,76,92
16942,note_on,,22,0,8,,,,,,,10,,,76,0
16942,note_on,,22,0,2,,,,,,,1,,,76,0
16944,note_on,,2,0,8,,,,,,,10,,,78,75
16944,note_on,,2,0,2,,,,,,,1,,,78,92
16966,note_on,,22,0,8,,,,,,,10,,,78,0
16966,note_on,,22,0,2,,,,,,,1,,,78,0
16968,note_on,,2,0,2,,,,,,,1,,,80,92
16968,note_on,,2,0,8,,,,,,,10,,,80,75
16990,note_on,,22,0,8,,,,,,,10,,,80,0
16990,note_on,,94,0,6,,,,,,,5,,,50,0
16990,note_on,,94,0,9,,,,,,,11,,,71,0
16990,note_on,,22,0,2,,,,,,,1,,,80,0
16990,note_on,,94,0,4,,,,,,,3,,,68,0
16990,note_on,,94,0,5,,,,,,,4,,,62,0
16990,note_on,,94,0,3,,,,,,,2,,,71,0
16990,note_on,,94,0,10,,,,,,,12,,,62,0
16990,note_on,,94,0,7,,,,,,,6,,,76,0
16992,note_on,,2,0,7,,,,,,,6,,,81,108
16992,note_on,,2,0,2,,,,,,,1,,,81,92
16992,note_on,,2,0,8,,,,,,,10,,,81,75
16992,note_on,,2,0,3,,,,,,,2,,,76,92
16992,note_on,,2,0,10,,,,,,,12,,,60,75
16992,note_on,,2,0,6,,,,,,,5,,,48,60
16992,note_on,,2,0,5,,,,,,,4,,,60,75
16992,note_on,,2,0,4,,,,,,,3,,,64,75
16992,note_on,,2,0,9,,,,,,,11,,,76,75
17086,note_on,,94,0,7,,,,,,,6,,,81,0
17086,note_on,,94,0,3,,,,,,,2,,,76,0
17086,note_on,,94,0,10,,,,,,,12,,,60,0
17086,note_on,,94,0,4,,,,,,,3,,,64,0
17086,note_on,,94,0,5,,,,,,,4,,,60,0
17086,note_on,,94,0,6,,,,,,,5,,,48,0
17086,note_on,,94,0,8,,,,,,,10,,,81,0
17086,note_on,,94,0,2,,,,,,,1,,,81,0
17086,note_on,,94,0,9,,,,,,,11,,,76,0
17088,note_on,,2,0,10,,,,,,,12,,,57,75
17088,note_on,,2,0,2,,,,,,,1,,,76,92
17088,note_on,,2,0,6,,,,,,,5,,,45,60
17088,note_on,,2,0,4,,,,,,,3,,,69,75
17088,note_on,,2,0,7,,,,,,,6,,,76,108
17088,note_on,,2,0,9,,,,,,,11,,,72,75
17088,note_on,,2,0,8,,,,,,,10,,,76,75
17088,note_on,,2,0,5,,,,,,,4,,,57,75
17088,note_on,,2,0,3,,,,,,,2,,,72,92
17182,note_on,,94,0,8,,,,,,,10,,,76,0
17182,note_on,,94,0,7,,,,,,,6,,,76,0
17182,note_on,,94,0,4,,,,,,,3,,,69,0
17182,note_on,,94,0,2,,,,,,,1,,,76,0
17182,note_on,,94,0,5,,,,,,,4,,,57,0
17182,note_on,,94,0,6,,,,,,,5,,,45,0
17182,note_on,,94,0,3,,,,,,,2,,,72,0
17182,note_on,,94,0,10,,,,,,,12,,,57,0
17182,note_on,,94,0,9,,,,,,,11,,,72,0
17184,note_on,,2,0,6,,,,,,,5,,,45,60
17184,note_on,,2,0,2,,,,,,,1,,,72,92
17184,note_on,,2,0,10,,,,,,,12,,,57,75
17184,note_on,,2,0,5,,,,,,,4,,,57,75
17184,note_on,,2,0,4,,,,,,,3,,,69,75
17184,note_on,,2,0,9,,,,,,,11,,,64,75
17184,note_on,,2,0,3,,,,,,,2,,,64,92
17184,note_on,,2,0,7,,,,,,,6,,,72,108
17184,note_on,,2,0,8,,,,,,,10,,,72,75
17278,note_on,,94,0,8,,,,,,,10,,,72,0
17278,note_on,,94,0,7,,,,,,,6,,,72,0
17278,note_on,,94,0,6,,,,,,,5,,,45,0
17278,note_on,,94,0,2,,,,,,,1,,,72,0
17278,note_on,,94,0,5,,,,,,,4,,,57,0
17278,note_on,,94,0,4,,,,,,,3,,,69,0
17278,note_on,,94,0,9,,,,,,,11,,,64,0
17278,note_on,,94,0,10,,,,,,,12,,,57,0
17278,note_on,,94,0,3,,,,,,,2,,,64,0
17280,note_on,,2,0,3,,,,,,,2,,,69,92
17280,note_on,,2,0,5,,,,,,,4,,,53,75
17280,note_on,,2,0,9,,,,,,,11,,,69,75
17280,note_on,,2,0,7,,,,,,,6,,,69,108
17280,note_on,,2,0,6,,,,,,,5,,,41,60
17280,note_on,,2,0,8,,,,,,,10,,,69,75
17280,note_on,,2,0,10,,,,,,,12,,,53,75
17280,note_on,,2,0,2,,,,,,,1,,,69,92
17280,note_on,,2,0,4,,,,,,,3,,,62,75
17374,note_on,,94,0,9,,,,,,,11,,,69,0
17374,note_on,,94,0,8,,,,,,,10,,,69,0
17374,note_on,,94,0,5,,,,,,,4,,,53,0
17374,note_on,,94,0,6,,,,,,,5,,,41,0
17374,note_on,,94,0,7,,,,,,,6,,,69,0
17374,note_on,,94,0,4,,,,,,,3,,,62,0
17374,note_on,,94,0,2,,,,,,,1,,,69,0
17374,note_on,,94,0,3,,,,,,,2,,,69,0
17374,note_on,,94,0,10,,,,,,,12,,,53,0
17376,note_on,,2,0,6,,,,,,,5,,,40,60
17376,note_on,,2,0,8,,,,,,,10,,,76,75
17376,note_on,,2,0,2,,,,,,,1,,,76,92
17376,note_on,,2,0,7,,,,,,,6,,,76,108
17376,note_on,,2,0,3,,,,,,,2,,,68,92
17376,note_on,,2,0,10,,,,,,,12,,,52,75
17376,note_on,,2,0,5,,,,,,,4,,,52,75
17376,note_on,,2,0,9,,,,,,,11,,,68,75
17376,note_on,,2,0,4,,,,,,,3,,,71,75
17470,note_on,,94,0,2,,,,,,,1,,,76,0
17470,note_on,,94,0,3,,,,,,,2,,,68,0
17470,note_on,,94,0,4,,,,,,,3,,,71,0
17470,note_on,,94,0,8,,,,,,,10,,,76,0
17470,note_on,,94,0,9,,,,,,,11,,,68,0
17472,note_on,,2,0,4,,,,,,,3,,,64,75
17472,note_on,,2,0,8,,,,,,,10,,,71,75
17472,note_on,,2,0,2,,,,,,,1,,,71,92
17472,note_on,,2,0,9,,,,,,,11,,,68,75
17472,note_on,,2,0,3,,,,,,,2,,,68,92
17536,note_on,,160,0,6,,,,,,,5,,,40,0
17536,note_on,,160,0,5,,,,,,,4,,,52,0
17536,note_on,,160,0,10,,,,,,,12,,,52,0
17536,note_on,,160,0,7,,,,,,,6,,,76,0
17542,note_on,,70,0,9,,,,,,,11,,,68,0
17542,note_on,,70,0,3,,,,,,,2,,,68,0
17542,note_on,,70,0,8,,,,,,,10,,,71,0
17542,note_on,,70,0,4,,,,,,,3,,,64,0
17542,note_on,,70,0,2,,,,,,,1,,,71,0
17544,note_on,,2,0,2,,,,,,,1,,,71,92
17544,note_on,,2,0,4,,,,,,,3,,,64,75
17544,note_on,,2,0,3,,,,,,,2,,,68,92
17544,note_on,,2,0,9,,,,,,,11,,,68,75
17544,note_on,,2,0,8,,,,,,,10,,,71,75
17566,note_on,,22,0,4,,,,,,,3,,,64,0
17566,note_on,,22,0,2,,,,,,,1,,,71,0
17566,note_on,,22,0,8,,,,,,,10,,,71,0
17566,note_on,,22,0,9,,,,,,,11,,,68,0
17566,note_on,,22,0,3,,,,,,,2,,,68,0
17568,note_on,,2,0,8,,,,,,,10,,,71,75
17568,note_on,,2,0,2,,,,,,,1,,,71,92
17568,note_on,,2,0,3,,,,,,,2,,,68,92
17568,note_on,,2,0,4,,,,,,,3,,,64,75
17568,note_on,,2,0,9,,,,,,,11,,,68,75
17664,note_on,,128,0,6,,,,,,,5,,,44,60
17664,note_on,,128,0,10,,,,,,,12,,,56,75
17664,note_on,,1472,0,1,,,,,,,0,,,64,108
17664,note_on,,128,0,5,,,,,,,4,,,56,75
17728,note_on,,160,0,9,,,,,,,11,,,68,0
17728,note_on,,160,0,3,,,,,,,2,,,68,0
17728,note_on,,160,0,2,,,,,,,1,,,71,0
17728,note_on,,160,0,4,,,,,,,3,,,64,0
17728,note_on,,160,0,8,,,,,,,10,,,71,0
17758,note_on,,94,0,5,,,,,,,4,,,56,0
17758,note_on,,94,0,10,,,,,,,12,,,56,0
17758,note_on,,94,0,1,,,,,,,0,,,64,0
17758,note_on,,94,0,6,,,,,,,5,,,44,0
17760,note_on,,2,0,1,,,,,,,0,,,61,108
17760,note_on,,2,0,5,,,,,,,4,,,57,75
17760,note_on,,2,0,6,,,,,,,5,,,45,60
17760,note_on,,2,0,10,,,,,,,12,,,57,75
17808,note_on,,48,0,1,,,,,,,0,,,61,0
17808,note_on,,0,0,1,,,,,,,0,,,59,108
17854,note_on,,46,0,1,,,,,,,0,,,59,0
17856,note_on,,2,0,1,,,,,,,0,,,57,108
17904,note_on,,48,0,1,,,,,,,0,,,57,0
17904,note_on,,0,0,1,,,,,,,0,,,59,108
17920,note_on,,160,0,5,,,,,,,4,,,57,0
17920,note_on,,160,0,6,,,,,,,5,,,45,0
17920,note_on,,160,0,10,,,,,,,12,,,57,0
17950,note_on,,46,0,1,,,,,,,0,,,59,0
17952,note_on,,2,0,1,,,,,,,0,,,61,108
18046,note_on,,94,0,1,,,,,,,0,,,61,0
18048,note_on,,2,0,1,,,,,,,0,,,64,108
18048,note_on,,128,0,10,,,,,,,12,,,56,75
18048,note_on,,128,0,6,,,,,,,5,,,44,60
18048,note_on,,128,0,5,,,,,,,4,,,56,75
18142,note_on,,94,0,10,,,,,,,12,,,56,0
18142,note_on,,94,0,6,,,,,,,5,,,44,0
18142,note_on,,94,0,5,,,,,,,4,,,56,0
18142,note_on,,94,0,1,,,,,,,0,,,64,0
18144,note_on,,2,0,5,,,,,,,4,,,57,75
18144,note_on,,2,0,10,,,,,,,12,,,57,75
18144,note_on,,2,0,1,,,,,,,0,,,61,108
18144,note_on,,2,0,6,,,,,,,5,,,45,60
18286,note_on,,142,0,1,,,,,,,0,,,61,0
18288,note_on,,2,0,1,,,,,,,0,,,59,108
18304,note_on,,160,0,5,,,,,,,4,,,57,0
18304,note_on,,160,0,10,,,,,,,12,,,57,0
18304,note_on,,160,0,6,,,,,,,5,,,45,0
18334,note_on,,46,0,1,,,,,,,0,,,59,0
18336,note_on,,2,0,1,,,,,,,0,,,57,108
18430,note_on,,94,0,1,,,,,,,0,,,57,0
18432,note_on,,896,0,7,,,,,,,6,,,76,108
18432,note_on,,128,0,10,,,,,,,12,,,57,75
18432,note_on,,704,0,9,,,,,,,11,,,76,75
18432,note_on,,2,0,1,,,,,,,0,,,64,108
18432,note_on,,128,0,6,,,,,,,5,,,45,60
18432,note_on,,704,0,2,,,,,,,1,,,76,92
18432,note_on,,704,0,3,,,,,,,2,,,76,92
18432,note_on,,128,0,5,,,,,,,4,,,57,75
18432,note_on,,704,0,8,,,,,,,10,,,76,75
18432,note_on,,704,0,4,,,,,,,3,,,61,75
18526,note_on,,94,0,7,,,,,,,6,,,76,0
18526,note_on,,94,0,1,,,,,,,0,,,64,0
18526,note_on,,94,0,6,,,,,,,5,,,45,0
18526,note_on,,94,0,3,,,,,,,2,,,76,0
18526,note_on,,94,0,4,,,,,,,3,,,61,0
18526,note_on,,94,0,9,,,,,,,11,,,76,0
18526,note_on,,94,0,10,,,,,,,12,,,57,0
18526,note_on,,94,0,5,,,,,,,4,,,57,0
18526,note_on,,94,0,8,,,,,,,10,,,76,0
18526,note_on,,94,0,2,,,,,,,1,,,76,0
18528,note_on,,2,0,4,,,,,,,3,,,61,75
18528,note_on,,2,0,9,,,,,,,11,,,81,75
18528,note_on,,2,0,3,,,,,,,2,,,76,92
18528,note_on,,2,0,10,,,,,,,12,,,57,75
18528,note_on,,2,0,6,,,,,,,5,,,45,60
18528,note_on,,2,0,7,,,,,,,6,,,81,108
18528,note_on,,2,0,8,,,,,,,10,,,81,75
18528,note_on,,2,0,2,,,,,,,1,,,76,92
18528,note_on,,2,0,5,,,,,,,4,,,57,75
18528,note_on,,2,0,1,,,,,,,0,,,61,108
18574,note_on,,46,0,3,,,,,,,2,,,76,0
18574,note_on,,46,0,4,,,,,,,3,,,61,0
18574,note_on,,46,0,2,,,,,,,1,,,76,0
18576,note_on,,2,0,4,,,,,,,3,,,59,75
18576,note_on,,0,0,1,,,,,,,0,,,59,108
18576,note_on,,48,0,1,,,,,,,0,,,61,0
18576,note_on,,2,0,3,,,,,,,2,,,74,92
18576,note_on,,2,0,2,,,,,,,1,,,74,92
18622,note_on,,46,0,3,,,,,,,2,,,74,0
18622,note_on,,46,0,2,,,,,,,1,,,74,0
18622,note_on,,46,0,4,,,,,,,3,,,59,0
18622,note_on,,94,0,6,,,,,,,5,,,45,0
18622,note_on,,94,0,5,,,,,,,4,,,57,0
18622,note_on,,94,0,7,,,,,,,6,,,81,0
18622,note_on,,94,0,8,,,,,,,10,,,81,0
18622,note_on,,94,0,10,,,,,,,12,,,57,0
18622,note_on,,94,0,9,,,,,,,11,,,81,0
18624,note_on,,2,0,10,,,,,,,12,,,45,75
18624,note_on,,0,0,1,,,,,,,0,,,57,108
18624,note_on,,2,0,9,,,,,,,11,,,76,75
18624,note_on,,2,0,3,,,,,,,2,,,73,92
18624,note_on,,2,0,6,,,,,,,5,,,33,60
18624,note_on,,48,0,1,,,,,,,0,,,59,0
18624,note_on,,2,0,2,,,,,,,1,,,73,92
18624,note_on,,2,0,8,,,,,,,10,,,76,75
18624,note_on,,2,0,4,,,,,,,3,,,57,75
18624,note_on,,2,0,7,,,,,,,6,,,76,108
18624,note_on,,2,0,5,,,,,,,4,,,45,75
18670,note_on,,46,0,3,,,,,,,2,,,73,0
18670,note_on,,46,0,2,,,,,,,1,,,73,0
18670,note_on,,46,0,4,,,,,,,3,,,57,0
18672,note_on,,2,0,4,,,,,,,3,,,59,75
18672,note_on,,2,0,3,,,,,,,2,,,71,92
18672,note_on,,2,0,2,,,,,,,1,,,71,92
18672,note_on,,48,0,1,,,,,,,0,,,57,0
18672,note_on,,0,0,1,,,,,,,0,,,59,108
18718,note_on,,94,0,6,,,,,,,5,,,33,0
18718,note_on,,94,0,7,,,,,,,6,,,76,0
18718,note_on,,46,0,4,,,,,,,3,,,59,0
18718,note_on,,46,0,3,,,,,,,2,,,71,0
18718,note_on,,46,0,2,,,,,,,1,,,71,0
18718,note_on,,94,0,10,,,,,,,12,,,45,0
18718,note_on,,94,0,8,,,,,,,10,,,76,0
18718,note_on,,94,0,9,,,,,,,11,,,76,0
18718,note_on,,94,0,5,,,,,,,4,,,45,0
18720,note_on,,2,0,6,,,,,,,5,,,45,60
18720,note_on,,2,0,5,,,,,,,4,,,57,75
18720,note_on,,0,0,1,,,,,,,0,,,61,108
18720,note_on,,2,0,9,,,,,,,11,,,81,75
18720,note_on,,2,0,4,,,,,,,3,,,61,75
18720,note_on,,2,0,7,,,,,,,6,,,81,108
18720,note_on,,2,0,2,,,,,,,1,,,69,92
18720,note_on,,2,0,3,,,,,,,2,,,69,92
18720,note_on,,2,0,8,,,,,,,10,,,81,75
18720,note_on,,2,0,10,,,,,,,12,,,57,75
18720,note_on,,48,0,1,,,,,,,0,,,59,0
18766,note_on,,46,0,2,,,,,,,1,,,69,0
18766,note_on,,46,0,3,,,,,,,2,,,69,0
18766,note_on,,46,0,4,,,,,,,3,,,61,0
18768,note_on,,0,0,1,,,,,,,0,,,62,108
18768,note_on,,2,0,4,,,,,,,3,,,62,75
18768,note_on,,2,0,2,,,,,,,1,,,71,92
18768,note_on,,48,0,1,,,,,,,0,,,61,0
18768,note_on,,2,0,3,,,,,,,2,,,71,92
18814,note_on,,46,0,3,,,,,,,2,,,71,0
18814,note_on,,46,0,2,,,,,,,1,,,71,0
18814,note_on,,94,0,7,,,,,,,6,,,81,0
18814,note_on,,94,0,10,,,,,,,12,,,57,0
18814,note_on,,94,0,5,,,,,,,4,,,57,0
18814,note_on,,94,0,8,,,,,,,10,,,81,0
18814,note_on,,94,0,6,,,,,,,5,,,45,0
18814,note_on,,94,0,9,,,,,,,11,,,81,0
18814,note_on,,46,0,4,,,,,,,3,,,62,0
18816,note_on,,2,0,5,,,,,,,4,,,45,75
18816,note_on,,2,0,4,,,,,,,3,,,64,75
18816,note_on,,2,0,7,,,,,,,6,,,76,108
18816,note_on,,48,0,1,,,,,,,0,,,62,0
18816,note_on,,0,0,1,,,,,,,0,,,61,108
18816,note_on,,2,0,3,,,,,,,2,,,73,92
18816,note_on,,2,0,6,,,,,,,5,,,33,60
18816,note_on,,2,0,10,,,,,,,12,,,45,75
18816,note_on,,2,0,9,,,,,,,11,,,76,75
18816,note_on,,2,0,8,,,,,,,10,,,76,75
18816,note_on,,2,0,2,,,,,,,1,,,73,92
18862,note_on,,46,0,2,,,,,,,1,,,73,0
18862,note_on,,46,0,4,,,,,,,3,,,64,0
18862,note_on,,46,0,3,,,,,,,2,,,73,0
18864,note_on,,48,0,1,,,,,,,0,,,61,0
18864,note_on,,0,0,1,,,,,,,0,,,59,108
18864,note_on,,2,0,2,,,,,,,1,,,74,92
18864,note_on,,2,0,4,,,,,,,3,,,62,75
18864,note_on,,2,0,3,,,,,,,2,,,74,92
18910,note_on,,46,0,3,,,,,,,2,,,74,0
18910,note_on,,46,0,2,,,,,,,1,,,74,0
18910,note_on,,46,0,4,,,,,,,3,,,62,0
18910,note_on,,94,0,8,,,,,,,10,,,76,0
18910,note_on,,94,0,5,,,,,,,4,,,45,0
18910,note_on,,94,0,6,,,,,,,5,,,33,0
18910,note_on,,94,0,10,,,,,,,12,,,45,0
18910,note_on,,94,0,9,,,,,,,11,,,76,0
18910,note_on,,94,0,7,,,,,,,6,,,76,0
18912,note_on,,0,0,1,,,,,,,0,,,57,108
18912,note_on,,2,0,4,,,,,,,3,,,61,75
18912,note_on,,2,0,5,,,,,,,4,,,57,75
18912,note_on,,2,0,2,,,,,,,1,,,76,92
18912,note_on,,2,0,9,,,,,,,11,,,81,75
18912,note_on,,2,0,10,,,,,,,12,,,57,75
18912,note_on,,2,0,6,,,,,,,5,,,45,60
18912,note_on,,2,0,3,,,,,,,2,,,76,92
18912,note_on,,2,0,8,,,,,,,10,,,81,75
18912,note_on,,2,0,7,,,,,,,6,,,81,108
18912,note_on,,48,0,1,,,,,,,0,,,59,0
18958,note_on,,46,0,4,,,,,,,3,,,61,0
18958,note_on,,46,0,2,,,,,,,1,,,76,0
18958,note_on,,46,0,3,,,,,,,2,,,76,0
18960,note_on,,0,0,1,,,,,,,0,,,55,108
18960,note_on,,2,0,4,,,,,,,3,,,59,75
18960,note_on,,2,0,3,,,,,,,2,,,74,92
18960,note_on,,2,0,2,,,,,,,1,,,74,92
18960,note_on,,48,0,1,,,,,,,0,,,57,0
19006,note_on,,46,0,2,,,,,,,1,,,74,0
19006,note_on,,94,0,10,,,,,,,12,,,57,0
19006,note_on,,94,0,7,,,,,,,6,,,81,0
19006,note_on,,46,0,4,,,,,,,3,,,59,0
19006,note_on,,46,0,3,,,,,,,2,,,74,0
19006,note_on,,94,0,6,,,,,,,5,,,45,0
19006,note_on,,94,0,5,,,,,,,4,,,57,0
19006,note_on,,94,0,8,,,,,,,10,,,81,0
19006,note_on,,94,0,9,,,,,,,11,,,81,0
19008,note_on,,2,0,7,,,,,,,6,,,76,108
19008,note_on,,2,0,9,,,,,,,11,,,76,75
19008,note_on,,2,0,10,,,,,,,12,,,45,75
19008,note_on,,2,0,4,,,,,,,3,,,57,75
19008,note_on,,2,0,5,,,,,,,4,,,45,75
19008,note_on,,2,0,8,,,,,,,10,,,76,75
19008,note_on,,48,0,1,,,,,,,0,,,55,0
19008,note_on,,2,0,3,,,,,,,2,,,73,92
19008,note_on,,0,0,1,,,,,,,0,,,57,108
19008,note_on,,2,0,2,,,,,,,1,,,73,92
19008,note_on,,2,0,6,,,,,,,5,,,33,60
19054,note_on,,46,0,3,,,,,,,2,,,73,0
19054,note_on,,46,0,2,,,,,,,1,,,73,0
19054,note_on,,46,0,4,,,,,,,3,,,57,0
19056,note_on,,2,0,2,,,,,,,1,,,71,92
19056,note_on,,0,0,1,,,,,,,0,,,59,108
19056,note_on,,48,0,1,,,,,,,0,,,57,0
19056,note_on,,2,0,3,,,,,,,2,,,71,92
19056,note_on,,2,0,4,,,,,,,3,,,59,75
19102,note_on,,94,0,6,,,,,,,5,,,33,0
19102,note_on,,94,0,5,,,,,,,4,,,45,0
19102,note_on,,46,0,3,,,,,,,2,,,71,0
19102,note_on,,94,0,7,,,,,,,6,,,76,0
19102,note_on,,46,0,2,,,,,,,1,,,71,0
19102,note_on,,94,0,8,,,,,,,10,,,76,0
19102,note_on,,94,0,9,,,,,,,11,,,76,0
19102,note_on,,94,0,10,,,,,,,12,,,45,0
19102,note_on,,46,0,4,,,,,,,3,,,59,0
19104,note_on,,0,0,1,,,,,,,0,,,61,108
19104,note_on,,2,0,7,,,,,,,6,,,69,108
19104,note_on,,2,0,5,,,,,,,4,,,57,75
19104,note_on,,2,0,3,,,,,,,2,,,69,92
19104,note_on,,2,0,6,,,,,,,5,,,45,60
19104,note_on,,2,0,9,,,,,,,11,,,69,75
19104,note_on,,2,0,4,,,,,,,3,,,61,75
19104,note_on,,2,0,2,,,,,,,1,,,69,92
19104,note_on,,48,0,1,,,,,,,0,,,59,0
19104,note_on,,2,0,10,,,,,,,12,,,57,75
19104,note_on,,2,0,8,,,,,,,10,,,69,75
19150,note_on,,46,0,3,,,,,,,2,,,69,0
19150,note_on,,46,0,4,,,,,,,3,,,61,0
19150,note_on,,46,0,2,,,,,,,1,,,69,0
19152,note_on,,2,0,3,,,,,,,2,,,71,92
19152,note_on,,0,0,1,,,,,,,0,,,62,108
19152,note_on,,2,0,4,,,,,,,3,,,62,75
19152,note_on,,48,0,1,,,,,,,0,,,61,0
19152,note_on,,2,0,2,,,,,,,1,,,71,92
19198,note_on,,46,0,2,,,,,,,1,,,71,0
19198,note_on,,94,0,7,,,,,,,6,,,69,0
19198,note_on,,46,0,4,,,,,,,3,,,62,0
19198,note_on,,94,0,8,,,,,,,10,,,69,0
19198,note_on,,94,0,6,,,,,,,5,,,45,0
19198,note_on,,46,0,3,,,,,,,2,,,71,0
19198,note_on,,94,0,10,,,,,,,12,,,57,0
19198,note_on,,94,0,9,,,,,,,11,,,69,0
19198,note_on,,94,0,5,,,,,,,4,,,57,0
19200,note_on,,2,0,8,,,,,,,10,,,76,75
19200,note_on,,2,0,10,,,,,,,12,,,45,75
19200,note_on,,2,0,3,,,,,,,2,,,73,92
19200,note_on,,2,0,4,,,,,,,3,,,64,75
19200,note_on,,2,0,7,,,,,,,6,,,76,108
19200,note_on,,2,0,2,,,,,,,1,,,73,92
19200,note_on,,2,0,6,,,,,,,5,,,33,60
19200,note_on,,2,0,9,,,,,,,11,,,76,75
19200,note_on,,0,0,1,,,,,,,0,,,61,108
19200,note_on,,48,0,1,,,,,,,0,,,62,0
19200,note_on,,2,0,5,,,,,,,4,,,45,75
19246,note_on,,46,0,3,,,,,,,2,,,73,0
19246,note_on,,46,0,2,,,,,,,1,,,73,0
19246,note_on,,46,0,4,,,,,,,3,,,64,0
19248,note_on,,2,0,2,,,,,,,1,,,74,92
19248,note_on,,2,0,3,,,,,,,2,,,74,92
19248,note_on,,2,0,4,,,,,,,3,,,62,75
19248,note_on,,0,0,1,,,,,,,0,,,62,108
19248,note_on,,48,0,1,,,,,,,0,,,61,0
19294,note_on,,94,0,7,,,,,,,6,,,76,0
19294,note_on,,94,0,8,,,,,,,10,,,76,0
19294,note_on,,46,0,4,,,,,,,3,,,62,0
19294,note_on,,94,0,9,,,,,,,11,,,76,0
19294,note_on,,94,0,5,,,,,,,4,,,45,0
19294,note_on,,46,0,3,,,,,,,2,,,74,0
19294,note_on,,94,0,10,,,,,,,12,,,45,0
19294,note_on,,94,0,6,,,,,,,5,,,33,0
19294,note_on,,46,0,2,,,,,,,1,,,74,0
19296,note_on,,2,0,7,,,,,,,6,,,81,108
19296,note_on,,2,0,3,,,,,,,2,,,76,92
19296,note_on,,2,0,8,,,,,,,10,,,81,75
19296,note_on,,0,0,1,,,,,,,0,,,61,108
19296,note_on,,2,0,6,,,,,,,5,,,45,60
19296,note_on,,48,0,1,,,,,,,0,,,62,0
19296,note_on,,2,0,2,,,,,,,1,,,76,92
19296,note_on,,2,0,9,,,,,,,11,,,81,75
19296,note_on,,2,0,10,,,,,,,12,,,57,75
19296,note_on,,2,0,4,,,,,,,3,,,61,75
19296,note_on,,2,0,5,,,,,,,4,,,57,75
19342,note_on,,46,0,2,,,,,,,1,,,76,0
19342,note_on,,46,0,3,,,,,,,2,,,76,0
19342,note_on,,46,0,4,,,,,,,3,,,61,0
19344,note_on,,48,0,1,,,,,,,0,,,61,0
19344,note_on,,0,0,1,,,,,,,0,,,59,108
19344,note_on,,2,0,3,,,,,,,2,,,74,92
19344,note_on,,2,0,4,,,,,,,3,,,59,75
19344,note_on,,2,0,2,,,,,,,1,,,74,92
19390,note_on,,46,0,4,,,,,,,3,,,59,0
19390,note_on,,94,0,9,,,,,,,11,,,81,0
19390,note_on,,46,0,3,,,,,,,2,,,74,0
19390,note_on,,94,0,10,,,,,,,12,,,57,0
19390,note_on,,46,0,1,,,,,,,0,,,59,0
19390,note_on,,94,0,7,,,,,,,6,,,81,0
19390,note_on,,94,0,5,,,,,,,4,,,57,0
19390,note_on,,94,0,8,,,,,,,10,,,81,0
19390,note_on,,46,0,2,,,,,,,1,,,74,0
19390,note_on,,94,0,6,,,,,,,5,,,45,0
19392,note_on,,2,0,10,,,,,,,12,,,45,75
19392,note_on,,2,0,3,,,,,,,2,,,73,92
19392,note_on,,2,0,7,,,,,,,6,,,76,108
19392,note_on,,2,0,8,,,,,,,10,,,76,75
19392,note_on,,2,0,5,,,,,,,4,,,45,75
19392,note_on,,2,0,9,,,,,,,11,,,76,75
19392,note_on,,2,0,4,,,,,,,3,,,57,75
19392,note_on,,2,0,2,,,,,,,1,,,73,92
19392,note_on,,2,0,6,,,,,,,5,,,33,60
19392,note_on,,2,0,1,,,,,,,0,,,57,108
19438,note_on,,46,0,2,,,,,,,1,,,73,0
19438,note_on,,46,0,3,,,,,,,2,,,73,0
19438,note_on,,46,0,4,,,,,,,3,,,57,0
19440,note_on,,2,0,2,,,,,,,1,,,71,92
19440,note_on,,2,0,3,,,,,,,2,,,71,92
19440,note_on,,2,0,4,,,,,,,3,,,59,75
19440,note_on,,0,0,1,,,,,,,0,,,59,108
19440,note_on,,48,0,1,,,,,,,0,,,57,0
19486,note_on,,94,0,6,,,,,,,5,,,33,0
19486,note_on,,94,0,10,,,,,,,12,,,45,0
19486,note_on,,94,0,8,,,,,,,10,,,76,0
19486,note_on,,46,0,2,,,,,,,1,,,71,0
19486,note_on,,94,0,7,,,,,,,6,,,76,0
19486,note_on,,46,0,1,,,,,,,0,,,59,0
19486,note_on,,94,0,5,,,,,,,4,,,45,0
19486,note_on,,46,0,4,,,,,,,3,,,59,0
19486,note_on,,46,0,3,,,,,,,2,,,71,0
19486,note_on,,94,0,9,,,,,,,11,,,76,0
19488,note_on,,2,0,3,,,,,,,2,,,69,92
19488,note_on,,2,0,2,,,,,,,1,,,69,92
19488,note_on,,2,0,4,,,,,,,3,,,61,75
19488,note_on,,2,0,8,,,,,,,10,,,76,75
19488,note_on,,2,0,7,,,,,,,6,,,76,108
19488,note_on,,2,0,5,,,,,,,4,,,57,75
19488,note_on,,2,0,6,,,,,,,5,,,45,60
19488,note_on,,2,0,1,,,,,,,0,,,61,108
19488,note_on,,2,0,10,,,,,,,12,,,57,75
19488,note_on,,2,0,9,,,,,,,11,,,76,75
19534,note_on,,46,0,2,,,,,,,1,,,69,0
19534,note_on,,46,0,3,,,,,,,2,,,69,0
19536,note_on,,2,0,2,,,,,,,1,,,67,92
19536,note_on,,2,0,3,,,,,,,2,,,67,92
19582,note_on,,46,0,2,,,,,,,1,,,67,0
19582,note_on,,46,0,3,,,,,,,2,,,67,0
19582,note_on,,94,0,5,,,,,,,4,,,57,0
19582,note_on,,94,0,6,,,,,,,5,,,45,0
19582,note_on,,94,0,10,,,,,,,12,,,57,0
19584,note_on,,2,0,5,,,,,,,4,,,45,75
19584,note_on,,2,0,2,,,,,,,1,,,66,92
19584,note_on,,2,0,3,,,,,,,2,,,66,92
19584,note_on,,2,0,6,,,,,,,5,,,33,60
19584,note_on,,2,0,10,,,,,,,12,,,45,75
19630,note_on,,142,0,4,,,,,,,3,,,61,0
19630,note_on,,142,0,7,,,,,,,6,,,76,0
19630,note_on,,142,0,8,,,,,,,10,,,76,0
19630,note_on,,46,0,2,,,,,,,1,,,66,0
19630,note_on,,46,0,3,,,,,,,2,,,66,0
19630,note_on,,142,0,1,,,,,,,0,,,61,0
19630,note_on,,142,0,9,,,,,,,11,,,76,0
19632,note_on,,2,0,3,,,,,,,2,,,64,92
19632,note_on,,2,0,7,,,,,,,6,,,76,108
19632,note_on,,2,0,9,,,,,,,11,,,76,75
19632,note_on,,2,0,4,,,,,,,3,,,61,75
19632,note_on,,2,0,8,,,,,,,10,,,76,75
19632,note_on,,2,0,2,,,,,,,1,,,64,92
19632,note_on,,2,0,1,,,,,,,0,,,61,108
19678,note_on,,94,0,5,,,,,,,4,,,45,0
19678,note_on,,46,0,7,,,,,,,6,,,76,0
19678,note_on,,46,0,9,,,,,,,11,,,76,0
19678,note_on,,46,0,8,,,,,,,10,,,76,0
19678,note_on,,46,0,3,,,,,,,2,,,64,0
19678,note_on,,94,0,6,,,,,,,5,,,33,0
19678,note_on,,46,0,2,,,,,,,1,,,64,0
19678,note_on,,46,0,4,,,,,,,3,,,61,0
19678,note_on,,94,0,10,,,,,,,12,,,45,0
19678,note_on,,46,0,1,,,,,,,0,,,61,0
19680,note_on,,2,0,1,,,,,,,0,,,62,108
19680,note_on,,2,0,3,,,,,,,2,,,62,92
19680,note_on,,2,0,6,,,,,,,5,,,38,60
19680,note_on,,2,0,7,,,,,,,6,,,78,108
19680,note_on,,2,0,5,,,,,,,4,,,50,75
19680,note_on,,2,0,8,,,,,,,10,,,78,75
19680,note_on,,2,0,2,,,,,,,1,,,62,92
19680,note_on,,2,0,4,,,,,,,3,,,62,75
19680,note_on,,2,0,10,,,,,,,12,,,50,75
19680,note_on,,2,0,9,,,,,,,11,,,78,75
19726,note_on,,46,0,7,,,,,,,6,,,78,0
19726,note_on,,46,0,8,,,,,,,10,,,78,0
19726,note_on,,46,0,9,,,,,,,11,,,78,0
19728,note_on,,2,0,8,,,,,,,10,,,76,75
19728,note_on,,2,0,7,,,,,,,6,,,76,108
19728,note_on,,2,0,9,,,,,,,11,,,76,75
19774,note_on,,46,0,9,,,,,,,11,,,76,0
19774,note_on,,94,0,10,,,,,,,12,,,50,0
19774,note_on,,46,0,7,,,,,,,6,,,76,0
19774,note_on,,94,0,2,,,,,,,1,,,62,0
19774,note_on,,94,0,5,,,,,,,4,,,50,0
19774,note_on,,46,0,8,,,,,,,10,,,76,0
19774,note_on,,94,0,4,,,,,,,3,,,62,0
19774,note_on,,94,0,6,,,,,,,5,,,38,0
19774,note_on,,94,0,3,,,,,,,2,,,62,0
19776,note_on,,2,0,2,,,,,,,1,,,78,92
19776,note_on,,2,0,3,,,,,,,2,,,78,92
19776,note_on,,2,0,8,,,,,,,10,,,74,75
19776,note_on,,2,0,4,,,,,,,3,,,69,75
19776,note_on,,2,0,10,,,,,,,12,,,50,75
19776,note_on,,2,0,6,,,,,,,5,,,38,60
19776,note_on,,2,0,7,,,,,,,6,,,74,108
19776,note_on,,2,0,5,,,,,,,4,,,50,75
19776,note_on,,2,0,9,,,,,,,11,,,74,75
19822,note_on,,46,0,3,,,,,,,2,,,78,0
19822,note_on,,46,0,8,,,,,,,10,,,74,0
19822,note_on,,46,0,2,,,,,,,1,,,78,0
19822,note_on,,46,0,7,,,,,,,6,,,74,0
19822,note_on,,46,0,9,,,,,,,11,,,74,0
19824,note_on,,2,0,7,,,,,,,6,,,76,108
19824,note_on,,2,0,3,,,,,,,2,,,79,92
19824,note_on,,2,0,2,,,,,,,1,,,79,92
19824,note_on,,2,0,9,,,,,,,11,,,76,75
19824,note_on,,2,0,8,,,,,,,10,,,76,75
19840,note_on,,160,0,1,,,,,,,0,,,62,0
19870,note_on,,94,0,5,,,,,,,4,,,50,0
19870,note_on,,46,0,9,,,,,,,11,,,76,0
19870,note_on,,94,0,6,,,,,,,5,,,38,0
19870,note_on,,94,0,4,,,,,,,3,,,69,0
19870,note_on,,46,0,2,,,,,,,1,,,79,0
19870,note_on,,46,0,8,,,,,,,10,,,76,0
19870,note_on,,94,0,10,,,,,,,12,,,50,0
19870,note_on,,46,0,7,,,,,,,6,,,76,0
19870,note_on,,46,0,3,,,,,,,2,,,79,0
19872,note_on,,2,0,9,,,,,,,11,,,78,75
19872,note_on,,2,0,6,,,,,,,5,,,38,60
19872,note_on,,2,0,8,,,,,,,10,,,78,75
19872,note_on,,2,0,7,,,,,,,6,,,78,108
19872,note_on,,2,0,3,,,,,,,2,,,81,92
19872,note_on,,2,0,2,,,,,,,1,,,81,92
19872,note_on,,2,0,5,,,,,,,4,,,50,75
19872,note_on,,2,0,10,,,,,,,12,,,50,75
19872,note_on,,2,0,4,,,,,,,3,,,74,75
19918,note_on,,46,0,7,,,,,,,6,,,78,0
19918,note_on,,46,0,2,,,,,,,1,,,81,0
19918,note_on,,46,0,8,,,,,,,10,,,78,0
19918,note_on,,46,0,9,,,,,,,11,,,78,0
19918,note_on,,46,0,3,,,,,,,2,,,81,0
19920,note_on,,2,0,8,,,,,,,10,,,79,75
19920,note_on,,2,0,3,,,,,,,2,,,79,92
19920,note_on,,2,0,7,,,,,,,6,,,79,108
19920,note_on,,2,0,2,,,,,,,1,,,79,92
19920,note_on,,2,0,9,,,,,,,11,,,79,75
19966,note_on,,94,0,6,,,,,,,5,,,38,0
19966,note_on,,94,0,4,,,,,,,3,,,74,0
19966,note_on,,94,0,5,,,,,,,4,,,50,0
19966,note_on,,46,0,9,,,,,,,11,,,79,0
19966,note_on,,46,0,2,,,,,,,1,,,79,0
19966,note_on,,46,0,7,,,,,,,6,,,79,0
19966,note_on,,46,0,3,,,,,,,2,,,79,0
19966,note_on,,94,0,10,,,,,,,12,,,50,0
19966,note_on,,46,0,8,,,,,,,10,,,79,0
19968,note_on,,2,0,8,,,,,,,10,,,81,75
19968,note_on,,2,0,7,,,,,,,6,,,81,108
19968,note_on,,2,0,10,,,,,,,12,,,50,75
19968,note_on,,2,0,3,,,,,,,2,,,78,92
19968,note_on,,2,0,9,,,,,,,11,,,81,75
19968,note_on,,2,0,6,,,,,,,5,,,38,60
19968,note_on,,2,0,4,,,,,,,3,,,69,75
19968,note_on,,2,0,2,,,,,,,1,,,78,92
19968,note_on,,2,0,5,,,,,,,4,,,50,75
19968,note_on,,128,0,1,,,,,,,0,,,57,108
20014,note_on,,46,0,8,,,,,,,10,,,81,0
20014,note_on,,46,0,9,,,,,,,11,,,81,0
20014,note_on,,46,0,3,,,,,,,2,,,78,0
20014,note_on,,46,0,2,,,,,,,1,,,78,0
20014,note_on,,46,0,7,,,,,,,6,,,81,0
20016,note_on,,2,0,9,,,,,,,11,,,79,75
20016,note_on,,2,0,2,,,,,,,1,,,76,92
20016,note_on,,2,0,3,,,,,,,2,,,76,92
20016,note_on,,2,0,7,,,,,,,6,,,79,108
20016,note_on,,2,0,8,,,,,,,10,,,79,75
20062,note_on,,46,0,7,,,,,,,6,,,79,0
20062,note_on,,46,0,8,,,,,,,10,,,79,0
20062,note_on,,94,0,1,,,,,,,0,,,57,0
20062,note_on,,46,0,3,,,,,,,2,,,76,0
20062,note_on,,46,0,9,,,,,,,11,,,79,0
20062,note_on,,94,0,10,,,,,,,12,,,50,0
20062,note_on,,94,0,5,,,,,,,4,,,50,0
20062,note_on,,94,0,4,,,,,,,3,,,69,0
20062,note_on,,46,0,2,,,,,,,1,,,76,0
20062,note_on,,94,0,6,,,,,,,5,,,38,0
20064,note_on,,2,0,9,,,,,,,11,,,78,75
20064,note_on,,2,0,5,,,,,,,4,,,50,75
20064,note_on,,2,0,1,,,,,,,0,,,62,108
20064,note_on,,2,0,8,,,,,,,10,,,78,75
20064,note_on,,2,0,3,,,,,,,2,,,74,92
20064,note_on,,2,0,6,,,,,,,5,,,38,60
20064,note_on,,2,0,7,,,,,,,6,,,78,108
20064,note_on,,2,0,2,,,,,,,1,,,74,92
20064,note_on,,2,0,4,,,,,,,3,,,62,75
20064,note_on,,2,0,10,,,,,,,12,,,50,75
20110,note_on,,46,0,3,,,,,,,2,,,74,0
20110,note_on,,46,0,8,,,,,,,10,,,78,0
20110,note_on,,46,0,7,,,,,,,6,,,78,0
20110,note_on,,46,0,2,,,,,,,1,,,74,0
20110,note_on,,46,0,9,,,,,,,11,,,78,0
20112,note_on,,2,0,8,,,,,,,10,,,76,75
20112,note_on,,2,0,3,,,,,,,2,,,76,92
20112,note_on,,2,0,7,,,,,,,6,,,76,108
20112,note_on,,2,0,2,,,,,,,1,,,76,92
20112,note_on,,2,0,9,,,,,,,11,,,76,75
20158,note_on,,94,0,6,,,,,,,5,,,38,0
20158,note_on,,94,0,4,,,,,,,3,,,62,0
20158,note_on,,94,0,10,,,,,,,12,,,50,0
20158,note_on,,46,0,9,,,,,,,11,,,76,0
20158,note_on,,46,0,7,,,,,,,6,,,76,0
20158,note_on,,46,0,8,,,,,,,10,,,76,0
20158,note_on,,94,0,5,,,,,,,4,,,50,0
20158,note_on,,94,0,1,,,,,,,0,,,62,0
20158,note_on,,46,0,2,,,,,,,1,,,76,0
20158,note_on,,46,0,3,,,,,,,2,,,76,0
20160,note_on,,2,0,3,,,,,,,2,,,78,92
20160,note_on,,2,0,4,,,,,,,3,,,69,75
20160,note_on,,2,0,10,,,,,,,12,,,50,75
20160,note_on,,2,0,2,,,,,,,1,,,78,92
20160,note_on,,2,0,1,,,,,,,0,,,57,108
20160,note_on,,2,0,6,,,,,,,5,,,38,60
20160,note_on,,2,0,8,,,,,,,10,,,74,75
20160,note_on,,2,0,7,,,,,,,6,,,74,108
20160,note_on,,2,0,9,,,,,,,11,,,74,75
20160,note_on,,2,0,5,,,,,,,4,,,50,75
20206,note_on,,46,0,9,,,,,,,11,,,74,0
20206,note_on,,46,0,3,,,,,,,2,,,78,0
20206,note_on,,46,0,7,,,,,,,6,,,74,0
20206,note_on,,46,0,8,,,,,,,10,,,74,0
20206,note_on,,46,0,2,,,,,,,1,,,78,0
20208,note_on,,2,0,8,,,,,,,10,,,76,75
20208,note_on,,2,0,3,,,,,,,2,,,79,92
20208,note_on,,2,0,2,,,,,,,1,,,79,92
20208,note_on,,2,0,7,,,,,,,6,,,76,108
20208,note_on,,2,0,9,,,,,,,11,,,76,75
20254,note_on,,94,0,4,,,,,,,3,,,69,0
20254,note_on,,94,0,6,,,,,,,5,,,38,0
20254,note_on,,46,0,7,,,,,,,6,,,76,0
20254,note_on,,94,0,5,,,,,,,4,,,50,0
20254,note_on,,46,0,3,,,,,,,2,,,79,0
20254,note_on,,46,0,8,,,,,,,10,,,76,0
20254,note_on,,46,0,9,,,,,,,11,,,76,0
20254,note_on,,46,0,2,,,,,,,1,,,79,0
20254,note_on,,94,0,1,,,,,,,0,,,57,0
20254,note_on,,94,0,10,,,,,,,12,,,50,0
20256,note_on,,2,0,2,,,,,,,1,,,81,92
20256,note_on,,2,0,4,,,,,,,3,,,74,75
20256,note_on,,2,0,8,,,,,,,10,,,78,75
20256,note_on,,2,0,1,,,,,,,0,,,62,108
20256,note_on,,2,0,10,,,,,,,12,,,50,75
20256,note_on,,2,0,3,,,,,,,2,,,81,92
20256,note_on,,2,0,7,,,,,,,6,,,78,108
20256,note_on,,2,0,6,,,,,,,5,,,38,60
20256,note_on,,2,0,5,,,,,,,4,,,50,75
20256,note_on,,2,0,9,,,,,,,11,,,78,75
20302,note_on,,46,0,8,,,,,,,10,,,78,0
20302,note_on,,46,0,7,,,,,,,6,,,78,0
20302,note_on,,46,0,3,,,,,,,2,,,81,0
20302,note_on,,46,0,9,,,,,,,11,,,78,0
20302,note_on,,46,0,2,,,,,,,1,,,81,0
20304,note_on,,2,0,7,,,,,,,6,,,79,108
20304,note_on,,2,0,8,,,,,,,10,,,79,75
20304,note_on,,2,0,2,,,,,,,1,,,79,92
20304,note_on,,2,0,3,,,,,,,2,,,79,92
20304,note_on,,2,0,9,,,,,,,11,,,79,75
20350,note_on,,94,0,6,,,,,,,5,,,38,0
20350,note_on,,94,0,1,,,,,,,0,,,62,0
20350,note_on,,94,0,4,,,,,,,3,,,74,0
20350,note_on,,46,0,8,,,,,,,10,,,79,0
20350,note_on,,46,0,9,,,,,,,11,,,79,0
20350,note_on,,46,0,2,,,,,,,1,,,79,0
20350,note_on,,46,0,7,,,,,,,6,,,79,0
20350,note_on,,94,0,5,,,,,,,4,,,50,0
20350,note_on,,94,0,10,,,,,,,12,,,50,0
20350,note_on,,46,0,3,,,,,,,2,,,79,0
20352,note_on,,2,0,4,,,,,,,3,,,69,75
20352,note_on,,2,0,3,,,,,,,2,,,78,92
20352,note_on,,2,0,2,,,,,,,1,,,78,92
20352,note_on,,2,0,9,,,,,,,11,,,81,75
20352,note_on,,2,0,5,,,,,,,4,,,50,75
20352,note_on,,2,0,8,,,,,,,10,,,81,75
20352,note_on,,2,0,6,,,,,,,5,,,38,60
20352,note_on,,2,0,10,,,,,,,12,,,50,75
20352,note_on,,2,0,1,,,,,,,0,,,57,108
20352,note_on,,2,0,7,,,,,,,6,,,81,108
20398,note_on,,46,0,2,,,,,,,1,,,78,0
20398,note_on,,46,0,3,,,,,,,2,,,78,0
20398,note_on,,46,0,9,,,,,,,11,,,81,0
20398,note_on,,46,0,8,,,,,,,10,,,81,0
20398,note_on,,46,0,7,,,,,,,6,,,81,0
20400,note_on,,2,0,7,,,,,,,6,,,79,108
20400,note_on,,2,0,8,,,,,,,10,,,79,75
20400,note_on,,2,0,9,,,,,,,11,,,79,75
20400,note_on,,2,0,3,,,,,,,2,,,76,92
20400,note_on,,2,0,2,,,,,,,1,,,76,92
20446,note_on,,46,0,9,,,,,,,11,,,79,0
20446,note_on,,94,0,10,,,,,,,12,,,50,0
20446,note_on,,94,0,1,,,,,,,0,,,57,0
20446,note_on,,94,0,5,,,,,,,4,,,50,0
20446,note_on,,46,0,7,,,,,,,6,,,79,0
20446,note_on,,46,0,3,,,,,,,2,,,76,0
20446,note_on,,46,0,8,,,,,,,10,,,79,0
20446,note_on,,94,0,4,,,,,,,3,,,69,0
20446,note_on,,94,0,6,,,,,,,5,,,38,0
20446,note_on,,46,0,2,,,,,,,1,,,76,0
20448,note_on,,2,0,4,,,,,,,3,,,62,75
20448,note_on,,2,0,5,,,,,,,4,,,50,75
20448,note_on,,2,0,7,,,,,,,6,,,78,108
20448,note_on,,2,0,1,,,,,,,0,,,62,108
20448,note_on,,2,0,9,,,,,,,11,,,78,75
20448,note_on,,2,0,3,,,,,,,2,,,74,92
20448,note_on,,2,0,2,,,,,,,1,,,74,92
20448,note_on,,2,0,10,,,,,,,12,,,50,75
20448,note_on,,2,0,6,,,,,,,5,,,38,60
20448,note_on,,2,0,8,,,,,,,10,,,78,75
20494,note_on,,46,0,8,,,,,,,10,,,78,0
20494,note_on,,46,0,3,,,,,,,2,,,74,0
20494,note_on,,46,0,4,,,,,,,3,,,62,0
20494,note_on,,46,0,9,,,,,,,11,,,78,0
20494,note_on,,46,0,2,,,,,,,1,,,74,0
20494,note_on,,46,0,7,,,,,,,6,,,78,0
20496,note_on,,2,0,3,,,,,,,2,,,76,92
20496,note_on,,2,0,9,,,,,,,11,,,79,75
20496,note_on,,2,0,7,,,,,,,6,,,79,108
20496,note_on,,2,0,8,,,,,,,10,,,79,75
20496,note_on,,2,0,4,,,,,,,3,,,61,75
20496,note_on,,2,0,2,,,,,,,1,,,76,92
20542,note_on,,46,0,7,,,,,,,6,,,79,0
20542,note_on,,46,0,4,,,,,,,3,,,61,0
20542,note_on,,46,0,3,,,,,,,2,,,76,0
20542,note_on,,94,0,5,,,,,,,4,,,50,0
20542,note_on,,94,0,6,,,,,,,5,,,38,0
20542,note_on,,94,0,10,,,,,,,12,,,50,0
20542,note_on,,46,0,9,,,,,,,11,,,79,0
20542,note_on,,46,0,8,,,,,,,10,,,79,0
20542,note_on,,46,0,2,,,,,,,1,,,76,0
20544,note_on,,2,0,5,,,,,,,4,,,50,75
20544,note_on,,2,0,10,,,,,,,12,,,50,75
20544,note_on,,2,0,4,,,,,,,3,,,62,75
20544,note_on,,2,0,9,,,,,,,11,,,78,75
20544,note_on,,2,0,6,,,,,,,5,,,38,60
20544,note_on,,2,0,2,,,,,,,1,,,74,92
20544,note_on,,2,0,3,,,,,,,2,,,74,92
20544,note_on,,2,0,7,,,,,,,6,,,78,108
20544,note_on,,2,0,8,,,,,,,10,,,78,75
20590,note_on,,46,0,3,,,,,,,2,,,74,0
20590,note_on,,46,0,4,,,,,,,3,,,62,0
20590,note_on,,46,0,8,,,,,,,10,,,78,0
20590,note_on,,46,0,2,,,,,,,1,,,74,0
20590,note_on,,46,0,7,,,,,,,6,,,78,0
20590,note_on,,142,0,1,,,,,,,0,,,62,0
20590,note_on,,46,0,9,,,,,,,11,,,78,0
20592,note_on,,2,0,4,,,,,,,3,,,64,75
20592,note_on,,2,0,3,,,,,,,2,,,73,92
20592,note_on,,2,0,7,,,,,,,6,,,76,108
20592,note_on,,2,0,1,,,,,,,0,,,64,108
20592,note_on,,2,0,8,,,,,,,10,,,76,75
20592,note_on,,2,0,2,,,,,,,1,,,73,92
20592,note_on,,2,0,9,,,,,,,11,,,76,75
20638,note_on,,94,0,5,,,,,,,4,,,50,0
20638,note_on,,46,0,2,,,,,,,1,,,73,0
20638,note_on,,94,0,10,,,,,,,12,,,50,0
20638,note_on,,94,0,6,,,,,,,5,,,38,0
20638,note_on,,46,0,8,,,,,,,10,,,76,0
20638,note_on,,46,0,9,,,,,,,11,,,76,0
20638,note_on,,46,0,4,,,,,,,3,,,64,0
20638,note_on,,46,0,1,,,,,,,0,,,64,0
20638,note_on,,46,0,7,,,,,,,6,,,76,0
20638,note_on,,46,0,3,,,,,,,2,,,73,0
20640,note_on,,2,0,7,,,,,,,6,,,74,108
20640,note_on,,2,0,5,,,,,,,4,,,50,75
20640,note_on,,2,0,4,,,,,,,3,,,66,75
20640,note_on,,2,0,10,,,,,,,12,,,50,75
20640,note_on,,2,0,2,,,,,,,1,,,74,92
20640,note_on,,2,0,1,,,,,,,0,,,66,108
20640,note_on,,2,0,3,,,,,,,2,,,74,92
20640,note_on,,2,0,8,,,,,,,10,,,74,75
20640,note_on,,2,0,9,,,,,,,11,,,74,75
20640,note_on,,2,0,6,,,,,,,5,,,38,60
20734,note_on,,94,0,1,,,,,,,0,,,66,0
20734,note_on,,94,0,8,,,,,,,10,,,74,0
20734,note_on,,94,0,5,,,,,,,4,,,50,0
20734,note_on,,94,0,9,,,,,,,11,,,74,0
20734,note_on,,94,0,6,,,,,,,5,,,38,0
20734,note_on,,94,0,2,,,,,,,1,,,74,0
20734,note_on,,94,0,3,,,,,,,2,,,74,0
20734,note_on,,94,0,4,,,,,,,3,,,66,0
20734,note_on,,94,0,10,,,,,,,12,,,50,0
20736,note_on,,2,0,8,,,,,,,10,,,69,75
20736,note_on,,2,0,6,,,,,,,5,,,38,60
20736,note_on,,2,0,3,,,,,,,2,,,66,92
20736,note_on,,2,0,10,,,,,,,12,,,50,75
20736,note_on,,2,0,2,,,,,,,1,,,69,92
20736,note_on,,2,0,4,,,,,,,3,,,62,75
20736,note_on,,2,0,5,,,,,,,4,,,50,75
20736,note_on,,2,0,1,,,,,,,0,,,57,108
20736,note_on,,2,0,9,,,,,,,11,,,66,75
20782,note_on,,46,0,9,,,,,,,11,,,66,0
20782,note_on,,46,0,3,,,,,,,2,,,66,0
20782,note_on,,46,0,4,,,,,,,3,,,62,0
20782,note_on,,46,0,2,,,,,,,1,,,69,0
20782,note_on,,46,0,8,,,,,,,10,,,69,0
20784,note_on,,2,0,2,,,,,,,1,,,69,92
20784,note_on,,2,0,4,,,,,,,3,,,62,75
20784,note_on,,2,0,9,,,,,,,11,,,66,75
20784,note_on,,2,0,8,,,,,,,10,,,69,75
20784,note_on,,2,0,3,,,,,,,2,,,66,92
20800,note_on,,160,0,7,,,,,,,6,,,74,0
20830,note_on,,94,0,1,,,,,,,0,,,57,0
20830,note_on,,46,0,3,,,,,,,2,,,66,0
20830,note_on,,94,0,10,,,,,,,12,,,50,0
20830,note_on,,46,0,8,,,,,,,10,,,69,0
20830,note_on,,94,0,6,,,,,,,5,,,38,0
20830,note_on,,46,0,2,,,,,,,1,,,69,0
20830,note_on,,46,0,4,,,,,,,3,,,62,0
20830,note_on,,46,0,9,,,,,,,11,,,66,0
20830,note_on,,94,0,5,,,,,,,4,,,50,0
20832,note_on,,2,0,5,,,,,,,4,,,50,75
20832,note_on,,2,0,3,,,,,,,2,,,65,92
20832,note_on,,2,0,2,,,,,,,1,,,69,92
20832,note_on,,2,0,8,,,,,,,10,,,69,75
20832,note_on,,2,0,10,,,,,,,12,,,50,75
20832,note_on,,2,0,9,,,,,,,11,,,65,75
20832,note_on,,2,0,1,,,,,,,0,,,62,108
20832,note_on,,2,0,4,,,,,,,3,,,62,75
20832,note_on,,2,0,6,,,,,,,5,,,38,60
20926,note_on,,94,0,2,,,,,,,1,,,69,0
20926,note_on,,94,0,8,,,,,,,10,,,69,0
20926,note_on,,94,0,3,,,,,,,2,,,65,0
20926,note_on,,94,0,6,,,,,,,5,,,38,0
20926,note_on,,94,0,5,,,,,,,4,,,50,0
20926,note_on,,94,0,9,,,,,,,11,,,65,0
20926,note_on,,94,0,10,,,,,,,12,,,50,0
20926,note_on,,94,0,4,,,,,,,3,,,62,0
20928,note_on,,2,0,3,,,,,,,2,,,65,92
20928,note_on,,128,0,7,,,,,,,6,,,66,108
20928,note_on,,2,0,5,,,,,,,4,,,50,75
20928,note_on,,2,0,9,,,,,,,11,,,65,75
20928,note_on,,2,0,4,,,,,,,3,,,62,75
20928,note_on,,2,0,6,,,,,,,5,,,38,60
20928,note_on,,2,0,10,,,,,,,12,,,50,75
20928,note_on,,2,0,2,,,,,,,1,,,69,92
20928,note_on,,2,0,8,,,,,,,10,,,69,75
20974,note_on,,46,0,3,,,,,,,2,,,65,0
20974,note_on,,46,0,7,,,,,,,6,,,66,0
20974,note_on,,46,0,2,,,,,,,1,,,69,0
20974,note_on,,46,0,8,,,,,,,10,,,69,0
20974,note_on,,46,0,9,,,,,,,11,,,65,0
20974,note_on,,46,0,4,,,,,,,3,,,62,0
20976,note_on,,2,0,8,,,,,,,10,,,69,75
20976,note_on,,2,0,2,,,,,,,1,,,69,92
20976,note_on,,2,0,3,,,,,,,2,,,65,92
20976,note_on,,2,0,7,,,,,,,6,,,62,108
20976,note_on,,2,0,9,,,,,,,11,,,65,75
20976,note_on,,2,0,4,,,,,,,3,,,62,75
20992,note_on,,160,0,1,,,,,,,0,,,62,0
21022,note_on,,46,0,2,,,,,,,1,,,69,0
21022,note_on,,94,0,6,,,,,,,5,,,38,0
21022,note_on,,46,0,9,,,,,,,11,,,65,0
21022,note_on,,46,0,4,,,,,,,3,,,62,0
21022,note_on,,94,0,10,,,,,,,12,,,50,0
21022,note_on,,46,0,3,,,,,,,2,,,65,0
21022,note_on,,46,0,8,,,,,,,10,,,69,0
21022,note_on,,94,0,5,,,,,,,4,,,50,0
21022,note_on,,46,0,7,,,,,,,6,,,62,0
21024,note_on,,2,0,5,,,,,,,4,,,50,75
21024,note_on,,2,0,6,,,,,,,5,,,38,60
21024,note_on,,2,0,10,,,,,,,12,,,50,75
21024,note_on,,2,0,9,,,,,,,11,,,65,75
21024,note_on,,2,0,7,,,,,,,6,,,69,108
21024,note_on,,2,0,8,,,,,,,10,,,69,75
21024,note_on,,2,0,2,,,,,,,1,,,69,92
21024,note_on,,2,0,4,,,,,,,3,,,62,75
21024,note_on,,2,0,3,,,,,,,2,,,65,92
21118,note_on,,94,0,9,,,,,,,11,,,65,0
21118,note_on,,94,0,8,,,,,,,10,,,69,0
21118,note_on,,94,0,6,,,,,,,5,,,38,0
21118,note_on,,94,0,10,,,,,,,12,,,50,0
21118,note_on,,94,0,4,,,,,,,3,,,62,0
21118,note_on,,94,0,5,,,,,,,4,,,50,0
21118,note_on,,94,0,2,,,,,,,1,,,69,0
21118,note_on,,94,0,3,,,,,,,2,,,65,0
21120,note_on,,2,0,8,,,,,,,10,,,69,75
21120,note_on,,2,0,3,,,,,,,2,,,65,92
21120,note_on,,2,0,10,,,,,,,12,,,50,75
21120,note_on,,2,0,4,,,,,,,3,,,62,75
21120,note_on,,2,0,2,,,,,,,1,,,69,92
21120,note_on,,128,0,1,,,,,,,0,,,62,108
21120,note_on,,2,0,9,,,,,,,11,,,65,75
21120,note_on,,2,0,5,,,,,,,4,,,50,75
21120,note_on,,2,0,6,,,,,,,5,,,38,60
21166,note_on,,46,0,8,,,,,,,10,,,69,0
21166,note_on,,46,0,9,,,,,,,11,,,65,0
21166,note_on,,46,0,3,,,,,,,2,,,65,0
21166,note_on,,46,0,4,,,,,,,3,,,62,0
21166,note_on,,46,0,2,,,,,,,1,,,69,0
21168,note_on,,2,0,4,,,,,,,3,,,62,75
21168,note_on,,2,0,8,,,,,,,10,,,69,75
21168,note_on,,2,0,2,,,,,,,1,,,69,92
21168,note_on,,2,0,3,,,,,,,2,,,65,92
21168,note_on,,2,0,9,,,,,,,11,,,65,75
21184,note_on,,160,0,7,,,,,,,6,,,69,0
21214,note_on,,94,0,10,,,,,,,12,,,50,0
21214,note_on,,94,0,5,,,,,,,4,,,50,0
21214,note_on,,94,0,1,,,,,,,0,,,62,0
21214,note_on,,46,0,3,,,,,,,2,,,65,0
21214,note_on,,46,0,4,,,,,,,3,,,62,0
21214,note_on,,46,0,9,,,,,,,11,,,65,0
21214,note_on,,46,0,8,,,,,,,10,,,69,0
21214,note_on,,94,0,6,,,,,,,5,,,38,0
21214,note_on,,46,0,2,,,,,,,1,,,69,0
21216,note_on,,2,0,2,,,,,,,1,,,74,92
21216,note_on,,2,0,4,,,,,,,3,,,66,75
21216,note_on,,2,0,8,,,,,,,10,,,74,75
21216,note_on,,2,0,1,,,,,,,0,,,66,108
21216,note_on,,2,0,9,,,,,,,11,,,69,75
21216,note_on,,2,0,6,,,,,,,5,,,38,60
21216,note_on,,2,0,3,,,,,,,2,,,69,92
21216,note_on,,2,0,10,,,,,,,12,,,50,75
21216,note_on,,2,0,5,,,,,,,4,,,50,75
21310,note_on,,94,0,8,,,,,,,10,,,74,0
21310,note_on,,94,0,2,,,,,,,1,,,74,0
21310,note_on,,94,0,5,,,,,,,4,,,50,0
21310,note_on,,94,0,10,,,,,,,12,,,50,0
21310,note_on,,94,0,4,,,,,,,3,,,66,0
21310,note_on,,94,0,6,,,,,,,5,,,38,0
21310,note_on,,94,0,9,,,,,,,11,,,69,0
21310,note_on,,94,0,3,,,,,,,2,,,69,0
21312,note_on,,2,0,3,,,,,,,2,,,69,92
21312,note_on,,2,0,6,,,,,,,5,,,38,60
21312,note_on,,2,0,8,,,,,,,10,,,74,75
21312,note_on,,128,0,7,,,,,,,6,,,69,108
21312,note_on,,2,0,10,,,,,,,12,,,50,75
21312,note_on,,2,0,2,,,,,,,1,,,74,92
21312,note_on,,2,0,9,,,,,,,11,,,69,75
21312,note_on,,2,0,4,,,,,,,3,,,66,75
21312,note_on,,2,0,5,,,,,,,4,,,50,75
21358,note_on,,46,0,8,,,,,,,10,,,74,0
21358,note_on,,46,0,7,,,,,,,6,,,69,0
21358,note_on,,46,0,9,,,,,,,11,,,69,0
21358,note_on,,46,0,3,,,,,,,2,,,69,0
21358,note_on,,46,0,4,,,,,,,3,,,66,0
21358,note_on,,46,0,2,,,,,,,1,,,74,0
21360,note_on,,2,0,8,,,,,,,10,,,74,75
21360,note_on,,2,0,2,,,,,,,1,,,74,92
21360,note_on,,2,0,3,,,,,,,2,,,69,92
21360,note_on,,2,0,4,,,,,,,3,,,66,75
21360,note_on,,2,0,7,,,,,,,6,,,69,108
21360,note_on,,2,0,9,,,,,,,11,,,69,75
21376,note_on,,160,0,1,,,,,,,0,,,66,0
21406,note_on,,46,0,4,,,,,,,3,,,66,0
21406,note_on,,94,0,6,,,,,,,5,,,38,0
21406,note_on,,46,0,7,,,,,,,6,,,69,0
21406,note_on,,94,0,10,,,,,,,12,,,50,0
21406,note_on,,46,0,8,,,,,,,10,,,74,0
21406,note_on,,46,0,3,,,,,,,2,,,69,0
21406,note_on,,94,0,5,,,,,,,4,,,50,0
21406,note_on,,46,0,2,,,,,,,1,,,74,0
21406,note_on,,46,0,9,,,,,,,11,,,69,0
21408,note_on,,2,0,6,,,,,,,5,,,38,60
21408,note_on,,2,0,3,,,,,,,2,,,69,92
21408,note_on,,2,0,5,,,,,,,4,,,50,75
21408,note_on,,2,0,2,,,,,,,1,,,74,92
21408,note_on,,2,0,9,,,,,,,11,,,69,75
21408,note_on,,2,0,8,,,,,,,10,,,74,75
21408,note_on,,2,0,10,,,,,,,12,,,50,75
21408,note_on,,2,0,7,,,,,,,6,,,74,108
21408,note_on,,2,0,4,,,,,,,3,,,66,75
21502,note_on,,94,0,9,,,,,,,11,,,69,0
21502,note_on,,94,0,8,,,,,,,10,,,74,0
21502,note_on,,94,0,5,,,,,,,4,,,50,0
21502,note_on,,94,0,3,,,,,,,2,,,69,0
21502,note_on,,94,0,4,,,,,,,3,,,66,0
21502,note_on,,94,0,10,,,,,,,12,,,50,0
21502,note_on,,94,0,2,,,,,,,1,,,74,0
21502,note_on,,94,0,6,,,,,,,5,,,38,0
21504,note_on,,2,0,2,,,,,,,1,,,74,92
21504,note_on,,2,0,9,,,,,,,11,,,69,75
21504,note_on,,2,0,4,,,,,,,3,,,66,75
21504,note_on,,2,0,8,,,,,,,10,,,74,75
21504,note_on,,2,0,5,,,,,,,4,,,50,75
21504,note_on,,2,0,6,,,,,,,5,,,38,60
21504,note_on,,2,0,10,,,,,,,12,,,50,75
21504,note_on,,128,0,1,,,,,,,0,,,66,108
21504,note_on,,2,0,3,,,,,,,2,,,69,92
21550,note_on,,46,0,4,,,,,,,3,,,66,0
21550,note_on,,46,0,8,,,,,,,10,,,74,0
21550,note_on,,46,0,2,,,,,,,1,,,74,0
21550,note_on,,46,0,9,,,,,,,11,,,69,0
21550,note_on,,46,0,3,,,,,,,2,,,69,0
21552,note_on,,2,0,2,,,,,,,1,,,74,92
21552,note_on,,2,0,4,,,,,,,3,,,66,75
21552,note_on,,2,0,3,,,,,,,2,,,69,92
21552,note_on,,2,0,8,,,,,,,10,,,74,75
21552,note_on,,2,0,9,,,,,,,11,,,69,75
21568,note_on,,160,0,7,,,,,,,6,,,74,0
21598,note_on,,94,0,5,,,,,,,4,,,50,0
21598,note_on,,46,0,8,,,,,,,10,,,74,0
21598,note_on,,46,0,9,,,,,,,11,,,69,0
21598,note_on,,94,0,6,,,,,,,5,,,38,0
21598,note_on,,46,0,2,,,,,,,1,,,74,0
21598,note_on,,94,0,1,,,,,,,0,,,66,0
21598,note_on,,46,0,3,,,,,,,2,,,69,0
21598,note_on,,94,0,10,,,,,,,12,,,50,0
21598,note_on,,46,0,4,,,,,,,3,,,66,0
21600,note_on,,2,0,9,,,,,,,11,,,71,75
21600,note_on,,2,0,1,,,,,,,0,,,69,108
21600,note_on,,2,0,6,,,,,,,5,,,38,60
21600,note_on,,2,0,4,,,,,,,3,,,66,75
21600,note_on,,2,0,10,,,,,,,12,,,50,75
21600,note_on,,2,0,8,,,,,,,10,,,74,75
21600,note_on,,2,0,3,,,,,,,2,,,71,92
21600,note_on,,2,0,2,,,,,,,1,,,74,92
21600,note_on,,2,0,5,,,,,,,4,,,50,75
21694,note_on,,94,0,9,,,,,,,11,,,71,0
21694,note_on,,94,0,3,,,,,,,2,,,71,0
21694,note_on,,94,0,10,,,,,,,12,,,50,0
21694,note_on,,94,0,8,,,,,,,10,,,74,0
21694,note_on,,94,0,6,,,,,,,5,,,38,0
21694,note_on,,94,0,5,,,,,,,4,,,50,0
21694,note_on,,94,0,4,,,,,,,3,,,66,0
21694,note_on,,94,0,2,,,,,,,1,,,74,0
21696,note_on,,2,0,8,,,,,,,10,,,78,75
21696,note_on,,2,0,9,,,,,,,11,,,74,75
21696,note_on,,2,0,3,,,,,,,2,,,74,92
21696,note_on,,128,0,7,,,,,,,6,,,62,108
21696,note_on,,2,0,2,,,,,,,1,,,78,92
21696,note_on,,2,0,4,,,,,,,3,,,69,75
21696,note_on,,2,0,5,,,,,,,4,,,50,75
21696,note_on,,2,0,6,,,,,,,5,,,38,60
21696,note_on,,2,0,10,,,,,,,12,,,50,75
21742,note_on,,46,0,2,,,,,,,1,,,78,0
21742,note_on,,46,0,3,,,,,,,2,,,74,0
21742,note_on,,46,0,9,,,,,,,11,,,74,0
21742,note_on,,46,0,8,,,,,,,10,,,78,0
21742,note_on,,46,0,4,,,,,,,3,,,69,0
21742,note_on,,142,0,1,,,,,,,0,,,69,0
21742,note_on,,46,0,7,,,,,,,6,,,62,0
21744,note_on,,2,0,4,,,,,,,3,,,69,75
21744,note_on,,2,0,2,,,,,,,1,,,78,92
21744,note_on,,2,0,7,,,,,,,6,,,62,108
21744,note_on,,2,0,1,,,,,,,0,,,62,108
21744,note_on,,2,0,3,,,,,,,2,,,74,92
21744,note_on,,2,0,9,,,,,,,11,,,74,75
21744,note_on,,2,0,8,,,,,,,10,,,78,75
21790,note_on,,94,0,5,,,,,,,4,,,50,0
21790,note_on,,46,0,4,,,,,,,3,,,69,0
21790,note_on,,94,0,10,,,,,,,12,,,50,0
21790,note_on,,46,0,7,,,,,,,6,,,62,0
21790,note_on,,46,0,3,,,,,,,2,,,74,0
21790,note_on,,46,0,2,,,,,,,1,,,78,0
21790,note_on,,46,0,9,,,,,,,11,,,74,0
21790,note_on,,46,0,1,,,,,,,0,,,62,0
21790,note_on,,46,0,8,,,,,,,10,,,78,0
21790,note_on,,94,0,6,,,,,,,5,,,38,0
21792,note_on,,2,0,4,,,,,,,3,,,69,75
21792,note_on,,2,0,7,,,,,,,6,,,62,108
21792,note_on,,2,0,1,,,,,,,0,,,62,108
21792,note_on,,2,0,3,,,,,,,2,,,74,92
21792,note_on,,2,0,8,,,,,,,10,,,78,75
21792,note_on,,2,0,9,,,,,,,11,,,74,75
21792,note_on,,2,0,5,,,,,,,4,,,50,75
21792,note_on,,2,0,6,,,,,,,5,,,38,60
21792,note_on,,2,0,10,,,,,,,12,,,50,75
21792,note_on,,2,0,2,,,,,,,1,,,78,92
21886,note_on,,94,0,7,,,,,,,6,,,62,0
21886,note_on,,94,0,6,,,,,,,5,,,38,0
21886,note_on,,94,0,10,,,,,,,12,,,50,0
21886,note_on,,94,0,4,,,,,,,3,,,69,0
21886,note_on,,94,0,9,,,,,,,11,,,74,0
21886,note_on,,94,0,3,,,,,,,2,,,74,0
21886,note_on,,94,0,1,,,,,,,0,,,62,0
21886,note_on,,94,0,5,,,,,,,4,,,50,0
21886,note_on,,94,0,8,,,,,,,10,,,78,0
21886,note_on,,94,0,2,,,,,,,1,,,78,0
21888,note_on,,2,0,4,,,,,,,3,,,69,75
21888,note_on,,2,0,1,,,,,,,0,,,57,108
21888,note_on,,2,0,3,,,,,,,2,,,74,92
21888,note_on,,2,0,8,,,,,,,10,,,78,75
21888,note_on,,2,0,5,,,,,,,4,,,50,75
21888,note_on,,2,0,6,,,,,,,5,,,38,60
21888,note_on,,2,0,9,,,,,,,11,,,74,75
21888,note_on,,2,0,10,,,,,,,12,,,50,75
21888,note_on,,2,0,2,,,,,,,1,,,78,92
21888,note_on,,2,0,7,,,,,,,6,,,66,108
21934,note_on,,46,0,4,,,,,,,3,,,69,0
21934,note_on,,46,0,9,,,,,,,11,,,74,0
21934,note_on,,46,0,2,,,,,,,1,,,78,0
21934,note_on,,46,0,3,,,,,,,2,,,74,0
21934,note_on,,46,0,8,,,,,,,10,,,78,0
21934,note_on,,46,0,7,,,,,,,6,,,66,0
21936,note_on,,2,0,7,,,,,,,6,,,66,108
21936,note_on,,2,0,8,,,,,,,10,,,78,75
21936,note_on,,2,0,3,,,,,,,2,,,74,92
21936,note_on,,2,0,4,,,,,,,3,,,69,75
21936,note_on,,2,0,9,,,,,,,11,,,74,75
21936,note_on,,2,0,2,,,,,,,1,,,78,92
21982,note_on,,46,0,7,,,,,,,6,,,66,0
21982,note_on,,94,0,10,,,,,,,12,,,50,0
21982,note_on,,46,0,4,,,,,,,3,,,69,0
21982,note_on,,94,0,1,,,,,,,0,,,57,0
21982,note_on,,46,0,8,,,,,,,10,,,78,0
21982,note_on,,46,0,2,,,,,,,1,,,78,0
21982,note_on,,94,0,5,,,,,,,4,,,50,0
21982,note_on,,46,0,3,,,,,,,2,,,74,0
21982,note_on,,46,0,9,,,,,,,11,,,74,0
21982,note_on,,94,0,6,,,,,,,5,,,38,0
21984,note_on,,2,0,8,,,,,,,10,,,81,75
21984,note_on,,2,0,5,,,,,,,4,,,50,75
21984,note_on,,2,0,2,,,,,,,1,,,81,92
21984,note_on,,2,0,1,,,,,,,0,,,54,108
21984,note_on,,2,0,4,,,,,,,3,,,74,75
21984,note_on,,2,0,3,,,,,,,2,,,78,92
21984,note_on,,2,0,9,,,,,,,11,,,78,75
21984,note_on,,2,0,10,,,,,,,12,,,50,75
21984,note_on,,2,0,7,,,,,,,6,,,66,108
21984,note_on,,2,0,6,,,,,,,5,,,38,60
22078,note_on,,94,0,1,,,,,,,0,,,54,0
22078,note_on,,94,0,10,,,,,,,12,,,50,0
22078,note_on,,94,0,2,,,,,,,1,,,81,0
22078,note_on,,94,0,3,,,,,,,2,,,78,0
22078,note_on,,94,0,6,,,,,,,5,,,38,0
22078,note_on,,94,0,4,,,,,,,3,,,74,0
22078,note_on,,94,0,5,,,,,,,4,,,50,0
22078,note_on,,94,0,8,,,,,,,10,,,81,0
22078,note_on,,94,0,7,,,,,,,6,,,66,0
22078,note_on,,94,0,9,,,,,,,11,,,78,0
22080,note_on,,2,0,3,,,,,,,2,,,78,92
22080,note_on,,2,0,6,,,,,,,5,,,38,60
22080,note_on,,2,0,5,,,,,,,4,,,50,75
22080,note_on,,2,0,4,,,,,,,3,,,74,75
22080,note_on,,2,0,10,,,,,,,12,,,50,75
22080,note_on,,2,0,7,,,,,,,6,,,69,108
22080,note_on,,2,0,9,,,,,,,11,,,78,75
22080,note_on,,2,0,2,,,,,,,1,,,81,92
22080,note_on,,2,0,8,,,,,,,10,,,81,75
22080,note_on,,2,0,1,,,,,,,0,,,50,108
22126,note_on,,46,0,8,,,,,,,10,,,81,0
22126,note_on,,46,0,4,,,,,,,3,,,74,0
22126,note_on,,46,0,7,,,,,,,6,,,69,0
22126,note_on,,46,0,9,,,,,,,11,,,78,0
22126,note_on,,46,0,2,,,,,,,1,,,81,0
22126,note_on,,46,0,3,,,,,,,2,,,78,0
22128,note_on,,2,0,3,,,,,,,2,,,78,92
22128,note_on,,2,0,8,,,,,,,10,,,81,75
22128,note_on,,2,0,2,,,,,,,1,,,81,92
22128,note_on,,2,0,4,,,,,,,3,,,74,75
22128,note_on,,2,0,7,,,,,,,6,,,69,108
22128,note_on,,2,0,9,,,,,,,11,,,78,75
22174,note_on,,94,0,6,,,,,,,5,,,38,0
22174,note_on,,46,0,4,,,,,,,3,,,74,0
22174,note_on,,46,0,8,,,,,,,10,,,81,0
22174,note_on,,46,0,7,,,,,,,6,,,69,0
22174,note_on,,94,0,5,,,,,,,4,,,50,0
22174,note_on,,46,0,9,,,,,,,11,,,78,0
22174,note_on,,94,0,1,,,,,,,0,,,50,0
22174,note_on,,94,0,10,,,,,,,12,,,50,0
22174,note_on,,46,0,2,,,,,,,1,,,81,0
22174,note_on,,46,0,3,,,,,,,2,,,78,0
22176,note_on,,2,0,2,,,,,,,1,,,81,92
22176,note_on,,2,0,10,,,,,,,12,,,50,75
22176,note_on,,2,0,6,,,,,,,5,,,38,60
22176,note_on,,2,0,7,,,,,,,6,,,69,108
22176,note_on,,2,0,4,,,,,,,3,,,74,75
22176,note_on,,2,0,5,,,,,,,4,,,50,75
22176,note_on,,2,0,8,,,,,,,10,,,81,75
22176,note_on,,2,0,3,,,,,,,2,,,78,92
22176,note_on,,2,0,9,,,,,,,11,,,78,75
22270,note_on,,94,0,6,,,,,,,5,,,38,0
22270,note_on,,94,0,7,,,,,,,6,,,69,0
22270,note_on,,94,0,5,,,,,,,4,,,50,0
22270,note_on,,94,0,3,,,,,,,2,,,78,0
22270,note_on,,94,0,9,,,,,,,11,,,78,0
22270,note_on,,94,0,10,,,,,,,12,,,50,0
22270,note_on,,94,0,4,,,,,,,3,,,74,0
22270,note_on,,94,0,8,,,,,,,10,,,81,0
22270,note_on,,94,0,2,,,,,,,1,,,81,0
22272,note_on,,2,0,10,,,,,,,12,,,50,75
22272,note_on,,2,0,9,,,,,,,11,,,78,75
22272,note_on,,2,0,8,,,,,,,10,,,81,75
22272,note_on,,2,0,3,,,,,,,2,,,78,92
22272,note_on,,2,0,2,,,,,,,1,,,81,92
22272,note_on,,2,0,5,,,,,,,4,,,50,75
22272,note_on,,2,0,7,,,,,,,6,,,74,108
22272,note_on,,2,0,4,,,,,,,3,,,74,75
22272,note_on,,98,0,1,,,,,,,0,,,57,108
22272,note_on,,2,0,6,,,,,,,5,,,38,60
22366,note_on,,94,0,5,,,,,,,4,,,50,0
22366,note_on,,94,0,1,,,,,,,0,,,57,0
22366,note_on,,94,0,2,,,,,,,1,,,81,0
22366,note_on,,94,0,3,,,,,,,2,,,78,0
22366,note_on,,94,0,7,,,,,,,6,,,74,0
22366,note_on,,94,0,9,,,,,,,11,,,78,0
22366,note_on,,94,0,10,,,,,,,12,,,50,0
22366,note_on,,94,0,4,,,,,,,3,,,74,0
22366,note_on,,94,0,6,,,,,,,5,,,38,0
22366,note_on,,94,0,8,,,,,,,10,,,81,0
22368,note_on,,2,0,3,,,,,,,2,,,74,92
22368,note_on,,2,0,6,,,,,,,5,,,38,60
22368,note_on,,2,0,4,,,,,,,3,,,69,75
22368,note_on,,2,0,2,,,,,,,1,,,78,92
22368,note_on,,2,0,7,,,,,,,6,,,74,108
22368,note_on,,2,0,1,,,,,,,0,,,62,108
22368,note_on,,2,0,5,,,,,,,4,,,50,75
22368,note_on,,2,0,10,,,,,,,12,,,50,75
22368,note_on,,2,0,9,,,,,,,11,,,74,75
22368,note_on,,2,0,8,,,,,,,10,,,78,75
22414,note_on,,46,0,7,,,,,,,6,,,74,0
22416,note_on,,2,0,7,,,,,,,6,,,76,108
22462,note_on,,94,0,3,,,,,,,2,,,74,0
22462,note_on,,94,0,4,,,,,,,3,,,69,0
22462,note_on,,94,0,2,,,,,,,1,,,78,0
22462,note_on,,46,0,7,,,,,,,6,,,76,0
22462,note_on,,94,0,8,,,,,,,10,,,78,0
22462,note_on,,94,0,10,,,,,,,12,,,50,0
22462,note_on,,94,0,5,,,,,,,4,,,50,0
22462,note_on,,94,0,9,,,,,,,11,,,74,0
22462,note_on,,94,0,6,,,,,,,5,,,38,0
22464,note_on,,2,0,2,,,,,,,1,,,78,92
22464,note_on,,2,0,10,,,,,,,12,,,50,75
22464,note_on,,2,0,4,,,,,,,3,,,69,75
22464,note_on,,2,0,7,,,,,,,6,,,74,108
22464,note_on,,2,0,9,,,,,,,11,,,74,75
22464,note_on,,2,0,5,,,,,,,4,,,50,75
22464,note_on,,2,0,8,,,,,,,10,,,78,75
22464,note_on,,2,0,6,,,,,,,5,,,38,60
22464,note_on,,2,0,3,,,,,,,2,,,74,92
22510,note_on,,46,0,7,,,,,,,6,,,74,0
22510,note_on,,142,0,1,,,,,,,0,,,62,0
22512,note_on,,2,0,7,,,,,,,6,,,76,108
22512,note_on,,2,0,1,,,,,,,0,,,57,108
22558,note_on,,94,0,2,,,,,,,1,,,78,0
22558,note_on,,94,0,8,,,,,,,10,,,78,0
22558,note_on,,94,0,3,,,,,,,2,,,74,0
22558,note_on,,94,0,6,,,,,,,5,,,38,0
22558,note_on,,46,0,7,,,,,,,6,,,76,0
22558,note_on,,46,0,1,,,,,,,0,,,57,0
22558,note_on,,94,0,4,,,,,,,3,,,69,0
22558,note_on,,94,0,9,,,,,,,11,,,74,0
22558,note_on,,94,0,10,,,,,,,12,,,50,0
22558,note_on,,94,0,5,,,,,,,4,,,50,0
22560,note_on,,2,0,2,,,,,,,1,,,78,92
22560,note_on,,2,0,8,,,,,,,10,,,78,75
22560,note_on,,2,0,4,,,,,,,3,,,69,75
22560,note_on,,2,0,1,,,,,,,0,,,57,108
22560,note_on,,2,0,5,,,,,,,4,,,50,75
22560,note_on,,2,0,3,,,,,,,2,,,74,92
22560,note_on,,2,0,9,,,,,,,11,,,74,75
22560,note_on,,2,0,10,,,,,,,12,,,50,75
22560,note_on,,2,0,6,,,,,,,5,,,38,60
22560,note_on,,2,0,7,,,,,,,6,,,74,108
22606,note_on,,46,0,7,,,,,,,6,,,74,0
22608,note_on,,2,0,7,,,,,,,6,,,76,108
22654,note_on,,94,0,3,,,,,,,2,,,74,0
22654,note_on,,94,0,10,,,,,,,12,,,50,0
22654,note_on,,94,0,4,,,,,,,3,,,69,0
22654,note_on,,94,0,8,,,,,,,10,,,78,0
22654,note_on,,46,0,7,,,,,,,6,,,76,0
22654,note_on,,94,0,1,,,,,,,0,,,57,0
22654,note_on,,94,0,6,,,,,,,5,,,38,0
22654,note_on,,94,0,9,,,,,,,11,,,74,0
22654,note_on,,94,0,5,,,,,,,4,,,50,0
22654,note_on,,94,0,2,,,,,,,1,,,78,0
22656,note_on,,2,0,8,,,,,,,10,,,78,75
22656,note_on,,2,0,7,,,,,,,6,,,74,108
22656,note_on,,2,0,1,,,,,,,0,,,57,108
22656,note_on,,2,0,6,,,,,,,5,,,38,60
22656,note_on,,2,0,10,,,,,,,12,,,50,75
22656,note_on,,2,0,9,,,,,,,11,,,74,75
22656,note_on,,2,0,5,,,,,,,4,,,50,75
22656,note_on,,2,0,3,,,,,,,2,,,74,92
22656,note_on,,2,0,4,,,,,,,3,,,69,75
22656,note_on,,2,0,2,,,,,,,1,,,78,92
22702,note_on,,46,0,7,,,,,,,6,,,74,0
22704,note_on,,2,0,7,,,,,,,6,,,76,108
22750,note_on,,94,0,3,,,,,,,2,,,74,0
22750,note_on,,46,0,7,,,,,,,6,,,76,0
22750,note_on,,94,0,2,,,,,,,1,,,78,0
22750,note_on,,94,0,8,,,,,,,10,,,78,0
22750,note_on,,94,0,6,,,,,,,5,,,38,0
22750,note_on,,94,0,4,,,,,,,3,,,69,0
22750,note_on,,94,0,5,,,,,,,4,,,50,0
22750,note_on,,94,0,1,,,,,,,0,,,57,0
22750,note_on,,94,0,10,,,,,,,12,,,50,0
22750,note_on,,94,0,9,,,,,,,11,,,74,0
22752,note_on,,2,0,6,,,,,,,5,,,38,60
22752,note_on,,2,0,1,,,,,,,0,,,62,108
22752,note_on,,2,0,2,,,,,,,1,,,74,92
22752,note_on,,2,0,9,,,,,,,11,,,74,75
22752,note_on,,2,0,8,,,,,,,10,,,74,75
22752,note_on,,2,0,5,,,,,,,4,,,50,75
22752,note_on,,2,0,10,,,,,,,12,,,50,75
22752,note_on,,2,0,3,,,,,,,2,,,74,92
22752,note_on,,2,0,4,,,,,,,3,,,66,75
22752,note_on,,2,0,7,,,,,,,6,,,78,108
22798,note_on,,46,0,7,,,,,,,6,,,78,0
22800,note_on,,2,0,7,,,,,,,6,,,79,108
22846,note_on,,94,0,5,,,,,,,4,,,50,0
22846,note_on,,94,0,10,,,,,,,12,,,50,0
22846,note_on,,94,0,6,,,,,,,5,,,38,0
22846,note_on,,46,0,7,,,,,,,6,,,79,0
22848,note_on,,2,0,6,,,,,,,5,,,38,60
22848,note_on,,0,0,1,,,,,,,0,,,57,108
22848,note_on,,2,0,7,,,,,,,6,,,78,108
22848,note_on,,96,0,1,,,,,,,0,,,62,0
22848,note_on,,2,0,5,,,,,,,4,,,50,75
22848,note_on,,2,0,10,,,,,,,12,,,50,75
22894,note_on,,46,0,7,,,,,,,6,,,78,0
22896,note_on,,2,0,7,,,,,,,6,,,79,108
22912,note_on,,160,0,4,,,,,,,3,,,66,0
22912,note_on,,160,0,3,,,,,,,2,,,74,0
22912,note_on,,160,0,9,,,,,,,11,,,74,0
22912,note_on,,160,0,8,,,,,,,10,,,74,0
22912,note_on,,160,0,2,,,,,,,1,,,74,0
22942,note_on,,94,0,5,,,,,,,4,,,50,0
22942,note_on,,46,0,7,,,,,,,6,,,79,0
22942,note_on,,94,0,6,,,,,,,5,,,38,0
22942,note_on,,94,0,10,,,,,,,12,,,50,0
22944,note_on,,2,0,7,,,,,,,6,,,78,108
22944,note_on,,2,0,10,,,,,,,12,,,50,75
22944,note_on,,2,0,6,,,,,,,5,,,38,60
22944,note_on,,0,0,1,,,,,,,0,,,62,108
22944,note_on,,96,0,1,,,,,,,0,,,57,0
22944,note_on,,2,0,5,,,,,,,4,,,50,75
22990,note_on,,46,0,7,,,,,,,6,,,78,0
22992,note_on,,0,0,1,,,,,,,0,,,64,108
22992,note_on,,48,0,1,,,,,,,0,,,62,0
22992,note_on,,2,0,7,,,,,,,6,,,79,108
23038,note_on,,94,0,6,,,,,,,5,,,38,0
23038,note_on,,94,0,10,,,,,,,12,,,50,0
23038,note_on,,94,0,5,,,,,,,4,,,50,0
23038,note_on,,46,0,7,,,,,,,6,,,79,0
23040,note_on,,2,0,6,,,,,,,5,,,38,60
23040,note_on,,48,0,1,,,,,,,0,,,64,0
23040,note_on,,2,0,10,,,,,,,12,,,50,75
23040,note_on,,0,0,1,,,,,,,0,,,62,108
23040,note_on,,2,0,7,,,,,,,6,,,78,108
23040,note_on,,2,0,5,,,,,,,4,,,50,75
23086,note_on,,46,0,7,,,,,,,6,,,78,0
23088,note_on,,2,0,7,,,,,,,6,,,79,108
23088,note_on,,0,0,1,,,,,,,0,,,64,108
23088,note_on,,48,0,1,,,,,,,0,,,62,0
23134,note_on,,46,0,7,,,,,,,6,,,79,0
23134,note_on,,94,0,10,,,,,,,12,,,50,0
23134,note_on,,94,0,6,,,,,,,5,,,38,0
23134,note_on,,94,0,5,,,,,,,4,,,50,0
23136,note_on,,0,0,1,,,,,,,0,,,66,108
23136,note_on,,48,0,1,,,,,,,0,,,64,0
23136,note_on,,2,0,6,,,,,,,5,,,38,60
23136,note_on,,2,0,5,,,,,,,4,,,50,75
23136,note_on,,2,0,10,,,,,,,12,,,50,75
23136,note_on,,2,0,7,,,,,,,6,,,81,108
23182,note_on,,46,0,7,,,,,,,6,,,81,0
23184,note_on,,48,0,1,,,,,,,0,,,66,0
23184,note_on,,0,0,1,,,,,,,0,,,67,108
23184,note_on,,2,0,7,,,,,,,6,,,83,108
23230,note_on,,94,0,6,,,,,,,5,,,38,0
23230,note_on,,94,0,5,,,,,,,4,,,50,0
23230,note_on,,94,0,10,,,,,,,12,,,50,0
23230,note_on,,46,0,7,,,,,,,6,,,83,0
23232,note_on,,2,0,6,,,,,,,5,,,50,60
23232,note_on,,0,0,1,,,,,,,0,,,66,108
23232,note_on,,48,0,1,,,,,,,0,,,67,0
23232,note_on,,2,0,5,,,,,,,4,,,62,75
23232,note_on,,2,0,10,,,,,,,12,,,62,75
23232,note_on,,2,0,7,,,,,,,6,,,81,108
23278,note_on,,46,0,7,,,,,,,6,,,81,0
23280,note_on,,2,0,7,,,,,,,6,,,83,108
23280,note_on,,48,0,1,,,,,,,0,,,66,0
23280,note_on,,0,0,1,,,,,,,0,,,67,108
23326,note_on,,94,0,10,,,,,,,12,,,62,0
23326,note_on,,94,0,6,,,,,,,5,,,50,0
23326,note_on,,94,0,5,,,,,,,4,,,62,0
23326,note_on,,46,0,7,,,,,,,6,,,83,0
23328,note_on,,2,0,5,,,,,,,4,,,61,75
23328,note_on,,48,0,1,,,,,,,0,,,67,0
23328,note_on,,2,0,6,,,,,,,5,,,49,60
23328,note_on,,0,0,1,,,,,,,0,,,64,108
23328,note_on,,2,0,7,,,,,,,6,,,79,108
23328,note_on,,2,0,10,,,,,,,12,,,61,75
23374,note_on,,46,0,7,,,,,,,6,,,79,0
23376,note_on,,48,0,1,,,,,,,0,,,64,0
23376,note_on,,0,0,1,,,,,,,0,,,66,108
23376,note_on,,2,0,7,,,,,,,6,,,81,108
23422,note_on,,94,0,10,,,,,,,12,,,61,0
23422,note_on,,94,0,5,,,,,,,4,,,61,0
23422,note_on,,94,0,6,,,,,,,5,,,49,0
23422,note_on,,46,0,7,,,,,,,6,,,81,0
23424,note_on,,0,0,1,,,,,,,0,,,64,108
23424,note_on,,48,0,1,,,,,,,0,,,66,0
23424,note_on,,2,0,5,,,,,,,4,,,57,75
23424,note_on,,2,0,6,,,,,,,5,,,45,60
23424,note_on,,2,0,10,,,,,,,12,,,57,75
23424,note_on,,2,0,7,,,,,,,6,,,79,108
23470,note_on,,46,0,7,,,,,,,6,,,79,0
23472,note_on,,0,0,1,,,,,,,0,,,66,108
23472,note_on,,48,0,1,,,,,,,0,,,64,0
23472,note_on,,2,0,7,,,,,,,6,,,81,108
23518,note_on,,94,0,10,,,,,,,12,,,57,0
23518,note_on,,94,0,5,,,,,,,4,,,57,0
23518,note_on,,46,0,7,,,,,,,6,,,81,0
23518,note_on,,94,0,6,,,,,,,5,,,45,0
23520,note_on,,2,0,7,,,,,,,6,,,78,108
23520,note_on,,2,0,6,,,,,,,5,,,50,60
23520,note_on,,2,0,5,,,,,,,4,,,62,75
23520,note_on,,2,0,10,,,,,,,12,,,62,75
23520,note_on,,48,0,1,,,,,,,0,,,66,0
23520,note_on,,0,0,1,,,,,,,0,,,62,108
23566,note_on,,46,0,7,,,,,,,6,,,78,0
23568,note_on,,2,0,7,,,,,,,6,,,79,108
23568,note_on,,48,0,1,,,,,,,0,,,62,0
23568,note_on,,0,0,1,,,,,,,0,,,64,108
23614,note_on,,94,0,5,,,,,,,4,,,62,0
23614,note_on,,46,0,7,,,,,,,6,,,79,0
23614,note_on,,94,0,6,,,,,,,5,,,50,0
23614,note_on,,94,0,10,,,,,,,12,,,62,0
23616,note_on,,2,0,6,,,,,,,5,,,38,60
23616,note_on,,2,0,5,,,,,,,4,,,50,75
23616,note_on,,0,0,1,,,,,,,0,,,62,108
23616,note_on,,48,0,1,,,,,,,0,,,64,0
23616,note_on,,2,0,7,,,,,,,6,,,78,108
23616,note_on,,2,0,10,,,,,,,12,,,50,75
23662,note_on,,46,0,7,,,,,,,6,,,78,0
23664,note_on,,2,0,7,,,,,,,6,,,79,108
23664,note_on,,0,0,1,,,,,,,0,,,64,108
23664,note_on,,48,0,1,,,,,,,0,,,62,0
23710,note_on,,94,0,5,,,,,,,4,,,50,0
23710,note_on,,46,0,7,,,,,,,6,,,79,0
23710,note_on,,94,0,6,,,,,,,5,,,38,0
23710,note_on,,94,0,10,,,,,,,12,,,50,0
23712,note_on,,2,0,7,,,,,,,6,,,78,108
23712,note_on,,0,0,1,,,,,,,0,,,62,108
23712,note_on,,48,0,1,,,,,,,0,,,64,0
23758,note_on,,46,0,7,,,,,,,6,,,78,0
23760,note_on,,2,0,7,,,,,,,6,,,79,108
23760,note_on,,0,0,1,,,,,,,0,,,64,108
23760,note_on,,48,0,1,,,,,,,0,,,62,0
23806,note_on,,46,0,7,,,,,,,6,,,79,0
23808,note_on,,2,0,7,,,,,,,6,,,78,108
23808,note_on,,48,0,1,,,,,,,0,,,64,0
23808,note_on,,98,0,6,,,,,,,5,,,47,60
23808,note_on,,98,0,5,,,,,,,4,,,59,75
23808,note_on,,0,0,1,,,,,,,0,,,62,108
23808,note_on,,98,0,10,,,,,,,12,,,59,75
23854,note_on,,46,0,7,,,,,,,6,,,78,0
23856,note_on,,48,0,1,,,,,,,0,,,62,0
23856,note_on,,2,0,7,,,,,,,6,,,79,108
23856,note_on,,0,0,1,,,,,,,0,,,64,108
23902,note_on,,94,0,10,,,,,,,12,,,59,0
23902,note_on,,46,0,7,,,,,,,6,,,79,0
23902,note_on,,94,0,6,,,,,,,5,,,47,0
23902,note_on,,94,0,5,,,,,,,4,,,59,0
23904,note_on,,2,0,10,,,,,,,12,,,54,75
23904,note_on,,0,0,1,,,,,,,0,,,66,108
23904,note_on,,2,0,7,,,,,,,6,,,81,108
23904,note_on,,2,0,5,,,,,,,4,,,54,75
23904,note_on,,2,0,6,,,,,,,5,,,42,60
23904,note_on,,48,0,1,,,,,,,0,,,64,0
23998,note_on,,94,0,7,,,,,,,6,,,81,0
23998,note_on,,94,0,10,,,,,,,12,,,54,0
23998,note_on,,94,0,1,,,,,,,0,,,66,0
23998,note_on,,94,0,5,,,,,,,4,,,54,0
23998,note_on,,94,0,6,,,,,,,5,,,42,0
24000,note_on,,2,0,5,,,,,,,4,,,50,75
24000,note_on,,2,0,6,,,,,,,5,,,38,60
24000,note_on,,2,0,7,,,,,,,6,,,83,108
24000,note_on,,2,0,1,,,,,,,0,,,67,108
24000,note_on,,2,0,10,,,,,,,12,,,50,75
24046,note_on,,46,0,7,,,,,,,6,,,83,0
24048,note_on,,2,0,7,,,,,,,6,,,81,108
24048,note_on,,48,0,1,,,,,,,0,,,67,0
24048,note_on,,0,0,1,,,,,,,0,,,66,108
24094,note_on,,46,0,7,,,,,,,6,,,81,0
24094,note_on,,94,0,10,,,,,,,12,,,50,0
24094,note_on,,94,0,5,,,,,,,4,,,50,0
24094,note_on,,94,0,6,,,,,,,5,,,38,0
24094,note_on,,46,0,1,,,,,,,0,,,66,0
24096,note_on,,2,0,10,,,,,,,12,,,55,75
24096,note_on,,2,0,1,,,,,,,0,,,64,108
24096,note_on,,2,0,7,,,,,,,6,,,79,108
24096,note_on,,2,0,5,,,,,,,4,,,55,75
24096,note_on,,2,0,6,,,,,,,5,,,43,60
24190,note_on,,94,0,7,,,,,,,6,,,79,0
24190,note_on,,94,0,10,,,,,,,12,,,55,0
24190,note_on,,94,0,6,,,,,,,5,,,43,0
24190,note_on,,94,0,5,,,,,,,4,,,55,0
24190,note_on,,94,0,1,,,,,,,0,,,64,0
24192,note_on,,2,0,5,,,,,,,4,,,50,75
24192,note_on,,2,0,6,,,,,,,5,,,38,60
24192,note_on,,2,0,1,,,,,,,0,,,62,108
24192,note_on,,2,0,10,,,,,,,12,,,50,75
24192,note_on,,2,0,7,,,,,,,6,,,78,108
24286,note_on,,94,0,5,,,,,,,4,,,50,0
24286,note_on,,94,0,6,,,,,,,5,,,38,0
24286,note_on,,94,0,1,,,,,,,0,,,62,0
24286,note_on,,94,0,10,,,,,,,12,,,50,0
24286,note_on,,94,0,7,,,,,,,6,,,78,0
24288,note_on,,2,0,5,,,,,,,4,,,57,75
24288,note_on,,1376,0,8,,,,,,,10,,,76,75
24288,note_on,,2,0,1,,,,,,,0,,,61,108
24288,note_on,,1376,0,4,,,,,,,3,,,69,75
24288,note_on,,1376,0,3,,,,,,,2,,,73,92
24288,note_on,,1376,0,2,,,,,,,1,,,76,92
24288,note_on,,2,0,10,,,,,,,12,,,57,75
24288,note_on,,2,0,7,,,,,,,6,,,76,108
24288,note_on,,2,0,6,,,,,,,5,,,45,60
24288,note_on,,1376,0,9,,,,,,,11,,,73,75
24382,note_on,,94,0,4,,,,,,,3,,,69,0
24382,note_on,,94,0,2,,,,,,,1,,,76,0
24382,note_on,,94,0,9,,,,,,,11,,,73,0
24382,note_on,,94,0,6,,,,,,,5,,,45,0
24382,note_on,,94,0,3,,,,,,,2,,,73,0
24382,note_on,,94,0,5,,,,,,,4,,,57,0
24382,note_on,,94,0,8,,,,,,,10,,,76,0
24382,note_on,,94,0,10,,,,,,,12,,,57,0
24384,note_on,,2,0,6,,,,,,,5,,,33,60
24384,note_on,,2,0,5,,,,,,,4,,,45,75
24384,note_on,,2,0,9,,,,,,,11,,,73,75
24384,note_on,,2,0,10,,,,,,,12,,,45,75
24384,note_on,,2,0,8,,,,,,,10,,,76,75
24384,note_on,,2,0,4,,,,,,,3,,,69,75
24384,note_on,,2,0,3,,,,,,,2,,,73,92
24384,note_on,,2,0,2,,,,,,,1,,,76,92
24430,note_on,,46,0,4,,,,,,,3,,,69,0
24430,note_on,,46,0,6,,,,,,,5,,,33,0
24430,note_on,,46,0,3,,,,,,,2,,,73,0
24430,note_on,,46,0,5,,,,,,,4,,,45,0
24430,note_on,,46,0,10,,,,,,,12,,,45,0
24430,note_on,,46,0,8,,,,,,,10,,,76,0
24430,note_on,,46,0,2,,,,,,,1,,,76,0
24430,note_on,,46,0,9,,,,,,,11,,,73,0
24432,note_on,,2,0,2,,,,,,,1,,,76,92
24432,note_on,,2,0,10,,,,,,,12,,,45,75
24432,note_on,,2,0,8,,,,,,,10,,,76,75
24432,note_on,,2,0,4,,,,,,,3,,,69,75
24432,note_on,,2,0,3,,,,,,,2,,,73,92
24432,note_on,,2,0,9,,,,,,,11,,,73,75
24432,note_on,,2,0,6,,,,,,,5,,,33,60
24432,note_on,,2,0,5,,,,,,,4,,,45,75
24448,note_on,,160,0,1,,,,,,,0,,,61,0
24448,note_on,,160,0,7,,,,,,,6,,,76,0
24478,note_on,,46,0,6,,,,,,,5,,,33,0
24478,note_on,,46,0,10,,,,,,,12,,,45,0
24478,note_on,,46,0,9,,,,,,,11,,,73,0
24478,note_on,,46,0,2,,,,,,,1,,,76,0
24478,note_on,,46,0,3,,,,,,,2,,,73,0
24478,note_on,,46,0,5,,,,,,,4,,,45,0
24478,note_on,,46,0,8,,,,,,,10,,,76,0
24478,note_on,,46,0,4,,,,,,,3,,,69,0
24480,note_on,,2,0,2,,,,,,,1,,,76,92
24480,note_on,,2,0,6,,,,,,,5,,,33,60
24480,note_on,,2,0,5,,,,,,,4,,,45,75
24480,note_on,,2,0,10,,,,,,,12,,,45,75
24480,note_on,,2,0,3,,,,,,,2,,,73,92
24480,note_on,,2,0,9,,,,,,,11,,,73,75
24480,note_on,,2,0,8,,,,,,,10,,,76,75
24480,note_on,,2,0,4,,,,,,,3,,,69,75
24574,note_on,,94,0,5,,,,,,,4,,,45,0
24574,note_on,,94,0,8,,,,,,,10,,,76,0
24574,note_on,,94,0,6,,,,,,,5,,,33,0
24574,note_on,,94,0,2,,,,,,,1,,,76,0
24574,note_on,,94,0,3,,,,,,,2,,,73,0
24574,note_on,,94,0,4,,,,,,,3,,,69,0
24574,note_on,,94,0,10,,,,,,,12,,,45,0
24574,note_on,,94,0,9,,,,,,,11,,,73,0
24576,note_on,,128,0,1,,,,,,,0,,,64,108
24576,note_on,,2,0,9,,,,,,,11,,,73,75
24576,note_on,,2,0,5,,,,,,,4,,,57,75
24576,note_on,,2,0,4,,,,,,,3,,,69,75
24576,note_on,,2,0,8,,,,,,,10,,,76,75
24576,note_on,,2,0,6,,,,,,,5,,,45,60
24576,note_on,,2,0,3,,,,,,,2,,,73,92
24576,note_on,,2,0,10,,,,,,,12,,,57,75
24576,note_on,,128,0,7,,,,,,,6,,,69,108
24576,note_on,,2,0,2,,,,,,,1,,,76,92
24622,note_on,,46,0,7,,,,,,,6,,,69,0
24624,note_on,,2,0,7,,,,,,,6,,,69,108
24670,note_on,,94,0,6,,,,,,,5,,,45,0
24670,note_on,,94,0,3,,,,,,,2,,,73,0
24670,note_on,,94,0,2,,,,,,,1,,,76,0
24670,note_on,,94,0,1,,,,,,,0,,,64,0
24670,note_on,,46,0,7,,,,,,,6,,,69,0
24670,note_on,,94,0,10,,,,,,,12,,,57,0
24670,note_on,,94,0,8,,,,,,,10,,,76,0
24670,note_on,,94,0,5,,,,,,,4,,,57,0
24670,note_on,,94,0,9,,,,,,,11,,,73,0
24670,note_on,,94,0,4,,,,,,,3,,,69,0
24672,note_on,,2,0,3,,,,,,,2,,,76,92
24672,note_on,,2,0,4,,,,,,,3,,,69,75
24672,note_on,,2,0,8,,,,,,,10,,,81,75
24672,note_on,,2,0,5,,,,,,,4,,,49,75
24672,note_on,,2,0,7,,,,,,,6,,,69,108
24672,note_on,,2,0,1,,,,,,,0,,,64,108
24672,note_on,,2,0,10,,,,,,,12,,,49,75
24672,note_on,,2,0,9,,,,,,,11,,,76,75
24672,note_on,,2,0,2,,,,,,,1,,,81,92
24672,note_on,,2,0,6,,,,,,,5,,,37,60
24766,note_on,,94,0,4,,,,,,,3,,,69,0
24766,note_on,,94,0,9,,,,,,,11,,,76,0
24766,note_on,,94,0,5,,,,,,,4,,,49,0
24766,note_on,,94,0,6,,,,,,,5,,,37,0
24766,note_on,,94,0,10,,,,,,,12,,,49,0
24766,note_on,,94,0,3,,,,,,,2,,,76,0
24766,note_on,,94,0,7,,,,,,,6,,,69,0
24766,note_on,,94,0,8,,,,,,,10,,,81,0
24766,note_on,,94,0,2,,,,,,,1,,,81,0
24768,note_on,,2,0,8,,,,,,,10,,,69,75
24768,note_on,,2,0,4,,,,,,,3,,,61,75
24768,note_on,,2,0,2,,,,,,,1,,,69,92
24768,note_on,,2,0,3,,,,,,,2,,,64,92
24768,note_on,,2,0,5,,,,,,,4,,,49,75
24768,note_on,,2,0,9,,,,,,,11,,,64,75
24768,note_on,,2,0,6,,,,,,,5,,,37,60
24768,note_on,,2,0,7,,,,,,,6,,,69,108
24768,note_on,,2,0,10,,,,,,,12,,,49,75
24814,note_on,,46,0,3,,,,,,,2,,,64,0
24814,note_on,,46,0,4,,,,,,,3,,,61,0
24814,note_on,,46,0,9,,,,,,,11,,,64,0
24814,note_on,,142,0,1,,,,,,,0,,,64,0
24814,note_on,,46,0,2,,,,,,,1,,,69,0
24814,note_on,,46,0,7,,,,,,,6,,,69,0
24814,note_on,,46,0,8,,,,,,,10,,,69,0
24816,note_on,,2,0,9,,,,,,,11,,,64,75
24816,note_on,,2,0,3,,,,,,,2,,,64,92
24816,note_on,,2,0,1,,,,,,,0,,,57,108
24816,note_on,,2,0,8,,,,,,,10,,,69,75
24816,note_on,,2,0,7,,,,,,,6,,,69,108
24816,note_on,,2,0,4,,,,,,,3,,,61,75
24816,note_on,,2,0,2,,,,,,,1,,,69,92
24862,note_on,,46,0,9,,,,,,,11,,,64,0
24862,note_on,,46,0,8,,,,,,,10,,,69,0
24862,note_on,,46,0,3,,,,,,,2,,,64,0
24862,note_on,,46,0,7,,,,,,,6,,,69,0
24862,note_on,,46,0,4,,,,,,,3,,,61,0
24862,note_on,,46,0,1,,,,,,,0,,,57,0
24862,note_on,,94,0,10,,,,,,,12,,,49,0
24862,note_on,,94,0,5,,,,,,,4,,,49,0
24862,note_on,,46,0,2,,,,,,,1,,,69,0
24862,note_on,,94,0,6,,,,,,,5,,,37,0
24864,note_on,,2,0,10,,,,,,,12,,,49,75
24864,note_on,,2,0,5,,,,,,,4,,,49,75
24864,note_on,,2,0,4,,,,,,,3,,,61,75
24864,note_on,,2,0,9,,,,,,,11,,,64,75
24864,note_on,,2,0,7,,,,,,,6,,,69,108
24864,note_on,,2,0,8,,,,,,,10,,,69,75
24864,note_on,,2,0,3,,,,,,,2,,,64,92
24864,note_on,,2,0,6,,,,,,,5,,,37,60
24864,note_on,,2,0,1,,,,,,,0,,,57,108
24864,note_on,,2,0,2,,,,,,,1,,,69,92
24958,note_on,,94,0,1,,,,,,,0,,,57,0
24958,note_on,,94,0,5,,,,,,,4,,,49,0
24958,note_on,,94,0,6,,,,,,,5,,,37,0
24958,note_on,,94,0,10,,,,,,,12,,,49,0
24960,note_on,,2,0,5,,,,,,,4,,,50,75
24960,note_on,,2,0,10,,,,,,,12,,,50,75
24960,note_on,,2,0,1,,,,,,,0,,,59,108
24960,note_on,,2,0,6,,,,,,,5,,,38,60
25024,note_on,,160,0,2,,,,,,,1,,,69,0
25024,note_on,,160,0,9,,,,,,,11,,,64,0
25024,note_on,,160,0,8,,,,,,,10,,,69,0
25024,note_on,,160,0,7,,,,,,,6,,,69,0
25024,note_on,,160,0,4,,,,,,,3,,,61,0
25024,note_on,,160,0,3,,,,,,,2,,,64,0
25054,note_on,,94,0,6,,,,,,,5,,,38,0
25054,note_on,,94,0,1,,,,,,,0,,,59,0
25054,note_on,,94,0,10,,,,,,,12,,,50,0
25054,note_on,,94,0,5,,,,,,,4,,,50,0
25056,note_on,,2,0,1,,,,,,,0,,,61,108
25056,note_on,,2,0,6,,,,,,,5,,,40,60
25056,note_on,,2,0,5,,,,,,,4,,,52,75
25056,note_on,,2,0,10,,,,,,,12,,,52,75
25150,note_on,,94,0,10,,,,,,,12,,,52,0
25150,note_on,,94,0,5,,,,,,,4,,,52,0
25150,note_on,,94,0,6,,,,,,,5,,,40,0
25152,note_on,,2,0,5,,,,,,,4,,,52,75
25152,note_on,,2,0,10,,,,,,,12,,,52,75
25152,note_on,,2,0,6,,,,,,,5,,,40,60
25152,note_on,,0,0,1,,,,,,,0,,,59,108
25152,note_on,,96,0,1,,,,,,,0,,,61,0
25200,note_on,,0,0,1,,,,,,,0,,,57,108
25200,note_on,,48,0,1,,,,,,,0,,,59,0
25246,note_on,,94,0,6,,,,,,,5,,,40,0
25246,note_on,,94,0,10,,,,,,,12,,,52,0
25246,note_on,,94,0,5,,,,,,,4,,,52,0
25248,note_on,,2,0,6,,,,,,,5,,,42,60
25248,note_on,,2,0,5,,,,,,,4,,,54,75
25248,note_on,,0,0,1,,,,,,,0,,,62,108
25248,note_on,,2,0,10,,,,,,,12,,,54,75
25248,note_on,,48,0,1,,,,,,,0,,,57,0
25342,note_on,,94,0,10,,,,,,,12,,,54,0
25342,note_on,,94,0,6,,,,,,,5,,,42,0
25342,note_on,,94,0,5,,,,,,,4,,,54,0
25342,note_on,,94,0,1,,,,,,,0,,,62,0
25344,note_on,,2,0,1,,,,,,,0,,,59,108
25344,note_on,,2,0,5,,,,,,,4,,,55,75
25344,note_on,,2,0,6,,,,,,,5,,,43,60
25344,note_on,,2,0,10,,,,,,,12,,,55,75
25438,note_on,,94,0,1,,,,,,,0,,,59,0
25438,note_on,,94,0,5,,,,,,,4,,,55,0
25438,note_on,,94,0,6,,,,,,,5,,,43,0
25438,note_on,,94,0,10,,,,,,,12,,,55,0
25440,note_on,,2,0,5,,,,,,,4,,,57,75
25440,note_on,,2,0,1,,,,,,,0,,,61,108
25440,note_on,,2,0,10,,,,,,,12,,,57,75
25440,note_on,,2,0,6,,,,,,,5,,,45,60
25534,note_on,,94,0,5,,,,,,,4,,,57,0
25534,note_on,,94,0,6,,,,,,,5,,,45,0
25534,note_on,,94,0,10,,,,,,,12,,,57,0
25536,note_on,,2,0,10,,,,,,,12,,,55,75
25536,note_on,,2,0,6,,,,,,,5,,,43,60
25536,note_on,,2,0,5,,,,,,,4,,,55,75
25630,note_on,,94,0,5,,,,,,,4,,,55,0
25630,note_on,,94,0,10,,,,,,,12,,,55,0
25630,note_on,,94,0,6,,,,,,,5,,,43,0
25632,note_on,,2,0,10,,,,,,,12,,,57,75
25632,note_on,,2,0,6,,,,,,,5,,,45,60
25632,note_on,,2,0,5,,,,,,,4,,,57,75
25696,note_on,,256,0,1,,,,,,,0,,,61,0
25726,note_on,,94,0,10,,,,,,,12,,,57,0
25726,note_on,,94,0,6,,,,,,,5,,,45,0
25726,note_on,,94,0,5,,,,,,,4,,,57,0
25728,note_on,,2,0,6,,,,,,,5,,,33,60
25728,note_on,,32,0,1,,,,,,,0,,,62,108
25728,note_on,,2,0,5,,,,,,,4,,,45,75
25728,note_on,,2,0,10,,,,,,,12,,,45,75
25822,note_on,,94,0,5,,,,,,,4,,,45,0
25822,note_on,,94,0,6,,,,,,,5,,,33,0
25822,note_on,,94,0,10,,,,,,,12,,,45,0
25822,note_on,,94,0,1,,,,,,,0,,,62,0
25824,note_on,,2,0,10,,,,,,,12,,,50,75
25824,note_on,,2,0,5,,,,,,,4,,,50,75
25824,note_on,,2,0,6,,,,,,,5,,,38,60
25824,note_on,,2,0,1,,,,,,,0,,,62,108
25918,note_on,,94,0,6,,,,,,,5,,,38,0
25918,note_on,,94,0,5,,,,,,,4,,,50,0
25918,note_on,,94,0,10,,,,,,,12,,,50,0
25920,note_on,,2,0,5,,,,,,,4,,,50,75
25920,note_on,,2,0,10,,,,,,,12,,,50,75
25920,note_on,,2,0,6,,,,,,,5,,,38,60
25966,note_on,,46,0,5,,,,,,,4,,,50,0
25966,note_on,,46,0,6,,,,,,,5,,,38,0
25966,note_on,,46,0,10,,,,,,,12,,,50,0
25968,note_on,,2,0,5,,,,,,,4,,,50,75
25968,note_on,,2,0,10,,,,,,,12,,,50,75
25968,note_on,,2,0,6,,,,,,,5,,,38,60
25984,note_on,,160,0,1,,,,,,,0,,,62,0
26014,note_on,,46,0,6,,,,,,,5,,,38,0
26014,note_on,,46,0,5,,,,,,,4,,,50,0
26014,note_on,,46,0,10,,,,,,,12,,,50,0
26016,note_on,,2,0,10,,,,,,,12,,,50,75
26016,note_on,,2,0,6,,,,,,,5,,,38,60
26016,note_on,,2,0,5,,,,,,,4,,,50,75
26110,note_on,,94,0,6,,,,,,,5,,,38,0
26110,note_on,,94,0,10,,,,,,,12,,,50,0
26110,note_on,,94,0,5,,,,,,,4,,,50,0
26112,note_on,,2,0,5,,,,,,,4,,,54,75
26112,note_on,,1088,0,3,,,,,,,2,,,74,92
26112,note_on,,2,0,6,,,,,,,5,,,42,60
26112,note_on,,1088,0,9,,,,,,,11,,,74,75
26112,note_on,,1088,0,8,,,,,,,10,,,81,75
26112,note_on,,1088,0,4,,,,,,,3,,,69,75
26112,note_on,,1088,0,2,,,,,,,1,,,81,92
26112,note_on,,2,0,10,,,,,,,12,,,54,75
26112,note_on,,1088,0,7,,,,,,,6,,,81,108
26206,note_on,,94,0,4,,,,,,,3,,,69,0
26206,note_on,,94,0,5,,,,,,,4,,,54,0
26206,note_on,,94,0,2,,,,,,,1,,,81,0
26206,note_on,,94,0,8,,,,,,,10,,,81,0
26206,note_on,,94,0,3,,,,,,,2,,,74,0
26206,note_on,,94,0,6,,,,,,,5,,,42,0
26206,note_on,,94,0,9,,,,,,,11,,,74,0
26206,note_on,,94,0,7,,,,,,,6,,,81,0
26206,note_on,,94,0,10,,,,,,,12,,,54,0
26208,note_on,,2,0,3,,,,,,,2,,,73,92
26208,note_on,,2,0,9,,,,,,,11,,,73,75
26208,note_on,,2,0,2,,,,,,,1,,,76,92
26208,note_on,,2,0,6,,,,,,,5,,,45,60
26208,note_on,,2,0,10,,,,,,,12,,,57,75
26208,note_on,,2,0,5,,,,,,,4,,,57,75
26208,note_on,,2,0,4,,,,,,,3,,,69,75
26208,note_on,,2,0,7,,,,,,,6,,,76,108
26208,note_on,,2,0,8,,,,,,,10,,,76,75
26254,note_on,,46,0,8,,,,,,,10,,,76,0
26254,note_on,,46,0,3,,,,,,,2,,,73,0
26254,note_on,,46,0,7,,,,,,,6,,,76,0
26254,note_on,,46,0,2,,,,,,,1,,,76,0
26254,note_on,,46,0,9,,,,,,,11,,,73,0
26256,note_on,,2,0,3,,,,,,,2,,,74,92
26256,note_on,,2,0,9,,,,,,,11,,,74,75
26256,note_on,,2,0,8,,,,,,,10,,,78,75
26256,note_on,,2,0,2,,,,,,,1,,,78,92
26256,note_on,,2,0,7,,,,,,,6,,,78,108
26302,note_on,,46,0,3,,,,,,,2,,,74,0
26302,note_on,,94,0,6,,,,,,,5,,,45,0
26302,note_on,,46,0,2,,,,,,,1,,,78,0
26302,note_on,,94,0,5,,,,,,,4,,,57,0
26302,note_on,,46,0,9,,,,,,,11,,,74,0
26302,note_on,,46,0,7,,,,,,,6,,,78,0
26302,note_on,,46,0,8,,,,,,,10,,,78,0
26302,note_on,,94,0,10,,,,,,,12,,,57,0
26302,note_on,,94,0,4,,,,,,,3,,,69,0
26304,note_on,,2,0,7,,,,,,,6,,,76,108
26304,note_on,,2,0,10,,,,,,,12,,,57,75
26304,note_on,,2,0,3,,,,,,,2,,,73,92
26304,note_on,,2,0,6,,,,,,,5,,,45,60
26304,note_on,,2,0,4,,,,,,,3,,,69,75
26304,note_on,,2,0,8,,,,,,,10,,,76,75
26304,note_on,,2,0,9,,,,,,,11,,,73,75
26304,note_on,,2,0,5,,,,,,,4,,,57,75
26304,note_on,,2,0,2,,,,,,,1,,,76,92
26350,note_on,,46,0,3,,,,,,,2,,,73,0
26350,note_on,,46,0,10,,,,,,,12,,,57,0
26350,note_on,,46,0,8,,,,,,,10,,,76,0
26350,note_on,,46,0,7,,,,,,,6,,,76,0
26350,note_on,,46,0,9,,,,,,,11,,,73,0
26350,note_on,,46,0,5,,,,,,,4,,,57,0
26350,note_on,,46,0,4,,,,,,,3,,,69,0
26350,note_on,,46,0,2,,,,,,,1,,,76,0
26350,note_on,,46,0,6,,,,,,,5,,,45,0
26352,note_on,,2,0,10,,,,,,,12,,,57,75
26352,note_on,,2,0,3,,,,,,,2,,,74,92
26352,note_on,,2,0,4,,,,,,,3,,,69,75
26352,note_on,,2,0,8,,,,,,,10,,,78,75
26352,note_on,,2,0,7,,,,,,,6,,,78,108
26352,note_on,,2,0,5,,,,,,,4,,,57,75
26352,note_on,,2,0,9,,,,,,,11,,,74,75
26352,note_on,,2,0,6,,,,,,,5,,,45,60
26352,note_on,,2,0,2,,,,,,,1,,,78,92
26398,note_on,,46,0,3,,,,,,,2,,,74,0
26398,note_on,,46,0,4,,,,,,,3,,,69,0
26398,note_on,,46,0,10,,,,,,,12,,,57,0
26398,note_on,,46,0,7,,,,,,,6,,,78,0
26398,note_on,,46,0,8,,,,,,,10,,,78,0
26398,note_on,,46,0,6,,,,,,,5,,,45,0
26398,note_on,,46,0,2,,,,,,,1,,,78,0
26398,note_on,,46,0,5,,,,,,,4,,,57,0
26398,note_on,,46,0,9,,,,,,,11,,,74,0
26400,note_on,,2,0,5,,,,,,,4,,,57,75
26400,note_on,,2,0,4,,,,,,,3,,,69,75
26400,note_on,,2,0,8,,,,,,,10,,,76,75
26400,note_on,,2,0,2,,,,,,,1,,,76,92
26400,note_on,,2,0,7,,,,,,,6,,,76,108
26400,note_on,,2,0,3,,,,,,,2,,,73,92
26400,note_on,,2,0,10,,,,,,,12,,,57,75
26400,note_on,,2,0,6,,,,,,,5,,,45,60
26400,note_on,,2,0,9,,,,,,,11,,,73,75
26446,note_on,,46,0,7,,,,,,,6,,,76,0
26446,note_on,,46,0,3,,,,,,,2,,,73,0
26446,note_on,,46,0,8,,,,,,,10,,,76,0
26446,note_on,,46,0,2,,,,,,,1,,,76,0
26446,note_on,,46,0,9,,,,,,,11,,,73,0
26448,note_on,,2,0,9,,,,,,,11,,,74,75
26448,note_on,,2,0,8,,,,,,,10,,,78,75
26448,note_on,,2,0,2,,,,,,,1,,,78,92
26448,note_on,,2,0,3,,,,,,,2,,,74,92
26448,note_on,,2,0,7,,,,,,,6,,,78,108
26494,note_on,,94,0,6,,,,,,,5,,,45,0
26494,note_on,,94,0,4,,,,,,,3,,,69,0
26494,note_on,,46,0,8,,,,,,,10,,,78,0
26494,note_on,,46,0,2,,,,,,,1,,,78,0
26494,note_on,,94,0,10,,,,,,,12,,,57,0
26494,note_on,,46,0,3,,,,,,,2,,,74,0
26494,note_on,,46,0,7,,,,,,,6,,,78,0
26494,note_on,,46,0,9,,,,,,,11,,,74,0
26494,note_on,,94,0,5,,,,,,,4,,,57,0
26496,note_on,,2,0,6,,,,,,,5,,,43,60
26496,note_on,,2,0,9,,,,,,,11,,,73,75
26496,note_on,,2,0,10,,,,,,,12,,,55,75
26496,note_on,,2,0,7,,,,,,,6,,,76,108
26496,note_on,,2,0,2,,,,,,,1,,,76,92
26496,note_on,,2,0,3,,,,,,,2,,,73,92
26496,note_on,,2,0,8,,,,,,,10,,,76,75
26496,note_on,,2,0,5,,,,,,,4,,,55,75
26496,note_on,,2,0,4,,,,,,,3,,,69,75
26542,note_on,,46,0,5,,,,,,,4,,,55,0
26542,note_on,,46,0,10,,,,,,,12,,,55,0
26542,note_on,,46,0,2,,,,,,,1,,,76,0
26542,note_on,,46,0,3,,,,,,,2,,,73,0
26542,note_on,,46,0,6,,,,,,,5,,,43,0
26542,note_on,,46,0,9,,,,,,,11,,,73,0
26542,note_on,,46,0,8,,,,,,,10,,,76,0
26542,note_on,,46,0,7,,,,,,,6,,,76,0
26544,note_on,,2,0,10,,,,,,,12,,,54,75
26544,note_on,,2,0,9,,,,,,,11,,,74,75
26544,note_on,,2,0,3,,,,,,,2,,,74,92
26544,note_on,,2,0,6,,,,,,,5,,,42,60
26544,note_on,,2,0,5,,,,,,,4,,,54,75
26544,note_on,,2,0,7,,,,,,,6,,,78,108
26544,note_on,,2,0,2,,,,,,,1,,,78,92
26544,note_on,,2,0,8,,,,,,,10,,,78,75
26590,note_on,,46,0,2,,,,,,,1,,,78,0
26590,note_on,,46,0,10,,,,,,,12,,,54,0
26590,note_on,,46,0,8,,,,,,,10,,,78,0
26590,note_on,,46,0,7,,,,,,,6,,,78,0
26590,note_on,,46,0,6,,,,,,,5,,,42,0
26590,note_on,,94,0,4,,,,,,,3,,,69,0
26590,note_on,,46,0,9,,,,,,,11,,,74,0
26590,note_on,,46,0,5,,,,,,,4,,,54,0
26590,note_on,,46,0,3,,,,,,,2,,,74,0
26592,note_on,,2,0,3,,,,,,,2,,,76,92
26592,note_on,,2,0,8,,,,,,,10,,,79,75
26592,note_on,,2,0,6,,,,,,,5,,,40,60
26592,note_on,,2,0,9,,,,,,,11,,,76,75
26592,note_on,,2,0,5,,,,,,,4,,,52,75
26592,note_on,,2,0,7,,,,,,,6,,,79,108
26592,note_on,,2,0,2,,,,,,,1,,,79,92
26592,note_on,,2,0,4,,,,,,,3,,,61,75
26592,note_on,,2,0,10,,,,,,,12,,,52,75
26638,note_on,,46,0,7,,,,,,,6,,,79,0
26638,note_on,,46,0,9,,,,,,,11,,,76,0
26638,note_on,,46,0,8,,,,,,,10,,,79,0
26638,note_on,,46,0,2,,,,,,,1,,,79,0
26638,note_on,,46,0,3,,,,,,,2,,,76,0
26640,note_on,,2,0,7,,,,,,,6,,,81,108
26640,note_on,,2,0,9,,,,,,,11,,,78,75
26640,note_on,,2,0,8,,,,,,,10,,,81,75
26640,note_on,,2,0,2,,,,,,,1,,,81,92
26640,note_on,,2,0,3,,,,,,,2,,,78,92
26686,note_on,,94,0,6,,,,,,,5,,,40,0
26686,note_on,,94,0,5,,,,,,,4,,,52,0
26686,note_on,,46,0,3,,,,,,,2,,,78,0
26686,note_on,,46,0,9,,,,,,,11,,,78,0
26686,note_on,,46,0,7,,,,,,,6,,,81,0
26686,note_on,,46,0,2,,,,,,,1,,,81,0
26686,note_on,,46,0,8,,,,,,,10,,,81,0
26686,note_on,,94,0,10,,,,,,,12,,,52,0
26686,note_on,,94,0,4,,,,,,,3,,,61,0
26688,note_on,,2,0,5,,,,,,,4,,,62,75
26688,note_on,,2,0,10,,,,,,,12,,,62,75
26688,note_on,,2,0,7,,,,,,,6,,,79,108
26688,note_on,,2,0,3,,,,,,,2,,,76,92
26688,note_on,,2,0,6,,,,,,,5,,,50,60
26688,note_on,,2,0,4,,,,,,,3,,,62,75
26688,note_on,,2,0,2,,,,,,,1,,,79,92
26688,note_on,,2,0,9,,,,,,,11,,,76,75
26688,note_on,,2,0,8,,,,,,,10,,,79,75
26734,note_on,,46,0,3,,,,,,,2,,,76,0
26734,note_on,,46,0,7,,,,,,,6,,,79,0
26734,note_on,,46,0,2,,,,,,,1,,,79,0
26734,note_on,,46,0,8,,,,,,,10,,,79,0
26734,note_on,,46,0,9,,,,,,,11,,,76,0
26736,note_on,,2,0,2,,,,,,,1,,,81,92
26736,note_on,,2,0,7,,,,,,,6,,,81,108
26736,note_on,,2,0,9,,,,,,,11,,,78,75
26736,note_on,,2,0,3,,,,,,,2,,,78,92
26736,note_on,,2,0,8,,,,,,,10,,,81,75
26782,note_on,,46,0,7,,,,,,,6,,,81,0
26782,note_on,,94,0,5,,,,,,,4,,,62,0
26782,note_on,,94,0,4,,,,,,,3,,,62,0
26782,note_on,,94,0,10,,,,,,,12,,,62,0
26782,note_on,,46,0,8,,,,,,,10,,,81,0
26782,note_on,,46,0,2,,,,,,,1,,,81,0
26782,note_on,,46,0,3,,,,,,,2,,,78,0
26782,note_on,,94,0,6,,,,,,,5,,,50,0
26782,note_on,,46,0,9,,,,,,,11,,,78,0
26784,note_on,,2,0,10,,,,,,,12,,,61,75
26784,note_on,,2,0,9,,,,,,,11,,,76,75
26784,note_on,,2,0,8,,,,,,,10,,,79,75
26784,note_on,,2,0,7,,,,,,,6,,,79,108
26784,note_on,,2,0,3,,,,,,,2,,,76,92
26784,note_on,,2,0,2,,,,,,,1,,,79,92
26784,note_on,,2,0,5,,,,,,,4,,,61,75
26784,note_on,,2,0,4,,,,,,,3,,,69,75
26784,note_on,,2,0,6,,,,,,,5,,,49,60
26830,note_on,,46,0,9,,,,,,,11,,,76,0
26830,note_on,,46,0,3,,,,,,,2,,,76,0
26830,note_on,,46,0,7,,,,,,,6,,,79,0
26830,note_on,,46,0,2,,,,,,,1,,,79,0
26830,note_on,,46,0,8,,,,,,,10,,,79,0
26832,note_on,,2,0,9,,,,,,,11,,,78,75
26832,note_on,,2,0,3,,,,,,,2,,,78,92
26832,note_on,,2,0,8,,,,,,,10,,,81,75
26832,note_on,,2,0,7,,,,,,,6,,,81,108
26832,note_on,,2,0,2,,,,,,,1,,,81,92
26878,note_on,,46,0,9,,,,,,,11,,,78,0
26878,note_on,,94,0,6,,,,,,,5,,,49,0
26878,note_on,,46,0,7,,,,,,,6,,,81,0
26878,note_on,,94,0,4,,,,,,,3,,,69,0
26878,note_on,,94,0,5,,,,,,,4,,,61,0
26878,note_on,,46,0,8,,,,,,,10,,,81,0
26878,note_on,,46,0,2,,,,,,,1,,,81,0
26878,note_on,,94,0,10,,,,,,,12,,,61,0
26878,note_on,,46,0,3,,,,,,,2,,,78,0
26880,note_on,,2,0,5,,,,,,,4,,,57,75
26880,note_on,,2,0,2,,,,,,,1,,,79,92
26880,note_on,,2,0,6,,,,,,,5,,,45,60
26880,note_on,,2,0,8,,,,,,,10,,,79,75
26880,note_on,,2,0,3,,,,,,,2,,,76,92
26880,note_on,,2,0,7,,,,,,,6,,,79,108
26880,note_on,,2,0,4,,,,,,,3,,,61,75
26880,note_on,,2,0,9,,,,,,,11,,,76,75
26880,note_on,,2,0,10,,,,,,,12,,,57,75
26926,note_on,,46,0,2,,,,,,,1,,,79,0
26926,note_on,,46,0,9,,,,,,,11,,,76,0
26926,note_on,,46,0,3,,,,,,,2,,,76,0
26926,note_on,,46,0,8,,,,,,,10,,,79,0
26926,note_on,,46,0,7,,,,,,,6,,,79,0
26928,note_on,,2,0,2,,,,,,,1,,,81,92
26928,note_on,,2,0,3,,,,,,,2,,,78,92
26928,note_on,,2,0,8,,,,,,,10,,,81,75
26928,note_on,,2,0,9,,,,,,,11,,,78,75
26928,note_on,,2,0,7,,,,,,,6,,,81,108
26974,note_on,,94,0,10,,,,,,,12,,,57,0
26974,note_on,,46,0,9,,,,,,,11,,,78,0
26974,note_on,,94,0,5,,,,,,,4,,,57,0
26974,note_on,,46,0,7,,,,,,,6,,,81,0
26974,note_on,,46,0,8,,,,,,,10,,,81,0
26974,note_on,,94,0,4,,,,,,,3,,,61,0
26974,note_on,,94,0,6,,,,,,,5,,,45,0
26974,note_on,,46,0,3,,,,,,,2,,,78,0
26974,note_on,,46,0,2,,,,,,,1,,,81,0
26976,note_on,,2,0,3,,,,,,,2,,,74,92
26976,note_on,,2,0,9,,,,,,,11,,,74,75
26976,note_on,,2,0,10,,,,,,,12,,,62,75
26976,note_on,,2,0,6,,,,,,,5,,,50,60
26976,note_on,,2,0,5,,,,,,,4,,,62,75
26976,note_on,,2,0,8,,,,,,,10,,,78,75
26976,note_on,,2,0,4,,,,,,,3,,,69,75
26976,note_on,,2,0,7,,,,,,,6,,,78,108
26976,note_on,,2,0,2,,,,,,,1,,,78,92
27070,note_on,,94,0,5,,,,,,,4,,,62,0
27070,note_on,,94,0,3,,,,,,,2,,,74,0
27070,note_on,,94,0,9,,,,,,,11,,,74,0
27070,note_on,,94,0,4,,,,,,,3,,,69,0
27070,note_on,,94,0,6,,,,,,,5,,,50,0
27070,note_on,,94,0,10,,,,,,,12,,,62,0
27072,note_on,,2,0,9,,,,,,,11,,,74,75
27072,note_on,,2,0,3,,,,,,,2,,,74,92
27072,note_on,,2,0,5,,,,,,,4,,,55,75
27072,note_on,,2,0,10,,,,,,,12,,,55,75
27072,note_on,,2,0,6,,,,,,,5,,,43,60
27072,note_on,,2,0,4,,,,,,,3,,,71,75
27118,note_on,,142,0,2,,,,,,,1,,,78,0
27118,note_on,,142,0,8,,,,,,,10,,,78,0
27118,note_on,,142,0,7,,,,,,,6,,,78,0
27120,note_on,,2,0,2,,,,,,,1,,,76,92
27120,note_on,,2,0,7,,,,,,,6,,,76,108
27120,note_on,,2,0,8,,,,,,,10,,,76,75
27166,note_on,,94,0,10,,,,,,,12,,,55,0
27166,note_on,,94,0,4,,,,,,,3,,,71,0
27166,note_on,,94,0,6,,,,,,,5,,,43,0
27166,note_on,,46,0,8,,,,,,,10,,,76,0
27166,note_on,,46,0,7,,,,,,,6,,,76,0
27166,note_on,,46,0,2,,,,,,,1,,,76,0
27166,note_on,,94,0,5,,,,,,,4,,,55,0
27168,note_on,,0,0,3,,,,,,,2,,,74,92
27168,note_on,,96,0,3,,,,,,,2,,,74,0
27168,note_on,,2,0,5,,,,,,,4,,,57,75
27168,note_on,,2,0,6,,,,,,,5,,,45,60
27168,note_on,,2,0,10,,,,,,,12,,,57,75
27168,note_on,,2,0,2,,,,,,,1,,,76,92
27168,note_on,,2,0,8,,,,,,,10,,,76,75
27168,note_on,,2,0,7,,,,,,,6,,,76,108
27168,note_on,,96,0,9,,,,,,,11,,,74,0
27168,note_on,,2,0,4,,,,,,,3,,,69,75
27168,note_on,,0,0,9,,,,,,,11,,,74,75
27262,note_on,,94,0,6,,,,,,,5,,,45,0
27262,note_on,,94,0,3,,,,,,,2,,,74,0
27262,note_on,,94,0,10,,,,,,,12,,,57,0
27262,note_on,,94,0,9,,,,,,,11,,,74,0
27262,note_on,,94,0,4,,,,,,,3,,,69,0
27262,note_on,,94,0,5,,,,,,,4,,,57,0
27264,note_on,,2,0,9,,,,,,,11,,,73,75
27264,note_on,,2,0,6,,,,,,,5,,,33,60
27264,note_on,,2,0,3,,,,,,,2,,,73,92
27264,note_on,,2,0,10,,,,,,,12,,,45,75
27264,note_on,,2,0,4,,,,,,,3,,,64,75
27264,note_on,,2,0,5,,,,,,,4,,,45,75
27310,note_on,,142,0,7,,,,,,,6,,,76,0
27310,note_on,,142,0,8,,,,,,,10,,,76,0
27310,note_on,,142,0,2,,,,,,,1,,,76,0
27312,note_on,,2,0,8,,,,,,,10,,,74,75
27312,note_on,,2,0,7,,,,,,,6,,,74,108
27312,note_on,,2,0,2,,,,,,,1,,,74,92
27358,note_on,,94,0,6,,,,,,,5,,,33,0
27358,note_on,,94,0,5,,,,,,,4,,,45,0
27358,note_on,,94,0,3,,,,,,,2,,,73,0
27358,note_on,,46,0,2,,,,,,,1,,,74,0
27358,note_on,,46,0,8,,,,,,,10,,,74,0
27358,note_on,,46,0,7,,,,,,,6,,,74,0
27358,note_on,,94,0,9,,,,,,,11,,,73,0
27358,note_on,,94,0,4,,,,,,,3,,,64,0
27358,note_on,,94,0,10,,,,,,,12,,,45,0
27360,note_on,,2,0,9,,,,,,,11,,,74,75
27360,note_on,,2,0,8,,,,,,,10,,,74,75
27360,note_on,,2,0,7,,,,,,,6,,,74,108
27360,note_on,,2,0,5,,,,,,,4,,,50,75
27360,note_on,,2,0,3,,,,,,,2,,,74,92
27360,note_on,,2,0,2,,,,,,,1,,,74,92
27360,note_on,,2,0,6,,,,,,,5,,,38,60
27360,note_on,,2,0,4,,,,,,,3,,,66,75
27360,note_on,,2,0,10,,,,,,,12,,,50,75
27454,note_on,,94,0,5,,,,,,,4,,,50,0
27454,note_on,,94,0,10,,,,,,,12,,,50,0
27454,note_on,,94,0,6,,,,,,,5,,,38,0
27456,note_on,,2,0,10,,,,,,,12,,,62,75
27456,note_on,,2,0,5,,,,,,,4,,,62,75
27456,note_on,,2,0,6,,,,,,,5,,,50,60
27520,note_on,,160,0,4,,,,,,,3,,,66,0
27520,note_on,,160,0,2,,,,,,,1,,,74,0
27520,note_on,,160,0,8,,,,,,,10,,,74,0
27520,note_on,,160,0,7,,,,,,,6,,,74,0
27520,note_on,,160,0,3,,,,,,,2,,,74,0
27520,note_on,,160,0,9,,,,,,,11,,,74,0
27550,note_on,,94,0,6,,,,,,,5,,,50,0
27550,note_on,,94,0,5,,,,,,,4,,,62,0
27550,note_on,,94,0,10,,,,,,,12,,,62,0
27552,note_on,,2,0,10,,,,,,,12,,,59,75
27552,note_on,,2,0,5,,,,,,,4,,,59,75
27552,note_on,,2,0,6,,,,,,,5,,,47,60
27646,note_on,,94,0,5,,,,,,,4,,,59,0
27646,note_on,,94,0,6,,,,,,,5,,,47,0
27646,note_on,,94,0,10,,,,,,,12,,,59,0
27648,note_on,,2,0,5,,,,,,,4,,,62,75
27648,note_on,,1664,0,1,,,,,,,0,,,62,108
27648,note_on,,2,0,6,,,,,,,5,,,50,60
27648,note_on,,2,0,10,,,,,,,12,,,62,75
27742,note_on,,94,0,10,,,,,,,12,,,62,0
27742,note_on,,94,0,1,,,,,,,0,,,62,0
27742,note_on,,94,0,6,,,,,,,5,,,50,0
27742,note_on,,94,0,5,,,,,,,4,,,62,0
27744,note_on,,2,0,6,,,,,,,5,,,44,60
27744,note_on,,2,0,10,,,,,,,12,,,56,75
27744,note_on,,2,0,5,,,,,,,4,,,56,75
27744,note_on,,2,0,1,,,,,,,0,,,62,108
27838,note_on,,94,0,10,,,,,,,12,,,56,0
27838,note_on,,94,0,5,,,,,,,4,,,56,0
27838,note_on,,94,0,6,,,,,,,5,,,44,0
27840,note_on,,2,0,10,,,,,,,12,,,52,75
27840,note_on,,2,0,5,,,,,,,4,,,52,75
27840,note_on,,2,0,6,,,,,,,5,,,40,60
27904,note_on,,160,0,1,,,,,,,0,,,62,0
27934,note_on,,94,0,5,,,,,,,4,,,52,0
27934,note_on,,94,0,6,,,,,,,5,,,40,0
27934,note_on,,94,0,10,,,,,,,12,,,52,0
27936,note_on,,2,0,6,,,,,,,5,,,45,60
27936,note_on,,2,0,10,,,,,,,12,,,57,75
27936,note_on,,32,0,1,,,,,,,0,,,60,108
27936,note_on,,2,0,5,,,,,,,4,,,57,75
28030,note_on,,94,0,10,,,,,,,12,,,57,0
28030,note_on,,94,0,5,,,,,,,4,,,57,0
28030,note_on,,94,0,6,,,,,,,5,,,45,0
28032,note_on,,2,0,10,,,,,,,12,,,45,75
28032,note_on,,2,0,5,,,,,,,4,,,45,75
28032,note_on,,2,0,6,,,,,,,5,,,33,60
28080,note_on,,0,0,1,,,,,,,0,,,59,108
28080,note_on,,144,0,1,,,,,,,0,,,60,0
28126,note_on,,94,0,10,,,,,,,12,,,45,0
28126,note_on,,46,0,1,,,,,,,0,,,59,0
28126,note_on,,94,0,5,,,,,,,4,,,45,0
28126,note_on,,94,0,6,,,,,,,5,,,33,0
28128,note_on,,2,0,5,,,,,,,4,,,52,75
28128,note_on,,2,0,6,,,,,,,5,,,40,60
28128,note_on,,2,0,10,,,,,,,12,,,52,75
28128,note_on,,2,0,1,,,,,,,0,,,59,108
28222,note_on,,94,0,10,,,,,,,12,,,52,0
28222,note_on,,94,0,5,,,,,,,4,,,52,0
28222,note_on,,94,0,6,,,,,,,5,,,40,0
28224,note_on,,2,0,10,,,,,,,12,,,52,75
28224,note_on,,2,0,5,,,,,,,4,,,52,75
28224,note_on,,2,0,6,,,,,,,5,,,40,60
28270,note_on,,46,0,5,,,,,,,4,,,52,0
28270,note_on,,46,0,10,,,,,,,12,,,52,0
28270,note_on,,46,0,6,,,,,,,5,,,40,0
28272,note_on,,2,0,10,,,,,,,12,,,54,75
28272,note_on,,2,0,6,,,,,,,5,,,42,60
28272,note_on,,2,0,5,,,,,,,4,,,54,75
28288,note_on,,160,0,1,,,,,,,0,,,59,0
28318,note_on,,46,0,6,,,,,,,5,,,42,0
28318,note_on,,46,0,10,,,,,,,12,,,54,0
28318,note_on,,46,0,5,,,,,,,4,,,54,0
28320,note_on,,2,0,6,,,,,,,5,,,44,60
28320,note_on,,2,0,5,,,,,,,4,,,56,75
28320,note_on,,2,0,10,,,,,,,12,,,56,75
28414,note_on,,94,0,10,,,,,,,12,,,56,0
28414,note_on,,94,0,5,,,,,,,4,,,56,0
28414,note_on,,94,0,6,,,,,,,5,,,44,0
28416,note_on,,2,0,10,,,,,,,12,,,52,75
28416,note_on,,2,0,6,,,,,,,5,,,40,60
28416,note_on,,128,0,1,,,,,,,0,,,59,108
28416,note_on,,2,0,5,,,,,,,4,,,52,75
28510,note_on,,94,0,1,,,,,,,0,,,59,0
28510,note_on,,94,0,5,,,,,,,4,,,52,0
28510,note_on,,94,0,10,,,,,,,12,,,52,0
28510,note_on,,94,0,6,,,,,,,5,,,40,0
28512,note_on,,2,0,5,,,,,,,4,,,45,75
28512,note_on,,2,0,1,,,,,,,0,,,60,108
28512,note_on,,2,0,10,,,,,,,12,,,45,75
28512,note_on,,2,0,6,,,,,,,5,,,33,60
28606,note_on,,94,0,10,,,,,,,12,,,45,0
28606,note_on,,94,0,6,,,,,,,5,,,33,0
28606,note_on,,94,0,5,,,,,,,4,,,45,0
28606,note_on,,94,0,1,,,,,,,0,,,60,0
28608,note_on,,2,0,5,,,,,,,4,,,57,75
28608,note_on,,2,0,6,,,,,,,5,,,45,60
28608,note_on,,2,0,10,,,,,,,12,,,57,75
28608,note_on,,2,0,1,,,,,,,0,,,62,108
28656,note_on,,48,0,1,,,,,,,0,,,62,0
28656,note_on,,0,0,1,,,,,,,0,,,60,108
28702,note_on,,46,0,1,,,,,,,0,,,60,0
28702,note_on,,94,0,6,,,,,,,5,,,45,0
28702,note_on,,94,0,5,,,,,,,4,,,57,0
28702,note_on,,94,0,10,,,,,,,12,,,57,0
28704,note_on,,2,0,1,,,,,,,0,,,59,108
28704,note_on,,2,0,6,,,,,,,5,,,43,60
28704,note_on,,2,0,5,,,,,,,4,,,55,75
28704,note_on,,2,0,10,,,,,,,12,,,55,75
28798,note_on,,94,0,6,,,,,,,5,,,43,0
28798,note_on,,94,0,5,,,,,,,4,,,55,0
28798,note_on,,94,0,1,,,,,,,0,,,59,0
28798,note_on,,94,0,10,,,,,,,12,,,55,0
28800,note_on,,2,0,10,,,,,,,12,,,53,75
28800,note_on,,2,0,5,,,,,,,4,,,53,75
28800,note_on,,2,0,1,,,,,,,0,,,57,108
28800,note_on,,2,0,6,,,,,,,5,,,41,60
28894,note_on,,94,0,10,,,,,,,12,,,53,0
28894,note_on,,94,0,5,,,,,,,4,,,53,0
28894,note_on,,94,0,1,,,,,,,0,,,57,0
28894,note_on,,94,0,6,,,,,,,5,,,41,0
28896,note_on,,2,0,5,,,,,,,4,,,52,75
28896,note_on,,2,0,1,,,,,,,0,,,64,108
28896,note_on,,2,0,10,,,,,,,12,,,52,75
28896,note_on,,2,0,6,,,,,,,5,,,40,60
28990,note_on,,94,0,5,,,,,,,4,,,52,0
28990,note_on,,94,0,10,,,,,,,12,,,52,0
28990,note_on,,94,0,6,,,,,,,5,,,40,0
28992,note_on,,2,0,6,,,,,,,5,,,40,60
28992,note_on,,2,0,10,,,,,,,12,,,52,75
28992,note_on,,2,0,5,,,,,,,4,,,52,75
29056,note_on,,160,0,1,,,,,,,0,,,64,0
29086,note_on,,94,0,5,,,,,,,4,,,52,0
29086,note_on,,94,0,10,,,,,,,12,,,52,0
29086,note_on,,94,0,6,,,,,,,5,,,40,0
29088,note_on,,2,0,5,,,,,,,4,,,56,75
29088,note_on,,2,0,10,,,,,,,12,,,56,75
29088,note_on,,2,0,6,,,,,,,5,,,44,60
29182,note_on,,94,0,5,,,,,,,4,,,56,0
29182,note_on,,94,0,10,,,,,,,12,,,56,0
29182,note_on,,94,0,6,,,,,,,5,,,44,0
29184,note_on,,2,0,5,,,,,,,4,,,52,75
29184,note_on,,2,0,10,,,,,,,12,,,52,75
29184,note_on,,2,0,6,,,,,,,5,,,40,60
29184,note_on,,1664,0,2,,,,,,,1,,,76,92
29184,note_on,,1664,0,7,,,,,,,6,,,76,108
29184,note_on,,1664,0,8,,,,,,,10,,,76,75
29184,note_on,,1664,0,9,,,,,,,11,,,68,75
29184,note_on,,1664,0,3,,,,,,,2,,,68,92
29184,note_on,,1664,0,4,,,,,,,3,,,71,75
29278,note_on,,94,0,9,,,,,,,11,,,68,0
29278,note_on,,94,0,5,,,,,,,4,,,52,0
29278,note_on,,94,0,4,,,,,,,3,,,71,0
29278,note_on,,94,0,7,,,,,,,6,,,76,0
29278,note_on,,94,0,2,,,,,,,1,,,76,0
29278,note_on,,94,0,10,,,,,,,12,,,52,0
29278,note_on,,94,0,6,,,,,,,5,,,40,0
29278,note_on,,94,0,8,,,,,,,10,,,76,0
29278,note_on,,94,0,3,,,,,,,2,,,68,0
29280,note_on,,2,0,5,,,,,,,4,,,48,75
29280,note_on,,2,0,6,,,,,,,5,,,36,60
29280,note_on,,2,0,9,,,,,,,11,,,76,75
29280,note_on,,2,0,2,,,,,,,1,,,81,92
29280,note_on,,2,0,7,,,,,,,6,,,81,108
29280,note_on,,2,0,8,,,,,,,10,,,81,75
29280,note_on,,2,0,3,,,,,,,2,,,76,92
29280,note_on,,2,0,4,,,,,,,3,,,72,75
29280,note_on,,2,0,10,,,,,,,12,,,48,75
29374,note_on,,94,0,9,,,,,,,11,,,76,0
29374,note_on,,94,0,8,,,,,,,10,,,81,0
29374,note_on,,94,0,5,,,,,,,4,,,48,0
29374,note_on,,94,0,7,,,,,,,6,,,81,0
29374,note_on,,94,0,2,,,,,,,1,,,81,0
29374,note_on,,94,0,3,,,,,,,2,,,76,0
29374,note_on,,94,0,4,,,,,,,3,,,72,0
29374,note_on,,94,0,6,,,,,,,5,,,36,0
29374,note_on,,94,0,10,,,,,,,12,,,48,0
29376,note_on,,2,0,9,,,,,,,11,,,69,75
29376,note_on,,2,0,7,,,,,,,6,,,76,108
29376,note_on,,2,0,8,,,,,,,10,,,76,75
29376,note_on,,2,0,3,,,,,,,2,,,69,92
29376,note_on,,2,0,6,,,,,,,5,,,48,60
29376,note_on,,2,0,2,,,,,,,1,,,76,92
29376,note_on,,2,0,10,,,,,,,12,,,60,75
29376,note_on,,2,0,4,,,,,,,3,,,72,75
29376,note_on,,2,0,5,,,,,,,4,,,60,75
29470,note_on,,94,0,5,,,,,,,4,,,60,0
29470,note_on,,94,0,2,,,,,,,1,,,76,0
29470,note_on,,94,0,3,,,,,,,2,,,69,0
29470,note_on,,94,0,10,,,,,,,12,,,60,0
29470,note_on,,94,0,6,,,,,,,5,,,48,0
29470,note_on,,94,0,8,,,,,,,10,,,76,0
29470,note_on,,94,0,7,,,,,,,6,,,76,0
29470,note_on,,94,0,9,,,,,,,11,,,69,0
29470,note_on,,94,0,4,,,,,,,3,,,72,0
29472,note_on,,2,0,9,,,,,,,11,,,74,75
29472,note_on,,2,0,8,,,,,,,10,,,76,75
29472,note_on,,2,0,3,,,,,,,2,,,74,92
29472,note_on,,2,0,2,,,,,,,1,,,76,92
29472,note_on,,2,0,4,,,,,,,3,,,68,75
29472,note_on,,2,0,10,,,,,,,12,,,59,75
29472,note_on,,2,0,6,,,,,,,5,,,47,60
29472,note_on,,2,0,5,,,,,,,4,,,59,75
29472,note_on,,2,0,7,,,,,,,6,,,76,108
29566,note_on,,94,0,3,,,,,,,2,,,74,0
29566,note_on,,94,0,5,,,,,,,4,,,59,0
29566,note_on,,94,0,4,,,,,,,3,,,68,0
29566,note_on,,94,0,8,,,,,,,10,,,76,0
29566,note_on,,94,0,9,,,,,,,11,,,74,0
29566,note_on,,94,0,7,,,,,,,6,,,76,0
29566,note_on,,94,0,2,,,,,,,1,,,76,0
29566,note_on,,94,0,6,,,,,,,5,,,47,0
29566,note_on,,94,0,10,,,,,,,12,,,59,0
29568,note_on,,2,0,4,,,,,,,3,,,69,75
29568,note_on,,2,0,7,,,,,,,6,,,76,108
29568,note_on,,2,0,3,,,,,,,2,,,72,92
29568,note_on,,2,0,10,,,,,,,12,,,57,75
29568,note_on,,2,0,9,,,,,,,11,,,72,75
29568,note_on,,2,0,5,,,,,,,4,,,57,75
29568,note_on,,2,0,6,,,,,,,5,,,45,60
29568,note_on,,2,0,2,,,,,,,1,,,76,92
29568,note_on,,2,0,8,,,,,,,10,,,76,75
29662,note_on,,94,0,6,,,,,,,5,,,45,0
29662,note_on,,94,0,9,,,,,,,11,,,72,0
29662,note_on,,94,0,3,,,,,,,2,,,72,0
29662,note_on,,94,0,10,,,,,,,12,,,57,0
29662,note_on,,94,0,7,,,,,,,6,,,76,0
29662,note_on,,94,0,2,,,,,,,1,,,76,0
29662,note_on,,94,0,4,,,,,,,3,,,69,0
29662,note_on,,94,0,8,,,,,,,10,,,76,0
29662,note_on,,94,0,5,,,,,,,4,,,57,0
29664,note_on,,2,0,10,,,,,,,12,,,56,75
29664,note_on,,2,0,8,,,,,,,10,,,76,75
29664,note_on,,2,0,9,,,,,,,11,,,71,75
29664,note_on,,2,0,2,,,,,,,1,,,76,92
29664,note_on,,2,0,4,,,,,,,3,,,64,75
29664,note_on,,2,0,6,,,,,,,5,,,44,60
29664,note_on,,2,0,7,,,,,,,6,,,76,108
29664,note_on,,2,0,3,,,,,,,2,,,71,92
29664,note_on,,2,0,5,,,,,,,4,,,56,75
29758,note_on,,94,0,4,,,,,,,3,,,64,0
29758,note_on,,94,0,5,,,,,,,4,,,56,0
29758,note_on,,94,0,10,,,,,,,12,,,56,0
29758,note_on,,94,0,6,,,,,,,5,,,44,0
29760,note_on,,2,0,6,,,,,,,5,,,40,60
29760,note_on,,2,0,10,,,,,,,12,,,52,75
29760,note_on,,2,0,4,,,,,,,3,,,68,75
29760,note_on,,2,0,5,,,,,,,4,,,52,75
29854,note_on,,94,0,6,,,,,,,5,,,40,0
29854,note_on,,94,0,10,,,,,,,12,,,52,0
29854,note_on,,94,0,4,,,,,,,3,,,68,0
29854,note_on,,94,0,5,,,,,,,4,,,52,0
29856,note_on,,2,0,6,,,,,,,5,,,40,60
29856,note_on,,2,0,4,,,,,,,3,,,68,75
29856,note_on,,2,0,10,,,,,,,12,,,52,75
29856,note_on,,2,0,5,,,,,,,4,,,52,75
29920,note_on,,256,0,7,,,,,,,6,,,76,0
29920,note_on,,256,0,8,,,,,,,10,,,76,0
29920,note_on,,256,0,2,,,,,,,1,,,76,0
29920,note_on,,256,0,9,,,,,,,11,,,71,0
29920,note_on,,256,0,3,,,,,,,2,,,71,0
29950,note_on,,94,0,4,,,,,,,3,,,68,0
29950,note_on,,94,0,10,,,,,,,12,,,52,0
29950,note_on,,94,0,6,,,,,,,5,,,40,0
29950,note_on,,94,0,5,,,,,,,4,,,52,0
29952,note_on,,32,0,7,,,,,,,6,,,76,108
29952,note_on,,32,0,8,,,,,,,10,,,76,75
29952,note_on,,2,0,4,,,,,,,3,,,71,75
29952,note_on,,32,0,3,,,,,,,2,,,74,92
29952,note_on,,2,0,5,,,,,,,4,,,56,75
29952,note_on,,2,0,6,,,,,,,5,,,44,60
29952,note_on,,32,0,9,,,,,,,11,,,74,75
29952,note_on,,32,0,2,,,,,,,1,,,76,92
29952,note_on,,2,0,10,,,,,,,12,,,56,75
30046,note_on,,94,0,6,,,,,,,5,,,44,0
30046,note_on,,94,0,3,,,,,,,2,,,74,0
30046,note_on,,94,0,4,,,,,,,3,,,71,0
30046,note_on,,94,0,9,,,,,,,11,,,74,0
30046,note_on,,94,0,7,,,,,,,6,,,76,0
30046,note_on,,94,0,5,,,,,,,4,,,56,0
30046,note_on,,94,0,8,,,,,,,10,,,76,0
30046,note_on,,94,0,2,,,,,,,1,,,76,0
30046,note_on,,94,0,10,,,,,,,12,,,56,0
30048,note_on,,2,0,7,,,,,,,6,,,76,108
30048,note_on,,2,0,10,,,,,,,12,,,57,75
30048,note_on,,2,0,5,,,,,,,4,,,57,75
30048,note_on,,2,0,4,,,,,,,3,,,69,75
30048,note_on,,2,0,8,,,,,,,10,,,76,75
30048,note_on,,2,0,2,,,,,,,1,,,76,92
30048,note_on,,2,0,6,,,,,,,5,,,45,60
30048,note_on,,2,0,9,,,,,,,11,,,72,75
30048,note_on,,2,0,3,,,,,,,2,,,72,92
30142,note_on,,94,0,5,,,,,,,4,,,57,0
30142,note_on,,94,0,2,,,,,,,1,,,76,0
30142,note_on,,94,0,3,,,,,,,2,,,72,0
30142,note_on,,94,0,9,,,,,,,11,,,72,0
30142,note_on,,94,0,7,,,,,,,6,,,76,0
30142,note_on,,94,0,6,,,,,,,5,,,45,0
30142,note_on,,94,0,8,,,,,,,10,,,76,0
30142,note_on,,94,0,4,,,,,,,3,,,69,0
30142,note_on,,94,0,10,,,,,,,12,,,57,0
30144,note_on,,2,0,7,,,,,,,6,,,72,108
30144,note_on,,2,0,8,,,,,,,10,,,72,75
30144,note_on,,2,0,2,,,,,,,1,,,72,92
30144,note_on,,2,0,9,,,,,,,11,,,69,75
30144,note_on,,2,0,10,,,,,,,12,,,45,75
30144,note_on,,2,0,3,,,,,,,2,,,69,92
30144,note_on,,2,0,5,,,,,,,4,,,45,75
30144,note_on,,2,0,6,,,,,,,5,,,33,60
30144,note_on,,2,0,4,,,,,,,3,,,64,75
30238,note_on,,94,0,3,,,,,,,2,,,69,0
30238,note_on,,94,0,2,,,,,,,1,,,72,0
30238,note_on,,94,0,5,,,,,,,4,,,45,0
30238,note_on,,94,0,9,,,,,,,11,,,69,0
30238,note_on,,94,0,6,,,,,,,5,,,33,0
30238,note_on,,94,0,7,,,,,,,6,,,72,0
30238,note_on,,94,0,8,,,,,,,10,,,72,0
30238,note_on,,94,0,4,,,,,,,3,,,64,0
30238,note_on,,94,0,10,,,,,,,12,,,45,0
30240,note_on,,2,0,9,,,,,,,11,,,69,75
30240,note_on,,2,0,6,,,,,,,5,,,45,60
30240,note_on,,2,0,4,,,,,,,3,,,64,75
30240,note_on,,2,0,5,,,,,,,4,,,57,75
30240,note_on,,2,0,7,,,,,,,6,,,72,108
30240,note_on,,2,0,10,,,,,,,12,,,57,75
30240,note_on,,2,0,2,,,,,,,1,,,72,92
30240,note_on,,2,0,8,,,,,,,10,,,72,75
30240,note_on,,2,0,3,,,,,,,2,,,69,92
30334,note_on,,94,0,5,,,,,,,4,,,57,0
30334,note_on,,94,0,7,,,,,,,6,,,72,0
30334,note_on,,94,0,10,,,,,,,12,,,57,0
30334,note_on,,94,0,9,,,,,,,11,,,69,0
30334,note_on,,94,0,8,,,,,,,10,,,72,0
30334,note_on,,94,0,6,,,,,,,5,,,45,0
30334,note_on,,94,0,3,,,,,,,2,,,69,0
30334,note_on,,94,0,2,,,,,,,1,,,72,0
30334,note_on,,94,0,4,,,,,,,3,,,64,0
30336,note_on,,2,0,3,,,,,,,2,,,64,92
30336,note_on,,2,0,4,,,,,,,3,,,60,75
30336,note_on,,2,0,7,,,,,,,6,,,69,108
30336,note_on,,2,0,5,,,,,,,4,,,60,75
30336,note_on,,2,0,9,,,,,,,11,,,64,75
30336,note_on,,2,0,6,,,,,,,5,,,48,60
30336,note_on,,2,0,10,,,,,,,12,,,60,75
30336,note_on,,2,0,8,,,,,,,10,,,69,75
30336,note_on,,2,0,2,,,,,,,1,,,69,92
30430,note_on,,94,0,8,,,,,,,10,,,69,0
30430,note_on,,94,0,2,,,,,,,1,,,69,0
30430,note_on,,94,0,4,,,,,,,3,,,60,0
30430,note_on,,94,0,7,,,,,,,6,,,69,0
30430,note_on,,94,0,5,,,,,,,4,,,60,0
30430,note_on,,94,0,6,,,,,,,5,,,48,0
30430,note_on,,94,0,10,,,,,,,12,,,60,0
30430,note_on,,94,0,3,,,,,,,2,,,64,0
30430,note_on,,94,0,9,,,,,,,11,,,64,0
30432,note_on,,2,0,3,,,,,,,2,,,71,92
30432,note_on,,2,0,5,,,,,,,4,,,56,75
30432,note_on,,2,0,9,,,,,,,11,,,71,75
30432,note_on,,2,0,2,,,,,,,1,,,76,92
30432,note_on,,2,0,7,,,,,,,6,,,76,108
30432,note_on,,2,0,8,,,,,,,10,,,76,75
30432,note_on,,2,0,4,,,,,,,3,,,59,75
30432,note_on,,2,0,6,,,,,,,5,,,44,60
30432,note_on,,2,0,10,,,,,,,12,,,56,75
30526,note_on,,94,0,6,,,,,,,5,,,44,0
30526,note_on,,94,0,5,,,,,,,4,,,56,0
30526,note_on,,94,0,10,,,,,,,12,,,56,0
30528,note_on,,2,0,6,,,,,,,5,,,52,60
30528,note_on,,2,0,5,,,,,,,4,,,64,75
30528,note_on,,2,0,10,,,,,,,12,,,64,75
30592,note_on,,160,0,3,,,,,,,2,,,71,0
30592,note_on,,160,0,8,,,,,,,10,,,76,0
30592,note_on,,160,0,4,,,,,,,3,,,59,0
30592,note_on,,160,0,2,,,,,,,1,,,76,0
30592,note_on,,160,0,9,,,,,,,11,,,71,0
30622,note_on,,94,0,10,,,,,,,12,,,64,0
30622,note_on,,94,0,6,,,,,,,5,,,52,0
30622,note_on,,94,0,5,,,,,,,4,,,64,0
30624,note_on,,2,0,10,,,,,,,12,,,60,75
30624,note_on,,2,0,5,,,,,,,4,,,60,75
30624,note_on,,2,0,6,,,,,,,5,,,48,60
30688,note_on,,256,0,7,,,,,,,6,,,76,0
30718,note_on,,94,0,5,,,,,,,4,,,60,0
30718,note_on,,94,0,6,,,,,,,5,,,48,0
30718,note_on,,94,0,10,,,,,,,12,,,60,0
30720,note_on,,2,0,6,,,,,,,5,,,45,60
30720,note_on,,32,0,7,,,,,,,6,,,72,108
30720,note_on,,2,0,10,,,,,,,12,,,57,75
30720,note_on,,1664,0,1,,,,,,,0,,,64,108
30720,note_on,,2,0,5,,,,,,,4,,,57,75
30814,note_on,,94,0,5,,,,,,,4,,,57,0
30814,note_on,,94,0,7,,,,,,,6,,,72,0
30814,note_on,,94,0,6,,,,,,,5,,,45,0
30814,note_on,,94,0,1,,,,,,,0,,,64,0
30814,note_on,,94,0,10,,,,,,,12,,,57,0
30816,note_on,,2,0,6,,,,,,,5,,,40,60
30816,note_on,,2,0,7,,,,,,,6,,,72,108
30816,note_on,,2,0,10,,,,,,,12,,,52,75
30816,note_on,,2,0,1,,,,,,,0,,,67,108
30816,note_on,,2,0,5,,,,,,,4,,,52,75
30958,note_on,,142,0,7,,,,,,,6,,,72,0
30958,note_on,,142,0,1,,,,,,,0,,,67,0
30960,note_on,,2,0,7,,,,,,,6,,,72,108
30960,note_on,,2,0,1,,,,,,,0,,,64,108
30976,note_on,,160,0,10,,,,,,,12,,,52,0
30976,note_on,,160,0,5,,,,,,,4,,,52,0
30976,note_on,,160,0,6,,,,,,,5,,,40,0
31006,note_on,,46,0,1,,,,,,,0,,,64,0
31006,note_on,,46,0,7,,,,,,,6,,,72,0
31008,note_on,,2,0,1,,,,,,,0,,,64,108
31008,note_on,,2,0,7,,,,,,,6,,,72,108
31102,note_on,,94,0,1,,,,,,,0,,,64,0
31102,note_on,,94,0,7,,,,,,,6,,,72,0
31104,note_on,,128,0,5,,,,,,,4,,,53,75
31104,note_on,,2,0,1,,,,,,,0,,,60,108
31104,note_on,,2,0,7,,,,,,,6,,,72,108
31104,note_on,,128,0,10,,,,,,,12,,,53,75
31104,note_on,,128,0,6,,,,,,,5,,,41,60
31198,note_on,,94,0,7,,,,,,,6,,,72,0
31198,note_on,,94,0,5,,,,,,,4,,,53,0
31198,note_on,,94,0,6,,,,,,,5,,,41,0
31198,note_on,,94,0,10,,,,,,,12,,,53,0
31198,note_on,,94,0,1,,,,,,,0,,,60,0
31200,note_on,,2,0,5,,,,,,,4,,,52,75
31200,note_on,,2,0,1,,,,,,,0,,,60,108
31200,note_on,,2,0,10,,,,,,,12,,,52,75
31200,note_on,,2,0,7,,,,,,,6,,,72,108
31200,note_on,,2,0,6,,,,,,,5,,,40,60
31294,note_on,,94,0,1,,,,,,,0,,,60,0
31296,note_on,,2,0,1,,,,,,,0,,,55,108
31360,note_on,,160,0,7,,,,,,,6,,,72,0
31360,note_on,,160,0,5,,,,,,,4,,,52,0
31360,note_on,,160,0,10,,,,,,,12,,,52,0
31360,note_on,,160,0,6,,,,,,,5,,,40,0
31390,note_on,,94,0,1,,,,,,,0,,,55,0
31392,note_on,,2,0,1,,,,,,,0,,,60,108
31488,note_on,,128,0,5,,,,,,,4,,,57,75
31488,note_on,,128,0,7,,,,,,,6,,,76,108
31488,note_on,,128,0,10,,,,,,,12,,,57,75
31488,note_on,,128,0,6,,,,,,,5,,,45,60
31582,note_on,,94,0,7,,,,,,,6,,,76,0
31582,note_on,,94,0,10,,,,,,,12,,,57,0
31582,note_on,,94,0,5,,,,,,,4,,,57,0
31582,note_on,,94,0,6,,,,,,,5,,,45,0
31584,note_on,,2,0,5,,,,,,,4,,,50,75
31584,note_on,,2,0,10,,,,,,,12,,,50,75
31584,note_on,,2,0,6,,,,,,,5,,,38,60
31584,note_on,,2,0,7,,,,,,,6,,,78,108
31630,note_on,,46,0,7,,,,,,,6,,,78,0
31632,note_on,,2,0,7,,,,,,,6,,,76,108
31678,note_on,,46,0,7,,,,,,,6,,,76,0
31678,note_on,,286,0,1,,,,,,,0,,,60,0
31680,note_on,,2,0,7,,,,,,,6,,,74,108
31680,note_on,,2,0,1,,,,,,,0,,,59,108
31726,note_on,,46,0,7,,,,,,,6,,,74,0
31728,note_on,,2,0,7,,,,,,,6,,,76,108
31744,note_on,,160,0,6,,,,,,,5,,,38,0
31744,note_on,,160,0,5,,,,,,,4,,,50,0
31744,note_on,,160,0,10,,,,,,,12,,,50,0
31774,note_on,,94,0,1,,,,,,,0,,,59,0
31774,note_on,,46,0,7,,,,,,,6,,,76,0
31776,note_on,,2,0,7,,,,,,,6,,,78,108
31776,note_on,,2,0,1,,,,,,,0,,,57,108
31870,note_on,,94,0,1,,,,,,,0,,,57,0
31872,note_on,,128,0,5,,,,,,,4,,,50,75
31872,note_on,,2,0,1,,,,,,,0,,,62,108
31872,note_on,,128,0,6,,,,,,,5,,,38,60
31872,note_on,,128,0,10,,,,,,,12,,,50,75
31918,note_on,,142,0,7,,,,,,,6,,,78,0
31920,note_on,,2,0,7,,,,,,,6,,,79,108
31966,note_on,,94,0,5,,,,,,,4,,,50,0
31966,note_on,,94,0,6,,,,,,,5,,,38,0
31966,note_on,,46,0,7,,,,,,,6,,,79,0
31966,note_on,,94,0,10,,,,,,,12,,,50,0
31966,note_on,,94,0,1,,,,,,,0,,,62,0
31968,note_on,,2,0,10,,,,,,,12,,,55,75
31968,note_on,,2,0,1,,,,,,,0,,,59,108
31968,note_on,,2,0,5,,,,,,,4,,,55,75
31968,note_on,,2,0,7,,,,,,,6,,,79,108
31968,note_on,,2,0,6,,,,,,,5,,,43,60
32062,note_on,,94,0,10,,,,,,,12,,,55,0
32062,note_on,,94,0,5,,,,,,,4,,,55,0
32062,note_on,,94,0,6,,,,,,,5,,,43,0
32064,note_on,,2,0,6,,,,,,,5,,,41,60
32064,note_on,,2,0,5,,,,,,,4,,,53,75
32064,note_on,,2,0,10,,,,,,,12,,,53,75
32128,note_on,,160,0,1,,,,,,,0,,,59,0
32158,note_on,,94,0,10,,,,,,,12,,,53,0
32158,note_on,,94,0,6,,,,,,,5,,,41,0
32158,note_on,,94,0,5,,,,,,,4,,,53,0
32160,note_on,,2,0,10,,,,,,,12,,,52,75
32160,note_on,,2,0,5,,,,,,,4,,,52,75
32160,note_on,,2,0,6,,,,,,,5,,,40,60
32224,note_on,,256,0,7,,,,,,,6,,,79,0
32254,note_on,,94,0,10,,,,,,,12,,,52,0
32254,note_on,,94,0,5,,,,,,,4,,,52,0
32254,note_on,,94,0,6,,,,,,,5,,,40,0
32256,note_on,,2,0,10,,,,,,,12,,,55,75
32256,note_on,,32,0,7,,,,,,,6,,,76,108
32256,note_on,,2,0,6,,,,,,,5,,,43,60
32256,note_on,,2,0,5,,,,,,,4,,,55,75
32256,note_on,,128,0,1,,,,,,,0,,,59,108
32350,note_on,,94,0,7,,,,,,,6,,,76,0
32350,note_on,,94,0,10,,,,,,,12,,,55,0
32350,note_on,,94,0,5,,,,,,,4,,,55,0
32350,note_on,,94,0,6,,,,,,,5,,,43,0
32350,note_on,,94,0,1,,,,,,,0,,,59,0
32352,note_on,,2,0,6,,,,,,,5,,,45,60
32352,note_on,,2,0,7,,,,,,,6,,,69,108
32352,note_on,,2,0,10,,,,,,,12,,,57,75
32352,note_on,,2,0,1,,,,,,,0,,,61,108
32352,note_on,,2,0,5,,,,,,,4,,,57,75
32446,note_on,,94,0,10,,,,,,,12,,,57,0
32446,note_on,,94,0,5,,,,,,,4,,,57,0
32446,note_on,,94,0,6,,,,,,,5,,,45,0
32448,note_on,,0,0,1,,,,,,,0,,,62,108
32448,note_on,,96,0,1,,,,,,,0,,,61,0
32448,note_on,,2,0,6,,,,,,,5,,,41,60
32448,note_on,,2,0,10,,,,,,,12,,,53,75
32448,note_on,,2,0,5,,,,,,,4,,,53,75
32494,note_on,,46,0,10,,,,,,,12,,,53,0
32494,note_on,,46,0,6,,,,,,,5,,,41,0
32494,note_on,,46,0,5,,,,,,,4,,,53,0
32496,note_on,,48,0,1,,,,,,,0,,,62,0
32496,note_on,,2,0,6,,,,,,,5,,,43,60
32496,note_on,,0,0,1,,,,,,,0,,,64,108
32496,note_on,,2,0,10,,,,,,,12,,,55,75
32496,note_on,,2,0,5,,,,,,,4,,,55,75
32512,note_on,,160,0,7,,,,,,,6,,,69,0
32542,note_on,,46,0,5,,,,,,,4,,,55,0
32542,note_on,,46,0,6,,,,,,,5,,,43,0
32542,note_on,,46,0,10,,,,,,,12,,,55,0
32544,note_on,,0,0,1,,,,,,,0,,,65,108
32544,note_on,,2,0,10,,,,,,,12,,,57,75
32544,note_on,,2,0,6,,,,,,,5,,,45,60
32544,note_on,,2,0,5,,,,,,,4,,,57,75
32544,note_on,,48,0,1,,,,,,,0,,,64,0
32638,note_on,,94,0,1,,,,,,,0,,,65,0
32638,note_on,,94,0,6,,,,,,,5,,,45,0
32638,note_on,,94,0,5,,,,,,,4,,,57,0
32638,note_on,,94,0,10,,,,,,,12,,,57,0
32640,note_on,,2,0,1,,,,,,,0,,,64,108
32640,note_on,,2,0,5,,,,,,,4,,,45,75
32640,note_on,,2,0,10,,,,,,,12,,,45,75
32640,note_on,,2,0,6,,,,,,,5,,,33,60
32734,note_on,,94,0,1,,,,,,,0,,,64,0
32734,note_on,,94,0,6,,,,,,,5,,,33,0
32734,note_on,,94,0,10,,,,,,,12,,,45,0
32734,note_on,,94,0,5,,,,,,,4,,,45,0
32736,note_on,,2,0,6,,,,,,,5,,,38,60
32736,note_on,,2,0,10,,,,,,,12,,,50,75
32736,note_on,,2,0,1,,,,,,,0,,,62,108
32736,note_on,,2,0,5,,,,,,,4,,,50,75
32830,note_on,,94,0,5,,,,,,,4,,,50,0
32830,note_on,,94,0,6,,,,,,,5,,,38,0
32830,note_on,,94,0,10,,,,,,,12,,,50,0
32832,note_on,,2,0,5,,,,,,,4,,,48,75
32832,note_on,,2,0,10,,,,,,,12,,,48,75
32832,note_on,,2,0,6,,,,,,,5,,,36,60
32896,note_on,,160,0,1,,,,,,,0,,,62,0
32926,note_on,,94,0,10,,,,,,,12,,,48,0
32926,note_on,,94,0,5,,,,,,,4,,,48,0
32926,note_on,,94,0,6,,,,,,,5,,,36,0
32928,note_on,,2,0,6,,,,,,,5,,,35,60
32928,note_on,,2,0,10,,,,,,,12,,,47,75
32928,note_on,,2,0,5,,,,,,,4,,,47,75
33022,note_on,,94,0,5,,,,,,,4,,,47,0
33022,note_on,,94,0,10,,,,,,,12,,,47,0
33022,note_on,,94,0,6,,,,,,,5,,,35,0
33024,note_on,,2,0,6,,,,,,,5,,,33,60
33024,note_on,,128,0,1,,,,,,,0,,,65,108
33024,note_on,,2,0,10,,,,,,,12,,,45,75
33024,note_on,,2,0,5,,,,,,,4,,,45,75
33118,note_on,,94,0,6,,,,,,,5,,,33,0
33118,note_on,,94,0,10,,,,,,,12,,,45,0
33118,note_on,,94,0,5,,,,,,,4,,,45,0
33118,note_on,,94,0,1,,,,,,,0,,,65,0
33120,note_on,,2,0,6,,,,,,,5,,,44,60
33120,note_on,,2,0,1,,,,,,,0,,,64,108
33120,note_on,,2,0,10,,,,,,,12,,,56,75
33120,note_on,,2,0,5,,,,,,,4,,,56,75
33214,note_on,,94,0,1,,,,,,,0,,,64,0
33214,note_on,,94,0,5,,,,,,,4,,,56,0
33214,note_on,,94,0,10,,,,,,,12,,,56,0
33214,note_on,,94,0,6,,,,,,,5,,,44,0
33216,note_on,,2,0,6,,,,,,,5,,,45,60
33216,note_on,,2,0,1,,,,,,,0,,,62,108
33216,note_on,,2,0,10,,,,,,,12,,,57,75
33216,note_on,,2,0,5,,,,,,,4,,,57,75
33264,note_on,,48,0,1,,,,,,,0,,,62,0
33264,note_on,,0,0,1,,,,,,,0,,,60,108
33310,note_on,,94,0,6,,,,,,,5,,,45,0
33310,note_on,,94,0,5,,,,,,,4,,,57,0
33310,note_on,,94,0,10,,,,,,,12,,,57,0
33310,note_on,,46,0,1,,,,,,,0,,,60,0
33312,note_on,,2,0,5,,,,,,,4,,,52,75
33312,note_on,,2,0,1,,,,,,,0,,,60,108
33312,note_on,,2,0,6,,,,,,,5,,,40,60
33312,note_on,,2,0,10,,,,,,,12,,,52,75
33406,note_on,,94,0,1,,,,,,,0,,,60,0
33406,note_on,,94,0,10,,,,,,,12,,,52,0
33406,note_on,,94,0,6,,,,,,,5,,,40,0
33406,note_on,,94,0,5,,,,,,,4,,,52,0
33408,note_on,,2,0,1,,,,,,,0,,,59,108
33408,note_on,,2,0,10,,,,,,,12,,,40,75
33408,note_on,,2,0,6,,,,,,,5,,,28,60
33408,note_on,,2,0,5,,,,,,,4,,,40,75
33456,note_on,,0,0,1,,,,,,,0,,,57,108
33456,note_on,,48,0,1,,,,,,,0,,,59,0
33502,note_on,,94,0,10,,,,,,,12,,,40,0
33502,note_on,,46,0,1,,,,,,,0,,,57,0
33502,note_on,,94,0,5,,,,,,,4,,,40,0
33502,note_on,,94,0,6,,,,,,,5,,,28,0
33504,note_on,,2,0,1,,,,,,,0,,,57,108
33504,note_on,,2,0,5,,,,,,,4,,,45,75
33504,note_on,,2,0,6,,,,,,,5,,,33,60
33504,note_on,,2,0,10,,,,,,,12,,,45,75
33598,note_on,,94,0,6,,,,,,,5,,,33,0
33598,note_on,,94,0,10,,,,,,,12,,,45,0
33598,note_on,,94,0,5,,,,,,,4,,,45,0
33600,note_on,,2,0,5,,,,,,,4,,,57,75
33600,note_on,,2,0,6,,,,,,,5,,,45,60
33600,note_on,,2,0,10,,,,,,,12,,,57,75
33664,note_on,,160,0,1,,,,,,,0,,,57,0
33694,note_on,,94,0,5,,,,,,,4,,,57,0
33694,note_on,,94,0,10,,,,,,,12,,,57,0
33694,note_on,,94,0,6,,,,,,,5,,,45,0
33696,note_on,,2,0,10,,,,,,,12,,,56,75
33696,note_on,,2,0,6,,,,,,,5,,,44,60
33696,note_on,,2,0,5,,,,,,,4,,,56,75
33790,note_on,,94,0,10,,,,,,,12,,,56,0
33790,note_on,,94,0,5,,,,,,,4,,,56,0
33790,note_on,,94,0,6,,,,,,,5,,,44,0
33792,note_on,,2,0,10,,,,,,,12,,,52,75
33792,note_on,,2,0,6,,,,,,,5,,,40,60
33792,note_on,,2,0,5,,,,,,,4,,,52,75
33792,note_on,,128,0,1,,,,,,,0,,,59,108
33886,note_on,,94,0,1,,,,,,,0,,,59,0
33886,note_on,,94,0,10,,,,,,,12,,,52,0
33886,note_on,,94,0,5,,,,,,,4,,,52,0
33886,note_on,,94,0,6,,,,,,,5,,,40,0
33888,note_on,,2,0,6,,,,,,,5,,,33,60
33888,note_on,,2,0,5,,,,,,,4,,,45,75
33888,note_on,,2,0,1,,,,,,,0,,,60,108
33888,note_on,,2,0,10,,,,,,,12,,,45,75
33982,note_on,,94,0,6,,,,,,,5,,,33,0
33982,note_on,,94,0,5,,,,,,,4,,,45,0
33982,note_on,,94,0,10,,,,,,,12,,,45,0
33984,note_on,,96,0,1,,,,,,,0,,,60,0
33984,note_on,,2,0,5,,,,,,,4,,,57,75
33984,note_on,,2,0,10,,,,,,,12,,,57,75
33984,note_on,,2,0,6,,,,,,,5,,,45,60
33984,note_on,,0,0,1,,,,,,,0,,,62,108
34032,note_on,,0,0,1,,,,,,,0,,,60,108
34032,note_on,,48,0,1,,,,,,,0,,,62,0
34078,note_on,,94,0,6,,,,,,,5,,,45,0
34078,note_on,,94,0,5,,,,,,,4,,,57,0
34078,note_on,,94,0,10,,,,,,,12,,,57,0
34080,note_on,,0,0,1,,,,,,,0,,,59,108
34080,note_on,,48,0,1,,,,,,,0,,,60,0
34080,note_on,,2,0,6,,,,,,,5,,,43,60
34080,note_on,,2,0,10,,,,,,,12,,,55,75
34080,note_on,,2,0,5,,,,,,,4,,,55,75
34174,note_on,,94,0,5,,,,,,,4,,,55,0
34174,note_on,,94,0,1,,,,,,,0,,,59,0
34174,note_on,,94,0,10,,,,,,,12,,,55,0
34174,note_on,,94,0,6,,,,,,,5,,,43,0
34176,note_on,,2,0,1,,,,,,,0,,,57,108
34176,note_on,,2,0,6,,,,,,,5,,,41,60
34176,note_on,,2,0,5,,,,,,,4,,,53,75
34176,note_on,,2,0,10,,,,,,,12,,,53,75
34270,note_on,,94,0,5,,,,,,,4,,,53,0
34270,note_on,,94,0,10,,,,,,,12,,,53,0
34270,note_on,,94,0,1,,,,,,,0,,,57,0
34270,note_on,,94,0,6,,,,,,,5,,,41,0
34272,note_on,,2,0,10,,,,,,,12,,,52,75
34272,note_on,,2,0,6,,,,,,,5,,,40,60
34272,note_on,,2,0,5,,,,,,,4,,,52,75
34272,note_on,,2,0,1,,,,,,,0,,,64,108
34366,note_on,,94,0,6,,,,,,,5,,,40,0
34366,note_on,,94,0,10,,,,,,,12,,,52,0
34366,note_on,,94,0,5,,,,,,,4,,,52,0
34368,note_on,,2,0,6,,,,,,,5,,,38,60
34368,note_on,,2,0,5,,,,,,,4,,,50,75
34368,note_on,,2,0,10,,,,,,,12,,,50,75
34432,note_on,,160,0,1,,,,,,,0,,,64,0
34462,note_on,,94,0,5,,,,,,,4,,,50,0
34462,note_on,,94,0,6,,,,,,,5,,,38,0
34462,note_on,,94,0,10,,,,,,,12,,,50,0
34464,note_on,,2,0,6,,,,,,,5,,,36,60
34464,note_on,,2,0,5,,,,,,,4,,,48,75
34464,note_on,,2,0,10,,,,,,,12,,,48,75
34558,note_on,,94,0,10,,,,,,,12,,,48,0
34558,note_on,,94,0,5,,,,,,,4,,,48,0
34558,note_on,,94,0,6,,,,,,,5,,,36,0
34560,note_on,,2,0,6,,,,,,,5,,,35,60
34560,note_on,,2,0,10,,,,,,,12,,,47,75
34560,note_on,,128,0,1,,,,,,,0,,,62,108
34560,note_on,,2,0,5,,,,,,,4,,,47,75
34654,note_on,,94,0,10,,,,,,,12,,,47,0
34654,note_on,,94,0,1,,,,,,,0,,,62,0
34654,note_on,,94,0,6,,,,,,,5,,,35,0
34654,note_on,,94,0,5,,,,,,,4,,,47,0
34656,note_on,,2,0,10,,,,,,,12,,,45,75
34656,note_on,,2,0,1,,,,,,,0,,,60,108
34656,note_on,,2,0,5,,,,,,,4,,,45,75
34656,note_on,,2,0,6,,,,,,,5,,,33,60
34750,note_on,,94,0,6,,,,,,,5,,,33,0
34750,note_on,,94,0,10,,,,,,,12,,,45,0
34750,note_on,,94,0,5,,,,,,,4,,,45,0
34752,note_on,,2,0,10,,,,,,,12,,,48,75
34752,note_on,,2,0,5,,,,,,,4,,,48,75
34752,note_on,,96,0,1,,,,,,,0,,,60,0
34752,note_on,,0,0,1,,,,,,,0,,,59,108
34752,note_on,,2,0,6,,,,,,,5,,,36,60
34800,note_on,,0,0,1,,,,,,,0,,,57,108
34800,note_on,,48,0,1,,,,,,,0,,,59,0
34846,note_on,,94,0,10,,,,,,,12,,,48,0
34846,note_on,,94,0,5,,,,,,,4,,,48,0
34846,note_on,,94,0,6,,,,,,,5,,,36,0
34848,note_on,,2,0,5,,,,,,,4,,,47,75
34848,note_on,,0,0,1,,,,,,,0,,,56,108
34848,note_on,,48,0,1,,,,,,,0,,,57,0
34848,note_on,,2,0,10,,,,,,,12,,,47,75
34848,note_on,,2,0,6,,,,,,,5,,,35,60
34942,note_on,,94,0,10,,,,,,,12,,,47,0
34942,note_on,,94,0,6,,,,,,,5,,,35,0
34942,note_on,,94,0,1,,,,,,,0,,,56,0
34942,note_on,,94,0,5,,,,,,,4,,,47,0
34944,note_on,,2,0,6,,,,,,,5,,,33,60
34944,note_on,,2,0,10,,,,,,,12,,,45,75
34944,note_on,,2,0,1,,,,,,,0,,,57,108
34944,note_on,,2,0,5,,,,,,,4,,,45,75
35038,note_on,,94,0,6,,,,,,,5,,,33,0
35038,note_on,,94,0,10,,,,,,,12,,,45,0
35038,note_on,,94,0,1,,,,,,,0,,,57,0
35038,note_on,,94,0,5,,,,,,,4,,,45,0
35040,note_on,,2,0,6,,,,,,,5,,,32,60
35040,note_on,,2,0,10,,,,,,,12,,,44,75
35040,note_on,,2,0,1,,,,,,,0,,,52,108
35040,note_on,,2,0,5,,,,,,,4,,,44,75
35200,note_on,,160,0,10,,,,,,,12,,,44,0
35200,note_on,,160,0,6,,,,,,,5,,,32,0
35200,note_on,,160,0,1,,,,,,,0,,,52,0
35200,note_on,,160,0,5,,,,,,,4,,,44,0
35328,note_on,,128,0,1,,,,,,,0,,,65,108
35422,note_on,,94,0,1,,,,,,,0,,,65,0
35424,note_on,,224,0,6,,,,,,,5,,,33,60
35424,note_on,,2,0,1,,,,,,,0,,,64,108
35424,note_on,,224,0,5,,,,,,,4,,,45,75
35424,note_on,,224,0,10,,,,,,,12,,,45,75
35584,note_on,,160,0,6,,,,,,,5,,,33,0
35584,note_on,,160,0,10,,,,,,,12,,,45,0
35584,note_on,,160,0,5,,,,,,,4,,,45,0
35616,note_on,,32,0,10,,,,,,,12,,,50,75
35616,note_on,,32,0,5,,,,,,,4,,,50,75
35616,note_on,,32,0,6,,,,,,,5,,,38,60
35680,note_on,,256,0,1,,,,,,,0,,,64,0
35712,note_on,,32,0,1,,,,,,,0,,,65,108
35776,note_on,,160,0,5,,,,,,,4,,,50,0
35776,note_on,,160,0,10,,,,,,,12,,,50,0
35776,note_on,,160,0,6,,,,,,,5,,,38,0
35806,note_on,,94,0,1,,,,,,,0,,,65,0
35808,note_on,,32,0,10,,,,,,,12,,,52,75
35808,note_on,,2,0,1,,,,,,,0,,,60,108
35808,note_on,,32,0,6,,,,,,,5,,,40,60
35808,note_on,,32,0,5,,,,,,,4,,,52,75
35968,note_on,,160,0,5,,,,,,,4,,,52,0
35968,note_on,,160,0,6,,,,,,,5,,,40,0
35968,note_on,,160,0,10,,,,,,,12,,,52,0
36000,note_on,,32,0,6,,,,,,,5,,,28,60
36000,note_on,,32,0,5,,,,,,,4,,,40,75
36000,note_on,,32,0,10,,,,,,,12,,,40,75
36000,note_on,,0,0,1,,,,,,,0,,,59,108
36000,note_on,,192,0,1,,,,,,,0,,,60,0
36096,note_on,,5504,0,3,,,,,,,2,,,64,92
36096,note_on,,5504,0,2,,,,,,,1,,,76,92
36096,note_on,,5504,0,9,,,,,,,11,,,64,75
36096,note_on,,5504,0,8,,,,,,,10,,,76,75
36096,note_on,,3584,0,7,,,,,,,6,,,76,108
36096,note_on,,5504,0,4,,,,,,,3,,,64,75
36142,note_on,,142,0,1,,,,,,,0,,,59,0
36144,note_on,,2,0,1,,,,,,,0,,,57,108
36160,note_on,,160,0,6,,,,,,,5,,,28,0
36160,note_on,,160,0,10,,,,,,,12,,,40,0
36160,note_on,,160,0,5,,,,,,,4,,,40,0
36190,note_on,,94,0,3,,,,,,,2,,,64,0
36190,note_on,,94,0,7,,,,,,,6,,,76,0
36190,note_on,,94,0,9,,,,,,,11,,,64,0
36190,note_on,,94,0,4,,,,,,,3,,,64,0
36190,note_on,,46,0,1,,,,,,,0,,,57,0
36190,note_on,,94,0,8,,,,,,,10,,,76,0
36190,note_on,,94,0,2,,,,,,,1,,,76,0
36192,note_on,,2,0,2,,,,,,,1,,,76,92
36192,note_on,,2,0,3,,,,,,,2,,,72,92
36192,note_on,,32,0,5,,,,,,,4,,,45,75
36192,note_on,,32,0,10,,,,,,,12,,,45,75
36192,note_on,,2,0,8,,,,,,,10,,,76,75
36192,note_on,,2,0,9,,,,,,,11,,,72,75
36192,note_on,,2,0,4,,,,,,,3,,,69,75
36192,note_on,,2,0,7,,,,,,,6,,,76,108
36192,note_on,,32,0,6,,,,,,,5,,,33,60
36192,note_on,,2,0,1,,,,,,,0,,,57,108
36286,note_on,,94,0,9,,,,,,,11,,,72,0
36286,note_on,,94,0,7,,,,,,,6,,,76,0
36286,note_on,,94,0,8,,,,,,,10,,,76,0
36286,note_on,,94,0,4,,,,,,,3,,,69,0
36286,note_on,,94,0,3,,,,,,,2,,,72,0
36286,note_on,,94,0,2,,,,,,,1,,,76,0
36288,note_on,,2,0,9,,,,,,,11,,,69,75
36288,note_on,,2,0,8,,,,,,,10,,,72,75
36288,note_on,,2,0,7,,,,,,,6,,,72,108
36288,note_on,,2,0,4,,,,,,,3,,,64,75
36288,note_on,,2,0,3,,,,,,,2,,,69,92
36288,note_on,,2,0,2,,,,,,,1,,,72,92
36352,note_on,,160,0,1,,,,,,,0,,,57,0
36352,end_of_track,,0,1,1,,,,,,,,,,,
36352,note_on,,160,0,5,,,,,,,4,,,45,0
36352,note_on,,160,0,6,,,,,,,5,,,33,0
36352,note_on,,160,0,10,,,,,,,12,,,45,0
36382,note_on,,94,0,2,,,,,,,1,,,72,0
36382,note_on,,94,0,8,,,,,,,10,,,72,0
36382,note_on,,94,0,9,,,,,,,11,,,69,0
36382,note_on,,94,0,7,,,,,,,6,,,72,0
36382,note_on,,94,0,4,,,,,,,3,,,64,0
36382,note_on,,94,0,3,,,,,,,2,,,69,0
36384,note_on,,2,0,8,,,,,,,10,,,72,75
36384,note_on,,2,0,7,,,,,,,6,,,72,108
36384,note_on,,2,0,3,,,,,,,2,,,69,92
36384,note_on,,2,0,2,,,,,,,1,,,72,92
36384,note_on,,2,0,9,,,,,,,11,,,69,75
36384,note_on,,2,0,4,,,,,,,3,,,64,75
36478,note_on,,94,0,8,,,,,,,10,,,72,0
36478,note_on,,94,0,2,,,,,,,1,,,72,0
36478,note_on,,94,0,4,,,,,,,3,,,64,0
36478,note_on,,94,0,7,,,,,,,6,,,72,0
36478,note_on,,94,0,9,,,,,,,11,,,69,0
36478,note_on,,94,0,3,,,,,,,2,,,69,0
36480,note_on,,128,0,5,,,,,,,4,,,57,75
36480,note_on,,2,0,7,,,,,,,6,,,69,108
36480,note_on,,128,0,6,,,,,,,5,,,45,60
36480,note_on,,2,0,3,,,,,,,2,,,64,92
36480,note_on,,2,0,2,,,,,,,1,,,69,92
36480,note_on,,2,0,4,,,,,,,3,,,60,75
36480,note_on,,2,0,8,,,,,,,10,,,69,75
36480,note_on,,128,0,10,,,,,,,12,,,57,75
36480,note_on,,2,0,9,,,,,,,11,,,64,75
36574,note_on,,94,0,8,,,,,,,10,,,69,0
36574,note_on,,94,0,10,,,,,,,12,,,57,0
36574,note_on,,94,0,3,,,,,,,2,,,64,0
36574,note_on,,94,0,2,,,,,,,1,,,69,0
36574,note_on,,94,0,4,,,,,,,3,,,60,0
36574,note_on,,94,0,7,,,,,,,6,,,69,0
36574,note_on,,94,0,6,,,,,,,5,,,45,0
36574,note_on,,94,0,9,,,,,,,11,,,64,0
36574,note_on,,94,0,5,,,,,,,4,,,57,0
36576,note_on,,2,0,9,,,,,,,11,,,64,75
36576,note_on,,2,0,4,,,,,,,3,,,64,75
36576,note_on,,2,0,5,,,,,,,4,,,60,75
36576,note_on,,2,0,7,,,,,,,6,,,69,108
36576,note_on,,2,0,2,,,,,,,1,,,69,92
36576,note_on,,2,0,10,,,,,,,12,,,60,75
36576,note_on,,2,0,3,,,,,,,2,,,64,92
36576,note_on,,2,0,8,,,,,,,10,,,69,75
36576,note_on,,2,0,6,,,,,,,5,,,48,60
36670,note_on,,94,0,5,,,,,,,4,,,60,0
36670,note_on,,94,0,10,,,,,,,12,,,60,0
36670,note_on,,94,0,6,,,,,,,5,,,48,0
36670,note_on,,94,0,4,,,,,,,3,,,64,0
36672,note_on,,2,0,6,,,,,,,5,,,45,60
36672,note_on,,2,0,4,,,,,,,3,,,60,75
36672,note_on,,2,0,10,,,,,,,12,,,57,75
36672,note_on,,2,0,5,,,,,,,4,,,57,75
36736,note_on,,160,0,3,,,,,,,2,,,64,0
36736,note_on,,160,0,7,,,,,,,6,,,69,0
36736,note_on,,160,0,2,,,,,,,1,,,69,0
36736,note_on,,160,0,8,,,,,,,10,,,69,0
36736,note_on,,160,0,9,,,,,,,11,,,64,0
36766,note_on,,94,0,5,,,,,,,4,,,57,0
36766,note_on,,94,0,10,,,,,,,12,,,57,0
36766,note_on,,94,0,4,,,,,,,3,,,60,0
36766,note_on,,94,0,6,,,,,,,5,,,45,0
36768,note_on,,2,0,10,,,,,,,12,,,57,75
36768,note_on,,2,0,5,,,,,,,4,,,57,75
36768,note_on,,2,0,4,,,,,,,3,,,60,75
36768,note_on,,2,0,6,,,,,,,5,,,45,60
36862,note_on,,94,0,5,,,,,,,4,,,57,0
36862,note_on,,94,0,6,,,,,,,5,,,45,0
36862,note_on,,94,0,10,,,,,,,12,,,57,0
36862,note_on,,94,0,4,,,,,,,3,,,60,0
36864,note_on,,2,0,5,,,,,,,4,,,52,75
36864,note_on,,128,0,7,,,,,,,6,,,76,108
36864,note_on,,2,0,6,,,,,,,5,,,40,60
36864,note_on,,128,0,8,,,,,,,10,,,76,75
36864,note_on,,128,0,2,,,,,,,1,,,76,92
36864,note_on,,2,0,4,,,,,,,3,,,55,75
36864,note_on,,128,0,3,,,,,,,2,,,72,92
36864,note_on,,128,0,9,,,,,,,11,,,72,75
36864,note_on,,2,0,10,,,,,,,12,,,52,75
36958,note_on,,94,0,7,,,,,,,6,,,76,0
36958,note_on,,94,0,6,,,,,,,5,,,40,0
36958,note_on,,94,0,4,,,,,,,3,,,55,0
36958,note_on,,94,0,5,,,,,,,4,,,52,0
36958,note_on,,94,0,8,,,,,,,10,,,76,0
36958,note_on,,94,0,2,,,,,,,1,,,76,0
36958,note_on,,94,0,3,,,,,,,2,,,72,0
36958,note_on,,94,0,10,,,,,,,12,,,52,0
36958,note_on,,94,0,9,,,,,,,11,,,72,0
36960,note_on,,2,0,9,,,,,,,11,,,76,75
36960,note_on,,2,0,2,,,,,,,1,,,79,92
36960,note_on,,2,0,6,,,,,,,5,,,40,60
36960,note_on,,2,0,7,,,,,,,6,,,79,108
36960,note_on,,2,0,10,,,,,,,12,,,52,75
36960,note_on,,2,0,8,,,,,,,10,,,79,75
36960,note_on,,2,0,4,,,,,,,3,,,60,75
36960,note_on,,2,0,3,,,,,,,2,,,76,92
36960,note_on,,2,0,5,,,,,,,4,,,52,75
37054,note_on,,94,0,8,,,,,,,10,,,79,0
37054,note_on,,94,0,7,,,,,,,6,,,79,0
37054,note_on,,94,0,9,,,,,,,11,,,76,0
37054,note_on,,94,0,2,,,,,,,1,,,79,0
37054,note_on,,94,0,3,,,,,,,2,,,76,0
37054,note_on,,94,0,4,,,,,,,3,,,60,0
37056,note_on,,2,0,9,,,,,,,11,,,72,75
37056,note_on,,2,0,2,,,,,,,1,,,76,92
37056,note_on,,2,0,3,,,,,,,2,,,72,92
37056,note_on,,2,0,4,,,,,,,3,,,67,75
37056,note_on,,2,0,8,,,,,,,10,,,76,75
37056,note_on,,2,0,7,,,,,,,6,,,76,108
37120,note_on,,160,0,5,,,,,,,4,,,52,0
37120,note_on,,160,0,10,,,,,,,12,,,52,0
37120,note_on,,160,0,6,,,,,,,5,,,40,0
37150,note_on,,94,0,3,,,,,,,2,,,72,0
37150,note_on,,94,0,2,,,,,,,1,,,76,0
37150,note_on,,94,0,4,,,,,,,3,,,67,0
37150,note_on,,94,0,7,,,,,,,6,,,76,0
37150,note_on,,94,0,8,,,,,,,10,,,76,0
37150,note_on,,94,0,9,,,,,,,11,,,72,0
37152,note_on,,2,0,7,,,,,,,6,,,76,108
37152,note_on,,2,0,3,,,,,,,2,,,72,92
37152,note_on,,2,0,9,,,,,,,11,,,72,75
37152,note_on,,2,0,2,,,,,,,1,,,76,92
37152,note_on,,2,0,8,,,,,,,10,,,76,75
37152,note_on,,2,0,4,,,,,,,3,,,67,75
37246,note_on,,94,0,3,,,,,,,2,,,72,0
37246,note_on,,94,0,2,,,,,,,1,,,76,0
37246,note_on,,94,0,8,,,,,,,10,,,76,0
37246,note_on,,94,0,7,,,,,,,6,,,76,0
37246,note_on,,94,0,9,,,,,,,11,,,72,0
37246,note_on,,94,0,4,,,,,,,3,,,67,0
37248,note_on,,128,0,6,,,,,,,5,,,43,60
37248,note_on,,2,0,3,,,,,,,2,,,67,92
37248,note_on,,128,0,5,,,,,,,4,,,55,75
37248,note_on,,2,0,9,,,,,,,11,,,67,75
37248,note_on,,128,0,10,,,,,,,12,,,55,75
37248,note_on,,2,0,7,,,,,,,6,,,72,108
37248,note_on,,2,0,8,,,,,,,10,,,72,75
37248,note_on,,2,0,2,,,,,,,1,,,72,92
37248,note_on,,2,0,4,,,,,,,3,,,64,75
37318,note_on,,70,0,8,,,,,,,10,,,72,0
37318,note_on,,70,0,2,,,,,,,1,,,72,0
37318,note_on,,70,0,4,,,,,,,3,,,64,0
37320,note_on,,2,0,8,,,,,,,10,,,71,75
37320,note_on,,2,0,2,,,,,,,1,,,71,92
37320,note_on,,2,0,4,,,,,,,3,,,62,75
37342,note_on,,94,0,9,,,,,,,11,,,67,0
37342,note_on,,22,0,4,,,,,,,3,,,62,0
37342,note_on,,22,0,2,,,,,,,1,,,71,0
37342,note_on,,94,0,3,,,,,,,2,,,67,0
37342,note_on,,94,0,5,,,,,,,4,,,55,0
37342,note_on,,94,0,10,,,,,,,12,,,55,0
37342,note_on,,94,0,6,,,,,,,5,,,43,0
37342,note_on,,94,0,7,,,,,,,6,,,72,0
37342,note_on,,22,0,8,,,,,,,10,,,71,0
37344,note_on,,2,0,4,,,,,,,3,,,64,75
37344,note_on,,2,0,9,,,,,,,11,,,67,75
37344,note_on,,2,0,2,,,,,,,1,,,72,92
37344,note_on,,2,0,6,,,,,,,5,,,52,60
37344,note_on,,2,0,10,,,,,,,12,,,64,75
37344,note_on,,2,0,3,,,,,,,2,,,67,92
37344,note_on,,2,0,7,,,,,,,6,,,72,108
37344,note_on,,2,0,8,,,,,,,10,,,72,75
37344,note_on,,2,0,5,,,,,,,4,,,64,75
37438,note_on,,94,0,6,,,,,,,5,,,52,0
37438,note_on,,94,0,5,,,,,,,4,,,64,0
37438,note_on,,94,0,10,,,,,,,12,,,64,0
37440,note_on,,2,0,5,,,,,,,4,,,60,75
37440,note_on,,2,0,6,,,,,,,5,,,48,60
37440,note_on,,2,0,10,,,,,,,12,,,60,75
37504,note_on,,160,0,7,,,,,,,6,,,72,0
37534,note_on,,94,0,5,,,,,,,4,,,60,0
37534,note_on,,94,0,6,,,,,,,5,,,48,0
37534,note_on,,94,0,10,,,,,,,12,,,60,0
37536,note_on,,2,0,10,,,,,,,12,,,60,75
37536,note_on,,2,0,5,,,,,,,4,,,60,75
37536,note_on,,2,0,6,,,,,,,5,,,48,60
37600,note_on,,256,0,3,,,,,,,2,,,67,0
37600,note_on,,256,0,4,,,,,,,3,,,64,0
37600,note_on,,256,0,9,,,,,,,11,,,67,0
37600,note_on,,256,0,2,,,,,,,1,,,72,0
37600,note_on,,256,0,8,,,,,,,10,,,72,0
37630,note_on,,94,0,6,,,,,,,5,,,48,0
37630,note_on,,94,0,10,,,,,,,12,,,60,0
37630,note_on,,94,0,5,,,,,,,4,,,60,0
37632,note_on,,32,0,2,,,,,,,1,,,76,92
37632,note_on,,2,0,6,,,,,,,5,,,45,60
37632,note_on,,32,0,9,,,,,,,11,,,72,75
37632,note_on,,32,0,4,,,,,,,3,,,69,75
37632,note_on,,2,0,10,,,,,,,12,,,57,75
37632,note_on,,32,0,3,,,,,,,2,,,72,92
37632,note_on,,2,0,5,,,,,,,4,,,57,75
37632,note_on,,128,0,7,,,,,,,6,,,76,108
37632,note_on,,32,0,8,,,,,,,10,,,76,75
37726,note_on,,94,0,8,,,,,,,10,,,76,0
37726,note_on,,94,0,7,,,,,,,6,,,76,0
37726,note_on,,94,0,10,,,,,,,12,,,57,0
37726,note_on,,94,0,5,,,,,,,4,,,57,0
37726,note_on,,94,0,3,,,,,,,2,,,72,0
37726,note_on,,94,0,6,,,,,,,5,,,45,0
37726,note_on,,94,0,4,,,,,,,3,,,69,0
37726,note_on,,94,0,2,,,,,,,1,,,76,0
37726,note_on,,94,0,9,,,,,,,11,,,72,0
37728,note_on,,2,0,7,,,,,,,6,,,78,108
37728,note_on,,2,0,4,,,,,,,3,,,69,75
37728,note_on,,2,0,8,,,,,,,10,,,78,75
37728,note_on,,2,0,3,,,,,,,2,,,72,92
37728,note_on,,2,0,6,,,,,,,5,,,38,60
37728,note_on,,2,0,5,,,,,,,4,,,50,75
37728,note_on,,2,0,9,,,,,,,11,,,72,75
37728,note_on,,2,0,10,,,,,,,12,,,50,75
37728,note_on,,2,0,2,,,,,,,1,,,78,92
37798,note_on,,70,0,7,,,,,,,6,,,78,0
37800,note_on,,2,0,7,,,,,,,6,,,76,108
37822,note_on,,94,0,9,,,,,,,11,,,72,0
37822,note_on,,94,0,3,,,,,,,2,,,72,0
37822,note_on,,94,0,4,,,,,,,3,,,69,0
37822,note_on,,94,0,8,,,,,,,10,,,78,0
37822,note_on,,94,0,2,,,,,,,1,,,78,0
37822,note_on,,22,0,7,,,,,,,6,,,76,0
37824,note_on,,2,0,4,,,,,,,3,,,62,75
37824,note_on,,2,0,7,,,,,,,6,,,74,108
37824,note_on,,2,0,2,,,,,,,1,,,79,92
37824,note_on,,2,0,3,,,,,,,2,,,71,92
37824,note_on,,2,0,9,,,,,,,11,,,71,75
37824,note_on,,2,0,8,,,,,,,10,,,79,75
37888,note_on,,160,0,10,,,,,,,12,,,50,0
37888,note_on,,160,0,6,,,,,,,5,,,38,0
37888,note_on,,160,0,5,,,,,,,4,,,50,0
37894,note_on,,70,0,2,,,,,,,1,,,79,0
37894,note_on,,70,0,7,,,,,,,6,,,74,0
37894,note_on,,70,0,8,,,,,,,10,,,79,0
37896,note_on,,2,0,7,,,,,,,6,,,76,108
37896,note_on,,2,0,8,,,,,,,10,,,76,75
37896,note_on,,2,0,2,,,,,,,1,,,76,92
37918,note_on,,94,0,3,,,,,,,2,,,71,0
37918,note_on,,94,0,9,,,,,,,11,,,71,0
37918,note_on,,22,0,8,,,,,,,10,,,76,0
37918,note_on,,22,0,2,,,,,,,1,,,76,0
37918,note_on,,94,0,4,,,,,,,3,,,62,0
37918,note_on,,22,0,7,,,,,,,6,,,76,0
37920,note_on,,2,0,4,,,,,,,3,,,62,75
37920,note_on,,2,0,3,,,,,,,2,,,69,92
37920,note_on,,2,0,2,,,,,,,1,,,78,92
37920,note_on,,2,0,8,,,,,,,10,,,78,75
37920,note_on,,2,0,9,,,,,,,11,,,69,75
37920,note_on,,2,0,7,,,,,,,6,,,78,108
38016,note_on,,128,0,6,,,,,,,5,,,48,60
38016,note_on,,128,0,10,,,,,,,12,,,60,75
38016,note_on,,128,0,5,,,,,,,4,,,60,75
38062,note_on,,142,0,3,,,,,,,2,,,69,0
38062,note_on,,142,0,7,,,,,,,6,,,78,0
38062,note_on,,142,0,8,,,,,,,10,,,78,0
38062,note_on,,142,0,2,,,,,,,1,,,78,0
38062,note_on,,142,0,9,,,,,,,11,,,69,0
38064,note_on,,2,0,2,,,,,,,1,,,76,92
38064,note_on,,2,0,3,,,,,,,2,,,69,92
38064,note_on,,2,0,9,,,,,,,11,,,69,75
38064,note_on,,2,0,8,,,,,,,10,,,76,75
38064,note_on,,2,0,7,,,,,,,6,,,78,108
38080,note_on,,160,0,4,,,,,,,3,,,62,0
38086,note_on,,22,0,2,,,,,,,1,,,76,0
38086,note_on,,22,0,8,,,,,,,10,,,76,0
38088,note_on,,2,0,2,,,,,,,1,,,78,92
38088,note_on,,2,0,8,,,,,,,10,,,78,75
38110,note_on,,22,0,2,,,,,,,1,,,78,0
38110,note_on,,46,0,9,,,,,,,11,,,69,0
38110,note_on,,94,0,6,,,,,,,5,,,48,0
38110,note_on,,46,0,7,,,,,,,6,,,78,0
38110,note_on,,46,0,3,,,,,,,2,,,69,0
38110,note_on,,94,0,10,,,,,,,12,,,60,0
38110,note_on,,22,0,8,,,,,,,10,,,78,0
38110,note_on,,94,0,5,,,,,,,4,,,60,0
38112,note_on,,2,0,7,,,,,,,6,,,79,108
38112,note_on,,2,0,5,,,,,,,4,,,59,75
38112,note_on,,2,0,10,,,,,,,12,,,59,75
38112,note_on,,2,0,3,,,,,,,2,,,74,92
38112,note_on,,2,0,6,,,,,,,5,,,47,60
38112,note_on,,2,0,8,,,,,,,10,,,79,75
38112,note_on,,2,0,2,,,,,,,1,,,79,92
38112,note_on,,2,0,9,,,,,,,11,,,74,75
38206,note_on,,94,0,9,,,,,,,11,,,74,0
38206,note_on,,94,0,6,,,,,,,5,,,47,0
38206,note_on,,94,0,10,,,,,,,12,,,59,0
38206,note_on,,94,0,3,,,,,,,2,,,74,0
38206,note_on,,94,0,5,,,,,,,4,,,59,0
38208,note_on,,2,0,3,,,,,,,2,,,71,92
38208,note_on,,2,0,10,,,,,,,12,,,55,75
38208,note_on,,2,0,6,,,,,,,5,,,43,60
38208,note_on,,2,0,9,,,,,,,11,,,71,75
38208,note_on,,128,0,4,,,,,,,3,,,62,75
38208,note_on,,2,0,5,,,,,,,4,,,55,75
38272,note_on,,160,0,2,,,,,,,1,,,79,0
38272,note_on,,160,0,8,,,,,,,10,,,79,0
38272,note_on,,160,0,7,,,,,,,6,,,79,0
38302,note_on,,94,0,9,,,,,,,11,,,71,0
38302,note_on,,94,0,5,,,,,,,4,,,55,0
38302,note_on,,94,0,10,,,,,,,12,,,55,0
38302,note_on,,94,0,3,,,,,,,2,,,71,0
38302,note_on,,94,0,6,,,,,,,5,,,43,0
38302,note_on,,94,0,4,,,,,,,3,,,62,0
38304,note_on,,2,0,4,,,,,,,3,,,62,75
38304,note_on,,2,0,5,,,,,,,4,,,55,75
38304,note_on,,2,0,3,,,,,,,2,,,71,92
38304,note_on,,2,0,6,,,,,,,5,,,43,60
38304,note_on,,2,0,9,,,,,,,11,,,71,75
38304,note_on,,2,0,10,,,,,,,12,,,55,75
38398,note_on,,94,0,6,,,,,,,5,,,43,0
38398,note_on,,94,0,4,,,,,,,3,,,62,0
38398,note_on,,94,0,5,,,,,,,4,,,55,0
38398,note_on,,94,0,9,,,,,,,11,,,71,0
38398,note_on,,94,0,10,,,,,,,12,,,55,0
38398,note_on,,94,0,3,,,,,,,2,,,71,0
38400,note_on,,2,0,10,,,,,,,12,,,53,75
38400,note_on,,2,0,9,,,,,,,11,,,74,75
38400,note_on,,2,0,4,,,,,,,3,,,62,75
38400,note_on,,128,0,2,,,,,,,1,,,81,92
38400,note_on,,128,0,8,,,,,,,10,,,81,75
38400,note_on,,2,0,6,,,,,,,5,,,41,60
38400,note_on,,128,0,7,,,,,,,6,,,81,108
38400,note_on,,2,0,3,,,,,,,2,,,74,92
38400,note_on,,2,0,5,,,,,,,4,,,53,75
38494,note_on,,94,0,5,,,,,,,4,,,53,0
38494,note_on,,94,0,7,,,,,,,6,,,81,0
38494,note_on,,94,0,10,,,,,,,12,,,53,0
38494,note_on,,94,0,8,,,,,,,10,,,81,0
38494,note_on,,94,0,4,,,,,,,3,,,62,0
38494,note_on,,94,0,6,,,,,,,5,,,41,0
38494,note_on,,94,0,9,,,,,,,11,,,74,0
38494,note_on,,94,0,2,,,,,,,1,,,81,0
38494,note_on,,94,0,3,,,,,,,2,,,74,0
38496,note_on,,2,0,5,,,,,,,4,,,52,75
38496,note_on,,2,0,8,,,,,,,10,,,80,75
38496,note_on,,2,0,4,,,,,,,3,,,71,75
38496,note_on,,2,0,7,,,,,,,6,,,80,108
38496,note_on,,2,0,2,,,,,,,1,,,80,92
38496,note_on,,2,0,3,,,,,,,2,,,76,92
38496,note_on,,2,0,6,,,,,,,5,,,40,60
38496,note_on,,2,0,9,,,,,,,11,,,76,75
38496,note_on,,2,0,10,,,,,,,12,,,52,75
38566,note_on,,70,0,8,,,,,,,10,,,80,0
38566,note_on,,70,0,7,,,,,,,6,,,80,0
38566,note_on,,70,0,2,,,,,,,1,,,80,0
38568,note_on,,2,0,7,,,,,,,6,,,78,108
38568,note_on,,2,0,8,,,,,,,10,,,78,75
38568,note_on,,2,0,2,,,,,,,1,,,78,92
38590,note_on,,94,0,9,,,,,,,11,,,76,0
38590,note_on,,94,0,3,,,,,,,2,,,76,0
38590,note_on,,94,0,4,,,,,,,3,,,71,0
38590,note_on,,22,0,7,,,,,,,6,,,78,0
38590,note_on,,22,0,8,,,,,,,10,,,78,0
38590,note_on,,22,0,2,,,,,,,1,,,78,0
38590,note_on,,94,0,10,,,,,,,12,,,52,0
38590,note_on,,94,0,5,,,,,,,4,,,52,0
38590,note_on,,94,0,6,,,,,,,5,,,40,0
38592,note_on,,2,0,8,,,,,,,10,,,76,75
38592,note_on,,2,0,3,,,,,,,2,,,71,92
38592,note_on,,2,0,2,,,,,,,1,,,76,92
38592,note_on,,2,0,6,,,,,,,5,,,52,60
38592,note_on,,2,0,9,,,,,,,11,,,71,75
38592,note_on,,2,0,10,,,,,,,12,,,64,75
38592,note_on,,2,0,4,,,,,,,3,,,68,75
38592,note_on,,2,0,7,,,,,,,6,,,76,108
38592,note_on,,2,0,5,,,,,,,4,,,64,75
38662,note_on,,70,0,8,,,,,,,10,,,76,0
38662,note_on,,70,0,7,,,,,,,6,,,76,0
38662,note_on,,70,0,2,,,,,,,1,,,76,0
38664,note_on,,2,0,8,,,,,,,10,,,78,75
38664,note_on,,2,0,7,,,,,,,6,,,78,108
38664,note_on,,2,0,2,,,,,,,1,,,78,92
38686,note_on,,94,0,5,,,,,,,4,,,64,0
38686,note_on,,94,0,4,,,,,,,3,,,68,0
38686,note_on,,22,0,2,,,,,,,1,,,78,0
38686,note_on,,94,0,3,,,,,,,2,,,71,0
38686,note_on,,22,0,8,,,,,,,10,,,78,0
38686,note_on,,94,0,10,,,,,,,12,,,64,0
38686,note_on,,94,0,6,,,,,,,5,,,52,0
38686,note_on,,22,0,7,,,,,,,6,,,78,0
38686,note_on,,94,0,9,,,,,,,11,,,71,0
38688,note_on,,2,0,5,,,,,,,4,,,64,75
38688,note_on,,2,0,10,,,,,,,12,,,64,75
38688,note_on,,2,0,6,,,,,,,5,,,52,60
38688,note_on,,2,0,2,,,,,,,1,,,80,92
38688,note_on,,2,0,3,,,,,,,2,,,71,92
38688,note_on,,2,0,8,,,,,,,10,,,80,75
38688,note_on,,2,0,4,,,,,,,3,,,64,75
38688,note_on,,2,0,7,,,,,,,6,,,80,108
38688,note_on,,2,0,9,,,,,,,11,,,71,75
38782,note_on,,94,0,9,,,,,,,11,,,71,0
38782,note_on,,94,0,10,,,,,,,12,,,64,0
38782,note_on,,94,0,5,,,,,,,4,,,64,0
38782,note_on,,94,0,3,,,,,,,2,,,71,0
38782,note_on,,94,0,6,,,,,,,5,,,52,0
38784,note_on,,2,0,6,,,,,,,5,,,50,60
38784,note_on,,2,0,10,,,,,,,12,,,62,75
38784,note_on,,2,0,5,,,,,,,4,,,62,75
38784,note_on,,2,0,3,,,,,,,2,,,71,92
38784,note_on,,2,0,9,,,,,,,11,,,71,75
38830,note_on,,142,0,7,,,,,,,6,,,80,0
38830,note_on,,142,0,2,,,,,,,1,,,80,0
38830,note_on,,142,0,8,,,,,,,10,,,80,0
38832,note_on,,2,0,7,,,,,,,6,,,80,108
38832,note_on,,2,0,8,,,,,,,10,,,80,75
38832,note_on,,2,0,2,,,,,,,1,,,80,92
38848,note_on,,160,0,4,,,,,,,3,,,64,0
38878,note_on,,46,0,8,,,,,,,10,,,80,0
38878,note_on,,46,0,2,,,,,,,1,,,80,0
38878,note_on,,94,0,6,,,,,,,5,,,50,0
38878,note_on,,94,0,9,,,,,,,11,,,71,0
38878,note_on,,46,0,7,,,,,,,6,,,80,0
38878,note_on,,94,0,3,,,,,,,2,,,71,0
38878,note_on,,94,0,10,,,,,,,12,,,62,0
38878,note_on,,94,0,5,,,,,,,4,,,62,0
38880,note_on,,2,0,2,,,,,,,1,,,81,92
38880,note_on,,2,0,8,,,,,,,10,,,81,75
38880,note_on,,2,0,3,,,,,,,2,,,76,92
38880,note_on,,2,0,5,,,,,,,4,,,60,75
38880,note_on,,2,0,10,,,,,,,12,,,60,75
38880,note_on,,2,0,7,,,,,,,6,,,81,108
38880,note_on,,2,0,6,,,,,,,5,,,48,60
38880,note_on,,2,0,9,,,,,,,11,,,76,75
38974,note_on,,94,0,5,,,,,,,4,,,60,0
38974,note_on,,94,0,6,,,,,,,5,,,48,0
38974,note_on,,94,0,2,,,,,,,1,,,81,0
38974,note_on,,94,0,10,,,,,,,12,,,60,0
38974,note_on,,94,0,8,,,,,,,10,,,81,0
38974,note_on,,94,0,3,,,,,,,2,,,76,0
38974,note_on,,94,0,9,,,,,,,11,,,76,0
38974,note_on,,94,0,7,,,,,,,6,,,81,0
38976,note_on,,2,0,6,,,,,,,5,,,48,60
38976,note_on,,2,0,3,,,,,,,2,,,69,92
38976,note_on,,2,0,8,,,,,,,10,,,76,75
38976,note_on,,2,0,2,,,,,,,1,,,76,92
38976,note_on,,2,0,9,,,,,,,11,,,69,75
38976,note_on,,2,0,10,,,,,,,12,,,60,75
38976,note_on,,128,0,4,,,,,,,3,,,64,75
38976,note_on,,2,0,7,,,,,,,6,,,76,108
38976,note_on,,2,0,5,,,,,,,4,,,60,75
39070,note_on,,94,0,10,,,,,,,12,,,60,0
39070,note_on,,94,0,6,,,,,,,5,,,48,0
39070,note_on,,94,0,9,,,,,,,11,,,69,0
39070,note_on,,94,0,3,,,,,,,2,,,69,0
39070,note_on,,94,0,5,,,,,,,4,,,60,0
39070,note_on,,94,0,4,,,,,,,3,,,64,0
39072,note_on,,2,0,9,,,,,,,11,,,69,75
39072,note_on,,2,0,3,,,,,,,2,,,69,92
39072,note_on,,2,0,10,,,,,,,12,,,60,75
39072,note_on,,2,0,5,,,,,,,4,,,60,75
39072,note_on,,2,0,4,,,,,,,3,,,64,75
39072,note_on,,2,0,6,,,,,,,5,,,48,60
39136,note_on,,160,0,2,,,,,,,1,,,76,0
39136,note_on,,160,0,8,,,,,,,10,,,76,0
39136,note_on,,160,0,7,,,,,,,6,,,76,0
39166,note_on,,94,0,10,,,,,,,12,,,60,0
39166,note_on,,94,0,9,,,,,,,11,,,69,0
39166,note_on,,94,0,5,,,,,,,4,,,60,0
39166,note_on,,94,0,4,,,,,,,3,,,64,0
39166,note_on,,94,0,6,,,,,,,5,,,48,0
39166,note_on,,94,0,3,,,,,,,2,,,69,0
39168,note_on,,2,0,4,,,,,,,3,,,62,75
39168,note_on,,2,0,10,,,,,,,12,,,59,75
39168,note_on,,32,0,8,,,,,,,10,,,76,75
39168,note_on,,2,0,3,,,,,,,2,,,68,92
39168,note_on,,2,0,9,,,,,,,11,,,68,75
39168,note_on,,2,0,6,,,,,,,5,,,47,60
39168,note_on,,32,0,7,,,,,,,6,,,76,108
39168,note_on,,32,0,2,,,,,,,1,,,76,92
39168,note_on,,2,0,5,,,,,,,4,,,59,75
39262,note_on,,94,0,5,,,,,,,4,,,59,0
39262,note_on,,94,0,7,,,,,,,6,,,76,0
39262,note_on,,94,0,3,,,,,,,2,,,68,0
39262,note_on,,94,0,4,,,,,,,3,,,62,0
39262,note_on,,94,0,9,,,,,,,11,,,68,0
39262,note_on,,94,0,10,,,,,,,12,,,59,0
39262,note_on,,94,0,2,,,,,,,1,,,76,0
39262,note_on,,94,0,8,,,,,,,10,,,76,0
39262,note_on,,94,0,6,,,,,,,5,,,47,0
39264,note_on,,2,0,3,,,,,,,2,,,72,92
39264,note_on,,2,0,7,,,,,,,6,,,81,108
39264,note_on,,2,0,8,,,,,,,10,,,81,75
39264,note_on,,2,0,9,,,,,,,11,,,72,75
39264,note_on,,2,0,2,,,,,,,1,,,81,92
39264,note_on,,2,0,10,,,,,,,12,,,57,75
39264,note_on,,2,0,6,,,,,,,5,,,45,60
39264,note_on,,2,0,5,,,,,,,4,,,57,75
39264,note_on,,2,0,4,,,,,,,3,,,64,75
39358,note_on,,94,0,2,,,,,,,1,,,81,0
39358,note_on,,94,0,10,,,,,,,12,,,57,0
39358,note_on,,94,0,8,,,,,,,10,,,81,0
39358,note_on,,94,0,6,,,,,,,5,,,45,0
39358,note_on,,94,0,7,,,,,,,6,,,81,0
39358,note_on,,94,0,9,,,,,,,11,,,72,0
39358,note_on,,94,0,3,,,,,,,2,,,72,0
39358,note_on,,94,0,4,,,,,,,3,,,64,0
39358,note_on,,94,0,5,,,,,,,4,,,57,0
39360,note_on,,2,0,8,,,,,,,10,,,76,75
39360,note_on,,2,0,7,,,,,,,6,,,76,108
39360,note_on,,2,0,10,,,,,,,12,,,57,75
39360,note_on,,2,0,3,,,,,,,2,,,72,92
39360,note_on,,2,0,6,,,,,,,5,,,45,60
39360,note_on,,2,0,4,,,,,,,3,,,64,75
39360,note_on,,2,0,9,,,,,,,11,,,72,75
39360,note_on,,2,0,2,,,,,,,1,,,76,92
39360,note_on,,2,0,5,,,,,,,4,,,57,75
39454,note_on,,94,0,7,,,,,,,6,,,76,0
39454,note_on,,94,0,3,,,,,,,2,,,72,0
39454,note_on,,94,0,9,,,,,,,11,,,72,0
39454,note_on,,94,0,10,,,,,,,12,,,57,0
39454,note_on,,94,0,2,,,,,,,1,,,76,0
39454,note_on,,94,0,8,,,,,,,10,,,76,0
39454,note_on,,94,0,4,,,,,,,3,,,64,0
39454,note_on,,94,0,6,,,,,,,5,,,45,0
39454,note_on,,94,0,5,,,,,,,4,,,57,0
39456,note_on,,2,0,2,,,,,,,1,,,72,92
39456,note_on,,2,0,5,,,,,,,4,,,57,75
39456,note_on,,2,0,7,,,,,,,6,,,72,108
39456,note_on,,2,0,10,,,,,,,12,,,57,75
39456,note_on,,2,0,4,,,,,,,3,,,64,75
39456,note_on,,2,0,8,,,,,,,10,,,72,75
39456,note_on,,2,0,6,,,,,,,5,,,45,60
39456,note_on,,2,0,9,,,,,,,11,,,69,75
39456,note_on,,2,0,3,,,,,,,2,,,69,92
39550,note_on,,94,0,8,,,,,,,10,,,72,0
39550,note_on,,94,0,7,,,,,,,6,,,72,0
39550,note_on,,94,0,6,,,,,,,5,,,45,0
39550,note_on,,94,0,10,,,,,,,12,,,57,0
39550,note_on,,94,0,4,,,,,,,3,,,64,0
39550,note_on,,94,0,9,,,,,,,11,,,69,0
39550,note_on,,94,0,5,,,,,,,4,,,57,0
39550,note_on,,94,0,2,,,,,,,1,,,72,0
39550,note_on,,94,0,3,,,,,,,2,,,69,0
39552,note_on,,2,0,3,,,,,,,2,,,65,92
39552,note_on,,2,0,5,,,,,,,4,,,55,75
39552,note_on,,2,0,4,,,,,,,3,,,64,75
39552,note_on,,2,0,2,,,,,,,1,,,69,92
39552,note_on,,2,0,10,,,,,,,12,,,55,75
39552,note_on,,2,0,6,,,,,,,5,,,43,60
39552,note_on,,2,0,7,,,,,,,6,,,69,108
39552,note_on,,2,0,8,,,,,,,10,,,69,75
39552,note_on,,2,0,9,,,,,,,11,,,65,75
39646,note_on,,94,0,5,,,,,,,4,,,55,0
39646,note_on,,94,0,2,,,,,,,1,,,69,0
39646,note_on,,94,0,9,,,,,,,11,,,65,0
39646,note_on,,94,0,6,,,,,,,5,,,43,0
39646,note_on,,94,0,7,,,,,,,6,,,69,0
39646,note_on,,94,0,4,,,,,,,3,,,64,0
39646,note_on,,94,0,8,,,,,,,10,,,69,0
39646,note_on,,94,0,10,,,,,,,12,,,55,0
39646,note_on,,94,0,3,,,,,,,2,,,65,0
39648,note_on,,2,0,4,,,,,,,3,,,65,75
39648,note_on,,2,0,5,,,,,,,4,,,53,75
39648,note_on,,2,0,10,,,,,,,12,,,53,75
39648,note_on,,2,0,3,,,,,,,2,,,69,92
39648,note_on,,2,0,2,,,,,,,1,,,74,92
39648,note_on,,2,0,8,,,,,,,10,,,74,75
39648,note_on,,2,0,7,,,,,,,6,,,74,108
39648,note_on,,2,0,9,,,,,,,11,,,69,75
39648,note_on,,2,0,6,,,,,,,5,,,41,60
39742,note_on,,94,0,6,,,,,,,5,,,41,0
39742,note_on,,94,0,7,,,,,,,6,,,74,0
39742,note_on,,94,0,5,,,,,,,4,,,53,0
39742,note_on,,94,0,10,,,,,,,12,,,53,0
39744,note_on,,2,0,5,,,,,,,4,,,53,75
39744,note_on,,2,0,10,,,,,,,12,,,53,75
39744,note_on,,2,0,7,,,,,,,6,,,62,108
39744,note_on,,2,0,6,,,,,,,5,,,41,60
39838,note_on,,94,0,5,,,,,,,4,,,53,0
39838,note_on,,94,0,7,,,,,,,6,,,62,0
39838,note_on,,94,0,6,,,,,,,5,,,41,0
39838,note_on,,94,0,10,,,,,,,12,,,53,0
39840,note_on,,2,0,10,,,,,,,12,,,53,75
39840,note_on,,2,0,5,,,,,,,4,,,53,75
39840,note_on,,2,0,7,,,,,,,6,,,69,108
39840,note_on,,2,0,6,,,,,,,5,,,41,60
39904,note_on,,256,0,3,,,,,,,2,,,69,0
39904,note_on,,256,0,2,,,,,,,1,,,74,0
39904,note_on,,256,0,9,,,,,,,11,,,69,0
39904,note_on,,256,0,4,,,,,,,3,,,65,0
39904,note_on,,256,0,8,,,,,,,10,,,74,0
39934,note_on,,94,0,5,,,,,,,4,,,53,0
39934,note_on,,94,0,10,,,,,,,12,,,53,0
39934,note_on,,94,0,7,,,,,,,6,,,69,0
39934,note_on,,94,0,6,,,,,,,5,,,41,0
39936,note_on,,2,0,10,,,,,,,12,,,52,75
39936,note_on,,32,0,4,,,,,,,3,,,65,75
39936,note_on,,32,0,2,,,,,,,1,,,76,92
39936,note_on,,2,0,5,,,,,,,4,,,52,75
39936,note_on,,2,0,6,,,,,,,5,,,40,60
39936,note_on,,32,0,3,,,,,,,2,,,69,92
39936,note_on,,32,0,8,,,,,,,10,,,76,75
39936,note_on,,32,0,9,,,,,,,11,,,69,75
39936,note_on,,2,0,7,,,,,,,6,,,74,108
39982,note_on,,46,0,5,,,,,,,4,,,52,0
39982,note_on,,46,0,10,,,,,,,12,,,52,0
39982,note_on,,46,0,2,,,,,,,1,,,76,0
39982,note_on,,46,0,6,,,,,,,5,,,40,0
39982,note_on,,46,0,8,,,,,,,10,,,76,0
39984,note_on,,2,0,8,,,,,,,10,,,77,75
39984,note_on,,2,0,6,,,,,,,5,,,38,60
39984,note_on,,2,0,2,,,,,,,1,,,77,92
39984,note_on,,2,0,5,,,,,,,4,,,50,75
39984,note_on,,2,0,10,,,,,,,12,,,50,75
40030,note_on,,46,0,6,,,,,,,5,,,38,0
40030,note_on,,94,0,7,,,,,,,6,,,74,0
40030,note_on,,94,0,4,,,,,,,3,,,65,0
40030,note_on,,94,0,9,,,,,,,11,,,69,0
40030,note_on,,46,0,8,,,,,,,10,,,77,0
40030,note_on,,46,0,5,,,,,,,4,,,50,0
40030,note_on,,46,0,2,,,,,,,1,,,77,0
40030,note_on,,94,0,3,,,,,,,2,,,69,0
40030,note_on,,46,0,10,,,,,,,12,,,50,0
40032,note_on,,2,0,10,,,,,,,12,,,48,75
40032,note_on,,2,0,7,,,,,,,6,,,76,108
40032,note_on,,2,0,9,,,,,,,11,,,69,75
40032,note_on,,2,0,5,,,,,,,4,,,48,75
40032,note_on,,2,0,8,,,,,,,10,,,76,75
40032,note_on,,2,0,4,,,,,,,3,,,60,75
40032,note_on,,2,0,6,,,,,,,5,,,36,60
40032,note_on,,2,0,2,,,,,,,1,,,76,92
40032,note_on,,2,0,3,,,,,,,2,,,69,92
40126,note_on,,94,0,7,,,,,,,6,,,76,0
40126,note_on,,94,0,10,,,,,,,12,,,48,0
40126,note_on,,94,0,4,,,,,,,3,,,60,0
40126,note_on,,94,0,2,,,,,,,1,,,76,0
40126,note_on,,94,0,8,,,,,,,10,,,76,0
40126,note_on,,94,0,6,,,,,,,5,,,36,0
40126,note_on,,94,0,5,,,,,,,4,,,48,0
40126,note_on,,94,0,9,,,,,,,11,,,69,0
40126,note_on,,94,0,3,,,,,,,2,,,69,0
40128,note_on,,2,0,8,,,,,,,10,,,74,75
40128,note_on,,2,0,4,,,,,,,3,,,64,75
40128,note_on,,2,0,6,,,,,,,5,,,35,60
40128,note_on,,2,0,5,,,,,,,4,,,47,75
40128,note_on,,2,0,9,,,,,,,11,,,69,75
40128,note_on,,2,0,10,,,,,,,12,,,47,75
40128,note_on,,2,0,2,,,,,,,1,,,74,92
40128,note_on,,2,0,3,,,,,,,2,,,69,92
40128,note_on,,2,0,7,,,,,,,6,,,81,108
40174,note_on,,46,0,10,,,,,,,12,,,47,0
40174,note_on,,46,0,8,,,,,,,10,,,74,0
40174,note_on,,46,0,2,,,,,,,1,,,74,0
40174,note_on,,46,0,5,,,,,,,4,,,47,0
40174,note_on,,46,0,6,,,,,,,5,,,35,0
40176,note_on,,2,0,5,,,,,,,4,,,45,75
40176,note_on,,2,0,10,,,,,,,12,,,45,75
40176,note_on,,2,0,8,,,,,,,10,,,72,75
40176,note_on,,2,0,2,,,,,,,1,,,72,92
40176,note_on,,2,0,6,,,,,,,5,,,33,60
40222,note_on,,46,0,8,,,,,,,10,,,72,0
40222,note_on,,46,0,2,,,,,,,1,,,72,0
40222,note_on,,94,0,4,,,,,,,3,,,64,0
40222,note_on,,46,0,6,,,,,,,5,,,33,0
40222,note_on,,46,0,10,,,,,,,12,,,45,0
40222,note_on,,94,0,7,,,,,,,6,,,81,0
40222,note_on,,46,0,5,,,,,,,4,,,45,0
40224,note_on,,2,0,10,,,,,,,12,,,52,75
40224,note_on,,0,0,9,,,,,,,11,,,69,75
40224,note_on,,2,0,4,,,,,,,3,,,64,75
40224,note_on,,96,0,9,,,,,,,11,,,69,0
40224,note_on,,2,0,6,,,,,,,5,,,40,60
40224,note_on,,2,0,8,,,,,,,10,,,71,75
40224,note_on,,2,0,5,,,,,,,4,,,52,75
40224,note_on,,0,0,3,,,,,,,2,,,69,92
40224,note_on,,96,0,3,,,,,,,2,,,69,0
40224,note_on,,2,0,2,,,,,,,1,,,71,92
40224,note_on,,2,0,7,,,,,,,6,,,81,108
40236,note_on,,0,0,7,,,,,,,6,,,80,108
40236,note_on,,12,0,7,,,,,,,6,,,81,0
40248,note_on,,12,0,7,,,,,,,6,,,80,0
40248,note_on,,0,0,7,,,,,,,6,,,81,108
40260,note_on,,12,0,7,,,,,,,6,,,81,0
40260,note_on,,0,0,7,,,,,,,6,,,80,108
40272,note_on,,12,0,7,,,,,,,6,,,80,0
40272,note_on,,0,0,7,,,,,,,6,,,81,108
40284,note_on,,12,0,7,,,,,,,6,,,81,0
40284,note_on,,0,0,7,,,,,,,6,,,80,108
40296,note_on,,12,0,7,,,,,,,6,,,80,0
40296,note_on,,0,0,7,,,,,,,6,,,81,108
40308,note_on,,12,0,7,,,,,,,6,,,81,0
40308,note_on,,0,0,7,,,,,,,6,,,80,108
40318,note_on,,94,0,3,,,,,,,2,,,69,0
40318,note_on,,94,0,10,,,,,,,12,,,52,0
40318,note_on,,94,0,9,,,,,,,11,,,69,0
40318,note_on,,94,0,5,,,,,,,4,,,52,0
40318,note_on,,94,0,6,,,,,,,5,,,40,0
40318,note_on,,94,0,4,,,,,,,3,,,64,0
40320,note_on,,2,0,10,,,,,,,12,,,40,75
40320,note_on,,2,0,3,,,,,,,2,,,68,92
40320,note_on,,2,0,6,,,,,,,5,,,28,60
40320,note_on,,2,0,5,,,,,,,4,,,40,75
40320,note_on,,2,0,9,,,,,,,11,,,68,75
40320,note_on,,2,0,4,,,,,,,3,,,59,75
40366,note_on,,142,0,2,,,,,,,1,,,71,0
40366,note_on,,142,0,8,,,,,,,10,,,71,0
40366,note_on,,58,0,7,,,,,,,6,,,80,0
40368,note_on,,2,0,8,,,,,,,10,,,69,75
40368,note_on,,2,0,7,,,,,,,6,,,81,108
40368,note_on,,2,0,2,,,,,,,1,,,69,92
40414,note_on,,46,0,2,,,,,,,1,,,69,0
40414,note_on,,94,0,3,,,,,,,2,,,68,0
40414,note_on,,46,0,7,,,,,,,6,,,81,0
40414,note_on,,94,0,4,,,,,,,3,,,59,0
40414,note_on,,94,0,10,,,,,,,12,,,40,0
40414,note_on,,94,0,6,,,,,,,5,,,28,0
40414,note_on,,94,0,5,,,,,,,4,,,40,0
40414,note_on,,94,0,9,,,,,,,11,,,68,0
40414,note_on,,46,0,8,,,,,,,10,,,69,0
40416,note_on,,2,0,7,,,,,,,6,,,81,108
40416,note_on,,2,0,4,,,,,,,3,,,60,75
40416,note_on,,2,0,6,,,,,,,5,,,33,60
40416,note_on,,2,0,3,,,,,,,2,,,69,92
40416,note_on,,2,0,2,,,,,,,1,,,69,92
40416,note_on,,2,0,8,,,,,,,10,,,69,75
40416,note_on,,2,0,5,,,,,,,4,,,45,75
40416,note_on,,2,0,9,,,,,,,11,,,69,75
40416,note_on,,2,0,10,,,,,,,12,,,45,75
40752,end_of_track,,0,1,4,,,,,,,,,,,
40752,note_on,,336,0,10,,,,,,,12,,,45,0
40752,note_on,,336,0,6,,,,,,,5,,,33,0
40752,end_of_track,,0,1,6,,,,,,,,,,,
40752,note_on,,336,0,9,,,,,,,11,,,69,0
40752,end_of_track,,0,1,9,,,,,,,,,,,
40752,end_of_track,,0,1,8,,,,,,,,,,,
40752,note_on,,336,0,8,,,,,,,10,,,69,0
40752,end_of_track,,0,1,10,,,,,,,,,,,
40752,note_on,,336,0,4,,,,,,,3,,,60,0
40752,end_of_track,,0,1,3,,,,,,,,,,,
40752,note_on,,336,0,5,,,,,,,4,,,45,0
40752,end_of_track,,0,1,5,,,,,,,,,,,
40752,note_on,,336,0,3,,,,,,,2,,,69,0
40752,end_of_track,,0,1,2,,,,,,,,,,,
40752,note_on,,336,0,2,,,,,,,1,,,69,0
40752,end_of_track,,0,1,7,,,,,,,,,,,
40752,note_on,,336,0,7,,,,,,,6,,,81,0
