tick,type,tempo,time,meta,track,key,numerator,denominator,clocks_per_click,notated_32nd_notes_per_beat,port,program,channel,control,value,note,velocity
0,set_tempo,1500000,0,1,0,,,,,,,,,,,,
0,program_change,,0,0,6,,,,,,,48,5,,,,
0,control_change,,0,0,6,,,,,,,,5,7,127,,
0,control_change,,0,0,6,,,,,,,,5,10,104,,
0,key_signature,,0,1,6,Eb,,,,,,,,,,,
0,time_signature,,0,1,6,,1,4,24,8,,,,,,,
0,track_name,,0,1,6,,,,,,,,,,,,
0,midi_port,,0,1,7,,,,,,0,,,,,,
0,program_change,,0,0,7,,,,,,,41,6,,,,
0,control_change,,0,0,7,,,,,,,,6,7,127,,
0,control_change,,0,0,7,,,,,,,,6,10,104,,
0,key_signature,,0,1,7,Eb,,,,,,,,,,,
0,time_signature,,0,1,7,,1,4,24,8,,,,,,,
0,track_name,,0,1,7,,,,,,,,,,,,
0,track_name,,0,1,18,,,,,,,,,,,,
0,midi_port,,0,1,8,,,,,,0,,,,,,
0,program_change,,0,0,8,,,,,,,42,7,,,,
0,control_change,,0,0,8,,,,,,,,7,7,127,,
0,control_change,,0,0,8,,,,,,,,7,10,24,,
0,key_signature,,0,1,8,Eb,,,,,,,,,,,
0,time_signature,,0,1,8,,1,4,24,8,,,,,,,
0,track_name,,0,1,8,,,,,,,,,,,,
0,midi_port,,0,1,9,,,,,,0,,,,,,
0,program_change,,0,0,9,,,,,,,43,8,,,,
0,midi_port,,0,1,6,,,,,,0,,,,,,
0,control_change,,0,0,9,,,,,,,,8,7,127,,
0,track_name,,0,1,5,,,,,,,,,,,,
0,key_signature,,0,1,5,Eb,,,,,,,,,,,
0,control_change,,0,0,2,,,,,,,,1,7,127,,
0,control_change,,0,0,2,,,,,,,,1,10,104,,
0,key_signature,,0,1,2,Eb,,,,,,,,,,,
0,time_signature,,0,1,2,,1,4,24,8,,,,,,,
0,track_name,,0,1,2,,,,,,,,,,,,
0,midi_port,,0,1,3,,,,,,0,,,,,,
0,program_change,,0,0,3,,,,,,,52,2,,,,
0,control_change,,0,0,3,,,,,,,,2,7,127,,
0,control_change,,0,0,3,,,,,,,,2,10,24,,
0,key_signature,,0,1,3,Eb,,,,,,,,,,,
0,time_signature,,0,1,3,,1,4,24,8,,,,,,,
0,track_name,,0,1,3,,,,,,,,,,,,
0,midi_port,,0,1,4,,,,,,0,,,,,,
0,program_change,,0,0,4,,,,,,,52,3,,,,
0,control_change,,0,0,4,,,,,,,,3,7,127,,
0,control_change,,0,0,4,,,,,,,,3,10,104,,
0,key_signature,,0,1,4,Eb,,,,,,,,,,,
0,time_signature,,0,1,4,,1,4,24,8,,,,,,,
0,track_name,,0,1,4,,,,,,,,,,,,
0,midi_port,,0,1,5,,,,,,0,,,,,,
0,program_change,,0,0,5,,,,,,,48,4,,,,
0,control_change,,0,0,5,,,,,,,,4,7,127,,
0,control_change,,0,0,5,,,,,,,,4,10,24,,
0,time_signature,,0,1,5,,1,4,24,8,,,,,,,
0,program_change,,0,0,2,,,,,,,52,1,,,,
0,control_change,,0,0,9,,,,,,,,8,10,64,,
0,time_signature,,0,1,9,,1,4,24,8,,,,,,,
0,midi_port,,0,1,14,,,,,,0,,,,,,
0,control_change,,0,0,14,,,,,,,,9,7,127,,
0,control_change,,0,0,14,,,,,,,,9,10,64,,
0,track_name,,0,1,14,,,,,,,,,,,,
0,end_of_track,,0,1,14,,,,,,,,,,,,
0,midi_port,,0,1,15,,,,,,0,,,,,,
0,control_change,,0,0,15,,,,,,,,9,7,127,,
0,control_change,,0,0,15,,,,,,,,9,10,64,,
0,track_name,,0,1,15,,,,,,,,,,,,
0,end_of_track,,0,1,15,,,,,,,,,,,,
0,midi_port,,0,1,16,,,,,,0,,,,,,
0,control_change,,0,0,16,,,,,,,,9,7,127,,
0,control_change,,0,0,16,,,,,,,,9,10,64,,
0,track_name,,0,1,16,,,,,,,,,,,,
0,end_of_track,,0,1,16,,,,,,,,,,,,
0,midi_port,,0,1,17,,,,,,0,,,,,,
0,control_change,,0,0,17,,,,,,,,9,7,127,,
0,control_change,,0,0,17,,,,,,,,9,10,64,,
0,track_name,,0,1,17,,,,,,,,,,,,
0,end_of_track,,0,1,17,,,,,,,,,,,,
0,midi_port,,0,1,18,,,,,,0,,,,,,
0,control_change,,0,0,18,,,,,,,,9,7,127,,
0,control_change,,0,0,18,,,,,,,,9,10,64,,
0,end_of_track,,0,1,13,,,,,,,,,,,,
0,key_signature,,0,1,9,Eb,,,,,,,,,,,
0,track_name,,0,1,13,,,,,,,,,,,,
0,control_change,,0,0,13,,,,,,,,9,7,127,,
0,track_name,,0,1,9,,,,,,,,,,,,
0,midi_port,,0,1,10,,,,,,0,,,,,,
0,program_change,,0,0,10,,,,,,,68,10,,,,
0,control_change,,0,0,10,,,,,,,,10,7,127,,
0,control_change,,0,0,10,,,,,,,,10,10,24,,
0,key_signature,,0,1,10,Eb,,,,,,,,,,,
0,time_signature,,0,1,10,,1,4,24,8,,,,,,,
0,track_name,,0,1,10,,,,,,,,,,,,
0,midi_port,,0,1,11,,,,,,0,,,,,,
0,program_change,,0,0,11,,,,,,,68,11,,,,
0,control_change,,0,0,11,,,,,,,,11,7,127,,
0,control_change,,0,0,11,,,,,,,,11,10,104,,
0,key_signature,,0,1,11,Eb,,,,,,,,,,,
0,time_signature,,0,1,11,,1,4,24,8,,,,,,,
0,track_name,,0,1,11,,,,,,,,,,,,
0,midi_port,,0,1,12,,,,,,0,,,,,,
0,program_change,,0,0,12,,,,,,,70,12,,,,
0,control_change,,0,0,12,,,,,,,,12,7,127,,
0,control_change,,0,0,12,,,,,,,,12,10,104,,
0,key_signature,,0,1,12,Eb,,,,,,,,,,,
0,time_signature,,0,1,12,,1,4,24,8,,,,,,,
0,track_name,,0,1,12,,,,,,,,,,,,
0,midi_port,,0,1,13,,,,,,0,,,,,,
0,control_change,,0,0,13,,,,,,,,9,10,64,,
0,midi_port,,0,1,2,,,,,,0,,,,,,
0,end_of_track,,0,1,18,,,,,,,,,,,,
0,key_signature,,0,1,0,Eb,,,,,,,,,,,
0,time_signature,,0,1,0,,1,4,24,8,,,,,,,
0,track_name,,0,1,0,,,,,,,,,,,,
0,text,,0,1,0,,,,,,,,,,,,
0,text,,0,1,0,,,,,,,,,,,,
0,copyright,,0,1,0,,,,,,,,,,,,
0,copyright,,0,1,0,,,,,,,,,,,,
0,track_name,,0,1,1,,,,,,,,,,,,
0,midi_port,,0,1,1,,,,,,0,,,,,,
0,program_change,,0,0,1,,,,,,,52,0,,,,
0,control_change,,0,0,1,,,,,,,,0,7,127,,
0,control_change,,0,0,1,,,,,,,,0,10,24,,
0,key_signature,,0,1,1,Eb,,,,,,,,,,,
0,time_signature,,0,1,1,,1,4,24,8,,,,,,,
96,note_on,,96,0,9,,,,,,,,8,,,36,92
96,note_on,,96,0,6,,,,,,,,5,,,63,108
96,note_on,,96,0,5,,,,,,,,4,,,67,108
96,note_on,,96,0,7,,,,,,,,6,,,60,92
96,note_on,,96,0,8,,,,,,,,7,,,48,92
96,note_on,,96,0,12,,,,,,,,12,,,48,92
190,note_on,,94,0,7,,,,,,,,6,,,60,0
190,note_on,,94,0,8,,,,,,,,7,,,48,0
190,note_on,,94,0,12,,,,,,,,12,,,48,0
190,note_on,,94,0,6,,,,,,,,5,,,63,0
190,note_on,,94,0,5,,,,,,,,4,,,67,0
190,note_on,,94,0,9,,,,,,,,8,,,36,0
192,time_signature,,2,1,9,,4,4,24,8,,,,,,,
192,note_on,,0,0,9,,,,,,,,8,,,48,92
192,time_signature,,192,1,11,,4,4,24,8,,,,,,,
192,time_signature,,192,1,2,,4,4,24,8,,,,,,,
192,time_signature,,192,1,3,,4,4,24,8,,,,,,,
192,time_signature,,2,1,5,,4,4,24,8,,,,,,,
192,note_on,,0,0,8,,,,,,,,7,,,60,127
192,time_signature,,2,1,8,,4,4,24,8,,,,,,,
192,note_on,,0,0,6,,,,,,,,5,,,63,127
192,note_on,,0,0,12,,,,,,,,12,,,60,127
192,time_signature,,192,1,0,,4,4,24,8,,,,,,,
192,time_signature,,192,1,1,,4,4,24,8,,,,,,,
192,time_signature,,2,1,12,,4,4,24,8,,,,,,,
192,time_signature,,2,1,6,,4,4,24,8,,,,,,,
192,note_on,,0,0,5,,,,,,,,4,,,72,127
192,time_signature,,192,1,10,,4,4,24,8,,,,,,,
192,note_on,,0,0,7,,,,,,,,6,,,67,127
192,time_signature,,2,1,7,,4,4,24,8,,,,,,,
192,time_signature,,192,1,4,,4,4,24,8,,,,,,,
288,note_on,,0,0,6,,,,,,,,5,,,67,127
288,note_on,,0,0,7,,,,,,,,6,,,63,127
288,note_on,,96,0,7,,,,,,,,6,,,67,0
288,note_on,,0,0,9,,,,,,,,8,,,46,92
288,note_on,,96,0,12,,,,,,,,12,,,60,0
288,note_on,,96,0,9,,,,,,,,8,,,48,0
288,note_on,,0,0,5,,,,,,,,4,,,72,127
288,note_on,,0,0,8,,,,,,,,7,,,58,127
288,note_on,,96,0,5,,,,,,,,4,,,72,0
288,note_on,,96,0,8,,,,,,,,7,,,60,0
288,note_on,,96,0,6,,,,,,,,5,,,63,0
288,note_on,,0,0,12,,,,,,,,12,,,58,127
384,note_on,,96,0,12,,,,,,,,12,,,58,0
384,note_on,,0,0,8,,,,,,,,7,,,56,127
384,note_on,,96,0,8,,,,,,,,7,,,58,0
384,note_on,,0,0,12,,,,,,,,12,,,56,127
384,note_on,,96,0,7,,,,,,,,6,,,63,0
384,note_on,,0,0,9,,,,,,,,8,,,44,92
384,note_on,,0,0,7,,,,,,,,6,,,65,127
384,note_on,,0,0,5,,,,,,,,4,,,72,127
384,note_on,,96,0,5,,,,,,,,4,,,72,0
384,note_on,,96,0,6,,,,,,,,5,,,67,0
384,note_on,,0,0,6,,,,,,,,5,,,72,127
384,note_on,,96,0,9,,,,,,,,8,,,46,0
480,note_on,,96,0,7,,,,,,,,6,,,65,0
480,note_on,,0,0,7,,,,,,,,6,,,63,127
480,note_on,,0,0,5,,,,,,,,4,,,72,127
480,note_on,,96,0,5,,,,,,,,4,,,72,0
480,note_on,,96,0,6,,,,,,,,5,,,72,0
480,note_on,,0,0,6,,,,,,,,5,,,67,127
480,note_on,,96,0,8,,,,,,,,7,,,56,0
480,note_on,,0,0,9,,,,,,,,8,,,43,92
480,note_on,,96,0,9,,,,,,,,8,,,44,0
480,note_on,,96,0,12,,,,,,,,12,,,56,0
480,note_on,,0,0,12,,,,,,,,12,,,55,127
480,note_on,,0,0,8,,,,,,,,7,,,55,127
576,note_on,,0,0,9,,,,,,,,8,,,44,92
576,note_on,,96,0,7,,,,,,,,6,,,63,0
576,note_on,,0,0,7,,,,,,,,6,,,65,127
576,note_on,,0,0,5,,,,,,,,4,,,72,108
576,note_on,,96,0,5,,,,,,,,4,,,72,0
576,note_on,,96,0,12,,,,,,,,12,,,55,0
576,note_on,,0,0,12,,,,,,,,12,,,56,127
576,note_on,,0,0,8,,,,,,,,7,,,56,127
576,note_on,,96,0,6,,,,,,,,5,,,67,0
576,note_on,,0,0,6,,,,,,,,5,,,72,127
576,note_on,,96,0,8,,,,,,,,7,,,55,0
576,note_on,,96,0,9,,,,,,,,8,,,43,0
672,note_on,,0,0,12,,,,,,,,12,,,55,127
672,note_on,,0,0,8,,,,,,,,7,,,55,127
672,note_on,,96,0,8,,,,,,,,7,,,56,0
672,note_on,,96,0,9,,,,,,,,8,,,44,0
672,note_on,,0,0,9,,,,,,,,8,,,43,92
672,note_on,,96,0,12,,,,,,,,12,,,56,0
672,note_on,,0,0,7,,,,,,,,6,,,67,127
672,note_on,,96,0,7,,,,,,,,6,,,65,0
672,note_on,,96,0,6,,,,,,,,5,,,72,0
672,note_on,,0,0,6,,,,,,,,5,,,63,127
768,note_on,,0,0,6,,,,,,,,5,,,68,127
768,note_on,,96,0,6,,,,,,,,5,,,63,0
768,note_on,,96,0,12,,,,,,,,12,,,55,0
768,note_on,,0,0,12,,,,,,,,12,,,53,127
768,note_on,,0,0,9,,,,,,,,8,,,41,92
768,note_on,,96,0,9,,,,,,,,8,,,43,0
768,note_on,,0,0,8,,,,,,,,7,,,53,127
768,note_on,,96,0,8,,,,,,,,7,,,55,0
768,note_on,,0,0,7,,,,,,,,6,,,68,127
768,note_on,,96,0,7,,,,,,,,6,,,67,0
864,note_on,,0,0,7,,,,,,,,6,,,60,127
864,note_on,,96,0,9,,,,,,,,8,,,41,0
864,note_on,,0,0,8,,,,,,,,7,,,51,127
864,note_on,,96,0,8,,,,,,,,7,,,53,0
864,note_on,,96,0,6,,,,,,,,5,,,68,0
864,note_on,,0,0,6,,,,,,,,5,,,67,127
864,note_on,,288,0,5,,,,,,,,4,,,72,0
864,note_on,,96,0,7,,,,,,,,6,,,68,0
864,note_on,,0,0,9,,,,,,,,8,,,39,92
864,note_on,,0,0,12,,,,,,,,12,,,51,127
864,note_on,,96,0,12,,,,,,,,12,,,53,0
864,note_on,,0,0,5,,,,,,,,4,,,67,108
960,note_on,,96,0,6,,,,,,,,5,,,67,0
960,note_on,,0,0,6,,,,,,,,5,,,65,108
960,note_on,,0,0,12,,,,,,,,12,,,56,92
960,note_on,,96,0,12,,,,,,,,12,,,51,0
960,note_on,,0,0,9,,,,,,,,8,,,44,92
960,note_on,,96,0,9,,,,,,,,8,,,39,0
960,note_on,,0,0,8,,,,,,,,7,,,56,92
960,note_on,,0,0,7,,,,,,,,6,,,60,92
960,note_on,,96,0,7,,,,,,,,6,,,60,0
960,note_on,,96,0,5,,,,,,,,4,,,67,0
960,note_on,,0,0,5,,,,,,,,4,,,72,108
960,note_on,,96,0,8,,,,,,,,7,,,51,0
1008,note_on,,48,0,5,,,,,,,,4,,,72,0
1008,note_on,,0,0,5,,,,,,,,4,,,74,108
1032,note_on,,0,0,5,,,,,,,,4,,,75,108
1032,note_on,,24,0,5,,,,,,,,4,,,74,0
1056,note_on,,0,0,9,,,,,,,,8,,,41,92
1056,note_on,,24,0,5,,,,,,,,4,,,75,0
1056,note_on,,0,0,5,,,,,,,,4,,,74,108
1056,note_on,,96,0,7,,,,,,,,6,,,60,0
1056,note_on,,0,0,6,,,,,,,,5,,,68,108
1056,note_on,,96,0,6,,,,,,,,5,,,65,0
1056,note_on,,0,0,12,,,,,,,,12,,,53,92
1056,note_on,,0,0,7,,,,,,,,6,,,62,92
1056,note_on,,96,0,12,,,,,,,,12,,,56,0
1056,note_on,,96,0,8,,,,,,,,7,,,56,0
1056,note_on,,0,0,8,,,,,,,,7,,,53,92
1056,note_on,,96,0,9,,,,,,,,8,,,44,0
1104,note_on,,0,0,5,,,,,,,,4,,,72,108
1104,note_on,,48,0,5,,,,,,,,4,,,74,0
1152,note_on,,0,0,7,,,,,,,,6,,,62,92
1152,note_on,,48,0,5,,,,,,,,4,,,72,0
1152,note_on,,0,0,12,,,,,,,,12,,,55,92
1152,note_on,,96,0,12,,,,,,,,12,,,53,0
1152,note_on,,96,0,7,,,,,,,,6,,,62,0
1152,note_on,,0,0,6,,,,,,,,5,,,59,108
1152,note_on,,0,0,5,,,,,,,,4,,,67,108
1152,note_on,,0,0,8,,,,,,,,7,,,55,92
1152,note_on,,0,0,9,,,,,,,,8,,,43,92
1152,note_on,,96,0,9,,,,,,,,8,,,41,0
1152,note_on,,96,0,8,,,,,,,,7,,,53,0
1152,note_on,,96,0,6,,,,,,,,5,,,68,0
1248,note_on,,96,0,7,,,,,,,,6,,,62,0
1248,note_on,,0,0,7,,,,,,,,6,,,55,92
1248,note_on,,0,0,12,,,,,,,,12,,,43,92
1248,note_on,,96,0,12,,,,,,,,12,,,55,0
1248,note_on,,96,0,5,,,,,,,,4,,,67,0
1248,note_on,,96,0,6,,,,,,,,5,,,59,0
1248,note_on,,0,0,6,,,,,,,,5,,,59,108
1248,note_on,,96,0,9,,,,,,,,8,,,43,0
1248,note_on,,0,0,9,,,,,,,,8,,,31,92
1248,note_on,,0,0,5,,,,,,,,4,,,63,108
1248,note_on,,0,0,8,,,,,,,,7,,,43,92
1248,note_on,,96,0,8,,,,,,,,7,,,55,0
1320,note_on,,0,0,5,,,,,,,,4,,,62,108
1320,note_on,,72,0,5,,,,,,,,4,,,63,0
1344,note_on,,96,0,6,,,,,,,,5,,,59,0
1344,note_on,,96,0,9,,,,,,,,8,,,31,0
1344,note_on,,0,0,9,,,,,,,,8,,,36,92
1344,note_on,,0,0,6,,,,,,,,5,,,60,108
1344,note_on,,24,0,5,,,,,,,,4,,,62,0
1344,note_on,,0,0,5,,,,,,,,4,,,60,108
1344,note_on,,96,0,12,,,,,,,,12,,,43,0
1344,note_on,,0,0,7,,,,,,,,6,,,55,92
1344,note_on,,0,0,12,,,,,,,,12,,,48,92
1344,note_on,,0,0,8,,,,,,,,7,,,48,92
1344,note_on,,96,0,8,,,,,,,,7,,,43,0
1344,note_on,,96,0,7,,,,,,,,6,,,55,0
1536,note_on,,192,0,12,,,,,,,,12,,,48,0
1536,note_on,,192,0,9,,,,,,,,8,,,36,0
1536,note_on,,192,0,6,,,,,,,,5,,,60,0
1536,note_on,,192,0,8,,,,,,,,7,,,48,0
1536,note_on,,192,0,7,,,,,,,,6,,,55,0
1536,note_on,,192,0,5,,,,,,,,4,,,60,0
1632,note_on,,96,0,9,,,,,,,,8,,,31,45
1632,note_on,,96,0,6,,,,,,,,5,,,55,60
1632,note_on,,96,0,7,,,,,,,,6,,,55,45
1632,note_on,,96,0,8,,,,,,,,7,,,43,45
1632,note_on,,96,0,12,,,,,,,,12,,,43,45
1632,note_on,,96,0,5,,,,,,,,4,,,55,60
1728,note_on,,96,0,8,,,,,,,,7,,,43,0
1728,note_on,,0,0,12,,,,,,,,12,,,48,45
1728,note_on,,96,0,12,,,,,,,,12,,,43,0
1728,note_on,,96,0,5,,,,,,,,4,,,55,0
1728,note_on,,0,0,9,,,,,,,,8,,,36,45
1728,note_on,,0,0,6,,,,,,,,5,,,60,60
1728,note_on,,96,0,6,,,,,,,,5,,,55,0
1728,note_on,,0,0,5,,,,,,,,4,,,60,60
1728,note_on,,0,0,7,,,,,,,,6,,,60,45
1728,note_on,,96,0,7,,,,,,,,6,,,55,0
1728,note_on,,96,0,9,,,,,,,,8,,,31,0
1728,note_on,,0,0,8,,,,,,,,7,,,48,45
1824,note_on,,0,0,6,,,,,,,,5,,,60,60
1824,note_on,,96,0,8,,,,,,,,7,,,48,0
1824,note_on,,96,0,6,,,,,,,,5,,,60,0
1824,note_on,,96,0,5,,,,,,,,4,,,60,0
1824,note_on,,96,0,12,,,,,,,,12,,,48,0
1824,note_on,,0,0,5,,,,,,,,4,,,60,60
1824,note_on,,0,0,7,,,,,,,,6,,,60,45
1824,note_on,,96,0,7,,,,,,,,6,,,60,0
1824,note_on,,96,0,9,,,,,,,,8,,,36,0
1824,note_on,,0,0,9,,,,,,,,8,,,36,45
1824,note_on,,0,0,8,,,,,,,,7,,,48,45
1824,note_on,,0,0,12,,,,,,,,12,,,48,45
1920,note_on,,96,0,6,,,,,,,,5,,,60,0
1920,note_on,,0,0,6,,,,,,,,5,,,60,60
1920,note_on,,0,0,5,,,,,,,,4,,,60,60
1920,note_on,,0,0,12,,,,,,,,12,,,48,45
1920,note_on,,96,0,9,,,,,,,,8,,,36,0
1920,note_on,,96,0,8,,,,,,,,7,,,48,0
1920,note_on,,0,0,8,,,,,,,,7,,,48,45
1920,note_on,,0,0,7,,,,,,,,6,,,60,45
1920,note_on,,96,0,7,,,,,,,,6,,,60,0
1920,note_on,,96,0,12,,,,,,,,12,,,48,0
1920,note_on,,96,0,5,,,,,,,,4,,,60,0
1920,note_on,,0,0,9,,,,,,,,8,,,36,45
2016,note_on,,0,0,12,,,,,,,,12,,,48,45
2016,note_on,,96,0,12,,,,,,,,12,,,48,0
2016,note_on,,0,0,6,,,,,,,,5,,,60,60
2016,note_on,,96,0,6,,,,,,,,5,,,60,0
2016,note_on,,96,0,9,,,,,,,,8,,,36,0
2016,note_on,,96,0,7,,,,,,,,6,,,60,0
2016,note_on,,0,0,7,,,,,,,,6,,,60,45
2016,note_on,,0,0,8,,,,,,,,7,,,48,45
2016,note_on,,96,0,8,,,,,,,,7,,,48,0
2016,note_on,,0,0,9,,,,,,,,8,,,36,45
2016,note_on,,0,0,5,,,,,,,,4,,,60,60
2016,note_on,,96,0,5,,,,,,,,4,,,60,0
2112,note_on,,96,0,9,,,,,,,,8,,,36,0
2112,note_on,,0,0,9,,,,,,,,8,,,36,45
2112,note_on,,0,0,5,,,,,,,,4,,,60,60
2112,note_on,,96,0,5,,,,,,,,4,,,60,0
2112,note_on,,1920,0,2,,,,,,,,1,,,60,75
2112,note_on,,0,0,12,,,,,,,,12,,,48,45
2112,note_on,,96,0,12,,,,,,,,12,,,48,0
2112,note_on,,1920,0,1,,,,,,,,0,,,63,75
2112,note_on,,1920,0,3,,,,,,,,2,,,55,75
2112,note_on,,96,0,6,,,,,,,,5,,,60,0
2112,note_on,,0,0,8,,,,,,,,7,,,48,45
2112,note_on,,96,0,8,,,,,,,,7,,,48,0
2112,note_on,,96,0,7,,,,,,,,6,,,60,0
2112,note_on,,0,0,6,,,,,,,,5,,,60,60
2112,note_on,,0,0,7,,,,,,,,6,,,60,45
2112,note_on,,1920,0,4,,,,,,,,3,,,48,75
2304,note_on,,192,0,6,,,,,,,,5,,,60,0
2304,note_on,,192,0,7,,,,,,,,6,,,60,0
2304,note_on,,192,0,9,,,,,,,,8,,,36,0
2304,note_on,,192,0,5,,,,,,,,4,,,60,0
2304,note_on,,192,0,12,,,,,,,,12,,,48,0
2304,note_on,,192,0,8,,,,,,,,7,,,48,0
2400,note_on,,96,0,9,,,,,,,,8,,,36,92
2400,note_on,,96,0,5,,,,,,,,4,,,67,108
2400,note_on,,96,0,12,,,,,,,,12,,,48,92
2400,note_on,,96,0,8,,,,,,,,7,,,48,92
2400,note_on,,96,0,7,,,,,,,,6,,,60,92
2400,note_on,,96,0,6,,,,,,,,5,,,67,108
2496,note_on,,96,0,5,,,,,,,,4,,,67,0
2496,note_on,,0,0,5,,,,,,,,4,,,72,108
2496,note_on,,96,0,6,,,,,,,,5,,,67,0
2496,note_on,,384,0,1,,,,,,,,0,,,63,0
2496,note_on,,0,0,6,,,,,,,,5,,,72,108
2496,note_on,,384,0,2,,,,,,,,1,,,60,0
2496,note_on,,0,0,7,,,,,,,,6,,,63,92
2496,note_on,,0,0,9,,,,,,,,8,,,48,92
2496,note_on,,96,0,8,,,,,,,,7,,,48,0
2496,note_on,,0,0,8,,,,,,,,7,,,60,92
2496,note_on,,96,0,9,,,,,,,,8,,,36,0
2496,note_on,,384,0,3,,,,,,,,2,,,55,0
2496,note_on,,96,0,7,,,,,,,,6,,,60,0
2496,note_on,,0,0,12,,,,,,,,12,,,60,92
2496,note_on,,96,0,12,,,,,,,,12,,,48,0
2496,note_on,,384,0,4,,,,,,,,3,,,48,0
2592,note_on,,0,0,9,,,,,,,,8,,,46,92
2592,note_on,,96,0,9,,,,,,,,8,,,48,0
2592,note_on,,0,0,12,,,,,,,,12,,,58,92
2592,note_on,,96,0,12,,,,,,,,12,,,60,0
2592,note_on,,0,0,5,,,,,,,,4,,,72,108
2592,note_on,,96,0,7,,,,,,,,6,,,63,0
2592,note_on,,96,0,6,,,,,,,,5,,,72,0
2592,note_on,,0,0,8,,,,,,,,7,,,58,92
2592,note_on,,96,0,8,,,,,,,,7,,,60,0
2592,note_on,,0,0,7,,,,,,,,6,,,67,92
2592,note_on,,0,0,6,,,,,,,,5,,,72,108
2592,note_on,,96,0,5,,,,,,,,4,,,72,0
2688,note_on,,0,0,8,,,,,,,,7,,,56,92
2688,note_on,,96,0,8,,,,,,,,7,,,58,0
2688,note_on,,96,0,12,,,,,,,,12,,,58,0
2688,note_on,,96,0,7,,,,,,,,6,,,67,0
2688,note_on,,96,0,9,,,,,,,,8,,,46,0
2688,note_on,,0,0,12,,,,,,,,12,,,56,92
2688,note_on,,96,0,6,,,,,,,,5,,,72,0
2688,note_on,,0,0,6,,,,,,,,5,,,72,108
2688,note_on,,0,0,7,,,,,,,,6,,,65,92
2688,note_on,,0,0,5,,,,,,,,4,,,72,108
2688,note_on,,96,0,5,,,,,,,,4,,,72,0
2688,note_on,,0,0,9,,,,,,,,8,,,44,92
2784,note_on,,96,0,12,,,,,,,,12,,,56,0
2784,note_on,,96,0,6,,,,,,,,5,,,72,0
2784,note_on,,0,0,6,,,,,,,,5,,,72,108
2784,note_on,,0,0,5,,,,,,,,4,,,72,108
2784,note_on,,96,0,5,,,,,,,,4,,,72,0
2784,note_on,,96,0,8,,,,,,,,7,,,56,0
2784,note_on,,0,0,9,,,,,,,,8,,,43,92
2784,note_on,,96,0,9,,,,,,,,8,,,44,0
2784,note_on,,96,0,7,,,,,,,,6,,,65,0
2784,note_on,,0,0,7,,,,,,,,6,,,63,92
2784,note_on,,0,0,12,,,,,,,,12,,,55,92
2784,note_on,,0,0,8,,,,,,,,7,,,55,92
2880,note_on,,96,0,5,,,,,,,,4,,,72,0
2880,note_on,,0,0,5,,,,,,,,4,,,72,108
2880,note_on,,0,0,12,,,,,,,,12,,,56,92
2880,note_on,,96,0,12,,,,,,,,12,,,55,0
2880,note_on,,96,0,8,,,,,,,,7,,,55,0
2880,note_on,,2688,0,11,,,,,,,,11,,,72,92
2880,note_on,,0,0,8,,,,,,,,7,,,56,92
2880,note_on,,96,0,6,,,,,,,,5,,,72,0
2880,note_on,,0,0,6,,,,,,,,5,,,72,108
2880,note_on,,384,0,1,,,,,,,,0,,,72,127
2880,note_on,,0,0,9,,,,,,,,8,,,44,92
2880,note_on,,96,0,9,,,,,,,,8,,,43,0
2880,note_on,,0,0,7,,,,,,,,6,,,65,92
2880,note_on,,96,0,7,,,,,,,,6,,,63,0
2880,note_on,,2688,0,10,,,,,,,,10,,,72,92
2976,note_on,,0,0,9,,,,,,,,8,,,43,92
2976,note_on,,96,0,9,,,,,,,,8,,,44,0
2976,note_on,,0,0,12,,,,,,,,12,,,55,92
2976,note_on,,96,0,7,,,,,,,,6,,,65,0
2976,note_on,,0,0,7,,,,,,,,6,,,63,92
2976,note_on,,0,0,8,,,,,,,,7,,,55,92
2976,note_on,,96,0,8,,,,,,,,7,,,56,0
2976,note_on,,96,0,12,,,,,,,,12,,,56,0
3072,note_on,,0,0,8,,,,,,,,7,,,53,92
3072,note_on,,96,0,8,,,,,,,,7,,,55,0
3072,note_on,,96,0,9,,,,,,,,8,,,43,0
3072,note_on,,0,0,9,,,,,,,,8,,,41,92
3072,note_on,,192,0,6,,,,,,,,5,,,72,0
3072,note_on,,192,0,5,,,,,,,,4,,,72,0
3072,note_on,,0,0,7,,,,,,,,6,,,68,92
3072,note_on,,96,0,7,,,,,,,,6,,,63,0
3072,note_on,,0,0,12,,,,,,,,12,,,53,92
3072,note_on,,96,0,12,,,,,,,,12,,,55,0
3168,note_on,,96,0,7,,,,,,,,6,,,68,0
3168,note_on,,96,0,12,,,,,,,,12,,,53,0
3168,note_on,,96,0,6,,,,,,,,5,,,72,108
3168,note_on,,96,0,5,,,,,,,,4,,,72,108
3168,note_on,,96,0,8,,,,,,,,7,,,53,0
3168,note_on,,0,0,8,,,,,,,,7,,,51,92
3168,note_on,,96,0,9,,,,,,,,8,,,41,0
3168,note_on,,0,0,9,,,,,,,,8,,,39,92
3168,note_on,,0,0,12,,,,,,,,12,,,51,92
3168,note_on,,0,0,7,,,,,,,,6,,,67,92
3264,note_on,,0,0,8,,,,,,,,7,,,63,92
3264,note_on,,96,0,8,,,,,,,,7,,,51,0
3264,note_on,,0,0,7,,,,,,,,6,,,67,92
3264,note_on,,96,0,7,,,,,,,,6,,,67,0
3264,note_on,,0,0,12,,,,,,,,12,,,63,92
3264,note_on,,0,0,5,,,,,,,,4,,,72,108
3264,note_on,,96,0,12,,,,,,,,12,,,51,0
3264,note_on,,96,0,9,,,,,,,,8,,,39,0
3264,note_on,,768,0,2,,,,,,,,1,,,67,127
3264,note_on,,768,0,3,,,,,,,,2,,,63,127
3264,note_on,,768,0,4,,,,,,,,3,,,60,127
3264,note_on,,96,0,6,,,,,,,,5,,,72,0
3264,note_on,,0,0,6,,,,,,,,5,,,72,108
3264,note_on,,96,0,5,,,,,,,,4,,,72,0
3264,note_on,,0,0,9,,,,,,,,8,,,51,92
3312,note_on,,48,0,6,,,,,,,,5,,,72,0
3312,note_on,,0,0,6,,,,,,,,5,,,74,108
3312,note_on,,48,0,5,,,,,,,,4,,,72,0
3312,note_on,,0,0,5,,,,,,,,4,,,74,108
3336,note_on,,24,0,5,,,,,,,,4,,,74,0
3336,note_on,,0,0,5,,,,,,,,4,,,75,108
3336,note_on,,0,0,6,,,,,,,,5,,,75,108
3336,note_on,,24,0,6,,,,,,,,5,,,74,0
3360,note_on,,0,0,9,,,,,,,,8,,,48,92
3360,note_on,,24,0,5,,,,,,,,4,,,75,0
3360,note_on,,0,0,5,,,,,,,,4,,,74,108
3360,note_on,,96,0,9,,,,,,,,8,,,51,0
3360,note_on,,0,0,7,,,,,,,,6,,,72,92
3360,note_on,,96,0,7,,,,,,,,6,,,67,0
3360,note_on,,0,0,8,,,,,,,,7,,,60,92
3360,note_on,,96,0,8,,,,,,,,7,,,63,0
3360,note_on,,24,0,6,,,,,,,,5,,,75,0
3360,note_on,,96,0,12,,,,,,,,12,,,63,0
3360,note_on,,0,0,12,,,,,,,,12,,,60,92
3360,note_on,,0,0,6,,,,,,,,5,,,74,108
3408,note_on,,48,0,6,,,,,,,,5,,,74,0
3408,note_on,,48,0,5,,,,,,,,4,,,74,0
3408,note_on,,0,0,6,,,,,,,,5,,,72,108
3408,note_on,,0,0,5,,,,,,,,4,,,72,108
3456,note_on,,48,0,5,,,,,,,,4,,,72,0
3456,note_on,,0,0,5,,,,,,,,4,,,67,108
3456,note_on,,0,0,6,,,,,,,,5,,,67,108
3456,note_on,,48,0,6,,,,,,,,5,,,72,0
3456,note_on,,576,0,1,,,,,,,,0,,,72,0
3456,note_on,,192,0,2,,,,,,,,1,,,67,0
3456,note_on,,0,0,8,,,,,,,,7,,,55,92
3456,note_on,,96,0,7,,,,,,,,6,,,72,0
3456,note_on,,0,0,9,,,,,,,,8,,,43,92
3456,note_on,,0,0,7,,,,,,,,6,,,67,92
3456,note_on,,0,0,12,,,,,,,,12,,,55,92
3456,note_on,,96,0,8,,,,,,,,7,,,60,0
3456,note_on,,576,0,10,,,,,,,,10,,,72,0
3456,note_on,,96,0,12,,,,,,,,12,,,60,0
3456,note_on,,96,0,9,,,,,,,,8,,,48,0
3456,note_on,,576,0,11,,,,,,,,11,,,72,0
3552,note_on,,0,0,6,,,,,,,,5,,,63,108
3552,note_on,,96,0,5,,,,,,,,4,,,67,0
3552,note_on,,0,0,5,,,,,,,,4,,,63,108
3552,note_on,,96,0,9,,,,,,,,8,,,43,0
3552,note_on,,0,0,9,,,,,,,,8,,,39,92
3552,note_on,,96,0,6,,,,,,,,5,,,67,0
3552,note_on,,96,0,2,,,,,,,,1,,,67,75
3552,note_on,,96,0,12,,,,,,,,12,,,55,0
3552,note_on,,96,0,1,,,,,,,,0,,,72,75
3552,note_on,,0,0,12,,,,,,,,12,,,51,92
3552,note_on,,0,0,8,,,,,,,,7,,,51,92
3552,note_on,,96,0,8,,,,,,,,7,,,55,0
3552,note_on,,96,0,10,,,,,,,,10,,,72,92
3552,note_on,,96,0,11,,,,,,,,11,,,72,92
3552,note_on,,96,0,7,,,,,,,,6,,,67,0
3552,note_on,,0,0,7,,,,,,,,6,,,63,92
3624,note_on,,72,0,7,,,,,,,,6,,,63,0
3624,note_on,,0,0,7,,,,,,,,6,,,62,92
3624,note_on,,72,0,5,,,,,,,,4,,,63,0
3624,note_on,,0,0,5,,,,,,,,4,,,62,108
3624,note_on,,0,0,6,,,,,,,,5,,,62,108
3624,note_on,,72,0,6,,,,,,,,5,,,63,0
3648,note_on,,0,0,6,,,,,,,,5,,,60,108
3648,note_on,,0,0,7,,,,,,,,6,,,60,92
3648,note_on,,24,0,7,,,,,,,,6,,,62,0
3648,note_on,,24,0,5,,,,,,,,4,,,62,0
3648,note_on,,0,0,5,,,,,,,,4,,,60,108
3648,note_on,,384,0,4,,,,,,,,3,,,60,0
3648,note_on,,96,0,10,,,,,,,,10,,,72,0
3648,note_on,,0,0,12,,,,,,,,12,,,48,92
3648,note_on,,96,0,12,,,,,,,,12,,,51,0
3648,note_on,,96,0,11,,,,,,,,11,,,72,0
3648,note_on,,0,0,11,,,,,,,,11,,,63,92
3648,note_on,,96,0,1,,,,,,,,0,,,72,0
3648,note_on,,0,0,1,,,,,,,,0,,,63,75
3648,note_on,,96,0,8,,,,,,,,7,,,51,0
3648,note_on,,0,0,8,,,,,,,,7,,,48,92
3648,note_on,,96,0,2,,,,,,,,1,,,67,0
3648,note_on,,384,0,3,,,,,,,,2,,,63,0
3648,note_on,,0,0,10,,,,,,,,10,,,63,92
3648,note_on,,24,0,6,,,,,,,,5,,,62,0
3648,note_on,,0,0,2,,,,,,,,1,,,60,75
3648,note_on,,96,0,9,,,,,,,,8,,,39,0
3648,note_on,,0,0,9,,,,,,,,8,,,36,92
3744,note_on,,0,0,7,,,,,,,,6,,,60,92
3744,note_on,,0,0,1,,,,,,,,0,,,63,75
3744,note_on,,96,0,1,,,,,,,,0,,,63,0
3744,note_on,,96,0,7,,,,,,,,6,,,60,0
3744,note_on,,96,0,11,,,,,,,,11,,,63,0
3744,note_on,,96,0,10,,,,,,,,10,,,63,0
3744,note_on,,0,0,10,,,,,,,,10,,,63,92
3744,note_on,,96,0,2,,,,,,,,1,,,60,0
3744,note_on,,0,0,2,,,,,,,,1,,,60,75
3744,note_on,,0,0,11,,,,,,,,11,,,63,92
3840,note_on,,192,0,9,,,,,,,,8,,,36,0
3840,note_on,,0,0,1,,,,,,,,0,,,63,75
3840,note_on,,0,0,7,,,,,,,,6,,,60,92
3840,note_on,,96,0,1,,,,,,,,0,,,63,0
3840,note_on,,192,0,5,,,,,,,,4,,,60,0
3840,note_on,,192,0,6,,,,,,,,5,,,60,0
3840,note_on,,192,0,12,,,,,,,,12,,,48,0
3840,note_on,,96,0,7,,,,,,,,6,,,60,0
3840,note_on,,96,0,11,,,,,,,,11,,,63,0
3840,note_on,,0,0,10,,,,,,,,10,,,63,92
3840,note_on,,96,0,10,,,,,,,,10,,,63,0
3840,note_on,,0,0,2,,,,,,,,1,,,60,75
3840,note_on,,192,0,8,,,,,,,,7,,,48,0
3840,note_on,,96,0,2,,,,,,,,1,,,60,0
3840,note_on,,0,0,11,,,,,,,,11,,,63,92
3936,note_on,,96,0,10,,,,,,,,10,,,63,0
3936,note_on,,96,0,2,,,,,,,,1,,,60,0
3936,note_on,,0,0,2,,,,,,,,1,,,62,75
3936,note_on,,96,0,7,,,,,,,,6,,,60,0
3936,note_on,,0,0,11,,,,,,,,11,,,65,92
3936,note_on,,0,0,7,,,,,,,,6,,,62,92
3936,note_on,,96,0,1,,,,,,,,0,,,63,0
3936,note_on,,96,0,11,,,,,,,,11,,,63,0
3936,note_on,,0,0,1,,,,,,,,0,,,65,75
3936,note_on,,0,0,10,,,,,,,,10,,,65,92
4032,note_on,,192,0,12,,,,,,,,12,,,60,92
4032,note_on,,0,0,7,,,,,,,,6,,,63,92
4032,note_on,,96,0,11,,,,,,,,11,,,65,0
4032,note_on,,96,0,1,,,,,,,,0,,,65,0
4032,note_on,,0,0,11,,,,,,,,11,,,67,92
4032,note_on,,192,0,9,,,,,,,,8,,,48,92
4032,note_on,,192,0,8,,,,,,,,7,,,60,92
4032,note_on,,0,0,1,,,,,,,,0,,,67,75
4032,note_on,,0,0,10,,,,,,,,10,,,67,92
4032,note_on,,96,0,10,,,,,,,,10,,,65,0
4032,note_on,,192,0,6,,,,,,,,5,,,75,108
4032,note_on,,192,0,5,,,,,,,,4,,,79,108
4032,note_on,,96,0,2,,,,,,,,1,,,62,0
4032,note_on,,0,0,2,,,,,,,,1,,,63,75
4032,note_on,,96,0,7,,,,,,,,6,,,62,0
4128,note_on,,0,0,11,,,,,,,,11,,,67,92
4128,note_on,,96,0,11,,,,,,,,11,,,67,0
4128,note_on,,96,0,10,,,,,,,,10,,,67,0
4128,note_on,,0,0,2,,,,,,,,1,,,63,75
4128,note_on,,96,0,1,,,,,,,,0,,,67,0
4128,note_on,,0,0,1,,,,,,,,0,,,67,75
4128,note_on,,0,0,10,,,,,,,,10,,,67,92
4128,note_on,,0,0,7,,,,,,,,6,,,63,92
4128,note_on,,96,0,7,,,,,,,,6,,,63,0
4128,note_on,,96,0,2,,,,,,,,1,,,63,0
4224,note_on,,0,0,1,,,,,,,,0,,,67,75
4224,note_on,,192,0,9,,,,,,,,8,,,48,0
4224,note_on,,192,0,6,,,,,,,,5,,,75,0
4224,note_on,,96,0,10,,,,,,,,10,,,67,0
4224,note_on,,192,0,12,,,,,,,,12,,,60,0
4224,note_on,,192,0,5,,,,,,,,4,,,79,0
4224,note_on,,96,0,11,,,,,,,,11,,,67,0
4224,note_on,,0,0,10,,,,,,,,10,,,67,92
4224,note_on,,96,0,1,,,,,,,,0,,,67,0
4224,note_on,,192,0,8,,,,,,,,7,,,60,0
4224,note_on,,0,0,11,,,,,,,,11,,,67,92
4224,note_on,,0,0,2,,,,,,,,1,,,63,75
4224,note_on,,96,0,2,,,,,,,,1,,,63,0
4224,note_on,,96,0,7,,,,,,,,6,,,63,0
4224,note_on,,0,0,7,,,,,,,,6,,,63,92
4320,note_on,,96,0,10,,,,,,,,10,,,67,0
4320,note_on,,96,0,8,,,,,,,,7,,,48,92
4320,note_on,,96,0,7,,,,,,,,6,,,63,0
4320,note_on,,672,0,3,,,,,,,,2,,,60,75
4320,note_on,,96,0,9,,,,,,,,8,,,36,92
4320,note_on,,96,0,1,,,,,,,,0,,,67,0
4320,note_on,,0,0,1,,,,,,,,0,,,69,75
4320,note_on,,0,0,10,,,,,,,,10,,,69,92
4320,note_on,,0,0,7,,,,,,,,6,,,63,92
4320,note_on,,0,0,11,,,,,,,,11,,,69,92
4320,note_on,,0,0,2,,,,,,,,1,,,63,75
4320,note_on,,672,0,4,,,,,,,,3,,,48,75
4320,note_on,,96,0,2,,,,,,,,1,,,63,0
4320,note_on,,96,0,12,,,,,,,,12,,,48,92
4320,note_on,,96,0,11,,,,,,,,11,,,67,0
4416,note_on,,0,0,3,,,,,,,,2,,,53,75
4416,note_on,,96,0,9,,,,,,,,8,,,36,0
4416,note_on,,96,0,3,,,,,,,,2,,,60,0
4416,note_on,,0,0,9,,,,,,,,8,,,34,92
4416,note_on,,0,0,11,,,,,,,,11,,,70,92
4416,note_on,,192,0,6,,,,,,,,5,,,65,108
4416,note_on,,96,0,11,,,,,,,,11,,,69,0
4416,note_on,,96,0,7,,,,,,,,6,,,63,0
4416,note_on,,96,0,12,,,,,,,,12,,,48,0
4416,note_on,,0,0,8,,,,,,,,7,,,46,92
4416,note_on,,96,0,8,,,,,,,,7,,,48,0
4416,note_on,,0,0,7,,,,,,,,6,,,70,92
4416,note_on,,0,0,10,,,,,,,,10,,,70,92
4416,note_on,,96,0,10,,,,,,,,10,,,69,0
4416,note_on,,96,0,1,,,,,,,,0,,,69,0
4416,note_on,,0,0,12,,,,,,,,12,,,46,92
4416,note_on,,0,0,1,,,,,,,,0,,,70,75
4416,note_on,,0,0,2,,,,,,,,1,,,62,75
4416,note_on,,96,0,4,,,,,,,,3,,,48,0
4416,note_on,,0,0,4,,,,,,,,3,,,46,75
4416,note_on,,192,0,5,,,,,,,,4,,,74,108
4416,note_on,,96,0,2,,,,,,,,1,,,63,0
4512,note_on,,0,0,4,,,,,,,,3,,,46,75
4512,note_on,,96,0,9,,,,,,,,8,,,34,0
4512,note_on,,96,0,8,,,,,,,,7,,,46,0
4512,note_on,,0,0,8,,,,,,,,7,,,46,92
4512,note_on,,0,0,12,,,,,,,,12,,,46,92
4512,note_on,,96,0,12,,,,,,,,12,,,46,0
4512,note_on,,96,0,3,,,,,,,,2,,,53,0
4512,note_on,,0,0,3,,,,,,,,2,,,53,75
4512,note_on,,0,0,9,,,,,,,,8,,,34,92
4512,note_on,,96,0,4,,,,,,,,3,,,46,0
4608,note_on,,192,0,2,,,,,,,,1,,,62,0
4608,note_on,,96,0,3,,,,,,,,2,,,53,0
4608,note_on,,0,0,3,,,,,,,,2,,,53,75
4608,note_on,,96,0,12,,,,,,,,12,,,46,0
4608,note_on,,0,0,9,,,,,,,,8,,,34,92
4608,note_on,,192,0,10,,,,,,,,10,,,70,0
4608,note_on,,192,0,1,,,,,,,,0,,,70,0
4608,note_on,,192,0,5,,,,,,,,4,,,74,0
4608,note_on,,0,0,4,,,,,,,,3,,,46,75
4608,note_on,,96,0,9,,,,,,,,8,,,34,0
4608,note_on,,0,0,12,,,,,,,,12,,,46,92
4608,note_on,,96,0,8,,,,,,,,7,,,46,0
4608,note_on,,0,0,8,,,,,,,,7,,,46,92
4608,note_on,,192,0,7,,,,,,,,6,,,70,0
4608,note_on,,192,0,11,,,,,,,,11,,,70,0
4608,note_on,,96,0,4,,,,,,,,3,,,46,0
4608,note_on,,192,0,6,,,,,,,,5,,,65,0
4704,note_on,,96,0,3,,,,,,,,2,,,53,0
4704,note_on,,0,0,12,,,,,,,,12,,,48,92
4704,note_on,,96,0,8,,,,,,,,7,,,46,0
4704,note_on,,0,0,8,,,,,,,,7,,,48,92
4704,note_on,,0,0,4,,,,,,,,3,,,48,75
4704,note_on,,96,0,4,,,,,,,,3,,,46,0
4704,note_on,,96,0,11,,,,,,,,11,,,70,92
4704,note_on,,0,0,9,,,,,,,,8,,,36,92
4704,note_on,,96,0,9,,,,,,,,8,,,34,0
4704,note_on,,96,0,1,,,,,,,,0,,,70,75
4704,note_on,,96,0,10,,,,,,,,10,,,70,92
4704,note_on,,0,0,3,,,,,,,,2,,,51,75
4704,note_on,,96,0,12,,,,,,,,12,,,46,0
4800,note_on,,96,0,1,,,,,,,,0,,,70,0
4800,note_on,,96,0,9,,,,,,,,8,,,36,0
4800,note_on,,0,0,12,,,,,,,,12,,,50,92
4800,note_on,,96,0,10,,,,,,,,10,,,70,0
4800,note_on,,96,0,12,,,,,,,,12,,,48,0
4800,note_on,,192,0,5,,,,,,,,4,,,82,108
4800,note_on,,0,0,9,,,,,,,,8,,,38,92
4800,note_on,,96,0,11,,,,,,,,11,,,70,0
4800,note_on,,96,0,8,,,,,,,,7,,,48,0
4800,note_on,,0,0,10,,,,,,,,10,,,65,92
4800,note_on,,96,0,4,,,,,,,,3,,,48,0
4800,note_on,,0,0,4,,,,,,,,3,,,50,75
4800,note_on,,0,0,1,,,,,,,,0,,,65,75
4800,note_on,,192,0,7,,,,,,,,6,,,70,92
4800,note_on,,192,0,6,,,,,,,,5,,,77,108
4800,note_on,,0,0,3,,,,,,,,2,,,58,75
4800,note_on,,96,0,3,,,,,,,,2,,,51,0
4800,note_on,,0,0,11,,,,,,,,11,,,65,92
4800,note_on,,0,0,8,,,,,,,,7,,,50,92
4896,note_on,,96,0,4,,,,,,,,3,,,50,0
4896,note_on,,0,0,4,,,,,,,,3,,,50,75
4896,note_on,,96,0,11,,,,,,,,11,,,65,0
4896,note_on,,0,0,11,,,,,,,,11,,,65,92
4896,note_on,,96,0,12,,,,,,,,12,,,50,0
4896,note_on,,96,0,10,,,,,,,,10,,,65,0
4896,note_on,,0,0,1,,,,,,,,0,,,65,75
4896,note_on,,0,0,12,,,,,,,,12,,,50,92
4896,note_on,,96,0,8,,,,,,,,7,,,50,0
4896,note_on,,0,0,8,,,,,,,,7,,,50,92
4896,note_on,,96,0,9,,,,,,,,8,,,38,0
4896,note_on,,0,0,9,,,,,,,,8,,,38,92
4896,note_on,,96,0,3,,,,,,,,2,,,58,0
4896,note_on,,0,0,10,,,,,,,,10,,,65,92
4896,note_on,,96,0,1,,,,,,,,0,,,65,0
4896,note_on,,0,0,3,,,,,,,,2,,,58,75
4992,note_on,,96,0,1,,,,,,,,0,,,65,0
4992,note_on,,192,0,6,,,,,,,,5,,,77,0
4992,note_on,,192,0,7,,,,,,,,6,,,70,0
4992,note_on,,96,0,4,,,,,,,,3,,,50,0
4992,note_on,,0,0,8,,,,,,,,7,,,50,92
4992,note_on,,96,0,8,,,,,,,,7,,,50,0
4992,note_on,,96,0,12,,,,,,,,12,,,50,0
4992,note_on,,0,0,12,,,,,,,,12,,,50,92
4992,note_on,,0,0,4,,,,,,,,3,,,50,75
4992,note_on,,0,0,11,,,,,,,,11,,,65,92
4992,note_on,,0,0,1,,,,,,,,0,,,65,75
4992,note_on,,0,0,10,,,,,,,,10,,,65,92
4992,note_on,,96,0,11,,,,,,,,11,,,65,0
4992,note_on,,192,0,5,,,,,,,,4,,,82,0
4992,note_on,,96,0,3,,,,,,,,2,,,58,0
4992,note_on,,0,0,3,,,,,,,,2,,,58,79
4992,note_on,,0,0,9,,,,,,,,8,,,38,92
4992,note_on,,96,0,9,,,,,,,,8,,,38,0
4992,note_on,,96,0,10,,,,,,,,10,,,65,0
5088,note_on,,96,0,10,,,,,,,,10,,,65,0
5088,note_on,,0,0,10,,,,,,,,10,,,67,92
5088,note_on,,0,0,12,,,,,,,,12,,,52,92
5088,note_on,,96,0,1,,,,,,,,0,,,65,0
5088,note_on,,0,0,1,,,,,,,,0,,,67,75
5088,note_on,,96,0,4,,,,,,,,3,,,50,0
5088,note_on,,0,0,4,,,,,,,,3,,,52,75
5088,note_on,,96,0,3,,,,,,,,2,,,58,0
5088,note_on,,96,0,11,,,,,,,,11,,,65,0
5088,note_on,,0,0,3,,,,,,,,2,,,58,83
5088,note_on,,96,0,9,,,,,,,,8,,,38,0
5088,note_on,,0,0,8,,,,,,,,7,,,52,92
5088,note_on,,96,0,12,,,,,,,,12,,,50,0
5088,note_on,,96,0,8,,,,,,,,7,,,50,0
5088,note_on,,0,0,9,,,,,,,,8,,,40,92
5088,note_on,,0,0,11,,,,,,,,11,,,67,92
5088,note_on,,480,0,2,,,,,,,,1,,,60,75
5088,note_on,,96,0,7,,,,,,,,6,,,60,92
5184,note_on,,96,0,2,,,,,,,,1,,,60,0
5184,note_on,,0,0,2,,,,,,,,1,,,60,80
5184,note_on,,96,0,3,,,,,,,,2,,,58,0
5184,note_on,,0,0,3,,,,,,,,2,,,56,87
5184,note_on,,0,0,8,,,,,,,,7,,,53,92
5184,note_on,,96,0,8,,,,,,,,7,,,52,0
5184,note_on,,0,0,10,,,,,,,,10,,,68,92
5184,note_on,,96,0,9,,,,,,,,8,,,40,0
5184,note_on,,96,0,10,,,,,,,,10,,,67,0
5184,note_on,,0,0,9,,,,,,,,8,,,41,92
5184,note_on,,0,0,12,,,,,,,,12,,,53,92
5184,note_on,,96,0,11,,,,,,,,11,,,67,0
5184,note_on,,96,0,12,,,,,,,,12,,,52,0
5184,note_on,,96,0,4,,,,,,,,3,,,52,0
5184,note_on,,0,0,11,,,,,,,,11,,,68,92
5184,note_on,,0,0,7,,,,,,,,6,,,60,92
5184,note_on,,96,0,7,,,,,,,,6,,,60,0
5184,note_on,,0,0,4,,,,,,,,3,,,53,80
5184,note_on,,192,0,5,,,,,,,,4,,,68,108
5184,note_on,,0,0,1,,,,,,,,0,,,68,85
5184,note_on,,96,0,1,,,,,,,,0,,,67,0
5184,note_on,,192,0,6,,,,,,,,5,,,65,108
5280,note_on,,96,0,12,,,,,,,,12,,,53,0
5280,note_on,,0,0,10,,,,,,,,10,,,68,92
5280,note_on,,96,0,4,,,,,,,,3,,,53,0
5280,note_on,,0,0,8,,,,,,,,7,,,53,92
5280,note_on,,96,0,10,,,,,,,,10,,,68,0
5280,note_on,,0,0,4,,,,,,,,3,,,53,85
5280,note_on,,96,0,8,,,,,,,,7,,,53,0
5280,note_on,,96,0,9,,,,,,,,8,,,41,0
5280,note_on,,0,0,12,,,,,,,,12,,,53,92
5280,note_on,,0,0,2,,,,,,,,1,,,60,85
5280,note_on,,0,0,7,,,,,,,,6,,,60,92
5280,note_on,,96,0,7,,,,,,,,6,,,60,0
5280,note_on,,96,0,2,,,,,,,,1,,,60,0
5280,note_on,,0,0,9,,,,,,,,8,,,41,92
5280,note_on,,96,0,1,,,,,,,,0,,,68,0
5280,note_on,,0,0,1,,,,,,,,0,,,68,95
5280,note_on,,0,0,11,,,,,,,,11,,,68,92
5280,note_on,,96,0,11,,,,,,,,11,,,68,0
5376,note_on,,0,0,11,,,,,,,,11,,,68,92
5376,note_on,,96,0,11,,,,,,,,11,,,68,0
5376,note_on,,96,0,4,,,,,,,,3,,,53,0
5376,note_on,,0,0,4,,,,,,,,3,,,53,91
5376,note_on,,96,0,1,,,,,,,,0,,,68,0
5376,note_on,,96,0,7,,,,,,,,6,,,60,0
5376,note_on,,0,0,10,,,,,,,,10,,,68,92
5376,note_on,,0,0,12,,,,,,,,12,,,53,92
5376,note_on,,96,0,10,,,,,,,,10,,,68,0
5376,note_on,,192,0,6,,,,,,,,5,,,65,0
5376,note_on,,192,0,5,,,,,,,,4,,,68,0
5376,note_on,,96,0,12,,,,,,,,12,,,53,0
5376,note_on,,0,0,1,,,,,,,,0,,,68,105
5376,note_on,,96,0,9,,,,,,,,8,,,41,0
5376,note_on,,0,0,7,,,,,,,,6,,,65,92
5376,note_on,,0,0,2,,,,,,,,1,,,65,91
5376,note_on,,96,0,8,,,,,,,,7,,,53,0
5376,note_on,,0,0,9,,,,,,,,8,,,41,92
5376,note_on,,96,0,2,,,,,,,,1,,,60,0
5376,note_on,,0,0,8,,,,,,,,7,,,53,92
5376,note_on,,192,0,3,,,,,,,,2,,,56,0
5472,note_on,,0,0,9,,,,,,,,8,,,43,92
5472,note_on,,0,0,4,,,,,,,,3,,,55,97
5472,note_on,,0,0,7,,,,,,,,6,,,64,92
5472,note_on,,96,0,9,,,,,,,,8,,,41,0
5472,note_on,,0,0,12,,,,,,,,12,,,55,92
5472,note_on,,96,0,12,,,,,,,,12,,,53,0
5472,note_on,,96,0,4,,,,,,,,3,,,53,0
5472,note_on,,0,0,10,,,,,,,,10,,,70,92
5472,note_on,,96,0,2,,,,,,,,1,,,65,0
5472,note_on,,96,0,7,,,,,,,,6,,,65,0
5472,note_on,,0,0,2,,,,,,,,1,,,64,97
5472,note_on,,0,0,1,,,,,,,,0,,,70,116
5472,note_on,,96,0,1,,,,,,,,0,,,68,0
5472,note_on,,0,0,11,,,,,,,,11,,,70,92
5472,note_on,,96,0,11,,,,,,,,11,,,68,0
5472,note_on,,0,0,8,,,,,,,,7,,,55,92
5472,note_on,,96,0,8,,,,,,,,7,,,53,0
5472,note_on,,96,0,10,,,,,,,,10,,,68,0
5568,note_on,,96,0,8,,,,,,,,7,,,55,0
5568,note_on,,96,0,4,,,,,,,,3,,,55,0
5568,note_on,,0,0,1,,,,,,,,0,,,72,127
5568,note_on,,96,0,1,,,,,,,,0,,,70,0
5568,note_on,,0,0,8,,,,,,,,7,,,56,92
5568,note_on,,96,0,9,,,,,,,,8,,,43,0
5568,note_on,,192,0,5,,,,,,,,4,,,77,108
5568,note_on,,0,0,9,,,,,,,,8,,,44,92
5568,note_on,,0,0,4,,,,,,,,3,,,56,103
5568,note_on,,96,0,12,,,,,,,,12,,,55,0
5568,note_on,,96,0,10,,,,,,,,10,,,70,0
5568,note_on,,96,0,11,,,,,,,,11,,,70,0
5568,note_on,,0,0,11,,,,,,,,11,,,72,92
5568,note_on,,96,0,2,,,,,,,,1,,,64,0
5568,note_on,,0,0,12,,,,,,,,12,,,56,92
5568,note_on,,0,0,2,,,,,,,,1,,,65,103
5568,note_on,,192,0,6,,,,,,,,5,,,72,108
5568,note_on,,0,0,7,,,,,,,,6,,,65,92
5568,note_on,,96,0,7,,,,,,,,6,,,64,0
5568,note_on,,0,0,10,,,,,,,,10,,,72,92
5664,note_on,,288,0,3,,,,,,,,2,,,60,112
5664,note_on,,0,0,9,,,,,,,,8,,,44,92
5664,note_on,,96,0,9,,,,,,,,8,,,44,0
5664,note_on,,96,0,2,,,,,,,,1,,,65,0
5664,note_on,,0,0,2,,,,,,,,1,,,65,109
5664,note_on,,96,0,12,,,,,,,,12,,,56,0
5664,note_on,,96,0,4,,,,,,,,3,,,56,0
5664,note_on,,0,0,4,,,,,,,,3,,,56,109
5664,note_on,,0,0,8,,,,,,,,7,,,56,92
5664,note_on,,96,0,8,,,,,,,,7,,,56,0
5664,note_on,,96,0,7,,,,,,,,6,,,65,0
5664,note_on,,0,0,7,,,,,,,,6,,,60,92
5664,note_on,,0,0,12,,,,,,,,12,,,56,92
5760,note_on,,96,0,9,,,,,,,,8,,,44,0
5760,note_on,,0,0,9,,,,,,,,8,,,44,92
5760,note_on,,0,0,7,,,,,,,,6,,,65,92
5760,note_on,,96,0,7,,,,,,,,6,,,60,0
5760,note_on,,0,0,8,,,,,,,,7,,,56,92
5760,note_on,,96,0,8,,,,,,,,7,,,56,0
5760,note_on,,96,0,3,,,,,,,,2,,,60,0
5760,note_on,,96,0,12,,,,,,,,12,,,56,0
5760,note_on,,0,0,3,,,,,,,,2,,,65,117
5760,note_on,,192,0,5,,,,,,,,4,,,77,0
5760,note_on,,0,0,12,,,,,,,,12,,,56,92
5760,note_on,,192,0,6,,,,,,,,5,,,72,0
5760,note_on,,0,0,2,,,,,,,,1,,,68,115
5760,note_on,,96,0,2,,,,,,,,1,,,65,0
5760,note_on,,96,0,4,,,,,,,,3,,,56,0
5760,note_on,,0,0,4,,,,,,,,3,,,56,115
5856,note_on,,0,0,2,,,,,,,,1,,,68,121
5856,note_on,,96,0,2,,,,,,,,1,,,68,0
5856,note_on,,96,0,7,,,,,,,,6,,,65,0
5856,note_on,,0,0,7,,,,,,,,6,,,65,92
5856,note_on,,0,0,4,,,,,,,,3,,,58,121
5856,note_on,,0,0,3,,,,,,,,2,,,65,122
5856,note_on,,0,0,9,,,,,,,,8,,,46,92
5856,note_on,,96,0,8,,,,,,,,7,,,56,0
5856,note_on,,0,0,8,,,,,,,,7,,,58,92
5856,note_on,,96,0,6,,,,,,,,5,,,68,108
5856,note_on,,96,0,12,,,,,,,,12,,,56,0
5856,note_on,,0,0,12,,,,,,,,12,,,58,92
5856,note_on,,96,0,9,,,,,,,,8,,,44,0
5856,note_on,,96,0,4,,,,,,,,3,,,56,0
5856,note_on,,96,0,3,,,,,,,,2,,,65,0
5952,note_on,,96,0,9,,,,,,,,8,,,46,0
5952,note_on,,0,0,2,,,,,,,,1,,,67,127
5952,note_on,,0,0,9,,,,,,,,8,,,48,92
5952,note_on,,0,0,3,,,,,,,,2,,,63,127
5952,note_on,,96,0,2,,,,,,,,1,,,68,0
5952,note_on,,0,0,4,,,,,,,,3,,,60,127
5952,note_on,,96,0,4,,,,,,,,3,,,58,0
5952,note_on,,96,0,7,,,,,,,,6,,,65,0
5952,note_on,,0,0,7,,,,,,,,6,,,63,92
5952,note_on,,192,0,5,,,,,,,,4,,,67,108
5952,note_on,,96,0,8,,,,,,,,7,,,58,0
5952,note_on,,0,0,8,,,,,,,,7,,,60,92
5952,note_on,,0,0,6,,,,,,,,5,,,67,108
5952,note_on,,96,0,6,,,,,,,,5,,,68,0
5952,note_on,,96,0,12,,,,,,,,12,,,58,0
5952,note_on,,0,0,12,,,,,,,,12,,,60,92
5952,note_on,,96,0,3,,,,,,,,2,,,65,0
6144,note_on,,192,0,3,,,,,,,,2,,,63,0
6144,note_on,,192,0,6,,,,,,,,5,,,67,0
6144,note_on,,192,0,2,,,,,,,,1,,,67,0
6144,note_on,,192,0,7,,,,,,,,6,,,63,0
6144,note_on,,192,0,5,,,,,,,,4,,,67,0
6144,note_on,,0,0,3,,,,,,,,2,,,63,127
6240,note_on,,288,0,9,,,,,,,,8,,,48,0
6240,note_on,,0,0,9,,,,,,,,8,,,43,60
6240,note_on,,288,0,12,,,,,,,,12,,,60,0
6240,note_on,,96,0,2,,,,,,,,1,,,67,75
6240,note_on,,0,0,8,,,,,,,,7,,,55,60
6240,note_on,,288,0,8,,,,,,,,7,,,60,0
6240,note_on,,288,0,4,,,,,,,,3,,,60,0
6240,note_on,,0,0,4,,,,,,,,3,,,55,75
6240,note_on,,0,0,12,,,,,,,,12,,,55,60
6336,note_on,,768,0,10,,,,,,,,10,,,72,0
6336,note_on,,96,0,2,,,,,,,,1,,,67,0
6336,note_on,,768,0,1,,,,,,,,0,,,72,0
6336,note_on,,768,0,11,,,,,,,,11,,,72,0
6336,note_on,,192,0,5,,,,,,,,4,,,68,75
6336,note_on,,96,0,9,,,,,,,,8,,,43,0
6336,note_on,,192,0,3,,,,,,,,2,,,63,0
6336,note_on,,96,0,8,,,,,,,,7,,,55,0
6336,note_on,,0,0,8,,,,,,,,7,,,48,60
6336,note_on,,192,0,7,,,,,,,,6,,,51,60
6336,note_on,,0,0,12,,,,,,,,12,,,48,60
6336,note_on,,96,0,12,,,,,,,,12,,,55,0
6336,note_on,,96,0,4,,,,,,,,3,,,55,0
6336,note_on,,0,0,4,,,,,,,,3,,,48,75
6336,note_on,,0,0,9,,,,,,,,8,,,36,60
6336,note_on,,0,0,2,,,,,,,,1,,,68,75
6432,note_on,,96,0,2,,,,,,,,1,,,68,0
6432,note_on,,0,0,2,,,,,,,,1,,,68,75
6432,note_on,,0,0,5,,,,,,,,4,,,68,75
6432,note_on,,96,0,5,,,,,,,,4,,,68,0
6528,note_on,,96,0,5,,,,,,,,4,,,68,0
6528,note_on,,192,0,7,,,,,,,,6,,,51,0
6528,note_on,,0,0,7,,,,,,,,6,,,63,60
6528,note_on,,384,0,6,,,,,,,,5,,,60,75
6528,note_on,,0,0,2,,,,,,,,1,,,68,75
6528,note_on,,96,0,2,,,,,,,,1,,,68,0
6528,note_on,,0,0,5,,,,,,,,4,,,68,75
6528,note_on,,192,0,3,,,,,,,,2,,,60,75
6624,note_on,,288,0,12,,,,,,,,12,,,48,0
6624,note_on,,0,0,12,,,,,,,,12,,,51,60
6624,note_on,,0,0,4,,,,,,,,3,,,51,75
6624,note_on,,0,0,2,,,,,,,,1,,,67,75
6624,note_on,,0,0,9,,,,,,,,8,,,39,60
6624,note_on,,288,0,9,,,,,,,,8,,,36,0
6624,note_on,,288,0,8,,,,,,,,7,,,48,0
6624,note_on,,0,0,8,,,,,,,,7,,,51,60
6624,note_on,,96,0,2,,,,,,,,1,,,68,0
6624,note_on,,0,0,5,,,,,,,,4,,,67,75
6624,note_on,,288,0,4,,,,,,,,3,,,48,0
6624,note_on,,96,0,5,,,,,,,,4,,,68,0
6720,note_on,,96,0,5,,,,,,,,4,,,67,0
6720,note_on,,96,0,12,,,,,,,,12,,,51,0
6720,note_on,,0,0,12,,,,,,,,12,,,50,60
6720,note_on,,0,0,5,,,,,,,,4,,,66,75
6720,note_on,,0,0,2,,,,,,,,1,,,66,75
6720,note_on,,96,0,9,,,,,,,,8,,,39,0
6720,note_on,,0,0,9,,,,,,,,8,,,38,60
6720,note_on,,0,0,8,,,,,,,,7,,,50,60
6720,note_on,,0,0,7,,,,,,,,6,,,57,60
6720,note_on,,192,0,7,,,,,,,,6,,,63,0
6720,note_on,,0,0,4,,,,,,,,3,,,50,75
6720,note_on,,96,0,4,,,,,,,,3,,,51,0
6720,note_on,,96,0,8,,,,,,,,7,,,51,0
6720,note_on,,96,0,2,,,,,,,,1,,,67,0
6816,note_on,,0,0,6,,,,,,,,5,,,63,75
6816,note_on,,0,0,2,,,,,,,,1,,,66,75
6816,note_on,,96,0,2,,,,,,,,1,,,66,0
6816,note_on,,288,0,6,,,,,,,,5,,,60,0
6816,note_on,,288,0,3,,,,,,,,2,,,60,0
6816,note_on,,0,0,3,,,,,,,,2,,,63,75
6912,note_on,,96,0,3,,,,,,,,2,,,63,0
6912,note_on,,0,0,3,,,,,,,,2,,,62,75
6912,note_on,,0,0,2,,,,,,,,1,,,66,75
6912,note_on,,96,0,2,,,,,,,,1,,,66,0
6912,note_on,,0,0,6,,,,,,,,5,,,62,75
6912,note_on,,96,0,6,,,,,,,,5,,,63,0
7008,note_on,,288,0,7,,,,,,,,6,,,57,0
7008,note_on,,0,0,7,,,,,,,,6,,,57,60
7008,note_on,,0,0,5,,,,,,,,4,,,66,75
7008,note_on,,96,0,6,,,,,,,,5,,,62,0
7008,note_on,,0,0,6,,,,,,,,5,,,60,75
7008,note_on,,0,0,2,,,,,,,,1,,,66,75
7008,note_on,,0,0,3,,,,,,,,2,,,60,75
7008,note_on,,96,0,3,,,,,,,,2,,,62,0
7008,note_on,,96,0,2,,,,,,,,1,,,66,0
7008,note_on,,288,0,5,,,,,,,,4,,,66,0
7104,note_on,,0,0,2,,,,,,,,1,,,67,75
7104,note_on,,96,0,2,,,,,,,,1,,,66,0
7104,note_on,,384,0,4,,,,,,,,3,,,50,0
7104,note_on,,0,0,8,,,,,,,,7,,,43,60
7104,note_on,,384,0,8,,,,,,,,7,,,50,0
7104,note_on,,0,0,3,,,,,,,,2,,,59,75
7104,note_on,,384,0,12,,,,,,,,12,,,50,0
7104,note_on,,96,0,7,,,,,,,,6,,,57,0
7104,note_on,,0,0,7,,,,,,,,6,,,62,60
7104,note_on,,384,0,9,,,,,,,,8,,,38,0
7104,note_on,,0,0,12,,,,,,,,12,,,43,60
7104,note_on,,0,0,6,,,,,,,,5,,,59,75
7104,note_on,,96,0,5,,,,,,,,4,,,66,0
7104,note_on,,0,0,5,,,,,,,,4,,,67,75
7104,note_on,,96,0,6,,,,,,,,5,,,60,0
7104,note_on,,96,0,3,,,,,,,,2,,,60,0
7104,note_on,,0,0,9,,,,,,,,8,,,31,60
7200,note_on,,96,0,3,,,,,,,,2,,,59,0
7200,note_on,,0,0,3,,,,,,,,2,,,62,75
7200,note_on,,96,0,6,,,,,,,,5,,,59,0
7200,note_on,,0,0,6,,,,,,,,5,,,62,75
7200,note_on,,96,0,2,,,,,,,,1,,,67,0
7200,note_on,,0,0,2,,,,,,,,1,,,65,75
7200,note_on,,96,0,5,,,,,,,,4,,,67,0
7200,note_on,,0,0,5,,,,,,,,4,,,65,75
7296,note_on,,0,0,2,,,,,,,,1,,,63,75
7296,note_on,,0,0,6,,,,,,,,5,,,67,75
7296,note_on,,96,0,6,,,,,,,,5,,,62,0
7296,note_on,,192,0,8,,,,,,,,7,,,43,0
7296,note_on,,192,0,9,,,,,,,,8,,,31,0
7296,note_on,,0,0,9,,,,,,,,8,,,43,60
7296,note_on,,96,0,5,,,,,,,,4,,,65,0
7296,note_on,,0,0,5,,,,,,,,4,,,63,75
7296,note_on,,96,0,2,,,,,,,,1,,,65,0
7296,note_on,,0,0,8,,,,,,,,7,,,55,60
7296,note_on,,0,0,12,,,,,,,,12,,,55,60
7296,note_on,,192,0,12,,,,,,,,12,,,43,0
7296,note_on,,192,0,7,,,,,,,,6,,,62,0
7296,note_on,,0,0,3,,,,,,,,2,,,67,75
7296,note_on,,96,0,3,,,,,,,,2,,,62,0
7392,note_on,,96,0,3,,,,,,,,2,,,67,0
7392,note_on,,96,0,2,,,,,,,,1,,,63,0
7392,note_on,,0,0,2,,,,,,,,1,,,62,75
7392,note_on,,0,0,3,,,,,,,,2,,,59,75
7392,note_on,,0,0,5,,,,,,,,4,,,62,75
7392,note_on,,96,0,5,,,,,,,,4,,,63,0
7392,note_on,,96,0,7,,,,,,,,6,,,67,60
7392,note_on,,96,0,6,,,,,,,,5,,,67,0
7392,note_on,,0,0,6,,,,,,,,5,,,59,75
7392,note_on,,288,0,4,,,,,,,,3,,,55,75
7488,note_on,,96,0,2,,,,,,,,1,,,62,0
7488,note_on,,0,0,2,,,,,,,,1,,,60,75
7488,note_on,,96,0,5,,,,,,,,4,,,62,0
7488,note_on,,192,0,12,,,,,,,,12,,,55,0
7488,note_on,,0,0,12,,,,,,,,12,,,56,60
7488,note_on,,96,0,7,,,,,,,,6,,,67,0
7488,note_on,,0,0,7,,,,,,,,6,,,67,60
7488,note_on,,0,0,5,,,,,,,,4,,,60,75
7488,note_on,,192,0,9,,,,,,,,8,,,43,0
7488,note_on,,192,0,8,,,,,,,,7,,,55,0
7488,note_on,,96,0,3,,,,,,,,2,,,59,0
7488,note_on,,96,0,6,,,,,,,,5,,,59,0
7488,note_on,,0,0,3,,,,,,,,2,,,60,75
7488,note_on,,0,0,8,,,,,,,,7,,,56,60
7488,note_on,,0,0,9,,,,,,,,8,,,44,60
7488,note_on,,96,0,4,,,,,,,,3,,,55,0
7488,note_on,,0,0,4,,,,,,,,3,,,56,75
7488,note_on,,0,0,6,,,,,,,,5,,,60,75
7584,note_on,,0,0,4,,,,,,,,3,,,56,75
7584,note_on,,96,0,5,,,,,,,,4,,,60,0
7584,note_on,,0,0,7,,,,,,,,6,,,63,60
7584,note_on,,0,0,8,,,,,,,,7,,,56,60
7584,note_on,,96,0,8,,,,,,,,7,,,56,0
7584,note_on,,0,0,2,,,,,,,,1,,,67,75
7584,note_on,,96,0,2,,,,,,,,1,,,60,0
7584,note_on,,96,0,12,,,,,,,,12,,,56,0
7584,note_on,,96,0,7,,,,,,,,6,,,67,0
7584,note_on,,0,0,12,,,,,,,,12,,,56,60
7584,note_on,,96,0,9,,,,,,,,8,,,44,0
7584,note_on,,96,0,4,,,,,,,,3,,,56,0
7584,note_on,,0,0,9,,,,,,,,8,,,44,60
7584,note_on,,0,0,5,,,,,,,,4,,,67,75
7680,note_on,,96,0,12,,,,,,,,12,,,56,0
7680,note_on,,0,0,12,,,,,,,,12,,,56,60
7680,note_on,,96,0,7,,,,,,,,6,,,63,0
7680,note_on,,1344,0,11,,,,,,,,11,,,72,60
7680,note_on,,1344,0,10,,,,,,,,10,,,72,60
7680,note_on,,0,0,7,,,,,,,,6,,,65,60
7680,note_on,,0,0,8,,,,,,,,7,,,56,60
7680,note_on,,0,0,2,,,,,,,,1,,,65,75
7680,note_on,,0,0,5,,,,,,,,4,,,65,75
7680,note_on,,96,0,5,,,,,,,,4,,,67,0
7680,note_on,,96,0,8,,,,,,,,7,,,56,0
7680,note_on,,96,0,2,,,,,,,,1,,,67,0
7680,note_on,,1344,0,1,,,,,,,,0,,,72,75
7680,note_on,,96,0,4,,,,,,,,3,,,56,0
7680,note_on,,0,0,4,,,,,,,,3,,,56,75
7680,note_on,,0,0,9,,,,,,,,8,,,44,60
7680,note_on,,96,0,9,,,,,,,,8,,,44,0
7776,note_on,,0,0,7,,,,,,,,6,,,67,60
7776,note_on,,96,0,7,,,,,,,,6,,,65,0
7776,note_on,,96,0,9,,,,,,,,8,,,44,0
7776,note_on,,288,0,3,,,,,,,,2,,,60,0
7776,note_on,,0,0,3,,,,,,,,2,,,58,75
7776,note_on,,96,0,2,,,,,,,,1,,,65,0
7776,note_on,,96,0,5,,,,,,,,4,,,65,0
7776,note_on,,0,0,2,,,,,,,,1,,,63,75
7776,note_on,,0,0,9,,,,,,,,8,,,43,60
7776,note_on,,96,0,8,,,,,,,,7,,,56,0
7776,note_on,,0,0,5,,,,,,,,4,,,63,75
7776,note_on,,96,0,12,,,,,,,,12,,,56,0
7776,note_on,,0,0,4,,,,,,,,3,,,55,75
7776,note_on,,96,0,4,,,,,,,,3,,,56,0
7776,note_on,,0,0,6,,,,,,,,5,,,58,75
7776,note_on,,288,0,6,,,,,,,,5,,,60,0
7776,note_on,,0,0,8,,,,,,,,7,,,55,60
7776,note_on,,0,0,12,,,,,,,,12,,,55,60
7872,note_on,,0,0,6,,,,,,,,5,,,57,75
7872,note_on,,96,0,6,,,,,,,,5,,,58,0
7872,note_on,,96,0,8,,,,,,,,7,,,55,0
7872,note_on,,0,0,2,,,,,,,,1,,,62,75
7872,note_on,,96,0,3,,,,,,,,2,,,58,0
7872,note_on,,96,0,4,,,,,,,,3,,,55,0
7872,note_on,,0,0,4,,,,,,,,3,,,54,75
7872,note_on,,96,0,5,,,,,,,,4,,,63,0
7872,note_on,,96,0,9,,,,,,,,8,,,43,0
7872,note_on,,0,0,9,,,,,,,,8,,,42,60
7872,note_on,,0,0,3,,,,,,,,2,,,57,75
7872,note_on,,0,0,8,,,,,,,,7,,,54,60
7872,note_on,,0,0,5,,,,,,,,4,,,62,75
7872,note_on,,0,0,12,,,,,,,,12,,,54,60
7872,note_on,,96,0,12,,,,,,,,12,,,55,0
7872,note_on,,96,0,2,,,,,,,,1,,,63,0
7872,note_on,,0,0,7,,,,,,,,6,,,69,60
7872,note_on,,96,0,7,,,,,,,,6,,,67,0
7968,note_on,,0,0,3,,,,,,,,2,,,57,75
7968,note_on,,96,0,3,,,,,,,,2,,,57,0
7968,note_on,,288,0,11,,,,,,,,11,,,72,0
7968,note_on,,0,0,11,,,,,,,,11,,,75,60
7968,note_on,,0,0,10,,,,,,,,10,,,75,60
7968,note_on,,288,0,10,,,,,,,,10,,,72,0
7968,note_on,,96,0,4,,,,,,,,3,,,54,0
7968,note_on,,0,0,4,,,,,,,,3,,,54,75
7968,note_on,,288,0,1,,,,,,,,0,,,72,0
7968,note_on,,0,0,1,,,,,,,,0,,,75,75
8064,note_on,,192,0,6,,,,,,,,5,,,57,0
8064,note_on,,96,0,1,,,,,,,,0,,,75,0
8064,note_on,,0,0,11,,,,,,,,11,,,74,60
8064,note_on,,96,0,11,,,,,,,,11,,,75,0
8064,note_on,,192,0,7,,,,,,,,6,,,69,0
8064,note_on,,96,0,10,,,,,,,,10,,,75,0
8064,note_on,,0,0,1,,,,,,,,0,,,74,75
8064,note_on,,0,0,10,,,,,,,,10,,,74,60
8064,note_on,,96,0,3,,,,,,,,2,,,57,0
8064,note_on,,0,0,3,,,,,,,,2,,,57,78
8064,note_on,,96,0,4,,,,,,,,3,,,54,0
8064,note_on,,0,0,4,,,,,,,,3,,,54,77
8064,note_on,,192,0,5,,,,,,,,4,,,62,0
8160,note_on,,0,0,2,,,,,,,,1,,,62,75
8160,note_on,,96,0,1,,,,,,,,0,,,74,0
8160,note_on,,288,0,2,,,,,,,,1,,,62,0
8160,note_on,,0,0,1,,,,,,,,0,,,72,75
8160,note_on,,288,0,8,,,,,,,,7,,,54,0
8160,note_on,,96,0,3,,,,,,,,2,,,57,0
8160,note_on,,0,0,3,,,,,,,,2,,,57,81
8160,note_on,,96,0,11,,,,,,,,11,,,74,0
8160,note_on,,0,0,11,,,,,,,,11,,,72,60
8160,note_on,,0,0,10,,,,,,,,10,,,72,60
8160,note_on,,96,0,4,,,,,,,,3,,,54,0
8160,note_on,,96,0,10,,,,,,,,10,,,74,0
8160,note_on,,0,0,8,,,,,,,,7,,,54,60
8160,note_on,,0,0,9,,,,,,,,8,,,42,60
8160,note_on,,288,0,9,,,,,,,,8,,,42,0
8160,note_on,,288,0,12,,,,,,,,12,,,54,0
8160,note_on,,0,0,12,,,,,,,,12,,,54,60
8160,note_on,,0,0,4,,,,,,,,3,,,54,79
8256,note_on,,192,0,6,,,,,,,,5,,,71,75
8256,note_on,,0,0,3,,,,,,,,2,,,55,84
8256,note_on,,96,0,3,,,,,,,,2,,,57,0
8256,note_on,,0,0,9,,,,,,,,8,,,43,60
8256,note_on,,96,0,9,,,,,,,,8,,,42,0
8256,note_on,,96,0,12,,,,,,,,12,,,54,0
8256,note_on,,192,0,5,,,,,,,,4,,,74,75
8256,note_on,,96,0,4,,,,,,,,3,,,54,0
8256,note_on,,0,0,4,,,,,,,,3,,,55,82
8256,note_on,,0,0,12,,,,,,,,12,,,55,60
8256,note_on,,96,0,2,,,,,,,,1,,,62,0
8256,note_on,,0,0,2,,,,,,,,1,,,62,75
8256,note_on,,0,0,1,,,,,,,,0,,,71,75
8256,note_on,,96,0,1,,,,,,,,0,,,72,0
8256,note_on,,0,0,8,,,,,,,,7,,,55,60
8256,note_on,,96,0,11,,,,,,,,11,,,72,0
8256,note_on,,0,0,11,,,,,,,,11,,,71,60
8256,note_on,,0,0,10,,,,,,,,10,,,71,60
8256,note_on,,96,0,10,,,,,,,,10,,,72,0
8256,note_on,,192,0,7,,,,,,,,6,,,67,60
8256,note_on,,96,0,8,,,,,,,,7,,,54,0
8352,note_on,,0,0,1,,,,,,,,0,,,74,79
8352,note_on,,96,0,1,,,,,,,,0,,,71,0
8352,note_on,,0,0,11,,,,,,,,11,,,74,60
8352,note_on,,96,0,11,,,,,,,,11,,,71,0
8352,note_on,,0,0,10,,,,,,,,10,,,74,60
8352,note_on,,96,0,10,,,,,,,,10,,,71,0
8352,note_on,,96,0,8,,,,,,,,7,,,55,0
8352,note_on,,0,0,8,,,,,,,,7,,,53,60
8352,note_on,,0,0,4,,,,,,,,3,,,53,85
8352,note_on,,96,0,12,,,,,,,,12,,,55,0
8352,note_on,,0,0,12,,,,,,,,12,,,53,60
8352,note_on,,96,0,4,,,,,,,,3,,,55,0
8352,note_on,,96,0,9,,,,,,,,8,,,43,0
8352,note_on,,0,0,9,,,,,,,,8,,,41,60
8448,note_on,,192,0,6,,,,,,,,5,,,71,0
8448,note_on,,96,0,4,,,,,,,,3,,,53,0
8448,note_on,,0,0,4,,,,,,,,3,,,51,88
8448,note_on,,96,0,11,,,,,,,,11,,,74,0
8448,note_on,,192,0,3,,,,,,,,2,,,55,0
8448,note_on,,0,0,10,,,,,,,,10,,,79,60
8448,note_on,,96,0,10,,,,,,,,10,,,74,0
8448,note_on,,0,0,11,,,,,,,,11,,,79,60
8448,note_on,,96,0,9,,,,,,,,8,,,41,0
8448,note_on,,192,0,7,,,,,,,,6,,,67,0
8448,note_on,,96,0,1,,,,,,,,0,,,74,0
8448,note_on,,0,0,9,,,,,,,,8,,,39,60
8448,note_on,,96,0,8,,,,,,,,7,,,53,0
8448,note_on,,192,0,2,,,,,,,,1,,,62,0
8448,note_on,,0,0,1,,,,,,,,0,,,79,83
8448,note_on,,96,0,12,,,,,,,,12,,,53,0
8448,note_on,,0,0,12,,,,,,,,12,,,51,60
8448,note_on,,0,0,8,,,,,,,,7,,,51,60
8448,note_on,,192,0,5,,,,,,,,4,,,74,0
8544,note_on,,0,0,9,,,,,,,,8,,,38,60
8544,note_on,,0,0,1,,,,,,,,0,,,71,87
8544,note_on,,96,0,1,,,,,,,,0,,,79,0
8544,note_on,,96,0,4,,,,,,,,3,,,51,0
8544,note_on,,0,0,4,,,,,,,,3,,,50,91
8544,note_on,,0,0,12,,,,,,,,12,,,50,60
8544,note_on,,0,0,10,,,,,,,,10,,,71,60
8544,note_on,,96,0,10,,,,,,,,10,,,79,0
8544,note_on,,0,0,8,,,,,,,,7,,,50,60
8544,note_on,,96,0,11,,,,,,,,11,,,79,0
8544,note_on,,0,0,11,,,,,,,,11,,,71,60
8544,note_on,,96,0,9,,,,,,,,8,,,39,0
8544,note_on,,96,0,8,,,,,,,,7,,,51,0
8544,note_on,,96,0,12,,,,,,,,12,,,51,0
8640,note_on,,96,0,8,,,,,,,,7,,,50,0
8640,note_on,,96,0,10,,,,,,,,10,,,71,0
8640,note_on,,0,0,10,,,,,,,,10,,,72,60
8640,note_on,,0,0,8,,,,,,,,7,,,51,60
8640,note_on,,192,0,6,,,,,,,,5,,,79,75
8640,note_on,,0,0,1,,,,,,,,0,,,72,91
8640,note_on,,0,0,9,,,,,,,,8,,,39,60
8640,note_on,,96,0,9,,,,,,,,8,,,38,0
8640,note_on,,96,0,1,,,,,,,,0,,,71,0
8640,note_on,,192,0,7,,,,,,,,6,,,67,60
8640,note_on,,192,0,5,,,,,,,,4,,,72,75
8640,note_on,,192,0,2,,,,,,,,1,,,67,75
8640,note_on,,0,0,12,,,,,,,,12,,,51,60
8640,note_on,,0,0,11,,,,,,,,11,,,72,60
8640,note_on,,96,0,11,,,,,,,,11,,,71,0
8640,note_on,,96,0,12,,,,,,,,12,,,50,0
8640,note_on,,96,0,4,,,,,,,,3,,,50,0
8640,note_on,,0,0,4,,,,,,,,3,,,51,94
8736,note_on,,0,0,9,,,,,,,,8,,,43,60
8736,note_on,,96,0,9,,,,,,,,8,,,39,0
8736,note_on,,0,0,12,,,,,,,,12,,,55,60
8736,note_on,,96,0,8,,,,,,,,7,,,51,0
8736,note_on,,0,0,8,,,,,,,,7,,,55,60
8736,note_on,,96,0,4,,,,,,,,3,,,51,0
8736,note_on,,96,0,12,,,,,,,,12,,,51,0
8736,note_on,,0,0,4,,,,,,,,3,,,55,97
8832,note_on,,0,0,9,,,,,,,,8,,,48,60
8832,note_on,,96,0,9,,,,,,,,8,,,43,0
8832,note_on,,384,0,3,,,,,,,,2,,,60,102
8832,note_on,,192,0,5,,,,,,,,4,,,72,0
8832,note_on,,192,0,6,,,,,,,,5,,,79,0
8832,note_on,,0,0,4,,,,,,,,3,,,60,100
8832,note_on,,96,0,8,,,,,,,,7,,,55,0
8832,note_on,,0,0,12,,,,,,,,12,,,60,60
8832,note_on,,96,0,12,,,,,,,,12,,,55,0
8832,note_on,,0,0,8,,,,,,,,7,,,60,60
8832,note_on,,96,0,4,,,,,,,,3,,,55,0
8832,note_on,,192,0,7,,,,,,,,6,,,67,0
8928,note_on,,96,0,8,,,,,,,,7,,,60,0
8928,note_on,,0,0,1,,,,,,,,0,,,70,103
8928,note_on,,0,0,8,,,,,,,,7,,,52,60
8928,note_on,,0,0,11,,,,,,,,11,,,70,60
8928,note_on,,0,0,9,,,,,,,,8,,,40,60
8928,note_on,,96,0,9,,,,,,,,8,,,48,0
8928,note_on,,288,0,11,,,,,,,,11,,,72,0
8928,note_on,,96,0,12,,,,,,,,12,,,60,0
8928,note_on,,0,0,12,,,,,,,,12,,,52,60
8928,note_on,,0,0,4,,,,,,,,3,,,52,103
8928,note_on,,96,0,4,,,,,,,,3,,,60,0
8928,note_on,,288,0,10,,,,,,,,10,,,72,0
8928,note_on,,0,0,10,,,,,,,,10,,,70,60
8928,note_on,,288,0,1,,,,,,,,0,,,72,0
9024,note_on,,96,0,12,,,,,,,,12,,,52,0
9024,note_on,,0,0,12,,,,,,,,12,,,53,60
9024,note_on,,192,0,7,,,,,,,,6,,,57,60
9024,note_on,,96,0,1,,,,,,,,0,,,70,0
9024,note_on,,96,0,8,,,,,,,,7,,,52,0
9024,note_on,,192,0,5,,,,,,,,4,,,74,75
9024,note_on,,0,0,1,,,,,,,,0,,,69,107
9024,note_on,,384,0,2,,,,,,,,1,,,67,0
9024,note_on,,0,0,11,,,,,,,,11,,,69,60
9024,note_on,,96,0,11,,,,,,,,11,,,70,0
9024,note_on,,96,0,9,,,,,,,,8,,,40,0
9024,note_on,,192,0,6,,,,,,,,5,,,69,75
9024,note_on,,0,0,9,,,,,,,,8,,,41,60
9024,note_on,,0,0,8,,,,,,,,7,,,53,60
9024,note_on,,0,0,4,,,,,,,,3,,,53,106
9024,note_on,,96,0,4,,,,,,,,3,,,52,0
9024,note_on,,96,0,10,,,,,,,,10,,,70,0
9024,note_on,,0,0,10,,,,,,,,10,,,69,60
9120,note_on,,96,0,10,,,,,,,,10,,,69,0
9120,note_on,,0,0,12,,,,,,,,12,,,57,60
9120,note_on,,96,0,9,,,,,,,,8,,,41,0
9120,note_on,,96,0,11,,,,,,,,11,,,69,0
9120,note_on,,0,0,11,,,,,,,,11,,,72,60
9120,note_on,,96,0,12,,,,,,,,12,,,53,0
9120,note_on,,0,0,10,,,,,,,,10,,,72,60
9120,note_on,,0,0,9,,,,,,,,8,,,45,60
9120,note_on,,0,0,1,,,,,,,,0,,,72,111
9120,note_on,,96,0,1,,,,,,,,0,,,69,0
9120,note_on,,96,0,4,,,,,,,,3,,,53,0
9120,note_on,,0,0,4,,,,,,,,3,,,57,109
9120,note_on,,0,0,8,,,,,,,,7,,,57,60
9120,note_on,,96,0,8,,,,,,,,7,,,53,0
9216,note_on,,0,0,1,,,,,,,,0,,,70,115
9216,note_on,,96,0,11,,,,,,,,11,,,72,0
9216,note_on,,0,0,11,,,,,,,,11,,,70,60
9216,note_on,,0,0,8,,,,,,,,7,,,62,60
9216,note_on,,96,0,8,,,,,,,,7,,,57,0
9216,note_on,,96,0,1,,,,,,,,0,,,72,0
9216,note_on,,192,0,6,,,,,,,,5,,,69,0
9216,note_on,,96,0,9,,,,,,,,8,,,45,0
9216,note_on,,0,0,9,,,,,,,,8,,,50,60
9216,note_on,,96,0,12,,,,,,,,12,,,57,0
9216,note_on,,0,0,12,,,,,,,,12,,,62,60
9216,note_on,,384,0,3,,,,,,,,2,,,60,0
9216,note_on,,192,0,7,,,,,,,,6,,,57,0
9216,note_on,,0,0,4,,,,,,,,3,,,62,112
9216,note_on,,96,0,4,,,,,,,,3,,,57,0
9216,note_on,,192,0,5,,,,,,,,4,,,74,0
9216,note_on,,96,0,10,,,,,,,,10,,,72,0
9216,note_on,,0,0,10,,,,,,,,10,,,70,60
9216,note_on,,192,0,2,,,,,,,,1,,,62,109
9312,note_on,,96,0,9,,,,,,,,8,,,50,0
9312,note_on,,96,0,12,,,,,,,,12,,,62,0
9312,note_on,,0,0,12,,,,,,,,12,,,54,60
9312,note_on,,96,0,10,,,,,,,,10,,,70,0
9312,note_on,,0,0,4,,,,,,,,3,,,54,115
9312,note_on,,96,0,8,,,,,,,,7,,,62,0
9312,note_on,,0,0,8,,,,,,,,7,,,54,60
9312,note_on,,0,0,9,,,,,,,,8,,,42,60
9312,note_on,,96,0,4,,,,,,,,3,,,62,0
9312,note_on,,0,0,10,,,,,,,,10,,,69,60
9312,note_on,,96,0,11,,,,,,,,11,,,70,0
9312,note_on,,0,0,11,,,,,,,,11,,,69,60
9312,note_on,,96,0,1,,,,,,,,0,,,70,0
9312,note_on,,0,0,1,,,,,,,,0,,,69,119
9408,note_on,,96,0,4,,,,,,,,3,,,54,0
9408,note_on,,96,0,12,,,,,,,,12,,,54,0
9408,note_on,,192,0,5,,,,,,,,4,,,70,75
9408,note_on,,0,0,9,,,,,,,,8,,,43,60
9408,note_on,,96,0,9,,,,,,,,8,,,42,0
9408,note_on,,0,0,12,,,,,,,,12,,,55,60
9408,note_on,,192,0,7,,,,,,,,6,,,62,60
9408,note_on,,192,0,6,,,,,,,,5,,,67,75
9408,note_on,,96,0,1,,,,,,,,0,,,69,0
9408,note_on,,0,0,4,,,,,,,,3,,,55,118
9408,note_on,,96,0,10,,,,,,,,10,,,69,0
9408,note_on,,0,0,8,,,,,,,,7,,,55,60
9408,note_on,,0,0,10,,,,,,,,10,,,70,60
9408,note_on,,0,0,11,,,,,,,,11,,,70,60
9408,note_on,,96,0,11,,,,,,,,11,,,69,0
9408,note_on,,0,0,1,,,,,,,,0,,,70,123
9408,note_on,,96,0,8,,,,,,,,7,,,54,0
9504,note_on,,96,0,7,,,,,,,,6,,,62,0
9504,note_on,,0,0,7,,,,,,,,6,,,62,92
9504,note_on,,96,0,12,,,,,,,,12,,,55,0
9504,note_on,,0,0,5,,,,,,,,4,,,79,108
9504,note_on,,96,0,10,,,,,,,,10,,,70,0
9504,note_on,,0,0,10,,,,,,,,10,,,79,92
9504,note_on,,0,0,12,,,,,,,,12,,,43,92
9504,note_on,,0,0,6,,,,,,,,5,,,70,108
9504,note_on,,96,0,5,,,,,,,,4,,,70,0
9504,note_on,,0,0,8,,,,,,,,7,,,43,60
9504,note_on,,288,0,3,,,,,,,,2,,,58,127
9504,note_on,,96,0,8,,,,,,,,7,,,55,0
9504,note_on,,96,0,11,,,,,,,,11,,,70,0
9504,note_on,,0,0,11,,,,,,,,11,,,79,92
9504,note_on,,0,0,1,,,,,,,,0,,,79,127
9504,note_on,,96,0,1,,,,,,,,0,,,70,0
9504,note_on,,96,0,9,,,,,,,,8,,,43,0
9504,note_on,,0,0,9,,,,,,,,8,,,31,60
9504,note_on,,96,0,6,,,,,,,,5,,,67,0
9504,note_on,,288,0,2,,,,,,,,1,,,62,0
9504,note_on,,0,0,2,,,,,,,,1,,,62,127
9600,note_on,,0,0,7,,,,,,,,6,,,69,92
9600,note_on,,96,0,11,,,,,,,,11,,,79,0
9600,note_on,,192,0,4,,,,,,,,3,,,55,0
9600,note_on,,96,0,12,,,,,,,,12,,,43,0
9600,note_on,,0,0,10,,,,,,,,10,,,77,92
9600,note_on,,96,0,7,,,,,,,,6,,,62,0
9600,note_on,,96,0,2,,,,,,,,1,,,62,0
9600,note_on,,0,0,1,,,,,,,,0,,,77,127
9600,note_on,,96,0,5,,,,,,,,4,,,79,0
9600,note_on,,0,0,5,,,,,,,,4,,,77,108
9600,note_on,,0,0,11,,,,,,,,11,,,77,92
9600,note_on,,0,0,2,,,,,,,,1,,,69,127
9600,note_on,,96,0,10,,,,,,,,10,,,79,0
9600,note_on,,0,0,8,,,,,,,,7,,,45,60
9600,note_on,,0,0,9,,,,,,,,8,,,33,60
9600,note_on,,96,0,9,,,,,,,,8,,,31,0
9600,note_on,,96,0,8,,,,,,,,7,,,43,0
9600,note_on,,0,0,3,,,,,,,,2,,,60,127
9600,note_on,,96,0,3,,,,,,,,2,,,58,0
9600,note_on,,96,0,6,,,,,,,,5,,,70,0
9600,note_on,,96,0,1,,,,,,,,0,,,79,0
9600,note_on,,0,0,6,,,,,,,,5,,,72,108
9600,note_on,,0,0,12,,,,,,,,12,,,45,92
9696,note_on,,0,0,9,,,,,,,,8,,,45,92
9696,note_on,,96,0,9,,,,,,,,8,,,33,0
9696,note_on,,96,0,4,,,,,,,,3,,,57,127
9696,note_on,,96,0,1,,,,,,,,0,,,77,0
9696,note_on,,0,0,1,,,,,,,,0,,,75,127
9696,note_on,,96,0,8,,,,,,,,7,,,45,0
9696,note_on,,0,0,8,,,,,,,,7,,,57,92
9696,note_on,,96,0,11,,,,,,,,11,,,77,0
9696,note_on,,0,0,11,,,,,,,,11,,,75,92
9696,note_on,,96,0,3,,,,,,,,2,,,60,0
9696,note_on,,0,0,3,,,,,,,,2,,,60,127
9696,note_on,,96,0,7,,,,,,,,6,,,69,0
9696,note_on,,0,0,7,,,,,,,,6,,,69,92
9696,note_on,,96,0,5,,,,,,,,4,,,77,0
9696,note_on,,0,0,5,,,,,,,,4,,,75,108
9696,note_on,,96,0,2,,,,,,,,1,,,69,0
9696,note_on,,0,0,2,,,,,,,,1,,,69,127
9696,note_on,,96,0,12,,,,,,,,12,,,45,0
9696,note_on,,96,0,6,,,,,,,,5,,,72,0
9696,note_on,,0,0,6,,,,,,,,5,,,72,108
9696,note_on,,0,0,10,,,,,,,,10,,,75,92
9696,note_on,,96,0,10,,,,,,,,10,,,77,0
9696,note_on,,0,0,12,,,,,,,,12,,,57,92
9792,note_on,,0,0,1,,,,,,,,0,,,74,127
9792,note_on,,96,0,6,,,,,,,,5,,,72,0
9792,note_on,,96,0,7,,,,,,,,6,,,69,0
9792,note_on,,0,0,6,,,,,,,,5,,,70,108
9792,note_on,,96,0,8,,,,,,,,7,,,57,0
9792,note_on,,0,0,8,,,,,,,,7,,,58,92
9792,note_on,,0,0,3,,,,,,,,2,,,62,127
9792,note_on,,96,0,3,,,,,,,,2,,,60,0
9792,note_on,,96,0,10,,,,,,,,10,,,75,0
9792,note_on,,0,0,10,,,,,,,,10,,,74,92
9792,note_on,,96,0,1,,,,,,,,0,,,75,0
9792,note_on,,0,0,11,,,,,,,,11,,,74,92
9792,note_on,,96,0,11,,,,,,,,11,,,75,0
9792,note_on,,0,0,12,,,,,,,,12,,,58,92
9792,note_on,,0,0,7,,,,,,,,6,,,69,92
9792,note_on,,0,0,2,,,,,,,,1,,,69,127
9792,note_on,,96,0,2,,,,,,,,1,,,69,0
9792,note_on,,0,0,9,,,,,,,,8,,,46,92
9792,note_on,,96,0,12,,,,,,,,12,,,57,0
9792,note_on,,96,0,9,,,,,,,,8,,,45,0
9792,note_on,,96,0,5,,,,,,,,4,,,75,0
9792,note_on,,96,0,4,,,,,,,,3,,,57,0
9792,note_on,,0,0,4,,,,,,,,3,,,58,127
9792,note_on,,0,0,5,,,,,,,,4,,,74,108
9888,note_on,,96,0,5,,,,,,,,4,,,74,0
9888,note_on,,0,0,5,,,,,,,,4,,,86,108
9888,note_on,,96,0,3,,,,,,,,2,,,62,0
9888,note_on,,0,0,3,,,,,,,,2,,,62,127
9888,note_on,,96,0,7,,,,,,,,6,,,69,0
9888,note_on,,0,0,6,,,,,,,,5,,,79,108
9888,note_on,,0,0,7,,,,,,,,6,,,67,92
9888,note_on,,96,0,12,,,,,,,,12,,,58,0
9888,note_on,,0,0,2,,,,,,,,1,,,67,127
9888,note_on,,96,0,2,,,,,,,,1,,,69,0
9888,note_on,,96,0,6,,,,,,,,5,,,70,0
9888,note_on,,0,0,4,,,,,,,,3,,,58,127
9888,note_on,,96,0,9,,,,,,,,8,,,46,0
9888,note_on,,0,0,9,,,,,,,,8,,,46,92
9888,note_on,,96,0,4,,,,,,,,3,,,58,0
9888,note_on,,0,0,8,,,,,,,,7,,,58,92
9888,note_on,,96,0,8,,,,,,,,7,,,58,0
9888,note_on,,0,0,12,,,,,,,,12,,,58,92
9984,note_on,,0,0,6,,,,,,,,5,,,78,108
9984,note_on,,96,0,9,,,,,,,,8,,,46,0
9984,note_on,,96,0,5,,,,,,,,4,,,86,0
9984,note_on,,0,0,5,,,,,,,,4,,,84,108
9984,note_on,,0,0,9,,,,,,,,8,,,45,92
9984,note_on,,0,0,3,,,,,,,,2,,,66,127
9984,note_on,,0,0,2,,,,,,,,1,,,69,127
9984,note_on,,192,0,10,,,,,,,,10,,,74,0
9984,note_on,,0,0,7,,,,,,,,6,,,69,92
9984,note_on,,96,0,7,,,,,,,,6,,,67,0
9984,note_on,,96,0,6,,,,,,,,5,,,79,0
9984,note_on,,96,0,8,,,,,,,,7,,,58,0
9984,note_on,,0,0,4,,,,,,,,3,,,57,127
9984,note_on,,96,0,4,,,,,,,,3,,,58,0
9984,note_on,,0,0,8,,,,,,,,7,,,57,92
9984,note_on,,96,0,12,,,,,,,,12,,,58,0
9984,note_on,,192,0,11,,,,,,,,11,,,74,0
9984,note_on,,0,0,12,,,,,,,,12,,,57,92
9984,note_on,,96,0,3,,,,,,,,2,,,62,0
9984,note_on,,96,0,2,,,,,,,,1,,,67,0
10080,note_on,,96,0,12,,,,,,,,12,,,57,0
10080,note_on,,0,0,12,,,,,,,,12,,,55,92
10080,note_on,,0,0,7,,,,,,,,6,,,62,92
10080,note_on,,96,0,5,,,,,,,,4,,,84,0
10080,note_on,,96,0,10,,,,,,,,10,,,74,92
10080,note_on,,0,0,9,,,,,,,,8,,,43,92
10080,note_on,,0,0,5,,,,,,,,4,,,82,108
10080,note_on,,96,0,9,,,,,,,,8,,,45,0
10080,note_on,,96,0,8,,,,,,,,7,,,57,0
10080,note_on,,0,0,2,,,,,,,,1,,,70,127
10080,note_on,,96,0,2,,,,,,,,1,,,69,0
10080,note_on,,288,0,1,,,,,,,,0,,,74,0
10080,note_on,,0,0,6,,,,,,,,5,,,79,108
10080,note_on,,0,0,1,,,,,,,,0,,,74,127
10080,note_on,,0,0,8,,,,,,,,7,,,55,92
10080,note_on,,96,0,3,,,,,,,,2,,,66,0
10080,note_on,,96,0,4,,,,,,,,3,,,57,0
10080,note_on,,0,0,4,,,,,,,,3,,,55,127
10080,note_on,,0,0,3,,,,,,,,2,,,67,127
10080,note_on,,96,0,7,,,,,,,,6,,,69,0
10080,note_on,,96,0,11,,,,,,,,11,,,74,92
10080,note_on,,96,0,6,,,,,,,,5,,,78,0
10176,note_on,,96,0,12,,,,,,,,12,,,55,0
10176,note_on,,0,0,12,,,,,,,,12,,,62,92
10176,note_on,,96,0,9,,,,,,,,8,,,43,0
10176,note_on,,0,0,10,,,,,,,,10,,,74,92
10176,note_on,,96,0,6,,,,,,,,5,,,79,0
10176,note_on,,96,0,10,,,,,,,,10,,,74,0
10176,note_on,,0,0,6,,,,,,,,5,,,78,108
10176,note_on,,0,0,8,,,,,,,,7,,,62,92
10176,note_on,,96,0,11,,,,,,,,11,,,74,0
10176,note_on,,0,0,11,,,,,,,,11,,,74,92
10176,note_on,,96,0,1,,,,,,,,0,,,74,0
10176,note_on,,0,0,7,,,,,,,,6,,,74,92
10176,note_on,,96,0,7,,,,,,,,6,,,62,0
10176,note_on,,0,0,9,,,,,,,,8,,,50,92
10176,note_on,,96,0,8,,,,,,,,7,,,55,0
10176,note_on,,0,0,1,,,,,,,,0,,,74,127
10176,note_on,,0,0,4,,,,,,,,3,,,62,127
10176,note_on,,96,0,4,,,,,,,,3,,,55,0
10176,note_on,,96,0,5,,,,,,,,4,,,82,0
10176,note_on,,0,0,5,,,,,,,,4,,,81,108
10176,note_on,,96,0,2,,,,,,,,1,,,70,0
10176,note_on,,0,0,2,,,,,,,,1,,,69,127
10176,note_on,,0,0,3,,,,,,,,2,,,66,127
10176,note_on,,96,0,3,,,,,,,,2,,,67,0
10368,note_on,,192,0,8,,,,,,,,7,,,62,0
10368,note_on,,0,0,6,,,,,,,,5,,,62,75
10368,note_on,,0,0,3,,,,,,,,2,,,62,75
10368,note_on,,192,0,6,,,,,,,,5,,,78,0
10368,note_on,,0,0,7,,,,,,,,6,,,62,60
10368,note_on,,192,0,12,,,,,,,,12,,,62,0
10368,note_on,,192,0,2,,,,,,,,1,,,69,0
10368,note_on,,192,0,11,,,,,,,,11,,,74,0
10368,note_on,,192,0,9,,,,,,,,8,,,50,0
10368,note_on,,192,0,10,,,,,,,,10,,,74,0
10368,note_on,,192,0,3,,,,,,,,2,,,66,0
10368,note_on,,192,0,4,,,,,,,,3,,,62,0
10368,note_on,,192,0,5,,,,,,,,4,,,81,0
10368,note_on,,0,0,5,,,,,,,,4,,,62,75
10368,note_on,,192,0,7,,,,,,,,6,,,74,0
10368,note_on,,192,0,1,,,,,,,,0,,,74,0
10464,note_on,,96,0,11,,,,,,,,11,,,74,60
10464,note_on,,96,0,2,,,,,,,,1,,,62,75
10464,note_on,,96,0,12,,,,,,,,12,,,54,60
10464,note_on,,96,0,9,,,,,,,,8,,,42,60
10464,note_on,,96,0,4,,,,,,,,3,,,54,75
10464,note_on,,96,0,10,,,,,,,,10,,,81,60
10464,note_on,,96,0,1,,,,,,,,0,,,69,75
10464,note_on,,96,0,8,,,,,,,,7,,,54,60
10560,note_on,,192,0,7,,,,,,,,6,,,62,0
10560,note_on,,192,0,6,,,,,,,,5,,,62,0
10560,note_on,,0,0,1,,,,,,,,0,,,70,75
10560,note_on,,96,0,1,,,,,,,,0,,,69,0
10560,note_on,,192,0,5,,,,,,,,4,,,62,0
10560,note_on,,96,0,8,,,,,,,,7,,,54,0
10560,note_on,,96,0,12,,,,,,,,12,,,54,0
10560,note_on,,0,0,12,,,,,,,,12,,,55,60
10560,note_on,,96,0,2,,,,,,,,1,,,62,0
10560,note_on,,0,0,2,,,,,,,,1,,,67,75
10560,note_on,,96,0,11,,,,,,,,11,,,74,0
10560,note_on,,0,0,11,,,,,,,,11,,,79,60
10560,note_on,,0,0,10,,,,,,,,10,,,82,60
10560,note_on,,96,0,10,,,,,,,,10,,,81,0
10560,note_on,,0,0,8,,,,,,,,7,,,55,60
10560,note_on,,0,0,9,,,,,,,,8,,,43,60
10560,note_on,,96,0,9,,,,,,,,8,,,42,0
10560,note_on,,0,0,4,,,,,,,,3,,,55,75
10560,note_on,,96,0,4,,,,,,,,3,,,54,0
10656,note_on,,96,0,10,,,,,,,,10,,,82,0
10656,note_on,,96,0,2,,,,,,,,1,,,67,0
10656,note_on,,96,0,4,,,,,,,,3,,,55,0
10656,note_on,,0,0,9,,,,,,,,8,,,38,60
10656,note_on,,0,0,4,,,,,,,,3,,,50,75
10656,note_on,,96,0,9,,,,,,,,8,,,43,0
10656,note_on,,96,0,8,,,,,,,,7,,,55,0
10656,note_on,,0,0,10,,,,,,,,10,,,81,60
10656,note_on,,0,0,2,,,,,,,,1,,,66,75
10656,note_on,,0,0,8,,,,,,,,7,,,50,60
10656,note_on,,0,0,11,,,,,,,,11,,,78,60
10656,note_on,,96,0,11,,,,,,,,11,,,79,0
10656,note_on,,96,0,12,,,,,,,,12,,,55,0
10656,note_on,,0,0,12,,,,,,,,12,,,50,60
10656,note_on,,96,0,1,,,,,,,,0,,,70,0
10656,note_on,,0,0,1,,,,,,,,0,,,69,75
10752,note_on,,96,0,9,,,,,,,,8,,,38,0
10752,note_on,,384,0,3,,,,,,,,2,,,62,0
10752,note_on,,96,0,8,,,,,,,,7,,,50,0
10752,note_on,,192,0,5,,,,,,,,4,,,74,75
10752,note_on,,96,0,4,,,,,,,,3,,,50,0
10752,note_on,,0,0,1,,,,,,,,0,,,74,75
10752,note_on,,96,0,1,,,,,,,,0,,,69,0
10752,note_on,,96,0,12,,,,,,,,12,,,50,0
10752,note_on,,96,0,11,,,,,,,,11,,,78,0
10752,note_on,,96,0,2,,,,,,,,1,,,66,0
10752,note_on,,96,0,10,,,,,,,,10,,,81,0
10848,note_on,,288,0,7,,,,,,,,6,,,66,60
10848,note_on,,288,0,6,,,,,,,,5,,,69,75
10848,note_on,,96,0,3,,,,,,,,2,,,66,75
10944,note_on,,192,0,9,,,,,,,,8,,,46,60
10944,note_on,,192,0,1,,,,,,,,0,,,74,0
10944,note_on,,192,0,4,,,,,,,,3,,,58,75
10944,note_on,,96,0,7,,,,,,,,6,,,66,0
10944,note_on,,192,0,8,,,,,,,,7,,,58,60
10944,note_on,,96,0,3,,,,,,,,2,,,66,0
10944,note_on,,0,0,7,,,,,,,,6,,,67,60
10944,note_on,,0,0,3,,,,,,,,2,,,67,75
10944,note_on,,96,0,6,,,,,,,,5,,,69,0
10944,note_on,,192,0,12,,,,,,,,12,,,58,60
10944,note_on,,192,0,5,,,,,,,,4,,,74,0
10944,note_on,,0,0,6,,,,,,,,5,,,70,75
11040,note_on,,96,0,3,,,,,,,,2,,,67,0
11040,note_on,,96,0,7,,,,,,,,6,,,67,0
11040,note_on,,0,0,7,,,,,,,,6,,,62,60
11040,note_on,,96,0,6,,,,,,,,5,,,70,0
11040,note_on,,0,0,3,,,,,,,,2,,,62,75
11040,note_on,,0,0,6,,,,,,,,5,,,67,75
11136,note_on,,96,0,7,,,,,,,,6,,,62,0
11136,note_on,,384,0,11,,,,,,,,11,,,79,60
11136,note_on,,384,0,2,,,,,,,,1,,,67,75
11136,note_on,,192,0,8,,,,,,,,7,,,58,0
11136,note_on,,192,0,9,,,,,,,,8,,,46,0
11136,note_on,,192,0,12,,,,,,,,12,,,58,0
11136,note_on,,384,0,10,,,,,,,,10,,,79,60
11136,note_on,,192,0,4,,,,,,,,3,,,58,0
11136,note_on,,96,0,6,,,,,,,,5,,,67,0
11136,note_on,,96,0,3,,,,,,,,2,,,62,0
11232,note_on,,96,0,7,,,,,,,,6,,,67,60
11232,note_on,,96,0,9,,,,,,,,8,,,43,60
11232,note_on,,96,0,6,,,,,,,,5,,,67,75
11232,note_on,,96,0,8,,,,,,,,7,,,55,60
11232,note_on,,288,0,5,,,,,,,,4,,,67,75
11232,note_on,,96,0,12,,,,,,,,12,,,55,60
11232,note_on,,96,0,4,,,,,,,,3,,,55,75
11328,note_on,,96,0,6,,,,,,,,5,,,67,0
11328,note_on,,0,0,4,,,,,,,,3,,,58,75
11328,note_on,,192,0,2,,,,,,,,1,,,67,0
11328,note_on,,0,0,8,,,,,,,,7,,,58,60
11328,note_on,,96,0,8,,,,,,,,7,,,55,0
11328,note_on,,96,0,4,,,,,,,,3,,,55,0
11328,note_on,,96,0,7,,,,,,,,6,,,67,0
11328,note_on,,0,0,5,,,,,,,,4,,,67,75
11328,note_on,,0,0,6,,,,,,,,5,,,67,75
11328,note_on,,192,0,11,,,,,,,,11,,,79,0
11328,note_on,,0,0,7,,,,,,,,6,,,67,60
11328,note_on,,96,0,5,,,,,,,,4,,,67,0
11328,note_on,,0,0,12,,,,,,,,12,,,58,60
11328,note_on,,96,0,12,,,,,,,,12,,,55,0
11328,note_on,,0,0,9,,,,,,,,8,,,46,60
11328,note_on,,192,0,10,,,,,,,,10,,,79,0
11328,note_on,,96,0,9,,,,,,,,8,,,43,0
11352,note_on,,0,0,7,,,,,,,,6,,,69,60
11352,note_on,,24,0,7,,,,,,,,6,,,67,0
11352,note_on,,0,0,6,,,,,,,,5,,,69,75
11352,note_on,,24,0,5,,,,,,,,4,,,67,0
11352,note_on,,24,0,6,,,,,,,,5,,,67,0
11352,note_on,,0,0,5,,,,,,,,4,,,69,75
11376,note_on,,24,0,5,,,,,,,,4,,,69,0
11376,note_on,,0,0,5,,,,,,,,4,,,70,75
11376,note_on,,24,0,6,,,,,,,,5,,,69,0
11376,note_on,,0,0,6,,,,,,,,5,,,70,75
11376,note_on,,0,0,7,,,,,,,,6,,,70,60
11376,note_on,,24,0,7,,,,,,,,6,,,69,0
11424,note_on,,96,0,12,,,,,,,,12,,,58,0
11424,note_on,,0,0,12,,,,,,,,12,,,55,60
11424,note_on,,96,0,8,,,,,,,,7,,,58,0
11424,note_on,,0,0,8,,,,,,,,7,,,55,60
11424,note_on,,96,0,4,,,,,,,,3,,,58,0
11424,note_on,,0,0,4,,,,,,,,3,,,55,75
11424,note_on,,48,0,7,,,,,,,,6,,,70,0
11424,note_on,,0,0,7,,,,,,,,6,,,69,60
11424,note_on,,0,0,5,,,,,,,,4,,,69,75
11424,note_on,,0,0,9,,,,,,,,8,,,43,60
11424,note_on,,48,0,5,,,,,,,,4,,,70,0
11424,note_on,,96,0,9,,,,,,,,8,,,46,0
11424,note_on,,48,0,6,,,,,,,,5,,,70,0
11424,note_on,,0,0,6,,,,,,,,5,,,69,75
11448,note_on,,24,0,7,,,,,,,,6,,,69,0
11448,note_on,,0,0,7,,,,,,,,6,,,67,60
11448,note_on,,24,0,5,,,,,,,,4,,,69,0
11448,note_on,,24,0,6,,,,,,,,5,,,69,0
11448,note_on,,0,0,6,,,,,,,,5,,,67,75
11448,note_on,,0,0,5,,,,,,,,4,,,67,75
11520,note_on,,0,0,12,,,,,,,,12,,,50,60
11520,note_on,,96,0,12,,,,,,,,12,,,55,0
11520,note_on,,72,0,6,,,,,,,,5,,,67,0
11520,note_on,,0,0,6,,,,,,,,5,,,62,75
11520,note_on,,96,0,9,,,,,,,,8,,,43,0
11520,note_on,,0,0,8,,,,,,,,7,,,50,60
11520,note_on,,0,0,9,,,,,,,,8,,,38,60
11520,note_on,,0,0,5,,,,,,,,4,,,62,75
11520,note_on,,0,0,7,,,,,,,,6,,,62,60
11520,note_on,,96,0,4,,,,,,,,3,,,55,0
11520,note_on,,0,0,4,,,,,,,,3,,,50,75
11520,note_on,,72,0,7,,,,,,,,6,,,67,0
11520,note_on,,96,0,8,,,,,,,,7,,,55,0
11520,note_on,,72,0,5,,,,,,,,4,,,67,0
11616,note_on,,0,0,7,,,,,,,,6,,,58,60
11616,note_on,,96,0,7,,,,,,,,6,,,62,0
11616,note_on,,0,0,6,,,,,,,,5,,,58,75
11616,note_on,,0,0,8,,,,,,,,7,,,46,60
11616,note_on,,96,0,5,,,,,,,,4,,,62,0
11616,note_on,,0,0,5,,,,,,,,4,,,58,75
11616,note_on,,96,0,4,,,,,,,,3,,,50,0
11616,note_on,,0,0,4,,,,,,,,3,,,46,75
11616,note_on,,0,0,9,,,,,,,,8,,,34,60
11616,note_on,,96,0,9,,,,,,,,8,,,38,0
11616,note_on,,96,0,6,,,,,,,,5,,,62,0
11616,note_on,,96,0,12,,,,,,,,12,,,50,0
11616,note_on,,0,0,12,,,,,,,,12,,,46,60
11616,note_on,,96,0,8,,,,,,,,7,,,50,0
11712,note_on,,96,0,5,,,,,,,,4,,,58,0
11712,note_on,,0,0,5,,,,,,,,4,,,55,75
11712,note_on,,0,0,9,,,,,,,,8,,,31,60
11712,note_on,,96,0,9,,,,,,,,8,,,34,0
11712,note_on,,0,0,12,,,,,,,,12,,,43,60
11712,note_on,,0,0,7,,,,,,,,6,,,55,60
11712,note_on,,96,0,6,,,,,,,,5,,,58,0
11712,note_on,,0,0,6,,,,,,,,5,,,55,75
11712,note_on,,0,0,4,,,,,,,,3,,,43,75
11712,note_on,,96,0,4,,,,,,,,3,,,46,0
11712,note_on,,0,0,8,,,,,,,,7,,,43,60
11712,note_on,,96,0,8,,,,,,,,7,,,46,0
11712,note_on,,96,0,12,,,,,,,,12,,,46,0
11712,note_on,,96,0,7,,,,,,,,6,,,58,0
11808,note_on,,0,0,5,,,,,,,,4,,,62,75
11808,note_on,,96,0,6,,,,,,,,5,,,55,0
11808,note_on,,0,0,6,,,,,,,,5,,,58,75
11808,note_on,,96,0,5,,,,,,,,4,,,55,0
11808,note_on,,0,0,7,,,,,,,,6,,,55,60
11808,note_on,,96,0,7,,,,,,,,6,,,55,0
11904,note_on,,96,0,7,,,,,,,,6,,,55,0
11904,note_on,,0,0,7,,,,,,,,6,,,55,60
11904,note_on,,96,0,5,,,,,,,,4,,,62,0
11904,note_on,,0,0,5,,,,,,,,4,,,62,75
11904,note_on,,0,0,6,,,,,,,,5,,,58,75
11904,note_on,,96,0,6,,,,,,,,5,,,58,0
12000,note_on,,96,0,7,,,,,,,,6,,,55,0
12000,note_on,,0,0,7,,,,,,,,6,,,55,60
12000,note_on,,96,0,5,,,,,,,,4,,,62,0
12000,note_on,,0,0,5,,,,,,,,4,,,62,75
12000,note_on,,0,0,6,,,,,,,,5,,,58,75
12000,note_on,,96,0,6,,,,,,,,5,,,58,0
12000,note_on,,864,0,3,,,,,,,,2,,,62,75
12096,note_on,,0,0,6,,,,,,,,5,,,58,75
12096,note_on,,96,0,6,,,,,,,,5,,,58,0
12096,note_on,,384,0,4,,,,,,,,3,,,43,0
12096,note_on,,96,0,3,,,,,,,,2,,,62,0
12096,note_on,,0,0,5,,,,,,,,4,,,62,75
12096,note_on,,96,0,5,,,,,,,,4,,,62,0
12096,note_on,,0,0,7,,,,,,,,6,,,55,60
12096,note_on,,96,0,7,,,,,,,,6,,,55,0
12096,note_on,,0,0,3,,,,,,,,2,,,67,75
12192,note_on,,96,0,3,,,,,,,,2,,,67,0
12192,note_on,,0,0,3,,,,,,,,2,,,62,75
12192,note_on,,0,0,6,,,,,,,,5,,,58,75
12192,note_on,,96,0,5,,,,,,,,4,,,62,0
12192,note_on,,0,0,5,,,,,,,,4,,,62,75
12192,note_on,,96,0,6,,,,,,,,5,,,58,0
12192,note_on,,96,0,7,,,,,,,,6,,,55,0
12192,note_on,,0,0,7,,,,,,,,6,,,55,60
12288,note_on,,0,0,6,,,,,,,,5,,,58,75
12288,note_on,,96,0,6,,,,,,,,5,,,58,0
12288,note_on,,96,0,7,,,,,,,,6,,,55,0
12288,note_on,,0,0,7,,,,,,,,6,,,55,60
12288,note_on,,0,0,3,,,,,,,,2,,,58,75
12288,note_on,,96,0,3,,,,,,,,2,,,62,0
12288,note_on,,96,0,5,,,,,,,,4,,,62,0
12288,note_on,,0,0,5,,,,,,,,4,,,62,75
12384,note_on,,96,0,3,,,,,,,,2,,,58,0
12384,note_on,,0,0,6,,,,,,,,5,,,58,75
12384,note_on,,96,0,6,,,,,,,,5,,,58,0
12384,note_on,,0,0,3,,,,,,,,2,,,57,75
12384,note_on,,96,0,5,,,,,,,,4,,,62,0
12384,note_on,,0,0,5,,,,,,,,4,,,62,75
12384,note_on,,0,0,7,,,,,,,,6,,,55,60
12384,note_on,,96,0,7,,,,,,,,6,,,55,0
12384,note_on,,1056,0,2,,,,,,,,1,,,62,75
12432,note_on,,48,0,3,,,,,,,,2,,,57,0
12432,note_on,,0,0,3,,,,,,,,2,,,55,75
12480,note_on,,0,0,7,,,,,,,,6,,,62,60
12480,note_on,,96,0,7,,,,,,,,6,,,55,0
12480,note_on,,48,0,3,,,,,,,,2,,,55,0
12480,note_on,,0,0,3,,,,,,,,2,,,55,75
12480,note_on,,0,0,2,,,,,,,,1,,,70,75
12480,note_on,,96,0,2,,,,,,,,1,,,62,0
12480,note_on,,0,0,5,,,,,,,,4,,,70,75
12480,note_on,,96,0,6,,,,,,,,5,,,58,0
12480,note_on,,0,0,6,,,,,,,,5,,,67,75
12480,note_on,,96,0,5,,,,,,,,4,,,62,0
12576,note_on,,0,0,7,,,,,,,,6,,,58,60
12576,note_on,,0,0,6,,,,,,,,5,,,62,75
12576,note_on,,96,0,6,,,,,,,,5,,,67,0
12576,note_on,,96,0,2,,,,,,,,1,,,70,0
12576,note_on,,96,0,5,,,,,,,,4,,,70,0
12576,note_on,,0,0,5,,,,,,,,4,,,67,75
12576,note_on,,96,0,7,,,,,,,,6,,,62,0
12576,note_on,,0,0,2,,,,,,,,1,,,67,75
12672,note_on,,0,0,6,,,,,,,,5,,,58,75
12672,note_on,,0,0,9,,,,,,,,8,,,46,60
12672,note_on,,960,0,9,,,,,,,,8,,,31,0
12672,note_on,,960,0,12,,,,,,,,12,,,43,0
12672,note_on,,0,0,7,,,,,,,,6,,,67,60
12672,note_on,,0,0,8,,,,,,,,7,,,58,60
12672,note_on,,576,0,4,,,,,,,,3,,,58,75
12672,note_on,,96,0,7,,,,,,,,6,,,58,0
12672,note_on,,960,0,8,,,,,,,,7,,,43,0
12672,note_on,,192,0,3,,,,,,,,2,,,55,0
12672,note_on,,0,0,12,,,,,,,,12,,,58,60
12672,note_on,,0,0,2,,,,,,,,1,,,62,75
12672,note_on,,96,0,2,,,,,,,,1,,,67,0
12672,note_on,,0,0,5,,,,,,,,4,,,62,75
12672,note_on,,96,0,5,,,,,,,,4,,,67,0
12672,note_on,,96,0,6,,,,,,,,5,,,62,0
12768,note_on,,0,0,9,,,,,,,,8,,,45,60
12768,note_on,,0,0,2,,,,,,,,1,,,60,75
12768,note_on,,96,0,2,,,,,,,,1,,,62,0
12768,note_on,,96,0,5,,,,,,,,4,,,62,0
12768,note_on,,96,0,8,,,,,,,,7,,,58,0
12768,note_on,,0,0,8,,,,,,,,7,,,57,60
12768,note_on,,96,0,6,,,,,,,,5,,,58,0
12768,note_on,,1440,0,11,,,,,,,,11,,,78,60
12768,note_on,,96,0,9,,,,,,,,8,,,46,0
12768,note_on,,1440,0,10,,,,,,,,10,,,78,60
12768,note_on,,0,0,5,,,,,,,,4,,,60,75
12768,note_on,,0,0,12,,,,,,,,12,,,57,60
12768,note_on,,96,0,7,,,,,,,,6,,,67,0
12768,note_on,,0,0,6,,,,,,,,5,,,57,75
12768,note_on,,96,0,4,,,,,,,,3,,,58,0
12768,note_on,,0,0,4,,,,,,,,3,,,57,75
12768,note_on,,1824,0,1,,,,,,,,0,,,78,75
12768,note_on,,96,0,12,,,,,,,,12,,,58,0
12768,note_on,,0,0,7,,,,,,,,6,,,60,60
12816,note_on,,0,0,12,,,,,,,,12,,,55,60
12816,note_on,,48,0,6,,,,,,,,5,,,57,0
12816,note_on,,0,0,6,,,,,,,,5,,,55,75
12816,note_on,,48,0,2,,,,,,,,1,,,60,0
12816,note_on,,0,0,2,,,,,,,,1,,,58,75
12816,note_on,,0,0,9,,,,,,,,8,,,43,60
12816,note_on,,48,0,9,,,,,,,,8,,,45,0
12816,note_on,,48,0,8,,,,,,,,7,,,57,0
12816,note_on,,48,0,5,,,,,,,,4,,,60,0
12816,note_on,,0,0,5,,,,,,,,4,,,58,75
12816,note_on,,0,0,8,,,,,,,,7,,,55,60
12816,note_on,,48,0,4,,,,,,,,3,,,57,0
12816,note_on,,0,0,4,,,,,,,,3,,,55,75
12816,note_on,,48,0,12,,,,,,,,12,,,57,0
12864,note_on,,96,0,1,,,,,,,,0,,,78,0
12864,note_on,,48,0,6,,,,,,,,5,,,55,0
12864,note_on,,48,0,8,,,,,,,,7,,,55,0
12864,note_on,,0,0,8,,,,,,,,7,,,55,60
12864,note_on,,48,0,12,,,,,,,,12,,,55,0
12864,note_on,,0,0,12,,,,,,,,12,,,55,60
12864,note_on,,0,0,11,,,,,,,,11,,,79,60
12864,note_on,,96,0,11,,,,,,,,11,,,78,0
12864,note_on,,0,0,1,,,,,,,,0,,,79,75
12864,note_on,,0,0,6,,,,,,,,5,,,55,75
12864,note_on,,48,0,5,,,,,,,,4,,,58,0
12864,note_on,,0,0,10,,,,,,,,10,,,79,60
12864,note_on,,0,0,7,,,,,,,,6,,,62,60
12864,note_on,,48,0,2,,,,,,,,1,,,58,0
12864,note_on,,0,0,2,,,,,,,,1,,,58,75
12864,note_on,,96,0,10,,,,,,,,10,,,78,0
12864,note_on,,96,0,7,,,,,,,,6,,,60,0
12864,note_on,,0,0,9,,,,,,,,8,,,43,60
12864,note_on,,48,0,9,,,,,,,,8,,,43,0
12864,note_on,,48,0,4,,,,,,,,3,,,55,0
12864,note_on,,0,0,4,,,,,,,,3,,,55,75
12864,note_on,,0,0,5,,,,,,,,4,,,58,75
12960,note_on,,96,0,6,,,,,,,,5,,,55,0
12960,note_on,,288,0,3,,,,,,,,2,,,62,75
12960,note_on,,96,0,7,,,,,,,,6,,,62,0
12960,note_on,,0,0,6,,,,,,,,5,,,70,75
12960,note_on,,0,0,7,,,,,,,,6,,,55,60
12960,note_on,,96,0,5,,,,,,,,4,,,58,0
12960,note_on,,0,0,5,,,,,,,,4,,,74,75
13056,note_on,,96,0,6,,,,,,,,5,,,70,0
13056,note_on,,96,0,7,,,,,,,,6,,,55,0
13056,note_on,,0,0,7,,,,,,,,6,,,62,60
13056,note_on,,192,0,2,,,,,,,,1,,,58,0
13056,note_on,,192,0,1,,,,,,,,0,,,79,0
13056,note_on,,0,0,6,,,,,,,,5,,,67,75
13056,note_on,,96,0,3,,,,,,,,2,,,62,0
13056,note_on,,0,0,3,,,,,,,,2,,,58,75
13056,note_on,,192,0,10,,,,,,,,10,,,79,0
13056,note_on,,0,0,5,,,,,,,,4,,,70,75
13056,note_on,,96,0,5,,,,,,,,4,,,74,0
13056,note_on,,192,0,11,,,,,,,,11,,,79,0
13152,note_on,,96,0,11,,,,,,,,11,,,74,60
13152,note_on,,96,0,10,,,,,,,,10,,,74,60
13152,note_on,,96,0,1,,,,,,,,0,,,74,75
13248,note_on,,96,0,11,,,,,,,,11,,,74,0
13248,note_on,,96,0,10,,,,,,,,10,,,74,0
13248,note_on,,0,0,11,,,,,,,,11,,,79,60
13248,note_on,,384,0,4,,,,,,,,3,,,55,0
13248,note_on,,0,0,10,,,,,,,,10,,,79,60
13248,note_on,,192,0,3,,,,,,,,2,,,58,0
13248,note_on,,192,0,7,,,,,,,,6,,,62,0
13248,note_on,,192,0,5,,,,,,,,4,,,70,0
13248,note_on,,96,0,1,,,,,,,,0,,,74,0
13248,note_on,,192,0,6,,,,,,,,5,,,67,0
13248,note_on,,0,0,1,,,,,,,,0,,,79,75
13344,note_on,,0,0,10,,,,,,,,10,,,74,60
13344,note_on,,96,0,10,,,,,,,,10,,,79,0
13344,note_on,,96,0,1,,,,,,,,0,,,79,0
13344,note_on,,0,0,1,,,,,,,,0,,,74,75
13344,note_on,,96,0,11,,,,,,,,11,,,79,0
13344,note_on,,0,0,11,,,,,,,,11,,,74,60
13440,note_on,,96,0,10,,,,,,,,10,,,74,0
13440,note_on,,96,0,11,,,,,,,,11,,,74,0
13440,note_on,,96,0,1,,,,,,,,0,,,74,0
13440,note_on,,0,0,1,,,,,,,,0,,,70,75
13440,note_on,,384,0,2,,,,,,,,1,,,67,75
13440,note_on,,0,0,10,,,,,,,,10,,,70,60
13440,note_on,,0,0,11,,,,,,,,11,,,70,60
13440,note_on,,192,0,6,,,,,,,,5,,,67,75
13440,note_on,,192,0,5,,,,,,,,4,,,70,75
13536,note_on,,0,0,11,,,,,,,,11,,,69,60
13536,note_on,,0,0,6,,,,,,,,5,,,66,75
13536,note_on,,288,0,3,,,,,,,,2,,,62,75
13536,note_on,,288,0,7,,,,,,,,6,,,62,60
13536,note_on,,96,0,11,,,,,,,,11,,,70,0
13536,note_on,,0,0,12,,,,,,,,12,,,50,60
13536,note_on,,672,0,12,,,,,,,,12,,,55,0
13536,note_on,,0,0,2,,,,,,,,1,,,66,75
13536,note_on,,96,0,2,,,,,,,,1,,,67,0
13536,note_on,,672,0,9,,,,,,,,8,,,43,0
13536,note_on,,0,0,9,,,,,,,,8,,,38,60
13536,note_on,,96,0,6,,,,,,,,5,,,67,0
13536,note_on,,0,0,10,,,,,,,,10,,,69,60
13536,note_on,,288,0,4,,,,,,,,3,,,50,75
13536,note_on,,0,0,5,,,,,,,,4,,,69,75
13536,note_on,,96,0,5,,,,,,,,4,,,70,0
13536,note_on,,0,0,8,,,,,,,,7,,,50,60
13536,note_on,,0,0,1,,,,,,,,0,,,69,75
13536,note_on,,96,0,1,,,,,,,,0,,,70,0
13536,note_on,,672,0,8,,,,,,,,7,,,55,0
13536,note_on,,96,0,10,,,,,,,,10,,,70,0
13584,note_on,,48,0,11,,,,,,,,11,,,69,0
13584,note_on,,0,0,11,,,,,,,,11,,,67,60
13584,note_on,,48,0,1,,,,,,,,0,,,69,0
13584,note_on,,48,0,5,,,,,,,,4,,,69,0
13584,note_on,,0,0,1,,,,,,,,0,,,67,75
13584,note_on,,0,0,5,,,,,,,,4,,,67,75
13584,note_on,,0,0,10,,,,,,,,10,,,67,60
13584,note_on,,48,0,10,,,,,,,,10,,,69,0
13632,note_on,,96,0,7,,,,,,,,6,,,62,0
13632,note_on,,0,0,8,,,,,,,,7,,,58,60
13632,note_on,,48,0,5,,,,,,,,4,,,67,0
13632,note_on,,96,0,8,,,,,,,,7,,,50,0
13632,note_on,,0,0,3,,,,,,,,2,,,62,75
13632,note_on,,96,0,3,,,,,,,,2,,,62,0
13632,note_on,,0,0,5,,,,,,,,4,,,67,75
13632,note_on,,0,0,7,,,,,,,,6,,,62,60
13632,note_on,,96,0,12,,,,,,,,12,,,50,0
13632,note_on,,96,0,6,,,,,,,,5,,,66,0
13632,note_on,,48,0,11,,,,,,,,11,,,67,0
13632,note_on,,0,0,11,,,,,,,,11,,,67,60
13632,note_on,,48,0,1,,,,,,,,0,,,67,0
13632,note_on,,0,0,9,,,,,,,,8,,,46,60
13632,note_on,,96,0,9,,,,,,,,8,,,38,0
13632,note_on,,0,0,1,,,,,,,,0,,,67,75
13632,note_on,,0,0,4,,,,,,,,3,,,58,75
13632,note_on,,48,0,10,,,,,,,,10,,,67,0
13632,note_on,,96,0,2,,,,,,,,1,,,66,0
13632,note_on,,0,0,2,,,,,,,,1,,,67,75
13632,note_on,,0,0,10,,,,,,,,10,,,67,60
13632,note_on,,0,0,12,,,,,,,,12,,,58,60
13632,note_on,,0,0,6,,,,,,,,5,,,67,75
13632,note_on,,96,0,4,,,,,,,,3,,,50,0
13728,note_on,,96,0,3,,,,,,,,2,,,62,0
13728,note_on,,96,0,9,,,,,,,,8,,,46,0
13728,note_on,,0,0,9,,,,,,,,8,,,43,60
13728,note_on,,0,0,8,,,,,,,,7,,,55,60
13728,note_on,,96,0,8,,,,,,,,7,,,58,0
13728,note_on,,96,0,12,,,,,,,,12,,,58,0
13728,note_on,,0,0,12,,,,,,,,12,,,55,60
13728,note_on,,0,0,3,,,,,,,,2,,,60,75
13728,note_on,,0,0,4,,,,,,,,3,,,55,75
13728,note_on,,96,0,4,,,,,,,,3,,,58,0
13728,note_on,,0,0,7,,,,,,,,6,,,60,60
13728,note_on,,96,0,7,,,,,,,,6,,,62,0
13776,note_on,,0,0,7,,,,,,,,6,,,58,60
13776,note_on,,48,0,3,,,,,,,,2,,,60,0
13776,note_on,,0,0,3,,,,,,,,2,,,58,75
13776,note_on,,48,0,7,,,,,,,,6,,,60,0
13824,note_on,,0,0,3,,,,,,,,2,,,58,75
13824,note_on,,48,0,3,,,,,,,,2,,,58,0
13824,note_on,,96,0,12,,,,,,,,12,,,55,0
13824,note_on,,96,0,8,,,,,,,,7,,,55,0
13824,note_on,,0,0,12,,,,,,,,12,,,50,60
13824,note_on,,96,0,9,,,,,,,,8,,,43,0
13824,note_on,,192,0,5,,,,,,,,4,,,67,0
13824,note_on,,0,0,8,,,,,,,,7,,,50,60
13824,note_on,,192,0,11,,,,,,,,11,,,67,0
13824,note_on,,48,0,7,,,,,,,,6,,,58,0
13824,note_on,,0,0,9,,,,,,,,8,,,38,60
13824,note_on,,192,0,1,,,,,,,,0,,,67,0
13824,note_on,,192,0,10,,,,,,,,10,,,67,0
13824,note_on,,192,0,2,,,,,,,,1,,,67,0
13824,note_on,,96,0,4,,,,,,,,3,,,55,0
13824,note_on,,0,0,4,,,,,,,,3,,,50,75
13824,note_on,,192,0,6,,,,,,,,5,,,67,0
13824,note_on,,0,0,7,,,,,,,,6,,,58,60
13920,note_on,,96,0,9,,,,,,,,8,,,38,0
13920,note_on,,0,0,9,,,,,,,,8,,,34,60
13920,note_on,,96,0,8,,,,,,,,7,,,50,0
13920,note_on,,96,0,11,,,,,,,,11,,,74,75
13920,note_on,,0,0,8,,,,,,,,7,,,46,60
13920,note_on,,0,0,7,,,,,,,,6,,,57,60
13920,note_on,,0,0,12,,,,,,,,12,,,46,60
13920,note_on,,96,0,4,,,,,,,,3,,,50,0
13920,note_on,,96,0,1,,,,,,,,0,,,74,127
13920,note_on,,96,0,10,,,,,,,,10,,,74,60
13920,note_on,,0,0,3,,,,,,,,2,,,57,75
13920,note_on,,96,0,12,,,,,,,,12,,,50,0
13920,note_on,,96,0,7,,,,,,,,6,,,58,0
13920,note_on,,96,0,5,,,,,,,,4,,,74,92
13920,note_on,,0,0,4,,,,,,,,3,,,46,75
13920,note_on,,96,0,3,,,,,,,,2,,,58,0
13968,note_on,,0,0,3,,,,,,,,2,,,55,75
13968,note_on,,0,0,7,,,,,,,,6,,,55,60
13968,note_on,,48,0,3,,,,,,,,2,,,57,0
13968,note_on,,48,0,7,,,,,,,,6,,,57,0
14016,note_on,,0,0,5,,,,,,,,4,,,75,92
14016,note_on,,48,0,3,,,,,,,,2,,,55,0
14016,note_on,,0,0,4,,,,,,,,3,,,43,75
14016,note_on,,96,0,11,,,,,,,,11,,,74,0
14016,note_on,,0,0,7,,,,,,,,6,,,55,60
14016,note_on,,96,0,10,,,,,,,,10,,,74,0
14016,note_on,,96,0,8,,,,,,,,7,,,46,0
14016,note_on,,0,0,8,,,,,,,,7,,,43,60
14016,note_on,,96,0,4,,,,,,,,3,,,46,0
14016,note_on,,0,0,11,,,,,,,,11,,,75,75
14016,note_on,,0,0,9,,,,,,,,8,,,31,60
14016,note_on,,0,0,12,,,,,,,,12,,,43,60
14016,note_on,,96,0,5,,,,,,,,4,,,74,0
14016,note_on,,96,0,9,,,,,,,,8,,,34,0
14016,note_on,,0,0,3,,,,,,,,2,,,55,75
14016,note_on,,96,0,1,,,,,,,,0,,,74,0
14016,note_on,,0,0,1,,,,,,,,0,,,75,127
14016,note_on,,96,0,12,,,,,,,,12,,,46,0
14016,note_on,,48,0,7,,,,,,,,6,,,55,0
14112,note_on,,0,0,5,,,,,,,,4,,,75,92
14112,note_on,,96,0,5,,,,,,,,4,,,75,0
14112,note_on,,96,0,11,,,,,,,,11,,,75,0
14112,note_on,,0,0,11,,,,,,,,11,,,75,75
14112,note_on,,0,0,1,,,,,,,,0,,,75,127
14112,note_on,,96,0,1,,,,,,,,0,,,75,0
14208,note_on,,0,0,5,,,,,,,,4,,,75,92
14208,note_on,,192,0,10,,,,,,,,10,,,79,75
14208,note_on,,384,0,2,,,,,,,,1,,,67,127
14208,note_on,,96,0,5,,,,,,,,4,,,75,0
14208,note_on,,0,0,11,,,,,,,,11,,,75,75
14208,note_on,,0,0,1,,,,,,,,0,,,75,127
14208,note_on,,96,0,11,,,,,,,,11,,,75,0
14208,note_on,,384,0,6,,,,,,,,5,,,79,92
14208,note_on,,192,0,4,,,,,,,,3,,,43,0
14208,note_on,,192,0,3,,,,,,,,2,,,55,0
14208,note_on,,96,0,1,,,,,,,,0,,,75,0
14304,note_on,,96,0,1,,,,,,,,0,,,75,0
14304,note_on,,0,0,1,,,,,,,,0,,,74,127
14304,note_on,,0,0,7,,,,,,,,6,,,58,60
14304,note_on,,288,0,7,,,,,,,,6,,,55,0
14304,note_on,,288,0,12,,,,,,,,12,,,43,0
14304,note_on,,0,0,9,,,,,,,,8,,,46,60
14304,note_on,,288,0,9,,,,,,,,8,,,31,0
14304,note_on,,288,0,8,,,,,,,,7,,,43,0
14304,note_on,,0,0,8,,,,,,,,7,,,58,60
14304,note_on,,0,0,12,,,,,,,,12,,,58,60
14304,note_on,,0,0,11,,,,,,,,11,,,74,75
14304,note_on,,96,0,11,,,,,,,,11,,,75,0
14304,note_on,,0,0,5,,,,,,,,4,,,74,92
14304,note_on,,96,0,5,,,,,,,,4,,,75,0
14400,note_on,,96,0,5,,,,,,,,4,,,74,0
14400,note_on,,0,0,11,,,,,,,,11,,,73,75
14400,note_on,,96,0,11,,,,,,,,11,,,74,0
14400,note_on,,96,0,1,,,,,,,,0,,,74,0
14400,note_on,,0,0,1,,,,,,,,0,,,73,127
14400,note_on,,96,0,9,,,,,,,,8,,,46,0
14400,note_on,,0,0,5,,,,,,,,4,,,73,92
14400,note_on,,0,0,9,,,,,,,,8,,,45,60
14400,note_on,,192,0,3,,,,,,,,2,,,57,127
14400,note_on,,96,0,7,,,,,,,,6,,,58,0
14400,note_on,,96,0,8,,,,,,,,7,,,58,0
14400,note_on,,0,0,8,,,,,,,,7,,,57,60
14400,note_on,,96,0,12,,,,,,,,12,,,58,0
14400,note_on,,0,0,12,,,,,,,,12,,,57,60
14400,note_on,,0,0,7,,,,,,,,6,,,57,75
14496,note_on,,0,0,6,,,,,,,,5,,,82,92
14496,note_on,,288,0,6,,,,,,,,5,,,79,0
14496,note_on,,0,0,10,,,,,,,,10,,,82,75
14496,note_on,,0,0,2,,,,,,,,1,,,70,127
14496,note_on,,288,0,2,,,,,,,,1,,,67,0
14496,note_on,,288,0,10,,,,,,,,10,,,79,0
14592,note_on,,0,0,10,,,,,,,,10,,,81,75
14592,note_on,,96,0,6,,,,,,,,5,,,82,0
14592,note_on,,0,0,6,,,,,,,,5,,,81,92
14592,note_on,,96,0,2,,,,,,,,1,,,70,0
14592,note_on,,0,0,2,,,,,,,,1,,,69,127
14592,note_on,,96,0,10,,,,,,,,10,,,82,0
14688,note_on,,0,0,11,,,,,,,,11,,,73,75
14688,note_on,,96,0,2,,,,,,,,1,,,69,0
14688,note_on,,288,0,11,,,,,,,,11,,,73,0
14688,note_on,,0,0,10,,,,,,,,10,,,79,75
14688,note_on,,288,0,1,,,,,,,,0,,,73,0
14688,note_on,,0,0,1,,,,,,,,0,,,73,127
14688,note_on,,96,0,10,,,,,,,,10,,,81,0
14688,note_on,,96,0,6,,,,,,,,5,,,81,0
14688,note_on,,0,0,2,,,,,,,,1,,,67,127
14688,note_on,,0,0,6,,,,,,,,5,,,79,92
14688,note_on,,0,0,5,,,,,,,,4,,,73,92
14688,note_on,,288,0,5,,,,,,,,4,,,73,0
14784,note_on,,0,0,9,,,,,,,,8,,,38,75
14784,note_on,,0,0,1,,,,,,,,0,,,74,127
14784,note_on,,96,0,5,,,,,,,,4,,,73,0
14784,note_on,,384,0,9,,,,,,,,8,,,45,0
14784,note_on,,0,0,12,,,,,,,,12,,,50,75
14784,note_on,,384,0,12,,,,,,,,12,,,57,0
14784,note_on,,96,0,1,,,,,,,,0,,,73,0
14784,note_on,,0,0,8,,,,,,,,7,,,50,75
14784,note_on,,576,0,4,,,,,,,,3,,,50,127
14784,note_on,,96,0,11,,,,,,,,11,,,73,0
14784,note_on,,0,0,10,,,,,,,,10,,,78,75
14784,note_on,,96,0,10,,,,,,,,10,,,79,0
14784,note_on,,384,0,8,,,,,,,,7,,,57,0
14784,note_on,,0,0,11,,,,,,,,11,,,74,75
14784,note_on,,0,0,2,,,,,,,,1,,,66,127
14784,note_on,,96,0,2,,,,,,,,1,,,67,0
14784,note_on,,0,0,6,,,,,,,,5,,,78,92
14784,note_on,,96,0,6,,,,,,,,5,,,79,0
14784,note_on,,0,0,5,,,,,,,,4,,,74,92
14880,note_on,,96,0,11,,,,,,,,11,,,74,0
14880,note_on,,0,0,11,,,,,,,,11,,,72,75
14880,note_on,,480,0,7,,,,,,,,6,,,57,0
14880,note_on,,0,0,3,,,,,,,,2,,,57,127
14880,note_on,,96,0,1,,,,,,,,0,,,74,0
14880,note_on,,480,0,3,,,,,,,,2,,,57,0
14880,note_on,,96,0,5,,,,,,,,4,,,74,0
14880,note_on,,0,0,5,,,,,,,,4,,,72,92
14880,note_on,,0,0,10,,,,,,,,10,,,81,75
14880,note_on,,96,0,10,,,,,,,,10,,,78,0
14880,note_on,,0,0,6,,,,,,,,5,,,81,92
14880,note_on,,96,0,6,,,,,,,,5,,,78,0
14880,note_on,,0,0,7,,,,,,,,6,,,66,75
14880,note_on,,0,0,1,,,,,,,,0,,,72,127
14976,note_on,,0,0,3,,,,,,,,2,,,62,127
14976,note_on,,96,0,3,,,,,,,,2,,,57,0
14976,note_on,,96,0,1,,,,,,,,0,,,72,0
14976,note_on,,0,0,11,,,,,,,,11,,,70,75
14976,note_on,,0,0,10,,,,,,,,10,,,74,75
14976,note_on,,0,0,5,,,,,,,,4,,,70,92
14976,note_on,,96,0,5,,,,,,,,4,,,72,0
14976,note_on,,96,0,11,,,,,,,,11,,,72,0
14976,note_on,,0,0,6,,,,,,,,5,,,86,92
14976,note_on,,96,0,6,,,,,,,,5,,,81,0
14976,note_on,,0,0,1,,,,,,,,0,,,70,127
14976,note_on,,96,0,10,,,,,,,,10,,,81,0
14976,note_on,,96,0,7,,,,,,,,6,,,66,0
14976,note_on,,0,0,7,,,,,,,,6,,,62,75
15072,note_on,,0,0,4,,,,,,,,3,,,50,127
15072,note_on,,288,0,4,,,,,,,,3,,,50,0
15072,note_on,,96,0,7,,,,,,,,6,,,62,0
15072,note_on,,96,0,5,,,,,,,,4,,,70,0
15072,note_on,,0,0,12,,,,,,,,12,,,50,75
15072,note_on,,288,0,12,,,,,,,,12,,,50,0
15072,note_on,,0,0,5,,,,,,,,4,,,69,92
15072,note_on,,288,0,8,,,,,,,,7,,,50,0
15072,note_on,,0,0,8,,,,,,,,7,,,50,75
15072,note_on,,0,0,7,,,,,,,,6,,,60,75
15072,note_on,,96,0,1,,,,,,,,0,,,70,0
15072,note_on,,0,0,1,,,,,,,,0,,,69,127
15072,note_on,,0,0,3,,,,,,,,2,,,60,127
15072,note_on,,96,0,3,,,,,,,,2,,,62,0
15072,note_on,,288,0,9,,,,,,,,8,,,38,0
15072,note_on,,0,0,6,,,,,,,,5,,,78,92
15072,note_on,,96,0,6,,,,,,,,5,,,86,0
15072,note_on,,288,0,2,,,,,,,,1,,,66,0
15072,note_on,,0,0,10,,,,,,,,10,,,78,75
15072,note_on,,96,0,10,,,,,,,,10,,,74,0
15072,note_on,,96,0,11,,,,,,,,11,,,70,0
15072,note_on,,0,0,11,,,,,,,,11,,,69,75
15072,note_on,,0,0,9,,,,,,,,8,,,38,75
15072,note_on,,0,0,2,,,,,,,,1,,,66,127
15168,note_on,,0,0,9,,,,,,,,8,,,39,75
15168,note_on,,96,0,5,,,,,,,,4,,,69,0
15168,note_on,,0,0,7,,,,,,,,6,,,58,75
15168,note_on,,96,0,7,,,,,,,,6,,,60,0
15168,note_on,,96,0,9,,,,,,,,8,,,38,0
15168,note_on,,0,0,5,,,,,,,,4,,,67,92
15168,note_on,,96,0,2,,,,,,,,1,,,66,0
15168,note_on,,0,0,2,,,,,,,,1,,,67,127
15168,note_on,,0,0,8,,,,,,,,7,,,51,75
15168,note_on,,96,0,8,,,,,,,,7,,,50,0
15168,note_on,,0,0,6,,,,,,,,5,,,79,92
15168,note_on,,96,0,6,,,,,,,,5,,,78,0
15168,note_on,,96,0,10,,,,,,,,10,,,78,0
15168,note_on,,0,0,10,,,,,,,,10,,,79,75
15168,note_on,,96,0,11,,,,,,,,11,,,69,0
15168,note_on,,0,0,11,,,,,,,,11,,,67,75
15168,note_on,,96,0,12,,,,,,,,12,,,50,0
15168,note_on,,96,0,4,,,,,,,,3,,,50,0
15168,note_on,,0,0,12,,,,,,,,12,,,51,75
15168,note_on,,0,0,3,,,,,,,,2,,,58,127
15168,note_on,,96,0,3,,,,,,,,2,,,60,0
15168,note_on,,0,0,1,,,,,,,,0,,,67,127
15168,note_on,,96,0,1,,,,,,,,0,,,69,0
15168,note_on,,0,0,4,,,,,,,,3,,,51,127
15264,note_on,,96,0,6,,,,,,,,5,,,79,0
15264,note_on,,0,0,10,,,,,,,,10,,,70,75
15264,note_on,,96,0,12,,,,,,,,12,,,51,0
15264,note_on,,0,0,6,,,,,,,,5,,,67,92
15264,note_on,,0,0,12,,,,,,,,12,,,51,75
15264,note_on,,96,0,9,,,,,,,,8,,,39,0
15264,note_on,,0,0,9,,,,,,,,8,,,39,75
15264,note_on,,96,0,5,,,,,,,,4,,,67,0
15264,note_on,,0,0,5,,,,,,,,4,,,70,92
15264,note_on,,0,0,8,,,,,,,,7,,,51,75
15264,note_on,,96,0,8,,,,,,,,7,,,51,0
15264,note_on,,0,0,4,,,,,,,,3,,,51,127
15264,note_on,,96,0,4,,,,,,,,3,,,51,0
15264,note_on,,96,0,10,,,,,,,,10,,,79,0
15360,note_on,,0,0,6,,,,,,,,5,,,79,92
15360,note_on,,96,0,6,,,,,,,,5,,,67,0
15360,note_on,,0,0,12,,,,,,,,12,,,51,75
15360,note_on,,96,0,12,,,,,,,,12,,,51,0
15360,note_on,,96,0,8,,,,,,,,7,,,51,0
15360,note_on,,0,0,10,,,,,,,,10,,,82,75
15360,note_on,,0,0,8,,,,,,,,7,,,51,75
15360,note_on,,0,0,11,,,,,,,,11,,,79,75
15360,note_on,,192,0,11,,,,,,,,11,,,67,0
15360,note_on,,96,0,4,,,,,,,,3,,,51,0
15360,note_on,,0,0,4,,,,,,,,3,,,51,127
15360,note_on,,0,0,5,,,,,,,,4,,,82,92
15360,note_on,,96,0,5,,,,,,,,4,,,70,0
15360,note_on,,96,0,9,,,,,,,,8,,,39,0
15360,note_on,,0,0,9,,,,,,,,8,,,39,75
15360,note_on,,96,0,10,,,,,,,,10,,,70,0
15456,note_on,,0,0,2,,,,,,,,1,,,62,127
15456,note_on,,0,0,7,,,,,,,,6,,,62,75
15456,note_on,,288,0,7,,,,,,,,6,,,58,0
15456,note_on,,96,0,4,,,,,,,,3,,,51,0
15456,note_on,,96,0,8,,,,,,,,7,,,51,0
15456,note_on,,0,0,8,,,,,,,,7,,,50,75
15456,note_on,,288,0,2,,,,,,,,1,,,67,0
15456,note_on,,0,0,12,,,,,,,,12,,,50,75
15456,note_on,,0,0,4,,,,,,,,3,,,50,127
15456,note_on,,96,0,9,,,,,,,,8,,,39,0
15456,note_on,,96,0,12,,,,,,,,12,,,51,0
15456,note_on,,0,0,9,,,,,,,,8,,,38,75
15552,note_on,,0,0,4,,,,,,,,3,,,49,127
15552,note_on,,96,0,4,,,,,,,,3,,,50,0
15552,note_on,,96,0,2,,,,,,,,1,,,62,0
15552,note_on,,96,0,9,,,,,,,,8,,,38,0
15552,note_on,,0,0,7,,,,,,,,6,,,64,75
15552,note_on,,0,0,2,,,,,,,,1,,,64,127
15552,note_on,,96,0,7,,,,,,,,6,,,62,0
15552,note_on,,96,0,8,,,,,,,,7,,,50,0
15552,note_on,,0,0,8,,,,,,,,7,,,49,75
15552,note_on,,0,0,9,,,,,,,,8,,,37,75
15552,note_on,,96,0,12,,,,,,,,12,,,50,0
15552,note_on,,0,0,12,,,,,,,,12,,,49,75
15648,note_on,,0,0,6,,,,,,,,5,,,67,92
15648,note_on,,96,0,4,,,,,,,,3,,,49,0
15648,note_on,,288,0,6,,,,,,,,5,,,79,0
15648,note_on,,288,0,5,,,,,,,,4,,,82,0
15648,note_on,,0,0,10,,,,,,,,10,,,70,75
15648,note_on,,0,0,4,,,,,,,,3,,,49,127
15648,note_on,,288,0,11,,,,,,,,11,,,79,0
15648,note_on,,0,0,11,,,,,,,,11,,,67,75
15648,note_on,,0,0,5,,,,,,,,4,,,70,92
15648,note_on,,288,0,10,,,,,,,,10,,,82,0
15744,note_on,,96,0,4,,,,,,,,3,,,49,0
15840,note_on,,192,0,10,,,,,,,,10,,,70,0
15840,note_on,,0,0,10,,,,,,,,10,,,70,75
15840,note_on,,288,0,7,,,,,,,,6,,,64,0
15840,note_on,,0,0,7,,,,,,,,6,,,64,75
15840,note_on,,0,0,11,,,,,,,,11,,,67,75
15840,note_on,,0,0,8,,,,,,,,7,,,49,75
15840,note_on,,0,0,3,,,,,,,,2,,,58,127
15840,note_on,,0,0,9,,,,,,,,8,,,37,75
15840,note_on,,192,0,11,,,,,,,,11,,,67,0
15840,note_on,,0,0,1,,,,,,,,0,,,67,127
15840,note_on,,672,0,1,,,,,,,,0,,,67,0
15840,note_on,,96,0,4,,,,,,,,3,,,49,127
15840,note_on,,288,0,2,,,,,,,,1,,,64,0
15840,note_on,,0,0,5,,,,,,,,4,,,70,92
15840,note_on,,0,0,2,,,,,,,,1,,,64,127
15840,note_on,,0,0,12,,,,,,,,12,,,49,75
15840,note_on,,288,0,12,,,,,,,,12,,,49,0
15840,note_on,,288,0,8,,,,,,,,7,,,49,0
15840,note_on,,0,0,6,,,,,,,,5,,,67,92
15840,note_on,,192,0,6,,,,,,,,5,,,67,0
15840,note_on,,672,0,3,,,,,,,,2,,,58,0
15840,note_on,,288,0,9,,,,,,,,8,,,37,0
15840,note_on,,192,0,5,,,,,,,,4,,,70,0
15936,note_on,,0,0,12,,,,,,,,12,,,50,75
15936,note_on,,96,0,12,,,,,,,,12,,,49,0
15936,note_on,,96,0,7,,,,,,,,6,,,64,0
15936,note_on,,0,0,3,,,,,,,,2,,,57,127
15936,note_on,,0,0,8,,,,,,,,7,,,50,75
15936,note_on,,0,0,11,,,,,,,,11,,,66,75
15936,note_on,,0,0,1,,,,,,,,0,,,66,127
15936,note_on,,96,0,9,,,,,,,,8,,,37,0
15936,note_on,,0,0,9,,,,,,,,8,,,38,75
15936,note_on,,96,0,5,,,,,,,,4,,,70,0
15936,note_on,,0,0,5,,,,,,,,4,,,69,92
15936,note_on,,0,0,4,,,,,,,,3,,,50,127
15936,note_on,,96,0,11,,,,,,,,11,,,67,0
15936,note_on,,0,0,6,,,,,,,,5,,,66,92
15936,note_on,,96,0,1,,,,,,,,0,,,67,0
15936,note_on,,96,0,6,,,,,,,,5,,,67,0
15936,note_on,,0,0,2,,,,,,,,1,,,62,127
15936,note_on,,0,0,7,,,,,,,,6,,,66,75
15936,note_on,,96,0,8,,,,,,,,7,,,49,0
15936,note_on,,96,0,10,,,,,,,,10,,,70,0
15936,note_on,,0,0,10,,,,,,,,10,,,69,75
15936,note_on,,96,0,3,,,,,,,,2,,,58,0
15936,note_on,,96,0,2,,,,,,,,1,,,64,0
15936,note_on,,96,0,4,,,,,,,,3,,,49,0
16032,note_on,,96,0,4,,,,,,,,3,,,50,0
16032,note_on,,0,0,4,,,,,,,,3,,,43,127
16032,note_on,,0,0,5,,,,,,,,4,,,70,92
16032,note_on,,96,0,2,,,,,,,,1,,,62,0
16032,note_on,,0,0,2,,,,,,,,1,,,62,127
16032,note_on,,96,0,5,,,,,,,,4,,,69,0
16032,note_on,,96,0,7,,,,,,,,6,,,66,0
16032,note_on,,96,0,10,,,,,,,,10,,,69,0
16032,note_on,,0,0,6,,,,,,,,5,,,67,92
16032,note_on,,96,0,8,,,,,,,,7,,,50,0
16032,note_on,,0,0,10,,,,,,,,10,,,67,75
16032,note_on,,0,0,8,,,,,,,,7,,,43,75
16032,note_on,,0,0,11,,,,,,,,11,,,67,75
16032,note_on,,96,0,11,,,,,,,,11,,,66,0
16032,note_on,,96,0,12,,,,,,,,12,,,50,0
16032,note_on,,0,0,12,,,,,,,,12,,,43,75
16032,note_on,,96,0,6,,,,,,,,5,,,66,0
16032,note_on,,0,0,9,,,,,,,,8,,,31,75
16032,note_on,,96,0,1,,,,,,,,0,,,66,0
16032,note_on,,0,0,3,,,,,,,,2,,,58,127
16032,note_on,,96,0,3,,,,,,,,2,,,57,0
16032,note_on,,0,0,1,,,,,,,,0,,,67,127
16032,note_on,,0,0,7,,,,,,,,6,,,62,75
16032,note_on,,96,0,9,,,,,,,,8,,,38,0
16128,note_on,,96,0,2,,,,,,,,1,,,62,0
16128,note_on,,96,0,1,,,,,,,,0,,,67,0
16128,note_on,,96,0,8,,,,,,,,7,,,43,0
16128,note_on,,96,0,5,,,,,,,,4,,,70,0
16128,note_on,,96,0,6,,,,,,,,5,,,67,0
16128,note_on,,96,0,7,,,,,,,,6,,,62,0
16128,note_on,,96,0,9,,,,,,,,8,,,31,0
16128,note_on,,96,0,3,,,,,,,,2,,,58,0
16128,note_on,,96,0,4,,,,,,,,3,,,43,0
16128,note_on,,96,0,10,,,,,,,,10,,,67,0
16128,note_on,,96,0,11,,,,,,,,11,,,67,0
16128,note_on,,96,0,12,,,,,,,,12,,,43,0
16512,note_on,,384,0,1,,,,,,,,0,,,67,75
16512,note_on,,384,0,4,,,,,,,,3,,,50,75
16512,note_on,,384,0,3,,,,,,,,2,,,58,75
16512,note_on,,384,0,2,,,,,,,,1,,,62,75
16608,note_on,,96,0,2,,,,,,,,1,,,62,0
16608,note_on,,96,0,3,,,,,,,,2,,,58,0
16608,note_on,,0,0,4,,,,,,,,3,,,50,75
16608,note_on,,0,0,2,,,,,,,,1,,,62,75
16608,note_on,,0,0,3,,,,,,,,2,,,57,75
16608,note_on,,96,0,4,,,,,,,,3,,,50,0
16608,note_on,,96,0,1,,,,,,,,0,,,67,0
16608,note_on,,0,0,1,,,,,,,,0,,,66,75
16704,note_on,,96,0,4,,,,,,,,3,,,50,0
16704,note_on,,0,0,1,,,,,,,,0,,,67,75
16704,note_on,,96,0,1,,,,,,,,0,,,66,0
16704,note_on,,0,0,4,,,,,,,,3,,,43,75
16704,note_on,,0,0,2,,,,,,,,1,,,62,75
16704,note_on,,96,0,3,,,,,,,,2,,,57,0
16704,note_on,,0,0,3,,,,,,,,2,,,58,75
16704,note_on,,96,0,2,,,,,,,,1,,,62,0
16896,note_on,,192,0,1,,,,,,,,0,,,67,0
16896,note_on,,192,0,3,,,,,,,,2,,,58,0
16896,note_on,,192,0,4,,,,,,,,3,,,43,0
16896,note_on,,192,0,2,,,,,,,,1,,,62,0
16992,note_on,,864,0,7,,,,,,,,6,,,58,45
16992,note_on,,864,0,5,,,,,,,,4,,,58,60
16992,note_on,,864,0,12,,,,,,,,12,,,46,45
16992,note_on,,864,0,8,,,,,,,,7,,,46,45
16992,note_on,,864,0,6,,,,,,,,5,,,58,60
16992,note_on,,864,0,9,,,,,,,,8,,,34,45
17088,note_on,,96,0,9,,,,,,,,8,,,34,0
17088,note_on,,96,0,7,,,,,,,,6,,,58,0
17088,note_on,,0,0,7,,,,,,,,6,,,63,45
17088,note_on,,0,0,12,,,,,,,,12,,,51,45
17088,note_on,,96,0,12,,,,,,,,12,,,46,0
17088,note_on,,96,0,8,,,,,,,,7,,,46,0
17088,note_on,,96,0,6,,,,,,,,5,,,58,0
17088,note_on,,0,0,6,,,,,,,,5,,,63,60
17088,note_on,,0,0,5,,,,,,,,4,,,63,60
17088,note_on,,96,0,5,,,,,,,,4,,,58,0
17088,note_on,,0,0,9,,,,,,,,8,,,39,45
17088,note_on,,0,0,8,,,,,,,,7,,,51,45
17184,note_on,,96,0,8,,,,,,,,7,,,51,0
17184,note_on,,0,0,5,,,,,,,,4,,,63,60
17184,note_on,,96,0,5,,,,,,,,4,,,63,0
17184,note_on,,96,0,12,,,,,,,,12,,,51,0
17184,note_on,,0,0,12,,,,,,,,12,,,51,45
17184,note_on,,0,0,7,,,,,,,,6,,,63,45
17184,note_on,,96,0,7,,,,,,,,6,,,63,0
17184,note_on,,96,0,9,,,,,,,,8,,,39,0
17184,note_on,,0,0,9,,,,,,,,8,,,39,45
17184,note_on,,0,0,8,,,,,,,,7,,,51,45
17184,note_on,,96,0,6,,,,,,,,5,,,63,0
17184,note_on,,0,0,6,,,,,,,,5,,,63,60
17280,note_on,,96,0,9,,,,,,,,8,,,39,0
17280,note_on,,96,0,5,,,,,,,,4,,,63,0
17280,note_on,,0,0,5,,,,,,,,4,,,63,60
17280,note_on,,96,0,8,,,,,,,,7,,,51,0
17280,note_on,,0,0,8,,,,,,,,7,,,51,45
17280,note_on,,96,0,12,,,,,,,,12,,,51,0
17280,note_on,,96,0,6,,,,,,,,5,,,63,0
17280,note_on,,96,0,7,,,,,,,,6,,,63,0
17280,note_on,,0,0,7,,,,,,,,6,,,63,45
17280,note_on,,0,0,9,,,,,,,,8,,,39,45
17280,note_on,,0,0,6,,,,,,,,5,,,63,60
17280,note_on,,0,0,12,,,,,,,,12,,,51,45
17376,note_on,,96,0,6,,,,,,,,5,,,63,0
17376,note_on,,0,0,6,,,,,,,,5,,,63,60
17376,note_on,,1248,0,10,,,,,,,,10,,,70,75
17376,note_on,,96,0,9,,,,,,,,8,,,39,0
17376,note_on,,0,0,9,,,,,,,,8,,,39,45
17376,note_on,,0,0,12,,,,,,,,12,,,51,45
17376,note_on,,480,0,2,,,,,,,,1,,,58,92
17376,note_on,,96,0,5,,,,,,,,4,,,63,0
17376,note_on,,480,0,1,,,,,,,,0,,,63,92
17376,note_on,,0,0,5,,,,,,,,4,,,63,60
17376,note_on,,96,0,7,,,,,,,,6,,,63,0
17376,note_on,,0,0,7,,,,,,,,6,,,63,45
17376,note_on,,1248,0,11,,,,,,,,11,,,67,75
17376,note_on,,96,0,8,,,,,,,,7,,,51,0
17376,note_on,,0,0,8,,,,,,,,7,,,51,45
17376,note_on,,96,0,12,,,,,,,,12,,,51,0
17472,note_on,,0,0,5,,,,,,,,4,,,63,60
17472,note_on,,0,0,11,,,,,,,,11,,,63,75
17472,note_on,,96,0,11,,,,,,,,11,,,67,0
17472,note_on,,96,0,12,,,,,,,,12,,,51,0
17472,note_on,,0,0,12,,,,,,,,12,,,51,45
17472,note_on,,0,0,6,,,,,,,,5,,,63,60
17472,note_on,,96,0,2,,,,,,,,1,,,58,0
17472,note_on,,0,0,2,,,,,,,,1,,,63,92
17472,note_on,,96,0,5,,,,,,,,4,,,63,0
17472,note_on,,0,0,7,,,,,,,,6,,,63,45
17472,note_on,,96,0,7,,,,,,,,6,,,63,0
17472,note_on,,0,0,1,,,,,,,,0,,,67,92
17472,note_on,,96,0,1,,,,,,,,0,,,63,0
17472,note_on,,96,0,6,,,,,,,,5,,,63,0
17472,note_on,,0,0,8,,,,,,,,7,,,51,45
17472,note_on,,0,0,10,,,,,,,,10,,,67,75
17472,note_on,,96,0,10,,,,,,,,10,,,70,0
17472,note_on,,96,0,8,,,,,,,,7,,,51,0
17472,note_on,,96,0,9,,,,,,,,8,,,39,0
17472,note_on,,0,0,9,,,,,,,,8,,,39,45
17568,note_on,,0,0,10,,,,,,,,10,,,67,75
17568,note_on,,0,0,2,,,,,,,,1,,,63,92
17568,note_on,,0,0,11,,,,,,,,11,,,63,75
17568,note_on,,96,0,11,,,,,,,,11,,,63,0
17568,note_on,,96,0,1,,,,,,,,0,,,67,0
17568,note_on,,0,0,1,,,,,,,,0,,,67,92
17568,note_on,,96,0,2,,,,,,,,1,,,63,0
17568,note_on,,96,0,10,,,,,,,,10,,,67,0
17664,note_on,,96,0,2,,,,,,,,1,,,63,0
17664,note_on,,0,0,2,,,,,,,,1,,,63,92
17664,note_on,,192,0,6,,,,,,,,5,,,63,0
17664,note_on,,192,0,9,,,,,,,,8,,,39,0
17664,note_on,,192,0,7,,,,,,,,6,,,63,0
17664,note_on,,96,0,1,,,,,,,,0,,,67,0
17664,note_on,,0,0,10,,,,,,,,10,,,67,75
17664,note_on,,96,0,10,,,,,,,,10,,,67,0
17664,note_on,,192,0,8,,,,,,,,7,,,51,0
17664,note_on,,192,0,12,,,,,,,,12,,,51,0
17664,note_on,,192,0,5,,,,,,,,4,,,63,0
17664,note_on,,0,0,11,,,,,,,,11,,,63,75
17664,note_on,,96,0,11,,,,,,,,11,,,63,0
17664,note_on,,0,0,1,,,,,,,,0,,,67,92
17760,note_on,,0,0,11,,,,,,,,11,,,65,75
17760,note_on,,96,0,11,,,,,,,,11,,,63,0
17760,note_on,,96,0,10,,,,,,,,10,,,67,0
17760,note_on,,0,0,10,,,,,,,,10,,,68,75
17760,note_on,,0,0,2,,,,,,,,1,,,65,92
17760,note_on,,96,0,2,,,,,,,,1,,,63,0
17760,note_on,,96,0,1,,,,,,,,0,,,67,0
17760,note_on,,0,0,1,,,,,,,,0,,,68,92
17856,note_on,,192,0,7,,,,,,,,6,,,67,45
17856,note_on,,96,0,1,,,,,,,,0,,,68,0
17856,note_on,,192,0,9,,,,,,,,8,,,39,45
17856,note_on,,192,0,8,,,,,,,,7,,,51,45
17856,note_on,,192,0,6,,,,,,,,5,,,70,60
17856,note_on,,96,0,10,,,,,,,,10,,,68,0
17856,note_on,,0,0,1,,,,,,,,0,,,70,92
17856,note_on,,96,0,11,,,,,,,,11,,,65,0
17856,note_on,,96,0,2,,,,,,,,1,,,65,0
17856,note_on,,0,0,10,,,,,,,,10,,,70,75
17856,note_on,,192,0,12,,,,,,,,12,,,51,45
17856,note_on,,192,0,5,,,,,,,,4,,,75,60
17856,note_on,,0,0,2,,,,,,,,1,,,67,92
17856,note_on,,0,0,11,,,,,,,,11,,,67,75
17952,note_on,,96,0,10,,,,,,,,10,,,70,0
17952,note_on,,96,0,1,,,,,,,,0,,,70,0
17952,note_on,,0,0,2,,,,,,,,1,,,67,94
17952,note_on,,0,0,1,,,,,,,,0,,,70,94
17952,note_on,,0,0,10,,,,,,,,10,,,70,75
17952,note_on,,96,0,11,,,,,,,,11,,,67,0
17952,note_on,,0,0,11,,,,,,,,11,,,67,75
17952,note_on,,96,0,2,,,,,,,,1,,,67,0
18048,note_on,,96,0,2,,,,,,,,1,,,67,0
18048,note_on,,192,0,9,,,,,,,,8,,,39,0
18048,note_on,,192,0,6,,,,,,,,5,,,70,0
18048,note_on,,192,0,12,,,,,,,,12,,,51,0
18048,note_on,,0,0,2,,,,,,,,1,,,68,96
18048,note_on,,192,0,5,,,,,,,,4,,,75,0
18048,note_on,,96,0,10,,,,,,,,10,,,70,0
18048,note_on,,192,0,7,,,,,,,,6,,,67,0
18048,note_on,,192,0,8,,,,,,,,7,,,51,0
18048,note_on,,0,0,11,,,,,,,,11,,,68,75
18048,note_on,,96,0,11,,,,,,,,11,,,67,0
18048,note_on,,96,0,1,,,,,,,,0,,,70,0
18048,note_on,,0,0,1,,,,,,,,0,,,72,96
18048,note_on,,0,0,10,,,,,,,,10,,,72,75
18144,note_on,,96,0,12,,,,,,,,12,,,46,45
18144,note_on,,96,0,9,,,,,,,,8,,,34,45
18144,note_on,,96,0,1,,,,,,,,0,,,72,0
18144,note_on,,0,0,1,,,,,,,,0,,,74,98
18144,note_on,,96,0,11,,,,,,,,11,,,68,0
18144,note_on,,96,0,10,,,,,,,,10,,,72,0
18144,note_on,,96,0,2,,,,,,,,1,,,68,0
18144,note_on,,0,0,2,,,,,,,,1,,,65,98
18144,note_on,,1248,0,3,,,,,,,,2,,,58,92
18144,note_on,,1248,0,4,,,,,,,,3,,,46,92
18144,note_on,,96,0,8,,,,,,,,7,,,46,45
18144,note_on,,0,0,10,,,,,,,,10,,,74,75
18144,note_on,,0,0,11,,,,,,,,11,,,65,75
18240,note_on,,0,0,3,,,,,,,,2,,,58,92
18240,note_on,,96,0,3,,,,,,,,2,,,58,0
18240,note_on,,96,0,4,,,,,,,,3,,,46,0
18240,note_on,,192,0,6,,,,,,,,5,,,67,60
18240,note_on,,0,0,10,,,,,,,,10,,,75,75
18240,note_on,,96,0,10,,,,,,,,10,,,74,0
18240,note_on,,192,0,7,,,,,,,,6,,,63,45
18240,note_on,,0,0,4,,,,,,,,3,,,51,92
18240,note_on,,96,0,12,,,,,,,,12,,,46,0
18240,note_on,,96,0,1,,,,,,,,0,,,74,0
18240,note_on,,96,0,2,,,,,,,,1,,,65,0
18240,note_on,,96,0,11,,,,,,,,11,,,65,0
18240,note_on,,96,0,8,,,,,,,,7,,,46,0
18240,note_on,,0,0,8,,,,,,,,7,,,51,45
18240,note_on,,0,0,2,,,,,,,,1,,,67,100
18240,note_on,,0,0,9,,,,,,,,8,,,39,45
18240,note_on,,0,0,11,,,,,,,,11,,,67,75
18240,note_on,,0,0,1,,,,,,,,0,,,75,100
18240,note_on,,0,0,12,,,,,,,,12,,,51,45
18240,note_on,,192,0,5,,,,,,,,4,,,70,60
18240,note_on,,96,0,9,,,,,,,,8,,,34,0
18336,note_on,,96,0,9,,,,,,,,8,,,39,0
18336,note_on,,0,0,9,,,,,,,,8,,,39,45
18336,note_on,,96,0,12,,,,,,,,12,,,51,0
18336,note_on,,0,0,12,,,,,,,,12,,,51,45
18336,note_on,,0,0,8,,,,,,,,7,,,51,45
18336,note_on,,96,0,4,,,,,,,,3,,,51,0
18336,note_on,,0,0,3,,,,,,,,2,,,58,95
18336,note_on,,96,0,3,,,,,,,,2,,,58,0
18336,note_on,,96,0,8,,,,,,,,7,,,51,0
18336,note_on,,0,0,4,,,,,,,,3,,,51,95
18432,note_on,,192,0,11,,,,,,,,11,,,67,0
18432,note_on,,0,0,12,,,,,,,,12,,,51,45
18432,note_on,,96,0,4,,,,,,,,3,,,51,0
18432,note_on,,0,0,4,,,,,,,,3,,,51,98
18432,note_on,,192,0,5,,,,,,,,4,,,70,0
18432,note_on,,192,0,7,,,,,,,,6,,,63,0
18432,note_on,,192,0,10,,,,,,,,10,,,75,0
18432,note_on,,96,0,8,,,,,,,,7,,,51,0
18432,note_on,,192,0,1,,,,,,,,0,,,75,0
18432,note_on,,0,0,3,,,,,,,,2,,,58,98
18432,note_on,,96,0,12,,,,,,,,12,,,51,0
18432,note_on,,192,0,6,,,,,,,,5,,,67,0
18432,note_on,,96,0,9,,,,,,,,8,,,39,0
18432,note_on,,0,0,9,,,,,,,,8,,,39,45
18432,note_on,,192,0,2,,,,,,,,1,,,67,0
18432,note_on,,96,0,3,,,,,,,,2,,,58,0
18432,note_on,,0,0,8,,,,,,,,7,,,51,45
18528,note_on,,96,0,12,,,,,,,,12,,,51,0
18528,note_on,,0,0,12,,,,,,,,12,,,53,45
18528,note_on,,96,0,9,,,,,,,,8,,,39,0
18528,note_on,,96,0,8,,,,,,,,7,,,51,0
18528,note_on,,96,0,3,,,,,,,,2,,,58,0
18528,note_on,,96,0,2,,,,,,,,1,,,68,106
18528,note_on,,96,0,11,,,,,,,,11,,,74,75
18528,note_on,,0,0,9,,,,,,,,8,,,41,45
18528,note_on,,0,0,4,,,,,,,,3,,,53,101
18528,note_on,,0,0,8,,,,,,,,7,,,53,45
18528,note_on,,0,0,3,,,,,,,,2,,,62,101
18528,note_on,,96,0,10,,,,,,,,10,,,80,75
18528,note_on,,96,0,4,,,,,,,,3,,,51,0
18624,note_on,,192,0,7,,,,,,,,6,,,58,45
18624,note_on,,0,0,3,,,,,,,,2,,,63,104
18624,note_on,,192,0,6,,,,,,,,5,,,63,60
18624,note_on,,96,0,12,,,,,,,,12,,,53,0
18624,note_on,,0,0,9,,,,,,,,8,,,43,45
18624,note_on,,96,0,9,,,,,,,,8,,,41,0
18624,note_on,,0,0,12,,,,,,,,12,,,55,45
18624,note_on,,96,0,10,,,,,,,,10,,,80,0
18624,note_on,,0,0,10,,,,,,,,10,,,79,75
18624,note_on,,0,0,8,,,,,,,,7,,,55,45
18624,note_on,,96,0,2,,,,,,,,1,,,68,0
18624,note_on,,96,0,3,,,,,,,,2,,,62,0
18624,note_on,,0,0,11,,,,,,,,11,,,75,75
18624,note_on,,96,0,11,,,,,,,,11,,,74,0
18624,note_on,,192,0,5,,,,,,,,4,,,58,60
18624,note_on,,0,0,4,,,,,,,,3,,,55,104
18624,note_on,,96,0,4,,,,,,,,3,,,53,0
18624,note_on,,96,0,8,,,,,,,,7,,,53,0
18624,note_on,,0,0,2,,,,,,,,1,,,67,108
18720,note_on,,0,0,3,,,,,,,,2,,,67,107
18720,note_on,,0,0,11,,,,,,,,11,,,79,75
18720,note_on,,96,0,8,,,,,,,,7,,,55,0
18720,note_on,,0,0,8,,,,,,,,7,,,55,45
18720,note_on,,96,0,11,,,,,,,,11,,,75,0
18720,note_on,,0,0,12,,,,,,,,12,,,55,45
18720,note_on,,96,0,12,,,,,,,,12,,,55,0
18720,note_on,,96,0,3,,,,,,,,2,,,63,0
18720,note_on,,0,0,9,,,,,,,,8,,,43,45
18720,note_on,,96,0,4,,,,,,,,3,,,55,0
18720,note_on,,96,0,9,,,,,,,,8,,,43,0
18720,note_on,,0,0,4,,,,,,,,3,,,55,107
18720,note_on,,96,0,10,,,,,,,,10,,,79,0
18720,note_on,,0,0,10,,,,,,,,10,,,82,75
18720,note_on,,0,0,2,,,,,,,,1,,,70,110
18720,note_on,,96,0,2,,,,,,,,1,,,67,0
18816,note_on,,96,0,9,,,,,,,,8,,,43,0
18816,note_on,,96,0,12,,,,,,,,12,,,55,0
18816,note_on,,192,0,5,,,,,,,,4,,,58,0
18816,note_on,,96,0,4,,,,,,,,3,,,55,0
18816,note_on,,0,0,4,,,,,,,,3,,,55,110
18816,note_on,,0,0,2,,,,,,,,1,,,70,112
18816,note_on,,96,0,2,,,,,,,,1,,,70,0
18816,note_on,,96,0,11,,,,,,,,11,,,79,0
18816,note_on,,96,0,3,,,,,,,,2,,,67,0
18816,note_on,,0,0,9,,,,,,,,8,,,43,45
18816,note_on,,0,0,10,,,,,,,,10,,,82,75
18816,note_on,,96,0,10,,,,,,,,10,,,82,0
18816,note_on,,96,0,8,,,,,,,,7,,,55,0
18816,note_on,,0,0,8,,,,,,,,7,,,55,45
18816,note_on,,0,0,3,,,,,,,,2,,,67,110
18816,note_on,,192,0,7,,,,,,,,6,,,58,0
18816,note_on,,0,0,12,,,,,,,,12,,,55,45
18816,note_on,,192,0,6,,,,,,,,5,,,63,0
18816,note_on,,0,0,11,,,,,,,,11,,,79,75
18912,note_on,,0,0,3,,,,,,,,2,,,65,113
18912,note_on,,96,0,3,,,,,,,,2,,,67,0
18912,note_on,,96,0,8,,,,,,,,7,,,55,0
18912,note_on,,0,0,11,,,,,,,,11,,,77,75
18912,note_on,,96,0,2,,,,,,,,1,,,70,0
18912,note_on,,0,0,8,,,,,,,,7,,,56,45
18912,note_on,,96,0,12,,,,,,,,12,,,55,0
18912,note_on,,0,0,12,,,,,,,,12,,,56,45
18912,note_on,,0,0,9,,,,,,,,8,,,44,45
18912,note_on,,96,0,9,,,,,,,,8,,,43,0
18912,note_on,,96,0,10,,,,,,,,10,,,82,0
18912,note_on,,0,0,10,,,,,,,,10,,,80,75
18912,note_on,,0,0,4,,,,,,,,3,,,56,113
18912,note_on,,96,0,4,,,,,,,,3,,,55,0
18912,note_on,,96,0,11,,,,,,,,11,,,79,0
18912,note_on,,0,0,2,,,,,,,,1,,,68,115
18960,note_on,,48,0,10,,,,,,,,10,,,80,0
18960,note_on,,0,0,2,,,,,,,,1,,,67,116
18960,note_on,,0,0,11,,,,,,,,11,,,75,75
18960,note_on,,48,0,11,,,,,,,,11,,,77,0
18960,note_on,,48,0,2,,,,,,,,1,,,68,0
18960,note_on,,0,0,3,,,,,,,,2,,,63,114
18960,note_on,,48,0,3,,,,,,,,2,,,65,0
18960,note_on,,0,0,10,,,,,,,,10,,,79,75
19008,note_on,,96,0,9,,,,,,,,8,,,44,0
19008,note_on,,0,0,9,,,,,,,,8,,,46,45
19008,note_on,,192,0,6,,,,,,,,5,,,74,60
19008,note_on,,0,0,12,,,,,,,,12,,,58,45
19008,note_on,,96,0,12,,,,,,,,12,,,56,0
19008,note_on,,0,0,4,,,,,,,,3,,,58,116
19008,note_on,,0,0,8,,,,,,,,7,,,58,45
19008,note_on,,96,0,8,,,,,,,,7,,,56,0
19008,note_on,,192,0,5,,,,,,,,4,,,82,60
19008,note_on,,96,0,4,,,,,,,,3,,,56,0
19008,note_on,,192,0,7,,,,,,,,6,,,65,45
19008,note_on,,48,0,3,,,,,,,,2,,,63,0
19008,note_on,,0,0,3,,,,,,,,2,,,62,115
19008,note_on,,0,0,10,,,,,,,,10,,,77,75
19008,note_on,,48,0,10,,,,,,,,10,,,79,0
19008,note_on,,0,0,2,,,,,,,,1,,,65,117
19008,note_on,,48,0,2,,,,,,,,1,,,67,0
19008,note_on,,48,0,11,,,,,,,,11,,,75,0
19008,note_on,,0,0,11,,,,,,,,11,,,74,75
19200,note_on,,192,0,4,,,,,,,,3,,,58,0
19200,note_on,,0,0,11,,,,,,,,11,,,70,75
19200,note_on,,192,0,12,,,,,,,,12,,,58,0
19200,note_on,,192,0,9,,,,,,,,8,,,46,0
19200,note_on,,192,0,6,,,,,,,,5,,,74,0
19200,note_on,,192,0,8,,,,,,,,7,,,58,0
19200,note_on,,192,0,5,,,,,,,,4,,,82,0
19200,note_on,,192,0,3,,,,,,,,2,,,62,0
19200,note_on,,192,0,2,,,,,,,,1,,,65,0
19200,note_on,,192,0,11,,,,,,,,11,,,74,0
19200,note_on,,768,0,1,,,,,,,,0,,,70,127
19200,note_on,,192,0,7,,,,,,,,6,,,65,0
19200,note_on,,0,0,10,,,,,,,,10,,,70,75
19200,note_on,,192,0,10,,,,,,,,10,,,77,0
19296,note_on,,96,0,12,,,,,,,,12,,,58,45
19296,note_on,,96,0,2,,,,,,,,1,,,65,127
19296,note_on,,96,0,4,,,,,,,,3,,,58,127
19296,note_on,,96,0,3,,,,,,,,2,,,62,127
19296,note_on,,96,0,8,,,,,,,,7,,,58,45
19296,note_on,,96,0,9,,,,,,,,8,,,46,45
19392,note_on,,0,0,8,,,,,,,,7,,,63,45
19392,note_on,,96,0,9,,,,,,,,8,,,46,0
19392,note_on,,0,0,9,,,,,,,,8,,,51,45
19392,note_on,,96,0,4,,,,,,,,3,,,58,0
19392,note_on,,96,0,2,,,,,,,,1,,,65,0
19392,note_on,,0,0,4,,,,,,,,3,,,63,127
19392,note_on,,96,0,8,,,,,,,,7,,,58,0
19392,note_on,,96,0,12,,,,,,,,12,,,58,0
19392,note_on,,96,0,3,,,,,,,,2,,,62,0
19392,note_on,,0,0,12,,,,,,,,12,,,63,45
19392,note_on,,0,0,3,,,,,,,,2,,,63,127
19392,note_on,,0,0,2,,,,,,,,1,,,67,127
19488,note_on,,0,0,3,,,,,,,,2,,,62,127
19488,note_on,,288,0,5,,,,,,,,4,,,77,60
19488,note_on,,96,0,2,,,,,,,,1,,,67,0
19488,note_on,,96,0,3,,,,,,,,2,,,63,0
19488,note_on,,288,0,6,,,,,,,,5,,,74,60
19488,note_on,,0,0,8,,,,,,,,7,,,58,45
19488,note_on,,0,0,2,,,,,,,,1,,,65,127
19488,note_on,,96,0,4,,,,,,,,3,,,63,0
19488,note_on,,0,0,4,,,,,,,,3,,,58,127
19488,note_on,,288,0,7,,,,,,,,6,,,70,45
19488,note_on,,96,0,12,,,,,,,,12,,,63,0
19488,note_on,,0,0,9,,,,,,,,8,,,46,45
19488,note_on,,96,0,9,,,,,,,,8,,,51,0
19488,note_on,,0,0,12,,,,,,,,12,,,58,45
19488,note_on,,96,0,8,,,,,,,,7,,,63,0
19584,note_on,,96,0,6,,,,,,,,5,,,74,0
19584,note_on,,0,0,6,,,,,,,,5,,,75,60
19584,note_on,,96,0,2,,,,,,,,1,,,65,0
19584,note_on,,96,0,5,,,,,,,,4,,,77,0
19584,note_on,,96,0,3,,,,,,,,2,,,62,0
19584,note_on,,0,0,5,,,,,,,,4,,,79,60
19584,note_on,,96,0,12,,,,,,,,12,,,58,0
19584,note_on,,96,0,8,,,,,,,,7,,,58,0
19584,note_on,,0,0,7,,,,,,,,6,,,70,45
19584,note_on,,96,0,7,,,,,,,,6,,,70,0
19584,note_on,,96,0,9,,,,,,,,8,,,46,0
19584,note_on,,96,0,4,,,,,,,,3,,,58,0
19680,note_on,,96,0,3,,,,,,,,2,,,53,75
19680,note_on,,0,0,5,,,,,,,,4,,,77,60
19680,note_on,,96,0,5,,,,,,,,4,,,79,0
19680,note_on,,96,0,8,,,,,,,,7,,,46,45
19680,note_on,,96,0,9,,,,,,,,8,,,34,45
19680,note_on,,96,0,2,,,,,,,,1,,,62,75
19680,note_on,,96,0,12,,,,,,,,12,,,46,45
19680,note_on,,96,0,4,,,,,,,,3,,,46,75
19680,note_on,,96,0,7,,,,,,,,6,,,70,0
19680,note_on,,96,0,6,,,,,,,,5,,,75,0
19680,note_on,,0,0,6,,,,,,,,5,,,74,60
19680,note_on,,0,0,7,,,,,,,,6,,,70,45
19776,note_on,,96,0,6,,,,,,,,5,,,74,0
19776,note_on,,96,0,5,,,,,,,,4,,,77,0
19776,note_on,,96,0,12,,,,,,,,12,,,46,0
19776,note_on,,0,0,12,,,,,,,,12,,,51,45
19776,note_on,,96,0,8,,,,,,,,7,,,46,0
19776,note_on,,96,0,4,,,,,,,,3,,,46,0
19776,note_on,,96,0,3,,,,,,,,2,,,53,0
19776,note_on,,0,0,3,,,,,,,,2,,,55,75
19776,note_on,,96,0,9,,,,,,,,8,,,34,0
19776,note_on,,96,0,7,,,,,,,,6,,,70,0
19776,note_on,,0,0,9,,,,,,,,8,,,39,45
19776,note_on,,0,0,8,,,,,,,,7,,,51,45
19776,note_on,,96,0,2,,,,,,,,1,,,62,0
19776,note_on,,0,0,2,,,,,,,,1,,,63,75
19776,note_on,,0,0,4,,,,,,,,3,,,51,75
19872,note_on,,0,0,9,,,,,,,,8,,,34,45
19872,note_on,,96,0,6,,,,,,,,5,,,62,60
19872,note_on,,96,0,7,,,,,,,,6,,,58,45
19872,note_on,,96,0,5,,,,,,,,4,,,65,60
19872,note_on,,0,0,4,,,,,,,,3,,,46,75
19872,note_on,,0,0,2,,,,,,,,1,,,62,75
19872,note_on,,96,0,9,,,,,,,,8,,,39,0
19872,note_on,,0,0,12,,,,,,,,12,,,46,45
19872,note_on,,96,0,8,,,,,,,,7,,,51,0
19872,note_on,,96,0,12,,,,,,,,12,,,51,0
19872,note_on,,96,0,4,,,,,,,,3,,,51,0
19872,note_on,,0,0,3,,,,,,,,2,,,53,75
19872,note_on,,96,0,3,,,,,,,,2,,,55,0
19872,note_on,,96,0,2,,,,,,,,1,,,63,0
19872,note_on,,0,0,8,,,,,,,,7,,,46,45
19968,note_on,,96,0,8,,,,,,,,7,,,46,0
19968,note_on,,0,0,6,,,,,,,,5,,,63,60
19968,note_on,,96,0,6,,,,,,,,5,,,62,0
19968,note_on,,0,0,7,,,,,,,,6,,,58,45
19968,note_on,,96,0,7,,,,,,,,6,,,58,0
19968,note_on,,96,0,3,,,,,,,,2,,,53,0
19968,note_on,,96,0,4,,,,,,,,3,,,46,0
19968,note_on,,96,0,5,,,,,,,,4,,,65,0
19968,note_on,,0,0,5,,,,,,,,4,,,67,60
19968,note_on,,96,0,9,,,,,,,,8,,,34,0
19968,note_on,,96,0,2,,,,,,,,1,,,62,0
19968,note_on,,96,0,12,,,,,,,,12,,,46,0
20064,note_on,,0,0,5,,,,,,,,4,,,65,60
20064,note_on,,96,0,6,,,,,,,,5,,,63,0
20064,note_on,,96,0,8,,,,,,,,7,,,58,45
20064,note_on,,0,0,7,,,,,,,,6,,,58,45
20064,note_on,,96,0,7,,,,,,,,6,,,58,0
20064,note_on,,96,0,4,,,,,,,,3,,,58,127
20064,note_on,,96,0,12,,,,,,,,12,,,58,45
20064,note_on,,96,0,9,,,,,,,,8,,,46,45
20064,note_on,,96,0,5,,,,,,,,4,,,67,0
20064,note_on,,0,0,6,,,,,,,,5,,,62,60
20160,note_on,,0,0,9,,,,,,,,8,,,51,45
20160,note_on,,96,0,4,,,,,,,,3,,,58,0
20160,note_on,,96,0,9,,,,,,,,8,,,46,0
20160,note_on,,96,0,8,,,,,,,,7,,,58,0
20160,note_on,,0,0,4,,,,,,,,3,,,63,127
20160,note_on,,0,0,8,,,,,,,,7,,,63,45
20160,note_on,,96,0,6,,,,,,,,5,,,62,0
20160,note_on,,96,0,7,,,,,,,,6,,,58,0
20160,note_on,,960,0,11,,,,,,,,11,,,70,0
20160,note_on,,96,0,5,,,,,,,,4,,,65,0
20160,note_on,,960,0,1,,,,,,,,0,,,70,0
20160,note_on,,0,0,7,,,,,,,,6,,,63,45
20160,note_on,,96,0,12,,,,,,,,12,,,58,0
20160,note_on,,0,0,12,,,,,,,,12,,,63,45
20160,note_on,,960,0,10,,,,,,,,10,,,70,0
20256,note_on,,96,0,6,,,,,,,,5,,,65,60
20256,note_on,,0,0,9,,,,,,,,8,,,46,45
20256,note_on,,96,0,9,,,,,,,,8,,,51,0
20256,note_on,,96,0,7,,,,,,,,6,,,63,0
20256,note_on,,0,0,7,,,,,,,,6,,,58,45
20256,note_on,,0,0,8,,,,,,,,7,,,58,45
20256,note_on,,0,0,12,,,,,,,,12,,,58,45
20256,note_on,,96,0,8,,,,,,,,7,,,63,0
20256,note_on,,96,0,5,,,,,,,,4,,,65,60
20256,note_on,,96,0,4,,,,,,,,3,,,63,0
20256,note_on,,96,0,12,,,,,,,,12,,,63,0
20256,note_on,,0,0,4,,,,,,,,3,,,58,127
20352,note_on,,0,0,8,,,,,,,,7,,,55,45
20352,note_on,,96,0,8,,,,,,,,7,,,58,0
20352,note_on,,96,0,4,,,,,,,,3,,,58,0
20352,note_on,,0,0,7,,,,,,,,6,,,55,45
20352,note_on,,0,0,5,,,,,,,,4,,,70,60
20352,note_on,,96,0,7,,,,,,,,6,,,58,0
20352,note_on,,0,0,6,,,,,,,,5,,,67,60
20352,note_on,,96,0,6,,,,,,,,5,,,65,0
20352,note_on,,96,0,9,,,,,,,,8,,,46,0
20352,note_on,,0,0,12,,,,,,,,12,,,55,45
20352,note_on,,96,0,12,,,,,,,,12,,,58,0
20352,note_on,,0,0,4,,,,,,,,3,,,55,127
20352,note_on,,0,0,9,,,,,,,,8,,,43,45
20352,note_on,,96,0,5,,,,,,,,4,,,65,0
20448,note_on,,96,0,5,,,,,,,,4,,,70,0
20448,note_on,,96,0,6,,,,,,,,5,,,67,0
20448,note_on,,288,0,11,,,,,,,,11,,,70,75
20448,note_on,,0,0,6,,,,,,,,5,,,65,60
20448,note_on,,288,0,1,,,,,,,,0,,,70,127
20448,note_on,,96,0,9,,,,,,,,8,,,43,0
20448,note_on,,0,0,5,,,,,,,,4,,,68,60
20448,note_on,,0,0,4,,,,,,,,3,,,53,127
20448,note_on,,96,0,7,,,,,,,,6,,,55,0
20448,note_on,,96,0,4,,,,,,,,3,,,55,0
20448,note_on,,0,0,8,,,,,,,,7,,,51,45
20448,note_on,,96,0,8,,,,,,,,7,,,55,0
20448,note_on,,288,0,10,,,,,,,,10,,,70,75
20448,note_on,,0,0,9,,,,,,,,8,,,39,45
20448,note_on,,0,0,7,,,,,,,,6,,,53,45
20448,note_on,,0,0,12,,,,,,,,12,,,51,45
20448,note_on,,96,0,12,,,,,,,,12,,,55,0
20496,note_on,,48,0,4,,,,,,,,3,,,53,0
20496,note_on,,0,0,5,,,,,,,,4,,,67,60
20496,note_on,,48,0,5,,,,,,,,4,,,68,0
20496,note_on,,0,0,4,,,,,,,,3,,,51,127
20496,note_on,,0,0,7,,,,,,,,6,,,51,45
20496,note_on,,48,0,7,,,,,,,,6,,,53,0
20544,note_on,,0,0,8,,,,,,,,7,,,39,45
20544,note_on,,0,0,11,,,,,,,,11,,,79,75
20544,note_on,,96,0,8,,,,,,,,7,,,51,0
20544,note_on,,96,0,1,,,,,,,,0,,,70,0
20544,note_on,,0,0,1,,,,,,,,0,,,79,127
20544,note_on,,48,0,7,,,,,,,,6,,,51,0
20544,note_on,,96,0,9,,,,,,,,8,,,39,0
20544,note_on,,48,0,4,,,,,,,,3,,,51,0
20544,note_on,,0,0,4,,,,,,,,3,,,51,127
20544,note_on,,0,0,9,,,,,,,,8,,,27,45
20544,note_on,,96,0,12,,,,,,,,12,,,51,0
20544,note_on,,0,0,7,,,,,,,,6,,,51,45
20544,note_on,,0,0,12,,,,,,,,12,,,39,45
20544,note_on,,96,0,10,,,,,,,,10,,,70,0
20544,note_on,,0,0,6,,,,,,,,5,,,70,60
20544,note_on,,0,0,10,,,,,,,,10,,,79,75
20544,note_on,,48,0,5,,,,,,,,4,,,67,0
20544,note_on,,0,0,5,,,,,,,,4,,,67,60
20544,note_on,,96,0,11,,,,,,,,11,,,70,0
20544,note_on,,96,0,6,,,,,,,,5,,,65,0
20640,note_on,,96,0,10,,,,,,,,10,,,79,0
20640,note_on,,0,0,1,,,,,,,,0,,,75,127
20640,note_on,,96,0,1,,,,,,,,0,,,79,0
20640,note_on,,0,0,11,,,,,,,,11,,,75,75
20640,note_on,,96,0,11,,,,,,,,11,,,79,0
20640,note_on,,0,0,10,,,,,,,,10,,,75,75
20736,note_on,,0,0,1,,,,,,,,0,,,70,127
20736,note_on,,0,0,11,,,,,,,,11,,,70,75
20736,note_on,,96,0,1,,,,,,,,0,,,75,0
20736,note_on,,192,0,5,,,,,,,,4,,,67,0
20736,note_on,,192,0,6,,,,,,,,5,,,70,0
20736,note_on,,96,0,10,,,,,,,,10,,,75,0
20736,note_on,,0,0,10,,,,,,,,10,,,70,75
20736,note_on,,192,0,7,,,,,,,,6,,,51,0
20736,note_on,,96,0,11,,,,,,,,11,,,75,0
20832,note_on,,0,0,10,,,,,,,,10,,,67,75
20832,note_on,,96,0,6,,,,,,,,5,,,58,60
20832,note_on,,0,0,1,,,,,,,,0,,,67,127
20832,note_on,,864,0,3,,,,,,,,2,,,58,127
20832,note_on,,96,0,1,,,,,,,,0,,,70,0
20832,note_on,,0,0,11,,,,,,,,11,,,67,75
20832,note_on,,96,0,11,,,,,,,,11,,,70,0
20832,note_on,,96,0,7,,,,,,,,6,,,51,45
20832,note_on,,96,0,10,,,,,,,,10,,,70,0
20928,note_on,,384,0,4,,,,,,,,3,,,51,0
20928,note_on,,96,0,10,,,,,,,,10,,,67,0
20928,note_on,,96,0,3,,,,,,,,2,,,58,0
20928,note_on,,192,0,5,,,,,,,,4,,,70,60
20928,note_on,,0,0,10,,,,,,,,10,,,63,75
20928,note_on,,0,0,7,,,,,,,,6,,,63,45
20928,note_on,,0,0,3,,,,,,,,2,,,67,127
20928,note_on,,96,0,11,,,,,,,,11,,,67,0
20928,note_on,,0,0,11,,,,,,,,11,,,63,75
20928,note_on,,0,0,6,,,,,,,,5,,,67,60
20928,note_on,,96,0,6,,,,,,,,5,,,58,0
20928,note_on,,96,0,7,,,,,,,,6,,,51,0
20928,note_on,,0,0,1,,,,,,,,0,,,63,127
20928,note_on,,96,0,1,,,,,,,,0,,,67,0
21024,note_on,,96,0,3,,,,,,,,2,,,67,0
21024,note_on,,0,0,3,,,,,,,,2,,,63,127
21024,note_on,,0,0,6,,,,,,,,5,,,63,60
21024,note_on,,96,0,6,,,,,,,,5,,,67,0
21024,note_on,,96,0,7,,,,,,,,6,,,63,0
21024,note_on,,0,0,7,,,,,,,,6,,,58,45
21120,note_on,,0,0,6,,,,,,,,5,,,58,60
21120,note_on,,192,0,11,,,,,,,,11,,,63,0
21120,note_on,,96,0,7,,,,,,,,6,,,58,0
21120,note_on,,192,0,5,,,,,,,,4,,,70,0
21120,note_on,,96,0,3,,,,,,,,2,,,63,0
21120,note_on,,0,0,3,,,,,,,,2,,,58,127
21120,note_on,,96,0,6,,,,,,,,5,,,63,0
21120,note_on,,192,0,1,,,,,,,,0,,,63,0
21120,note_on,,192,0,10,,,,,,,,10,,,63,0
21120,note_on,,0,0,7,,,,,,,,6,,,55,45
21216,note_on,,96,0,10,,,,,,,,10,,,70,75
21216,note_on,,96,0,11,,,,,,,,11,,,70,75
21216,note_on,,1248,0,2,,,,,,,,1,,,58,127
21216,note_on,,96,0,7,,,,,,,,6,,,55,0
21216,note_on,,0,0,3,,,,,,,,2,,,55,127
21216,note_on,,0,0,7,,,,,,,,6,,,51,45
21216,note_on,,96,0,6,,,,,,,,5,,,58,0
21216,note_on,,96,0,3,,,,,,,,2,,,58,0
21216,note_on,,0,0,6,,,,,,,,5,,,55,60
21312,note_on,,96,0,2,,,,,,,,1,,,58,0
21312,note_on,,96,0,6,,,,,,,,5,,,55,0
21312,note_on,,96,0,7,,,,,,,,6,,,51,0
21312,note_on,,192,0,5,,,,,,,,4,,,75,60
21312,note_on,,0,0,7,,,,,,,,6,,,67,45
21312,note_on,,0,0,11,,,,,,,,11,,,82,75
21312,note_on,,96,0,3,,,,,,,,2,,,55,0
21312,note_on,,96,0,11,,,,,,,,11,,,70,0
21312,note_on,,0,0,10,,,,,,,,10,,,82,75
21312,note_on,,96,0,10,,,,,,,,10,,,70,0
21312,note_on,,0,0,3,,,,,,,,2,,,51,127
21312,note_on,,0,0,6,,,,,,,,5,,,70,60
21312,note_on,,0,0,2,,,,,,,,1,,,70,127
21408,note_on,,0,0,10,,,,,,,,10,,,79,75
21408,note_on,,96,0,11,,,,,,,,11,,,82,0
21408,note_on,,0,0,11,,,,,,,,11,,,79,75
21408,note_on,,96,0,10,,,,,,,,10,,,82,0
21408,note_on,,96,0,2,,,,,,,,1,,,70,0
21408,note_on,,0,0,2,,,,,,,,1,,,67,127
21504,note_on,,96,0,2,,,,,,,,1,,,67,0
21504,note_on,,192,0,3,,,,,,,,2,,,51,0
21504,note_on,,0,0,2,,,,,,,,1,,,63,127
21504,note_on,,96,0,10,,,,,,,,10,,,79,0
21504,note_on,,96,0,11,,,,,,,,11,,,79,0
21504,note_on,,0,0,11,,,,,,,,11,,,75,75
21504,note_on,,192,0,6,,,,,,,,5,,,70,0
21504,note_on,,0,0,10,,,,,,,,10,,,75,75
21504,note_on,,192,0,5,,,,,,,,4,,,75,0
21504,note_on,,192,0,7,,,,,,,,6,,,67,0
21600,note_on,,96,0,10,,,,,,,,10,,,75,0
21600,note_on,,96,0,11,,,,,,,,11,,,75,0
21600,note_on,,0,0,11,,,,,,,,11,,,70,75
21600,note_on,,0,0,10,,,,,,,,10,,,70,75
21600,note_on,,96,0,5,,,,,,,,4,,,75,60
21600,note_on,,96,0,6,,,,,,,,5,,,70,60
21600,note_on,,96,0,2,,,,,,,,1,,,63,0
21600,note_on,,0,0,2,,,,,,,,1,,,58,127
21600,note_on,,96,0,7,,,,,,,,6,,,67,45
21696,note_on,,96,0,7,,,,,,,,6,,,67,0
21696,note_on,,96,0,5,,,,,,,,4,,,75,0
21696,note_on,,0,0,8,,,,,,,,7,,,49,45
21696,note_on,,96,0,11,,,,,,,,11,,,70,0
21696,note_on,,0,0,11,,,,,,,,11,,,79,75
21696,note_on,,0,0,5,,,,,,,,4,,,79,60
21696,note_on,,576,0,1,,,,,,,,0,,,75,127
21696,note_on,,0,0,10,,,,,,,,10,,,79,75
21696,note_on,,96,0,10,,,,,,,,10,,,70,0
21696,note_on,,0,0,7,,,,,,,,6,,,70,45
21696,note_on,,1152,0,9,,,,,,,,8,,,27,0
21696,note_on,,0,0,9,,,,,,,,8,,,37,45
21696,note_on,,96,0,2,,,,,,,,1,,,58,0
21696,note_on,,768,0,4,,,,,,,,3,,,61,127
21696,note_on,,0,0,2,,,,,,,,1,,,70,127
21696,note_on,,192,0,3,,,,,,,,2,,,67,127
21696,note_on,,96,0,6,,,,,,,,5,,,70,0
21696,note_on,,0,0,6,,,,,,,,5,,,75,60
21696,note_on,,1152,0,8,,,,,,,,7,,,39,0
21696,note_on,,1152,0,12,,,,,,,,12,,,39,0
21696,note_on,,0,0,12,,,,,,,,12,,,49,45
21792,note_on,,96,0,7,,,,,,,,6,,,70,0
21792,note_on,,0,0,6,,,,,,,,5,,,72,60
21792,note_on,,0,0,5,,,,,,,,4,,,75,60
21792,note_on,,96,0,10,,,,,,,,10,,,79,0
21792,note_on,,96,0,5,,,,,,,,4,,,79,0
21792,note_on,,0,0,11,,,,,,,,11,,,75,75
21792,note_on,,96,0,11,,,,,,,,11,,,79,0
21792,note_on,,0,0,7,,,,,,,,6,,,67,45
21792,note_on,,96,0,6,,,,,,,,5,,,75,0
21792,note_on,,0,0,10,,,,,,,,10,,,75,75
21888,note_on,,96,0,7,,,,,,,,6,,,67,0
21888,note_on,,96,0,6,,,,,,,,5,,,72,0
21888,note_on,,0,0,6,,,,,,,,5,,,68,60
21888,note_on,,0,0,7,,,,,,,,6,,,63,45
21888,note_on,,0,0,5,,,,,,,,4,,,72,60
21888,note_on,,0,0,11,,,,,,,,11,,,70,75
21888,note_on,,96,0,11,,,,,,,,11,,,75,0
21888,note_on,,0,0,10,,,,,,,,10,,,70,75
21888,note_on,,96,0,5,,,,,,,,4,,,75,0
21888,note_on,,96,0,10,,,,,,,,10,,,75,0
21984,note_on,,96,0,5,,,,,,,,4,,,72,0
21984,note_on,,0,0,5,,,,,,,,4,,,67,60
21984,note_on,,0,0,6,,,,,,,,5,,,63,60
21984,note_on,,0,0,7,,,,,,,,6,,,58,45
21984,note_on,,96,0,11,,,,,,,,11,,,70,0
21984,note_on,,96,0,7,,,,,,,,6,,,63,0
21984,note_on,,0,0,10,,,,,,,,10,,,67,75
21984,note_on,,96,0,10,,,,,,,,10,,,70,0
21984,note_on,,0,0,11,,,,,,,,11,,,67,75
21984,note_on,,96,0,6,,,,,,,,5,,,68,0
22080,note_on,,96,0,10,,,,,,,,10,,,67,0
22080,note_on,,96,0,7,,,,,,,,6,,,58,0
22080,note_on,,0,0,7,,,,,,,,6,,,55,45
22080,note_on,,0,0,10,,,,,,,,10,,,63,75
22080,note_on,,384,0,8,,,,,,,,7,,,49,0
22080,note_on,,384,0,4,,,,,,,,3,,,61,0
22080,note_on,,0,0,11,,,,,,,,11,,,63,75
22080,note_on,,0,0,6,,,,,,,,5,,,58,60
22080,note_on,,384,0,9,,,,,,,,8,,,37,0
22080,note_on,,96,0,6,,,,,,,,5,,,63,0
22080,note_on,,384,0,3,,,,,,,,2,,,67,0
22080,note_on,,0,0,5,,,,,,,,4,,,63,60
22080,note_on,,96,0,5,,,,,,,,4,,,67,0
22080,note_on,,384,0,2,,,,,,,,1,,,70,0
22080,note_on,,384,0,12,,,,,,,,12,,,49,0
22080,note_on,,384,0,1,,,,,,,,0,,,75,0
22080,note_on,,96,0,11,,,,,,,,11,,,67,0
22176,note_on,,0,0,7,,,,,,,,6,,,51,45
22176,note_on,,96,0,7,,,,,,,,6,,,55,0
22176,note_on,,96,0,6,,,,,,,,5,,,58,0
22176,note_on,,0,0,6,,,,,,,,5,,,55,60
22176,note_on,,0,0,5,,,,,,,,4,,,58,60
22176,note_on,,96,0,5,,,,,,,,4,,,63,0
22272,note_on,,96,0,7,,,,,,,,6,,,51,0
22272,note_on,,0,0,6,,,,,,,,5,,,55,60
22272,note_on,,0,0,7,,,,,,,,6,,,51,45
22272,note_on,,192,0,11,,,,,,,,11,,,63,0
22272,note_on,,192,0,10,,,,,,,,10,,,63,0
22272,note_on,,96,0,6,,,,,,,,5,,,55,0
22272,note_on,,96,0,5,,,,,,,,4,,,58,0
22272,note_on,,0,0,5,,,,,,,,4,,,58,60
22368,note_on,,96,0,7,,,,,,,,6,,,51,0
22368,note_on,,0,0,7,,,,,,,,6,,,51,45
22368,note_on,,0,0,6,,,,,,,,5,,,55,60
22368,note_on,,96,0,6,,,,,,,,5,,,55,0
22368,note_on,,96,0,5,,,,,,,,4,,,58,0
22368,note_on,,0,0,5,,,,,,,,4,,,58,60
22464,note_on,,96,0,6,,,,,,,,5,,,55,0
22464,note_on,,0,0,6,,,,,,,,5,,,76,60
22464,note_on,,0,0,5,,,,,,,,4,,,79,60
22464,note_on,,384,0,9,,,,,,,,8,,,36,45
22464,note_on,,384,0,8,,,,,,,,7,,,48,45
22464,note_on,,192,0,10,,,,,,,,10,,,76,75
22464,note_on,,192,0,11,,,,,,,,11,,,76,75
22464,note_on,,96,0,5,,,,,,,,4,,,58,0
22464,note_on,,384,0,4,,,,,,,,3,,,60,127
22464,note_on,,384,0,2,,,,,,,,1,,,70,127
22464,note_on,,0,0,7,,,,,,,,6,,,60,45
22464,note_on,,384,0,3,,,,,,,,2,,,67,127
22464,note_on,,96,0,7,,,,,,,,6,,,51,0
22464,note_on,,384,0,1,,,,,,,,0,,,76,127
22464,note_on,,384,0,12,,,,,,,,12,,,48,45
22560,note_on,,0,0,5,,,,,,,,4,,,76,60
22560,note_on,,96,0,5,,,,,,,,4,,,79,0
22560,note_on,,96,0,7,,,,,,,,6,,,60,0
22560,note_on,,0,0,6,,,,,,,,5,,,70,60
22560,note_on,,96,0,6,,,,,,,,5,,,76,0
22560,note_on,,0,0,7,,,,,,,,6,,,67,45
22656,note_on,,0,0,6,,,,,,,,5,,,67,60
22656,note_on,,96,0,5,,,,,,,,4,,,76,0
22656,note_on,,0,0,5,,,,,,,,4,,,70,60
22656,note_on,,96,0,7,,,,,,,,6,,,67,0
22656,note_on,,0,0,7,,,,,,,,6,,,64,45
22656,note_on,,96,0,6,,,,,,,,5,,,70,0
22752,note_on,,0,0,2,,,,,,,,1,,,70,92
22752,note_on,,96,0,6,,,,,,,,5,,,67,0
22752,note_on,,288,0,2,,,,,,,,1,,,70,0
22752,note_on,,0,0,7,,,,,,,,6,,,58,45
22752,note_on,,288,0,8,,,,,,,,7,,,48,0
22752,note_on,,288,0,12,,,,,,,,12,,,48,0
22752,note_on,,0,0,8,,,,,,,,7,,,48,45
22752,note_on,,0,0,12,,,,,,,,12,,,48,45
22752,note_on,,0,0,10,,,,,,,,10,,,76,75
22752,note_on,,288,0,10,,,,,,,,10,,,76,0
22752,note_on,,0,0,4,,,,,,,,3,,,48,92
22752,note_on,,96,0,7,,,,,,,,6,,,64,0
22752,note_on,,288,0,3,,,,,,,,2,,,67,0
22752,note_on,,0,0,6,,,,,,,,5,,,64,60
22752,note_on,,0,0,9,,,,,,,,8,,,36,45
22752,note_on,,0,0,3,,,,,,,,2,,,67,92
22752,note_on,,0,0,5,,,,,,,,4,,,67,60
22752,note_on,,96,0,5,,,,,,,,4,,,70,0
22752,note_on,,0,0,1,,,,,,,,0,,,76,92
22752,note_on,,288,0,1,,,,,,,,0,,,76,0
22752,note_on,,288,0,9,,,,,,,,8,,,36,0
22752,note_on,,288,0,11,,,,,,,,11,,,76,0
22752,note_on,,288,0,4,,,,,,,,3,,,60,0
22752,note_on,,0,0,11,,,,,,,,11,,,76,75
22848,note_on,,0,0,8,,,,,,,,7,,,53,45
22848,note_on,,96,0,12,,,,,,,,12,,,48,0
22848,note_on,,0,0,12,,,,,,,,12,,,53,45
22848,note_on,,0,0,10,,,,,,,,10,,,77,75
22848,note_on,,96,0,10,,,,,,,,10,,,76,0
22848,note_on,,96,0,11,,,,,,,,11,,,76,0
22848,note_on,,96,0,8,,,,,,,,7,,,48,0
22848,note_on,,0,0,11,,,,,,,,11,,,77,75
22848,note_on,,96,0,1,,,,,,,,0,,,76,0
22848,note_on,,0,0,1,,,,,,,,0,,,72,92
22848,note_on,,96,0,3,,,,,,,,2,,,67,0
22848,note_on,,0,0,5,,,,,,,,4,,,80,60
22848,note_on,,96,0,5,,,,,,,,4,,,67,0
22848,note_on,,96,0,2,,,,,,,,1,,,70,0
22848,note_on,,0,0,2,,,,,,,,1,,,68,92
22848,note_on,,96,0,7,,,,,,,,6,,,58,0
22848,note_on,,0,0,7,,,,,,,,6,,,56,45
22848,note_on,,96,0,9,,,,,,,,8,,,36,0
22848,note_on,,0,0,9,,,,,,,,8,,,41,45
22848,note_on,,96,0,6,,,,,,,,5,,,64,0
22848,note_on,,96,0,4,,,,,,,,3,,,48,0
22848,note_on,,0,0,3,,,,,,,,2,,,65,92
22848,note_on,,0,0,6,,,,,,,,5,,,77,60
22848,note_on,,0,0,4,,,,,,,,3,,,53,92
22944,note_on,,96,0,5,,,,,,,,4,,,80,0
22944,note_on,,96,0,12,,,,,,,,12,,,53,0
22944,note_on,,0,0,5,,,,,,,,4,,,77,60
22944,note_on,,0,0,6,,,,,,,,5,,,72,60
22944,note_on,,96,0,6,,,,,,,,5,,,77,0
22944,note_on,,0,0,12,,,,,,,,12,,,53,45
22944,note_on,,96,0,9,,,,,,,,8,,,41,0
22944,note_on,,0,0,8,,,,,,,,7,,,53,45
22944,note_on,,96,0,8,,,,,,,,7,,,53,0
22944,note_on,,0,0,9,,,,,,,,8,,,41,45
22944,note_on,,96,0,7,,,,,,,,6,,,56,0
22944,note_on,,0,0,7,,,,,,,,6,,,68,45
23040,note_on,,0,0,9,,,,,,,,8,,,41,45
23040,note_on,,0,0,12,,,,,,,,12,,,53,45
23040,note_on,,0,0,5,,,,,,,,4,,,72,60
23040,note_on,,96,0,5,,,,,,,,4,,,77,0
23040,note_on,,96,0,12,,,,,,,,12,,,53,0
23040,note_on,,96,0,9,,,,,,,,8,,,41,0
23040,note_on,,96,0,7,,,,,,,,6,,,68,0
23040,note_on,,0,0,7,,,,,,,,6,,,65,45
23040,note_on,,96,0,8,,,,,,,,7,,,53,0
23040,note_on,,0,0,8,,,,,,,,7,,,53,45
23040,note_on,,0,0,6,,,,,,,,5,,,68,60
23040,note_on,,96,0,6,,,,,,,,5,,,72,0
23136,note_on,,288,0,11,,,,,,,,11,,,77,0
23136,note_on,,96,0,7,,,,,,,,6,,,65,0
23136,note_on,,0,0,6,,,,,,,,5,,,67,60
23136,note_on,,0,0,1,,,,,,,,0,,,70,92
23136,note_on,,288,0,1,,,,,,,,0,,,72,0
23136,note_on,,0,0,7,,,,,,,,6,,,64,45
23136,note_on,,96,0,12,,,,,,,,12,,,53,0
23136,note_on,,0,0,3,,,,,,,,2,,,64,92
23136,note_on,,0,0,10,,,,,,,,10,,,70,75
23136,note_on,,96,0,5,,,,,,,,4,,,72,0
23136,note_on,,0,0,5,,,,,,,,4,,,70,60
23136,note_on,,288,0,3,,,,,,,,2,,,65,0
23136,note_on,,288,0,4,,,,,,,,3,,,53,0
23136,note_on,,0,0,11,,,,,,,,11,,,70,75
23136,note_on,,288,0,10,,,,,,,,10,,,77,0
23136,note_on,,0,0,4,,,,,,,,3,,,55,92
23136,note_on,,0,0,12,,,,,,,,12,,,55,45
23136,note_on,,96,0,6,,,,,,,,5,,,68,0
23136,note_on,,0,0,8,,,,,,,,7,,,55,45
23136,note_on,,96,0,8,,,,,,,,7,,,53,0
23136,note_on,,0,0,9,,,,,,,,8,,,43,45
23136,note_on,,96,0,9,,,,,,,,8,,,41,0
23136,note_on,,288,0,2,,,,,,,,1,,,68,0
23136,note_on,,0,0,2,,,,,,,,1,,,67,92
23184,note_on,,48,0,3,,,,,,,,2,,,64,0
23184,note_on,,48,0,7,,,,,,,,6,,,64,0
23184,note_on,,0,0,7,,,,,,,,6,,,62,45
23184,note_on,,0,0,3,,,,,,,,2,,,62,92
23232,note_on,,0,0,2,,,,,,,,1,,,65,92
23232,note_on,,0,0,10,,,,,,,,10,,,72,75
23232,note_on,,96,0,10,,,,,,,,10,,,70,0
23232,note_on,,0,0,5,,,,,,,,4,,,68,60
23232,note_on,,96,0,5,,,,,,,,4,,,70,0
23232,note_on,,96,0,8,,,,,,,,7,,,55,0
23232,note_on,,0,0,8,,,,,,,,7,,,56,45
23232,note_on,,96,0,2,,,,,,,,1,,,67,0
23232,note_on,,48,0,3,,,,,,,,2,,,62,0
23232,note_on,,0,0,9,,,,,,,,8,,,44,45
23232,note_on,,0,0,4,,,,,,,,3,,,56,92
23232,note_on,,96,0,12,,,,,,,,12,,,55,0
23232,note_on,,96,0,6,,,,,,,,5,,,67,0
23232,note_on,,0,0,6,,,,,,,,5,,,65,60
23232,note_on,,48,0,7,,,,,,,,6,,,62,0
23232,note_on,,0,0,7,,,,,,,,6,,,60,45
23232,note_on,,0,0,12,,,,,,,,12,,,56,45
23232,note_on,,0,0,3,,,,,,,,2,,,60,92
23232,note_on,,0,0,11,,,,,,,,11,,,72,75
23232,note_on,,0,0,1,,,,,,,,0,,,68,92
23232,note_on,,96,0,1,,,,,,,,0,,,70,0
23232,note_on,,96,0,9,,,,,,,,8,,,43,0
23232,note_on,,96,0,11,,,,,,,,11,,,70,0
23232,note_on,,96,0,4,,,,,,,,3,,,55,0
23328,note_on,,96,0,6,,,,,,,,5,,,65,0
23328,note_on,,0,0,6,,,,,,,,5,,,60,60
23328,note_on,,96,0,5,,,,,,,,4,,,68,0
23328,note_on,,0,0,5,,,,,,,,4,,,65,60
23424,note_on,,192,0,3,,,,,,,,2,,,60,0
23424,note_on,,0,0,6,,,,,,,,5,,,56,60
23424,note_on,,96,0,6,,,,,,,,5,,,60,0
23424,note_on,,192,0,2,,,,,,,,1,,,65,0
23424,note_on,,0,0,5,,,,,,,,4,,,60,60
23424,note_on,,96,0,5,,,,,,,,4,,,65,0
23424,note_on,,192,0,10,,,,,,,,10,,,72,0
23424,note_on,,192,0,1,,,,,,,,0,,,68,0
23424,note_on,,192,0,7,,,,,,,,6,,,60,0
23424,note_on,,192,0,11,,,,,,,,11,,,72,0
23520,note_on,,0,0,8,,,,,,,,7,,,44,45
23520,note_on,,0,0,6,,,,,,,,5,,,65,60
23520,note_on,,96,0,6,,,,,,,,5,,,56,0
23520,note_on,,0,0,9,,,,,,,,8,,,32,45
23520,note_on,,96,0,2,,,,,,,,1,,,65,92
23520,note_on,,288,0,9,,,,,,,,8,,,44,0
23520,note_on,,0,0,4,,,,,,,,3,,,44,92
23520,note_on,,288,0,4,,,,,,,,3,,,56,0
23520,note_on,,0,0,12,,,,,,,,12,,,44,45
23520,note_on,,288,0,12,,,,,,,,12,,,56,0
23520,note_on,,288,0,8,,,,,,,,7,,,56,0
23616,note_on,,96,0,12,,,,,,,,12,,,44,0
23616,note_on,,96,0,4,,,,,,,,3,,,44,0
23616,note_on,,96,0,8,,,,,,,,7,,,44,0
23616,note_on,,0,0,8,,,,,,,,7,,,46,45
23616,note_on,,0,0,5,,,,,,,,4,,,61,60
23616,note_on,,192,0,5,,,,,,,,4,,,60,0
23616,note_on,,96,0,2,,,,,,,,1,,,65,0
23616,note_on,,0,0,4,,,,,,,,3,,,46,92
23616,note_on,,96,0,6,,,,,,,,5,,,65,0
23616,note_on,,96,0,9,,,,,,,,8,,,32,0
23616,note_on,,0,0,9,,,,,,,,8,,,34,45
23616,note_on,,0,0,2,,,,,,,,1,,,66,92
23616,note_on,,0,0,12,,,,,,,,12,,,46,45
23616,note_on,,0,0,6,,,,,,,,5,,,66,60
23712,note_on,,96,0,6,,,,,,,,5,,,66,0
23712,note_on,,0,0,6,,,,,,,,5,,,66,60
23712,note_on,,96,0,2,,,,,,,,1,,,66,0
23712,note_on,,0,0,2,,,,,,,,1,,,66,92
23808,note_on,,384,0,3,,,,,,,,2,,,58,92
23808,note_on,,96,0,6,,,,,,,,5,,,66,0
23808,note_on,,384,0,7,,,,,,,,6,,,58,45
23808,note_on,,96,0,2,,,,,,,,1,,,66,0
23808,note_on,,0,0,2,,,,,,,,1,,,66,92
23808,note_on,,0,0,6,,,,,,,,5,,,66,60
23904,note_on,,288,0,8,,,,,,,,7,,,46,0
23904,note_on,,0,0,6,,,,,,,,5,,,65,60
23904,note_on,,288,0,5,,,,,,,,4,,,61,0
23904,note_on,,0,0,9,,,,,,,,8,,,34,45
23904,note_on,,96,0,6,,,,,,,,5,,,66,0
23904,note_on,,0,0,5,,,,,,,,4,,,61,60
23904,note_on,,96,0,2,,,,,,,,1,,,66,0
23904,note_on,,0,0,4,,,,,,,,3,,,46,92
23904,note_on,,288,0,4,,,,,,,,3,,,46,0
23904,note_on,,0,0,8,,,,,,,,7,,,46,45
23904,note_on,,0,0,12,,,,,,,,12,,,46,45
23904,note_on,,0,0,2,,,,,,,,1,,,65,92
23904,note_on,,288,0,12,,,,,,,,12,,,46,0
23904,note_on,,288,0,9,,,,,,,,8,,,34,0
24000,note_on,,0,0,5,,,,,,,,4,,,55,60
24000,note_on,,96,0,4,,,,,,,,3,,,46,0
24000,note_on,,96,0,12,,,,,,,,12,,,46,0
24000,note_on,,0,0,12,,,,,,,,12,,,48,45
24000,note_on,,96,0,6,,,,,,,,5,,,65,0
24000,note_on,,96,0,9,,,,,,,,8,,,34,0
24000,note_on,,0,0,4,,,,,,,,3,,,48,92
24000,note_on,,0,0,8,,,,,,,,7,,,48,45
24000,note_on,,96,0,8,,,,,,,,7,,,46,0
24000,note_on,,96,0,5,,,,,,,,4,,,61,0
24000,note_on,,96,0,2,,,,,,,,1,,,65,0
24000,note_on,,0,0,6,,,,,,,,5,,,64,60
24000,note_on,,0,0,9,,,,,,,,8,,,36,45
24000,note_on,,0,0,2,,,,,,,,1,,,64,92
24096,note_on,,96,0,2,,,,,,,,1,,,64,0
24096,note_on,,288,0,7,,,,,,,,6,,,58,0
24096,note_on,,288,0,3,,,,,,,,2,,,58,0
24096,note_on,,0,0,3,,,,,,,,2,,,61,92
24096,note_on,,0,0,2,,,,,,,,1,,,64,92
24096,note_on,,0,0,7,,,,,,,,6,,,61,45
24192,note_on,,96,0,2,,,,,,,,1,,,64,0
24192,note_on,,0,0,7,,,,,,,,6,,,60,45
24192,note_on,,192,0,5,,,,,,,,4,,,55,0
24192,note_on,,0,0,2,,,,,,,,1,,,64,92
24192,note_on,,192,0,4,,,,,,,,3,,,48,0
24192,note_on,,96,0,7,,,,,,,,6,,,61,0
24192,note_on,,0,0,3,,,,,,,,2,,,60,92
24192,note_on,,96,0,3,,,,,,,,2,,,61,0
24288,note_on,,96,0,3,,,,,,,,2,,,60,0
24288,note_on,,96,0,7,,,,,,,,6,,,60,0
24288,note_on,,0,0,7,,,,,,,,6,,,58,45
24288,note_on,,288,0,6,,,,,,,,5,,,64,0
24288,note_on,,96,0,2,,,,,,,,1,,,64,0
24288,note_on,,0,0,6,,,,,,,,5,,,64,60
24288,note_on,,288,0,8,,,,,,,,7,,,48,0
24288,note_on,,0,0,8,,,,,,,,7,,,48,45
24288,note_on,,0,0,2,,,,,,,,1,,,64,92
24288,note_on,,0,0,12,,,,,,,,12,,,48,45
24288,note_on,,0,0,9,,,,,,,,8,,,36,45
24288,note_on,,288,0,9,,,,,,,,8,,,36,0
24288,note_on,,288,0,12,,,,,,,,12,,,48,0
24288,note_on,,0,0,3,,,,,,,,2,,,58,92
24384,note_on,,96,0,6,,,,,,,,5,,,64,0
24384,note_on,,0,0,6,,,,,,,,5,,,65,60
24384,note_on,,0,0,2,,,,,,,,1,,,65,92
24384,note_on,,0,0,12,,,,,,,,12,,,41,45
24384,note_on,,96,0,12,,,,,,,,12,,,48,0
24384,note_on,,0,0,7,,,,,,,,6,,,57,45
24384,note_on,,96,0,7,,,,,,,,6,,,58,0
24384,note_on,,0,0,8,,,,,,,,7,,,41,45
24384,note_on,,96,0,8,,,,,,,,7,,,48,0
24384,note_on,,96,0,9,,,,,,,,8,,,36,0
24384,note_on,,0,0,9,,,,,,,,8,,,29,45
24384,note_on,,0,0,3,,,,,,,,2,,,57,92
24384,note_on,,96,0,3,,,,,,,,2,,,58,0
24384,note_on,,96,0,2,,,,,,,,1,,,64,0
24480,note_on,,96,0,3,,,,,,,,2,,,57,0
24480,note_on,,0,0,2,,,,,,,,1,,,63,92
24480,note_on,,96,0,2,,,,,,,,1,,,65,0
24480,note_on,,0,0,6,,,,,,,,5,,,63,60
24480,note_on,,0,0,3,,,,,,,,2,,,60,92
24480,note_on,,96,0,7,,,,,,,,6,,,57,0
24480,note_on,,0,0,7,,,,,,,,6,,,60,45
24480,note_on,,96,0,6,,,,,,,,5,,,65,0
24576,note_on,,96,0,7,,,,,,,,6,,,60,0
24576,note_on,,0,0,7,,,,,,,,6,,,65,45
24576,note_on,,0,0,2,,,,,,,,1,,,61,92
24576,note_on,,0,0,6,,,,,,,,5,,,61,60
24576,note_on,,96,0,3,,,,,,,,2,,,60,0
24576,note_on,,96,0,2,,,,,,,,1,,,63,0
24576,note_on,,96,0,6,,,,,,,,5,,,63,0
24576,note_on,,0,0,3,,,,,,,,2,,,65,92
24672,note_on,,96,0,2,,,,,,,,1,,,61,0
24672,note_on,,0,0,2,,,,,,,,1,,,60,92
24672,note_on,,480,0,5,,,,,,,,4,,,72,60
24672,note_on,,1248,0,1,,,,,,,,0,,,72,92
24672,note_on,,0,0,3,,,,,,,,2,,,57,92
24672,note_on,,1248,0,11,,,,,,,,11,,,72,75
24672,note_on,,1248,0,10,,,,,,,,10,,,72,75
24672,note_on,,0,0,7,,,,,,,,6,,,57,45
24672,note_on,,96,0,7,,,,,,,,6,,,65,0
24672,note_on,,288,0,9,,,,,,,,8,,,29,0
24672,note_on,,0,0,6,,,,,,,,5,,,60,60
24672,note_on,,288,0,12,,,,,,,,12,,,41,0
24672,note_on,,96,0,3,,,,,,,,2,,,65,0
24672,note_on,,0,0,9,,,,,,,,8,,,41,45
24672,note_on,,288,0,8,,,,,,,,7,,,41,0
24672,note_on,,96,0,6,,,,,,,,5,,,61,0
24672,note_on,,0,0,8,,,,,,,,7,,,53,45
24672,note_on,,0,0,12,,,,,,,,12,,,53,45
24768,note_on,,0,0,12,,,,,,,,12,,,58,45
24768,note_on,,96,0,8,,,,,,,,7,,,53,0
24768,note_on,,0,0,8,,,,,,,,7,,,58,45
24768,note_on,,96,0,10,,,,,,,,10,,,72,0
24768,note_on,,0,0,10,,,,,,,,10,,,73,75
24768,note_on,,0,0,9,,,,,,,,8,,,46,45
24768,note_on,,96,0,11,,,,,,,,11,,,72,0
24768,note_on,,0,0,6,,,,,,,,5,,,58,60
24768,note_on,,96,0,6,,,,,,,,5,,,60,0
24768,note_on,,96,0,12,,,,,,,,12,,,53,0
24768,note_on,,96,0,9,,,,,,,,8,,,41,0
24768,note_on,,96,0,7,,,,,,,,6,,,57,0
24768,note_on,,96,0,3,,,,,,,,2,,,57,0
24768,note_on,,96,0,2,,,,,,,,1,,,60,0
24768,note_on,,0,0,2,,,,,,,,1,,,58,92
24768,note_on,,0,0,11,,,,,,,,11,,,73,75
24768,note_on,,0,0,7,,,,,,,,6,,,58,45
24768,note_on,,0,0,3,,,,,,,,2,,,58,92
24768,note_on,,96,0,1,,,,,,,,0,,,72,0
24768,note_on,,0,0,1,,,,,,,,0,,,73,92
24768,note_on,,96,0,5,,,,,,,,4,,,72,0
24768,note_on,,0,0,5,,,,,,,,4,,,73,60
24864,note_on,,96,0,1,,,,,,,,0,,,73,0
24864,note_on,,0,0,1,,,,,,,,0,,,73,93
24864,note_on,,96,0,5,,,,,,,,4,,,73,0
24864,note_on,,96,0,10,,,,,,,,10,,,73,0
24864,note_on,,0,0,10,,,,,,,,10,,,73,75
24864,note_on,,0,0,11,,,,,,,,11,,,73,75
24864,note_on,,96,0,11,,,,,,,,11,,,73,0
24864,note_on,,0,0,5,,,,,,,,4,,,73,60
24960,note_on,,96,0,11,,,,,,,,11,,,73,0
24960,note_on,,768,0,4,,,,,,,,3,,,53,92
24960,note_on,,0,0,11,,,,,,,,11,,,73,75
24960,note_on,,0,0,8,,,,,,,,7,,,53,45
24960,note_on,,0,0,12,,,,,,,,12,,,53,45
24960,note_on,,192,0,8,,,,,,,,7,,,58,0
24960,note_on,,192,0,9,,,,,,,,8,,,46,0
24960,note_on,,0,0,9,,,,,,,,8,,,41,45
24960,note_on,,96,0,5,,,,,,,,4,,,73,0
24960,note_on,,0,0,5,,,,,,,,4,,,73,60
24960,note_on,,192,0,12,,,,,,,,12,,,58,0
24960,note_on,,0,0,1,,,,,,,,0,,,73,95
24960,note_on,,0,0,10,,,,,,,,10,,,73,75
24960,note_on,,96,0,10,,,,,,,,10,,,73,0
24960,note_on,,96,0,1,,,,,,,,0,,,73,0
25056,note_on,,96,0,1,,,,,,,,0,,,73,0
25056,note_on,,0,0,10,,,,,,,,10,,,72,75
25056,note_on,,0,0,1,,,,,,,,0,,,72,97
25056,note_on,,0,0,2,,,,,,,,1,,,60,99
25056,note_on,,288,0,2,,,,,,,,1,,,58,0
25056,note_on,,96,0,10,,,,,,,,10,,,73,0
25056,note_on,,288,0,6,,,,,,,,5,,,58,0
25056,note_on,,96,0,5,,,,,,,,4,,,73,0
25056,note_on,,288,0,7,,,,,,,,6,,,58,0
25056,note_on,,0,0,7,,,,,,,,6,,,56,45
25056,note_on,,288,0,3,,,,,,,,2,,,58,0
25056,note_on,,0,0,3,,,,,,,,2,,,56,102
25056,note_on,,0,0,5,,,,,,,,4,,,72,60
25056,note_on,,0,0,11,,,,,,,,11,,,72,75
25056,note_on,,96,0,11,,,,,,,,11,,,73,0
25056,note_on,,0,0,6,,,,,,,,5,,,60,60
25152,note_on,,96,0,7,,,,,,,,6,,,56,0
25152,note_on,,0,0,7,,,,,,,,6,,,55,45
25152,note_on,,0,0,11,,,,,,,,11,,,71,75
25152,note_on,,96,0,2,,,,,,,,1,,,60,0
25152,note_on,,0,0,2,,,,,,,,1,,,62,101
25152,note_on,,0,0,1,,,,,,,,0,,,71,99
25152,note_on,,96,0,1,,,,,,,,0,,,72,0
25152,note_on,,0,0,3,,,,,,,,2,,,55,105
25152,note_on,,96,0,3,,,,,,,,2,,,56,0
25152,note_on,,0,0,5,,,,,,,,4,,,71,60
25152,note_on,,96,0,5,,,,,,,,4,,,72,0
25152,note_on,,96,0,10,,,,,,,,10,,,72,0
25152,note_on,,0,0,10,,,,,,,,10,,,71,75
25152,note_on,,96,0,6,,,,,,,,5,,,60,0
25152,note_on,,96,0,11,,,,,,,,11,,,72,0
25152,note_on,,0,0,6,,,,,,,,5,,,62,60
25248,note_on,,0,0,4,,,,,,,,3,,,56,92
25248,note_on,,288,0,4,,,,,,,,3,,,53,0
25248,note_on,,288,0,12,,,,,,,,12,,,53,0
25248,note_on,,0,0,12,,,,,,,,12,,,56,45
25248,note_on,,0,0,7,,,,,,,,6,,,65,45
25248,note_on,,288,0,8,,,,,,,,7,,,53,0
25248,note_on,,0,0,1,,,,,,,,0,,,71,101
25248,note_on,,96,0,1,,,,,,,,0,,,71,0
25248,note_on,,288,0,9,,,,,,,,8,,,41,0
25248,note_on,,0,0,9,,,,,,,,8,,,44,45
25248,note_on,,0,0,3,,,,,,,,2,,,65,108
25248,note_on,,0,0,8,,,,,,,,7,,,56,45
25248,note_on,,96,0,7,,,,,,,,6,,,55,0
25248,note_on,,96,0,3,,,,,,,,2,,,55,0
25344,note_on,,96,0,7,,,,,,,,6,,,65,0
25344,note_on,,0,0,7,,,,,,,,6,,,63,45
25344,note_on,,0,0,4,,,,,,,,3,,,55,92
25344,note_on,,96,0,4,,,,,,,,3,,,56,0
25344,note_on,,96,0,12,,,,,,,,12,,,56,0
25344,note_on,,0,0,12,,,,,,,,12,,,55,45
25344,note_on,,0,0,8,,,,,,,,7,,,55,45
25344,note_on,,96,0,8,,,,,,,,7,,,56,0
25344,note_on,,0,0,1,,,,,,,,0,,,71,103
25344,note_on,,96,0,1,,,,,,,,0,,,71,0
25344,note_on,,96,0,9,,,,,,,,8,,,44,0
25344,note_on,,96,0,3,,,,,,,,2,,,65,0
25344,note_on,,0,0,3,,,,,,,,2,,,63,111
25344,note_on,,0,0,9,,,,,,,,8,,,43,45
25440,note_on,,0,0,12,,,,,,,,12,,,53,45
25440,note_on,,0,0,11,,,,,,,,11,,,71,75
25440,note_on,,96,0,12,,,,,,,,12,,,55,0
25440,note_on,,0,0,10,,,,,,,,10,,,71,75
25440,note_on,,288,0,10,,,,,,,,10,,,71,0
25440,note_on,,288,0,5,,,,,,,,4,,,71,0
25440,note_on,,288,0,6,,,,,,,,5,,,62,0
25440,note_on,,0,0,3,,,,,,,,2,,,62,115
25440,note_on,,0,0,8,,,,,,,,7,,,53,45
25440,note_on,,96,0,8,,,,,,,,7,,,55,0
25440,note_on,,288,0,11,,,,,,,,11,,,71,0
25440,note_on,,0,0,4,,,,,,,,3,,,53,95
25440,note_on,,96,0,4,,,,,,,,3,,,55,0
25440,note_on,,0,0,5,,,,,,,,4,,,71,60
25440,note_on,,288,0,2,,,,,,,,1,,,62,0
25440,note_on,,0,0,2,,,,,,,,1,,,68,108
25440,note_on,,0,0,6,,,,,,,,5,,,68,60
25440,note_on,,0,0,7,,,,,,,,6,,,62,45
25440,note_on,,96,0,3,,,,,,,,2,,,63,0
25440,note_on,,96,0,7,,,,,,,,6,,,63,0
25440,note_on,,0,0,1,,,,,,,,0,,,71,105
25440,note_on,,96,0,9,,,,,,,,8,,,43,0
25440,note_on,,96,0,1,,,,,,,,0,,,71,0
25440,note_on,,0,0,9,,,,,,,,8,,,41,45
25536,note_on,,0,0,10,,,,,,,,10,,,72,75
25536,note_on,,96,0,10,,,,,,,,10,,,71,0
25536,note_on,,96,0,4,,,,,,,,3,,,53,0
25536,note_on,,0,0,4,,,,,,,,3,,,52,99
25536,note_on,,96,0,3,,,,,,,,2,,,62,0
25536,note_on,,96,0,7,,,,,,,,6,,,62,0
25536,note_on,,0,0,7,,,,,,,,6,,,60,45
25536,note_on,,96,0,11,,,,,,,,11,,,71,0
25536,note_on,,0,0,11,,,,,,,,11,,,72,75
25536,note_on,,0,0,6,,,,,,,,5,,,67,60
25536,note_on,,0,0,3,,,,,,,,2,,,60,119
25536,note_on,,96,0,6,,,,,,,,5,,,68,0
25536,note_on,,96,0,1,,,,,,,,0,,,71,0
25536,note_on,,0,0,1,,,,,,,,0,,,72,107
25536,note_on,,0,0,5,,,,,,,,4,,,72,60
25536,note_on,,96,0,9,,,,,,,,8,,,41,0
25536,note_on,,96,0,5,,,,,,,,4,,,71,0
25536,note_on,,96,0,8,,,,,,,,7,,,53,0
25536,note_on,,0,0,8,,,,,,,,7,,,52,45
25536,note_on,,0,0,9,,,,,,,,8,,,40,45
25536,note_on,,0,0,2,,,,,,,,1,,,67,110
25536,note_on,,96,0,2,,,,,,,,1,,,68,0
25536,note_on,,0,0,12,,,,,,,,12,,,52,45
25536,note_on,,96,0,12,,,,,,,,12,,,53,0
25632,note_on,,0,0,8,,,,,,,,7,,,55,45
25632,note_on,,0,0,12,,,,,,,,12,,,55,45
25632,note_on,,96,0,5,,,,,,,,4,,,72,0
25632,note_on,,0,0,1,,,,,,,,0,,,70,109
25632,note_on,,96,0,1,,,,,,,,0,,,72,0
25632,note_on,,0,0,5,,,,,,,,4,,,70,60
25632,note_on,,0,0,9,,,,,,,,8,,,43,45
25632,note_on,,96,0,9,,,,,,,,8,,,40,0
25632,note_on,,96,0,8,,,,,,,,7,,,52,0
25632,note_on,,96,0,12,,,,,,,,12,,,52,0
25632,note_on,,96,0,11,,,,,,,,11,,,72,0
25632,note_on,,0,0,4,,,,,,,,3,,,55,103
25632,note_on,,0,0,11,,,,,,,,11,,,70,75
25632,note_on,,96,0,10,,,,,,,,10,,,72,0
25632,note_on,,96,0,4,,,,,,,,3,,,52,0
25632,note_on,,0,0,10,,,,,,,,10,,,70,75
25632,note_on,,0,0,2,,,,,,,,1,,,67,112
25632,note_on,,96,0,2,,,,,,,,1,,,67,0
25728,note_on,,0,0,12,,,,,,,,12,,,60,45
25728,note_on,,0,0,10,,,,,,,,10,,,68,75
25728,note_on,,96,0,10,,,,,,,,10,,,70,0
25728,note_on,,0,0,1,,,,,,,,0,,,68,111
25728,note_on,,0,0,3,,,,,,,,2,,,60,127
25728,note_on,,192,0,3,,,,,,,,2,,,60,0
25728,note_on,,192,0,6,,,,,,,,5,,,67,0
25728,note_on,,96,0,1,,,,,,,,0,,,70,0
25728,note_on,,96,0,11,,,,,,,,11,,,70,0
25728,note_on,,96,0,9,,,,,,,,8,,,43,0
25728,note_on,,0,0,9,,,,,,,,8,,,48,45
25728,note_on,,0,0,7,,,,,,,,6,,,60,45
25728,note_on,,0,0,6,,,,,,,,5,,,68,60
25728,note_on,,96,0,5,,,,,,,,4,,,70,0
25728,note_on,,0,0,2,,,,,,,,1,,,68,114
25728,note_on,,96,0,2,,,,,,,,1,,,67,0
25728,note_on,,0,0,11,,,,,,,,11,,,68,75
25728,note_on,,192,0,7,,,,,,,,6,,,60,0
25728,note_on,,0,0,5,,,,,,,,4,,,68,60
25728,note_on,,96,0,8,,,,,,,,7,,,55,0
25728,note_on,,0,0,8,,,,,,,,7,,,60,45
25728,note_on,,96,0,12,,,,,,,,12,,,55,0
25728,note_on,,0,0,4,,,,,,,,3,,,60,107
25728,note_on,,96,0,4,,,,,,,,3,,,55,0
25824,note_on,,96,0,10,,,,,,,,10,,,68,0
25824,note_on,,96,0,2,,,,,,,,1,,,68,0
25824,note_on,,96,0,9,,,,,,,,8,,,48,0
25824,note_on,,0,0,9,,,,,,,,8,,,40,45
25824,note_on,,0,0,2,,,,,,,,1,,,70,116
25824,note_on,,0,0,8,,,,,,,,7,,,52,45
25824,note_on,,96,0,5,,,,,,,,4,,,68,0
25824,note_on,,0,0,11,,,,,,,,11,,,67,75
25824,note_on,,96,0,11,,,,,,,,11,,,68,0
25824,note_on,,96,0,1,,,,,,,,0,,,68,0
25824,note_on,,96,0,4,,,,,,,,3,,,60,0
25824,note_on,,0,0,1,,,,,,,,0,,,67,113
25824,note_on,,96,0,12,,,,,,,,12,,,60,0
25824,note_on,,0,0,12,,,,,,,,12,,,52,45
25824,note_on,,96,0,6,,,,,,,,5,,,68,0
25824,note_on,,0,0,10,,,,,,,,10,,,67,75
25824,note_on,,0,0,6,,,,,,,,5,,,70,60
25824,note_on,,0,0,4,,,,,,,,3,,,52,111
25824,note_on,,0,0,5,,,,,,,,4,,,67,60
25824,note_on,,96,0,8,,,,,,,,7,,,60,0
25920,note_on,,0,0,2,,,,,,,,1,,,68,118
25920,note_on,,96,0,1,,,,,,,,0,,,67,0
25920,note_on,,0,0,1,,,,,,,,0,,,65,115
25920,note_on,,96,0,10,,,,,,,,10,,,67,0
25920,note_on,,96,0,6,,,,,,,,5,,,70,0
25920,note_on,,0,0,8,,,,,,,,7,,,53,45
25920,note_on,,96,0,8,,,,,,,,7,,,52,0
25920,note_on,,0,0,6,,,,,,,,5,,,68,60
25920,note_on,,0,0,10,,,,,,,,10,,,68,75
25920,note_on,,96,0,9,,,,,,,,8,,,40,0
25920,note_on,,96,0,2,,,,,,,,1,,,70,0
25920,note_on,,0,0,12,,,,,,,,12,,,53,45
25920,note_on,,96,0,12,,,,,,,,12,,,52,0
25920,note_on,,0,0,9,,,,,,,,8,,,41,45
25920,note_on,,0,0,11,,,,,,,,11,,,68,75
25920,note_on,,96,0,11,,,,,,,,11,,,67,0
25920,note_on,,0,0,4,,,,,,,,3,,,53,115
25920,note_on,,96,0,4,,,,,,,,3,,,52,0
25920,note_on,,96,0,5,,,,,,,,4,,,67,0
25920,note_on,,0,0,5,,,,,,,,4,,,65,60
26016,note_on,,0,0,11,,,,,,,,11,,,67,75
26016,note_on,,96,0,11,,,,,,,,11,,,68,0
26016,note_on,,288,0,7,,,,,,,,6,,,60,0
26016,note_on,,0,0,7,,,,,,,,6,,,67,45
26016,note_on,,96,0,2,,,,,,,,1,,,68,0
26016,note_on,,0,0,2,,,,,,,,1,,,70,121
26016,note_on,,0,0,10,,,,,,,,10,,,67,75
26016,note_on,,288,0,3,,,,,,,,2,,,60,0
26016,note_on,,0,0,3,,,,,,,,2,,,67,127
26016,note_on,,0,0,6,,,,,,,,5,,,70,60
26016,note_on,,96,0,6,,,,,,,,5,,,68,0
26016,note_on,,96,0,10,,,,,,,,10,,,68,0
26112,note_on,,192,0,1,,,,,,,,0,,,65,0
26112,note_on,,96,0,2,,,,,,,,1,,,70,0
26112,note_on,,0,0,2,,,,,,,,1,,,68,124
26112,note_on,,96,0,3,,,,,,,,2,,,67,0
26112,note_on,,0,0,3,,,,,,,,2,,,65,127
26112,note_on,,0,0,10,,,,,,,,10,,,65,75
26112,note_on,,96,0,10,,,,,,,,10,,,67,0
26112,note_on,,96,0,11,,,,,,,,11,,,67,0
26112,note_on,,192,0,5,,,,,,,,4,,,65,0
26112,note_on,,0,0,11,,,,,,,,11,,,65,75
26112,note_on,,96,0,7,,,,,,,,6,,,67,0
26112,note_on,,0,0,7,,,,,,,,6,,,65,45
26112,note_on,,0,0,6,,,,,,,,5,,,68,60
26112,note_on,,96,0,6,,,,,,,,5,,,70,0
26112,note_on,,192,0,4,,,,,,,,3,,,53,0
26208,note_on,,288,0,8,,,,,,,,7,,,53,0
26208,note_on,,96,0,10,,,,,,,,10,,,65,0
26208,note_on,,0,0,10,,,,,,,,10,,,64,75
26208,note_on,,0,0,6,,,,,,,,5,,,67,60
26208,note_on,,96,0,11,,,,,,,,11,,,65,0
26208,note_on,,288,0,9,,,,,,,,8,,,41,0
26208,note_on,,0,0,9,,,,,,,,8,,,48,45
26208,note_on,,96,0,3,,,,,,,,2,,,65,0
26208,note_on,,288,0,12,,,,,,,,12,,,53,0
26208,note_on,,0,0,11,,,,,,,,11,,,64,75
26208,note_on,,0,0,7,,,,,,,,6,,,64,45
26208,note_on,,96,0,7,,,,,,,,6,,,65,0
26208,note_on,,96,0,6,,,,,,,,5,,,68,0
26208,note_on,,0,0,3,,,,,,,,2,,,64,127
26208,note_on,,0,0,12,,,,,,,,12,,,60,45
26208,note_on,,96,0,4,,,,,,,,3,,,60,127
26208,note_on,,0,0,8,,,,,,,,7,,,60,45
26208,note_on,,96,0,2,,,,,,,,1,,,68,0
26208,note_on,,0,0,2,,,,,,,,1,,,67,127
26304,note_on,,96,0,9,,,,,,,,8,,,48,0
26304,note_on,,96,0,3,,,,,,,,2,,,64,0
26304,note_on,,0,0,3,,,,,,,,2,,,65,127
26304,note_on,,0,0,7,,,,,,,,6,,,65,45
26304,note_on,,96,0,7,,,,,,,,6,,,64,0
26304,note_on,,96,0,8,,,,,,,,7,,,60,0
26304,note_on,,0,0,9,,,,,,,,8,,,49,45
26304,note_on,,0,0,8,,,,,,,,7,,,61,45
26304,note_on,,0,0,6,,,,,,,,5,,,65,60
26304,note_on,,96,0,6,,,,,,,,5,,,67,0
26304,note_on,,0,0,11,,,,,,,,11,,,65,75
26304,note_on,,0,0,10,,,,,,,,10,,,65,75
26304,note_on,,96,0,11,,,,,,,,11,,,64,0
26304,note_on,,96,0,2,,,,,,,,1,,,67,0
26304,note_on,,0,0,2,,,,,,,,1,,,65,127
26304,note_on,,96,0,12,,,,,,,,12,,,60,0
26304,note_on,,0,0,12,,,,,,,,12,,,61,45
26304,note_on,,96,0,4,,,,,,,,3,,,60,0
26304,note_on,,0,0,4,,,,,,,,3,,,61,127
26304,note_on,,96,0,10,,,,,,,,10,,,64,0
26400,note_on,,96,0,8,,,,,,,,7,,,61,0
26400,note_on,,0,0,8,,,,,,,,7,,,61,45
26400,note_on,,0,0,2,,,,,,,,1,,,70,127
26400,note_on,,96,0,4,,,,,,,,3,,,61,0
26400,note_on,,0,0,4,,,,,,,,3,,,61,127
26400,note_on,,96,0,6,,,,,,,,5,,,65,0
26400,note_on,,96,0,9,,,,,,,,8,,,49,0
26400,note_on,,0,0,12,,,,,,,,12,,,61,45
26400,note_on,,0,0,6,,,,,,,,5,,,67,60
26400,note_on,,96,0,12,,,,,,,,12,,,61,0
26400,note_on,,96,0,2,,,,,,,,1,,,65,0
26400,note_on,,0,0,9,,,,,,,,8,,,49,45
26496,note_on,,0,0,4,,,,,,,,3,,,61,127
26496,note_on,,384,0,5,,,,,,,,4,,,77,60
26496,note_on,,0,0,11,,,,,,,,11,,,77,75
26496,note_on,,192,0,11,,,,,,,,11,,,65,0
26496,note_on,,384,0,1,,,,,,,,0,,,77,127
26496,note_on,,0,0,10,,,,,,,,10,,,77,75
26496,note_on,,192,0,10,,,,,,,,10,,,65,0
26496,note_on,,96,0,4,,,,,,,,3,,,61,0
26496,note_on,,96,0,8,,,,,,,,7,,,61,0
26496,note_on,,0,0,8,,,,,,,,7,,,61,45
26496,note_on,,0,0,12,,,,,,,,12,,,61,45
26496,note_on,,96,0,12,,,,,,,,12,,,61,0
26496,note_on,,96,0,9,,,,,,,,8,,,49,0
26496,note_on,,0,0,9,,,,,,,,8,,,49,45
26592,note_on,,192,0,6,,,,,,,,5,,,67,0
26592,note_on,,0,0,2,,,,,,,,1,,,68,127
26592,note_on,,0,0,12,,,,,,,,12,,,60,45
26592,note_on,,96,0,12,,,,,,,,12,,,61,0
26592,note_on,,288,0,3,,,,,,,,2,,,65,0
26592,note_on,,0,0,8,,,,,,,,7,,,60,45
26592,note_on,,96,0,8,,,,,,,,7,,,61,0
26592,note_on,,0,0,6,,,,,,,,5,,,65,60
26592,note_on,,0,0,3,,,,,,,,2,,,63,127
26592,note_on,,0,0,9,,,,,,,,8,,,48,45
26592,note_on,,288,0,7,,,,,,,,6,,,65,0
26592,note_on,,0,0,7,,,,,,,,6,,,63,45
26592,note_on,,0,0,4,,,,,,,,3,,,60,127
26592,note_on,,96,0,4,,,,,,,,3,,,61,0
26592,note_on,,96,0,9,,,,,,,,8,,,49,0
26592,note_on,,192,0,2,,,,,,,,1,,,70,0
26688,note_on,,96,0,3,,,,,,,,2,,,63,0
26688,note_on,,0,0,3,,,,,,,,2,,,62,127
26688,note_on,,0,0,12,,,,,,,,12,,,59,45
26688,note_on,,96,0,12,,,,,,,,12,,,60,0
26688,note_on,,96,0,7,,,,,,,,6,,,63,0
26688,note_on,,0,0,4,,,,,,,,3,,,59,127
26688,note_on,,96,0,4,,,,,,,,3,,,60,0
26688,note_on,,0,0,7,,,,,,,,6,,,62,45
26688,note_on,,0,0,8,,,,,,,,7,,,59,45
26688,note_on,,0,0,6,,,,,,,,5,,,63,60
26688,note_on,,96,0,8,,,,,,,,7,,,60,0
26688,note_on,,0,0,9,,,,,,,,8,,,47,45
26688,note_on,,96,0,9,,,,,,,,8,,,48,0
26688,note_on,,0,0,2,,,,,,,,1,,,67,127
26688,note_on,,96,0,2,,,,,,,,1,,,68,0
26688,note_on,,96,0,6,,,,,,,,5,,,65,0
26784,note_on,,0,0,12,,,,,,,,12,,,59,45
26784,note_on,,96,0,8,,,,,,,,7,,,59,0
26784,note_on,,0,0,8,,,,,,,,7,,,59,45
26784,note_on,,0,0,3,,,,,,,,2,,,65,127
26784,note_on,,288,0,5,,,,,,,,4,,,77,0
26784,note_on,,0,0,11,,,,,,,,11,,,80,75
26784,note_on,,288,0,11,,,,,,,,11,,,77,0
26784,note_on,,0,0,5,,,,,,,,4,,,80,60
26784,note_on,,0,0,10,,,,,,,,10,,,80,75
26784,note_on,,96,0,12,,,,,,,,12,,,59,0
26784,note_on,,96,0,4,,,,,,,,3,,,59,0
26784,note_on,,0,0,1,,,,,,,,0,,,80,127
26784,note_on,,288,0,1,,,,,,,,0,,,77,0
26784,note_on,,0,0,4,,,,,,,,3,,,59,127
26784,note_on,,0,0,9,,,,,,,,8,,,47,45
26784,note_on,,96,0,9,,,,,,,,8,,,47,0
26784,note_on,,288,0,10,,,,,,,,10,,,77,0
26784,note_on,,0,0,7,,,,,,,,6,,,65,45
26784,note_on,,96,0,3,,,,,,,,2,,,62,0
26784,note_on,,96,0,7,,,,,,,,6,,,62,0
26880,note_on,,96,0,11,,,,,,,,11,,,80,0
26880,note_on,,0,0,5,,,,,,,,4,,,79,60
26880,note_on,,96,0,3,,,,,,,,2,,,65,0
26880,note_on,,0,0,3,,,,,,,,2,,,63,127
26880,note_on,,0,0,10,,,,,,,,10,,,79,75
26880,note_on,,96,0,9,,,,,,,,8,,,47,0
26880,note_on,,0,0,11,,,,,,,,11,,,79,75
26880,note_on,,96,0,10,,,,,,,,10,,,80,0
26880,note_on,,0,0,9,,,,,,,,8,,,47,45
26880,note_on,,96,0,5,,,,,,,,4,,,80,0
26880,note_on,,96,0,8,,,,,,,,7,,,59,0
26880,note_on,,0,0,12,,,,,,,,12,,,59,45
26880,note_on,,96,0,1,,,,,,,,0,,,80,0
26880,note_on,,0,0,1,,,,,,,,0,,,79,127
26880,note_on,,96,0,4,,,,,,,,3,,,59,0
26880,note_on,,0,0,4,,,,,,,,3,,,59,127
26880,note_on,,96,0,7,,,,,,,,6,,,65,0
26880,note_on,,0,0,7,,,,,,,,6,,,63,45
26880,note_on,,192,0,2,,,,,,,,1,,,67,0
26880,note_on,,192,0,6,,,,,,,,5,,,63,0
26880,note_on,,96,0,12,,,,,,,,12,,,59,0
26880,note_on,,0,0,8,,,,,,,,7,,,59,45
26976,note_on,,0,0,8,,,,,,,,7,,,59,45
26976,note_on,,96,0,9,,,,,,,,8,,,47,0
26976,note_on,,96,0,10,,,,,,,,10,,,79,0
26976,note_on,,96,0,4,,,,,,,,3,,,59,0
26976,note_on,,0,0,4,,,,,,,,3,,,59,127
26976,note_on,,0,0,10,,,,,,,,10,,,77,75
26976,note_on,,96,0,8,,,,,,,,7,,,59,0
26976,note_on,,0,0,3,,,,,,,,2,,,62,127
26976,note_on,,0,0,11,,,,,,,,11,,,77,75
26976,note_on,,96,0,7,,,,,,,,6,,,63,0
26976,note_on,,0,0,7,,,,,,,,6,,,62,45
26976,note_on,,96,0,12,,,,,,,,12,,,59,0
26976,note_on,,96,0,3,,,,,,,,2,,,63,0
26976,note_on,,96,0,1,,,,,,,,0,,,79,0
26976,note_on,,0,0,1,,,,,,,,0,,,77,127
26976,note_on,,96,0,11,,,,,,,,11,,,79,0
26976,note_on,,0,0,9,,,,,,,,8,,,47,45
26976,note_on,,0,0,5,,,,,,,,4,,,77,60
26976,note_on,,96,0,5,,,,,,,,4,,,79,0
26976,note_on,,0,0,12,,,,,,,,12,,,59,45
27072,note_on,,0,0,3,,,,,,,,2,,,60,127
27072,note_on,,96,0,10,,,,,,,,10,,,77,0
27072,note_on,,0,0,10,,,,,,,,10,,,75,75
27072,note_on,,96,0,12,,,,,,,,12,,,59,0
27072,note_on,,0,0,12,,,,,,,,12,,,60,45
27072,note_on,,96,0,8,,,,,,,,7,,,59,0
27072,note_on,,0,0,8,,,,,,,,7,,,60,45
27072,note_on,,96,0,3,,,,,,,,2,,,62,0
27072,note_on,,96,0,9,,,,,,,,8,,,47,0
27072,note_on,,192,0,2,,,,,,,,1,,,67,127
27072,note_on,,192,0,6,,,,,,,,5,,,67,60
27072,note_on,,0,0,7,,,,,,,,6,,,60,45
27072,note_on,,96,0,7,,,,,,,,6,,,62,0
27072,note_on,,0,0,4,,,,,,,,3,,,60,127
27072,note_on,,96,0,4,,,,,,,,3,,,59,0
27072,note_on,,0,0,5,,,,,,,,4,,,75,60
27072,note_on,,96,0,5,,,,,,,,4,,,77,0
27072,note_on,,0,0,1,,,,,,,,0,,,75,127
27072,note_on,,0,0,9,,,,,,,,8,,,48,45
27072,note_on,,96,0,1,,,,,,,,0,,,77,0
27072,note_on,,96,0,11,,,,,,,,11,,,77,0
27072,note_on,,0,0,11,,,,,,,,11,,,75,75
27168,note_on,,0,0,3,,,,,,,,2,,,59,127
27168,note_on,,96,0,4,,,,,,,,3,,,60,0
27168,note_on,,0,0,4,,,,,,,,3,,,55,127
27168,note_on,,96,0,7,,,,,,,,6,,,60,0
27168,note_on,,0,0,7,,,,,,,,6,,,59,45
27168,note_on,,96,0,3,,,,,,,,2,,,60,0
27168,note_on,,0,0,11,,,,,,,,11,,,74,75
27168,note_on,,96,0,12,,,,,,,,12,,,60,0
27168,note_on,,96,0,8,,,,,,,,7,,,60,0
27168,note_on,,0,0,8,,,,,,,,7,,,55,45
27168,note_on,,0,0,1,,,,,,,,0,,,74,127
27168,note_on,,96,0,1,,,,,,,,0,,,75,0
27168,note_on,,0,0,12,,,,,,,,12,,,55,45
27168,note_on,,0,0,10,,,,,,,,10,,,74,75
27168,note_on,,96,0,10,,,,,,,,10,,,75,0
27168,note_on,,96,0,11,,,,,,,,11,,,75,0
27168,note_on,,96,0,5,,,,,,,,4,,,75,0
27168,note_on,,0,0,5,,,,,,,,4,,,74,60
27168,note_on,,0,0,9,,,,,,,,8,,,43,45
27168,note_on,,96,0,9,,,,,,,,8,,,48,0
27264,note_on,,0,0,10,,,,,,,,10,,,72,75
27264,note_on,,96,0,12,,,,,,,,12,,,55,0
27264,note_on,,96,0,10,,,,,,,,10,,,74,0
27264,note_on,,96,0,8,,,,,,,,7,,,55,0
27264,note_on,,0,0,8,,,,,,,,7,,,48,45
27264,note_on,,96,0,7,,,,,,,,6,,,59,0
27264,note_on,,0,0,4,,,,,,,,3,,,48,127
27264,note_on,,96,0,4,,,,,,,,3,,,55,0
27264,note_on,,96,0,5,,,,,,,,4,,,74,0
27264,note_on,,0,0,5,,,,,,,,4,,,72,60
27264,note_on,,0,0,7,,,,,,,,6,,,63,45
27264,note_on,,96,0,9,,,,,,,,8,,,43,0
27264,note_on,,96,0,11,,,,,,,,11,,,74,0
27264,note_on,,0,0,12,,,,,,,,12,,,48,45
27264,note_on,,0,0,11,,,,,,,,11,,,72,75
27264,note_on,,96,0,3,,,,,,,,2,,,59,0
27264,note_on,,0,0,3,,,,,,,,2,,,63,127
27264,note_on,,0,0,9,,,,,,,,8,,,36,45
27264,note_on,,0,0,1,,,,,,,,0,,,72,127
27264,note_on,,96,0,1,,,,,,,,0,,,74,0
27360,note_on,,96,0,8,,,,,,,,7,,,48,0
27360,note_on,,0,0,6,,,,,,,,5,,,65,60
27360,note_on,,288,0,6,,,,,,,,5,,,67,0
27360,note_on,,0,0,11,,,,,,,,11,,,71,75
27360,note_on,,96,0,10,,,,,,,,10,,,72,0
27360,note_on,,0,0,12,,,,,,,,12,,,50,45
27360,note_on,,288,0,2,,,,,,,,1,,,67,0
27360,note_on,,96,0,11,,,,,,,,11,,,72,0
27360,note_on,,0,0,7,,,,,,,,6,,,62,45
27360,note_on,,96,0,1,,,,,,,,0,,,72,0
27360,note_on,,0,0,1,,,,,,,,0,,,71,127
27360,note_on,,96,0,12,,,,,,,,12,,,48,0
27360,note_on,,0,0,8,,,,,,,,7,,,50,45
27360,note_on,,0,0,2,,,,,,,,1,,,65,127
27360,note_on,,96,0,7,,,,,,,,6,,,63,0
27360,note_on,,96,0,9,,,,,,,,8,,,36,0
27360,note_on,,0,0,3,,,,,,,,2,,,62,127
27360,note_on,,96,0,3,,,,,,,,2,,,63,0
27360,note_on,,96,0,5,,,,,,,,4,,,72,0
27360,note_on,,0,0,5,,,,,,,,4,,,71,60
27360,note_on,,0,0,9,,,,,,,,8,,,38,45
27360,note_on,,96,0,4,,,,,,,,3,,,48,0
27360,note_on,,0,0,10,,,,,,,,10,,,71,75
27360,note_on,,0,0,4,,,,,,,,3,,,50,127
27456,note_on,,96,0,6,,,,,,,,5,,,65,0
27456,note_on,,0,0,3,,,,,,,,2,,,67,127
27456,note_on,,0,0,8,,,,,,,,7,,,51,45
27456,note_on,,0,0,4,,,,,,,,3,,,51,127
27456,note_on,,96,0,9,,,,,,,,8,,,38,0
27456,note_on,,96,0,8,,,,,,,,7,,,50,0
27456,note_on,,0,0,9,,,,,,,,8,,,39,45
27456,note_on,,0,0,12,,,,,,,,12,,,51,45
27456,note_on,,96,0,2,,,,,,,,1,,,65,0
27456,note_on,,0,0,6,,,,,,,,5,,,63,60
27456,note_on,,96,0,3,,,,,,,,2,,,62,0
27456,note_on,,0,0,10,,,,,,,,10,,,72,75
27456,note_on,,96,0,10,,,,,,,,10,,,71,0
27456,note_on,,96,0,7,,,,,,,,6,,,62,0
27456,note_on,,0,0,1,,,,,,,,0,,,72,127
27456,note_on,,96,0,1,,,,,,,,0,,,71,0
27456,note_on,,96,0,5,,,,,,,,4,,,71,0
27456,note_on,,96,0,12,,,,,,,,12,,,50,0
27456,note_on,,0,0,5,,,,,,,,4,,,72,60
27456,note_on,,0,0,2,,,,,,,,1,,,63,127
27456,note_on,,0,0,7,,,,,,,,6,,,67,45
27456,note_on,,0,0,11,,,,,,,,11,,,72,75
27456,note_on,,96,0,11,,,,,,,,11,,,71,0
27456,note_on,,96,0,4,,,,,,,,3,,,50,0
27552,note_on,,0,0,8,,,,,,,,7,,,51,45
27552,note_on,,96,0,8,,,,,,,,7,,,51,0
27552,note_on,,0,0,9,,,,,,,,8,,,39,45
27552,note_on,,0,0,12,,,,,,,,12,,,51,45
27552,note_on,,96,0,12,,,,,,,,12,,,51,0
27552,note_on,,96,0,9,,,,,,,,8,,,39,0
27648,note_on,,0,0,9,,,,,,,,8,,,39,45
27648,note_on,,96,0,8,,,,,,,,7,,,51,0
27648,note_on,,0,0,8,,,,,,,,7,,,51,45
27648,note_on,,0,0,12,,,,,,,,12,,,51,45
27648,note_on,,96,0,9,,,,,,,,8,,,39,0
27648,note_on,,96,0,12,,,,,,,,12,,,51,0
27744,note_on,,288,0,4,,,,,,,,3,,,51,0
27744,note_on,,0,0,4,,,,,,,,3,,,53,127
27744,note_on,,0,0,10,,,,,,,,10,,,74,75
27744,note_on,,0,0,5,,,,,,,,4,,,74,60
27744,note_on,,288,0,10,,,,,,,,10,,,72,0
27744,note_on,,288,0,6,,,,,,,,5,,,63,0
27744,note_on,,0,0,6,,,,,,,,5,,,68,60
27744,note_on,,0,0,7,,,,,,,,6,,,65,45
27744,note_on,,288,0,7,,,,,,,,6,,,67,0
27744,note_on,,96,0,12,,,,,,,,12,,,51,0
27744,note_on,,288,0,5,,,,,,,,4,,,72,0
27744,note_on,,288,0,2,,,,,,,,1,,,63,0
27744,note_on,,0,0,12,,,,,,,,12,,,53,45
27744,note_on,,0,0,11,,,,,,,,11,,,74,75
27744,note_on,,288,0,11,,,,,,,,11,,,72,0
27744,note_on,,288,0,1,,,,,,,,0,,,72,0
27744,note_on,,0,0,1,,,,,,,,0,,,74,127
27744,note_on,,96,0,8,,,,,,,,7,,,51,0
27744,note_on,,96,0,9,,,,,,,,8,,,39,0
27744,note_on,,0,0,9,,,,,,,,8,,,41,45
27744,note_on,,0,0,8,,,,,,,,7,,,53,45
27744,note_on,,0,0,3,,,,,,,,2,,,65,127
27744,note_on,,288,0,3,,,,,,,,2,,,67,0
27744,note_on,,0,0,2,,,,,,,,1,,,68,127
27792,note_on,,0,0,3,,,,,,,,2,,,63,127
27792,note_on,,48,0,3,,,,,,,,2,,,65,0
27792,note_on,,0,0,7,,,,,,,,6,,,63,45
27792,note_on,,48,0,7,,,,,,,,6,,,65,0
27840,note_on,,0,0,3,,,,,,,,2,,,62,127
27840,note_on,,0,0,12,,,,,,,,12,,,55,45
27840,note_on,,0,0,11,,,,,,,,11,,,71,75
27840,note_on,,0,0,4,,,,,,,,3,,,55,127
27840,note_on,,0,0,9,,,,,,,,8,,,43,45
27840,note_on,,0,0,10,,,,,,,,10,,,71,75
27840,note_on,,96,0,10,,,,,,,,10,,,74,0
27840,note_on,,48,0,3,,,,,,,,2,,,63,0
27840,note_on,,96,0,1,,,,,,,,0,,,74,0
27840,note_on,,0,0,5,,,,,,,,4,,,71,60
27840,note_on,,96,0,5,,,,,,,,4,,,74,0
27840,note_on,,96,0,6,,,,,,,,5,,,68,0
27840,note_on,,0,0,1,,,,,,,,0,,,71,127
27840,note_on,,96,0,4,,,,,,,,3,,,53,0
27840,note_on,,0,0,8,,,,,,,,7,,,55,45
27840,note_on,,96,0,12,,,,,,,,12,,,53,0
27840,note_on,,96,0,2,,,,,,,,1,,,68,0
27840,note_on,,0,0,2,,,,,,,,1,,,67,127
27840,note_on,,0,0,6,,,,,,,,5,,,67,60
27840,note_on,,96,0,8,,,,,,,,7,,,53,0
27840,note_on,,0,0,7,,,,,,,,6,,,62,45
27840,note_on,,48,0,7,,,,,,,,6,,,63,0
27840,note_on,,96,0,11,,,,,,,,11,,,74,0
27840,note_on,,96,0,9,,,,,,,,8,,,41,0
28032,note_on,,192,0,5,,,,,,,,4,,,71,0
28032,note_on,,192,0,3,,,,,,,,2,,,62,0
28032,note_on,,192,0,4,,,,,,,,3,,,55,0
28032,note_on,,192,0,6,,,,,,,,5,,,67,0
28032,note_on,,0,0,5,,,,,,,,4,,,79,60
28032,note_on,,192,0,7,,,,,,,,6,,,62,0
28032,note_on,,0,0,11,,,,,,,,11,,,79,75
28032,note_on,,192,0,11,,,,,,,,11,,,71,0
28032,note_on,,0,0,1,,,,,,,,0,,,79,127
28032,note_on,,192,0,1,,,,,,,,0,,,71,0
28032,note_on,,0,0,10,,,,,,,,10,,,79,75
28032,note_on,,192,0,2,,,,,,,,1,,,67,0
28032,note_on,,192,0,12,,,,,,,,12,,,55,0
28032,note_on,,192,0,10,,,,,,,,10,,,71,0
28032,note_on,,192,0,8,,,,,,,,7,,,55,0
28032,note_on,,192,0,9,,,,,,,,8,,,43,0
28128,note_on,,96,0,3,,,,,,,,2,,,62,127
28128,note_on,,96,0,4,,,,,,,,3,,,59,127
28128,note_on,,96,0,7,,,,,,,,6,,,74,45
28128,note_on,,96,0,9,,,,,,,,8,,,47,45
28128,note_on,,96,0,2,,,,,,,,1,,,65,127
28128,note_on,,96,0,6,,,,,,,,5,,,77,60
28128,note_on,,96,0,12,,,,,,,,12,,,59,45
28128,note_on,,96,0,8,,,,,,,,7,,,59,45
28224,note_on,,0,0,3,,,,,,,,2,,,60,127
28224,note_on,,96,0,3,,,,,,,,2,,,62,0
28224,note_on,,96,0,8,,,,,,,,7,,,59,0
28224,note_on,,96,0,6,,,,,,,,5,,,77,0
28224,note_on,,0,0,8,,,,,,,,7,,,60,45
28224,note_on,,96,0,7,,,,,,,,6,,,74,0
28224,note_on,,96,0,9,,,,,,,,8,,,47,0
28224,note_on,,0,0,9,,,,,,,,8,,,48,45
28224,note_on,,0,0,2,,,,,,,,1,,,63,127
28224,note_on,,0,0,4,,,,,,,,3,,,60,127
28224,note_on,,96,0,4,,,,,,,,3,,,59,0
28224,note_on,,0,0,12,,,,,,,,12,,,60,45
28224,note_on,,0,0,6,,,,,,,,5,,,75,60
28224,note_on,,96,0,12,,,,,,,,12,,,59,0
28224,note_on,,0,0,7,,,,,,,,6,,,72,45
28224,note_on,,96,0,2,,,,,,,,1,,,65,0
28320,note_on,,0,0,2,,,,,,,,1,,,62,127
28320,note_on,,96,0,2,,,,,,,,1,,,63,0
28320,note_on,,96,0,6,,,,,,,,5,,,75,0
28320,note_on,,0,0,6,,,,,,,,5,,,74,60
28320,note_on,,0,0,4,,,,,,,,3,,,55,127
28320,note_on,,96,0,3,,,,,,,,2,,,60,0
28320,note_on,,0,0,3,,,,,,,,2,,,59,127
28320,note_on,,0,0,7,,,,,,,,6,,,71,45
28320,note_on,,96,0,7,,,,,,,,6,,,72,0
28320,note_on,,96,0,12,,,,,,,,12,,,60,0
28320,note_on,,96,0,9,,,,,,,,8,,,48,0
28320,note_on,,0,0,9,,,,,,,,8,,,43,45
28320,note_on,,96,0,4,,,,,,,,3,,,60,0
28320,note_on,,0,0,12,,,,,,,,12,,,55,45
28320,note_on,,96,0,8,,,,,,,,7,,,60,0
28320,note_on,,0,0,8,,,,,,,,7,,,55,45
28416,note_on,,384,0,11,,,,,,,,11,,,79,0
28416,note_on,,0,0,7,,,,,,,,6,,,55,45
28416,note_on,,96,0,7,,,,,,,,6,,,71,0
28416,note_on,,96,0,12,,,,,,,,12,,,55,0
28416,note_on,,96,0,6,,,,,,,,5,,,74,0
28416,note_on,,384,0,5,,,,,,,,4,,,79,0
28416,note_on,,0,0,11,,,,,,,,11,,,67,75
28416,note_on,,384,0,1,,,,,,,,0,,,79,0
28416,note_on,,96,0,4,,,,,,,,3,,,55,0
28416,note_on,,0,0,10,,,,,,,,10,,,67,75
28416,note_on,,0,0,3,,,,,,,,2,,,55,92
28416,note_on,,96,0,3,,,,,,,,2,,,59,0
28416,note_on,,96,0,2,,,,,,,,1,,,62,0
28416,note_on,,384,0,10,,,,,,,,10,,,79,0
28416,note_on,,96,0,8,,,,,,,,7,,,55,0
28416,note_on,,96,0,9,,,,,,,,8,,,43,0
28512,note_on,,96,0,5,,,,,,,,4,,,65,60
28512,note_on,,96,0,4,,,,,,,,3,,,47,92
28512,note_on,,96,0,12,,,,,,,,12,,,47,45
28512,note_on,,96,0,8,,,,,,,,7,,,47,45
28512,note_on,,96,0,2,,,,,,,,1,,,62,92
28512,note_on,,96,0,1,,,,,,,,0,,,77,92
28512,note_on,,96,0,9,,,,,,,,8,,,35,45
28512,note_on,,96,0,6,,,,,,,,5,,,62,60
28608,note_on,,96,0,5,,,,,,,,4,,,65,0
28608,note_on,,0,0,8,,,,,,,,7,,,48,45
28608,note_on,,96,0,8,,,,,,,,7,,,47,0
28608,note_on,,96,0,4,,,,,,,,3,,,47,0
28608,note_on,,96,0,9,,,,,,,,8,,,35,0
28608,note_on,,0,0,9,,,,,,,,8,,,36,45
28608,note_on,,0,0,4,,,,,,,,3,,,48,92
28608,note_on,,96,0,1,,,,,,,,0,,,77,0
28608,note_on,,0,0,1,,,,,,,,0,,,75,92
28608,note_on,,0,0,5,,,,,,,,4,,,63,60
28608,note_on,,96,0,12,,,,,,,,12,,,47,0
28608,note_on,,0,0,12,,,,,,,,12,,,48,45
28608,note_on,,96,0,6,,,,,,,,5,,,62,0
28608,note_on,,0,0,6,,,,,,,,5,,,56,60
28608,note_on,,96,0,2,,,,,,,,1,,,62,0
28608,note_on,,0,0,2,,,,,,,,1,,,60,92
28704,note_on,,0,0,9,,,,,,,,8,,,31,45
28704,note_on,,96,0,6,,,,,,,,5,,,56,0
28704,note_on,,96,0,9,,,,,,,,8,,,36,0
28704,note_on,,96,0,8,,,,,,,,7,,,48,0
28704,note_on,,0,0,8,,,,,,,,7,,,43,45
28704,note_on,,0,0,1,,,,,,,,0,,,74,92
28704,note_on,,96,0,5,,,,,,,,4,,,63,0
28704,note_on,,0,0,5,,,,,,,,4,,,62,60
28704,note_on,,0,0,4,,,,,,,,3,,,43,92
28704,note_on,,96,0,2,,,,,,,,1,,,60,0
28704,note_on,,0,0,2,,,,,,,,1,,,59,92
28704,note_on,,96,0,12,,,,,,,,12,,,48,0
28704,note_on,,0,0,12,,,,,,,,12,,,43,45
28704,note_on,,96,0,1,,,,,,,,0,,,75,0
28704,note_on,,0,0,6,,,,,,,,5,,,55,60
28704,note_on,,96,0,4,,,,,,,,3,,,48,0
28800,note_on,,96,0,4,,,,,,,,3,,,43,0
28800,note_on,,96,0,6,,,,,,,,5,,,55,0
28800,note_on,,96,0,9,,,,,,,,8,,,31,0
28800,note_on,,0,0,2,,,,,,,,1,,,67,127
28800,note_on,,0,0,6,,,,,,,,5,,,67,60
28800,note_on,,384,0,3,,,,,,,,2,,,55,0
28800,note_on,,384,0,10,,,,,,,,10,,,67,0
28800,note_on,,384,0,7,,,,,,,,6,,,55,0
28800,note_on,,96,0,1,,,,,,,,0,,,74,0
28800,note_on,,384,0,11,,,,,,,,11,,,67,0
28800,note_on,,96,0,5,,,,,,,,4,,,62,0
28800,note_on,,96,0,12,,,,,,,,12,,,43,0
28800,note_on,,96,0,8,,,,,,,,7,,,43,0
28800,note_on,,96,0,2,,,,,,,,1,,,59,0
28896,note_on,,96,0,12,,,,,,,,12,,,60,45
28896,note_on,,96,0,10,,,,,,,,10,,,67,75
28896,note_on,,96,0,4,,,,,,,,3,,,60,127
28896,note_on,,96,0,11,,,,,,,,11,,,67,75
28896,note_on,,96,0,7,,,,,,,,6,,,63,45
28896,note_on,,96,0,9,,,,,,,,8,,,48,45
28896,note_on,,96,0,8,,,,,,,,7,,,60,45
28896,note_on,,96,0,3,,,,,,,,2,,,63,127
28992,note_on,,0,0,10,,,,,,,,10,,,72,75
28992,note_on,,96,0,10,,,,,,,,10,,,67,0
28992,note_on,,96,0,11,,,,,,,,11,,,67,0
28992,note_on,,0,0,11,,,,,,,,11,,,72,75
28992,note_on,,0,0,12,,,,,,,,12,,,63,45
28992,note_on,,0,0,4,,,,,,,,3,,,63,127
28992,note_on,,96,0,4,,,,,,,,3,,,60,0
28992,note_on,,96,0,9,,,,,,,,8,,,48,0
28992,note_on,,96,0,3,,,,,,,,2,,,63,0
28992,note_on,,0,0,3,,,,,,,,2,,,67,127
28992,note_on,,0,0,8,,,,,,,,7,,,63,45
28992,note_on,,96,0,8,,,,,,,,7,,,60,0
28992,note_on,,0,0,7,,,,,,,,6,,,67,45
28992,note_on,,96,0,7,,,,,,,,6,,,63,0
28992,note_on,,96,0,12,,,,,,,,12,,,60,0
28992,note_on,,0,0,9,,,,,,,,8,,,51,45
29088,note_on,,96,0,4,,,,,,,,3,,,63,0
29088,note_on,,0,0,11,,,,,,,,11,,,67,75
29088,note_on,,96,0,11,,,,,,,,11,,,72,0
29088,note_on,,0,0,4,,,,,,,,3,,,60,127
29088,note_on,,96,0,3,,,,,,,,2,,,67,0
29088,note_on,,96,0,7,,,,,,,,6,,,67,0
29088,note_on,,0,0,8,,,,,,,,7,,,60,45
29088,note_on,,96,0,8,,,,,,,,7,,,63,0
29088,note_on,,96,0,9,,,,,,,,8,,,51,0
29088,note_on,,0,0,7,,,,,,,,6,,,63,45
29088,note_on,,0,0,3,,,,,,,,2,,,63,127
29088,note_on,,0,0,12,,,,,,,,12,,,60,45
29088,note_on,,96,0,12,,,,,,,,12,,,63,0
29088,note_on,,0,0,10,,,,,,,,10,,,67,75
29088,note_on,,96,0,10,,,,,,,,10,,,72,0
29088,note_on,,0,0,9,,,,,,,,8,,,48,45
29184,note_on,,0,0,4,,,,,,,,3,,,55,127
29184,note_on,,96,0,4,,,,,,,,3,,,60,0
29184,note_on,,96,0,3,,,,,,,,2,,,63,0
29184,note_on,,0,0,3,,,,,,,,2,,,58,127
29184,note_on,,0,0,11,,,,,,,,11,,,63,75
29184,note_on,,96,0,11,,,,,,,,11,,,67,0
29184,note_on,,0,0,10,,,,,,,,10,,,63,75
29184,note_on,,96,0,10,,,,,,,,10,,,67,0
29184,note_on,,96,0,9,,,,,,,,8,,,48,0
29184,note_on,,0,0,8,,,,,,,,7,,,55,45
29184,note_on,,96,0,8,,,,,,,,7,,,60,0
29184,note_on,,0,0,7,,,,,,,,6,,,60,45
29184,note_on,,96,0,7,,,,,,,,6,,,63,0
29184,note_on,,0,0,9,,,,,,,,8,,,43,45
29184,note_on,,0,0,12,,,,,,,,12,,,55,45
29184,note_on,,96,0,12,,,,,,,,12,,,60,0
29280,note_on,,0,0,8,,,,,,,,7,,,51,45
29280,note_on,,96,0,9,,,,,,,,8,,,43,0
29280,note_on,,0,0,4,,,,,,,,3,,,51,127
29280,note_on,,96,0,4,,,,,,,,3,,,55,0
29280,note_on,,0,0,2,,,,,,,,1,,,67,127
29280,note_on,,480,0,2,,,,,,,,1,,,67,0
29280,note_on,,0,0,9,,,,,,,,8,,,39,45
29280,note_on,,96,0,7,,,,,,,,6,,,60,0
29280,note_on,,96,0,3,,,,,,,,2,,,58,0
29280,note_on,,0,0,7,,,,,,,,6,,,55,45
29280,note_on,,0,0,3,,,,,,,,2,,,55,127
29280,note_on,,96,0,12,,,,,,,,12,,,55,0
29280,note_on,,96,0,8,,,,,,,,7,,,55,0
29280,note_on,,0,0,12,,,,,,,,12,,,51,45
29280,note_on,,480,0,1,,,,,,,,0,,,72,127
29280,note_on,,480,0,5,,,,,,,,4,,,72,60
29280,note_on,,0,0,11,,,,,,,,11,,,72,75
29280,note_on,,96,0,11,,,,,,,,11,,,63,0
29280,note_on,,96,0,10,,,,,,,,10,,,63,0
29280,note_on,,0,0,10,,,,,,,,10,,,72,75
29280,note_on,,480,0,6,,,,,,,,5,,,67,0
29280,note_on,,0,0,6,,,,,,,,5,,,67,60
29376,note_on,,96,0,11,,,,,,,,11,,,72,0
29376,note_on,,96,0,3,,,,,,,,2,,,55,0
29376,note_on,,0,0,7,,,,,,,,6,,,55,45
29376,note_on,,0,0,11,,,,,,,,11,,,72,75
29376,note_on,,0,0,8,,,,,,,,7,,,48,45
29376,note_on,,96,0,8,,,,,,,,7,,,51,0
29376,note_on,,96,0,10,,,,,,,,10,,,72,0
29376,note_on,,0,0,5,,,,,,,,4,,,72,60
29376,note_on,,96,0,5,,,,,,,,4,,,72,0
29376,note_on,,0,0,10,,,,,,,,10,,,72,75
29376,note_on,,0,0,3,,,,,,,,2,,,51,127
29376,note_on,,0,0,9,,,,,,,,8,,,36,45
29376,note_on,,96,0,9,,,,,,,,8,,,39,0
29376,note_on,,0,0,12,,,,,,,,12,,,48,45
29376,note_on,,0,0,2,,,,,,,,1,,,72,127
29376,note_on,,96,0,2,,,,,,,,1,,,67,0
29376,note_on,,96,0,6,,,,,,,,5,,,67,0
29376,note_on,,0,0,4,,,,,,,,3,,,48,127
29376,note_on,,0,0,1,,,,,,,,0,,,75,127
29376,note_on,,96,0,7,,,,,,,,6,,,55,0
29376,note_on,,96,0,1,,,,,,,,0,,,72,0
29376,note_on,,96,0,4,,,,,,,,3,,,51,0
29376,note_on,,0,0,6,,,,,,,,5,,,72,60
29376,note_on,,96,0,12,,,,,,,,12,,,51,0
29400,note_on,,0,0,10,,,,,,,,10,,,74,75
29400,note_on,,0,0,11,,,,,,,,11,,,74,75
29400,note_on,,24,0,11,,,,,,,,11,,,72,0
29400,note_on,,24,0,5,,,,,,,,4,,,72,0
29400,note_on,,0,0,5,,,,,,,,4,,,74,60
29400,note_on,,24,0,10,,,,,,,,10,,,72,0
29424,note_on,,0,0,10,,,,,,,,10,,,75,75
29424,note_on,,24,0,10,,,,,,,,10,,,74,0
29424,note_on,,0,0,5,,,,,,,,4,,,75,60
29424,note_on,,0,0,11,,,,,,,,11,,,75,75
29424,note_on,,24,0,11,,,,,,,,11,,,74,0
29424,note_on,,24,0,5,,,,,,,,4,,,74,0
29472,note_on,,96,0,2,,,,,,,,1,,,72,0
29472,note_on,,48,0,5,,,,,,,,4,,,75,0
29472,note_on,,0,0,5,,,,,,,,4,,,72,60
29472,note_on,,0,0,1,,,,,,,,0,,,72,127
29472,note_on,,96,0,1,,,,,,,,0,,,75,0
29472,note_on,,48,0,11,,,,,,,,11,,,75,0
29472,note_on,,0,0,11,,,,,,,,11,,,72,75
29472,note_on,,0,0,10,,,,,,,,10,,,72,75
29472,note_on,,48,0,10,,,,,,,,10,,,75,0
29472,note_on,,96,0,6,,,,,,,,5,,,72,0
29472,note_on,,0,0,6,,,,,,,,5,,,67,60
29472,note_on,,0,0,2,,,,,,,,1,,,67,127
29568,note_on,,96,0,1,,,,,,,,0,,,72,0
29568,note_on,,0,0,1,,,,,,,,0,,,67,127
29568,note_on,,192,0,3,,,,,,,,2,,,51,0
29568,note_on,,96,0,10,,,,,,,,10,,,72,0
29568,note_on,,0,0,2,,,,,,,,1,,,63,127
29568,note_on,,0,0,10,,,,,,,,10,,,67,75
29568,note_on,,96,0,2,,,,,,,,1,,,67,0
29568,note_on,,0,0,6,,,,,,,,5,,,63,60
29568,note_on,,96,0,6,,,,,,,,5,,,67,0
29568,note_on,,96,0,5,,,,,,,,4,,,72,0
29568,note_on,,0,0,5,,,,,,,,4,,,67,60
29568,note_on,,0,0,11,,,,,,,,11,,,67,75
29568,note_on,,96,0,11,,,,,,,,11,,,72,0
29664,note_on,,96,0,2,,,,,,,,1,,,63,0
29664,note_on,,0,0,9,,,,,,,,8,,,36,45
29664,note_on,,0,0,11,,,,,,,,11,,,63,75
29664,note_on,,96,0,11,,,,,,,,11,,,67,0
29664,note_on,,288,0,4,,,,,,,,3,,,48,0
29664,note_on,,96,0,6,,,,,,,,5,,,63,0
29664,note_on,,0,0,4,,,,,,,,3,,,48,127
29664,note_on,,96,0,5,,,,,,,,4,,,67,0
29664,note_on,,0,0,10,,,,,,,,10,,,63,75
29664,note_on,,96,0,10,,,,,,,,10,,,67,0
29664,note_on,,96,0,1,,,,,,,,0,,,67,0
29664,note_on,,0,0,1,,,,,,,,0,,,63,127
29664,note_on,,0,0,5,,,,,,,,4,,,63,60
29664,note_on,,0,0,6,,,,,,,,5,,,60,60
29664,note_on,,288,0,9,,,,,,,,8,,,36,0
29664,note_on,,0,0,7,,,,,,,,6,,,63,45
29664,note_on,,288,0,8,,,,,,,,7,,,48,0
29664,note_on,,0,0,2,,,,,,,,1,,,60,127
29664,note_on,,0,0,8,,,,,,,,7,,,48,45
29664,note_on,,96,0,3,,,,,,,,2,,,63,127
29664,note_on,,0,0,12,,,,,,,,12,,,48,45
29664,note_on,,288,0,7,,,,,,,,6,,,55,0
29664,note_on,,288,0,12,,,,,,,,12,,,48,0
29760,note_on,,0,0,12,,,,,,,,12,,,51,45
29760,note_on,,0,0,4,,,,,,,,3,,,51,127
29760,note_on,,96,0,12,,,,,,,,12,,,48,0
29760,note_on,,96,0,8,,,,,,,,7,,,48,0
29760,note_on,,96,0,5,,,,,,,,4,,,63,0
29760,note_on,,0,0,5,,,,,,,,4,,,60,60
29760,note_on,,0,0,2,,,,,,,,1,,,60,127
29760,note_on,,96,0,2,,,,,,,,1,,,60,0
29760,note_on,,96,0,1,,,,,,,,0,,,63,0
29760,note_on,,0,0,1,,,,,,,,0,,,60,127
29760,note_on,,0,0,10,,,,,,,,10,,,72,75
29760,note_on,,96,0,10,,,,,,,,10,,,63,0
29760,note_on,,96,0,4,,,,,,,,3,,,48,0
29760,note_on,,0,0,7,,,,,,,,6,,,67,45
29760,note_on,,0,0,8,,,,,,,,7,,,51,45
29760,note_on,,96,0,6,,,,,,,,5,,,60,0
29760,note_on,,96,0,3,,,,,,,,2,,,63,0
29760,note_on,,0,0,9,,,,,,,,8,,,39,45
29760,note_on,,96,0,9,,,,,,,,8,,,36,0
29760,note_on,,96,0,7,,,,,,,,6,,,63,0
29760,note_on,,0,0,3,,,,,,,,2,,,67,127
29760,note_on,,0,0,6,,,,,,,,5,,,60,60
29760,note_on,,96,0,11,,,,,,,,11,,,63,0
29760,note_on,,0,0,11,,,,,,,,11,,,72,75
29856,note_on,,96,0,4,,,,,,,,3,,,51,0
29856,note_on,,96,0,7,,,,,,,,6,,,67,0
29856,note_on,,96,0,8,,,,,,,,7,,,51,0
29856,note_on,,0,0,8,,,,,,,,7,,,48,45
29856,note_on,,0,0,9,,,,,,,,8,,,36,45
29856,note_on,,96,0,9,,,,,,,,8,,,39,0
29856,note_on,,0,0,7,,,,,,,,6,,,63,45
29856,note_on,,0,0,12,,,,,,,,12,,,48,45
29856,note_on,,96,0,10,,,,,,,,10,,,72,0
29856,note_on,,0,0,10,,,,,,,,10,,,67,75
29856,note_on,,96,0,12,,,,,,,,12,,,51,0
29856,note_on,,0,0,4,,,,,,,,3,,,48,127
29856,note_on,,96,0,11,,,,,,,,11,,,72,0
29856,note_on,,96,0,3,,,,,,,,2,,,67,0
29856,note_on,,0,0,3,,,,,,,,2,,,63,127
29856,note_on,,0,0,11,,,,,,,,11,,,67,75
29952,note_on,,0,0,11,,,,,,,,11,,,63,75
29952,note_on,,96,0,11,,,,,,,,11,,,67,0
29952,note_on,,192,0,2,,,,,,,,1,,,60,0
29952,note_on,,192,0,1,,,,,,,,0,,,60,0
29952,note_on,,0,0,3,,,,,,,,2,,,58,127
29952,note_on,,96,0,3,,,,,,,,2,,,63,0
29952,note_on,,96,0,8,,,,,,,,7,,,48,0
29952,note_on,,0,0,8,,,,,,,,7,,,43,45
29952,note_on,,0,0,7,,,,,,,,6,,,60,45
29952,note_on,,96,0,7,,,,,,,,6,,,63,0
29952,note_on,,96,0,9,,,,,,,,8,,,36,0
29952,note_on,,96,0,12,,,,,,,,12,,,48,0
29952,note_on,,0,0,12,,,,,,,,12,,,43,45
29952,note_on,,96,0,4,,,,,,,,3,,,48,0
29952,note_on,,0,0,4,,,,,,,,3,,,43,127
29952,note_on,,96,0,10,,,,,,,,10,,,67,0
29952,note_on,,0,0,10,,,,,,,,10,,,63,75
29952,note_on,,0,0,9,,,,,,,,8,,,31,45
30048,note_on,,288,0,6,,,,,,,,5,,,60,0
30048,note_on,,0,0,5,,,,,,,,4,,,72,60
30048,note_on,,288,0,5,,,,,,,,4,,,60,0
30048,note_on,,96,0,7,,,,,,,,6,,,60,0
30048,note_on,,0,0,7,,,,,,,,6,,,55,45
30048,note_on,,96,0,12,,,,,,,,12,,,43,0
30048,note_on,,0,0,12,,,,,,,,12,,,38,45
30048,note_on,,0,0,6,,,,,,,,5,,,72,60
30048,note_on,,96,0,2,,,,,,,,1,,,67,127
30048,note_on,,0,0,8,,,,,,,,7,,,38,45
30048,note_on,,0,0,9,,,,,,,,8,,,26,45
30048,note_on,,96,0,4,,,,,,,,3,,,43,0
30048,note_on,,96,0,11,,,,,,,,11,,,63,0
30048,note_on,,0,0,11,,,,,,,,11,,,72,75
30048,note_on,,96,0,8,,,,,,,,7,,,43,0
30048,note_on,,96,0,1,,,,,,,,0,,,72,127
30048,note_on,,96,0,10,,,,,,,,10,,,63,0
30048,note_on,,0,0,10,,,,,,,,10,,,72,75
30048,note_on,,96,0,3,,,,,,,,2,,,58,0
30048,note_on,,0,0,3,,,,,,,,2,,,55,127
30048,note_on,,0,0,4,,,,,,,,3,,,39,127
30048,note_on,,96,0,9,,,,,,,,8,,,31,0
30144,note_on,,0,0,5,,,,,,,,4,,,75,60
30144,note_on,,96,0,5,,,,,,,,4,,,72,0
30144,note_on,,0,0,6,,,,,,,,5,,,72,60
30144,note_on,,96,0,6,,,,,,,,5,,,72,0
30144,note_on,,0,0,7,,,,,,,,6,,,55,45
30144,note_on,,0,0,8,,,,,,,,7,,,36,45
30144,note_on,,96,0,8,,,,,,,,7,,,38,0
30144,note_on,,0,0,1,,,,,,,,0,,,75,127
30144,note_on,,96,0,1,,,,,,,,0,,,72,0
30144,note_on,,96,0,7,,,,,,,,6,,,55,0
30144,note_on,,0,0,11,,,,,,,,11,,,75,75
30144,note_on,,0,0,3,,,,,,,,2,,,51,127
30144,note_on,,0,0,4,,,,,,,,3,,,36,127
30144,note_on,,0,0,12,,,,,,,,12,,,36,45
30144,note_on,,0,0,9,,,,,,,,8,,,24,45
30144,note_on,,96,0,9,,,,,,,,8,,,26,0
30144,note_on,,96,0,3,,,,,,,,2,,,55,0
30144,note_on,,96,0,11,,,,,,,,11,,,72,0
30144,note_on,,96,0,12,,,,,,,,12,,,38,0
30144,note_on,,96,0,4,,,,,,,,3,,,39,0
30144,note_on,,96,0,10,,,,,,,,10,,,72,0
30144,note_on,,0,0,10,,,,,,,,10,,,75,75
30144,note_on,,96,0,2,,,,,,,,1,,,67,0
30144,note_on,,0,0,2,,,,,,,,1,,,72,127
30240,note_on,,96,0,11,,,,,,,,11,,,75,0
30240,note_on,,0,0,1,,,,,,,,0,,,72,127
30240,note_on,,96,0,10,,,,,,,,10,,,75,0
30240,note_on,,0,0,11,,,,,,,,11,,,72,75
30240,note_on,,96,0,1,,,,,,,,0,,,75,0
30240,note_on,,96,0,2,,,,,,,,1,,,72,0
30240,note_on,,96,0,5,,,,,,,,4,,,75,0
30240,note_on,,0,0,5,,,,,,,,4,,,72,60
30240,note_on,,0,0,6,,,,,,,,5,,,67,60
30240,note_on,,96,0,6,,,,,,,,5,,,72,0
30240,note_on,,0,0,2,,,,,,,,1,,,67,127
30240,note_on,,0,0,10,,,,,,,,10,,,72,75
30336,note_on,,96,0,1,,,,,,,,0,,,72,0
30336,note_on,,0,0,1,,,,,,,,0,,,79,127
30336,note_on,,192,0,7,,,,,,,,6,,,55,0
30336,note_on,,192,0,12,,,,,,,,12,,,36,0
30336,note_on,,0,0,11,,,,,,,,11,,,79,75
30336,note_on,,96,0,11,,,,,,,,11,,,72,0
30336,note_on,,192,0,4,,,,,,,,3,,,36,0
30336,note_on,,0,0,5,,,,,,,,4,,,79,60
30336,note_on,,0,0,6,,,,,,,,5,,,63,60
30336,note_on,,96,0,6,,,,,,,,5,,,67,0
30336,note_on,,96,0,5,,,,,,,,4,,,72,0
30336,note_on,,192,0,3,,,,,,,,2,,,51,0
30336,note_on,,0,0,10,,,,,,,,10,,,79,75
30336,note_on,,192,0,8,,,,,,,,7,,,36,0
30336,note_on,,96,0,10,,,,,,,,10,,,72,0
30336,note_on,,0,0,2,,,,,,,,1,,,63,127
30336,note_on,,96,0,2,,,,,,,,1,,,67,0
30336,note_on,,192,0,9,,,,,,,,8,,,24,0
30432,note_on,,96,0,5,,,,,,,,4,,,79,0
30432,note_on,,0,0,5,,,,,,,,4,,,75,60
30432,note_on,,0,0,10,,,,,,,,10,,,75,75
30432,note_on,,96,0,10,,,,,,,,10,,,79,0
30432,note_on,,96,0,11,,,,,,,,11,,,79,0
30432,note_on,,0,0,11,,,,,,,,11,,,75,75
30432,note_on,,96,0,2,,,,,,,,1,,,63,0
30432,note_on,,0,0,6,,,,,,,,5,,,60,60
30432,note_on,,0,0,1,,,,,,,,0,,,75,127
30432,note_on,,96,0,1,,,,,,,,0,,,79,0
30432,note_on,,96,0,6,,,,,,,,5,,,63,0
30432,note_on,,0,0,2,,,,,,,,1,,,60,127
30528,note_on,,192,0,12,,,,,,,,12,,,58,45
30528,note_on,,0,0,6,,,,,,,,5,,,79,60
30528,note_on,,96,0,6,,,,,,,,5,,,60,0
30528,note_on,,0,0,5,,,,,,,,4,,,72,60
30528,note_on,,96,0,5,,,,,,,,4,,,75,0
30528,note_on,,96,0,2,,,,,,,,1,,,60,0
30528,note_on,,192,0,9,,,,,,,,8,,,46,45
30528,note_on,,192,0,3,,,,,,,,2,,,64,127
30528,note_on,,96,0,10,,,,,,,,10,,,75,0
30528,note_on,,0,0,11,,,,,,,,11,,,72,75
30528,note_on,,96,0,1,,,,,,,,0,,,75,0
30528,note_on,,0,0,1,,,,,,,,0,,,72,127
30528,note_on,,192,0,4,,,,,,,,3,,,58,127
30528,note_on,,96,0,11,,,,,,,,11,,,75,0
30528,note_on,,192,0,7,,,,,,,,6,,,64,45
30528,note_on,,192,0,8,,,,,,,,7,,,58,45
30528,note_on,,0,0,2,,,,,,,,1,,,67,127
30528,note_on,,0,0,10,,,,,,,,10,,,72,75
30624,note_on,,96,0,8,,,,,,,,7,,,58,0
30624,note_on,,96,0,11,,,,,,,,11,,,72,0
30624,note_on,,0,0,11,,,,,,,,11,,,76,75
30624,note_on,,96,0,6,,,,,,,,5,,,79,0
30624,note_on,,0,0,6,,,,,,,,5,,,76,60
30624,note_on,,0,0,4,,,,,,,,3,,,58,127
30624,note_on,,96,0,4,,,,,,,,3,,,58,0
30624,note_on,,0,0,8,,,,,,,,7,,,58,45
30624,note_on,,96,0,9,,,,,,,,8,,,46,0
30624,note_on,,0,0,10,,,,,,,,10,,,76,75
30624,note_on,,0,0,7,,,,,,,,6,,,67,45
30624,note_on,,96,0,7,,,,,,,,6,,,64,0
30624,note_on,,96,0,12,,,,,,,,12,,,58,0
30624,note_on,,0,0,12,,,,,,,,12,,,58,45
30624,note_on,,96,0,10,,,,,,,,10,,,72,0
30624,note_on,,0,0,9,,,,,,,,8,,,46,45
30720,note_on,,0,0,11,,,,,,,,11,,,79,75
30720,note_on,,96,0,11,,,,,,,,11,,,76,0
30720,note_on,,96,0,4,,,,,,,,3,,,58,0
30720,note_on,,96,0,12,,,,,,,,12,,,58,0
30720,note_on,,0,0,4,,,,,,,,3,,,58,127
30720,note_on,,0,0,12,,,,,,,,12,,,58,45
30720,note_on,,96,0,10,,,,,,,,10,,,76,0
30720,note_on,,0,0,10,,,,,,,,10,,,79,75
30720,note_on,,0,0,9,,,,,,,,8,,,46,45
30720,note_on,,96,0,9,,,,,,,,8,,,46,0
30720,note_on,,96,0,6,,,,,,,,5,,,76,0
30720,note_on,,0,0,6,,,,,,,,5,,,72,60
30720,note_on,,0,0,8,,,,,,,,7,,,58,45
30720,note_on,,96,0,8,,,,,,,,7,,,58,0
30720,note_on,,96,0,7,,,,,,,,6,,,67,0
30720,note_on,,0,0,7,,,,,,,,6,,,64,45
30816,note_on,,96,0,4,,,,,,,,3,,,58,0
30816,note_on,,96,0,8,,,,,,,,7,,,58,0
30816,note_on,,96,0,11,,,,,,,,11,,,79,0
30816,note_on,,0,0,4,,,,,,,,3,,,58,127
30816,note_on,,288,0,5,,,,,,,,4,,,72,0
30816,note_on,,0,0,5,,,,,,,,4,,,79,60
30816,note_on,,0,0,11,,,,,,,,11,,,76,75
30816,note_on,,0,0,9,,,,,,,,8,,,46,45
30816,note_on,,0,0,12,,,,,,,,12,,,58,45
30816,note_on,,96,0,12,,,,,,,,12,,,58,0
30816,note_on,,0,0,8,,,,,,,,7,,,58,45
30816,note_on,,96,0,10,,,,,,,,10,,,79,0
30816,note_on,,96,0,6,,,,,,,,5,,,72,0
30816,note_on,,0,0,10,,,,,,,,10,,,76,75
30816,note_on,,0,0,6,,,,,,,,5,,,67,60
30816,note_on,,96,0,9,,,,,,,,8,,,46,0
30816,note_on,,96,0,7,,,,,,,,6,,,64,0
30816,note_on,,0,0,7,,,,,,,,6,,,64,45
30912,note_on,,0,0,8,,,,,,,,7,,,56,45
30912,note_on,,384,0,2,,,,,,,,1,,,67,0
30912,note_on,,96,0,6,,,,,,,,5,,,67,0
30912,note_on,,384,0,1,,,,,,,,0,,,72,0
30912,note_on,,0,0,6,,,,,,,,5,,,65,60
30912,note_on,,96,0,7,,,,,,,,6,,,64,0
30912,note_on,,96,0,5,,,,,,,,4,,,79,0
30912,note_on,,0,0,5,,,,,,,,4,,,84,60
30912,note_on,,0,0,11,,,,,,,,11,,,72,75
30912,note_on,,0,0,7,,,,,,,,6,,,65,45
30912,note_on,,0,0,9,,,,,,,,8,,,44,45
30912,note_on,,96,0,9,,,,,,,,8,,,46,0
30912,note_on,,0,0,10,,,,,,,,10,,,72,75
30912,note_on,,96,0,4,,,,,,,,3,,,58,0
30912,note_on,,0,0,4,,,,,,,,3,,,56,127
30912,note_on,,96,0,8,,,,,,,,7,,,58,0
30912,note_on,,96,0,10,,,,,,,,10,,,76,0
30912,note_on,,0,0,12,,,,,,,,12,,,56,45
30912,note_on,,96,0,12,,,,,,,,12,,,58,0
30912,note_on,,96,0,11,,,,,,,,11,,,76,0
30912,note_on,,384,0,3,,,,,,,,2,,,64,0
31008,note_on,,96,0,7,,,,,,,,6,,,65,0
31008,note_on,,0,0,8,,,,,,,,7,,,56,45
31008,note_on,,0,0,4,,,,,,,,3,,,56,127
31008,note_on,,0,0,7,,,,,,,,6,,,60,45
31008,note_on,,0,0,9,,,,,,,,8,,,44,45
31008,note_on,,96,0,4,,,,,,,,3,,,56,0
31008,note_on,,0,0,12,,,,,,,,12,,,56,45
31008,note_on,,96,0,12,,,,,,,,12,,,56,0
31008,note_on,,96,0,5,,,,,,,,4,,,84,0
31008,note_on,,0,0,5,,,,,,,,4,,,80,60
31008,note_on,,0,0,6,,,,,,,,5,,,65,60
31008,note_on,,96,0,6,,,,,,,,5,,,65,0
31008,note_on,,96,0,8,,,,,,,,7,,,56,0
31008,note_on,,96,0,9,,,,,,,,8,,,44,0
31104,note_on,,192,0,2,,,,,,,,1,,,65,127
31104,note_on,,96,0,7,,,,,,,,6,,,60,0
31104,note_on,,0,0,7,,,,,,,,6,,,68,45
31104,note_on,,192,0,3,,,,,,,,2,,,60,127
31104,note_on,,192,0,1,,,,,,,,0,,,72,127
31104,note_on,,0,0,4,,,,,,,,3,,,56,127
31104,note_on,,96,0,8,,,,,,,,7,,,56,0
31104,note_on,,0,0,10,,,,,,,,10,,,77,75
31104,note_on,,0,0,8,,,,,,,,7,,,56,45
31104,note_on,,0,0,9,,,,,,,,8,,,44,45
31104,note_on,,96,0,9,,,,,,,,8,,,44,0
31104,note_on,,0,0,12,,,,,,,,12,,,56,45
31104,note_on,,96,0,12,,,,,,,,12,,,56,0
31104,note_on,,96,0,5,,,,,,,,4,,,80,0
31104,note_on,,0,0,5,,,,,,,,4,,,77,60
31104,note_on,,0,0,6,,,,,,,,5,,,65,60
31104,note_on,,96,0,6,,,,,,,,5,,,65,0
31104,note_on,,96,0,4,,,,,,,,3,,,56,0
31104,note_on,,192,0,10,,,,,,,,10,,,72,0
31200,note_on,,0,0,12,,,,,,,,12,,,56,45
31200,note_on,,96,0,12,,,,,,,,12,,,56,0
31200,note_on,,96,0,8,,,,,,,,7,,,56,0
31200,note_on,,0,0,6,,,,,,,,5,,,65,60
31200,note_on,,96,0,9,,,,,,,,8,,,44,0
31200,note_on,,0,0,9,,,,,,,,8,,,44,45
31200,note_on,,0,0,7,,,,,,,,6,,,65,45
31200,note_on,,96,0,7,,,,,,,,6,,,68,0
31200,note_on,,96,0,5,,,,,,,,4,,,77,0
31200,note_on,,0,0,5,,,,,,,,4,,,72,60
31200,note_on,,96,0,4,,,,,,,,3,,,56,0
31200,note_on,,0,0,4,,,,,,,,3,,,56,127
31200,note_on,,96,0,6,,,,,,,,5,,,65,0
31200,note_on,,288,0,11,,,,,,,,11,,,72,0
31200,note_on,,0,0,8,,,,,,,,7,,,56,45
31200,note_on,,0,0,11,,,,,,,,11,,,72,75
31296,note_on,,96,0,12,,,,,,,,12,,,56,0
31296,note_on,,0,0,9,,,,,,,,8,,,43,45
31296,note_on,,0,0,12,,,,,,,,12,,,55,45
31296,note_on,,192,0,10,,,,,,,,10,,,77,0
31296,note_on,,0,0,10,,,,,,,,10,,,77,75
31296,note_on,,96,0,9,,,,,,,,8,,,44,0
31296,note_on,,192,0,2,,,,,,,,1,,,65,0
31296,note_on,,0,0,8,,,,,,,,7,,,55,45
31296,note_on,,96,0,6,,,,,,,,5,,,65,0
31296,note_on,,0,0,6,,,,,,,,5,,,65,60
31296,note_on,,96,0,8,,,,,,,,7,,,56,0
31296,note_on,,192,0,3,,,,,,,,2,,,60,0
31296,note_on,,0,0,3,,,,,,,,2,,,62,127
31296,note_on,,0,0,5,,,,,,,,4,,,71,60
31296,note_on,,96,0,5,,,,,,,,4,,,72,0
31296,note_on,,96,0,7,,,,,,,,6,,,65,0
31296,note_on,,0,0,7,,,,,,,,6,,,62,45
31296,note_on,,0,0,2,,,,,,,,1,,,67,127
31296,note_on,,96,0,4,,,,,,,,3,,,56,0
31296,note_on,,0,0,1,,,,,,,,0,,,71,127
31296,note_on,,192,0,1,,,,,,,,0,,,72,0
31296,note_on,,0,0,4,,,,,,,,3,,,55,127
31296,note_on,,96,0,11,,,,,,,,11,,,72,0
31296,note_on,,0,0,11,,,,,,,,11,,,71,75
31392,note_on,,0,0,1,,,,,,,,0,,,72,127
31392,note_on,,0,0,9,,,,,,,,8,,,36,45
31392,note_on,,96,0,9,,,,,,,,8,,,43,0
31392,note_on,,96,0,2,,,,,,,,1,,,67,0
31392,note_on,,0,0,2,,,,,,,,1,,,67,127
31392,note_on,,96,0,6,,,,,,,,5,,,65,0
31392,note_on,,0,0,6,,,,,,,,5,,,63,60
31392,note_on,,0,0,7,,,,,,,,6,,,67,45
31392,note_on,,0,0,8,,,,,,,,7,,,48,45
31392,note_on,,96,0,8,,,,,,,,7,,,55,0
31392,note_on,,96,0,7,,,,,,,,6,,,62,0
31392,note_on,,96,0,12,,,,,,,,12,,,55,0
31392,note_on,,96,0,11,,,,,,,,11,,,71,0
31392,note_on,,0,0,11,,,,,,,,11,,,72,75
31392,note_on,,96,0,3,,,,,,,,2,,,62,0
31392,note_on,,0,0,3,,,,,,,,2,,,63,127
31392,note_on,,0,0,5,,,,,,,,4,,,72,60
31392,note_on,,96,0,5,,,,,,,,4,,,71,0
31392,note_on,,96,0,1,,,,,,,,0,,,71,0
31392,note_on,,0,0,12,,,,,,,,12,,,48,45
31392,note_on,,96,0,4,,,,,,,,3,,,55,0
31392,note_on,,0,0,10,,,,,,,,10,,,75,75
31392,note_on,,0,0,4,,,,,,,,3,,,48,127
31392,note_on,,96,0,10,,,,,,,,10,,,77,0
31488,note_on,,96,0,4,,,,,,,,3,,,48,0
31488,note_on,,96,0,8,,,,,,,,7,,,48,0
31488,note_on,,96,0,10,,,,,,,,10,,,75,0
31488,end_of_track,,0,1,10,,,,,,,,,,,,
31488,note_on,,96,0,7,,,,,,,,6,,,67,0
31488,end_of_track,,0,1,11,,,,,,,,,,,,
31488,note_on,,96,0,11,,,,,,,,11,,,72,0
31488,note_on,,96,0,1,,,,,,,,0,,,72,0
31488,note_on,,96,0,2,,,,,,,,1,,,67,0
31488,note_on,,96,0,9,,,,,,,,8,,,36,0
31488,note_on,,96,0,5,,,,,,,,4,,,72,0
31488,note_on,,96,0,12,,,,,,,,12,,,48,0
31488,note_on,,96,0,3,,,,,,,,2,,,63,0
31488,note_on,,96,0,6,,,,,,,,5,,,63,0
31872,note_on,,384,0,4,,,,,,,,3,,,55,92
31872,note_on,,384,0,2,,,,,,,,1,,,67,92
31872,set_tempo,1666666,31680,1,0,,,,,,,,,,,,
31872,note_on,,384,0,1,,,,,,,,0,,,72,92
31872,note_on,,384,0,3,,,,,,,,2,,,63,92
31968,note_on,,96,0,3,,,,,,,,2,,,63,0
31968,note_on,,0,0,3,,,,,,,,2,,,62,92
31968,note_on,,96,0,2,,,,,,,,1,,,67,0
31968,note_on,,0,0,2,,,,,,,,1,,,65,92
31968,note_on,,96,0,1,,,,,,,,0,,,72,0
31968,note_on,,0,0,1,,,,,,,,0,,,71,92
31968,note_on,,96,0,4,,,,,,,,3,,,55,0
31968,note_on,,0,0,4,,,,,,,,3,,,55,92
32016,note_on,,0,0,2,,,,,,,,1,,,63,92
32016,note_on,,0,0,3,,,,,,,,2,,,60,92
32016,note_on,,48,0,2,,,,,,,,1,,,65,0
32016,note_on,,48,0,3,,,,,,,,2,,,62,0
32064,note_on,,96,0,4,,,,,,,,3,,,55,0
32064,note_on,,48,0,3,,,,,,,,2,,,60,0
32064,note_on,,0,0,1,,,,,,,,0,,,72,92
32064,note_on,,96,0,1,,,,,,,,0,,,71,0
32064,note_on,,0,0,3,,,,,,,,2,,,60,92
32064,note_on,,0,0,4,,,,,,,,3,,,48,92
32064,note_on,,0,0,2,,,,,,,,1,,,63,92
32064,note_on,,48,0,2,,,,,,,,1,,,63,0
32256,note_on,,192,0,1,,,,,,,,0,,,72,0
32256,note_on,,192,0,3,,,,,,,,2,,,60,0
32256,note_on,,192,0,2,,,,,,,,1,,,63,0
32256,note_on,,192,0,4,,,,,,,,3,,,48,0
32352,note_on,,864,0,12,,,,,,,,12,,,43,45
32352,note_on,,864,0,6,,,,,,,,5,,,55,60
32352,note_on,,864,0,9,,,,,,,,8,,,31,45
32352,note_on,,864,0,8,,,,,,,,7,,,43,45
32352,note_on,,864,0,7,,,,,,,,6,,,55,45
32352,note_on,,864,0,5,,,,,,,,4,,,55,60
32448,note_on,,0,0,6,,,,,,,,5,,,60,60
32448,note_on,,96,0,6,,,,,,,,5,,,55,0
32448,note_on,,0,0,12,,,,,,,,12,,,48,45
32448,note_on,,96,0,12,,,,,,,,12,,,43,0
32448,note_on,,0,0,7,,,,,,,,6,,,60,45
32448,note_on,,0,0,5,,,,,,,,4,,,60,60
32448,note_on,,96,0,5,,,,,,,,4,,,55,0
32448,note_on,,96,0,9,,,,,,,,8,,,31,0
32448,note_on,,0,0,9,,,,,,,,8,,,36,45
32448,note_on,,96,0,7,,,,,,,,6,,,55,0
32448,note_on,,96,0,8,,,,,,,,7,,,43,0
32448,note_on,,0,0,8,,,,,,,,7,,,48,45
32544,note_on,,0,0,12,,,,,,,,12,,,48,45
32544,note_on,,96,0,12,,,,,,,,12,,,48,0
32544,note_on,,0,0,6,,,,,,,,5,,,60,60
32544,note_on,,96,0,6,,,,,,,,5,,,60,0
32544,note_on,,0,0,7,,,,,,,,6,,,60,45
32544,note_on,,96,0,8,,,,,,,,7,,,48,0
32544,note_on,,0,0,8,,,,,,,,7,,,48,45
32544,note_on,,96,0,9,,,,,,,,8,,,36,0
32544,note_on,,0,0,9,,,,,,,,8,,,36,45
32544,note_on,,0,0,5,,,,,,,,4,,,60,60
32544,note_on,,96,0,5,,,,,,,,4,,,60,0
32544,note_on,,96,0,7,,,,,,,,6,,,60,0
32640,note_on,,96,0,8,,,,,,,,7,,,48,0
32640,note_on,,0,0,8,,,,,,,,7,,,48,45
32640,note_on,,96,0,5,,,,,,,,4,,,60,0
32640,note_on,,0,0,5,,,,,,,,4,,,60,60
32640,note_on,,0,0,12,,,,,,,,12,,,48,45
32640,note_on,,0,0,6,,,,,,,,5,,,60,60
32640,note_on,,96,0,6,,,,,,,,5,,,60,0
32640,note_on,,96,0,12,,,,,,,,12,,,48,0
32640,note_on,,96,0,9,,,,,,,,8,,,36,0
32640,note_on,,0,0,9,,,,,,,,8,,,36,45
32640,note_on,,96,0,7,,,,,,,,6,,,60,0
32640,note_on,,0,0,7,,,,,,,,6,,,60,45
32736,note_on,,96,0,6,,,,,,,,5,,,60,0
32736,note_on,,0,0,12,,,,,,,,12,,,48,45
32736,note_on,,96,0,5,,,,,,,,4,,,60,0
32736,note_on,,0,0,5,,,,,,,,4,,,60,60
32736,note_on,,0,0,8,,,,,,,,7,,,48,45
32736,note_on,,96,0,8,,,,,,,,7,,,48,0
32736,note_on,,0,0,7,,,,,,,,6,,,60,45
32736,note_on,,96,0,12,,,,,,,,12,,,48,0
32736,note_on,,0,0,6,,,,,,,,5,,,60,60
32736,note_on,,96,0,7,,,,,,,,6,,,60,0
32736,note_on,,0,0,9,,,,,,,,8,,,36,45
32736,note_on,,96,0,9,,,,,,,,8,,,36,0
32832,note_on,,0,0,7,,,,,,,,6,,,60,45
32832,note_on,,96,0,8,,,,,,,,7,,,48,0
32832,note_on,,576,0,3,,,,,,,,2,,,55,92
32832,note_on,,96,0,7,,,,,,,,6,,,60,0
32832,note_on,,0,0,8,,,,,,,,7,,,48,45
32832,note_on,,0,0,6,,,,,,,,5,,,60,60
32832,note_on,,0,0,5,,,,,,,,4,,,60,60
32832,note_on,,0,0,12,,,,,,,,12,,,48,45
32832,note_on,,576,0,1,,,,,,,,0,,,63,92
32832,note_on,,96,0,9,,,,,,,,8,,,36,0
32832,note_on,,96,0,12,,,,,,,,12,,,48,0
32832,note_on,,0,0,9,,,,,,,,8,,,36,45
32832,note_on,,96,0,5,,,,,,,,4,,,60,0
32832,note_on,,576,0,2,,,,,,,,1,,,60,92
32832,note_on,,576,0,4,,,,,,,,3,,,48,92
32832,note_on,,96,0,6,,,,,,,,5,,,60,0
33120,note_on,,0,0,6,,,,,,,,5,,,72,60
33120,note_on,,288,0,6,,,,,,,,5,,,60,0
33120,note_on,,288,0,9,,,,,,,,8,,,36,0
33120,note_on,,288,0,7,,,,,,,,6,,,60,0
33120,note_on,,0,0,7,,,,,,,,6,,,60,45
33120,note_on,,288,0,5,,,,,,,,4,,,60,0
33120,note_on,,288,0,8,,,,,,,,7,,,48,0
33120,note_on,,0,0,8,,,,,,,,7,,,60,45
33120,note_on,,0,0,12,,,,,,,,12,,,60,45
33120,note_on,,288,0,12,,,,,,,,12,,,48,0
33120,note_on,,0,0,5,,,,,,,,4,,,72,60
33120,note_on,,0,0,9,,,,,,,,8,,,48,45
33216,note_on,,0,0,5,,,,,,,,4,,,72,60
33216,note_on,,384,0,1,,,,,,,,0,,,63,0
33216,note_on,,0,0,12,,,,,,,,12,,,60,45
33216,note_on,,96,0,12,,,,,,,,12,,,60,0
33216,note_on,,384,0,3,,,,,,,,2,,,55,0
33216,note_on,,384,0,4,,,,,,,,3,,,48,0
33216,note_on,,96,0,6,,,,,,,,5,,,72,0
33216,note_on,,96,0,9,,,,,,,,8,,,48,0
33216,note_on,,0,0,9,,,,,,,,8,,,48,45
33216,note_on,,96,0,5,,,,,,,,4,,,72,0
33216,note_on,,96,0,7,,,,,,,,6,,,60,0
33216,note_on,,96,0,8,,,,,,,,7,,,60,0
33216,note_on,,0,0,8,,,,,,,,7,,,60,45
33216,note_on,,0,0,7,,,,,,,,6,,,60,45
33216,note_on,,0,0,6,,,,,,,,5,,,72,60
33216,note_on,,384,0,2,,,,,,,,1,,,60,0
33240,note_on,,24,0,9,,,,,,,,8,,,48,0
33240,note_on,,0,0,9,,,,,,,,8,,,50,45
33240,note_on,,24,0,7,,,,,,,,6,,,60,0
33240,note_on,,0,0,7,,,,,,,,6,,,62,45
33240,note_on,,0,0,5,,,,,,,,4,,,74,60
33240,note_on,,24,0,5,,,,,,,,4,,,72,0
33240,note_on,,24,0,12,,,,,,,,12,,,60,0
33240,note_on,,0,0,12,,,,,,,,12,,,62,45
33240,note_on,,24,0,6,,,,,,,,5,,,72,0
33240,note_on,,0,0,8,,,,,,,,7,,,62,45
33240,note_on,,24,0,8,,,,,,,,7,,,60,0
33240,note_on,,0,0,6,,,,,,,,5,,,74,60
33264,note_on,,24,0,5,,,,,,,,4,,,74,0
33264,note_on,,0,0,7,,,,,,,,6,,,63,45
33264,note_on,,24,0,7,,,,,,,,6,,,62,0
33264,note_on,,24,0,8,,,,,,,,7,,,62,0
33264,note_on,,0,0,9,,,,,,,,8,,,51,45
33264,note_on,,0,0,5,,,,,,,,4,,,75,60
33264,note_on,,0,0,6,,,,,,,,5,,,75,60
33264,note_on,,24,0,6,,,,,,,,5,,,74,0
33264,note_on,,24,0,9,,,,,,,,8,,,50,0
33264,note_on,,0,0,12,,,,,,,,12,,,63,45
33264,note_on,,24,0,12,,,,,,,,12,,,62,0
33264,note_on,,0,0,8,,,,,,,,7,,,63,45
33312,note_on,,0,0,12,,,,,,,,12,,,60,45
33312,note_on,,0,0,7,,,,,,,,6,,,60,45
33312,note_on,,48,0,7,,,,,,,,6,,,63,0
33312,note_on,,48,0,8,,,,,,,,7,,,63,0
33312,note_on,,48,0,5,,,,,,,,4,,,75,0
33312,note_on,,48,0,12,,,,,,,,12,,,63,0
33312,note_on,,48,0,6,,,,,,,,5,,,75,0
33312,note_on,,0,0,8,,,,,,,,7,,,60,45
33312,note_on,,0,0,5,,,,,,,,4,,,72,60
33312,note_on,,0,0,9,,,,,,,,8,,,48,45
33312,note_on,,48,0,9,,,,,,,,8,,,51,0
33312,note_on,,0,0,6,,,,,,,,5,,,72,60
33408,note_on,,0,0,6,,,,,,,,5,,,67,60
33408,note_on,,0,0,5,,,,,,,,4,,,67,60
33408,note_on,,96,0,12,,,,,,,,12,,,60,0
33408,note_on,,0,0,12,,,,,,,,12,,,55,45
33408,note_on,,96,0,5,,,,,,,,4,,,72,0
33408,note_on,,96,0,7,,,,,,,,6,,,60,0
33408,note_on,,96,0,6,,,,,,,,5,,,72,0
33408,note_on,,0,0,7,,,,,,,,6,,,67,45
33408,note_on,,96,0,8,,,,,,,,7,,,60,0
33408,note_on,,0,0,8,,,,,,,,7,,,55,45
33408,note_on,,96,0,9,,,,,,,,8,,,48,0
33408,note_on,,0,0,9,,,,,,,,8,,,43,45
33504,note_on,,96,0,9,,,,,,,,8,,,43,0
33504,note_on,,288,0,3,,,,,,,,2,,,60,75
33504,note_on,,96,0,8,,,,,,,,7,,,55,0
33504,note_on,,0,0,8,,,,,,,,7,,,51,45
33504,note_on,,0,0,6,,,,,,,,5,,,63,60
33504,note_on,,96,0,6,,,,,,,,5,,,67,0
33504,note_on,,288,0,2,,,,,,,,1,,,63,75
33504,note_on,,0,0,5,,,,,,,,4,,,63,60
33504,note_on,,0,0,9,,,,,,,,8,,,39,45
33504,note_on,,96,0,5,,,,,,,,4,,,67,0
33504,set_tempo,1764705,1632,1,0,,,,,,,,,,,,
33504,note_on,,288,0,4,,,,,,,,3,,,48,75
33504,note_on,,288,0,1,,,,,,,,0,,,67,75
33504,note_on,,96,0,12,,,,,,,,12,,,55,0
33504,note_on,,0,0,7,,,,,,,,6,,,63,45
33504,note_on,,0,0,12,,,,,,,,12,,,51,45
33504,note_on,,96,0,7,,,,,,,,6,,,67,0
33600,note_on,,96,0,1,,,,,,,,0,,,67,0
33600,note_on,,96,0,8,,,,,,,,7,,,51,0
33600,note_on,,0,0,8,,,,,,,,7,,,48,45
33600,note_on,,0,0,6,,,,,,,,5,,,60,60
33600,note_on,,96,0,6,,,,,,,,5,,,63,0
33600,note_on,,0,0,9,,,,,,,,8,,,36,45
33600,note_on,,96,0,9,,,,,,,,8,,,39,0
33600,note_on,,0,0,2,,,,,,,,1,,,67,75
33600,note_on,,96,0,2,,,,,,,,1,,,63,0
33600,note_on,,0,0,12,,,,,,,,12,,,48,45
33600,note_on,,0,0,4,,,,,,,,3,,,51,75
33600,note_on,,96,0,12,,,,,,,,12,,,51,0
33600,note_on,,96,0,3,,,,,,,,2,,,60,0
33600,note_on,,96,0,5,,,,,,,,4,,,63,0
33600,note_on,,0,0,5,,,,,,,,4,,,60,60
33600,note_on,,0,0,1,,,,,,,,0,,,72,75
33600,note_on,,0,0,3,,,,,,,,2,,,60,75
33600,note_on,,96,0,4,,,,,,,,3,,,48,0
33600,note_on,,0,0,7,,,,,,,,6,,,60,45
33600,note_on,,96,0,7,,,,,,,,6,,,63,0
33696,note_on,,0,0,2,,,,,,,,1,,,63,75
33696,note_on,,0,0,3,,,,,,,,2,,,60,75
33696,note_on,,96,0,3,,,,,,,,2,,,60,0
33696,note_on,,96,0,1,,,,,,,,0,,,72,0
33696,note_on,,0,0,1,,,,,,,,0,,,67,75
33696,note_on,,0,0,4,,,,,,,,3,,,48,75
33696,note_on,,96,0,2,,,,,,,,1,,,67,0
33696,note_on,,96,0,4,,,,,,,,3,,,51,0
33792,note_on,,0,0,2,,,,,,,,1,,,60,75
33792,note_on,,0,0,4,,,,,,,,3,,,48,75
33792,note_on,,96,0,4,,,,,,,,3,,,48,0
33792,note_on,,0,0,3,,,,,,,,2,,,55,75
33792,note_on,,96,0,2,,,,,,,,1,,,63,0
33792,note_on,,96,0,1,,,,,,,,0,,,67,0
33792,note_on,,96,0,3,,,,,,,,2,,,60,0
33792,note_on,,0,0,1,,,,,,,,0,,,63,75
33888,note_on,,0,0,7,,,,,,,,6,,,60,45
33888,note_on,,96,0,2,,,,,,,,1,,,60,0
33888,note_on,,0,0,2,,,,,,,,1,,,55,75
33888,note_on,,288,0,5,,,,,,,,4,,,60,0
33888,note_on,,0,0,5,,,,,,,,4,,,72,60
33888,note_on,,96,0,4,,,,,,,,3,,,48,0
33888,note_on,,0,0,4,,,,,,,,3,,,48,75
33888,note_on,,288,0,9,,,,,,,,8,,,36,0
33888,note_on,,0,0,9,,,,,,,,8,,,36,45
33888,note_on,,288,0,12,,,,,,,,12,,,48,0
33888,note_on,,0,0,12,,,,,,,,12,,,48,45
33888,note_on,,288,0,6,,,,,,,,5,,,60,0
33888,note_on,,0,0,1,,,,,,,,0,,,62,75
33888,note_on,,96,0,1,,,,,,,,0,,,63,0
33888,note_on,,96,0,3,,,,,,,,2,,,55,0
33888,note_on,,0,0,6,,,,,,,,5,,,72,60
33888,note_on,,288,0,7,,,,,,,,6,,,60,0
33888,note_on,,0,0,8,,,,,,,,7,,,48,45
33888,note_on,,288,0,8,,,,,,,,7,,,48,0
33888,note_on,,0,0,3,,,,,,,,2,,,55,75
33936,note_on,,0,0,1,,,,,,,,0,,,60,75
33936,note_on,,48,0,1,,,,,,,,0,,,62,0
33984,note_on,,0,0,1,,,,,,,,0,,,60,75
33984,note_on,,0,0,12,,,,,,,,12,,,48,45
33984,note_on,,96,0,5,,,,,,,,4,,,72,0
33984,note_on,,0,0,5,,,,,,,,4,,,72,60
33984,note_on,,0,0,8,,,,,,,,7,,,48,45
33984,note_on,,96,0,8,,,,,,,,7,,,48,0
33984,note_on,,96,0,12,,,,,,,,12,,,48,0
33984,note_on,,48,0,1,,,,,,,,0,,,60,0
33984,set_tempo,1875000,480,1,0,,,,,,,,,,,,
33984,note_on,,96,0,2,,,,,,,,1,,,55,0
33984,note_on,,0,0,2,,,,,,,,1,,,55,75
33984,note_on,,0,0,4,,,,,,,,3,,,48,75
33984,note_on,,0,0,9,,,,,,,,8,,,36,45
33984,note_on,,0,0,7,,,,,,,,6,,,60,45
33984,note_on,,96,0,9,,,,,,,,8,,,36,0
33984,note_on,,96,0,7,,,,,,,,6,,,60,0
33984,note_on,,96,0,3,,,,,,,,2,,,55,0
33984,note_on,,96,0,6,,,,,,,,5,,,72,0
33984,note_on,,0,0,6,,,,,,,,5,,,72,60
33984,note_on,,96,0,4,,,,,,,,3,,,48,0
33984,note_on,,0,0,3,,,,,,,,2,,,51,75
34008,note_on,,24,0,5,,,,,,,,4,,,72,0
34008,note_on,,0,0,5,,,,,,,,4,,,74,60
34008,note_on,,0,0,6,,,,,,,,5,,,74,60
34008,note_on,,24,0,6,,,,,,,,5,,,72,0
34008,note_on,,24,0,7,,,,,,,,6,,,60,0
34008,note_on,,0,0,7,,,,,,,,6,,,62,45
34032,note_on,,24,0,6,,,,,,,,5,,,74,0
34032,note_on,,0,0,6,,,,,,,,5,,,75,60
34032,note_on,,24,0,7,,,,,,,,6,,,62,0
34032,note_on,,0,0,7,,,,,,,,6,,,63,45
34032,note_on,,0,0,5,,,,,,,,4,,,75,60
34032,note_on,,24,0,5,,,,,,,,4,,,74,0
34080,note_on,,48,0,7,,,,,,,,6,,,63,0
34080,note_on,,96,0,12,,,,,,,,12,,,48,0
34080,note_on,,96,0,8,,,,,,,,7,,,48,0
34080,note_on,,0,0,12,,,,,,,,12,,,48,45
34080,note_on,,96,0,9,,,,,,,,8,,,36,0
34080,note_on,,48,0,5,,,,,,,,4,,,75,0
34080,note_on,,0,0,5,,,,,,,,4,,,72,60
34080,note_on,,0,0,8,,,,,,,,7,,,48,45
34080,note_on,,48,0,6,,,,,,,,5,,,75,0
34080,note_on,,0,0,6,,,,,,,,5,,,72,60
34080,note_on,,0,0,7,,,,,,,,6,,,60,45
34080,note_on,,0,0,9,,,,,,,,8,,,36,45
34176,note_on,,96,0,7,,,,,,,,6,,,60,0
34176,note_on,,0,0,7,,,,,,,,6,,,67,45
34176,note_on,,96,0,5,,,,,,,,4,,,72,0
34176,note_on,,0,0,5,,,,,,,,4,,,67,60
34176,end_of_track,,0,1,4,,,,,,,,,,,,
34176,note_on,,0,0,9,,,,,,,,8,,,39,45
34176,note_on,,0,0,6,,,,,,,,5,,,67,60
34176,note_on,,96,0,6,,,,,,,,5,,,72,0
34176,note_on,,192,0,2,,,,,,,,1,,,55,0
34176,end_of_track,,0,1,2,,,,,,,,,,,,
34176,note_on,,192,0,4,,,,,,,,3,,,48,0
34176,note_on,,96,0,12,,,,,,,,12,,,48,0
34176,note_on,,0,0,12,,,,,,,,12,,,51,45
34176,note_on,,192,0,3,,,,,,,,2,,,51,0
34176,note_on,,96,0,9,,,,,,,,8,,,36,0
34176,end_of_track,,0,1,1,,,,,,,,,,,,
34176,note_on,,192,0,1,,,,,,,,0,,,60,0
34176,end_of_track,,0,1,3,,,,,,,,,,,,
34176,note_on,,0,0,8,,,,,,,,7,,,51,45
34176,note_on,,96,0,8,,,,,,,,7,,,48,0
34272,note_on,,0,0,12,,,,,,,,12,,,48,45
34272,note_on,,0,0,9,,,,,,,,8,,,36,45
34272,note_on,,96,0,9,,,,,,,,8,,,39,0
34272,note_on,,96,0,12,,,,,,,,12,,,51,0
34272,note_on,,0,0,6,,,,,,,,5,,,63,60
34272,note_on,,96,0,6,,,,,,,,5,,,67,0
34272,note_on,,0,0,7,,,,,,,,6,,,63,45
34272,note_on,,0,0,5,,,,,,,,4,,,63,60
34272,note_on,,96,0,8,,,,,,,,7,,,51,0
34272,note_on,,0,0,8,,,,,,,,7,,,48,45
34272,note_on,,96,0,7,,,,,,,,6,,,67,0
34272,note_on,,96,0,5,,,,,,,,4,,,67,0
34368,note_on,,96,0,5,,,,,,,,4,,,63,0
34368,note_on,,0,0,7,,,,,,,,6,,,60,45
34368,note_on,,96,0,12,,,,,,,,12,,,48,0
34368,note_on,,0,0,12,,,,,,,,12,,,44,45
34368,note_on,,0,0,9,,,,,,,,8,,,32,45
34368,note_on,,0,0,5,,,,,,,,4,,,60,60
34368,note_on,,96,0,7,,,,,,,,6,,,63,0
34368,note_on,,0,0,8,,,,,,,,7,,,44,45
34368,set_tempo,2500000,384,1,0,,,,,,,,,,,,
34368,note_on,,96,0,8,,,,,,,,7,,,48,0
34368,note_on,,0,0,6,,,,,,,,5,,,60,60
34368,note_on,,96,0,6,,,,,,,,5,,,63,0
34368,note_on,,96,0,9,,,,,,,,8,,,36,0
34656,note_on,,288,0,9,,,,,,,,8,,,32,0
34656,note_on,,288,0,6,,,,,,,,5,,,60,0
34656,note_on,,288,0,5,,,,,,,,4,,,60,0
34656,note_on,,0,0,6,,,,,,,,5,,,60,60
34656,note_on,,288,0,12,,,,,,,,12,,,44,0
34656,note_on,,0,0,12,,,,,,,,12,,,41,45
34656,note_on,,0,0,8,,,,,,,,7,,,41,45
34656,note_on,,288,0,8,,,,,,,,7,,,44,0
34656,note_on,,0,0,9,,,,,,,,8,,,29,45
34656,note_on,,0,0,7,,,,,,,,6,,,60,45
34656,note_on,,0,0,5,,,,,,,,4,,,68,60
34656,note_on,,288,0,7,,,,,,,,6,,,60,0
34752,note_on,,0,0,6,,,,,,,,5,,,59,60
34752,note_on,,96,0,6,,,,,,,,5,,,60,0
34752,note_on,,96,0,12,,,,,,,,12,,,41,0
34752,note_on,,0,0,12,,,,,,,,12,,,38,45
34752,note_on,,0,0,8,,,,,,,,7,,,38,45
34752,note_on,,0,0,9,,,,,,,,8,,,26,45
34752,note_on,,96,0,8,,,,,,,,7,,,41,0
34752,note_on,,0,0,5,,,,,,,,4,,,65,60
34752,note_on,,96,0,5,,,,,,,,4,,,68,0
34752,note_on,,0,0,7,,,,,,,,6,,,62,45
34752,note_on,,96,0,7,,,,,,,,6,,,60,0
34752,note_on,,96,0,9,,,,,,,,8,,,29,0
34848,note_on,,0,0,5,,,,,,,,4,,,63,60
34848,note_on,,96,0,6,,,,,,,,5,,,59,0
34848,note_on,,96,0,5,,,,,,,,4,,,65,0
34848,note_on,,96,0,8,,,,,,,,7,,,38,0
34848,note_on,,0,0,8,,,,,,,,7,,,36,45
34848,note_on,,0,0,12,,,,,,,,12,,,36,45
34848,note_on,,0,0,6,,,,,,,,5,,,60,60
34848,note_on,,96,0,12,,,,,,,,12,,,38,0
34848,note_on,,96,0,7,,,,,,,,6,,,62,0
34848,note_on,,0,0,7,,,,,,,,6,,,55,45
34848,note_on,,0,0,9,,,,,,,,8,,,24,45
34848,note_on,,96,0,9,,,,,,,,8,,,26,0
34896,note_on,,48,0,5,,,,,,,,4,,,63,0
34896,note_on,,0,0,5,,,,,,,,4,,,62,60
34944,note_on,,96,0,8,,,,,,,,7,,,36,0
34944,note_on,,0,0,9,,,,,,,,8,,,31,45
34944,note_on,,96,0,9,,,,,,,,8,,,24,0
34944,note_on,,0,0,5,,,,,,,,4,,,62,60
34944,note_on,,48,0,5,,,,,,,,4,,,62,0
34944,set_tempo,3000000,576,1,0,,,,,,,,,,,,
34944,note_on,,0,0,6,,,,,,,,5,,,60,60
34944,note_on,,96,0,7,,,,,,,,6,,,55,0
34944,note_on,,0,0,7,,,,,,,,6,,,55,45
34944,note_on,,0,0,12,,,,,,,,12,,,43,45
34944,note_on,,96,0,12,,,,,,,,12,,,36,0
34944,note_on,,0,0,8,,,,,,,,7,,,43,45
34944,note_on,,96,0,6,,,,,,,,5,,,60,0
35040,note_on,,0,0,7,,,,,,,,6,,,55,45
35040,note_on,,96,0,7,,,,,,,,6,,,55,0
35040,note_on,,96,0,6,,,,,,,,5,,,60,0
35040,note_on,,0,0,6,,,,,,,,5,,,59,60
35040,note_on,,0,0,9,,,,,,,,8,,,31,45
35040,note_on,,0,0,8,,,,,,,,7,,,43,45
35040,note_on,,96,0,8,,,,,,,,7,,,43,0
35040,note_on,,96,0,9,,,,,,,,8,,,31,0
35040,note_on,,96,0,12,,,,,,,,12,,,43,0
35040,note_on,,0,0,12,,,,,,,,12,,,43,45
35088,note_on,,0,0,5,,,,,,,,4,,,60,60
35088,note_on,,144,0,5,,,,,,,,4,,,62,0
35136,set_tempo,1875000,192,1,0,,,,,,,,,,,,
35136,note_on,,0,0,6,,,,,,,,5,,,60,60
35136,note_on,,96,0,9,,,,,,,,8,,,31,0
35136,note_on,,0,0,9,,,,,,,,8,,,24,45
35136,note_on,,96,0,6,,,,,,,,5,,,59,0
35136,end_of_track,,0,1,0,,,,,,,,,,,,
35136,note_on,,0,0,7,,,,,,,,6,,,55,45
35136,note_on,,0,0,8,,,,,,,,7,,,36,45
35136,note_on,,96,0,12,,,,,,,,12,,,43,0
35136,note_on,,96,0,8,,,,,,,,7,,,43,0
35136,note_on,,48,0,5,,,,,,,,4,,,60,0
35136,note_on,,0,0,5,,,,,,,,4,,,60,60
35136,note_on,,0,0,12,,,,,,,,12,,,36,45
35136,note_on,,96,0,7,,,,,,,,6,,,55,0
35520,note_on,,384,0,6,,,,,,,,5,,,60,0
35520,end_of_track,,0,1,6,,,,,,,,,,,,
35520,end_of_track,,0,1,9,,,,,,,,,,,,
35520,end_of_track,,0,1,7,,,,,,,,,,,,
35520,note_on,,384,0,8,,,,,,,,7,,,36,0
35520,note_on,,384,0,7,,,,,,,,6,,,55,0
35520,note_on,,384,0,5,,,,,,,,4,,,60,0
35520,end_of_track,,0,1,5,,,,,,,,,,,,
35520,end_of_track,,0,1,8,,,,,,,,,,,,
35520,end_of_track,,0,1,12,,,,,,,,,,,,
35520,note_on,,384,0,9,,,,,,,,8,,,24,0
35520,note_on,,384,0,12,,,,,,,,12,,,36,0
