tick,type,tempo,time,meta,track,key,numerator,denominator,clocks_per_click,notated_32nd_notes_per_beat,port,program,channel,control,value,note,velocity
0,set_tempo,1000000,0,1,0,,,,,,,,,,,,
0,program_change,,0,0,6,,,,,,,48,11,,,,
0,control_change,,0,0,6,,,,,,,,11,7,127,,
0,control_change,,0,0,6,,,,,,,,11,10,104,,
0,key_signature,,0,1,6,Eb,,,,,,,,,,,
0,time_signature,,0,1,6,,1,4,24,8,,,,,,,
0,track_name,,0,1,6,,,,,,,,,,,,
0,midi_port,,0,1,7,,,,,,0,,,,,,
0,program_change,,0,0,7,,,,,,,41,12,,,,
0,control_change,,0,0,7,,,,,,,,12,7,127,,
0,control_change,,0,0,7,,,,,,,,12,10,104,,
0,key_signature,,0,1,7,Eb,,,,,,,,,,,
0,time_signature,,0,1,7,,1,4,24,8,,,,,,,
0,track_name,,0,1,7,,,,,,,,,,,,
0,track_name,,0,1,18,,,,,,,,,,,,
0,midi_port,,0,1,8,,,,,,0,,,,,,
0,program_change,,0,0,8,,,,,,,42,13,,,,
0,control_change,,0,0,8,,,,,,,,13,7,127,,
0,control_change,,0,0,8,,,,,,,,13,10,24,,
0,key_signature,,0,1,8,Eb,,,,,,,,,,,
0,time_signature,,0,1,8,,1,4,24,8,,,,,,,
0,note_on,,0,0,8,,,,,,,,13,,,60,92
0,track_name,,0,1,8,,,,,,,,,,,,
0,midi_port,,0,1,9,,,,,,0,,,,,,
0,midi_port,,0,1,6,,,,,,0,,,,,,
0,program_change,,0,0,9,,,,,,,43,14,,,,
0,track_name,,0,1,5,,,,,,,,,,,,
0,key_signature,,0,1,5,Eb,,,,,,,,,,,
0,control_change,,0,0,2,,,,,,,,1,7,127,,
0,control_change,,0,0,2,,,,,,,,1,10,104,,
0,key_signature,,0,1,2,Eb,,,,,,,,,,,
0,time_signature,,0,1,2,,1,4,24,8,,,,,,,
0,track_name,,0,1,2,,,,,,,,,,,,
0,midi_port,,0,1,3,,,,,,0,,,,,,
0,program_change,,0,0,3,,,,,,,52,2,,,,
0,control_change,,0,0,3,,,,,,,,2,7,127,,
0,control_change,,0,0,3,,,,,,,,2,10,24,,
0,key_signature,,0,1,3,Eb,,,,,,,,,,,
0,time_signature,,0,1,3,,1,4,24,8,,,,,,,
0,track_name,,0,1,3,,,,,,,,,,,,
0,midi_port,,0,1,4,,,,,,0,,,,,,
0,program_change,,0,0,4,,,,,,,52,3,,,,
0,control_change,,0,0,4,,,,,,,,3,7,127,,
0,control_change,,0,0,4,,,,,,,,3,10,104,,
0,key_signature,,0,1,4,Eb,,,,,,,,,,,
0,time_signature,,0,1,4,,1,4,24,8,,,,,,,
0,track_name,,0,1,4,,,,,,,,,,,,
0,midi_port,,0,1,5,,,,,,0,,,,,,
0,program_change,,0,0,5,,,,,,,48,10,,,,
0,control_change,,0,0,5,,,,,,,,10,7,127,,
0,control_change,,0,0,5,,,,,,,,10,10,24,,
0,time_signature,,0,1,5,,1,4,24,8,,,,,,,
0,control_change,,0,0,9,,,,,,,,14,7,127,,
0,control_change,,0,0,9,,,,,,,,14,10,64,,
0,key_signature,,0,1,9,Eb,,,,,,,,,,,
0,midi_port,,0,1,14,,,,,,0,,,,,,
0,control_change,,0,0,14,,,,,,,,9,7,127,,
0,control_change,,0,0,14,,,,,,,,9,10,64,,
0,track_name,,0,1,14,,,,,,,,,,,,
0,end_of_track,,0,1,14,,,,,,,,,,,,
0,midi_port,,0,1,15,,,,,,0,,,,,,
0,control_change,,0,0,15,,,,,,,,9,7,127,,
0,control_change,,0,0,15,,,,,,,,9,10,64,,
0,track_name,,0,1,15,,,,,,,,,,,,
0,end_of_track,,0,1,15,,,,,,,,,,,,
0,midi_port,,0,1,16,,,,,,0,,,,,,
0,control_change,,0,0,16,,,,,,,,9,7,127,,
0,control_change,,0,0,16,,,,,,,,9,10,64,,
0,track_name,,0,1,16,,,,,,,,,,,,
0,end_of_track,,0,1,16,,,,,,,,,,,,
0,midi_port,,0,1,17,,,,,,0,,,,,,
0,control_change,,0,0,17,,,,,,,,9,7,127,,
0,control_change,,0,0,17,,,,,,,,9,10,64,,
0,track_name,,0,1,17,,,,,,,,,,,,
0,end_of_track,,0,1,17,,,,,,,,,,,,
0,midi_port,,0,1,18,,,,,,0,,,,,,
0,control_change,,0,0,18,,,,,,,,9,7,127,,
0,control_change,,0,0,18,,,,,,,,9,10,64,,
0,end_of_track,,0,1,13,,,,,,,,,,,,
0,track_name,,0,1,13,,,,,,,,,,,,
0,control_change,,0,0,13,,,,,,,,9,10,64,,
0,control_change,,0,0,13,,,,,,,,9,7,127,,
0,time_signature,,0,1,9,,1,4,24,8,,,,,,,
0,track_name,,0,1,9,,,,,,,,,,,,
0,midi_port,,0,1,10,,,,,,0,,,,,,
0,program_change,,0,0,10,,,,,,,68,5,,,,
0,control_change,,0,0,10,,,,,,,,5,7,127,,
0,control_change,,0,0,10,,,,,,,,5,10,24,,
0,key_signature,,0,1,10,Eb,,,,,,,,,,,
0,time_signature,,0,1,10,,1,4,24,8,,,,,,,
0,track_name,,0,1,10,,,,,,,,,,,,
0,midi_port,,0,1,11,,,,,,0,,,,,,
0,program_change,,0,0,11,,,,,,,68,7,,,,
0,program_change,,0,0,2,,,,,,,52,1,,,,
0,control_change,,0,0,11,,,,,,,,7,7,127,,
0,key_signature,,0,1,11,Eb,,,,,,,,,,,
0,time_signature,,0,1,11,,1,4,24,8,,,,,,,
0,track_name,,0,1,11,,,,,,,,,,,,
0,midi_port,,0,1,12,,,,,,0,,,,,,
0,program_change,,0,0,12,,,,,,,70,8,,,,
0,control_change,,0,0,12,,,,,,,,8,7,127,,
0,control_change,,0,0,12,,,,,,,,8,10,104,,
0,key_signature,,0,1,12,Eb,,,,,,,,,,,
0,time_signature,,0,1,12,,1,4,24,8,,,,,,,
0,track_name,,0,1,12,,,,,,,,,,,,
0,midi_port,,0,1,13,,,,,,0,,,,,,
0,control_change,,0,0,11,,,,,,,,7,10,104,,
0,midi_port,,0,1,2,,,,,,0,,,,,,
0,end_of_track,,0,1,18,,,,,,,,,,,,
0,control_change,,0,0,1,,,,,,,,0,7,127,,
0,copyright,,0,1,0,,,,,,,,,,,,
0,text,,0,1,0,,,,,,,,,,,,
0,text,,0,1,0,,,,,,,,,,,,
0,track_name,,0,1,0,,,,,,,,,,,,
0,time_signature,,0,1,0,,1,4,24,8,,,,,,,
0,track_name,,0,1,1,,,,,,,,,,,,
0,time_signature,,0,1,1,,1,4,24,8,,,,,,,
0,key_signature,,0,1,1,Eb,,,,,,,,,,,
0,control_change,,0,0,1,,,,,,,,0,10,24,,
0,copyright,,0,1,0,,,,,,,,,,,,
0,program_change,,0,0,1,,,,,,,52,0,,,,
0,midi_port,,0,1,1,,,,,,0,,,,,,
0,key_signature,,0,1,0,Eb,,,,,,,,,,,
192,time_signature,,192,1,7,,3,4,24,8,,,,,,,
192,time_signature,,192,1,2,,3,4,24,8,,,,,,,
192,time_signature,,192,1,4,,3,4,24,8,,,,,,,
192,time_signature,,192,1,5,,3,4,24,8,,,,,,,
192,time_signature,,192,1,3,,3,4,24,8,,,,,,,
192,time_signature,,192,1,1,,3,4,24,8,,,,,,,
192,time_signature,,192,1,6,,3,4,24,8,,,,,,,
192,note_on,,192,0,8,,,,,,,,13,,,60,0
192,time_signature,,192,1,10,,3,4,24,8,,,,,,,
192,time_signature,,192,1,9,,3,4,24,8,,,,,,,
192,time_signature,,192,1,12,,3,4,24,8,,,,,,,
192,note_on,,0,0,8,,,,,,,,13,,,63,92
192,time_signature,,0,1,8,,3,4,24,8,,,,,,,
192,time_signature,,192,1,0,,3,4,24,8,,,,,,,
192,time_signature,,192,1,11,,3,4,24,8,,,,,,,
480,note_on,,0,0,8,,,,,,,,13,,,62,92
480,note_on,,288,0,8,,,,,,,,13,,,63,0
576,note_on,,0,0,8,,,,,,,,13,,,60,92
576,note_on,,96,0,8,,,,,,,,13,,,62,0
768,note_on,,0,0,8,,,,,,,,13,,,63,92
768,note_on,,192,0,8,,,,,,,,13,,,60,0
1056,note_on,,0,0,8,,,,,,,,13,,,62,92
1056,note_on,,288,0,8,,,,,,,,13,,,63,0
1152,note_on,,96,0,8,,,,,,,,13,,,62,0
1152,note_on,,0,0,8,,,,,,,,13,,,60,92
1344,note_on,,192,0,8,,,,,,,,13,,,60,0
1344,note_on,,0,0,8,,,,,,,,13,,,55,92
1488,note_on,,144,0,8,,,,,,,,13,,,55,0
1488,note_on,,0,0,8,,,,,,,,13,,,53,92
1536,note_on,,48,0,8,,,,,,,,13,,,53,0
1536,note_on,,0,0,8,,,,,,,,13,,,55,92
1872,note_on,,336,0,8,,,,,,,,13,,,55,0
1920,note_on,,48,0,8,,,,,,,,13,,,56,92
2112,note_on,,192,0,8,,,,,,,,13,,,56,0
2112,note_on,,0,0,8,,,,,,,,13,,,53,92
2400,note_on,,288,0,8,,,,,,,,13,,,53,0
2400,note_on,,0,0,8,,,,,,,,13,,,51,92
2496,program_change,,2304,0,12,,,,,,,6,8,,,,
2496,note_on,,96,0,8,,,,,,,,13,,,51,0
2496,program_change,,2304,0,11,,,,,,,6,7,,,,
2496,note_on,,0,0,8,,,,,,,,13,,,51,92
2688,control_change,,192,0,12,,,,,,,,8,10,64,,
2688,control_change,,192,0,11,,,,,,,,7,10,64,,
3072,note_on,,0,0,8,,,,,,,,13,,,63,92
3072,note_on,,384,0,12,,,,,,,,8,,,63,30
3072,note_on,,384,0,11,,,,,,,,7,,,65,30
3072,note_on,,576,0,8,,,,,,,,13,,,51,0
3264,note_on,,0,0,12,,,,,,,,8,,,62,30
3264,note_on,,192,0,12,,,,,,,,8,,,63,0
3264,note_on,,0,0,8,,,,,,,,13,,,62,92
3264,note_on,,192,0,8,,,,,,,,13,,,63,0
3456,note_on,,384,0,11,,,,,,,,7,,,65,0
3456,note_on,,192,0,12,,,,,,,,8,,,62,0
3456,note_on,,0,0,12,,,,,,,,8,,,60,30
3456,note_on,,192,0,8,,,,,,,,13,,,62,0
3456,note_on,,0,0,8,,,,,,,,13,,,60,92
3648,note_on,,192,0,11,,,,,,,,7,,,67,30
3648,note_on,,0,0,8,,,,,,,,13,,,59,92
3648,note_on,,192,0,12,,,,,,,,8,,,60,0
3648,note_on,,0,0,12,,,,,,,,8,,,59,30
3648,note_on,,192,0,8,,,,,,,,13,,,60,0
3840,note_on,,0,0,8,,,,,,,,13,,,60,92
3840,note_on,,192,0,8,,,,,,,,13,,,59,0
3840,note_on,,192,0,12,,,,,,,,8,,,59,0
3840,note_on,,0,0,12,,,,,,,,8,,,60,30
4032,note_on,,384,0,11,,,,,,,,7,,,67,0
4032,note_on,,192,0,12,,,,,,,,8,,,60,0
4032,note_on,,192,0,8,,,,,,,,13,,,60,0
4224,note_on,,192,0,12,,,,,,,,8,,,58,30
4224,note_on,,0,0,12,,,,,,,,8,,,60,30
4224,note_on,,192,0,11,,,,,,,,7,,,67,30
4224,note_on,,192,0,8,,,,,,,,13,,,58,92
4320,note_on,,96,0,12,,,,,,,,8,,,60,0
4320,note_on,,0,0,12,,,,,,,,8,,,64,30
4416,note_on,,0,0,8,,,,,,,,13,,,56,92
4416,note_on,,192,0,8,,,,,,,,13,,,58,0
4416,note_on,,0,0,12,,,,,,,,8,,,56,30
4416,note_on,,0,0,12,,,,,,,,8,,,64,0
4416,note_on,,192,0,11,,,,,,,,7,,,67,0
4416,note_on,,0,0,11,,,,,,,,7,,,68,30
4416,note_on,,0,0,12,,,,,,,,8,,,65,30
4416,note_on,,96,0,12,,,,,,,,8,,,58,0
4608,note_on,,0,0,12,,,,,,,,8,,,64,30
4608,note_on,,0,0,12,,,,,,,,8,,,55,30
4608,note_on,,192,0,11,,,,,,,,7,,,68,0
4608,note_on,,192,0,12,,,,,,,,8,,,56,0
4608,note_on,,0,0,8,,,,,,,,13,,,55,92
4608,note_on,,192,0,8,,,,,,,,13,,,56,0
4608,note_on,,0,0,11,,,,,,,,7,,,70,30
4608,note_on,,0,0,12,,,,,,,,8,,,65,0
4800,note_on,,0,0,11,,,,,,,,7,,,60,30
4800,note_on,,192,0,8,,,,,,,,13,,,55,0
4800,note_on,,0,0,12,,,,,,,,8,,,53,30
4800,note_on,,192,0,11,,,,,,,,7,,,70,0
4800,note_on,,192,0,12,,,,,,,,8,,,55,0
4800,note_on,,0,0,11,,,,,,,,7,,,68,30
4800,note_on,,0,0,12,,,,,,,,8,,,64,0
4800,note_on,,0,0,8,,,,,,,,13,,,53,92
4800,note_on,,0,0,11,,,,,,,,7,,,65,30
4944,note_on,,0,0,8,,,,,,,,13,,,52,92
4944,note_on,,144,0,8,,,,,,,,13,,,53,0
4944,note_on,,144,0,11,,,,,,,,7,,,65,0
4944,note_on,,0,0,11,,,,,,,,7,,,67,30
4944,note_on,,144,0,12,,,,,,,,8,,,53,0
4944,note_on,,0,0,12,,,,,,,,8,,,52,30
4944,note_on,,0,0,11,,,,,,,,7,,,68,0
4992,note_on,,0,0,11,,,,,,,,7,,,68,30
4992,note_on,,48,0,11,,,,,,,,7,,,67,0
4992,note_on,,0,0,12,,,,,,,,8,,,53,30
4992,note_on,,48,0,8,,,,,,,,13,,,52,0
4992,note_on,,0,0,8,,,,,,,,13,,,53,92
4992,note_on,,48,0,12,,,,,,,,8,,,52,0
5184,note_on,,0,0,11,,,,,,,,7,,,68,0
5184,note_on,,192,0,11,,,,,,,,7,,,60,0
5184,note_on,,192,0,8,,,,,,,,13,,,53,0
5184,note_on,,192,0,12,,,,,,,,8,,,53,0
5376,note_on,,192,0,11,,,,,,,,7,,,68,30
5376,note_on,,192,0,8,,,,,,,,13,,,65,92
5376,note_on,,192,0,12,,,,,,,,8,,,65,30
5568,note_on,,0,0,8,,,,,,,,13,,,62,92
5568,note_on,,0,0,11,,,,,,,,7,,,65,30
5568,note_on,,0,0,11,,,,,,,,7,,,68,30
5568,note_on,,192,0,8,,,,,,,,13,,,65,0
5568,note_on,,192,0,11,,,,,,,,7,,,68,0
5568,note_on,,0,0,12,,,,,,,,8,,,62,30
5568,note_on,,192,0,12,,,,,,,,8,,,65,0
5760,note_on,,192,0,12,,,,,,,,8,,,62,0
5760,note_on,,0,0,12,,,,,,,,8,,,60,30
5760,note_on,,0,0,8,,,,,,,,13,,,60,92
5760,note_on,,192,0,8,,,,,,,,13,,,62,0
5760,note_on,,192,0,11,,,,,,,,7,,,65,0
5760,note_on,,0,0,11,,,,,,,,7,,,68,0
5760,note_on,,0,0,11,,,,,,,,7,,,65,30
5760,note_on,,0,0,11,,,,,,,,7,,,68,30
5952,note_on,,0,0,8,,,,,,,,13,,,59,92
5952,note_on,,0,0,11,,,,,,,,7,,,67,30
5952,note_on,,0,0,11,,,,,,,,7,,,65,30
5952,note_on,,0,0,12,,,,,,,,8,,,65,30
5952,note_on,,0,0,11,,,,,,,,7,,,68,0
5952,note_on,,192,0,11,,,,,,,,7,,,65,0
5952,note_on,,192,0,8,,,,,,,,13,,,60,0
5952,note_on,,192,0,12,,,,,,,,8,,,60,0
5952,note_on,,0,0,12,,,,,,,,8,,,59,30
6048,note_on,,0,0,12,,,,,,,,8,,,67,30
6048,note_on,,96,0,12,,,,,,,,8,,,65,0
6144,note_on,,192,0,8,,,,,,,,13,,,59,0
6144,note_on,,0,0,11,,,,,,,,7,,,63,30
6144,note_on,,192,0,11,,,,,,,,7,,,65,0
6144,note_on,,0,0,8,,,,,,,,13,,,60,92
6144,note_on,,0,0,11,,,,,,,,7,,,68,30
6144,note_on,,0,0,12,,,,,,,,8,,,60,30
6144,note_on,,96,0,12,,,,,,,,8,,,59,0
6144,note_on,,0,0,12,,,,,,,,8,,,67,0
6336,note_on,,192,0,12,,,,,,,,8,,,60,0
6336,note_on,,0,0,11,,,,,,,,7,,,63,0
6336,note_on,,192,0,8,,,,,,,,13,,,60,0
6336,note_on,,192,0,11,,,,,,,,7,,,67,0
6336,note_on,,0,0,11,,,,,,,,7,,,68,0
6528,note_on,,192,0,12,,,,,,,,8,,,53,30
6528,note_on,,192,0,11,,,,,,,,7,,,62,30
6528,program_change,,6336,0,1,,,,,,,68,0,,,,
6528,note_on,,0,0,11,,,,,,,,7,,,65,30
6528,note_on,,192,0,8,,,,,,,,13,,,53,92
6624,note_on,,0,0,11,,,,,,,,7,,,60,30
6624,note_on,,96,0,11,,,,,,,,7,,,62,0
6624,note_on,,0,0,11,,,,,,,,7,,,65,0
6624,note_on,,0,0,11,,,,,,,,7,,,63,30
6720,note_on,,192,0,8,,,,,,,,13,,,53,0
6720,note_on,,0,0,8,,,,,,,,13,,,55,92
6720,note_on,,0,0,11,,,,,,,,7,,,63,30
6720,note_on,,0,0,11,,,,,,,,7,,,63,0
6720,note_on,,0,0,11,,,,,,,,7,,,60,30
6720,control_change,,192,0,1,,,,,,,,0,10,104,,
6720,note_on,,96,0,11,,,,,,,,7,,,60,0
6720,note_on,,192,0,12,,,,,,,,8,,,53,0
6720,note_on,,0,0,12,,,,,,,,8,,,55,30
6912,note_on,,0,0,8,,,,,,,,13,,,43,92
6912,note_on,,192,0,11,,,,,,,,7,,,60,0
6912,note_on,,0,0,11,,,,,,,,7,,,63,0
6912,note_on,,0,0,11,,,,,,,,7,,,59,30
6912,note_on,,0,0,11,,,,,,,,7,,,62,30
6912,note_on,,192,0,8,,,,,,,,13,,,55,0
6912,note_on,,192,0,12,,,,,,,,8,,,55,0
6912,note_on,,0,0,12,,,,,,,,8,,,43,30
7056,note_on,,144,0,11,,,,,,,,7,,,59,0
7056,note_on,,0,0,11,,,,,,,,7,,,62,0
7056,note_on,,0,0,11,,,,,,,,7,,,60,30
7104,note_on,,0,0,11,,,,,,,,7,,,60,30
7104,note_on,,0,0,8,,,,,,,,13,,,48,92
7104,note_on,,0,0,12,,,,,,,,8,,,36,30
7104,note_on,,0,0,12,,,,,,,,8,,,48,30
7104,note_on,,48,0,11,,,,,,,,7,,,60,0
7104,note_on,,192,0,8,,,,,,,,13,,,43,0
7104,note_on,,192,0,12,,,,,,,,8,,,43,0
7488,note_on,,384,0,11,,,,,,,,7,,,60,0
7488,note_on,,768,0,1,,,,,,,,0,,,72,92
7488,note_on,,384,0,8,,,,,,,,13,,,48,0
7488,note_on,,0,0,12,,,,,,,,8,,,48,0
7488,note_on,,384,0,12,,,,,,,,8,,,36,0
7680,note_on,,192,0,1,,,,,,,,0,,,72,0
7680,note_on,,0,0,1,,,,,,,,0,,,75,92
7968,note_on,,0,0,1,,,,,,,,0,,,74,92
7968,note_on,,288,0,1,,,,,,,,0,,,75,0
8064,note_on,,0,0,1,,,,,,,,0,,,72,92
8064,note_on,,96,0,1,,,,,,,,0,,,74,0
8256,note_on,,192,0,1,,,,,,,,0,,,72,0
8256,note_on,,0,0,1,,,,,,,,0,,,75,92
8544,note_on,,0,0,1,,,,,,,,0,,,74,92
8544,note_on,,288,0,1,,,,,,,,0,,,75,0
8640,note_on,,96,0,1,,,,,,,,0,,,74,0
8640,note_on,,0,0,1,,,,,,,,0,,,72,92
8832,note_on,,192,0,1,,,,,,,,0,,,72,0
8832,note_on,,0,0,1,,,,,,,,0,,,67,92
8976,note_on,,144,0,1,,,,,,,,0,,,67,0
8976,note_on,,0,0,1,,,,,,,,0,,,65,92
9024,note_on,,0,0,1,,,,,,,,0,,,67,92
9024,note_on,,48,0,1,,,,,,,,0,,,65,0
9216,note_on,,1728,0,8,,,,,,,,13,,,60,92
9216,note_on,,192,0,1,,,,,,,,0,,,67,0
9216,note_on,,1728,0,12,,,,,,,,8,,,60,30
9408,note_on,,192,0,8,,,,,,,,13,,,60,0
9408,note_on,,0,0,8,,,,,,,,13,,,63,92
9408,note_on,,192,0,12,,,,,,,,8,,,60,0
9408,note_on,,0,0,12,,,,,,,,8,,,63,30
9696,note_on,,288,0,8,,,,,,,,13,,,63,0
9696,note_on,,288,0,12,,,,,,,,8,,,63,0
9696,note_on,,0,0,12,,,,,,,,8,,,62,30
9696,note_on,,0,0,8,,,,,,,,13,,,62,92
9792,note_on,,96,0,12,,,,,,,,8,,,62,0
9792,note_on,,0,0,12,,,,,,,,8,,,60,30
9792,note_on,,96,0,8,,,,,,,,13,,,62,0
9792,note_on,,0,0,8,,,,,,,,13,,,60,92
9984,note_on,,768,0,1,,,,,,,,0,,,67,92
9984,note_on,,2496,0,11,,,,,,,,7,,,67,30
9984,note_on,,0,0,12,,,,,,,,8,,,63,30
9984,note_on,,192,0,12,,,,,,,,8,,,60,0
9984,note_on,,192,0,8,,,,,,,,13,,,60,0
9984,note_on,,0,0,8,,,,,,,,13,,,63,92
10272,note_on,,0,0,8,,,,,,,,13,,,62,92
10272,note_on,,288,0,8,,,,,,,,13,,,63,0
10272,note_on,,0,0,12,,,,,,,,8,,,62,30
10272,note_on,,288,0,12,,,,,,,,8,,,63,0
10368,note_on,,384,0,11,,,,,,,,7,,,67,0
10368,note_on,,96,0,8,,,,,,,,13,,,62,0
10368,note_on,,0,0,12,,,,,,,,8,,,60,30
10368,note_on,,0,0,8,,,,,,,,13,,,60,92
10368,note_on,,0,0,1,,,,,,,,0,,,72,92
10368,note_on,,384,0,1,,,,,,,,0,,,67,0
10368,note_on,,0,0,11,,,,,,,,7,,,72,30
10368,note_on,,96,0,12,,,,,,,,8,,,62,0
10560,note_on,,0,0,1,,,,,,,,0,,,70,92
10560,note_on,,192,0,1,,,,,,,,0,,,72,0
10560,note_on,,192,0,11,,,,,,,,7,,,72,0
10560,note_on,,0,0,12,,,,,,,,8,,,55,30
10560,note_on,,192,0,8,,,,,,,,13,,,60,0
10560,note_on,,0,0,8,,,,,,,,13,,,55,92
10560,note_on,,0,0,11,,,,,,,,7,,,70,30
10560,note_on,,192,0,12,,,,,,,,8,,,60,0
10704,note_on,,0,0,12,,,,,,,,8,,,53,30
10704,note_on,,144,0,12,,,,,,,,8,,,55,0
10704,note_on,,0,0,8,,,,,,,,13,,,53,92
10704,note_on,,144,0,8,,,,,,,,13,,,55,0
10752,note_on,,0,0,12,,,,,,,,8,,,55,30
10752,note_on,,48,0,12,,,,,,,,8,,,53,0
10752,note_on,,0,0,8,,,,,,,,13,,,55,92
10752,note_on,,48,0,8,,,,,,,,13,,,53,0
10944,note_on,,192,0,12,,,,,,,,8,,,55,0
10944,note_on,,192,0,8,,,,,,,,13,,,55,0
11136,note_on,,576,0,11,,,,,,,,7,,,70,0
11136,note_on,,0,0,11,,,,,,,,7,,,63,30
11136,note_on,,192,0,8,,,,,,,,13,,,56,92
11136,note_on,,192,0,12,,,,,,,,8,,,56,30
11136,note_on,,576,0,1,,,,,,,,0,,,70,0
11136,note_on,,0,0,1,,,,,,,,0,,,63,92
11328,note_on,,0,0,12,,,,,,,,8,,,53,30
11328,note_on,,0,0,1,,,,,,,,0,,,68,92
11328,note_on,,192,0,1,,,,,,,,0,,,63,0
11328,note_on,,0,0,8,,,,,,,,13,,,53,92
11328,note_on,,192,0,8,,,,,,,,13,,,56,0
11328,note_on,,0,0,11,,,,,,,,7,,,68,30
11328,note_on,,192,0,11,,,,,,,,7,,,63,0
11328,note_on,,192,0,12,,,,,,,,8,,,56,0
11616,note_on,,288,0,11,,,,,,,,7,,,68,0
11616,note_on,,288,0,8,,,,,,,,13,,,53,0
11616,note_on,,0,0,11,,,,,,,,7,,,67,30
11616,note_on,,288,0,12,,,,,,,,8,,,53,0
11616,note_on,,0,0,1,,,,,,,,0,,,67,92
11616,note_on,,288,0,1,,,,,,,,0,,,68,0
11616,note_on,,0,0,12,,,,,,,,8,,,51,30
11616,note_on,,0,0,8,,,,,,,,13,,,51,92
11712,note_on,,96,0,1,,,,,,,,0,,,67,0
11712,note_on,,96,0,11,,,,,,,,7,,,67,0
11712,note_on,,96,0,8,,,,,,,,13,,,51,0
11712,note_on,,0,0,11,,,,,,,,7,,,67,30
11712,note_on,,0,0,1,,,,,,,,0,,,67,92
11712,note_on,,0,0,8,,,,,,,,13,,,51,92
11712,note_on,,96,0,12,,,,,,,,8,,,51,0
11712,note_on,,0,0,12,,,,,,,,8,,,51,30
12288,note_on,,0,0,11,,,,,,,,7,,,79,30
12288,note_on,,576,0,12,,,,,,,,8,,,51,0
12288,note_on,,0,0,8,,,,,,,,13,,,63,92
12288,note_on,,576,0,8,,,,,,,,13,,,51,0
12288,note_on,,576,0,11,,,,,,,,7,,,67,0
12288,note_on,,0,0,12,,,,,,,,8,,,63,30
12288,note_on,,576,0,1,,,,,,,,0,,,67,0
12288,note_on,,0,0,1,,,,,,,,0,,,79,92
12480,note_on,,0,0,12,,,,,,,,8,,,62,30
12480,note_on,,192,0,12,,,,,,,,8,,,63,0
12480,note_on,,192,0,8,,,,,,,,13,,,63,0
12480,note_on,,0,0,8,,,,,,,,13,,,62,92
12672,note_on,,0,0,12,,,,,,,,8,,,60,30
12672,note_on,,192,0,12,,,,,,,,8,,,62,0
12672,note_on,,192,0,8,,,,,,,,13,,,62,0
12672,note_on,,0,0,8,,,,,,,,13,,,60,92
12864,note_on,,0,0,8,,,,,,,,13,,,59,92
12864,note_on,,192,0,8,,,,,,,,13,,,60,0
12864,note_on,,0,0,12,,,,,,,,8,,,59,30
12864,note_on,,192,0,12,,,,,,,,8,,,60,0
13056,note_on,,0,0,8,,,,,,,,13,,,60,92
13056,note_on,,192,0,8,,,,,,,,13,,,59,0
13056,note_on,,0,0,1,,,,,,,,0,,,75,92
13056,note_on,,768,0,1,,,,,,,,0,,,79,0
13056,note_on,,768,0,11,,,,,,,,7,,,79,0
13056,note_on,,192,0,12,,,,,,,,8,,,59,0
13056,note_on,,0,0,12,,,,,,,,8,,,60,30
13056,note_on,,0,0,11,,,,,,,,7,,,75,30
13248,note_on,,192,0,12,,,,,,,,8,,,60,0
13248,note_on,,0,0,11,,,,,,,,7,,,72,30
13248,note_on,,192,0,1,,,,,,,,0,,,75,0
13248,note_on,,0,0,1,,,,,,,,0,,,72,92
13248,note_on,,192,0,11,,,,,,,,7,,,75,0
13248,note_on,,192,0,8,,,,,,,,13,,,60,0
13440,note_on,,192,0,8,,,,,,,,13,,,55,92
13440,note_on,,192,0,12,,,,,,,,8,,,55,30
13440,note_on,,192,0,11,,,,,,,,7,,,72,0
13440,note_on,,0,0,11,,,,,,,,7,,,71,30
13440,note_on,,0,0,1,,,,,,,,0,,,71,92
13440,note_on,,192,0,1,,,,,,,,0,,,72,0
13584,note_on,,0,0,1,,,,,,,,0,,,69,92
13584,note_on,,144,0,1,,,,,,,,0,,,71,0
13584,note_on,,144,0,11,,,,,,,,7,,,71,0
13584,note_on,,0,0,11,,,,,,,,7,,,69,30
13632,note_on,,0,0,1,,,,,,,,0,,,67,92
13632,note_on,,48,0,1,,,,,,,,0,,,69,0
13632,note_on,,48,0,11,,,,,,,,7,,,69,0
13632,note_on,,0,0,11,,,,,,,,7,,,67,30
13824,note_on,,192,0,1,,,,,,,,0,,,67,0
13824,note_on,,384,0,12,,,,,,,,8,,,55,0
13824,note_on,,384,0,8,,,,,,,,13,,,55,0
13824,note_on,,192,0,11,,,,,,,,7,,,67,0
14016,note_on,,192,0,1,,,,,,,,0,,,76,92
14016,note_on,,192,0,8,,,,,,,,13,,,58,92
14016,note_on,,192,0,12,,,,,,,,8,,,58,30
14016,note_on,,192,0,11,,,,,,,,7,,,76,30
14208,note_on,,192,0,1,,,,,,,,0,,,76,0
14208,note_on,,0,0,8,,,,,,,,13,,,56,92
14208,note_on,,0,0,12,,,,,,,,8,,,56,30
14208,note_on,,0,0,1,,,,,,,,0,,,77,92
14208,note_on,,192,0,12,,,,,,,,8,,,58,0
14208,note_on,,192,0,8,,,,,,,,13,,,58,0
14208,note_on,,192,0,11,,,,,,,,7,,,76,0
14208,note_on,,0,0,11,,,,,,,,7,,,77,30
14400,note_on,,192,0,11,,,,,,,,7,,,77,0
14400,note_on,,0,0,11,,,,,,,,7,,,76,30
14400,note_on,,192,0,1,,,,,,,,0,,,77,0
14400,note_on,,0,0,8,,,,,,,,13,,,55,92
14400,note_on,,192,0,8,,,,,,,,13,,,56,0
14400,note_on,,0,0,12,,,,,,,,8,,,55,30
14400,note_on,,192,0,12,,,,,,,,8,,,56,0
14400,note_on,,0,0,1,,,,,,,,0,,,76,92
14592,note_on,,192,0,11,,,,,,,,7,,,76,0
14592,note_on,,0,0,8,,,,,,,,13,,,53,92
14592,note_on,,192,0,8,,,,,,,,13,,,55,0
14592,note_on,,0,0,11,,,,,,,,7,,,77,30
14592,note_on,,0,0,1,,,,,,,,0,,,77,92
14592,note_on,,192,0,12,,,,,,,,8,,,55,0
14592,note_on,,0,0,12,,,,,,,,8,,,53,30
14592,note_on,,192,0,1,,,,,,,,0,,,76,0
14736,note_on,,0,0,1,,,,,,,,0,,,72,92
14736,note_on,,0,0,11,,,,,,,,7,,,72,30
14736,note_on,,144,0,11,,,,,,,,7,,,77,0
14736,note_on,,0,0,12,,,,,,,,8,,,52,30
14736,note_on,,0,0,8,,,,,,,,13,,,52,92
14736,note_on,,144,0,8,,,,,,,,13,,,53,0
14736,note_on,,144,0,12,,,,,,,,8,,,53,0
14736,note_on,,144,0,1,,,,,,,,0,,,77,0
14784,note_on,,48,0,8,,,,,,,,13,,,52,0
14784,note_on,,48,0,12,,,,,,,,8,,,52,0
14784,note_on,,0,0,12,,,,,,,,8,,,53,30
14784,note_on,,0,0,1,,,,,,,,0,,,72,92
14784,note_on,,48,0,11,,,,,,,,7,,,72,0
14784,note_on,,0,0,11,,,,,,,,7,,,72,30
14784,note_on,,0,0,8,,,,,,,,13,,,53,92
14784,note_on,,48,0,1,,,,,,,,0,,,72,0
14976,note_on,,192,0,8,,,,,,,,13,,,53,0
14976,note_on,,192,0,11,,,,,,,,7,,,72,0
14976,note_on,,192,0,12,,,,,,,,8,,,53,0
14976,note_on,,192,0,1,,,,,,,,0,,,72,0
15168,note_on,,192,0,12,,,,,,,,8,,,65,30
15168,note_on,,192,0,8,,,,,,,,13,,,65,92
15360,note_on,,0,0,12,,,,,,,,8,,,62,30
15360,note_on,,0,0,8,,,,,,,,13,,,62,92
15360,note_on,,384,0,1,,,,,,,,0,,,77,92
15360,note_on,,192,0,12,,,,,,,,8,,,65,0
15360,note_on,,192,0,8,,,,,,,,13,,,65,0
15360,note_on,,384,0,11,,,,,,,,7,,,77,30
15552,note_on,,192,0,8,,,,,,,,13,,,62,0
15552,note_on,,0,0,12,,,,,,,,8,,,60,30
15552,note_on,,192,0,12,,,,,,,,8,,,62,0
15552,note_on,,192,0,1,,,,,,,,0,,,77,0
15552,note_on,,0,0,1,,,,,,,,0,,,68,92
15552,note_on,,0,0,11,,,,,,,,7,,,68,30
15552,note_on,,0,0,8,,,,,,,,13,,,60,92
15552,note_on,,192,0,11,,,,,,,,7,,,77,0
15744,note_on,,0,0,12,,,,,,,,8,,,59,30
15744,note_on,,192,0,12,,,,,,,,8,,,60,0
15744,note_on,,192,0,11,,,,,,,,7,,,68,0
15744,note_on,,0,0,11,,,,,,,,7,,,67,30
15744,note_on,,0,0,8,,,,,,,,13,,,59,92
15744,note_on,,192,0,8,,,,,,,,13,,,60,0
15744,note_on,,0,0,1,,,,,,,,0,,,67,92
15744,note_on,,192,0,1,,,,,,,,0,,,68,0
15744,note_on,,0,0,12,,,,,,,,8,,,65,30
15840,note_on,,96,0,12,,,,,,,,8,,,65,0
15840,note_on,,0,0,12,,,,,,,,8,,,67,30
15936,note_on,,192,0,8,,,,,,,,13,,,59,0
15936,note_on,,0,0,12,,,,,,,,8,,,60,30
15936,note_on,,0,0,12,,,,,,,,8,,,67,0
15936,note_on,,96,0,12,,,,,,,,8,,,59,0
15936,note_on,,0,0,8,,,,,,,,13,,,60,92
16128,note_on,,192,0,8,,,,,,,,13,,,60,0
16128,note_on,,192,0,12,,,,,,,,8,,,60,0
16320,note_on,,0,0,11,,,,,,,,7,,,75,30
16320,note_on,,576,0,11,,,,,,,,7,,,67,0
16320,note_on,,576,0,1,,,,,,,,0,,,67,0
16320,note_on,,192,0,12,,,,,,,,8,,,48,30
16320,note_on,,0,0,1,,,,,,,,0,,,75,92
16320,note_on,,192,0,8,,,,,,,,13,,,48,92
16512,note_on,,192,0,12,,,,,,,,8,,,48,0
16512,note_on,,0,0,12,,,,,,,,8,,,56,30
16512,note_on,,0,0,8,,,,,,,,13,,,56,92
16512,note_on,,192,0,11,,,,,,,,7,,,75,0
16512,note_on,,0,0,1,,,,,,,,0,,,65,92
16512,note_on,,192,0,8,,,,,,,,13,,,48,0
16512,note_on,,192,0,1,,,,,,,,0,,,75,0
16512,note_on,,0,0,11,,,,,,,,7,,,65,30
16896,note_on,,0,0,1,,,,,,,,0,,,67,92
16896,note_on,,384,0,1,,,,,,,,0,,,65,0
16896,note_on,,384,0,11,,,,,,,,7,,,65,0
16896,note_on,,384,0,8,,,,,,,,13,,,56,0
16896,note_on,,0,0,8,,,,,,,,13,,,55,92
16896,note_on,,384,0,12,,,,,,,,8,,,56,0
16896,note_on,,0,0,12,,,,,,,,8,,,55,42
16944,note_on,,48,0,12,,,,,,,,8,,,59,42
16992,note_on,,48,0,12,,,,,,,,8,,,62,42
17040,note_on,,48,0,12,,,,,,,,8,,,65,42
17088,note_on,,192,0,11,,,,,,,,7,,,67,42
17280,note_on,,0,0,8,,,,,,,,13,,,48,75
17280,note_on,,384,0,8,,,,,,,,13,,,55,0
17280,note_on,,17088,0,6,,,,,,,,11,,,63,92
17280,note_on,,17088,0,9,,,,,,,,14,,,36,75
17280,note_on,,17088,0,5,,,,,,,,10,,,67,92
17472,note_on,,192,0,9,,,,,,,,14,,,36,0
17472,note_on,,0,0,6,,,,,,,,11,,,62,92
17472,note_on,,576,0,1,,,,,,,,0,,,67,0
17472,note_on,,192,0,6,,,,,,,,11,,,63,0
17472,note_on,,0,0,8,,,,,,,,13,,,46,75
17472,note_on,,192,0,8,,,,,,,,13,,,48,0
17472,note_on,,0,0,12,,,,,,,,8,,,65,0
17472,note_on,,0,0,12,,,,,,,,8,,,62,0
17472,note_on,,0,0,12,,,,,,,,8,,,59,0
17472,note_on,,0,0,9,,,,,,,,14,,,34,75
17472,note_on,,192,0,5,,,,,,,,10,,,67,0
17472,note_on,,0,0,5,,,,,,,,10,,,67,92
17472,note_on,,384,0,11,,,,,,,,7,,,67,0
17472,note_on,,432,0,12,,,,,,,,8,,,55,0
17760,note_on,,288,0,5,,,,,,,,10,,,67,0
17760,note_on,,0,0,5,,,,,,,,10,,,68,92
17856,note_on,,0,0,9,,,,,,,,14,,,32,75
17856,note_on,,0,0,6,,,,,,,,11,,,60,92
17856,note_on,,384,0,6,,,,,,,,11,,,62,0
17856,note_on,,384,0,8,,,,,,,,13,,,46,0
17856,note_on,,0,0,8,,,,,,,,13,,,44,75
17856,note_on,,384,0,9,,,,,,,,14,,,34,0
17856,note_on,,96,0,5,,,,,,,,10,,,68,0
17856,note_on,,0,0,5,,,,,,,,10,,,65,92
18048,note_on,,192,0,5,,,,,,,,10,,,65,0
18048,note_on,,0,0,8,,,,,,,,13,,,43,75
18048,note_on,,192,0,8,,,,,,,,13,,,44,0
18048,note_on,,192,0,6,,,,,,,,11,,,60,0
18048,note_on,,0,0,6,,,,,,,,11,,,59,92
18048,note_on,,0,0,9,,,,,,,,14,,,31,75
18048,note_on,,192,0,9,,,,,,,,14,,,32,0
18048,note_on,,0,0,5,,,,,,,,10,,,67,92
18240,note_on,,0,0,9,,,,,,,,14,,,29,75
18240,note_on,,192,0,9,,,,,,,,14,,,31,0
18240,note_on,,192,0,8,,,,,,,,13,,,43,0
18240,note_on,,0,0,8,,,,,,,,13,,,41,75
18432,note_on,,384,0,5,,,,,,,,10,,,67,0
18432,note_on,,0,0,6,,,,,,,,11,,,60,92
18432,note_on,,384,0,6,,,,,,,,11,,,59,0
18432,note_on,,0,0,9,,,,,,,,14,,,27,75
18432,note_on,,192,0,9,,,,,,,,14,,,29,0
18432,note_on,,0,0,5,,,,,,,,10,,,67,92
18432,note_on,,0,0,8,,,,,,,,13,,,39,75
18432,note_on,,192,0,8,,,,,,,,13,,,41,0
18624,note_on,,0,0,8,,,,,,,,13,,,38,75
18624,note_on,,192,0,8,,,,,,,,13,,,39,0
18624,note_on,,192,0,5,,,,,,,,10,,,67,0
18624,note_on,,0,0,9,,,,,,,,14,,,26,75
18624,note_on,,0,0,5,,,,,,,,10,,,65,92
18624,note_on,,192,0,6,,,,,,,,11,,,60,0
18624,note_on,,0,0,6,,,,,,,,11,,,62,92
18624,note_on,,192,0,9,,,,,,,,14,,,27,0
18816,note_on,,192,0,5,,,,,,,,10,,,65,0
18816,note_on,,0,0,5,,,,,,,,10,,,67,92
18816,note_on,,192,0,9,,,,,,,,14,,,26,0
18816,note_on,,0,0,6,,,,,,,,11,,,60,92
18816,note_on,,0,0,8,,,,,,,,13,,,39,75
18816,note_on,,192,0,8,,,,,,,,13,,,38,0
18816,note_on,,192,0,6,,,,,,,,11,,,62,0
18816,note_on,,0,0,9,,,,,,,,14,,,27,75
19008,note_on,,0,0,5,,,,,,,,10,,,63,92
19008,note_on,,0,0,8,,,,,,,,13,,,41,75
19008,note_on,,192,0,8,,,,,,,,13,,,39,0
19008,note_on,,192,0,9,,,,,,,,14,,,27,0
19008,note_on,,0,0,9,,,,,,,,14,,,29,75
19008,note_on,,192,0,5,,,,,,,,10,,,67,0
19200,note_on,,0,0,5,,,,,,,,10,,,62,92
19200,note_on,,0,0,8,,,,,,,,13,,,43,75
19200,note_on,,192,0,8,,,,,,,,13,,,41,0
19200,note_on,,192,0,9,,,,,,,,14,,,29,0
19200,note_on,,192,0,5,,,,,,,,10,,,63,0
19200,note_on,,0,0,9,,,,,,,,14,,,31,75
19200,note_on,,384,0,6,,,,,,,,11,,,60,0
19200,note_on,,0,0,6,,,,,,,,11,,,59,92
19584,note_on,,384,0,6,,,,,,,,11,,,59,0
19584,note_on,,0,0,6,,,,,,,,11,,,60,92
19584,note_on,,0,0,5,,,,,,,,10,,,60,92
19584,note_on,,384,0,5,,,,,,,,10,,,62,0
19584,note_on,,384,0,8,,,,,,,,13,,,43,0
19584,note_on,,0,0,8,,,,,,,,13,,,48,75
19584,note_on,,2112,0,1,,,,,,,,0,,,67,92
19584,note_on,,384,0,9,,,,,,,,14,,,31,0
19584,note_on,,0,0,9,,,,,,,,14,,,36,75
19776,note_on,,0,0,9,,,,,,,,14,,,34,75
19776,note_on,,192,0,9,,,,,,,,14,,,36,0
19776,note_on,,192,0,8,,,,,,,,13,,,48,0
19776,note_on,,0,0,1,,,,,,,,0,,,67,92
19776,note_on,,192,0,1,,,,,,,,0,,,67,0
19776,note_on,,192,0,6,,,,,,,,11,,,60,0
19776,note_on,,0,0,8,,,,,,,,13,,,46,75
19776,note_on,,192,0,5,,,,,,,,10,,,60,0
20064,note_on,,0,0,1,,,,,,,,0,,,68,92
20064,note_on,,288,0,1,,,,,,,,0,,,67,0
20160,note_on,,96,0,1,,,,,,,,0,,,68,0
20160,note_on,,384,0,9,,,,,,,,14,,,34,0
20160,note_on,,0,0,9,,,,,,,,14,,,32,75
20160,note_on,,0,0,1,,,,,,,,0,,,65,92
20160,note_on,,0,0,8,,,,,,,,13,,,44,75
20160,note_on,,384,0,8,,,,,,,,13,,,46,0
20352,note_on,,192,0,9,,,,,,,,14,,,32,0
20352,note_on,,0,0,9,,,,,,,,14,,,31,75
20352,note_on,,0,0,8,,,,,,,,13,,,43,75
20352,note_on,,192,0,8,,,,,,,,13,,,44,0
20352,note_on,,0,0,1,,,,,,,,0,,,67,92
20352,note_on,,192,0,1,,,,,,,,0,,,65,0
20544,note_on,,192,0,1,,,,,,,,0,,,67,0
20544,note_on,,0,0,1,,,,,,,,0,,,67,92
20544,note_on,,0,0,9,,,,,,,,14,,,29,75
20544,note_on,,192,0,9,,,,,,,,14,,,31,0
20544,note_on,,192,0,8,,,,,,,,13,,,43,0
20544,note_on,,0,0,8,,,,,,,,13,,,41,75
20736,note_on,,0,0,8,,,,,,,,13,,,39,75
20736,note_on,,960,0,5,,,,,,,,10,,,67,92
20736,note_on,,0,0,9,,,,,,,,14,,,27,75
20736,note_on,,192,0,9,,,,,,,,14,,,29,0
20736,note_on,,960,0,6,,,,,,,,11,,,60,92
20736,note_on,,192,0,1,,,,,,,,0,,,67,0
20736,note_on,,192,0,8,,,,,,,,13,,,41,0
20928,note_on,,192,0,8,,,,,,,,13,,,39,0
20928,note_on,,0,0,8,,,,,,,,13,,,38,75
20928,note_on,,0,0,9,,,,,,,,14,,,26,75
20928,note_on,,192,0,6,,,,,,,,11,,,60,0
20928,note_on,,0,0,5,,,,,,,,10,,,65,92
20928,note_on,,192,0,5,,,,,,,,10,,,67,0
20928,note_on,,192,0,9,,,,,,,,14,,,27,0
20928,note_on,,0,0,6,,,,,,,,11,,,59,92
21120,note_on,,0,0,9,,,,,,,,14,,,27,75
21120,note_on,,192,0,9,,,,,,,,14,,,26,0
21120,note_on,,0,0,6,,,,,,,,11,,,60,92
21120,note_on,,192,0,6,,,,,,,,11,,,59,0
21120,note_on,,192,0,5,,,,,,,,10,,,65,0
21120,note_on,,0,0,5,,,,,,,,10,,,67,92
21120,note_on,,0,0,8,,,,,,,,13,,,39,75
21120,note_on,,192,0,8,,,,,,,,13,,,38,0
21312,note_on,,192,0,5,,,,,,,,10,,,67,0
21312,note_on,,0,0,5,,,,,,,,10,,,63,92
21312,note_on,,0,0,8,,,,,,,,13,,,41,75
21312,note_on,,192,0,8,,,,,,,,13,,,39,0
21312,note_on,,192,0,9,,,,,,,,14,,,27,0
21312,note_on,,0,0,9,,,,,,,,14,,,29,75
21504,note_on,,384,0,6,,,,,,,,11,,,60,0
21504,note_on,,0,0,6,,,,,,,,11,,,59,92
21504,note_on,,0,0,5,,,,,,,,10,,,62,92
21504,note_on,,0,0,9,,,,,,,,14,,,31,75
21504,note_on,,192,0,5,,,,,,,,10,,,63,0
21504,note_on,,0,0,8,,,,,,,,13,,,43,75
21504,note_on,,192,0,8,,,,,,,,13,,,41,0
21504,note_on,,192,0,9,,,,,,,,14,,,29,0
21696,note_on,,192,0,5,,,,,,,,10,,,62,0
21696,note_on,,0,0,5,,,,,,,,10,,,67,92
21888,note_on,,384,0,9,,,,,,,,14,,,31,0
21888,note_on,,0,0,6,,,,,,,,11,,,63,92
21888,note_on,,384,0,6,,,,,,,,11,,,59,0
21888,note_on,,1152,0,1,,,,,,,,0,,,72,92
21888,note_on,,0,0,8,,,,,,,,13,,,48,75
21888,note_on,,384,0,8,,,,,,,,13,,,43,0
21888,note_on,,0,0,9,,,,,,,,14,,,36,75
22080,note_on,,384,0,5,,,,,,,,10,,,67,0
22080,note_on,,0,0,5,,,,,,,,10,,,70,92
22080,note_on,,0,0,1,,,,,,,,0,,,74,92
22080,note_on,,192,0,1,,,,,,,,0,,,72,0
22080,note_on,,0,0,8,,,,,,,,13,,,46,75
22080,note_on,,192,0,8,,,,,,,,13,,,48,0
22080,note_on,,192,0,6,,,,,,,,11,,,63,0
22080,note_on,,0,0,6,,,,,,,,11,,,65,92
22080,note_on,,192,0,9,,,,,,,,14,,,36,0
22080,note_on,,0,0,9,,,,,,,,14,,,34,75
22368,note_on,,0,0,1,,,,,,,,0,,,75,92
22368,note_on,,288,0,1,,,,,,,,0,,,74,0
22464,note_on,,0,0,8,,,,,,,,13,,,44,75
22464,note_on,,384,0,8,,,,,,,,13,,,46,0
22464,note_on,,384,0,5,,,,,,,,10,,,70,0
22464,note_on,,384,0,6,,,,,,,,11,,,65,0
22464,note_on,,0,0,6,,,,,,,,11,,,60,92
22464,note_on,,0,0,1,,,,,,,,0,,,72,92
22464,note_on,,96,0,1,,,,,,,,0,,,75,0
22464,note_on,,0,0,5,,,,,,,,10,,,65,92
22464,note_on,,384,0,9,,,,,,,,14,,,34,0
22464,note_on,,0,0,9,,,,,,,,14,,,32,75
22656,note_on,,192,0,6,,,,,,,,11,,,60,0
22656,note_on,,192,0,9,,,,,,,,14,,,32,0
22656,note_on,,0,0,9,,,,,,,,14,,,31,75
22656,note_on,,0,0,5,,,,,,,,10,,,67,92
22656,note_on,,0,0,6,,,,,,,,11,,,63,92
22656,note_on,,192,0,1,,,,,,,,0,,,72,0
22656,note_on,,0,0,1,,,,,,,,0,,,70,92
22656,note_on,,0,0,8,,,,,,,,13,,,43,75
22656,note_on,,192,0,8,,,,,,,,13,,,44,0
22656,note_on,,192,0,5,,,,,,,,10,,,65,0
22848,note_on,,0,0,6,,,,,,,,11,,,65,92
22848,note_on,,192,0,1,,,,,,,,0,,,70,0
22848,note_on,,0,0,1,,,,,,,,0,,,68,92
22848,note_on,,0,0,8,,,,,,,,13,,,41,75
22848,note_on,,192,0,9,,,,,,,,14,,,31,0
22848,note_on,,0,0,9,,,,,,,,14,,,29,75
22848,note_on,,192,0,5,,,,,,,,10,,,67,0
22848,note_on,,0,0,5,,,,,,,,10,,,62,92
22848,note_on,,192,0,6,,,,,,,,11,,,63,0
22848,note_on,,192,0,8,,,,,,,,13,,,43,0
23040,note_on,,192,0,8,,,,,,,,13,,,41,0
23040,note_on,,192,0,6,,,,,,,,11,,,65,0
23040,note_on,,0,0,8,,,,,,,,13,,,39,75
23040,note_on,,192,0,9,,,,,,,,14,,,29,0
23040,note_on,,0,0,9,,,,,,,,14,,,27,75
23040,note_on,,0,0,6,,,,,,,,11,,,67,92
23040,note_on,,0,0,5,,,,,,,,10,,,63,92
23040,note_on,,192,0,5,,,,,,,,10,,,62,0
23040,note_on,,0,0,1,,,,,,,,0,,,67,92
23040,note_on,,192,0,1,,,,,,,,0,,,68,0
23184,note_on,,0,0,1,,,,,,,,0,,,68,92
23184,note_on,,144,0,1,,,,,,,,0,,,67,0
23232,note_on,,192,0,9,,,,,,,,14,,,27,0
23232,note_on,,0,0,1,,,,,,,,0,,,70,92
23232,note_on,,192,0,8,,,,,,,,13,,,39,0
23232,note_on,,192,0,6,,,,,,,,11,,,67,0
23232,note_on,,0,0,6,,,,,,,,11,,,62,92
23232,note_on,,48,0,1,,,,,,,,0,,,68,0
23232,note_on,,192,0,5,,,,,,,,10,,,63,0
23232,note_on,,0,0,5,,,,,,,,10,,,65,92
23232,note_on,,0,0,8,,,,,,,,13,,,38,75
23232,note_on,,0,0,9,,,,,,,,14,,,26,75
23424,note_on,,192,0,5,,,,,,,,10,,,65,0
23424,note_on,,192,0,1,,,,,,,,0,,,70,0
23424,note_on,,0,0,1,,,,,,,,0,,,72,92
23424,note_on,,192,0,9,,,,,,,,14,,,26,0
23424,note_on,,0,0,8,,,,,,,,13,,,39,75
23424,note_on,,192,0,8,,,,,,,,13,,,38,0
23424,note_on,,0,0,9,,,,,,,,14,,,27,75
23424,note_on,,192,0,6,,,,,,,,11,,,62,0
23424,note_on,,0,0,5,,,,,,,,10,,,67,92
23424,note_on,,0,0,6,,,,,,,,11,,,60,92
23616,note_on,,0,0,8,,,,,,,,13,,,41,75
23616,note_on,,0,0,1,,,,,,,,0,,,68,92
23616,note_on,,0,0,9,,,,,,,,14,,,29,75
23616,note_on,,0,0,6,,,,,,,,11,,,60,92
23616,note_on,,192,0,9,,,,,,,,14,,,27,0
23616,note_on,,0,0,5,,,,,,,,10,,,65,92
23616,note_on,,192,0,8,,,,,,,,13,,,39,0
23616,note_on,,192,0,1,,,,,,,,0,,,72,0
23616,note_on,,192,0,5,,,,,,,,10,,,67,0
23616,note_on,,192,0,6,,,,,,,,11,,,60,0
23808,note_on,,192,0,9,,,,,,,,14,,,29,0
23808,note_on,,0,0,9,,,,,,,,14,,,31,75
23808,note_on,,0,0,8,,,,,,,,13,,,43,75
23808,note_on,,192,0,1,,,,,,,,0,,,68,0
23808,note_on,,192,0,8,,,,,,,,13,,,41,0
23808,note_on,,192,0,6,,,,,,,,11,,,60,0
23808,note_on,,0,0,1,,,,,,,,0,,,67,92
23808,note_on,,0,0,5,,,,,,,,10,,,62,92
23808,note_on,,192,0,5,,,,,,,,10,,,65,0
23808,note_on,,0,0,6,,,,,,,,11,,,59,92
24192,note_on,,0,0,9,,,,,,,,14,,,36,105
24192,note_on,,384,0,9,,,,,,,,14,,,31,0
24192,note_on,,384,0,6,,,,,,,,11,,,59,0
24192,note_on,,0,0,6,,,,,,,,11,,,55,127
24192,note_on,,0,0,5,,,,,,,,10,,,63,127
24192,note_on,,384,0,8,,,,,,,,13,,,43,0
24192,note_on,,0,0,8,,,,,,,,13,,,48,105
24192,note_on,,384,0,5,,,,,,,,10,,,62,0
24384,note_on,,192,0,9,,,,,,,,14,,,36,0
24384,note_on,,192,0,5,,,,,,,,10,,,63,0
24384,note_on,,0,0,9,,,,,,,,14,,,34,105
24384,note_on,,0,0,5,,,,,,,,10,,,65,127
24384,note_on,,0,0,6,,,,,,,,11,,,62,127
24384,note_on,,576,0,1,,,,,,,,0,,,67,0
24384,note_on,,192,0,6,,,,,,,,11,,,55,0
24384,note_on,,192,0,8,,,,,,,,13,,,48,0
24384,note_on,,0,0,8,,,,,,,,13,,,46,105
24576,note_on,,192,0,1,,,,,,,,0,,,74,92
24768,note_on,,192,0,1,,,,,,,,0,,,74,0
24768,note_on,,0,0,1,,,,,,,,0,,,72,92
24768,note_on,,0,0,6,,,,,,,,11,,,65,92
24768,note_on,,384,0,6,,,,,,,,11,,,62,0
24768,note_on,,0,0,9,,,,,,,,14,,,32,75
24768,note_on,,0,0,5,,,,,,,,10,,,68,92
24768,note_on,,384,0,8,,,,,,,,13,,,46,0
24768,note_on,,0,0,8,,,,,,,,13,,,44,75
24768,note_on,,384,0,9,,,,,,,,14,,,34,0
24768,note_on,,384,0,5,,,,,,,,10,,,65,0
24960,note_on,,0,0,1,,,,,,,,0,,,71,92
24960,note_on,,192,0,1,,,,,,,,0,,,72,0
24960,note_on,,192,0,9,,,,,,,,14,,,32,0
24960,note_on,,192,0,5,,,,,,,,10,,,68,0
24960,note_on,,0,0,5,,,,,,,,10,,,62,92
24960,note_on,,0,0,9,,,,,,,,14,,,31,75
24960,note_on,,192,0,6,,,,,,,,11,,,65,0
24960,note_on,,0,0,6,,,,,,,,11,,,67,92
24960,note_on,,0,0,8,,,,,,,,13,,,43,75
24960,note_on,,192,0,8,,,,,,,,13,,,44,0
25104,note_on,,0,0,1,,,,,,,,0,,,72,92
25104,note_on,,144,0,1,,,,,,,,0,,,71,0
25152,note_on,,0,0,8,,,,,,,,13,,,41,75
25152,note_on,,192,0,9,,,,,,,,14,,,31,0
25152,note_on,,192,0,8,,,,,,,,13,,,43,0
25152,note_on,,0,0,1,,,,,,,,0,,,74,92
25152,note_on,,48,0,1,,,,,,,,0,,,72,0
25152,note_on,,0,0,9,,,,,,,,14,,,29,75
25344,note_on,,0,0,5,,,,,,,,10,,,60,92
25344,note_on,,0,0,8,,,,,,,,13,,,39,75
25344,note_on,,384,0,5,,,,,,,,10,,,62,0
25344,note_on,,192,0,8,,,,,,,,13,,,41,0
25344,note_on,,192,0,9,,,,,,,,14,,,29,0
25344,note_on,,192,0,1,,,,,,,,0,,,74,0
25344,note_on,,0,0,9,,,,,,,,14,,,27,75
25536,note_on,,576,0,6,,,,,,,,11,,,67,0
25536,note_on,,0,0,5,,,,,,,,10,,,71,92
25536,note_on,,192,0,5,,,,,,,,10,,,60,0
25536,note_on,,0,0,8,,,,,,,,13,,,38,75
25536,note_on,,192,0,8,,,,,,,,13,,,39,0
25536,note_on,,192,0,9,,,,,,,,14,,,27,0
25536,note_on,,0,0,9,,,,,,,,14,,,26,75
25536,note_on,,0,0,6,,,,,,,,11,,,65,92
25728,note_on,,192,0,6,,,,,,,,11,,,65,0
25728,note_on,,0,0,9,,,,,,,,14,,,27,75
25728,note_on,,192,0,5,,,,,,,,10,,,71,0
25728,note_on,,0,0,5,,,,,,,,10,,,72,92
25728,note_on,,192,0,9,,,,,,,,14,,,26,0
25728,note_on,,384,0,1,,,,,,,,0,,,72,92
25728,note_on,,192,0,8,,,,,,,,13,,,38,0
25728,note_on,,0,0,8,,,,,,,,13,,,39,75
25728,note_on,,0,0,6,,,,,,,,11,,,67,92
25824,note_on,,0,0,1,,,,,,,,0,,,74,92
25824,note_on,,96,0,1,,,,,,,,0,,,72,0
25872,note_on,,48,0,1,,,,,,,,0,,,74,0
25872,note_on,,0,0,1,,,,,,,,0,,,75,92
25920,note_on,,0,0,9,,,,,,,,14,,,29,75
25920,note_on,,192,0,9,,,,,,,,14,,,27,0
25920,note_on,,0,0,6,,,,,,,,11,,,68,92
25920,note_on,,0,0,1,,,,,,,,0,,,74,92
25920,note_on,,48,0,1,,,,,,,,0,,,75,0
25920,note_on,,192,0,8,,,,,,,,13,,,39,0
25920,note_on,,0,0,8,,,,,,,,13,,,41,75
25920,note_on,,192,0,6,,,,,,,,11,,,67,0
26112,note_on,,0,0,6,,,,,,,,11,,,67,92
26112,note_on,,192,0,6,,,,,,,,11,,,68,0
26112,note_on,,192,0,9,,,,,,,,14,,,29,0
26112,note_on,,384,0,5,,,,,,,,10,,,72,0
26112,note_on,,0,0,1,,,,,,,,0,,,74,92
26112,note_on,,192,0,1,,,,,,,,0,,,74,0
26112,note_on,,0,0,9,,,,,,,,14,,,31,75
26112,note_on,,192,0,8,,,,,,,,13,,,41,0
26112,note_on,,0,0,8,,,,,,,,13,,,43,75
26112,note_on,,0,0,5,,,,,,,,10,,,72,92
26304,note_on,,0,0,5,,,,,,,,10,,,71,92
26304,note_on,,192,0,5,,,,,,,,10,,,72,0
26400,note_on,,288,0,6,,,,,,,,11,,,67,0
26400,note_on,,0,0,6,,,,,,,,11,,,65,92
26496,note_on,,384,0,9,,,,,,,,14,,,31,0
26496,note_on,,0,0,9,,,,,,,,14,,,36,75
26496,note_on,,0,0,5,,,,,,,,10,,,72,92
26496,note_on,,0,0,1,,,,,,,,0,,,72,92
26496,note_on,,0,0,6,,,,,,,,11,,,63,92
26496,note_on,,96,0,6,,,,,,,,11,,,65,0
26496,note_on,,384,0,1,,,,,,,,0,,,74,0
26496,note_on,,384,0,8,,,,,,,,13,,,43,0
26496,note_on,,0,0,8,,,,,,,,13,,,48,75
26496,note_on,,192,0,5,,,,,,,,10,,,71,0
26688,note_on,,192,0,5,,,,,,,,10,,,72,0
26688,note_on,,0,0,5,,,,,,,,10,,,62,92
26688,note_on,,0,0,1,,,,,,,,0,,,65,92
26688,note_on,,192,0,6,,,,,,,,11,,,63,0
26688,note_on,,192,0,1,,,,,,,,0,,,72,0
26688,note_on,,0,0,8,,,,,,,,13,,,46,75
26688,note_on,,192,0,8,,,,,,,,13,,,48,0
26688,note_on,,0,0,6,,,,,,,,11,,,65,92
26688,note_on,,0,0,9,,,,,,,,14,,,34,75
26688,note_on,,192,0,9,,,,,,,,14,,,36,0
27072,note_on,,0,0,9,,,,,,,,14,,,32,75
27072,note_on,,0,0,8,,,,,,,,13,,,44,75
27072,note_on,,384,0,8,,,,,,,,13,,,46,0
27072,note_on,,384,0,9,,,,,,,,14,,,34,0
27264,note_on,,0,0,5,,,,,,,,10,,,63,92
27264,note_on,,576,0,5,,,,,,,,10,,,62,0
27264,note_on,,0,0,8,,,,,,,,13,,,43,75
27264,note_on,,192,0,8,,,,,,,,13,,,44,0
27264,note_on,,192,0,9,,,,,,,,14,,,32,0
27264,note_on,,0,0,9,,,,,,,,14,,,31,75
27264,note_on,,576,0,1,,,,,,,,0,,,65,0
27264,note_on,,0,0,1,,,,,,,,0,,,67,92
27264,note_on,,576,0,6,,,,,,,,11,,,65,0
27264,note_on,,0,0,6,,,,,,,,11,,,58,92
27456,note_on,,192,0,5,,,,,,,,10,,,63,0
27456,note_on,,0,0,9,,,,,,,,14,,,29,75
27456,note_on,,192,0,1,,,,,,,,0,,,67,0
27456,note_on,,0,0,1,,,,,,,,0,,,68,92
27456,note_on,,192,0,8,,,,,,,,13,,,43,0
27456,note_on,,0,0,8,,,,,,,,13,,,41,75
27456,note_on,,192,0,6,,,,,,,,11,,,58,0
27456,note_on,,192,0,9,,,,,,,,14,,,31,0
27456,note_on,,0,0,5,,,,,,,,10,,,62,92
27456,note_on,,0,0,6,,,,,,,,11,,,56,92
27648,note_on,,0,0,8,,,,,,,,13,,,39,75
27648,note_on,,0,0,6,,,,,,,,11,,,58,92
27648,note_on,,0,0,5,,,,,,,,10,,,63,92
27648,note_on,,0,0,9,,,,,,,,14,,,27,75
27648,note_on,,0,0,1,,,,,,,,0,,,67,92
27648,note_on,,192,0,1,,,,,,,,0,,,68,0
27648,note_on,,192,0,9,,,,,,,,14,,,29,0
27648,note_on,,192,0,6,,,,,,,,11,,,56,0
27648,note_on,,192,0,5,,,,,,,,10,,,62,0
27648,note_on,,192,0,8,,,,,,,,13,,,41,0
27792,note_on,,0,0,1,,,,,,,,0,,,68,92
27792,note_on,,144,0,1,,,,,,,,0,,,67,0
27840,note_on,,192,0,5,,,,,,,,10,,,63,0
27840,note_on,,0,0,5,,,,,,,,10,,,70,92
27840,note_on,,0,0,9,,,,,,,,14,,,26,75
27840,note_on,,192,0,9,,,,,,,,14,,,27,0
27840,note_on,,192,0,8,,,,,,,,13,,,39,0
27840,note_on,,0,0,8,,,,,,,,13,,,38,75
27840,note_on,,48,0,1,,,,,,,,0,,,68,0
27840,note_on,,0,0,1,,,,,,,,0,,,70,92
27840,note_on,,0,0,6,,,,,,,,11,,,65,92
27840,note_on,,192,0,6,,,,,,,,11,,,58,0
27984,note_on,,144,0,5,,,,,,,,10,,,70,0
27984,note_on,,0,0,5,,,,,,,,10,,,68,92
28032,note_on,,192,0,1,,,,,,,,0,,,70,0
28032,note_on,,0,0,1,,,,,,,,0,,,72,92
28032,note_on,,192,0,6,,,,,,,,11,,,65,0
28032,note_on,,192,0,8,,,,,,,,13,,,38,0
28032,note_on,,48,0,5,,,,,,,,10,,,68,0
28032,note_on,,0,0,5,,,,,,,,10,,,67,92
28032,note_on,,192,0,9,,,,,,,,14,,,26,0
28032,note_on,,0,0,9,,,,,,,,14,,,27,75
28032,note_on,,0,0,6,,,,,,,,11,,,63,92
28032,note_on,,0,0,8,,,,,,,,13,,,39,75
28224,note_on,,192,0,9,,,,,,,,14,,,27,0
28224,note_on,,0,0,1,,,,,,,,0,,,74,92
28224,note_on,,192,0,1,,,,,,,,0,,,72,0
28224,note_on,,0,0,9,,,,,,,,14,,,29,75
28224,note_on,,0,0,8,,,,,,,,13,,,41,75
28224,note_on,,192,0,8,,,,,,,,13,,,39,0
28224,note_on,,0,0,5,,,,,,,,10,,,68,92
28224,note_on,,192,0,5,,,,,,,,10,,,67,0
28224,note_on,,192,0,6,,,,,,,,11,,,63,0
28224,note_on,,0,0,6,,,,,,,,11,,,62,92
28416,note_on,,192,0,1,,,,,,,,0,,,74,0
28416,note_on,,0,0,1,,,,,,,,0,,,71,92
28416,note_on,,0,0,9,,,,,,,,14,,,31,75
28416,note_on,,192,0,9,,,,,,,,14,,,29,0
28416,note_on,,0,0,5,,,,,,,,10,,,67,92
28416,note_on,,192,0,5,,,,,,,,10,,,68,0
28416,note_on,,0,0,6,,,,,,,,11,,,62,92
28416,note_on,,0,0,8,,,,,,,,13,,,43,75
28416,note_on,,192,0,8,,,,,,,,13,,,41,0
28416,note_on,,192,0,6,,,,,,,,11,,,62,0
28704,note_on,,0,0,1,,,,,,,,0,,,69,92
28704,note_on,,288,0,1,,,,,,,,0,,,71,0
28800,note_on,,96,0,1,,,,,,,,0,,,69,0
28800,note_on,,0,0,1,,,,,,,,0,,,67,92
28800,note_on,,384,0,5,,,,,,,,10,,,67,0
28800,note_on,,0,0,5,,,,,,,,10,,,55,92
28800,note_on,,0,0,9,,,,,,,,14,,,36,75
28800,note_on,,384,0,9,,,,,,,,14,,,31,0
28800,note_on,,384,0,8,,,,,,,,13,,,43,0
28800,note_on,,0,0,8,,,,,,,,13,,,48,75
28800,note_on,,384,0,6,,,,,,,,11,,,62,0
28800,note_on,,0,0,6,,,,,,,,11,,,63,92
28992,note_on,,192,0,8,,,,,,,,13,,,48,0
28992,note_on,,192,0,1,,,,,,,,0,,,67,0
28992,note_on,,0,0,5,,,,,,,,10,,,67,92
28992,note_on,,0,0,8,,,,,,,,13,,,46,75
28992,note_on,,192,0,5,,,,,,,,10,,,55,0
28992,note_on,,192,0,9,,,,,,,,14,,,36,0
28992,note_on,,0,0,6,,,,,,,,11,,,62,92
28992,note_on,,192,0,6,,,,,,,,11,,,63,0
28992,note_on,,0,0,9,,,,,,,,14,,,34,75
29184,note_on,,192,0,1,,,,,,,,0,,,67,92
29280,note_on,,288,0,6,,,,,,,,11,,,62,0
29280,note_on,,0,0,6,,,,,,,,11,,,63,92
29376,note_on,,384,0,5,,,,,,,,10,,,67,0
29376,note_on,,0,0,5,,,,,,,,10,,,60,92
29376,note_on,,384,0,8,,,,,,,,13,,,46,0
29376,note_on,,384,0,9,,,,,,,,14,,,34,0
29376,note_on,,0,0,9,,,,,,,,14,,,32,75
29376,note_on,,96,0,6,,,,,,,,11,,,63,0
29376,note_on,,0,0,8,,,,,,,,13,,,44,75
29376,note_on,,0,0,1,,,,,,,,0,,,65,92
29376,note_on,,192,0,1,,,,,,,,0,,,67,0
29376,note_on,,0,0,6,,,,,,,,11,,,65,92
29520,note_on,,144,0,5,,,,,,,,10,,,60,0
29520,note_on,,0,0,5,,,,,,,,10,,,62,92
29568,note_on,,192,0,6,,,,,,,,11,,,65,0
29568,note_on,,0,0,6,,,,,,,,11,,,58,92
29568,note_on,,192,0,1,,,,,,,,0,,,65,0
29568,note_on,,0,0,5,,,,,,,,10,,,63,92
29568,note_on,,0,0,1,,,,,,,,0,,,63,92
29568,note_on,,48,0,5,,,,,,,,10,,,62,0
29568,note_on,,192,0,8,,,,,,,,13,,,44,0
29568,note_on,,192,0,9,,,,,,,,14,,,32,0
29568,note_on,,0,0,9,,,,,,,,14,,,31,75
29568,note_on,,0,0,8,,,,,,,,13,,,43,75
29760,note_on,,0,0,5,,,,,,,,10,,,62,92
29760,note_on,,192,0,5,,,,,,,,10,,,63,0
29760,note_on,,0,0,8,,,,,,,,13,,,41,75
29760,note_on,,0,0,9,,,,,,,,14,,,29,75
29760,note_on,,192,0,9,,,,,,,,14,,,31,0
29760,note_on,,192,0,8,,,,,,,,13,,,43,0
29760,note_on,,0,0,6,,,,,,,,11,,,56,92
29760,note_on,,192,0,6,,,,,,,,11,,,58,0
29856,note_on,,0,0,1,,,,,,,,0,,,65,92
29856,note_on,,288,0,1,,,,,,,,0,,,63,0
29952,note_on,,192,0,8,,,,,,,,13,,,41,0
29952,note_on,,0,0,5,,,,,,,,10,,,63,92
29952,note_on,,0,0,8,,,,,,,,13,,,39,75
29952,note_on,,192,0,5,,,,,,,,10,,,62,0
29952,note_on,,0,0,1,,,,,,,,0,,,67,92
29952,note_on,,192,0,6,,,,,,,,11,,,56,0
29952,note_on,,0,0,6,,,,,,,,11,,,58,92
29952,note_on,,96,0,1,,,,,,,,0,,,65,0
29952,note_on,,192,0,9,,,,,,,,14,,,29,0
29952,note_on,,0,0,9,,,,,,,,14,,,27,75
30048,note_on,,0,0,1,,,,,,,,0,,,68,92
30048,note_on,,96,0,1,,,,,,,,0,,,67,0
30144,note_on,,192,0,8,,,,,,,,13,,,39,0
30144,note_on,,0,0,1,,,,,,,,0,,,70,92
30144,note_on,,96,0,1,,,,,,,,0,,,68,0
30144,note_on,,0,0,5,,,,,,,,10,,,65,92
30144,note_on,,192,0,5,,,,,,,,10,,,63,0
30144,note_on,,0,0,9,,,,,,,,14,,,26,75
30144,note_on,,0,0,8,,,,,,,,13,,,38,75
30144,note_on,,192,0,9,,,,,,,,14,,,27,0
30144,note_on,,0,0,6,,,,,,,,11,,,58,92
30144,note_on,,192,0,6,,,,,,,,11,,,58,0
30288,note_on,,144,0,6,,,,,,,,11,,,58,0
30288,note_on,,0,0,6,,,,,,,,11,,,56,92
30336,note_on,,192,0,9,,,,,,,,14,,,26,0
30336,note_on,,0,0,8,,,,,,,,13,,,39,75
30336,note_on,,192,0,8,,,,,,,,13,,,38,0
30336,note_on,,0,0,6,,,,,,,,11,,,55,92
30336,note_on,,48,0,6,,,,,,,,11,,,56,0
30336,note_on,,192,0,5,,,,,,,,10,,,65,0
30336,note_on,,0,0,5,,,,,,,,10,,,60,92
30336,note_on,,0,0,9,,,,,,,,14,,,27,75
30336,note_on,,0,0,1,,,,,,,,0,,,72,92
30336,note_on,,192,0,1,,,,,,,,0,,,70,0
30528,note_on,,0,0,5,,,,,,,,10,,,60,92
30528,note_on,,192,0,6,,,,,,,,11,,,55,0
30528,note_on,,192,0,9,,,,,,,,14,,,27,0
30528,note_on,,192,0,8,,,,,,,,13,,,39,0
30528,note_on,,192,0,5,,,,,,,,10,,,60,0
30528,note_on,,0,0,8,,,,,,,,13,,,41,75
30528,note_on,,0,0,6,,,,,,,,11,,,65,92
30528,note_on,,0,0,9,,,,,,,,14,,,29,75
30528,note_on,,192,0,1,,,,,,,,0,,,72,0
30528,note_on,,0,0,1,,,,,,,,0,,,68,92
30720,note_on,,0,0,9,,,,,,,,14,,,31,75
30720,note_on,,0,0,5,,,,,,,,10,,,59,92
30720,note_on,,192,0,5,,,,,,,,10,,,60,0
30720,note_on,,0,0,1,,,,,,,,0,,,67,92
30720,program_change,,13248,0,12,,,,,,,70,8,,,,
30720,note_on,,192,0,1,,,,,,,,0,,,68,0
30720,note_on,,192,0,9,,,,,,,,14,,,29,0
30720,note_on,,192,0,6,,,,,,,,11,,,65,0
30720,note_on,,192,0,8,,,,,,,,13,,,41,0
30720,note_on,,0,0,8,,,,,,,,13,,,43,75
30720,note_on,,0,0,6,,,,,,,,11,,,62,92
30912,control_change,,192,0,12,,,,,,,,8,10,104,,
31104,note_on,,384,0,9,,,,,,,,14,,,31,0
31104,note_on,,0,0,9,,,,,,,,14,,,48,75
31104,note_on,,30912,0,3,,,,,,,,2,,,60,92
31104,note_on,,384,0,6,,,,,,,,11,,,62,0
31104,note_on,,30912,0,2,,,,,,,,1,,,63,92
31104,note_on,,0,0,6,,,,,,,,11,,,63,92
31104,note_on,,384,0,8,,,,,,,,13,,,43,0
31104,note_on,,192,0,12,,,,,,,,8,,,60,75
31104,note_on,,0,0,8,,,,,,,,13,,,60,75
31104,note_on,,0,0,5,,,,,,,,10,,,67,92
31104,note_on,,384,0,5,,,,,,,,10,,,59,0
31104,note_on,,30912,0,7,,,,,,,,12,,,60,75
31296,note_on,,0,0,7,,,,,,,,12,,,63,75
31296,note_on,,0,0,9,,,,,,,,14,,,51,75
31296,note_on,,192,0,9,,,,,,,,14,,,48,0
31296,note_on,,192,0,2,,,,,,,,1,,,63,0
31296,note_on,,192,0,3,,,,,,,,2,,,60,0
31296,note_on,,0,0,12,,,,,,,,8,,,63,75
31296,note_on,,192,0,6,,,,,,,,11,,,63,0
31296,note_on,,192,0,5,,,,,,,,10,,,67,0
31296,note_on,,0,0,5,,,,,,,,10,,,72,92
31296,note_on,,192,0,7,,,,,,,,12,,,60,0
31296,note_on,,0,0,6,,,,,,,,11,,,67,92
31296,note_on,,192,0,8,,,,,,,,13,,,60,0
31296,note_on,,192,0,12,,,,,,,,8,,,60,0
31296,note_on,,0,0,8,,,,,,,,13,,,63,75
31296,note_on,,0,0,2,,,,,,,,1,,,67,92
31296,note_on,,0,0,3,,,,,,,,2,,,63,92
31584,note_on,,288,0,6,,,,,,,,11,,,67,0
31584,note_on,,0,0,6,,,,,,,,11,,,65,92
31584,note_on,,288,0,2,,,,,,,,1,,,67,0
31584,note_on,,288,0,8,,,,,,,,13,,,63,0
31584,note_on,,0,0,8,,,,,,,,13,,,62,75
31584,note_on,,0,0,2,,,,,,,,1,,,65,92
31584,note_on,,288,0,9,,,,,,,,14,,,51,0
31584,note_on,,288,0,3,,,,,,,,2,,,63,0
31584,note_on,,0,0,3,,,,,,,,2,,,62,92
31584,note_on,,288,0,7,,,,,,,,12,,,63,0
31584,note_on,,0,0,9,,,,,,,,14,,,50,75
31584,note_on,,0,0,12,,,,,,,,8,,,62,75
31584,note_on,,288,0,12,,,,,,,,8,,,63,0
31584,note_on,,0,0,7,,,,,,,,12,,,62,75
31680,note_on,,96,0,9,,,,,,,,14,,,50,0
31680,note_on,,96,0,3,,,,,,,,2,,,62,0
31680,note_on,,0,0,3,,,,,,,,2,,,60,92
31680,note_on,,96,0,6,,,,,,,,11,,,65,0
31680,note_on,,0,0,6,,,,,,,,11,,,63,92
31680,note_on,,96,0,8,,,,,,,,13,,,62,0
31680,note_on,,96,0,2,,,,,,,,1,,,65,0
31680,note_on,,0,0,2,,,,,,,,1,,,63,92
31680,note_on,,0,0,7,,,,,,,,12,,,60,75
31680,note_on,,0,0,8,,,,,,,,13,,,60,75
31680,note_on,,0,0,9,,,,,,,,14,,,48,75
31680,note_on,,96,0,7,,,,,,,,12,,,62,0
31680,note_on,,96,0,12,,,,,,,,8,,,62,0
31680,note_on,,0,0,12,,,,,,,,8,,,60,75
31872,program_change,,0,0,1,,,,,,,52,0,,,,
31872,note_on,,0,0,2,,,,,,,,1,,,67,92
31872,note_on,,1152,0,1,,,,,,,,0,,,67,0
31872,program_change,,14400,0,11,,,,,,,68,7,,,,
31872,note_on,,0,0,6,,,,,,,,11,,,67,92
31872,note_on,,192,0,6,,,,,,,,11,,,63,0
31872,note_on,,0,0,3,,,,,,,,2,,,63,92
31872,note_on,,0,0,12,,,,,,,,8,,,60,75
31872,note_on,,192,0,8,,,,,,,,13,,,60,0
31872,note_on,,0,0,8,,,,,,,,13,,,60,75
31872,note_on,,0,0,9,,,,,,,,14,,,48,75
31872,note_on,,192,0,2,,,,,,,,1,,,63,0
31872,note_on,,192,0,9,,,,,,,,14,,,48,0
31872,note_on,,0,0,7,,,,,,,,12,,,63,75
31872,note_on,,192,0,7,,,,,,,,12,,,60,0
31872,note_on,,192,0,12,,,,,,,,8,,,60,0
31872,note_on,,192,0,3,,,,,,,,2,,,60,0
32064,control_change,,192,0,1,,,,,,,,0,10,24,,
32064,control_change,,192,0,11,,,,,,,,7,10,104,,
32160,note_on,,288,0,6,,,,,,,,11,,,67,0
32160,note_on,,0,0,6,,,,,,,,11,,,65,92
32160,note_on,,0,0,2,,,,,,,,1,,,65,92
32160,note_on,,288,0,3,,,,,,,,2,,,63,0
32160,note_on,,0,0,3,,,,,,,,2,,,62,92
32160,note_on,,0,0,7,,,,,,,,12,,,62,75
32160,note_on,,288,0,7,,,,,,,,12,,,63,0
32160,note_on,,288,0,2,,,,,,,,1,,,67,0
32256,note_on,,0,0,7,,,,,,,,12,,,60,75
32256,note_on,,96,0,7,,,,,,,,12,,,62,0
32256,note_on,,384,0,12,,,,,,,,8,,,60,0
32256,note_on,,0,0,12,,,,,,,,8,,,48,75
32256,note_on,,32064,0,10,,,,,,,,5,,,67,92
32256,note_on,,192,0,1,,,,,,,,0,,,67,92
32256,note_on,,32064,0,4,,,,,,,,3,,,48,92
32256,note_on,,384,0,8,,,,,,,,13,,,60,0
32256,note_on,,384,0,9,,,,,,,,14,,,48,0
32256,note_on,,0,0,9,,,,,,,,14,,,36,75
32256,note_on,,96,0,6,,,,,,,,11,,,65,0
32256,note_on,,0,0,6,,,,,,,,11,,,63,92
32256,note_on,,192,0,11,,,,,,,,7,,,67,92
32256,note_on,,96,0,3,,,,,,,,2,,,62,0
32256,note_on,,0,0,8,,,,,,,,13,,,48,75
32256,note_on,,0,0,2,,,,,,,,1,,,63,92
32256,note_on,,0,0,3,,,,,,,,2,,,60,92
32256,note_on,,96,0,2,,,,,,,,1,,,65,0
32256,note_on,,960,0,5,,,,,,,,10,,,72,0
32256,note_on,,0,0,5,,,,,,,,10,,,67,92
32448,note_on,,192,0,9,,,,,,,,14,,,36,0
32448,note_on,,0,0,9,,,,,,,,14,,,39,75
32448,note_on,,192,0,5,,,,,,,,10,,,67,0
32448,note_on,,0,0,4,,,,,,,,3,,,51,92
32448,note_on,,192,0,1,,,,,,,,0,,,67,0
32448,note_on,,0,0,1,,,,,,,,0,,,79,92
32448,note_on,,0,0,12,,,,,,,,8,,,51,75
32448,note_on,,192,0,3,,,,,,,,2,,,60,0
32448,note_on,,192,0,7,,,,,,,,12,,,60,0
32448,note_on,,192,0,11,,,,,,,,7,,,67,0
32448,note_on,,0,0,11,,,,,,,,7,,,79,92
32448,note_on,,0,0,7,,,,,,,,12,,,55,75
32448,note_on,,0,0,5,,,,,,,,10,,,55,92
32448,note_on,,0,0,3,,,,,,,,2,,,55,92
32448,note_on,,192,0,12,,,,,,,,8,,,48,0
32448,note_on,,0,0,8,,,,,,,,13,,,51,75
32448,note_on,,192,0,10,,,,,,,,5,,,67,0
32448,note_on,,0,0,10,,,,,,,,5,,,79,92
32448,note_on,,0,0,2,,,,,,,,1,,,60,92
32448,note_on,,192,0,2,,,,,,,,1,,,63,0
32448,note_on,,0,0,6,,,,,,,,11,,,55,92
32448,note_on,,192,0,6,,,,,,,,11,,,63,0
32448,note_on,,192,0,4,,,,,,,,3,,,48,0
32448,note_on,,192,0,8,,,,,,,,13,,,48,0
32736,note_on,,0,0,7,,,,,,,,12,,,56,75
32736,note_on,,288,0,3,,,,,,,,2,,,55,0
32736,note_on,,0,0,3,,,,,,,,2,,,56,92
32736,note_on,,0,0,4,,,,,,,,3,,,50,92
32736,note_on,,288,0,11,,,,,,,,7,,,79,0
32736,note_on,,0,0,1,,,,,,,,0,,,77,92
32736,note_on,,288,0,1,,,,,,,,0,,,79,0
32736,note_on,,0,0,10,,,,,,,,5,,,77,92
32736,note_on,,0,0,11,,,,,,,,7,,,77,92
32736,note_on,,288,0,8,,,,,,,,13,,,51,0
32736,note_on,,0,0,8,,,,,,,,13,,,50,75
32736,note_on,,0,0,9,,,,,,,,14,,,38,75
32736,note_on,,288,0,9,,,,,,,,14,,,39,0
32736,note_on,,288,0,2,,,,,,,,1,,,60,0
32736,note_on,,288,0,4,,,,,,,,3,,,51,0
32736,note_on,,0,0,2,,,,,,,,1,,,59,92
32736,note_on,,288,0,12,,,,,,,,8,,,51,0
32736,note_on,,0,0,12,,,,,,,,8,,,50,75
32736,note_on,,288,0,10,,,,,,,,5,,,79,0
32736,note_on,,288,0,7,,,,,,,,12,,,55,0
32832,note_on,,96,0,2,,,,,,,,1,,,59,0
32832,note_on,,0,0,3,,,,,,,,2,,,55,92
32832,note_on,,0,0,1,,,,,,,,0,,,75,92
32832,note_on,,0,0,2,,,,,,,,1,,,60,92
32832,note_on,,96,0,10,,,,,,,,5,,,77,0
32832,note_on,,0,0,10,,,,,,,,5,,,75,92
32832,note_on,,96,0,3,,,,,,,,2,,,56,0
32832,note_on,,96,0,1,,,,,,,,0,,,77,0
32832,note_on,,0,0,7,,,,,,,,12,,,55,75
32832,note_on,,96,0,9,,,,,,,,14,,,38,0
32832,note_on,,0,0,8,,,,,,,,13,,,48,75
32832,note_on,,96,0,8,,,,,,,,13,,,50,0
32832,note_on,,96,0,4,,,,,,,,3,,,50,0
32832,note_on,,0,0,4,,,,,,,,3,,,48,92
32832,note_on,,0,0,11,,,,,,,,7,,,75,92
32832,note_on,,96,0,7,,,,,,,,12,,,56,0
32832,note_on,,96,0,11,,,,,,,,7,,,77,0
32832,note_on,,0,0,9,,,,,,,,14,,,36,75
32832,note_on,,96,0,12,,,,,,,,8,,,50,0
32832,note_on,,0,0,12,,,,,,,,8,,,48,75
33024,note_on,,0,0,11,,,,,,,,7,,,79,92
33024,note_on,,192,0,11,,,,,,,,7,,,75,0
33024,note_on,,192,0,7,,,,,,,,12,,,55,0
33024,note_on,,192,0,4,,,,,,,,3,,,48,0
33024,note_on,,0,0,3,,,,,,,,2,,,60,92
33024,note_on,,0,0,1,,,,,,,,0,,,79,92
33024,note_on,,0,0,10,,,,,,,,5,,,79,92
33024,note_on,,192,0,3,,,,,,,,2,,,55,0
33024,note_on,,0,0,4,,,,,,,,3,,,51,92
33024,note_on,,0,0,8,,,,,,,,13,,,51,75
33024,note_on,,192,0,1,,,,,,,,0,,,75,0
33024,note_on,,192,0,10,,,,,,,,5,,,75,0
33024,note_on,,0,0,9,,,,,,,,14,,,39,75
33024,note_on,,192,0,9,,,,,,,,14,,,36,0
33024,note_on,,0,0,12,,,,,,,,8,,,51,75
33024,note_on,,192,0,12,,,,,,,,8,,,48,0
33024,note_on,,0,0,2,,,,,,,,1,,,67,92
33024,note_on,,192,0,2,,,,,,,,1,,,60,0
33024,note_on,,192,0,8,,,,,,,,13,,,48,0
33024,note_on,,0,0,7,,,,,,,,12,,,60,75
33312,note_on,,288,0,4,,,,,,,,3,,,51,0
33312,note_on,,288,0,9,,,,,,,,14,,,39,0
33312,note_on,,0,0,8,,,,,,,,13,,,50,75
33312,note_on,,288,0,1,,,,,,,,0,,,79,0
33312,note_on,,0,0,4,,,,,,,,3,,,50,92
33312,note_on,,0,0,9,,,,,,,,14,,,38,75
33312,note_on,,0,0,1,,,,,,,,0,,,77,92
33312,note_on,,288,0,8,,,,,,,,13,,,51,0
33312,note_on,,0,0,12,,,,,,,,8,,,50,75
33312,note_on,,288,0,12,,,,,,,,8,,,51,0
33312,note_on,,0,0,11,,,,,,,,7,,,77,92
33312,note_on,,288,0,11,,,,,,,,7,,,79,0
33312,note_on,,0,0,3,,,,,,,,2,,,62,92
33312,note_on,,0,0,10,,,,,,,,5,,,77,92
33312,note_on,,288,0,10,,,,,,,,5,,,79,0
33312,note_on,,288,0,3,,,,,,,,2,,,60,0
33312,note_on,,288,0,7,,,,,,,,12,,,60,0
33312,note_on,,0,0,7,,,,,,,,12,,,62,75
33408,note_on,,96,0,7,,,,,,,,12,,,62,0
33408,note_on,,0,0,7,,,,,,,,12,,,63,75
33408,note_on,,0,0,12,,,,,,,,8,,,48,75
33408,note_on,,0,0,8,,,,,,,,13,,,48,75
33408,note_on,,384,0,2,,,,,,,,1,,,67,0
33408,note_on,,0,0,2,,,,,,,,1,,,67,92
33408,note_on,,0,0,1,,,,,,,,0,,,75,92
33408,note_on,,96,0,1,,,,,,,,0,,,77,0
33408,note_on,,96,0,12,,,,,,,,8,,,50,0
33408,note_on,,96,0,8,,,,,,,,13,,,50,0
33408,note_on,,96,0,3,,,,,,,,2,,,62,0
33408,note_on,,960,0,5,,,,,,,,10,,,55,0
33408,note_on,,0,0,3,,,,,,,,2,,,63,92
33408,note_on,,96,0,9,,,,,,,,14,,,38,0
33408,note_on,,0,0,9,,,,,,,,14,,,36,75
33408,note_on,,96,0,10,,,,,,,,5,,,77,0
33408,note_on,,0,0,10,,,,,,,,5,,,75,92
33408,note_on,,96,0,11,,,,,,,,7,,,77,0
33408,note_on,,0,0,4,,,,,,,,3,,,48,92
33408,note_on,,96,0,4,,,,,,,,3,,,50,0
33408,note_on,,0,0,5,,,,,,,,10,,,72,92
33408,note_on,,0,0,11,,,,,,,,7,,,75,92
33600,note_on,,0,0,9,,,,,,,,14,,,43,75
33600,note_on,,192,0,8,,,,,,,,13,,,48,0
33600,note_on,,192,0,5,,,,,,,,10,,,72,0
33600,note_on,,0,0,1,,,,,,,,0,,,74,92
33600,note_on,,192,0,2,,,,,,,,1,,,67,0
33600,note_on,,192,0,11,,,,,,,,7,,,75,0
33600,note_on,,192,0,9,,,,,,,,14,,,36,0
33600,note_on,,0,0,11,,,,,,,,7,,,74,92
33600,note_on,,0,0,5,,,,,,,,10,,,71,92
33600,note_on,,0,0,8,,,,,,,,13,,,55,75
33600,note_on,,192,0,1,,,,,,,,0,,,75,0
33600,note_on,,0,0,2,,,,,,,,1,,,67,92
33600,note_on,,0,0,12,,,,,,,,8,,,55,75
33600,note_on,,192,0,10,,,,,,,,5,,,75,0
33600,note_on,,0,0,10,,,,,,,,5,,,74,92
33600,note_on,,0,0,4,,,,,,,,3,,,55,92
33600,note_on,,0,0,7,,,,,,,,12,,,62,75
33600,note_on,,192,0,3,,,,,,,,2,,,63,0
33600,note_on,,0,0,6,,,,,,,,11,,,67,92
33600,note_on,,0,0,3,,,,,,,,2,,,59,92
33600,note_on,,1152,0,6,,,,,,,,11,,,55,0
33600,note_on,,192,0,7,,,,,,,,12,,,63,0
33600,note_on,,192,0,12,,,,,,,,8,,,48,0
33600,note_on,,192,0,4,,,,,,,,3,,,48,0
33888,note_on,,0,0,4,,,,,,,,3,,,55,92
33888,note_on,,288,0,4,,,,,,,,3,,,55,0
33888,note_on,,288,0,1,,,,,,,,0,,,74,0
33888,note_on,,0,0,3,,,,,,,,2,,,57,92
33888,note_on,,288,0,3,,,,,,,,2,,,59,0
33888,note_on,,288,0,5,,,,,,,,10,,,71,0
33888,note_on,,0,0,1,,,,,,,,0,,,72,92
33888,note_on,,0,0,11,,,,,,,,7,,,72,92
33888,note_on,,0,0,2,,,,,,,,1,,,67,92
33888,note_on,,0,0,5,,,,,,,,10,,,69,92
33888,note_on,,288,0,7,,,,,,,,12,,,62,0
33888,note_on,,0,0,7,,,,,,,,12,,,60,75
33888,note_on,,288,0,11,,,,,,,,7,,,74,0
33888,note_on,,0,0,10,,,,,,,,5,,,72,92
33888,note_on,,288,0,2,,,,,,,,1,,,67,0
33888,note_on,,288,0,10,,,,,,,,5,,,74,0
33984,note_on,,0,0,10,,,,,,,,5,,,74,92
33984,note_on,,384,0,12,,,,,,,,8,,,55,0
33984,note_on,,96,0,10,,,,,,,,5,,,72,0
33984,note_on,,0,0,9,,,,,,,,14,,,31,75
33984,note_on,,96,0,11,,,,,,,,7,,,72,0
33984,note_on,,0,0,12,,,,,,,,8,,,43,75
33984,note_on,,0,0,11,,,,,,,,7,,,74,92
33984,note_on,,384,0,9,,,,,,,,14,,,43,0
33984,note_on,,96,0,7,,,,,,,,12,,,60,0
33984,note_on,,0,0,5,,,,,,,,10,,,71,92
33984,note_on,,0,0,7,,,,,,,,12,,,62,75
33984,note_on,,0,0,8,,,,,,,,13,,,43,75
33984,note_on,,96,0,4,,,,,,,,3,,,55,0
33984,note_on,,0,0,2,,,,,,,,1,,,67,92
33984,note_on,,0,0,1,,,,,,,,0,,,74,92
33984,note_on,,384,0,8,,,,,,,,13,,,55,0
33984,note_on,,0,0,4,,,,,,,,3,,,55,92
33984,note_on,,96,0,5,,,,,,,,10,,,69,0
33984,note_on,,96,0,2,,,,,,,,1,,,67,0
33984,note_on,,0,0,3,,,,,,,,2,,,59,92
33984,note_on,,96,0,3,,,,,,,,2,,,57,0
33984,note_on,,96,0,1,,,,,,,,0,,,72,0
34176,note_on,,192,0,5,,,,,,,,10,,,71,0
34176,note_on,,0,0,12,,,,,,,,8,,,55,75
34176,note_on,,192,0,12,,,,,,,,8,,,43,0
34176,note_on,,192,0,1,,,,,,,,0,,,74,0
34176,note_on,,192,0,9,,,,,,,,14,,,31,0
34176,note_on,,192,0,8,,,,,,,,13,,,43,0
34176,note_on,,0,0,8,,,,,,,,13,,,55,75
34176,note_on,,192,0,11,,,,,,,,7,,,74,0
34176,note_on,,0,0,6,,,,,,,,11,,,59,92
34176,note_on,,0,0,9,,,,,,,,14,,,43,75
34176,note_on,,0,0,7,,,,,,,,12,,,55,75
34176,note_on,,192,0,7,,,,,,,,12,,,62,0
34176,note_on,,192,0,3,,,,,,,,2,,,59,0
34176,note_on,,192,0,4,,,,,,,,3,,,55,0
34176,note_on,,192,0,10,,,,,,,,5,,,74,0
34176,note_on,,0,0,5,,,,,,,,10,,,62,92
34176,note_on,,576,0,6,,,,,,,,11,,,67,0
34176,note_on,,192,0,2,,,,,,,,1,,,67,0
34464,note_on,,288,0,6,,,,,,,,11,,,59,0
34464,note_on,,0,0,6,,,,,,,,11,,,57,92
34464,note_on,,288,0,5,,,,,,,,10,,,62,0
34464,note_on,,0,0,5,,,,,,,,10,,,60,92
34560,note_on,,384,0,9,,,,,,,,14,,,43,0
34560,note_on,,384,0,12,,,,,,,,8,,,55,0
34560,note_on,,384,0,8,,,,,,,,13,,,55,0
34560,note_on,,0,0,8,,,,,,,,13,,,43,75
34560,note_on,,0,0,5,,,,,,,,10,,,62,92
34560,note_on,,96,0,5,,,,,,,,10,,,60,0
34560,note_on,,96,0,6,,,,,,,,11,,,57,0
34560,note_on,,0,0,6,,,,,,,,11,,,59,92
34560,note_on,,0,0,9,,,,,,,,14,,,31,75
34560,note_on,,0,0,12,,,,,,,,8,,,43,75
34752,note_on,,576,0,1,,,,,,,,0,,,72,92
34752,note_on,,192,0,6,,,,,,,,11,,,59,0
34752,note_on,,576,0,4,,,,,,,,3,,,56,92
34752,note_on,,576,0,2,,,,,,,,1,,,63,92
34752,note_on,,0,0,9,,,,,,,,14,,,44,75
34752,note_on,,192,0,9,,,,,,,,14,,,31,0
34752,note_on,,192,0,12,,,,,,,,8,,,43,0
34752,note_on,,0,0,12,,,,,,,,8,,,56,75
34752,note_on,,576,0,11,,,,,,,,7,,,72,92
34752,note_on,,576,0,7,,,,,,,,12,,,55,0
34752,note_on,,576,0,10,,,,,,,,5,,,72,92
34752,note_on,,192,0,5,,,,,,,,10,,,62,0
34752,note_on,,576,0,3,,,,,,,,2,,,56,92
34752,note_on,,0,0,8,,,,,,,,13,,,56,75
34752,note_on,,192,0,8,,,,,,,,13,,,43,0
34944,note_on,,192,0,2,,,,,,,,1,,,63,0
34944,note_on,,0,0,9,,,,,,,,14,,,41,75
34944,note_on,,192,0,9,,,,,,,,14,,,44,0
34944,note_on,,0,0,2,,,,,,,,1,,,62,92
34944,note_on,,192,0,1,,,,,,,,0,,,72,0
34944,note_on,,192,0,10,,,,,,,,5,,,72,0
34944,note_on,,192,0,11,,,,,,,,7,,,72,0
34944,note_on,,192,0,3,,,,,,,,2,,,56,0
34944,note_on,,0,0,11,,,,,,,,7,,,68,92
34944,note_on,,192,0,8,,,,,,,,13,,,56,0
34944,note_on,,0,0,8,,,,,,,,13,,,53,75
34944,note_on,,0,0,3,,,,,,,,2,,,56,92
34944,note_on,,192,0,4,,,,,,,,3,,,56,0
34944,note_on,,0,0,1,,,,,,,,0,,,68,92
34944,note_on,,192,0,12,,,,,,,,8,,,56,0
34944,note_on,,0,0,10,,,,,,,,5,,,68,92
34944,note_on,,0,0,12,,,,,,,,8,,,53,75
34944,note_on,,0,0,4,,,,,,,,3,,,53,92
35232,note_on,,0,0,11,,,,,,,,7,,,67,92
35232,note_on,,288,0,11,,,,,,,,7,,,68,0
35232,note_on,,0,0,9,,,,,,,,14,,,39,75
35232,note_on,,288,0,9,,,,,,,,14,,,41,0
35232,note_on,,288,0,1,,,,,,,,0,,,68,0
35232,note_on,,0,0,12,,,,,,,,8,,,51,75
35232,note_on,,288,0,12,,,,,,,,8,,,53,0
35232,note_on,,0,0,1,,,,,,,,0,,,67,92
35232,note_on,,288,0,8,,,,,,,,13,,,53,0
35232,note_on,,288,0,4,,,,,,,,3,,,53,0
35232,note_on,,0,0,4,,,,,,,,3,,,51,92
35232,note_on,,0,0,8,,,,,,,,13,,,51,75
35232,note_on,,288,0,10,,,,,,,,5,,,68,0
35232,note_on,,0,0,10,,,,,,,,5,,,67,92
35328,note_on,,0,0,12,,,,,,,,8,,,51,75
35328,note_on,,0,0,2,,,,,,,,1,,,63,92
35328,note_on,,0,0,1,,,,,,,,0,,,67,92
35328,note_on,,0,0,9,,,,,,,,14,,,39,75
35328,note_on,,96,0,9,,,,,,,,14,,,39,0
35328,note_on,,384,0,2,,,,,,,,1,,,62,0
35328,note_on,,96,0,8,,,,,,,,13,,,51,0
35328,note_on,,0,0,8,,,,,,,,13,,,51,75
35328,note_on,,96,0,12,,,,,,,,8,,,51,0
35328,note_on,,0,0,10,,,,,,,,5,,,67,92
35328,note_on,,96,0,1,,,,,,,,0,,,67,0
35328,note_on,,0,0,4,,,,,,,,3,,,51,92
35328,note_on,,96,0,4,,,,,,,,3,,,51,0
35328,note_on,,384,0,3,,,,,,,,2,,,56,0
35328,note_on,,0,0,3,,,,,,,,2,,,58,92
35328,note_on,,96,0,10,,,,,,,,5,,,67,0
35328,note_on,,96,0,11,,,,,,,,7,,,67,0
35328,note_on,,0,0,11,,,,,,,,7,,,67,92
35904,note_on,,576,0,10,,,,,,,,5,,,67,0
35904,note_on,,576,0,1,,,,,,,,0,,,67,0
35904,note_on,,576,0,11,,,,,,,,7,,,67,0
35904,note_on,,1152,0,7,,,,,,,,12,,,51,75
35904,note_on,,576,0,8,,,,,,,,13,,,51,0
35904,note_on,,576,0,4,,,,,,,,3,,,51,0
35904,note_on,,1152,0,5,,,,,,,,10,,,60,92
35904,note_on,,1152,0,6,,,,,,,,11,,,56,92
35904,note_on,,576,0,3,,,,,,,,2,,,58,0
35904,note_on,,576,0,2,,,,,,,,1,,,63,0
35904,note_on,,576,0,9,,,,,,,,14,,,39,0
35904,note_on,,0,0,9,,,,,,,,14,,,32,75
35904,note_on,,0,0,12,,,,,,,,8,,,44,75
35904,note_on,,576,0,12,,,,,,,,8,,,51,0
35904,note_on,,0,0,8,,,,,,,,13,,,44,75
36096,note_on,,0,0,6,,,,,,,,11,,,56,92
36096,note_on,,0,0,8,,,,,,,,13,,,41,75
36096,note_on,,192,0,7,,,,,,,,12,,,51,0
36096,note_on,,0,0,5,,,,,,,,10,,,62,92
36096,note_on,,192,0,8,,,,,,,,13,,,44,0
36096,note_on,,192,0,6,,,,,,,,11,,,56,0
36096,note_on,,192,0,5,,,,,,,,10,,,60,0
36096,note_on,,0,0,12,,,,,,,,8,,,41,75
36096,note_on,,0,0,9,,,,,,,,14,,,29,75
36096,note_on,,192,0,9,,,,,,,,14,,,32,0
36096,note_on,,192,0,12,,,,,,,,8,,,44,0
36096,note_on,,0,0,7,,,,,,,,12,,,53,75
36384,note_on,,0,0,6,,,,,,,,11,,,55,92
36384,note_on,,0,0,8,,,,,,,,13,,,39,75
36384,note_on,,288,0,8,,,,,,,,13,,,41,0
36384,note_on,,0,0,12,,,,,,,,8,,,39,75
36384,note_on,,0,0,9,,,,,,,,14,,,27,75
36384,note_on,,0,0,5,,,,,,,,10,,,63,92
36384,note_on,,288,0,5,,,,,,,,10,,,62,0
36384,note_on,,288,0,12,,,,,,,,8,,,41,0
36384,note_on,,288,0,7,,,,,,,,12,,,53,0
36384,note_on,,0,0,7,,,,,,,,12,,,58,75
36384,note_on,,288,0,6,,,,,,,,11,,,56,0
36384,note_on,,288,0,9,,,,,,,,14,,,29,0
36480,note_on,,96,0,9,,,,,,,,14,,,27,0
36480,note_on,,0,0,9,,,,,,,,14,,,27,75
36480,note_on,,96,0,6,,,,,,,,11,,,55,0
36480,note_on,,0,0,6,,,,,,,,11,,,55,92
36480,note_on,,0,0,7,,,,,,,,12,,,58,75
36480,note_on,,96,0,7,,,,,,,,12,,,58,0
36480,note_on,,96,0,12,,,,,,,,8,,,39,0
36480,note_on,,0,0,5,,,,,,,,10,,,63,92
36480,note_on,,96,0,5,,,,,,,,10,,,63,0
36480,note_on,,0,0,8,,,,,,,,13,,,39,75
36480,note_on,,96,0,8,,,,,,,,13,,,39,0
36480,note_on,,0,0,12,,,,,,,,8,,,39,75
36864,note_on,,384,0,12,,,,,,,,8,,,39,0
36864,note_on,,0,0,12,,,,,,,,8,,,60,75
36864,note_on,,384,0,5,,,,,,,,10,,,63,0
36864,note_on,,960,0,4,,,,,,,,3,,,60,92
36864,note_on,,384,0,7,,,,,,,,12,,,58,0
36864,note_on,,384,0,9,,,,,,,,14,,,27,0
36864,note_on,,960,0,2,,,,,,,,1,,,67,92
36864,note_on,,384,0,8,,,,,,,,13,,,39,0
36864,note_on,,0,0,8,,,,,,,,13,,,60,75
36864,note_on,,384,0,6,,,,,,,,11,,,55,0
36864,note_on,,960,0,3,,,,,,,,2,,,63,92
36864,note_on,,0,0,9,,,,,,,,14,,,48,75
37056,note_on,,192,0,9,,,,,,,,14,,,48,0
37056,note_on,,0,0,9,,,,,,,,14,,,46,75
37056,note_on,,0,0,2,,,,,,,,1,,,67,92
37056,note_on,,192,0,3,,,,,,,,2,,,63,0
37056,note_on,,0,0,3,,,,,,,,2,,,62,92
37056,note_on,,192,0,4,,,,,,,,3,,,60,0
37056,note_on,,192,0,12,,,,,,,,8,,,60,0
37056,note_on,,0,0,12,,,,,,,,8,,,58,75
37056,note_on,,192,0,2,,,,,,,,1,,,67,0
37056,note_on,,0,0,4,,,,,,,,3,,,58,92
37056,note_on,,192,0,8,,,,,,,,13,,,60,0
37056,note_on,,0,0,8,,,,,,,,13,,,58,75
37344,note_on,,288,0,2,,,,,,,,1,,,67,0
37344,note_on,,0,0,2,,,,,,,,1,,,68,92
37344,note_on,,0,0,4,,,,,,,,3,,,60,92
37344,note_on,,288,0,4,,,,,,,,3,,,58,0
37344,note_on,,288,0,3,,,,,,,,2,,,62,0
37344,note_on,,0,0,3,,,,,,,,2,,,63,92
37440,note_on,,96,0,2,,,,,,,,1,,,68,0
37440,note_on,,0,0,2,,,,,,,,1,,,65,92
37440,note_on,,0,0,4,,,,,,,,3,,,56,92
37440,note_on,,96,0,4,,,,,,,,3,,,60,0
37440,note_on,,96,0,3,,,,,,,,2,,,63,0
37440,note_on,,0,0,9,,,,,,,,14,,,44,75
37440,note_on,,384,0,9,,,,,,,,14,,,46,0
37440,note_on,,0,0,8,,,,,,,,13,,,56,75
37440,note_on,,0,0,3,,,,,,,,2,,,60,92
37440,note_on,,384,0,8,,,,,,,,13,,,58,0
37440,note_on,,384,0,12,,,,,,,,8,,,58,0
37440,note_on,,0,0,12,,,,,,,,8,,,56,75
37632,note_on,,192,0,9,,,,,,,,14,,,44,0
37632,note_on,,0,0,12,,,,,,,,8,,,55,75
37632,note_on,,192,0,12,,,,,,,,8,,,56,0
37632,note_on,,192,0,4,,,,,,,,3,,,56,0
37632,note_on,,0,0,4,,,,,,,,3,,,55,92
37632,note_on,,0,0,2,,,,,,,,1,,,67,92
37632,note_on,,0,0,9,,,,,,,,14,,,43,75
37632,note_on,,192,0,2,,,,,,,,1,,,65,0
37632,note_on,,0,0,3,,,,,,,,2,,,59,92
37632,note_on,,192,0,3,,,,,,,,2,,,60,0
37632,note_on,,0,0,8,,,,,,,,13,,,55,75
37632,note_on,,192,0,8,,,,,,,,13,,,56,0
37824,note_on,,192,0,2,,,,,,,,1,,,67,0
37824,note_on,,0,0,2,,,,,,,,1,,,67,92
37824,note_on,,0,0,4,,,,,,,,3,,,55,92
37824,note_on,,192,0,8,,,,,,,,13,,,55,0
37824,note_on,,192,0,4,,,,,,,,3,,,55,0
37824,note_on,,0,0,12,,,,,,,,8,,,55,75
37824,note_on,,192,0,12,,,,,,,,8,,,55,0
37824,note_on,,192,0,3,,,,,,,,2,,,59,0
37824,note_on,,0,0,8,,,,,,,,13,,,55,75
37824,note_on,,0,0,9,,,,,,,,14,,,43,75
37824,note_on,,192,0,9,,,,,,,,14,,,43,0
37824,note_on,,0,0,3,,,,,,,,2,,,59,92
38016,note_on,,1152,0,6,,,,,,,,11,,,60,92
38016,note_on,,192,0,12,,,,,,,,8,,,55,0
38016,note_on,,192,0,3,,,,,,,,2,,,59,0
38016,note_on,,1152,0,7,,,,,,,,12,,,55,75
38016,note_on,,192,0,8,,,,,,,,13,,,55,0
38016,note_on,,192,0,9,,,,,,,,14,,,43,0
38016,note_on,,1152,0,5,,,,,,,,10,,,67,92
38016,note_on,,192,0,4,,,,,,,,3,,,55,0
38016,note_on,,192,0,2,,,,,,,,1,,,67,0
38208,note_on,,192,0,8,,,,,,,,13,,,50,75
38208,note_on,,0,0,6,,,,,,,,11,,,59,92
38208,note_on,,0,0,7,,,,,,,,12,,,62,75
38208,note_on,,192,0,6,,,,,,,,11,,,60,0
38208,note_on,,192,0,12,,,,,,,,8,,,50,75
38208,note_on,,0,0,5,,,,,,,,10,,,65,92
38208,note_on,,192,0,5,,,,,,,,10,,,67,0
38208,note_on,,192,0,9,,,,,,,,14,,,38,75
38208,note_on,,192,0,7,,,,,,,,12,,,55,0
38400,note_on,,192,0,5,,,,,,,,10,,,65,0
38400,note_on,,192,0,12,,,,,,,,8,,,50,0
38400,note_on,,0,0,12,,,,,,,,8,,,51,75
38400,note_on,,0,0,5,,,,,,,,10,,,67,92
38400,note_on,,0,0,6,,,,,,,,11,,,60,92
38400,note_on,,0,0,7,,,,,,,,12,,,55,75
38400,note_on,,192,0,7,,,,,,,,12,,,62,0
38400,note_on,,0,0,9,,,,,,,,14,,,39,75
38400,note_on,,192,0,6,,,,,,,,11,,,59,0
38400,note_on,,192,0,8,,,,,,,,13,,,50,0
38400,note_on,,0,0,8,,,,,,,,13,,,51,75
38400,note_on,,192,0,9,,,,,,,,14,,,38,0
38592,note_on,,0,0,8,,,,,,,,13,,,53,75
38592,note_on,,0,0,9,,,,,,,,14,,,41,75
38592,note_on,,192,0,9,,,,,,,,14,,,39,0
38592,note_on,,0,0,12,,,,,,,,8,,,53,75
38592,note_on,,192,0,5,,,,,,,,10,,,67,0
38592,note_on,,192,0,8,,,,,,,,13,,,51,0
38592,note_on,,192,0,12,,,,,,,,8,,,51,0
38592,note_on,,192,0,7,,,,,,,,12,,,55,0
38592,note_on,,0,0,7,,,,,,,,12,,,60,75
38592,note_on,,0,0,5,,,,,,,,10,,,63,92
38784,note_on,,192,0,7,,,,,,,,12,,,60,0
38784,note_on,,384,0,6,,,,,,,,11,,,60,0
38784,note_on,,0,0,6,,,,,,,,11,,,59,127
38784,note_on,,0,0,7,,,,,,,,12,,,55,105
38784,note_on,,0,0,8,,,,,,,,13,,,55,105
38784,note_on,,192,0,9,,,,,,,,14,,,41,0
38784,note_on,,0,0,12,,,,,,,,8,,,55,75
38784,note_on,,192,0,8,,,,,,,,13,,,53,0
38784,note_on,,192,0,5,,,,,,,,10,,,63,0
38784,note_on,,0,0,5,,,,,,,,10,,,62,127
38784,note_on,,192,0,12,,,,,,,,8,,,53,0
38784,note_on,,0,0,9,,,,,,,,14,,,43,105
39168,note_on,,0,0,12,,,,,,,,8,,,60,75
39168,note_on,,384,0,12,,,,,,,,8,,,55,0
39168,note_on,,3264,0,1,,,,,,,,0,,,72,92
39168,note_on,,1152,0,4,,,,,,,,3,,,60,92
39168,note_on,,384,0,5,,,,,,,,10,,,62,0
39168,note_on,,3264,0,11,,,,,,,,7,,,72,92
39168,note_on,,384,0,8,,,,,,,,13,,,55,0
39168,note_on,,0,0,8,,,,,,,,13,,,60,75
39168,note_on,,384,0,7,,,,,,,,12,,,55,0
39168,note_on,,0,0,5,,,,,,,,10,,,72,92
39168,note_on,,1152,0,2,,,,,,,,1,,,67,92
39168,note_on,,0,0,9,,,,,,,,14,,,48,75
39168,note_on,,0,0,7,,,,,,,,12,,,63,75
39168,note_on,,3264,0,10,,,,,,,,5,,,72,92
39168,note_on,,384,0,6,,,,,,,,11,,,59,0
39168,note_on,,384,0,9,,,,,,,,14,,,43,0
39168,note_on,,1152,0,3,,,,,,,,2,,,63,92
39168,note_on,,0,0,6,,,,,,,,11,,,67,92
39360,note_on,,192,0,2,,,,,,,,1,,,67,0
39360,note_on,,0,0,5,,,,,,,,10,,,74,108
39360,note_on,,192,0,5,,,,,,,,10,,,72,0
39360,note_on,,192,0,3,,,,,,,,2,,,63,0
39360,note_on,,192,0,10,,,,,,,,5,,,72,0
39360,note_on,,0,0,10,,,,,,,,5,,,74,92
39360,note_on,,0,0,7,,,,,,,,12,,,65,92
39360,note_on,,192,0,8,,,,,,,,13,,,60,0
39360,note_on,,192,0,6,,,,,,,,11,,,67,0
39360,note_on,,0,0,6,,,,,,,,11,,,70,108
39360,note_on,,0,0,2,,,,,,,,1,,,62,127
39360,note_on,,0,0,4,,,,,,,,3,,,58,127
39360,note_on,,192,0,4,,,,,,,,3,,,60,0
39360,note_on,,192,0,7,,,,,,,,12,,,63,0
39360,note_on,,0,0,9,,,,,,,,14,,,46,92
39360,note_on,,192,0,9,,,,,,,,14,,,48,0
39360,note_on,,0,0,8,,,,,,,,13,,,58,92
39360,note_on,,0,0,12,,,,,,,,8,,,58,92
39360,note_on,,0,0,11,,,,,,,,7,,,74,92
39360,note_on,,192,0,1,,,,,,,,0,,,72,0
39360,note_on,,0,0,1,,,,,,,,0,,,74,127
39360,note_on,,0,0,3,,,,,,,,2,,,65,127
39360,note_on,,192,0,11,,,,,,,,7,,,72,0
39360,note_on,,192,0,12,,,,,,,,8,,,60,0
39648,note_on,,288,0,1,,,,,,,,0,,,74,0
39648,note_on,,0,0,5,,,,,,,,10,,,75,108
39648,note_on,,0,0,4,,,,,,,,3,,,60,127
39648,note_on,,288,0,4,,,,,,,,3,,,58,0
39648,note_on,,288,0,11,,,,,,,,7,,,74,0
39648,note_on,,0,0,11,,,,,,,,7,,,75,92
39648,note_on,,288,0,10,,,,,,,,5,,,74,0
39648,note_on,,0,0,10,,,,,,,,5,,,75,92
39648,note_on,,288,0,5,,,,,,,,10,,,74,0
39648,note_on,,0,0,1,,,,,,,,0,,,75,127
39744,note_on,,0,0,1,,,,,,,,0,,,72,127
39744,note_on,,0,0,7,,,,,,,,12,,,65,92
39744,note_on,,0,0,2,,,,,,,,1,,,65,127
39744,note_on,,384,0,2,,,,,,,,1,,,62,0
39744,note_on,,0,0,4,,,,,,,,3,,,56,127
39744,note_on,,96,0,4,,,,,,,,3,,,60,0
39744,note_on,,384,0,12,,,,,,,,8,,,58,0
39744,note_on,,0,0,12,,,,,,,,8,,,56,92
39744,note_on,,0,0,6,,,,,,,,11,,,72,108
39744,note_on,,384,0,6,,,,,,,,11,,,70,0
39744,note_on,,384,0,7,,,,,,,,12,,,65,0
39744,note_on,,0,0,10,,,,,,,,5,,,72,92
39744,note_on,,96,0,10,,,,,,,,5,,,75,0
39744,note_on,,96,0,5,,,,,,,,10,,,75,0
39744,note_on,,384,0,9,,,,,,,,14,,,46,0
39744,note_on,,0,0,9,,,,,,,,14,,,44,92
39744,note_on,,384,0,3,,,,,,,,2,,,65,0
39744,note_on,,384,0,8,,,,,,,,13,,,58,0
39744,note_on,,96,0,1,,,,,,,,0,,,75,0
39744,note_on,,96,0,11,,,,,,,,7,,,75,0
39744,note_on,,0,0,11,,,,,,,,7,,,72,92
39744,note_on,,0,0,8,,,,,,,,13,,,56,92
39744,note_on,,0,0,5,,,,,,,,10,,,72,108
39744,note_on,,0,0,3,,,,,,,,2,,,60,127
39840,note_on,,0,0,6,,,,,,,,11,,,62,108
39840,note_on,,96,0,6,,,,,,,,11,,,72,0
39840,note_on,,96,0,3,,,,,,,,2,,,60,0
39840,note_on,,0,0,3,,,,,,,,2,,,62,127
39936,note_on,,192,0,5,,,,,,,,10,,,72,0
39936,note_on,,0,0,5,,,,,,,,10,,,70,108
39936,note_on,,192,0,4,,,,,,,,3,,,56,0
39936,note_on,,0,0,4,,,,,,,,3,,,55,127
39936,note_on,,0,0,12,,,,,,,,8,,,55,92
39936,note_on,,96,0,6,,,,,,,,11,,,62,0
39936,note_on,,0,0,6,,,,,,,,11,,,63,108
39936,note_on,,0,0,11,,,,,,,,7,,,70,92
39936,note_on,,192,0,12,,,,,,,,8,,,56,0
39936,note_on,,192,0,8,,,,,,,,13,,,56,0
39936,note_on,,0,0,8,,,,,,,,13,,,55,92
39936,note_on,,192,0,11,,,,,,,,7,,,72,0
39936,note_on,,192,0,10,,,,,,,,5,,,72,0
39936,note_on,,0,0,10,,,,,,,,5,,,70,92
39936,note_on,,0,0,1,,,,,,,,0,,,70,127
39936,note_on,,96,0,3,,,,,,,,2,,,62,0
39936,note_on,,192,0,7,,,,,,,,12,,,65,0
39936,note_on,,192,0,1,,,,,,,,0,,,72,0
39936,note_on,,0,0,7,,,,,,,,12,,,67,92
39936,note_on,,0,0,9,,,,,,,,14,,,43,92
39936,note_on,,192,0,9,,,,,,,,14,,,44,0
39936,note_on,,0,0,2,,,,,,,,1,,,67,127
39936,note_on,,192,0,2,,,,,,,,1,,,65,0
39936,note_on,,0,0,3,,,,,,,,2,,,63,127
40128,note_on,,192,0,9,,,,,,,,14,,,43,0
40128,note_on,,0,0,9,,,,,,,,14,,,41,92
40128,note_on,,192,0,1,,,,,,,,0,,,70,0
40128,note_on,,0,0,12,,,,,,,,8,,,53,92
40128,note_on,,0,0,10,,,,,,,,5,,,68,92
40128,note_on,,192,0,10,,,,,,,,5,,,70,0
40128,note_on,,192,0,12,,,,,,,,8,,,55,0
40128,note_on,,192,0,11,,,,,,,,7,,,70,0
40128,note_on,,0,0,3,,,,,,,,2,,,56,127
40128,note_on,,0,0,2,,,,,,,,1,,,62,127
40128,note_on,,192,0,2,,,,,,,,1,,,67,0
40128,note_on,,0,0,1,,,,,,,,0,,,68,127
40128,note_on,,0,0,8,,,,,,,,13,,,53,92
40128,note_on,,192,0,3,,,,,,,,2,,,63,0
40128,note_on,,0,0,7,,,,,,,,12,,,56,92
40128,note_on,,192,0,8,,,,,,,,13,,,55,0
40128,note_on,,192,0,7,,,,,,,,12,,,67,0
40128,note_on,,0,0,11,,,,,,,,7,,,68,92
40128,note_on,,192,0,6,,,,,,,,11,,,63,0
40128,note_on,,0,0,4,,,,,,,,3,,,53,127
40128,note_on,,192,0,4,,,,,,,,3,,,55,0
40128,note_on,,192,0,5,,,,,,,,10,,,70,0
40128,note_on,,0,0,6,,,,,,,,11,,,62,108
40128,note_on,,0,0,5,,,,,,,,10,,,68,108
40320,note_on,,192,0,11,,,,,,,,7,,,68,0
40320,note_on,,0,0,11,,,,,,,,7,,,67,92
40320,note_on,,0,0,2,,,,,,,,1,,,63,127
40320,note_on,,192,0,2,,,,,,,,1,,,62,0
40320,note_on,,192,0,3,,,,,,,,2,,,56,0
40320,note_on,,192,0,6,,,,,,,,11,,,62,0
40320,note_on,,192,0,9,,,,,,,,14,,,41,0
40320,note_on,,192,0,7,,,,,,,,12,,,56,0
40320,note_on,,0,0,3,,,,,,,,2,,,58,127
40320,note_on,,0,0,1,,,,,,,,0,,,67,127
40320,note_on,,0,0,6,,,,,,,,11,,,63,108
40320,note_on,,0,0,9,,,,,,,,14,,,39,92
40320,note_on,,192,0,1,,,,,,,,0,,,68,0
40320,note_on,,0,0,7,,,,,,,,12,,,58,92
40320,note_on,,0,0,8,,,,,,,,13,,,51,92
40320,note_on,,192,0,4,,,,,,,,3,,,53,0
40320,note_on,,0,0,4,,,,,,,,3,,,51,127
40320,note_on,,192,0,5,,,,,,,,10,,,68,0
40320,note_on,,0,0,5,,,,,,,,10,,,67,108
40320,note_on,,192,0,10,,,,,,,,5,,,68,0
40320,note_on,,192,0,12,,,,,,,,8,,,53,0
40320,note_on,,0,0,12,,,,,,,,8,,,51,92
40320,note_on,,0,0,10,,,,,,,,5,,,67,92
40320,note_on,,192,0,8,,,,,,,,13,,,53,0
40464,note_on,,0,0,1,,,,,,,,0,,,68,127
40464,note_on,,144,0,1,,,,,,,,0,,,67,0
40464,note_on,,0,0,5,,,,,,,,10,,,68,108
40464,note_on,,144,0,10,,,,,,,,5,,,67,0
40464,note_on,,0,0,10,,,,,,,,5,,,68,92
40464,note_on,,0,0,11,,,,,,,,7,,,68,92
40464,note_on,,144,0,11,,,,,,,,7,,,67,0
40464,note_on,,144,0,5,,,,,,,,10,,,67,0
40464,note_on,,144,0,3,,,,,,,,2,,,58,0
40464,note_on,,0,0,3,,,,,,,,2,,,60,127
40464,note_on,,144,0,7,,,,,,,,12,,,58,0
40464,note_on,,0,0,7,,,,,,,,12,,,60,92
40512,note_on,,0,0,12,,,,,,,,8,,,50,92
40512,note_on,,192,0,12,,,,,,,,8,,,51,0
40512,note_on,,48,0,5,,,,,,,,10,,,68,0
40512,note_on,,0,0,5,,,,,,,,10,,,70,108
40512,note_on,,48,0,7,,,,,,,,12,,,60,0
40512,note_on,,0,0,8,,,,,,,,13,,,50,92
40512,note_on,,48,0,10,,,,,,,,5,,,68,0
40512,note_on,,0,0,10,,,,,,,,5,,,70,92
40512,note_on,,0,0,2,,,,,,,,1,,,65,127
40512,note_on,,192,0,8,,,,,,,,13,,,51,0
40512,note_on,,192,0,2,,,,,,,,1,,,63,0
40512,note_on,,192,0,9,,,,,,,,14,,,39,0
40512,note_on,,0,0,9,,,,,,,,14,,,38,92
40512,note_on,,0,0,7,,,,,,,,12,,,62,92
40512,note_on,,48,0,11,,,,,,,,7,,,68,0
40512,note_on,,48,0,3,,,,,,,,2,,,60,0
40512,note_on,,192,0,4,,,,,,,,3,,,51,0
40512,note_on,,0,0,4,,,,,,,,3,,,50,127
40512,note_on,,0,0,3,,,,,,,,2,,,62,127
40512,note_on,,192,0,6,,,,,,,,11,,,63,0
40512,note_on,,0,0,11,,,,,,,,7,,,70,92
40512,note_on,,0,0,6,,,,,,,,11,,,65,108
40512,note_on,,48,0,1,,,,,,,,0,,,68,0
40512,note_on,,0,0,1,,,,,,,,0,,,70,127
40704,note_on,,0,0,5,,,,,,,,10,,,72,108
40704,note_on,,0,0,2,,,,,,,,1,,,67,127
40704,note_on,,0,0,7,,,,,,,,12,,,60,92
40704,note_on,,192,0,8,,,,,,,,13,,,50,0
40704,note_on,,192,0,3,,,,,,,,2,,,62,0
40704,note_on,,0,0,11,,,,,,,,7,,,72,92
40704,note_on,,192,0,2,,,,,,,,1,,,65,0
40704,note_on,,0,0,3,,,,,,,,2,,,60,127
40704,note_on,,0,0,8,,,,,,,,13,,,51,92
40704,note_on,,192,0,5,,,,,,,,10,,,70,0
40704,note_on,,192,0,11,,,,,,,,7,,,70,0
40704,note_on,,0,0,1,,,,,,,,0,,,72,127
40704,note_on,,0,0,6,,,,,,,,11,,,67,108
40704,note_on,,0,0,9,,,,,,,,14,,,39,92
40704,note_on,,192,0,9,,,,,,,,14,,,38,0
40704,note_on,,192,0,7,,,,,,,,12,,,62,0
40704,note_on,,192,0,6,,,,,,,,11,,,65,0
40704,note_on,,0,0,10,,,,,,,,5,,,72,92
40704,note_on,,192,0,10,,,,,,,,5,,,70,0
40704,note_on,,0,0,4,,,,,,,,3,,,51,127
40704,note_on,,192,0,1,,,,,,,,0,,,70,0
40704,note_on,,192,0,4,,,,,,,,3,,,50,0
40704,note_on,,192,0,12,,,,,,,,8,,,50,0
40704,note_on,,0,0,12,,,,,,,,8,,,51,92
40896,note_on,,0,0,12,,,,,,,,8,,,53,92
40896,note_on,,192,0,6,,,,,,,,11,,,67,0
40896,note_on,,0,0,9,,,,,,,,14,,,41,92
40896,note_on,,0,0,8,,,,,,,,13,,,53,92
40896,note_on,,192,0,8,,,,,,,,13,,,51,0
40896,note_on,,0,0,7,,,,,,,,12,,,65,92
40896,note_on,,192,0,3,,,,,,,,2,,,60,0
40896,note_on,,0,0,3,,,,,,,,2,,,60,127
40896,note_on,,192,0,12,,,,,,,,8,,,51,0
40896,note_on,,192,0,10,,,,,,,,5,,,72,0
40896,note_on,,0,0,1,,,,,,,,0,,,68,127
40896,note_on,,192,0,9,,,,,,,,14,,,39,0
40896,note_on,,192,0,7,,,,,,,,12,,,60,0
40896,note_on,,0,0,5,,,,,,,,10,,,68,108
40896,note_on,,192,0,5,,,,,,,,10,,,72,0
40896,note_on,,192,0,1,,,,,,,,0,,,72,0
40896,note_on,,0,0,6,,,,,,,,11,,,60,108
40896,note_on,,192,0,2,,,,,,,,1,,,67,0
40896,note_on,,0,0,2,,,,,,,,1,,,65,127
40896,note_on,,0,0,10,,,,,,,,5,,,68,92
40896,note_on,,0,0,4,,,,,,,,3,,,53,127
40896,note_on,,0,0,11,,,,,,,,7,,,68,92
40896,note_on,,192,0,11,,,,,,,,7,,,72,0
40896,note_on,,192,0,4,,,,,,,,3,,,51,0
40992,note_on,,96,0,7,,,,,,,,12,,,65,0
40992,note_on,,0,0,7,,,,,,,,12,,,63,92
40992,note_on,,96,0,2,,,,,,,,1,,,65,0
40992,note_on,,0,0,2,,,,,,,,1,,,63,127
41088,note_on,,0,0,3,,,,,,,,2,,,59,127
41088,note_on,,192,0,3,,,,,,,,2,,,60,0
41088,note_on,,0,0,10,,,,,,,,5,,,67,92
41088,note_on,,0,0,5,,,,,,,,10,,,67,108
41088,note_on,,0,0,9,,,,,,,,14,,,43,92
41088,note_on,,192,0,9,,,,,,,,14,,,41,0
41088,note_on,,192,0,10,,,,,,,,5,,,68,0
41088,note_on,,0,0,7,,,,,,,,12,,,62,92
41088,note_on,,192,0,5,,,,,,,,10,,,68,0
41088,note_on,,96,0,7,,,,,,,,12,,,63,0
41088,note_on,,0,0,6,,,,,,,,11,,,59,108
41088,note_on,,192,0,11,,,,,,,,7,,,68,0
41088,note_on,,192,0,4,,,,,,,,3,,,53,0
41088,note_on,,0,0,12,,,,,,,,8,,,55,92
41088,note_on,,0,0,1,,,,,,,,0,,,67,127
41088,note_on,,192,0,1,,,,,,,,0,,,68,0
41088,note_on,,192,0,6,,,,,,,,11,,,60,0
41088,note_on,,0,0,11,,,,,,,,7,,,67,92
41088,note_on,,192,0,12,,,,,,,,8,,,53,0
41088,note_on,,192,0,8,,,,,,,,13,,,53,0
41088,note_on,,96,0,2,,,,,,,,1,,,63,0
41088,note_on,,0,0,2,,,,,,,,1,,,62,127
41088,note_on,,0,0,4,,,,,,,,3,,,55,127
41088,note_on,,0,0,8,,,,,,,,13,,,55,92
41472,note_on,,384,0,6,,,,,,,,11,,,59,0
41472,note_on,,384,0,5,,,,,,,,10,,,67,0
41472,note_on,,384,0,4,,,,,,,,3,,,55,0
41472,note_on,,0,0,6,,,,,,,,11,,,60,108
41472,note_on,,0,0,7,,,,,,,,12,,,63,92
41472,note_on,,384,0,7,,,,,,,,12,,,62,0
41472,note_on,,0,0,5,,,,,,,,10,,,67,108
41472,note_on,,384,0,1,,,,,,,,0,,,67,0
41472,note_on,,384,0,12,,,,,,,,8,,,55,0
41472,note_on,,384,0,9,,,,,,,,14,,,43,0
41472,note_on,,0,0,9,,,,,,,,14,,,48,92
41472,note_on,,0,0,8,,,,,,,,13,,,60,92
41472,note_on,,384,0,8,,,,,,,,13,,,55,0
41472,note_on,,384,0,2,,,,,,,,1,,,62,0
41472,note_on,,0,0,12,,,,,,,,8,,,60,92
41472,note_on,,384,0,3,,,,,,,,2,,,59,0
41472,note_on,,384,0,11,,,,,,,,7,,,67,0
41472,note_on,,384,0,10,,,,,,,,5,,,67,0
41664,note_on,,192,0,9,,,,,,,,14,,,48,0
41664,note_on,,0,0,9,,,,,,,,14,,,46,92
41664,note_on,,192,0,6,,,,,,,,11,,,60,0
41664,note_on,,192,0,12,,,,,,,,8,,,60,0
41664,note_on,,0,0,12,,,,,,,,8,,,58,92
41664,note_on,,192,0,7,,,,,,,,12,,,63,0
41664,note_on,,192,0,8,,,,,,,,13,,,60,0
41664,note_on,,192,0,5,,,,,,,,10,,,67,0
41664,note_on,,0,0,8,,,,,,,,13,,,58,92
41664,note_on,,0,0,7,,,,,,,,12,,,62,92
41664,note_on,,0,0,6,,,,,,,,11,,,65,108
41856,note_on,,384,0,10,,,,,,,,5,,,74,92
41856,note_on,,384,0,3,,,,,,,,2,,,62,92
41856,note_on,,384,0,2,,,,,,,,1,,,65,92
41856,note_on,,384,0,1,,,,,,,,0,,,74,92
41856,note_on,,384,0,4,,,,,,,,3,,,58,92
41856,note_on,,192,0,5,,,,,,,,10,,,74,92
41856,note_on,,384,0,11,,,,,,,,7,,,74,92
42048,note_on,,192,0,1,,,,,,,,0,,,74,0
42048,note_on,,0,0,1,,,,,,,,0,,,72,92
42048,note_on,,0,0,2,,,,,,,,1,,,65,92
42048,note_on,,0,0,10,,,,,,,,5,,,72,92
42048,note_on,,192,0,10,,,,,,,,5,,,74,0
42048,note_on,,192,0,2,,,,,,,,1,,,65,0
42048,note_on,,192,0,11,,,,,,,,7,,,74,0
42048,note_on,,0,0,5,,,,,,,,10,,,72,92
42048,note_on,,384,0,8,,,,,,,,13,,,58,0
42048,note_on,,0,0,6,,,,,,,,11,,,65,92
42048,note_on,,384,0,6,,,,,,,,11,,,65,0
42048,note_on,,0,0,11,,,,,,,,7,,,72,92
42048,note_on,,192,0,5,,,,,,,,10,,,74,0
42048,note_on,,0,0,8,,,,,,,,13,,,56,75
42048,note_on,,0,0,4,,,,,,,,3,,,56,92
42048,note_on,,384,0,12,,,,,,,,8,,,58,0
42048,note_on,,0,0,3,,,,,,,,2,,,62,92
42048,note_on,,192,0,3,,,,,,,,2,,,62,0
42048,note_on,,384,0,9,,,,,,,,14,,,46,0
42048,note_on,,0,0,9,,,,,,,,14,,,44,75
42048,note_on,,0,0,12,,,,,,,,8,,,56,75
42048,note_on,,192,0,4,,,,,,,,3,,,58,0
42240,note_on,,576,0,7,,,,,,,,12,,,62,0
42240,note_on,,0,0,7,,,,,,,,12,,,62,75
42240,note_on,,0,0,1,,,,,,,,0,,,71,92
42240,note_on,,192,0,6,,,,,,,,11,,,65,0
42240,note_on,,0,0,6,,,,,,,,11,,,67,92
42240,note_on,,192,0,8,,,,,,,,13,,,56,0
42240,note_on,,0,0,8,,,,,,,,13,,,55,75
42240,note_on,,192,0,12,,,,,,,,8,,,56,0
42240,note_on,,0,0,4,,,,,,,,3,,,55,92
42240,note_on,,192,0,4,,,,,,,,3,,,56,0
42240,note_on,,192,0,1,,,,,,,,0,,,72,0
42240,note_on,,192,0,5,,,,,,,,10,,,72,0
42240,note_on,,0,0,9,,,,,,,,14,,,43,75
42240,note_on,,0,0,12,,,,,,,,8,,,55,75
42240,note_on,,0,0,11,,,,,,,,7,,,71,92
42240,note_on,,192,0,11,,,,,,,,7,,,72,0
42240,note_on,,0,0,5,,,,,,,,10,,,71,92
42240,note_on,,192,0,10,,,,,,,,5,,,72,0
42240,note_on,,0,0,10,,,,,,,,5,,,71,92
42240,note_on,,192,0,9,,,,,,,,14,,,44,0
42240,note_on,,0,0,2,,,,,,,,1,,,67,92
42240,note_on,,0,0,3,,,,,,,,2,,,62,92
42240,note_on,,192,0,3,,,,,,,,2,,,62,0
42240,note_on,,192,0,2,,,,,,,,1,,,65,0
42384,note_on,,0,0,2,,,,,,,,1,,,67,92
42384,note_on,,144,0,4,,,,,,,,3,,,55,0
42384,note_on,,0,0,4,,,,,,,,3,,,57,92
42384,note_on,,144,0,2,,,,,,,,1,,,67,0
42384,note_on,,144,0,11,,,,,,,,7,,,71,0
42384,note_on,,144,0,3,,,,,,,,2,,,62,0
42384,note_on,,0,0,3,,,,,,,,2,,,62,92
42384,note_on,,0,0,10,,,,,,,,5,,,72,92
42384,note_on,,144,0,10,,,,,,,,5,,,71,0
42384,note_on,,144,0,1,,,,,,,,0,,,71,0
42384,note_on,,0,0,1,,,,,,,,0,,,72,92
42384,note_on,,0,0,11,,,,,,,,7,,,72,92
42432,note_on,,0,0,4,,,,,,,,3,,,59,92
42432,note_on,,48,0,4,,,,,,,,3,,,57,0
42432,note_on,,192,0,8,,,,,,,,13,,,55,0
42432,note_on,,48,0,10,,,,,,,,5,,,72,0
42432,note_on,,0,0,10,,,,,,,,5,,,74,92
42432,note_on,,48,0,1,,,,,,,,0,,,72,0
42432,note_on,,0,0,1,,,,,,,,0,,,74,92
42432,note_on,,0,0,8,,,,,,,,13,,,53,75
42432,note_on,,192,0,12,,,,,,,,8,,,55,0
42432,note_on,,0,0,12,,,,,,,,8,,,53,75
42432,note_on,,0,0,11,,,,,,,,7,,,74,92
42432,note_on,,0,0,9,,,,,,,,14,,,41,75
42432,note_on,,48,0,11,,,,,,,,7,,,72,0
42432,note_on,,0,0,3,,,,,,,,2,,,62,92
42432,note_on,,48,0,3,,,,,,,,2,,,62,0
42432,note_on,,48,0,2,,,,,,,,1,,,67,0
42432,note_on,,192,0,9,,,,,,,,14,,,43,0
42432,note_on,,0,0,2,,,,,,,,1,,,67,92
42624,note_on,,192,0,10,,,,,,,,5,,,74,0
42624,note_on,,384,0,7,,,,,,,,12,,,62,0
42624,note_on,,192,0,11,,,,,,,,7,,,74,0
42624,note_on,,192,0,12,,,,,,,,8,,,53,0
42624,note_on,,0,0,6,,,,,,,,11,,,67,92
42624,note_on,,384,0,6,,,,,,,,11,,,67,0
42624,note_on,,0,0,12,,,,,,,,8,,,51,75
42624,note_on,,192,0,9,,,,,,,,14,,,41,0
42624,note_on,,0,0,9,,,,,,,,14,,,39,75
42624,note_on,,192,0,1,,,,,,,,0,,,74,0
42624,note_on,,192,0,8,,,,,,,,13,,,53,0
42624,note_on,,0,0,8,,,,,,,,13,,,51,75
42624,note_on,,0,0,7,,,,,,,,12,,,63,75
42624,note_on,,192,0,4,,,,,,,,3,,,59,0
42624,note_on,,192,0,3,,,,,,,,2,,,62,0
42624,note_on,,192,0,2,,,,,,,,1,,,67,0
42624,note_on,,384,0,5,,,,,,,,10,,,71,0
42624,note_on,,0,0,5,,,,,,,,10,,,72,92
42816,note_on,,192,0,5,,,,,,,,10,,,72,0
42816,note_on,,0,0,5,,,,,,,,10,,,77,92
42816,note_on,,192,0,7,,,,,,,,12,,,63,0
42816,note_on,,0,0,7,,,,,,,,12,,,65,75
42816,note_on,,192,0,12,,,,,,,,8,,,51,0
42816,note_on,,0,0,8,,,,,,,,13,,,50,75
42816,note_on,,0,0,12,,,,,,,,8,,,50,75
42816,note_on,,0,0,6,,,,,,,,11,,,71,92
42816,note_on,,192,0,6,,,,,,,,11,,,67,0
42816,note_on,,192,0,9,,,,,,,,14,,,39,0
42816,note_on,,0,0,9,,,,,,,,14,,,38,75
42816,note_on,,192,0,8,,,,,,,,13,,,51,0
43008,note_on,,192,0,7,,,,,,,,12,,,65,0
43008,note_on,,0,0,12,,,,,,,,8,,,51,92
43008,note_on,,384,0,10,,,,,,,,5,,,75,92
43008,note_on,,192,0,8,,,,,,,,13,,,50,0
43008,note_on,,384,0,2,,,,,,,,1,,,67,127
43008,note_on,,384,0,1,,,,,,,,0,,,75,127
43008,note_on,,192,0,12,,,,,,,,8,,,50,0
43008,note_on,,0,0,8,,,,,,,,13,,,51,92
43008,note_on,,0,0,5,,,,,,,,10,,,75,108
43008,note_on,,384,0,3,,,,,,,,2,,,60,127
43008,note_on,,192,0,5,,,,,,,,10,,,77,0
43008,note_on,,192,0,9,,,,,,,,14,,,38,0
43008,note_on,,384,0,4,,,,,,,,3,,,60,127
43008,note_on,,384,0,11,,,,,,,,7,,,75,92
43008,note_on,,0,0,6,,,,,,,,11,,,72,108
43008,note_on,,192,0,6,,,,,,,,11,,,71,0
43008,note_on,,0,0,7,,,,,,,,12,,,67,92
43008,note_on,,0,0,9,,,,,,,,14,,,39,92
43200,note_on,,192,0,1,,,,,,,,0,,,75,0
43200,note_on,,0,0,1,,,,,,,,0,,,74,127
43200,note_on,,192,0,3,,,,,,,,2,,,60,0
43200,note_on,,192,0,8,,,,,,,,13,,,51,0
43200,note_on,,0,0,8,,,,,,,,13,,,53,92
43200,note_on,,0,0,9,,,,,,,,14,,,41,92
43200,note_on,,0,0,3,,,,,,,,2,,,60,127
43200,note_on,,192,0,9,,,,,,,,14,,,39,0
43200,note_on,,192,0,2,,,,,,,,1,,,67,0
43200,note_on,,0,0,12,,,,,,,,8,,,53,92
43200,note_on,,192,0,12,,,,,,,,8,,,51,0
43200,note_on,,0,0,11,,,,,,,,7,,,74,92
43200,note_on,,192,0,4,,,,,,,,3,,,60,0
43200,note_on,,0,0,7,,,,,,,,12,,,68,92
43200,note_on,,192,0,7,,,,,,,,12,,,67,0
43200,note_on,,192,0,10,,,,,,,,5,,,75,0
43200,note_on,,0,0,10,,,,,,,,5,,,74,92
43200,note_on,,0,0,2,,,,,,,,1,,,68,127
43200,note_on,,192,0,5,,,,,,,,10,,,75,0
43200,note_on,,0,0,5,,,,,,,,10,,,74,108
43200,note_on,,0,0,4,,,,,,,,3,,,53,127
43200,note_on,,192,0,11,,,,,,,,7,,,75,0
43392,note_on,,192,0,3,,,,,,,,2,,,60,0
43392,note_on,,0,0,3,,,,,,,,2,,,60,127
43392,note_on,,192,0,1,,,,,,,,0,,,74,0
43392,note_on,,192,0,8,,,,,,,,13,,,53,0
43392,note_on,,0,0,6,,,,,,,,11,,,72,108
43392,note_on,,384,0,6,,,,,,,,11,,,72,0
43392,note_on,,0,0,12,,,,,,,,8,,,55,92
43392,note_on,,192,0,12,,,,,,,,8,,,53,0
43392,note_on,,192,0,4,,,,,,,,3,,,53,0
43392,note_on,,0,0,4,,,,,,,,3,,,55,127
43392,note_on,,0,0,8,,,,,,,,13,,,55,92
43392,note_on,,0,0,5,,,,,,,,10,,,74,108
43392,note_on,,192,0,5,,,,,,,,10,,,74,0
43392,note_on,,0,0,1,,,,,,,,0,,,74,127
43392,note_on,,0,0,10,,,,,,,,5,,,74,92
43392,note_on,,192,0,10,,,,,,,,5,,,74,0
43392,note_on,,192,0,7,,,,,,,,12,,,68,0
43392,note_on,,0,0,7,,,,,,,,12,,,67,92
43392,note_on,,192,0,11,,,,,,,,7,,,74,0
43392,note_on,,0,0,11,,,,,,,,7,,,74,92
43392,note_on,,0,0,2,,,,,,,,1,,,67,127
43392,note_on,,192,0,2,,,,,,,,1,,,68,0
43392,note_on,,192,0,9,,,,,,,,14,,,41,0
43392,note_on,,0,0,9,,,,,,,,14,,,43,92
43584,note_on,,0,0,3,,,,,,,,2,,,59,127
43584,note_on,,0,0,6,,,,,,,,11,,,71,108
43584,note_on,,192,0,6,,,,,,,,11,,,72,0
43584,note_on,,192,0,3,,,,,,,,2,,,60,0
43680,note_on,,288,0,2,,,,,,,,1,,,67,0
43680,note_on,,0,0,2,,,,,,,,1,,,65,127
43680,note_on,,0,0,7,,,,,,,,12,,,65,92
43680,note_on,,288,0,7,,,,,,,,12,,,67,0
43776,note_on,,0,0,10,,,,,,,,5,,,72,92
43776,note_on,,384,0,10,,,,,,,,5,,,74,0
43776,note_on,,0,0,8,,,,,,,,13,,,48,92
43776,note_on,,0,0,11,,,,,,,,7,,,72,92
43776,note_on,,384,0,11,,,,,,,,7,,,74,0
43776,note_on,,0,0,9,,,,,,,,14,,,36,92
43776,note_on,,384,0,9,,,,,,,,14,,,43,0
43776,note_on,,384,0,8,,,,,,,,13,,,55,0
43776,note_on,,96,0,7,,,,,,,,12,,,65,0
43776,note_on,,0,0,7,,,,,,,,12,,,63,92
43776,note_on,,0,0,6,,,,,,,,11,,,67,108
43776,note_on,,0,0,4,,,,,,,,3,,,48,127
43776,note_on,,0,0,5,,,,,,,,10,,,72,108
43776,note_on,,384,0,5,,,,,,,,10,,,74,0
43776,note_on,,0,0,3,,,,,,,,2,,,55,127
43776,note_on,,192,0,3,,,,,,,,2,,,59,0
43776,note_on,,0,0,1,,,,,,,,0,,,72,127
43776,note_on,,384,0,1,,,,,,,,0,,,74,0
43776,note_on,,96,0,2,,,,,,,,1,,,65,0
43776,note_on,,192,0,6,,,,,,,,11,,,71,0
43776,note_on,,384,0,4,,,,,,,,3,,,55,0
43776,note_on,,384,0,12,,,,,,,,8,,,55,0
43776,note_on,,0,0,12,,,,,,,,8,,,48,92
43776,note_on,,0,0,2,,,,,,,,1,,,63,127
43968,note_on,,192,0,4,,,,,,,,3,,,48,0
43968,note_on,,192,0,1,,,,,,,,0,,,72,0
43968,note_on,,0,0,1,,,,,,,,0,,,65,127
43968,note_on,,0,0,4,,,,,,,,3,,,46,127
43968,note_on,,0,0,2,,,,,,,,1,,,62,127
43968,note_on,,192,0,3,,,,,,,,2,,,55,0
43968,note_on,,0,0,3,,,,,,,,2,,,58,127
43968,note_on,,192,0,2,,,,,,,,1,,,63,0
43968,note_on,,192,0,5,,,,,,,,10,,,72,0
43968,note_on,,0,0,5,,,,,,,,10,,,65,108
43968,note_on,,0,0,6,,,,,,,,11,,,62,108
43968,note_on,,192,0,10,,,,,,,,5,,,72,0
43968,note_on,,0,0,10,,,,,,,,5,,,65,92
43968,note_on,,192,0,12,,,,,,,,8,,,48,0
43968,note_on,,192,0,6,,,,,,,,11,,,67,0
43968,note_on,,192,0,9,,,,,,,,14,,,36,0
43968,note_on,,0,0,9,,,,,,,,14,,,34,92
43968,note_on,,0,0,12,,,,,,,,8,,,46,92
43968,note_on,,0,0,8,,,,,,,,13,,,46,92
43968,note_on,,0,0,11,,,,,,,,7,,,65,92
43968,note_on,,192,0,8,,,,,,,,13,,,48,0
43968,note_on,,192,0,7,,,,,,,,12,,,63,0
43968,note_on,,0,0,7,,,,,,,,12,,,58,92
43968,note_on,,192,0,11,,,,,,,,7,,,72,0
44352,note_on,,0,0,12,,,,,,,,8,,,44,92
44352,note_on,,384,0,12,,,,,,,,8,,,46,0
44352,note_on,,384,0,8,,,,,,,,13,,,46,0
44352,note_on,,0,0,9,,,,,,,,14,,,32,92
44352,note_on,,384,0,9,,,,,,,,14,,,34,0
44352,note_on,,0,0,8,,,,,,,,13,,,44,92
44544,note_on,,192,0,12,,,,,,,,8,,,44,0
44544,note_on,,192,0,8,,,,,,,,13,,,44,0
44544,note_on,,0,0,8,,,,,,,,13,,,43,92
44544,note_on,,576,0,5,,,,,,,,10,,,65,0
44544,note_on,,0,0,5,,,,,,,,10,,,67,108
44544,note_on,,0,0,12,,,,,,,,8,,,43,92
44544,note_on,,576,0,1,,,,,,,,0,,,65,0
44544,note_on,,576,0,6,,,,,,,,11,,,62,0
44544,note_on,,576,0,2,,,,,,,,1,,,62,0
44544,note_on,,0,0,2,,,,,,,,1,,,63,127
44544,note_on,,0,0,11,,,,,,,,7,,,67,92
44544,note_on,,576,0,11,,,,,,,,7,,,65,0
44544,note_on,,192,0,9,,,,,,,,14,,,32,0
44544,note_on,,0,0,9,,,,,,,,14,,,31,92
44544,note_on,,0,0,7,,,,,,,,12,,,58,92
44544,note_on,,0,0,10,,,,,,,,5,,,67,92
44544,note_on,,576,0,10,,,,,,,,5,,,65,0
44544,note_on,,576,0,7,,,,,,,,12,,,58,0
44544,note_on,,0,0,3,,,,,,,,2,,,58,127
44544,note_on,,576,0,4,,,,,,,,3,,,46,0
44544,note_on,,0,0,1,,,,,,,,0,,,67,127
44544,note_on,,0,0,6,,,,,,,,11,,,63,108
44544,note_on,,576,0,3,,,,,,,,2,,,58,0
44544,note_on,,0,0,4,,,,,,,,3,,,51,127
44736,note_on,,192,0,5,,,,,,,,10,,,67,0
44736,note_on,,192,0,10,,,,,,,,5,,,67,0
44736,note_on,,0,0,10,,,,,,,,5,,,68,92
44736,note_on,,192,0,1,,,,,,,,0,,,67,0
44736,note_on,,0,0,1,,,,,,,,0,,,68,127
44736,note_on,,0,0,6,,,,,,,,11,,,62,108
44736,note_on,,192,0,11,,,,,,,,7,,,67,0
44736,note_on,,0,0,11,,,,,,,,7,,,68,92
44736,note_on,,0,0,4,,,,,,,,3,,,53,127
44736,note_on,,192,0,6,,,,,,,,11,,,63,0
44736,note_on,,0,0,5,,,,,,,,10,,,68,108
44736,note_on,,192,0,3,,,,,,,,2,,,58,0
44736,note_on,,0,0,3,,,,,,,,2,,,56,127
44736,note_on,,0,0,2,,,,,,,,1,,,62,127
44736,note_on,,192,0,2,,,,,,,,1,,,63,0
44736,note_on,,0,0,7,,,,,,,,12,,,56,92
44736,note_on,,0,0,12,,,,,,,,8,,,41,92
44736,note_on,,0,0,9,,,,,,,,14,,,29,92
44736,note_on,,192,0,4,,,,,,,,3,,,51,0
44736,note_on,,192,0,9,,,,,,,,14,,,31,0
44736,note_on,,0,0,8,,,,,,,,13,,,41,92
44736,note_on,,192,0,8,,,,,,,,13,,,43,0
44736,note_on,,192,0,12,,,,,,,,8,,,43,0
44736,note_on,,192,0,7,,,,,,,,12,,,58,0
44928,note_on,,0,0,7,,,,,,,,12,,,58,92
44928,note_on,,0,0,6,,,,,,,,11,,,63,108
44928,note_on,,192,0,6,,,,,,,,11,,,62,0
44928,note_on,,192,0,9,,,,,,,,14,,,29,0
44928,note_on,,192,0,1,,,,,,,,0,,,68,0
44928,note_on,,0,0,3,,,,,,,,2,,,58,127
44928,note_on,,192,0,3,,,,,,,,2,,,56,0
44928,note_on,,0,0,1,,,,,,,,0,,,67,127
44928,note_on,,0,0,10,,,,,,,,5,,,67,92
44928,note_on,,192,0,10,,,,,,,,5,,,68,0
44928,note_on,,192,0,2,,,,,,,,1,,,62,0
44928,note_on,,192,0,4,,,,,,,,3,,,53,0
44928,note_on,,0,0,4,,,,,,,,3,,,51,127
44928,note_on,,0,0,9,,,,,,,,14,,,27,92
44928,note_on,,192,0,8,,,,,,,,13,,,41,0
44928,note_on,,0,0,8,,,,,,,,13,,,39,92
44928,note_on,,0,0,2,,,,,,,,1,,,63,127
44928,note_on,,0,0,11,,,,,,,,7,,,67,92
44928,note_on,,192,0,11,,,,,,,,7,,,68,0
44928,note_on,,192,0,5,,,,,,,,10,,,68,0
44928,note_on,,0,0,5,,,,,,,,10,,,67,108
44928,note_on,,192,0,7,,,,,,,,12,,,56,0
44928,note_on,,0,0,12,,,,,,,,8,,,39,92
44928,note_on,,192,0,12,,,,,,,,8,,,41,0
45072,note_on,,144,0,7,,,,,,,,12,,,58,0
45072,note_on,,144,0,10,,,,,,,,5,,,67,0
45072,note_on,,0,0,7,,,,,,,,12,,,60,92
45072,note_on,,144,0,1,,,,,,,,0,,,67,0
45072,note_on,,0,0,10,,,,,,,,5,,,68,92
45072,note_on,,0,0,3,,,,,,,,2,,,60,127
45072,note_on,,0,0,5,,,,,,,,10,,,68,108
45072,note_on,,144,0,5,,,,,,,,10,,,67,0
45072,note_on,,144,0,11,,,,,,,,7,,,67,0
45072,note_on,,0,0,11,,,,,,,,7,,,68,92
45072,note_on,,0,0,1,,,,,,,,0,,,68,127
45072,note_on,,144,0,3,,,,,,,,2,,,58,0
45120,note_on,,48,0,10,,,,,,,,5,,,68,0
45120,note_on,,0,0,10,,,,,,,,5,,,70,92
45120,note_on,,48,0,11,,,,,,,,7,,,68,0
45120,note_on,,0,0,9,,,,,,,,14,,,26,92
45120,note_on,,48,0,1,,,,,,,,0,,,68,0
45120,note_on,,0,0,1,,,,,,,,0,,,70,127
45120,note_on,,0,0,6,,,,,,,,11,,,65,108
45120,note_on,,192,0,6,,,,,,,,11,,,63,0
45120,note_on,,48,0,3,,,,,,,,2,,,60,0
45120,note_on,,0,0,3,,,,,,,,2,,,62,127
45120,note_on,,0,0,12,,,,,,,,8,,,38,92
45120,note_on,,0,0,5,,,,,,,,10,,,70,108
45120,note_on,,48,0,5,,,,,,,,10,,,68,0
45120,note_on,,0,0,8,,,,,,,,13,,,38,92
45120,note_on,,192,0,8,,,,,,,,13,,,39,0
45120,note_on,,0,0,4,,,,,,,,3,,,50,127
45120,note_on,,192,0,4,,,,,,,,3,,,51,0
45120,note_on,,192,0,9,,,,,,,,14,,,27,0
45120,note_on,,0,0,11,,,,,,,,7,,,70,92
45120,note_on,,192,0,12,,,,,,,,8,,,39,0
45120,note_on,,0,0,2,,,,,,,,1,,,65,127
45120,note_on,,192,0,2,,,,,,,,1,,,63,0
45120,note_on,,48,0,7,,,,,,,,12,,,60,0
45120,note_on,,0,0,7,,,,,,,,12,,,62,92
45312,note_on,,0,0,2,,,,,,,,1,,,67,127
45312,note_on,,192,0,3,,,,,,,,2,,,62,0
45312,note_on,,0,0,8,,,,,,,,13,,,39,92
45312,note_on,,192,0,8,,,,,,,,13,,,38,0
45312,note_on,,192,0,10,,,,,,,,5,,,70,0
45312,note_on,,0,0,10,,,,,,,,5,,,72,92
45312,note_on,,192,0,7,,,,,,,,12,,,62,0
45312,note_on,,0,0,7,,,,,,,,12,,,60,92
45312,note_on,,192,0,4,,,,,,,,3,,,50,0
45312,note_on,,0,0,3,,,,,,,,2,,,60,127
45312,note_on,,192,0,2,,,,,,,,1,,,65,0
45312,note_on,,192,0,6,,,,,,,,11,,,65,0
45312,note_on,,0,0,6,,,,,,,,11,,,67,108
45312,note_on,,192,0,11,,,,,,,,7,,,70,0
45312,note_on,,0,0,11,,,,,,,,7,,,72,92
45312,note_on,,0,0,4,,,,,,,,3,,,51,127
45312,note_on,,192,0,5,,,,,,,,10,,,70,0
45312,note_on,,0,0,5,,,,,,,,10,,,72,108
45312,note_on,,192,0,12,,,,,,,,8,,,38,0
45312,note_on,,0,0,12,,,,,,,,8,,,39,92
45312,note_on,,0,0,9,,,,,,,,14,,,27,92
45312,note_on,,0,0,1,,,,,,,,0,,,72,127
45312,note_on,,192,0,1,,,,,,,,0,,,70,0
45312,note_on,,192,0,9,,,,,,,,14,,,26,0
45504,note_on,,0,0,9,,,,,,,,14,,,29,92
45504,note_on,,192,0,9,,,,,,,,14,,,27,0
45504,note_on,,192,0,7,,,,,,,,12,,,60,0
45504,note_on,,0,0,7,,,,,,,,12,,,65,92
45504,note_on,,0,0,12,,,,,,,,8,,,41,92
45504,note_on,,0,0,4,,,,,,,,3,,,53,127
45504,note_on,,192,0,4,,,,,,,,3,,,51,0
45504,note_on,,192,0,12,,,,,,,,8,,,39,0
45504,note_on,,192,0,6,,,,,,,,11,,,67,0
45504,note_on,,0,0,10,,,,,,,,5,,,74,92
45504,note_on,,192,0,10,,,,,,,,5,,,72,0
45504,note_on,,0,0,6,,,,,,,,11,,,68,108
45504,note_on,,0,0,1,,,,,,,,0,,,74,127
45504,note_on,,192,0,1,,,,,,,,0,,,72,0
45504,note_on,,0,0,2,,,,,,,,1,,,68,127
45504,note_on,,192,0,5,,,,,,,,10,,,72,0
45504,note_on,,0,0,5,,,,,,,,10,,,74,108
45504,note_on,,192,0,3,,,,,,,,2,,,60,0
45504,note_on,,0,0,3,,,,,,,,2,,,65,127
45504,note_on,,192,0,2,,,,,,,,1,,,67,0
45504,note_on,,192,0,11,,,,,,,,7,,,72,0
45504,note_on,,192,0,8,,,,,,,,13,,,39,0
45504,note_on,,0,0,8,,,,,,,,13,,,41,92
45504,note_on,,0,0,11,,,,,,,,7,,,74,92
45696,note_on,,0,0,12,,,,,,,,8,,,43,92
45696,note_on,,192,0,12,,,,,,,,8,,,41,0
45696,note_on,,0,0,8,,,,,,,,13,,,43,92
45696,note_on,,0,0,7,,,,,,,,12,,,62,92
45696,note_on,,0,0,10,,,,,,,,5,,,71,92
45696,note_on,,192,0,10,,,,,,,,5,,,74,0
45696,note_on,,0,0,1,,,,,,,,0,,,71,127
45696,note_on,,192,0,1,,,,,,,,0,,,74,0
45696,note_on,,192,0,11,,,,,,,,7,,,74,0
45696,note_on,,192,0,3,,,,,,,,2,,,65,0
45696,note_on,,0,0,3,,,,,,,,2,,,62,127
45696,note_on,,192,0,8,,,,,,,,13,,,41,0
45696,note_on,,192,0,6,,,,,,,,11,,,68,0
45696,note_on,,0,0,11,,,,,,,,7,,,71,92
45696,note_on,,0,0,6,,,,,,,,11,,,67,108
45696,note_on,,0,0,5,,,,,,,,10,,,71,108
45696,note_on,,192,0,2,,,,,,,,1,,,68,0
45696,note_on,,0,0,2,,,,,,,,1,,,67,127
45696,note_on,,0,0,4,,,,,,,,3,,,55,127
45696,note_on,,192,0,7,,,,,,,,12,,,65,0
45696,note_on,,192,0,9,,,,,,,,14,,,29,0
45696,note_on,,0,0,9,,,,,,,,14,,,31,92
45696,note_on,,192,0,5,,,,,,,,10,,,74,0
45696,note_on,,192,0,4,,,,,,,,3,,,53,0
45888,note_on,,192,0,7,,,,,,,,12,,,62,0
45888,note_on,,0,0,7,,,,,,,,12,,,55,92
45888,note_on,,192,0,3,,,,,,,,2,,,62,0
45888,note_on,,0,0,3,,,,,,,,2,,,55,127
45888,note_on,,192,0,6,,,,,,,,11,,,67,0
45888,note_on,,0,0,2,,,,,,,,1,,,62,127
45888,note_on,,192,0,2,,,,,,,,1,,,67,0
45888,note_on,,0,0,6,,,,,,,,11,,,62,108
45984,note_on,,0,0,5,,,,,,,,10,,,69,108
45984,note_on,,288,0,5,,,,,,,,10,,,71,0
45984,note_on,,288,0,11,,,,,,,,7,,,71,0
45984,note_on,,288,0,1,,,,,,,,0,,,71,0
45984,note_on,,0,0,1,,,,,,,,0,,,69,127
45984,note_on,,288,0,10,,,,,,,,5,,,71,0
45984,note_on,,0,0,11,,,,,,,,7,,,69,92
45984,note_on,,0,0,10,,,,,,,,5,,,69,92
46080,note_on,,384,0,12,,,,,,,,8,,,43,0
46080,note_on,,0,0,5,,,,,,,,10,,,67,108
46080,note_on,,96,0,5,,,,,,,,10,,,69,0
46080,note_on,,0,0,1,,,,,,,,0,,,67,127
46080,note_on,,0,0,3,,,,,,,,2,,,55,127
46080,note_on,,192,0,3,,,,,,,,2,,,55,0
46080,note_on,,192,0,6,,,,,,,,11,,,62,0
46080,note_on,,0,0,6,,,,,,,,11,,,63,108
46080,note_on,,0,0,9,,,,,,,,14,,,36,92
46080,note_on,,384,0,9,,,,,,,,14,,,31,0
46080,note_on,,0,0,11,,,,,,,,7,,,67,92
46080,note_on,,96,0,11,,,,,,,,7,,,69,0
46080,note_on,,384,0,8,,,,,,,,13,,,43,0
46080,note_on,,0,0,8,,,,,,,,13,,,48,92
46080,note_on,,0,0,4,,,,,,,,3,,,48,127
46080,note_on,,96,0,1,,,,,,,,0,,,69,0
46080,note_on,,192,0,2,,,,,,,,1,,,62,0
46080,note_on,,0,0,2,,,,,,,,1,,,63,127
46080,note_on,,0,0,7,,,,,,,,12,,,55,92
46080,note_on,,192,0,7,,,,,,,,12,,,55,0
46080,note_on,,96,0,10,,,,,,,,5,,,69,0
46080,note_on,,0,0,12,,,,,,,,8,,,48,92
46080,note_on,,384,0,4,,,,,,,,3,,,55,0
46080,note_on,,0,0,10,,,,,,,,5,,,67,92
46272,note_on,,0,0,9,,,,,,,,14,,,34,92
46272,note_on,,0,0,12,,,,,,,,8,,,46,92
46272,note_on,,192,0,9,,,,,,,,14,,,36,0
46272,note_on,,192,0,8,,,,,,,,13,,,48,0
46272,note_on,,192,0,2,,,,,,,,1,,,63,0
46272,note_on,,0,0,8,,,,,,,,13,,,46,92
46272,note_on,,192,0,3,,,,,,,,2,,,55,0
46272,note_on,,192,0,1,,,,,,,,0,,,67,0
46272,note_on,,192,0,5,,,,,,,,10,,,67,0
46272,note_on,,192,0,6,,,,,,,,11,,,63,0
46272,note_on,,0,0,6,,,,,,,,11,,,62,108
46272,note_on,,192,0,4,,,,,,,,3,,,48,0
46272,note_on,,0,0,7,,,,,,,,12,,,55,92
46272,note_on,,192,0,7,,,,,,,,12,,,55,0
46272,note_on,,192,0,12,,,,,,,,8,,,48,0
46272,note_on,,192,0,10,,,,,,,,5,,,67,0
46272,note_on,,192,0,11,,,,,,,,7,,,67,0
46464,note_on,,192,0,11,,,,,,,,7,,,67,92
46464,note_on,,192,0,3,,,,,,,,2,,,55,127
46464,note_on,,192,0,4,,,,,,,,3,,,46,127
46464,note_on,,192,0,1,,,,,,,,0,,,67,127
46464,note_on,,192,0,2,,,,,,,,1,,,62,127
46464,note_on,,192,0,10,,,,,,,,5,,,67,92
46464,note_on,,192,0,5,,,,,,,,10,,,67,108
46656,note_on,,0,0,1,,,,,,,,0,,,65,127
46656,note_on,,384,0,8,,,,,,,,13,,,46,0
46656,note_on,,0,0,5,,,,,,,,10,,,65,108
46656,note_on,,192,0,5,,,,,,,,10,,,67,0
46656,note_on,,384,0,6,,,,,,,,11,,,62,0
46656,note_on,,192,0,1,,,,,,,,0,,,67,0
46656,note_on,,0,0,4,,,,,,,,3,,,44,127
46656,note_on,,192,0,4,,,,,,,,3,,,46,0
46656,note_on,,0,0,6,,,,,,,,11,,,60,108
46656,note_on,,0,0,8,,,,,,,,13,,,44,92
46656,note_on,,0,0,12,,,,,,,,8,,,44,92
46656,note_on,,384,0,12,,,,,,,,8,,,46,0
46656,note_on,,0,0,10,,,,,,,,5,,,65,92
46656,note_on,,192,0,11,,,,,,,,7,,,67,0
46656,note_on,,192,0,10,,,,,,,,5,,,67,0
46656,note_on,,0,0,2,,,,,,,,1,,,60,127
46656,note_on,,192,0,2,,,,,,,,1,,,62,0
46656,note_on,,384,0,9,,,,,,,,14,,,34,0
46656,note_on,,0,0,9,,,,,,,,14,,,32,92
46656,note_on,,0,0,11,,,,,,,,7,,,65,92
46656,note_on,,0,0,3,,,,,,,,2,,,56,127
46656,note_on,,192,0,3,,,,,,,,2,,,55,0
46656,note_on,,0,0,7,,,,,,,,12,,,56,92
46656,note_on,,384,0,7,,,,,,,,12,,,55,0
46848,note_on,,192,0,2,,,,,,,,1,,,60,0
46848,note_on,,0,0,3,,,,,,,,2,,,58,127
46848,note_on,,192,0,3,,,,,,,,2,,,56,0
46848,note_on,,0,0,12,,,,,,,,8,,,43,92
46848,note_on,,192,0,1,,,,,,,,0,,,65,0
46848,note_on,,192,0,8,,,,,,,,13,,,44,0
46848,note_on,,192,0,12,,,,,,,,8,,,44,0
46848,note_on,,0,0,11,,,,,,,,7,,,63,92
46848,note_on,,192,0,11,,,,,,,,7,,,65,0
46848,note_on,,0,0,6,,,,,,,,11,,,58,108
46848,note_on,,192,0,6,,,,,,,,11,,,60,0
46848,note_on,,0,0,10,,,,,,,,5,,,63,92
46848,note_on,,0,0,1,,,,,,,,0,,,63,127
46848,note_on,,0,0,8,,,,,,,,13,,,43,92
46848,note_on,,0,0,2,,,,,,,,1,,,58,127
46848,note_on,,0,0,7,,,,,,,,12,,,58,92
46848,note_on,,0,0,5,,,,,,,,10,,,63,108
46848,note_on,,192,0,5,,,,,,,,10,,,65,0
46848,note_on,,192,0,9,,,,,,,,14,,,32,0
46848,note_on,,0,0,9,,,,,,,,14,,,31,92
46848,note_on,,192,0,4,,,,,,,,3,,,44,0
46848,note_on,,0,0,4,,,,,,,,3,,,43,127
46848,note_on,,192,0,7,,,,,,,,12,,,56,0
46848,note_on,,192,0,10,,,,,,,,5,,,65,0
47040,note_on,,192,0,12,,,,,,,,8,,,43,0
47040,note_on,,192,0,6,,,,,,,,11,,,58,0
47040,note_on,,0,0,6,,,,,,,,11,,,67,108
47040,note_on,,192,0,9,,,,,,,,14,,,31,0
47040,note_on,,0,0,9,,,,,,,,14,,,29,92
47040,note_on,,0,0,8,,,,,,,,13,,,41,92
47040,note_on,,0,0,4,,,,,,,,3,,,46,127
47040,note_on,,192,0,4,,,,,,,,3,,,43,0
47040,note_on,,0,0,2,,,,,,,,1,,,67,127
47040,note_on,,192,0,2,,,,,,,,1,,,58,0
47040,note_on,,0,0,12,,,,,,,,8,,,41,92
47040,note_on,,192,0,8,,,,,,,,13,,,43,0
47136,note_on,,288,0,11,,,,,,,,7,,,63,0
47136,note_on,,0,0,2,,,,,,,,1,,,62,127
47136,note_on,,96,0,2,,,,,,,,1,,,67,0
47136,note_on,,288,0,1,,,,,,,,0,,,63,0
47136,note_on,,0,0,1,,,,,,,,0,,,65,127
47136,note_on,,288,0,5,,,,,,,,10,,,63,0
47136,note_on,,288,0,10,,,,,,,,5,,,63,0
47136,note_on,,0,0,5,,,,,,,,10,,,65,108
47136,note_on,,0,0,10,,,,,,,,5,,,65,92
47136,note_on,,0,0,11,,,,,,,,7,,,65,92
47136,note_on,,96,0,6,,,,,,,,11,,,67,0
47136,note_on,,0,0,6,,,,,,,,11,,,62,108
47232,note_on,,0,0,8,,,,,,,,13,,,39,92
47232,note_on,,384,0,7,,,,,,,,12,,,58,0
47232,note_on,,0,0,11,,,,,,,,7,,,67,92
47232,note_on,,96,0,11,,,,,,,,7,,,65,0
47232,note_on,,0,0,4,,,,,,,,3,,,51,127
47232,note_on,,192,0,4,,,,,,,,3,,,46,0
47232,note_on,,0,0,6,,,,,,,,11,,,63,108
47232,note_on,,0,0,9,,,,,,,,14,,,27,92
47232,note_on,,192,0,9,,,,,,,,14,,,29,0
47232,note_on,,0,0,7,,,,,,,,12,,,58,92
47232,note_on,,0,0,1,,,,,,,,0,,,67,127
47232,note_on,,96,0,6,,,,,,,,11,,,62,0
47232,note_on,,0,0,5,,,,,,,,10,,,67,108
47232,note_on,,0,0,2,,,,,,,,1,,,63,127
47232,note_on,,96,0,2,,,,,,,,1,,,62,0
47232,note_on,,192,0,8,,,,,,,,13,,,41,0
47232,note_on,,192,0,12,,,,,,,,8,,,41,0
47232,note_on,,0,0,12,,,,,,,,8,,,39,92
47232,note_on,,96,0,10,,,,,,,,5,,,65,0
47232,note_on,,0,0,10,,,,,,,,5,,,67,92
47232,note_on,,96,0,5,,,,,,,,10,,,65,0
47232,note_on,,96,0,1,,,,,,,,0,,,65,0
47328,note_on,,0,0,11,,,,,,,,7,,,68,92
47328,note_on,,0,0,10,,,,,,,,5,,,68,92
47328,note_on,,0,0,1,,,,,,,,0,,,68,127
47328,note_on,,96,0,1,,,,,,,,0,,,67,0
47328,note_on,,96,0,10,,,,,,,,5,,,67,0
47328,note_on,,480,0,3,,,,,,,,2,,,58,0
47328,note_on,,0,0,5,,,,,,,,10,,,68,108
47328,note_on,,96,0,5,,,,,,,,10,,,67,0
47328,note_on,,96,0,7,,,,,,,,12,,,58,0
47328,note_on,,0,0,7,,,,,,,,12,,,60,92
47328,note_on,,0,0,3,,,,,,,,2,,,60,127
47328,note_on,,96,0,11,,,,,,,,7,,,67,0
47424,note_on,,0,0,3,,,,,,,,2,,,62,127
47424,note_on,,192,0,9,,,,,,,,14,,,27,0
47424,note_on,,192,0,2,,,,,,,,1,,,63,0
47424,note_on,,0,0,9,,,,,,,,14,,,26,92
47424,note_on,,192,0,4,,,,,,,,3,,,51,0
47424,note_on,,192,0,8,,,,,,,,13,,,39,0
47424,note_on,,0,0,4,,,,,,,,3,,,50,127
47424,note_on,,96,0,5,,,,,,,,10,,,68,0
47424,note_on,,0,0,5,,,,,,,,10,,,70,108
47424,note_on,,96,0,3,,,,,,,,2,,,60,0
47424,note_on,,0,0,2,,,,,,,,1,,,65,127
47424,note_on,,0,0,8,,,,,,,,13,,,38,92
47424,note_on,,192,0,12,,,,,,,,8,,,39,0
47424,note_on,,0,0,7,,,,,,,,12,,,62,92
47424,note_on,,192,0,6,,,,,,,,11,,,63,0
47424,note_on,,0,0,6,,,,,,,,11,,,65,108
47424,note_on,,96,0,7,,,,,,,,12,,,60,0
47424,note_on,,0,0,12,,,,,,,,8,,,38,92
47424,note_on,,96,0,1,,,,,,,,0,,,68,0
47424,note_on,,0,0,1,,,,,,,,0,,,70,127
47424,note_on,,96,0,10,,,,,,,,5,,,68,0
47424,note_on,,0,0,10,,,,,,,,5,,,70,92
47424,note_on,,0,0,11,,,,,,,,7,,,70,92
47424,note_on,,96,0,11,,,,,,,,7,,,68,0
47616,note_on,,0,0,1,,,,,,,,0,,,72,127
47616,note_on,,0,0,3,,,,,,,,2,,,63,127
47616,note_on,,192,0,3,,,,,,,,2,,,62,0
47616,note_on,,192,0,7,,,,,,,,12,,,62,0
47616,note_on,,0,0,7,,,,,,,,12,,,60,92
47616,note_on,,0,0,5,,,,,,,,10,,,72,108
47616,note_on,,192,0,8,,,,,,,,13,,,38,0
47616,note_on,,0,0,11,,,,,,,,7,,,72,92
47616,note_on,,192,0,11,,,,,,,,7,,,70,0
47616,note_on,,192,0,9,,,,,,,,14,,,26,0
47616,note_on,,192,0,5,,,,,,,,10,,,70,0
47616,note_on,,0,0,12,,,,,,,,8,,,39,92
47616,note_on,,0,0,2,,,,,,,,1,,,67,127
47616,note_on,,0,0,10,,,,,,,,5,,,72,92
47616,note_on,,192,0,10,,,,,,,,5,,,70,0
47616,note_on,,192,0,6,,,,,,,,11,,,65,0
47616,note_on,,0,0,4,,,,,,,,3,,,51,127
47616,note_on,,192,0,4,,,,,,,,3,,,50,0
47616,note_on,,0,0,6,,,,,,,,11,,,67,108
47616,note_on,,192,0,12,,,,,,,,8,,,38,0
47616,note_on,,0,0,8,,,,,,,,13,,,39,92
47616,note_on,,192,0,1,,,,,,,,0,,,70,0
47616,note_on,,192,0,2,,,,,,,,1,,,65,0
47616,note_on,,0,0,9,,,,,,,,14,,,27,92
47808,note_on,,192,0,9,,,,,,,,14,,,27,0
47808,note_on,,0,0,9,,,,,,,,14,,,29,92
47808,note_on,,192,0,12,,,,,,,,8,,,39,0
47808,note_on,,192,0,3,,,,,,,,2,,,63,0
47808,note_on,,192,0,7,,,,,,,,12,,,60,0
47808,note_on,,0,0,7,,,,,,,,12,,,62,92
47808,note_on,,0,0,12,,,,,,,,8,,,41,92
47808,note_on,,192,0,2,,,,,,,,1,,,67,0
47808,note_on,,0,0,2,,,,,,,,1,,,65,127
47808,note_on,,0,0,4,,,,,,,,3,,,53,127
47808,note_on,,0,0,8,,,,,,,,13,,,41,92
47808,note_on,,192,0,8,,,,,,,,13,,,39,0
47808,note_on,,0,0,3,,,,,,,,2,,,62,127
47808,note_on,,192,0,5,,,,,,,,10,,,72,0
47808,note_on,,192,0,4,,,,,,,,3,,,51,0
47808,note_on,,0,0,10,,,,,,,,5,,,68,92
47808,note_on,,0,0,6,,,,,,,,11,,,65,108
47808,note_on,,192,0,6,,,,,,,,11,,,67,0
47808,note_on,,0,0,1,,,,,,,,0,,,68,127
47808,note_on,,192,0,1,,,,,,,,0,,,72,0
47808,note_on,,0,0,5,,,,,,,,10,,,68,108
47808,note_on,,192,0,10,,,,,,,,5,,,72,0
47808,note_on,,192,0,11,,,,,,,,7,,,72,0
47808,note_on,,0,0,11,,,,,,,,7,,,68,92
47904,note_on,,0,0,3,,,,,,,,2,,,60,127
47904,note_on,,0,0,6,,,,,,,,11,,,63,108
47904,note_on,,96,0,6,,,,,,,,11,,,65,0
47904,note_on,,96,0,3,,,,,,,,2,,,62,0
47904,note_on,,96,0,7,,,,,,,,12,,,62,0
47904,note_on,,0,0,7,,,,,,,,12,,,60,92
47904,note_on,,96,0,2,,,,,,,,1,,,65,0
47904,note_on,,0,0,2,,,,,,,,1,,,63,127
48000,note_on,,192,0,8,,,,,,,,13,,,41,0
48000,note_on,,0,0,6,,,,,,,,11,,,62,108
48000,note_on,,96,0,6,,,,,,,,11,,,63,0
48000,note_on,,0,0,10,,,,,,,,5,,,67,92
48000,note_on,,192,0,10,,,,,,,,5,,,68,0
48000,note_on,,192,0,4,,,,,,,,3,,,53,0
48000,note_on,,0,0,4,,,,,,,,3,,,55,127
48000,note_on,,96,0,3,,,,,,,,2,,,60,0
48000,note_on,,0,0,1,,,,,,,,0,,,67,127
48000,note_on,,192,0,1,,,,,,,,0,,,68,0
48000,note_on,,192,0,11,,,,,,,,7,,,68,0
48000,note_on,,0,0,12,,,,,,,,8,,,43,92
48000,note_on,,192,0,12,,,,,,,,8,,,41,0
48000,note_on,,96,0,7,,,,,,,,12,,,60,0
48000,note_on,,0,0,7,,,,,,,,12,,,59,92
48000,note_on,,0,0,11,,,,,,,,7,,,67,92
48000,note_on,,96,0,2,,,,,,,,1,,,63,0
48000,note_on,,0,0,8,,,,,,,,13,,,43,92
48000,note_on,,192,0,5,,,,,,,,10,,,68,0
48000,note_on,,192,0,9,,,,,,,,14,,,29,0
48000,note_on,,0,0,5,,,,,,,,10,,,67,108
48000,note_on,,0,0,2,,,,,,,,1,,,62,127
48000,note_on,,0,0,9,,,,,,,,14,,,31,92
48000,note_on,,0,0,3,,,,,,,,2,,,59,127
48384,note_on,,0,0,9,,,,,,,,14,,,36,92
48384,note_on,,0,0,7,,,,,,,,12,,,60,92
48384,note_on,,384,0,7,,,,,,,,12,,,59,0
48384,note_on,,384,0,2,,,,,,,,1,,,62,0
48384,note_on,,384,0,12,,,,,,,,8,,,43,0
48384,note_on,,0,0,12,,,,,,,,8,,,48,92
48384,note_on,,384,0,1,,,,,,,,0,,,67,0
48384,note_on,,384,0,3,,,,,,,,2,,,59,0
48384,note_on,,384,0,4,,,,,,,,3,,,55,0
48384,note_on,,384,0,9,,,,,,,,14,,,31,0
48384,note_on,,384,0,6,,,,,,,,11,,,62,0
48384,note_on,,0,0,6,,,,,,,,11,,,63,108
48384,note_on,,0,0,8,,,,,,,,13,,,48,92
48384,note_on,,384,0,8,,,,,,,,13,,,43,0
48576,note_on,,576,0,11,,,,,,,,7,,,67,0
48576,note_on,,0,0,11,,,,,,,,7,,,79,92
48576,note_on,,192,0,9,,,,,,,,14,,,36,0
48576,note_on,,0,0,9,,,,,,,,14,,,34,92
48576,note_on,,0,0,8,,,,,,,,13,,,46,92
48576,note_on,,0,0,7,,,,,,,,12,,,67,92
48576,note_on,,192,0,7,,,,,,,,12,,,60,0
48576,note_on,,0,0,10,,,,,,,,5,,,76,92
48576,note_on,,192,0,2,,,,,,,,1,,,67,127
48576,note_on,,576,0,5,,,,,,,,10,,,67,0
48576,note_on,,576,0,10,,,,,,,,5,,,67,0
48576,note_on,,192,0,8,,,,,,,,13,,,48,0
48576,note_on,,192,0,3,,,,,,,,2,,,64,127
48576,note_on,,192,0,12,,,,,,,,8,,,48,0
48576,note_on,,192,0,4,,,,,,,,3,,,58,127
48576,note_on,,0,0,12,,,,,,,,8,,,46,92
48576,note_on,,0,0,6,,,,,,,,11,,,72,108
48576,note_on,,192,0,1,,,,,,,,0,,,72,127
48576,note_on,,192,0,6,,,,,,,,11,,,63,0
48576,note_on,,0,0,5,,,,,,,,10,,,76,108
48960,note_on,,384,0,4,,,,,,,,3,,,58,0
48960,note_on,,0,0,4,,,,,,,,3,,,58,127
48960,note_on,,384,0,5,,,,,,,,10,,,76,0
48960,note_on,,0,0,7,,,,,,,,12,,,67,92
48960,note_on,,384,0,9,,,,,,,,14,,,34,0
48960,note_on,,0,0,9,,,,,,,,14,,,46,92
48960,note_on,,0,0,5,,,,,,,,10,,,76,108
48960,note_on,,0,0,1,,,,,,,,0,,,72,127
48960,note_on,,384,0,1,,,,,,,,0,,,72,0
48960,note_on,,0,0,11,,,,,,,,7,,,79,92
48960,note_on,,384,0,7,,,,,,,,12,,,67,0
48960,note_on,,384,0,8,,,,,,,,13,,,46,0
48960,note_on,,0,0,8,,,,,,,,13,,,58,92
48960,note_on,,0,0,6,,,,,,,,11,,,72,108
48960,note_on,,384,0,6,,,,,,,,11,,,72,0
48960,note_on,,384,0,3,,,,,,,,2,,,64,0
48960,note_on,,0,0,3,,,,,,,,2,,,64,127
48960,note_on,,384,0,10,,,,,,,,5,,,76,0
48960,note_on,,0,0,12,,,,,,,,8,,,58,92
48960,note_on,,0,0,10,,,,,,,,5,,,76,92
48960,note_on,,0,0,2,,,,,,,,1,,,67,127
48960,note_on,,384,0,11,,,,,,,,7,,,79,0
48960,note_on,,384,0,2,,,,,,,,1,,,67,0
48960,note_on,,384,0,12,,,,,,,,8,,,46,0
49152,note_on,,0,0,3,,,,,,,,2,,,60,127
49152,note_on,,192,0,2,,,,,,,,1,,,67,0
49152,note_on,,0,0,6,,,,,,,,11,,,72,108
49152,note_on,,192,0,6,,,,,,,,11,,,72,0
49152,note_on,,192,0,7,,,,,,,,12,,,67,0
49152,note_on,,0,0,8,,,,,,,,13,,,56,92
49152,note_on,,192,0,9,,,,,,,,14,,,46,0
49152,note_on,,0,0,9,,,,,,,,14,,,44,92
49152,note_on,,0,0,10,,,,,,,,5,,,77,92
49152,note_on,,0,0,2,,,,,,,,1,,,65,127
49152,note_on,,192,0,1,,,,,,,,0,,,72,0
49152,note_on,,192,0,3,,,,,,,,2,,,64,0
49152,note_on,,192,0,8,,,,,,,,13,,,58,0
49152,note_on,,0,0,1,,,,,,,,0,,,72,127
49152,note_on,,0,0,7,,,,,,,,12,,,65,92
49152,note_on,,192,0,4,,,,,,,,3,,,58,0
49152,note_on,,192,0,10,,,,,,,,5,,,76,0
49152,note_on,,0,0,5,,,,,,,,10,,,77,108
49152,note_on,,192,0,5,,,,,,,,10,,,76,0
49152,note_on,,0,0,11,,,,,,,,7,,,72,92
49152,note_on,,192,0,11,,,,,,,,7,,,79,0
49152,note_on,,192,0,12,,,,,,,,8,,,58,0
49152,note_on,,0,0,12,,,,,,,,8,,,56,92
49152,note_on,,0,0,4,,,,,,,,3,,,56,127
49440,note_on,,288,0,6,,,,,,,,11,,,72,0
49440,note_on,,0,0,6,,,,,,,,11,,,76,108
49440,note_on,,288,0,1,,,,,,,,0,,,72,0
49440,note_on,,288,0,3,,,,,,,,2,,,60,0
49440,note_on,,0,0,1,,,,,,,,0,,,64,127
49440,note_on,,288,0,8,,,,,,,,13,,,56,0
49440,note_on,,288,0,7,,,,,,,,12,,,65,0
49440,note_on,,0,0,7,,,,,,,,12,,,58,92
49440,note_on,,0,0,8,,,,,,,,13,,,55,92
49440,note_on,,0,0,12,,,,,,,,8,,,55,92
49440,note_on,,0,0,3,,,,,,,,2,,,55,127
49440,note_on,,288,0,12,,,,,,,,8,,,56,0
49440,note_on,,0,0,2,,,,,,,,1,,,58,127
49440,note_on,,288,0,10,,,,,,,,5,,,77,0
49440,note_on,,0,0,10,,,,,,,,5,,,79,92
49440,note_on,,0,0,5,,,,,,,,10,,,79,108
49440,note_on,,288,0,5,,,,,,,,10,,,77,0
49440,note_on,,288,0,4,,,,,,,,3,,,56,0
49440,note_on,,288,0,2,,,,,,,,1,,,65,0
49440,note_on,,288,0,9,,,,,,,,14,,,44,0
49440,note_on,,0,0,9,,,,,,,,14,,,43,92
49440,note_on,,0,0,4,,,,,,,,3,,,55,127
49536,note_on,,96,0,12,,,,,,,,8,,,55,0
49536,note_on,,0,0,1,,,,,,,,0,,,65,127
49536,note_on,,96,0,1,,,,,,,,0,,,64,0
49536,note_on,,0,0,9,,,,,,,,14,,,41,92
49536,note_on,,96,0,9,,,,,,,,14,,,43,0
49536,note_on,,0,0,3,,,,,,,,2,,,56,127
49536,note_on,,0,0,12,,,,,,,,8,,,53,92
49536,note_on,,96,0,5,,,,,,,,10,,,79,0
49536,note_on,,0,0,2,,,,,,,,1,,,60,127
49536,note_on,,96,0,8,,,,,,,,13,,,55,0
49536,note_on,,96,0,2,,,,,,,,1,,,58,0
49536,note_on,,0,0,5,,,,,,,,10,,,80,108
49536,note_on,,96,0,3,,,,,,,,2,,,55,0
49536,note_on,,0,0,6,,,,,,,,11,,,77,108
49536,note_on,,96,0,6,,,,,,,,11,,,76,0
49536,note_on,,0,0,8,,,,,,,,13,,,53,92
49536,note_on,,384,0,11,,,,,,,,7,,,72,0
49536,note_on,,96,0,7,,,,,,,,12,,,58,0
49536,note_on,,0,0,7,,,,,,,,12,,,60,92
49536,note_on,,0,0,10,,,,,,,,5,,,80,92
49536,note_on,,96,0,10,,,,,,,,5,,,79,0
49536,note_on,,0,0,11,,,,,,,,7,,,72,92
49536,note_on,,0,0,4,,,,,,,,3,,,53,127
49536,note_on,,96,0,4,,,,,,,,3,,,55,0
49728,note_on,,0,0,4,,,,,,,,3,,,46,92
49728,note_on,,192,0,3,,,,,,,,2,,,56,0
49728,note_on,,192,0,6,,,,,,,,11,,,77,0
49728,note_on,,0,0,6,,,,,,,,11,,,58,75
49728,note_on,,0,0,12,,,,,,,,8,,,46,60
49728,note_on,,192,0,12,,,,,,,,8,,,53,0
49728,note_on,,192,0,8,,,,,,,,13,,,53,0
49728,note_on,,192,0,7,,,,,,,,12,,,60,0
49728,note_on,,0,0,3,,,,,,,,2,,,53,92
49728,note_on,,0,0,8,,,,,,,,13,,,46,60
49728,note_on,,0,0,5,,,,,,,,10,,,62,75
49728,note_on,,192,0,5,,,,,,,,10,,,80,0
49728,note_on,,0,0,7,,,,,,,,12,,,62,60
49728,note_on,,0,0,2,,,,,,,,1,,,58,92
49728,note_on,,192,0,2,,,,,,,,1,,,60,0
49728,note_on,,192,0,10,,,,,,,,5,,,80,0
49728,note_on,,192,0,9,,,,,,,,14,,,41,0
49728,note_on,,192,0,11,,,,,,,,7,,,72,0
49728,note_on,,192,0,4,,,,,,,,3,,,53,0
49728,note_on,,0,0,9,,,,,,,,14,,,34,60
49728,note_on,,0,0,1,,,,,,,,0,,,62,92
49728,note_on,,192,0,1,,,,,,,,0,,,65,0
49920,note_on,,0,0,7,,,,,,,,12,,,53,60
49920,note_on,,192,0,7,,,,,,,,12,,,62,0
50112,note_on,,0,0,3,,,,,,,,2,,,53,92
50112,note_on,,384,0,9,,,,,,,,14,,,34,0
50112,note_on,,0,0,9,,,,,,,,14,,,32,60
50112,note_on,,0,0,8,,,,,,,,13,,,44,60
50112,note_on,,384,0,8,,,,,,,,13,,,46,0
50112,note_on,,384,0,3,,,,,,,,2,,,53,0
50112,note_on,,0,0,4,,,,,,,,3,,,44,92
50112,note_on,,0,0,2,,,,,,,,1,,,58,92
50112,note_on,,384,0,2,,,,,,,,1,,,58,0
50112,note_on,,0,0,1,,,,,,,,0,,,62,92
50112,note_on,,384,0,1,,,,,,,,0,,,62,0
50112,note_on,,384,0,5,,,,,,,,10,,,62,0
50112,note_on,,384,0,4,,,,,,,,3,,,46,0
50112,note_on,,0,0,6,,,,,,,,11,,,58,75
50112,note_on,,0,0,5,,,,,,,,10,,,62,75
50112,note_on,,384,0,6,,,,,,,,11,,,58,0
50112,note_on,,0,0,7,,,,,,,,12,,,53,60
50112,note_on,,384,0,12,,,,,,,,8,,,46,0
50112,note_on,,0,0,12,,,,,,,,8,,,44,60
50112,note_on,,192,0,7,,,,,,,,12,,,53,0
50304,note_on,,0,0,3,,,,,,,,2,,,55,92
50304,note_on,,192,0,5,,,,,,,,10,,,62,0
50304,note_on,,192,0,7,,,,,,,,12,,,53,0
50304,note_on,,0,0,7,,,,,,,,12,,,55,60
50304,note_on,,0,0,5,,,,,,,,10,,,63,75
50304,note_on,,192,0,4,,,,,,,,3,,,44,0
50304,note_on,,192,0,2,,,,,,,,1,,,58,0
50304,note_on,,0,0,2,,,,,,,,1,,,58,92
50304,note_on,,192,0,3,,,,,,,,2,,,53,0
50304,note_on,,0,0,9,,,,,,,,14,,,31,60
50304,note_on,,192,0,9,,,,,,,,14,,,32,0
50304,note_on,,0,0,4,,,,,,,,3,,,43,92
50304,note_on,,192,0,12,,,,,,,,8,,,44,0
50304,note_on,,0,0,12,,,,,,,,8,,,43,60
50304,note_on,,192,0,6,,,,,,,,11,,,58,0
50304,note_on,,192,0,8,,,,,,,,13,,,44,0
50304,note_on,,0,0,6,,,,,,,,11,,,58,75
50304,note_on,,0,0,1,,,,,,,,0,,,63,92
50304,note_on,,0,0,8,,,,,,,,13,,,43,60
50304,note_on,,192,0,1,,,,,,,,0,,,62,0
50688,note_on,,960,0,10,,,,,,,,5,,,70,92
50688,note_on,,384,0,1,,,,,,,,0,,,63,0
50688,note_on,,0,0,1,,,,,,,,0,,,70,92
50688,note_on,,384,0,6,,,,,,,,11,,,58,0
50688,note_on,,960,0,11,,,,,,,,7,,,67,92
50688,note_on,,0,0,7,,,,,,,,12,,,63,75
50688,note_on,,384,0,4,,,,,,,,3,,,43,0
50688,note_on,,384,0,7,,,,,,,,12,,,55,0
50688,note_on,,384,0,9,,,,,,,,14,,,31,0
50688,note_on,,0,0,12,,,,,,,,8,,,63,75
50688,note_on,,384,0,2,,,,,,,,1,,,58,0
50688,note_on,,0,0,8,,,,,,,,13,,,63,75
50688,note_on,,384,0,8,,,,,,,,13,,,43,0
50688,note_on,,384,0,3,,,,,,,,2,,,55,0
50688,note_on,,0,0,9,,,,,,,,14,,,51,75
50688,note_on,,0,0,6,,,,,,,,11,,,67,92
50688,note_on,,0,0,3,,,,,,,,2,,,63,92
50688,note_on,,384,0,12,,,,,,,,8,,,43,0
50688,note_on,,0,0,5,,,,,,,,10,,,70,92
50688,note_on,,384,0,5,,,,,,,,10,,,63,0
50688,note_on,,0,0,2,,,,,,,,1,,,67,92
50880,note_on,,0,0,2,,,,,,,,1,,,65,92
50880,note_on,,192,0,2,,,,,,,,1,,,67,0
50880,note_on,,0,0,9,,,,,,,,14,,,50,75
50880,note_on,,0,0,6,,,,,,,,11,,,65,92
50880,note_on,,192,0,9,,,,,,,,14,,,51,0
50880,note_on,,192,0,6,,,,,,,,11,,,67,0
50880,note_on,,0,0,5,,,,,,,,10,,,70,92
50880,note_on,,0,0,10,,,,,,,,5,,,70,92
50880,note_on,,0,0,1,,,,,,,,0,,,70,92
50880,note_on,,192,0,1,,,,,,,,0,,,70,0
50880,note_on,,192,0,10,,,,,,,,5,,,70,0
50880,note_on,,192,0,7,,,,,,,,12,,,63,0
50880,note_on,,0,0,7,,,,,,,,12,,,62,75
50880,note_on,,192,0,8,,,,,,,,13,,,63,0
50880,note_on,,0,0,8,,,,,,,,13,,,62,75
50880,note_on,,192,0,5,,,,,,,,10,,,70,0
50880,note_on,,0,0,12,,,,,,,,8,,,62,75
50880,note_on,,192,0,12,,,,,,,,8,,,63,0
50880,note_on,,192,0,11,,,,,,,,7,,,67,0
50880,note_on,,0,0,11,,,,,,,,7,,,65,92
50880,note_on,,192,0,3,,,,,,,,2,,,63,0
50880,note_on,,0,0,3,,,,,,,,2,,,62,92
51264,note_on,,0,0,12,,,,,,,,8,,,60,75
51264,note_on,,0,0,10,,,,,,,,5,,,75,92
51264,note_on,,384,0,3,,,,,,,,2,,,62,0
51264,note_on,,0,0,3,,,,,,,,2,,,60,92
51264,note_on,,384,0,9,,,,,,,,14,,,50,0
51264,note_on,,0,0,9,,,,,,,,14,,,48,75
51264,note_on,,0,0,6,,,,,,,,11,,,69,92
51264,note_on,,384,0,6,,,,,,,,11,,,65,0
51264,note_on,,384,0,11,,,,,,,,7,,,65,0
51264,note_on,,0,0,11,,,,,,,,7,,,69,92
51264,note_on,,384,0,12,,,,,,,,8,,,62,0
51264,note_on,,384,0,10,,,,,,,,5,,,70,0
51264,note_on,,384,0,2,,,,,,,,1,,,65,0
51264,note_on,,384,0,1,,,,,,,,0,,,70,0
51264,note_on,,0,0,8,,,,,,,,13,,,60,75
51264,note_on,,384,0,8,,,,,,,,13,,,62,0
51264,note_on,,0,0,5,,,,,,,,10,,,75,92
51264,note_on,,384,0,5,,,,,,,,10,,,70,0
51264,note_on,,0,0,1,,,,,,,,0,,,75,92
51264,note_on,,0,0,7,,,,,,,,12,,,60,75
51264,note_on,,384,0,7,,,,,,,,12,,,62,0
51264,note_on,,0,0,2,,,,,,,,1,,,69,92
51456,note_on,,0,0,3,,,,,,,,2,,,58,92
51456,note_on,,0,0,10,,,,,,,,5,,,74,92
51456,note_on,,0,0,2,,,,,,,,1,,,70,92
51456,note_on,,192,0,2,,,,,,,,1,,,69,0
51456,note_on,,0,0,1,,,,,,,,0,,,74,92
51456,note_on,,192,0,11,,,,,,,,7,,,69,0
51456,note_on,,0,0,12,,,,,,,,8,,,58,75
51456,note_on,,192,0,5,,,,,,,,10,,,75,0
51456,note_on,,0,0,5,,,,,,,,10,,,74,92
51456,note_on,,192,0,8,,,,,,,,13,,,60,0
51456,note_on,,0,0,8,,,,,,,,13,,,58,75
51456,note_on,,0,0,11,,,,,,,,7,,,70,92
51456,note_on,,192,0,12,,,,,,,,8,,,60,0
51456,note_on,,192,0,10,,,,,,,,5,,,75,0
51456,note_on,,192,0,3,,,,,,,,2,,,60,0
51456,note_on,,192,0,7,,,,,,,,12,,,60,0
51456,note_on,,192,0,1,,,,,,,,0,,,75,0
51456,note_on,,0,0,6,,,,,,,,11,,,70,92
51456,note_on,,192,0,6,,,,,,,,11,,,69,0
51456,note_on,,192,0,9,,,,,,,,14,,,48,0
51456,note_on,,0,0,9,,,,,,,,14,,,46,75
51456,note_on,,0,0,7,,,,,,,,12,,,58,75
51648,note_on,,192,0,8,,,,,,,,13,,,58,0
51648,note_on,,0,0,1,,,,,,,,0,,,72,92
51648,note_on,,192,0,7,,,,,,,,12,,,58,0
51648,note_on,,0,0,8,,,,,,,,13,,,56,75
51648,note_on,,192,0,1,,,,,,,,0,,,74,0
51648,note_on,,192,0,6,,,,,,,,11,,,70,0
51648,note_on,,0,0,6,,,,,,,,11,,,65,92
51648,note_on,,0,0,3,,,,,,,,2,,,56,92
51648,note_on,,0,0,5,,,,,,,,10,,,72,92
51648,note_on,,192,0,3,,,,,,,,2,,,58,0
51648,note_on,,0,0,11,,,,,,,,7,,,65,92
51648,note_on,,0,0,7,,,,,,,,12,,,56,75
51648,note_on,,192,0,9,,,,,,,,14,,,46,0
51648,note_on,,192,0,5,,,,,,,,10,,,74,0
51648,note_on,,192,0,12,,,,,,,,8,,,58,0
51648,note_on,,0,0,12,,,,,,,,8,,,56,75
51648,note_on,,192,0,10,,,,,,,,5,,,74,0
51648,note_on,,0,0,10,,,,,,,,5,,,72,92
51648,note_on,,192,0,11,,,,,,,,7,,,70,0
51648,note_on,,192,0,2,,,,,,,,1,,,70,0
51648,note_on,,0,0,9,,,,,,,,14,,,44,75
51648,note_on,,0,0,2,,,,,,,,1,,,65,92
51840,note_on,,192,0,12,,,,,,,,8,,,56,0
51840,note_on,,0,0,12,,,,,,,,8,,,55,75
51840,note_on,,0,0,1,,,,,,,,0,,,70,92
51840,note_on,,0,0,10,,,,,,,,5,,,70,92
51840,note_on,,192,0,1,,,,,,,,0,,,72,0
51840,note_on,,192,0,5,,,,,,,,10,,,72,0
51840,note_on,,0,0,5,,,,,,,,10,,,70,92
51840,note_on,,192,0,8,,,,,,,,13,,,56,0
51840,note_on,,0,0,8,,,,,,,,13,,,55,75
51840,note_on,,0,0,2,,,,,,,,1,,,67,92
51840,note_on,,0,0,7,,,,,,,,12,,,55,75
51840,note_on,,192,0,7,,,,,,,,12,,,56,0
51840,note_on,,192,0,10,,,,,,,,5,,,72,0
51840,note_on,,0,0,9,,,,,,,,14,,,43,75
51840,note_on,,192,0,9,,,,,,,,14,,,44,0
51840,note_on,,192,0,6,,,,,,,,11,,,65,0
51840,note_on,,0,0,3,,,,,,,,2,,,55,92
51840,note_on,,192,0,3,,,,,,,,2,,,56,0
51840,note_on,,0,0,6,,,,,,,,11,,,67,92
51840,note_on,,192,0,11,,,,,,,,7,,,65,0
51840,note_on,,0,0,11,,,,,,,,7,,,67,92
51840,note_on,,192,0,2,,,,,,,,1,,,65,0
52032,note_on,,0,0,5,,,,,,,,10,,,68,92
52032,note_on,,0,0,2,,,,,,,,1,,,62,92
52032,note_on,,192,0,2,,,,,,,,1,,,67,0
52032,note_on,,192,0,10,,,,,,,,5,,,70,0
52032,note_on,,192,0,11,,,,,,,,7,,,67,0
52032,note_on,,0,0,11,,,,,,,,7,,,68,92
52032,note_on,,192,0,6,,,,,,,,11,,,67,0
52032,note_on,,0,0,6,,,,,,,,11,,,62,92
52032,note_on,,192,0,5,,,,,,,,10,,,70,0
52032,note_on,,0,0,7,,,,,,,,12,,,53,75
52032,note_on,,192,0,7,,,,,,,,12,,,55,0
52032,note_on,,0,0,12,,,,,,,,8,,,53,75
52032,note_on,,0,0,10,,,,,,,,5,,,68,92
52032,note_on,,192,0,12,,,,,,,,8,,,55,0
52032,note_on,,0,0,3,,,,,,,,2,,,53,92
52032,note_on,,192,0,1,,,,,,,,0,,,70,0
52032,note_on,,0,0,9,,,,,,,,14,,,41,75
52032,note_on,,0,0,8,,,,,,,,13,,,53,75
52032,note_on,,192,0,8,,,,,,,,13,,,55,0
52032,note_on,,192,0,3,,,,,,,,2,,,55,0
52032,note_on,,0,0,1,,,,,,,,0,,,68,92
52032,note_on,,192,0,9,,,,,,,,14,,,43,0
52224,note_on,,0,0,7,,,,,,,,12,,,55,75
52224,note_on,,0,0,11,,,,,,,,7,,,70,92
52224,note_on,,0,0,9,,,,,,,,14,,,43,75
52224,note_on,,192,0,2,,,,,,,,1,,,62,0
52224,note_on,,192,0,7,,,,,,,,12,,,53,0
52224,note_on,,192,0,6,,,,,,,,11,,,62,0
52224,note_on,,0,0,2,,,,,,,,1,,,58,92
52224,note_on,,0,0,6,,,,,,,,11,,,58,92
52224,note_on,,192,0,5,,,,,,,,10,,,68,0
52224,note_on,,192,0,1,,,,,,,,0,,,68,0
52224,note_on,,0,0,5,,,,,,,,10,,,70,92
52224,note_on,,0,0,8,,,,,,,,13,,,55,75
52224,note_on,,192,0,8,,,,,,,,13,,,53,0
52224,note_on,,192,0,3,,,,,,,,2,,,53,0
52224,note_on,,0,0,3,,,,,,,,2,,,55,92
52224,note_on,,0,0,1,,,,,,,,0,,,70,92
52224,note_on,,192,0,12,,,,,,,,8,,,53,0
52224,note_on,,192,0,9,,,,,,,,14,,,41,0
52224,note_on,,0,0,10,,,,,,,,5,,,70,92
52224,note_on,,192,0,10,,,,,,,,5,,,68,0
52224,note_on,,192,0,11,,,,,,,,7,,,68,0
52224,note_on,,0,0,12,,,,,,,,8,,,55,75
52416,note_on,,0,0,2,,,,,,,,1,,,63,92
52416,note_on,,192,0,6,,,,,,,,11,,,58,0
52416,note_on,,0,0,1,,,,,,,,0,,,67,92
52416,note_on,,192,0,1,,,,,,,,0,,,70,0
52416,note_on,,0,0,6,,,,,,,,11,,,63,92
52416,note_on,,192,0,9,,,,,,,,14,,,43,0
52416,note_on,,192,0,11,,,,,,,,7,,,70,0
52416,note_on,,192,0,5,,,,,,,,10,,,70,0
52416,note_on,,192,0,2,,,,,,,,1,,,58,0
52416,note_on,,0,0,12,,,,,,,,8,,,56,75
52416,note_on,,0,0,8,,,,,,,,13,,,56,75
52416,note_on,,192,0,8,,,,,,,,13,,,55,0
52416,note_on,,192,0,3,,,,,,,,2,,,55,0
52416,note_on,,0,0,3,,,,,,,,2,,,56,92
52416,note_on,,0,0,9,,,,,,,,14,,,44,75
52416,note_on,,0,0,7,,,,,,,,12,,,56,75
52416,note_on,,192,0,10,,,,,,,,5,,,70,0
52416,note_on,,0,0,11,,,,,,,,7,,,67,92
52416,note_on,,0,0,10,,,,,,,,5,,,67,92
52416,note_on,,0,0,5,,,,,,,,10,,,67,92
52416,note_on,,192,0,7,,,,,,,,12,,,55,0
52416,note_on,,192,0,12,,,,,,,,8,,,55,0
52608,note_on,,192,0,2,,,,,,,,1,,,63,0
52608,note_on,,0,0,2,,,,,,,,1,,,62,92
52608,note_on,,192,0,11,,,,,,,,7,,,67,0
52608,note_on,,0,0,11,,,,,,,,7,,,65,92
52608,note_on,,0,0,10,,,,,,,,5,,,65,92
52608,note_on,,192,0,10,,,,,,,,5,,,67,0
52608,note_on,,192,0,12,,,,,,,,8,,,56,0
52608,note_on,,0,0,12,,,,,,,,8,,,58,75
52608,note_on,,0,0,5,,,,,,,,10,,,65,92
52608,note_on,,0,0,1,,,,,,,,0,,,65,92
52608,note_on,,192,0,6,,,,,,,,11,,,63,0
52608,note_on,,192,0,9,,,,,,,,14,,,44,0
52608,note_on,,0,0,9,,,,,,,,14,,,46,75
52608,note_on,,0,0,6,,,,,,,,11,,,62,92
52608,note_on,,0,0,3,,,,,,,,2,,,58,127
52608,note_on,,192,0,1,,,,,,,,0,,,67,0
52608,note_on,,0,0,8,,,,,,,,13,,,58,75
52608,note_on,,192,0,8,,,,,,,,13,,,56,0
52608,note_on,,0,0,7,,,,,,,,12,,,58,75
52608,note_on,,192,0,7,,,,,,,,12,,,56,0
52608,note_on,,192,0,3,,,,,,,,2,,,56,0
52608,note_on,,192,0,5,,,,,,,,10,,,67,0
52992,note_on,,384,0,9,,,,,,,,14,,,46,0
52992,note_on,,384,0,12,,,,,,,,8,,,58,0
52992,note_on,,0,0,8,,,,,,,,13,,,51,75
52992,note_on,,384,0,8,,,,,,,,13,,,58,0
52992,note_on,,384,0,1,,,,,,,,0,,,65,0
52992,note_on,,384,0,10,,,,,,,,5,,,65,0
52992,note_on,,0,0,12,,,,,,,,8,,,51,75
52992,note_on,,0,0,2,,,,,,,,1,,,67,127
52992,note_on,,0,0,6,,,,,,,,11,,,67,92
52992,note_on,,2304,0,4,,,,,,,,3,,,51,127
52992,note_on,,384,0,11,,,,,,,,7,,,65,0
52992,note_on,,384,0,6,,,,,,,,11,,,62,0
52992,note_on,,384,0,5,,,,,,,,10,,,65,0
52992,note_on,,0,0,9,,,,,,,,14,,,39,75
52992,note_on,,384,0,2,,,,,,,,1,,,62,0
53184,note_on,,192,0,9,,,,,,,,14,,,39,0
53184,note_on,,0,0,4,,,,,,,,3,,,50,127
53184,note_on,,0,0,12,,,,,,,,8,,,50,75
53184,note_on,,192,0,8,,,,,,,,13,,,51,0
53184,note_on,,192,0,12,,,,,,,,8,,,51,0
53184,note_on,,192,0,6,,,,,,,,11,,,67,0
53184,note_on,,0,0,6,,,,,,,,11,,,65,92
53184,note_on,,0,0,9,,,,,,,,14,,,38,75
53184,note_on,,192,0,2,,,,,,,,1,,,67,0
53184,note_on,,0,0,2,,,,,,,,1,,,65,127
53184,note_on,,0,0,8,,,,,,,,13,,,50,75
53184,note_on,,192,0,4,,,,,,,,3,,,51,0
53376,note_on,,384,0,5,,,,,,,,10,,,70,92
53376,note_on,,384,0,1,,,,,,,,0,,,70,127
53376,note_on,,384,0,10,,,,,,,,5,,,70,92
53376,note_on,,384,0,11,,,,,,,,7,,,70,92
53568,note_on,,192,0,11,,,,,,,,7,,,70,0
53568,note_on,,0,0,11,,,,,,,,7,,,75,92
53568,note_on,,192,0,10,,,,,,,,5,,,70,0
53568,note_on,,0,0,10,,,,,,,,5,,,75,92
53568,note_on,,384,0,2,,,,,,,,1,,,65,0
53568,note_on,,0,0,2,,,,,,,,1,,,63,127
53568,note_on,,384,0,9,,,,,,,,14,,,38,0
53568,note_on,,0,0,9,,,,,,,,14,,,36,75
53568,note_on,,0,0,4,,,,,,,,3,,,48,127
53568,note_on,,384,0,8,,,,,,,,13,,,50,0
53568,note_on,,0,0,1,,,,,,,,0,,,75,127
53568,note_on,,384,0,12,,,,,,,,8,,,50,0
53568,note_on,,0,0,12,,,,,,,,8,,,48,75
53568,note_on,,384,0,6,,,,,,,,11,,,65,0
53568,note_on,,0,0,8,,,,,,,,13,,,48,75
53568,note_on,,0,0,6,,,,,,,,11,,,63,92
53568,note_on,,192,0,1,,,,,,,,0,,,70,0
53568,note_on,,0,0,5,,,,,,,,10,,,75,92
53568,note_on,,192,0,5,,,,,,,,10,,,70,0
53568,note_on,,384,0,4,,,,,,,,3,,,50,0
53760,note_on,,0,0,5,,,,,,,,10,,,74,92
53760,note_on,,192,0,5,,,,,,,,10,,,75,0
53760,note_on,,0,0,11,,,,,,,,7,,,74,92
53760,note_on,,0,0,10,,,,,,,,5,,,74,92
53760,note_on,,192,0,10,,,,,,,,5,,,75,0
53760,note_on,,192,0,2,,,,,,,,1,,,63,0
53760,note_on,,0,0,6,,,,,,,,11,,,65,92
53760,note_on,,192,0,6,,,,,,,,11,,,63,0
53760,note_on,,192,0,1,,,,,,,,0,,,75,0
53760,note_on,,192,0,4,,,,,,,,3,,,48,0
53760,note_on,,0,0,4,,,,,,,,3,,,46,127
53760,note_on,,192,0,11,,,,,,,,7,,,75,0
53760,note_on,,192,0,12,,,,,,,,8,,,48,0
53760,note_on,,0,0,12,,,,,,,,8,,,46,75
53760,note_on,,192,0,8,,,,,,,,13,,,48,0
53760,note_on,,0,0,8,,,,,,,,13,,,46,75
53760,note_on,,192,0,9,,,,,,,,14,,,36,0
53760,note_on,,0,0,9,,,,,,,,14,,,34,75
53760,note_on,,0,0,1,,,,,,,,0,,,74,127
53760,note_on,,0,0,2,,,,,,,,1,,,65,127
53952,note_on,,192,0,2,,,,,,,,1,,,65,0
53952,note_on,,0,0,4,,,,,,,,3,,,46,127
53952,note_on,,192,0,8,,,,,,,,13,,,46,0
53952,note_on,,0,0,9,,,,,,,,14,,,32,75
53952,note_on,,192,0,9,,,,,,,,14,,,34,0
53952,note_on,,192,0,4,,,,,,,,3,,,46,0
53952,note_on,,192,0,6,,,,,,,,11,,,65,0
53952,note_on,,192,0,12,,,,,,,,8,,,46,0
53952,note_on,,0,0,12,,,,,,,,8,,,44,75
53952,note_on,,0,0,6,,,,,,,,11,,,58,92
53952,note_on,,0,0,8,,,,,,,,13,,,44,75
53952,note_on,,0,0,2,,,,,,,,1,,,58,127
54048,note_on,,0,0,5,,,,,,,,10,,,72,92
54048,note_on,,0,0,11,,,,,,,,7,,,72,92
54048,note_on,,288,0,10,,,,,,,,5,,,74,0
54048,note_on,,0,0,10,,,,,,,,5,,,72,92
54048,note_on,,288,0,1,,,,,,,,0,,,74,0
54048,note_on,,0,0,1,,,,,,,,0,,,72,127
54048,note_on,,288,0,11,,,,,,,,7,,,74,0
54048,note_on,,288,0,5,,,,,,,,10,,,74,0
54144,note_on,,192,0,8,,,,,,,,13,,,44,0
54144,note_on,,0,0,8,,,,,,,,13,,,43,75
54144,note_on,,192,0,4,,,,,,,,3,,,46,0
54144,note_on,,0,0,5,,,,,,,,10,,,70,92
54144,note_on,,96,0,5,,,,,,,,10,,,72,0
54144,note_on,,96,0,1,,,,,,,,0,,,72,0
54144,note_on,,192,0,6,,,,,,,,11,,,58,0
54144,note_on,,0,0,6,,,,,,,,11,,,63,92
54144,note_on,,96,0,11,,,,,,,,7,,,72,0
54144,note_on,,0,0,11,,,,,,,,7,,,70,92
54144,note_on,,96,0,10,,,,,,,,5,,,72,0
54144,note_on,,0,0,10,,,,,,,,5,,,70,92
54144,note_on,,0,0,4,,,,,,,,3,,,55,127
54144,note_on,,0,0,1,,,,,,,,0,,,70,127
54144,note_on,,192,0,2,,,,,,,,1,,,58,0
54144,note_on,,0,0,9,,,,,,,,14,,,31,75
54144,note_on,,0,0,2,,,,,,,,1,,,63,127
54144,note_on,,192,0,12,,,,,,,,8,,,44,0
54144,note_on,,0,0,12,,,,,,,,8,,,43,75
54144,note_on,,192,0,9,,,,,,,,14,,,32,0
54336,note_on,,192,0,5,,,,,,,,10,,,70,0
54336,note_on,,0,0,5,,,,,,,,10,,,74,92
54336,note_on,,192,0,1,,,,,,,,0,,,70,0
54336,note_on,,192,0,12,,,,,,,,8,,,43,0
54336,note_on,,192,0,6,,,,,,,,11,,,63,0
54336,note_on,,0,0,1,,,,,,,,0,,,74,127
54336,note_on,,192,0,11,,,,,,,,7,,,70,0
54336,note_on,,0,0,11,,,,,,,,7,,,68,92
54336,note_on,,1728,0,7,,,,,,,,12,,,58,0
54336,note_on,,0,0,2,,,,,,,,1,,,68,127
54336,note_on,,192,0,2,,,,,,,,1,,,63,0
54336,note_on,,192,0,10,,,,,,,,5,,,70,0
54336,note_on,,0,0,10,,,,,,,,5,,,74,92
54336,note_on,,0,0,6,,,,,,,,11,,,68,92
54336,note_on,,0,0,12,,,,,,,,8,,,41,75
54336,note_on,,1728,0,3,,,,,,,,2,,,58,0
54336,note_on,,0,0,9,,,,,,,,14,,,29,75
54336,note_on,,0,0,4,,,,,,,,3,,,53,127
54336,note_on,,0,0,8,,,,,,,,13,,,41,75
54336,note_on,,192,0,4,,,,,,,,3,,,55,0
54336,note_on,,192,0,9,,,,,,,,14,,,31,0
54336,note_on,,192,0,8,,,,,,,,13,,,43,0
54528,note_on,,192,0,11,,,,,,,,7,,,68,0
54528,note_on,,192,0,7,,,,,,,,12,,,58,75
54528,note_on,,192,0,2,,,,,,,,1,,,68,0
54528,note_on,,192,0,8,,,,,,,,13,,,41,0
54528,note_on,,0,0,11,,,,,,,,7,,,67,92
54528,note_on,,0,0,1,,,,,,,,0,,,75,127
54528,note_on,,192,0,1,,,,,,,,0,,,74,0
54528,note_on,,192,0,10,,,,,,,,5,,,74,0
54528,note_on,,0,0,10,,,,,,,,5,,,75,92
54528,note_on,,0,0,8,,,,,,,,13,,,43,75
54528,note_on,,0,0,4,,,,,,,,3,,,55,127
54528,note_on,,0,0,2,,,,,,,,1,,,67,127
54528,note_on,,192,0,12,,,,,,,,8,,,41,0
54528,note_on,,0,0,6,,,,,,,,11,,,67,92
54528,note_on,,192,0,6,,,,,,,,11,,,68,0
54528,note_on,,0,0,9,,,,,,,,14,,,31,75
54528,note_on,,192,0,9,,,,,,,,14,,,29,0
54528,note_on,,0,0,12,,,,,,,,8,,,43,75
54528,note_on,,0,0,5,,,,,,,,10,,,75,92
54528,note_on,,192,0,5,,,,,,,,10,,,74,0
54528,note_on,,192,0,4,,,,,,,,3,,,53,0
54528,note_on,,192,0,3,,,,,,,,2,,,58,127
54720,note_on,,0,0,1,,,,,,,,0,,,67,127
54720,note_on,,0,0,10,,,,,,,,5,,,75,92
54720,note_on,,192,0,10,,,,,,,,5,,,75,0
54720,note_on,,192,0,1,,,,,,,,0,,,75,0
54720,note_on,,0,0,9,,,,,,,,14,,,32,75
54720,note_on,,192,0,9,,,,,,,,14,,,31,0
54720,note_on,,0,0,12,,,,,,,,8,,,44,75
54720,note_on,,192,0,11,,,,,,,,7,,,67,0
54720,note_on,,0,0,2,,,,,,,,1,,,63,127
54720,note_on,,0,0,8,,,,,,,,13,,,44,75
54720,note_on,,0,0,4,,,,,,,,3,,,56,127
54720,note_on,,0,0,5,,,,,,,,10,,,67,92
54720,note_on,,192,0,2,,,,,,,,1,,,67,0
54720,note_on,,192,0,12,,,,,,,,8,,,43,0
54720,note_on,,192,0,8,,,,,,,,13,,,43,0
54720,note_on,,0,0,7,,,,,,,,12,,,63,75
54720,note_on,,0,0,6,,,,,,,,11,,,63,92
54720,note_on,,192,0,3,,,,,,,,2,,,58,0
54720,note_on,,0,0,3,,,,,,,,2,,,63,127
54720,note_on,,0,0,11,,,,,,,,7,,,67,92
54720,note_on,,192,0,6,,,,,,,,11,,,67,0
54720,note_on,,192,0,5,,,,,,,,10,,,75,0
54720,note_on,,192,0,7,,,,,,,,12,,,58,0
54720,note_on,,192,0,4,,,,,,,,3,,,55,0
54912,note_on,,0,0,4,,,,,,,,3,,,58,127
54912,note_on,,192,0,4,,,,,,,,3,,,56,0
54912,note_on,,192,0,12,,,,,,,,8,,,44,0
54912,note_on,,0,0,8,,,,,,,,13,,,46,75
54912,note_on,,192,0,1,,,,,,,,0,,,67,0
54912,note_on,,0,0,1,,,,,,,,0,,,65,127
54912,note_on,,192,0,3,,,,,,,,2,,,63,0
54912,note_on,,0,0,3,,,,,,,,2,,,62,127
54912,note_on,,192,0,8,,,,,,,,13,,,44,0
54912,note_on,,0,0,9,,,,,,,,14,,,34,75
54912,note_on,,192,0,5,,,,,,,,10,,,67,0
54912,note_on,,0,0,7,,,,,,,,12,,,62,75
54912,note_on,,0,0,12,,,,,,,,8,,,46,75
54912,note_on,,192,0,10,,,,,,,,5,,,75,0
54912,note_on,,192,0,11,,,,,,,,7,,,67,0
54912,note_on,,0,0,11,,,,,,,,7,,,65,92
54912,note_on,,192,0,7,,,,,,,,12,,,63,0
54912,note_on,,0,0,5,,,,,,,,10,,,65,92
54912,note_on,,192,0,2,,,,,,,,1,,,63,0
54912,note_on,,0,0,2,,,,,,,,1,,,70,127
54912,note_on,,192,0,9,,,,,,,,14,,,32,0
54912,note_on,,192,0,6,,,,,,,,11,,,63,0
54912,note_on,,0,0,10,,,,,,,,5,,,65,92
54912,note_on,,0,0,6,,,,,,,,11,,,70,92
55200,note_on,,0,0,3,,,,,,,,2,,,60,127
55200,note_on,,288,0,3,,,,,,,,2,,,62,0
55200,note_on,,288,0,7,,,,,,,,12,,,62,0
55200,note_on,,0,0,7,,,,,,,,12,,,60,75
55296,note_on,,384,0,11,,,,,,,,7,,,65,0
55296,note_on,,0,0,7,,,,,,,,12,,,58,75
55296,note_on,,96,0,7,,,,,,,,12,,,60,0
55296,note_on,,0,0,5,,,,,,,,10,,,67,92
55296,note_on,,0,0,8,,,,,,,,13,,,51,75
55296,note_on,,384,0,8,,,,,,,,13,,,46,0
55296,note_on,,0,0,1,,,,,,,,0,,,67,127
55296,note_on,,0,0,9,,,,,,,,14,,,39,75
55296,note_on,,384,0,9,,,,,,,,14,,,34,0
55296,note_on,,384,0,1,,,,,,,,0,,,65,0
55296,note_on,,384,0,5,,,,,,,,10,,,65,0
55296,note_on,,384,0,10,,,,,,,,5,,,65,0
55296,note_on,,384,0,12,,,,,,,,8,,,46,0
55296,note_on,,0,0,12,,,,,,,,8,,,51,75
55296,note_on,,0,0,3,,,,,,,,2,,,58,127
55296,note_on,,96,0,3,,,,,,,,2,,,60,0
55488,note_on,,192,0,3,,,,,,,,2,,,58,0
55488,note_on,,192,0,5,,,,,,,,10,,,67,0
55488,note_on,,192,0,7,,,,,,,,12,,,58,0
55488,note_on,,192,0,8,,,,,,,,13,,,51,0
55488,note_on,,0,0,8,,,,,,,,13,,,50,75
55488,note_on,,0,0,7,,,,,,,,12,,,65,75
55488,note_on,,192,0,1,,,,,,,,0,,,67,0
55488,note_on,,0,0,1,,,,,,,,0,,,65,127
55488,note_on,,0,0,9,,,,,,,,14,,,38,75
55488,note_on,,192,0,9,,,,,,,,14,,,39,0
55488,note_on,,0,0,12,,,,,,,,8,,,50,75
55488,note_on,,192,0,12,,,,,,,,8,,,51,0
55488,note_on,,0,0,5,,,,,,,,10,,,65,92
55680,note_on,,0,0,6,,,,,,,,11,,,70,92
55680,note_on,,768,0,6,,,,,,,,11,,,70,0
55680,note_on,,0,0,2,,,,,,,,1,,,70,127
55680,note_on,,384,0,10,,,,,,,,5,,,82,92
55680,note_on,,384,0,11,,,,,,,,7,,,82,92
55680,note_on,,768,0,2,,,,,,,,1,,,70,0
55872,note_on,,384,0,5,,,,,,,,10,,,65,0
55872,note_on,,0,0,5,,,,,,,,10,,,63,92
55872,note_on,,192,0,10,,,,,,,,5,,,82,0
55872,note_on,,0,0,10,,,,,,,,5,,,75,92
55872,note_on,,384,0,8,,,,,,,,13,,,50,0
55872,note_on,,384,0,1,,,,,,,,0,,,65,0
55872,note_on,,0,0,6,,,,,,,,11,,,63,92
55872,note_on,,0,0,9,,,,,,,,14,,,36,75
55872,note_on,,384,0,9,,,,,,,,14,,,38,0
55872,note_on,,0,0,1,,,,,,,,0,,,63,127
55872,note_on,,0,0,8,,,,,,,,13,,,48,75
55872,note_on,,192,0,6,,,,,,,,11,,,70,0
55872,note_on,,384,0,12,,,,,,,,8,,,50,0
55872,note_on,,192,0,11,,,,,,,,7,,,82,0
55872,note_on,,0,0,11,,,,,,,,7,,,75,92
55872,note_on,,0,0,7,,,,,,,,12,,,69,75
55872,note_on,,384,0,7,,,,,,,,12,,,65,0
55872,note_on,,0,0,2,,,,,,,,1,,,63,127
55872,note_on,,0,0,12,,,,,,,,8,,,48,75
55872,note_on,,192,0,2,,,,,,,,1,,,70,0
56064,note_on,,0,0,5,,,,,,,,10,,,65,92
56064,note_on,,0,0,1,,,,,,,,0,,,65,127
56064,note_on,,192,0,2,,,,,,,,1,,,63,0
56064,note_on,,0,0,2,,,,,,,,1,,,62,127
56064,note_on,,192,0,5,,,,,,,,10,,,63,0
56064,note_on,,192,0,12,,,,,,,,8,,,48,0
56064,note_on,,192,0,6,,,,,,,,11,,,63,0
56064,note_on,,192,0,10,,,,,,,,5,,,75,0
56064,note_on,,0,0,10,,,,,,,,5,,,74,92
56064,note_on,,192,0,8,,,,,,,,13,,,48,0
56064,note_on,,0,0,8,,,,,,,,13,,,46,75
56064,note_on,,0,0,11,,,,,,,,7,,,74,92
56064,note_on,,192,0,11,,,,,,,,7,,,75,0
56064,note_on,,0,0,12,,,,,,,,8,,,46,75
56064,note_on,,0,0,9,,,,,,,,14,,,34,75
56064,note_on,,192,0,1,,,,,,,,0,,,63,0
56064,note_on,,0,0,7,,,,,,,,12,,,70,75
56064,note_on,,0,0,6,,,,,,,,11,,,62,92
56064,note_on,,192,0,9,,,,,,,,14,,,36,0
56064,note_on,,192,0,7,,,,,,,,12,,,69,0
56256,note_on,,0,0,5,,,,,,,,10,,,65,92
56256,note_on,,192,0,5,,,,,,,,10,,,65,0
56256,note_on,,0,0,12,,,,,,,,8,,,44,75
56256,note_on,,192,0,12,,,,,,,,8,,,46,0
56256,note_on,,192,0,8,,,,,,,,13,,,46,0
56256,note_on,,192,0,9,,,,,,,,14,,,34,0
56256,note_on,,0,0,1,,,,,,,,0,,,65,127
56256,note_on,,192,0,1,,,,,,,,0,,,65,0
56256,note_on,,0,0,9,,,,,,,,14,,,32,75
56256,note_on,,0,0,8,,,,,,,,13,,,44,75
56352,note_on,,0,0,11,,,,,,,,7,,,72,92
56352,note_on,,288,0,11,,,,,,,,7,,,74,0
56352,note_on,,288,0,6,,,,,,,,11,,,62,0
56352,note_on,,288,0,10,,,,,,,,5,,,74,0
56352,note_on,,0,0,10,,,,,,,,5,,,72,92
56352,note_on,,0,0,6,,,,,,,,11,,,60,92
56352,note_on,,0,0,2,,,,,,,,1,,,60,127
56352,note_on,,288,0,2,,,,,,,,1,,,62,0
56448,note_on,,192,0,8,,,,,,,,13,,,44,0
56448,note_on,,192,0,9,,,,,,,,14,,,32,0
56448,note_on,,0,0,9,,,,,,,,14,,,31,75
56448,note_on,,192,0,1,,,,,,,,0,,,65,0
56448,note_on,,0,0,2,,,,,,,,1,,,58,127
56448,note_on,,0,0,1,,,,,,,,0,,,67,127
56448,note_on,,96,0,10,,,,,,,,5,,,72,0
56448,note_on,,384,0,7,,,,,,,,12,,,70,0
56448,note_on,,0,0,8,,,,,,,,13,,,43,75
56448,note_on,,0,0,10,,,,,,,,5,,,70,92
56448,note_on,,96,0,11,,,,,,,,7,,,72,0
56448,note_on,,0,0,7,,,,,,,,12,,,63,75
56448,note_on,,0,0,12,,,,,,,,8,,,43,75
56448,note_on,,192,0,12,,,,,,,,8,,,44,0
56448,note_on,,192,0,5,,,,,,,,10,,,65,0
56448,note_on,,0,0,5,,,,,,,,10,,,67,92
56448,note_on,,0,0,11,,,,,,,,7,,,70,92
56448,note_on,,96,0,2,,,,,,,,1,,,60,0
56448,note_on,,0,0,6,,,,,,,,11,,,58,92
56448,note_on,,96,0,6,,,,,,,,11,,,60,0
56640,note_on,,192,0,10,,,,,,,,5,,,70,0
56640,note_on,,192,0,1,,,,,,,,0,,,67,0
56640,note_on,,0,0,1,,,,,,,,0,,,68,127
56640,note_on,,192,0,6,,,,,,,,11,,,58,0
56640,note_on,,192,0,11,,,,,,,,7,,,70,0
56640,note_on,,0,0,8,,,,,,,,13,,,41,75
56640,note_on,,1728,0,4,,,,,,,,3,,,58,0
56640,note_on,,192,0,5,,,,,,,,10,,,67,0
56640,note_on,,1152,0,3,,,,,,,,2,,,62,127
56640,note_on,,192,0,12,,,,,,,,8,,,43,0
56640,note_on,,0,0,12,,,,,,,,8,,,41,75
56640,note_on,,0,0,5,,,,,,,,10,,,68,92
56640,note_on,,192,0,7,,,,,,,,12,,,63,0
56640,note_on,,0,0,7,,,,,,,,12,,,62,75
56640,note_on,,192,0,2,,,,,,,,1,,,58,0
56640,note_on,,0,0,9,,,,,,,,14,,,29,75
56640,note_on,,192,0,9,,,,,,,,14,,,31,0
56640,note_on,,192,0,8,,,,,,,,13,,,43,0
56832,note_on,,192,0,1,,,,,,,,0,,,68,0
56832,note_on,,0,0,9,,,,,,,,14,,,31,75
56832,note_on,,192,0,9,,,,,,,,14,,,29,0
56832,note_on,,0,0,1,,,,,,,,0,,,67,127
56832,note_on,,0,0,5,,,,,,,,10,,,67,92
56832,note_on,,192,0,5,,,,,,,,10,,,68,0
56832,note_on,,192,0,7,,,,,,,,12,,,62,0
56832,note_on,,192,0,3,,,,,,,,2,,,62,0
56832,note_on,,0,0,3,,,,,,,,2,,,63,127
56832,note_on,,192,0,12,,,,,,,,8,,,41,0
56832,note_on,,0,0,12,,,,,,,,8,,,43,75
56832,note_on,,0,0,8,,,,,,,,13,,,43,75
56832,note_on,,192,0,4,,,,,,,,3,,,58,127
56832,note_on,,192,0,8,,,,,,,,13,,,41,0
56832,note_on,,0,0,7,,,,,,,,12,,,63,75
57024,note_on,,192,0,5,,,,,,,,10,,,67,0
57024,note_on,,0,0,5,,,,,,,,10,,,72,92
57024,note_on,,0,0,7,,,,,,,,12,,,55,75
57024,note_on,,192,0,7,,,,,,,,12,,,63,0
57024,note_on,,0,0,4,,,,,,,,3,,,63,127
57024,note_on,,192,0,4,,,,,,,,3,,,58,0
57024,note_on,,192,0,3,,,,,,,,2,,,63,0
57024,note_on,,0,0,1,,,,,,,,0,,,72,127
57024,note_on,,0,0,12,,,,,,,,8,,,44,75
57024,note_on,,192,0,12,,,,,,,,8,,,43,0
57024,note_on,,192,0,1,,,,,,,,0,,,67,0
57024,note_on,,0,0,9,,,,,,,,14,,,32,75
57024,note_on,,192,0,9,,,,,,,,14,,,31,0
57024,note_on,,192,0,8,,,,,,,,13,,,43,0
57024,note_on,,0,0,8,,,,,,,,13,,,44,75
57024,note_on,,0,0,3,,,,,,,,2,,,55,127
57216,note_on,,192,0,9,,,,,,,,14,,,32,0
57216,note_on,,0,0,12,,,,,,,,8,,,46,75
57216,note_on,,192,0,12,,,,,,,,8,,,44,0
57216,note_on,,192,0,1,,,,,,,,0,,,72,0
57216,note_on,,0,0,1,,,,,,,,0,,,70,127
57216,note_on,,192,0,5,,,,,,,,10,,,72,0
57216,note_on,,0,0,5,,,,,,,,10,,,70,92
57216,note_on,,0,0,9,,,,,,,,14,,,34,75
57216,note_on,,192,0,3,,,,,,,,2,,,55,0
57216,note_on,,0,0,3,,,,,,,,2,,,53,127
57216,note_on,,0,0,4,,,,,,,,3,,,62,127
57216,note_on,,192,0,8,,,,,,,,13,,,44,0
57216,note_on,,0,0,8,,,,,,,,13,,,46,75
57216,note_on,,192,0,4,,,,,,,,3,,,63,0
57216,note_on,,192,0,7,,,,,,,,12,,,55,0
57216,note_on,,0,0,7,,,,,,,,12,,,53,75
57504,note_on,,288,0,4,,,,,,,,3,,,62,0
57504,note_on,,0,0,4,,,,,,,,3,,,60,127
57600,note_on,,960,0,6,,,,,,,,11,,,67,92
57600,note_on,,960,0,10,,,,,,,,5,,,79,92
57600,note_on,,960,0,11,,,,,,,,7,,,75,92
57600,note_on,,960,0,2,,,,,,,,1,,,67,127
57600,note_on,,0,0,4,,,,,,,,3,,,58,127
57600,note_on,,0,0,9,,,,,,,,14,,,39,75
57600,note_on,,0,0,12,,,,,,,,8,,,51,75
57600,note_on,,384,0,9,,,,,,,,14,,,34,0
57600,note_on,,384,0,7,,,,,,,,12,,,53,0
57600,note_on,,0,0,7,,,,,,,,12,,,63,75
57600,note_on,,384,0,3,,,,,,,,2,,,53,0
57600,note_on,,96,0,4,,,,,,,,3,,,60,0
57600,note_on,,384,0,8,,,,,,,,13,,,46,0
57600,note_on,,0,0,8,,,,,,,,13,,,51,75
57600,note_on,,0,0,3,,,,,,,,2,,,63,127
57600,note_on,,384,0,12,,,,,,,,8,,,46,0
57792,note_on,,192,0,4,,,,,,,,3,,,58,0
57792,note_on,,0,0,2,,,,,,,,1,,,65,127
57792,note_on,,192,0,2,,,,,,,,1,,,67,0
57792,note_on,,0,0,8,,,,,,,,13,,,50,75
57792,note_on,,192,0,11,,,,,,,,7,,,75,0
57792,note_on,,0,0,11,,,,,,,,7,,,70,92
57792,note_on,,192,0,6,,,,,,,,11,,,67,0
57792,note_on,,192,0,8,,,,,,,,13,,,51,0
57792,note_on,,0,0,9,,,,,,,,14,,,38,75
57792,note_on,,192,0,7,,,,,,,,12,,,63,0
57792,note_on,,0,0,7,,,,,,,,12,,,58,75
57792,note_on,,0,0,6,,,,,,,,11,,,65,92
57792,note_on,,0,0,3,,,,,,,,2,,,58,127
57792,note_on,,192,0,3,,,,,,,,2,,,63,0
57792,note_on,,192,0,9,,,,,,,,14,,,39,0
57792,note_on,,0,0,12,,,,,,,,8,,,50,75
57792,note_on,,0,0,10,,,,,,,,5,,,77,92
57792,note_on,,192,0,10,,,,,,,,5,,,79,0
57792,note_on,,192,0,12,,,,,,,,8,,,51,0
57984,note_on,,192,0,4,,,,,,,,3,,,58,127
58176,note_on,,0,0,10,,,,,,,,5,,,75,92
58176,note_on,,0,0,9,,,,,,,,14,,,36,75
58176,note_on,,384,0,9,,,,,,,,14,,,38,0
58176,note_on,,0,0,2,,,,,,,,1,,,63,127
58176,note_on,,384,0,6,,,,,,,,11,,,65,0
58176,note_on,,0,0,6,,,,,,,,11,,,63,92
58176,note_on,,0,0,7,,,,,,,,12,,,60,75
58176,note_on,,384,0,8,,,,,,,,13,,,50,0
58176,note_on,,0,0,8,,,,,,,,13,,,48,75
58176,note_on,,0,0,11,,,,,,,,7,,,72,92
58176,note_on,,384,0,11,,,,,,,,7,,,70,0
58176,note_on,,0,0,3,,,,,,,,2,,,60,127
58176,note_on,,384,0,3,,,,,,,,2,,,58,0
58176,note_on,,384,0,7,,,,,,,,12,,,58,0
58176,note_on,,384,0,2,,,,,,,,1,,,65,0
58176,note_on,,384,0,10,,,,,,,,5,,,77,0
58176,note_on,,0,0,4,,,,,,,,3,,,51,127
58176,note_on,,192,0,4,,,,,,,,3,,,58,0
58176,note_on,,384,0,12,,,,,,,,8,,,50,0
58176,note_on,,0,0,12,,,,,,,,8,,,48,75
58368,note_on,,0,0,9,,,,,,,,14,,,34,75
58368,note_on,,192,0,2,,,,,,,,1,,,63,0
58368,note_on,,192,0,9,,,,,,,,14,,,36,0
58368,note_on,,192,0,10,,,,,,,,5,,,75,0
58368,note_on,,192,0,4,,,,,,,,3,,,51,0
58368,note_on,,0,0,10,,,,,,,,5,,,77,92
58368,note_on,,0,0,6,,,,,,,,11,,,65,92
58368,note_on,,192,0,6,,,,,,,,11,,,63,0
58368,note_on,,0,0,4,,,,,,,,3,,,50,127
58368,note_on,,0,0,8,,,,,,,,13,,,46,75
58368,note_on,,192,0,8,,,,,,,,13,,,48,0
58368,note_on,,192,0,7,,,,,,,,12,,,60,0
58368,note_on,,0,0,7,,,,,,,,12,,,62,75
58368,note_on,,0,0,2,,,,,,,,1,,,65,127
58368,note_on,,0,0,12,,,,,,,,8,,,46,75
58368,note_on,,192,0,12,,,,,,,,8,,,48,0
58368,note_on,,192,0,11,,,,,,,,7,,,72,0
58368,note_on,,0,0,11,,,,,,,,7,,,74,92
58368,note_on,,192,0,3,,,,,,,,2,,,60,0
58368,note_on,,0,0,3,,,,,,,,2,,,62,127
58656,note_on,,288,0,2,,,,,,,,1,,,65,0
58656,note_on,,0,0,7,,,,,,,,12,,,53,75
58656,note_on,,0,0,2,,,,,,,,1,,,63,127
58656,note_on,,288,0,4,,,,,,,,3,,,50,0
58656,note_on,,288,0,6,,,,,,,,11,,,65,0
58656,note_on,,0,0,6,,,,,,,,11,,,63,92
58656,note_on,,0,0,10,,,,,,,,5,,,75,92
58656,note_on,,288,0,10,,,,,,,,5,,,77,0
58656,note_on,,288,0,11,,,,,,,,7,,,74,0
58656,note_on,,0,0,11,,,,,,,,7,,,65,92
58656,note_on,,288,0,3,,,,,,,,2,,,62,0
58656,note_on,,0,0,3,,,,,,,,2,,,53,127
58656,note_on,,288,0,7,,,,,,,,12,,,62,0
58656,note_on,,0,0,4,,,,,,,,3,,,48,127
58752,note_on,,96,0,6,,,,,,,,11,,,63,0
58752,note_on,,0,0,6,,,,,,,,11,,,62,92
58752,note_on,,0,0,2,,,,,,,,1,,,62,127
58752,note_on,,96,0,2,,,,,,,,1,,,63,0
58752,note_on,,96,0,11,,,,,,,,7,,,65,0
58752,note_on,,96,0,7,,,,,,,,12,,,53,0
58752,note_on,,0,0,11,,,,,,,,7,,,65,92
58752,note_on,,0,0,7,,,,,,,,12,,,53,75
58752,note_on,,0,0,3,,,,,,,,2,,,53,127
58752,note_on,,96,0,3,,,,,,,,2,,,53,0
58752,note_on,,0,0,10,,,,,,,,5,,,74,92
58752,note_on,,96,0,10,,,,,,,,5,,,75,0
58752,note_on,,96,0,4,,,,,,,,3,,,48,0
58752,note_on,,0,0,4,,,,,,,,3,,,46,127
58944,note_on,,192,0,3,,,,,,,,2,,,53,0
58944,note_on,,0,0,4,,,,,,,,3,,,58,127
58944,note_on,,0,0,9,,,,,,,,14,,,46,75
58944,note_on,,576,0,9,,,,,,,,14,,,34,0
58944,note_on,,192,0,4,,,,,,,,3,,,46,0
58944,note_on,,192,0,7,,,,,,,,12,,,53,0
58944,note_on,,192,0,2,,,,,,,,1,,,62,0
58944,note_on,,1728,0,1,,,,,,,,0,,,70,0
58944,set_tempo,1200000,58752,1,0,,,,,,,,,,,,
58944,note_on,,576,0,8,,,,,,,,13,,,46,0
58944,note_on,,0,0,7,,,,,,,,12,,,62,75
58944,note_on,,192,0,11,,,,,,,,7,,,65,0
58944,note_on,,0,0,6,,,,,,,,11,,,65,92
58944,note_on,,192,0,6,,,,,,,,11,,,62,0
58944,note_on,,192,0,10,,,,,,,,5,,,74,0
58944,note_on,,0,0,8,,,,,,,,13,,,58,75
58944,note_on,,0,0,12,,,,,,,,8,,,58,75
58944,note_on,,576,0,12,,,,,,,,8,,,46,0
59328,note_on,,384,0,4,,,,,,,,3,,,58,0
59328,note_on,,0,0,12,,,,,,,,8,,,55,75
59328,note_on,,384,0,12,,,,,,,,8,,,58,0
59328,note_on,,0,0,4,,,,,,,,3,,,55,127
59328,note_on,,384,0,7,,,,,,,,12,,,62,0
59328,note_on,,384,0,9,,,,,,,,14,,,46,0
59328,note_on,,0,0,6,,,,,,,,11,,,67,92
59328,note_on,,384,0,6,,,,,,,,11,,,65,0
59328,note_on,,0,0,8,,,,,,,,13,,,55,75
59328,note_on,,384,0,8,,,,,,,,13,,,58,0
59328,note_on,,0,0,9,,,,,,,,14,,,43,75
59328,note_on,,0,0,7,,,,,,,,12,,,63,75
59520,note_on,,0,0,8,,,,,,,,13,,,51,75
59520,note_on,,192,0,8,,,,,,,,13,,,55,0
59520,note_on,,576,0,2,,,,,,,,1,,,70,127
59520,note_on,,0,0,4,,,,,,,,3,,,51,127
59520,note_on,,576,0,11,,,,,,,,7,,,70,92
59520,note_on,,0,0,7,,,,,,,,12,,,63,75
59520,note_on,,192,0,12,,,,,,,,8,,,55,0
59520,note_on,,0,0,12,,,,,,,,8,,,51,75
59520,note_on,,0,0,9,,,,,,,,14,,,39,75
59520,note_on,,192,0,9,,,,,,,,14,,,43,0
59520,note_on,,192,0,7,,,,,,,,12,,,63,0
59520,note_on,,192,0,6,,,,,,,,11,,,67,0
59520,note_on,,0,0,6,,,,,,,,11,,,67,92
59520,note_on,,192,0,4,,,,,,,,3,,,55,0
59904,note_on,,384,0,2,,,,,,,,1,,,70,0
59904,note_on,,0,0,2,,,,,,,,1,,,67,127
59904,note_on,,384,0,11,,,,,,,,7,,,70,0
59904,note_on,,0,0,11,,,,,,,,7,,,67,92
60096,note_on,,192,0,11,,,,,,,,7,,,67,0
60096,note_on,,1152,0,10,,,,,,,,5,,,79,92
60096,note_on,,0,0,11,,,,,,,,7,,,63,92
60096,note_on,,192,0,2,,,,,,,,1,,,67,0
60096,note_on,,0,0,2,,,,,,,,1,,,63,127
60096,note_on,,576,0,4,,,,,,,,3,,,51,0
60096,note_on,,1152,0,1,,,,,,,,0,,,79,127
60480,note_on,,384,0,1,,,,,,,,0,,,79,0
60480,note_on,,0,0,10,,,,,,,,5,,,75,92
60480,note_on,,384,0,10,,,,,,,,5,,,79,0
60480,note_on,,0,0,1,,,,,,,,0,,,75,127
60672,note_on,,1728,0,3,,,,,,,,2,,,67,127
60672,note_on,,192,0,1,,,,,,,,0,,,75,0
60672,note_on,,0,0,11,,,,,,,,7,,,67,92
60672,note_on,,0,0,5,,,,,,,,10,,,72,92
60672,note_on,,0,0,1,,,,,,,,0,,,72,127
60672,note_on,,3456,0,5,,,,,,,,10,,,70,0
60672,note_on,,192,0,10,,,,,,,,5,,,75,0
60672,note_on,,0,0,10,,,,,,,,5,,,72,92
60672,note_on,,576,0,11,,,,,,,,7,,,63,0
60672,note_on,,576,0,2,,,,,,,,1,,,63,0
61056,note_on,,0,0,12,,,,,,,,8,,,55,75
61056,note_on,,0,0,9,,,,,,,,14,,,43,75
61056,note_on,,1536,0,12,,,,,,,,8,,,51,0
61056,note_on,,384,0,11,,,,,,,,7,,,67,0
61056,note_on,,384,0,3,,,,,,,,2,,,67,0
61056,note_on,,0,0,3,,,,,,,,2,,,63,127
61056,note_on,,0,0,11,,,,,,,,7,,,63,92
61056,note_on,,1536,0,9,,,,,,,,14,,,39,0
61056,note_on,,0,0,8,,,,,,,,13,,,55,75
61056,note_on,,1536,0,8,,,,,,,,13,,,51,0
61248,note_on,,0,0,3,,,,,,,,2,,,60,127
61248,note_on,,192,0,8,,,,,,,,13,,,55,0
61248,note_on,,192,0,12,,,,,,,,8,,,55,0
61248,note_on,,0,0,9,,,,,,,,14,,,32,75
61248,note_on,,576,0,10,,,,,,,,5,,,72,0
61248,note_on,,0,0,11,,,,,,,,7,,,60,92
61248,note_on,,576,0,1,,,,,,,,0,,,72,0
61248,note_on,,192,0,11,,,,,,,,7,,,63,0
61248,note_on,,0,0,12,,,,,,,,8,,,44,75
61248,note_on,,192,0,9,,,,,,,,14,,,43,0
61248,note_on,,192,0,3,,,,,,,,2,,,63,0
61248,note_on,,0,0,8,,,,,,,,13,,,44,75
61632,note_on,,2112,0,7,,,,,,,,12,,,63,0
61632,note_on,,0,0,6,,,,,,,,11,,,65,127
61632,note_on,,0,0,7,,,,,,,,12,,,60,105
61632,note_on,,2112,0,6,,,,,,,,11,,,67,0
61824,note_on,,1728,0,4,,,,,,,,3,,,55,127
61824,note_on,,1152,0,5,,,,,,,,10,,,72,0
61824,note_on,,0,0,5,,,,,,,,10,,,59,127
61824,note_on,,0,0,12,,,,,,,,8,,,43,75
61824,note_on,,576,0,9,,,,,,,,14,,,32,0
61824,note_on,,0,0,9,,,,,,,,14,,,31,105
61824,note_on,,576,0,11,,,,,,,,7,,,60,0
61824,note_on,,192,0,6,,,,,,,,11,,,65,0
61824,note_on,,0,0,6,,,,,,,,11,,,67,127
61824,note_on,,0,0,7,,,,,,,,12,,,62,105
61824,note_on,,192,0,7,,,,,,,,12,,,60,0
61824,note_on,,0,0,3,,,,,,,,2,,,55,127
61824,note_on,,576,0,3,,,,,,,,2,,,60,0
61824,note_on,,576,0,8,,,,,,,,13,,,44,0
61824,note_on,,0,0,8,,,,,,,,13,,,43,105
61824,note_on,,576,0,12,,,,,,,,8,,,44,0
62208,note_on,,384,0,4,,,,,,,,3,,,55,0
62208,note_on,,0,0,7,,,,,,,,12,,,63,75
62208,note_on,,0,0,4,,,,,,,,3,,,51,127
62208,note_on,,384,0,12,,,,,,,,8,,,43,0
62208,note_on,,0,0,3,,,,,,,,2,,,51,127
62208,note_on,,384,0,3,,,,,,,,2,,,55,0
62208,note_on,,0,0,12,,,,,,,,8,,,39,75
62208,note_on,,384,0,7,,,,,,,,12,,,62,0
62208,note_on,,0,0,5,,,,,,,,10,,,60,92
62208,note_on,,0,0,9,,,,,,,,14,,,27,75
62208,note_on,,384,0,9,,,,,,,,14,,,31,0
62208,note_on,,384,0,8,,,,,,,,13,,,43,0
62208,note_on,,0,0,8,,,,,,,,13,,,39,75
62208,note_on,,384,0,5,,,,,,,,10,,,59,0
62400,set_tempo,1500000,3456,1,0,,,,,,,,,,,,
62400,note_on,,0,0,4,,,,,,,,3,,,48,127
62400,note_on,,192,0,4,,,,,,,,3,,,51,0
62400,note_on,,0,0,7,,,,,,,,12,,,63,75
62400,note_on,,192,0,7,,,,,,,,12,,,63,0
62400,note_on,,192,0,5,,,,,,,,10,,,60,0
62400,note_on,,192,0,8,,,,,,,,13,,,39,0
62400,note_on,,0,0,9,,,,,,,,14,,,24,75
62400,note_on,,0,0,3,,,,,,,,2,,,48,127
62400,note_on,,192,0,3,,,,,,,,2,,,51,0
62400,note_on,,192,0,12,,,,,,,,8,,,39,0
62400,note_on,,0,0,12,,,,,,,,8,,,36,75
62400,note_on,,0,0,8,,,,,,,,13,,,36,75
62400,note_on,,0,0,5,,,,,,,,10,,,60,92
62400,note_on,,192,0,9,,,,,,,,14,,,27,0
62784,note_on,,384,0,5,,,,,,,,10,,,60,0
62784,note_on,,384,0,12,,,,,,,,8,,,36,0
62784,note_on,,384,0,9,,,,,,,,14,,,24,0
62784,note_on,,0,0,9,,,,,,,,14,,,48,92
62784,note_on,,0,0,12,,,,,,,,8,,,60,92
62784,set_tempo,1000000,384,1,0,,,,,,,,,,,,
62784,note_on,,384,0,4,,,,,,,,3,,,48,0
62784,note_on,,384,0,8,,,,,,,,13,,,36,0
62784,note_on,,0,0,8,,,,,,,,13,,,60,92
62784,note_on,,2112,0,2,,,,,,,,1,,,67,127
62784,note_on,,1536,0,10,,,,,,,,5,,,79,108
62784,note_on,,1536,0,1,,,,,,,,0,,,79,127
62784,note_on,,960,0,6,,,,,,,,11,,,67,0
62784,note_on,,0,0,3,,,,,,,,2,,,63,127
62784,note_on,,384,0,3,,,,,,,,2,,,48,0
62784,note_on,,960,0,11,,,,,,,,7,,,75,108
62784,note_on,,384,0,7,,,,,,,,12,,,63,0
62784,note_on,,0,0,4,,,,,,,,3,,,60,127
62976,note_on,,0,0,3,,,,,,,,2,,,62,127
62976,note_on,,192,0,1,,,,,,,,0,,,79,0
62976,note_on,,0,0,1,,,,,,,,0,,,79,127
62976,note_on,,192,0,11,,,,,,,,7,,,75,0
62976,note_on,,0,0,11,,,,,,,,7,,,74,108
62976,note_on,,0,0,9,,,,,,,,14,,,46,92
62976,note_on,,192,0,3,,,,,,,,2,,,63,0
62976,note_on,,192,0,9,,,,,,,,14,,,48,0
62976,note_on,,0,0,12,,,,,,,,8,,,58,92
62976,note_on,,192,0,10,,,,,,,,5,,,79,0
62976,note_on,,0,0,4,,,,,,,,3,,,58,127
62976,note_on,,192,0,4,,,,,,,,3,,,60,0
62976,note_on,,192,0,8,,,,,,,,13,,,60,0
62976,note_on,,192,0,2,,,,,,,,1,,,67,0
62976,note_on,,0,0,8,,,,,,,,13,,,58,92
62976,note_on,,0,0,10,,,,,,,,5,,,79,108
62976,note_on,,192,0,12,,,,,,,,8,,,60,0
62976,note_on,,0,0,2,,,,,,,,1,,,67,127
63264,note_on,,0,0,3,,,,,,,,2,,,63,127
63264,note_on,,0,0,2,,,,,,,,1,,,68,127
63264,note_on,,288,0,10,,,,,,,,5,,,79,0
63264,note_on,,288,0,2,,,,,,,,1,,,67,0
63264,note_on,,0,0,10,,,,,,,,5,,,80,108
63264,note_on,,288,0,1,,,,,,,,0,,,79,0
63264,note_on,,0,0,1,,,,,,,,0,,,80,127
63264,note_on,,288,0,4,,,,,,,,3,,,58,0
63264,note_on,,0,0,4,,,,,,,,3,,,60,127
63264,note_on,,288,0,3,,,,,,,,2,,,62,0
63360,note_on,,96,0,2,,,,,,,,1,,,68,0
63360,note_on,,96,0,3,,,,,,,,2,,,63,0
63360,note_on,,0,0,2,,,,,,,,1,,,65,127
63360,note_on,,0,0,3,,,,,,,,2,,,60,127
63360,note_on,,96,0,10,,,,,,,,5,,,80,0
63360,note_on,,0,0,10,,,,,,,,5,,,77,108
63360,note_on,,0,0,4,,,,,,,,3,,,56,127
63360,note_on,,0,0,9,,,,,,,,14,,,44,92
63360,note_on,,384,0,9,,,,,,,,14,,,46,0
63360,note_on,,96,0,1,,,,,,,,0,,,80,0
63360,note_on,,0,0,1,,,,,,,,0,,,77,127
63360,note_on,,384,0,11,,,,,,,,7,,,74,0
63360,note_on,,384,0,8,,,,,,,,13,,,58,0
63360,note_on,,0,0,11,,,,,,,,7,,,72,108
63360,note_on,,0,0,8,,,,,,,,13,,,56,92
63360,note_on,,384,0,12,,,,,,,,8,,,58,0
63360,note_on,,0,0,12,,,,,,,,8,,,56,92
63360,note_on,,96,0,4,,,,,,,,3,,,60,0
63552,note_on,,192,0,12,,,,,,,,8,,,56,0
63552,note_on,,0,0,2,,,,,,,,1,,,67,127
63552,note_on,,0,0,12,,,,,,,,8,,,55,92
63552,note_on,,0,0,4,,,,,,,,3,,,55,127
63552,note_on,,0,0,9,,,,,,,,14,,,43,92
63552,note_on,,192,0,9,,,,,,,,14,,,44,0
63552,note_on,,0,0,8,,,,,,,,13,,,55,92
63552,note_on,,192,0,8,,,,,,,,13,,,56,0
63552,note_on,,192,0,11,,,,,,,,7,,,72,0
63552,note_on,,192,0,2,,,,,,,,1,,,65,0
63552,note_on,,0,0,11,,,,,,,,7,,,71,108
63552,note_on,,192,0,4,,,,,,,,3,,,56,0
63552,note_on,,192,0,3,,,,,,,,2,,,60,0
63552,note_on,,0,0,1,,,,,,,,0,,,79,127
63552,note_on,,192,0,1,,,,,,,,0,,,77,0
63552,note_on,,0,0,3,,,,,,,,2,,,62,127
63552,note_on,,192,0,10,,,,,,,,5,,,77,0
63552,note_on,,0,0,10,,,,,,,,5,,,79,108
63744,note_on,,0,0,8,,,,,,,,13,,,53,92
63744,note_on,,0,0,3,,,,,,,,2,,,62,127
63744,note_on,,192,0,1,,,,,,,,0,,,79,0
63744,note_on,,0,0,1,,,,,,,,0,,,79,127
63744,note_on,,0,0,4,,,,,,,,3,,,55,127
63744,note_on,,192,0,4,,,,,,,,3,,,55,0
63744,note_on,,192,0,8,,,,,,,,13,,,55,0
63744,note_on,,192,0,9,,,,,,,,14,,,43,0
63744,note_on,,0,0,9,,,,,,,,14,,,41,92
63744,note_on,,192,0,3,,,,,,,,2,,,62,0
63744,note_on,,0,0,12,,,,,,,,8,,,53,92
63744,note_on,,192,0,12,,,,,,,,8,,,55,0
63744,note_on,,0,0,2,,,,,,,,1,,,67,127
63744,note_on,,0,0,10,,,,,,,,5,,,79,108
63744,note_on,,192,0,10,,,,,,,,5,,,79,0
63744,note_on,,192,0,2,,,,,,,,1,,,67,0
63936,note_on,,0,0,12,,,,,,,,8,,,51,92
63936,note_on,,1152,0,6,,,,,,,,11,,,60,108
63936,note_on,,192,0,3,,,,,,,,2,,,62,0
63936,note_on,,1152,0,5,,,,,,,,10,,,67,108
63936,note_on,,192,0,10,,,,,,,,5,,,79,0
63936,note_on,,192,0,4,,,,,,,,3,,,55,0
63936,note_on,,384,0,11,,,,,,,,7,,,71,0
63936,note_on,,192,0,12,,,,,,,,8,,,53,0
63936,note_on,,192,0,2,,,,,,,,1,,,67,0
63936,note_on,,192,0,8,,,,,,,,13,,,53,0
63936,note_on,,192,0,1,,,,,,,,0,,,79,0
63936,note_on,,0,0,9,,,,,,,,14,,,39,92
63936,note_on,,0,0,8,,,,,,,,13,,,51,92
63936,note_on,,192,0,9,,,,,,,,14,,,41,0
63936,note_on,,1152,0,7,,,,,,,,12,,,55,92
64128,note_on,,0,0,6,,,,,,,,11,,,59,108
64128,note_on,,192,0,6,,,,,,,,11,,,60,0
64128,note_on,,192,0,9,,,,,,,,14,,,39,0
64128,note_on,,0,0,9,,,,,,,,14,,,38,92
64128,note_on,,0,0,5,,,,,,,,10,,,65,108
64128,note_on,,0,0,8,,,,,,,,13,,,50,92
64128,note_on,,0,0,12,,,,,,,,8,,,50,92
64128,note_on,,192,0,5,,,,,,,,10,,,67,0
64128,note_on,,192,0,8,,,,,,,,13,,,51,0
64128,note_on,,192,0,12,,,,,,,,8,,,51,0
64128,note_on,,192,0,7,,,,,,,,12,,,55,0
64128,note_on,,0,0,7,,,,,,,,12,,,62,92
64320,note_on,,192,0,12,,,,,,,,8,,,50,0
64320,note_on,,0,0,8,,,,,,,,13,,,51,92
64320,note_on,,192,0,5,,,,,,,,10,,,65,0
64320,note_on,,192,0,8,,,,,,,,13,,,50,0
64320,note_on,,0,0,5,,,,,,,,10,,,67,108
64320,note_on,,0,0,12,,,,,,,,8,,,51,92
64320,note_on,,0,0,9,,,,,,,,14,,,39,92
64320,note_on,,0,0,6,,,,,,,,11,,,60,108
64320,note_on,,192,0,6,,,,,,,,11,,,59,0
64320,note_on,,192,0,9,,,,,,,,14,,,38,0
64320,note_on,,0,0,7,,,,,,,,12,,,55,92
64320,note_on,,192,0,7,,,,,,,,12,,,62,0
64512,note_on,,192,0,7,,,,,,,,12,,,55,0
64512,note_on,,192,0,8,,,,,,,,13,,,51,0
64512,note_on,,0,0,8,,,,,,,,13,,,53,92
64512,note_on,,0,0,5,,,,,,,,10,,,63,108
64512,note_on,,0,0,7,,,,,,,,12,,,60,92
64512,note_on,,192,0,9,,,,,,,,14,,,39,0
64512,note_on,,192,0,12,,,,,,,,8,,,51,0
64512,note_on,,0,0,12,,,,,,,,8,,,53,92
64512,note_on,,192,0,5,,,,,,,,10,,,67,0
64512,note_on,,0,0,9,,,,,,,,14,,,41,92
64704,note_on,,0,0,5,,,,,,,,10,,,62,108
64704,note_on,,192,0,5,,,,,,,,10,,,63,0
64704,note_on,,192,0,9,,,,,,,,14,,,41,0
64704,note_on,,192,0,7,,,,,,,,12,,,60,0
64704,note_on,,192,0,8,,,,,,,,13,,,53,0
64704,note_on,,0,0,8,,,,,,,,13,,,55,92
64704,note_on,,0,0,7,,,,,,,,12,,,55,92
64704,note_on,,0,0,9,,,,,,,,14,,,43,92
64704,note_on,,384,0,6,,,,,,,,11,,,60,0
64704,note_on,,192,0,12,,,,,,,,8,,,53,0
64704,note_on,,0,0,12,,,,,,,,8,,,55,92
64704,note_on,,0,0,6,,,,,,,,11,,,59,108
65088,note_on,,0,0,8,,,,,,,,13,,,48,92
65088,note_on,,1152,0,10,,,,,,,,5,,,63,108
65088,note_on,,384,0,8,,,,,,,,13,,,55,0
65088,note_on,,1152,0,4,,,,,,,,3,,,48,127
65088,note_on,,1152,0,1,,,,,,,,0,,,63,127
65088,note_on,,1152,0,2,,,,,,,,1,,,60,127
65088,note_on,,1152,0,11,,,,,,,,7,,,63,108
65088,note_on,,0,0,6,,,,,,,,11,,,60,108
65088,note_on,,384,0,6,,,,,,,,11,,,59,0
65088,note_on,,1152,0,3,,,,,,,,2,,,55,127
65088,note_on,,0,0,7,,,,,,,,12,,,55,92
65088,note_on,,384,0,7,,,,,,,,12,,,55,0
65088,note_on,,384,0,5,,,,,,,,10,,,62,0
65088,note_on,,0,0,12,,,,,,,,8,,,48,92
65088,note_on,,0,0,5,,,,,,,,10,,,63,108
65088,note_on,,0,0,9,,,,,,,,14,,,36,92
65088,note_on,,384,0,9,,,,,,,,14,,,43,0
65088,note_on,,384,0,12,,,,,,,,8,,,55,0
65280,note_on,,0,0,1,,,,,,,,0,,,65,127
65280,note_on,,0,0,3,,,,,,,,2,,,58,127
65280,note_on,,192,0,3,,,,,,,,2,,,55,0
65280,note_on,,192,0,9,,,,,,,,14,,,36,0
65280,note_on,,0,0,9,,,,,,,,14,,,34,92
65280,note_on,,0,0,8,,,,,,,,13,,,46,92
65280,note_on,,192,0,8,,,,,,,,13,,,48,0
65280,note_on,,192,0,1,,,,,,,,0,,,63,0
65280,note_on,,0,0,7,,,,,,,,12,,,58,92
65280,note_on,,192,0,4,,,,,,,,3,,,48,0
65280,note_on,,0,0,5,,,,,,,,10,,,63,108
65280,note_on,,192,0,11,,,,,,,,7,,,63,0
65280,note_on,,0,0,10,,,,,,,,5,,,65,108
65280,note_on,,0,0,2,,,,,,,,1,,,62,127
65280,note_on,,192,0,2,,,,,,,,1,,,60,0
65280,note_on,,192,0,7,,,,,,,,12,,,55,0
65280,note_on,,192,0,10,,,,,,,,5,,,63,0
65280,note_on,,192,0,5,,,,,,,,10,,,63,0
65280,note_on,,0,0,6,,,,,,,,11,,,62,108
65280,note_on,,192,0,12,,,,,,,,8,,,48,0
65280,note_on,,0,0,11,,,,,,,,7,,,65,108
65280,note_on,,0,0,4,,,,,,,,3,,,46,127
65280,note_on,,192,0,6,,,,,,,,11,,,60,0
65280,note_on,,0,0,12,,,,,,,,8,,,46,92
65664,note_on,,384,0,11,,,,,,,,7,,,65,0
65664,note_on,,384,0,2,,,,,,,,1,,,62,0
65664,note_on,,0,0,2,,,,,,,,1,,,65,127
65664,note_on,,0,0,11,,,,,,,,7,,,72,108
65664,note_on,,384,0,7,,,,,,,,12,,,58,0
65664,note_on,,384,0,3,,,,,,,,2,,,58,0
65664,note_on,,0,0,3,,,,,,,,2,,,60,127
65664,note_on,,0,0,5,,,,,,,,10,,,72,108
65664,note_on,,384,0,4,,,,,,,,3,,,46,0
65664,note_on,,0,0,4,,,,,,,,3,,,56,127
65664,note_on,,0,0,7,,,,,,,,12,,,60,92
65664,note_on,,0,0,6,,,,,,,,11,,,65,108
65664,note_on,,384,0,5,,,,,,,,10,,,63,0
65664,note_on,,384,0,6,,,,,,,,11,,,62,0
65664,note_on,,0,0,8,,,,,,,,13,,,44,92
65664,note_on,,384,0,12,,,,,,,,8,,,46,0
65664,note_on,,0,0,12,,,,,,,,8,,,44,92
65664,note_on,,384,0,1,,,,,,,,0,,,65,0
65664,note_on,,0,0,1,,,,,,,,0,,,72,127
65664,note_on,,384,0,9,,,,,,,,14,,,34,0
65664,note_on,,0,0,9,,,,,,,,14,,,32,92
65664,note_on,,384,0,8,,,,,,,,13,,,46,0
65664,note_on,,0,0,10,,,,,,,,5,,,72,108
65664,note_on,,384,0,10,,,,,,,,5,,,65,0
65856,note_on,,192,0,6,,,,,,,,11,,,65,0
65856,note_on,,0,0,6,,,,,,,,11,,,67,108
65856,note_on,,0,0,11,,,,,,,,7,,,71,108
65856,note_on,,192,0,11,,,,,,,,7,,,72,0
65856,note_on,,0,0,9,,,,,,,,14,,,31,92
65856,note_on,,192,0,2,,,,,,,,1,,,65,0
65856,note_on,,192,0,3,,,,,,,,2,,,60,0
65856,note_on,,192,0,9,,,,,,,,14,,,32,0
65856,note_on,,0,0,12,,,,,,,,8,,,43,92
65856,note_on,,192,0,12,,,,,,,,8,,,44,0
65856,note_on,,0,0,2,,,,,,,,1,,,67,127
65856,note_on,,192,0,7,,,,,,,,12,,,60,0
65856,note_on,,0,0,3,,,,,,,,2,,,62,127
65856,note_on,,0,0,7,,,,,,,,12,,,62,92
65856,note_on,,192,0,8,,,,,,,,13,,,44,0
65856,note_on,,0,0,8,,,,,,,,13,,,43,92
65856,note_on,,0,0,5,,,,,,,,10,,,71,108
65856,note_on,,192,0,5,,,,,,,,10,,,72,0
65856,note_on,,192,0,1,,,,,,,,0,,,72,0
65856,note_on,,0,0,1,,,,,,,,0,,,71,127
65856,note_on,,192,0,4,,,,,,,,3,,,56,0
65856,note_on,,0,0,10,,,,,,,,5,,,71,108
65856,note_on,,192,0,10,,,,,,,,5,,,72,0
65856,note_on,,0,0,4,,,,,,,,3,,,55,127
66048,note_on,,192,0,1,,,,,,,,0,,,71,0
66048,note_on,,0,0,1,,,,,,,,0,,,71,127
66048,note_on,,192,0,9,,,,,,,,14,,,31,0
66048,note_on,,0,0,9,,,,,,,,14,,,29,92
66048,note_on,,0,0,3,,,,,,,,2,,,62,127
66048,note_on,,0,0,4,,,,,,,,3,,,53,127
66048,note_on,,0,0,5,,,,,,,,10,,,71,108
66048,note_on,,0,0,2,,,,,,,,1,,,67,127
66048,note_on,,192,0,11,,,,,,,,7,,,71,0
66048,note_on,,0,0,11,,,,,,,,7,,,71,108
66048,note_on,,192,0,12,,,,,,,,8,,,43,0
66048,note_on,,192,0,10,,,,,,,,5,,,71,0
66048,note_on,,0,0,10,,,,,,,,5,,,71,108
66048,note_on,,192,0,5,,,,,,,,10,,,71,0
66048,note_on,,192,0,3,,,,,,,,2,,,62,0
66048,note_on,,192,0,4,,,,,,,,3,,,55,0
66048,note_on,,192,0,2,,,,,,,,1,,,67,0
66048,note_on,,0,0,12,,,,,,,,8,,,41,92
66048,note_on,,192,0,8,,,,,,,,13,,,43,0
66048,note_on,,0,0,8,,,,,,,,13,,,41,92
66240,note_on,,192,0,12,,,,,,,,8,,,41,0
66240,note_on,,0,0,11,,,,,,,,7,,,72,108
66240,note_on,,192,0,11,,,,,,,,7,,,71,0
66240,note_on,,192,0,3,,,,,,,,2,,,62,0
66240,note_on,,0,0,1,,,,,,,,0,,,72,127
66240,note_on,,0,0,5,,,,,,,,10,,,72,108
66240,note_on,,192,0,5,,,,,,,,10,,,71,0
66240,note_on,,192,0,10,,,,,,,,5,,,71,0
66240,note_on,,384,0,7,,,,,,,,12,,,62,0
66240,note_on,,192,0,9,,,,,,,,14,,,29,0
66240,note_on,,0,0,9,,,,,,,,14,,,27,92
66240,note_on,,0,0,10,,,,,,,,5,,,72,108
66240,note_on,,192,0,2,,,,,,,,1,,,67,0
66240,note_on,,0,0,2,,,,,,,,1,,,67,127
66240,note_on,,0,0,12,,,,,,,,8,,,39,92
66240,note_on,,0,0,7,,,,,,,,12,,,63,92
66240,note_on,,0,0,3,,,,,,,,2,,,63,127
66240,note_on,,192,0,8,,,,,,,,13,,,41,0
66240,note_on,,192,0,4,,,,,,,,3,,,53,0
66240,note_on,,0,0,4,,,,,,,,3,,,51,127
66240,note_on,,0,0,8,,,,,,,,13,,,39,92
66240,note_on,,192,0,1,,,,,,,,0,,,71,0
66432,note_on,,0,0,2,,,,,,,,1,,,65,127
66432,note_on,,192,0,12,,,,,,,,8,,,39,0
66432,note_on,,0,0,12,,,,,,,,8,,,38,92
66432,note_on,,192,0,9,,,,,,,,14,,,27,0
66432,note_on,,0,0,9,,,,,,,,14,,,26,92
66432,note_on,,192,0,5,,,,,,,,10,,,72,0
66432,note_on,,0,0,5,,,,,,,,10,,,74,108
66432,note_on,,192,0,8,,,,,,,,13,,,39,0
66432,note_on,,192,0,10,,,,,,,,5,,,72,0
66432,note_on,,192,0,1,,,,,,,,0,,,72,0
66432,note_on,,0,0,1,,,,,,,,0,,,74,127
66432,note_on,,0,0,8,,,,,,,,13,,,38,92
66432,note_on,,0,0,3,,,,,,,,2,,,59,127
66432,note_on,,192,0,3,,,,,,,,2,,,63,0
66432,note_on,,192,0,2,,,,,,,,1,,,67,0
66432,note_on,,192,0,4,,,,,,,,3,,,51,0
66432,note_on,,0,0,4,,,,,,,,3,,,50,127
66432,note_on,,192,0,11,,,,,,,,7,,,72,0
66432,note_on,,0,0,6,,,,,,,,11,,,65,108
66432,note_on,,576,0,6,,,,,,,,11,,,67,0
66432,note_on,,192,0,7,,,,,,,,12,,,63,0
66432,note_on,,0,0,7,,,,,,,,12,,,59,92
66432,note_on,,0,0,11,,,,,,,,7,,,74,108
66432,note_on,,0,0,10,,,,,,,,5,,,74,108
66624,note_on,,0,0,2,,,,,,,,1,,,63,127
66624,note_on,,192,0,2,,,,,,,,1,,,65,0
66624,note_on,,0,0,11,,,,,,,,7,,,72,108
66624,note_on,,192,0,12,,,,,,,,8,,,38,0
66624,note_on,,0,0,6,,,,,,,,11,,,63,108
66624,note_on,,0,0,12,,,,,,,,8,,,39,92
66624,note_on,,0,0,5,,,,,,,,10,,,72,108
66624,note_on,,0,0,9,,,,,,,,14,,,27,92
66624,note_on,,0,0,3,,,,,,,,2,,,55,127
66624,note_on,,192,0,3,,,,,,,,2,,,59,0
66624,note_on,,192,0,11,,,,,,,,7,,,74,0
66624,note_on,,0,0,10,,,,,,,,5,,,72,108
66624,note_on,,192,0,5,,,,,,,,10,,,74,0
66624,note_on,,192,0,6,,,,,,,,11,,,65,0
66624,note_on,,192,0,9,,,,,,,,14,,,26,0
66624,note_on,,192,0,8,,,,,,,,13,,,38,0
66624,note_on,,0,0,8,,,,,,,,13,,,39,92
66624,note_on,,0,0,7,,,,,,,,12,,,55,92
66624,note_on,,192,0,7,,,,,,,,12,,,59,0
66624,note_on,,192,0,4,,,,,,,,3,,,50,0
66624,note_on,,0,0,4,,,,,,,,3,,,51,127
66624,note_on,,192,0,10,,,,,,,,5,,,74,0
66624,note_on,,192,0,1,,,,,,,,0,,,74,0
66624,note_on,,0,0,1,,,,,,,,0,,,72,127
66816,note_on,,0,0,4,,,,,,,,3,,,53,127
66816,note_on,,192,0,7,,,,,,,,12,,,55,0
66816,note_on,,0,0,9,,,,,,,,14,,,29,92
66816,note_on,,192,0,9,,,,,,,,14,,,27,0
66816,note_on,,192,0,11,,,,,,,,7,,,72,0
66816,note_on,,0,0,11,,,,,,,,7,,,74,108
66816,note_on,,0,0,10,,,,,,,,5,,,74,108
66816,note_on,,192,0,1,,,,,,,,0,,,72,0
66816,note_on,,192,0,12,,,,,,,,8,,,39,0
66816,note_on,,0,0,7,,,,,,,,12,,,65,92
66816,note_on,,0,0,1,,,,,,,,0,,,74,127
66816,note_on,,192,0,10,,,,,,,,5,,,72,0
66816,note_on,,0,0,8,,,,,,,,13,,,41,92
66816,note_on,,0,0,5,,,,,,,,10,,,74,108
66816,note_on,,192,0,5,,,,,,,,10,,,72,0
66816,note_on,,192,0,6,,,,,,,,11,,,63,0
66816,note_on,,0,0,6,,,,,,,,11,,,68,108
66816,note_on,,192,0,4,,,,,,,,3,,,51,0
66816,note_on,,0,0,12,,,,,,,,8,,,41,92
66816,note_on,,192,0,8,,,,,,,,13,,,39,0
66816,note_on,,0,0,2,,,,,,,,1,,,65,127
66816,note_on,,192,0,2,,,,,,,,1,,,63,0
66816,note_on,,192,0,3,,,,,,,,2,,,55,0
66816,note_on,,0,0,3,,,,,,,,2,,,65,127
67008,note_on,,192,0,11,,,,,,,,7,,,74,0
67008,note_on,,192,0,12,,,,,,,,8,,,41,0
67008,note_on,,0,0,11,,,,,,,,7,,,71,108
67008,note_on,,192,0,7,,,,,,,,12,,,65,0
67008,note_on,,0,0,7,,,,,,,,12,,,62,92
67008,note_on,,192,0,6,,,,,,,,11,,,68,0
67008,note_on,,0,0,6,,,,,,,,11,,,67,108
67008,note_on,,192,0,2,,,,,,,,1,,,65,0
67008,note_on,,0,0,12,,,,,,,,8,,,43,92
67008,note_on,,0,0,2,,,,,,,,1,,,67,127
67008,note_on,,192,0,3,,,,,,,,2,,,65,0
67008,note_on,,192,0,5,,,,,,,,10,,,74,0
67008,note_on,,0,0,5,,,,,,,,10,,,71,108
67008,note_on,,192,0,8,,,,,,,,13,,,41,0
67008,note_on,,0,0,3,,,,,,,,2,,,62,127
67008,note_on,,192,0,4,,,,,,,,3,,,53,0
67008,note_on,,192,0,10,,,,,,,,5,,,74,0
67008,note_on,,0,0,4,,,,,,,,3,,,55,127
67008,note_on,,0,0,9,,,,,,,,14,,,31,92
67008,note_on,,0,0,8,,,,,,,,13,,,43,92
67008,note_on,,192,0,1,,,,,,,,0,,,74,0
67008,note_on,,0,0,1,,,,,,,,0,,,71,127
67008,note_on,,0,0,10,,,,,,,,5,,,71,108
67008,note_on,,192,0,9,,,,,,,,14,,,29,0
67584,note_on,,0,0,10,,,,,,,,5,,,79,108
67584,note_on,,0,0,6,,,,,,,,11,,,67,108
67584,note_on,,576,0,6,,,,,,,,11,,,67,0
67584,note_on,,0,0,4,,,,,,,,3,,,53,127
67584,note_on,,0,0,12,,,,,,,,8,,,53,92
67584,note_on,,0,0,5,,,,,,,,10,,,74,108
67584,note_on,,576,0,5,,,,,,,,10,,,71,0
67584,note_on,,576,0,12,,,,,,,,8,,,43,0
67584,note_on,,0,0,3,,,,,,,,2,,,59,127
67584,note_on,,576,0,3,,,,,,,,2,,,62,0
67584,note_on,,0,0,1,,,,,,,,0,,,74,127
67584,note_on,,576,0,1,,,,,,,,0,,,71,0
67584,note_on,,576,0,4,,,,,,,,3,,,55,0
67584,note_on,,576,0,10,,,,,,,,5,,,71,0
67584,note_on,,0,0,7,,,,,,,,12,,,59,92
67584,note_on,,576,0,9,,,,,,,,14,,,31,0
67584,note_on,,576,0,2,,,,,,,,1,,,67,0
67584,note_on,,0,0,2,,,,,,,,1,,,67,127
67584,note_on,,576,0,8,,,,,,,,13,,,43,0
67584,note_on,,0,0,9,,,,,,,,14,,,41,92
67584,note_on,,576,0,7,,,,,,,,12,,,62,0
67584,note_on,,576,0,11,,,,,,,,7,,,71,0
67584,note_on,,0,0,11,,,,,,,,7,,,74,108
67584,note_on,,0,0,8,,,,,,,,13,,,53,92
67968,note_on,,384,0,3,,,,,,,,2,,,59,0
67968,note_on,,0,0,11,,,,,,,,7,,,74,108
67968,note_on,,0,0,10,,,,,,,,5,,,71,108
67968,note_on,,0,0,7,,,,,,,,12,,,62,92
67968,note_on,,384,0,7,,,,,,,,12,,,59,0
67968,note_on,,0,0,3,,,,,,,,2,,,62,127
67968,note_on,,0,0,4,,,,,,,,3,,,53,127
67968,note_on,,384,0,6,,,,,,,,11,,,67,0
67968,note_on,,0,0,6,,,,,,,,11,,,67,108
67968,note_on,,384,0,12,,,,,,,,8,,,53,0
67968,note_on,,0,0,12,,,,,,,,8,,,53,92
67968,note_on,,384,0,11,,,,,,,,7,,,74,0
67968,note_on,,384,0,4,,,,,,,,3,,,53,0
67968,note_on,,384,0,10,,,,,,,,5,,,79,0
67968,note_on,,0,0,9,,,,,,,,14,,,41,92
67968,note_on,,0,0,2,,,,,,,,1,,,67,127
67968,note_on,,384,0,1,,,,,,,,0,,,74,0
67968,note_on,,384,0,2,,,,,,,,1,,,67,0
67968,note_on,,0,0,1,,,,,,,,0,,,71,127
67968,note_on,,0,0,8,,,,,,,,13,,,53,92
67968,note_on,,384,0,9,,,,,,,,14,,,41,0
67968,note_on,,384,0,8,,,,,,,,13,,,53,0
67968,note_on,,384,0,5,,,,,,,,10,,,74,0
67968,note_on,,0,0,5,,,,,,,,10,,,71,108
68160,note_on,,192,0,10,,,,,,,,5,,,71,0
68160,note_on,,192,0,7,,,,,,,,12,,,62,0
68160,note_on,,0,0,10,,,,,,,,5,,,72,108
68160,note_on,,0,0,9,,,,,,,,14,,,39,92
68160,note_on,,192,0,9,,,,,,,,14,,,41,0
68160,note_on,,192,0,12,,,,,,,,8,,,53,0
68160,note_on,,0,0,1,,,,,,,,0,,,67,127
68160,note_on,,0,0,12,,,,,,,,8,,,51,92
68160,note_on,,0,0,7,,,,,,,,12,,,55,92
68160,note_on,,0,0,8,,,,,,,,13,,,51,92
68160,note_on,,0,0,5,,,,,,,,10,,,67,108
68160,note_on,,192,0,5,,,,,,,,10,,,71,0
68160,note_on,,192,0,8,,,,,,,,13,,,53,0
68160,note_on,,192,0,2,,,,,,,,1,,,67,0
68160,note_on,,192,0,4,,,,,,,,3,,,53,0
68160,note_on,,0,0,3,,,,,,,,2,,,55,127
68160,note_on,,0,0,6,,,,,,,,11,,,60,108
68160,note_on,,192,0,1,,,,,,,,0,,,71,0
68160,note_on,,0,0,2,,,,,,,,1,,,60,127
68160,note_on,,192,0,3,,,,,,,,2,,,62,0
68160,note_on,,0,0,4,,,,,,,,3,,,51,127
68160,note_on,,0,0,11,,,,,,,,7,,,67,108
68160,note_on,,192,0,11,,,,,,,,7,,,74,0
68160,note_on,,192,0,6,,,,,,,,11,,,67,0
68736,note_on,,576,0,3,,,,,,,,2,,,55,0
68736,note_on,,0,0,3,,,,,,,,2,,,60,127
68736,note_on,,576,0,1,,,,,,,,0,,,67,0
68736,note_on,,576,0,4,,,,,,,,3,,,51,0
68736,note_on,,0,0,2,,,,,,,,1,,,67,127
68736,note_on,,0,0,4,,,,,,,,3,,,48,127
68736,note_on,,0,0,8,,,,,,,,13,,,48,92
68736,note_on,,576,0,9,,,,,,,,14,,,39,0
68736,note_on,,0,0,9,,,,,,,,14,,,36,92
68736,note_on,,0,0,1,,,,,,,,0,,,75,127
68736,note_on,,576,0,5,,,,,,,,10,,,67,0
68736,note_on,,576,0,12,,,,,,,,8,,,51,0
68736,note_on,,576,0,8,,,,,,,,13,,,51,0
68736,note_on,,0,0,6,,,,,,,,11,,,67,108
68736,note_on,,576,0,6,,,,,,,,11,,,60,0
68736,note_on,,0,0,5,,,,,,,,10,,,75,108
68736,note_on,,0,0,10,,,,,,,,5,,,75,108
68736,note_on,,576,0,10,,,,,,,,5,,,72,0
68736,note_on,,576,0,7,,,,,,,,12,,,55,0
68736,note_on,,0,0,7,,,,,,,,12,,,60,92
68736,note_on,,0,0,12,,,,,,,,8,,,48,92
68736,note_on,,0,0,11,,,,,,,,7,,,72,108
68736,note_on,,576,0,2,,,,,,,,1,,,60,0
68736,note_on,,576,0,11,,,,,,,,7,,,67,0
68928,note_on,,0,0,4,,,,,,,,3,,,53,127
68928,note_on,,192,0,8,,,,,,,,13,,,48,0
68928,note_on,,192,0,6,,,,,,,,11,,,67,0
68928,note_on,,192,0,4,,,,,,,,3,,,48,0
68928,note_on,,192,0,7,,,,,,,,12,,,60,0
68928,note_on,,0,0,7,,,,,,,,12,,,62,92
68928,note_on,,0,0,9,,,,,,,,14,,,41,92
68928,note_on,,0,0,5,,,,,,,,10,,,74,108
68928,note_on,,192,0,5,,,,,,,,10,,,75,0
68928,note_on,,0,0,8,,,,,,,,13,,,53,92
68928,note_on,,0,0,6,,,,,,,,11,,,68,108
68928,note_on,,192,0,10,,,,,,,,5,,,75,0
68928,note_on,,192,0,9,,,,,,,,14,,,36,0
68928,note_on,,0,0,1,,,,,,,,0,,,74,127
68928,note_on,,192,0,2,,,,,,,,1,,,67,0
68928,note_on,,192,0,1,,,,,,,,0,,,75,0
68928,note_on,,0,0,3,,,,,,,,2,,,62,127
68928,note_on,,192,0,3,,,,,,,,2,,,60,0
68928,note_on,,0,0,11,,,,,,,,7,,,74,108
68928,note_on,,192,0,11,,,,,,,,7,,,72,0
68928,note_on,,0,0,2,,,,,,,,1,,,68,127
68928,note_on,,192,0,12,,,,,,,,8,,,48,0
68928,note_on,,0,0,12,,,,,,,,8,,,53,92
68928,note_on,,0,0,10,,,,,,,,5,,,74,108
69120,note_on,,192,0,2,,,,,,,,1,,,68,0
69120,note_on,,192,0,9,,,,,,,,14,,,41,0
69120,note_on,,0,0,2,,,,,,,,1,,,65,127
69120,note_on,,192,0,10,,,,,,,,5,,,74,0
69120,note_on,,0,0,10,,,,,,,,5,,,72,108
69120,note_on,,0,0,7,,,,,,,,12,,,65,92
69120,note_on,,0,0,5,,,,,,,,10,,,72,108
69120,note_on,,0,0,12,,,,,,,,8,,,56,92
69120,note_on,,192,0,5,,,,,,,,10,,,74,0
69120,note_on,,192,0,12,,,,,,,,8,,,53,0
69120,note_on,,0,0,8,,,,,,,,13,,,56,92
69120,note_on,,192,0,8,,,,,,,,13,,,53,0
69120,note_on,,0,0,1,,,,,,,,0,,,72,127
69120,note_on,,192,0,1,,,,,,,,0,,,74,0
69120,note_on,,0,0,9,,,,,,,,14,,,44,92
69120,note_on,,0,0,3,,,,,,,,2,,,65,127
69120,note_on,,192,0,11,,,,,,,,7,,,74,0
69120,note_on,,192,0,3,,,,,,,,2,,,62,0
69120,note_on,,0,0,6,,,,,,,,11,,,65,108
69120,note_on,,192,0,4,,,,,,,,3,,,53,0
69120,note_on,,0,0,4,,,,,,,,3,,,56,127
69120,note_on,,0,0,11,,,,,,,,7,,,77,108
69120,note_on,,192,0,7,,,,,,,,12,,,62,0
69120,note_on,,192,0,6,,,,,,,,11,,,68,0
69312,note_on,,192,0,12,,,,,,,,8,,,56,0
69312,note_on,,0,0,1,,,,,,,,0,,,71,127
69312,note_on,,192,0,6,,,,,,,,11,,,65,0
69312,note_on,,192,0,1,,,,,,,,0,,,72,0
69312,note_on,,0,0,6,,,,,,,,11,,,67,108
69312,note_on,,0,0,7,,,,,,,,12,,,62,92
69312,note_on,,192,0,11,,,,,,,,7,,,77,0
69312,note_on,,0,0,11,,,,,,,,7,,,74,108
69312,note_on,,0,0,12,,,,,,,,8,,,55,92
69312,note_on,,0,0,4,,,,,,,,3,,,55,127
69312,note_on,,0,0,3,,,,,,,,2,,,62,127
69312,note_on,,192,0,5,,,,,,,,10,,,72,0
69312,note_on,,0,0,5,,,,,,,,10,,,71,108
69312,note_on,,192,0,4,,,,,,,,3,,,56,0
69312,note_on,,0,0,2,,,,,,,,1,,,67,127
69312,note_on,,192,0,2,,,,,,,,1,,,65,0
69312,note_on,,0,0,9,,,,,,,,14,,,43,92
69312,note_on,,192,0,3,,,,,,,,2,,,65,0
69312,note_on,,0,0,10,,,,,,,,5,,,71,108
69312,note_on,,192,0,9,,,,,,,,14,,,44,0
69312,note_on,,192,0,8,,,,,,,,13,,,56,0
69312,note_on,,0,0,8,,,,,,,,13,,,55,92
69312,note_on,,192,0,10,,,,,,,,5,,,72,0
69312,note_on,,192,0,7,,,,,,,,12,,,65,0
69504,note_on,,192,0,7,,,,,,,,12,,,62,0
69504,note_on,,0,0,8,,,,,,,,13,,,51,92
69504,note_on,,0,0,4,,,,,,,,3,,,51,127
69504,note_on,,192,0,4,,,,,,,,3,,,55,0
69504,note_on,,192,0,8,,,,,,,,13,,,55,0
69504,note_on,,0,0,7,,,,,,,,12,,,63,92
69504,note_on,,192,0,9,,,,,,,,14,,,43,0
69504,note_on,,192,0,11,,,,,,,,7,,,74,0
69504,note_on,,192,0,6,,,,,,,,11,,,67,0
69504,note_on,,0,0,1,,,,,,,,0,,,72,127
69504,note_on,,192,0,12,,,,,,,,8,,,55,0
69504,note_on,,0,0,12,,,,,,,,8,,,51,92
69504,note_on,,0,0,9,,,,,,,,14,,,39,92
69504,note_on,,0,0,6,,,,,,,,11,,,67,108
69504,note_on,,0,0,11,,,,,,,,7,,,75,108
69504,note_on,,192,0,3,,,,,,,,2,,,62,0
69504,note_on,,0,0,3,,,,,,,,2,,,63,127
69504,note_on,,0,0,5,,,,,,,,10,,,72,108
69504,note_on,,192,0,5,,,,,,,,10,,,71,0
69504,note_on,,192,0,1,,,,,,,,0,,,71,0
69504,note_on,,192,0,10,,,,,,,,5,,,71,0
69504,note_on,,0,0,10,,,,,,,,5,,,72,108
69504,note_on,,0,0,2,,,,,,,,1,,,67,127
69504,note_on,,192,0,2,,,,,,,,1,,,67,0
69696,note_on,,192,0,12,,,,,,,,8,,,51,0
69696,note_on,,192,0,5,,,,,,,,10,,,72,0
69696,note_on,,192,0,7,,,,,,,,12,,,63,0
69696,note_on,,192,0,3,,,,,,,,2,,,63,0
69696,note_on,,192,0,4,,,,,,,,3,,,51,0
69696,note_on,,192,0,1,,,,,,,,0,,,72,0
69696,note_on,,192,0,2,,,,,,,,1,,,67,0
69696,note_on,,192,0,6,,,,,,,,11,,,67,0
69696,note_on,,192,0,9,,,,,,,,14,,,39,0
69696,note_on,,192,0,10,,,,,,,,5,,,72,0
69696,note_on,,192,0,11,,,,,,,,7,,,75,0
69696,note_on,,192,0,8,,,,,,,,13,,,51,0
69888,set_tempo,1200000,7104,1,0,,,,,,,,,,,,
70080,note_on,,384,0,10,,,,,,,,5,,,72,127
70080,note_on,,384,0,7,,,,,,,,12,,,60,92
70080,note_on,,384,0,12,,,,,,,,8,,,56,92
70080,note_on,,384,0,9,,,,,,,,14,,,44,92
70080,note_on,,384,0,6,,,,,,,,11,,,65,108
70080,note_on,,384,0,1,,,,,,,,0,,,72,127
70080,note_on,,384,0,4,,,,,,,,3,,,56,127
70080,note_on,,384,0,5,,,,,,,,10,,,72,108
70080,note_on,,384,0,2,,,,,,,,1,,,65,127
70080,note_on,,384,0,3,,,,,,,,2,,,60,127
70080,note_on,,384,0,8,,,,,,,,13,,,56,92
70080,note_on,,384,0,11,,,,,,,,7,,,72,127
70272,note_on,,192,0,3,,,,,,,,2,,,60,0
70272,note_on,,0,0,1,,,,,,,,0,,,72,127
70272,note_on,,192,0,12,,,,,,,,8,,,56,0
70272,note_on,,0,0,3,,,,,,,,2,,,65,127
70272,note_on,,0,0,2,,,,,,,,1,,,68,127
70272,note_on,,192,0,2,,,,,,,,1,,,65,0
70272,note_on,,192,0,1,,,,,,,,0,,,72,0
70272,note_on,,0,0,12,,,,,,,,8,,,53,92
70272,note_on,,192,0,7,,,,,,,,12,,,60,0
70272,note_on,,0,0,4,,,,,,,,3,,,53,127
70272,note_on,,192,0,6,,,,,,,,11,,,65,0
70272,note_on,,0,0,5,,,,,,,,10,,,72,108
70272,note_on,,0,0,7,,,,,,,,12,,,65,92
70272,note_on,,192,0,11,,,,,,,,7,,,72,0
70272,note_on,,0,0,11,,,,,,,,7,,,72,127
70272,note_on,,0,0,10,,,,,,,,5,,,77,127
70272,note_on,,192,0,4,,,,,,,,3,,,56,0
70272,note_on,,0,0,9,,,,,,,,14,,,41,92
70272,note_on,,192,0,9,,,,,,,,14,,,44,0
70272,note_on,,192,0,8,,,,,,,,13,,,56,0
70272,note_on,,0,0,8,,,,,,,,13,,,53,92
70272,note_on,,192,0,5,,,,,,,,10,,,72,0
70272,note_on,,192,0,10,,,,,,,,5,,,72,0
70272,note_on,,0,0,6,,,,,,,,11,,,68,108
70464,note_on,,0,0,11,,,,,,,,7,,,71,127
70464,note_on,,192,0,11,,,,,,,,7,,,72,0
70464,note_on,,0,0,2,,,,,,,,1,,,67,127
70464,note_on,,192,0,12,,,,,,,,8,,,53,0
70464,note_on,,0,0,10,,,,,,,,5,,,77,127
70464,note_on,,0,0,6,,,,,,,,11,,,67,108
70464,note_on,,192,0,10,,,,,,,,5,,,77,0
70464,note_on,,192,0,7,,,,,,,,12,,,65,0
70464,note_on,,0,0,7,,,,,,,,12,,,62,92
70464,note_on,,0,0,1,,,,,,,,0,,,71,127
70464,note_on,,192,0,1,,,,,,,,0,,,72,0
70464,note_on,,0,0,9,,,,,,,,14,,,43,92
70464,note_on,,192,0,9,,,,,,,,14,,,41,0
70464,note_on,,192,0,8,,,,,,,,13,,,53,0
70464,note_on,,0,0,8,,,,,,,,13,,,55,92
70464,note_on,,192,0,6,,,,,,,,11,,,68,0
70464,note_on,,0,0,12,,,,,,,,8,,,55,92
70464,note_on,,192,0,2,,,,,,,,1,,,68,0
70464,note_on,,0,0,5,,,,,,,,10,,,71,108
70464,note_on,,192,0,5,,,,,,,,10,,,72,0
70464,note_on,,192,0,4,,,,,,,,3,,,53,0
70464,note_on,,0,0,4,,,,,,,,3,,,55,127
70464,note_on,,192,0,3,,,,,,,,2,,,65,0
70464,note_on,,0,0,3,,,,,,,,2,,,62,127
71040,note_on,,0,0,12,,,,,,,,8,,,53,92
71040,note_on,,576,0,12,,,,,,,,8,,,55,0
71040,note_on,,0,0,7,,,,,,,,12,,,63,92
71040,note_on,,576,0,7,,,,,,,,12,,,62,0
71040,note_on,,0,0,11,,,,,,,,7,,,72,127
71040,note_on,,576,0,11,,,,,,,,7,,,71,0
71040,note_on,,576,0,3,,,,,,,,2,,,62,0
71040,note_on,,0,0,10,,,,,,,,5,,,75,127
71040,note_on,,0,0,2,,,,,,,,1,,,68,127
71040,note_on,,576,0,2,,,,,,,,1,,,67,0
71040,note_on,,0,0,3,,,,,,,,2,,,63,127
71040,note_on,,576,0,10,,,,,,,,5,,,77,0
71040,note_on,,576,0,6,,,,,,,,11,,,67,0
71040,note_on,,0,0,6,,,,,,,,11,,,68,108
71040,note_on,,0,0,1,,,,,,,,0,,,72,127
71040,note_on,,576,0,1,,,,,,,,0,,,71,0
71040,note_on,,576,0,5,,,,,,,,10,,,71,0
71040,note_on,,576,0,4,,,,,,,,3,,,55,0
71040,note_on,,0,0,4,,,,,,,,3,,,53,127
71040,note_on,,0,0,5,,,,,,,,10,,,72,108
71040,note_on,,576,0,8,,,,,,,,13,,,55,0
71040,note_on,,0,0,8,,,,,,,,13,,,53,92
71040,note_on,,0,0,9,,,,,,,,14,,,41,92
71040,note_on,,576,0,9,,,,,,,,14,,,43,0
71424,note_on,,384,0,4,,,,,,,,3,,,53,0
71424,note_on,,0,0,4,,,,,,,,3,,,53,127
71424,note_on,,0,0,2,,,,,,,,1,,,68,127
71424,note_on,,384,0,2,,,,,,,,1,,,68,0
71424,note_on,,384,0,8,,,,,,,,13,,,53,0
71424,note_on,,0,0,8,,,,,,,,13,,,53,92
71424,note_on,,384,0,10,,,,,,,,5,,,75,0
71424,note_on,,384,0,3,,,,,,,,2,,,63,0
71424,note_on,,0,0,1,,,,,,,,0,,,72,127
71424,note_on,,384,0,9,,,,,,,,14,,,41,0
71424,note_on,,0,0,9,,,,,,,,14,,,41,92
71424,note_on,,384,0,12,,,,,,,,8,,,53,0
71424,note_on,,0,0,12,,,,,,,,8,,,53,92
71424,note_on,,384,0,1,,,,,,,,0,,,72,0
71424,note_on,,0,0,3,,,,,,,,2,,,63,127
71424,note_on,,0,0,10,,,,,,,,5,,,75,127
71616,note_on,,192,0,8,,,,,,,,13,,,53,0
71616,note_on,,192,0,3,,,,,,,,2,,,63,0
71616,note_on,,0,0,3,,,,,,,,2,,,62,127
71616,note_on,,192,0,2,,,,,,,,1,,,68,0
71616,note_on,,0,0,2,,,,,,,,1,,,67,127
71616,note_on,,0,0,8,,,,,,,,13,,,55,92
71616,note_on,,576,0,6,,,,,,,,11,,,68,0
71616,note_on,,0,0,9,,,,,,,,14,,,43,92
71616,note_on,,0,0,10,,,,,,,,5,,,74,127
71616,note_on,,192,0,9,,,,,,,,14,,,41,0
71616,note_on,,0,0,12,,,,,,,,8,,,55,92
71616,note_on,,192,0,12,,,,,,,,8,,,53,0
71616,note_on,,192,0,1,,,,,,,,0,,,72,0
71616,note_on,,0,0,1,,,,,,,,0,,,72,127
71616,note_on,,0,0,6,,,,,,,,11,,,67,108
71616,note_on,,0,0,7,,,,,,,,12,,,62,92
71616,note_on,,192,0,10,,,,,,,,5,,,75,0
71616,note_on,,576,0,7,,,,,,,,12,,,63,0
71616,note_on,,0,0,11,,,,,,,,7,,,72,127
71616,note_on,,576,0,11,,,,,,,,7,,,72,0
71616,note_on,,192,0,4,,,,,,,,3,,,53,0
71616,note_on,,0,0,4,,,,,,,,3,,,55,127
72192,note_on,,0,0,9,,,,,,,,14,,,31,92
72192,note_on,,0,0,1,,,,,,,,0,,,71,127
72192,note_on,,0,0,10,,,,,,,,5,,,74,127
72192,note_on,,576,0,9,,,,,,,,14,,,43,0
72192,note_on,,576,0,10,,,,,,,,5,,,74,0
72192,note_on,,576,0,1,,,,,,,,0,,,72,0
72192,note_on,,0,0,8,,,,,,,,13,,,43,92
72192,note_on,,1152,0,5,,,,,,,,10,,,72,0
72192,note_on,,0,0,5,,,,,,,,10,,,71,108
72192,note_on,,0,0,12,,,,,,,,8,,,43,92
72192,note_on,,0,0,11,,,,,,,,7,,,71,127
72192,note_on,,576,0,11,,,,,,,,7,,,72,0
72192,note_on,,576,0,8,,,,,,,,13,,,55,0
72192,note_on,,576,0,12,,,,,,,,8,,,55,0
72576,note_on,,960,0,7,,,,,,,,12,,,62,0
72576,note_on,,0,0,10,,,,,,,,5,,,74,127
72576,note_on,,384,0,10,,,,,,,,5,,,74,0
72576,note_on,,0,0,11,,,,,,,,7,,,71,127
72576,note_on,,0,0,4,,,,,,,,3,,,55,127
72576,note_on,,960,0,4,,,,,,,,3,,,55,0
72576,note_on,,0,0,2,,,,,,,,1,,,67,127
72576,note_on,,960,0,2,,,,,,,,1,,,67,0
72576,note_on,,0,0,7,,,,,,,,12,,,62,92
72576,note_on,,0,0,3,,,,,,,,2,,,62,127
72576,note_on,,960,0,3,,,,,,,,2,,,62,0
72576,note_on,,960,0,6,,,,,,,,11,,,67,0
72576,note_on,,384,0,11,,,,,,,,7,,,71,0
72576,note_on,,0,0,6,,,,,,,,11,,,67,108
72768,note_on,,192,0,7,,,,,,,,12,,,62,0
72768,note_on,,0,0,7,,,,,,,,12,,,63,92
72768,note_on,,192,0,6,,,,,,,,11,,,67,0
72768,note_on,,0,0,11,,,,,,,,7,,,72,127
72768,note_on,,576,0,12,,,,,,,,8,,,43,0
72768,note_on,,0,0,12,,,,,,,,8,,,48,92
72768,note_on,,0,0,8,,,,,,,,13,,,48,92
72768,note_on,,576,0,8,,,,,,,,13,,,43,0
72768,note_on,,0,0,5,,,,,,,,10,,,72,108
72768,note_on,,576,0,5,,,,,,,,10,,,71,0
72768,note_on,,576,0,1,,,,,,,,0,,,71,0
72768,note_on,,192,0,4,,,,,,,,3,,,55,0
72768,note_on,,0,0,1,,,,,,,,0,,,72,127
72768,note_on,,192,0,2,,,,,,,,1,,,67,0
72768,note_on,,0,0,6,,,,,,,,11,,,67,108
72768,note_on,,0,0,3,,,,,,,,2,,,63,127
72768,note_on,,192,0,11,,,,,,,,7,,,71,0
72768,note_on,,0,0,2,,,,,,,,1,,,67,127
72768,note_on,,0,0,4,,,,,,,,3,,,48,127
72768,note_on,,576,0,9,,,,,,,,14,,,31,0
72768,note_on,,0,0,9,,,,,,,,14,,,36,92
72768,note_on,,192,0,10,,,,,,,,5,,,74,0
72768,note_on,,0,0,10,,,,,,,,5,,,72,127
72768,note_on,,192,0,3,,,,,,,,2,,,62,0
73152,note_on,,0,0,12,,,,,,,,8,,,48,92
73152,note_on,,384,0,12,,,,,,,,8,,,48,0
73152,note_on,,0,0,8,,,,,,,,13,,,48,92
73152,note_on,,384,0,8,,,,,,,,13,,,48,0
73152,note_on,,0,0,9,,,,,,,,14,,,36,92
73152,note_on,,0,0,5,,,,,,,,10,,,67,108
73152,note_on,,384,0,5,,,,,,,,10,,,72,0
73152,note_on,,0,0,6,,,,,,,,11,,,63,108
73152,note_on,,384,0,6,,,,,,,,11,,,67,0
73152,note_on,,0,0,7,,,,,,,,12,,,60,92
73152,note_on,,384,0,7,,,,,,,,12,,,63,0
73152,note_on,,384,0,9,,,,,,,,14,,,36,0
73344,note_on,,0,0,5,,,,,,,,10,,,67,108
73344,note_on,,192,0,5,,,,,,,,10,,,67,0
73344,note_on,,192,0,6,,,,,,,,11,,,63,0
73344,note_on,,192,0,8,,,,,,,,13,,,48,0
73344,note_on,,0,0,8,,,,,,,,13,,,46,92
73344,note_on,,0,0,9,,,,,,,,14,,,34,92
73344,note_on,,192,0,9,,,,,,,,14,,,36,0
73344,end_of_track,,0,1,3,,,,,,,,,,,,
73344,note_on,,0,0,12,,,,,,,,8,,,46,92
73344,note_on,,0,0,6,,,,,,,,11,,,62,108
73344,note_on,,576,0,3,,,,,,,,2,,,63,0
73344,note_on,,192,0,7,,,,,,,,12,,,60,0
73344,note_on,,192,0,12,,,,,,,,8,,,48,0
73344,note_on,,576,0,2,,,,,,,,1,,,67,0
73344,end_of_track,,0,1,2,,,,,,,,,,,,
73344,end_of_track,,0,1,4,,,,,,,,,,,,
73344,note_on,,576,0,4,,,,,,,,3,,,48,0
73344,note_on,,0,0,7,,,,,,,,12,,,55,92
73344,end_of_track,,0,1,1,,,,,,,,,,,,
73344,note_on,,576,0,1,,,,,,,,0,,,72,0
73368,note_on,,600,0,10,,,,,,,,5,,,72,0
73368,end_of_track,,0,1,11,,,,,,,,,,,,
73368,note_on,,600,0,11,,,,,,,,7,,,72,0
73368,end_of_track,,0,1,10,,,,,,,,,,,,
73728,note_on,,384,0,12,,,,,,,,8,,,46,0
73728,note_on,,384,0,9,,,,,,,,14,,,34,0
73728,note_on,,384,0,8,,,,,,,,13,,,46,0
73728,note_on,,0,0,8,,,,,,,,13,,,44,92
73728,note_on,,0,0,12,,,,,,,,8,,,44,92
73728,note_on,,0,0,9,,,,,,,,14,,,32,92
73728,note_on,,384,0,7,,,,,,,,12,,,55,0
73728,note_on,,384,0,6,,,,,,,,11,,,62,0
73728,note_on,,0,0,7,,,,,,,,12,,,56,92
73728,note_on,,0,0,6,,,,,,,,11,,,60,108
73728,note_on,,384,0,5,,,,,,,,10,,,67,0
73728,note_on,,0,0,5,,,,,,,,10,,,65,108
73920,note_on,,0,0,5,,,,,,,,10,,,67,108
73920,note_on,,0,0,7,,,,,,,,12,,,50,92
73920,note_on,,192,0,8,,,,,,,,13,,,44,0
73920,note_on,,0,0,8,,,,,,,,13,,,43,92
73920,note_on,,192,0,7,,,,,,,,12,,,56,0
73920,note_on,,192,0,12,,,,,,,,8,,,44,0
73920,note_on,,0,0,12,,,,,,,,8,,,43,92
73920,note_on,,0,0,6,,,,,,,,11,,,59,108
73920,note_on,,192,0,6,,,,,,,,11,,,60,0
73920,note_on,,0,0,9,,,,,,,,14,,,31,92
73920,note_on,,192,0,9,,,,,,,,14,,,32,0
73920,note_on,,192,0,5,,,,,,,,10,,,65,0
74112,note_on,,192,0,12,,,,,,,,8,,,43,0
74112,note_on,,0,0,12,,,,,,,,8,,,41,92
74112,note_on,,0,0,9,,,,,,,,14,,,29,92
74112,note_on,,192,0,9,,,,,,,,14,,,31,0
74112,note_on,,192,0,8,,,,,,,,13,,,43,0
74112,note_on,,0,0,8,,,,,,,,13,,,41,92
74304,note_on,,192,0,9,,,,,,,,14,,,29,0
74304,note_on,,192,0,8,,,,,,,,13,,,41,0
74304,note_on,,0,0,8,,,,,,,,13,,,39,92
74304,note_on,,0,0,9,,,,,,,,14,,,27,92
74304,note_on,,0,0,7,,,,,,,,12,,,51,92
74304,note_on,,192,0,12,,,,,,,,8,,,41,0
74304,note_on,,0,0,6,,,,,,,,11,,,60,108
74304,note_on,,384,0,6,,,,,,,,11,,,59,0
74304,note_on,,0,0,5,,,,,,,,10,,,67,108
74304,note_on,,384,0,5,,,,,,,,10,,,67,0
74304,note_on,,0,0,12,,,,,,,,8,,,39,92
74304,note_on,,384,0,7,,,,,,,,12,,,50,0
74496,note_on,,192,0,5,,,,,,,,10,,,67,0
74496,note_on,,0,0,5,,,,,,,,10,,,65,108
74496,note_on,,0,0,12,,,,,,,,8,,,38,92
74496,note_on,,0,0,7,,,,,,,,12,,,53,92
74496,note_on,,192,0,12,,,,,,,,8,,,39,0
74496,note_on,,192,0,6,,,,,,,,11,,,60,0
74496,note_on,,0,0,8,,,,,,,,13,,,38,92
74496,note_on,,192,0,8,,,,,,,,13,,,39,0
74496,note_on,,192,0,9,,,,,,,,14,,,27,0
74496,note_on,,0,0,9,,,,,,,,14,,,26,92
74496,note_on,,192,0,7,,,,,,,,12,,,51,0
74496,note_on,,0,0,6,,,,,,,,11,,,59,108
74688,note_on,,192,0,12,,,,,,,,8,,,38,0
74688,note_on,,192,0,5,,,,,,,,10,,,65,0
74688,note_on,,0,0,5,,,,,,,,10,,,67,108
74688,note_on,,192,0,9,,,,,,,,14,,,26,0
74688,note_on,,0,0,12,,,,,,,,8,,,39,92
74688,note_on,,0,0,9,,,,,,,,14,,,27,92
74688,note_on,,0,0,6,,,,,,,,11,,,60,108
74688,note_on,,192,0,8,,,,,,,,13,,,38,0
74688,note_on,,0,0,8,,,,,,,,13,,,39,92
74688,note_on,,192,0,6,,,,,,,,11,,,59,0
74688,note_on,,192,0,7,,,,,,,,12,,,53,0
74688,note_on,,0,0,7,,,,,,,,12,,,60,92
74880,note_on,,192,0,9,,,,,,,,14,,,27,0
74880,note_on,,192,0,5,,,,,,,,10,,,67,0
74880,note_on,,0,0,5,,,,,,,,10,,,63,108
74880,note_on,,192,0,8,,,,,,,,13,,,39,0
74880,note_on,,0,0,8,,,,,,,,13,,,41,92
74880,note_on,,192,0,12,,,,,,,,8,,,39,0
74880,note_on,,0,0,9,,,,,,,,14,,,29,92
74880,note_on,,0,0,12,,,,,,,,8,,,41,92
75072,note_on,,192,0,12,,,,,,,,8,,,41,0
75072,note_on,,0,0,12,,,,,,,,8,,,43,92
75072,note_on,,0,0,8,,,,,,,,13,,,43,92
75072,note_on,,0,0,9,,,,,,,,14,,,31,92
75072,note_on,,0,0,5,,,,,,,,10,,,62,108
75072,note_on,,192,0,5,,,,,,,,10,,,63,0
75072,note_on,,0,0,6,,,,,,,,11,,,59,108
75072,note_on,,384,0,6,,,,,,,,11,,,60,0
75072,note_on,,0,0,7,,,,,,,,12,,,55,92
75072,note_on,,384,0,7,,,,,,,,12,,,60,0
75072,note_on,,192,0,9,,,,,,,,14,,,29,0
75072,note_on,,192,0,8,,,,,,,,13,,,41,0
75648,note_on,,576,0,12,,,,,,,,8,,,43,0
75648,note_on,,0,0,12,,,,,,,,8,,,42,92
75648,note_on,,576,0,8,,,,,,,,13,,,43,0
75648,note_on,,0,0,8,,,,,,,,13,,,42,92
75648,note_on,,576,0,7,,,,,,,,12,,,55,0
75648,note_on,,576,0,5,,,,,,,,10,,,62,0
75648,note_on,,0,0,5,,,,,,,,10,,,63,108
75648,note_on,,576,0,6,,,,,,,,11,,,59,0
75648,note_on,,0,0,6,,,,,,,,11,,,60,108
75648,note_on,,0,0,7,,,,,,,,12,,,57,92
75648,note_on,,0,0,9,,,,,,,,14,,,30,92
75648,note_on,,576,0,9,,,,,,,,14,,,31,0
76224,note_on,,0,0,12,,,,,,,,8,,,43,92
76224,note_on,,576,0,12,,,,,,,,8,,,42,0
76224,note_on,,0,0,7,,,,,,,,12,,,55,92
76224,note_on,,576,0,7,,,,,,,,12,,,57,0
76224,note_on,,0,0,5,,,,,,,,10,,,62,108
76224,note_on,,576,0,8,,,,,,,,13,,,42,0
76224,note_on,,0,0,8,,,,,,,,13,,,43,92
76224,note_on,,576,0,5,,,,,,,,10,,,63,0
76224,note_on,,0,0,9,,,,,,,,14,,,31,92
76224,note_on,,576,0,9,,,,,,,,14,,,30,0
76800,note_on,,0,0,6,,,,,,,,11,,,59,108
76800,note_on,,1152,0,6,,,,,,,,11,,,60,0
77184,note_on,,0,0,5,,,,,,,,10,,,60,108
77184,note_on,,960,0,5,,,,,,,,10,,,62,0
77376,note_on,,1152,0,12,,,,,,,,8,,,43,0
77376,note_on,,1152,0,8,,,,,,,,13,,,43,0
77376,note_on,,0,0,9,,,,,,,,14,,,24,92
77376,note_on,,1152,0,9,,,,,,,,14,,,31,0
77376,note_on,,0,0,6,,,,,,,,11,,,60,108
77376,note_on,,576,0,6,,,,,,,,11,,,59,0
77376,note_on,,192,0,5,,,,,,,,10,,,60,0
77376,note_on,,0,0,5,,,,,,,,10,,,60,108
77376,note_on,,1152,0,7,,,,,,,,12,,,55,0
77376,note_on,,0,0,7,,,,,,,,12,,,55,92
77376,end_of_track,,0,1,0,,,,,,,,,,,,
77376,set_tempo,2400000,7488,1,0,,,,,,,,,,,,
77376,note_on,,0,0,12,,,,,,,,8,,,36,92
77376,note_on,,0,0,8,,,,,,,,13,,,36,92
77952,note_on,,576,0,7,,,,,,,,12,,,55,0
77952,note_on,,576,0,12,,,,,,,,8,,,36,0
77952,end_of_track,,0,1,7,,,,,,,,,,,,
77952,note_on,,576,0,5,,,,,,,,10,,,60,0
77952,end_of_track,,0,1,5,,,,,,,,,,,,
77952,end_of_track,,0,1,9,,,,,,,,,,,,
77952,note_on,,576,0,6,,,,,,,,11,,,60,0
77952,end_of_track,,0,1,6,,,,,,,,,,,,
77952,end_of_track,,0,1,8,,,,,,,,,,,,
77952,note_on,,576,0,8,,,,,,,,13,,,36,0
77952,end_of_track,,0,1,12,,,,,,,,,,,,
77952,note_on,,576,0,9,,,,,,,,14,,,24,0
