tick,type,tempo,time,meta,track,key,numerator,denominator,clocks_per_click,notated_32nd_notes_per_beat,port,program,channel,control,value,note,velocity
0,set_tempo,857142,0,1,0,,,,,,,,,,,,
0,control_change,,0,0,6,,,,,,,,5,7,127,,
0,control_change,,0,0,6,,,,,,,,5,10,104,,
0,key_signature,,0,1,6,Bb,,,,,,,,,,,
0,time_signature,,0,1,6,,1,4,24,8,,,,,,,
0,note_on,,0,0,6,,,,,,,,5,,,62,108
0,track_name,,0,1,6,,,,,,,,,,,,
0,midi_port,,0,1,7,,,,,,0,,,,,,
0,program_change,,0,0,7,,,,,,,41,6,,,,
0,control_change,,0,0,7,,,,,,,,6,7,127,,
0,control_change,,0,0,7,,,,,,,,6,10,104,,
0,key_signature,,0,1,7,Bb,,,,,,,,,,,
0,time_signature,,0,1,7,,1,4,24,8,,,,,,,
0,note_on,,0,0,7,,,,,,,,6,,,65,92
0,track_name,,0,1,7,,,,,,,,,,,,
0,track_name,,0,1,18,,,,,,,,,,,,
0,midi_port,,0,1,8,,,,,,0,,,,,,
0,program_change,,0,0,8,,,,,,,42,7,,,,
0,control_change,,0,0,8,,,,,,,,7,7,127,,
0,control_change,,0,0,8,,,,,,,,7,10,24,,
0,key_signature,,0,1,8,Bb,,,,,,,,,,,
0,time_signature,,0,1,8,,1,4,24,8,,,,,,,
0,note_on,,0,0,8,,,,,,,,7,,,46,92
0,track_name,,0,1,8,,,,,,,,,,,,
0,midi_port,,0,1,9,,,,,,0,,,,,,
0,program_change,,0,0,9,,,,,,,43,8,,,,
0,program_change,,0,0,6,,,,,,,48,5,,,,
0,control_change,,0,0,9,,,,,,,,8,7,127,,
0,midi_port,,0,1,6,,,,,,0,,,,,,
0,note_on,,0,0,5,,,,,,,,4,,,70,108
0,control_change,,0,0,2,,,,,,,,1,7,127,,
0,control_change,,0,0,2,,,,,,,,1,10,104,,
0,key_signature,,0,1,2,Bb,,,,,,,,,,,
0,time_signature,,0,1,2,,1,4,24,8,,,,,,,
0,track_name,,0,1,2,,,,,,,,,,,,
0,midi_port,,0,1,3,,,,,,0,,,,,,
0,program_change,,0,0,3,,,,,,,52,2,,,,
0,control_change,,0,0,3,,,,,,,,2,7,127,,
0,control_change,,0,0,3,,,,,,,,2,10,24,,
0,key_signature,,0,1,3,Bb,,,,,,,,,,,
0,time_signature,,0,1,3,,1,4,24,8,,,,,,,
0,track_name,,0,1,3,,,,,,,,,,,,
0,midi_port,,0,1,4,,,,,,0,,,,,,
0,program_change,,0,0,4,,,,,,,52,3,,,,
0,control_change,,0,0,4,,,,,,,,3,7,127,,
0,control_change,,0,0,4,,,,,,,,3,10,104,,
0,key_signature,,0,1,4,Bb,,,,,,,,,,,
0,time_signature,,0,1,4,,1,4,24,8,,,,,,,
0,track_name,,0,1,4,,,,,,,,,,,,
0,midi_port,,0,1,5,,,,,,0,,,,,,
0,program_change,,0,0,5,,,,,,,48,4,,,,
0,control_change,,0,0,5,,,,,,,,4,7,127,,
0,control_change,,0,0,5,,,,,,,,4,10,24,,
0,key_signature,,0,1,5,Bb,,,,,,,,,,,
0,time_signature,,0,1,5,,1,4,24,8,,,,,,,
0,track_name,,0,1,5,,,,,,,,,,,,
0,program_change,,0,0,2,,,,,,,52,1,,,,
0,control_change,,0,0,9,,,,,,,,8,10,64,,
0,time_signature,,0,1,9,,1,4,24,8,,,,,,,
0,track_name,,0,1,13,,,,,,,,,,,,
0,end_of_track,,0,1,13,,,,,,,,,,,,
0,midi_port,,0,1,14,,,,,,0,,,,,,
0,control_change,,0,0,14,,,,,,,,9,7,127,,
0,control_change,,0,0,14,,,,,,,,9,10,64,,
0,track_name,,0,1,14,,,,,,,,,,,,
0,end_of_track,,0,1,14,,,,,,,,,,,,
0,midi_port,,0,1,15,,,,,,0,,,,,,
0,control_change,,0,0,15,,,,,,,,9,7,127,,
0,control_change,,0,0,15,,,,,,,,9,10,64,,
0,track_name,,0,1,15,,,,,,,,,,,,
0,end_of_track,,0,1,15,,,,,,,,,,,,
0,midi_port,,0,1,16,,,,,,0,,,,,,
0,control_change,,0,0,16,,,,,,,,9,7,127,,
0,control_change,,0,0,16,,,,,,,,9,10,64,,
0,track_name,,0,1,16,,,,,,,,,,,,
0,end_of_track,,0,1,16,,,,,,,,,,,,
0,midi_port,,0,1,17,,,,,,0,,,,,,
0,control_change,,0,0,17,,,,,,,,9,7,127,,
0,control_change,,0,0,17,,,,,,,,9,10,64,,
0,track_name,,0,1,17,,,,,,,,,,,,
0,end_of_track,,0,1,17,,,,,,,,,,,,
0,midi_port,,0,1,18,,,,,,0,,,,,,
0,control_change,,0,0,18,,,,,,,,9,7,127,,
0,control_change,,0,0,18,,,,,,,,9,10,64,,
0,control_change,,0,0,13,,,,,,,,9,10,64,,
0,key_signature,,0,1,9,Bb,,,,,,,,,,,
0,control_change,,0,0,13,,,,,,,,9,7,127,,
0,track_name,,0,1,12,,,,,,,,,,,,
0,note_on,,0,0,9,,,,,,,,8,,,34,75
0,track_name,,0,1,9,,,,,,,,,,,,
0,midi_port,,0,1,10,,,,,,0,,,,,,
0,program_change,,0,0,10,,,,,,,68,10,,,,
0,control_change,,0,0,10,,,,,,,,10,7,127,,
0,control_change,,0,0,10,,,,,,,,10,10,24,,
0,key_signature,,0,1,10,Bb,,,,,,,,,,,
0,time_signature,,0,1,10,,1,4,24,8,,,,,,,
0,note_on,,0,0,10,,,,,,,,10,,,70,92
0,track_name,,0,1,10,,,,,,,,,,,,
0,midi_port,,0,1,11,,,,,,0,,,,,,
0,program_change,,0,0,11,,,,,,,68,11,,,,
0,control_change,,0,0,11,,,,,,,,11,7,127,,
0,control_change,,0,0,11,,,,,,,,11,10,104,,
0,key_signature,,0,1,11,Bb,,,,,,,,,,,
0,time_signature,,0,1,11,,1,4,24,8,,,,,,,
0,note_on,,0,0,11,,,,,,,,11,,,70,92
0,track_name,,0,1,11,,,,,,,,,,,,
0,midi_port,,0,1,12,,,,,,0,,,,,,
0,program_change,,0,0,12,,,,,,,70,12,,,,
0,control_change,,0,0,12,,,,,,,,12,7,127,,
0,control_change,,0,0,12,,,,,,,,12,10,96,,
0,key_signature,,0,1,12,Bb,,,,,,,,,,,
0,time_signature,,0,1,12,,1,4,24,8,,,,,,,
0,note_on,,0,0,12,,,,,,,,12,,,46,92
0,midi_port,,0,1,13,,,,,,0,,,,,,
0,midi_port,,0,1,2,,,,,,0,,,,,,
0,end_of_track,,0,1,18,,,,,,,,,,,,
0,key_signature,,0,1,1,Bb,,,,,,,,,,,
0,control_change,,0,0,1,,,,,,,,0,7,127,,
0,control_change,,0,0,1,,,,,,,,0,10,24,,
0,time_signature,,0,1,1,,1,4,24,8,,,,,,,
0,track_name,,0,1,1,,,,,,,,,,,,
0,midi_port,,0,1,1,,,,,,0,,,,,,
0,key_signature,,0,1,0,Bb,,,,,,,,,,,
0,program_change,,0,0,1,,,,,,,52,0,,,,
0,track_name,,0,1,0,,,,,,,,,,,,
0,text,,0,1,0,,,,,,,,,,,,
0,text,,0,1,0,,,,,,,,,,,,
0,copyright,,0,1,0,,,,,,,,,,,,
0,copyright,,0,1,0,,,,,,,,,,,,
0,time_signature,,0,1,0,,1,4,24,8,,,,,,,
192,time_signature,,192,1,3,,3,4,24,8,,,,,,,
192,time_signature,,192,1,4,,3,4,24,8,,,,,,,
192,time_signature,,0,1,8,,3,4,24,8,,,,,,,
192,time_signature,,192,1,1,,3,4,24,8,,,,,,,
192,note_on,,0,0,11,,,,,,,,11,,,70,92
192,note_on,,0,0,8,,,,,,,,7,,,41,92
192,note_on,,192,0,6,,,,,,,,5,,,62,0
192,time_signature,,0,1,6,,3,4,24,8,,,,,,,
192,time_signature,,0,1,11,,3,4,24,8,,,,,,,
192,note_on,,0,0,12,,,,,,,,12,,,41,92
192,time_signature,,0,1,12,,3,4,24,8,,,,,,,
192,note_on,,192,0,12,,,,,,,,12,,,46,0
192,note_on,,192,0,5,,,,,,,,4,,,70,0
192,time_signature,,0,1,5,,3,4,24,8,,,,,,,
192,note_on,,0,0,5,,,,,,,,4,,,70,108
192,time_signature,,192,1,0,,3,4,24,8,,,,,,,
192,note_on,,0,0,6,,,,,,,,5,,,62,108
192,note_on,,192,0,11,,,,,,,,11,,,70,0
192,note_on,,192,0,8,,,,,,,,7,,,46,0
192,note_on,,192,0,7,,,,,,,,6,,,65,0
192,note_on,,0,0,10,,,,,,,,10,,,70,92
192,time_signature,,0,1,10,,3,4,24,8,,,,,,,
192,note_on,,192,0,10,,,,,,,,10,,,70,0
192,note_on,,192,0,9,,,,,,,,8,,,34,0
192,note_on,,0,0,7,,,,,,,,6,,,65,92
192,time_signature,,0,1,9,,3,4,24,8,,,,,,,
192,note_on,,0,0,9,,,,,,,,8,,,29,75
192,time_signature,,192,1,2,,3,4,24,8,,,,,,,
192,time_signature,,0,1,7,,3,4,24,8,,,,,,,
384,note_on,,192,0,10,,,,,,,,10,,,70,0
384,note_on,,0,0,5,,,,,,,,4,,,69,108
384,note_on,,0,0,10,,,,,,,,10,,,69,92
384,note_on,,192,0,11,,,,,,,,11,,,70,0
384,note_on,,0,0,11,,,,,,,,11,,,69,92
384,note_on,,0,0,6,,,,,,,,5,,,60,108
384,note_on,,192,0,6,,,,,,,,5,,,62,0
384,note_on,,192,0,5,,,,,,,,4,,,70,0
576,note_on,,384,0,12,,,,,,,,12,,,41,0
576,note_on,,0,0,7,,,,,,,,6,,,58,92
576,note_on,,192,0,10,,,,,,,,10,,,69,0
576,note_on,,192,0,11,,,,,,,,11,,,69,0
576,note_on,,0,0,11,,,,,,,,11,,,74,92
576,note_on,,384,0,7,,,,,,,,6,,,65,0
576,note_on,,0,0,10,,,,,,,,10,,,74,92
576,note_on,,0,0,12,,,,,,,,12,,,58,92
576,note_on,,192,0,6,,,,,,,,5,,,60,0
576,note_on,,0,0,5,,,,,,,,4,,,74,108
576,note_on,,0,0,6,,,,,,,,5,,,58,108
576,note_on,,192,0,5,,,,,,,,4,,,69,0
768,note_on,,192,0,10,,,,,,,,10,,,74,0
768,note_on,,192,0,12,,,,,,,,12,,,58,0
768,note_on,,0,0,12,,,,,,,,12,,,58,92
768,note_on,,0,0,6,,,,,,,,5,,,65,108
768,note_on,,192,0,6,,,,,,,,5,,,58,0
768,note_on,,192,0,5,,,,,,,,4,,,74,0
768,note_on,,0,0,10,,,,,,,,10,,,74,92
768,note_on,,192,0,7,,,,,,,,6,,,58,0
768,note_on,,0,0,7,,,,,,,,6,,,58,92
768,note_on,,192,0,11,,,,,,,,11,,,74,0
768,note_on,,0,0,11,,,,,,,,11,,,74,92
768,note_on,,0,0,5,,,,,,,,4,,,74,108
960,note_on,,0,0,12,,,,,,,,12,,,57,92
960,note_on,,192,0,12,,,,,,,,12,,,58,0
960,note_on,,0,0,7,,,,,,,,6,,,57,92
960,note_on,,0,0,11,,,,,,,,11,,,72,92
960,note_on,,192,0,5,,,,,,,,4,,,74,0
960,note_on,,192,0,10,,,,,,,,10,,,74,0
960,note_on,,0,0,10,,,,,,,,10,,,72,92
960,note_on,,192,0,7,,,,,,,,6,,,58,0
960,note_on,,0,0,5,,,,,,,,4,,,72,108
960,note_on,,192,0,11,,,,,,,,11,,,74,0
1152,note_on,,0,0,11,,,,,,,,11,,,70,92
1152,note_on,,192,0,11,,,,,,,,11,,,72,0
1152,note_on,,384,0,6,,,,,,,,5,,,65,0
1152,note_on,,0,0,7,,,,,,,,6,,,62,92
1152,note_on,,192,0,12,,,,,,,,12,,,57,0
1152,note_on,,192,0,7,,,,,,,,6,,,57,0
1152,note_on,,0,0,5,,,,,,,,4,,,70,108
1152,note_on,,192,0,5,,,,,,,,4,,,72,0
1152,note_on,,192,0,10,,,,,,,,10,,,72,0
1152,note_on,,0,0,10,,,,,,,,10,,,70,92
1152,note_on,,0,0,6,,,,,,,,5,,,65,108
1152,note_on,,0,0,12,,,,,,,,12,,,62,92
1344,note_on,,192,0,7,,,,,,,,6,,,62,0
1344,note_on,,0,0,7,,,,,,,,6,,,62,92
1344,note_on,,0,0,12,,,,,,,,12,,,62,92
1344,note_on,,0,0,6,,,,,,,,5,,,65,108
1344,note_on,,192,0,11,,,,,,,,11,,,70,0
1344,note_on,,192,0,12,,,,,,,,12,,,62,0
1344,note_on,,0,0,10,,,,,,,,10,,,70,92
1344,note_on,,192,0,10,,,,,,,,10,,,70,0
1344,note_on,,192,0,5,,,,,,,,4,,,70,0
1344,note_on,,0,0,5,,,,,,,,4,,,70,108
1344,note_on,,192,0,6,,,,,,,,5,,,65,0
1344,note_on,,0,0,11,,,,,,,,11,,,70,92
1536,note_on,,0,0,5,,,,,,,,4,,,69,108
1536,note_on,,192,0,5,,,,,,,,4,,,70,0
1536,note_on,,0,0,7,,,,,,,,6,,,60,92
1536,note_on,,192,0,7,,,,,,,,6,,,62,0
1536,note_on,,0,0,11,,,,,,,,11,,,69,92
1536,note_on,,192,0,10,,,,,,,,10,,,70,0
1536,note_on,,0,0,12,,,,,,,,12,,,60,92
1536,note_on,,192,0,12,,,,,,,,12,,,62,0
1536,note_on,,0,0,6,,,,,,,,5,,,63,108
1536,note_on,,192,0,6,,,,,,,,5,,,65,0
1536,note_on,,192,0,11,,,,,,,,11,,,70,0
1536,note_on,,0,0,10,,,,,,,,10,,,69,92
1728,note_on,,192,0,5,,,,,,,,4,,,69,0
1728,note_on,,0,0,5,,,,,,,,4,,,74,108
1728,note_on,,192,0,12,,,,,,,,12,,,60,0
1728,note_on,,0,0,6,,,,,,,,5,,,62,108
1728,note_on,,0,0,7,,,,,,,,6,,,58,92
1728,note_on,,192,0,7,,,,,,,,6,,,60,0
1728,note_on,,192,0,11,,,,,,,,11,,,69,0
1728,note_on,,0,0,11,,,,,,,,11,,,74,92
1728,note_on,,192,0,10,,,,,,,,10,,,69,0
1728,note_on,,192,0,6,,,,,,,,5,,,63,0
1728,note_on,,0,0,10,,,,,,,,10,,,74,92
1728,note_on,,0,0,12,,,,,,,,12,,,58,92
1920,note_on,,0,0,5,,,,,,,,4,,,74,108
1920,note_on,,0,0,10,,,,,,,,10,,,74,92
1920,note_on,,192,0,10,,,,,,,,10,,,74,0
1920,note_on,,0,0,12,,,,,,,,12,,,65,92
1920,note_on,,192,0,12,,,,,,,,12,,,58,0
1920,note_on,,0,0,11,,,,,,,,11,,,70,92
1920,note_on,,192,0,11,,,,,,,,11,,,74,0
1920,note_on,,192,0,5,,,,,,,,4,,,74,0
1920,note_on,,0,0,7,,,,,,,,6,,,70,92
1920,note_on,,0,0,6,,,,,,,,5,,,70,108
1920,note_on,,192,0,6,,,,,,,,5,,,62,0
1920,note_on,,192,0,7,,,,,,,,6,,,58,0
2112,note_on,,0,0,10,,,,,,,,10,,,72,92
2112,note_on,,192,0,7,,,,,,,,6,,,70,0
2112,note_on,,192,0,10,,,,,,,,10,,,74,0
2112,note_on,,192,0,5,,,,,,,,4,,,74,0
2112,note_on,,0,0,5,,,,,,,,4,,,72,108
2112,note_on,,0,0,7,,,,,,,,6,,,69,92
2112,note_on,,192,0,6,,,,,,,,5,,,70,0
2112,note_on,,0,0,6,,,,,,,,5,,,69,108
2112,note_on,,0,0,11,,,,,,,,11,,,69,92
2112,note_on,,192,0,11,,,,,,,,11,,,70,0
2304,note_on,,192,0,6,,,,,,,,5,,,69,0
2304,note_on,,384,0,12,,,,,,,,12,,,65,0
2304,note_on,,0,0,12,,,,,,,,12,,,63,92
2304,note_on,,192,0,10,,,,,,,,10,,,72,0
2304,note_on,,192,0,11,,,,,,,,11,,,69,0
2304,note_on,,192,0,5,,,,,,,,4,,,72,0
2304,note_on,,0,0,7,,,,,,,,6,,,63,92
2304,note_on,,192,0,7,,,,,,,,6,,,69,0
2496,note_on,,192,0,10,,,,,,,,10,,,77,92
2496,note_on,,0,0,7,,,,,,,,6,,,62,92
2496,note_on,,192,0,7,,,,,,,,6,,,63,0
2496,note_on,,192,0,11,,,,,,,,11,,,77,92
2496,note_on,,192,0,12,,,,,,,,12,,,63,0
2496,note_on,,192,0,6,,,,,,,,5,,,74,108
2496,note_on,,0,0,12,,,,,,,,12,,,62,92
2496,note_on,,192,0,5,,,,,,,,4,,,77,108
2688,note_on,,192,0,6,,,,,,,,5,,,74,0
2688,note_on,,0,0,11,,,,,,,,11,,,65,92
2688,note_on,,192,0,10,,,,,,,,10,,,77,0
2688,note_on,,0,0,5,,,,,,,,4,,,65,108
2688,note_on,,192,0,5,,,,,,,,4,,,77,0
2688,note_on,,192,0,11,,,,,,,,11,,,77,0
2688,note_on,,0,0,10,,,,,,,,10,,,65,92
2688,note_on,,0,0,6,,,,,,,,5,,,62,108
2880,note_on,,0,0,7,,,,,,,,6,,,60,92
2880,note_on,,0,0,9,,,,,,,,8,,,41,75
2880,note_on,,2688,0,9,,,,,,,,8,,,29,0
2880,note_on,,384,0,7,,,,,,,,6,,,62,0
2880,note_on,,0,0,12,,,,,,,,12,,,60,92
2880,note_on,,384,0,12,,,,,,,,12,,,62,0
2880,note_on,,2688,0,8,,,,,,,,7,,,41,0
2880,note_on,,0,0,8,,,,,,,,7,,,53,92
2976,note_on,,288,0,10,,,,,,,,10,,,65,0
2976,note_on,,288,0,11,,,,,,,,11,,,65,0
2976,note_on,,288,0,6,,,,,,,,5,,,62,0
2976,note_on,,288,0,5,,,,,,,,4,,,65,0
3024,note_on,,48,0,10,,,,,,,,10,,,75,92
3024,note_on,,48,0,11,,,,,,,,11,,,75,92
3024,note_on,,48,0,6,,,,,,,,5,,,69,108
3024,note_on,,48,0,5,,,,,,,,4,,,75,108
3072,note_on,,48,0,10,,,,,,,,10,,,75,0
3072,note_on,,0,0,5,,,,,,,,4,,,74,108
3072,note_on,,0,0,10,,,,,,,,10,,,74,92
3072,note_on,,0,0,9,,,,,,,,8,,,46,75
3072,note_on,,48,0,6,,,,,,,,5,,,69,0
3072,note_on,,192,0,12,,,,,,,,12,,,60,0
3072,note_on,,0,0,12,,,,,,,,12,,,58,92
3072,note_on,,0,0,6,,,,,,,,5,,,70,108
3072,note_on,,192,0,9,,,,,,,,8,,,41,0
3072,note_on,,192,0,7,,,,,,,,6,,,60,0
3072,note_on,,48,0,5,,,,,,,,4,,,75,0
3072,note_on,,0,0,11,,,,,,,,11,,,74,92
3072,note_on,,48,0,11,,,,,,,,11,,,75,0
3072,note_on,,192,0,8,,,,,,,,7,,,53,0
3072,note_on,,0,0,7,,,,,,,,6,,,58,92
3072,note_on,,0,0,8,,,,,,,,7,,,58,92
3264,note_on,,192,0,6,,,,,,,,5,,,70,0
3264,note_on,,0,0,6,,,,,,,,5,,,65,108
3264,note_on,,192,0,5,,,,,,,,4,,,74,0
3264,note_on,,192,0,9,,,,,,,,8,,,46,0
3264,note_on,,0,0,10,,,,,,,,10,,,62,92
3264,note_on,,0,0,11,,,,,,,,11,,,62,92
3264,note_on,,192,0,11,,,,,,,,11,,,74,0
3264,note_on,,0,0,5,,,,,,,,4,,,62,108
3264,note_on,,0,0,9,,,,,,,,8,,,34,75
3264,note_on,,0,0,12,,,,,,,,12,,,46,92
3264,note_on,,0,0,8,,,,,,,,7,,,46,92
3264,note_on,,192,0,10,,,,,,,,10,,,74,0
3264,note_on,,192,0,12,,,,,,,,12,,,58,0
3264,note_on,,192,0,8,,,,,,,,7,,,58,0
3456,note_on,,0,0,8,,,,,,,,7,,,56,92
3456,note_on,,0,0,12,,,,,,,,12,,,56,92
3456,note_on,,192,0,9,,,,,,,,8,,,34,0
3456,note_on,,384,0,7,,,,,,,,6,,,58,0
3456,note_on,,0,0,9,,,,,,,,8,,,44,75
3456,note_on,,192,0,8,,,,,,,,7,,,46,0
3456,note_on,,192,0,12,,,,,,,,12,,,46,0
3552,note_on,,288,0,5,,,,,,,,4,,,62,0
3552,note_on,,288,0,6,,,,,,,,5,,,65,0
3552,note_on,,288,0,10,,,,,,,,10,,,62,0
3552,note_on,,288,0,11,,,,,,,,11,,,62,0
3600,note_on,,48,0,10,,,,,,,,10,,,72,92
3600,note_on,,144,0,7,,,,,,,,6,,,65,92
3600,note_on,,48,0,11,,,,,,,,11,,,72,92
3600,note_on,,48,0,6,,,,,,,,5,,,65,108
3600,note_on,,48,0,5,,,,,,,,4,,,72,108
3648,note_on,,0,0,11,,,,,,,,11,,,75,92
3648,note_on,,0,0,7,,,,,,,,6,,,67,92
3648,note_on,,48,0,5,,,,,,,,4,,,72,0
3648,note_on,,0,0,5,,,,,,,,4,,,75,108
3648,note_on,,0,0,6,,,,,,,,5,,,70,108
3648,note_on,,48,0,6,,,,,,,,5,,,65,0
3648,note_on,,0,0,10,,,,,,,,10,,,75,92
3648,note_on,,192,0,9,,,,,,,,8,,,44,0
3648,note_on,,0,0,12,,,,,,,,12,,,55,92
3648,note_on,,192,0,8,,,,,,,,7,,,56,0
3648,note_on,,0,0,8,,,,,,,,7,,,55,92
3648,note_on,,48,0,10,,,,,,,,10,,,72,0
3648,note_on,,48,0,11,,,,,,,,11,,,72,0
3648,note_on,,48,0,7,,,,,,,,6,,,65,0
3648,note_on,,0,0,9,,,,,,,,8,,,43,75
3648,note_on,,192,0,12,,,,,,,,12,,,56,0
3840,note_on,,192,0,10,,,,,,,,10,,,75,0
3840,note_on,,192,0,12,,,,,,,,12,,,55,0
3840,note_on,,0,0,12,,,,,,,,12,,,53,92
3840,note_on,,0,0,8,,,,,,,,7,,,53,92
3840,note_on,,192,0,8,,,,,,,,7,,,55,0
3840,note_on,,0,0,7,,,,,,,,6,,,62,92
3840,note_on,,0,0,5,,,,,,,,4,,,74,108
3840,note_on,,192,0,5,,,,,,,,4,,,75,0
3840,note_on,,0,0,9,,,,,,,,8,,,41,75
3840,note_on,,192,0,9,,,,,,,,8,,,43,0
3840,note_on,,192,0,11,,,,,,,,11,,,75,0
3840,note_on,,0,0,11,,,,,,,,11,,,74,92
3840,note_on,,0,0,10,,,,,,,,10,,,74,92
3840,note_on,,192,0,7,,,,,,,,6,,,67,0
4032,note_on,,0,0,5,,,,,,,,4,,,72,108
4032,note_on,,192,0,5,,,,,,,,4,,,74,0
4032,note_on,,0,0,11,,,,,,,,11,,,72,92
4032,note_on,,192,0,10,,,,,,,,10,,,74,0
4032,note_on,,0,0,10,,,,,,,,10,,,72,92
4032,note_on,,192,0,8,,,,,,,,7,,,53,0
4032,note_on,,0,0,8,,,,,,,,7,,,51,92
4032,note_on,,0,0,7,,,,,,,,6,,,67,92
4032,note_on,,192,0,7,,,,,,,,6,,,62,0
4032,note_on,,192,0,11,,,,,,,,11,,,74,0
4032,note_on,,0,0,9,,,,,,,,8,,,39,75
4032,note_on,,0,0,12,,,,,,,,12,,,51,92
4032,note_on,,192,0,12,,,,,,,,12,,,53,0
4032,note_on,,192,0,9,,,,,,,,8,,,41,0
4224,note_on,,0,0,5,,,,,,,,4,,,74,108
4224,note_on,,192,0,5,,,,,,,,4,,,72,0
4224,note_on,,192,0,10,,,,,,,,10,,,72,0
4224,note_on,,0,0,10,,,,,,,,10,,,74,92
4224,note_on,,0,0,12,,,,,,,,12,,,53,92
4224,note_on,,192,0,12,,,,,,,,12,,,51,0
4224,note_on,,192,0,8,,,,,,,,7,,,51,0
4224,note_on,,0,0,8,,,,,,,,7,,,53,92
4224,note_on,,0,0,7,,,,,,,,6,,,65,92
4224,note_on,,192,0,7,,,,,,,,6,,,67,0
4224,note_on,,192,0,9,,,,,,,,8,,,39,0
4224,note_on,,0,0,6,,,,,,,,5,,,70,108
4224,note_on,,576,0,6,,,,,,,,5,,,70,0
4224,note_on,,0,0,9,,,,,,,,8,,,41,75
4224,note_on,,192,0,11,,,,,,,,11,,,72,0
4224,note_on,,0,0,11,,,,,,,,11,,,74,92
4320,note_on,,0,0,6,,,,,,,,5,,,72,108
4320,note_on,,0,0,5,,,,,,,,4,,,75,108
4320,note_on,,96,0,5,,,,,,,,4,,,74,0
4320,note_on,,96,0,11,,,,,,,,11,,,74,0
4320,note_on,,0,0,11,,,,,,,,11,,,75,92
4320,note_on,,0,0,10,,,,,,,,10,,,75,92
4320,note_on,,96,0,10,,,,,,,,10,,,74,0
4320,note_on,,96,0,6,,,,,,,,5,,,70,0
4416,note_on,,0,0,5,,,,,,,,4,,,72,108
4416,note_on,,96,0,5,,,,,,,,4,,,75,0
4416,note_on,,96,0,11,,,,,,,,11,,,75,0
4416,note_on,,0,0,11,,,,,,,,11,,,72,92
4416,note_on,,96,0,6,,,,,,,,5,,,72,0
4416,note_on,,96,0,10,,,,,,,,10,,,75,0
4416,note_on,,0,0,10,,,,,,,,10,,,72,92
4416,note_on,,0,0,6,,,,,,,,5,,,69,108
4608,note_on,,384,0,8,,,,,,,,7,,,53,0
4608,note_on,,384,0,9,,,,,,,,8,,,41,0
4608,note_on,,0,0,9,,,,,,,,8,,,29,75
4608,note_on,,384,0,7,,,,,,,,6,,,65,0
4608,note_on,,384,0,12,,,,,,,,12,,,53,0
4608,note_on,,0,0,8,,,,,,,,7,,,41,92
4608,note_on,,0,0,12,,,,,,,,12,,,41,92
4608,note_on,,0,0,7,,,,,,,,6,,,63,92
4704,note_on,,288,0,11,,,,,,,,11,,,72,0
4704,note_on,,0,0,6,,,,,,,,5,,,70,108
4704,note_on,,0,0,11,,,,,,,,11,,,70,92
4704,note_on,,0,0,10,,,,,,,,10,,,70,92
4704,note_on,,288,0,6,,,,,,,,5,,,69,0
4704,note_on,,288,0,10,,,,,,,,10,,,72,0
4704,note_on,,0,0,5,,,,,,,,4,,,70,108
4704,note_on,,288,0,5,,,,,,,,4,,,72,0
4800,note_on,,0,0,5,,,,,,,,4,,,70,108
4800,note_on,,96,0,5,,,,,,,,4,,,70,0
4800,note_on,,0,0,10,,,,,,,,10,,,70,92
4800,note_on,,96,0,10,,,,,,,,10,,,70,0
4800,note_on,,192,0,7,,,,,,,,6,,,63,0
4800,note_on,,0,0,7,,,,,,,,6,,,62,92
4800,note_on,,192,0,8,,,,,,,,7,,,41,0
4800,note_on,,192,0,12,,,,,,,,12,,,41,0
4800,note_on,,0,0,11,,,,,,,,11,,,70,92
4800,note_on,,96,0,11,,,,,,,,11,,,70,0
4800,note_on,,96,0,6,,,,,,,,5,,,70,0
4800,note_on,,0,0,6,,,,,,,,5,,,70,108
4800,note_on,,0,0,9,,,,,,,,8,,,34,75
4800,note_on,,192,0,9,,,,,,,,8,,,29,0
4800,note_on,,0,0,12,,,,,,,,12,,,46,92
4800,note_on,,0,0,8,,,,,,,,7,,,46,92
5184,note_on,,384,0,8,,,,,,,,7,,,46,0
5184,note_on,,384,0,11,,,,,,,,11,,,70,0
5184,note_on,,384,0,6,,,,,,,,5,,,70,0
5184,note_on,,4992,0,3,,,,,,,,2,,,62,92
5184,note_on,,384,0,9,,,,,,,,8,,,34,0
5184,note_on,,4992,0,2,,,,,,,,1,,,65,92
5184,note_on,,4992,0,4,,,,,,,,3,,,58,92
5184,note_on,,384,0,7,,,,,,,,6,,,62,0
5184,note_on,,4992,0,1,,,,,,,,0,,,70,92
5184,note_on,,384,0,5,,,,,,,,4,,,70,0
5184,note_on,,384,0,10,,,,,,,,10,,,70,0
5184,note_on,,384,0,12,,,,,,,,12,,,46,0
5344,note_on,,160,0,3,,,,,,,,2,,,62,0
5344,note_on,,160,0,1,,,,,,,,0,,,70,0
5344,note_on,,160,0,4,,,,,,,,3,,,58,0
5344,note_on,,160,0,2,,,,,,,,1,,,65,0
5376,note_on,,32,0,4,,,,,,,,3,,,53,92
5376,note_on,,32,0,1,,,,,,,,0,,,70,92
5376,note_on,,32,0,2,,,,,,,,1,,,65,92
5376,note_on,,32,0,3,,,,,,,,2,,,62,92
5568,note_on,,0,0,3,,,,,,,,2,,,60,92
5568,note_on,,192,0,3,,,,,,,,2,,,62,0
5568,note_on,,0,0,1,,,,,,,,0,,,69,92
5568,note_on,,192,0,1,,,,,,,,0,,,70,0
5712,note_on,,336,0,2,,,,,,,,1,,,65,0
5712,note_on,,336,0,4,,,,,,,,3,,,53,0
5728,note_on,,160,0,1,,,,,,,,0,,,69,0
5728,note_on,,160,0,3,,,,,,,,2,,,60,0
5760,note_on,,32,0,1,,,,,,,,0,,,74,92
5760,note_on,,32,0,3,,,,,,,,2,,,58,92
5760,note_on,,48,0,4,,,,,,,,3,,,46,92
5760,note_on,,48,0,2,,,,,,,,1,,,65,92
5920,note_on,,160,0,2,,,,,,,,1,,,65,0
5920,note_on,,160,0,1,,,,,,,,0,,,74,0
5920,note_on,,160,0,3,,,,,,,,2,,,58,0
5920,note_on,,160,0,4,,,,,,,,3,,,46,0
5952,note_on,,32,0,3,,,,,,,,2,,,58,92
5952,note_on,,32,0,4,,,,,,,,3,,,53,92
5952,note_on,,32,0,2,,,,,,,,1,,,65,92
5952,note_on,,32,0,1,,,,,,,,0,,,74,92
6144,note_on,,0,0,1,,,,,,,,0,,,72,92
6144,note_on,,192,0,3,,,,,,,,2,,,58,0
6144,note_on,,0,0,3,,,,,,,,2,,,57,92
6144,note_on,,192,0,1,,,,,,,,0,,,74,0
6288,note_on,,336,0,2,,,,,,,,1,,,65,0
6288,note_on,,336,0,4,,,,,,,,3,,,53,0
6304,note_on,,160,0,3,,,,,,,,2,,,57,0
6304,note_on,,160,0,1,,,,,,,,0,,,72,0
6336,note_on,,32,0,1,,,,,,,,0,,,70,92
6336,note_on,,48,0,4,,,,,,,,3,,,62,92
6336,note_on,,32,0,3,,,,,,,,2,,,62,92
6336,note_on,,48,0,2,,,,,,,,1,,,65,92
6496,note_on,,160,0,1,,,,,,,,0,,,70,0
6496,note_on,,160,0,3,,,,,,,,2,,,62,0
6496,note_on,,160,0,4,,,,,,,,3,,,62,0
6496,note_on,,160,0,2,,,,,,,,1,,,65,0
6528,note_on,,32,0,2,,,,,,,,1,,,69,92
6528,note_on,,32,0,4,,,,,,,,3,,,60,92
6528,note_on,,32,0,1,,,,,,,,0,,,72,92
6528,note_on,,32,0,3,,,,,,,,2,,,63,92
6624,note_on,,96,0,1,,,,,,,,0,,,72,0
6624,note_on,,0,0,1,,,,,,,,0,,,74,92
6720,note_on,,96,0,1,,,,,,,,0,,,74,0
6720,note_on,,0,0,1,,,,,,,,0,,,75,92
6864,note_on,,336,0,2,,,,,,,,1,,,69,0
6864,note_on,,336,0,4,,,,,,,,3,,,60,0
6864,note_on,,336,0,3,,,,,,,,2,,,63,0
6880,note_on,,160,0,1,,,,,,,,0,,,75,0
6912,note_on,,48,0,4,,,,,,,,3,,,58,92
6912,note_on,,32,0,1,,,,,,,,0,,,74,92
6912,note_on,,48,0,3,,,,,,,,2,,,65,92
6912,note_on,,48,0,2,,,,,,,,1,,,70,92
7072,note_on,,160,0,4,,,,,,,,3,,,58,0
7072,note_on,,160,0,3,,,,,,,,2,,,65,0
7072,note_on,,160,0,2,,,,,,,,1,,,70,0
7072,note_on,,160,0,1,,,,,,,,0,,,74,0
7104,note_on,,32,0,4,,,,,,,,3,,,53,92
7104,note_on,,32,0,3,,,,,,,,2,,,65,92
7104,note_on,,32,0,2,,,,,,,,1,,,69,92
7104,note_on,,32,0,1,,,,,,,,0,,,72,92
7440,note_on,,336,0,4,,,,,,,,3,,,53,0
7440,note_on,,336,0,3,,,,,,,,2,,,65,0
7440,note_on,,336,0,2,,,,,,,,1,,,69,0
7440,note_on,,336,0,1,,,,,,,,0,,,72,0
7488,note_on,,2304,0,9,,,,,,,,8,,,34,75
7488,note_on,,2304,0,12,,,,,,,,12,,,62,92
7488,note_on,,2304,0,8,,,,,,,,7,,,46,92
7488,note_on,,2304,0,7,,,,,,,,6,,,62,92
7488,note_on,,2304,0,5,,,,,,,,4,,,70,108
7488,note_on,,2304,0,6,,,,,,,,5,,,65,108
7680,note_on,,192,0,7,,,,,,,,6,,,62,0
7680,note_on,,192,0,8,,,,,,,,7,,,46,0
7680,note_on,,0,0,8,,,,,,,,7,,,41,92
7680,note_on,,0,0,7,,,,,,,,6,,,62,92
7680,note_on,,0,0,5,,,,,,,,4,,,70,108
7680,note_on,,192,0,5,,,,,,,,4,,,70,0
7680,note_on,,0,0,9,,,,,,,,8,,,29,75
7680,note_on,,192,0,9,,,,,,,,8,,,34,0
7680,note_on,,192,0,12,,,,,,,,12,,,62,0
7680,note_on,,0,0,12,,,,,,,,12,,,62,92
7680,note_on,,192,0,6,,,,,,,,5,,,65,0
7680,note_on,,0,0,6,,,,,,,,5,,,65,108
7872,note_on,,192,0,12,,,,,,,,12,,,62,0
7872,note_on,,0,0,12,,,,,,,,12,,,60,92
7872,note_on,,192,0,7,,,,,,,,6,,,62,0
7872,note_on,,0,0,7,,,,,,,,6,,,60,92
7872,note_on,,192,0,5,,,,,,,,4,,,70,0
7872,note_on,,0,0,6,,,,,,,,5,,,63,108
7872,note_on,,192,0,6,,,,,,,,5,,,65,0
8064,note_on,,192,0,12,,,,,,,,12,,,60,0
8064,note_on,,192,0,6,,,,,,,,5,,,63,0
8064,note_on,,2880,0,10,,,,,,,,10,,,74,92
8064,note_on,,0,0,12,,,,,,,,12,,,58,92
8064,note_on,,0,0,7,,,,,,,,6,,,65,92
8064,note_on,,192,0,5,,,,,,,,4,,,74,108
8064,note_on,,0,0,6,,,,,,,,5,,,70,108
8064,note_on,,192,0,7,,,,,,,,6,,,60,0
8064,note_on,,2880,0,11,,,,,,,,11,,,70,92
8256,note_on,,0,0,6,,,,,,,,5,,,70,108
8256,note_on,,0,0,11,,,,,,,,11,,,70,92
8256,note_on,,192,0,6,,,,,,,,5,,,70,0
8256,note_on,,192,0,12,,,,,,,,12,,,58,0
8256,note_on,,192,0,7,,,,,,,,6,,,65,0
8256,note_on,,0,0,7,,,,,,,,6,,,65,92
8256,note_on,,192,0,11,,,,,,,,11,,,70,0
8256,note_on,,0,0,12,,,,,,,,12,,,65,92
8256,note_on,,0,0,5,,,,,,,,4,,,74,108
8256,note_on,,192,0,10,,,,,,,,10,,,74,0
8256,note_on,,0,0,10,,,,,,,,10,,,74,92
8256,note_on,,192,0,5,,,,,,,,4,,,74,0
8448,note_on,,192,0,5,,,,,,,,4,,,74,0
8448,note_on,,0,0,6,,,,,,,,5,,,69,108
8448,note_on,,192,0,6,,,,,,,,5,,,70,0
8448,note_on,,0,0,11,,,,,,,,11,,,69,92
8448,note_on,,192,0,11,,,,,,,,11,,,70,0
8448,note_on,,0,0,10,,,,,,,,10,,,72,92
8448,note_on,,192,0,10,,,,,,,,10,,,74,0
8448,note_on,,0,0,5,,,,,,,,4,,,72,108
8640,note_on,,0,0,10,,,,,,,,10,,,72,92
8640,note_on,,1200,0,2,,,,,,,,1,,,69,127
8640,note_on,,0,0,5,,,,,,,,4,,,72,108
8640,note_on,,960,0,8,,,,,,,,7,,,41,0
8640,note_on,,0,0,8,,,,,,,,7,,,53,92
8640,note_on,,192,0,5,,,,,,,,4,,,72,0
8640,note_on,,0,0,9,,,,,,,,8,,,41,75
8640,note_on,,0,0,11,,,,,,,,11,,,72,92
8640,note_on,,192,0,11,,,,,,,,11,,,69,0
8640,note_on,,192,0,10,,,,,,,,10,,,72,0
8640,note_on,,1200,0,3,,,,,,,,2,,,65,127
8640,note_on,,1200,0,4,,,,,,,,3,,,53,127
8640,note_on,,384,0,7,,,,,,,,6,,,65,0
8640,note_on,,960,0,9,,,,,,,,8,,,29,0
8640,note_on,,384,0,12,,,,,,,,12,,,65,0
8640,note_on,,0,0,12,,,,,,,,12,,,53,92
8640,note_on,,0,0,7,,,,,,,,6,,,69,92
8640,note_on,,192,0,6,,,,,,,,5,,,69,0
8640,note_on,,0,0,6,,,,,,,,5,,,69,108
8640,note_on,,1200,0,1,,,,,,,,0,,,72,127
8736,note_on,,96,0,9,,,,,,,,8,,,41,0
8736,note_on,,0,0,9,,,,,,,,8,,,39,75
8736,note_on,,0,0,12,,,,,,,,12,,,51,92
8736,note_on,,96,0,6,,,,,,,,5,,,69,0
8736,note_on,,96,0,7,,,,,,,,6,,,69,0
8736,note_on,,0,0,6,,,,,,,,5,,,67,108
8736,note_on,,0,0,8,,,,,,,,7,,,51,92
8736,note_on,,96,0,8,,,,,,,,7,,,53,0
8736,note_on,,96,0,12,,,,,,,,12,,,53,0
8736,note_on,,0,0,7,,,,,,,,6,,,67,92
8800,note_on,,160,0,4,,,,,,,,3,,,53,0
8800,note_on,,160,0,3,,,,,,,,2,,,65,0
8800,note_on,,160,0,2,,,,,,,,1,,,69,0
8800,note_on,,160,0,1,,,,,,,,0,,,72,0
8832,note_on,,0,0,12,,,,,,,,12,,,50,92
8832,note_on,,96,0,12,,,,,,,,12,,,51,0
8832,note_on,,32,0,3,,,,,,,,2,,,65,127
8832,note_on,,0,0,6,,,,,,,,5,,,65,108
8832,note_on,,96,0,6,,,,,,,,5,,,67,0
8832,note_on,,32,0,4,,,,,,,,3,,,62,127
8832,note_on,,32,0,1,,,,,,,,0,,,77,127
8832,note_on,,96,0,7,,,,,,,,6,,,67,0
8832,note_on,,0,0,8,,,,,,,,7,,,50,92
8832,note_on,,96,0,8,,,,,,,,7,,,51,0
8832,note_on,,192,0,5,,,,,,,,4,,,72,0
8832,note_on,,96,0,9,,,,,,,,8,,,39,0
8832,note_on,,0,0,9,,,,,,,,8,,,38,75
8832,note_on,,0,0,5,,,,,,,,4,,,77,108
8832,note_on,,32,0,2,,,,,,,,1,,,69,127
8832,note_on,,0,0,10,,,,,,,,10,,,77,92
8832,note_on,,192,0,10,,,,,,,,10,,,72,0
8832,note_on,,192,0,11,,,,,,,,11,,,72,0
8832,note_on,,0,0,11,,,,,,,,11,,,77,92
8832,note_on,,0,0,7,,,,,,,,6,,,65,92
8928,note_on,,0,0,7,,,,,,,,6,,,67,92
8928,note_on,,0,0,9,,,,,,,,8,,,39,75
8928,note_on,,0,0,8,,,,,,,,7,,,51,92
8928,note_on,,96,0,8,,,,,,,,7,,,50,0
8928,note_on,,96,0,7,,,,,,,,6,,,65,0
8928,note_on,,96,0,9,,,,,,,,8,,,38,0
8928,note_on,,0,0,6,,,,,,,,5,,,67,108
8928,note_on,,96,0,6,,,,,,,,5,,,65,0
8928,note_on,,96,0,12,,,,,,,,12,,,50,0
8928,note_on,,0,0,12,,,,,,,,12,,,51,92
9024,note_on,,0,0,8,,,,,,,,7,,,53,92
9024,note_on,,96,0,8,,,,,,,,7,,,51,0
9024,note_on,,0,0,7,,,,,,,,6,,,69,92
9024,note_on,,0,0,9,,,,,,,,8,,,41,75
9024,note_on,,96,0,9,,,,,,,,8,,,39,0
9024,note_on,,96,0,12,,,,,,,,12,,,51,0
9024,note_on,,96,0,7,,,,,,,,6,,,67,0
9024,note_on,,96,0,6,,,,,,,,5,,,67,0
9024,note_on,,0,0,6,,,,,,,,5,,,69,108
9024,note_on,,0,0,12,,,,,,,,12,,,53,92
9120,note_on,,96,0,7,,,,,,,,6,,,69,0
9120,note_on,,96,0,12,,,,,,,,12,,,53,0
9120,note_on,,0,0,12,,,,,,,,12,,,50,92
9120,note_on,,0,0,8,,,,,,,,7,,,50,92
9120,note_on,,96,0,8,,,,,,,,7,,,53,0
9120,note_on,,0,0,7,,,,,,,,6,,,65,92
9120,note_on,,0,0,6,,,,,,,,5,,,65,108
9120,note_on,,96,0,9,,,,,,,,8,,,41,0
9120,note_on,,0,0,9,,,,,,,,8,,,38,75
9120,note_on,,96,0,6,,,,,,,,5,,,69,0
9168,note_on,,336,0,1,,,,,,,,0,,,77,0
9168,note_on,,336,0,4,,,,,,,,3,,,62,0
9168,note_on,,336,0,2,,,,,,,,1,,,69,0
9168,note_on,,336,0,3,,,,,,,,2,,,65,0
9216,note_on,,0,0,12,,,,,,,,12,,,55,92
9216,note_on,,96,0,7,,,,,,,,6,,,65,0
9216,note_on,,48,0,4,,,,,,,,3,,,55,127
9216,note_on,,48,0,3,,,,,,,,2,,,58,127
9216,note_on,,96,0,8,,,,,,,,7,,,50,0
9216,note_on,,0,0,8,,,,,,,,7,,,55,92
9216,note_on,,0,0,7,,,,,,,,6,,,70,92
9216,note_on,,0,0,11,,,,,,,,11,,,75,92
9216,note_on,,384,0,11,,,,,,,,11,,,77,0
9216,note_on,,384,0,5,,,,,,,,4,,,77,0
9216,note_on,,96,0,12,,,,,,,,12,,,50,0
9216,note_on,,96,0,9,,,,,,,,8,,,38,0
9216,note_on,,48,0,2,,,,,,,,1,,,67,127
9216,note_on,,384,0,10,,,,,,,,10,,,77,0
9216,note_on,,0,0,10,,,,,,,,10,,,75,92
9216,note_on,,0,0,5,,,,,,,,4,,,75,108
9216,note_on,,0,0,9,,,,,,,,8,,,43,75
9216,note_on,,96,0,6,,,,,,,,5,,,65,0
9216,note_on,,0,0,6,,,,,,,,5,,,70,108
9216,note_on,,48,0,1,,,,,,,,0,,,75,127
9310,note_on,,94,0,4,,,,,,,,3,,,55,0
9310,note_on,,94,0,3,,,,,,,,2,,,58,0
9312,note_on,,0,0,8,,,,,,,,7,,,57,92
9312,note_on,,96,0,9,,,,,,,,8,,,43,0
9312,note_on,,0,0,9,,,,,,,,8,,,45,75
9312,note_on,,0,0,6,,,,,,,,5,,,72,108
9312,note_on,,96,0,8,,,,,,,,7,,,55,0
9312,note_on,,96,0,7,,,,,,,,6,,,70,0
9312,note_on,,96,0,6,,,,,,,,5,,,70,0
9312,note_on,,0,0,7,,,,,,,,6,,,72,92
9312,note_on,,2,0,4,,,,,,,,3,,,57,127
9312,note_on,,0,0,12,,,,,,,,12,,,57,92
9312,note_on,,96,0,12,,,,,,,,12,,,55,0
9312,note_on,,2,0,3,,,,,,,,2,,,60,127
9376,note_on,,160,0,2,,,,,,,,1,,,67,0
9376,note_on,,160,0,1,,,,,,,,0,,,75,0
9406,note_on,,94,0,3,,,,,,,,2,,,60,0
9406,note_on,,94,0,4,,,,,,,,3,,,57,0
9408,note_on,,2,0,3,,,,,,,,2,,,62,127
9408,note_on,,96,0,6,,,,,,,,5,,,72,0
9408,note_on,,0,0,6,,,,,,,,5,,,65,108
9408,note_on,,0,0,12,,,,,,,,12,,,58,92
9408,note_on,,96,0,12,,,,,,,,12,,,57,0
9408,note_on,,192,0,5,,,,,,,,4,,,75,0
9408,note_on,,96,0,9,,,,,,,,8,,,45,0
9408,note_on,,0,0,9,,,,,,,,8,,,46,75
9408,note_on,,192,0,10,,,,,,,,10,,,75,0
9408,note_on,,0,0,10,,,,,,,,10,,,74,92
9408,note_on,,0,0,11,,,,,,,,11,,,74,92
9408,note_on,,192,0,11,,,,,,,,11,,,75,0
9408,note_on,,0,0,7,,,,,,,,6,,,65,92
9408,note_on,,96,0,7,,,,,,,,6,,,72,0
9408,note_on,,2,0,4,,,,,,,,3,,,58,127
9408,note_on,,0,0,5,,,,,,,,4,,,74,108
9408,note_on,,96,0,8,,,,,,,,7,,,57,0
9408,note_on,,32,0,2,,,,,,,,1,,,65,127
9408,note_on,,32,0,1,,,,,,,,0,,,74,127
9408,note_on,,0,0,8,,,,,,,,7,,,58,92
9504,note_on,,0,0,7,,,,,,,,6,,,63,92
9504,note_on,,96,0,7,,,,,,,,6,,,65,0
9504,note_on,,96,0,12,,,,,,,,12,,,58,0
9504,note_on,,0,0,8,,,,,,,,7,,,60,92
9504,note_on,,0,0,12,,,,,,,,12,,,60,92
9504,note_on,,0,0,9,,,,,,,,8,,,48,75
9504,note_on,,96,0,9,,,,,,,,8,,,46,0
9504,note_on,,96,0,8,,,,,,,,7,,,58,0
9504,note_on,,96,0,6,,,,,,,,5,,,65,0
9504,note_on,,0,0,6,,,,,,,,5,,,63,108
9600,note_on,,96,0,7,,,,,,,,6,,,63,0
9600,note_on,,96,0,9,,,,,,,,8,,,48,0
9600,note_on,,0,0,9,,,,,,,,8,,,50,75
9600,note_on,,0,0,7,,,,,,,,6,,,65,92
9600,note_on,,96,0,8,,,,,,,,7,,,60,0
9600,note_on,,0,0,8,,,,,,,,7,,,62,92
9600,note_on,,96,0,12,,,,,,,,12,,,60,0
9600,note_on,,0,0,12,,,,,,,,12,,,62,92
9600,note_on,,96,0,6,,,,,,,,5,,,63,0
9600,note_on,,0,0,6,,,,,,,,5,,,65,108
9696,note_on,,96,0,7,,,,,,,,6,,,65,0
9696,note_on,,96,0,6,,,,,,,,5,,,65,0
9696,note_on,,0,0,6,,,,,,,,5,,,63,108
9696,note_on,,96,0,12,,,,,,,,12,,,62,0
9696,note_on,,0,0,12,,,,,,,,12,,,60,92
9696,note_on,,0,0,8,,,,,,,,7,,,60,92
9696,note_on,,96,0,8,,,,,,,,7,,,62,0
9696,note_on,,96,0,9,,,,,,,,8,,,50,0
9696,note_on,,0,0,9,,,,,,,,8,,,48,75
9696,note_on,,0,0,7,,,,,,,,6,,,63,92
9744,note_on,,336,0,2,,,,,,,,1,,,65,0
9744,note_on,,336,0,1,,,,,,,,0,,,74,0
9744,note_on,,336,0,3,,,,,,,,2,,,62,0
9744,note_on,,336,0,4,,,,,,,,3,,,58,0
9792,note_on,,48,0,1,,,,,,,,0,,,74,127
9792,note_on,,0,0,8,,,,,,,,7,,,58,92
9792,note_on,,96,0,8,,,,,,,,7,,,60,0
9792,note_on,,0,0,11,,,,,,,,11,,,77,92
9792,note_on,,384,0,11,,,,,,,,11,,,74,0
9792,note_on,,0,0,7,,,,,,,,6,,,62,92
9792,note_on,,96,0,7,,,,,,,,6,,,63,0
9792,note_on,,0,0,5,,,,,,,,4,,,77,108
9792,note_on,,384,0,5,,,,,,,,4,,,74,0
9792,note_on,,96,0,9,,,,,,,,8,,,48,0
9792,note_on,,48,0,4,,,,,,,,3,,,58,127
9792,note_on,,0,0,6,,,,,,,,5,,,62,108
9792,note_on,,384,0,10,,,,,,,,10,,,74,0
9792,note_on,,96,0,12,,,,,,,,12,,,60,0
9792,note_on,,0,0,12,,,,,,,,12,,,58,92
9792,note_on,,48,0,2,,,,,,,,1,,,65,127
9792,note_on,,48,0,3,,,,,,,,2,,,62,127
9792,note_on,,96,0,6,,,,,,,,5,,,63,0
9792,note_on,,0,0,10,,,,,,,,10,,,77,92
9792,note_on,,0,0,9,,,,,,,,8,,,46,75
9888,note_on,,96,0,7,,,,,,,,6,,,62,0
9888,note_on,,0,0,7,,,,,,,,6,,,60,92
9888,note_on,,0,0,6,,,,,,,,5,,,60,108
9888,note_on,,96,0,9,,,,,,,,8,,,46,0
9888,note_on,,96,0,6,,,,,,,,5,,,62,0
9888,note_on,,96,0,12,,,,,,,,12,,,58,0
9888,note_on,,0,0,9,,,,,,,,8,,,45,75
9888,note_on,,96,0,8,,,,,,,,7,,,58,0
9888,note_on,,0,0,12,,,,,,,,12,,,57,92
9888,note_on,,0,0,8,,,,,,,,7,,,57,92
9952,note_on,,160,0,1,,,,,,,,0,,,74,0
9952,note_on,,160,0,2,,,,,,,,1,,,65,0
9952,note_on,,160,0,3,,,,,,,,2,,,62,0
9952,note_on,,160,0,4,,,,,,,,3,,,58,0
9984,note_on,,96,0,12,,,,,,,,12,,,57,0
9984,note_on,,0,0,12,,,,,,,,12,,,55,92
9984,note_on,,192,0,5,,,,,,,,4,,,77,0
9984,note_on,,96,0,8,,,,,,,,7,,,57,0
9984,note_on,,0,0,5,,,,,,,,4,,,82,108
9984,note_on,,32,0,4,,,,,,,,3,,,55,127
9984,note_on,,32,0,2,,,,,,,,1,,,70,127
9984,note_on,,0,0,8,,,,,,,,7,,,55,92
9984,note_on,,96,0,7,,,,,,,,6,,,60,0
9984,note_on,,0,0,7,,,,,,,,6,,,58,92
9984,note_on,,32,0,3,,,,,,,,2,,,67,127
9984,note_on,,0,0,11,,,,,,,,11,,,82,92
9984,note_on,,96,0,6,,,,,,,,5,,,60,0
9984,note_on,,0,0,6,,,,,,,,5,,,58,108
9984,note_on,,192,0,11,,,,,,,,11,,,77,0
9984,note_on,,0,0,9,,,,,,,,8,,,43,75
9984,note_on,,32,0,1,,,,,,,,0,,,74,127
9984,note_on,,192,0,10,,,,,,,,10,,,77,0
9984,note_on,,96,0,9,,,,,,,,8,,,45,0
9984,note_on,,0,0,10,,,,,,,,10,,,82,92
10080,note_on,,96,0,9,,,,,,,,8,,,43,0
10080,note_on,,0,0,9,,,,,,,,8,,,45,75
10080,note_on,,96,0,6,,,,,,,,5,,,58,0
10080,note_on,,0,0,8,,,,,,,,7,,,57,92
10080,note_on,,96,0,8,,,,,,,,7,,,55,0
10080,note_on,,96,0,12,,,,,,,,12,,,55,0
10080,note_on,,0,0,7,,,,,,,,6,,,60,92
10080,note_on,,96,0,7,,,,,,,,6,,,58,0
10080,note_on,,0,0,12,,,,,,,,12,,,57,92
10080,note_on,,0,0,6,,,,,,,,5,,,60,108
10176,note_on,,0,0,12,,,,,,,,12,,,58,92
10176,note_on,,96,0,7,,,,,,,,6,,,60,0
10176,note_on,,96,0,6,,,,,,,,5,,,60,0
10176,note_on,,0,0,7,,,,,,,,6,,,62,92
10176,note_on,,0,0,6,,,,,,,,5,,,62,108
10176,note_on,,96,0,12,,,,,,,,12,,,57,0
10176,note_on,,0,0,9,,,,,,,,8,,,46,75
10176,note_on,,96,0,9,,,,,,,,8,,,45,0
10176,note_on,,0,0,8,,,,,,,,7,,,58,92
10176,note_on,,96,0,8,,,,,,,,7,,,57,0
10272,note_on,,96,0,12,,,,,,,,12,,,58,0
10272,note_on,,0,0,12,,,,,,,,12,,,60,92
10272,note_on,,0,0,6,,,,,,,,5,,,63,108
10272,note_on,,96,0,6,,,,,,,,5,,,62,0
10272,note_on,,96,0,9,,,,,,,,8,,,46,0
10272,note_on,,96,0,7,,,,,,,,6,,,62,0
10272,note_on,,0,0,7,,,,,,,,6,,,63,92
10272,note_on,,96,0,8,,,,,,,,7,,,58,0
10272,note_on,,0,0,8,,,,,,,,7,,,60,92
10272,note_on,,0,0,9,,,,,,,,8,,,48,75
10320,note_on,,336,0,3,,,,,,,,2,,,67,0
10320,note_on,,336,0,2,,,,,,,,1,,,70,0
10320,note_on,,336,0,1,,,,,,,,0,,,74,0
10320,note_on,,336,0,4,,,,,,,,3,,,55,0
10368,note_on,,0,0,11,,,,,,,,11,,,77,92
10368,note_on,,48,0,3,,,,,,,,2,,,65,127
10368,note_on,,0,0,9,,,,,,,,8,,,50,75
10368,note_on,,96,0,12,,,,,,,,12,,,60,0
10368,note_on,,384,0,11,,,,,,,,11,,,82,0
10368,note_on,,96,0,9,,,,,,,,8,,,48,0
10368,note_on,,0,0,12,,,,,,,,12,,,62,92
10368,note_on,,0,0,6,,,,,,,,5,,,65,108
10368,note_on,,48,0,1,,,,,,,,0,,,77,127
10368,note_on,,0,0,7,,,,,,,,6,,,65,92
10368,note_on,,0,0,5,,,,,,,,4,,,77,108
10368,note_on,,384,0,5,,,,,,,,4,,,82,0
10368,note_on,,96,0,7,,,,,,,,6,,,63,0
10368,note_on,,96,0,6,,,,,,,,5,,,63,0
10368,note_on,,48,0,4,,,,,,,,3,,,50,127
10368,note_on,,48,0,2,,,,,,,,1,,,70,127
10368,note_on,,0,0,8,,,,,,,,7,,,62,92
10368,note_on,,0,0,10,,,,,,,,10,,,77,92
10368,note_on,,384,0,10,,,,,,,,10,,,82,0
10368,note_on,,96,0,8,,,,,,,,7,,,60,0
10464,note_on,,96,0,9,,,,,,,,8,,,50,0
10464,note_on,,0,0,9,,,,,,,,8,,,38,75
10464,note_on,,96,0,8,,,,,,,,7,,,62,0
10464,note_on,,0,0,8,,,,,,,,7,,,50,92
10464,note_on,,96,0,7,,,,,,,,6,,,65,0
10464,note_on,,96,0,6,,,,,,,,5,,,65,0
10464,note_on,,0,0,7,,,,,,,,6,,,70,92
10464,note_on,,0,0,12,,,,,,,,12,,,50,92
10464,note_on,,0,0,6,,,,,,,,5,,,70,108
10464,note_on,,96,0,12,,,,,,,,12,,,62,0
10528,note_on,,160,0,3,,,,,,,,2,,,65,0
10528,note_on,,160,0,4,,,,,,,,3,,,50,0
10528,note_on,,160,0,1,,,,,,,,0,,,77,0
10528,note_on,,160,0,2,,,,,,,,1,,,70,0
10560,note_on,,32,0,2,,,,,,,,1,,,70,127
10560,note_on,,0,0,8,,,,,,,,7,,,51,92
10560,note_on,,96,0,8,,,,,,,,7,,,50,0
10560,note_on,,0,0,12,,,,,,,,12,,,51,92
10560,note_on,,96,0,12,,,,,,,,12,,,50,0
10560,note_on,,192,0,10,,,,,,,,10,,,77,0
10560,note_on,,0,0,10,,,,,,,,10,,,79,92
10560,note_on,,0,0,7,,,,,,,,6,,,58,92
10560,note_on,,32,0,1,,,,,,,,0,,,79,127
10560,note_on,,96,0,7,,,,,,,,6,,,70,0
10560,note_on,,32,0,4,,,,,,,,3,,,51,127
10560,note_on,,96,0,9,,,,,,,,8,,,38,0
10560,note_on,,0,0,9,,,,,,,,8,,,39,75
10560,note_on,,96,0,6,,,,,,,,5,,,70,0
10560,note_on,,192,0,5,,,,,,,,4,,,77,0
10560,note_on,,0,0,5,,,,,,,,4,,,79,108
10560,note_on,,0,0,6,,,,,,,,5,,,58,108
10560,note_on,,32,0,3,,,,,,,,2,,,63,127
10560,note_on,,192,0,11,,,,,,,,11,,,77,0
10560,note_on,,0,0,11,,,,,,,,11,,,79,92
10656,note_on,,0,0,8,,,,,,,,7,,,39,92
10656,note_on,,96,0,7,,,,,,,,6,,,58,0
10656,note_on,,96,0,6,,,,,,,,5,,,58,0
10656,note_on,,0,0,6,,,,,,,,5,,,70,108
10656,note_on,,96,0,9,,,,,,,,8,,,39,0
10656,note_on,,0,0,7,,,,,,,,6,,,70,92
10656,note_on,,0,0,9,,,,,,,,8,,,27,75
10656,note_on,,0,0,12,,,,,,,,12,,,39,92
10656,note_on,,96,0,12,,,,,,,,12,,,51,0
10656,note_on,,96,0,8,,,,,,,,7,,,51,0
10752,note_on,,96,0,12,,,,,,,,12,,,39,0
10752,note_on,,0,0,12,,,,,,,,12,,,41,92
10752,note_on,,192,0,10,,,,,,,,10,,,79,0
10752,note_on,,0,0,5,,,,,,,,4,,,77,108
10752,note_on,,192,0,1,,,,,,,,0,,,79,0
10752,note_on,,0,0,1,,,,,,,,0,,,77,127
10752,note_on,,96,0,9,,,,,,,,8,,,27,0
10752,note_on,,0,0,9,,,,,,,,8,,,29,75
10752,note_on,,0,0,10,,,,,,,,10,,,77,92
10752,note_on,,192,0,5,,,,,,,,4,,,79,0
10752,note_on,,0,0,11,,,,,,,,11,,,77,92
10752,note_on,,192,0,4,,,,,,,,3,,,51,0
10752,note_on,,192,0,11,,,,,,,,11,,,79,0
10752,note_on,,96,0,7,,,,,,,,6,,,70,0
10752,note_on,,0,0,7,,,,,,,,6,,,74,92
10752,note_on,,0,0,6,,,,,,,,5,,,74,108
10752,note_on,,0,0,8,,,,,,,,7,,,41,92
10752,note_on,,0,0,3,,,,,,,,2,,,62,127
10752,note_on,,192,0,3,,,,,,,,2,,,63,0
10752,note_on,,96,0,8,,,,,,,,7,,,39,0
10752,note_on,,0,0,4,,,,,,,,3,,,53,127
10752,note_on,,96,0,6,,,,,,,,5,,,70,0
10848,note_on,,96,0,12,,,,,,,,12,,,41,0
10848,note_on,,0,0,8,,,,,,,,7,,,53,92
10848,note_on,,96,0,8,,,,,,,,7,,,41,0
10848,note_on,,0,0,12,,,,,,,,12,,,53,92
10848,note_on,,96,0,9,,,,,,,,8,,,29,0
10848,note_on,,96,0,3,,,,,,,,2,,,62,0
10848,note_on,,0,0,3,,,,,,,,2,,,60,127
10848,note_on,,96,0,6,,,,,,,,5,,,74,0
10848,note_on,,0,0,6,,,,,,,,5,,,72,108
10848,note_on,,0,0,9,,,,,,,,8,,,41,75
10848,note_on,,96,0,7,,,,,,,,6,,,74,0
10848,note_on,,0,0,7,,,,,,,,6,,,72,92
10896,note_on,,336,0,2,,,,,,,,1,,,70,0
10912,note_on,,160,0,1,,,,,,,,0,,,77,0
10912,note_on,,160,0,4,,,,,,,,3,,,53,0
10942,note_on,,94,0,3,,,,,,,,2,,,60,0
10944,note_on,,32,0,4,,,,,,,,3,,,55,127
10944,note_on,,0,0,7,,,,,,,,6,,,70,92
10944,note_on,,96,0,12,,,,,,,,12,,,53,0
10944,note_on,,48,0,2,,,,,,,,1,,,70,127
10944,note_on,,0,0,6,,,,,,,,5,,,70,108
10944,note_on,,96,0,6,,,,,,,,5,,,72,0
10944,note_on,,96,0,7,,,,,,,,6,,,72,0
10944,note_on,,0,0,12,,,,,,,,12,,,55,92
10944,note_on,,0,0,9,,,,,,,,8,,,43,75
10944,note_on,,0,0,11,,,,,,,,11,,,75,92
10944,note_on,,0,0,8,,,,,,,,7,,,55,92
10944,note_on,,192,0,11,,,,,,,,11,,,77,0
10944,note_on,,0,0,5,,,,,,,,4,,,75,108
10944,note_on,,0,0,10,,,,,,,,10,,,75,92
10944,note_on,,2,0,3,,,,,,,,2,,,58,127
10944,note_on,,96,0,9,,,,,,,,8,,,41,0
10944,note_on,,96,0,8,,,,,,,,7,,,53,0
10944,note_on,,192,0,5,,,,,,,,4,,,77,0
10944,note_on,,192,0,10,,,,,,,,10,,,77,0
10944,note_on,,32,0,1,,,,,,,,0,,,75,127
11040,note_on,,96,0,6,,,,,,,,5,,,70,0
11040,note_on,,0,0,6,,,,,,,,5,,,58,108
11040,note_on,,96,0,12,,,,,,,,12,,,55,0
11040,note_on,,0,0,8,,,,,,,,7,,,43,92
11040,note_on,,0,0,7,,,,,,,,6,,,58,92
11040,note_on,,96,0,7,,,,,,,,6,,,70,0
11040,note_on,,0,0,12,,,,,,,,12,,,43,92
11040,note_on,,96,0,9,,,,,,,,8,,,43,0
11040,note_on,,0,0,9,,,,,,,,8,,,31,75
11040,note_on,,96,0,8,,,,,,,,7,,,55,0
11104,note_on,,160,0,1,,,,,,,,0,,,75,0
11104,note_on,,160,0,4,,,,,,,,3,,,55,0
11104,note_on,,160,0,3,,,,,,,,2,,,58,0
11104,note_on,,160,0,2,,,,,,,,1,,,70,0
11136,note_on,,96,0,8,,,,,,,,7,,,43,0
11136,note_on,,0,0,8,,,,,,,,7,,,41,92
11136,note_on,,32,0,1,,,,,,,,0,,,74,127
11136,note_on,,96,0,9,,,,,,,,8,,,31,0
11136,note_on,,0,0,11,,,,,,,,11,,,74,92
11136,note_on,,96,0,7,,,,,,,,6,,,58,0
11136,note_on,,0,0,5,,,,,,,,4,,,74,108
11136,note_on,,192,0,5,,,,,,,,4,,,75,0
11136,note_on,,32,0,4,,,,,,,,3,,,53,127
11136,note_on,,0,0,10,,,,,,,,10,,,74,92
11136,note_on,,192,0,10,,,,,,,,10,,,75,0
11136,note_on,,0,0,9,,,,,,,,8,,,29,75
11136,note_on,,0,0,7,,,,,,,,6,,,65,92
11136,note_on,,32,0,2,,,,,,,,1,,,65,127
11136,note_on,,0,0,6,,,,,,,,5,,,70,108
11136,note_on,,96,0,12,,,,,,,,12,,,43,0
11136,note_on,,0,0,12,,,,,,,,12,,,41,92
11136,note_on,,192,0,11,,,,,,,,11,,,75,0
11136,note_on,,32,0,3,,,,,,,,2,,,58,127
11136,note_on,,96,0,6,,,,,,,,5,,,58,0
11232,note_on,,0,0,7,,,,,,,,6,,,67,92
11232,note_on,,96,0,7,,,,,,,,6,,,65,0
11232,note_on,,96,0,6,,,,,,,,5,,,70,0
11232,note_on,,96,0,1,,,,,,,,0,,,74,0
11232,note_on,,0,0,1,,,,,,,,0,,,75,127
11232,note_on,,0,0,9,,,,,,,,8,,,27,75
11232,note_on,,96,0,8,,,,,,,,7,,,41,0
11232,note_on,,0,0,8,,,,,,,,7,,,39,92
11232,note_on,,0,0,5,,,,,,,,4,,,75,108
11232,note_on,,96,0,12,,,,,,,,12,,,41,0
11232,note_on,,96,0,11,,,,,,,,11,,,74,0
11232,note_on,,0,0,12,,,,,,,,12,,,39,92
11232,note_on,,96,0,10,,,,,,,,10,,,74,0
11232,note_on,,0,0,6,,,,,,,,5,,,72,108
11232,note_on,,96,0,9,,,,,,,,8,,,29,0
11232,note_on,,96,0,5,,,,,,,,4,,,74,0
11232,note_on,,0,0,10,,,,,,,,10,,,75,92
11232,note_on,,0,0,11,,,,,,,,11,,,75,92
11328,note_on,,192,0,3,,,,,,,,2,,,58,0
11328,note_on,,96,0,10,,,,,,,,10,,,75,0
11328,note_on,,0,0,11,,,,,,,,11,,,72,92
11328,note_on,,0,0,5,,,,,,,,4,,,72,108
11328,note_on,,0,0,3,,,,,,,,2,,,57,127
11328,note_on,,96,0,5,,,,,,,,4,,,75,0
11328,note_on,,96,0,11,,,,,,,,11,,,75,0
11328,note_on,,0,0,10,,,,,,,,10,,,72,92
11328,note_on,,96,0,8,,,,,,,,7,,,39,0
11328,note_on,,0,0,6,,,,,,,,5,,,69,108
11328,note_on,,96,0,6,,,,,,,,5,,,72,0
11328,note_on,,0,0,12,,,,,,,,12,,,41,92
11328,note_on,,0,0,8,,,,,,,,7,,,41,92
11328,note_on,,96,0,12,,,,,,,,12,,,39,0
11328,note_on,,96,0,7,,,,,,,,6,,,67,0
11328,note_on,,0,0,7,,,,,,,,6,,,65,92
11328,note_on,,0,0,1,,,,,,,,0,,,72,127
11328,note_on,,96,0,1,,,,,,,,0,,,75,0
11328,note_on,,96,0,9,,,,,,,,8,,,27,0
11328,note_on,,0,0,9,,,,,,,,8,,,29,75
11424,note_on,,96,0,8,,,,,,,,7,,,41,0
11424,note_on,,0,0,12,,,,,,,,12,,,51,92
11424,note_on,,0,0,8,,,,,,,,7,,,51,92
11424,note_on,,96,0,12,,,,,,,,12,,,41,0
11424,note_on,,96,0,9,,,,,,,,8,,,29,0
11424,note_on,,0,0,9,,,,,,,,8,,,39,75
11472,note_on,,336,0,2,,,,,,,,1,,,65,0
11472,note_on,,336,0,4,,,,,,,,3,,,53,0
11488,note_on,,160,0,3,,,,,,,,2,,,57,0
11520,note_on,,0,0,9,,,,,,,,8,,,41,75
11520,note_on,,0,0,8,,,,,,,,7,,,53,92
11520,note_on,,96,0,9,,,,,,,,8,,,39,0
11520,note_on,,96,0,8,,,,,,,,7,,,51,0
11520,note_on,,48,0,4,,,,,,,,3,,,53,127
11520,note_on,,96,0,12,,,,,,,,12,,,51,0
11520,note_on,,32,0,3,,,,,,,,2,,,63,127
11520,note_on,,0,0,7,,,,,,,,6,,,65,92
11520,note_on,,192,0,7,,,,,,,,6,,,65,0
11520,note_on,,48,0,2,,,,,,,,1,,,65,127
11520,note_on,,0,0,12,,,,,,,,12,,,53,92
11584,note_on,,256,0,1,,,,,,,,0,,,72,0
11616,note_on,,96,0,12,,,,,,,,12,,,53,0
11616,note_on,,288,0,6,,,,,,,,5,,,69,0
11616,note_on,,288,0,11,,,,,,,,11,,,72,0
11616,note_on,,0,0,11,,,,,,,,11,,,70,92
11616,note_on,,0,0,9,,,,,,,,8,,,29,75
11616,note_on,,0,0,5,,,,,,,,4,,,70,108
11616,note_on,,288,0,5,,,,,,,,4,,,72,0
11616,note_on,,96,0,9,,,,,,,,8,,,41,0
11616,note_on,,96,0,8,,,,,,,,7,,,53,0
11616,note_on,,0,0,12,,,,,,,,12,,,41,92
11616,note_on,,32,0,1,,,,,,,,0,,,70,127
11616,note_on,,0,0,8,,,,,,,,7,,,41,92
11616,note_on,,0,0,6,,,,,,,,5,,,63,108
11616,note_on,,0,0,10,,,,,,,,10,,,70,92
11616,note_on,,288,0,10,,,,,,,,10,,,72,0
11680,note_on,,160,0,4,,,,,,,,3,,,53,0
11680,note_on,,160,0,3,,,,,,,,2,,,63,0
11680,note_on,,160,0,2,,,,,,,,1,,,65,0
11710,note_on,,94,0,1,,,,,,,,0,,,70,0
11712,note_on,,0,0,11,,,,,,,,11,,,70,92
11712,note_on,,0,0,5,,,,,,,,4,,,70,108
11712,note_on,,96,0,5,,,,,,,,4,,,70,0
11712,note_on,,0,0,7,,,,,,,,6,,,65,92
11712,note_on,,2,0,1,,,,,,,,0,,,70,127
11712,note_on,,96,0,10,,,,,,,,10,,,70,0
11712,note_on,,0,0,6,,,,,,,,5,,,62,108
11712,note_on,,96,0,8,,,,,,,,7,,,41,0
11712,note_on,,0,0,8,,,,,,,,7,,,46,92
11712,note_on,,96,0,11,,,,,,,,11,,,70,0
11712,note_on,,192,0,7,,,,,,,,6,,,65,0
11712,note_on,,0,0,10,,,,,,,,10,,,70,92
11712,note_on,,96,0,6,,,,,,,,5,,,63,0
11712,note_on,,32,0,2,,,,,,,,1,,,65,127
11712,note_on,,0,0,12,,,,,,,,12,,,46,92
11712,note_on,,96,0,12,,,,,,,,12,,,41,0
11712,note_on,,96,0,9,,,,,,,,8,,,29,0
11712,note_on,,0,0,9,,,,,,,,8,,,34,75
11712,note_on,,32,0,3,,,,,,,,2,,,62,127
11712,note_on,,32,0,4,,,,,,,,3,,,46,127
11808,note_on,,0,0,12,,,,,,,,12,,,53,92
11808,note_on,,96,0,9,,,,,,,,8,,,34,0
11808,note_on,,0,0,9,,,,,,,,8,,,41,75
11808,note_on,,96,0,12,,,,,,,,12,,,46,0
11808,note_on,,0,0,8,,,,,,,,7,,,53,92
11808,note_on,,96,0,8,,,,,,,,7,,,46,0
11904,note_on,,96,0,8,,,,,,,,7,,,53,0
11904,note_on,,96,0,9,,,,,,,,8,,,41,0
11904,note_on,,0,0,8,,,,,,,,7,,,58,92
11904,note_on,,96,0,12,,,,,,,,12,,,53,0
11904,note_on,,0,0,12,,,,,,,,12,,,58,92
11904,note_on,,0,0,9,,,,,,,,8,,,46,75
12000,note_on,,0,0,8,,,,,,,,7,,,60,92
12000,note_on,,96,0,8,,,,,,,,7,,,58,0
12000,note_on,,96,0,12,,,,,,,,12,,,58,0
12000,note_on,,0,0,12,,,,,,,,12,,,60,92
12000,note_on,,96,0,9,,,,,,,,8,,,46,0
12000,note_on,,0,0,9,,,,,,,,8,,,48,75
12048,note_on,,336,0,2,,,,,,,,1,,,65,0
12048,note_on,,336,0,1,,,,,,,,0,,,70,0
12048,note_on,,336,0,4,,,,,,,,3,,,46,0
12048,note_on,,336,0,3,,,,,,,,2,,,62,0
12096,note_on,,384,0,5,,,,,,,,4,,,70,0
12096,note_on,,96,0,9,,,,,,,,8,,,48,0
12096,note_on,,384,0,6,,,,,,,,5,,,62,0
12096,note_on,,0,0,9,,,,,,,,8,,,50,75
12096,note_on,,384,0,11,,,,,,,,11,,,70,0
12096,note_on,,0,0,8,,,,,,,,7,,,62,92
12096,note_on,,384,0,10,,,,,,,,10,,,70,0
12096,note_on,,96,0,12,,,,,,,,12,,,60,0
12096,note_on,,96,0,8,,,,,,,,7,,,60,0
12096,note_on,,384,0,7,,,,,,,,6,,,65,0
12096,note_on,,0,0,12,,,,,,,,12,,,62,92
12192,note_on,,96,0,10,,,,,,,,10,,,74,92
12192,note_on,,0,0,12,,,,,,,,12,,,58,92
12192,note_on,,96,0,6,,,,,,,,5,,,65,108
12192,note_on,,0,0,8,,,,,,,,7,,,58,92
12192,note_on,,96,0,8,,,,,,,,7,,,62,0
12192,note_on,,96,0,7,,,,,,,,6,,,70,92
12192,note_on,,96,0,5,,,,,,,,4,,,74,108
12192,note_on,,96,0,11,,,,,,,,11,,,74,92
12192,note_on,,0,0,9,,,,,,,,8,,,46,75
12192,note_on,,96,0,9,,,,,,,,8,,,50,0
12192,note_on,,96,0,12,,,,,,,,12,,,62,0
12288,note_on,,0,0,8,,,,,,,,7,,,60,92
12288,note_on,,0,0,6,,,,,,,,5,,,72,108
12288,note_on,,96,0,8,,,,,,,,7,,,58,0
12288,note_on,,96,0,10,,,,,,,,10,,,74,0
12288,note_on,,96,0,11,,,,,,,,11,,,74,0
12288,note_on,,0,0,11,,,,,,,,11,,,75,92
12288,note_on,,96,0,6,,,,,,,,5,,,65,0
12288,note_on,,0,0,10,,,,,,,,10,,,75,92
12288,note_on,,0,0,12,,,,,,,,12,,,60,92
12288,note_on,,0,0,5,,,,,,,,4,,,75,108
12288,note_on,,0,0,7,,,,,,,,6,,,67,92
12288,note_on,,0,0,9,,,,,,,,8,,,48,75
12288,note_on,,96,0,9,,,,,,,,8,,,46,0
12288,note_on,,96,0,12,,,,,,,,12,,,58,0
12288,note_on,,96,0,5,,,,,,,,4,,,74,0
12288,note_on,,96,0,7,,,,,,,,6,,,70,0
12384,note_on,,96,0,12,,,,,,,,12,,,60,0
12384,note_on,,96,0,8,,,,,,,,7,,,60,0
12384,note_on,,0,0,8,,,,,,,,7,,,58,92
12384,note_on,,0,0,12,,,,,,,,12,,,58,92
12384,note_on,,96,0,9,,,,,,,,8,,,48,0
12384,note_on,,0,0,9,,,,,,,,8,,,46,75
12480,note_on,,192,0,10,,,,,,,,10,,,75,0
12480,note_on,,192,0,7,,,,,,,,6,,,67,0
12480,note_on,,0,0,7,,,,,,,,6,,,57,92
12480,note_on,,0,0,11,,,,,,,,11,,,63,92
12480,note_on,,192,0,11,,,,,,,,11,,,75,0
12480,note_on,,96,0,12,,,,,,,,12,,,58,0
12480,note_on,,0,0,9,,,,,,,,8,,,45,75
12480,note_on,,0,0,12,,,,,,,,12,,,57,92
12480,note_on,,0,0,10,,,,,,,,10,,,63,92
12480,note_on,,96,0,9,,,,,,,,8,,,46,0
12480,note_on,,192,0,5,,,,,,,,4,,,75,0
12480,note_on,,0,0,5,,,,,,,,4,,,63,108
12480,note_on,,96,0,8,,,,,,,,7,,,58,0
12480,note_on,,0,0,8,,,,,,,,7,,,57,92
12480,note_on,,192,0,6,,,,,,,,5,,,72,0
12480,note_on,,0,0,6,,,,,,,,5,,,60,108
12576,note_on,,0,0,12,,,,,,,,12,,,55,92
12576,note_on,,96,0,12,,,,,,,,12,,,57,0
12576,note_on,,0,0,9,,,,,,,,8,,,43,75
12576,note_on,,0,0,8,,,,,,,,7,,,55,92
12576,note_on,,96,0,9,,,,,,,,8,,,45,0
12576,note_on,,96,0,8,,,,,,,,7,,,57,0
12672,note_on,,96,0,8,,,,,,,,7,,,55,0
12672,note_on,,0,0,8,,,,,,,,7,,,57,92
12672,note_on,,192,0,11,,,,,,,,11,,,63,0
12672,note_on,,192,0,10,,,,,,,,10,,,63,0
12672,note_on,,192,0,7,,,,,,,,6,,,57,0
12672,note_on,,0,0,12,,,,,,,,12,,,57,92
12672,note_on,,96,0,12,,,,,,,,12,,,55,0
12672,note_on,,192,0,5,,,,,,,,4,,,63,0
12672,note_on,,192,0,6,,,,,,,,5,,,60,0
12672,note_on,,96,0,9,,,,,,,,8,,,43,0
12672,note_on,,0,0,9,,,,,,,,8,,,45,75
12768,note_on,,96,0,12,,,,,,,,12,,,57,0
12768,note_on,,96,0,5,,,,,,,,4,,,75,108
12768,note_on,,0,0,8,,,,,,,,7,,,53,92
12768,note_on,,96,0,9,,,,,,,,8,,,45,0
12768,note_on,,0,0,12,,,,,,,,12,,,53,92
12768,note_on,,96,0,10,,,,,,,,10,,,75,92
12768,note_on,,0,0,9,,,,,,,,8,,,41,75
12768,note_on,,96,0,8,,,,,,,,7,,,57,0
12768,note_on,,96,0,6,,,,,,,,5,,,72,108
12768,note_on,,96,0,11,,,,,,,,11,,,75,92
12768,note_on,,96,0,7,,,,,,,,6,,,65,92
12864,note_on,,0,0,6,,,,,,,,5,,,70,108
12864,note_on,,96,0,6,,,,,,,,5,,,72,0
12864,note_on,,96,0,5,,,,,,,,4,,,75,0
12864,note_on,,0,0,9,,,,,,,,8,,,46,75
12864,note_on,,0,0,10,,,,,,,,10,,,74,92
12864,note_on,,96,0,10,,,,,,,,10,,,75,0
12864,note_on,,96,0,9,,,,,,,,8,,,41,0
12864,note_on,,0,0,5,,,,,,,,4,,,74,108
12864,note_on,,0,0,8,,,,,,,,7,,,58,92
12864,note_on,,0,0,11,,,,,,,,11,,,74,92
12864,note_on,,96,0,8,,,,,,,,7,,,53,0
12864,note_on,,0,0,7,,,,,,,,6,,,65,92
12864,note_on,,96,0,7,,,,,,,,6,,,65,0
12864,note_on,,96,0,12,,,,,,,,12,,,53,0
12864,note_on,,0,0,12,,,,,,,,12,,,58,92
12864,note_on,,96,0,11,,,,,,,,11,,,75,0
12960,note_on,,96,0,8,,,,,,,,7,,,58,0
12960,note_on,,0,0,8,,,,,,,,7,,,57,92
12960,note_on,,0,0,9,,,,,,,,8,,,45,75
12960,note_on,,96,0,9,,,,,,,,8,,,46,0
12960,note_on,,0,0,12,,,,,,,,12,,,57,92
12960,note_on,,96,0,12,,,,,,,,12,,,58,0
13056,note_on,,192,0,10,,,,,,,,10,,,74,0
13056,note_on,,0,0,5,,,,,,,,4,,,62,108
13056,note_on,,0,0,12,,,,,,,,12,,,55,92
13056,note_on,,96,0,12,,,,,,,,12,,,57,0
13056,note_on,,96,0,9,,,,,,,,8,,,45,0
13056,note_on,,192,0,6,,,,,,,,5,,,70,0
13056,note_on,,192,0,11,,,,,,,,11,,,74,0
13056,note_on,,192,0,5,,,,,,,,4,,,74,0
13056,note_on,,0,0,11,,,,,,,,11,,,62,92
13056,note_on,,0,0,6,,,,,,,,5,,,58,108
13056,note_on,,96,0,8,,,,,,,,7,,,57,0
13056,note_on,,0,0,10,,,,,,,,10,,,62,92
13056,note_on,,192,0,7,,,,,,,,6,,,65,0
13056,note_on,,0,0,7,,,,,,,,6,,,55,92
13056,note_on,,0,0,9,,,,,,,,8,,,43,75
13056,note_on,,0,0,8,,,,,,,,7,,,55,92
13152,note_on,,0,0,12,,,,,,,,12,,,53,92
13152,note_on,,96,0,12,,,,,,,,12,,,55,0
13152,note_on,,96,0,9,,,,,,,,8,,,43,0
13152,note_on,,0,0,8,,,,,,,,7,,,53,92
13152,note_on,,0,0,9,,,,,,,,8,,,41,75
13152,note_on,,96,0,8,,,,,,,,7,,,55,0
13248,note_on,,0,0,8,,,,,,,,7,,,55,92
13248,note_on,,96,0,9,,,,,,,,8,,,41,0
13248,note_on,,96,0,8,,,,,,,,7,,,53,0
13248,note_on,,192,0,10,,,,,,,,10,,,62,0
13248,note_on,,192,0,6,,,,,,,,5,,,58,0
13248,note_on,,0,0,12,,,,,,,,12,,,55,92
13248,note_on,,192,0,11,,,,,,,,11,,,62,0
13248,note_on,,96,0,12,,,,,,,,12,,,53,0
13248,note_on,,192,0,7,,,,,,,,6,,,55,0
13248,note_on,,192,0,5,,,,,,,,4,,,62,0
13248,note_on,,0,0,9,,,,,,,,8,,,43,75
13344,note_on,,96,0,10,,,,,,,,10,,,74,92
13344,note_on,,0,0,12,,,,,,,,12,,,50,92
13344,note_on,,96,0,5,,,,,,,,4,,,74,108
13344,note_on,,96,0,11,,,,,,,,11,,,74,92
13344,note_on,,0,0,9,,,,,,,,8,,,38,75
13344,note_on,,96,0,9,,,,,,,,8,,,43,0
13344,note_on,,0,0,8,,,,,,,,7,,,50,92
13344,note_on,,96,0,8,,,,,,,,7,,,55,0
13344,note_on,,96,0,12,,,,,,,,12,,,55,0
13344,note_on,,96,0,7,,,,,,,,6,,,58,92
13344,note_on,,96,0,6,,,,,,,,5,,,65,108
13440,note_on,,0,0,5,,,,,,,,4,,,72,108
13440,note_on,,96,0,9,,,,,,,,8,,,38,0
13440,note_on,,0,0,9,,,,,,,,8,,,39,75
13440,note_on,,0,0,12,,,,,,,,12,,,51,92
13440,note_on,,96,0,5,,,,,,,,4,,,74,0
13440,note_on,,0,0,10,,,,,,,,10,,,72,92
13440,note_on,,96,0,10,,,,,,,,10,,,74,0
13440,note_on,,96,0,7,,,,,,,,6,,,58,0
13440,note_on,,0,0,7,,,,,,,,6,,,67,92
13440,note_on,,0,0,8,,,,,,,,7,,,51,92
13440,note_on,,96,0,8,,,,,,,,7,,,50,0
13440,note_on,,96,0,12,,,,,,,,12,,,50,0
13440,note_on,,96,0,6,,,,,,,,5,,,65,0
13440,note_on,,0,0,6,,,,,,,,5,,,63,108
13440,note_on,,0,0,11,,,,,,,,11,,,72,92
13440,note_on,,96,0,11,,,,,,,,11,,,74,0
13536,note_on,,96,0,12,,,,,,,,12,,,51,0
13536,note_on,,96,0,5,,,,,,,,4,,,72,0
13536,note_on,,0,0,6,,,,,,,,5,,,62,108
13536,note_on,,96,0,7,,,,,,,,6,,,67,0
13536,note_on,,96,0,6,,,,,,,,5,,,63,0
13536,note_on,,0,0,12,,,,,,,,12,,,46,92
13536,note_on,,0,0,7,,,,,,,,6,,,65,92
13536,note_on,,96,0,10,,,,,,,,10,,,72,0
13536,note_on,,0,0,10,,,,,,,,10,,,70,92
13536,note_on,,0,0,11,,,,,,,,11,,,70,92
13536,note_on,,96,0,11,,,,,,,,11,,,72,0
13536,note_on,,0,0,8,,,,,,,,7,,,46,92
13536,note_on,,96,0,8,,,,,,,,7,,,51,0
13536,note_on,,0,0,9,,,,,,,,8,,,34,75
13536,note_on,,96,0,9,,,,,,,,8,,,39,0
13536,note_on,,0,0,5,,,,,,,,4,,,70,108
13632,note_on,,96,0,9,,,,,,,,8,,,34,0
13632,note_on,,96,0,12,,,,,,,,12,,,46,0
13632,note_on,,0,0,12,,,,,,,,12,,,53,92
13632,note_on,,0,0,9,,,,,,,,8,,,41,75
13632,note_on,,0,0,6,,,,,,,,5,,,60,108
13632,note_on,,96,0,7,,,,,,,,6,,,65,0
13632,note_on,,0,0,10,,,,,,,,10,,,69,92
13632,note_on,,96,0,8,,,,,,,,7,,,46,0
13632,note_on,,96,0,10,,,,,,,,10,,,70,0
13632,note_on,,0,0,7,,,,,,,,6,,,65,92
13632,note_on,,96,0,6,,,,,,,,5,,,62,0
13632,note_on,,0,0,8,,,,,,,,7,,,53,92
13632,note_on,,96,0,11,,,,,,,,11,,,70,0
13632,note_on,,0,0,11,,,,,,,,11,,,69,92
13632,note_on,,0,0,5,,,,,,,,4,,,69,108
13632,note_on,,96,0,5,,,,,,,,4,,,70,0
13728,note_on,,0,0,8,,,,,,,,7,,,51,92
13728,note_on,,96,0,8,,,,,,,,7,,,53,0
13728,note_on,,96,0,9,,,,,,,,8,,,41,0
13728,note_on,,0,0,12,,,,,,,,12,,,51,92
13728,note_on,,0,0,9,,,,,,,,8,,,39,75
13728,note_on,,96,0,12,,,,,,,,12,,,53,0
13824,note_on,,96,0,8,,,,,,,,7,,,51,0
13824,note_on,,96,0,12,,,,,,,,12,,,51,0
13824,note_on,,0,0,12,,,,,,,,12,,,53,92
13824,note_on,,96,0,9,,,,,,,,8,,,39,0
13824,note_on,,0,0,9,,,,,,,,8,,,41,75
13824,note_on,,0,0,8,,,,,,,,7,,,53,92
13920,note_on,,96,0,8,,,,,,,,7,,,53,0
13920,note_on,,96,0,9,,,,,,,,8,,,41,0
13920,note_on,,0,0,8,,,,,,,,7,,,41,92
13920,note_on,,0,0,7,,,,,,,,6,,,65,92
13920,note_on,,288,0,7,,,,,,,,6,,,65,0
13920,note_on,,0,0,12,,,,,,,,12,,,41,92
13920,note_on,,96,0,12,,,,,,,,12,,,53,0
13920,note_on,,288,0,5,,,,,,,,4,,,69,0
13920,note_on,,0,0,5,,,,,,,,4,,,70,108
13920,note_on,,0,0,10,,,,,,,,10,,,70,92
13920,note_on,,0,0,11,,,,,,,,11,,,70,92
13920,note_on,,288,0,11,,,,,,,,11,,,69,0
13920,note_on,,0,0,6,,,,,,,,5,,,65,108
13920,note_on,,288,0,6,,,,,,,,5,,,60,0
13920,note_on,,0,0,9,,,,,,,,8,,,29,75
13920,note_on,,288,0,10,,,,,,,,10,,,69,0
14016,note_on,,96,0,12,,,,,,,,12,,,41,0
14016,note_on,,0,0,12,,,,,,,,12,,,46,92
14016,note_on,,0,0,9,,,,,,,,8,,,34,75
14016,note_on,,96,0,11,,,,,,,,11,,,70,0
14016,note_on,,0,0,11,,,,,,,,11,,,70,92
14016,note_on,,0,0,10,,,,,,,,10,,,70,92
14016,note_on,,96,0,10,,,,,,,,10,,,70,0
14016,note_on,,0,0,6,,,,,,,,5,,,62,108
14016,note_on,,0,0,8,,,,,,,,7,,,46,92
14016,note_on,,96,0,8,,,,,,,,7,,,41,0
14016,note_on,,96,0,6,,,,,,,,5,,,65,0
14016,note_on,,96,0,7,,,,,,,,6,,,65,0
14016,note_on,,0,0,5,,,,,,,,4,,,70,108
14016,note_on,,96,0,5,,,,,,,,4,,,70,0
14016,note_on,,96,0,9,,,,,,,,8,,,29,0
14016,note_on,,0,0,7,,,,,,,,6,,,65,92
14208,note_on,,192,0,5,,,,,,,,4,,,70,0
14208,note_on,,192,0,10,,,,,,,,10,,,70,0
14208,note_on,,192,0,11,,,,,,,,11,,,70,0
14304,note_on,,0,0,7,,,,,,,,6,,,66,92
14304,note_on,,0,0,6,,,,,,,,5,,,72,108
14304,note_on,,288,0,12,,,,,,,,12,,,46,0
14304,note_on,,288,0,6,,,,,,,,5,,,62,0
14304,note_on,,288,0,7,,,,,,,,6,,,65,0
14304,note_on,,288,0,9,,,,,,,,8,,,34,0
14304,note_on,,0,0,9,,,,,,,,8,,,45,75
14304,note_on,,0,0,8,,,,,,,,7,,,57,92
14304,note_on,,288,0,8,,,,,,,,7,,,46,0
14304,note_on,,0,0,12,,,,,,,,12,,,57,92
14400,note_on,,2352,0,3,,,,,,,,2,,,62,127
14400,note_on,,192,0,10,,,,,,,,10,,,74,92
14400,note_on,,96,0,6,,,,,,,,5,,,72,0
14400,note_on,,0,0,6,,,,,,,,5,,,70,108
14400,note_on,,0,0,7,,,,,,,,6,,,67,92
14400,note_on,,96,0,7,,,,,,,,6,,,66,0
14400,note_on,,192,0,5,,,,,,,,4,,,74,108
14400,note_on,,2352,0,2,,,,,,,,1,,,70,127
14400,note_on,,0,0,9,,,,,,,,8,,,43,75
14400,note_on,,2352,0,1,,,,,,,,0,,,74,127
14400,note_on,,96,0,9,,,,,,,,8,,,45,0
14400,note_on,,192,0,11,,,,,,,,11,,,74,92
14400,note_on,,0,0,12,,,,,,,,12,,,55,92
14400,note_on,,2352,0,4,,,,,,,,3,,,55,127
14400,note_on,,96,0,12,,,,,,,,12,,,57,0
14400,note_on,,96,0,8,,,,,,,,7,,,57,0
14400,note_on,,0,0,8,,,,,,,,7,,,55,92
14496,note_on,,96,0,9,,,,,,,,8,,,43,0
14496,note_on,,0,0,9,,,,,,,,8,,,42,75
14496,note_on,,0,0,8,,,,,,,,7,,,54,92
14496,note_on,,96,0,8,,,,,,,,7,,,55,0
14496,note_on,,96,0,12,,,,,,,,12,,,55,0
14496,note_on,,0,0,7,,,,,,,,6,,,69,92
14496,note_on,,96,0,7,,,,,,,,6,,,67,0
14496,note_on,,0,0,12,,,,,,,,12,,,54,92
14496,note_on,,0,0,6,,,,,,,,5,,,69,108
14496,note_on,,96,0,6,,,,,,,,5,,,70,0
14560,note_on,,160,0,1,,,,,,,,0,,,74,0
14560,note_on,,160,0,4,,,,,,,,3,,,55,0
14560,note_on,,160,0,3,,,,,,,,2,,,62,0
14560,note_on,,160,0,2,,,,,,,,1,,,70,0
14592,note_on,,192,0,11,,,,,,,,11,,,74,0
14592,note_on,,96,0,6,,,,,,,,5,,,69,0
14592,note_on,,0,0,6,,,,,,,,5,,,70,108
14592,note_on,,96,0,8,,,,,,,,7,,,54,0
14592,note_on,,0,0,8,,,,,,,,7,,,55,92
14592,note_on,,0,0,5,,,,,,,,4,,,79,108
14592,note_on,,192,0,10,,,,,,,,10,,,74,0
14592,note_on,,0,0,10,,,,,,,,10,,,79,92
14592,note_on,,0,0,11,,,,,,,,11,,,79,92
14592,note_on,,96,0,7,,,,,,,,6,,,69,0
14592,note_on,,192,0,5,,,,,,,,4,,,74,0
14592,note_on,,0,0,7,,,,,,,,6,,,62,92
14592,note_on,,32,0,2,,,,,,,,1,,,70,127
14592,note_on,,0,0,9,,,,,,,,8,,,43,75
14592,note_on,,96,0,9,,,,,,,,8,,,42,0
14592,note_on,,32,0,3,,,,,,,,2,,,62,127
14592,note_on,,0,0,12,,,,,,,,12,,,55,92
14592,note_on,,32,0,1,,,,,,,,0,,,79,127
14592,note_on,,96,0,12,,,,,,,,12,,,54,0
14592,note_on,,32,0,4,,,,,,,,3,,,55,127
14688,note_on,,0,0,9,,,,,,,,8,,,45,75
14688,note_on,,96,0,6,,,,,,,,5,,,70,0
14688,note_on,,0,0,6,,,,,,,,5,,,72,108
14688,note_on,,96,0,12,,,,,,,,12,,,55,0
14688,note_on,,0,0,12,,,,,,,,12,,,57,92
14688,note_on,,0,0,8,,,,,,,,7,,,57,92
14688,note_on,,96,0,8,,,,,,,,7,,,55,0
14688,note_on,,96,0,9,,,,,,,,8,,,43,0
14784,note_on,,96,0,8,,,,,,,,7,,,57,0
14784,note_on,,0,0,12,,,,,,,,12,,,58,92
14784,note_on,,0,0,8,,,,,,,,7,,,58,92
14784,note_on,,0,0,9,,,,,,,,8,,,46,75
14784,note_on,,96,0,9,,,,,,,,8,,,45,0
14784,note_on,,96,0,6,,,,,,,,5,,,72,0
14784,note_on,,0,0,6,,,,,,,,5,,,74,108
14784,note_on,,96,0,12,,,,,,,,12,,,57,0
14880,note_on,,0,0,6,,,,,,,,5,,,75,108
14880,note_on,,0,0,8,,,,,,,,7,,,60,92
14880,note_on,,96,0,6,,,,,,,,5,,,74,0
14880,note_on,,96,0,8,,,,,,,,7,,,58,0
14880,note_on,,96,0,9,,,,,,,,8,,,46,0
14880,note_on,,0,0,9,,,,,,,,8,,,48,75
14880,note_on,,96,0,12,,,,,,,,12,,,58,0
14880,note_on,,0,0,12,,,,,,,,12,,,60,92
14928,note_on,,336,0,2,,,,,,,,1,,,70,0
14928,note_on,,336,0,4,,,,,,,,3,,,55,0
14928,note_on,,336,0,1,,,,,,,,0,,,79,0
14928,note_on,,336,0,3,,,,,,,,2,,,62,0
14976,note_on,,384,0,5,,,,,,,,4,,,79,0
14976,note_on,,48,0,2,,,,,,,,1,,,69,127
14976,note_on,,0,0,7,,,,,,,,6,,,62,92
14976,note_on,,0,0,11,,,,,,,,11,,,78,92
14976,note_on,,0,0,5,,,,,,,,4,,,78,108
14976,note_on,,0,0,6,,,,,,,,5,,,69,108
14976,note_on,,96,0,6,,,,,,,,5,,,75,0
14976,note_on,,96,0,8,,,,,,,,7,,,60,0
14976,note_on,,96,0,12,,,,,,,,12,,,60,0
14976,note_on,,0,0,12,,,,,,,,12,,,62,92
14976,note_on,,48,0,4,,,,,,,,3,,,50,127
14976,note_on,,384,0,11,,,,,,,,11,,,79,0
14976,note_on,,0,0,9,,,,,,,,8,,,50,75
14976,note_on,,96,0,9,,,,,,,,8,,,48,0
14976,note_on,,384,0,10,,,,,,,,10,,,79,0
14976,note_on,,48,0,1,,,,,,,,0,,,78,127
14976,note_on,,48,0,3,,,,,,,,2,,,62,127
14976,note_on,,0,0,10,,,,,,,,10,,,78,92
14976,note_on,,0,0,8,,,,,,,,7,,,62,92
14976,note_on,,384,0,7,,,,,,,,6,,,62,0
15072,note_on,,0,0,8,,,,,,,,7,,,50,92
15072,note_on,,0,0,9,,,,,,,,8,,,38,75
15072,note_on,,96,0,12,,,,,,,,12,,,62,0
15072,note_on,,0,0,12,,,,,,,,12,,,50,92
15072,note_on,,0,0,6,,,,,,,,5,,,74,108
15072,note_on,,96,0,6,,,,,,,,5,,,69,0
15072,note_on,,96,0,9,,,,,,,,8,,,50,0
15072,note_on,,96,0,8,,,,,,,,7,,,62,0
15136,note_on,,160,0,4,,,,,,,,3,,,50,0
15136,note_on,,160,0,2,,,,,,,,1,,,69,0
15136,note_on,,160,0,1,,,,,,,,0,,,78,0
15136,note_on,,160,0,3,,,,,,,,2,,,62,0
15168,note_on,,192,0,5,,,,,,,,4,,,78,0
15168,note_on,,0,0,5,,,,,,,,4,,,79,108
15168,note_on,,192,0,10,,,,,,,,10,,,78,0
15168,note_on,,32,0,4,,,,,,,,3,,,51,127
15168,note_on,,0,0,7,,,,,,,,6,,,58,92
15168,note_on,,192,0,7,,,,,,,,6,,,62,0
15168,note_on,,32,0,1,,,,,,,,0,,,79,127
15168,note_on,,32,0,3,,,,,,,,2,,,58,127
15168,note_on,,0,0,10,,,,,,,,10,,,79,92
15168,note_on,,0,0,11,,,,,,,,11,,,79,92
15168,note_on,,96,0,12,,,,,,,,12,,,50,0
15168,note_on,,0,0,12,,,,,,,,12,,,51,92
15168,note_on,,96,0,9,,,,,,,,8,,,38,0
15168,note_on,,32,0,2,,,,,,,,1,,,67,127
15168,note_on,,0,0,9,,,,,,,,8,,,39,75
15168,note_on,,192,0,11,,,,,,,,11,,,78,0
15168,note_on,,96,0,6,,,,,,,,5,,,74,0
15168,note_on,,0,0,6,,,,,,,,5,,,67,108
15168,note_on,,96,0,8,,,,,,,,7,,,50,0
15168,note_on,,0,0,8,,,,,,,,7,,,51,92
15264,note_on,,96,0,9,,,,,,,,8,,,39,0
15264,note_on,,0,0,7,,,,,,,,6,,,57,92
15264,note_on,,96,0,7,,,,,,,,6,,,58,0
15264,note_on,,96,0,6,,,,,,,,5,,,67,0
15264,note_on,,0,0,8,,,,,,,,7,,,53,92
15264,note_on,,96,0,8,,,,,,,,7,,,51,0
15264,note_on,,0,0,9,,,,,,,,8,,,41,75
15264,note_on,,0,0,6,,,,,,,,5,,,69,108
15264,note_on,,0,0,12,,,,,,,,12,,,53,92
15264,note_on,,96,0,12,,,,,,,,12,,,51,0
15360,note_on,,0,0,8,,,,,,,,7,,,55,92
15360,note_on,,96,0,7,,,,,,,,6,,,57,0
15360,note_on,,0,0,9,,,,,,,,8,,,43,75
15360,note_on,,96,0,9,,,,,,,,8,,,41,0
15360,note_on,,96,0,8,,,,,,,,7,,,53,0
15360,note_on,,0,0,7,,,,,,,,6,,,55,92
15360,note_on,,96,0,12,,,,,,,,12,,,53,0
15360,note_on,,0,0,12,,,,,,,,12,,,55,92
15360,note_on,,96,0,6,,,,,,,,5,,,69,0
15360,note_on,,0,0,6,,,,,,,,5,,,70,108
15456,note_on,,0,0,6,,,,,,,,5,,,72,108
15456,note_on,,0,0,9,,,,,,,,8,,,45,75
15456,note_on,,96,0,6,,,,,,,,5,,,70,0
15456,note_on,,96,0,9,,,,,,,,8,,,43,0
15456,note_on,,96,0,8,,,,,,,,7,,,55,0
15456,note_on,,0,0,12,,,,,,,,12,,,57,92
15456,note_on,,96,0,12,,,,,,,,12,,,55,0
15456,note_on,,0,0,8,,,,,,,,7,,,57,92
15504,note_on,,336,0,1,,,,,,,,0,,,79,0
15504,note_on,,336,0,4,,,,,,,,3,,,51,0
15504,note_on,,336,0,3,,,,,,,,2,,,58,0
15504,note_on,,336,0,2,,,,,,,,1,,,67,0
15552,note_on,,96,0,8,,,,,,,,7,,,57,0
15552,note_on,,96,0,9,,,,,,,,8,,,45,0
15552,note_on,,0,0,10,,,,,,,,10,,,74,92
15552,note_on,,0,0,9,,,,,,,,8,,,46,75
15552,note_on,,192,0,7,,,,,,,,6,,,55,0
15552,note_on,,96,0,6,,,,,,,,5,,,72,0
15552,note_on,,0,0,12,,,,,,,,12,,,58,92
15552,note_on,,96,0,12,,,,,,,,12,,,57,0
15552,note_on,,0,0,11,,,,,,,,11,,,74,92
15552,note_on,,0,0,6,,,,,,,,5,,,74,108
15552,note_on,,0,0,8,,,,,,,,7,,,58,92
15552,note_on,,0,0,7,,,,,,,,6,,,67,92
15552,note_on,,384,0,11,,,,,,,,11,,,79,0
15552,note_on,,48,0,3,,,,,,,,2,,,62,127
15552,note_on,,0,0,5,,,,,,,,4,,,74,108
15552,note_on,,48,0,2,,,,,,,,1,,,67,127
15552,note_on,,384,0,5,,,,,,,,4,,,79,0
15552,note_on,,48,0,1,,,,,,,,0,,,74,127
15552,note_on,,384,0,10,,,,,,,,10,,,79,0
15552,note_on,,48,0,4,,,,,,,,3,,,46,127
15648,note_on,,96,0,6,,,,,,,,5,,,74,0
15648,note_on,,96,0,8,,,,,,,,7,,,58,0
15648,note_on,,0,0,6,,,,,,,,5,,,70,108
15648,note_on,,0,0,8,,,,,,,,7,,,46,92
15648,note_on,,96,0,12,,,,,,,,12,,,58,0
15648,note_on,,0,0,12,,,,,,,,12,,,46,92
15648,note_on,,96,0,9,,,,,,,,8,,,46,0
15648,note_on,,0,0,9,,,,,,,,8,,,34,75
15712,note_on,,160,0,2,,,,,,,,1,,,67,0
15712,note_on,,160,0,3,,,,,,,,2,,,62,0
15712,note_on,,160,0,4,,,,,,,,3,,,46,0
15712,note_on,,160,0,1,,,,,,,,0,,,74,0
15744,note_on,,96,0,12,,,,,,,,12,,,46,0
15744,note_on,,192,0,5,,,,,,,,4,,,74,0
15744,note_on,,32,0,2,,,,,,,,1,,,69,127
15744,note_on,,0,0,8,,,,,,,,7,,,48,92
15744,note_on,,96,0,8,,,,,,,,7,,,46,0
15744,note_on,,192,0,11,,,,,,,,11,,,74,0
15744,note_on,,32,0,3,,,,,,,,2,,,63,127
15744,note_on,,0,0,11,,,,,,,,11,,,72,92
15744,note_on,,0,0,5,,,,,,,,4,,,72,108
15744,note_on,,0,0,12,,,,,,,,12,,,48,92
15744,note_on,,0,0,9,,,,,,,,8,,,36,75
15744,note_on,,32,0,4,,,,,,,,3,,,48,127
15744,note_on,,0,0,6,,,,,,,,5,,,63,108
15744,note_on,,192,0,10,,,,,,,,10,,,74,0
15744,note_on,,96,0,6,,,,,,,,5,,,70,0
15744,note_on,,96,0,9,,,,,,,,8,,,34,0
15744,note_on,,0,0,7,,,,,,,,6,,,69,92
15744,note_on,,192,0,7,,,,,,,,6,,,67,0
15744,note_on,,32,0,1,,,,,,,,0,,,72,127
15744,note_on,,0,0,10,,,,,,,,10,,,72,92
15840,note_on,,0,0,9,,,,,,,,8,,,38,75
15840,note_on,,0,0,8,,,,,,,,7,,,50,92
15840,note_on,,0,0,6,,,,,,,,5,,,62,108
15840,note_on,,96,0,12,,,,,,,,12,,,48,0
15840,note_on,,0,0,12,,,,,,,,12,,,50,92
15840,note_on,,96,0,8,,,,,,,,7,,,48,0
15840,note_on,,96,0,6,,,,,,,,5,,,63,0
15840,note_on,,96,0,9,,,,,,,,8,,,36,0
15936,note_on,,96,0,12,,,,,,,,12,,,50,0
15936,note_on,,0,0,12,,,,,,,,12,,,51,92
15936,note_on,,0,0,9,,,,,,,,8,,,39,75
15936,note_on,,96,0,9,,,,,,,,8,,,38,0
15936,note_on,,96,0,8,,,,,,,,7,,,50,0
15936,note_on,,96,0,6,,,,,,,,5,,,62,0
15936,note_on,,0,0,8,,,,,,,,7,,,51,92
15936,note_on,,0,0,6,,,,,,,,5,,,60,108
16032,note_on,,96,0,6,,,,,,,,5,,,60,0
16032,note_on,,0,0,8,,,,,,,,7,,,53,92
16032,note_on,,96,0,12,,,,,,,,12,,,51,0
16032,note_on,,0,0,12,,,,,,,,12,,,53,92
16032,note_on,,0,0,9,,,,,,,,8,,,41,75
16032,note_on,,96,0,9,,,,,,,,8,,,39,0
16032,note_on,,0,0,6,,,,,,,,5,,,63,108
16032,note_on,,96,0,8,,,,,,,,7,,,51,0
16080,note_on,,336,0,1,,,,,,,,0,,,72,0
16080,note_on,,336,0,2,,,,,,,,1,,,69,0
16080,note_on,,336,0,4,,,,,,,,3,,,48,0
16080,note_on,,336,0,3,,,,,,,,2,,,63,0
16128,note_on,,0,0,8,,,,,,,,7,,,55,92
16128,note_on,,96,0,6,,,,,,,,5,,,63,0
16128,note_on,,384,0,7,,,,,,,,6,,,69,0
16128,note_on,,0,0,7,,,,,,,,6,,,67,92
16128,note_on,,384,0,10,,,,,,,,10,,,72,0
16128,note_on,,0,0,10,,,,,,,,10,,,70,92
16128,note_on,,96,0,9,,,,,,,,8,,,41,0
16128,note_on,,48,0,1,,,,,,,,0,,,70,127
16128,note_on,,0,0,12,,,,,,,,12,,,55,92
16128,note_on,,96,0,12,,,,,,,,12,,,53,0
16128,note_on,,48,0,3,,,,,,,,2,,,62,127
16128,note_on,,0,0,11,,,,,,,,11,,,70,92
16128,note_on,,384,0,11,,,,,,,,11,,,72,0
16128,note_on,,0,0,5,,,,,,,,4,,,70,108
16128,note_on,,384,0,5,,,,,,,,4,,,72,0
16128,note_on,,48,0,2,,,,,,,,1,,,67,127
16128,note_on,,0,0,6,,,,,,,,5,,,62,108
16128,note_on,,96,0,8,,,,,,,,7,,,53,0
16128,note_on,,48,0,4,,,,,,,,3,,,55,127
16128,note_on,,0,0,9,,,,,,,,8,,,43,75
16224,note_on,,96,0,9,,,,,,,,8,,,43,0
16224,note_on,,96,0,6,,,,,,,,5,,,62,0
16224,note_on,,0,0,8,,,,,,,,7,,,43,92
16224,note_on,,0,0,6,,,,,,,,5,,,67,108
16224,note_on,,96,0,7,,,,,,,,6,,,67,0
16224,note_on,,0,0,7,,,,,,,,6,,,62,92
16224,note_on,,96,0,8,,,,,,,,7,,,55,0
16224,note_on,,0,0,12,,,,,,,,12,,,43,92
16224,note_on,,96,0,12,,,,,,,,12,,,55,0
16224,note_on,,0,0,9,,,,,,,,8,,,31,75
16272,note_on,,144,0,5,,,,,,,,4,,,70,0
16272,note_on,,0,0,5,,,,,,,,4,,,69,108
16272,note_on,,144,0,10,,,,,,,,10,,,70,0
16272,note_on,,0,0,11,,,,,,,,11,,,69,92
16272,note_on,,0,0,10,,,,,,,,10,,,69,92
16272,note_on,,144,0,11,,,,,,,,11,,,70,0
16288,note_on,,160,0,3,,,,,,,,2,,,62,0
16288,note_on,,160,0,1,,,,,,,,0,,,70,0
16288,note_on,,160,0,4,,,,,,,,3,,,55,0
16288,note_on,,160,0,2,,,,,,,,1,,,67,0
16320,note_on,,48,0,11,,,,,,,,11,,,69,0
16320,note_on,,96,0,6,,,,,,,,5,,,67,0
16320,note_on,,0,0,6,,,,,,,,5,,,66,108
16320,note_on,,32,0,4,,,,,,,,3,,,50,127
16320,note_on,,32,0,2,,,,,,,,1,,,66,127
16320,note_on,,48,0,5,,,,,,,,4,,,69,0
16320,note_on,,0,0,5,,,,,,,,4,,,69,108
16320,note_on,,0,0,12,,,,,,,,12,,,50,92
16320,note_on,,32,0,1,,,,,,,,0,,,69,127
16320,note_on,,96,0,8,,,,,,,,7,,,43,0
16320,note_on,,96,0,7,,,,,,,,6,,,62,0
16320,note_on,,32,0,3,,,,,,,,2,,,62,127
16320,note_on,,96,0,9,,,,,,,,8,,,31,0
16320,note_on,,48,0,10,,,,,,,,10,,,69,0
16320,note_on,,0,0,9,,,,,,,,8,,,38,75
16320,note_on,,0,0,10,,,,,,,,10,,,69,92
16320,note_on,,96,0,12,,,,,,,,12,,,43,0
16320,note_on,,0,0,7,,,,,,,,6,,,62,92
16320,note_on,,0,0,11,,,,,,,,11,,,69,92
16320,note_on,,0,0,8,,,,,,,,7,,,50,92
16416,note_on,,96,0,9,,,,,,,,8,,,38,0
16416,note_on,,0,0,8,,,,,,,,7,,,57,92
16416,note_on,,0,0,9,,,,,,,,8,,,45,75
16416,note_on,,96,0,12,,,,,,,,12,,,50,0
16416,note_on,,96,0,8,,,,,,,,7,,,50,0
16416,note_on,,0,0,12,,,,,,,,12,,,57,92
16512,note_on,,96,0,8,,,,,,,,7,,,57,0
16512,note_on,,0,0,12,,,,,,,,12,,,62,92
16512,note_on,,96,0,12,,,,,,,,12,,,57,0
16512,note_on,,96,0,9,,,,,,,,8,,,45,0
16512,note_on,,0,0,9,,,,,,,,8,,,50,75
16512,note_on,,0,0,8,,,,,,,,7,,,62,92
16608,note_on,,0,0,12,,,,,,,,12,,,63,92
16608,note_on,,96,0,12,,,,,,,,12,,,62,0
16608,note_on,,0,0,6,,,,,,,,5,,,66,108
16608,note_on,,288,0,6,,,,,,,,5,,,66,0
16608,note_on,,96,0,8,,,,,,,,7,,,62,0
16608,note_on,,0,0,9,,,,,,,,8,,,51,75
16608,note_on,,288,0,7,,,,,,,,6,,,62,0
16608,note_on,,0,0,8,,,,,,,,7,,,63,92
16608,note_on,,0,0,7,,,,,,,,6,,,69,92
16608,note_on,,96,0,9,,,,,,,,8,,,50,0
16656,note_on,,336,0,1,,,,,,,,0,,,69,0
16656,note_on,,336,0,4,,,,,,,,3,,,50,0
16656,note_on,,336,0,3,,,,,,,,2,,,62,0
16656,note_on,,336,0,2,,,,,,,,1,,,66,0
16704,note_on,,48,0,4,,,,,,,,3,,,62,127
16704,note_on,,96,0,9,,,,,,,,8,,,51,0
16704,note_on,,96,0,6,,,,,,,,5,,,66,0
16704,note_on,,48,0,2,,,,,,,,1,,,69,127
16704,note_on,,96,0,12,,,,,,,,12,,,63,0
16704,note_on,,0,0,12,,,,,,,,12,,,62,92
16704,note_on,,0,0,9,,,,,,,,8,,,50,75
16704,note_on,,0,0,5,,,,,,,,4,,,74,108
16704,note_on,,384,0,5,,,,,,,,4,,,69,0
16704,note_on,,0,0,6,,,,,,,,5,,,67,108
16704,note_on,,96,0,7,,,,,,,,6,,,69,0
16704,note_on,,0,0,10,,,,,,,,10,,,74,92
16704,note_on,,384,0,10,,,,,,,,10,,,69,0
16704,note_on,,0,0,7,,,,,,,,6,,,70,92
16704,note_on,,48,0,3,,,,,,,,2,,,66,127
16704,note_on,,384,0,11,,,,,,,,11,,,69,0
16704,note_on,,0,0,11,,,,,,,,11,,,74,92
16704,note_on,,0,0,8,,,,,,,,7,,,62,92
16704,note_on,,96,0,8,,,,,,,,7,,,63,0
16704,note_on,,48,0,1,,,,,,,,0,,,74,127
16800,note_on,,96,0,6,,,,,,,,5,,,67,0
16800,note_on,,0,0,12,,,,,,,,12,,,60,92
16800,note_on,,0,0,6,,,,,,,,5,,,69,108
16800,note_on,,96,0,12,,,,,,,,12,,,62,0
16800,note_on,,0,0,9,,,,,,,,8,,,48,75
16800,note_on,,96,0,8,,,,,,,,7,,,62,0
16800,note_on,,0,0,8,,,,,,,,7,,,60,92
16800,note_on,,96,0,9,,,,,,,,8,,,50,0
16800,note_on,,96,0,7,,,,,,,,6,,,70,0
16800,note_on,,0,0,7,,,,,,,,6,,,72,92
16864,note_on,,160,0,3,,,,,,,,2,,,66,0
16864,note_on,,160,0,4,,,,,,,,3,,,62,0
16864,note_on,,160,0,2,,,,,,,,1,,,69,0
16864,note_on,,160,0,1,,,,,,,,0,,,74,0
16896,note_on,,192,0,11,,,,,,,,11,,,74,0
16896,note_on,,96,0,7,,,,,,,,6,,,72,0
16896,note_on,,0,0,11,,,,,,,,11,,,79,92
16896,note_on,,32,0,4,,,,,,,,3,,,59,127
16896,note_on,,32,0,2,,,,,,,,1,,,67,127
16896,note_on,,96,0,12,,,,,,,,12,,,60,0
16896,note_on,,0,0,12,,,,,,,,12,,,59,92
16896,note_on,,32,0,3,,,,,,,,2,,,62,127
16896,note_on,,0,0,7,,,,,,,,6,,,67,92
16896,note_on,,192,0,5,,,,,,,,4,,,74,0
16896,note_on,,0,0,10,,,,,,,,10,,,79,92
16896,note_on,,192,0,10,,,,,,,,10,,,74,0
16896,note_on,,96,0,9,,,,,,,,8,,,48,0
16896,note_on,,0,0,9,,,,,,,,8,,,47,75
16896,note_on,,0,0,5,,,,,,,,4,,,79,108
16896,note_on,,32,0,1,,,,,,,,0,,,79,127
16896,note_on,,96,0,6,,,,,,,,5,,,69,0
16896,note_on,,0,0,6,,,,,,,,5,,,62,108
16896,note_on,,96,0,8,,,,,,,,7,,,60,0
16896,note_on,,0,0,8,,,,,,,,7,,,59,92
16992,note_on,,0,0,9,,,,,,,,8,,,45,75
16992,note_on,,0,0,8,,,,,,,,7,,,57,92
16992,note_on,,0,0,6,,,,,,,,5,,,60,108
16992,note_on,,96,0,8,,,,,,,,7,,,59,0
16992,note_on,,96,0,12,,,,,,,,12,,,59,0
16992,note_on,,0,0,7,,,,,,,,6,,,69,92
16992,note_on,,96,0,6,,,,,,,,5,,,62,0
16992,note_on,,0,0,12,,,,,,,,12,,,57,92
16992,note_on,,96,0,9,,,,,,,,8,,,47,0
16992,note_on,,96,0,7,,,,,,,,6,,,67,0
17088,note_on,,96,0,9,,,,,,,,8,,,45,0
17088,note_on,,96,0,12,,,,,,,,12,,,57,0
17088,note_on,,0,0,8,,,,,,,,7,,,55,92
17088,note_on,,96,0,8,,,,,,,,7,,,57,0
17088,note_on,,0,0,9,,,,,,,,8,,,43,75
17088,note_on,,96,0,7,,,,,,,,6,,,69,0
17088,note_on,,0,0,7,,,,,,,,6,,,62,92
17088,note_on,,96,0,6,,,,,,,,5,,,60,0
17088,note_on,,0,0,12,,,,,,,,12,,,55,92
17088,note_on,,0,0,6,,,,,,,,5,,,59,108
17184,note_on,,0,0,9,,,,,,,,8,,,45,75
17184,note_on,,96,0,12,,,,,,,,12,,,55,0
17184,note_on,,96,0,9,,,,,,,,8,,,43,0
17184,note_on,,0,0,8,,,,,,,,7,,,57,92
17184,note_on,,96,0,8,,,,,,,,7,,,55,0
17184,note_on,,0,0,6,,,,,,,,5,,,69,108
17184,note_on,,96,0,6,,,,,,,,5,,,59,0
17184,note_on,,0,0,12,,,,,,,,12,,,57,92
17232,note_on,,336,0,4,,,,,,,,3,,,59,0
17232,note_on,,336,0,1,,,,,,,,0,,,79,0
17232,note_on,,336,0,3,,,,,,,,2,,,62,0
17232,note_on,,336,0,2,,,,,,,,1,,,67,0
17280,note_on,,0,0,12,,,,,,,,12,,,59,92
17280,note_on,,0,0,11,,,,,,,,11,,,74,92
17280,note_on,,384,0,11,,,,,,,,11,,,79,0
17280,note_on,,48,0,1,,,,,,,,0,,,74,127
17280,note_on,,192,0,7,,,,,,,,6,,,62,0
17280,note_on,,0,0,7,,,,,,,,6,,,67,92
17280,note_on,,48,0,3,,,,,,,,2,,,59,127
17280,note_on,,48,0,2,,,,,,,,1,,,67,127
17280,note_on,,96,0,6,,,,,,,,5,,,69,0
17280,note_on,,384,0,10,,,,,,,,10,,,79,0
17280,note_on,,96,0,12,,,,,,,,12,,,57,0
17280,note_on,,0,0,10,,,,,,,,10,,,74,92
17280,note_on,,0,0,9,,,,,,,,8,,,47,75
17280,note_on,,48,0,4,,,,,,,,3,,,55,127
17280,note_on,,96,0,9,,,,,,,,8,,,45,0
17280,note_on,,384,0,5,,,,,,,,4,,,79,0
17280,note_on,,0,0,8,,,,,,,,7,,,59,92
17280,note_on,,0,0,5,,,,,,,,4,,,74,108
17280,note_on,,96,0,8,,,,,,,,7,,,57,0
17280,note_on,,0,0,6,,,,,,,,5,,,67,108
17376,note_on,,0,0,12,,,,,,,,12,,,55,92
17376,note_on,,0,0,8,,,,,,,,7,,,55,92
17376,note_on,,96,0,8,,,,,,,,7,,,59,0
17376,note_on,,96,0,12,,,,,,,,12,,,59,0
17376,note_on,,0,0,9,,,,,,,,8,,,43,75
17376,note_on,,96,0,9,,,,,,,,8,,,47,0
17376,note_on,,0,0,6,,,,,,,,5,,,71,108
17376,note_on,,96,0,6,,,,,,,,5,,,67,0
17440,note_on,,160,0,3,,,,,,,,2,,,59,0
17440,note_on,,160,0,1,,,,,,,,0,,,74,0
17440,note_on,,160,0,4,,,,,,,,3,,,55,0
17440,note_on,,160,0,2,,,,,,,,1,,,67,0
17472,note_on,,192,0,5,,,,,,,,4,,,74,0
17472,note_on,,96,0,9,,,,,,,,8,,,43,0
17472,note_on,,0,0,5,,,,,,,,4,,,75,108
17472,note_on,,0,0,7,,,,,,,,6,,,63,92
17472,note_on,,0,0,11,,,,,,,,11,,,75,92
17472,note_on,,192,0,11,,,,,,,,11,,,74,0
17472,note_on,,32,0,4,,,,,,,,3,,,60,127
17472,note_on,,32,0,3,,,,,,,,2,,,60,127
17472,note_on,,192,0,7,,,,,,,,6,,,67,0
17472,note_on,,32,0,2,,,,,,,,1,,,67,127
17472,note_on,,0,0,8,,,,,,,,7,,,60,92
17472,note_on,,96,0,8,,,,,,,,7,,,55,0
17472,note_on,,96,0,6,,,,,,,,5,,,71,0
17472,note_on,,0,0,12,,,,,,,,12,,,60,92
17472,note_on,,0,0,6,,,,,,,,5,,,67,108
17472,note_on,,32,0,1,,,,,,,,0,,,75,127
17472,note_on,,0,0,10,,,,,,,,10,,,75,92
17472,note_on,,192,0,10,,,,,,,,10,,,74,0
17472,note_on,,0,0,9,,,,,,,,8,,,48,75
17472,note_on,,96,0,12,,,,,,,,12,,,55,0
17568,note_on,,96,0,12,,,,,,,,12,,,60,0
17568,note_on,,0,0,7,,,,,,,,6,,,67,92
17568,note_on,,96,0,8,,,,,,,,7,,,60,0
17568,note_on,,0,0,9,,,,,,,,8,,,46,75
17568,note_on,,96,0,9,,,,,,,,8,,,48,0
17568,note_on,,96,0,7,,,,,,,,6,,,63,0
17568,note_on,,0,0,6,,,,,,,,5,,,70,108
17568,note_on,,96,0,6,,,,,,,,5,,,67,0
17568,note_on,,0,0,8,,,,,,,,7,,,58,92
17568,note_on,,0,0,12,,,,,,,,12,,,58,92
17632,note_on,,160,0,4,,,,,,,,3,,,60,0
17632,note_on,,160,0,3,,,,,,,,2,,,60,0
17632,note_on,,160,0,2,,,,,,,,1,,,67,0
17632,note_on,,160,0,1,,,,,,,,0,,,75,0
17664,note_on,,0,0,8,,,,,,,,7,,,57,92
17664,note_on,,32,0,2,,,,,,,,1,,,65,127
17664,note_on,,96,0,12,,,,,,,,12,,,58,0
17664,note_on,,0,0,9,,,,,,,,8,,,45,75
17664,note_on,,96,0,9,,,,,,,,8,,,46,0
17664,note_on,,96,0,8,,,,,,,,7,,,58,0
17664,note_on,,0,0,12,,,,,,,,12,,,57,92
17664,note_on,,192,0,10,,,,,,,,10,,,75,0
17664,note_on,,0,0,5,,,,,,,,4,,,72,108
17664,note_on,,192,0,5,,,,,,,,4,,,75,0
17664,note_on,,32,0,4,,,,,,,,3,,,57,127
17664,note_on,,0,0,10,,,,,,,,10,,,72,92
17664,note_on,,32,0,3,,,,,,,,2,,,60,127
17664,note_on,,192,0,11,,,,,,,,11,,,75,0
17664,note_on,,32,0,1,,,,,,,,0,,,72,127
17664,note_on,,96,0,7,,,,,,,,6,,,67,0
17664,note_on,,0,0,7,,,,,,,,6,,,65,92
17664,note_on,,0,0,11,,,,,,,,11,,,72,92
17664,note_on,,0,0,6,,,,,,,,5,,,72,108
17664,note_on,,96,0,6,,,,,,,,5,,,70,0
17760,note_on,,0,0,7,,,,,,,,6,,,67,92
17760,note_on,,96,0,7,,,,,,,,6,,,65,0
17760,note_on,,0,0,12,,,,,,,,12,,,55,92
17760,note_on,,0,0,8,,,,,,,,7,,,55,92
17760,note_on,,96,0,12,,,,,,,,12,,,57,0
17760,note_on,,0,0,9,,,,,,,,8,,,43,75
17760,note_on,,96,0,9,,,,,,,,8,,,45,0
17760,note_on,,96,0,6,,,,,,,,5,,,72,0
17760,note_on,,0,0,6,,,,,,,,5,,,63,108
17760,note_on,,96,0,8,,,,,,,,7,,,57,0
17856,note_on,,0,0,9,,,,,,,,8,,,45,75
17856,note_on,,96,0,12,,,,,,,,12,,,55,0
17856,note_on,,0,0,12,,,,,,,,12,,,57,92
17856,note_on,,0,0,6,,,,,,,,5,,,65,108
17856,note_on,,96,0,6,,,,,,,,5,,,63,0
17856,note_on,,0,0,7,,,,,,,,6,,,65,92
17856,note_on,,0,0,8,,,,,,,,7,,,57,92
17856,note_on,,96,0,9,,,,,,,,8,,,43,0
17856,note_on,,96,0,7,,,,,,,,6,,,67,0
17856,note_on,,96,0,8,,,,,,,,7,,,55,0
17952,note_on,,0,0,8,,,,,,,,7,,,53,92
17952,note_on,,96,0,8,,,,,,,,7,,,57,0
17952,note_on,,0,0,6,,,,,,,,5,,,69,108
17952,note_on,,0,0,12,,,,,,,,12,,,53,92
17952,note_on,,96,0,12,,,,,,,,12,,,57,0
17952,note_on,,96,0,6,,,,,,,,5,,,65,0
17952,note_on,,0,0,9,,,,,,,,8,,,41,75
17952,note_on,,96,0,9,,,,,,,,8,,,45,0
17952,note_on,,96,0,7,,,,,,,,6,,,65,0
17952,note_on,,0,0,7,,,,,,,,6,,,63,92
18000,note_on,,336,0,1,,,,,,,,0,,,72,0
18000,note_on,,336,0,2,,,,,,,,1,,,65,0
18000,note_on,,336,0,4,,,,,,,,3,,,57,0
18000,note_on,,336,0,3,,,,,,,,2,,,60,0
18048,note_on,,48,0,2,,,,,,,,1,,,65,127
18048,note_on,,0,0,6,,,,,,,,5,,,65,108
18048,note_on,,48,0,3,,,,,,,,2,,,58,127
18048,note_on,,96,0,8,,,,,,,,7,,,53,0
18048,note_on,,0,0,8,,,,,,,,7,,,58,92
18048,note_on,,0,0,10,,,,,,,,10,,,74,92
18048,note_on,,384,0,11,,,,,,,,11,,,72,0
18048,note_on,,0,0,9,,,,,,,,8,,,46,75
18048,note_on,,96,0,9,,,,,,,,8,,,41,0
18048,note_on,,0,0,11,,,,,,,,11,,,74,92
18048,note_on,,48,0,1,,,,,,,,0,,,74,127
18048,note_on,,384,0,10,,,,,,,,10,,,72,0
18048,note_on,,96,0,7,,,,,,,,6,,,63,0
18048,note_on,,0,0,5,,,,,,,,4,,,74,108
18048,note_on,,384,0,5,,,,,,,,4,,,72,0
18048,note_on,,96,0,6,,,,,,,,5,,,69,0
18048,note_on,,0,0,7,,,,,,,,6,,,62,92
18048,note_on,,48,0,4,,,,,,,,3,,,58,127
18048,note_on,,96,0,12,,,,,,,,12,,,53,0
18048,note_on,,0,0,12,,,,,,,,12,,,58,92
18144,note_on,,0,0,7,,,,,,,,6,,,60,92
18144,note_on,,96,0,8,,,,,,,,7,,,58,0
18144,note_on,,0,0,8,,,,,,,,7,,,57,92
18144,note_on,,0,0,12,,,,,,,,12,,,57,92
18144,note_on,,96,0,9,,,,,,,,8,,,46,0
18144,note_on,,0,0,9,,,,,,,,8,,,45,75
18144,note_on,,96,0,12,,,,,,,,12,,,58,0
18144,note_on,,96,0,7,,,,,,,,6,,,62,0
18208,note_on,,160,0,1,,,,,,,,0,,,74,0
18208,note_on,,160,0,4,,,,,,,,3,,,58,0
18208,note_on,,160,0,2,,,,,,,,1,,,65,0
18208,note_on,,160,0,3,,,,,,,,2,,,58,0
18240,note_on,,96,0,9,,,,,,,,8,,,45,0
18240,note_on,,0,0,9,,,,,,,,8,,,43,75
18240,note_on,,32,0,4,,,,,,,,3,,,55,127
18240,note_on,,192,0,11,,,,,,,,11,,,74,0
18240,note_on,,0,0,11,,,,,,,,11,,,76,92
18240,note_on,,192,0,5,,,,,,,,4,,,74,0
18240,note_on,,96,0,8,,,,,,,,7,,,57,0
18240,note_on,,96,0,7,,,,,,,,6,,,60,0
18240,note_on,,0,0,8,,,,,,,,7,,,55,92
18240,note_on,,32,0,3,,,,,,,,2,,,58,127
18240,note_on,,192,0,6,,,,,,,,5,,,65,0
18240,note_on,,0,0,6,,,,,,,,5,,,70,108
18240,note_on,,96,0,12,,,,,,,,12,,,57,0
18240,note_on,,0,0,12,,,,,,,,12,,,55,92
18240,note_on,,32,0,2,,,,,,,,1,,,67,127
18240,note_on,,0,0,10,,,,,,,,10,,,76,92
18240,note_on,,192,0,10,,,,,,,,10,,,74,0
18240,note_on,,32,0,1,,,,,,,,0,,,76,127
18240,note_on,,0,0,7,,,,,,,,6,,,58,92
18240,note_on,,0,0,5,,,,,,,,4,,,76,108
18336,note_on,,0,0,6,,,,,,,,5,,,69,108
18336,note_on,,96,0,6,,,,,,,,5,,,70,0
18432,note_on,,0,0,7,,,,,,,,6,,,67,92
18432,note_on,,0,0,6,,,,,,,,5,,,70,108
18432,note_on,,96,0,6,,,,,,,,5,,,69,0
18432,note_on,,192,0,7,,,,,,,,6,,,58,0
18528,note_on,,0,0,6,,,,,,,,5,,,72,108
18528,note_on,,96,0,6,,,,,,,,5,,,70,0
18576,note_on,,336,0,4,,,,,,,,3,,,55,0
18576,note_on,,336,0,3,,,,,,,,2,,,58,0
18576,note_on,,336,0,1,,,,,,,,0,,,76,0
18576,note_on,,336,0,2,,,,,,,,1,,,67,0
18624,note_on,,48,0,1,,,,,,,,0,,,77,127
18624,note_on,,48,0,2,,,,,,,,1,,,69,127
18624,note_on,,96,0,6,,,,,,,,5,,,72,0
18624,note_on,,0,0,6,,,,,,,,5,,,69,108
18624,note_on,,192,0,7,,,,,,,,6,,,67,0
18624,note_on,,0,0,7,,,,,,,,6,,,60,92
18624,note_on,,0,0,12,,,,,,,,12,,,53,92
18624,note_on,,48,0,3,,,,,,,,2,,,60,127
18624,note_on,,384,0,9,,,,,,,,8,,,43,0
18624,note_on,,384,0,11,,,,,,,,11,,,76,0
18624,note_on,,0,0,11,,,,,,,,11,,,77,92
18624,note_on,,0,0,10,,,,,,,,10,,,77,92
18624,note_on,,384,0,10,,,,,,,,10,,,76,0
18624,note_on,,48,0,4,,,,,,,,3,,,53,127
18624,note_on,,0,0,9,,,,,,,,8,,,41,75
18624,note_on,,0,0,5,,,,,,,,4,,,77,108
18624,note_on,,384,0,5,,,,,,,,4,,,76,0
18624,note_on,,384,0,12,,,,,,,,12,,,55,0
18624,note_on,,384,0,8,,,,,,,,7,,,55,0
18624,note_on,,0,0,8,,,,,,,,7,,,53,92
18720,note_on,,96,0,6,,,,,,,,5,,,69,0
18720,note_on,,0,0,6,,,,,,,,5,,,72,108
18816,note_on,,96,0,6,,,,,,,,5,,,72,0
18816,note_on,,0,0,6,,,,,,,,5,,,69,108
18912,note_on,,0,0,6,,,,,,,,5,,,65,108
18912,note_on,,96,0,6,,,,,,,,5,,,69,0
19008,note_on,,384,0,7,,,,,,,,6,,,60,0
19008,note_on,,96,0,6,,,,,,,,5,,,65,0
19008,note_on,,0,0,6,,,,,,,,5,,,67,108
19008,note_on,,384,0,5,,,,,,,,4,,,77,0
19104,note_on,,96,0,6,,,,,,,,5,,,67,0
19104,note_on,,96,0,7,,,,,,,,6,,,65,92
19104,note_on,,96,0,5,,,,,,,,4,,,72,108
19104,note_on,,0,0,6,,,,,,,,5,,,69,108
19152,note_on,,528,0,3,,,,,,,,2,,,60,0
19152,note_on,,528,0,4,,,,,,,,3,,,53,0
19152,note_on,,528,0,1,,,,,,,,0,,,77,0
19152,note_on,,528,0,2,,,,,,,,1,,,69,0
19200,note_on,,0,0,7,,,,,,,,6,,,65,92
19200,note_on,,0,0,6,,,,,,,,5,,,70,108
19200,note_on,,96,0,6,,,,,,,,5,,,69,0
19200,note_on,,96,0,5,,,,,,,,4,,,72,0
19200,note_on,,0,0,5,,,,,,,,4,,,74,108
19200,note_on,,96,0,7,,,,,,,,6,,,65,0
19392,note_on,,192,0,5,,,,,,,,4,,,74,0
19392,note_on,,0,0,5,,,,,,,,4,,,62,108
19392,note_on,,192,0,6,,,,,,,,5,,,70,0
19392,note_on,,0,0,6,,,,,,,,5,,,58,108
19392,note_on,,192,0,7,,,,,,,,6,,,65,0
19392,note_on,,0,0,7,,,,,,,,6,,,53,92
19584,note_on,,192,0,5,,,,,,,,4,,,62,0
19584,note_on,,192,0,6,,,,,,,,5,,,58,0
19584,note_on,,192,0,7,,,,,,,,6,,,53,0
19680,note_on,,96,0,5,,,,,,,,4,,,74,108
19680,note_on,,96,0,6,,,,,,,,5,,,70,108
19680,note_on,,96,0,7,,,,,,,,6,,,65,92
19776,note_on,,96,0,6,,,,,,,,5,,,70,0
19776,note_on,,0,0,6,,,,,,,,5,,,69,108
19776,note_on,,0,0,7,,,,,,,,6,,,65,92
19776,note_on,,96,0,7,,,,,,,,6,,,65,0
19776,note_on,,0,0,5,,,,,,,,4,,,72,108
19776,note_on,,96,0,5,,,,,,,,4,,,74,0
19968,note_on,,0,0,6,,,,,,,,5,,,57,108
19968,note_on,,0,0,5,,,,,,,,4,,,60,108
19968,note_on,,192,0,7,,,,,,,,6,,,65,0
19968,note_on,,192,0,6,,,,,,,,5,,,69,0
19968,note_on,,192,0,5,,,,,,,,4,,,72,0
19968,note_on,,0,0,7,,,,,,,,6,,,53,92
20160,note_on,,1536,0,12,,,,,,,,12,,,53,0
20160,note_on,,1536,0,11,,,,,,,,11,,,77,0
20160,note_on,,192,0,7,,,,,,,,6,,,53,0
20160,note_on,,192,0,6,,,,,,,,5,,,57,0
20160,note_on,,192,0,5,,,,,,,,4,,,60,0
20160,note_on,,1536,0,9,,,,,,,,8,,,41,0
20160,note_on,,1536,0,10,,,,,,,,10,,,77,0
20160,note_on,,1536,0,8,,,,,,,,7,,,53,0
20256,note_on,,96,0,6,,,,,,,,5,,,69,108
20256,note_on,,96,0,5,,,,,,,,4,,,72,108
20256,note_on,,96,0,11,,,,,,,,11,,,72,92
20256,note_on,,96,0,10,,,,,,,,10,,,72,92
20256,note_on,,96,0,8,,,,,,,,7,,,53,92
20256,note_on,,96,0,12,,,,,,,,12,,,53,92
20256,note_on,,96,0,7,,,,,,,,6,,,65,92
20256,note_on,,96,0,9,,,,,,,,8,,,41,75
20352,note_on,,96,0,10,,,,,,,,10,,,72,0
20352,note_on,,96,0,7,,,,,,,,6,,,65,0
20352,note_on,,96,0,6,,,,,,,,5,,,69,0
20352,note_on,,0,0,6,,,,,,,,5,,,67,108
20352,note_on,,0,0,8,,,,,,,,7,,,46,92
20352,note_on,,0,0,10,,,,,,,,10,,,70,92
20352,note_on,,0,0,7,,,,,,,,6,,,62,92
20352,note_on,,0,0,5,,,,,,,,4,,,70,108
20352,note_on,,96,0,5,,,,,,,,4,,,72,0
20352,note_on,,0,0,11,,,,,,,,11,,,70,92
20352,note_on,,96,0,11,,,,,,,,11,,,72,0
20352,note_on,,96,0,8,,,,,,,,7,,,53,0
20352,note_on,,96,0,9,,,,,,,,8,,,41,0
20352,note_on,,0,0,9,,,,,,,,8,,,34,75
20352,note_on,,96,0,12,,,,,,,,12,,,53,0
20352,note_on,,0,0,12,,,,,,,,12,,,46,92
20448,note_on,,96,0,6,,,,,,,,5,,,67,0
20448,note_on,,0,0,7,,,,,,,,6,,,65,92
20448,note_on,,96,0,7,,,,,,,,6,,,62,0
20448,note_on,,96,0,5,,,,,,,,4,,,70,0
20448,note_on,,0,0,6,,,,,,,,5,,,65,108
20448,note_on,,0,0,5,,,,,,,,4,,,69,108
20448,note_on,,96,0,10,,,,,,,,10,,,70,0
20448,note_on,,96,0,11,,,,,,,,11,,,70,0
20448,note_on,,0,0,11,,,,,,,,11,,,69,92
20448,note_on,,0,0,10,,,,,,,,10,,,69,92
20544,note_on,,0,0,12,,,,,,,,12,,,48,92
20544,note_on,,192,0,12,,,,,,,,12,,,46,0
20544,note_on,,0,0,9,,,,,,,,8,,,36,75
20544,note_on,,192,0,9,,,,,,,,8,,,34,0
20544,note_on,,0,0,7,,,,,,,,6,,,60,92
20544,note_on,,96,0,7,,,,,,,,6,,,65,0
20544,note_on,,96,0,11,,,,,,,,11,,,69,0
20544,note_on,,0,0,6,,,,,,,,5,,,65,108
20544,note_on,,96,0,5,,,,,,,,4,,,69,0
20544,note_on,,192,0,8,,,,,,,,7,,,46,0
20544,note_on,,0,0,10,,,,,,,,10,,,67,92
20544,note_on,,0,0,8,,,,,,,,7,,,48,92
20544,note_on,,0,0,5,,,,,,,,4,,,67,108
20544,note_on,,96,0,6,,,,,,,,5,,,65,0
20544,note_on,,96,0,10,,,,,,,,10,,,69,0
20544,note_on,,0,0,11,,,,,,,,11,,,67,92
20736,note_on,,0,0,8,,,,,,,,7,,,36,92
20736,note_on,,192,0,8,,,,,,,,7,,,48,0
20736,note_on,,192,0,7,,,,,,,,6,,,60,0
20736,note_on,,0,0,6,,,,,,,,5,,,64,108
20736,note_on,,192,0,6,,,,,,,,5,,,65,0
20736,note_on,,0,0,7,,,,,,,,6,,,58,92
20736,note_on,,192,0,12,,,,,,,,12,,,48,0
20736,note_on,,0,0,12,,,,,,,,12,,,36,92
20736,note_on,,0,0,9,,,,,,,,8,,,24,75
20736,note_on,,192,0,9,,,,,,,,8,,,36,0
20832,note_on,,288,0,11,,,,,,,,11,,,67,0
20832,note_on,,288,0,10,,,,,,,,10,,,67,0
20832,note_on,,0,0,10,,,,,,,,10,,,65,92
20832,note_on,,0,0,5,,,,,,,,4,,,65,108
20832,note_on,,0,0,11,,,,,,,,11,,,65,92
20832,note_on,,288,0,5,,,,,,,,4,,,67,0
20928,note_on,,0,0,8,,,,,,,,7,,,41,92
20928,time_signature,,0,1,11,,4,4,24,8,,,,,,,
20928,note_on,,96,0,11,,,,,,,,11,,,65,0
20928,set_tempo,1714285,20736,1,0,,,,,,,,,,,,
20928,time_signature,,0,1,8,,4,4,24,8,,,,,,,
20928,note_on,,0,0,12,,,,,,,,12,,,41,92
20928,time_signature,,0,1,12,,4,4,24,8,,,,,,,
20928,note_on,,192,0,12,,,,,,,,12,,,36,0
20928,note_on,,192,0,7,,,,,,,,6,,,58,0
20928,time_signature,,0,1,7,,4,4,24,8,,,,,,,
20928,time_signature,,1776,1,2,,4,4,24,8,,,,,,,
20928,note_on,,192,0,8,,,,,,,,7,,,36,0
20928,time_signature,,0,1,9,,4,4,24,8,,,,,,,
20928,note_on,,0,0,9,,,,,,,,8,,,29,75
20928,note_on,,192,0,9,,,,,,,,8,,,24,0
20928,note_on,,96,0,10,,,,,,,,10,,,65,0
20928,time_signature,,0,1,10,,4,4,24,8,,,,,,,
20928,note_on,,0,0,5,,,,,,,,4,,,65,108
20928,time_signature,,0,1,5,,4,4,24,8,,,,,,,
20928,note_on,,96,0,5,,,,,,,,4,,,65,0
20928,time_signature,,1776,1,3,,4,4,24,8,,,,,,,
20928,note_on,,0,0,7,,,,,,,,6,,,57,92
20928,time_signature,,1776,1,4,,4,4,24,8,,,,,,,
20928,note_on,,192,0,6,,,,,,,,5,,,64,0
20928,time_signature,,0,1,6,,4,4,24,8,,,,,,,
20928,note_on,,0,0,6,,,,,,,,5,,,65,108
20928,time_signature,,0,1,0,,4,4,24,8,,,,,,,
20928,time_signature,,1776,1,1,,4,4,24,8,,,,,,,
20928,note_on,,0,0,11,,,,,,,,11,,,65,92
20928,note_on,,0,0,10,,,,,,,,10,,,65,92
21120,note_on,,192,0,10,,,,,,,,10,,,65,0
21120,note_on,,192,0,7,,,,,,,,6,,,57,0
21120,note_on,,192,0,12,,,,,,,,12,,,41,0
21120,note_on,,192,0,9,,,,,,,,8,,,29,0
21120,note_on,,192,0,8,,,,,,,,7,,,41,0
21120,note_on,,192,0,6,,,,,,,,5,,,65,0
21120,set_tempo,600000,192,1,0,,,,,,,,,,,,
21120,note_on,,192,0,5,,,,,,,,4,,,65,0
21120,note_on,,192,0,11,,,,,,,,11,,,65,0
21216,note_on,,96,0,9,,,,,,,,8,,,41,75
21216,note_on,,96,0,8,,,,,,,,7,,,53,92
21216,note_on,,288,0,4,,,,,,,,3,,,53,127
21216,note_on,,96,0,12,,,,,,,,12,,,53,92
21310,note_on,,94,0,4,,,,,,,,3,,,53,0
21312,note_on,,96,0,12,,,,,,,,12,,,53,0
21312,note_on,,0,0,12,,,,,,,,12,,,50,92
21312,note_on,,2,0,4,,,,,,,,3,,,50,127
21312,note_on,,96,0,8,,,,,,,,7,,,53,0
21312,note_on,,0,0,8,,,,,,,,7,,,50,92
21312,note_on,,96,0,9,,,,,,,,8,,,41,0
21312,note_on,,0,0,9,,,,,,,,8,,,38,75
21454,note_on,,142,0,4,,,,,,,,3,,,50,0
21456,note_on,,2,0,4,,,,,,,,3,,,48,127
21456,note_on,,0,0,9,,,,,,,,8,,,36,75
21456,note_on,,144,0,8,,,,,,,,7,,,50,0
21456,note_on,,0,0,12,,,,,,,,12,,,48,92
21456,note_on,,0,0,8,,,,,,,,7,,,48,92
21456,note_on,,144,0,9,,,,,,,,8,,,38,0
21456,note_on,,144,0,12,,,,,,,,12,,,50,0
21502,note_on,,46,0,4,,,,,,,,3,,,48,0
21504,note_on,,48,0,9,,,,,,,,8,,,36,0
21504,note_on,,0,0,9,,,,,,,,8,,,38,75
21504,note_on,,0,0,8,,,,,,,,7,,,50,92
21504,note_on,,48,0,8,,,,,,,,7,,,48,0
21504,note_on,,0,0,12,,,,,,,,12,,,50,92
21504,note_on,,48,0,12,,,,,,,,12,,,48,0
21504,note_on,,2,0,4,,,,,,,,3,,,50,127
21598,note_on,,94,0,4,,,,,,,,3,,,50,0
21600,note_on,,0,0,9,,,,,,,,8,,,34,75
21600,note_on,,0,0,8,,,,,,,,7,,,46,92
21600,note_on,,96,0,9,,,,,,,,8,,,38,0
21600,note_on,,0,0,12,,,,,,,,12,,,46,92
21600,note_on,,96,0,8,,,,,,,,7,,,50,0
21600,note_on,,96,0,12,,,,,,,,12,,,50,0
21600,note_on,,2,0,4,,,,,,,,3,,,46,127
21694,note_on,,94,0,4,,,,,,,,3,,,46,0
21696,note_on,,96,0,12,,,,,,,,12,,,46,0
21696,note_on,,96,0,8,,,,,,,,7,,,46,0
21696,note_on,,2,0,4,,,,,,,,3,,,53,127
21696,note_on,,0,0,9,,,,,,,,8,,,41,75
21696,note_on,,96,0,9,,,,,,,,8,,,34,0
21696,note_on,,0,0,8,,,,,,,,7,,,53,92
21696,note_on,,0,0,12,,,,,,,,12,,,53,92
21856,note_on,,160,0,4,,,,,,,,3,,,53,0
21888,note_on,,0,0,9,,,,,,,,8,,,39,75
21888,note_on,,192,0,9,,,,,,,,8,,,41,0
21888,note_on,,0,0,8,,,,,,,,7,,,51,92
21888,note_on,,192,0,12,,,,,,,,12,,,53,0
21888,note_on,,32,0,4,,,,,,,,3,,,51,127
21888,note_on,,192,0,8,,,,,,,,7,,,53,0
21888,note_on,,0,0,12,,,,,,,,12,,,51,92
22048,note_on,,160,0,4,,,,,,,,3,,,51,0
22080,note_on,,192,0,8,,,,,,,,7,,,51,0
22080,note_on,,0,0,8,,,,,,,,7,,,50,92
22080,note_on,,192,0,9,,,,,,,,8,,,39,0
22080,note_on,,32,0,4,,,,,,,,3,,,50,127
22080,note_on,,192,0,12,,,,,,,,12,,,51,0
22080,note_on,,0,0,12,,,,,,,,12,,,50,92
22080,note_on,,0,0,9,,,,,,,,8,,,38,75
22174,note_on,,94,0,4,,,,,,,,3,,,50,0
22176,note_on,,0,0,9,,,,,,,,8,,,41,75
22176,note_on,,96,0,8,,,,,,,,7,,,50,0
22176,note_on,,0,0,8,,,,,,,,7,,,53,92
22176,note_on,,2,0,4,,,,,,,,3,,,53,127
22176,note_on,,96,0,9,,,,,,,,8,,,38,0
22176,note_on,,0,0,12,,,,,,,,12,,,53,92
22176,note_on,,96,0,12,,,,,,,,12,,,50,0
22270,note_on,,94,0,4,,,,,,,,3,,,53,0
22272,note_on,,96,0,9,,,,,,,,8,,,41,0
22272,note_on,,0,0,12,,,,,,,,12,,,55,92
22272,note_on,,0,0,9,,,,,,,,8,,,43,75
22272,note_on,,96,0,8,,,,,,,,7,,,53,0
22272,note_on,,0,0,8,,,,,,,,7,,,55,92
22272,note_on,,2,0,4,,,,,,,,3,,,55,127
22272,note_on,,96,0,12,,,,,,,,12,,,53,0
22366,note_on,,94,0,4,,,,,,,,3,,,55,0
22368,note_on,,96,0,12,,,,,,,,12,,,55,0
22368,note_on,,0,0,12,,,,,,,,12,,,57,92
22368,note_on,,0,0,9,,,,,,,,8,,,45,75
22368,note_on,,96,0,9,,,,,,,,8,,,43,0
22368,note_on,,2,0,4,,,,,,,,3,,,57,127
22368,note_on,,96,0,8,,,,,,,,7,,,55,0
22368,note_on,,0,0,8,,,,,,,,7,,,57,92
22462,note_on,,94,0,4,,,,,,,,3,,,57,0
22464,note_on,,2,0,4,,,,,,,,3,,,58,127
22464,note_on,,96,0,9,,,,,,,,8,,,45,0
22464,note_on,,0,0,9,,,,,,,,8,,,46,75
22464,note_on,,0,0,12,,,,,,,,12,,,58,92
22464,note_on,,96,0,12,,,,,,,,12,,,57,0
22464,note_on,,96,0,8,,,,,,,,7,,,57,0
22464,note_on,,0,0,8,,,,,,,,7,,,58,92
22624,note_on,,160,0,4,,,,,,,,3,,,58,0
22656,note_on,,0,0,8,,,,,,,,7,,,51,92
22656,note_on,,32,0,4,,,,,,,,3,,,51,127
22656,note_on,,192,0,8,,,,,,,,7,,,58,0
22656,note_on,,192,0,9,,,,,,,,8,,,46,0
22656,note_on,,0,0,9,,,,,,,,8,,,39,75
22656,note_on,,0,0,12,,,,,,,,12,,,51,92
22656,note_on,,192,0,12,,,,,,,,12,,,58,0
22816,note_on,,160,0,4,,,,,,,,3,,,51,0
22848,note_on,,32,0,4,,,,,,,,3,,,50,127
22848,note_on,,0,0,12,,,,,,,,12,,,50,92
22848,note_on,,192,0,12,,,,,,,,12,,,51,0
22848,note_on,,192,0,9,,,,,,,,8,,,39,0
22848,note_on,,0,0,9,,,,,,,,8,,,38,75
22848,note_on,,192,0,8,,,,,,,,7,,,51,0
22848,note_on,,0,0,8,,,,,,,,7,,,50,92
22990,note_on,,142,0,4,,,,,,,,3,,,50,0
22992,note_on,,0,0,12,,,,,,,,12,,,51,92
22992,note_on,,0,0,9,,,,,,,,8,,,39,75
22992,note_on,,144,0,9,,,,,,,,8,,,38,0
22992,note_on,,144,0,8,,,,,,,,7,,,50,0
22992,note_on,,0,0,8,,,,,,,,7,,,51,92
22992,note_on,,2,0,4,,,,,,,,3,,,51,127
22992,note_on,,144,0,12,,,,,,,,12,,,50,0
23038,note_on,,46,0,4,,,,,,,,3,,,51,0
23040,note_on,,48,0,9,,,,,,,,8,,,39,0
23040,note_on,,0,0,12,,,,,,,,12,,,48,92
23040,note_on,,48,0,12,,,,,,,,12,,,51,0
23040,note_on,,48,0,8,,,,,,,,7,,,51,0
23040,note_on,,0,0,9,,,,,,,,8,,,36,75
23040,note_on,,2,0,4,,,,,,,,3,,,48,127
23040,note_on,,0,0,8,,,,,,,,7,,,48,92
23200,note_on,,160,0,4,,,,,,,,3,,,48,0
23232,note_on,,0,0,9,,,,,,,,8,,,34,75
23232,note_on,,0,0,8,,,,,,,,7,,,46,92
23232,note_on,,192,0,8,,,,,,,,7,,,48,0
23232,note_on,,2112,0,6,,,,,,,,5,,,65,108
23232,note_on,,192,0,9,,,,,,,,8,,,36,0
23232,note_on,,0,0,12,,,,,,,,12,,,46,92
23232,note_on,,192,0,12,,,,,,,,12,,,48,0
23232,note_on,,32,0,4,,,,,,,,3,,,46,127
23328,note_on,,96,0,12,,,,,,,,12,,,46,0
23328,note_on,,0,0,9,,,,,,,,8,,,46,75
23328,note_on,,96,0,8,,,,,,,,7,,,46,0
23328,note_on,,0,0,8,,,,,,,,7,,,58,92
23328,note_on,,96,0,9,,,,,,,,8,,,34,0
23328,note_on,,0,0,12,,,,,,,,12,,,58,92
23392,note_on,,160,0,4,,,,,,,,3,,,46,0
23424,note_on,,0,0,9,,,,,,,,8,,,45,75
23424,note_on,,96,0,9,,,,,,,,8,,,46,0
23424,note_on,,96,0,8,,,,,,,,7,,,58,0
23424,note_on,,0,0,8,,,,,,,,7,,,57,92
23424,note_on,,0,0,12,,,,,,,,12,,,57,92
23424,note_on,,192,0,6,,,,,,,,5,,,65,0
23424,note_on,,96,0,12,,,,,,,,12,,,58,0
23520,note_on,,96,0,12,,,,,,,,12,,,57,0
23520,note_on,,2400,0,7,,,,,,,,6,,,65,92
23520,note_on,,0,0,8,,,,,,,,7,,,53,92
23520,note_on,,0,0,12,,,,,,,,12,,,53,92
23520,note_on,,0,0,9,,,,,,,,8,,,41,75
23520,note_on,,96,0,9,,,,,,,,8,,,45,0
23520,note_on,,96,0,6,,,,,,,,5,,,65,108
23520,note_on,,96,0,8,,,,,,,,7,,,57,0
23520,note_on,,2592,0,2,,,,,,,,1,,,65,127
23614,note_on,,94,0,2,,,,,,,,1,,,65,0
23616,note_on,,0,0,8,,,,,,,,7,,,58,92
23616,note_on,,96,0,7,,,,,,,,6,,,65,0
23616,note_on,,0,0,7,,,,,,,,6,,,62,92
23616,note_on,,0,0,9,,,,,,,,8,,,46,75
23616,note_on,,0,0,12,,,,,,,,12,,,58,92
23616,note_on,,96,0,12,,,,,,,,12,,,53,0
23616,note_on,,96,0,9,,,,,,,,8,,,41,0
23616,note_on,,96,0,6,,,,,,,,5,,,65,0
23616,note_on,,0,0,6,,,,,,,,5,,,62,108
23616,note_on,,2,0,2,,,,,,,,1,,,62,127
23616,note_on,,96,0,8,,,,,,,,7,,,53,0
23758,note_on,,142,0,2,,,,,,,,1,,,62,0
23760,note_on,,0,0,6,,,,,,,,5,,,60,108
23760,note_on,,144,0,6,,,,,,,,5,,,62,0
23760,note_on,,0,0,7,,,,,,,,6,,,60,92
23760,note_on,,2,0,2,,,,,,,,1,,,60,127
23760,note_on,,144,0,7,,,,,,,,6,,,62,0
23806,note_on,,46,0,2,,,,,,,,1,,,60,0
23808,note_on,,192,0,8,,,,,,,,7,,,58,0
23808,note_on,,0,0,6,,,,,,,,5,,,62,108
23808,note_on,,48,0,6,,,,,,,,5,,,60,0
23808,note_on,,0,0,7,,,,,,,,6,,,62,92
23808,note_on,,0,0,9,,,,,,,,8,,,34,75
23808,note_on,,2,0,2,,,,,,,,1,,,62,127
23808,note_on,,48,0,7,,,,,,,,6,,,60,0
23808,note_on,,192,0,12,,,,,,,,12,,,58,0
23808,note_on,,0,0,12,,,,,,,,12,,,46,92
23808,note_on,,0,0,8,,,,,,,,7,,,46,92
23808,note_on,,192,0,9,,,,,,,,8,,,46,0
23902,note_on,,94,0,2,,,,,,,,1,,,62,0
23904,note_on,,2,0,2,,,,,,,,1,,,58,127
23904,note_on,,0,0,6,,,,,,,,5,,,58,108
23904,note_on,,96,0,6,,,,,,,,5,,,62,0
23904,note_on,,96,0,8,,,,,,,,7,,,46,0
23904,note_on,,0,0,8,,,,,,,,7,,,58,92
23904,note_on,,0,0,9,,,,,,,,8,,,46,75
23904,note_on,,0,0,7,,,,,,,,6,,,58,92
23904,note_on,,96,0,9,,,,,,,,8,,,34,0
23904,note_on,,512,0,4,,,,,,,,3,,,58,127
23904,note_on,,0,0,12,,,,,,,,12,,,58,92
23904,note_on,,96,0,12,,,,,,,,12,,,46,0
23904,note_on,,96,0,7,,,,,,,,6,,,62,0
23998,note_on,,94,0,2,,,,,,,,1,,,58,0
23998,note_on,,94,0,4,,,,,,,,3,,,58,0
24000,note_on,,96,0,7,,,,,,,,6,,,58,0
24000,note_on,,96,0,12,,,,,,,,12,,,58,0
24000,note_on,,0,0,6,,,,,,,,5,,,65,108
24000,note_on,,96,0,6,,,,,,,,5,,,58,0
24000,note_on,,0,0,12,,,,,,,,12,,,57,92
24000,note_on,,2,0,4,,,,,,,,3,,,57,127
24000,note_on,,0,0,8,,,,,,,,7,,,57,92
24000,note_on,,96,0,8,,,,,,,,7,,,58,0
24000,note_on,,0,0,9,,,,,,,,8,,,45,75
24000,note_on,,96,0,9,,,,,,,,8,,,46,0
24000,note_on,,0,0,7,,,,,,,,6,,,65,92
24000,note_on,,2,0,2,,,,,,,,1,,,65,127
24142,note_on,,142,0,4,,,,,,,,3,,,57,0
24144,note_on,,2,0,4,,,,,,,,3,,,55,127
24144,note_on,,0,0,8,,,,,,,,7,,,55,92
24144,note_on,,0,0,12,,,,,,,,12,,,55,92
24144,note_on,,144,0,12,,,,,,,,12,,,57,0
24144,note_on,,144,0,9,,,,,,,,8,,,45,0
24144,note_on,,0,0,9,,,,,,,,8,,,43,75
24144,note_on,,144,0,8,,,,,,,,7,,,57,0
24160,note_on,,160,0,2,,,,,,,,1,,,65,0
24190,note_on,,46,0,4,,,,,,,,3,,,55,0
24192,note_on,,48,0,8,,,,,,,,7,,,55,0
24192,note_on,,0,0,7,,,,,,,,6,,,63,92
24192,note_on,,192,0,7,,,,,,,,6,,,65,0
24192,note_on,,32,0,2,,,,,,,,1,,,63,127
24192,note_on,,0,0,8,,,,,,,,7,,,57,92
24192,note_on,,192,0,6,,,,,,,,5,,,65,0
24192,note_on,,48,0,12,,,,,,,,12,,,55,0
24192,note_on,,0,0,12,,,,,,,,12,,,57,92
24192,note_on,,2,0,4,,,,,,,,3,,,57,127
24192,note_on,,48,0,9,,,,,,,,8,,,43,0
24192,note_on,,0,0,9,,,,,,,,8,,,45,75
24192,note_on,,0,0,6,,,,,,,,5,,,63,108
24286,note_on,,94,0,4,,,,,,,,3,,,57,0
24288,note_on,,96,0,12,,,,,,,,12,,,57,0
24288,note_on,,0,0,12,,,,,,,,12,,,53,92
24288,note_on,,0,0,8,,,,,,,,7,,,53,92
24288,note_on,,96,0,8,,,,,,,,7,,,57,0
24288,note_on,,96,0,9,,,,,,,,8,,,45,0
24288,note_on,,0,0,9,,,,,,,,8,,,41,75
24288,note_on,,2,0,4,,,,,,,,3,,,53,127
24352,note_on,,160,0,2,,,,,,,,1,,,63,0
24382,note_on,,94,0,4,,,,,,,,3,,,53,0
24384,note_on,,0,0,6,,,,,,,,5,,,62,108
24384,note_on,,0,0,9,,,,,,,,8,,,46,75
24384,note_on,,96,0,9,,,,,,,,8,,,41,0
24384,note_on,,32,0,2,,,,,,,,1,,,62,127
24384,note_on,,2,0,4,,,,,,,,3,,,58,127
24384,note_on,,96,0,12,,,,,,,,12,,,53,0
24384,note_on,,0,0,12,,,,,,,,12,,,58,92
24384,note_on,,192,0,6,,,,,,,,5,,,63,0
24384,note_on,,96,0,8,,,,,,,,7,,,53,0
24384,note_on,,192,0,7,,,,,,,,6,,,63,0
24384,note_on,,0,0,8,,,,,,,,7,,,58,92
24384,note_on,,0,0,7,,,,,,,,6,,,62,92
24478,note_on,,94,0,2,,,,,,,,1,,,62,0
24480,note_on,,0,0,6,,,,,,,,5,,,65,108
24480,note_on,,96,0,6,,,,,,,,5,,,62,0
24480,note_on,,96,0,7,,,,,,,,6,,,62,0
24480,note_on,,2,0,2,,,,,,,,1,,,65,127
24480,note_on,,0,0,7,,,,,,,,6,,,65,92
24544,note_on,,160,0,4,,,,,,,,3,,,58,0
24574,note_on,,94,0,2,,,,,,,,1,,,65,0
24576,note_on,,32,0,4,,,,,,,,3,,,63,127
24576,note_on,,2,0,2,,,,,,,,1,,,67,127
24576,note_on,,96,0,7,,,,,,,,6,,,65,0
24576,note_on,,192,0,12,,,,,,,,12,,,58,0
24576,note_on,,0,0,12,,,,,,,,12,,,63,92
24576,note_on,,0,0,7,,,,,,,,6,,,67,92
24576,note_on,,192,0,8,,,,,,,,7,,,58,0
24576,note_on,,0,0,6,,,,,,,,5,,,67,108
24576,note_on,,192,0,9,,,,,,,,8,,,46,0
24576,note_on,,0,0,9,,,,,,,,8,,,51,75
24576,note_on,,96,0,6,,,,,,,,5,,,65,0
24576,note_on,,0,0,8,,,,,,,,7,,,63,92
24670,note_on,,94,0,2,,,,,,,,1,,,67,0
24672,note_on,,0,0,7,,,,,,,,6,,,69,92
24672,note_on,,0,0,6,,,,,,,,5,,,69,108
24672,note_on,,96,0,6,,,,,,,,5,,,67,0
24672,note_on,,2,0,2,,,,,,,,1,,,69,127
24672,note_on,,96,0,7,,,,,,,,6,,,67,0
24736,note_on,,160,0,4,,,,,,,,3,,,63,0
24766,note_on,,94,0,2,,,,,,,,1,,,69,0
24768,note_on,,96,0,7,,,,,,,,6,,,69,0
24768,note_on,,192,0,9,,,,,,,,8,,,51,0
24768,note_on,,0,0,9,,,,,,,,8,,,50,75
24768,note_on,,0,0,7,,,,,,,,6,,,70,92
24768,note_on,,0,0,6,,,,,,,,5,,,70,108
24768,note_on,,192,0,12,,,,,,,,12,,,63,0
24768,note_on,,0,0,12,,,,,,,,12,,,62,92
24768,note_on,,192,0,8,,,,,,,,7,,,63,0
24768,note_on,,32,0,4,,,,,,,,3,,,62,127
24768,note_on,,96,0,6,,,,,,,,5,,,69,0
24768,note_on,,0,0,8,,,,,,,,7,,,62,92
24768,note_on,,2,0,2,,,,,,,,1,,,70,127
24862,note_on,,94,0,4,,,,,,,,3,,,62,0
24864,note_on,,96,0,8,,,,,,,,7,,,62,0
24864,note_on,,0,0,8,,,,,,,,7,,,53,92
24864,note_on,,0,0,9,,,,,,,,8,,,41,75
24864,note_on,,96,0,9,,,,,,,,8,,,50,0
24864,note_on,,2,0,4,,,,,,,,3,,,53,127
24864,note_on,,96,0,12,,,,,,,,12,,,62,0
24864,note_on,,0,0,12,,,,,,,,12,,,53,92
24928,note_on,,160,0,2,,,,,,,,1,,,70,0
24958,note_on,,94,0,4,,,,,,,,3,,,53,0
24960,note_on,,192,0,7,,,,,,,,6,,,70,0
24960,note_on,,0,0,7,,,,,,,,6,,,63,92
24960,note_on,,0,0,6,,,,,,,,5,,,63,108
24960,note_on,,192,0,6,,,,,,,,5,,,70,0
24960,note_on,,2,0,4,,,,,,,,3,,,55,127
24960,note_on,,0,0,12,,,,,,,,12,,,55,92
24960,note_on,,96,0,8,,,,,,,,7,,,53,0
24960,note_on,,0,0,8,,,,,,,,7,,,55,92
24960,note_on,,0,0,9,,,,,,,,8,,,43,75
24960,note_on,,96,0,9,,,,,,,,8,,,41,0
24960,note_on,,96,0,12,,,,,,,,12,,,53,0
24960,note_on,,32,0,2,,,,,,,,1,,,63,127
25054,note_on,,94,0,4,,,,,,,,3,,,55,0
25056,note_on,,96,0,12,,,,,,,,12,,,55,0
25056,note_on,,0,0,8,,,,,,,,7,,,57,92
25056,note_on,,96,0,8,,,,,,,,7,,,55,0
25056,note_on,,0,0,9,,,,,,,,8,,,45,75
25056,note_on,,96,0,9,,,,,,,,8,,,43,0
25056,note_on,,0,0,12,,,,,,,,12,,,57,92
25056,note_on,,2,0,4,,,,,,,,3,,,57,127
25120,note_on,,160,0,2,,,,,,,,1,,,63,0
25150,note_on,,94,0,4,,,,,,,,3,,,57,0
25152,note_on,,0,0,12,,,,,,,,12,,,58,92
25152,note_on,,2,0,4,,,,,,,,3,,,58,127
25152,note_on,,96,0,12,,,,,,,,12,,,57,0
25152,note_on,,32,0,2,,,,,,,,1,,,62,127
25152,note_on,,192,0,6,,,,,,,,5,,,63,0
25152,note_on,,96,0,8,,,,,,,,7,,,57,0
25152,note_on,,0,0,6,,,,,,,,5,,,62,108
25152,note_on,,96,0,9,,,,,,,,8,,,45,0
25152,note_on,,192,0,7,,,,,,,,6,,,63,0
25152,note_on,,0,0,7,,,,,,,,6,,,62,92
25152,note_on,,0,0,9,,,,,,,,8,,,46,75
25152,note_on,,0,0,8,,,,,,,,7,,,58,92
25294,note_on,,142,0,2,,,,,,,,1,,,62,0
25296,note_on,,2,0,2,,,,,,,,1,,,63,127
25296,note_on,,144,0,6,,,,,,,,5,,,62,0
25296,note_on,,0,0,6,,,,,,,,5,,,63,108
25296,note_on,,0,0,7,,,,,,,,6,,,63,92
25296,note_on,,144,0,7,,,,,,,,6,,,62,0
25312,note_on,,160,0,4,,,,,,,,3,,,58,0
25342,note_on,,46,0,2,,,,,,,,1,,,63,0
25344,note_on,,0,0,6,,,,,,,,5,,,60,108
25344,note_on,,0,0,7,,,,,,,,6,,,60,92
25344,note_on,,48,0,7,,,,,,,,6,,,63,0
25344,note_on,,32,0,4,,,,,,,,3,,,53,127
25344,note_on,,48,0,6,,,,,,,,5,,,63,0
25344,note_on,,2,0,2,,,,,,,,1,,,60,127
25344,note_on,,0,0,8,,,,,,,,7,,,53,92
25344,note_on,,192,0,9,,,,,,,,8,,,46,0
25344,note_on,,0,0,9,,,,,,,,8,,,41,75
25344,note_on,,192,0,8,,,,,,,,7,,,58,0
25344,note_on,,192,0,12,,,,,,,,12,,,58,0
25344,note_on,,0,0,12,,,,,,,,12,,,53,92
25504,note_on,,160,0,2,,,,,,,,1,,,60,0
25504,note_on,,160,0,4,,,,,,,,3,,,53,0
25536,note_on,,192,0,6,,,,,,,,5,,,60,0
25536,note_on,,0,0,6,,,,,,,,5,,,58,108
25536,note_on,,0,0,7,,,,,,,,6,,,58,92
25536,note_on,,192,0,7,,,,,,,,6,,,60,0
25536,note_on,,32,0,4,,,,,,,,3,,,55,127
25536,note_on,,192,0,9,,,,,,,,8,,,41,0
25536,note_on,,0,0,9,,,,,,,,8,,,43,75
25536,note_on,,192,0,8,,,,,,,,7,,,53,0
25536,note_on,,0,0,8,,,,,,,,7,,,55,92
25536,note_on,,0,0,12,,,,,,,,12,,,55,92
25536,note_on,,192,0,12,,,,,,,,12,,,53,0
25536,note_on,,32,0,2,,,,,,,,1,,,58,127
25632,note_on,,96,0,2,,,,,,,,1,,,58,0
25632,note_on,,96,0,7,,,,,,,,6,,,58,0
25632,note_on,,0,0,6,,,,,,,,5,,,60,108
25632,note_on,,0,0,7,,,,,,,,6,,,60,92
25632,note_on,,96,0,6,,,,,,,,5,,,58,0
25632,note_on,,0,0,2,,,,,,,,1,,,60,127
25728,note_on,,96,0,6,,,,,,,,5,,,60,0
25728,note_on,,0,0,2,,,,,,,,1,,,62,127
25728,note_on,,96,0,7,,,,,,,,6,,,60,0
25728,note_on,,0,0,7,,,,,,,,6,,,62,92
25728,note_on,,0,0,6,,,,,,,,5,,,62,108
25728,note_on,,96,0,2,,,,,,,,1,,,60,0
25792,note_on,,256,0,4,,,,,,,,3,,,55,0
25824,note_on,,96,0,2,,,,,,,,1,,,62,0
25824,note_on,,96,0,7,,,,,,,,6,,,62,0
25824,note_on,,0,0,7,,,,,,,,6,,,64,92
25824,note_on,,4704,0,10,,,,,,,,10,,,70,92
25824,note_on,,96,0,6,,,,,,,,5,,,62,0
25824,note_on,,0,0,6,,,,,,,,5,,,64,108
25824,note_on,,0,0,2,,,,,,,,1,,,64,127
25824,note_on,,0,0,12,,,,,,,,12,,,55,92
25824,note_on,,288,0,9,,,,,,,,8,,,43,0
25824,note_on,,32,0,4,,,,,,,,3,,,55,127
25824,note_on,,4704,0,5,,,,,,,,4,,,70,108
25824,note_on,,0,0,9,,,,,,,,8,,,43,75
25824,note_on,,4896,0,1,,,,,,,,0,,,70,127
25824,note_on,,288,0,8,,,,,,,,7,,,55,0
25824,note_on,,4704,0,11,,,,,,,,11,,,70,92
25824,note_on,,288,0,12,,,,,,,,12,,,55,0
25824,note_on,,0,0,8,,,,,,,,7,,,55,92
25918,note_on,,94,0,1,,,,,,,,0,,,70,0
25918,note_on,,94,0,4,,,,,,,,3,,,55,0
25920,note_on,,96,0,8,,,,,,,,7,,,55,0
25920,note_on,,0,0,8,,,,,,,,7,,,53,92
25920,note_on,,96,0,6,,,,,,,,5,,,64,0
25920,note_on,,0,0,12,,,,,,,,12,,,53,92
25920,note_on,,96,0,12,,,,,,,,12,,,55,0
25920,note_on,,0,0,10,,,,,,,,10,,,69,92
25920,note_on,,0,0,9,,,,,,,,8,,,41,75
25920,note_on,,0,0,2,,,,,,,,1,,,65,127
25920,note_on,,96,0,2,,,,,,,,1,,,64,0
25920,note_on,,2,0,4,,,,,,,,3,,,53,127
25920,note_on,,96,0,5,,,,,,,,4,,,70,0
25920,note_on,,0,0,5,,,,,,,,4,,,69,108
25920,note_on,,2,0,1,,,,,,,,0,,,69,127
25920,note_on,,0,0,11,,,,,,,,11,,,69,92
25920,note_on,,96,0,7,,,,,,,,6,,,64,0
25920,note_on,,0,0,7,,,,,,,,6,,,65,92
25920,note_on,,96,0,11,,,,,,,,11,,,70,0
25920,note_on,,96,0,10,,,,,,,,10,,,70,0
25920,note_on,,96,0,9,,,,,,,,8,,,43,0
25920,note_on,,0,0,6,,,,,,,,5,,,65,108
26062,note_on,,142,0,1,,,,,,,,0,,,69,0
26064,note_on,,144,0,10,,,,,,,,10,,,69,0
26064,note_on,,2,0,1,,,,,,,,0,,,67,127
26064,note_on,,0,0,5,,,,,,,,4,,,67,108
26064,note_on,,144,0,5,,,,,,,,4,,,69,0
26064,note_on,,144,0,11,,,,,,,,11,,,69,0
26064,note_on,,0,0,11,,,,,,,,11,,,67,92
26064,note_on,,0,0,10,,,,,,,,10,,,67,92
26080,note_on,,160,0,4,,,,,,,,3,,,53,0
26080,note_on,,160,0,2,,,,,,,,1,,,65,0
26110,note_on,,46,0,1,,,,,,,,0,,,67,0
26112,note_on,,192,0,8,,,,,,,,7,,,53,0
26112,note_on,,192,0,9,,,,,,,,8,,,41,0
26112,note_on,,48,0,11,,,,,,,,11,,,67,0
26112,note_on,,0,0,11,,,,,,,,11,,,69,92
26112,note_on,,192,0,7,,,,,,,,6,,,65,0
26112,note_on,,48,0,5,,,,,,,,4,,,67,0
26112,note_on,,0,0,5,,,,,,,,4,,,69,108
26112,note_on,,0,0,10,,,,,,,,10,,,69,92
26112,note_on,,48,0,10,,,,,,,,10,,,67,0
26112,note_on,,0,0,8,,,,,,,,7,,,69,127
26112,program_change,,0,0,8,,,,,,,19,7,,,,
26112,note_on,,192,0,12,,,,,,,,12,,,53,0
26112,note_on,,192,0,6,,,,,,,,5,,,65,0
26112,note_on,,2,0,1,,,,,,,,0,,,69,127
26206,note_on,,94,0,1,,,,,,,,0,,,69,0
26208,note_on,,96,0,7,,,,,,,,6,,,65,92
26208,note_on,,128,0,2,,,,,,,,1,,,65,127
26208,note_on,,96,0,6,,,,,,,,5,,,65,108
26208,note_on,,0,0,10,,,,,,,,10,,,65,92
26208,note_on,,96,0,10,,,,,,,,10,,,69,0
26208,note_on,,0,0,5,,,,,,,,4,,,65,108
26208,note_on,,2,0,1,,,,,,,,0,,,65,127
26208,note_on,,96,0,11,,,,,,,,11,,,69,0
26208,note_on,,96,0,8,,,,,,,,7,,,69,0
26208,note_on,,0,0,8,,,,,,,,7,,,65,127
26208,note_on,,0,0,11,,,,,,,,11,,,65,92
26208,note_on,,96,0,5,,,,,,,,4,,,69,0
26302,note_on,,94,0,1,,,,,,,,0,,,65,0
26302,note_on,,94,0,2,,,,,,,,1,,,65,0
26304,note_on,,96,0,6,,,,,,,,5,,,65,0
26304,note_on,,2,0,1,,,,,,,,0,,,72,127
26304,note_on,,96,0,8,,,,,,,,7,,,65,0
26304,note_on,,0,0,8,,,,,,,,7,,,64,127
26304,note_on,,0,0,8,,,,,,,,7,,,72,127
26304,note_on,,96,0,10,,,,,,,,10,,,65,0
26304,note_on,,0,0,10,,,,,,,,10,,,72,92
26304,note_on,,96,0,11,,,,,,,,11,,,65,0
26304,note_on,,96,0,7,,,,,,,,6,,,65,0
26304,note_on,,0,0,7,,,,,,,,6,,,64,92
26304,note_on,,0,0,5,,,,,,,,4,,,72,108
26304,note_on,,2,0,2,,,,,,,,1,,,64,127
26304,note_on,,96,0,5,,,,,,,,4,,,65,0
26304,note_on,,0,0,11,,,,,,,,11,,,72,92
26304,note_on,,0,0,6,,,,,,,,5,,,64,108
26446,note_on,,142,0,2,,,,,,,,1,,,64,0
26448,note_on,,0,0,8,,,,,,,,7,,,62,127
26448,note_on,,144,0,7,,,,,,,,6,,,64,0
26448,note_on,,0,0,7,,,,,,,,6,,,62,92
26448,note_on,,144,0,8,,,,,,,,7,,,64,0
26448,note_on,,144,0,6,,,,,,,,5,,,64,0
26448,note_on,,0,0,6,,,,,,,,5,,,62,108
26448,note_on,,2,0,2,,,,,,,,1,,,62,127
26464,note_on,,160,0,1,,,,,,,,0,,,72,0
26494,note_on,,46,0,2,,,,,,,,1,,,62,0
26496,note_on,,48,0,8,,,,,,,,7,,,72,0
26496,note_on,,192,0,11,,,,,,,,11,,,72,0
26496,note_on,,0,0,10,,,,,,,,10,,,70,92
26496,note_on,,0,0,8,,,,,,,,7,,,70,127
26496,note_on,,0,0,7,,,,,,,,6,,,64,92
26496,note_on,,48,0,7,,,,,,,,6,,,62,0
26496,note_on,,0,0,8,,,,,,,,7,,,64,127
26496,note_on,,0,0,8,,,,,,,,7,,,62,0
26496,note_on,,0,0,6,,,,,,,,5,,,64,108
26496,note_on,,48,0,6,,,,,,,,5,,,62,0
26496,note_on,,0,0,11,,,,,,,,11,,,70,92
26496,note_on,,192,0,10,,,,,,,,10,,,72,0
26496,note_on,,0,0,5,,,,,,,,4,,,70,108
26496,note_on,,192,0,5,,,,,,,,4,,,72,0
26496,note_on,,32,0,1,,,,,,,,0,,,70,127
26496,note_on,,2,0,2,,,,,,,,1,,,64,127
26590,note_on,,94,0,2,,,,,,,,1,,,64,0
26592,note_on,,0,0,8,,,,,,,,7,,,60,127
26592,note_on,,96,0,7,,,,,,,,6,,,64,0
26592,note_on,,0,0,7,,,,,,,,6,,,60,92
26592,note_on,,2,0,2,,,,,,,,1,,,60,127
26592,note_on,,96,0,6,,,,,,,,5,,,64,0
26592,note_on,,0,0,6,,,,,,,,5,,,60,108
26592,note_on,,96,0,8,,,,,,,,7,,,64,0
26656,note_on,,160,0,1,,,,,,,,0,,,70,0
26686,note_on,,94,0,2,,,,,,,,1,,,60,0
26688,note_on,,0,0,11,,,,,,,,11,,,69,92
26688,note_on,,192,0,11,,,,,,,,11,,,70,0
26688,note_on,,0,0,10,,,,,,,,10,,,69,92
26688,note_on,,192,0,10,,,,,,,,10,,,70,0
26688,note_on,,96,0,8,,,,,,,,7,,,70,0
26688,note_on,,0,0,8,,,,,,,,7,,,60,0
26688,note_on,,0,0,5,,,,,,,,4,,,69,108
26688,note_on,,0,0,8,,,,,,,,7,,,69,127
26688,note_on,,2,0,2,,,,,,,,1,,,65,127
26688,note_on,,192,0,5,,,,,,,,4,,,70,0
26688,note_on,,96,0,6,,,,,,,,5,,,60,0
26688,note_on,,0,0,6,,,,,,,,5,,,65,108
26688,note_on,,0,0,7,,,,,,,,6,,,65,92
26688,note_on,,32,0,1,,,,,,,,0,,,69,127
26688,note_on,,0,0,8,,,,,,,,7,,,65,127
26688,note_on,,96,0,7,,,,,,,,6,,,60,0
26782,note_on,,94,0,1,,,,,,,,0,,,69,0
26784,note_on,,96,0,11,,,,,,,,11,,,69,0
26784,note_on,,0,0,5,,,,,,,,4,,,72,108
26784,note_on,,96,0,5,,,,,,,,4,,,69,0
26784,note_on,,0,0,11,,,,,,,,11,,,72,92
26784,note_on,,0,0,8,,,,,,,,7,,,72,127
26784,note_on,,2,0,1,,,,,,,,0,,,72,127
26784,note_on,,96,0,10,,,,,,,,10,,,69,0
26784,note_on,,0,0,10,,,,,,,,10,,,72,92
26784,note_on,,96,0,8,,,,,,,,7,,,69,0
26848,note_on,,160,0,2,,,,,,,,1,,,65,0
26878,note_on,,94,0,1,,,,,,,,0,,,72,0
26880,note_on,,0,0,8,,,,,,,,7,,,74,127
26880,note_on,,192,0,7,,,,,,,,6,,,65,0
26880,note_on,,0,0,8,,,,,,,,7,,,72,0
26880,note_on,,96,0,8,,,,,,,,7,,,65,0
26880,note_on,,32,0,2,,,,,,,,1,,,70,127
26880,note_on,,96,0,5,,,,,,,,4,,,72,0
26880,note_on,,0,0,5,,,,,,,,4,,,74,108
26880,note_on,,96,0,11,,,,,,,,11,,,72,0
26880,note_on,,2,0,1,,,,,,,,0,,,74,127
26880,note_on,,0,0,6,,,,,,,,5,,,70,108
26880,note_on,,0,0,7,,,,,,,,6,,,70,92
26880,note_on,,0,0,8,,,,,,,,7,,,70,127
26880,note_on,,192,0,6,,,,,,,,5,,,65,0
26880,note_on,,0,0,11,,,,,,,,11,,,74,92
26880,note_on,,0,0,10,,,,,,,,10,,,74,92
26880,note_on,,96,0,10,,,,,,,,10,,,72,0
26974,note_on,,94,0,1,,,,,,,,0,,,74,0
26976,note_on,,0,0,5,,,,,,,,4,,,76,108
26976,note_on,,96,0,8,,,,,,,,7,,,74,0
26976,note_on,,0,0,10,,,,,,,,10,,,76,92
26976,note_on,,96,0,10,,,,,,,,10,,,74,0
26976,note_on,,96,0,5,,,,,,,,4,,,74,0
26976,note_on,,0,0,11,,,,,,,,11,,,76,92
26976,note_on,,2,0,1,,,,,,,,0,,,76,127
26976,note_on,,0,0,8,,,,,,,,7,,,76,127
26976,note_on,,96,0,11,,,,,,,,11,,,74,0
27040,note_on,,160,0,2,,,,,,,,1,,,70,0
27070,note_on,,94,0,1,,,,,,,,0,,,76,0
27072,note_on,,192,0,6,,,,,,,,5,,,70,0
27072,note_on,,0,0,8,,,,,,,,7,,,76,0
27072,note_on,,0,0,10,,,,,,,,10,,,77,92
27072,note_on,,0,0,8,,,,,,,,7,,,69,127
27072,note_on,,0,0,8,,,,,,,,7,,,77,127
27072,note_on,,96,0,10,,,,,,,,10,,,76,0
27072,note_on,,192,0,7,,,,,,,,6,,,70,0
27072,note_on,,0,0,7,,,,,,,,6,,,69,92
27072,note_on,,0,0,11,,,,,,,,11,,,77,92
27072,note_on,,0,0,6,,,,,,,,5,,,69,108
27072,note_on,,0,0,5,,,,,,,,4,,,77,108
27072,note_on,,96,0,8,,,,,,,,7,,,70,0
27072,note_on,,96,0,5,,,,,,,,4,,,76,0
27072,note_on,,96,0,11,,,,,,,,11,,,76,0
27072,note_on,,32,0,2,,,,,,,,1,,,69,127
27072,note_on,,2,0,1,,,,,,,,0,,,77,127
27166,note_on,,94,0,2,,,,,,,,1,,,69,0
27168,note_on,,0,0,7,,,,,,,,6,,,60,92
27168,note_on,,96,0,6,,,,,,,,5,,,69,0
27168,note_on,,0,0,8,,,,,,,,7,,,60,127
27168,note_on,,2,0,2,,,,,,,,1,,,60,127
27168,note_on,,96,0,8,,,,,,,,7,,,69,0
27168,note_on,,96,0,7,,,,,,,,6,,,69,0
27168,note_on,,0,0,6,,,,,,,,5,,,60,108
27232,note_on,,160,0,1,,,,,,,,0,,,77,0
27262,note_on,,94,0,2,,,,,,,,1,,,60,0
27264,note_on,,0,0,6,,,,,,,,5,,,62,108
27264,note_on,,2,0,2,,,,,,,,1,,,62,127
27264,note_on,,0,0,8,,,,,,,,7,,,60,0
27264,note_on,,96,0,7,,,,,,,,6,,,60,0
27264,note_on,,0,0,7,,,,,,,,6,,,62,92
27264,note_on,,0,0,8,,,,,,,,7,,,62,127
27264,note_on,,192,0,10,,,,,,,,10,,,77,0
27264,note_on,,0,0,8,,,,,,,,7,,,70,127
27264,note_on,,32,0,1,,,,,,,,0,,,70,127
27264,note_on,,0,0,11,,,,,,,,11,,,70,92
27264,note_on,,192,0,11,,,,,,,,11,,,77,0
27264,note_on,,0,0,5,,,,,,,,4,,,70,108
27264,note_on,,0,0,10,,,,,,,,10,,,70,92
27264,note_on,,96,0,6,,,,,,,,5,,,60,0
27264,note_on,,192,0,5,,,,,,,,4,,,77,0
27264,note_on,,96,0,8,,,,,,,,7,,,77,0
27358,note_on,,94,0,2,,,,,,,,1,,,62,0
27360,note_on,,96,0,7,,,,,,,,6,,,62,0
27360,note_on,,0,0,7,,,,,,,,6,,,64,92
27360,note_on,,0,0,6,,,,,,,,5,,,64,108
27360,note_on,,96,0,6,,,,,,,,5,,,62,0
27360,note_on,,2,0,2,,,,,,,,1,,,64,127
27360,note_on,,96,0,8,,,,,,,,7,,,62,0
27360,note_on,,0,0,8,,,,,,,,7,,,64,127
27424,note_on,,160,0,1,,,,,,,,0,,,70,0
27454,note_on,,94,0,2,,,,,,,,1,,,64,0
27456,note_on,,2,0,2,,,,,,,,1,,,65,127
27456,note_on,,32,0,1,,,,,,,,0,,,69,127
27456,note_on,,0,0,6,,,,,,,,5,,,65,108
27456,note_on,,96,0,6,,,,,,,,5,,,64,0
27456,note_on,,0,0,5,,,,,,,,4,,,69,108
27456,note_on,,0,0,8,,,,,,,,7,,,64,0
27456,note_on,,192,0,10,,,,,,,,10,,,70,0
27456,note_on,,0,0,8,,,,,,,,7,,,65,127
27456,note_on,,0,0,8,,,,,,,,7,,,69,127
27456,note_on,,0,0,7,,,,,,,,6,,,65,92
27456,note_on,,96,0,7,,,,,,,,6,,,64,0
27456,note_on,,192,0,11,,,,,,,,11,,,70,0
27456,note_on,,0,0,11,,,,,,,,11,,,69,92
27456,note_on,,96,0,8,,,,,,,,7,,,70,0
27456,note_on,,0,0,10,,,,,,,,10,,,69,92
27456,note_on,,192,0,5,,,,,,,,4,,,70,0
27550,note_on,,94,0,2,,,,,,,,1,,,65,0
27552,note_on,,96,0,8,,,,,,,,7,,,65,0
27552,program_change,,0,0,8,,,,,,,42,7,,,,
27552,note_on,,0,0,8,,,,,,,,7,,,45,92
27552,note_on,,1440,0,9,,,,,,,,8,,,33,75
27552,note_on,,1472,0,4,,,,,,,,3,,,45,127
27552,note_on,,2,0,2,,,,,,,,1,,,60,127
27552,note_on,,0,0,6,,,,,,,,5,,,60,108
27552,note_on,,96,0,6,,,,,,,,5,,,65,0
27600,note_on,,144,0,5,,,,,,,,4,,,69,0
27600,note_on,,0,0,5,,,,,,,,4,,,70,108
27600,note_on,,144,0,11,,,,,,,,11,,,69,0
27600,note_on,,0,0,10,,,,,,,,10,,,70,92
27600,note_on,,0,0,1,,,,,,,,0,,,70,127
27600,note_on,,144,0,10,,,,,,,,10,,,69,0
27600,note_on,,0,0,11,,,,,,,,11,,,70,92
27600,note_on,,144,0,1,,,,,,,,0,,,69,0
27646,note_on,,94,0,4,,,,,,,,3,,,45,0
27646,note_on,,94,0,2,,,,,,,,1,,,60,0
27646,note_on,,46,0,1,,,,,,,,0,,,70,0
27648,note_on,,192,0,7,,,,,,,,6,,,65,0
27648,note_on,,48,0,11,,,,,,,,11,,,70,0
27648,note_on,,0,0,11,,,,,,,,11,,,67,92
27648,note_on,,0,0,8,,,,,,,,7,,,45,0
27648,note_on,,2,0,4,,,,,,,,3,,,46,127
27648,note_on,,96,0,8,,,,,,,,7,,,69,0
27648,note_on,,0,0,8,,,,,,,,7,,,46,92
27648,note_on,,2,0,2,,,,,,,,1,,,62,127
27648,note_on,,0,0,7,,,,,,,,6,,,58,92
27648,note_on,,96,0,9,,,,,,,,8,,,33,0
27648,note_on,,48,0,10,,,,,,,,10,,,70,0
27648,note_on,,96,0,6,,,,,,,,5,,,60,0
27648,note_on,,0,0,6,,,,,,,,5,,,62,108
27648,note_on,,2,0,1,,,,,,,,0,,,67,127
27648,note_on,,0,0,10,,,,,,,,10,,,67,92
27648,note_on,,0,0,5,,,,,,,,4,,,67,108
27648,note_on,,48,0,5,,,,,,,,4,,,70,0
27648,note_on,,0,0,9,,,,,,,,8,,,34,75
27742,note_on,,94,0,2,,,,,,,,1,,,62,0
27742,note_on,,94,0,4,,,,,,,,3,,,46,0
27744,note_on,,96,0,9,,,,,,,,8,,,34,0
27744,note_on,,0,0,9,,,,,,,,8,,,36,75
27744,note_on,,6816,0,3,,,,,,,,2,,,58,127
27744,note_on,,96,0,6,,,,,,,,5,,,62,0
27744,note_on,,0,0,6,,,,,,,,5,,,64,108
27744,note_on,,96,0,8,,,,,,,,7,,,46,0
27744,note_on,,1632,0,12,,,,,,,,12,,,58,92
27744,note_on,,2,0,2,,,,,,,,1,,,64,127
27744,note_on,,0,0,8,,,,,,,,7,,,48,92
27744,note_on,,2,0,4,,,,,,,,3,,,48,127
27808,note_on,,160,0,1,,,,,,,,0,,,67,0
27838,note_on,,94,0,3,,,,,,,,2,,,58,0
27838,note_on,,94,0,2,,,,,,,,1,,,64,0
27838,note_on,,94,0,4,,,,,,,,3,,,48,0
27840,note_on,,96,0,8,,,,,,,,7,,,48,0
27840,note_on,,96,0,6,,,,,,,,5,,,64,0
27840,note_on,,0,0,6,,,,,,,,5,,,65,108
27840,note_on,,192,0,5,,,,,,,,4,,,67,0
27840,note_on,,0,0,5,,,,,,,,4,,,65,108
27840,note_on,,0,0,8,,,,,,,,7,,,50,92
27840,note_on,,2,0,4,,,,,,,,3,,,50,127
27840,note_on,,2,0,3,,,,,,,,2,,,57,127
27840,note_on,,0,0,9,,,,,,,,8,,,38,75
27840,note_on,,96,0,9,,,,,,,,8,,,36,0
27840,note_on,,0,0,10,,,,,,,,10,,,65,92
27840,note_on,,0,0,12,,,,,,,,12,,,57,92
27840,note_on,,96,0,12,,,,,,,,12,,,58,0
27840,note_on,,0,0,11,,,,,,,,11,,,65,92
27840,note_on,,192,0,11,,,,,,,,11,,,67,0
27840,note_on,,2,0,2,,,,,,,,1,,,65,127
27840,note_on,,192,0,10,,,,,,,,10,,,67,0
27840,note_on,,192,0,7,,,,,,,,6,,,58,0
27840,note_on,,0,0,7,,,,,,,,6,,,57,92
27840,note_on,,32,0,1,,,,,,,,0,,,65,127
27982,note_on,,142,0,3,,,,,,,,2,,,57,0
27982,note_on,,142,0,4,,,,,,,,3,,,50,0
27984,note_on,,0,0,12,,,,,,,,12,,,55,92
27984,note_on,,0,0,9,,,,,,,,8,,,40,75
27984,note_on,,144,0,7,,,,,,,,6,,,57,0
27984,note_on,,144,0,9,,,,,,,,8,,,38,0
27984,note_on,,2,0,4,,,,,,,,3,,,52,127
27984,note_on,,2,0,3,,,,,,,,2,,,55,127
27984,note_on,,144,0,12,,,,,,,,12,,,57,0
27984,note_on,,144,0,8,,,,,,,,7,,,50,0
27984,note_on,,0,0,8,,,,,,,,7,,,52,92
27984,note_on,,0,0,7,,,,,,,,6,,,55,92
28000,note_on,,160,0,1,,,,,,,,0,,,65,0
28000,note_on,,160,0,2,,,,,,,,1,,,65,0
28030,note_on,,46,0,3,,,,,,,,2,,,55,0
28030,note_on,,46,0,4,,,,,,,,3,,,52,0
28032,note_on,,0,0,9,,,,,,,,8,,,41,75
28032,note_on,,2,0,3,,,,,,,,2,,,57,127
28032,note_on,,192,0,11,,,,,,,,11,,,65,0
28032,note_on,,192,0,5,,,,,,,,4,,,65,0
28032,note_on,,48,0,9,,,,,,,,8,,,40,0
28032,note_on,,48,0,8,,,,,,,,7,,,52,0
28032,note_on,,48,0,7,,,,,,,,6,,,55,0
28032,note_on,,0,0,7,,,,,,,,6,,,57,92
28032,note_on,,0,0,8,,,,,,,,7,,,53,92
28032,note_on,,192,0,10,,,,,,,,10,,,65,0
28032,note_on,,0,0,12,,,,,,,,12,,,57,92
28032,note_on,,48,0,12,,,,,,,,12,,,55,0
28032,note_on,,2,0,4,,,,,,,,3,,,53,127
28126,note_on,,94,0,3,,,,,,,,2,,,57,0
28126,note_on,,94,0,4,,,,,,,,3,,,53,0
28128,note_on,,2,0,3,,,,,,,,2,,,53,127
28128,note_on,,0,0,8,,,,,,,,7,,,50,92
28128,note_on,,0,0,6,,,,,,,,5,,,65,108
28128,note_on,,288,0,6,,,,,,,,5,,,65,0
28128,note_on,,96,0,12,,,,,,,,12,,,57,0
28128,note_on,,0,0,12,,,,,,,,12,,,53,92
28128,note_on,,96,0,7,,,,,,,,6,,,57,0
28128,note_on,,0,0,7,,,,,,,,6,,,53,92
28128,note_on,,96,0,8,,,,,,,,7,,,53,0
28128,note_on,,2,0,4,,,,,,,,3,,,50,127
28128,note_on,,96,0,11,,,,,,,,11,,,77,92
28128,note_on,,128,0,1,,,,,,,,0,,,77,127
28128,note_on,,96,0,10,,,,,,,,10,,,77,92
28128,note_on,,96,0,9,,,,,,,,8,,,41,0
28128,note_on,,0,0,9,,,,,,,,8,,,38,75
28128,note_on,,96,0,5,,,,,,,,4,,,77,108
28222,note_on,,94,0,3,,,,,,,,2,,,53,0
28222,note_on,,94,0,1,,,,,,,,0,,,77,0
28222,note_on,,94,0,4,,,,,,,,3,,,50,0
28224,note_on,,2,0,4,,,,,,,,3,,,48,127
28224,note_on,,96,0,11,,,,,,,,11,,,77,0
28224,note_on,,0,0,11,,,,,,,,11,,,76,92
28224,note_on,,2,0,3,,,,,,,,2,,,60,127
28224,note_on,,96,0,10,,,,,,,,10,,,77,0
28224,note_on,,0,0,5,,,,,,,,4,,,76,108
28224,note_on,,96,0,9,,,,,,,,8,,,38,0
28224,note_on,,0,0,9,,,,,,,,8,,,36,75
28224,note_on,,0,0,10,,,,,,,,10,,,76,92
28224,note_on,,224,0,2,,,,,,,,1,,,67,127
28224,note_on,,96,0,5,,,,,,,,4,,,77,0
28224,note_on,,0,0,7,,,,,,,,6,,,60,92
28224,note_on,,0,0,8,,,,,,,,7,,,48,92
28224,note_on,,96,0,8,,,,,,,,7,,,50,0
28224,note_on,,96,0,6,,,,,,,,5,,,65,0
28224,note_on,,0,0,6,,,,,,,,5,,,67,108
28224,note_on,,96,0,12,,,,,,,,12,,,53,0
28224,note_on,,0,0,12,,,,,,,,12,,,60,92
28224,note_on,,2,0,1,,,,,,,,0,,,76,127
28224,note_on,,96,0,7,,,,,,,,6,,,53,0
28366,note_on,,142,0,1,,,,,,,,0,,,76,0
28368,note_on,,144,0,10,,,,,,,,10,,,76,0
28368,note_on,,144,0,11,,,,,,,,11,,,76,0
28368,note_on,,2,0,1,,,,,,,,0,,,74,127
28368,note_on,,0,0,10,,,,,,,,10,,,74,92
28368,note_on,,0,0,11,,,,,,,,11,,,74,92
28368,note_on,,144,0,5,,,,,,,,4,,,76,0
28368,note_on,,0,0,5,,,,,,,,4,,,74,108
28384,note_on,,160,0,3,,,,,,,,2,,,60,0
28384,note_on,,160,0,4,,,,,,,,3,,,48,0
28414,note_on,,46,0,1,,,,,,,,0,,,74,0
28416,note_on,,0,0,10,,,,,,,,10,,,76,92
28416,note_on,,0,0,11,,,,,,,,11,,,76,92
28416,note_on,,48,0,11,,,,,,,,11,,,74,0
28416,note_on,,32,0,3,,,,,,,,2,,,58,127
28416,note_on,,0,0,5,,,,,,,,4,,,76,108
28416,note_on,,192,0,7,,,,,,,,6,,,60,0
28416,note_on,,0,0,7,,,,,,,,6,,,58,92
28416,note_on,,0,0,12,,,,,,,,12,,,58,92
28416,note_on,,2,0,1,,,,,,,,0,,,76,127
28416,note_on,,48,0,5,,,,,,,,4,,,74,0
28416,note_on,,48,0,10,,,,,,,,10,,,74,0
28416,note_on,,192,0,12,,,,,,,,12,,,60,0
28480,note_on,,256,0,2,,,,,,,,1,,,67,0
28510,note_on,,94,0,1,,,,,,,,0,,,76,0
28512,note_on,,96,0,10,,,,,,,,10,,,76,0
28512,note_on,,2,0,1,,,,,,,,0,,,72,127
28512,note_on,,96,0,5,,,,,,,,4,,,76,0
28512,note_on,,0,0,6,,,,,,,,5,,,64,108
28512,note_on,,0,0,5,,,,,,,,4,,,72,108
28512,note_on,,288,0,6,,,,,,,,5,,,67,0
28512,note_on,,0,0,10,,,,,,,,10,,,72,92
28512,note_on,,0,0,11,,,,,,,,11,,,72,92
28512,note_on,,96,0,11,,,,,,,,11,,,76,0
28512,note_on,,32,0,2,,,,,,,,1,,,64,127
28576,note_on,,160,0,3,,,,,,,,2,,,58,0
28606,note_on,,94,0,2,,,,,,,,1,,,64,0
28606,note_on,,94,0,1,,,,,,,,0,,,72,0
28608,note_on,,96,0,5,,,,,,,,4,,,72,0
28608,note_on,,96,0,10,,,,,,,,10,,,72,0
28608,note_on,,384,0,9,,,,,,,,8,,,36,0
28608,note_on,,2,0,2,,,,,,,,1,,,60,127
28608,note_on,,0,0,9,,,,,,,,8,,,45,75
28608,note_on,,2,0,1,,,,,,,,0,,,77,127
28608,note_on,,0,0,12,,,,,,,,12,,,57,92
28608,note_on,,192,0,12,,,,,,,,12,,,58,0
28608,note_on,,0,0,7,,,,,,,,6,,,57,92
28608,note_on,,192,0,7,,,,,,,,6,,,58,0
28608,note_on,,0,0,10,,,,,,,,10,,,77,92
28608,note_on,,32,0,3,,,,,,,,2,,,57,127
28608,note_on,,0,0,8,,,,,,,,7,,,57,92
28608,note_on,,0,0,6,,,,,,,,5,,,60,108
28608,note_on,,96,0,6,,,,,,,,5,,,64,0
28608,note_on,,96,0,11,,,,,,,,11,,,72,0
28608,note_on,,0,0,11,,,,,,,,11,,,77,92
28608,note_on,,384,0,8,,,,,,,,7,,,48,0
28608,note_on,,0,0,5,,,,,,,,4,,,77,108
28608,note_on,,224,0,4,,,,,,,,3,,,57,127
28702,note_on,,94,0,3,,,,,,,,2,,,57,0
28704,note_on,,96,0,12,,,,,,,,12,,,57,0
28704,note_on,,0,0,12,,,,,,,,12,,,60,92
28704,note_on,,2,0,3,,,,,,,,2,,,60,127
28704,note_on,,96,0,7,,,,,,,,6,,,57,0
28704,note_on,,0,0,7,,,,,,,,6,,,60,92
28768,note_on,,160,0,4,,,,,,,,3,,,57,0
28768,note_on,,160,0,2,,,,,,,,1,,,60,0
28768,note_on,,160,0,1,,,,,,,,0,,,77,0
28798,note_on,,94,0,3,,,,,,,,2,,,60,0
28800,note_on,,0,0,12,,,,,,,,12,,,62,92
28800,note_on,,96,0,12,,,,,,,,12,,,60,0
28800,note_on,,2,0,3,,,,,,,,2,,,62,127
28800,note_on,,192,0,5,,,,,,,,4,,,77,0
28800,note_on,,0,0,5,,,,,,,,4,,,70,108
28800,note_on,,0,0,9,,,,,,,,8,,,43,75
28800,note_on,,192,0,6,,,,,,,,5,,,60,0
28800,note_on,,192,0,11,,,,,,,,11,,,77,0
28800,note_on,,0,0,11,,,,,,,,11,,,70,92
28800,note_on,,0,0,7,,,,,,,,6,,,62,92
28800,note_on,,32,0,1,,,,,,,,0,,,70,127
28800,note_on,,192,0,8,,,,,,,,7,,,57,0
28800,note_on,,0,0,8,,,,,,,,7,,,55,92
28800,note_on,,192,0,9,,,,,,,,8,,,45,0
28800,note_on,,0,0,10,,,,,,,,10,,,70,92
28800,note_on,,32,0,4,,,,,,,,3,,,55,127
28800,note_on,,192,0,10,,,,,,,,10,,,77,0
28800,note_on,,96,0,7,,,,,,,,6,,,60,0
28894,note_on,,94,0,3,,,,,,,,2,,,62,0
28896,note_on,,96,0,7,,,,,,,,6,,,62,0
28896,note_on,,96,0,12,,,,,,,,12,,,62,0
28896,note_on,,0,0,12,,,,,,,,12,,,64,92
28896,note_on,,2,0,3,,,,,,,,2,,,64,127
28896,note_on,,0,0,7,,,,,,,,6,,,64,92
28960,note_on,,160,0,1,,,,,,,,0,,,70,0
28960,note_on,,160,0,4,,,,,,,,3,,,55,0
28990,note_on,,94,0,3,,,,,,,,2,,,64,0
28992,note_on,,0,0,11,,,,,,,,11,,,69,92
28992,note_on,,0,0,10,,,,,,,,10,,,69,92
28992,note_on,,0,0,12,,,,,,,,12,,,65,92
28992,note_on,,2,0,3,,,,,,,,2,,,65,127
28992,note_on,,0,0,9,,,,,,,,8,,,41,75
28992,note_on,,192,0,5,,,,,,,,4,,,70,0
28992,note_on,,192,0,9,,,,,,,,8,,,43,0
28992,note_on,,32,0,4,,,,,,,,3,,,53,127
28992,note_on,,192,0,11,,,,,,,,11,,,70,0
28992,note_on,,0,0,5,,,,,,,,4,,,69,108
28992,note_on,,192,0,10,,,,,,,,10,,,70,0
28992,note_on,,32,0,1,,,,,,,,0,,,69,127
28992,note_on,,192,0,8,,,,,,,,7,,,55,0
28992,note_on,,96,0,12,,,,,,,,12,,,64,0
28992,note_on,,96,0,7,,,,,,,,6,,,64,0
28992,note_on,,0,0,7,,,,,,,,6,,,65,92
28992,note_on,,0,0,8,,,,,,,,7,,,53,92
29088,note_on,,320,0,2,,,,,,,,1,,,60,127
29088,note_on,,288,0,6,,,,,,,,5,,,60,108
29152,note_on,,160,0,1,,,,,,,,0,,,69,0
29152,note_on,,160,0,3,,,,,,,,2,,,65,0
29152,note_on,,160,0,4,,,,,,,,3,,,53,0
29182,note_on,,94,0,2,,,,,,,,1,,,60,0
29184,note_on,,96,0,6,,,,,,,,5,,,60,0
29184,note_on,,0,0,6,,,,,,,,5,,,62,108
29184,note_on,,192,0,9,,,,,,,,8,,,41,0
29184,note_on,,0,0,9,,,,,,,,8,,,46,75
29184,note_on,,192,0,8,,,,,,,,7,,,53,0
29184,note_on,,32,0,3,,,,,,,,2,,,58,127
29184,note_on,,0,0,8,,,,,,,,7,,,58,92
29184,note_on,,0,0,7,,,,,,,,6,,,58,92
29184,note_on,,192,0,5,,,,,,,,4,,,69,0
29184,note_on,,192,0,11,,,,,,,,11,,,69,0
29184,note_on,,192,0,7,,,,,,,,6,,,65,0
29184,note_on,,0,0,12,,,,,,,,12,,,58,92
29184,note_on,,192,0,12,,,,,,,,12,,,65,0
29184,note_on,,192,0,10,,,,,,,,10,,,69,0
29184,note_on,,2,0,2,,,,,,,,1,,,62,127
29278,note_on,,94,0,2,,,,,,,,1,,,62,0
29280,note_on,,2,0,2,,,,,,,,1,,,64,127
29280,note_on,,0,0,6,,,,,,,,5,,,64,108
29280,note_on,,96,0,6,,,,,,,,5,,,62,0
29344,note_on,,160,0,3,,,,,,,,2,,,58,0
29374,note_on,,94,0,2,,,,,,,,1,,,64,0
29376,note_on,,0,0,8,,,,,,,,7,,,57,92
29376,note_on,,192,0,8,,,,,,,,7,,,58,0
29376,note_on,,2,0,2,,,,,,,,1,,,65,127
29376,note_on,,0,0,9,,,,,,,,8,,,45,75
29376,note_on,,32,0,3,,,,,,,,2,,,57,127
29376,note_on,,192,0,9,,,,,,,,8,,,46,0
29376,note_on,,96,0,6,,,,,,,,5,,,64,0
29376,note_on,,0,0,6,,,,,,,,5,,,65,108
29376,note_on,,192,0,12,,,,,,,,12,,,58,0
29376,note_on,,0,0,12,,,,,,,,12,,,57,92
29376,note_on,,192,0,7,,,,,,,,6,,,58,0
29376,note_on,,0,0,7,,,,,,,,6,,,57,92
29470,note_on,,94,0,2,,,,,,,,1,,,65,0
29472,note_on,,0,0,12,,,,,,,,12,,,48,92
29472,note_on,,0,0,8,,,,,,,,7,,,48,92
29472,note_on,,96,0,8,,,,,,,,7,,,57,0
29472,note_on,,288,0,5,,,,,,,,4,,,84,108
29472,note_on,,288,0,10,,,,,,,,10,,,72,92
29472,note_on,,288,0,11,,,,,,,,11,,,72,92
29472,note_on,,0,0,6,,,,,,,,5,,,64,108
29472,note_on,,96,0,6,,,,,,,,5,,,65,0
29472,note_on,,2,0,2,,,,,,,,1,,,64,127
29472,note_on,,320,0,4,,,,,,,,3,,,48,127
29472,note_on,,96,0,12,,,,,,,,12,,,57,0
29472,note_on,,320,0,1,,,,,,,,0,,,72,127
29472,note_on,,0,0,9,,,,,,,,8,,,36,75
29472,note_on,,96,0,9,,,,,,,,8,,,45,0
29566,note_on,,94,0,2,,,,,,,,1,,,64,0
29566,note_on,,94,0,4,,,,,,,,3,,,48,0
29566,note_on,,94,0,1,,,,,,,,0,,,72,0
29568,note_on,,96,0,12,,,,,,,,12,,,48,0
29568,note_on,,2,0,2,,,,,,,,1,,,65,127
29568,note_on,,96,0,6,,,,,,,,5,,,64,0
29568,note_on,,96,0,10,,,,,,,,10,,,72,0
29568,note_on,,0,0,10,,,,,,,,10,,,70,92
29568,note_on,,0,0,6,,,,,,,,5,,,65,108
29568,note_on,,96,0,11,,,,,,,,11,,,72,0
29568,note_on,,2,0,4,,,,,,,,3,,,50,127
29568,note_on,,96,0,5,,,,,,,,4,,,84,0
29568,note_on,,96,0,8,,,,,,,,7,,,48,0
29568,note_on,,0,0,8,,,,,,,,7,,,50,92
29568,note_on,,0,0,5,,,,,,,,4,,,82,108
29568,note_on,,96,0,9,,,,,,,,8,,,36,0
29568,note_on,,0,0,9,,,,,,,,8,,,38,75
29568,note_on,,2,0,1,,,,,,,,0,,,70,127
29568,note_on,,0,0,12,,,,,,,,12,,,50,92
29568,note_on,,0,0,11,,,,,,,,11,,,70,92
29632,note_on,,256,0,3,,,,,,,,2,,,57,0
29662,note_on,,94,0,1,,,,,,,,0,,,70,0
29662,note_on,,94,0,2,,,,,,,,1,,,65,0
29662,note_on,,94,0,4,,,,,,,,3,,,50,0
29664,note_on,,96,0,5,,,,,,,,4,,,82,0
29664,note_on,,0,0,5,,,,,,,,4,,,84,108
29664,note_on,,0,0,6,,,,,,,,5,,,67,108
29664,note_on,,0,0,11,,,,,,,,11,,,72,92
29664,note_on,,96,0,12,,,,,,,,12,,,50,0
29664,note_on,,0,0,7,,,,,,,,6,,,55,92
29664,note_on,,2,0,1,,,,,,,,0,,,72,127
29664,note_on,,96,0,10,,,,,,,,10,,,70,0
29664,note_on,,0,0,10,,,,,,,,10,,,72,92
29664,note_on,,96,0,11,,,,,,,,11,,,70,0
29664,note_on,,32,0,3,,,,,,,,2,,,55,127
29664,note_on,,96,0,9,,,,,,,,8,,,38,0
29664,note_on,,0,0,9,,,,,,,,8,,,40,75
29664,note_on,,0,0,12,,,,,,,,12,,,52,92
29664,note_on,,288,0,7,,,,,,,,6,,,57,0
29664,note_on,,96,0,6,,,,,,,,5,,,65,0
29664,note_on,,2,0,4,,,,,,,,3,,,52,127
29664,note_on,,0,0,8,,,,,,,,7,,,52,92
29664,note_on,,96,0,8,,,,,,,,7,,,50,0
29664,note_on,,2,0,2,,,,,,,,1,,,67,127
29758,note_on,,94,0,2,,,,,,,,1,,,67,0
29758,note_on,,94,0,3,,,,,,,,2,,,55,0
29758,note_on,,94,0,1,,,,,,,,0,,,72,0
29758,note_on,,94,0,4,,,,,,,,3,,,52,0
29760,note_on,,0,0,6,,,,,,,,5,,,65,108
29760,note_on,,96,0,12,,,,,,,,12,,,52,0
29760,note_on,,2,0,2,,,,,,,,1,,,65,127
29760,note_on,,2,0,1,,,,,,,,0,,,69,127
29760,note_on,,96,0,6,,,,,,,,5,,,67,0
29760,note_on,,0,0,10,,,,,,,,10,,,69,92
29760,note_on,,96,0,11,,,,,,,,11,,,72,0
29760,note_on,,0,0,11,,,,,,,,11,,,69,92
29760,note_on,,2,0,3,,,,,,,,2,,,60,127
29760,note_on,,96,0,8,,,,,,,,7,,,52,0
29760,note_on,,0,0,8,,,,,,,,7,,,53,92
29760,note_on,,96,0,9,,,,,,,,8,,,40,0
29760,note_on,,0,0,9,,,,,,,,8,,,41,75
29760,note_on,,96,0,10,,,,,,,,10,,,72,0
29760,note_on,,0,0,12,,,,,,,,12,,,53,92
29760,note_on,,2,0,4,,,,,,,,3,,,53,127
29760,note_on,,0,0,5,,,,,,,,4,,,81,108
29760,note_on,,96,0,5,,,,,,,,4,,,84,0
29760,note_on,,0,0,7,,,,,,,,6,,,60,92
29760,note_on,,96,0,7,,,,,,,,6,,,55,0
29920,note_on,,160,0,4,,,,,,,,3,,,53,0
29920,note_on,,160,0,3,,,,,,,,2,,,60,0
29920,note_on,,160,0,2,,,,,,,,1,,,65,0
29952,note_on,,32,0,4,,,,,,,,3,,,46,127
29952,note_on,,0,0,6,,,,,,,,5,,,77,108
29952,note_on,,192,0,8,,,,,,,,7,,,53,0
29952,note_on,,0,0,8,,,,,,,,7,,,46,92
29952,note_on,,192,0,7,,,,,,,,6,,,60,0
29952,note_on,,0,0,9,,,,,,,,8,,,34,75
29952,note_on,,32,0,2,,,,,,,,1,,,65,127
29952,note_on,,32,0,3,,,,,,,,2,,,62,127
29952,note_on,,192,0,12,,,,,,,,12,,,53,0
29952,note_on,,0,0,12,,,,,,,,12,,,58,92
29952,note_on,,192,0,9,,,,,,,,8,,,41,0
29952,note_on,,0,0,7,,,,,,,,6,,,62,92
29952,note_on,,192,0,6,,,,,,,,5,,,65,0
30016,note_on,,256,0,1,,,,,,,,0,,,69,0
30048,note_on,,288,0,11,,,,,,,,11,,,69,0
30048,note_on,,0,0,11,,,,,,,,11,,,67,92
30048,note_on,,288,0,10,,,,,,,,10,,,69,0
30048,note_on,,288,0,5,,,,,,,,4,,,81,0
30048,note_on,,0,0,5,,,,,,,,4,,,79,108
30048,note_on,,32,0,1,,,,,,,,0,,,67,127
30048,note_on,,0,0,10,,,,,,,,10,,,67,92
30112,note_on,,160,0,2,,,,,,,,1,,,65,0
30112,note_on,,160,0,4,,,,,,,,3,,,46,0
30112,note_on,,160,0,3,,,,,,,,2,,,62,0
30142,note_on,,94,0,1,,,,,,,,0,,,67,0
30144,note_on,,192,0,8,,,,,,,,7,,,46,0
30144,note_on,,0,0,8,,,,,,,,7,,,48,92
30144,note_on,,0,0,5,,,,,,,,4,,,79,108
30144,note_on,,96,0,11,,,,,,,,11,,,67,0
30144,note_on,,0,0,11,,,,,,,,11,,,67,92
30144,note_on,,32,0,3,,,,,,,,2,,,60,127
30144,note_on,,0,0,12,,,,,,,,12,,,60,92
30144,note_on,,0,0,9,,,,,,,,8,,,36,75
30144,note_on,,192,0,12,,,,,,,,12,,,58,0
30144,note_on,,32,0,2,,,,,,,,1,,,65,127
30144,note_on,,0,0,6,,,,,,,,5,,,77,108
30144,note_on,,192,0,6,,,,,,,,5,,,77,0
30144,note_on,,96,0,5,,,,,,,,4,,,79,0
30144,note_on,,0,0,10,,,,,,,,10,,,67,92
30144,note_on,,96,0,10,,,,,,,,10,,,67,0
30144,note_on,,2,0,1,,,,,,,,0,,,67,127
30144,note_on,,192,0,9,,,,,,,,8,,,34,0
30144,note_on,,32,0,4,,,,,,,,3,,,48,127
30144,note_on,,192,0,7,,,,,,,,6,,,62,0
30144,note_on,,0,0,7,,,,,,,,6,,,60,92
30240,note_on,,0,0,7,,,,,,,,6,,,72,92
30240,note_on,,96,0,7,,,,,,,,6,,,60,0
30304,note_on,,160,0,2,,,,,,,,1,,,65,0
30336,note_on,,0,0,10,,,,,,,,10,,,76,92
30336,note_on,,192,0,6,,,,,,,,5,,,77,0
30336,note_on,,0,0,6,,,,,,,,5,,,76,108
30336,note_on,,192,0,10,,,,,,,,10,,,67,0
30336,note_on,,32,0,2,,,,,,,,1,,,64,127
30336,note_on,,0,0,11,,,,,,,,11,,,76,92
30336,note_on,,192,0,11,,,,,,,,11,,,67,0
30336,note_on,,0,0,12,,,,,,,,12,,,48,92
30336,note_on,,192,0,12,,,,,,,,12,,,60,0
30336,note_on,,0,0,7,,,,,,,,6,,,70,92
30336,note_on,,96,0,7,,,,,,,,6,,,72,0
30400,note_on,,256,0,4,,,,,,,,3,,,48,0
30400,note_on,,256,0,1,,,,,,,,0,,,67,0
30400,note_on,,256,0,3,,,,,,,,2,,,60,0
30432,note_on,,32,0,1,,,,,,,,0,,,67,127
30432,note_on,,288,0,9,,,,,,,,8,,,36,0
30432,note_on,,0,0,5,,,,,,,,4,,,77,108
30432,note_on,,288,0,5,,,,,,,,4,,,79,0
30432,note_on,,32,0,3,,,,,,,,2,,,60,127
30432,note_on,,32,0,4,,,,,,,,3,,,48,127
30432,note_on,,288,0,8,,,,,,,,7,,,48,0
30432,note_on,,0,0,7,,,,,,,,6,,,72,92
30432,note_on,,96,0,7,,,,,,,,6,,,70,0
30432,note_on,,0,0,8,,,,,,,,7,,,48,92
30432,note_on,,0,0,9,,,,,,,,8,,,36,75
30496,note_on,,160,0,2,,,,,,,,1,,,64,0
30526,note_on,,94,0,3,,,,,,,,2,,,60,0
30526,note_on,,94,0,4,,,,,,,,3,,,48,0
30526,note_on,,94,0,1,,,,,,,,0,,,67,0
30528,note_on,,0,0,8,,,,,,,,7,,,41,92
30528,note_on,,96,0,8,,,,,,,,7,,,48,0
30528,note_on,,2,0,4,,,,,,,,3,,,53,127
30528,note_on,,32,0,2,,,,,,,,1,,,65,127
30528,note_on,,192,0,11,,,,,,,,11,,,76,0
30528,note_on,,192,0,6,,,,,,,,5,,,76,0
30528,note_on,,0,0,6,,,,,,,,5,,,77,108
30528,note_on,,96,0,5,,,,,,,,4,,,77,0
30528,note_on,,0,0,5,,,,,,,,4,,,77,108
30528,note_on,,2,0,1,,,,,,,,0,,,69,127
30528,note_on,,0,0,9,,,,,,,,8,,,29,75
30528,note_on,,0,0,12,,,,,,,,12,,,53,92
30528,note_on,,192,0,12,,,,,,,,12,,,48,0
30528,note_on,,2,0,3,,,,,,,,2,,,60,127
30528,note_on,,192,0,10,,,,,,,,10,,,76,0
30528,note_on,,0,0,11,,,,,,,,11,,,77,92
30528,note_on,,0,0,10,,,,,,,,10,,,77,92
30528,note_on,,96,0,7,,,,,,,,6,,,72,0
30528,note_on,,0,0,7,,,,,,,,6,,,69,92
30528,note_on,,96,0,9,,,,,,,,8,,,36,0
30624,note_on,,0,0,6,,,,,,,,5,,,72,108
30624,note_on,,0,0,5,,,,,,,,4,,,69,108
30624,note_on,,96,0,5,,,,,,,,4,,,77,0
30624,note_on,,96,0,6,,,,,,,,5,,,77,0
30688,note_on,,160,0,3,,,,,,,,2,,,60,0
30688,note_on,,160,0,1,,,,,,,,0,,,69,0
30688,note_on,,160,0,4,,,,,,,,3,,,53,0
30688,note_on,,160,0,2,,,,,,,,1,,,65,0
30720,note_on,,0,0,6,,,,,,,,5,,,70,108
30720,note_on,,192,0,10,,,,,,,,10,,,77,0
30720,note_on,,192,0,8,,,,,,,,7,,,41,0
30720,note_on,,192,0,11,,,,,,,,11,,,77,0
30720,note_on,,96,0,5,,,,,,,,4,,,69,0
30720,note_on,,0,0,5,,,,,,,,4,,,67,108
30720,note_on,,96,0,6,,,,,,,,5,,,72,0
30720,note_on,,192,0,12,,,,,,,,12,,,53,0
30720,note_on,,192,0,7,,,,,,,,6,,,69,0
30720,note_on,,192,0,9,,,,,,,,8,,,29,0
30816,note_on,,96,0,6,,,,,,,,5,,,70,0
30816,note_on,,0,0,6,,,,,,,,5,,,72,108
30816,note_on,,96,0,12,,,,,,,,12,,,53,92
30816,note_on,,0,0,5,,,,,,,,4,,,69,108
30816,note_on,,96,0,8,,,,,,,,7,,,53,92
30816,note_on,,128,0,3,,,,,,,,2,,,57,127
30816,note_on,,96,0,7,,,,,,,,6,,,65,92
30816,note_on,,128,0,4,,,,,,,,3,,,53,127
30816,note_on,,128,0,2,,,,,,,,1,,,60,127
30816,note_on,,96,0,5,,,,,,,,4,,,67,0
30816,note_on,,96,0,9,,,,,,,,8,,,41,75
30910,note_on,,94,0,2,,,,,,,,1,,,60,0
30910,note_on,,94,0,4,,,,,,,,3,,,53,0
30910,note_on,,94,0,3,,,,,,,,2,,,57,0
30912,note_on,,96,0,9,,,,,,,,8,,,41,0
30912,note_on,,0,0,8,,,,,,,,7,,,57,92
30912,note_on,,2,0,4,,,,,,,,3,,,57,127
30912,note_on,,96,0,6,,,,,,,,5,,,72,0
30912,note_on,,0,0,6,,,,,,,,5,,,77,108
30912,note_on,,96,0,8,,,,,,,,7,,,53,0
30912,note_on,,0,0,9,,,,,,,,8,,,45,75
30912,note_on,,96,0,12,,,,,,,,12,,,53,0
30912,note_on,,2,0,3,,,,,,,,2,,,60,127
30912,note_on,,96,0,5,,,,,,,,4,,,69,0
30912,note_on,,96,0,7,,,,,,,,6,,,65,0
30912,note_on,,0,0,5,,,,,,,,4,,,65,108
30912,note_on,,0,0,12,,,,,,,,12,,,57,92
30912,note_on,,0,0,7,,,,,,,,6,,,72,92
30912,note_on,,2,0,2,,,,,,,,1,,,65,127
31054,note_on,,142,0,3,,,,,,,,2,,,60,0
31054,note_on,,142,0,2,,,,,,,,1,,,65,0
31054,note_on,,142,0,4,,,,,,,,3,,,57,0
31056,note_on,,0,0,8,,,,,,,,7,,,55,92
31056,note_on,,144,0,7,,,,,,,,6,,,72,0
31056,note_on,,144,0,9,,,,,,,,8,,,45,0
31056,note_on,,2,0,4,,,,,,,,3,,,55,127
31056,note_on,,2,0,3,,,,,,,,2,,,58,127
31056,note_on,,0,0,7,,,,,,,,6,,,70,92
31056,note_on,,144,0,8,,,,,,,,7,,,57,0
31056,note_on,,0,0,9,,,,,,,,8,,,43,75
31056,note_on,,144,0,6,,,,,,,,5,,,77,0
31056,note_on,,144,0,12,,,,,,,,12,,,57,0
31056,note_on,,0,0,6,,,,,,,,5,,,76,108
31056,note_on,,0,0,12,,,,,,,,12,,,55,92
31056,note_on,,2,0,2,,,,,,,,1,,,64,127
31102,note_on,,46,0,3,,,,,,,,2,,,58,0
31102,note_on,,46,0,2,,,,,,,,1,,,64,0
31102,note_on,,46,0,4,,,,,,,,3,,,55,0
31104,note_on,,2,0,2,,,,,,,,1,,,65,127
31104,note_on,,2,0,3,,,,,,,,2,,,60,127
31104,note_on,,0,0,12,,,,,,,,12,,,57,92
31104,note_on,,48,0,12,,,,,,,,12,,,55,0
31104,note_on,,48,0,8,,,,,,,,7,,,55,0
31104,note_on,,48,0,7,,,,,,,,6,,,70,0
31104,note_on,,0,0,7,,,,,,,,6,,,72,92
31104,note_on,,48,0,6,,,,,,,,5,,,76,0
31104,note_on,,0,0,6,,,,,,,,5,,,77,108
31104,note_on,,0,0,9,,,,,,,,8,,,45,75
31104,note_on,,48,0,9,,,,,,,,8,,,43,0
31104,note_on,,192,0,5,,,,,,,,4,,,65,0
31104,note_on,,0,0,8,,,,,,,,7,,,57,92
31104,note_on,,2,0,4,,,,,,,,3,,,57,127
31198,note_on,,94,0,4,,,,,,,,3,,,57,0
31198,note_on,,94,0,2,,,,,,,,1,,,65,0
31198,note_on,,94,0,3,,,,,,,,2,,,60,0
31200,note_on,,96,0,7,,,,,,,,6,,,72,0
31200,note_on,,2,0,2,,,,,,,,1,,,60,127
31200,note_on,,0,0,7,,,,,,,,6,,,69,92
31200,note_on,,96,0,9,,,,,,,,8,,,45,0
31200,note_on,,0,0,9,,,,,,,,8,,,41,75
31200,note_on,,96,0,5,,,,,,,,4,,,77,108
31200,note_on,,0,0,8,,,,,,,,7,,,53,92
31200,note_on,,96,0,12,,,,,,,,12,,,57,0
31200,note_on,,0,0,12,,,,,,,,12,,,53,92
31200,note_on,,480,0,11,,,,,,,,11,,,77,92
31200,note_on,,96,0,8,,,,,,,,7,,,57,0
31200,note_on,,2,0,4,,,,,,,,3,,,53,127
31200,note_on,,96,0,6,,,,,,,,5,,,77,0
31200,note_on,,0,0,6,,,,,,,,5,,,72,108
31200,note_on,,480,0,10,,,,,,,,10,,,77,92
31200,note_on,,2,0,3,,,,,,,,2,,,57,127
31200,note_on,,512,0,1,,,,,,,,0,,,77,127
31294,note_on,,94,0,1,,,,,,,,0,,,77,0
31294,note_on,,94,0,4,,,,,,,,3,,,53,0
31294,note_on,,94,0,3,,,,,,,,2,,,57,0
31294,note_on,,94,0,2,,,,,,,,1,,,60,0
31296,note_on,,0,0,7,,,,,,,,6,,,65,92
31296,note_on,,96,0,7,,,,,,,,6,,,69,0
31296,note_on,,96,0,11,,,,,,,,11,,,77,0
31296,note_on,,96,0,8,,,,,,,,7,,,53,0
31296,note_on,,2,0,2,,,,,,,,1,,,62,127
31296,note_on,,96,0,12,,,,,,,,12,,,53,0
31296,note_on,,0,0,12,,,,,,,,12,,,58,92
31296,note_on,,2,0,1,,,,,,,,0,,,74,127
31296,note_on,,96,0,6,,,,,,,,5,,,72,0
31296,note_on,,0,0,6,,,,,,,,5,,,74,108
31296,note_on,,0,0,9,,,,,,,,8,,,46,75
31296,note_on,,0,0,11,,,,,,,,11,,,74,92
31296,note_on,,0,0,10,,,,,,,,10,,,74,92
31296,note_on,,2,0,4,,,,,,,,3,,,58,127
31296,note_on,,96,0,5,,,,,,,,4,,,77,0
31296,note_on,,0,0,8,,,,,,,,7,,,58,92
31296,note_on,,96,0,9,,,,,,,,8,,,41,0
31296,note_on,,96,0,10,,,,,,,,10,,,77,0
31296,note_on,,2,0,3,,,,,,,,2,,,65,127
31296,note_on,,0,0,5,,,,,,,,4,,,74,108
31438,note_on,,142,0,1,,,,,,,,0,,,74,0
31440,note_on,,144,0,5,,,,,,,,4,,,74,0
31440,note_on,,144,0,11,,,,,,,,11,,,74,0
31440,note_on,,0,0,5,,,,,,,,4,,,72,108
31440,note_on,,0,0,11,,,,,,,,11,,,72,92
31440,note_on,,144,0,10,,,,,,,,10,,,74,0
31440,note_on,,2,0,1,,,,,,,,0,,,72,127
31440,note_on,,0,0,10,,,,,,,,10,,,72,92
31456,note_on,,160,0,2,,,,,,,,1,,,62,0
31456,note_on,,160,0,3,,,,,,,,2,,,65,0
31456,note_on,,160,0,4,,,,,,,,3,,,58,0
31486,note_on,,46,0,1,,,,,,,,0,,,72,0
31488,note_on,,0,0,5,,,,,,,,4,,,74,108
31488,note_on,,48,0,5,,,,,,,,4,,,72,0
31488,note_on,,2,0,1,,,,,,,,0,,,74,127
31488,note_on,,0,0,11,,,,,,,,11,,,74,92
31488,note_on,,48,0,11,,,,,,,,11,,,72,0
31488,note_on,,192,0,12,,,,,,,,12,,,58,0
31488,note_on,,192,0,8,,,,,,,,7,,,58,0
31488,note_on,,192,0,6,,,,,,,,5,,,74,0
31488,note_on,,192,0,9,,,,,,,,8,,,46,0
31488,note_on,,48,0,10,,,,,,,,10,,,72,0
31488,note_on,,0,0,10,,,,,,,,10,,,74,92
31488,note_on,,192,0,7,,,,,,,,6,,,65,0
31582,note_on,,94,0,1,,,,,,,,0,,,74,0
31584,note_on,,2,0,1,,,,,,,,0,,,70,127
31584,note_on,,0,0,5,,,,,,,,4,,,70,108
31584,note_on,,96,0,5,,,,,,,,4,,,74,0
31584,note_on,,96,0,9,,,,,,,,8,,,46,75
31584,note_on,,96,0,8,,,,,,,,7,,,58,92
31584,note_on,,128,0,4,,,,,,,,3,,,58,127
31584,note_on,,128,0,3,,,,,,,,2,,,62,127
31584,note_on,,96,0,12,,,,,,,,12,,,58,92
31584,note_on,,0,0,11,,,,,,,,11,,,70,92
31584,note_on,,0,0,10,,,,,,,,10,,,70,92
31584,note_on,,96,0,10,,,,,,,,10,,,74,0
31584,note_on,,96,0,11,,,,,,,,11,,,74,0
31584,note_on,,96,0,7,,,,,,,,6,,,65,92
31584,note_on,,96,0,6,,,,,,,,5,,,74,108
31678,note_on,,94,0,3,,,,,,,,2,,,62,0
31678,note_on,,94,0,1,,,,,,,,0,,,70,0
31678,note_on,,94,0,4,,,,,,,,3,,,58,0
31680,note_on,,96,0,9,,,,,,,,8,,,46,0
31680,note_on,,0,0,9,,,,,,,,8,,,45,75
31680,note_on,,0,0,6,,,,,,,,5,,,72,108
31680,note_on,,2,0,1,,,,,,,,0,,,77,127
31680,note_on,,96,0,8,,,,,,,,7,,,58,0
31680,note_on,,0,0,12,,,,,,,,12,,,57,92
31680,note_on,,96,0,12,,,,,,,,12,,,58,0
31680,note_on,,96,0,6,,,,,,,,5,,,74,0
31680,note_on,,0,0,8,,,,,,,,7,,,57,92
31680,note_on,,96,0,5,,,,,,,,4,,,70,0
31680,note_on,,0,0,11,,,,,,,,11,,,77,92
31680,note_on,,2,0,3,,,,,,,,2,,,60,127
31680,note_on,,96,0,7,,,,,,,,6,,,65,0
31680,note_on,,0,0,7,,,,,,,,6,,,65,92
31680,note_on,,96,0,10,,,,,,,,10,,,70,0
31680,note_on,,0,0,10,,,,,,,,10,,,77,92
31680,note_on,,96,0,11,,,,,,,,11,,,70,0
31680,note_on,,2,0,4,,,,,,,,3,,,57,127
31680,note_on,,224,0,2,,,,,,,,1,,,69,127
31680,note_on,,0,0,5,,,,,,,,4,,,77,108
31822,note_on,,142,0,3,,,,,,,,2,,,60,0
31822,note_on,,142,0,4,,,,,,,,3,,,57,0
31824,note_on,,144,0,6,,,,,,,,5,,,72,0
31824,note_on,,0,0,9,,,,,,,,8,,,43,75
31824,note_on,,144,0,12,,,,,,,,12,,,57,0
31824,note_on,,2,0,4,,,,,,,,3,,,55,127
31824,note_on,,0,0,12,,,,,,,,12,,,55,92
31824,note_on,,0,0,6,,,,,,,,5,,,70,108
31824,note_on,,2,0,3,,,,,,,,2,,,58,127
31824,note_on,,0,0,8,,,,,,,,7,,,55,92
31824,note_on,,144,0,8,,,,,,,,7,,,57,0
31824,note_on,,144,0,9,,,,,,,,8,,,45,0
31840,note_on,,160,0,1,,,,,,,,0,,,77,0
31840,note_on,,160,0,2,,,,,,,,1,,,69,0
31870,note_on,,46,0,3,,,,,,,,2,,,58,0
31870,note_on,,46,0,4,,,,,,,,3,,,55,0
31872,note_on,,0,0,6,,,,,,,,5,,,72,108
31872,note_on,,0,0,9,,,,,,,,8,,,45,75
31872,note_on,,48,0,9,,,,,,,,8,,,43,0
31872,note_on,,48,0,6,,,,,,,,5,,,70,0
31872,note_on,,192,0,5,,,,,,,,4,,,77,0
31872,note_on,,192,0,10,,,,,,,,10,,,77,0
31872,note_on,,192,0,7,,,,,,,,6,,,65,0
31872,note_on,,48,0,12,,,,,,,,12,,,55,0
31872,note_on,,0,0,8,,,,,,,,7,,,57,92
31872,note_on,,48,0,8,,,,,,,,7,,,55,0
31872,note_on,,0,0,12,,,,,,,,12,,,57,92
31872,note_on,,192,0,11,,,,,,,,11,,,77,0
31872,note_on,,2,0,4,,,,,,,,3,,,57,127
31872,note_on,,2,0,3,,,,,,,,2,,,60,127
31966,note_on,,94,0,4,,,,,,,,3,,,57,0
31966,note_on,,94,0,3,,,,,,,,2,,,60,0
31968,note_on,,0,0,12,,,,,,,,12,,,53,92
31968,note_on,,96,0,6,,,,,,,,5,,,72,0
31968,note_on,,96,0,12,,,,,,,,12,,,57,0
31968,note_on,,128,0,1,,,,,,,,0,,,77,127
31968,note_on,,0,0,6,,,,,,,,5,,,69,108
31968,note_on,,96,0,7,,,,,,,,6,,,65,92
31968,note_on,,96,0,11,,,,,,,,11,,,77,92
31968,note_on,,0,0,9,,,,,,,,8,,,41,75
31968,note_on,,128,0,2,,,,,,,,1,,,69,127
31968,note_on,,2,0,4,,,,,,,,3,,,53,127
31968,note_on,,96,0,10,,,,,,,,10,,,77,92
31968,note_on,,0,0,8,,,,,,,,7,,,53,92
31968,note_on,,96,0,8,,,,,,,,7,,,57,0
31968,note_on,,96,0,9,,,,,,,,8,,,45,0
31968,note_on,,96,0,5,,,,,,,,4,,,77,108
31968,note_on,,2,0,3,,,,,,,,2,,,57,127
32062,note_on,,94,0,2,,,,,,,,1,,,69,0
32062,note_on,,94,0,4,,,,,,,,3,,,53,0
32062,note_on,,94,0,1,,,,,,,,0,,,77,0
32062,note_on,,94,0,3,,,,,,,,2,,,57,0
32064,note_on,,2,0,3,,,,,,,,2,,,62,127
32064,note_on,,96,0,5,,,,,,,,4,,,77,0
32064,note_on,,0,0,5,,,,,,,,4,,,74,108
32064,note_on,,96,0,8,,,,,,,,7,,,53,0
32064,note_on,,0,0,8,,,,,,,,7,,,58,92
32064,note_on,,2,0,2,,,,,,,,1,,,65,127
32064,note_on,,96,0,10,,,,,,,,10,,,77,0
32064,note_on,,0,0,10,,,,,,,,10,,,74,92
32064,note_on,,0,0,7,,,,,,,,6,,,65,92
32064,note_on,,2,0,4,,,,,,,,3,,,58,127
32064,note_on,,96,0,9,,,,,,,,8,,,41,0
32064,note_on,,96,0,12,,,,,,,,12,,,53,0
32064,note_on,,0,0,12,,,,,,,,12,,,58,92
32064,note_on,,0,0,9,,,,,,,,8,,,46,75
32064,note_on,,2,0,1,,,,,,,,0,,,74,127
32064,note_on,,0,0,6,,,,,,,,5,,,65,108
32064,note_on,,96,0,7,,,,,,,,6,,,65,0
32064,note_on,,0,0,11,,,,,,,,11,,,74,92
32064,note_on,,96,0,11,,,,,,,,11,,,77,0
32064,note_on,,96,0,6,,,,,,,,5,,,69,0
32206,note_on,,142,0,1,,,,,,,,0,,,74,0
32208,note_on,,0,0,10,,,,,,,,10,,,72,92
32208,note_on,,144,0,11,,,,,,,,11,,,74,0
32208,note_on,,0,0,11,,,,,,,,11,,,72,92
32208,note_on,,2,0,1,,,,,,,,0,,,72,127
32208,note_on,,144,0,10,,,,,,,,10,,,74,0
32224,note_on,,160,0,4,,,,,,,,3,,,58,0
32224,note_on,,160,0,2,,,,,,,,1,,,65,0
32224,note_on,,160,0,3,,,,,,,,2,,,62,0
32254,note_on,,46,0,1,,,,,,,,0,,,72,0
32256,note_on,,192,0,5,,,,,,,,4,,,74,0
32256,note_on,,48,0,10,,,,,,,,10,,,72,0
32256,note_on,,0,0,10,,,,,,,,10,,,74,92
32256,note_on,,2,0,1,,,,,,,,0,,,74,127
32256,note_on,,0,0,11,,,,,,,,11,,,74,92
32256,note_on,,192,0,7,,,,,,,,6,,,65,0
32256,note_on,,48,0,11,,,,,,,,11,,,72,0
32256,note_on,,192,0,12,,,,,,,,12,,,58,0
32256,note_on,,192,0,9,,,,,,,,8,,,46,0
32256,note_on,,192,0,6,,,,,,,,5,,,65,0
32256,note_on,,192,0,8,,,,,,,,7,,,58,0
32350,note_on,,94,0,1,,,,,,,,0,,,74,0
32352,note_on,,96,0,12,,,,,,,,12,,,62,92
32352,note_on,,96,0,10,,,,,,,,10,,,74,0
32352,note_on,,128,0,4,,,,,,,,3,,,62,127
32352,note_on,,0,0,11,,,,,,,,11,,,70,92
32352,note_on,,0,0,10,,,,,,,,10,,,70,92
32352,note_on,,96,0,11,,,,,,,,11,,,74,0
32352,note_on,,96,0,8,,,,,,,,7,,,62,92
32352,note_on,,96,0,9,,,,,,,,8,,,50,75
32352,note_on,,2,0,1,,,,,,,,0,,,70,127
32446,note_on,,94,0,1,,,,,,,,0,,,70,0
32446,note_on,,94,0,4,,,,,,,,3,,,62,0
32448,note_on,,2,0,1,,,,,,,,0,,,79,127
32448,note_on,,96,0,10,,,,,,,,10,,,70,0
32448,note_on,,0,0,10,,,,,,,,10,,,79,92
32448,note_on,,0,0,12,,,,,,,,12,,,59,92
32448,note_on,,96,0,12,,,,,,,,12,,,62,0
32448,note_on,,96,0,8,,,,,,,,7,,,62,0
32448,note_on,,0,0,8,,,,,,,,7,,,59,92
32448,note_on,,192,0,5,,,,,,,,4,,,79,108
32448,note_on,,192,0,6,,,,,,,,5,,,74,108
32448,note_on,,224,0,2,,,,,,,,1,,,67,127
32448,note_on,,192,0,7,,,,,,,,6,,,67,92
32448,note_on,,224,0,3,,,,,,,,2,,,62,127
32448,note_on,,96,0,11,,,,,,,,11,,,70,0
32448,note_on,,0,0,9,,,,,,,,8,,,47,75
32448,note_on,,0,0,11,,,,,,,,11,,,74,92
32448,note_on,,96,0,9,,,,,,,,8,,,50,0
32448,note_on,,2,0,4,,,,,,,,3,,,59,127
32590,note_on,,142,0,4,,,,,,,,3,,,59,0
32592,note_on,,2,0,4,,,,,,,,3,,,57,127
32592,note_on,,144,0,9,,,,,,,,8,,,47,0
32592,note_on,,0,0,9,,,,,,,,8,,,45,75
32592,note_on,,144,0,8,,,,,,,,7,,,59,0
32592,note_on,,0,0,8,,,,,,,,7,,,57,92
32592,note_on,,0,0,11,,,,,,,,11,,,72,92
32592,note_on,,144,0,11,,,,,,,,11,,,74,0
32592,note_on,,144,0,12,,,,,,,,12,,,59,0
32592,note_on,,0,0,12,,,,,,,,12,,,57,92
32608,note_on,,160,0,2,,,,,,,,1,,,67,0
32608,note_on,,160,0,3,,,,,,,,2,,,62,0
32608,note_on,,160,0,1,,,,,,,,0,,,79,0
32638,note_on,,46,0,4,,,,,,,,3,,,57,0
32640,note_on,,192,0,7,,,,,,,,6,,,67,0
32640,note_on,,192,0,6,,,,,,,,5,,,74,0
32640,note_on,,48,0,9,,,,,,,,8,,,45,0
32640,note_on,,0,0,8,,,,,,,,7,,,59,92
32640,note_on,,0,0,9,,,,,,,,8,,,47,75
32640,note_on,,0,0,12,,,,,,,,12,,,59,92
32640,note_on,,48,0,12,,,,,,,,12,,,57,0
32640,note_on,,192,0,10,,,,,,,,10,,,79,0
32640,note_on,,48,0,11,,,,,,,,11,,,72,0
32640,note_on,,0,0,11,,,,,,,,11,,,74,92
32640,note_on,,192,0,5,,,,,,,,4,,,79,0
32640,note_on,,48,0,8,,,,,,,,7,,,57,0
32640,note_on,,2,0,4,,,,,,,,3,,,59,127
32734,note_on,,94,0,4,,,,,,,,3,,,59,0
32736,note_on,,96,0,5,,,,,,,,4,,,79,108
32736,note_on,,96,0,12,,,,,,,,12,,,59,0
32736,note_on,,96,0,10,,,,,,,,10,,,79,92
32736,note_on,,0,0,12,,,,,,,,12,,,55,92
32736,note_on,,96,0,6,,,,,,,,5,,,71,108
32736,note_on,,2,0,4,,,,,,,,3,,,55,127
32736,note_on,,128,0,3,,,,,,,,2,,,62,127
32736,note_on,,0,0,8,,,,,,,,7,,,55,92
32736,note_on,,0,0,9,,,,,,,,8,,,43,75
32736,note_on,,96,0,8,,,,,,,,7,,,59,0
32736,note_on,,0,0,11,,,,,,,,11,,,71,92
32736,note_on,,96,0,7,,,,,,,,6,,,67,92
32736,note_on,,128,0,2,,,,,,,,1,,,67,127
32736,note_on,,128,0,1,,,,,,,,0,,,79,127
32736,note_on,,96,0,9,,,,,,,,8,,,47,0
32736,note_on,,96,0,11,,,,,,,,11,,,74,0
32830,note_on,,94,0,4,,,,,,,,3,,,55,0
32830,note_on,,94,0,1,,,,,,,,0,,,79,0
32830,note_on,,94,0,2,,,,,,,,1,,,67,0
32830,note_on,,94,0,3,,,,,,,,2,,,62,0
32832,note_on,,0,0,5,,,,,,,,4,,,79,108
32832,note_on,,2,0,2,,,,,,,,1,,,67,127
32832,note_on,,96,0,7,,,,,,,,6,,,67,0
32832,note_on,,96,0,11,,,,,,,,11,,,71,0
32832,note_on,,0,0,11,,,,,,,,11,,,75,92
32832,note_on,,96,0,6,,,,,,,,5,,,71,0
32832,note_on,,0,0,6,,,,,,,,5,,,67,108
32832,note_on,,0,0,7,,,,,,,,6,,,63,92
32832,note_on,,0,0,9,,,,,,,,8,,,48,75
32832,note_on,,96,0,9,,,,,,,,8,,,43,0
32832,note_on,,96,0,5,,,,,,,,4,,,79,0
32832,note_on,,2,0,3,,,,,,,,2,,,63,127
32832,note_on,,2,0,4,,,,,,,,3,,,60,127
32832,note_on,,0,0,12,,,,,,,,12,,,60,92
32832,note_on,,96,0,8,,,,,,,,7,,,55,0
32832,note_on,,0,0,8,,,,,,,,7,,,60,92
32832,note_on,,0,0,10,,,,,,,,10,,,75,92
32832,note_on,,96,0,10,,,,,,,,10,,,79,0
32832,note_on,,2,0,1,,,,,,,,0,,,75,127
32832,note_on,,96,0,12,,,,,,,,12,,,55,0
32974,note_on,,142,0,1,,,,,,,,0,,,75,0
32976,note_on,,0,0,10,,,,,,,,10,,,74,92
32976,note_on,,144,0,10,,,,,,,,10,,,75,0
32976,note_on,,2,0,1,,,,,,,,0,,,74,127
32976,note_on,,144,0,11,,,,,,,,11,,,75,0
32976,note_on,,0,0,11,,,,,,,,11,,,74,92
32992,note_on,,160,0,2,,,,,,,,1,,,67,0
32992,note_on,,160,0,3,,,,,,,,2,,,63,0
32992,note_on,,160,0,4,,,,,,,,3,,,60,0
33022,note_on,,46,0,1,,,,,,,,0,,,74,0
33024,note_on,,192,0,5,,,,,,,,4,,,79,0
33024,note_on,,0,0,10,,,,,,,,10,,,75,92
33024,note_on,,48,0,10,,,,,,,,10,,,74,0
33024,note_on,,192,0,9,,,,,,,,8,,,48,0
33024,note_on,,192,0,8,,,,,,,,7,,,60,0
33024,note_on,,192,0,7,,,,,,,,6,,,63,0
33024,note_on,,192,0,12,,,,,,,,12,,,60,0
33024,note_on,,192,0,6,,,,,,,,5,,,67,0
33024,note_on,,48,0,11,,,,,,,,11,,,74,0
33024,note_on,,0,0,11,,,,,,,,11,,,75,92
33024,note_on,,2,0,1,,,,,,,,0,,,75,127
33118,note_on,,94,0,1,,,,,,,,0,,,75,0
33120,note_on,,96,0,12,,,,,,,,12,,,60,92
33120,note_on,,0,0,10,,,,,,,,10,,,72,92
33120,note_on,,96,0,11,,,,,,,,11,,,75,0
33120,note_on,,0,0,11,,,,,,,,11,,,72,92
33120,note_on,,128,0,4,,,,,,,,3,,,60,127
33120,note_on,,2,0,1,,,,,,,,0,,,72,127
33120,note_on,,96,0,9,,,,,,,,8,,,48,75
33120,note_on,,96,0,10,,,,,,,,10,,,75,0
33120,note_on,,96,0,8,,,,,,,,7,,,60,92
33214,note_on,,94,0,1,,,,,,,,0,,,72,0
33214,note_on,,94,0,4,,,,,,,,3,,,60,0
33216,note_on,,2,0,1,,,,,,,,0,,,79,127
33216,note_on,,96,0,9,,,,,,,,8,,,48,0
33216,note_on,,96,0,10,,,,,,,,10,,,72,0
33216,note_on,,0,0,11,,,,,,,,11,,,74,92
33216,note_on,,96,0,11,,,,,,,,11,,,72,0
33216,note_on,,96,0,12,,,,,,,,12,,,60,0
33216,note_on,,0,0,12,,,,,,,,12,,,59,92
33216,note_on,,2,0,4,,,,,,,,3,,,59,127
33216,note_on,,0,0,10,,,,,,,,10,,,79,92
33216,note_on,,0,0,9,,,,,,,,8,,,47,75
33216,note_on,,192,0,7,,,,,,,,6,,,67,92
33216,note_on,,224,0,2,,,,,,,,1,,,67,127
33216,note_on,,224,0,3,,,,,,,,2,,,62,127
33216,note_on,,0,0,8,,,,,,,,7,,,59,92
33216,note_on,,96,0,8,,,,,,,,7,,,60,0
33216,note_on,,192,0,6,,,,,,,,5,,,74,108
33216,note_on,,192,0,5,,,,,,,,4,,,79,108
33358,note_on,,142,0,4,,,,,,,,3,,,59,0
33360,note_on,,144,0,11,,,,,,,,11,,,74,0
33360,note_on,,0,0,11,,,,,,,,11,,,72,92
33360,note_on,,2,0,4,,,,,,,,3,,,57,127
33360,note_on,,144,0,8,,,,,,,,7,,,59,0
33360,note_on,,0,0,12,,,,,,,,12,,,57,92
33360,note_on,,144,0,12,,,,,,,,12,,,59,0
33360,note_on,,0,0,8,,,,,,,,7,,,57,92
33360,note_on,,0,0,9,,,,,,,,8,,,45,75
33360,note_on,,144,0,9,,,,,,,,8,,,47,0
33376,note_on,,160,0,2,,,,,,,,1,,,67,0
33376,note_on,,160,0,3,,,,,,,,2,,,62,0
33376,note_on,,160,0,1,,,,,,,,0,,,79,0
33406,note_on,,46,0,4,,,,,,,,3,,,57,0
33408,note_on,,48,0,9,,,,,,,,8,,,45,0
33408,note_on,,0,0,9,,,,,,,,8,,,47,75
33408,note_on,,48,0,8,,,,,,,,7,,,57,0
33408,note_on,,0,0,8,,,,,,,,7,,,59,92
33408,note_on,,2,0,4,,,,,,,,3,,,59,127
33408,note_on,,48,0,12,,,,,,,,12,,,57,0
33408,note_on,,192,0,10,,,,,,,,10,,,79,0
33408,note_on,,0,0,11,,,,,,,,11,,,74,92
33408,note_on,,48,0,11,,,,,,,,11,,,72,0
33408,note_on,,0,0,12,,,,,,,,12,,,59,92
33408,note_on,,192,0,5,,,,,,,,4,,,79,0
33408,note_on,,192,0,6,,,,,,,,5,,,74,0
33408,note_on,,192,0,7,,,,,,,,6,,,67,0
33502,note_on,,94,0,4,,,,,,,,3,,,59,0
33504,note_on,,2,0,4,,,,,,,,3,,,55,127
33504,note_on,,0,0,9,,,,,,,,8,,,43,75
33504,note_on,,96,0,11,,,,,,,,11,,,74,0
33504,note_on,,0,0,11,,,,,,,,11,,,71,92
33504,note_on,,0,0,12,,,,,,,,12,,,55,92
33504,note_on,,96,0,12,,,,,,,,12,,,59,0
33504,note_on,,96,0,10,,,,,,,,10,,,77,92
33504,note_on,,96,0,9,,,,,,,,8,,,47,0
33504,note_on,,96,0,8,,,,,,,,7,,,59,0
33504,note_on,,0,0,8,,,,,,,,7,,,55,92
33504,note_on,,128,0,1,,,,,,,,0,,,77,127
33598,note_on,,94,0,4,,,,,,,,3,,,55,0
33598,note_on,,94,0,1,,,,,,,,0,,,77,0
33600,note_on,,192,0,5,,,,,,,,4,,,79,108
33600,note_on,,0,0,8,,,,,,,,7,,,60,92
33600,note_on,,96,0,10,,,,,,,,10,,,77,0
33600,note_on,,2,0,1,,,,,,,,0,,,75,127
33600,note_on,,0,0,9,,,,,,,,8,,,48,75
33600,note_on,,96,0,8,,,,,,,,7,,,55,0
33600,note_on,,224,0,3,,,,,,,,2,,,63,127
33600,note_on,,224,0,2,,,,,,,,1,,,67,127
33600,note_on,,2,0,4,,,,,,,,3,,,60,127
33600,note_on,,96,0,11,,,,,,,,11,,,71,0
33600,note_on,,0,0,11,,,,,,,,11,,,75,92
33600,note_on,,0,0,10,,,,,,,,10,,,75,92
33600,note_on,,192,0,6,,,,,,,,5,,,75,108
33600,note_on,,96,0,9,,,,,,,,8,,,43,0
33600,note_on,,96,0,12,,,,,,,,12,,,55,0
33600,note_on,,192,0,7,,,,,,,,6,,,67,92
33600,note_on,,0,0,12,,,,,,,,12,,,60,92
33742,note_on,,142,0,1,,,,,,,,0,,,75,0
33744,note_on,,144,0,11,,,,,,,,11,,,75,0
33744,note_on,,144,0,10,,,,,,,,10,,,75,0
33744,note_on,,0,0,10,,,,,,,,10,,,74,92
33744,note_on,,0,0,11,,,,,,,,11,,,74,92
33744,note_on,,2,0,1,,,,,,,,0,,,74,127
33760,note_on,,160,0,4,,,,,,,,3,,,60,0
33760,note_on,,160,0,2,,,,,,,,1,,,67,0
33760,note_on,,160,0,3,,,,,,,,2,,,63,0
33790,note_on,,46,0,1,,,,,,,,0,,,74,0
33792,note_on,,192,0,7,,,,,,,,6,,,67,0
33792,note_on,,192,0,8,,,,,,,,7,,,60,0
33792,note_on,,48,0,11,,,,,,,,11,,,74,0
33792,note_on,,0,0,11,,,,,,,,11,,,75,92
33792,note_on,,192,0,9,,,,,,,,8,,,48,0
33792,note_on,,192,0,5,,,,,,,,4,,,79,0
33792,note_on,,192,0,6,,,,,,,,5,,,75,0
33792,note_on,,0,0,10,,,,,,,,10,,,75,92
33792,note_on,,2,0,1,,,,,,,,0,,,75,127
33792,note_on,,48,0,10,,,,,,,,10,,,74,0
33792,note_on,,192,0,12,,,,,,,,12,,,60,0
33886,note_on,,94,0,1,,,,,,,,0,,,75,0
33888,note_on,,96,0,9,,,,,,,,8,,,46,75
33888,note_on,,0,0,10,,,,,,,,10,,,72,92
33888,note_on,,96,0,10,,,,,,,,10,,,75,0
33888,note_on,,96,0,11,,,,,,,,11,,,75,0
33888,note_on,,0,0,11,,,,,,,,11,,,72,92
33888,note_on,,128,0,4,,,,,,,,3,,,58,127
33888,note_on,,96,0,12,,,,,,,,12,,,58,92
33888,note_on,,96,0,8,,,,,,,,7,,,58,92
33888,note_on,,2,0,1,,,,,,,,0,,,72,127
33982,note_on,,94,0,1,,,,,,,,0,,,72,0
33982,note_on,,94,0,4,,,,,,,,3,,,58,0
33984,note_on,,2,0,1,,,,,,,,0,,,77,127
33984,note_on,,96,0,10,,,,,,,,10,,,72,0
33984,note_on,,0,0,10,,,,,,,,10,,,77,92
33984,note_on,,224,0,3,,,,,,,,2,,,60,127
33984,note_on,,224,0,2,,,,,,,,1,,,69,127
33984,note_on,,2,0,4,,,,,,,,3,,,57,127
33984,note_on,,0,0,11,,,,,,,,11,,,77,92
33984,note_on,,96,0,12,,,,,,,,12,,,58,0
33984,note_on,,0,0,12,,,,,,,,12,,,57,92
33984,note_on,,192,0,6,,,,,,,,5,,,72,108
33984,note_on,,192,0,7,,,,,,,,6,,,69,92
33984,note_on,,96,0,8,,,,,,,,7,,,58,0
33984,note_on,,0,0,8,,,,,,,,7,,,57,92
33984,note_on,,96,0,9,,,,,,,,8,,,46,0
33984,note_on,,0,0,9,,,,,,,,8,,,45,75
33984,note_on,,96,0,11,,,,,,,,11,,,72,0
33984,note_on,,192,0,5,,,,,,,,4,,,77,108
34126,note_on,,142,0,4,,,,,,,,3,,,57,0
34128,note_on,,144,0,12,,,,,,,,12,,,57,0
34128,note_on,,144,0,9,,,,,,,,8,,,45,0
34128,note_on,,2,0,4,,,,,,,,3,,,55,127
34128,note_on,,0,0,9,,,,,,,,8,,,43,75
34128,note_on,,0,0,12,,,,,,,,12,,,55,92
34128,note_on,,144,0,8,,,,,,,,7,,,57,0
34128,note_on,,0,0,8,,,,,,,,7,,,55,92
34144,note_on,,160,0,1,,,,,,,,0,,,77,0
34144,note_on,,160,0,3,,,,,,,,2,,,60,0
34144,note_on,,160,0,2,,,,,,,,1,,,69,0
34174,note_on,,46,0,4,,,,,,,,3,,,55,0
34176,note_on,,0,0,9,,,,,,,,8,,,45,75
34176,note_on,,192,0,5,,,,,,,,4,,,77,0
34176,note_on,,48,0,9,,,,,,,,8,,,43,0
34176,note_on,,192,0,7,,,,,,,,6,,,69,0
34176,note_on,,192,0,10,,,,,,,,10,,,77,0
34176,note_on,,192,0,6,,,,,,,,5,,,72,0
34176,note_on,,0,0,12,,,,,,,,12,,,57,92
34176,note_on,,192,0,11,,,,,,,,11,,,77,0
34176,note_on,,2,0,4,,,,,,,,3,,,57,127
34176,note_on,,48,0,12,,,,,,,,12,,,55,0
34176,note_on,,48,0,8,,,,,,,,7,,,55,0
34176,note_on,,0,0,8,,,,,,,,7,,,57,92
34270,note_on,,94,0,4,,,,,,,,3,,,57,0
34272,note_on,,96,0,9,,,,,,,,8,,,45,0
34272,note_on,,0,0,12,,,,,,,,12,,,53,92
34272,note_on,,128,0,3,,,,,,,,2,,,60,127
34272,note_on,,128,0,2,,,,,,,,1,,,69,127
34272,note_on,,0,0,8,,,,,,,,7,,,53,92
34272,note_on,,96,0,8,,,,,,,,7,,,57,0
34272,note_on,,2,0,4,,,,,,,,3,,,53,127
34272,note_on,,96,0,6,,,,,,,,5,,,77,108
34272,note_on,,96,0,7,,,,,,,,6,,,69,92
34272,note_on,,96,0,5,,,,,,,,4,,,72,108
34272,note_on,,96,0,12,,,,,,,,12,,,57,0
34272,note_on,,96,0,11,,,,,,,,11,,,77,92
34272,note_on,,0,0,9,,,,,,,,8,,,41,75
34366,note_on,,94,0,4,,,,,,,,3,,,53,0
34366,note_on,,94,0,3,,,,,,,,2,,,60,0
34366,note_on,,94,0,2,,,,,,,,1,,,69,0
34368,note_on,,96,0,5,,,,,,,,4,,,72,0
34368,note_on,,96,0,7,,,,,,,,6,,,69,0
34368,note_on,,0,0,7,,,,,,,,6,,,65,92
34368,note_on,,96,0,9,,,,,,,,8,,,41,0
34368,note_on,,224,0,1,,,,,,,,0,,,77,127
34368,note_on,,96,0,12,,,,,,,,12,,,53,0
34368,note_on,,0,0,11,,,,,,,,11,,,74,92
34368,note_on,,2,0,4,,,,,,,,3,,,58,127
34368,note_on,,192,0,10,,,,,,,,10,,,77,92
34368,note_on,,0,0,6,,,,,,,,5,,,77,108
34368,note_on,,0,0,9,,,,,,,,8,,,46,75
34368,note_on,,96,0,8,,,,,,,,7,,,53,0
34368,note_on,,96,0,6,,,,,,,,5,,,77,0
34368,note_on,,2,0,2,,,,,,,,1,,,65,127
34368,note_on,,2,0,3,,,,,,,,2,,,62,127
34368,note_on,,0,0,12,,,,,,,,12,,,58,92
34368,note_on,,0,0,5,,,,,,,,4,,,74,108
34368,note_on,,0,0,8,,,,,,,,7,,,58,92
34368,note_on,,96,0,11,,,,,,,,11,,,77,0
34510,note_on,,142,0,2,,,,,,,,1,,,65,0
34512,note_on,,0,0,11,,,,,,,,11,,,72,92
34512,note_on,,144,0,11,,,,,,,,11,,,74,0
34512,note_on,,144,0,7,,,,,,,,6,,,65,0
34512,note_on,,2,0,2,,,,,,,,1,,,63,127
34512,note_on,,0,0,7,,,,,,,,6,,,63,92
34512,note_on,,0,0,5,,,,,,,,4,,,72,108
34512,note_on,,144,0,5,,,,,,,,4,,,74,0
34528,note_on,,160,0,4,,,,,,,,3,,,58,0
34528,note_on,,160,0,1,,,,,,,,0,,,77,0
34528,note_on,,160,0,3,,,,,,,,2,,,62,0
34558,note_on,,46,0,2,,,,,,,,1,,,63,0
34560,note_on,,192,0,12,,,,,,,,12,,,58,0
34560,note_on,,2,0,2,,,,,,,,1,,,65,127
34560,note_on,,192,0,8,,,,,,,,7,,,58,0
34560,note_on,,0,0,7,,,,,,,,6,,,65,92
34560,note_on,,48,0,7,,,,,,,,6,,,63,0
34560,note_on,,192,0,10,,,,,,,,10,,,77,0
34560,note_on,,0,0,10,,,,,,,,10,,,77,92
34560,note_on,,0,0,11,,,,,,,,11,,,74,92
34560,note_on,,192,0,9,,,,,,,,8,,,46,0
34560,note_on,,32,0,1,,,,,,,,0,,,77,127
34560,note_on,,192,0,6,,,,,,,,5,,,77,0
34560,note_on,,0,0,6,,,,,,,,5,,,77,108
34560,note_on,,48,0,5,,,,,,,,4,,,72,0
34560,note_on,,0,0,5,,,,,,,,4,,,74,108
34560,note_on,,48,0,11,,,,,,,,11,,,72,0
34654,note_on,,94,0,2,,,,,,,,1,,,65,0
34656,note_on,,96,0,11,,,,,,,,11,,,74,0
34656,note_on,,96,0,12,,,,,,,,12,,,58,92
34656,note_on,,2,0,2,,,,,,,,1,,,62,127
34656,note_on,,96,0,8,,,,,,,,7,,,58,92
34656,note_on,,128,0,4,,,,,,,,3,,,58,127
34656,note_on,,128,0,3,,,,,,,,2,,,62,127
34656,note_on,,96,0,7,,,,,,,,6,,,65,0
34656,note_on,,0,0,7,,,,,,,,6,,,62,92
34656,note_on,,0,0,5,,,,,,,,4,,,70,108
34656,note_on,,96,0,5,,,,,,,,4,,,74,0
34656,note_on,,0,0,11,,,,,,,,11,,,70,92
34656,note_on,,96,0,9,,,,,,,,8,,,46,75
34720,note_on,,160,0,1,,,,,,,,0,,,77,0
34750,note_on,,94,0,3,,,,,,,,2,,,62,0
34750,note_on,,94,0,4,,,,,,,,3,,,58,0
34750,note_on,,94,0,2,,,,,,,,1,,,62,0
34752,note_on,,0,0,12,,,,,,,,12,,,62,92
34752,note_on,,96,0,12,,,,,,,,12,,,58,0
34752,note_on,,96,0,11,,,,,,,,11,,,70,0
34752,note_on,,0,0,9,,,,,,,,8,,,50,75
34752,note_on,,0,0,11,,,,,,,,11,,,77,92
34752,note_on,,96,0,9,,,,,,,,8,,,46,0
34752,note_on,,0,0,10,,,,,,,,10,,,77,92
34752,note_on,,96,0,7,,,,,,,,6,,,62,0
34752,note_on,,0,0,8,,,,,,,,7,,,62,92
34752,note_on,,96,0,8,,,,,,,,7,,,58,0
34752,note_on,,192,0,6,,,,,,,,5,,,77,0
34752,note_on,,0,0,6,,,,,,,,5,,,77,108
34752,note_on,,0,0,5,,,,,,,,4,,,82,108
34752,note_on,,2,0,3,,,,,,,,2,,,65,127
34752,note_on,,2,0,4,,,,,,,,3,,,62,127
34752,note_on,,0,0,7,,,,,,,,6,,,70,92
34752,note_on,,192,0,10,,,,,,,,10,,,77,0
34752,note_on,,2,0,2,,,,,,,,1,,,70,127
34752,note_on,,96,0,5,,,,,,,,4,,,70,0
34752,note_on,,32,0,1,,,,,,,,0,,,77,127
34894,note_on,,142,0,3,,,,,,,,2,,,65,0
34894,note_on,,142,0,4,,,,,,,,3,,,62,0
34896,note_on,,0,0,12,,,,,,,,12,,,60,92
34896,note_on,,2,0,3,,,,,,,,2,,,63,127
34896,note_on,,144,0,12,,,,,,,,12,,,62,0
34896,note_on,,0,0,11,,,,,,,,11,,,75,92
34896,note_on,,144,0,11,,,,,,,,11,,,77,0
34896,note_on,,144,0,8,,,,,,,,7,,,62,0
34896,note_on,,0,0,8,,,,,,,,7,,,60,92
34896,note_on,,144,0,6,,,,,,,,5,,,77,0
34896,note_on,,144,0,9,,,,,,,,8,,,50,0
34896,note_on,,0,0,6,,,,,,,,5,,,75,108
34896,note_on,,2,0,4,,,,,,,,3,,,60,127
34896,note_on,,0,0,9,,,,,,,,8,,,48,75
34912,note_on,,160,0,1,,,,,,,,0,,,77,0
34912,note_on,,160,0,2,,,,,,,,1,,,70,0
34942,note_on,,46,0,4,,,,,,,,3,,,60,0
34942,note_on,,46,0,3,,,,,,,,2,,,63,0
34944,note_on,,48,0,9,,,,,,,,8,,,48,0
34944,note_on,,48,0,6,,,,,,,,5,,,75,0
34944,note_on,,0,0,6,,,,,,,,5,,,77,108
34944,note_on,,2,0,3,,,,,,,,2,,,65,127
34944,note_on,,192,0,7,,,,,,,,6,,,70,0
34944,note_on,,0,0,7,,,,,,,,6,,,65,92
34944,note_on,,48,0,11,,,,,,,,11,,,75,0
34944,note_on,,0,0,5,,,,,,,,4,,,82,108
34944,note_on,,192,0,5,,,,,,,,4,,,82,0
34944,note_on,,0,0,9,,,,,,,,8,,,50,75
34944,note_on,,0,0,8,,,,,,,,7,,,62,92
34944,note_on,,32,0,2,,,,,,,,1,,,65,127
34944,note_on,,48,0,8,,,,,,,,7,,,60,0
34944,note_on,,0,0,11,,,,,,,,11,,,77,92
34944,note_on,,2,0,4,,,,,,,,3,,,62,127
34944,note_on,,192,0,10,,,,,,,,10,,,77,0
34944,note_on,,48,0,12,,,,,,,,12,,,60,0
34944,note_on,,0,0,12,,,,,,,,12,,,62,92
35038,note_on,,94,0,4,,,,,,,,3,,,62,0
35038,note_on,,94,0,3,,,,,,,,2,,,65,0
35040,note_on,,0,0,9,,,,,,,,8,,,46,75
35040,note_on,,2,0,4,,,,,,,,3,,,58,127
35040,note_on,,96,0,9,,,,,,,,8,,,50,0
35040,note_on,,0,0,8,,,,,,,,7,,,58,92
35040,note_on,,96,0,11,,,,,,,,11,,,77,0
35040,note_on,,0,0,11,,,,,,,,11,,,74,92
35040,note_on,,96,0,8,,,,,,,,7,,,62,0
35040,note_on,,96,0,6,,,,,,,,5,,,77,0
35040,note_on,,0,0,12,,,,,,,,12,,,58,92
35040,note_on,,96,0,12,,,,,,,,12,,,62,0
35040,note_on,,0,0,6,,,,,,,,5,,,74,108
35040,note_on,,2,0,3,,,,,,,,2,,,62,127
35104,note_on,,160,0,2,,,,,,,,1,,,65,0
35134,note_on,,94,0,4,,,,,,,,3,,,58,0
35134,note_on,,94,0,3,,,,,,,,2,,,62,0
35136,note_on,,96,0,9,,,,,,,,8,,,46,0
35136,note_on,,0,0,9,,,,,,,,8,,,51,75
35136,note_on,,0,0,8,,,,,,,,7,,,63,92
35136,note_on,,96,0,6,,,,,,,,5,,,74,0
35136,note_on,,0,0,6,,,,,,,,5,,,75,108
35136,note_on,,192,0,5,,,,,,,,4,,,82,0
35136,note_on,,0,0,5,,,,,,,,4,,,82,108
35136,note_on,,32,0,2,,,,,,,,1,,,67,127
35136,note_on,,2,0,4,,,,,,,,3,,,63,127
35136,note_on,,0,0,11,,,,,,,,11,,,79,92
35136,note_on,,192,0,7,,,,,,,,6,,,65,0
35136,note_on,,96,0,11,,,,,,,,11,,,74,0
35136,note_on,,96,0,12,,,,,,,,12,,,58,0
35136,note_on,,96,0,8,,,,,,,,7,,,58,0
35136,note_on,,0,0,7,,,,,,,,6,,,67,92
35136,note_on,,0,0,12,,,,,,,,12,,,63,92
35136,note_on,,2,0,3,,,,,,,,2,,,67,127
35280,note_on,,144,0,11,,,,,,,,11,,,79,0
35280,note_on,,0,0,11,,,,,,,,11,,,77,92
35296,note_on,,160,0,4,,,,,,,,3,,,63,0
35296,note_on,,160,0,3,,,,,,,,2,,,67,0
35296,note_on,,160,0,2,,,,,,,,1,,,67,0
35328,note_on,,0,0,11,,,,,,,,11,,,79,92
35328,note_on,,192,0,12,,,,,,,,12,,,63,0
35328,note_on,,192,0,9,,,,,,,,8,,,51,0
35328,note_on,,192,0,5,,,,,,,,4,,,82,0
35328,note_on,,48,0,11,,,,,,,,11,,,77,0
35328,note_on,,192,0,6,,,,,,,,5,,,75,0
35328,note_on,,192,0,7,,,,,,,,6,,,67,0
35328,note_on,,192,0,8,,,,,,,,7,,,63,0
35424,note_on,,512,0,1,,,,,,,,0,,,75,127
35424,note_on,,96,0,5,,,,,,,,4,,,75,108
35424,note_on,,0,0,11,,,,,,,,11,,,75,92
35424,note_on,,96,0,11,,,,,,,,11,,,79,0
35424,note_on,,480,0,10,,,,,,,,10,,,75,92
35518,note_on,,94,0,1,,,,,,,,0,,,75,0
35520,note_on,,96,0,11,,,,,,,,11,,,75,0
35520,note_on,,224,0,2,,,,,,,,1,,,70,127
35520,note_on,,2,0,1,,,,,,,,0,,,74,127
35520,note_on,,192,0,8,,,,,,,,7,,,58,92
35520,note_on,,0,0,10,,,,,,,,10,,,74,92
35520,note_on,,96,0,10,,,,,,,,10,,,75,0
35520,note_on,,0,0,5,,,,,,,,4,,,74,108
35520,note_on,,0,0,11,,,,,,,,11,,,82,92
35520,note_on,,224,0,3,,,,,,,,2,,,65,127
35520,note_on,,224,0,4,,,,,,,,3,,,58,127
35520,note_on,,192,0,7,,,,,,,,6,,,70,92
35520,note_on,,96,0,5,,,,,,,,4,,,75,0
35520,note_on,,192,0,12,,,,,,,,12,,,58,92
35520,note_on,,192,0,6,,,,,,,,5,,,65,108
35520,note_on,,192,0,9,,,,,,,,8,,,46,75
35614,note_on,,94,0,1,,,,,,,,0,,,74,0
35616,note_on,,96,0,6,,,,,,,,5,,,65,0
35616,note_on,,0,0,6,,,,,,,,5,,,63,108
35616,note_on,,0,0,5,,,,,,,,4,,,72,108
35616,note_on,,2,0,1,,,,,,,,0,,,72,127
35616,note_on,,96,0,5,,,,,,,,4,,,74,0
35616,note_on,,0,0,10,,,,,,,,10,,,72,92
35616,note_on,,96,0,10,,,,,,,,10,,,74,0
35680,note_on,,160,0,4,,,,,,,,3,,,58,0
35680,note_on,,160,0,3,,,,,,,,2,,,65,0
35680,note_on,,160,0,2,,,,,,,,1,,,70,0
35710,note_on,,94,0,1,,,,,,,,0,,,72,0
35712,note_on,,32,0,2,,,,,,,,1,,,70,127
35712,note_on,,192,0,8,,,,,,,,7,,,58,0
35712,note_on,,96,0,5,,,,,,,,4,,,72,0
35712,note_on,,0,0,5,,,,,,,,4,,,74,108
35712,note_on,,0,0,9,,,,,,,,8,,,44,75
35712,note_on,,0,0,8,,,,,,,,7,,,56,92
35712,note_on,,192,0,11,,,,,,,,11,,,82,0
35712,note_on,,0,0,11,,,,,,,,11,,,70,92
35712,note_on,,0,0,6,,,,,,,,5,,,65,108
35712,note_on,,96,0,6,,,,,,,,5,,,63,0
35712,note_on,,192,0,7,,,,,,,,6,,,70,0
35712,note_on,,2,0,1,,,,,,,,0,,,74,127
35712,note_on,,192,0,9,,,,,,,,8,,,46,0
35712,note_on,,0,0,7,,,,,,,,6,,,70,92
35712,note_on,,96,0,10,,,,,,,,10,,,72,0
35712,note_on,,32,0,4,,,,,,,,3,,,56,127
35712,note_on,,0,0,12,,,,,,,,12,,,56,92
35712,note_on,,32,0,3,,,,,,,,2,,,62,127
35712,note_on,,192,0,12,,,,,,,,12,,,58,0
35712,note_on,,0,0,10,,,,,,,,10,,,74,92
35806,note_on,,94,0,1,,,,,,,,0,,,74,0
35808,note_on,,0,0,5,,,,,,,,4,,,70,108
35808,note_on,,96,0,5,,,,,,,,4,,,74,0
35808,note_on,,0,0,10,,,,,,,,10,,,70,92
35808,note_on,,2,0,1,,,,,,,,0,,,70,127
35808,note_on,,0,0,6,,,,,,,,5,,,62,108
35808,note_on,,96,0,6,,,,,,,,5,,,65,0
35808,note_on,,96,0,10,,,,,,,,10,,,74,0
35872,note_on,,160,0,3,,,,,,,,2,,,62,0
35872,note_on,,160,0,2,,,,,,,,1,,,70,0
35872,note_on,,160,0,4,,,,,,,,3,,,56,0
35902,note_on,,94,0,1,,,,,,,,0,,,70,0
35904,note_on,,0,0,5,,,,,,,,4,,,75,108
35904,note_on,,96,0,10,,,,,,,,10,,,70,0
35904,note_on,,0,0,11,,,,,,,,11,,,70,92
35904,note_on,,32,0,3,,,,,,,,2,,,67,127
35904,note_on,,192,0,11,,,,,,,,11,,,70,0
35904,note_on,,32,0,2,,,,,,,,1,,,58,127
35904,note_on,,96,0,5,,,,,,,,4,,,70,0
35904,note_on,,0,0,10,,,,,,,,10,,,75,92
35904,note_on,,192,0,8,,,,,,,,7,,,56,0
35904,note_on,,0,0,8,,,,,,,,7,,,55,92
35904,note_on,,192,0,12,,,,,,,,12,,,56,0
35904,note_on,,2,0,1,,,,,,,,0,,,75,127
35904,note_on,,192,0,9,,,,,,,,8,,,44,0
35904,note_on,,0,0,9,,,,,,,,8,,,43,75
35904,note_on,,192,0,7,,,,,,,,6,,,70,0
35904,note_on,,0,0,7,,,,,,,,6,,,58,92
35904,note_on,,96,0,6,,,,,,,,5,,,62,0
35904,note_on,,32,0,4,,,,,,,,3,,,55,127
35904,note_on,,0,0,6,,,,,,,,5,,,70,108
35904,note_on,,0,0,12,,,,,,,,12,,,55,92
36000,note_on,,0,0,11,,,,,,,,11,,,68,92
36000,note_on,,96,0,11,,,,,,,,11,,,70,0
36064,note_on,,160,0,4,,,,,,,,3,,,55,0
36064,note_on,,160,0,3,,,,,,,,2,,,67,0
36064,note_on,,160,0,1,,,,,,,,0,,,75,0
36064,note_on,,160,0,2,,,,,,,,1,,,58,0
36096,note_on,,192,0,7,,,,,,,,6,,,58,0
36096,note_on,,192,0,9,,,,,,,,8,,,43,0
36096,note_on,,192,0,12,,,,,,,,12,,,55,0
36096,note_on,,192,0,8,,,,,,,,7,,,55,0
36096,note_on,,192,0,10,,,,,,,,10,,,75,0
36096,note_on,,96,0,11,,,,,,,,11,,,68,0
36096,note_on,,0,0,11,,,,,,,,11,,,70,92
36096,note_on,,192,0,5,,,,,,,,4,,,75,0
36096,note_on,,192,0,6,,,,,,,,5,,,70,0
36192,note_on,,128,0,1,,,,,,,,0,,,79,127
36192,note_on,,0,0,11,,,,,,,,11,,,67,92
36192,note_on,,96,0,10,,,,,,,,10,,,79,92
36192,note_on,,96,0,11,,,,,,,,11,,,70,0
36192,note_on,,96,0,5,,,,,,,,4,,,79,108
36286,note_on,,94,0,1,,,,,,,,0,,,79,0
36288,note_on,,96,0,10,,,,,,,,10,,,79,0
36288,note_on,,0,0,10,,,,,,,,10,,,76,92
36288,note_on,,192,0,9,,,,,,,,8,,,48,75
36288,note_on,,192,0,7,,,,,,,,6,,,60,92
36288,note_on,,192,0,8,,,,,,,,7,,,60,92
36288,note_on,,192,0,6,,,,,,,,5,,,67,108
36288,note_on,,2,0,1,,,,,,,,0,,,76,127
36288,note_on,,96,0,11,,,,,,,,11,,,67,0
36288,note_on,,224,0,2,,,,,,,,1,,,60,127
36288,note_on,,0,0,5,,,,,,,,4,,,76,108
36288,note_on,,224,0,4,,,,,,,,3,,,60,127
36288,note_on,,192,0,12,,,,,,,,12,,,60,92
36288,note_on,,224,0,3,,,,,,,,2,,,67,127
36288,note_on,,0,0,11,,,,,,,,11,,,76,92
36288,note_on,,96,0,5,,,,,,,,4,,,79,0
36382,note_on,,94,0,1,,,,,,,,0,,,76,0
36384,note_on,,96,0,11,,,,,,,,11,,,76,0
36384,note_on,,0,0,11,,,,,,,,11,,,74,92
36384,note_on,,2,0,1,,,,,,,,0,,,74,127
36384,note_on,,0,0,10,,,,,,,,10,,,74,92
36384,note_on,,96,0,10,,,,,,,,10,,,76,0
36384,note_on,,0,0,5,,,,,,,,4,,,74,108
36384,note_on,,96,0,5,,,,,,,,4,,,76,0
36448,note_on,,160,0,2,,,,,,,,1,,,60,0
36448,note_on,,160,0,3,,,,,,,,2,,,67,0
36448,note_on,,160,0,4,,,,,,,,3,,,60,0
36478,note_on,,94,0,1,,,,,,,,0,,,74,0
36480,note_on,,0,0,12,,,,,,,,12,,,58,92
36480,note_on,,96,0,11,,,,,,,,11,,,74,0
36480,note_on,,0,0,9,,,,,,,,8,,,46,75
36480,note_on,,0,0,10,,,,,,,,10,,,76,92
36480,note_on,,96,0,5,,,,,,,,4,,,74,0
36480,note_on,,0,0,5,,,,,,,,4,,,76,108
36480,note_on,,192,0,9,,,,,,,,8,,,48,0
36480,note_on,,0,0,11,,,,,,,,11,,,76,92
36480,note_on,,32,0,2,,,,,,,,1,,,60,127
36480,note_on,,96,0,10,,,,,,,,10,,,74,0
36480,note_on,,192,0,7,,,,,,,,6,,,60,0
36480,note_on,,32,0,3,,,,,,,,2,,,64,127
36480,note_on,,2,0,1,,,,,,,,0,,,76,127
36480,note_on,,32,0,4,,,,,,,,3,,,58,127
36480,note_on,,0,0,7,,,,,,,,6,,,60,92
36480,note_on,,0,0,6,,,,,,,,5,,,67,108
36480,note_on,,192,0,12,,,,,,,,12,,,60,0
36480,note_on,,192,0,8,,,,,,,,7,,,60,0
36480,note_on,,192,0,6,,,,,,,,5,,,67,0
36480,note_on,,0,0,8,,,,,,,,7,,,58,92
36574,note_on,,94,0,1,,,,,,,,0,,,76,0
36576,note_on,,2,0,1,,,,,,,,0,,,72,127
36576,note_on,,0,0,5,,,,,,,,4,,,72,108
36576,note_on,,96,0,11,,,,,,,,11,,,76,0
36576,note_on,,0,0,11,,,,,,,,11,,,72,92
36576,note_on,,96,0,10,,,,,,,,10,,,76,0
36576,note_on,,96,0,5,,,,,,,,4,,,76,0
36576,note_on,,0,0,10,,,,,,,,10,,,72,92
36640,note_on,,160,0,2,,,,,,,,1,,,60,0
36640,note_on,,160,0,3,,,,,,,,2,,,64,0
36640,note_on,,160,0,4,,,,,,,,3,,,58,0
36670,note_on,,94,0,1,,,,,,,,0,,,72,0
36672,note_on,,32,0,4,,,,,,,,3,,,57,127
36672,note_on,,2,0,1,,,,,,,,0,,,77,127
36672,note_on,,0,0,12,,,,,,,,12,,,57,92
36672,note_on,,32,0,3,,,,,,,,2,,,60,127
36672,note_on,,0,0,5,,,,,,,,4,,,77,108
36672,note_on,,96,0,11,,,,,,,,11,,,72,0
36672,note_on,,0,0,6,,,,,,,,5,,,72,108
36672,note_on,,192,0,6,,,,,,,,5,,,67,0
36672,note_on,,0,0,10,,,,,,,,10,,,77,92
36672,note_on,,0,0,8,,,,,,,,7,,,57,92
36672,note_on,,192,0,8,,,,,,,,7,,,58,0
36672,note_on,,192,0,9,,,,,,,,8,,,46,0
36672,note_on,,0,0,9,,,,,,,,8,,,45,75
36672,note_on,,0,0,7,,,,,,,,6,,,60,92
36672,note_on,,96,0,10,,,,,,,,10,,,72,0
36672,note_on,,32,0,2,,,,,,,,1,,,60,127
36672,note_on,,0,0,11,,,,,,,,11,,,77,92
36672,note_on,,192,0,7,,,,,,,,6,,,60,0
36672,note_on,,192,0,12,,,,,,,,12,,,58,0
36672,note_on,,96,0,5,,,,,,,,4,,,72,0
36766,note_on,,94,0,3,,,,,,,,2,,,60,0
36768,note_on,,2,0,3,,,,,,,,2,,,57,127
36768,note_on,,0,0,6,,,,,,,,5,,,69,108
36768,note_on,,96,0,6,,,,,,,,5,,,72,0
36832,note_on,,160,0,4,,,,,,,,3,,,57,0
36832,note_on,,160,0,2,,,,,,,,1,,,60,0
36832,note_on,,160,0,1,,,,,,,,0,,,77,0
36862,note_on,,94,0,3,,,,,,,,2,,,57,0
36864,note_on,,192,0,10,,,,,,,,10,,,77,0
36864,note_on,,192,0,8,,,,,,,,7,,,57,0
36864,note_on,,192,0,9,,,,,,,,8,,,45,0
36864,note_on,,2,0,3,,,,,,,,2,,,58,127
36864,note_on,,96,0,6,,,,,,,,5,,,69,0
36864,note_on,,192,0,12,,,,,,,,12,,,57,0
36864,note_on,,192,0,11,,,,,,,,11,,,77,0
36864,note_on,,192,0,7,,,,,,,,6,,,60,0
36864,note_on,,0,0,6,,,,,,,,5,,,70,108
36864,note_on,,192,0,5,,,,,,,,4,,,77,0
36958,note_on,,94,0,3,,,,,,,,2,,,58,0
36960,note_on,,96,0,10,,,,,,,,10,,,69,92
36960,note_on,,96,0,12,,,,,,,,12,,,53,92
36960,note_on,,96,0,8,,,,,,,,7,,,53,92
36960,note_on,,128,0,2,,,,,,,,1,,,69,127
36960,note_on,,96,0,9,,,,,,,,8,,,41,75
36960,note_on,,96,0,6,,,,,,,,5,,,70,0
36960,note_on,,96,0,7,,,,,,,,6,,,69,92
36960,note_on,,0,0,6,,,,,,,,5,,,72,108
36960,note_on,,128,0,1,,,,,,,,0,,,69,127
36960,note_on,,2,0,3,,,,,,,,2,,,60,127
36960,note_on,,96,0,11,,,,,,,,11,,,69,92
36960,note_on,,128,0,4,,,,,,,,3,,,53,127
37054,note_on,,94,0,1,,,,,,,,0,,,69,0
37054,note_on,,94,0,4,,,,,,,,3,,,53,0
37054,note_on,,94,0,2,,,,,,,,1,,,69,0
37054,note_on,,94,0,3,,,,,,,,2,,,60,0
37056,note_on,,0,0,6,,,,,,,,5,,,65,108
37056,note_on,,96,0,6,,,,,,,,5,,,72,0
37056,note_on,,96,0,11,,,,,,,,11,,,69,0
37056,note_on,,0,0,12,,,,,,,,12,,,50,92
37056,note_on,,96,0,12,,,,,,,,12,,,53,0
37056,note_on,,2,0,1,,,,,,,,0,,,70,127
37056,note_on,,0,0,7,,,,,,,,6,,,70,92
37056,note_on,,2,0,4,,,,,,,,3,,,50,127
37056,note_on,,0,0,8,,,,,,,,7,,,50,92
37056,note_on,,96,0,7,,,,,,,,6,,,69,0
37056,note_on,,2,0,3,,,,,,,,2,,,53,127
37056,note_on,,96,0,8,,,,,,,,7,,,53,0
37056,note_on,,0,0,9,,,,,,,,8,,,38,75
37056,note_on,,96,0,9,,,,,,,,8,,,41,0
37056,note_on,,0,0,10,,,,,,,,10,,,70,92
37056,note_on,,96,0,10,,,,,,,,10,,,69,0
37056,note_on,,0,0,11,,,,,,,,11,,,70,92
37198,note_on,,142,0,4,,,,,,,,3,,,50,0
37200,note_on,,0,0,9,,,,,,,,8,,,36,75
37200,note_on,,2,0,4,,,,,,,,3,,,48,127
37200,note_on,,0,0,8,,,,,,,,7,,,48,92
37200,note_on,,0,0,12,,,,,,,,12,,,48,92
37200,note_on,,144,0,12,,,,,,,,12,,,50,0
37200,note_on,,144,0,9,,,,,,,,8,,,38,0
37200,note_on,,144,0,8,,,,,,,,7,,,50,0
37216,note_on,,160,0,1,,,,,,,,0,,,70,0
37216,note_on,,160,0,3,,,,,,,,2,,,53,0
37246,note_on,,46,0,4,,,,,,,,3,,,48,0
37248,note_on,,2,0,4,,,,,,,,3,,,50,127
37248,note_on,,0,0,7,,,,,,,,6,,,58,92
37248,note_on,,192,0,7,,,,,,,,6,,,70,0
37248,note_on,,0,0,12,,,,,,,,12,,,50,92
37248,note_on,,192,0,11,,,,,,,,11,,,70,0
37248,note_on,,192,0,10,,,,,,,,10,,,70,0
37248,note_on,,0,0,6,,,,,,,,5,,,77,108
37248,note_on,,192,0,6,,,,,,,,5,,,65,0
37248,note_on,,0,0,8,,,,,,,,7,,,50,92
37248,note_on,,32,0,3,,,,,,,,2,,,65,127
37248,note_on,,0,0,9,,,,,,,,8,,,38,75
37248,note_on,,48,0,9,,,,,,,,8,,,36,0
37248,note_on,,48,0,8,,,,,,,,7,,,48,0
37248,note_on,,48,0,12,,,,,,,,12,,,48,0
37342,note_on,,94,0,4,,,,,,,,3,,,50,0
37344,note_on,,96,0,12,,,,,,,,12,,,50,0
37344,note_on,,0,0,8,,,,,,,,7,,,46,92
37344,note_on,,96,0,8,,,,,,,,7,,,50,0
37344,note_on,,290,0,2,,,,,,,,1,,,70,127
37344,note_on,,2,0,4,,,,,,,,3,,,46,127
37344,note_on,,480,0,5,,,,,,,,4,,,82,108
37344,note_on,,0,0,9,,,,,,,,8,,,34,75
37344,note_on,,96,0,9,,,,,,,,8,,,38,0
37344,note_on,,0,0,12,,,,,,,,12,,,46,92
37408,note_on,,160,0,3,,,,,,,,2,,,65,0
37438,note_on,,94,0,2,,,,,,,,1,,,70,0
37438,note_on,,94,0,4,,,,,,,,3,,,46,0
37440,note_on,,192,0,6,,,,,,,,5,,,77,0
37440,note_on,,0,0,5,,,,,,,,4,,,81,108
37440,note_on,,96,0,5,,,,,,,,4,,,82,0
37440,note_on,,0,0,6,,,,,,,,5,,,72,108
37440,note_on,,2,0,2,,,,,,,,1,,,69,127
37440,note_on,,96,0,12,,,,,,,,12,,,46,0
37440,note_on,,96,0,8,,,,,,,,7,,,46,0
37440,note_on,,0,0,8,,,,,,,,7,,,53,92
37440,note_on,,32,0,3,,,,,,,,2,,,60,127
37440,note_on,,0,0,9,,,,,,,,8,,,41,75
37440,note_on,,96,0,9,,,,,,,,8,,,34,0
37440,note_on,,192,0,7,,,,,,,,6,,,58,0
37440,note_on,,0,0,7,,,,,,,,6,,,60,92
37440,note_on,,0,0,12,,,,,,,,12,,,53,92
37440,note_on,,2,0,4,,,,,,,,3,,,53,127
37582,note_on,,142,0,2,,,,,,,,1,,,69,0
37584,note_on,,144,0,5,,,,,,,,4,,,81,0
37584,note_on,,0,0,5,,,,,,,,4,,,79,108
37584,note_on,,2,0,2,,,,,,,,1,,,67,127
37600,note_on,,160,0,4,,,,,,,,3,,,53,0
37630,note_on,,46,0,2,,,,,,,,1,,,67,0
37632,note_on,,32,0,4,,,,,,,,3,,,51,127
37632,note_on,,192,0,9,,,,,,,,8,,,41,0
37632,note_on,,2,0,2,,,,,,,,1,,,69,127
37632,note_on,,0,0,9,,,,,,,,8,,,39,75
37632,note_on,,192,0,8,,,,,,,,7,,,53,0
37632,note_on,,0,0,5,,,,,,,,4,,,81,108
37632,note_on,,192,0,12,,,,,,,,12,,,53,0
37632,note_on,,0,0,12,,,,,,,,12,,,51,92
37632,note_on,,0,0,8,,,,,,,,7,,,51,92
37632,note_on,,48,0,5,,,,,,,,4,,,79,0
37696,note_on,,256,0,3,,,,,,,,2,,,60,0
37726,note_on,,94,0,2,,,,,,,,1,,,69,0
37728,note_on,,96,0,5,,,,,,,,4,,,81,0
37728,note_on,,0,0,6,,,,,,,,5,,,69,108
37728,note_on,,32,0,3,,,,,,,,2,,,57,127
37728,note_on,,2,0,2,,,,,,,,1,,,65,127
37728,note_on,,288,0,7,,,,,,,,6,,,60,0
37728,note_on,,0,0,7,,,,,,,,6,,,60,92
37728,note_on,,288,0,6,,,,,,,,5,,,72,0
37728,note_on,,0,0,5,,,,,,,,4,,,77,108
37792,note_on,,160,0,4,,,,,,,,3,,,51,0
37822,note_on,,94,0,2,,,,,,,,1,,,65,0
37822,note_on,,94,0,3,,,,,,,,2,,,57,0
37824,note_on,,0,0,8,,,,,,,,7,,,50,92
37824,note_on,,192,0,8,,,,,,,,7,,,51,0
37824,note_on,,0,0,7,,,,,,,,6,,,62,92
37824,note_on,,2,0,3,,,,,,,,2,,,53,127
37824,note_on,,96,0,7,,,,,,,,6,,,60,0
37824,note_on,,192,0,9,,,,,,,,8,,,39,0
37824,note_on,,0,0,6,,,,,,,,5,,,65,108
37824,note_on,,32,0,4,,,,,,,,3,,,50,127
37824,note_on,,96,0,6,,,,,,,,5,,,69,0
37824,note_on,,2,0,2,,,,,,,,1,,,70,127
37824,note_on,,0,0,9,,,,,,,,8,,,38,75
37824,note_on,,0,0,12,,,,,,,,12,,,50,92
37824,note_on,,192,0,12,,,,,,,,12,,,51,0
37824,note_on,,96,0,5,,,,,,,,4,,,77,0
37824,note_on,,0,0,5,,,,,,,,4,,,82,108
37918,note_on,,94,0,4,,,,,,,,3,,,50,0
37920,note_on,,2,0,4,,,,,,,,3,,,53,127
37920,note_on,,0,0,8,,,,,,,,7,,,53,92
37920,note_on,,96,0,8,,,,,,,,7,,,50,0
37920,note_on,,96,0,12,,,,,,,,12,,,50,0
37920,note_on,,96,0,7,,,,,,,,6,,,62,0
37920,note_on,,0,0,9,,,,,,,,8,,,41,75
37920,note_on,,96,0,9,,,,,,,,8,,,38,0
37920,note_on,,0,0,12,,,,,,,,12,,,53,92
37920,note_on,,0,0,7,,,,,,,,6,,,57,92
37984,note_on,,160,0,2,,,,,,,,1,,,70,0
37984,note_on,,160,0,3,,,,,,,,2,,,53,0
38014,note_on,,94,0,4,,,,,,,,3,,,53,0
38016,note_on,,192,0,5,,,,,,,,4,,,82,0
38016,note_on,,0,0,5,,,,,,,,4,,,75,108
38016,note_on,,0,0,7,,,,,,,,6,,,58,92
38016,note_on,,96,0,12,,,,,,,,12,,,53,0
38016,note_on,,96,0,9,,,,,,,,8,,,41,0
38016,note_on,,96,0,8,,,,,,,,7,,,53,0
38016,note_on,,32,0,2,,,,,,,,1,,,63,127
38016,note_on,,0,0,8,,,,,,,,7,,,55,92
38016,note_on,,96,0,7,,,,,,,,6,,,57,0
38016,note_on,,0,0,9,,,,,,,,8,,,43,75
38016,note_on,,2,0,4,,,,,,,,3,,,55,127
38016,note_on,,0,0,12,,,,,,,,12,,,55,92
38110,note_on,,94,0,4,,,,,,,,3,,,55,0
38112,note_on,,2,0,4,,,,,,,,3,,,57,127
38112,note_on,,96,0,9,,,,,,,,8,,,43,0
38112,note_on,,0,0,12,,,,,,,,12,,,57,92
38112,note_on,,0,0,8,,,,,,,,7,,,57,92
38112,note_on,,0,0,7,,,,,,,,6,,,60,92
38112,note_on,,0,0,6,,,,,,,,5,,,65,108
38112,note_on,,288,0,6,,,,,,,,5,,,65,0
38112,note_on,,96,0,12,,,,,,,,12,,,55,0
38112,note_on,,96,0,8,,,,,,,,7,,,55,0
38112,note_on,,0,0,9,,,,,,,,8,,,45,75
38112,note_on,,96,0,7,,,,,,,,6,,,58,0
38176,note_on,,160,0,2,,,,,,,,1,,,63,0
38206,note_on,,94,0,4,,,,,,,,3,,,57,0
38208,note_on,,96,0,6,,,,,,,,5,,,65,0
38208,note_on,,96,0,12,,,,,,,,12,,,57,0
38208,note_on,,0,0,12,,,,,,,,12,,,58,92
38208,note_on,,32,0,2,,,,,,,,1,,,62,127
38208,note_on,,0,0,9,,,,,,,,8,,,46,75
38208,note_on,,0,0,7,,,,,,,,6,,,62,92
38208,note_on,,0,0,6,,,,,,,,5,,,65,108
38208,note_on,,96,0,9,,,,,,,,8,,,45,0
38208,note_on,,96,0,7,,,,,,,,6,,,60,0
38208,note_on,,2,0,4,,,,,,,,3,,,58,127
38208,note_on,,0,0,5,,,,,,,,4,,,74,108
38208,note_on,,192,0,5,,,,,,,,4,,,75,0
38208,note_on,,0,0,8,,,,,,,,7,,,58,92
38208,note_on,,96,0,8,,,,,,,,7,,,57,0
38302,note_on,,94,0,2,,,,,,,,1,,,62,0
38304,note_on,,2,0,2,,,,,,,,1,,,65,127
38304,note_on,,0,0,5,,,,,,,,4,,,77,108
38304,note_on,,96,0,5,,,,,,,,4,,,74,0
38368,note_on,,160,0,4,,,,,,,,3,,,58,0
38398,note_on,,94,0,2,,,,,,,,1,,,65,0
38400,note_on,,0,0,5,,,,,,,,4,,,79,108
38400,note_on,,96,0,5,,,,,,,,4,,,77,0
38400,note_on,,192,0,7,,,,,,,,6,,,62,0
38400,note_on,,2,0,2,,,,,,,,1,,,67,127
38400,note_on,,192,0,8,,,,,,,,7,,,58,0
38400,note_on,,0,0,7,,,,,,,,6,,,63,92
38400,note_on,,0,0,12,,,,,,,,12,,,51,92
38400,note_on,,192,0,12,,,,,,,,12,,,58,0
38400,note_on,,0,0,9,,,,,,,,8,,,39,75
38400,note_on,,192,0,9,,,,,,,,8,,,46,0
38400,note_on,,32,0,4,,,,,,,,3,,,51,127
38400,note_on,,192,0,6,,,,,,,,5,,,65,0
38400,note_on,,0,0,8,,,,,,,,7,,,51,92
38494,note_on,,94,0,2,,,,,,,,1,,,67,0
38496,note_on,,2,0,2,,,,,,,,1,,,69,127
38496,note_on,,96,0,5,,,,,,,,4,,,79,0
38496,note_on,,0,0,5,,,,,,,,4,,,81,108
38560,note_on,,160,0,4,,,,,,,,3,,,51,0
38590,note_on,,94,0,2,,,,,,,,1,,,69,0
38592,note_on,,192,0,8,,,,,,,,7,,,51,0
38592,note_on,,0,0,5,,,,,,,,4,,,82,108
38592,note_on,,2,0,2,,,,,,,,1,,,70,127
38592,note_on,,0,0,12,,,,,,,,12,,,50,92
38592,note_on,,96,0,5,,,,,,,,4,,,81,0
38592,note_on,,192,0,9,,,,,,,,8,,,39,0
38592,note_on,,0,0,9,,,,,,,,8,,,38,75
38592,note_on,,32,0,4,,,,,,,,3,,,50,127
38592,note_on,,192,0,12,,,,,,,,12,,,51,0
38592,note_on,,0,0,8,,,,,,,,7,,,50,92
38592,note_on,,192,0,7,,,,,,,,6,,,63,0
38592,note_on,,0,0,7,,,,,,,,6,,,65,92
38688,note_on,,1472,0,1,,,,,,,,0,,,65,127
38688,note_on,,1440,0,10,,,,,,,,10,,,77,92
38688,note_on,,1440,0,11,,,,,,,,11,,,77,92
38734,note_on,,142,0,4,,,,,,,,3,,,50,0
38736,note_on,,2,0,4,,,,,,,,3,,,51,127
38752,note_on,,160,0,2,,,,,,,,1,,,70,0
38782,note_on,,94,0,1,,,,,,,,0,,,65,0
38782,note_on,,46,0,4,,,,,,,,3,,,51,0
38784,note_on,,0,0,12,,,,,,,,12,,,48,92
38784,note_on,,192,0,12,,,,,,,,12,,,50,0
38784,note_on,,192,0,9,,,,,,,,8,,,38,0
38784,note_on,,192,0,5,,,,,,,,4,,,82,0
38784,note_on,,96,0,10,,,,,,,,10,,,77,0
38784,note_on,,0,0,10,,,,,,,,10,,,79,92
38784,note_on,,0,0,5,,,,,,,,4,,,75,108
38784,note_on,,192,0,7,,,,,,,,6,,,65,0
38784,note_on,,0,0,11,,,,,,,,11,,,79,92
38784,note_on,,96,0,11,,,,,,,,11,,,77,0
38784,note_on,,2,0,4,,,,,,,,3,,,48,127
38784,note_on,,0,0,8,,,,,,,,7,,,48,92
38784,note_on,,2,0,1,,,,,,,,0,,,67,127
38784,note_on,,192,0,8,,,,,,,,7,,,50,0
38784,note_on,,32,0,2,,,,,,,,1,,,63,127
38784,note_on,,0,0,9,,,,,,,,8,,,36,75
38878,note_on,,94,0,1,,,,,,,,0,,,67,0
38880,note_on,,896,0,3,,,,,,,,2,,,60,127
38880,note_on,,0,0,11,,,,,,,,11,,,81,92
38880,note_on,,96,0,11,,,,,,,,11,,,79,0
38880,note_on,,2,0,1,,,,,,,,0,,,69,127
38880,note_on,,0,0,10,,,,,,,,10,,,81,92
38880,note_on,,96,0,7,,,,,,,,6,,,60,92
38880,note_on,,96,0,10,,,,,,,,10,,,79,0
38880,note_on,,480,0,6,,,,,,,,5,,,72,108
38944,note_on,,160,0,4,,,,,,,,3,,,48,0
38944,note_on,,160,0,2,,,,,,,,1,,,63,0
38974,note_on,,94,0,3,,,,,,,,2,,,60,0
38974,note_on,,94,0,1,,,,,,,,0,,,69,0
38976,note_on,,0,0,5,,,,,,,,4,,,74,108
38976,note_on,,192,0,9,,,,,,,,8,,,36,0
38976,note_on,,2,0,1,,,,,,,,0,,,70,127
38976,note_on,,192,0,5,,,,,,,,4,,,75,0
38976,note_on,,0,0,9,,,,,,,,8,,,34,75
38976,note_on,,0,0,11,,,,,,,,11,,,82,92
38976,note_on,,96,0,10,,,,,,,,10,,,81,0
38976,note_on,,192,0,8,,,,,,,,7,,,48,0
38976,note_on,,32,0,2,,,,,,,,1,,,65,127
38976,note_on,,0,0,8,,,,,,,,7,,,46,92
38976,note_on,,0,0,7,,,,,,,,6,,,65,92
38976,note_on,,96,0,7,,,,,,,,6,,,60,0
38976,note_on,,0,0,10,,,,,,,,10,,,82,92
38976,note_on,,2,0,3,,,,,,,,2,,,62,127
38976,note_on,,96,0,6,,,,,,,,5,,,72,0
38976,note_on,,192,0,12,,,,,,,,12,,,48,0
38976,note_on,,0,0,6,,,,,,,,5,,,74,108
38976,note_on,,32,0,4,,,,,,,,3,,,46,127
38976,note_on,,96,0,11,,,,,,,,11,,,81,0
38976,note_on,,0,0,12,,,,,,,,12,,,46,92
39070,note_on,,94,0,3,,,,,,,,2,,,62,0
39072,note_on,,2,0,3,,,,,,,,2,,,60,127
39072,note_on,,0,0,6,,,,,,,,5,,,72,108
39072,note_on,,96,0,6,,,,,,,,5,,,74,0
39136,note_on,,160,0,4,,,,,,,,3,,,46,0
39136,note_on,,160,0,1,,,,,,,,0,,,70,0
39166,note_on,,94,0,3,,,,,,,,2,,,60,0
39168,note_on,,32,0,1,,,,,,,,0,,,65,127
39168,note_on,,192,0,9,,,,,,,,8,,,34,0
39168,note_on,,192,0,7,,,,,,,,6,,,65,0
39168,note_on,,192,0,5,,,,,,,,4,,,74,0
39168,note_on,,192,0,12,,,,,,,,12,,,46,0
39168,note_on,,0,0,5,,,,,,,,4,,,65,108
39168,note_on,,192,0,8,,,,,,,,7,,,46,0
39168,note_on,,2,0,3,,,,,,,,2,,,62,127
39168,note_on,,192,0,10,,,,,,,,10,,,82,0
39168,note_on,,0,0,10,,,,,,,,10,,,77,92
39168,note_on,,192,0,11,,,,,,,,11,,,82,0
39168,note_on,,0,0,11,,,,,,,,11,,,77,92
39168,note_on,,0,0,6,,,,,,,,5,,,74,108
39168,note_on,,96,0,6,,,,,,,,5,,,72,0
39232,note_on,,256,0,2,,,,,,,,1,,,65,0
39262,note_on,,94,0,3,,,,,,,,2,,,62,0
39262,note_on,,94,0,1,,,,,,,,0,,,65,0
39264,note_on,,96,0,7,,,,,,,,6,,,65,92
39264,note_on,,32,0,2,,,,,,,,1,,,65,127
39264,note_on,,128,0,4,,,,,,,,3,,,58,127
39264,note_on,,96,0,9,,,,,,,,8,,,46,75
39264,note_on,,96,0,8,,,,,,,,7,,,58,92
39264,note_on,,2,0,3,,,,,,,,2,,,58,127
39264,note_on,,0,0,5,,,,,,,,4,,,74,108
39264,note_on,,96,0,12,,,,,,,,12,,,58,92
39264,note_on,,0,0,6,,,,,,,,5,,,70,108
39264,note_on,,96,0,5,,,,,,,,4,,,65,0
39264,note_on,,2,0,1,,,,,,,,0,,,74,127
39264,note_on,,96,0,6,,,,,,,,5,,,74,0
39358,note_on,,94,0,2,,,,,,,,1,,,65,0
39358,note_on,,94,0,4,,,,,,,,3,,,58,0
39358,note_on,,94,0,3,,,,,,,,2,,,58,0
39358,note_on,,94,0,1,,,,,,,,0,,,74,0
39360,note_on,,96,0,12,,,,,,,,12,,,58,0
39360,note_on,,96,0,5,,,,,,,,4,,,74,0
39360,note_on,,0,0,8,,,,,,,,7,,,57,92
39360,note_on,,96,0,8,,,,,,,,7,,,58,0
39360,note_on,,2,0,2,,,,,,,,1,,,65,127
39360,note_on,,2,0,4,,,,,,,,3,,,57,127
39360,note_on,,96,0,9,,,,,,,,8,,,46,0
39360,note_on,,2,0,1,,,,,,,,0,,,72,127
39360,note_on,,0,0,12,,,,,,,,12,,,57,92
39360,note_on,,96,0,7,,,,,,,,6,,,65,0
39360,note_on,,2,0,3,,,,,,,,2,,,65,127
39360,note_on,,0,0,7,,,,,,,,6,,,65,92
39360,note_on,,0,0,6,,,,,,,,5,,,77,108
39360,note_on,,96,0,6,,,,,,,,5,,,70,0
39360,note_on,,0,0,9,,,,,,,,8,,,45,75
39360,note_on,,0,0,5,,,,,,,,4,,,72,108
39454,note_on,,94,0,1,,,,,,,,0,,,72,0
39456,note_on,,2,0,1,,,,,,,,0,,,70,127
39456,note_on,,96,0,5,,,,,,,,4,,,72,0
39456,note_on,,0,0,5,,,,,,,,4,,,70,108
39502,note_on,,142,0,4,,,,,,,,3,,,57,0
39504,note_on,,0,0,9,,,,,,,,8,,,43,75
39504,note_on,,0,0,12,,,,,,,,12,,,55,92
39504,note_on,,144,0,12,,,,,,,,12,,,57,0
39504,note_on,,144,0,8,,,,,,,,7,,,57,0
39504,note_on,,144,0,9,,,,,,,,8,,,45,0
39504,note_on,,0,0,8,,,,,,,,7,,,55,92
39504,note_on,,2,0,4,,,,,,,,3,,,55,127
39520,note_on,,160,0,3,,,,,,,,2,,,65,0
39520,note_on,,160,0,2,,,,,,,,1,,,65,0
39550,note_on,,94,0,1,,,,,,,,0,,,70,0
39550,note_on,,46,0,4,,,,,,,,3,,,55,0
39552,note_on,,0,0,6,,,,,,,,5,,,75,108
39552,note_on,,192,0,6,,,,,,,,5,,,77,0
39552,note_on,,48,0,9,,,,,,,,8,,,43,0
39552,note_on,,0,0,9,,,,,,,,8,,,45,75
39552,note_on,,48,0,8,,,,,,,,7,,,55,0
39552,note_on,,0,0,8,,,,,,,,7,,,57,92
39552,note_on,,32,0,3,,,,,,,,2,,,63,127
39552,note_on,,2,0,1,,,,,,,,0,,,72,127
39552,note_on,,384,0,10,,,,,,,,10,,,77,0
39552,note_on,,0,0,12,,,,,,,,12,,,57,92
39552,note_on,,48,0,12,,,,,,,,12,,,55,0
39552,note_on,,2,0,4,,,,,,,,3,,,57,127
39552,note_on,,0,0,11,,,,,,,,11,,,75,92
39552,note_on,,384,0,11,,,,,,,,11,,,77,0
39552,note_on,,96,0,5,,,,,,,,4,,,70,0
39552,note_on,,0,0,5,,,,,,,,4,,,72,108
39552,note_on,,0,0,10,,,,,,,,10,,,75,92
39646,note_on,,94,0,4,,,,,,,,3,,,57,0
39646,note_on,,94,0,1,,,,,,,,0,,,72,0
39648,note_on,,96,0,8,,,,,,,,7,,,57,0
39648,note_on,,0,0,8,,,,,,,,7,,,53,92
39648,note_on,,96,0,5,,,,,,,,4,,,72,0
39648,note_on,,0,0,5,,,,,,,,4,,,69,108
39648,note_on,,0,0,12,,,,,,,,12,,,53,92
39648,note_on,,96,0,12,,,,,,,,12,,,57,0
39648,note_on,,0,0,7,,,,,,,,6,,,60,92
39648,note_on,,96,0,9,,,,,,,,8,,,45,0
39648,note_on,,0,0,9,,,,,,,,8,,,41,75
39648,note_on,,288,0,7,,,,,,,,6,,,65,0
39648,note_on,,2,0,1,,,,,,,,0,,,69,127
39648,note_on,,2,0,4,,,,,,,,3,,,53,127
39712,note_on,,160,0,3,,,,,,,,2,,,63,0
39742,note_on,,94,0,4,,,,,,,,3,,,53,0
39742,note_on,,94,0,1,,,,,,,,0,,,69,0
39744,note_on,,2,0,1,,,,,,,,0,,,77,127
39744,note_on,,0,0,12,,,,,,,,12,,,58,92
39744,note_on,,96,0,12,,,,,,,,12,,,53,0
39744,note_on,,32,0,3,,,,,,,,2,,,62,127
39744,note_on,,96,0,5,,,,,,,,4,,,69,0
39744,note_on,,192,0,11,,,,,,,,11,,,75,0
39744,note_on,,0,0,11,,,,,,,,11,,,74,92
39744,note_on,,2,0,4,,,,,,,,3,,,58,127
39744,note_on,,0,0,5,,,,,,,,4,,,65,108
39744,note_on,,96,0,7,,,,,,,,6,,,60,0
39744,note_on,,0,0,7,,,,,,,,6,,,62,92
39744,note_on,,0,0,6,,,,,,,,5,,,74,108
39744,note_on,,192,0,6,,,,,,,,5,,,75,0
39744,note_on,,192,0,10,,,,,,,,10,,,75,0
39744,note_on,,0,0,10,,,,,,,,10,,,74,92
39744,note_on,,96,0,8,,,,,,,,7,,,53,0
39744,note_on,,0,0,8,,,,,,,,7,,,58,92
39744,note_on,,0,0,9,,,,,,,,8,,,46,75
39744,note_on,,96,0,9,,,,,,,,8,,,41,0
39840,note_on,,0,0,11,,,,,,,,11,,,77,92
39840,note_on,,0,0,10,,,,,,,,10,,,77,92
39840,note_on,,96,0,10,,,,,,,,10,,,74,0
39840,note_on,,320,0,2,,,,,,,,1,,,65,127
39840,note_on,,0,0,5,,,,,,,,4,,,77,108
39840,note_on,,96,0,5,,,,,,,,4,,,65,0
39840,note_on,,96,0,11,,,,,,,,11,,,74,0
39904,note_on,,160,0,4,,,,,,,,3,,,58,0
39904,note_on,,160,0,1,,,,,,,,0,,,77,0
39904,note_on,,160,0,3,,,,,,,,2,,,62,0
39934,note_on,,94,0,2,,,,,,,,1,,,65,0
39936,note_on,,32,0,4,,,,,,,,3,,,63,127
39936,note_on,,192,0,12,,,,,,,,12,,,58,0
39936,note_on,,0,0,12,,,,,,,,12,,,63,92
39936,note_on,,0,0,7,,,,,,,,6,,,63,92
39936,note_on,,96,0,5,,,,,,,,4,,,77,0
39936,note_on,,0,0,5,,,,,,,,4,,,79,108
39936,note_on,,2,0,2,,,,,,,,1,,,67,127
39936,note_on,,192,0,7,,,,,,,,6,,,62,0
39936,note_on,,0,0,10,,,,,,,,10,,,79,92
39936,note_on,,32,0,1,,,,,,,,0,,,70,127
39936,note_on,,0,0,9,,,,,,,,8,,,51,75
39936,note_on,,192,0,9,,,,,,,,8,,,46,0
39936,note_on,,96,0,10,,,,,,,,10,,,77,0
39936,note_on,,96,0,11,,,,,,,,11,,,77,0
39936,note_on,,0,0,8,,,,,,,,7,,,63,92
39936,note_on,,192,0,8,,,,,,,,7,,,58,0
39936,note_on,,0,0,11,,,,,,,,11,,,79,92
39936,note_on,,0,0,6,,,,,,,,5,,,70,108
39936,note_on,,192,0,6,,,,,,,,5,,,74,0
40030,note_on,,94,0,1,,,,,,,,0,,,70,0
40030,note_on,,94,0,2,,,,,,,,1,,,67,0
40032,note_on,,2,0,2,,,,,,,,1,,,69,127
40032,note_on,,0,0,11,,,,,,,,11,,,81,92
40032,note_on,,0,0,5,,,,,,,,4,,,81,108
40032,note_on,,96,0,5,,,,,,,,4,,,79,0
40032,note_on,,96,0,11,,,,,,,,11,,,79,0
40032,note_on,,96,0,10,,,,,,,,10,,,79,0
40032,note_on,,96,0,6,,,,,,,,5,,,70,0
40032,note_on,,0,0,6,,,,,,,,5,,,72,108
40032,note_on,,2,0,1,,,,,,,,0,,,72,127
40032,note_on,,0,0,10,,,,,,,,10,,,81,92
40096,note_on,,160,0,4,,,,,,,,3,,,63,0
40126,note_on,,94,0,1,,,,,,,,0,,,72,0
40126,note_on,,94,0,2,,,,,,,,1,,,69,0
40128,note_on,,192,0,7,,,,,,,,6,,,63,0
40128,note_on,,96,0,5,,,,,,,,4,,,81,0
40128,note_on,,0,0,5,,,,,,,,4,,,82,108
40128,note_on,,192,0,12,,,,,,,,12,,,63,0
40128,note_on,,0,0,12,,,,,,,,12,,,62,92
40128,note_on,,0,0,7,,,,,,,,6,,,65,92
40128,note_on,,2,0,1,,,,,,,,0,,,65,127
40128,note_on,,96,0,6,,,,,,,,5,,,72,0
40128,note_on,,96,0,10,,,,,,,,10,,,81,0
40128,note_on,,32,0,4,,,,,,,,3,,,62,127
40128,note_on,,0,0,6,,,,,,,,5,,,65,108
40128,note_on,,192,0,8,,,,,,,,7,,,63,0
40128,note_on,,0,0,8,,,,,,,,7,,,62,92
40128,note_on,,192,0,9,,,,,,,,8,,,51,0
40128,note_on,,0,0,10,,,,,,,,10,,,82,92
40128,note_on,,2,0,2,,,,,,,,1,,,70,127
40128,note_on,,96,0,11,,,,,,,,11,,,81,0
40128,note_on,,0,0,11,,,,,,,,11,,,82,92
40128,note_on,,0,0,9,,,,,,,,8,,,50,75
40222,note_on,,94,0,4,,,,,,,,3,,,62,0
40224,note_on,,0,0,11,,,,,,,,11,,,74,92
40224,note_on,,320,0,3,,,,,,,,2,,,62,127
40224,note_on,,2,0,4,,,,,,,,3,,,53,127
40224,note_on,,0,0,10,,,,,,,,10,,,74,92
40224,note_on,,96,0,7,,,,,,,,6,,,65,0
40224,note_on,,96,0,12,,,,,,,,12,,,62,0
40224,note_on,,0,0,12,,,,,,,,12,,,53,92
40224,note_on,,96,0,10,,,,,,,,10,,,82,0
40224,note_on,,96,0,11,,,,,,,,11,,,82,0
40224,note_on,,0,0,7,,,,,,,,6,,,57,92
40224,note_on,,0,0,8,,,,,,,,7,,,53,92
40224,note_on,,0,0,9,,,,,,,,8,,,41,75
40224,note_on,,96,0,9,,,,,,,,8,,,50,0
40224,note_on,,96,0,8,,,,,,,,7,,,62,0
40288,note_on,,160,0,2,,,,,,,,1,,,70,0
40288,note_on,,160,0,1,,,,,,,,0,,,65,0
40318,note_on,,94,0,3,,,,,,,,2,,,62,0
40318,note_on,,94,0,4,,,,,,,,3,,,53,0
40320,note_on,,96,0,8,,,,,,,,7,,,53,0
40320,note_on,,0,0,8,,,,,,,,7,,,55,92
40320,note_on,,0,0,10,,,,,,,,10,,,75,92
40320,note_on,,192,0,5,,,,,,,,4,,,82,0
40320,note_on,,0,0,5,,,,,,,,4,,,70,108
40320,note_on,,96,0,12,,,,,,,,12,,,53,0
40320,note_on,,96,0,9,,,,,,,,8,,,41,0
40320,note_on,,0,0,12,,,,,,,,12,,,55,92
40320,note_on,,96,0,10,,,,,,,,10,,,74,0
40320,note_on,,0,0,9,,,,,,,,8,,,43,75
40320,note_on,,2,0,3,,,,,,,,2,,,63,127
40320,note_on,,32,0,2,,,,,,,,1,,,58,127
40320,note_on,,2,0,4,,,,,,,,3,,,55,127
40320,note_on,,96,0,11,,,,,,,,11,,,74,0
40320,note_on,,96,0,7,,,,,,,,6,,,57,0
40320,note_on,,0,0,7,,,,,,,,6,,,58,92
40320,note_on,,192,0,6,,,,,,,,5,,,65,0
40320,note_on,,0,0,11,,,,,,,,11,,,75,92
40414,note_on,,94,0,4,,,,,,,,3,,,55,0
40414,note_on,,94,0,3,,,,,,,,2,,,63,0
40416,note_on,,96,0,10,,,,,,,,10,,,75,0
40416,note_on,,2,0,4,,,,,,,,3,,,57,127
40416,note_on,,96,0,9,,,,,,,,8,,,43,0
40416,note_on,,2,0,3,,,,,,,,2,,,60,127
40416,note_on,,0,0,10,,,,,,,,10,,,72,92
40416,note_on,,96,0,7,,,,,,,,6,,,58,0
40416,note_on,,0,0,12,,,,,,,,12,,,57,92
40416,note_on,,0,0,8,,,,,,,,7,,,57,92
40416,note_on,,0,0,7,,,,,,,,6,,,60,92
40416,note_on,,96,0,11,,,,,,,,11,,,75,0
40416,note_on,,0,0,11,,,,,,,,11,,,72,92
40416,note_on,,0,0,9,,,,,,,,8,,,45,75
40416,note_on,,96,0,8,,,,,,,,7,,,55,0
40416,note_on,,96,0,12,,,,,,,,12,,,55,0
40480,note_on,,160,0,2,,,,,,,,1,,,58,0
40510,note_on,,94,0,4,,,,,,,,3,,,57,0
40510,note_on,,94,0,3,,,,,,,,2,,,60,0
40512,note_on,,96,0,11,,,,,,,,11,,,72,0
40512,note_on,,0,0,11,,,,,,,,11,,,74,92
40512,note_on,,0,0,10,,,,,,,,10,,,74,92
40512,note_on,,96,0,10,,,,,,,,10,,,72,0
40512,note_on,,0,0,12,,,,,,,,12,,,58,92
40512,note_on,,96,0,12,,,,,,,,12,,,57,0
40512,note_on,,2,0,4,,,,,,,,3,,,58,127
40512,note_on,,0,0,7,,,,,,,,6,,,65,92
40512,note_on,,96,0,7,,,,,,,,6,,,60,0
40512,note_on,,192,0,5,,,,,,,,4,,,70,0
40512,note_on,,0,0,9,,,,,,,,8,,,46,75
40512,note_on,,96,0,9,,,,,,,,8,,,45,0
40512,note_on,,2,0,3,,,,,,,,2,,,62,127
40512,note_on,,0,0,8,,,,,,,,7,,,58,92
40512,note_on,,96,0,8,,,,,,,,7,,,57,0
40608,note_on,,288,0,6,,,,,,,,5,,,74,108
40608,note_on,,320,0,1,,,,,,,,0,,,74,127
40608,note_on,,96,0,5,,,,,,,,4,,,77,108
40608,note_on,,128,0,2,,,,,,,,1,,,65,127
40672,note_on,,160,0,4,,,,,,,,3,,,58,0
40672,note_on,,160,0,3,,,,,,,,2,,,62,0
40702,note_on,,94,0,2,,,,,,,,1,,,65,0
40702,note_on,,94,0,1,,,,,,,,0,,,74,0
40704,note_on,,2,0,2,,,,,,,,1,,,67,127
40704,note_on,,192,0,11,,,,,,,,11,,,74,0
40704,note_on,,96,0,6,,,,,,,,5,,,74,0
40704,note_on,,192,0,12,,,,,,,,12,,,58,0
40704,note_on,,32,0,3,,,,,,,,2,,,58,127
40704,note_on,,0,0,12,,,,,,,,12,,,46,92
40704,note_on,,0,0,9,,,,,,,,8,,,34,75
40704,note_on,,192,0,10,,,,,,,,10,,,74,0
40704,note_on,,0,0,10,,,,,,,,10,,,70,92
40704,note_on,,32,0,4,,,,,,,,3,,,46,127
40704,note_on,,0,0,8,,,,,,,,7,,,46,92
40704,note_on,,0,0,11,,,,,,,,11,,,70,92
40704,note_on,,192,0,9,,,,,,,,8,,,46,0
40704,note_on,,2,0,1,,,,,,,,0,,,75,127
40704,note_on,,192,0,8,,,,,,,,7,,,58,0
40704,note_on,,0,0,6,,,,,,,,5,,,75,108
40704,note_on,,192,0,7,,,,,,,,6,,,65,0
40704,note_on,,0,0,7,,,,,,,,6,,,58,92
40704,note_on,,96,0,5,,,,,,,,4,,,77,0
40704,note_on,,0,0,5,,,,,,,,4,,,79,108
40798,note_on,,94,0,1,,,,,,,,0,,,75,0
40798,note_on,,94,0,2,,,,,,,,1,,,67,0
40800,note_on,,96,0,5,,,,,,,,4,,,79,0
40800,note_on,,0,0,5,,,,,,,,4,,,81,108
40800,note_on,,96,0,6,,,,,,,,5,,,75,0
40800,note_on,,2,0,1,,,,,,,,0,,,72,127
40800,note_on,,0,0,6,,,,,,,,5,,,72,108
40800,note_on,,2,0,2,,,,,,,,1,,,69,127
40864,note_on,,160,0,3,,,,,,,,2,,,58,0
40864,note_on,,160,0,4,,,,,,,,3,,,46,0
40894,note_on,,94,0,2,,,,,,,,1,,,69,0
40894,note_on,,94,0,1,,,,,,,,0,,,72,0
40896,note_on,,0,0,5,,,,,,,,4,,,82,108
40896,note_on,,192,0,11,,,,,,,,11,,,70,0
40896,note_on,,192,0,9,,,,,,,,8,,,34,0
40896,note_on,,96,0,5,,,,,,,,4,,,81,0
40896,note_on,,192,0,8,,,,,,,,7,,,46,0
40896,note_on,,96,0,6,,,,,,,,5,,,72,0
40896,note_on,,192,0,10,,,,,,,,10,,,70,0
40896,note_on,,0,0,6,,,,,,,,5,,,74,108
40896,note_on,,192,0,12,,,,,,,,12,,,46,0
40896,note_on,,2,0,2,,,,,,,,1,,,70,127
40896,note_on,,192,0,7,,,,,,,,6,,,58,0
40896,note_on,,2,0,1,,,,,,,,0,,,74,127
40992,note_on,,96,0,8,,,,,,,,7,,,53,92
40992,note_on,,96,0,12,,,,,,,,12,,,53,92
40992,note_on,,96,0,9,,,,,,,,8,,,41,75
40992,note_on,,96,0,10,,,,,,,,10,,,74,92
40992,note_on,,128,0,4,,,,,,,,3,,,53,127
40992,note_on,,96,0,7,,,,,,,,6,,,57,92
40992,note_on,,128,0,3,,,,,,,,2,,,62,127
40992,note_on,,96,0,11,,,,,,,,11,,,74,92
41056,note_on,,160,0,2,,,,,,,,1,,,70,0
41056,note_on,,160,0,1,,,,,,,,0,,,74,0
41086,note_on,,94,0,4,,,,,,,,3,,,53,0
41086,note_on,,94,0,3,,,,,,,,2,,,62,0
41088,note_on,,96,0,9,,,,,,,,8,,,41,0
41088,note_on,,96,0,10,,,,,,,,10,,,74,0
41088,note_on,,0,0,6,,,,,,,,5,,,70,108
41088,note_on,,0,0,10,,,,,,,,10,,,75,92
41088,note_on,,2,0,4,,,,,,,,3,,,55,127
41088,note_on,,192,0,6,,,,,,,,5,,,74,0
41088,note_on,,0,0,11,,,,,,,,11,,,75,92
41088,note_on,,0,0,9,,,,,,,,8,,,43,75
41088,note_on,,32,0,2,,,,,,,,1,,,58,127
41088,note_on,,192,0,5,,,,,,,,4,,,82,0
41088,note_on,,96,0,11,,,,,,,,11,,,74,0
41088,note_on,,0,0,8,,,,,,,,7,,,55,92
41088,note_on,,96,0,7,,,,,,,,6,,,57,0
41088,note_on,,96,0,8,,,,,,,,7,,,53,0
41088,note_on,,0,0,12,,,,,,,,12,,,55,92
41088,note_on,,96,0,12,,,,,,,,12,,,53,0
41088,note_on,,2,0,3,,,,,,,,2,,,63,127
41088,note_on,,32,0,1,,,,,,,,0,,,70,127
41088,note_on,,0,0,7,,,,,,,,6,,,58,92
41088,note_on,,0,0,5,,,,,,,,4,,,70,108
41182,note_on,,94,0,4,,,,,,,,3,,,55,0
41182,note_on,,94,0,3,,,,,,,,2,,,63,0
41184,note_on,,96,0,11,,,,,,,,11,,,75,0
41184,note_on,,0,0,12,,,,,,,,12,,,57,92
41184,note_on,,0,0,7,,,,,,,,6,,,60,92
41184,note_on,,96,0,10,,,,,,,,10,,,75,0
41184,note_on,,96,0,12,,,,,,,,12,,,55,0
41184,note_on,,0,0,11,,,,,,,,11,,,72,92
41184,note_on,,0,0,10,,,,,,,,10,,,72,92
41184,note_on,,2,0,3,,,,,,,,2,,,60,127
41184,note_on,,0,0,9,,,,,,,,8,,,45,75
41184,note_on,,2,0,4,,,,,,,,3,,,57,127
41184,note_on,,96,0,7,,,,,,,,6,,,58,0
41184,note_on,,96,0,8,,,,,,,,7,,,55,0
41184,note_on,,0,0,8,,,,,,,,7,,,57,92
41184,note_on,,96,0,9,,,,,,,,8,,,43,0
41248,note_on,,160,0,2,,,,,,,,1,,,58,0
41248,note_on,,160,0,1,,,,,,,,0,,,70,0
41278,note_on,,94,0,3,,,,,,,,2,,,60,0
41278,note_on,,94,0,4,,,,,,,,3,,,57,0
41280,note_on,,0,0,10,,,,,,,,10,,,74,92
41280,note_on,,96,0,12,,,,,,,,12,,,57,0
41280,note_on,,0,0,12,,,,,,,,12,,,58,92
41280,note_on,,96,0,8,,,,,,,,7,,,57,0
41280,note_on,,192,0,6,,,,,,,,5,,,70,0
41280,note_on,,2,0,3,,,,,,,,2,,,62,127
41280,note_on,,0,0,8,,,,,,,,7,,,58,92
41280,note_on,,32,0,2,,,,,,,,1,,,58,127
41280,note_on,,0,0,9,,,,,,,,8,,,46,75
41280,note_on,,0,0,11,,,,,,,,11,,,74,92
41280,note_on,,96,0,11,,,,,,,,11,,,72,0
41280,note_on,,192,0,5,,,,,,,,4,,,70,0
41280,note_on,,96,0,7,,,,,,,,6,,,60,0
41280,note_on,,0,0,7,,,,,,,,6,,,65,92
41280,note_on,,96,0,10,,,,,,,,10,,,72,0
41280,note_on,,96,0,9,,,,,,,,8,,,45,0
41280,note_on,,2,0,4,,,,,,,,3,,,58,127
41374,note_on,,94,0,2,,,,,,,,1,,,58,0
41376,note_on,,96,0,6,,,,,,,,5,,,74,108
41376,note_on,,2,0,2,,,,,,,,1,,,65,127
41376,note_on,,96,0,5,,,,,,,,4,,,77,108
41376,note_on,,128,0,1,,,,,,,,0,,,74,127
41440,note_on,,160,0,3,,,,,,,,2,,,62,0
41440,note_on,,160,0,4,,,,,,,,3,,,58,0
41470,note_on,,94,0,2,,,,,,,,1,,,65,0
41470,note_on,,94,0,1,,,,,,,,0,,,74,0
41472,note_on,,96,0,6,,,,,,,,5,,,74,0
41472,note_on,,0,0,6,,,,,,,,5,,,75,108
41472,note_on,,32,0,3,,,,,,,,2,,,58,127
41472,note_on,,192,0,11,,,,,,,,11,,,74,0
41472,note_on,,0,0,7,,,,,,,,6,,,58,92
41472,note_on,,192,0,7,,,,,,,,6,,,65,0
41472,note_on,,0,0,8,,,,,,,,7,,,46,92
41472,note_on,,192,0,8,,,,,,,,7,,,58,0
41472,note_on,,0,0,11,,,,,,,,11,,,70,92
41472,note_on,,0,0,5,,,,,,,,4,,,79,108
41472,note_on,,0,0,10,,,,,,,,10,,,70,92
41472,note_on,,192,0,9,,,,,,,,8,,,46,0
41472,note_on,,0,0,9,,,,,,,,8,,,34,75
41472,note_on,,192,0,12,,,,,,,,12,,,58,0
41472,note_on,,32,0,4,,,,,,,,3,,,46,127
41472,note_on,,96,0,5,,,,,,,,4,,,77,0
41472,note_on,,192,0,10,,,,,,,,10,,,74,0
41472,note_on,,2,0,1,,,,,,,,0,,,75,127
41472,note_on,,0,0,12,,,,,,,,12,,,46,92
41472,note_on,,2,0,2,,,,,,,,1,,,67,127
41566,note_on,,94,0,2,,,,,,,,1,,,67,0
41566,note_on,,94,0,1,,,,,,,,0,,,75,0
41568,note_on,,2,0,1,,,,,,,,0,,,72,127
41568,note_on,,2,0,2,,,,,,,,1,,,69,127
41568,note_on,,0,0,5,,,,,,,,4,,,81,108
41568,note_on,,96,0,5,,,,,,,,4,,,79,0
41568,note_on,,0,0,6,,,,,,,,5,,,72,108
41568,note_on,,96,0,6,,,,,,,,5,,,75,0
41632,note_on,,160,0,3,,,,,,,,2,,,58,0
41632,note_on,,160,0,4,,,,,,,,3,,,46,0
41662,note_on,,94,0,1,,,,,,,,0,,,72,0
41662,note_on,,94,0,2,,,,,,,,1,,,69,0
41664,note_on,,2,0,2,,,,,,,,1,,,70,127
41664,note_on,,192,0,11,,,,,,,,11,,,70,0
41664,note_on,,2,0,1,,,,,,,,0,,,74,127
41664,note_on,,192,0,9,,,,,,,,8,,,34,0
41664,note_on,,192,0,10,,,,,,,,10,,,70,0
41664,note_on,,192,0,8,,,,,,,,7,,,46,0
41664,note_on,,192,0,12,,,,,,,,12,,,46,0
41664,note_on,,96,0,6,,,,,,,,5,,,72,0
41664,note_on,,192,0,7,,,,,,,,6,,,58,0
41664,note_on,,0,0,5,,,,,,,,4,,,82,108
41664,note_on,,96,0,5,,,,,,,,4,,,81,0
41664,note_on,,0,0,6,,,,,,,,5,,,74,108
41760,note_on,,96,0,11,,,,,,,,11,,,74,92
41760,note_on,,96,0,12,,,,,,,,12,,,53,92
41760,note_on,,128,0,3,,,,,,,,2,,,62,127
41760,note_on,,128,0,4,,,,,,,,3,,,53,127
41760,note_on,,96,0,10,,,,,,,,10,,,74,92
41760,note_on,,96,0,9,,,,,,,,8,,,41,75
41760,note_on,,96,0,8,,,,,,,,7,,,53,92
41760,note_on,,96,0,7,,,,,,,,6,,,57,92
41824,note_on,,160,0,1,,,,,,,,0,,,74,0
41824,note_on,,160,0,2,,,,,,,,1,,,70,0
41854,note_on,,94,0,3,,,,,,,,2,,,62,0
41854,note_on,,94,0,4,,,,,,,,3,,,53,0
41856,note_on,,96,0,10,,,,,,,,10,,,74,0
41856,note_on,,0,0,10,,,,,,,,10,,,75,92
41856,note_on,,96,0,8,,,,,,,,7,,,53,0
41856,note_on,,0,0,8,,,,,,,,7,,,55,92
41856,note_on,,96,0,7,,,,,,,,6,,,57,0
41856,note_on,,0,0,6,,,,,,,,5,,,70,108
41856,note_on,,0,0,9,,,,,,,,8,,,43,75
41856,note_on,,96,0,9,,,,,,,,8,,,41,0
41856,note_on,,2,0,3,,,,,,,,2,,,63,127
41856,note_on,,192,0,5,,,,,,,,4,,,82,0
41856,note_on,,32,0,1,,,,,,,,0,,,70,127
41856,note_on,,192,0,6,,,,,,,,5,,,74,0
41856,note_on,,0,0,5,,,,,,,,4,,,70,108
41856,note_on,,0,0,11,,,,,,,,11,,,75,92
41856,note_on,,96,0,11,,,,,,,,11,,,74,0
41856,note_on,,0,0,7,,,,,,,,6,,,58,92
41856,note_on,,0,0,12,,,,,,,,12,,,55,92
41856,note_on,,96,0,12,,,,,,,,12,,,53,0
41856,note_on,,2,0,4,,,,,,,,3,,,55,127
41856,note_on,,32,0,2,,,,,,,,1,,,58,127
41950,note_on,,94,0,3,,,,,,,,2,,,63,0
41950,note_on,,94,0,4,,,,,,,,3,,,55,0
41952,note_on,,0,0,9,,,,,,,,8,,,45,75
41952,note_on,,0,0,8,,,,,,,,7,,,57,92
41952,note_on,,96,0,8,,,,,,,,7,,,55,0
41952,note_on,,2,0,3,,,,,,,,2,,,60,127
41952,note_on,,0,0,12,,,,,,,,12,,,57,92
41952,note_on,,96,0,12,,,,,,,,12,,,55,0
41952,note_on,,96,0,9,,,,,,,,8,,,43,0
41952,note_on,,0,0,7,,,,,,,,6,,,60,92
41952,note_on,,96,0,10,,,,,,,,10,,,75,0
41952,note_on,,0,0,11,,,,,,,,11,,,72,92
41952,note_on,,2,0,4,,,,,,,,3,,,57,127
41952,note_on,,96,0,11,,,,,,,,11,,,75,0
41952,note_on,,0,0,10,,,,,,,,10,,,72,92
41952,note_on,,96,0,7,,,,,,,,6,,,58,0
42016,note_on,,160,0,2,,,,,,,,1,,,58,0
42016,note_on,,160,0,1,,,,,,,,0,,,70,0
42046,note_on,,94,0,4,,,,,,,,3,,,57,0
42046,note_on,,94,0,3,,,,,,,,2,,,60,0
42048,note_on,,0,0,8,,,,,,,,7,,,58,92
42048,note_on,,96,0,8,,,,,,,,7,,,57,0
42048,note_on,,192,0,5,,,,,,,,4,,,70,0
42048,note_on,,96,0,7,,,,,,,,6,,,60,0
42048,note_on,,0,0,7,,,,,,,,6,,,65,92
42048,note_on,,0,0,12,,,,,,,,12,,,58,92
42048,note_on,,192,0,6,,,,,,,,5,,,70,0
42048,note_on,,96,0,12,,,,,,,,12,,,57,0
42048,note_on,,96,0,10,,,,,,,,10,,,72,0
42048,note_on,,0,0,10,,,,,,,,10,,,74,92
42048,note_on,,2,0,4,,,,,,,,3,,,58,127
42048,note_on,,0,0,11,,,,,,,,11,,,74,92
42048,note_on,,96,0,9,,,,,,,,8,,,45,0
42048,note_on,,0,0,9,,,,,,,,8,,,46,75
42048,note_on,,2,0,3,,,,,,,,2,,,62,127
42048,note_on,,96,0,11,,,,,,,,11,,,72,0
42208,note_on,,160,0,3,,,,,,,,2,,,62,0
42208,note_on,,160,0,4,,,,,,,,3,,,58,0
42240,note_on,,192,0,10,,,,,,,,10,,,74,0
42240,note_on,,192,0,9,,,,,,,,8,,,46,0
42240,note_on,,0,0,12,,,,,,,,12,,,46,92
42240,note_on,,0,0,9,,,,,,,,8,,,34,75
42240,note_on,,32,0,3,,,,,,,,2,,,58,127
42240,note_on,,192,0,12,,,,,,,,12,,,58,0
42240,note_on,,0,0,10,,,,,,,,10,,,70,92
42240,note_on,,192,0,8,,,,,,,,7,,,58,0
42240,note_on,,0,0,11,,,,,,,,11,,,70,92
42240,note_on,,0,0,8,,,,,,,,7,,,46,92
42240,note_on,,32,0,4,,,,,,,,3,,,46,127
42240,note_on,,192,0,7,,,,,,,,6,,,65,0
42240,note_on,,0,0,7,,,,,,,,6,,,58,92
42240,note_on,,192,0,11,,,,,,,,11,,,74,0
42336,note_on,,288,0,6,,,,,,,,5,,,74,108
42336,note_on,,0,0,11,,,,,,,,11,,,77,92
42336,note_on,,320,0,1,,,,,,,,0,,,77,127
42336,note_on,,0,0,10,,,,,,,,10,,,77,92
42336,note_on,,96,0,10,,,,,,,,10,,,70,0
42336,note_on,,320,0,2,,,,,,,,1,,,65,127
42336,note_on,,288,0,5,,,,,,,,4,,,77,108
42336,note_on,,96,0,11,,,,,,,,11,,,70,0
42400,note_on,,160,0,4,,,,,,,,3,,,46,0
42400,note_on,,160,0,3,,,,,,,,2,,,58,0
42430,note_on,,94,0,1,,,,,,,,0,,,77,0
42430,note_on,,94,0,2,,,,,,,,1,,,65,0
42432,note_on,,0,0,10,,,,,,,,10,,,74,92
42432,note_on,,2,0,1,,,,,,,,0,,,74,127
42432,note_on,,96,0,5,,,,,,,,4,,,77,0
42432,note_on,,0,0,5,,,,,,,,4,,,74,108
42432,note_on,,192,0,12,,,,,,,,12,,,46,0
42432,note_on,,96,0,10,,,,,,,,10,,,77,0
42432,note_on,,0,0,11,,,,,,,,11,,,74,92
42432,note_on,,96,0,11,,,,,,,,11,,,77,0
42432,note_on,,192,0,8,,,,,,,,7,,,46,0
42432,note_on,,192,0,9,,,,,,,,8,,,34,0
42432,note_on,,192,0,7,,,,,,,,6,,,58,0
42432,note_on,,2,0,2,,,,,,,,1,,,65,127
42432,note_on,,96,0,6,,,,,,,,5,,,74,0
42432,note_on,,0,0,6,,,,,,,,5,,,65,108
42526,note_on,,94,0,2,,,,,,,,1,,,65,0
42526,note_on,,94,0,1,,,,,,,,0,,,74,0
42528,note_on,,2,0,2,,,,,,,,1,,,63,127
42528,note_on,,96,0,5,,,,,,,,4,,,74,0
42528,note_on,,96,0,10,,,,,,,,10,,,74,0
42528,note_on,,96,0,6,,,,,,,,5,,,65,0
42528,note_on,,2,0,1,,,,,,,,0,,,72,127
42528,note_on,,96,0,11,,,,,,,,11,,,74,0
42528,note_on,,0,0,11,,,,,,,,11,,,72,92
42528,note_on,,0,0,10,,,,,,,,10,,,72,92
42528,note_on,,0,0,6,,,,,,,,5,,,63,108
42528,note_on,,0,0,5,,,,,,,,4,,,72,108
42622,note_on,,94,0,1,,,,,,,,0,,,72,0
42622,note_on,,94,0,2,,,,,,,,1,,,63,0
42624,note_on,,0,0,6,,,,,,,,5,,,65,108
42624,note_on,,0,0,11,,,,,,,,11,,,74,92
42624,note_on,,96,0,11,,,,,,,,11,,,72,0
42624,note_on,,96,0,10,,,,,,,,10,,,72,0
42624,note_on,,0,0,10,,,,,,,,10,,,74,92
42624,note_on,,2,0,1,,,,,,,,0,,,74,127
42624,note_on,,2,0,2,,,,,,,,1,,,65,127
42624,note_on,,96,0,6,,,,,,,,5,,,63,0
42624,note_on,,0,0,5,,,,,,,,4,,,74,108
42624,note_on,,96,0,5,,,,,,,,4,,,72,0
42718,note_on,,94,0,1,,,,,,,,0,,,74,0
42718,note_on,,94,0,2,,,,,,,,1,,,65,0
42720,note_on,,320,0,4,,,,,,,,3,,,58,127
42720,note_on,,288,0,9,,,,,,,,8,,,46,75
42720,note_on,,288,0,12,,,,,,,,12,,,58,92
42720,note_on,,2,0,2,,,,,,,,1,,,62,127
42720,note_on,,2,0,1,,,,,,,,0,,,70,127
42720,note_on,,96,0,11,,,,,,,,11,,,74,0
42720,note_on,,0,0,10,,,,,,,,10,,,70,92
42720,note_on,,0,0,11,,,,,,,,11,,,70,92
42720,note_on,,96,0,6,,,,,,,,5,,,65,0
42720,note_on,,0,0,6,,,,,,,,5,,,62,108
42720,note_on,,96,0,5,,,,,,,,4,,,74,0
42720,note_on,,0,0,5,,,,,,,,4,,,70,108
42720,note_on,,288,0,7,,,,,,,,6,,,65,92
42720,note_on,,288,0,8,,,,,,,,7,,,58,92
42720,note_on,,320,0,3,,,,,,,,2,,,58,127
42720,note_on,,96,0,10,,,,,,,,10,,,74,0
42814,note_on,,94,0,3,,,,,,,,2,,,58,0
42814,note_on,,94,0,1,,,,,,,,0,,,70,0
42814,note_on,,94,0,4,,,,,,,,3,,,58,0
42814,note_on,,94,0,2,,,,,,,,1,,,62,0
42816,note_on,,0,0,11,,,,,,,,11,,,77,92
42816,note_on,,2,0,3,,,,,,,,2,,,60,127
42816,note_on,,96,0,10,,,,,,,,10,,,70,0
42816,note_on,,96,0,9,,,,,,,,8,,,46,0
42816,note_on,,0,0,9,,,,,,,,8,,,45,75
42816,note_on,,2,0,1,,,,,,,,0,,,77,127
42816,note_on,,0,0,10,,,,,,,,10,,,77,92
42816,note_on,,0,0,7,,,,,,,,6,,,65,92
42816,note_on,,96,0,7,,,,,,,,6,,,65,0
42816,note_on,,96,0,11,,,,,,,,11,,,70,0
42816,note_on,,96,0,5,,,,,,,,4,,,70,0
42816,note_on,,0,0,5,,,,,,,,4,,,77,108
42816,note_on,,0,0,12,,,,,,,,12,,,57,92
42816,note_on,,96,0,6,,,,,,,,5,,,62,0
42816,note_on,,96,0,12,,,,,,,,12,,,58,0
42816,note_on,,2,0,2,,,,,,,,1,,,60,127
42816,note_on,,2,0,4,,,,,,,,3,,,57,127
42816,note_on,,0,0,6,,,,,,,,5,,,72,108
42816,note_on,,0,0,8,,,,,,,,7,,,57,92
42816,note_on,,96,0,8,,,,,,,,7,,,58,0
42910,note_on,,94,0,3,,,,,,,,2,,,60,0
42910,note_on,,94,0,4,,,,,,,,3,,,57,0
42912,note_on,,96,0,6,,,,,,,,5,,,72,0
42912,note_on,,0,0,8,,,,,,,,7,,,55,92
42912,note_on,,96,0,8,,,,,,,,7,,,57,0
42912,note_on,,96,0,9,,,,,,,,8,,,45,0
42912,note_on,,2,0,4,,,,,,,,3,,,55,127
42912,note_on,,0,0,6,,,,,,,,5,,,70,108
42912,note_on,,0,0,12,,,,,,,,12,,,55,92
42912,note_on,,96,0,12,,,,,,,,12,,,57,0
42912,note_on,,0,0,9,,,,,,,,8,,,43,75
42912,note_on,,2,0,3,,,,,,,,2,,,58,127
42976,note_on,,160,0,2,,,,,,,,1,,,60,0
42976,note_on,,160,0,1,,,,,,,,0,,,77,0
43006,note_on,,94,0,3,,,,,,,,2,,,58,0
43006,note_on,,94,0,4,,,,,,,,3,,,55,0
43008,note_on,,96,0,8,,,,,,,,7,,,55,0
43008,note_on,,32,0,2,,,,,,,,1,,,65,127
43008,note_on,,0,0,5,,,,,,,,4,,,75,108
43008,note_on,,192,0,5,,,,,,,,4,,,77,0
43008,note_on,,96,0,12,,,,,,,,12,,,55,0
43008,note_on,,0,0,12,,,,,,,,12,,,57,92
43008,note_on,,2,0,3,,,,,,,,2,,,60,127
43008,note_on,,192,0,11,,,,,,,,11,,,77,0
43008,note_on,,0,0,11,,,,,,,,11,,,75,92
43008,note_on,,192,0,7,,,,,,,,6,,,65,0
43008,note_on,,0,0,8,,,,,,,,7,,,57,92
43008,note_on,,2,0,4,,,,,,,,3,,,57,127
43008,note_on,,0,0,10,,,,,,,,10,,,75,92
43008,note_on,,192,0,10,,,,,,,,10,,,77,0
43008,note_on,,0,0,7,,,,,,,,6,,,65,92
43008,note_on,,0,0,9,,,,,,,,8,,,45,75
43008,note_on,,96,0,6,,,,,,,,5,,,70,0
43008,note_on,,96,0,9,,,,,,,,8,,,43,0
43008,note_on,,32,0,1,,,,,,,,0,,,75,127
43008,note_on,,0,0,6,,,,,,,,5,,,72,108
43102,note_on,,94,0,3,,,,,,,,2,,,60,0
43102,note_on,,94,0,4,,,,,,,,3,,,57,0
43104,note_on,,0,0,8,,,,,,,,7,,,53,92
43104,note_on,,2,0,3,,,,,,,,2,,,57,127
43104,note_on,,0,0,9,,,,,,,,8,,,41,75
43104,note_on,,96,0,6,,,,,,,,5,,,72,0
43104,note_on,,96,0,9,,,,,,,,8,,,45,0
43104,note_on,,0,0,6,,,,,,,,5,,,69,108
43104,note_on,,96,0,12,,,,,,,,12,,,57,0
43104,note_on,,0,0,12,,,,,,,,12,,,53,92
43104,note_on,,2,0,4,,,,,,,,3,,,53,127
43104,note_on,,96,0,8,,,,,,,,7,,,57,0
43168,note_on,,160,0,1,,,,,,,,0,,,75,0
43168,note_on,,160,0,2,,,,,,,,1,,,65,0
43198,note_on,,94,0,4,,,,,,,,3,,,53,0
43198,note_on,,94,0,3,,,,,,,,2,,,57,0
43200,note_on,,96,0,8,,,,,,,,7,,,53,0
43200,note_on,,0,0,8,,,,,,,,7,,,58,92
43200,note_on,,96,0,9,,,,,,,,8,,,41,0
43200,note_on,,0,0,10,,,,,,,,10,,,74,92
43200,note_on,,192,0,10,,,,,,,,10,,,75,0
43200,note_on,,0,0,12,,,,,,,,12,,,58,92
43200,note_on,,32,0,2,,,,,,,,1,,,65,127
43200,note_on,,0,0,5,,,,,,,,4,,,74,108
43200,note_on,,192,0,5,,,,,,,,4,,,75,0
43200,note_on,,192,0,11,,,,,,,,11,,,75,0
43200,note_on,,0,0,11,,,,,,,,11,,,74,92
43200,note_on,,192,0,7,,,,,,,,6,,,65,0
43200,note_on,,0,0,7,,,,,,,,6,,,65,92
43200,note_on,,32,0,1,,,,,,,,0,,,74,127
43200,note_on,,0,0,6,,,,,,,,5,,,65,108
43200,note_on,,96,0,12,,,,,,,,12,,,53,0
43200,note_on,,2,0,3,,,,,,,,2,,,62,127
43200,note_on,,0,0,9,,,,,,,,8,,,46,75
43200,note_on,,96,0,6,,,,,,,,5,,,69,0
43200,note_on,,2,0,4,,,,,,,,3,,,58,127
43294,note_on,,94,0,2,,,,,,,,1,,,65,0
43294,note_on,,94,0,1,,,,,,,,0,,,74,0
43296,note_on,,96,0,5,,,,,,,,4,,,74,0
43296,note_on,,96,0,10,,,,,,,,10,,,74,0
43296,note_on,,0,0,10,,,,,,,,10,,,77,92
43296,note_on,,2,0,2,,,,,,,,1,,,65,127
43296,note_on,,96,0,6,,,,,,,,5,,,65,0
43296,note_on,,0,0,6,,,,,,,,5,,,74,108
43296,note_on,,0,0,5,,,,,,,,4,,,77,108
43296,note_on,,0,0,11,,,,,,,,11,,,77,92
43296,note_on,,96,0,11,,,,,,,,11,,,74,0
43296,note_on,,2,0,1,,,,,,,,0,,,65,127
43360,note_on,,160,0,3,,,,,,,,2,,,62,0
43360,note_on,,160,0,4,,,,,,,,3,,,58,0
43390,note_on,,94,0,2,,,,,,,,1,,,65,0
43390,note_on,,94,0,1,,,,,,,,0,,,65,0
43392,note_on,,192,0,9,,,,,,,,8,,,46,0
43392,note_on,,96,0,5,,,,,,,,4,,,77,0
43392,note_on,,0,0,5,,,,,,,,4,,,79,108
43392,note_on,,0,0,10,,,,,,,,10,,,79,92
43392,note_on,,96,0,10,,,,,,,,10,,,77,0
43392,note_on,,0,0,8,,,,,,,,7,,,63,92
43392,note_on,,2,0,2,,,,,,,,1,,,67,127
43392,note_on,,96,0,6,,,,,,,,5,,,74,0
43392,note_on,,0,0,9,,,,,,,,8,,,51,75
43392,note_on,,32,0,3,,,,,,,,2,,,67,127
43392,note_on,,2,0,1,,,,,,,,0,,,67,127
43392,note_on,,192,0,8,,,,,,,,7,,,58,0
43392,note_on,,192,0,12,,,,,,,,12,,,58,0
43392,note_on,,96,0,11,,,,,,,,11,,,77,0
43392,note_on,,0,0,11,,,,,,,,11,,,79,92
43392,note_on,,32,0,4,,,,,,,,3,,,63,127
43392,note_on,,192,0,7,,,,,,,,6,,,65,0
43392,note_on,,0,0,7,,,,,,,,6,,,63,92
43392,note_on,,0,0,6,,,,,,,,5,,,70,108
43392,note_on,,0,0,12,,,,,,,,12,,,63,92
43486,note_on,,94,0,2,,,,,,,,1,,,67,0
43486,note_on,,94,0,1,,,,,,,,0,,,67,0
43488,note_on,,0,0,6,,,,,,,,5,,,72,108
43488,note_on,,96,0,11,,,,,,,,11,,,79,0
43488,note_on,,0,0,11,,,,,,,,11,,,81,92
43488,note_on,,96,0,6,,,,,,,,5,,,70,0
43488,note_on,,0,0,10,,,,,,,,10,,,81,92
43488,note_on,,96,0,10,,,,,,,,10,,,79,0
43488,note_on,,2,0,1,,,,,,,,0,,,69,127
43488,note_on,,96,0,5,,,,,,,,4,,,79,0
43488,note_on,,0,0,5,,,,,,,,4,,,81,108
43488,note_on,,2,0,2,,,,,,,,1,,,69,127
43552,note_on,,160,0,3,,,,,,,,2,,,67,0
43552,note_on,,160,0,4,,,,,,,,3,,,63,0
43582,note_on,,94,0,1,,,,,,,,0,,,69,0
43582,note_on,,94,0,2,,,,,,,,1,,,69,0
43584,note_on,,2,0,2,,,,,,,,1,,,70,127
43584,note_on,,192,0,8,,,,,,,,7,,,63,0
43584,note_on,,0,0,5,,,,,,,,4,,,82,108
43584,note_on,,0,0,6,,,,,,,,5,,,65,108
43584,note_on,,32,0,4,,,,,,,,3,,,62,127
43584,note_on,,0,0,8,,,,,,,,7,,,62,92
43584,note_on,,96,0,5,,,,,,,,4,,,81,0
43584,note_on,,0,0,9,,,,,,,,8,,,50,75
43584,note_on,,96,0,6,,,,,,,,5,,,72,0
43584,note_on,,32,0,3,,,,,,,,2,,,65,127
43584,note_on,,96,0,10,,,,,,,,10,,,81,0
43584,note_on,,0,0,10,,,,,,,,10,,,82,92
43584,note_on,,96,0,11,,,,,,,,11,,,81,0
43584,note_on,,192,0,9,,,,,,,,8,,,51,0
43584,note_on,,2,0,1,,,,,,,,0,,,70,127
43584,note_on,,0,0,11,,,,,,,,11,,,82,92
43584,note_on,,192,0,7,,,,,,,,6,,,63,0
43584,note_on,,192,0,12,,,,,,,,12,,,63,0
43584,note_on,,0,0,12,,,,,,,,12,,,62,92
43584,note_on,,0,0,7,,,,,,,,6,,,65,92
43678,note_on,,94,0,4,,,,,,,,3,,,62,0
43678,note_on,,94,0,3,,,,,,,,2,,,65,0
43680,note_on,,96,0,8,,,,,,,,7,,,62,0
43680,note_on,,2,0,4,,,,,,,,3,,,53,127
43680,note_on,,96,0,6,,,,,,,,5,,,65,0
43680,note_on,,0,0,6,,,,,,,,5,,,69,108
43680,note_on,,0,0,8,,,,,,,,7,,,53,92
43680,note_on,,0,0,12,,,,,,,,12,,,53,92
43680,note_on,,96,0,12,,,,,,,,12,,,62,0
43680,note_on,,2,0,3,,,,,,,,2,,,57,127
43680,note_on,,96,0,9,,,,,,,,8,,,50,0
43680,note_on,,0,0,9,,,,,,,,8,,,41,75
43744,note_on,,160,0,1,,,,,,,,0,,,70,0
43774,note_on,,94,0,3,,,,,,,,2,,,57,0
43774,note_on,,94,0,4,,,,,,,,3,,,53,0
43776,note_on,,32,0,1,,,,,,,,0,,,75,127
43776,note_on,,192,0,10,,,,,,,,10,,,82,0
43776,note_on,,0,0,10,,,,,,,,10,,,75,92
43776,note_on,,96,0,9,,,,,,,,8,,,41,0
43776,note_on,,0,0,9,,,,,,,,8,,,43,75
43776,set_tempo,666666,22656,1,0,,,,,,,,,,,,
43776,note_on,,0,0,5,,,,,,,,4,,,75,108
43776,note_on,,192,0,5,,,,,,,,4,,,82,0
43776,note_on,,0,0,8,,,,,,,,7,,,55,92
43776,note_on,,0,0,11,,,,,,,,11,,,75,92
43776,note_on,,96,0,6,,,,,,,,5,,,69,0
43776,note_on,,0,0,6,,,,,,,,5,,,70,108
43776,note_on,,0,0,7,,,,,,,,6,,,63,92
43776,note_on,,192,0,7,,,,,,,,6,,,65,0
43776,note_on,,192,0,11,,,,,,,,11,,,82,0
43776,note_on,,0,0,12,,,,,,,,12,,,55,92
43776,note_on,,96,0,12,,,,,,,,12,,,53,0
43776,note_on,,96,0,8,,,,,,,,7,,,53,0
43776,note_on,,2,0,4,,,,,,,,3,,,55,127
43776,note_on,,2,0,3,,,,,,,,2,,,58,127
43840,note_on,,256,0,2,,,,,,,,1,,,70,0
43870,note_on,,94,0,4,,,,,,,,3,,,55,0
43870,note_on,,94,0,3,,,,,,,,2,,,58,0
43872,note_on,,2,0,3,,,,,,,,2,,,60,127
43872,note_on,,96,0,6,,,,,,,,5,,,70,0
43872,note_on,,32,0,2,,,,,,,,1,,,69,127
43872,note_on,,0,0,9,,,,,,,,8,,,45,75
43872,note_on,,0,0,8,,,,,,,,7,,,57,92
43872,note_on,,96,0,9,,,,,,,,8,,,43,0
43872,note_on,,0,0,6,,,,,,,,5,,,72,108
43872,note_on,,0,0,12,,,,,,,,12,,,57,92
43872,note_on,,96,0,12,,,,,,,,12,,,55,0
43872,note_on,,2,0,4,,,,,,,,3,,,57,127
43872,note_on,,96,0,8,,,,,,,,7,,,55,0
43918,note_on,,46,0,2,,,,,,,,1,,,69,0
43920,note_on,,2,0,2,,,,,,,,1,,,67,127
43936,note_on,,160,0,1,,,,,,,,0,,,75,0
43966,note_on,,46,0,2,,,,,,,,1,,,67,0
43966,note_on,,94,0,4,,,,,,,,3,,,57,0
43966,note_on,,94,0,3,,,,,,,,2,,,60,0
43968,note_on,,0,0,8,,,,,,,,7,,,58,92
43968,note_on,,192,0,7,,,,,,,,6,,,63,0
43968,note_on,,192,0,11,,,,,,,,11,,,75,0
43968,note_on,,0,0,11,,,,,,,,11,,,74,92
43968,note_on,,0,0,7,,,,,,,,6,,,70,92
43968,note_on,,2,0,4,,,,,,,,3,,,58,127
43968,note_on,,32,0,1,,,,,,,,0,,,74,127
43968,note_on,,192,0,5,,,,,,,,4,,,75,0
43968,note_on,,0,0,5,,,,,,,,4,,,74,108
43968,note_on,,96,0,9,,,,,,,,8,,,45,0
43968,note_on,,96,0,6,,,,,,,,5,,,72,0
43968,note_on,,0,0,9,,,,,,,,8,,,46,75
43968,note_on,,2,0,3,,,,,,,,2,,,62,127
43968,note_on,,0,0,6,,,,,,,,5,,,65,108
43968,note_on,,96,0,12,,,,,,,,12,,,57,0
43968,note_on,,2,0,2,,,,,,,,1,,,65,127
43968,note_on,,0,0,12,,,,,,,,12,,,58,92
43968,note_on,,96,0,8,,,,,,,,7,,,57,0
43968,note_on,,0,0,10,,,,,,,,10,,,74,92
43968,note_on,,192,0,10,,,,,,,,10,,,75,0
43968,set_tempo,750000,192,1,0,,,,,,,,,,,,
44062,note_on,,94,0,3,,,,,,,,2,,,62,0
44062,note_on,,94,0,4,,,,,,,,3,,,58,0
44064,note_on,,0,0,12,,,,,,,,12,,,50,92
44064,note_on,,0,0,7,,,,,,,,6,,,65,92
44064,note_on,,96,0,7,,,,,,,,6,,,70,0
44064,note_on,,2,0,4,,,,,,,,3,,,50,127
44064,note_on,,96,0,12,,,,,,,,12,,,58,0
44064,note_on,,96,0,9,,,,,,,,8,,,46,0
44064,note_on,,0,0,9,,,,,,,,8,,,38,75
44064,note_on,,2,0,3,,,,,,,,2,,,53,127
44064,note_on,,96,0,8,,,,,,,,7,,,58,0
44064,note_on,,0,0,8,,,,,,,,7,,,50,92
44112,note_on,,144,0,5,,,,,,,,4,,,74,0
44112,note_on,,144,0,10,,,,,,,,10,,,74,0
44112,note_on,,0,0,11,,,,,,,,11,,,75,92
44112,note_on,,0,0,5,,,,,,,,4,,,75,108
44112,note_on,,0,0,10,,,,,,,,10,,,75,92
44112,note_on,,144,0,11,,,,,,,,11,,,74,0
44128,note_on,,160,0,1,,,,,,,,0,,,74,0
44128,note_on,,160,0,2,,,,,,,,1,,,65,0
44158,note_on,,94,0,3,,,,,,,,2,,,53,0
44158,note_on,,94,0,4,,,,,,,,3,,,50,0
44160,note_on,,2,0,3,,,,,,,,2,,,55,127
44160,note_on,,0,0,6,,,,,,,,5,,,63,108
44160,note_on,,96,0,7,,,,,,,,6,,,65,0
44160,note_on,,48,0,11,,,,,,,,11,,,75,0
44160,note_on,,32,0,1,,,,,,,,0,,,72,127
44160,note_on,,0,0,10,,,,,,,,10,,,72,92
44160,note_on,,0,0,11,,,,,,,,11,,,72,92
44160,note_on,,0,0,7,,,,,,,,6,,,67,92
44160,note_on,,192,0,6,,,,,,,,5,,,65,0
44160,note_on,,48,0,10,,,,,,,,10,,,75,0
44160,note_on,,0,0,8,,,,,,,,7,,,51,92
44160,note_on,,96,0,9,,,,,,,,8,,,38,0
44160,note_on,,2,0,4,,,,,,,,3,,,51,127
44160,note_on,,0,0,9,,,,,,,,8,,,39,75
44160,note_on,,96,0,12,,,,,,,,12,,,50,0
44160,note_on,,0,0,12,,,,,,,,12,,,51,92
44160,note_on,,32,0,2,,,,,,,,1,,,63,127
44160,set_tempo,857142,192,1,0,,,,,,,,,,,,
44160,note_on,,48,0,5,,,,,,,,4,,,75,0
44160,note_on,,0,0,5,,,,,,,,4,,,72,108
44160,note_on,,96,0,8,,,,,,,,7,,,50,0
44254,note_on,,94,0,4,,,,,,,,3,,,51,0
44254,note_on,,94,0,3,,,,,,,,2,,,55,0
44256,note_on,,0,0,12,,,,,,,,12,,,53,92
44256,note_on,,96,0,12,,,,,,,,12,,,51,0
44256,note_on,,2,0,3,,,,,,,,2,,,57,127
44256,note_on,,0,0,9,,,,,,,,8,,,41,75
44256,note_on,,96,0,9,,,,,,,,8,,,39,0
44256,note_on,,96,0,7,,,,,,,,6,,,67,0
44256,note_on,,2,0,4,,,,,,,,3,,,53,127
44256,note_on,,0,0,7,,,,,,,,6,,,69,92
44256,note_on,,0,0,8,,,,,,,,7,,,53,92
44256,note_on,,96,0,8,,,,,,,,7,,,51,0
44302,note_on,,142,0,1,,,,,,,,0,,,72,0
44304,note_on,,0,0,5,,,,,,,,4,,,70,108
44304,note_on,,144,0,11,,,,,,,,11,,,72,0
44304,note_on,,0,0,11,,,,,,,,11,,,70,92
44304,note_on,,0,0,10,,,,,,,,10,,,70,92
44304,note_on,,144,0,10,,,,,,,,10,,,72,0
44304,note_on,,2,0,1,,,,,,,,0,,,70,127
44304,note_on,,144,0,5,,,,,,,,4,,,72,0
44320,note_on,,160,0,2,,,,,,,,1,,,63,0
44350,note_on,,94,0,3,,,,,,,,2,,,57,0
44350,note_on,,94,0,4,,,,,,,,3,,,53,0
44350,note_on,,46,0,1,,,,,,,,0,,,70,0
44352,note_on,,2,0,3,,,,,,,,2,,,58,127
44352,note_on,,0,0,7,,,,,,,,6,,,70,92
44352,note_on,,96,0,7,,,,,,,,6,,,69,0
44352,note_on,,96,0,8,,,,,,,,7,,,53,0
44352,note_on,,0,0,12,,,,,,,,12,,,55,92
44352,note_on,,96,0,12,,,,,,,,12,,,53,0
44352,note_on,,0,0,8,,,,,,,,7,,,55,92
44352,note_on,,2,0,4,,,,,,,,3,,,55,127
44352,set_tempo,1200000,192,1,0,,,,,,,,,,,,
44352,note_on,,0,0,11,,,,,,,,11,,,70,92
44352,note_on,,0,0,6,,,,,,,,5,,,62,108
44352,note_on,,0,0,9,,,,,,,,8,,,43,75
44352,note_on,,96,0,9,,,,,,,,8,,,41,0
44352,note_on,,0,0,10,,,,,,,,10,,,70,92
44352,note_on,,2,0,1,,,,,,,,0,,,70,127
44352,note_on,,48,0,10,,,,,,,,10,,,70,0
44352,note_on,,48,0,5,,,,,,,,4,,,70,0
44352,note_on,,0,0,5,,,,,,,,4,,,70,108
44352,note_on,,48,0,11,,,,,,,,11,,,70,0
44352,note_on,,32,0,2,,,,,,,,1,,,62,127
44352,note_on,,192,0,6,,,,,,,,5,,,63,0
44512,note_on,,160,0,4,,,,,,,,3,,,55,0
44512,note_on,,160,0,2,,,,,,,,1,,,62,0
44512,note_on,,160,0,3,,,,,,,,2,,,58,0
44512,note_on,,160,0,1,,,,,,,,0,,,70,0
44544,note_on,,192,0,7,,,,,,,,6,,,70,0
44544,note_on,,192,0,8,,,,,,,,7,,,55,0
44544,note_on,,192,0,10,,,,,,,,10,,,70,0
44544,note_on,,192,0,12,,,,,,,,12,,,55,0
44544,note_on,,192,0,9,,,,,,,,8,,,43,0
44544,note_on,,192,0,6,,,,,,,,5,,,62,0
44544,note_on,,192,0,11,,,,,,,,11,,,70,0
44544,note_on,,192,0,5,,,,,,,,4,,,70,0
44736,set_tempo,1000000,384,1,0,,,,,,,,,,,,
44736,end_of_track,,0,1,0,,,,,,,,,,,,
44832,note_on,,288,0,6,,,,,,,,5,,,74,108
44832,note_on,,288,0,11,,,,,,,,11,,,70,92
44832,note_on,,288,0,8,,,,,,,,7,,,53,92
44832,note_on,,320,0,2,,,,,,,,1,,,62,127
44832,note_on,,288,0,5,,,,,,,,4,,,70,108
44832,note_on,,288,0,9,,,,,,,,8,,,41,75
44832,note_on,,288,0,7,,,,,,,,6,,,69,92
44832,note_on,,288,0,12,,,,,,,,12,,,53,92
44832,note_on,,320,0,3,,,,,,,,2,,,57,127
44832,note_on,,288,0,10,,,,,,,,10,,,74,92
44832,note_on,,320,0,1,,,,,,,,0,,,70,127
44832,note_on,,320,0,4,,,,,,,,3,,,53,127
44926,note_on,,94,0,4,,,,,,,,3,,,53,0
44926,note_on,,94,0,3,,,,,,,,2,,,57,0
44926,note_on,,94,0,2,,,,,,,,1,,,62,0
44926,note_on,,94,0,1,,,,,,,,0,,,70,0
44928,note_on,,96,0,11,,,,,,,,11,,,70,0
44928,note_on,,96,0,5,,,,,,,,4,,,70,0
44928,note_on,,0,0,5,,,,,,,,4,,,72,108
44928,note_on,,0,0,11,,,,,,,,11,,,72,92
44928,note_on,,0,0,6,,,,,,,,5,,,75,108
44928,note_on,,96,0,6,,,,,,,,5,,,74,0
44928,note_on,,2,0,1,,,,,,,,0,,,72,127
44928,note_on,,0,0,7,,,,,,,,6,,,67,92
44928,note_on,,96,0,9,,,,,,,,8,,,41,0
44928,note_on,,2,0,3,,,,,,,,2,,,55,127
44928,note_on,,0,0,8,,,,,,,,7,,,51,92
44928,note_on,,96,0,8,,,,,,,,7,,,53,0
44928,note_on,,0,0,9,,,,,,,,8,,,39,75
44928,note_on,,96,0,10,,,,,,,,10,,,74,0
44928,note_on,,0,0,10,,,,,,,,10,,,75,92
44928,note_on,,2,0,2,,,,,,,,1,,,63,127
44928,note_on,,0,0,12,,,,,,,,12,,,51,92
44928,note_on,,96,0,12,,,,,,,,12,,,53,0
44928,note_on,,96,0,7,,,,,,,,6,,,69,0
44928,note_on,,2,0,4,,,,,,,,3,,,51,127
45022,note_on,,94,0,1,,,,,,,,0,,,72,0
45022,note_on,,94,0,4,,,,,,,,3,,,51,0
45022,note_on,,94,0,2,,,,,,,,1,,,63,0
45022,note_on,,94,0,3,,,,,,,,2,,,55,0
45024,note_on,,96,0,12,,,,,,,,12,,,51,0
45024,note_on,,0,0,12,,,,,,,,12,,,50,92
45024,note_on,,0,0,6,,,,,,,,5,,,77,108
45024,note_on,,96,0,6,,,,,,,,5,,,75,0
45024,note_on,,0,0,9,,,,,,,,8,,,38,75
45024,note_on,,96,0,9,,,,,,,,8,,,39,0
45024,note_on,,96,0,7,,,,,,,,6,,,67,0
45024,note_on,,2,0,2,,,,,,,,1,,,65,127
45024,note_on,,2,0,4,,,,,,,,3,,,50,127
45024,note_on,,96,0,5,,,,,,,,4,,,72,0
45024,note_on,,0,0,5,,,,,,,,4,,,74,108
45024,note_on,,0,0,8,,,,,,,,7,,,50,92
45024,note_on,,0,0,7,,,,,,,,6,,,65,92
45024,note_on,,2,0,3,,,,,,,,2,,,53,127
45024,note_on,,96,0,8,,,,,,,,7,,,51,0
45024,note_on,,96,0,10,,,,,,,,10,,,75,0
45024,note_on,,2,0,1,,,,,,,,0,,,74,127
45024,note_on,,0,0,10,,,,,,,,10,,,77,92
45072,note_on,,144,0,11,,,,,,,,11,,,72,0
45072,note_on,,0,0,11,,,,,,,,11,,,74,92
45118,note_on,,94,0,4,,,,,,,,3,,,50,0
45118,note_on,,94,0,3,,,,,,,,2,,,53,0
45118,note_on,,94,0,2,,,,,,,,1,,,65,0
45118,note_on,,94,0,1,,,,,,,,0,,,74,0
45120,note_on,,0,0,5,,,,,,,,4,,,75,108
45120,note_on,,96,0,5,,,,,,,,4,,,74,0
45120,note_on,,48,0,11,,,,,,,,11,,,74,0
45120,note_on,,0,0,6,,,,,,,,5,,,79,108
45120,note_on,,0,0,12,,,,,,,,12,,,48,92
45120,note_on,,96,0,12,,,,,,,,12,,,50,0
45120,note_on,,0,0,9,,,,,,,,8,,,36,75
45120,note_on,,96,0,9,,,,,,,,8,,,38,0
45120,note_on,,2,0,2,,,,,,,,1,,,63,127
45120,note_on,,0,0,7,,,,,,,,6,,,63,92
45120,note_on,,96,0,7,,,,,,,,6,,,65,0
45120,note_on,,2,0,1,,,,,,,,0,,,75,127
45120,note_on,,96,0,6,,,,,,,,5,,,77,0
45120,note_on,,2,0,3,,,,,,,,2,,,55,127
45120,note_on,,2,0,4,,,,,,,,3,,,48,127
45120,note_on,,0,0,11,,,,,,,,11,,,75,92
45120,note_on,,96,0,10,,,,,,,,10,,,77,0
45120,note_on,,0,0,10,,,,,,,,10,,,79,92
45120,note_on,,0,0,8,,,,,,,,7,,,48,92
45120,note_on,,96,0,8,,,,,,,,7,,,50,0
45216,note_on,,96,0,6,,,,,,,,5,,,79,0
45216,note_on,,0,0,6,,,,,,,,5,,,81,108
45216,note_on,,0,0,3,,,,,,,,2,,,57,127
45216,note_on,,96,0,10,,,,,,,,10,,,79,0
45216,note_on,,96,0,3,,,,,,,,2,,,55,0
45216,note_on,,0,0,10,,,,,,,,10,,,81,92
45280,note_on,,160,0,1,,,,,,,,0,,,75,0
45280,note_on,,160,0,4,,,,,,,,3,,,48,0
45280,note_on,,160,0,2,,,,,,,,1,,,63,0
45310,note_on,,94,0,3,,,,,,,,2,,,57,0
45312,note_on,,192,0,8,,,,,,,,7,,,48,0
45312,note_on,,0,0,8,,,,,,,,7,,,46,92
45312,note_on,,192,0,12,,,,,,,,12,,,48,0
45312,note_on,,0,0,12,,,,,,,,12,,,46,92
45312,note_on,,192,0,5,,,,,,,,4,,,75,0
45312,note_on,,0,0,6,,,,,,,,5,,,82,108
45312,note_on,,32,0,2,,,,,,,,1,,,65,127
45312,note_on,,0,0,5,,,,,,,,4,,,74,108
45312,note_on,,2,0,3,,,,,,,,2,,,58,127
45312,note_on,,32,0,1,,,,,,,,0,,,74,127
45312,note_on,,96,0,6,,,,,,,,5,,,81,0
45312,note_on,,192,0,7,,,,,,,,6,,,63,0
45312,note_on,,0,0,11,,,,,,,,11,,,74,92
45312,note_on,,0,0,9,,,,,,,,8,,,34,75
45312,note_on,,0,0,7,,,,,,,,6,,,65,92
45312,note_on,,192,0,11,,,,,,,,11,,,75,0
45312,note_on,,32,0,4,,,,,,,,3,,,46,127
45312,note_on,,96,0,10,,,,,,,,10,,,81,0
45312,note_on,,0,0,10,,,,,,,,10,,,82,92
45312,note_on,,192,0,9,,,,,,,,8,,,36,0
45408,note_on,,0,0,11,,,,,,,,11,,,70,92
45408,note_on,,96,0,6,,,,,,,,5,,,82,0
45408,note_on,,0,0,6,,,,,,,,5,,,70,108
45408,note_on,,96,0,10,,,,,,,,10,,,82,0
45408,note_on,,0,0,10,,,,,,,,10,,,74,92
45408,note_on,,96,0,11,,,,,,,,11,,,74,0
45472,note_on,,160,0,4,,,,,,,,3,,,46,0
45472,note_on,,160,0,3,,,,,,,,2,,,58,0
45472,note_on,,160,0,2,,,,,,,,1,,,65,0
45472,note_on,,160,0,1,,,,,,,,0,,,74,0
45504,note_on,,192,0,7,,,,,,,,6,,,65,0
45504,note_on,,0,0,11,,,,,,,,11,,,70,92
45504,note_on,,96,0,11,,,,,,,,11,,,70,0
45504,note_on,,0,0,9,,,,,,,,8,,,41,75
45504,note_on,,0,0,7,,,,,,,,6,,,65,92
45504,note_on,,32,0,4,,,,,,,,3,,,53,127
45504,note_on,,192,0,12,,,,,,,,12,,,46,0
45504,note_on,,96,0,6,,,,,,,,5,,,70,0
45504,note_on,,0,0,12,,,,,,,,12,,,53,92
45504,note_on,,96,0,10,,,,,,,,10,,,74,0
45504,note_on,,0,0,10,,,,,,,,10,,,72,92
45504,note_on,,0,0,5,,,,,,,,4,,,72,108
45504,note_on,,192,0,5,,,,,,,,4,,,74,0
45504,note_on,,192,0,8,,,,,,,,7,,,46,0
45504,note_on,,0,0,8,,,,,,,,7,,,53,92
45504,note_on,,32,0,1,,,,,,,,0,,,72,127
45504,note_on,,0,0,6,,,,,,,,5,,,70,108
45504,note_on,,192,0,9,,,,,,,,8,,,34,0
45504,note_on,,32,0,3,,,,,,,,2,,,58,127
45504,note_on,,32,0,2,,,,,,,,1,,,65,127
45888,note_on,,384,0,3,,,,,,,,2,,,58,0
45888,note_on,,384,0,7,,,,,,,,6,,,65,0
45888,note_on,,384,0,11,,,,,,,,11,,,70,0
45888,note_on,,384,0,6,,,,,,,,5,,,70,0
45888,note_on,,0,0,6,,,,,,,,5,,,69,108
45888,note_on,,384,0,12,,,,,,,,12,,,53,0
45888,note_on,,0,0,12,,,,,,,,12,,,41,92
45888,note_on,,384,0,8,,,,,,,,7,,,53,0
45888,note_on,,0,0,8,,,,,,,,7,,,41,92
45888,note_on,,0,0,7,,,,,,,,6,,,60,92
45888,note_on,,384,0,9,,,,,,,,8,,,41,0
45888,note_on,,0,0,11,,,,,,,,11,,,69,92
45888,note_on,,0,0,3,,,,,,,,2,,,57,127
45888,note_on,,0,0,9,,,,,,,,8,,,29,75
46032,note_on,,528,0,4,,,,,,,,3,,,53,0
46032,note_on,,528,0,1,,,,,,,,0,,,72,0
46032,note_on,,528,0,2,,,,,,,,1,,,65,0
46048,note_on,,160,0,3,,,,,,,,2,,,57,0
46080,note_on,,0,0,10,,,,,,,,10,,,70,92
46080,note_on,,576,0,10,,,,,,,,10,,,72,0
46080,note_on,,0,0,5,,,,,,,,4,,,70,108
46080,note_on,,48,0,1,,,,,,,,0,,,70,127
46080,note_on,,48,0,4,,,,,,,,3,,,53,127
46080,note_on,,576,0,5,,,,,,,,4,,,72,0
46080,note_on,,48,0,2,,,,,,,,1,,,65,127
46080,note_on,,32,0,3,,,,,,,,2,,,63,127
46240,note_on,,160,0,1,,,,,,,,0,,,70,0
46240,note_on,,160,0,3,,,,,,,,2,,,63,0
46240,note_on,,160,0,4,,,,,,,,3,,,53,0
46240,note_on,,160,0,2,,,,,,,,1,,,65,0
46272,note_on,,32,0,3,,,,,,,,2,,,62,127
46272,note_on,,0,0,8,,,,,,,,7,,,46,92
46272,note_on,,384,0,8,,,,,,,,7,,,41,0
46272,note_on,,0,0,12,,,,,,,,12,,,46,92
46272,note_on,,384,0,12,,,,,,,,12,,,41,0
46272,note_on,,0,0,6,,,,,,,,5,,,70,108
46272,note_on,,384,0,6,,,,,,,,5,,,69,0
46272,note_on,,384,0,11,,,,,,,,11,,,69,0
46272,note_on,,0,0,9,,,,,,,,8,,,34,75
46272,note_on,,32,0,4,,,,,,,,3,,,46,127
46272,note_on,,384,0,9,,,,,,,,8,,,29,0
46272,note_on,,384,0,7,,,,,,,,6,,,60,0
46272,note_on,,192,0,10,,,,,,,,10,,,70,0
46272,note_on,,32,0,1,,,,,,,,0,,,70,127
46272,note_on,,0,0,10,,,,,,,,10,,,70,92
46272,note_on,,0,0,5,,,,,,,,4,,,70,108
46272,note_on,,192,0,5,,,,,,,,4,,,70,0
46272,note_on,,0,0,11,,,,,,,,11,,,70,92
46272,note_on,,0,0,7,,,,,,,,6,,,62,92
46272,note_on,,32,0,2,,,,,,,,1,,,65,127
46992,note_on,,720,0,4,,,,,,,,3,,,46,0
46992,end_of_track,,0,1,4,,,,,,,,,,,,
46992,note_on,,720,0,3,,,,,,,,2,,,62,0
46992,end_of_track,,0,1,3,,,,,,,,,,,,
46992,note_on,,720,0,2,,,,,,,,1,,,65,0
46992,note_on,,720,0,1,,,,,,,,0,,,70,0
46992,end_of_track,,0,1,1,,,,,,,,,,,,
46992,end_of_track,,0,1,2,,,,,,,,,,,,
47040,end_of_track,,0,1,6,,,,,,,,,,,,
47040,note_on,,768,0,6,,,,,,,,5,,,70,0
47040,note_on,,768,0,9,,,,,,,,8,,,34,0
47040,end_of_track,,0,1,11,,,,,,,,,,,,
47040,note_on,,768,0,11,,,,,,,,11,,,70,0
47040,end_of_track,,0,1,9,,,,,,,,,,,,
47040,note_on,,768,0,7,,,,,,,,6,,,62,0
47040,end_of_track,,0,1,8,,,,,,,,,,,,
47040,note_on,,768,0,5,,,,,,,,4,,,70,0
47040,end_of_track,,0,1,5,,,,,,,,,,,,
47040,end_of_track,,0,1,10,,,,,,,,,,,,
47040,note_on,,768,0,10,,,,,,,,10,,,70,0
47040,note_on,,768,0,12,,,,,,,,12,,,46,0
47040,end_of_track,,0,1,12,,,,,,,,,,,,
47040,end_of_track,,0,1,7,,,,,,,,,,,,
47040,note_on,,768,0,8,,,,,,,,7,,,46,0
