tick,type,time,meta,track,tempo,key,numerator,denominator,clocks_per_click,notated_32nd_notes_per_beat,port,program,channel,control,value,note,velocity
0,track_name,0,1,0,,,,,,,,,,,,,
0,program_change,0,0,1,,,,,,,,0,0,,,,
0,program_change,0,0,1,,,,,,,,6,0,,,,
0,control_change,0,0,1,,,,,,,,,0,7,127,,
0,control_change,0,0,1,,,,,,,,,0,10,64,,
0,control_change,0,0,1,,,,,,,,,0,91,96,,
0,control_change,0,0,1,,,,,,,,,0,93,85,,
0,control_change,0,0,1,,,,,,,,,0,10,77,,
0,midi_port,0,1,2,,,,,,,0,,,,,,
0,track_name,0,1,1,,,,,,,,,,,,,
0,note_on,0,0,2,,,,,,,,,1,,,55,110
0,control_change,0,0,2,,,,,,,,,1,10,52,,
0,control_change,0,0,2,,,,,,,,,1,93,85,,
0,control_change,0,0,2,,,,,,,,,1,91,92,,
0,program_change,0,0,2,,,,,,,,6,1,,,,
0,control_change,0,0,2,,,,,,,,,1,10,64,,
0,midi_port,0,1,1,,,,,,,0,,,,,,
0,program_change,0,0,2,,,,,,,,0,1,,,,
0,time_signature,0,1,0,,,4,4,24,8,,,,,,,
0,key_signature,0,1,0,,Bb,,,,,,,,,,,
0,set_tempo,0,1,0,508474,,,,,,,,,,,,
0,copyright,0,1,0,,,,,,,,,,,,,
0,copyright,0,1,0,,,,,,,,,,,,,
0,control_change,0,0,2,,,,,,,,,1,7,127,,
0,text,0,1,0,,,,,,,,,,,,,
0,track_name,0,1,2,,,,,,,,,,,,,
0,text,0,1,0,,,,,,,,,,,,,
96,note_on,96,0,2,,,,,,,,,1,,,58,110
96,set_tempo,96,1,0,504201,,,,,,,,,,,,
192,note_on,96,0,2,,,,,,,,,1,,,62,110
192,set_tempo,96,1,0,500000,,,,,,,,,,,,
286,note_on,94,0,2,,,,,,,,,1,,,55,0
286,note_on,0,0,2,,,,,,,,,1,,,62,0
288,note_on,2,0,2,,,,,,,,,1,,,67,110
382,note_on,94,0,2,,,,,,,,,1,,,58,0
430,note_on,48,0,2,,,,,,,,,1,,,67,0
432,note_on,2,0,2,,,,,,,,,1,,,65,110
478,note_on,46,0,2,,,,,,,,,1,,,65,0
480,note_on,2,0,2,,,,,,,,,1,,,63,110
526,note_on,46,0,2,,,,,,,,,1,,,63,0
528,note_on,2,0,2,,,,,,,,,1,,,62,110
574,note_on,46,0,2,,,,,,,,,1,,,62,0
576,note_on,2,0,2,,,,,,,,,1,,,60,110
622,note_on,46,0,2,,,,,,,,,1,,,60,0
624,note_on,2,0,2,,,,,,,,,1,,,58,110
670,note_on,46,0,2,,,,,,,,,1,,,58,0
672,note_on,2,0,2,,,,,,,,,1,,,57,110
718,note_on,46,0,2,,,,,,,,,1,,,57,0
720,note_on,2,0,2,,,,,,,,,1,,,55,110
766,note_on,46,0,2,,,,,,,,,1,,,55,0
768,note_on,2,0,2,,,,,,,,,1,,,54,110
768,set_tempo,576,1,0,508474,,,,,,,,,,,,
864,note_on,96,0,2,,,,,,,,,1,,,57,110
960,note_on,96,0,2,,,,,,,,,1,,,60,110
960,set_tempo,192,1,0,500000,,,,,,,,,,,,
1054,note_on,94,0,2,,,,,,,,,1,,,54,0
1054,note_on,0,0,2,,,,,,,,,1,,,60,0
1056,note_on,2,0,2,,,,,,,,,1,,,63,110
1150,note_on,94,0,2,,,,,,,,,1,,,57,0
1200,note_on,50,0,2,,,,,,,,,1,,,60,110
1246,note_on,46,0,2,,,,,,,,,1,,,63,0
1248,note_on,2,0,2,,,,,,,,,1,,,66,110
1294,note_on,46,0,2,,,,,,,,,1,,,60,0
1296,note_on,2,0,2,,,,,,,,,1,,,69,110
1342,note_on,46,0,2,,,,,,,,,1,,,66,0
1342,note_on,0,0,2,,,,,,,,,1,,,69,0
1344,note_on,2,0,2,,,,,,,,,1,,,60,110
1392,note_on,48,0,2,,,,,,,,,1,,,63,110
1438,note_on,46,0,2,,,,,,,,,1,,,60,0
1438,note_on,0,0,2,,,,,,,,,1,,,63,0
1440,note_on,2,0,2,,,,,,,,,1,,,62,110
1486,note_on,46,0,2,,,,,,,,,1,,,62,0
1488,note_on,2,0,2,,,,,,,,,1,,,60,110
1534,note_on,46,0,2,,,,,,,,,1,,,60,0
1536,set_tempo,576,1,0,508474,,,,,,,,,,,,
1536,note_on,1536,0,1,,,,,,,,,0,,,59,110
1632,note_on,96,0,1,,,,,,,,,0,,,62,110
1726,note_on,94,0,1,,,,,,,,,0,,,59,0
1728,note_on,2,0,1,,,,,,,,,0,,,65,110
1728,set_tempo,192,1,0,500000,,,,,,,,,,,,
1822,note_on,94,0,1,,,,,,,,,0,,,62,0
1824,note_on,2,0,1,,,,,,,,,0,,,68,110
1918,note_on,94,0,1,,,,,,,,,0,,,65,0
1968,note_on,50,0,1,,,,,,,,,0,,,65,110
2014,note_on,46,0,1,,,,,,,,,0,,,68,0
2016,note_on,2,0,1,,,,,,,,,0,,,71,110
2062,note_on,46,0,1,,,,,,,,,0,,,65,0
2064,note_on,2,0,1,,,,,,,,,0,,,74,110
2110,note_on,46,0,1,,,,,,,,,0,,,71,0
2110,note_on,0,0,1,,,,,,,,,0,,,74,0
2112,note_on,2,0,1,,,,,,,,,0,,,65,110
2160,note_on,48,0,1,,,,,,,,,0,,,68,110
2206,note_on,46,0,1,,,,,,,,,0,,,65,0
2206,note_on,0,0,1,,,,,,,,,0,,,68,0
2208,note_on,2,0,1,,,,,,,,,0,,,67,110
2254,note_on,46,0,1,,,,,,,,,0,,,67,0
2256,note_on,2,0,1,,,,,,,,,0,,,65,110
2302,note_on,46,0,1,,,,,,,,,0,,,65,0
2304,note_on,2,0,1,,,,,,,,,0,,,63,110
2352,note_on,48,0,1,,,,,,,,,0,,,60,110
2398,note_on,46,0,1,,,,,,,,,0,,,63,0
2400,note_on,2,0,1,,,,,,,,,0,,,67,110
2446,note_on,46,0,1,,,,,,,,,0,,,60,0
2448,note_on,2,0,1,,,,,,,,,0,,,63,110
2494,note_on,46,0,1,,,,,,,,,0,,,63,0
2494,note_on,0,0,1,,,,,,,,,0,,,67,0
2496,note_on,2,0,1,,,,,,,,,0,,,72,110
2544,note_on,48,0,1,,,,,,,,,0,,,67,110
2590,note_on,46,0,1,,,,,,,,,0,,,72,0
2592,note_on,2,0,1,,,,,,,,,0,,,75,110
2638,note_on,46,0,1,,,,,,,,,0,,,67,0
2640,note_on,2,0,1,,,,,,,,,0,,,72,110
2686,note_on,46,0,1,,,,,,,,,0,,,72,0
2686,note_on,0,0,1,,,,,,,,,0,,,75,0
2688,note_on,2,0,1,,,,,,,,,0,,,79,110
2734,note_on,46,0,1,,,,,,,,,0,,,79,0
2736,note_on,2,0,1,,,,,,,,,0,,,77,110
2782,note_on,46,0,1,,,,,,,,,0,,,77,0
2784,note_on,2,0,1,,,,,,,,,0,,,75,110
2830,note_on,46,0,1,,,,,,,,,0,,,75,0
2832,note_on,2,0,1,,,,,,,,,0,,,74,110
2878,note_on,46,0,1,,,,,,,,,0,,,74,0
2880,note_on,2,0,1,,,,,,,,,0,,,72,110
2926,note_on,46,0,1,,,,,,,,,0,,,72,0
2928,note_on,2,0,1,,,,,,,,,0,,,70,110
2974,note_on,46,0,1,,,,,,,,,0,,,70,0
2976,note_on,2,0,1,,,,,,,,,0,,,69,110
3022,note_on,46,0,1,,,,,,,,,0,,,69,0
3024,note_on,2,0,1,,,,,,,,,0,,,67,110
3070,note_on,46,0,1,,,,,,,,,0,,,67,0
3072,note_on,2,0,1,,,,,,,,,0,,,65,110
3072,note_on,1538,0,2,,,,,,,,,1,,,50,110
3072,set_tempo,1344,1,0,508474,,,,,,,,,,,,
3120,note_on,48,0,1,,,,,,,,,0,,,62,110
3166,note_on,46,0,1,,,,,,,,,0,,,65,0
3168,note_on,2,0,1,,,,,,,,,0,,,69,110
3168,note_on,96,0,2,,,,,,,,,1,,,53,110
3214,note_on,46,0,1,,,,,,,,,0,,,62,0
3216,note_on,2,0,1,,,,,,,,,0,,,65,110
3262,note_on,46,0,1,,,,,,,,,0,,,69,0
3262,note_on,94,0,2,,,,,,,,,1,,,50,0
3264,set_tempo,192,1,0,500000,,,,,,,,,,,,
3264,note_on,2,0,1,,,,,,,,,0,,,74,110
3264,note_on,2,0,2,,,,,,,,,1,,,57,110
3310,note_on,46,0,1,,,,,,,,,0,,,65,0
3312,note_on,2,0,1,,,,,,,,,0,,,69,110
3358,note_on,94,0,2,,,,,,,,,1,,,53,0
3358,note_on,46,0,1,,,,,,,,,0,,,74,0
3360,note_on,2,0,1,,,,,,,,,0,,,77,110
3360,note_on,2,0,2,,,,,,,,,1,,,62,110
3406,note_on,46,0,1,,,,,,,,,0,,,69,0
3408,note_on,2,0,1,,,,,,,,,0,,,74,110
3454,note_on,0,0,1,,,,,,,,,0,,,77,0
3454,note_on,46,0,1,,,,,,,,,0,,,74,0
3454,note_on,94,0,2,,,,,,,,,1,,,57,0
3456,note_on,2,0,1,,,,,,,,,0,,,81,110
3502,note_on,48,0,2,,,,,,,,,1,,,62,0
3504,note_on,2,0,2,,,,,,,,,1,,,60,110
3550,note_on,46,0,2,,,,,,,,,1,,,60,0
3552,note_on,2,0,2,,,,,,,,,1,,,58,110
3598,note_on,46,0,2,,,,,,,,,1,,,58,0
3600,note_on,2,0,2,,,,,,,,,1,,,57,110
3646,note_on,46,0,2,,,,,,,,,1,,,57,0
3648,note_on,2,0,2,,,,,,,,,1,,,55,110
3694,note_on,46,0,2,,,,,,,,,1,,,55,0
3696,note_on,2,0,2,,,,,,,,,1,,,53,110
3742,note_on,46,0,2,,,,,,,,,1,,,53,0
3744,note_on,2,0,2,,,,,,,,,1,,,52,110
3790,note_on,46,0,2,,,,,,,,,1,,,52,0
3792,note_on,336,0,1,,,,,,,,,0,,,81,0
3792,note_on,2,0,2,,,,,,,,,1,,,50,110
3838,note_on,46,0,2,,,,,,,,,1,,,50,0
3840,set_tempo,576,1,0,508474,,,,,,,,,,,,
3840,note_on,2,0,2,,,,,,,,,1,,,49,110
3840,note_on,48,0,1,,,,,,,,,0,,,64,110
3888,note_on,48,0,1,,,,,,,,,0,,,61,110
3934,note_on,46,0,1,,,,,,,,,0,,,64,0
3936,note_on,96,0,2,,,,,,,,,1,,,52,110
3936,note_on,2,0,1,,,,,,,,,0,,,67,110
3982,note_on,46,0,1,,,,,,,,,0,,,61,0
3984,note_on,2,0,1,,,,,,,,,0,,,64,110
4030,note_on,94,0,2,,,,,,,,,1,,,49,0
4030,note_on,46,0,1,,,,,,,,,0,,,67,0
4032,set_tempo,192,1,0,500000,,,,,,,,,,,,
4032,note_on,2,0,1,,,,,,,,,0,,,70,110
4032,note_on,2,0,2,,,,,,,,,1,,,55,110
4078,note_on,46,0,1,,,,,,,,,0,,,64,0
4080,note_on,2,0,1,,,,,,,,,0,,,67,110
4126,note_on,94,0,2,,,,,,,,,1,,,52,0
4126,note_on,46,0,1,,,,,,,,,0,,,70,0
4128,note_on,2,0,1,,,,,,,,,0,,,73,110
4128,note_on,2,0,2,,,,,,,,,1,,,58,110
4174,note_on,46,0,1,,,,,,,,,0,,,67,0
4176,note_on,2,0,1,,,,,,,,,0,,,67,110
4222,note_on,46,0,1,,,,,,,,,0,,,67,0
4222,note_on,0,0,1,,,,,,,,,0,,,73,0
4222,note_on,94,0,2,,,,,,,,,1,,,55,0
4224,note_on,2,0,1,,,,,,,,,0,,,76,110
4272,note_on,50,0,2,,,,,,,,,1,,,55,110
4318,note_on,46,0,2,,,,,,,,,1,,,58,0
4320,note_on,2,0,2,,,,,,,,,1,,,61,110
4366,note_on,46,0,2,,,,,,,,,1,,,55,0
4368,note_on,2,0,2,,,,,,,,,1,,,64,110
4414,note_on,46,0,2,,,,,,,,,1,,,61,0
4414,note_on,0,0,2,,,,,,,,,1,,,64,0
4416,note_on,2,0,2,,,,,,,,,1,,,55,110
4464,note_on,48,0,2,,,,,,,,,1,,,58,110
4510,note_on,46,0,2,,,,,,,,,1,,,55,0
4510,note_on,0,0,2,,,,,,,,,1,,,58,0
4512,note_on,2,0,2,,,,,,,,,1,,,57,110
4558,note_on,46,0,2,,,,,,,,,1,,,57,0
4560,note_on,336,0,1,,,,,,,,,0,,,76,0
4560,note_on,2,0,2,,,,,,,,,1,,,55,110
4606,note_on,46,0,2,,,,,,,,,1,,,55,0
4608,note_on,48,0,1,,,,,,,,,0,,,69,110
4608,note_on,2,0,2,,,,,,,,,1,,,54,110
4608,set_tempo,576,1,0,508474,,,,,,,,,,,,
4656,note_on,48,0,1,,,,,,,,,0,,,66,110
4702,note_on,46,0,1,,,,,,,,,0,,,69,0
4704,note_on,96,0,2,,,,,,,,,1,,,57,110
4704,note_on,2,0,1,,,,,,,,,0,,,72,110
4750,note_on,46,0,1,,,,,,,,,0,,,66,0
4752,note_on,2,0,1,,,,,,,,,0,,,69,110
4798,note_on,46,0,1,,,,,,,,,0,,,72,0
4798,note_on,94,0,2,,,,,,,,,1,,,54,0
4800,set_tempo,192,1,0,500000,,,,,,,,,,,,
4800,note_on,2,0,2,,,,,,,,,1,,,60,110
4800,note_on,2,0,1,,,,,,,,,0,,,75,110
4846,note_on,46,0,1,,,,,,,,,0,,,69,0
4848,note_on,2,0,1,,,,,,,,,0,,,72,110
4894,note_on,94,0,2,,,,,,,,,1,,,57,0
4894,note_on,46,0,1,,,,,,,,,0,,,75,0
4896,note_on,2,0,2,,,,,,,,,1,,,63,110
4896,note_on,2,0,1,,,,,,,,,0,,,81,110
4942,note_on,46,0,1,,,,,,,,,0,,,72,0
4944,note_on,2,0,1,,,,,,,,,0,,,78,110
4990,note_on,0,0,1,,,,,,,,,0,,,81,0
4990,note_on,46,0,1,,,,,,,,,0,,,78,0
4990,note_on,94,0,2,,,,,,,,,1,,,60,0
4992,note_on,2,0,1,,,,,,,,,0,,,84,110
5040,note_on,50,0,2,,,,,,,,,1,,,60,110
5086,note_on,46,0,2,,,,,,,,,1,,,63,0
5088,note_on,2,0,2,,,,,,,,,1,,,66,110
5134,note_on,46,0,2,,,,,,,,,1,,,60,0
5136,note_on,2,0,2,,,,,,,,,1,,,69,110
5182,note_on,46,0,2,,,,,,,,,1,,,66,0
5182,note_on,0,0,2,,,,,,,,,1,,,69,0
5184,note_on,2,0,2,,,,,,,,,1,,,60,110
5232,note_on,48,0,2,,,,,,,,,1,,,63,110
5278,note_on,0,0,2,,,,,,,,,1,,,63,0
5278,note_on,46,0,2,,,,,,,,,1,,,60,0
5280,note_on,2,0,2,,,,,,,,,1,,,62,110
5326,note_on,46,0,2,,,,,,,,,1,,,62,0
5328,note_on,2,0,2,,,,,,,,,1,,,60,110
5328,note_on,336,0,1,,,,,,,,,0,,,84,0
5374,note_on,46,0,2,,,,,,,,,1,,,60,0
5376,set_tempo,576,1,0,508474,,,,,,,,,,,,
5376,note_on,2,0,2,,,,,,,,,1,,,58,110
5424,note_on,96,0,1,,,,,,,,,0,,,74,110
5472,note_on,48,0,1,,,,,,,,,0,,,79,110
5472,note_on,96,0,2,,,,,,,,,1,,,55,110
5518,note_on,46,0,1,,,,,,,,,0,,,79,0
5520,note_on,2,0,1,,,,,,,,,0,,,77,110
5566,note_on,0,0,1,,,,,,,,,0,,,77,0
5566,note_on,46,0,1,,,,,,,,,0,,,74,0
5566,note_on,0,0,2,,,,,,,,,1,,,58,0
5566,note_on,94,0,2,,,,,,,,,1,,,55,0
5568,set_tempo,192,1,0,500000,,,,,,,,,,,,
5568,note_on,2,0,1,,,,,,,,,0,,,75,110
5568,note_on,2,0,2,,,,,,,,,1,,,60,110
5614,note_on,46,0,1,,,,,,,,,0,,,75,0
5616,note_on,2,0,1,,,,,,,,,0,,,74,110
5662,note_on,46,0,1,,,,,,,,,0,,,74,0
5664,note_on,2,0,1,,,,,,,,,0,,,72,110
5710,note_on,46,0,1,,,,,,,,,0,,,72,0
5712,note_on,2,0,1,,,,,,,,,0,,,70,110
5728,note_on,160,0,2,,,,,,,,,1,,,60,0
5758,note_on,46,0,1,,,,,,,,,0,,,70,0
5760,note_on,32,0,2,,,,,,,,,1,,,62,110
5760,note_on,2,0,1,,,,,,,,,0,,,69,110
5806,note_on,46,0,1,,,,,,,,,0,,,69,0
5808,note_on,2,0,1,,,,,,,,,0,,,67,110
5854,note_on,46,0,1,,,,,,,,,0,,,67,0
5856,note_on,2,0,1,,,,,,,,,0,,,66,110
5902,note_on,46,0,1,,,,,,,,,0,,,66,0
5904,note_on,2,0,1,,,,,,,,,0,,,64,110
5920,note_on,160,0,2,,,,,,,,,1,,,62,0
5950,note_on,46,0,1,,,,,,,,,0,,,64,0
5952,note_on,2,0,1,,,,,,,,,0,,,62,110
5998,note_on,46,0,1,,,,,,,,,0,,,62,0
6000,note_on,2,0,1,,,,,,,,,0,,,60,110
6046,note_on,46,0,1,,,,,,,,,0,,,60,0
6048,note_on,2,0,1,,,,,,,,,0,,,58,110
6094,note_on,46,0,1,,,,,,,,,0,,,58,0
6096,note_on,2,0,1,,,,,,,,,0,,,57,110
6142,note_on,46,0,1,,,,,,,,,0,,,57,0
6144,set_tempo,576,1,0,508474,,,,,,,,,,,,
6144,note_on,224,0,2,,,,,,,,,1,,,43,110
6144,note_on,2,0,1,,,,,,,,,0,,,58,110
6192,note_on,48,0,1,,,,,,,,,0,,,55,110
6238,note_on,46,0,1,,,,,,,,,0,,,58,0
6240,note_on,2,0,1,,,,,,,,,0,,,62,110
6240,note_on,96,0,2,,,,,,,,,1,,,46,110
6286,note_on,46,0,1,,,,,,,,,0,,,55,0
6288,note_on,2,0,1,,,,,,,,,0,,,58,110
6334,note_on,46,0,1,,,,,,,,,0,,,62,0
6334,note_on,94,0,2,,,,,,,,,1,,,43,0
6336,note_on,2,0,2,,,,,,,,,1,,,50,110
6336,set_tempo,192,1,0,500000,,,,,,,,,,,,
6336,note_on,2,0,1,,,,,,,,,0,,,67,110
6382,note_on,46,0,1,,,,,,,,,0,,,58,0
6384,note_on,2,0,1,,,,,,,,,0,,,62,110
6430,note_on,46,0,1,,,,,,,,,0,,,67,0
6430,note_on,94,0,2,,,,,,,,,1,,,46,0
6432,note_on,2,0,1,,,,,,,,,0,,,70,110
6432,note_on,2,0,2,,,,,,,,,1,,,55,110
6478,note_on,46,0,1,,,,,,,,,0,,,62,0
6480,note_on,2,0,1,,,,,,,,,0,,,67,110
6526,note_on,94,0,2,,,,,,,,,1,,,50,0
6526,note_on,0,0,1,,,,,,,,,0,,,70,0
6526,note_on,46,0,1,,,,,,,,,0,,,67,0
6528,note_on,2,0,1,,,,,,,,,0,,,74,110
6574,note_on,48,0,2,,,,,,,,,1,,,55,0
6576,note_on,2,0,2,,,,,,,,,1,,,53,110
6622,note_on,46,0,2,,,,,,,,,1,,,53,0
6624,note_on,2,0,2,,,,,,,,,1,,,51,110
6670,note_on,46,0,2,,,,,,,,,1,,,51,0
6672,note_on,2,0,2,,,,,,,,,1,,,50,110
6718,note_on,46,0,2,,,,,,,,,1,,,50,0
6720,note_on,2,0,2,,,,,,,,,1,,,48,110
6766,note_on,46,0,2,,,,,,,,,1,,,48,0
6768,note_on,2,0,2,,,,,,,,,1,,,46,110
6814,note_on,46,0,2,,,,,,,,,1,,,46,0
6816,note_on,2,0,2,,,,,,,,,1,,,45,110
6862,note_on,46,0,2,,,,,,,,,1,,,45,0
6864,note_on,336,0,1,,,,,,,,,0,,,74,0
6864,note_on,2,0,2,,,,,,,,,1,,,43,110
6910,note_on,46,0,2,,,,,,,,,1,,,43,0
6912,note_on,2,0,2,,,,,,,,,1,,,42,110
6912,set_tempo,576,1,0,508474,,,,,,,,,,,,
6912,note_on,48,0,1,,,,,,,,,0,,,57,110
6960,note_on,48,0,1,,,,,,,,,0,,,54,110
7006,note_on,46,0,1,,,,,,,,,0,,,57,0
7008,note_on,96,0,2,,,,,,,,,1,,,45,110
7008,note_on,2,0,1,,,,,,,,,0,,,60,110
7054,note_on,46,0,1,,,,,,,,,0,,,54,0
7056,note_on,2,0,1,,,,,,,,,0,,,57,110
7102,note_on,94,0,2,,,,,,,,,1,,,42,0
7102,note_on,46,0,1,,,,,,,,,0,,,60,0
7104,note_on,2,0,1,,,,,,,,,0,,,63,110
7104,note_on,2,0,2,,,,,,,,,1,,,48,110
7104,set_tempo,192,1,0,500000,,,,,,,,,,,,
7150,note_on,46,0,1,,,,,,,,,0,,,57,0
7152,note_on,2,0,1,,,,,,,,,0,,,60,110
7198,note_on,46,0,1,,,,,,,,,0,,,63,0
7198,note_on,94,0,2,,,,,,,,,1,,,45,0
7200,note_on,2,0,2,,,,,,,,,1,,,51,110
7200,note_on,2,0,1,,,,,,,,,0,,,69,110
7246,note_on,46,0,1,,,,,,,,,0,,,60,0
7248,note_on,2,0,1,,,,,,,,,0,,,66,110
7294,note_on,94,0,2,,,,,,,,,1,,,48,0
7294,note_on,46,0,1,,,,,,,,,0,,,66,0
7294,note_on,0,0,1,,,,,,,,,0,,,69,0
7296,note_on,2,0,1,,,,,,,,,0,,,72,110
7344,note_on,50,0,2,,,,,,,,,1,,,48,110
7390,note_on,46,0,2,,,,,,,,,1,,,48,0
7390,note_on,0,0,2,,,,,,,,,1,,,51,0
7392,note_on,2,0,2,,,,,,,,,1,,,54,110
7438,note_on,46,0,2,,,,,,,,,1,,,54,0
7440,note_on,2,0,2,,,,,,,,,1,,,57,110
7486,note_on,46,0,2,,,,,,,,,1,,,57,0
7488,note_on,2,0,2,,,,,,,,,1,,,48,110
7536,note_on,48,0,2,,,,,,,,,1,,,51,110
7582,note_on,0,0,2,,,,,,,,,1,,,51,0
7582,note_on,46,0,2,,,,,,,,,1,,,48,0
7584,note_on,2,0,2,,,,,,,,,1,,,50,110
7630,note_on,46,0,2,,,,,,,,,1,,,50,0
7632,note_on,2,0,2,,,,,,,,,1,,,48,110
7632,note_on,336,0,1,,,,,,,,,0,,,72,0
7678,note_on,46,0,2,,,,,,,,,1,,,48,0
7680,note_on,2,0,2,,,,,,,,,1,,,47,110
7680,set_tempo,576,1,0,508474,,,,,,,,,,,,
7680,note_on,48,0,1,,,,,,,,,0,,,62,110
7728,note_on,48,0,1,,,,,,,,,0,,,59,110
7774,note_on,46,0,1,,,,,,,,,0,,,62,0
7776,note_on,2,0,1,,,,,,,,,0,,,65,110
7776,note_on,96,0,2,,,,,,,,,1,,,50,110
7822,note_on,46,0,1,,,,,,,,,0,,,59,0
7824,note_on,2,0,1,,,,,,,,,0,,,62,110
7870,note_on,46,0,1,,,,,,,,,0,,,65,0
7870,note_on,94,0,2,,,,,,,,,1,,,47,0
7872,note_on,2,0,1,,,,,,,,,0,,,68,110
7872,set_tempo,192,1,0,500000,,,,,,,,,,,,
7872,note_on,2,0,2,,,,,,,,,1,,,53,110
7918,note_on,46,0,1,,,,,,,,,0,,,62,0
7920,note_on,2,0,1,,,,,,,,,0,,,65,110
7966,note_on,94,0,2,,,,,,,,,1,,,50,0
7966,note_on,46,0,1,,,,,,,,,0,,,68,0
7968,note_on,2,0,1,,,,,,,,,0,,,71,110
7968,note_on,2,0,2,,,,,,,,,1,,,56,110
8014,note_on,46,0,1,,,,,,,,,0,,,65,0
8016,note_on,2,0,1,,,,,,,,,0,,,65,110
8062,note_on,0,0,1,,,,,,,,,0,,,71,0
8062,note_on,46,0,1,,,,,,,,,0,,,65,0
8062,note_on,94,0,2,,,,,,,,,1,,,53,0
8064,note_on,2,0,1,,,,,,,,,0,,,77,110
8112,note_on,50,0,2,,,,,,,,,1,,,53,110
8158,note_on,46,0,2,,,,,,,,,1,,,53,0
8158,note_on,0,0,2,,,,,,,,,1,,,56,0
8160,note_on,2,0,2,,,,,,,,,1,,,59,110
8208,note_on,48,0,2,,,,,,,,,1,,,62,110
8254,note_on,0,0,2,,,,,,,,,1,,,62,0
8254,note_on,46,0,2,,,,,,,,,1,,,59,0
8256,note_on,2,0,2,,,,,,,,,1,,,53,110
8304,note_on,48,0,2,,,,,,,,,1,,,56,110
8350,note_on,0,0,2,,,,,,,,,1,,,56,0
8350,note_on,46,0,2,,,,,,,,,1,,,53,0
8352,note_on,2,0,2,,,,,,,,,1,,,55,110
8398,note_on,46,0,2,,,,,,,,,1,,,55,0
8400,note_on,2,0,2,,,,,,,,,1,,,53,110
8400,note_on,336,0,1,,,,,,,,,0,,,77,0
8446,note_on,46,0,2,,,,,,,,,1,,,53,0
8448,note_on,2,0,2,,,,,,,,,1,,,51,110
8448,set_tempo,576,1,0,508474,,,,,,,,,,,,
8448,note_on,48,0,1,,,,,,,,,0,,,67,110
8496,note_on,48,0,2,,,,,,,,,1,,,48,110
8496,note_on,48,0,1,,,,,,,,,0,,,63,110
8542,note_on,46,0,2,,,,,,,,,1,,,51,0
8542,note_on,46,0,1,,,,,,,,,0,,,67,0
8544,note_on,2,0,1,,,,,,,,,0,,,72,110
8544,note_on,2,0,2,,,,,,,,,1,,,55,110
8590,note_on,46,0,1,,,,,,,,,0,,,63,0
8590,note_on,46,0,2,,,,,,,,,1,,,48,0
8592,note_on,2,0,1,,,,,,,,,0,,,67,110
8592,note_on,2,0,2,,,,,,,,,1,,,51,110
8638,note_on,46,0,2,,,,,,,,,1,,,51,0
8638,note_on,0,0,2,,,,,,,,,1,,,55,0
8638,note_on,0,0,1,,,,,,,,,0,,,72,0
8638,note_on,46,0,1,,,,,,,,,0,,,67,0
8640,note_on,2,0,1,,,,,,,,,0,,,75,110
8640,note_on,2,0,2,,,,,,,,,1,,,60,110
8640,set_tempo,192,1,0,500000,,,,,,,,,,,,
8688,note_on,48,0,2,,,,,,,,,1,,,55,110
8688,note_on,48,0,1,,,,,,,,,0,,,72,110
8734,note_on,46,0,2,,,,,,,,,1,,,60,0
8734,note_on,46,0,1,,,,,,,,,0,,,75,0
8736,note_on,2,0,1,,,,,,,,,0,,,79,110
8736,note_on,2,0,2,,,,,,,,,1,,,63,110
8782,note_on,46,0,1,,,,,,,,,0,,,79,0
8782,note_on,46,0,2,,,,,,,,,1,,,63,0
8784,note_on,2,0,2,,,,,,,,,1,,,62,110
8784,note_on,2,0,1,,,,,,,,,0,,,77,110
8830,note_on,46,0,2,,,,,,,,,1,,,55,0
8830,note_on,0,0,1,,,,,,,,,0,,,77,0
8830,note_on,46,0,1,,,,,,,,,0,,,72,0
8830,note_on,0,0,2,,,,,,,,,1,,,62,0
8832,note_on,2,0,1,,,,,,,,,0,,,75,110
8832,note_on,2,0,2,,,,,,,,,1,,,60,110
8878,note_on,46,0,1,,,,,,,,,0,,,75,0
8878,note_on,46,0,2,,,,,,,,,1,,,60,0
8880,note_on,2,0,2,,,,,,,,,1,,,58,110
8880,note_on,2,0,1,,,,,,,,,0,,,74,110
8926,note_on,46,0,1,,,,,,,,,0,,,74,0
8926,note_on,46,0,2,,,,,,,,,1,,,58,0
8928,note_on,2,0,1,,,,,,,,,0,,,72,110
8928,note_on,2,0,2,,,,,,,,,1,,,57,110
8974,note_on,46,0,1,,,,,,,,,0,,,72,0
8974,note_on,46,0,2,,,,,,,,,1,,,57,0
8976,note_on,2,0,1,,,,,,,,,0,,,70,110
8976,note_on,2,0,2,,,,,,,,,1,,,55,110
9022,note_on,46,0,2,,,,,,,,,1,,,55,0
9022,note_on,46,0,1,,,,,,,,,0,,,70,0
9024,note_on,2,0,1,,,,,,,,,0,,,69,110
9024,note_on,2,0,2,,,,,,,,,1,,,54,110
9070,note_on,46,0,1,,,,,,,,,0,,,69,0
9070,note_on,46,0,2,,,,,,,,,1,,,54,0
9072,note_on,2,0,1,,,,,,,,,0,,,67,110
9072,note_on,2,0,2,,,,,,,,,1,,,52,110
9118,note_on,46,0,1,,,,,,,,,0,,,67,0
9118,note_on,46,0,2,,,,,,,,,1,,,52,0
9120,note_on,2,0,1,,,,,,,,,0,,,66,110
9120,note_on,2,0,2,,,,,,,,,1,,,50,110
9166,note_on,46,0,2,,,,,,,,,1,,,50,0
9166,note_on,46,0,1,,,,,,,,,0,,,66,0
9168,note_on,2,0,1,,,,,,,,,0,,,64,110
9168,note_on,2,0,2,,,,,,,,,1,,,48,110
9214,note_on,46,0,1,,,,,,,,,0,,,64,0
9214,note_on,46,0,2,,,,,,,,,1,,,48,0
9216,note_on,2,0,1,,,,,,,,,0,,,62,110
9216,note_on,2,0,2,,,,,,,,,1,,,46,110
9216,set_tempo,576,1,0,508474,,,,,,,,,,,,
9264,note_on,48,0,1,,,,,,,,,0,,,55,110
9310,note_on,46,0,1,,,,,,,,,0,,,62,0
9312,note_on,2,0,1,,,,,,,,,0,,,58,110
9358,note_on,46,0,1,,,,,,,,,0,,,55,0
9360,note_on,2,0,1,,,,,,,,,0,,,55,110
9376,note_on,160,0,2,,,,,,,,,1,,,46,0
9406,note_on,46,0,1,,,,,,,,,0,,,55,0
9406,note_on,0,0,1,,,,,,,,,0,,,58,0
9408,note_on,32,0,2,,,,,,,,,1,,,43,110
9408,set_tempo,192,1,0,500000,,,,,,,,,,,,
9408,note_on,2,0,1,,,,,,,,,0,,,62,110
9456,note_on,48,0,1,,,,,,,,,0,,,59,110
9502,note_on,46,0,1,,,,,,,,,0,,,62,0
9504,note_on,2,0,1,,,,,,,,,0,,,65,110
9504,note_on,96,0,2,,,,,,,,,1,,,47,110
9550,note_on,46,0,1,,,,,,,,,0,,,59,0
9552,note_on,2,0,1,,,,,,,,,0,,,62,110
9598,note_on,46,0,1,,,,,,,,,0,,,62,0
9598,note_on,0,0,1,,,,,,,,,0,,,65,0
9598,note_on,94,0,2,,,,,,,,,1,,,43,0
9600,note_on,2,0,1,,,,,,,,,0,,,68,110
9600,note_on,2,0,2,,,,,,,,,1,,,50,110
9648,note_on,48,0,1,,,,,,,,,0,,,65,110
9694,note_on,46,0,1,,,,,,,,,0,,,68,0
9694,note_on,94,0,2,,,,,,,,,1,,,47,0
9696,note_on,2,0,2,,,,,,,,,1,,,53,110
9696,note_on,2,0,1,,,,,,,,,0,,,71,110
9742,note_on,46,0,1,,,,,,,,,0,,,65,0
9744,note_on,2,0,1,,,,,,,,,0,,,74,110
9790,note_on,46,0,1,,,,,,,,,0,,,71,0
9790,note_on,0,0,1,,,,,,,,,0,,,74,0
9790,note_on,94,0,2,,,,,,,,,1,,,50,0
9792,note_on,2,0,1,,,,,,,,,0,,,65,110
9792,note_on,2,0,2,,,,,,,,,1,,,56,110
9840,note_on,48,0,1,,,,,,,,,0,,,68,110
9886,note_on,0,0,1,,,,,,,,,0,,,68,0
9886,note_on,46,0,1,,,,,,,,,0,,,65,0
9886,note_on,94,0,2,,,,,,,,,1,,,53,0
9888,note_on,2,0,2,,,,,,,,,1,,,59,110
9888,note_on,2,0,1,,,,,,,,,0,,,67,110
9934,note_on,46,0,1,,,,,,,,,0,,,67,0
9936,note_on,2,0,1,,,,,,,,,0,,,65,110
9982,note_on,46,0,1,,,,,,,,,0,,,65,0
9982,note_on,0,0,2,,,,,,,,,1,,,59,0
9982,note_on,94,0,2,,,,,,,,,1,,,56,0
9984,set_tempo,576,1,0,512820,,,,,,,,,,,,
9984,note_on,2,0,2,,,,,,,,,1,,,60,110
9984,note_on,2,0,1,,,,,,,,,0,,,63,110
10032,note_on,48,0,1,,,,,,,,,0,,,60,110
10078,note_on,46,0,1,,,,,,,,,0,,,63,0
10078,note_on,94,0,2,,,,,,,,,1,,,60,0
10080,note_on,2,0,1,,,,,,,,,0,,,63,110
10126,note_on,46,0,1,,,,,,,,,0,,,60,0
10128,note_on,2,0,1,,,,,,,,,0,,,60,110
10174,note_on,46,0,1,,,,,,,,,0,,,63,0
10176,note_on,2,0,1,,,,,,,,,0,,,67,110
10176,set_tempo,192,1,0,500000,,,,,,,,,,,,
10176,note_on,98,0,2,,,,,,,,,1,,,48,110
10222,note_on,46,0,1,,,,,,,,,0,,,60,0
10224,note_on,2,0,1,,,,,,,,,0,,,64,110
10270,note_on,46,0,1,,,,,,,,,0,,,67,0
10272,note_on,2,0,1,,,,,,,,,0,,,70,110
10272,note_on,96,0,2,,,,,,,,,1,,,52,110
10318,note_on,46,0,1,,,,,,,,,0,,,64,0
10320,note_on,2,0,1,,,,,,,,,0,,,67,110
10366,note_on,94,0,2,,,,,,,,,1,,,48,0
10366,note_on,0,0,1,,,,,,,,,0,,,70,0
10366,note_on,46,0,1,,,,,,,,,0,,,67,0
10368,note_on,2,0,1,,,,,,,,,0,,,73,110
10368,note_on,2,0,2,,,,,,,,,1,,,55,110
10416,note_on,48,0,1,,,,,,,,,0,,,70,110
10462,note_on,46,0,1,,,,,,,,,0,,,73,0
10462,note_on,94,0,2,,,,,,,,,1,,,52,0
10464,note_on,2,0,1,,,,,,,,,0,,,76,110
10464,note_on,2,0,2,,,,,,,,,1,,,58,110
10510,note_on,46,0,1,,,,,,,,,0,,,70,0
10512,note_on,2,0,1,,,,,,,,,0,,,79,110
10558,note_on,94,0,2,,,,,,,,,1,,,55,0
10558,note_on,0,0,1,,,,,,,,,0,,,79,0
10558,note_on,46,0,1,,,,,,,,,0,,,76,0
10560,note_on,2,0,1,,,,,,,,,0,,,70,110
10560,note_on,2,0,2,,,,,,,,,1,,,61,110
10608,note_on,48,0,1,,,,,,,,,0,,,73,110
10654,note_on,0,0,1,,,,,,,,,0,,,73,0
10654,note_on,94,0,2,,,,,,,,,1,,,58,0
10654,note_on,46,0,1,,,,,,,,,0,,,70,0
10656,note_on,2,0,2,,,,,,,,,1,,,64,110
10656,note_on,2,0,1,,,,,,,,,0,,,72,110
10702,note_on,46,0,1,,,,,,,,,0,,,72,0
10704,note_on,2,0,1,,,,,,,,,0,,,70,110
10750,note_on,94,0,2,,,,,,,,,1,,,61,0
10750,note_on,0,0,2,,,,,,,,,1,,,64,0
10750,note_on,46,0,1,,,,,,,,,0,,,70,0
10752,note_on,2,0,2,,,,,,,,,1,,,53,110
10752,set_tempo,576,1,0,512820,,,,,,,,,,,,
10752,note_on,2,0,1,,,,,,,,,0,,,68,110
10800,note_on,48,0,1,,,,,,,,,0,,,65,110
10846,note_on,46,0,1,,,,,,,,,0,,,68,0
10848,note_on,2,0,1,,,,,,,,,0,,,68,110
10848,set_tempo,96,1,0,504201,,,,,,,,,,,,
10894,note_on,46,0,1,,,,,,,,,0,,,65,0
10896,note_on,2,0,1,,,,,,,,,0,,,65,110
10912,note_on,160,0,2,,,,,,,,,1,,,53,0
10942,note_on,46,0,1,,,,,,,,,0,,,68,0
10944,set_tempo,96,1,0,500000,,,,,,,,,,,,
10944,note_on,32,0,2,,,,,,,,,1,,,53,110
10944,note_on,2,0,1,,,,,,,,,0,,,72,110
10990,note_on,46,0,1,,,,,,,,,0,,,65,0
10992,note_on,2,0,1,,,,,,,,,0,,,68,110
11038,note_on,46,0,1,,,,,,,,,0,,,72,0
11040,note_on,2,0,1,,,,,,,,,0,,,77,110
11040,note_on,96,0,2,,,,,,,,,1,,,56,110
11086,note_on,46,0,1,,,,,,,,,0,,,68,0
11088,note_on,2,0,1,,,,,,,,,0,,,72,110
11134,note_on,46,0,1,,,,,,,,,0,,,72,0
11134,note_on,0,0,1,,,,,,,,,0,,,77,0
11136,note_on,96,0,2,,,,,,,,,1,,,60,110
11136,note_on,2,0,1,,,,,,,,,0,,,80,110
11182,note_on,46,0,1,,,,,,,,,0,,,80,0
11184,note_on,2,0,1,,,,,,,,,0,,,79,110
11230,note_on,46,0,1,,,,,,,,,0,,,79,0
11232,note_on,2,0,1,,,,,,,,,0,,,77,110
11278,note_on,46,0,1,,,,,,,,,0,,,77,0
11280,note_on,2,0,1,,,,,,,,,0,,,75,110
11296,note_on,0,0,2,,,,,,,,,1,,,60,0
11296,note_on,160,0,2,,,,,,,,,1,,,53,0
11296,note_on,0,0,2,,,,,,,,,1,,,56,0
11326,note_on,46,0,1,,,,,,,,,0,,,75,0
11328,note_on,2,0,1,,,,,,,,,0,,,74,110
11328,note_on,32,0,2,,,,,,,,,1,,,55,110
11350,note_on,22,0,2,,,,,,,,,1,,,55,0
11352,note_on,2,0,2,,,,,,,,,1,,,53,110
11374,note_on,22,0,2,,,,,,,,,1,,,53,0
11374,note_on,46,0,1,,,,,,,,,0,,,74,0
11376,note_on,2,0,2,,,,,,,,,1,,,55,110
11376,note_on,2,0,1,,,,,,,,,0,,,72,110
11398,note_on,22,0,2,,,,,,,,,1,,,55,0
11400,note_on,2,0,2,,,,,,,,,1,,,53,110
11422,note_on,46,0,1,,,,,,,,,0,,,72,0
11424,note_on,2,0,1,,,,,,,,,0,,,71,110
11470,note_on,46,0,1,,,,,,,,,0,,,71,0
11472,note_on,2,0,1,,,,,,,,,0,,,69,110
11518,note_on,46,0,1,,,,,,,,,0,,,69,0
11518,note_on,118,0,2,,,,,,,,,1,,,53,0
11520,note_on,2,0,2,,,,,,,,,1,,,55,110
11520,set_tempo,576,1,0,512820,,,,,,,,,,,,
11520,note_on,2,0,1,,,,,,,,,0,,,71,110
11568,note_on,48,0,1,,,,,,,,,0,,,67,110
11614,note_on,46,0,1,,,,,,,,,0,,,71,0
11616,set_tempo,96,1,0,508474,,,,,,,,,,,,
11616,note_on,2,0,1,,,,,,,,,0,,,71,110
11662,note_on,46,0,1,,,,,,,,,0,,,67,0
11664,note_on,2,0,1,,,,,,,,,0,,,67,110
11680,note_on,160,0,2,,,,,,,,,1,,,55,0
11710,note_on,46,0,1,,,,,,,,,0,,,71,0
11712,set_tempo,96,1,0,500000,,,,,,,,,,,,
11712,note_on,2,0,1,,,,,,,,,0,,,74,110
11758,note_on,46,0,1,,,,,,,,,0,,,67,0
11760,note_on,2,0,1,,,,,,,,,0,,,71,110
11806,note_on,46,0,1,,,,,,,,,0,,,74,0
11808,note_on,2,0,1,,,,,,,,,0,,,77,110
11854,note_on,46,0,1,,,,,,,,,0,,,71,0
11856,note_on,2,0,1,,,,,,,,,0,,,74,110
11902,note_on,0,0,1,,,,,,,,,0,,,77,0
11902,note_on,46,0,1,,,,,,,,,0,,,74,0
11904,note_on,2,0,1,,,,,,,,,0,,,80,110
11952,note_on,48,0,1,,,,,,,,,0,,,74,110
11998,note_on,46,0,1,,,,,,,,,0,,,80,0
12000,note_on,2,0,1,,,,,,,,,0,,,77,110
12046,note_on,46,0,1,,,,,,,,,0,,,74,0
12048,note_on,2,0,1,,,,,,,,,0,,,68,110
12094,note_on,0,0,1,,,,,,,,,0,,,77,0
12094,note_on,46,0,1,,,,,,,,,0,,,68,0
12096,note_on,2,0,1,,,,,,,,,0,,,71,110
12144,note_on,48,0,1,,,,,,,,,0,,,65,110
12190,note_on,46,0,1,,,,,,,,,0,,,65,0
12190,note_on,0,0,1,,,,,,,,,0,,,71,0
12192,note_on,2,0,1,,,,,,,,,0,,,67,110
12240,note_on,48,0,1,,,,,,,,,0,,,62,110
12286,note_on,46,0,1,,,,,,,,,0,,,62,0
12286,note_on,0,0,1,,,,,,,,,0,,,67,0
12288,set_tempo,576,1,0,517241,,,,,,,,,,,,
12288,note_on,2,0,1,,,,,,,,,0,,,63,110
12288,note_on,608,0,2,,,,,,,,,1,,,48,110
12336,note_on,48,0,1,,,,,,,,,0,,,60,110
12382,note_on,46,0,1,,,,,,,,,0,,,63,0
12384,note_on,2,0,1,,,,,,,,,0,,,67,110
12384,note_on,96,0,2,,,,,,,,,1,,,51,110
12384,set_tempo,96,1,0,508474,,,,,,,,,,,,
12430,note_on,46,0,1,,,,,,,,,0,,,60,0
12432,note_on,2,0,1,,,,,,,,,0,,,63,110
12478,note_on,94,0,2,,,,,,,,,1,,,48,0
12478,note_on,46,0,1,,,,,,,,,0,,,67,0
12480,note_on,2,0,1,,,,,,,,,0,,,72,110
12480,note_on,2,0,2,,,,,,,,,1,,,55,110
12480,set_tempo,96,1,0,500000,,,,,,,,,,,,
12526,note_on,46,0,1,,,,,,,,,0,,,63,0
12528,note_on,2,0,1,,,,,,,,,0,,,67,110
12574,note_on,46,0,1,,,,,,,,,0,,,72,0
12574,note_on,94,0,2,,,,,,,,,1,,,51,0
12576,note_on,2,0,1,,,,,,,,,0,,,75,110
12576,note_on,2,0,2,,,,,,,,,1,,,60,110
12622,note_on,46,0,1,,,,,,,,,0,,,67,0
12624,note_on,2,0,1,,,,,,,,,0,,,72,110
12670,note_on,94,0,2,,,,,,,,,1,,,55,0
12670,note_on,46,0,1,,,,,,,,,0,,,72,0
12670,note_on,0,0,1,,,,,,,,,0,,,75,0
12672,note_on,2,0,1,,,,,,,,,0,,,79,110
12718,note_on,48,0,2,,,,,,,,,1,,,60,0
12720,note_on,2,0,2,,,,,,,,,1,,,58,110
12766,note_on,46,0,2,,,,,,,,,1,,,58,0
12768,note_on,2,0,2,,,,,,,,,1,,,56,110
12814,note_on,46,0,2,,,,,,,,,1,,,56,0
12816,note_on,2,0,2,,,,,,,,,1,,,55,110
12862,note_on,46,0,2,,,,,,,,,1,,,55,0
12864,note_on,2,0,2,,,,,,,,,1,,,53,110
12910,note_on,46,0,2,,,,,,,,,1,,,53,0
12912,note_on,2,0,2,,,,,,,,,1,,,51,110
12958,note_on,46,0,2,,,,,,,,,1,,,51,0
12960,note_on,2,0,2,,,,,,,,,1,,,50,110
13006,note_on,46,0,2,,,,,,,,,1,,,50,0
13008,note_on,336,0,1,,,,,,,,,0,,,79,0
13008,note_on,2,0,2,,,,,,,,,1,,,48,110
13054,note_on,46,0,2,,,,,,,,,1,,,48,0
13056,note_on,48,0,1,,,,,,,,,0,,,62,110
13056,set_tempo,576,1,0,512820,,,,,,,,,,,,
13056,note_on,2,0,2,,,,,,,,,1,,,47,110
13104,note_on,48,0,1,,,,,,,,,0,,,59,110
13150,note_on,46,0,1,,,,,,,,,0,,,62,0
13152,note_on,96,0,2,,,,,,,,,1,,,50,110
13152,note_on,2,0,1,,,,,,,,,0,,,65,110
13152,set_tempo,96,1,0,504201,,,,,,,,,,,,
13198,note_on,46,0,1,,,,,,,,,0,,,59,0
13200,note_on,2,0,1,,,,,,,,,0,,,62,110
13246,note_on,46,0,1,,,,,,,,,0,,,62,0
13246,note_on,94,0,2,,,,,,,,,1,,,47,0
13248,note_on,2,0,2,,,,,,,,,1,,,53,110
13248,set_tempo,96,1,0,500000,,,,,,,,,,,,
13248,note_on,2,0,1,,,,,,,,,0,,,68,110
13294,note_on,46,0,1,,,,,,,,,0,,,65,0
13296,note_on,2,0,1,,,,,,,,,0,,,65,110
13342,note_on,46,0,1,,,,,,,,,0,,,68,0
13342,note_on,94,0,2,,,,,,,,,1,,,50,0
13344,note_on,2,0,1,,,,,,,,,0,,,71,110
13344,note_on,2,0,2,,,,,,,,,1,,,56,110
13390,note_on,46,0,1,,,,,,,,,0,,,65,0
13392,note_on,2,0,1,,,,,,,,,0,,,65,110
13438,note_on,94,0,2,,,,,,,,,1,,,53,0
13438,note_on,46,0,1,,,,,,,,,0,,,71,0
13440,note_on,2,0,1,,,,,,,,,0,,,77,110
13486,note_on,48,0,2,,,,,,,,,1,,,56,0
13488,note_on,2,0,2,,,,,,,,,1,,,53,110
13536,note_on,48,0,2,,,,,,,,,1,,,59,110
13582,note_on,46,0,2,,,,,,,,,1,,,53,0
13584,note_on,2,0,2,,,,,,,,,1,,,62,110
13630,note_on,46,0,2,,,,,,,,,1,,,59,0
13630,note_on,0,0,2,,,,,,,,,1,,,62,0
13632,note_on,2,0,2,,,,,,,,,1,,,53,110
13680,note_on,48,0,2,,,,,,,,,1,,,56,110
13726,note_on,46,0,2,,,,,,,,,1,,,53,0
13726,note_on,0,0,2,,,,,,,,,1,,,56,0
13728,note_on,2,0,2,,,,,,,,,1,,,55,110
13774,note_on,46,0,2,,,,,,,,,1,,,55,0
13776,note_on,2,0,2,,,,,,,,,1,,,53,110
13776,note_on,0,0,1,,,,,,,,,0,,,77,0
13776,note_on,336,0,1,,,,,,,,,0,,,65,0
13822,note_on,46,0,2,,,,,,,,,1,,,53,0
13824,note_on,48,0,1,,,,,,,,,0,,,67,110
13824,set_tempo,576,1,0,508474,,,,,,,,,,,,
13824,note_on,2,0,2,,,,,,,,,1,,,52,110
13872,note_on,48,0,1,,,,,,,,,0,,,64,110
13918,note_on,46,0,1,,,,,,,,,0,,,67,0
13920,note_on,2,0,1,,,,,,,,,0,,,70,110
13920,note_on,96,0,2,,,,,,,,,1,,,55,110
13966,note_on,46,0,1,,,,,,,,,0,,,64,0
13968,note_on,2,0,1,,,,,,,,,0,,,67,110
14014,note_on,46,0,1,,,,,,,,,0,,,70,0
14014,note_on,94,0,2,,,,,,,,,1,,,52,0
14016,note_on,2,0,2,,,,,,,,,1,,,58,110
14016,set_tempo,192,1,0,500000,,,,,,,,,,,,
14016,note_on,2,0,1,,,,,,,,,0,,,73,110
14062,note_on,46,0,1,,,,,,,,,0,,,67,0
14064,note_on,2,0,1,,,,,,,,,0,,,70,110
14110,note_on,46,0,1,,,,,,,,,0,,,73,0
14110,note_on,94,0,2,,,,,,,,,1,,,55,0
14112,note_on,2,0,1,,,,,,,,,0,,,79,110
14112,note_on,2,0,2,,,,,,,,,1,,,61,110
14158,note_on,46,0,1,,,,,,,,,0,,,70,0
14160,note_on,2,0,1,,,,,,,,,0,,,76,110
14206,note_on,46,0,1,,,,,,,,,0,,,79,0
14206,note_on,94,0,2,,,,,,,,,1,,,58,0
14208,note_on,2,0,1,,,,,,,,,0,,,82,110
14254,note_on,48,0,2,,,,,,,,,1,,,61,0
14256,note_on,2,0,2,,,,,,,,,1,,,58,110
14304,note_on,48,0,2,,,,,,,,,1,,,64,110
14350,note_on,46,0,2,,,,,,,,,1,,,64,0
14352,note_on,2,0,2,,,,,,,,,1,,,65,110
14398,note_on,0,0,2,,,,,,,,,1,,,65,0
14398,note_on,46,0,2,,,,,,,,,1,,,58,0
14400,note_on,2,0,2,,,,,,,,,1,,,58,110
14448,note_on,48,0,2,,,,,,,,,1,,,61,110
14494,note_on,0,0,2,,,,,,,,,1,,,61,0
14494,note_on,46,0,2,,,,,,,,,1,,,58,0
14496,note_on,2,0,2,,,,,,,,,1,,,60,110
14542,note_on,46,0,2,,,,,,,,,1,,,60,0
14544,note_on,2,0,2,,,,,,,,,1,,,58,110
14544,note_on,336,0,1,,,,,,,,,0,,,76,0
14544,note_on,0,0,1,,,,,,,,,0,,,82,0
14590,note_on,46,0,2,,,,,,,,,1,,,58,0
14592,set_tempo,576,1,0,508474,,,,,,,,,,,,
14592,note_on,2,0,2,,,,,,,,,1,,,56,110
14640,note_on,96,0,1,,,,,,,,,0,,,72,110
14688,note_on,48,0,1,,,,,,,,,0,,,80,110
14734,note_on,46,0,1,,,,,,,,,0,,,80,0
14736,set_tempo,144,1,0,500000,,,,,,,,,,,,
14736,note_on,2,0,1,,,,,,,,,0,,,79,110
14782,note_on,46,0,1,,,,,,,,,0,,,72,0
14782,note_on,0,0,1,,,,,,,,,0,,,79,0
14784,note_on,2,0,1,,,,,,,,,0,,,77,110
14830,note_on,46,0,1,,,,,,,,,0,,,77,0
14832,note_on,2,0,1,,,,,,,,,0,,,75,110
14878,note_on,46,0,1,,,,,,,,,0,,,75,0
14880,note_on,288,0,2,,,,,,,,,1,,,53,110
14880,note_on,2,0,1,,,,,,,,,0,,,74,110
14926,note_on,46,0,1,,,,,,,,,0,,,74,0
14928,note_on,2,0,1,,,,,,,,,0,,,72,110
14974,note_on,46,0,1,,,,,,,,,0,,,72,0
14974,note_on,94,0,2,,,,,,,,,1,,,53,0
14974,note_on,0,0,2,,,,,,,,,1,,,56,0
14976,note_on,2,0,2,,,,,,,,,1,,,55,110
14976,note_on,2,0,1,,,,,,,,,0,,,71,110
15022,note_on,46,0,1,,,,,,,,,0,,,71,0
15024,note_on,2,0,1,,,,,,,,,0,,,72,110
15070,note_on,46,0,1,,,,,,,,,0,,,72,0
15072,note_on,2,0,1,,,,,,,,,0,,,71,110
15118,note_on,46,0,1,,,,,,,,,0,,,71,0
15120,note_on,2,0,1,,,,,,,,,0,,,69,110
15136,note_on,160,0,2,,,,,,,,,1,,,55,0
15166,note_on,46,0,1,,,,,,,,,0,,,69,0
15168,note_on,2,0,1,,,,,,,,,0,,,67,110
15214,note_on,46,0,1,,,,,,,,,0,,,67,0
15216,note_on,2,0,1,,,,,,,,,0,,,65,110
15262,note_on,46,0,1,,,,,,,,,0,,,65,0
15264,note_on,2,0,1,,,,,,,,,0,,,63,110
15310,note_on,46,0,1,,,,,,,,,0,,,63,0
15312,note_on,2,0,1,,,,,,,,,0,,,62,110
15358,note_on,46,0,1,,,,,,,,,0,,,62,0
15360,note_on,224,0,2,,,,,,,,,1,,,48,110
15360,note_on,2,0,1,,,,,,,,,0,,,63,110
15360,set_tempo,624,1,0,508474,,,,,,,,,,,,
15408,note_on,48,0,1,,,,,,,,,0,,,60,110
15454,note_on,46,0,1,,,,,,,,,0,,,63,0
15456,note_on,96,0,2,,,,,,,,,1,,,51,110
15456,note_on,2,0,1,,,,,,,,,0,,,67,110
15502,note_on,46,0,1,,,,,,,,,0,,,60,0
15504,note_on,2,0,1,,,,,,,,,0,,,63,110
15550,note_on,46,0,1,,,,,,,,,0,,,63,0
15550,note_on,0,0,1,,,,,,,,,0,,,67,0
15552,set_tempo,192,1,0,500000,,,,,,,,,,,,
15552,note_on,96,0,2,,,,,,,,,1,,,55,110
15552,note_on,2,0,1,,,,,,,,,0,,,72,110
15600,note_on,48,0,1,,,,,,,,,0,,,67,110
15646,note_on,46,0,1,,,,,,,,,0,,,72,0
15648,note_on,96,0,2,,,,,,,,,1,,,60,110
15648,note_on,2,0,1,,,,,,,,,0,,,75,110
15694,note_on,46,0,1,,,,,,,,,0,,,67,0
15696,note_on,2,0,1,,,,,,,,,0,,,72,110
15742,note_on,0,0,2,,,,,,,,,1,,,51,0
15742,note_on,0,0,2,,,,,,,,,1,,,60,0
15742,note_on,94,0,2,,,,,,,,,1,,,48,0
15742,note_on,46,0,1,,,,,,,,,0,,,72,0
15742,note_on,0,0,1,,,,,,,,,0,,,75,0
15742,note_on,0,0,2,,,,,,,,,1,,,55,0
15744,note_on,2,0,2,,,,,,,,,1,,,53,110
15744,note_on,2,0,1,,,,,,,,,0,,,69,110
15792,note_on,48,0,1,,,,,,,,,0,,,65,110
15838,note_on,46,0,1,,,,,,,,,0,,,69,0
15840,note_on,96,0,2,,,,,,,,,1,,,57,110
15840,note_on,2,0,1,,,,,,,,,0,,,72,110
15886,note_on,46,0,1,,,,,,,,,0,,,65,0
15888,note_on,2,0,1,,,,,,,,,0,,,69,110
15934,note_on,46,0,1,,,,,,,,,0,,,72,0
15936,note_on,96,0,2,,,,,,,,,1,,,60,110
15936,note_on,2,0,1,,,,,,,,,0,,,77,110
15982,note_on,46,0,1,,,,,,,,,0,,,69,0
15984,note_on,2,0,1,,,,,,,,,0,,,72,110
16030,note_on,46,0,1,,,,,,,,,0,,,77,0
16032,note_on,2,0,1,,,,,,,,,0,,,81,110
16032,note_on,96,0,2,,,,,,,,,1,,,65,110
16078,note_on,46,0,1,,,,,,,,,0,,,72,0
16080,note_on,2,0,1,,,,,,,,,0,,,77,110
16126,note_on,46,0,1,,,,,,,,,0,,,77,0
16126,note_on,0,0,2,,,,,,,,,1,,,65,0
16126,note_on,0,0,2,,,,,,,,,1,,,60,0
16126,note_on,0,0,2,,,,,,,,,1,,,57,0
16126,note_on,94,0,2,,,,,,,,,1,,,53,0
16126,note_on,0,0,1,,,,,,,,,0,,,81,0
16128,note_on,2,0,2,,,,,,,,,1,,,46,110
16128,set_tempo,576,1,0,517241,,,,,,,,,,,,
16128,note_on,2,0,1,,,,,,,,,0,,,62,110
16176,note_on,48,0,1,,,,,,,,,0,,,58,110
16222,note_on,46,0,1,,,,,,,,,0,,,62,0
16224,note_on,96,0,2,,,,,,,,,1,,,50,110
16224,note_on,2,0,1,,,,,,,,,0,,,65,110
16270,note_on,46,0,1,,,,,,,,,0,,,58,0
16272,note_on,2,0,1,,,,,,,,,0,,,62,110
16318,note_on,46,0,1,,,,,,,,,0,,,62,0
16318,note_on,0,0,1,,,,,,,,,0,,,65,0
16320,note_on,96,0,2,,,,,,,,,1,,,53,110
16320,set_tempo,192,1,0,500000,,,,,,,,,,,,
16320,note_on,2,0,1,,,,,,,,,0,,,70,110
16368,note_on,48,0,1,,,,,,,,,0,,,65,110
16414,note_on,46,0,1,,,,,,,,,0,,,70,0
16416,note_on,96,0,2,,,,,,,,,1,,,58,110
16416,note_on,2,0,1,,,,,,,,,0,,,74,110
16462,note_on,46,0,1,,,,,,,,,0,,,65,0
16464,note_on,2,0,1,,,,,,,,,0,,,70,110
16510,note_on,46,0,1,,,,,,,,,0,,,70,0
16510,note_on,0,0,1,,,,,,,,,0,,,74,0
16510,note_on,94,0,2,,,,,,,,,1,,,46,0
16510,note_on,0,0,2,,,,,,,,,1,,,58,0
16510,note_on,0,0,2,,,,,,,,,1,,,53,0
16510,note_on,0,0,2,,,,,,,,,1,,,50,0
16512,set_tempo,192,1,0,508474,,,,,,,,,,,,
16512,note_on,2,0,1,,,,,,,,,0,,,67,110
16512,note_on,2,0,2,,,,,,,,,1,,,51,110
16560,note_on,48,0,1,,,,,,,,,0,,,63,110
16606,note_on,46,0,1,,,,,,,,,0,,,67,0
16608,note_on,2,0,1,,,,,,,,,0,,,70,110
16608,note_on,96,0,2,,,,,,,,,1,,,55,110
16654,note_on,46,0,1,,,,,,,,,0,,,63,0
16656,note_on,2,0,1,,,,,,,,,0,,,67,110
16702,note_on,0,0,1,,,,,,,,,0,,,70,0
16702,note_on,46,0,1,,,,,,,,,0,,,67,0
16704,note_on,2,0,1,,,,,,,,,0,,,75,110
16704,set_tempo,192,1,0,500000,,,,,,,,,,,,
16704,note_on,96,0,2,,,,,,,,,1,,,58,110
16752,note_on,48,0,1,,,,,,,,,0,,,70,110
16798,note_on,46,0,1,,,,,,,,,0,,,75,0
16800,note_on,2,0,1,,,,,,,,,0,,,79,110
16800,note_on,96,0,2,,,,,,,,,1,,,63,110
16846,note_on,46,0,1,,,,,,,,,0,,,70,0
16848,note_on,2,0,1,,,,,,,,,0,,,75,110
16870,note_on,22,0,1,,,,,,,,,0,,,79,0
16882,note_on,12,0,1,,,,,,,,,0,,,75,0
16894,note_on,0,0,2,,,,,,,,,1,,,58,0
16894,note_on,94,0,2,,,,,,,,,1,,,51,0
16894,note_on,0,0,2,,,,,,,,,1,,,63,0
16894,note_on,0,0,2,,,,,,,,,1,,,55,0
16896,set_tempo,192,1,0,512820,,,,,,,,,,,,
16896,note_on,14,0,1,,,,,,,,,0,,,60,110
16896,note_on,2,0,2,,,,,,,,,1,,,45,110
16944,note_on,48,0,1,,,,,,,,,0,,,57,110
16990,note_on,46,0,1,,,,,,,,,0,,,60,0
16992,note_on,2,0,1,,,,,,,,,0,,,63,110
16992,note_on,96,0,2,,,,,,,,,1,,,48,110
17038,note_on,46,0,1,,,,,,,,,0,,,57,0
17040,note_on,2,0,1,,,,,,,,,0,,,60,110
17086,note_on,0,0,1,,,,,,,,,0,,,63,0
17086,note_on,46,0,1,,,,,,,,,0,,,60,0
17088,set_tempo,192,1,0,500000,,,,,,,,,,,,
17088,note_on,2,0,1,,,,,,,,,0,,,69,110
17088,note_on,96,0,2,,,,,,,,,1,,,51,110
17136,note_on,48,0,1,,,,,,,,,0,,,63,110
17182,note_on,46,0,1,,,,,,,,,0,,,69,0
17184,note_on,96,0,2,,,,,,,,,1,,,57,110
17184,note_on,2,0,1,,,,,,,,,0,,,72,110
17230,note_on,46,0,1,,,,,,,,,0,,,63,0
17232,note_on,2,0,1,,,,,,,,,0,,,69,110
17278,note_on,0,0,1,,,,,,,,,0,,,72,0
17278,note_on,46,0,1,,,,,,,,,0,,,69,0
17278,note_on,0,0,2,,,,,,,,,1,,,57,0
17278,note_on,0,0,2,,,,,,,,,1,,,51,0
17278,note_on,0,0,2,,,,,,,,,1,,,48,0
17278,note_on,94,0,2,,,,,,,,,1,,,45,0
17280,set_tempo,192,1,0,504201,,,,,,,,,,,,
17280,note_on,2,0,1,,,,,,,,,0,,,66,110
17280,note_on,2,0,2,,,,,,,,,1,,,50,110
17328,note_on,48,0,1,,,,,,,,,0,,,62,110
17374,note_on,46,0,1,,,,,,,,,0,,,66,0
17376,note_on,2,0,1,,,,,,,,,0,,,69,110
17422,note_on,46,0,1,,,,,,,,,0,,,62,0
17424,note_on,2,0,1,,,,,,,,,0,,,66,110
17440,note_on,160,0,2,,,,,,,,,1,,,50,0
17470,note_on,0,0,1,,,,,,,,,0,,,69,0
17470,note_on,46,0,1,,,,,,,,,0,,,66,0
17472,note_on,2,0,1,,,,,,,,,0,,,74,110
17472,set_tempo,192,1,0,500000,,,,,,,,,,,,
17518,note_on,46,0,1,,,,,,,,,0,,,74,0
17520,note_on,2,0,1,,,,,,,,,0,,,72,110
17566,note_on,46,0,1,,,,,,,,,0,,,72,0
17568,note_on,2,0,1,,,,,,,,,0,,,70,110
17614,note_on,46,0,1,,,,,,,,,0,,,70,0
17616,note_on,2,0,1,,,,,,,,,0,,,69,110
17662,note_on,46,0,1,,,,,,,,,0,,,69,0
17664,note_on,2,0,1,,,,,,,,,0,,,70,110
17664,note_on,224,0,2,,,,,,,,,1,,,43,110
17664,set_tempo,192,1,0,517241,,,,,,,,,,,,
17712,note_on,48,0,1,,,,,,,,,0,,,67,110
17758,note_on,46,0,1,,,,,,,,,0,,,70,0
17760,note_on,2,0,1,,,,,,,,,0,,,74,110
17760,note_on,96,0,2,,,,,,,,,1,,,46,110
17806,note_on,46,0,1,,,,,,,,,0,,,67,0
17808,note_on,2,0,1,,,,,,,,,0,,,70,110
17854,note_on,46,0,1,,,,,,,,,0,,,74,0
17856,set_tempo,192,1,0,500000,,,,,,,,,,,,
17856,note_on,2,0,1,,,,,,,,,0,,,79,110
17856,note_on,96,0,2,,,,,,,,,1,,,50,110
17902,note_on,46,0,1,,,,,,,,,0,,,70,0
17904,note_on,2,0,1,,,,,,,,,0,,,74,110
17950,note_on,46,0,1,,,,,,,,,0,,,79,0
17952,note_on,96,0,2,,,,,,,,,1,,,55,110
17952,note_on,2,0,1,,,,,,,,,0,,,82,110
17998,note_on,46,0,1,,,,,,,,,0,,,74,0
18000,note_on,2,0,1,,,,,,,,,0,,,79,110
18046,note_on,0,0,2,,,,,,,,,1,,,46,0
18046,note_on,94,0,2,,,,,,,,,1,,,43,0
18046,note_on,46,0,1,,,,,,,,,0,,,82,0
18046,note_on,0,0,2,,,,,,,,,1,,,50,0
18048,set_tempo,192,1,0,508474,,,,,,,,,,,,
18048,note_on,2,0,1,,,,,,,,,0,,,86,110
18094,note_on,48,0,2,,,,,,,,,1,,,55,0
18096,note_on,2,0,2,,,,,,,,,1,,,53,110
18142,note_on,46,0,2,,,,,,,,,1,,,53,0
18144,note_on,2,0,2,,,,,,,,,1,,,51,110
18190,note_on,46,0,2,,,,,,,,,1,,,51,0
18192,note_on,2,0,2,,,,,,,,,1,,,50,110
18238,note_on,46,0,2,,,,,,,,,1,,,50,0
18240,note_on,2,0,2,,,,,,,,,1,,,48,110
18240,set_tempo,192,1,0,500000,,,,,,,,,,,,
18286,note_on,46,0,2,,,,,,,,,1,,,48,0
18288,note_on,2,0,2,,,,,,,,,1,,,46,110
18334,note_on,46,0,2,,,,,,,,,1,,,46,0
18336,note_on,2,0,2,,,,,,,,,1,,,45,110
18382,note_on,46,0,2,,,,,,,,,1,,,45,0
18384,note_on,2,0,2,,,,,,,,,1,,,43,110
18384,note_on,336,0,1,,,,,,,,,0,,,79,0
18384,note_on,0,0,1,,,,,,,,,0,,,86,0
18430,note_on,46,0,2,,,,,,,,,1,,,43,0
18432,note_on,2,0,2,,,,,,,,,1,,,42,110
18432,set_tempo,192,1,0,517241,,,,,,,,,,,,
18432,note_on,48,0,1,,,,,,,,,0,,,57,110
18480,note_on,48,0,1,,,,,,,,,0,,,54,110
18526,note_on,46,0,1,,,,,,,,,0,,,57,0
18528,note_on,96,0,2,,,,,,,,,1,,,45,110
18528,note_on,2,0,1,,,,,,,,,0,,,60,110
18574,note_on,46,0,1,,,,,,,,,0,,,54,0
18576,note_on,2,0,1,,,,,,,,,0,,,57,110
18622,note_on,46,0,1,,,,,,,,,0,,,57,0
18622,note_on,0,0,1,,,,,,,,,0,,,60,0
18624,set_tempo,192,1,0,500000,,,,,,,,,,,,
18624,note_on,96,0,2,,,,,,,,,1,,,48,110
18624,note_on,2,0,1,,,,,,,,,0,,,63,110
18672,note_on,48,0,1,,,,,,,,,0,,,60,110
18718,note_on,46,0,1,,,,,,,,,0,,,63,0
18720,note_on,2,0,1,,,,,,,,,0,,,69,110
18720,note_on,96,0,2,,,,,,,,,1,,,51,110
18766,note_on,46,0,1,,,,,,,,,0,,,60,0
18768,note_on,2,0,1,,,,,,,,,0,,,66,110
18814,note_on,94,0,2,,,,,,,,,1,,,42,0
18814,note_on,46,0,1,,,,,,,,,0,,,69,0
18814,note_on,0,0,2,,,,,,,,,1,,,45,0
18814,note_on,0,0,2,,,,,,,,,1,,,48,0
18816,note_on,2,0,1,,,,,,,,,0,,,72,110
18816,set_tempo,192,1,0,508474,,,,,,,,,,,,
18864,note_on,50,0,2,,,,,,,,,1,,,48,110
18910,note_on,46,0,2,,,,,,,,,1,,,51,0
18912,note_on,2,0,2,,,,,,,,,1,,,54,110
18960,note_on,48,0,2,,,,,,,,,1,,,57,110
19006,note_on,0,0,2,,,,,,,,,1,,,54,0
19006,note_on,46,0,2,,,,,,,,,1,,,48,0
19006,note_on,0,0,2,,,,,,,,,1,,,57,0
19008,set_tempo,192,1,0,500000,,,,,,,,,,,,
19008,note_on,2,0,2,,,,,,,,,1,,,48,110
19056,note_on,48,0,2,,,,,,,,,1,,,51,110
19102,note_on,0,0,2,,,,,,,,,1,,,51,0
19102,note_on,46,0,2,,,,,,,,,1,,,48,0
19104,note_on,2,0,2,,,,,,,,,1,,,50,110
19150,note_on,46,0,2,,,,,,,,,1,,,50,0
19152,note_on,336,0,1,,,,,,,,,0,,,66,0
19152,note_on,2,0,2,,,,,,,,,1,,,48,110
19152,note_on,0,0,1,,,,,,,,,0,,,72,0
19198,note_on,46,0,2,,,,,,,,,1,,,48,0
19200,note_on,48,0,1,,,,,,,,,0,,,62,110
19200,set_tempo,192,1,0,517241,,,,,,,,,,,,
19200,note_on,2,0,2,,,,,,,,,1,,,47,110
19248,note_on,48,0,1,,,,,,,,,0,,,59,110
19294,note_on,46,0,1,,,,,,,,,0,,,62,0
19296,note_on,96,0,2,,,,,,,,,1,,,50,110
19296,note_on,2,0,1,,,,,,,,,0,,,65,110
19342,note_on,46,0,1,,,,,,,,,0,,,59,0
19344,note_on,2,0,1,,,,,,,,,0,,,62,110
19390,note_on,46,0,1,,,,,,,,,0,,,65,0
19392,set_tempo,192,1,0,500000,,,,,,,,,,,,
19392,note_on,96,0,2,,,,,,,,,1,,,53,110
19392,note_on,2,0,1,,,,,,,,,0,,,68,110
19438,note_on,46,0,1,,,,,,,,,0,,,62,0
19440,note_on,2,0,1,,,,,,,,,0,,,65,110
19486,note_on,46,0,1,,,,,,,,,0,,,68,0
19488,note_on,96,0,2,,,,,,,,,1,,,56,110
19488,note_on,2,0,1,,,,,,,,,0,,,71,110
19534,note_on,46,0,1,,,,,,,,,0,,,65,0
19536,note_on,2,0,1,,,,,,,,,0,,,65,110
19582,note_on,46,0,1,,,,,,,,,0,,,71,0
19582,note_on,0,0,2,,,,,,,,,1,,,53,0
19582,note_on,94,0,2,,,,,,,,,1,,,47,0
19582,note_on,0,0,2,,,,,,,,,1,,,50,0
19584,set_tempo,192,1,0,508474,,,,,,,,,,,,
19584,note_on,2,0,1,,,,,,,,,0,,,77,110
19632,note_on,50,0,2,,,,,,,,,1,,,53,110
19678,note_on,46,0,2,,,,,,,,,1,,,56,0
19680,note_on,2,0,2,,,,,,,,,1,,,59,110
19728,note_on,48,0,2,,,,,,,,,1,,,62,110
19774,note_on,46,0,2,,,,,,,,,1,,,53,0
19774,note_on,0,0,2,,,,,,,,,1,,,59,0
19774,note_on,0,0,2,,,,,,,,,1,,,62,0
19776,set_tempo,192,1,0,500000,,,,,,,,,,,,
19776,note_on,2,0,2,,,,,,,,,1,,,53,110
19824,note_on,48,0,2,,,,,,,,,1,,,56,110
19870,note_on,46,0,2,,,,,,,,,1,,,53,0
19870,note_on,0,0,2,,,,,,,,,1,,,56,0
19872,note_on,2,0,2,,,,,,,,,1,,,55,110
19918,note_on,46,0,2,,,,,,,,,1,,,55,0
19920,note_on,336,0,1,,,,,,,,,0,,,65,0
19920,note_on,0,0,1,,,,,,,,,0,,,77,0
19920,note_on,2,0,2,,,,,,,,,1,,,53,110
19966,note_on,46,0,2,,,,,,,,,1,,,53,0
19968,set_tempo,192,1,0,517241,,,,,,,,,,,,
19968,note_on,2,0,2,,,,,,,,,1,,,51,110
20016,note_on,96,0,1,,,,,,,,,0,,,63,110
20064,note_on,48,0,1,,,,,,,,,0,,,67,110
20110,note_on,46,0,1,,,,,,,,,0,,,63,0
20112,note_on,2,0,1,,,,,,,,,0,,,63,110
20128,note_on,160,0,2,,,,,,,,,1,,,51,0
20158,note_on,46,0,1,,,,,,,,,0,,,67,0
20160,note_on,2,0,1,,,,,,,,,0,,,72,110
20160,set_tempo,192,1,0,500000,,,,,,,,,,,,
20206,note_on,46,0,1,,,,,,,,,0,,,63,0
20208,note_on,2,0,1,,,,,,,,,0,,,67,110
20254,note_on,46,0,1,,,,,,,,,0,,,72,0
20256,note_on,2,0,1,,,,,,,,,0,,,75,110
20302,note_on,46,0,1,,,,,,,,,0,,,67,0
20304,note_on,2,0,1,,,,,,,,,0,,,72,110
20350,note_on,46,0,1,,,,,,,,,0,,,75,0
20352,note_on,224,0,2,,,,,,,,,1,,,48,110
20352,set_tempo,192,1,0,508474,,,,,,,,,,,,
20352,note_on,2,0,1,,,,,,,,,0,,,79,110
20398,note_on,46,0,1,,,,,,,,,0,,,72,0
20400,note_on,2,0,1,,,,,,,,,0,,,75,110
20446,note_on,46,0,1,,,,,,,,,0,,,79,0
20448,note_on,2,0,1,,,,,,,,,0,,,84,110
20494,note_on,46,0,1,,,,,,,,,0,,,84,0
20496,note_on,2,0,1,,,,,,,,,0,,,82,110
20542,note_on,0,0,1,,,,,,,,,0,,,82,0
20542,note_on,46,0,1,,,,,,,,,0,,,75,0
20544,set_tempo,192,1,0,500000,,,,,,,,,,,,
20544,note_on,2,0,1,,,,,,,,,0,,,81,110
20590,note_on,46,0,1,,,,,,,,,0,,,81,0
20592,note_on,2,0,1,,,,,,,,,0,,,79,110
20638,note_on,46,0,1,,,,,,,,,0,,,79,0
20640,note_on,2,0,1,,,,,,,,,0,,,78,110
20686,note_on,46,0,1,,,,,,,,,0,,,78,0
20688,note_on,2,0,1,,,,,,,,,0,,,76,110
20688,note_on,336,0,2,,,,,,,,,1,,,48,0
20734,note_on,46,0,1,,,,,,,,,0,,,76,0
20736,set_tempo,192,1,0,517241,,,,,,,,,,,,
20736,note_on,48,0,2,,,,,,,,,1,,,38,110
20736,note_on,0,0,2,,,,,,,,,1,,,50,110
20736,note_on,2,0,1,,,,,,,,,0,,,78,110
20770,note_on,34,0,1,,,,,,,,,0,,,78,0
20784,note_on,14,0,1,,,,,,,,,0,,,62,110
20832,note_on,48,0,1,,,,,,,,,0,,,66,110
20878,note_on,46,0,1,,,,,,,,,0,,,62,0
20880,note_on,2,0,1,,,,,,,,,0,,,62,110
20926,note_on,46,0,1,,,,,,,,,0,,,66,0
20928,note_on,2,0,1,,,,,,,,,0,,,69,110
20928,set_tempo,192,1,0,500000,,,,,,,,,,,,
20974,note_on,46,0,1,,,,,,,,,0,,,62,0
20976,note_on,2,0,1,,,,,,,,,0,,,66,110
21022,note_on,46,0,1,,,,,,,,,0,,,69,0
21024,note_on,2,0,1,,,,,,,,,0,,,72,110
21070,note_on,46,0,1,,,,,,,,,0,,,66,0
21072,note_on,2,0,1,,,,,,,,,0,,,69,110
21118,note_on,46,0,1,,,,,,,,,0,,,72,0
21120,set_tempo,192,1,0,508474,,,,,,,,,,,,
21120,note_on,2,0,1,,,,,,,,,0,,,75,110
21166,note_on,46,0,1,,,,,,,,,0,,,69,0
21168,note_on,2,0,1,,,,,,,,,0,,,72,110
21214,note_on,46,0,1,,,,,,,,,0,,,75,0
21216,note_on,2,0,1,,,,,,,,,0,,,78,110
21264,note_on,48,0,1,,,,,,,,,0,,,81,110
21310,note_on,0,0,1,,,,,,,,,0,,,81,0
21310,note_on,46,0,1,,,,,,,,,0,,,72,0
21310,note_on,0,0,1,,,,,,,,,0,,,78,0
21312,note_on,2,0,1,,,,,,,,,0,,,72,110
21312,set_tempo,192,1,0,495867,,,,,,,,,,,,
21360,note_on,48,0,1,,,,,,,,,0,,,75,110
21406,note_on,46,0,1,,,,,,,,,0,,,72,0
21406,note_on,0,0,1,,,,,,,,,0,,,75,0
21408,note_on,2,0,1,,,,,,,,,0,,,74,110
21454,note_on,46,0,1,,,,,,,,,0,,,74,0
21456,note_on,2,0,1,,,,,,,,,0,,,72,110
21456,note_on,720,0,2,,,,,,,,,1,,,38,0
21456,note_on,0,0,2,,,,,,,,,1,,,50,0
21502,note_on,46,0,1,,,,,,,,,0,,,72,0
21504,set_tempo,192,1,0,517241,,,,,,,,,,,,
21504,note_on,48,0,2,,,,,,,,,1,,,43,110
21504,note_on,2,0,1,,,,,,,,,0,,,71,110
21538,note_on,34,0,1,,,,,,,,,0,,,71,0
21552,note_on,14,0,1,,,,,,,,,0,,,55,110
21600,note_on,48,0,1,,,,,,,,,0,,,59,110
21646,note_on,46,0,1,,,,,,,,,0,,,55,0
21648,note_on,2,0,1,,,,,,,,,0,,,55,110
21694,note_on,46,0,1,,,,,,,,,0,,,59,0
21696,set_tempo,192,1,0,500000,,,,,,,,,,,,
21696,note_on,2,0,1,,,,,,,,,0,,,62,110
21742,note_on,46,0,1,,,,,,,,,0,,,55,0
21744,note_on,2,0,1,,,,,,,,,0,,,59,110
21790,note_on,46,0,1,,,,,,,,,0,,,62,0
21792,note_on,2,0,1,,,,,,,,,0,,,65,110
21838,note_on,46,0,1,,,,,,,,,0,,,59,0
21840,note_on,2,0,1,,,,,,,,,0,,,62,110
21886,note_on,46,0,1,,,,,,,,,0,,,65,0
21888,note_on,2,0,1,,,,,,,,,0,,,68,110
21934,note_on,46,0,1,,,,,,,,,0,,,62,0
21936,set_tempo,240,1,0,508474,,,,,,,,,,,,
21936,note_on,2,0,1,,,,,,,,,0,,,65,110
21982,note_on,46,0,1,,,,,,,,,0,,,68,0
21984,note_on,2,0,1,,,,,,,,,0,,,71,110
22032,note_on,48,0,1,,,,,,,,,0,,,74,110
22078,note_on,0,0,1,,,,,,,,,0,,,74,0
22078,note_on,0,0,1,,,,,,,,,0,,,71,0
22078,note_on,46,0,1,,,,,,,,,0,,,65,0
22080,note_on,2,0,1,,,,,,,,,0,,,65,110
22080,set_tempo,144,1,0,500000,,,,,,,,,,,,
22128,note_on,48,0,1,,,,,,,,,0,,,68,110
22174,note_on,46,0,1,,,,,,,,,0,,,65,0
22174,note_on,0,0,1,,,,,,,,,0,,,68,0
22176,note_on,2,0,1,,,,,,,,,0,,,67,110
22222,note_on,46,0,1,,,,,,,,,0,,,67,0
22224,note_on,720,0,2,,,,,,,,,1,,,43,0
22224,note_on,2,0,1,,,,,,,,,0,,,65,110
22270,note_on,46,0,1,,,,,,,,,0,,,65,0
22272,note_on,2,0,1,,,,,,,,,0,,,64,110
22272,note_on,48,0,2,,,,,,,,,1,,,48,110
22272,set_tempo,192,1,0,521739,,,,,,,,,,,,
22320,note_on,48,0,1,,,,,,,,,0,,,60,110
22320,set_tempo,48,1,0,508474,,,,,,,,,,,,
22366,note_on,46,0,1,,,,,,,,,0,,,64,0
22368,note_on,2,0,1,,,,,,,,,0,,,64,110
22414,note_on,46,0,1,,,,,,,,,0,,,60,0
22416,note_on,2,0,1,,,,,,,,,0,,,60,110
22462,note_on,46,0,1,,,,,,,,,0,,,64,0
22464,set_tempo,144,1,0,500000,,,,,,,,,,,,
22464,note_on,2,0,1,,,,,,,,,0,,,67,110
22510,note_on,46,0,1,,,,,,,,,0,,,60,0
22512,note_on,2,0,1,,,,,,,,,0,,,64,110
22558,note_on,46,0,1,,,,,,,,,0,,,67,0
22560,note_on,2,0,1,,,,,,,,,0,,,70,110
22606,note_on,46,0,1,,,,,,,,,0,,,64,0
22608,note_on,2,0,1,,,,,,,,,0,,,67,110
22654,note_on,46,0,1,,,,,,,,,0,,,70,0
22656,note_on,2,0,1,,,,,,,,,0,,,73,110
22656,set_tempo,192,1,0,508474,,,,,,,,,,,,
22702,note_on,46,0,1,,,,,,,,,0,,,67,0
22704,note_on,2,0,1,,,,,,,,,0,,,70,110
22750,note_on,46,0,1,,,,,,,,,0,,,73,0
22752,note_on,2,0,1,,,,,,,,,0,,,76,110
22798,note_on,46,0,1,,,,,,,,,0,,,70,0
22800,note_on,2,0,1,,,,,,,,,0,,,79,110
22846,note_on,0,0,1,,,,,,,,,0,,,79,0
22846,note_on,46,0,1,,,,,,,,,0,,,76,0
22848,note_on,2,0,1,,,,,,,,,0,,,70,110
22848,set_tempo,192,1,0,500000,,,,,,,,,,,,
22896,note_on,48,0,1,,,,,,,,,0,,,73,110
22942,note_on,46,0,1,,,,,,,,,0,,,70,0
22942,note_on,0,0,1,,,,,,,,,0,,,73,0
22944,note_on,2,0,1,,,,,,,,,0,,,72,110
22990,note_on,46,0,1,,,,,,,,,0,,,72,0
22992,note_on,720,0,2,,,,,,,,,1,,,48,0
22992,note_on,2,0,1,,,,,,,,,0,,,70,110
23038,note_on,46,0,1,,,,,,,,,0,,,70,0
23040,note_on,2,0,1,,,,,,,,,0,,,69,110
23040,note_on,48,0,2,,,,,,,,,1,,,41,110
23040,set_tempo,192,1,0,521739,,,,,,,,,,,,
23074,note_on,34,0,1,,,,,,,,,0,,,69,0
23088,note_on,14,0,1,,,,,,,,,0,,,53,110
23136,note_on,48,0,1,,,,,,,,,0,,,57,110
23182,note_on,46,0,1,,,,,,,,,0,,,53,0
23184,note_on,2,0,1,,,,,,,,,0,,,53,110
23230,note_on,46,0,1,,,,,,,,,0,,,57,0
23232,set_tempo,192,1,0,500000,,,,,,,,,,,,
23232,note_on,2,0,1,,,,,,,,,0,,,60,110
23278,note_on,46,0,1,,,,,,,,,0,,,53,0
23280,note_on,2,0,1,,,,,,,,,0,,,57,110
23326,note_on,46,0,1,,,,,,,,,0,,,60,0
23328,note_on,2,0,1,,,,,,,,,0,,,63,110
23374,note_on,46,0,1,,,,,,,,,0,,,57,0
23376,note_on,2,0,1,,,,,,,,,0,,,60,110
23422,note_on,46,0,1,,,,,,,,,0,,,63,0
23424,note_on,2,0,1,,,,,,,,,0,,,69,110
23424,set_tempo,192,1,0,508474,,,,,,,,,,,,
23470,note_on,46,0,1,,,,,,,,,0,,,60,0
23472,note_on,2,0,1,,,,,,,,,0,,,63,110
23518,note_on,46,0,1,,,,,,,,,0,,,69,0
23520,note_on,2,0,1,,,,,,,,,0,,,72,110
23566,note_on,46,0,1,,,,,,,,,0,,,63,0
23568,note_on,2,0,1,,,,,,,,,0,,,69,110
23614,note_on,46,0,1,,,,,,,,,0,,,72,0
23616,set_tempo,192,1,0,500000,,,,,,,,,,,,
23616,note_on,2,0,1,,,,,,,,,0,,,75,110
23662,note_on,46,0,1,,,,,,,,,0,,,69,0
23664,note_on,2,0,1,,,,,,,,,0,,,72,110
23710,note_on,46,0,1,,,,,,,,,0,,,75,0
23712,note_on,2,0,1,,,,,,,,,0,,,81,110
23758,note_on,46,0,1,,,,,,,,,0,,,72,0
23760,note_on,2,0,1,,,,,,,,,0,,,75,110
23760,note_on,720,0,2,,,,,,,,,1,,,41,0
23806,note_on,0,0,1,,,,,,,,,0,,,81,0
23806,note_on,46,0,1,,,,,,,,,0,,,75,0
23808,note_on,2,0,1,,,,,,,,,0,,,74,110
23808,note_on,48,0,2,,,,,,,,,1,,,46,110
23808,set_tempo,192,1,0,517241,,,,,,,,,,,,
23842,note_on,34,0,1,,,,,,,,,0,,,74,0
23856,note_on,14,0,1,,,,,,,,,0,,,58,110
23904,note_on,48,0,1,,,,,,,,,0,,,62,110
23950,note_on,46,0,1,,,,,,,,,0,,,58,0
23952,note_on,2,0,1,,,,,,,,,0,,,58,110
23998,note_on,46,0,1,,,,,,,,,0,,,62,0
24000,note_on,2,0,1,,,,,,,,,0,,,65,110
24000,set_tempo,192,1,0,500000,,,,,,,,,,,,
24046,note_on,46,0,1,,,,,,,,,0,,,58,0
24048,note_on,2,0,1,,,,,,,,,0,,,62,110
24094,note_on,46,0,1,,,,,,,,,0,,,65,0
24096,note_on,2,0,1,,,,,,,,,0,,,70,110
24142,note_on,46,0,1,,,,,,,,,0,,,62,0
24144,note_on,2,0,1,,,,,,,,,0,,,65,110
24190,note_on,46,0,1,,,,,,,,,0,,,65,0
24190,note_on,0,0,1,,,,,,,,,0,,,70,0
24192,set_tempo,192,1,0,508474,,,,,,,,,,,,
24192,note_on,384,0,2,,,,,,,,,1,,,51,110
24192,note_on,2,0,1,,,,,,,,,0,,,67,110
24240,note_on,48,0,1,,,,,,,,,0,,,63,110
24286,note_on,46,0,1,,,,,,,,,0,,,67,0
24288,note_on,2,0,1,,,,,,,,,0,,,67,110
24334,note_on,46,0,1,,,,,,,,,0,,,63,0
24336,note_on,2,0,1,,,,,,,,,0,,,63,110
24382,note_on,46,0,1,,,,,,,,,0,,,67,0
24384,note_on,2,0,1,,,,,,,,,0,,,70,110
24384,set_tempo,192,1,0,500000,,,,,,,,,,,,
24430,note_on,46,0,1,,,,,,,,,0,,,63,0
24432,note_on,2,0,1,,,,,,,,,0,,,67,110
24478,note_on,46,0,1,,,,,,,,,0,,,70,0
24480,note_on,2,0,1,,,,,,,,,0,,,75,110
24526,note_on,46,0,1,,,,,,,,,0,,,67,0
24528,note_on,336,0,2,,,,,,,,,1,,,46,0
24528,note_on,0,0,2,,,,,,,,,1,,,51,0
24528,note_on,2,0,1,,,,,,,,,0,,,70,110
24574,note_on,0,0,1,,,,,,,,,0,,,75,0
24574,note_on,46,0,1,,,,,,,,,0,,,70,0
24576,note_on,48,0,2,,,,,,,,,1,,,45,110
24576,set_tempo,192,1,0,517241,,,,,,,,,,,,
24576,note_on,2,0,1,,,,,,,,,0,,,72,110
24624,note_on,48,0,1,,,,,,,,,0,,,69,110
24670,note_on,46,0,1,,,,,,,,,0,,,72,0
24672,note_on,2,0,1,,,,,,,,,0,,,72,110
24718,note_on,46,0,1,,,,,,,,,0,,,69,0
24720,note_on,2,0,1,,,,,,,,,0,,,69,110
24766,note_on,46,0,1,,,,,,,,,0,,,72,0
24768,set_tempo,192,1,0,500000,,,,,,,,,,,,
24768,note_on,2,0,1,,,,,,,,,0,,,75,110
24814,note_on,46,0,1,,,,,,,,,0,,,69,0
24816,note_on,2,0,1,,,,,,,,,0,,,72,110
24862,note_on,46,0,1,,,,,,,,,0,,,75,0
24864,note_on,2,0,1,,,,,,,,,0,,,81,110
24910,note_on,46,0,1,,,,,,,,,0,,,72,0
24912,note_on,2,0,1,,,,,,,,,0,,,76,110
24958,note_on,46,0,1,,,,,,,,,0,,,76,0
24958,note_on,0,0,1,,,,,,,,,0,,,81,0
24960,set_tempo,192,1,0,508474,,,,,,,,,,,,
24960,note_on,384,0,2,,,,,,,,,1,,,50,110
24960,note_on,2,0,1,,,,,,,,,0,,,78,110
24994,note_on,34,0,1,,,,,,,,,0,,,78,0
25008,note_on,14,0,1,,,,,,,,,0,,,62,110
25056,note_on,48,0,1,,,,,,,,,0,,,66,110
25102,note_on,46,0,1,,,,,,,,,0,,,62,0
25104,note_on,2,0,1,,,,,,,,,0,,,62,110
25150,note_on,46,0,1,,,,,,,,,0,,,66,0
25152,set_tempo,192,1,0,500000,,,,,,,,,,,,
25152,note_on,2,0,1,,,,,,,,,0,,,69,110
25198,note_on,46,0,1,,,,,,,,,0,,,62,0
25200,note_on,2,0,1,,,,,,,,,0,,,66,110
25246,note_on,46,0,1,,,,,,,,,0,,,69,0
25248,note_on,2,0,1,,,,,,,,,0,,,74,110
25294,note_on,46,0,1,,,,,,,,,0,,,66,0
25296,note_on,2,0,1,,,,,,,,,0,,,69,110
25296,note_on,336,0,2,,,,,,,,,1,,,45,0
25296,note_on,0,0,2,,,,,,,,,1,,,50,0
25342,note_on,46,0,1,,,,,,,,,0,,,69,0
25342,note_on,0,0,1,,,,,,,,,0,,,74,0
25344,note_on,48,0,2,,,,,,,,,1,,,43,110
25344,note_on,2,0,1,,,,,,,,,0,,,70,110
25344,set_tempo,192,1,0,517241,,,,,,,,,,,,
25392,note_on,48,0,1,,,,,,,,,0,,,67,110
25438,note_on,46,0,1,,,,,,,,,0,,,70,0
25440,note_on,2,0,1,,,,,,,,,0,,,70,110
25486,note_on,46,0,1,,,,,,,,,0,,,67,0
25488,note_on,2,0,1,,,,,,,,,0,,,67,110
25534,note_on,46,0,1,,,,,,,,,0,,,70,0
25536,note_on,2,0,1,,,,,,,,,0,,,74,110
25536,set_tempo,192,1,0,500000,,,,,,,,,,,,
25582,note_on,46,0,1,,,,,,,,,0,,,67,0
25584,note_on,2,0,1,,,,,,,,,0,,,70,110
25630,note_on,46,0,1,,,,,,,,,0,,,74,0
25632,note_on,2,0,1,,,,,,,,,0,,,79,110
25678,note_on,46,0,1,,,,,,,,,0,,,70,0
25680,note_on,2,0,1,,,,,,,,,0,,,74,110
25726,note_on,46,0,1,,,,,,,,,0,,,74,0
25726,note_on,0,0,1,,,,,,,,,0,,,79,0
25728,note_on,2,0,1,,,,,,,,,0,,,75,110
25728,note_on,384,0,2,,,,,,,,,1,,,48,110
25776,note_on,48,0,1,,,,,,,,,0,,,79,110
25822,note_on,46,0,1,,,,,,,,,0,,,75,0
25824,note_on,2,0,1,,,,,,,,,0,,,72,110
25870,note_on,46,0,1,,,,,,,,,0,,,79,0
25872,note_on,2,0,1,,,,,,,,,0,,,75,110
25918,note_on,0,0,1,,,,,,,,,0,,,75,0
25918,note_on,46,0,1,,,,,,,,,0,,,72,0
25920,set_tempo,384,1,0,500000,,,,,,,,,,,,
25920,note_on,2,0,1,,,,,,,,,0,,,68,110
25968,note_on,48,0,1,,,,,,,,,0,,,72,110
26014,note_on,46,0,1,,,,,,,,,0,,,68,0
26016,note_on,2,0,1,,,,,,,,,0,,,66,110
26062,note_on,46,0,1,,,,,,,,,0,,,72,0
26064,note_on,0,0,2,,,,,,,,,1,,,48,0
26064,note_on,336,0,2,,,,,,,,,1,,,43,0
26064,note_on,2,0,1,,,,,,,,,0,,,69,110
26110,note_on,46,0,1,,,,,,,,,0,,,66,0
26110,note_on,0,0,1,,,,,,,,,0,,,69,0
26112,note_on,2,0,1,,,,,,,,,0,,,63,110
26112,set_tempo,192,1,0,517241,,,,,,,,,,,,
26160,note_on,48,0,1,,,,,,,,,0,,,67,110
26206,note_on,46,0,1,,,,,,,,,0,,,63,0
26208,note_on,2,0,1,,,,,,,,,0,,,60,110
26254,note_on,46,0,1,,,,,,,,,0,,,67,0
26256,note_on,2,0,1,,,,,,,,,0,,,63,110
26302,note_on,46,0,1,,,,,,,,,0,,,60,0
26304,note_on,2,0,1,,,,,,,,,0,,,56,110
26350,note_on,46,0,1,,,,,,,,,0,,,63,0
26352,set_tempo,240,1,0,500000,,,,,,,,,,,,
26352,note_on,2,0,1,,,,,,,,,0,,,60,110
26398,note_on,46,0,1,,,,,,,,,0,,,56,0
26400,note_on,2,0,1,,,,,,,,,0,,,54,110
26446,note_on,46,0,1,,,,,,,,,0,,,60,0
26448,note_on,2,0,1,,,,,,,,,0,,,57,110
26494,note_on,46,0,1,,,,,,,,,0,,,54,0
26496,note_on,432,0,2,,,,,,,,,1,,,51,110
26496,set_tempo,144,1,0,508474,,,,,,,,,,,,
26542,note_on,48,0,1,,,,,,,,,0,,,57,0
26544,note_on,48,0,2,,,,,,,,,1,,,55,110
26590,note_on,46,0,2,,,,,,,,,1,,,51,0
26592,note_on,2,0,2,,,,,,,,,1,,,48,110
26638,note_on,46,0,2,,,,,,,,,1,,,55,0
26640,note_on,2,0,2,,,,,,,,,1,,,51,110
26686,note_on,46,0,2,,,,,,,,,1,,,48,0
26688,note_on,2,0,2,,,,,,,,,1,,,44,110
26688,set_tempo,192,1,0,500000,,,,,,,,,,,,
26734,note_on,46,0,2,,,,,,,,,1,,,51,0
26736,note_on,2,0,2,,,,,,,,,1,,,48,110
26782,note_on,46,0,2,,,,,,,,,1,,,44,0
26784,note_on,2,0,2,,,,,,,,,1,,,42,110
26830,note_on,46,0,2,,,,,,,,,1,,,48,0
26832,note_on,2,0,2,,,,,,,,,1,,,45,110
26878,note_on,0,0,2,,,,,,,,,1,,,45,0
26878,note_on,46,0,2,,,,,,,,,1,,,42,0
26880,set_tempo,192,1,0,517241,,,,,,,,,,,,
26880,note_on,2,0,2,,,,,,,,,1,,,38,110
26928,note_on,386,0,1,,,,,,,,,0,,,63,110
26974,note_on,46,0,1,,,,,,,,,0,,,63,0
26976,note_on,2,0,1,,,,,,,,,0,,,62,110
27022,note_on,46,0,1,,,,,,,,,0,,,62,0
27024,note_on,2,0,1,,,,,,,,,0,,,60,110
27070,note_on,46,0,1,,,,,,,,,0,,,60,0
27072,set_tempo,192,1,0,500000,,,,,,,,,,,,
27072,note_on,2,0,1,,,,,,,,,0,,,62,110
27118,note_on,46,0,1,,,,,,,,,0,,,62,0
27120,note_on,2,0,1,,,,,,,,,0,,,60,110
27166,note_on,46,0,1,,,,,,,,,0,,,60,0
27168,note_on,2,0,1,,,,,,,,,0,,,58,110
27214,note_on,46,0,1,,,,,,,,,0,,,58,0
27216,note_on,2,0,1,,,,,,,,,0,,,57,110
27262,note_on,46,0,1,,,,,,,,,0,,,57,0
27264,note_on,2,0,1,,,,,,,,,0,,,58,110
27264,set_tempo,192,1,0,508474,,,,,,,,,,,,
27312,note_on,48,0,1,,,,,,,,,0,,,62,110
27358,note_on,46,0,1,,,,,,,,,0,,,58,0
27360,set_tempo,96,1,0,545454,,,,,,,,,,,,
27360,note_on,2,0,1,,,,,,,,,0,,,67,110
27408,note_on,48,0,1,,,,,,,,,0,,,58,110
27408,set_tempo,48,1,0,600000,,,,,,,,,,,,
27454,note_on,46,0,1,,,,,,,,,0,,,58,0
27454,note_on,0,0,1,,,,,,,,,0,,,67,0
27454,note_on,0,0,1,,,,,,,,,0,,,62,0
27456,note_on,2,0,1,,,,,,,,,0,,,57,110
27456,set_tempo,48,1,0,666666,,,,,,,,,,,,
27504,set_tempo,48,1,0,750000,,,,,,,,,,,,
27504,note_on,48,0,1,,,,,,,,,0,,,67,110
27550,note_on,46,0,1,,,,,,,,,0,,,57,0
27552,note_on,2,0,1,,,,,,,,,0,,,57,110
27598,note_on,46,0,1,,,,,,,,,0,,,67,0
27600,set_tempo,96,1,0,857142,,,,,,,,,,,,
27600,note_on,2,0,1,,,,,,,,,0,,,66,110
27600,note_on,720,0,2,,,,,,,,,1,,,38,0
27646,note_on,0,0,1,,,,,,,,,0,,,66,0
27646,note_on,46,0,1,,,,,,,,,0,,,57,0
27648,note_on,2,0,1,,,,,,,,,0,,,58,110
27648,note_on,48,0,2,,,,,,,,,1,,,43,110
27648,set_tempo,48,1,0,1000000,,,,,,,,,,,,
27660,note_on,12,0,1,,,,,,,,,0,,,62,110
27660,set_tempo,12,1,0,1200000,,,,,,,,,,,,
27672,note_on,12,0,1,,,,,,,,,0,,,67,110
27672,set_tempo,12,1,0,1500000,,,,,,,,,,,,
27672,note_on,24,0,2,,,,,,,,,1,,,46,110
27696,note_on,24,0,2,,,,,,,,,1,,,50,110
27720,note_on,24,0,2,,,,,,,,,1,,,55,110
27742,note_on,0,0,2,,,,,,,,,1,,,50,0
27742,note_on,22,0,2,,,,,,,,,1,,,43,0
27742,note_on,0,0,2,,,,,,,,,1,,,46,0
27744,note_on,2,0,2,,,,,,,,,1,,,50,110
27768,set_tempo,96,1,0,2400000,,,,,,,,,,,,
27768,note_on,24,0,2,,,,,,,,,1,,,46,110
27792,set_tempo,24,1,0,3000000,,,,,,,,,,,,
27792,note_on,24,0,2,,,,,,,,,1,,,43,110
27840,end_of_track,0,1,0,,,,,,,,,,,,,
27840,set_tempo,48,1,0,2000000,,,,,,,,,,,,
28368,note_on,576,0,2,,,,,,,,,1,,,46,0
28368,note_on,0,0,2,,,,,,,,,1,,,50,0
28752,note_on,384,0,2,,,,,,,,,1,,,43,0
28752,note_on,0,0,1,,,,,,,,,0,,,67,0
28752,end_of_track,0,1,1,,,,,,,,,,,,,
28752,note_on,1080,0,1,,,,,,,,,0,,,58,0
28752,note_on,0,0,1,,,,,,,,,0,,,62,0
28752,note_on,0,0,2,,,,,,,,,1,,,55,0
28752,end_of_track,0,1,2,,,,,,,,,,,,,
