tick,type,data,time,meta,track,numerator,denominator,clocks_per_click,notated_32nd_notes_per_beat,key,tempo,port,control,value,channel,program,note,velocity
0,sequencer_specific,"(0, 0, 65)",0,1,0,,,,,,,,,,,,,
0,control_change,,0,0,1,,,,,,,,10,77,0,,,
0,program_change,,0,0,1,,,,,,,,,,0,6,,
0,note_on,,0,0,1,,,,,,,,,,0,,67,100
0,note_on,,0,0,1,,,,,,,,,,0,,71,100
0,note_on,,0,0,1,,,,,,,,,,0,,74,100
0,track_name,,0,1,6,,,,,,,,,,,,,
0,midi_port,,0,1,2,,,,,,,0,,,,,,
0,track_name,,0,1,2,,,,,,,,,,,,,
0,control_change,,0,0,2,,,,,,,,0,0,1,,,
0,control_change,,0,0,2,,,,,,,,32,0,1,,,
0,control_change,,0,0,2,,,,,,,,7,127,1,,,
0,control_change,,0,0,2,,,,,,,,10,55,1,,,
0,control_change,,0,0,1,,,,,,,,7,127,0,,,
0,program_change,,0,0,2,,,,,,,,,,1,6,,
0,note_on,,0,0,2,,,,,,,,,,1,,59,100
0,note_on,,0,0,2,,,,,,,,,,1,,62,100
0,midi_port,,0,1,3,,,,,,,0,,,,,,
0,track_name,,0,1,3,,,,,,,,,,,,,
0,end_of_track,,0,1,3,,,,,,,,,,,,,
0,midi_port,,0,1,4,,,,,,,0,,,,,,
0,track_name,,0,1,4,,,,,,,,,,,,,
0,end_of_track,,0,1,4,,,,,,,,,,,,,
0,midi_port,,0,1,5,,,,,,,0,,,,,,
0,track_name,,0,1,5,,,,,,,,,,,,,
0,end_of_track,,0,1,5,,,,,,,,,,,,,
0,midi_port,,0,1,6,,,,,,,0,,,,,,
0,note_on,,0,0,2,,,,,,,,,,1,,55,100
0,control_change,,0,0,1,,,,,,,,32,0,0,,,
0,end_of_track,,0,1,6,,,,,,,,,,,,,
0,track_name,,0,1,1,,,,,,,,,,,,,
0,set_tempo,,0,1,0,,,,,,857143,,,,,,,
0,key_signature,,0,1,0,,,,,C,,,,,,,,
0,control_change,,0,0,1,,,,,,,,0,0,0,,,
0,midi_port,,0,1,1,,,,,,,0,,,,,,
0,time_signature,,0,1,0,3,4,24,8,,,,,,,,,
384,note_on,,0,0,2,,,,,,,,,,1,,50,100
384,note_on,,0,0,2,,,,,,,,,,1,,55,100
384,note_on,,0,0,2,,,,,,,,,,1,,55,0
384,note_on,,0,0,2,,,,,,,,,,1,,47,100
384,note_on,,0,0,1,,,,,,,,,,0,,71,100
384,note_on,,0,0,2,,,,,,,,,,1,,43,100
384,note_on,,0,0,1,,,,,,,,,,0,,67,0
384,note_on,,384,0,2,,,,,,,,,,1,,62,0
384,note_on,,0,0,2,,,,,,,,,,1,,59,0
384,note_on,,384,0,1,,,,,,,,,,0,,74,0
384,note_on,,0,0,1,,,,,,,,,,0,,76,100
384,note_on,,0,0,1,,,,,,,,,,0,,71,0
428,note_on,,44,0,1,,,,,,,,,,0,,76,0
432,note_on,,4,0,1,,,,,,,,,,0,,74,100
476,note_on,,44,0,1,,,,,,,,,,0,,74,0
480,note_on,,4,0,1,,,,,,,,,,0,,76,100
524,note_on,,44,0,1,,,,,,,,,,0,,76,0
528,note_on,,4,0,1,,,,,,,,,,0,,74,100
572,note_on,,44,0,1,,,,,,,,,,0,,74,0
576,note_on,,4,0,1,,,,,,,,,,0,,76,100
620,note_on,,44,0,1,,,,,,,,,,0,,76,0
624,note_on,,4,0,1,,,,,,,,,,0,,74,100
716,note_on,,92,0,1,,,,,,,,,,0,,74,0
816,note_on,,100,0,1,,,,,,,,,,0,,74,100
864,note_on,,48,0,1,,,,,,,,,,0,,74,0
864,note_on,,0,0,1,,,,,,,,,,0,,76,100
912,note_on,,48,0,1,,,,,,,,,,0,,76,0
912,note_on,,0,0,1,,,,,,,,,,0,,78,100
936,note_on,,24,0,1,,,,,,,,,,0,,78,0
936,note_on,,0,0,1,,,,,,,,,,0,,76,100
960,note_on,,24,0,1,,,,,,,,,,0,,76,0
960,note_on,,0,0,1,,,,,,,,,,0,,78,100
984,note_on,,24,0,1,,,,,,,,,,0,,78,0
984,note_on,,0,0,1,,,,,,,,,,0,,76,100
1008,note_on,,0,0,1,,,,,,,,,,0,,78,100
1008,note_on,,24,0,1,,,,,,,,,,0,,76,0
1032,note_on,,0,0,1,,,,,,,,,,0,,74,100
1032,note_on,,24,0,1,,,,,,,,,,0,,78,0
1056,note_on,,0,0,2,,,,,,,,,,1,,43,0
1056,note_on,,0,0,2,,,,,,,,,,1,,50,0
1056,note_on,,0,0,2,,,,,,,,,,1,,47,0
1056,note_on,,0,0,1,,,,,,,,,,0,,76,100
1056,note_on,,672,0,2,,,,,,,,,,1,,55,0
1056,note_on,,0,0,1,,,,,,,,,,0,,71,0
1056,note_on,,24,0,1,,,,,,,,,,0,,74,0
1104,note_on,,48,0,1,,,,,,,,,,0,,76,0
1104,note_on,,0,0,1,,,,,,,,,,0,,78,100
1148,note_on,,44,0,1,,,,,,,,,,0,,78,0
1152,note_on,,0,0,1,,,,,,,,,,0,,69,100
1152,note_on,,4,0,1,,,,,,,,,,0,,66,100
1152,note_on,,96,0,2,,,,,,,,,,1,,54,100
1152,note_on,,0,0,2,,,,,,,,,,1,,57,100
1152,note_on,,0,0,2,,,,,,,,,,1,,62,100
1152,note_on,,0,0,1,,,,,,,,,,0,,74,100
1536,note_on,,0,0,2,,,,,,,,,,1,,50,100
1536,note_on,,384,0,2,,,,,,,,,,1,,62,0
1536,note_on,,0,0,2,,,,,,,,,,1,,57,0
1536,note_on,,0,0,2,,,,,,,,,,1,,54,0
1536,note_on,,0,0,2,,,,,,,,,,1,,42,100
1536,note_on,,0,0,2,,,,,,,,,,1,,45,100
1536,note_on,,0,0,2,,,,,,,,,,1,,54,100
1536,note_on,,0,0,1,,,,,,,,,,0,,74,100
1536,note_on,,384,0,1,,,,,,,,,,0,,74,0
1536,note_on,,0,0,1,,,,,,,,,,0,,69,0
1536,note_on,,0,0,1,,,,,,,,,,0,,66,0
1536,note_on,,0,0,1,,,,,,,,,,0,,66,100
1536,note_on,,0,0,1,,,,,,,,,,0,,69,100
1856,note_on,,0,0,1,,,,,,,,,,0,,69,0
1856,note_on,,320,0,1,,,,,,,,,,0,,74,0
1856,note_on,,0,0,1,,,,,,,,,,0,,66,0
1968,note_on,,112,0,1,,,,,,,,,,0,,69,100
2016,note_on,,48,0,1,,,,,,,,,,0,,69,0
2016,note_on,,0,0,1,,,,,,,,,,0,,71,100
2064,note_on,,48,0,1,,,,,,,,,,0,,71,0
2064,note_on,,0,0,1,,,,,,,,,,0,,73,100
2112,note_on,,48,0,1,,,,,,,,,,0,,73,0
2112,note_on,,0,0,1,,,,,,,,,,0,,74,100
2160,note_on,,48,0,1,,,,,,,,,,0,,74,0
2160,note_on,,0,0,1,,,,,,,,,,0,,76,100
2184,note_on,,24,0,1,,,,,,,,,,0,,76,0
2184,note_on,,0,0,1,,,,,,,,,,0,,78,100
2208,note_on,,672,0,2,,,,,,,,,,1,,54,0
2208,note_on,,24,0,1,,,,,,,,,,0,,78,0
2208,note_on,,0,0,2,,,,,,,,,,1,,50,0
2208,note_on,,0,0,1,,,,,,,,,,0,,79,100
2208,note_on,,0,0,2,,,,,,,,,,1,,42,0
2208,note_on,,0,0,2,,,,,,,,,,1,,45,0
2232,note_on,,0,0,1,,,,,,,,,,0,,81,100
2232,note_on,,24,0,1,,,,,,,,,,0,,79,0
2256,note_on,,0,0,1,,,,,,,,,,0,,83,100
2256,note_on,,24,0,1,,,,,,,,,,0,,81,0
2280,note_on,,0,0,1,,,,,,,,,,0,,79,100
2280,note_on,,24,0,1,,,,,,,,,,0,,83,0
2300,note_on,,20,0,1,,,,,,,,,,0,,79,0
2304,note_on,,96,0,2,,,,,,,,,,1,,52,100
2304,note_on,,0,0,2,,,,,,,,,,1,,55,100
2304,note_on,,0,0,2,,,,,,,,,,1,,59,100
2304,note_on,,0,0,1,,,,,,,,,,0,,74,100
2304,note_on,,0,0,1,,,,,,,,,,0,,71,100
2304,note_on,,4,0,1,,,,,,,,,,0,,79,100
2492,note_on,,0,0,1,,,,,,,,,,0,,71,0
2492,note_on,,188,0,1,,,,,,,,,,0,,74,0
2496,note_on,,4,0,1,,,,,,,,,,0,,79,0
2496,note_on,,0,0,1,,,,,,,,,,0,,74,100
2520,note_on,,24,0,1,,,,,,,,,,0,,74,0
2520,note_on,,0,0,1,,,,,,,,,,0,,73,100
2544,note_on,,0,0,1,,,,,,,,,,0,,74,100
2544,note_on,,24,0,1,,,,,,,,,,0,,73,0
2568,note_on,,24,0,1,,,,,,,,,,0,,74,0
2568,note_on,,0,0,1,,,,,,,,,,0,,73,100
2592,note_on,,24,0,1,,,,,,,,,,0,,73,0
2592,note_on,,0,0,1,,,,,,,,,,0,,74,100
2616,note_on,,24,0,1,,,,,,,,,,0,,74,0
2616,note_on,,0,0,1,,,,,,,,,,0,,73,100
2636,note_on,,20,0,1,,,,,,,,,,0,,73,0
2640,note_on,,4,0,1,,,,,,,,,,0,,71,100
2684,note_on,,44,0,1,,,,,,,,,,0,,71,0
2688,note_on,,4,0,1,,,,,,,,,,0,,73,100
2688,note_on,,0,0,2,,,,,,,,,,1,,57,100
2688,note_on,,0,0,2,,,,,,,,,,1,,55,0
2688,note_on,,0,0,1,,,,,,,,,,0,,79,100
2688,note_on,,0,0,1,,,,,,,,,,0,,76,100
2688,note_on,,384,0,2,,,,,,,,,,1,,59,0
2688,note_on,,0,0,2,,,,,,,,,,1,,52,100
2688,note_on,,0,0,2,,,,,,,,,,1,,52,0
2688,note_on,,0,0,2,,,,,,,,,,1,,45,100
3008,note_on,,0,0,1,,,,,,,,,,0,,73,0
3008,note_on,,0,0,1,,,,,,,,,,0,,76,0
3008,note_on,,320,0,1,,,,,,,,,,0,,79,0
3120,note_on,,112,0,1,,,,,,,,,,0,,79,100
3164,note_on,,44,0,1,,,,,,,,,,0,,79,0
3168,note_on,,4,0,1,,,,,,,,,,0,,81,100
3212,note_on,,44,0,1,,,,,,,,,,0,,81,0
3216,note_on,,4,0,1,,,,,,,,,,0,,83,100
3236,note_on,,20,0,1,,,,,,,,,,0,,83,0
3240,note_on,,4,0,1,,,,,,,,,,0,,81,100
3284,note_on,,44,0,1,,,,,,,,,,0,,81,0
3288,note_on,,4,0,1,,,,,,,,,,0,,79,100
3308,note_on,,20,0,1,,,,,,,,,,0,,79,0
3312,note_on,,4,0,1,,,,,,,,,,0,,81,100
3356,note_on,,44,0,1,,,,,,,,,,0,,81,0
3360,note_on,,4,0,1,,,,,,,,,,0,,83,100
3360,note_on,,0,0,2,,,,,,,,,,1,,45,0
3360,note_on,,672,0,2,,,,,,,,,,1,,57,0
3360,note_on,,0,0,2,,,,,,,,,,1,,52,0
3404,note_on,,44,0,1,,,,,,,,,,0,,83,0
3408,note_on,,4,0,1,,,,,,,,,,0,,79,100
3452,note_on,,44,0,1,,,,,,,,,,0,,79,0
3456,note_on,,0,0,2,,,,,,,,,,1,,54,100
3456,note_on,,96,0,2,,,,,,,,,,1,,50,100
3456,note_on,,0,0,1,,,,,,,,,,0,,69,100
3456,note_on,,0,0,2,,,,,,,,,,1,,57,100
3456,note_on,,4,0,1,,,,,,,,,,0,,79,100
3456,note_on,,0,0,2,,,,,,,,,,1,,62,100
3500,note_on,,44,0,1,,,,,,,,,,0,,79,0
3504,note_on,,4,0,1,,,,,,,,,,0,,79,100
3548,note_on,,44,0,1,,,,,,,,,,0,,79,0
3552,note_on,,4,0,1,,,,,,,,,,0,,78,100
3596,note_on,,44,0,1,,,,,,,,,,0,,78,0
3600,note_on,,4,0,1,,,,,,,,,,0,,79,100
3644,note_on,,44,0,1,,,,,,,,,,0,,79,0
3648,note_on,,4,0,1,,,,,,,,,,0,,78,100
3692,note_on,,44,0,1,,,,,,,,,,0,,78,0
3696,note_on,,4,0,1,,,,,,,,,,0,,79,100
3740,note_on,,44,0,1,,,,,,,,,,0,,79,0
3744,note_on,,4,0,1,,,,,,,,,,0,,78,100
3776,note_on,,32,0,1,,,,,,,,,,0,,69,0
3776,note_on,,0,0,2,,,,,,,,,,1,,50,0
3776,note_on,,0,0,2,,,,,,,,,,1,,54,0
3776,note_on,,0,0,2,,,,,,,,,,1,,57,0
3776,note_on,,320,0,2,,,,,,,,,,1,,62,0
3788,note_on,,12,0,1,,,,,,,,,,0,,78,0
3792,note_on,,4,0,1,,,,,,,,,,0,,76,100
3836,note_on,,44,0,1,,,,,,,,,,0,,76,0
3840,note_on,,0,0,1,,,,,,,,,,0,,66,100
3840,note_on,,4,0,1,,,,,,,,,,0,,74,100
3840,note_on,,64,0,2,,,,,,,,,,1,,62,100
4032,note_on,,192,0,2,,,,,,,,,,1,,62,0
4032,note_on,,0,0,2,,,,,,,,,,1,,60,100
4160,note_on,,0,0,1,,,,,,,,,,0,,74,0
4160,note_on,,320,0,1,,,,,,,,,,0,,66,0
4220,note_on,,188,0,2,,,,,,,,,,1,,60,0
4224,note_on,,4,0,2,,,,,,,,,,1,,62,100
4248,note_on,,24,0,2,,,,,,,,,,1,,62,0
4248,note_on,,0,0,2,,,,,,,,,,1,,60,100
4272,note_on,,0,0,2,,,,,,,,,,1,,62,100
4272,note_on,,24,0,2,,,,,,,,,,1,,60,0
4296,note_on,,24,0,2,,,,,,,,,,1,,62,0
4296,note_on,,0,0,2,,,,,,,,,,1,,60,100
4320,note_on,,24,0,2,,,,,,,,,,1,,60,0
4320,note_on,,0,0,2,,,,,,,,,,1,,62,100
4344,note_on,,24,0,2,,,,,,,,,,1,,62,0
4344,note_on,,0,0,2,,,,,,,,,,1,,60,100
4464,note_on,,120,0,2,,,,,,,,,,1,,60,0
4464,note_on,,0,0,2,,,,,,,,,,1,,59,100
4512,note_on,,48,0,2,,,,,,,,,,1,,59,0
4512,note_on,,0,0,2,,,,,,,,,,1,,60,100
4560,note_on,,0,0,2,,,,,,,,,,1,,62,100
4560,note_on,,48,0,2,,,,,,,,,,1,,60,0
4604,note_on,,44,0,2,,,,,,,,,,1,,62,0
4608,note_on,,4,0,2,,,,,,,,,,1,,59,100
4608,note_on,,0,0,2,,,,,,,,,,1,,62,100
4608,note_on,,448,0,1,,,,,,,,,,0,,67,100
4800,note_on,,192,0,1,,,,,,,,,,0,,74,100
4992,note_on,,192,0,1,,,,,,,,,,0,,74,0
4992,note_on,,0,0,1,,,,,,,,,,0,,79,100
5184,note_on,,0,0,1,,,,,,,,,,0,,78,100
5184,note_on,,192,0,1,,,,,,,,,,0,,79,0
5280,note_on,,0,0,2,,,,,,,,,,1,,59,0
5280,note_on,,672,0,2,,,,,,,,,,1,,62,0
5280,note_on,,96,0,1,,,,,,,,,,0,,67,0
5372,note_on,,92,0,1,,,,,,,,,,0,,78,0
5376,note_on,,96,0,2,,,,,,,,,,1,,59,100
5376,note_on,,4,0,1,,,,,,,,,,0,,78,100
5376,note_on,,0,0,1,,,,,,,,,,0,,67,100
5376,note_on,,0,0,2,,,,,,,,,,1,,62,100
5664,note_on,,288,0,1,,,,,,,,,,0,,78,0
5664,note_on,,0,0,1,,,,,,,,,,0,,76,100
5696,note_on,,32,0,1,,,,,,,,,,0,,67,0
5696,note_on,,320,0,2,,,,,,,,,,1,,62,0
5696,note_on,,0,0,2,,,,,,,,,,1,,59,0
5756,note_on,,60,0,1,,,,,,,,,,0,,76,0
5760,note_on,,64,0,2,,,,,,,,,,1,,60,100
5760,note_on,,4,0,1,,,,,,,,,,0,,76,100
5760,note_on,,0,0,1,,,,,,,,,,0,,67,100
6048,note_on,,288,0,1,,,,,,,,,,0,,76,0
6048,note_on,,0,0,1,,,,,,,,,,0,,74,100
6080,note_on,,32,0,1,,,,,,,,,,0,,67,0
6080,note_on,,320,0,2,,,,,,,,,,1,,60,0
6140,note_on,,60,0,1,,,,,,,,,,0,,74,0
6144,note_on,,0,0,1,,,,,,,,,,0,,67,100
6144,note_on,,4,0,1,,,,,,,,,,0,,74,100
6144,note_on,,64,0,2,,,,,,,,,,1,,59,100
6432,note_on,,288,0,1,,,,,,,,,,0,,74,0
6432,note_on,,0,0,1,,,,,,,,,,0,,72,100
6464,note_on,,32,0,1,,,,,,,,,,0,,67,0
6464,note_on,,320,0,2,,,,,,,,,,1,,59,0
6524,note_on,,60,0,1,,,,,,,,,,0,,72,0
6528,note_on,,64,0,2,,,,,,,,,,1,,57,100
6528,note_on,,4,0,1,,,,,,,,,,0,,72,100
6528,note_on,,0,0,1,,,,,,,,,,0,,66,100
6816,note_on,,288,0,1,,,,,,,,,,0,,72,0
6816,note_on,,0,0,1,,,,,,,,,,0,,71,100
6848,note_on,,320,0,2,,,,,,,,,,1,,57,0
6848,note_on,,32,0,1,,,,,,,,,,0,,66,0
6908,note_on,,60,0,1,,,,,,,,,,0,,71,0
6912,note_on,,64,0,2,,,,,,,,,,1,,55,100
6912,note_on,,4,0,1,,,,,,,,,,0,,71,100
6912,note_on,,0,0,1,,,,,,,,,,0,,67,100
7100,note_on,,188,0,1,,,,,,,,,,0,,71,0
7100,note_on,,188,0,2,,,,,,,,,,1,,55,0
7104,note_on,,4,0,1,,,,,,,,,,0,,76,100
7104,note_on,,4,0,2,,,,,,,,,,1,,48,100
7196,note_on,,92,0,1,,,,,,,,,,0,,76,0
7200,note_on,,4,0,1,,,,,,,,,,0,,69,100
7232,note_on,,32,0,1,,,,,,,,,,0,,67,0
7292,note_on,,60,0,1,,,,,,,,,,0,,69,0
7292,note_on,,188,0,2,,,,,,,,,,1,,48,0
7296,note_on,,0,0,1,,,,,,,,,,0,,62,100
7296,note_on,,0,0,1,,,,,,,,,,0,,67,100
7296,note_on,,4,0,2,,,,,,,,,,1,,50,100
7296,note_on,,4,0,1,,,,,,,,,,0,,71,100
7616,note_on,,320,0,2,,,,,,,,,,1,,50,0
7616,note_on,,0,0,1,,,,,,,,,,0,,62,0
7616,note_on,,0,0,1,,,,,,,,,,0,,71,0
7616,note_on,,320,0,1,,,,,,,,,,0,,67,0
7680,note_on,,0,0,1,,,,,,,,,,0,,66,100
7680,note_on,,64,0,1,,,,,,,,,,0,,71,100
7680,note_on,,64,0,2,,,,,,,,,,1,,38,100
7680,note_on,,0,0,1,,,,,,,,,,0,,60,100
7724,note_on,,44,0,1,,,,,,,,,,0,,71,0
7728,note_on,,4,0,1,,,,,,,,,,0,,69,100
7772,note_on,,44,0,1,,,,,,,,,,0,,69,0
7776,note_on,,4,0,1,,,,,,,,,,0,,71,100
7820,note_on,,44,0,1,,,,,,,,,,0,,71,0
7824,note_on,,4,0,1,,,,,,,,,,0,,69,100
7868,note_on,,44,0,1,,,,,,,,,,0,,69,0
7872,note_on,,4,0,1,,,,,,,,,,0,,71,100
7916,note_on,,44,0,1,,,,,,,,,,0,,71,0
7920,note_on,,4,0,1,,,,,,,,,,0,,69,100
7964,note_on,,44,0,1,,,,,,,,,,0,,69,0
7968,note_on,,4,0,1,,,,,,,,,,0,,67,100
8000,note_on,,32,0,1,,,,,,,,,,0,,66,0
8000,note_on,,0,0,1,,,,,,,,,,0,,60,0
8000,note_on,,320,0,2,,,,,,,,,,1,,38,0
8064,note_on,,64,0,1,,,,,,,,,,0,,62,100
8064,note_on,,64,0,2,,,,,,,,,,1,,43,100
8064,note_on,,0,0,1,,,,,,,,,,0,,60,100
8252,note_on,,188,0,1,,,,,,,,,,0,,60,0
8256,note_on,,4,0,1,,,,,,,,,,0,,59,100
8348,note_on,,92,0,1,,,,,,,,,,0,,59,0
8352,note_on,,4,0,1,,,,,,,,,,0,,57,100
8384,note_on,,320,0,2,,,,,,,,,,1,,43,0
8384,note_on,,0,0,1,,,,,,,,,,0,,67,0
8384,note_on,,32,0,1,,,,,,,,,,0,,62,0
8444,note_on,,60,0,1,,,,,,,,,,0,,57,0
8448,note_on,,0,0,1,,,,,,,,,,0,,67,100
8448,note_on,,0,0,1,,,,,,,,,,0,,59,100
8448,note_on,,4,0,1,,,,,,,,,,0,,55,100
8448,note_on,,64,0,2,,,,,,,,,,1,,43,100
8768,note_on,,0,0,1,,,,,,,,,,0,,59,0
8768,note_on,,320,0,1,,,,,,,,,,0,,67,0
8768,note_on,,0,0,1,,,,,,,,,,0,,55,0
8880,note_on,,112,0,1,,,,,,,,,,0,,62,100
8928,note_on,,48,0,1,,,,,,,,,,0,,62,0
8928,note_on,,0,0,1,,,,,,,,,,0,,64,100
8976,note_on,,48,0,1,,,,,,,,,,0,,64,0
8976,note_on,,0,0,1,,,,,,,,,,0,,66,100
9024,note_on,,48,0,1,,,,,,,,,,0,,66,0
9024,note_on,,0,0,1,,,,,,,,,,0,,69,100
9048,note_on,,24,0,1,,,,,,,,,,0,,69,0
9048,note_on,,0,0,1,,,,,,,,,,0,,67,100
9096,note_on,,0,0,1,,,,,,,,,,0,,66,100
9096,note_on,,48,0,1,,,,,,,,,,0,,67,0
9120,note_on,,672,0,2,,,,,,,,,,1,,43,0
9120,note_on,,24,0,1,,,,,,,,,,0,,66,0
9120,note_on,,0,0,1,,,,,,,,,,0,,67,100
9168,note_on,,0,0,1,,,,,,,,,,0,,69,100
9168,note_on,,48,0,1,,,,,,,,,,0,,67,0
9212,note_on,,44,0,1,,,,,,,,,,0,,69,0
9216,note_on,,0,0,1,,,,,,,,,,0,,74,100
9216,note_on,,0,0,1,,,,,,,,,,0,,71,100
9216,note_on,,4,0,1,,,,,,,,,,0,,67,100
9216,note_on,,96,0,2,,,,,,,,,,1,,55,100
9216,note_on,,0,0,2,,,,,,,,,,1,,59,100
9216,note_on,,0,0,2,,,,,,,,,,1,,62,100
9600,note_on,,0,0,1,,,,,,,,,,0,,71,100
9600,note_on,,0,0,2,,,,,,,,,,1,,47,100
9600,note_on,,0,0,2,,,,,,,,,,1,,43,100
9600,note_on,,0,0,2,,,,,,,,,,1,,55,0
9600,note_on,,0,0,2,,,,,,,,,,1,,59,0
9600,note_on,,384,0,2,,,,,,,,,,1,,62,0
9600,note_on,,0,0,2,,,,,,,,,,1,,50,100
9600,note_on,,384,0,1,,,,,,,,,,0,,74,0
9600,note_on,,0,0,1,,,,,,,,,,0,,71,0
9600,note_on,,0,0,1,,,,,,,,,,0,,67,0
9600,note_on,,0,0,1,,,,,,,,,,0,,74,100
9600,note_on,,0,0,2,,,,,,,,,,1,,55,100
9920,note_on,,320,0,1,,,,,,,,,,0,,74,0
10032,note_on,,112,0,1,,,,,,,,,,0,,74,100
10080,note_on,,48,0,1,,,,,,,,,,0,,74,0
10080,note_on,,0,0,1,,,,,,,,,,0,,76,100
10128,note_on,,0,0,1,,,,,,,,,,0,,78,100
10128,note_on,,48,0,1,,,,,,,,,,0,,76,0
10152,note_on,,0,0,1,,,,,,,,,,0,,76,100
10152,note_on,,24,0,1,,,,,,,,,,0,,78,0
10176,note_on,,0,0,1,,,,,,,,,,0,,78,100
10176,note_on,,24,0,1,,,,,,,,,,0,,76,0
10200,note_on,,0,0,1,,,,,,,,,,0,,76,100
10200,note_on,,24,0,1,,,,,,,,,,0,,78,0
10224,note_on,,0,0,1,,,,,,,,,,0,,78,100
10224,note_on,,24,0,1,,,,,,,,,,0,,76,0
10248,note_on,,24,0,1,,,,,,,,,,0,,78,0
10248,note_on,,0,0,1,,,,,,,,,,0,,74,100
10272,note_on,,0,0,2,,,,,,,,,,1,,50,0
10272,note_on,,672,0,2,,,,,,,,,,1,,55,0
10272,note_on,,0,0,1,,,,,,,,,,0,,71,0
10272,note_on,,24,0,1,,,,,,,,,,0,,74,0
10272,note_on,,0,0,2,,,,,,,,,,1,,47,0
10272,note_on,,0,0,1,,,,,,,,,,0,,76,100
10272,note_on,,0,0,2,,,,,,,,,,1,,43,0
10320,note_on,,48,0,1,,,,,,,,,,0,,76,0
10320,note_on,,0,0,1,,,,,,,,,,0,,78,100
10364,note_on,,44,0,1,,,,,,,,,,0,,78,0
10368,note_on,,4,0,1,,,,,,,,,,0,,66,100
10368,note_on,,0,0,2,,,,,,,,,,1,,57,100
10368,note_on,,0,0,1,,,,,,,,,,0,,69,100
10368,note_on,,0,0,1,,,,,,,,,,0,,74,100
10368,note_on,,96,0,2,,,,,,,,,,1,,54,100
10368,note_on,,0,0,2,,,,,,,,,,1,,62,100
10752,note_on,,384,0,1,,,,,,,,,,0,,74,0
10752,note_on,,0,0,1,,,,,,,,,,0,,69,0
10752,note_on,,0,0,1,,,,,,,,,,0,,66,0
10752,note_on,,0,0,1,,,,,,,,,,0,,66,100
10752,note_on,,0,0,1,,,,,,,,,,0,,69,100
10752,note_on,,0,0,1,,,,,,,,,,0,,74,100
10752,note_on,,0,0,2,,,,,,,,,,1,,50,100
10752,note_on,,0,0,2,,,,,,,,,,1,,57,0
10752,note_on,,0,0,2,,,,,,,,,,1,,54,0
10752,note_on,,0,0,2,,,,,,,,,,1,,42,100
10752,note_on,,0,0,2,,,,,,,,,,1,,45,100
10752,note_on,,384,0,2,,,,,,,,,,1,,62,0
10752,note_on,,0,0,2,,,,,,,,,,1,,54,100
11072,note_on,,0,0,1,,,,,,,,,,0,,66,0
11072,note_on,,320,0,1,,,,,,,,,,0,,74,0
11072,note_on,,0,0,1,,,,,,,,,,0,,69,0
11184,note_on,,112,0,1,,,,,,,,,,0,,69,100
11232,note_on,,0,0,1,,,,,,,,,,0,,71,100
11232,note_on,,48,0,1,,,,,,,,,,0,,69,0
11280,note_on,,0,0,1,,,,,,,,,,0,,73,100
11280,note_on,,48,0,1,,,,,,,,,,0,,71,0
11328,note_on,,48,0,1,,,,,,,,,,0,,73,0
11328,note_on,,0,0,1,,,,,,,,,,0,,74,100
11376,note_on,,0,0,1,,,,,,,,,,0,,76,100
11376,note_on,,48,0,1,,,,,,,,,,0,,74,0
11400,note_on,,24,0,1,,,,,,,,,,0,,76,0
11400,note_on,,0,0,1,,,,,,,,,,0,,78,100
11424,note_on,,24,0,1,,,,,,,,,,0,,78,0
11424,note_on,,0,0,1,,,,,,,,,,0,,79,100
11424,note_on,,0,0,2,,,,,,,,,,1,,42,0
11424,note_on,,0,0,2,,,,,,,,,,1,,45,0
11424,note_on,,0,0,2,,,,,,,,,,1,,50,0
11424,note_on,,672,0,2,,,,,,,,,,1,,54,0
11448,note_on,,24,0,1,,,,,,,,,,0,,79,0
11448,note_on,,0,0,1,,,,,,,,,,0,,81,100
11472,note_on,,24,0,1,,,,,,,,,,0,,81,0
11472,note_on,,0,0,1,,,,,,,,,,0,,83,100
11496,note_on,,24,0,1,,,,,,,,,,0,,83,0
11496,note_on,,0,0,1,,,,,,,,,,0,,79,100
11516,note_on,,20,0,1,,,,,,,,,,0,,79,0
11520,note_on,,4,0,1,,,,,,,,,,0,,79,100
11520,note_on,,0,0,1,,,,,,,,,,0,,71,100
11520,note_on,,0,0,2,,,,,,,,,,1,,55,100
11520,note_on,,0,0,2,,,,,,,,,,1,,59,100
11520,note_on,,96,0,2,,,,,,,,,,1,,52,100
11520,note_on,,0,0,1,,,,,,,,,,0,,74,100
11708,note_on,,188,0,1,,,,,,,,,,0,,74,0
11708,note_on,,0,0,1,,,,,,,,,,0,,71,0
11712,note_on,,4,0,1,,,,,,,,,,0,,79,0
11712,note_on,,0,0,1,,,,,,,,,,0,,74,100
11736,note_on,,24,0,1,,,,,,,,,,0,,74,0
11736,note_on,,0,0,1,,,,,,,,,,0,,73,100
11760,note_on,,0,0,1,,,,,,,,,,0,,74,100
11760,note_on,,24,0,1,,,,,,,,,,0,,73,0
11784,note_on,,24,0,1,,,,,,,,,,0,,74,0
11784,note_on,,0,0,1,,,,,,,,,,0,,73,100
11808,note_on,,24,0,1,,,,,,,,,,0,,73,0
11808,note_on,,0,0,1,,,,,,,,,,0,,74,100
11832,note_on,,24,0,1,,,,,,,,,,0,,74,0
11832,note_on,,0,0,1,,,,,,,,,,0,,73,100
11852,note_on,,20,0,1,,,,,,,,,,0,,73,0
11856,note_on,,4,0,1,,,,,,,,,,0,,71,100
11900,note_on,,44,0,1,,,,,,,,,,0,,71,0
11904,note_on,,0,0,2,,,,,,,,,,1,,55,0
11904,note_on,,0,0,2,,,,,,,,,,1,,52,0
11904,note_on,,0,0,2,,,,,,,,,,1,,45,100
11904,note_on,,0,0,2,,,,,,,,,,1,,52,100
11904,note_on,,0,0,2,,,,,,,,,,1,,57,100
11904,note_on,,384,0,2,,,,,,,,,,1,,59,0
11904,note_on,,4,0,1,,,,,,,,,,0,,73,100
11904,note_on,,0,0,1,,,,,,,,,,0,,76,100
11904,note_on,,0,0,1,,,,,,,,,,0,,79,100
12224,note_on,,0,0,1,,,,,,,,,,0,,76,0
12224,note_on,,320,0,1,,,,,,,,,,0,,79,0
12224,note_on,,0,0,1,,,,,,,,,,0,,73,0
12336,note_on,,112,0,1,,,,,,,,,,0,,79,100
12380,note_on,,44,0,1,,,,,,,,,,0,,79,0
12384,note_on,,4,0,1,,,,,,,,,,0,,81,100
12428,note_on,,44,0,1,,,,,,,,,,0,,81,0
12432,note_on,,4,0,1,,,,,,,,,,0,,83,100
12452,note_on,,20,0,1,,,,,,,,,,0,,83,0
12456,note_on,,4,0,1,,,,,,,,,,0,,81,100
12500,note_on,,44,0,1,,,,,,,,,,0,,81,0
12504,note_on,,4,0,1,,,,,,,,,,0,,79,100
12524,note_on,,20,0,1,,,,,,,,,,0,,79,0
12528,note_on,,4,0,1,,,,,,,,,,0,,81,100
12572,note_on,,44,0,1,,,,,,,,,,0,,81,0
12576,note_on,,4,0,1,,,,,,,,,,0,,83,100
12576,note_on,,0,0,2,,,,,,,,,,1,,45,0
12576,note_on,,0,0,2,,,,,,,,,,1,,52,0
12576,note_on,,672,0,2,,,,,,,,,,1,,57,0
12620,note_on,,44,0,1,,,,,,,,,,0,,83,0
12624,note_on,,4,0,1,,,,,,,,,,0,,79,100
12668,note_on,,44,0,1,,,,,,,,,,0,,79,0
12672,note_on,,0,0,2,,,,,,,,,,1,,54,100
12672,note_on,,96,0,2,,,,,,,,,,1,,50,100
12672,note_on,,0,0,2,,,,,,,,,,1,,62,100
12672,note_on,,0,0,2,,,,,,,,,,1,,57,100
12672,note_on,,4,0,1,,,,,,,,,,0,,79,100
12672,note_on,,0,0,1,,,,,,,,,,0,,69,100
12716,note_on,,44,0,1,,,,,,,,,,0,,79,0
12720,note_on,,4,0,1,,,,,,,,,,0,,79,100
12764,note_on,,44,0,1,,,,,,,,,,0,,79,0
12768,note_on,,4,0,1,,,,,,,,,,0,,78,100
12812,note_on,,44,0,1,,,,,,,,,,0,,78,0
12816,note_on,,4,0,1,,,,,,,,,,0,,79,100
12860,note_on,,44,0,1,,,,,,,,,,0,,79,0
12864,note_on,,4,0,1,,,,,,,,,,0,,78,100
12908,note_on,,44,0,1,,,,,,,,,,0,,78,0
12912,note_on,,4,0,1,,,,,,,,,,0,,79,100
12956,note_on,,44,0,1,,,,,,,,,,0,,79,0
12960,note_on,,4,0,1,,,,,,,,,,0,,78,100
12992,note_on,,32,0,1,,,,,,,,,,0,,69,0
12992,note_on,,320,0,2,,,,,,,,,,1,,62,0
12992,note_on,,0,0,2,,,,,,,,,,1,,50,0
12992,note_on,,0,0,2,,,,,,,,,,1,,54,0
12992,note_on,,0,0,2,,,,,,,,,,1,,57,0
13004,note_on,,12,0,1,,,,,,,,,,0,,78,0
13008,note_on,,4,0,1,,,,,,,,,,0,,76,100
13052,note_on,,44,0,1,,,,,,,,,,0,,76,0
13056,note_on,,64,0,2,,,,,,,,,,1,,62,100
13056,note_on,,4,0,1,,,,,,,,,,0,,74,100
13056,note_on,,0,0,1,,,,,,,,,,0,,66,100
13248,note_on,,0,0,2,,,,,,,,,,1,,60,100
13248,note_on,,192,0,2,,,,,,,,,,1,,62,0
13376,note_on,,0,0,1,,,,,,,,,,0,,74,0
13376,note_on,,320,0,1,,,,,,,,,,0,,66,0
13436,note_on,,188,0,2,,,,,,,,,,1,,60,0
13440,note_on,,4,0,2,,,,,,,,,,1,,62,100
13464,note_on,,0,0,2,,,,,,,,,,1,,60,100
13464,note_on,,24,0,2,,,,,,,,,,1,,62,0
13488,note_on,,0,0,2,,,,,,,,,,1,,62,100
13488,note_on,,24,0,2,,,,,,,,,,1,,60,0
13512,note_on,,0,0,2,,,,,,,,,,1,,60,100
13512,note_on,,24,0,2,,,,,,,,,,1,,62,0
13536,note_on,,0,0,2,,,,,,,,,,1,,62,100
13536,note_on,,24,0,2,,,,,,,,,,1,,60,0
13560,note_on,,24,0,2,,,,,,,,,,1,,62,0
13560,note_on,,0,0,2,,,,,,,,,,1,,60,100
13680,note_on,,120,0,2,,,,,,,,,,1,,60,0
13680,note_on,,0,0,2,,,,,,,,,,1,,59,100
13728,note_on,,0,0,2,,,,,,,,,,1,,60,100
13728,note_on,,48,0,2,,,,,,,,,,1,,59,0
13776,note_on,,0,0,2,,,,,,,,,,1,,62,100
13776,note_on,,48,0,2,,,,,,,,,,1,,60,0
13820,note_on,,44,0,2,,,,,,,,,,1,,62,0
13824,note_on,,4,0,2,,,,,,,,,,1,,59,100
13824,note_on,,0,0,2,,,,,,,,,,1,,62,100
13824,note_on,,448,0,1,,,,,,,,,,0,,67,100
14016,note_on,,192,0,1,,,,,,,,,,0,,74,100
14204,note_on,,188,0,1,,,,,,,,,,0,,74,0
14208,note_on,,4,0,1,,,,,,,,,,0,,79,100
14396,note_on,,188,0,1,,,,,,,,,,0,,79,0
14400,note_on,,4,0,1,,,,,,,,,,0,,78,100
14496,note_on,,96,0,1,,,,,,,,,,0,,67,0
14496,note_on,,0,0,2,,,,,,,,,,1,,59,0
14496,note_on,,672,0,2,,,,,,,,,,1,,62,0
14588,note_on,,92,0,1,,,,,,,,,,0,,78,0
14592,note_on,,4,0,1,,,,,,,,,,0,,79,100
14592,note_on,,0,0,2,,,,,,,,,,1,,62,100
14592,note_on,,96,0,2,,,,,,,,,,1,,59,100
14592,note_on,,0,0,1,,,,,,,,,,0,,67,100
14612,note_on,,20,0,1,,,,,,,,,,0,,79,0
14616,note_on,,4,0,1,,,,,,,,,,0,,78,100
14636,note_on,,20,0,1,,,,,,,,,,0,,78,0
14640,note_on,,4,0,1,,,,,,,,,,0,,79,100
14660,note_on,,20,0,1,,,,,,,,,,0,,79,0
14664,note_on,,4,0,1,,,,,,,,,,0,,78,100
14684,note_on,,20,0,1,,,,,,,,,,0,,78,0
14688,note_on,,4,0,1,,,,,,,,,,0,,79,100
14708,note_on,,20,0,1,,,,,,,,,,0,,79,0
14712,note_on,,4,0,1,,,,,,,,,,0,,78,100
14876,note_on,,164,0,1,,,,,,,,,,0,,78,0
14880,note_on,,4,0,1,,,,,,,,,,0,,76,100
14912,note_on,,0,0,2,,,,,,,,,,1,,59,0
14912,note_on,,32,0,1,,,,,,,,,,0,,67,0
14912,note_on,,320,0,2,,,,,,,,,,1,,62,0
14972,note_on,,60,0,1,,,,,,,,,,0,,76,0
14976,note_on,,64,0,2,,,,,,,,,,1,,60,100
14976,note_on,,0,0,1,,,,,,,,,,0,,67,100
14976,note_on,,4,0,1,,,,,,,,,,0,,78,100
14996,note_on,,20,0,1,,,,,,,,,,0,,78,0
15000,note_on,,4,0,1,,,,,,,,,,0,,76,100
15020,note_on,,20,0,1,,,,,,,,,,0,,76,0
15024,note_on,,4,0,1,,,,,,,,,,0,,78,100
15044,note_on,,20,0,1,,,,,,,,,,0,,78,0
15048,note_on,,4,0,1,,,,,,,,,,0,,76,100
15068,note_on,,20,0,1,,,,,,,,,,0,,76,0
15072,note_on,,4,0,1,,,,,,,,,,0,,78,100
15092,note_on,,20,0,1,,,,,,,,,,0,,78,0
15096,note_on,,4,0,1,,,,,,,,,,0,,76,100
15260,note_on,,164,0,1,,,,,,,,,,0,,76,0
15264,note_on,,4,0,1,,,,,,,,,,0,,74,100
15296,note_on,,32,0,1,,,,,,,,,,0,,67,0
15356,note_on,,60,0,1,,,,,,,,,,0,,74,0
15360,note_on,,4,0,1,,,,,,,,,,0,,76,100
15360,note_on,,0,0,1,,,,,,,,,,0,,67,100
15360,note_on,,384,0,2,,,,,,,,,,1,,60,0
15360,note_on,,0,0,2,,,,,,,,,,1,,59,100
15380,note_on,,20,0,1,,,,,,,,,,0,,76,0
15384,note_on,,4,0,1,,,,,,,,,,0,,74,100
15404,note_on,,20,0,1,,,,,,,,,,0,,74,0
15408,note_on,,4,0,1,,,,,,,,,,0,,76,100
15428,note_on,,20,0,1,,,,,,,,,,0,,76,0
15432,note_on,,4,0,1,,,,,,,,,,0,,74,100
15452,note_on,,20,0,1,,,,,,,,,,0,,74,0
15456,note_on,,4,0,1,,,,,,,,,,0,,76,100
15476,note_on,,20,0,1,,,,,,,,,,0,,76,0
15480,note_on,,4,0,1,,,,,,,,,,0,,74,100
15644,note_on,,164,0,1,,,,,,,,,,0,,74,0
15648,note_on,,4,0,1,,,,,,,,,,0,,72,100
15680,note_on,,32,0,1,,,,,,,,,,0,,67,0
15740,note_on,,60,0,1,,,,,,,,,,0,,72,0
15744,note_on,,4,0,1,,,,,,,,,,0,,74,100
15744,note_on,,0,0,2,,,,,,,,,,1,,57,100
15744,note_on,,384,0,2,,,,,,,,,,1,,59,0
15744,note_on,,0,0,1,,,,,,,,,,0,,66,100
15764,note_on,,20,0,1,,,,,,,,,,0,,74,0
15768,note_on,,4,0,1,,,,,,,,,,0,,72,100
15788,note_on,,20,0,1,,,,,,,,,,0,,72,0
15792,note_on,,4,0,1,,,,,,,,,,0,,74,100
15812,note_on,,20,0,1,,,,,,,,,,0,,74,0
15816,note_on,,4,0,1,,,,,,,,,,0,,72,100
15836,note_on,,20,0,1,,,,,,,,,,0,,72,0
15840,note_on,,4,0,1,,,,,,,,,,0,,74,100
15860,note_on,,20,0,1,,,,,,,,,,0,,74,0
15864,note_on,,4,0,1,,,,,,,,,,0,,72,100
16028,note_on,,164,0,1,,,,,,,,,,0,,72,0
16032,note_on,,4,0,1,,,,,,,,,,0,,71,100
16064,note_on,,32,0,1,,,,,,,,,,0,,66,0
16124,note_on,,60,0,1,,,,,,,,,,0,,71,0
16128,note_on,,0,0,1,,,,,,,,,,0,,67,100
16128,note_on,,0,0,2,,,,,,,,,,1,,55,100
16128,note_on,,384,0,2,,,,,,,,,,1,,57,0
16128,note_on,,4,0,1,,,,,,,,,,0,,71,100
16128,note_on,,0,0,1,,,,,,,,,,0,,62,100
16316,note_on,,0,0,1,,,,,,,,,,0,,62,0
16316,note_on,,188,0,1,,,,,,,,,,0,,67,0
16320,note_on,,0,0,1,,,,,,,,,,0,,64,100
16320,note_on,,0,0,1,,,,,,,,,,0,,67,100
16320,note_on,,4,0,1,,,,,,,,,,0,,71,0
16320,note_on,,192,0,2,,,,,,,,,,1,,55,0
16320,note_on,,0,0,2,,,,,,,,,,1,,48,100
16320,note_on,,0,0,1,,,,,,,,,,0,,76,100
16416,note_on,,96,0,1,,,,,,,,,,0,,76,0
16416,note_on,,0,0,1,,,,,,,,,,0,,69,100
16508,note_on,,92,0,1,,,,,,,,,,0,,69,0
16508,note_on,,0,0,1,,,,,,,,,,0,,67,0
16508,note_on,,0,0,1,,,,,,,,,,0,,64,0
16512,note_on,,192,0,2,,,,,,,,,,1,,48,0
16512,note_on,,4,0,1,,,,,,,,,,0,,71,100
16512,note_on,,0,0,1,,,,,,,,,,0,,67,100
16512,note_on,,0,0,2,,,,,,,,,,1,,50,100
16512,note_on,,0,0,1,,,,,,,,,,0,,62,100
16832,note_on,,320,0,1,,,,,,,,,,0,,67,0
16832,note_on,,0,0,1,,,,,,,,,,0,,71,0
16832,note_on,,0,0,1,,,,,,,,,,0,,62,0
16832,note_on,,320,0,2,,,,,,,,,,1,,50,0
16896,note_on,,64,0,1,,,,,,,,,,0,,71,100
16896,note_on,,0,0,1,,,,,,,,,,0,,60,100
16896,note_on,,0,0,1,,,,,,,,,,0,,66,100
16896,note_on,,64,0,2,,,,,,,,,,1,,38,100
16940,note_on,,44,0,1,,,,,,,,,,0,,71,0
16944,note_on,,4,0,1,,,,,,,,,,0,,69,100
16988,note_on,,44,0,1,,,,,,,,,,0,,69,0
16992,note_on,,4,0,1,,,,,,,,,,0,,71,100
17036,note_on,,44,0,1,,,,,,,,,,0,,71,0
17040,note_on,,4,0,1,,,,,,,,,,0,,69,100
17084,note_on,,44,0,1,,,,,,,,,,0,,69,0
17088,note_on,,4,0,1,,,,,,,,,,0,,71,100
17132,note_on,,44,0,1,,,,,,,,,,0,,71,0
17136,note_on,,4,0,1,,,,,,,,,,0,,69,100
17180,note_on,,44,0,1,,,,,,,,,,0,,69,0
17184,note_on,,4,0,1,,,,,,,,,,0,,67,100
17216,note_on,,0,0,1,,,,,,,,,,0,,60,0
17216,note_on,,320,0,2,,,,,,,,,,1,,38,0
17216,note_on,,32,0,1,,,,,,,,,,0,,66,0
17280,note_on,,64,0,1,,,,,,,,,,0,,62,100
17280,note_on,,64,0,2,,,,,,,,,,1,,43,100
17280,note_on,,0,0,2,,,,,,,,,,1,,55,100
17280,note_on,,0,0,1,,,,,,,,,,0,,60,100
17468,note_on,,188,0,1,,,,,,,,,,0,,60,0
17472,note_on,,4,0,1,,,,,,,,,,0,,59,100
17564,note_on,,92,0,1,,,,,,,,,,0,,59,0
17568,note_on,,4,0,1,,,,,,,,,,0,,57,100
17600,note_on,,32,0,1,,,,,,,,,,0,,62,0
17600,note_on,,0,0,1,,,,,,,,,,0,,67,0
17600,note_on,,320,0,2,,,,,,,,,,1,,43,0
17660,note_on,,60,0,1,,,,,,,,,,0,,57,0
17664,note_on,,64,0,2,,,,,,,,,,1,,43,100
17664,note_on,,0,0,2,,,,,,,,,,1,,50,100
17664,note_on,,4,0,1,,,,,,,,,,0,,55,100
17664,note_on,,0,0,1,,,,,,,,,,0,,59,100
17664,note_on,,0,0,1,,,,,,,,,,0,,67,100
17984,note_on,,320,0,1,,,,,,,,,,0,,67,0
17984,note_on,,320,0,2,,,,,,,,,,1,,55,0
17984,note_on,,0,0,1,,,,,,,,,,0,,59,0
17984,note_on,,0,0,1,,,,,,,,,,0,,55,0
18096,note_on,,112,0,1,,,,,,,,,,0,,62,100
18144,note_on,,48,0,1,,,,,,,,,,0,,62,0
18144,note_on,,0,0,1,,,,,,,,,,0,,64,100
18192,note_on,,0,0,1,,,,,,,,,,0,,66,100
18192,note_on,,48,0,1,,,,,,,,,,0,,64,0
18240,note_on,,0,0,1,,,,,,,,,,0,,69,100
18240,note_on,,48,0,1,,,,,,,,,,0,,66,0
18264,note_on,,0,0,1,,,,,,,,,,0,,67,100
18264,note_on,,24,0,1,,,,,,,,,,0,,69,0
18312,note_on,,48,0,1,,,,,,,,,,0,,67,0
18312,note_on,,0,0,1,,,,,,,,,,0,,66,100
18336,note_on,,352,0,2,,,,,,,,,,1,,50,0
18336,note_on,,0,0,1,,,,,,,,,,0,,67,100
18336,note_on,,0,0,2,,,,,,,,,,1,,43,0
18336,note_on,,24,0,1,,,,,,,,,,0,,66,0
18384,note_on,,48,0,1,,,,,,,,,,0,,67,0
18384,note_on,,0,0,1,,,,,,,,,,0,,69,100
18428,note_on,,44,0,1,,,,,,,,,,0,,69,0
18432,set_tempo,,18432,1,0,,,,,,714286,,,,,,,
18432,note_on,,4,0,1,,,,,,,,,,0,,71,100
18432,note_on,,0,0,2,,,,,,,,,,1,,55,100
18432,note_on,,0,0,2,,,,,,,,,,1,,50,100
18432,note_on,,0,0,2,,,,,,,,,,1,,47,100
18432,note_on,,96,0,2,,,,,,,,,,1,,43,100
18624,note_on,,192,0,1,,,,,,,,,,0,,71,0
18624,note_on,,0,0,1,,,,,,,,,,0,,62,100
18752,note_on,,0,0,2,,,,,,,,,,1,,43,0
18752,note_on,,0,0,2,,,,,,,,,,1,,50,0
18752,note_on,,320,0,2,,,,,,,,,,1,,55,0
18752,note_on,,0,0,2,,,,,,,,,,1,,47,0
18816,note_on,,0,0,1,,,,,,,,,,0,,67,100
18816,note_on,,192,0,1,,,,,,,,,,0,,62,0
18816,note_on,,0,0,2,,,,,,,,,,1,,43,100
18816,note_on,,64,0,2,,,,,,,,,,1,,31,100
19008,note_on,,192,0,1,,,,,,,,,,0,,67,0
19008,note_on,,0,0,1,,,,,,,,,,0,,71,100
19200,note_on,,192,0,1,,,,,,,,,,0,,71,0
19200,note_on,,0,0,1,,,,,,,,,,0,,69,100
19392,note_on,,192,0,1,,,,,,,,,,0,,69,0
19392,note_on,,0,0,1,,,,,,,,,,0,,67,100
19488,note_on,,0,0,2,,,,,,,,,,1,,31,0
19488,note_on,,672,0,2,,,,,,,,,,1,,43,0
19584,note_on,,96,0,2,,,,,,,,,,1,,54,100
19584,note_on,,0,0,2,,,,,,,,,,1,,57,100
19584,note_on,,0,0,2,,,,,,,,,,1,,62,100
19584,note_on,,192,0,1,,,,,,,,,,0,,67,0
19584,note_on,,0,0,1,,,,,,,,,,0,,74,100
19776,note_on,,192,0,1,,,,,,,,,,0,,74,0
19776,note_on,,0,0,1,,,,,,,,,,0,,69,100
19904,note_on,,320,0,2,,,,,,,,,,1,,62,0
19904,note_on,,0,0,2,,,,,,,,,,1,,57,0
19904,note_on,,0,0,2,,,,,,,,,,1,,54,0
19968,note_on,,64,0,2,,,,,,,,,,1,,42,100
19968,note_on,,0,0,2,,,,,,,,,,1,,45,100
19968,note_on,,0,0,2,,,,,,,,,,1,,50,100
19968,note_on,,0,0,1,,,,,,,,,,0,,74,100
19968,note_on,,0,0,2,,,,,,,,,,1,,54,100
19968,note_on,,192,0,1,,,,,,,,,,0,,69,0
20160,note_on,,0,0,1,,,,,,,,,,0,,76,100
20160,note_on,,192,0,1,,,,,,,,,,0,,74,0
20352,note_on,,0,0,1,,,,,,,,,,0,,78,100
20352,note_on,,192,0,1,,,,,,,,,,0,,76,0
20544,note_on,,192,0,1,,,,,,,,,,0,,78,0
20544,note_on,,0,0,1,,,,,,,,,,0,,74,100
20640,note_on,,672,0,2,,,,,,,,,,1,,54,0
20640,note_on,,0,0,2,,,,,,,,,,1,,42,0
20640,note_on,,0,0,2,,,,,,,,,,1,,45,0
20640,note_on,,0,0,2,,,,,,,,,,1,,50,0
20736,note_on,,192,0,1,,,,,,,,,,0,,74,0
20736,note_on,,96,0,2,,,,,,,,,,1,,52,100
20736,note_on,,0,0,2,,,,,,,,,,1,,55,100
20736,note_on,,0,0,2,,,,,,,,,,1,,59,100
20736,note_on,,0,0,2,,,,,,,,,,1,,64,100
20736,note_on,,0,0,1,,,,,,,,,,0,,79,100
20928,note_on,,0,0,1,,,,,,,,,,0,,71,100
20928,note_on,,192,0,1,,,,,,,,,,0,,79,0
21056,note_on,,0,0,2,,,,,,,,,,1,,55,0
21056,note_on,,0,0,2,,,,,,,,,,1,,59,0
21056,note_on,,0,0,2,,,,,,,,,,1,,52,0
21056,note_on,,320,0,2,,,,,,,,,,1,,64,0
21120,note_on,,64,0,2,,,,,,,,,,1,,57,100
21120,note_on,,0,0,2,,,,,,,,,,1,,61,100
21120,note_on,,0,0,1,,,,,,,,,,0,,74,100
21120,note_on,,192,0,1,,,,,,,,,,0,,71,0
21168,note_on,,48,0,1,,,,,,,,,,0,,74,0
21168,note_on,,0,0,1,,,,,,,,,,0,,73,100
21216,note_on,,0,0,1,,,,,,,,,,0,,74,100
21216,note_on,,48,0,1,,,,,,,,,,0,,73,0
21264,note_on,,0,0,1,,,,,,,,,,0,,73,100
21264,note_on,,48,0,1,,,,,,,,,,0,,74,0
21312,note_on,,48,0,1,,,,,,,,,,0,,73,0
21312,note_on,,0,0,1,,,,,,,,,,0,,83,100
21504,note_on,,192,0,1,,,,,,,,,,0,,83,0
21504,note_on,,0,0,1,,,,,,,,,,0,,81,100
21600,note_on,,96,0,1,,,,,,,,,,0,,81,0
21600,note_on,,0,0,1,,,,,,,,,,0,,83,100
21696,note_on,,96,0,1,,,,,,,,,,0,,83,0
21696,note_on,,0,0,1,,,,,,,,,,0,,79,100
21792,note_on,,672,0,2,,,,,,,,,,1,,61,0
21792,note_on,,0,0,2,,,,,,,,,,1,,57,0
21888,note_on,,96,0,2,,,,,,,,,,1,,50,100
21888,note_on,,0,0,1,,,,,,,,,,0,,78,100
21888,note_on,,192,0,1,,,,,,,,,,0,,79,0
21888,note_on,,0,0,2,,,,,,,,,,1,,54,100
21888,note_on,,0,0,2,,,,,,,,,,1,,62,100
21888,note_on,,0,0,2,,,,,,,,,,1,,57,100
22080,note_on,,0,0,1,,,,,,,,,,0,,81,100
22080,note_on,,192,0,1,,,,,,,,,,0,,78,0
22208,note_on,,0,0,2,,,,,,,,,,1,,50,0
22208,note_on,,0,0,2,,,,,,,,,,1,,54,0
22208,note_on,,0,0,2,,,,,,,,,,1,,57,0
22208,note_on,,320,0,2,,,,,,,,,,1,,62,0
22272,note_on,,64,0,2,,,,,,,,,,1,,54,100
22272,note_on,,192,0,1,,,,,,,,,,0,,81,0
22272,note_on,,0,0,1,,,,,,,,,,0,,74,100
22272,note_on,,0,0,2,,,,,,,,,,1,,57,100
22272,note_on,,0,0,2,,,,,,,,,,1,,62,100
22464,note_on,,0,0,1,,,,,,,,,,0,,78,100
22464,note_on,,192,0,1,,,,,,,,,,0,,74,0
22656,note_on,,192,0,1,,,,,,,,,,0,,78,0
22656,note_on,,0,0,1,,,,,,,,,,0,,69,100
22784,note_on,,0,0,2,,,,,,,,,,1,,57,0
22784,note_on,,512,0,2,,,,,,,,,,1,,62,0
22784,note_on,,0,0,2,,,,,,,,,,1,,54,0
22848,note_on,,64,0,2,,,,,,,,,,1,,54,100
22848,note_on,,0,0,2,,,,,,,,,,1,,57,100
22848,note_on,,0,0,2,,,,,,,,,,1,,62,100
22848,note_on,,0,0,1,,,,,,,,,,0,,72,100
22848,note_on,,192,0,1,,,,,,,,,,0,,69,0
23036,note_on,,0,0,2,,,,,,,,,,1,,54,0
23036,note_on,,188,0,2,,,,,,,,,,1,,62,0
23036,note_on,,188,0,1,,,,,,,,,,0,,72,0
23036,note_on,,0,0,2,,,,,,,,,,1,,57,0
23040,note_on,,4,0,2,,,,,,,,,,1,,55,100
23040,note_on,,0,0,2,,,,,,,,,,1,,62,100
23040,note_on,,4,0,1,,,,,,,,,,0,,71,100
23040,note_on,,0,0,2,,,,,,,,,,1,,59,100
23232,note_on,,0,0,1,,,,,,,,,,0,,74,100
23232,note_on,,192,0,1,,,,,,,,,,0,,71,0
23360,note_on,,0,0,2,,,,,,,,,,1,,55,0
23360,note_on,,0,0,2,,,,,,,,,,1,,59,0
23360,note_on,,320,0,2,,,,,,,,,,1,,62,0
23424,note_on,,64,0,2,,,,,,,,,,1,,47,100
23424,note_on,,0,0,2,,,,,,,,,,1,,50,100
23424,note_on,,0,0,2,,,,,,,,,,1,,59,100
23424,note_on,,0,0,2,,,,,,,,,,1,,55,100
23424,note_on,,192,0,1,,,,,,,,,,0,,74,0
23424,note_on,,0,0,1,,,,,,,,,,0,,67,100
23616,note_on,,0,0,1,,,,,,,,,,0,,71,100
23616,note_on,,192,0,1,,,,,,,,,,0,,67,0
23808,note_on,,192,0,1,,,,,,,,,,0,,71,0
23808,note_on,,0,0,1,,,,,,,,,,0,,62,100
23936,note_on,,512,0,2,,,,,,,,,,1,,59,0
23936,note_on,,0,0,2,,,,,,,,,,1,,47,0
23936,note_on,,0,0,2,,,,,,,,,,1,,50,0
23936,note_on,,0,0,2,,,,,,,,,,1,,55,0
24000,note_on,,0,0,1,,,,,,,,,,0,,66,100
24000,note_on,,192,0,1,,,,,,,,,,0,,62,0
24000,note_on,,64,0,2,,,,,,,,,,1,,47,100
24000,note_on,,0,0,2,,,,,,,,,,1,,50,100
24000,note_on,,0,0,2,,,,,,,,,,1,,55,100
24000,note_on,,0,0,2,,,,,,,,,,1,,59,100
24188,note_on,,0,0,2,,,,,,,,,,1,,47,0
24188,note_on,,0,0,2,,,,,,,,,,1,,50,0
24188,note_on,,0,0,2,,,,,,,,,,1,,55,0
24188,note_on,,188,0,2,,,,,,,,,,1,,59,0
24192,note_on,,0,0,2,,,,,,,,,,1,,52,100
24192,note_on,,4,0,2,,,,,,,,,,1,,48,100
24192,note_on,,0,0,1,,,,,,,,,,0,,64,100
24192,note_on,,0,0,2,,,,,,,,,,1,,55,100
24192,note_on,,192,0,1,,,,,,,,,,0,,66,0
24384,note_on,,0,0,1,,,,,,,,,,0,,67,100
24384,note_on,,192,0,1,,,,,,,,,,0,,64,0
24512,note_on,,0,0,2,,,,,,,,,,1,,48,0
24512,note_on,,0,0,2,,,,,,,,,,1,,52,0
24512,note_on,,320,0,2,,,,,,,,,,1,,55,0
24576,note_on,,0,0,2,,,,,,,,,,1,,48,100
24576,note_on,,64,0,2,,,,,,,,,,1,,45,100
24576,note_on,,0,0,2,,,,,,,,,,1,,54,100
24576,note_on,,0,0,1,,,,,,,,,,0,,60,100
24576,note_on,,0,0,1,,,,,,,,,,0,,66,100
24576,note_on,,192,0,1,,,,,,,,,,0,,67,0
24768,note_on,,0,0,1,,,,,,,,,,0,,72,100
24768,note_on,,192,0,1,,,,,,,,,,0,,66,0
24896,note_on,,320,0,2,,,,,,,,,,1,,54,0
24896,note_on,,0,0,2,,,,,,,,,,1,,48,0
24896,note_on,,0,0,2,,,,,,,,,,1,,45,0
24960,note_on,,192,0,1,,,,,,,,,,0,,72,0
24960,note_on,,64,0,2,,,,,,,,,,1,,47,100
24960,note_on,,0,0,1,,,,,,,,,,0,,62,100
24960,note_on,,0,0,1,,,,,,,,,,0,,60,0
24960,note_on,,0,0,2,,,,,,,,,,1,,55,100
24960,note_on,,0,0,2,,,,,,,,,,1,,50,100
25152,note_on,,0,0,1,,,,,,,,,,0,,71,100
25152,note_on,,192,0,1,,,,,,,,,,0,,62,0
25280,note_on,,0,0,2,,,,,,,,,,1,,47,0
25280,note_on,,0,0,2,,,,,,,,,,1,,50,0
25280,note_on,,320,0,2,,,,,,,,,,1,,55,0
25344,note_on,,192,0,1,,,,,,,,,,0,,71,0
25344,note_on,,0,0,1,,,,,,,,,,0,,69,100
25344,note_on,,0,0,1,,,,,,,,,,0,,64,100
25344,note_on,,0,0,2,,,,,,,,,,1,,60,100
25344,note_on,,64,0,2,,,,,,,,,,1,,48,100
25536,note_on,,192,0,1,,,,,,,,,,0,,69,0
25536,note_on,,0,0,1,,,,,,,,,,0,,67,100
25536,note_on,,0,0,2,,,,,,,,,,1,,59,100
25536,note_on,,192,0,2,,,,,,,,,,1,,60,0
25664,note_on,,128,0,2,,,,,,,,,,1,,48,0
25728,note_on,,0,0,2,,,,,,,,,,1,,50,100
25728,note_on,,192,0,1,,,,,,,,,,0,,67,0
25728,note_on,,0,0,1,,,,,,,,,,0,,62,100
25728,note_on,,0,0,1,,,,,,,,,,0,,64,0
25728,note_on,,0,0,2,,,,,,,,,,1,,57,100
25728,note_on,,64,0,2,,,,,,,,,,1,,59,0
25920,note_on,,0,0,2,,,,,,,,,,1,,55,100
25920,note_on,,192,0,2,,,,,,,,,,1,,57,0
25920,note_on,,192,0,1,,,,,,,,,,0,,67,100
26112,note_on,,192,0,1,,,,,,,,,,0,,67,0
26112,note_on,,0,0,1,,,,,,,,,,0,,66,100
26112,note_on,,0,0,2,,,,,,,,,,1,,57,100
26112,note_on,,192,0,2,,,,,,,,,,1,,55,0
26304,note_on,,192,0,1,,,,,,,,,,0,,62,0
26304,note_on,,0,0,1,,,,,,,,,,0,,60,100
26400,note_on,,288,0,2,,,,,,,,,,1,,50,0
26432,note_on,,32,0,2,,,,,,,,,,1,,57,0
26496,note_on,,64,0,2,,,,,,,,,,1,,55,100
26496,note_on,,0,0,1,,,,,,,,,,0,,67,100
26496,note_on,,0,0,1,,,,,,,,,,0,,62,100
26496,note_on,,192,0,1,,,,,,,,,,0,,66,0
26684,note_on,,188,0,1,,,,,,,,,,0,,60,0
26688,note_on,,4,0,1,,,,,,,,,,0,,60,100
26876,note_on,,188,0,1,,,,,,,,,,0,,60,0
26880,note_on,,4,0,1,,,,,,,,,,0,,59,100
26880,note_on,,0,0,2,,,,,,,,,,1,,50,100
26880,note_on,,384,0,2,,,,,,,,,,1,,43,100
27008,note_on,,128,0,1,,,,,,,,,,0,,67,0
27008,note_on,,0,0,1,,,,,,,,,,0,,62,0
27068,note_on,,60,0,1,,,,,,,,,,0,,59,0
27072,note_on,,4,0,1,,,,,,,,,,0,,60,100
27072,note_on,,0,0,1,,,,,,,,,,0,,66,100
27072,note_on,,0,0,1,,,,,,,,,,0,,57,100
27200,note_on,,320,0,2,,,,,,,,,,1,,43,0
27200,note_on,,0,0,2,,,,,,,,,,1,,55,0
27260,note_on,,0,0,1,,,,,,,,,,0,,60,0
27260,note_on,,188,0,1,,,,,,,,,,0,,57,0
27260,note_on,,0,0,1,,,,,,,,,,0,,66,0
27264,note_on,,4,0,1,,,,,,,,,,0,,62,100
27264,note_on,,0,0,1,,,,,,,,,,0,,67,100
27264,note_on,,0,0,1,,,,,,,,,,0,,59,100
27452,note_on,,0,0,1,,,,,,,,,,0,,67,0
27452,note_on,,188,0,1,,,,,,,,,,0,,59,0
27452,note_on,,0,0,1,,,,,,,,,,0,,62,0
27456,note_on,,4,0,1,,,,,,,,,,0,,66,100
27456,note_on,,0,0,1,,,,,,,,,,0,,60,100
27456,note_on,,0,0,1,,,,,,,,,,0,,69,100
27552,note_on,,352,0,2,,,,,,,,,,1,,50,0
27644,note_on,,188,0,1,,,,,,,,,,0,,60,0
27644,note_on,,0,0,1,,,,,,,,,,0,,69,0
27644,note_on,,0,0,1,,,,,,,,,,0,,66,0
27648,note_on,,96,0,2,,,,,,,,,,1,,43,100
27648,note_on,,0,0,2,,,,,,,,,,1,,55,100
27648,note_on,,0,0,1,,,,,,,,,,0,,71,100
27648,note_on,,0,0,1,,,,,,,,,,0,,62,100
27648,note_on,,4,0,1,,,,,,,,,,0,,67,100
27836,note_on,,0,0,2,,,,,,,,,,1,,43,0
27836,note_on,,188,0,2,,,,,,,,,,1,,55,0
27840,note_on,,4,0,2,,,,,,,,,,1,,38,100
27840,note_on,,0,0,2,,,,,,,,,,1,,50,100
27968,note_on,,0,0,1,,,,,,,,,,0,,71,0
27968,note_on,,320,0,1,,,,,,,,,,0,,62,0
27968,note_on,,0,0,1,,,,,,,,,,0,,67,0
28028,note_on,,0,0,2,,,,,,,,,,1,,38,0
28028,note_on,,188,0,2,,,,,,,,,,1,,50,0
28032,note_on,,0,0,2,,,,,,,,,,1,,55,100
28032,note_on,,64,0,1,,,,,,,,,,0,,67,100
28032,note_on,,4,0,2,,,,,,,,,,1,,43,100
28032,note_on,,0,0,1,,,,,,,,,,0,,71,100
28032,note_on,,0,0,1,,,,,,,,,,0,,62,100
28220,note_on,,0,0,2,,,,,,,,,,1,,43,0
28220,note_on,,188,0,2,,,,,,,,,,1,,55,0
28224,note_on,,4,0,2,,,,,,,,,,1,,45,100
28224,note_on,,0,0,2,,,,,,,,,,1,,57,100
28412,note_on,,0,0,2,,,,,,,,,,1,,45,0
28412,note_on,,188,0,2,,,,,,,,,,1,,57,0
28416,note_on,,4,0,2,,,,,,,,,,1,,47,100
28416,note_on,,0,0,2,,,,,,,,,,1,,59,100
28544,note_on,,0,0,1,,,,,,,,,,0,,67,0
28544,note_on,,512,0,1,,,,,,,,,,0,,71,0
28604,note_on,,188,0,2,,,,,,,,,,1,,59,0
28604,note_on,,0,0,2,,,,,,,,,,1,,47,0
28608,note_on,,64,0,1,,,,,,,,,,0,,67,100
28608,note_on,,4,0,2,,,,,,,,,,1,,48,100
28608,note_on,,0,0,2,,,,,,,,,,1,,60,100
28608,note_on,,0,0,1,,,,,,,,,,0,,71,100
28704,note_on,,96,0,1,,,,,,,,,,0,,62,0
28796,note_on,,188,0,2,,,,,,,,,,1,,60,0
28796,note_on,,0,0,2,,,,,,,,,,1,,48,0
28796,note_on,,0,0,1,,,,,,,,,,0,,67,0
28796,note_on,,92,0,1,,,,,,,,,,0,,71,0
28800,note_on,,0,0,2,,,,,,,,,,1,,62,100
28800,note_on,,4,0,2,,,,,,,,,,1,,50,100
28800,note_on,,4,0,1,,,,,,,,,,0,,71,100
28800,note_on,,0,0,1,,,,,,,,,,0,,67,100
28892,note_on,,92,0,1,,,,,,,,,,0,,71,0
28896,note_on,,4,0,1,,,,,,,,,,0,,69,100
28940,note_on,,44,0,1,,,,,,,,,,0,,69,0
28944,note_on,,4,0,1,,,,,,,,,,0,,71,100
28988,note_on,,0,0,2,,,,,,,,,,1,,50,0
28988,note_on,,188,0,2,,,,,,,,,,1,,62,0
28988,note_on,,44,0,1,,,,,,,,,,0,,71,0
28992,note_on,,4,0,1,,,,,,,,,,0,,69,100
28992,note_on,,0,0,2,,,,,,,,,,1,,57,100
28992,note_on,,4,0,2,,,,,,,,,,1,,45,100
29036,note_on,,44,0,1,,,,,,,,,,0,,69,0
29040,note_on,,4,0,1,,,,,,,,,,0,,71,100
29084,note_on,,44,0,1,,,,,,,,,,0,,71,0
29088,note_on,,4,0,1,,,,,,,,,,0,,69,100
29120,note_on,,32,0,1,,,,,,,,,,0,,67,0
29180,note_on,,60,0,1,,,,,,,,,,0,,69,0
29180,note_on,,188,0,2,,,,,,,,,,1,,57,0
29180,note_on,,0,0,2,,,,,,,,,,1,,45,0
29184,note_on,,4,0,2,,,,,,,,,,1,,50,100
29184,note_on,,0,0,2,,,,,,,,,,1,,62,100
29184,note_on,,0,0,1,,,,,,,,,,0,,66,100
29184,note_on,,0,0,1,,,,,,,,,,0,,74,100
29184,note_on,,4,0,1,,,,,,,,,,0,,66,100
29372,note_on,,188,0,2,,,,,,,,,,1,,62,0
29372,note_on,,0,0,2,,,,,,,,,,1,,50,0
29376,note_on,,0,0,2,,,,,,,,,,1,,64,100
29376,note_on,,4,0,2,,,,,,,,,,1,,52,100
29504,note_on,,0,0,1,,,,,,,,,,0,,66,0
29504,note_on,,0,0,1,,,,,,,,,,0,,74,0
29504,note_on,,320,0,1,,,,,,,,,,0,,66,0
29564,note_on,,188,0,2,,,,,,,,,,1,,64,0
29564,note_on,,0,0,2,,,,,,,,,,1,,52,0
29568,note_on,,4,0,2,,,,,,,,,,1,,54,100
29568,note_on,,0,0,2,,,,,,,,,,1,,66,100
29756,note_on,,188,0,2,,,,,,,,,,1,,66,0
29756,note_on,,0,0,2,,,,,,,,,,1,,54,0
29760,note_on,,4,0,2,,,,,,,,,,1,,50,100
29760,note_on,,0,0,2,,,,,,,,,,1,,62,100
29948,note_on,,188,0,2,,,,,,,,,,1,,62,0
29948,note_on,,0,0,2,,,,,,,,,,1,,50,0
29952,note_on,,4,0,2,,,,,,,,,,1,,52,100
29952,note_on,,448,0,1,,,,,,,,,,0,,67,100
29952,note_on,,0,0,1,,,,,,,,,,0,,71,100
29952,note_on,,0,0,1,,,,,,,,,,0,,79,100
29952,note_on,,0,0,1,,,,,,,,,,0,,67,100
29952,note_on,,0,0,2,,,,,,,,,,1,,64,100
30140,note_on,,0,0,2,,,,,,,,,,1,,52,0
30140,note_on,,188,0,2,,,,,,,,,,1,,64,0
30144,note_on,,0,0,2,,,,,,,,,,1,,62,100
30144,note_on,,4,0,2,,,,,,,,,,1,,50,100
30272,note_on,,0,0,1,,,,,,,,,,0,,79,0
30272,note_on,,0,0,1,,,,,,,,,,0,,71,0
30272,note_on,,0,0,1,,,,,,,,,,0,,67,0
30272,note_on,,320,0,1,,,,,,,,,,0,,67,0
30332,note_on,,0,0,2,,,,,,,,,,1,,50,0
30332,note_on,,188,0,2,,,,,,,,,,1,,62,0
30336,note_on,,0,0,1,,,,,,,,,,0,,69,100
30336,note_on,,0,0,1,,,,,,,,,,0,,79,100
30336,note_on,,64,0,1,,,,,,,,,,0,,69,100
30336,note_on,,0,0,1,,,,,,,,,,0,,76,100
30336,note_on,,4,0,2,,,,,,,,,,1,,49,100
30336,note_on,,0,0,2,,,,,,,,,,1,,61,100
30524,note_on,,0,0,2,,,,,,,,,,1,,49,0
30524,note_on,,188,0,2,,,,,,,,,,1,,61,0
30528,note_on,,4,0,2,,,,,,,,,,1,,52,100
30528,note_on,,0,0,2,,,,,,,,,,1,,64,100
30716,note_on,,0,0,2,,,,,,,,,,1,,52,0
30716,note_on,,188,0,2,,,,,,,,,,1,,64,0
30720,note_on,,4,0,2,,,,,,,,,,1,,45,100
30720,note_on,,0,0,2,,,,,,,,,,1,,57,100
30848,note_on,,0,0,1,,,,,,,,,,0,,76,0
30848,note_on,,0,0,1,,,,,,,,,,0,,79,0
30848,note_on,,0,0,1,,,,,,,,,,0,,69,0
30848,note_on,,512,0,1,,,,,,,,,,0,,69,0
30908,note_on,,188,0,2,,,,,,,,,,1,,57,0
30908,note_on,,0,0,2,,,,,,,,,,1,,45,0
30912,note_on,,64,0,1,,,,,,,,,,0,,76,100
30912,note_on,,0,0,1,,,,,,,,,,0,,79,100
30912,note_on,,0,0,2,,,,,,,,,,1,,61,100
30912,note_on,,4,0,2,,,,,,,,,,1,,49,100
31100,note_on,,0,0,1,,,,,,,,,,0,,76,0
31100,note_on,,0,0,2,,,,,,,,,,1,,49,0
31100,note_on,,188,0,1,,,,,,,,,,0,,79,0
31100,note_on,,188,0,2,,,,,,,,,,1,,61,0
31104,note_on,,4,0,2,,,,,,,,,,1,,50,100
31104,note_on,,0,0,2,,,,,,,,,,1,,62,100
31104,note_on,,0,0,1,,,,,,,,,,0,,79,100
31104,note_on,,4,0,1,,,,,,,,,,0,,69,100
31292,note_on,,188,0,2,,,,,,,,,,1,,62,0
31292,note_on,,0,0,2,,,,,,,,,,1,,50,0
31296,note_on,,4,0,2,,,,,,,,,,1,,45,100
31296,note_on,,0,0,2,,,,,,,,,,1,,57,100
31424,note_on,,0,0,1,,,,,,,,,,0,,69,0
31424,note_on,,320,0,1,,,,,,,,,,0,,79,0
31484,note_on,,188,0,2,,,,,,,,,,1,,57,0
31484,note_on,,0,0,2,,,,,,,,,,1,,45,0
31488,note_on,,0,0,1,,,,,,,,,,0,,78,100
31488,note_on,,64,0,1,,,,,,,,,,0,,69,100
31488,note_on,,0,0,1,,,,,,,,,,0,,74,100
31488,note_on,,0,0,2,,,,,,,,,,1,,62,100
31488,note_on,,4,0,2,,,,,,,,,,1,,50,100
31676,note_on,,188,0,2,,,,,,,,,,1,,62,0
31676,note_on,,0,0,2,,,,,,,,,,1,,50,0
31680,note_on,,4,0,2,,,,,,,,,,1,,48,100
31680,note_on,,0,0,2,,,,,,,,,,1,,60,100
31868,note_on,,188,0,2,,,,,,,,,,1,,60,0
31868,note_on,,0,0,2,,,,,,,,,,1,,48,0
31872,note_on,,4,0,2,,,,,,,,,,1,,47,100
31872,note_on,,0,0,2,,,,,,,,,,1,,59,100
32000,note_on,,512,0,1,,,,,,,,,,0,,78,0
32000,note_on,,0,0,1,,,,,,,,,,0,,69,0
32000,note_on,,0,0,1,,,,,,,,,,0,,74,0
32060,note_on,,188,0,2,,,,,,,,,,1,,59,0
32060,note_on,,0,0,2,,,,,,,,,,1,,47,0
32064,note_on,,0,0,2,,,,,,,,,,1,,57,100
32064,note_on,,0,0,1,,,,,,,,,,0,,78,100
32064,note_on,,4,0,2,,,,,,,,,,1,,45,100
32064,note_on,,0,0,1,,,,,,,,,,0,,74,100
32064,note_on,,64,0,1,,,,,,,,,,0,,69,100
32252,note_on,,0,0,2,,,,,,,,,,1,,45,0
32252,note_on,,188,0,2,,,,,,,,,,1,,57,0
32252,note_on,,188,0,1,,,,,,,,,,0,,78,0
32252,note_on,,0,0,1,,,,,,,,,,0,,69,0
32252,note_on,,0,0,1,,,,,,,,,,0,,74,0
32256,note_on,,4,0,1,,,,,,,,,,0,,71,100
32256,note_on,,4,0,2,,,,,,,,,,1,,43,100
32256,note_on,,0,0,2,,,,,,,,,,1,,55,100
32256,note_on,,0,0,1,,,,,,,,,,0,,79,100
32444,note_on,,188,0,2,,,,,,,,,,1,,55,0
32444,note_on,,0,0,2,,,,,,,,,,1,,43,0
32448,note_on,,0,0,2,,,,,,,,,,1,,62,100
32448,note_on,,4,0,2,,,,,,,,,,1,,50,100
32576,note_on,,320,0,1,,,,,,,,,,0,,79,0
32576,note_on,,0,0,1,,,,,,,,,,0,,71,0
32636,note_on,,0,0,2,,,,,,,,,,1,,50,0
32636,note_on,,188,0,2,,,,,,,,,,1,,62,0
32640,note_on,,4,0,2,,,,,,,,,,1,,55,100
32640,note_on,,64,0,1,,,,,,,,,,0,,71,100
32640,note_on,,0,0,1,,,,,,,,,,0,,74,100
32640,note_on,,0,0,2,,,,,,,,,,1,,67,100
32828,note_on,,0,0,2,,,,,,,,,,1,,55,0
32828,note_on,,188,0,2,,,,,,,,,,1,,67,0
32832,note_on,,0,0,2,,,,,,,,,,1,,66,100
32832,note_on,,4,0,2,,,,,,,,,,1,,54,100
33020,note_on,,188,0,2,,,,,,,,,,1,,66,0
33020,note_on,,0,0,2,,,,,,,,,,1,,54,0
33024,note_on,,4,0,2,,,,,,,,,,1,,52,100
33024,note_on,,0,0,2,,,,,,,,,,1,,64,100
33152,note_on,,512,0,1,,,,,,,,,,0,,74,0
33152,note_on,,0,0,1,,,,,,,,,,0,,71,0
33212,note_on,,188,0,2,,,,,,,,,,1,,64,0
33212,note_on,,0,0,2,,,,,,,,,,1,,52,0
33216,note_on,,0,0,1,,,,,,,,,,0,,74,100
33216,note_on,,64,0,1,,,,,,,,,,0,,71,100
33216,note_on,,4,0,2,,,,,,,,,,1,,50,100
33216,note_on,,0,0,2,,,,,,,,,,1,,62,100
33404,note_on,,188,0,1,,,,,,,,,,0,,74,0
33404,note_on,,0,0,2,,,,,,,,,,1,,50,0
33404,note_on,,0,0,1,,,,,,,,,,0,,71,0
33404,note_on,,188,0,2,,,,,,,,,,1,,62,0
33408,note_on,,0,0,1,,,,,,,,,,0,,74,100
33408,note_on,,4,0,2,,,,,,,,,,1,,48,100
33408,note_on,,4,0,1,,,,,,,,,,0,,71,100
33408,note_on,,0,0,2,,,,,,,,,,1,,60,100
33452,note_on,,0,0,1,,,,,,,,,,0,,71,0
33452,note_on,,44,0,1,,,,,,,,,,0,,74,0
33456,note_on,,0,0,1,,,,,,,,,,0,,76,100
33456,note_on,,4,0,1,,,,,,,,,,0,,72,100
33596,note_on,,188,0,2,,,,,,,,,,1,,60,0
33596,note_on,,0,0,2,,,,,,,,,,1,,48,0
33600,note_on,,4,0,2,,,,,,,,,,1,,47,100
33600,note_on,,0,0,2,,,,,,,,,,1,,59,100
33788,note_on,,0,0,2,,,,,,,,,,1,,47,0
33788,note_on,,188,0,2,,,,,,,,,,1,,59,0
33792,note_on,,4,0,2,,,,,,,,,,1,,45,100
33792,note_on,,0,0,2,,,,,,,,,,1,,57,100
33980,note_on,,524,0,1,,,,,,,,,,0,,76,0
33980,note_on,,188,0,2,,,,,,,,,,1,,57,0
33980,note_on,,0,0,2,,,,,,,,,,1,,45,0
33980,note_on,,0,0,1,,,,,,,,,,0,,72,0
33984,note_on,,0,0,2,,,,,,,,,,1,,55,100
33984,note_on,,0,0,1,,,,,,,,,,0,,71,100
33984,note_on,,4,0,1,,,,,,,,,,0,,67,100
33984,note_on,,4,0,2,,,,,,,,,,1,,43,100
34172,note_on,,0,0,1,,,,,,,,,,0,,67,0
34172,note_on,,188,0,1,,,,,,,,,,0,,71,0
34172,note_on,,188,0,2,,,,,,,,,,1,,55,0
34172,note_on,,0,0,2,,,,,,,,,,1,,43,0
34176,note_on,,4,0,1,,,,,,,,,,0,,69,100
34176,note_on,,0,0,1,,,,,,,,,,0,,72,100
34176,note_on,,0,0,2,,,,,,,,,,1,,54,100
34176,note_on,,4,0,2,,,,,,,,,,1,,42,100
34364,note_on,,188,0,2,,,,,,,,,,1,,54,0
34364,note_on,,0,0,2,,,,,,,,,,1,,42,0
34364,note_on,,188,0,1,,,,,,,,,,0,,72,0
34364,note_on,,0,0,1,,,,,,,,,,0,,69,0
34368,note_on,,4,0,2,,,,,,,,,,1,,38,100
34368,note_on,,0,0,2,,,,,,,,,,1,,50,100
34368,note_on,,0,0,1,,,,,,,,,,0,,74,100
34368,note_on,,4,0,1,,,,,,,,,,0,,66,100
34556,note_on,,0,0,1,,,,,,,,,,0,,66,0
34556,note_on,,188,0,1,,,,,,,,,,0,,74,0
34556,note_on,,188,0,2,,,,,,,,,,1,,50,0
34556,note_on,,0,0,2,,,,,,,,,,1,,38,0
34560,note_on,,4,0,1,,,,,,,,,,0,,72,100
34560,note_on,,0,0,1,,,,,,,,,,0,,67,100
34560,note_on,,4,0,2,,,,,,,,,,1,,55,100
34604,note_on,,44,0,1,,,,,,,,,,0,,72,0
34608,note_on,,4,0,1,,,,,,,,,,0,,72,100
34628,note_on,,20,0,1,,,,,,,,,,0,,72,0
34632,note_on,,4,0,1,,,,,,,,,,0,,71,100
34652,note_on,,20,0,1,,,,,,,,,,0,,71,0
34656,note_on,,4,0,1,,,,,,,,,,0,,72,100
34676,note_on,,20,0,1,,,,,,,,,,0,,72,0
34680,note_on,,4,0,1,,,,,,,,,,0,,71,100
34700,note_on,,20,0,1,,,,,,,,,,0,,71,0
34704,note_on,,4,0,1,,,,,,,,,,0,,72,100
34724,note_on,,20,0,1,,,,,,,,,,0,,72,0
34728,note_on,,4,0,1,,,,,,,,,,0,,71,100
34748,note_on,,20,0,1,,,,,,,,,,0,,71,0
34748,note_on,,188,0,2,,,,,,,,,,1,,55,0
34752,note_on,,4,0,1,,,,,,,,,,0,,69,100
34752,note_on,,4,0,2,,,,,,,,,,1,,48,100
34880,note_on,,128,0,1,,,,,,,,,,0,,67,0
34940,note_on,,60,0,1,,,,,,,,,,0,,69,0
34940,note_on,,188,0,2,,,,,,,,,,1,,48,0
34944,note_on,,0,0,1,,,,,,,,,,0,,62,100
34944,note_on,,4,0,1,,,,,,,,,,0,,71,100
34944,note_on,,4,0,2,,,,,,,,,,1,,50,100
35132,note_on,,188,0,2,,,,,,,,,,1,,50,0
35136,note_on,,4,0,2,,,,,,,,,,1,,48,100
35264,note_on,,0,0,1,,,,,,,,,,0,,71,0
35264,note_on,,320,0,1,,,,,,,,,,0,,62,0
35324,note_on,,188,0,2,,,,,,,,,,1,,48,0
35328,note_on,,4,0,2,,,,,,,,,,1,,50,100
35328,note_on,,0,0,1,,,,,,,,,,0,,60,100
35328,note_on,,64,0,1,,,,,,,,,,0,,69,100
35516,note_on,,188,0,2,,,,,,,,,,1,,50,0
35516,note_on,,188,0,1,,,,,,,,,,0,,69,0
35520,note_on,,4,0,2,,,,,,,,,,1,,38,100
35520,note_on,,4,0,1,,,,,,,,,,0,,67,100
35648,note_on,,128,0,1,,,,,,,,,,0,,60,0
35708,note_on,,60,0,1,,,,,,,,,,0,,67,0
35708,note_on,,188,0,2,,,,,,,,,,1,,38,0
35712,note_on,,4,0,2,,,,,,,,,,1,,55,100
35712,note_on,,0,0,1,,,,,,,,,,0,,59,100
35712,note_on,,4,0,1,,,,,,,,,,0,,67,100
35900,note_on,,188,0,2,,,,,,,,,,1,,55,0
35900,note_on,,188,0,1,,,,,,,,,,0,,59,0
35904,note_on,,4,0,1,,,,,,,,,,0,,57,100
35904,note_on,,4,0,2,,,,,,,,,,1,,54,100
36032,note_on,,128,0,1,,,,,,,,,,0,,67,0
36092,note_on,,60,0,1,,,,,,,,,,0,,57,0
36092,note_on,,188,0,2,,,,,,,,,,1,,54,0
36096,note_on,,4,0,1,,,,,,,,,,0,,59,100
36096,note_on,,4,0,2,,,,,,,,,,1,,55,100
36284,note_on,,188,0,1,,,,,,,,,,0,,59,0
36284,note_on,,188,0,2,,,,,,,,,,1,,55,0
36288,note_on,,4,0,2,,,,,,,,,,1,,47,100
36288,note_on,,4,0,1,,,,,,,,,,0,,62,100
36476,note_on,,188,0,1,,,,,,,,,,0,,62,0
36476,note_on,,188,0,2,,,,,,,,,,1,,47,0
36480,note_on,,4,0,1,,,,,,,,,,0,,64,100
36480,note_on,,4,0,2,,,,,,,,,,1,,48,100
36668,note_on,,188,0,2,,,,,,,,,,1,,48,0
36668,note_on,,188,0,1,,,,,,,,,,0,,64,0
36672,note_on,,4,0,2,,,,,,,,,,1,,50,100
36672,note_on,,4,0,1,,,,,,,,,,0,,66,100
36860,note_on,,188,0,2,,,,,,,,,,1,,50,0
36860,note_on,,188,0,1,,,,,,,,,,0,,66,0
36864,note_on,,0,0,2,,,,,,,,,,1,,50,100
36864,note_on,,0,0,2,,,,,,,,,,1,,47,100
36864,note_on,,4,0,2,,,,,,,,,,1,,43,100
36864,note_on,,0,0,2,,,,,,,,,,1,,55,100
36864,note_on,,4,0,1,,,,,,,,,,0,,67,100
36864,set_tempo,,18432,1,0,,,,,,600000,,,,,,,
37004,note_on,,140,0,1,,,,,,,,,,0,,67,0
37008,note_on,,4,0,1,,,,,,,,,,0,,74,100
37148,note_on,,140,0,1,,,,,,,,,,0,,74,0
37152,note_on,,4,0,1,,,,,,,,,,0,,72,100
37184,note_on,,320,0,2,,,,,,,,,,1,,55,0
37184,note_on,,0,0,2,,,,,,,,,,1,,43,0
37184,note_on,,0,0,2,,,,,,,,,,1,,47,0
37184,note_on,,0,0,2,,,,,,,,,,1,,50,0
37244,note_on,,92,0,1,,,,,,,,,,0,,72,0
37248,note_on,,64,0,2,,,,,,,,,,1,,31,100
37248,note_on,,0,0,2,,,,,,,,,,1,,43,100
37248,note_on,,4,0,1,,,,,,,,,,0,,71,100
37388,note_on,,140,0,1,,,,,,,,,,0,,71,0
37392,note_on,,4,0,1,,,,,,,,,,0,,72,100
37532,note_on,,140,0,1,,,,,,,,,,0,,72,0
37536,note_on,,4,0,1,,,,,,,,,,0,,74,100
37628,note_on,,92,0,1,,,,,,,,,,0,,74,0
37632,note_on,,4,0,1,,,,,,,,,,0,,67,100
37772,note_on,,140,0,1,,,,,,,,,,0,,67,0
37776,note_on,,4,0,1,,,,,,,,,,0,,69,100
37916,note_on,,140,0,1,,,,,,,,,,0,,69,0
37920,note_on,,4,0,1,,,,,,,,,,0,,71,100
37920,note_on,,672,0,2,,,,,,,,,,1,,43,0
37920,note_on,,0,0,2,,,,,,,,,,1,,31,0
38012,note_on,,92,0,1,,,,,,,,,,0,,71,0
38016,note_on,,4,0,1,,,,,,,,,,0,,69,100
38016,note_on,,96,0,2,,,,,,,,,,1,,54,100
38016,note_on,,0,0,2,,,,,,,,,,1,,57,100
38016,note_on,,0,0,2,,,,,,,,,,1,,62,100
38156,note_on,,140,0,1,,,,,,,,,,0,,69,0
38160,note_on,,4,0,1,,,,,,,,,,0,,71,100
38300,note_on,,140,0,1,,,,,,,,,,0,,71,0
38304,note_on,,4,0,1,,,,,,,,,,0,,73,100
38336,note_on,,0,0,2,,,,,,,,,,1,,54,0
38336,note_on,,0,0,2,,,,,,,,,,1,,57,0
38336,note_on,,320,0,2,,,,,,,,,,1,,62,0
38396,note_on,,92,0,1,,,,,,,,,,0,,73,0
38400,note_on,,64,0,2,,,,,,,,,,1,,42,100
38400,note_on,,0,0,2,,,,,,,,,,1,,50,100
38400,note_on,,4,0,1,,,,,,,,,,0,,74,100
38400,note_on,,0,0,2,,,,,,,,,,1,,54,100
38400,note_on,,0,0,2,,,,,,,,,,1,,45,100
38540,note_on,,140,0,1,,,,,,,,,,0,,74,0
38544,note_on,,4,0,1,,,,,,,,,,0,,76,100
38684,note_on,,140,0,1,,,,,,,,,,0,,76,0
38688,note_on,,4,0,1,,,,,,,,,,0,,78,100
38780,note_on,,92,0,1,,,,,,,,,,0,,78,0
38784,note_on,,4,0,1,,,,,,,,,,0,,76,100
38924,note_on,,140,0,1,,,,,,,,,,0,,76,0
38928,note_on,,4,0,1,,,,,,,,,,0,,78,100
39068,note_on,,140,0,1,,,,,,,,,,0,,78,0
39072,note_on,,4,0,1,,,,,,,,,,0,,74,100
39072,note_on,,0,0,2,,,,,,,,,,1,,50,0
39072,note_on,,0,0,2,,,,,,,,,,1,,45,0
39072,note_on,,0,0,2,,,,,,,,,,1,,42,0
39072,note_on,,672,0,2,,,,,,,,,,1,,54,0
39164,note_on,,92,0,1,,,,,,,,,,0,,74,0
39168,note_on,,0,0,2,,,,,,,,,,1,,55,100
39168,note_on,,96,0,2,,,,,,,,,,1,,52,100
39168,note_on,,4,0,1,,,,,,,,,,0,,79,100
39168,note_on,,0,0,2,,,,,,,,,,1,,64,100
39168,note_on,,0,0,2,,,,,,,,,,1,,59,100
39308,note_on,,140,0,1,,,,,,,,,,0,,79,0
39312,note_on,,4,0,1,,,,,,,,,,0,,81,100
39452,note_on,,140,0,1,,,,,,,,,,0,,81,0
39456,note_on,,4,0,1,,,,,,,,,,0,,83,100
39488,note_on,,320,0,2,,,,,,,,,,1,,64,0
39488,note_on,,0,0,2,,,,,,,,,,1,,52,0
39488,note_on,,0,0,2,,,,,,,,,,1,,55,0
39488,note_on,,0,0,2,,,,,,,,,,1,,59,0
39548,note_on,,92,0,1,,,,,,,,,,0,,83,0
39552,note_on,,4,0,1,,,,,,,,,,0,,73,100
39552,note_on,,64,0,2,,,,,,,,,,1,,57,100
39552,note_on,,0,0,2,,,,,,,,,,1,,61,100
39692,note_on,,140,0,1,,,,,,,,,,0,,73,0
39696,note_on,,4,0,1,,,,,,,,,,0,,74,100
39836,note_on,,140,0,1,,,,,,,,,,0,,74,0
39840,note_on,,4,0,1,,,,,,,,,,0,,76,100
39932,note_on,,92,0,1,,,,,,,,,,0,,76,0
39936,note_on,,4,0,1,,,,,,,,,,0,,69,100
40076,note_on,,140,0,1,,,,,,,,,,0,,69,0
40080,note_on,,4,0,1,,,,,,,,,,0,,81,100
40220,note_on,,140,0,1,,,,,,,,,,0,,81,0
40224,note_on,,0,0,2,,,,,,,,,,1,,57,0
40224,note_on,,672,0,2,,,,,,,,,,1,,61,0
40224,note_on,,4,0,1,,,,,,,,,,0,,79,100
40316,note_on,,92,0,1,,,,,,,,,,0,,79,0
40320,note_on,,96,0,2,,,,,,,,,,1,,50,100
40320,note_on,,4,0,1,,,,,,,,,,0,,78,100
40320,note_on,,0,0,2,,,,,,,,,,1,,57,100
40320,note_on,,0,0,2,,,,,,,,,,1,,62,100
40460,note_on,,140,0,1,,,,,,,,,,0,,78,0
40464,note_on,,4,0,1,,,,,,,,,,0,,79,100
40604,note_on,,140,0,1,,,,,,,,,,0,,79,0
40608,note_on,,4,0,1,,,,,,,,,,0,,81,100
40640,note_on,,320,0,2,,,,,,,,,,1,,62,0
40640,note_on,,0,0,2,,,,,,,,,,1,,57,0
40640,note_on,,0,0,2,,,,,,,,,,1,,50,0
40700,note_on,,92,0,1,,,,,,,,,,0,,81,0
40704,note_on,,64,0,2,,,,,,,,,,1,,54,100
40704,note_on,,0,0,2,,,,,,,,,,1,,57,100
40704,note_on,,0,0,2,,,,,,,,,,1,,62,100
40704,note_on,,4,0,1,,,,,,,,,,0,,74,100
40844,note_on,,140,0,1,,,,,,,,,,0,,74,0
40848,note_on,,4,0,1,,,,,,,,,,0,,76,100
40988,note_on,,140,0,1,,,,,,,,,,0,,76,0
40992,note_on,,4,0,1,,,,,,,,,,0,,78,100
41084,note_on,,92,0,1,,,,,,,,,,0,,78,0
41088,note_on,,4,0,1,,,,,,,,,,0,,69,100
41228,note_on,,140,0,1,,,,,,,,,,0,,69,0
41232,note_on,,4,0,1,,,,,,,,,,0,,71,100
41372,note_on,,140,0,1,,,,,,,,,,0,,71,0
41376,note_on,,4,0,1,,,,,,,,,,0,,72,100
41376,note_on,,0,0,2,,,,,,,,,,1,,57,0
41376,note_on,,672,0,2,,,,,,,,,,1,,62,0
41376,note_on,,0,0,2,,,,,,,,,,1,,54,0
41468,note_on,,92,0,1,,,,,,,,,,0,,72,0
41472,note_on,,4,0,1,,,,,,,,,,0,,71,100
41472,note_on,,0,0,2,,,,,,,,,,1,,62,100
41472,note_on,,0,0,2,,,,,,,,,,1,,59,100
41472,note_on,,96,0,2,,,,,,,,,,1,,55,100
41612,note_on,,140,0,1,,,,,,,,,,0,,71,0
41616,note_on,,4,0,1,,,,,,,,,,0,,72,100
41756,note_on,,140,0,1,,,,,,,,,,0,,72,0
41760,note_on,,4,0,1,,,,,,,,,,0,,74,100
41792,note_on,,320,0,2,,,,,,,,,,1,,62,0
41792,note_on,,0,0,2,,,,,,,,,,1,,59,0
41792,note_on,,0,0,2,,,,,,,,,,1,,55,0
41852,note_on,,92,0,1,,,,,,,,,,0,,74,0
41856,note_on,,0,0,2,,,,,,,,,,1,,59,100
41856,note_on,,64,0,2,,,,,,,,,,1,,47,100
41856,note_on,,0,0,2,,,,,,,,,,1,,50,100
41856,note_on,,0,0,2,,,,,,,,,,1,,55,100
41856,note_on,,4,0,1,,,,,,,,,,0,,67,100
41996,note_on,,140,0,1,,,,,,,,,,0,,67,0
42000,note_on,,4,0,1,,,,,,,,,,0,,69,100
42140,note_on,,140,0,1,,,,,,,,,,0,,69,0
42144,note_on,,4,0,1,,,,,,,,,,0,,71,100
42236,note_on,,92,0,1,,,,,,,,,,0,,71,0
42240,note_on,,4,0,1,,,,,,,,,,0,,62,100
42380,note_on,,140,0,1,,,,,,,,,,0,,62,0
42384,note_on,,4,0,1,,,,,,,,,,0,,64,100
42524,note_on,,140,0,1,,,,,,,,,,0,,64,0
42528,note_on,,672,0,2,,,,,,,,,,1,,59,0
42528,note_on,,0,0,2,,,,,,,,,,1,,55,0
42528,note_on,,0,0,2,,,,,,,,,,1,,50,0
42528,note_on,,0,0,2,,,,,,,,,,1,,47,0
42528,note_on,,4,0,1,,,,,,,,,,0,,66,100
42620,note_on,,92,0,1,,,,,,,,,,0,,66,0
42624,note_on,,96,0,2,,,,,,,,,,1,,48,100
42624,note_on,,0,0,2,,,,,,,,,,1,,55,100
42624,note_on,,4,0,1,,,,,,,,,,0,,64,100
42624,note_on,,0,0,2,,,,,,,,,,1,,52,100
42764,note_on,,140,0,1,,,,,,,,,,0,,64,0
42768,note_on,,4,0,1,,,,,,,,,,0,,66,100
42908,note_on,,140,0,1,,,,,,,,,,0,,66,0
42912,note_on,,4,0,1,,,,,,,,,,0,,67,100
42944,note_on,,0,0,2,,,,,,,,,,1,,48,0
42944,note_on,,0,0,2,,,,,,,,,,1,,52,0
42944,note_on,,320,0,2,,,,,,,,,,1,,55,0
43004,note_on,,92,0,1,,,,,,,,,,0,,67,0
43008,note_on,,0,0,2,,,,,,,,,,1,,54,100
43008,note_on,,0,0,2,,,,,,,,,,1,,48,100
43008,note_on,,0,0,1,,,,,,,,,,0,,60,100
43008,note_on,,4,0,1,,,,,,,,,,0,,66,100
43008,note_on,,64,0,2,,,,,,,,,,1,,45,100
43148,note_on,,140,0,1,,,,,,,,,,0,,66,0
43152,note_on,,4,0,1,,,,,,,,,,0,,67,100
43292,note_on,,140,0,1,,,,,,,,,,0,,67,0
43296,note_on,,4,0,1,,,,,,,,,,0,,69,100
43328,note_on,,32,0,1,,,,,,,,,,0,,60,0
43328,note_on,,320,0,2,,,,,,,,,,1,,54,0
43328,note_on,,0,0,2,,,,,,,,,,1,,45,0
43328,note_on,,0,0,2,,,,,,,,,,1,,48,0
43388,note_on,,60,0,1,,,,,,,,,,0,,69,0
43392,note_on,,64,0,2,,,,,,,,,,1,,47,100
43392,note_on,,0,0,2,,,,,,,,,,1,,50,100
43392,note_on,,0,0,2,,,,,,,,,,1,,55,100
43392,note_on,,4,0,1,,,,,,,,,,0,,67,100
43392,note_on,,0,0,1,,,,,,,,,,0,,62,100
43532,note_on,,140,0,1,,,,,,,,,,0,,67,0
43536,note_on,,4,0,1,,,,,,,,,,0,,69,100
43676,note_on,,140,0,1,,,,,,,,,,0,,69,0
43680,note_on,,4,0,1,,,,,,,,,,0,,71,100
43712,note_on,,0,0,2,,,,,,,,,,1,,47,0
43712,note_on,,0,0,2,,,,,,,,,,1,,50,0
43712,note_on,,320,0,2,,,,,,,,,,1,,55,0
43712,note_on,,32,0,1,,,,,,,,,,0,,62,0
43772,note_on,,60,0,1,,,,,,,,,,0,,71,0
43776,note_on,,0,0,1,,,,,,,,,,0,,64,100
43776,note_on,,4,0,1,,,,,,,,,,0,,69,100
43776,note_on,,0,0,2,,,,,,,,,,1,,57,100
43776,note_on,,0,0,2,,,,,,,,,,1,,52,100
43776,note_on,,64,0,2,,,,,,,,,,1,,48,100
43916,note_on,,140,0,1,,,,,,,,,,0,,69,0
43920,note_on,,4,0,1,,,,,,,,,,0,,71,100
44060,note_on,,140,0,1,,,,,,,,,,0,,71,0
44064,note_on,,4,0,1,,,,,,,,,,0,,72,100
44096,note_on,,320,0,2,,,,,,,,,,1,,57,0
44096,note_on,,0,0,2,,,,,,,,,,1,,52,0
44096,note_on,,0,0,2,,,,,,,,,,1,,48,0
44096,note_on,,32,0,1,,,,,,,,,,0,,64,0
44156,note_on,,60,0,1,,,,,,,,,,0,,72,0
44160,note_on,,0,0,2,,,,,,,,,,1,,59,100
44160,note_on,,0,0,2,,,,,,,,,,1,,55,100
44160,note_on,,4,0,1,,,,,,,,,,0,,62,100
44160,note_on,,64,0,2,,,,,,,,,,1,,50,100
44300,note_on,,140,0,1,,,,,,,,,,0,,62,0
44304,note_on,,4,0,1,,,,,,,,,,0,,64,100
44444,note_on,,140,0,1,,,,,,,,,,0,,64,0
44448,note_on,,4,0,1,,,,,,,,,,0,,66,100
44480,note_on,,0,0,2,,,,,,,,,,1,,50,0
44480,note_on,,0,0,2,,,,,,,,,,1,,55,0
44480,note_on,,320,0,2,,,,,,,,,,1,,59,0
44540,note_on,,92,0,1,,,,,,,,,,0,,66,0
44544,note_on,,4,0,1,,,,,,,,,,0,,67,100
44544,note_on,,0,0,2,,,,,,,,,,1,,57,100
44544,note_on,,64,0,2,,,,,,,,,,1,,54,100
44588,note_on,,44,0,1,,,,,,,,,,0,,67,0
44592,note_on,,4,0,1,,,,,,,,,,0,,66,100
44636,note_on,,44,0,1,,,,,,,,,,0,,66,0
44640,note_on,,4,0,1,,,,,,,,,,0,,67,100
44684,note_on,,44,0,1,,,,,,,,,,0,,67,0
44688,note_on,,4,0,1,,,,,,,,,,0,,66,100
44732,note_on,,44,0,1,,,,,,,,,,0,,66,0
44736,note_on,,4,0,1,,,,,,,,,,0,,67,100
44780,note_on,,44,0,1,,,,,,,,,,0,,67,0
44784,note_on,,4,0,1,,,,,,,,,,0,,66,100
44828,note_on,,44,0,1,,,,,,,,,,0,,66,0
44832,note_on,,4,0,1,,,,,,,,,,0,,64,100
44864,note_on,,0,0,2,,,,,,,,,,1,,54,0
44864,note_on,,320,0,2,,,,,,,,,,1,,57,0
44876,note_on,,44,0,1,,,,,,,,,,0,,64,0
44880,note_on,,4,0,1,,,,,,,,,,0,,66,100
44924,note_on,,44,0,1,,,,,,,,,,0,,66,0
44928,note_on,,0,0,2,,,,,,,,,,1,,47,100
44928,note_on,,0,0,2,,,,,,,,,,1,,50,100
44928,note_on,,4,0,1,,,,,,,,,,0,,67,100
44928,note_on,,0,0,2,,,,,,,,,,1,,55,100
44928,note_on,,64,0,2,,,,,,,,,,1,,43,100
45068,note_on,,140,0,1,,,,,,,,,,0,,67,0
45072,note_on,,4,0,1,,,,,,,,,,0,,62,100
45212,note_on,,140,0,1,,,,,,,,,,0,,62,0
45216,note_on,,4,0,1,,,,,,,,,,0,,60,100
45308,note_on,,92,0,1,,,,,,,,,,0,,60,0
45312,note_on,,4,0,1,,,,,,,,,,0,,59,100
45452,note_on,,140,0,1,,,,,,,,,,0,,59,0
45456,note_on,,4,0,1,,,,,,,,,,0,,60,100
45596,note_on,,140,0,1,,,,,,,,,,0,,60,0
45600,note_on,,4,0,1,,,,,,,,,,0,,62,100
45600,note_on,,0,0,2,,,,,,,,,,1,,50,0
45600,note_on,,0,0,2,,,,,,,,,,1,,47,0
45600,note_on,,0,0,2,,,,,,,,,,1,,43,0
45600,note_on,,672,0,2,,,,,,,,,,1,,55,0
45692,note_on,,92,0,1,,,,,,,,,,0,,62,0
45696,note_on,,96,0,2,,,,,,,,,,1,,43,100
45696,note_on,,0,0,2,,,,,,,,,,1,,55,100
45840,note_on,,148,0,1,,,,,,,,,,0,,69,100
45884,note_on,,44,0,1,,,,,,,,,,0,,69,0
45888,note_on,,4,0,1,,,,,,,,,,0,,67,100
45932,note_on,,44,0,1,,,,,,,,,,0,,67,0
45936,note_on,,4,0,1,,,,,,,,,,0,,69,100
45980,note_on,,44,0,1,,,,,,,,,,0,,69,0
45984,note_on,,4,0,1,,,,,,,,,,0,,67,100
46016,note_on,,0,0,2,,,,,,,,,,1,,43,0
46016,note_on,,320,0,2,,,,,,,,,,1,,55,0
46028,note_on,,44,0,1,,,,,,,,,,0,,67,0
46032,note_on,,4,0,1,,,,,,,,,,0,,69,100
46076,note_on,,44,0,1,,,,,,,,,,0,,69,0
46080,note_on,,4,0,1,,,,,,,,,,0,,67,100
46124,note_on,,44,0,1,,,,,,,,,,0,,67,0
46128,note_on,,4,0,1,,,,,,,,,,0,,66,100
46172,note_on,,44,0,1,,,,,,,,,,0,,66,0
46176,note_on,,4,0,1,,,,,,,,,,0,,67,100
46176,note_on,,0,0,1,,,,,,,,,,0,,71,100
46176,note_on,,0,0,1,,,,,,,,,,0,,74,100
46224,note_on,,208,0,2,,,,,,,,,,1,,62,100
46364,note_on,,140,0,2,,,,,,,,,,1,,62,0
46368,note_on,,4,0,2,,,,,,,,,,1,,60,100
46460,note_on,,92,0,2,,,,,,,,,,1,,60,0
46464,note_on,,4,0,2,,,,,,,,,,1,,59,100
46604,note_on,,140,0,2,,,,,,,,,,1,,59,0
46608,note_on,,4,0,2,,,,,,,,,,1,,60,100
46748,note_on,,140,0,2,,,,,,,,,,1,,60,0
46752,note_on,,4,0,2,,,,,,,,,,1,,62,100
46784,note_on,,0,0,1,,,,,,,,,,0,,71,0
46784,note_on,,608,0,1,,,,,,,,,,0,,74,0
46784,note_on,,0,0,1,,,,,,,,,,0,,67,0
46844,note_on,,92,0,2,,,,,,,,,,1,,62,0
46848,note_on,,64,0,1,,,,,,,,,,0,,67,100
46848,note_on,,0,0,1,,,,,,,,,,0,,71,100
46848,note_on,,0,0,1,,,,,,,,,,0,,74,100
46848,note_on,,4,0,2,,,,,,,,,,1,,55,100
46988,note_on,,140,0,2,,,,,,,,,,1,,55,0
46992,note_on,,4,0,2,,,,,,,,,,1,,57,100
47132,note_on,,140,0,2,,,,,,,,,,1,,57,0
47136,note_on,,4,0,2,,,,,,,,,,1,,59,100
47168,note_on,,0,0,1,,,,,,,,,,0,,71,0
47168,note_on,,0,0,1,,,,,,,,,,0,,67,0
47168,note_on,,320,0,1,,,,,,,,,,0,,74,0
47228,note_on,,92,0,2,,,,,,,,,,1,,59,0
47232,note_on,,4,0,2,,,,,,,,,,1,,54,100
47232,note_on,,64,0,1,,,,,,,,,,0,,62,100
47232,note_on,,0,0,1,,,,,,,,,,0,,69,100
47232,note_on,,0,0,1,,,,,,,,,,0,,74,100
47372,note_on,,140,0,2,,,,,,,,,,1,,54,0
47376,note_on,,4,0,2,,,,,,,,,,1,,55,100
47516,note_on,,140,0,2,,,,,,,,,,1,,55,0
47520,note_on,,4,0,2,,,,,,,,,,1,,57,100
47612,note_on,,92,0,2,,,,,,,,,,1,,57,0
47616,note_on,,4,0,2,,,,,,,,,,1,,50,100
47756,note_on,,140,0,2,,,,,,,,,,1,,50,0
47760,note_on,,4,0,2,,,,,,,,,,1,,62,100
47900,note_on,,140,0,2,,,,,,,,,,1,,62,0
47904,note_on,,4,0,2,,,,,,,,,,1,,61,100
47904,note_on,,0,0,1,,,,,,,,,,0,,69,0
47904,note_on,,0,0,1,,,,,,,,,,0,,62,0
47904,note_on,,672,0,1,,,,,,,,,,0,,74,0
47996,note_on,,92,0,2,,,,,,,,,,1,,61,0
48000,note_on,,4,0,2,,,,,,,,,,1,,59,100
48000,note_on,,96,0,1,,,,,,,,,,0,,66,100
48000,note_on,,0,0,1,,,,,,,,,,0,,71,100
48000,note_on,,0,0,1,,,,,,,,,,0,,74,100
48140,note_on,,140,0,2,,,,,,,,,,1,,59,0
48144,note_on,,4,0,2,,,,,,,,,,1,,61,100
48284,note_on,,140,0,2,,,,,,,,,,1,,61,0
48288,note_on,,4,0,2,,,,,,,,,,1,,62,100
48320,note_on,,320,0,1,,,,,,,,,,0,,74,0
48320,note_on,,0,0,1,,,,,,,,,,0,,66,0
48320,note_on,,0,0,1,,,,,,,,,,0,,71,0
48380,note_on,,92,0,2,,,,,,,,,,1,,62,0
48384,note_on,,0,0,1,,,,,,,,,,0,,79,100
48384,note_on,,0,0,1,,,,,,,,,,0,,74,100
48384,note_on,,0,0,1,,,,,,,,,,0,,71,100
48384,note_on,,64,0,1,,,,,,,,,,0,,67,100
48384,note_on,,4,0,2,,,,,,,,,,1,,52,100
48524,note_on,,140,0,2,,,,,,,,,,1,,52,0
48528,note_on,,4,0,2,,,,,,,,,,1,,64,100
48668,note_on,,140,0,2,,,,,,,,,,1,,64,0
48672,note_on,,4,0,2,,,,,,,,,,1,,62,100
48764,note_on,,92,0,2,,,,,,,,,,1,,62,0
48768,note_on,,4,0,2,,,,,,,,,,1,,61,100
48908,note_on,,140,0,2,,,,,,,,,,1,,61,0
48912,note_on,,4,0,2,,,,,,,,,,1,,62,100
49052,note_on,,140,0,2,,,,,,,,,,1,,62,0
49056,note_on,,4,0,2,,,,,,,,,,1,,64,100
49056,note_on,,0,0,1,,,,,,,,,,0,,67,0
49056,note_on,,672,0,1,,,,,,,,,,0,,79,0
49056,note_on,,0,0,1,,,,,,,,,,0,,74,0
49056,note_on,,0,0,1,,,,,,,,,,0,,71,0
49148,note_on,,92,0,2,,,,,,,,,,1,,64,0
49152,note_on,,96,0,1,,,,,,,,,,0,,67,100
49152,note_on,,0,0,1,,,,,,,,,,0,,73,100
49152,note_on,,0,0,1,,,,,,,,,,0,,76,100
49152,note_on,,0,0,1,,,,,,,,,,0,,79,100
49152,note_on,,4,0,2,,,,,,,,,,1,,57,100
49292,note_on,,140,0,2,,,,,,,,,,1,,57,0
49296,note_on,,4,0,2,,,,,,,,,,1,,59,100
49436,note_on,,140,0,2,,,,,,,,,,1,,59,0
49440,note_on,,4,0,2,,,,,,,,,,1,,61,100
49472,note_on,,320,0,1,,,,,,,,,,0,,79,0
49472,note_on,,0,0,1,,,,,,,,,,0,,67,0
49472,note_on,,0,0,1,,,,,,,,,,0,,76,0
49472,note_on,,0,0,1,,,,,,,,,,0,,73,0
49532,note_on,,92,0,2,,,,,,,,,,1,,61,0
49536,note_on,,0,0,1,,,,,,,,,,0,,78,100
49536,note_on,,0,0,1,,,,,,,,,,0,,74,100
49536,note_on,,64,0,1,,,,,,,,,,0,,69,100
49536,note_on,,4,0,2,,,,,,,,,,1,,62,100
49676,note_on,,140,0,2,,,,,,,,,,1,,62,0
49680,note_on,,4,0,2,,,,,,,,,,1,,57,100
49820,note_on,,140,0,2,,,,,,,,,,1,,57,0
49824,note_on,,4,0,2,,,,,,,,,,1,,55,100
49916,note_on,,92,0,2,,,,,,,,,,1,,55,0
49920,note_on,,4,0,2,,,,,,,,,,1,,54,100
50060,note_on,,140,0,2,,,,,,,,,,1,,54,0
50064,note_on,,4,0,2,,,,,,,,,,1,,55,100
50204,note_on,,140,0,2,,,,,,,,,,1,,55,0
50208,note_on,,672,0,1,,,,,,,,,,0,,78,0
50208,note_on,,0,0,1,,,,,,,,,,0,,74,0
50208,note_on,,4,0,2,,,,,,,,,,1,,57,100
50208,note_on,,0,0,1,,,,,,,,,,0,,69,0
50300,note_on,,92,0,2,,,,,,,,,,1,,57,0
50304,note_on,,96,0,1,,,,,,,,,,0,,69,100
50304,note_on,,0,0,1,,,,,,,,,,0,,74,100
50304,note_on,,4,0,2,,,,,,,,,,1,,50,100
50304,note_on,,0,0,1,,,,,,,,,,0,,78,100
50444,note_on,,140,0,2,,,,,,,,,,1,,50,0
50448,note_on,,4,0,2,,,,,,,,,,1,,52,100
50588,note_on,,140,0,2,,,,,,,,,,1,,52,0
50592,note_on,,4,0,2,,,,,,,,,,1,,54,100
50624,note_on,,320,0,1,,,,,,,,,,0,,78,0
50624,note_on,,0,0,1,,,,,,,,,,0,,69,0
50624,note_on,,0,0,1,,,,,,,,,,0,,74,0
50684,note_on,,92,0,2,,,,,,,,,,1,,54,0
50688,note_on,,64,0,1,,,,,,,,,,0,,71,100
50688,note_on,,4,0,2,,,,,,,,,,1,,47,100
50688,note_on,,0,0,1,,,,,,,,,,0,,79,100
50688,note_on,,0,0,1,,,,,,,,,,0,,74,100
50828,note_on,,140,0,2,,,,,,,,,,1,,47,0
50832,note_on,,4,0,2,,,,,,,,,,1,,48,100
50972,note_on,,140,0,2,,,,,,,,,,1,,48,0
50976,note_on,,4,0,2,,,,,,,,,,1,,50,100
51068,note_on,,92,0,2,,,,,,,,,,1,,50,0
51072,note_on,,4,0,2,,,,,,,,,,1,,43,100
51212,note_on,,140,0,2,,,,,,,,,,1,,43,0
51216,note_on,,4,0,2,,,,,,,,,,1,,55,100
51356,note_on,,140,0,2,,,,,,,,,,1,,55,0
51360,note_on,,4,0,2,,,,,,,,,,1,,54,100
51360,note_on,,672,0,1,,,,,,,,,,0,,79,0
51360,note_on,,0,0,1,,,,,,,,,,0,,74,0
51360,note_on,,0,0,1,,,,,,,,,,0,,71,0
51452,note_on,,92,0,2,,,,,,,,,,1,,54,0
51456,note_on,,96,0,1,,,,,,,,,,0,,67,100
51456,note_on,,0,0,1,,,,,,,,,,0,,71,100
51456,note_on,,0,0,1,,,,,,,,,,0,,74,100
51456,note_on,,4,0,2,,,,,,,,,,1,,55,100
51596,note_on,,140,0,2,,,,,,,,,,1,,55,0
51600,note_on,,4,0,2,,,,,,,,,,1,,57,100
51740,note_on,,140,0,2,,,,,,,,,,1,,57,0
51744,note_on,,4,0,2,,,,,,,,,,1,,59,100
51776,note_on,,0,0,1,,,,,,,,,,0,,67,0
51776,note_on,,320,0,1,,,,,,,,,,0,,74,0
51776,note_on,,0,0,1,,,,,,,,,,0,,71,0
51836,note_on,,92,0,2,,,,,,,,,,1,,59,0
51840,note_on,,4,0,2,,,,,,,,,,1,,48,100
51840,note_on,,64,0,1,,,,,,,,,,0,,67,100
51840,note_on,,0,0,1,,,,,,,,,,0,,76,100
51840,note_on,,0,0,1,,,,,,,,,,0,,72,100
51980,note_on,,140,0,2,,,,,,,,,,1,,48,0
51984,note_on,,4,0,2,,,,,,,,,,1,,60,100
52124,note_on,,140,0,2,,,,,,,,,,1,,60,0
52128,note_on,,4,0,2,,,,,,,,,,1,,59,100
52160,note_on,,320,0,1,,,,,,,,,,0,,76,0
52160,note_on,,0,0,1,,,,,,,,,,0,,72,0
52160,note_on,,0,0,1,,,,,,,,,,0,,67,0
52220,note_on,,92,0,2,,,,,,,,,,1,,59,0
52224,note_on,,4,0,2,,,,,,,,,,1,,57,100
52224,note_on,,64,0,1,,,,,,,,,,0,,69,100
52224,note_on,,0,0,1,,,,,,,,,,0,,72,100
52364,note_on,,140,0,2,,,,,,,,,,1,,57,0
52368,note_on,,4,0,2,,,,,,,,,,1,,55,100
52508,note_on,,140,0,2,,,,,,,,,,1,,55,0
52512,note_on,,4,0,2,,,,,,,,,,1,,54,100
52544,note_on,,320,0,1,,,,,,,,,,0,,72,0
52544,note_on,,0,0,1,,,,,,,,,,0,,69,0
52604,note_on,,92,0,2,,,,,,,,,,1,,54,0
52608,note_on,,4,0,2,,,,,,,,,,1,,55,100
52608,note_on,,64,0,1,,,,,,,,,,0,,67,100
52608,note_on,,0,0,1,,,,,,,,,,0,,71,100
52748,note_on,,140,0,2,,,,,,,,,,1,,55,0
52752,note_on,,4,0,2,,,,,,,,,,1,,54,100
52892,note_on,,140,0,2,,,,,,,,,,1,,54,0
52896,note_on,,4,0,2,,,,,,,,,,1,,52,100
52988,note_on,,92,0,2,,,,,,,,,,1,,52,0
52992,note_on,,4,0,2,,,,,,,,,,1,,50,100
53132,note_on,,140,0,2,,,,,,,,,,1,,50,0
53136,note_on,,4,0,2,,,,,,,,,,1,,52,100
53180,note_on,,572,0,1,,,,,,,,,,0,,71,0
53180,note_on,,0,0,1,,,,,,,,,,0,,67,0
53184,note_on,,4,0,1,,,,,,,,,,0,,69,100
53184,note_on,,0,0,1,,,,,,,,,,0,,72,100
53276,note_on,,140,0,2,,,,,,,,,,1,,52,0
53280,note_on,,4,0,2,,,,,,,,,,1,,48,100
53372,note_on,,188,0,1,,,,,,,,,,0,,72,0
53372,note_on,,0,0,1,,,,,,,,,,0,,69,0
53372,note_on,,92,0,2,,,,,,,,,,1,,48,0
53376,note_on,,4,0,1,,,,,,,,,,0,,67,100
53376,note_on,,0,0,1,,,,,,,,,,0,,71,100
53376,note_on,,4,0,2,,,,,,,,,,1,,52,100
53420,note_on,,44,0,2,,,,,,,,,,1,,52,0
53424,note_on,,4,0,2,,,,,,,,,,1,,50,100
53468,note_on,,44,0,2,,,,,,,,,,1,,50,0
53472,note_on,,4,0,2,,,,,,,,,,1,,52,100
53516,note_on,,44,0,2,,,,,,,,,,1,,52,0
53520,note_on,,4,0,2,,,,,,,,,,1,,50,100
53564,note_on,,44,0,2,,,,,,,,,,1,,50,0
53568,note_on,,4,0,2,,,,,,,,,,1,,52,100
53612,note_on,,44,0,2,,,,,,,,,,1,,52,0
53616,note_on,,4,0,2,,,,,,,,,,1,,50,100
53660,note_on,,44,0,2,,,,,,,,,,1,,50,0
53664,note_on,,4,0,2,,,,,,,,,,1,,52,100
53696,note_on,,0,0,1,,,,,,,,,,0,,67,0
53696,note_on,,320,0,1,,,,,,,,,,0,,71,0
53708,note_on,,44,0,2,,,,,,,,,,1,,52,0
53712,note_on,,4,0,2,,,,,,,,,,1,,50,100
53756,note_on,,44,0,2,,,,,,,,,,1,,50,0
53760,note_on,,4,0,2,,,,,,,,,,1,,52,100
53760,note_on,,64,0,1,,,,,,,,,,0,,60,100
53760,note_on,,0,0,1,,,,,,,,,,0,,66,100
53760,note_on,,0,0,1,,,,,,,,,,0,,69,100
53804,note_on,,44,0,2,,,,,,,,,,1,,52,0
53808,note_on,,4,0,2,,,,,,,,,,1,,50,100
53852,note_on,,44,0,2,,,,,,,,,,1,,50,0
53856,note_on,,4,0,2,,,,,,,,,,1,,52,100
53900,note_on,,44,0,2,,,,,,,,,,1,,52,0
53904,note_on,,4,0,2,,,,,,,,,,1,,50,100
53948,note_on,,44,0,2,,,,,,,,,,1,,50,0
53948,note_on,,188,0,1,,,,,,,,,,0,,69,0
53948,note_on,,0,0,1,,,,,,,,,,0,,60,0
53948,note_on,,0,0,1,,,,,,,,,,0,,66,0
53952,note_on,,4,0,2,,,,,,,,,,1,,52,100
53952,note_on,,4,0,1,,,,,,,,,,0,,67,100
53996,note_on,,44,0,2,,,,,,,,,,1,,52,0
54000,note_on,,4,0,2,,,,,,,,,,1,,50,100
54044,note_on,,44,0,2,,,,,,,,,,1,,50,0
54048,note_on,,4,0,2,,,,,,,,,,1,,48,100
54092,note_on,,44,0,2,,,,,,,,,,1,,48,0
54096,note_on,,4,0,2,,,,,,,,,,1,,50,100
54140,note_on,,44,0,2,,,,,,,,,,1,,50,0
54140,note_on,,188,0,1,,,,,,,,,,0,,67,0
54144,note_on,,4,0,2,,,,,,,,,,1,,55,100
54144,note_on,,4,0,1,,,,,,,,,,0,,59,100
54144,note_on,,0,0,1,,,,,,,,,,0,,67,100
54144,note_on,,0,0,1,,,,,,,,,,0,,62,100
54284,note_on,,140,0,2,,,,,,,,,,1,,55,0
54288,note_on,,4,0,2,,,,,,,,,,1,,50,100
54428,note_on,,140,0,2,,,,,,,,,,1,,50,0
54432,note_on,,4,0,2,,,,,,,,,,1,,48,100
54524,note_on,,92,0,2,,,,,,,,,,1,,48,0
54528,note_on,,4,0,2,,,,,,,,,,1,,47,100
54668,note_on,,140,0,2,,,,,,,,,,1,,47,0
54672,note_on,,4,0,2,,,,,,,,,,1,,48,100
54812,note_on,,140,0,2,,,,,,,,,,1,,48,0
54816,note_on,,0,0,1,,,,,,,,,,0,,62,0
54816,note_on,,0,0,1,,,,,,,,,,0,,59,0
54816,note_on,,4,0,2,,,,,,,,,,1,,50,100
54816,note_on,,672,0,1,,,,,,,,,,0,,67,0
54908,note_on,,92,0,2,,,,,,,,,,1,,50,0
54912,note_on,,4,0,2,,,,,,,,,,1,,43,100
55008,note_on,,192,0,1,,,,,,,,,,0,,69,100
55100,note_on,,92,0,1,,,,,,,,,,0,,69,0
55104,note_on,,4,0,1,,,,,,,,,,0,,69,100
55148,note_on,,44,0,1,,,,,,,,,,0,,69,0
55152,note_on,,4,0,1,,,,,,,,,,0,,67,100
55196,note_on,,44,0,1,,,,,,,,,,0,,67,0
55200,note_on,,4,0,1,,,,,,,,,,0,,69,100
55232,note_on,,320,0,2,,,,,,,,,,1,,43,0
55244,note_on,,44,0,1,,,,,,,,,,0,,69,0
55248,note_on,,4,0,1,,,,,,,,,,0,,67,100
55292,note_on,,44,0,1,,,,,,,,,,0,,67,0
55296,note_on,,64,0,2,,,,,,,,,,1,,55,100
55296,note_on,,0,0,2,,,,,,,,,,1,,59,100
55296,set_tempo,,18432,1,0,,,,,,545455,,,,,,,
55296,note_on,,4,0,1,,,,,,,,,,0,,66,100
55340,note_on,,44,0,1,,,,,,,,,,0,,66,0
55344,note_on,,4,0,1,,,,,,,,,,0,,67,100
55388,note_on,,44,0,1,,,,,,,,,,0,,67,0
55392,note_on,,4,0,1,,,,,,,,,,0,,62,100
55484,note_on,,92,0,1,,,,,,,,,,0,,62,0
55488,note_on,,4,0,1,,,,,,,,,,0,,64,100
55580,note_on,,92,0,1,,,,,,,,,,0,,64,0
55584,note_on,,4,0,1,,,,,,,,,,0,,66,100
55616,note_on,,320,0,2,,,,,,,,,,1,,59,0
55616,note_on,,0,0,2,,,,,,,,,,1,,55,0
55676,note_on,,92,0,1,,,,,,,,,,0,,66,0
55680,note_on,,4,0,1,,,,,,,,,,0,,67,100
55772,note_on,,92,0,1,,,,,,,,,,0,,67,0
55776,note_on,,4,0,1,,,,,,,,,,0,,69,100
55868,note_on,,92,0,1,,,,,,,,,,0,,69,0
55872,note_on,,4,0,1,,,,,,,,,,0,,71,100
55964,note_on,,92,0,1,,,,,,,,,,0,,71,0
55968,note_on,,4,0,1,,,,,,,,,,0,,72,100
56060,note_on,,92,0,1,,,,,,,,,,0,,72,0
56064,note_on,,4,0,1,,,,,,,,,,0,,71,100
56156,note_on,,92,0,1,,,,,,,,,,0,,71,0
56160,note_on,,4,0,1,,,,,,,,,,0,,67,100
56252,note_on,,92,0,1,,,,,,,,,,0,,67,0
56256,note_on,,4,0,1,,,,,,,,,,0,,71,100
56348,note_on,,92,0,1,,,,,,,,,,0,,71,0
56352,note_on,,4,0,1,,,,,,,,,,0,,72,100
56444,note_on,,92,0,1,,,,,,,,,,0,,72,0
56448,note_on,,4,0,1,,,,,,,,,,0,,74,100
56448,note_on,,832,0,2,,,,,,,,,,1,,54,100
56448,note_on,,0,0,2,,,,,,,,,,1,,62,100
56448,note_on,,0,0,2,,,,,,,,,,1,,57,100
56540,note_on,,92,0,1,,,,,,,,,,0,,74,0
56544,note_on,,4,0,1,,,,,,,,,,0,,69,100
56636,note_on,,92,0,1,,,,,,,,,,0,,69,0
56640,note_on,,4,0,1,,,,,,,,,,0,,71,100
56732,note_on,,92,0,1,,,,,,,,,,0,,71,0
56736,note_on,,4,0,1,,,,,,,,,,0,,73,100
56768,note_on,,0,0,2,,,,,,,,,,1,,54,0
56768,note_on,,320,0,2,,,,,,,,,,1,,62,0
56768,note_on,,0,0,2,,,,,,,,,,1,,57,0
56828,note_on,,92,0,1,,,,,,,,,,0,,73,0
56832,note_on,,4,0,1,,,,,,,,,,0,,74,100
56924,note_on,,92,0,1,,,,,,,,,,0,,74,0
56928,note_on,,4,0,1,,,,,,,,,,0,,76,100
57020,note_on,,92,0,1,,,,,,,,,,0,,76,0
57024,note_on,,4,0,1,,,,,,,,,,0,,78,100
57116,note_on,,92,0,1,,,,,,,,,,0,,78,0
57120,note_on,,4,0,1,,,,,,,,,,0,,79,100
57212,note_on,,92,0,1,,,,,,,,,,0,,79,0
57216,note_on,,4,0,1,,,,,,,,,,0,,78,100
57308,note_on,,92,0,1,,,,,,,,,,0,,78,0
57312,note_on,,4,0,1,,,,,,,,,,0,,74,100
57404,note_on,,92,0,1,,,,,,,,,,0,,74,0
57408,note_on,,4,0,1,,,,,,,,,,0,,76,100
57500,note_on,,92,0,1,,,,,,,,,,0,,76,0
57504,note_on,,4,0,1,,,,,,,,,,0,,78,100
57596,note_on,,92,0,1,,,,,,,,,,0,,78,0
57600,note_on,,4,0,1,,,,,,,,,,0,,79,100
57600,note_on,,0,0,2,,,,,,,,,,1,,61,100
57600,note_on,,0,0,2,,,,,,,,,,1,,55,100
57600,note_on,,832,0,2,,,,,,,,,,1,,52,100
57692,note_on,,92,0,1,,,,,,,,,,0,,79,0
57696,note_on,,4,0,1,,,,,,,,,,0,,71,100
57788,note_on,,92,0,1,,,,,,,,,,0,,71,0
57792,note_on,,4,0,1,,,,,,,,,,0,,73,100
57884,note_on,,92,0,1,,,,,,,,,,0,,73,0
57888,note_on,,4,0,1,,,,,,,,,,0,,74,100
57920,note_on,,0,0,2,,,,,,,,,,1,,52,0
57920,note_on,,320,0,2,,,,,,,,,,1,,61,0
57920,note_on,,0,0,2,,,,,,,,,,1,,55,0
57980,note_on,,92,0,1,,,,,,,,,,0,,74,0
57984,note_on,,4,0,1,,,,,,,,,,0,,73,100
58076,note_on,,92,0,1,,,,,,,,,,0,,73,0
58080,note_on,,4,0,1,,,,,,,,,,0,,83,100
58172,note_on,,92,0,1,,,,,,,,,,0,,83,0
58176,note_on,,4,0,1,,,,,,,,,,0,,81,100
58268,note_on,,92,0,1,,,,,,,,,,0,,81,0
58272,note_on,,4,0,1,,,,,,,,,,0,,79,100
58364,note_on,,92,0,1,,,,,,,,,,0,,79,0
58368,note_on,,4,0,1,,,,,,,,,,0,,81,100
58460,note_on,,92,0,1,,,,,,,,,,0,,81,0
58464,note_on,,4,0,1,,,,,,,,,,0,,76,100
58556,note_on,,92,0,1,,,,,,,,,,0,,76,0
58560,note_on,,4,0,1,,,,,,,,,,0,,78,100
58652,note_on,,92,0,1,,,,,,,,,,0,,78,0
58656,note_on,,4,0,1,,,,,,,,,,0,,79,100
58748,note_on,,92,0,1,,,,,,,,,,0,,79,0
58752,note_on,,832,0,2,,,,,,,,,,1,,50,100
58752,note_on,,0,0,2,,,,,,,,,,1,,57,100
58752,note_on,,0,0,2,,,,,,,,,,1,,62,100
58752,note_on,,4,0,1,,,,,,,,,,0,,78,100
58844,note_on,,92,0,1,,,,,,,,,,0,,78,0
58848,note_on,,4,0,1,,,,,,,,,,0,,79,100
58940,note_on,,92,0,1,,,,,,,,,,0,,79,0
58944,note_on,,4,0,1,,,,,,,,,,0,,81,100
59036,note_on,,92,0,1,,,,,,,,,,0,,81,0
59040,note_on,,4,0,1,,,,,,,,,,0,,79,100
59072,note_on,,320,0,2,,,,,,,,,,1,,62,0
59072,note_on,,0,0,2,,,,,,,,,,1,,57,0
59072,note_on,,0,0,2,,,,,,,,,,1,,50,0
59132,note_on,,92,0,1,,,,,,,,,,0,,79,0
59136,note_on,,4,0,1,,,,,,,,,,0,,78,100
59228,note_on,,92,0,1,,,,,,,,,,0,,78,0
59232,note_on,,4,0,1,,,,,,,,,,0,,76,100
59324,note_on,,92,0,1,,,,,,,,,,0,,76,0
59328,note_on,,4,0,1,,,,,,,,,,0,,74,100
59420,note_on,,92,0,1,,,,,,,,,,0,,74,0
59424,note_on,,4,0,1,,,,,,,,,,0,,73,100
59516,note_on,,92,0,1,,,,,,,,,,0,,73,0
59520,note_on,,4,0,1,,,,,,,,,,0,,74,100
59612,note_on,,92,0,1,,,,,,,,,,0,,74,0
59616,note_on,,4,0,1,,,,,,,,,,0,,69,100
59708,note_on,,92,0,1,,,,,,,,,,0,,69,0
59712,note_on,,4,0,1,,,,,,,,,,0,,71,100
59804,note_on,,92,0,1,,,,,,,,,,0,,71,0
59808,note_on,,4,0,1,,,,,,,,,,0,,72,100
59900,note_on,,92,0,1,,,,,,,,,,0,,72,0
59904,note_on,,0,0,2,,,,,,,,,,1,,55,100
59904,note_on,,4,0,1,,,,,,,,,,0,,71,100
59904,note_on,,0,0,2,,,,,,,,,,1,,50,100
59904,note_on,,832,0,2,,,,,,,,,,1,,47,100
59996,note_on,,92,0,1,,,,,,,,,,0,,71,0
60000,note_on,,4,0,1,,,,,,,,,,0,,72,100
60092,note_on,,92,0,1,,,,,,,,,,0,,72,0
60096,note_on,,4,0,1,,,,,,,,,,0,,74,100
60188,note_on,,92,0,1,,,,,,,,,,0,,74,0
60192,note_on,,4,0,1,,,,,,,,,,0,,72,100
60224,note_on,,320,0,2,,,,,,,,,,1,,55,0
60224,note_on,,0,0,2,,,,,,,,,,1,,50,0
60224,note_on,,0,0,2,,,,,,,,,,1,,47,0
60284,note_on,,92,0,1,,,,,,,,,,0,,72,0
60288,note_on,,4,0,1,,,,,,,,,,0,,71,100
60380,note_on,,92,0,1,,,,,,,,,,0,,71,0
60384,note_on,,4,0,1,,,,,,,,,,0,,69,100
60476,note_on,,92,0,1,,,,,,,,,,0,,69,0
60480,note_on,,4,0,1,,,,,,,,,,0,,67,100
60572,note_on,,92,0,1,,,,,,,,,,0,,67,0
60576,note_on,,4,0,1,,,,,,,,,,0,,66,100
60668,note_on,,92,0,1,,,,,,,,,,0,,66,0
60672,note_on,,0,0,2,,,,,,,,,,1,,50,100
60672,note_on,,0,0,2,,,,,,,,,,1,,55,100
60672,note_on,,448,0,2,,,,,,,,,,1,,47,100
60672,note_on,,4,0,1,,,,,,,,,,0,,67,100
60764,note_on,,92,0,1,,,,,,,,,,0,,67,0
60768,note_on,,4,0,1,,,,,,,,,,0,,62,100
60860,note_on,,92,0,1,,,,,,,,,,0,,62,0
60864,note_on,,4,0,1,,,,,,,,,,0,,64,100
60956,note_on,,92,0,1,,,,,,,,,,0,,64,0
60960,note_on,,4,0,1,,,,,,,,,,0,,66,100
60992,note_on,,320,0,2,,,,,,,,,,1,,55,0
60992,note_on,,0,0,2,,,,,,,,,,1,,50,0
60992,note_on,,0,0,2,,,,,,,,,,1,,47,0
61052,note_on,,92,0,1,,,,,,,,,,0,,66,0
61056,note_on,,4,0,1,,,,,,,,,,0,,64,100
61056,note_on,,64,0,2,,,,,,,,,,1,,48,100
61056,note_on,,0,0,2,,,,,,,,,,1,,55,100
61148,note_on,,92,0,1,,,,,,,,,,0,,64,0
61152,note_on,,4,0,1,,,,,,,,,,0,,67,100
61244,note_on,,92,0,1,,,,,,,,,,0,,67,0
61248,note_on,,4,0,1,,,,,,,,,,0,,69,100
61340,note_on,,92,0,1,,,,,,,,,,0,,69,0
61344,note_on,,4,0,1,,,,,,,,,,0,,71,100
61376,note_on,,0,0,2,,,,,,,,,,1,,48,0
61376,note_on,,320,0,2,,,,,,,,,,1,,55,0
61436,note_on,,92,0,1,,,,,,,,,,0,,71,0
61440,note_on,,4,0,1,,,,,,,,,,0,,72,100
61532,note_on,,92,0,1,,,,,,,,,,0,,72,0
61536,note_on,,4,0,1,,,,,,,,,,0,,71,100
61628,note_on,,92,0,1,,,,,,,,,,0,,71,0
61632,note_on,,4,0,1,,,,,,,,,,0,,69,100
61724,note_on,,92,0,1,,,,,,,,,,0,,69,0
61728,note_on,,4,0,1,,,,,,,,,,0,,67,100
61820,note_on,,92,0,1,,,,,,,,,,0,,67,0
61824,note_on,,0,0,2,,,,,,,,,,1,,57,100
61824,note_on,,448,0,2,,,,,,,,,,1,,48,100
61824,note_on,,4,0,1,,,,,,,,,,0,,66,100
61916,note_on,,92,0,1,,,,,,,,,,0,,66,0
61920,note_on,,4,0,1,,,,,,,,,,0,,64,100
62012,note_on,,92,0,1,,,,,,,,,,0,,64,0
62016,note_on,,4,0,1,,,,,,,,,,0,,62,100
62108,note_on,,92,0,1,,,,,,,,,,0,,62,0
62112,note_on,,4,0,1,,,,,,,,,,0,,60,100
62144,note_on,,320,0,2,,,,,,,,,,1,,57,0
62144,note_on,,0,0,2,,,,,,,,,,1,,48,0
62204,note_on,,92,0,1,,,,,,,,,,0,,60,0
62208,note_on,,4,0,1,,,,,,,,,,0,,59,100
62208,note_on,,64,0,2,,,,,,,,,,1,,50,100
62300,note_on,,92,0,1,,,,,,,,,,0,,59,0
62304,note_on,,4,0,1,,,,,,,,,,0,,62,100
62396,note_on,,92,0,1,,,,,,,,,,0,,62,0
62400,note_on,,4,0,1,,,,,,,,,,0,,67,100
62492,note_on,,92,0,1,,,,,,,,,,0,,67,0
62496,note_on,,4,0,1,,,,,,,,,,0,,59,100
62528,note_on,,320,0,2,,,,,,,,,,1,,50,0
62588,note_on,,92,0,1,,,,,,,,,,0,,59,0
62592,note_on,,4,0,1,,,,,,,,,,0,,57,100
62592,note_on,,64,0,2,,,,,,,,,,1,,38,100
62684,note_on,,92,0,1,,,,,,,,,,0,,57,0
62688,note_on,,4,0,1,,,,,,,,,,0,,66,100
62780,note_on,,92,0,1,,,,,,,,,,0,,66,0
62784,note_on,,4,0,1,,,,,,,,,,0,,67,100
62876,note_on,,92,0,1,,,,,,,,,,0,,67,0
62880,note_on,,4,0,1,,,,,,,,,,0,,69,100
62912,note_on,,320,0,2,,,,,,,,,,1,,38,0
62972,note_on,,92,0,1,,,,,,,,,,0,,69,0
62976,note_on,,64,0,2,,,,,,,,,,1,,48,100
62976,note_on,,4,0,1,,,,,,,,,,0,,66,100
63068,note_on,,92,0,1,,,,,,,,,,0,,66,0
63072,note_on,,4,0,1,,,,,,,,,,0,,67,100
63164,note_on,,92,0,1,,,,,,,,,,0,,67,0
63168,note_on,,4,0,1,,,,,,,,,,0,,64,100
63260,note_on,,92,0,1,,,,,,,,,,0,,64,0
63264,note_on,,4,0,1,,,,,,,,,,0,,66,100
63296,note_on,,320,0,2,,,,,,,,,,1,,48,0
63356,note_on,,92,0,1,,,,,,,,,,0,,66,0
63360,note_on,,64,0,2,,,,,,,,,,1,,43,100
63360,note_on,,0,0,2,,,,,,,,,,1,,47,100
63360,note_on,,0,0,2,,,,,,,,,,1,,50,100
63360,note_on,,4,0,1,,,,,,,,,,0,,67,100
63452,note_on,,92,0,1,,,,,,,,,,0,,67,0
63456,note_on,,4,0,1,,,,,,,,,,0,,64,100
63548,note_on,,92,0,1,,,,,,,,,,0,,64,0
63552,note_on,,4,0,1,,,,,,,,,,0,,62,100
63644,note_on,,92,0,1,,,,,,,,,,0,,62,0
63648,note_on,,4,0,1,,,,,,,,,,0,,60,100
63680,note_on,,320,0,2,,,,,,,,,,1,,50,0
63680,note_on,,0,0,2,,,,,,,,,,1,,43,0
63680,note_on,,0,0,2,,,,,,,,,,1,,47,0
63740,note_on,,92,0,1,,,,,,,,,,0,,60,0
63744,note_on,,0,0,2,,,,,,,,,,1,,43,100
63744,note_on,,64,0,2,,,,,,,,,,1,,31,100
63744,note_on,,4,0,1,,,,,,,,,,0,,59,100
63836,note_on,,92,0,1,,,,,,,,,,0,,59,0
63840,note_on,,4,0,1,,,,,,,,,,0,,60,100
63932,note_on,,92,0,1,,,,,,,,,,0,,60,0
63936,note_on,,4,0,1,,,,,,,,,,0,,57,100
64028,note_on,,92,0,1,,,,,,,,,,0,,57,0
64032,note_on,,4,0,1,,,,,,,,,,0,,59,100
64124,note_on,,92,0,1,,,,,,,,,,0,,59,0
64128,note_on,,4,0,1,,,,,,,,,,0,,55,100
64220,note_on,,92,0,1,,,,,,,,,,0,,55,0
64224,note_on,,4,0,1,,,,,,,,,,0,,62,100
64316,note_on,,92,0,1,,,,,,,,,,0,,62,0
64320,note_on,,4,0,1,,,,,,,,,,0,,64,100
64412,note_on,,92,0,1,,,,,,,,,,0,,64,0
64416,note_on,,0,0,2,,,,,,,,,,1,,31,0
64416,note_on,,4,0,1,,,,,,,,,,0,,66,100
64416,note_on,,672,0,2,,,,,,,,,,1,,43,0
64508,note_on,,92,0,1,,,,,,,,,,0,,66,0
64512,note_on,,0,0,1,,,,,,,,,,0,,71,100
64512,note_on,,0,0,1,,,,,,,,,,0,,67,100
64512,note_on,,4,0,1,,,,,,,,,,0,,62,100
64608,note_on,,192,0,2,,,,,,,,,,1,,43,100
64700,note_on,,92,0,2,,,,,,,,,,1,,43,0
64704,note_on,,4,0,2,,,,,,,,,,1,,45,100
64796,note_on,,92,0,2,,,,,,,,,,1,,45,0
64800,note_on,,4,0,2,,,,,,,,,,1,,47,100
64832,note_on,,320,0,1,,,,,,,,,,0,,71,0
64832,note_on,,0,0,1,,,,,,,,,,0,,62,0
64832,note_on,,0,0,1,,,,,,,,,,0,,67,0
64892,note_on,,92,0,2,,,,,,,,,,1,,47,0
64896,note_on,,4,0,2,,,,,,,,,,1,,48,100
64988,note_on,,92,0,2,,,,,,,,,,1,,48,0
64992,note_on,,4,0,2,,,,,,,,,,1,,50,100
65084,note_on,,92,0,2,,,,,,,,,,1,,50,0
65088,note_on,,4,0,2,,,,,,,,,,1,,52,100
65180,note_on,,92,0,2,,,,,,,,,,1,,52,0
65184,note_on,,4,0,2,,,,,,,,,,1,,54,100
65276,note_on,,92,0,2,,,,,,,,,,1,,54,0
65280,note_on,,448,0,1,,,,,,,,,,0,,67,100
65280,note_on,,0,0,1,,,,,,,,,,0,,71,100
65280,note_on,,4,0,2,,,,,,,,,,1,,55,100
65372,note_on,,92,0,2,,,,,,,,,,1,,55,0
65376,note_on,,4,0,2,,,,,,,,,,1,,57,100
65468,note_on,,92,0,2,,,,,,,,,,1,,57,0
65472,note_on,,4,0,2,,,,,,,,,,1,,59,100
65564,note_on,,92,0,2,,,,,,,,,,1,,59,0
65568,note_on,,4,0,2,,,,,,,,,,1,,60,100
65600,note_on,,320,0,1,,,,,,,,,,0,,71,0
65600,note_on,,0,0,1,,,,,,,,,,0,,67,0
65660,note_on,,92,0,2,,,,,,,,,,1,,60,0
65664,note_on,,64,0,1,,,,,,,,,,0,,66,100
65664,note_on,,4,0,2,,,,,,,,,,1,,62,100
65664,note_on,,0,0,1,,,,,,,,,,0,,69,100
65756,note_on,,92,0,2,,,,,,,,,,1,,62,0
65760,note_on,,4,0,2,,,,,,,,,,1,,59,100
65852,note_on,,92,0,2,,,,,,,,,,1,,59,0
65856,note_on,,4,0,2,,,,,,,,,,1,,57,100
65948,note_on,,92,0,2,,,,,,,,,,1,,57,0
65952,note_on,,4,0,2,,,,,,,,,,1,,55,100
65984,note_on,,0,0,1,,,,,,,,,,0,,66,0
65984,note_on,,320,0,1,,,,,,,,,,0,,69,0
66044,note_on,,92,0,2,,,,,,,,,,1,,55,0
66048,note_on,,4,0,2,,,,,,,,,,1,,54,100
66140,note_on,,92,0,2,,,,,,,,,,1,,54,0
66144,note_on,,4,0,2,,,,,,,,,,1,,55,100
66236,note_on,,92,0,2,,,,,,,,,,1,,55,0
66240,note_on,,4,0,2,,,,,,,,,,1,,54,100
66332,note_on,,92,0,2,,,,,,,,,,1,,54,0
66336,note_on,,4,0,2,,,,,,,,,,1,,52,100
66428,note_on,,92,0,2,,,,,,,,,,1,,52,0
66432,note_on,,4,0,2,,,,,,,,,,1,,50,100
66432,note_on,,0,0,1,,,,,,,,,,0,,74,100
66432,note_on,,0,0,1,,,,,,,,,,0,,69,100
66432,note_on,,448,0,1,,,,,,,,,,0,,66,100
66524,note_on,,92,0,2,,,,,,,,,,1,,50,0
66528,note_on,,4,0,2,,,,,,,,,,1,,54,100
66620,note_on,,92,0,2,,,,,,,,,,1,,54,0
66624,note_on,,4,0,2,,,,,,,,,,1,,52,100
66716,note_on,,92,0,2,,,,,,,,,,1,,52,0
66720,note_on,,4,0,2,,,,,,,,,,1,,50,100
66752,note_on,,320,0,1,,,,,,,,,,0,,74,0
66752,note_on,,0,0,1,,,,,,,,,,0,,66,0
66752,note_on,,0,0,1,,,,,,,,,,0,,69,0
66812,note_on,,92,0,2,,,,,,,,,,1,,50,0
66816,note_on,,4,0,2,,,,,,,,,,1,,52,100
66816,note_on,,64,0,1,,,,,,,,,,0,,67,100
66816,note_on,,0,0,1,,,,,,,,,,0,,71,100
66816,note_on,,0,0,1,,,,,,,,,,0,,76,100
66816,note_on,,0,0,1,,,,,,,,,,0,,79,100
66908,note_on,,92,0,2,,,,,,,,,,1,,52,0
66912,note_on,,4,0,2,,,,,,,,,,1,,54,100
67004,note_on,,92,0,2,,,,,,,,,,1,,54,0
67008,note_on,,4,0,2,,,,,,,,,,1,,55,100
67100,note_on,,92,0,2,,,,,,,,,,1,,55,0
67104,note_on,,4,0,2,,,,,,,,,,1,,54,100
67136,note_on,,0,0,1,,,,,,,,,,0,,71,0
67136,note_on,,0,0,1,,,,,,,,,,0,,67,0
67136,note_on,,320,0,1,,,,,,,,,,0,,79,0
67136,note_on,,0,0,1,,,,,,,,,,0,,76,0
67196,note_on,,92,0,2,,,,,,,,,,1,,54,0
67200,note_on,,4,0,2,,,,,,,,,,1,,52,100
67292,note_on,,92,0,2,,,,,,,,,,1,,52,0
67296,note_on,,4,0,2,,,,,,,,,,1,,54,100
67388,note_on,,92,0,2,,,,,,,,,,1,,54,0
67392,note_on,,4,0,2,,,,,,,,,,1,,52,100
67484,note_on,,92,0,2,,,,,,,,,,1,,52,0
67488,note_on,,4,0,2,,,,,,,,,,1,,50,100
67580,note_on,,92,0,2,,,,,,,,,,1,,50,0
67584,note_on,,0,0,1,,,,,,,,,,0,,79,100
67584,note_on,,0,0,1,,,,,,,,,,0,,76,100
67584,note_on,,0,0,1,,,,,,,,,,0,,73,100
67584,note_on,,448,0,1,,,,,,,,,,0,,69,100
67584,note_on,,4,0,2,,,,,,,,,,1,,49,100
67676,note_on,,92,0,2,,,,,,,,,,1,,49,0
67680,note_on,,4,0,2,,,,,,,,,,1,,45,100
67772,note_on,,92,0,2,,,,,,,,,,1,,45,0
67776,note_on,,4,0,2,,,,,,,,,,1,,47,100
67868,note_on,,92,0,2,,,,,,,,,,1,,47,0
67872,note_on,,4,0,2,,,,,,,,,,1,,49,100
67904,note_on,,0,0,1,,,,,,,,,,0,,69,0
67904,note_on,,320,0,1,,,,,,,,,,0,,79,0
67904,note_on,,0,0,1,,,,,,,,,,0,,76,0
67904,note_on,,0,0,1,,,,,,,,,,0,,73,0
67964,note_on,,92,0,2,,,,,,,,,,1,,49,0
67968,note_on,,0,0,1,,,,,,,,,,0,,78,100
67968,note_on,,64,0,1,,,,,,,,,,0,,69,100
67968,note_on,,4,0,2,,,,,,,,,,1,,50,100
67968,note_on,,0,0,1,,,,,,,,,,0,,74,100
68060,note_on,,92,0,2,,,,,,,,,,1,,50,0
68064,note_on,,4,0,2,,,,,,,,,,1,,45,100
68156,note_on,,92,0,2,,,,,,,,,,1,,45,0
68160,note_on,,4,0,2,,,,,,,,,,1,,47,100
68252,note_on,,92,0,2,,,,,,,,,,1,,47,0
68256,note_on,,4,0,2,,,,,,,,,,1,,49,100
68288,note_on,,0,0,1,,,,,,,,,,0,,74,0
68288,note_on,,320,0,1,,,,,,,,,,0,,78,0
68288,note_on,,0,0,1,,,,,,,,,,0,,69,0
68348,note_on,,92,0,2,,,,,,,,,,1,,49,0
68352,note_on,,4,0,2,,,,,,,,,,1,,50,100
68444,note_on,,92,0,2,,,,,,,,,,1,,50,0
68448,note_on,,4,0,2,,,,,,,,,,1,,52,100
68540,note_on,,92,0,2,,,,,,,,,,1,,52,0
68544,note_on,,4,0,2,,,,,,,,,,1,,54,100
68636,note_on,,92,0,2,,,,,,,,,,1,,54,0
68640,note_on,,4,0,2,,,,,,,,,,1,,55,100
68732,note_on,,92,0,2,,,,,,,,,,1,,55,0
68736,note_on,,4,0,2,,,,,,,,,,1,,54,100
68736,note_on,,0,0,1,,,,,,,,,,0,,81,100
68736,note_on,,448,0,1,,,,,,,,,,0,,74,100
68828,note_on,,92,0,2,,,,,,,,,,1,,54,0
68832,note_on,,4,0,2,,,,,,,,,,1,,50,100
68924,note_on,,92,0,2,,,,,,,,,,1,,50,0
68928,note_on,,4,0,2,,,,,,,,,,1,,52,100
69020,note_on,,92,0,2,,,,,,,,,,1,,52,0
69024,note_on,,4,0,2,,,,,,,,,,1,,54,100
69056,note_on,,320,0,1,,,,,,,,,,0,,81,0
69056,note_on,,0,0,1,,,,,,,,,,0,,74,0
69116,note_on,,92,0,2,,,,,,,,,,1,,54,0
69120,note_on,,4,0,2,,,,,,,,,,1,,55,100
69120,note_on,,64,0,1,,,,,,,,,,0,,74,100
69120,note_on,,0,0,1,,,,,,,,,,0,,83,100
69212,note_on,,92,0,2,,,,,,,,,,1,,55,0
69216,note_on,,4,0,2,,,,,,,,,,1,,50,100
69308,note_on,,92,0,2,,,,,,,,,,1,,50,0
69312,note_on,,4,0,2,,,,,,,,,,1,,52,100
69404,note_on,,92,0,2,,,,,,,,,,1,,52,0
69408,note_on,,4,0,2,,,,,,,,,,1,,54,100
69440,note_on,,0,0,1,,,,,,,,,,0,,74,0
69440,note_on,,320,0,1,,,,,,,,,,0,,83,0
69500,note_on,,92,0,2,,,,,,,,,,1,,54,0
69504,note_on,,4,0,2,,,,,,,,,,1,,55,100
69596,note_on,,92,0,2,,,,,,,,,,1,,55,0
69600,note_on,,4,0,2,,,,,,,,,,1,,57,100
69692,note_on,,92,0,2,,,,,,,,,,1,,57,0
69696,note_on,,4,0,2,,,,,,,,,,1,,59,100
69788,note_on,,92,0,2,,,,,,,,,,1,,59,0
69792,note_on,,4,0,2,,,,,,,,,,1,,60,100
69884,note_on,,92,0,2,,,,,,,,,,1,,60,0
69888,note_on,,4,0,2,,,,,,,,,,1,,59,100
69888,note_on,,0,0,1,,,,,,,,,,0,,74,100
69888,note_on,,448,0,1,,,,,,,,,,0,,67,100
69980,note_on,,92,0,2,,,,,,,,,,1,,59,0
69984,note_on,,4,0,2,,,,,,,,,,1,,55,100
70076,note_on,,92,0,2,,,,,,,,,,1,,55,0
70080,note_on,,4,0,2,,,,,,,,,,1,,57,100
70172,note_on,,92,0,2,,,,,,,,,,1,,57,0
70176,note_on,,4,0,2,,,,,,,,,,1,,59,100
70208,note_on,,0,0,1,,,,,,,,,,0,,67,0
70208,note_on,,320,0,1,,,,,,,,,,0,,74,0
70268,note_on,,92,0,2,,,,,,,,,,1,,59,0
70272,note_on,,4,0,2,,,,,,,,,,1,,60,100
70272,note_on,,0,0,1,,,,,,,,,,0,,76,100
70272,note_on,,64,0,1,,,,,,,,,,0,,67,100
70364,note_on,,92,0,2,,,,,,,,,,1,,60,0
70368,note_on,,4,0,2,,,,,,,,,,1,,48,100
70460,note_on,,92,0,2,,,,,,,,,,1,,48,0
70464,note_on,,4,0,2,,,,,,,,,,1,,50,100
70556,note_on,,92,0,2,,,,,,,,,,1,,50,0
70560,note_on,,4,0,2,,,,,,,,,,1,,52,100
70592,note_on,,0,0,1,,,,,,,,,,0,,67,0
70592,note_on,,320,0,1,,,,,,,,,,0,,76,0
70652,note_on,,92,0,2,,,,,,,,,,1,,52,0
70656,note_on,,4,0,2,,,,,,,,,,1,,54,100
70748,note_on,,92,0,2,,,,,,,,,,1,,54,0
70752,note_on,,4,0,2,,,,,,,,,,1,,55,100
70844,note_on,,92,0,2,,,,,,,,,,1,,55,0
70848,note_on,,4,0,2,,,,,,,,,,1,,57,100
70940,note_on,,92,0,2,,,,,,,,,,1,,57,0
70944,note_on,,4,0,2,,,,,,,,,,1,,59,100
71036,note_on,,92,0,2,,,,,,,,,,1,,59,0
71040,note_on,,0,0,1,,,,,,,,,,0,,69,100
71040,note_on,,448,0,1,,,,,,,,,,0,,67,100
71040,note_on,,0,0,1,,,,,,,,,,0,,76,100
71040,note_on,,4,0,2,,,,,,,,,,1,,60,100
71132,note_on,,92,0,2,,,,,,,,,,1,,60,0
71136,note_on,,4,0,2,,,,,,,,,,1,,62,100
71228,note_on,,92,0,2,,,,,,,,,,1,,62,0
71232,note_on,,4,0,2,,,,,,,,,,1,,59,100
71324,note_on,,92,0,2,,,,,,,,,,1,,59,0
71328,note_on,,4,0,2,,,,,,,,,,1,,60,100
71360,note_on,,0,0,1,,,,,,,,,,0,,67,0
71360,note_on,,0,0,1,,,,,,,,,,0,,69,0
71360,note_on,,320,0,1,,,,,,,,,,0,,76,0
71420,note_on,,92,0,2,,,,,,,,,,1,,60,0
71424,note_on,,4,0,2,,,,,,,,,,1,,62,100
71424,note_on,,64,0,1,,,,,,,,,,0,,67,100
71424,note_on,,0,0,1,,,,,,,,,,0,,69,100
71516,note_on,,92,0,2,,,,,,,,,,1,,62,0
71520,note_on,,4,0,2,,,,,,,,,,1,,50,100
71612,note_on,,92,0,2,,,,,,,,,,1,,50,0
71616,note_on,,4,0,2,,,,,,,,,,1,,52,100
71708,note_on,,92,0,2,,,,,,,,,,1,,52,0
71712,note_on,,4,0,2,,,,,,,,,,1,,54,100
71744,note_on,,0,0,1,,,,,,,,,,0,,67,0
71744,note_on,,320,0,1,,,,,,,,,,0,,69,0
71804,note_on,,92,0,2,,,,,,,,,,1,,54,0
71808,note_on,,4,0,2,,,,,,,,,,1,,55,100
71900,note_on,,92,0,2,,,,,,,,,,1,,55,0
71904,note_on,,4,0,2,,,,,,,,,,1,,57,100
71996,note_on,,92,0,2,,,,,,,,,,1,,57,0
72000,note_on,,4,0,2,,,,,,,,,,1,,59,100
72092,note_on,,92,0,2,,,,,,,,,,1,,59,0
72096,note_on,,4,0,2,,,,,,,,,,1,,60,100
72188,note_on,,92,0,2,,,,,,,,,,1,,60,0
72192,note_on,,0,0,1,,,,,,,,,,0,,69,100
72192,note_on,,0,0,1,,,,,,,,,,0,,74,100
72192,note_on,,448,0,1,,,,,,,,,,0,,66,100
72192,note_on,,4,0,2,,,,,,,,,,1,,62,100
72284,note_on,,92,0,2,,,,,,,,,,1,,62,0
72288,note_on,,4,0,2,,,,,,,,,,1,,50,100
72380,note_on,,92,0,2,,,,,,,,,,1,,50,0
72384,note_on,,4,0,2,,,,,,,,,,1,,52,100
72476,note_on,,92,0,2,,,,,,,,,,1,,52,0
72480,note_on,,4,0,2,,,,,,,,,,1,,54,100
72512,note_on,,0,0,1,,,,,,,,,,0,,69,0
72512,note_on,,320,0,1,,,,,,,,,,0,,74,0
72512,note_on,,0,0,1,,,,,,,,,,0,,66,0
72572,note_on,,92,0,2,,,,,,,,,,1,,54,0
72576,note_on,,4,0,2,,,,,,,,,,1,,55,100
72576,note_on,,64,0,1,,,,,,,,,,0,,62,100
72576,note_on,,0,0,1,,,,,,,,,,0,,71,100
72576,note_on,,0,0,1,,,,,,,,,,0,,67,100
72668,note_on,,92,0,2,,,,,,,,,,1,,55,0
72672,note_on,,4,0,2,,,,,,,,,,1,,50,100
72764,note_on,,92,0,2,,,,,,,,,,1,,50,0
72768,note_on,,4,0,2,,,,,,,,,,1,,52,100
72860,note_on,,92,0,2,,,,,,,,,,1,,52,0
72864,note_on,,4,0,2,,,,,,,,,,1,,54,100
72896,note_on,,320,0,1,,,,,,,,,,0,,71,0
72896,note_on,,0,0,1,,,,,,,,,,0,,67,0
72896,note_on,,0,0,1,,,,,,,,,,0,,62,0
72956,note_on,,92,0,2,,,,,,,,,,1,,54,0
72960,note_on,,4,0,2,,,,,,,,,,1,,55,100
73052,note_on,,92,0,2,,,,,,,,,,1,,55,0
73056,note_on,,4,0,2,,,,,,,,,,1,,47,100
73148,note_on,,92,0,2,,,,,,,,,,1,,47,0
73152,note_on,,4,0,2,,,,,,,,,,1,,48,100
73244,note_on,,92,0,2,,,,,,,,,,1,,48,0
73248,note_on,,4,0,2,,,,,,,,,,1,,50,100
73340,note_on,,92,0,2,,,,,,,,,,1,,50,0
73344,note_on,,4,0,2,,,,,,,,,,1,,31,100
73344,note_on,,0,0,2,,,,,,,,,,1,,43,100
73440,note_on,,544,0,1,,,,,,,,,,0,,66,100
73532,note_on,,92,0,1,,,,,,,,,,0,,66,0
73536,note_on,,4,0,1,,,,,,,,,,0,,67,100
73628,note_on,,92,0,1,,,,,,,,,,0,,67,0
73632,note_on,,4,0,1,,,,,,,,,,0,,69,100
73664,note_on,,320,0,2,,,,,,,,,,1,,43,0
73664,note_on,,0,0,2,,,,,,,,,,1,,31,0
73724,note_on,,92,0,1,,,,,,,,,,0,,69,0
73728,note_on,,64,0,2,,,,,,,,,,1,,55,100
73728,note_on,,0,0,2,,,,,,,,,,1,,59,100
73728,note_on,,0,0,2,,,,,,,,,,1,,62,100
73824,note_on,,100,0,1,,,,,,,,,,0,,74,100
73916,note_on,,92,0,1,,,,,,,,,,0,,74,0
73920,note_on,,4,0,1,,,,,,,,,,0,,72,100
74012,note_on,,92,0,1,,,,,,,,,,0,,72,0
74016,note_on,,4,0,1,,,,,,,,,,0,,74,100
74048,note_on,,0,0,2,,,,,,,,,,1,,55,0
74048,note_on,,320,0,2,,,,,,,,,,1,,62,0
74048,note_on,,0,0,2,,,,,,,,,,1,,59,0
74108,note_on,,92,0,1,,,,,,,,,,0,,74,0
74112,note_on,,4,0,1,,,,,,,,,,0,,71,100
74204,note_on,,92,0,1,,,,,,,,,,0,,71,0
74208,note_on,,4,0,1,,,,,,,,,,0,,74,100
74300,note_on,,92,0,1,,,,,,,,,,0,,74,0
74304,note_on,,4,0,1,,,,,,,,,,0,,69,100
74396,note_on,,92,0,1,,,,,,,,,,0,,69,0
74400,note_on,,4,0,1,,,,,,,,,,0,,74,100
74492,note_on,,92,0,1,,,,,,,,,,0,,74,0
74496,note_on,,4,0,1,,,,,,,,,,0,,67,100
74588,note_on,,92,0,1,,,,,,,,,,0,,67,0
74592,note_on,,4,0,1,,,,,,,,,,0,,74,100
74684,note_on,,92,0,1,,,,,,,,,,0,,74,0
74688,note_on,,4,0,1,,,,,,,,,,0,,71,100
74780,note_on,,92,0,1,,,,,,,,,,0,,71,0
74784,note_on,,4,0,1,,,,,,,,,,0,,74,100
74876,note_on,,92,0,1,,,,,,,,,,0,,74,0
74880,note_on,,0,0,2,,,,,,,,,,1,,62,100
74880,note_on,,0,0,2,,,,,,,,,,1,,57,100
74880,note_on,,832,0,2,,,,,,,,,,1,,54,100
74880,note_on,,4,0,1,,,,,,,,,,0,,69,100
74972,note_on,,92,0,1,,,,,,,,,,0,,69,0
74976,note_on,,4,0,1,,,,,,,,,,0,,74,100
75068,note_on,,92,0,1,,,,,,,,,,0,,74,0
75072,note_on,,4,0,1,,,,,,,,,,0,,67,100
75164,note_on,,92,0,1,,,,,,,,,,0,,67,0
75168,note_on,,4,0,1,,,,,,,,,,0,,74,100
75200,note_on,,0,0,2,,,,,,,,,,1,,54,0
75200,note_on,,0,0,2,,,,,,,,,,1,,57,0
75200,note_on,,320,0,2,,,,,,,,,,1,,62,0
75260,note_on,,92,0,1,,,,,,,,,,0,,74,0
75264,note_on,,4,0,1,,,,,,,,,,0,,66,100
75356,note_on,,92,0,1,,,,,,,,,,0,,66,0
75360,note_on,,4,0,1,,,,,,,,,,0,,74,100
75452,note_on,,92,0,1,,,,,,,,,,0,,74,0
75456,note_on,,4,0,1,,,,,,,,,,0,,64,100
75548,note_on,,92,0,1,,,,,,,,,,0,,64,0
75552,note_on,,4,0,1,,,,,,,,,,0,,74,100
75644,note_on,,92,0,1,,,,,,,,,,0,,74,0
75648,note_on,,4,0,1,,,,,,,,,,0,,62,100
75740,note_on,,92,0,1,,,,,,,,,,0,,62,0
75744,note_on,,4,0,1,,,,,,,,,,0,,74,100
75836,note_on,,92,0,1,,,,,,,,,,0,,74,0
75840,note_on,,4,0,1,,,,,,,,,,0,,73,100
75932,note_on,,92,0,1,,,,,,,,,,0,,73,0
75936,note_on,,4,0,1,,,,,,,,,,0,,74,100
76028,note_on,,92,0,1,,,,,,,,,,0,,74,0
76032,note_on,,832,0,2,,,,,,,,,,1,,52,100
76032,note_on,,0,0,2,,,,,,,,,,1,,55,100
76032,note_on,,0,0,2,,,,,,,,,,1,,61,100
76032,note_on,,4,0,1,,,,,,,,,,0,,67,100
76124,note_on,,92,0,1,,,,,,,,,,0,,67,0
76128,note_on,,4,0,1,,,,,,,,,,0,,79,100
76220,note_on,,92,0,1,,,,,,,,,,0,,79,0
76224,note_on,,4,0,1,,,,,,,,,,0,,78,100
76316,note_on,,92,0,1,,,,,,,,,,0,,78,0
76320,note_on,,4,0,1,,,,,,,,,,0,,79,100
76352,note_on,,0,0,2,,,,,,,,,,1,,55,0
76352,note_on,,320,0,2,,,,,,,,,,1,,61,0
76352,note_on,,0,0,2,,,,,,,,,,1,,52,0
76412,note_on,,92,0,1,,,,,,,,,,0,,79,0
76416,note_on,,4,0,1,,,,,,,,,,0,,76,100
76508,note_on,,92,0,1,,,,,,,,,,0,,76,0
76512,note_on,,4,0,1,,,,,,,,,,0,,79,100
76604,note_on,,92,0,1,,,,,,,,,,0,,79,0
76608,note_on,,4,0,1,,,,,,,,,,0,,74,100
76700,note_on,,92,0,1,,,,,,,,,,0,,74,0
76704,note_on,,4,0,1,,,,,,,,,,0,,79,100
76796,note_on,,92,0,1,,,,,,,,,,0,,79,0
76800,note_on,,4,0,1,,,,,,,,,,0,,73,100
76892,note_on,,92,0,1,,,,,,,,,,0,,73,0
76896,note_on,,4,0,1,,,,,,,,,,0,,83,100
76988,note_on,,92,0,1,,,,,,,,,,0,,83,0
76992,note_on,,4,0,1,,,,,,,,,,0,,81,100
77084,note_on,,92,0,1,,,,,,,,,,0,,81,0
77088,note_on,,4,0,1,,,,,,,,,,0,,79,100
77180,note_on,,92,0,1,,,,,,,,,,0,,79,0
77184,note_on,,4,0,1,,,,,,,,,,0,,78,100
77184,note_on,,0,0,2,,,,,,,,,,1,,62,100
77184,note_on,,0,0,2,,,,,,,,,,1,,57,100
77184,note_on,,832,0,2,,,,,,,,,,1,,50,100
77276,note_on,,92,0,1,,,,,,,,,,0,,78,0
77280,note_on,,4,0,1,,,,,,,,,,0,,81,100
77372,note_on,,92,0,1,,,,,,,,,,0,,81,0
77376,note_on,,4,0,1,,,,,,,,,,0,,79,100
77468,note_on,,92,0,1,,,,,,,,,,0,,79,0
77472,note_on,,4,0,1,,,,,,,,,,0,,81,100
77504,note_on,,320,0,2,,,,,,,,,,1,,62,0
77504,note_on,,0,0,2,,,,,,,,,,1,,57,0
77504,note_on,,0,0,2,,,,,,,,,,1,,50,0
77564,note_on,,92,0,1,,,,,,,,,,0,,81,0
77568,note_on,,4,0,1,,,,,,,,,,0,,78,100
77660,note_on,,92,0,1,,,,,,,,,,0,,78,0
77664,note_on,,4,0,1,,,,,,,,,,0,,81,100
77756,note_on,,92,0,1,,,,,,,,,,0,,81,0
77760,note_on,,4,0,1,,,,,,,,,,0,,76,100
77852,note_on,,92,0,1,,,,,,,,,,0,,76,0
77856,note_on,,4,0,1,,,,,,,,,,0,,81,100
77948,note_on,,92,0,1,,,,,,,,,,0,,81,0
77952,note_on,,0,0,2,,,,,,,,,,1,,57,100
77952,note_on,,4,0,1,,,,,,,,,,0,,74,100
77952,note_on,,448,0,2,,,,,,,,,,1,,54,100
78044,note_on,,92,0,1,,,,,,,,,,0,,74,0
78048,note_on,,4,0,1,,,,,,,,,,0,,81,100
78140,note_on,,92,0,1,,,,,,,,,,0,,81,0
78144,note_on,,4,0,1,,,,,,,,,,0,,72,100
78236,note_on,,92,0,1,,,,,,,,,,0,,72,0
78240,note_on,,4,0,1,,,,,,,,,,0,,81,100
78272,note_on,,320,0,2,,,,,,,,,,1,,57,0
78272,note_on,,0,0,2,,,,,,,,,,1,,54,0
78332,note_on,,92,0,1,,,,,,,,,,0,,81,0
78336,note_on,,0,0,2,,,,,,,,,,1,,59,100
78336,note_on,,64,0,2,,,,,,,,,,1,,55,100
78336,note_on,,4,0,1,,,,,,,,,,0,,71,100
78428,note_on,,92,0,1,,,,,,,,,,0,,71,0
78432,note_on,,4,0,1,,,,,,,,,,0,,79,100
78524,note_on,,92,0,1,,,,,,,,,,0,,79,0
78528,note_on,,4,0,1,,,,,,,,,,0,,78,100
78620,note_on,,92,0,1,,,,,,,,,,0,,78,0
78624,note_on,,4,0,1,,,,,,,,,,0,,79,100
78656,note_on,,0,0,2,,,,,,,,,,1,,55,0
78656,note_on,,320,0,2,,,,,,,,,,1,,59,0
78716,note_on,,92,0,1,,,,,,,,,,0,,79,0
78720,note_on,,4,0,1,,,,,,,,,,0,,76,100
78812,note_on,,92,0,1,,,,,,,,,,0,,76,0
78816,note_on,,4,0,1,,,,,,,,,,0,,79,100
78908,note_on,,92,0,1,,,,,,,,,,0,,79,0
78912,note_on,,4,0,1,,,,,,,,,,0,,74,100
79004,note_on,,92,0,1,,,,,,,,,,0,,74,0
79008,note_on,,4,0,1,,,,,,,,,,0,,79,100
79100,note_on,,92,0,1,,,,,,,,,,0,,79,0
79104,note_on,,4,0,1,,,,,,,,,,0,,72,100
79104,note_on,,0,0,2,,,,,,,,,,1,,50,100
79104,note_on,,448,0,2,,,,,,,,,,1,,47,100
79196,note_on,,92,0,1,,,,,,,,,,0,,72,0
79200,note_on,,4,0,1,,,,,,,,,,0,,79,100
79292,note_on,,92,0,1,,,,,,,,,,0,,79,0
79296,note_on,,4,0,1,,,,,,,,,,0,,71,100
79388,note_on,,92,0,1,,,,,,,,,,0,,71,0
79392,note_on,,4,0,1,,,,,,,,,,0,,79,100
79424,note_on,,0,0,2,,,,,,,,,,1,,47,0
79424,note_on,,320,0,2,,,,,,,,,,1,,50,0
79484,note_on,,92,0,1,,,,,,,,,,0,,79,0
79488,note_on,,64,0,2,,,,,,,,,,1,,48,100
79488,note_on,,4,0,1,,,,,,,,,,0,,69,100
79488,note_on,,0,0,2,,,,,,,,,,1,,52,100
79580,note_on,,92,0,1,,,,,,,,,,0,,69,0
79584,note_on,,4,0,1,,,,,,,,,,0,,79,100
79676,note_on,,92,0,1,,,,,,,,,,0,,79,0
79680,note_on,,4,0,1,,,,,,,,,,0,,78,100
79772,note_on,,92,0,1,,,,,,,,,,0,,78,0
79776,note_on,,4,0,1,,,,,,,,,,0,,79,100
79808,note_on,,0,0,2,,,,,,,,,,1,,48,0
79808,note_on,,320,0,2,,,,,,,,,,1,,52,0
79868,note_on,,92,0,1,,,,,,,,,,0,,79,0
79872,note_on,,4,0,1,,,,,,,,,,0,,76,100
79964,note_on,,92,0,1,,,,,,,,,,0,,76,0
79968,note_on,,4,0,1,,,,,,,,,,0,,79,100
80060,note_on,,92,0,1,,,,,,,,,,0,,79,0
80064,note_on,,4,0,1,,,,,,,,,,0,,74,100
80156,note_on,,92,0,1,,,,,,,,,,0,,74,0
80160,note_on,,4,0,1,,,,,,,,,,0,,79,100
80252,note_on,,92,0,1,,,,,,,,,,0,,79,0
80256,note_on,,4,0,1,,,,,,,,,,0,,72,100
80256,note_on,,448,0,2,,,,,,,,,,1,,48,100
80256,note_on,,0,0,2,,,,,,,,,,1,,57,100
80348,note_on,,92,0,1,,,,,,,,,,0,,72,0
80352,note_on,,4,0,1,,,,,,,,,,0,,79,100
80444,note_on,,92,0,1,,,,,,,,,,0,,79,0
80448,note_on,,4,0,1,,,,,,,,,,0,,71,100
80540,note_on,,92,0,1,,,,,,,,,,0,,71,0
80544,note_on,,4,0,1,,,,,,,,,,0,,79,100
80576,note_on,,0,0,2,,,,,,,,,,1,,48,0
80576,note_on,,320,0,2,,,,,,,,,,1,,57,0
80636,note_on,,92,0,1,,,,,,,,,,0,,79,0
80640,note_on,,4,0,1,,,,,,,,,,0,,69,100
80640,note_on,,64,0,2,,,,,,,,,,1,,50,100
80640,note_on,,0,0,2,,,,,,,,,,1,,62,100
80736,note_on,,96,0,1,,,,,,,,,,0,,69,0
80736,note_on,,0,0,1,,,,,,,,,,0,,83,100
80832,note_on,,96,0,1,,,,,,,,,,0,,83,0
80832,note_on,,0,0,1,,,,,,,,,,0,,81,100
80928,note_on,,96,0,1,,,,,,,,,,0,,81,0
80928,note_on,,0,0,1,,,,,,,,,,0,,79,100
80960,note_on,,0,0,2,,,,,,,,,,1,,50,0
80960,note_on,,320,0,2,,,,,,,,,,1,,62,0
81024,note_on,,96,0,1,,,,,,,,,,0,,79,0
81024,note_on,,0,0,1,,,,,,,,,,0,,78,100
81120,note_on,,96,0,1,,,,,,,,,,0,,78,0
81120,note_on,,0,0,1,,,,,,,,,,0,,79,100
81216,note_on,,96,0,1,,,,,,,,,,0,,79,0
81216,note_on,,0,0,1,,,,,,,,,,0,,76,100
81312,note_on,,96,0,1,,,,,,,,,,0,,76,0
81312,note_on,,0,0,1,,,,,,,,,,0,,78,100
81404,note_on,,92,0,1,,,,,,,,,,0,,78,0
81408,note_on,,0,0,2,,,,,,,,,,1,,50,100
81408,note_on,,448,0,2,,,,,,,,,,1,,38,100
81408,note_on,,4,0,1,,,,,,,,,,0,,79,100
81456,note_on,,48,0,1,,,,,,,,,,0,,79,0
81456,note_on,,0,0,1,,,,,,,,,,0,,78,100
81504,note_on,,48,0,1,,,,,,,,,,0,,78,0
81504,note_on,,0,0,1,,,,,,,,,,0,,79,100
81552,note_on,,0,0,1,,,,,,,,,,0,,78,100
81552,note_on,,48,0,1,,,,,,,,,,0,,79,0
81600,note_on,,48,0,1,,,,,,,,,,0,,78,0
81600,note_on,,0,0,1,,,,,,,,,,0,,79,100
81648,note_on,,0,0,1,,,,,,,,,,0,,78,100
81648,note_on,,48,0,1,,,,,,,,,,0,,79,0
81696,note_on,,48,0,1,,,,,,,,,,0,,78,0
81696,note_on,,0,0,1,,,,,,,,,,0,,76,100
81728,note_on,,0,0,2,,,,,,,,,,1,,38,0
81728,note_on,,320,0,2,,,,,,,,,,1,,50,0
81744,note_on,,0,0,1,,,,,,,,,,0,,78,100
81744,note_on,,48,0,1,,,,,,,,,,0,,76,0
81788,note_on,,44,0,1,,,,,,,,,,0,,78,0
81792,note_on,,64,0,2,,,,,,,,,,1,,43,100
81792,note_on,,4,0,1,,,,,,,,,,0,,79,100
81792,note_on,,0,0,2,,,,,,,,,,1,,55,100
81888,note_on,,96,0,1,,,,,,,,,,0,,79,0
81888,note_on,,0,0,1,,,,,,,,,,0,,76,100
81984,note_on,,0,0,1,,,,,,,,,,0,,74,100
81984,note_on,,96,0,1,,,,,,,,,,0,,76,0
82080,note_on,,0,0,1,,,,,,,,,,0,,72,100
82080,note_on,,96,0,1,,,,,,,,,,0,,74,0
82112,note_on,,0,0,2,,,,,,,,,,1,,43,0
82112,note_on,,320,0,2,,,,,,,,,,1,,55,0
82176,note_on,,0,0,1,,,,,,,,,,0,,71,100
82176,note_on,,96,0,1,,,,,,,,,,0,,72,0
82272,note_on,,96,0,1,,,,,,,,,,0,,71,0
82272,note_on,,0,0,1,,,,,,,,,,0,,72,100
82368,note_on,,0,0,1,,,,,,,,,,0,,69,100
82368,note_on,,96,0,1,,,,,,,,,,0,,72,0
82464,note_on,,0,0,1,,,,,,,,,,0,,71,100
82464,note_on,,96,0,1,,,,,,,,,,0,,69,0
82560,note_on,,96,0,1,,,,,,,,,,0,,71,0
82560,note_on,,0,0,1,,,,,,,,,,0,,67,100
82656,note_on,,544,0,2,,,,,,,,,,1,,60,100
82752,note_on,,96,0,2,,,,,,,,,,1,,60,0
82752,note_on,,0,0,2,,,,,,,,,,1,,59,100
82848,note_on,,96,0,2,,,,,,,,,,1,,59,0
82848,note_on,,0,0,2,,,,,,,,,,1,,57,100
82880,note_on,,320,0,1,,,,,,,,,,0,,67,0
82940,note_on,,92,0,2,,,,,,,,,,1,,57,0
82944,note_on,,4,0,2,,,,,,,,,,1,,59,100
82944,note_on,,0,0,1,,,,,,,,,,0,,74,100
82944,note_on,,64,0,1,,,,,,,,,,0,,67,100
82944,note_on,,0,0,1,,,,,,,,,,0,,71,100
83036,note_on,,92,0,2,,,,,,,,,,1,,59,0
83040,note_on,,4,0,2,,,,,,,,,,1,,62,100
83132,note_on,,92,0,2,,,,,,,,,,1,,62,0
83136,note_on,,4,0,2,,,,,,,,,,1,,60,100
83228,note_on,,92,0,2,,,,,,,,,,1,,60,0
83232,note_on,,4,0,2,,,,,,,,,,1,,62,100
83264,note_on,,320,0,1,,,,,,,,,,0,,74,0
83264,note_on,,0,0,1,,,,,,,,,,0,,71,0
83264,note_on,,0,0,1,,,,,,,,,,0,,67,0
83324,note_on,,92,0,2,,,,,,,,,,1,,62,0
83328,note_on,,4,0,2,,,,,,,,,,1,,59,100
83420,note_on,,92,0,2,,,,,,,,,,1,,59,0
83424,note_on,,4,0,2,,,,,,,,,,1,,62,100
83516,note_on,,92,0,2,,,,,,,,,,1,,62,0
83520,note_on,,4,0,2,,,,,,,,,,1,,57,100
83612,note_on,,92,0,2,,,,,,,,,,1,,57,0
83616,note_on,,4,0,2,,,,,,,,,,1,,62,100
83708,note_on,,92,0,2,,,,,,,,,,1,,62,0
83712,note_on,,448,0,1,,,,,,,,,,0,,67,100
83712,note_on,,0,0,1,,,,,,,,,,0,,71,100
83712,note_on,,0,0,1,,,,,,,,,,0,,74,100
83712,note_on,,4,0,2,,,,,,,,,,1,,55,100
83804,note_on,,92,0,2,,,,,,,,,,1,,55,0
83808,note_on,,4,0,2,,,,,,,,,,1,,59,100
83900,note_on,,92,0,2,,,,,,,,,,1,,59,0
83904,note_on,,4,0,2,,,,,,,,,,1,,57,100
83996,note_on,,92,0,2,,,,,,,,,,1,,57,0
84000,note_on,,4,0,2,,,,,,,,,,1,,55,100
84092,note_on,,92,0,2,,,,,,,,,,1,,55,0
84096,note_on,,4,0,2,,,,,,,,,,1,,54,100
84096,note_on,,0,0,1,,,,,,,,,,0,,74,100
84096,note_on,,0,0,1,,,,,,,,,,0,,69,100
84096,note_on,,0,0,1,,,,,,,,,,0,,66,100
84096,note_on,,384,0,1,,,,,,,,,,0,,74,0
84096,note_on,,0,0,1,,,,,,,,,,0,,71,0
84096,note_on,,0,0,1,,,,,,,,,,0,,67,0
84188,note_on,,92,0,2,,,,,,,,,,1,,54,0
84192,note_on,,4,0,2,,,,,,,,,,1,,62,100
84284,note_on,,92,0,2,,,,,,,,,,1,,62,0
84288,note_on,,4,0,2,,,,,,,,,,1,,61,100
84380,note_on,,92,0,2,,,,,,,,,,1,,61,0
84384,note_on,,4,0,2,,,,,,,,,,1,,62,100
84416,note_on,,320,0,1,,,,,,,,,,0,,74,0
84416,note_on,,0,0,1,,,,,,,,,,0,,66,0
84416,note_on,,0,0,1,,,,,,,,,,0,,69,0
84476,note_on,,92,0,2,,,,,,,,,,1,,62,0
84480,note_on,,4,0,2,,,,,,,,,,1,,59,100
84572,note_on,,92,0,2,,,,,,,,,,1,,59,0
84576,note_on,,4,0,2,,,,,,,,,,1,,62,100
84668,note_on,,92,0,2,,,,,,,,,,1,,62,0
84672,note_on,,4,0,2,,,,,,,,,,1,,57,100
84764,note_on,,92,0,2,,,,,,,,,,1,,57,0
84768,note_on,,4,0,2,,,,,,,,,,1,,62,100
84860,note_on,,92,0,2,,,,,,,,,,1,,62,0
84864,note_on,,0,0,1,,,,,,,,,,0,,74,100
84864,note_on,,448,0,1,,,,,,,,,,0,,69,100
84864,note_on,,4,0,2,,,,,,,,,,1,,55,100
84956,note_on,,92,0,2,,,,,,,,,,1,,55,0
84960,note_on,,4,0,2,,,,,,,,,,1,,62,100
85052,note_on,,92,0,2,,,,,,,,,,1,,62,0
85056,note_on,,4,0,2,,,,,,,,,,1,,54,100
85148,note_on,,92,0,2,,,,,,,,,,1,,54,0
85152,note_on,,4,0,2,,,,,,,,,,1,,62,100
85244,note_on,,92,0,2,,,,,,,,,,1,,62,0
85248,note_on,,4,0,2,,,,,,,,,,1,,52,100
85248,note_on,,0,0,1,,,,,,,,,,0,,76,100
85248,note_on,,0,0,1,,,,,,,,,,0,,79,100
85248,note_on,,384,0,1,,,,,,,,,,0,,74,0
85248,note_on,,0,0,1,,,,,,,,,,0,,69,0
85248,note_on,,0,0,1,,,,,,,,,,0,,71,100
85340,note_on,,92,0,2,,,,,,,,,,1,,52,0
85344,note_on,,4,0,2,,,,,,,,,,1,,64,100
85436,note_on,,92,0,2,,,,,,,,,,1,,64,0
85440,note_on,,4,0,2,,,,,,,,,,1,,62,100
85532,note_on,,92,0,2,,,,,,,,,,1,,62,0
85536,note_on,,4,0,2,,,,,,,,,,1,,64,100
85568,note_on,,320,0,1,,,,,,,,,,0,,79,0
85568,note_on,,0,0,1,,,,,,,,,,0,,76,0
85568,note_on,,0,0,1,,,,,,,,,,0,,71,0
85628,note_on,,92,0,2,,,,,,,,,,1,,64,0
85632,note_on,,4,0,2,,,,,,,,,,1,,61,100
85724,note_on,,92,0,2,,,,,,,,,,1,,61,0
85728,note_on,,4,0,2,,,,,,,,,,1,,62,100
85820,note_on,,92,0,2,,,,,,,,,,1,,62,0
85824,note_on,,4,0,2,,,,,,,,,,1,,59,100
85916,note_on,,92,0,2,,,,,,,,,,1,,59,0
85920,note_on,,4,0,2,,,,,,,,,,1,,61,100
86012,note_on,,92,0,2,,,,,,,,,,1,,61,0
86016,note_on,,0,0,1,,,,,,,,,,0,,79,100
86016,note_on,,0,0,1,,,,,,,,,,0,,76,100
86016,note_on,,448,0,1,,,,,,,,,,0,,73,100
86016,note_on,,4,0,2,,,,,,,,,,1,,57,100
86108,note_on,,92,0,2,,,,,,,,,,1,,57,0
86112,note_on,,4,0,2,,,,,,,,,,1,,61,100
86204,note_on,,92,0,2,,,,,,,,,,1,,61,0
86208,note_on,,4,0,2,,,,,,,,,,1,,59,100
86300,note_on,,92,0,2,,,,,,,,,,1,,59,0
86304,note_on,,4,0,2,,,,,,,,,,1,,61,100
86396,note_on,,92,0,2,,,,,,,,,,1,,61,0
86400,note_on,,0,0,1,,,,,,,,,,0,,76,0
86400,note_on,,0,0,1,,,,,,,,,,0,,73,0
86400,note_on,,0,0,1,,,,,,,,,,0,,69,100
86400,note_on,,0,0,1,,,,,,,,,,0,,74,100
86400,note_on,,0,0,1,,,,,,,,,,0,,78,100
86400,note_on,,4,0,2,,,,,,,,,,1,,62,100
86400,note_on,,384,0,1,,,,,,,,,,0,,79,0
86492,note_on,,92,0,2,,,,,,,,,,1,,62,0
86496,note_on,,4,0,2,,,,,,,,,,1,,57,100
86588,note_on,,92,0,2,,,,,,,,,,1,,57,0
86592,note_on,,4,0,2,,,,,,,,,,1,,55,100
86684,note_on,,92,0,2,,,,,,,,,,1,,55,0
86688,note_on,,4,0,2,,,,,,,,,,1,,57,100
86720,note_on,,0,0,1,,,,,,,,,,0,,74,0
86720,note_on,,320,0,1,,,,,,,,,,0,,78,0
86720,note_on,,0,0,1,,,,,,,,,,0,,69,0
86780,note_on,,92,0,2,,,,,,,,,,1,,57,0
86784,note_on,,4,0,2,,,,,,,,,,1,,54,100
86876,note_on,,92,0,2,,,,,,,,,,1,,54,0
86880,note_on,,4,0,2,,,,,,,,,,1,,55,100
86972,note_on,,92,0,2,,,,,,,,,,1,,55,0
86976,note_on,,4,0,2,,,,,,,,,,1,,52,100
87068,note_on,,92,0,2,,,,,,,,,,1,,52,0
87072,note_on,,4,0,2,,,,,,,,,,1,,54,100
87164,note_on,,92,0,2,,,,,,,,,,1,,54,0
87168,note_on,,0,0,1,,,,,,,,,,0,,78,100
87168,note_on,,0,0,1,,,,,,,,,,0,,74,100
87168,note_on,,448,0,1,,,,,,,,,,0,,69,100
87168,note_on,,4,0,2,,,,,,,,,,1,,50,100
87260,note_on,,92,0,2,,,,,,,,,,1,,50,0
87264,note_on,,4,0,2,,,,,,,,,,1,,52,100
87356,note_on,,92,0,2,,,,,,,,,,1,,52,0
87360,note_on,,4,0,2,,,,,,,,,,1,,48,100
87452,note_on,,92,0,2,,,,,,,,,,1,,48,0
87456,note_on,,4,0,2,,,,,,,,,,1,,50,100
87548,note_on,,92,0,2,,,,,,,,,,1,,50,0
87552,note_on,,384,0,1,,,,,,,,,,0,,78,0
87552,note_on,,0,0,1,,,,,,,,,,0,,74,0
87552,note_on,,0,0,1,,,,,,,,,,0,,71,100
87552,note_on,,4,0,2,,,,,,,,,,1,,47,100
87552,note_on,,0,0,1,,,,,,,,,,0,,74,100
87552,note_on,,0,0,1,,,,,,,,,,0,,79,100
87552,note_on,,0,0,1,,,,,,,,,,0,,69,0
87644,note_on,,92,0,2,,,,,,,,,,1,,47,0
87648,note_on,,4,0,2,,,,,,,,,,1,,48,100
87740,note_on,,92,0,2,,,,,,,,,,1,,48,0
87744,note_on,,4,0,2,,,,,,,,,,1,,45,100
87836,note_on,,92,0,2,,,,,,,,,,1,,45,0
87840,note_on,,4,0,2,,,,,,,,,,1,,47,100
87872,note_on,,320,0,1,,,,,,,,,,0,,79,0
87872,note_on,,0,0,1,,,,,,,,,,0,,74,0
87872,note_on,,0,0,1,,,,,,,,,,0,,71,0
87932,note_on,,92,0,2,,,,,,,,,,1,,47,0
87936,note_on,,4,0,2,,,,,,,,,,1,,43,100
88028,note_on,,92,0,2,,,,,,,,,,1,,43,0
88032,note_on,,4,0,2,,,,,,,,,,1,,45,100
88124,note_on,,92,0,2,,,,,,,,,,1,,45,0
88128,note_on,,4,0,2,,,,,,,,,,1,,42,100
88220,note_on,,92,0,2,,,,,,,,,,1,,42,0
88224,note_on,,4,0,2,,,,,,,,,,1,,43,100
88316,note_on,,92,0,2,,,,,,,,,,1,,43,0
88320,note_on,,4,0,2,,,,,,,,,,1,,40,100
88320,note_on,,0,0,1,,,,,,,,,,0,,71,100
88320,note_on,,448,0,1,,,,,,,,,,0,,67,100
88320,note_on,,0,0,1,,,,,,,,,,0,,74,100
88412,note_on,,92,0,2,,,,,,,,,,1,,40,0
88416,note_on,,4,0,2,,,,,,,,,,1,,42,100
88508,note_on,,92,0,2,,,,,,,,,,1,,42,0
88512,note_on,,4,0,2,,,,,,,,,,1,,38,100
88604,note_on,,92,0,2,,,,,,,,,,1,,38,0
88608,note_on,,4,0,2,,,,,,,,,,1,,40,100
88700,note_on,,92,0,2,,,,,,,,,,1,,40,0
88704,note_on,,0,0,1,,,,,,,,,,0,,67,100
88704,note_on,,0,0,1,,,,,,,,,,0,,67,0
88704,note_on,,0,0,1,,,,,,,,,,0,,71,0
88704,note_on,,384,0,1,,,,,,,,,,0,,74,0
88704,note_on,,0,0,1,,,,,,,,,,0,,76,100
88704,note_on,,4,0,2,,,,,,,,,,1,,36,100
88704,note_on,,0,0,1,,,,,,,,,,0,,72,100
88796,note_on,,92,0,2,,,,,,,,,,1,,36,0
88800,note_on,,4,0,2,,,,,,,,,,1,,60,100
88892,note_on,,92,0,2,,,,,,,,,,1,,60,0
88896,note_on,,4,0,2,,,,,,,,,,1,,59,100
88988,note_on,,92,0,2,,,,,,,,,,1,,59,0
88992,note_on,,4,0,2,,,,,,,,,,1,,60,100
89024,note_on,,320,0,1,,,,,,,,,,0,,76,0
89024,note_on,,0,0,1,,,,,,,,,,0,,72,0
89024,note_on,,0,0,1,,,,,,,,,,0,,67,0
89084,note_on,,92,0,2,,,,,,,,,,1,,60,0
89088,note_on,,4,0,2,,,,,,,,,,1,,57,100
89180,note_on,,92,0,2,,,,,,,,,,1,,57,0
89184,note_on,,4,0,2,,,,,,,,,,1,,59,100
89276,note_on,,92,0,2,,,,,,,,,,1,,59,0
89280,note_on,,4,0,2,,,,,,,,,,1,,55,100
89372,note_on,,92,0,2,,,,,,,,,,1,,55,0
89376,note_on,,4,0,2,,,,,,,,,,1,,57,100
89468,note_on,,92,0,2,,,,,,,,,,1,,57,0
89472,note_on,,448,0,1,,,,,,,,,,0,,62,100
89472,note_on,,4,0,2,,,,,,,,,,1,,54,100
89472,note_on,,0,0,1,,,,,,,,,,0,,69,100
89472,note_on,,0,0,1,,,,,,,,,,0,,72,100
89564,note_on,,92,0,2,,,,,,,,,,1,,54,0
89568,note_on,,4,0,2,,,,,,,,,,1,,55,100
89660,note_on,,92,0,2,,,,,,,,,,1,,55,0
89664,note_on,,4,0,2,,,,,,,,,,1,,52,100
89756,note_on,,92,0,2,,,,,,,,,,1,,52,0
89760,note_on,,4,0,2,,,,,,,,,,1,,54,100
89852,note_on,,92,0,2,,,,,,,,,,1,,54,0
89856,note_on,,0,0,1,,,,,,,,,,0,,67,100
89856,note_on,,384,0,1,,,,,,,,,,0,,72,0
89856,note_on,,0,0,1,,,,,,,,,,0,,69,0
89856,note_on,,4,0,2,,,,,,,,,,1,,55,100
89856,note_on,,0,0,1,,,,,,,,,,0,,62,100
89856,note_on,,0,0,1,,,,,,,,,,0,,62,0
89856,note_on,,0,0,1,,,,,,,,,,0,,71,100
90044,note_on,,188,0,2,,,,,,,,,,1,,55,0
90048,note_on,,0,0,1,,,,,,,,,,0,,67,0
90048,note_on,,4,0,2,,,,,,,,,,1,,48,100
90048,note_on,,0,0,1,,,,,,,,,,0,,64,100
90048,note_on,,0,0,1,,,,,,,,,,0,,62,0
90048,note_on,,192,0,1,,,,,,,,,,0,,71,0
90048,note_on,,0,0,1,,,,,,,,,,0,,72,100
90236,note_on,,188,0,2,,,,,,,,,,1,,48,0
90240,note_on,,0,0,1,,,,,,,,,,0,,62,100
90240,note_on,,0,0,1,,,,,,,,,,0,,67,100
90240,note_on,,192,0,1,,,,,,,,,,0,,72,0
90240,note_on,,4,0,2,,,,,,,,,,1,,50,100
90240,note_on,,0,0,1,,,,,,,,,,0,,71,100
90240,note_on,,0,0,1,,,,,,,,,,0,,64,0
90428,note_on,,188,0,2,,,,,,,,,,1,,50,0
90432,note_on,,4,0,2,,,,,,,,,,1,,48,100
90620,note_on,,188,0,2,,,,,,,,,,1,,48,0
90624,note_on,,4,0,2,,,,,,,,,,1,,50,100
90624,note_on,,384,0,1,,,,,,,,,,0,,71,0
90624,note_on,,0,0,1,,,,,,,,,,0,,67,0
90624,note_on,,0,0,1,,,,,,,,,,0,,62,0
90624,note_on,,0,0,1,,,,,,,,,,0,,69,100
90720,note_on,,96,0,1,,,,,,,,,,0,,69,0
90720,note_on,,0,0,1,,,,,,,,,,0,,66,100
90812,note_on,,188,0,2,,,,,,,,,,1,,50,0
90816,note_on,,0,0,1,,,,,,,,,,0,,60,100
90816,note_on,,96,0,1,,,,,,,,,,0,,66,0
90816,note_on,,4,0,2,,,,,,,,,,1,,38,100
90912,note_on,,0,0,1,,,,,,,,,,0,,67,100
90912,note_on,,96,0,1,,,,,,,,,,0,,60,0
91004,note_on,,92,0,1,,,,,,,,,,0,,67,0
91004,note_on,,188,0,2,,,,,,,,,,1,,38,0
91008,note_on,,0,0,1,,,,,,,,,,0,,67,100
91008,note_on,,0,0,1,,,,,,,,,,0,,62,100
91008,note_on,,4,0,1,,,,,,,,,,0,,59,100
91008,note_on,,4,0,2,,,,,,,,,,1,,55,100
91100,note_on,,92,0,2,,,,,,,,,,1,,55,0
91104,note_on,,4,0,2,,,,,,,,,,1,,50,100
91196,note_on,,92,0,2,,,,,,,,,,1,,50,0
91200,note_on,,4,0,2,,,,,,,,,,1,,48,100
91292,note_on,,92,0,2,,,,,,,,,,1,,48,0
91296,note_on,,4,0,2,,,,,,,,,,1,,50,100
91388,note_on,,92,0,2,,,,,,,,,,1,,50,0
91392,note_on,,4,0,2,,,,,,,,,,1,,47,100
91484,note_on,,92,0,2,,,,,,,,,,1,,47,0
91488,note_on,,4,0,2,,,,,,,,,,1,,48,100
91580,note_on,,92,0,2,,,,,,,,,,1,,48,0
91584,note_on,,4,0,2,,,,,,,,,,1,,45,100
91676,note_on,,92,0,2,,,,,,,,,,1,,45,0
91680,note_on,,4,0,2,,,,,,,,,,1,,47,100
91772,note_on,,92,0,2,,,,,,,,,,1,,47,0
91776,note_on,,4,0,2,,,,,,,,,,1,,43,100
91868,note_on,,92,0,2,,,,,,,,,,1,,43,0
91872,note_on,,4,0,2,,,,,,,,,,1,,60,100
91964,note_on,,92,0,2,,,,,,,,,,1,,60,0
91968,note_on,,4,0,2,,,,,,,,,,1,,59,100
92060,note_on,,92,0,2,,,,,,,,,,1,,59,0
92064,note_on,,1056,0,1,,,,,,,,,,0,,67,0
92064,note_on,,0,0,1,,,,,,,,,,0,,62,0
92064,note_on,,0,0,1,,,,,,,,,,0,,59,0
92064,note_on,,4,0,2,,,,,,,,,,1,,57,100
92156,note_on,,92,0,2,,,,,,,,,,1,,57,0
92160,note_on,,0,0,1,,,,,,,,,,0,,74,100
92160,note_on,,96,0,1,,,,,,,,,,0,,67,100
92160,note_on,,0,0,1,,,,,,,,,,0,,71,100
92160,note_on,,4,0,2,,,,,,,,,,1,,59,100
92252,note_on,,92,0,2,,,,,,,,,,1,,59,0
92256,note_on,,4,0,2,,,,,,,,,,1,,62,100
92348,note_on,,92,0,2,,,,,,,,,,1,,62,0
92352,note_on,,4,0,2,,,,,,,,,,1,,60,100
92444,note_on,,92,0,2,,,,,,,,,,1,,60,0
92448,note_on,,4,0,2,,,,,,,,,,1,,62,100
92480,note_on,,0,0,1,,,,,,,,,,0,,67,0
92480,note_on,,0,0,1,,,,,,,,,,0,,71,0
92480,note_on,,320,0,1,,,,,,,,,,0,,74,0
92540,note_on,,92,0,2,,,,,,,,,,1,,62,0
92544,note_on,,4,0,2,,,,,,,,,,1,,59,100
92636,note_on,,92,0,2,,,,,,,,,,1,,59,0
92640,note_on,,4,0,2,,,,,,,,,,1,,62,100
92732,note_on,,92,0,2,,,,,,,,,,1,,62,0
92736,note_on,,4,0,2,,,,,,,,,,1,,57,100
92828,note_on,,92,0,2,,,,,,,,,,1,,57,0
92832,note_on,,4,0,2,,,,,,,,,,1,,62,100
92924,note_on,,92,0,2,,,,,,,,,,1,,62,0
92928,note_on,,448,0,1,,,,,,,,,,0,,67,100
92928,note_on,,0,0,1,,,,,,,,,,0,,74,100
92928,note_on,,0,0,1,,,,,,,,,,0,,71,100
92928,note_on,,4,0,2,,,,,,,,,,1,,55,100
93020,note_on,,92,0,2,,,,,,,,,,1,,55,0
93024,note_on,,4,0,2,,,,,,,,,,1,,59,100
93116,note_on,,92,0,2,,,,,,,,,,1,,59,0
93120,note_on,,4,0,2,,,,,,,,,,1,,57,100
93212,note_on,,92,0,2,,,,,,,,,,1,,57,0
93216,note_on,,4,0,2,,,,,,,,,,1,,55,100
93308,note_on,,92,0,2,,,,,,,,,,1,,55,0
93312,note_on,,4,0,2,,,,,,,,,,1,,54,100
93312,note_on,,0,0,1,,,,,,,,,,0,,67,0
93312,note_on,,0,0,1,,,,,,,,,,0,,71,0
93312,note_on,,384,0,1,,,,,,,,,,0,,74,0
93312,note_on,,0,0,1,,,,,,,,,,0,,74,100
93312,note_on,,0,0,1,,,,,,,,,,0,,69,100
93312,note_on,,0,0,1,,,,,,,,,,0,,66,100
93404,note_on,,92,0,2,,,,,,,,,,1,,54,0
93408,note_on,,4,0,2,,,,,,,,,,1,,62,100
93500,note_on,,92,0,2,,,,,,,,,,1,,62,0
93504,note_on,,4,0,2,,,,,,,,,,1,,61,100
93596,note_on,,92,0,2,,,,,,,,,,1,,61,0
93600,note_on,,4,0,2,,,,,,,,,,1,,62,100
93632,note_on,,0,0,1,,,,,,,,,,0,,69,0
93632,note_on,,0,0,1,,,,,,,,,,0,,66,0
93632,note_on,,320,0,1,,,,,,,,,,0,,74,0
93692,note_on,,92,0,2,,,,,,,,,,1,,62,0
93696,note_on,,4,0,2,,,,,,,,,,1,,59,100
93788,note_on,,92,0,2,,,,,,,,,,1,,59,0
93792,note_on,,4,0,2,,,,,,,,,,1,,62,100
93884,note_on,,92,0,2,,,,,,,,,,1,,62,0
93888,note_on,,4,0,2,,,,,,,,,,1,,57,100
93980,note_on,,92,0,2,,,,,,,,,,1,,57,0
93984,note_on,,4,0,2,,,,,,,,,,1,,62,100
94076,note_on,,92,0,2,,,,,,,,,,1,,62,0
94080,note_on,,448,0,1,,,,,,,,,,0,,69,100
94080,note_on,,4,0,2,,,,,,,,,,1,,55,100
94080,note_on,,0,0,1,,,,,,,,,,0,,74,100
94172,note_on,,92,0,2,,,,,,,,,,1,,55,0
94176,note_on,,4,0,2,,,,,,,,,,1,,62,100
94268,note_on,,92,0,2,,,,,,,,,,1,,62,0
94272,note_on,,4,0,2,,,,,,,,,,1,,54,100
94364,note_on,,92,0,2,,,,,,,,,,1,,54,0
94368,note_on,,4,0,2,,,,,,,,,,1,,62,100
94460,note_on,,92,0,2,,,,,,,,,,1,,62,0
94464,note_on,,384,0,1,,,,,,,,,,0,,74,0
94464,note_on,,4,0,2,,,,,,,,,,1,,52,100
94464,note_on,,0,0,1,,,,,,,,,,0,,71,100
94464,note_on,,0,0,1,,,,,,,,,,0,,76,100
94464,note_on,,0,0,1,,,,,,,,,,0,,79,100
94464,note_on,,0,0,1,,,,,,,,,,0,,69,0
94556,note_on,,92,0,2,,,,,,,,,,1,,52,0
94560,note_on,,4,0,2,,,,,,,,,,1,,64,100
94652,note_on,,92,0,2,,,,,,,,,,1,,64,0
94656,note_on,,4,0,2,,,,,,,,,,1,,62,100
94748,note_on,,92,0,2,,,,,,,,,,1,,62,0
94752,note_on,,4,0,2,,,,,,,,,,1,,64,100
94784,note_on,,0,0,1,,,,,,,,,,0,,71,0
94784,note_on,,0,0,1,,,,,,,,,,0,,76,0
94784,note_on,,320,0,1,,,,,,,,,,0,,79,0
94844,note_on,,92,0,2,,,,,,,,,,1,,64,0
94848,note_on,,4,0,2,,,,,,,,,,1,,61,100
94940,note_on,,92,0,2,,,,,,,,,,1,,61,0
94944,note_on,,4,0,2,,,,,,,,,,1,,62,100
95036,note_on,,92,0,2,,,,,,,,,,1,,62,0
95040,note_on,,4,0,2,,,,,,,,,,1,,59,100
95132,note_on,,92,0,2,,,,,,,,,,1,,59,0
95136,note_on,,4,0,2,,,,,,,,,,1,,61,100
95228,note_on,,92,0,2,,,,,,,,,,1,,61,0
95232,note_on,,0,0,1,,,,,,,,,,0,,79,100
95232,note_on,,0,0,1,,,,,,,,,,0,,76,100
95232,note_on,,448,0,1,,,,,,,,,,0,,73,100
95232,note_on,,4,0,2,,,,,,,,,,1,,57,100
95324,note_on,,92,0,2,,,,,,,,,,1,,57,0
95328,note_on,,4,0,2,,,,,,,,,,1,,61,100
95420,note_on,,92,0,2,,,,,,,,,,1,,61,0
95424,note_on,,4,0,2,,,,,,,,,,1,,59,100
95516,note_on,,92,0,2,,,,,,,,,,1,,59,0
95520,note_on,,4,0,2,,,,,,,,,,1,,61,100
95612,note_on,,92,0,2,,,,,,,,,,1,,61,0
95616,note_on,,4,0,2,,,,,,,,,,1,,62,100
95616,note_on,,384,0,1,,,,,,,,,,0,,79,0
95616,note_on,,0,0,1,,,,,,,,,,0,,76,0
95616,note_on,,0,0,1,,,,,,,,,,0,,73,0
95616,note_on,,0,0,1,,,,,,,,,,0,,69,100
95616,note_on,,0,0,1,,,,,,,,,,0,,74,100
95616,note_on,,0,0,1,,,,,,,,,,0,,78,100
95708,note_on,,92,0,2,,,,,,,,,,1,,62,0
95712,note_on,,4,0,2,,,,,,,,,,1,,57,100
95804,note_on,,92,0,2,,,,,,,,,,1,,57,0
95808,note_on,,4,0,2,,,,,,,,,,1,,55,100
95900,note_on,,92,0,2,,,,,,,,,,1,,55,0
95904,note_on,,4,0,2,,,,,,,,,,1,,57,100
95936,note_on,,0,0,1,,,,,,,,,,0,,74,0
95936,note_on,,320,0,1,,,,,,,,,,0,,78,0
95936,note_on,,0,0,1,,,,,,,,,,0,,69,0
95996,note_on,,92,0,2,,,,,,,,,,1,,57,0
96000,note_on,,4,0,2,,,,,,,,,,1,,54,100
96092,note_on,,92,0,2,,,,,,,,,,1,,54,0
96096,note_on,,4,0,2,,,,,,,,,,1,,55,100
96188,note_on,,92,0,2,,,,,,,,,,1,,55,0
96192,note_on,,4,0,2,,,,,,,,,,1,,52,100
96284,note_on,,92,0,2,,,,,,,,,,1,,52,0
96288,note_on,,4,0,2,,,,,,,,,,1,,54,100
96380,note_on,,92,0,2,,,,,,,,,,1,,54,0
96384,note_on,,0,0,1,,,,,,,,,,0,,74,100
96384,note_on,,448,0,1,,,,,,,,,,0,,69,100
96384,note_on,,4,0,2,,,,,,,,,,1,,50,100
96384,note_on,,0,0,1,,,,,,,,,,0,,78,100
96476,note_on,,92,0,2,,,,,,,,,,1,,50,0
96480,note_on,,4,0,2,,,,,,,,,,1,,52,100
96572,note_on,,92,0,2,,,,,,,,,,1,,52,0
96576,note_on,,4,0,2,,,,,,,,,,1,,48,100
96668,note_on,,92,0,2,,,,,,,,,,1,,48,0
96672,note_on,,4,0,2,,,,,,,,,,1,,50,100
96764,note_on,,92,0,2,,,,,,,,,,1,,50,0
96768,note_on,,0,0,1,,,,,,,,,,0,,74,100
96768,note_on,,4,0,2,,,,,,,,,,1,,47,100
96768,note_on,,0,0,1,,,,,,,,,,0,,71,100
96768,note_on,,0,0,1,,,,,,,,,,0,,69,0
96768,note_on,,0,0,1,,,,,,,,,,0,,74,0
96768,note_on,,384,0,1,,,,,,,,,,0,,78,0
96768,note_on,,0,0,1,,,,,,,,,,0,,79,100
96860,note_on,,92,0,2,,,,,,,,,,1,,47,0
96864,note_on,,4,0,2,,,,,,,,,,1,,48,100
96956,note_on,,92,0,2,,,,,,,,,,1,,48,0
96960,note_on,,4,0,2,,,,,,,,,,1,,45,100
97052,note_on,,92,0,2,,,,,,,,,,1,,45,0
97056,note_on,,4,0,2,,,,,,,,,,1,,47,100
97088,note_on,,320,0,1,,,,,,,,,,0,,79,0
97088,note_on,,0,0,1,,,,,,,,,,0,,74,0
97088,note_on,,0,0,1,,,,,,,,,,0,,71,0
97148,note_on,,92,0,2,,,,,,,,,,1,,47,0
97152,note_on,,4,0,2,,,,,,,,,,1,,43,100
97244,note_on,,92,0,2,,,,,,,,,,1,,43,0
97248,note_on,,4,0,2,,,,,,,,,,1,,45,100
97340,note_on,,92,0,2,,,,,,,,,,1,,45,0
97344,note_on,,4,0,2,,,,,,,,,,1,,42,100
97436,note_on,,92,0,2,,,,,,,,,,1,,42,0
97440,note_on,,4,0,2,,,,,,,,,,1,,43,100
97532,note_on,,92,0,2,,,,,,,,,,1,,43,0
97536,note_on,,448,0,1,,,,,,,,,,0,,67,100
97536,note_on,,4,0,2,,,,,,,,,,1,,40,100
97536,note_on,,0,0,1,,,,,,,,,,0,,71,100
97536,note_on,,0,0,1,,,,,,,,,,0,,74,100
97628,note_on,,92,0,2,,,,,,,,,,1,,40,0
97632,note_on,,4,0,2,,,,,,,,,,1,,42,100
97724,note_on,,92,0,2,,,,,,,,,,1,,42,0
97728,note_on,,4,0,2,,,,,,,,,,1,,38,100
97820,note_on,,92,0,2,,,,,,,,,,1,,38,0
97824,note_on,,4,0,2,,,,,,,,,,1,,40,100
97916,note_on,,92,0,2,,,,,,,,,,1,,40,0
97920,note_on,,0,0,1,,,,,,,,,,0,,67,0
97920,note_on,,0,0,1,,,,,,,,,,0,,71,0
97920,note_on,,384,0,1,,,,,,,,,,0,,74,0
97920,note_on,,0,0,1,,,,,,,,,,0,,67,100
97920,note_on,,4,0,2,,,,,,,,,,1,,36,100
97920,note_on,,0,0,1,,,,,,,,,,0,,72,100
97920,note_on,,0,0,1,,,,,,,,,,0,,76,100
98012,note_on,,92,0,2,,,,,,,,,,1,,36,0
98016,note_on,,4,0,2,,,,,,,,,,1,,60,100
98108,note_on,,92,0,2,,,,,,,,,,1,,60,0
98112,note_on,,4,0,2,,,,,,,,,,1,,59,100
98204,note_on,,92,0,2,,,,,,,,,,1,,59,0
98208,note_on,,4,0,2,,,,,,,,,,1,,60,100
98240,note_on,,320,0,1,,,,,,,,,,0,,76,0
98240,note_on,,0,0,1,,,,,,,,,,0,,72,0
98240,note_on,,0,0,1,,,,,,,,,,0,,67,0
98300,note_on,,92,0,2,,,,,,,,,,1,,60,0
98304,note_on,,4,0,2,,,,,,,,,,1,,57,100
98396,note_on,,92,0,2,,,,,,,,,,1,,57,0
98400,note_on,,4,0,2,,,,,,,,,,1,,59,100
98492,note_on,,92,0,2,,,,,,,,,,1,,59,0
98496,note_on,,4,0,2,,,,,,,,,,1,,55,100
98588,note_on,,92,0,2,,,,,,,,,,1,,55,0
98592,note_on,,4,0,2,,,,,,,,,,1,,57,100
98684,note_on,,92,0,2,,,,,,,,,,1,,57,0
98688,note_on,,4,0,2,,,,,,,,,,1,,54,100
98688,note_on,,448,0,1,,,,,,,,,,0,,62,100
98688,note_on,,0,0,1,,,,,,,,,,0,,69,100
98688,note_on,,0,0,1,,,,,,,,,,0,,72,100
98780,note_on,,92,0,2,,,,,,,,,,1,,54,0
98784,note_on,,4,0,2,,,,,,,,,,1,,55,100
98876,note_on,,92,0,2,,,,,,,,,,1,,55,0
98880,note_on,,4,0,2,,,,,,,,,,1,,52,100
98972,note_on,,92,0,2,,,,,,,,,,1,,52,0
98976,note_on,,4,0,2,,,,,,,,,,1,,54,100
99068,note_on,,92,0,2,,,,,,,,,,1,,54,0
99072,note_on,,0,0,1,,,,,,,,,,0,,62,0
99072,note_on,,4,0,2,,,,,,,,,,1,,55,100
99072,note_on,,0,0,1,,,,,,,,,,0,,71,100
99072,note_on,,0,0,1,,,,,,,,,,0,,67,100
99072,note_on,,0,0,1,,,,,,,,,,0,,62,100
99072,note_on,,384,0,1,,,,,,,,,,0,,72,0
99072,note_on,,0,0,1,,,,,,,,,,0,,69,0
99260,note_on,,188,0,2,,,,,,,,,,1,,55,0
99264,note_on,,4,0,2,,,,,,,,,,1,,48,100
99264,note_on,,0,0,1,,,,,,,,,,0,,67,0
99264,note_on,,192,0,1,,,,,,,,,,0,,71,0
99264,note_on,,0,0,1,,,,,,,,,,0,,62,0
99264,note_on,,0,0,1,,,,,,,,,,0,,64,100
99264,note_on,,0,0,1,,,,,,,,,,0,,72,100
99452,note_on,,188,0,2,,,,,,,,,,1,,48,0
99456,note_on,,0,0,1,,,,,,,,,,0,,62,100
99456,note_on,,0,0,1,,,,,,,,,,0,,67,100
99456,note_on,,0,0,1,,,,,,,,,,0,,71,100
99456,note_on,,192,0,1,,,,,,,,,,0,,72,0
99456,note_on,,4,0,2,,,,,,,,,,1,,50,100
99456,note_on,,0,0,1,,,,,,,,,,0,,64,0
99644,note_on,,188,0,2,,,,,,,,,,1,,50,0
99648,note_on,,4,0,2,,,,,,,,,,1,,48,100
99836,note_on,,188,0,2,,,,,,,,,,1,,48,0
99840,note_on,,384,0,1,,,,,,,,,,0,,71,0
99840,note_on,,0,0,1,,,,,,,,,,0,,67,0
99840,note_on,,0,0,1,,,,,,,,,,0,,62,0
99840,note_on,,0,0,1,,,,,,,,,,0,,69,100
99840,note_on,,4,0,2,,,,,,,,,,1,,50,100
99936,note_on,,0,0,1,,,,,,,,,,0,,66,100
99936,note_on,,96,0,1,,,,,,,,,,0,,69,0
100028,note_on,,188,0,2,,,,,,,,,,1,,50,0
100032,note_on,,96,0,1,,,,,,,,,,0,,66,0
100032,note_on,,0,0,1,,,,,,,,,,0,,60,100
100032,note_on,,4,0,2,,,,,,,,,,1,,38,100
100128,note_on,,96,0,1,,,,,,,,,,0,,60,0
100128,note_on,,0,0,1,,,,,,,,,,0,,67,100
100220,note_on,,188,0,2,,,,,,,,,,1,,38,0
100220,note_on,,92,0,1,,,,,,,,,,0,,67,0
100224,note_on,,0,0,1,,,,,,,,,,0,,67,100
100224,note_on,,0,0,1,,,,,,,,,,0,,62,100
100224,note_on,,4,0,1,,,,,,,,,,0,,59,100
100224,note_on,,4,0,2,,,,,,,,,,1,,55,100
100316,note_on,,92,0,2,,,,,,,,,,1,,55,0
100320,note_on,,4,0,2,,,,,,,,,,1,,50,100
100412,note_on,,92,0,2,,,,,,,,,,1,,50,0
100416,note_on,,4,0,2,,,,,,,,,,1,,48,100
100508,note_on,,92,0,2,,,,,,,,,,1,,48,0
100512,note_on,,4,0,2,,,,,,,,,,1,,50,100
100604,note_on,,92,0,2,,,,,,,,,,1,,50,0
100608,note_on,,4,0,2,,,,,,,,,,1,,47,100
100700,note_on,,92,0,2,,,,,,,,,,1,,47,0
100704,note_on,,4,0,2,,,,,,,,,,1,,48,100
100796,note_on,,92,0,2,,,,,,,,,,1,,48,0
100800,note_on,,4,0,2,,,,,,,,,,1,,45,100
100892,note_on,,92,0,2,,,,,,,,,,1,,45,0
100896,note_on,,4,0,2,,,,,,,,,,1,,47,100
100928,note_on,,0,0,1,,,,,,,,,,0,,62,0
100928,note_on,,0,0,1,,,,,,,,,,0,,59,0
100928,note_on,,704,0,1,,,,,,,,,,0,,67,0
100988,note_on,,92,0,2,,,,,,,,,,1,,47,0
100992,note_on,,64,0,1,,,,,,,,,,0,,67,100
100992,set_tempo,,45696,1,0,,,,,,1200000,,,,,,,
100992,note_on,,4,0,2,,,,,,,,,,1,,43,100
100992,note_on,,0,0,2,,,,,,,,,,1,,47,100
100992,note_on,,0,0,2,,,,,,,,,,1,,50,100
101312,note_on,,320,0,2,,,,,,,,,,1,,50,0
101312,note_on,,0,0,2,,,,,,,,,,1,,43,0
101312,note_on,,320,0,1,,,,,,,,,,0,,67,0
101312,note_on,,0,0,2,,,,,,,,,,1,,47,0
101376,time_signature,,384,1,0,1,4,24,8,,,,,,,,,
101760,note_on,,448,0,2,,,,,,,,,,1,,55,100
101760,note_on,,448,0,1,,,,,,,,,,0,,70,100
101760,set_tempo,,0,1,0,,,,,,857143,,,,,,,
101760,time_signature,,384,1,0,3,4,24,8,,,,,,,,,
101952,note_on,,192,0,2,,,,,,,,,,1,,62,100
102140,note_on,,188,0,2,,,,,,,,,,1,,62,0
102144,note_on,,4,0,2,,,,,,,,,,1,,63,100
102336,note_on,,0,0,1,,,,,,,,,,0,,72,100
102336,note_on,,576,0,1,,,,,,,,,,0,,70,0
102432,note_on,,288,0,2,,,,,,,,,,1,,55,0
102432,note_on,,0,0,1,,,,,,,,,,0,,69,100
102432,note_on,,96,0,1,,,,,,,,,,0,,72,0
102528,note_on,,0,0,1,,,,,,,,,,0,,70,100
102528,note_on,,96,0,2,,,,,,,,,,1,,55,100
102528,note_on,,96,0,1,,,,,,,,,,0,,69,0
102720,note_on,,192,0,1,,,,,,,,,,0,,70,0
102720,note_on,,0,0,1,,,,,,,,,,0,,72,100
102848,note_on,,320,0,2,,,,,,,,,,1,,55,0
102912,note_on,,64,0,2,,,,,,,,,,1,,53,100
102912,note_on,,192,0,1,,,,,,,,,,0,,72,0
102912,note_on,,0,0,1,,,,,,,,,,0,,69,100
103104,note_on,,192,0,2,,,,,,,,,,1,,65,100
103292,note_on,,188,0,2,,,,,,,,,,1,,65,0
103296,note_on,,4,0,2,,,,,,,,,,1,,62,100
103424,note_on,,512,0,1,,,,,,,,,,0,,69,0
103488,note_on,,64,0,1,,,,,,,,,,0,,69,100
103584,note_on,,288,0,2,,,,,,,,,,1,,53,0
103680,note_on,,192,0,1,,,,,,,,,,0,,69,0
103680,note_on,,0,0,1,,,,,,,,,,0,,74,100
103680,note_on,,96,0,2,,,,,,,,,,1,,53,100
103872,note_on,,192,0,1,,,,,,,,,,0,,74,0
103872,note_on,,0,0,1,,,,,,,,,,0,,70,100
104000,note_on,,320,0,2,,,,,,,,,,1,,53,0
104064,note_on,,64,0,2,,,,,,,,,,1,,51,100
104064,note_on,,0,0,1,,,,,,,,,,0,,67,100
104064,note_on,,192,0,1,,,,,,,,,,0,,70,0
104252,note_on,,188,0,2,,,,,,,,,,1,,62,0
104256,note_on,,4,0,2,,,,,,,,,,1,,62,100
104352,note_on,,0,0,1,,,,,,,,,,0,,66,100
104352,note_on,,288,0,1,,,,,,,,,,0,,67,0
104444,note_on,,188,0,2,,,,,,,,,,1,,62,0
104448,note_on,,0,0,1,,,,,,,,,,0,,67,100
104448,note_on,,96,0,1,,,,,,,,,,0,,66,0
104448,note_on,,4,0,2,,,,,,,,,,1,,60,100
104636,note_on,,188,0,1,,,,,,,,,,0,,67,0
104640,note_on,,4,0,1,,,,,,,,,,0,,78,100
104736,note_on,,288,0,2,,,,,,,,,,1,,51,0
104832,note_on,,96,0,2,,,,,,,,,,1,,50,100
104832,note_on,,0,0,1,,,,,,,,,,0,,79,100
104832,note_on,,192,0,1,,,,,,,,,,0,,78,0
105024,note_on,,0,0,1,,,,,,,,,,0,,81,100
105024,note_on,,192,0,1,,,,,,,,,,0,,79,0
105120,note_on,,288,0,2,,,,,,,,,,1,,60,0
105152,note_on,,32,0,2,,,,,,,,,,1,,50,0
105212,note_on,,188,0,1,,,,,,,,,,0,,81,0
105216,note_on,,0,0,2,,,,,,,,,,1,,62,100
105216,note_on,,64,0,2,,,,,,,,,,1,,50,100
105216,note_on,,0,0,2,,,,,,,,,,1,,57,100
105216,note_on,,4,0,1,,,,,,,,,,0,,79,100
105260,note_on,,44,0,1,,,,,,,,,,0,,79,0
105264,note_on,,4,0,1,,,,,,,,,,0,,78,100
105308,note_on,,44,0,1,,,,,,,,,,0,,78,0
105312,note_on,,4,0,1,,,,,,,,,,0,,79,100
105356,note_on,,44,0,1,,,,,,,,,,0,,79,0
105360,note_on,,4,0,1,,,,,,,,,,0,,78,100
105404,note_on,,44,0,1,,,,,,,,,,0,,78,0
105408,note_on,,4,0,1,,,,,,,,,,0,,79,100
105452,note_on,,44,0,1,,,,,,,,,,0,,79,0
105456,note_on,,4,0,1,,,,,,,,,,0,,78,100
105500,note_on,,44,0,1,,,,,,,,,,0,,78,0
105504,note_on,,4,0,1,,,,,,,,,,0,,79,100
105536,note_on,,0,0,2,,,,,,,,,,1,,57,0
105536,note_on,,320,0,2,,,,,,,,,,1,,62,0
105548,note_on,,44,0,1,,,,,,,,,,0,,79,0
105552,note_on,,4,0,1,,,,,,,,,,0,,81,100
105596,note_on,,44,0,1,,,,,,,,,,0,,81,0
105600,note_on,,0,0,1,,,,,,,,,,0,,74,100
105600,note_on,,4,0,1,,,,,,,,,,0,,66,100
105600,note_on,,0,0,1,,,,,,,,,,0,,69,100
105788,note_on,,252,0,2,,,,,,,,,,1,,50,0
105792,note_on,,4,0,2,,,,,,,,,,1,,48,100
105980,note_on,,188,0,2,,,,,,,,,,1,,48,0
105984,note_on,,4,0,2,,,,,,,,,,1,,50,100
106172,note_on,,188,0,2,,,,,,,,,,1,,50,0
106176,note_on,,4,0,2,,,,,,,,,,1,,45,100
106272,note_on,,672,0,1,,,,,,,,,,0,,74,0
106272,note_on,,0,0,1,,,,,,,,,,0,,69,0
106272,note_on,,0,0,1,,,,,,,,,,0,,66,0
106364,note_on,,188,0,2,,,,,,,,,,1,,45,0
106368,note_on,,4,0,2,,,,,,,,,,1,,46,100
106560,note_on,,192,0,2,,,,,,,,,,1,,50,100
106752,note_on,,192,0,2,,,,,,,,,,1,,50,0
106752,note_on,,0,0,2,,,,,,,,,,1,,55,100
106944,note_on,,672,0,1,,,,,,,,,,0,,62,100
107136,note_on,,0,0,1,,,,,,,,,,0,,67,100
107136,note_on,,192,0,1,,,,,,,,,,0,,62,0
107324,note_on,,572,0,2,,,,,,,,,,1,,46,0
107328,note_on,,192,0,1,,,,,,,,,,0,,74,100
107328,note_on,,4,0,2,,,,,,,,,,1,,46,100
107424,note_on,,96,0,2,,,,,,,,,,1,,55,0
107516,note_on,,92,0,2,,,,,,,,,,1,,46,0
107516,note_on,,188,0,1,,,,,,,,,,0,,74,0
107520,note_on,,4,0,2,,,,,,,,,,1,,48,100
107520,note_on,,4,0,1,,,,,,,,,,0,,75,100
107708,note_on,,188,0,1,,,,,,,,,,0,,67,0
107712,note_on,,192,0,2,,,,,,,,,,1,,58,100
107712,note_on,,4,0,1,,,,,,,,,,0,,67,100
107840,note_on,,128,0,2,,,,,,,,,,1,,48,0
107840,note_on,,128,0,1,,,,,,,,,,0,,75,0
107900,note_on,,60,0,1,,,,,,,,,,0,,67,0
107904,note_on,,4,0,1,,,,,,,,,,0,,74,100
107904,note_on,,0,0,2,,,,,,,,,,1,,57,100
107904,note_on,,0,0,2,,,,,,,,,,1,,50,100
107904,note_on,,64,0,2,,,,,,,,,,1,,58,0
107904,note_on,,0,0,1,,,,,,,,,,0,,66,100
108192,note_on,,0,0,2,,,,,,,,,,1,,55,100
108192,note_on,,288,0,2,,,,,,,,,,1,,57,0
108288,note_on,,0,0,2,,,,,,,,,,1,,57,100
108288,note_on,,96,0,2,,,,,,,,,,1,,55,0
108416,note_on,,0,0,1,,,,,,,,,,0,,74,0
108416,note_on,,512,0,1,,,,,,,,,,0,,66,0
108476,note_on,,188,0,2,,,,,,,,,,1,,57,0
108480,note_on,,0,0,1,,,,,,,,,,0,,69,100
108480,note_on,,4,0,2,,,,,,,,,,1,,54,100
108480,note_on,,64,0,1,,,,,,,,,,0,,72,100
108668,note_on,,188,0,1,,,,,,,,,,0,,69,0
108668,note_on,,188,0,2,,,,,,,,,,1,,54,0
108672,note_on,,4,0,1,,,,,,,,,,0,,72,0
108672,note_on,,0,0,1,,,,,,,,,,0,,70,100
108672,note_on,,0,0,1,,,,,,,,,,0,,62,100
108672,note_on,,4,0,2,,,,,,,,,,1,,55,100
108860,note_on,,188,0,1,,,,,,,,,,0,,62,0
108864,note_on,,4,0,1,,,,,,,,,,0,,67,100
108992,note_on,,320,0,2,,,,,,,,,,1,,55,0
109052,note_on,,188,0,1,,,,,,,,,,0,,67,0
109056,note_on,,0,0,1,,,,,,,,,,0,,66,100
109056,note_on,,0,0,1,,,,,,,,,,0,,69,100
109056,note_on,,64,0,2,,,,,,,,,,1,,57,100
109056,note_on,,4,0,1,,,,,,,,,,0,,70,0
109244,note_on,,188,0,2,,,,,,,,,,1,,57,0
109248,note_on,,192,0,1,,,,,,,,,,0,,69,0
109248,note_on,,0,0,1,,,,,,,,,,0,,75,100
109248,note_on,,4,0,2,,,,,,,,,,1,,55,100
109344,note_on,,96,0,2,,,,,,,,,,1,,50,0
109376,note_on,,128,0,1,,,,,,,,,,0,,66,0
109436,note_on,,92,0,2,,,,,,,,,,1,,55,0
109440,note_on,,4,0,2,,,,,,,,,,1,,50,100
109440,note_on,,0,0,2,,,,,,,,,,1,,57,100
109440,note_on,,0,0,1,,,,,,,,,,0,,66,100
109440,note_on,,0,0,1,,,,,,,,,,0,,74,100
109440,note_on,,64,0,1,,,,,,,,,,0,,75,0
109632,note_on,,0,0,1,,,,,,,,,,0,,72,100
109632,note_on,,0,0,1,,,,,,,,,,0,,69,100
109632,note_on,,192,0,1,,,,,,,,,,0,,74,0
109760,note_on,,128,0,1,,,,,,,,,,0,,66,0
109760,note_on,,320,0,2,,,,,,,,,,1,,57,0
109760,note_on,,0,0,2,,,,,,,,,,1,,50,0
109820,note_on,,0,0,1,,,,,,,,,,0,,69,0
109820,note_on,,60,0,1,,,,,,,,,,0,,72,0
109824,note_on,,0,0,1,,,,,,,,,,0,,62,100
109824,note_on,,0,0,1,,,,,,,,,,0,,70,100
109824,note_on,,4,0,1,,,,,,,,,,0,,67,100
109824,note_on,,64,0,2,,,,,,,,,,1,,43,100
109824,note_on,,0,0,2,,,,,,,,,,1,,55,100
110012,note_on,,188,0,1,,,,,,,,,,0,,62,0
110016,note_on,,0,0,1,,,,,,,,,,0,,60,100
110016,note_on,,0,0,1,,,,,,,,,,0,,69,100
110016,note_on,,0,0,1,,,,,,,,,,0,,66,100
110016,note_on,,0,0,1,,,,,,,,,,0,,67,0
110016,note_on,,4,0,1,,,,,,,,,,0,,70,0
110204,note_on,,188,0,1,,,,,,,,,,0,,60,0
110204,note_on,,0,0,1,,,,,,,,,,0,,66,0
110204,note_on,,0,0,1,,,,,,,,,,0,,69,0
110208,note_on,,0,0,1,,,,,,,,,,0,,58,100
110208,note_on,,0,0,1,,,,,,,,,,0,,67,100
110208,note_on,,4,0,1,,,,,,,,,,0,,62,100
110400,note_on,,0,0,2,,,,,,,,,,1,,50,100
110400,note_on,,576,0,2,,,,,,,,,,1,,55,0
110592,note_on,,0,0,2,,,,,,,,,,1,,46,100
110592,note_on,,192,0,2,,,,,,,,,,1,,50,0
110784,note_on,,192,0,2,,,,,,,,,,1,,46,0
110784,note_on,,0,0,2,,,,,,,,,,1,,43,100
110880,note_on,,0,0,1,,,,,,,,,,0,,62,0
110880,note_on,,96,0,2,,,,,,,,,,1,,43,0
110880,note_on,,672,0,1,,,,,,,,,,0,,58,0
110880,note_on,,0,0,1,,,,,,,,,,0,,67,0
110972,note_on,,92,0,2,,,,,,,,,,1,,43,0
110976,set_tempo,,9216,1,0,,,,,,857143,,,,,,,
110976,note_on,,4,0,2,,,,,,,,,,1,,55,100
110976,note_on,,96,0,1,,,,,,,,,,0,,70,100
111168,note_on,,192,0,2,,,,,,,,,,1,,62,100
111356,note_on,,188,0,2,,,,,,,,,,1,,62,0
111360,note_on,,4,0,2,,,,,,,,,,1,,63,100
111552,note_on,,0,0,1,,,,,,,,,,0,,72,100
111552,note_on,,576,0,1,,,,,,,,,,0,,70,0
111616,note_on,,256,0,2,,,,,,,,,,1,,63,0
111648,note_on,,96,0,1,,,,,,,,,,0,,72,0
111648,note_on,,0,0,1,,,,,,,,,,0,,69,100
111648,note_on,,32,0,2,,,,,,,,,,1,,55,0
111744,note_on,,96,0,2,,,,,,,,,,1,,55,100
111744,note_on,,96,0,1,,,,,,,,,,0,,69,0
111744,note_on,,0,0,1,,,,,,,,,,0,,70,100
111936,note_on,,192,0,1,,,,,,,,,,0,,70,0
111936,note_on,,0,0,1,,,,,,,,,,0,,72,100
112064,note_on,,320,0,2,,,,,,,,,,1,,55,0
112128,note_on,,0,0,1,,,,,,,,,,0,,69,100
112128,note_on,,192,0,1,,,,,,,,,,0,,72,0
112128,note_on,,64,0,2,,,,,,,,,,1,,53,100
112320,note_on,,192,0,2,,,,,,,,,,1,,65,100
112508,note_on,,188,0,2,,,,,,,,,,1,,65,0
112512,note_on,,4,0,2,,,,,,,,,,1,,62,100
112640,note_on,,512,0,1,,,,,,,,,,0,,69,0
112704,note_on,,64,0,1,,,,,,,,,,0,,69,100
112800,note_on,,288,0,2,,,,,,,,,,1,,53,0
112896,note_on,,0,0,1,,,,,,,,,,0,,74,100
112896,note_on,,96,0,2,,,,,,,,,,1,,53,100
112896,note_on,,192,0,1,,,,,,,,,,0,,69,0
113088,note_on,,0,0,1,,,,,,,,,,0,,70,100
113088,note_on,,192,0,1,,,,,,,,,,0,,74,0
113216,note_on,,320,0,2,,,,,,,,,,1,,53,0
113280,note_on,,0,0,1,,,,,,,,,,0,,67,100
113280,note_on,,64,0,2,,,,,,,,,,1,,51,100
113280,note_on,,192,0,1,,,,,,,,,,0,,70,0
113468,note_on,,188,0,2,,,,,,,,,,1,,62,0
113472,note_on,,4,0,2,,,,,,,,,,1,,62,100
113568,note_on,,0,0,1,,,,,,,,,,0,,66,100
113568,note_on,,288,0,1,,,,,,,,,,0,,67,0
113660,note_on,,188,0,2,,,,,,,,,,1,,62,0
113664,note_on,,0,0,1,,,,,,,,,,0,,67,100
113664,note_on,,96,0,1,,,,,,,,,,0,,66,0
113664,note_on,,4,0,2,,,,,,,,,,1,,60,100
113852,note_on,,188,0,1,,,,,,,,,,0,,67,0
113856,note_on,,4,0,1,,,,,,,,,,0,,78,100
113952,note_on,,288,0,2,,,,,,,,,,1,,51,0
114048,note_on,,0,0,1,,,,,,,,,,0,,79,100
114048,note_on,,96,0,2,,,,,,,,,,1,,50,100
114048,note_on,,192,0,1,,,,,,,,,,0,,78,0
114240,note_on,,192,0,1,,,,,,,,,,0,,79,0
114240,note_on,,0,0,1,,,,,,,,,,0,,81,100
114336,note_on,,288,0,2,,,,,,,,,,1,,60,0
114368,note_on,,32,0,2,,,,,,,,,,1,,50,0
114428,note_on,,188,0,1,,,,,,,,,,0,,81,0
114432,note_on,,0,0,2,,,,,,,,,,1,,57,100
114432,note_on,,4,0,1,,,,,,,,,,0,,79,100
114432,note_on,,0,0,2,,,,,,,,,,1,,62,100
114432,note_on,,64,0,2,,,,,,,,,,1,,50,100
114476,note_on,,44,0,1,,,,,,,,,,0,,79,0
114480,note_on,,4,0,1,,,,,,,,,,0,,78,100
114524,note_on,,44,0,1,,,,,,,,,,0,,78,0
114528,note_on,,4,0,1,,,,,,,,,,0,,79,100
114572,note_on,,44,0,1,,,,,,,,,,0,,79,0
114576,note_on,,4,0,1,,,,,,,,,,0,,78,100
114620,note_on,,44,0,1,,,,,,,,,,0,,78,0
114624,note_on,,4,0,1,,,,,,,,,,0,,79,100
114668,note_on,,44,0,1,,,,,,,,,,0,,79,0
114672,note_on,,4,0,1,,,,,,,,,,0,,78,100
114716,note_on,,44,0,1,,,,,,,,,,0,,78,0
114720,note_on,,4,0,1,,,,,,,,,,0,,79,100
114752,note_on,,320,0,2,,,,,,,,,,1,,62,0
114752,note_on,,0,0,2,,,,,,,,,,1,,57,0
114764,note_on,,44,0,1,,,,,,,,,,0,,79,0
114768,note_on,,4,0,1,,,,,,,,,,0,,81,100
114812,note_on,,44,0,1,,,,,,,,,,0,,81,0
114816,note_on,,4,0,1,,,,,,,,,,0,,66,100
114816,note_on,,0,0,1,,,,,,,,,,0,,69,100
114816,note_on,,0,0,1,,,,,,,,,,0,,74,100
115004,note_on,,252,0,2,,,,,,,,,,1,,50,0
115008,note_on,,4,0,2,,,,,,,,,,1,,48,100
115196,note_on,,188,0,2,,,,,,,,,,1,,48,0
115200,note_on,,4,0,2,,,,,,,,,,1,,50,100
115388,note_on,,188,0,2,,,,,,,,,,1,,50,0
115392,note_on,,4,0,2,,,,,,,,,,1,,45,100
115488,note_on,,672,0,1,,,,,,,,,,0,,74,0
115488,note_on,,0,0,1,,,,,,,,,,0,,66,0
115488,note_on,,0,0,1,,,,,,,,,,0,,69,0
115580,note_on,,188,0,2,,,,,,,,,,1,,45,0
115584,note_on,,4,0,2,,,,,,,,,,1,,46,100
115776,note_on,,192,0,2,,,,,,,,,,1,,50,100
115968,note_on,,192,0,2,,,,,,,,,,1,,50,0
115968,note_on,,0,0,2,,,,,,,,,,1,,55,100
116160,note_on,,672,0,1,,,,,,,,,,0,,62,100
116352,note_on,,192,0,1,,,,,,,,,,0,,62,0
116352,note_on,,0,0,1,,,,,,,,,,0,,67,100
116540,note_on,,572,0,2,,,,,,,,,,1,,46,0
116544,note_on,,4,0,2,,,,,,,,,,1,,46,100
116544,note_on,,192,0,1,,,,,,,,,,0,,74,100
116640,note_on,,96,0,2,,,,,,,,,,1,,55,0
116732,note_on,,188,0,1,,,,,,,,,,0,,74,0
116732,note_on,,92,0,2,,,,,,,,,,1,,46,0
116736,note_on,,4,0,1,,,,,,,,,,0,,75,100
116736,note_on,,4,0,2,,,,,,,,,,1,,48,100
116924,note_on,,188,0,1,,,,,,,,,,0,,67,0
116928,note_on,,4,0,1,,,,,,,,,,0,,67,100
116928,note_on,,192,0,2,,,,,,,,,,1,,58,100
117056,note_on,,128,0,2,,,,,,,,,,1,,48,0
117056,note_on,,128,0,1,,,,,,,,,,0,,75,0
117116,note_on,,60,0,1,,,,,,,,,,0,,67,0
117120,note_on,,0,0,2,,,,,,,,,,1,,57,100
117120,note_on,,0,0,2,,,,,,,,,,1,,50,100
117120,note_on,,64,0,2,,,,,,,,,,1,,58,0
117120,note_on,,4,0,1,,,,,,,,,,0,,74,100
117120,note_on,,0,0,1,,,,,,,,,,0,,66,100
117408,note_on,,0,0,2,,,,,,,,,,1,,55,100
117408,note_on,,288,0,2,,,,,,,,,,1,,57,0
117504,note_on,,0,0,2,,,,,,,,,,1,,57,100
117504,note_on,,96,0,2,,,,,,,,,,1,,55,0
117632,note_on,,512,0,1,,,,,,,,,,0,,66,0
117632,note_on,,0,0,1,,,,,,,,,,0,,74,0
117692,note_on,,188,0,2,,,,,,,,,,1,,57,0
117696,note_on,,4,0,2,,,,,,,,,,1,,54,100
117696,note_on,,64,0,1,,,,,,,,,,0,,72,100
117696,note_on,,0,0,1,,,,,,,,,,0,,69,100
117884,note_on,,188,0,1,,,,,,,,,,0,,69,0
117884,note_on,,188,0,2,,,,,,,,,,1,,54,0
117888,note_on,,0,0,1,,,,,,,,,,0,,62,100
117888,note_on,,0,0,1,,,,,,,,,,0,,70,100
117888,note_on,,4,0,1,,,,,,,,,,0,,72,0
117888,note_on,,4,0,2,,,,,,,,,,1,,55,100
118076,note_on,,188,0,1,,,,,,,,,,0,,62,0
118080,note_on,,4,0,1,,,,,,,,,,0,,67,100
118208,note_on,,320,0,2,,,,,,,,,,1,,55,0
118268,note_on,,188,0,1,,,,,,,,,,0,,67,0
118272,note_on,,64,0,2,,,,,,,,,,1,,57,100
118272,note_on,,0,0,1,,,,,,,,,,0,,66,100
118272,note_on,,4,0,1,,,,,,,,,,0,,70,0
118272,note_on,,0,0,1,,,,,,,,,,0,,69,100
118460,note_on,,188,0,2,,,,,,,,,,1,,57,0
118464,note_on,,0,0,1,,,,,,,,,,0,,75,100
118464,note_on,,192,0,1,,,,,,,,,,0,,69,0
118464,note_on,,4,0,2,,,,,,,,,,1,,55,100
118560,note_on,,96,0,2,,,,,,,,,,1,,50,0
118592,note_on,,128,0,1,,,,,,,,,,0,,66,0
118652,note_on,,92,0,2,,,,,,,,,,1,,55,0
118656,note_on,,0,0,1,,,,,,,,,,0,,74,100
118656,note_on,,0,0,2,,,,,,,,,,1,,57,100
118656,note_on,,4,0,2,,,,,,,,,,1,,50,100
118656,note_on,,64,0,1,,,,,,,,,,0,,75,0
118656,note_on,,0,0,1,,,,,,,,,,0,,66,100
118848,note_on,,0,0,1,,,,,,,,,,0,,72,100
118848,note_on,,0,0,1,,,,,,,,,,0,,69,100
118848,note_on,,192,0,1,,,,,,,,,,0,,74,0
118976,note_on,,128,0,1,,,,,,,,,,0,,66,0
118976,note_on,,320,0,2,,,,,,,,,,1,,57,0
118976,note_on,,0,0,2,,,,,,,,,,1,,50,0
119036,note_on,,60,0,1,,,,,,,,,,0,,72,0
119036,note_on,,0,0,1,,,,,,,,,,0,,69,0
119040,note_on,,4,0,1,,,,,,,,,,0,,67,100
119040,note_on,,0,0,1,,,,,,,,,,0,,70,100
119040,note_on,,64,0,2,,,,,,,,,,1,,43,100
119040,note_on,,0,0,2,,,,,,,,,,1,,55,100
119040,note_on,,0,0,1,,,,,,,,,,0,,62,100
119228,note_on,,188,0,1,,,,,,,,,,0,,62,0
119232,note_on,,4,0,1,,,,,,,,,,0,,70,0
119232,note_on,,0,0,1,,,,,,,,,,0,,67,0
119232,note_on,,0,0,1,,,,,,,,,,0,,66,100
119232,note_on,,0,0,1,,,,,,,,,,0,,69,100
119232,note_on,,0,0,1,,,,,,,,,,0,,60,100
119420,note_on,,188,0,1,,,,,,,,,,0,,60,0
119420,note_on,,0,0,1,,,,,,,,,,0,,69,0
119420,note_on,,0,0,1,,,,,,,,,,0,,66,0
119424,note_on,,4,0,1,,,,,,,,,,0,,62,100
119424,note_on,,0,0,1,,,,,,,,,,0,,58,100
119424,note_on,,0,0,1,,,,,,,,,,0,,67,100
119616,note_on,,576,0,2,,,,,,,,,,1,,55,0
119616,note_on,,0,0,2,,,,,,,,,,1,,50,100
119808,note_on,,0,0,2,,,,,,,,,,1,,46,100
119808,note_on,,192,0,2,,,,,,,,,,1,,50,0
120000,note_on,,0,0,2,,,,,,,,,,1,,43,100
120000,note_on,,192,0,2,,,,,,,,,,1,,46,0
120096,note_on,,0,0,1,,,,,,,,,,0,,62,0
120096,note_on,,96,0,2,,,,,,,,,,1,,43,0
120096,note_on,,672,0,1,,,,,,,,,,0,,58,0
120096,note_on,,0,0,1,,,,,,,,,,0,,67,0
120188,note_on,,92,0,2,,,,,,,,,,1,,43,0
120192,note_on,,96,0,1,,,,,,,,,,0,,82,100
120192,note_on,,4,0,2,,,,,,,,,,1,,55,100
120384,note_on,,192,0,1,,,,,,,,,,0,,74,100
120576,note_on,,0,0,1,,,,,,,,,,0,,75,100
120576,note_on,,192,0,1,,,,,,,,,,0,,74,0
120768,note_on,,0,0,2,,,,,,,,,,1,,53,100
120768,note_on,,0,0,1,,,,,,,,,,0,,81,100
120768,note_on,,576,0,2,,,,,,,,,,1,,55,0
120768,note_on,,192,0,1,,,,,,,,,,0,,82,0
120960,note_on,,0,0,2,,,,,,,,,,1,,55,100
120960,note_on,,192,0,2,,,,,,,,,,1,,53,0
120960,note_on,,192,0,1,,,,,,,,,,0,,81,0
120960,note_on,,0,0,1,,,,,,,,,,0,,82,100
121152,note_on,,0,0,2,,,,,,,,,,1,,48,100
121152,note_on,,192,0,1,,,,,,,,,,0,,82,0
121152,note_on,,0,0,1,,,,,,,,,,0,,84,100
121152,note_on,,192,0,2,,,,,,,,,,1,,55,0
121344,note_on,,0,0,2,,,,,,,,,,1,,53,100
121344,note_on,,192,0,1,,,,,,,,,,0,,84,0
121344,note_on,,0,0,1,,,,,,,,,,0,,81,100
121344,note_on,,192,0,2,,,,,,,,,,1,,48,0
121532,note_on,,188,0,1,,,,,,,,,,0,,75,0
121536,note_on,,4,0,1,,,,,,,,,,0,,75,100
121724,note_on,,188,0,1,,,,,,,,,,0,,75,0
121728,note_on,,4,0,1,,,,,,,,,,0,,74,100
121920,note_on,,192,0,1,,,,,,,,,,0,,81,0
121920,note_on,,0,0,1,,,,,,,,,,0,,79,100
121920,note_on,,0,0,2,,,,,,,,,,1,,50,100
121920,note_on,,576,0,2,,,,,,,,,,1,,53,0
122112,note_on,,192,0,1,,,,,,,,,,0,,79,0
122112,note_on,,0,0,1,,,,,,,,,,0,,81,100
122112,note_on,,192,0,2,,,,,,,,,,1,,50,0
122112,note_on,,0,0,2,,,,,,,,,,1,,53,100
122304,note_on,,192,0,1,,,,,,,,,,0,,81,0
122304,note_on,,0,0,2,,,,,,,,,,1,,45,100
122304,note_on,,0,0,1,,,,,,,,,,0,,82,100
122304,note_on,,192,0,2,,,,,,,,,,1,,53,0
122496,note_on,,0,0,2,,,,,,,,,,1,,51,100
122496,note_on,,192,0,2,,,,,,,,,,1,,45,0
122496,note_on,,0,0,1,,,,,,,,,,0,,79,100
122496,note_on,,192,0,1,,,,,,,,,,0,,82,0
122684,note_on,,188,0,1,,,,,,,,,,0,,74,0
122688,note_on,,4,0,1,,,,,,,,,,0,,74,100
122876,note_on,,188,0,1,,,,,,,,,,0,,74,0
122880,note_on,,4,0,1,,,,,,,,,,0,,72,100
123072,note_on,,0,0,1,,,,,,,,,,0,,78,100
123072,note_on,,0,0,2,,,,,,,,,,1,,50,100
123072,note_on,,576,0,2,,,,,,,,,,1,,51,0
123072,note_on,,192,0,1,,,,,,,,,,0,,79,0
123264,note_on,,192,0,1,,,,,,,,,,0,,78,0
123264,note_on,,0,0,1,,,,,,,,,,0,,79,100
123264,note_on,,192,0,2,,,,,,,,,,1,,50,0
123264,note_on,,0,0,2,,,,,,,,,,1,,51,100
123456,note_on,,192,0,1,,,,,,,,,,0,,79,0
123456,note_on,,192,0,2,,,,,,,,,,1,,51,0
123456,note_on,,0,0,2,,,,,,,,,,1,,45,100
123456,note_on,,0,0,1,,,,,,,,,,0,,81,100
123552,note_on,,96,0,1,,,,,,,,,,0,,72,0
123648,note_on,,0,0,1,,,,,,,,,,0,,78,100
123648,note_on,,96,0,1,,,,,,,,,,0,,81,0
123648,note_on,,192,0,2,,,,,,,,,,1,,45,0
123648,note_on,,0,0,2,,,,,,,,,,1,,50,100
123648,note_on,,0,0,1,,,,,,,,,,0,,74,100
123936,note_on,,0,0,1,,,,,,,,,,0,,81,100
123936,note_on,,288,0,1,,,,,,,,,,0,,78,0
123968,note_on,,32,0,1,,,,,,,,,,0,,74,0
124028,note_on,,60,0,1,,,,,,,,,,0,,81,0
124032,note_on,,0,0,1,,,,,,,,,,0,,69,100
124032,note_on,,4,0,1,,,,,,,,,,0,,74,100
124032,note_on,,0,0,1,,,,,,,,,,0,,66,100
124224,note_on,,0,0,2,,,,,,,,,,1,,48,100
124224,note_on,,576,0,2,,,,,,,,,,1,,50,0
124416,note_on,,192,0,2,,,,,,,,,,1,,48,0
124416,note_on,,0,0,2,,,,,,,,,,1,,46,100
124608,note_on,,192,0,2,,,,,,,,,,1,,46,0
124608,note_on,,0,0,2,,,,,,,,,,1,,45,100
124704,note_on,,0,0,1,,,,,,,,,,0,,74,0
124704,note_on,,0,0,1,,,,,,,,,,0,,66,0
124704,note_on,,672,0,1,,,,,,,,,,0,,69,0
124796,note_on,,188,0,2,,,,,,,,,,1,,45,0
124800,note_on,,96,0,1,,,,,,,,,,0,,74,100
124800,note_on,,4,0,2,,,,,,,,,,1,,45,100
124800,note_on,,0,0,2,,,,,,,,,,1,,57,100
124992,note_on,,192,0,1,,,,,,,,,,0,,68,100
125120,note_on,,320,0,2,,,,,,,,,,1,,57,0
125120,note_on,,0,0,2,,,,,,,,,,1,,45,0
125180,note_on,,188,0,1,,,,,,,,,,0,,68,0
125184,note_on,,4,0,1,,,,,,,,,,0,,68,100
125184,note_on,,0,0,2,,,,,,,,,,1,,59,100
125184,note_on,,64,0,2,,,,,,,,,,1,,47,100
125376,note_on,,192,0,1,,,,,,,,,,0,,68,0
125376,note_on,,0,0,1,,,,,,,,,,0,,67,100
125564,note_on,,188,0,1,,,,,,,,,,0,,67,0
125568,note_on,,4,0,1,,,,,,,,,,0,,67,100
125760,note_on,,0,0,1,,,,,,,,,,0,,65,100
125760,note_on,,192,0,1,,,,,,,,,,0,,67,0
125856,note_on,,672,0,2,,,,,,,,,,1,,59,0
125856,note_on,,0,0,2,,,,,,,,,,1,,47,0
125948,note_on,,188,0,1,,,,,,,,,,0,,65,0
125952,note_on,,4,0,1,,,,,,,,,,0,,63,100
125952,note_on,,96,0,2,,,,,,,,,,1,,48,100
126140,note_on,,188,0,1,,,,,,,,,,0,,74,0
126144,note_on,,4,0,1,,,,,,,,,,0,,74,100
126144,note_on,,192,0,2,,,,,,,,,,1,,58,100
126272,note_on,,128,0,1,,,,,,,,,,0,,63,0
126336,note_on,,64,0,1,,,,,,,,,,0,,74,0
126336,note_on,,0,0,1,,,,,,,,,,0,,72,100
126336,note_on,,192,0,2,,,,,,,,,,1,,58,0
126336,note_on,,0,0,2,,,,,,,,,,1,,57,100
126528,note_on,,192,0,1,,,,,,,,,,0,,63,100
126528,note_on,,192,0,2,,,,,,,,,,1,,57,0
126528,note_on,,0,0,2,,,,,,,,,,1,,55,100
126624,note_on,,96,0,2,,,,,,,,,,1,,48,0
126720,note_on,,0,0,2,,,,,,,,,,1,,50,100
126720,note_on,,0,0,1,,,,,,,,,,0,,62,100
126720,note_on,,0,0,2,,,,,,,,,,1,,54,100
126720,note_on,,96,0,2,,,,,,,,,,1,,55,0
126720,note_on,,192,0,1,,,,,,,,,,0,,63,0
126912,note_on,,0,0,1,,,,,,,,,,0,,69,100
126912,note_on,,0,0,1,,,,,,,,,,0,,72,100
126912,note_on,,0,0,1,,,,,,,,,,0,,72,0
126912,note_on,,192,0,1,,,,,,,,,,0,,62,0
127040,note_on,,0,0,2,,,,,,,,,,1,,50,0
127040,note_on,,320,0,2,,,,,,,,,,1,,54,0
127104,note_on,,192,0,1,,,,,,,,,,0,,69,0
127104,note_on,,0,0,1,,,,,,,,,,0,,72,0
127104,note_on,,0,0,1,,,,,,,,,,0,,70,100
127104,note_on,,0,0,1,,,,,,,,,,0,,62,100
127104,note_on,,64,0,2,,,,,,,,,,1,,55,100
127296,note_on,,0,0,2,,,,,,,,,,1,,48,100
127296,note_on,,192,0,2,,,,,,,,,,1,,55,0
127296,note_on,,0,0,1,,,,,,,,,,0,,63,100
127296,note_on,,0,0,1,,,,,,,,,,0,,69,100
127296,note_on,,0,0,1,,,,,,,,,,0,,70,0
127296,note_on,,192,0,1,,,,,,,,,,0,,62,0
127484,note_on,,188,0,1,,,,,,,,,,0,,63,0
127484,note_on,,0,0,1,,,,,,,,,,0,,69,0
127488,note_on,,0,0,2,,,,,,,,,,1,,50,100
127488,note_on,,192,0,2,,,,,,,,,,1,,48,0
127488,note_on,,4,0,1,,,,,,,,,,0,,70,100
127488,note_on,,0,0,1,,,,,,,,,,0,,62,100
127676,note_on,,188,0,1,,,,,,,,,,0,,62,0
127680,note_on,,4,0,1,,,,,,,,,,0,,67,100
127808,note_on,,128,0,1,,,,,,,,,,0,,70,0
127868,note_on,,60,0,1,,,,,,,,,,0,,67,0
127872,note_on,,0,0,2,,,,,,,,,,1,,38,100
127872,note_on,,384,0,2,,,,,,,,,,1,,50,0
127872,note_on,,0,0,1,,,,,,,,,,0,,66,100
127872,note_on,,4,0,1,,,,,,,,,,0,,69,100
128060,note_on,,188,0,1,,,,,,,,,,0,,66,0
128064,note_on,,4,0,1,,,,,,,,,,0,,60,100
128192,note_on,,320,0,2,,,,,,,,,,1,,38,0
128192,note_on,,128,0,1,,,,,,,,,,0,,69,0
128256,note_on,,0,0,1,,,,,,,,,,0,,67,100
128256,note_on,,64,0,2,,,,,,,,,,1,,43,100
128256,note_on,,64,0,1,,,,,,,,,,0,,62,100
128444,note_on,,188,0,1,,,,,,,,,,0,,60,0
128448,note_on,,4,0,1,,,,,,,,,,0,,60,100
128640,note_on,,0,0,1,,,,,,,,,,0,,58,100
128640,note_on,,192,0,1,,,,,,,,,,0,,60,0
128928,note_on,,288,0,1,,,,,,,,,,0,,58,0
128928,note_on,,0,0,1,,,,,,,,,,0,,57,100
129020,note_on,,92,0,1,,,,,,,,,,0,,57,0
129024,note_on,,768,0,2,,,,,,,,,,1,,55,100
129216,note_on,,0,0,2,,,,,,,,,,1,,50,100
129216,note_on,,192,0,2,,,,,,,,,,1,,55,0
129312,note_on,,96,0,2,,,,,,,,,,1,,43,0
129312,note_on,,292,0,1,,,,,,,,,,0,,67,0
129312,note_on,,0,0,1,,,,,,,,,,0,,62,0
129404,note_on,,92,0,2,,,,,,,,,,1,,50,0
129408,note_on,,96,0,1,,,,,,,,,,0,,82,100
129408,note_on,,4,0,2,,,,,,,,,,1,,55,100
129600,note_on,,192,0,1,,,,,,,,,,0,,74,100
129792,note_on,,192,0,1,,,,,,,,,,0,,74,0
129792,note_on,,0,0,1,,,,,,,,,,0,,75,100
129984,note_on,,192,0,1,,,,,,,,,,0,,82,0
129984,note_on,,0,0,1,,,,,,,,,,0,,81,100
129984,note_on,,0,0,2,,,,,,,,,,1,,53,100
129984,note_on,,576,0,2,,,,,,,,,,1,,55,0
130176,note_on,,0,0,1,,,,,,,,,,0,,82,100
130176,note_on,,0,0,2,,,,,,,,,,1,,55,100
130176,note_on,,192,0,2,,,,,,,,,,1,,53,0
130176,note_on,,192,0,1,,,,,,,,,,0,,81,0
130368,note_on,,192,0,1,,,,,,,,,,0,,82,0
130368,note_on,,0,0,1,,,,,,,,,,0,,84,100
130368,note_on,,0,0,2,,,,,,,,,,1,,48,100
130368,note_on,,192,0,2,,,,,,,,,,1,,55,0
130560,note_on,,192,0,1,,,,,,,,,,0,,84,0
130560,note_on,,0,0,1,,,,,,,,,,0,,81,100
130560,note_on,,0,0,2,,,,,,,,,,1,,53,100
130560,note_on,,192,0,2,,,,,,,,,,1,,48,0
130748,note_on,,188,0,1,,,,,,,,,,0,,75,0
130752,note_on,,4,0,1,,,,,,,,,,0,,75,100
130940,note_on,,188,0,1,,,,,,,,,,0,,75,0
130944,note_on,,4,0,1,,,,,,,,,,0,,74,100
131136,note_on,,576,0,2,,,,,,,,,,1,,53,0
131136,note_on,,0,0,2,,,,,,,,,,1,,50,100
131136,note_on,,192,0,1,,,,,,,,,,0,,81,0
131136,note_on,,0,0,1,,,,,,,,,,0,,79,100
131328,note_on,,0,0,2,,,,,,,,,,1,,53,100
131328,note_on,,192,0,1,,,,,,,,,,0,,79,0
131328,note_on,,0,0,1,,,,,,,,,,0,,81,100
131328,note_on,,192,0,2,,,,,,,,,,1,,50,0
131520,note_on,,192,0,1,,,,,,,,,,0,,81,0
131520,note_on,,192,0,2,,,,,,,,,,1,,53,0
131520,note_on,,0,0,2,,,,,,,,,,1,,45,100
131520,note_on,,0,0,1,,,,,,,,,,0,,82,100
131712,note_on,,192,0,2,,,,,,,,,,1,,45,0
131712,note_on,,0,0,2,,,,,,,,,,1,,51,100
131712,note_on,,192,0,1,,,,,,,,,,0,,82,0
131712,note_on,,0,0,1,,,,,,,,,,0,,79,100
131900,note_on,,188,0,1,,,,,,,,,,0,,74,0
131904,note_on,,4,0,1,,,,,,,,,,0,,74,100
132092,note_on,,188,0,1,,,,,,,,,,0,,74,0
132096,note_on,,4,0,1,,,,,,,,,,0,,72,100
132288,note_on,,0,0,2,,,,,,,,,,1,,50,100
132288,note_on,,576,0,2,,,,,,,,,,1,,51,0
132288,note_on,,192,0,1,,,,,,,,,,0,,79,0
132288,note_on,,0,0,1,,,,,,,,,,0,,78,100
132480,note_on,,0,0,2,,,,,,,,,,1,,51,100
132480,note_on,,192,0,2,,,,,,,,,,1,,50,0
132480,note_on,,192,0,1,,,,,,,,,,0,,78,0
132480,note_on,,0,0,1,,,,,,,,,,0,,79,100
132672,note_on,,192,0,1,,,,,,,,,,0,,79,0
132672,note_on,,0,0,2,,,,,,,,,,1,,45,100
132672,note_on,,0,0,1,,,,,,,,,,0,,81,100
132672,note_on,,192,0,2,,,,,,,,,,1,,51,0
132768,note_on,,96,0,1,,,,,,,,,,0,,72,0
132864,note_on,,0,0,1,,,,,,,,,,0,,78,100
132864,note_on,,0,0,1,,,,,,,,,,0,,74,100
132864,note_on,,192,0,2,,,,,,,,,,1,,45,0
132864,note_on,,0,0,2,,,,,,,,,,1,,50,100
132864,note_on,,96,0,1,,,,,,,,,,0,,81,0
133152,note_on,,288,0,1,,,,,,,,,,0,,78,0
133152,note_on,,0,0,1,,,,,,,,,,0,,81,100
133184,note_on,,32,0,1,,,,,,,,,,0,,74,0
133244,note_on,,60,0,1,,,,,,,,,,0,,81,0
133248,note_on,,0,0,1,,,,,,,,,,0,,66,100
133248,note_on,,0,0,1,,,,,,,,,,0,,69,100
133248,note_on,,4,0,1,,,,,,,,,,0,,74,100
133440,note_on,,0,0,2,,,,,,,,,,1,,48,100
133440,note_on,,576,0,2,,,,,,,,,,1,,50,0
133632,note_on,,0,0,2,,,,,,,,,,1,,46,100
133632,note_on,,192,0,2,,,,,,,,,,1,,48,0
133824,note_on,,192,0,2,,,,,,,,,,1,,46,0
133824,note_on,,0,0,2,,,,,,,,,,1,,45,100
133920,note_on,,0,0,1,,,,,,,,,,0,,66,0
133920,note_on,,0,0,1,,,,,,,,,,0,,74,0
133920,note_on,,672,0,1,,,,,,,,,,0,,69,0
134012,note_on,,188,0,2,,,,,,,,,,1,,45,0
134016,note_on,,0,0,2,,,,,,,,,,1,,57,100
134016,note_on,,96,0,1,,,,,,,,,,0,,74,100
134016,note_on,,4,0,2,,,,,,,,,,1,,45,100
134208,note_on,,192,0,1,,,,,,,,,,0,,68,100
134336,note_on,,320,0,2,,,,,,,,,,1,,57,0
134336,note_on,,0,0,2,,,,,,,,,,1,,45,0
134396,note_on,,188,0,1,,,,,,,,,,0,,68,0
134400,note_on,,4,0,1,,,,,,,,,,0,,68,100
134400,note_on,,64,0,2,,,,,,,,,,1,,47,100
134400,note_on,,0,0,2,,,,,,,,,,1,,59,100
134592,note_on,,0,0,1,,,,,,,,,,0,,67,100
134592,note_on,,192,0,1,,,,,,,,,,0,,68,0
134780,note_on,,188,0,1,,,,,,,,,,0,,67,0
134784,note_on,,4,0,1,,,,,,,,,,0,,67,100
134976,note_on,,0,0,1,,,,,,,,,,0,,65,100
134976,note_on,,192,0,1,,,,,,,,,,0,,67,0
135072,note_on,,0,0,2,,,,,,,,,,1,,47,0
135072,note_on,,672,0,2,,,,,,,,,,1,,59,0
135164,note_on,,188,0,1,,,,,,,,,,0,,65,0
135168,note_on,,4,0,1,,,,,,,,,,0,,63,100
135168,note_on,,96,0,2,,,,,,,,,,1,,48,100
135356,note_on,,188,0,1,,,,,,,,,,0,,74,0
135360,note_on,,192,0,2,,,,,,,,,,1,,58,100
135360,note_on,,4,0,1,,,,,,,,,,0,,74,100
135488,note_on,,128,0,1,,,,,,,,,,0,,63,0
135552,note_on,,192,0,2,,,,,,,,,,1,,58,0
135552,note_on,,0,0,1,,,,,,,,,,0,,72,100
135552,note_on,,0,0,2,,,,,,,,,,1,,57,100
135552,note_on,,64,0,1,,,,,,,,,,0,,74,0
135744,note_on,,192,0,2,,,,,,,,,,1,,57,0
135744,note_on,,0,0,2,,,,,,,,,,1,,55,100
135744,note_on,,192,0,1,,,,,,,,,,0,,63,100
135840,note_on,,96,0,2,,,,,,,,,,1,,48,0
135936,note_on,,0,0,2,,,,,,,,,,1,,50,100
135936,note_on,,0,0,2,,,,,,,,,,1,,54,100
135936,note_on,,96,0,2,,,,,,,,,,1,,55,0
135936,note_on,,192,0,1,,,,,,,,,,0,,63,0
135936,note_on,,0,0,1,,,,,,,,,,0,,62,100
136128,note_on,,192,0,1,,,,,,,,,,0,,62,0
136128,note_on,,0,0,1,,,,,,,,,,0,,72,0
136128,note_on,,0,0,1,,,,,,,,,,0,,72,100
136128,note_on,,0,0,1,,,,,,,,,,0,,69,100
136256,note_on,,0,0,2,,,,,,,,,,1,,50,0
136256,note_on,,320,0,2,,,,,,,,,,1,,54,0
136320,note_on,,64,0,2,,,,,,,,,,1,,55,100
136320,note_on,,0,0,1,,,,,,,,,,0,,70,100
136320,note_on,,0,0,1,,,,,,,,,,0,,72,0
136320,note_on,,192,0,1,,,,,,,,,,0,,69,0
136320,note_on,,0,0,1,,,,,,,,,,0,,62,100
136512,note_on,,192,0,1,,,,,,,,,,0,,62,0
136512,note_on,,0,0,1,,,,,,,,,,0,,70,0
136512,note_on,,0,0,1,,,,,,,,,,0,,63,100
136512,note_on,,192,0,2,,,,,,,,,,1,,55,0
136512,note_on,,0,0,2,,,,,,,,,,1,,48,100
136512,note_on,,0,0,1,,,,,,,,,,0,,69,100
136700,note_on,,0,0,1,,,,,,,,,,0,,69,0
136700,note_on,,188,0,1,,,,,,,,,,0,,63,0
136704,note_on,,0,0,2,,,,,,,,,,1,,50,100
136704,note_on,,4,0,1,,,,,,,,,,0,,70,100
136704,note_on,,0,0,1,,,,,,,,,,0,,62,100
136704,note_on,,192,0,2,,,,,,,,,,1,,48,0
136892,note_on,,188,0,1,,,,,,,,,,0,,62,0
136896,note_on,,4,0,1,,,,,,,,,,0,,67,100
137024,note_on,,128,0,1,,,,,,,,,,0,,70,0
137084,note_on,,60,0,1,,,,,,,,,,0,,67,0
137088,note_on,,0,0,1,,,,,,,,,,0,,66,100
137088,note_on,,0,0,2,,,,,,,,,,1,,38,100
137088,note_on,,384,0,2,,,,,,,,,,1,,50,0
137088,note_on,,4,0,1,,,,,,,,,,0,,69,100
137276,note_on,,188,0,1,,,,,,,,,,0,,66,0
137280,note_on,,4,0,1,,,,,,,,,,0,,60,100
137408,note_on,,128,0,1,,,,,,,,,,0,,69,0
137408,note_on,,320,0,2,,,,,,,,,,1,,38,0
137472,note_on,,0,0,1,,,,,,,,,,0,,67,100
137472,note_on,,64,0,1,,,,,,,,,,0,,62,100
137472,note_on,,64,0,2,,,,,,,,,,1,,43,100
137660,note_on,,188,0,1,,,,,,,,,,0,,60,0
137664,note_on,,4,0,1,,,,,,,,,,0,,60,100
137856,note_on,,192,0,1,,,,,,,,,,0,,60,0
137856,note_on,,0,0,1,,,,,,,,,,0,,58,100
138144,note_on,,0,0,1,,,,,,,,,,0,,57,100
138144,note_on,,288,0,1,,,,,,,,,,0,,58,0
138236,note_on,,92,0,1,,,,,,,,,,0,,57,0
138240,note_on,,768,0,2,,,,,,,,,,1,,55,100
138432,note_on,,192,0,2,,,,,,,,,,1,,55,0
138432,note_on,,0,0,2,,,,,,,,,,1,,50,100
138528,note_on,,292,0,1,,,,,,,,,,0,,67,0
138528,note_on,,96,0,2,,,,,,,,,,1,,43,0
138528,note_on,,0,0,1,,,,,,,,,,0,,62,0
138620,note_on,,92,0,2,,,,,,,,,,1,,50,0
138624,note_on,,96,0,1,,,,,,,,,,0,,70,100
138624,set_tempo,,27648,1,0,,,,,,750000,,,,,,,
138624,note_on,,4,0,2,,,,,,,,,,1,,55,100
138716,note_on,,92,0,1,,,,,,,,,,0,,70,0
138720,note_on,,4,0,1,,,,,,,,,,0,,72,100
138812,note_on,,92,0,1,,,,,,,,,,0,,72,0
138816,note_on,,192,0,2,,,,,,,,,,1,,58,100
138816,note_on,,4,0,1,,,,,,,,,,0,,74,100
138908,note_on,,92,0,1,,,,,,,,,,0,,74,0
138912,note_on,,4,0,1,,,,,,,,,,0,,72,100
139004,note_on,,188,0,2,,,,,,,,,,1,,58,0
139004,note_on,,92,0,1,,,,,,,,,,0,,72,0
139008,note_on,,4,0,2,,,,,,,,,,1,,62,100
139008,note_on,,4,0,1,,,,,,,,,,0,,70,100
139100,note_on,,92,0,1,,,,,,,,,,0,,70,0
139104,note_on,,4,0,1,,,,,,,,,,0,,72,100
139136,note_on,,128,0,2,,,,,,,,,,1,,55,0
139196,note_on,,92,0,1,,,,,,,,,,0,,72,0
139200,note_on,,4,0,1,,,,,,,,,,0,,69,100
139200,note_on,,64,0,2,,,,,,,,,,1,,53,100
139292,note_on,,92,0,1,,,,,,,,,,0,,69,0
139296,note_on,,4,0,1,,,,,,,,,,0,,70,100
139328,note_on,,128,0,2,,,,,,,,,,1,,62,0
139388,note_on,,60,0,2,,,,,,,,,,1,,53,0
139388,note_on,,92,0,1,,,,,,,,,,0,,70,0
139392,note_on,,4,0,2,,,,,,,,,,1,,51,100
139392,note_on,,4,0,1,,,,,,,,,,0,,67,100
139484,note_on,,92,0,1,,,,,,,,,,0,,67,0
139488,note_on,,4,0,1,,,,,,,,,,0,,75,100
139580,note_on,,92,0,1,,,,,,,,,,0,,75,0
139584,note_on,,192,0,2,,,,,,,,,,1,,60,100
139584,note_on,,4,0,1,,,,,,,,,,0,,74,100
139676,note_on,,92,0,1,,,,,,,,,,0,,74,0
139680,note_on,,4,0,1,,,,,,,,,,0,,75,100
139712,note_on,,128,0,2,,,,,,,,,,1,,51,0
139772,note_on,,60,0,2,,,,,,,,,,1,,60,0
139772,note_on,,92,0,1,,,,,,,,,,0,,75,0
139776,note_on,,4,0,1,,,,,,,,,,0,,69,100
139776,note_on,,4,0,2,,,,,,,,,,1,,53,100
139868,note_on,,92,0,1,,,,,,,,,,0,,69,0
139872,note_on,,4,0,1,,,,,,,,,,0,,70,100
139964,note_on,,92,0,1,,,,,,,,,,0,,70,0
139968,note_on,,192,0,2,,,,,,,,,,1,,57,100
139968,note_on,,4,0,1,,,,,,,,,,0,,72,100
140060,note_on,,92,0,1,,,,,,,,,,0,,72,0
140064,note_on,,4,0,1,,,,,,,,,,0,,70,100
140156,note_on,,92,0,1,,,,,,,,,,0,,70,0
140156,note_on,,188,0,2,,,,,,,,,,1,,57,0
140160,note_on,,4,0,2,,,,,,,,,,1,,60,100
140160,note_on,,4,0,1,,,,,,,,,,0,,69,100
140252,note_on,,92,0,1,,,,,,,,,,0,,69,0
140256,note_on,,4,0,1,,,,,,,,,,0,,70,100
140288,note_on,,128,0,2,,,,,,,,,,1,,53,0
140348,note_on,,92,0,1,,,,,,,,,,0,,70,0
140352,note_on,,64,0,2,,,,,,,,,,1,,51,100
140352,note_on,,4,0,1,,,,,,,,,,0,,67,100
140444,note_on,,92,0,1,,,,,,,,,,0,,67,0
140448,note_on,,4,0,1,,,,,,,,,,0,,69,100
140480,note_on,,128,0,2,,,,,,,,,,1,,60,0
140540,note_on,,60,0,2,,,,,,,,,,1,,51,0
140540,note_on,,92,0,1,,,,,,,,,,0,,69,0
140544,note_on,,4,0,2,,,,,,,,,,1,,50,100
140544,note_on,,4,0,1,,,,,,,,,,0,,65,100
140636,note_on,,92,0,1,,,,,,,,,,0,,65,0
140640,note_on,,4,0,1,,,,,,,,,,0,,74,100
140732,note_on,,92,0,1,,,,,,,,,,0,,74,0
140736,note_on,,192,0,2,,,,,,,,,,1,,58,100
140736,note_on,,4,0,1,,,,,,,,,,0,,72,100
140828,note_on,,92,0,1,,,,,,,,,,0,,72,0
140832,note_on,,4,0,1,,,,,,,,,,0,,74,100
140864,note_on,,128,0,2,,,,,,,,,,1,,50,0
140924,note_on,,60,0,2,,,,,,,,,,1,,58,0
140924,note_on,,92,0,1,,,,,,,,,,0,,74,0
140928,note_on,,4,0,2,,,,,,,,,,1,,51,100
140928,note_on,,4,0,1,,,,,,,,,,0,,67,100
141020,note_on,,92,0,1,,,,,,,,,,0,,67,0
141024,note_on,,4,0,1,,,,,,,,,,0,,69,100
141116,note_on,,92,0,1,,,,,,,,,,0,,69,0
141120,note_on,,192,0,2,,,,,,,,,,1,,55,100
141120,note_on,,4,0,1,,,,,,,,,,0,,70,100
141212,note_on,,92,0,1,,,,,,,,,,0,,70,0
141216,note_on,,4,0,1,,,,,,,,,,0,,69,100
141308,note_on,,92,0,1,,,,,,,,,,0,,69,0
141308,note_on,,188,0,2,,,,,,,,,,1,,55,0
141312,note_on,,4,0,1,,,,,,,,,,0,,67,100
141312,note_on,,4,0,2,,,,,,,,,,1,,58,100
141404,note_on,,92,0,1,,,,,,,,,,0,,67,0
141408,note_on,,4,0,1,,,,,,,,,,0,,69,100
141440,note_on,,128,0,2,,,,,,,,,,1,,51,0
141500,note_on,,92,0,1,,,,,,,,,,0,,69,0
141504,note_on,,4,0,1,,,,,,,,,,0,,66,100
141504,note_on,,64,0,2,,,,,,,,,,1,,50,100
141596,note_on,,92,0,1,,,,,,,,,,0,,66,0
141600,note_on,,4,0,1,,,,,,,,,,0,,67,100
141632,note_on,,128,0,2,,,,,,,,,,1,,58,0
141692,note_on,,60,0,2,,,,,,,,,,1,,50,0
141692,note_on,,92,0,1,,,,,,,,,,0,,67,0
141696,note_on,,4,0,1,,,,,,,,,,0,,69,100
141696,note_on,,4,0,2,,,,,,,,,,1,,48,100
141788,note_on,,92,0,1,,,,,,,,,,0,,69,0
141792,note_on,,4,0,1,,,,,,,,,,0,,72,100
141884,note_on,,92,0,1,,,,,,,,,,0,,72,0
141888,note_on,,192,0,2,,,,,,,,,,1,,57,100
141888,note_on,,4,0,1,,,,,,,,,,0,,70,100
141980,note_on,,92,0,1,,,,,,,,,,0,,70,0
141984,note_on,,4,0,1,,,,,,,,,,0,,72,100
142016,note_on,,128,0,2,,,,,,,,,,1,,48,0
142076,note_on,,60,0,2,,,,,,,,,,1,,57,0
142076,note_on,,92,0,1,,,,,,,,,,0,,72,0
142080,note_on,,4,0,1,,,,,,,,,,0,,66,100
142080,note_on,,4,0,2,,,,,,,,,,1,,50,100
142172,note_on,,92,0,1,,,,,,,,,,0,,66,0
142176,note_on,,4,0,1,,,,,,,,,,0,,67,100
142268,note_on,,92,0,1,,,,,,,,,,0,,67,0
142272,note_on,,4,0,1,,,,,,,,,,0,,69,100
142272,note_on,,192,0,2,,,,,,,,,,1,,54,100
142364,note_on,,92,0,1,,,,,,,,,,0,,69,0
142368,note_on,,4,0,1,,,,,,,,,,0,,67,100
142460,note_on,,92,0,1,,,,,,,,,,0,,67,0
142460,note_on,,188,0,2,,,,,,,,,,1,,54,0
142464,note_on,,4,0,2,,,,,,,,,,1,,57,100
142464,note_on,,4,0,1,,,,,,,,,,0,,66,100
142556,note_on,,92,0,1,,,,,,,,,,0,,66,0
142560,note_on,,4,0,1,,,,,,,,,,0,,67,100
142592,note_on,,128,0,2,,,,,,,,,,1,,50,0
142652,note_on,,92,0,1,,,,,,,,,,0,,67,0
142656,note_on,,4,0,1,,,,,,,,,,0,,64,100
142656,note_on,,64,0,2,,,,,,,,,,1,,48,100
142748,note_on,,92,0,1,,,,,,,,,,0,,64,0
142752,note_on,,4,0,1,,,,,,,,,,0,,66,100
142784,note_on,,128,0,2,,,,,,,,,,1,,57,0
142844,note_on,,92,0,1,,,,,,,,,,0,,66,0
142844,note_on,,60,0,2,,,,,,,,,,1,,48,0
142848,note_on,,4,0,1,,,,,,,,,,0,,62,100
142848,note_on,,4,0,2,,,,,,,,,,1,,46,100
142940,note_on,,92,0,1,,,,,,,,,,0,,62,0
142944,note_on,,4,0,1,,,,,,,,,,0,,79,100
143036,note_on,,92,0,1,,,,,,,,,,0,,79,0
143040,note_on,,4,0,1,,,,,,,,,,0,,78,100
143040,note_on,,192,0,2,,,,,,,,,,1,,50,100
143132,note_on,,92,0,1,,,,,,,,,,0,,78,0
143136,note_on,,4,0,1,,,,,,,,,,0,,79,100
143168,note_on,,128,0,2,,,,,,,,,,1,,46,0
143228,note_on,,92,0,1,,,,,,,,,,0,,79,0
143228,note_on,,60,0,2,,,,,,,,,,1,,50,0
143232,note_on,,4,0,1,,,,,,,,,,0,,69,100
143232,note_on,,4,0,2,,,,,,,,,,1,,48,100
143324,note_on,,92,0,1,,,,,,,,,,0,,69,0
143328,note_on,,4,0,1,,,,,,,,,,0,,79,100
143420,note_on,,92,0,1,,,,,,,,,,0,,79,0
143424,note_on,,4,0,1,,,,,,,,,,0,,78,100
143424,note_on,,192,0,2,,,,,,,,,,1,,51,100
143516,note_on,,92,0,1,,,,,,,,,,0,,78,0
143520,note_on,,4,0,1,,,,,,,,,,0,,79,100
143552,note_on,,128,0,2,,,,,,,,,,1,,48,0
143612,note_on,,92,0,1,,,,,,,,,,0,,79,0
143612,note_on,,60,0,2,,,,,,,,,,1,,51,0
143616,note_on,,4,0,2,,,,,,,,,,1,,57,100
143616,note_on,,4,0,1,,,,,,,,,,0,,69,100
143708,note_on,,92,0,1,,,,,,,,,,0,,69,0
143712,note_on,,4,0,1,,,,,,,,,,0,,79,100
143804,note_on,,92,0,1,,,,,,,,,,0,,79,0
143808,note_on,,192,0,2,,,,,,,,,,1,,60,100
143808,note_on,,4,0,1,,,,,,,,,,0,,78,100
143900,note_on,,92,0,1,,,,,,,,,,0,,78,0
143904,note_on,,4,0,1,,,,,,,,,,0,,79,100
143936,note_on,,128,0,2,,,,,,,,,,1,,57,0
143996,note_on,,60,0,2,,,,,,,,,,1,,60,0
143996,note_on,,92,0,1,,,,,,,,,,0,,79,0
144000,note_on,,4,0,2,,,,,,,,,,1,,50,100
144000,note_on,,4,0,1,,,,,,,,,,0,,70,100
144092,note_on,,92,0,1,,,,,,,,,,0,,70,0
144096,note_on,,4,0,1,,,,,,,,,,0,,79,100
144188,note_on,,92,0,1,,,,,,,,,,0,,79,0
144192,note_on,,4,0,1,,,,,,,,,,0,,74,100
144192,note_on,,192,0,2,,,,,,,,,,1,,58,100
144284,note_on,,92,0,1,,,,,,,,,,0,,74,0
144288,note_on,,4,0,1,,,,,,,,,,0,,79,100
144320,note_on,,128,0,2,,,,,,,,,,1,,50,0
144380,note_on,,60,0,2,,,,,,,,,,1,,58,0
144380,note_on,,92,0,1,,,,,,,,,,0,,79,0
144384,note_on,,4,0,2,,,,,,,,,,1,,51,100
144384,note_on,,4,0,1,,,,,,,,,,0,,72,100
144476,note_on,,92,0,1,,,,,,,,,,0,,72,0
144480,note_on,,4,0,1,,,,,,,,,,0,,79,100
144572,note_on,,92,0,1,,,,,,,,,,0,,79,0
144576,note_on,,4,0,1,,,,,,,,,,0,,78,100
144576,note_on,,192,0,2,,,,,,,,,,1,,60,100
144668,note_on,,92,0,1,,,,,,,,,,0,,78,0
144672,note_on,,4,0,1,,,,,,,,,,0,,79,100
144704,note_on,,128,0,2,,,,,,,,,,1,,51,0
144764,note_on,,92,0,1,,,,,,,,,,0,,79,0
144764,note_on,,60,0,2,,,,,,,,,,1,,60,0
144768,note_on,,4,0,1,,,,,,,,,,0,,74,100
144768,note_on,,4,0,2,,,,,,,,,,1,,50,100
144860,note_on,,92,0,1,,,,,,,,,,0,,74,0
144864,note_on,,4,0,1,,,,,,,,,,0,,79,100
144956,note_on,,92,0,1,,,,,,,,,,0,,79,0
144960,note_on,,4,0,1,,,,,,,,,,0,,78,100
144960,note_on,,192,0,2,,,,,,,,,,1,,58,100
145052,note_on,,92,0,1,,,,,,,,,,0,,78,0
145056,note_on,,4,0,1,,,,,,,,,,0,,79,100
145088,note_on,,128,0,2,,,,,,,,,,1,,50,0
145148,note_on,,60,0,2,,,,,,,,,,1,,58,0
145148,note_on,,92,0,1,,,,,,,,,,0,,79,0
145152,note_on,,4,0,2,,,,,,,,,,1,,48,100
145152,note_on,,4,0,1,,,,,,,,,,0,,75,100
145244,note_on,,92,0,1,,,,,,,,,,0,,75,0
145248,note_on,,4,0,1,,,,,,,,,,0,,79,100
145340,note_on,,92,0,1,,,,,,,,,,0,,79,0
145344,note_on,,192,0,2,,,,,,,,,,1,,57,100
145344,note_on,,4,0,1,,,,,,,,,,0,,78,100
145436,note_on,,92,0,1,,,,,,,,,,0,,78,0
145440,note_on,,4,0,1,,,,,,,,,,0,,79,100
145472,note_on,,128,0,2,,,,,,,,,,1,,48,0
145532,note_on,,60,0,2,,,,,,,,,,1,,57,0
145532,note_on,,92,0,1,,,,,,,,,,0,,79,0
145536,note_on,,4,0,2,,,,,,,,,,1,,46,100
145536,note_on,,4,0,1,,,,,,,,,,0,,74,100
145628,note_on,,92,0,1,,,,,,,,,,0,,74,0
145632,note_on,,4,0,1,,,,,,,,,,0,,79,100
145724,note_on,,92,0,1,,,,,,,,,,0,,79,0
145728,note_on,,192,0,2,,,,,,,,,,1,,55,100
145728,note_on,,4,0,1,,,,,,,,,,0,,78,100
145820,note_on,,92,0,1,,,,,,,,,,0,,78,0
145824,note_on,,4,0,1,,,,,,,,,,0,,79,100
145856,note_on,,128,0,2,,,,,,,,,,1,,46,0
145916,note_on,,92,0,1,,,,,,,,,,0,,79,0
145916,note_on,,60,0,2,,,,,,,,,,1,,55,0
145920,note_on,,4,0,1,,,,,,,,,,0,,72,100
145920,note_on,,4,0,2,,,,,,,,,,1,,45,100
146012,note_on,,92,0,1,,,,,,,,,,0,,72,0
146016,note_on,,4,0,1,,,,,,,,,,0,,79,100
146108,note_on,,92,0,1,,,,,,,,,,0,,79,0
146108,note_on,,188,0,2,,,,,,,,,,1,,45,0
146112,note_on,,4,0,1,,,,,,,,,,0,,70,100
146112,note_on,,4,0,2,,,,,,,,,,1,,43,100
146204,note_on,,92,0,1,,,,,,,,,,0,,70,0
146208,note_on,,4,0,1,,,,,,,,,,0,,79,100
146300,note_on,,92,0,1,,,,,,,,,,0,,79,0
146300,note_on,,188,0,2,,,,,,,,,,1,,43,0
146304,note_on,,4,0,1,,,,,,,,,,0,,69,100
146304,note_on,,4,0,2,,,,,,,,,,1,,50,100
146396,note_on,,92,0,1,,,,,,,,,,0,,69,0
146400,note_on,,4,0,1,,,,,,,,,,0,,79,100
146492,note_on,,92,0,1,,,,,,,,,,0,,79,0
146492,note_on,,188,0,2,,,,,,,,,,1,,50,0
146496,note_on,,4,0,1,,,,,,,,,,0,,74,100
146496,note_on,,4,0,2,,,,,,,,,,1,,38,100
146588,note_on,,92,0,1,,,,,,,,,,0,,74,0
146592,note_on,,4,0,1,,,,,,,,,,0,,78,100
146684,note_on,,92,0,1,,,,,,,,,,0,,78,0
146684,note_on,,188,0,2,,,,,,,,,,1,,38,0
146688,note_on,,4,0,2,,,,,,,,,,1,,43,100
146688,note_on,,4,0,1,,,,,,,,,,0,,79,100
146780,note_on,,92,0,1,,,,,,,,,,0,,79,0
146784,note_on,,4,0,1,,,,,,,,,,0,,74,100
146876,note_on,,92,0,1,,,,,,,,,,0,,74,0
146880,note_on,,4,0,1,,,,,,,,,,0,,72,100
146972,note_on,,92,0,1,,,,,,,,,,0,,72,0
146976,note_on,,4,0,1,,,,,,,,,,0,,74,100
147068,note_on,,92,0,1,,,,,,,,,,0,,74,0
147072,note_on,,4,0,1,,,,,,,,,,0,,70,100
147164,note_on,,92,0,1,,,,,,,,,,0,,70,0
147168,note_on,,4,0,1,,,,,,,,,,0,,72,100
147260,note_on,,92,0,1,,,,,,,,,,0,,72,0
147264,note_on,,4,0,1,,,,,,,,,,0,,69,100
147356,note_on,,92,0,1,,,,,,,,,,0,,69,0
147360,note_on,,4,0,1,,,,,,,,,,0,,70,100
147360,note_on,,672,0,2,,,,,,,,,,1,,43,0
147452,note_on,,92,0,1,,,,,,,,,,0,,70,0
147456,note_on,,4,0,1,,,,,,,,,,0,,67,100
147548,note_on,,92,0,1,,,,,,,,,,0,,67,0
147552,note_on,,4,0,1,,,,,,,,,,0,,69,100
147552,note_on,,192,0,2,,,,,,,,,,1,,62,100
147644,note_on,,92,0,2,,,,,,,,,,1,,62,0
147644,note_on,,92,0,1,,,,,,,,,,0,,69,0
147648,note_on,,4,0,1,,,,,,,,,,0,,70,100
147648,note_on,,4,0,2,,,,,,,,,,1,,60,100
147740,note_on,,92,0,1,,,,,,,,,,0,,70,0
147740,note_on,,92,0,2,,,,,,,,,,1,,60,0
147744,note_on,,4,0,1,,,,,,,,,,0,,72,100
147744,note_on,,4,0,2,,,,,,,,,,1,,62,100
147836,note_on,,92,0,2,,,,,,,,,,1,,62,0
147836,note_on,,92,0,1,,,,,,,,,,0,,72,0
147840,note_on,,4,0,1,,,,,,,,,,0,,70,100
147840,set_tempo,,9216,1,0,,,,,,714286,,,,,,,
147840,note_on,,4,0,2,,,,,,,,,,1,,55,100
147932,note_on,,92,0,2,,,,,,,,,,1,,55,0
147936,note_on,,4,0,2,,,,,,,,,,1,,62,100
148028,note_on,,92,0,2,,,,,,,,,,1,,62,0
148028,note_on,,188,0,1,,,,,,,,,,0,,70,0
148032,note_on,,4,0,1,,,,,,,,,,0,,67,100
148032,note_on,,4,0,2,,,,,,,,,,1,,60,100
148124,note_on,,92,0,2,,,,,,,,,,1,,60,0
148128,note_on,,4,0,2,,,,,,,,,,1,,62,100
148220,note_on,,188,0,1,,,,,,,,,,0,,67,0
148220,note_on,,92,0,2,,,,,,,,,,1,,62,0
148224,note_on,,4,0,1,,,,,,,,,,0,,74,100
148224,note_on,,4,0,2,,,,,,,,,,1,,58,100
148316,note_on,,92,0,2,,,,,,,,,,1,,58,0
148320,note_on,,4,0,2,,,,,,,,,,1,,62,100
148412,note_on,,188,0,1,,,,,,,,,,0,,74,0
148412,note_on,,92,0,2,,,,,,,,,,1,,62,0
148416,note_on,,4,0,2,,,,,,,,,,1,,55,100
148416,note_on,,4,0,1,,,,,,,,,,0,,70,100
148508,note_on,,92,0,2,,,,,,,,,,1,,55,0
148512,note_on,,4,0,2,,,,,,,,,,1,,58,100
148604,note_on,,188,0,1,,,,,,,,,,0,,70,0
148604,note_on,,92,0,2,,,,,,,,,,1,,58,0
148608,note_on,,4,0,1,,,,,,,,,,0,,79,100
148608,note_on,,4,0,2,,,,,,,,,,1,,51,100
148700,note_on,,92,0,2,,,,,,,,,,1,,51,0
148704,note_on,,4,0,2,,,,,,,,,,1,,60,100
148796,note_on,,92,0,2,,,,,,,,,,1,,60,0
148796,note_on,,188,0,1,,,,,,,,,,0,,79,0
148800,note_on,,4,0,1,,,,,,,,,,0,,75,100
148800,note_on,,4,0,2,,,,,,,,,,1,,58,100
148892,note_on,,92,0,2,,,,,,,,,,1,,58,0
148896,note_on,,4,0,2,,,,,,,,,,1,,60,100
148988,note_on,,92,0,2,,,,,,,,,,1,,60,0
148988,note_on,,188,0,1,,,,,,,,,,0,,75,0
148992,note_on,,4,0,1,,,,,,,,,,0,,69,100
148992,note_on,,4,0,2,,,,,,,,,,1,,53,100
149084,note_on,,92,0,2,,,,,,,,,,1,,53,0
149088,note_on,,4,0,2,,,,,,,,,,1,,60,100
149180,note_on,,188,0,1,,,,,,,,,,0,,69,0
149180,note_on,,92,0,2,,,,,,,,,,1,,60,0
149184,note_on,,4,0,1,,,,,,,,,,0,,65,100
149184,note_on,,4,0,2,,,,,,,,,,1,,58,100
149276,note_on,,92,0,2,,,,,,,,,,1,,58,0
149280,note_on,,4,0,2,,,,,,,,,,1,,60,100
149372,note_on,,188,0,1,,,,,,,,,,0,,65,0
149372,note_on,,92,0,2,,,,,,,,,,1,,60,0
149376,note_on,,4,0,1,,,,,,,,,,0,,72,100
149376,note_on,,4,0,2,,,,,,,,,,1,,57,100
149468,note_on,,92,0,2,,,,,,,,,,1,,57,0
149472,note_on,,4,0,2,,,,,,,,,,1,,60,100
149564,note_on,,92,0,2,,,,,,,,,,1,,60,0
149564,note_on,,188,0,1,,,,,,,,,,0,,72,0
149568,note_on,,4,0,1,,,,,,,,,,0,,69,100
149568,note_on,,4,0,2,,,,,,,,,,1,,53,100
149660,note_on,,92,0,2,,,,,,,,,,1,,53,0
149664,note_on,,4,0,2,,,,,,,,,,1,,57,100
149756,note_on,,188,0,1,,,,,,,,,,0,,69,0
149756,note_on,,92,0,2,,,,,,,,,,1,,57,0
149760,note_on,,4,0,2,,,,,,,,,,1,,50,100
149760,note_on,,4,0,1,,,,,,,,,,0,,77,100
149852,note_on,,92,0,2,,,,,,,,,,1,,50,0
149856,note_on,,4,0,2,,,,,,,,,,1,,58,100
149948,note_on,,92,0,2,,,,,,,,,,1,,58,0
149948,note_on,,188,0,1,,,,,,,,,,0,,77,0
149952,note_on,,4,0,2,,,,,,,,,,1,,57,100
149952,note_on,,4,0,1,,,,,,,,,,0,,74,100
150044,note_on,,92,0,2,,,,,,,,,,1,,57,0
150048,note_on,,4,0,2,,,,,,,,,,1,,58,100
150140,note_on,,188,0,1,,,,,,,,,,0,,74,0
150140,note_on,,92,0,2,,,,,,,,,,1,,58,0
150144,note_on,,4,0,2,,,,,,,,,,1,,51,100
150144,note_on,,4,0,1,,,,,,,,,,0,,67,100
150236,note_on,,92,0,2,,,,,,,,,,1,,51,0
150240,note_on,,4,0,2,,,,,,,,,,1,,58,100
150332,note_on,,188,0,1,,,,,,,,,,0,,67,0
150332,note_on,,92,0,2,,,,,,,,,,1,,58,0
150336,note_on,,4,0,1,,,,,,,,,,0,,63,100
150336,note_on,,4,0,2,,,,,,,,,,1,,57,100
150428,note_on,,92,0,2,,,,,,,,,,1,,57,0
150432,note_on,,4,0,2,,,,,,,,,,1,,58,100
150524,note_on,,188,0,1,,,,,,,,,,0,,63,0
150524,note_on,,92,0,2,,,,,,,,,,1,,58,0
150528,note_on,,4,0,2,,,,,,,,,,1,,55,100
150528,note_on,,4,0,1,,,,,,,,,,0,,70,100
150620,note_on,,92,0,2,,,,,,,,,,1,,55,0
150624,note_on,,4,0,2,,,,,,,,,,1,,58,100
150716,note_on,,92,0,2,,,,,,,,,,1,,58,0
150716,note_on,,188,0,1,,,,,,,,,,0,,70,0
150720,note_on,,4,0,2,,,,,,,,,,1,,51,100
150720,note_on,,4,0,1,,,,,,,,,,0,,67,100
150812,note_on,,92,0,2,,,,,,,,,,1,,51,0
150816,note_on,,4,0,2,,,,,,,,,,1,,55,100
150908,note_on,,92,0,2,,,,,,,,,,1,,55,0
150908,note_on,,188,0,1,,,,,,,,,,0,,67,0
150912,note_on,,4,0,1,,,,,,,,,,0,,75,100
150912,note_on,,4,0,2,,,,,,,,,,1,,48,100
151004,note_on,,92,0,2,,,,,,,,,,1,,48,0
151008,note_on,,4,0,2,,,,,,,,,,1,,57,100
151100,note_on,,92,0,2,,,,,,,,,,1,,57,0
151100,note_on,,188,0,1,,,,,,,,,,0,,75,0
151104,note_on,,4,0,1,,,,,,,,,,0,,72,100
151104,note_on,,4,0,2,,,,,,,,,,1,,55,100
151196,note_on,,92,0,2,,,,,,,,,,1,,55,0
151200,note_on,,4,0,2,,,,,,,,,,1,,57,100
151292,note_on,,188,0,1,,,,,,,,,,0,,72,0
151292,note_on,,92,0,2,,,,,,,,,,1,,57,0
151296,note_on,,4,0,2,,,,,,,,,,1,,50,100
151296,note_on,,4,0,1,,,,,,,,,,0,,66,100
151388,note_on,,92,0,2,,,,,,,,,,1,,50,0
151392,note_on,,4,0,2,,,,,,,,,,1,,62,100
151484,note_on,,188,0,1,,,,,,,,,,0,,66,0
151484,note_on,,92,0,2,,,,,,,,,,1,,62,0
151488,note_on,,4,0,1,,,,,,,,,,0,,69,100
151488,note_on,,4,0,2,,,,,,,,,,1,,60,100
151580,note_on,,92,0,2,,,,,,,,,,1,,60,0
151584,note_on,,4,0,2,,,,,,,,,,1,,62,100
151676,note_on,,92,0,2,,,,,,,,,,1,,62,0
151676,note_on,,188,0,1,,,,,,,,,,0,,69,0
151680,note_on,,4,0,1,,,,,,,,,,0,,72,100
151680,note_on,,4,0,2,,,,,,,,,,1,,57,100
151772,note_on,,92,0,2,,,,,,,,,,1,,57,0
151776,note_on,,4,0,2,,,,,,,,,,1,,62,100
151868,note_on,,188,0,1,,,,,,,,,,0,,72,0
151868,note_on,,92,0,2,,,,,,,,,,1,,62,0
151872,note_on,,4,0,2,,,,,,,,,,1,,60,100
151872,note_on,,4,0,1,,,,,,,,,,0,,69,100
151964,note_on,,92,0,2,,,,,,,,,,1,,60,0
151968,note_on,,4,0,2,,,,,,,,,,1,,62,100
152060,note_on,,188,0,1,,,,,,,,,,0,,69,0
152060,note_on,,92,0,2,,,,,,,,,,1,,62,0
152064,note_on,,4,0,1,,,,,,,,,,0,,69,100
152064,note_on,,4,0,2,,,,,,,,,,1,,54,100
152064,note_on,,0,0,1,,,,,,,,,,0,,81,100
152156,note_on,,92,0,2,,,,,,,,,,1,,54,0
152160,note_on,,4,0,2,,,,,,,,,,1,,62,100
152252,note_on,,0,0,1,,,,,,,,,,0,,69,0
152252,note_on,,188,0,1,,,,,,,,,,0,,81,0
152252,note_on,,92,0,2,,,,,,,,,,1,,62,0
152256,note_on,,4,0,2,,,,,,,,,,1,,60,100
152256,note_on,,4,0,1,,,,,,,,,,0,,69,100
152256,note_on,,0,0,1,,,,,,,,,,0,,72,100
152348,note_on,,92,0,2,,,,,,,,,,1,,60,0
152352,note_on,,4,0,2,,,,,,,,,,1,,62,100
152444,note_on,,92,0,2,,,,,,,,,,1,,62,0
152444,note_on,,188,0,1,,,,,,,,,,0,,72,0
152444,note_on,,0,0,1,,,,,,,,,,0,,69,0
152448,note_on,,4,0,2,,,,,,,,,,1,,55,100
152448,note_on,,4,0,1,,,,,,,,,,0,,70,100
152540,note_on,,92,0,2,,,,,,,,,,1,,55,0
152544,note_on,,4,0,2,,,,,,,,,,1,,58,100
152636,note_on,,188,0,1,,,,,,,,,,0,,70,0
152636,note_on,,92,0,2,,,,,,,,,,1,,58,0
152640,note_on,,4,0,1,,,,,,,,,,0,,67,100
152640,note_on,,4,0,2,,,,,,,,,,1,,57,100
152640,note_on,,0,0,1,,,,,,,,,,0,,70,100
152732,note_on,,92,0,2,,,,,,,,,,1,,57,0
152736,note_on,,4,0,2,,,,,,,,,,1,,58,100
152828,note_on,,92,0,2,,,,,,,,,,1,,58,0
152828,note_on,,188,0,1,,,,,,,,,,0,,70,0
152828,note_on,,0,0,1,,,,,,,,,,0,,67,0
152832,note_on,,4,0,2,,,,,,,,,,1,,46,100
152832,note_on,,4,0,1,,,,,,,,,,0,,74,100
152924,note_on,,92,0,2,,,,,,,,,,1,,46,0
152928,note_on,,4,0,2,,,,,,,,,,1,,55,100
153020,note_on,,92,0,2,,,,,,,,,,1,,55,0
153020,note_on,,188,0,1,,,,,,,,,,0,,74,0
153024,note_on,,4,0,1,,,,,,,,,,0,,67,100
153024,note_on,,4,0,2,,,,,,,,,,1,,54,100
153116,note_on,,92,0,2,,,,,,,,,,1,,54,0
153120,note_on,,4,0,2,,,,,,,,,,1,,55,100
153212,note_on,,92,0,2,,,,,,,,,,1,,55,0
153212,note_on,,188,0,1,,,,,,,,,,0,,67,0
153216,note_on,,4,0,1,,,,,,,,,,0,,79,100
153216,note_on,,4,0,2,,,,,,,,,,1,,46,100
153308,note_on,,92,0,2,,,,,,,,,,1,,46,0
153312,note_on,,4,0,2,,,,,,,,,,1,,55,100
153404,note_on,,188,0,1,,,,,,,,,,0,,79,0
153404,note_on,,92,0,2,,,,,,,,,,1,,55,0
153408,note_on,,4,0,2,,,,,,,,,,1,,54,100
153408,note_on,,4,0,1,,,,,,,,,,0,,74,100
153500,note_on,,92,0,2,,,,,,,,,,1,,54,0
153504,note_on,,4,0,2,,,,,,,,,,1,,55,100
153596,note_on,,92,0,2,,,,,,,,,,1,,55,0
153596,note_on,,188,0,1,,,,,,,,,,0,,74,0
153600,note_on,,4,0,2,,,,,,,,,,1,,48,100
153600,note_on,,4,0,1,,,,,,,,,,0,,75,100
153692,note_on,,92,0,2,,,,,,,,,,1,,48,0
153696,note_on,,4,0,2,,,,,,,,,,1,,56,100
153788,note_on,,92,0,2,,,,,,,,,,1,,56,0
153788,note_on,,188,0,1,,,,,,,,,,0,,75,0
153792,note_on,,4,0,2,,,,,,,,,,1,,55,100
153792,note_on,,4,0,1,,,,,,,,,,0,,68,100
153884,note_on,,92,0,2,,,,,,,,,,1,,55,0
153888,note_on,,4,0,2,,,,,,,,,,1,,56,100
153980,note_on,,92,0,2,,,,,,,,,,1,,56,0
153980,note_on,,188,0,1,,,,,,,,,,0,,68,0
153984,note_on,,4,0,1,,,,,,,,,,0,,77,100
153984,note_on,,4,0,2,,,,,,,,,,1,,50,100
154076,note_on,,92,0,2,,,,,,,,,,1,,50,0
154080,note_on,,4,0,2,,,,,,,,,,1,,56,100
154172,note_on,,92,0,2,,,,,,,,,,1,,56,0
154172,note_on,,188,0,1,,,,,,,,,,0,,77,0
154176,note_on,,4,0,1,,,,,,,,,,0,,68,100
154176,note_on,,4,0,2,,,,,,,,,,1,,55,100
154268,note_on,,92,0,2,,,,,,,,,,1,,55,0
154272,note_on,,4,0,2,,,,,,,,,,1,,56,100
154364,note_on,,188,0,1,,,,,,,,,,0,,68,0
154364,note_on,,92,0,2,,,,,,,,,,1,,56,0
154368,note_on,,4,0,1,,,,,,,,,,0,,67,100
154368,note_on,,4,0,2,,,,,,,,,,1,,52,100
154460,note_on,,92,0,2,,,,,,,,,,1,,52,0
154464,note_on,,4,0,2,,,,,,,,,,1,,55,100
154556,note_on,,188,0,1,,,,,,,,,,0,,67,0
154556,note_on,,92,0,2,,,,,,,,,,1,,55,0
154560,note_on,,4,0,1,,,,,,,,,,0,,70,100
154560,note_on,,4,0,2,,,,,,,,,,1,,54,100
154652,note_on,,92,0,2,,,,,,,,,,1,,54,0
154656,note_on,,4,0,2,,,,,,,,,,1,,55,100
154748,note_on,,188,0,1,,,,,,,,,,0,,70,0
154748,note_on,,92,0,2,,,,,,,,,,1,,55,0
154752,note_on,,4,0,2,,,,,,,,,,1,,48,100
154752,note_on,,4,0,1,,,,,,,,,,0,,75,100
154844,note_on,,92,0,2,,,,,,,,,,1,,48,0
154848,note_on,,4,0,2,,,,,,,,,,1,,55,100
154940,note_on,,188,0,1,,,,,,,,,,0,,75,0
154940,note_on,,92,0,2,,,,,,,,,,1,,55,0
154944,note_on,,4,0,2,,,,,,,,,,1,,54,100
154944,note_on,,4,0,1,,,,,,,,,,0,,72,100
155036,note_on,,92,0,2,,,,,,,,,,1,,54,0
155040,note_on,,4,0,2,,,,,,,,,,1,,55,100
155132,note_on,,92,0,2,,,,,,,,,,1,,55,0
155132,note_on,,188,0,1,,,,,,,,,,0,,72,0
155136,note_on,,4,0,2,,,,,,,,,,1,,50,100
155136,note_on,,4,0,1,,,,,,,,,,0,,70,100
155228,note_on,,92,0,2,,,,,,,,,,1,,50,0
155232,note_on,,4,0,2,,,,,,,,,,1,,55,100
155324,note_on,,92,0,2,,,,,,,,,,1,,55,0
155324,note_on,,188,0,1,,,,,,,,,,0,,70,0
155328,note_on,,4,0,2,,,,,,,,,,1,,48,100
155328,note_on,,4,0,1,,,,,,,,,,0,,79,100
155420,note_on,,92,0,2,,,,,,,,,,1,,48,0
155424,note_on,,4,0,2,,,,,,,,,,1,,55,100
155516,note_on,,92,0,2,,,,,,,,,,1,,55,0
155516,note_on,,188,0,1,,,,,,,,,,0,,79,0
155520,note_on,,4,0,1,,,,,,,,,,0,,69,100
155520,note_on,,4,0,2,,,,,,,,,,1,,50,100
155612,note_on,,92,0,2,,,,,,,,,,1,,50,0
155616,note_on,,4,0,2,,,,,,,,,,1,,55,100
155708,note_on,,92,0,2,,,,,,,,,,1,,55,0
155708,note_on,,188,0,1,,,,,,,,,,0,,69,0
155712,note_on,,4,0,1,,,,,,,,,,0,,74,100
155712,note_on,,4,0,2,,,,,,,,,,1,,50,100
155804,note_on,,92,0,2,,,,,,,,,,1,,50,0
155808,note_on,,4,0,2,,,,,,,,,,1,,54,100
155900,note_on,,188,0,1,,,,,,,,,,0,,74,0
155900,note_on,,92,0,2,,,,,,,,,,1,,54,0
155904,note_on,,4,0,2,,,,,,,,,,1,,55,100
155904,note_on,,4,0,1,,,,,,,,,,0,,72,100
155996,note_on,,92,0,2,,,,,,,,,,1,,55,0
155996,note_on,,92,0,1,,,,,,,,,,0,,72,0
156000,note_on,,4,0,1,,,,,,,,,,0,,70,100
156000,note_on,,4,0,2,,,,,,,,,,1,,50,100
156044,note_on,,44,0,1,,,,,,,,,,0,,70,0
156048,note_on,,4,0,1,,,,,,,,,,0,,72,100
156092,note_on,,44,0,1,,,,,,,,,,0,,72,0
156092,note_on,,92,0,2,,,,,,,,,,1,,50,0
156096,note_on,,4,0,2,,,,,,,,,,1,,48,100
156096,note_on,,4,0,1,,,,,,,,,,0,,70,100
156188,note_on,,92,0,1,,,,,,,,,,0,,70,0
156188,note_on,,92,0,2,,,,,,,,,,1,,48,0
156192,note_on,,4,0,1,,,,,,,,,,0,,69,100
156192,note_on,,4,0,2,,,,,,,,,,1,,50,100
156284,note_on,,92,0,1,,,,,,,,,,0,,69,0
156284,note_on,,92,0,2,,,,,,,,,,1,,50,0
156288,note_on,,4,0,2,,,,,,,,,,1,,46,100
156288,note_on,,4,0,1,,,,,,,,,,0,,67,100
156380,note_on,,92,0,2,,,,,,,,,,1,,46,0
156384,note_on,,4,0,2,,,,,,,,,,1,,50,100
156476,note_on,,92,0,2,,,,,,,,,,1,,50,0
156480,note_on,,4,0,2,,,,,,,,,,1,,48,100
156572,note_on,,92,0,2,,,,,,,,,,1,,48,0
156576,note_on,,4,0,2,,,,,,,,,,1,,50,100
156668,note_on,,92,0,2,,,,,,,,,,1,,50,0
156672,note_on,,4,0,2,,,,,,,,,,1,,43,100
156764,note_on,,92,0,2,,,,,,,,,,1,,43,0
156768,note_on,,4,0,2,,,,,,,,,,1,,50,100
156860,note_on,,92,0,2,,,,,,,,,,1,,50,0
156864,note_on,,4,0,2,,,,,,,,,,1,,52,100
156956,note_on,,92,0,2,,,,,,,,,,1,,52,0
156960,note_on,,4,0,2,,,,,,,,,,1,,54,100
156960,note_on,,672,0,1,,,,,,,,,,0,,67,0
157052,note_on,,92,0,2,,,,,,,,,,1,,54,0
157056,note_on,,4,0,2,,,,,,,,,,1,,55,100
157056,note_on,,96,0,1,,,,,,,,,,0,,70,100
157056,set_tempo,,9216,1,0,,,,,,638298,,,,,,,
157148,note_on,,92,0,1,,,,,,,,,,0,,70,0
157148,note_on,,92,0,2,,,,,,,,,,1,,55,0
157152,note_on,,4,0,2,,,,,,,,,,1,,58,100
157152,note_on,,4,0,1,,,,,,,,,,0,,74,100
157244,note_on,,92,0,1,,,,,,,,,,0,,74,0
157244,note_on,,92,0,2,,,,,,,,,,1,,58,0
157248,note_on,,4,0,1,,,,,,,,,,0,,72,100
157248,note_on,,4,0,2,,,,,,,,,,1,,57,100
157340,note_on,,92,0,1,,,,,,,,,,0,,72,0
157340,note_on,,92,0,2,,,,,,,,,,1,,57,0
157344,note_on,,4,0,2,,,,,,,,,,1,,58,100
157344,note_on,,4,0,1,,,,,,,,,,0,,74,100
157436,note_on,,92,0,1,,,,,,,,,,0,,74,0
157436,note_on,,92,0,2,,,,,,,,,,1,,58,0
157440,note_on,,4,0,2,,,,,,,,,,1,,55,100
157440,note_on,,4,0,1,,,,,,,,,,0,,70,100
157532,note_on,,92,0,2,,,,,,,,,,1,,55,0
157532,note_on,,92,0,1,,,,,,,,,,0,,70,0
157536,note_on,,4,0,1,,,,,,,,,,0,,74,100
157536,note_on,,4,0,2,,,,,,,,,,1,,58,100
157628,note_on,,92,0,1,,,,,,,,,,0,,74,0
157628,note_on,,92,0,2,,,,,,,,,,1,,58,0
157632,note_on,,4,0,1,,,,,,,,,,0,,67,100
157632,note_on,,4,0,2,,,,,,,,,,1,,51,100
157724,note_on,,92,0,1,,,,,,,,,,0,,67,0
157724,note_on,,92,0,2,,,,,,,,,,1,,51,0
157728,note_on,,4,0,1,,,,,,,,,,0,,70,100
157728,note_on,,4,0,2,,,,,,,,,,1,,55,100
157820,note_on,,92,0,1,,,,,,,,,,0,,70,0
157820,note_on,,92,0,2,,,,,,,,,,1,,55,0
157824,note_on,,4,0,1,,,,,,,,,,0,,63,100
157824,note_on,,4,0,2,,,,,,,,,,1,,48,100
157916,note_on,,92,0,1,,,,,,,,,,0,,63,0
157916,note_on,,92,0,2,,,,,,,,,,1,,48,0
157920,note_on,,4,0,2,,,,,,,,,,1,,60,100
157920,note_on,,4,0,1,,,,,,,,,,0,,75,100
158012,note_on,,92,0,2,,,,,,,,,,1,,60,0
158012,note_on,,92,0,1,,,,,,,,,,0,,75,0
158016,note_on,,4,0,2,,,,,,,,,,1,,58,100
158016,note_on,,4,0,1,,,,,,,,,,0,,74,100
158108,note_on,,92,0,2,,,,,,,,,,1,,58,0
158108,note_on,,92,0,1,,,,,,,,,,0,,74,0
158112,note_on,,4,0,2,,,,,,,,,,1,,60,100
158112,note_on,,4,0,1,,,,,,,,,,0,,75,100
158204,note_on,,92,0,2,,,,,,,,,,1,,60,0
158204,note_on,,92,0,1,,,,,,,,,,0,,75,0
158208,note_on,,4,0,2,,,,,,,,,,1,,53,100
158208,note_on,,4,0,1,,,,,,,,,,0,,69,100
158300,note_on,,92,0,1,,,,,,,,,,0,,69,0
158300,note_on,,92,0,2,,,,,,,,,,1,,53,0
158304,note_on,,4,0,1,,,,,,,,,,0,,72,100
158304,note_on,,4,0,2,,,,,,,,,,1,,57,100
158396,note_on,,92,0,2,,,,,,,,,,1,,57,0
158396,note_on,,92,0,1,,,,,,,,,,0,,72,0
158400,note_on,,4,0,1,,,,,,,,,,0,,70,100
158400,note_on,,4,0,2,,,,,,,,,,1,,55,100
158492,note_on,,92,0,1,,,,,,,,,,0,,70,0
158492,note_on,,92,0,2,,,,,,,,,,1,,55,0
158496,note_on,,4,0,2,,,,,,,,,,1,,57,100
158496,note_on,,4,0,1,,,,,,,,,,0,,72,100
158588,note_on,,92,0,2,,,,,,,,,,1,,57,0
158588,note_on,,92,0,1,,,,,,,,,,0,,72,0
158592,note_on,,4,0,2,,,,,,,,,,1,,53,100
158592,note_on,,4,0,1,,,,,,,,,,0,,69,100
158684,note_on,,92,0,1,,,,,,,,,,0,,69,0
158684,note_on,,92,0,2,,,,,,,,,,1,,53,0
158688,note_on,,4,0,2,,,,,,,,,,1,,57,100
158688,note_on,,4,0,1,,,,,,,,,,0,,72,100
158780,note_on,,92,0,2,,,,,,,,,,1,,57,0
158780,note_on,,92,0,1,,,,,,,,,,0,,72,0
158784,note_on,,4,0,2,,,,,,,,,,1,,50,100
158784,note_on,,4,0,1,,,,,,,,,,0,,65,100
158876,note_on,,92,0,2,,,,,,,,,,1,,50,0
158876,note_on,,92,0,1,,,,,,,,,,0,,65,0
158880,note_on,,4,0,2,,,,,,,,,,1,,53,100
158880,note_on,,4,0,1,,,,,,,,,,0,,69,100
158972,note_on,,92,0,2,,,,,,,,,,1,,53,0
158972,note_on,,92,0,1,,,,,,,,,,0,,69,0
158976,note_on,,4,0,2,,,,,,,,,,1,,46,100
158976,note_on,,4,0,1,,,,,,,,,,0,,62,100
159068,note_on,,92,0,2,,,,,,,,,,1,,46,0
159068,note_on,,92,0,1,,,,,,,,,,0,,62,0
159072,note_on,,4,0,2,,,,,,,,,,1,,58,100
159072,note_on,,4,0,1,,,,,,,,,,0,,74,100
159164,note_on,,92,0,2,,,,,,,,,,1,,58,0
159164,note_on,,92,0,1,,,,,,,,,,0,,74,0
159168,note_on,,4,0,2,,,,,,,,,,1,,57,100
159168,note_on,,4,0,1,,,,,,,,,,0,,72,100
159260,note_on,,92,0,1,,,,,,,,,,0,,72,0
159260,note_on,,92,0,2,,,,,,,,,,1,,57,0
159264,note_on,,4,0,2,,,,,,,,,,1,,58,100
159264,note_on,,4,0,1,,,,,,,,,,0,,74,100
159356,note_on,,92,0,1,,,,,,,,,,0,,74,0
159356,note_on,,92,0,2,,,,,,,,,,1,,58,0
159360,note_on,,4,0,1,,,,,,,,,,0,,67,100
159360,note_on,,4,0,2,,,,,,,,,,1,,51,100
159452,note_on,,92,0,1,,,,,,,,,,0,,67,0
159452,note_on,,92,0,2,,,,,,,,,,1,,51,0
159456,note_on,,4,0,1,,,,,,,,,,0,,70,100
159456,note_on,,4,0,2,,,,,,,,,,1,,55,100
159548,note_on,,92,0,1,,,,,,,,,,0,,70,0
159548,note_on,,92,0,2,,,,,,,,,,1,,55,0
159552,note_on,,4,0,1,,,,,,,,,,0,,69,100
159552,note_on,,4,0,2,,,,,,,,,,1,,53,100
159644,note_on,,92,0,2,,,,,,,,,,1,,53,0
159644,note_on,,92,0,1,,,,,,,,,,0,,69,0
159648,note_on,,4,0,2,,,,,,,,,,1,,55,100
159648,note_on,,4,0,1,,,,,,,,,,0,,70,100
159740,note_on,,92,0,1,,,,,,,,,,0,,70,0
159740,note_on,,92,0,2,,,,,,,,,,1,,55,0
159744,note_on,,4,0,2,,,,,,,,,,1,,51,100
159744,note_on,,4,0,1,,,,,,,,,,0,,67,100
159836,note_on,,92,0,2,,,,,,,,,,1,,51,0
159836,note_on,,92,0,1,,,,,,,,,,0,,67,0
159840,note_on,,4,0,1,,,,,,,,,,0,,70,100
159840,note_on,,4,0,2,,,,,,,,,,1,,55,100
159932,note_on,,92,0,1,,,,,,,,,,0,,70,0
159932,note_on,,92,0,2,,,,,,,,,,1,,55,0
159936,note_on,,4,0,2,,,,,,,,,,1,,48,100
159936,note_on,,4,0,1,,,,,,,,,,0,,63,100
160028,note_on,,92,0,2,,,,,,,,,,1,,48,0
160028,note_on,,92,0,1,,,,,,,,,,0,,63,0
160032,note_on,,4,0,2,,,,,,,,,,1,,51,100
160032,note_on,,4,0,1,,,,,,,,,,0,,67,100
160124,note_on,,92,0,2,,,,,,,,,,1,,51,0
160124,note_on,,92,0,1,,,,,,,,,,0,,67,0
160128,note_on,,4,0,2,,,,,,,,,,1,,45,100
160128,note_on,,4,0,1,,,,,,,,,,0,,60,100
160220,note_on,,92,0,1,,,,,,,,,,0,,60,0
160220,note_on,,92,0,2,,,,,,,,,,1,,45,0
160224,note_on,,4,0,2,,,,,,,,,,1,,57,100
160224,note_on,,4,0,1,,,,,,,,,,0,,72,100
160316,note_on,,92,0,1,,,,,,,,,,0,,72,0
160316,note_on,,92,0,2,,,,,,,,,,1,,57,0
160320,note_on,,4,0,1,,,,,,,,,,0,,70,100
160320,note_on,,4,0,2,,,,,,,,,,1,,55,100
160412,note_on,,92,0,1,,,,,,,,,,0,,70,0
160412,note_on,,92,0,2,,,,,,,,,,1,,55,0
160416,note_on,,4,0,2,,,,,,,,,,1,,57,100
160416,note_on,,4,0,1,,,,,,,,,,0,,72,100
160508,note_on,,92,0,2,,,,,,,,,,1,,57,0
160508,note_on,,92,0,1,,,,,,,,,,0,,72,0
160512,note_on,,4,0,2,,,,,,,,,,1,,50,100
160512,note_on,,4,0,1,,,,,,,,,,0,,66,100
160604,note_on,,92,0,2,,,,,,,,,,1,,50,0
160608,note_on,,4,0,2,,,,,,,,,,1,,57,100
160700,note_on,,92,0,2,,,,,,,,,,1,,57,0
160700,note_on,,188,0,1,,,,,,,,,,0,,66,0
160704,note_on,,4,0,2,,,,,,,,,,1,,55,100
160704,note_on,,4,0,1,,,,,,,,,,0,,62,100
160796,note_on,,92,0,2,,,,,,,,,,1,,55,0
160800,note_on,,4,0,2,,,,,,,,,,1,,57,100
160892,note_on,,92,0,2,,,,,,,,,,1,,57,0
160896,note_on,,4,0,2,,,,,,,,,,1,,54,100
160988,note_on,,92,0,2,,,,,,,,,,1,,54,0
160992,note_on,,4,0,2,,,,,,,,,,1,,62,100
161084,note_on,,380,0,1,,,,,,,,,,0,,62,0
161084,note_on,,92,0,2,,,,,,,,,,1,,62,0
161088,note_on,,4,0,1,,,,,,,,,,0,,69,100
161088,note_on,,4,0,2,,,,,,,,,,1,,60,100
161180,note_on,,92,0,2,,,,,,,,,,1,,60,0
161184,note_on,,4,0,2,,,,,,,,,,1,,62,100
161276,note_on,,92,0,2,,,,,,,,,,1,,62,0
161276,note_on,,188,0,1,,,,,,,,,,0,,69,0
161280,note_on,,4,0,1,,,,,,,,,,0,,74,100
161280,note_on,,4,0,2,,,,,,,,,,1,,58,100
161372,note_on,,92,0,2,,,,,,,,,,1,,58,0
161376,note_on,,4,0,2,,,,,,,,,,1,,62,100
161468,note_on,,188,0,1,,,,,,,,,,0,,74,0
161468,note_on,,92,0,2,,,,,,,,,,1,,62,0
161472,note_on,,4,0,1,,,,,,,,,,0,,72,100
161472,note_on,,4,0,2,,,,,,,,,,1,,57,100
161564,note_on,,92,0,2,,,,,,,,,,1,,57,0
161568,note_on,,4,0,2,,,,,,,,,,1,,62,100
161660,note_on,,188,0,1,,,,,,,,,,0,,72,0
161660,note_on,,92,0,2,,,,,,,,,,1,,62,0
161664,note_on,,4,0,1,,,,,,,,,,0,,70,100
161664,note_on,,4,0,2,,,,,,,,,,1,,55,100
161756,note_on,,92,0,1,,,,,,,,,,0,,70,0
161760,note_on,,4,0,1,,,,,,,,,,0,,74,100
161852,note_on,,188,0,2,,,,,,,,,,1,,55,0
161852,note_on,,92,0,1,,,,,,,,,,0,,74,0
161856,note_on,,4,0,1,,,,,,,,,,0,,72,100
161856,note_on,,4,0,2,,,,,,,,,,1,,43,100
161948,note_on,,92,0,1,,,,,,,,,,0,,72,0
161952,note_on,,4,0,1,,,,,,,,,,0,,74,100
162044,note_on,,188,0,2,,,,,,,,,,1,,43,0
162044,note_on,,92,0,1,,,,,,,,,,0,,74,0
162048,note_on,,4,0,1,,,,,,,,,,0,,70,100
162048,note_on,,4,0,2,,,,,,,,,,1,,46,100
162140,note_on,,92,0,1,,,,,,,,,,0,,70,0
162144,note_on,,4,0,1,,,,,,,,,,0,,74,100
162236,note_on,,188,0,2,,,,,,,,,,1,,46,0
162236,note_on,,92,0,1,,,,,,,,,,0,,74,0
162240,note_on,,4,0,2,,,,,,,,,,1,,53,100
162240,note_on,,4,0,1,,,,,,,,,,0,,68,100
162332,note_on,,92,0,1,,,,,,,,,,0,,68,0
162336,note_on,,4,0,1,,,,,,,,,,0,,74,100
162428,note_on,,188,0,2,,,,,,,,,,1,,53,0
162428,note_on,,92,0,1,,,,,,,,,,0,,74,0
162432,note_on,,4,0,1,,,,,,,,,,0,,67,100
162432,note_on,,4,0,2,,,,,,,,,,1,,47,100
162524,note_on,,92,0,1,,,,,,,,,,0,,67,0
162528,note_on,,4,0,1,,,,,,,,,,0,,74,100
162620,note_on,,92,0,1,,,,,,,,,,0,,74,0
162620,note_on,,188,0,2,,,,,,,,,,1,,47,0
162624,note_on,,4,0,1,,,,,,,,,,0,,65,100
162624,note_on,,4,0,2,,,,,,,,,,1,,55,100
162716,note_on,,92,0,1,,,,,,,,,,0,,65,0
162720,note_on,,4,0,1,,,,,,,,,,0,,74,100
162812,note_on,,92,0,1,,,,,,,,,,0,,74,0
162812,note_on,,188,0,2,,,,,,,,,,1,,55,0
162816,note_on,,4,0,1,,,,,,,,,,0,,63,100
162816,note_on,,4,0,2,,,,,,,,,,1,,48,100
162908,note_on,,92,0,1,,,,,,,,,,0,,63,0
162912,note_on,,4,0,1,,,,,,,,,,0,,74,100
163004,note_on,,92,0,1,,,,,,,,,,0,,74,0
163008,note_on,,192,0,2,,,,,,,,,,1,,58,100
163008,note_on,,4,0,1,,,,,,,,,,0,,63,100
163100,note_on,,92,0,1,,,,,,,,,,0,,63,0
163104,note_on,,4,0,1,,,,,,,,,,0,,74,100
163196,note_on,,92,0,1,,,,,,,,,,0,,74,0
163196,note_on,,188,0,2,,,,,,,,,,1,,58,0
163200,note_on,,4,0,1,,,,,,,,,,0,,63,100
163200,note_on,,4,0,2,,,,,,,,,,1,,56,100
163292,note_on,,92,0,1,,,,,,,,,,0,,63,0
163296,note_on,,4,0,1,,,,,,,,,,0,,72,100
163388,note_on,,92,0,1,,,,,,,,,,0,,72,0
163388,note_on,,188,0,2,,,,,,,,,,1,,56,0
163392,note_on,,4,0,2,,,,,,,,,,1,,55,100
163392,note_on,,4,0,1,,,,,,,,,,0,,63,100
163484,note_on,,92,0,1,,,,,,,,,,0,,63,0
163488,note_on,,4,0,1,,,,,,,,,,0,,72,100
163488,note_on,,96,0,2,,,,,,,,,,1,,48,0
163580,note_on,,92,0,1,,,,,,,,,,0,,72,0
163580,note_on,,92,0,2,,,,,,,,,,1,,55,0
163584,note_on,,4,0,1,,,,,,,,,,0,,62,100
163584,note_on,,4,0,2,,,,,,,,,,1,,50,100
163584,note_on,,0,0,2,,,,,,,,,,1,,54,100
163676,note_on,,92,0,1,,,,,,,,,,0,,62,0
163676,note_on,,92,0,2,,,,,,,,,,1,,54,0
163680,note_on,,4,0,1,,,,,,,,,,0,,72,100
163680,note_on,,4,0,2,,,,,,,,,,1,,57,100
163772,note_on,,92,0,1,,,,,,,,,,0,,72,0
163772,note_on,,92,0,2,,,,,,,,,,1,,57,0
163776,note_on,,4,0,1,,,,,,,,,,0,,70,100
163776,note_on,,4,0,2,,,,,,,,,,1,,55,100
163868,note_on,,92,0,2,,,,,,,,,,1,,55,0
163868,note_on,,92,0,1,,,,,,,,,,0,,70,0
163872,note_on,,4,0,1,,,,,,,,,,0,,69,100
163872,note_on,,4,0,2,,,,,,,,,,1,,54,100
163904,note_on,,32,0,2,,,,,,,,,,1,,50,0
163964,note_on,,92,0,1,,,,,,,,,,0,,69,0
163964,note_on,,60,0,2,,,,,,,,,,1,,54,0
163968,note_on,,4,0,1,,,,,,,,,,0,,70,100
163968,note_on,,4,0,2,,,,,,,,,,1,,55,100
164060,note_on,,92,0,1,,,,,,,,,,0,,70,0
164060,note_on,,92,0,2,,,,,,,,,,1,,55,0
164064,note_on,,4,0,2,,,,,,,,,,1,,45,100
164064,note_on,,4,0,1,,,,,,,,,,0,,66,100
164156,note_on,,92,0,2,,,,,,,,,,1,,45,0
164156,note_on,,92,0,1,,,,,,,,,,0,,66,0
164160,note_on,,4,0,2,,,,,,,,,,1,,46,100
164160,note_on,,4,0,1,,,,,,,,,,0,,67,100
164252,note_on,,92,0,2,,,,,,,,,,1,,46,0
164252,note_on,,92,0,1,,,,,,,,,,0,,67,0
164256,note_on,,4,0,2,,,,,,,,,,1,,48,100
164256,note_on,,4,0,1,,,,,,,,,,0,,69,100
164348,note_on,,92,0,2,,,,,,,,,,1,,48,0
164348,note_on,,92,0,1,,,,,,,,,,0,,69,0
164352,note_on,,4,0,1,,,,,,,,,,0,,58,100
164352,note_on,,4,0,2,,,,,,,,,,1,,50,100
164444,note_on,,92,0,1,,,,,,,,,,0,,58,0
164448,note_on,,4,0,1,,,,,,,,,,0,,67,100
164540,note_on,,188,0,2,,,,,,,,,,1,,50,0
164540,note_on,,92,0,1,,,,,,,,,,0,,67,0
164544,note_on,,4,0,1,,,,,,,,,,0,,66,100
164544,note_on,,4,0,2,,,,,,,,,,1,,48,100
164636,note_on,,92,0,1,,,,,,,,,,0,,66,0
164640,note_on,,4,0,1,,,,,,,,,,0,,64,100
164732,note_on,,92,0,1,,,,,,,,,,0,,64,0
164732,note_on,,188,0,2,,,,,,,,,,1,,48,0
164736,note_on,,4,0,1,,,,,,,,,,0,,66,100
164736,note_on,,4,0,2,,,,,,,,,,1,,50,100
164828,note_on,,92,0,1,,,,,,,,,,0,,66,0
164832,note_on,,4,0,1,,,,,,,,,,0,,67,100
164924,note_on,,188,0,2,,,,,,,,,,1,,50,0
164924,note_on,,92,0,1,,,,,,,,,,0,,67,0
164928,note_on,,4,0,2,,,,,,,,,,1,,38,100
164928,note_on,,4,0,1,,,,,,,,,,0,,64,100
165020,note_on,,92,0,1,,,,,,,,,,0,,64,0
165024,note_on,,4,0,1,,,,,,,,,,0,,66,100
165116,note_on,,92,0,1,,,,,,,,,,0,,66,0
165116,note_on,,188,0,2,,,,,,,,,,1,,38,0
165120,note_on,,4,0,2,,,,,,,,,,1,,43,100
165120,note_on,,4,0,1,,,,,,,,,,0,,67,100
165216,note_on,,96,0,1,,,,,,,,,,0,,63,100
165308,note_on,,92,0,1,,,,,,,,,,0,,63,0
165312,note_on,,192,0,2,,,,,,,,,,1,,50,100
165312,note_on,,4,0,1,,,,,,,,,,0,,62,100
165404,note_on,,92,0,1,,,,,,,,,,0,,62,0
165408,note_on,,4,0,1,,,,,,,,,,0,,60,100
165440,note_on,,128,0,2,,,,,,,,,,1,,43,0
165440,note_on,,32,0,1,,,,,,,,,,0,,67,0
165500,note_on,,60,0,2,,,,,,,,,,1,,50,0
165500,note_on,,60,0,1,,,,,,,,,,0,,60,0
165504,note_on,,4,0,1,,,,,,,,,,0,,58,100
165504,note_on,,4,0,2,,,,,,,,,,1,,55,100
165596,note_on,,92,0,1,,,,,,,,,,0,,58,0
165600,note_on,,4,0,1,,,,,,,,,,0,,60,100
165692,note_on,,188,0,2,,,,,,,,,,1,,55,0
165692,note_on,,92,0,1,,,,,,,,,,0,,60,0
165696,note_on,,4,0,2,,,,,,,,,,1,,54,100
165696,note_on,,4,0,1,,,,,,,,,,0,,57,100
165788,note_on,,92,0,1,,,,,,,,,,0,,57,0
165792,note_on,,4,0,1,,,,,,,,,,0,,60,100
165884,note_on,,188,0,2,,,,,,,,,,1,,54,0
165884,note_on,,92,0,1,,,,,,,,,,0,,60,0
165888,note_on,,4,0,1,,,,,,,,,,0,,58,100
165888,note_on,,4,0,2,,,,,,,,,,1,,55,100
165980,note_on,,92,0,1,,,,,,,,,,0,,58,0
165984,note_on,,4,0,1,,,,,,,,,,0,,66,100
166076,note_on,,188,0,2,,,,,,,,,,1,,55,0
166076,note_on,,92,0,1,,,,,,,,,,0,,66,0
166080,note_on,,4,0,1,,,,,,,,,,0,,67,100
166080,note_on,,4,0,2,,,,,,,,,,1,,43,100
166172,note_on,,92,0,1,,,,,,,,,,0,,67,0
166176,note_on,,4,0,1,,,,,,,,,,0,,69,100
166268,note_on,,92,0,1,,,,,,,,,,0,,69,0
166268,note_on,,188,0,2,,,,,,,,,,1,,43,0
166272,note_on,,4,0,2,,,,,,,,,,1,,55,100
166272,set_tempo,,9216,1,0,,,,,,666667,,,,,,,
166368,note_on,,100,0,1,,,,,,,,,,0,,81,100
166460,note_on,,92,0,1,,,,,,,,,,0,,81,0
166464,note_on,,4,0,1,,,,,,,,,,0,,82,100
166464,note_on,,192,0,2,,,,,,,,,,1,,62,100
166556,note_on,,92,0,1,,,,,,,,,,0,,82,0
166560,note_on,,4,0,1,,,,,,,,,,0,,84,100
166652,note_on,,188,0,2,,,,,,,,,,1,,62,0
166652,note_on,,92,0,1,,,,,,,,,,0,,84,0
166656,note_on,,4,0,2,,,,,,,,,,1,,63,100
166656,note_on,,4,0,1,,,,,,,,,,0,,82,100
166748,note_on,,92,0,1,,,,,,,,,,0,,82,0
166752,note_on,,4,0,1,,,,,,,,,,0,,81,100
166844,note_on,,92,0,1,,,,,,,,,,0,,81,0
166848,note_on,,4,0,1,,,,,,,,,,0,,79,100
166912,note_on,,256,0,2,,,,,,,,,,1,,63,0
166940,note_on,,92,0,1,,,,,,,,,,0,,79,0
166944,note_on,,4,0,1,,,,,,,,,,0,,77,100
167036,note_on,,92,0,1,,,,,,,,,,0,,77,0
167040,note_on,,4,0,1,,,,,,,,,,0,,75,100
167132,note_on,,92,0,1,,,,,,,,,,0,,75,0
167136,note_on,,4,0,1,,,,,,,,,,0,,74,100
167228,note_on,,92,0,1,,,,,,,,,,0,,74,0
167228,note_on,,316,0,2,,,,,,,,,,1,,55,0
167232,note_on,,4,0,1,,,,,,,,,,0,,72,100
167232,note_on,,4,0,2,,,,,,,,,,1,,55,100
167324,note_on,,92,0,1,,,,,,,,,,0,,72,0
167328,note_on,,4,0,1,,,,,,,,,,0,,70,100
167420,note_on,,92,0,1,,,,,,,,,,0,,70,0
167420,note_on,,188,0,2,,,,,,,,,,1,,55,0
167424,note_on,,4,0,2,,,,,,,,,,1,,53,100
167424,note_on,,4,0,1,,,,,,,,,,0,,69,100
167516,note_on,,92,0,1,,,,,,,,,,0,,69,0
167520,note_on,,4,0,1,,,,,,,,,,0,,79,100
167612,note_on,,188,0,2,,,,,,,,,,1,,63,0
167612,note_on,,92,0,1,,,,,,,,,,0,,79,0
167616,note_on,,4,0,1,,,,,,,,,,0,,81,100
167616,note_on,,4,0,2,,,,,,,,,,1,,60,100
167708,note_on,,92,0,1,,,,,,,,,,0,,81,0
167712,note_on,,4,0,1,,,,,,,,,,0,,82,100
167804,note_on,,188,0,2,,,,,,,,,,1,,60,0
167804,note_on,,92,0,1,,,,,,,,,,0,,82,0
167808,note_on,,4,0,2,,,,,,,,,,1,,62,100
167808,note_on,,4,0,1,,,,,,,,,,0,,81,100
167900,note_on,,92,0,1,,,,,,,,,,0,,81,0
167904,note_on,,4,0,1,,,,,,,,,,0,,79,100
167996,note_on,,92,0,1,,,,,,,,,,0,,79,0
168000,note_on,,4,0,1,,,,,,,,,,0,,77,100
168092,note_on,,92,0,1,,,,,,,,,,0,,77,0
168096,note_on,,4,0,1,,,,,,,,,,0,,75,100
168188,note_on,,92,0,1,,,,,,,,,,0,,75,0
168192,note_on,,4,0,1,,,,,,,,,,0,,74,100
168284,note_on,,92,0,1,,,,,,,,,,0,,74,0
168288,note_on,,4,0,1,,,,,,,,,,0,,72,100
168380,note_on,,92,0,1,,,,,,,,,,0,,72,0
168380,note_on,,572,0,2,,,,,,,,,,1,,53,0
168384,note_on,,4,0,1,,,,,,,,,,0,,70,100
168384,note_on,,4,0,2,,,,,,,,,,1,,53,100
168476,note_on,,92,0,1,,,,,,,,,,0,,70,0
168480,note_on,,4,0,1,,,,,,,,,,0,,69,100
168572,note_on,,92,0,1,,,,,,,,,,0,,69,0
168572,note_on,,188,0,2,,,,,,,,,,1,,53,0
168576,note_on,,4,0,1,,,,,,,,,,0,,67,100
168576,note_on,,4,0,2,,,,,,,,,,1,,51,100
168668,note_on,,92,0,1,,,,,,,,,,0,,67,0
168672,note_on,,4,0,1,,,,,,,,,,0,,78,100
168764,note_on,,92,0,1,,,,,,,,,,0,,78,0
168764,note_on,,188,0,2,,,,,,,,,,1,,62,0
168768,note_on,,4,0,1,,,,,,,,,,0,,79,100
168768,note_on,,4,0,2,,,,,,,,,,1,,58,100
168860,note_on,,92,0,1,,,,,,,,,,0,,79,0
168864,note_on,,4,0,1,,,,,,,,,,0,,81,100
168956,note_on,,188,0,2,,,,,,,,,,1,,58,0
168956,note_on,,92,0,1,,,,,,,,,,0,,81,0
168960,note_on,,4,0,2,,,,,,,,,,1,,60,100
168960,note_on,,4,0,1,,,,,,,,,,0,,79,100
169052,note_on,,92,0,1,,,,,,,,,,0,,79,0
169056,note_on,,4,0,1,,,,,,,,,,0,,77,100
169148,note_on,,92,0,1,,,,,,,,,,0,,77,0
169152,note_on,,4,0,1,,,,,,,,,,0,,75,100
169244,note_on,,92,0,1,,,,,,,,,,0,,75,0
169248,note_on,,4,0,1,,,,,,,,,,0,,74,100
169340,note_on,,92,0,1,,,,,,,,,,0,,74,0
169344,note_on,,4,0,1,,,,,,,,,,0,,72,100
169436,note_on,,92,0,1,,,,,,,,,,0,,72,0
169440,note_on,,4,0,1,,,,,,,,,,0,,70,100
169532,note_on,,572,0,2,,,,,,,,,,1,,51,0
169532,note_on,,92,0,1,,,,,,,,,,0,,70,0
169536,note_on,,4,0,1,,,,,,,,,,0,,69,100
169536,note_on,,4,0,2,,,,,,,,,,1,,51,100
169628,note_on,,92,0,1,,,,,,,,,,0,,69,0
169632,note_on,,4,0,1,,,,,,,,,,0,,67,100
169632,note_on,,96,0,2,,,,,,,,,,1,,60,0
169724,note_on,,92,0,1,,,,,,,,,,0,,67,0
169724,note_on,,92,0,2,,,,,,,,,,1,,51,0
169728,note_on,,4,0,2,,,,,,,,,,1,,50,100
169728,note_on,,4,0,1,,,,,,,,,,0,,66,100
169820,note_on,,92,0,1,,,,,,,,,,0,,66,0
169824,note_on,,4,0,1,,,,,,,,,,0,,72,100
169916,note_on,,92,0,1,,,,,,,,,,0,,72,0
169920,note_on,,192,0,2,,,,,,,,,,1,,55,100
169920,note_on,,4,0,1,,,,,,,,,,0,,74,100
170012,note_on,,92,0,1,,,,,,,,,,0,,74,0
170016,note_on,,4,0,1,,,,,,,,,,0,,75,100
170108,note_on,,188,0,2,,,,,,,,,,1,,55,0
170108,note_on,,92,0,1,,,,,,,,,,0,,75,0
170112,note_on,,4,0,1,,,,,,,,,,0,,74,100
170112,note_on,,4,0,2,,,,,,,,,,1,,54,100
170204,note_on,,92,0,1,,,,,,,,,,0,,74,0
170208,note_on,,4,0,1,,,,,,,,,,0,,72,100
170300,note_on,,92,0,1,,,,,,,,,,0,,72,0
170304,note_on,,4,0,1,,,,,,,,,,0,,71,100
170396,note_on,,92,0,1,,,,,,,,,,0,,71,0
170400,note_on,,4,0,1,,,,,,,,,,0,,72,100
170492,note_on,,92,0,1,,,,,,,,,,0,,72,0
170496,note_on,,4,0,1,,,,,,,,,,0,,81,100
170588,note_on,,92,0,1,,,,,,,,,,0,,81,0
170592,note_on,,4,0,1,,,,,,,,,,0,,72,100
170624,note_on,,512,0,2,,,,,,,,,,1,,54,0
170684,note_on,,92,0,1,,,,,,,,,,0,,72,0
170688,note_on,,4,0,1,,,,,,,,,,0,,74,100
170688,note_on,,64,0,2,,,,,,,,,,1,,54,100
170780,note_on,,92,0,1,,,,,,,,,,0,,74,0
170784,note_on,,4,0,1,,,,,,,,,,0,,69,100
170784,note_on,,96,0,2,,,,,,,,,,1,,50,0
170876,note_on,,92,0,1,,,,,,,,,,0,,69,0
170876,note_on,,92,0,2,,,,,,,,,,1,,54,0
170880,note_on,,4,0,2,,,,,,,,,,1,,55,100
170880,note_on,,4,0,1,,,,,,,,,,0,,70,100
170972,note_on,,92,0,1,,,,,,,,,,0,,70,0
170976,note_on,,4,0,1,,,,,,,,,,0,,67,100
171068,note_on,,92,0,1,,,,,,,,,,0,,67,0
171072,note_on,,4,0,1,,,,,,,,,,0,,70,100
171164,note_on,,92,0,1,,,,,,,,,,0,,70,0
171168,note_on,,4,0,1,,,,,,,,,,0,,74,100
171200,note_on,,320,0,2,,,,,,,,,,1,,55,0
171260,note_on,,92,0,1,,,,,,,,,,0,,74,0
171264,note_on,,64,0,2,,,,,,,,,,1,,46,100
171264,note_on,,4,0,1,,,,,,,,,,0,,79,100
171356,note_on,,92,0,1,,,,,,,,,,0,,79,0
171360,note_on,,4,0,1,,,,,,,,,,0,,74,100
171452,note_on,,92,0,1,,,,,,,,,,0,,74,0
171456,note_on,,4,0,1,,,,,,,,,,0,,70,100
171548,note_on,,92,0,1,,,,,,,,,,0,,70,0
171552,note_on,,4,0,1,,,,,,,,,,0,,74,100
171644,note_on,,92,0,1,,,,,,,,,,0,,74,0
171648,note_on,,4,0,1,,,,,,,,,,0,,67,100
171740,note_on,,92,0,1,,,,,,,,,,0,,67,0
171744,note_on,,4,0,1,,,,,,,,,,0,,74,100
171776,note_on,,512,0,2,,,,,,,,,,1,,46,0
171836,note_on,,92,0,1,,,,,,,,,,0,,74,0
171840,note_on,,64,0,2,,,,,,,,,,1,,46,100
171840,note_on,,4,0,1,,,,,,,,,,0,,72,100
171932,note_on,,92,0,1,,,,,,,,,,0,,72,0
171936,note_on,,4,0,1,,,,,,,,,,0,,74,100
172028,note_on,,92,0,1,,,,,,,,,,0,,74,0
172028,note_on,,188,0,2,,,,,,,,,,1,,46,0
172032,note_on,,4,0,1,,,,,,,,,,0,,75,100
172032,note_on,,4,0,2,,,,,,,,,,1,,48,100
172124,note_on,,92,0,1,,,,,,,,,,0,,75,0
172128,note_on,,4,0,1,,,,,,,,,,0,,67,100
172220,note_on,,92,0,1,,,,,,,,,,0,,67,0
172224,note_on,,192,0,2,,,,,,,,,,1,,55,100
172224,note_on,,4,0,1,,,,,,,,,,0,,66,100
172316,note_on,,92,0,1,,,,,,,,,,0,,66,0
172320,note_on,,4,0,1,,,,,,,,,,0,,67,100
172352,note_on,,128,0,2,,,,,,,,,,1,,48,0
172412,note_on,,92,0,1,,,,,,,,,,0,,67,0
172412,note_on,,60,0,2,,,,,,,,,,1,,55,0
172416,note_on,,4,0,1,,,,,,,,,,0,,74,100
172416,note_on,,4,0,2,,,,,,,,,,1,,50,100
172508,note_on,,92,0,1,,,,,,,,,,0,,74,0
172512,note_on,,4,0,1,,,,,,,,,,0,,67,100
172604,note_on,,92,0,1,,,,,,,,,,0,,67,0
172608,note_on,,4,0,1,,,,,,,,,,0,,66,100
172608,note_on,,192,0,2,,,,,,,,,,1,,55,100
172700,note_on,,92,0,1,,,,,,,,,,0,,66,0
172704,note_on,,4,0,1,,,,,,,,,,0,,67,100
172736,note_on,,128,0,2,,,,,,,,,,1,,50,0
172796,note_on,,60,0,2,,,,,,,,,,1,,55,0
172796,note_on,,92,0,1,,,,,,,,,,0,,67,0
172800,note_on,,4,0,1,,,,,,,,,,0,,72,100
172800,note_on,,4,0,2,,,,,,,,,,1,,51,100
172892,note_on,,92,0,1,,,,,,,,,,0,,72,0
172896,note_on,,4,0,1,,,,,,,,,,0,,67,100
172988,note_on,,92,0,1,,,,,,,,,,0,,67,0
172992,note_on,,4,0,1,,,,,,,,,,0,,66,100
172992,note_on,,192,0,2,,,,,,,,,,1,,55,100
173084,note_on,,92,0,1,,,,,,,,,,0,,66,0
173088,note_on,,4,0,1,,,,,,,,,,0,,67,100
173120,note_on,,128,0,2,,,,,,,,,,1,,51,0
173180,note_on,,60,0,2,,,,,,,,,,1,,55,0
173180,note_on,,92,0,1,,,,,,,,,,0,,67,0
173184,note_on,,4,0,1,,,,,,,,,,0,,70,100
173184,note_on,,4,0,2,,,,,,,,,,1,,50,100
173276,note_on,,92,0,1,,,,,,,,,,0,,70,0
173280,note_on,,4,0,1,,,,,,,,,,0,,67,100
173372,note_on,,92,0,1,,,,,,,,,,0,,67,0
173376,note_on,,4,0,1,,,,,,,,,,0,,66,100
173376,note_on,,192,0,2,,,,,,,,,,1,,55,100
173468,note_on,,92,0,1,,,,,,,,,,0,,66,0
173472,note_on,,4,0,1,,,,,,,,,,0,,67,100
173504,note_on,,128,0,2,,,,,,,,,,1,,50,0
173564,note_on,,92,0,1,,,,,,,,,,0,,67,0
173564,note_on,,60,0,2,,,,,,,,,,1,,55,0
173568,note_on,,4,0,1,,,,,,,,,,0,,69,100
173568,note_on,,4,0,2,,,,,,,,,,1,,48,100
173660,note_on,,92,0,1,,,,,,,,,,0,,69,0
173664,note_on,,4,0,1,,,,,,,,,,0,,67,100
173756,note_on,,92,0,1,,,,,,,,,,0,,67,0
173760,note_on,,4,0,1,,,,,,,,,,0,,66,100
173760,note_on,,192,0,2,,,,,,,,,,1,,55,100
173852,note_on,,92,0,1,,,,,,,,,,0,,66,0
173856,note_on,,4,0,1,,,,,,,,,,0,,67,100
173888,note_on,,128,0,2,,,,,,,,,,1,,48,0
173948,note_on,,60,0,2,,,,,,,,,,1,,55,0
173948,note_on,,92,0,1,,,,,,,,,,0,,67,0
173952,note_on,,4,0,2,,,,,,,,,,1,,54,100
173952,note_on,,4,0,1,,,,,,,,,,0,,62,100
174044,note_on,,92,0,1,,,,,,,,,,0,,62,0
174048,note_on,,4,0,1,,,,,,,,,,0,,69,100
174140,note_on,,92,0,1,,,,,,,,,,0,,69,0
174144,note_on,,4,0,1,,,,,,,,,,0,,74,100
174144,note_on,,192,0,2,,,,,,,,,,1,,50,100
174236,note_on,,92,0,1,,,,,,,,,,0,,74,0
174240,note_on,,4,0,1,,,,,,,,,,0,,72,100
174272,note_on,,128,0,2,,,,,,,,,,1,,54,0
174332,note_on,,92,0,1,,,,,,,,,,0,,72,0
174332,note_on,,60,0,2,,,,,,,,,,1,,50,0
174336,note_on,,4,0,1,,,,,,,,,,0,,70,100
174336,note_on,,4,0,2,,,,,,,,,,1,,55,100
174428,note_on,,92,0,1,,,,,,,,,,0,,70,0
174432,note_on,,4,0,1,,,,,,,,,,0,,67,100
174524,note_on,,92,0,1,,,,,,,,,,0,,67,0
174528,note_on,,4,0,1,,,,,,,,,,0,,69,100
174620,note_on,,92,0,1,,,,,,,,,,0,,69,0
174624,note_on,,4,0,1,,,,,,,,,,0,,66,100
174656,note_on,,320,0,2,,,,,,,,,,1,,55,0
174716,note_on,,92,0,1,,,,,,,,,,0,,66,0
174720,note_on,,64,0,2,,,,,,,,,,1,,43,100
174720,note_on,,4,0,1,,,,,,,,,,0,,67,100
174812,note_on,,92,0,1,,,,,,,,,,0,,67,0
174816,note_on,,4,0,1,,,,,,,,,,0,,62,100
174908,note_on,,92,0,1,,,,,,,,,,0,,62,0
174912,note_on,,4,0,1,,,,,,,,,,0,,60,100
175004,note_on,,92,0,1,,,,,,,,,,0,,60,0
175008,note_on,,4,0,1,,,,,,,,,,0,,58,100
175100,note_on,,92,0,1,,,,,,,,,,0,,58,0
175104,note_on,,4,0,1,,,,,,,,,,0,,62,100
175196,note_on,,92,0,1,,,,,,,,,,0,,62,0
175200,note_on,,4,0,1,,,,,,,,,,0,,57,100
175292,note_on,,92,0,1,,,,,,,,,,0,,57,0
175296,note_on,,4,0,1,,,,,,,,,,0,,58,100
175388,note_on,,92,0,1,,,,,,,,,,0,,58,0
175392,note_on,,672,0,2,,,,,,,,,,1,,43,0
175392,note_on,,4,0,1,,,,,,,,,,0,,54,100
175484,note_on,,92,0,1,,,,,,,,,,0,,54,0
175488,set_tempo,,9216,1,0,,,,,,638298,,,,,,,
175488,note_on,,4,0,1,,,,,,,,,,0,,67,100
175580,note_on,,92,0,1,,,,,,,,,,0,,67,0
175584,note_on,,4,0,1,,,,,,,,,,0,,70,100
175676,note_on,,92,0,1,,,,,,,,,,0,,70,0
175680,note_on,,4,0,1,,,,,,,,,,0,,74,100
175680,note_on,,0,0,2,,,,,,,,,,1,,62,100
175680,note_on,,288,0,2,,,,,,,,,,1,,50,100
175772,note_on,,92,0,1,,,,,,,,,,0,,74,0
175776,note_on,,4,0,1,,,,,,,,,,0,,70,100
175868,note_on,,188,0,2,,,,,,,,,,1,,62,0
175868,note_on,,92,0,1,,,,,,,,,,0,,70,0
175868,note_on,,0,0,2,,,,,,,,,,1,,50,0
175872,note_on,,4,0,1,,,,,,,,,,0,,67,100
175872,note_on,,4,0,2,,,,,,,,,,1,,46,100
175872,note_on,,0,0,2,,,,,,,,,,1,,58,100
175964,note_on,,92,0,1,,,,,,,,,,0,,67,0
175968,note_on,,4,0,1,,,,,,,,,,0,,70,100
176060,note_on,,0,0,2,,,,,,,,,,1,,46,0
176060,note_on,,92,0,1,,,,,,,,,,0,,70,0
176060,note_on,,188,0,2,,,,,,,,,,1,,58,0
176064,note_on,,4,0,2,,,,,,,,,,1,,43,100
176064,note_on,,4,0,1,,,,,,,,,,0,,74,100
176064,note_on,,0,0,2,,,,,,,,,,1,,55,100
176156,note_on,,92,0,1,,,,,,,,,,0,,74,0
176160,note_on,,4,0,1,,,,,,,,,,0,,70,100
176252,note_on,,92,0,1,,,,,,,,,,0,,70,0
176252,note_on,,0,0,2,,,,,,,,,,1,,43,0
176252,note_on,,188,0,2,,,,,,,,,,1,,55,0
176256,note_on,,0,0,2,,,,,,,,,,1,,51,100
176256,note_on,,4,0,2,,,,,,,,,,1,,39,100
176256,note_on,,4,0,1,,,,,,,,,,0,,67,100
176348,note_on,,92,0,1,,,,,,,,,,0,,67,0
176352,note_on,,4,0,1,,,,,,,,,,0,,72,100
176444,note_on,,188,0,2,,,,,,,,,,1,,51,0
176444,note_on,,0,0,2,,,,,,,,,,1,,39,0
176444,note_on,,92,0,1,,,,,,,,,,0,,72,0
176448,note_on,,0,0,2,,,,,,,,,,1,,48,100
176448,note_on,,4,0,2,,,,,,,,,,1,,36,100
176448,note_on,,4,0,1,,,,,,,,,,0,,75,100
176540,note_on,,92,0,1,,,,,,,,,,0,,75,0
176544,note_on,,4,0,1,,,,,,,,,,0,,72,100
176636,note_on,,0,0,2,,,,,,,,,,1,,36,0
176636,note_on,,188,0,2,,,,,,,,,,1,,48,0
176636,note_on,,92,0,1,,,,,,,,,,0,,72,0
176640,note_on,,4,0,1,,,,,,,,,,0,,69,100
176732,note_on,,92,0,1,,,,,,,,,,0,,69,0
176736,note_on,,4,0,1,,,,,,,,,,0,,72,100
176828,note_on,,92,0,1,,,,,,,,,,0,,72,0
176832,note_on,,196,0,2,,,,,,,,,,1,,48,100
176832,note_on,,0,0,2,,,,,,,,,,1,,60,100
176832,note_on,,4,0,1,,,,,,,,,,0,,75,100
176924,note_on,,92,0,1,,,,,,,,,,0,,75,0
176928,note_on,,4,0,1,,,,,,,,,,0,,72,100
177020,note_on,,0,0,2,,,,,,,,,,1,,48,0
177020,note_on,,188,0,2,,,,,,,,,,1,,60,0
177020,note_on,,92,0,1,,,,,,,,,,0,,72,0
177024,note_on,,0,0,2,,,,,,,,,,1,,57,100
177024,note_on,,4,0,2,,,,,,,,,,1,,45,100
177024,note_on,,4,0,1,,,,,,,,,,0,,65,100
177116,note_on,,92,0,1,,,,,,,,,,0,,65,0
177120,note_on,,4,0,1,,,,,,,,,,0,,72,100
177212,note_on,,188,0,2,,,,,,,,,,1,,57,0
177212,note_on,,92,0,1,,,,,,,,,,0,,72,0
177212,note_on,,0,0,2,,,,,,,,,,1,,45,0
177216,note_on,,4,0,1,,,,,,,,,,0,,75,100
177216,note_on,,0,0,2,,,,,,,,,,1,,53,100
177216,note_on,,4,0,2,,,,,,,,,,1,,41,100
177308,note_on,,92,0,1,,,,,,,,,,0,,75,0
177312,note_on,,4,0,1,,,,,,,,,,0,,72,100
177404,note_on,,188,0,2,,,,,,,,,,1,,53,0
177404,note_on,,0,0,2,,,,,,,,,,1,,41,0
177404,note_on,,92,0,1,,,,,,,,,,0,,72,0
177408,note_on,,0,0,2,,,,,,,,,,1,,50,100
177408,note_on,,4,0,1,,,,,,,,,,0,,65,100
177408,note_on,,4,0,2,,,,,,,,,,1,,38,100
177500,note_on,,92,0,1,,,,,,,,,,0,,65,0
177504,note_on,,4,0,1,,,,,,,,,,0,,70,100
177596,note_on,,92,0,1,,,,,,,,,,0,,70,0
177596,note_on,,188,0,2,,,,,,,,,,1,,50,0
177596,note_on,,0,0,2,,,,,,,,,,1,,38,0
177600,note_on,,4,0,2,,,,,,,,,,1,,34,100
177600,note_on,,0,0,2,,,,,,,,,,1,,46,100
177600,note_on,,4,0,1,,,,,,,,,,0,,74,100
177692,note_on,,92,0,1,,,,,,,,,,0,,74,0
177696,note_on,,4,0,1,,,,,,,,,,0,,70,100
177788,note_on,,0,0,2,,,,,,,,,,1,,34,0
177788,note_on,,188,0,2,,,,,,,,,,1,,46,0
177788,note_on,,92,0,1,,,,,,,,,,0,,70,0
177792,note_on,,4,0,1,,,,,,,,,,0,,67,100
177884,note_on,,92,0,1,,,,,,,,,,0,,67,0
177888,note_on,,4,0,1,,,,,,,,,,0,,70,100
177980,note_on,,92,0,1,,,,,,,,,,0,,70,0
177984,note_on,,0,0,2,,,,,,,,,,1,,58,100
177984,note_on,,196,0,2,,,,,,,,,,1,,46,100
177984,note_on,,4,0,1,,,,,,,,,,0,,74,100
178076,note_on,,92,0,1,,,,,,,,,,0,,74,0
178080,note_on,,4,0,1,,,,,,,,,,0,,70,100
178172,note_on,,0,0,2,,,,,,,,,,1,,46,0
178172,note_on,,188,0,2,,,,,,,,,,1,,58,0
178172,note_on,,92,0,1,,,,,,,,,,0,,70,0
178176,note_on,,4,0,2,,,,,,,,,,1,,43,100
178176,note_on,,4,0,1,,,,,,,,,,0,,63,100
178176,note_on,,0,0,2,,,,,,,,,,1,,55,100
178268,note_on,,92,0,1,,,,,,,,,,0,,63,0
178272,note_on,,4,0,1,,,,,,,,,,0,,70,100
178364,note_on,,92,0,1,,,,,,,,,,0,,70,0
178364,note_on,,0,0,2,,,,,,,,,,1,,43,0
178364,note_on,,188,0,2,,,,,,,,,,1,,55,0
178368,note_on,,0,0,2,,,,,,,,,,1,,51,100
178368,note_on,,4,0,1,,,,,,,,,,0,,74,100
178368,note_on,,4,0,2,,,,,,,,,,1,,39,100
178460,note_on,,92,0,1,,,,,,,,,,0,,74,0
178464,note_on,,4,0,1,,,,,,,,,,0,,70,100
178556,note_on,,0,0,2,,,,,,,,,,1,,39,0
178556,note_on,,92,0,1,,,,,,,,,,0,,70,0
178556,note_on,,188,0,2,,,,,,,,,,1,,51,0
178560,note_on,,4,0,1,,,,,,,,,,0,,63,100
178560,note_on,,0,0,2,,,,,,,,,,1,,48,100
178560,note_on,,4,0,2,,,,,,,,,,1,,36,100
178652,note_on,,92,0,1,,,,,,,,,,0,,63,0
178656,note_on,,4,0,1,,,,,,,,,,0,,69,100
178748,note_on,,92,0,1,,,,,,,,,,0,,69,0
178748,note_on,,188,0,2,,,,,,,,,,1,,48,0
178748,note_on,,0,0,2,,,,,,,,,,1,,36,0
178752,note_on,,4,0,2,,,,,,,,,,1,,33,100
178752,note_on,,0,0,2,,,,,,,,,,1,,45,100
178752,note_on,,4,0,1,,,,,,,,,,0,,72,100
178844,note_on,,92,0,1,,,,,,,,,,0,,72,0
178848,note_on,,4,0,1,,,,,,,,,,0,,69,100
178940,note_on,,92,0,1,,,,,,,,,,0,,69,0
178940,note_on,,188,0,2,,,,,,,,,,1,,45,0
178940,note_on,,0,0,2,,,,,,,,,,1,,33,0
178944,note_on,,4,0,1,,,,,,,,,,0,,66,100
179036,note_on,,92,0,1,,,,,,,,,,0,,66,0
179040,note_on,,4,0,1,,,,,,,,,,0,,69,100
179132,note_on,,92,0,1,,,,,,,,,,0,,69,0
179136,note_on,,0,0,2,,,,,,,,,,1,,57,100
179136,note_on,,4,0,1,,,,,,,,,,0,,72,100
179136,note_on,,196,0,2,,,,,,,,,,1,,45,100
179228,note_on,,92,0,1,,,,,,,,,,0,,72,0
179232,note_on,,4,0,1,,,,,,,,,,0,,69,100
179324,note_on,,188,0,2,,,,,,,,,,1,,57,0
179324,note_on,,0,0,2,,,,,,,,,,1,,45,0
179324,note_on,,92,0,1,,,,,,,,,,0,,69,0
179328,note_on,,4,0,1,,,,,,,,,,0,,62,100
179328,note_on,,4,0,2,,,,,,,,,,1,,42,100
179328,note_on,,0,0,2,,,,,,,,,,1,,54,100
179420,note_on,,92,0,1,,,,,,,,,,0,,62,0
179424,note_on,,4,0,1,,,,,,,,,,0,,69,100
179516,note_on,,0,0,2,,,,,,,,,,1,,42,0
179516,note_on,,188,0,2,,,,,,,,,,1,,54,0
179516,note_on,,92,0,1,,,,,,,,,,0,,69,0
179520,note_on,,0,0,2,,,,,,,,,,1,,50,100
179520,note_on,,4,0,2,,,,,,,,,,1,,38,100
179520,note_on,,4,0,1,,,,,,,,,,0,,72,100
179612,note_on,,92,0,1,,,,,,,,,,0,,72,0
179616,note_on,,4,0,1,,,,,,,,,,0,,69,100
179708,note_on,,0,0,2,,,,,,,,,,1,,38,0
179708,note_on,,188,0,2,,,,,,,,,,1,,50,0
179708,note_on,,92,0,1,,,,,,,,,,0,,69,0
179712,note_on,,0,0,2,,,,,,,,,,1,,46,100
179712,note_on,,4,0,2,,,,,,,,,,1,,34,100
179712,note_on,,4,0,1,,,,,,,,,,0,,67,100
179804,note_on,,92,0,1,,,,,,,,,,0,,67,0
179808,note_on,,4,0,1,,,,,,,,,,0,,74,100
179900,note_on,,92,0,1,,,,,,,,,,0,,74,0
179900,note_on,,188,0,2,,,,,,,,,,1,,46,0
179900,note_on,,0,0,2,,,,,,,,,,1,,34,0
179904,note_on,,4,0,1,,,,,,,,,,0,,79,100
179904,note_on,,0,0,2,,,,,,,,,,1,,43,100
179904,note_on,,4,0,2,,,,,,,,,,1,,31,100
179996,note_on,,92,0,1,,,,,,,,,,0,,79,0
180000,note_on,,4,0,1,,,,,,,,,,0,,74,100
180092,note_on,,92,0,1,,,,,,,,,,0,,74,0
180092,note_on,,0,0,2,,,,,,,,,,1,,31,0
180092,note_on,,188,0,2,,,,,,,,,,1,,43,0
180096,note_on,,4,0,1,,,,,,,,,,0,,75,100
180188,note_on,,92,0,1,,,,,,,,,,0,,75,0
180192,note_on,,4,0,1,,,,,,,,,,0,,79,100
180284,note_on,,92,0,1,,,,,,,,,,0,,79,0
180288,note_on,,196,0,2,,,,,,,,,,1,,55,100
180288,note_on,,0,0,2,,,,,,,,,,1,,67,100
180288,note_on,,4,0,1,,,,,,,,,,0,,84,100
180380,note_on,,92,0,1,,,,,,,,,,0,,84,0
180384,note_on,,4,0,1,,,,,,,,,,0,,79,100
180476,note_on,,0,0,2,,,,,,,,,,1,,55,0
180476,note_on,,188,0,2,,,,,,,,,,1,,67,0
180476,note_on,,92,0,1,,,,,,,,,,0,,79,0
180480,note_on,,0,0,2,,,,,,,,,,1,,63,100
180480,note_on,,4,0,2,,,,,,,,,,1,,51,100
180480,note_on,,4,0,1,,,,,,,,,,0,,72,100
180572,note_on,,92,0,1,,,,,,,,,,0,,72,0
180576,note_on,,4,0,1,,,,,,,,,,0,,75,100
180668,note_on,,0,0,2,,,,,,,,,,1,,51,0
180668,note_on,,188,0,2,,,,,,,,,,1,,63,0
180668,note_on,,92,0,1,,,,,,,,,,0,,75,0
180672,note_on,,4,0,2,,,,,,,,,,1,,48,100
180672,note_on,,4,0,1,,,,,,,,,,0,,79,100
180672,note_on,,0,0,2,,,,,,,,,,1,,60,100
180764,note_on,,92,0,1,,,,,,,,,,0,,79,0
180768,note_on,,4,0,1,,,,,,,,,,0,,75,100
180860,note_on,,188,0,2,,,,,,,,,,1,,60,0
180860,note_on,,92,0,1,,,,,,,,,,0,,75,0
180860,note_on,,0,0,2,,,,,,,,,,1,,48,0
180864,note_on,,4,0,2,,,,,,,,,,1,,45,100
180864,note_on,,4,0,1,,,,,,,,,,0,,69,100
180864,note_on,,0,0,2,,,,,,,,,,1,,57,100
180956,note_on,,92,0,1,,,,,,,,,,0,,69,0
180960,note_on,,4,0,1,,,,,,,,,,0,,75,100
181052,note_on,,188,0,2,,,,,,,,,,1,,57,0
181052,note_on,,0,0,2,,,,,,,,,,1,,45,0
181052,note_on,,92,0,1,,,,,,,,,,0,,75,0
181056,note_on,,4,0,2,,,,,,,,,,1,,42,100
181056,note_on,,0,0,2,,,,,,,,,,1,,54,100
181056,note_on,,4,0,1,,,,,,,,,,0,,81,100
181148,note_on,,92,0,1,,,,,,,,,,0,,81,0
181152,note_on,,4,0,1,,,,,,,,,,0,,75,100
181244,note_on,,92,0,1,,,,,,,,,,0,,75,0
181244,note_on,,0,0,2,,,,,,,,,,1,,42,0
181244,note_on,,188,0,2,,,,,,,,,,1,,54,0
181248,note_on,,4,0,2,,,,,,,,,,1,,38,100
181248,note_on,,0,0,2,,,,,,,,,,1,,50,100
181248,note_on,,4,0,1,,,,,,,,,,0,,72,100
181340,note_on,,92,0,1,,,,,,,,,,0,,72,0
181344,note_on,,4,0,1,,,,,,,,,,0,,74,100
181436,note_on,,0,0,2,,,,,,,,,,1,,38,0
181436,note_on,,188,0,2,,,,,,,,,,1,,50,0
181436,note_on,,92,0,1,,,,,,,,,,0,,74,0
181440,note_on,,0,0,2,,,,,,,,,,1,,69,100
181440,note_on,,4,0,2,,,,,,,,,,1,,57,100
181440,note_on,,4,0,1,,,,,,,,,,0,,78,100
181532,note_on,,92,0,1,,,,,,,,,,0,,78,0
181536,note_on,,4,0,1,,,,,,,,,,0,,74,100
181628,note_on,,0,0,2,,,,,,,,,,1,,57,0
181628,note_on,,188,0,2,,,,,,,,,,1,,69,0
181628,note_on,,92,0,1,,,,,,,,,,0,,74,0
181632,note_on,,0,0,2,,,,,,,,,,1,,66,100
181632,note_on,,4,0,2,,,,,,,,,,1,,54,100
181632,note_on,,4,0,1,,,,,,,,,,0,,72,100
181724,note_on,,92,0,1,,,,,,,,,,0,,72,0
181728,note_on,,4,0,1,,,,,,,,,,0,,74,100
181820,note_on,,92,0,1,,,,,,,,,,0,,74,0
181820,note_on,,188,0,2,,,,,,,,,,1,,66,0
181820,note_on,,0,0,2,,,,,,,,,,1,,54,0
181824,note_on,,0,0,2,,,,,,,,,,1,,62,100
181824,note_on,,4,0,1,,,,,,,,,,0,,78,100
181824,note_on,,4,0,2,,,,,,,,,,1,,50,100
181916,note_on,,92,0,1,,,,,,,,,,0,,78,0
181920,note_on,,4,0,1,,,,,,,,,,0,,74,100
182012,note_on,,188,0,2,,,,,,,,,,1,,62,0
182012,note_on,,0,0,2,,,,,,,,,,1,,50,0
182012,note_on,,92,0,1,,,,,,,,,,0,,74,0
182016,note_on,,4,0,1,,,,,,,,,,0,,67,100
182016,note_on,,4,0,2,,,,,,,,,,1,,46,100
182016,note_on,,0,0,2,,,,,,,,,,1,,58,100
182108,note_on,,92,0,1,,,,,,,,,,0,,67,0
182112,note_on,,4,0,1,,,,,,,,,,0,,74,100
182204,note_on,,0,0,2,,,,,,,,,,1,,46,0
182204,note_on,,188,0,2,,,,,,,,,,1,,58,0
182204,note_on,,92,0,1,,,,,,,,,,0,,74,0
182208,note_on,,4,0,1,,,,,,,,,,0,,79,100
182208,note_on,,0,0,2,,,,,,,,,,1,,55,100
182208,note_on,,4,0,2,,,,,,,,,,1,,43,100
182300,note_on,,92,0,1,,,,,,,,,,0,,79,0
182304,note_on,,4,0,1,,,,,,,,,,0,,74,100
182396,note_on,,188,0,2,,,,,,,,,,1,,55,0
182396,note_on,,0,0,2,,,,,,,,,,1,,43,0
182396,note_on,,92,0,1,,,,,,,,,,0,,74,0
182400,note_on,,4,0,1,,,,,,,,,,0,,67,100
182400,note_on,,4,0,2,,,,,,,,,,1,,51,100
182400,note_on,,0,0,2,,,,,,,,,,1,,63,100
182492,note_on,,92,0,1,,,,,,,,,,0,,67,0
182496,note_on,,4,0,1,,,,,,,,,,0,,72,100
182588,note_on,,0,0,2,,,,,,,,,,1,,51,0
182588,note_on,,188,0,2,,,,,,,,,,1,,63,0
182588,note_on,,92,0,1,,,,,,,,,,0,,72,0
182592,note_on,,4,0,1,,,,,,,,,,0,,75,100
182592,note_on,,4,0,2,,,,,,,,,,1,,48,100
182592,note_on,,0,0,2,,,,,,,,,,1,,60,100
182684,note_on,,92,0,1,,,,,,,,,,0,,75,0
182688,note_on,,4,0,1,,,,,,,,,,0,,72,100
182780,note_on,,0,0,2,,,,,,,,,,1,,48,0
182780,note_on,,188,0,2,,,,,,,,,,1,,60,0
182780,note_on,,92,0,1,,,,,,,,,,0,,72,0
182784,note_on,,4,0,1,,,,,,,,,,0,,67,100
182784,note_on,,0,0,2,,,,,,,,,,1,,62,100
182784,note_on,,4,0,2,,,,,,,,,,1,,50,100
182876,note_on,,92,0,1,,,,,,,,,,0,,67,0
182880,note_on,,4,0,1,,,,,,,,,,0,,69,100
182972,note_on,,92,0,1,,,,,,,,,,0,,69,0
182972,note_on,,0,0,2,,,,,,,,,,1,,50,0
182972,note_on,,188,0,2,,,,,,,,,,1,,62,0
182976,note_on,,4,0,2,,,,,,,,,,1,,48,100
182976,note_on,,4,0,1,,,,,,,,,,0,,74,100
182976,note_on,,0,0,2,,,,,,,,,,1,,60,100
183068,note_on,,92,0,1,,,,,,,,,,0,,74,0
183072,note_on,,4,0,1,,,,,,,,,,0,,69,100
183164,note_on,,188,0,2,,,,,,,,,,1,,60,0
183164,note_on,,0,0,2,,,,,,,,,,1,,48,0
183164,note_on,,92,0,1,,,,,,,,,,0,,69,0
183168,note_on,,0,0,2,,,,,,,,,,1,,62,100
183168,note_on,,4,0,1,,,,,,,,,,0,,66,100
183168,note_on,,4,0,2,,,,,,,,,,1,,50,100
183260,note_on,,92,0,1,,,,,,,,,,0,,66,0
183264,note_on,,4,0,1,,,,,,,,,,0,,69,100
183356,note_on,,188,0,2,,,,,,,,,,1,,62,0
183356,note_on,,92,0,1,,,,,,,,,,0,,69,0
183356,note_on,,0,0,2,,,,,,,,,,1,,50,0
183360,note_on,,4,0,2,,,,,,,,,,1,,38,100
183360,note_on,,0,0,2,,,,,,,,,,1,,50,100
183360,note_on,,4,0,1,,,,,,,,,,0,,74,100
183452,note_on,,92,0,1,,,,,,,,,,0,,74,0
183456,note_on,,4,0,1,,,,,,,,,,0,,72,100
183548,note_on,,188,0,2,,,,,,,,,,1,,50,0
183548,note_on,,92,0,1,,,,,,,,,,0,,72,0
183548,note_on,,0,0,2,,,,,,,,,,1,,38,0
183552,note_on,,0,0,2,,,,,,,,,,1,,55,100
183552,note_on,,4,0,2,,,,,,,,,,1,,43,100
183552,note_on,,4,0,1,,,,,,,,,,0,,70,100
183644,note_on,,92,0,1,,,,,,,,,,0,,70,0
183648,note_on,,4,0,1,,,,,,,,,,0,,74,100
183740,note_on,,92,0,1,,,,,,,,,,0,,74,0
183744,note_on,,4,0,1,,,,,,,,,,0,,79,100
183836,note_on,,92,0,1,,,,,,,,,,0,,79,0
183840,note_on,,4,0,1,,,,,,,,,,0,,74,100
183872,note_on,,320,0,2,,,,,,,,,,1,,55,0
183872,note_on,,0,0,2,,,,,,,,,,1,,43,0
183932,note_on,,92,0,1,,,,,,,,,,0,,74,0
183936,note_on,,4,0,1,,,,,,,,,,0,,70,100
184028,note_on,,92,0,1,,,,,,,,,,0,,70,0
184032,note_on,,4,0,1,,,,,,,,,,0,,74,100
184124,note_on,,92,0,1,,,,,,,,,,0,,74,0
184128,note_on,,4,0,1,,,,,,,,,,0,,67,100
184220,note_on,,92,0,1,,,,,,,,,,0,,67,0
184224,note_on,,4,0,1,,,,,,,,,,0,,70,100
184316,note_on,,92,0,1,,,,,,,,,,0,,70,0
184320,note_on,,4,0,1,,,,,,,,,,0,,62,100
184412,note_on,,92,0,1,,,,,,,,,,0,,62,0
184416,note_on,,4,0,1,,,,,,,,,,0,,67,100
184508,note_on,,92,0,1,,,,,,,,,,0,,67,0
184512,note_on,,4,0,1,,,,,,,,,,0,,58,100
184604,note_on,,92,0,1,,,,,,,,,,0,,58,0
184608,note_on,,4,0,1,,,,,,,,,,0,,62,100
184700,note_on,,92,0,1,,,,,,,,,,0,,62,0
184704,note_on,,832,0,2,,,,,,,,,,1,,55,100
184704,set_tempo,,9216,1,0,,,,,,600000,,,,,,,
184704,note_on,,4,0,1,,,,,,,,,,0,,82,100
184796,note_on,,92,0,2,,,,,,,,,,1,,55,0
184800,note_on,,4,0,2,,,,,,,,,,1,,62,100
184892,note_on,,92,0,2,,,,,,,,,,1,,62,0
184896,note_on,,4,0,2,,,,,,,,,,1,,55,100
184988,note_on,,92,0,2,,,,,,,,,,1,,55,0
184992,note_on,,4,0,2,,,,,,,,,,1,,62,100
185084,note_on,,92,0,2,,,,,,,,,,1,,62,0
185088,note_on,,4,0,2,,,,,,,,,,1,,55,100
185180,note_on,,92,0,2,,,,,,,,,,1,,55,0
185184,note_on,,4,0,2,,,,,,,,,,1,,63,100
185216,note_on,,512,0,1,,,,,,,,,,0,,82,0
185276,note_on,,92,0,2,,,,,,,,,,1,,63,0
185280,note_on,,4,0,2,,,,,,,,,,1,,55,100
185280,note_on,,64,0,1,,,,,,,,,,0,,70,100
185372,note_on,,92,0,2,,,,,,,,,,1,,55,0
185376,note_on,,4,0,2,,,,,,,,,,1,,63,100
185468,note_on,,188,0,1,,,,,,,,,,0,,70,0
185468,note_on,,92,0,2,,,,,,,,,,1,,63,0
185472,note_on,,4,0,2,,,,,,,,,,1,,55,100
185472,note_on,,4,0,1,,,,,,,,,,0,,75,100
185564,note_on,,92,0,2,,,,,,,,,,1,,55,0
185568,note_on,,4,0,2,,,,,,,,,,1,,63,100
185660,note_on,,92,0,2,,,,,,,,,,1,,63,0
185660,note_on,,188,0,1,,,,,,,,,,0,,75,0
185664,note_on,,4,0,2,,,,,,,,,,1,,55,100
185664,note_on,,4,0,1,,,,,,,,,,0,,82,100
185756,note_on,,92,0,2,,,,,,,,,,1,,55,0
185760,note_on,,4,0,2,,,,,,,,,,1,,63,100
185852,note_on,,188,0,1,,,,,,,,,,0,,82,0
185852,note_on,,92,0,2,,,,,,,,,,1,,63,0
185856,note_on,,4,0,1,,,,,,,,,,0,,81,100
185856,note_on,,4,0,2,,,,,,,,,,1,,54,100
185948,note_on,,92,0,2,,,,,,,,,,1,,54,0
185952,note_on,,4,0,2,,,,,,,,,,1,,63,100
186044,note_on,,188,0,1,,,,,,,,,,0,,81,0
186044,note_on,,92,0,2,,,,,,,,,,1,,63,0
186048,note_on,,4,0,1,,,,,,,,,,0,,69,100
186048,note_on,,4,0,2,,,,,,,,,,1,,54,100
186140,note_on,,92,0,2,,,,,,,,,,1,,54,0
186144,note_on,,4,0,2,,,,,,,,,,1,,63,100
186236,note_on,,188,0,1,,,,,,,,,,0,,69,0
186236,note_on,,92,0,2,,,,,,,,,,1,,63,0
186240,note_on,,4,0,2,,,,,,,,,,1,,53,100
186240,note_on,,4,0,1,,,,,,,,,,0,,74,100
186332,note_on,,92,0,2,,,,,,,,,,1,,53,0
186336,note_on,,4,0,2,,,,,,,,,,1,,62,100
186428,note_on,,92,0,2,,,,,,,,,,1,,62,0
186432,note_on,,4,0,2,,,,,,,,,,1,,53,100
186524,note_on,,92,0,2,,,,,,,,,,1,,53,0
186528,note_on,,4,0,2,,,,,,,,,,1,,62,100
186620,note_on,,92,0,2,,,,,,,,,,1,,62,0
186624,note_on,,4,0,2,,,,,,,,,,1,,53,100
186716,note_on,,92,0,2,,,,,,,,,,1,,53,0
186720,note_on,,4,0,2,,,,,,,,,,1,,62,100
186752,note_on,,512,0,1,,,,,,,,,,0,,74,0
186812,note_on,,92,0,2,,,,,,,,,,1,,62,0
186816,note_on,,64,0,1,,,,,,,,,,0,,81,100
186816,note_on,,4,0,2,,,,,,,,,,1,,53,100
186908,note_on,,92,0,2,,,,,,,,,,1,,53,0
186912,note_on,,4,0,2,,,,,,,,,,1,,62,100
187004,note_on,,188,0,1,,,,,,,,,,0,,81,0
187004,note_on,,92,0,2,,,,,,,,,,1,,62,0
187008,note_on,,4,0,1,,,,,,,,,,0,,79,100
187008,note_on,,4,0,2,,,,,,,,,,1,,52,100
187100,note_on,,92,0,2,,,,,,,,,,1,,52,0
187104,note_on,,4,0,2,,,,,,,,,,1,,62,100
187196,note_on,,92,0,2,,,,,,,,,,1,,62,0
187196,note_on,,188,0,1,,,,,,,,,,0,,79,0
187200,note_on,,4,0,1,,,,,,,,,,0,,67,100
187200,note_on,,4,0,2,,,,,,,,,,1,,52,100
187292,note_on,,92,0,2,,,,,,,,,,1,,52,0
187296,note_on,,4,0,2,,,,,,,,,,1,,62,100
187388,note_on,,92,0,2,,,,,,,,,,1,,62,0
187388,note_on,,188,0,1,,,,,,,,,,0,,67,0
187392,note_on,,4,0,2,,,,,,,,,,1,,52,100
187392,note_on,,4,0,1,,,,,,,,,,0,,73,100
187484,note_on,,92,0,2,,,,,,,,,,1,,52,0
187488,note_on,,4,0,2,,,,,,,,,,1,,61,100
187580,note_on,,188,0,1,,,,,,,,,,0,,73,0
187580,note_on,,92,0,2,,,,,,,,,,1,,61,0
187584,note_on,,4,0,2,,,,,,,,,,1,,52,100
187584,note_on,,4,0,1,,,,,,,,,,0,,67,100
187676,note_on,,92,0,2,,,,,,,,,,1,,52,0
187680,note_on,,4,0,2,,,,,,,,,,1,,61,100
187772,note_on,,92,0,2,,,,,,,,,,1,,61,0
187772,note_on,,188,0,1,,,,,,,,,,0,,67,0
187776,note_on,,4,0,2,,,,,,,,,,1,,51,100
187776,note_on,,4,0,1,,,,,,,,,,0,,79,100
187868,note_on,,92,0,2,,,,,,,,,,1,,51,0
187872,note_on,,4,0,2,,,,,,,,,,1,,60,100
187964,note_on,,92,0,2,,,,,,,,,,1,,60,0
187964,note_on,,188,0,1,,,,,,,,,,0,,79,0
187968,note_on,,4,0,2,,,,,,,,,,1,,51,100
187968,note_on,,4,0,1,,,,,,,,,,0,,72,100
188060,note_on,,92,0,2,,,,,,,,,,1,,51,0
188064,note_on,,4,0,2,,,,,,,,,,1,,60,100
188156,note_on,,92,0,2,,,,,,,,,,1,,60,0
188156,note_on,,188,0,1,,,,,,,,,,0,,72,0
188160,note_on,,4,0,2,,,,,,,,,,1,,50,100
188160,note_on,,4,0,1,,,,,,,,,,0,,78,100
188252,note_on,,92,0,2,,,,,,,,,,1,,50,0
188256,note_on,,4,0,2,,,,,,,,,,1,,60,100
188348,note_on,,92,0,2,,,,,,,,,,1,,60,0
188348,note_on,,188,0,1,,,,,,,,,,0,,78,0
188352,note_on,,4,0,1,,,,,,,,,,0,,74,100
188352,note_on,,4,0,2,,,,,,,,,,1,,50,100
188444,note_on,,92,0,2,,,,,,,,,,1,,50,0
188448,note_on,,4,0,2,,,,,,,,,,1,,60,100
188540,note_on,,92,0,2,,,,,,,,,,1,,60,0
188540,note_on,,188,0,1,,,,,,,,,,0,,74,0
188544,note_on,,4,0,2,,,,,,,,,,1,,55,100
188544,note_on,,4,0,1,,,,,,,,,,0,,77,100
188636,note_on,,92,0,2,,,,,,,,,,1,,55,0
188640,note_on,,4,0,2,,,,,,,,,,1,,59,100
188732,note_on,,92,0,2,,,,,,,,,,1,,59,0
188736,note_on,,4,0,2,,,,,,,,,,1,,55,100
188736,note_on,,192,0,1,,,,,,,,,,0,,74,100
188828,note_on,,92,0,2,,,,,,,,,,1,,55,0
188832,note_on,,4,0,2,,,,,,,,,,1,,59,100
188924,note_on,,188,0,1,,,,,,,,,,0,,74,0
188924,note_on,,92,0,2,,,,,,,,,,1,,59,0
188928,note_on,,4,0,1,,,,,,,,,,0,,71,100
188928,note_on,,4,0,2,,,,,,,,,,1,,55,100
189020,note_on,,92,0,2,,,,,,,,,,1,,55,0
189024,note_on,,4,0,2,,,,,,,,,,1,,59,100
189056,note_on,,128,0,1,,,,,,,,,,0,,77,0
189116,note_on,,92,0,2,,,,,,,,,,1,,59,0
189120,note_on,,64,0,1,,,,,,,,,,0,,77,100
189120,note_on,,4,0,2,,,,,,,,,,1,,55,100
189212,note_on,,92,0,2,,,,,,,,,,1,,55,0
189216,note_on,,4,0,2,,,,,,,,,,1,,59,100
189248,note_on,,128,0,1,,,,,,,,,,0,,71,0
189308,note_on,,60,0,1,,,,,,,,,,0,,77,0
189308,note_on,,92,0,2,,,,,,,,,,1,,59,0
189312,note_on,,4,0,1,,,,,,,,,,0,,76,100
189312,note_on,,4,0,2,,,,,,,,,,1,,48,100
189404,note_on,,92,0,2,,,,,,,,,,1,,48,0
189408,note_on,,4,0,2,,,,,,,,,,1,,58,100
189500,note_on,,92,0,2,,,,,,,,,,1,,58,0
189504,note_on,,192,0,1,,,,,,,,,,0,,72,100
189504,note_on,,4,0,2,,,,,,,,,,1,,48,100
189596,note_on,,92,0,2,,,,,,,,,,1,,48,0
189600,note_on,,4,0,2,,,,,,,,,,1,,58,100
189632,note_on,,128,0,1,,,,,,,,,,0,,76,0
189692,note_on,,92,0,2,,,,,,,,,,1,,58,0
189692,note_on,,60,0,1,,,,,,,,,,0,,72,0
189696,note_on,,4,0,1,,,,,,,,,,0,,75,100
189696,note_on,,4,0,2,,,,,,,,,,1,,53,100
189788,note_on,,92,0,2,,,,,,,,,,1,,53,0
189792,note_on,,4,0,2,,,,,,,,,,1,,57,100
189884,note_on,,92,0,2,,,,,,,,,,1,,57,0
189888,note_on,,192,0,1,,,,,,,,,,0,,65,100
189888,note_on,,4,0,2,,,,,,,,,,1,,53,100
189980,note_on,,92,0,2,,,,,,,,,,1,,53,0
189984,note_on,,4,0,2,,,,,,,,,,1,,57,100
190076,note_on,,188,0,1,,,,,,,,,,0,,65,0
190076,note_on,,92,0,2,,,,,,,,,,1,,57,0
190080,note_on,,4,0,2,,,,,,,,,,1,,53,100
190080,note_on,,4,0,1,,,,,,,,,,0,,72,100
190172,note_on,,92,0,2,,,,,,,,,,1,,53,0
190176,note_on,,4,0,2,,,,,,,,,,1,,57,100
190208,note_on,,128,0,1,,,,,,,,,,0,,75,0
190268,note_on,,92,0,2,,,,,,,,,,1,,57,0
190272,note_on,,4,0,2,,,,,,,,,,1,,53,100
190272,note_on,,64,0,1,,,,,,,,,,0,,75,100
190364,note_on,,92,0,2,,,,,,,,,,1,,53,0
190368,note_on,,4,0,2,,,,,,,,,,1,,57,100
190400,note_on,,128,0,1,,,,,,,,,,0,,72,0
190460,note_on,,60,0,1,,,,,,,,,,0,,75,0
190460,note_on,,92,0,2,,,,,,,,,,1,,57,0
190464,note_on,,4,0,2,,,,,,,,,,1,,46,100
190464,note_on,,4,0,1,,,,,,,,,,0,,74,100
190556,note_on,,92,0,2,,,,,,,,,,1,,46,0
190560,note_on,,4,0,2,,,,,,,,,,1,,56,100
190652,note_on,,92,0,2,,,,,,,,,,1,,56,0
190656,note_on,,192,0,1,,,,,,,,,,0,,62,100
190656,note_on,,4,0,2,,,,,,,,,,1,,46,100
190748,note_on,,92,0,2,,,,,,,,,,1,,46,0
190752,note_on,,4,0,2,,,,,,,,,,1,,56,100
190844,note_on,,188,0,1,,,,,,,,,,0,,62,0
190844,note_on,,92,0,2,,,,,,,,,,1,,56,0
190848,note_on,,4,0,1,,,,,,,,,,0,,67,100
190848,note_on,,4,0,2,,,,,,,,,,1,,46,100
190940,note_on,,92,0,2,,,,,,,,,,1,,46,0
190944,note_on,,4,0,2,,,,,,,,,,1,,55,100
190976,note_on,,128,0,1,,,,,,,,,,0,,74,0
191036,note_on,,92,0,2,,,,,,,,,,1,,55,0
191040,note_on,,64,0,1,,,,,,,,,,0,,74,100
191040,note_on,,4,0,2,,,,,,,,,,1,,46,100
191132,note_on,,92,0,2,,,,,,,,,,1,,46,0
191136,note_on,,4,0,2,,,,,,,,,,1,,55,100
191168,note_on,,128,0,1,,,,,,,,,,0,,67,0
191228,note_on,,60,0,1,,,,,,,,,,0,,74,0
191228,note_on,,92,0,2,,,,,,,,,,1,,55,0
191232,note_on,,4,0,2,,,,,,,,,,1,,46,100
191232,note_on,,4,0,1,,,,,,,,,,0,,79,100
191324,note_on,,92,0,2,,,,,,,,,,1,,46,0
191328,note_on,,4,0,2,,,,,,,,,,1,,55,100
191420,note_on,,188,0,1,,,,,,,,,,0,,79,0
191420,note_on,,92,0,2,,,,,,,,,,1,,55,0
191424,note_on,,4,0,2,,,,,,,,,,1,,46,100
191424,note_on,,4,0,1,,,,,,,,,,0,,67,100
191516,note_on,,92,0,2,,,,,,,,,,1,,46,0
191520,note_on,,4,0,2,,,,,,,,,,1,,55,100
191612,note_on,,92,0,2,,,,,,,,,,1,,55,0
191612,note_on,,188,0,1,,,,,,,,,,0,,67,0
191616,note_on,,4,0,2,,,,,,,,,,1,,48,100
191616,note_on,,0,0,1,,,,,,,,,,0,,67,100
191616,note_on,,4,0,1,,,,,,,,,,0,,75,100
191708,note_on,,92,0,2,,,,,,,,,,1,,48,0
191712,note_on,,4,0,2,,,,,,,,,,1,,55,100
191804,note_on,,188,0,1,,,,,,,,,,0,,75,0
191804,note_on,,92,0,2,,,,,,,,,,1,,55,0
191808,note_on,,4,0,2,,,,,,,,,,1,,48,100
191808,note_on,,4,0,1,,,,,,,,,,0,,69,100
191900,note_on,,92,0,2,,,,,,,,,,1,,48,0
191904,note_on,,4,0,2,,,,,,,,,,1,,55,100
191936,note_on,,128,0,1,,,,,,,,,,0,,67,0
191996,note_on,,92,0,2,,,,,,,,,,1,,55,0
191996,note_on,,60,0,1,,,,,,,,,,0,,69,0
192000,note_on,,4,0,2,,,,,,,,,,1,,50,100
192000,note_on,,0,0,1,,,,,,,,,,0,,62,100
192000,note_on,,4,0,1,,,,,,,,,,0,,70,100
192092,note_on,,92,0,2,,,,,,,,,,1,,50,0
192096,note_on,,4,0,2,,,,,,,,,,1,,55,100
192188,note_on,,92,0,2,,,,,,,,,,1,,55,0
192188,note_on,,188,0,1,,,,,,,,,,0,,62,0
192192,note_on,,4,0,1,,,,,,,,,,0,,67,100
192192,note_on,,4,0,2,,,,,,,,,,1,,50,100
192284,note_on,,92,0,2,,,,,,,,,,1,,50,0
192288,note_on,,4,0,2,,,,,,,,,,1,,55,100
192320,note_on,,128,0,1,,,,,,,,,,0,,70,0
192380,note_on,,60,0,1,,,,,,,,,,0,,67,0
192380,note_on,,92,0,2,,,,,,,,,,1,,55,0
192384,note_on,,4,0,1,,,,,,,,,,0,,69,100
192384,note_on,,4,0,2,,,,,,,,,,1,,50,100
192384,note_on,,0,0,1,,,,,,,,,,0,,66,100
192476,note_on,,92,0,2,,,,,,,,,,1,,50,0
192480,note_on,,4,0,2,,,,,,,,,,1,,54,100
192572,note_on,,92,0,2,,,,,,,,,,1,,54,0
192572,note_on,,188,0,1,,,,,,,,,,0,,66,0
192576,note_on,,4,0,1,,,,,,,,,,0,,60,100
192576,note_on,,4,0,2,,,,,,,,,,1,,50,100
192668,note_on,,92,0,2,,,,,,,,,,1,,50,0
192672,note_on,,4,0,2,,,,,,,,,,1,,54,100
192704,note_on,,128,0,1,,,,,,,,,,0,,69,0
192764,note_on,,92,0,2,,,,,,,,,,1,,54,0
192764,note_on,,60,0,1,,,,,,,,,,0,,60,0
192768,note_on,,4,0,2,,,,,,,,,,1,,55,100
192768,note_on,,4,0,1,,,,,,,,,,0,,58,100
192768,note_on,,0,0,1,,,,,,,,,,0,,62,100
192768,note_on,,0,0,1,,,,,,,,,,0,,67,100
192860,note_on,,92,0,2,,,,,,,,,,1,,55,0
192864,note_on,,4,0,2,,,,,,,,,,1,,50,100
192956,note_on,,92,0,2,,,,,,,,,,1,,50,0
192960,note_on,,4,0,2,,,,,,,,,,1,,48,100
193052,note_on,,92,0,2,,,,,,,,,,1,,48,0
193056,note_on,,4,0,2,,,,,,,,,,1,,50,100
193148,note_on,,92,0,2,,,,,,,,,,1,,50,0
193152,note_on,,4,0,2,,,,,,,,,,1,,46,100
193244,note_on,,92,0,2,,,,,,,,,,1,,46,0
193248,note_on,,4,0,2,,,,,,,,,,1,,50,100
193340,note_on,,92,0,2,,,,,,,,,,1,,50,0
193344,note_on,,4,0,2,,,,,,,,,,1,,48,100
193436,note_on,,92,0,2,,,,,,,,,,1,,48,0
193440,note_on,,4,0,2,,,,,,,,,,1,,50,100
193532,note_on,,92,0,2,,,,,,,,,,1,,50,0
193536,note_on,,4,0,2,,,,,,,,,,1,,43,100
193628,note_on,,92,0,2,,,,,,,,,,1,,43,0
193632,note_on,,4,0,2,,,,,,,,,,1,,60,100
193724,note_on,,92,0,2,,,,,,,,,,1,,60,0
193728,note_on,,4,0,2,,,,,,,,,,1,,58,100
193820,note_on,,92,0,2,,,,,,,,,,1,,58,0
193824,note_on,,1056,0,1,,,,,,,,,,0,,67,0
193824,note_on,,0,0,1,,,,,,,,,,0,,62,0
193824,note_on,,0,0,1,,,,,,,,,,0,,58,0
193824,note_on,,4,0,2,,,,,,,,,,1,,57,100
193916,note_on,,92,0,2,,,,,,,,,,1,,57,0
193920,note_on,,4,0,2,,,,,,,,,,1,,55,100
193920,note_on,,96,0,1,,,,,,,,,,0,,82,100
193920,set_tempo,,9216,1,0,,,,,,600000,,,,,,,
194012,note_on,,92,0,2,,,,,,,,,,1,,55,0
194016,note_on,,4,0,2,,,,,,,,,,1,,62,100
194108,note_on,,92,0,2,,,,,,,,,,1,,62,0
194112,note_on,,4,0,2,,,,,,,,,,1,,55,100
194204,note_on,,92,0,2,,,,,,,,,,1,,55,0
194208,note_on,,4,0,2,,,,,,,,,,1,,62,100
194300,note_on,,92,0,2,,,,,,,,,,1,,62,0
194304,note_on,,4,0,2,,,,,,,,,,1,,55,100
194396,note_on,,92,0,2,,,,,,,,,,1,,55,0
194400,note_on,,4,0,2,,,,,,,,,,1,,63,100
194432,note_on,,512,0,1,,,,,,,,,,0,,82,0
194492,note_on,,92,0,2,,,,,,,,,,1,,63,0
194496,note_on,,4,0,2,,,,,,,,,,1,,55,100
194496,note_on,,64,0,1,,,,,,,,,,0,,70,100
194588,note_on,,92,0,2,,,,,,,,,,1,,55,0
194592,note_on,,4,0,2,,,,,,,,,,1,,63,100
194684,note_on,,92,0,2,,,,,,,,,,1,,63,0
194684,note_on,,188,0,1,,,,,,,,,,0,,70,0
194688,note_on,,4,0,2,,,,,,,,,,1,,55,100
194688,note_on,,4,0,1,,,,,,,,,,0,,75,100
194780,note_on,,92,0,2,,,,,,,,,,1,,55,0
194784,note_on,,4,0,2,,,,,,,,,,1,,63,100
194876,note_on,,92,0,2,,,,,,,,,,1,,63,0
194876,note_on,,188,0,1,,,,,,,,,,0,,75,0
194880,note_on,,4,0,2,,,,,,,,,,1,,55,100
194880,note_on,,4,0,1,,,,,,,,,,0,,82,100
194972,note_on,,92,0,2,,,,,,,,,,1,,55,0
194976,note_on,,4,0,2,,,,,,,,,,1,,63,100
195068,note_on,,188,0,1,,,,,,,,,,0,,82,0
195068,note_on,,92,0,2,,,,,,,,,,1,,63,0
195072,note_on,,4,0,2,,,,,,,,,,1,,54,100
195072,note_on,,4,0,1,,,,,,,,,,0,,81,100
195164,note_on,,92,0,2,,,,,,,,,,1,,54,0
195168,note_on,,4,0,2,,,,,,,,,,1,,63,100
195260,note_on,,92,0,2,,,,,,,,,,1,,63,0
195260,note_on,,188,0,1,,,,,,,,,,0,,81,0
195264,note_on,,4,0,1,,,,,,,,,,0,,69,100
195264,note_on,,4,0,2,,,,,,,,,,1,,54,100
195356,note_on,,92,0,2,,,,,,,,,,1,,54,0
195360,note_on,,4,0,2,,,,,,,,,,1,,63,100
195452,note_on,,92,0,2,,,,,,,,,,1,,63,0
195452,note_on,,188,0,1,,,,,,,,,,0,,69,0
195456,note_on,,4,0,2,,,,,,,,,,1,,53,100
195456,note_on,,4,0,1,,,,,,,,,,0,,74,100
195548,note_on,,92,0,2,,,,,,,,,,1,,53,0
195552,note_on,,4,0,2,,,,,,,,,,1,,62,100
195644,note_on,,92,0,2,,,,,,,,,,1,,62,0
195648,note_on,,4,0,2,,,,,,,,,,1,,53,100
195740,note_on,,92,0,2,,,,,,,,,,1,,53,0
195744,note_on,,4,0,2,,,,,,,,,,1,,62,100
195836,note_on,,92,0,2,,,,,,,,,,1,,62,0
195840,note_on,,4,0,2,,,,,,,,,,1,,53,100
195932,note_on,,92,0,2,,,,,,,,,,1,,53,0
195936,note_on,,4,0,2,,,,,,,,,,1,,62,100
195968,note_on,,512,0,1,,,,,,,,,,0,,74,0
196028,note_on,,92,0,2,,,,,,,,,,1,,62,0
196032,note_on,,64,0,1,,,,,,,,,,0,,81,100
196032,note_on,,4,0,2,,,,,,,,,,1,,53,100
196124,note_on,,92,0,2,,,,,,,,,,1,,53,0
196128,note_on,,4,0,2,,,,,,,,,,1,,62,100
196220,note_on,,188,0,1,,,,,,,,,,0,,81,0
196220,note_on,,92,0,2,,,,,,,,,,1,,62,0
196224,note_on,,4,0,1,,,,,,,,,,0,,79,100
196224,note_on,,4,0,2,,,,,,,,,,1,,52,100
196316,note_on,,92,0,2,,,,,,,,,,1,,52,0
196320,note_on,,4,0,2,,,,,,,,,,1,,62,100
196412,note_on,,188,0,1,,,,,,,,,,0,,79,0
196412,note_on,,92,0,2,,,,,,,,,,1,,62,0
196416,note_on,,4,0,1,,,,,,,,,,0,,67,100
196416,note_on,,4,0,2,,,,,,,,,,1,,52,100
196508,note_on,,92,0,2,,,,,,,,,,1,,52,0
196512,note_on,,4,0,2,,,,,,,,,,1,,62,100
196604,note_on,,188,0,1,,,,,,,,,,0,,67,0
196604,note_on,,92,0,2,,,,,,,,,,1,,62,0
196608,note_on,,4,0,1,,,,,,,,,,0,,73,100
196608,note_on,,4,0,2,,,,,,,,,,1,,52,100
196700,note_on,,92,0,2,,,,,,,,,,1,,52,0
196704,note_on,,4,0,2,,,,,,,,,,1,,61,100
196796,note_on,,92,0,2,,,,,,,,,,1,,61,0
196796,note_on,,188,0,1,,,,,,,,,,0,,73,0
196800,note_on,,4,0,2,,,,,,,,,,1,,52,100
196800,note_on,,4,0,1,,,,,,,,,,0,,67,100
196892,note_on,,92,0,2,,,,,,,,,,1,,52,0
196896,note_on,,4,0,2,,,,,,,,,,1,,61,100
196988,note_on,,92,0,2,,,,,,,,,,1,,61,0
196988,note_on,,188,0,1,,,,,,,,,,0,,67,0
196992,note_on,,4,0,2,,,,,,,,,,1,,51,100
196992,note_on,,4,0,1,,,,,,,,,,0,,79,100
197084,note_on,,92,0,2,,,,,,,,,,1,,51,0
197088,note_on,,4,0,2,,,,,,,,,,1,,60,100
197180,note_on,,188,0,1,,,,,,,,,,0,,79,0
197180,note_on,,92,0,2,,,,,,,,,,1,,60,0
197184,note_on,,4,0,1,,,,,,,,,,0,,72,100
197184,note_on,,4,0,2,,,,,,,,,,1,,51,100
197276,note_on,,92,0,2,,,,,,,,,,1,,51,0
197280,note_on,,4,0,2,,,,,,,,,,1,,60,100
197372,note_on,,188,0,1,,,,,,,,,,0,,72,0
197372,note_on,,92,0,2,,,,,,,,,,1,,60,0
197376,note_on,,4,0,2,,,,,,,,,,1,,50,100
197376,note_on,,4,0,1,,,,,,,,,,0,,78,100
197468,note_on,,92,0,2,,,,,,,,,,1,,50,0
197472,note_on,,4,0,2,,,,,,,,,,1,,60,100
197564,note_on,,188,0,1,,,,,,,,,,0,,78,0
197564,note_on,,92,0,2,,,,,,,,,,1,,60,0
197568,note_on,,4,0,2,,,,,,,,,,1,,50,100
197568,note_on,,4,0,1,,,,,,,,,,0,,74,100
197660,note_on,,92,0,2,,,,,,,,,,1,,50,0
197664,note_on,,4,0,2,,,,,,,,,,1,,60,100
197756,note_on,,92,0,2,,,,,,,,,,1,,60,0
197756,note_on,,188,0,1,,,,,,,,,,0,,74,0
197760,note_on,,4,0,2,,,,,,,,,,1,,55,100
197760,note_on,,4,0,1,,,,,,,,,,0,,77,100
197852,note_on,,92,0,2,,,,,,,,,,1,,55,0
197856,note_on,,4,0,2,,,,,,,,,,1,,59,100
197948,note_on,,92,0,2,,,,,,,,,,1,,59,0
197952,note_on,,4,0,2,,,,,,,,,,1,,55,100
197952,note_on,,192,0,1,,,,,,,,,,0,,74,100
198044,note_on,,92,0,2,,,,,,,,,,1,,55,0
198048,note_on,,4,0,2,,,,,,,,,,1,,59,100
198140,note_on,,92,0,2,,,,,,,,,,1,,59,0
198140,note_on,,188,0,1,,,,,,,,,,0,,74,0
198144,note_on,,4,0,1,,,,,,,,,,0,,71,100
198144,note_on,,4,0,2,,,,,,,,,,1,,55,100
198236,note_on,,92,0,2,,,,,,,,,,1,,55,0
198240,note_on,,4,0,2,,,,,,,,,,1,,59,100
198272,note_on,,128,0,1,,,,,,,,,,0,,77,0
198332,note_on,,92,0,2,,,,,,,,,,1,,59,0
198336,note_on,,64,0,1,,,,,,,,,,0,,77,100
198336,note_on,,4,0,2,,,,,,,,,,1,,55,100
198428,note_on,,92,0,2,,,,,,,,,,1,,55,0
198432,note_on,,4,0,2,,,,,,,,,,1,,59,100
198464,note_on,,128,0,1,,,,,,,,,,0,,71,0
198524,note_on,,60,0,1,,,,,,,,,,0,,77,0
198524,note_on,,92,0,2,,,,,,,,,,1,,59,0
198528,note_on,,4,0,1,,,,,,,,,,0,,76,100
198528,note_on,,4,0,2,,,,,,,,,,1,,48,100
198620,note_on,,92,0,2,,,,,,,,,,1,,48,0
198624,note_on,,4,0,2,,,,,,,,,,1,,58,100
198716,note_on,,92,0,2,,,,,,,,,,1,,58,0
198720,note_on,,4,0,2,,,,,,,,,,1,,48,100
198720,note_on,,192,0,1,,,,,,,,,,0,,72,100
198812,note_on,,92,0,2,,,,,,,,,,1,,48,0
198816,note_on,,4,0,2,,,,,,,,,,1,,58,100
198848,note_on,,128,0,1,,,,,,,,,,0,,76,0
198908,note_on,,92,0,2,,,,,,,,,,1,,58,0
198908,note_on,,60,0,1,,,,,,,,,,0,,72,0
198912,note_on,,4,0,1,,,,,,,,,,0,,75,100
198912,note_on,,4,0,2,,,,,,,,,,1,,53,100
199004,note_on,,92,0,2,,,,,,,,,,1,,53,0
199008,note_on,,4,0,2,,,,,,,,,,1,,57,100
199100,note_on,,92,0,2,,,,,,,,,,1,,57,0
199104,note_on,,4,0,2,,,,,,,,,,1,,53,100
199104,note_on,,192,0,1,,,,,,,,,,0,,65,100
199196,note_on,,92,0,2,,,,,,,,,,1,,53,0
199200,note_on,,4,0,2,,,,,,,,,,1,,57,100
199292,note_on,,92,0,2,,,,,,,,,,1,,57,0
199292,note_on,,188,0,1,,,,,,,,,,0,,65,0
199296,note_on,,4,0,2,,,,,,,,,,1,,53,100
199296,note_on,,4,0,1,,,,,,,,,,0,,72,100
199388,note_on,,92,0,2,,,,,,,,,,1,,53,0
199392,note_on,,4,0,2,,,,,,,,,,1,,57,100
199424,note_on,,128,0,1,,,,,,,,,,0,,75,0
199484,note_on,,92,0,2,,,,,,,,,,1,,57,0
199488,note_on,,64,0,1,,,,,,,,,,0,,75,100
199488,note_on,,4,0,2,,,,,,,,,,1,,53,100
199580,note_on,,92,0,2,,,,,,,,,,1,,53,0
199584,note_on,,4,0,2,,,,,,,,,,1,,57,100
199616,note_on,,128,0,1,,,,,,,,,,0,,72,0
199676,note_on,,60,0,1,,,,,,,,,,0,,75,0
199676,note_on,,92,0,2,,,,,,,,,,1,,57,0
199680,note_on,,4,0,2,,,,,,,,,,1,,46,100
199680,note_on,,4,0,1,,,,,,,,,,0,,74,100
199772,note_on,,92,0,2,,,,,,,,,,1,,46,0
199776,note_on,,4,0,2,,,,,,,,,,1,,56,100
199868,note_on,,92,0,2,,,,,,,,,,1,,56,0
199872,note_on,,4,0,2,,,,,,,,,,1,,46,100
199872,note_on,,192,0,1,,,,,,,,,,0,,62,100
199964,note_on,,92,0,2,,,,,,,,,,1,,46,0
199968,note_on,,4,0,2,,,,,,,,,,1,,56,100
200060,note_on,,188,0,1,,,,,,,,,,0,,62,0
200060,note_on,,92,0,2,,,,,,,,,,1,,56,0
200064,note_on,,4,0,1,,,,,,,,,,0,,67,100
200064,note_on,,4,0,2,,,,,,,,,,1,,46,100
200156,note_on,,92,0,2,,,,,,,,,,1,,46,0
200160,note_on,,4,0,2,,,,,,,,,,1,,55,100
200192,note_on,,128,0,1,,,,,,,,,,0,,74,0
200252,note_on,,92,0,2,,,,,,,,,,1,,55,0
200256,note_on,,4,0,2,,,,,,,,,,1,,46,100
200256,note_on,,64,0,1,,,,,,,,,,0,,74,100
200348,note_on,,92,0,2,,,,,,,,,,1,,46,0
200352,note_on,,4,0,2,,,,,,,,,,1,,55,100
200384,note_on,,128,0,1,,,,,,,,,,0,,67,0
200444,note_on,,60,0,1,,,,,,,,,,0,,74,0
200444,note_on,,92,0,2,,,,,,,,,,1,,55,0
200448,note_on,,4,0,2,,,,,,,,,,1,,46,100
200448,note_on,,4,0,1,,,,,,,,,,0,,79,100
200540,note_on,,92,0,2,,,,,,,,,,1,,46,0
200544,note_on,,4,0,2,,,,,,,,,,1,,55,100
200636,note_on,,188,0,1,,,,,,,,,,0,,79,0
200636,note_on,,92,0,2,,,,,,,,,,1,,55,0
200640,note_on,,4,0,1,,,,,,,,,,0,,67,100
200640,note_on,,4,0,2,,,,,,,,,,1,,46,100
200732,note_on,,92,0,2,,,,,,,,,,1,,46,0
200736,note_on,,4,0,2,,,,,,,,,,1,,55,100
200828,note_on,,92,0,2,,,,,,,,,,1,,55,0
200828,note_on,,188,0,1,,,,,,,,,,0,,67,0
200832,note_on,,4,0,1,,,,,,,,,,0,,75,100
200832,note_on,,0,0,1,,,,,,,,,,0,,67,100
200832,note_on,,4,0,2,,,,,,,,,,1,,48,100
200924,note_on,,92,0,2,,,,,,,,,,1,,48,0
200928,note_on,,4,0,2,,,,,,,,,,1,,55,100
201020,note_on,,92,0,2,,,,,,,,,,1,,55,0
201020,note_on,,188,0,1,,,,,,,,,,0,,75,0
201024,note_on,,4,0,1,,,,,,,,,,0,,69,100
201024,note_on,,4,0,2,,,,,,,,,,1,,48,100
201116,note_on,,92,0,2,,,,,,,,,,1,,48,0
201120,note_on,,4,0,2,,,,,,,,,,1,,55,100
201152,note_on,,128,0,1,,,,,,,,,,0,,67,0
201212,note_on,,60,0,1,,,,,,,,,,0,,69,0
201212,note_on,,92,0,2,,,,,,,,,,1,,55,0
201216,note_on,,4,0,1,,,,,,,,,,0,,70,100
201216,note_on,,0,0,1,,,,,,,,,,0,,62,100
201216,note_on,,4,0,2,,,,,,,,,,1,,50,100
201308,note_on,,92,0,2,,,,,,,,,,1,,50,0
201312,note_on,,4,0,2,,,,,,,,,,1,,55,100
201404,note_on,,92,0,2,,,,,,,,,,1,,55,0
201404,note_on,,188,0,1,,,,,,,,,,0,,62,0
201408,note_on,,4,0,1,,,,,,,,,,0,,67,100
201408,note_on,,4,0,2,,,,,,,,,,1,,50,100
201500,note_on,,92,0,2,,,,,,,,,,1,,50,0
201504,note_on,,4,0,2,,,,,,,,,,1,,55,100
201536,note_on,,128,0,1,,,,,,,,,,0,,70,0
201596,note_on,,92,0,2,,,,,,,,,,1,,55,0
201596,note_on,,60,0,1,,,,,,,,,,0,,67,0
201600,note_on,,4,0,2,,,,,,,,,,1,,50,100
201600,note_on,,0,0,1,,,,,,,,,,0,,66,100
201600,note_on,,4,0,1,,,,,,,,,,0,,69,100
201692,note_on,,92,0,2,,,,,,,,,,1,,50,0
201696,note_on,,4,0,2,,,,,,,,,,1,,54,100
201788,note_on,,92,0,2,,,,,,,,,,1,,54,0
201788,note_on,,188,0,1,,,,,,,,,,0,,66,0
201792,note_on,,4,0,1,,,,,,,,,,0,,60,100
201792,note_on,,4,0,2,,,,,,,,,,1,,50,100
201884,note_on,,92,0,2,,,,,,,,,,1,,50,0
201888,note_on,,4,0,2,,,,,,,,,,1,,54,100
201920,note_on,,128,0,1,,,,,,,,,,0,,69,0
201980,note_on,,92,0,2,,,,,,,,,,1,,54,0
201980,note_on,,60,0,1,,,,,,,,,,0,,60,0
201984,note_on,,0,0,1,,,,,,,,,,0,,62,100
201984,note_on,,4,0,2,,,,,,,,,,1,,55,100
201984,note_on,,4,0,1,,,,,,,,,,0,,58,100
201984,note_on,,0,0,1,,,,,,,,,,0,,67,100
202076,note_on,,92,0,2,,,,,,,,,,1,,55,0
202080,note_on,,4,0,2,,,,,,,,,,1,,50,100
202172,note_on,,92,0,2,,,,,,,,,,1,,50,0
202176,note_on,,4,0,2,,,,,,,,,,1,,48,100
202268,note_on,,92,0,2,,,,,,,,,,1,,48,0
202272,note_on,,4,0,2,,,,,,,,,,1,,50,100
202364,note_on,,92,0,2,,,,,,,,,,1,,50,0
202368,note_on,,4,0,2,,,,,,,,,,1,,46,100
202460,note_on,,92,0,2,,,,,,,,,,1,,46,0
202464,note_on,,4,0,2,,,,,,,,,,1,,50,100
202556,note_on,,92,0,2,,,,,,,,,,1,,50,0
202560,note_on,,4,0,2,,,,,,,,,,1,,48,100
202652,note_on,,92,0,2,,,,,,,,,,1,,48,0
202656,note_on,,4,0,2,,,,,,,,,,1,,50,100
202748,note_on,,92,0,2,,,,,,,,,,1,,50,0
202752,note_on,,4,0,2,,,,,,,,,,1,,43,100
202844,note_on,,92,0,2,,,,,,,,,,1,,43,0
202848,note_on,,4,0,2,,,,,,,,,,1,,60,100
202940,note_on,,92,0,2,,,,,,,,,,1,,60,0
202944,note_on,,4,0,2,,,,,,,,,,1,,58,100
203036,note_on,,92,0,2,,,,,,,,,,1,,58,0
203040,note_on,,4,0,2,,,,,,,,,,1,,57,100
203040,note_on,,0,0,1,,,,,,,,,,0,,58,0
203040,note_on,,0,0,1,,,,,,,,,,0,,62,0
203040,note_on,,1056,0,1,,,,,,,,,,0,,67,0
203132,note_on,,92,0,2,,,,,,,,,,1,,57,0
203136,note_on,,4,0,2,,,,,,,,,,1,,55,100
203136,note_on,,0,0,2,,,,,,,,,,1,,59,100
203136,note_on,,0,0,2,,,,,,,,,,1,,62,100
203232,note_on,,192,0,1,,,,,,,,,,0,,74,100
203324,note_on,,92,0,1,,,,,,,,,,0,,74,0
203328,note_on,,4,0,1,,,,,,,,,,0,,72,100
203420,note_on,,92,0,1,,,,,,,,,,0,,72,0
203424,note_on,,4,0,1,,,,,,,,,,0,,74,100
203456,note_on,,0,0,2,,,,,,,,,,1,,55,0
203456,note_on,,0,0,2,,,,,,,,,,1,,59,0
203456,note_on,,320,0,2,,,,,,,,,,1,,62,0
203516,note_on,,92,0,1,,,,,,,,,,0,,74,0
203520,note_on,,4,0,1,,,,,,,,,,0,,71,100
203612,note_on,,92,0,1,,,,,,,,,,0,,71,0
203616,note_on,,4,0,1,,,,,,,,,,0,,74,100
203708,note_on,,92,0,1,,,,,,,,,,0,,74,0
203712,note_on,,4,0,1,,,,,,,,,,0,,69,100
203804,note_on,,92,0,1,,,,,,,,,,0,,69,0
203808,note_on,,4,0,1,,,,,,,,,,0,,74,100
203900,note_on,,92,0,1,,,,,,,,,,0,,74,0
203904,note_on,,4,0,1,,,,,,,,,,0,,67,100
203996,note_on,,92,0,1,,,,,,,,,,0,,67,0
204000,note_on,,4,0,1,,,,,,,,,,0,,74,100
204092,note_on,,92,0,1,,,,,,,,,,0,,74,0
204096,note_on,,4,0,1,,,,,,,,,,0,,71,100
204188,note_on,,92,0,1,,,,,,,,,,0,,71,0
204192,note_on,,4,0,1,,,,,,,,,,0,,74,100
204284,note_on,,92,0,1,,,,,,,,,,0,,74,0
204288,note_on,,0,0,2,,,,,,,,,,1,,57,100
204288,note_on,,0,0,2,,,,,,,,,,1,,62,100
204288,note_on,,4,0,1,,,,,,,,,,0,,69,100
204288,note_on,,832,0,2,,,,,,,,,,1,,54,100
204380,note_on,,92,0,1,,,,,,,,,,0,,69,0
204384,note_on,,4,0,1,,,,,,,,,,0,,74,100
204476,note_on,,92,0,1,,,,,,,,,,0,,74,0
204480,note_on,,4,0,1,,,,,,,,,,0,,67,100
204572,note_on,,92,0,1,,,,,,,,,,0,,67,0
204576,note_on,,4,0,1,,,,,,,,,,0,,74,100
204608,note_on,,320,0,2,,,,,,,,,,1,,62,0
204608,note_on,,0,0,2,,,,,,,,,,1,,57,0
204608,note_on,,0,0,2,,,,,,,,,,1,,54,0
204668,note_on,,92,0,1,,,,,,,,,,0,,74,0
204672,note_on,,4,0,1,,,,,,,,,,0,,66,100
204764,note_on,,92,0,1,,,,,,,,,,0,,66,0
204768,note_on,,4,0,1,,,,,,,,,,0,,74,100
204860,note_on,,92,0,1,,,,,,,,,,0,,74,0
204864,note_on,,4,0,1,,,,,,,,,,0,,64,100
204956,note_on,,92,0,1,,,,,,,,,,0,,64,0
204960,note_on,,4,0,1,,,,,,,,,,0,,74,100
205052,note_on,,92,0,1,,,,,,,,,,0,,74,0
205056,note_on,,4,0,1,,,,,,,,,,0,,62,100
205148,note_on,,92,0,1,,,,,,,,,,0,,62,0
205152,note_on,,4,0,1,,,,,,,,,,0,,74,100
205244,note_on,,92,0,1,,,,,,,,,,0,,74,0
205248,note_on,,4,0,1,,,,,,,,,,0,,73,100
205340,note_on,,92,0,1,,,,,,,,,,0,,73,0
205344,note_on,,4,0,1,,,,,,,,,,0,,74,100
205436,note_on,,92,0,1,,,,,,,,,,0,,74,0
205440,note_on,,0,0,2,,,,,,,,,,1,,61,100
205440,note_on,,0,0,2,,,,,,,,,,1,,55,100
205440,note_on,,832,0,2,,,,,,,,,,1,,52,100
205440,note_on,,4,0,1,,,,,,,,,,0,,67,100
205532,note_on,,92,0,1,,,,,,,,,,0,,67,0
205536,note_on,,4,0,1,,,,,,,,,,0,,79,100
205628,note_on,,92,0,1,,,,,,,,,,0,,79,0
205632,note_on,,4,0,1,,,,,,,,,,0,,78,100
205724,note_on,,92,0,1,,,,,,,,,,0,,78,0
205728,note_on,,4,0,1,,,,,,,,,,0,,79,100
205760,note_on,,0,0,2,,,,,,,,,,1,,52,0
205760,note_on,,320,0,2,,,,,,,,,,1,,61,0
205760,note_on,,0,0,2,,,,,,,,,,1,,55,0
205820,note_on,,92,0,1,,,,,,,,,,0,,79,0
205824,note_on,,4,0,1,,,,,,,,,,0,,76,100
205916,note_on,,92,0,1,,,,,,,,,,0,,76,0
205920,note_on,,4,0,1,,,,,,,,,,0,,79,100
206012,note_on,,92,0,1,,,,,,,,,,0,,79,0
206016,note_on,,4,0,1,,,,,,,,,,0,,74,100
206108,note_on,,92,0,1,,,,,,,,,,0,,74,0
206112,note_on,,4,0,1,,,,,,,,,,0,,79,100
206204,note_on,,92,0,1,,,,,,,,,,0,,79,0
206208,note_on,,4,0,1,,,,,,,,,,0,,73,100
206300,note_on,,92,0,1,,,,,,,,,,0,,73,0
206304,note_on,,4,0,1,,,,,,,,,,0,,83,100
206396,note_on,,92,0,1,,,,,,,,,,0,,83,0
206400,note_on,,4,0,1,,,,,,,,,,0,,81,100
206492,note_on,,92,0,1,,,,,,,,,,0,,81,0
206496,note_on,,4,0,1,,,,,,,,,,0,,79,100
206588,note_on,,92,0,1,,,,,,,,,,0,,79,0
206592,note_on,,832,0,2,,,,,,,,,,1,,50,100
206592,note_on,,0,0,2,,,,,,,,,,1,,57,100
206592,note_on,,0,0,2,,,,,,,,,,1,,62,100
206592,note_on,,4,0,1,,,,,,,,,,0,,78,100
206684,note_on,,92,0,1,,,,,,,,,,0,,78,0
206688,note_on,,4,0,1,,,,,,,,,,0,,81,100
206780,note_on,,92,0,1,,,,,,,,,,0,,81,0
206784,note_on,,4,0,1,,,,,,,,,,0,,79,100
206876,note_on,,92,0,1,,,,,,,,,,0,,79,0
206880,note_on,,4,0,1,,,,,,,,,,0,,81,100
206912,note_on,,320,0,2,,,,,,,,,,1,,62,0
206912,note_on,,0,0,2,,,,,,,,,,1,,57,0
206912,note_on,,0,0,2,,,,,,,,,,1,,50,0
206972,note_on,,92,0,1,,,,,,,,,,0,,81,0
206976,note_on,,4,0,1,,,,,,,,,,0,,78,100
207068,note_on,,92,0,1,,,,,,,,,,0,,78,0
207072,note_on,,4,0,1,,,,,,,,,,0,,81,100
207164,note_on,,92,0,1,,,,,,,,,,0,,81,0
207168,note_on,,4,0,1,,,,,,,,,,0,,76,100
207260,note_on,,92,0,1,,,,,,,,,,0,,76,0
207264,note_on,,4,0,1,,,,,,,,,,0,,81,100
207356,note_on,,92,0,1,,,,,,,,,,0,,81,0
207360,note_on,,4,0,1,,,,,,,,,,0,,74,100
207452,note_on,,92,0,1,,,,,,,,,,0,,74,0
207456,note_on,,4,0,1,,,,,,,,,,0,,81,100
207548,note_on,,92,0,1,,,,,,,,,,0,,81,0
207552,note_on,,4,0,1,,,,,,,,,,0,,72,100
207644,note_on,,92,0,1,,,,,,,,,,0,,72,0
207648,note_on,,4,0,1,,,,,,,,,,0,,81,100
207740,note_on,,92,0,1,,,,,,,,,,0,,81,0
207744,note_on,,832,0,2,,,,,,,,,,1,,55,100
207744,note_on,,0,0,2,,,,,,,,,,1,,62,100
207744,note_on,,4,0,1,,,,,,,,,,0,,71,100
207836,note_on,,92,0,1,,,,,,,,,,0,,71,0
207840,note_on,,4,0,1,,,,,,,,,,0,,79,100
207932,note_on,,92,0,1,,,,,,,,,,0,,79,0
207936,note_on,,4,0,1,,,,,,,,,,0,,78,100
208028,note_on,,92,0,1,,,,,,,,,,0,,78,0
208032,note_on,,4,0,1,,,,,,,,,,0,,79,100
208064,note_on,,320,0,2,,,,,,,,,,1,,62,0
208064,note_on,,0,0,2,,,,,,,,,,1,,55,0
208124,note_on,,92,0,1,,,,,,,,,,0,,79,0
208128,note_on,,4,0,1,,,,,,,,,,0,,76,100
208220,note_on,,92,0,1,,,,,,,,,,0,,76,0
208224,note_on,,4,0,1,,,,,,,,,,0,,79,100
208316,note_on,,92,0,1,,,,,,,,,,0,,79,0
208320,note_on,,4,0,1,,,,,,,,,,0,,74,100
208412,note_on,,92,0,1,,,,,,,,,,0,,74,0
208416,note_on,,4,0,1,,,,,,,,,,0,,79,100
208508,note_on,,92,0,1,,,,,,,,,,0,,79,0
208512,note_on,,4,0,1,,,,,,,,,,0,,72,100
208604,note_on,,92,0,1,,,,,,,,,,0,,72,0
208608,note_on,,4,0,1,,,,,,,,,,0,,79,100
208700,note_on,,92,0,1,,,,,,,,,,0,,79,0
208704,note_on,,4,0,1,,,,,,,,,,0,,71,100
208796,note_on,,92,0,1,,,,,,,,,,0,,71,0
208800,note_on,,4,0,1,,,,,,,,,,0,,79,100
208892,note_on,,92,0,1,,,,,,,,,,0,,79,0
208896,note_on,,4,0,1,,,,,,,,,,0,,69,100
208896,note_on,,0,0,2,,,,,,,,,,1,,57,100
208896,note_on,,0,0,2,,,,,,,,,,1,,52,100
208896,note_on,,832,0,2,,,,,,,,,,1,,48,100
208988,note_on,,92,0,1,,,,,,,,,,0,,69,0
208992,note_on,,4,0,1,,,,,,,,,,0,,79,100
209084,note_on,,92,0,1,,,,,,,,,,0,,79,0
209088,note_on,,4,0,1,,,,,,,,,,0,,78,100
209180,note_on,,92,0,1,,,,,,,,,,0,,78,0
209184,note_on,,4,0,1,,,,,,,,,,0,,79,100
209216,note_on,,0,0,2,,,,,,,,,,1,,48,0
209216,note_on,,0,0,2,,,,,,,,,,1,,52,0
209216,note_on,,320,0,2,,,,,,,,,,1,,57,0
209276,note_on,,92,0,1,,,,,,,,,,0,,79,0
209280,note_on,,4,0,1,,,,,,,,,,0,,76,100
209372,note_on,,92,0,1,,,,,,,,,,0,,76,0
209376,note_on,,4,0,1,,,,,,,,,,0,,79,100
209468,note_on,,92,0,1,,,,,,,,,,0,,79,0
209472,note_on,,4,0,1,,,,,,,,,,0,,74,100
209564,note_on,,92,0,1,,,,,,,,,,0,,74,0
209568,note_on,,4,0,1,,,,,,,,,,0,,79,100
209660,note_on,,92,0,1,,,,,,,,,,0,,79,0
209664,note_on,,4,0,1,,,,,,,,,,0,,72,100
209756,note_on,,92,0,1,,,,,,,,,,0,,72,0
209760,note_on,,4,0,1,,,,,,,,,,0,,79,100
209852,note_on,,92,0,1,,,,,,,,,,0,,79,0
209856,note_on,,4,0,1,,,,,,,,,,0,,71,100
209948,note_on,,92,0,1,,,,,,,,,,0,,71,0
209952,note_on,,4,0,1,,,,,,,,,,0,,79,100
210044,note_on,,92,0,1,,,,,,,,,,0,,79,0
210048,note_on,,832,0,2,,,,,,,,,,1,,50,100
210048,note_on,,4,0,1,,,,,,,,,,0,,69,100
210140,note_on,,92,0,1,,,,,,,,,,0,,69,0
210144,note_on,,4,0,1,,,,,,,,,,0,,83,100
210236,note_on,,92,0,1,,,,,,,,,,0,,83,0
210240,note_on,,4,0,1,,,,,,,,,,0,,81,100
210332,note_on,,92,0,1,,,,,,,,,,0,,81,0
210336,note_on,,4,0,1,,,,,,,,,,0,,79,100
210368,note_on,,320,0,2,,,,,,,,,,1,,50,0
210428,note_on,,92,0,1,,,,,,,,,,0,,79,0
210432,note_on,,64,0,2,,,,,,,,,,1,,38,100
210432,note_on,,4,0,1,,,,,,,,,,0,,78,100
210524,note_on,,92,0,1,,,,,,,,,,0,,78,0
210528,note_on,,4,0,1,,,,,,,,,,0,,79,100
210620,note_on,,92,0,1,,,,,,,,,,0,,79,0
210624,note_on,,4,0,1,,,,,,,,,,0,,81,100
210716,note_on,,92,0,1,,,,,,,,,,0,,81,0
210720,note_on,,4,0,1,,,,,,,,,,0,,79,100
210752,note_on,,320,0,2,,,,,,,,,,1,,38,0
210812,note_on,,92,0,1,,,,,,,,,,0,,79,0
210816,note_on,,64,0,2,,,,,,,,,,1,,50,100
210816,note_on,,4,0,1,,,,,,,,,,0,,78,100
210908,note_on,,92,0,1,,,,,,,,,,0,,78,0
210912,note_on,,4,0,1,,,,,,,,,,0,,79,100
211004,note_on,,92,0,1,,,,,,,,,,0,,79,0
211008,note_on,,4,0,1,,,,,,,,,,0,,76,100
211100,note_on,,92,0,1,,,,,,,,,,0,,76,0
211104,note_on,,4,0,1,,,,,,,,,,0,,78,100
211136,note_on,,320,0,2,,,,,,,,,,1,,50,0
211196,note_on,,92,0,1,,,,,,,,,,0,,78,0
211200,note_on,,64,0,2,,,,,,,,,,1,,43,100
211200,note_on,,4,0,1,,,,,,,,,,0,,79,100
211200,note_on,,0,0,2,,,,,,,,,,1,,47,100
211200,note_on,,0,0,2,,,,,,,,,,1,,50,100
211292,note_on,,92,0,1,,,,,,,,,,0,,79,0
211296,note_on,,4,0,1,,,,,,,,,,0,,74,100
211388,note_on,,92,0,1,,,,,,,,,,0,,74,0
211392,note_on,,4,0,1,,,,,,,,,,0,,72,100
211484,note_on,,92,0,1,,,,,,,,,,0,,72,0
211488,note_on,,4,0,1,,,,,,,,,,0,,74,100
211580,note_on,,92,0,1,,,,,,,,,,0,,74,0
211584,note_on,,4,0,1,,,,,,,,,,0,,71,100
211676,note_on,,92,0,1,,,,,,,,,,0,,71,0
211680,note_on,,4,0,1,,,,,,,,,,0,,72,100
211772,note_on,,92,0,1,,,,,,,,,,0,,72,0
211776,note_on,,4,0,1,,,,,,,,,,0,,69,100
211868,note_on,,92,0,1,,,,,,,,,,0,,69,0
211872,note_on,,0,0,2,,,,,,,,,,1,,43,0
211872,note_on,,0,0,2,,,,,,,,,,1,,47,0
211872,note_on,,672,0,2,,,,,,,,,,1,,50,0
211872,note_on,,4,0,1,,,,,,,,,,0,,71,100
211964,note_on,,92,0,1,,,,,,,,,,0,,71,0
211968,note_on,,4,0,1,,,,,,,,,,0,,67,100
212064,note_on,,192,0,2,,,,,,,,,,1,,62,100
212156,note_on,,92,0,2,,,,,,,,,,1,,62,0
212160,note_on,,4,0,2,,,,,,,,,,1,,60,100
212252,note_on,,92,0,2,,,,,,,,,,1,,60,0
212256,note_on,,4,0,2,,,,,,,,,,1,,62,100
212288,note_on,,320,0,1,,,,,,,,,,0,,67,0
212348,note_on,,92,0,2,,,,,,,,,,1,,62,0
212352,note_on,,4,0,2,,,,,,,,,,1,,59,100
212352,note_on,,64,0,1,,,,,,,,,,0,,67,100
212444,note_on,,92,0,1,,,,,,,,,,0,,67,0
212448,note_on,,4,0,1,,,,,,,,,,0,,62,100
212540,note_on,,188,0,2,,,,,,,,,,1,,59,0
212540,note_on,,92,0,1,,,,,,,,,,0,,62,0
212544,note_on,,4,0,2,,,,,,,,,,1,,55,100
212544,note_on,,4,0,1,,,,,,,,,,0,,71,100
212636,note_on,,92,0,1,,,,,,,,,,0,,71,0
212640,note_on,,4,0,1,,,,,,,,,,0,,62,100
212732,note_on,,92,0,1,,,,,,,,,,0,,62,0
212732,note_on,,188,0,2,,,,,,,,,,1,,55,0
212736,note_on,,4,0,1,,,,,,,,,,0,,74,100
212736,note_on,,4,0,2,,,,,,,,,,1,,47,100
212736,note_on,,0,0,2,,,,,,,,,,1,,55,100
212736,note_on,,0,0,2,,,,,,,,,,1,,50,100
212828,note_on,,92,0,1,,,,,,,,,,0,,74,0
212832,note_on,,4,0,1,,,,,,,,,,0,,62,100
212924,note_on,,92,0,1,,,,,,,,,,0,,62,0
212928,note_on,,4,0,1,,,,,,,,,,0,,71,100
213020,note_on,,92,0,1,,,,,,,,,,0,,71,0
213024,note_on,,4,0,1,,,,,,,,,,0,,62,100
213056,note_on,,0,0,2,,,,,,,,,,1,,50,0
213056,note_on,,320,0,2,,,,,,,,,,1,,55,0
213056,note_on,,0,0,2,,,,,,,,,,1,,47,0
213116,note_on,,92,0,1,,,,,,,,,,0,,62,0
213120,note_on,,4,0,1,,,,,,,,,,0,,67,100
213212,note_on,,92,0,1,,,,,,,,,,0,,67,0
213216,note_on,,4,0,1,,,,,,,,,,0,,62,100
213308,note_on,,92,0,1,,,,,,,,,,0,,62,0
213312,note_on,,256,0,2,,,,,,,,,,1,,43,100
213312,note_on,,4,0,1,,,,,,,,,,0,,71,100
213404,note_on,,92,0,1,,,,,,,,,,0,,71,0
213408,note_on,,4,0,1,,,,,,,,,,0,,62,100
213500,note_on,,188,0,2,,,,,,,,,,1,,43,0
213500,note_on,,92,0,1,,,,,,,,,,0,,62,0
213504,note_on,,0,0,2,,,,,,,,,,1,,57,100
213504,note_on,,4,0,2,,,,,,,,,,1,,54,100
213504,note_on,,4,0,1,,,,,,,,,,0,,69,100
213596,note_on,,92,0,1,,,,,,,,,,0,,69,0
213600,note_on,,4,0,1,,,,,,,,,,0,,62,100
213692,note_on,,92,0,1,,,,,,,,,,0,,62,0
213696,note_on,,4,0,1,,,,,,,,,,0,,66,100
213788,note_on,,92,0,1,,,,,,,,,,0,,66,0
213792,note_on,,4,0,1,,,,,,,,,,0,,62,100
213824,note_on,,320,0,2,,,,,,,,,,1,,57,0
213824,note_on,,0,0,2,,,,,,,,,,1,,54,0
213884,note_on,,92,0,1,,,,,,,,,,0,,62,0
213888,note_on,,0,0,2,,,,,,,,,,1,,45,100
213888,note_on,,64,0,2,,,,,,,,,,1,,42,100
213888,note_on,,0,0,2,,,,,,,,,,1,,50,100
213888,note_on,,4,0,1,,,,,,,,,,0,,69,100
213980,note_on,,92,0,1,,,,,,,,,,0,,69,0
213984,note_on,,4,0,1,,,,,,,,,,0,,62,100
214076,note_on,,92,0,1,,,,,,,,,,0,,62,0
214080,note_on,,4,0,1,,,,,,,,,,0,,74,100
214172,note_on,,92,0,1,,,,,,,,,,0,,74,0
214176,note_on,,4,0,1,,,,,,,,,,0,,62,100
214208,note_on,,320,0,2,,,,,,,,,,1,,50,0
214208,note_on,,0,0,2,,,,,,,,,,1,,45,0
214208,note_on,,0,0,2,,,,,,,,,,1,,42,0
214268,note_on,,92,0,1,,,,,,,,,,0,,62,0
214272,note_on,,4,0,1,,,,,,,,,,0,,69,100
214364,note_on,,92,0,1,,,,,,,,,,0,,69,0
214368,note_on,,4,0,1,,,,,,,,,,0,,62,100
214460,note_on,,92,0,1,,,,,,,,,,0,,62,0
214464,note_on,,4,0,1,,,,,,,,,,0,,66,100
214556,note_on,,92,0,1,,,,,,,,,,0,,66,0
214560,note_on,,4,0,1,,,,,,,,,,0,,62,100
214652,note_on,,92,0,1,,,,,,,,,,0,,62,0
214656,note_on,,4,0,1,,,,,,,,,,0,,67,100
214656,note_on,,448,0,2,,,,,,,,,,1,,52,100
214656,note_on,,0,0,2,,,,,,,,,,1,,55,100
214656,note_on,,0,0,2,,,,,,,,,,1,,62,100
214748,note_on,,92,0,1,,,,,,,,,,0,,67,0
214752,note_on,,4,0,1,,,,,,,,,,0,,64,100
214844,note_on,,92,0,1,,,,,,,,,,0,,64,0
214848,note_on,,4,0,1,,,,,,,,,,0,,76,100
214940,note_on,,92,0,1,,,,,,,,,,0,,76,0
214944,note_on,,4,0,1,,,,,,,,,,0,,67,100
214976,note_on,,0,0,2,,,,,,,,,,1,,52,0
214976,note_on,,0,0,2,,,,,,,,,,1,,55,0
214976,note_on,,320,0,2,,,,,,,,,,1,,62,0
215036,note_on,,92,0,1,,,,,,,,,,0,,67,0
215040,note_on,,64,0,2,,,,,,,,,,1,,52,100
215040,note_on,,0,0,2,,,,,,,,,,1,,55,100
215040,note_on,,0,0,2,,,,,,,,,,1,,61,100
215040,note_on,,4,0,1,,,,,,,,,,0,,73,100
215132,note_on,,92,0,1,,,,,,,,,,0,,73,0
215136,note_on,,4,0,1,,,,,,,,,,0,,69,100
215228,note_on,,92,0,1,,,,,,,,,,0,,69,0
215232,note_on,,4,0,1,,,,,,,,,,0,,76,100
215324,note_on,,92,0,1,,,,,,,,,,0,,76,0
215328,note_on,,4,0,1,,,,,,,,,,0,,69,100
215360,note_on,,320,0,2,,,,,,,,,,1,,61,0
215360,note_on,,0,0,2,,,,,,,,,,1,,55,0
215360,note_on,,0,0,2,,,,,,,,,,1,,52,0
215420,note_on,,92,0,1,,,,,,,,,,0,,69,0
215424,note_on,,4,0,1,,,,,,,,,,0,,79,100
215516,note_on,,92,0,1,,,,,,,,,,0,,79,0
215520,note_on,,4,0,1,,,,,,,,,,0,,69,100
215612,note_on,,92,0,1,,,,,,,,,,0,,69,0
215616,note_on,,4,0,1,,,,,,,,,,0,,76,100
215708,note_on,,92,0,1,,,,,,,,,,0,,76,0
215712,note_on,,4,0,1,,,,,,,,,,0,,69,100
215804,note_on,,92,0,1,,,,,,,,,,0,,69,0
215808,note_on,,0,0,2,,,,,,,,,,1,,57,100
215808,note_on,,448,0,2,,,,,,,,,,1,,50,100
215808,note_on,,4,0,1,,,,,,,,,,0,,78,100
215808,note_on,,0,0,2,,,,,,,,,,1,,62,100
215900,note_on,,92,0,1,,,,,,,,,,0,,78,0
215904,note_on,,4,0,1,,,,,,,,,,0,,69,100
215996,note_on,,92,0,1,,,,,,,,,,0,,69,0
216000,note_on,,4,0,1,,,,,,,,,,0,,74,100
216092,note_on,,92,0,1,,,,,,,,,,0,,74,0
216096,note_on,,4,0,1,,,,,,,,,,0,,69,100
216128,note_on,,320,0,2,,,,,,,,,,1,,62,0
216128,note_on,,0,0,2,,,,,,,,,,1,,57,0
216128,note_on,,0,0,2,,,,,,,,,,1,,50,0
216188,note_on,,92,0,1,,,,,,,,,,0,,69,0
216192,note_on,,0,0,2,,,,,,,,,,1,,57,100
216192,note_on,,0,0,2,,,,,,,,,,1,,50,100
216192,note_on,,64,0,2,,,,,,,,,,1,,48,100
216192,note_on,,4,0,1,,,,,,,,,,0,,78,100
216284,note_on,,92,0,1,,,,,,,,,,0,,78,0
216288,note_on,,4,0,1,,,,,,,,,,0,,69,100
216380,note_on,,92,0,1,,,,,,,,,,0,,69,0
216384,note_on,,4,0,1,,,,,,,,,,0,,81,100
216476,note_on,,92,0,1,,,,,,,,,,0,,81,0
216480,note_on,,4,0,1,,,,,,,,,,0,,69,100
216512,note_on,,320,0,2,,,,,,,,,,1,,57,0
216512,note_on,,0,0,2,,,,,,,,,,1,,48,0
216512,note_on,,0,0,2,,,,,,,,,,1,,50,0
216572,note_on,,92,0,1,,,,,,,,,,0,,69,0
216576,note_on,,4,0,1,,,,,,,,,,0,,78,100
216668,note_on,,92,0,1,,,,,,,,,,0,,78,0
216672,note_on,,4,0,1,,,,,,,,,,0,,69,100
216764,note_on,,92,0,1,,,,,,,,,,0,,69,0
216768,note_on,,4,0,1,,,,,,,,,,0,,74,100
216860,note_on,,92,0,1,,,,,,,,,,0,,74,0
216864,note_on,,4,0,1,,,,,,,,,,0,,69,100
216956,note_on,,92,0,1,,,,,,,,,,0,,69,0
216960,note_on,,448,0,2,,,,,,,,,,1,,47,100
216960,note_on,,4,0,1,,,,,,,,,,0,,79,100
216960,note_on,,0,0,2,,,,,,,,,,1,,50,100
216960,note_on,,0,0,2,,,,,,,,,,1,,55,100
217052,note_on,,92,0,1,,,,,,,,,,0,,79,0
217056,note_on,,4,0,1,,,,,,,,,,0,,67,100
217148,note_on,,92,0,1,,,,,,,,,,0,,67,0
217152,note_on,,4,0,1,,,,,,,,,,0,,74,100
217244,note_on,,92,0,1,,,,,,,,,,0,,74,0
217248,note_on,,4,0,1,,,,,,,,,,0,,67,100
217280,note_on,,0,0,2,,,,,,,,,,1,,47,0
217280,note_on,,0,0,2,,,,,,,,,,1,,50,0
217280,note_on,,320,0,2,,,,,,,,,,1,,55,0
217340,note_on,,92,0,1,,,,,,,,,,0,,67,0
217344,note_on,,0,0,2,,,,,,,,,,1,,55,100
217344,note_on,,0,0,2,,,,,,,,,,1,,50,100
217344,note_on,,64,0,2,,,,,,,,,,1,,47,100
217344,note_on,,4,0,1,,,,,,,,,,0,,71,100
217436,note_on,,92,0,1,,,,,,,,,,0,,71,0
217440,note_on,,4,0,1,,,,,,,,,,0,,67,100
217532,note_on,,92,0,1,,,,,,,,,,0,,67,0
217536,note_on,,4,0,1,,,,,,,,,,0,,74,100
217628,note_on,,92,0,1,,,,,,,,,,0,,74,0
217632,note_on,,4,0,1,,,,,,,,,,0,,67,100
217664,note_on,,320,0,2,,,,,,,,,,1,,55,0
217664,note_on,,0,0,2,,,,,,,,,,1,,50,0
217664,note_on,,0,0,2,,,,,,,,,,1,,47,0
217724,note_on,,92,0,1,,,,,,,,,,0,,67,0
217728,note_on,,4,0,1,,,,,,,,,,0,,79,100
217820,note_on,,92,0,1,,,,,,,,,,0,,79,0
217824,note_on,,4,0,1,,,,,,,,,,0,,67,100
217916,note_on,,92,0,1,,,,,,,,,,0,,67,0
217920,note_on,,4,0,1,,,,,,,,,,0,,74,100
218012,note_on,,92,0,1,,,,,,,,,,0,,74,0
218016,note_on,,4,0,1,,,,,,,,,,0,,67,100
218108,note_on,,92,0,1,,,,,,,,,,0,,67,0
218112,note_on,,448,0,2,,,,,,,,,,1,,48,100
218112,note_on,,0,0,2,,,,,,,,,,1,,52,100
218112,note_on,,0,0,2,,,,,,,,,,1,,55,100
218112,note_on,,4,0,1,,,,,,,,,,0,,76,100
218204,note_on,,92,0,1,,,,,,,,,,0,,76,0
218208,note_on,,4,0,1,,,,,,,,,,0,,67,100
218300,note_on,,92,0,1,,,,,,,,,,0,,67,0
218304,note_on,,4,0,1,,,,,,,,,,0,,69,100
218396,note_on,,92,0,1,,,,,,,,,,0,,69,0
218400,note_on,,4,0,1,,,,,,,,,,0,,67,100
218432,note_on,,320,0,2,,,,,,,,,,1,,55,0
218432,note_on,,0,0,2,,,,,,,,,,1,,52,0
218432,note_on,,0,0,2,,,,,,,,,,1,,48,0
218492,note_on,,92,0,1,,,,,,,,,,0,,67,0
218496,note_on,,4,0,1,,,,,,,,,,0,,72,100
218496,note_on,,64,0,2,,,,,,,,,,1,,36,100
218588,note_on,,92,0,1,,,,,,,,,,0,,72,0
218592,note_on,,4,0,1,,,,,,,,,,0,,67,100
218684,note_on,,92,0,1,,,,,,,,,,0,,67,0
218688,note_on,,4,0,1,,,,,,,,,,0,,76,100
218780,note_on,,92,0,1,,,,,,,,,,0,,76,0
218784,note_on,,4,0,1,,,,,,,,,,0,,67,100
218816,note_on,,320,0,2,,,,,,,,,,1,,36,0
218876,note_on,,92,0,1,,,,,,,,,,0,,67,0
218880,note_on,,4,0,1,,,,,,,,,,0,,72,100
218972,note_on,,92,0,1,,,,,,,,,,0,,72,0
218976,note_on,,4,0,1,,,,,,,,,,0,,64,100
219068,note_on,,92,0,1,,,,,,,,,,0,,64,0
219072,note_on,,4,0,1,,,,,,,,,,0,,69,100
219164,note_on,,92,0,1,,,,,,,,,,0,,69,0
219168,note_on,,4,0,1,,,,,,,,,,0,,64,100
219260,note_on,,92,0,1,,,,,,,,,,0,,64,0
219264,note_on,,4,0,1,,,,,,,,,,0,,66,100
219264,note_on,,448,0,2,,,,,,,,,,1,,50,100
219356,note_on,,92,0,1,,,,,,,,,,0,,66,0
219360,note_on,,4,0,1,,,,,,,,,,0,,62,100
219452,note_on,,92,0,1,,,,,,,,,,0,,62,0
219456,note_on,,4,0,1,,,,,,,,,,0,,69,100
219548,note_on,,92,0,1,,,,,,,,,,0,,69,0
219552,note_on,,4,0,1,,,,,,,,,,0,,62,100
219584,note_on,,320,0,2,,,,,,,,,,1,,50,0
219644,note_on,,92,0,1,,,,,,,,,,0,,62,0
219648,note_on,,4,0,1,,,,,,,,,,0,,74,100
219648,note_on,,64,0,2,,,,,,,,,,1,,38,100
219740,note_on,,92,0,1,,,,,,,,,,0,,74,0
219744,note_on,,4,0,1,,,,,,,,,,0,,62,100
219836,note_on,,92,0,1,,,,,,,,,,0,,62,0
219840,note_on,,4,0,1,,,,,,,,,,0,,69,100
219932,note_on,,92,0,1,,,,,,,,,,0,,69,0
219936,note_on,,4,0,1,,,,,,,,,,0,,62,100
219968,note_on,,320,0,2,,,,,,,,,,1,,38,0
220028,note_on,,92,0,1,,,,,,,,,,0,,62,0
220032,note_on,,4,0,1,,,,,,,,,,0,,66,100
220124,note_on,,92,0,1,,,,,,,,,,0,,66,0
220128,note_on,,4,0,1,,,,,,,,,,0,,62,100
220220,note_on,,92,0,1,,,,,,,,,,0,,62,0
220224,note_on,,4,0,1,,,,,,,,,,0,,69,100
220224,note_on,,256,0,2,,,,,,,,,,1,,54,100
220316,note_on,,92,0,1,,,,,,,,,,0,,69,0
220320,note_on,,4,0,1,,,,,,,,,,0,,62,100
220412,note_on,,92,0,1,,,,,,,,,,0,,62,0
220412,note_on,,188,0,2,,,,,,,,,,1,,54,0
220416,note_on,,4,0,2,,,,,,,,,,1,,55,100
220416,note_on,,4,0,1,,,,,,,,,,0,,71,100
220508,note_on,,92,0,1,,,,,,,,,,0,,71,0
220512,note_on,,4,0,1,,,,,,,,,,0,,62,100
220604,note_on,,92,0,1,,,,,,,,,,0,,62,0
220608,note_on,,4,0,1,,,,,,,,,,0,,67,100
220700,note_on,,92,0,1,,,,,,,,,,0,,67,0
220704,note_on,,4,0,1,,,,,,,,,,0,,62,100
220736,note_on,,320,0,2,,,,,,,,,,1,,55,0
220796,note_on,,92,0,1,,,,,,,,,,0,,62,0
220800,note_on,,64,0,2,,,,,,,,,,1,,43,100
220800,note_on,,4,0,1,,,,,,,,,,0,,71,100
220892,note_on,,92,0,1,,,,,,,,,,0,,71,0
220896,note_on,,4,0,1,,,,,,,,,,0,,62,100
220988,note_on,,92,0,1,,,,,,,,,,0,,62,0
220992,note_on,,4,0,1,,,,,,,,,,0,,74,100
221084,note_on,,92,0,1,,,,,,,,,,0,,74,0
221088,note_on,,4,0,1,,,,,,,,,,0,,62,100
221120,note_on,,320,0,2,,,,,,,,,,1,,43,0
221180,note_on,,92,0,1,,,,,,,,,,0,,62,0
221184,note_on,,4,0,1,,,,,,,,,,0,,71,100
221276,note_on,,92,0,1,,,,,,,,,,0,,71,0
221280,note_on,,4,0,1,,,,,,,,,,0,,62,100
221372,note_on,,92,0,1,,,,,,,,,,0,,62,0
221376,note_on,,4,0,1,,,,,,,,,,0,,67,100
221468,note_on,,92,0,1,,,,,,,,,,0,,67,0
221472,note_on,,4,0,1,,,,,,,,,,0,,62,100
221564,note_on,,92,0,1,,,,,,,,,,0,,62,0
221568,note_on,,448,0,2,,,,,,,,,,1,,43,100
221568,set_tempo,,27648,1,0,,,,,,600000,,,,,,,
221568,note_on,,4,0,1,,,,,,,,,,0,,67,100
221568,note_on,,0,0,1,,,,,,,,,,0,,71,100
221660,note_on,,92,0,2,,,,,,,,,,1,,43,0
221664,note_on,,4,0,2,,,,,,,,,,1,,47,100
221756,note_on,,92,0,2,,,,,,,,,,1,,47,0
221760,note_on,,4,0,2,,,,,,,,,,1,,50,100
221852,note_on,,92,0,2,,,,,,,,,,1,,50,0
221856,note_on,,4,0,2,,,,,,,,,,1,,55,100
221888,note_on,,0,0,1,,,,,,,,,,0,,67,0
221888,note_on,,320,0,1,,,,,,,,,,0,,71,0
221948,note_on,,92,0,2,,,,,,,,,,1,,55,0
221952,note_on,,64,0,1,,,,,,,,,,0,,67,100
221952,note_on,,4,0,2,,,,,,,,,,1,,43,100
221952,note_on,,0,0,1,,,,,,,,,,0,,71,100
222044,note_on,,92,0,2,,,,,,,,,,1,,43,0
222048,note_on,,4,0,2,,,,,,,,,,1,,47,100
222140,note_on,,92,0,2,,,,,,,,,,1,,47,0
222144,note_on,,4,0,2,,,,,,,,,,1,,50,100
222236,note_on,,92,0,2,,,,,,,,,,1,,50,0
222240,note_on,,4,0,2,,,,,,,,,,1,,55,100
222272,note_on,,0,0,1,,,,,,,,,,0,,67,0
222272,note_on,,320,0,1,,,,,,,,,,0,,71,0
222332,note_on,,92,0,2,,,,,,,,,,1,,55,0
222336,note_on,,4,0,2,,,,,,,,,,1,,43,100
222428,note_on,,92,0,2,,,,,,,,,,1,,43,0
222432,note_on,,4,0,2,,,,,,,,,,1,,47,100
222524,note_on,,92,0,2,,,,,,,,,,1,,47,0
222528,note_on,,0,0,1,,,,,,,,,,0,,71,100
222528,note_on,,256,0,1,,,,,,,,,,0,,67,100
222528,note_on,,4,0,2,,,,,,,,,,1,,50,100
222620,note_on,,92,0,2,,,,,,,,,,1,,50,0
222624,note_on,,4,0,2,,,,,,,,,,1,,55,100
222716,note_on,,0,0,1,,,,,,,,,,0,,67,0
222716,note_on,,188,0,1,,,,,,,,,,0,,71,0
222716,note_on,,92,0,2,,,,,,,,,,1,,55,0
222720,note_on,,4,0,2,,,,,,,,,,1,,50,100
222720,note_on,,0,0,1,,,,,,,,,,0,,69,100
222720,note_on,,4,0,1,,,,,,,,,,0,,66,100
222812,note_on,,92,0,2,,,,,,,,,,1,,50,0
222816,note_on,,4,0,2,,,,,,,,,,1,,54,100
222908,note_on,,92,0,2,,,,,,,,,,1,,54,0
222912,note_on,,4,0,2,,,,,,,,,,1,,57,100
223004,note_on,,92,0,2,,,,,,,,,,1,,57,0
223008,note_on,,4,0,2,,,,,,,,,,1,,62,100
223040,note_on,,0,0,1,,,,,,,,,,0,,66,0
223040,note_on,,320,0,1,,,,,,,,,,0,,69,0
223100,note_on,,92,0,2,,,,,,,,,,1,,62,0
223104,note_on,,0,0,1,,,,,,,,,,0,,74,100
223104,note_on,,4,0,2,,,,,,,,,,1,,50,100
223104,note_on,,64,0,1,,,,,,,,,,0,,66,100
223196,note_on,,92,0,2,,,,,,,,,,1,,50,0
223200,note_on,,4,0,2,,,,,,,,,,1,,54,100
223292,note_on,,92,0,2,,,,,,,,,,1,,54,0
223296,note_on,,4,0,2,,,,,,,,,,1,,57,100
223388,note_on,,92,0,2,,,,,,,,,,1,,57,0
223392,note_on,,4,0,2,,,,,,,,,,1,,62,100
223424,note_on,,0,0,1,,,,,,,,,,0,,66,0
223424,note_on,,320,0,1,,,,,,,,,,0,,74,0
223484,note_on,,92,0,2,,,,,,,,,,1,,62,0
223488,note_on,,4,0,2,,,,,,,,,,1,,50,100
223580,note_on,,92,0,2,,,,,,,,,,1,,50,0
223584,note_on,,4,0,2,,,,,,,,,,1,,54,100
223676,note_on,,92,0,2,,,,,,,,,,1,,54,0
223680,note_on,,4,0,2,,,,,,,,,,1,,57,100
223680,note_on,,256,0,1,,,,,,,,,,0,,74,100
223772,note_on,,92,0,2,,,,,,,,,,1,,57,0
223776,note_on,,4,0,2,,,,,,,,,,1,,62,100
223868,note_on,,92,0,2,,,,,,,,,,1,,62,0
223868,note_on,,188,0,1,,,,,,,,,,0,,74,0
223872,note_on,,4,0,1,,,,,,,,,,0,,67,100
223872,note_on,,0,0,1,,,,,,,,,,0,,73,100
223872,note_on,,4,0,2,,,,,,,,,,1,,52,100
223872,note_on,,0,0,1,,,,,,,,,,0,,79,100
223964,note_on,,92,0,2,,,,,,,,,,1,,52,0
223968,note_on,,4,0,2,,,,,,,,,,1,,55,100
224060,note_on,,92,0,2,,,,,,,,,,1,,55,0
224064,note_on,,4,0,2,,,,,,,,,,1,,61,100
224156,note_on,,92,0,2,,,,,,,,,,1,,61,0
224160,note_on,,4,0,2,,,,,,,,,,1,,64,100
224192,note_on,,0,0,1,,,,,,,,,,0,,67,0
224192,note_on,,0,0,1,,,,,,,,,,0,,73,0
224192,note_on,,320,0,1,,,,,,,,,,0,,79,0
224252,note_on,,92,0,2,,,,,,,,,,1,,64,0
224256,note_on,,4,0,2,,,,,,,,,,1,,52,100
224256,note_on,,0,0,1,,,,,,,,,,0,,73,100
224256,note_on,,0,0,1,,,,,,,,,,0,,79,100
224256,note_on,,64,0,1,,,,,,,,,,0,,69,100
224256,note_on,,0,0,1,,,,,,,,,,0,,76,100
224348,note_on,,92,0,2,,,,,,,,,,1,,52,0
224352,note_on,,4,0,2,,,,,,,,,,1,,55,100
224444,note_on,,92,0,2,,,,,,,,,,1,,55,0
224448,note_on,,4,0,2,,,,,,,,,,1,,61,100
224540,note_on,,92,0,2,,,,,,,,,,1,,61,0
224544,note_on,,4,0,2,,,,,,,,,,1,,64,100
224576,note_on,,0,0,1,,,,,,,,,,0,,69,0
224576,note_on,,0,0,1,,,,,,,,,,0,,73,0
224576,note_on,,0,0,1,,,,,,,,,,0,,76,0
224576,note_on,,320,0,1,,,,,,,,,,0,,79,0
224636,note_on,,92,0,2,,,,,,,,,,1,,64,0
224640,note_on,,4,0,2,,,,,,,,,,1,,52,100
224732,note_on,,92,0,2,,,,,,,,,,1,,52,0
224736,note_on,,4,0,2,,,,,,,,,,1,,55,100
224828,note_on,,92,0,2,,,,,,,,,,1,,55,0
224832,note_on,,4,0,2,,,,,,,,,,1,,61,100
224832,note_on,,256,0,1,,,,,,,,,,0,,69,100
224832,note_on,,0,0,1,,,,,,,,,,0,,79,100
224832,note_on,,0,0,1,,,,,,,,,,0,,76,100
224924,note_on,,92,0,2,,,,,,,,,,1,,61,0
224928,note_on,,4,0,2,,,,,,,,,,1,,64,100
225020,note_on,,0,0,1,,,,,,,,,,0,,69,0
225020,note_on,,0,0,1,,,,,,,,,,0,,76,0
225020,note_on,,188,0,1,,,,,,,,,,0,,79,0
225020,note_on,,92,0,2,,,,,,,,,,1,,64,0
225024,note_on,,0,0,1,,,,,,,,,,0,,78,100
225024,note_on,,4,0,1,,,,,,,,,,0,,69,100
225024,note_on,,4,0,2,,,,,,,,,,1,,50,100
225024,note_on,,0,0,1,,,,,,,,,,0,,76,100
225116,note_on,,92,0,2,,,,,,,,,,1,,50,0
225120,note_on,,4,0,2,,,,,,,,,,1,,54,100
225212,note_on,,92,0,2,,,,,,,,,,1,,54,0
225216,note_on,,4,0,2,,,,,,,,,,1,,57,100
225308,note_on,,92,0,2,,,,,,,,,,1,,57,0
225312,note_on,,4,0,2,,,,,,,,,,1,,62,100
225344,note_on,,0,0,1,,,,,,,,,,0,,76,0
225344,note_on,,0,0,1,,,,,,,,,,0,,69,0
225344,note_on,,320,0,1,,,,,,,,,,0,,78,0
225404,note_on,,92,0,2,,,,,,,,,,1,,62,0
225408,note_on,,4,0,2,,,,,,,,,,1,,50,100
225408,note_on,,0,0,1,,,,,,,,,,0,,74,100
225408,note_on,,64,0,1,,,,,,,,,,0,,66,100
225408,note_on,,0,0,1,,,,,,,,,,0,,69,100
225500,note_on,,92,0,2,,,,,,,,,,1,,50,0
225504,note_on,,4,0,2,,,,,,,,,,1,,54,100
225596,note_on,,92,0,2,,,,,,,,,,1,,54,0
225600,note_on,,4,0,2,,,,,,,,,,1,,57,100
225692,note_on,,92,0,2,,,,,,,,,,1,,57,0
225696,note_on,,4,0,2,,,,,,,,,,1,,60,100
225728,note_on,,320,0,1,,,,,,,,,,0,,74,0
225728,note_on,,0,0,1,,,,,,,,,,0,,66,0
225728,note_on,,0,0,1,,,,,,,,,,0,,69,0
225788,note_on,,92,0,2,,,,,,,,,,1,,60,0
225792,note_on,,4,0,2,,,,,,,,,,1,,50,100
225884,note_on,,92,0,2,,,,,,,,,,1,,50,0
225888,note_on,,4,0,2,,,,,,,,,,1,,54,100
225980,note_on,,92,0,2,,,,,,,,,,1,,54,0
225984,note_on,,256,0,1,,,,,,,,,,0,,66,100
225984,note_on,,4,0,2,,,,,,,,,,1,,57,100
226076,note_on,,92,0,2,,,,,,,,,,1,,57,0
226080,note_on,,4,0,2,,,,,,,,,,1,,60,100
226172,note_on,,92,0,2,,,,,,,,,,1,,60,0
226172,note_on,,188,0,1,,,,,,,,,,0,,66,0
226176,note_on,,4,0,1,,,,,,,,,,0,,67,100
226176,note_on,,0,0,1,,,,,,,,,,0,,79,100
226176,note_on,,4,0,2,,,,,,,,,,1,,47,100
226268,note_on,,92,0,2,,,,,,,,,,1,,47,0
226272,note_on,,4,0,2,,,,,,,,,,1,,50,100
226364,note_on,,92,0,2,,,,,,,,,,1,,50,0
226368,note_on,,4,0,2,,,,,,,,,,1,,55,100
226460,note_on,,92,0,2,,,,,,,,,,1,,55,0
226464,note_on,,4,0,2,,,,,,,,,,1,,59,100
226496,note_on,,320,0,1,,,,,,,,,,0,,79,0
226496,note_on,,0,0,1,,,,,,,,,,0,,67,0
226556,note_on,,92,0,2,,,,,,,,,,1,,59,0
226560,note_on,,4,0,2,,,,,,,,,,1,,47,100
226560,note_on,,0,0,1,,,,,,,,,,0,,74,100
226560,note_on,,64,0,1,,,,,,,,,,0,,67,100
226652,note_on,,92,0,2,,,,,,,,,,1,,47,0
226656,note_on,,4,0,2,,,,,,,,,,1,,50,100
226748,note_on,,92,0,2,,,,,,,,,,1,,50,0
226752,note_on,,4,0,2,,,,,,,,,,1,,55,100
226844,note_on,,92,0,2,,,,,,,,,,1,,55,0
226848,note_on,,4,0,2,,,,,,,,,,1,,59,100
226880,note_on,,320,0,1,,,,,,,,,,0,,74,0
226880,note_on,,0,0,1,,,,,,,,,,0,,67,0
226940,note_on,,92,0,2,,,,,,,,,,1,,59,0
226944,note_on,,4,0,2,,,,,,,,,,1,,47,100
227036,note_on,,92,0,2,,,,,,,,,,1,,47,0
227040,note_on,,4,0,2,,,,,,,,,,1,,50,100
227132,note_on,,92,0,2,,,,,,,,,,1,,50,0
227136,note_on,,4,0,2,,,,,,,,,,1,,55,100
227136,note_on,,256,0,1,,,,,,,,,,0,,74,100
227228,note_on,,92,0,2,,,,,,,,,,1,,55,0
227232,note_on,,4,0,2,,,,,,,,,,1,,59,100
227324,note_on,,92,0,2,,,,,,,,,,1,,59,0
227324,note_on,,188,0,1,,,,,,,,,,0,,74,0
227328,note_on,,4,0,2,,,,,,,,,,1,,48,100
227328,note_on,,4,0,1,,,,,,,,,,0,,67,100
227328,note_on,,0,0,1,,,,,,,,,,0,,76,100
227420,note_on,,92,0,2,,,,,,,,,,1,,48,0
227424,note_on,,4,0,2,,,,,,,,,,1,,52,100
227516,note_on,,92,0,2,,,,,,,,,,1,,52,0
227520,note_on,,4,0,2,,,,,,,,,,1,,55,100
227612,note_on,,92,0,2,,,,,,,,,,1,,55,0
227616,note_on,,4,0,2,,,,,,,,,,1,,60,100
227648,note_on,,0,0,1,,,,,,,,,,0,,67,0
227648,note_on,,320,0,1,,,,,,,,,,0,,76,0
227708,note_on,,92,0,2,,,,,,,,,,1,,60,0
227712,note_on,,64,0,1,,,,,,,,,,0,,64,100
227712,note_on,,0,0,1,,,,,,,,,,0,,69,100
227712,note_on,,4,0,2,,,,,,,,,,1,,48,100
227712,note_on,,0,0,1,,,,,,,,,,0,,67,100
227804,note_on,,92,0,2,,,,,,,,,,1,,48,0
227808,note_on,,4,0,2,,,,,,,,,,1,,52,100
227900,note_on,,92,0,2,,,,,,,,,,1,,52,0
227904,note_on,,4,0,2,,,,,,,,,,1,,55,100
227996,note_on,,92,0,2,,,,,,,,,,1,,55,0
228000,note_on,,4,0,2,,,,,,,,,,1,,60,100
228032,note_on,,0,0,1,,,,,,,,,,0,,67,0
228032,note_on,,0,0,1,,,,,,,,,,0,,64,0
228032,note_on,,320,0,1,,,,,,,,,,0,,69,0
228092,note_on,,92,0,2,,,,,,,,,,1,,60,0
228096,note_on,,4,0,2,,,,,,,,,,1,,48,100
228188,note_on,,92,0,2,,,,,,,,,,1,,48,0
228192,note_on,,4,0,2,,,,,,,,,,1,,52,100
228284,note_on,,92,0,2,,,,,,,,,,1,,52,0
228288,note_on,,256,0,1,,,,,,,,,,0,,69,100
228288,note_on,,0,0,1,,,,,,,,,,0,,72,100
228288,note_on,,4,0,2,,,,,,,,,,1,,55,100
228380,note_on,,92,0,2,,,,,,,,,,1,,55,0
228384,note_on,,4,0,2,,,,,,,,,,1,,60,100
228476,note_on,,188,0,1,,,,,,,,,,0,,72,0
228476,note_on,,92,0,2,,,,,,,,,,1,,60,0
228476,note_on,,0,0,1,,,,,,,,,,0,,69,0
228480,note_on,,4,0,2,,,,,,,,,,1,,50,100
228480,note_on,,0,0,1,,,,,,,,,,0,,71,100
228480,note_on,,4,0,1,,,,,,,,,,0,,67,100
228572,note_on,,92,0,2,,,,,,,,,,1,,50,0
228576,note_on,,4,0,2,,,,,,,,,,1,,55,100
228668,note_on,,92,0,2,,,,,,,,,,1,,55,0
228672,note_on,,4,0,2,,,,,,,,,,1,,59,100
228764,note_on,,92,0,2,,,,,,,,,,1,,59,0
228768,note_on,,4,0,2,,,,,,,,,,1,,62,100
228800,note_on,,320,0,1,,,,,,,,,,0,,71,0
228800,note_on,,0,0,1,,,,,,,,,,0,,67,0
228860,note_on,,92,0,2,,,,,,,,,,1,,62,0
228864,note_on,,4,0,2,,,,,,,,,,1,,50,100
228864,note_on,,64,0,1,,,,,,,,,,0,,67,100
228864,note_on,,0,0,1,,,,,,,,,,0,,69,100
228956,note_on,,92,0,2,,,,,,,,,,1,,50,0
228960,note_on,,4,0,2,,,,,,,,,,1,,55,100
229052,note_on,,92,0,2,,,,,,,,,,1,,55,0
229056,note_on,,4,0,2,,,,,,,,,,1,,57,100
229148,note_on,,92,0,2,,,,,,,,,,1,,57,0
229152,note_on,,4,0,2,,,,,,,,,,1,,62,100
229184,note_on,,320,0,1,,,,,,,,,,0,,69,0
229184,note_on,,0,0,1,,,,,,,,,,0,,67,0
229244,note_on,,92,0,2,,,,,,,,,,1,,62,0
229248,note_on,,4,0,2,,,,,,,,,,1,,50,100
229340,note_on,,92,0,2,,,,,,,,,,1,,50,0
229344,note_on,,4,0,2,,,,,,,,,,1,,54,100
229436,note_on,,92,0,2,,,,,,,,,,1,,54,0
229440,note_on,,256,0,1,,,,,,,,,,0,,66,100
229440,note_on,,0,0,1,,,,,,,,,,0,,74,100
229440,note_on,,4,0,2,,,,,,,,,,1,,57,100
229532,note_on,,92,0,2,,,,,,,,,,1,,57,0
229536,note_on,,4,0,2,,,,,,,,,,1,,62,100
229628,note_on,,0,0,1,,,,,,,,,,0,,66,0
229628,note_on,,188,0,1,,,,,,,,,,0,,74,0
229628,note_on,,92,0,2,,,,,,,,,,1,,62,0
229632,note_on,,4,0,2,,,,,,,,,,1,,43,100
229632,note_on,,4,0,1,,,,,,,,,,0,,62,100
229632,note_on,,0,0,1,,,,,,,,,,0,,67,100
229632,note_on,,0,0,1,,,,,,,,,,0,,71,100
229724,note_on,,92,0,2,,,,,,,,,,1,,43,0
229728,note_on,,4,0,2,,,,,,,,,,1,,47,100
229820,note_on,,92,0,2,,,,,,,,,,1,,47,0
229824,note_on,,4,0,2,,,,,,,,,,1,,50,100
229916,note_on,,92,0,2,,,,,,,,,,1,,50,0
229920,note_on,,4,0,2,,,,,,,,,,1,,55,100
229952,note_on,,320,0,1,,,,,,,,,,0,,71,0
229952,note_on,,0,0,1,,,,,,,,,,0,,67,0
229952,note_on,,0,0,1,,,,,,,,,,0,,62,0
230012,note_on,,92,0,2,,,,,,,,,,1,,55,0
230016,note_on,,0,0,1,,,,,,,,,,0,,67,100
230016,note_on,,4,0,2,,,,,,,,,,1,,43,100
230016,note_on,,64,0,1,,,,,,,,,,0,,59,100
230016,note_on,,0,0,1,,,,,,,,,,0,,62,100
230108,note_on,,92,0,2,,,,,,,,,,1,,43,0
230112,note_on,,4,0,2,,,,,,,,,,1,,47,100
230204,note_on,,92,0,2,,,,,,,,,,1,,47,0
230208,note_on,,4,0,2,,,,,,,,,,1,,50,100
230300,note_on,,92,0,2,,,,,,,,,,1,,50,0
230304,note_on,,4,0,2,,,,,,,,,,1,,55,100
230336,note_on,,0,0,1,,,,,,,,,,0,,62,0
230336,note_on,,0,0,1,,,,,,,,,,0,,59,0
230336,note_on,,320,0,1,,,,,,,,,,0,,67,0
230396,note_on,,92,0,2,,,,,,,,,,1,,55,0
230400,note_on,,4,0,2,,,,,,,,,,1,,31,100
230400,note_on,,0,0,2,,,,,,,,,,1,,43,100
230720,note_on,,0,0,2,,,,,,,,,,1,,31,0
230720,note_on,,320,0,2,,,,,,,,,,1,,43,0
230784,set_tempo,,9216,1,0,,,,,,600000,,,,,,,
230784,note_on,,448,0,1,,,,,,,,,,0,,59,100
230784,note_on,,64,0,2,,,,,,,,,,1,,55,100
230880,note_on,,96,0,1,,,,,,,,,,0,,59,0
230880,note_on,,0,0,1,,,,,,,,,,0,,62,100
230976,note_on,,96,0,1,,,,,,,,,,0,,62,0
230976,note_on,,0,0,1,,,,,,,,,,0,,67,100
231072,note_on,,96,0,1,,,,,,,,,,0,,67,0
231072,note_on,,0,0,1,,,,,,,,,,0,,71,100
231104,note_on,,320,0,2,,,,,,,,,,1,,55,0
231164,note_on,,92,0,1,,,,,,,,,,0,,71,0
231168,note_on,,4,0,1,,,,,,,,,,0,,59,100
231168,note_on,,64,0,2,,,,,,,,,,1,,43,100
231264,note_on,,96,0,1,,,,,,,,,,0,,59,0
231264,note_on,,0,0,1,,,,,,,,,,0,,62,100
231360,note_on,,96,0,1,,,,,,,,,,0,,62,0
231360,note_on,,0,0,1,,,,,,,,,,0,,67,100
231456,note_on,,96,0,1,,,,,,,,,,0,,67,0
231456,note_on,,0,0,1,,,,,,,,,,0,,71,100
231488,note_on,,320,0,2,,,,,,,,,,1,,43,0
231548,note_on,,92,0,1,,,,,,,,,,0,,71,0
231552,note_on,,4,0,1,,,,,,,,,,0,,59,100
231648,note_on,,96,0,1,,,,,,,,,,0,,59,0
231648,note_on,,0,0,1,,,,,,,,,,0,,62,100
231744,note_on,,0,0,1,,,,,,,,,,0,,67,100
231744,note_on,,256,0,2,,,,,,,,,,1,,55,100
231744,note_on,,96,0,1,,,,,,,,,,0,,62,0
231840,note_on,,96,0,1,,,,,,,,,,0,,67,0
231840,note_on,,0,0,1,,,,,,,,,,0,,71,100
231932,note_on,,92,0,1,,,,,,,,,,0,,71,0
231932,note_on,,188,0,2,,,,,,,,,,1,,55,0
231936,note_on,,4,0,1,,,,,,,,,,0,,62,100
231936,note_on,,4,0,2,,,,,,,,,,1,,54,100
232032,note_on,,96,0,1,,,,,,,,,,0,,62,0
232032,note_on,,0,0,1,,,,,,,,,,0,,66,100
232128,note_on,,0,0,1,,,,,,,,,,0,,69,100
232128,note_on,,96,0,1,,,,,,,,,,0,,66,0
232224,note_on,,96,0,1,,,,,,,,,,0,,69,0
232224,note_on,,0,0,1,,,,,,,,,,0,,74,100
232256,note_on,,320,0,2,,,,,,,,,,1,,54,0
232316,note_on,,92,0,1,,,,,,,,,,0,,74,0
232320,note_on,,4,0,1,,,,,,,,,,0,,62,100
232320,note_on,,64,0,2,,,,,,,,,,1,,42,100
232416,note_on,,96,0,1,,,,,,,,,,0,,62,0
232416,note_on,,0,0,1,,,,,,,,,,0,,66,100
232512,note_on,,96,0,1,,,,,,,,,,0,,66,0
232512,note_on,,0,0,1,,,,,,,,,,0,,69,100
232608,note_on,,96,0,1,,,,,,,,,,0,,69,0
232608,note_on,,0,0,1,,,,,,,,,,0,,74,100
232640,note_on,,320,0,2,,,,,,,,,,1,,42,0
232700,note_on,,92,0,1,,,,,,,,,,0,,74,0
232704,note_on,,4,0,1,,,,,,,,,,0,,62,100
232796,note_on,,92,0,1,,,,,,,,,,0,,62,0
232800,note_on,,4,0,1,,,,,,,,,,0,,66,100
232892,note_on,,92,0,1,,,,,,,,,,0,,66,0
232896,note_on,,4,0,1,,,,,,,,,,0,,69,100
232896,note_on,,256,0,2,,,,,,,,,,1,,54,100
232988,note_on,,92,0,1,,,,,,,,,,0,,69,0
232992,note_on,,4,0,1,,,,,,,,,,0,,74,100
233084,note_on,,92,0,1,,,,,,,,,,0,,74,0
233084,note_on,,188,0,2,,,,,,,,,,1,,54,0
233088,note_on,,4,0,1,,,,,,,,,,0,,67,100
233088,note_on,,4,0,2,,,,,,,,,,1,,52,100
233180,note_on,,92,0,1,,,,,,,,,,0,,67,0
233184,note_on,,4,0,1,,,,,,,,,,0,,73,100
233276,note_on,,92,0,1,,,,,,,,,,0,,73,0
233280,note_on,,4,0,1,,,,,,,,,,0,,76,100
233372,note_on,,92,0,1,,,,,,,,,,0,,76,0
233376,note_on,,4,0,1,,,,,,,,,,0,,79,100
233408,note_on,,320,0,2,,,,,,,,,,1,,52,0
233468,note_on,,92,0,1,,,,,,,,,,0,,79,0
233472,note_on,,4,0,1,,,,,,,,,,0,,67,100
233472,note_on,,64,0,2,,,,,,,,,,1,,61,100
233564,note_on,,92,0,1,,,,,,,,,,0,,67,0
233568,note_on,,4,0,1,,,,,,,,,,0,,73,100
233660,note_on,,92,0,1,,,,,,,,,,0,,73,0
233664,note_on,,4,0,1,,,,,,,,,,0,,76,100
233756,note_on,,92,0,1,,,,,,,,,,0,,76,0
233760,note_on,,4,0,1,,,,,,,,,,0,,79,100
233792,note_on,,320,0,2,,,,,,,,,,1,,61,0
233852,note_on,,92,0,1,,,,,,,,,,0,,79,0
233856,note_on,,4,0,1,,,,,,,,,,0,,67,100
233948,note_on,,92,0,1,,,,,,,,,,0,,67,0
233952,note_on,,4,0,1,,,,,,,,,,0,,73,100
234044,note_on,,92,0,1,,,,,,,,,,0,,73,0
234048,note_on,,4,0,1,,,,,,,,,,0,,76,100
234048,note_on,,256,0,2,,,,,,,,,,1,,52,100
234140,note_on,,92,0,1,,,,,,,,,,0,,76,0
234144,note_on,,4,0,1,,,,,,,,,,0,,79,100
234236,note_on,,92,0,1,,,,,,,,,,0,,79,0
234236,note_on,,188,0,2,,,,,,,,,,1,,52,0
234240,note_on,,4,0,2,,,,,,,,,,1,,50,100
234240,note_on,,4,0,1,,,,,,,,,,0,,69,100
234332,note_on,,92,0,1,,,,,,,,,,0,,69,0
234336,note_on,,4,0,1,,,,,,,,,,0,,73,100
234428,note_on,,92,0,1,,,,,,,,,,0,,73,0
234432,note_on,,4,0,1,,,,,,,,,,0,,74,100
234524,note_on,,92,0,1,,,,,,,,,,0,,74,0
234528,note_on,,4,0,1,,,,,,,,,,0,,78,100
234560,note_on,,320,0,2,,,,,,,,,,1,,50,0
234620,note_on,,92,0,1,,,,,,,,,,0,,78,0
234624,note_on,,64,0,2,,,,,,,,,,1,,62,100
234624,note_on,,4,0,1,,,,,,,,,,0,,69,100
234716,note_on,,92,0,1,,,,,,,,,,0,,69,0
234720,note_on,,4,0,1,,,,,,,,,,0,,73,100
234812,note_on,,92,0,1,,,,,,,,,,0,,73,0
234816,note_on,,4,0,1,,,,,,,,,,0,,74,100
234908,note_on,,92,0,1,,,,,,,,,,0,,74,0
234912,note_on,,4,0,1,,,,,,,,,,0,,78,100
234944,note_on,,320,0,2,,,,,,,,,,1,,62,0
235004,note_on,,92,0,1,,,,,,,,,,0,,78,0
235008,note_on,,4,0,1,,,,,,,,,,0,,69,100
235100,note_on,,92,0,1,,,,,,,,,,0,,69,0
235104,note_on,,4,0,1,,,,,,,,,,0,,73,100
235196,note_on,,92,0,1,,,,,,,,,,0,,73,0
235200,note_on,,4,0,1,,,,,,,,,,0,,74,100
235200,note_on,,256,0,2,,,,,,,,,,1,,48,100
235292,note_on,,92,0,1,,,,,,,,,,0,,74,0
235296,note_on,,4,0,1,,,,,,,,,,0,,78,100
235388,note_on,,188,0,2,,,,,,,,,,1,,48,0
235388,note_on,,92,0,1,,,,,,,,,,0,,78,0
235392,note_on,,4,0,1,,,,,,,,,,0,,67,100
235392,note_on,,4,0,2,,,,,,,,,,1,,47,100
235484,note_on,,92,0,1,,,,,,,,,,0,,67,0
235488,note_on,,4,0,1,,,,,,,,,,0,,71,100
235580,note_on,,92,0,1,,,,,,,,,,0,,71,0
235584,note_on,,4,0,1,,,,,,,,,,0,,74,100
235676,note_on,,92,0,1,,,,,,,,,,0,,74,0
235680,note_on,,4,0,1,,,,,,,,,,0,,79,100
235712,note_on,,320,0,2,,,,,,,,,,1,,47,0
235772,note_on,,92,0,1,,,,,,,,,,0,,79,0
235776,note_on,,64,0,2,,,,,,,,,,1,,59,100
235776,note_on,,4,0,1,,,,,,,,,,0,,67,100
235868,note_on,,92,0,1,,,,,,,,,,0,,67,0
235872,note_on,,4,0,1,,,,,,,,,,0,,71,100
235964,note_on,,92,0,1,,,,,,,,,,0,,71,0
235968,note_on,,4,0,1,,,,,,,,,,0,,74,100
236060,note_on,,92,0,1,,,,,,,,,,0,,74,0
236064,note_on,,4,0,1,,,,,,,,,,0,,79,100
236096,note_on,,320,0,2,,,,,,,,,,1,,59,0
236156,note_on,,92,0,1,,,,,,,,,,0,,79,0
236160,note_on,,4,0,1,,,,,,,,,,0,,62,100
236252,note_on,,92,0,1,,,,,,,,,,0,,62,0
236256,note_on,,4,0,1,,,,,,,,,,0,,67,100
236348,note_on,,92,0,1,,,,,,,,,,0,,67,0
236352,note_on,,4,0,1,,,,,,,,,,0,,71,100
236352,note_on,,256,0,2,,,,,,,,,,1,,47,100
236444,note_on,,92,0,1,,,,,,,,,,0,,71,0
236448,note_on,,4,0,1,,,,,,,,,,0,,74,100
236540,note_on,,92,0,1,,,,,,,,,,0,,74,0
236540,note_on,,188,0,2,,,,,,,,,,1,,47,0
236544,note_on,,4,0,2,,,,,,,,,,1,,48,100
236544,note_on,,4,0,1,,,,,,,,,,0,,64,100
236636,note_on,,92,0,1,,,,,,,,,,0,,64,0
236640,note_on,,4,0,1,,,,,,,,,,0,,67,100
236732,note_on,,92,0,1,,,,,,,,,,0,,67,0
236736,note_on,,4,0,1,,,,,,,,,,0,,72,100
236828,note_on,,92,0,1,,,,,,,,,,0,,72,0
236832,note_on,,4,0,1,,,,,,,,,,0,,76,100
236864,note_on,,320,0,2,,,,,,,,,,1,,48,0
236924,note_on,,92,0,1,,,,,,,,,,0,,76,0
236928,note_on,,4,0,1,,,,,,,,,,0,,64,100
236928,note_on,,0,0,2,,,,,,,,,,1,,57,100
236928,note_on,,64,0,2,,,,,,,,,,1,,48,100
237020,note_on,,92,0,1,,,,,,,,,,0,,64,0
237024,note_on,,4,0,1,,,,,,,,,,0,,67,100
237116,note_on,,92,0,1,,,,,,,,,,0,,67,0
237120,note_on,,4,0,1,,,,,,,,,,0,,72,100
237212,note_on,,92,0,1,,,,,,,,,,0,,72,0
237216,note_on,,4,0,1,,,,,,,,,,0,,76,100
237248,note_on,,320,0,2,,,,,,,,,,1,,57,0
237248,note_on,,0,0,2,,,,,,,,,,1,,48,0
237308,note_on,,92,0,1,,,,,,,,,,0,,76,0
237312,note_on,,4,0,1,,,,,,,,,,0,,64,100
237404,note_on,,92,0,1,,,,,,,,,,0,,64,0
237408,note_on,,4,0,1,,,,,,,,,,0,,67,100
237500,note_on,,92,0,1,,,,,,,,,,0,,67,0
237504,note_on,,4,0,1,,,,,,,,,,0,,72,100
237504,note_on,,256,0,2,,,,,,,,,,1,,48,100
237596,note_on,,92,0,1,,,,,,,,,,0,,72,0
237600,note_on,,4,0,1,,,,,,,,,,0,,76,100
237692,note_on,,92,0,1,,,,,,,,,,0,,76,0
237692,note_on,,188,0,2,,,,,,,,,,1,,48,0
237696,note_on,,4,0,2,,,,,,,,,,1,,50,100
237696,note_on,,4,0,1,,,,,,,,,,0,,62,100
237788,note_on,,92,0,1,,,,,,,,,,0,,62,0
237792,note_on,,4,0,1,,,,,,,,,,0,,67,100
237884,note_on,,92,0,1,,,,,,,,,,0,,67,0
237888,note_on,,4,0,1,,,,,,,,,,0,,69,100
237980,note_on,,92,0,1,,,,,,,,,,0,,69,0
237984,note_on,,4,0,1,,,,,,,,,,0,,74,100
238016,note_on,,320,0,2,,,,,,,,,,1,,50,0
238076,note_on,,92,0,1,,,,,,,,,,0,,74,0
238080,note_on,,4,0,1,,,,,,,,,,0,,62,100
238080,note_on,,64,0,2,,,,,,,,,,1,,38,100
238172,note_on,,92,0,1,,,,,,,,,,0,,62,0
238176,note_on,,4,0,1,,,,,,,,,,0,,67,100
238268,note_on,,92,0,1,,,,,,,,,,0,,67,0
238272,note_on,,4,0,1,,,,,,,,,,0,,69,100
238364,note_on,,92,0,1,,,,,,,,,,0,,69,0
238368,note_on,,4,0,1,,,,,,,,,,0,,74,100
238400,note_on,,320,0,2,,,,,,,,,,1,,38,0
238460,note_on,,92,0,1,,,,,,,,,,0,,74,0
238464,note_on,,4,0,1,,,,,,,,,,0,,62,100
238556,note_on,,92,0,1,,,,,,,,,,0,,62,0
238560,note_on,,4,0,1,,,,,,,,,,0,,66,100
238652,note_on,,92,0,1,,,,,,,,,,0,,66,0
238656,note_on,,4,0,1,,,,,,,,,,0,,69,100
238656,note_on,,256,0,2,,,,,,,,,,1,,50,100
238748,note_on,,92,0,1,,,,,,,,,,0,,69,0
238752,note_on,,4,0,1,,,,,,,,,,0,,74,100
238844,note_on,,92,0,1,,,,,,,,,,0,,74,0
238844,note_on,,188,0,2,,,,,,,,,,1,,50,0
238848,note_on,,4,0,2,,,,,,,,,,1,,55,100
238848,note_on,,4,0,1,,,,,,,,,,0,,59,100
238940,note_on,,92,0,1,,,,,,,,,,0,,59,0
238944,note_on,,4,0,1,,,,,,,,,,0,,62,100
239036,note_on,,92,0,1,,,,,,,,,,0,,62,0
239040,note_on,,4,0,1,,,,,,,,,,0,,67,100
239132,note_on,,92,0,1,,,,,,,,,,0,,67,0
239136,note_on,,4,0,1,,,,,,,,,,0,,71,100
239168,note_on,,320,0,2,,,,,,,,,,1,,55,0
239228,note_on,,92,0,1,,,,,,,,,,0,,71,0
239232,note_on,,4,0,1,,,,,,,,,,0,,59,100
239232,note_on,,64,0,2,,,,,,,,,,1,,43,100
239324,note_on,,92,0,1,,,,,,,,,,0,,59,0
239328,note_on,,4,0,1,,,,,,,,,,0,,62,100
239420,note_on,,92,0,1,,,,,,,,,,0,,62,0
239424,note_on,,4,0,1,,,,,,,,,,0,,67,100
239516,note_on,,92,0,1,,,,,,,,,,0,,67,0
239520,note_on,,4,0,1,,,,,,,,,,0,,71,100
239552,note_on,,320,0,2,,,,,,,,,,1,,43,0
239612,note_on,,92,0,1,,,,,,,,,,0,,71,0
239616,note_on,,4,0,1,,,,,,,,,,0,,59,100
239616,note_on,,0,0,1,,,,,,,,,,0,,62,100
239616,note_on,,0,0,1,,,,,,,,,,0,,67,100
239712,note_on,,160,0,2,,,,,,,,,,1,,50,100
239804,note_on,,92,0,2,,,,,,,,,,1,,50,0
239808,note_on,,4,0,2,,,,,,,,,,1,,47,100
239900,note_on,,92,0,2,,,,,,,,,,1,,47,0
239904,note_on,,4,0,2,,,,,,,,,,1,,50,100
239936,note_on,,0,0,1,,,,,,,,,,0,,59,0
239936,note_on,,0,0,1,,,,,,,,,,0,,62,0
239936,note_on,,320,0,1,,,,,,,,,,0,,67,0
239996,note_on,,92,0,2,,,,,,,,,,1,,50,0
240000,note_on,,64,0,1,,,,,,,,,,0,,59,100
240000,set_tempo,,9216,1,0,,,,,,545455,,,,,,,
240000,note_on,,4,0,2,,,,,,,,,,1,,43,100
240092,note_on,,92,0,2,,,,,,,,,,1,,43,0
240092,note_on,,92,0,1,,,,,,,,,,0,,59,0
240096,note_on,,4,0,2,,,,,,,,,,1,,47,100
240096,note_on,,4,0,1,,,,,,,,,,0,,62,100
240188,note_on,,92,0,2,,,,,,,,,,1,,47,0
240188,note_on,,92,0,1,,,,,,,,,,0,,62,0
240192,note_on,,4,0,2,,,,,,,,,,1,,50,100
240192,note_on,,4,0,1,,,,,,,,,,0,,67,100
240284,note_on,,92,0,2,,,,,,,,,,1,,50,0
240284,note_on,,92,0,1,,,,,,,,,,0,,67,0
240288,note_on,,4,0,2,,,,,,,,,,1,,55,100
240288,note_on,,4,0,1,,,,,,,,,,0,,71,100
240380,note_on,,92,0,1,,,,,,,,,,0,,71,0
240380,note_on,,92,0,2,,,,,,,,,,1,,55,0
240384,note_on,,4,0,2,,,,,,,,,,1,,43,100
240384,note_on,,4,0,1,,,,,,,,,,0,,59,100
240476,note_on,,92,0,1,,,,,,,,,,0,,59,0
240476,note_on,,92,0,2,,,,,,,,,,1,,43,0
240480,note_on,,4,0,1,,,,,,,,,,0,,62,100
240480,note_on,,4,0,2,,,,,,,,,,1,,47,100
240572,note_on,,92,0,2,,,,,,,,,,1,,47,0
240572,note_on,,92,0,1,,,,,,,,,,0,,62,0
240576,note_on,,4,0,1,,,,,,,,,,0,,67,100
240576,note_on,,4,0,2,,,,,,,,,,1,,50,100
240668,note_on,,92,0,2,,,,,,,,,,1,,50,0
240668,note_on,,92,0,1,,,,,,,,,,0,,67,0
240672,note_on,,4,0,1,,,,,,,,,,0,,71,100
240672,note_on,,4,0,2,,,,,,,,,,1,,55,100
240764,note_on,,92,0,1,,,,,,,,,,0,,71,0
240764,note_on,,92,0,2,,,,,,,,,,1,,55,0
240768,note_on,,4,0,2,,,,,,,,,,1,,43,100
240768,note_on,,4,0,1,,,,,,,,,,0,,59,100
240860,note_on,,92,0,1,,,,,,,,,,0,,59,0
240860,note_on,,92,0,2,,,,,,,,,,1,,43,0
240864,note_on,,4,0,1,,,,,,,,,,0,,62,100
240864,note_on,,4,0,2,,,,,,,,,,1,,47,100
240956,note_on,,92,0,2,,,,,,,,,,1,,47,0
240956,note_on,,92,0,1,,,,,,,,,,0,,62,0
240960,note_on,,4,0,1,,,,,,,,,,0,,67,100
240960,note_on,,4,0,2,,,,,,,,,,1,,50,100
241052,note_on,,92,0,2,,,,,,,,,,1,,50,0
241052,note_on,,92,0,1,,,,,,,,,,0,,67,0
241056,note_on,,4,0,1,,,,,,,,,,0,,71,100
241056,note_on,,4,0,2,,,,,,,,,,1,,55,100
241148,note_on,,92,0,1,,,,,,,,,,0,,71,0
241148,note_on,,92,0,2,,,,,,,,,,1,,55,0
241152,note_on,,4,0,1,,,,,,,,,,0,,62,100
241152,note_on,,4,0,2,,,,,,,,,,1,,54,100
241244,note_on,,92,0,1,,,,,,,,,,0,,62,0
241244,note_on,,92,0,2,,,,,,,,,,1,,54,0
241248,note_on,,4,0,2,,,,,,,,,,1,,57,100
241248,note_on,,4,0,1,,,,,,,,,,0,,66,100
241340,note_on,,92,0,2,,,,,,,,,,1,,57,0
241340,note_on,,92,0,1,,,,,,,,,,0,,66,0
241344,note_on,,4,0,1,,,,,,,,,,0,,69,100
241344,note_on,,4,0,2,,,,,,,,,,1,,62,100
241436,note_on,,92,0,1,,,,,,,,,,0,,69,0
241436,note_on,,92,0,2,,,,,,,,,,1,,62,0
241440,note_on,,4,0,2,,,,,,,,,,1,,57,100
241440,note_on,,4,0,1,,,,,,,,,,0,,74,100
241532,note_on,,92,0,1,,,,,,,,,,0,,74,0
241532,note_on,,92,0,2,,,,,,,,,,1,,57,0
241536,note_on,,4,0,1,,,,,,,,,,0,,62,100
241536,note_on,,4,0,2,,,,,,,,,,1,,54,100
241628,note_on,,92,0,1,,,,,,,,,,0,,62,0
241628,note_on,,92,0,2,,,,,,,,,,1,,54,0
241632,note_on,,4,0,1,,,,,,,,,,0,,66,100
241632,note_on,,4,0,2,,,,,,,,,,1,,57,100
241724,note_on,,92,0,1,,,,,,,,,,0,,66,0
241724,note_on,,92,0,2,,,,,,,,,,1,,57,0
241728,note_on,,4,0,1,,,,,,,,,,0,,69,100
241728,note_on,,4,0,2,,,,,,,,,,1,,62,100
241820,note_on,,92,0,1,,,,,,,,,,0,,69,0
241820,note_on,,92,0,2,,,,,,,,,,1,,62,0
241824,note_on,,4,0,1,,,,,,,,,,0,,74,100
241824,note_on,,4,0,2,,,,,,,,,,1,,57,100
241916,note_on,,92,0,2,,,,,,,,,,1,,57,0
241916,note_on,,92,0,1,,,,,,,,,,0,,74,0
241920,note_on,,4,0,1,,,,,,,,,,0,,62,100
241920,note_on,,4,0,2,,,,,,,,,,1,,54,100
242012,note_on,,92,0,2,,,,,,,,,,1,,54,0
242012,note_on,,92,0,1,,,,,,,,,,0,,62,0
242016,note_on,,4,0,2,,,,,,,,,,1,,57,100
242016,note_on,,4,0,1,,,,,,,,,,0,,66,100
242108,note_on,,92,0,2,,,,,,,,,,1,,57,0
242108,note_on,,92,0,1,,,,,,,,,,0,,66,0
242112,note_on,,4,0,1,,,,,,,,,,0,,69,100
242112,note_on,,4,0,2,,,,,,,,,,1,,62,100
242204,note_on,,92,0,1,,,,,,,,,,0,,69,0
242204,note_on,,92,0,2,,,,,,,,,,1,,62,0
242208,note_on,,4,0,1,,,,,,,,,,0,,74,100
242208,note_on,,4,0,2,,,,,,,,,,1,,57,100
242300,note_on,,92,0,1,,,,,,,,,,0,,74,0
242300,note_on,,92,0,2,,,,,,,,,,1,,57,0
242304,note_on,,4,0,2,,,,,,,,,,1,,52,100
242304,note_on,,4,0,1,,,,,,,,,,0,,67,100
242396,note_on,,92,0,2,,,,,,,,,,1,,52,0
242396,note_on,,92,0,1,,,,,,,,,,0,,67,0
242400,note_on,,4,0,1,,,,,,,,,,0,,73,100
242400,note_on,,4,0,2,,,,,,,,,,1,,55,100
242492,note_on,,92,0,2,,,,,,,,,,1,,55,0
242492,note_on,,92,0,1,,,,,,,,,,0,,73,0
242496,note_on,,4,0,1,,,,,,,,,,0,,76,100
242496,note_on,,4,0,2,,,,,,,,,,1,,61,100
242588,note_on,,92,0,2,,,,,,,,,,1,,61,0
242588,note_on,,92,0,1,,,,,,,,,,0,,76,0
242592,note_on,,4,0,2,,,,,,,,,,1,,64,100
242592,note_on,,4,0,1,,,,,,,,,,0,,79,100
242684,note_on,,92,0,1,,,,,,,,,,0,,79,0
242684,note_on,,92,0,2,,,,,,,,,,1,,64,0
242688,note_on,,4,0,2,,,,,,,,,,1,,52,100
242688,note_on,,4,0,1,,,,,,,,,,0,,67,100
242780,note_on,,92,0,2,,,,,,,,,,1,,52,0
242780,note_on,,92,0,1,,,,,,,,,,0,,67,0
242784,note_on,,4,0,1,,,,,,,,,,0,,73,100
242784,note_on,,4,0,2,,,,,,,,,,1,,55,100
242876,note_on,,92,0,2,,,,,,,,,,1,,55,0
242876,note_on,,92,0,1,,,,,,,,,,0,,73,0
242880,note_on,,4,0,1,,,,,,,,,,0,,76,100
242880,note_on,,4,0,2,,,,,,,,,,1,,61,100
242972,note_on,,92,0,1,,,,,,,,,,0,,76,0
242972,note_on,,92,0,2,,,,,,,,,,1,,61,0
242976,note_on,,4,0,2,,,,,,,,,,1,,64,100
242976,note_on,,4,0,1,,,,,,,,,,0,,79,100
243068,note_on,,92,0,2,,,,,,,,,,1,,64,0
243068,note_on,,92,0,1,,,,,,,,,,0,,79,0
243072,note_on,,4,0,2,,,,,,,,,,1,,52,100
243072,note_on,,4,0,1,,,,,,,,,,0,,67,100
243164,note_on,,92,0,2,,,,,,,,,,1,,52,0
243164,note_on,,92,0,1,,,,,,,,,,0,,67,0
243168,note_on,,4,0,2,,,,,,,,,,1,,55,100
243168,note_on,,4,0,1,,,,,,,,,,0,,73,100
243260,note_on,,92,0,1,,,,,,,,,,0,,73,0
243260,note_on,,92,0,2,,,,,,,,,,1,,55,0
243264,note_on,,4,0,2,,,,,,,,,,1,,61,100
243264,note_on,,4,0,1,,,,,,,,,,0,,76,100
243356,note_on,,92,0,1,,,,,,,,,,0,,76,0
243356,note_on,,92,0,2,,,,,,,,,,1,,61,0
243360,note_on,,4,0,1,,,,,,,,,,0,,79,100
243360,note_on,,4,0,2,,,,,,,,,,1,,64,100
243452,note_on,,92,0,1,,,,,,,,,,0,,79,0
243452,note_on,,92,0,2,,,,,,,,,,1,,64,0
243456,note_on,,4,0,1,,,,,,,,,,0,,66,100
243456,note_on,,4,0,2,,,,,,,,,,1,,50,100
243548,note_on,,92,0,1,,,,,,,,,,0,,66,0
243548,note_on,,92,0,2,,,,,,,,,,1,,50,0
243552,note_on,,4,0,1,,,,,,,,,,0,,69,100
243552,note_on,,4,0,2,,,,,,,,,,1,,54,100
243644,note_on,,92,0,1,,,,,,,,,,0,,69,0
243644,note_on,,92,0,2,,,,,,,,,,1,,54,0
243648,note_on,,4,0,2,,,,,,,,,,1,,57,100
243648,note_on,,4,0,1,,,,,,,,,,0,,74,100
243740,note_on,,92,0,1,,,,,,,,,,0,,74,0
243740,note_on,,92,0,2,,,,,,,,,,1,,57,0
243744,note_on,,4,0,2,,,,,,,,,,1,,62,100
243744,note_on,,4,0,1,,,,,,,,,,0,,78,100
243836,note_on,,92,0,2,,,,,,,,,,1,,62,0
243836,note_on,,92,0,1,,,,,,,,,,0,,78,0
243840,note_on,,4,0,2,,,,,,,,,,1,,50,100
243840,note_on,,4,0,1,,,,,,,,,,0,,66,100
243932,note_on,,92,0,1,,,,,,,,,,0,,66,0
243932,note_on,,92,0,2,,,,,,,,,,1,,50,0
243936,note_on,,4,0,1,,,,,,,,,,0,,69,100
243936,note_on,,4,0,2,,,,,,,,,,1,,54,100
244028,note_on,,92,0,2,,,,,,,,,,1,,54,0
244028,note_on,,92,0,1,,,,,,,,,,0,,69,0
244032,note_on,,4,0,1,,,,,,,,,,0,,74,100
244032,note_on,,4,0,2,,,,,,,,,,1,,57,100
244124,note_on,,92,0,1,,,,,,,,,,0,,74,0
244124,note_on,,92,0,2,,,,,,,,,,1,,57,0
244128,note_on,,4,0,2,,,,,,,,,,1,,60,100
244128,note_on,,4,0,1,,,,,,,,,,0,,78,100
244220,note_on,,92,0,1,,,,,,,,,,0,,78,0
244220,note_on,,92,0,2,,,,,,,,,,1,,60,0
244224,note_on,,4,0,1,,,,,,,,,,0,,66,100
244224,note_on,,4,0,2,,,,,,,,,,1,,50,100
244316,note_on,,92,0,1,,,,,,,,,,0,,66,0
244316,note_on,,92,0,2,,,,,,,,,,1,,50,0
244320,note_on,,4,0,2,,,,,,,,,,1,,54,100
244320,note_on,,4,0,1,,,,,,,,,,0,,69,100
244412,note_on,,92,0,1,,,,,,,,,,0,,69,0
244412,note_on,,92,0,2,,,,,,,,,,1,,54,0
244416,note_on,,4,0,1,,,,,,,,,,0,,74,100
244416,note_on,,4,0,2,,,,,,,,,,1,,57,100
244508,note_on,,92,0,1,,,,,,,,,,0,,74,0
244508,note_on,,92,0,2,,,,,,,,,,1,,57,0
244512,note_on,,4,0,1,,,,,,,,,,0,,78,100
244512,note_on,,4,0,2,,,,,,,,,,1,,60,100
244604,note_on,,92,0,1,,,,,,,,,,0,,78,0
244604,note_on,,92,0,2,,,,,,,,,,1,,60,0
244608,note_on,,4,0,1,,,,,,,,,,0,,67,100
244608,note_on,,4,0,2,,,,,,,,,,1,,47,100
244700,note_on,,92,0,1,,,,,,,,,,0,,67,0
244700,note_on,,92,0,2,,,,,,,,,,1,,47,0
244704,note_on,,4,0,2,,,,,,,,,,1,,50,100
244704,note_on,,4,0,1,,,,,,,,,,0,,71,100
244796,note_on,,92,0,2,,,,,,,,,,1,,50,0
244796,note_on,,92,0,1,,,,,,,,,,0,,71,0
244800,note_on,,4,0,1,,,,,,,,,,0,,74,100
244800,note_on,,4,0,2,,,,,,,,,,1,,55,100
244892,note_on,,92,0,2,,,,,,,,,,1,,55,0
244892,note_on,,92,0,1,,,,,,,,,,0,,74,0
244896,note_on,,4,0,2,,,,,,,,,,1,,59,100
244896,note_on,,4,0,1,,,,,,,,,,0,,79,100
244988,note_on,,92,0,2,,,,,,,,,,1,,59,0
244988,note_on,,92,0,1,,,,,,,,,,0,,79,0
244992,note_on,,4,0,1,,,,,,,,,,0,,62,100
244992,note_on,,4,0,2,,,,,,,,,,1,,47,100
245084,note_on,,92,0,2,,,,,,,,,,1,,47,0
245084,note_on,,92,0,1,,,,,,,,,,0,,62,0
245088,note_on,,4,0,1,,,,,,,,,,0,,67,100
245088,note_on,,4,0,2,,,,,,,,,,1,,50,100
245180,note_on,,92,0,2,,,,,,,,,,1,,50,0
245180,note_on,,92,0,1,,,,,,,,,,0,,67,0
245184,note_on,,4,0,1,,,,,,,,,,0,,71,100
245184,note_on,,4,0,2,,,,,,,,,,1,,55,100
245276,note_on,,92,0,1,,,,,,,,,,0,,71,0
245276,note_on,,92,0,2,,,,,,,,,,1,,55,0
245280,note_on,,4,0,1,,,,,,,,,,0,,74,100
245280,note_on,,4,0,2,,,,,,,,,,1,,59,100
245372,note_on,,92,0,1,,,,,,,,,,0,,74,0
245372,note_on,,92,0,2,,,,,,,,,,1,,59,0
245376,note_on,,4,0,2,,,,,,,,,,1,,47,100
245376,note_on,,4,0,1,,,,,,,,,,0,,62,100
245468,note_on,,92,0,2,,,,,,,,,,1,,47,0
245468,note_on,,92,0,1,,,,,,,,,,0,,62,0
245472,note_on,,4,0,1,,,,,,,,,,0,,67,100
245472,note_on,,4,0,2,,,,,,,,,,1,,50,100
245564,note_on,,92,0,1,,,,,,,,,,0,,67,0
245564,note_on,,92,0,2,,,,,,,,,,1,,50,0
245568,note_on,,4,0,2,,,,,,,,,,1,,55,100
245568,note_on,,4,0,1,,,,,,,,,,0,,71,100
245660,note_on,,92,0,2,,,,,,,,,,1,,55,0
245660,note_on,,92,0,1,,,,,,,,,,0,,71,0
245664,note_on,,4,0,1,,,,,,,,,,0,,74,100
245664,note_on,,4,0,2,,,,,,,,,,1,,59,100
245756,note_on,,92,0,2,,,,,,,,,,1,,59,0
245756,note_on,,92,0,1,,,,,,,,,,0,,74,0
245760,note_on,,4,0,1,,,,,,,,,,0,,64,100
245760,note_on,,4,0,2,,,,,,,,,,1,,48,100
245852,note_on,,92,0,1,,,,,,,,,,0,,64,0
245852,note_on,,92,0,2,,,,,,,,,,1,,48,0
245856,note_on,,4,0,1,,,,,,,,,,0,,67,100
245856,note_on,,4,0,2,,,,,,,,,,1,,52,100
245948,note_on,,92,0,1,,,,,,,,,,0,,67,0
245948,note_on,,92,0,2,,,,,,,,,,1,,52,0
245952,note_on,,4,0,2,,,,,,,,,,1,,55,100
245952,note_on,,4,0,1,,,,,,,,,,0,,72,100
246044,note_on,,92,0,2,,,,,,,,,,1,,55,0
246044,note_on,,92,0,1,,,,,,,,,,0,,72,0
246048,note_on,,4,0,2,,,,,,,,,,1,,60,100
246048,note_on,,4,0,1,,,,,,,,,,0,,76,100
246140,note_on,,92,0,2,,,,,,,,,,1,,60,0
246140,note_on,,92,0,1,,,,,,,,,,0,,76,0
246144,note_on,,4,0,1,,,,,,,,,,0,,64,100
246144,note_on,,0,0,1,,,,,,,,,,0,,72,100
246144,note_on,,0,0,1,,,,,,,,,,0,,76,100
246144,note_on,,0,0,2,,,,,,,,,,1,,55,100
246144,note_on,,0,0,1,,,,,,,,,,0,,67,100
246144,note_on,,0,0,2,,,,,,,,,,1,,60,100
246144,note_on,,4,0,2,,,,,,,,,,1,,48,100
246144,note_on,,0,0,2,,,,,,,,,,1,,52,100
246656,note_on,,512,0,1,,,,,,,,,,0,,76,0
246656,note_on,,0,0,1,,,,,,,,,,0,,64,0
246656,note_on,,0,0,1,,,,,,,,,,0,,67,0
246656,note_on,,0,0,1,,,,,,,,,,0,,72,0
246656,note_on,,512,0,2,,,,,,,,,,1,,60,0
246656,note_on,,0,0,2,,,,,,,,,,1,,55,0
246656,note_on,,0,0,2,,,,,,,,,,1,,48,0
246656,note_on,,0,0,2,,,,,,,,,,1,,52,0
246720,note_on,,0,0,2,,,,,,,,,,1,,55,100
246720,note_on,,0,0,2,,,,,,,,,,1,,52,100
246720,note_on,,64,0,2,,,,,,,,,,1,,48,100
246720,note_on,,0,0,1,,,,,,,,,,0,,76,100
246720,note_on,,0,0,1,,,,,,,,,,0,,69,100
246720,note_on,,64,0,1,,,,,,,,,,0,,67,100
246908,note_on,,0,0,1,,,,,,,,,,0,,69,0
246908,note_on,,188,0,2,,,,,,,,,,1,,55,0
246908,note_on,,0,0,2,,,,,,,,,,1,,52,0
246908,note_on,,0,0,2,,,,,,,,,,1,,48,0
246908,note_on,,188,0,1,,,,,,,,,,0,,76,0
246908,note_on,,0,0,1,,,,,,,,,,0,,67,0
246912,note_on,,4,0,1,,,,,,,,,,0,,62,100
246912,note_on,,0,0,1,,,,,,,,,,0,,67,100
246912,note_on,,0,0,1,,,,,,,,,,0,,71,100
246912,note_on,,4,0,2,,,,,,,,,,1,,50,100
247104,note_on,,192,0,1,,,,,,,,,,0,,71,0
247104,note_on,,0,0,1,,,,,,,,,,0,,67,0
247104,note_on,,0,0,1,,,,,,,,,,0,,62,0
247104,note_on,,0,0,1,,,,,,,,,,0,,72,100
247296,note_on,,192,0,1,,,,,,,,,,0,,72,0
247296,note_on,,0,0,1,,,,,,,,,,0,,71,100
247296,note_on,,0,0,1,,,,,,,,,,0,,64,100
247296,note_on,,0,0,1,,,,,,,,,,0,,69,100
247392,note_on,,96,0,1,,,,,,,,,,0,,71,0
247392,note_on,,0,0,1,,,,,,,,,,0,,69,100
247440,note_on,,0,0,1,,,,,,,,,,0,,71,100
247440,note_on,,48,0,1,,,,,,,,,,0,,69,0
247488,note_on,,48,0,1,,,,,,,,,,0,,71,0
247488,note_on,,0,0,1,,,,,,,,,,0,,69,100
247536,note_on,,48,0,1,,,,,,,,,,0,,69,0
247536,note_on,,0,0,1,,,,,,,,,,0,,71,100
247584,note_on,,48,0,1,,,,,,,,,,0,,71,0
247584,note_on,,0,0,1,,,,,,,,,,0,,69,100
247584,note_on,,672,0,2,,,,,,,,,,1,,50,0
247632,note_on,,0,0,1,,,,,,,,,,0,,71,100
247632,note_on,,48,0,1,,,,,,,,,,0,,69,0
247680,note_on,,0,0,1,,,,,,,,,,0,,69,100
247680,note_on,,48,0,1,,,,,,,,,,0,,71,0
247680,note_on,,96,0,2,,,,,,,,,,1,,38,100
247808,note_on,,128,0,1,,,,,,,,,,0,,69,0
247808,note_on,,0,0,1,,,,,,,,,,0,,64,0
247872,note_on,,64,0,1,,,,,,,,,,0,,69,0
247872,note_on,,0,0,1,,,,,,,,,,0,,67,100
248000,note_on,,320,0,2,,,,,,,,,,1,,38,0
248064,note_on,,0,0,1,,,,,,,,,,0,,62,100
248064,note_on,,0,0,1,,,,,,,,,,0,,67,100
248064,note_on,,0,0,1,,,,,,,,,,0,,59,100
248064,note_on,,192,0,1,,,,,,,,,,0,,67,0
248064,note_on,,0,0,2,,,,,,,,,,1,,43,100
248064,note_on,,64,0,2,,,,,,,,,,1,,31,100
248736,note_on,,672,0,1,,,,,,,,,,0,,67,0
248736,note_on,,0,0,1,,,,,,,,,,0,,62,0
248736,note_on,,0,0,1,,,,,,,,,,0,,59,0
248736,note_on,,672,0,2,,,,,,,,,,1,,43,0
248736,note_on,,0,0,2,,,,,,,,,,1,,31,0
248832,note_on,,96,0,2,,,,,,,,,,1,,50,100
248832,note_on,,96,0,1,,,,,,,,,,0,,67,100
248832,set_tempo,,8832,1,0,,,,,,600000,,,,,,,
249024,note_on,,192,0,2,,,,,,,,,,1,,50,0
249024,note_on,,192,0,1,,,,,,,,,,0,,67,0
249024,note_on,,0,0,1,,,,,,,,,,0,,62,100
249024,note_on,,0,0,2,,,,,,,,,,1,,47,100
249116,note_on,,92,0,1,,,,,,,,,,0,,62,0
249116,note_on,,92,0,2,,,,,,,,,,1,,47,0
249120,note_on,,4,0,1,,,,,,,,,,0,,67,100
249120,note_on,,4,0,2,,,,,,,,,,1,,50,100
249212,note_on,,92,0,2,,,,,,,,,,1,,50,0
249212,note_on,,92,0,1,,,,,,,,,,0,,67,0
249216,note_on,,4,0,2,,,,,,,,,,1,,43,100
249216,note_on,,4,0,1,,,,,,,,,,0,,59,100
249216,set_tempo,,384,1,0,,,,,,500000,,,,,,,
249308,note_on,,92,0,2,,,,,,,,,,1,,43,0
249308,note_on,,92,0,1,,,,,,,,,,0,,59,0
249312,note_on,,4,0,1,,,,,,,,,,0,,62,100
249312,note_on,,4,0,2,,,,,,,,,,1,,47,100
249404,note_on,,92,0,2,,,,,,,,,,1,,47,0
249404,note_on,,92,0,1,,,,,,,,,,0,,62,0
249408,note_on,,4,0,2,,,,,,,,,,1,,50,100
249408,note_on,,4,0,1,,,,,,,,,,0,,67,100
249500,note_on,,92,0,2,,,,,,,,,,1,,50,0
249500,note_on,,92,0,1,,,,,,,,,,0,,67,0
249504,note_on,,4,0,2,,,,,,,,,,1,,55,100
249504,note_on,,4,0,1,,,,,,,,,,0,,71,100
249596,note_on,,92,0,2,,,,,,,,,,1,,55,0
249596,note_on,,92,0,1,,,,,,,,,,0,,71,0
249600,note_on,,4,0,2,,,,,,,,,,1,,43,100
249600,note_on,,4,0,1,,,,,,,,,,0,,59,100
249692,note_on,,92,0,2,,,,,,,,,,1,,43,0
249692,note_on,,92,0,1,,,,,,,,,,0,,59,0
249696,note_on,,4,0,2,,,,,,,,,,1,,47,100
249696,note_on,,4,0,1,,,,,,,,,,0,,62,100
249788,note_on,,92,0,2,,,,,,,,,,1,,47,0
249788,note_on,,92,0,1,,,,,,,,,,0,,62,0
249792,note_on,,4,0,2,,,,,,,,,,1,,50,100
249792,note_on,,4,0,1,,,,,,,,,,0,,67,100
249884,note_on,,92,0,2,,,,,,,,,,1,,50,0
249884,note_on,,92,0,1,,,,,,,,,,0,,67,0
249888,note_on,,4,0,2,,,,,,,,,,1,,55,100
249888,note_on,,4,0,1,,,,,,,,,,0,,71,100
249980,note_on,,92,0,1,,,,,,,,,,0,,71,0
249980,note_on,,92,0,2,,,,,,,,,,1,,55,0
249984,note_on,,4,0,1,,,,,,,,,,0,,59,100
249984,note_on,,4,0,2,,,,,,,,,,1,,43,100
250076,note_on,,92,0,1,,,,,,,,,,0,,59,0
250076,note_on,,92,0,2,,,,,,,,,,1,,43,0
250080,note_on,,4,0,1,,,,,,,,,,0,,62,100
250080,note_on,,4,0,2,,,,,,,,,,1,,47,100
250172,note_on,,92,0,1,,,,,,,,,,0,,62,0
250172,note_on,,92,0,2,,,,,,,,,,1,,47,0
250176,note_on,,4,0,2,,,,,,,,,,1,,50,100
250176,note_on,,4,0,1,,,,,,,,,,0,,67,100
250268,note_on,,92,0,2,,,,,,,,,,1,,50,0
250268,note_on,,92,0,1,,,,,,,,,,0,,67,0
250272,note_on,,4,0,2,,,,,,,,,,1,,55,100
250272,note_on,,4,0,1,,,,,,,,,,0,,71,100
250364,note_on,,92,0,2,,,,,,,,,,1,,55,0
250364,note_on,,92,0,1,,,,,,,,,,0,,71,0
250368,note_on,,4,0,2,,,,,,,,,,1,,54,100
250368,note_on,,4,0,1,,,,,,,,,,0,,62,100
250460,note_on,,92,0,2,,,,,,,,,,1,,54,0
250460,note_on,,92,0,1,,,,,,,,,,0,,62,0
250464,note_on,,4,0,1,,,,,,,,,,0,,66,100
250464,note_on,,4,0,2,,,,,,,,,,1,,57,100
250556,note_on,,92,0,1,,,,,,,,,,0,,66,0
250556,note_on,,92,0,2,,,,,,,,,,1,,57,0
250560,note_on,,4,0,1,,,,,,,,,,0,,69,100
250560,note_on,,4,0,2,,,,,,,,,,1,,62,100
250652,note_on,,92,0,1,,,,,,,,,,0,,69,0
250652,note_on,,92,0,2,,,,,,,,,,1,,62,0
250656,note_on,,4,0,1,,,,,,,,,,0,,74,100
250656,note_on,,4,0,2,,,,,,,,,,1,,57,100
250748,note_on,,92,0,2,,,,,,,,,,1,,57,0
250748,note_on,,92,0,1,,,,,,,,,,0,,74,0
250752,note_on,,4,0,2,,,,,,,,,,1,,54,100
250752,note_on,,4,0,1,,,,,,,,,,0,,62,100
250844,note_on,,92,0,2,,,,,,,,,,1,,54,0
250844,note_on,,92,0,1,,,,,,,,,,0,,62,0
250848,note_on,,4,0,1,,,,,,,,,,0,,66,100
250848,note_on,,4,0,2,,,,,,,,,,1,,57,100
250940,note_on,,92,0,2,,,,,,,,,,1,,57,0
250940,note_on,,92,0,1,,,,,,,,,,0,,66,0
250944,note_on,,4,0,2,,,,,,,,,,1,,62,100
250944,note_on,,4,0,1,,,,,,,,,,0,,69,100
251036,note_on,,92,0,2,,,,,,,,,,1,,62,0
251036,note_on,,92,0,1,,,,,,,,,,0,,69,0
251040,note_on,,4,0,1,,,,,,,,,,0,,74,100
251040,note_on,,4,0,2,,,,,,,,,,1,,57,100
251132,note_on,,92,0,2,,,,,,,,,,1,,57,0
251132,note_on,,92,0,1,,,,,,,,,,0,,74,0
251136,note_on,,4,0,2,,,,,,,,,,1,,54,100
251136,note_on,,4,0,1,,,,,,,,,,0,,62,100
251228,note_on,,92,0,2,,,,,,,,,,1,,54,0
251228,note_on,,92,0,1,,,,,,,,,,0,,62,0
251232,note_on,,4,0,1,,,,,,,,,,0,,66,100
251232,note_on,,4,0,2,,,,,,,,,,1,,57,100
251324,note_on,,92,0,1,,,,,,,,,,0,,66,0
251324,note_on,,92,0,2,,,,,,,,,,1,,57,0
251328,note_on,,4,0,1,,,,,,,,,,0,,69,100
251328,note_on,,4,0,2,,,,,,,,,,1,,62,100
251420,note_on,,92,0,1,,,,,,,,,,0,,69,0
251420,note_on,,92,0,2,,,,,,,,,,1,,62,0
251424,note_on,,4,0,1,,,,,,,,,,0,,74,100
251424,note_on,,4,0,2,,,,,,,,,,1,,57,100
251516,note_on,,92,0,1,,,,,,,,,,0,,74,0
251516,note_on,,92,0,2,,,,,,,,,,1,,57,0
251520,note_on,,4,0,2,,,,,,,,,,1,,52,100
251520,note_on,,4,0,1,,,,,,,,,,0,,67,100
251612,note_on,,92,0,1,,,,,,,,,,0,,67,0
251612,note_on,,92,0,2,,,,,,,,,,1,,52,0
251616,note_on,,4,0,1,,,,,,,,,,0,,73,100
251616,note_on,,4,0,2,,,,,,,,,,1,,55,100
251708,note_on,,92,0,1,,,,,,,,,,0,,73,0
251708,note_on,,92,0,2,,,,,,,,,,1,,55,0
251712,note_on,,4,0,1,,,,,,,,,,0,,76,100
251712,note_on,,4,0,2,,,,,,,,,,1,,61,100
251804,note_on,,92,0,2,,,,,,,,,,1,,61,0
251804,note_on,,92,0,1,,,,,,,,,,0,,76,0
251808,note_on,,4,0,2,,,,,,,,,,1,,64,100
251808,note_on,,4,0,1,,,,,,,,,,0,,79,100
251900,note_on,,92,0,1,,,,,,,,,,0,,79,0
251900,note_on,,92,0,2,,,,,,,,,,1,,64,0
251904,note_on,,4,0,2,,,,,,,,,,1,,52,100
251904,note_on,,4,0,1,,,,,,,,,,0,,67,100
251996,note_on,,92,0,1,,,,,,,,,,0,,67,0
251996,note_on,,92,0,2,,,,,,,,,,1,,52,0
252000,note_on,,4,0,1,,,,,,,,,,0,,73,100
252000,note_on,,4,0,2,,,,,,,,,,1,,55,100
252092,note_on,,92,0,1,,,,,,,,,,0,,73,0
252092,note_on,,92,0,2,,,,,,,,,,1,,55,0
252096,note_on,,4,0,2,,,,,,,,,,1,,61,100
252096,note_on,,4,0,1,,,,,,,,,,0,,76,100
252188,note_on,,92,0,1,,,,,,,,,,0,,76,0
252188,note_on,,92,0,2,,,,,,,,,,1,,61,0
252192,note_on,,4,0,2,,,,,,,,,,1,,64,100
252192,note_on,,4,0,1,,,,,,,,,,0,,79,100
252284,note_on,,92,0,1,,,,,,,,,,0,,79,0
252284,note_on,,92,0,2,,,,,,,,,,1,,64,0
252288,note_on,,4,0,1,,,,,,,,,,0,,67,100
252288,note_on,,4,0,2,,,,,,,,,,1,,52,100
252380,note_on,,92,0,1,,,,,,,,,,0,,67,0
252380,note_on,,92,0,2,,,,,,,,,,1,,52,0
252384,note_on,,4,0,2,,,,,,,,,,1,,55,100
252384,note_on,,4,0,1,,,,,,,,,,0,,73,100
252476,note_on,,92,0,1,,,,,,,,,,0,,73,0
252476,note_on,,92,0,2,,,,,,,,,,1,,55,0
252480,note_on,,4,0,2,,,,,,,,,,1,,61,100
252480,note_on,,4,0,1,,,,,,,,,,0,,76,100
252572,note_on,,92,0,1,,,,,,,,,,0,,76,0
252572,note_on,,92,0,2,,,,,,,,,,1,,61,0
252576,note_on,,4,0,2,,,,,,,,,,1,,64,100
252576,note_on,,4,0,1,,,,,,,,,,0,,79,100
252668,note_on,,92,0,2,,,,,,,,,,1,,64,0
252668,note_on,,92,0,1,,,,,,,,,,0,,79,0
252672,note_on,,4,0,2,,,,,,,,,,1,,50,100
252672,note_on,,4,0,1,,,,,,,,,,0,,66,100
252764,note_on,,92,0,2,,,,,,,,,,1,,50,0
252764,note_on,,92,0,1,,,,,,,,,,0,,66,0
252768,note_on,,4,0,2,,,,,,,,,,1,,54,100
252768,note_on,,4,0,1,,,,,,,,,,0,,69,100
252860,note_on,,92,0,1,,,,,,,,,,0,,69,0
252860,note_on,,92,0,2,,,,,,,,,,1,,54,0
252864,note_on,,4,0,2,,,,,,,,,,1,,57,100
252864,note_on,,4,0,1,,,,,,,,,,0,,74,100
252956,note_on,,92,0,1,,,,,,,,,,0,,74,0
252956,note_on,,92,0,2,,,,,,,,,,1,,57,0
252960,note_on,,4,0,1,,,,,,,,,,0,,78,100
252960,note_on,,4,0,2,,,,,,,,,,1,,62,100
253052,note_on,,92,0,1,,,,,,,,,,0,,78,0
253052,note_on,,92,0,2,,,,,,,,,,1,,62,0
253056,note_on,,4,0,2,,,,,,,,,,1,,50,100
253056,note_on,,4,0,1,,,,,,,,,,0,,66,100
253148,note_on,,92,0,1,,,,,,,,,,0,,66,0
253148,note_on,,92,0,2,,,,,,,,,,1,,50,0
253152,note_on,,4,0,1,,,,,,,,,,0,,69,100
253152,note_on,,4,0,2,,,,,,,,,,1,,54,100
253244,note_on,,92,0,2,,,,,,,,,,1,,54,0
253244,note_on,,92,0,1,,,,,,,,,,0,,69,0
253248,note_on,,4,0,2,,,,,,,,,,1,,57,100
253248,note_on,,4,0,1,,,,,,,,,,0,,74,100
253340,note_on,,92,0,2,,,,,,,,,,1,,57,0
253340,note_on,,92,0,1,,,,,,,,,,0,,74,0
253344,note_on,,4,0,2,,,,,,,,,,1,,60,100
253344,note_on,,4,0,1,,,,,,,,,,0,,78,100
253436,note_on,,92,0,1,,,,,,,,,,0,,78,0
253436,note_on,,92,0,2,,,,,,,,,,1,,60,0
253440,note_on,,4,0,2,,,,,,,,,,1,,50,100
253440,note_on,,4,0,1,,,,,,,,,,0,,66,100
253532,note_on,,92,0,1,,,,,,,,,,0,,66,0
253532,note_on,,92,0,2,,,,,,,,,,1,,50,0
253536,note_on,,4,0,1,,,,,,,,,,0,,69,100
253536,note_on,,4,0,2,,,,,,,,,,1,,54,100
253628,note_on,,92,0,1,,,,,,,,,,0,,69,0
253628,note_on,,92,0,2,,,,,,,,,,1,,54,0
253632,note_on,,4,0,2,,,,,,,,,,1,,57,100
253632,note_on,,4,0,1,,,,,,,,,,0,,74,100
253724,note_on,,92,0,1,,,,,,,,,,0,,74,0
253724,note_on,,92,0,2,,,,,,,,,,1,,57,0
253728,note_on,,4,0,2,,,,,,,,,,1,,60,100
253728,note_on,,4,0,1,,,,,,,,,,0,,78,100
253820,note_on,,92,0,2,,,,,,,,,,1,,60,0
253820,note_on,,92,0,1,,,,,,,,,,0,,78,0
253824,note_on,,4,0,1,,,,,,,,,,0,,67,100
253824,note_on,,4,0,2,,,,,,,,,,1,,47,100
253916,note_on,,92,0,2,,,,,,,,,,1,,47,0
253916,note_on,,92,0,1,,,,,,,,,,0,,67,0
253920,note_on,,4,0,1,,,,,,,,,,0,,71,100
253920,note_on,,4,0,2,,,,,,,,,,1,,50,100
254012,note_on,,92,0,2,,,,,,,,,,1,,50,0
254012,note_on,,92,0,1,,,,,,,,,,0,,71,0
254016,note_on,,4,0,1,,,,,,,,,,0,,74,100
254016,note_on,,4,0,2,,,,,,,,,,1,,55,100
254108,note_on,,92,0,2,,,,,,,,,,1,,55,0
254108,note_on,,92,0,1,,,,,,,,,,0,,74,0
254112,note_on,,4,0,1,,,,,,,,,,0,,79,100
254112,note_on,,4,0,2,,,,,,,,,,1,,59,100
254204,note_on,,92,0,1,,,,,,,,,,0,,79,0
254204,note_on,,92,0,2,,,,,,,,,,1,,59,0
254208,note_on,,4,0,1,,,,,,,,,,0,,62,100
254208,note_on,,4,0,2,,,,,,,,,,1,,47,100
254300,note_on,,92,0,2,,,,,,,,,,1,,47,0
254300,note_on,,92,0,1,,,,,,,,,,0,,62,0
254304,note_on,,4,0,1,,,,,,,,,,0,,67,100
254304,note_on,,4,0,2,,,,,,,,,,1,,50,100
254396,note_on,,92,0,1,,,,,,,,,,0,,67,0
254396,note_on,,92,0,2,,,,,,,,,,1,,50,0
254400,note_on,,4,0,1,,,,,,,,,,0,,71,100
254400,note_on,,4,0,2,,,,,,,,,,1,,55,100
254492,note_on,,92,0,1,,,,,,,,,,0,,71,0
254492,note_on,,92,0,2,,,,,,,,,,1,,55,0
254496,note_on,,4,0,2,,,,,,,,,,1,,59,100
254496,note_on,,4,0,1,,,,,,,,,,0,,74,100
254588,note_on,,92,0,2,,,,,,,,,,1,,59,0
254588,note_on,,92,0,1,,,,,,,,,,0,,74,0
254592,note_on,,4,0,2,,,,,,,,,,1,,47,100
254592,note_on,,4,0,1,,,,,,,,,,0,,62,100
254684,note_on,,92,0,1,,,,,,,,,,0,,62,0
254684,note_on,,92,0,2,,,,,,,,,,1,,47,0
254688,note_on,,4,0,2,,,,,,,,,,1,,50,100
254688,note_on,,4,0,1,,,,,,,,,,0,,67,100
254780,note_on,,92,0,2,,,,,,,,,,1,,50,0
254780,note_on,,92,0,1,,,,,,,,,,0,,67,0
254784,note_on,,4,0,2,,,,,,,,,,1,,55,100
254784,note_on,,4,0,1,,,,,,,,,,0,,71,100
254876,note_on,,92,0,2,,,,,,,,,,1,,55,0
254876,note_on,,92,0,1,,,,,,,,,,0,,71,0
254880,note_on,,4,0,2,,,,,,,,,,1,,59,100
254880,note_on,,4,0,1,,,,,,,,,,0,,74,100
254972,note_on,,92,0,1,,,,,,,,,,0,,74,0
254972,note_on,,92,0,2,,,,,,,,,,1,,59,0
254976,note_on,,4,0,1,,,,,,,,,,0,,64,100
254976,note_on,,4,0,2,,,,,,,,,,1,,48,100
255068,note_on,,92,0,1,,,,,,,,,,0,,64,0
255068,note_on,,92,0,2,,,,,,,,,,1,,48,0
255072,note_on,,4,0,2,,,,,,,,,,1,,52,100
255072,note_on,,4,0,1,,,,,,,,,,0,,67,100
255164,note_on,,92,0,1,,,,,,,,,,0,,67,0
255164,note_on,,92,0,2,,,,,,,,,,1,,52,0
255168,note_on,,4,0,1,,,,,,,,,,0,,72,100
255168,note_on,,4,0,2,,,,,,,,,,1,,55,100
255260,note_on,,92,0,2,,,,,,,,,,1,,55,0
255260,note_on,,92,0,1,,,,,,,,,,0,,72,0
255264,note_on,,4,0,1,,,,,,,,,,0,,76,100
255264,note_on,,4,0,2,,,,,,,,,,1,,60,100
255356,note_on,,92,0,1,,,,,,,,,,0,,76,0
255356,note_on,,92,0,2,,,,,,,,,,1,,60,0
255360,note_on,,4,0,1,,,,,,,,,,0,,64,100
255360,note_on,,0,0,1,,,,,,,,,,0,,67,100
255360,note_on,,4,0,2,,,,,,,,,,1,,48,100
255360,note_on,,0,0,1,,,,,,,,,,0,,72,100
255360,note_on,,0,0,1,,,,,,,,,,0,,76,100
255360,note_on,,0,0,2,,,,,,,,,,1,,60,100
255360,note_on,,0,0,2,,,,,,,,,,1,,55,100
255360,note_on,,0,0,2,,,,,,,,,,1,,52,100
255872,note_on,,0,0,2,,,,,,,,,,1,,48,0
255872,note_on,,512,0,2,,,,,,,,,,1,,60,0
255872,note_on,,512,0,1,,,,,,,,,,0,,76,0
255872,note_on,,0,0,1,,,,,,,,,,0,,67,0
255872,note_on,,0,0,1,,,,,,,,,,0,,64,0
255872,note_on,,0,0,2,,,,,,,,,,1,,55,0
255872,note_on,,0,0,1,,,,,,,,,,0,,72,0
255872,note_on,,0,0,2,,,,,,,,,,1,,52,0
255936,note_on,,0,0,2,,,,,,,,,,1,,52,100
255936,note_on,,0,0,2,,,,,,,,,,1,,55,100
255936,note_on,,64,0,2,,,,,,,,,,1,,48,100
255936,note_on,,64,0,1,,,,,,,,,,0,,67,100
255936,note_on,,0,0,1,,,,,,,,,,0,,69,100
255936,note_on,,0,0,1,,,,,,,,,,0,,76,100
256124,note_on,,188,0,1,,,,,,,,,,0,,76,0
256124,note_on,,0,0,1,,,,,,,,,,0,,69,0
256124,note_on,,188,0,2,,,,,,,,,,1,,55,0
256124,note_on,,0,0,2,,,,,,,,,,1,,48,0
256124,note_on,,0,0,2,,,,,,,,,,1,,52,0
256124,note_on,,0,0,1,,,,,,,,,,0,,67,0
256128,set_tempo,,6912,1,0,,,,,,545455,,,,,,,
256128,note_on,,0,0,1,,,,,,,,,,0,,62,100
256128,note_on,,0,0,1,,,,,,,,,,0,,67,100
256128,note_on,,4,0,2,,,,,,,,,,1,,50,100
256128,note_on,,4,0,1,,,,,,,,,,0,,71,100
256320,note_on,,192,0,1,,,,,,,,,,0,,71,0
256320,note_on,,0,0,1,,,,,,,,,,0,,72,100
256512,note_on,,0,0,1,,,,,,,,,,0,,71,100
256512,note_on,,192,0,1,,,,,,,,,,0,,72,0
256512,note_on,,0,0,1,,,,,,,,,,0,,66,100
256512,note_on,,0,0,1,,,,,,,,,,0,,60,100
256512,note_on,,0,0,1,,,,,,,,,,0,,67,0
256512,note_on,,0,0,1,,,,,,,,,,0,,62,0
256608,note_on,,0,0,1,,,,,,,,,,0,,69,100
256608,note_on,,96,0,1,,,,,,,,,,0,,71,0
256656,note_on,,48,0,1,,,,,,,,,,0,,69,0
256656,note_on,,0,0,1,,,,,,,,,,0,,71,100
256704,note_on,,48,0,1,,,,,,,,,,0,,71,0
256704,note_on,,0,0,1,,,,,,,,,,0,,69,100
256752,note_on,,48,0,1,,,,,,,,,,0,,69,0
256752,note_on,,0,0,1,,,,,,,,,,0,,71,100
256800,note_on,,48,0,1,,,,,,,,,,0,,71,0
256800,note_on,,0,0,1,,,,,,,,,,0,,69,100
256800,note_on,,672,0,2,,,,,,,,,,1,,50,0
256848,note_on,,48,0,1,,,,,,,,,,0,,69,0
256848,note_on,,0,0,1,,,,,,,,,,0,,71,100
256896,note_on,,96,0,2,,,,,,,,,,1,,38,100
256896,note_on,,0,0,1,,,,,,,,,,0,,69,100
256896,note_on,,48,0,1,,,,,,,,,,0,,71,0
257088,note_on,,0,0,1,,,,,,,,,,0,,67,100
257088,note_on,,192,0,1,,,,,,,,,,0,,69,0
257184,note_on,,0,0,1,,,,,,,,,,0,,60,0
257184,note_on,,96,0,1,,,,,,,,,,0,,66,0
257216,note_on,,320,0,2,,,,,,,,,,1,,38,0
257280,note_on,,96,0,1,,,,,,,,,,0,,67,0
257280,set_tempo,,1152,1,0,,,,,,638298,,,,,,,
257280,note_on,,0,0,1,,,,,,,,,,0,,59,100
257280,end_of_track,,0,1,0,,,,,,,,,,,,,
257280,note_on,,0,0,1,,,,,,,,,,0,,62,100
257280,note_on,,0,0,1,,,,,,,,,,0,,67,100
257280,note_on,,0,0,2,,,,,,,,,,1,,43,100
257280,note_on,,0,0,2,,,,,,,,,,1,,43,100
257280,note_on,,64,0,2,,,,,,,,,,1,,31,100
257376,note_on,,0,0,2,,,,,,,,,,1,,47,100
257376,note_on,,96,0,2,,,,,,,,,,1,,43,0
257472,note_on,,0,0,2,,,,,,,,,,1,,50,100
257472,note_on,,96,0,2,,,,,,,,,,1,,47,0
257568,note_on,,96,0,2,,,,,,,,,,1,,50,0
257568,note_on,,0,0,2,,,,,,,,,,1,,55,100
257664,note_on,,96,0,2,,,,,,,,,,1,,55,0
257664,note_on,,0,0,2,,,,,,,,,,1,,50,100
257760,note_on,,0,0,2,,,,,,,,,,1,,47,100
257760,note_on,,96,0,2,,,,,,,,,,1,,50,0
257856,note_on,,0,0,2,,,,,,,,,,1,,31,100
257856,note_on,,0,0,2,,,,,,,,,,1,,43,100
257856,note_on,,96,0,2,,,,,,,,,,1,,47,0
258336,note_on,,0,0,2,,,,,,,,,,1,,43,0
258336,note_on,,1056,0,1,,,,,,,,,,0,,67,0
258336,note_on,,0,0,1,,,,,,,,,,0,,62,0
258336,note_on,,480,0,2,,,,,,,,,,1,,31,0
258336,end_of_track,,0,1,1,,,,,,,,,,,,,
258336,note_on,,0,0,1,,,,,,,,,,0,,59,0
258368,end_of_track,,0,1,2,,,,,,,,,,,,,
258368,note_on,,32,0,2,,,,,,,,,,1,,43,0
258368,note_on,,0,0,2,,,,,,,,,,1,,31,0
