tick,type,data,time,meta,track,frame_rate,hours,minutes,seconds,frames,sub_frames,port,key,tempo,numerator,denominator,clocks_per_click,notated_32nd_notes_per_beat,control,value,channel,program,note,velocity
0,sequencer_specific,"(0, 0, 91, 35, 1, 0, 5, 4, 35, 0)",0,1,0,,,,,,,,,,,,,,,,,,,
0,midi_port,,0,1,11,,,,,,,0,,,,,,,,,,,,
0,control_change,,0,0,11,,,,,,,,,,,,,,11,127,10,,,
0,control_change,,0,0,11,,,,,,,,,,,,,,10,48,10,,,
0,control_change,,0,0,11,,,,,,,,,,,,,,7,96,10,,,
0,program_change,,0,0,11,,,,,,,,,,,,,,,,10,48,,
0,program_change,,0,0,8,,,,,,,,,,,,,,,,6,73,,
0,control_change,,0,0,6,,,,,,,,,,,,,,7,80,2,,,
0,control_change,,0,0,6,,,,,,,,,,,,,,10,65,2,,,
0,control_change,,0,0,6,,,,,,,,,,,,,,11,127,2,,,
0,midi_port,,0,1,6,,,,,,,0,,,,,,,,,,,,
0,program_change,,0,0,13,,,,,,,,,,,,,,,,12,48,,
0,control_change,,0,0,13,,,,,,,,,,,,,,7,96,12,,,
0,control_change,,0,0,13,,,,,,,,,,,,,,10,80,12,,,
0,control_change,,0,0,13,,,,,,,,,,,,,,11,127,12,,,
0,midi_port,,0,1,13,,,,,,,0,,,,,,,,,,,,
0,control_change,,0,0,9,,,,,,,,,,,,,,7,96,7,,,
0,track_name,,0,1,6,,,,,,,,,,,,,,,,,,,
0,track_name,,0,1,7,,,,,,,,,,,,,,,,,,,
0,midi_port,,0,1,7,,,,,,,0,,,,,,,,,,,,
0,control_change,,0,0,7,,,,,,,,,,,,,,11,127,5,,,
0,control_change,,0,0,7,,,,,,,,,,,,,,10,32,5,,,
0,track_name,,0,1,11,,,,,,,,,,,,,,,,,,,
0,control_change,,0,0,7,,,,,,,,,,,,,,7,96,5,,,
0,program_change,,0,0,10,,,,,,,,,,,,,,,,8,60,,
0,control_change,,0,0,10,,,,,,,,,,,,,,7,96,8,,,
0,program_change,,0,0,6,,,,,,,,,,,,,,,,2,70,,
0,note_on,,0,0,15,,,,,,,,,,,,,,,,15,,60,64
0,note_on,,0,0,15,,,,,,,,,,,,,,,,15,,65,64
0,note_on,,0,0,15,,,,,,,,,,,,,,,,15,,68,64
0,note_on,,0,0,15,,,,,,,,,,,,,,,,15,,41,64
0,program_change,,0,0,15,,,,,,,,,,,,,,,,15,6,,
0,control_change,,0,0,15,,,,,,,,,,,,,,7,96,15,,,
0,control_change,,0,0,15,,,,,,,,,,,,,,10,64,15,,,
0,control_change,,0,0,15,,,,,,,,,,,,,,11,127,15,,,
0,midi_port,,0,1,15,,,,,,,0,,,,,,,,,,,,
0,track_name,,0,1,15,,,,,,,,,,,,,,,,,,,
0,track_name,,0,1,10,,,,,,,,,,,,,,,,,,,
0,midi_port,,0,1,10,,,,,,,0,,,,,,,,,,,,
0,control_change,,0,0,10,,,,,,,,,,,,,,11,127,8,,,
0,note_on,,0,0,14,,,,,,,,,,,,,,,,13,,41,64
0,program_change,,0,0,14,,,,,,,,,,,,,,,,13,48,,
0,control_change,,0,0,14,,,,,,,,,,,,,,7,96,13,,,
0,control_change,,0,0,14,,,,,,,,,,,,,,10,96,13,,,
0,control_change,,0,0,14,,,,,,,,,,,,,,11,127,13,,,
0,midi_port,,0,1,14,,,,,,,0,,,,,,,,,,,,
0,track_name,,0,1,14,,,,,,,,,,,,,,,,,,,
0,control_change,,0,0,10,,,,,,,,,,,,,,10,80,8,,,
0,program_change,,0,0,7,,,,,,,,,,,,,,,,5,73,,
0,track_name,,0,1,13,,,,,,,,,,,,,,,,,,,
0,control_change,,0,0,5,,,,,,,,,,,,,,10,70,1,,,
0,control_change,,0,0,5,,,,,,,,,,,,,,11,127,1,,,
0,midi_port,,0,1,5,,,,,,,0,,,,,,,,,,,,
0,track_name,,0,1,5,,,,,,,,,,,,,,,,,,,
0,end_of_track,,0,1,4,,,,,,,,,,,,,,,,,,,
0,midi_port,,0,1,4,,,,,,,0,,,,,,,,,,,,
0,end_of_track,,0,1,3,,,,,,,,,,,,,,,,,,,
0,midi_port,,0,1,3,,,,,,,0,,,,,,,,,,,,
0,track_name,,0,1,3,,,,,,,,,,,,,,,,,,,
0,end_of_track,,0,1,2,,,,,,,,,,,,,,,,,,,
0,midi_port,,0,1,2,,,,,,,0,,,,,,,,,,,,
0,track_name,,0,1,2,,,,,,,,,,,,,,,,,,,
0,control_change,,0,0,5,,,,,,,,,,,,,,7,72,1,,,
0,end_of_track,,0,1,1,,,,,,,,,,,,,,,,,,,
0,track_name,,0,1,1,,,,,,,,,,,,,,,,,,,
0,control_change,,0,0,12,,,,,,,,,,,,,,11,127,11,,,
0,midi_port,,0,1,12,,,,,,,0,,,,,,,,,,,,
0,track_name,,0,1,12,,,,,,,,,,,,,,,,,,,
0,time_signature,,0,1,0,,,,,,,,,,4,4,24,8,,,,,,
0,set_tempo,,0,1,0,,,,,,,,,333333,,,,,,,,,,
0,key_signature,,0,1,0,,,,,,,,Ab,,,,,,,,,,,
0,midi_port,,0,1,0,,,,,,,0,,,,,,,,,,,,
0,smpte_offset,,0,1,0,25,32,0,3,0,0,,,,,,,,,,,,,
0,instrument_name,,0,1,0,,,,,,,,,,,,,,,,,,,
0,track_name,,0,1,0,,,,,,,,,,,,,,,,,,,
0,midi_port,,0,1,1,,,,,,,0,,,,,,,,,,,,
0,program_change,,0,0,5,,,,,,,,,,,,,,,,1,68,,
0,program_change,,0,0,9,,,,,,,,,,,,,,,,7,70,,
0,track_name,,0,1,8,,,,,,,,,,,,,,,,,,,
0,control_change,,0,0,9,,,,,,,,,,,,,,10,48,7,,,
0,control_change,,0,0,9,,,,,,,,,,,,,,11,127,7,,,
0,midi_port,,0,1,9,,,,,,,0,,,,,,,,,,,,
0,track_name,,0,1,9,,,,,,,,,,,,,,,,,,,
0,program_change,,0,0,12,,,,,,,,,,,,,,,,11,48,,
0,control_change,,0,0,12,,,,,,,,,,,,,,7,96,11,,,
0,control_change,,0,0,12,,,,,,,,,,,,,,10,24,11,,,
0,control_change,,0,0,8,,,,,,,,,,,,,,11,127,6,,,
0,control_change,,0,0,8,,,,,,,,,,,,,,7,96,6,,,
0,control_change,,0,0,8,,,,,,,,,,,,,,10,96,6,,,
0,midi_port,,0,1,8,,,,,,,0,,,,,,,,,,,,
239,note_on,,0,0,15,,,,,,,,,,,,,,,,15,,60,0
239,note_on,,0,0,15,,,,,,,,,,,,,,,,15,,65,0
239,note_on,,0,0,15,,,,,,,,,,,,,,,,15,,68,0
239,note_on,,239,0,15,,,,,,,,,,,,,,,,15,,41,0
239,note_on,,239,0,14,,,,,,,,,,,,,,,,13,,41,0
240,note_on,,240,0,5,,,,,,,,,,,,,,,,1,,72,64
240,note_on,,1,0,15,,,,,,,,,,,,,,,,15,,72,64
240,note_on,,240,0,7,,,,,,,,,,,,,,,,5,,72,64
240,note_on,,240,0,11,,,,,,,,,,,,,,,,10,,72,64
479,note_on,,239,0,15,,,,,,,,,,,,,,,,15,,72,0
479,note_on,,239,0,7,,,,,,,,,,,,,,,,5,,72,0
479,note_on,,239,0,5,,,,,,,,,,,,,,,,1,,72,0
479,note_on,,239,0,11,,,,,,,,,,,,,,,,10,,72,0
480,note_on,,1,0,7,,,,,,,,,,,,,,,,5,,68,64
480,note_on,,1,0,11,,,,,,,,,,,,,,,,10,,68,64
480,note_on,,1,0,5,,,,,,,,,,,,,,,,1,,68,64
480,note_on,,1,0,15,,,,,,,,,,,,,,,,15,,68,64
719,note_on,,239,0,5,,,,,,,,,,,,,,,,1,,68,0
719,note_on,,239,0,11,,,,,,,,,,,,,,,,10,,68,0
719,note_on,,239,0,15,,,,,,,,,,,,,,,,15,,68,0
719,note_on,,239,0,7,,,,,,,,,,,,,,,,5,,68,0
720,note_on,,1,0,11,,,,,,,,,,,,,,,,10,,73,64
720,note_on,,1,0,7,,,,,,,,,,,,,,,,5,,73,64
720,note_on,,1,0,15,,,,,,,,,,,,,,,,15,,73,64
720,note_on,,1,0,5,,,,,,,,,,,,,,,,1,,73,64
959,note_on,,239,0,11,,,,,,,,,,,,,,,,10,,73,0
959,note_on,,239,0,7,,,,,,,,,,,,,,,,5,,73,0
959,note_on,,239,0,15,,,,,,,,,,,,,,,,15,,73,0
959,note_on,,239,0,5,,,,,,,,,,,,,,,,1,,73,0
960,note_on,,1,0,7,,,,,,,,,,,,,,,,5,,64,64
960,note_on,,1,0,15,,,,,,,,,,,,,,,,15,,64,64
960,note_on,,1,0,11,,,,,,,,,,,,,,,,10,,64,64
960,note_on,,1,0,5,,,,,,,,,,,,,,,,1,,64,64
1439,note_on,,479,0,5,,,,,,,,,,,,,,,,1,,64,0
1439,note_on,,479,0,15,,,,,,,,,,,,,,,,15,,64,0
1439,note_on,,479,0,11,,,,,,,,,,,,,,,,10,,64,0
1439,note_on,,479,0,7,,,,,,,,,,,,,,,,5,,64,0
1440,note_on,,1,0,5,,,,,,,,,,,,,,,,1,,65,64
1440,note_on,,1,0,7,,,,,,,,,,,,,,,,5,,65,64
1440,note_on,,1,0,15,,,,,,,,,,,,,,,,15,,65,64
1440,note_on,,1,0,11,,,,,,,,,,,,,,,,10,,65,64
1679,note_on,,239,0,11,,,,,,,,,,,,,,,,10,,65,0
1679,note_on,,239,0,7,,,,,,,,,,,,,,,,5,,65,0
1679,note_on,,239,0,5,,,,,,,,,,,,,,,,1,,65,0
1680,note_on,,1,0,11,,,,,,,,,,,,,,,,10,,67,64
1680,note_on,,1,0,5,,,,,,,,,,,,,,,,1,,67,64
1680,note_on,,1,0,7,,,,,,,,,,,,,,,,5,,67,64
1799,note_on,,359,0,15,,,,,,,,,,,,,,,,15,,65,0
1800,note_on,,1,0,15,,,,,,,,,,,,,,,,15,,67,64
1919,note_on,,119,0,15,,,,,,,,,,,,,,,,15,,67,0
1919,note_on,,239,0,11,,,,,,,,,,,,,,,,10,,67,0
1919,note_on,,239,0,7,,,,,,,,,,,,,,,,5,,67,0
1919,note_on,,239,0,5,,,,,,,,,,,,,,,,1,,67,0
1920,note_on,,1,0,11,,,,,,,,,,,,,,,,10,,68,64
1920,note_on,,1,0,15,,,,,,,,,,,,,,,,15,,68,64
1920,note_on,,1,0,7,,,,,,,,,,,,,,,,5,,68,64
1920,note_on,,1,0,5,,,,,,,,,,,,,,,,1,,68,64
2160,note_on,,240,0,15,,,,,,,,,,,,,,,,15,,65,64
2160,note_on,,2160,0,12,,,,,,,,,,,,,,,,11,,65,64
2160,note_on,,2160,0,8,,,,,,,,,,,,,,,,6,,65,64
2279,note_on,,359,0,11,,,,,,,,,,,,,,,,10,,68,0
2279,note_on,,359,0,7,,,,,,,,,,,,,,,,5,,68,0
2279,note_on,,119,0,15,,,,,,,,,,,,,,,,15,,68,0
2279,note_on,,359,0,5,,,,,,,,,,,,,,,,1,,68,0
2280,note_on,,1,0,7,,,,,,,,,,,,,,,,5,,70,64
2280,note_on,,1,0,11,,,,,,,,,,,,,,,,10,,70,64
2280,note_on,,1,0,5,,,,,,,,,,,,,,,,1,,70,64
2280,note_on,,1,0,15,,,,,,,,,,,,,,,,15,,70,64
2399,note_on,,119,0,5,,,,,,,,,,,,,,,,1,,70,0
2399,note_on,,239,0,8,,,,,,,,,,,,,,,,6,,65,0
2399,note_on,,119,0,11,,,,,,,,,,,,,,,,10,,70,0
2399,note_on,,0,0,15,,,,,,,,,,,,,,,,15,,70,0
2399,note_on,,119,0,15,,,,,,,,,,,,,,,,15,,65,0
2399,note_on,,119,0,7,,,,,,,,,,,,,,,,5,,70,0
2399,note_on,,239,0,12,,,,,,,,,,,,,,,,11,,65,0
2400,note_on,,1,0,12,,,,,,,,,,,,,,,,11,,63,64
2400,note_on,,1,0,5,,,,,,,,,,,,,,,,1,,72,64
2400,note_on,,1,0,11,,,,,,,,,,,,,,,,10,,72,64
2400,note_on,,1,0,15,,,,,,,,,,,,,,,,15,,72,64
2400,note_on,,0,0,15,,,,,,,,,,,,,,,,15,,63,64
2400,note_on,,1,0,7,,,,,,,,,,,,,,,,5,,72,64
2400,note_on,,1,0,8,,,,,,,,,,,,,,,,6,,63,64
2639,note_on,,239,0,12,,,,,,,,,,,,,,,,11,,63,0
2639,note_on,,239,0,15,,,,,,,,,,,,,,,,15,,63,0
2639,note_on,,239,0,8,,,,,,,,,,,,,,,,6,,63,0
2640,note_on,,1,0,15,,,,,,,,,,,,,,,,15,,68,64
2640,note_on,,1,0,8,,,,,,,,,,,,,,,,6,,68,64
2640,note_on,,1,0,12,,,,,,,,,,,,,,,,11,,68,64
2879,note_on,,239,0,12,,,,,,,,,,,,,,,,11,,68,0
2879,note_on,,479,0,11,,,,,,,,,,,,,,,,10,,72,0
2879,note_on,,479,0,7,,,,,,,,,,,,,,,,5,,72,0
2879,note_on,,239,0,15,,,,,,,,,,,,,,,,15,,72,0
2879,note_on,,0,0,15,,,,,,,,,,,,,,,,15,,68,0
2879,note_on,,239,0,8,,,,,,,,,,,,,,,,6,,68,0
2879,note_on,,479,0,5,,,,,,,,,,,,,,,,1,,72,0
2880,note_on,,1,0,15,,,,,,,,,,,,,,,,15,,59,64
2880,note_on,,1,0,8,,,,,,,,,,,,,,,,6,,59,64
2880,note_on,,1,0,12,,,,,,,,,,,,,,,,11,,59,64
3000,note_on,,121,0,7,,,,,,,,,,,,,,,,5,,74,64
3000,note_on,,121,0,5,,,,,,,,,,,,,,,,1,,74,64
3000,note_on,,121,0,11,,,,,,,,,,,,,,,,10,,74,64
3000,note_on,,120,0,15,,,,,,,,,,,,,,,,15,,74,64
3119,note_on,,119,0,5,,,,,,,,,,,,,,,,1,,74,0
3119,note_on,,119,0,15,,,,,,,,,,,,,,,,15,,74,0
3119,note_on,,119,0,7,,,,,,,,,,,,,,,,5,,74,0
3119,note_on,,119,0,11,,,,,,,,,,,,,,,,10,,74,0
3120,note_on,,1,0,5,,,,,,,,,,,,,,,,1,,79,64
3120,note_on,,1,0,15,,,,,,,,,,,,,,,,15,,79,64
3120,note_on,,1,0,11,,,,,,,,,,,,,,,,10,,79,64
3120,note_on,,1,0,7,,,,,,,,,,,,,,,,5,,79,64
3239,note_on,,119,0,5,,,,,,,,,,,,,,,,1,,79,0
3239,note_on,,119,0,15,,,,,,,,,,,,,,,,15,,79,0
3239,note_on,,119,0,7,,,,,,,,,,,,,,,,5,,79,0
3239,note_on,,119,0,11,,,,,,,,,,,,,,,,10,,79,0
3240,note_on,,1,0,15,,,,,,,,,,,,,,,,15,,77,64
3240,note_on,,1,0,7,,,,,,,,,,,,,,,,5,,77,64
3240,note_on,,1,0,5,,,,,,,,,,,,,,,,1,,77,64
3240,note_on,,1,0,11,,,,,,,,,,,,,,,,10,,77,64
3359,note_on,,119,0,11,,,,,,,,,,,,,,,,10,,77,0
3359,note_on,,119,0,5,,,,,,,,,,,,,,,,1,,77,0
3359,note_on,,479,0,8,,,,,,,,,,,,,,,,6,,59,0
3359,note_on,,119,0,15,,,,,,,,,,,,,,,,15,,59,0
3359,note_on,,0,0,15,,,,,,,,,,,,,,,,15,,77,0
3359,note_on,,119,0,7,,,,,,,,,,,,,,,,5,,77,0
3359,note_on,,479,0,12,,,,,,,,,,,,,,,,11,,59,0
3360,note_on,,1,0,8,,,,,,,,,,,,,,,,6,,60,64
3360,note_on,,1,0,11,,,,,,,,,,,,,,,,10,,75,64
3360,note_on,,1,0,5,,,,,,,,,,,,,,,,1,,75,64
3360,note_on,,1,0,7,,,,,,,,,,,,,,,,5,,75,64
3360,note_on,,1,0,12,,,,,,,,,,,,,,,,11,,60,64
3360,note_on,,0,0,15,,,,,,,,,,,,,,,,15,,60,64
3360,note_on,,1,0,15,,,,,,,,,,,,,,,,15,,75,64
3479,note_on,,119,0,7,,,,,,,,,,,,,,,,5,,75,0
3479,note_on,,119,0,11,,,,,,,,,,,,,,,,10,,75,0
3479,note_on,,119,0,5,,,,,,,,,,,,,,,,1,,75,0
3479,note_on,,119,0,15,,,,,,,,,,,,,,,,15,,75,0
3480,note_on,,1,0,15,,,,,,,,,,,,,,,,15,,74,64
3480,note_on,,1,0,11,,,,,,,,,,,,,,,,10,,74,64
3480,note_on,,1,0,5,,,,,,,,,,,,,,,,1,,74,64
3480,note_on,,1,0,7,,,,,,,,,,,,,,,,5,,74,64
3599,note_on,,119,0,5,,,,,,,,,,,,,,,,1,,74,0
3599,note_on,,0,0,15,,,,,,,,,,,,,,,,15,,74,0
3599,note_on,,119,0,7,,,,,,,,,,,,,,,,5,,74,0
3599,note_on,,119,0,15,,,,,,,,,,,,,,,,15,,60,0
3599,note_on,,119,0,11,,,,,,,,,,,,,,,,10,,74,0
3599,note_on,,239,0,12,,,,,,,,,,,,,,,,11,,60,0
3599,note_on,,239,0,8,,,,,,,,,,,,,,,,6,,60,0
3600,note_on,,1,0,8,,,,,,,,,,,,,,,,6,,62,64
3600,note_on,,1,0,15,,,,,,,,,,,,,,,,15,,72,64
3600,note_on,,1,0,11,,,,,,,,,,,,,,,,10,,72,64
3600,note_on,,1,0,5,,,,,,,,,,,,,,,,1,,72,64
3600,note_on,,0,0,15,,,,,,,,,,,,,,,,15,,62,64
3600,note_on,,1,0,12,,,,,,,,,,,,,,,,11,,62,64
3600,note_on,,1,0,7,,,,,,,,,,,,,,,,5,,72,64
3719,note_on,,119,0,11,,,,,,,,,,,,,,,,10,,72,0
3719,note_on,,119,0,5,,,,,,,,,,,,,,,,1,,72,0
3719,note_on,,119,0,7,,,,,,,,,,,,,,,,5,,72,0
3719,note_on,,119,0,15,,,,,,,,,,,,,,,,15,,72,0
3720,note_on,,1,0,15,,,,,,,,,,,,,,,,15,,71,64
3720,note_on,,1,0,5,,,,,,,,,,,,,,,,1,,71,64
3720,note_on,,1,0,11,,,,,,,,,,,,,,,,10,,71,64
3720,note_on,,1,0,7,,,,,,,,,,,,,,,,5,,71,64
3839,note_on,,239,0,8,,,,,,,,,,,,,,,,6,,62,0
3839,note_on,,239,0,12,,,,,,,,,,,,,,,,11,,62,0
3839,note_on,,119,0,5,,,,,,,,,,,,,,,,1,,71,0
3839,note_on,,119,0,7,,,,,,,,,,,,,,,,5,,71,0
3839,note_on,,0,0,15,,,,,,,,,,,,,,,,15,,71,0
3839,note_on,,119,0,11,,,,,,,,,,,,,,,,10,,71,0
3839,note_on,,119,0,15,,,,,,,,,,,,,,,,15,,62,0
3840,note_on,,1,0,12,,,,,,,,,,,,,,,,11,,63,64
3840,note_on,,1,0,7,,,,,,,,,,,,,,,,5,,72,64
3840,note_on,,1,0,5,,,,,,,,,,,,,,,,1,,72,64
3840,note_on,,0,0,15,,,,,,,,,,,,,,,,15,,72,64
3840,note_on,,1,0,15,,,,,,,,,,,,,,,,15,,63,64
3840,note_on,,1,0,8,,,,,,,,,,,,,,,,6,,63,64
3840,note_on,,1,0,11,,,,,,,,,,,,,,,,10,,72,64
3959,note_on,,119,0,15,,,,,,,,,,,,,,,,15,,72,0
3959,note_on,,119,0,7,,,,,,,,,,,,,,,,5,,72,0
3959,note_on,,119,0,5,,,,,,,,,,,,,,,,1,,72,0
3959,note_on,,119,0,11,,,,,,,,,,,,,,,,10,,72,0
3960,note_on,,1,0,15,,,,,,,,,,,,,,,,15,,67,64
3960,note_on,,1,0,7,,,,,,,,,,,,,,,,5,,67,64
3960,note_on,,1,0,5,,,,,,,,,,,,,,,,1,,67,64
3960,note_on,,1,0,11,,,,,,,,,,,,,,,,10,,67,64
4079,note_on,,119,0,11,,,,,,,,,,,,,,,,10,,67,0
4079,note_on,,119,0,15,,,,,,,,,,,,,,,,15,,67,0
4079,note_on,,119,0,5,,,,,,,,,,,,,,,,1,,67,0
4079,note_on,,119,0,7,,,,,,,,,,,,,,,,5,,67,0
4080,note_on,,1,0,15,,,,,,,,,,,,,,,,15,,72,64
4080,note_on,,1,0,11,,,,,,,,,,,,,,,,10,,72,64
4080,note_on,,1,0,5,,,,,,,,,,,,,,,,1,,72,64
4080,note_on,,1,0,7,,,,,,,,,,,,,,,,5,,72,64
4199,note_on,,119,0,15,,,,,,,,,,,,,,,,15,,63,0
4199,note_on,,359,0,12,,,,,,,,,,,,,,,,11,,63,0
4199,note_on,,359,0,8,,,,,,,,,,,,,,,,6,,63,0
4200,note_on,,1,0,15,,,,,,,,,,,,,,,,15,,65,64
4200,note_on,,1,0,12,,,,,,,,,,,,,,,,11,,65,64
4200,note_on,,1,0,8,,,,,,,,,,,,,,,,6,,65,64
4319,note_on,,119,0,12,,,,,,,,,,,,,,,,11,,65,0
4319,note_on,,119,0,15,,,,,,,,,,,,,,,,15,,65,0
4319,note_on,,119,0,8,,,,,,,,,,,,,,,,6,,65,0
4320,note_on,,1,0,15,,,,,,,,,,,,,,,,15,,67,64
4320,note_on,,1,0,12,,,,,,,,,,,,,,,,11,,67,64
4320,note_on,,1,0,8,,,,,,,,,,,,,,,,6,,67,64
4439,note_on,,119,0,12,,,,,,,,,,,,,,,,11,,67,0
4439,note_on,,119,0,15,,,,,,,,,,,,,,,,15,,67,0
4439,note_on,,119,0,8,,,,,,,,,,,,,,,,6,,67,0
4440,note_on,,1,0,8,,,,,,,,,,,,,,,,6,,65,64
4440,note_on,,1,0,15,,,,,,,,,,,,,,,,15,,65,64
4440,note_on,,1,0,12,,,,,,,,,,,,,,,,11,,65,64
4559,note_on,,479,0,11,,,,,,,,,,,,,,,,10,,72,0
4559,note_on,,119,0,15,,,,,,,,,,,,,,,,15,,72,0
4559,note_on,,479,0,5,,,,,,,,,,,,,,,,1,,72,0
4559,note_on,,119,0,12,,,,,,,,,,,,,,,,11,,65,0
4559,note_on,,479,0,7,,,,,,,,,,,,,,,,5,,72,0
4559,note_on,,0,0,15,,,,,,,,,,,,,,,,15,,65,0
4559,note_on,,119,0,8,,,,,,,,,,,,,,,,6,,65,0
4560,note_on,,1,0,5,,,,,,,,,,,,,,,,1,,70,64
4560,note_on,,1,0,12,,,,,,,,,,,,,,,,11,,62,64
4560,note_on,,1,0,8,,,,,,,,,,,,,,,,6,,62,64
4560,note_on,,1,0,7,,,,,,,,,,,,,,,,5,,70,64
4560,note_on,,1,0,11,,,,,,,,,,,,,,,,10,,70,64
4560,note_on,,0,0,15,,,,,,,,,,,,,,,,15,,70,64
4560,note_on,,1,0,15,,,,,,,,,,,,,,,,15,,62,64
4679,note_on,,119,0,12,,,,,,,,,,,,,,,,11,,62,0
4679,note_on,,119,0,15,,,,,,,,,,,,,,,,15,,62,0
4679,note_on,,119,0,8,,,,,,,,,,,,,,,,6,,62,0
4680,note_on,,1,0,15,,,,,,,,,,,,,,,,15,,64,64
4680,note_on,,1,0,8,,,,,,,,,,,,,,,,6,,64,64
4680,note_on,,1,0,12,,,,,,,,,,,,,,,,11,,64,64
4799,note_on,,119,0,8,,,,,,,,,,,,,,,,6,,64,0
4799,note_on,,119,0,15,,,,,,,,,,,,,,,,15,,64,0
4799,note_on,,119,0,12,,,,,,,,,,,,,,,,11,,64,0
4800,note_on,,1,0,12,,,,,,,,,,,,,,,,11,,65,64
4800,note_on,,1,0,15,,,,,,,,,,,,,,,,15,,65,64
4800,note_on,,1,0,8,,,,,,,,,,,,,,,,6,,65,64
4919,note_on,,119,0,8,,,,,,,,,,,,,,,,6,,65,0
4919,note_on,,119,0,15,,,,,,,,,,,,,,,,15,,65,0
4919,note_on,,119,0,12,,,,,,,,,,,,,,,,11,,65,0
4920,note_on,,1,0,8,,,,,,,,,,,,,,,,6,,60,64
4920,note_on,,1,0,12,,,,,,,,,,,,,,,,11,,60,64
4920,note_on,,1,0,15,,,,,,,,,,,,,,,,15,,60,64
5039,note_on,,479,0,7,,,,,,,,,,,,,,,,5,,70,0
5039,note_on,,119,0,8,,,,,,,,,,,,,,,,6,,60,0
5039,note_on,,479,0,11,,,,,,,,,,,,,,,,10,,70,0
5039,note_on,,479,0,5,,,,,,,,,,,,,,,,1,,70,0
5039,note_on,,0,0,15,,,,,,,,,,,,,,,,15,,60,0
5039,note_on,,119,0,15,,,,,,,,,,,,,,,,15,,70,0
5039,note_on,,119,0,12,,,,,,,,,,,,,,,,11,,60,0
5040,note_on,,1,0,11,,,,,,,,,,,,,,,,10,,68,64
5040,note_on,,0,0,15,,,,,,,,,,,,,,,,15,,65,64
5040,note_on,,1,0,8,,,,,,,,,,,,,,,,6,,65,64
5040,note_on,,1,0,15,,,,,,,,,,,,,,,,15,,68,64
5040,note_on,,1,0,12,,,,,,,,,,,,,,,,11,,65,64
5040,note_on,,1,0,5,,,,,,,,,,,,,,,,1,,68,64
5040,note_on,,1,0,7,,,,,,,,,,,,,,,,5,,68,64
5279,note_on,,239,0,7,,,,,,,,,,,,,,,,5,,68,0
5279,note_on,,239,0,11,,,,,,,,,,,,,,,,10,,68,0
5279,note_on,,239,0,15,,,,,,,,,,,,,,,,15,,68,0
5279,note_on,,239,0,5,,,,,,,,,,,,,,,,1,,68,0
5280,note_on,,1,0,7,,,,,,,,,,,,,,,,5,,67,64
5280,note_on,,1,0,15,,,,,,,,,,,,,,,,15,,67,64
5280,note_on,,1,0,5,,,,,,,,,,,,,,,,1,,67,64
5280,note_on,,1,0,11,,,,,,,,,,,,,,,,10,,67,64
5519,note_on,,479,0,12,,,,,,,,,,,,,,,,11,,65,0
5519,note_on,,239,0,15,,,,,,,,,,,,,,,,15,,65,0
5519,note_on,,479,0,8,,,,,,,,,,,,,,,,6,,65,0
5520,note_on,,5281,0,14,,,,,,,,,,,,,,,,13,,60,64
5520,note_on,,5520,0,9,,,,,,,,,,,,,,,,7,,60,64
5520,note_on,,5520,0,13,,,,,,,,,,,,,,,,12,,60,64
5520,note_on,,1,0,12,,,,,,,,,,,,,,,,11,,64,64
5520,note_on,,1,0,15,,,,,,,,,,,,,,,,15,,60,64
5520,note_on,,1,0,8,,,,,,,,,,,,,,,,6,,64,64
5520,note_on,,0,0,15,,,,,,,,,,,,,,,,15,,64,64
5759,note_on,,479,0,5,,,,,,,,,,,,,,,,1,,67,0
5759,note_on,,239,0,9,,,,,,,,,,,,,,,,7,,60,0
5759,note_on,,239,0,13,,,,,,,,,,,,,,,,12,,60,0
5759,note_on,,479,0,7,,,,,,,,,,,,,,,,5,,67,0
5759,note_on,,239,0,15,,,,,,,,,,,,,,,,15,,67,0
5759,note_on,,239,0,12,,,,,,,,,,,,,,,,11,,64,0
5759,note_on,,0,0,15,,,,,,,,,,,,,,,,15,,60,0
5759,note_on,,0,0,15,,,,,,,,,,,,,,,,15,,64,0
5759,note_on,,239,0,14,,,,,,,,,,,,,,,,13,,60,0
5759,note_on,,479,0,11,,,,,,,,,,,,,,,,10,,67,0
5759,note_on,,239,0,8,,,,,,,,,,,,,,,,6,,64,0
5760,note_on,,1,0,12,,,,,,,,,,,,,,,,11,,65,64
5760,note_on,,1,0,7,,,,,,,,,,,,,,,,5,,65,64
5760,note_on,,1,0,11,,,,,,,,,,,,,,,,10,,65,64
5760,note_on,,1,0,14,,,,,,,,,,,,,,,,13,,56,64
5760,note_on,,1,0,13,,,,,,,,,,,,,,,,12,,56,64
5760,note_on,,1,0,5,,,,,,,,,,,,,,,,1,,65,64
5760,note_on,,1,0,8,,,,,,,,,,,,,,,,6,,65,64
5760,note_on,,0,0,15,,,,,,,,,,,,,,,,15,,60,64
5760,note_on,,0,0,15,,,,,,,,,,,,,,,,15,,65,64
5760,note_on,,1,0,15,,,,,,,,,,,,,,,,15,,56,64
5760,note_on,,1,0,9,,,,,,,,,,,,,,,,7,,56,64
5879,note_on,,119,0,5,,,,,,,,,,,,,,,,1,,65,0
5879,note_on,,119,0,11,,,,,,,,,,,,,,,,10,,65,0
5879,note_on,,119,0,15,,,,,,,,,,,,,,,,15,,65,0
5879,note_on,,119,0,7,,,,,,,,,,,,,,,,5,,65,0
5880,note_on,,1,0,7,,,,,,,,,,,,,,,,5,,67,64
5880,note_on,,1,0,15,,,,,,,,,,,,,,,,15,,67,64
5880,note_on,,1,0,11,,,,,,,,,,,,,,,,10,,67,64
5880,note_on,,1,0,5,,,,,,,,,,,,,,,,1,,67,64
5999,note_on,,119,0,15,,,,,,,,,,,,,,,,15,,56,0
5999,note_on,,0,0,15,,,,,,,,,,,,,,,,15,,60,0
5999,note_on,,0,0,15,,,,,,,,,,,,,,,,15,,67,0
5999,note_on,,239,0,14,,,,,,,,,,,,,,,,13,,56,0
5999,note_on,,239,0,9,,,,,,,,,,,,,,,,7,,56,0
5999,note_on,,119,0,7,,,,,,,,,,,,,,,,5,,67,0
5999,note_on,,119,0,5,,,,,,,,,,,,,,,,1,,67,0
5999,note_on,,239,0,13,,,,,,,,,,,,,,,,12,,56,0
5999,note_on,,119,0,11,,,,,,,,,,,,,,,,10,,67,0
6000,note_on,,1,0,5,,,,,,,,,,,,,,,,1,,68,64
6000,note_on,,1,0,13,,,,,,,,,,,,,,,,12,,61,64
6000,note_on,,1,0,11,,,,,,,,,,,,,,,,10,,68,64
6000,note_on,,1,0,9,,,,,,,,,,,,,,,,7,,61,64
6000,note_on,,1,0,15,,,,,,,,,,,,,,,,15,,61,64
6000,note_on,,0,0,15,,,,,,,,,,,,,,,,15,,65,64
6000,note_on,,0,0,15,,,,,,,,,,,,,,,,15,,68,64
6000,note_on,,1,0,7,,,,,,,,,,,,,,,,5,,68,64
6000,note_on,,1,0,14,,,,,,,,,,,,,,,,13,,61,64
6119,note_on,,119,0,15,,,,,,,,,,,,,,,,15,,68,0
6119,note_on,,119,0,5,,,,,,,,,,,,,,,,1,,68,0
6119,note_on,,119,0,7,,,,,,,,,,,,,,,,5,,68,0
6119,note_on,,119,0,11,,,,,,,,,,,,,,,,10,,68,0
6120,note_on,,1,0,15,,,,,,,,,,,,,,,,15,,70,64
6120,note_on,,1,0,11,,,,,,,,,,,,,,,,10,,70,64
6120,note_on,,1,0,7,,,,,,,,,,,,,,,,5,,70,64
6120,note_on,,1,0,5,,,,,,,,,,,,,,,,1,,70,64
6239,note_on,,479,0,12,,,,,,,,,,,,,,,,11,,65,0
6239,note_on,,119,0,5,,,,,,,,,,,,,,,,1,,70,0
6239,note_on,,0,0,15,,,,,,,,,,,,,,,,15,,65,0
6239,note_on,,119,0,15,,,,,,,,,,,,,,,,15,,61,0
6239,note_on,,239,0,13,,,,,,,,,,,,,,,,12,,61,0
6239,note_on,,239,0,9,,,,,,,,,,,,,,,,7,,61,0
6239,note_on,,119,0,7,,,,,,,,,,,,,,,,5,,70,0
6239,note_on,,479,0,8,,,,,,,,,,,,,,,,6,,65,0
6239,note_on,,239,0,14,,,,,,,,,,,,,,,,13,,61,0
6239,note_on,,119,0,11,,,,,,,,,,,,,,,,10,,70,0
6239,note_on,,0,0,15,,,,,,,,,,,,,,,,15,,70,0
6240,note_on,,1,0,13,,,,,,,,,,,,,,,,12,,52,64
6240,note_on,,1,0,7,,,,,,,,,,,,,,,,5,,72,64
6240,note_on,,1,0,11,,,,,,,,,,,,,,,,10,,72,64
6240,note_on,,0,0,15,,,,,,,,,,,,,,,,15,,60,64
6240,note_on,,1,0,5,,,,,,,,,,,,,,,,1,,72,64
6240,note_on,,0,0,15,,,,,,,,,,,,,,,,15,,72,64
6240,note_on,,0,0,15,,,,,,,,,,,,,,,,15,,52,64
6240,note_on,,1,0,15,,,,,,,,,,,,,,,,15,,67,64
6240,note_on,,1,0,9,,,,,,,,,,,,,,,,7,,52,64
6240,note_on,,1,0,14,,,,,,,,,,,,,,,,13,,52,64
6360,note_on,,121,0,8,,,,,,,,,,,,,,,,6,,67,64
6360,note_on,,121,0,12,,,,,,,,,,,,,,,,11,,67,64
6479,note_on,,239,0,7,,,,,,,,,,,,,,,,5,,72,0
6479,note_on,,239,0,11,,,,,,,,,,,,,,,,10,,72,0
6479,note_on,,119,0,8,,,,,,,,,,,,,,,,6,,67,0
6479,note_on,,119,0,12,,,,,,,,,,,,,,,,11,,67,0
6479,note_on,,239,0,5,,,,,,,,,,,,,,,,1,,72,0
6480,note_on,,1,0,12,,,,,,,,,,,,,,,,11,,72,64
6480,note_on,,1,0,11,,,,,,,,,,,,,,,,10,,67,64
6480,note_on,,1,0,5,,,,,,,,,,,,,,,,1,,67,64
6480,note_on,,1,0,7,,,,,,,,,,,,,,,,5,,67,64
6480,note_on,,1,0,8,,,,,,,,,,,,,,,,6,,72,64
6599,note_on,,119,0,8,,,,,,,,,,,,,,,,6,,72,0
6599,note_on,,119,0,12,,,,,,,,,,,,,,,,11,,72,0
6600,note_on,,1,0,12,,,,,,,,,,,,,,,,11,,70,64
6600,note_on,,1,0,8,,,,,,,,,,,,,,,,6,,70,64
6719,note_on,,0,0,15,,,,,,,,,,,,,,,,15,,52,0
6719,note_on,,479,0,15,,,,,,,,,,,,,,,,15,,67,0
6719,note_on,,479,0,9,,,,,,,,,,,,,,,,7,,52,0
6719,note_on,,0,0,15,,,,,,,,,,,,,,,,15,,60,0
6719,note_on,,239,0,7,,,,,,,,,,,,,,,,5,,67,0
6719,note_on,,239,0,5,,,,,,,,,,,,,,,,1,,67,0
6719,note_on,,119,0,8,,,,,,,,,,,,,,,,6,,70,0
6719,note_on,,239,0,11,,,,,,,,,,,,,,,,10,,67,0
6719,note_on,,479,0,13,,,,,,,,,,,,,,,,12,,52,0
6719,note_on,,119,0,12,,,,,,,,,,,,,,,,11,,70,0
6719,note_on,,0,0,15,,,,,,,,,,,,,,,,15,,72,0
6719,note_on,,479,0,14,,,,,,,,,,,,,,,,13,,52,0
6720,note_on,,0,0,15,,,,,,,,,,,,,,,,15,,68,64
6720,note_on,,1,0,15,,,,,,,,,,,,,,,,15,,53,64
6720,note_on,,0,0,15,,,,,,,,,,,,,,,,15,,60,64
6720,note_on,,1,0,14,,,,,,,,,,,,,,,,13,,53,64
6720,note_on,,1,0,12,,,,,,,,,,,,,,,,11,,68,64
6720,note_on,,0,0,15,,,,,,,,,,,,,,,,15,,65,64
6720,note_on,,1,0,9,,,,,,,,,,,,,,,,7,,53,64
6720,note_on,,1,0,8,,,,,,,,,,,,,,,,6,,68,64
6720,note_on,,1,0,13,,,,,,,,,,,,,,,,12,,53,64
6839,note_on,,119,0,8,,,,,,,,,,,,,,,,6,,68,0
6839,note_on,,119,0,12,,,,,,,,,,,,,,,,11,,68,0
6840,note_on,,1,0,8,,,,,,,,,,,,,,,,6,,67,64
6840,note_on,,1,0,12,,,,,,,,,,,,,,,,11,,67,64
6959,note_on,,239,0,14,,,,,,,,,,,,,,,,13,,53,0
6959,note_on,,239,0,9,,,,,,,,,,,,,,,,7,,53,0
6959,note_on,,239,0,15,,,,,,,,,,,,,,,,15,,53,0
6959,note_on,,0,0,15,,,,,,,,,,,,,,,,15,,60,0
6959,note_on,,239,0,13,,,,,,,,,,,,,,,,12,,53,0
6959,note_on,,119,0,8,,,,,,,,,,,,,,,,6,,67,0
6959,note_on,,119,0,12,,,,,,,,,,,,,,,,11,,67,0
6960,note_on,,1,0,9,,,,,,,,,,,,,,,,7,,55,64
6960,note_on,,1,0,12,,,,,,,,,,,,,,,,11,,65,64
6960,note_on,,1,0,8,,,,,,,,,,,,,,,,6,,65,64
6960,note_on,,1,0,15,,,,,,,,,,,,,,,,15,,55,64
6960,note_on,,0,0,15,,,,,,,,,,,,,,,,15,,58,64
6960,note_on,,1,0,13,,,,,,,,,,,,,,,,12,,55,64
6960,note_on,,1,0,14,,,,,,,,,,,,,,,,13,,55,64
7079,note_on,,119,0,8,,,,,,,,,,,,,,,,6,,65,0
7079,note_on,,119,0,15,,,,,,,,,,,,,,,,15,,68,0
7079,note_on,,0,0,15,,,,,,,,,,,,,,,,15,,65,0
7079,note_on,,119,0,12,,,,,,,,,,,,,,,,11,,65,0
7080,note_on,,1,0,12,,,,,,,,,,,,,,,,11,,64,64
7080,note_on,,1,0,8,,,,,,,,,,,,,,,,6,,64,64
7080,note_on,,1,0,15,,,,,,,,,,,,,,,,15,,67,64
7080,note_on,,0,0,15,,,,,,,,,,,,,,,,15,,64,64
7199,note_on,,119,0,8,,,,,,,,,,,,,,,,6,,64,0
7199,note_on,,239,0,13,,,,,,,,,,,,,,,,12,,55,0
7199,note_on,,239,0,9,,,,,,,,,,,,,,,,7,,55,0
7199,note_on,,119,0,12,,,,,,,,,,,,,,,,11,,64,0
7199,note_on,,0,0,15,,,,,,,,,,,,,,,,15,,67,0
7199,note_on,,119,0,15,,,,,,,,,,,,,,,,15,,55,0
7199,note_on,,239,0,14,,,,,,,,,,,,,,,,13,,55,0
7199,note_on,,0,0,15,,,,,,,,,,,,,,,,15,,58,0
7199,note_on,,0,0,15,,,,,,,,,,,,,,,,15,,64,0
7200,note_on,,1,0,15,,,,,,,,,,,,,,,,15,,56,64
7200,note_on,,1,0,12,,,,,,,,,,,,,,,,11,,65,64
7200,note_on,,1,0,8,,,,,,,,,,,,,,,,6,,65,64
7200,note_on,,1,0,13,,,,,,,,,,,,,,,,12,,56,64
7200,note_on,,1,0,14,,,,,,,,,,,,,,,,13,,56,64
7200,note_on,,0,0,15,,,,,,,,,,,,,,,,15,,60,64
7200,note_on,,1,0,9,,,,,,,,,,,,,,,,7,,56,64
7200,note_on,,0,0,15,,,,,,,,,,,,,,,,15,,65,64
7320,note_on,,601,0,11,,,,,,,,,,,,,,,,10,,72,64
7320,note_on,,601,0,5,,,,,,,,,,,,,,,,1,,72,64
7320,note_on,,601,0,7,,,,,,,,,,,,,,,,5,,72,64
7439,note_on,,0,0,15,,,,,,,,,,,,,,,,15,,60,0
7439,note_on,,0,0,15,,,,,,,,,,,,,,,,15,,65,0
7439,note_on,,239,0,15,,,,,,,,,,,,,,,,15,,56,0
7439,note_on,,119,0,7,,,,,,,,,,,,,,,,5,,72,0
7439,note_on,,119,0,11,,,,,,,,,,,,,,,,10,,72,0
7439,note_on,,239,0,13,,,,,,,,,,,,,,,,12,,56,0
7439,note_on,,239,0,9,,,,,,,,,,,,,,,,7,,56,0
7439,note_on,,119,0,5,,,,,,,,,,,,,,,,1,,72,0
7439,note_on,,239,0,14,,,,,,,,,,,,,,,,13,,56,0
7440,note_on,,1,0,14,,,,,,,,,,,,,,,,13,,57,64
7440,note_on,,1,0,15,,,,,,,,,,,,,,,,15,,57,64
7440,note_on,,0,0,15,,,,,,,,,,,,,,,,15,,72,64
7440,note_on,,1,0,13,,,,,,,,,,,,,,,,12,,57,64
7440,note_on,,0,0,15,,,,,,,,,,,,,,,,15,,65,64
7440,note_on,,0,0,15,,,,,,,,,,,,,,,,15,,60,64
7440,note_on,,1,0,7,,,,,,,,,,,,,,,,5,,77,64
7440,note_on,,1,0,9,,,,,,,,,,,,,,,,7,,57,64
7440,note_on,,1,0,5,,,,,,,,,,,,,,,,1,,77,64
7440,note_on,,1,0,11,,,,,,,,,,,,,,,,10,,77,64
7559,note_on,,119,0,11,,,,,,,,,,,,,,,,10,,77,0
7559,note_on,,119,0,7,,,,,,,,,,,,,,,,5,,77,0
7559,note_on,,119,0,5,,,,,,,,,,,,,,,,1,,77,0
7560,note_on,,1,0,11,,,,,,,,,,,,,,,,10,,75,64
7560,note_on,,1,0,5,,,,,,,,,,,,,,,,1,,75,64
7560,note_on,,1,0,7,,,,,,,,,,,,,,,,5,,75,64
7679,note_on,,239,0,9,,,,,,,,,,,,,,,,7,,57,0
7679,note_on,,119,0,5,,,,,,,,,,,,,,,,1,,75,0
7679,note_on,,239,0,13,,,,,,,,,,,,,,,,12,,57,0
7679,note_on,,0,0,15,,,,,,,,,,,,,,,,15,,60,0
7679,note_on,,119,0,11,,,,,,,,,,,,,,,,10,,75,0
7679,note_on,,0,0,15,,,,,,,,,,,,,,,,15,,72,0
7679,note_on,,239,0,15,,,,,,,,,,,,,,,,15,,57,0
7679,note_on,,119,0,7,,,,,,,,,,,,,,,,5,,75,0
7679,note_on,,239,0,14,,,,,,,,,,,,,,,,13,,57,0
7679,note_on,,0,0,15,,,,,,,,,,,,,,,,15,,65,0
7680,note_on,,1,0,7,,,,,,,,,,,,,,,,5,,73,64
7680,note_on,,1,0,15,,,,,,,,,,,,,,,,15,,58,64
7680,note_on,,0,0,15,,,,,,,,,,,,,,,,15,,65,64
7680,note_on,,0,0,15,,,,,,,,,,,,,,,,15,,61,64
7680,note_on,,1,0,11,,,,,,,,,,,,,,,,10,,73,64
7680,note_on,,1,0,14,,,,,,,,,,,,,,,,13,,58,64
7680,note_on,,1,0,5,,,,,,,,,,,,,,,,1,,73,64
7680,note_on,,1,0,9,,,,,,,,,,,,,,,,7,,58,64
7680,note_on,,1,0,13,,,,,,,,,,,,,,,,12,,58,64
7799,note_on,,119,0,5,,,,,,,,,,,,,,,,1,,73,0
7799,note_on,,119,0,7,,,,,,,,,,,,,,,,5,,73,0
7799,note_on,,119,0,11,,,,,,,,,,,,,,,,10,,73,0
7800,note_on,,1,0,7,,,,,,,,,,,,,,,,5,,72,64
7800,note_on,,1,0,11,,,,,,,,,,,,,,,,10,,72,64
7800,note_on,,1,0,5,,,,,,,,,,,,,,,,1,,72,64
7919,note_on,,0,0,15,,,,,,,,,,,,,,,,15,,61,0
7919,note_on,,119,0,7,,,,,,,,,,,,,,,,5,,72,0
7919,note_on,,0,0,15,,,,,,,,,,,,,,,,15,,65,0
7919,note_on,,119,0,5,,,,,,,,,,,,,,,,1,,72,0
7919,note_on,,239,0,14,,,,,,,,,,,,,,,,13,,58,0
7919,note_on,,119,0,11,,,,,,,,,,,,,,,,10,,72,0
7919,note_on,,239,0,15,,,,,,,,,,,,,,,,15,,58,0
7919,note_on,,239,0,9,,,,,,,,,,,,,,,,7,,58,0
7919,note_on,,239,0,13,,,,,,,,,,,,,,,,12,,58,0
7920,note_on,,0,0,15,,,,,,,,,,,,,,,,15,,72,64
7920,note_on,,0,0,15,,,,,,,,,,,,,,,,15,,63,64
7920,note_on,,1,0,14,,,,,,,,,,,,,,,,13,,60,64
7920,note_on,,1,0,11,,,,,,,,,,,,,,,,10,,70,64
7920,note_on,,1,0,13,,,,,,,,,,,,,,,,12,,60,64
7920,note_on,,1,0,9,,,,,,,,,,,,,,,,7,,60,64
7920,note_on,,0,0,15,,,,,,,,,,,,,,,,15,,70,64
7920,note_on,,1,0,7,,,,,,,,,,,,,,,,5,,70,64
7920,note_on,,1,0,5,,,,,,,,,,,,,,,,1,,70,64
7920,note_on,,1,0,15,,,,,,,,,,,,,,,,15,,60,64
8039,note_on,,119,0,5,,,,,,,,,,,,,,,,1,,70,0
8039,note_on,,119,0,11,,,,,,,,,,,,,,,,10,,70,0
8039,note_on,,119,0,15,,,,,,,,,,,,,,,,15,,70,0
8039,note_on,,119,0,7,,,,,,,,,,,,,,,,5,,70,0
8040,note_on,,1,0,15,,,,,,,,,,,,,,,,15,,69,64
8040,note_on,,1,0,5,,,,,,,,,,,,,,,,1,,69,64
8040,note_on,,1,0,11,,,,,,,,,,,,,,,,10,,69,64
8040,note_on,,1,0,7,,,,,,,,,,,,,,,,5,,69,64
8159,note_on,,0,0,15,,,,,,,,,,,,,,,,15,,72,0
8159,note_on,,119,0,15,,,,,,,,,,,,,,,,15,,60,0
8159,note_on,,239,0,13,,,,,,,,,,,,,,,,12,,60,0
8159,note_on,,0,0,15,,,,,,,,,,,,,,,,15,,63,0
8159,note_on,,119,0,7,,,,,,,,,,,,,,,,5,,69,0
8159,note_on,,119,0,5,,,,,,,,,,,,,,,,1,,69,0
8159,note_on,,0,0,15,,,,,,,,,,,,,,,,15,,69,0
8159,note_on,,119,0,11,,,,,,,,,,,,,,,,10,,69,0
8159,note_on,,239,0,14,,,,,,,,,,,,,,,,13,,60,0
8159,note_on,,239,0,9,,,,,,,,,,,,,,,,7,,60,0
8160,note_on,,1,0,15,,,,,,,,,,,,,,,,15,,61,64
8160,note_on,,1,0,11,,,,,,,,,,,,,,,,10,,70,64
8160,note_on,,0,0,15,,,,,,,,,,,,,,,,15,,65,64
8160,note_on,,0,0,15,,,,,,,,,,,,,,,,15,,70,64
8160,note_on,,1,0,14,,,,,,,,,,,,,,,,13,,61,64
8160,note_on,,1,0,5,,,,,,,,,,,,,,,,1,,70,64
8160,note_on,,1,0,13,,,,,,,,,,,,,,,,12,,61,64
8160,note_on,,1,0,9,,,,,,,,,,,,,,,,7,,61,64
8160,note_on,,1,0,7,,,,,,,,,,,,,,,,5,,70,64
8279,note_on,,119,0,5,,,,,,,,,,,,,,,,1,,70,0
8279,note_on,,119,0,11,,,,,,,,,,,,,,,,10,,70,0
8279,note_on,,119,0,7,,,,,,,,,,,,,,,,5,,70,0
8280,note_on,,1,0,7,,,,,,,,,,,,,,,,5,,72,64
8280,note_on,,1,0,5,,,,,,,,,,,,,,,,1,,72,64
8280,note_on,,1,0,11,,,,,,,,,,,,,,,,10,,72,64
8399,note_on,,239,0,15,,,,,,,,,,,,,,,,15,,70,0
8399,note_on,,1199,0,8,,,,,,,,,,,,,,,,6,,65,0
8399,note_on,,0,0,15,,,,,,,,,,,,,,,,15,,65,0
8399,note_on,,119,0,11,,,,,,,,,,,,,,,,10,,72,0
8399,note_on,,119,0,5,,,,,,,,,,,,,,,,1,,72,0
8399,note_on,,1199,0,12,,,,,,,,,,,,,,,,11,,65,0
8399,note_on,,119,0,7,,,,,,,,,,,,,,,,5,,72,0
8400,note_on,,1,0,12,,,,,,,,,,,,,,,,11,,70,64
8400,note_on,,1,0,11,,,,,,,,,,,,,,,,10,,73,64
8400,note_on,,1,0,7,,,,,,,,,,,,,,,,5,,73,64
8400,note_on,,1,0,5,,,,,,,,,,,,,,,,1,,73,64
8400,note_on,,0,0,15,,,,,,,,,,,,,,,,15,,65,64
8400,note_on,,1,0,15,,,,,,,,,,,,,,,,15,,73,64
8400,note_on,,1,0,8,,,,,,,,,,,,,,,,6,,70,64
8400,note_on,,0,0,15,,,,,,,,,,,,,,,,15,,70,64
8519,note_on,,119,0,15,,,,,,,,,,,,,,,,15,,61,0
8519,note_on,,359,0,13,,,,,,,,,,,,,,,,12,,61,0
8519,note_on,,359,0,9,,,,,,,,,,,,,,,,7,,61,0
8519,note_on,,359,0,14,,,,,,,,,,,,,,,,13,,61,0
8520,note_on,,1,0,15,,,,,,,,,,,,,,,,15,,63,64
8520,note_on,,1,0,14,,,,,,,,,,,,,,,,13,,63,64
8520,note_on,,1,0,9,,,,,,,,,,,,,,,,7,,63,64
8520,note_on,,1,0,13,,,,,,,,,,,,,,,,12,,63,64
8639,note_on,,119,0,13,,,,,,,,,,,,,,,,12,,63,0
8639,note_on,,239,0,5,,,,,,,,,,,,,,,,1,,73,0
8639,note_on,,239,0,7,,,,,,,,,,,,,,,,5,,73,0
8639,note_on,,0,0,15,,,,,,,,,,,,,,,,15,,63,0
8639,note_on,,119,0,9,,,,,,,,,,,,,,,,7,,63,0
8639,note_on,,119,0,14,,,,,,,,,,,,,,,,13,,63,0
8639,note_on,,239,0,11,,,,,,,,,,,,,,,,10,,73,0
8639,note_on,,0,0,15,,,,,,,,,,,,,,,,15,,65,0
8639,note_on,,119,0,15,,,,,,,,,,,,,,,,15,,73,0
8640,note_on,,1,0,13,,,,,,,,,,,,,,,,12,,65,64
8640,note_on,,1,0,14,,,,,,,,,,,,,,,,13,,65,64
8640,note_on,,1,0,11,,,,,,,,,,,,,,,,10,,72,64
8640,note_on,,1,0,9,,,,,,,,,,,,,,,,7,,65,64
8640,note_on,,1,0,7,,,,,,,,,,,,,,,,5,,72,64
8640,note_on,,1,0,15,,,,,,,,,,,,,,,,15,,65,64
8640,note_on,,0,0,15,,,,,,,,,,,,,,,,15,,72,64
8640,note_on,,1,0,5,,,,,,,,,,,,,,,,1,,72,64
8879,note_on,,479,0,8,,,,,,,,,,,,,,,,6,,70,0
8879,note_on,,239,0,9,,,,,,,,,,,,,,,,7,,65,0
8879,note_on,,239,0,13,,,,,,,,,,,,,,,,12,,65,0
8879,note_on,,479,0,12,,,,,,,,,,,,,,,,11,,70,0
8879,note_on,,239,0,14,,,,,,,,,,,,,,,,13,,65,0
8879,note_on,,0,0,15,,,,,,,,,,,,,,,,15,,65,0
8879,note_on,,239,0,15,,,,,,,,,,,,,,,,15,,70,0
8880,note_on,,1,0,9,,,,,,,,,,,,,,,,7,,60,64
8880,note_on,,1,0,8,,,,,,,,,,,,,,,,6,,68,64
8880,note_on,,0,0,15,,,,,,,,,,,,,,,,15,,60,64
8880,note_on,,0,0,15,,,,,,,,,,,,,,,,15,,68,64
8880,note_on,,1,0,12,,,,,,,,,,,,,,,,11,,68,64
8880,note_on,,1,0,15,,,,,,,,,,,,,,,,15,,53,64
8880,note_on,,8880,0,6,,,,,,,,,,,,,,,,2,,53,64
8880,note_on,,1,0,13,,,,,,,,,,,,,,,,12,,60,64
8880,note_on,,8880,0,10,,,,,,,,,,,,,,,,8,,53,64
8880,note_on,,1,0,14,,,,,,,,,,,,,,,,13,,53,64
9119,note_on,,239,0,6,,,,,,,,,,,,,,,,2,,53,0
9119,note_on,,479,0,5,,,,,,,,,,,,,,,,1,,72,0
9119,note_on,,479,0,11,,,,,,,,,,,,,,,,10,,72,0
9119,note_on,,0,0,15,,,,,,,,,,,,,,,,15,,60,0
9119,note_on,,0,0,15,,,,,,,,,,,,,,,,15,,68,0
9119,note_on,,239,0,8,,,,,,,,,,,,,,,,6,,68,0
9119,note_on,,239,0,15,,,,,,,,,,,,,,,,15,,72,0
9119,note_on,,0,0,15,,,,,,,,,,,,,,,,15,,53,0
9119,note_on,,239,0,12,,,,,,,,,,,,,,,,11,,68,0
9119,note_on,,239,0,13,,,,,,,,,,,,,,,,12,,60,0
9119,note_on,,479,0,7,,,,,,,,,,,,,,,,5,,72,0
9119,note_on,,239,0,10,,,,,,,,,,,,,,,,8,,53,0
9119,note_on,,239,0,14,,,,,,,,,,,,,,,,13,,53,0
9119,note_on,,239,0,9,,,,,,,,,,,,,,,,7,,60,0
9120,note_on,,1,0,6,,,,,,,,,,,,,,,,2,,51,64
9120,note_on,,1,0,10,,,,,,,,,,,,,,,,8,,51,64
9120,note_on,,1,0,15,,,,,,,,,,,,,,,,15,,51,64
9120,note_on,,0,0,15,,,,,,,,,,,,,,,,15,,72,64
9120,note_on,,0,0,15,,,,,,,,,,,,,,,,15,,67,64
9120,note_on,,1,0,14,,,,,,,,,,,,,,,,13,,51,64
9120,note_on,,1,0,13,,,,,,,,,,,,,,,,12,,60,64
9120,note_on,,1,0,11,,,,,,,,,,,,,,,,10,,72,64
9120,note_on,,1,0,7,,,,,,,,,,,,,,,,5,,72,64
9120,note_on,,1,0,8,,,,,,,,,,,,,,,,6,,67,64
9120,note_on,,1,0,12,,,,,,,,,,,,,,,,11,,67,64
9120,note_on,,1,0,5,,,,,,,,,,,,,,,,1,,72,64
9359,note_on,,239,0,10,,,,,,,,,,,,,,,,8,,51,0
9359,note_on,,239,0,13,,,,,,,,,,,,,,,,12,,60,0
9359,note_on,,239,0,14,,,,,,,,,,,,,,,,13,,51,0
9359,note_on,,239,0,6,,,,,,,,,,,,,,,,2,,51,0
9359,note_on,,239,0,12,,,,,,,,,,,,,,,,11,,67,0
9359,note_on,,239,0,8,,,,,,,,,,,,,,,,6,,67,0
9359,note_on,,239,0,15,,,,,,,,,,,,,,,,15,,51,0
9359,note_on,,0,0,15,,,,,,,,,,,,,,,,15,,67,0
9360,note_on,,1,0,10,,,,,,,,,,,,,,,,8,,56,64
9360,note_on,,1,0,12,,,,,,,,,,,,,,,,11,,65,64
9360,note_on,,1,0,6,,,,,,,,,,,,,,,,2,,56,64
9360,note_on,,1,0,8,,,,,,,,,,,,,,,,6,,65,64
9360,note_on,,0,0,15,,,,,,,,,,,,,,,,15,,68,64
9360,note_on,,0,0,15,,,,,,,,,,,,,,,,15,,65,64
9360,note_on,,1,0,13,,,,,,,,,,,,,,,,12,,68,64
9360,note_on,,1,0,14,,,,,,,,,,,,,,,,13,,56,64
9360,note_on,,1,0,15,,,,,,,,,,,,,,,,15,,56,64
9479,note_on,,359,0,5,,,,,,,,,,,,,,,,1,,72,0
9479,note_on,,359,0,11,,,,,,,,,,,,,,,,10,,72,0
9479,note_on,,119,0,12,,,,,,,,,,,,,,,,11,,65,0
9479,note_on,,119,0,8,,,,,,,,,,,,,,,,6,,65,0
9479,note_on,,359,0,7,,,,,,,,,,,,,,,,5,,72,0
9480,note_on,,1,0,8,,,,,,,,,,,,,,,,6,,63,64
9480,note_on,,1,0,5,,,,,,,,,,,,,,,,1,,72,64
9480,note_on,,1,0,11,,,,,,,,,,,,,,,,10,,72,64
9480,note_on,,1,0,12,,,,,,,,,,,,,,,,11,,63,64
9480,note_on,,1,0,7,,,,,,,,,,,,,,,,5,,72,64
9599,note_on,,239,0,6,,,,,,,,,,,,,,,,2,,56,0
9599,note_on,,119,0,11,,,,,,,,,,,,,,,,10,,72,0
9599,note_on,,119,0,8,,,,,,,,,,,,,,,,6,,63,0
9599,note_on,,239,0,14,,,,,,,,,,,,,,,,13,,56,0
9599,note_on,,0,0,15,,,,,,,,,,,,,,,,15,,65,0
9599,note_on,,119,0,7,,,,,,,,,,,,,,,,5,,72,0
9599,note_on,,119,0,12,,,,,,,,,,,,,,,,11,,63,0
9599,note_on,,239,0,15,,,,,,,,,,,,,,,,15,,72,0
9599,note_on,,0,0,15,,,,,,,,,,,,,,,,15,,56,0
9599,note_on,,0,0,15,,,,,,,,,,,,,,,,15,,68,0
9599,note_on,,119,0,5,,,,,,,,,,,,,,,,1,,72,0
9599,note_on,,239,0,13,,,,,,,,,,,,,,,,12,,68,0
9599,note_on,,239,0,10,,,,,,,,,,,,,,,,8,,56,0
9600,note_on,,0,0,15,,,,,,,,,,,,,,,,15,,67,64
9600,note_on,,1,0,8,,,,,,,,,,,,,,,,6,,62,64
9600,note_on,,1,0,6,,,,,,,,,,,,,,,,2,,47,64
9600,note_on,,1,0,15,,,,,,,,,,,,,,,,15,,47,64
9600,note_on,,0,0,15,,,,,,,,,,,,,,,,15,,74,64
9600,note_on,,1,0,5,,,,,,,,,,,,,,,,1,,74,64
9600,note_on,,0,0,15,,,,,,,,,,,,,,,,15,,62,64
9600,note_on,,1,0,14,,,,,,,,,,,,,,,,13,,47,64
9600,note_on,,1,0,12,,,,,,,,,,,,,,,,11,,62,64
9600,note_on,,1,0,7,,,,,,,,,,,,,,,,5,,74,64
9600,note_on,,1,0,13,,,,,,,,,,,,,,,,12,,67,64
9600,note_on,,1,0,10,,,,,,,,,,,,,,,,8,,47,64
9600,note_on,,1,0,11,,,,,,,,,,,,,,,,10,,74,64
9719,note_on,,119,0,13,,,,,,,,,,,,,,,,12,,67,0
9720,note_on,,601,0,9,,,,,,,,,,,,,,,,7,,62,64
9720,note_on,,1,0,13,,,,,,,,,,,,,,,,12,,62,64
9839,note_on,,119,0,13,,,,,,,,,,,,,,,,12,,62,0
9839,note_on,,119,0,9,,,,,,,,,,,,,,,,7,,62,0
9840,note_on,,1,0,9,,,,,,,,,,,,,,,,7,,67,64
9840,note_on,,1,0,13,,,,,,,,,,,,,,,,12,,67,64
9959,note_on,,119,0,13,,,,,,,,,,,,,,,,12,,67,0
9959,note_on,,119,0,9,,,,,,,,,,,,,,,,7,,67,0
9960,note_on,,1,0,9,,,,,,,,,,,,,,,,7,,65,64
9960,note_on,,1,0,13,,,,,,,,,,,,,,,,12,,65,64
10079,note_on,,479,0,10,,,,,,,,,,,,,,,,8,,47,0
10079,note_on,,479,0,6,,,,,,,,,,,,,,,,2,,47,0
10079,note_on,,479,0,15,,,,,,,,,,,,,,,,15,,47,0
10079,note_on,,0,0,15,,,,,,,,,,,,,,,,15,,74,0
10079,note_on,,0,0,15,,,,,,,,,,,,,,,,15,,67,0
10079,note_on,,0,0,15,,,,,,,,,,,,,,,,15,,62,0
10079,note_on,,479,0,5,,,,,,,,,,,,,,,,1,,74,0
10079,note_on,,479,0,7,,,,,,,,,,,,,,,,5,,74,0
10079,note_on,,119,0,9,,,,,,,,,,,,,,,,7,,65,0
10079,note_on,,479,0,8,,,,,,,,,,,,,,,,6,,62,0
10079,note_on,,119,0,13,,,,,,,,,,,,,,,,12,,65,0
10079,note_on,,479,0,11,,,,,,,,,,,,,,,,10,,74,0
10079,note_on,,479,0,12,,,,,,,,,,,,,,,,11,,62,0
10079,note_on,,479,0,14,,,,,,,,,,,,,,,,13,,47,0
10080,note_on,,1,0,8,,,,,,,,,,,,,,,,6,,60,64
10080,note_on,,1,0,11,,,,,,,,,,,,,,,,10,,67,64
10080,note_on,,0,0,15,,,,,,,,,,,,,,,,15,,48,64
10080,note_on,,0,0,15,,,,,,,,,,,,,,,,15,,67,64
10080,note_on,,1,0,12,,,,,,,,,,,,,,,,11,,60,64
10080,note_on,,1,0,5,,,,,,,,,,,,,,,,1,,67,64
10080,note_on,,0,0,15,,,,,,,,,,,,,,,,15,,60,64
10080,note_on,,1,0,15,,,,,,,,,,,,,,,,15,,63,64
10080,note_on,,1,0,7,,,,,,,,,,,,,,,,5,,67,64
10080,note_on,,1,0,13,,,,,,,,,,,,,,,,12,,63,64
10080,note_on,,1,0,9,,,,,,,,,,,,,,,,7,,63,64
10080,note_on,,1,0,6,,,,,,,,,,,,,,,,2,,48,64
10080,note_on,,1,0,14,,,,,,,,,,,,,,,,13,,48,64
10080,note_on,,1,0,10,,,,,,,,,,,,,,,,8,,48,64
10199,note_on,,119,0,9,,,,,,,,,,,,,,,,7,,63,0
10199,note_on,,119,0,13,,,,,,,,,,,,,,,,12,,63,0
10200,note_on,,1,0,9,,,,,,,,,,,,,,,,7,,62,64
10200,note_on,,1,0,13,,,,,,,,,,,,,,,,12,,62,64
10319,note_on,,239,0,10,,,,,,,,,,,,,,,,8,,48,0
10319,note_on,,239,0,6,,,,,,,,,,,,,,,,2,,48,0
10319,note_on,,0,0,15,,,,,,,,,,,,,,,,15,,67,0
10319,note_on,,0,0,15,,,,,,,,,,,,,,,,15,,60,0
10319,note_on,,239,0,8,,,,,,,,,,,,,,,,6,,60,0
10319,note_on,,239,0,5,,,,,,,,,,,,,,,,1,,67,0
10319,note_on,,239,0,12,,,,,,,,,,,,,,,,11,,60,0
10319,note_on,,239,0,15,,,,,,,,,,,,,,,,15,,63,0
10319,note_on,,119,0,13,,,,,,,,,,,,,,,,12,,62,0
10319,note_on,,239,0,14,,,,,,,,,,,,,,,,13,,48,0
10319,note_on,,239,0,7,,,,,,,,,,,,,,,,5,,67,0
10319,note_on,,239,0,11,,,,,,,,,,,,,,,,10,,67,0
10319,note_on,,119,0,9,,,,,,,,,,,,,,,,7,,62,0
10319,note_on,,0,0,15,,,,,,,,,,,,,,,,15,,48,0
10320,note_on,,1,0,14,,,,,,,,,,,,,,,,13,,50,64
10320,note_on,,0,0,15,,,,,,,,,,,,,,,,15,,74,64
10320,note_on,,1,0,15,,,,,,,,,,,,,,,,15,,50,64
10320,note_on,,1,0,9,,,,,,,,,,,,,,,,7,,60,64
10320,note_on,,0,0,15,,,,,,,,,,,,,,,,15,,65,64
10320,note_on,,0,0,15,,,,,,,,,,,,,,,,15,,53,64
10320,note_on,,1,0,13,,,,,,,,,,,,,,,,12,,60,64
10320,note_on,,1,0,6,,,,,,,,,,,,,,,,2,,50,64
10320,note_on,,1,0,10,,,,,,,,,,,,,,,,8,,50,64
10439,note_on,,119,0,9,,,,,,,,,,,,,,,,7,,60,0
10439,note_on,,119,0,13,,,,,,,,,,,,,,,,12,,60,0
10440,note_on,,1,0,9,,,,,,,,,,,,,,,,7,,59,64
10440,note_on,,1,0,13,,,,,,,,,,,,,,,,12,,59,64
10559,note_on,,0,0,15,,,,,,,,,,,,,,,,15,,53,0
10559,note_on,,0,0,15,,,,,,,,,,,,,,,,15,,65,0
10559,note_on,,0,0,15,,,,,,,,,,,,,,,,15,,74,0
10559,note_on,,239,0,14,,,,,,,,,,,,,,,,13,,50,0
10559,note_on,,119,0,9,,,,,,,,,,,,,,,,7,,59,0
10559,note_on,,239,0,10,,,,,,,,,,,,,,,,8,,50,0
10559,note_on,,119,0,13,,,,,,,,,,,,,,,,12,,59,0
10559,note_on,,239,0,6,,,,,,,,,,,,,,,,2,,50,0
10559,note_on,,239,0,15,,,,,,,,,,,,,,,,15,,50,0
10560,note_on,,1,0,6,,,,,,,,,,,,,,,,2,,51,64
10560,note_on,,0,0,15,,,,,,,,,,,,,,,,15,,55,64
10560,note_on,,1,0,14,,,,,,,,,,,,,,,,13,,51,64
10560,note_on,,0,0,15,,,,,,,,,,,,,,,,15,,72,64
10560,note_on,,1,0,15,,,,,,,,,,,,,,,,15,,51,64
10560,note_on,,1,0,9,,,,,,,,,,,,,,,,7,,60,64
10560,note_on,,1,0,10,,,,,,,,,,,,,,,,8,,51,64
10560,note_on,,0,0,15,,,,,,,,,,,,,,,,15,,60,64
10560,note_on,,1,0,13,,,,,,,,,,,,,,,,12,,60,64
10680,note_on,,361,0,8,,,,,,,,,,,,,,,,6,,67,64
10680,note_on,,361,0,12,,,,,,,,,,,,,,,,11,,67,64
10799,note_on,,119,0,12,,,,,,,,,,,,,,,,11,,67,0
10799,note_on,,239,0,10,,,,,,,,,,,,,,,,8,,51,0
10799,note_on,,119,0,8,,,,,,,,,,,,,,,,6,,67,0
10799,note_on,,239,0,9,,,,,,,,,,,,,,,,7,,60,0
10799,note_on,,239,0,15,,,,,,,,,,,,,,,,15,,51,0
10799,note_on,,239,0,6,,,,,,,,,,,,,,,,2,,51,0
10799,note_on,,0,0,15,,,,,,,,,,,,,,,,15,,72,0
10799,note_on,,239,0,14,,,,,,,,,,,,,,,,13,,51,0
10799,note_on,,239,0,13,,,,,,,,,,,,,,,,12,,60,0
10800,note_on,,0,0,15,,,,,,,,,,,,,,,,15,,67,64
10800,note_on,,1,0,13,,,,,,,,,,,,,,,,12,,55,64
10800,note_on,,1,0,15,,,,,,,,,,,,,,,,15,,52,64
10800,note_on,,1,0,8,,,,,,,,,,,,,,,,6,,72,64
10800,note_on,,1,0,14,,,,,,,,,,,,,,,,13,,52,64
10800,note_on,,1,0,10,,,,,,,,,,,,,,,,8,,52,64
10800,note_on,,1,0,12,,,,,,,,,,,,,,,,11,,72,64
10800,note_on,,1,0,6,,,,,,,,,,,,,,,,2,,52,64
10800,note_on,,1,0,9,,,,,,,,,,,,,,,,7,,55,64
10919,note_on,,119,0,8,,,,,,,,,,,,,,,,6,,72,0
10919,note_on,,119,0,12,,,,,,,,,,,,,,,,11,,72,0
10920,note_on,,1,0,8,,,,,,,,,,,,,,,,6,,70,64
10920,note_on,,1,0,12,,,,,,,,,,,,,,,,11,,70,64
11039,note_on,,119,0,8,,,,,,,,,,,,,,,,6,,70,0
11039,note_on,,119,0,12,,,,,,,,,,,,,,,,11,,70,0
11039,note_on,,239,0,13,,,,,,,,,,,,,,,,12,,55,0
11039,note_on,,239,0,14,,,,,,,,,,,,,,,,13,,52,0
11039,note_on,,239,0,9,,,,,,,,,,,,,,,,7,,55,0
11039,note_on,,239,0,6,,,,,,,,,,,,,,,,2,,52,0
11039,note_on,,239,0,15,,,,,,,,,,,,,,,,15,,60,0
11039,note_on,,0,0,15,,,,,,,,,,,,,,,,15,,55,0
11039,note_on,,0,0,15,,,,,,,,,,,,,,,,15,,52,0
11039,note_on,,0,0,15,,,,,,,,,,,,,,,,15,,67,0
11039,note_on,,239,0,10,,,,,,,,,,,,,,,,8,,52,0
11040,note_on,,1,0,8,,,,,,,,,,,,,,,,6,,68,64
11040,note_on,,1,0,6,,,,,,,,,,,,,,,,2,,53,64
11040,note_on,,0,0,15,,,,,,,,,,,,,,,,15,,65,64
11040,note_on,,1,0,14,,,,,,,,,,,,,,,,13,,53,64
11040,note_on,,0,0,15,,,,,,,,,,,,,,,,15,,68,64
11040,note_on,,1,0,15,,,,,,,,,,,,,,,,15,,53,64
11040,note_on,,1,0,13,,,,,,,,,,,,,,,,12,,60,64
11040,note_on,,1,0,10,,,,,,,,,,,,,,,,8,,53,64
11040,note_on,,1,0,12,,,,,,,,,,,,,,,,11,,68,64
11040,note_on,,1,0,9,,,,,,,,,,,,,,,,7,,60,64
11040,note_on,,0,0,15,,,,,,,,,,,,,,,,15,,60,64
11159,note_on,,119,0,8,,,,,,,,,,,,,,,,6,,68,0
11159,note_on,,119,0,12,,,,,,,,,,,,,,,,11,,68,0
11160,note_on,,1,0,8,,,,,,,,,,,,,,,,6,,67,64
11160,note_on,,1,0,12,,,,,,,,,,,,,,,,11,,67,64
11279,note_on,,239,0,15,,,,,,,,,,,,,,,,15,,60,0
11279,note_on,,119,0,8,,,,,,,,,,,,,,,,6,,67,0
11279,note_on,,119,0,12,,,,,,,,,,,,,,,,11,,67,0
11280,note_on,,1,0,15,,,,,,,,,,,,,,,,15,,58,64
11280,note_on,,1,0,8,,,,,,,,,,,,,,,,6,,65,64
11280,note_on,,1,0,12,,,,,,,,,,,,,,,,11,,65,64
11399,note_on,,119,0,12,,,,,,,,,,,,,,,,11,,65,0
11399,note_on,,0,0,15,,,,,,,,,,,,,,,,15,,65,0
11399,note_on,,0,0,15,,,,,,,,,,,,,,,,15,,68,0
11399,note_on,,119,0,15,,,,,,,,,,,,,,,,15,,53,0
11399,note_on,,359,0,13,,,,,,,,,,,,,,,,12,,60,0
11399,note_on,,359,0,14,,,,,,,,,,,,,,,,13,,53,0
11399,note_on,,359,0,6,,,,,,,,,,,,,,,,2,,53,0
11399,note_on,,359,0,10,,,,,,,,,,,,,,,,8,,53,0
11399,note_on,,119,0,8,,,,,,,,,,,,,,,,6,,65,0
11399,note_on,,359,0,9,,,,,,,,,,,,,,,,7,,60,0
11400,note_on,,1,0,12,,,,,,,,,,,,,,,,11,,64,64
11400,note_on,,1,0,9,,,,,,,,,,,,,,,,7,,58,64
11400,note_on,,1,0,10,,,,,,,,,,,,,,,,8,,55,64
11400,note_on,,1,0,14,,,,,,,,,,,,,,,,13,,55,64
11400,note_on,,1,0,6,,,,,,,,,,,,,,,,2,,55,64
11400,note_on,,0,0,15,,,,,,,,,,,,,,,,15,,64,64
11400,note_on,,0,0,15,,,,,,,,,,,,,,,,15,,67,64
11400,note_on,,1,0,15,,,,,,,,,,,,,,,,15,,55,64
11400,note_on,,1,0,8,,,,,,,,,,,,,,,,6,,64,64
11400,note_on,,1,0,13,,,,,,,,,,,,,,,,12,,58,64
11519,note_on,,119,0,13,,,,,,,,,,,,,,,,12,,58,0
11519,note_on,,119,0,10,,,,,,,,,,,,,,,,8,,55,0
11519,note_on,,0,0,15,,,,,,,,,,,,,,,,15,,64,0
11519,note_on,,0,0,15,,,,,,,,,,,,,,,,15,,67,0
11519,note_on,,119,0,14,,,,,,,,,,,,,,,,13,,55,0
11519,note_on,,119,0,8,,,,,,,,,,,,,,,,6,,64,0
11519,note_on,,119,0,6,,,,,,,,,,,,,,,,2,,55,0
11519,note_on,,119,0,15,,,,,,,,,,,,,,,,15,,58,0
11519,note_on,,119,0,9,,,,,,,,,,,,,,,,7,,58,0
11519,note_on,,0,0,15,,,,,,,,,,,,,,,,15,,55,0
11519,note_on,,119,0,12,,,,,,,,,,,,,,,,11,,64,0
11520,note_on,,1,0,14,,,,,,,,,,,,,,,,13,,56,64
11520,note_on,,1,0,9,,,,,,,,,,,,,,,,7,,60,64
11520,note_on,,0,0,15,,,,,,,,,,,,,,,,15,,60,64
11520,note_on,,0,0,15,,,,,,,,,,,,,,,,15,,65,64
11520,note_on,,1,0,6,,,,,,,,,,,,,,,,2,,56,64
11520,note_on,,1,0,12,,,,,,,,,,,,,,,,11,,65,64
11520,note_on,,1,0,13,,,,,,,,,,,,,,,,12,,60,64
11520,note_on,,1,0,10,,,,,,,,,,,,,,,,8,,56,64
11520,note_on,,1,0,8,,,,,,,,,,,,,,,,6,,65,64
11520,note_on,,1,0,15,,,,,,,,,,,,,,,,15,,56,64
11759,note_on,,0,0,15,,,,,,,,,,,,,,,,15,,60,0
11759,note_on,,239,0,8,,,,,,,,,,,,,,,,6,,65,0
11759,note_on,,239,0,12,,,,,,,,,,,,,,,,11,,65,0
11759,note_on,,239,0,15,,,,,,,,,,,,,,,,15,,65,0
11760,note_on,,1441,0,5,,,,,,,,,,,,,,,,1,,77,72
11760,note_on,,0,0,15,,,,,,,,,,,,,,,,15,,68,64
11760,note_on,,1,0,15,,,,,,,,,,,,,,,,15,,60,64
11760,note_on,,0,0,15,,,,,,,,,,,,,,,,15,,72,64
11760,note_on,,1,0,8,,,,,,,,,,,,,,,,6,,60,64
11760,note_on,,1441,0,7,,,,,,,,,,,,,,,,5,,77,72
11760,note_on,,1441,0,11,,,,,,,,,,,,,,,,10,,77,72
11760,note_on,,1,0,12,,,,,,,,,,,,,,,,11,,60,64
11879,note_on,,359,0,10,,,,,,,,,,,,,,,,8,,56,0
11879,note_on,,119,0,15,,,,,,,,,,,,,,,,15,,56,0
11879,note_on,,359,0,6,,,,,,,,,,,,,,,,2,,56,0
11879,note_on,,359,0,9,,,,,,,,,,,,,,,,7,,60,0
11879,note_on,,359,0,14,,,,,,,,,,,,,,,,13,,56,0
11879,note_on,,359,0,13,,,,,,,,,,,,,,,,12,,60,0
11880,note_on,,1,0,13,,,,,,,,,,,,,,,,12,,62,64
11880,note_on,,1,0,15,,,,,,,,,,,,,,,,15,,58,64
11880,note_on,,1,0,9,,,,,,,,,,,,,,,,7,,62,64
11880,note_on,,1,0,14,,,,,,,,,,,,,,,,13,,58,64
11880,note_on,,1,0,10,,,,,,,,,,,,,,,,8,,58,64
11880,note_on,,1,0,6,,,,,,,,,,,,,,,,2,,58,64
11999,note_on,,119,0,14,,,,,,,,,,,,,,,,13,,58,0
11999,note_on,,119,0,13,,,,,,,,,,,,,,,,12,,62,0
11999,note_on,,119,0,9,,,,,,,,,,,,,,,,7,,62,0
11999,note_on,,239,0,11,,,,,,,,,,,,,,,,10,,77,0
11999,note_on,,119,0,6,,,,,,,,,,,,,,,,2,,58,0
11999,note_on,,119,0,10,,,,,,,,,,,,,,,,8,,58,0
11999,note_on,,239,0,5,,,,,,,,,,,,,,,,1,,77,0
11999,note_on,,239,0,8,,,,,,,,,,,,,,,,6,,60,0
11999,note_on,,119,0,15,,,,,,,,,,,,,,,,15,,60,0
11999,note_on,,0,0,15,,,,,,,,,,,,,,,,15,,68,0
11999,note_on,,0,0,15,,,,,,,,,,,,,,,,15,,58,0
11999,note_on,,239,0,12,,,,,,,,,,,,,,,,11,,60,0
11999,note_on,,239,0,7,,,,,,,,,,,,,,,,5,,77,0
12000,note_on,,1,0,15,,,,,,,,,,,,,,,,15,,60,64
12000,note_on,,1,0,9,,,,,,,,,,,,,,,,7,,63,64
12000,note_on,,1,0,11,,,,,,,,,,,,,,,,10,,75,72
12000,note_on,,1,0,5,,,,,,,,,,,,,,,,1,,75,72
12000,note_on,,0,0,15,,,,,,,,,,,,,,,,15,,63,64
12000,note_on,,1,0,6,,,,,,,,,,,,,,,,2,,60,64
12000,note_on,,1,0,14,,,,,,,,,,,,,,,,13,,60,64
12000,note_on,,1,0,13,,,,,,,,,,,,,,,,12,,63,64
12000,note_on,,1,0,10,,,,,,,,,,,,,,,,8,,60,64
12000,note_on,,1,0,7,,,,,,,,,,,,,,,,5,,75,72
12000,note_on,,0,0,15,,,,,,,,,,,,,,,,15,,67,64
12239,note_on,,239,0,11,,,,,,,,,,,,,,,,10,,75,0
12239,note_on,,0,0,15,,,,,,,,,,,,,,,,15,,60,0
12239,note_on,,0,0,15,,,,,,,,,,,,,,,,15,,67,0
12239,note_on,,0,0,15,,,,,,,,,,,,,,,,15,,63,0
12239,note_on,,239,0,7,,,,,,,,,,,,,,,,5,,75,0
12239,note_on,,239,0,5,,,,,,,,,,,,,,,,1,,75,0
12239,note_on,,239,0,10,,,,,,,,,,,,,,,,8,,60,0
12239,note_on,,239,0,6,,,,,,,,,,,,,,,,2,,60,0
12239,note_on,,239,0,15,,,,,,,,,,,,,,,,15,,72,0
12239,note_on,,239,0,14,,,,,,,,,,,,,,,,13,,60,0
12240,note_on,,1,0,7,,,,,,,,,,,,,,,,5,,80,72
12240,note_on,,1,0,11,,,,,,,,,,,,,,,,10,,80,72
12240,note_on,,1,0,5,,,,,,,,,,,,,,,,1,,80,72
12240,note_on,,1,0,10,,,,,,,,,,,,,,,,8,,48,64
12240,note_on,,1,0,6,,,,,,,,,,,,,,,,2,,48,64
12240,note_on,,1,0,14,,,,,,,,,,,,,,,,13,,48,64
12240,note_on,,1,0,15,,,,,,,,,,,,,,,,15,,48,64
12240,note_on,,0,0,15,,,,,,,,,,,,,,,,15,,72,64
12240,note_on,,0,0,15,,,,,,,,,,,,,,,,15,,68,64
12240,note_on,,0,0,15,,,,,,,,,,,,,,,,15,,63,64
12479,note_on,,239,0,5,,,,,,,,,,,,,,,,1,,80,0
12479,note_on,,239,0,10,,,,,,,,,,,,,,,,8,,48,0
12479,note_on,,239,0,6,,,,,,,,,,,,,,,,2,,48,0
12479,note_on,,0,0,15,,,,,,,,,,,,,,,,15,,63,0
12479,note_on,,0,0,15,,,,,,,,,,,,,,,,15,,68,0
12479,note_on,,0,0,15,,,,,,,,,,,,,,,,15,,72,0
12479,note_on,,479,0,13,,,,,,,,,,,,,,,,12,,63,0
12479,note_on,,479,0,9,,,,,,,,,,,,,,,,7,,63,0
12479,note_on,,239,0,7,,,,,,,,,,,,,,,,5,,80,0
12479,note_on,,239,0,15,,,,,,,,,,,,,,,,15,,48,0
12479,note_on,,239,0,14,,,,,,,,,,,,,,,,13,,48,0
12479,note_on,,239,0,11,,,,,,,,,,,,,,,,10,,80,0
12480,note_on,,1,0,5,,,,,,,,,,,,,,,,1,,71,72
12480,note_on,,1,0,9,,,,,,,,,,,,,,,,7,,62,64
12480,note_on,,1,0,13,,,,,,,,,,,,,,,,12,,62,64
12480,note_on,,1,0,15,,,,,,,,,,,,,,,,15,,71,64
12480,note_on,,0,0,15,,,,,,,,,,,,,,,,15,,61,64
12480,note_on,,1,0,11,,,,,,,,,,,,,,,,10,,71,72
12480,note_on,,0,0,15,,,,,,,,,,,,,,,,15,,65,64
12480,note_on,,1,0,7,,,,,,,,,,,,,,,,5,,71,72
12600,note_on,,121,0,6,,,,,,,,,,,,,,,,2,,50,72
12600,note_on,,121,0,10,,,,,,,,,,,,,,,,8,,50,72
12600,note_on,,120,0,15,,,,,,,,,,,,,,,,15,,50,64
12600,note_on,,121,0,14,,,,,,,,,,,,,,,,13,,50,72
12719,note_on,,0,0,15,,,,,,,,,,,,,,,,15,,50,0
12719,note_on,,119,0,10,,,,,,,,,,,,,,,,8,,50,0
12719,note_on,,0,0,15,,,,,,,,,,,,,,,,15,,61,0
12719,note_on,,119,0,15,,,,,,,,,,,,,,,,15,,65,0
12719,note_on,,119,0,6,,,,,,,,,,,,,,,,2,,50,0
12719,note_on,,119,0,14,,,,,,,,,,,,,,,,13,,50,0
12720,note_on,,1,0,10,,,,,,,,,,,,,,,,8,,55,72
12720,note_on,,0,0,15,,,,,,,,,,,,,,,,15,,61,64
12720,note_on,,1,0,14,,,,,,,,,,,,,,,,13,,55,72
12720,note_on,,1,0,6,,,,,,,,,,,,,,,,2,,55,72
12720,note_on,,1,0,15,,,,,,,,,,,,,,,,15,,55,64
12839,note_on,,119,0,14,,,,,,,,,,,,,,,,13,,55,0
12839,note_on,,119,0,6,,,,,,,,,,,,,,,,2,,55,0
12839,note_on,,119,0,15,,,,,,,,,,,,,,,,15,,55,0
12839,note_on,,119,0,10,,,,,,,,,,,,,,,,8,,55,0
12840,note_on,,1,0,14,,,,,,,,,,,,,,,,13,,53,72
12840,note_on,,1,0,15,,,,,,,,,,,,,,,,15,,53,64
12840,note_on,,1,0,6,,,,,,,,,,,,,,,,2,,53,72
12840,note_on,,1,0,10,,,,,,,,,,,,,,,,8,,53,72
12959,note_on,,479,0,11,,,,,,,,,,,,,,,,10,,71,0
12959,note_on,,479,0,9,,,,,,,,,,,,,,,,7,,62,0
12959,note_on,,119,0,14,,,,,,,,,,,,,,,,13,,53,0
12959,note_on,,479,0,7,,,,,,,,,,,,,,,,5,,71,0
12959,note_on,,479,0,13,,,,,,,,,,,,,,,,12,,62,0
12959,note_on,,119,0,6,,,,,,,,,,,,,,,,2,,53,0
12959,note_on,,479,0,5,,,,,,,,,,,,,,,,1,,71,0
12959,note_on,,119,0,15,,,,,,,,,,,,,,,,15,,71,0
12959,note_on,,0,0,15,,,,,,,,,,,,,,,,15,,61,0
12959,note_on,,119,0,10,,,,,,,,,,,,,,,,8,,53,0
12959,note_on,,0,0,15,,,,,,,,,,,,,,,,15,,53,0
12960,note_on,,1,0,14,,,,,,,,,,,,,,,,13,,51,72
12960,note_on,,1,0,9,,,,,,,,,,,,,,,,7,,55,64
12960,note_on,,0,0,15,,,,,,,,,,,,,,,,15,,67,64
12960,note_on,,0,0,15,,,,,,,,,,,,,,,,15,,72,64
12960,note_on,,1,0,15,,,,,,,,,,,,,,,,15,,51,64
12960,note_on,,1,0,5,,,,,,,,,,,,,,,,1,,72,72
12960,note_on,,0,0,15,,,,,,,,,,,,,,,,15,,60,64
12960,note_on,,1,0,6,,,,,,,,,,,,,,,,2,,51,72
12960,note_on,,1,0,13,,,,,,,,,,,,,,,,12,,55,64
12960,note_on,,1,0,10,,,,,,,,,,,,,,,,8,,51,72
12960,note_on,,1,0,7,,,,,,,,,,,,,,,,5,,72,72
12960,note_on,,1,0,11,,,,,,,,,,,,,,,,10,,72,72
13079,note_on,,119,0,6,,,,,,,,,,,,,,,,2,,51,0
13079,note_on,,119,0,10,,,,,,,,,,,,,,,,8,,51,0
13079,note_on,,119,0,15,,,,,,,,,,,,,,,,15,,51,0
13079,note_on,,119,0,14,,,,,,,,,,,,,,,,13,,51,0
13080,note_on,,1,0,10,,,,,,,,,,,,,,,,8,,50,72
13080,note_on,,1,0,6,,,,,,,,,,,,,,,,2,,50,72
13080,note_on,,1,0,14,,,,,,,,,,,,,,,,13,,50,72
13080,note_on,,1,0,15,,,,,,,,,,,,,,,,15,,50,64
13199,note_on,,239,0,5,,,,,,,,,,,,,,,,1,,72,0
13199,note_on,,0,0,15,,,,,,,,,,,,,,,,15,,50,0
13199,note_on,,0,0,15,,,,,,,,,,,,,,,,15,,60,0
13199,note_on,,0,0,15,,,,,,,,,,,,,,,,15,,67,0
13199,note_on,,119,0,15,,,,,,,,,,,,,,,,15,,72,0
13199,note_on,,239,0,7,,,,,,,,,,,,,,,,5,,72,0
13199,note_on,,119,0,6,,,,,,,,,,,,,,,,2,,50,0
13199,note_on,,239,0,11,,,,,,,,,,,,,,,,10,,72,0
13199,note_on,,119,0,14,,,,,,,,,,,,,,,,13,,50,0
13199,note_on,,119,0,10,,,,,,,,,,,,,,,,8,,50,0
13200,note_on,,1,0,10,,,,,,,,,,,,,,,,8,,48,72
13200,note_on,,1,0,6,,,,,,,,,,,,,,,,2,,48,72
13200,note_on,,1,0,7,,,,,,,,,,,,,,,,5,,74,72
13200,note_on,,0,0,15,,,,,,,,,,,,,,,,15,,65,64
13200,note_on,,1,0,11,,,,,,,,,,,,,,,,10,,74,72
13200,note_on,,1,0,15,,,,,,,,,,,,,,,,15,,48,64
13200,note_on,,1,0,14,,,,,,,,,,,,,,,,13,,48,72
13200,note_on,,1,0,5,,,,,,,,,,,,,,,,1,,74,72
13200,note_on,,0,0,15,,,,,,,,,,,,,,,,15,,74,64
13319,note_on,,119,0,15,,,,,,,,,,,,,,,,15,,48,0
13319,note_on,,119,0,6,,,,,,,,,,,,,,,,2,,48,0
13319,note_on,,119,0,10,,,,,,,,,,,,,,,,8,,48,0
13319,note_on,,119,0,14,,,,,,,,,,,,,,,,13,,48,0
13320,note_on,,1,0,10,,,,,,,,,,,,,,,,8,,47,72
13320,note_on,,1,0,6,,,,,,,,,,,,,,,,2,,47,72
13320,note_on,,1,0,14,,,,,,,,,,,,,,,,13,,47,72
13320,note_on,,1,0,15,,,,,,,,,,,,,,,,15,,47,64
13439,note_on,,239,0,5,,,,,,,,,,,,,,,,1,,74,0
13439,note_on,,119,0,10,,,,,,,,,,,,,,,,8,,47,0
13439,note_on,,239,0,7,,,,,,,,,,,,,,,,5,,74,0
13439,note_on,,479,0,9,,,,,,,,,,,,,,,,7,,55,0
13439,note_on,,0,0,15,,,,,,,,,,,,,,,,15,,47,0
13439,note_on,,0,0,15,,,,,,,,,,,,,,,,15,,65,0
13439,note_on,,119,0,15,,,,,,,,,,,,,,,,15,,74,0
13439,note_on,,119,0,6,,,,,,,,,,,,,,,,2,,47,0
13439,note_on,,119,0,14,,,,,,,,,,,,,,,,13,,47,0
13439,note_on,,479,0,13,,,,,,,,,,,,,,,,12,,55,0
13439,note_on,,239,0,11,,,,,,,,,,,,,,,,10,,74,0
13440,note_on,,1,0,14,,,,,,,,,,,,,,,,13,,48,72
13440,note_on,,1,0,10,,,,,,,,,,,,,,,,8,,48,72
13440,note_on,,0,0,15,,,,,,,,,,,,,,,,15,,63,64
13440,note_on,,0,0,15,,,,,,,,,,,,,,,,15,,67,64
13440,note_on,,1,0,7,,,,,,,,,,,,,,,,5,,75,72
13440,note_on,,1,0,6,,,,,,,,,,,,,,,,2,,48,72
13440,note_on,,1,0,11,,,,,,,,,,,,,,,,10,,75,72
13440,note_on,,1,0,5,,,,,,,,,,,,,,,,1,,75,72
13440,note_on,,1,0,15,,,,,,,,,,,,,,,,15,,48,64
13559,note_on,,119,0,15,,,,,,,,,,,,,,,,15,,48,0
13559,note_on,,0,0,15,,,,,,,,,,,,,,,,15,,67,0
13559,note_on,,119,0,6,,,,,,,,,,,,,,,,2,,48,0
13559,note_on,,119,0,14,,,,,,,,,,,,,,,,13,,48,0
13559,note_on,,119,0,10,,,,,,,,,,,,,,,,8,,48,0
13560,note_on,,1,0,6,,,,,,,,,,,,,,,,2,,60,72
13560,note_on,,1,0,14,,,,,,,,,,,,,,,,13,,60,72
13560,note_on,,1,0,15,,,,,,,,,,,,,,,,15,,60,64
13560,note_on,,0,0,15,,,,,,,,,,,,,,,,15,,69,64
13560,note_on,,1,0,10,,,,,,,,,,,,,,,,8,,60,72
13679,note_on,,119,0,10,,,,,,,,,,,,,,,,8,,60,0
13679,note_on,,119,0,15,,,,,,,,,,,,,,,,15,,60,0
13679,note_on,,0,0,15,,,,,,,,,,,,,,,,15,,69,0
13679,note_on,,119,0,14,,,,,,,,,,,,,,,,13,,60,0
13679,note_on,,119,0,6,,,,,,,,,,,,,,,,2,,60,0
13680,note_on,,1,0,14,,,,,,,,,,,,,,,,13,,55,72
13680,note_on,,1,0,10,,,,,,,,,,,,,,,,8,,55,72
13680,note_on,,1,0,15,,,,,,,,,,,,,,,,15,,55,64
13680,note_on,,0,0,15,,,,,,,,,,,,,,,,15,,70,64
13680,note_on,,1,0,6,,,,,,,,,,,,,,,,2,,55,72
13799,note_on,,359,0,5,,,,,,,,,,,,,,,,1,,75,0
13799,note_on,,359,0,7,,,,,,,,,,,,,,,,5,,75,0
13799,note_on,,359,0,11,,,,,,,,,,,,,,,,10,,75,0
13799,note_on,,119,0,10,,,,,,,,,,,,,,,,8,,55,0
13799,note_on,,119,0,14,,,,,,,,,,,,,,,,13,,55,0
13799,note_on,,0,0,15,,,,,,,,,,,,,,,,15,,70,0
13799,note_on,,119,0,15,,,,,,,,,,,,,,,,15,,55,0
13799,note_on,,119,0,6,,,,,,,,,,,,,,,,2,,55,0
13800,note_on,,1,0,11,,,,,,,,,,,,,,,,10,,77,72
13800,note_on,,0,0,15,,,,,,,,,,,,,,,,15,,72,64
13800,note_on,,1,0,15,,,,,,,,,,,,,,,,15,,57,64
13800,note_on,,1,0,7,,,,,,,,,,,,,,,,5,,77,72
13800,note_on,,1,0,10,,,,,,,,,,,,,,,,8,,57,72
13800,note_on,,1,0,5,,,,,,,,,,,,,,,,1,,77,72
13800,note_on,,1,0,6,,,,,,,,,,,,,,,,2,,57,72
13800,note_on,,1,0,14,,,,,,,,,,,,,,,,13,,57,72
13859,note_on,,59,0,5,,,,,,,,,,,,,,,,1,,77,0
13859,note_on,,59,0,7,,,,,,,,,,,,,,,,5,,77,0
13859,note_on,,59,0,11,,,,,,,,,,,,,,,,10,,77,0
13860,note_on,,1,0,7,,,,,,,,,,,,,,,,5,,75,72
13860,note_on,,1,0,5,,,,,,,,,,,,,,,,1,,75,72
13860,note_on,,1,0,11,,,,,,,,,,,,,,,,10,,75,72
13919,note_on,,119,0,15,,,,,,,,,,,,,,,,15,,63,0
13919,note_on,,0,0,15,,,,,,,,,,,,,,,,15,,57,0
13919,note_on,,59,0,7,,,,,,,,,,,,,,,,5,,75,0
13919,note_on,,0,0,15,,,,,,,,,,,,,,,,15,,72,0
13919,note_on,,119,0,10,,,,,,,,,,,,,,,,8,,57,0
13919,note_on,,119,0,14,,,,,,,,,,,,,,,,13,,57,0
13919,note_on,,119,0,6,,,,,,,,,,,,,,,,2,,57,0
13919,note_on,,59,0,5,,,,,,,,,,,,,,,,1,,75,0
13919,note_on,,59,0,11,,,,,,,,,,,,,,,,10,,75,0
13920,note_on,,1,0,6,,,,,,,,,,,,,,,,2,,58,72
13920,note_on,,0,0,15,,,,,,,,,,,,,,,,15,,61,64
13920,note_on,,0,0,15,,,,,,,,,,,,,,,,15,,65,64
13920,note_on,,1,0,15,,,,,,,,,,,,,,,,15,,58,64
13920,note_on,,1,0,5,,,,,,,,,,,,,,,,1,,73,72
13920,note_on,,1,0,7,,,,,,,,,,,,,,,,5,,73,72
13920,note_on,,1,0,14,,,,,,,,,,,,,,,,13,,58,72
13920,note_on,,1,0,10,,,,,,,,,,,,,,,,8,,58,72
13920,note_on,,1,0,11,,,,,,,,,,,,,,,,10,,73,72
14039,note_on,,119,0,11,,,,,,,,,,,,,,,,10,,73,0
14039,note_on,,119,0,6,,,,,,,,,,,,,,,,2,,58,0
14039,note_on,,119,0,7,,,,,,,,,,,,,,,,5,,73,0
14039,note_on,,119,0,5,,,,,,,,,,,,,,,,1,,73,0
14039,note_on,,119,0,15,,,,,,,,,,,,,,,,15,,58,0
14039,note_on,,119,0,10,,,,,,,,,,,,,,,,8,,58,0
14039,note_on,,119,0,14,,,,,,,,,,,,,,,,13,,58,0
14040,note_on,,1,0,6,,,,,,,,,,,,,,,,2,,53,72
14040,note_on,,1,0,15,,,,,,,,,,,,,,,,15,,53,64
14040,note_on,,1,0,11,,,,,,,,,,,,,,,,10,,72,72
14040,note_on,,1,0,14,,,,,,,,,,,,,,,,13,,53,72
14040,note_on,,1,0,7,,,,,,,,,,,,,,,,5,,72,72
14040,note_on,,1,0,5,,,,,,,,,,,,,,,,1,,72,72
14040,note_on,,1,0,10,,,,,,,,,,,,,,,,8,,53,72
14159,note_on,,119,0,10,,,,,,,,,,,,,,,,8,,53,0
14159,note_on,,119,0,6,,,,,,,,,,,,,,,,2,,53,0
14159,note_on,,119,0,14,,,,,,,,,,,,,,,,13,,53,0
14159,note_on,,119,0,11,,,,,,,,,,,,,,,,10,,72,0
14159,note_on,,119,0,15,,,,,,,,,,,,,,,,15,,53,0
14159,note_on,,119,0,7,,,,,,,,,,,,,,,,5,,72,0
14159,note_on,,119,0,5,,,,,,,,,,,,,,,,1,,72,0
14160,note_on,,1,0,7,,,,,,,,,,,,,,,,5,,73,72
14160,note_on,,1,0,15,,,,,,,,,,,,,,,,15,,58,64
14160,note_on,,1,0,6,,,,,,,,,,,,,,,,2,,58,72
14160,note_on,,1,0,5,,,,,,,,,,,,,,,,1,,73,72
14160,note_on,,1,0,10,,,,,,,,,,,,,,,,8,,58,72
14160,note_on,,1,0,14,,,,,,,,,,,,,,,,13,,58,72
14160,note_on,,1,0,11,,,,,,,,,,,,,,,,10,,73,72
14399,note_on,,239,0,15,,,,,,,,,,,,,,,,15,,65,0
14399,note_on,,0,0,15,,,,,,,,,,,,,,,,15,,61,0
14399,note_on,,239,0,7,,,,,,,,,,,,,,,,5,,73,0
14399,note_on,,239,0,11,,,,,,,,,,,,,,,,10,,73,0
14399,note_on,,239,0,5,,,,,,,,,,,,,,,,1,,73,0
14400,note_on,,1,0,11,,,,,,,,,,,,,,,,10,,72,72
14400,note_on,,1,0,15,,,,,,,,,,,,,,,,15,,72,64
14400,note_on,,0,0,15,,,,,,,,,,,,,,,,15,,60,64
14400,note_on,,0,0,15,,,,,,,,,,,,,,,,15,,65,64
14400,note_on,,1,0,7,,,,,,,,,,,,,,,,5,,72,72
14400,note_on,,1,0,5,,,,,,,,,,,,,,,,1,,72,72
14639,note_on,,479,0,10,,,,,,,,,,,,,,,,8,,58,0
14639,note_on,,239,0,15,,,,,,,,,,,,,,,,15,,58,0
14639,note_on,,479,0,6,,,,,,,,,,,,,,,,2,,58,0
14639,note_on,,479,0,14,,,,,,,,,,,,,,,,13,,58,0
14640,note_on,,1,0,10,,,,,,,,,,,,,,,,8,,57,72
14640,note_on,,1,0,6,,,,,,,,,,,,,,,,2,,57,72
14640,note_on,,1,0,14,,,,,,,,,,,,,,,,13,,57,72
14640,note_on,,1201,0,13,,,,,,,,,,,,,,,,12,,65,72
14640,note_on,,1,0,15,,,,,,,,,,,,,,,,15,,57,64
14640,note_on,,1201,0,9,,,,,,,,,,,,,,,,7,,65,72
14879,note_on,,239,0,10,,,,,,,,,,,,,,,,8,,57,0
14879,note_on,,479,0,5,,,,,,,,,,,,,,,,1,,72,0
14879,note_on,,239,0,9,,,,,,,,,,,,,,,,7,,65,0
14879,note_on,,239,0,6,,,,,,,,,,,,,,,,2,,57,0
14879,note_on,,479,0,11,,,,,,,,,,,,,,,,10,,72,0
14879,note_on,,0,0,15,,,,,,,,,,,,,,,,15,,57,0
14879,note_on,,239,0,14,,,,,,,,,,,,,,,,13,,57,0
14879,note_on,,239,0,13,,,,,,,,,,,,,,,,12,,65,0
14879,note_on,,479,0,7,,,,,,,,,,,,,,,,5,,72,0
14879,note_on,,239,0,15,,,,,,,,,,,,,,,,15,,72,0
14879,note_on,,0,0,15,,,,,,,,,,,,,,,,15,,65,0
14879,note_on,,0,0,15,,,,,,,,,,,,,,,,15,,60,0
14880,note_on,,1,0,14,,,,,,,,,,,,,,,,13,,58,72
14880,note_on,,1,0,13,,,,,,,,,,,,,,,,12,,61,72
14880,note_on,,1,0,5,,,,,,,,,,,,,,,,1,,65,72
14880,note_on,,1,0,7,,,,,,,,,,,,,,,,5,,65,72
14880,note_on,,1,0,11,,,,,,,,,,,,,,,,10,,65,72
14880,note_on,,1,0,9,,,,,,,,,,,,,,,,7,,61,72
14880,note_on,,0,0,15,,,,,,,,,,,,,,,,15,,65,64
14880,note_on,,0,0,15,,,,,,,,,,,,,,,,15,,73,64
14880,note_on,,1,0,15,,,,,,,,,,,,,,,,15,,58,64
14880,note_on,,1,0,6,,,,,,,,,,,,,,,,2,,58,72
14880,note_on,,1,0,10,,,,,,,,,,,,,,,,8,,58,72
15119,note_on,,239,0,7,,,,,,,,,,,,,,,,5,,65,0
15119,note_on,,239,0,10,,,,,,,,,,,,,,,,8,,58,0
15119,note_on,,239,0,6,,,,,,,,,,,,,,,,2,,58,0
15119,note_on,,239,0,9,,,,,,,,,,,,,,,,7,,61,0
15119,note_on,,239,0,15,,,,,,,,,,,,,,,,15,,58,0
15119,note_on,,0,0,15,,,,,,,,,,,,,,,,15,,65,0
15119,note_on,,239,0,5,,,,,,,,,,,,,,,,1,,65,0
15119,note_on,,239,0,13,,,,,,,,,,,,,,,,12,,61,0
15119,note_on,,239,0,11,,,,,,,,,,,,,,,,10,,65,0
15119,note_on,,239,0,14,,,,,,,,,,,,,,,,13,,58,0
15120,note_on,,0,0,15,,,,,,,,,,,,,,,,15,,70,64
15120,note_on,,0,0,15,,,,,,,,,,,,,,,,15,,66,64
15120,note_on,,1,0,15,,,,,,,,,,,,,,,,15,,51,64
15120,note_on,,1,0,9,,,,,,,,,,,,,,,,7,,66,72
15120,note_on,,1,0,13,,,,,,,,,,,,,,,,12,,66,72
15120,note_on,,1,0,14,,,,,,,,,,,,,,,,13,,51,72
15120,note_on,,1,0,6,,,,,,,,,,,,,,,,2,,51,72
15120,note_on,,1,0,10,,,,,,,,,,,,,,,,8,,51,72
15359,note_on,,239,0,6,,,,,,,,,,,,,,,,2,,51,0
15359,note_on,,239,0,9,,,,,,,,,,,,,,,,7,,66,0
15359,note_on,,239,0,14,,,,,,,,,,,,,,,,13,,51,0
15359,note_on,,239,0,13,,,,,,,,,,,,,,,,12,,66,0
15359,note_on,,239,0,15,,,,,,,,,,,,,,,,15,,73,0
15359,note_on,,0,0,15,,,,,,,,,,,,,,,,15,,51,0
15359,note_on,,0,0,15,,,,,,,,,,,,,,,,15,,66,0
15359,note_on,,0,0,15,,,,,,,,,,,,,,,,15,,70,0
15359,note_on,,239,0,10,,,,,,,,,,,,,,,,8,,51,0
15360,note_on,,0,0,15,,,,,,,,,,,,,,,,15,,60,64
15360,note_on,,1,0,6,,,,,,,,,,,,,,,,2,,53,72
15360,note_on,,0,0,15,,,,,,,,,,,,,,,,15,,69,64
15360,note_on,,0,0,15,,,,,,,,,,,,,,,,15,,72,64
15360,note_on,,1,0,15,,,,,,,,,,,,,,,,15,,53,64
15360,note_on,,1,0,9,,,,,,,,,,,,,,,,7,,57,72
15360,note_on,,1,0,10,,,,,,,,,,,,,,,,8,,53,72
15360,note_on,,1,0,14,,,,,,,,,,,,,,,,13,,53,72
15360,note_on,,1,0,13,,,,,,,,,,,,,,,,12,,57,72
15480,note_on,,3481,0,12,,,,,,,,,,,,,,,,11,,60,72
15480,note_on,,3481,0,8,,,,,,,,,,,,,,,,6,,60,72
15599,note_on,,119,0,12,,,,,,,,,,,,,,,,11,,60,0
15599,note_on,,119,0,8,,,,,,,,,,,,,,,,6,,60,0
15600,note_on,,1,0,12,,,,,,,,,,,,,,,,11,,65,72
15600,note_on,,1,0,8,,,,,,,,,,,,,,,,6,,65,72
15719,note_on,,119,0,12,,,,,,,,,,,,,,,,11,,65,0
15719,note_on,,119,0,8,,,,,,,,,,,,,,,,6,,65,0
15720,note_on,,1,0,12,,,,,,,,,,,,,,,,11,,63,72
15720,note_on,,1,0,8,,,,,,,,,,,,,,,,6,,63,72
15839,note_on,,119,0,8,,,,,,,,,,,,,,,,6,,63,0
15839,note_on,,0,0,15,,,,,,,,,,,,,,,,15,,60,0
15839,note_on,,0,0,15,,,,,,,,,,,,,,,,15,,69,0
15839,note_on,,479,0,15,,,,,,,,,,,,,,,,15,,53,0
15839,note_on,,0,0,15,,,,,,,,,,,,,,,,15,,72,0
15839,note_on,,479,0,6,,,,,,,,,,,,,,,,2,,53,0
15839,note_on,,479,0,14,,,,,,,,,,,,,,,,13,,53,0
15839,note_on,,479,0,9,,,,,,,,,,,,,,,,7,,57,0
15839,note_on,,479,0,13,,,,,,,,,,,,,,,,12,,57,0
15839,note_on,,479,0,10,,,,,,,,,,,,,,,,8,,53,0
15839,note_on,,119,0,12,,,,,,,,,,,,,,,,11,,63,0
15840,note_on,,0,0,15,,,,,,,,,,,,,,,,15,,61,64
15840,note_on,,1,0,14,,,,,,,,,,,,,,,,13,,46,72
15840,note_on,,1,0,13,,,,,,,,,,,,,,,,12,,58,72
15840,note_on,,1,0,10,,,,,,,,,,,,,,,,8,,46,72
15840,note_on,,1,0,15,,,,,,,,,,,,,,,,15,,46,64
15840,note_on,,1,0,12,,,,,,,,,,,,,,,,11,,61,72
15840,note_on,,0,0,15,,,,,,,,,,,,,,,,15,,65,64
15840,note_on,,1,0,6,,,,,,,,,,,,,,,,2,,46,72
15840,note_on,,0,0,15,,,,,,,,,,,,,,,,15,,70,64
15840,note_on,,1,0,8,,,,,,,,,,,,,,,,6,,61,72
15840,note_on,,1,0,9,,,,,,,,,,,,,,,,7,,58,72
15959,note_on,,119,0,8,,,,,,,,,,,,,,,,6,,61,0
15959,note_on,,119,0,12,,,,,,,,,,,,,,,,11,,61,0
15960,note_on,,1,0,8,,,,,,,,,,,,,,,,6,,60,72
15960,note_on,,1,0,12,,,,,,,,,,,,,,,,11,,60,72
16079,note_on,,119,0,8,,,,,,,,,,,,,,,,6,,60,0
16079,note_on,,119,0,12,,,,,,,,,,,,,,,,11,,60,0
16080,note_on,,1,0,8,,,,,,,,,,,,,,,,6,,58,72
16080,note_on,,1,0,12,,,,,,,,,,,,,,,,11,,58,72
16199,note_on,,359,0,13,,,,,,,,,,,,,,,,12,,58,0
16199,note_on,,0,0,15,,,,,,,,,,,,,,,,15,,61,0
16199,note_on,,0,0,15,,,,,,,,,,,,,,,,15,,65,0
16199,note_on,,359,0,9,,,,,,,,,,,,,,,,7,,58,0
16199,note_on,,359,0,14,,,,,,,,,,,,,,,,13,,46,0
16199,note_on,,119,0,12,,,,,,,,,,,,,,,,11,,58,0
16199,note_on,,359,0,6,,,,,,,,,,,,,,,,2,,46,0
16199,note_on,,119,0,8,,,,,,,,,,,,,,,,6,,58,0
16199,note_on,,359,0,15,,,,,,,,,,,,,,,,15,,46,0
16199,note_on,,0,0,15,,,,,,,,,,,,,,,,15,,70,0
16200,note_on,,1,0,13,,,,,,,,,,,,,,,,12,,60,72
16200,note_on,,1,0,12,,,,,,,,,,,,,,,,11,,57,72
16200,note_on,,0,0,15,,,,,,,,,,,,,,,,15,,63,64
16200,note_on,,0,0,15,,,,,,,,,,,,,,,,15,,60,64
16200,note_on,,1,0,9,,,,,,,,,,,,,,,,7,,60,72
16200,note_on,,1,0,15,,,,,,,,,,,,,,,,15,,53,64
16200,note_on,,1,0,14,,,,,,,,,,,,,,,,13,,53,72
16200,note_on,,1,0,6,,,,,,,,,,,,,,,,2,,53,72
16200,note_on,,1,0,8,,,,,,,,,,,,,,,,6,,57,72
16200,note_on,,0,0,15,,,,,,,,,,,,,,,,15,,69,64
16319,note_on,,119,0,9,,,,,,,,,,,,,,,,7,,60,0
16319,note_on,,0,0,15,,,,,,,,,,,,,,,,15,,63,0
16319,note_on,,119,0,13,,,,,,,,,,,,,,,,12,,60,0
16319,note_on,,119,0,14,,,,,,,,,,,,,,,,13,,53,0
16319,note_on,,119,0,6,,,,,,,,,,,,,,,,2,,53,0
16319,note_on,,479,0,10,,,,,,,,,,,,,,,,8,,46,0
16319,note_on,,0,0,15,,,,,,,,,,,,,,,,15,,60,0
16319,note_on,,119,0,15,,,,,,,,,,,,,,,,15,,53,0
16319,note_on,,0,0,15,,,,,,,,,,,,,,,,15,,69,0
16319,note_on,,119,0,12,,,,,,,,,,,,,,,,11,,57,0
16319,note_on,,119,0,8,,,,,,,,,,,,,,,,6,,57,0
16320,note_on,,1,0,12,,,,,,,,,,,,,,,,11,,58,72
16320,note_on,,0,0,15,,,,,,,,,,,,,,,,15,,61,64
16320,note_on,,1,0,8,,,,,,,,,,,,,,,,6,,58,72
16320,note_on,,0,0,15,,,,,,,,,,,,,,,,15,,65,64
16320,note_on,,0,0,15,,,,,,,,,,,,,,,,15,,70,64
16320,note_on,,1,0,6,,,,,,,,,,,,,,,,2,,58,72
16320,note_on,,1,0,15,,,,,,,,,,,,,,,,15,,58,64
16320,note_on,,1,0,9,,,,,,,,,,,,,,,,7,,61,72
16320,note_on,,1,0,13,,,,,,,,,,,,,,,,12,,61,72
16320,note_on,,1,0,14,,,,,,,,,,,,,,,,13,,58,72
16439,note_on,,119,0,8,,,,,,,,,,,,,,,,6,,58,0
16439,note_on,,119,0,12,,,,,,,,,,,,,,,,11,,58,0
16440,note_on,,1,0,12,,,,,,,,,,,,,,,,11,,70,72
16440,note_on,,1,0,8,,,,,,,,,,,,,,,,6,,70,72
16559,note_on,,119,0,12,,,,,,,,,,,,,,,,11,,70,0
16559,note_on,,119,0,8,,,,,,,,,,,,,,,,6,,70,0
16560,note_on,,1,0,12,,,,,,,,,,,,,,,,11,,65,72
16560,note_on,,1,0,8,,,,,,,,,,,,,,,,6,,65,72
16679,note_on,,359,0,9,,,,,,,,,,,,,,,,7,,61,0
16679,note_on,,119,0,8,,,,,,,,,,,,,,,,6,,65,0
16679,note_on,,119,0,12,,,,,,,,,,,,,,,,11,,65,0
16679,note_on,,359,0,13,,,,,,,,,,,,,,,,12,,61,0
16680,note_on,,1,0,9,,,,,,,,,,,,,,,,7,,63,72
16680,note_on,,1,0,12,,,,,,,,,,,,,,,,11,,67,72
16680,note_on,,1,0,13,,,,,,,,,,,,,,,,12,,63,72
16680,note_on,,1,0,8,,,,,,,,,,,,,,,,6,,67,72
16739,note_on,,59,0,13,,,,,,,,,,,,,,,,12,,63,0
16739,note_on,,59,0,9,,,,,,,,,,,,,,,,7,,63,0
16740,note_on,,1,0,9,,,,,,,,,,,,,,,,7,,61,72
16740,note_on,,1,0,13,,,,,,,,,,,,,,,,12,,61,72
16799,note_on,,0,0,15,,,,,,,,,,,,,,,,15,,70,0
16799,note_on,,119,0,12,,,,,,,,,,,,,,,,11,,67,0
16799,note_on,,479,0,14,,,,,,,,,,,,,,,,13,,58,0
16799,note_on,,0,0,15,,,,,,,,,,,,,,,,15,,65,0
16799,note_on,,0,0,15,,,,,,,,,,,,,,,,15,,61,0
16799,note_on,,479,0,6,,,,,,,,,,,,,,,,2,,58,0
16799,note_on,,59,0,9,,,,,,,,,,,,,,,,7,,61,0
16799,note_on,,479,0,15,,,,,,,,,,,,,,,,15,,58,0
16799,note_on,,59,0,13,,,,,,,,,,,,,,,,12,,61,0
16799,note_on,,119,0,8,,,,,,,,,,,,,,,,6,,67,0
16800,note_on,,1,0,15,,,,,,,,,,,,,,,,15,,53,64
16800,note_on,,0,0,15,,,,,,,,,,,,,,,,15,,68,64
16800,note_on,,1,0,8,,,,,,,,,,,,,,,,6,,68,72
16800,note_on,,0,0,15,,,,,,,,,,,,,,,,15,,60,64
16800,note_on,,1,0,6,,,,,,,,,,,,,,,,2,,53,72
16800,note_on,,1,0,14,,,,,,,,,,,,,,,,13,,53,72
16800,note_on,,1,0,12,,,,,,,,,,,,,,,,11,,68,72
16800,note_on,,1,0,9,,,,,,,,,,,,,,,,7,,60,72
16800,note_on,,1,0,13,,,,,,,,,,,,,,,,12,,60,72
16800,note_on,,0,0,15,,,,,,,,,,,,,,,,15,,65,64
16919,note_on,,119,0,9,,,,,,,,,,,,,,,,7,,60,0
16919,note_on,,119,0,13,,,,,,,,,,,,,,,,12,,60,0
16920,note_on,,1,0,9,,,,,,,,,,,,,,,,7,,65,72
16920,note_on,,1,0,13,,,,,,,,,,,,,,,,12,,65,72
17039,note_on,,119,0,9,,,,,,,,,,,,,,,,7,,65,0
17039,note_on,,119,0,13,,,,,,,,,,,,,,,,12,,65,0
17040,note_on,,1,0,9,,,,,,,,,,,,,,,,7,,60,72
17040,note_on,,1,0,13,,,,,,,,,,,,,,,,12,,60,72
17159,note_on,,359,0,12,,,,,,,,,,,,,,,,11,,68,0
17159,note_on,,359,0,8,,,,,,,,,,,,,,,,6,,68,0
17159,note_on,,119,0,9,,,,,,,,,,,,,,,,7,,60,0
17159,note_on,,119,0,13,,,,,,,,,,,,,,,,12,,60,0
17160,note_on,,1,0,9,,,,,,,,,,,,,,,,7,,62,72
17160,note_on,,1,0,12,,,,,,,,,,,,,,,,11,,70,72
17160,note_on,,1,0,13,,,,,,,,,,,,,,,,12,,62,72
17160,note_on,,1,0,8,,,,,,,,,,,,,,,,6,,70,72
17219,note_on,,59,0,12,,,,,,,,,,,,,,,,11,,70,0
17219,note_on,,59,0,8,,,,,,,,,,,,,,,,6,,70,0
17220,note_on,,1,0,12,,,,,,,,,,,,,,,,11,,68,72
17220,note_on,,1,0,8,,,,,,,,,,,,,,,,6,,68,72
17279,note_on,,479,0,15,,,,,,,,,,,,,,,,15,,53,0
17279,note_on,,119,0,9,,,,,,,,,,,,,,,,7,,62,0
17279,note_on,,479,0,6,,,,,,,,,,,,,,,,2,,53,0
17279,note_on,,479,0,14,,,,,,,,,,,,,,,,13,,53,0
17279,note_on,,59,0,12,,,,,,,,,,,,,,,,11,,68,0
17279,note_on,,0,0,15,,,,,,,,,,,,,,,,15,,68,0
17279,note_on,,0,0,15,,,,,,,,,,,,,,,,15,,60,0
17279,note_on,,119,0,13,,,,,,,,,,,,,,,,12,,62,0
17279,note_on,,0,0,15,,,,,,,,,,,,,,,,15,,65,0
17279,note_on,,59,0,8,,,,,,,,,,,,,,,,6,,68,0
17280,note_on,,0,0,15,,,,,,,,,,,,,,,,15,,67,64
17280,note_on,,0,0,15,,,,,,,,,,,,,,,,15,,64,64
17280,note_on,,0,0,15,,,,,,,,,,,,,,,,15,,60,64
17280,note_on,,1,0,14,,,,,,,,,,,,,,,,13,,48,72
17280,note_on,,1,0,9,,,,,,,,,,,,,,,,7,,64,72
17280,note_on,,1,0,15,,,,,,,,,,,,,,,,15,,48,64
17280,note_on,,1,0,12,,,,,,,,,,,,,,,,11,,67,72
17280,note_on,,1,0,8,,,,,,,,,,,,,,,,6,,67,72
17280,note_on,,1,0,6,,,,,,,,,,,,,,,,2,,48,72
17280,note_on,,1,0,13,,,,,,,,,,,,,,,,12,,64,72
17399,note_on,,119,0,9,,,,,,,,,,,,,,,,7,,64,0
17399,note_on,,119,0,13,,,,,,,,,,,,,,,,12,,64,0
17400,note_on,,1,0,13,,,,,,,,,,,,,,,,12,,65,72
17400,note_on,,1,0,9,,,,,,,,,,,,,,,,7,,65,72
17519,note_on,,119,0,13,,,,,,,,,,,,,,,,12,,65,0
17519,note_on,,239,0,15,,,,,,,,,,,,,,,,15,,48,0
17519,note_on,,0,0,15,,,,,,,,,,,,,,,,15,,67,0
17519,note_on,,0,0,15,,,,,,,,,,,,,,,,15,,64,0
17519,note_on,,119,0,9,,,,,,,,,,,,,,,,7,,65,0
17519,note_on,,239,0,14,,,,,,,,,,,,,,,,13,,48,0
17519,note_on,,239,0,6,,,,,,,,,,,,,,,,2,,48,0
17519,note_on,,0,0,15,,,,,,,,,,,,,,,,15,,60,0
17520,note_on,,0,0,15,,,,,,,,,,,,,,,,15,,72,64
17520,note_on,,0,0,15,,,,,,,,,,,,,,,,15,,67,64
17520,note_on,,1,0,13,,,,,,,,,,,,,,,,12,,67,72
17520,note_on,,0,0,15,,,,,,,,,,,,,,,,15,,64,64
17520,note_on,,1,0,14,,,,,,,,,,,,,,,,13,,60,72
17520,note_on,,1,0,9,,,,,,,,,,,,,,,,7,,67,72
17520,note_on,,1,0,15,,,,,,,,,,,,,,,,15,,60,64
17520,note_on,,1,0,6,,,,,,,,,,,,,,,,2,,60,72
17520,note_on,,1201,0,10,,,,,,,,,,,,,,,,8,,60,72
17639,note_on,,359,0,8,,,,,,,,,,,,,,,,6,,67,0
17639,note_on,,359,0,12,,,,,,,,,,,,,,,,11,,67,0
17640,note_on,,1,0,12,,,,,,,,,,,,,,,,11,,64,72
17640,note_on,,1,0,8,,,,,,,,,,,,,,,,6,,64,72
17759,note_on,,239,0,6,,,,,,,,,,,,,,,,2,,60,0
17759,note_on,,0,0,15,,,,,,,,,,,,,,,,15,,67,0
17759,note_on,,0,0,15,,,,,,,,,,,,,,,,15,,64,0
17759,note_on,,239,0,14,,,,,,,,,,,,,,,,13,,60,0
17759,note_on,,119,0,12,,,,,,,,,,,,,,,,11,,64,0
17759,note_on,,239,0,13,,,,,,,,,,,,,,,,12,,67,0
17759,note_on,,239,0,9,,,,,,,,,,,,,,,,7,,67,0
17759,note_on,,0,0,15,,,,,,,,,,,,,,,,15,,72,0
17759,note_on,,239,0,15,,,,,,,,,,,,,,,,15,,60,0
17759,note_on,,239,0,10,,,,,,,,,,,,,,,,8,,60,0
17759,note_on,,119,0,8,,,,,,,,,,,,,,,,6,,64,0
17760,note_on,,1,0,6,,,,,,,,,,,,,,,,2,,56,72
17760,note_on,,1,0,8,,,,,,,,,,,,,,,,6,,65,72
17760,note_on,,1,0,15,,,,,,,,,,,,,,,,15,,56,64
17760,note_on,,1,0,14,,,,,,,,,,,,,,,,13,,56,72
17760,note_on,,0,0,15,,,,,,,,,,,,,,,,15,,77,64
17760,note_on,,1,0,9,,,,,,,,,,,,,,,,7,,60,72
17760,note_on,,0,0,15,,,,,,,,,,,,,,,,15,,65,64
17760,note_on,,1,0,12,,,,,,,,,,,,,,,,11,,65,72
17760,note_on,,1,0,10,,,,,,,,,,,,,,,,8,,56,72
17760,note_on,,0,0,15,,,,,,,,,,,,,,,,15,,72,64
17760,note_on,,1,0,13,,,,,,,,,,,,,,,,12,,60,72
17879,note_on,,119,0,12,,,,,,,,,,,,,,,,11,,65,0
17879,note_on,,119,0,8,,,,,,,,,,,,,,,,6,,65,0
17880,note_on,,1,0,8,,,,,,,,,,,,,,,,6,,67,72
17880,note_on,,1,0,12,,,,,,,,,,,,,,,,11,,67,72
17999,note_on,,239,0,15,,,,,,,,,,,,,,,,15,,56,0
17999,note_on,,239,0,10,,,,,,,,,,,,,,,,8,,56,0
17999,note_on,,239,0,6,,,,,,,,,,,,,,,,2,,56,0
17999,note_on,,239,0,13,,,,,,,,,,,,,,,,12,,60,0
17999,note_on,,239,0,14,,,,,,,,,,,,,,,,13,,56,0
17999,note_on,,119,0,12,,,,,,,,,,,,,,,,11,,67,0
17999,note_on,,0,0,15,,,,,,,,,,,,,,,,15,,72,0
17999,note_on,,239,0,9,,,,,,,,,,,,,,,,7,,60,0
17999,note_on,,119,0,8,,,,,,,,,,,,,,,,6,,67,0
17999,note_on,,0,0,15,,,,,,,,,,,,,,,,15,,65,0
18000,note_on,,0,0,15,,,,,,,,,,,,,,,,15,,65,64
18000,note_on,,1,0,13,,,,,,,,,,,,,,,,12,,65,72
18000,note_on,,1,0,9,,,,,,,,,,,,,,,,7,,65,72
18000,note_on,,0,0,15,,,,,,,,,,,,,,,,15,,68,64
18000,note_on,,1,0,12,,,,,,,,,,,,,,,,11,,68,72
18000,note_on,,1,0,8,,,,,,,,,,,,,,,,6,,68,72
18000,note_on,,1,0,6,,,,,,,,,,,,,,,,2,,61,72
18000,note_on,,1,0,14,,,,,,,,,,,,,,,,13,,61,72
18000,note_on,,1,0,15,,,,,,,,,,,,,,,,15,,61,64
18000,note_on,,1,0,10,,,,,,,,,,,,,,,,8,,61,72
18119,note_on,,119,0,8,,,,,,,,,,,,,,,,6,,68,0
18119,note_on,,119,0,12,,,,,,,,,,,,,,,,11,,68,0
18120,note_on,,1,0,8,,,,,,,,,,,,,,,,6,,70,72
18120,note_on,,1,0,12,,,,,,,,,,,,,,,,11,,70,72
18239,note_on,,239,0,15,,,,,,,,,,,,,,,,15,,77,0
18239,note_on,,119,0,8,,,,,,,,,,,,,,,,6,,70,0
18239,note_on,,239,0,6,,,,,,,,,,,,,,,,2,,61,0
18239,note_on,,239,0,10,,,,,,,,,,,,,,,,8,,61,0
18239,note_on,,239,0,9,,,,,,,,,,,,,,,,7,,65,0
18239,note_on,,239,0,14,,,,,,,,,,,,,,,,13,,61,0
18239,note_on,,0,0,15,,,,,,,,,,,,,,,,15,,61,0
18239,note_on,,0,0,15,,,,,,,,,,,,,,,,15,,68,0
18239,note_on,,119,0,12,,,,,,,,,,,,,,,,11,,70,0
18239,note_on,,239,0,13,,,,,,,,,,,,,,,,12,,65,0
18239,note_on,,0,0,15,,,,,,,,,,,,,,,,15,,65,0
18240,note_on,,1,0,10,,,,,,,,,,,,,,,,8,,52,72
18240,note_on,,1,0,9,,,,,,,,,,,,,,,,7,,55,72
18240,note_on,,1,0,13,,,,,,,,,,,,,,,,12,,55,72
18240,note_on,,1,0,14,,,,,,,,,,,,,,,,13,,52,72
18240,note_on,,1,0,6,,,,,,,,,,,,,,,,2,,52,72
18240,note_on,,1,0,8,,,,,,,,,,,,,,,,6,,72,72
18240,note_on,,0,0,15,,,,,,,,,,,,,,,,15,,60,64
18240,note_on,,0,0,15,,,,,,,,,,,,,,,,15,,67,64
18240,note_on,,0,0,15,,,,,,,,,,,,,,,,15,,72,64
18240,note_on,,1,0,15,,,,,,,,,,,,,,,,15,,52,64
18240,note_on,,1,0,12,,,,,,,,,,,,,,,,11,,72,72
18360,note_on,,3241,0,11,,,,,,,,,,,,,,,,10,,67,72
18360,note_on,,3241,0,7,,,,,,,,,,,,,,,,5,,67,72
18360,note_on,,3241,0,5,,,,,,,,,,,,,,,,1,,67,72
18479,note_on,,119,0,11,,,,,,,,,,,,,,,,10,,67,0
18479,note_on,,239,0,8,,,,,,,,,,,,,,,,6,,72,0
18479,note_on,,119,0,7,,,,,,,,,,,,,,,,5,,67,0
18479,note_on,,239,0,12,,,,,,,,,,,,,,,,11,,72,0
18479,note_on,,119,0,5,,,,,,,,,,,,,,,,1,,67,0
18480,note_on,,1,0,8,,,,,,,,,,,,,,,,6,,60,72
18480,note_on,,1,0,5,,,,,,,,,,,,,,,,1,,72,72
18480,note_on,,1,0,11,,,,,,,,,,,,,,,,10,,72,72
18480,note_on,,1,0,7,,,,,,,,,,,,,,,,5,,72,72
18480,note_on,,1,0,12,,,,,,,,,,,,,,,,11,,60,72
18599,note_on,,119,0,7,,,,,,,,,,,,,,,,5,,72,0
18599,note_on,,119,0,11,,,,,,,,,,,,,,,,10,,72,0
18599,note_on,,119,0,5,,,,,,,,,,,,,,,,1,,72,0
18600,note_on,,1,0,5,,,,,,,,,,,,,,,,1,,70,72
18600,note_on,,1,0,11,,,,,,,,,,,,,,,,10,,70,72
18600,note_on,,1,0,7,,,,,,,,,,,,,,,,5,,70,72
18719,note_on,,479,0,6,,,,,,,,,,,,,,,,2,,52,0
18719,note_on,,119,0,7,,,,,,,,,,,,,,,,5,,70,0
18719,note_on,,119,0,5,,,,,,,,,,,,,,,,1,,70,0
18719,note_on,,479,0,14,,,,,,,,,,,,,,,,13,,52,0
18719,note_on,,479,0,13,,,,,,,,,,,,,,,,12,,55,0
18719,note_on,,0,0,15,,,,,,,,,,,,,,,,15,,67,0
18719,note_on,,239,0,12,,,,,,,,,,,,,,,,11,,60,0
18719,note_on,,479,0,9,,,,,,,,,,,,,,,,7,,55,0
18719,note_on,,0,0,15,,,,,,,,,,,,,,,,15,,72,0
18719,note_on,,479,0,15,,,,,,,,,,,,,,,,15,,52,0
18719,note_on,,479,0,10,,,,,,,,,,,,,,,,8,,52,0
18719,note_on,,239,0,8,,,,,,,,,,,,,,,,6,,60,0
18719,note_on,,119,0,11,,,,,,,,,,,,,,,,10,,70,0
18719,note_on,,0,0,15,,,,,,,,,,,,,,,,15,,60,0
18720,note_on,,1,0,7,,,,,,,,,,,,,,,,5,,68,72
18720,note_on,,1,0,8,,,,,,,,,,,,,,,,6,,60,72
18720,note_on,,1,0,14,,,,,,,,,,,,,,,,13,,53,72
18720,note_on,,1,0,15,,,,,,,,,,,,,,,,15,,53,64
18720,note_on,,1,0,6,,,,,,,,,,,,,,,,2,,53,72
18720,note_on,,0,0,15,,,,,,,,,,,,,,,,15,,68,64
18720,note_on,,1,0,5,,,,,,,,,,,,,,,,1,,68,72
18720,note_on,,0,0,15,,,,,,,,,,,,,,,,15,,60,64
18720,note_on,,1,0,13,,,,,,,,,,,,,,,,12,,56,72
18720,note_on,,1,0,9,,,,,,,,,,,,,,,,7,,56,72
18720,note_on,,1,0,10,,,,,,,,,,,,,,,,8,,53,72
18720,note_on,,1,0,12,,,,,,,,,,,,,,,,11,,60,72
18720,note_on,,1,0,11,,,,,,,,,,,,,,,,10,,68,72
18720,note_on,,0,0,15,,,,,,,,,,,,,,,,15,,77,64
18839,note_on,,119,0,7,,,,,,,,,,,,,,,,5,,68,0
18839,note_on,,119,0,11,,,,,,,,,,,,,,,,10,,68,0
18839,note_on,,119,0,5,,,,,,,,,,,,,,,,1,,68,0
18840,note_on,,1,0,5,,,,,,,,,,,,,,,,1,,67,72
18840,note_on,,1,0,7,,,,,,,,,,,,,,,,5,,67,72
18840,note_on,,1,0,11,,,,,,,,,,,,,,,,10,,67,72
18959,note_on,,239,0,12,,,,,,,,,,,,,,,,11,,60,0
18959,note_on,,119,0,7,,,,,,,,,,,,,,,,5,,67,0
18959,note_on,,119,0,5,,,,,,,,,,,,,,,,1,,67,0
18959,note_on,,239,0,9,,,,,,,,,,,,,,,,7,,56,0
18959,note_on,,239,0,10,,,,,,,,,,,,,,,,8,,53,0
18959,note_on,,239,0,15,,,,,,,,,,,,,,,,15,,53,0
18959,note_on,,239,0,6,,,,,,,,,,,,,,,,2,,53,0
18959,note_on,,0,0,15,,,,,,,,,,,,,,,,15,,60,0
18959,note_on,,119,0,11,,,,,,,,,,,,,,,,10,,67,0
18959,note_on,,239,0,13,,,,,,,,,,,,,,,,12,,56,0
18959,note_on,,239,0,14,,,,,,,,,,,,,,,,13,,53,0
18959,note_on,,239,0,8,,,,,,,,,,,,,,,,6,,60,0
18960,note_on,,0,0,15,,,,,,,,,,,,,,,,15,,58,64
18960,note_on,,1,0,15,,,,,,,,,,,,,,,,15,,55,64
18960,note_on,,1,0,7,,,,,,,,,,,,,,,,5,,65,72
18960,note_on,,1,0,11,,,,,,,,,,,,,,,,10,,65,72
18960,note_on,,1,0,10,,,,,,,,,,,,,,,,8,,55,72
18960,note_on,,1,0,9,,,,,,,,,,,,,,,,7,,58,72
18960,note_on,,1,0,13,,,,,,,,,,,,,,,,12,,58,72
18960,note_on,,1,0,5,,,,,,,,,,,,,,,,1,,65,72
18960,note_on,,1,0,6,,,,,,,,,,,,,,,,2,,55,72
18960,note_on,,1,0,14,,,,,,,,,,,,,,,,13,,55,72
19079,note_on,,119,0,5,,,,,,,,,,,,,,,,1,,65,0
19079,note_on,,119,0,15,,,,,,,,,,,,,,,,15,,77,0
19079,note_on,,119,0,7,,,,,,,,,,,,,,,,5,,65,0
19079,note_on,,0,0,15,,,,,,,,,,,,,,,,15,,68,0
19079,note_on,,119,0,11,,,,,,,,,,,,,,,,10,,65,0
19080,note_on,,1,0,5,,,,,,,,,,,,,,,,1,,64,72
19080,note_on,,1,0,7,,,,,,,,,,,,,,,,5,,64,72
19080,note_on,,1,0,15,,,,,,,,,,,,,,,,15,,76,64
19080,note_on,,0,0,15,,,,,,,,,,,,,,,,15,,67,64
19080,note_on,,1,0,11,,,,,,,,,,,,,,,,10,,64,72
19199,note_on,,119,0,5,,,,,,,,,,,,,,,,1,,64,0
19199,note_on,,239,0,6,,,,,,,,,,,,,,,,2,,55,0
19199,note_on,,239,0,14,,,,,,,,,,,,,,,,13,,55,0
19199,note_on,,119,0,7,,,,,,,,,,,,,,,,5,,64,0
19199,note_on,,239,0,9,,,,,,,,,,,,,,,,7,,58,0
19199,note_on,,239,0,13,,,,,,,,,,,,,,,,12,,58,0
19199,note_on,,119,0,11,,,,,,,,,,,,,,,,10,,64,0
19199,note_on,,239,0,10,,,,,,,,,,,,,,,,8,,55,0
19199,note_on,,0,0,15,,,,,,,,,,,,,,,,15,,67,0
19199,note_on,,119,0,15,,,,,,,,,,,,,,,,15,,55,0
19199,note_on,,0,0,15,,,,,,,,,,,,,,,,15,,58,0
19199,note_on,,0,0,15,,,,,,,,,,,,,,,,15,,76,0
19200,note_on,,0,0,15,,,,,,,,,,,,,,,,15,,65,64
19200,note_on,,1,0,15,,,,,,,,,,,,,,,,15,,56,64
19200,note_on,,1,0,7,,,,,,,,,,,,,,,,5,,65,72
19200,note_on,,1,0,10,,,,,,,,,,,,,,,,8,,56,72
19200,note_on,,0,0,15,,,,,,,,,,,,,,,,15,,60,64
19200,note_on,,1,0,13,,,,,,,,,,,,,,,,12,,60,72
19200,note_on,,1,0,5,,,,,,,,,,,,,,,,1,,65,72
19200,note_on,,0,0,15,,,,,,,,,,,,,,,,15,,77,64
19200,note_on,,1,0,11,,,,,,,,,,,,,,,,10,,65,72
19200,note_on,,1,0,9,,,,,,,,,,,,,,,,7,,60,72
19200,note_on,,1,0,14,,,,,,,,,,,,,,,,13,,56,72
19200,note_on,,1,0,6,,,,,,,,,,,,,,,,2,,56,72
19319,note_on,,119,0,5,,,,,,,,,,,,,,,,1,,65,0
19319,note_on,,119,0,11,,,,,,,,,,,,,,,,10,,65,0
19319,note_on,,119,0,7,,,,,,,,,,,,,,,,5,,65,0
19320,note_on,,1,0,11,,,,,,,,,,,,,,,,10,,72,72
19320,note_on,,1,0,7,,,,,,,,,,,,,,,,5,,72,72
19320,note_on,,1,0,5,,,,,,,,,,,,,,,,1,,72,72
19439,note_on,,0,0,15,,,,,,,,,,,,,,,,15,,77,0
19439,note_on,,239,0,6,,,,,,,,,,,,,,,,2,,56,0
19439,note_on,,239,0,14,,,,,,,,,,,,,,,,13,,56,0
19439,note_on,,239,0,10,,,,,,,,,,,,,,,,8,,56,0
19439,note_on,,119,0,5,,,,,,,,,,,,,,,,1,,72,0
19439,note_on,,119,0,11,,,,,,,,,,,,,,,,10,,72,0
19439,note_on,,0,0,15,,,,,,,,,,,,,,,,15,,65,0
19439,note_on,,239,0,15,,,,,,,,,,,,,,,,15,,56,0
19439,note_on,,119,0,7,,,,,,,,,,,,,,,,5,,72,0
19440,note_on,,1,0,15,,,,,,,,,,,,,,,,15,,57,64
19440,note_on,,0,0,15,,,,,,,,,,,,,,,,15,,72,64
19440,note_on,,1,0,11,,,,,,,,,,,,,,,,10,,77,72
19440,note_on,,1,0,6,,,,,,,,,,,,,,,,2,,57,72
19440,note_on,,1,0,10,,,,,,,,,,,,,,,,8,,57,72
19440,note_on,,0,0,15,,,,,,,,,,,,,,,,15,,65,64
19440,note_on,,1,0,14,,,,,,,,,,,,,,,,13,,57,72
19440,note_on,,1,0,7,,,,,,,,,,,,,,,,5,,77,72
19440,note_on,,1,0,5,,,,,,,,,,,,,,,,1,,77,72
19559,note_on,,119,0,7,,,,,,,,,,,,,,,,5,,77,0
19559,note_on,,119,0,11,,,,,,,,,,,,,,,,10,,77,0
19559,note_on,,119,0,5,,,,,,,,,,,,,,,,1,,77,0
19560,note_on,,1,0,11,,,,,,,,,,,,,,,,10,,75,72
19560,note_on,,1,0,5,,,,,,,,,,,,,,,,1,,75,72
19560,note_on,,1,0,7,,,,,,,,,,,,,,,,5,,75,72
19679,note_on,,239,0,6,,,,,,,,,,,,,,,,2,,57,0
19679,note_on,,239,0,14,,,,,,,,,,,,,,,,13,,57,0
19679,note_on,,119,0,5,,,,,,,,,,,,,,,,1,,75,0
19679,note_on,,479,0,9,,,,,,,,,,,,,,,,7,,60,0
19679,note_on,,0,0,15,,,,,,,,,,,,,,,,15,,65,0
19679,note_on,,0,0,15,,,,,,,,,,,,,,,,15,,72,0
19679,note_on,,0,0,15,,,,,,,,,,,,,,,,15,,57,0
19679,note_on,,239,0,15,,,,,,,,,,,,,,,,15,,60,0
19679,note_on,,119,0,7,,,,,,,,,,,,,,,,5,,75,0
19679,note_on,,119,0,11,,,,,,,,,,,,,,,,10,,75,0
19679,note_on,,239,0,10,,,,,,,,,,,,,,,,8,,57,0
19679,note_on,,479,0,13,,,,,,,,,,,,,,,,12,,60,0
19680,note_on,,1,0,7,,,,,,,,,,,,,,,,5,,73,72
19680,note_on,,0,0,15,,,,,,,,,,,,,,,,15,,65,64
19680,note_on,,1,0,15,,,,,,,,,,,,,,,,15,,58,64
19680,note_on,,1,0,6,,,,,,,,,,,,,,,,2,,58,72
19680,note_on,,1,0,11,,,,,,,,,,,,,,,,10,,73,72
19680,note_on,,1,0,9,,,,,,,,,,,,,,,,7,,61,72
19680,note_on,,1,0,13,,,,,,,,,,,,,,,,12,,61,72
19680,note_on,,1,0,14,,,,,,,,,,,,,,,,13,,58,72
19680,note_on,,0,0,15,,,,,,,,,,,,,,,,15,,70,64
19680,note_on,,0,0,15,,,,,,,,,,,,,,,,15,,61,64
19680,note_on,,1,0,10,,,,,,,,,,,,,,,,8,,58,72
19680,note_on,,1,0,5,,,,,,,,,,,,,,,,1,,73,72
19799,note_on,,119,0,7,,,,,,,,,,,,,,,,5,,73,0
19799,note_on,,119,0,11,,,,,,,,,,,,,,,,10,,73,0
19799,note_on,,119,0,5,,,,,,,,,,,,,,,,1,,73,0
19800,note_on,,1,0,11,,,,,,,,,,,,,,,,10,,72,72
19800,note_on,,1,0,7,,,,,,,,,,,,,,,,5,,72,72
19800,note_on,,1,0,5,,,,,,,,,,,,,,,,1,,72,72
19919,note_on,,239,0,13,,,,,,,,,,,,,,,,12,,61,0
19919,note_on,,239,0,14,,,,,,,,,,,,,,,,13,,58,0
19919,note_on,,239,0,15,,,,,,,,,,,,,,,,15,,58,0
19919,note_on,,119,0,11,,,,,,,,,,,,,,,,10,,72,0
19919,note_on,,119,0,5,,,,,,,,,,,,,,,,1,,72,0
19919,note_on,,239,0,9,,,,,,,,,,,,,,,,7,,61,0
19919,note_on,,119,0,7,,,,,,,,,,,,,,,,5,,72,0
19919,note_on,,0,0,15,,,,,,,,,,,,,,,,15,,61,0
19919,note_on,,239,0,10,,,,,,,,,,,,,,,,8,,58,0
19919,note_on,,0,0,15,,,,,,,,,,,,,,,,15,,65,0
19919,note_on,,239,0,6,,,,,,,,,,,,,,,,2,,58,0
19920,note_on,,0,0,15,,,,,,,,,,,,,,,,15,,63,64
19920,note_on,,1,0,13,,,,,,,,,,,,,,,,12,,63,72
19920,note_on,,1,0,11,,,,,,,,,,,,,,,,10,,70,72
19920,note_on,,1,0,9,,,,,,,,,,,,,,,,7,,63,72
19920,note_on,,1,0,7,,,,,,,,,,,,,,,,5,,70,72
19920,note_on,,1,0,15,,,,,,,,,,,,,,,,15,,60,64
19920,note_on,,1,0,5,,,,,,,,,,,,,,,,1,,70,72
19920,note_on,,1,0,14,,,,,,,,,,,,,,,,13,,60,72
19920,note_on,,1,0,10,,,,,,,,,,,,,,,,8,,60,72
19920,note_on,,1,0,6,,,,,,,,,,,,,,,,2,,60,72
20039,note_on,,119,0,11,,,,,,,,,,,,,,,,10,,70,0
20039,note_on,,119,0,7,,,,,,,,,,,,,,,,5,,70,0
20039,note_on,,119,0,15,,,,,,,,,,,,,,,,15,,70,0
20039,note_on,,119,0,5,,,,,,,,,,,,,,,,1,,70,0
20040,note_on,,1,0,15,,,,,,,,,,,,,,,,15,,69,64
20040,note_on,,1,0,11,,,,,,,,,,,,,,,,10,,69,72
20040,note_on,,1,0,5,,,,,,,,,,,,,,,,1,,69,72
20040,note_on,,1,0,7,,,,,,,,,,,,,,,,5,,69,72
20159,note_on,,0,0,15,,,,,,,,,,,,,,,,15,,69,0
20159,note_on,,239,0,6,,,,,,,,,,,,,,,,2,,60,0
20159,note_on,,239,0,13,,,,,,,,,,,,,,,,12,,63,0
20159,note_on,,119,0,15,,,,,,,,,,,,,,,,15,,60,0
20159,note_on,,0,0,15,,,,,,,,,,,,,,,,15,,63,0
20159,note_on,,239,0,9,,,,,,,,,,,,,,,,7,,63,0
20159,note_on,,119,0,5,,,,,,,,,,,,,,,,1,,69,0
20159,note_on,,239,0,14,,,,,,,,,,,,,,,,13,,60,0
20159,note_on,,239,0,10,,,,,,,,,,,,,,,,8,,60,0
20159,note_on,,119,0,7,,,,,,,,,,,,,,,,5,,69,0
20159,note_on,,119,0,11,,,,,,,,,,,,,,,,10,,69,0
20160,note_on,,1,0,11,,,,,,,,,,,,,,,,10,,70,72
20160,note_on,,1,0,15,,,,,,,,,,,,,,,,15,,61,64
20160,note_on,,0,0,15,,,,,,,,,,,,,,,,15,,70,64
20160,note_on,,0,0,15,,,,,,,,,,,,,,,,15,,65,64
20160,note_on,,1,0,10,,,,,,,,,,,,,,,,8,,61,72
20160,note_on,,1,0,6,,,,,,,,,,,,,,,,2,,61,72
20160,note_on,,1,0,5,,,,,,,,,,,,,,,,1,,70,72
20160,note_on,,1,0,14,,,,,,,,,,,,,,,,13,,61,72
20160,note_on,,1,0,7,,,,,,,,,,,,,,,,5,,70,72
20160,note_on,,1,0,9,,,,,,,,,,,,,,,,7,,65,72
20160,note_on,,1,0,13,,,,,,,,,,,,,,,,12,,65,72
20279,note_on,,119,0,14,,,,,,,,,,,,,,,,13,,61,0
20279,note_on,,119,0,5,,,,,,,,,,,,,,,,1,,70,0
20279,note_on,,119,0,10,,,,,,,,,,,,,,,,8,,61,0
20279,note_on,,119,0,11,,,,,,,,,,,,,,,,10,,70,0
20279,note_on,,119,0,6,,,,,,,,,,,,,,,,2,,61,0
20279,note_on,,119,0,7,,,,,,,,,,,,,,,,5,,70,0
20279,note_on,,119,0,15,,,,,,,,,,,,,,,,15,,61,0
20279,note_on,,0,0,15,,,,,,,,,,,,,,,,15,,65,0
20280,note_on,,1,0,15,,,,,,,,,,,,,,,,15,,60,64
20280,note_on,,1,0,11,,,,,,,,,,,,,,,,10,,72,72
20280,note_on,,1,0,7,,,,,,,,,,,,,,,,5,,72,72
20280,note_on,,1,0,14,,,,,,,,,,,,,,,,13,,60,72
20280,note_on,,0,0,15,,,,,,,,,,,,,,,,15,,63,64
20280,note_on,,1,0,5,,,,,,,,,,,,,,,,1,,72,72
20280,note_on,,1,0,6,,,,,,,,,,,,,,,,2,,60,72
20280,note_on,,1,0,10,,,,,,,,,,,,,,,,8,,60,72
20399,note_on,,0,0,15,,,,,,,,,,,,,,,,15,,63,0
20399,note_on,,119,0,7,,,,,,,,,,,,,,,,5,,72,0
20399,note_on,,119,0,5,,,,,,,,,,,,,,,,1,,72,0
20399,note_on,,119,0,6,,,,,,,,,,,,,,,,2,,60,0
20399,note_on,,119,0,14,,,,,,,,,,,,,,,,13,,60,0
20399,note_on,,119,0,10,,,,,,,,,,,,,,,,8,,60,0
20399,note_on,,119,0,11,,,,,,,,,,,,,,,,10,,72,0
20399,note_on,,119,0,15,,,,,,,,,,,,,,,,15,,70,0
20399,note_on,,0,0,15,,,,,,,,,,,,,,,,15,,60,0
20400,note_on,,1,0,15,,,,,,,,,,,,,,,,15,,58,64
20400,note_on,,0,0,15,,,,,,,,,,,,,,,,15,,77,64
20400,note_on,,0,0,15,,,,,,,,,,,,,,,,15,,65,64
20400,note_on,,1,0,14,,,,,,,,,,,,,,,,13,,58,72
20400,note_on,,1,0,11,,,,,,,,,,,,,,,,10,,73,72
20400,note_on,,1,0,7,,,,,,,,,,,,,,,,5,,73,72
20400,note_on,,1,0,6,,,,,,,,,,,,,,,,2,,58,72
20400,note_on,,1,0,5,,,,,,,,,,,,,,,,1,,73,72
20400,note_on,,1,0,10,,,,,,,,,,,,,,,,8,,58,72
20519,note_on,,119,0,15,,,,,,,,,,,,,,,,15,,58,0
20519,note_on,,119,0,14,,,,,,,,,,,,,,,,13,,58,0
20519,note_on,,119,0,6,,,,,,,,,,,,,,,,2,,58,0
20519,note_on,,119,0,10,,,,,,,,,,,,,,,,8,,58,0
20520,note_on,,1,0,6,,,,,,,,,,,,,,,,2,,56,72
20520,note_on,,1,0,14,,,,,,,,,,,,,,,,13,,56,72
20520,note_on,,1,0,10,,,,,,,,,,,,,,,,8,,56,72
20520,note_on,,1,0,15,,,,,,,,,,,,,,,,15,,56,64
20639,note_on,,0,0,15,,,,,,,,,,,,,,,,15,,65,0
20639,note_on,,0,0,15,,,,,,,,,,,,,,,,15,,56,0
20639,note_on,,479,0,9,,,,,,,,,,,,,,,,7,,65,0
20639,note_on,,119,0,15,,,,,,,,,,,,,,,,15,,77,0
20639,note_on,,479,0,13,,,,,,,,,,,,,,,,12,,65,0
20639,note_on,,119,0,14,,,,,,,,,,,,,,,,13,,56,0
20639,note_on,,119,0,10,,,,,,,,,,,,,,,,8,,56,0
20639,note_on,,119,0,6,,,,,,,,,,,,,,,,2,,56,0
20640,note_on,,1,0,14,,,,,,,,,,,,,,,,13,,55,72
20640,note_on,,1,0,9,,,,,,,,,,,,,,,,7,,63,72
20640,note_on,,1,0,6,,,,,,,,,,,,,,,,2,,55,72
20640,note_on,,1,0,13,,,,,,,,,,,,,,,,12,,63,72
20640,note_on,,0,0,15,,,,,,,,,,,,,,,,15,,70,64
20640,note_on,,0,0,15,,,,,,,,,,,,,,,,15,,75,64
20640,note_on,,0,0,15,,,,,,,,,,,,,,,,15,,58,64
20640,note_on,,1,0,10,,,,,,,,,,,,,,,,8,,55,72
20640,note_on,,1,0,15,,,,,,,,,,,,,,,,15,,55,64
20879,note_on,,239,0,9,,,,,,,,,,,,,,,,7,,63,0
20879,note_on,,479,0,7,,,,,,,,,,,,,,,,5,,73,0
20879,note_on,,239,0,14,,,,,,,,,,,,,,,,13,,55,0
20879,note_on,,239,0,15,,,,,,,,,,,,,,,,15,,55,0
20879,note_on,,0,0,15,,,,,,,,,,,,,,,,15,,70,0
20879,note_on,,0,0,15,,,,,,,,,,,,,,,,15,,58,0
20879,note_on,,479,0,11,,,,,,,,,,,,,,,,10,,73,0
20879,note_on,,239,0,13,,,,,,,,,,,,,,,,12,,63,0
20879,note_on,,239,0,6,,,,,,,,,,,,,,,,2,,55,0
20879,note_on,,239,0,10,,,,,,,,,,,,,,,,8,,55,0
20879,note_on,,479,0,5,,,,,,,,,,,,,,,,1,,73,0
20880,note_on,,1,0,13,,,,,,,,,,,,,,,,12,,56,72
20880,note_on,,1,0,9,,,,,,,,,,,,,,,,7,,56,72
20880,note_on,,0,0,15,,,,,,,,,,,,,,,,15,,60,64
20880,note_on,,0,0,15,,,,,,,,,,,,,,,,15,,68,64
20880,note_on,,1,0,5,,,,,,,,,,,,,,,,1,,72,72
20880,note_on,,1,0,15,,,,,,,,,,,,,,,,15,,56,64
20880,note_on,,1,0,7,,,,,,,,,,,,,,,,5,,72,72
20880,note_on,,1,0,14,,,,,,,,,,,,,,,,13,,56,72
20880,note_on,,1,0,6,,,,,,,,,,,,,,,,2,,56,72
20880,note_on,,1,0,11,,,,,,,,,,,,,,,,10,,72,72
20880,note_on,,1,0,10,,,,,,,,,,,,,,,,8,,56,72
21119,note_on,,0,0,15,,,,,,,,,,,,,,,,15,,60,0
21119,note_on,,239,0,6,,,,,,,,,,,,,,,,2,,56,0
21119,note_on,,0,0,15,,,,,,,,,,,,,,,,15,,68,0
21119,note_on,,239,0,11,,,,,,,,,,,,,,,,10,,72,0
21119,note_on,,239,0,15,,,,,,,,,,,,,,,,15,,56,0
21119,note_on,,239,0,14,,,,,,,,,,,,,,,,13,,56,0
21119,note_on,,239,0,7,,,,,,,,,,,,,,,,5,,72,0
21119,note_on,,239,0,5,,,,,,,,,,,,,,,,1,,72,0
21119,note_on,,239,0,10,,,,,,,,,,,,,,,,8,,56,0
21120,note_on,,1,0,10,,,,,,,,,,,,,,,,8,,51,72
21120,note_on,,1,0,5,,,,,,,,,,,,,,,,1,,70,72
21120,note_on,,1,0,15,,,,,,,,,,,,,,,,15,,51,64
21120,note_on,,0,0,15,,,,,,,,,,,,,,,,15,,58,64
21120,note_on,,1,0,11,,,,,,,,,,,,,,,,10,,70,72
21120,note_on,,1,0,7,,,,,,,,,,,,,,,,5,,70,72
21120,note_on,,1,0,6,,,,,,,,,,,,,,,,2,,51,72
21120,note_on,,1,0,14,,,,,,,,,,,,,,,,13,,51,72
21120,note_on,,0,0,15,,,,,,,,,,,,,,,,15,,70,64
21239,note_on,,359,0,9,,,,,,,,,,,,,,,,7,,56,0
21239,note_on,,359,0,13,,,,,,,,,,,,,,,,12,,56,0
21240,note_on,,1,0,13,,,,,,,,,,,,,,,,12,,55,72
21240,note_on,,1,0,9,,,,,,,,,,,,,,,,7,,55,72
21359,note_on,,119,0,13,,,,,,,,,,,,,,,,12,,55,0
21359,note_on,,239,0,15,,,,,,,,,,,,,,,,15,,75,0
21359,note_on,,0,0,15,,,,,,,,,,,,,,,,15,,70,0
21359,note_on,,119,0,9,,,,,,,,,,,,,,,,7,,55,0
21360,note_on,,1,0,9,,,,,,,,,,,,,,,,7,,56,72
21360,note_on,,1,0,15,,,,,,,,,,,,,,,,15,,70,64
21360,note_on,,0,0,15,,,,,,,,,,,,,,,,15,,67,64
21360,note_on,,0,0,15,,,,,,,,,,,,,,,,15,,63,64
21360,note_on,,1,0,13,,,,,,,,,,,,,,,,12,,56,72
21479,note_on,,359,0,10,,,,,,,,,,,,,,,,8,,51,0
21479,note_on,,359,0,14,,,,,,,,,,,,,,,,13,,51,0
21479,note_on,,119,0,9,,,,,,,,,,,,,,,,7,,56,0
21479,note_on,,119,0,13,,,,,,,,,,,,,,,,12,,56,0
21479,note_on,,119,0,15,,,,,,,,,,,,,,,,15,,51,0
21479,note_on,,359,0,6,,,,,,,,,,,,,,,,2,,51,0
21480,note_on,,1,0,13,,,,,,,,,,,,,,,,12,,58,72
21480,note_on,,1,0,6,,,,,,,,,,,,,,,,2,,49,72
21480,note_on,,1,0,14,,,,,,,,,,,,,,,,13,,49,72
21480,note_on,,1,0,10,,,,,,,,,,,,,,,,8,,50,72
21480,note_on,,1,0,15,,,,,,,,,,,,,,,,15,,49,64
21480,note_on,,1,0,9,,,,,,,,,,,,,,,,7,,58,72
21599,note_on,,0,0,15,,,,,,,,,,,,,,,,15,,70,0
21599,note_on,,119,0,15,,,,,,,,,,,,,,,,15,,58,0
21599,note_on,,119,0,10,,,,,,,,,,,,,,,,8,,50,0
21599,note_on,,119,0,14,,,,,,,,,,,,,,,,13,,49,0
21599,note_on,,0,0,15,,,,,,,,,,,,,,,,15,,63,0
21599,note_on,,0,0,15,,,,,,,,,,,,,,,,15,,49,0
21599,note_on,,0,0,15,,,,,,,,,,,,,,,,15,,67,0
21599,note_on,,119,0,9,,,,,,,,,,,,,,,,7,,58,0
21599,note_on,,119,0,6,,,,,,,,,,,,,,,,2,,49,0
21599,note_on,,119,0,13,,,,,,,,,,,,,,,,12,,58,0
21600,note_on,,1,0,14,,,,,,,,,,,,,,,,13,,48,72
21600,note_on,,1,0,13,,,,,,,,,,,,,,,,12,,51,72
21600,note_on,,1,0,10,,,,,,,,,,,,,,,,8,,48,72
21600,note_on,,1,0,9,,,,,,,,,,,,,,,,7,,51,72
21600,note_on,,1,0,6,,,,,,,,,,,,,,,,2,,48,72
21600,note_on,,1,0,15,,,,,,,,,,,,,,,,15,,48,64
21600,note_on,,0,0,15,,,,,,,,,,,,,,,,15,,51,64
21600,note_on,,0,0,15,,,,,,,,,,,,,,,,15,,63,64
21600,note_on,,0,0,15,,,,,,,,,,,,,,,,15,,72,64
21719,note_on,,119,0,9,,,,,,,,,,,,,,,,7,,51,0
21719,note_on,,119,0,13,,,,,,,,,,,,,,,,12,,51,0
21720,note_on,,1,0,9,,,,,,,,,,,,,,,,7,,63,72
21720,note_on,,1,0,13,,,,,,,,,,,,,,,,12,,63,72
21839,note_on,,0,0,15,,,,,,,,,,,,,,,,15,,51,0
21839,note_on,,719,0,5,,,,,,,,,,,,,,,,1,,70,0
21839,note_on,,719,0,7,,,,,,,,,,,,,,,,5,,70,0
21839,note_on,,119,0,13,,,,,,,,,,,,,,,,12,,63,0
21839,note_on,,119,0,9,,,,,,,,,,,,,,,,7,,63,0
21839,note_on,,239,0,15,,,,,,,,,,,,,,,,15,,63,0
21839,note_on,,719,0,11,,,,,,,,,,,,,,,,10,,70,0
21840,note_on,,1,0,15,,,,,,,,,,,,,,,,15,,60,64
21840,note_on,,1,0,5,,,,,,,,,,,,,,,,1,,68,72
21840,note_on,,1,0,7,,,,,,,,,,,,,,,,5,,68,72
21840,note_on,,1,0,9,,,,,,,,,,,,,,,,7,,65,72
21840,note_on,,1,0,11,,,,,,,,,,,,,,,,10,,68,72
21840,note_on,,1,0,13,,,,,,,,,,,,,,,,12,,65,72
21840,note_on,,0,0,15,,,,,,,,,,,,,,,,15,,56,64
21959,note_on,,119,0,13,,,,,,,,,,,,,,,,12,,65,0
21959,note_on,,119,0,9,,,,,,,,,,,,,,,,7,,65,0
21960,note_on,,1,0,9,,,,,,,,,,,,,,,,7,,63,72
21960,note_on,,1,0,13,,,,,,,,,,,,,,,,12,,63,72
22079,note_on,,479,0,6,,,,,,,,,,,,,,,,2,,48,0
22079,note_on,,239,0,15,,,,,,,,,,,,,,,,15,,48,0
22079,note_on,,0,0,15,,,,,,,,,,,,,,,,15,,56,0
22079,note_on,,0,0,15,,,,,,,,,,,,,,,,15,,60,0
22079,note_on,,119,0,9,,,,,,,,,,,,,,,,7,,63,0
22079,note_on,,119,0,13,,,,,,,,,,,,,,,,12,,63,0
22079,note_on,,0,0,15,,,,,,,,,,,,,,,,15,,72,0
22079,note_on,,479,0,10,,,,,,,,,,,,,,,,8,,48,0
22079,note_on,,479,0,14,,,,,,,,,,,,,,,,13,,48,0
22080,note_on,,1,0,6,,,,,,,,,,,,,,,,2,,46,72
22080,note_on,,1,0,14,,,,,,,,,,,,,,,,13,,46,72
22080,note_on,,0,0,15,,,,,,,,,,,,,,,,15,,58,64
22080,note_on,,1,0,13,,,,,,,,,,,,,,,,12,,62,72
22080,note_on,,0,0,15,,,,,,,,,,,,,,,,15,,62,64
22080,note_on,,1,0,10,,,,,,,,,,,,,,,,8,,46,72
22080,note_on,,1,0,15,,,,,,,,,,,,,,,,15,,46,64
22080,note_on,,0,0,15,,,,,,,,,,,,,,,,15,,65,64
22080,note_on,,1,0,9,,,,,,,,,,,,,,,,7,,62,72
22199,note_on,,359,0,7,,,,,,,,,,,,,,,,5,,68,0
22199,note_on,,359,0,5,,,,,,,,,,,,,,,,1,,68,0
22199,note_on,,359,0,11,,,,,,,,,,,,,,,,10,,68,0
22200,note_on,,1,0,5,,,,,,,,,,,,,,,,1,,70,72
22200,note_on,,1,0,11,,,,,,,,,,,,,,,,10,,70,72
22200,note_on,,1,0,7,,,,,,,,,,,,,,,,5,,70,72
22319,note_on,,119,0,5,,,,,,,,,,,,,,,,1,,70,0
22319,note_on,,0,0,15,,,,,,,,,,,,,,,,15,,62,0
22319,note_on,,239,0,15,,,,,,,,,,,,,,,,15,,65,0
22319,note_on,,119,0,7,,,,,,,,,,,,,,,,5,,70,0
22319,note_on,,239,0,13,,,,,,,,,,,,,,,,12,,62,0
22319,note_on,,239,0,9,,,,,,,,,,,,,,,,7,,62,0
22319,note_on,,119,0,11,,,,,,,,,,,,,,,,10,,70,0
22320,note_on,,1,0,15,,,,,,,,,,,,,,,,15,,67,64
22320,note_on,,1,0,9,,,,,,,,,,,,,,,,7,,63,72
22320,note_on,,1,0,13,,,,,,,,,,,,,,,,12,,63,72
22320,note_on,,0,0,15,,,,,,,,,,,,,,,,15,,63,64
22320,note_on,,1,0,7,,,,,,,,,,,,,,,,5,,67,72
22320,note_on,,1,0,11,,,,,,,,,,,,,,,,10,,67,72
22320,note_on,,1,0,5,,,,,,,,,,,,,,,,1,,67,72
22439,note_on,,119,0,7,,,,,,,,,,,,,,,,5,,67,0
22439,note_on,,119,0,5,,,,,,,,,,,,,,,,1,,67,0
22439,note_on,,119,0,11,,,,,,,,,,,,,,,,10,,67,0
22440,note_on,,1,0,5,,,,,,,,,,,,,,,,1,,68,72
22440,note_on,,1,0,7,,,,,,,,,,,,,,,,5,,68,72
22440,note_on,,1,0,11,,,,,,,,,,,,,,,,10,,68,72
22559,note_on,,119,0,5,,,,,,,,,,,,,,,,1,,68,0
22559,note_on,,119,0,11,,,,,,,,,,,,,,,,10,,68,0
22559,note_on,,119,0,7,,,,,,,,,,,,,,,,5,,68,0
22559,note_on,,0,0,15,,,,,,,,,,,,,,,,15,,67,0
22559,note_on,,239,0,15,,,,,,,,,,,,,,,,15,,58,0
22560,note_on,,0,0,15,,,,,,,,,,,,,,,,15,,58,64
22560,note_on,,1,0,15,,,,,,,,,,,,,,,,15,,65,64
22560,note_on,,1,0,5,,,,,,,,,,,,,,,,1,,65,72
22560,note_on,,1,0,11,,,,,,,,,,,,,,,,10,,65,72
22560,note_on,,1,0,7,,,,,,,,,,,,,,,,5,,65,72
22799,note_on,,479,0,13,,,,,,,,,,,,,,,,12,,63,0
22799,note_on,,479,0,9,,,,,,,,,,,,,,,,7,,63,0
22799,note_on,,239,0,15,,,,,,,,,,,,,,,,15,,63,0
22799,note_on,,0,0,15,,,,,,,,,,,,,,,,15,,65,0
22800,note_on,,3841,0,12,,,,,,,,,,,,,,,,11,,70,72
22800,note_on,,1,0,13,,,,,,,,,,,,,,,,12,,62,72
22800,note_on,,1,0,15,,,,,,,,,,,,,,,,15,,70,64
22800,note_on,,1,0,9,,,,,,,,,,,,,,,,7,,62,72
22800,note_on,,0,0,15,,,,,,,,,,,,,,,,15,,62,64
22800,note_on,,3841,0,8,,,,,,,,,,,,,,,,6,,70,72
22800,note_on,,0,0,15,,,,,,,,,,,,,,,,15,,65,64
23039,note_on,,479,0,11,,,,,,,,,,,,,,,,10,,65,0
23039,note_on,,239,0,15,,,,,,,,,,,,,,,,15,,46,0
23039,note_on,,959,0,10,,,,,,,,,,,,,,,,8,,46,0
23039,note_on,,959,0,14,,,,,,,,,,,,,,,,13,,46,0
23039,note_on,,0,0,15,,,,,,,,,,,,,,,,15,,58,0
23039,note_on,,479,0,7,,,,,,,,,,,,,,,,5,,65,0
23039,note_on,,0,0,15,,,,,,,,,,,,,,,,15,,70,0
23039,note_on,,0,0,15,,,,,,,,,,,,,,,,15,,65,0
23039,note_on,,0,0,15,,,,,,,,,,,,,,,,15,,62,0
23039,note_on,,959,0,6,,,,,,,,,,,,,,,,2,,46,0
23039,note_on,,479,0,5,,,,,,,,,,,,,,,,1,,65,0
23039,note_on,,239,0,9,,,,,,,,,,,,,,,,7,,62,0
23039,note_on,,239,0,8,,,,,,,,,,,,,,,,6,,70,0
23039,note_on,,239,0,12,,,,,,,,,,,,,,,,11,,70,0
23039,note_on,,239,0,13,,,,,,,,,,,,,,,,12,,62,0
23040,note_on,,1,0,9,,,,,,,,,,,,,,,,7,,63,72
23040,note_on,,1,0,8,,,,,,,,,,,,,,,,6,,67,72
23040,note_on,,1,0,12,,,,,,,,,,,,,,,,11,,67,72
23040,note_on,,1,0,14,,,,,,,,,,,,,,,,13,,63,72
23040,note_on,,1,0,15,,,,,,,,,,,,,,,,15,,63,64
23040,note_on,,0,0,15,,,,,,,,,,,,,,,,15,,67,64
23040,note_on,,1,0,13,,,,,,,,,,,,,,,,12,,63,72
23279,note_on,,239,0,8,,,,,,,,,,,,,,,,6,,67,0
23279,note_on,,239,0,15,,,,,,,,,,,,,,,,15,,63,0
23279,note_on,,0,0,15,,,,,,,,,,,,,,,,15,,67,0
23279,note_on,,239,0,14,,,,,,,,,,,,,,,,13,,63,0
23279,note_on,,239,0,13,,,,,,,,,,,,,,,,12,,63,0
23279,note_on,,239,0,12,,,,,,,,,,,,,,,,11,,67,0
23279,note_on,,239,0,9,,,,,,,,,,,,,,,,7,,63,0
23280,note_on,,1,0,15,,,,,,,,,,,,,,,,15,,56,64
23280,note_on,,0,0,15,,,,,,,,,,,,,,,,15,,72,64
23280,note_on,,1,0,13,,,,,,,,,,,,,,,,12,,56,72
23280,note_on,,1,0,8,,,,,,,,,,,,,,,,6,,72,72
23280,note_on,,1,0,14,,,,,,,,,,,,,,,,13,,56,72
23280,note_on,,1,0,12,,,,,,,,,,,,,,,,11,,72,72
23280,note_on,,1,0,9,,,,,,,,,,,,,,,,7,,56,72
23519,note_on,,239,0,13,,,,,,,,,,,,,,,,12,,56,0
23519,note_on,,239,0,8,,,,,,,,,,,,,,,,6,,72,0
23519,note_on,,239,0,14,,,,,,,,,,,,,,,,13,,56,0
23519,note_on,,239,0,15,,,,,,,,,,,,,,,,15,,56,0
23519,note_on,,0,0,15,,,,,,,,,,,,,,,,15,,72,0
23519,note_on,,239,0,12,,,,,,,,,,,,,,,,11,,72,0
23519,note_on,,239,0,9,,,,,,,,,,,,,,,,7,,56,0
23520,note_on,,1,0,14,,,,,,,,,,,,,,,,13,,53,72
23520,note_on,,1,0,8,,,,,,,,,,,,,,,,6,,62,72
23520,note_on,,1,0,15,,,,,,,,,,,,,,,,15,,53,64
23520,note_on,,0,0,15,,,,,,,,,,,,,,,,15,,62,64
23520,note_on,,1,0,13,,,,,,,,,,,,,,,,12,,53,72
23520,note_on,,1,0,12,,,,,,,,,,,,,,,,11,,62,72
23520,note_on,,1,0,9,,,,,,,,,,,,,,,,7,,53,72
23639,note_on,,119,0,14,,,,,,,,,,,,,,,,13,,53,0
23639,note_on,,119,0,15,,,,,,,,,,,,,,,,15,,53,0
23640,note_on,,601,0,6,,,,,,,,,,,,,,,,2,,46,72
23640,note_on,,1,0,15,,,,,,,,,,,,,,,,15,,46,64
23640,note_on,,1,0,14,,,,,,,,,,,,,,,,13,,46,72
23640,note_on,,601,0,10,,,,,,,,,,,,,,,,8,,46,72
23759,note_on,,239,0,9,,,,,,,,,,,,,,,,7,,53,0
23759,note_on,,239,0,13,,,,,,,,,,,,,,,,12,,53,0
23759,note_on,,119,0,15,,,,,,,,,,,,,,,,15,,46,0
23759,note_on,,119,0,6,,,,,,,,,,,,,,,,2,,46,0
23759,note_on,,119,0,14,,,,,,,,,,,,,,,,13,,46,0
23759,note_on,,119,0,10,,,,,,,,,,,,,,,,8,,46,0
23760,note_on,,1,0,15,,,,,,,,,,,,,,,,15,,58,64
23760,note_on,,0,0,15,,,,,,,,,,,,,,,,15,,65,64
23760,note_on,,1,0,10,,,,,,,,,,,,,,,,8,,58,72
23760,note_on,,1,0,14,,,,,,,,,,,,,,,,13,,58,72
23760,note_on,,1,0,9,,,,,,,,,,,,,,,,7,,58,72
23760,note_on,,1,0,13,,,,,,,,,,,,,,,,12,,58,72
23760,note_on,,1,0,6,,,,,,,,,,,,,,,,2,,58,72
23879,note_on,,119,0,14,,,,,,,,,,,,,,,,13,,58,0
23879,note_on,,119,0,10,,,,,,,,,,,,,,,,8,,58,0
23879,note_on,,119,0,6,,,,,,,,,,,,,,,,2,,58,0
23879,note_on,,119,0,15,,,,,,,,,,,,,,,,15,,58,0
23880,note_on,,1,0,14,,,,,,,,,,,,,,,,13,,56,72
23880,note_on,,1,0,10,,,,,,,,,,,,,,,,8,,56,72
23880,note_on,,1,0,6,,,,,,,,,,,,,,,,2,,56,72
23880,note_on,,1,0,15,,,,,,,,,,,,,,,,15,,56,64
23999,note_on,,479,0,8,,,,,,,,,,,,,,,,6,,62,0
23999,note_on,,119,0,14,,,,,,,,,,,,,,,,13,,56,0
23999,note_on,,0,0,15,,,,,,,,,,,,,,,,15,,65,0
23999,note_on,,0,0,15,,,,,,,,,,,,,,,,15,,56,0
23999,note_on,,119,0,15,,,,,,,,,,,,,,,,15,,62,0
23999,note_on,,119,0,6,,,,,,,,,,,,,,,,2,,56,0
23999,note_on,,119,0,10,,,,,,,,,,,,,,,,8,,56,0
23999,note_on,,479,0,12,,,,,,,,,,,,,,,,11,,62,0
24000,note_on,,1,0,10,,,,,,,,,,,,,,,,8,,55,72
24000,note_on,,1,0,15,,,,,,,,,,,,,,,,15,,55,64
24000,note_on,,1,0,14,,,,,,,,,,,,,,,,13,,55,72
24000,note_on,,1,0,6,,,,,,,,,,,,,,,,2,,55,72
24000,note_on,,1,0,12,,,,,,,,,,,,,,,,11,,63,72
24000,note_on,,0,0,15,,,,,,,,,,,,,,,,15,,67,64
24000,note_on,,0,0,15,,,,,,,,,,,,,,,,15,,63,64
24000,note_on,,1,0,8,,,,,,,,,,,,,,,,6,,63,72
24000,note_on,,0,0,15,,,,,,,,,,,,,,,,15,,58,64
24119,note_on,,119,0,15,,,,,,,,,,,,,,,,15,,55,0
24119,note_on,,119,0,10,,,,,,,,,,,,,,,,8,,55,0
24119,note_on,,119,0,6,,,,,,,,,,,,,,,,2,,55,0
24119,note_on,,119,0,14,,,,,,,,,,,,,,,,13,,55,0
24120,note_on,,1,0,10,,,,,,,,,,,,,,,,8,,53,72
24120,note_on,,1,0,14,,,,,,,,,,,,,,,,13,,53,72
24120,note_on,,1,0,15,,,,,,,,,,,,,,,,15,,53,64
24120,note_on,,1,0,6,,,,,,,,,,,,,,,,2,,53,72
24239,note_on,,119,0,10,,,,,,,,,,,,,,,,8,,53,0
24239,note_on,,239,0,8,,,,,,,,,,,,,,,,6,,63,0
24239,note_on,,479,0,9,,,,,,,,,,,,,,,,7,,58,0
24239,note_on,,479,0,13,,,,,,,,,,,,,,,,12,,58,0
24239,note_on,,119,0,14,,,,,,,,,,,,,,,,13,,53,0
24239,note_on,,239,0,12,,,,,,,,,,,,,,,,11,,63,0
24239,note_on,,119,0,15,,,,,,,,,,,,,,,,15,,67,0
24239,note_on,,0,0,15,,,,,,,,,,,,,,,,15,,63,0
24239,note_on,,0,0,15,,,,,,,,,,,,,,,,15,,53,0
24239,note_on,,119,0,6,,,,,,,,,,,,,,,,2,,53,0
24240,note_on,,1,0,6,,,,,,,,,,,,,,,,2,,51,72
24240,note_on,,1,0,13,,,,,,,,,,,,,,,,12,,58,72
24240,note_on,,1,0,12,,,,,,,,,,,,,,,,11,,65,72
24240,note_on,,1,0,14,,,,,,,,,,,,,,,,13,,51,72
24240,note_on,,0,0,15,,,,,,,,,,,,,,,,15,,65,64
24240,note_on,,1,0,10,,,,,,,,,,,,,,,,8,,51,72
24240,note_on,,1,0,15,,,,,,,,,,,,,,,,15,,51,64
24240,note_on,,1,0,8,,,,,,,,,,,,,,,,6,,65,72
24240,note_on,,1,0,9,,,,,,,,,,,,,,,,7,,58,72
24240,note_on,,0,0,15,,,,,,,,,,,,,,,,15,,68,64
24359,note_on,,119,0,14,,,,,,,,,,,,,,,,13,,51,0
24359,note_on,,119,0,15,,,,,,,,,,,,,,,,15,,51,0
24359,note_on,,119,0,10,,,,,,,,,,,,,,,,8,,51,0
24359,note_on,,119,0,6,,,,,,,,,,,,,,,,2,,51,0
24360,note_on,,1,0,10,,,,,,,,,,,,,,,,8,,50,72
24360,note_on,,1,0,15,,,,,,,,,,,,,,,,15,,50,64
24360,note_on,,1,0,14,,,,,,,,,,,,,,,,13,,50,72
24360,note_on,,1,0,6,,,,,,,,,,,,,,,,2,,50,72
24479,note_on,,239,0,12,,,,,,,,,,,,,,,,11,,65,0
24479,note_on,,119,0,14,,,,,,,,,,,,,,,,13,,50,0
24479,note_on,,239,0,9,,,,,,,,,,,,,,,,7,,58,0
24479,note_on,,119,0,10,,,,,,,,,,,,,,,,8,,50,0
24479,note_on,,0,0,15,,,,,,,,,,,,,,,,15,,65,0
24479,note_on,,0,0,15,,,,,,,,,,,,,,,,15,,68,0
24479,note_on,,119,0,15,,,,,,,,,,,,,,,,15,,58,0
24479,note_on,,119,0,6,,,,,,,,,,,,,,,,2,,50,0
24479,note_on,,239,0,13,,,,,,,,,,,,,,,,12,,58,0
24479,note_on,,239,0,8,,,,,,,,,,,,,,,,6,,65,0
24479,note_on,,0,0,15,,,,,,,,,,,,,,,,15,,50,0
24480,note_on,,1,0,14,,,,,,,,,,,,,,,,13,,51,72
24480,note_on,,1,0,15,,,,,,,,,,,,,,,,15,,51,64
24480,note_on,,1,0,12,,,,,,,,,,,,,,,,11,,67,72
24480,note_on,,1,0,6,,,,,,,,,,,,,,,,2,,51,72
24480,note_on,,0,0,15,,,,,,,,,,,,,,,,15,,67,64
24480,note_on,,1,0,9,,,,,,,,,,,,,,,,7,,63,72
24480,note_on,,1,0,13,,,,,,,,,,,,,,,,12,,63,72
24480,note_on,,1,0,10,,,,,,,,,,,,,,,,8,,51,72
24480,note_on,,0,0,15,,,,,,,,,,,,,,,,15,,63,64
24480,note_on,,1,0,8,,,,,,,,,,,,,,,,6,,67,72
24599,note_on,,119,0,10,,,,,,,,,,,,,,,,8,,51,0
24599,note_on,,119,0,8,,,,,,,,,,,,,,,,6,,67,0
24599,note_on,,119,0,14,,,,,,,,,,,,,,,,13,,51,0
24599,note_on,,119,0,6,,,,,,,,,,,,,,,,2,,51,0
24599,note_on,,119,0,12,,,,,,,,,,,,,,,,11,,67,0
24599,note_on,,119,0,15,,,,,,,,,,,,,,,,15,,51,0
24600,note_on,,1,0,15,,,,,,,,,,,,,,,,15,,48,64
24600,note_on,,1,0,8,,,,,,,,,,,,,,,,6,,63,72
24600,note_on,,1,0,12,,,,,,,,,,,,,,,,11,,63,72
24600,note_on,,1,0,14,,,,,,,,,,,,,,,,13,,48,72
24600,note_on,,1,0,6,,,,,,,,,,,,,,,,2,,48,72
24600,note_on,,1,0,10,,,,,,,,,,,,,,,,8,,48,72
24719,note_on,,119,0,6,,,,,,,,,,,,,,,,2,,48,0
24719,note_on,,239,0,13,,,,,,,,,,,,,,,,12,,63,0
24719,note_on,,119,0,15,,,,,,,,,,,,,,,,15,,67,0
24719,note_on,,119,0,14,,,,,,,,,,,,,,,,13,,48,0
24719,note_on,,119,0,10,,,,,,,,,,,,,,,,8,,48,0
24719,note_on,,0,0,15,,,,,,,,,,,,,,,,15,,48,0
24719,note_on,,0,0,15,,,,,,,,,,,,,,,,15,,63,0
24719,note_on,,119,0,12,,,,,,,,,,,,,,,,11,,63,0
24719,note_on,,239,0,9,,,,,,,,,,,,,,,,7,,63,0
24719,note_on,,119,0,8,,,,,,,,,,,,,,,,6,,63,0
24720,note_on,,1,0,10,,,,,,,,,,,,,,,,8,,53,72
24720,note_on,,0,0,15,,,,,,,,,,,,,,,,15,,68,64
24720,note_on,,1,0,15,,,,,,,,,,,,,,,,15,,53,64
24720,note_on,,1,0,13,,,,,,,,,,,,,,,,12,,62,72
24720,note_on,,1,0,12,,,,,,,,,,,,,,,,11,,68,72
24720,note_on,,1,0,8,,,,,,,,,,,,,,,,6,,68,72
24720,note_on,,1,0,14,,,,,,,,,,,,,,,,13,,53,72
24720,note_on,,1,0,6,,,,,,,,,,,,,,,,2,,53,72
24720,note_on,,0,0,15,,,,,,,,,,,,,,,,15,,56,64
24720,note_on,,1,0,9,,,,,,,,,,,,,,,,7,,62,72
24839,note_on,,119,0,13,,,,,,,,,,,,,,,,12,,62,0
24839,note_on,,119,0,9,,,,,,,,,,,,,,,,7,,62,0
24840,note_on,,1,0,9,,,,,,,,,,,,,,,,7,,60,72
24840,note_on,,1,0,13,,,,,,,,,,,,,,,,12,,60,72
24959,note_on,,239,0,6,,,,,,,,,,,,,,,,2,,53,0
24959,note_on,,239,0,10,,,,,,,,,,,,,,,,8,,53,0
24959,note_on,,119,0,9,,,,,,,,,,,,,,,,7,,60,0
24959,note_on,,239,0,14,,,,,,,,,,,,,,,,13,,53,0
24959,note_on,,0,0,15,,,,,,,,,,,,,,,,15,,68,0
24959,note_on,,119,0,13,,,,,,,,,,,,,,,,12,,60,0
24959,note_on,,239,0,15,,,,,,,,,,,,,,,,15,,53,0
24960,note_on,,1,0,10,,,,,,,,,,,,,,,,8,,46,72
24960,note_on,,1,0,15,,,,,,,,,,,,,,,,15,,46,64
24960,note_on,,0,0,15,,,,,,,,,,,,,,,,15,,74,64
24960,note_on,,0,0,15,,,,,,,,,,,,,,,,15,,65,64
24960,note_on,,1,0,14,,,,,,,,,,,,,,,,13,,46,72
24960,note_on,,1,0,6,,,,,,,,,,,,,,,,2,,46,72
24960,note_on,,1,0,9,,,,,,,,,,,,,,,,7,,62,72
24960,note_on,,1,0,13,,,,,,,,,,,,,,,,12,,62,72
25079,note_on,,359,0,12,,,,,,,,,,,,,,,,11,,68,0
25079,note_on,,359,0,8,,,,,,,,,,,,,,,,6,,68,0
25080,note_on,,1,0,12,,,,,,,,,,,,,,,,11,,70,72
25080,note_on,,1,0,8,,,,,,,,,,,,,,,,6,,70,72
25199,note_on,,239,0,9,,,,,,,,,,,,,,,,7,,62,0
25199,note_on,,119,0,8,,,,,,,,,,,,,,,,6,,70,0
25199,note_on,,239,0,15,,,,,,,,,,,,,,,,15,,56,0
25199,note_on,,0,0,15,,,,,,,,,,,,,,,,15,,46,0
25199,note_on,,0,0,15,,,,,,,,,,,,,,,,15,,74,0
25199,note_on,,0,0,15,,,,,,,,,,,,,,,,15,,65,0
25199,note_on,,239,0,10,,,,,,,,,,,,,,,,8,,46,0
25199,note_on,,239,0,6,,,,,,,,,,,,,,,,2,,46,0
25199,note_on,,119,0,12,,,,,,,,,,,,,,,,11,,70,0
25199,note_on,,239,0,13,,,,,,,,,,,,,,,,12,,62,0
25199,note_on,,239,0,14,,,,,,,,,,,,,,,,13,,46,0
25200,note_on,,1,0,6,,,,,,,,,,,,,,,,2,,51,72
25200,note_on,,1,0,10,,,,,,,,,,,,,,,,8,,51,72
25200,note_on,,1,0,15,,,,,,,,,,,,,,,,15,,51,64
25200,note_on,,1,0,12,,,,,,,,,,,,,,,,11,,67,72
25200,note_on,,1,0,8,,,,,,,,,,,,,,,,6,,67,72
25200,note_on,,0,0,15,,,,,,,,,,,,,,,,15,,75,64
25200,note_on,,1,0,9,,,,,,,,,,,,,,,,7,,63,72
25200,note_on,,0,0,15,,,,,,,,,,,,,,,,15,,55,64
25200,note_on,,0,0,15,,,,,,,,,,,,,,,,15,,67,64
25200,note_on,,1,0,13,,,,,,,,,,,,,,,,12,,63,72
25200,note_on,,1,0,14,,,,,,,,,,,,,,,,13,,51,72
25319,note_on,,119,0,12,,,,,,,,,,,,,,,,11,,67,0
25319,note_on,,119,0,8,,,,,,,,,,,,,,,,6,,67,0
25320,note_on,,1,0,8,,,,,,,,,,,,,,,,6,,68,72
25320,note_on,,1,0,12,,,,,,,,,,,,,,,,11,,68,72
25439,note_on,,0,0,15,,,,,,,,,,,,,,,,15,,55,0
25439,note_on,,239,0,15,,,,,,,,,,,,,,,,15,,51,0
25439,note_on,,0,0,15,,,,,,,,,,,,,,,,15,,67,0
25439,note_on,,119,0,12,,,,,,,,,,,,,,,,11,,68,0
25439,note_on,,119,0,8,,,,,,,,,,,,,,,,6,,68,0
25439,note_on,,239,0,10,,,,,,,,,,,,,,,,8,,51,0
25439,note_on,,239,0,14,,,,,,,,,,,,,,,,13,,51,0
25439,note_on,,239,0,6,,,,,,,,,,,,,,,,2,,51,0
25440,note_on,,1,0,12,,,,,,,,,,,,,,,,11,,65,72
25440,note_on,,1,0,14,,,,,,,,,,,,,,,,13,,58,72
25440,note_on,,1,0,8,,,,,,,,,,,,,,,,6,,65,72
25440,note_on,,1,0,15,,,,,,,,,,,,,,,,15,,58,64
25440,note_on,,0,0,15,,,,,,,,,,,,,,,,15,,65,64
25440,note_on,,1,0,6,,,,,,,,,,,,,,,,2,,58,72
25440,note_on,,1,0,10,,,,,,,,,,,,,,,,8,,58,72
25679,note_on,,0,0,15,,,,,,,,,,,,,,,,15,,65,0
25679,note_on,,239,0,15,,,,,,,,,,,,,,,,15,,75,0
25679,note_on,,479,0,9,,,,,,,,,,,,,,,,7,,63,0
25679,note_on,,479,0,13,,,,,,,,,,,,,,,,12,,63,0
25680,note_on,,0,0,15,,,,,,,,,,,,,,,,15,,70,64
25680,note_on,,0,0,15,,,,,,,,,,,,,,,,15,,65,64
25680,note_on,,1,0,9,,,,,,,,,,,,,,,,7,,62,72
25680,note_on,,1,0,13,,,,,,,,,,,,,,,,12,,62,72
25680,note_on,,1,0,15,,,,,,,,,,,,,,,,15,,74,64
25799,note_on,,359,0,6,,,,,,,,,,,,,,,,2,,58,0
25799,note_on,,119,0,15,,,,,,,,,,,,,,,,15,,58,0
25799,note_on,,359,0,10,,,,,,,,,,,,,,,,8,,58,0
25799,note_on,,359,0,14,,,,,,,,,,,,,,,,13,,58,0
25800,note_on,,1,0,15,,,,,,,,,,,,,,,,15,,56,64
25800,note_on,,1,0,14,,,,,,,,,,,,,,,,13,,56,72
25800,note_on,,1,0,6,,,,,,,,,,,,,,,,2,,56,72
25800,note_on,,1,0,10,,,,,,,,,,,,,,,,8,,56,72
25919,note_on,,119,0,10,,,,,,,,,,,,,,,,8,,56,0
25919,note_on,,0,0,15,,,,,,,,,,,,,,,,15,,56,0
25919,note_on,,239,0,13,,,,,,,,,,,,,,,,12,,62,0
25919,note_on,,0,0,15,,,,,,,,,,,,,,,,15,,70,0
25919,note_on,,119,0,15,,,,,,,,,,,,,,,,15,,74,0
25919,note_on,,0,0,15,,,,,,,,,,,,,,,,15,,65,0
25919,note_on,,239,0,9,,,,,,,,,,,,,,,,7,,62,0
25919,note_on,,119,0,14,,,,,,,,,,,,,,,,13,,56,0
25919,note_on,,479,0,12,,,,,,,,,,,,,,,,11,,65,0
25919,note_on,,119,0,6,,,,,,,,,,,,,,,,2,,56,0
25919,note_on,,479,0,8,,,,,,,,,,,,,,,,6,,65,0
25920,note_on,,1,0,12,,,,,,,,,,,,,,,,11,,58,72
25920,note_on,,1,0,9,,,,,,,,,,,,,,,,7,,63,72
25920,note_on,,1,0,10,,,,,,,,,,,,,,,,8,,55,72
25920,note_on,,1,0,14,,,,,,,,,,,,,,,,13,,55,72
25920,note_on,,1,0,13,,,,,,,,,,,,,,,,12,,63,72
25920,note_on,,1,0,6,,,,,,,,,,,,,,,,2,,55,72
25920,note_on,,1,0,8,,,,,,,,,,,,,,,,6,,58,72
25920,note_on,,0,0,15,,,,,,,,,,,,,,,,15,,70,64
25920,note_on,,1,0,15,,,,,,,,,,,,,,,,15,,55,64
25920,note_on,,0,0,15,,,,,,,,,,,,,,,,15,,63,64
26039,note_on,,119,0,15,,,,,,,,,,,,,,,,15,,55,0
26039,note_on,,119,0,10,,,,,,,,,,,,,,,,8,,55,0
26039,note_on,,119,0,14,,,,,,,,,,,,,,,,13,,55,0
26039,note_on,,119,0,6,,,,,,,,,,,,,,,,2,,55,0
26040,note_on,,1,0,14,,,,,,,,,,,,,,,,13,,51,72
26040,note_on,,1,0,15,,,,,,,,,,,,,,,,15,,51,64
26040,note_on,,1,0,6,,,,,,,,,,,,,,,,2,,51,72
26040,note_on,,1,0,10,,,,,,,,,,,,,,,,8,,51,72
26159,note_on,,119,0,14,,,,,,,,,,,,,,,,13,,51,0
26159,note_on,,0,0,15,,,,,,,,,,,,,,,,15,,51,0
26159,note_on,,119,0,10,,,,,,,,,,,,,,,,8,,51,0
26159,note_on,,0,0,15,,,,,,,,,,,,,,,,15,,63,0
26159,note_on,,119,0,15,,,,,,,,,,,,,,,,15,,70,0
26159,note_on,,119,0,6,,,,,,,,,,,,,,,,2,,51,0
26160,note_on,,1,0,6,,,,,,,,,,,,,,,,2,,53,72
26160,note_on,,1,0,15,,,,,,,,,,,,,,,,15,,53,64
26160,note_on,,0,0,15,,,,,,,,,,,,,,,,15,,75,64
26160,note_on,,0,0,15,,,,,,,,,,,,,,,,15,,70,64
26160,note_on,,1,0,10,,,,,,,,,,,,,,,,8,,53,72
26160,note_on,,3121,0,11,,,,,,,,,,,,,,,,10,,75,72
26160,note_on,,3121,0,5,,,,,,,,,,,,,,,,1,,75,72
26160,note_on,,1,0,14,,,,,,,,,,,,,,,,13,,53,72
26160,note_on,,3121,0,7,,,,,,,,,,,,,,,,5,,75,72
26160,note_on,,0,0,15,,,,,,,,,,,,,,,,15,,67,64
26279,note_on,,119,0,15,,,,,,,,,,,,,,,,15,,53,0
26279,note_on,,119,0,6,,,,,,,,,,,,,,,,2,,53,0
26279,note_on,,119,0,10,,,,,,,,,,,,,,,,8,,53,0
26279,note_on,,119,0,14,,,,,,,,,,,,,,,,13,,53,0
26280,note_on,,1,0,14,,,,,,,,,,,,,,,,13,,55,72
26280,note_on,,1,0,6,,,,,,,,,,,,,,,,2,,55,72
26280,note_on,,1,0,15,,,,,,,,,,,,,,,,15,,55,64
26280,note_on,,1,0,10,,,,,,,,,,,,,,,,8,,55,72
26399,note_on,,479,0,8,,,,,,,,,,,,,,,,6,,58,0
26399,note_on,,119,0,14,,,,,,,,,,,,,,,,13,,55,0
26399,note_on,,119,0,10,,,,,,,,,,,,,,,,8,,55,0
26399,note_on,,0,0,15,,,,,,,,,,,,,,,,15,,55,0
26399,note_on,,479,0,12,,,,,,,,,,,,,,,,11,,58,0
26399,note_on,,119,0,6,,,,,,,,,,,,,,,,2,,55,0
26399,note_on,,239,0,7,,,,,,,,,,,,,,,,5,,75,0
26399,note_on,,239,0,5,,,,,,,,,,,,,,,,1,,75,0
26399,note_on,,479,0,9,,,,,,,,,,,,,,,,7,,63,0
26399,note_on,,119,0,15,,,,,,,,,,,,,,,,15,,75,0
26399,note_on,,0,0,15,,,,,,,,,,,,,,,,15,,70,0
26399,note_on,,0,0,15,,,,,,,,,,,,,,,,15,,67,0
26399,note_on,,239,0,11,,,,,,,,,,,,,,,,10,,75,0
26399,note_on,,479,0,13,,,,,,,,,,,,,,,,12,,63,0
26400,note_on,,0,0,15,,,,,,,,,,,,,,,,15,,68,64
26400,note_on,,0,0,15,,,,,,,,,,,,,,,,15,,72,64
26400,note_on,,1,0,13,,,,,,,,,,,,,,,,12,,63,72
26400,note_on,,0,0,15,,,,,,,,,,,,,,,,15,,60,64
26400,note_on,,1,0,6,,,,,,,,,,,,,,,,2,,56,72
26400,note_on,,1,0,14,,,,,,,,,,,,,,,,13,,56,72
26400,note_on,,1,0,5,,,,,,,,,,,,,,,,1,,72,72
26400,note_on,,1,0,7,,,,,,,,,,,,,,,,5,,72,72
26400,note_on,,1,0,15,,,,,,,,,,,,,,,,15,,56,64
26400,note_on,,1,0,11,,,,,,,,,,,,,,,,10,,72,72
26400,note_on,,1,0,9,,,,,,,,,,,,,,,,7,,63,72
26400,note_on,,1,0,10,,,,,,,,,,,,,,,,8,,56,72
26639,note_on,,239,0,15,,,,,,,,,,,,,,,,15,,56,0
26639,note_on,,0,0,15,,,,,,,,,,,,,,,,15,,60,0
26639,note_on,,0,0,15,,,,,,,,,,,,,,,,15,,68,0
26639,note_on,,0,0,15,,,,,,,,,,,,,,,,15,,72,0
26639,note_on,,239,0,10,,,,,,,,,,,,,,,,8,,56,0
26639,note_on,,239,0,13,,,,,,,,,,,,,,,,12,,63,0
26639,note_on,,239,0,6,,,,,,,,,,,,,,,,2,,56,0
26639,note_on,,239,0,9,,,,,,,,,,,,,,,,7,,63,0
26639,note_on,,239,0,7,,,,,,,,,,,,,,,,5,,72,0
26639,note_on,,239,0,5,,,,,,,,,,,,,,,,1,,72,0
26639,note_on,,239,0,11,,,,,,,,,,,,,,,,10,,72,0
26639,note_on,,239,0,14,,,,,,,,,,,,,,,,13,,56,0
26640,note_on,,1,0,10,,,,,,,,,,,,,,,,8,,49,72
26640,note_on,,1,0,7,,,,,,,,,,,,,,,,5,,77,72
26640,note_on,,1,0,11,,,,,,,,,,,,,,,,10,,77,72
26640,note_on,,1,0,15,,,,,,,,,,,,,,,,15,,49,64
26640,note_on,,0,0,15,,,,,,,,,,,,,,,,15,,77,64
26640,note_on,,0,0,15,,,,,,,,,,,,,,,,15,,73,64
26640,note_on,,0,0,15,,,,,,,,,,,,,,,,15,,68,64
26640,note_on,,1,0,14,,,,,,,,,,,,,,,,13,,49,72
26640,note_on,,1,0,5,,,,,,,,,,,,,,,,1,,77,72
26640,note_on,,1,0,6,,,,,,,,,,,,,,,,2,,49,72
26879,note_on,,0,0,15,,,,,,,,,,,,,,,,15,,68,0
26879,note_on,,239,0,6,,,,,,,,,,,,,,,,2,,49,0
26879,note_on,,239,0,11,,,,,,,,,,,,,,,,10,,77,0
26879,note_on,,239,0,5,,,,,,,,,,,,,,,,1,,77,0
26879,note_on,,239,0,7,,,,,,,,,,,,,,,,5,,77,0
26879,note_on,,239,0,10,,,,,,,,,,,,,,,,8,,49,0
26879,note_on,,239,0,15,,,,,,,,,,,,,,,,15,,49,0
26879,note_on,,0,0,15,,,,,,,,,,,,,,,,15,,73,0
26879,note_on,,0,0,15,,,,,,,,,,,,,,,,15,,77,0
26879,note_on,,239,0,14,,,,,,,,,,,,,,,,13,,49,0
26880,note_on,,1,0,14,,,,,,,,,,,,,,,,13,,51,72
26880,note_on,,1,0,6,,,,,,,,,,,,,,,,2,,51,72
26880,note_on,,1,0,11,,,,,,,,,,,,,,,,10,,67,72
26880,note_on,,0,0,15,,,,,,,,,,,,,,,,15,,67,64
26880,note_on,,0,0,15,,,,,,,,,,,,,,,,15,,63,64
26880,note_on,,1,0,5,,,,,,,,,,,,,,,,1,,67,72
26880,note_on,,1,0,10,,,,,,,,,,,,,,,,8,,51,72
26880,note_on,,1,0,15,,,,,,,,,,,,,,,,15,,51,64
26880,note_on,,0,0,15,,,,,,,,,,,,,,,,15,,58,64
26880,note_on,,1,0,7,,,,,,,,,,,,,,,,5,,67,72
26999,note_on,,119,0,15,,,,,,,,,,,,,,,,15,,58,0
27000,note_on,,361,0,9,,,,,,,,,,,,,,,,7,,58,72
27000,note_on,,361,0,13,,,,,,,,,,,,,,,,12,,58,72
27000,note_on,,1,0,15,,,,,,,,,,,,,,,,15,,58,64
27119,note_on,,119,0,13,,,,,,,,,,,,,,,,12,,58,0
27119,note_on,,119,0,9,,,,,,,,,,,,,,,,7,,58,0
27119,note_on,,119,0,15,,,,,,,,,,,,,,,,15,,58,0
27120,note_on,,1,0,15,,,,,,,,,,,,,,,,15,,63,64
27120,note_on,,1,0,13,,,,,,,,,,,,,,,,12,,63,72
27120,note_on,,1,0,9,,,,,,,,,,,,,,,,7,,63,72
27239,note_on,,119,0,13,,,,,,,,,,,,,,,,12,,63,0
27239,note_on,,119,0,15,,,,,,,,,,,,,,,,15,,63,0
27239,note_on,,119,0,9,,,,,,,,,,,,,,,,7,,63,0
27240,note_on,,1,0,13,,,,,,,,,,,,,,,,12,,61,72
27240,note_on,,1,0,9,,,,,,,,,,,,,,,,7,,61,72
27240,note_on,,1,0,15,,,,,,,,,,,,,,,,15,,61,64
27359,note_on,,479,0,14,,,,,,,,,,,,,,,,13,,51,0
27359,note_on,,479,0,7,,,,,,,,,,,,,,,,5,,67,0
27359,note_on,,479,0,5,,,,,,,,,,,,,,,,1,,67,0
27359,note_on,,119,0,9,,,,,,,,,,,,,,,,7,,61,0
27359,note_on,,479,0,11,,,,,,,,,,,,,,,,10,,67,0
27359,note_on,,479,0,10,,,,,,,,,,,,,,,,8,,51,0
27359,note_on,,479,0,6,,,,,,,,,,,,,,,,2,,51,0
27359,note_on,,119,0,13,,,,,,,,,,,,,,,,12,,61,0
27359,note_on,,119,0,15,,,,,,,,,,,,,,,,15,,51,0
27359,note_on,,0,0,15,,,,,,,,,,,,,,,,15,,67,0
27359,note_on,,0,0,15,,,,,,,,,,,,,,,,15,,63,0
27359,note_on,,0,0,15,,,,,,,,,,,,,,,,15,,61,0
27360,note_on,,1,0,14,,,,,,,,,,,,,,,,13,,60,72
27360,note_on,,1,0,7,,,,,,,,,,,,,,,,5,,68,72
27360,note_on,,1,0,5,,,,,,,,,,,,,,,,1,,68,72
27360,note_on,,1,0,13,,,,,,,,,,,,,,,,12,,60,72
27360,note_on,,0,0,15,,,,,,,,,,,,,,,,15,,68,64
27360,note_on,,0,0,15,,,,,,,,,,,,,,,,15,,63,64
27360,note_on,,1,0,11,,,,,,,,,,,,,,,,10,,68,72
27360,note_on,,1,0,15,,,,,,,,,,,,,,,,15,,60,64
27360,note_on,,1,0,9,,,,,,,,,,,,,,,,7,,60,72
27479,note_on,,119,0,9,,,,,,,,,,,,,,,,7,,60,0
27479,note_on,,119,0,15,,,,,,,,,,,,,,,,15,,60,0
27479,note_on,,119,0,13,,,,,,,,,,,,,,,,12,,60,0
27479,note_on,,119,0,14,,,,,,,,,,,,,,,,13,,60,0
27480,note_on,,1,0,9,,,,,,,,,,,,,,,,7,,58,72
27480,note_on,,1,0,15,,,,,,,,,,,,,,,,15,,58,64
27480,note_on,,1,0,13,,,,,,,,,,,,,,,,12,,58,72
27480,note_on,,1,0,14,,,,,,,,,,,,,,,,13,,58,72
27599,note_on,,119,0,13,,,,,,,,,,,,,,,,12,,58,0
27599,note_on,,239,0,11,,,,,,,,,,,,,,,,10,,68,0
27599,note_on,,239,0,7,,,,,,,,,,,,,,,,5,,68,0
27599,note_on,,119,0,9,,,,,,,,,,,,,,,,7,,58,0
27599,note_on,,239,0,5,,,,,,,,,,,,,,,,1,,68,0
27599,note_on,,119,0,15,,,,,,,,,,,,,,,,15,,68,0
27599,note_on,,119,0,14,,,,,,,,,,,,,,,,13,,58,0
27599,note_on,,0,0,15,,,,,,,,,,,,,,,,15,,58,0
27600,note_on,,1,0,15,,,,,,,,,,,,,,,,15,,56,64
27600,note_on,,1,0,14,,,,,,,,,,,,,,,,13,,56,72
27600,note_on,,1,0,9,,,,,,,,,,,,,,,,7,,56,72
27600,note_on,,1,0,5,,,,,,,,,,,,,,,,1,,70,72
27600,note_on,,1,0,13,,,,,,,,,,,,,,,,12,,56,72
27600,note_on,,0,0,15,,,,,,,,,,,,,,,,15,,70,64
27600,note_on,,1,0,7,,,,,,,,,,,,,,,,5,,70,72
27600,note_on,,1,0,11,,,,,,,,,,,,,,,,10,,70,72
27719,note_on,,119,0,13,,,,,,,,,,,,,,,,12,,56,0
27719,note_on,,119,0,15,,,,,,,,,,,,,,,,15,,56,0
27719,note_on,,119,0,9,,,,,,,,,,,,,,,,7,,56,0
27719,note_on,,119,0,14,,,,,,,,,,,,,,,,13,,56,0
27720,note_on,,1,0,13,,,,,,,,,,,,,,,,12,,55,72
27720,note_on,,1,0,14,,,,,,,,,,,,,,,,13,,55,72
27720,note_on,,1,0,15,,,,,,,,,,,,,,,,15,,55,64
27720,note_on,,1,0,9,,,,,,,,,,,,,,,,7,,55,72
27839,note_on,,119,0,9,,,,,,,,,,,,,,,,7,,55,0
27839,note_on,,239,0,11,,,,,,,,,,,,,,,,10,,70,0
27839,note_on,,119,0,13,,,,,,,,,,,,,,,,12,,55,0
27839,note_on,,119,0,14,,,,,,,,,,,,,,,,13,,55,0
27839,note_on,,239,0,5,,,,,,,,,,,,,,,,1,,70,0
27839,note_on,,119,0,15,,,,,,,,,,,,,,,,15,,63,0
27839,note_on,,0,0,15,,,,,,,,,,,,,,,,15,,70,0
27839,note_on,,0,0,15,,,,,,,,,,,,,,,,15,,55,0
27839,note_on,,239,0,7,,,,,,,,,,,,,,,,5,,70,0
27840,note_on,,1,0,14,,,,,,,,,,,,,,,,13,,56,72
27840,note_on,,1,0,9,,,,,,,,,,,,,,,,7,,56,72
27840,note_on,,0,0,15,,,,,,,,,,,,,,,,15,,72,64
27840,note_on,,0,0,15,,,,,,,,,,,,,,,,15,,60,64
27840,note_on,,1,0,7,,,,,,,,,,,,,,,,5,,72,72
27840,note_on,,1,0,15,,,,,,,,,,,,,,,,15,,56,64
27840,note_on,,1,0,11,,,,,,,,,,,,,,,,10,,72,72
27840,note_on,,1,0,13,,,,,,,,,,,,,,,,12,,56,72
27840,note_on,,1,0,5,,,,,,,,,,,,,,,,1,,72,72
27959,note_on,,119,0,7,,,,,,,,,,,,,,,,5,,72,0
27959,note_on,,0,0,15,,,,,,,,,,,,,,,,15,,60,0
27959,note_on,,119,0,15,,,,,,,,,,,,,,,,15,,56,0
27959,note_on,,119,0,11,,,,,,,,,,,,,,,,10,,72,0
27959,note_on,,119,0,14,,,,,,,,,,,,,,,,13,,56,0
27959,note_on,,119,0,5,,,,,,,,,,,,,,,,1,,72,0
27960,note_on,,601,0,10,,,,,,,,,,,,,,,,8,,53,72
27960,note_on,,1,0,14,,,,,,,,,,,,,,,,13,,53,72
27960,note_on,,601,0,6,,,,,,,,,,,,,,,,2,,53,72
27960,note_on,,0,0,15,,,,,,,,,,,,,,,,15,,68,64
27960,note_on,,1,0,15,,,,,,,,,,,,,,,,15,,53,64
27960,note_on,,1,0,5,,,,,,,,,,,,,,,,1,,68,72
27960,note_on,,1,0,11,,,,,,,,,,,,,,,,10,,68,72
27960,note_on,,1,0,7,,,,,,,,,,,,,,,,5,,68,72
28079,note_on,,119,0,14,,,,,,,,,,,,,,,,13,,53,0
28079,note_on,,119,0,7,,,,,,,,,,,,,,,,5,,68,0
28079,note_on,,119,0,15,,,,,,,,,,,,,,,,15,,72,0
28079,note_on,,239,0,13,,,,,,,,,,,,,,,,12,,56,0
28079,note_on,,0,0,15,,,,,,,,,,,,,,,,15,,53,0
28079,note_on,,0,0,15,,,,,,,,,,,,,,,,15,,68,0
28079,note_on,,119,0,6,,,,,,,,,,,,,,,,2,,53,0
28079,note_on,,119,0,10,,,,,,,,,,,,,,,,8,,53,0
28079,note_on,,239,0,9,,,,,,,,,,,,,,,,7,,56,0
28079,note_on,,119,0,5,,,,,,,,,,,,,,,,1,,68,0
28079,note_on,,119,0,11,,,,,,,,,,,,,,,,10,,68,0
28080,note_on,,1,0,10,,,,,,,,,,,,,,,,8,,58,72
28080,note_on,,1,0,6,,,,,,,,,,,,,,,,2,,58,72
28080,note_on,,1,0,14,,,,,,,,,,,,,,,,13,,58,72
28080,note_on,,1,0,5,,,,,,,,,,,,,,,,1,,73,72
28080,note_on,,1,0,15,,,,,,,,,,,,,,,,15,,58,64
28080,note_on,,1,0,11,,,,,,,,,,,,,,,,10,,73,72
28080,note_on,,1,0,7,,,,,,,,,,,,,,,,5,,73,72
28080,note_on,,1,0,13,,,,,,,,,,,,,,,,12,,65,72
28080,note_on,,1,0,9,,,,,,,,,,,,,,,,7,,65,72
28080,note_on,,0,0,15,,,,,,,,,,,,,,,,15,,61,64
28080,note_on,,0,0,15,,,,,,,,,,,,,,,,15,,65,64
28080,note_on,,0,0,15,,,,,,,,,,,,,,,,15,,70,64
28199,note_on,,119,0,14,,,,,,,,,,,,,,,,13,,58,0
28199,note_on,,119,0,6,,,,,,,,,,,,,,,,2,,58,0
28199,note_on,,119,0,15,,,,,,,,,,,,,,,,15,,58,0
28199,note_on,,119,0,10,,,,,,,,,,,,,,,,8,,58,0
28200,note_on,,1,0,6,,,,,,,,,,,,,,,,2,,56,72
28200,note_on,,1,0,10,,,,,,,,,,,,,,,,8,,56,72
28200,note_on,,1,0,14,,,,,,,,,,,,,,,,13,,56,72
28200,note_on,,1,0,15,,,,,,,,,,,,,,,,15,,56,64
28319,note_on,,119,0,10,,,,,,,,,,,,,,,,8,,56,0
28319,note_on,,0,0,15,,,,,,,,,,,,,,,,15,,61,0
28319,note_on,,119,0,14,,,,,,,,,,,,,,,,13,,56,0
28319,note_on,,119,0,15,,,,,,,,,,,,,,,,15,,65,0
28319,note_on,,0,0,15,,,,,,,,,,,,,,,,15,,56,0
28319,note_on,,239,0,13,,,,,,,,,,,,,,,,12,,65,0
28319,note_on,,239,0,9,,,,,,,,,,,,,,,,7,,65,0
28319,note_on,,119,0,6,,,,,,,,,,,,,,,,2,,56,0
28320,note_on,,1,0,10,,,,,,,,,,,,,,,,8,,55,72
28320,note_on,,1,0,13,,,,,,,,,,,,,,,,12,,63,72
28320,note_on,,1,0,9,,,,,,,,,,,,,,,,7,,63,72
28320,note_on,,1,0,15,,,,,,,,,,,,,,,,15,,55,64
28320,note_on,,0,0,15,,,,,,,,,,,,,,,,15,,63,64
28320,note_on,,1,0,14,,,,,,,,,,,,,,,,13,,55,72
28320,note_on,,1,0,6,,,,,,,,,,,,,,,,2,,55,72
28439,note_on,,359,0,5,,,,,,,,,,,,,,,,1,,73,0
28439,note_on,,359,0,7,,,,,,,,,,,,,,,,5,,73,0
28439,note_on,,0,0,15,,,,,,,,,,,,,,,,15,,63,0
28439,note_on,,119,0,15,,,,,,,,,,,,,,,,15,,55,0
28439,note_on,,119,0,14,,,,,,,,,,,,,,,,13,,55,0
28439,note_on,,119,0,6,,,,,,,,,,,,,,,,2,,55,0
28439,note_on,,359,0,11,,,,,,,,,,,,,,,,10,,73,0
28439,note_on,,119,0,10,,,,,,,,,,,,,,,,8,,55,0
28440,note_on,,1,0,5,,,,,,,,,,,,,,,,1,,75,72
28440,note_on,,0,0,15,,,,,,,,,,,,,,,,15,,67,64
28440,note_on,,1,0,7,,,,,,,,,,,,,,,,5,,75,72
28440,note_on,,1,0,6,,,,,,,,,,,,,,,,2,,51,72
28440,note_on,,1,0,10,,,,,,,,,,,,,,,,8,,51,72
28440,note_on,,1,0,14,,,,,,,,,,,,,,,,13,,51,72
28440,note_on,,1,0,11,,,,,,,,,,,,,,,,10,,75,72
28440,note_on,,1,0,15,,,,,,,,,,,,,,,,15,,51,64
28559,note_on,,0,0,15,,,,,,,,,,,,,,,,15,,67,0
28559,note_on,,119,0,6,,,,,,,,,,,,,,,,2,,51,0
28559,note_on,,119,0,7,,,,,,,,,,,,,,,,5,,75,0
28559,note_on,,119,0,11,,,,,,,,,,,,,,,,10,,75,0
28559,note_on,,119,0,15,,,,,,,,,,,,,,,,15,,70,0
28559,note_on,,119,0,5,,,,,,,,,,,,,,,,1,,75,0
28559,note_on,,119,0,10,,,,,,,,,,,,,,,,8,,51,0
28559,note_on,,0,0,15,,,,,,,,,,,,,,,,15,,51,0
28559,note_on,,119,0,14,,,,,,,,,,,,,,,,13,,51,0
28560,note_on,,0,0,15,,,,,,,,,,,,,,,,15,,68,64
28560,note_on,,1,0,15,,,,,,,,,,,,,,,,15,,56,64
28560,note_on,,1,0,7,,,,,,,,,,,,,,,,5,,72,72
28560,note_on,,0,0,15,,,,,,,,,,,,,,,,15,,63,64
28560,note_on,,1,0,10,,,,,,,,,,,,,,,,8,,56,72
28560,note_on,,1,0,11,,,,,,,,,,,,,,,,10,,72,72
28560,note_on,,1,0,6,,,,,,,,,,,,,,,,2,,56,72
28560,note_on,,0,0,15,,,,,,,,,,,,,,,,15,,60,64
28560,note_on,,1,0,14,,,,,,,,,,,,,,,,13,,56,72
28560,note_on,,1,0,5,,,,,,,,,,,,,,,,1,,72,72
28679,note_on,,119,0,7,,,,,,,,,,,,,,,,5,,72,0
28679,note_on,,119,0,5,,,,,,,,,,,,,,,,1,,72,0
28679,note_on,,119,0,11,,,,,,,,,,,,,,,,10,,72,0
28680,note_on,,1,0,5,,,,,,,,,,,,,,,,1,,73,72
28680,note_on,,1,0,11,,,,,,,,,,,,,,,,10,,73,72
28680,note_on,,1,0,7,,,,,,,,,,,,,,,,5,,73,72
28799,note_on,,119,0,5,,,,,,,,,,,,,,,,1,,73,0
28799,note_on,,0,0,15,,,,,,,,,,,,,,,,15,,63,0
28799,note_on,,0,0,15,,,,,,,,,,,,,,,,15,,60,0
28799,note_on,,239,0,6,,,,,,,,,,,,,,,,2,,56,0
28799,note_on,,479,0,9,,,,,,,,,,,,,,,,7,,63,0
28799,note_on,,239,0,10,,,,,,,,,,,,,,,,8,,56,0
28799,note_on,,119,0,7,,,,,,,,,,,,,,,,5,,73,0
28799,note_on,,479,0,13,,,,,,,,,,,,,,,,12,,63,0
28799,note_on,,239,0,15,,,,,,,,,,,,,,,,15,,56,0
28799,note_on,,119,0,11,,,,,,,,,,,,,,,,10,,73,0
28799,note_on,,0,0,15,,,,,,,,,,,,,,,,15,,68,0
28799,note_on,,239,0,14,,,,,,,,,,,,,,,,13,,56,0
28800,note_on,,0,0,15,,,,,,,,,,,,,,,,15,,56,64
28800,note_on,,0,0,15,,,,,,,,,,,,,,,,15,,61,64
28800,note_on,,1,0,10,,,,,,,,,,,,,,,,8,,49,72
28800,note_on,,1,0,11,,,,,,,,,,,,,,,,10,,70,72
28800,note_on,,1,0,9,,,,,,,,,,,,,,,,7,,53,72
28800,note_on,,1,0,5,,,,,,,,,,,,,,,,1,,70,72
28800,note_on,,0,0,15,,,,,,,,,,,,,,,,15,,65,64
28800,note_on,,1,0,15,,,,,,,,,,,,,,,,15,,49,64
28800,note_on,,1,0,7,,,,,,,,,,,,,,,,5,,70,72
28800,note_on,,1,0,14,,,,,,,,,,,,,,,,13,,49,72
28800,note_on,,1,0,13,,,,,,,,,,,,,,,,12,,53,72
28800,note_on,,1,0,6,,,,,,,,,,,,,,,,2,,49,72
28919,note_on,,119,0,9,,,,,,,,,,,,,,,,7,,53,0
28919,note_on,,119,0,14,,,,,,,,,,,,,,,,13,,49,0
28919,note_on,,119,0,6,,,,,,,,,,,,,,,,2,,49,0
28919,note_on,,119,0,15,,,,,,,,,,,,,,,,15,,49,0
28919,note_on,,119,0,10,,,,,,,,,,,,,,,,8,,49,0
28919,note_on,,119,0,13,,,,,,,,,,,,,,,,12,,53,0
28920,note_on,,1,0,6,,,,,,,,,,,,,,,,2,,51,72
28920,note_on,,1,0,9,,,,,,,,,,,,,,,,7,,55,72
28920,note_on,,1,0,13,,,,,,,,,,,,,,,,12,,55,72
28920,note_on,,1,0,15,,,,,,,,,,,,,,,,15,,51,64
28920,note_on,,1,0,10,,,,,,,,,,,,,,,,8,,51,72
28920,note_on,,1,0,14,,,,,,,,,,,,,,,,13,,51,72
29039,note_on,,239,0,11,,,,,,,,,,,,,,,,10,,70,0
29039,note_on,,119,0,15,,,,,,,,,,,,,,,,15,,65,0
29039,note_on,,0,0,15,,,,,,,,,,,,,,,,15,,61,0
29039,note_on,,0,0,15,,,,,,,,,,,,,,,,15,,51,0
29039,note_on,,239,0,7,,,,,,,,,,,,,,,,5,,70,0
29039,note_on,,119,0,10,,,,,,,,,,,,,,,,8,,51,0
29039,note_on,,119,0,14,,,,,,,,,,,,,,,,13,,51,0
29039,note_on,,119,0,6,,,,,,,,,,,,,,,,2,,51,0
29039,note_on,,119,0,9,,,,,,,,,,,,,,,,7,,55,0
29039,note_on,,239,0,5,,,,,,,,,,,,,,,,1,,70,0
29039,note_on,,119,0,13,,,,,,,,,,,,,,,,12,,55,0
29039,note_on,,0,0,15,,,,,,,,,,,,,,,,15,,56,0
29040,note_on,,1,0,9,,,,,,,,,,,,,,,,7,,56,72
29040,note_on,,1,0,7,,,,,,,,,,,,,,,,5,,68,72
29040,note_on,,1,0,13,,,,,,,,,,,,,,,,12,,56,72
29040,note_on,,1,0,15,,,,,,,,,,,,,,,,15,,53,64
29040,note_on,,1,0,5,,,,,,,,,,,,,,,,1,,68,72
29040,note_on,,0,0,15,,,,,,,,,,,,,,,,15,,61,64
29040,note_on,,1,0,11,,,,,,,,,,,,,,,,10,,68,72
29040,note_on,,1,0,10,,,,,,,,,,,,,,,,8,,53,72
29040,note_on,,1,0,6,,,,,,,,,,,,,,,,2,,53,72
29040,note_on,,1,0,14,,,,,,,,,,,,,,,,13,,53,72
29159,note_on,,119,0,15,,,,,,,,,,,,,,,,15,,53,0
29159,note_on,,119,0,14,,,,,,,,,,,,,,,,13,,53,0
29159,note_on,,119,0,10,,,,,,,,,,,,,,,,8,,53,0
29159,note_on,,119,0,6,,,,,,,,,,,,,,,,2,,53,0
29159,note_on,,119,0,11,,,,,,,,,,,,,,,,10,,68,0
29159,note_on,,119,0,7,,,,,,,,,,,,,,,,5,,68,0
29159,note_on,,119,0,5,,,,,,,,,,,,,,,,1,,68,0
29160,note_on,,1,0,6,,,,,,,,,,,,,,,,2,,49,72
29160,note_on,,1,0,10,,,,,,,,,,,,,,,,8,,49,72
29160,note_on,,1,0,14,,,,,,,,,,,,,,,,13,,49,72
29160,note_on,,0,0,15,,,,,,,,,,,,,,,,15,,65,64
29160,note_on,,1,0,15,,,,,,,,,,,,,,,,15,,49,64
29160,note_on,,1,0,11,,,,,,,,,,,,,,,,10,,73,72
29160,note_on,,1,0,5,,,,,,,,,,,,,,,,1,,73,72
29160,note_on,,1,0,7,,,,,,,,,,,,,,,,5,,73,72
29279,note_on,,119,0,15,,,,,,,,,,,,,,,,15,,61,0
29279,note_on,,0,0,15,,,,,,,,,,,,,,,,15,,65,0
29279,note_on,,0,0,15,,,,,,,,,,,,,,,,15,,49,0
29279,note_on,,119,0,7,,,,,,,,,,,,,,,,5,,73,0
29279,note_on,,119,0,14,,,,,,,,,,,,,,,,13,,49,0
29279,note_on,,119,0,10,,,,,,,,,,,,,,,,8,,49,0
29279,note_on,,119,0,6,,,,,,,,,,,,,,,,2,,49,0
29279,note_on,,119,0,11,,,,,,,,,,,,,,,,10,,73,0
29279,note_on,,119,0,5,,,,,,,,,,,,,,,,1,,73,0
29280,note_on,,1,0,5,,,,,,,,,,,,,,,,1,,70,72
29280,note_on,,1,0,10,,,,,,,,,,,,,,,,8,,51,72
29280,note_on,,1,0,11,,,,,,,,,,,,,,,,10,,70,72
29280,note_on,,1,0,14,,,,,,,,,,,,,,,,13,,51,72
29280,note_on,,0,0,15,,,,,,,,,,,,,,,,15,,63,64
29280,note_on,,1,0,15,,,,,,,,,,,,,,,,15,,51,64
29280,note_on,,1,0,7,,,,,,,,,,,,,,,,5,,70,72
29280,note_on,,1,0,6,,,,,,,,,,,,,,,,2,,51,72
29280,note_on,,0,0,15,,,,,,,,,,,,,,,,15,,58,64
29400,note_on,,3001,0,8,,,,,,,,,,,,,,,,6,,58,72
29400,note_on,,3001,0,12,,,,,,,,,,,,,,,,11,,70,72
29519,note_on,,239,0,15,,,,,,,,,,,,,,,,15,,63,0
29519,note_on,,0,0,15,,,,,,,,,,,,,,,,15,,58,0
29519,note_on,,119,0,12,,,,,,,,,,,,,,,,11,,70,0
29519,note_on,,479,0,13,,,,,,,,,,,,,,,,12,,56,0
29519,note_on,,479,0,9,,,,,,,,,,,,,,,,7,,56,0
29519,note_on,,119,0,8,,,,,,,,,,,,,,,,6,,58,0
29520,note_on,,1,0,15,,,,,,,,,,,,,,,,15,,63,64
29520,note_on,,0,0,15,,,,,,,,,,,,,,,,15,,67,64
29520,note_on,,1,0,8,,,,,,,,,,,,,,,,6,,63,72
29520,note_on,,0,0,15,,,,,,,,,,,,,,,,15,,58,64
29520,note_on,,1,0,12,,,,,,,,,,,,,,,,11,,75,72
29520,note_on,,1,0,9,,,,,,,,,,,,,,,,7,,55,72
29520,note_on,,1,0,13,,,,,,,,,,,,,,,,12,,55,72
29639,note_on,,119,0,8,,,,,,,,,,,,,,,,6,,63,0
29639,note_on,,119,0,12,,,,,,,,,,,,,,,,11,,75,0
29640,note_on,,1,0,12,,,,,,,,,,,,,,,,11,,73,72
29640,note_on,,1,0,8,,,,,,,,,,,,,,,,6,,61,72
29759,note_on,,0,0,15,,,,,,,,,,,,,,,,15,,58,0
29759,note_on,,0,0,15,,,,,,,,,,,,,,,,15,,67,0
29759,note_on,,239,0,13,,,,,,,,,,,,,,,,12,,55,0
29759,note_on,,479,0,7,,,,,,,,,,,,,,,,5,,70,0
29759,note_on,,479,0,10,,,,,,,,,,,,,,,,8,,51,0
29759,note_on,,119,0,8,,,,,,,,,,,,,,,,6,,61,0
29759,note_on,,119,0,12,,,,,,,,,,,,,,,,11,,73,0
29759,note_on,,479,0,6,,,,,,,,,,,,,,,,2,,51,0
29759,note_on,,239,0,15,,,,,,,,,,,,,,,,15,,51,0
29759,note_on,,479,0,11,,,,,,,,,,,,,,,,10,,70,0
29759,note_on,,239,0,9,,,,,,,,,,,,,,,,7,,55,0
29759,note_on,,0,0,15,,,,,,,,,,,,,,,,15,,63,0
29759,note_on,,479,0,14,,,,,,,,,,,,,,,,13,,51,0
29759,note_on,,479,0,5,,,,,,,,,,,,,,,,1,,70,0
29760,note_on,,1,0,6,,,,,,,,,,,,,,,,2,,44,72
29760,note_on,,1,0,14,,,,,,,,,,,,,,,,13,,44,72
29760,note_on,,1,0,12,,,,,,,,,,,,,,,,11,,72,72
29760,note_on,,1,0,5,,,,,,,,,,,,,,,,1,,68,72
29760,note_on,,1,0,8,,,,,,,,,,,,,,,,6,,60,72
29760,note_on,,0,0,15,,,,,,,,,,,,,,,,15,,68,64
29760,note_on,,1,0,7,,,,,,,,,,,,,,,,5,,68,72
29760,note_on,,1,0,10,,,,,,,,,,,,,,,,8,,44,72
29760,note_on,,1,0,13,,,,,,,,,,,,,,,,12,,56,72
29760,note_on,,1,0,15,,,,,,,,,,,,,,,,15,,44,64
29760,note_on,,0,0,15,,,,,,,,,,,,,,,,15,,60,64
29760,note_on,,1,0,9,,,,,,,,,,,,,,,,7,,56,72
29760,note_on,,1,0,11,,,,,,,,,,,,,,,,10,,68,72
29760,note_on,,0,0,15,,,,,,,,,,,,,,,,15,,63,64
29879,note_on,,119,0,8,,,,,,,,,,,,,,,,6,,60,0
29879,note_on,,119,0,12,,,,,,,,,,,,,,,,11,,72,0
29880,note_on,,1,0,8,,,,,,,,,,,,,,,,6,,58,72
29880,note_on,,1,0,12,,,,,,,,,,,,,,,,11,,70,72
29999,note_on,,239,0,15,,,,,,,,,,,,,,,,15,,68,0
29999,note_on,,239,0,11,,,,,,,,,,,,,,,,10,,68,0
29999,note_on,,119,0,8,,,,,,,,,,,,,,,,6,,58,0
29999,note_on,,239,0,7,,,,,,,,,,,,,,,,5,,68,0
29999,note_on,,0,0,15,,,,,,,,,,,,,,,,15,,63,0
29999,note_on,,0,0,15,,,,,,,,,,,,,,,,15,,60,0
29999,note_on,,119,0,12,,,,,,,,,,,,,,,,11,,70,0
29999,note_on,,239,0,5,,,,,,,,,,,,,,,,1,,68,0
30000,note_on,,1,0,12,,,,,,,,,,,,,,,,11,,68,72
30000,note_on,,1,0,11,,,,,,,,,,,,,,,,10,,72,72
30000,note_on,,0,0,15,,,,,,,,,,,,,,,,15,,72,64
30000,note_on,,1,0,8,,,,,,,,,,,,,,,,6,,56,72
30000,note_on,,1,0,15,,,,,,,,,,,,,,,,15,,56,64
30000,note_on,,1,0,5,,,,,,,,,,,,,,,,1,,72,72
30000,note_on,,1,0,7,,,,,,,,,,,,,,,,5,,72,72
30119,note_on,,119,0,15,,,,,,,,,,,,,,,,15,,56,0
30119,note_on,,119,0,8,,,,,,,,,,,,,,,,6,,56,0
30119,note_on,,119,0,12,,,,,,,,,,,,,,,,11,,68,0
30120,note_on,,1,0,15,,,,,,,,,,,,,,,,15,,55,64
30120,note_on,,1,0,12,,,,,,,,,,,,,,,,11,,67,72
30120,note_on,,1,0,8,,,,,,,,,,,,,,,,6,,55,72
30239,note_on,,479,0,6,,,,,,,,,,,,,,,,2,,44,0
30239,note_on,,119,0,15,,,,,,,,,,,,,,,,15,,44,0
30239,note_on,,0,0,15,,,,,,,,,,,,,,,,15,,72,0
30239,note_on,,0,0,15,,,,,,,,,,,,,,,,15,,55,0
30239,note_on,,119,0,12,,,,,,,,,,,,,,,,11,,67,0
30239,note_on,,479,0,10,,,,,,,,,,,,,,,,8,,44,0
30239,note_on,,239,0,11,,,,,,,,,,,,,,,,10,,72,0
30239,note_on,,479,0,13,,,,,,,,,,,,,,,,12,,56,0
30239,note_on,,479,0,9,,,,,,,,,,,,,,,,7,,56,0
30239,note_on,,239,0,7,,,,,,,,,,,,,,,,5,,72,0
30239,note_on,,119,0,8,,,,,,,,,,,,,,,,6,,55,0
30239,note_on,,479,0,14,,,,,,,,,,,,,,,,13,,44,0
30239,note_on,,239,0,5,,,,,,,,,,,,,,,,1,,72,0
30240,note_on,,1,0,14,,,,,,,,,,,,,,,,13,,53,72
30240,note_on,,1,0,7,,,,,,,,,,,,,,,,5,,68,72
30240,note_on,,1,0,8,,,,,,,,,,,,,,,,6,,53,72
30240,note_on,,1,0,11,,,,,,,,,,,,,,,,10,,68,72
30240,note_on,,1,0,15,,,,,,,,,,,,,,,,15,,53,64
30240,note_on,,1,0,12,,,,,,,,,,,,,,,,11,,65,72
30240,note_on,,0,0,15,,,,,,,,,,,,,,,,15,,68,64
30240,note_on,,1,0,5,,,,,,,,,,,,,,,,1,,68,72
30479,note_on,,239,0,7,,,,,,,,,,,,,,,,5,,68,0
30479,note_on,,239,0,5,,,,,,,,,,,,,,,,1,,68,0
30479,note_on,,239,0,15,,,,,,,,,,,,,,,,15,,53,0
30479,note_on,,239,0,11,,,,,,,,,,,,,,,,10,,68,0
30479,note_on,,239,0,8,,,,,,,,,,,,,,,,6,,53,0
30479,note_on,,239,0,12,,,,,,,,,,,,,,,,11,,65,0
30479,note_on,,239,0,14,,,,,,,,,,,,,,,,13,,53,0
30479,note_on,,0,0,15,,,,,,,,,,,,,,,,15,,68,0
30480,note_on,,0,0,15,,,,,,,,,,,,,,,,15,,73,64
30480,note_on,,1,0,11,,,,,,,,,,,,,,,,10,,73,72
30480,note_on,,1,0,14,,,,,,,,,,,,,,,,13,,58,72
30480,note_on,,1,0,15,,,,,,,,,,,,,,,,15,,58,64
30480,note_on,,1,0,5,,,,,,,,,,,,,,,,1,,73,72
30480,note_on,,1,0,12,,,,,,,,,,,,,,,,11,,58,72
30480,note_on,,1,0,8,,,,,,,,,,,,,,,,6,,58,72
30480,note_on,,1,0,7,,,,,,,,,,,,,,,,5,,73,72
30719,note_on,,239,0,8,,,,,,,,,,,,,,,,6,,58,0
30719,note_on,,239,0,11,,,,,,,,,,,,,,,,10,,73,0
30719,note_on,,239,0,12,,,,,,,,,,,,,,,,11,,58,0
30719,note_on,,239,0,14,,,,,,,,,,,,,,,,13,,58,0
30719,note_on,,239,0,5,,,,,,,,,,,,,,,,1,,73,0
30719,note_on,,239,0,7,,,,,,,,,,,,,,,,5,,73,0
30719,note_on,,0,0,15,,,,,,,,,,,,,,,,15,,73,0
30719,note_on,,239,0,15,,,,,,,,,,,,,,,,15,,58,0
30720,note_on,,1,0,12,,,,,,,,,,,,,,,,11,,55,72
30720,note_on,,1,0,5,,,,,,,,,,,,,,,,1,,64,72
30720,note_on,,1,0,14,,,,,,,,,,,,,,,,13,,55,72
30720,note_on,,1,0,11,,,,,,,,,,,,,,,,10,,64,72
30720,note_on,,0,0,15,,,,,,,,,,,,,,,,15,,64,64
30720,note_on,,1,0,15,,,,,,,,,,,,,,,,15,,55,64
30720,note_on,,1,0,7,,,,,,,,,,,,,,,,5,,64,72
30720,note_on,,1,0,8,,,,,,,,,,,,,,,,6,,55,72
30839,note_on,,119,0,14,,,,,,,,,,,,,,,,13,,55,0
30839,note_on,,119,0,15,,,,,,,,,,,,,,,,15,,55,0
30840,note_on,,1,0,15,,,,,,,,,,,,,,,,15,,55,64
30840,note_on,,601,0,13,,,,,,,,,,,,,,,,12,,55,72
30840,note_on,,1,0,14,,,,,,,,,,,,,,,,13,,55,72
30840,note_on,,601,0,9,,,,,,,,,,,,,,,,7,,55,72
30959,note_on,,239,0,12,,,,,,,,,,,,,,,,11,,55,0
30959,note_on,,119,0,15,,,,,,,,,,,,,,,,15,,55,0
30959,note_on,,119,0,14,,,,,,,,,,,,,,,,13,,55,0
30959,note_on,,119,0,9,,,,,,,,,,,,,,,,7,,55,0
30959,note_on,,119,0,13,,,,,,,,,,,,,,,,12,,55,0
30959,note_on,,239,0,8,,,,,,,,,,,,,,,,6,,55,0
30960,note_on,,1,0,14,,,,,,,,,,,,,,,,13,,60,72
30960,note_on,,1,0,15,,,,,,,,,,,,,,,,15,,60,64
30960,note_on,,1,0,9,,,,,,,,,,,,,,,,7,,60,72
30960,note_on,,1,0,13,,,,,,,,,,,,,,,,12,,60,72
31079,note_on,,119,0,9,,,,,,,,,,,,,,,,7,,60,0
31079,note_on,,119,0,14,,,,,,,,,,,,,,,,13,,60,0
31079,note_on,,119,0,13,,,,,,,,,,,,,,,,12,,60,0
31079,note_on,,119,0,15,,,,,,,,,,,,,,,,15,,60,0
31080,note_on,,1,0,13,,,,,,,,,,,,,,,,12,,58,72
31080,note_on,,1,0,15,,,,,,,,,,,,,,,,15,,58,64
31080,note_on,,1,0,14,,,,,,,,,,,,,,,,13,,58,72
31080,note_on,,1,0,9,,,,,,,,,,,,,,,,7,,58,72
31199,note_on,,119,0,13,,,,,,,,,,,,,,,,12,,58,0
31199,note_on,,119,0,9,,,,,,,,,,,,,,,,7,,58,0
31199,note_on,,119,0,14,,,,,,,,,,,,,,,,13,,58,0
31199,note_on,,479,0,11,,,,,,,,,,,,,,,,10,,64,0
31199,note_on,,119,0,15,,,,,,,,,,,,,,,,15,,64,0
31199,note_on,,0,0,15,,,,,,,,,,,,,,,,15,,58,0
31199,note_on,,479,0,7,,,,,,,,,,,,,,,,5,,64,0
31199,note_on,,479,0,5,,,,,,,,,,,,,,,,1,,64,0
31200,note_on,,1,0,13,,,,,,,,,,,,,,,,12,,56,72
31200,note_on,,0,0,15,,,,,,,,,,,,,,,,15,,65,64
31200,note_on,,1,0,5,,,,,,,,,,,,,,,,1,,65,72
31200,note_on,,1,0,15,,,,,,,,,,,,,,,,15,,56,64
31200,note_on,,1,0,9,,,,,,,,,,,,,,,,7,,56,72
31200,note_on,,1,0,11,,,,,,,,,,,,,,,,10,,65,72
31200,note_on,,1,0,7,,,,,,,,,,,,,,,,5,,65,72
31200,note_on,,1,0,14,,,,,,,,,,,,,,,,13,,56,72
31319,note_on,,119,0,14,,,,,,,,,,,,,,,,13,,56,0
31319,note_on,,119,0,9,,,,,,,,,,,,,,,,7,,56,0
31319,note_on,,119,0,13,,,,,,,,,,,,,,,,12,,56,0
31319,note_on,,119,0,15,,,,,,,,,,,,,,,,15,,56,0
31320,note_on,,1,0,14,,,,,,,,,,,,,,,,13,,61,72
31320,note_on,,1,0,15,,,,,,,,,,,,,,,,15,,61,64
31320,note_on,,1,0,13,,,,,,,,,,,,,,,,12,,61,72
31320,note_on,,1,0,9,,,,,,,,,,,,,,,,7,,61,72
31439,note_on,,239,0,11,,,,,,,,,,,,,,,,10,,65,0
31439,note_on,,119,0,13,,,,,,,,,,,,,,,,12,,61,0
31439,note_on,,119,0,14,,,,,,,,,,,,,,,,13,,61,0
31439,note_on,,239,0,7,,,,,,,,,,,,,,,,5,,65,0
31439,note_on,,239,0,5,,,,,,,,,,,,,,,,1,,65,0
31439,note_on,,119,0,15,,,,,,,,,,,,,,,,15,,65,0
31439,note_on,,0,0,15,,,,,,,,,,,,,,,,15,,61,0
31439,note_on,,119,0,9,,,,,,,,,,,,,,,,7,,61,0
31440,note_on,,1,0,15,,,,,,,,,,,,,,,,15,,60,64
31440,note_on,,1,0,14,,,,,,,,,,,,,,,,13,,60,72
31440,note_on,,1,0,7,,,,,,,,,,,,,,,,5,,67,72
31440,note_on,,1,0,13,,,,,,,,,,,,,,,,12,,60,72
31440,note_on,,1,0,5,,,,,,,,,,,,,,,,1,,67,72
31440,note_on,,1,0,9,,,,,,,,,,,,,,,,7,,60,72
31440,note_on,,0,0,15,,,,,,,,,,,,,,,,15,,67,64
31440,note_on,,1,0,11,,,,,,,,,,,,,,,,10,,67,72
31559,note_on,,119,0,15,,,,,,,,,,,,,,,,15,,60,0
31559,note_on,,119,0,9,,,,,,,,,,,,,,,,7,,60,0
31559,note_on,,119,0,13,,,,,,,,,,,,,,,,12,,60,0
31559,note_on,,119,0,14,,,,,,,,,,,,,,,,13,,60,0
31560,note_on,,1,0,13,,,,,,,,,,,,,,,,12,,58,72
31560,note_on,,1,0,15,,,,,,,,,,,,,,,,15,,58,64
31560,note_on,,1,0,9,,,,,,,,,,,,,,,,7,,58,72
31560,note_on,,1,0,14,,,,,,,,,,,,,,,,13,,58,72
31679,note_on,,119,0,14,,,,,,,,,,,,,,,,13,,58,0
31679,note_on,,119,0,9,,,,,,,,,,,,,,,,7,,58,0
31679,note_on,,239,0,7,,,,,,,,,,,,,,,,5,,67,0
31679,note_on,,239,0,11,,,,,,,,,,,,,,,,10,,67,0
31679,note_on,,119,0,15,,,,,,,,,,,,,,,,15,,67,0
31679,note_on,,0,0,15,,,,,,,,,,,,,,,,15,,58,0
31679,note_on,,239,0,5,,,,,,,,,,,,,,,,1,,67,0
31679,note_on,,119,0,13,,,,,,,,,,,,,,,,12,,58,0
31680,note_on,,1,0,5,,,,,,,,,,,,,,,,1,,68,72
31680,note_on,,1,0,13,,,,,,,,,,,,,,,,12,,60,72
31680,note_on,,1,0,9,,,,,,,,,,,,,,,,7,,60,72
31680,note_on,,1,0,14,,,,,,,,,,,,,,,,13,,60,72
31680,note_on,,1,0,11,,,,,,,,,,,,,,,,10,,68,72
31680,note_on,,1,0,15,,,,,,,,,,,,,,,,15,,60,64
31680,note_on,,0,0,15,,,,,,,,,,,,,,,,15,,68,64
31680,note_on,,1,0,7,,,,,,,,,,,,,,,,5,,68,72
31799,note_on,,119,0,14,,,,,,,,,,,,,,,,13,,60,0
31799,note_on,,119,0,9,,,,,,,,,,,,,,,,7,,60,0
31799,note_on,,119,0,13,,,,,,,,,,,,,,,,12,,60,0
31799,note_on,,119,0,15,,,,,,,,,,,,,,,,15,,60,0
31800,note_on,,1,0,9,,,,,,,,,,,,,,,,7,,65,72
31800,note_on,,1,0,13,,,,,,,,,,,,,,,,12,,65,72
31800,note_on,,1,0,15,,,,,,,,,,,,,,,,15,,65,64
31800,note_on,,1,0,14,,,,,,,,,,,,,,,,13,,65,72
31919,note_on,,0,0,15,,,,,,,,,,,,,,,,15,,65,0
31919,note_on,,119,0,9,,,,,,,,,,,,,,,,7,,65,0
31919,note_on,,119,0,14,,,,,,,,,,,,,,,,13,,65,0
31919,note_on,,119,0,13,,,,,,,,,,,,,,,,12,,65,0
31919,note_on,,119,0,15,,,,,,,,,,,,,,,,15,,68,0
31920,note_on,,0,0,15,,,,,,,,,,,,,,,,15,,60,64
31920,note_on,,0,0,15,,,,,,,,,,,,,,,,15,,68,64
31920,note_on,,0,0,15,,,,,,,,,,,,,,,,15,,72,64
31920,note_on,,1,0,15,,,,,,,,,,,,,,,,15,,53,64
31920,note_on,,1681,0,6,,,,,,,,,,,,,,,,2,,53,72
31920,note_on,,1,0,13,,,,,,,,,,,,,,,,12,,60,72
31920,note_on,,1,0,14,,,,,,,,,,,,,,,,13,,53,72
31920,note_on,,1681,0,10,,,,,,,,,,,,,,,,8,,53,72
31920,note_on,,1,0,9,,,,,,,,,,,,,,,,7,,60,72
32039,note_on,,119,0,13,,,,,,,,,,,,,,,,12,,60,0
32039,note_on,,119,0,9,,,,,,,,,,,,,,,,7,,60,0
32040,note_on,,1,0,9,,,,,,,,,,,,,,,,7,,62,72
32040,note_on,,1,0,13,,,,,,,,,,,,,,,,12,,62,72
32159,note_on,,479,0,5,,,,,,,,,,,,,,,,1,,68,0
32159,note_on,,239,0,6,,,,,,,,,,,,,,,,2,,53,0
32159,note_on,,239,0,10,,,,,,,,,,,,,,,,8,,53,0
32159,note_on,,479,0,7,,,,,,,,,,,,,,,,5,,68,0
32159,note_on,,239,0,15,,,,,,,,,,,,,,,,15,,53,0
32159,note_on,,0,0,15,,,,,,,,,,,,,,,,15,,68,0
32159,note_on,,239,0,14,,,,,,,,,,,,,,,,13,,53,0
32159,note_on,,119,0,9,,,,,,,,,,,,,,,,7,,62,0
32159,note_on,,479,0,11,,,,,,,,,,,,,,,,10,,68,0
32159,note_on,,119,0,13,,,,,,,,,,,,,,,,12,,62,0
32160,note_on,,1,0,5,,,,,,,,,,,,,,,,1,,67,72
32160,note_on,,0,0,15,,,,,,,,,,,,,,,,15,,67,64
32160,note_on,,1,0,15,,,,,,,,,,,,,,,,15,,51,64
32160,note_on,,1,0,7,,,,,,,,,,,,,,,,5,,67,72
32160,note_on,,1,0,14,,,,,,,,,,,,,,,,13,,51,72
32160,note_on,,1,0,6,,,,,,,,,,,,,,,,2,,51,72
32160,note_on,,1,0,11,,,,,,,,,,,,,,,,10,,67,72
32160,note_on,,1,0,9,,,,,,,,,,,,,,,,7,,63,72
32160,note_on,,1,0,10,,,,,,,,,,,,,,,,8,,51,72
32160,note_on,,1,0,13,,,,,,,,,,,,,,,,12,,63,72
32279,note_on,,119,0,9,,,,,,,,,,,,,,,,7,,63,0
32279,note_on,,119,0,13,,,,,,,,,,,,,,,,12,,63,0
32280,note_on,,1,0,9,,,,,,,,,,,,,,,,7,,62,72
32280,note_on,,1,0,13,,,,,,,,,,,,,,,,12,,62,72
32399,note_on,,0,0,15,,,,,,,,,,,,,,,,15,,67,0
32399,note_on,,239,0,15,,,,,,,,,,,,,,,,15,,72,0
32399,note_on,,119,0,13,,,,,,,,,,,,,,,,12,,62,0
32399,note_on,,0,0,15,,,,,,,,,,,,,,,,15,,51,0
32399,note_on,,239,0,14,,,,,,,,,,,,,,,,13,,51,0
32399,note_on,,0,0,15,,,,,,,,,,,,,,,,15,,60,0
32399,note_on,,119,0,9,,,,,,,,,,,,,,,,7,,62,0
32399,note_on,,239,0,6,,,,,,,,,,,,,,,,2,,51,0
32399,note_on,,239,0,10,,,,,,,,,,,,,,,,8,,51,0
32400,note_on,,1,0,10,,,,,,,,,,,,,,,,8,,56,72
32400,note_on,,1,0,14,,,,,,,,,,,,,,,,13,,56,72
32400,note_on,,1,0,6,,,,,,,,,,,,,,,,2,,56,72
32400,note_on,,1,0,15,,,,,,,,,,,,,,,,15,,56,64
32400,note_on,,0,0,15,,,,,,,,,,,,,,,,15,,60,64
32400,note_on,,1,0,9,,,,,,,,,,,,,,,,7,,60,72
32400,note_on,,1,0,13,,,,,,,,,,,,,,,,12,,60,72
32519,note_on,,359,0,7,,,,,,,,,,,,,,,,5,,67,0
32519,note_on,,359,0,5,,,,,,,,,,,,,,,,1,,67,0
32519,note_on,,359,0,11,,,,,,,,,,,,,,,,10,,67,0
32520,note_on,,1,0,5,,,,,,,,,,,,,,,,1,,65,72
32520,note_on,,1,0,7,,,,,,,,,,,,,,,,5,,65,72
32520,note_on,,120,0,15,,,,,,,,,,,,,,,,15,,65,64
32520,note_on,,1,0,11,,,,,,,,,,,,,,,,10,,65,72
32639,note_on,,0,0,15,,,,,,,,,,,,,,,,15,,60,0
32639,note_on,,0,0,15,,,,,,,,,,,,,,,,15,,65,0
32639,note_on,,119,0,15,,,,,,,,,,,,,,,,15,,56,0
32639,note_on,,239,0,14,,,,,,,,,,,,,,,,13,,56,0
32639,note_on,,239,0,10,,,,,,,,,,,,,,,,8,,56,0
32639,note_on,,239,0,6,,,,,,,,,,,,,,,,2,,56,0
32639,note_on,,239,0,13,,,,,,,,,,,,,,,,12,,60,0
32639,note_on,,119,0,7,,,,,,,,,,,,,,,,5,,65,0
32639,note_on,,119,0,5,,,,,,,,,,,,,,,,1,,65,0
32639,note_on,,119,0,11,,,,,,,,,,,,,,,,10,,65,0
32639,note_on,,239,0,9,,,,,,,,,,,,,,,,7,,60,0
32640,note_on,,1,0,10,,,,,,,,,,,,,,,,8,,47,72
32640,note_on,,1,0,5,,,,,,,,,,,,,,,,1,,67,72
32640,note_on,,1,0,7,,,,,,,,,,,,,,,,5,,67,72
32640,note_on,,1,0,13,,,,,,,,,,,,,,,,12,,62,72
32640,note_on,,0,0,15,,,,,,,,,,,,,,,,15,,67,64
32640,note_on,,0,0,15,,,,,,,,,,,,,,,,15,,61,64
32640,note_on,,1,0,11,,,,,,,,,,,,,,,,10,,67,72
32640,note_on,,1,0,15,,,,,,,,,,,,,,,,15,,47,64
32640,note_on,,1,0,9,,,,,,,,,,,,,,,,7,,62,72
32640,note_on,,1,0,14,,,,,,,,,,,,,,,,13,,47,72
32640,note_on,,1,0,6,,,,,,,,,,,,,,,,2,,47,72
32640,note_on,,0,0,15,,,,,,,,,,,,,,,,15,,55,64
32760,note_on,,1801,0,12,,,,,,,,,,,,,,,,11,,62,72
32760,note_on,,1801,0,8,,,,,,,,,,,,,,,,6,,62,72
32879,note_on,,119,0,12,,,,,,,,,,,,,,,,11,,62,0
32879,note_on,,119,0,8,,,,,,,,,,,,,,,,6,,62,0
32880,note_on,,1,0,12,,,,,,,,,,,,,,,,11,,67,72
32880,note_on,,1,0,8,,,,,,,,,,,,,,,,6,,67,72
32999,note_on,,119,0,12,,,,,,,,,,,,,,,,11,,67,0
32999,note_on,,119,0,8,,,,,,,,,,,,,,,,6,,67,0
33000,note_on,,1,0,8,,,,,,,,,,,,,,,,6,,65,72
33000,note_on,,1,0,12,,,,,,,,,,,,,,,,11,,65,72
33119,note_on,,479,0,14,,,,,,,,,,,,,,,,13,,47,0
33119,note_on,,119,0,12,,,,,,,,,,,,,,,,11,,65,0
33119,note_on,,119,0,8,,,,,,,,,,,,,,,,6,,65,0
33119,note_on,,479,0,6,,,,,,,,,,,,,,,,2,,47,0
33119,note_on,,479,0,7,,,,,,,,,,,,,,,,5,,67,0
33119,note_on,,479,0,10,,,,,,,,,,,,,,,,8,,47,0
33119,note_on,,0,0,15,,,,,,,,,,,,,,,,15,,61,0
33119,note_on,,0,0,15,,,,,,,,,,,,,,,,15,,55,0
33119,note_on,,0,0,15,,,,,,,,,,,,,,,,15,,67,0
33119,note_on,,479,0,11,,,,,,,,,,,,,,,,10,,67,0
33119,note_on,,479,0,9,,,,,,,,,,,,,,,,7,,62,0
33119,note_on,,479,0,13,,,,,,,,,,,,,,,,12,,62,0
33119,note_on,,479,0,5,,,,,,,,,,,,,,,,1,,67,0
33119,note_on,,479,0,15,,,,,,,,,,,,,,,,15,,47,0
33120,note_on,,1,0,12,,,,,,,,,,,,,,,,11,,63,72
33120,note_on,,1,0,8,,,,,,,,,,,,,,,,6,,63,72
33120,note_on,,1,0,13,,,,,,,,,,,,,,,,12,,60,72
33120,note_on,,1,0,9,,,,,,,,,,,,,,,,7,,60,72
33120,note_on,,1,0,14,,,,,,,,,,,,,,,,13,,48,72
33120,note_on,,0,0,15,,,,,,,,,,,,,,,,15,,72,64
33120,note_on,,1,0,15,,,,,,,,,,,,,,,,15,,48,64
33120,note_on,,1,0,6,,,,,,,,,,,,,,,,2,,48,72
33120,note_on,,1,0,10,,,,,,,,,,,,,,,,8,,48,72
33120,note_on,,0,0,15,,,,,,,,,,,,,,,,15,,63,64
33120,note_on,,0,0,15,,,,,,,,,,,,,,,,15,,55,64
33239,note_on,,119,0,12,,,,,,,,,,,,,,,,11,,63,0
33239,note_on,,119,0,8,,,,,,,,,,,,,,,,6,,63,0
33240,note_on,,1,0,8,,,,,,,,,,,,,,,,6,,68,72
33240,note_on,,1,0,12,,,,,,,,,,,,,,,,11,,68,72
33359,note_on,,239,0,15,,,,,,,,,,,,,,,,15,,48,0
33359,note_on,,0,0,15,,,,,,,,,,,,,,,,15,,72,0
33359,note_on,,239,0,13,,,,,,,,,,,,,,,,12,,60,0
33359,note_on,,0,0,15,,,,,,,,,,,,,,,,15,,63,0
33359,note_on,,119,0,8,,,,,,,,,,,,,,,,6,,68,0
33359,note_on,,0,0,15,,,,,,,,,,,,,,,,15,,55,0
33359,note_on,,239,0,10,,,,,,,,,,,,,,,,8,,48,0
33359,note_on,,119,0,12,,,,,,,,,,,,,,,,11,,68,0
33359,note_on,,239,0,9,,,,,,,,,,,,,,,,7,,60,0
33359,note_on,,239,0,6,,,,,,,,,,,,,,,,2,,48,0
33359,note_on,,239,0,14,,,,,,,,,,,,,,,,13,,48,0
33360,note_on,,1,0,14,,,,,,,,,,,,,,,,13,,50,72
33360,note_on,,1,0,8,,,,,,,,,,,,,,,,6,,67,72
33360,note_on,,1,0,10,,,,,,,,,,,,,,,,8,,50,72
33360,note_on,,1,0,12,,,,,,,,,,,,,,,,11,,67,72
33360,note_on,,0,0,15,,,,,,,,,,,,,,,,15,,71,64
33360,note_on,,0,0,15,,,,,,,,,,,,,,,,15,,65,64
33360,note_on,,0,0,15,,,,,,,,,,,,,,,,15,,53,64
33360,note_on,,1,0,9,,,,,,,,,,,,,,,,7,,59,72
33360,note_on,,1,0,15,,,,,,,,,,,,,,,,15,,50,64
33360,note_on,,1,0,13,,,,,,,,,,,,,,,,12,,59,72
33360,note_on,,1,0,6,,,,,,,,,,,,,,,,2,,50,72
33479,note_on,,119,0,8,,,,,,,,,,,,,,,,6,,67,0
33479,note_on,,119,0,12,,,,,,,,,,,,,,,,11,,67,0
33480,note_on,,1,0,8,,,,,,,,,,,,,,,,6,,65,72
33480,note_on,,1,0,12,,,,,,,,,,,,,,,,11,,65,72
33599,note_on,,239,0,15,,,,,,,,,,,,,,,,15,,50,0
33599,note_on,,239,0,14,,,,,,,,,,,,,,,,13,,50,0
33599,note_on,,0,0,15,,,,,,,,,,,,,,,,15,,53,0
33599,note_on,,239,0,6,,,,,,,,,,,,,,,,2,,50,0
33599,note_on,,239,0,10,,,,,,,,,,,,,,,,8,,50,0
33599,note_on,,119,0,8,,,,,,,,,,,,,,,,6,,65,0
33599,note_on,,239,0,9,,,,,,,,,,,,,,,,7,,59,0
33599,note_on,,119,0,12,,,,,,,,,,,,,,,,11,,65,0
33599,note_on,,0,0,15,,,,,,,,,,,,,,,,15,,65,0
33599,note_on,,0,0,15,,,,,,,,,,,,,,,,15,,71,0
33599,note_on,,239,0,13,,,,,,,,,,,,,,,,12,,59,0
33600,note_on,,1,0,13,,,,,,,,,,,,,,,,12,,60,72
33600,note_on,,1,0,14,,,,,,,,,,,,,,,,13,,51,72
33600,note_on,,1,0,12,,,,,,,,,,,,,,,,11,,63,72
33600,note_on,,1,0,15,,,,,,,,,,,,,,,,15,,51,64
33600,note_on,,1,0,10,,,,,,,,,,,,,,,,8,,51,72
33600,note_on,,0,0,15,,,,,,,,,,,,,,,,15,,60,64
33600,note_on,,0,0,15,,,,,,,,,,,,,,,,15,,67,64
33600,note_on,,1,0,8,,,,,,,,,,,,,,,,6,,63,72
33600,note_on,,0,0,15,,,,,,,,,,,,,,,,15,,72,64
33600,note_on,,1,0,9,,,,,,,,,,,,,,,,7,,60,72
33600,note_on,,1,0,6,,,,,,,,,,,,,,,,2,,51,72
33719,note_on,,119,0,8,,,,,,,,,,,,,,,,6,,63,0
33719,note_on,,119,0,12,,,,,,,,,,,,,,,,11,,63,0
33720,note_on,,1,0,8,,,,,,,,,,,,,,,,6,,72,72
33720,note_on,,1,0,12,,,,,,,,,,,,,,,,11,,72,72
33839,note_on,,0,0,15,,,,,,,,,,,,,,,,15,,60,0
33839,note_on,,239,0,15,,,,,,,,,,,,,,,,15,,72,0
33839,note_on,,119,0,12,,,,,,,,,,,,,,,,11,,72,0
33839,note_on,,119,0,8,,,,,,,,,,,,,,,,6,,72,0
33839,note_on,,0,0,15,,,,,,,,,,,,,,,,15,,67,0
33840,note_on,,1,0,12,,,,,,,,,,,,,,,,11,,67,72
33840,note_on,,0,0,15,,,,,,,,,,,,,,,,15,,72,64
33840,note_on,,0,0,15,,,,,,,,,,,,,,,,15,,67,64
33840,note_on,,1,0,15,,,,,,,,,,,,,,,,15,,75,64
33840,note_on,,1,0,8,,,,,,,,,,,,,,,,6,,67,72
33959,note_on,,119,0,8,,,,,,,,,,,,,,,,6,,67,0
33959,note_on,,359,0,6,,,,,,,,,,,,,,,,2,,51,0
33959,note_on,,359,0,14,,,,,,,,,,,,,,,,13,,51,0
33959,note_on,,359,0,10,,,,,,,,,,,,,,,,8,,51,0
33959,note_on,,119,0,12,,,,,,,,,,,,,,,,11,,67,0
33959,note_on,,119,0,15,,,,,,,,,,,,,,,,15,,51,0
33960,note_on,,1,0,14,,,,,,,,,,,,,,,,13,,53,72
33960,note_on,,1,0,12,,,,,,,,,,,,,,,,11,,68,72
33960,note_on,,1,0,15,,,,,,,,,,,,,,,,15,,53,64
33960,note_on,,1,0,8,,,,,,,,,,,,,,,,6,,68,72
33960,note_on,,1,0,6,,,,,,,,,,,,,,,,2,,53,72
33960,note_on,,1,0,10,,,,,,,,,,,,,,,,8,,53,72
34079,note_on,,0,0,15,,,,,,,,,,,,,,,,15,,72,0
34079,note_on,,119,0,15,,,,,,,,,,,,,,,,15,,75,0
34079,note_on,,119,0,14,,,,,,,,,,,,,,,,13,,53,0
34079,note_on,,479,0,9,,,,,,,,,,,,,,,,7,,60,0
34079,note_on,,479,0,13,,,,,,,,,,,,,,,,12,,60,0
34079,note_on,,119,0,12,,,,,,,,,,,,,,,,11,,68,0
34079,note_on,,0,0,15,,,,,,,,,,,,,,,,15,,53,0
34079,note_on,,0,0,15,,,,,,,,,,,,,,,,15,,67,0
34079,note_on,,119,0,8,,,,,,,,,,,,,,,,6,,68,0
34079,note_on,,119,0,10,,,,,,,,,,,,,,,,8,,53,0
34079,note_on,,119,0,6,,,,,,,,,,,,,,,,2,,53,0
34080,note_on,,1,0,15,,,,,,,,,,,,,,,,15,,55,64
34080,note_on,,1,0,8,,,,,,,,,,,,,,,,6,,70,72
34080,note_on,,1,0,10,,,,,,,,,,,,,,,,8,,55,72
34080,note_on,,1,0,14,,,,,,,,,,,,,,,,13,,55,72
34080,note_on,,0,0,15,,,,,,,,,,,,,,,,15,,73,64
34080,note_on,,1,0,12,,,,,,,,,,,,,,,,11,,70,72
34080,note_on,,0,0,15,,,,,,,,,,,,,,,,15,,70,64
34080,note_on,,0,0,15,,,,,,,,,,,,,,,,15,,67,64
34080,note_on,,1,0,6,,,,,,,,,,,,,,,,2,,55,72
34199,note_on,,119,0,10,,,,,,,,,,,,,,,,8,,55,0
34199,note_on,,119,0,6,,,,,,,,,,,,,,,,2,,55,0
34199,note_on,,119,0,15,,,,,,,,,,,,,,,,15,,55,0
34199,note_on,,119,0,14,,,,,,,,,,,,,,,,13,,55,0
34200,note_on,,1,0,15,,,,,,,,,,,,,,,,15,,53,64
34200,note_on,,1,0,6,,,,,,,,,,,,,,,,2,,53,72
34200,note_on,,1,0,14,,,,,,,,,,,,,,,,13,,53,72
34200,note_on,,1,0,10,,,,,,,,,,,,,,,,8,,53,72
34319,note_on,,119,0,10,,,,,,,,,,,,,,,,8,,53,0
34319,note_on,,119,0,6,,,,,,,,,,,,,,,,2,,53,0
34319,note_on,,119,0,15,,,,,,,,,,,,,,,,15,,53,0
34319,note_on,,119,0,14,,,,,,,,,,,,,,,,13,,53,0
34320,note_on,,1,0,6,,,,,,,,,,,,,,,,2,,50,72
34320,note_on,,1,0,15,,,,,,,,,,,,,,,,15,,50,64
34320,note_on,,1,0,14,,,,,,,,,,,,,,,,13,,50,72
34320,note_on,,1,0,10,,,,,,,,,,,,,,,,8,,50,72
34439,note_on,,119,0,15,,,,,,,,,,,,,,,,15,,50,0
34439,note_on,,119,0,6,,,,,,,,,,,,,,,,2,,50,0
34439,note_on,,359,0,12,,,,,,,,,,,,,,,,11,,70,0
34439,note_on,,119,0,14,,,,,,,,,,,,,,,,13,,50,0
34439,note_on,,359,0,8,,,,,,,,,,,,,,,,6,,70,0
34439,note_on,,119,0,10,,,,,,,,,,,,,,,,8,,50,0
34440,note_on,,1,0,12,,,,,,,,,,,,,,,,11,,68,72
34440,note_on,,1,0,15,,,,,,,,,,,,,,,,15,,51,64
34440,note_on,,1,0,6,,,,,,,,,,,,,,,,2,,51,72
34440,note_on,,1,0,10,,,,,,,,,,,,,,,,8,,52,72
34440,note_on,,1,0,8,,,,,,,,,,,,,,,,6,,68,72
34440,note_on,,1,0,14,,,,,,,,,,,,,,,,13,,51,72
34499,note_on,,59,0,8,,,,,,,,,,,,,,,,6,,68,0
34499,note_on,,59,0,12,,,,,,,,,,,,,,,,11,,68,0
34500,note_on,,1,0,8,,,,,,,,,,,,,,,,6,,67,72
34500,note_on,,1,0,12,,,,,,,,,,,,,,,,11,,67,72
34559,note_on,,119,0,14,,,,,,,,,,,,,,,,13,,51,0
34559,note_on,,0,0,15,,,,,,,,,,,,,,,,15,,70,0
34559,note_on,,59,0,8,,,,,,,,,,,,,,,,6,,67,0
34559,note_on,,119,0,10,,,,,,,,,,,,,,,,8,,52,0
34559,note_on,,119,0,6,,,,,,,,,,,,,,,,2,,51,0
34559,note_on,,59,0,12,,,,,,,,,,,,,,,,11,,67,0
34559,note_on,,0,0,15,,,,,,,,,,,,,,,,15,,51,0
34559,note_on,,0,0,15,,,,,,,,,,,,,,,,15,,67,0
34559,note_on,,119,0,15,,,,,,,,,,,,,,,,15,,73,0
34560,note_on,,1,0,6,,,,,,,,,,,,,,,,2,,53,72
34560,note_on,,1,0,8,,,,,,,,,,,,,,,,6,,68,72
34560,note_on,,0,0,15,,,,,,,,,,,,,,,,15,,72,64
34560,note_on,,0,0,15,,,,,,,,,,,,,,,,15,,68,64
34560,note_on,,0,0,15,,,,,,,,,,,,,,,,15,,60,64
34560,note_on,,1,0,14,,,,,,,,,,,,,,,,13,,53,72
34560,note_on,,1,0,12,,,,,,,,,,,,,,,,11,,68,72
34560,note_on,,1,0,15,,,,,,,,,,,,,,,,15,,53,64
34560,note_on,,1,0,10,,,,,,,,,,,,,,,,8,,53,72
34680,note_on,,601,0,13,,,,,,,,,,,,,,,,12,,65,72
34680,note_on,,601,0,9,,,,,,,,,,,,,,,,7,,65,72
34799,note_on,,119,0,13,,,,,,,,,,,,,,,,12,,65,0
34799,note_on,,119,0,9,,,,,,,,,,,,,,,,7,,65,0
34800,note_on,,1,0,13,,,,,,,,,,,,,,,,12,,60,72
34800,note_on,,1,0,9,,,,,,,,,,,,,,,,7,,60,72
34919,note_on,,119,0,13,,,,,,,,,,,,,,,,12,,60,0
34919,note_on,,119,0,9,,,,,,,,,,,,,,,,7,,60,0
34920,note_on,,1,0,9,,,,,,,,,,,,,,,,7,,62,72
34920,note_on,,1,0,13,,,,,,,,,,,,,,,,12,,62,72
35039,note_on,,119,0,13,,,,,,,,,,,,,,,,12,,62,0
35039,note_on,,0,0,15,,,,,,,,,,,,,,,,15,,68,0
35039,note_on,,119,0,9,,,,,,,,,,,,,,,,7,,62,0
35039,note_on,,479,0,15,,,,,,,,,,,,,,,,15,,72,0
35039,note_on,,479,0,8,,,,,,,,,,,,,,,,6,,68,0
35039,note_on,,479,0,12,,,,,,,,,,,,,,,,11,,68,0
35039,note_on,,0,0,15,,,,,,,,,,,,,,,,15,,60,0
35040,note_on,,1,0,8,,,,,,,,,,,,,,,,6,,69,72
35040,note_on,,0,0,15,,,,,,,,,,,,,,,,15,,69,64
35040,note_on,,0,0,15,,,,,,,,,,,,,,,,15,,65,64
35040,note_on,,1,0,13,,,,,,,,,,,,,,,,12,,63,72
35040,note_on,,1,0,15,,,,,,,,,,,,,,,,15,,72,64
35040,note_on,,0,0,15,,,,,,,,,,,,,,,,15,,60,64
35040,note_on,,1,0,9,,,,,,,,,,,,,,,,7,,63,72
35040,note_on,,1,0,12,,,,,,,,,,,,,,,,11,,69,72
35399,note_on,,359,0,9,,,,,,,,,,,,,,,,7,,63,0
35399,note_on,,359,0,13,,,,,,,,,,,,,,,,12,,63,0
35400,note_on,,1,0,9,,,,,,,,,,,,,,,,7,,61,72
35400,note_on,,1,0,13,,,,,,,,,,,,,,,,12,,61,72
35459,note_on,,59,0,13,,,,,,,,,,,,,,,,12,,61,0
35459,note_on,,59,0,9,,,,,,,,,,,,,,,,7,,61,0
35460,note_on,,1,0,13,,,,,,,,,,,,,,,,12,,60,72
35460,note_on,,1,0,9,,,,,,,,,,,,,,,,7,,60,72
35519,note_on,,479,0,12,,,,,,,,,,,,,,,,11,,69,0
35519,note_on,,0,0,15,,,,,,,,,,,,,,,,15,,60,0
35519,note_on,,0,0,15,,,,,,,,,,,,,,,,15,,65,0
35519,note_on,,0,0,15,,,,,,,,,,,,,,,,15,,69,0
35519,note_on,,959,0,10,,,,,,,,,,,,,,,,8,,53,0
35519,note_on,,479,0,15,,,,,,,,,,,,,,,,15,,53,0
35519,note_on,,479,0,8,,,,,,,,,,,,,,,,6,,69,0
35519,note_on,,959,0,6,,,,,,,,,,,,,,,,2,,53,0
35519,note_on,,59,0,9,,,,,,,,,,,,,,,,7,,60,0
35519,note_on,,59,0,13,,,,,,,,,,,,,,,,12,,60,0
35519,note_on,,959,0,14,,,,,,,,,,,,,,,,13,,53,0
35519,note_on,,0,0,15,,,,,,,,,,,,,,,,15,,72,0
35520,note_on,,1,0,12,,,,,,,,,,,,,,,,11,,70,72
35520,note_on,,1,0,13,,,,,,,,,,,,,,,,12,,61,72
35520,note_on,,1,0,14,,,,,,,,,,,,,,,,13,,46,72
35520,note_on,,1,0,6,,,,,,,,,,,,,,,,2,,46,72
35520,note_on,,0,0,15,,,,,,,,,,,,,,,,15,,70,64
35520,note_on,,0,0,15,,,,,,,,,,,,,,,,15,,65,64
35520,note_on,,1,0,8,,,,,,,,,,,,,,,,6,,70,72
35520,note_on,,1,0,15,,,,,,,,,,,,,,,,15,,46,64
35520,note_on,,0,0,15,,,,,,,,,,,,,,,,15,,61,64
35520,note_on,,1,0,9,,,,,,,,,,,,,,,,7,,61,72
35520,note_on,,1,0,10,,,,,,,,,,,,,,,,8,,46,72
35639,note_on,,119,0,8,,,,,,,,,,,,,,,,6,,70,0
35639,note_on,,119,0,12,,,,,,,,,,,,,,,,11,,70,0
35640,note_on,,1,0,8,,,,,,,,,,,,,,,,6,,70,72
35640,note_on,,1,0,12,,,,,,,,,,,,,,,,11,,70,72
35759,note_on,,119,0,8,,,,,,,,,,,,,,,,6,,70,0
35759,note_on,,119,0,12,,,,,,,,,,,,,,,,11,,70,0
35760,note_on,,1,0,12,,,,,,,,,,,,,,,,11,,65,72
35760,note_on,,1,0,8,,,,,,,,,,,,,,,,6,,65,72
35879,note_on,,119,0,8,,,,,,,,,,,,,,,,6,,65,0
35879,note_on,,119,0,12,,,,,,,,,,,,,,,,11,,65,0
35880,note_on,,1,0,8,,,,,,,,,,,,,,,,6,,67,72
35880,note_on,,1,0,12,,,,,,,,,,,,,,,,11,,67,72
35999,note_on,,479,0,9,,,,,,,,,,,,,,,,7,,61,0
35999,note_on,,479,0,13,,,,,,,,,,,,,,,,12,,61,0
35999,note_on,,119,0,8,,,,,,,,,,,,,,,,6,,67,0
35999,note_on,,0,0,15,,,,,,,,,,,,,,,,15,,61,0
35999,note_on,,119,0,12,,,,,,,,,,,,,,,,11,,67,0
35999,note_on,,0,0,15,,,,,,,,,,,,,,,,15,,65,0
35999,note_on,,479,0,15,,,,,,,,,,,,,,,,15,,70,0
36000,note_on,,1,0,8,,,,,,,,,,,,,,,,6,,68,72
36000,note_on,,1,0,9,,,,,,,,,,,,,,,,7,,62,72
36000,note_on,,1,0,12,,,,,,,,,,,,,,,,11,,68,72
36000,note_on,,0,0,15,,,,,,,,,,,,,,,,15,,62,64
36000,note_on,,0,0,15,,,,,,,,,,,,,,,,15,,65,64
36000,note_on,,0,0,15,,,,,,,,,,,,,,,,15,,70,64
36000,note_on,,1,0,13,,,,,,,,,,,,,,,,12,,62,72
36000,note_on,,1,0,15,,,,,,,,,,,,,,,,15,,58,64
36239,note_on,,719,0,10,,,,,,,,,,,,,,,,8,,46,0
36239,note_on,,719,0,14,,,,,,,,,,,,,,,,13,,46,0
36239,note_on,,719,0,6,,,,,,,,,,,,,,,,2,,46,0
36239,note_on,,239,0,15,,,,,,,,,,,,,,,,15,,46,0
36240,note_on,,1,0,15,,,,,,,,,,,,,,,,15,,46,64
36240,note_on,,1,0,10,,,,,,,,,,,,,,,,8,,46,72
36240,note_on,,1,0,14,,,,,,,,,,,,,,,,13,,46,72
36240,note_on,,1,0,6,,,,,,,,,,,,,,,,2,,46,72
36359,note_on,,359,0,8,,,,,,,,,,,,,,,,6,,68,0
36359,note_on,,359,0,12,,,,,,,,,,,,,,,,11,,68,0
36360,note_on,,1,0,12,,,,,,,,,,,,,,,,11,,67,72
36360,note_on,,1,0,8,,,,,,,,,,,,,,,,6,,67,72
36419,note_on,,59,0,12,,,,,,,,,,,,,,,,11,,67,0
36419,note_on,,59,0,8,,,,,,,,,,,,,,,,6,,67,0
36420,note_on,,1,0,12,,,,,,,,,,,,,,,,11,,65,72
36420,note_on,,1,0,8,,,,,,,,,,,,,,,,6,,65,72
36479,note_on,,239,0,6,,,,,,,,,,,,,,,,2,,46,0
36479,note_on,,239,0,10,,,,,,,,,,,,,,,,8,,46,0
36479,note_on,,239,0,15,,,,,,,,,,,,,,,,15,,58,0
36479,note_on,,0,0,15,,,,,,,,,,,,,,,,15,,70,0
36479,note_on,,0,0,15,,,,,,,,,,,,,,,,15,,65,0
36479,note_on,,0,0,15,,,,,,,,,,,,,,,,15,,62,0
36479,note_on,,0,0,15,,,,,,,,,,,,,,,,15,,46,0
36479,note_on,,479,0,13,,,,,,,,,,,,,,,,12,,62,0
36479,note_on,,479,0,9,,,,,,,,,,,,,,,,7,,62,0
36479,note_on,,59,0,8,,,,,,,,,,,,,,,,6,,65,0
36479,note_on,,239,0,14,,,,,,,,,,,,,,,,13,,46,0
36479,note_on,,59,0,12,,,,,,,,,,,,,,,,11,,65,0
36480,note_on,,1,0,13,,,,,,,,,,,,,,,,12,,63,72
36480,note_on,,0,0,15,,,,,,,,,,,,,,,,15,,70,64
36480,note_on,,1,0,10,,,,,,,,,,,,,,,,8,,51,72
36480,note_on,,0,0,15,,,,,,,,,,,,,,,,15,,63,64
36480,note_on,,0,0,15,,,,,,,,,,,,,,,,15,,58,64
36480,note_on,,1,0,15,,,,,,,,,,,,,,,,15,,51,64
36480,note_on,,0,0,15,,,,,,,,,,,,,,,,15,,67,64
36480,note_on,,1,0,6,,,,,,,,,,,,,,,,2,,51,72
36480,note_on,,1,0,9,,,,,,,,,,,,,,,,7,,63,72
36480,note_on,,1,0,12,,,,,,,,,,,,,,,,11,,67,72
36480,note_on,,1,0,14,,,,,,,,,,,,,,,,13,,51,72
36480,note_on,,1,0,8,,,,,,,,,,,,,,,,6,,67,72
36599,note_on,,119,0,9,,,,,,,,,,,,,,,,7,,63,0
36599,note_on,,119,0,13,,,,,,,,,,,,,,,,12,,63,0
36600,note_on,,1,0,9,,,,,,,,,,,,,,,,7,,63,72
36600,note_on,,1,0,13,,,,,,,,,,,,,,,,12,,63,72
36719,note_on,,119,0,9,,,,,,,,,,,,,,,,7,,63,0
36719,note_on,,119,0,13,,,,,,,,,,,,,,,,12,,63,0
36720,note_on,,1,0,9,,,,,,,,,,,,,,,,7,,58,72
36720,note_on,,1,0,13,,,,,,,,,,,,,,,,12,,58,72
36839,note_on,,119,0,9,,,,,,,,,,,,,,,,7,,58,0
36839,note_on,,119,0,13,,,,,,,,,,,,,,,,12,,58,0
36840,note_on,,1,0,13,,,,,,,,,,,,,,,,12,,60,72
36840,note_on,,1,0,9,,,,,,,,,,,,,,,,7,,60,72
36959,note_on,,479,0,15,,,,,,,,,,,,,,,,15,,70,0
36959,note_on,,0,0,15,,,,,,,,,,,,,,,,15,,67,0
36959,note_on,,0,0,15,,,,,,,,,,,,,,,,15,,63,0
36959,note_on,,0,0,15,,,,,,,,,,,,,,,,15,,58,0
36959,note_on,,119,0,13,,,,,,,,,,,,,,,,12,,60,0
36959,note_on,,119,0,9,,,,,,,,,,,,,,,,7,,60,0
36960,note_on,,1,0,13,,,,,,,,,,,,,,,,12,,61,72
36960,note_on,,0,0,15,,,,,,,,,,,,,,,,15,,70,64
36960,note_on,,1,0,9,,,,,,,,,,,,,,,,7,,61,72
36960,note_on,,0,0,15,,,,,,,,,,,,,,,,15,,67,64
36960,note_on,,1,0,15,,,,,,,,,,,,,,,,15,,75,64
37199,note_on,,719,0,6,,,,,,,,,,,,,,,,2,,51,0
37199,note_on,,719,0,14,,,,,,,,,,,,,,,,13,,51,0
37199,note_on,,719,0,12,,,,,,,,,,,,,,,,11,,67,0
37199,note_on,,719,0,10,,,,,,,,,,,,,,,,8,,51,0
37199,note_on,,239,0,15,,,,,,,,,,,,,,,,15,,51,0
37199,note_on,,719,0,8,,,,,,,,,,,,,,,,6,,67,0
37200,note_on,,1,0,10,,,,,,,,,,,,,,,,8,,51,72
37200,note_on,,1,0,8,,,,,,,,,,,,,,,,6,,67,72
37200,note_on,,1,0,14,,,,,,,,,,,,,,,,13,,51,72
37200,note_on,,1,0,15,,,,,,,,,,,,,,,,15,,51,64
37200,note_on,,1,0,6,,,,,,,,,,,,,,,,2,,51,72
37200,note_on,,1,0,12,,,,,,,,,,,,,,,,11,,67,72
37319,note_on,,359,0,9,,,,,,,,,,,,,,,,7,,61,0
37319,note_on,,359,0,13,,,,,,,,,,,,,,,,12,,61,0
37320,note_on,,1,0,9,,,,,,,,,,,,,,,,7,,60,72
37320,note_on,,1,0,13,,,,,,,,,,,,,,,,12,,60,72
37379,note_on,,59,0,13,,,,,,,,,,,,,,,,12,,60,0
37379,note_on,,59,0,9,,,,,,,,,,,,,,,,7,,60,0
37380,note_on,,1,0,13,,,,,,,,,,,,,,,,12,,58,72
37380,note_on,,1,0,9,,,,,,,,,,,,,,,,7,,58,72
37439,note_on,,239,0,8,,,,,,,,,,,,,,,,6,,67,0
37439,note_on,,0,0,15,,,,,,,,,,,,,,,,15,,70,0
37439,note_on,,0,0,15,,,,,,,,,,,,,,,,15,,51,0
37439,note_on,,0,0,15,,,,,,,,,,,,,,,,15,,67,0
37439,note_on,,239,0,15,,,,,,,,,,,,,,,,15,,75,0
37439,note_on,,59,0,9,,,,,,,,,,,,,,,,7,,58,0
37439,note_on,,239,0,10,,,,,,,,,,,,,,,,8,,51,0
37439,note_on,,239,0,6,,,,,,,,,,,,,,,,2,,51,0
37439,note_on,,239,0,12,,,,,,,,,,,,,,,,11,,67,0
37439,note_on,,239,0,14,,,,,,,,,,,,,,,,13,,51,0
37439,note_on,,59,0,13,,,,,,,,,,,,,,,,12,,58,0
37440,note_on,,0,0,15,,,,,,,,,,,,,,,,15,,75,64
37440,note_on,,1,0,14,,,,,,,,,,,,,,,,13,,56,72
37440,note_on,,1,0,6,,,,,,,,,,,,,,,,2,,56,72
37440,note_on,,1,0,8,,,,,,,,,,,,,,,,6,,68,72
37440,note_on,,1,0,13,,,,,,,,,,,,,,,,12,,60,72
37440,note_on,,1,0,15,,,,,,,,,,,,,,,,15,,56,64
37440,note_on,,0,0,15,,,,,,,,,,,,,,,,15,,72,64
37440,note_on,,1,0,10,,,,,,,,,,,,,,,,8,,56,72
37440,note_on,,1,0,12,,,,,,,,,,,,,,,,11,,68,72
37440,note_on,,0,0,15,,,,,,,,,,,,,,,,15,,63,64
37440,note_on,,0,0,15,,,,,,,,,,,,,,,,15,,68,64
37440,note_on,,1,0,9,,,,,,,,,,,,,,,,7,,60,72
37679,note_on,,0,0,15,,,,,,,,,,,,,,,,15,,68,0
37679,note_on,,0,0,15,,,,,,,,,,,,,,,,15,,72,0
37679,note_on,,239,0,15,,,,,,,,,,,,,,,,15,,75,0
37680,note_on,,1,0,15,,,,,,,,,,,,,,,,15,,72,64
37680,note_on,,4561,0,5,,,,,,,,,,,,,,,,1,,77,72
37680,note_on,,4561,0,11,,,,,,,,,,,,,,,,10,,77,72
37680,note_on,,4561,0,7,,,,,,,,,,,,,,,,5,,77,72
37680,note_on,,0,0,15,,,,,,,,,,,,,,,,15,,68,64
37799,note_on,,119,0,15,,,,,,,,,,,,,,,,15,,56,0
37799,note_on,,359,0,10,,,,,,,,,,,,,,,,8,,56,0
37799,note_on,,359,0,6,,,,,,,,,,,,,,,,2,,56,0
37799,note_on,,359,0,14,,,,,,,,,,,,,,,,13,,56,0
37800,note_on,,1,0,14,,,,,,,,,,,,,,,,13,,58,72
37800,note_on,,1,0,6,,,,,,,,,,,,,,,,2,,58,72
37800,note_on,,1,0,15,,,,,,,,,,,,,,,,15,,58,64
37800,note_on,,1,0,10,,,,,,,,,,,,,,,,8,,58,72
37919,note_on,,239,0,5,,,,,,,,,,,,,,,,1,,77,0
37919,note_on,,479,0,13,,,,,,,,,,,,,,,,12,,60,0
37919,note_on,,119,0,6,,,,,,,,,,,,,,,,2,,58,0
37919,note_on,,479,0,8,,,,,,,,,,,,,,,,6,,68,0
37919,note_on,,0,0,15,,,,,,,,,,,,,,,,15,,58,0
37919,note_on,,239,0,11,,,,,,,,,,,,,,,,10,,77,0
37919,note_on,,0,0,15,,,,,,,,,,,,,,,,15,,68,0
37919,note_on,,119,0,10,,,,,,,,,,,,,,,,8,,58,0
37919,note_on,,119,0,15,,,,,,,,,,,,,,,,15,,63,0
37919,note_on,,119,0,14,,,,,,,,,,,,,,,,13,,58,0
37919,note_on,,479,0,9,,,,,,,,,,,,,,,,7,,60,0
37919,note_on,,239,0,7,,,,,,,,,,,,,,,,5,,77,0
37919,note_on,,479,0,12,,,,,,,,,,,,,,,,11,,68,0
37920,note_on,,1,0,10,,,,,,,,,,,,,,,,8,,60,72
37920,note_on,,1,0,15,,,,,,,,,,,,,,,,15,,60,64
37920,note_on,,0,0,15,,,,,,,,,,,,,,,,15,,67,64
37920,note_on,,0,0,15,,,,,,,,,,,,,,,,15,,63,64
37920,note_on,,1,0,14,,,,,,,,,,,,,,,,13,,60,72
37920,note_on,,1,0,6,,,,,,,,,,,,,,,,2,,60,72
37920,note_on,,1,0,5,,,,,,,,,,,,,,,,1,,75,72
37920,note_on,,1,0,8,,,,,,,,,,,,,,,,6,,67,72
37920,note_on,,1,0,7,,,,,,,,,,,,,,,,5,,75,72
37920,note_on,,1,0,12,,,,,,,,,,,,,,,,11,,67,72
37920,note_on,,1,0,11,,,,,,,,,,,,,,,,10,,75,72
38159,note_on,,239,0,11,,,,,,,,,,,,,,,,10,,75,0
38159,note_on,,239,0,8,,,,,,,,,,,,,,,,6,,67,0
38159,note_on,,239,0,15,,,,,,,,,,,,,,,,15,,72,0
38159,note_on,,239,0,5,,,,,,,,,,,,,,,,1,,75,0
38159,note_on,,239,0,12,,,,,,,,,,,,,,,,11,,67,0
38159,note_on,,239,0,7,,,,,,,,,,,,,,,,5,,75,0
38159,note_on,,0,0,15,,,,,,,,,,,,,,,,15,,63,0
38159,note_on,,0,0,15,,,,,,,,,,,,,,,,15,,67,0
38160,note_on,,1,0,5,,,,,,,,,,,,,,,,1,,80,72
38160,note_on,,1,0,7,,,,,,,,,,,,,,,,5,,80,72
38160,note_on,,0,0,15,,,,,,,,,,,,,,,,15,,68,64
38160,note_on,,1,0,15,,,,,,,,,,,,,,,,15,,75,64
38160,note_on,,0,0,15,,,,,,,,,,,,,,,,15,,72,64
38160,note_on,,1,0,8,,,,,,,,,,,,,,,,6,,65,72
38160,note_on,,1,0,12,,,,,,,,,,,,,,,,11,,65,72
38160,note_on,,1,0,11,,,,,,,,,,,,,,,,10,,80,72
38279,note_on,,119,0,8,,,,,,,,,,,,,,,,6,,65,0
38279,note_on,,119,0,12,,,,,,,,,,,,,,,,11,,65,0
38280,note_on,,1,0,8,,,,,,,,,,,,,,,,6,,63,72
38280,note_on,,1,0,12,,,,,,,,,,,,,,,,11,,63,72
38399,note_on,,119,0,8,,,,,,,,,,,,,,,,6,,63,0
38399,note_on,,0,0,15,,,,,,,,,,,,,,,,15,,75,0
38399,note_on,,239,0,15,,,,,,,,,,,,,,,,15,,60,0
38399,note_on,,239,0,7,,,,,,,,,,,,,,,,5,,80,0
38399,note_on,,479,0,14,,,,,,,,,,,,,,,,13,,60,0
38399,note_on,,0,0,15,,,,,,,,,,,,,,,,15,,72,0
38399,note_on,,119,0,12,,,,,,,,,,,,,,,,11,,63,0
38399,note_on,,239,0,11,,,,,,,,,,,,,,,,10,,80,0
38399,note_on,,479,0,6,,,,,,,,,,,,,,,,2,,60,0
38399,note_on,,239,0,5,,,,,,,,,,,,,,,,1,,80,0
38399,note_on,,479,0,10,,,,,,,,,,,,,,,,8,,60,0
38399,note_on,,0,0,15,,,,,,,,,,,,,,,,15,,68,0
38400,note_on,,0,0,15,,,,,,,,,,,,,,,,15,,65,64
38400,note_on,,0,0,15,,,,,,,,,,,,,,,,15,,71,64
38400,note_on,,1,0,5,,,,,,,,,,,,,,,,1,,71,72
38400,note_on,,1,0,7,,,,,,,,,,,,,,,,5,,71,72
38400,note_on,,1,0,14,,,,,,,,,,,,,,,,13,,62,72
38400,note_on,,1,0,12,,,,,,,,,,,,,,,,11,,62,72
38400,note_on,,1,0,8,,,,,,,,,,,,,,,,6,,62,72
38400,note_on,,1,0,15,,,,,,,,,,,,,,,,15,,62,64
38400,note_on,,1,0,11,,,,,,,,,,,,,,,,10,,71,72
38519,note_on,,119,0,14,,,,,,,,,,,,,,,,13,,62,0
38519,note_on,,119,0,15,,,,,,,,,,,,,,,,15,,62,0
38520,note_on,,1,0,14,,,,,,,,,,,,,,,,13,,55,72
38520,note_on,,601,0,9,,,,,,,,,,,,,,,,7,,55,72
38520,note_on,,601,0,13,,,,,,,,,,,,,,,,12,,55,72
38520,note_on,,1,0,15,,,,,,,,,,,,,,,,15,,55,64
38639,note_on,,119,0,14,,,,,,,,,,,,,,,,13,,55,0
38639,note_on,,119,0,15,,,,,,,,,,,,,,,,15,,65,0
38639,note_on,,0,0,15,,,,,,,,,,,,,,,,15,,55,0
38639,note_on,,119,0,13,,,,,,,,,,,,,,,,12,,55,0
38639,note_on,,239,0,8,,,,,,,,,,,,,,,,6,,62,0
38639,note_on,,239,0,12,,,,,,,,,,,,,,,,11,,62,0
38639,note_on,,119,0,9,,,,,,,,,,,,,,,,7,,55,0
38640,note_on,,1,0,14,,,,,,,,,,,,,,,,13,,67,72
38640,note_on,,1,0,15,,,,,,,,,,,,,,,,15,,67,64
38640,note_on,,1,0,13,,,,,,,,,,,,,,,,12,,67,72
38640,note_on,,1,0,9,,,,,,,,,,,,,,,,7,,67,72
38640,note_on,,0,0,15,,,,,,,,,,,,,,,,15,,67,64
38759,note_on,,119,0,15,,,,,,,,,,,,,,,,15,,67,0
38759,note_on,,119,0,13,,,,,,,,,,,,,,,,12,,67,0
38759,note_on,,119,0,9,,,,,,,,,,,,,,,,7,,67,0
38759,note_on,,119,0,14,,,,,,,,,,,,,,,,13,,67,0
38760,note_on,,1,0,9,,,,,,,,,,,,,,,,7,,65,72
38760,note_on,,1,0,15,,,,,,,,,,,,,,,,15,,65,64
38760,note_on,,1,0,14,,,,,,,,,,,,,,,,13,,65,72
38760,note_on,,1,0,13,,,,,,,,,,,,,,,,12,,65,72
38879,note_on,,0,0,15,,,,,,,,,,,,,,,,15,,65,0
38879,note_on,,119,0,9,,,,,,,,,,,,,,,,7,,65,0
38879,note_on,,479,0,5,,,,,,,,,,,,,,,,1,,71,0
38879,note_on,,119,0,13,,,,,,,,,,,,,,,,12,,65,0
38879,note_on,,119,0,14,,,,,,,,,,,,,,,,13,,65,0
38879,note_on,,479,0,11,,,,,,,,,,,,,,,,10,,71,0
38879,note_on,,479,0,7,,,,,,,,,,,,,,,,5,,71,0
38879,note_on,,119,0,15,,,,,,,,,,,,,,,,15,,71,0
38880,note_on,,1,0,9,,,,,,,,,,,,,,,,7,,63,72
38880,note_on,,1,0,5,,,,,,,,,,,,,,,,1,,72,72
38880,note_on,,1,0,13,,,,,,,,,,,,,,,,12,,63,72
38880,note_on,,1,0,15,,,,,,,,,,,,,,,,15,,63,64
38880,note_on,,0,0,15,,,,,,,,,,,,,,,,15,,72,64
38880,note_on,,1,0,7,,,,,,,,,,,,,,,,5,,72,72
38880,note_on,,1,0,14,,,,,,,,,,,,,,,,13,,63,72
38880,note_on,,1,0,11,,,,,,,,,,,,,,,,10,,72,72
38999,note_on,,119,0,14,,,,,,,,,,,,,,,,13,,63,0
38999,note_on,,119,0,15,,,,,,,,,,,,,,,,15,,63,0
38999,note_on,,119,0,13,,,,,,,,,,,,,,,,12,,63,0
38999,note_on,,119,0,9,,,,,,,,,,,,,,,,7,,63,0
39000,note_on,,1,0,13,,,,,,,,,,,,,,,,12,,62,72
39000,note_on,,1,0,15,,,,,,,,,,,,,,,,15,,62,64
39000,note_on,,1,0,9,,,,,,,,,,,,,,,,7,,62,72
39000,note_on,,1,0,14,,,,,,,,,,,,,,,,13,,62,72
39119,note_on,,119,0,14,,,,,,,,,,,,,,,,13,,62,0
39119,note_on,,239,0,5,,,,,,,,,,,,,,,,1,,72,0
39119,note_on,,239,0,7,,,,,,,,,,,,,,,,5,,72,0
39119,note_on,,0,0,15,,,,,,,,,,,,,,,,15,,62,0
39119,note_on,,239,0,11,,,,,,,,,,,,,,,,10,,72,0
39119,note_on,,119,0,13,,,,,,,,,,,,,,,,12,,62,0
39119,note_on,,119,0,15,,,,,,,,,,,,,,,,15,,67,0
39119,note_on,,119,0,9,,,,,,,,,,,,,,,,7,,62,0
39119,note_on,,0,0,15,,,,,,,,,,,,,,,,15,,72,0
39120,note_on,,1,0,15,,,,,,,,,,,,,,,,15,,60,64
39120,note_on,,1,0,13,,,,,,,,,,,,,,,,12,,60,72
39120,note_on,,1,0,14,,,,,,,,,,,,,,,,13,,60,72
39120,note_on,,1,0,11,,,,,,,,,,,,,,,,10,,74,72
39120,note_on,,1,0,9,,,,,,,,,,,,,,,,7,,60,72
39120,note_on,,1,0,5,,,,,,,,,,,,,,,,1,,74,72
39120,note_on,,1,0,7,,,,,,,,,,,,,,,,5,,74,72
39120,note_on,,0,0,15,,,,,,,,,,,,,,,,15,,74,64
39120,note_on,,0,0,15,,,,,,,,,,,,,,,,15,,65,64
39239,note_on,,119,0,13,,,,,,,,,,,,,,,,12,,60,0
39239,note_on,,119,0,15,,,,,,,,,,,,,,,,15,,60,0
39239,note_on,,119,0,14,,,,,,,,,,,,,,,,13,,60,0
39239,note_on,,119,0,9,,,,,,,,,,,,,,,,7,,60,0
39240,note_on,,1,0,15,,,,,,,,,,,,,,,,15,,59,64
39240,note_on,,1,0,9,,,,,,,,,,,,,,,,7,,59,72
39240,note_on,,1,0,14,,,,,,,,,,,,,,,,13,,59,72
39240,note_on,,1,0,13,,,,,,,,,,,,,,,,12,,59,72
39359,note_on,,239,0,11,,,,,,,,,,,,,,,,10,,74,0
39359,note_on,,239,0,7,,,,,,,,,,,,,,,,5,,74,0
39359,note_on,,119,0,14,,,,,,,,,,,,,,,,13,,59,0
39359,note_on,,119,0,15,,,,,,,,,,,,,,,,15,,74,0
39359,note_on,,0,0,15,,,,,,,,,,,,,,,,15,,65,0
39359,note_on,,0,0,15,,,,,,,,,,,,,,,,15,,59,0
39359,note_on,,239,0,5,,,,,,,,,,,,,,,,1,,74,0
39359,note_on,,119,0,13,,,,,,,,,,,,,,,,12,,59,0
39359,note_on,,119,0,9,,,,,,,,,,,,,,,,7,,59,0
39360,note_on,,1,0,14,,,,,,,,,,,,,,,,13,,60,72
39360,note_on,,1,0,7,,,,,,,,,,,,,,,,5,,75,72
39360,note_on,,1,0,13,,,,,,,,,,,,,,,,12,,60,72
39360,note_on,,1,0,15,,,,,,,,,,,,,,,,15,,63,64
39360,note_on,,0,0,15,,,,,,,,,,,,,,,,15,,60,64
39360,note_on,,0,0,15,,,,,,,,,,,,,,,,15,,60,64
39360,note_on,,1,0,9,,,,,,,,,,,,,,,,7,,60,72
39360,note_on,,1,0,5,,,,,,,,,,,,,,,,1,,75,72
39360,note_on,,0,0,15,,,,,,,,,,,,,,,,15,,75,64
39360,note_on,,1,0,11,,,,,,,,,,,,,,,,10,,75,72
39479,note_on,,119,0,15,,,,,,,,,,,,,,,,15,,60,0
39479,note_on,,119,0,14,,,,,,,,,,,,,,,,13,,60,0
39599,note_on,,239,0,5,,,,,,,,,,,,,,,,1,,75,0
39599,note_on,,0,0,15,,,,,,,,,,,,,,,,15,,60,0
39599,note_on,,0,0,15,,,,,,,,,,,,,,,,15,,75,0
39599,note_on,,239,0,11,,,,,,,,,,,,,,,,10,,75,0
39599,note_on,,120,0,15,,,,,,,,,,,,,,,,15,,63,0
39599,note_on,,239,0,7,,,,,,,,,,,,,,,,5,,75,0
39600,note_on,,0,0,15,,,,,,,,,,,,,,,,15,,76,64
39600,note_on,,0,0,15,,,,,,,,,,,,,,,,15,,67,64
39600,note_on,,1,0,15,,,,,,,,,,,,,,,,15,,60,64
39600,note_on,,1201,0,6,,,,,,,,,,,,,,,,2,,60,72
39600,note_on,,1,0,7,,,,,,,,,,,,,,,,5,,76,72
39600,note_on,,1,0,5,,,,,,,,,,,,,,,,1,,76,72
39600,note_on,,121,0,14,,,,,,,,,,,,,,,,13,,60,72
39600,note_on,,1,0,11,,,,,,,,,,,,,,,,10,,76,72
39600,note_on,,1201,0,10,,,,,,,,,,,,,,,,8,,60,72
39839,note_on,,239,0,7,,,,,,,,,,,,,,,,5,,76,0
39839,note_on,,0,0,15,,,,,,,,,,,,,,,,15,,67,0
39839,note_on,,0,0,15,,,,,,,,,,,,,,,,15,,76,0
39839,note_on,,239,0,15,,,,,,,,,,,,,,,,15,,60,0
39839,note_on,,239,0,5,,,,,,,,,,,,,,,,1,,76,0
39839,note_on,,239,0,11,,,,,,,,,,,,,,,,10,,76,0
39839,note_on,,239,0,10,,,,,,,,,,,,,,,,8,,60,0
39839,note_on,,239,0,6,,,,,,,,,,,,,,,,2,,60,0
39839,note_on,,239,0,14,,,,,,,,,,,,,,,,13,,60,0
39840,note_on,,1,0,7,,,,,,,,,,,,,,,,5,,77,72
39840,note_on,,1,0,5,,,,,,,,,,,,,,,,1,,77,72
39840,note_on,,0,0,15,,,,,,,,,,,,,,,,15,,65,64
39840,note_on,,0,0,15,,,,,,,,,,,,,,,,15,,60,64
39840,note_on,,1,0,10,,,,,,,,,,,,,,,,8,,56,72
39840,note_on,,1,0,6,,,,,,,,,,,,,,,,2,,56,72
39840,note_on,,1,0,14,,,,,,,,,,,,,,,,13,,56,72
39840,note_on,,0,0,15,,,,,,,,,,,,,,,,15,,72,64
39840,note_on,,0,0,15,,,,,,,,,,,,,,,,15,,77,64
39840,note_on,,1,0,15,,,,,,,,,,,,,,,,15,,56,64
39840,note_on,,1,0,11,,,,,,,,,,,,,,,,10,,77,72
40079,note_on,,0,0,15,,,,,,,,,,,,,,,,15,,72,0
40079,note_on,,239,0,10,,,,,,,,,,,,,,,,8,,56,0
40079,note_on,,719,0,13,,,,,,,,,,,,,,,,12,,60,0
40079,note_on,,0,0,15,,,,,,,,,,,,,,,,15,,60,0
40079,note_on,,239,0,15,,,,,,,,,,,,,,,,15,,56,0
40079,note_on,,0,0,15,,,,,,,,,,,,,,,,15,,65,0
40079,note_on,,719,0,9,,,,,,,,,,,,,,,,7,,60,0
40079,note_on,,239,0,6,,,,,,,,,,,,,,,,2,,56,0
40079,note_on,,239,0,14,,,,,,,,,,,,,,,,13,,56,0
40080,note_on,,1,0,9,,,,,,,,,,,,,,,,7,,58,72
40080,note_on,,1,0,10,,,,,,,,,,,,,,,,8,,61,72
40080,note_on,,1,0,6,,,,,,,,,,,,,,,,2,,61,72
40080,note_on,,1,0,13,,,,,,,,,,,,,,,,12,,58,72
40080,note_on,,1,0,15,,,,,,,,,,,,,,,,15,,73,64
40080,note_on,,0,0,15,,,,,,,,,,,,,,,,15,,61,64
40080,note_on,,0,0,15,,,,,,,,,,,,,,,,15,,70,64
40080,note_on,,1,0,14,,,,,,,,,,,,,,,,13,,61,72
40319,note_on,,479,0,7,,,,,,,,,,,,,,,,5,,77,0
40319,note_on,,239,0,10,,,,,,,,,,,,,,,,8,,61,0
40319,note_on,,479,0,5,,,,,,,,,,,,,,,,1,,77,0
40319,note_on,,239,0,9,,,,,,,,,,,,,,,,7,,58,0
40319,note_on,,479,0,11,,,,,,,,,,,,,,,,10,,77,0
40319,note_on,,0,0,15,,,,,,,,,,,,,,,,15,,70,0
40319,note_on,,0,0,15,,,,,,,,,,,,,,,,15,,73,0
40319,note_on,,239,0,6,,,,,,,,,,,,,,,,2,,61,0
40319,note_on,,239,0,14,,,,,,,,,,,,,,,,13,,61,0
40319,note_on,,0,0,15,,,,,,,,,,,,,,,,15,,61,0
40319,note_on,,239,0,15,,,,,,,,,,,,,,,,15,,77,0
40319,note_on,,239,0,13,,,,,,,,,,,,,,,,12,,58,0
40320,note_on,,1,0,11,,,,,,,,,,,,,,,,10,,72,72
40320,note_on,,1,0,6,,,,,,,,,,,,,,,,2,,52,72
40320,note_on,,1,0,14,,,,,,,,,,,,,,,,13,,52,72
40320,note_on,,1,0,7,,,,,,,,,,,,,,,,5,,72,72
40320,note_on,,1,0,13,,,,,,,,,,,,,,,,12,,67,72
40320,note_on,,1,0,15,,,,,,,,,,,,,,,,15,,52,64
40320,note_on,,0,0,15,,,,,,,,,,,,,,,,15,,79,64
40320,note_on,,0,0,15,,,,,,,,,,,,,,,,15,,72,64
40320,note_on,,0,0,15,,,,,,,,,,,,,,,,15,,67,64
40320,note_on,,0,0,15,,,,,,,,,,,,,,,,15,,55,64
40320,note_on,,1,0,5,,,,,,,,,,,,,,,,1,,72,72
40320,note_on,,1,0,10,,,,,,,,,,,,,,,,8,,52,72
40320,note_on,,1,0,9,,,,,,,,,,,,,,,,7,,67,72
40440,note_on,,1801,0,12,,,,,,,,,,,,,,,,11,,67,72
40440,note_on,,1801,0,8,,,,,,,,,,,,,,,,6,,67,72
40559,note_on,,119,0,12,,,,,,,,,,,,,,,,11,,67,0
40559,note_on,,119,0,8,,,,,,,,,,,,,,,,6,,67,0
40560,note_on,,1,0,12,,,,,,,,,,,,,,,,11,,72,72
40560,note_on,,1,0,8,,,,,,,,,,,,,,,,6,,72,72
40679,note_on,,119,0,8,,,,,,,,,,,,,,,,6,,72,0
40679,note_on,,119,0,12,,,,,,,,,,,,,,,,11,,72,0
40680,note_on,,1,0,8,,,,,,,,,,,,,,,,6,,70,72
40680,note_on,,1,0,12,,,,,,,,,,,,,,,,11,,70,72
40799,note_on,,119,0,12,,,,,,,,,,,,,,,,11,,70,0
40799,note_on,,479,0,14,,,,,,,,,,,,,,,,13,,52,0
40799,note_on,,479,0,13,,,,,,,,,,,,,,,,12,,67,0
40799,note_on,,479,0,6,,,,,,,,,,,,,,,,2,,52,0
40799,note_on,,479,0,9,,,,,,,,,,,,,,,,7,,67,0
40799,note_on,,479,0,5,,,,,,,,,,,,,,,,1,,72,0
40799,note_on,,0,0,15,,,,,,,,,,,,,,,,15,,55,0
40799,note_on,,119,0,8,,,,,,,,,,,,,,,,6,,70,0
40799,note_on,,0,0,15,,,,,,,,,,,,,,,,15,,72,0
40799,note_on,,0,0,15,,,,,,,,,,,,,,,,15,,67,0
40799,note_on,,479,0,15,,,,,,,,,,,,,,,,15,,52,0
40799,note_on,,479,0,10,,,,,,,,,,,,,,,,8,,52,0
40799,note_on,,479,0,7,,,,,,,,,,,,,,,,5,,72,0
40799,note_on,,479,0,11,,,,,,,,,,,,,,,,10,,72,0
40799,note_on,,0,0,15,,,,,,,,,,,,,,,,15,,79,0
40800,note_on,,1,0,15,,,,,,,,,,,,,,,,15,,53,64
40800,note_on,,0,0,15,,,,,,,,,,,,,,,,15,,77,64
40800,note_on,,0,0,15,,,,,,,,,,,,,,,,15,,72,64
40800,note_on,,0,0,15,,,,,,,,,,,,,,,,15,,68,64
40800,note_on,,0,0,15,,,,,,,,,,,,,,,,15,,60,64
40800,note_on,,1,0,8,,,,,,,,,,,,,,,,6,,68,72
40800,note_on,,1,0,9,,,,,,,,,,,,,,,,7,,65,72
40800,note_on,,1,0,13,,,,,,,,,,,,,,,,12,,65,72
40800,note_on,,1,0,10,,,,,,,,,,,,,,,,8,,53,72
40800,note_on,,1,0,5,,,,,,,,,,,,,,,,1,,72,72
40800,note_on,,1,0,7,,,,,,,,,,,,,,,,5,,72,72
40800,note_on,,1,0,14,,,,,,,,,,,,,,,,13,,53,72
40800,note_on,,1,0,11,,,,,,,,,,,,,,,,10,,72,72
40800,note_on,,1,0,12,,,,,,,,,,,,,,,,11,,68,72
40800,note_on,,1,0,6,,,,,,,,,,,,,,,,2,,53,72
40919,note_on,,119,0,8,,,,,,,,,,,,,,,,6,,68,0
40919,note_on,,119,0,12,,,,,,,,,,,,,,,,11,,68,0
40920,note_on,,1,0,8,,,,,,,,,,,,,,,,6,,67,72
40920,note_on,,1,0,12,,,,,,,,,,,,,,,,11,,67,72
41039,note_on,,239,0,6,,,,,,,,,,,,,,,,2,,53,0
41039,note_on,,239,0,9,,,,,,,,,,,,,,,,7,,65,0
41039,note_on,,0,0,15,,,,,,,,,,,,,,,,15,,60,0
41039,note_on,,0,0,15,,,,,,,,,,,,,,,,15,,68,0
41039,note_on,,0,0,15,,,,,,,,,,,,,,,,15,,72,0
41039,note_on,,119,0,12,,,,,,,,,,,,,,,,11,,67,0
41039,note_on,,239,0,15,,,,,,,,,,,,,,,,15,,53,0
41039,note_on,,239,0,13,,,,,,,,,,,,,,,,12,,65,0
41039,note_on,,239,0,5,,,,,,,,,,,,,,,,1,,72,0
41039,note_on,,239,0,11,,,,,,,,,,,,,,,,10,,72,0
41039,note_on,,239,0,14,,,,,,,,,,,,,,,,13,,53,0
41039,note_on,,239,0,10,,,,,,,,,,,,,,,,8,,53,0
41039,note_on,,239,0,7,,,,,,,,,,,,,,,,5,,72,0
41039,note_on,,0,0,15,,,,,,,,,,,,,,,,15,,77,0
41039,note_on,,119,0,8,,,,,,,,,,,,,,,,6,,67,0
41040,note_on,,1,0,11,,,,,,,,,,,,,,,,10,,70,72
41040,note_on,,0,0,15,,,,,,,,,,,,,,,,15,,58,64
41040,note_on,,0,0,15,,,,,,,,,,,,,,,,15,,67,64
41040,note_on,,0,0,15,,,,,,,,,,,,,,,,15,,70,64
41040,note_on,,1,0,12,,,,,,,,,,,,,,,,11,,65,72
41040,note_on,,1,0,15,,,,,,,,,,,,,,,,15,,55,64
41040,note_on,,1,0,9,,,,,,,,,,,,,,,,7,,58,72
41040,note_on,,1,0,8,,,,,,,,,,,,,,,,6,,65,72
41040,note_on,,1,0,6,,,,,,,,,,,,,,,,2,,55,72
41040,note_on,,1,0,7,,,,,,,,,,,,,,,,5,,70,72
41040,note_on,,1,0,14,,,,,,,,,,,,,,,,13,,55,72
41040,note_on,,1,0,13,,,,,,,,,,,,,,,,12,,58,72
41040,note_on,,1,0,5,,,,,,,,,,,,,,,,1,,70,72
41040,note_on,,1,0,10,,,,,,,,,,,,,,,,8,,55,72
41159,note_on,,119,0,8,,,,,,,,,,,,,,,,6,,65,0
41159,note_on,,119,0,12,,,,,,,,,,,,,,,,11,,65,0
41160,note_on,,1,0,12,,,,,,,,,,,,,,,,11,,64,72
41160,note_on,,1,0,8,,,,,,,,,,,,,,,,6,,64,72
41279,note_on,,239,0,10,,,,,,,,,,,,,,,,8,,55,0
41279,note_on,,239,0,15,,,,,,,,,,,,,,,,15,,55,0
41279,note_on,,239,0,6,,,,,,,,,,,,,,,,2,,55,0
41279,note_on,,119,0,8,,,,,,,,,,,,,,,,6,,64,0
41279,note_on,,239,0,14,,,,,,,,,,,,,,,,13,,55,0
41279,note_on,,239,0,5,,,,,,,,,,,,,,,,1,,70,0
41279,note_on,,239,0,11,,,,,,,,,,,,,,,,10,,70,0
41279,note_on,,0,0,15,,,,,,,,,,,,,,,,15,,70,0
41279,note_on,,0,0,15,,,,,,,,,,,,,,,,15,,58,0
41279,note_on,,239,0,9,,,,,,,,,,,,,,,,7,,58,0
41279,note_on,,239,0,13,,,,,,,,,,,,,,,,12,,58,0
41279,note_on,,119,0,12,,,,,,,,,,,,,,,,11,,64,0
41279,note_on,,239,0,7,,,,,,,,,,,,,,,,5,,70,0
41279,note_on,,0,0,15,,,,,,,,,,,,,,,,15,,67,0
41280,note_on,,1,0,5,,,,,,,,,,,,,,,,1,,68,72
41280,note_on,,0,0,15,,,,,,,,,,,,,,,,15,,60,64
41280,note_on,,0,0,15,,,,,,,,,,,,,,,,15,,65,64
41280,note_on,,1,0,14,,,,,,,,,,,,,,,,13,,56,72
41280,note_on,,1,0,13,,,,,,,,,,,,,,,,12,,60,72
41280,note_on,,1,0,6,,,,,,,,,,,,,,,,2,,56,72
41280,note_on,,1,0,11,,,,,,,,,,,,,,,,10,,68,72
41280,note_on,,1,0,12,,,,,,,,,,,,,,,,11,,65,72
41280,note_on,,1,0,7,,,,,,,,,,,,,,,,5,,68,72
41280,note_on,,0,0,15,,,,,,,,,,,,,,,,15,,68,64
41280,note_on,,1,0,9,,,,,,,,,,,,,,,,7,,60,72
41280,note_on,,1,0,8,,,,,,,,,,,,,,,,6,,65,72
41280,note_on,,1,0,15,,,,,,,,,,,,,,,,15,,56,64
41280,note_on,,1,0,10,,,,,,,,,,,,,,,,8,,56,72
41399,note_on,,119,0,7,,,,,,,,,,,,,,,,5,,68,0
41399,note_on,,119,0,8,,,,,,,,,,,,,,,,6,,65,0
41399,note_on,,119,0,5,,,,,,,,,,,,,,,,1,,68,0
41399,note_on,,119,0,11,,,,,,,,,,,,,,,,10,,68,0
41399,note_on,,119,0,12,,,,,,,,,,,,,,,,11,,65,0
41400,note_on,,1,0,12,,,,,,,,,,,,,,,,11,,64,72
41400,note_on,,1,0,11,,,,,,,,,,,,,,,,10,,67,72
41400,note_on,,1,0,8,,,,,,,,,,,,,,,,6,,64,72
41400,note_on,,1,0,7,,,,,,,,,,,,,,,,5,,67,72
41400,note_on,,1,0,5,,,,,,,,,,,,,,,,1,,67,72
41519,note_on,,119,0,12,,,,,,,,,,,,,,,,11,,64,0
41519,note_on,,119,0,7,,,,,,,,,,,,,,,,5,,67,0
41519,note_on,,119,0,5,,,,,,,,,,,,,,,,1,,67,0
41519,note_on,,119,0,8,,,,,,,,,,,,,,,,6,,64,0
41519,note_on,,119,0,11,,,,,,,,,,,,,,,,10,,67,0
41520,note_on,,1,0,5,,,,,,,,,,,,,,,,1,,68,72
41520,note_on,,1,0,8,,,,,,,,,,,,,,,,6,,65,72
41520,note_on,,1,0,12,,,,,,,,,,,,,,,,11,,65,72
41520,note_on,,1,0,7,,,,,,,,,,,,,,,,5,,68,72
41520,note_on,,1,0,11,,,,,,,,,,,,,,,,10,,68,72
41639,note_on,,119,0,11,,,,,,,,,,,,,,,,10,,68,0
41639,note_on,,359,0,10,,,,,,,,,,,,,,,,8,,56,0
41639,note_on,,119,0,8,,,,,,,,,,,,,,,,6,,65,0
41639,note_on,,359,0,6,,,,,,,,,,,,,,,,2,,56,0
41639,note_on,,359,0,9,,,,,,,,,,,,,,,,7,,60,0
41639,note_on,,0,0,15,,,,,,,,,,,,,,,,15,,60,0
41639,note_on,,0,0,15,,,,,,,,,,,,,,,,15,,65,0
41639,note_on,,0,0,15,,,,,,,,,,,,,,,,15,,68,0
41639,note_on,,359,0,15,,,,,,,,,,,,,,,,15,,56,0
41639,note_on,,119,0,12,,,,,,,,,,,,,,,,11,,65,0
41639,note_on,,119,0,5,,,,,,,,,,,,,,,,1,,68,0
41639,note_on,,359,0,13,,,,,,,,,,,,,,,,12,,60,0
41639,note_on,,119,0,7,,,,,,,,,,,,,,,,5,,68,0
41639,note_on,,359,0,14,,,,,,,,,,,,,,,,13,,56,0
41640,note_on,,0,0,15,,,,,,,,,,,,,,,,15,,70,64
41640,note_on,,1,0,12,,,,,,,,,,,,,,,,11,,67,72
41640,note_on,,1,0,15,,,,,,,,,,,,,,,,15,,58,64
41640,note_on,,1,0,13,,,,,,,,,,,,,,,,12,,58,72
41640,note_on,,1,0,9,,,,,,,,,,,,,,,,7,,58,72
41640,note_on,,0,0,15,,,,,,,,,,,,,,,,15,,55,64
41640,note_on,,1,0,7,,,,,,,,,,,,,,,,5,,70,72
41640,note_on,,1,0,8,,,,,,,,,,,,,,,,6,,67,72
41640,note_on,,1,0,10,,,,,,,,,,,,,,,,8,,55,72
41640,note_on,,1,0,6,,,,,,,,,,,,,,,,2,,55,72
41640,note_on,,1,0,11,,,,,,,,,,,,,,,,10,,70,72
41640,note_on,,1,0,5,,,,,,,,,,,,,,,,1,,70,72
41640,note_on,,1,0,14,,,,,,,,,,,,,,,,13,,55,72
41640,note_on,,0,0,15,,,,,,,,,,,,,,,,15,,67,64
41759,note_on,,119,0,7,,,,,,,,,,,,,,,,5,,70,0
41759,note_on,,119,0,8,,,,,,,,,,,,,,,,6,,67,0
41759,note_on,,119,0,11,,,,,,,,,,,,,,,,10,,70,0
41759,note_on,,119,0,13,,,,,,,,,,,,,,,,12,,58,0
41759,note_on,,119,0,12,,,,,,,,,,,,,,,,11,,67,0
41759,note_on,,119,0,5,,,,,,,,,,,,,,,,1,,70,0
41759,note_on,,119,0,15,,,,,,,,,,,,,,,,15,,58,0
41759,note_on,,0,0,15,,,,,,,,,,,,,,,,15,,67,0
41759,note_on,,0,0,15,,,,,,,,,,,,,,,,15,,70,0
41759,note_on,,119,0,10,,,,,,,,,,,,,,,,8,,55,0
41759,note_on,,119,0,6,,,,,,,,,,,,,,,,2,,55,0
41759,note_on,,119,0,9,,,,,,,,,,,,,,,,7,,58,0
41759,note_on,,0,0,15,,,,,,,,,,,,,,,,15,,55,0
41759,note_on,,119,0,14,,,,,,,,,,,,,,,,13,,55,0
41760,note_on,,1,0,5,,,,,,,,,,,,,,,,1,,72,72
41760,note_on,,1,0,15,,,,,,,,,,,,,,,,15,,53,64
41760,note_on,,1,0,13,,,,,,,,,,,,,,,,12,,56,72
41760,note_on,,1,0,14,,,,,,,,,,,,,,,,13,,53,72
41760,note_on,,0,0,15,,,,,,,,,,,,,,,,15,,68,64
41760,note_on,,1,0,10,,,,,,,,,,,,,,,,8,,53,72
41760,note_on,,1,0,8,,,,,,,,,,,,,,,,6,,68,72
41760,note_on,,0,0,15,,,,,,,,,,,,,,,,15,,72,64
41760,note_on,,1,0,11,,,,,,,,,,,,,,,,10,,72,72
41760,note_on,,0,0,15,,,,,,,,,,,,,,,,15,,56,64
41760,note_on,,1,0,7,,,,,,,,,,,,,,,,5,,72,72
41760,note_on,,1,0,9,,,,,,,,,,,,,,,,7,,56,72
41760,note_on,,1,0,12,,,,,,,,,,,,,,,,11,,68,72
41760,note_on,,1,0,6,,,,,,,,,,,,,,,,2,,53,72
41879,note_on,,119,0,15,,,,,,,,,,,,,,,,15,,56,0
41879,note_on,,119,0,13,,,,,,,,,,,,,,,,12,,56,0
41879,note_on,,119,0,9,,,,,,,,,,,,,,,,7,,56,0
41880,note_on,,1,0,9,,,,,,,,,,,,,,,,7,,58,72
41880,note_on,,1,0,13,,,,,,,,,,,,,,,,12,,58,72
41880,note_on,,1,0,15,,,,,,,,,,,,,,,,15,,58,64
41999,note_on,,119,0,13,,,,,,,,,,,,,,,,12,,58,0
41999,note_on,,119,0,9,,,,,,,,,,,,,,,,7,,58,0
41999,note_on,,119,0,15,,,,,,,,,,,,,,,,15,,58,0
42000,note_on,,1,0,9,,,,,,,,,,,,,,,,7,,60,72
42000,note_on,,1,0,15,,,,,,,,,,,,,,,,15,,60,64
42000,note_on,,1,0,13,,,,,,,,,,,,,,,,12,,60,72
42119,note_on,,359,0,10,,,,,,,,,,,,,,,,8,,53,0
42119,note_on,,119,0,15,,,,,,,,,,,,,,,,15,,53,0
42119,note_on,,0,0,15,,,,,,,,,,,,,,,,15,,68,0
42119,note_on,,359,0,14,,,,,,,,,,,,,,,,13,,53,0
42119,note_on,,359,0,12,,,,,,,,,,,,,,,,11,,68,0
42119,note_on,,359,0,8,,,,,,,,,,,,,,,,6,,68,0
42119,note_on,,359,0,6,,,,,,,,,,,,,,,,2,,53,0
42120,note_on,,1,0,10,,,,,,,,,,,,,,,,8,,51,72
42120,note_on,,1,0,15,,,,,,,,,,,,,,,,15,,51,64
42120,note_on,,1,0,14,,,,,,,,,,,,,,,,13,,51,72
42120,note_on,,0,0,15,,,,,,,,,,,,,,,,15,,67,64
42120,note_on,,1,0,6,,,,,,,,,,,,,,,,2,,51,72
42120,note_on,,1,0,8,,,,,,,,,,,,,,,,6,,67,72
42120,note_on,,1,0,12,,,,,,,,,,,,,,,,11,,67,72
42239,note_on,,119,0,10,,,,,,,,,,,,,,,,8,,51,0
42239,note_on,,119,0,15,,,,,,,,,,,,,,,,15,,72,0
42239,note_on,,0,0,15,,,,,,,,,,,,,,,,15,,60,0
42239,note_on,,119,0,12,,,,,,,,,,,,,,,,11,,67,0
42239,note_on,,239,0,9,,,,,,,,,,,,,,,,7,,60,0
42239,note_on,,0,0,15,,,,,,,,,,,,,,,,15,,67,0
42239,note_on,,0,0,15,,,,,,,,,,,,,,,,15,,51,0
42239,note_on,,239,0,13,,,,,,,,,,,,,,,,12,,60,0
42239,note_on,,119,0,8,,,,,,,,,,,,,,,,6,,67,0
42239,note_on,,119,0,6,,,,,,,,,,,,,,,,2,,51,0
42239,note_on,,119,0,14,,,,,,,,,,,,,,,,13,,51,0
42240,note_on,,0,0,15,,,,,,,,,,,,,,,,15,,65,64
42240,note_on,,0,0,15,,,,,,,,,,,,,,,,15,,72,64
42240,note_on,,1,0,15,,,,,,,,,,,,,,,,15,,49,64
42240,note_on,,1,0,10,,,,,,,,,,,,,,,,8,,49,72
42240,note_on,,1,0,14,,,,,,,,,,,,,,,,13,,49,72
42240,note_on,,1,0,8,,,,,,,,,,,,,,,,6,,65,72
42240,note_on,,1,0,12,,,,,,,,,,,,,,,,11,,65,72
42240,set_tempo,,42240,1,0,,,,,,,,,600000,,,,,,,,,,
42240,note_on,,1,0,9,,,,,,,,,,,,,,,,7,,61,72
42240,note_on,,1,0,13,,,,,,,,,,,,,,,,12,,61,72
42240,note_on,,1,0,6,,,,,,,,,,,,,,,,2,,49,72
42240,note_on,,0,0,15,,,,,,,,,,,,,,,,15,,53,64
42719,note_on,,959,0,7,,,,,,,,,,,,,,,,5,,72,0
42719,note_on,,479,0,15,,,,,,,,,,,,,,,,15,,72,0
42719,note_on,,959,0,11,,,,,,,,,,,,,,,,10,,72,0
42719,note_on,,0,0,15,,,,,,,,,,,,,,,,15,,53,0
42719,note_on,,0,0,15,,,,,,,,,,,,,,,,15,,65,0
42719,note_on,,959,0,5,,,,,,,,,,,,,,,,1,,72,0
42720,note_on,,1,0,7,,,,,,,,,,,,,,,,5,,70,72
42720,note_on,,0,0,15,,,,,,,,,,,,,,,,15,,65,64
42720,note_on,,1,0,5,,,,,,,,,,,,,,,,1,,70,72
42720,note_on,,0,0,15,,,,,,,,,,,,,,,,15,,70,64
42720,note_on,,1,0,11,,,,,,,,,,,,,,,,10,,70,72
42720,note_on,,1,0,15,,,,,,,,,,,,,,,,15,,58,64
43199,note_on,,479,0,5,,,,,,,,,,,,,,,,1,,70,0
43199,note_on,,959,0,9,,,,,,,,,,,,,,,,7,,61,0
43199,note_on,,959,0,12,,,,,,,,,,,,,,,,11,,65,0
43199,note_on,,959,0,13,,,,,,,,,,,,,,,,12,,61,0
43199,note_on,,479,0,11,,,,,,,,,,,,,,,,10,,70,0
43199,note_on,,959,0,8,,,,,,,,,,,,,,,,6,,65,0
43199,note_on,,479,0,15,,,,,,,,,,,,,,,,15,,49,0
43199,note_on,,0,0,15,,,,,,,,,,,,,,,,15,,58,0
43199,note_on,,959,0,6,,,,,,,,,,,,,,,,2,,49,0
43199,note_on,,0,0,15,,,,,,,,,,,,,,,,15,,70,0
43199,note_on,,479,0,7,,,,,,,,,,,,,,,,5,,70,0
43199,note_on,,0,0,15,,,,,,,,,,,,,,,,15,,65,0
43199,note_on,,959,0,14,,,,,,,,,,,,,,,,13,,49,0
43199,note_on,,959,0,10,,,,,,,,,,,,,,,,8,,49,0
43200,note_on,,0,0,15,,,,,,,,,,,,,,,,15,,55,64
43200,note_on,,1,0,15,,,,,,,,,,,,,,,,15,,48,64
43200,note_on,,0,0,15,,,,,,,,,,,,,,,,15,,72,64
43200,note_on,,0,0,15,,,,,,,,,,,,,,,,15,,67,64
43200,note_on,,0,0,15,,,,,,,,,,,,,,,,15,,64,64
43200,set_tempo,,960,1,0,,,,,,,,,705882,,,,,,,,,,
43200,note_on,,1,0,11,,,,,,,,,,,,,,,,10,,72,72
43200,note_on,,1,0,8,,,,,,,,,,,,,,,,6,,64,72
43200,note_on,,1,0,12,,,,,,,,,,,,,,,,11,,64,72
43200,note_on,,1,0,14,,,,,,,,,,,,,,,,13,,48,72
43200,note_on,,1,0,6,,,,,,,,,,,,,,,,2,,48,72
43200,note_on,,1,0,5,,,,,,,,,,,,,,,,1,,72,72
43200,end_of_track,,0,1,0,,,,,,,,,,,,,,,,,,,
43200,note_on,,1,0,13,,,,,,,,,,,,,,,,12,,55,72
43200,note_on,,1,0,9,,,,,,,,,,,,,,,,7,,55,72
43200,note_on,,1,0,7,,,,,,,,,,,,,,,,5,,72,72
43200,note_on,,1,0,10,,,,,,,,,,,,,,,,8,,48,72
44159,note_on,,959,0,15,,,,,,,,,,,,,,,,15,,48,0
44159,note_on,,0,0,15,,,,,,,,,,,,,,,,15,,72,0
44159,note_on,,959,0,13,,,,,,,,,,,,,,,,12,,55,0
44159,note_on,,959,0,5,,,,,,,,,,,,,,,,1,,72,0
44159,end_of_track,,0,1,5,,,,,,,,,,,,,,,,,,,
44159,end_of_track,,0,1,14,,,,,,,,,,,,,,,,,,,
44159,note_on,,959,0,14,,,,,,,,,,,,,,,,13,,48,0
44159,note_on,,0,0,15,,,,,,,,,,,,,,,,15,,67,0
44159,note_on,,0,0,15,,,,,,,,,,,,,,,,15,,64,0
44159,end_of_track,,0,1,13,,,,,,,,,,,,,,,,,,,
44159,note_on,,959,0,8,,,,,,,,,,,,,,,,6,,64,0
44159,note_on,,959,0,12,,,,,,,,,,,,,,,,11,,64,0
44159,end_of_track,,0,1,12,,,,,,,,,,,,,,,,,,,
44159,note_on,,0,0,15,,,,,,,,,,,,,,,,15,,55,0
44159,note_on,,959,0,6,,,,,,,,,,,,,,,,2,,48,0
44159,end_of_track,,0,1,6,,,,,,,,,,,,,,,,,,,
44159,end_of_track,,0,1,11,,,,,,,,,,,,,,,,,,,
44159,note_on,,959,0,11,,,,,,,,,,,,,,,,10,,72,0
44159,end_of_track,,0,1,10,,,,,,,,,,,,,,,,,,,
44159,note_on,,959,0,10,,,,,,,,,,,,,,,,8,,48,0
44159,end_of_track,,0,1,9,,,,,,,,,,,,,,,,,,,
44159,note_on,,959,0,9,,,,,,,,,,,,,,,,7,,55,0
44159,note_on,,959,0,7,,,,,,,,,,,,,,,,5,,72,0
44159,end_of_track,,0,1,8,,,,,,,,,,,,,,,,,,,
44159,end_of_track,,0,1,7,,,,,,,,,,,,,,,,,,,
44159,end_of_track,,0,1,15,,,,,,,,,,,,,,,,,,,
