tick,type,data,time,meta,track,frame_rate,hours,minutes,seconds,frames,sub_frames,port,key,tempo,numerator,denominator,clocks_per_click,notated_32nd_notes_per_beat,control,value,channel,program,note,velocity
0,sequencer_specific,"(0, 0, 91, 35, 1, 0, 5, 4, 35, 0)",0,1,0,,,,,,,,,,,,,,,,,,,
0,track_name,,0,1,6,,,,,,,,,,,,,,,,,,,
0,control_change,,0,0,9,,,,,,,,,,,,,,11,127,13,,,
0,control_change,,0,0,9,,,,,,,,,,,,,,7,96,13,,,
0,control_change,,0,0,9,,,,,,,,,,,,,,10,90,13,,,
0,program_change,,0,0,9,,,,,,,,,,,,,,,,13,48,,
0,note_on,,0,0,9,,,,,,,,,,,,,,,,13,,55,64
0,midi_port,,0,1,6,,,,,,,0,,,,,,,,,,,,
0,track_name,,0,1,10,,,,,,,,,,,,,,,,,,,
0,control_change,,0,0,10,,,,,,,,,,,,,,11,127,15,,,
0,control_change,,0,0,10,,,,,,,,,,,,,,7,96,15,,,
0,control_change,,0,0,10,,,,,,,,,,,,,,10,80,15,,,
0,program_change,,0,0,10,,,,,,,,,,,,,,,,15,6,,
0,note_on,,0,0,10,,,,,,,,,,,,,,,,15,,55,64
0,note_on,,0,0,10,,,,,,,,,,,,,,,,15,,67,64
0,midi_port,,0,1,10,,,,,,,0,,,,,,,,,,,,
0,note_on,,0,0,10,,,,,,,,,,,,,,,,15,,62,64
0,control_change,,0,0,6,,,,,,,,,,,,,,11,127,5,,,
0,control_change,,0,0,6,,,,,,,,,,,,,,7,96,5,,,
0,control_change,,0,0,7,,,,,,,,,,,,,,11,127,10,,,
0,control_change,,0,0,7,,,,,,,,,,,,,,7,88,10,,,
0,control_change,,0,0,7,,,,,,,,,,,,,,10,48,10,,,
0,program_change,,0,0,7,,,,,,,,,,,,,,,,10,48,,
0,track_name,,0,1,8,,,,,,,,,,,,,,,,,,,
0,midi_port,,0,1,8,,,,,,,0,,,,,,,,,,,,
0,control_change,,0,0,6,,,,,,,,,,,,,,10,70,5,,,
0,control_change,,0,0,8,,,,,,,,,,,,,,11,127,11,,,
0,control_change,,0,0,8,,,,,,,,,,,,,,10,24,11,,,
0,program_change,,0,0,8,,,,,,,,,,,,,,,,11,48,,
0,midi_port,,0,1,7,,,,,,,0,,,,,,,,,,,,
0,track_name,,0,1,9,,,,,,,,,,,,,,,,,,,
0,midi_port,,0,1,9,,,,,,,0,,,,,,,,,,,,
0,program_change,,0,0,6,,,,,,,,,,,,,,,,5,73,,
0,control_change,,0,0,8,,,,,,,,,,,,,,7,88,11,,,
0,note_on,,0,0,10,,,,,,,,,,,,,,,,15,,58,64
0,track_name,,0,1,7,,,,,,,,,,,,,,,,,,,
0,track_name,,0,1,5,,,,,,,,,,,,,,,,,,,
0,track_name,,0,1,3,,,,,,,,,,,,,,,,,,,
0,midi_port,,0,1,3,,,,,,,0,,,,,,,,,,,,
0,end_of_track,,0,1,3,,,,,,,,,,,,,,,,,,,
0,midi_port,,0,1,4,,,,,,,0,,,,,,,,,,,,
0,end_of_track,,0,1,4,,,,,,,,,,,,,,,,,,,
0,midi_port,,0,1,5,,,,,,,0,,,,,,,,,,,,
0,end_of_track,,0,1,2,,,,,,,,,,,,,,,,,,,
0,control_change,,0,0,5,,,,,,,,,,,,,,11,127,2,,,
0,control_change,,0,0,5,,,,,,,,,,,,,,10,65,2,,,
0,program_change,,0,0,5,,,,,,,,,,,,,,,,2,70,,
0,track_name,,0,1,0,,,,,,,,,,,,,,,,,,,
0,instrument_name,,0,1,0,,,,,,,,,,,,,,,,,,,
0,smpte_offset,,0,1,0,25,32,0,3,0,0,,,,,,,,,,,,,
0,midi_port,,0,1,0,,,,,,,0,,,,,,,,,,,,
0,control_change,,0,0,5,,,,,,,,,,,,,,7,80,2,,,
0,midi_port,,0,1,2,,,,,,,0,,,,,,,,,,,,
0,note_on,,0,0,5,,,,,,,,,,,,,,,,2,,55,64
0,end_of_track,,0,1,1,,,,,,,,,,,,,,,,,,,
0,midi_port,,0,1,1,,,,,,,0,,,,,,,,,,,,
0,track_name,,0,1,1,,,,,,,,,,,,,,,,,,,
0,time_signature,,0,1,0,,,,,,,,,,3,4,24,8,,,,,,
0,set_tempo,,0,1,0,,,,,,,,,705882,,,,,,,,,,
0,key_signature,,0,1,0,,,,,,,,Gm,,,,,,,,,,,
0,track_name,,0,1,2,,,,,,,,,,,,,,,,,,,
239,note_on,,239,0,5,,,,,,,,,,,,,,,,2,,55,0
239,note_on,,239,0,10,,,,,,,,,,,,,,,,15,,55,0
239,note_on,,0,0,10,,,,,,,,,,,,,,,,15,,67,0
239,note_on,,0,0,10,,,,,,,,,,,,,,,,15,,62,0
239,note_on,,0,0,10,,,,,,,,,,,,,,,,15,,58,0
239,note_on,,239,0,9,,,,,,,,,,,,,,,,13,,55,0
240,note_on,,240,0,7,,,,,,,,,,,,,,,,10,,67,64
240,note_on,,240,0,8,,,,,,,,,,,,,,,,11,,67,64
359,note_on,,119,0,8,,,,,,,,,,,,,,,,11,,67,0
359,note_on,,119,0,7,,,,,,,,,,,,,,,,10,,67,0
360,note_on,,1,0,8,,,,,,,,,,,,,,,,11,,70,64
360,note_on,,1,0,7,,,,,,,,,,,,,,,,10,,70,64
479,note_on,,119,0,7,,,,,,,,,,,,,,,,10,,70,0
479,note_on,,119,0,8,,,,,,,,,,,,,,,,11,,70,0
480,note_on,,1,0,7,,,,,,,,,,,,,,,,10,,69,64
480,note_on,,1,0,8,,,,,,,,,,,,,,,,11,,69,64
599,note_on,,119,0,8,,,,,,,,,,,,,,,,11,,69,0
599,note_on,,119,0,7,,,,,,,,,,,,,,,,10,,69,0
600,note_on,,361,0,9,,,,,,,,,,,,,,,,13,,43,64
600,note_on,,361,0,10,,,,,,,,,,,,,,,,15,,43,64
600,note_on,,1,0,7,,,,,,,,,,,,,,,,10,,67,64
600,note_on,,0,0,10,,,,,,,,,,,,,,,,15,,62,64
600,note_on,,0,0,10,,,,,,,,,,,,,,,,15,,67,64
600,note_on,,361,0,5,,,,,,,,,,,,,,,,2,,43,64
600,note_on,,0,0,10,,,,,,,,,,,,,,,,15,,70,64
600,note_on,,1,0,8,,,,,,,,,,,,,,,,11,,67,64
719,note_on,,0,0,10,,,,,,,,,,,,,,,,15,,62,0
719,note_on,,0,0,10,,,,,,,,,,,,,,,,15,,67,0
719,note_on,,0,0,10,,,,,,,,,,,,,,,,15,,70,0
719,note_on,,119,0,10,,,,,,,,,,,,,,,,15,,43,0
719,note_on,,119,0,8,,,,,,,,,,,,,,,,11,,67,0
719,note_on,,119,0,5,,,,,,,,,,,,,,,,2,,43,0
719,note_on,,119,0,7,,,,,,,,,,,,,,,,10,,67,0
719,note_on,,119,0,9,,,,,,,,,,,,,,,,13,,43,0
720,note_on,,1,0,8,,,,,,,,,,,,,,,,11,,74,64
720,note_on,,1,0,5,,,,,,,,,,,,,,,,2,,46,64
720,note_on,,1,0,7,,,,,,,,,,,,,,,,10,,74,64
720,note_on,,1,0,9,,,,,,,,,,,,,,,,13,,46,64
720,note_on,,0,0,10,,,,,,,,,,,,,,,,15,,74,64
720,note_on,,1,0,10,,,,,,,,,,,,,,,,15,,67,64
720,note_on,,0,0,10,,,,,,,,,,,,,,,,15,,46,64
839,note_on,,0,0,10,,,,,,,,,,,,,,,,15,,74,0
839,note_on,,119,0,10,,,,,,,,,,,,,,,,15,,46,0
839,note_on,,119,0,9,,,,,,,,,,,,,,,,13,,46,0
839,note_on,,119,0,5,,,,,,,,,,,,,,,,2,,46,0
840,note_on,,1,0,10,,,,,,,,,,,,,,,,15,,45,64
840,note_on,,1,0,9,,,,,,,,,,,,,,,,13,,45,64
840,note_on,,0,0,10,,,,,,,,,,,,,,,,15,,72,64
840,note_on,,1,0,5,,,,,,,,,,,,,,,,2,,45,64
959,note_on,,0,0,10,,,,,,,,,,,,,,,,15,,45,0
959,note_on,,0,0,10,,,,,,,,,,,,,,,,15,,72,0
959,note_on,,119,0,5,,,,,,,,,,,,,,,,2,,45,0
959,note_on,,119,0,10,,,,,,,,,,,,,,,,15,,67,0
959,note_on,,239,0,8,,,,,,,,,,,,,,,,11,,74,0
959,note_on,,239,0,7,,,,,,,,,,,,,,,,10,,74,0
959,note_on,,119,0,9,,,,,,,,,,,,,,,,13,,45,0
960,note_on,,1,0,8,,,,,,,,,,,,,,,,11,,79,64
960,note_on,,1,0,5,,,,,,,,,,,,,,,,2,,43,64
960,note_on,,1,0,9,,,,,,,,,,,,,,,,13,,43,64
960,note_on,,1,0,7,,,,,,,,,,,,,,,,10,,79,64
960,note_on,,1,0,10,,,,,,,,,,,,,,,,15,,43,64
960,note_on,,0,0,10,,,,,,,,,,,,,,,,15,,70,64
960,note_on,,0,0,10,,,,,,,,,,,,,,,,15,,67,64
1079,note_on,,0,0,10,,,,,,,,,,,,,,,,15,,70,0
1079,note_on,,119,0,5,,,,,,,,,,,,,,,,2,,43,0
1079,note_on,,119,0,7,,,,,,,,,,,,,,,,10,,79,0
1079,note_on,,119,0,10,,,,,,,,,,,,,,,,15,,43,0
1079,note_on,,119,0,9,,,,,,,,,,,,,,,,13,,43,0
1079,note_on,,119,0,8,,,,,,,,,,,,,,,,11,,79,0
1079,note_on,,0,0,10,,,,,,,,,,,,,,,,15,,67,0
1080,note_on,,1,0,7,,,,,,,,,,,,,,,,10,,77,64
1080,note_on,,1,0,5,,,,,,,,,,,,,,,,2,,50,64
1080,note_on,,1,0,8,,,,,,,,,,,,,,,,11,,77,64
1080,note_on,,1,0,9,,,,,,,,,,,,,,,,13,,50,64
1080,note_on,,0,0,10,,,,,,,,,,,,,,,,15,,65,64
1080,note_on,,1,0,10,,,,,,,,,,,,,,,,15,,50,64
1080,note_on,,0,0,10,,,,,,,,,,,,,,,,15,,69,64
1080,note_on,,0,0,10,,,,,,,,,,,,,,,,15,,74,64
1259,note_on,,179,0,7,,,,,,,,,,,,,,,,10,,77,0
1259,note_on,,179,0,8,,,,,,,,,,,,,,,,11,,77,0
1260,note_on,,1,0,8,,,,,,,,,,,,,,,,11,,79,64
1260,note_on,,1,0,7,,,,,,,,,,,,,,,,10,,79,64
1319,note_on,,0,0,10,,,,,,,,,,,,,,,,15,,65,0
1319,note_on,,0,0,10,,,,,,,,,,,,,,,,15,,69,0
1319,note_on,,0,0,10,,,,,,,,,,,,,,,,15,,74,0
1319,note_on,,239,0,10,,,,,,,,,,,,,,,,15,,50,0
1319,note_on,,59,0,7,,,,,,,,,,,,,,,,10,,79,0
1319,note_on,,59,0,8,,,,,,,,,,,,,,,,11,,79,0
1319,note_on,,239,0,5,,,,,,,,,,,,,,,,2,,50,0
1319,note_on,,239,0,9,,,,,,,,,,,,,,,,13,,50,0
1320,note_on,,1,0,7,,,,,,,,,,,,,,,,10,,75,64
1320,note_on,,1,0,9,,,,,,,,,,,,,,,,13,,55,64
1320,note_on,,1,0,10,,,,,,,,,,,,,,,,15,,55,64
1320,note_on,,0,0,10,,,,,,,,,,,,,,,,15,,70,64
1320,note_on,,0,0,10,,,,,,,,,,,,,,,,15,,58,64
1320,note_on,,0,0,10,,,,,,,,,,,,,,,,15,,67,64
1320,note_on,,1,0,5,,,,,,,,,,,,,,,,2,,55,64
1320,note_on,,1,0,8,,,,,,,,,,,,,,,,11,,75,64
1439,note_on,,0,0,10,,,,,,,,,,,,,,,,15,,67,0
1439,note_on,,0,0,10,,,,,,,,,,,,,,,,15,,70,0
1439,note_on,,119,0,10,,,,,,,,,,,,,,,,15,,55,0
1439,note_on,,0,0,10,,,,,,,,,,,,,,,,15,,58,0
1439,note_on,,119,0,9,,,,,,,,,,,,,,,,13,,55,0
1439,note_on,,119,0,8,,,,,,,,,,,,,,,,11,,75,0
1439,note_on,,119,0,5,,,,,,,,,,,,,,,,2,,55,0
1439,note_on,,119,0,7,,,,,,,,,,,,,,,,10,,75,0
1440,note_on,,0,0,10,,,,,,,,,,,,,,,,15,,69,64
1440,note_on,,1,0,9,,,,,,,,,,,,,,,,13,,53,64
1440,note_on,,1,0,8,,,,,,,,,,,,,,,,11,,75,64
1440,note_on,,1,0,5,,,,,,,,,,,,,,,,2,,53,64
1440,note_on,,1,0,10,,,,,,,,,,,,,,,,15,,53,64
1440,note_on,,0,0,10,,,,,,,,,,,,,,,,15,,72,64
1440,note_on,,0,0,10,,,,,,,,,,,,,,,,15,,65,64
1440,note_on,,1,0,7,,,,,,,,,,,,,,,,10,,75,64
1619,note_on,,179,0,7,,,,,,,,,,,,,,,,10,,75,0
1619,note_on,,179,0,8,,,,,,,,,,,,,,,,11,,75,0
1620,note_on,,1,0,7,,,,,,,,,,,,,,,,10,,77,64
1620,note_on,,1,0,8,,,,,,,,,,,,,,,,11,,77,64
1679,note_on,,239,0,9,,,,,,,,,,,,,,,,13,,53,0
1679,note_on,,59,0,7,,,,,,,,,,,,,,,,10,,77,0
1679,note_on,,59,0,8,,,,,,,,,,,,,,,,11,,77,0
1679,note_on,,0,0,10,,,,,,,,,,,,,,,,15,,65,0
1679,note_on,,0,0,10,,,,,,,,,,,,,,,,15,,69,0
1679,note_on,,0,0,10,,,,,,,,,,,,,,,,15,,72,0
1679,note_on,,239,0,10,,,,,,,,,,,,,,,,15,,53,0
1679,note_on,,239,0,5,,,,,,,,,,,,,,,,2,,53,0
1680,note_on,,1,0,9,,,,,,,,,,,,,,,,13,,46,64
1680,note_on,,1,0,8,,,,,,,,,,,,,,,,11,,74,64
1680,note_on,,1,0,7,,,,,,,,,,,,,,,,10,,74,64
1680,note_on,,1,0,5,,,,,,,,,,,,,,,,2,,46,64
1680,note_on,,0,0,10,,,,,,,,,,,,,,,,15,,70,64
1680,note_on,,0,0,10,,,,,,,,,,,,,,,,15,,65,64
1680,note_on,,0,0,10,,,,,,,,,,,,,,,,15,,74,64
1680,note_on,,1,0,10,,,,,,,,,,,,,,,,15,,46,64
1799,note_on,,119,0,9,,,,,,,,,,,,,,,,13,,46,0
1799,note_on,,0,0,10,,,,,,,,,,,,,,,,15,,70,0
1799,note_on,,0,0,10,,,,,,,,,,,,,,,,15,,74,0
1799,note_on,,119,0,10,,,,,,,,,,,,,,,,15,,46,0
1799,note_on,,119,0,8,,,,,,,,,,,,,,,,11,,74,0
1799,note_on,,0,0,10,,,,,,,,,,,,,,,,15,,65,0
1799,note_on,,119,0,7,,,,,,,,,,,,,,,,10,,74,0
1799,note_on,,119,0,5,,,,,,,,,,,,,,,,2,,46,0
1800,note_on,,0,0,10,,,,,,,,,,,,,,,,15,,63,64
1800,note_on,,1,0,8,,,,,,,,,,,,,,,,11,,74,64
1800,note_on,,1,0,5,,,,,,,,,,,,,,,,2,,51,64
1800,note_on,,1,0,10,,,,,,,,,,,,,,,,15,,51,64
1800,note_on,,1,0,7,,,,,,,,,,,,,,,,10,,74,64
1800,note_on,,1,0,9,,,,,,,,,,,,,,,,13,,51,64
1800,note_on,,0,0,10,,,,,,,,,,,,,,,,15,,67,64
1979,note_on,,179,0,8,,,,,,,,,,,,,,,,11,,74,0
1979,note_on,,179,0,7,,,,,,,,,,,,,,,,10,,74,0
1980,note_on,,1,0,7,,,,,,,,,,,,,,,,10,,75,64
1980,note_on,,1,0,8,,,,,,,,,,,,,,,,11,,75,64
2039,note_on,,59,0,7,,,,,,,,,,,,,,,,10,,75,0
2039,note_on,,239,0,9,,,,,,,,,,,,,,,,13,,51,0
2039,note_on,,239,0,5,,,,,,,,,,,,,,,,2,,51,0
2039,note_on,,59,0,8,,,,,,,,,,,,,,,,11,,75,0
2039,note_on,,239,0,10,,,,,,,,,,,,,,,,15,,51,0
2040,note_on,,1,0,9,,,,,,,,,,,,,,,,13,,63,64
2040,note_on,,1,0,5,,,,,,,,,,,,,,,,2,,63,64
2040,note_on,,1,0,7,,,,,,,,,,,,,,,,10,,72,64
2040,note_on,,1,0,8,,,,,,,,,,,,,,,,11,,72,64
2159,note_on,,119,0,9,,,,,,,,,,,,,,,,13,,63,0
2159,note_on,,119,0,5,,,,,,,,,,,,,,,,2,,63,0
2159,note_on,,119,0,7,,,,,,,,,,,,,,,,10,,72,0
2159,note_on,,120,0,10,,,,,,,,,,,,,,,,15,,67,0
2159,note_on,,0,0,10,,,,,,,,,,,,,,,,15,,63,0
2159,note_on,,119,0,8,,,,,,,,,,,,,,,,11,,72,0
2160,note_on,,1,0,9,,,,,,,,,,,,,,,,13,,54,64
2160,note_on,,1,0,5,,,,,,,,,,,,,,,,2,,54,64
2160,note_on,,1,0,8,,,,,,,,,,,,,,,,11,,72,64
2160,note_on,,0,0,10,,,,,,,,,,,,,,,,15,,60,64
2160,note_on,,0,0,10,,,,,,,,,,,,,,,,15,,62,64
2160,note_on,,0,0,10,,,,,,,,,,,,,,,,15,,69,64
2160,note_on,,1,0,10,,,,,,,,,,,,,,,,15,,54,64
2160,note_on,,1,0,7,,,,,,,,,,,,,,,,10,,72,64
2339,note_on,,179,0,7,,,,,,,,,,,,,,,,10,,72,0
2339,note_on,,179,0,8,,,,,,,,,,,,,,,,11,,72,0
2340,note_on,,1,0,7,,,,,,,,,,,,,,,,10,,74,64
2340,note_on,,1,0,8,,,,,,,,,,,,,,,,11,,74,64
2399,note_on,,239,0,10,,,,,,,,,,,,,,,,15,,54,0
2399,note_on,,0,0,10,,,,,,,,,,,,,,,,15,,69,0
2399,note_on,,0,0,10,,,,,,,,,,,,,,,,15,,62,0
2399,note_on,,0,0,10,,,,,,,,,,,,,,,,15,,60,0
2399,note_on,,59,0,7,,,,,,,,,,,,,,,,10,,74,0
2399,note_on,,59,0,8,,,,,,,,,,,,,,,,11,,74,0
2399,note_on,,239,0,9,,,,,,,,,,,,,,,,13,,54,0
2399,note_on,,239,0,5,,,,,,,,,,,,,,,,2,,54,0
2400,note_on,,0,0,10,,,,,,,,,,,,,,,,15,,67,64
2400,note_on,,1,0,9,,,,,,,,,,,,,,,,13,,55,64
2400,note_on,,0,0,10,,,,,,,,,,,,,,,,15,,58,64
2400,note_on,,0,0,10,,,,,,,,,,,,,,,,15,,62,64
2400,note_on,,1,0,8,,,,,,,,,,,,,,,,11,,70,64
2400,note_on,,1,0,10,,,,,,,,,,,,,,,,15,,55,64
2400,note_on,,1,0,7,,,,,,,,,,,,,,,,10,,70,64
2400,note_on,,1,0,5,,,,,,,,,,,,,,,,2,,55,64
2459,note_on,,59,0,7,,,,,,,,,,,,,,,,10,,70,0
2459,note_on,,59,0,8,,,,,,,,,,,,,,,,11,,70,0
2460,note_on,,1,0,8,,,,,,,,,,,,,,,,11,,69,64
2460,note_on,,1,0,7,,,,,,,,,,,,,,,,10,,69,64
2519,note_on,,59,0,8,,,,,,,,,,,,,,,,11,,69,0
2519,note_on,,59,0,7,,,,,,,,,,,,,,,,10,,69,0
2519,note_on,,119,0,5,,,,,,,,,,,,,,,,2,,55,0
2519,note_on,,119,0,10,,,,,,,,,,,,,,,,15,,55,0
2519,note_on,,119,0,9,,,,,,,,,,,,,,,,13,,55,0
2520,note_on,,1,0,8,,,,,,,,,,,,,,,,11,,70,64
2520,note_on,,1,0,9,,,,,,,,,,,,,,,,13,,53,64
2520,note_on,,1,0,7,,,,,,,,,,,,,,,,10,,70,64
2520,note_on,,1,0,10,,,,,,,,,,,,,,,,15,,53,64
2520,note_on,,1,0,5,,,,,,,,,,,,,,,,2,,53,64
2579,note_on,,59,0,8,,,,,,,,,,,,,,,,11,,70,0
2579,note_on,,59,0,7,,,,,,,,,,,,,,,,10,,70,0
2580,note_on,,1,0,8,,,,,,,,,,,,,,,,11,,72,64
2580,note_on,,1,0,7,,,,,,,,,,,,,,,,10,,72,64
2639,note_on,,119,0,9,,,,,,,,,,,,,,,,13,,53,0
2639,note_on,,119,0,10,,,,,,,,,,,,,,,,15,,67,0
2639,note_on,,0,0,10,,,,,,,,,,,,,,,,15,,62,0
2639,note_on,,59,0,7,,,,,,,,,,,,,,,,10,,72,0
2639,note_on,,0,0,10,,,,,,,,,,,,,,,,15,,58,0
2639,note_on,,119,0,5,,,,,,,,,,,,,,,,2,,53,0
2639,note_on,,0,0,10,,,,,,,,,,,,,,,,15,,53,0
2639,note_on,,59,0,8,,,,,,,,,,,,,,,,11,,72,0
2640,note_on,,1,0,10,,,,,,,,,,,,,,,,15,,51,64
2640,note_on,,0,0,10,,,,,,,,,,,,,,,,15,,67,64
2640,note_on,,0,0,10,,,,,,,,,,,,,,,,15,,60,64
2640,note_on,,1,0,7,,,,,,,,,,,,,,,,10,,72,64
2640,note_on,,1,0,8,,,,,,,,,,,,,,,,11,,72,64
2640,note_on,,1,0,9,,,,,,,,,,,,,,,,13,,51,64
2640,note_on,,0,0,10,,,,,,,,,,,,,,,,15,,72,64
2640,note_on,,1,0,5,,,,,,,,,,,,,,,,2,,51,64
2654,note_on,,14,0,7,,,,,,,,,,,,,,,,10,,72,0
2654,note_on,,14,0,8,,,,,,,,,,,,,,,,11,,72,0
2655,note_on,,1,0,8,,,,,,,,,,,,,,,,11,,74,64
2655,note_on,,1,0,7,,,,,,,,,,,,,,,,10,,74,64
2669,note_on,,14,0,7,,,,,,,,,,,,,,,,10,,74,0
2669,note_on,,14,0,8,,,,,,,,,,,,,,,,11,,74,0
2670,note_on,,1,0,8,,,,,,,,,,,,,,,,11,,72,64
2670,note_on,,1,0,7,,,,,,,,,,,,,,,,10,,72,64
2684,note_on,,14,0,7,,,,,,,,,,,,,,,,10,,72,0
2684,note_on,,14,0,8,,,,,,,,,,,,,,,,11,,72,0
2685,note_on,,1,0,8,,,,,,,,,,,,,,,,11,,74,64
2685,note_on,,1,0,7,,,,,,,,,,,,,,,,10,,74,64
2699,note_on,,14,0,8,,,,,,,,,,,,,,,,11,,74,0
2699,note_on,,14,0,7,,,,,,,,,,,,,,,,10,,74,0
2700,note_on,,1,0,7,,,,,,,,,,,,,,,,10,,72,64
2700,note_on,,1,0,8,,,,,,,,,,,,,,,,11,,72,64
2714,note_on,,14,0,8,,,,,,,,,,,,,,,,11,,72,0
2714,note_on,,14,0,7,,,,,,,,,,,,,,,,10,,72,0
2715,note_on,,1,0,7,,,,,,,,,,,,,,,,10,,74,64
2715,note_on,,1,0,8,,,,,,,,,,,,,,,,11,,74,64
2729,note_on,,14,0,7,,,,,,,,,,,,,,,,10,,74,0
2729,note_on,,14,0,8,,,,,,,,,,,,,,,,11,,74,0
2730,note_on,,1,0,7,,,,,,,,,,,,,,,,10,,72,64
2730,note_on,,1,0,8,,,,,,,,,,,,,,,,11,,72,64
2744,note_on,,14,0,7,,,,,,,,,,,,,,,,10,,72,0
2744,note_on,,14,0,8,,,,,,,,,,,,,,,,11,,72,0
2745,note_on,,1,0,7,,,,,,,,,,,,,,,,10,,74,64
2745,note_on,,1,0,8,,,,,,,,,,,,,,,,11,,74,64
2759,note_on,,14,0,8,,,,,,,,,,,,,,,,11,,74,0
2759,note_on,,14,0,7,,,,,,,,,,,,,,,,10,,74,0
2760,note_on,,1,0,7,,,,,,,,,,,,,,,,10,,72,64
2760,note_on,,1,0,8,,,,,,,,,,,,,,,,11,,72,64
2774,note_on,,14,0,8,,,,,,,,,,,,,,,,11,,72,0
2774,note_on,,14,0,7,,,,,,,,,,,,,,,,10,,72,0
2775,note_on,,1,0,8,,,,,,,,,,,,,,,,11,,74,64
2775,note_on,,1,0,7,,,,,,,,,,,,,,,,10,,74,64
2789,note_on,,14,0,8,,,,,,,,,,,,,,,,11,,74,0
2789,note_on,,14,0,7,,,,,,,,,,,,,,,,10,,74,0
2790,note_on,,1,0,8,,,,,,,,,,,,,,,,11,,70,64
2790,note_on,,1,0,7,,,,,,,,,,,,,,,,10,,70,64
2804,note_on,,14,0,8,,,,,,,,,,,,,,,,11,,70,0
2804,note_on,,14,0,7,,,,,,,,,,,,,,,,10,,70,0
2805,note_on,,1,0,8,,,,,,,,,,,,,,,,11,,72,64
2805,note_on,,1,0,7,,,,,,,,,,,,,,,,10,,72,64
2819,note_on,,14,0,8,,,,,,,,,,,,,,,,11,,72,0
2819,note_on,,14,0,7,,,,,,,,,,,,,,,,10,,72,0
2820,note_on,,1,0,8,,,,,,,,,,,,,,,,11,,74,64
2820,note_on,,1,0,7,,,,,,,,,,,,,,,,10,,74,64
2879,note_on,,239,0,10,,,,,,,,,,,,,,,,15,,51,0
2879,note_on,,0,0,10,,,,,,,,,,,,,,,,15,,72,0
2879,note_on,,0,0,10,,,,,,,,,,,,,,,,15,,67,0
2879,note_on,,0,0,10,,,,,,,,,,,,,,,,15,,60,0
2879,note_on,,59,0,8,,,,,,,,,,,,,,,,11,,74,0
2879,note_on,,59,0,7,,,,,,,,,,,,,,,,10,,74,0
2879,note_on,,239,0,5,,,,,,,,,,,,,,,,2,,51,0
2879,note_on,,239,0,9,,,,,,,,,,,,,,,,13,,51,0
2880,note_on,,1,0,9,,,,,,,,,,,,,,,,13,,50,64
2880,note_on,,1,0,8,,,,,,,,,,,,,,,,11,,74,64
2880,note_on,,0,0,10,,,,,,,,,,,,,,,,15,,57,64
2880,note_on,,0,0,10,,,,,,,,,,,,,,,,15,,66,64
2880,note_on,,0,0,10,,,,,,,,,,,,,,,,15,,62,64
2880,note_on,,1,0,5,,,,,,,,,,,,,,,,2,,50,64
2880,note_on,,1,0,7,,,,,,,,,,,,,,,,10,,74,64
2880,note_on,,1,0,10,,,,,,,,,,,,,,,,15,,50,64
2999,note_on,,119,0,9,,,,,,,,,,,,,,,,13,,50,0
2999,note_on,,119,0,5,,,,,,,,,,,,,,,,2,,50,0
2999,note_on,,119,0,10,,,,,,,,,,,,,,,,15,,50,0
2999,note_on,,0,0,10,,,,,,,,,,,,,,,,15,,66,0
2999,note_on,,0,0,10,,,,,,,,,,,,,,,,15,,57,0
3000,note_on,,1,0,5,,,,,,,,,,,,,,,,2,,46,64
3000,note_on,,0,0,10,,,,,,,,,,,,,,,,15,,67,64
3000,note_on,,0,0,10,,,,,,,,,,,,,,,,15,,58,64
3000,note_on,,1,0,10,,,,,,,,,,,,,,,,15,,46,64
3000,note_on,,1,0,9,,,,,,,,,,,,,,,,13,,46,64
3119,note_on,,0,0,10,,,,,,,,,,,,,,,,15,,46,0
3119,note_on,,0,0,10,,,,,,,,,,,,,,,,15,,67,0
3119,note_on,,0,0,10,,,,,,,,,,,,,,,,15,,58,0
3119,note_on,,239,0,8,,,,,,,,,,,,,,,,11,,74,0
3119,note_on,,119,0,10,,,,,,,,,,,,,,,,15,,62,0
3119,note_on,,119,0,5,,,,,,,,,,,,,,,,2,,46,0
3119,note_on,,239,0,7,,,,,,,,,,,,,,,,10,,74,0
3119,note_on,,119,0,9,,,,,,,,,,,,,,,,13,,46,0
3120,note_on,,1,0,8,,,,,,,,,,,,,,,,11,,74,64
3120,note_on,,1,0,5,,,,,,,,,,,,,,,,2,,43,64
3120,note_on,,1,0,9,,,,,,,,,,,,,,,,13,,43,64
3120,note_on,,1,0,7,,,,,,,,,,,,,,,,10,,74,64
3120,note_on,,1,0,10,,,,,,,,,,,,,,,,15,,43,64
3120,note_on,,0,0,10,,,,,,,,,,,,,,,,15,,67,64
3120,note_on,,0,0,10,,,,,,,,,,,,,,,,15,,70,64
3120,note_on,,0,0,10,,,,,,,,,,,,,,,,15,,62,64
3239,note_on,,0,0,10,,,,,,,,,,,,,,,,15,,67,0
3239,note_on,,0,0,10,,,,,,,,,,,,,,,,15,,62,0
3239,note_on,,119,0,5,,,,,,,,,,,,,,,,2,,43,0
3239,note_on,,0,0,10,,,,,,,,,,,,,,,,15,,70,0
3239,note_on,,119,0,9,,,,,,,,,,,,,,,,13,,43,0
3239,note_on,,119,0,7,,,,,,,,,,,,,,,,10,,74,0
3239,note_on,,119,0,8,,,,,,,,,,,,,,,,11,,74,0
3239,note_on,,119,0,10,,,,,,,,,,,,,,,,15,,43,0
3240,note_on,,1,0,9,,,,,,,,,,,,,,,,13,,48,64
3240,note_on,,1,0,8,,,,,,,,,,,,,,,,11,,75,64
3240,note_on,,0,0,10,,,,,,,,,,,,,,,,15,,67,64
3240,note_on,,0,0,10,,,,,,,,,,,,,,,,15,,63,64
3240,note_on,,1,0,7,,,,,,,,,,,,,,,,10,,75,64
3240,note_on,,1,0,10,,,,,,,,,,,,,,,,15,,48,64
3240,note_on,,0,0,10,,,,,,,,,,,,,,,,15,,72,64
3240,note_on,,1,0,5,,,,,,,,,,,,,,,,2,,48,64
3299,note_on,,59,0,8,,,,,,,,,,,,,,,,11,,75,0
3299,note_on,,59,0,7,,,,,,,,,,,,,,,,10,,75,0
3300,note_on,,1,0,7,,,,,,,,,,,,,,,,10,,79,64
3300,note_on,,1,0,8,,,,,,,,,,,,,,,,11,,79,64
3359,note_on,,119,0,5,,,,,,,,,,,,,,,,2,,48,0
3359,note_on,,59,0,7,,,,,,,,,,,,,,,,10,,79,0
3359,note_on,,59,0,8,,,,,,,,,,,,,,,,11,,79,0
3359,note_on,,119,0,10,,,,,,,,,,,,,,,,15,,48,0
3359,note_on,,0,0,10,,,,,,,,,,,,,,,,15,,72,0
3359,note_on,,0,0,10,,,,,,,,,,,,,,,,15,,67,0
3359,note_on,,0,0,10,,,,,,,,,,,,,,,,15,,63,0
3359,note_on,,119,0,9,,,,,,,,,,,,,,,,13,,48,0
3360,note_on,,1,0,8,,,,,,,,,,,,,,,,11,,72,64
3360,note_on,,1,0,7,,,,,,,,,,,,,,,,10,,72,64
3419,note_on,,59,0,8,,,,,,,,,,,,,,,,11,,72,0
3419,note_on,,59,0,7,,,,,,,,,,,,,,,,10,,72,0
3420,note_on,,1,0,7,,,,,,,,,,,,,,,,10,,75,64
3420,note_on,,1,0,8,,,,,,,,,,,,,,,,11,,75,64
3479,note_on,,59,0,8,,,,,,,,,,,,,,,,11,,75,0
3479,note_on,,59,0,7,,,,,,,,,,,,,,,,10,,75,0
3480,note_on,,1,0,7,,,,,,,,,,,,,,,,10,,69,64
3480,note_on,,1,0,8,,,,,,,,,,,,,,,,11,,69,64
3539,note_on,,59,0,7,,,,,,,,,,,,,,,,10,,69,0
3539,note_on,,59,0,8,,,,,,,,,,,,,,,,11,,69,0
3540,note_on,,1,0,8,,,,,,,,,,,,,,,,11,,72,64
3540,note_on,,1,0,7,,,,,,,,,,,,,,,,10,,72,64
3599,note_on,,59,0,8,,,,,,,,,,,,,,,,11,,72,0
3599,note_on,,59,0,7,,,,,,,,,,,,,,,,10,,72,0
3600,note_on,,1,0,7,,,,,,,,,,,,,,,,10,,65,64
3600,note_on,,0,0,10,,,,,,,,,,,,,,,,15,,65,64
3600,note_on,,0,0,10,,,,,,,,,,,,,,,,15,,60,64
3600,note_on,,241,0,5,,,,,,,,,,,,,,,,2,,57,64
3600,note_on,,1,0,8,,,,,,,,,,,,,,,,11,,65,64
3600,note_on,,241,0,10,,,,,,,,,,,,,,,,15,,57,64
3600,note_on,,0,0,10,,,,,,,,,,,,,,,,15,,72,64
3600,note_on,,241,0,9,,,,,,,,,,,,,,,,13,,57,64
3719,note_on,,119,0,9,,,,,,,,,,,,,,,,13,,57,0
3719,note_on,,119,0,5,,,,,,,,,,,,,,,,2,,57,0
3719,note_on,,0,0,10,,,,,,,,,,,,,,,,15,,60,0
3719,note_on,,0,0,10,,,,,,,,,,,,,,,,15,,65,0
3719,note_on,,0,0,10,,,,,,,,,,,,,,,,15,,72,0
3719,note_on,,119,0,10,,,,,,,,,,,,,,,,15,,57,0
3779,note_on,,179,0,8,,,,,,,,,,,,,,,,11,,65,0
3779,note_on,,179,0,7,,,,,,,,,,,,,,,,10,,65,0
3810,note_on,,31,0,8,,,,,,,,,,,,,,,,11,,72,64
3810,note_on,,31,0,7,,,,,,,,,,,,,,,,10,,72,64
3839,note_on,,29,0,7,,,,,,,,,,,,,,,,10,,72,0
3839,note_on,,29,0,8,,,,,,,,,,,,,,,,11,,72,0
3840,note_on,,1,0,7,,,,,,,,,,,,,,,,10,,72,64
3840,note_on,,1,0,8,,,,,,,,,,,,,,,,11,,72,64
3854,note_on,,14,0,7,,,,,,,,,,,,,,,,10,,72,0
3854,note_on,,14,0,8,,,,,,,,,,,,,,,,11,,72,0
3855,note_on,,1,0,7,,,,,,,,,,,,,,,,10,,74,64
3855,note_on,,1,0,8,,,,,,,,,,,,,,,,11,,74,64
3869,note_on,,14,0,7,,,,,,,,,,,,,,,,10,,74,0
3869,note_on,,14,0,8,,,,,,,,,,,,,,,,11,,74,0
3870,note_on,,1,0,7,,,,,,,,,,,,,,,,10,,72,64
3870,note_on,,1,0,8,,,,,,,,,,,,,,,,11,,72,64
3884,note_on,,14,0,8,,,,,,,,,,,,,,,,11,,72,0
3884,note_on,,14,0,7,,,,,,,,,,,,,,,,10,,72,0
3885,note_on,,1,0,7,,,,,,,,,,,,,,,,10,,74,64
3885,note_on,,1,0,8,,,,,,,,,,,,,,,,11,,74,64
3899,note_on,,14,0,7,,,,,,,,,,,,,,,,10,,74,0
3899,note_on,,14,0,8,,,,,,,,,,,,,,,,11,,74,0
3900,note_on,,1,0,7,,,,,,,,,,,,,,,,10,,72,64
3900,note_on,,1,0,8,,,,,,,,,,,,,,,,11,,72,64
3914,note_on,,14,0,7,,,,,,,,,,,,,,,,10,,72,0
3914,note_on,,14,0,8,,,,,,,,,,,,,,,,11,,72,0
3915,note_on,,1,0,7,,,,,,,,,,,,,,,,10,,74,64
3915,note_on,,1,0,8,,,,,,,,,,,,,,,,11,,74,64
3929,note_on,,14,0,7,,,,,,,,,,,,,,,,10,,74,0
3929,note_on,,14,0,8,,,,,,,,,,,,,,,,11,,74,0
3930,note_on,,1,0,8,,,,,,,,,,,,,,,,11,,70,64
3930,note_on,,1,0,7,,,,,,,,,,,,,,,,10,,70,64
3944,note_on,,14,0,7,,,,,,,,,,,,,,,,10,,70,0
3944,note_on,,14,0,8,,,,,,,,,,,,,,,,11,,70,0
3945,note_on,,1,0,8,,,,,,,,,,,,,,,,11,,72,64
3945,note_on,,1,0,7,,,,,,,,,,,,,,,,10,,72,64
3959,note_on,,14,0,8,,,,,,,,,,,,,,,,11,,72,0
3959,note_on,,14,0,7,,,,,,,,,,,,,,,,10,,72,0
3960,note_on,,241,0,10,,,,,,,,,,,,,,,,15,,46,64
3960,note_on,,0,0,10,,,,,,,,,,,,,,,,15,,74,64
3960,note_on,,0,0,10,,,,,,,,,,,,,,,,15,,70,64
3960,note_on,,0,0,10,,,,,,,,,,,,,,,,15,,65,64
3960,note_on,,1,0,7,,,,,,,,,,,,,,,,10,,74,64
3960,note_on,,241,0,9,,,,,,,,,,,,,,,,13,,46,64
3960,note_on,,241,0,5,,,,,,,,,,,,,,,,2,,46,64
3960,note_on,,1,0,8,,,,,,,,,,,,,,,,11,,74,64
4019,note_on,,59,0,7,,,,,,,,,,,,,,,,10,,74,0
4019,note_on,,59,0,8,,,,,,,,,,,,,,,,11,,74,0
4020,note_on,,1,0,7,,,,,,,,,,,,,,,,10,,77,64
4020,note_on,,1,0,8,,,,,,,,,,,,,,,,11,,77,64
4079,note_on,,0,0,10,,,,,,,,,,,,,,,,15,,65,0
4079,note_on,,59,0,7,,,,,,,,,,,,,,,,10,,77,0
4079,note_on,,119,0,5,,,,,,,,,,,,,,,,2,,46,0
4079,note_on,,0,0,10,,,,,,,,,,,,,,,,15,,70,0
4079,note_on,,0,0,10,,,,,,,,,,,,,,,,15,,74,0
4079,note_on,,119,0,10,,,,,,,,,,,,,,,,15,,46,0
4079,note_on,,59,0,8,,,,,,,,,,,,,,,,11,,77,0
4079,note_on,,119,0,9,,,,,,,,,,,,,,,,13,,46,0
4080,note_on,,1,0,7,,,,,,,,,,,,,,,,10,,70,64
4080,note_on,,1,0,8,,,,,,,,,,,,,,,,11,,70,64
4139,note_on,,59,0,7,,,,,,,,,,,,,,,,10,,70,0
4139,note_on,,59,0,8,,,,,,,,,,,,,,,,11,,70,0
4140,note_on,,1,0,7,,,,,,,,,,,,,,,,10,,74,64
4140,note_on,,1,0,8,,,,,,,,,,,,,,,,11,,74,64
4199,note_on,,59,0,8,,,,,,,,,,,,,,,,11,,74,0
4199,note_on,,59,0,7,,,,,,,,,,,,,,,,10,,74,0
4200,note_on,,1,0,8,,,,,,,,,,,,,,,,11,,67,64
4200,note_on,,1,0,7,,,,,,,,,,,,,,,,10,,67,64
4259,note_on,,59,0,8,,,,,,,,,,,,,,,,11,,67,0
4259,note_on,,59,0,7,,,,,,,,,,,,,,,,10,,67,0
4260,note_on,,1,0,7,,,,,,,,,,,,,,,,10,,70,64
4260,note_on,,1,0,8,,,,,,,,,,,,,,,,11,,70,64
4319,note_on,,59,0,8,,,,,,,,,,,,,,,,11,,70,0
4319,note_on,,59,0,7,,,,,,,,,,,,,,,,10,,70,0
4320,note_on,,1,0,8,,,,,,,,,,,,,,,,11,,63,64
4320,note_on,,241,0,9,,,,,,,,,,,,,,,,13,,55,64
4320,note_on,,241,0,10,,,,,,,,,,,,,,,,15,,55,64
4320,note_on,,1,0,7,,,,,,,,,,,,,,,,10,,63,64
4320,note_on,,0,0,10,,,,,,,,,,,,,,,,15,,70,64
4320,note_on,,241,0,5,,,,,,,,,,,,,,,,2,,55,64
4320,note_on,,0,0,10,,,,,,,,,,,,,,,,15,,63,64
4320,note_on,,0,0,10,,,,,,,,,,,,,,,,15,,58,64
4439,note_on,,119,0,10,,,,,,,,,,,,,,,,15,,55,0
4439,note_on,,119,0,5,,,,,,,,,,,,,,,,2,,55,0
4439,note_on,,119,0,9,,,,,,,,,,,,,,,,13,,55,0
4439,note_on,,0,0,10,,,,,,,,,,,,,,,,15,,58,0
4439,note_on,,0,0,10,,,,,,,,,,,,,,,,15,,63,0
4439,note_on,,0,0,10,,,,,,,,,,,,,,,,15,,70,0
4499,note_on,,179,0,7,,,,,,,,,,,,,,,,10,,63,0
4499,note_on,,179,0,8,,,,,,,,,,,,,,,,11,,63,0
4530,note_on,,31,0,7,,,,,,,,,,,,,,,,10,,70,64
4530,note_on,,31,0,8,,,,,,,,,,,,,,,,11,,70,64
4559,note_on,,29,0,7,,,,,,,,,,,,,,,,10,,70,0
4559,note_on,,29,0,8,,,,,,,,,,,,,,,,11,,70,0
4560,note_on,,1,0,8,,,,,,,,,,,,,,,,11,,70,64
4560,note_on,,1,0,7,,,,,,,,,,,,,,,,10,,70,64
4574,note_on,,14,0,8,,,,,,,,,,,,,,,,11,,70,0
4574,note_on,,14,0,7,,,,,,,,,,,,,,,,10,,70,0
4575,note_on,,1,0,7,,,,,,,,,,,,,,,,10,,72,64
4575,note_on,,1,0,8,,,,,,,,,,,,,,,,11,,72,64
4589,note_on,,14,0,8,,,,,,,,,,,,,,,,11,,72,0
4589,note_on,,14,0,7,,,,,,,,,,,,,,,,10,,72,0
4590,note_on,,1,0,7,,,,,,,,,,,,,,,,10,,70,64
4590,note_on,,1,0,8,,,,,,,,,,,,,,,,11,,70,64
4604,note_on,,14,0,8,,,,,,,,,,,,,,,,11,,70,0
4604,note_on,,14,0,7,,,,,,,,,,,,,,,,10,,70,0
4605,note_on,,1,0,8,,,,,,,,,,,,,,,,11,,72,64
4605,note_on,,1,0,7,,,,,,,,,,,,,,,,10,,72,64
4619,note_on,,14,0,8,,,,,,,,,,,,,,,,11,,72,0
4619,note_on,,14,0,7,,,,,,,,,,,,,,,,10,,72,0
4620,note_on,,1,0,8,,,,,,,,,,,,,,,,11,,70,64
4620,note_on,,1,0,7,,,,,,,,,,,,,,,,10,,70,64
4634,note_on,,14,0,7,,,,,,,,,,,,,,,,10,,70,0
4634,note_on,,14,0,8,,,,,,,,,,,,,,,,11,,70,0
4635,note_on,,1,0,8,,,,,,,,,,,,,,,,11,,72,64
4635,note_on,,1,0,7,,,,,,,,,,,,,,,,10,,72,64
4649,note_on,,14,0,8,,,,,,,,,,,,,,,,11,,72,0
4649,note_on,,14,0,7,,,,,,,,,,,,,,,,10,,72,0
4650,note_on,,1,0,7,,,,,,,,,,,,,,,,10,,69,64
4650,note_on,,1,0,8,,,,,,,,,,,,,,,,11,,69,64
4664,note_on,,14,0,7,,,,,,,,,,,,,,,,10,,69,0
4664,note_on,,14,0,8,,,,,,,,,,,,,,,,11,,69,0
4665,note_on,,1,0,7,,,,,,,,,,,,,,,,10,,70,64
4665,note_on,,1,0,8,,,,,,,,,,,,,,,,11,,70,64
4679,note_on,,14,0,7,,,,,,,,,,,,,,,,10,,70,0
4679,note_on,,14,0,8,,,,,,,,,,,,,,,,11,,70,0
4680,note_on,,241,0,10,,,,,,,,,,,,,,,,15,,45,64
4680,note_on,,241,0,9,,,,,,,,,,,,,,,,13,,45,64
4680,note_on,,0,0,10,,,,,,,,,,,,,,,,15,,69,64
4680,note_on,,0,0,10,,,,,,,,,,,,,,,,15,,66,64
4680,note_on,,241,0,5,,,,,,,,,,,,,,,,2,,45,64
4680,note_on,,1,0,7,,,,,,,,,,,,,,,,10,,72,64
4680,note_on,,1,0,8,,,,,,,,,,,,,,,,11,,72,64
4680,note_on,,0,0,10,,,,,,,,,,,,,,,,15,,72,64
4739,note_on,,59,0,8,,,,,,,,,,,,,,,,11,,72,0
4739,note_on,,59,0,7,,,,,,,,,,,,,,,,10,,72,0
4740,note_on,,1,0,7,,,,,,,,,,,,,,,,10,,75,64
4740,note_on,,1,0,8,,,,,,,,,,,,,,,,11,,75,64
4799,note_on,,119,0,10,,,,,,,,,,,,,,,,15,,45,0
4799,note_on,,0,0,10,,,,,,,,,,,,,,,,15,,72,0
4799,note_on,,0,0,10,,,,,,,,,,,,,,,,15,,69,0
4799,note_on,,59,0,8,,,,,,,,,,,,,,,,11,,75,0
4799,note_on,,0,0,10,,,,,,,,,,,,,,,,15,,66,0
4799,note_on,,119,0,9,,,,,,,,,,,,,,,,13,,45,0
4799,note_on,,119,0,5,,,,,,,,,,,,,,,,2,,45,0
4799,note_on,,59,0,7,,,,,,,,,,,,,,,,10,,75,0
4800,note_on,,1,0,7,,,,,,,,,,,,,,,,10,,69,64
4800,note_on,,1,0,8,,,,,,,,,,,,,,,,11,,69,64
4859,note_on,,59,0,7,,,,,,,,,,,,,,,,10,,69,0
4859,note_on,,59,0,8,,,,,,,,,,,,,,,,11,,69,0
4860,note_on,,1,0,8,,,,,,,,,,,,,,,,11,,72,64
4860,note_on,,1,0,7,,,,,,,,,,,,,,,,10,,72,64
4919,note_on,,59,0,7,,,,,,,,,,,,,,,,10,,72,0
4919,note_on,,59,0,8,,,,,,,,,,,,,,,,11,,72,0
4920,note_on,,1,0,8,,,,,,,,,,,,,,,,11,,66,64
4920,note_on,,1,0,7,,,,,,,,,,,,,,,,10,,66,64
4979,note_on,,59,0,8,,,,,,,,,,,,,,,,11,,66,0
4979,note_on,,59,0,7,,,,,,,,,,,,,,,,10,,66,0
4980,note_on,,1,0,8,,,,,,,,,,,,,,,,11,,69,64
4980,note_on,,1,0,7,,,,,,,,,,,,,,,,10,,69,64
5039,note_on,,59,0,8,,,,,,,,,,,,,,,,11,,69,0
5039,note_on,,59,0,7,,,,,,,,,,,,,,,,10,,69,0
5040,note_on,,1,0,7,,,,,,,,,,,,,,,,10,,62,64
5040,note_on,,241,0,10,,,,,,,,,,,,,,,,15,,54,64
5040,note_on,,0,0,10,,,,,,,,,,,,,,,,15,,69,64
5040,note_on,,0,0,10,,,,,,,,,,,,,,,,15,,62,64
5040,note_on,,1,0,8,,,,,,,,,,,,,,,,11,,62,64
5040,note_on,,241,0,9,,,,,,,,,,,,,,,,13,,54,64
5040,note_on,,241,0,5,,,,,,,,,,,,,,,,2,,54,64
5040,note_on,,0,0,10,,,,,,,,,,,,,,,,15,,57,64
5159,note_on,,0,0,10,,,,,,,,,,,,,,,,15,,69,0
5159,note_on,,0,0,10,,,,,,,,,,,,,,,,15,,62,0
5159,note_on,,0,0,10,,,,,,,,,,,,,,,,15,,57,0
5159,note_on,,119,0,10,,,,,,,,,,,,,,,,15,,54,0
5159,note_on,,119,0,5,,,,,,,,,,,,,,,,2,,54,0
5159,note_on,,119,0,9,,,,,,,,,,,,,,,,13,,54,0
5219,note_on,,179,0,8,,,,,,,,,,,,,,,,11,,62,0
5219,note_on,,179,0,7,,,,,,,,,,,,,,,,10,,62,0
5250,note_on,,31,0,7,,,,,,,,,,,,,,,,10,,81,64
5250,note_on,,31,0,8,,,,,,,,,,,,,,,,11,,81,64
5279,note_on,,29,0,7,,,,,,,,,,,,,,,,10,,81,0
5279,note_on,,29,0,8,,,,,,,,,,,,,,,,11,,81,0
5280,note_on,,1,0,7,,,,,,,,,,,,,,,,10,,81,64
5280,note_on,,1,0,8,,,,,,,,,,,,,,,,11,,81,64
5294,note_on,,14,0,8,,,,,,,,,,,,,,,,11,,81,0
5294,note_on,,14,0,7,,,,,,,,,,,,,,,,10,,81,0
5295,note_on,,1,0,7,,,,,,,,,,,,,,,,10,,82,64
5295,note_on,,1,0,8,,,,,,,,,,,,,,,,11,,82,64
5309,note_on,,14,0,8,,,,,,,,,,,,,,,,11,,82,0
5309,note_on,,14,0,7,,,,,,,,,,,,,,,,10,,82,0
5310,note_on,,1,0,8,,,,,,,,,,,,,,,,11,,81,64
5310,note_on,,1,0,7,,,,,,,,,,,,,,,,10,,81,64
5324,note_on,,14,0,8,,,,,,,,,,,,,,,,11,,81,0
5324,note_on,,14,0,7,,,,,,,,,,,,,,,,10,,81,0
5325,note_on,,1,0,8,,,,,,,,,,,,,,,,11,,82,64
5325,note_on,,1,0,7,,,,,,,,,,,,,,,,10,,82,64
5339,note_on,,14,0,8,,,,,,,,,,,,,,,,11,,82,0
5339,note_on,,14,0,7,,,,,,,,,,,,,,,,10,,82,0
5340,note_on,,1,0,8,,,,,,,,,,,,,,,,11,,81,64
5340,note_on,,1,0,7,,,,,,,,,,,,,,,,10,,81,64
5354,note_on,,14,0,8,,,,,,,,,,,,,,,,11,,81,0
5354,note_on,,14,0,7,,,,,,,,,,,,,,,,10,,81,0
5355,note_on,,1,0,7,,,,,,,,,,,,,,,,10,,82,64
5355,note_on,,1,0,8,,,,,,,,,,,,,,,,11,,82,64
5369,note_on,,14,0,7,,,,,,,,,,,,,,,,10,,82,0
5369,note_on,,14,0,8,,,,,,,,,,,,,,,,11,,82,0
5370,note_on,,1,0,7,,,,,,,,,,,,,,,,10,,79,64
5370,note_on,,1,0,8,,,,,,,,,,,,,,,,11,,79,64
5384,note_on,,14,0,7,,,,,,,,,,,,,,,,10,,79,0
5384,note_on,,14,0,8,,,,,,,,,,,,,,,,11,,79,0
5385,note_on,,1,0,8,,,,,,,,,,,,,,,,11,,81,64
5385,note_on,,1,0,7,,,,,,,,,,,,,,,,10,,81,64
5399,note_on,,14,0,8,,,,,,,,,,,,,,,,11,,81,0
5399,note_on,,14,0,7,,,,,,,,,,,,,,,,10,,81,0
5400,note_on,,1,0,8,,,,,,,,,,,,,,,,11,,82,64
5400,note_on,,241,0,9,,,,,,,,,,,,,,,,13,,55,64
5400,note_on,,1,0,7,,,,,,,,,,,,,,,,10,,82,64
5400,note_on,,0,0,10,,,,,,,,,,,,,,,,15,,58,64
5400,note_on,,0,0,10,,,,,,,,,,,,,,,,15,,62,64
5400,note_on,,0,0,10,,,,,,,,,,,,,,,,15,,67,64
5400,note_on,,241,0,5,,,,,,,,,,,,,,,,2,,55,64
5400,note_on,,241,0,10,,,,,,,,,,,,,,,,15,,55,64
5519,note_on,,0,0,10,,,,,,,,,,,,,,,,15,,58,0
5519,note_on,,119,0,9,,,,,,,,,,,,,,,,13,,55,0
5519,note_on,,0,0,10,,,,,,,,,,,,,,,,15,,62,0
5519,note_on,,0,0,10,,,,,,,,,,,,,,,,15,,67,0
5519,note_on,,119,0,10,,,,,,,,,,,,,,,,15,,55,0
5519,note_on,,119,0,5,,,,,,,,,,,,,,,,2,,55,0
5579,note_on,,179,0,7,,,,,,,,,,,,,,,,10,,82,0
5579,note_on,,179,0,8,,,,,,,,,,,,,,,,11,,82,0
5610,note_on,,31,0,7,,,,,,,,,,,,,,,,10,,78,64
5610,note_on,,31,0,8,,,,,,,,,,,,,,,,11,,78,64
5639,note_on,,29,0,7,,,,,,,,,,,,,,,,10,,78,0
5639,note_on,,29,0,8,,,,,,,,,,,,,,,,11,,78,0
5640,note_on,,121,0,5,,,,,,,,,,,,,,,,2,,57,64
5640,note_on,,121,0,10,,,,,,,,,,,,,,,,15,,57,64
5640,note_on,,1,0,7,,,,,,,,,,,,,,,,10,,78,64
5640,note_on,,0,0,10,,,,,,,,,,,,,,,,15,,72,64
5640,note_on,,1,0,8,,,,,,,,,,,,,,,,11,,78,64
5640,note_on,,0,0,10,,,,,,,,,,,,,,,,15,,66,64
5640,note_on,,121,0,9,,,,,,,,,,,,,,,,13,,57,64
5640,note_on,,0,0,10,,,,,,,,,,,,,,,,15,,69,64
5654,note_on,,14,0,8,,,,,,,,,,,,,,,,11,,78,0
5654,note_on,,14,0,7,,,,,,,,,,,,,,,,10,,78,0
5655,note_on,,1,0,8,,,,,,,,,,,,,,,,11,,79,64
5655,note_on,,1,0,7,,,,,,,,,,,,,,,,10,,79,64
5669,note_on,,14,0,8,,,,,,,,,,,,,,,,11,,79,0
5669,note_on,,14,0,7,,,,,,,,,,,,,,,,10,,79,0
5670,note_on,,1,0,8,,,,,,,,,,,,,,,,11,,78,64
5670,note_on,,1,0,7,,,,,,,,,,,,,,,,10,,78,64
5684,note_on,,14,0,8,,,,,,,,,,,,,,,,11,,78,0
5684,note_on,,14,0,7,,,,,,,,,,,,,,,,10,,78,0
5685,note_on,,1,0,8,,,,,,,,,,,,,,,,11,,79,64
5685,note_on,,1,0,7,,,,,,,,,,,,,,,,10,,79,64
5699,note_on,,14,0,8,,,,,,,,,,,,,,,,11,,79,0
5699,note_on,,14,0,7,,,,,,,,,,,,,,,,10,,79,0
5700,note_on,,1,0,7,,,,,,,,,,,,,,,,10,,78,64
5700,note_on,,1,0,8,,,,,,,,,,,,,,,,11,,78,64
5714,note_on,,14,0,7,,,,,,,,,,,,,,,,10,,78,0
5714,note_on,,14,0,8,,,,,,,,,,,,,,,,11,,78,0
5715,note_on,,1,0,7,,,,,,,,,,,,,,,,10,,79,64
5715,note_on,,1,0,8,,,,,,,,,,,,,,,,11,,79,64
5729,note_on,,14,0,8,,,,,,,,,,,,,,,,11,,79,0
5729,note_on,,14,0,7,,,,,,,,,,,,,,,,10,,79,0
5730,note_on,,1,0,8,,,,,,,,,,,,,,,,11,,76,64
5730,note_on,,1,0,7,,,,,,,,,,,,,,,,10,,76,64
5744,note_on,,14,0,8,,,,,,,,,,,,,,,,11,,76,0
5744,note_on,,14,0,7,,,,,,,,,,,,,,,,10,,76,0
5745,note_on,,1,0,8,,,,,,,,,,,,,,,,11,,78,64
5745,note_on,,1,0,7,,,,,,,,,,,,,,,,10,,78,64
5759,note_on,,119,0,10,,,,,,,,,,,,,,,,15,,57,0
5759,note_on,,0,0,10,,,,,,,,,,,,,,,,15,,72,0
5759,note_on,,119,0,9,,,,,,,,,,,,,,,,13,,57,0
5759,note_on,,0,0,10,,,,,,,,,,,,,,,,15,,69,0
5759,note_on,,0,0,10,,,,,,,,,,,,,,,,15,,66,0
5759,note_on,,14,0,7,,,,,,,,,,,,,,,,10,,78,0
5759,note_on,,14,0,8,,,,,,,,,,,,,,,,11,,78,0
5759,note_on,,119,0,5,,,,,,,,,,,,,,,,2,,57,0
5760,note_on,,1,0,5,,,,,,,,,,,,,,,,2,,58,64
5760,note_on,,1,0,9,,,,,,,,,,,,,,,,13,,58,64
5760,note_on,,1,0,8,,,,,,,,,,,,,,,,11,,79,64
5760,note_on,,1,0,10,,,,,,,,,,,,,,,,15,,58,64
5760,note_on,,0,0,10,,,,,,,,,,,,,,,,15,,74,64
5760,note_on,,0,0,10,,,,,,,,,,,,,,,,15,,67,64
5760,note_on,,0,0,10,,,,,,,,,,,,,,,,15,,62,64
5760,note_on,,1,0,7,,,,,,,,,,,,,,,,10,,79,64
5879,note_on,,119,0,10,,,,,,,,,,,,,,,,15,,58,0
5879,note_on,,119,0,5,,,,,,,,,,,,,,,,2,,58,0
5879,note_on,,0,0,10,,,,,,,,,,,,,,,,15,,62,0
5879,note_on,,0,0,10,,,,,,,,,,,,,,,,15,,67,0
5879,note_on,,0,0,10,,,,,,,,,,,,,,,,15,,74,0
5879,note_on,,119,0,9,,,,,,,,,,,,,,,,13,,58,0
5939,note_on,,179,0,8,,,,,,,,,,,,,,,,11,,79,0
5939,note_on,,179,0,7,,,,,,,,,,,,,,,,10,,79,0
5970,note_on,,31,0,8,,,,,,,,,,,,,,,,11,,74,64
5970,note_on,,31,0,7,,,,,,,,,,,,,,,,10,,74,64
5999,note_on,,29,0,7,,,,,,,,,,,,,,,,10,,74,0
5999,note_on,,29,0,8,,,,,,,,,,,,,,,,11,,74,0
6000,note_on,,1,0,7,,,,,,,,,,,,,,,,10,,74,64
6000,note_on,,121,0,5,,,,,,,,,,,,,,,,2,,59,64
6000,note_on,,0,0,10,,,,,,,,,,,,,,,,15,,62,64
6000,note_on,,0,0,10,,,,,,,,,,,,,,,,15,,67,64
6000,note_on,,121,0,10,,,,,,,,,,,,,,,,15,,59,64
6000,note_on,,121,0,9,,,,,,,,,,,,,,,,13,,59,64
6000,note_on,,1,0,8,,,,,,,,,,,,,,,,11,,74,64
6014,note_on,,14,0,8,,,,,,,,,,,,,,,,11,,74,0
6014,note_on,,14,0,7,,,,,,,,,,,,,,,,10,,74,0
6015,note_on,,1,0,8,,,,,,,,,,,,,,,,11,,75,64
6015,note_on,,1,0,7,,,,,,,,,,,,,,,,10,,75,64
6029,note_on,,14,0,8,,,,,,,,,,,,,,,,11,,75,0
6029,note_on,,14,0,7,,,,,,,,,,,,,,,,10,,75,0
6030,note_on,,1,0,7,,,,,,,,,,,,,,,,10,,74,64
6030,note_on,,1,0,8,,,,,,,,,,,,,,,,11,,74,64
6044,note_on,,14,0,8,,,,,,,,,,,,,,,,11,,74,0
6044,note_on,,14,0,7,,,,,,,,,,,,,,,,10,,74,0
6045,note_on,,1,0,8,,,,,,,,,,,,,,,,11,,75,64
6045,note_on,,1,0,7,,,,,,,,,,,,,,,,10,,75,64
6059,note_on,,14,0,8,,,,,,,,,,,,,,,,11,,75,0
6059,note_on,,14,0,7,,,,,,,,,,,,,,,,10,,75,0
6060,note_on,,1,0,7,,,,,,,,,,,,,,,,10,,74,64
6060,note_on,,1,0,8,,,,,,,,,,,,,,,,11,,74,64
6074,note_on,,14,0,8,,,,,,,,,,,,,,,,11,,74,0
6074,note_on,,14,0,7,,,,,,,,,,,,,,,,10,,74,0
6075,note_on,,1,0,8,,,,,,,,,,,,,,,,11,,75,64
6075,note_on,,1,0,7,,,,,,,,,,,,,,,,10,,75,64
6089,note_on,,14,0,8,,,,,,,,,,,,,,,,11,,75,0
6089,note_on,,14,0,7,,,,,,,,,,,,,,,,10,,75,0
6090,note_on,,1,0,8,,,,,,,,,,,,,,,,11,,72,64
6090,note_on,,1,0,7,,,,,,,,,,,,,,,,10,,72,64
6104,note_on,,14,0,8,,,,,,,,,,,,,,,,11,,72,0
6104,note_on,,14,0,7,,,,,,,,,,,,,,,,10,,72,0
6105,note_on,,1,0,7,,,,,,,,,,,,,,,,10,,74,64
6105,note_on,,1,0,8,,,,,,,,,,,,,,,,11,,74,64
6119,note_on,,0,0,10,,,,,,,,,,,,,,,,15,,62,0
6119,note_on,,119,0,10,,,,,,,,,,,,,,,,15,,59,0
6119,note_on,,0,0,10,,,,,,,,,,,,,,,,15,,67,0
6119,note_on,,14,0,7,,,,,,,,,,,,,,,,10,,74,0
6119,note_on,,119,0,5,,,,,,,,,,,,,,,,2,,59,0
6119,note_on,,14,0,8,,,,,,,,,,,,,,,,11,,74,0
6119,note_on,,119,0,9,,,,,,,,,,,,,,,,13,,59,0
6120,note_on,,1,0,5,,,,,,,,,,,,,,,,2,,60,64
6120,note_on,,1,0,9,,,,,,,,,,,,,,,,13,,60,64
6120,note_on,,1,0,10,,,,,,,,,,,,,,,,15,,60,64
6120,note_on,,0,0,10,,,,,,,,,,,,,,,,15,,72,64
6120,note_on,,0,0,10,,,,,,,,,,,,,,,,15,,67,64
6120,note_on,,1,0,7,,,,,,,,,,,,,,,,10,,75,64
6120,note_on,,0,0,10,,,,,,,,,,,,,,,,15,,63,64
6120,note_on,,1,0,8,,,,,,,,,,,,,,,,11,,75,64
6239,note_on,,119,0,10,,,,,,,,,,,,,,,,15,,60,0
6239,note_on,,119,0,5,,,,,,,,,,,,,,,,2,,60,0
6239,note_on,,119,0,9,,,,,,,,,,,,,,,,13,,60,0
6239,note_on,,0,0,10,,,,,,,,,,,,,,,,15,,72,0
6239,note_on,,0,0,10,,,,,,,,,,,,,,,,15,,67,0
6239,note_on,,0,0,10,,,,,,,,,,,,,,,,15,,63,0
6299,note_on,,179,0,8,,,,,,,,,,,,,,,,11,,75,0
6299,note_on,,179,0,7,,,,,,,,,,,,,,,,10,,75,0
6330,note_on,,31,0,8,,,,,,,,,,,,,,,,11,,71,64
6330,note_on,,31,0,7,,,,,,,,,,,,,,,,10,,71,64
6359,note_on,,29,0,8,,,,,,,,,,,,,,,,11,,71,0
6359,note_on,,29,0,7,,,,,,,,,,,,,,,,10,,71,0
6360,note_on,,0,0,10,,,,,,,,,,,,,,,,15,,77,64
6360,note_on,,1,0,8,,,,,,,,,,,,,,,,11,,71,64
6360,note_on,,121,0,5,,,,,,,,,,,,,,,,2,,62,64
6360,note_on,,1,0,7,,,,,,,,,,,,,,,,10,,71,64
6360,note_on,,121,0,10,,,,,,,,,,,,,,,,15,,62,64
6360,note_on,,121,0,9,,,,,,,,,,,,,,,,13,,62,64
6360,note_on,,0,0,10,,,,,,,,,,,,,,,,15,,71,64
6360,note_on,,0,0,10,,,,,,,,,,,,,,,,15,,74,64
6374,note_on,,14,0,7,,,,,,,,,,,,,,,,10,,71,0
6374,note_on,,14,0,8,,,,,,,,,,,,,,,,11,,71,0
6375,note_on,,1,0,8,,,,,,,,,,,,,,,,11,,72,64
6375,note_on,,1,0,7,,,,,,,,,,,,,,,,10,,72,64
6389,note_on,,14,0,8,,,,,,,,,,,,,,,,11,,72,0
6389,note_on,,14,0,7,,,,,,,,,,,,,,,,10,,72,0
6390,note_on,,1,0,7,,,,,,,,,,,,,,,,10,,71,64
6390,note_on,,1,0,8,,,,,,,,,,,,,,,,11,,71,64
6404,note_on,,14,0,7,,,,,,,,,,,,,,,,10,,71,0
6404,note_on,,14,0,8,,,,,,,,,,,,,,,,11,,71,0
6405,note_on,,1,0,8,,,,,,,,,,,,,,,,11,,72,64
6405,note_on,,1,0,7,,,,,,,,,,,,,,,,10,,72,64
6419,note_on,,14,0,8,,,,,,,,,,,,,,,,11,,72,0
6419,note_on,,14,0,7,,,,,,,,,,,,,,,,10,,72,0
6420,note_on,,1,0,7,,,,,,,,,,,,,,,,10,,71,64
6420,note_on,,1,0,8,,,,,,,,,,,,,,,,11,,71,64
6434,note_on,,14,0,7,,,,,,,,,,,,,,,,10,,71,0
6434,note_on,,14,0,8,,,,,,,,,,,,,,,,11,,71,0
6435,note_on,,1,0,7,,,,,,,,,,,,,,,,10,,72,64
6435,note_on,,1,0,8,,,,,,,,,,,,,,,,11,,72,64
6449,note_on,,14,0,7,,,,,,,,,,,,,,,,10,,72,0
6449,note_on,,14,0,8,,,,,,,,,,,,,,,,11,,72,0
6450,note_on,,1,0,7,,,,,,,,,,,,,,,,10,,69,64
6450,note_on,,1,0,8,,,,,,,,,,,,,,,,11,,69,64
6464,note_on,,14,0,7,,,,,,,,,,,,,,,,10,,69,0
6464,note_on,,14,0,8,,,,,,,,,,,,,,,,11,,69,0
6465,note_on,,1,0,7,,,,,,,,,,,,,,,,10,,71,64
6465,note_on,,1,0,8,,,,,,,,,,,,,,,,11,,71,64
6479,note_on,,14,0,7,,,,,,,,,,,,,,,,10,,71,0
6479,note_on,,0,0,10,,,,,,,,,,,,,,,,15,,74,0
6479,note_on,,0,0,10,,,,,,,,,,,,,,,,15,,71,0
6479,note_on,,119,0,5,,,,,,,,,,,,,,,,2,,62,0
6479,note_on,,119,0,9,,,,,,,,,,,,,,,,13,,62,0
6479,note_on,,119,0,10,,,,,,,,,,,,,,,,15,,62,0
6479,note_on,,0,0,10,,,,,,,,,,,,,,,,15,,77,0
6479,note_on,,14,0,8,,,,,,,,,,,,,,,,11,,71,0
6480,note_on,,1,0,5,,,,,,,,,,,,,,,,2,,63,64
6480,note_on,,1,0,9,,,,,,,,,,,,,,,,13,,63,64
6480,note_on,,1,0,8,,,,,,,,,,,,,,,,11,,72,64
6480,note_on,,1,0,7,,,,,,,,,,,,,,,,10,,72,64
6480,note_on,,1,0,10,,,,,,,,,,,,,,,,15,,63,64
6480,note_on,,0,0,10,,,,,,,,,,,,,,,,15,,79,64
6480,note_on,,0,0,10,,,,,,,,,,,,,,,,15,,72,64
6480,note_on,,0,0,10,,,,,,,,,,,,,,,,15,,67,64
6539,note_on,,59,0,7,,,,,,,,,,,,,,,,10,,72,0
6539,note_on,,59,0,8,,,,,,,,,,,,,,,,11,,72,0
6540,note_on,,1,0,7,,,,,,,,,,,,,,,,10,,67,64
6540,note_on,,1,0,8,,,,,,,,,,,,,,,,11,,67,64
6599,note_on,,119,0,5,,,,,,,,,,,,,,,,2,,63,0
6599,note_on,,0,0,10,,,,,,,,,,,,,,,,15,,72,0
6599,note_on,,59,0,7,,,,,,,,,,,,,,,,10,,67,0
6599,note_on,,0,0,10,,,,,,,,,,,,,,,,15,,79,0
6599,note_on,,119,0,10,,,,,,,,,,,,,,,,15,,63,0
6599,note_on,,0,0,10,,,,,,,,,,,,,,,,15,,67,0
6599,note_on,,59,0,8,,,,,,,,,,,,,,,,11,,67,0
6599,note_on,,119,0,9,,,,,,,,,,,,,,,,13,,63,0
6600,note_on,,1,0,7,,,,,,,,,,,,,,,,10,,75,64
6600,note_on,,1,0,8,,,,,,,,,,,,,,,,11,,75,64
6659,note_on,,59,0,7,,,,,,,,,,,,,,,,10,,75,0
6659,note_on,,59,0,8,,,,,,,,,,,,,,,,11,,75,0
6660,note_on,,1,0,7,,,,,,,,,,,,,,,,10,,71,64
6660,note_on,,1,0,8,,,,,,,,,,,,,,,,11,,71,64
6719,note_on,,59,0,7,,,,,,,,,,,,,,,,10,,71,0
6719,note_on,,59,0,8,,,,,,,,,,,,,,,,11,,71,0
6720,note_on,,1,0,7,,,,,,,,,,,,,,,,10,,72,64
6720,note_on,,1,0,8,,,,,,,,,,,,,,,,11,,72,64
6779,note_on,,59,0,8,,,,,,,,,,,,,,,,11,,72,0
6779,note_on,,59,0,7,,,,,,,,,,,,,,,,10,,72,0
6780,note_on,,1,0,8,,,,,,,,,,,,,,,,11,,67,64
6780,note_on,,1,0,7,,,,,,,,,,,,,,,,10,,67,64
6839,note_on,,59,0,7,,,,,,,,,,,,,,,,10,,67,0
6839,note_on,,59,0,8,,,,,,,,,,,,,,,,11,,67,0
6840,note_on,,1,0,7,,,,,,,,,,,,,,,,10,,63,64
6840,note_on,,1,0,8,,,,,,,,,,,,,,,,11,,63,64
6899,note_on,,59,0,7,,,,,,,,,,,,,,,,10,,63,0
6899,note_on,,59,0,8,,,,,,,,,,,,,,,,11,,63,0
6900,note_on,,1,0,7,,,,,,,,,,,,,,,,10,,60,64
6900,note_on,,1,0,8,,,,,,,,,,,,,,,,11,,60,64
6959,note_on,,59,0,8,,,,,,,,,,,,,,,,11,,60,0
6959,note_on,,59,0,7,,,,,,,,,,,,,,,,10,,60,0
6960,note_on,,1,0,8,,,,,,,,,,,,,,,,11,,67,64
6960,note_on,,1,0,7,,,,,,,,,,,,,,,,10,,67,64
7019,note_on,,59,0,8,,,,,,,,,,,,,,,,11,,67,0
7019,note_on,,59,0,7,,,,,,,,,,,,,,,,10,,67,0
7020,note_on,,1,0,8,,,,,,,,,,,,,,,,11,,63,64
7020,note_on,,1,0,7,,,,,,,,,,,,,,,,10,,63,64
7079,note_on,,59,0,8,,,,,,,,,,,,,,,,11,,63,0
7079,note_on,,59,0,7,,,,,,,,,,,,,,,,10,,63,0
7080,note_on,,1,0,8,,,,,,,,,,,,,,,,11,,72,64
7080,note_on,,1,0,7,,,,,,,,,,,,,,,,10,,72,64
7139,note_on,,59,0,8,,,,,,,,,,,,,,,,11,,72,0
7139,note_on,,59,0,7,,,,,,,,,,,,,,,,10,,72,0
7140,note_on,,1,0,8,,,,,,,,,,,,,,,,11,,67,64
7140,note_on,,1,0,7,,,,,,,,,,,,,,,,10,,67,64
7199,note_on,,59,0,8,,,,,,,,,,,,,,,,11,,67,0
7199,note_on,,59,0,7,,,,,,,,,,,,,,,,10,,67,0
7200,note_on,,1,0,8,,,,,,,,,,,,,,,,11,,75,64
7200,note_on,,1,0,7,,,,,,,,,,,,,,,,10,,75,64
7259,note_on,,59,0,7,,,,,,,,,,,,,,,,10,,75,0
7259,note_on,,59,0,8,,,,,,,,,,,,,,,,11,,75,0
7260,note_on,,1,0,8,,,,,,,,,,,,,,,,11,,72,64
7260,note_on,,1,0,7,,,,,,,,,,,,,,,,10,,72,64
7319,note_on,,59,0,8,,,,,,,,,,,,,,,,11,,72,0
7319,note_on,,59,0,7,,,,,,,,,,,,,,,,10,,72,0
7320,note_on,,1,0,7,,,,,,,,,,,,,,,,10,,79,64
7320,note_on,,1,0,8,,,,,,,,,,,,,,,,11,,79,64
7379,note_on,,59,0,7,,,,,,,,,,,,,,,,10,,79,0
7379,note_on,,59,0,8,,,,,,,,,,,,,,,,11,,79,0
7380,note_on,,1,0,7,,,,,,,,,,,,,,,,10,,75,64
7380,note_on,,1,0,8,,,,,,,,,,,,,,,,11,,75,64
7439,note_on,,59,0,8,,,,,,,,,,,,,,,,11,,75,0
7439,note_on,,59,0,7,,,,,,,,,,,,,,,,10,,75,0
7440,note_on,,1,0,8,,,,,,,,,,,,,,,,11,,72,64
7440,note_on,,1,0,7,,,,,,,,,,,,,,,,10,,72,64
7499,note_on,,59,0,7,,,,,,,,,,,,,,,,10,,72,0
7499,note_on,,59,0,8,,,,,,,,,,,,,,,,11,,72,0
7500,note_on,,1,0,8,,,,,,,,,,,,,,,,11,,67,64
7500,note_on,,1,0,7,,,,,,,,,,,,,,,,10,,67,64
7559,note_on,,59,0,7,,,,,,,,,,,,,,,,10,,67,0
7559,note_on,,59,0,8,,,,,,,,,,,,,,,,11,,67,0
7560,note_on,,1,0,7,,,,,,,,,,,,,,,,10,,75,64
7560,note_on,,1,0,8,,,,,,,,,,,,,,,,11,,75,64
7619,note_on,,59,0,7,,,,,,,,,,,,,,,,10,,75,0
7619,note_on,,59,0,8,,,,,,,,,,,,,,,,11,,75,0
7620,note_on,,1,0,8,,,,,,,,,,,,,,,,11,,72,64
7620,note_on,,1,0,7,,,,,,,,,,,,,,,,10,,72,64
7679,note_on,,59,0,8,,,,,,,,,,,,,,,,11,,72,0
7679,note_on,,59,0,7,,,,,,,,,,,,,,,,10,,72,0
7680,note_on,,1,0,8,,,,,,,,,,,,,,,,11,,79,64
7680,note_on,,1,0,7,,,,,,,,,,,,,,,,10,,79,64
7739,note_on,,59,0,8,,,,,,,,,,,,,,,,11,,79,0
7739,note_on,,59,0,7,,,,,,,,,,,,,,,,10,,79,0
7740,note_on,,1,0,8,,,,,,,,,,,,,,,,11,,75,64
7740,note_on,,1,0,7,,,,,,,,,,,,,,,,10,,75,64
7799,note_on,,59,0,7,,,,,,,,,,,,,,,,10,,75,0
7799,note_on,,59,0,8,,,,,,,,,,,,,,,,11,,75,0
7800,note_on,,1201,0,9,,,,,,,,,,,,,,,,13,,51,64
7800,note_on,,1201,0,10,,,,,,,,,,,,,,,,15,,51,64
7800,note_on,,1,0,7,,,,,,,,,,,,,,,,10,,84,64
7800,note_on,,1,0,8,,,,,,,,,,,,,,,,11,,84,64
7800,note_on,,0,0,10,,,,,,,,,,,,,,,,15,,67,64
7800,note_on,,0,0,10,,,,,,,,,,,,,,,,15,,69,64
7800,note_on,,1201,0,5,,,,,,,,,,,,,,,,2,,51,64
7800,note_on,,0,0,10,,,,,,,,,,,,,,,,15,,72,64
7859,note_on,,59,0,7,,,,,,,,,,,,,,,,10,,84,0
7859,note_on,,59,0,8,,,,,,,,,,,,,,,,11,,84,0
7860,note_on,,1,0,8,,,,,,,,,,,,,,,,11,,81,64
7860,note_on,,1,0,7,,,,,,,,,,,,,,,,10,,81,64
7919,note_on,,59,0,8,,,,,,,,,,,,,,,,11,,81,0
7919,note_on,,119,0,9,,,,,,,,,,,,,,,,13,,51,0
7919,note_on,,0,0,10,,,,,,,,,,,,,,,,15,,72,0
7919,note_on,,0,0,10,,,,,,,,,,,,,,,,15,,69,0
7919,note_on,,0,0,10,,,,,,,,,,,,,,,,15,,67,0
7919,note_on,,59,0,7,,,,,,,,,,,,,,,,10,,81,0
7919,note_on,,119,0,5,,,,,,,,,,,,,,,,2,,51,0
7919,note_on,,119,0,10,,,,,,,,,,,,,,,,15,,51,0
7920,note_on,,1,0,10,,,,,,,,,,,,,,,,15,,66,64
7920,note_on,,0,0,10,,,,,,,,,,,,,,,,15,,50,64
7920,note_on,,0,0,10,,,,,,,,,,,,,,,,15,,74,64
7920,note_on,,0,0,10,,,,,,,,,,,,,,,,15,,69,64
7920,note_on,,1,0,8,,,,,,,,,,,,,,,,11,,78,64
7920,note_on,,1,0,5,,,,,,,,,,,,,,,,2,,50,64
7920,note_on,,1,0,9,,,,,,,,,,,,,,,,13,,50,64
7920,note_on,,1,0,7,,,,,,,,,,,,,,,,10,,78,64
8039,note_on,,119,0,10,,,,,,,,,,,,,,,,15,,66,0
8039,note_on,,0,0,10,,,,,,,,,,,,,,,,15,,74,0
8039,note_on,,0,0,10,,,,,,,,,,,,,,,,15,,69,0
8099,note_on,,179,0,5,,,,,,,,,,,,,,,,2,,50,0
8099,note_on,,179,0,9,,,,,,,,,,,,,,,,13,,50,0
8099,note_on,,60,0,10,,,,,,,,,,,,,,,,15,,50,0
8099,note_on,,179,0,7,,,,,,,,,,,,,,,,10,,78,0
8099,note_on,,179,0,8,,,,,,,,,,,,,,,,11,,78,0
8130,note_on,,31,0,10,,,,,,,,,,,,,,,,15,,48,64
8130,note_on,,31,0,9,,,,,,,,,,,,,,,,13,,48,64
8130,note_on,,31,0,7,,,,,,,,,,,,,,,,10,,74,64
8130,note_on,,31,0,8,,,,,,,,,,,,,,,,11,,74,64
8130,note_on,,31,0,5,,,,,,,,,,,,,,,,2,,48,64
8159,note_on,,29,0,8,,,,,,,,,,,,,,,,11,,74,0
8159,note_on,,29,0,5,,,,,,,,,,,,,,,,2,,48,0
8159,note_on,,29,0,7,,,,,,,,,,,,,,,,10,,74,0
8159,note_on,,29,0,10,,,,,,,,,,,,,,,,15,,48,0
8159,note_on,,29,0,9,,,,,,,,,,,,,,,,13,,48,0
8160,note_on,,1,0,10,,,,,,,,,,,,,,,,15,,46,64
8160,note_on,,0,0,10,,,,,,,,,,,,,,,,15,,79,64
8160,note_on,,0,0,10,,,,,,,,,,,,,,,,15,,74,64
8160,note_on,,0,0,10,,,,,,,,,,,,,,,,15,,67,64
8160,note_on,,1,0,7,,,,,,,,,,,,,,,,10,,79,64
8160,note_on,,1,0,5,,,,,,,,,,,,,,,,2,,46,64
8160,note_on,,1,0,9,,,,,,,,,,,,,,,,13,,46,64
8160,note_on,,1,0,8,,,,,,,,,,,,,,,,11,,79,64
8249,note_on,,89,0,7,,,,,,,,,,,,,,,,10,,79,0
8249,note_on,,89,0,8,,,,,,,,,,,,,,,,11,,79,0
8250,note_on,,1,0,8,,,,,,,,,,,,,,,,11,,72,64
8250,note_on,,1,0,7,,,,,,,,,,,,,,,,10,,72,64
8279,note_on,,0,0,10,,,,,,,,,,,,,,,,15,,67,0
8279,note_on,,0,0,10,,,,,,,,,,,,,,,,15,,74,0
8279,note_on,,0,0,10,,,,,,,,,,,,,,,,15,,79,0
8279,note_on,,119,0,10,,,,,,,,,,,,,,,,15,,46,0
8279,note_on,,29,0,7,,,,,,,,,,,,,,,,10,,72,0
8279,note_on,,29,0,8,,,,,,,,,,,,,,,,11,,72,0
8279,note_on,,119,0,9,,,,,,,,,,,,,,,,13,,46,0
8279,note_on,,119,0,5,,,,,,,,,,,,,,,,2,,46,0
8280,note_on,,1,0,9,,,,,,,,,,,,,,,,13,,48,64
8280,note_on,,0,0,10,,,,,,,,,,,,,,,,15,,70,64
8280,note_on,,1,0,5,,,,,,,,,,,,,,,,2,,48,64
8280,note_on,,1,0,10,,,,,,,,,,,,,,,,15,,48,64
8280,note_on,,0,0,10,,,,,,,,,,,,,,,,15,,75,64
8280,note_on,,1,0,7,,,,,,,,,,,,,,,,10,,70,64
8280,note_on,,0,0,10,,,,,,,,,,,,,,,,15,,67,64
8280,note_on,,1,0,8,,,,,,,,,,,,,,,,11,,70,64
8369,note_on,,89,0,7,,,,,,,,,,,,,,,,10,,70,0
8369,note_on,,89,0,8,,,,,,,,,,,,,,,,11,,70,0
8370,note_on,,1,0,7,,,,,,,,,,,,,,,,10,,69,64
8370,note_on,,1,0,8,,,,,,,,,,,,,,,,11,,69,64
8399,note_on,,0,0,10,,,,,,,,,,,,,,,,15,,67,0
8399,note_on,,119,0,9,,,,,,,,,,,,,,,,13,,48,0
8399,note_on,,0,0,10,,,,,,,,,,,,,,,,15,,75,0
8399,note_on,,119,0,10,,,,,,,,,,,,,,,,15,,48,0
8399,note_on,,29,0,7,,,,,,,,,,,,,,,,10,,69,0
8399,note_on,,0,0,10,,,,,,,,,,,,,,,,15,,70,0
8399,note_on,,119,0,5,,,,,,,,,,,,,,,,2,,48,0
8399,note_on,,29,0,8,,,,,,,,,,,,,,,,11,,69,0
8400,note_on,,0,0,10,,,,,,,,,,,,,,,,15,,74,64
8400,note_on,,0,0,10,,,,,,,,,,,,,,,,15,,66,64
8400,note_on,,1,0,9,,,,,,,,,,,,,,,,13,,50,64
8400,note_on,,1,0,7,,,,,,,,,,,,,,,,10,,69,64
8400,note_on,,0,0,10,,,,,,,,,,,,,,,,15,,69,64
8400,note_on,,1,0,5,,,,,,,,,,,,,,,,2,,50,64
8400,note_on,,1,0,8,,,,,,,,,,,,,,,,11,,69,64
8400,note_on,,1,0,10,,,,,,,,,,,,,,,,15,,50,64
8414,note_on,,14,0,8,,,,,,,,,,,,,,,,11,,69,0
8414,note_on,,14,0,7,,,,,,,,,,,,,,,,10,,69,0
8415,note_on,,1,0,8,,,,,,,,,,,,,,,,11,,70,64
8415,note_on,,1,0,7,,,,,,,,,,,,,,,,10,,70,64
8429,note_on,,14,0,8,,,,,,,,,,,,,,,,11,,70,0
8429,note_on,,14,0,7,,,,,,,,,,,,,,,,10,,70,0
8430,note_on,,1,0,7,,,,,,,,,,,,,,,,10,,69,64
8430,note_on,,1,0,8,,,,,,,,,,,,,,,,11,,69,64
8444,note_on,,14,0,7,,,,,,,,,,,,,,,,10,,69,0
8444,note_on,,14,0,8,,,,,,,,,,,,,,,,11,,69,0
8445,note_on,,1,0,7,,,,,,,,,,,,,,,,10,,70,64
8445,note_on,,1,0,8,,,,,,,,,,,,,,,,11,,70,64
8459,note_on,,14,0,7,,,,,,,,,,,,,,,,10,,70,0
8459,note_on,,14,0,8,,,,,,,,,,,,,,,,11,,70,0
8460,note_on,,1,0,7,,,,,,,,,,,,,,,,10,,69,64
8460,note_on,,1,0,8,,,,,,,,,,,,,,,,11,,69,64
8474,note_on,,14,0,7,,,,,,,,,,,,,,,,10,,69,0
8474,note_on,,14,0,8,,,,,,,,,,,,,,,,11,,69,0
8475,note_on,,1,0,8,,,,,,,,,,,,,,,,11,,70,64
8475,note_on,,1,0,7,,,,,,,,,,,,,,,,10,,70,64
8489,note_on,,14,0,8,,,,,,,,,,,,,,,,11,,70,0
8489,note_on,,14,0,7,,,,,,,,,,,,,,,,10,,70,0
8490,note_on,,1,0,7,,,,,,,,,,,,,,,,10,,69,64
8490,note_on,,1,0,8,,,,,,,,,,,,,,,,11,,69,64
8504,note_on,,14,0,8,,,,,,,,,,,,,,,,11,,69,0
8504,note_on,,14,0,7,,,,,,,,,,,,,,,,10,,69,0
8505,note_on,,1,0,8,,,,,,,,,,,,,,,,11,,70,64
8505,note_on,,1,0,7,,,,,,,,,,,,,,,,10,,70,64
8519,note_on,,119,0,9,,,,,,,,,,,,,,,,13,,50,0
8519,note_on,,14,0,8,,,,,,,,,,,,,,,,11,,70,0
8519,note_on,,0,0,10,,,,,,,,,,,,,,,,15,,66,0
8519,note_on,,0,0,10,,,,,,,,,,,,,,,,15,,69,0
8519,note_on,,0,0,10,,,,,,,,,,,,,,,,15,,74,0
8519,note_on,,119,0,10,,,,,,,,,,,,,,,,15,,50,0
8519,note_on,,14,0,7,,,,,,,,,,,,,,,,10,,70,0
8519,note_on,,119,0,5,,,,,,,,,,,,,,,,2,,50,0
8520,note_on,,1,0,9,,,,,,,,,,,,,,,,13,,38,64
8520,note_on,,0,0,10,,,,,,,,,,,,,,,,15,,66,64
8520,note_on,,0,0,10,,,,,,,,,,,,,,,,15,,72,64
8520,note_on,,1,0,10,,,,,,,,,,,,,,,,15,,38,64
8520,note_on,,0,0,10,,,,,,,,,,,,,,,,15,,62,64
8520,note_on,,1,0,8,,,,,,,,,,,,,,,,11,,69,64
8520,note_on,,1,0,7,,,,,,,,,,,,,,,,10,,69,64
8520,note_on,,1,0,5,,,,,,,,,,,,,,,,2,,38,64
8534,note_on,,14,0,8,,,,,,,,,,,,,,,,11,,69,0
8534,note_on,,14,0,7,,,,,,,,,,,,,,,,10,,69,0
8535,note_on,,1,0,8,,,,,,,,,,,,,,,,11,,70,64
8535,note_on,,1,0,7,,,,,,,,,,,,,,,,10,,70,64
8549,note_on,,14,0,8,,,,,,,,,,,,,,,,11,,70,0
8549,note_on,,14,0,7,,,,,,,,,,,,,,,,10,,70,0
8550,note_on,,1,0,8,,,,,,,,,,,,,,,,11,,67,64
8550,note_on,,1,0,7,,,,,,,,,,,,,,,,10,,67,64
8564,note_on,,14,0,8,,,,,,,,,,,,,,,,11,,67,0
8564,note_on,,14,0,7,,,,,,,,,,,,,,,,10,,67,0
8565,note_on,,1,0,8,,,,,,,,,,,,,,,,11,,69,64
8565,note_on,,1,0,7,,,,,,,,,,,,,,,,10,,69,64
8579,note_on,,14,0,8,,,,,,,,,,,,,,,,11,,69,0
8579,note_on,,14,0,7,,,,,,,,,,,,,,,,10,,69,0
8580,note_on,,1,0,7,,,,,,,,,,,,,,,,10,,67,64
8580,note_on,,1,0,8,,,,,,,,,,,,,,,,11,,67,64
8639,note_on,,0,0,10,,,,,,,,,,,,,,,,15,,66,0
8639,note_on,,0,0,10,,,,,,,,,,,,,,,,15,,62,0
8639,note_on,,119,0,10,,,,,,,,,,,,,,,,15,,38,0
8639,note_on,,0,0,10,,,,,,,,,,,,,,,,15,,72,0
8639,note_on,,119,0,5,,,,,,,,,,,,,,,,2,,38,0
8639,note_on,,119,0,9,,,,,,,,,,,,,,,,13,,38,0
8639,note_on,,59,0,8,,,,,,,,,,,,,,,,11,,67,0
8639,note_on,,59,0,7,,,,,,,,,,,,,,,,10,,67,0
8640,note_on,,0,0,10,,,,,,,,,,,,,,,,15,,70,64
8640,note_on,,1,0,9,,,,,,,,,,,,,,,,13,,43,64
8640,note_on,,1,0,10,,,,,,,,,,,,,,,,15,,43,64
8640,note_on,,0,0,10,,,,,,,,,,,,,,,,15,,67,64
8640,note_on,,0,0,10,,,,,,,,,,,,,,,,15,,62,64
8640,note_on,,1,0,7,,,,,,,,,,,,,,,,10,,67,64
8640,note_on,,1,0,8,,,,,,,,,,,,,,,,11,,67,64
8640,note_on,,1,0,5,,,,,,,,,,,,,,,,2,,43,64
8879,note_on,,0,0,10,,,,,,,,,,,,,,,,15,,70,0
8879,note_on,,0,0,10,,,,,,,,,,,,,,,,15,,67,0
8879,note_on,,0,0,10,,,,,,,,,,,,,,,,15,,62,0
8879,note_on,,239,0,8,,,,,,,,,,,,,,,,11,,67,0
8879,note_on,,239,0,10,,,,,,,,,,,,,,,,15,,43,0
8879,note_on,,239,0,5,,,,,,,,,,,,,,,,2,,43,0
8879,note_on,,239,0,7,,,,,,,,,,,,,,,,10,,67,0
8879,note_on,,239,0,9,,,,,,,,,,,,,,,,13,,43,0
8880,note_on,,8880,0,6,,,,,,,,,,,,,,,,5,,67,64
8999,note_on,,119,0,6,,,,,,,,,,,,,,,,5,,67,0
9000,note_on,,1,0,6,,,,,,,,,,,,,,,,5,,70,64
9119,note_on,,119,0,6,,,,,,,,,,,,,,,,5,,70,0
9120,note_on,,1,0,6,,,,,,,,,,,,,,,,5,,69,64
9239,note_on,,119,0,6,,,,,,,,,,,,,,,,5,,69,0
9240,note_on,,361,0,9,,,,,,,,,,,,,,,,13,,43,48
9240,note_on,,0,0,10,,,,,,,,,,,,,,,,15,,55,48
9240,note_on,,0,0,10,,,,,,,,,,,,,,,,15,,58,48
9240,note_on,,0,0,10,,,,,,,,,,,,,,,,15,,62,48
9240,note_on,,361,0,10,,,,,,,,,,,,,,,,15,,43,48
9240,note_on,,1,0,6,,,,,,,,,,,,,,,,5,,67,64
9359,note_on,,119,0,9,,,,,,,,,,,,,,,,13,,43,0
9359,note_on,,0,0,10,,,,,,,,,,,,,,,,15,,55,0
9359,note_on,,0,0,10,,,,,,,,,,,,,,,,15,,58,0
9359,note_on,,0,0,10,,,,,,,,,,,,,,,,15,,62,0
9359,note_on,,119,0,10,,,,,,,,,,,,,,,,15,,43,0
9359,note_on,,119,0,6,,,,,,,,,,,,,,,,5,,67,0
9360,note_on,,1,0,6,,,,,,,,,,,,,,,,5,,74,64
9360,note_on,,1,0,9,,,,,,,,,,,,,,,,13,,46,48
9360,note_on,,1,0,10,,,,,,,,,,,,,,,,15,,46,48
9360,note_on,,0,0,10,,,,,,,,,,,,,,,,15,,55,48
9360,note_on,,0,0,10,,,,,,,,,,,,,,,,15,,67,48
9360,note_on,,0,0,10,,,,,,,,,,,,,,,,15,,62,48
9479,note_on,,0,0,10,,,,,,,,,,,,,,,,15,,62,0
9479,note_on,,119,0,10,,,,,,,,,,,,,,,,15,,46,0
9479,note_on,,119,0,6,,,,,,,,,,,,,,,,5,,74,0
9479,note_on,,119,0,9,,,,,,,,,,,,,,,,13,,46,0
9480,note_on,,0,0,10,,,,,,,,,,,,,,,,15,,60,48
9480,note_on,,1,0,10,,,,,,,,,,,,,,,,15,,45,48
9480,note_on,,1,0,9,,,,,,,,,,,,,,,,13,,45,48
9480,note_on,,1,0,6,,,,,,,,,,,,,,,,5,,74,64
9599,note_on,,119,0,9,,,,,,,,,,,,,,,,13,,45,0
9599,note_on,,0,0,10,,,,,,,,,,,,,,,,15,,55,0
9599,note_on,,0,0,10,,,,,,,,,,,,,,,,15,,45,0
9599,note_on,,119,0,6,,,,,,,,,,,,,,,,5,,74,0
9599,note_on,,0,0,10,,,,,,,,,,,,,,,,15,,60,0
9599,note_on,,119,0,10,,,,,,,,,,,,,,,,15,,67,0
9600,note_on,,0,0,10,,,,,,,,,,,,,,,,15,,58,48
9600,note_on,,1,0,6,,,,,,,,,,,,,,,,5,,79,64
9600,note_on,,0,0,10,,,,,,,,,,,,,,,,15,,62,48
9600,note_on,,1,0,10,,,,,,,,,,,,,,,,15,,43,48
9600,note_on,,1,0,9,,,,,,,,,,,,,,,,13,,43,48
9719,note_on,,119,0,10,,,,,,,,,,,,,,,,15,,43,0
9719,note_on,,0,0,10,,,,,,,,,,,,,,,,15,,58,0
9719,note_on,,119,0,6,,,,,,,,,,,,,,,,5,,79,0
9719,note_on,,119,0,9,,,,,,,,,,,,,,,,13,,43,0
9719,note_on,,0,0,10,,,,,,,,,,,,,,,,15,,62,0
9720,note_on,,0,0,10,,,,,,,,,,,,,,,,15,,65,48
9720,note_on,,1,0,10,,,,,,,,,,,,,,,,15,,50,48
9720,note_on,,0,0,10,,,,,,,,,,,,,,,,15,,62,48
9720,note_on,,1,0,6,,,,,,,,,,,,,,,,5,,77,64
9720,note_on,,1,0,9,,,,,,,,,,,,,,,,13,,50,48
9720,note_on,,0,0,10,,,,,,,,,,,,,,,,15,,57,48
9899,note_on,,179,0,6,,,,,,,,,,,,,,,,5,,77,0
9900,note_on,,1,0,6,,,,,,,,,,,,,,,,5,,79,64
9959,note_on,,239,0,9,,,,,,,,,,,,,,,,13,,50,0
9959,note_on,,239,0,10,,,,,,,,,,,,,,,,15,,50,0
9959,note_on,,0,0,10,,,,,,,,,,,,,,,,15,,62,0
9959,note_on,,0,0,10,,,,,,,,,,,,,,,,15,,57,0
9959,note_on,,59,0,6,,,,,,,,,,,,,,,,5,,79,0
9959,note_on,,0,0,10,,,,,,,,,,,,,,,,15,,65,0
9960,note_on,,1,0,6,,,,,,,,,,,,,,,,5,,75,64
9960,note_on,,1,0,9,,,,,,,,,,,,,,,,13,,55,48
9960,note_on,,0,0,10,,,,,,,,,,,,,,,,15,,58,48
9960,note_on,,0,0,10,,,,,,,,,,,,,,,,15,,67,48
9960,note_on,,1,0,10,,,,,,,,,,,,,,,,15,,55,48
10079,note_on,,0,0,10,,,,,,,,,,,,,,,,15,,58,0
10079,note_on,,119,0,10,,,,,,,,,,,,,,,,15,,55,0
10079,note_on,,0,0,10,,,,,,,,,,,,,,,,15,,67,0
10079,note_on,,119,0,9,,,,,,,,,,,,,,,,13,,55,0
10079,note_on,,119,0,6,,,,,,,,,,,,,,,,5,,75,0
10080,note_on,,1,0,9,,,,,,,,,,,,,,,,13,,53,48
10080,note_on,,1,0,10,,,,,,,,,,,,,,,,15,,53,48
10080,note_on,,0,0,10,,,,,,,,,,,,,,,,15,,69,48
10080,note_on,,0,0,10,,,,,,,,,,,,,,,,15,,62,48
10080,note_on,,0,0,10,,,,,,,,,,,,,,,,15,,57,48
10080,note_on,,1,0,6,,,,,,,,,,,,,,,,5,,74,64
10199,note_on,,119,0,6,,,,,,,,,,,,,,,,5,,74,0
10199,note_on,,119,0,9,,,,,,,,,,,,,,,,13,,53,0
10199,note_on,,0,0,10,,,,,,,,,,,,,,,,15,,69,0
10199,note_on,,119,0,10,,,,,,,,,,,,,,,,15,,53,0
10199,note_on,,0,0,10,,,,,,,,,,,,,,,,15,,57,0
10199,note_on,,0,0,10,,,,,,,,,,,,,,,,15,,62,0
10200,note_on,,1,0,6,,,,,,,,,,,,,,,,5,,67,64
10200,note_on,,0,0,10,,,,,,,,,,,,,,,,15,,67,48
10200,note_on,,0,0,10,,,,,,,,,,,,,,,,15,,70,48
10200,note_on,,0,0,10,,,,,,,,,,,,,,,,15,,55,48
10200,note_on,,1,0,9,,,,,,,,,,,,,,,,13,,51,48
10200,note_on,,1,0,10,,,,,,,,,,,,,,,,15,,51,48
10319,note_on,,119,0,6,,,,,,,,,,,,,,,,5,,67,0
10320,note_on,,1441,0,7,,,,,,,,,,,,,,,,10,,67,64
10320,note_on,,1441,0,8,,,,,,,,,,,,,,,,11,,67,64
10320,note_on,,1441,0,5,,,,,,,,,,,,,,,,2,,51,60
10439,note_on,,119,0,7,,,,,,,,,,,,,,,,10,,67,0
10439,note_on,,239,0,9,,,,,,,,,,,,,,,,13,,51,0
10439,note_on,,119,0,8,,,,,,,,,,,,,,,,11,,67,0
10439,note_on,,0,0,10,,,,,,,,,,,,,,,,15,,55,0
10439,note_on,,0,0,10,,,,,,,,,,,,,,,,15,,67,0
10439,note_on,,0,0,10,,,,,,,,,,,,,,,,15,,70,0
10439,note_on,,239,0,10,,,,,,,,,,,,,,,,15,,51,0
10439,note_on,,119,0,5,,,,,,,,,,,,,,,,2,,51,0
10440,note_on,,0,0,10,,,,,,,,,,,,,,,,15,,57,48
10440,note_on,,0,0,10,,,,,,,,,,,,,,,,15,,65,48
10440,note_on,,0,0,10,,,,,,,,,,,,,,,,15,,74,48
10440,note_on,,1,0,10,,,,,,,,,,,,,,,,15,,50,48
10440,note_on,,1,0,5,,,,,,,,,,,,,,,,2,,50,60
10440,note_on,,1,0,9,,,,,,,,,,,,,,,,13,,50,48
10440,note_on,,1,0,7,,,,,,,,,,,,,,,,10,,74,64
10440,note_on,,1,0,8,,,,,,,,,,,,,,,,11,,74,64
10619,note_on,,179,0,8,,,,,,,,,,,,,,,,11,,74,0
10619,note_on,,179,0,7,,,,,,,,,,,,,,,,10,,74,0
10620,note_on,,1,0,7,,,,,,,,,,,,,,,,10,,72,64
10620,note_on,,1,0,8,,,,,,,,,,,,,,,,11,,72,64
10679,note_on,,239,0,9,,,,,,,,,,,,,,,,13,,50,0
10679,note_on,,0,0,10,,,,,,,,,,,,,,,,15,,57,0
10679,note_on,,0,0,10,,,,,,,,,,,,,,,,15,,65,0
10679,note_on,,239,0,10,,,,,,,,,,,,,,,,15,,50,0
10679,note_on,,59,0,7,,,,,,,,,,,,,,,,10,,72,0
10679,note_on,,59,0,8,,,,,,,,,,,,,,,,11,,72,0
10679,note_on,,239,0,5,,,,,,,,,,,,,,,,2,,50,0
10680,note_on,,1,0,9,,,,,,,,,,,,,,,,13,,55,48
10680,note_on,,0,0,10,,,,,,,,,,,,,,,,15,,67,48
10680,note_on,,1,0,7,,,,,,,,,,,,,,,,10,,70,64
10680,note_on,,0,0,10,,,,,,,,,,,,,,,,15,,55,48
10680,note_on,,1,0,10,,,,,,,,,,,,,,,,15,,58,48
10680,note_on,,1,0,8,,,,,,,,,,,,,,,,11,,70,64
10680,note_on,,1,0,5,,,,,,,,,,,,,,,,2,,58,60
10799,note_on,,119,0,10,,,,,,,,,,,,,,,,15,,74,0
10799,note_on,,0,0,10,,,,,,,,,,,,,,,,15,,67,0
10799,note_on,,119,0,9,,,,,,,,,,,,,,,,13,,55,0
10799,note_on,,0,0,10,,,,,,,,,,,,,,,,15,,58,0
10799,note_on,,0,0,10,,,,,,,,,,,,,,,,15,,55,0
10799,note_on,,119,0,7,,,,,,,,,,,,,,,,10,,70,0
10799,note_on,,119,0,8,,,,,,,,,,,,,,,,11,,70,0
10799,note_on,,119,0,5,,,,,,,,,,,,,,,,2,,58,0
10800,note_on,,0,0,10,,,,,,,,,,,,,,,,15,,65,48
10800,note_on,,1,0,9,,,,,,,,,,,,,,,,13,,62,48
10800,note_on,,1,0,5,,,,,,,,,,,,,,,,2,,62,60
10800,note_on,,1,0,10,,,,,,,,,,,,,,,,15,,62,48
10800,note_on,,0,0,10,,,,,,,,,,,,,,,,15,,69,48
10800,note_on,,1,0,7,,,,,,,,,,,,,,,,10,,69,64
10800,note_on,,1,0,8,,,,,,,,,,,,,,,,11,,69,64
10919,note_on,,119,0,5,,,,,,,,,,,,,,,,2,,62,0
10919,note_on,,119,0,9,,,,,,,,,,,,,,,,13,,62,0
10919,note_on,,119,0,10,,,,,,,,,,,,,,,,15,,62,0
10919,note_on,,0,0,10,,,,,,,,,,,,,,,,15,,69,0
10919,note_on,,0,0,10,,,,,,,,,,,,,,,,15,,65,0
10919,note_on,,119,0,7,,,,,,,,,,,,,,,,10,,69,0
10919,note_on,,119,0,8,,,,,,,,,,,,,,,,11,,69,0
10920,note_on,,0,0,10,,,,,,,,,,,,,,,,15,,67,48
10920,note_on,,0,0,10,,,,,,,,,,,,,,,,15,,70,48
10920,note_on,,0,0,10,,,,,,,,,,,,,,,,15,,62,48
10920,note_on,,1,0,5,,,,,,,,,,,,,,,,2,,62,60
10920,note_on,,1,0,7,,,,,,,,,,,,,,,,10,,67,64
10920,note_on,,1,0,9,,,,,,,,,,,,,,,,13,,58,48
10920,note_on,,1,0,10,,,,,,,,,,,,,,,,15,,58,48
10920,note_on,,1,0,8,,,,,,,,,,,,,,,,11,,67,64
11039,note_on,,0,0,10,,,,,,,,,,,,,,,,15,,67,0
11039,note_on,,0,0,10,,,,,,,,,,,,,,,,15,,70,0
11039,note_on,,119,0,7,,,,,,,,,,,,,,,,10,,67,0
11039,note_on,,119,0,10,,,,,,,,,,,,,,,,15,,58,0
11039,note_on,,0,0,10,,,,,,,,,,,,,,,,15,,62,0
11039,note_on,,119,0,5,,,,,,,,,,,,,,,,2,,62,0
11039,note_on,,119,0,8,,,,,,,,,,,,,,,,11,,67,0
11039,note_on,,119,0,9,,,,,,,,,,,,,,,,13,,58,0
11040,note_on,,721,0,6,,,,,,,,,,,,,,,,5,,67,64
11040,note_on,,1,0,10,,,,,,,,,,,,,,,,15,,55,48
11040,note_on,,0,0,10,,,,,,,,,,,,,,,,15,,62,48
11040,note_on,,0,0,10,,,,,,,,,,,,,,,,15,,79,48
11040,note_on,,0,0,10,,,,,,,,,,,,,,,,15,,70,48
11040,note_on,,1,0,9,,,,,,,,,,,,,,,,13,,55,48
11159,note_on,,119,0,6,,,,,,,,,,,,,,,,5,,67,0
11159,note_on,,119,0,9,,,,,,,,,,,,,,,,13,,55,0
11159,note_on,,0,0,10,,,,,,,,,,,,,,,,15,,62,0
11159,note_on,,0,0,10,,,,,,,,,,,,,,,,15,,79,0
11159,note_on,,0,0,10,,,,,,,,,,,,,,,,15,,70,0
11159,note_on,,119,0,10,,,,,,,,,,,,,,,,15,,55,0
11160,note_on,,0,0,10,,,,,,,,,,,,,,,,15,,62,48
11160,note_on,,0,0,10,,,,,,,,,,,,,,,,15,,69,48
11160,note_on,,0,0,10,,,,,,,,,,,,,,,,15,,74,48
11160,note_on,,1,0,10,,,,,,,,,,,,,,,,15,,54,48
11160,note_on,,1,0,9,,,,,,,,,,,,,,,,13,,54,48
11160,note_on,,1,0,6,,,,,,,,,,,,,,,,5,,74,64
11339,note_on,,179,0,6,,,,,,,,,,,,,,,,5,,74,0
11340,note_on,,1,0,6,,,,,,,,,,,,,,,,5,,72,64
11399,note_on,,0,0,10,,,,,,,,,,,,,,,,15,,62,0
11399,note_on,,239,0,10,,,,,,,,,,,,,,,,15,,54,0
11399,note_on,,239,0,9,,,,,,,,,,,,,,,,13,,54,0
11399,note_on,,0,0,10,,,,,,,,,,,,,,,,15,,74,0
11399,note_on,,59,0,6,,,,,,,,,,,,,,,,5,,72,0
11399,note_on,,0,0,10,,,,,,,,,,,,,,,,15,,69,0
11400,note_on,,0,0,10,,,,,,,,,,,,,,,,15,,58,48
11400,note_on,,0,0,10,,,,,,,,,,,,,,,,15,,62,48
11400,note_on,,0,0,10,,,,,,,,,,,,,,,,15,,67,48
11400,note_on,,1,0,10,,,,,,,,,,,,,,,,15,,55,48
11400,note_on,,1,0,9,,,,,,,,,,,,,,,,13,,55,48
11400,note_on,,1,0,6,,,,,,,,,,,,,,,,5,,70,64
11519,note_on,,119,0,10,,,,,,,,,,,,,,,,15,,55,0
11519,note_on,,0,0,10,,,,,,,,,,,,,,,,15,,67,0
11519,note_on,,0,0,10,,,,,,,,,,,,,,,,15,,58,0
11519,note_on,,0,0,10,,,,,,,,,,,,,,,,15,,62,0
11519,note_on,,119,0,9,,,,,,,,,,,,,,,,13,,55,0
11519,note_on,,119,0,6,,,,,,,,,,,,,,,,5,,70,0
11520,note_on,,1,0,10,,,,,,,,,,,,,,,,15,,50,48
11520,note_on,,1,0,9,,,,,,,,,,,,,,,,13,,50,48
11520,note_on,,0,0,10,,,,,,,,,,,,,,,,15,,69,48
11520,note_on,,0,0,10,,,,,,,,,,,,,,,,15,,66,48
11520,note_on,,0,0,10,,,,,,,,,,,,,,,,15,,62,48
11520,note_on,,1,0,6,,,,,,,,,,,,,,,,5,,69,64
11639,note_on,,119,0,6,,,,,,,,,,,,,,,,5,,69,0
11639,note_on,,119,0,10,,,,,,,,,,,,,,,,15,,50,0
11639,note_on,,0,0,10,,,,,,,,,,,,,,,,15,,62,0
11639,note_on,,0,0,10,,,,,,,,,,,,,,,,15,,69,0
11639,note_on,,0,0,10,,,,,,,,,,,,,,,,15,,66,0
11639,note_on,,119,0,9,,,,,,,,,,,,,,,,13,,50,0
11640,note_on,,1,0,6,,,,,,,,,,,,,,,,5,,67,64
11640,note_on,,0,0,10,,,,,,,,,,,,,,,,15,,62,48
11640,note_on,,0,0,10,,,,,,,,,,,,,,,,15,,67,48
11640,note_on,,1,0,10,,,,,,,,,,,,,,,,15,,43,48
11640,note_on,,0,0,10,,,,,,,,,,,,,,,,15,,70,48
11640,note_on,,1,0,9,,,,,,,,,,,,,,,,13,,43,48
11759,note_on,,119,0,9,,,,,,,,,,,,,,,,13,,43,0
11759,note_on,,119,0,10,,,,,,,,,,,,,,,,15,,43,0
11759,note_on,,119,0,6,,,,,,,,,,,,,,,,5,,67,0
11760,note_on,,1,0,6,,,,,,,,,,,,,,,,5,,70,64
11760,note_on,,1,0,9,,,,,,,,,,,,,,,,13,,55,48
11760,note_on,,1,0,10,,,,,,,,,,,,,,,,15,,55,48
11879,note_on,,0,0,10,,,,,,,,,,,,,,,,15,,55,0
11879,note_on,,0,0,10,,,,,,,,,,,,,,,,15,,67,0
11879,note_on,,0,0,10,,,,,,,,,,,,,,,,15,,62,0
11879,note_on,,119,0,6,,,,,,,,,,,,,,,,5,,70,0
11879,note_on,,119,0,10,,,,,,,,,,,,,,,,15,,70,0
11879,note_on,,119,0,9,,,,,,,,,,,,,,,,13,,55,0
11880,note_on,,1,0,10,,,,,,,,,,,,,,,,15,,57,48
11880,note_on,,0,0,10,,,,,,,,,,,,,,,,15,,65,48
11880,note_on,,1,0,6,,,,,,,,,,,,,,,,5,,77,64
11880,note_on,,0,0,10,,,,,,,,,,,,,,,,15,,60,48
11880,note_on,,0,0,10,,,,,,,,,,,,,,,,15,,72,48
11880,note_on,,1,0,9,,,,,,,,,,,,,,,,13,,57,48
12059,note_on,,179,0,6,,,,,,,,,,,,,,,,5,,77,0
12060,note_on,,1,0,6,,,,,,,,,,,,,,,,5,,75,64
12119,note_on,,59,0,6,,,,,,,,,,,,,,,,5,,75,0
12119,note_on,,239,0,10,,,,,,,,,,,,,,,,15,,57,0
12119,note_on,,0,0,10,,,,,,,,,,,,,,,,15,,72,0
12119,note_on,,0,0,10,,,,,,,,,,,,,,,,15,,60,0
12119,note_on,,239,0,9,,,,,,,,,,,,,,,,13,,57,0
12119,note_on,,0,0,10,,,,,,,,,,,,,,,,15,,65,0
12120,note_on,,0,0,10,,,,,,,,,,,,,,,,15,,62,48
12120,note_on,,1,0,10,,,,,,,,,,,,,,,,15,,58,48
12120,note_on,,0,0,10,,,,,,,,,,,,,,,,15,,65,48
12120,note_on,,1,0,6,,,,,,,,,,,,,,,,5,,74,64
12120,note_on,,1,0,9,,,,,,,,,,,,,,,,13,,58,48
12239,note_on,,0,0,10,,,,,,,,,,,,,,,,15,,65,0
12239,note_on,,119,0,6,,,,,,,,,,,,,,,,5,,74,0
12239,note_on,,119,0,10,,,,,,,,,,,,,,,,15,,58,0
12239,note_on,,119,0,9,,,,,,,,,,,,,,,,13,,58,0
12239,note_on,,0,0,10,,,,,,,,,,,,,,,,15,,62,0
12240,note_on,,0,0,10,,,,,,,,,,,,,,,,15,,60,48
12240,note_on,,1,0,6,,,,,,,,,,,,,,,,5,,72,64
12240,note_on,,0,0,10,,,,,,,,,,,,,,,,15,,65,48
12240,note_on,,0,0,10,,,,,,,,,,,,,,,,15,,69,48
12240,note_on,,1,0,10,,,,,,,,,,,,,,,,15,,53,48
12240,note_on,,1,0,9,,,,,,,,,,,,,,,,13,,53,48
12359,note_on,,0,0,10,,,,,,,,,,,,,,,,15,,69,0
12359,note_on,,119,0,10,,,,,,,,,,,,,,,,15,,53,0
12359,note_on,,0,0,10,,,,,,,,,,,,,,,,15,,65,0
12359,note_on,,0,0,10,,,,,,,,,,,,,,,,15,,60,0
12359,note_on,,119,0,6,,,,,,,,,,,,,,,,5,,72,0
12359,note_on,,119,0,9,,,,,,,,,,,,,,,,13,,53,0
12360,note_on,,1,0,6,,,,,,,,,,,,,,,,5,,70,64
12360,note_on,,1,0,9,,,,,,,,,,,,,,,,13,,46,48
12360,note_on,,1,0,10,,,,,,,,,,,,,,,,15,,46,48
12360,note_on,,0,0,10,,,,,,,,,,,,,,,,15,,70,48
12360,note_on,,0,0,10,,,,,,,,,,,,,,,,15,,65,48
12360,note_on,,0,0,10,,,,,,,,,,,,,,,,15,,62,48
12479,note_on,,119,0,6,,,,,,,,,,,,,,,,5,,70,0
12479,note_on,,119,0,10,,,,,,,,,,,,,,,,15,,46,0
12479,note_on,,119,0,9,,,,,,,,,,,,,,,,13,,46,0
12480,note_on,,1,0,9,,,,,,,,,,,,,,,,13,,58,72
12480,note_on,,1441,0,8,,,,,,,,,,,,,,,,11,,70,64
12480,note_on,,1,0,10,,,,,,,,,,,,,,,,15,,58,72
12480,note_on,,1441,0,5,,,,,,,,,,,,,,,,2,,58,72
12480,note_on,,1441,0,7,,,,,,,,,,,,,,,,10,,70,64
12599,note_on,,119,0,5,,,,,,,,,,,,,,,,2,,58,0
12599,note_on,,119,0,9,,,,,,,,,,,,,,,,13,,58,0
12599,note_on,,119,0,8,,,,,,,,,,,,,,,,11,,70,0
12599,note_on,,119,0,7,,,,,,,,,,,,,,,,10,,70,0
12599,note_on,,0,0,10,,,,,,,,,,,,,,,,15,,58,0
12599,note_on,,0,0,10,,,,,,,,,,,,,,,,15,,62,0
12599,note_on,,0,0,10,,,,,,,,,,,,,,,,15,,65,0
12599,note_on,,119,0,10,,,,,,,,,,,,,,,,15,,70,0
12600,note_on,,1,0,9,,,,,,,,,,,,,,,,13,,62,72
12600,note_on,,1,0,8,,,,,,,,,,,,,,,,11,,77,64
12600,note_on,,1,0,5,,,,,,,,,,,,,,,,2,,62,72
12600,note_on,,1,0,7,,,,,,,,,,,,,,,,10,,77,64
12600,note_on,,0,0,10,,,,,,,,,,,,,,,,15,,65,72
12600,note_on,,0,0,10,,,,,,,,,,,,,,,,15,,70,72
12600,note_on,,1,0,10,,,,,,,,,,,,,,,,15,,62,72
12779,note_on,,179,0,5,,,,,,,,,,,,,,,,2,,62,0
12779,note_on,,179,0,8,,,,,,,,,,,,,,,,11,,77,0
12779,note_on,,179,0,9,,,,,,,,,,,,,,,,13,,62,0
12779,note_on,,179,0,10,,,,,,,,,,,,,,,,15,,62,0
12779,note_on,,179,0,7,,,,,,,,,,,,,,,,10,,77,0
12780,note_on,,1,0,10,,,,,,,,,,,,,,,,15,,60,72
12780,note_on,,1,0,5,,,,,,,,,,,,,,,,2,,60,72
12780,note_on,,1,0,9,,,,,,,,,,,,,,,,13,,60,72
12780,note_on,,1,0,8,,,,,,,,,,,,,,,,11,,75,64
12780,note_on,,1,0,7,,,,,,,,,,,,,,,,10,,75,64
12839,note_on,,0,0,10,,,,,,,,,,,,,,,,15,,60,0
12839,note_on,,0,0,10,,,,,,,,,,,,,,,,15,,65,0
12839,note_on,,59,0,10,,,,,,,,,,,,,,,,15,,70,0
12839,note_on,,59,0,9,,,,,,,,,,,,,,,,13,,60,0
12839,note_on,,59,0,5,,,,,,,,,,,,,,,,2,,60,0
12839,note_on,,59,0,7,,,,,,,,,,,,,,,,10,,75,0
12839,note_on,,59,0,8,,,,,,,,,,,,,,,,11,,75,0
12840,note_on,,1,0,9,,,,,,,,,,,,,,,,13,,58,72
12840,note_on,,1,0,5,,,,,,,,,,,,,,,,2,,58,72
12840,note_on,,0,0,10,,,,,,,,,,,,,,,,15,,74,72
12840,note_on,,1,0,8,,,,,,,,,,,,,,,,11,,74,64
12840,note_on,,0,0,10,,,,,,,,,,,,,,,,15,,70,72
12840,note_on,,1,0,7,,,,,,,,,,,,,,,,10,,74,64
12840,note_on,,0,0,10,,,,,,,,,,,,,,,,15,,62,72
12840,note_on,,1,0,10,,,,,,,,,,,,,,,,15,,58,72
12959,note_on,,119,0,10,,,,,,,,,,,,,,,,15,,58,0
12959,note_on,,119,0,5,,,,,,,,,,,,,,,,2,,58,0
12959,note_on,,0,0,10,,,,,,,,,,,,,,,,15,,74,0
12959,note_on,,119,0,8,,,,,,,,,,,,,,,,11,,74,0
12959,note_on,,0,0,10,,,,,,,,,,,,,,,,15,,62,0
12959,note_on,,0,0,10,,,,,,,,,,,,,,,,15,,70,0
12959,note_on,,119,0,9,,,,,,,,,,,,,,,,13,,58,0
12959,note_on,,119,0,7,,,,,,,,,,,,,,,,10,,74,0
12960,note_on,,0,0,10,,,,,,,,,,,,,,,,15,,60,72
12960,note_on,,0,0,10,,,,,,,,,,,,,,,,15,,69,72
12960,note_on,,1,0,5,,,,,,,,,,,,,,,,2,,53,72
12960,note_on,,1,0,7,,,,,,,,,,,,,,,,10,,72,64
12960,note_on,,1,0,9,,,,,,,,,,,,,,,,13,,53,72
12960,note_on,,1,0,8,,,,,,,,,,,,,,,,11,,72,64
12960,note_on,,1,0,10,,,,,,,,,,,,,,,,15,,53,72
12960,note_on,,0,0,10,,,,,,,,,,,,,,,,15,,77,72
13079,note_on,,119,0,5,,,,,,,,,,,,,,,,2,,53,0
13079,note_on,,119,0,9,,,,,,,,,,,,,,,,13,,53,0
13079,note_on,,119,0,7,,,,,,,,,,,,,,,,10,,72,0
13079,note_on,,0,0,10,,,,,,,,,,,,,,,,15,,69,0
13079,note_on,,0,0,10,,,,,,,,,,,,,,,,15,,77,0
13079,note_on,,0,0,10,,,,,,,,,,,,,,,,15,,60,0
13079,note_on,,119,0,10,,,,,,,,,,,,,,,,15,,53,0
13079,note_on,,119,0,8,,,,,,,,,,,,,,,,11,,72,0
13080,note_on,,0,0,10,,,,,,,,,,,,,,,,15,,65,72
13080,note_on,,0,0,10,,,,,,,,,,,,,,,,15,,74,72
13080,note_on,,0,0,10,,,,,,,,,,,,,,,,15,,58,72
13080,note_on,,1,0,10,,,,,,,,,,,,,,,,15,,46,72
13080,note_on,,1,0,7,,,,,,,,,,,,,,,,10,,70,64
13080,note_on,,1,0,8,,,,,,,,,,,,,,,,11,,70,64
13080,note_on,,1,0,9,,,,,,,,,,,,,,,,13,,46,72
13080,note_on,,1,0,5,,,,,,,,,,,,,,,,2,,46,72
13199,note_on,,119,0,5,,,,,,,,,,,,,,,,2,,46,0
13199,note_on,,0,0,10,,,,,,,,,,,,,,,,15,,58,0
13199,note_on,,119,0,8,,,,,,,,,,,,,,,,11,,70,0
13199,note_on,,119,0,9,,,,,,,,,,,,,,,,13,,46,0
13199,note_on,,119,0,7,,,,,,,,,,,,,,,,10,,70,0
13199,note_on,,119,0,10,,,,,,,,,,,,,,,,15,,46,0
13200,note_on,,721,0,6,,,,,,,,,,,,,,,,5,,74,64
13200,note_on,,1,0,9,,,,,,,,,,,,,,,,13,,58,48
13200,note_on,,1,0,10,,,,,,,,,,,,,,,,15,,58,48
13319,note_on,,119,0,10,,,,,,,,,,,,,,,,15,,74,0
13319,note_on,,119,0,9,,,,,,,,,,,,,,,,13,,58,0
13319,note_on,,119,0,6,,,,,,,,,,,,,,,,5,,74,0
13319,note_on,,0,0,10,,,,,,,,,,,,,,,,15,,58,0
13319,note_on,,0,0,10,,,,,,,,,,,,,,,,15,,65,0
13320,note_on,,1,0,9,,,,,,,,,,,,,,,,13,,53,48
13320,note_on,,0,0,10,,,,,,,,,,,,,,,,15,,60,48
13320,note_on,,0,0,10,,,,,,,,,,,,,,,,15,,65,48
13320,note_on,,0,0,10,,,,,,,,,,,,,,,,15,,69,48
13320,note_on,,1,0,10,,,,,,,,,,,,,,,,15,,53,48
13320,note_on,,1,0,6,,,,,,,,,,,,,,,,5,,72,64
13439,note_on,,119,0,9,,,,,,,,,,,,,,,,13,,53,0
13439,note_on,,119,0,10,,,,,,,,,,,,,,,,15,,53,0
13440,note_on,,1,0,10,,,,,,,,,,,,,,,,15,,51,48
13440,note_on,,1,0,9,,,,,,,,,,,,,,,,13,,51,48
13559,note_on,,119,0,9,,,,,,,,,,,,,,,,13,,51,0
13559,note_on,,0,0,10,,,,,,,,,,,,,,,,15,,51,0
13559,note_on,,239,0,6,,,,,,,,,,,,,,,,5,,72,0
13559,note_on,,119,0,10,,,,,,,,,,,,,,,,15,,69,0
13559,note_on,,0,0,10,,,,,,,,,,,,,,,,15,,65,0
13559,note_on,,0,0,10,,,,,,,,,,,,,,,,15,,60,0
13560,note_on,,0,0,10,,,,,,,,,,,,,,,,15,,65,48
13560,note_on,,1,0,6,,,,,,,,,,,,,,,,5,,74,64
13560,note_on,,0,0,10,,,,,,,,,,,,,,,,15,,62,48
13560,note_on,,1,0,9,,,,,,,,,,,,,,,,13,,50,48
13560,note_on,,1,0,10,,,,,,,,,,,,,,,,15,,50,48
13560,note_on,,0,0,10,,,,,,,,,,,,,,,,15,,70,48
13679,note_on,,0,0,10,,,,,,,,,,,,,,,,15,,62,0
13679,note_on,,0,0,10,,,,,,,,,,,,,,,,15,,65,0
13679,note_on,,0,0,10,,,,,,,,,,,,,,,,15,,70,0
13679,note_on,,119,0,9,,,,,,,,,,,,,,,,13,,50,0
13679,note_on,,119,0,10,,,,,,,,,,,,,,,,15,,50,0
13679,note_on,,119,0,6,,,,,,,,,,,,,,,,5,,74,0
13680,note_on,,1,0,9,,,,,,,,,,,,,,,,13,,48,48
13680,note_on,,1,0,10,,,,,,,,,,,,,,,,15,,48,48
13680,note_on,,0,0,10,,,,,,,,,,,,,,,,15,,67,48
13680,note_on,,0,0,10,,,,,,,,,,,,,,,,15,,63,48
13680,note_on,,1,0,6,,,,,,,,,,,,,,,,5,,75,64
13680,note_on,,0,0,10,,,,,,,,,,,,,,,,15,,72,48
13799,note_on,,119,0,10,,,,,,,,,,,,,,,,15,,67,0
13799,note_on,,0,0,10,,,,,,,,,,,,,,,,15,,63,0
13800,note_on,,1,0,10,,,,,,,,,,,,,,,,15,,69,48
13800,note_on,,0,0,10,,,,,,,,,,,,,,,,15,,60,48
13919,note_on,,239,0,9,,,,,,,,,,,,,,,,13,,48,0
13919,note_on,,119,0,10,,,,,,,,,,,,,,,,15,,48,0
13919,note_on,,0,0,10,,,,,,,,,,,,,,,,15,,72,0
13919,note_on,,0,0,10,,,,,,,,,,,,,,,,15,,69,0
13919,note_on,,239,0,6,,,,,,,,,,,,,,,,5,,75,0
13919,note_on,,0,0,10,,,,,,,,,,,,,,,,15,,60,0
13920,note_on,,1,0,6,,,,,,,,,,,,,,,,5,,74,64
13920,note_on,,0,0,10,,,,,,,,,,,,,,,,15,,62,48
13920,note_on,,1,0,9,,,,,,,,,,,,,,,,13,,55,48
13920,note_on,,0,0,10,,,,,,,,,,,,,,,,15,,70,48
13920,note_on,,1,0,10,,,,,,,,,,,,,,,,15,,55,48
13920,note_on,,0,0,10,,,,,,,,,,,,,,,,15,,67,48
14039,note_on,,119,0,9,,,,,,,,,,,,,,,,13,,55,0
14039,note_on,,119,0,6,,,,,,,,,,,,,,,,5,,74,0
14039,note_on,,0,0,10,,,,,,,,,,,,,,,,15,,67,0
14039,note_on,,0,0,10,,,,,,,,,,,,,,,,15,,70,0
14039,note_on,,0,0,10,,,,,,,,,,,,,,,,15,,62,0
14039,note_on,,119,0,10,,,,,,,,,,,,,,,,15,,55,0
14040,note_on,,1,0,9,,,,,,,,,,,,,,,,13,,51,48
14040,note_on,,1,0,6,,,,,,,,,,,,,,,,5,,79,64
14040,note_on,,0,0,10,,,,,,,,,,,,,,,,15,,67,48
14040,note_on,,0,0,10,,,,,,,,,,,,,,,,15,,70,48
14040,note_on,,0,0,10,,,,,,,,,,,,,,,,15,,55,48
14040,note_on,,1,0,10,,,,,,,,,,,,,,,,15,,51,48
14159,note_on,,119,0,6,,,,,,,,,,,,,,,,5,,79,0
14160,note_on,,1,0,6,,,,,,,,,,,,,,,,5,,70,64
14279,note_on,,119,0,6,,,,,,,,,,,,,,,,5,,70,0
14279,note_on,,239,0,10,,,,,,,,,,,,,,,,15,,67,0
14279,note_on,,0,0,10,,,,,,,,,,,,,,,,15,,70,0
14280,note_on,,1,0,10,,,,,,,,,,,,,,,,15,,72,48
14280,note_on,,0,0,10,,,,,,,,,,,,,,,,15,,69,48
14280,note_on,,1,0,6,,,,,,,,,,,,,,,,5,,72,64
14399,note_on,,119,0,6,,,,,,,,,,,,,,,,5,,72,0
14399,note_on,,0,0,10,,,,,,,,,,,,,,,,15,,69,0
14399,note_on,,0,0,10,,,,,,,,,,,,,,,,15,,72,0
14399,note_on,,0,0,10,,,,,,,,,,,,,,,,15,,55,0
14399,note_on,,119,0,10,,,,,,,,,,,,,,,,15,,51,0
14399,note_on,,359,0,9,,,,,,,,,,,,,,,,13,,51,0
14400,note_on,,0,0,10,,,,,,,,,,,,,,,,15,,74,48
14400,note_on,,0,0,10,,,,,,,,,,,,,,,,15,,57,48
14400,note_on,,1,0,9,,,,,,,,,,,,,,,,13,,50,48
14400,note_on,,1,0,6,,,,,,,,,,,,,,,,5,,74,64
14400,note_on,,0,0,10,,,,,,,,,,,,,,,,15,,66,48
14400,note_on,,1,0,10,,,,,,,,,,,,,,,,15,,50,48
14519,note_on,,119,0,6,,,,,,,,,,,,,,,,5,,74,0
14520,note_on,,1,0,6,,,,,,,,,,,,,,,,5,,74,64
14639,note_on,,239,0,9,,,,,,,,,,,,,,,,13,,50,0
14639,note_on,,0,0,10,,,,,,,,,,,,,,,,15,,57,0
14639,note_on,,0,0,10,,,,,,,,,,,,,,,,15,,66,0
14639,note_on,,0,0,10,,,,,,,,,,,,,,,,15,,74,0
14639,note_on,,119,0,6,,,,,,,,,,,,,,,,5,,74,0
14639,note_on,,239,0,10,,,,,,,,,,,,,,,,15,,50,0
14640,note_on,,1441,0,7,,,,,,,,,,,,,,,,10,,74,72
14640,note_on,,1,0,9,,,,,,,,,,,,,,,,13,,58,72
14640,note_on,,0,0,10,,,,,,,,,,,,,,,,15,,62,72
14640,note_on,,0,0,10,,,,,,,,,,,,,,,,15,,70,72
14640,note_on,,1,0,10,,,,,,,,,,,,,,,,15,,58,72
14640,note_on,,1441,0,5,,,,,,,,,,,,,,,,2,,58,72
14640,note_on,,0,0,10,,,,,,,,,,,,,,,,15,,67,72
14640,note_on,,1441,0,8,,,,,,,,,,,,,,,,11,,74,72
14759,note_on,,0,0,10,,,,,,,,,,,,,,,,15,,62,0
14759,note_on,,119,0,8,,,,,,,,,,,,,,,,11,,74,0
14759,note_on,,119,0,9,,,,,,,,,,,,,,,,13,,58,0
14759,note_on,,119,0,5,,,,,,,,,,,,,,,,2,,58,0
14759,note_on,,0,0,10,,,,,,,,,,,,,,,,15,,67,0
14759,note_on,,119,0,7,,,,,,,,,,,,,,,,10,,74,0
14759,note_on,,0,0,10,,,,,,,,,,,,,,,,15,,70,0
14759,note_on,,119,0,10,,,,,,,,,,,,,,,,15,,58,0
14760,note_on,,1,0,10,,,,,,,,,,,,,,,,15,,48,72
14760,note_on,,0,0,10,,,,,,,,,,,,,,,,15,,67,72
14760,note_on,,1,0,7,,,,,,,,,,,,,,,,10,,75,72
14760,note_on,,0,0,10,,,,,,,,,,,,,,,,15,,60,72
14760,note_on,,0,0,10,,,,,,,,,,,,,,,,15,,72,72
14760,note_on,,1,0,5,,,,,,,,,,,,,,,,2,,48,72
14760,note_on,,1,0,8,,,,,,,,,,,,,,,,11,,75,72
14760,note_on,,1,0,9,,,,,,,,,,,,,,,,13,,48,72
14760,note_on,,0,0,10,,,,,,,,,,,,,,,,15,,75,72
14819,note_on,,59,0,8,,,,,,,,,,,,,,,,11,,75,0
14819,note_on,,59,0,7,,,,,,,,,,,,,,,,10,,75,0
14820,note_on,,1,0,7,,,,,,,,,,,,,,,,10,,79,72
14820,note_on,,1,0,8,,,,,,,,,,,,,,,,11,,79,72
14879,note_on,,119,0,10,,,,,,,,,,,,,,,,15,,48,0
14879,note_on,,0,0,10,,,,,,,,,,,,,,,,15,,75,0
14879,note_on,,0,0,10,,,,,,,,,,,,,,,,15,,72,0
14879,note_on,,0,0,10,,,,,,,,,,,,,,,,15,,67,0
14879,note_on,,0,0,10,,,,,,,,,,,,,,,,15,,60,0
14879,note_on,,59,0,8,,,,,,,,,,,,,,,,11,,79,0
14879,note_on,,59,0,7,,,,,,,,,,,,,,,,10,,79,0
14879,note_on,,119,0,5,,,,,,,,,,,,,,,,2,,48,0
14879,note_on,,119,0,9,,,,,,,,,,,,,,,,13,,48,0
14880,note_on,,1,0,8,,,,,,,,,,,,,,,,11,,72,72
14880,note_on,,1,0,7,,,,,,,,,,,,,,,,10,,72,72
14939,note_on,,59,0,8,,,,,,,,,,,,,,,,11,,72,0
14939,note_on,,59,0,7,,,,,,,,,,,,,,,,10,,72,0
14940,note_on,,1,0,7,,,,,,,,,,,,,,,,10,,75,72
14940,note_on,,1,0,8,,,,,,,,,,,,,,,,11,,75,72
14999,note_on,,59,0,8,,,,,,,,,,,,,,,,11,,75,0
14999,note_on,,59,0,7,,,,,,,,,,,,,,,,10,,75,0
15000,note_on,,1,0,8,,,,,,,,,,,,,,,,11,,69,72
15000,note_on,,1,0,7,,,,,,,,,,,,,,,,10,,69,72
15059,note_on,,59,0,7,,,,,,,,,,,,,,,,10,,69,0
15059,note_on,,59,0,8,,,,,,,,,,,,,,,,11,,69,0
15060,note_on,,1,0,7,,,,,,,,,,,,,,,,10,,72,72
15060,note_on,,1,0,8,,,,,,,,,,,,,,,,11,,72,72
15119,note_on,,59,0,8,,,,,,,,,,,,,,,,11,,72,0
15119,note_on,,59,0,7,,,,,,,,,,,,,,,,10,,72,0
15120,note_on,,1,0,8,,,,,,,,,,,,,,,,11,,65,72
15120,note_on,,0,0,10,,,,,,,,,,,,,,,,15,,60,72
15120,note_on,,0,0,10,,,,,,,,,,,,,,,,15,,65,72
15120,note_on,,0,0,10,,,,,,,,,,,,,,,,15,,72,72
15120,note_on,,0,0,10,,,,,,,,,,,,,,,,15,,77,72
15120,note_on,,241,0,10,,,,,,,,,,,,,,,,15,,57,72
15120,note_on,,241,0,5,,,,,,,,,,,,,,,,2,,57,72
15120,note_on,,241,0,9,,,,,,,,,,,,,,,,13,,57,72
15120,note_on,,1,0,7,,,,,,,,,,,,,,,,10,,65,72
15239,note_on,,119,0,5,,,,,,,,,,,,,,,,2,,57,0
15239,note_on,,0,0,10,,,,,,,,,,,,,,,,15,,77,0
15239,note_on,,0,0,10,,,,,,,,,,,,,,,,15,,72,0
15239,note_on,,119,0,9,,,,,,,,,,,,,,,,13,,57,0
15239,note_on,,0,0,10,,,,,,,,,,,,,,,,15,,60,0
15239,note_on,,0,0,10,,,,,,,,,,,,,,,,15,,65,0
15239,note_on,,119,0,10,,,,,,,,,,,,,,,,15,,57,0
15299,note_on,,179,0,8,,,,,,,,,,,,,,,,11,,65,0
15299,note_on,,179,0,7,,,,,,,,,,,,,,,,10,,65,0
15330,note_on,,31,0,8,,,,,,,,,,,,,,,,11,,72,72
15330,note_on,,31,0,7,,,,,,,,,,,,,,,,10,,72,72
15359,note_on,,29,0,8,,,,,,,,,,,,,,,,11,,72,0
15359,note_on,,29,0,7,,,,,,,,,,,,,,,,10,,72,0
15360,note_on,,1,0,8,,,,,,,,,,,,,,,,11,,72,72
15360,note_on,,1,0,7,,,,,,,,,,,,,,,,10,,72,72
15374,note_on,,14,0,8,,,,,,,,,,,,,,,,11,,72,0
15374,note_on,,14,0,7,,,,,,,,,,,,,,,,10,,72,0
15375,note_on,,1,0,7,,,,,,,,,,,,,,,,10,,74,72
15375,note_on,,1,0,8,,,,,,,,,,,,,,,,11,,74,72
15389,note_on,,14,0,7,,,,,,,,,,,,,,,,10,,74,0
15389,note_on,,14,0,8,,,,,,,,,,,,,,,,11,,74,0
15390,note_on,,1,0,7,,,,,,,,,,,,,,,,10,,72,72
15390,note_on,,1,0,8,,,,,,,,,,,,,,,,11,,72,72
15404,note_on,,14,0,7,,,,,,,,,,,,,,,,10,,72,0
15404,note_on,,14,0,8,,,,,,,,,,,,,,,,11,,72,0
15405,note_on,,1,0,7,,,,,,,,,,,,,,,,10,,74,72
15405,note_on,,1,0,8,,,,,,,,,,,,,,,,11,,74,72
15419,note_on,,14,0,7,,,,,,,,,,,,,,,,10,,74,0
15419,note_on,,14,0,8,,,,,,,,,,,,,,,,11,,74,0
15420,note_on,,1,0,8,,,,,,,,,,,,,,,,11,,72,72
15420,note_on,,1,0,7,,,,,,,,,,,,,,,,10,,72,72
15434,note_on,,14,0,8,,,,,,,,,,,,,,,,11,,72,0
15434,note_on,,14,0,7,,,,,,,,,,,,,,,,10,,72,0
15435,note_on,,1,0,8,,,,,,,,,,,,,,,,11,,74,72
15435,note_on,,1,0,7,,,,,,,,,,,,,,,,10,,74,72
15449,note_on,,14,0,8,,,,,,,,,,,,,,,,11,,74,0
15449,note_on,,14,0,7,,,,,,,,,,,,,,,,10,,74,0
15450,note_on,,1,0,7,,,,,,,,,,,,,,,,10,,70,72
15450,note_on,,1,0,8,,,,,,,,,,,,,,,,11,,70,72
15464,note_on,,14,0,8,,,,,,,,,,,,,,,,11,,70,0
15464,note_on,,14,0,7,,,,,,,,,,,,,,,,10,,70,0
15465,note_on,,1,0,8,,,,,,,,,,,,,,,,11,,72,72
15465,note_on,,1,0,7,,,,,,,,,,,,,,,,10,,72,72
15479,note_on,,14,0,7,,,,,,,,,,,,,,,,10,,72,0
15479,note_on,,14,0,8,,,,,,,,,,,,,,,,11,,72,0
15480,note_on,,1,0,7,,,,,,,,,,,,,,,,10,,74,72
15480,note_on,,241,0,10,,,,,,,,,,,,,,,,15,,46,72
15480,note_on,,0,0,10,,,,,,,,,,,,,,,,15,,74,72
15480,note_on,,0,0,10,,,,,,,,,,,,,,,,15,,65,72
15480,note_on,,1,0,8,,,,,,,,,,,,,,,,11,,74,72
15480,note_on,,241,0,5,,,,,,,,,,,,,,,,2,,46,72
15480,note_on,,0,0,10,,,,,,,,,,,,,,,,15,,58,72
15480,note_on,,241,0,9,,,,,,,,,,,,,,,,13,,46,72
15539,note_on,,59,0,7,,,,,,,,,,,,,,,,10,,74,0
15539,note_on,,59,0,8,,,,,,,,,,,,,,,,11,,74,0
15540,note_on,,1,0,7,,,,,,,,,,,,,,,,10,,77,72
15540,note_on,,1,0,8,,,,,,,,,,,,,,,,11,,77,72
15599,note_on,,0,0,10,,,,,,,,,,,,,,,,15,,58,0
15599,note_on,,59,0,8,,,,,,,,,,,,,,,,11,,77,0
15599,note_on,,119,0,5,,,,,,,,,,,,,,,,2,,46,0
15599,note_on,,0,0,10,,,,,,,,,,,,,,,,15,,74,0
15599,note_on,,119,0,10,,,,,,,,,,,,,,,,15,,46,0
15599,note_on,,119,0,9,,,,,,,,,,,,,,,,13,,46,0
15599,note_on,,59,0,7,,,,,,,,,,,,,,,,10,,77,0
15599,note_on,,0,0,10,,,,,,,,,,,,,,,,15,,65,0
15600,note_on,,1,0,8,,,,,,,,,,,,,,,,11,,70,72
15600,note_on,,1,0,7,,,,,,,,,,,,,,,,10,,70,72
15659,note_on,,59,0,8,,,,,,,,,,,,,,,,11,,70,0
15659,note_on,,59,0,7,,,,,,,,,,,,,,,,10,,70,0
15660,note_on,,1,0,8,,,,,,,,,,,,,,,,11,,74,72
15660,note_on,,1,0,7,,,,,,,,,,,,,,,,10,,74,72
15719,note_on,,59,0,7,,,,,,,,,,,,,,,,10,,74,0
15719,note_on,,59,0,8,,,,,,,,,,,,,,,,11,,74,0
15720,note_on,,1,0,8,,,,,,,,,,,,,,,,11,,67,72
15720,note_on,,1,0,7,,,,,,,,,,,,,,,,10,,67,72
15779,note_on,,59,0,8,,,,,,,,,,,,,,,,11,,67,0
15779,note_on,,59,0,7,,,,,,,,,,,,,,,,10,,67,0
15780,note_on,,1,0,7,,,,,,,,,,,,,,,,10,,70,72
15780,note_on,,1,0,8,,,,,,,,,,,,,,,,11,,70,72
15839,note_on,,59,0,7,,,,,,,,,,,,,,,,10,,70,0
15839,note_on,,59,0,8,,,,,,,,,,,,,,,,11,,70,0
15840,note_on,,241,0,10,,,,,,,,,,,,,,,,15,,55,72
15840,note_on,,0,0,10,,,,,,,,,,,,,,,,15,,75,72
15840,note_on,,0,0,10,,,,,,,,,,,,,,,,15,,67,72
15840,note_on,,0,0,10,,,,,,,,,,,,,,,,15,,58,72
15840,note_on,,1,0,7,,,,,,,,,,,,,,,,10,,63,72
15840,note_on,,1,0,8,,,,,,,,,,,,,,,,11,,63,72
15840,note_on,,241,0,5,,,,,,,,,,,,,,,,2,,55,72
15840,note_on,,241,0,9,,,,,,,,,,,,,,,,13,,55,72
15959,note_on,,0,0,10,,,,,,,,,,,,,,,,15,,75,0
15959,note_on,,119,0,5,,,,,,,,,,,,,,,,2,,55,0
15959,note_on,,119,0,10,,,,,,,,,,,,,,,,15,,55,0
15959,note_on,,0,0,10,,,,,,,,,,,,,,,,15,,58,0
15959,note_on,,0,0,10,,,,,,,,,,,,,,,,15,,67,0
15959,note_on,,119,0,9,,,,,,,,,,,,,,,,13,,55,0
16019,note_on,,179,0,8,,,,,,,,,,,,,,,,11,,63,0
16019,note_on,,179,0,7,,,,,,,,,,,,,,,,10,,63,0
16050,note_on,,31,0,8,,,,,,,,,,,,,,,,11,,70,72
16050,note_on,,31,0,7,,,,,,,,,,,,,,,,10,,70,72
16079,note_on,,29,0,8,,,,,,,,,,,,,,,,11,,70,0
16079,note_on,,29,0,7,,,,,,,,,,,,,,,,10,,70,0
16080,note_on,,1,0,8,,,,,,,,,,,,,,,,11,,70,72
16080,note_on,,1,0,7,,,,,,,,,,,,,,,,10,,70,72
16094,note_on,,14,0,8,,,,,,,,,,,,,,,,11,,70,0
16094,note_on,,14,0,7,,,,,,,,,,,,,,,,10,,70,0
16095,note_on,,1,0,8,,,,,,,,,,,,,,,,11,,72,72
16095,note_on,,1,0,7,,,,,,,,,,,,,,,,10,,72,72
16109,note_on,,14,0,7,,,,,,,,,,,,,,,,10,,72,0
16109,note_on,,14,0,8,,,,,,,,,,,,,,,,11,,72,0
16110,note_on,,1,0,7,,,,,,,,,,,,,,,,10,,70,72
16110,note_on,,1,0,8,,,,,,,,,,,,,,,,11,,70,72
16124,note_on,,14,0,7,,,,,,,,,,,,,,,,10,,70,0
16124,note_on,,14,0,8,,,,,,,,,,,,,,,,11,,70,0
16125,note_on,,1,0,8,,,,,,,,,,,,,,,,11,,72,72
16125,note_on,,1,0,7,,,,,,,,,,,,,,,,10,,72,72
16139,note_on,,14,0,7,,,,,,,,,,,,,,,,10,,72,0
16139,note_on,,14,0,8,,,,,,,,,,,,,,,,11,,72,0
16140,note_on,,1,0,7,,,,,,,,,,,,,,,,10,,70,72
16140,note_on,,1,0,8,,,,,,,,,,,,,,,,11,,70,72
16154,note_on,,14,0,8,,,,,,,,,,,,,,,,11,,70,0
16154,note_on,,14,0,7,,,,,,,,,,,,,,,,10,,70,0
16155,note_on,,1,0,8,,,,,,,,,,,,,,,,11,,72,72
16155,note_on,,1,0,7,,,,,,,,,,,,,,,,10,,72,72
16169,note_on,,14,0,8,,,,,,,,,,,,,,,,11,,72,0
16169,note_on,,14,0,7,,,,,,,,,,,,,,,,10,,72,0
16170,note_on,,1,0,8,,,,,,,,,,,,,,,,11,,69,72
16170,note_on,,1,0,7,,,,,,,,,,,,,,,,10,,69,72
16184,note_on,,14,0,8,,,,,,,,,,,,,,,,11,,69,0
16184,note_on,,14,0,7,,,,,,,,,,,,,,,,10,,69,0
16185,note_on,,1,0,7,,,,,,,,,,,,,,,,10,,70,72
16185,note_on,,1,0,8,,,,,,,,,,,,,,,,11,,70,72
16199,note_on,,14,0,7,,,,,,,,,,,,,,,,10,,70,0
16199,note_on,,14,0,8,,,,,,,,,,,,,,,,11,,70,0
16200,note_on,,0,0,10,,,,,,,,,,,,,,,,15,,72,72
16200,note_on,,0,0,10,,,,,,,,,,,,,,,,15,,69,72
16200,note_on,,241,0,5,,,,,,,,,,,,,,,,2,,45,72
16200,note_on,,0,0,10,,,,,,,,,,,,,,,,15,,67,72
16200,note_on,,0,0,10,,,,,,,,,,,,,,,,15,,57,72
16200,note_on,,241,0,9,,,,,,,,,,,,,,,,13,,45,72
16200,note_on,,1,0,7,,,,,,,,,,,,,,,,10,,72,72
16200,note_on,,241,0,10,,,,,,,,,,,,,,,,15,,45,72
16200,note_on,,1,0,8,,,,,,,,,,,,,,,,11,,72,72
16259,note_on,,59,0,7,,,,,,,,,,,,,,,,10,,72,0
16259,note_on,,59,0,8,,,,,,,,,,,,,,,,11,,72,0
16260,note_on,,1,0,8,,,,,,,,,,,,,,,,11,,75,72
16260,note_on,,1,0,7,,,,,,,,,,,,,,,,10,,75,72
16319,note_on,,119,0,5,,,,,,,,,,,,,,,,2,,45,0
16319,note_on,,119,0,9,,,,,,,,,,,,,,,,13,,45,0
16319,note_on,,0,0,10,,,,,,,,,,,,,,,,15,,72,0
16319,note_on,,0,0,10,,,,,,,,,,,,,,,,15,,57,0
16319,note_on,,59,0,7,,,,,,,,,,,,,,,,10,,75,0
16319,note_on,,119,0,10,,,,,,,,,,,,,,,,15,,45,0
16319,note_on,,0,0,10,,,,,,,,,,,,,,,,15,,67,0
16319,note_on,,0,0,10,,,,,,,,,,,,,,,,15,,69,0
16319,note_on,,59,0,8,,,,,,,,,,,,,,,,11,,75,0
16320,note_on,,1,0,8,,,,,,,,,,,,,,,,11,,69,72
16320,note_on,,1,0,7,,,,,,,,,,,,,,,,10,,69,72
16379,note_on,,59,0,7,,,,,,,,,,,,,,,,10,,69,0
16379,note_on,,59,0,8,,,,,,,,,,,,,,,,11,,69,0
16380,note_on,,1,0,7,,,,,,,,,,,,,,,,10,,72,72
16380,note_on,,1,0,8,,,,,,,,,,,,,,,,11,,72,72
16439,note_on,,59,0,8,,,,,,,,,,,,,,,,11,,72,0
16439,note_on,,59,0,7,,,,,,,,,,,,,,,,10,,72,0
16440,note_on,,1,0,7,,,,,,,,,,,,,,,,10,,66,72
16440,note_on,,1,0,8,,,,,,,,,,,,,,,,11,,66,72
16499,note_on,,59,0,7,,,,,,,,,,,,,,,,10,,66,0
16499,note_on,,59,0,8,,,,,,,,,,,,,,,,11,,66,0
16500,note_on,,1,0,8,,,,,,,,,,,,,,,,11,,69,72
16500,note_on,,1,0,7,,,,,,,,,,,,,,,,10,,69,72
16559,note_on,,59,0,8,,,,,,,,,,,,,,,,11,,69,0
16559,note_on,,59,0,7,,,,,,,,,,,,,,,,10,,69,0
16560,note_on,,0,0,10,,,,,,,,,,,,,,,,15,,74,72
16560,note_on,,0,0,10,,,,,,,,,,,,,,,,15,,69,72
16560,note_on,,241,0,5,,,,,,,,,,,,,,,,2,,54,72
16560,note_on,,241,0,10,,,,,,,,,,,,,,,,15,,54,72
16560,note_on,,241,0,9,,,,,,,,,,,,,,,,13,,54,72
16560,note_on,,0,0,10,,,,,,,,,,,,,,,,15,,62,72
16560,note_on,,1,0,7,,,,,,,,,,,,,,,,10,,62,72
16560,note_on,,1,0,8,,,,,,,,,,,,,,,,11,,62,72
16560,note_on,,0,0,10,,,,,,,,,,,,,,,,15,,57,72
16679,note_on,,0,0,10,,,,,,,,,,,,,,,,15,,62,0
16679,note_on,,0,0,10,,,,,,,,,,,,,,,,15,,69,0
16679,note_on,,0,0,10,,,,,,,,,,,,,,,,15,,74,0
16679,note_on,,119,0,10,,,,,,,,,,,,,,,,15,,54,0
16679,note_on,,0,0,10,,,,,,,,,,,,,,,,15,,57,0
16679,note_on,,119,0,5,,,,,,,,,,,,,,,,2,,54,0
16679,note_on,,119,0,9,,,,,,,,,,,,,,,,13,,54,0
16679,note_on,,119,0,7,,,,,,,,,,,,,,,,10,,62,0
16679,note_on,,119,0,8,,,,,,,,,,,,,,,,11,,62,0
16680,note_on,,2041,0,6,,,,,,,,,,,,,,,,5,,69,64
16799,note_on,,119,0,6,,,,,,,,,,,,,,,,5,,69,0
16800,note_on,,1,0,6,,,,,,,,,,,,,,,,5,,74,64
16919,note_on,,119,0,6,,,,,,,,,,,,,,,,5,,74,0
16920,note_on,,1,0,6,,,,,,,,,,,,,,,,5,,70,64
16920,note_on,,241,0,9,,,,,,,,,,,,,,,,13,,55,48
16920,note_on,,241,0,10,,,,,,,,,,,,,,,,15,,55,48
16920,note_on,,0,0,10,,,,,,,,,,,,,,,,15,,70,48
16920,note_on,,0,0,10,,,,,,,,,,,,,,,,15,,67,48
16920,note_on,,0,0,10,,,,,,,,,,,,,,,,15,,62,48
16920,note_on,,0,0,10,,,,,,,,,,,,,,,,15,,58,48
17009,note_on,,89,0,6,,,,,,,,,,,,,,,,5,,70,0
17010,note_on,,1,0,6,,,,,,,,,,,,,,,,5,,69,64
17039,note_on,,119,0,9,,,,,,,,,,,,,,,,13,,55,0
17039,note_on,,0,0,10,,,,,,,,,,,,,,,,15,,58,0
17039,note_on,,0,0,10,,,,,,,,,,,,,,,,15,,62,0
17039,note_on,,0,0,10,,,,,,,,,,,,,,,,15,,67,0
17039,note_on,,29,0,6,,,,,,,,,,,,,,,,5,,69,0
17039,note_on,,119,0,10,,,,,,,,,,,,,,,,15,,55,0
17039,note_on,,0,0,10,,,,,,,,,,,,,,,,15,,70,0
17040,note_on,,1,0,6,,,,,,,,,,,,,,,,5,,70,64
17159,note_on,,119,0,6,,,,,,,,,,,,,,,,5,,70,0
17160,note_on,,1,0,6,,,,,,,,,,,,,,,,5,,75,64
17279,note_on,,119,0,6,,,,,,,,,,,,,,,,5,,75,0
17280,note_on,,241,0,9,,,,,,,,,,,,,,,,13,,57,48
17280,note_on,,0,0,10,,,,,,,,,,,,,,,,15,,60,48
17280,note_on,,0,0,10,,,,,,,,,,,,,,,,15,,65,48
17280,note_on,,0,0,10,,,,,,,,,,,,,,,,15,,72,48
17280,note_on,,0,0,10,,,,,,,,,,,,,,,,15,,77,48
17280,note_on,,1,0,6,,,,,,,,,,,,,,,,5,,72,64
17280,note_on,,241,0,10,,,,,,,,,,,,,,,,15,,57,48
17399,note_on,,119,0,9,,,,,,,,,,,,,,,,13,,57,0
17399,note_on,,119,0,6,,,,,,,,,,,,,,,,5,,72,0
17399,note_on,,119,0,10,,,,,,,,,,,,,,,,15,,57,0
17399,note_on,,0,0,10,,,,,,,,,,,,,,,,15,,77,0
17399,note_on,,0,0,10,,,,,,,,,,,,,,,,15,,72,0
17399,note_on,,0,0,10,,,,,,,,,,,,,,,,15,,65,0
17399,note_on,,0,0,10,,,,,,,,,,,,,,,,15,,60,0
17400,note_on,,1,0,6,,,,,,,,,,,,,,,,5,,72,64
17519,note_on,,119,0,6,,,,,,,,,,,,,,,,5,,72,0
17520,note_on,,1,0,6,,,,,,,,,,,,,,,,5,,77,64
17639,note_on,,119,0,6,,,,,,,,,,,,,,,,5,,77,0
17640,note_on,,0,0,10,,,,,,,,,,,,,,,,15,,65,48
17640,note_on,,241,0,10,,,,,,,,,,,,,,,,15,,58,48
17640,note_on,,0,0,10,,,,,,,,,,,,,,,,15,,74,48
17640,note_on,,0,0,10,,,,,,,,,,,,,,,,15,,70,48
17640,note_on,,0,0,10,,,,,,,,,,,,,,,,15,,62,48
17640,note_on,,241,0,9,,,,,,,,,,,,,,,,13,,58,48
17640,note_on,,1,0,6,,,,,,,,,,,,,,,,5,,74,64
17759,note_on,,119,0,9,,,,,,,,,,,,,,,,13,,58,0
17759,note_on,,0,0,10,,,,,,,,,,,,,,,,15,,74,0
17759,note_on,,0,0,10,,,,,,,,,,,,,,,,15,,70,0
17759,note_on,,0,0,10,,,,,,,,,,,,,,,,15,,65,0
17759,note_on,,119,0,10,,,,,,,,,,,,,,,,15,,58,0
17759,note_on,,0,0,10,,,,,,,,,,,,,,,,15,,62,0
17879,note_on,,239,0,6,,,,,,,,,,,,,,,,5,,74,0
17880,note_on,,121,0,10,,,,,,,,,,,,,,,,15,,57,48
17880,note_on,,0,0,10,,,,,,,,,,,,,,,,15,,77,48
17880,note_on,,0,0,10,,,,,,,,,,,,,,,,15,,72,48
17880,note_on,,0,0,10,,,,,,,,,,,,,,,,15,,65,48
17880,note_on,,0,0,10,,,,,,,,,,,,,,,,15,,60,48
17880,note_on,,1,0,6,,,,,,,,,,,,,,,,5,,72,64
17880,note_on,,121,0,9,,,,,,,,,,,,,,,,13,,57,48
17999,note_on,,119,0,6,,,,,,,,,,,,,,,,5,,72,0
17999,note_on,,119,0,9,,,,,,,,,,,,,,,,13,,57,0
17999,note_on,,0,0,10,,,,,,,,,,,,,,,,15,,65,0
17999,note_on,,0,0,10,,,,,,,,,,,,,,,,15,,72,0
17999,note_on,,0,0,10,,,,,,,,,,,,,,,,15,,77,0
17999,note_on,,119,0,10,,,,,,,,,,,,,,,,15,,57,0
17999,note_on,,0,0,10,,,,,,,,,,,,,,,,15,,60,0
18000,note_on,,1,0,9,,,,,,,,,,,,,,,,13,,58,48
18000,note_on,,1,0,6,,,,,,,,,,,,,,,,5,,74,64
18000,note_on,,0,0,10,,,,,,,,,,,,,,,,15,,65,48
18000,note_on,,1,0,10,,,,,,,,,,,,,,,,15,,58,48
18000,note_on,,0,0,10,,,,,,,,,,,,,,,,15,,62,48
18119,note_on,,119,0,6,,,,,,,,,,,,,,,,5,,74,0
18119,note_on,,119,0,10,,,,,,,,,,,,,,,,15,,58,0
18119,note_on,,119,0,9,,,,,,,,,,,,,,,,13,,58,0
18120,note_on,,1,0,10,,,,,,,,,,,,,,,,15,,57,48
18120,note_on,,1,0,6,,,,,,,,,,,,,,,,5,,72,64
18120,note_on,,1,0,9,,,,,,,,,,,,,,,,13,,57,48
18239,note_on,,119,0,6,,,,,,,,,,,,,,,,5,,72,0
18239,note_on,,0,0,10,,,,,,,,,,,,,,,,15,,57,0
18239,note_on,,0,0,10,,,,,,,,,,,,,,,,15,,62,0
18239,note_on,,119,0,10,,,,,,,,,,,,,,,,15,,65,0
18239,note_on,,119,0,9,,,,,,,,,,,,,,,,13,,57,0
18240,note_on,,1,0,10,,,,,,,,,,,,,,,,15,,55,48
18240,note_on,,1,0,6,,,,,,,,,,,,,,,,5,,70,64
18240,note_on,,0,0,10,,,,,,,,,,,,,,,,15,,62,48
18240,note_on,,0,0,10,,,,,,,,,,,,,,,,15,,67,48
18240,note_on,,0,0,10,,,,,,,,,,,,,,,,15,,70,48
18240,note_on,,1,0,9,,,,,,,,,,,,,,,,13,,55,48
18359,note_on,,119,0,9,,,,,,,,,,,,,,,,13,,55,0
18359,note_on,,0,0,10,,,,,,,,,,,,,,,,15,,67,0
18359,note_on,,0,0,10,,,,,,,,,,,,,,,,15,,62,0
18359,note_on,,119,0,6,,,,,,,,,,,,,,,,5,,70,0
18359,note_on,,119,0,10,,,,,,,,,,,,,,,,15,,55,0
18359,note_on,,0,0,10,,,,,,,,,,,,,,,,15,,70,0
18360,note_on,,1,0,10,,,,,,,,,,,,,,,,15,,53,48
18360,note_on,,1,0,9,,,,,,,,,,,,,,,,13,,53,48
18360,note_on,,1,0,6,,,,,,,,,,,,,,,,5,,77,64
18360,note_on,,0,0,10,,,,,,,,,,,,,,,,15,,72,48
18360,note_on,,0,0,10,,,,,,,,,,,,,,,,15,,69,48
18360,note_on,,0,0,10,,,,,,,,,,,,,,,,15,,65,48
18479,note_on,,119,0,10,,,,,,,,,,,,,,,,15,,53,0
18479,note_on,,0,0,10,,,,,,,,,,,,,,,,15,,69,0
18479,note_on,,0,0,10,,,,,,,,,,,,,,,,15,,65,0
18479,note_on,,119,0,9,,,,,,,,,,,,,,,,13,,53,0
18479,note_on,,0,0,10,,,,,,,,,,,,,,,,15,,72,0
18570,note_on,,1891,0,8,,,,,,,,,,,,,,,,11,,84,72
18570,note_on,,1891,0,7,,,,,,,,,,,,,,,,10,,84,72
18599,note_on,,29,0,8,,,,,,,,,,,,,,,,11,,84,0
18599,note_on,,29,0,7,,,,,,,,,,,,,,,,10,,84,0
18600,note_on,,1,0,7,,,,,,,,,,,,,,,,10,,84,72
18600,note_on,,0,0,10,,,,,,,,,,,,,,,,15,,60,48
18600,note_on,,0,0,10,,,,,,,,,,,,,,,,15,,65,48
18600,note_on,,0,0,10,,,,,,,,,,,,,,,,15,,72,48
18600,note_on,,0,0,10,,,,,,,,,,,,,,,,15,,77,48
18600,note_on,,121,0,10,,,,,,,,,,,,,,,,15,,57,48
18600,note_on,,1,0,8,,,,,,,,,,,,,,,,11,,84,72
18600,note_on,,1921,0,5,,,,,,,,,,,,,,,,2,,57,48
18600,note_on,,121,0,9,,,,,,,,,,,,,,,,13,,57,48
18614,note_on,,14,0,7,,,,,,,,,,,,,,,,10,,84,0
18614,note_on,,14,0,8,,,,,,,,,,,,,,,,11,,84,0
18615,note_on,,1,0,7,,,,,,,,,,,,,,,,10,,86,72
18615,note_on,,1,0,8,,,,,,,,,,,,,,,,11,,86,72
18629,note_on,,14,0,7,,,,,,,,,,,,,,,,10,,86,0
18629,note_on,,14,0,8,,,,,,,,,,,,,,,,11,,86,0
18630,note_on,,1,0,7,,,,,,,,,,,,,,,,10,,84,72
18630,note_on,,1,0,8,,,,,,,,,,,,,,,,11,,84,72
18644,note_on,,14,0,7,,,,,,,,,,,,,,,,10,,84,0
18644,note_on,,14,0,8,,,,,,,,,,,,,,,,11,,84,0
18645,note_on,,1,0,7,,,,,,,,,,,,,,,,10,,86,72
18645,note_on,,1,0,8,,,,,,,,,,,,,,,,11,,86,72
18659,note_on,,14,0,7,,,,,,,,,,,,,,,,10,,86,0
18659,note_on,,14,0,8,,,,,,,,,,,,,,,,11,,86,0
18660,note_on,,1,0,7,,,,,,,,,,,,,,,,10,,84,72
18660,note_on,,1,0,8,,,,,,,,,,,,,,,,11,,84,72
18674,note_on,,14,0,7,,,,,,,,,,,,,,,,10,,84,0
18674,note_on,,14,0,8,,,,,,,,,,,,,,,,11,,84,0
18675,note_on,,1,0,7,,,,,,,,,,,,,,,,10,,86,72
18675,note_on,,1,0,8,,,,,,,,,,,,,,,,11,,86,72
18689,note_on,,14,0,7,,,,,,,,,,,,,,,,10,,86,0
18689,note_on,,14,0,8,,,,,,,,,,,,,,,,11,,86,0
18690,note_on,,1,0,7,,,,,,,,,,,,,,,,10,,82,72
18690,note_on,,1,0,8,,,,,,,,,,,,,,,,11,,82,72
18704,note_on,,14,0,8,,,,,,,,,,,,,,,,11,,82,0
18704,note_on,,14,0,7,,,,,,,,,,,,,,,,10,,82,0
18705,note_on,,1,0,8,,,,,,,,,,,,,,,,11,,84,72
18705,note_on,,1,0,7,,,,,,,,,,,,,,,,10,,84,72
18719,note_on,,0,0,10,,,,,,,,,,,,,,,,15,,72,0
18719,note_on,,0,0,10,,,,,,,,,,,,,,,,15,,65,0
18719,note_on,,119,0,10,,,,,,,,,,,,,,,,15,,57,0
18719,note_on,,0,0,10,,,,,,,,,,,,,,,,15,,77,0
18719,note_on,,0,0,10,,,,,,,,,,,,,,,,15,,60,0
18719,note_on,,14,0,7,,,,,,,,,,,,,,,,10,,84,0
18719,note_on,,119,0,9,,,,,,,,,,,,,,,,13,,57,0
18719,note_on,,119,0,5,,,,,,,,,,,,,,,,2,,57,0
18719,note_on,,14,0,8,,,,,,,,,,,,,,,,11,,84,0
18720,note_on,,1,0,8,,,,,,,,,,,,,,,,11,,86,72
18720,note_on,,0,0,10,,,,,,,,,,,,,,,,15,,65,48
18720,note_on,,0,0,10,,,,,,,,,,,,,,,,15,,70,48
18720,note_on,,0,0,10,,,,,,,,,,,,,,,,15,,74,48
18720,note_on,,1,0,10,,,,,,,,,,,,,,,,15,,58,48
18720,note_on,,1,0,7,,,,,,,,,,,,,,,,10,,86,72
18720,note_on,,0,0,10,,,,,,,,,,,,,,,,15,,62,48
18720,note_on,,1,0,9,,,,,,,,,,,,,,,,13,,58,48
18720,note_on,,1,0,5,,,,,,,,,,,,,,,,2,,58,48
18839,note_on,,119,0,9,,,,,,,,,,,,,,,,13,,58,0
18839,note_on,,119,0,5,,,,,,,,,,,,,,,,2,,58,0
18839,note_on,,0,0,10,,,,,,,,,,,,,,,,15,,62,0
18839,note_on,,0,0,10,,,,,,,,,,,,,,,,15,,65,0
18839,note_on,,0,0,10,,,,,,,,,,,,,,,,15,,70,0
18839,note_on,,0,0,10,,,,,,,,,,,,,,,,15,,74,0
18839,note_on,,119,0,10,,,,,,,,,,,,,,,,15,,58,0
18899,note_on,,179,0,8,,,,,,,,,,,,,,,,11,,86,0
18899,note_on,,179,0,7,,,,,,,,,,,,,,,,10,,86,0
18930,note_on,,31,0,8,,,,,,,,,,,,,,,,11,,81,72
18930,note_on,,31,0,7,,,,,,,,,,,,,,,,10,,81,72
18959,note_on,,29,0,7,,,,,,,,,,,,,,,,10,,81,0
18959,note_on,,29,0,8,,,,,,,,,,,,,,,,11,,81,0
18960,note_on,,1,0,8,,,,,,,,,,,,,,,,11,,81,72
18960,note_on,,121,0,5,,,,,,,,,,,,,,,,2,,60,48
18960,note_on,,1,0,7,,,,,,,,,,,,,,,,10,,81,72
18960,note_on,,0,0,10,,,,,,,,,,,,,,,,15,,72,48
18960,note_on,,121,0,9,,,,,,,,,,,,,,,,13,,60,48
18960,note_on,,0,0,10,,,,,,,,,,,,,,,,15,,63,48
18960,note_on,,0,0,10,,,,,,,,,,,,,,,,15,,69,48
18960,note_on,,121,0,10,,,,,,,,,,,,,,,,15,,60,48
18974,note_on,,14,0,7,,,,,,,,,,,,,,,,10,,81,0
18974,note_on,,14,0,8,,,,,,,,,,,,,,,,11,,81,0
18975,note_on,,1,0,7,,,,,,,,,,,,,,,,10,,82,72
18975,note_on,,1,0,8,,,,,,,,,,,,,,,,11,,82,72
18989,note_on,,14,0,7,,,,,,,,,,,,,,,,10,,82,0
18989,note_on,,14,0,8,,,,,,,,,,,,,,,,11,,82,0
18990,note_on,,1,0,7,,,,,,,,,,,,,,,,10,,81,72
18990,note_on,,1,0,8,,,,,,,,,,,,,,,,11,,81,72
19004,note_on,,14,0,7,,,,,,,,,,,,,,,,10,,81,0
19004,note_on,,14,0,8,,,,,,,,,,,,,,,,11,,81,0
19005,note_on,,1,0,8,,,,,,,,,,,,,,,,11,,82,72
19005,note_on,,1,0,7,,,,,,,,,,,,,,,,10,,82,72
19019,note_on,,14,0,7,,,,,,,,,,,,,,,,10,,82,0
19019,note_on,,14,0,8,,,,,,,,,,,,,,,,11,,82,0
19020,note_on,,1,0,7,,,,,,,,,,,,,,,,10,,81,72
19020,note_on,,1,0,8,,,,,,,,,,,,,,,,11,,81,72
19034,note_on,,14,0,8,,,,,,,,,,,,,,,,11,,81,0
19034,note_on,,14,0,7,,,,,,,,,,,,,,,,10,,81,0
19035,note_on,,1,0,7,,,,,,,,,,,,,,,,10,,82,72
19035,note_on,,1,0,8,,,,,,,,,,,,,,,,11,,82,72
19049,note_on,,14,0,8,,,,,,,,,,,,,,,,11,,82,0
19049,note_on,,14,0,7,,,,,,,,,,,,,,,,10,,82,0
19050,note_on,,1,0,7,,,,,,,,,,,,,,,,10,,79,72
19050,note_on,,1,0,8,,,,,,,,,,,,,,,,11,,79,72
19064,note_on,,14,0,7,,,,,,,,,,,,,,,,10,,79,0
19064,note_on,,14,0,8,,,,,,,,,,,,,,,,11,,79,0
19065,note_on,,1,0,7,,,,,,,,,,,,,,,,10,,81,72
19065,note_on,,1,0,8,,,,,,,,,,,,,,,,11,,81,72
19079,note_on,,119,0,9,,,,,,,,,,,,,,,,13,,60,0
19079,note_on,,14,0,7,,,,,,,,,,,,,,,,10,,81,0
19079,note_on,,0,0,10,,,,,,,,,,,,,,,,15,,72,0
19079,note_on,,119,0,10,,,,,,,,,,,,,,,,15,,60,0
19079,note_on,,14,0,8,,,,,,,,,,,,,,,,11,,81,0
19079,note_on,,0,0,10,,,,,,,,,,,,,,,,15,,63,0
19079,note_on,,0,0,10,,,,,,,,,,,,,,,,15,,69,0
19079,note_on,,719,0,6,,,,,,,,,,,,,,,,5,,77,0
19079,note_on,,119,0,5,,,,,,,,,,,,,,,,2,,60,0
19080,note_on,,0,0,10,,,,,,,,,,,,,,,,15,,70,48
19080,note_on,,1,0,10,,,,,,,,,,,,,,,,15,,62,48
19080,note_on,,0,0,10,,,,,,,,,,,,,,,,15,,65,48
19080,note_on,,1,0,9,,,,,,,,,,,,,,,,13,,62,48
19080,note_on,,1,0,7,,,,,,,,,,,,,,,,10,,82,72
19080,note_on,,1,0,8,,,,,,,,,,,,,,,,11,,82,72
19080,note_on,,1,0,5,,,,,,,,,,,,,,,,2,,62,48
19199,note_on,,119,0,5,,,,,,,,,,,,,,,,2,,62,0
19199,note_on,,119,0,7,,,,,,,,,,,,,,,,10,,82,0
19199,note_on,,119,0,9,,,,,,,,,,,,,,,,13,,62,0
19199,note_on,,119,0,8,,,,,,,,,,,,,,,,11,,82,0
19199,note_on,,119,0,10,,,,,,,,,,,,,,,,15,,62,0
19319,note_on,,120,0,10,,,,,,,,,,,,,,,,15,,70,0
19319,note_on,,0,0,10,,,,,,,,,,,,,,,,15,,65,0
19320,note_on,,241,0,6,,,,,,,,,,,,,,,,5,,65,64
19320,note_on,,121,0,9,,,,,,,,,,,,,,,,13,,50,48
19320,note_on,,1,0,10,,,,,,,,,,,,,,,,15,,50,48
19439,note_on,,119,0,6,,,,,,,,,,,,,,,,5,,65,0
19439,note_on,,119,0,9,,,,,,,,,,,,,,,,13,,50,0
19439,note_on,,119,0,10,,,,,,,,,,,,,,,,15,,50,0
19440,note_on,,1,0,10,,,,,,,,,,,,,,,,15,,51,48
19440,note_on,,0,0,10,,,,,,,,,,,,,,,,15,,67,48
19440,note_on,,0,0,10,,,,,,,,,,,,,,,,15,,63,48
19440,note_on,,1,0,6,,,,,,,,,,,,,,,,5,,67,64
19440,note_on,,0,0,10,,,,,,,,,,,,,,,,15,,70,48
19440,note_on,,1,0,9,,,,,,,,,,,,,,,,13,,51,48
19559,note_on,,119,0,6,,,,,,,,,,,,,,,,5,,67,0
19559,note_on,,119,0,10,,,,,,,,,,,,,,,,15,,51,0
19559,note_on,,119,0,9,,,,,,,,,,,,,,,,13,,51,0
19560,note_on,,1,0,10,,,,,,,,,,,,,,,,15,,50,48
19560,note_on,,1,0,6,,,,,,,,,,,,,,,,5,,65,64
19560,note_on,,1,0,9,,,,,,,,,,,,,,,,13,,50,48
19679,note_on,,119,0,10,,,,,,,,,,,,,,,,15,,70,0
19679,note_on,,119,0,6,,,,,,,,,,,,,,,,5,,65,0
19679,note_on,,0,0,10,,,,,,,,,,,,,,,,15,,67,0
19679,note_on,,0,0,10,,,,,,,,,,,,,,,,15,,63,0
19679,note_on,,0,0,10,,,,,,,,,,,,,,,,15,,50,0
19679,note_on,,119,0,9,,,,,,,,,,,,,,,,13,,50,0
19680,note_on,,1,0,10,,,,,,,,,,,,,,,,15,,48,48
19680,note_on,,0,0,10,,,,,,,,,,,,,,,,15,,72,48
19680,note_on,,0,0,10,,,,,,,,,,,,,,,,15,,63,48
19680,note_on,,0,0,10,,,,,,,,,,,,,,,,15,,69,48
19680,note_on,,1,0,6,,,,,,,,,,,,,,,,5,,63,64
19680,note_on,,1,0,9,,,,,,,,,,,,,,,,13,,48,48
19799,note_on,,119,0,9,,,,,,,,,,,,,,,,13,,48,0
19799,note_on,,119,0,10,,,,,,,,,,,,,,,,15,,48,0
19799,note_on,,0,0,10,,,,,,,,,,,,,,,,15,,72,0
19799,note_on,,119,0,6,,,,,,,,,,,,,,,,5,,63,0
19799,note_on,,0,0,10,,,,,,,,,,,,,,,,15,,69,0
19799,note_on,,0,0,10,,,,,,,,,,,,,,,,15,,63,0
19800,note_on,,1,0,9,,,,,,,,,,,,,,,,13,,46,48
19800,note_on,,1,0,6,,,,,,,,,,,,,,,,5,,70,64
19800,note_on,,1,0,10,,,,,,,,,,,,,,,,15,,46,48
19800,note_on,,0,0,10,,,,,,,,,,,,,,,,15,,74,48
19800,note_on,,0,0,10,,,,,,,,,,,,,,,,15,,70,48
19800,note_on,,0,0,10,,,,,,,,,,,,,,,,15,,65,48
19919,note_on,,0,0,10,,,,,,,,,,,,,,,,15,,65,0
19919,note_on,,0,0,10,,,,,,,,,,,,,,,,15,,74,0
19919,note_on,,119,0,10,,,,,,,,,,,,,,,,15,,46,0
19919,note_on,,119,0,9,,,,,,,,,,,,,,,,13,,46,0
19919,note_on,,0,0,10,,,,,,,,,,,,,,,,15,,70,0
20010,note_on,,811,0,8,,,,,,,,,,,,,,,,11,,77,72
20010,note_on,,811,0,7,,,,,,,,,,,,,,,,10,,77,72
20039,note_on,,29,0,7,,,,,,,,,,,,,,,,10,,77,0
20039,note_on,,29,0,8,,,,,,,,,,,,,,,,11,,77,0
20040,note_on,,121,0,10,,,,,,,,,,,,,,,,15,,50,48
20040,note_on,,0,0,10,,,,,,,,,,,,,,,,15,,70,48
20040,note_on,,0,0,10,,,,,,,,,,,,,,,,15,,65,48
20040,note_on,,0,0,10,,,,,,,,,,,,,,,,15,,58,48
20040,note_on,,0,0,10,,,,,,,,,,,,,,,,15,,53,48
20040,note_on,,1,0,8,,,,,,,,,,,,,,,,11,,77,72
20040,note_on,,121,0,9,,,,,,,,,,,,,,,,13,,50,48
20040,note_on,,1,0,7,,,,,,,,,,,,,,,,10,,77,72
20040,note_on,,841,0,5,,,,,,,,,,,,,,,,2,,50,48
20054,note_on,,14,0,7,,,,,,,,,,,,,,,,10,,77,0
20054,note_on,,14,0,8,,,,,,,,,,,,,,,,11,,77,0
20055,note_on,,1,0,7,,,,,,,,,,,,,,,,10,,79,72
20055,note_on,,1,0,8,,,,,,,,,,,,,,,,11,,79,72
20069,note_on,,14,0,7,,,,,,,,,,,,,,,,10,,79,0
20069,note_on,,14,0,8,,,,,,,,,,,,,,,,11,,79,0
20070,note_on,,1,0,7,,,,,,,,,,,,,,,,10,,77,72
20070,note_on,,1,0,8,,,,,,,,,,,,,,,,11,,77,72
20084,note_on,,14,0,8,,,,,,,,,,,,,,,,11,,77,0
20084,note_on,,14,0,7,,,,,,,,,,,,,,,,10,,77,0
20085,note_on,,1,0,7,,,,,,,,,,,,,,,,10,,79,72
20085,note_on,,1,0,8,,,,,,,,,,,,,,,,11,,79,72
20099,note_on,,14,0,7,,,,,,,,,,,,,,,,10,,79,0
20099,note_on,,14,0,8,,,,,,,,,,,,,,,,11,,79,0
20100,note_on,,1,0,8,,,,,,,,,,,,,,,,11,,77,72
20100,note_on,,1,0,7,,,,,,,,,,,,,,,,10,,77,72
20114,note_on,,14,0,8,,,,,,,,,,,,,,,,11,,77,0
20114,note_on,,14,0,7,,,,,,,,,,,,,,,,10,,77,0
20115,note_on,,1,0,7,,,,,,,,,,,,,,,,10,,79,72
20115,note_on,,1,0,8,,,,,,,,,,,,,,,,11,,79,72
20129,note_on,,14,0,7,,,,,,,,,,,,,,,,10,,79,0
20129,note_on,,14,0,8,,,,,,,,,,,,,,,,11,,79,0
20130,note_on,,1,0,8,,,,,,,,,,,,,,,,11,,75,72
20130,note_on,,1,0,7,,,,,,,,,,,,,,,,10,,75,72
20144,note_on,,14,0,7,,,,,,,,,,,,,,,,10,,75,0
20144,note_on,,14,0,8,,,,,,,,,,,,,,,,11,,75,0
20145,note_on,,1,0,7,,,,,,,,,,,,,,,,10,,77,72
20145,note_on,,1,0,8,,,,,,,,,,,,,,,,11,,77,72
20159,note_on,,359,0,6,,,,,,,,,,,,,,,,5,,70,0
20159,note_on,,14,0,8,,,,,,,,,,,,,,,,11,,77,0
20159,note_on,,14,0,7,,,,,,,,,,,,,,,,10,,77,0
20159,note_on,,119,0,10,,,,,,,,,,,,,,,,15,,50,0
20159,note_on,,0,0,10,,,,,,,,,,,,,,,,15,,70,0
20159,note_on,,0,0,10,,,,,,,,,,,,,,,,15,,65,0
20159,note_on,,0,0,10,,,,,,,,,,,,,,,,15,,58,0
20159,note_on,,0,0,10,,,,,,,,,,,,,,,,15,,53,0
20159,note_on,,119,0,5,,,,,,,,,,,,,,,,2,,50,0
20159,note_on,,119,0,9,,,,,,,,,,,,,,,,13,,50,0
20160,note_on,,1,0,10,,,,,,,,,,,,,,,,15,,51,48
20160,note_on,,0,0,10,,,,,,,,,,,,,,,,15,,67,48
20160,note_on,,1,0,9,,,,,,,,,,,,,,,,13,,51,48
20160,note_on,,0,0,10,,,,,,,,,,,,,,,,15,,63,48
20160,note_on,,0,0,10,,,,,,,,,,,,,,,,15,,58,48
20160,note_on,,1,0,8,,,,,,,,,,,,,,,,11,,79,72
20160,note_on,,1,0,7,,,,,,,,,,,,,,,,10,,79,72
20160,note_on,,0,0,10,,,,,,,,,,,,,,,,15,,55,48
20160,note_on,,1,0,5,,,,,,,,,,,,,,,,2,,51,48
20279,note_on,,119,0,10,,,,,,,,,,,,,,,,15,,51,0
20279,note_on,,0,0,10,,,,,,,,,,,,,,,,15,,55,0
20279,note_on,,0,0,10,,,,,,,,,,,,,,,,15,,67,0
20279,note_on,,0,0,10,,,,,,,,,,,,,,,,15,,63,0
20279,note_on,,0,0,10,,,,,,,,,,,,,,,,15,,58,0
20279,note_on,,119,0,9,,,,,,,,,,,,,,,,13,,51,0
20279,note_on,,119,0,5,,,,,,,,,,,,,,,,2,,51,0
20339,note_on,,179,0,8,,,,,,,,,,,,,,,,11,,79,0
20339,note_on,,179,0,7,,,,,,,,,,,,,,,,10,,79,0
20370,note_on,,31,0,8,,,,,,,,,,,,,,,,11,,69,72
20370,note_on,,31,0,7,,,,,,,,,,,,,,,,10,,69,72
20399,note_on,,29,0,8,,,,,,,,,,,,,,,,11,,69,0
20399,note_on,,29,0,7,,,,,,,,,,,,,,,,10,,69,0
20400,note_on,,121,0,5,,,,,,,,,,,,,,,,2,,48,48
20400,note_on,,1,0,8,,,,,,,,,,,,,,,,11,,69,72
20400,note_on,,121,0,9,,,,,,,,,,,,,,,,13,,48,48
20400,note_on,,0,0,10,,,,,,,,,,,,,,,,15,,63,48
20400,note_on,,0,0,10,,,,,,,,,,,,,,,,15,,72,48
20400,note_on,,0,0,10,,,,,,,,,,,,,,,,15,,51,48
20400,note_on,,121,0,10,,,,,,,,,,,,,,,,15,,48,48
20400,note_on,,1,0,7,,,,,,,,,,,,,,,,10,,69,72
20400,note_on,,0,0,10,,,,,,,,,,,,,,,,15,,69,48
20414,note_on,,14,0,8,,,,,,,,,,,,,,,,11,,69,0
20414,note_on,,14,0,7,,,,,,,,,,,,,,,,10,,69,0
20415,note_on,,1,0,8,,,,,,,,,,,,,,,,11,,70,72
20415,note_on,,1,0,7,,,,,,,,,,,,,,,,10,,70,72
20429,note_on,,14,0,8,,,,,,,,,,,,,,,,11,,70,0
20429,note_on,,14,0,7,,,,,,,,,,,,,,,,10,,70,0
20430,note_on,,1,0,8,,,,,,,,,,,,,,,,11,,69,72
20430,note_on,,1,0,7,,,,,,,,,,,,,,,,10,,69,72
20444,note_on,,14,0,8,,,,,,,,,,,,,,,,11,,69,0
20444,note_on,,14,0,7,,,,,,,,,,,,,,,,10,,69,0
20445,note_on,,1,0,7,,,,,,,,,,,,,,,,10,,70,72
20445,note_on,,1,0,8,,,,,,,,,,,,,,,,11,,70,72
20459,note_on,,14,0,8,,,,,,,,,,,,,,,,11,,70,0
20459,note_on,,14,0,7,,,,,,,,,,,,,,,,10,,70,0
20460,note_on,,1,0,8,,,,,,,,,,,,,,,,11,,69,72
20460,note_on,,1,0,7,,,,,,,,,,,,,,,,10,,69,72
20474,note_on,,14,0,8,,,,,,,,,,,,,,,,11,,69,0
20474,note_on,,14,0,7,,,,,,,,,,,,,,,,10,,69,0
20475,note_on,,1,0,8,,,,,,,,,,,,,,,,11,,70,72
20475,note_on,,1,0,7,,,,,,,,,,,,,,,,10,,70,72
20489,note_on,,14,0,8,,,,,,,,,,,,,,,,11,,70,0
20489,note_on,,14,0,7,,,,,,,,,,,,,,,,10,,70,0
20490,note_on,,1,0,8,,,,,,,,,,,,,,,,11,,67,72
20490,note_on,,1,0,7,,,,,,,,,,,,,,,,10,,67,72
20504,note_on,,14,0,7,,,,,,,,,,,,,,,,10,,67,0
20504,note_on,,14,0,8,,,,,,,,,,,,,,,,11,,67,0
20505,note_on,,1,0,7,,,,,,,,,,,,,,,,10,,69,72
20505,note_on,,1,0,8,,,,,,,,,,,,,,,,11,,69,72
20519,note_on,,119,0,10,,,,,,,,,,,,,,,,15,,48,0
20519,note_on,,14,0,8,,,,,,,,,,,,,,,,11,,69,0
20519,note_on,,14,0,7,,,,,,,,,,,,,,,,10,,69,0
20519,note_on,,119,0,5,,,,,,,,,,,,,,,,2,,48,0
20519,note_on,,0,0,10,,,,,,,,,,,,,,,,15,,63,0
20519,note_on,,0,0,10,,,,,,,,,,,,,,,,15,,69,0
20519,note_on,,0,0,10,,,,,,,,,,,,,,,,15,,72,0
20519,note_on,,0,0,10,,,,,,,,,,,,,,,,15,,51,0
20519,note_on,,119,0,9,,,,,,,,,,,,,,,,13,,48,0
20520,note_on,,1,0,7,,,,,,,,,,,,,,,,10,,70,72
20520,note_on,,1,0,5,,,,,,,,,,,,,,,,2,,50,48
20520,note_on,,1,0,10,,,,,,,,,,,,,,,,15,,50,48
20520,note_on,,0,0,10,,,,,,,,,,,,,,,,15,,62,48
20520,note_on,,0,0,10,,,,,,,,,,,,,,,,15,,58,48
20520,note_on,,0,0,10,,,,,,,,,,,,,,,,15,,53,48
20520,note_on,,1,0,9,,,,,,,,,,,,,,,,13,,50,48
20520,note_on,,1,0,8,,,,,,,,,,,,,,,,11,,70,72
20520,note_on,,0,0,10,,,,,,,,,,,,,,,,15,,65,48
20639,note_on,,119,0,7,,,,,,,,,,,,,,,,10,,70,0
20639,note_on,,119,0,10,,,,,,,,,,,,,,,,15,,50,0
20639,note_on,,0,0,10,,,,,,,,,,,,,,,,15,,62,0
20639,note_on,,0,0,10,,,,,,,,,,,,,,,,15,,58,0
20639,note_on,,0,0,10,,,,,,,,,,,,,,,,15,,53,0
20639,note_on,,119,0,9,,,,,,,,,,,,,,,,13,,50,0
20639,note_on,,119,0,8,,,,,,,,,,,,,,,,11,,70,0
20639,note_on,,119,0,5,,,,,,,,,,,,,,,,2,,50,0
20639,note_on,,0,0,10,,,,,,,,,,,,,,,,15,,65,0
20640,note_on,,481,0,6,,,,,,,,,,,,,,,,5,,65,64
20759,note_on,,119,0,6,,,,,,,,,,,,,,,,5,,65,0
20760,note_on,,1,0,6,,,,,,,,,,,,,,,,5,,70,64
20879,note_on,,119,0,6,,,,,,,,,,,,,,,,5,,70,0
20880,note_on,,1,0,6,,,,,,,,,,,,,,,,5,,67,64
20880,note_on,,241,0,10,,,,,,,,,,,,,,,,15,,51,48
20880,note_on,,0,0,10,,,,,,,,,,,,,,,,15,,55,48
20880,note_on,,0,0,10,,,,,,,,,,,,,,,,15,,58,48
20880,note_on,,241,0,9,,,,,,,,,,,,,,,,13,,51,48
20999,note_on,,0,0,10,,,,,,,,,,,,,,,,15,,55,0
20999,note_on,,119,0,6,,,,,,,,,,,,,,,,5,,67,0
20999,note_on,,0,0,10,,,,,,,,,,,,,,,,15,,58,0
20999,note_on,,119,0,10,,,,,,,,,,,,,,,,15,,51,0
20999,note_on,,119,0,9,,,,,,,,,,,,,,,,13,,51,0
21000,note_on,,1,0,10,,,,,,,,,,,,,,,,15,,48,48
21000,note_on,,0,0,10,,,,,,,,,,,,,,,,15,,63,48
21000,note_on,,0,0,10,,,,,,,,,,,,,,,,15,,60,48
21000,note_on,,0,0,10,,,,,,,,,,,,,,,,15,,67,48
21000,note_on,,0,0,10,,,,,,,,,,,,,,,,15,,55,48
21000,note_on,,1,0,9,,,,,,,,,,,,,,,,13,,48,48
21000,note_on,,1,0,6,,,,,,,,,,,,,,,,5,,75,64
21119,note_on,,119,0,9,,,,,,,,,,,,,,,,13,,48,0
21119,note_on,,119,0,6,,,,,,,,,,,,,,,,5,,75,0
21119,note_on,,119,0,10,,,,,,,,,,,,,,,,15,,48,0
21120,note_on,,1,0,9,,,,,,,,,,,,,,,,13,,51,48
21120,note_on,,1,0,6,,,,,,,,,,,,,,,,5,,72,64
21120,note_on,,1,0,10,,,,,,,,,,,,,,,,15,,51,48
21239,note_on,,0,0,10,,,,,,,,,,,,,,,,15,,63,0
21239,note_on,,119,0,9,,,,,,,,,,,,,,,,13,,51,0
21239,note_on,,119,0,6,,,,,,,,,,,,,,,,5,,72,0
21239,note_on,,0,0,10,,,,,,,,,,,,,,,,15,,51,0
21239,note_on,,119,0,10,,,,,,,,,,,,,,,,15,,67,0
21239,note_on,,0,0,10,,,,,,,,,,,,,,,,15,,55,0
21239,note_on,,0,0,10,,,,,,,,,,,,,,,,15,,60,0
21240,note_on,,1,0,9,,,,,,,,,,,,,,,,13,,53,48
21240,note_on,,1,0,6,,,,,,,,,,,,,,,,5,,69,64
21240,note_on,,1,0,10,,,,,,,,,,,,,,,,15,,53,48
21240,note_on,,0,0,10,,,,,,,,,,,,,,,,15,,57,48
21240,note_on,,0,0,10,,,,,,,,,,,,,,,,15,,60,48
21359,note_on,,0,0,10,,,,,,,,,,,,,,,,15,,60,0
21359,note_on,,0,0,10,,,,,,,,,,,,,,,,15,,57,0
21359,note_on,,119,0,9,,,,,,,,,,,,,,,,13,,53,0
21359,note_on,,119,0,6,,,,,,,,,,,,,,,,5,,69,0
21359,note_on,,119,0,10,,,,,,,,,,,,,,,,15,,53,0
21360,note_on,,1,0,10,,,,,,,,,,,,,,,,15,,50,48
21360,note_on,,0,0,10,,,,,,,,,,,,,,,,15,,69,48
21360,note_on,,1,0,9,,,,,,,,,,,,,,,,13,,50,48
21360,note_on,,1,0,6,,,,,,,,,,,,,,,,5,,77,64
21360,note_on,,0,0,10,,,,,,,,,,,,,,,,15,,65,48
21360,note_on,,0,0,10,,,,,,,,,,,,,,,,15,,62,48
21479,note_on,,119,0,6,,,,,,,,,,,,,,,,5,,77,0
21479,note_on,,119,0,10,,,,,,,,,,,,,,,,15,,50,0
21479,note_on,,119,0,9,,,,,,,,,,,,,,,,13,,50,0
21480,note_on,,1,0,6,,,,,,,,,,,,,,,,5,,74,64
21480,note_on,,1,0,10,,,,,,,,,,,,,,,,15,,53,48
21480,note_on,,1,0,9,,,,,,,,,,,,,,,,13,,53,48
21599,note_on,,0,0,10,,,,,,,,,,,,,,,,15,,53,0
21599,note_on,,119,0,10,,,,,,,,,,,,,,,,15,,69,0
21599,note_on,,0,0,10,,,,,,,,,,,,,,,,15,,65,0
21599,note_on,,0,0,10,,,,,,,,,,,,,,,,15,,62,0
21599,note_on,,119,0,6,,,,,,,,,,,,,,,,5,,74,0
21599,note_on,,119,0,9,,,,,,,,,,,,,,,,13,,53,0
21600,note_on,,1,0,10,,,,,,,,,,,,,,,,15,,55,48
21600,note_on,,1,0,9,,,,,,,,,,,,,,,,13,,55,48
21600,note_on,,1,0,6,,,,,,,,,,,,,,,,5,,70,64
21600,note_on,,0,0,10,,,,,,,,,,,,,,,,15,,62,48
21600,note_on,,0,0,10,,,,,,,,,,,,,,,,15,,58,48
21600,note_on,,0,0,10,,,,,,,,,,,,,,,,15,,67,48
21659,note_on,,59,0,6,,,,,,,,,,,,,,,,5,,70,0
21660,note_on,,1,0,6,,,,,,,,,,,,,,,,5,,69,64
21719,note_on,,119,0,9,,,,,,,,,,,,,,,,13,,55,0
21719,note_on,,59,0,6,,,,,,,,,,,,,,,,5,,69,0
21719,note_on,,119,0,10,,,,,,,,,,,,,,,,15,,55,0
21720,note_on,,1,0,6,,,,,,,,,,,,,,,,5,,70,64
21779,note_on,,59,0,6,,,,,,,,,,,,,,,,5,,70,0
21780,note_on,,1,0,6,,,,,,,,,,,,,,,,5,,72,64
21839,note_on,,59,0,6,,,,,,,,,,,,,,,,5,,72,0
21839,note_on,,120,0,10,,,,,,,,,,,,,,,,15,,67,0
21839,note_on,,0,0,10,,,,,,,,,,,,,,,,15,,62,0
21839,note_on,,0,0,10,,,,,,,,,,,,,,,,15,,58,0
21840,note_on,,1,0,6,,,,,,,,,,,,,,,,5,,74,64
21840,note_on,,121,0,9,,,,,,,,,,,,,,,,13,,55,48
21840,note_on,,1,0,10,,,,,,,,,,,,,,,,15,,55,48
21899,note_on,,59,0,6,,,,,,,,,,,,,,,,5,,74,0
21900,note_on,,1,0,6,,,,,,,,,,,,,,,,5,,76,64
21959,note_on,,59,0,6,,,,,,,,,,,,,,,,5,,76,0
21959,note_on,,119,0,10,,,,,,,,,,,,,,,,15,,55,0
21959,note_on,,119,0,9,,,,,,,,,,,,,,,,13,,55,0
21960,note_on,,1,0,6,,,,,,,,,,,,,,,,5,,77,64
21960,note_on,,0,0,10,,,,,,,,,,,,,,,,15,,60,48
21960,note_on,,0,0,10,,,,,,,,,,,,,,,,15,,65,48
21960,note_on,,1,0,10,,,,,,,,,,,,,,,,15,,57,48
21960,note_on,,1,0,9,,,,,,,,,,,,,,,,13,,57,48
21960,note_on,,0,0,10,,,,,,,,,,,,,,,,15,,72,48
22079,note_on,,119,0,9,,,,,,,,,,,,,,,,13,,57,0
22079,note_on,,119,0,10,,,,,,,,,,,,,,,,15,,57,0
22079,note_on,,0,0,10,,,,,,,,,,,,,,,,15,,72,0
22080,note_on,,0,0,10,,,,,,,,,,,,,,,,15,,69,48
22080,note_on,,1,0,10,,,,,,,,,,,,,,,,15,,53,48
22080,note_on,,1,0,9,,,,,,,,,,,,,,,,13,,53,48
22170,note_on,,1531,0,7,,,,,,,,,,,,,,,,10,,72,48
22170,note_on,,1531,0,8,,,,,,,,,,,,,,,,11,,72,48
22199,note_on,,0,0,10,,,,,,,,,,,,,,,,15,,60,0
22199,note_on,,0,0,10,,,,,,,,,,,,,,,,15,,53,0
22199,note_on,,119,0,9,,,,,,,,,,,,,,,,13,,53,0
22199,note_on,,0,0,10,,,,,,,,,,,,,,,,15,,69,0
22199,note_on,,29,0,8,,,,,,,,,,,,,,,,11,,72,0
22199,note_on,,29,0,7,,,,,,,,,,,,,,,,10,,72,0
22199,note_on,,119,0,10,,,,,,,,,,,,,,,,15,,65,0
22200,note_on,,1,0,7,,,,,,,,,,,,,,,,10,,72,48
22200,note_on,,1,0,8,,,,,,,,,,,,,,,,11,,72,48
22200,note_on,,0,0,10,,,,,,,,,,,,,,,,15,,65,48
22200,note_on,,0,0,10,,,,,,,,,,,,,,,,15,,72,48
22200,note_on,,1,0,10,,,,,,,,,,,,,,,,15,,57,48
22200,note_on,,1,0,9,,,,,,,,,,,,,,,,13,,57,48
22200,note_on,,0,0,10,,,,,,,,,,,,,,,,15,,77,48
22214,note_on,,14,0,8,,,,,,,,,,,,,,,,11,,72,0
22214,note_on,,14,0,7,,,,,,,,,,,,,,,,10,,72,0
22215,note_on,,1,0,7,,,,,,,,,,,,,,,,10,,74,48
22215,note_on,,1,0,8,,,,,,,,,,,,,,,,11,,74,48
22229,note_on,,14,0,7,,,,,,,,,,,,,,,,10,,74,0
22229,note_on,,14,0,8,,,,,,,,,,,,,,,,11,,74,0
22230,note_on,,1,0,7,,,,,,,,,,,,,,,,10,,72,48
22230,note_on,,1,0,8,,,,,,,,,,,,,,,,11,,72,48
22244,note_on,,14,0,7,,,,,,,,,,,,,,,,10,,72,0
22244,note_on,,14,0,8,,,,,,,,,,,,,,,,11,,72,0
22245,note_on,,1,0,7,,,,,,,,,,,,,,,,10,,74,48
22245,note_on,,1,0,8,,,,,,,,,,,,,,,,11,,74,48
22259,note_on,,14,0,7,,,,,,,,,,,,,,,,10,,74,0
22259,note_on,,14,0,8,,,,,,,,,,,,,,,,11,,74,0
22260,note_on,,1,0,7,,,,,,,,,,,,,,,,10,,72,48
22260,note_on,,1,0,8,,,,,,,,,,,,,,,,11,,72,48
22274,note_on,,14,0,8,,,,,,,,,,,,,,,,11,,72,0
22274,note_on,,14,0,7,,,,,,,,,,,,,,,,10,,72,0
22275,note_on,,1,0,8,,,,,,,,,,,,,,,,11,,74,48
22275,note_on,,1,0,7,,,,,,,,,,,,,,,,10,,74,48
22289,note_on,,14,0,8,,,,,,,,,,,,,,,,11,,74,0
22289,note_on,,14,0,7,,,,,,,,,,,,,,,,10,,74,0
22290,note_on,,1,0,7,,,,,,,,,,,,,,,,10,,70,48
22290,note_on,,1,0,8,,,,,,,,,,,,,,,,11,,70,48
22304,note_on,,14,0,7,,,,,,,,,,,,,,,,10,,70,0
22304,note_on,,14,0,8,,,,,,,,,,,,,,,,11,,70,0
22305,note_on,,1,0,7,,,,,,,,,,,,,,,,10,,72,48
22305,note_on,,1,0,8,,,,,,,,,,,,,,,,11,,72,48
22319,note_on,,0,0,10,,,,,,,,,,,,,,,,15,,72,0
22319,note_on,,14,0,7,,,,,,,,,,,,,,,,10,,72,0
22319,note_on,,0,0,10,,,,,,,,,,,,,,,,15,,77,0
22319,note_on,,0,0,10,,,,,,,,,,,,,,,,15,,65,0
22319,note_on,,119,0,10,,,,,,,,,,,,,,,,15,,57,0
22319,note_on,,14,0,8,,,,,,,,,,,,,,,,11,,72,0
22319,note_on,,119,0,9,,,,,,,,,,,,,,,,13,,57,0
22320,note_on,,1,0,8,,,,,,,,,,,,,,,,11,,74,48
22320,note_on,,0,0,10,,,,,,,,,,,,,,,,15,,74,48
22320,note_on,,0,0,10,,,,,,,,,,,,,,,,15,,65,48
22320,note_on,,1,0,9,,,,,,,,,,,,,,,,13,,58,48
22320,note_on,,1,0,7,,,,,,,,,,,,,,,,10,,74,48
22320,note_on,,0,0,10,,,,,,,,,,,,,,,,15,,70,48
22320,note_on,,1,0,10,,,,,,,,,,,,,,,,15,,58,48
22379,note_on,,59,0,8,,,,,,,,,,,,,,,,11,,74,0
22379,note_on,,59,0,7,,,,,,,,,,,,,,,,10,,74,0
22380,note_on,,1,0,8,,,,,,,,,,,,,,,,11,,70,48
22380,note_on,,1,0,7,,,,,,,,,,,,,,,,10,,70,48
22439,note_on,,0,0,10,,,,,,,,,,,,,,,,15,,70,0
22439,note_on,,119,0,10,,,,,,,,,,,,,,,,15,,58,0
22439,note_on,,0,0,10,,,,,,,,,,,,,,,,15,,65,0
22439,note_on,,59,0,8,,,,,,,,,,,,,,,,11,,70,0
22439,note_on,,0,0,10,,,,,,,,,,,,,,,,15,,74,0
22439,note_on,,119,0,9,,,,,,,,,,,,,,,,13,,58,0
22439,note_on,,59,0,7,,,,,,,,,,,,,,,,10,,70,0
22440,note_on,,1,0,8,,,,,,,,,,,,,,,,11,,77,48
22440,note_on,,1,0,7,,,,,,,,,,,,,,,,10,,77,48
22499,note_on,,59,0,7,,,,,,,,,,,,,,,,10,,77,0
22499,note_on,,59,0,8,,,,,,,,,,,,,,,,11,,77,0
22500,note_on,,1,0,7,,,,,,,,,,,,,,,,10,,69,48
22500,note_on,,1,0,8,,,,,,,,,,,,,,,,11,,69,48
22559,note_on,,59,0,7,,,,,,,,,,,,,,,,10,,69,0
22559,note_on,,59,0,8,,,,,,,,,,,,,,,,11,,69,0
22560,note_on,,1,0,7,,,,,,,,,,,,,,,,10,,70,48
22560,note_on,,1,0,8,,,,,,,,,,,,,,,,11,,70,48
22619,note_on,,59,0,7,,,,,,,,,,,,,,,,10,,70,0
22619,note_on,,59,0,8,,,,,,,,,,,,,,,,11,,70,0
22620,note_on,,1,0,8,,,,,,,,,,,,,,,,11,,65,48
22620,note_on,,1,0,7,,,,,,,,,,,,,,,,10,,65,48
22679,note_on,,59,0,8,,,,,,,,,,,,,,,,11,,65,0
22679,note_on,,59,0,7,,,,,,,,,,,,,,,,10,,65,0
22680,note_on,,1,0,8,,,,,,,,,,,,,,,,11,,62,48
22680,note_on,,1,0,7,,,,,,,,,,,,,,,,10,,62,48
22739,note_on,,59,0,8,,,,,,,,,,,,,,,,11,,62,0
22739,note_on,,59,0,7,,,,,,,,,,,,,,,,10,,62,0
22740,note_on,,1,0,7,,,,,,,,,,,,,,,,10,,58,48
22740,note_on,,1,0,8,,,,,,,,,,,,,,,,11,,58,48
22799,note_on,,59,0,7,,,,,,,,,,,,,,,,10,,58,0
22799,note_on,,59,0,8,,,,,,,,,,,,,,,,11,,58,0
22800,note_on,,1,0,7,,,,,,,,,,,,,,,,10,,65,48
22800,note_on,,1,0,8,,,,,,,,,,,,,,,,11,,65,48
22859,note_on,,59,0,8,,,,,,,,,,,,,,,,11,,65,0
22859,note_on,,59,0,7,,,,,,,,,,,,,,,,10,,65,0
22860,note_on,,1,0,7,,,,,,,,,,,,,,,,10,,62,48
22860,note_on,,1,0,8,,,,,,,,,,,,,,,,11,,62,48
22919,note_on,,59,0,7,,,,,,,,,,,,,,,,10,,62,0
22919,note_on,,59,0,8,,,,,,,,,,,,,,,,11,,62,0
22920,note_on,,1,0,8,,,,,,,,,,,,,,,,11,,70,48
22920,note_on,,1,0,7,,,,,,,,,,,,,,,,10,,70,48
22979,note_on,,59,0,8,,,,,,,,,,,,,,,,11,,70,0
22979,note_on,,59,0,7,,,,,,,,,,,,,,,,10,,70,0
22980,note_on,,1,0,7,,,,,,,,,,,,,,,,10,,65,48
22980,note_on,,1,0,8,,,,,,,,,,,,,,,,11,,65,48
23039,note_on,,59,0,7,,,,,,,,,,,,,,,,10,,65,0
23039,note_on,,59,0,8,,,,,,,,,,,,,,,,11,,65,0
23040,note_on,,1,0,7,,,,,,,,,,,,,,,,10,,74,48
23040,note_on,,1,0,8,,,,,,,,,,,,,,,,11,,74,48
23099,note_on,,59,0,8,,,,,,,,,,,,,,,,11,,74,0
23099,note_on,,59,0,7,,,,,,,,,,,,,,,,10,,74,0
23100,note_on,,1,0,8,,,,,,,,,,,,,,,,11,,70,48
23100,note_on,,1,0,7,,,,,,,,,,,,,,,,10,,70,48
23159,note_on,,59,0,7,,,,,,,,,,,,,,,,10,,70,0
23159,note_on,,59,0,8,,,,,,,,,,,,,,,,11,,70,0
23160,note_on,,1,0,8,,,,,,,,,,,,,,,,11,,77,48
23160,note_on,,1,0,7,,,,,,,,,,,,,,,,10,,77,48
23219,note_on,,59,0,8,,,,,,,,,,,,,,,,11,,77,0
23219,note_on,,59,0,7,,,,,,,,,,,,,,,,10,,77,0
23220,note_on,,1,0,8,,,,,,,,,,,,,,,,11,,74,48
23220,note_on,,1,0,7,,,,,,,,,,,,,,,,10,,74,48
23279,note_on,,59,0,8,,,,,,,,,,,,,,,,11,,74,0
23279,note_on,,59,0,7,,,,,,,,,,,,,,,,10,,74,0
23280,note_on,,1,0,7,,,,,,,,,,,,,,,,10,,82,48
23280,note_on,,1,0,8,,,,,,,,,,,,,,,,11,,82,48
23339,note_on,,59,0,8,,,,,,,,,,,,,,,,11,,82,0
23339,note_on,,59,0,7,,,,,,,,,,,,,,,,10,,82,0
23340,note_on,,1,0,8,,,,,,,,,,,,,,,,11,,77,48
23340,note_on,,1,0,7,,,,,,,,,,,,,,,,10,,77,48
23399,note_on,,59,0,7,,,,,,,,,,,,,,,,10,,77,0
23399,note_on,,59,0,8,,,,,,,,,,,,,,,,11,,77,0
23400,note_on,,0,0,10,,,,,,,,,,,,,,,,15,,53,48
23400,note_on,,0,0,10,,,,,,,,,,,,,,,,15,,65,48
23400,note_on,,0,0,10,,,,,,,,,,,,,,,,15,,70,48
23400,note_on,,1,0,8,,,,,,,,,,,,,,,,11,,86,48
23400,note_on,,961,0,10,,,,,,,,,,,,,,,,15,,46,48
23400,note_on,,961,0,9,,,,,,,,,,,,,,,,13,,46,48
23400,note_on,,1,0,7,,,,,,,,,,,,,,,,10,,86,48
23400,note_on,,0,0,10,,,,,,,,,,,,,,,,15,,74,48
23579,note_on,,179,0,8,,,,,,,,,,,,,,,,11,,86,0
23579,note_on,,179,0,7,,,,,,,,,,,,,,,,10,,86,0
23579,note_on,,0,0,10,,,,,,,,,,,,,,,,15,,70,0
23579,note_on,,0,0,10,,,,,,,,,,,,,,,,15,,53,0
23579,note_on,,0,0,10,,,,,,,,,,,,,,,,15,,74,0
23579,note_on,,179,0,10,,,,,,,,,,,,,,,,15,,46,0
23579,note_on,,1619,0,6,,,,,,,,,,,,,,,,5,,77,0
23579,note_on,,179,0,9,,,,,,,,,,,,,,,,13,,46,0
23579,note_on,,0,0,10,,,,,,,,,,,,,,,,15,,65,0
23580,note_on,,1,0,10,,,,,,,,,,,,,,,,15,,48,48
23580,note_on,,0,0,10,,,,,,,,,,,,,,,,15,,72,48
23580,note_on,,1,0,7,,,,,,,,,,,,,,,,10,,84,48
23580,note_on,,0,0,10,,,,,,,,,,,,,,,,15,,57,48
23580,note_on,,1,0,9,,,,,,,,,,,,,,,,13,,48,48
23580,note_on,,1,0,8,,,,,,,,,,,,,,,,11,,84,48
23580,note_on,,0,0,10,,,,,,,,,,,,,,,,15,,63,48
23580,note_on,,0,0,10,,,,,,,,,,,,,,,,15,,69,48
23580,note_on,,1,0,6,,,,,,,,,,,,,,,,5,,75,64
23639,note_on,,0,0,10,,,,,,,,,,,,,,,,15,,57,0
23639,note_on,,0,0,10,,,,,,,,,,,,,,,,15,,63,0
23639,note_on,,0,0,10,,,,,,,,,,,,,,,,15,,69,0
23639,note_on,,59,0,9,,,,,,,,,,,,,,,,13,,48,0
23639,note_on,,59,0,7,,,,,,,,,,,,,,,,10,,84,0
23639,note_on,,59,0,10,,,,,,,,,,,,,,,,15,,48,0
23639,note_on,,59,0,6,,,,,,,,,,,,,,,,5,,75,0
23639,note_on,,0,0,10,,,,,,,,,,,,,,,,15,,72,0
23639,note_on,,59,0,8,,,,,,,,,,,,,,,,11,,84,0
23640,note_on,,1,0,6,,,,,,,,,,,,,,,,5,,74,64
23640,note_on,,1,0,10,,,,,,,,,,,,,,,,15,,50,48
23640,note_on,,0,0,10,,,,,,,,,,,,,,,,15,,70,48
23640,note_on,,0,0,10,,,,,,,,,,,,,,,,15,,65,48
23640,note_on,,0,0,10,,,,,,,,,,,,,,,,15,,62,48
23640,note_on,,0,0,10,,,,,,,,,,,,,,,,15,,58,48
23640,note_on,,1,0,8,,,,,,,,,,,,,,,,11,,82,48
23640,note_on,,1,0,7,,,,,,,,,,,,,,,,10,,82,48
23640,note_on,,1,0,9,,,,,,,,,,,,,,,,13,,50,48
23699,note_on,,59,0,6,,,,,,,,,,,,,,,,5,,74,0
23700,note_on,,1,0,6,,,,,,,,,,,,,,,,5,,72,64
23759,note_on,,0,0,10,,,,,,,,,,,,,,,,15,,65,0
23759,note_on,,119,0,8,,,,,,,,,,,,,,,,11,,82,0
23759,note_on,,119,0,7,,,,,,,,,,,,,,,,10,,82,0
23759,note_on,,59,0,6,,,,,,,,,,,,,,,,5,,72,0
23759,note_on,,119,0,9,,,,,,,,,,,,,,,,13,,50,0
23759,note_on,,0,0,10,,,,,,,,,,,,,,,,15,,58,0
23759,note_on,,0,0,10,,,,,,,,,,,,,,,,15,,62,0
23759,note_on,,0,0,10,,,,,,,,,,,,,,,,15,,70,0
23759,note_on,,119,0,10,,,,,,,,,,,,,,,,15,,50,0
23760,note_on,,1,0,9,,,,,,,,,,,,,,,,13,,51,48
23760,note_on,,0,0,10,,,,,,,,,,,,,,,,15,,63,48
23760,note_on,,0,0,10,,,,,,,,,,,,,,,,15,,67,48
23760,note_on,,0,0,10,,,,,,,,,,,,,,,,15,,58,48
23760,note_on,,1,0,6,,,,,,,,,,,,,,,,5,,70,64
23760,note_on,,1,0,10,,,,,,,,,,,,,,,,15,,51,48
23819,note_on,,59,0,6,,,,,,,,,,,,,,,,5,,70,0
23820,note_on,,1,0,6,,,,,,,,,,,,,,,,5,,72,64
23864,note_on,,44,0,6,,,,,,,,,,,,,,,,5,,72,0
23865,note_on,,1,0,6,,,,,,,,,,,,,,,,5,,70,64
23879,note_on,,119,0,9,,,,,,,,,,,,,,,,13,,51,0
23879,note_on,,119,0,10,,,,,,,,,,,,,,,,15,,51,0
23879,note_on,,0,0,10,,,,,,,,,,,,,,,,15,,67,0
23879,note_on,,0,0,10,,,,,,,,,,,,,,,,15,,63,0
23879,note_on,,0,0,10,,,,,,,,,,,,,,,,15,,58,0
23879,note_on,,14,0,6,,,,,,,,,,,,,,,,5,,70,0
23880,note_on,,1,0,10,,,,,,,,,,,,,,,,15,,53,48
23880,note_on,,0,0,10,,,,,,,,,,,,,,,,15,,60,48
23880,note_on,,0,0,10,,,,,,,,,,,,,,,,15,,58,48
23880,note_on,,1,0,9,,,,,,,,,,,,,,,,13,,53,48
23880,note_on,,1,0,6,,,,,,,,,,,,,,,,5,,69,64
23999,note_on,,119,0,10,,,,,,,,,,,,,,,,15,,53,0
23999,note_on,,0,0,10,,,,,,,,,,,,,,,,15,,60,0
23999,note_on,,0,0,10,,,,,,,,,,,,,,,,15,,58,0
23999,note_on,,119,0,9,,,,,,,,,,,,,,,,13,,53,0
24000,note_on,,1,0,9,,,,,,,,,,,,,,,,13,,41,48
24000,note_on,,1,0,10,,,,,,,,,,,,,,,,15,,41,48
24000,note_on,,0,0,10,,,,,,,,,,,,,,,,15,,60,48
24000,note_on,,0,0,10,,,,,,,,,,,,,,,,15,,65,48
24000,note_on,,0,0,10,,,,,,,,,,,,,,,,15,,57,48
24059,note_on,,179,0,6,,,,,,,,,,,,,,,,5,,69,0
24060,note_on,,1,0,6,,,,,,,,,,,,,,,,5,,70,64
24119,note_on,,0,0,10,,,,,,,,,,,,,,,,15,,60,0
24119,note_on,,0,0,10,,,,,,,,,,,,,,,,15,,57,0
24119,note_on,,119,0,10,,,,,,,,,,,,,,,,15,,41,0
24119,note_on,,0,0,10,,,,,,,,,,,,,,,,15,,65,0
24119,note_on,,119,0,9,,,,,,,,,,,,,,,,13,,41,0
24119,note_on,,59,0,6,,,,,,,,,,,,,,,,5,,70,0
24120,note_on,,1,0,6,,,,,,,,,,,,,,,,5,,70,64
24120,note_on,,0,0,10,,,,,,,,,,,,,,,,15,,53,48
24120,note_on,,0,0,10,,,,,,,,,,,,,,,,15,,58,48
24120,note_on,,0,0,10,,,,,,,,,,,,,,,,15,,62,48
24120,note_on,,1,0,10,,,,,,,,,,,,,,,,15,,46,48
24120,note_on,,1,0,9,,,,,,,,,,,,,,,,13,,46,48
24239,note_on,,0,0,10,,,,,,,,,,,,,,,,15,,53,0
24239,note_on,,0,0,10,,,,,,,,,,,,,,,,15,,62,0
24239,note_on,,119,0,10,,,,,,,,,,,,,,,,15,,46,0
24239,note_on,,119,0,9,,,,,,,,,,,,,,,,13,,46,0
24239,note_on,,0,0,10,,,,,,,,,,,,,,,,15,,58,0
24330,note_on,,571,0,7,,,,,,,,,,,,,,,,10,,77,72
24330,note_on,,571,0,8,,,,,,,,,,,,,,,,11,,77,72
24359,note_on,,29,0,7,,,,,,,,,,,,,,,,10,,77,0
24359,note_on,,29,0,8,,,,,,,,,,,,,,,,11,,77,0
24360,note_on,,0,0,10,,,,,,,,,,,,,,,,15,,53,72
24360,note_on,,0,0,10,,,,,,,,,,,,,,,,15,,70,72
24360,note_on,,0,0,10,,,,,,,,,,,,,,,,15,,65,72
24360,note_on,,0,0,10,,,,,,,,,,,,,,,,15,,58,72
24360,note_on,,1,0,7,,,,,,,,,,,,,,,,10,,77,72
24360,note_on,,1,0,8,,,,,,,,,,,,,,,,11,,77,72
24360,note_on,,3721,0,5,,,,,,,,,,,,,,,,2,,50,72
24360,note_on,,121,0,10,,,,,,,,,,,,,,,,15,,50,72
24360,note_on,,121,0,9,,,,,,,,,,,,,,,,13,,50,72
24374,note_on,,14,0,8,,,,,,,,,,,,,,,,11,,77,0
24374,note_on,,14,0,7,,,,,,,,,,,,,,,,10,,77,0
24375,note_on,,1,0,7,,,,,,,,,,,,,,,,10,,79,72
24375,note_on,,1,0,8,,,,,,,,,,,,,,,,11,,79,72
24389,note_on,,14,0,7,,,,,,,,,,,,,,,,10,,79,0
24389,note_on,,14,0,8,,,,,,,,,,,,,,,,11,,79,0
24390,note_on,,1,0,8,,,,,,,,,,,,,,,,11,,77,72
24390,note_on,,1,0,7,,,,,,,,,,,,,,,,10,,77,72
24404,note_on,,14,0,7,,,,,,,,,,,,,,,,10,,77,0
24404,note_on,,14,0,8,,,,,,,,,,,,,,,,11,,77,0
24405,note_on,,1,0,8,,,,,,,,,,,,,,,,11,,79,72
24405,note_on,,1,0,7,,,,,,,,,,,,,,,,10,,79,72
24419,note_on,,14,0,8,,,,,,,,,,,,,,,,11,,79,0
24419,note_on,,14,0,7,,,,,,,,,,,,,,,,10,,79,0
24420,note_on,,1,0,8,,,,,,,,,,,,,,,,11,,77,72
24420,note_on,,1,0,7,,,,,,,,,,,,,,,,10,,77,72
24434,note_on,,14,0,8,,,,,,,,,,,,,,,,11,,77,0
24434,note_on,,14,0,7,,,,,,,,,,,,,,,,10,,77,0
24435,note_on,,1,0,8,,,,,,,,,,,,,,,,11,,79,72
24435,note_on,,1,0,7,,,,,,,,,,,,,,,,10,,79,72
24449,note_on,,14,0,7,,,,,,,,,,,,,,,,10,,79,0
24449,note_on,,14,0,8,,,,,,,,,,,,,,,,11,,79,0
24450,note_on,,1,0,7,,,,,,,,,,,,,,,,10,,75,72
24450,note_on,,1,0,8,,,,,,,,,,,,,,,,11,,75,72
24464,note_on,,14,0,7,,,,,,,,,,,,,,,,10,,75,0
24464,note_on,,14,0,8,,,,,,,,,,,,,,,,11,,75,0
24465,note_on,,1,0,7,,,,,,,,,,,,,,,,10,,77,72
24465,note_on,,1,0,8,,,,,,,,,,,,,,,,11,,77,72
24479,note_on,,0,0,10,,,,,,,,,,,,,,,,15,,58,0
24479,note_on,,119,0,10,,,,,,,,,,,,,,,,15,,50,0
24479,note_on,,0,0,10,,,,,,,,,,,,,,,,15,,53,0
24479,note_on,,0,0,10,,,,,,,,,,,,,,,,15,,65,0
24479,note_on,,0,0,10,,,,,,,,,,,,,,,,15,,70,0
24479,note_on,,359,0,6,,,,,,,,,,,,,,,,5,,70,0
24479,note_on,,119,0,9,,,,,,,,,,,,,,,,13,,50,0
24479,note_on,,14,0,7,,,,,,,,,,,,,,,,10,,77,0
24479,note_on,,119,0,5,,,,,,,,,,,,,,,,2,,50,0
24479,note_on,,14,0,8,,,,,,,,,,,,,,,,11,,77,0
24480,note_on,,1,0,5,,,,,,,,,,,,,,,,2,,51,72
24480,note_on,,1,0,7,,,,,,,,,,,,,,,,10,,79,72
24480,note_on,,1,0,9,,,,,,,,,,,,,,,,13,,51,72
24480,note_on,,1,0,10,,,,,,,,,,,,,,,,15,,51,72
24480,note_on,,0,0,10,,,,,,,,,,,,,,,,15,,55,72
24480,note_on,,0,0,10,,,,,,,,,,,,,,,,15,,67,72
24480,note_on,,0,0,10,,,,,,,,,,,,,,,,15,,58,72
24480,note_on,,0,0,10,,,,,,,,,,,,,,,,15,,63,72
24480,note_on,,1,0,8,,,,,,,,,,,,,,,,11,,79,72
24539,note_on,,59,0,8,,,,,,,,,,,,,,,,11,,79,0
24539,note_on,,59,0,7,,,,,,,,,,,,,,,,10,,79,0
24540,note_on,,1,0,8,,,,,,,,,,,,,,,,11,,82,72
24540,note_on,,1,0,7,,,,,,,,,,,,,,,,10,,82,72
24599,note_on,,59,0,7,,,,,,,,,,,,,,,,10,,82,0
24599,note_on,,0,0,10,,,,,,,,,,,,,,,,15,,58,0
24599,note_on,,0,0,10,,,,,,,,,,,,,,,,15,,67,0
24599,note_on,,119,0,10,,,,,,,,,,,,,,,,15,,51,0
24599,note_on,,119,0,5,,,,,,,,,,,,,,,,2,,51,0
24599,note_on,,0,0,10,,,,,,,,,,,,,,,,15,,55,0
24599,note_on,,59,0,8,,,,,,,,,,,,,,,,11,,82,0
24599,note_on,,119,0,9,,,,,,,,,,,,,,,,13,,51,0
24599,note_on,,0,0,10,,,,,,,,,,,,,,,,15,,63,0
24600,note_on,,1,0,7,,,,,,,,,,,,,,,,10,,75,72
24600,note_on,,1,0,8,,,,,,,,,,,,,,,,11,,75,72
24659,note_on,,59,0,7,,,,,,,,,,,,,,,,10,,75,0
24659,note_on,,59,0,8,,,,,,,,,,,,,,,,11,,75,0
24660,note_on,,1,0,7,,,,,,,,,,,,,,,,10,,79,72
24660,note_on,,1,0,8,,,,,,,,,,,,,,,,11,,79,72
24719,note_on,,59,0,7,,,,,,,,,,,,,,,,10,,79,0
24719,note_on,,59,0,8,,,,,,,,,,,,,,,,11,,79,0
24720,note_on,,1,0,7,,,,,,,,,,,,,,,,10,,72,72
24720,note_on,,1,0,8,,,,,,,,,,,,,,,,11,,72,72
24779,note_on,,59,0,7,,,,,,,,,,,,,,,,10,,72,0
24779,note_on,,59,0,8,,,,,,,,,,,,,,,,11,,72,0
24780,note_on,,1,0,8,,,,,,,,,,,,,,,,11,,75,72
24780,note_on,,1,0,7,,,,,,,,,,,,,,,,10,,75,72
24839,note_on,,59,0,8,,,,,,,,,,,,,,,,11,,75,0
24839,note_on,,59,0,7,,,,,,,,,,,,,,,,10,,75,0
24840,note_on,,0,0,10,,,,,,,,,,,,,,,,15,,69,72
24840,note_on,,0,0,10,,,,,,,,,,,,,,,,15,,77,72
24840,note_on,,1,0,7,,,,,,,,,,,,,,,,10,,69,72
24840,note_on,,0,0,10,,,,,,,,,,,,,,,,15,,57,72
24840,note_on,,1,0,8,,,,,,,,,,,,,,,,11,,69,72
24840,note_on,,241,0,10,,,,,,,,,,,,,,,,15,,53,72
24840,note_on,,0,0,10,,,,,,,,,,,,,,,,15,,72,72
24840,note_on,,241,0,5,,,,,,,,,,,,,,,,2,,53,72
24840,note_on,,241,0,9,,,,,,,,,,,,,,,,13,,53,72
24899,note_on,,59,0,7,,,,,,,,,,,,,,,,10,,69,0
24899,note_on,,59,0,8,,,,,,,,,,,,,,,,11,,69,0
24900,note_on,,1,0,7,,,,,,,,,,,,,,,,10,,72,72
24900,note_on,,1,0,8,,,,,,,,,,,,,,,,11,,72,72
24959,note_on,,119,0,9,,,,,,,,,,,,,,,,13,,53,0
24959,note_on,,0,0,10,,,,,,,,,,,,,,,,15,,72,0
24959,note_on,,0,0,10,,,,,,,,,,,,,,,,15,,77,0
24959,note_on,,119,0,10,,,,,,,,,,,,,,,,15,,53,0
24959,note_on,,59,0,7,,,,,,,,,,,,,,,,10,,72,0
24959,note_on,,119,0,5,,,,,,,,,,,,,,,,2,,53,0
24959,note_on,,0,0,10,,,,,,,,,,,,,,,,15,,57,0
24959,note_on,,0,0,10,,,,,,,,,,,,,,,,15,,69,0
24959,note_on,,59,0,8,,,,,,,,,,,,,,,,11,,72,0
24960,note_on,,1,0,7,,,,,,,,,,,,,,,,10,,77,72
24960,note_on,,1,0,8,,,,,,,,,,,,,,,,11,,77,72
25019,note_on,,59,0,7,,,,,,,,,,,,,,,,10,,77,0
25019,note_on,,59,0,8,,,,,,,,,,,,,,,,11,,77,0
25020,note_on,,1,0,8,,,,,,,,,,,,,,,,11,,81,72
25020,note_on,,1,0,7,,,,,,,,,,,,,,,,10,,81,72
25079,note_on,,59,0,8,,,,,,,,,,,,,,,,11,,81,0
25079,note_on,,59,0,7,,,,,,,,,,,,,,,,10,,81,0
25080,note_on,,1,0,8,,,,,,,,,,,,,,,,11,,74,72
25080,note_on,,1,0,7,,,,,,,,,,,,,,,,10,,74,72
25139,note_on,,59,0,7,,,,,,,,,,,,,,,,10,,74,0
25139,note_on,,59,0,8,,,,,,,,,,,,,,,,11,,74,0
25140,note_on,,1,0,8,,,,,,,,,,,,,,,,11,,77,72
25140,note_on,,1,0,7,,,,,,,,,,,,,,,,10,,77,72
25199,note_on,,59,0,7,,,,,,,,,,,,,,,,10,,77,0
25199,note_on,,59,0,8,,,,,,,,,,,,,,,,11,,77,0
25200,note_on,,241,0,9,,,,,,,,,,,,,,,,13,,55,72
25200,note_on,,241,0,10,,,,,,,,,,,,,,,,15,,55,72
25200,note_on,,0,0,10,,,,,,,,,,,,,,,,15,,62,72
25200,note_on,,0,0,10,,,,,,,,,,,,,,,,15,,70,72
25200,note_on,,0,0,10,,,,,,,,,,,,,,,,15,,74,72
25200,note_on,,241,0,5,,,,,,,,,,,,,,,,2,,55,72
25200,note_on,,1,0,8,,,,,,,,,,,,,,,,11,,70,72
25200,note_on,,1,0,7,,,,,,,,,,,,,,,,10,,70,72
25379,note_on,,179,0,7,,,,,,,,,,,,,,,,10,,70,0
25379,note_on,,179,0,9,,,,,,,,,,,,,,,,13,,55,0
25379,note_on,,179,0,8,,,,,,,,,,,,,,,,11,,70,0
25379,note_on,,0,0,10,,,,,,,,,,,,,,,,15,,62,0
25379,note_on,,179,0,5,,,,,,,,,,,,,,,,2,,55,0
25379,note_on,,0,0,10,,,,,,,,,,,,,,,,15,,74,0
25379,note_on,,179,0,10,,,,,,,,,,,,,,,,15,,55,0
25379,note_on,,0,0,10,,,,,,,,,,,,,,,,15,,70,0
25410,note_on,,31,0,10,,,,,,,,,,,,,,,,15,,57,72
25410,note_on,,0,0,10,,,,,,,,,,,,,,,,15,,72,72
25410,note_on,,0,0,10,,,,,,,,,,,,,,,,15,,65,72
25410,note_on,,31,0,9,,,,,,,,,,,,,,,,13,,57,72
25410,note_on,,31,0,5,,,,,,,,,,,,,,,,2,,57,72
25410,note_on,,31,0,7,,,,,,,,,,,,,,,,10,,75,72
25410,note_on,,31,0,8,,,,,,,,,,,,,,,,11,,75,72
25410,note_on,,0,0,10,,,,,,,,,,,,,,,,15,,69,72
25439,note_on,,29,0,7,,,,,,,,,,,,,,,,10,,75,0
25439,note_on,,29,0,8,,,,,,,,,,,,,,,,11,,75,0
25439,note_on,,29,0,9,,,,,,,,,,,,,,,,13,,57,0
25439,note_on,,0,0,10,,,,,,,,,,,,,,,,15,,65,0
25439,note_on,,0,0,10,,,,,,,,,,,,,,,,15,,69,0
25439,note_on,,0,0,10,,,,,,,,,,,,,,,,15,,72,0
25439,note_on,,29,0,10,,,,,,,,,,,,,,,,15,,57,0
25439,note_on,,29,0,5,,,,,,,,,,,,,,,,2,,57,0
25440,note_on,,0,0,10,,,,,,,,,,,,,,,,15,,62,72
25440,note_on,,1,0,9,,,,,,,,,,,,,,,,13,,58,72
25440,note_on,,1,0,8,,,,,,,,,,,,,,,,11,,74,72
25440,note_on,,1,0,7,,,,,,,,,,,,,,,,10,,74,72
25440,note_on,,1,0,10,,,,,,,,,,,,,,,,15,,58,72
25440,note_on,,1,0,5,,,,,,,,,,,,,,,,2,,58,72
25440,note_on,,0,0,10,,,,,,,,,,,,,,,,15,,65,72
25529,note_on,,89,0,7,,,,,,,,,,,,,,,,10,,74,0
25529,note_on,,89,0,8,,,,,,,,,,,,,,,,11,,74,0
25530,note_on,,1,0,7,,,,,,,,,,,,,,,,10,,72,72
25530,note_on,,1,0,8,,,,,,,,,,,,,,,,11,,72,72
25559,note_on,,0,0,10,,,,,,,,,,,,,,,,15,,62,0
25559,note_on,,0,0,10,,,,,,,,,,,,,,,,15,,65,0
25559,note_on,,119,0,10,,,,,,,,,,,,,,,,15,,58,0
25559,note_on,,29,0,7,,,,,,,,,,,,,,,,10,,72,0
25559,note_on,,119,0,9,,,,,,,,,,,,,,,,13,,58,0
25559,note_on,,29,0,8,,,,,,,,,,,,,,,,11,,72,0
25559,note_on,,119,0,5,,,,,,,,,,,,,,,,2,,58,0
25560,note_on,,1,0,9,,,,,,,,,,,,,,,,13,,51,72
25560,note_on,,1,0,10,,,,,,,,,,,,,,,,15,,51,72
25560,note_on,,1,0,7,,,,,,,,,,,,,,,,10,,74,72
25560,note_on,,1,0,8,,,,,,,,,,,,,,,,11,,74,72
25560,note_on,,0,0,10,,,,,,,,,,,,,,,,15,,58,72
25560,note_on,,1,0,5,,,,,,,,,,,,,,,,2,,51,72
25560,note_on,,0,0,10,,,,,,,,,,,,,,,,15,,67,72
25560,note_on,,0,0,10,,,,,,,,,,,,,,,,15,,63,72
25589,note_on,,29,0,7,,,,,,,,,,,,,,,,10,,74,0
25589,note_on,,29,0,8,,,,,,,,,,,,,,,,11,,74,0
25590,note_on,,1,0,7,,,,,,,,,,,,,,,,10,,72,72
25590,note_on,,1,0,8,,,,,,,,,,,,,,,,11,,72,72
25619,note_on,,29,0,8,,,,,,,,,,,,,,,,11,,72,0
25619,note_on,,29,0,7,,,,,,,,,,,,,,,,10,,72,0
25620,note_on,,1,0,7,,,,,,,,,,,,,,,,10,,70,72
25620,note_on,,1,0,8,,,,,,,,,,,,,,,,11,,70,72
25679,note_on,,0,0,10,,,,,,,,,,,,,,,,15,,63,0
25679,note_on,,59,0,8,,,,,,,,,,,,,,,,11,,70,0
25679,note_on,,59,0,7,,,,,,,,,,,,,,,,10,,70,0
25679,note_on,,119,0,5,,,,,,,,,,,,,,,,2,,51,0
25679,note_on,,0,0,10,,,,,,,,,,,,,,,,15,,58,0
25679,note_on,,119,0,9,,,,,,,,,,,,,,,,13,,51,0
25679,note_on,,119,0,10,,,,,,,,,,,,,,,,15,,51,0
25679,note_on,,0,0,10,,,,,,,,,,,,,,,,15,,67,0
25680,note_on,,0,0,10,,,,,,,,,,,,,,,,15,,57,72
25680,note_on,,0,0,10,,,,,,,,,,,,,,,,15,,60,72
25680,note_on,,1,0,8,,,,,,,,,,,,,,,,11,,69,72
25680,note_on,,1,0,7,,,,,,,,,,,,,,,,10,,69,72
25680,note_on,,1,0,5,,,,,,,,,,,,,,,,2,,53,72
25680,note_on,,1,0,10,,,,,,,,,,,,,,,,15,,53,72
25680,note_on,,1,0,9,,,,,,,,,,,,,,,,13,,53,72
25694,note_on,,14,0,7,,,,,,,,,,,,,,,,10,,69,0
25694,note_on,,14,0,8,,,,,,,,,,,,,,,,11,,69,0
25695,note_on,,1,0,7,,,,,,,,,,,,,,,,10,,70,72
25695,note_on,,1,0,8,,,,,,,,,,,,,,,,11,,70,72
25709,note_on,,14,0,8,,,,,,,,,,,,,,,,11,,70,0
25709,note_on,,14,0,7,,,,,,,,,,,,,,,,10,,70,0
25710,note_on,,1,0,7,,,,,,,,,,,,,,,,10,,69,72
25710,note_on,,1,0,8,,,,,,,,,,,,,,,,11,,69,72
25724,note_on,,14,0,8,,,,,,,,,,,,,,,,11,,69,0
25724,note_on,,14,0,7,,,,,,,,,,,,,,,,10,,69,0
25725,note_on,,1,0,8,,,,,,,,,,,,,,,,11,,70,72
25725,note_on,,1,0,7,,,,,,,,,,,,,,,,10,,70,72
25739,note_on,,14,0,8,,,,,,,,,,,,,,,,11,,70,0
25739,note_on,,14,0,7,,,,,,,,,,,,,,,,10,,70,0
25740,note_on,,1,0,8,,,,,,,,,,,,,,,,11,,69,72
25740,note_on,,1,0,7,,,,,,,,,,,,,,,,10,,69,72
25754,note_on,,14,0,8,,,,,,,,,,,,,,,,11,,69,0
25754,note_on,,14,0,7,,,,,,,,,,,,,,,,10,,69,0
25755,note_on,,1,0,7,,,,,,,,,,,,,,,,10,,70,72
25755,note_on,,1,0,8,,,,,,,,,,,,,,,,11,,70,72
25769,note_on,,14,0,7,,,,,,,,,,,,,,,,10,,70,0
25769,note_on,,14,0,8,,,,,,,,,,,,,,,,11,,70,0
25770,note_on,,1,0,8,,,,,,,,,,,,,,,,11,,69,72
25770,note_on,,1,0,7,,,,,,,,,,,,,,,,10,,69,72
25784,note_on,,14,0,7,,,,,,,,,,,,,,,,10,,69,0
25784,note_on,,14,0,8,,,,,,,,,,,,,,,,11,,69,0
25785,note_on,,1,0,7,,,,,,,,,,,,,,,,10,,70,72
25785,note_on,,1,0,8,,,,,,,,,,,,,,,,11,,70,72
25799,note_on,,14,0,7,,,,,,,,,,,,,,,,10,,70,0
25799,note_on,,119,0,5,,,,,,,,,,,,,,,,2,,53,0
25799,note_on,,14,0,8,,,,,,,,,,,,,,,,11,,70,0
25799,note_on,,119,0,10,,,,,,,,,,,,,,,,15,,53,0
25799,note_on,,0,0,10,,,,,,,,,,,,,,,,15,,60,0
25799,note_on,,119,0,9,,,,,,,,,,,,,,,,13,,53,0
25799,note_on,,0,0,10,,,,,,,,,,,,,,,,15,,57,0
25800,note_on,,0,0,10,,,,,,,,,,,,,,,,15,,57,72
25800,note_on,,1,0,7,,,,,,,,,,,,,,,,10,,69,72
25800,note_on,,1,0,5,,,,,,,,,,,,,,,,2,,41,72
25800,note_on,,1,0,10,,,,,,,,,,,,,,,,15,,41,72
25800,note_on,,0,0,10,,,,,,,,,,,,,,,,15,,65,72
25800,note_on,,1,0,8,,,,,,,,,,,,,,,,11,,69,72
25800,note_on,,0,0,10,,,,,,,,,,,,,,,,15,,60,72
25800,note_on,,1,0,9,,,,,,,,,,,,,,,,13,,41,72
25814,note_on,,14,0,7,,,,,,,,,,,,,,,,10,,69,0
25814,note_on,,14,0,8,,,,,,,,,,,,,,,,11,,69,0
25815,note_on,,1,0,7,,,,,,,,,,,,,,,,10,,70,72
25815,note_on,,1,0,8,,,,,,,,,,,,,,,,11,,70,72
25829,note_on,,14,0,8,,,,,,,,,,,,,,,,11,,70,0
25829,note_on,,14,0,7,,,,,,,,,,,,,,,,10,,70,0
25830,note_on,,1,0,8,,,,,,,,,,,,,,,,11,,67,72
25830,note_on,,1,0,7,,,,,,,,,,,,,,,,10,,67,72
25844,note_on,,14,0,7,,,,,,,,,,,,,,,,10,,67,0
25844,note_on,,14,0,8,,,,,,,,,,,,,,,,11,,67,0
25845,note_on,,1,0,7,,,,,,,,,,,,,,,,10,,69,72
25845,note_on,,1,0,8,,,,,,,,,,,,,,,,11,,69,72
25859,note_on,,14,0,8,,,,,,,,,,,,,,,,11,,69,0
25859,note_on,,14,0,7,,,,,,,,,,,,,,,,10,,69,0
25860,note_on,,1,0,8,,,,,,,,,,,,,,,,11,,70,72
25860,note_on,,1,0,7,,,,,,,,,,,,,,,,10,,70,72
25919,note_on,,59,0,7,,,,,,,,,,,,,,,,10,,70,0
25919,note_on,,119,0,5,,,,,,,,,,,,,,,,2,,41,0
25919,note_on,,0,0,10,,,,,,,,,,,,,,,,15,,65,0
25919,note_on,,0,0,10,,,,,,,,,,,,,,,,15,,60,0
25919,note_on,,0,0,10,,,,,,,,,,,,,,,,15,,57,0
25919,note_on,,59,0,8,,,,,,,,,,,,,,,,11,,70,0
25919,note_on,,119,0,9,,,,,,,,,,,,,,,,13,,41,0
25919,note_on,,119,0,10,,,,,,,,,,,,,,,,15,,41,0
25920,note_on,,0,0,10,,,,,,,,,,,,,,,,15,,53,72
25920,note_on,,0,0,10,,,,,,,,,,,,,,,,15,,58,72
25920,note_on,,0,0,10,,,,,,,,,,,,,,,,15,,62,72
25920,note_on,,1,0,10,,,,,,,,,,,,,,,,15,,46,72
25920,note_on,,1,0,5,,,,,,,,,,,,,,,,2,,46,72
25920,note_on,,1,0,9,,,,,,,,,,,,,,,,13,,46,72
25920,note_on,,1,0,8,,,,,,,,,,,,,,,,11,,70,72
25920,note_on,,1,0,7,,,,,,,,,,,,,,,,10,,70,72
26039,note_on,,119,0,5,,,,,,,,,,,,,,,,2,,46,0
26039,note_on,,119,0,9,,,,,,,,,,,,,,,,13,,46,0
26039,note_on,,119,0,10,,,,,,,,,,,,,,,,15,,46,0
26040,note_on,,1561,0,6,,,,,,,,,,,,,,,,5,,74,64
26159,note_on,,239,0,7,,,,,,,,,,,,,,,,10,,70,0
26159,note_on,,239,0,8,,,,,,,,,,,,,,,,11,,70,0
26159,note_on,,120,0,10,,,,,,,,,,,,,,,,15,,62,0
26159,note_on,,0,0,10,,,,,,,,,,,,,,,,15,,58,0
26159,note_on,,0,0,10,,,,,,,,,,,,,,,,15,,53,0
26159,note_on,,119,0,6,,,,,,,,,,,,,,,,5,,74,0
26160,note_on,,1,0,6,,,,,,,,,,,,,,,,5,,74,64
26279,note_on,,119,0,6,,,,,,,,,,,,,,,,5,,74,0
26280,note_on,,1,0,6,,,,,,,,,,,,,,,,5,,79,64
26400,note_on,,0,0,10,,,,,,,,,,,,,,,,15,,62,48
26400,note_on,,241,0,10,,,,,,,,,,,,,,,,15,,58,48
26400,note_on,,0,0,10,,,,,,,,,,,,,,,,15,,67,48
26400,note_on,,361,0,9,,,,,,,,,,,,,,,,13,,58,48
26519,note_on,,0,0,10,,,,,,,,,,,,,,,,15,,62,0
26519,note_on,,119,0,9,,,,,,,,,,,,,,,,13,,58,0
26519,note_on,,119,0,10,,,,,,,,,,,,,,,,15,,58,0
26519,note_on,,0,0,10,,,,,,,,,,,,,,,,15,,67,0
26519,note_on,,239,0,6,,,,,,,,,,,,,,,,5,,79,0
26520,note_on,,0,0,10,,,,,,,,,,,,,,,,15,,67,48
26520,note_on,,0,0,10,,,,,,,,,,,,,,,,15,,70,48
26520,note_on,,1,0,10,,,,,,,,,,,,,,,,15,,55,48
26520,note_on,,1,0,9,,,,,,,,,,,,,,,,13,,55,48
26520,note_on,,1,0,6,,,,,,,,,,,,,,,,5,,76,64
26520,note_on,,0,0,10,,,,,,,,,,,,,,,,15,,64,48
26639,note_on,,119,0,6,,,,,,,,,,,,,,,,5,,76,0
26639,note_on,,119,0,10,,,,,,,,,,,,,,,,15,,55,0
26639,note_on,,0,0,10,,,,,,,,,,,,,,,,15,,70,0
26639,note_on,,0,0,10,,,,,,,,,,,,,,,,15,,67,0
26639,note_on,,0,0,10,,,,,,,,,,,,,,,,15,,64,0
26639,note_on,,119,0,9,,,,,,,,,,,,,,,,13,,55,0
26640,note_on,,1,0,10,,,,,,,,,,,,,,,,15,,57,48
26640,note_on,,0,0,10,,,,,,,,,,,,,,,,15,,64,48
26640,note_on,,0,0,10,,,,,,,,,,,,,,,,15,,61,48
26640,note_on,,0,0,10,,,,,,,,,,,,,,,,15,,69,48
26640,note_on,,1,0,9,,,,,,,,,,,,,,,,13,,57,48
26640,note_on,,1,0,6,,,,,,,,,,,,,,,,5,,73,64
26759,note_on,,0,0,10,,,,,,,,,,,,,,,,15,,61,0
26759,note_on,,119,0,9,,,,,,,,,,,,,,,,13,,57,0
26759,note_on,,119,0,6,,,,,,,,,,,,,,,,5,,73,0
26759,note_on,,0,0,10,,,,,,,,,,,,,,,,15,,64,0
26759,note_on,,0,0,10,,,,,,,,,,,,,,,,15,,69,0
26759,note_on,,119,0,10,,,,,,,,,,,,,,,,15,,57,0
26760,note_on,,0,0,10,,,,,,,,,,,,,,,,15,,57,48
26760,note_on,,1,0,9,,,,,,,,,,,,,,,,13,,53,48
26760,note_on,,1,0,6,,,,,,,,,,,,,,,,5,,74,64
26760,note_on,,1,0,10,,,,,,,,,,,,,,,,15,,53,48
26760,note_on,,0,0,10,,,,,,,,,,,,,,,,15,,62,48
26774,note_on,,14,0,6,,,,,,,,,,,,,,,,5,,74,0
26775,note_on,,1,0,6,,,,,,,,,,,,,,,,5,,75,64
26789,note_on,,14,0,6,,,,,,,,,,,,,,,,5,,75,0
26790,note_on,,1,0,6,,,,,,,,,,,,,,,,5,,74,64
26804,note_on,,14,0,6,,,,,,,,,,,,,,,,5,,74,0
26805,note_on,,1,0,6,,,,,,,,,,,,,,,,5,,75,64
26819,note_on,,14,0,6,,,,,,,,,,,,,,,,5,,75,0
26820,note_on,,1,0,6,,,,,,,,,,,,,,,,5,,74,64
26834,note_on,,14,0,6,,,,,,,,,,,,,,,,5,,74,0
26835,note_on,,1,0,6,,,,,,,,,,,,,,,,5,,75,64
26849,note_on,,14,0,6,,,,,,,,,,,,,,,,5,,75,0
26850,note_on,,1,0,6,,,,,,,,,,,,,,,,5,,74,64
26864,note_on,,14,0,6,,,,,,,,,,,,,,,,5,,74,0
26865,note_on,,1,0,6,,,,,,,,,,,,,,,,5,,75,64
26879,note_on,,119,0,9,,,,,,,,,,,,,,,,13,,53,0
26879,note_on,,0,0,10,,,,,,,,,,,,,,,,15,,57,0
26879,note_on,,0,0,10,,,,,,,,,,,,,,,,15,,62,0
26879,note_on,,119,0,10,,,,,,,,,,,,,,,,15,,53,0
26879,note_on,,14,0,6,,,,,,,,,,,,,,,,5,,75,0
26880,note_on,,0,0,10,,,,,,,,,,,,,,,,15,,62,48
26880,note_on,,0,0,10,,,,,,,,,,,,,,,,15,,65,48
26880,note_on,,1,0,10,,,,,,,,,,,,,,,,15,,50,48
26880,note_on,,1,0,9,,,,,,,,,,,,,,,,13,,50,48
26880,note_on,,1,0,6,,,,,,,,,,,,,,,,5,,74,64
26880,note_on,,0,0,10,,,,,,,,,,,,,,,,15,,57,48
26894,note_on,,14,0,6,,,,,,,,,,,,,,,,5,,74,0
26895,note_on,,1,0,6,,,,,,,,,,,,,,,,5,,75,64
26909,note_on,,14,0,6,,,,,,,,,,,,,,,,5,,75,0
26910,note_on,,1,0,6,,,,,,,,,,,,,,,,5,,74,64
26924,note_on,,14,0,6,,,,,,,,,,,,,,,,5,,74,0
26925,note_on,,1,0,6,,,,,,,,,,,,,,,,5,,75,64
26939,note_on,,14,0,6,,,,,,,,,,,,,,,,5,,75,0
26940,note_on,,1,0,6,,,,,,,,,,,,,,,,5,,74,64
26954,note_on,,14,0,6,,,,,,,,,,,,,,,,5,,74,0
26955,note_on,,1,0,6,,,,,,,,,,,,,,,,5,,75,64
26969,note_on,,14,0,6,,,,,,,,,,,,,,,,5,,75,0
26970,note_on,,1,0,6,,,,,,,,,,,,,,,,5,,73,64
26984,note_on,,14,0,6,,,,,,,,,,,,,,,,5,,73,0
26985,note_on,,1,0,6,,,,,,,,,,,,,,,,5,,74,64
26999,note_on,,119,0,9,,,,,,,,,,,,,,,,13,,50,0
26999,note_on,,119,0,10,,,,,,,,,,,,,,,,15,,50,0
26999,note_on,,0,0,10,,,,,,,,,,,,,,,,15,,65,0
26999,note_on,,0,0,10,,,,,,,,,,,,,,,,15,,62,0
26999,note_on,,0,0,10,,,,,,,,,,,,,,,,15,,57,0
26999,note_on,,14,0,6,,,,,,,,,,,,,,,,5,,74,0
27000,note_on,,1,0,6,,,,,,,,,,,,,,,,5,,76,64
27000,note_on,,0,0,10,,,,,,,,,,,,,,,,15,,57,48
27000,note_on,,0,0,10,,,,,,,,,,,,,,,,15,,69,48
27000,note_on,,1,0,10,,,,,,,,,,,,,,,,15,,49,48
27000,note_on,,1,0,9,,,,,,,,,,,,,,,,13,,49,48
27000,note_on,,0,0,10,,,,,,,,,,,,,,,,15,,63,48
27119,note_on,,119,0,6,,,,,,,,,,,,,,,,5,,76,0
27120,note_on,,1,0,6,,,,,,,,,,,,,,,,5,,69,64
27239,note_on,,239,0,9,,,,,,,,,,,,,,,,13,,49,0
27239,note_on,,0,0,10,,,,,,,,,,,,,,,,15,,57,0
27239,note_on,,0,0,10,,,,,,,,,,,,,,,,15,,63,0
27239,note_on,,0,0,10,,,,,,,,,,,,,,,,15,,69,0
27239,note_on,,239,0,10,,,,,,,,,,,,,,,,15,,49,0
27239,note_on,,119,0,6,,,,,,,,,,,,,,,,5,,69,0
27240,note_on,,1,0,10,,,,,,,,,,,,,,,,15,,50,48
27240,note_on,,0,0,10,,,,,,,,,,,,,,,,15,,65,48
27240,note_on,,0,0,10,,,,,,,,,,,,,,,,15,,62,48
27240,note_on,,0,0,10,,,,,,,,,,,,,,,,15,,57,48
27240,note_on,,1,0,9,,,,,,,,,,,,,,,,13,,50,48
27359,note_on,,0,0,10,,,,,,,,,,,,,,,,15,,62,0
27359,note_on,,0,0,10,,,,,,,,,,,,,,,,15,,65,0
27359,note_on,,0,0,10,,,,,,,,,,,,,,,,15,,57,0
27359,note_on,,119,0,10,,,,,,,,,,,,,,,,15,,50,0
27359,note_on,,119,0,9,,,,,,,,,,,,,,,,13,,50,0
27360,note_on,,1,0,9,,,,,,,,,,,,,,,,13,,45,48
27360,note_on,,0,0,10,,,,,,,,,,,,,,,,15,,57,48
27360,note_on,,0,0,10,,,,,,,,,,,,,,,,15,,61,48
27360,note_on,,0,0,10,,,,,,,,,,,,,,,,15,,64,48
27360,note_on,,1,0,10,,,,,,,,,,,,,,,,15,,45,48
27479,note_on,,119,0,10,,,,,,,,,,,,,,,,15,,45,0
27479,note_on,,119,0,9,,,,,,,,,,,,,,,,13,,45,0
27480,note_on,,1,0,9,,,,,,,,,,,,,,,,13,,57,48
27480,note_on,,241,0,6,,,,,,,,,,,,,,,,5,,69,64
27599,note_on,,119,0,9,,,,,,,,,,,,,,,,13,,57,0
27599,note_on,,119,0,6,,,,,,,,,,,,,,,,5,,69,0
27600,note_on,,121,0,10,,,,,,,,,,,,,,,,15,,55,48
27600,note_on,,1,0,9,,,,,,,,,,,,,,,,13,,55,48
27600,note_on,,1,0,6,,,,,,,,,,,,,,,,5,,69,64
27719,note_on,,119,0,9,,,,,,,,,,,,,,,,13,,55,0
27719,note_on,,0,0,10,,,,,,,,,,,,,,,,15,,61,0
27719,note_on,,119,0,6,,,,,,,,,,,,,,,,5,,69,0
27719,note_on,,119,0,10,,,,,,,,,,,,,,,,15,,64,0
27719,note_on,,0,0,10,,,,,,,,,,,,,,,,15,,57,0
27719,note_on,,0,0,10,,,,,,,,,,,,,,,,15,,55,0
27720,note_on,,1,0,10,,,,,,,,,,,,,,,,15,,53,48
27720,note_on,,0,0,10,,,,,,,,,,,,,,,,15,,62,48
27720,note_on,,0,0,10,,,,,,,,,,,,,,,,15,,57,48
27720,note_on,,0,0,10,,,,,,,,,,,,,,,,15,,69,48
27720,note_on,,1,0,6,,,,,,,,,,,,,,,,5,,74,64
27720,note_on,,1,0,9,,,,,,,,,,,,,,,,13,,53,48
27839,note_on,,119,0,9,,,,,,,,,,,,,,,,13,,53,0
27839,note_on,,119,0,10,,,,,,,,,,,,,,,,15,,53,0
27840,note_on,,1,0,9,,,,,,,,,,,,,,,,13,,53,48
27840,note_on,,1,0,10,,,,,,,,,,,,,,,,15,,53,48
27959,note_on,,119,0,10,,,,,,,,,,,,,,,,15,,69,0
27959,note_on,,0,0,10,,,,,,,,,,,,,,,,15,,53,0
27959,note_on,,119,0,9,,,,,,,,,,,,,,,,13,,53,0
27960,note_on,,1,0,9,,,,,,,,,,,,,,,,13,,52,48
27960,note_on,,0,0,10,,,,,,,,,,,,,,,,15,,67,48
27960,note_on,,1,0,10,,,,,,,,,,,,,,,,15,,52,48
28079,note_on,,0,0,10,,,,,,,,,,,,,,,,15,,67,0
28079,note_on,,0,0,10,,,,,,,,,,,,,,,,15,,52,0
28079,note_on,,119,0,10,,,,,,,,,,,,,,,,15,,62,0
28079,note_on,,0,0,10,,,,,,,,,,,,,,,,15,,57,0
28079,note_on,,119,0,9,,,,,,,,,,,,,,,,13,,52,0
28079,note_on,,359,0,6,,,,,,,,,,,,,,,,5,,74,0
28080,note_on,,1,0,6,,,,,,,,,,,,,,,,5,,69,64
28080,note_on,,1,0,10,,,,,,,,,,,,,,,,15,,50,48
28080,note_on,,0,0,10,,,,,,,,,,,,,,,,15,,65,48
28080,note_on,,0,0,10,,,,,,,,,,,,,,,,15,,62,48
28080,note_on,,0,0,10,,,,,,,,,,,,,,,,15,,57,48
28080,note_on,,1,0,9,,,,,,,,,,,,,,,,13,,50,48
28199,note_on,,0,0,10,,,,,,,,,,,,,,,,15,,57,0
28199,note_on,,119,0,6,,,,,,,,,,,,,,,,5,,69,0
28199,note_on,,0,0,10,,,,,,,,,,,,,,,,15,,65,0
28199,note_on,,0,0,10,,,,,,,,,,,,,,,,15,,62,0
28199,note_on,,119,0,10,,,,,,,,,,,,,,,,15,,50,0
28199,note_on,,119,0,9,,,,,,,,,,,,,,,,13,,50,0
28200,note_on,,1,0,10,,,,,,,,,,,,,,,,15,,53,48
28200,note_on,,0,0,10,,,,,,,,,,,,,,,,15,,69,48
28200,note_on,,1,0,9,,,,,,,,,,,,,,,,13,,53,48
28200,note_on,,1,0,6,,,,,,,,,,,,,,,,5,,74,64
28200,note_on,,0,0,10,,,,,,,,,,,,,,,,15,,62,48
28290,note_on,,2131,0,8,,,,,,,,,,,,,,,,11,,69,48
28290,note_on,,2131,0,7,,,,,,,,,,,,,,,,10,,69,48
28319,note_on,,119,0,6,,,,,,,,,,,,,,,,5,,74,0
28319,note_on,,29,0,8,,,,,,,,,,,,,,,,11,,69,0
28319,note_on,,119,0,10,,,,,,,,,,,,,,,,15,,53,0
28319,note_on,,0,0,10,,,,,,,,,,,,,,,,15,,62,0
28319,note_on,,29,0,7,,,,,,,,,,,,,,,,10,,69,0
28319,note_on,,119,0,9,,,,,,,,,,,,,,,,13,,53,0
28319,note_on,,0,0,10,,,,,,,,,,,,,,,,15,,69,0
28320,note_on,,1,0,7,,,,,,,,,,,,,,,,10,,69,48
28320,note_on,,1,0,6,,,,,,,,,,,,,,,,5,,77,64
28320,note_on,,1,0,9,,,,,,,,,,,,,,,,13,,50,48
28320,note_on,,1,0,10,,,,,,,,,,,,,,,,15,,50,48
28320,note_on,,0,0,10,,,,,,,,,,,,,,,,15,,65,48
28320,note_on,,0,0,10,,,,,,,,,,,,,,,,15,,57,48
28320,note_on,,0,0,10,,,,,,,,,,,,,,,,15,,74,48
28320,note_on,,1,0,8,,,,,,,,,,,,,,,,11,,69,48
28320,note_on,,0,0,10,,,,,,,,,,,,,,,,15,,69,48
28334,note_on,,14,0,8,,,,,,,,,,,,,,,,11,,69,0
28334,note_on,,14,0,7,,,,,,,,,,,,,,,,10,,69,0
28335,note_on,,1,0,7,,,,,,,,,,,,,,,,10,,70,48
28335,note_on,,1,0,8,,,,,,,,,,,,,,,,11,,70,48
28349,note_on,,14,0,7,,,,,,,,,,,,,,,,10,,70,0
28349,note_on,,14,0,8,,,,,,,,,,,,,,,,11,,70,0
28350,note_on,,1,0,8,,,,,,,,,,,,,,,,11,,69,48
28350,note_on,,1,0,7,,,,,,,,,,,,,,,,10,,69,48
28364,note_on,,14,0,7,,,,,,,,,,,,,,,,10,,69,0
28364,note_on,,14,0,8,,,,,,,,,,,,,,,,11,,69,0
28365,note_on,,1,0,8,,,,,,,,,,,,,,,,11,,70,48
28365,note_on,,1,0,7,,,,,,,,,,,,,,,,10,,70,48
28379,note_on,,14,0,7,,,,,,,,,,,,,,,,10,,70,0
28379,note_on,,14,0,8,,,,,,,,,,,,,,,,11,,70,0
28380,note_on,,1,0,8,,,,,,,,,,,,,,,,11,,69,48
28380,note_on,,1,0,7,,,,,,,,,,,,,,,,10,,69,48
28394,note_on,,14,0,7,,,,,,,,,,,,,,,,10,,69,0
28394,note_on,,14,0,8,,,,,,,,,,,,,,,,11,,69,0
28395,note_on,,1,0,8,,,,,,,,,,,,,,,,11,,70,48
28395,note_on,,1,0,7,,,,,,,,,,,,,,,,10,,70,48
28409,note_on,,14,0,7,,,,,,,,,,,,,,,,10,,70,0
28409,note_on,,14,0,8,,,,,,,,,,,,,,,,11,,70,0
28410,note_on,,1,0,8,,,,,,,,,,,,,,,,11,,67,48
28410,note_on,,1,0,7,,,,,,,,,,,,,,,,10,,67,48
28424,note_on,,14,0,8,,,,,,,,,,,,,,,,11,,67,0
28424,note_on,,14,0,7,,,,,,,,,,,,,,,,10,,67,0
28425,note_on,,1,0,8,,,,,,,,,,,,,,,,11,,69,48
28425,note_on,,1,0,7,,,,,,,,,,,,,,,,10,,69,48
28439,note_on,,119,0,9,,,,,,,,,,,,,,,,13,,50,0
28439,note_on,,14,0,7,,,,,,,,,,,,,,,,10,,69,0
28439,note_on,,119,0,6,,,,,,,,,,,,,,,,5,,77,0
28439,note_on,,119,0,10,,,,,,,,,,,,,,,,15,,50,0
28439,note_on,,0,0,10,,,,,,,,,,,,,,,,15,,74,0
28439,note_on,,0,0,10,,,,,,,,,,,,,,,,15,,69,0
28439,note_on,,0,0,10,,,,,,,,,,,,,,,,15,,57,0
28439,note_on,,0,0,10,,,,,,,,,,,,,,,,15,,65,0
28439,note_on,,14,0,8,,,,,,,,,,,,,,,,11,,69,0
28440,note_on,,1,0,10,,,,,,,,,,,,,,,,15,,55,48
28440,note_on,,1,0,9,,,,,,,,,,,,,,,,13,,55,48
28440,note_on,,1,0,8,,,,,,,,,,,,,,,,11,,70,48
28440,note_on,,1,0,7,,,,,,,,,,,,,,,,10,,70,48
28440,note_on,,0,0,10,,,,,,,,,,,,,,,,15,,70,48
28440,note_on,,1,0,6,,,,,,,,,,,,,,,,5,,70,64
28440,note_on,,0,0,10,,,,,,,,,,,,,,,,15,,58,48
28440,note_on,,0,0,10,,,,,,,,,,,,,,,,15,,62,48
28440,note_on,,0,0,10,,,,,,,,,,,,,,,,15,,67,48
28499,note_on,,59,0,7,,,,,,,,,,,,,,,,10,,70,0
28499,note_on,,59,0,8,,,,,,,,,,,,,,,,11,,70,0
28500,note_on,,1,0,8,,,,,,,,,,,,,,,,11,,74,48
28500,note_on,,1,0,7,,,,,,,,,,,,,,,,10,,74,48
28559,note_on,,119,0,10,,,,,,,,,,,,,,,,15,,55,0
28559,note_on,,0,0,10,,,,,,,,,,,,,,,,15,,62,0
28559,note_on,,0,0,10,,,,,,,,,,,,,,,,15,,67,0
28559,note_on,,0,0,10,,,,,,,,,,,,,,,,15,,70,0
28559,note_on,,119,0,9,,,,,,,,,,,,,,,,13,,55,0
28559,note_on,,59,0,7,,,,,,,,,,,,,,,,10,,74,0
28559,note_on,,0,0,10,,,,,,,,,,,,,,,,15,,58,0
28559,note_on,,59,0,8,,,,,,,,,,,,,,,,11,,74,0
28560,note_on,,1,0,7,,,,,,,,,,,,,,,,10,,67,48
28560,note_on,,1,0,8,,,,,,,,,,,,,,,,11,,67,48
28619,note_on,,59,0,8,,,,,,,,,,,,,,,,11,,67,0
28619,note_on,,59,0,7,,,,,,,,,,,,,,,,10,,67,0
28620,note_on,,1,0,7,,,,,,,,,,,,,,,,10,,70,48
28620,note_on,,1,0,8,,,,,,,,,,,,,,,,11,,70,48
28679,note_on,,59,0,7,,,,,,,,,,,,,,,,10,,70,0
28679,note_on,,59,0,8,,,,,,,,,,,,,,,,11,,70,0
28680,note_on,,1,0,7,,,,,,,,,,,,,,,,10,,64,48
28680,note_on,,1,0,8,,,,,,,,,,,,,,,,11,,64,48
28739,note_on,,59,0,8,,,,,,,,,,,,,,,,11,,64,0
28739,note_on,,59,0,7,,,,,,,,,,,,,,,,10,,64,0
28740,note_on,,1,0,8,,,,,,,,,,,,,,,,11,,67,48
28740,note_on,,1,0,7,,,,,,,,,,,,,,,,10,,67,48
28799,note_on,,59,0,7,,,,,,,,,,,,,,,,10,,67,0
28799,note_on,,59,0,8,,,,,,,,,,,,,,,,11,,67,0
28800,note_on,,0,0,10,,,,,,,,,,,,,,,,15,,60,48
28800,note_on,,0,0,10,,,,,,,,,,,,,,,,15,,67,48
28800,note_on,,0,0,10,,,,,,,,,,,,,,,,15,,72,48
28800,note_on,,241,0,10,,,,,,,,,,,,,,,,15,,52,48
28800,note_on,,1,0,8,,,,,,,,,,,,,,,,11,,60,48
28800,note_on,,241,0,9,,,,,,,,,,,,,,,,13,,52,48
28800,note_on,,0,0,10,,,,,,,,,,,,,,,,15,,55,48
28800,note_on,,1,0,7,,,,,,,,,,,,,,,,10,,60,48
28859,note_on,,419,0,6,,,,,,,,,,,,,,,,5,,70,0
28860,note_on,,1,0,6,,,,,,,,,,,,,,,,5,,74,64
28919,note_on,,119,0,7,,,,,,,,,,,,,,,,10,,60,0
28919,note_on,,59,0,6,,,,,,,,,,,,,,,,5,,74,0
28919,note_on,,0,0,10,,,,,,,,,,,,,,,,15,,55,0
28919,note_on,,119,0,8,,,,,,,,,,,,,,,,11,,60,0
28919,note_on,,0,0,10,,,,,,,,,,,,,,,,15,,60,0
28919,note_on,,0,0,10,,,,,,,,,,,,,,,,15,,67,0
28919,note_on,,0,0,10,,,,,,,,,,,,,,,,15,,72,0
28919,note_on,,119,0,10,,,,,,,,,,,,,,,,15,,52,0
28919,note_on,,119,0,9,,,,,,,,,,,,,,,,13,,52,0
28920,note_on,,1,0,6,,,,,,,,,,,,,,,,5,,72,64
28979,note_on,,59,0,6,,,,,,,,,,,,,,,,5,,72,0
28980,note_on,,1,0,6,,,,,,,,,,,,,,,,5,,70,64
29039,note_on,,59,0,6,,,,,,,,,,,,,,,,5,,70,0
29040,note_on,,1,0,6,,,,,,,,,,,,,,,,5,,69,64
29099,note_on,,59,0,6,,,,,,,,,,,,,,,,5,,69,0
29100,note_on,,1,0,6,,,,,,,,,,,,,,,,5,,67,64
29159,note_on,,59,0,6,,,,,,,,,,,,,,,,5,,67,0
29160,note_on,,1,0,6,,,,,,,,,,,,,,,,5,,69,64
29160,note_on,,0,0,10,,,,,,,,,,,,,,,,15,,69,48
29160,note_on,,0,0,10,,,,,,,,,,,,,,,,15,,65,48
29160,note_on,,241,0,8,,,,,,,,,,,,,,,,11,,69,48
29160,note_on,,241,0,10,,,,,,,,,,,,,,,,15,,53,48
29160,note_on,,241,0,7,,,,,,,,,,,,,,,,10,,69,48
29160,note_on,,241,0,9,,,,,,,,,,,,,,,,13,,53,48
29160,note_on,,0,0,10,,,,,,,,,,,,,,,,15,,60,48
29160,note_on,,0,0,10,,,,,,,,,,,,,,,,15,,57,48
29219,note_on,,59,0,7,,,,,,,,,,,,,,,,10,,69,0
29219,note_on,,59,0,8,,,,,,,,,,,,,,,,11,,69,0
29220,note_on,,1,0,7,,,,,,,,,,,,,,,,10,,72,48
29220,note_on,,1,0,8,,,,,,,,,,,,,,,,11,,72,48
29279,note_on,,0,0,10,,,,,,,,,,,,,,,,15,,69,0
29279,note_on,,0,0,10,,,,,,,,,,,,,,,,15,,65,0
29279,note_on,,119,0,10,,,,,,,,,,,,,,,,15,,53,0
29279,note_on,,0,0,10,,,,,,,,,,,,,,,,15,,57,0
29279,note_on,,59,0,8,,,,,,,,,,,,,,,,11,,72,0
29279,note_on,,0,0,10,,,,,,,,,,,,,,,,15,,60,0
29279,note_on,,119,0,9,,,,,,,,,,,,,,,,13,,53,0
29279,note_on,,59,0,7,,,,,,,,,,,,,,,,10,,72,0
29280,note_on,,1,0,8,,,,,,,,,,,,,,,,11,,65,48
29280,note_on,,1,0,7,,,,,,,,,,,,,,,,10,,65,48
29339,note_on,,59,0,8,,,,,,,,,,,,,,,,11,,65,0
29339,note_on,,59,0,7,,,,,,,,,,,,,,,,10,,65,0
29340,note_on,,1,0,8,,,,,,,,,,,,,,,,11,,69,48
29340,note_on,,1,0,7,,,,,,,,,,,,,,,,10,,69,48
29399,note_on,,59,0,8,,,,,,,,,,,,,,,,11,,69,0
29399,note_on,,59,0,7,,,,,,,,,,,,,,,,10,,69,0
29400,note_on,,1,0,7,,,,,,,,,,,,,,,,10,,62,48
29400,note_on,,1,0,8,,,,,,,,,,,,,,,,11,,62,48
29459,note_on,,59,0,7,,,,,,,,,,,,,,,,10,,62,0
29459,note_on,,59,0,8,,,,,,,,,,,,,,,,11,,62,0
29460,note_on,,1,0,8,,,,,,,,,,,,,,,,11,,65,48
29460,note_on,,1,0,7,,,,,,,,,,,,,,,,10,,65,48
29519,note_on,,59,0,8,,,,,,,,,,,,,,,,11,,65,0
29519,note_on,,59,0,7,,,,,,,,,,,,,,,,10,,65,0
29520,note_on,,1,0,7,,,,,,,,,,,,,,,,10,,58,48
29520,note_on,,1,0,8,,,,,,,,,,,,,,,,11,,58,48
29520,note_on,,241,0,9,,,,,,,,,,,,,,,,13,,50,48
29520,note_on,,241,0,10,,,,,,,,,,,,,,,,15,,50,48
29520,note_on,,0,0,10,,,,,,,,,,,,,,,,15,,70,48
29520,note_on,,0,0,10,,,,,,,,,,,,,,,,15,,65,48
29520,note_on,,0,0,10,,,,,,,,,,,,,,,,15,,53,48
29520,note_on,,0,0,10,,,,,,,,,,,,,,,,15,,62,48
29579,note_on,,419,0,6,,,,,,,,,,,,,,,,5,,69,0
29580,note_on,,1,0,6,,,,,,,,,,,,,,,,5,,72,64
29639,note_on,,119,0,8,,,,,,,,,,,,,,,,11,,58,0
29639,note_on,,59,0,6,,,,,,,,,,,,,,,,5,,72,0
29639,note_on,,119,0,9,,,,,,,,,,,,,,,,13,,50,0
29639,note_on,,0,0,10,,,,,,,,,,,,,,,,15,,70,0
29639,note_on,,0,0,10,,,,,,,,,,,,,,,,15,,65,0
29639,note_on,,119,0,10,,,,,,,,,,,,,,,,15,,50,0
29639,note_on,,119,0,7,,,,,,,,,,,,,,,,10,,58,0
29639,note_on,,0,0,10,,,,,,,,,,,,,,,,15,,62,0
29639,note_on,,0,0,10,,,,,,,,,,,,,,,,15,,53,0
29640,note_on,,1,0,6,,,,,,,,,,,,,,,,5,,70,64
29699,note_on,,59,0,6,,,,,,,,,,,,,,,,5,,70,0
29700,note_on,,1,0,6,,,,,,,,,,,,,,,,5,,69,64
29759,note_on,,59,0,6,,,,,,,,,,,,,,,,5,,69,0
29760,note_on,,1,0,6,,,,,,,,,,,,,,,,5,,67,64
29819,note_on,,59,0,6,,,,,,,,,,,,,,,,5,,67,0
29820,note_on,,1,0,6,,,,,,,,,,,,,,,,5,,65,64
29879,note_on,,59,0,6,,,,,,,,,,,,,,,,5,,65,0
29880,note_on,,0,0,10,,,,,,,,,,,,,,,,15,,55,48
29880,note_on,,241,0,8,,,,,,,,,,,,,,,,11,,67,48
29880,note_on,,241,0,7,,,,,,,,,,,,,,,,10,,67,48
29880,note_on,,0,0,10,,,,,,,,,,,,,,,,15,,58,48
29880,note_on,,1,0,6,,,,,,,,,,,,,,,,5,,67,64
29880,note_on,,0,0,10,,,,,,,,,,,,,,,,15,,67,48
29880,note_on,,241,0,10,,,,,,,,,,,,,,,,15,,52,48
29880,note_on,,241,0,9,,,,,,,,,,,,,,,,13,,52,48
29880,note_on,,0,0,10,,,,,,,,,,,,,,,,15,,64,48
29939,note_on,,59,0,7,,,,,,,,,,,,,,,,10,,67,0
29939,note_on,,59,0,8,,,,,,,,,,,,,,,,11,,67,0
29940,note_on,,1,0,8,,,,,,,,,,,,,,,,11,,70,48
29940,note_on,,1,0,7,,,,,,,,,,,,,,,,10,,70,48
29999,note_on,,119,0,9,,,,,,,,,,,,,,,,13,,52,0
29999,note_on,,0,0,10,,,,,,,,,,,,,,,,15,,55,0
29999,note_on,,59,0,7,,,,,,,,,,,,,,,,10,,70,0
29999,note_on,,59,0,8,,,,,,,,,,,,,,,,11,,70,0
29999,note_on,,0,0,10,,,,,,,,,,,,,,,,15,,58,0
29999,note_on,,119,0,10,,,,,,,,,,,,,,,,15,,52,0
29999,note_on,,0,0,10,,,,,,,,,,,,,,,,15,,67,0
29999,note_on,,0,0,10,,,,,,,,,,,,,,,,15,,64,0
30000,note_on,,1,0,8,,,,,,,,,,,,,,,,11,,64,48
30000,note_on,,1,0,7,,,,,,,,,,,,,,,,10,,64,48
30059,note_on,,59,0,8,,,,,,,,,,,,,,,,11,,64,0
30059,note_on,,59,0,7,,,,,,,,,,,,,,,,10,,64,0
30060,note_on,,1,0,8,,,,,,,,,,,,,,,,11,,67,48
30060,note_on,,1,0,7,,,,,,,,,,,,,,,,10,,67,48
30119,note_on,,59,0,7,,,,,,,,,,,,,,,,10,,67,0
30119,note_on,,59,0,8,,,,,,,,,,,,,,,,11,,67,0
30120,note_on,,1,0,8,,,,,,,,,,,,,,,,11,,61,48
30120,note_on,,1,0,7,,,,,,,,,,,,,,,,10,,61,48
30179,note_on,,59,0,8,,,,,,,,,,,,,,,,11,,61,0
30179,note_on,,59,0,7,,,,,,,,,,,,,,,,10,,61,0
30180,note_on,,1,0,7,,,,,,,,,,,,,,,,10,,64,48
30180,note_on,,1,0,8,,,,,,,,,,,,,,,,11,,64,48
30239,note_on,,59,0,7,,,,,,,,,,,,,,,,10,,64,0
30239,note_on,,59,0,8,,,,,,,,,,,,,,,,11,,64,0
30240,note_on,,241,0,9,,,,,,,,,,,,,,,,13,,49,48
30240,note_on,,0,0,10,,,,,,,,,,,,,,,,15,,69,48
30240,note_on,,241,0,10,,,,,,,,,,,,,,,,15,,49,48
30240,note_on,,1,0,8,,,,,,,,,,,,,,,,11,,57,48
30240,note_on,,0,0,10,,,,,,,,,,,,,,,,15,,52,48
30240,note_on,,0,0,10,,,,,,,,,,,,,,,,15,,64,48
30240,note_on,,1,0,7,,,,,,,,,,,,,,,,10,,57,48
30299,note_on,,419,0,6,,,,,,,,,,,,,,,,5,,67,0
30300,note_on,,1,0,6,,,,,,,,,,,,,,,,5,,70,64
30359,note_on,,0,0,10,,,,,,,,,,,,,,,,15,,64,0
30359,note_on,,0,0,10,,,,,,,,,,,,,,,,15,,52,0
30359,note_on,,119,0,10,,,,,,,,,,,,,,,,15,,49,0
30359,note_on,,0,0,10,,,,,,,,,,,,,,,,15,,69,0
30359,note_on,,119,0,9,,,,,,,,,,,,,,,,13,,49,0
30359,note_on,,59,0,6,,,,,,,,,,,,,,,,5,,70,0
30359,note_on,,119,0,8,,,,,,,,,,,,,,,,11,,57,0
30359,note_on,,119,0,7,,,,,,,,,,,,,,,,10,,57,0
30360,note_on,,1,0,6,,,,,,,,,,,,,,,,5,,69,64
30419,note_on,,59,0,6,,,,,,,,,,,,,,,,5,,69,0
30420,note_on,,1,0,6,,,,,,,,,,,,,,,,5,,67,64
30479,note_on,,59,0,6,,,,,,,,,,,,,,,,5,,67,0
30480,note_on,,1,0,6,,,,,,,,,,,,,,,,5,,65,64
30539,note_on,,59,0,6,,,,,,,,,,,,,,,,5,,65,0
30540,note_on,,1,0,6,,,,,,,,,,,,,,,,5,,64,64
30599,note_on,,59,0,6,,,,,,,,,,,,,,,,5,,64,0
30600,note_on,,0,0,10,,,,,,,,,,,,,,,,15,,62,48
30600,note_on,,1,0,6,,,,,,,,,,,,,,,,5,,65,64
30600,note_on,,0,0,10,,,,,,,,,,,,,,,,15,,74,48
30600,note_on,,0,0,10,,,,,,,,,,,,,,,,15,,50,48
30600,note_on,,241,0,9,,,,,,,,,,,,,,,,13,,50,48
30600,note_on,,241,0,10,,,,,,,,,,,,,,,,15,,69,48
30600,note_on,,0,0,10,,,,,,,,,,,,,,,,15,,53,48
30614,note_on,,14,0,6,,,,,,,,,,,,,,,,5,,65,0
30615,note_on,,1,0,6,,,,,,,,,,,,,,,,5,,67,64
30629,note_on,,14,0,6,,,,,,,,,,,,,,,,5,,67,0
30630,note_on,,1,0,6,,,,,,,,,,,,,,,,5,,65,64
30644,note_on,,14,0,6,,,,,,,,,,,,,,,,5,,65,0
30645,note_on,,1,0,6,,,,,,,,,,,,,,,,5,,67,64
30659,note_on,,14,0,6,,,,,,,,,,,,,,,,5,,67,0
30660,note_on,,1,0,6,,,,,,,,,,,,,,,,5,,64,64
30674,note_on,,14,0,6,,,,,,,,,,,,,,,,5,,64,0
30675,note_on,,1,0,6,,,,,,,,,,,,,,,,5,,65,64
30689,note_on,,14,0,6,,,,,,,,,,,,,,,,5,,65,0
30690,note_on,,1,0,6,,,,,,,,,,,,,,,,5,,64,64
30719,note_on,,0,0,10,,,,,,,,,,,,,,,,15,,74,0
30719,note_on,,119,0,10,,,,,,,,,,,,,,,,15,,69,0
30719,note_on,,0,0,10,,,,,,,,,,,,,,,,15,,50,0
30719,note_on,,29,0,6,,,,,,,,,,,,,,,,5,,64,0
30719,note_on,,0,0,10,,,,,,,,,,,,,,,,15,,53,0
30719,note_on,,0,0,10,,,,,,,,,,,,,,,,15,,62,0
30719,note_on,,119,0,9,,,,,,,,,,,,,,,,13,,50,0
30720,note_on,,1,0,6,,,,,,,,,,,,,,,,5,,65,64
30779,note_on,,59,0,6,,,,,,,,,,,,,,,,5,,65,0
30780,note_on,,1,0,6,,,,,,,,,,,,,,,,5,,69,64
30839,note_on,,59,0,6,,,,,,,,,,,,,,,,5,,69,0
30840,note_on,,0,0,10,,,,,,,,,,,,,,,,15,,64,48
30840,note_on,,1,0,6,,,,,,,,,,,,,,,,5,,67,64
30840,note_on,,121,0,9,,,,,,,,,,,,,,,,13,,52,48
30840,note_on,,0,0,10,,,,,,,,,,,,,,,,15,,67,48
30840,note_on,,0,0,10,,,,,,,,,,,,,,,,15,,73,48
30840,note_on,,0,0,10,,,,,,,,,,,,,,,,15,,55,48
30840,note_on,,121,0,10,,,,,,,,,,,,,,,,15,,52,48
30899,note_on,,59,0,6,,,,,,,,,,,,,,,,5,,67,0
30900,note_on,,1,0,6,,,,,,,,,,,,,,,,5,,70,64
30959,note_on,,119,0,10,,,,,,,,,,,,,,,,15,,52,0
30959,note_on,,59,0,6,,,,,,,,,,,,,,,,5,,70,0
30959,note_on,,119,0,9,,,,,,,,,,,,,,,,13,,52,0
30959,note_on,,0,0,10,,,,,,,,,,,,,,,,15,,73,0
30959,note_on,,0,0,10,,,,,,,,,,,,,,,,15,,55,0
30959,note_on,,0,0,10,,,,,,,,,,,,,,,,15,,64,0
30959,note_on,,0,0,10,,,,,,,,,,,,,,,,15,,67,0
30960,note_on,,1,0,9,,,,,,,,,,,,,,,,13,,53,48
30960,note_on,,1,0,6,,,,,,,,,,,,,,,,5,,69,64
30960,note_on,,0,0,10,,,,,,,,,,,,,,,,15,,69,48
30960,note_on,,0,0,10,,,,,,,,,,,,,,,,15,,62,48
30960,note_on,,0,0,10,,,,,,,,,,,,,,,,15,,57,48
30960,note_on,,1,0,10,,,,,,,,,,,,,,,,15,,53,48
30974,note_on,,14,0,6,,,,,,,,,,,,,,,,5,,69,0
30975,note_on,,1,0,6,,,,,,,,,,,,,,,,5,,70,64
30989,note_on,,14,0,6,,,,,,,,,,,,,,,,5,,70,0
30990,note_on,,1,0,6,,,,,,,,,,,,,,,,5,,69,64
31004,note_on,,14,0,6,,,,,,,,,,,,,,,,5,,69,0
31005,note_on,,1,0,6,,,,,,,,,,,,,,,,5,,70,64
31019,note_on,,14,0,6,,,,,,,,,,,,,,,,5,,70,0
31020,note_on,,1,0,6,,,,,,,,,,,,,,,,5,,67,64
31034,note_on,,14,0,6,,,,,,,,,,,,,,,,5,,67,0
31035,note_on,,1,0,6,,,,,,,,,,,,,,,,5,,69,64
31049,note_on,,14,0,6,,,,,,,,,,,,,,,,5,,69,0
31050,note_on,,1,0,6,,,,,,,,,,,,,,,,5,,67,64
31079,note_on,,0,0,10,,,,,,,,,,,,,,,,15,,62,0
31079,note_on,,0,0,10,,,,,,,,,,,,,,,,15,,57,0
31079,note_on,,119,0,9,,,,,,,,,,,,,,,,13,,53,0
31079,note_on,,0,0,10,,,,,,,,,,,,,,,,15,,69,0
31079,note_on,,29,0,6,,,,,,,,,,,,,,,,5,,67,0
31079,note_on,,119,0,10,,,,,,,,,,,,,,,,15,,53,0
31080,note_on,,1,0,6,,,,,,,,,,,,,,,,5,,69,64
31139,note_on,,59,0,6,,,,,,,,,,,,,,,,5,,69,0
31140,note_on,,1,0,6,,,,,,,,,,,,,,,,5,,72,64
31199,note_on,,59,0,6,,,,,,,,,,,,,,,,5,,72,0
31200,note_on,,1,0,6,,,,,,,,,,,,,,,,5,,71,64
31200,note_on,,121,0,9,,,,,,,,,,,,,,,,13,,55,48
31200,note_on,,0,0,10,,,,,,,,,,,,,,,,15,,67,48
31200,note_on,,121,0,10,,,,,,,,,,,,,,,,15,,55,48
31200,note_on,,0,0,10,,,,,,,,,,,,,,,,15,,59,48
31200,note_on,,0,0,10,,,,,,,,,,,,,,,,15,,62,48
31259,note_on,,59,0,6,,,,,,,,,,,,,,,,5,,71,0
31260,note_on,,1,0,6,,,,,,,,,,,,,,,,5,,74,64
31319,note_on,,0,0,10,,,,,,,,,,,,,,,,15,,67,0
31319,note_on,,0,0,10,,,,,,,,,,,,,,,,15,,62,0
31319,note_on,,0,0,10,,,,,,,,,,,,,,,,15,,59,0
31319,note_on,,119,0,10,,,,,,,,,,,,,,,,15,,55,0
31319,note_on,,59,0,6,,,,,,,,,,,,,,,,5,,74,0
31319,note_on,,119,0,9,,,,,,,,,,,,,,,,13,,55,0
31320,note_on,,0,0,10,,,,,,,,,,,,,,,,15,,64,48
31320,note_on,,1,0,10,,,,,,,,,,,,,,,,15,,57,48
31320,note_on,,0,0,10,,,,,,,,,,,,,,,,15,,61,48
31320,note_on,,1,0,6,,,,,,,,,,,,,,,,5,,73,64
31320,note_on,,1,0,9,,,,,,,,,,,,,,,,13,,57,48
31334,note_on,,14,0,6,,,,,,,,,,,,,,,,5,,73,0
31335,note_on,,1,0,6,,,,,,,,,,,,,,,,5,,74,64
31349,note_on,,14,0,6,,,,,,,,,,,,,,,,5,,74,0
31350,note_on,,1,0,6,,,,,,,,,,,,,,,,5,,73,64
31364,note_on,,14,0,6,,,,,,,,,,,,,,,,5,,73,0
31365,note_on,,1,0,6,,,,,,,,,,,,,,,,5,,74,64
31379,note_on,,14,0,6,,,,,,,,,,,,,,,,5,,74,0
31380,note_on,,1,0,6,,,,,,,,,,,,,,,,5,,72,64
31394,note_on,,14,0,6,,,,,,,,,,,,,,,,5,,72,0
31395,note_on,,1,0,6,,,,,,,,,,,,,,,,5,,73,64
31409,note_on,,14,0,6,,,,,,,,,,,,,,,,5,,73,0
31410,note_on,,1,0,6,,,,,,,,,,,,,,,,5,,71,64
31439,note_on,,29,0,6,,,,,,,,,,,,,,,,5,,71,0
31439,note_on,,119,0,9,,,,,,,,,,,,,,,,13,,57,0
31439,note_on,,0,0,10,,,,,,,,,,,,,,,,15,,61,0
31439,note_on,,0,0,10,,,,,,,,,,,,,,,,15,,64,0
31439,note_on,,119,0,10,,,,,,,,,,,,,,,,15,,57,0
31440,note_on,,1,0,6,,,,,,,,,,,,,,,,5,,72,64
31499,note_on,,59,0,6,,,,,,,,,,,,,,,,5,,72,0
31500,note_on,,1,0,6,,,,,,,,,,,,,,,,5,,76,64
31559,note_on,,59,0,6,,,,,,,,,,,,,,,,5,,76,0
31560,note_on,,0,0,10,,,,,,,,,,,,,,,,15,,74,48
31560,note_on,,0,0,10,,,,,,,,,,,,,,,,15,,67,48
31560,note_on,,0,0,10,,,,,,,,,,,,,,,,15,,62,48
31560,note_on,,121,0,9,,,,,,,,,,,,,,,,13,,59,48
31560,note_on,,121,0,10,,,,,,,,,,,,,,,,15,,59,48
31560,note_on,,1,0,6,,,,,,,,,,,,,,,,5,,74,64
31619,note_on,,59,0,6,,,,,,,,,,,,,,,,5,,74,0
31620,note_on,,1,0,6,,,,,,,,,,,,,,,,5,,77,64
31679,note_on,,119,0,10,,,,,,,,,,,,,,,,15,,59,0
31679,note_on,,0,0,10,,,,,,,,,,,,,,,,15,,74,0
31679,note_on,,0,0,10,,,,,,,,,,,,,,,,15,,67,0
31679,note_on,,59,0,6,,,,,,,,,,,,,,,,5,,77,0
31679,note_on,,119,0,9,,,,,,,,,,,,,,,,13,,59,0
31679,note_on,,0,0,10,,,,,,,,,,,,,,,,15,,62,0
31680,note_on,,1,0,9,,,,,,,,,,,,,,,,13,,61,48
31680,note_on,,0,0,10,,,,,,,,,,,,,,,,15,,63,48
31680,note_on,,0,0,10,,,,,,,,,,,,,,,,15,,69,48
31680,note_on,,1,0,10,,,,,,,,,,,,,,,,15,,61,48
31680,note_on,,1,0,6,,,,,,,,,,,,,,,,5,,76,64
31694,note_on,,14,0,6,,,,,,,,,,,,,,,,5,,76,0
31695,note_on,,1,0,6,,,,,,,,,,,,,,,,5,,77,64
31709,note_on,,14,0,6,,,,,,,,,,,,,,,,5,,77,0
31710,note_on,,1,0,6,,,,,,,,,,,,,,,,5,,74,64
31724,note_on,,14,0,6,,,,,,,,,,,,,,,,5,,74,0
31725,note_on,,1,0,6,,,,,,,,,,,,,,,,5,,76,64
31739,note_on,,14,0,6,,,,,,,,,,,,,,,,5,,76,0
31740,note_on,,1,0,6,,,,,,,,,,,,,,,,5,,79,64
31799,note_on,,119,0,10,,,,,,,,,,,,,,,,15,,61,0
31799,note_on,,0,0,10,,,,,,,,,,,,,,,,15,,63,0
31799,note_on,,0,0,10,,,,,,,,,,,,,,,,15,,69,0
31799,note_on,,119,0,9,,,,,,,,,,,,,,,,13,,61,0
31799,note_on,,59,0,6,,,,,,,,,,,,,,,,5,,79,0
31800,note_on,,1,0,6,,,,,,,,,,,,,,,,5,,77,64
31889,note_on,,89,0,6,,,,,,,,,,,,,,,,5,,77,0
31890,note_on,,1,0,6,,,,,,,,,,,,,,,,5,,76,64
31919,note_on,,29,0,6,,,,,,,,,,,,,,,,5,,76,0
31920,note_on,,1,0,6,,,,,,,,,,,,,,,,5,,77,64
31920,note_on,,121,0,9,,,,,,,,,,,,,,,,13,,62,48
31920,note_on,,121,0,10,,,,,,,,,,,,,,,,15,,62,48
31920,note_on,,0,0,10,,,,,,,,,,,,,,,,15,,74,48
31920,note_on,,0,0,10,,,,,,,,,,,,,,,,15,,69,48
31920,note_on,,0,0,10,,,,,,,,,,,,,,,,15,,65,48
31979,note_on,,59,0,6,,,,,,,,,,,,,,,,5,,77,0
31980,note_on,,1,0,6,,,,,,,,,,,,,,,,5,,74,64
32039,note_on,,0,0,10,,,,,,,,,,,,,,,,15,,65,0
32039,note_on,,59,0,6,,,,,,,,,,,,,,,,5,,74,0
32039,note_on,,119,0,10,,,,,,,,,,,,,,,,15,,69,0
32039,note_on,,119,0,9,,,,,,,,,,,,,,,,13,,62,0
32040,note_on,,1,0,10,,,,,,,,,,,,,,,,15,,55,48
32040,note_on,,1,0,9,,,,,,,,,,,,,,,,13,,55,48
32040,note_on,,0,0,10,,,,,,,,,,,,,,,,15,,71,48
32040,note_on,,1,0,6,,,,,,,,,,,,,,,,5,,76,64
32040,note_on,,0,0,10,,,,,,,,,,,,,,,,15,,67,48
32099,note_on,,59,0,6,,,,,,,,,,,,,,,,5,,76,0
32100,note_on,,1,0,6,,,,,,,,,,,,,,,,5,,71,64
32159,note_on,,0,0,10,,,,,,,,,,,,,,,,15,,74,0
32159,note_on,,0,0,10,,,,,,,,,,,,,,,,15,,55,0
32159,note_on,,119,0,9,,,,,,,,,,,,,,,,13,,55,0
32159,note_on,,0,0,10,,,,,,,,,,,,,,,,15,,71,0
32159,note_on,,59,0,6,,,,,,,,,,,,,,,,5,,71,0
32159,note_on,,0,0,10,,,,,,,,,,,,,,,,15,,67,0
32159,note_on,,119,0,10,,,,,,,,,,,,,,,,15,,62,0
32160,note_on,,1,0,10,,,,,,,,,,,,,,,,15,,69,48
32160,note_on,,0,0,10,,,,,,,,,,,,,,,,15,,57,48
32160,note_on,,0,0,10,,,,,,,,,,,,,,,,15,,61,48
32160,note_on,,0,0,10,,,,,,,,,,,,,,,,15,,63,48
32160,note_on,,1,0,9,,,,,,,,,,,,,,,,13,,57,48
32160,note_on,,1,0,6,,,,,,,,,,,,,,,,5,,73,64
32174,note_on,,14,0,6,,,,,,,,,,,,,,,,5,,73,0
32175,note_on,,1,0,6,,,,,,,,,,,,,,,,5,,74,64
32189,note_on,,14,0,6,,,,,,,,,,,,,,,,5,,74,0
32190,note_on,,1,0,6,,,,,,,,,,,,,,,,5,,73,64
32204,note_on,,14,0,6,,,,,,,,,,,,,,,,5,,73,0
32205,note_on,,1,0,6,,,,,,,,,,,,,,,,5,,74,64
32219,note_on,,14,0,6,,,,,,,,,,,,,,,,5,,74,0
32220,note_on,,1,0,6,,,,,,,,,,,,,,,,5,,73,64
32234,note_on,,14,0,6,,,,,,,,,,,,,,,,5,,73,0
32235,note_on,,1,0,6,,,,,,,,,,,,,,,,5,,74,64
32249,note_on,,14,0,6,,,,,,,,,,,,,,,,5,,74,0
32250,note_on,,1,0,6,,,,,,,,,,,,,,,,5,,73,64
32264,note_on,,14,0,6,,,,,,,,,,,,,,,,5,,73,0
32265,note_on,,1,0,6,,,,,,,,,,,,,,,,5,,74,64
32279,note_on,,14,0,6,,,,,,,,,,,,,,,,5,,74,0
32279,note_on,,119,0,9,,,,,,,,,,,,,,,,13,,57,0
32279,note_on,,119,0,10,,,,,,,,,,,,,,,,15,,69,0
32279,note_on,,0,0,10,,,,,,,,,,,,,,,,15,,57,0
32279,note_on,,0,0,10,,,,,,,,,,,,,,,,15,,63,0
32279,note_on,,0,0,10,,,,,,,,,,,,,,,,15,,61,0
32280,note_on,,1,0,9,,,,,,,,,,,,,,,,13,,45,48
32280,note_on,,1,0,6,,,,,,,,,,,,,,,,5,,73,64
32280,note_on,,1,0,10,,,,,,,,,,,,,,,,15,,45,48
32280,note_on,,0,0,10,,,,,,,,,,,,,,,,15,,57,48
32280,note_on,,0,0,10,,,,,,,,,,,,,,,,15,,69,48
32280,note_on,,0,0,10,,,,,,,,,,,,,,,,15,,73,48
32280,note_on,,0,0,10,,,,,,,,,,,,,,,,15,,75,48
32294,note_on,,14,0,6,,,,,,,,,,,,,,,,5,,73,0
32295,note_on,,1,0,6,,,,,,,,,,,,,,,,5,,74,64
32309,note_on,,14,0,6,,,,,,,,,,,,,,,,5,,74,0
32310,note_on,,1,0,6,,,,,,,,,,,,,,,,5,,73,64
32324,note_on,,14,0,6,,,,,,,,,,,,,,,,5,,73,0
32325,note_on,,1,0,6,,,,,,,,,,,,,,,,5,,74,64
32339,note_on,,14,0,6,,,,,,,,,,,,,,,,5,,74,0
32340,note_on,,1,0,6,,,,,,,,,,,,,,,,5,,73,64
32354,note_on,,14,0,6,,,,,,,,,,,,,,,,5,,73,0
32355,note_on,,1,0,6,,,,,,,,,,,,,,,,5,,74,64
32369,note_on,,14,0,6,,,,,,,,,,,,,,,,5,,74,0
32370,note_on,,1,0,6,,,,,,,,,,,,,,,,5,,71,64
32384,note_on,,14,0,6,,,,,,,,,,,,,,,,5,,71,0
32385,note_on,,1,0,6,,,,,,,,,,,,,,,,5,,73,64
32399,note_on,,0,0,10,,,,,,,,,,,,,,,,15,,57,0
32399,note_on,,0,0,10,,,,,,,,,,,,,,,,15,,75,0
32399,note_on,,0,0,10,,,,,,,,,,,,,,,,15,,73,0
32399,note_on,,0,0,10,,,,,,,,,,,,,,,,15,,69,0
32399,note_on,,119,0,10,,,,,,,,,,,,,,,,15,,45,0
32399,note_on,,119,0,9,,,,,,,,,,,,,,,,13,,45,0
32399,note_on,,14,0,6,,,,,,,,,,,,,,,,5,,73,0
32400,note_on,,0,0,10,,,,,,,,,,,,,,,,15,,69,48
32400,note_on,,0,0,10,,,,,,,,,,,,,,,,15,,57,48
32400,note_on,,1,0,10,,,,,,,,,,,,,,,,15,,50,48
32400,note_on,,1,0,9,,,,,,,,,,,,,,,,13,,50,48
32400,note_on,,1,0,6,,,,,,,,,,,,,,,,5,,74,64
32400,note_on,,0,0,10,,,,,,,,,,,,,,,,15,,77,48
32400,note_on,,0,0,10,,,,,,,,,,,,,,,,15,,74,48
32519,note_on,,119,0,10,,,,,,,,,,,,,,,,15,,50,0
32519,note_on,,119,0,9,,,,,,,,,,,,,,,,13,,50,0
32519,note_on,,0,0,10,,,,,,,,,,,,,,,,15,,69,0
32520,note_on,,1,0,9,,,,,,,,,,,,,,,,13,,52,72
32520,note_on,,6481,0,5,,,,,,,,,,,,,,,,2,,52,72
32520,note_on,,1,0,10,,,,,,,,,,,,,,,,15,,52,72
32520,note_on,,0,0,10,,,,,,,,,,,,,,,,15,,67,72
32610,note_on,,2251,0,7,,,,,,,,,,,,,,,,10,,81,72
32610,note_on,,2251,0,8,,,,,,,,,,,,,,,,11,,81,72
32639,note_on,,29,0,7,,,,,,,,,,,,,,,,10,,81,0
32639,note_on,,29,0,8,,,,,,,,,,,,,,,,11,,81,0
32639,note_on,,119,0,10,,,,,,,,,,,,,,,,15,,57,0
32639,note_on,,0,0,10,,,,,,,,,,,,,,,,15,,77,0
32639,note_on,,0,0,10,,,,,,,,,,,,,,,,15,,74,0
32639,note_on,,0,0,10,,,,,,,,,,,,,,,,15,,52,0
32639,note_on,,0,0,10,,,,,,,,,,,,,,,,15,,67,0
32639,note_on,,119,0,5,,,,,,,,,,,,,,,,2,,52,0
32639,note_on,,119,0,9,,,,,,,,,,,,,,,,13,,52,0
32640,note_on,,1,0,10,,,,,,,,,,,,,,,,15,,53,72
32640,note_on,,0,0,10,,,,,,,,,,,,,,,,15,,57,72
32640,note_on,,0,0,10,,,,,,,,,,,,,,,,15,,74,72
32640,note_on,,0,0,10,,,,,,,,,,,,,,,,15,,69,72
32640,note_on,,0,0,10,,,,,,,,,,,,,,,,15,,65,72
32640,note_on,,1,0,5,,,,,,,,,,,,,,,,2,,53,72
32640,note_on,,1,0,8,,,,,,,,,,,,,,,,11,,81,72
32640,note_on,,1,0,9,,,,,,,,,,,,,,,,13,,53,72
32640,note_on,,1,0,7,,,,,,,,,,,,,,,,10,,81,72
32654,note_on,,14,0,7,,,,,,,,,,,,,,,,10,,81,0
32654,note_on,,14,0,8,,,,,,,,,,,,,,,,11,,81,0
32655,note_on,,1,0,7,,,,,,,,,,,,,,,,10,,82,72
32655,note_on,,1,0,8,,,,,,,,,,,,,,,,11,,82,72
32669,note_on,,14,0,8,,,,,,,,,,,,,,,,11,,82,0
32669,note_on,,14,0,7,,,,,,,,,,,,,,,,10,,82,0
32670,note_on,,1,0,8,,,,,,,,,,,,,,,,11,,81,72
32670,note_on,,1,0,7,,,,,,,,,,,,,,,,10,,81,72
32684,note_on,,14,0,7,,,,,,,,,,,,,,,,10,,81,0
32684,note_on,,14,0,8,,,,,,,,,,,,,,,,11,,81,0
32685,note_on,,1,0,8,,,,,,,,,,,,,,,,11,,82,72
32685,note_on,,1,0,7,,,,,,,,,,,,,,,,10,,82,72
32699,note_on,,14,0,8,,,,,,,,,,,,,,,,11,,82,0
32699,note_on,,14,0,7,,,,,,,,,,,,,,,,10,,82,0
32700,note_on,,1,0,8,,,,,,,,,,,,,,,,11,,81,72
32700,note_on,,1,0,7,,,,,,,,,,,,,,,,10,,81,72
32714,note_on,,14,0,8,,,,,,,,,,,,,,,,11,,81,0
32714,note_on,,14,0,7,,,,,,,,,,,,,,,,10,,81,0
32715,note_on,,1,0,7,,,,,,,,,,,,,,,,10,,82,72
32715,note_on,,1,0,8,,,,,,,,,,,,,,,,11,,82,72
32729,note_on,,14,0,7,,,,,,,,,,,,,,,,10,,82,0
32729,note_on,,14,0,8,,,,,,,,,,,,,,,,11,,82,0
32730,note_on,,1,0,7,,,,,,,,,,,,,,,,10,,79,72
32730,note_on,,1,0,8,,,,,,,,,,,,,,,,11,,79,72
32744,note_on,,14,0,7,,,,,,,,,,,,,,,,10,,79,0
32744,note_on,,14,0,8,,,,,,,,,,,,,,,,11,,79,0
32745,note_on,,1,0,7,,,,,,,,,,,,,,,,10,,81,72
32745,note_on,,1,0,8,,,,,,,,,,,,,,,,11,,81,72
32759,note_on,,359,0,6,,,,,,,,,,,,,,,,5,,74,0
32759,note_on,,0,0,10,,,,,,,,,,,,,,,,15,,65,0
32759,note_on,,0,0,10,,,,,,,,,,,,,,,,15,,74,0
32759,note_on,,0,0,10,,,,,,,,,,,,,,,,15,,69,0
32759,note_on,,0,0,10,,,,,,,,,,,,,,,,15,,57,0
32759,note_on,,119,0,10,,,,,,,,,,,,,,,,15,,53,0
32759,note_on,,119,0,5,,,,,,,,,,,,,,,,2,,53,0
32759,note_on,,14,0,7,,,,,,,,,,,,,,,,10,,81,0
32759,note_on,,14,0,8,,,,,,,,,,,,,,,,11,,81,0
32759,note_on,,119,0,9,,,,,,,,,,,,,,,,13,,53,0
32760,note_on,,1,0,7,,,,,,,,,,,,,,,,10,,82,72
32760,note_on,,0,0,10,,,,,,,,,,,,,,,,15,,70,72
32760,note_on,,1,0,10,,,,,,,,,,,,,,,,15,,55,72
32760,note_on,,1,0,8,,,,,,,,,,,,,,,,11,,82,72
32760,note_on,,1,0,9,,,,,,,,,,,,,,,,13,,55,72
32760,note_on,,1,0,5,,,,,,,,,,,,,,,,2,,55,72
32760,note_on,,0,0,10,,,,,,,,,,,,,,,,15,,67,72
32760,note_on,,0,0,10,,,,,,,,,,,,,,,,15,,62,72
32760,note_on,,0,0,10,,,,,,,,,,,,,,,,15,,58,72
32819,note_on,,59,0,7,,,,,,,,,,,,,,,,10,,82,0
32819,note_on,,59,0,8,,,,,,,,,,,,,,,,11,,82,0
32820,note_on,,1,0,8,,,,,,,,,,,,,,,,11,,86,72
32820,note_on,,1,0,7,,,,,,,,,,,,,,,,10,,86,72
32879,note_on,,59,0,8,,,,,,,,,,,,,,,,11,,86,0
32879,note_on,,119,0,5,,,,,,,,,,,,,,,,2,,55,0
32879,note_on,,0,0,10,,,,,,,,,,,,,,,,15,,70,0
32879,note_on,,0,0,10,,,,,,,,,,,,,,,,15,,62,0
32879,note_on,,0,0,10,,,,,,,,,,,,,,,,15,,58,0
32879,note_on,,59,0,7,,,,,,,,,,,,,,,,10,,86,0
32879,note_on,,119,0,9,,,,,,,,,,,,,,,,13,,55,0
32879,note_on,,0,0,10,,,,,,,,,,,,,,,,15,,67,0
32879,note_on,,119,0,10,,,,,,,,,,,,,,,,15,,55,0
32880,note_on,,1,0,10,,,,,,,,,,,,,,,,15,,58,72
32880,note_on,,0,0,10,,,,,,,,,,,,,,,,15,,67,72
32880,note_on,,0,0,10,,,,,,,,,,,,,,,,15,,62,72
32880,note_on,,1,0,5,,,,,,,,,,,,,,,,2,,58,72
32880,note_on,,1,0,7,,,,,,,,,,,,,,,,10,,79,72
32880,note_on,,1,0,9,,,,,,,,,,,,,,,,13,,58,72
32880,note_on,,1,0,8,,,,,,,,,,,,,,,,11,,79,72
32939,note_on,,59,0,8,,,,,,,,,,,,,,,,11,,79,0
32939,note_on,,59,0,7,,,,,,,,,,,,,,,,10,,79,0
32940,note_on,,1,0,8,,,,,,,,,,,,,,,,11,,82,72
32940,note_on,,1,0,7,,,,,,,,,,,,,,,,10,,82,72
32999,note_on,,59,0,8,,,,,,,,,,,,,,,,11,,82,0
32999,note_on,,59,0,7,,,,,,,,,,,,,,,,10,,82,0
33000,note_on,,1,0,8,,,,,,,,,,,,,,,,11,,76,72
33000,note_on,,1,0,7,,,,,,,,,,,,,,,,10,,76,72
33059,note_on,,0,0,10,,,,,,,,,,,,,,,,15,,67,0
33059,note_on,,179,0,9,,,,,,,,,,,,,,,,13,,58,0
33059,note_on,,179,0,5,,,,,,,,,,,,,,,,2,,58,0
33059,note_on,,59,0,8,,,,,,,,,,,,,,,,11,,76,0
33059,note_on,,179,0,10,,,,,,,,,,,,,,,,15,,58,0
33059,note_on,,59,0,7,,,,,,,,,,,,,,,,10,,76,0
33059,note_on,,0,0,10,,,,,,,,,,,,,,,,15,,62,0
33060,note_on,,1,0,10,,,,,,,,,,,,,,,,15,,58,72
33060,note_on,,1,0,7,,,,,,,,,,,,,,,,10,,79,72
33060,note_on,,1,0,9,,,,,,,,,,,,,,,,13,,58,72
33060,note_on,,1,0,5,,,,,,,,,,,,,,,,2,,58,72
33060,note_on,,0,0,10,,,,,,,,,,,,,,,,15,,74,72
33060,note_on,,0,0,10,,,,,,,,,,,,,,,,15,,67,72
33060,note_on,,1,0,8,,,,,,,,,,,,,,,,11,,79,72
33060,note_on,,0,0,10,,,,,,,,,,,,,,,,15,,62,72
33119,note_on,,0,0,10,,,,,,,,,,,,,,,,15,,74,0
33119,note_on,,59,0,7,,,,,,,,,,,,,,,,10,,79,0
33119,note_on,,59,0,10,,,,,,,,,,,,,,,,15,,58,0
33119,note_on,,0,0,10,,,,,,,,,,,,,,,,15,,62,0
33119,note_on,,0,0,10,,,,,,,,,,,,,,,,15,,67,0
33119,note_on,,59,0,5,,,,,,,,,,,,,,,,2,,58,0
33119,note_on,,59,0,8,,,,,,,,,,,,,,,,11,,79,0
33119,note_on,,59,0,9,,,,,,,,,,,,,,,,13,,58,0
33120,note_on,,1,0,7,,,,,,,,,,,,,,,,10,,73,72
33120,note_on,,1,0,10,,,,,,,,,,,,,,,,15,,57,72
33120,note_on,,0,0,10,,,,,,,,,,,,,,,,15,,73,72
33120,note_on,,0,0,10,,,,,,,,,,,,,,,,15,,69,72
33120,note_on,,0,0,10,,,,,,,,,,,,,,,,15,,64,72
33120,note_on,,1,0,9,,,,,,,,,,,,,,,,13,,57,72
33120,note_on,,1,0,8,,,,,,,,,,,,,,,,11,,73,72
33120,note_on,,1,0,5,,,,,,,,,,,,,,,,2,,57,72
33179,note_on,,59,0,8,,,,,,,,,,,,,,,,11,,73,0
33179,note_on,,59,0,7,,,,,,,,,,,,,,,,10,,73,0
33180,note_on,,1,0,7,,,,,,,,,,,,,,,,10,,76,72
33180,note_on,,1,0,8,,,,,,,,,,,,,,,,11,,76,72
33239,note_on,,59,0,8,,,,,,,,,,,,,,,,11,,76,0
33239,note_on,,59,0,7,,,,,,,,,,,,,,,,10,,76,0
33240,note_on,,1,0,7,,,,,,,,,,,,,,,,10,,69,72
33240,note_on,,1,0,8,,,,,,,,,,,,,,,,11,,69,72
33299,note_on,,59,0,7,,,,,,,,,,,,,,,,10,,69,0
33299,note_on,,59,0,8,,,,,,,,,,,,,,,,11,,69,0
33299,note_on,,179,0,10,,,,,,,,,,,,,,,,15,,57,0
33299,note_on,,0,0,10,,,,,,,,,,,,,,,,15,,73,0
33299,note_on,,0,0,10,,,,,,,,,,,,,,,,15,,69,0
33299,note_on,,0,0,10,,,,,,,,,,,,,,,,15,,64,0
33299,note_on,,179,0,9,,,,,,,,,,,,,,,,13,,57,0
33299,note_on,,179,0,5,,,,,,,,,,,,,,,,2,,57,0
33300,note_on,,1,0,8,,,,,,,,,,,,,,,,11,,79,72
33300,note_on,,1,0,10,,,,,,,,,,,,,,,,15,,61,72
33300,note_on,,0,0,10,,,,,,,,,,,,,,,,15,,81,72
33300,note_on,,0,0,10,,,,,,,,,,,,,,,,15,,76,72
33300,note_on,,0,0,10,,,,,,,,,,,,,,,,15,,69,72
33300,note_on,,1,0,7,,,,,,,,,,,,,,,,10,,79,72
33300,note_on,,1,0,5,,,,,,,,,,,,,,,,2,,61,72
33300,note_on,,1,0,9,,,,,,,,,,,,,,,,13,,61,72
33359,note_on,,59,0,7,,,,,,,,,,,,,,,,10,,79,0
33359,note_on,,59,0,8,,,,,,,,,,,,,,,,11,,79,0
33359,note_on,,59,0,10,,,,,,,,,,,,,,,,15,,61,0
33359,note_on,,0,0,10,,,,,,,,,,,,,,,,15,,81,0
33359,note_on,,0,0,10,,,,,,,,,,,,,,,,15,,76,0
33359,note_on,,0,0,10,,,,,,,,,,,,,,,,15,,69,0
33359,note_on,,59,0,5,,,,,,,,,,,,,,,,2,,61,0
33359,note_on,,59,0,9,,,,,,,,,,,,,,,,13,,61,0
33360,note_on,,1,0,5,,,,,,,,,,,,,,,,2,,62,72
33360,note_on,,1,0,8,,,,,,,,,,,,,,,,11,,77,72
33360,note_on,,1,0,10,,,,,,,,,,,,,,,,15,,62,72
33360,note_on,,0,0,10,,,,,,,,,,,,,,,,15,,77,72
33360,note_on,,0,0,10,,,,,,,,,,,,,,,,15,,74,72
33360,note_on,,1,0,9,,,,,,,,,,,,,,,,13,,62,72
33360,note_on,,0,0,10,,,,,,,,,,,,,,,,15,,69,72
33360,note_on,,1,0,7,,,,,,,,,,,,,,,,10,,77,72
33479,note_on,,0,0,10,,,,,,,,,,,,,,,,15,,74,0
33479,note_on,,119,0,8,,,,,,,,,,,,,,,,11,,77,0
33479,note_on,,0,0,10,,,,,,,,,,,,,,,,15,,69,0
33479,note_on,,119,0,10,,,,,,,,,,,,,,,,15,,62,0
33479,note_on,,119,0,5,,,,,,,,,,,,,,,,2,,62,0
33479,note_on,,119,0,9,,,,,,,,,,,,,,,,13,,62,0
33479,note_on,,119,0,7,,,,,,,,,,,,,,,,10,,77,0
33479,note_on,,0,0,10,,,,,,,,,,,,,,,,15,,77,0
33480,note_on,,0,0,10,,,,,,,,,,,,,,,,15,,70,72
33480,note_on,,1,0,5,,,,,,,,,,,,,,,,2,,55,72
33480,note_on,,1,0,7,,,,,,,,,,,,,,,,10,,76,72
33480,note_on,,0,0,10,,,,,,,,,,,,,,,,15,,76,72
33480,note_on,,0,0,10,,,,,,,,,,,,,,,,15,,67,72
33480,note_on,,1,0,9,,,,,,,,,,,,,,,,13,,55,72
33480,note_on,,1,0,10,,,,,,,,,,,,,,,,15,,55,72
33480,note_on,,1,0,8,,,,,,,,,,,,,,,,11,,76,72
33539,note_on,,59,0,7,,,,,,,,,,,,,,,,10,,76,0
33539,note_on,,59,0,8,,,,,,,,,,,,,,,,11,,76,0
33540,note_on,,1,0,7,,,,,,,,,,,,,,,,10,,74,72
33540,note_on,,1,0,8,,,,,,,,,,,,,,,,11,,74,72
33599,note_on,,119,0,9,,,,,,,,,,,,,,,,13,,55,0
33599,note_on,,0,0,10,,,,,,,,,,,,,,,,15,,70,0
33599,note_on,,59,0,7,,,,,,,,,,,,,,,,10,,74,0
33599,note_on,,0,0,10,,,,,,,,,,,,,,,,15,,76,0
33599,note_on,,119,0,10,,,,,,,,,,,,,,,,15,,55,0
33599,note_on,,119,0,5,,,,,,,,,,,,,,,,2,,55,0
33599,note_on,,59,0,8,,,,,,,,,,,,,,,,11,,74,0
33599,note_on,,0,0,10,,,,,,,,,,,,,,,,15,,67,0
33600,note_on,,1,0,8,,,,,,,,,,,,,,,,11,,73,72
33600,note_on,,1,0,5,,,,,,,,,,,,,,,,2,,57,72
33600,note_on,,1,0,10,,,,,,,,,,,,,,,,15,,57,72
33600,note_on,,0,0,10,,,,,,,,,,,,,,,,15,,73,72
33600,note_on,,0,0,10,,,,,,,,,,,,,,,,15,,69,72
33600,note_on,,0,0,10,,,,,,,,,,,,,,,,15,,64,72
33600,note_on,,1,0,9,,,,,,,,,,,,,,,,13,,57,72
33600,note_on,,1,0,7,,,,,,,,,,,,,,,,10,,73,72
33614,note_on,,14,0,7,,,,,,,,,,,,,,,,10,,73,0
33614,note_on,,14,0,8,,,,,,,,,,,,,,,,11,,73,0
33615,note_on,,1,0,7,,,,,,,,,,,,,,,,10,,74,72
33615,note_on,,1,0,8,,,,,,,,,,,,,,,,11,,74,72
33629,note_on,,14,0,8,,,,,,,,,,,,,,,,11,,74,0
33629,note_on,,14,0,7,,,,,,,,,,,,,,,,10,,74,0
33630,note_on,,1,0,8,,,,,,,,,,,,,,,,11,,73,72
33630,note_on,,1,0,7,,,,,,,,,,,,,,,,10,,73,72
33644,note_on,,14,0,7,,,,,,,,,,,,,,,,10,,73,0
33644,note_on,,14,0,8,,,,,,,,,,,,,,,,11,,73,0
33645,note_on,,1,0,8,,,,,,,,,,,,,,,,11,,74,72
33645,note_on,,1,0,7,,,,,,,,,,,,,,,,10,,74,72
33659,note_on,,14,0,7,,,,,,,,,,,,,,,,10,,74,0
33659,note_on,,14,0,8,,,,,,,,,,,,,,,,11,,74,0
33660,note_on,,1,0,7,,,,,,,,,,,,,,,,10,,73,72
33660,note_on,,1,0,8,,,,,,,,,,,,,,,,11,,73,72
33674,note_on,,14,0,8,,,,,,,,,,,,,,,,11,,73,0
33674,note_on,,14,0,7,,,,,,,,,,,,,,,,10,,73,0
33675,note_on,,1,0,8,,,,,,,,,,,,,,,,11,,74,72
33675,note_on,,1,0,7,,,,,,,,,,,,,,,,10,,74,72
33689,note_on,,14,0,7,,,,,,,,,,,,,,,,10,,74,0
33689,note_on,,14,0,8,,,,,,,,,,,,,,,,11,,74,0
33690,note_on,,1,0,7,,,,,,,,,,,,,,,,10,,73,72
33690,note_on,,1,0,8,,,,,,,,,,,,,,,,11,,73,72
33704,note_on,,14,0,7,,,,,,,,,,,,,,,,10,,73,0
33704,note_on,,14,0,8,,,,,,,,,,,,,,,,11,,73,0
33705,note_on,,1,0,7,,,,,,,,,,,,,,,,10,,74,72
33705,note_on,,1,0,8,,,,,,,,,,,,,,,,11,,74,72
33719,note_on,,14,0,8,,,,,,,,,,,,,,,,11,,74,0
33719,note_on,,0,0,10,,,,,,,,,,,,,,,,15,,73,0
33719,note_on,,119,0,9,,,,,,,,,,,,,,,,13,,57,0
33719,note_on,,0,0,10,,,,,,,,,,,,,,,,15,,69,0
33719,note_on,,119,0,5,,,,,,,,,,,,,,,,2,,57,0
33719,note_on,,119,0,10,,,,,,,,,,,,,,,,15,,57,0
33719,note_on,,14,0,7,,,,,,,,,,,,,,,,10,,74,0
33719,note_on,,0,0,10,,,,,,,,,,,,,,,,15,,64,0
33720,note_on,,1,0,7,,,,,,,,,,,,,,,,10,,73,72
33720,note_on,,1,0,5,,,,,,,,,,,,,,,,2,,45,72
33720,note_on,,1,0,8,,,,,,,,,,,,,,,,11,,73,72
33720,note_on,,1,0,9,,,,,,,,,,,,,,,,13,,45,72
33720,note_on,,1,0,10,,,,,,,,,,,,,,,,15,,45,72
33720,note_on,,0,0,10,,,,,,,,,,,,,,,,15,,57,72
33720,note_on,,0,0,10,,,,,,,,,,,,,,,,15,,76,72
33720,note_on,,0,0,10,,,,,,,,,,,,,,,,15,,73,72
33720,note_on,,0,0,10,,,,,,,,,,,,,,,,15,,69,72
33734,note_on,,14,0,8,,,,,,,,,,,,,,,,11,,73,0
33734,note_on,,14,0,7,,,,,,,,,,,,,,,,10,,73,0
33735,note_on,,1,0,8,,,,,,,,,,,,,,,,11,,74,72
33735,note_on,,1,0,7,,,,,,,,,,,,,,,,10,,74,72
33749,note_on,,14,0,8,,,,,,,,,,,,,,,,11,,74,0
33749,note_on,,14,0,7,,,,,,,,,,,,,,,,10,,74,0
33750,note_on,,1,0,8,,,,,,,,,,,,,,,,11,,70,72
33750,note_on,,1,0,7,,,,,,,,,,,,,,,,10,,70,72
33764,note_on,,14,0,8,,,,,,,,,,,,,,,,11,,70,0
33764,note_on,,14,0,7,,,,,,,,,,,,,,,,10,,70,0
33765,note_on,,1,0,7,,,,,,,,,,,,,,,,10,,73,72
33765,note_on,,1,0,8,,,,,,,,,,,,,,,,11,,73,72
33779,note_on,,14,0,7,,,,,,,,,,,,,,,,10,,73,0
33779,note_on,,14,0,8,,,,,,,,,,,,,,,,11,,73,0
33780,note_on,,1,0,7,,,,,,,,,,,,,,,,10,,74,72
33780,note_on,,1,0,8,,,,,,,,,,,,,,,,11,,74,72
33839,note_on,,119,0,9,,,,,,,,,,,,,,,,13,,45,0
33839,note_on,,119,0,5,,,,,,,,,,,,,,,,2,,45,0
33839,note_on,,59,0,7,,,,,,,,,,,,,,,,10,,74,0
33839,note_on,,59,0,8,,,,,,,,,,,,,,,,11,,74,0
33839,note_on,,119,0,10,,,,,,,,,,,,,,,,15,,45,0
33839,note_on,,0,0,10,,,,,,,,,,,,,,,,15,,57,0
33839,note_on,,0,0,10,,,,,,,,,,,,,,,,15,,76,0
33839,note_on,,0,0,10,,,,,,,,,,,,,,,,15,,73,0
33839,note_on,,0,0,10,,,,,,,,,,,,,,,,15,,69,0
33840,note_on,,1,0,8,,,,,,,,,,,,,,,,11,,74,72
33840,note_on,,1,0,7,,,,,,,,,,,,,,,,10,,74,72
33840,note_on,,1,0,5,,,,,,,,,,,,,,,,2,,50,72
33840,note_on,,0,0,10,,,,,,,,,,,,,,,,15,,74,72
33840,note_on,,0,0,10,,,,,,,,,,,,,,,,15,,69,72
33840,note_on,,0,0,10,,,,,,,,,,,,,,,,15,,57,72
33840,note_on,,1,0,9,,,,,,,,,,,,,,,,13,,50,72
33840,note_on,,0,0,10,,,,,,,,,,,,,,,,15,,77,72
33840,note_on,,1,0,10,,,,,,,,,,,,,,,,15,,50,72
33959,note_on,,119,0,7,,,,,,,,,,,,,,,,10,,74,0
33959,note_on,,119,0,10,,,,,,,,,,,,,,,,15,,50,0
33959,note_on,,0,0,10,,,,,,,,,,,,,,,,15,,77,0
33959,note_on,,0,0,10,,,,,,,,,,,,,,,,15,,69,0
33959,note_on,,0,0,10,,,,,,,,,,,,,,,,15,,57,0
33959,note_on,,0,0,10,,,,,,,,,,,,,,,,15,,74,0
33959,note_on,,119,0,9,,,,,,,,,,,,,,,,13,,50,0
33959,note_on,,119,0,8,,,,,,,,,,,,,,,,11,,74,0
33959,note_on,,119,0,5,,,,,,,,,,,,,,,,2,,50,0
33960,note_on,,1201,0,6,,,,,,,,,,,,,,,,5,,74,64
34079,note_on,,119,0,6,,,,,,,,,,,,,,,,5,,74,0
34080,note_on,,1,0,6,,,,,,,,,,,,,,,,5,,67,64
34080,note_on,,0,0,10,,,,,,,,,,,,,,,,15,,74,48
34080,note_on,,121,0,10,,,,,,,,,,,,,,,,15,,59,48
34080,note_on,,0,0,10,,,,,,,,,,,,,,,,15,,67,48
34080,note_on,,121,0,9,,,,,,,,,,,,,,,,13,,59,48
34199,note_on,,119,0,9,,,,,,,,,,,,,,,,13,,59,0
34199,note_on,,119,0,10,,,,,,,,,,,,,,,,15,,59,0
34199,note_on,,0,0,10,,,,,,,,,,,,,,,,15,,74,0
34199,note_on,,0,0,10,,,,,,,,,,,,,,,,15,,67,0
34199,note_on,,119,0,6,,,,,,,,,,,,,,,,5,,67,0
34200,note_on,,1,0,6,,,,,,,,,,,,,,,,5,,75,64
34200,note_on,,1,0,10,,,,,,,,,,,,,,,,15,,60,48
34200,note_on,,0,0,10,,,,,,,,,,,,,,,,15,,67,48
34200,note_on,,0,0,10,,,,,,,,,,,,,,,,15,,63,48
34200,note_on,,1,0,9,,,,,,,,,,,,,,,,13,,60,48
34319,note_on,,119,0,6,,,,,,,,,,,,,,,,5,,75,0
34319,note_on,,119,0,10,,,,,,,,,,,,,,,,15,,60,0
34319,note_on,,0,0,10,,,,,,,,,,,,,,,,15,,63,0
34319,note_on,,119,0,9,,,,,,,,,,,,,,,,13,,60,0
34320,note_on,,0,0,10,,,,,,,,,,,,,,,,15,,62,48
34320,note_on,,1,0,10,,,,,,,,,,,,,,,,15,,58,48
34320,note_on,,1,0,6,,,,,,,,,,,,,,,,5,,74,64
34320,note_on,,1,0,9,,,,,,,,,,,,,,,,13,,58,48
34439,note_on,,0,0,10,,,,,,,,,,,,,,,,15,,58,0
34439,note_on,,0,0,10,,,,,,,,,,,,,,,,15,,62,0
34439,note_on,,119,0,6,,,,,,,,,,,,,,,,5,,74,0
34439,note_on,,119,0,9,,,,,,,,,,,,,,,,13,,58,0
34439,note_on,,119,0,10,,,,,,,,,,,,,,,,15,,67,0
34440,note_on,,1,0,6,,,,,,,,,,,,,,,,5,,72,64
34440,note_on,,1,0,9,,,,,,,,,,,,,,,,13,,56,48
34440,note_on,,0,0,10,,,,,,,,,,,,,,,,15,,72,48
34440,note_on,,0,0,10,,,,,,,,,,,,,,,,15,,60,48
34440,note_on,,0,0,10,,,,,,,,,,,,,,,,15,,63,48
34440,note_on,,1,0,10,,,,,,,,,,,,,,,,15,,56,48
34559,note_on,,119,0,9,,,,,,,,,,,,,,,,13,,56,0
34559,note_on,,0,0,10,,,,,,,,,,,,,,,,15,,60,0
34559,note_on,,0,0,10,,,,,,,,,,,,,,,,15,,63,0
34559,note_on,,0,0,10,,,,,,,,,,,,,,,,15,,72,0
34559,note_on,,119,0,10,,,,,,,,,,,,,,,,15,,56,0
34559,note_on,,119,0,6,,,,,,,,,,,,,,,,5,,72,0
34560,note_on,,0,0,10,,,,,,,,,,,,,,,,15,,67,48
34560,note_on,,0,0,10,,,,,,,,,,,,,,,,15,,71,48
34560,note_on,,1,0,10,,,,,,,,,,,,,,,,15,,55,48
34560,note_on,,1,0,9,,,,,,,,,,,,,,,,13,,55,48
34560,note_on,,0,0,10,,,,,,,,,,,,,,,,15,,62,48
34560,note_on,,1,0,6,,,,,,,,,,,,,,,,5,,79,64
34679,note_on,,119,0,6,,,,,,,,,,,,,,,,5,,79,0
34679,note_on,,0,0,10,,,,,,,,,,,,,,,,15,,71,0
34679,note_on,,119,0,9,,,,,,,,,,,,,,,,13,,55,0
34679,note_on,,119,0,10,,,,,,,,,,,,,,,,15,,55,0
34679,note_on,,0,0,10,,,,,,,,,,,,,,,,15,,67,0
34679,note_on,,0,0,10,,,,,,,,,,,,,,,,15,,62,0
34680,note_on,,1,0,6,,,,,,,,,,,,,,,,5,,67,64
34770,note_on,,811,0,8,,,,,,,,,,,,,,,,11,,71,48
34770,note_on,,811,0,7,,,,,,,,,,,,,,,,10,,71,48
34799,note_on,,29,0,8,,,,,,,,,,,,,,,,11,,71,0
34799,note_on,,29,0,7,,,,,,,,,,,,,,,,10,,71,0
34799,note_on,,119,0,6,,,,,,,,,,,,,,,,5,,67,0
34800,note_on,,121,0,9,,,,,,,,,,,,,,,,13,,53,48
34800,note_on,,1,0,8,,,,,,,,,,,,,,,,11,,71,48
34800,note_on,,0,0,10,,,,,,,,,,,,,,,,15,,55,48
34800,note_on,,0,0,10,,,,,,,,,,,,,,,,15,,59,48
34800,note_on,,0,0,10,,,,,,,,,,,,,,,,15,,62,48
34800,note_on,,121,0,10,,,,,,,,,,,,,,,,15,,53,48
34800,note_on,,841,0,5,,,,,,,,,,,,,,,,2,,53,48
34800,note_on,,1,0,7,,,,,,,,,,,,,,,,10,,71,48
34814,note_on,,14,0,8,,,,,,,,,,,,,,,,11,,71,0
34814,note_on,,14,0,7,,,,,,,,,,,,,,,,10,,71,0
34815,note_on,,1,0,8,,,,,,,,,,,,,,,,11,,72,48
34815,note_on,,1,0,7,,,,,,,,,,,,,,,,10,,72,48
34829,note_on,,14,0,7,,,,,,,,,,,,,,,,10,,72,0
34829,note_on,,14,0,8,,,,,,,,,,,,,,,,11,,72,0
34830,note_on,,1,0,8,,,,,,,,,,,,,,,,11,,71,48
34830,note_on,,1,0,7,,,,,,,,,,,,,,,,10,,71,48
34844,note_on,,14,0,8,,,,,,,,,,,,,,,,11,,71,0
34844,note_on,,14,0,7,,,,,,,,,,,,,,,,10,,71,0
34845,note_on,,1,0,7,,,,,,,,,,,,,,,,10,,72,48
34845,note_on,,1,0,8,,,,,,,,,,,,,,,,11,,72,48
34859,note_on,,14,0,7,,,,,,,,,,,,,,,,10,,72,0
34859,note_on,,14,0,8,,,,,,,,,,,,,,,,11,,72,0
34860,note_on,,1,0,7,,,,,,,,,,,,,,,,10,,71,48
34860,note_on,,1,0,8,,,,,,,,,,,,,,,,11,,71,48
34874,note_on,,14,0,7,,,,,,,,,,,,,,,,10,,71,0
34874,note_on,,14,0,8,,,,,,,,,,,,,,,,11,,71,0
34875,note_on,,1,0,7,,,,,,,,,,,,,,,,10,,72,48
34875,note_on,,1,0,8,,,,,,,,,,,,,,,,11,,72,48
34889,note_on,,14,0,7,,,,,,,,,,,,,,,,10,,72,0
34889,note_on,,14,0,8,,,,,,,,,,,,,,,,11,,72,0
34890,note_on,,1,0,8,,,,,,,,,,,,,,,,11,,69,48
34890,note_on,,1,0,7,,,,,,,,,,,,,,,,10,,69,48
34904,note_on,,14,0,8,,,,,,,,,,,,,,,,11,,69,0
34904,note_on,,14,0,7,,,,,,,,,,,,,,,,10,,69,0
34905,note_on,,1,0,7,,,,,,,,,,,,,,,,10,,71,48
34905,note_on,,1,0,8,,,,,,,,,,,,,,,,11,,71,48
34919,note_on,,0,0,10,,,,,,,,,,,,,,,,15,,55,0
34919,note_on,,119,0,5,,,,,,,,,,,,,,,,2,,53,0
34919,note_on,,0,0,10,,,,,,,,,,,,,,,,15,,59,0
34919,note_on,,0,0,10,,,,,,,,,,,,,,,,15,,62,0
34919,note_on,,14,0,7,,,,,,,,,,,,,,,,10,,71,0
34919,note_on,,119,0,10,,,,,,,,,,,,,,,,15,,53,0
34919,note_on,,119,0,9,,,,,,,,,,,,,,,,13,,53,0
34919,note_on,,14,0,8,,,,,,,,,,,,,,,,11,,71,0
34920,note_on,,0,0,10,,,,,,,,,,,,,,,,15,,67,48
34920,note_on,,1,0,9,,,,,,,,,,,,,,,,13,,51,48
34920,note_on,,1,0,7,,,,,,,,,,,,,,,,10,,72,48
34920,note_on,,1,0,10,,,,,,,,,,,,,,,,15,,51,48
34920,note_on,,1,0,8,,,,,,,,,,,,,,,,11,,72,48
34920,note_on,,1,0,5,,,,,,,,,,,,,,,,2,,51,48
34920,note_on,,0,0,10,,,,,,,,,,,,,,,,15,,60,48
34920,note_on,,0,0,10,,,,,,,,,,,,,,,,15,,55,48
34979,note_on,,59,0,7,,,,,,,,,,,,,,,,10,,72,0
34979,note_on,,59,0,8,,,,,,,,,,,,,,,,11,,72,0
34980,note_on,,1,0,7,,,,,,,,,,,,,,,,10,,67,48
34980,note_on,,1,0,8,,,,,,,,,,,,,,,,11,,67,48
35039,note_on,,59,0,8,,,,,,,,,,,,,,,,11,,67,0
35039,note_on,,119,0,10,,,,,,,,,,,,,,,,15,,51,0
35039,note_on,,0,0,10,,,,,,,,,,,,,,,,15,,55,0
35039,note_on,,0,0,10,,,,,,,,,,,,,,,,15,,67,0
35039,note_on,,0,0,10,,,,,,,,,,,,,,,,15,,60,0
35039,note_on,,119,0,5,,,,,,,,,,,,,,,,2,,51,0
35039,note_on,,119,0,9,,,,,,,,,,,,,,,,13,,51,0
35039,note_on,,59,0,7,,,,,,,,,,,,,,,,10,,67,0
35040,note_on,,1,0,8,,,,,,,,,,,,,,,,11,,75,48
35040,note_on,,1,0,7,,,,,,,,,,,,,,,,10,,75,48
35040,note_on,,1,0,9,,,,,,,,,,,,,,,,13,,48,48
35040,note_on,,1,0,5,,,,,,,,,,,,,,,,2,,48,48
35040,note_on,,1,0,10,,,,,,,,,,,,,,,,15,,48,48
35040,note_on,,0,0,10,,,,,,,,,,,,,,,,15,,55,48
35040,note_on,,0,0,10,,,,,,,,,,,,,,,,15,,72,48
35040,note_on,,0,0,10,,,,,,,,,,,,,,,,15,,63,48
35040,note_on,,0,0,10,,,,,,,,,,,,,,,,15,,67,48
35099,note_on,,59,0,8,,,,,,,,,,,,,,,,11,,75,0
35099,note_on,,59,0,7,,,,,,,,,,,,,,,,10,,75,0
35100,note_on,,1,0,8,,,,,,,,,,,,,,,,11,,71,48
35100,note_on,,1,0,7,,,,,,,,,,,,,,,,10,,71,48
35159,note_on,,0,0,10,,,,,,,,,,,,,,,,15,,55,0
35159,note_on,,119,0,10,,,,,,,,,,,,,,,,15,,48,0
35159,note_on,,59,0,7,,,,,,,,,,,,,,,,10,,71,0
35159,note_on,,119,0,9,,,,,,,,,,,,,,,,13,,48,0
35159,note_on,,119,0,5,,,,,,,,,,,,,,,,2,,48,0
35159,note_on,,0,0,10,,,,,,,,,,,,,,,,15,,67,0
35159,note_on,,0,0,10,,,,,,,,,,,,,,,,15,,72,0
35159,note_on,,59,0,8,,,,,,,,,,,,,,,,11,,71,0
35159,note_on,,0,0,10,,,,,,,,,,,,,,,,15,,63,0
35160,note_on,,1,0,8,,,,,,,,,,,,,,,,11,,72,48
35160,note_on,,1,0,7,,,,,,,,,,,,,,,,10,,72,48
35219,note_on,,59,0,8,,,,,,,,,,,,,,,,11,,72,0
35219,note_on,,59,0,7,,,,,,,,,,,,,,,,10,,72,0
35220,note_on,,1,0,8,,,,,,,,,,,,,,,,11,,67,48
35220,note_on,,1,0,7,,,,,,,,,,,,,,,,10,,67,48
35279,note_on,,59,0,8,,,,,,,,,,,,,,,,11,,67,0
35279,note_on,,59,0,7,,,,,,,,,,,,,,,,10,,67,0
35280,note_on,,1,0,8,,,,,,,,,,,,,,,,11,,63,48
35280,note_on,,1,0,7,,,,,,,,,,,,,,,,10,,63,48
35339,note_on,,59,0,8,,,,,,,,,,,,,,,,11,,63,0
35339,note_on,,59,0,7,,,,,,,,,,,,,,,,10,,63,0
35340,note_on,,1,0,7,,,,,,,,,,,,,,,,10,,60,48
35340,note_on,,1,0,8,,,,,,,,,,,,,,,,11,,60,48
35399,note_on,,59,0,8,,,,,,,,,,,,,,,,11,,60,0
35399,note_on,,59,0,7,,,,,,,,,,,,,,,,10,,60,0
35400,note_on,,1,0,7,,,,,,,,,,,,,,,,10,,67,48
35400,note_on,,1,0,8,,,,,,,,,,,,,,,,11,,67,48
35459,note_on,,59,0,7,,,,,,,,,,,,,,,,10,,67,0
35459,note_on,,59,0,8,,,,,,,,,,,,,,,,11,,67,0
35460,note_on,,1,0,7,,,,,,,,,,,,,,,,10,,63,48
35460,note_on,,1,0,8,,,,,,,,,,,,,,,,11,,63,48
35519,note_on,,59,0,8,,,,,,,,,,,,,,,,11,,63,0
35519,note_on,,59,0,7,,,,,,,,,,,,,,,,10,,63,0
35520,note_on,,1,0,8,,,,,,,,,,,,,,,,11,,72,48
35520,note_on,,1,0,7,,,,,,,,,,,,,,,,10,,72,48
35579,note_on,,59,0,8,,,,,,,,,,,,,,,,11,,72,0
35579,note_on,,59,0,7,,,,,,,,,,,,,,,,10,,72,0
35580,note_on,,1,0,8,,,,,,,,,,,,,,,,11,,67,48
35580,note_on,,1,0,7,,,,,,,,,,,,,,,,10,,67,48
35639,note_on,,59,0,8,,,,,,,,,,,,,,,,11,,67,0
35639,note_on,,59,0,7,,,,,,,,,,,,,,,,10,,67,0
35640,note_on,,1,0,8,,,,,,,,,,,,,,,,11,,75,48
35640,note_on,,1,0,7,,,,,,,,,,,,,,,,10,,75,48
35699,note_on,,59,0,7,,,,,,,,,,,,,,,,10,,75,0
35699,note_on,,59,0,8,,,,,,,,,,,,,,,,11,,75,0
35700,note_on,,1,0,7,,,,,,,,,,,,,,,,10,,72,48
35700,note_on,,1,0,8,,,,,,,,,,,,,,,,11,,72,48
35759,note_on,,59,0,7,,,,,,,,,,,,,,,,10,,72,0
35759,note_on,,59,0,8,,,,,,,,,,,,,,,,11,,72,0
35760,note_on,,601,0,9,,,,,,,,,,,,,,,,13,,60,48
35760,note_on,,961,0,6,,,,,,,,,,,,,,,,5,,75,64
35760,note_on,,0,0,10,,,,,,,,,,,,,,,,15,,75,48
35760,note_on,,601,0,10,,,,,,,,,,,,,,,,15,,60,48
35760,note_on,,0,0,10,,,,,,,,,,,,,,,,15,,67,48
35760,note_on,,1,0,8,,,,,,,,,,,,,,,,11,,79,48
35760,note_on,,0,0,10,,,,,,,,,,,,,,,,15,,72,48
35760,note_on,,1,0,7,,,,,,,,,,,,,,,,10,,79,48
35819,note_on,,59,0,8,,,,,,,,,,,,,,,,11,,79,0
35819,note_on,,59,0,7,,,,,,,,,,,,,,,,10,,79,0
35820,note_on,,1,0,8,,,,,,,,,,,,,,,,11,,75,48
35820,note_on,,1,0,7,,,,,,,,,,,,,,,,10,,75,48
35879,note_on,,59,0,8,,,,,,,,,,,,,,,,11,,75,0
35879,note_on,,0,0,10,,,,,,,,,,,,,,,,15,,67,0
35879,note_on,,0,0,10,,,,,,,,,,,,,,,,15,,72,0
35879,note_on,,0,0,10,,,,,,,,,,,,,,,,15,,75,0
35879,note_on,,119,0,6,,,,,,,,,,,,,,,,5,,75,0
35879,note_on,,59,0,7,,,,,,,,,,,,,,,,10,,75,0
35879,note_on,,119,0,10,,,,,,,,,,,,,,,,15,,60,0
35879,note_on,,119,0,9,,,,,,,,,,,,,,,,13,,60,0
35880,note_on,,1,0,10,,,,,,,,,,,,,,,,15,,51,48
35880,note_on,,1,0,7,,,,,,,,,,,,,,,,10,,84,48
35880,note_on,,1,0,6,,,,,,,,,,,,,,,,5,,75,64
35880,note_on,,0,0,10,,,,,,,,,,,,,,,,15,,60,48
35880,note_on,,0,0,10,,,,,,,,,,,,,,,,15,,79,48
35880,note_on,,0,0,10,,,,,,,,,,,,,,,,15,,72,48
35880,note_on,,0,0,10,,,,,,,,,,,,,,,,15,,67,48
35880,note_on,,1,0,9,,,,,,,,,,,,,,,,13,,51,48
35880,note_on,,1,0,8,,,,,,,,,,,,,,,,11,,84,48
35939,note_on,,59,0,8,,,,,,,,,,,,,,,,11,,84,0
35939,note_on,,59,0,7,,,,,,,,,,,,,,,,10,,84,0
35940,note_on,,1,0,8,,,,,,,,,,,,,,,,11,,79,48
35940,note_on,,1,0,7,,,,,,,,,,,,,,,,10,,79,48
35999,note_on,,119,0,9,,,,,,,,,,,,,,,,13,,51,0
35999,note_on,,119,0,6,,,,,,,,,,,,,,,,5,,75,0
35999,note_on,,0,0,10,,,,,,,,,,,,,,,,15,,72,0
35999,note_on,,59,0,8,,,,,,,,,,,,,,,,11,,79,0
35999,note_on,,59,0,7,,,,,,,,,,,,,,,,10,,79,0
35999,note_on,,0,0,10,,,,,,,,,,,,,,,,15,,67,0
35999,note_on,,0,0,10,,,,,,,,,,,,,,,,15,,79,0
35999,note_on,,0,0,10,,,,,,,,,,,,,,,,15,,60,0
35999,note_on,,119,0,10,,,,,,,,,,,,,,,,15,,51,0
36000,note_on,,0,0,10,,,,,,,,,,,,,,,,15,,72,48
36000,note_on,,1,0,7,,,,,,,,,,,,,,,,10,,80,48
36000,note_on,,1,0,9,,,,,,,,,,,,,,,,13,,53,48
36000,note_on,,1,0,6,,,,,,,,,,,,,,,,5,,75,64
36000,note_on,,0,0,10,,,,,,,,,,,,,,,,15,,60,48
36000,note_on,,0,0,10,,,,,,,,,,,,,,,,15,,65,48
36000,note_on,,0,0,10,,,,,,,,,,,,,,,,15,,68,48
36000,note_on,,1,0,10,,,,,,,,,,,,,,,,15,,53,48
36000,note_on,,1,0,8,,,,,,,,,,,,,,,,11,,80,48
36059,note_on,,59,0,7,,,,,,,,,,,,,,,,10,,80,0
36059,note_on,,59,0,8,,,,,,,,,,,,,,,,11,,80,0
36060,note_on,,1,0,8,,,,,,,,,,,,,,,,11,,84,48
36060,note_on,,1,0,7,,,,,,,,,,,,,,,,10,,84,48
36119,note_on,,59,0,7,,,,,,,,,,,,,,,,10,,84,0
36119,note_on,,119,0,9,,,,,,,,,,,,,,,,13,,53,0
36119,note_on,,119,0,6,,,,,,,,,,,,,,,,5,,75,0
36119,note_on,,0,0,10,,,,,,,,,,,,,,,,15,,60,0
36119,note_on,,0,0,10,,,,,,,,,,,,,,,,15,,68,0
36119,note_on,,0,0,10,,,,,,,,,,,,,,,,15,,72,0
36119,note_on,,119,0,10,,,,,,,,,,,,,,,,15,,53,0
36119,note_on,,59,0,8,,,,,,,,,,,,,,,,11,,84,0
36119,note_on,,0,0,10,,,,,,,,,,,,,,,,15,,65,0
36120,note_on,,1,0,8,,,,,,,,,,,,,,,,11,,77,48
36120,note_on,,1,0,7,,,,,,,,,,,,,,,,10,,77,48
36120,note_on,,1,0,6,,,,,,,,,,,,,,,,5,,80,64
36179,note_on,,59,0,6,,,,,,,,,,,,,,,,5,,80,0
36180,note_on,,1,0,6,,,,,,,,,,,,,,,,5,,79,64
36209,note_on,,89,0,8,,,,,,,,,,,,,,,,11,,77,0
36209,note_on,,89,0,7,,,,,,,,,,,,,,,,10,,77,0
36210,note_on,,1,0,8,,,,,,,,,,,,,,,,11,,80,48
36210,note_on,,1,0,7,,,,,,,,,,,,,,,,10,,80,48
36239,note_on,,29,0,8,,,,,,,,,,,,,,,,11,,80,0
36239,note_on,,29,0,7,,,,,,,,,,,,,,,,10,,80,0
36239,note_on,,59,0,6,,,,,,,,,,,,,,,,5,,79,0
36240,note_on,,1,0,8,,,,,,,,,,,,,,,,11,,74,48
36240,note_on,,1,0,7,,,,,,,,,,,,,,,,10,,74,48
36240,note_on,,1,0,6,,,,,,,,,,,,,,,,5,,77,64
36299,note_on,,59,0,6,,,,,,,,,,,,,,,,5,,77,0
36300,note_on,,1,0,6,,,,,,,,,,,,,,,,5,,75,64
36329,note_on,,89,0,7,,,,,,,,,,,,,,,,10,,74,0
36329,note_on,,89,0,8,,,,,,,,,,,,,,,,11,,74,0
36330,note_on,,1,0,8,,,,,,,,,,,,,,,,11,,77,48
36330,note_on,,1,0,7,,,,,,,,,,,,,,,,10,,77,48
36359,note_on,,59,0,6,,,,,,,,,,,,,,,,5,,75,0
36359,note_on,,29,0,8,,,,,,,,,,,,,,,,11,,77,0
36359,note_on,,29,0,7,,,,,,,,,,,,,,,,10,,77,0
36360,note_on,,0,0,10,,,,,,,,,,,,,,,,15,,65,48
36360,note_on,,1,0,6,,,,,,,,,,,,,,,,5,,74,64
36360,note_on,,1,0,8,,,,,,,,,,,,,,,,11,,70,48
36360,note_on,,0,0,10,,,,,,,,,,,,,,,,15,,62,48
36360,note_on,,0,0,10,,,,,,,,,,,,,,,,15,,70,48
36360,note_on,,1,0,7,,,,,,,,,,,,,,,,10,,70,48
36360,note_on,,241,0,9,,,,,,,,,,,,,,,,13,,58,48
36360,note_on,,241,0,10,,,,,,,,,,,,,,,,15,,58,48
36419,note_on,,59,0,6,,,,,,,,,,,,,,,,5,,74,0
36420,note_on,,1,0,6,,,,,,,,,,,,,,,,5,,72,64
36479,note_on,,119,0,9,,,,,,,,,,,,,,,,13,,58,0
36479,note_on,,0,0,10,,,,,,,,,,,,,,,,15,,62,0
36479,note_on,,59,0,6,,,,,,,,,,,,,,,,5,,72,0
36479,note_on,,0,0,10,,,,,,,,,,,,,,,,15,,65,0
36479,note_on,,0,0,10,,,,,,,,,,,,,,,,15,,70,0
36479,note_on,,119,0,10,,,,,,,,,,,,,,,,15,,58,0
36480,note_on,,1,0,6,,,,,,,,,,,,,,,,5,,74,64
36539,note_on,,179,0,7,,,,,,,,,,,,,,,,10,,70,0
36539,note_on,,179,0,8,,,,,,,,,,,,,,,,11,,70,0
36570,note_on,,31,0,7,,,,,,,,,,,,,,,,10,,77,48
36570,note_on,,31,0,8,,,,,,,,,,,,,,,,11,,77,48
36599,note_on,,29,0,7,,,,,,,,,,,,,,,,10,,77,0
36599,note_on,,29,0,8,,,,,,,,,,,,,,,,11,,77,0
36599,note_on,,119,0,6,,,,,,,,,,,,,,,,5,,74,0
36600,note_on,,1,0,8,,,,,,,,,,,,,,,,11,,77,48
36600,note_on,,1,0,7,,,,,,,,,,,,,,,,10,,77,48
36600,note_on,,1,0,6,,,,,,,,,,,,,,,,5,,74,64
36614,note_on,,14,0,8,,,,,,,,,,,,,,,,11,,77,0
36614,note_on,,14,0,7,,,,,,,,,,,,,,,,10,,77,0
36615,note_on,,1,0,8,,,,,,,,,,,,,,,,11,,79,48
36615,note_on,,1,0,7,,,,,,,,,,,,,,,,10,,79,48
36629,note_on,,14,0,7,,,,,,,,,,,,,,,,10,,79,0
36629,note_on,,14,0,8,,,,,,,,,,,,,,,,11,,79,0
36630,note_on,,1,0,8,,,,,,,,,,,,,,,,11,,77,48
36630,note_on,,1,0,7,,,,,,,,,,,,,,,,10,,77,48
36644,note_on,,14,0,7,,,,,,,,,,,,,,,,10,,77,0
36644,note_on,,14,0,8,,,,,,,,,,,,,,,,11,,77,0
36645,note_on,,1,0,7,,,,,,,,,,,,,,,,10,,79,48
36645,note_on,,1,0,8,,,,,,,,,,,,,,,,11,,79,48
36659,note_on,,14,0,7,,,,,,,,,,,,,,,,10,,79,0
36659,note_on,,14,0,8,,,,,,,,,,,,,,,,11,,79,0
36659,note_on,,59,0,6,,,,,,,,,,,,,,,,5,,74,0
36660,note_on,,1,0,7,,,,,,,,,,,,,,,,10,,77,48
36660,note_on,,1,0,8,,,,,,,,,,,,,,,,11,,77,48
36660,note_on,,1,0,6,,,,,,,,,,,,,,,,5,,74,64
36674,note_on,,14,0,8,,,,,,,,,,,,,,,,11,,77,0
36674,note_on,,14,0,7,,,,,,,,,,,,,,,,10,,77,0
36675,note_on,,1,0,7,,,,,,,,,,,,,,,,10,,79,48
36675,note_on,,1,0,8,,,,,,,,,,,,,,,,11,,79,48
36689,note_on,,14,0,7,,,,,,,,,,,,,,,,10,,79,0
36689,note_on,,14,0,8,,,,,,,,,,,,,,,,11,,79,0
36690,note_on,,1,0,7,,,,,,,,,,,,,,,,10,,75,48
36690,note_on,,1,0,8,,,,,,,,,,,,,,,,11,,75,48
36704,note_on,,14,0,8,,,,,,,,,,,,,,,,11,,75,0
36704,note_on,,14,0,7,,,,,,,,,,,,,,,,10,,75,0
36705,note_on,,1,0,7,,,,,,,,,,,,,,,,10,,77,48
36705,note_on,,1,0,8,,,,,,,,,,,,,,,,11,,77,48
36719,note_on,,59,0,6,,,,,,,,,,,,,,,,5,,74,0
36719,note_on,,14,0,7,,,,,,,,,,,,,,,,10,,77,0
36719,note_on,,14,0,8,,,,,,,,,,,,,,,,11,,77,0
36720,note_on,,0,0,10,,,,,,,,,,,,,,,,15,,67,48
36720,note_on,,1,0,7,,,,,,,,,,,,,,,,10,,79,48
36720,note_on,,1,0,8,,,,,,,,,,,,,,,,11,,79,48
36720,note_on,,1,0,6,,,,,,,,,,,,,,,,5,,74,64
36720,note_on,,241,0,10,,,,,,,,,,,,,,,,15,,51,48
36720,note_on,,241,0,9,,,,,,,,,,,,,,,,13,,51,48
36720,note_on,,0,0,10,,,,,,,,,,,,,,,,15,,70,48
36720,note_on,,0,0,10,,,,,,,,,,,,,,,,15,,58,48
36720,note_on,,0,0,10,,,,,,,,,,,,,,,,15,,63,48
36779,note_on,,59,0,7,,,,,,,,,,,,,,,,10,,79,0
36779,note_on,,59,0,8,,,,,,,,,,,,,,,,11,,79,0
36780,note_on,,1,0,7,,,,,,,,,,,,,,,,10,,82,48
36780,note_on,,1,0,8,,,,,,,,,,,,,,,,11,,82,48
36839,note_on,,59,0,7,,,,,,,,,,,,,,,,10,,82,0
36839,note_on,,119,0,10,,,,,,,,,,,,,,,,15,,51,0
36839,note_on,,119,0,9,,,,,,,,,,,,,,,,13,,51,0
36839,note_on,,0,0,10,,,,,,,,,,,,,,,,15,,70,0
36839,note_on,,0,0,10,,,,,,,,,,,,,,,,15,,67,0
36839,note_on,,59,0,8,,,,,,,,,,,,,,,,11,,82,0
36839,note_on,,0,0,10,,,,,,,,,,,,,,,,15,,63,0
36839,note_on,,0,0,10,,,,,,,,,,,,,,,,15,,58,0
36839,note_on,,119,0,6,,,,,,,,,,,,,,,,5,,74,0
36840,note_on,,1,0,6,,,,,,,,,,,,,,,,5,,79,64
36840,note_on,,1,0,8,,,,,,,,,,,,,,,,11,,75,48
36840,note_on,,1,0,7,,,,,,,,,,,,,,,,10,,75,48
36899,note_on,,59,0,6,,,,,,,,,,,,,,,,5,,79,0
36900,note_on,,1,0,6,,,,,,,,,,,,,,,,5,,77,64
36929,note_on,,89,0,7,,,,,,,,,,,,,,,,10,,75,0
36929,note_on,,89,0,8,,,,,,,,,,,,,,,,11,,75,0
36930,note_on,,1,0,7,,,,,,,,,,,,,,,,10,,79,48
36930,note_on,,1,0,8,,,,,,,,,,,,,,,,11,,79,48
36959,note_on,,29,0,8,,,,,,,,,,,,,,,,11,,79,0
36959,note_on,,59,0,6,,,,,,,,,,,,,,,,5,,77,0
36959,note_on,,29,0,7,,,,,,,,,,,,,,,,10,,79,0
36960,note_on,,1,0,7,,,,,,,,,,,,,,,,10,,72,48
36960,note_on,,1,0,6,,,,,,,,,,,,,,,,5,,75,64
36960,note_on,,1,0,8,,,,,,,,,,,,,,,,11,,72,48
37019,note_on,,59,0,6,,,,,,,,,,,,,,,,5,,75,0
37020,note_on,,1,0,6,,,,,,,,,,,,,,,,5,,74,64
37049,note_on,,89,0,7,,,,,,,,,,,,,,,,10,,72,0
37049,note_on,,89,0,8,,,,,,,,,,,,,,,,11,,72,0
37050,note_on,,1,0,7,,,,,,,,,,,,,,,,10,,75,48
37050,note_on,,1,0,8,,,,,,,,,,,,,,,,11,,75,48
37079,note_on,,29,0,7,,,,,,,,,,,,,,,,10,,75,0
37079,note_on,,29,0,8,,,,,,,,,,,,,,,,11,,75,0
37079,note_on,,59,0,6,,,,,,,,,,,,,,,,5,,74,0
37080,note_on,,0,0,10,,,,,,,,,,,,,,,,15,,68,48
37080,note_on,,241,0,10,,,,,,,,,,,,,,,,15,,56,48
37080,note_on,,1,0,8,,,,,,,,,,,,,,,,11,,68,48
37080,note_on,,0,0,10,,,,,,,,,,,,,,,,15,,60,48
37080,note_on,,0,0,10,,,,,,,,,,,,,,,,15,,63,48
37080,note_on,,1,0,7,,,,,,,,,,,,,,,,10,,68,48
37080,note_on,,241,0,9,,,,,,,,,,,,,,,,13,,56,48
37080,note_on,,1,0,6,,,,,,,,,,,,,,,,5,,72,64
37139,note_on,,59,0,7,,,,,,,,,,,,,,,,10,,68,0
37139,note_on,,59,0,8,,,,,,,,,,,,,,,,11,,68,0
37140,note_on,,1,0,8,,,,,,,,,,,,,,,,11,,72,48
37140,note_on,,1,0,7,,,,,,,,,,,,,,,,10,,72,48
37199,note_on,,119,0,10,,,,,,,,,,,,,,,,15,,56,0
37199,note_on,,0,0,10,,,,,,,,,,,,,,,,15,,68,0
37199,note_on,,119,0,6,,,,,,,,,,,,,,,,5,,72,0
37199,note_on,,0,0,10,,,,,,,,,,,,,,,,15,,63,0
37199,note_on,,119,0,9,,,,,,,,,,,,,,,,13,,56,0
37199,note_on,,59,0,7,,,,,,,,,,,,,,,,10,,72,0
37199,note_on,,59,0,8,,,,,,,,,,,,,,,,11,,72,0
37199,note_on,,0,0,10,,,,,,,,,,,,,,,,15,,60,0
37200,note_on,,1,0,7,,,,,,,,,,,,,,,,10,,65,48
37200,note_on,,1,0,8,,,,,,,,,,,,,,,,11,,65,48
37200,note_on,,1,0,6,,,,,,,,,,,,,,,,5,,77,64
37259,note_on,,59,0,7,,,,,,,,,,,,,,,,10,,65,0
37259,note_on,,59,0,8,,,,,,,,,,,,,,,,11,,65,0
37260,note_on,,1,0,7,,,,,,,,,,,,,,,,10,,68,48
37260,note_on,,1,0,8,,,,,,,,,,,,,,,,11,,68,48
37319,note_on,,59,0,7,,,,,,,,,,,,,,,,10,,68,0
37319,note_on,,59,0,8,,,,,,,,,,,,,,,,11,,68,0
37320,note_on,,1,0,7,,,,,,,,,,,,,,,,10,,62,48
37320,note_on,,1,0,8,,,,,,,,,,,,,,,,11,,62,48
37379,note_on,,59,0,8,,,,,,,,,,,,,,,,11,,62,0
37379,note_on,,59,0,7,,,,,,,,,,,,,,,,10,,62,0
37380,note_on,,1,0,8,,,,,,,,,,,,,,,,11,,65,48
37380,note_on,,1,0,7,,,,,,,,,,,,,,,,10,,65,48
37439,note_on,,59,0,7,,,,,,,,,,,,,,,,10,,65,0
37439,note_on,,59,0,8,,,,,,,,,,,,,,,,11,,65,0
37440,note_on,,1,0,7,,,,,,,,,,,,,,,,10,,59,48
37440,note_on,,1,0,8,,,,,,,,,,,,,,,,11,,59,48
37440,note_on,,0,0,10,,,,,,,,,,,,,,,,15,,59,48
37440,note_on,,0,0,10,,,,,,,,,,,,,,,,15,,67,48
37440,note_on,,0,0,10,,,,,,,,,,,,,,,,15,,74,48
37440,note_on,,241,0,10,,,,,,,,,,,,,,,,15,,55,48
37440,note_on,,241,0,9,,,,,,,,,,,,,,,,13,,55,48
37559,note_on,,119,0,7,,,,,,,,,,,,,,,,10,,59,0
37559,note_on,,119,0,8,,,,,,,,,,,,,,,,11,,59,0
37559,note_on,,119,0,10,,,,,,,,,,,,,,,,15,,59,0
37619,note_on,,60,0,10,,,,,,,,,,,,,,,,15,,55,0
37619,note_on,,179,0,9,,,,,,,,,,,,,,,,13,,55,0
37619,note_on,,0,0,10,,,,,,,,,,,,,,,,15,,74,0
37619,note_on,,0,0,10,,,,,,,,,,,,,,,,15,,67,0
37619,note_on,,419,0,6,,,,,,,,,,,,,,,,5,,77,0
37620,note_on,,1,0,9,,,,,,,,,,,,,,,,13,,59,48
37620,note_on,,1,0,10,,,,,,,,,,,,,,,,15,,59,48
37620,note_on,,0,0,10,,,,,,,,,,,,,,,,15,,79,48
37620,note_on,,0,0,10,,,,,,,,,,,,,,,,15,,74,48
37620,note_on,,0,0,10,,,,,,,,,,,,,,,,15,,67,48
37620,note_on,,0,0,10,,,,,,,,,,,,,,,,15,,62,48
37620,note_on,,1,0,6,,,,,,,,,,,,,,,,5,,79,64
37679,note_on,,59,0,10,,,,,,,,,,,,,,,,15,,59,0
37679,note_on,,59,0,6,,,,,,,,,,,,,,,,5,,79,0
37679,note_on,,59,0,9,,,,,,,,,,,,,,,,13,,59,0
37679,note_on,,0,0,10,,,,,,,,,,,,,,,,15,,79,0
37679,note_on,,0,0,10,,,,,,,,,,,,,,,,15,,74,0
37679,note_on,,0,0,10,,,,,,,,,,,,,,,,15,,67,0
37679,note_on,,0,0,10,,,,,,,,,,,,,,,,15,,62,0
37680,note_on,,1,0,6,,,,,,,,,,,,,,,,5,,75,64
37680,note_on,,1,0,9,,,,,,,,,,,,,,,,13,,60,48
37680,note_on,,1,0,10,,,,,,,,,,,,,,,,15,,60,48
37680,note_on,,0,0,10,,,,,,,,,,,,,,,,15,,63,48
37680,note_on,,0,0,10,,,,,,,,,,,,,,,,15,,67,48
37739,note_on,,59,0,6,,,,,,,,,,,,,,,,5,,75,0
37740,note_on,,1,0,6,,,,,,,,,,,,,,,,5,,74,64
37799,note_on,,119,0,10,,,,,,,,,,,,,,,,15,,60,0
37799,note_on,,0,0,10,,,,,,,,,,,,,,,,15,,67,0
37799,note_on,,0,0,10,,,,,,,,,,,,,,,,15,,63,0
37799,note_on,,119,0,9,,,,,,,,,,,,,,,,13,,60,0
37799,note_on,,59,0,6,,,,,,,,,,,,,,,,5,,74,0
37800,note_on,,0,0,10,,,,,,,,,,,,,,,,15,,68,48
37800,note_on,,0,0,10,,,,,,,,,,,,,,,,15,,72,48
37800,note_on,,1,0,9,,,,,,,,,,,,,,,,13,,53,48
37800,note_on,,1,0,6,,,,,,,,,,,,,,,,5,,75,64
37800,note_on,,0,0,10,,,,,,,,,,,,,,,,15,,65,48
37800,note_on,,1,0,10,,,,,,,,,,,,,,,,15,,53,48
37829,note_on,,29,0,6,,,,,,,,,,,,,,,,5,,75,0
37830,note_on,,1,0,6,,,,,,,,,,,,,,,,5,,74,64
37859,note_on,,29,0,6,,,,,,,,,,,,,,,,5,,74,0
37860,note_on,,1,0,6,,,,,,,,,,,,,,,,5,,72,64
37904,note_on,,44,0,6,,,,,,,,,,,,,,,,5,,72,0
37905,note_on,,1,0,6,,,,,,,,,,,,,,,,5,,72,64
37919,note_on,,14,0,6,,,,,,,,,,,,,,,,5,,72,0
37919,note_on,,0,0,10,,,,,,,,,,,,,,,,15,,65,0
37919,note_on,,119,0,10,,,,,,,,,,,,,,,,15,,53,0
37919,note_on,,0,0,10,,,,,,,,,,,,,,,,15,,72,0
37919,note_on,,0,0,10,,,,,,,,,,,,,,,,15,,68,0
37919,note_on,,119,0,9,,,,,,,,,,,,,,,,13,,53,0
37920,note_on,,1,0,10,,,,,,,,,,,,,,,,15,,55,48
37920,note_on,,0,0,10,,,,,,,,,,,,,,,,15,,71,48
37920,note_on,,1,0,6,,,,,,,,,,,,,,,,5,,71,64
37920,note_on,,0,0,10,,,,,,,,,,,,,,,,15,,67,48
37920,note_on,,1,0,9,,,,,,,,,,,,,,,,13,,55,48
37920,note_on,,0,0,10,,,,,,,,,,,,,,,,15,,62,48
38039,note_on,,0,0,10,,,,,,,,,,,,,,,,15,,62,0
38039,note_on,,0,0,10,,,,,,,,,,,,,,,,15,,67,0
38039,note_on,,0,0,10,,,,,,,,,,,,,,,,15,,71,0
38039,note_on,,119,0,10,,,,,,,,,,,,,,,,15,,55,0
38039,note_on,,119,0,9,,,,,,,,,,,,,,,,13,,55,0
38040,note_on,,1,0,10,,,,,,,,,,,,,,,,15,,43,48
38040,note_on,,0,0,10,,,,,,,,,,,,,,,,15,,71,48
38040,note_on,,0,0,10,,,,,,,,,,,,,,,,15,,55,48
38040,note_on,,1,0,9,,,,,,,,,,,,,,,,13,,43,48
38040,note_on,,0,0,10,,,,,,,,,,,,,,,,15,,74,48
38040,note_on,,0,0,10,,,,,,,,,,,,,,,,15,,79,48
38144,note_on,,224,0,6,,,,,,,,,,,,,,,,5,,71,0
38145,note_on,,1,0,6,,,,,,,,,,,,,,,,5,,72,64
38159,note_on,,0,0,10,,,,,,,,,,,,,,,,15,,55,0
38159,note_on,,0,0,10,,,,,,,,,,,,,,,,15,,71,0
38159,note_on,,0,0,10,,,,,,,,,,,,,,,,15,,74,0
38159,note_on,,0,0,10,,,,,,,,,,,,,,,,15,,79,0
38159,note_on,,119,0,10,,,,,,,,,,,,,,,,15,,43,0
38159,note_on,,14,0,6,,,,,,,,,,,,,,,,5,,72,0
38159,note_on,,119,0,9,,,,,,,,,,,,,,,,13,,43,0
38160,note_on,,0,0,10,,,,,,,,,,,,,,,,15,,67,72
38160,note_on,,0,0,10,,,,,,,,,,,,,,,,15,,55,72
38160,note_on,,0,0,10,,,,,,,,,,,,,,,,15,,75,72
38160,note_on,,0,0,10,,,,,,,,,,,,,,,,15,,72,72
38160,note_on,,1,0,6,,,,,,,,,,,,,,,,5,,72,64
38160,note_on,,1,0,10,,,,,,,,,,,,,,,,15,,48,72
38160,note_on,,1,0,9,,,,,,,,,,,,,,,,13,,48,48
38279,note_on,,0,0,10,,,,,,,,,,,,,,,,15,,67,0
38279,note_on,,119,0,10,,,,,,,,,,,,,,,,15,,48,0
38279,note_on,,119,0,9,,,,,,,,,,,,,,,,13,,48,0
38280,note_on,,0,0,10,,,,,,,,,,,,,,,,15,,65,72
38280,note_on,,1,0,10,,,,,,,,,,,,,,,,15,,50,72
38280,note_on,,3121,0,5,,,,,,,,,,,,,,,,2,,50,72
38280,note_on,,1,0,9,,,,,,,,,,,,,,,,13,,50,72
38370,note_on,,811,0,7,,,,,,,,,,,,,,,,10,,79,72
38370,note_on,,811,0,8,,,,,,,,,,,,,,,,11,,79,72
38399,note_on,,119,0,9,,,,,,,,,,,,,,,,13,,50,0
38399,note_on,,119,0,5,,,,,,,,,,,,,,,,2,,50,0
38399,note_on,,29,0,7,,,,,,,,,,,,,,,,10,,79,0
38399,note_on,,0,0,10,,,,,,,,,,,,,,,,15,,65,0
38399,note_on,,0,0,10,,,,,,,,,,,,,,,,15,,50,0
38399,note_on,,239,0,6,,,,,,,,,,,,,,,,5,,72,0
38399,note_on,,0,0,10,,,,,,,,,,,,,,,,15,,55,0
38399,note_on,,0,0,10,,,,,,,,,,,,,,,,15,,72,0
38399,note_on,,119,0,10,,,,,,,,,,,,,,,,15,,75,0
38399,note_on,,29,0,8,,,,,,,,,,,,,,,,11,,79,0
38400,note_on,,0,0,10,,,,,,,,,,,,,,,,15,,63,72
38400,note_on,,1,0,5,,,,,,,,,,,,,,,,2,,51,72
38400,note_on,,1,0,7,,,,,,,,,,,,,,,,10,,79,72
38400,note_on,,1,0,9,,,,,,,,,,,,,,,,13,,51,72
38400,note_on,,1,0,10,,,,,,,,,,,,,,,,15,,51,72
38400,note_on,,0,0,10,,,,,,,,,,,,,,,,15,,55,72
38400,note_on,,0,0,10,,,,,,,,,,,,,,,,15,,72,72
38400,note_on,,0,0,10,,,,,,,,,,,,,,,,15,,67,72
38400,note_on,,1,0,8,,,,,,,,,,,,,,,,11,,79,72
38414,note_on,,14,0,7,,,,,,,,,,,,,,,,10,,79,0
38414,note_on,,14,0,8,,,,,,,,,,,,,,,,11,,79,0
38415,note_on,,1,0,8,,,,,,,,,,,,,,,,11,,81,72
38415,note_on,,1,0,7,,,,,,,,,,,,,,,,10,,81,72
38429,note_on,,14,0,8,,,,,,,,,,,,,,,,11,,81,0
38429,note_on,,14,0,7,,,,,,,,,,,,,,,,10,,81,0
38430,note_on,,1,0,7,,,,,,,,,,,,,,,,10,,79,72
38430,note_on,,1,0,8,,,,,,,,,,,,,,,,11,,79,72
38444,note_on,,14,0,7,,,,,,,,,,,,,,,,10,,79,0
38444,note_on,,14,0,8,,,,,,,,,,,,,,,,11,,79,0
38445,note_on,,1,0,7,,,,,,,,,,,,,,,,10,,81,72
38445,note_on,,1,0,8,,,,,,,,,,,,,,,,11,,81,72
38459,note_on,,14,0,7,,,,,,,,,,,,,,,,10,,81,0
38459,note_on,,14,0,8,,,,,,,,,,,,,,,,11,,81,0
38460,note_on,,1,0,7,,,,,,,,,,,,,,,,10,,79,72
38460,note_on,,1,0,8,,,,,,,,,,,,,,,,11,,79,72
38474,note_on,,14,0,8,,,,,,,,,,,,,,,,11,,79,0
38474,note_on,,14,0,7,,,,,,,,,,,,,,,,10,,79,0
38475,note_on,,1,0,8,,,,,,,,,,,,,,,,11,,81,72
38475,note_on,,1,0,7,,,,,,,,,,,,,,,,10,,81,72
38489,note_on,,14,0,8,,,,,,,,,,,,,,,,11,,81,0
38489,note_on,,14,0,7,,,,,,,,,,,,,,,,10,,81,0
38490,note_on,,1,0,7,,,,,,,,,,,,,,,,10,,77,72
38490,note_on,,1,0,8,,,,,,,,,,,,,,,,11,,77,72
38504,note_on,,14,0,7,,,,,,,,,,,,,,,,10,,77,0
38504,note_on,,14,0,8,,,,,,,,,,,,,,,,11,,77,0
38505,note_on,,1,0,8,,,,,,,,,,,,,,,,11,,79,72
38505,note_on,,1,0,7,,,,,,,,,,,,,,,,10,,79,72
38519,note_on,,119,0,5,,,,,,,,,,,,,,,,2,,51,0
38519,note_on,,119,0,9,,,,,,,,,,,,,,,,13,,51,0
38519,note_on,,0,0,10,,,,,,,,,,,,,,,,15,,63,0
38519,note_on,,14,0,7,,,,,,,,,,,,,,,,10,,79,0
38519,note_on,,0,0,10,,,,,,,,,,,,,,,,15,,55,0
38519,note_on,,119,0,10,,,,,,,,,,,,,,,,15,,51,0
38519,note_on,,14,0,8,,,,,,,,,,,,,,,,11,,79,0
38519,note_on,,0,0,10,,,,,,,,,,,,,,,,15,,67,0
38519,note_on,,0,0,10,,,,,,,,,,,,,,,,15,,72,0
38520,note_on,,1,0,10,,,,,,,,,,,,,,,,15,,53,72
38520,note_on,,0,0,10,,,,,,,,,,,,,,,,15,,68,72
38520,note_on,,0,0,10,,,,,,,,,,,,,,,,15,,65,72
38520,note_on,,0,0,10,,,,,,,,,,,,,,,,15,,60,72
38520,note_on,,1,0,5,,,,,,,,,,,,,,,,2,,53,72
38520,note_on,,1,0,7,,,,,,,,,,,,,,,,10,,80,72
38520,note_on,,1,0,8,,,,,,,,,,,,,,,,11,,80,72
38520,note_on,,1,0,9,,,,,,,,,,,,,,,,13,,53,72
38520,note_on,,0,0,10,,,,,,,,,,,,,,,,15,,56,72
38639,note_on,,119,0,10,,,,,,,,,,,,,,,,15,,53,0
38639,note_on,,0,0,10,,,,,,,,,,,,,,,,15,,65,0
38639,note_on,,119,0,9,,,,,,,,,,,,,,,,13,,53,0
38639,note_on,,0,0,10,,,,,,,,,,,,,,,,15,,68,0
38639,note_on,,0,0,10,,,,,,,,,,,,,,,,15,,56,0
38639,note_on,,0,0,10,,,,,,,,,,,,,,,,15,,60,0
38639,note_on,,119,0,5,,,,,,,,,,,,,,,,2,,53,0
38699,note_on,,179,0,7,,,,,,,,,,,,,,,,10,,80,0
38699,note_on,,179,0,8,,,,,,,,,,,,,,,,11,,80,0
38730,note_on,,31,0,7,,,,,,,,,,,,,,,,10,,76,72
38730,note_on,,31,0,8,,,,,,,,,,,,,,,,11,,76,72
38759,note_on,,29,0,8,,,,,,,,,,,,,,,,11,,76,0
38759,note_on,,29,0,7,,,,,,,,,,,,,,,,10,,76,0
38760,note_on,,1,0,7,,,,,,,,,,,,,,,,10,,76,72
38760,note_on,,121,0,10,,,,,,,,,,,,,,,,15,,55,72
38760,note_on,,0,0,10,,,,,,,,,,,,,,,,15,,58,72
38760,note_on,,0,0,10,,,,,,,,,,,,,,,,15,,70,72
38760,note_on,,121,0,5,,,,,,,,,,,,,,,,2,,55,72
38760,note_on,,0,0,10,,,,,,,,,,,,,,,,15,,76,72
38760,note_on,,0,0,10,,,,,,,,,,,,,,,,15,,79,72
38760,note_on,,121,0,9,,,,,,,,,,,,,,,,13,,55,72
38760,note_on,,1,0,8,,,,,,,,,,,,,,,,11,,76,72
38774,note_on,,14,0,7,,,,,,,,,,,,,,,,10,,76,0
38774,note_on,,14,0,8,,,,,,,,,,,,,,,,11,,76,0
38775,note_on,,1,0,7,,,,,,,,,,,,,,,,10,,77,72
38775,note_on,,1,0,8,,,,,,,,,,,,,,,,11,,77,72
38789,note_on,,14,0,7,,,,,,,,,,,,,,,,10,,77,0
38789,note_on,,14,0,8,,,,,,,,,,,,,,,,11,,77,0
38790,note_on,,1,0,8,,,,,,,,,,,,,,,,11,,76,72
38790,note_on,,1,0,7,,,,,,,,,,,,,,,,10,,76,72
38804,note_on,,14,0,8,,,,,,,,,,,,,,,,11,,76,0
38804,note_on,,14,0,7,,,,,,,,,,,,,,,,10,,76,0
38805,note_on,,1,0,8,,,,,,,,,,,,,,,,11,,77,72
38805,note_on,,1,0,7,,,,,,,,,,,,,,,,10,,77,72
38819,note_on,,14,0,8,,,,,,,,,,,,,,,,11,,77,0
38819,note_on,,14,0,7,,,,,,,,,,,,,,,,10,,77,0
38820,note_on,,1,0,8,,,,,,,,,,,,,,,,11,,76,72
38820,note_on,,1,0,7,,,,,,,,,,,,,,,,10,,76,72
38834,note_on,,14,0,7,,,,,,,,,,,,,,,,10,,76,0
38834,note_on,,14,0,8,,,,,,,,,,,,,,,,11,,76,0
38835,note_on,,1,0,8,,,,,,,,,,,,,,,,11,,77,72
38835,note_on,,1,0,7,,,,,,,,,,,,,,,,10,,77,72
38849,note_on,,14,0,8,,,,,,,,,,,,,,,,11,,77,0
38849,note_on,,14,0,7,,,,,,,,,,,,,,,,10,,77,0
38850,note_on,,1,0,7,,,,,,,,,,,,,,,,10,,74,72
38850,note_on,,1,0,8,,,,,,,,,,,,,,,,11,,74,72
38864,note_on,,14,0,7,,,,,,,,,,,,,,,,10,,74,0
38864,note_on,,14,0,8,,,,,,,,,,,,,,,,11,,74,0
38865,note_on,,1,0,8,,,,,,,,,,,,,,,,11,,76,72
38865,note_on,,1,0,7,,,,,,,,,,,,,,,,10,,76,72
38879,note_on,,119,0,10,,,,,,,,,,,,,,,,15,,55,0
38879,note_on,,14,0,7,,,,,,,,,,,,,,,,10,,76,0
38879,note_on,,0,0,10,,,,,,,,,,,,,,,,15,,58,0
38879,note_on,,119,0,5,,,,,,,,,,,,,,,,2,,55,0
38879,note_on,,119,0,9,,,,,,,,,,,,,,,,13,,55,0
38879,note_on,,14,0,8,,,,,,,,,,,,,,,,11,,76,0
38879,note_on,,0,0,10,,,,,,,,,,,,,,,,15,,70,0
38879,note_on,,0,0,10,,,,,,,,,,,,,,,,15,,79,0
38879,note_on,,0,0,10,,,,,,,,,,,,,,,,15,,76,0
38880,note_on,,1,0,8,,,,,,,,,,,,,,,,11,,77,72
38880,note_on,,1,0,9,,,,,,,,,,,,,,,,13,,56,72
38880,note_on,,0,0,10,,,,,,,,,,,,,,,,15,,72,72
38880,note_on,,0,0,10,,,,,,,,,,,,,,,,15,,68,72
38880,note_on,,1,0,5,,,,,,,,,,,,,,,,2,,56,72
38880,note_on,,1,0,10,,,,,,,,,,,,,,,,15,,56,72
38880,note_on,,1,0,7,,,,,,,,,,,,,,,,10,,77,72
38880,note_on,,0,0,10,,,,,,,,,,,,,,,,15,,65,72
38880,note_on,,0,0,10,,,,,,,,,,,,,,,,15,,60,72
38939,note_on,,59,0,8,,,,,,,,,,,,,,,,11,,77,0
38939,note_on,,59,0,7,,,,,,,,,,,,,,,,10,,77,0
38940,note_on,,1,0,8,,,,,,,,,,,,,,,,11,,80,72
38940,note_on,,1,0,7,,,,,,,,,,,,,,,,10,,80,72
38999,note_on,,119,0,10,,,,,,,,,,,,,,,,15,,56,0
38999,note_on,,0,0,10,,,,,,,,,,,,,,,,15,,68,0
38999,note_on,,119,0,9,,,,,,,,,,,,,,,,13,,56,0
38999,note_on,,0,0,10,,,,,,,,,,,,,,,,15,,65,0
38999,note_on,,119,0,5,,,,,,,,,,,,,,,,2,,56,0
38999,note_on,,0,0,10,,,,,,,,,,,,,,,,15,,60,0
38999,note_on,,59,0,7,,,,,,,,,,,,,,,,10,,80,0
38999,note_on,,59,0,8,,,,,,,,,,,,,,,,11,,80,0
38999,note_on,,0,0,10,,,,,,,,,,,,,,,,15,,72,0
39000,note_on,,0,0,10,,,,,,,,,,,,,,,,15,,55,72
39000,note_on,,1,0,10,,,,,,,,,,,,,,,,15,,47,72
39000,note_on,,1,0,8,,,,,,,,,,,,,,,,11,,79,72
39000,note_on,,0,0,10,,,,,,,,,,,,,,,,15,,67,72
39000,note_on,,0,0,10,,,,,,,,,,,,,,,,15,,62,72
39000,note_on,,1,0,9,,,,,,,,,,,,,,,,13,,47,72
39000,note_on,,1,0,7,,,,,,,,,,,,,,,,10,,79,72
39000,note_on,,1,0,5,,,,,,,,,,,,,,,,2,,47,72
39000,note_on,,0,0,10,,,,,,,,,,,,,,,,15,,74,72
39059,note_on,,59,0,8,,,,,,,,,,,,,,,,11,,79,0
39059,note_on,,59,0,7,,,,,,,,,,,,,,,,10,,79,0
39060,note_on,,1,0,8,,,,,,,,,,,,,,,,11,,74,72
39060,note_on,,1,0,7,,,,,,,,,,,,,,,,10,,74,72
39119,note_on,,0,0,10,,,,,,,,,,,,,,,,15,,55,0
39119,note_on,,119,0,5,,,,,,,,,,,,,,,,2,,47,0
39119,note_on,,0,0,10,,,,,,,,,,,,,,,,15,,67,0
39119,note_on,,0,0,10,,,,,,,,,,,,,,,,15,,74,0
39119,note_on,,119,0,10,,,,,,,,,,,,,,,,15,,47,0
39119,note_on,,59,0,8,,,,,,,,,,,,,,,,11,,74,0
39119,note_on,,59,0,7,,,,,,,,,,,,,,,,10,,74,0
39119,note_on,,119,0,9,,,,,,,,,,,,,,,,13,,47,0
39119,note_on,,0,0,10,,,,,,,,,,,,,,,,15,,62,0
39120,note_on,,1,0,10,,,,,,,,,,,,,,,,15,,48,72
39120,note_on,,0,0,10,,,,,,,,,,,,,,,,15,,67,72
39120,note_on,,1,0,7,,,,,,,,,,,,,,,,10,,75,72
39120,note_on,,1,0,9,,,,,,,,,,,,,,,,13,,48,72
39120,note_on,,1,0,5,,,,,,,,,,,,,,,,2,,48,72
39120,note_on,,0,0,10,,,,,,,,,,,,,,,,15,,55,72
39120,note_on,,1,0,8,,,,,,,,,,,,,,,,11,,75,72
39120,note_on,,0,0,10,,,,,,,,,,,,,,,,15,,60,72
39120,note_on,,0,0,10,,,,,,,,,,,,,,,,15,,63,72
39179,note_on,,59,0,8,,,,,,,,,,,,,,,,11,,75,0
39179,note_on,,59,0,7,,,,,,,,,,,,,,,,10,,75,0
39180,note_on,,1,0,8,,,,,,,,,,,,,,,,11,,71,72
39180,note_on,,1,0,7,,,,,,,,,,,,,,,,10,,71,72
39239,note_on,,119,0,10,,,,,,,,,,,,,,,,15,,48,0
39239,note_on,,0,0,10,,,,,,,,,,,,,,,,15,,67,0
39239,note_on,,0,0,10,,,,,,,,,,,,,,,,15,,63,0
39239,note_on,,0,0,10,,,,,,,,,,,,,,,,15,,60,0
39239,note_on,,0,0,10,,,,,,,,,,,,,,,,15,,55,0
39239,note_on,,59,0,7,,,,,,,,,,,,,,,,10,,71,0
39239,note_on,,119,0,5,,,,,,,,,,,,,,,,2,,48,0
39239,note_on,,59,0,8,,,,,,,,,,,,,,,,11,,71,0
39239,note_on,,119,0,9,,,,,,,,,,,,,,,,13,,48,0
39240,note_on,,1,0,8,,,,,,,,,,,,,,,,11,,72,72
39240,note_on,,1,0,7,,,,,,,,,,,,,,,,10,,72,72
39299,note_on,,59,0,8,,,,,,,,,,,,,,,,11,,72,0
39299,note_on,,59,0,7,,,,,,,,,,,,,,,,10,,72,0
39300,note_on,,61,0,5,,,,,,,,,,,,,,,,2,,53,72
39300,note_on,,0,0,10,,,,,,,,,,,,,,,,15,,60,72
39300,note_on,,0,0,10,,,,,,,,,,,,,,,,15,,65,72
39300,note_on,,1,0,7,,,,,,,,,,,,,,,,10,,68,72
39300,note_on,,61,0,10,,,,,,,,,,,,,,,,15,,53,72
39300,note_on,,61,0,9,,,,,,,,,,,,,,,,13,,53,72
39300,note_on,,1,0,8,,,,,,,,,,,,,,,,11,,68,72
39300,note_on,,0,0,10,,,,,,,,,,,,,,,,15,,68,72
39359,note_on,,59,0,9,,,,,,,,,,,,,,,,13,,53,0
39359,note_on,,59,0,7,,,,,,,,,,,,,,,,10,,68,0
39359,note_on,,0,0,10,,,,,,,,,,,,,,,,15,,68,0
39359,note_on,,59,0,8,,,,,,,,,,,,,,,,11,,68,0
39359,note_on,,59,0,10,,,,,,,,,,,,,,,,15,,53,0
39359,note_on,,0,0,10,,,,,,,,,,,,,,,,15,,65,0
39359,note_on,,0,0,10,,,,,,,,,,,,,,,,15,,60,0
39359,note_on,,59,0,5,,,,,,,,,,,,,,,,2,,53,0
39360,note_on,,0,0,10,,,,,,,,,,,,,,,,15,,67,72
39360,note_on,,1,0,8,,,,,,,,,,,,,,,,11,,67,72
39360,note_on,,1,0,7,,,,,,,,,,,,,,,,10,,67,72
39360,note_on,,1,0,10,,,,,,,,,,,,,,,,15,,55,72
39360,note_on,,1,0,5,,,,,,,,,,,,,,,,2,,55,72
39360,note_on,,1,0,9,,,,,,,,,,,,,,,,13,,55,72
39360,note_on,,0,0,10,,,,,,,,,,,,,,,,15,,62,72
39360,note_on,,0,0,10,,,,,,,,,,,,,,,,15,,59,72
39479,note_on,,0,0,10,,,,,,,,,,,,,,,,15,,67,0
39479,note_on,,119,0,9,,,,,,,,,,,,,,,,13,,55,0
39479,note_on,,119,0,10,,,,,,,,,,,,,,,,15,,55,0
39479,note_on,,119,0,5,,,,,,,,,,,,,,,,2,,55,0
39479,note_on,,0,0,10,,,,,,,,,,,,,,,,15,,59,0
39479,note_on,,0,0,10,,,,,,,,,,,,,,,,15,,62,0
39480,note_on,,1,0,5,,,,,,,,,,,,,,,,2,,43,72
39480,note_on,,0,0,10,,,,,,,,,,,,,,,,15,,55,72
39480,note_on,,1,0,10,,,,,,,,,,,,,,,,15,,43,72
39480,note_on,,0,0,10,,,,,,,,,,,,,,,,15,,74,72
39480,note_on,,0,0,10,,,,,,,,,,,,,,,,15,,71,72
39480,note_on,,1,0,9,,,,,,,,,,,,,,,,13,,43,72
39480,note_on,,0,0,10,,,,,,,,,,,,,,,,15,,67,72
39539,note_on,,179,0,7,,,,,,,,,,,,,,,,10,,67,0
39539,note_on,,179,0,8,,,,,,,,,,,,,,,,11,,67,0
39570,note_on,,31,0,7,,,,,,,,,,,,,,,,10,,83,72
39570,note_on,,31,0,8,,,,,,,,,,,,,,,,11,,83,72
39599,note_on,,119,0,9,,,,,,,,,,,,,,,,13,,43,0
39599,note_on,,29,0,7,,,,,,,,,,,,,,,,10,,83,0
39599,note_on,,119,0,5,,,,,,,,,,,,,,,,2,,43,0
39599,note_on,,0,0,10,,,,,,,,,,,,,,,,15,,55,0
39599,note_on,,0,0,10,,,,,,,,,,,,,,,,15,,67,0
39599,note_on,,0,0,10,,,,,,,,,,,,,,,,15,,71,0
39599,note_on,,0,0,10,,,,,,,,,,,,,,,,15,,74,0
39599,note_on,,119,0,10,,,,,,,,,,,,,,,,15,,43,0
39599,note_on,,29,0,8,,,,,,,,,,,,,,,,11,,83,0
39600,note_on,,1,0,7,,,,,,,,,,,,,,,,10,,84,72
39600,note_on,,1,0,9,,,,,,,,,,,,,,,,13,,48,72
39600,note_on,,0,0,10,,,,,,,,,,,,,,,,15,,75,72
39600,note_on,,0,0,10,,,,,,,,,,,,,,,,15,,55,72
39600,note_on,,0,0,10,,,,,,,,,,,,,,,,15,,67,72
39600,note_on,,0,0,10,,,,,,,,,,,,,,,,15,,72,72
39600,note_on,,1,0,10,,,,,,,,,,,,,,,,15,,48,72
39600,note_on,,1,0,8,,,,,,,,,,,,,,,,11,,84,72
39600,note_on,,1,0,5,,,,,,,,,,,,,,,,2,,48,72
39719,note_on,,119,0,8,,,,,,,,,,,,,,,,11,,84,0
39719,note_on,,119,0,7,,,,,,,,,,,,,,,,10,,84,0
39720,note_on,,1,0,8,,,,,,,,,,,,,,,,11,,72,72
39720,note_on,,1,0,7,,,,,,,,,,,,,,,,10,,72,72
39720,note_on,,1321,0,6,,,,,,,,,,,,,,,,5,,72,64
39839,note_on,,0,0,10,,,,,,,,,,,,,,,,15,,72,0
39839,note_on,,0,0,10,,,,,,,,,,,,,,,,15,,67,0
39839,note_on,,0,0,10,,,,,,,,,,,,,,,,15,,75,0
39839,note_on,,239,0,10,,,,,,,,,,,,,,,,15,,48,0
39839,note_on,,239,0,9,,,,,,,,,,,,,,,,13,,48,0
39839,note_on,,239,0,5,,,,,,,,,,,,,,,,2,,48,0
39839,note_on,,119,0,6,,,,,,,,,,,,,,,,5,,72,0
39839,note_on,,119,0,8,,,,,,,,,,,,,,,,11,,72,0
39839,note_on,,119,0,7,,,,,,,,,,,,,,,,10,,72,0
39839,note_on,,0,0,10,,,,,,,,,,,,,,,,15,,55,0
39840,note_on,,1,0,6,,,,,,,,,,,,,,,,5,,74,64
39959,note_on,,119,0,6,,,,,,,,,,,,,,,,5,,74,0
39960,note_on,,0,0,10,,,,,,,,,,,,,,,,15,,63,72
39960,note_on,,0,0,10,,,,,,,,,,,,,,,,15,,75,72
39960,note_on,,0,0,10,,,,,,,,,,,,,,,,15,,72,72
39960,note_on,,0,0,10,,,,,,,,,,,,,,,,15,,69,72
39960,note_on,,0,0,10,,,,,,,,,,,,,,,,15,,54,72
39960,note_on,,1,0,6,,,,,,,,,,,,,,,,5,,75,64
39960,note_on,,121,0,9,,,,,,,,,,,,,,,,13,,42,72
39960,note_on,,121,0,10,,,,,,,,,,,,,,,,15,,42,72
40199,note_on,,239,0,10,,,,,,,,,,,,,,,,15,,42,0
40199,note_on,,0,0,10,,,,,,,,,,,,,,,,15,,54,0
40199,note_on,,239,0,9,,,,,,,,,,,,,,,,13,,42,0
40199,note_on,,239,0,6,,,,,,,,,,,,,,,,5,,75,0
40200,note_on,,1,0,10,,,,,,,,,,,,,,,,15,,54,72
40200,note_on,,1,0,9,,,,,,,,,,,,,,,,13,,54,72
40200,note_on,,1,0,6,,,,,,,,,,,,,,,,5,,74,64
40319,note_on,,119,0,6,,,,,,,,,,,,,,,,5,,74,0
40319,note_on,,0,0,10,,,,,,,,,,,,,,,,15,,54,0
40319,note_on,,0,0,10,,,,,,,,,,,,,,,,15,,63,0
40319,note_on,,119,0,9,,,,,,,,,,,,,,,,13,,54,0
40319,note_on,,119,0,10,,,,,,,,,,,,,,,,15,,75,0
40319,note_on,,0,0,10,,,,,,,,,,,,,,,,15,,72,0
40319,note_on,,0,0,10,,,,,,,,,,,,,,,,15,,69,0
40320,note_on,,0,0,10,,,,,,,,,,,,,,,,15,,58,72
40320,note_on,,0,0,10,,,,,,,,,,,,,,,,15,,62,72
40320,note_on,,0,0,10,,,,,,,,,,,,,,,,15,,67,72
40320,note_on,,0,0,10,,,,,,,,,,,,,,,,15,,70,72
40320,note_on,,1,0,10,,,,,,,,,,,,,,,,15,,55,72
40320,note_on,,1,0,6,,,,,,,,,,,,,,,,5,,70,64
40320,note_on,,1,0,9,,,,,,,,,,,,,,,,13,,55,72
40439,note_on,,119,0,6,,,,,,,,,,,,,,,,5,,70,0
40440,note_on,,1,0,6,,,,,,,,,,,,,,,,5,,70,64
40559,note_on,,119,0,6,,,,,,,,,,,,,,,,5,,70,0
40560,note_on,,721,0,7,,,,,,,,,,,,,,,,10,,79,72
40560,note_on,,721,0,8,,,,,,,,,,,,,,,,11,,79,72
40679,note_on,,119,0,7,,,,,,,,,,,,,,,,10,,79,0
40679,note_on,,0,0,10,,,,,,,,,,,,,,,,15,,62,0
40679,note_on,,359,0,9,,,,,,,,,,,,,,,,13,,55,0
40679,note_on,,119,0,8,,,,,,,,,,,,,,,,11,,79,0
40679,note_on,,359,0,10,,,,,,,,,,,,,,,,15,,55,0
40679,note_on,,0,0,10,,,,,,,,,,,,,,,,15,,70,0
40679,note_on,,0,0,10,,,,,,,,,,,,,,,,15,,67,0
40679,note_on,,0,0,10,,,,,,,,,,,,,,,,15,,58,0
40680,note_on,,1,0,10,,,,,,,,,,,,,,,,15,,57,72
40680,note_on,,1,0,9,,,,,,,,,,,,,,,,13,,57,72
40680,note_on,,0,0,10,,,,,,,,,,,,,,,,15,,60,72
40680,note_on,,0,0,10,,,,,,,,,,,,,,,,15,,65,72
40680,note_on,,0,0,10,,,,,,,,,,,,,,,,15,,72,72
40680,note_on,,0,0,10,,,,,,,,,,,,,,,,15,,77,72
40680,note_on,,1,0,8,,,,,,,,,,,,,,,,11,,77,72
40680,note_on,,1,0,7,,,,,,,,,,,,,,,,10,,77,72
40859,note_on,,179,0,8,,,,,,,,,,,,,,,,11,,77,0
40859,note_on,,179,0,7,,,,,,,,,,,,,,,,10,,77,0
40860,note_on,,1,0,8,,,,,,,,,,,,,,,,11,,79,72
40860,note_on,,1,0,7,,,,,,,,,,,,,,,,10,,79,72
40919,note_on,,59,0,7,,,,,,,,,,,,,,,,10,,79,0
40919,note_on,,59,0,8,,,,,,,,,,,,,,,,11,,79,0
40920,note_on,,1,0,7,,,,,,,,,,,,,,,,10,,75,72
40920,note_on,,1,0,8,,,,,,,,,,,,,,,,11,,75,72
41039,note_on,,359,0,10,,,,,,,,,,,,,,,,15,,57,0
41039,note_on,,0,0,10,,,,,,,,,,,,,,,,15,,77,0
41039,note_on,,0,0,10,,,,,,,,,,,,,,,,15,,72,0
41039,note_on,,0,0,10,,,,,,,,,,,,,,,,15,,60,0
41039,note_on,,0,0,10,,,,,,,,,,,,,,,,15,,65,0
41039,note_on,,119,0,7,,,,,,,,,,,,,,,,10,,75,0
41039,note_on,,119,0,8,,,,,,,,,,,,,,,,11,,75,0
41039,note_on,,359,0,9,,,,,,,,,,,,,,,,13,,57,0
41040,note_on,,1,0,8,,,,,,,,,,,,,,,,11,,74,72
41040,note_on,,0,0,10,,,,,,,,,,,,,,,,15,,62,72
41040,note_on,,0,0,10,,,,,,,,,,,,,,,,15,,70,72
41040,note_on,,0,0,10,,,,,,,,,,,,,,,,15,,74,72
41040,note_on,,1,0,10,,,,,,,,,,,,,,,,15,,58,72
41040,note_on,,1,0,9,,,,,,,,,,,,,,,,13,,58,72
41040,note_on,,1,0,7,,,,,,,,,,,,,,,,10,,74,72
41159,note_on,,119,0,8,,,,,,,,,,,,,,,,11,,74,0
41159,note_on,,119,0,7,,,,,,,,,,,,,,,,10,,74,0
41160,note_on,,1,0,8,,,,,,,,,,,,,,,,11,,67,72
41160,note_on,,1,0,7,,,,,,,,,,,,,,,,10,,67,72
41279,note_on,,119,0,8,,,,,,,,,,,,,,,,11,,67,0
41279,note_on,,119,0,7,,,,,,,,,,,,,,,,10,,67,0
41280,note_on,,721,0,6,,,,,,,,,,,,,,,,5,,74,64
41399,note_on,,119,0,6,,,,,,,,,,,,,,,,5,,74,0
41399,note_on,,0,0,10,,,,,,,,,,,,,,,,15,,62,0
41399,note_on,,359,0,9,,,,,,,,,,,,,,,,13,,58,0
41399,note_on,,359,0,10,,,,,,,,,,,,,,,,15,,58,0
41399,note_on,,0,0,10,,,,,,,,,,,,,,,,15,,74,0
41399,note_on,,0,0,10,,,,,,,,,,,,,,,,15,,70,0
41400,note_on,,1,0,6,,,,,,,,,,,,,,,,5,,67,64
41400,note_on,,1,0,10,,,,,,,,,,,,,,,,15,,51,72
41400,note_on,,0,0,10,,,,,,,,,,,,,,,,15,,55,72
41400,note_on,,0,0,10,,,,,,,,,,,,,,,,15,,67,72
41400,note_on,,0,0,10,,,,,,,,,,,,,,,,15,,72,72
41400,note_on,,1,0,9,,,,,,,,,,,,,,,,13,,51,72
41579,note_on,,179,0,6,,,,,,,,,,,,,,,,5,,67,0
41580,note_on,,1,0,6,,,,,,,,,,,,,,,,5,,69,64
41639,note_on,,59,0,6,,,,,,,,,,,,,,,,5,,69,0
41640,note_on,,1,0,6,,,,,,,,,,,,,,,,5,,70,64
41699,note_on,,59,0,6,,,,,,,,,,,,,,,,5,,70,0
41700,note_on,,1,0,6,,,,,,,,,,,,,,,,5,,72,64
41759,note_on,,359,0,9,,,,,,,,,,,,,,,,13,,51,0
41759,note_on,,0,0,10,,,,,,,,,,,,,,,,15,,55,0
41759,note_on,,0,0,10,,,,,,,,,,,,,,,,15,,67,0
41759,note_on,,0,0,10,,,,,,,,,,,,,,,,15,,72,0
41759,note_on,,59,0,6,,,,,,,,,,,,,,,,5,,72,0
41759,note_on,,359,0,10,,,,,,,,,,,,,,,,15,,51,0
41760,note_on,,0,0,10,,,,,,,,,,,,,,,,15,,66,72
41760,note_on,,1,0,10,,,,,,,,,,,,,,,,15,,50,72
41760,note_on,,0,0,10,,,,,,,,,,,,,,,,15,,57,72
41760,note_on,,0,0,10,,,,,,,,,,,,,,,,15,,74,72
41760,note_on,,1,0,6,,,,,,,,,,,,,,,,5,,74,64
41760,note_on,,1,0,9,,,,,,,,,,,,,,,,13,,50,72
41879,note_on,,119,0,6,,,,,,,,,,,,,,,,5,,74,0
41879,note_on,,119,0,9,,,,,,,,,,,,,,,,13,,50,0
41879,note_on,,119,0,10,,,,,,,,,,,,,,,,15,,50,0
41879,note_on,,0,0,10,,,,,,,,,,,,,,,,15,,66,0
41879,note_on,,0,0,10,,,,,,,,,,,,,,,,15,,57,0
41880,note_on,,1,0,6,,,,,,,,,,,,,,,,5,,74,64
41880,note_on,,1,0,9,,,,,,,,,,,,,,,,13,,46,72
41880,note_on,,1,0,10,,,,,,,,,,,,,,,,15,,46,72
41880,note_on,,0,0,10,,,,,,,,,,,,,,,,15,,67,72
41880,note_on,,0,0,10,,,,,,,,,,,,,,,,15,,55,72
41999,note_on,,119,0,9,,,,,,,,,,,,,,,,13,,46,0
41999,note_on,,119,0,10,,,,,,,,,,,,,,,,15,,74,0
41999,note_on,,0,0,10,,,,,,,,,,,,,,,,15,,46,0
41999,note_on,,0,0,10,,,,,,,,,,,,,,,,15,,67,0
41999,note_on,,0,0,10,,,,,,,,,,,,,,,,15,,55,0
41999,note_on,,119,0,6,,,,,,,,,,,,,,,,5,,74,0
42000,note_on,,1,0,10,,,,,,,,,,,,,,,,15,,43,72
42000,note_on,,0,0,10,,,,,,,,,,,,,,,,15,,70,72
42000,note_on,,0,0,10,,,,,,,,,,,,,,,,15,,67,72
42000,note_on,,0,0,10,,,,,,,,,,,,,,,,15,,62,72
42000,note_on,,0,0,10,,,,,,,,,,,,,,,,15,,55,72
42000,note_on,,1,0,6,,,,,,,,,,,,,,,,5,,79,64
42000,note_on,,1,0,9,,,,,,,,,,,,,,,,13,,43,72
42119,note_on,,0,0,10,,,,,,,,,,,,,,,,15,,70,0
42119,note_on,,0,0,10,,,,,,,,,,,,,,,,15,,67,0
42119,note_on,,0,0,10,,,,,,,,,,,,,,,,15,,62,0
42119,note_on,,0,0,10,,,,,,,,,,,,,,,,15,,55,0
42119,note_on,,119,0,6,,,,,,,,,,,,,,,,5,,79,0
42119,note_on,,119,0,9,,,,,,,,,,,,,,,,13,,43,0
42119,note_on,,119,0,10,,,,,,,,,,,,,,,,15,,43,0
42120,note_on,,1,0,10,,,,,,,,,,,,,,,,15,,62,72
42120,note_on,,0,0,10,,,,,,,,,,,,,,,,15,,57,72
42120,note_on,,0,0,10,,,,,,,,,,,,,,,,15,,66,72
42120,note_on,,1,0,6,,,,,,,,,,,,,,,,5,,78,64
42120,note_on,,1,0,9,,,,,,,,,,,,,,,,13,,50,72
42120,note_on,,0,0,10,,,,,,,,,,,,,,,,15,,69,72
42120,note_on,,0,0,10,,,,,,,,,,,,,,,,15,,50,72
42239,note_on,,0,0,10,,,,,,,,,,,,,,,,15,,57,0
42239,note_on,,119,0,10,,,,,,,,,,,,,,,,15,,50,0
42239,note_on,,119,0,9,,,,,,,,,,,,,,,,13,,50,0
42240,note_on,,2401,0,5,,,,,,,,,,,,,,,,2,,62,72
42240,note_on,,1,0,9,,,,,,,,,,,,,,,,13,,62,72
42359,note_on,,119,0,9,,,,,,,,,,,,,,,,13,,62,0
42359,note_on,,119,0,5,,,,,,,,,,,,,,,,2,,62,0
42360,note_on,,1081,0,8,,,,,,,,,,,,,,,,11,,81,72
42360,note_on,,1,0,5,,,,,,,,,,,,,,,,2,,60,72
42360,note_on,,1,0,9,,,,,,,,,,,,,,,,13,,60,72
42360,note_on,,1081,0,7,,,,,,,,,,,,,,,,10,,81,72
42360,note_on,,121,0,10,,,,,,,,,,,,,,,,15,,60,72
42479,note_on,,119,0,5,,,,,,,,,,,,,,,,2,,60,0
42479,note_on,,119,0,9,,,,,,,,,,,,,,,,13,,60,0
42479,note_on,,119,0,10,,,,,,,,,,,,,,,,15,,62,0
42479,note_on,,0,0,10,,,,,,,,,,,,,,,,15,,60,0
42479,note_on,,0,0,10,,,,,,,,,,,,,,,,15,,66,0
42479,note_on,,0,0,10,,,,,,,,,,,,,,,,15,,69,0
42479,note_on,,119,0,7,,,,,,,,,,,,,,,,10,,81,0
42479,note_on,,359,0,6,,,,,,,,,,,,,,,,5,,78,0
42479,note_on,,119,0,8,,,,,,,,,,,,,,,,11,,81,0
42480,note_on,,1,0,7,,,,,,,,,,,,,,,,10,,86,72
42480,note_on,,1,0,9,,,,,,,,,,,,,,,,13,,58,72
42480,note_on,,0,0,10,,,,,,,,,,,,,,,,15,,67,72
42480,note_on,,0,0,10,,,,,,,,,,,,,,,,15,,74,72
42480,note_on,,0,0,10,,,,,,,,,,,,,,,,15,,79,72
42480,note_on,,1,0,10,,,,,,,,,,,,,,,,15,,58,72
42480,note_on,,1,0,5,,,,,,,,,,,,,,,,2,,58,72
42480,note_on,,1,0,8,,,,,,,,,,,,,,,,11,,86,72
42659,note_on,,179,0,7,,,,,,,,,,,,,,,,10,,86,0
42659,note_on,,179,0,9,,,,,,,,,,,,,,,,13,,58,0
42659,note_on,,179,0,5,,,,,,,,,,,,,,,,2,,58,0
42659,note_on,,179,0,8,,,,,,,,,,,,,,,,11,,86,0
42659,note_on,,179,0,10,,,,,,,,,,,,,,,,15,,58,0
42660,note_on,,1,0,5,,,,,,,,,,,,,,,,2,,57,72
42660,note_on,,1,0,7,,,,,,,,,,,,,,,,10,,84,72
42660,note_on,,1,0,10,,,,,,,,,,,,,,,,15,,57,72
42660,note_on,,1,0,9,,,,,,,,,,,,,,,,13,,57,72
42660,note_on,,1,0,8,,,,,,,,,,,,,,,,11,,84,72
42719,note_on,,59,0,5,,,,,,,,,,,,,,,,2,,57,0
42719,note_on,,59,0,9,,,,,,,,,,,,,,,,13,,57,0
42719,note_on,,59,0,10,,,,,,,,,,,,,,,,15,,57,0
42719,note_on,,59,0,8,,,,,,,,,,,,,,,,11,,84,0
42719,note_on,,59,0,7,,,,,,,,,,,,,,,,10,,84,0
42720,note_on,,1,0,7,,,,,,,,,,,,,,,,10,,82,72
42720,note_on,,1,0,10,,,,,,,,,,,,,,,,15,,55,72
42720,note_on,,1,0,9,,,,,,,,,,,,,,,,13,,55,72
42720,note_on,,1,0,5,,,,,,,,,,,,,,,,2,,55,72
42720,note_on,,1,0,8,,,,,,,,,,,,,,,,11,,82,72
42839,note_on,,119,0,10,,,,,,,,,,,,,,,,15,,79,0
42839,note_on,,0,0,10,,,,,,,,,,,,,,,,15,,74,0
42839,note_on,,119,0,9,,,,,,,,,,,,,,,,13,,55,0
42839,note_on,,0,0,10,,,,,,,,,,,,,,,,15,,67,0
42839,note_on,,119,0,5,,,,,,,,,,,,,,,,2,,55,0
42839,note_on,,119,0,8,,,,,,,,,,,,,,,,11,,82,0
42839,note_on,,0,0,10,,,,,,,,,,,,,,,,15,,55,0
42839,note_on,,119,0,7,,,,,,,,,,,,,,,,10,,82,0
42840,note_on,,0,0,10,,,,,,,,,,,,,,,,15,,66,72
42840,note_on,,0,0,10,,,,,,,,,,,,,,,,15,,69,72
42840,note_on,,0,0,10,,,,,,,,,,,,,,,,15,,74,72
42840,note_on,,1,0,9,,,,,,,,,,,,,,,,13,,62,72
42840,note_on,,1,0,5,,,,,,,,,,,,,,,,2,,62,72
42840,note_on,,1,0,10,,,,,,,,,,,,,,,,15,,62,72
42840,note_on,,1,0,7,,,,,,,,,,,,,,,,10,,81,72
42840,note_on,,1,0,8,,,,,,,,,,,,,,,,11,,81,72
42959,note_on,,119,0,8,,,,,,,,,,,,,,,,11,,81,0
42959,note_on,,119,0,7,,,,,,,,,,,,,,,,10,,81,0
42960,note_on,,1,0,7,,,,,,,,,,,,,,,,10,,74,72
42960,note_on,,1,0,8,,,,,,,,,,,,,,,,11,,74,72
43079,note_on,,239,0,10,,,,,,,,,,,,,,,,15,,62,0
43079,note_on,,239,0,5,,,,,,,,,,,,,,,,2,,62,0
43079,note_on,,119,0,8,,,,,,,,,,,,,,,,11,,74,0
43079,note_on,,239,0,9,,,,,,,,,,,,,,,,13,,62,0
43079,note_on,,119,0,7,,,,,,,,,,,,,,,,10,,74,0
43080,note_on,,1,0,7,,,,,,,,,,,,,,,,10,,66,48
43080,note_on,,601,0,6,,,,,,,,,,,,,,,,5,,69,64
43080,note_on,,1,0,10,,,,,,,,,,,,,,,,15,,50,48
43080,note_on,,1,0,8,,,,,,,,,,,,,,,,11,,66,48
43080,note_on,,1,0,9,,,,,,,,,,,,,,,,13,,50,48
43199,note_on,,119,0,6,,,,,,,,,,,,,,,,5,,69,0
43199,note_on,,119,0,10,,,,,,,,,,,,,,,,15,,74,0
43199,note_on,,119,0,7,,,,,,,,,,,,,,,,10,,66,0
43199,note_on,,119,0,9,,,,,,,,,,,,,,,,13,,50,0
43199,note_on,,0,0,10,,,,,,,,,,,,,,,,15,,69,0
43199,note_on,,0,0,10,,,,,,,,,,,,,,,,15,,66,0
43199,note_on,,119,0,8,,,,,,,,,,,,,,,,11,,66,0
43199,note_on,,0,0,10,,,,,,,,,,,,,,,,15,,50,0
43200,note_on,,1,0,10,,,,,,,,,,,,,,,,15,,48,48
43200,note_on,,0,0,10,,,,,,,,,,,,,,,,15,,69,48
43200,note_on,,1,0,9,,,,,,,,,,,,,,,,13,,48,48
43200,note_on,,0,0,10,,,,,,,,,,,,,,,,15,,62,48
43200,note_on,,1,0,8,,,,,,,,,,,,,,,,11,,66,48
43200,note_on,,1,0,6,,,,,,,,,,,,,,,,5,,69,64
43200,note_on,,1,0,7,,,,,,,,,,,,,,,,10,,66,48
43200,note_on,,0,0,10,,,,,,,,,,,,,,,,15,,66,48
43319,note_on,,119,0,6,,,,,,,,,,,,,,,,5,,69,0
43320,note_on,,1,0,6,,,,,,,,,,,,,,,,5,,69,64
43439,note_on,,239,0,8,,,,,,,,,,,,,,,,11,,66,0
43439,note_on,,239,0,7,,,,,,,,,,,,,,,,10,,66,0
43439,note_on,,119,0,6,,,,,,,,,,,,,,,,5,,69,0
43439,note_on,,0,0,10,,,,,,,,,,,,,,,,15,,69,0
43439,note_on,,0,0,10,,,,,,,,,,,,,,,,15,,66,0
43439,note_on,,239,0,9,,,,,,,,,,,,,,,,13,,48,0
43439,note_on,,0,0,10,,,,,,,,,,,,,,,,15,,62,0
43439,note_on,,239,0,10,,,,,,,,,,,,,,,,15,,48,0
43440,note_on,,1,0,6,,,,,,,,,,,,,,,,5,,75,64
43440,note_on,,1,0,8,,,,,,,,,,,,,,,,11,,66,48
43440,note_on,,1,0,9,,,,,,,,,,,,,,,,13,,48,48
43440,note_on,,1,0,10,,,,,,,,,,,,,,,,15,,48,48
43440,note_on,,0,0,10,,,,,,,,,,,,,,,,15,,69,48
43440,note_on,,1,0,7,,,,,,,,,,,,,,,,10,,66,48
43440,note_on,,0,0,10,,,,,,,,,,,,,,,,15,,66,48
43559,note_on,,0,0,10,,,,,,,,,,,,,,,,15,,66,0
43559,note_on,,0,0,10,,,,,,,,,,,,,,,,15,,69,0
43559,note_on,,119,0,7,,,,,,,,,,,,,,,,10,,66,0
43559,note_on,,119,0,6,,,,,,,,,,,,,,,,5,,75,0
43559,note_on,,119,0,9,,,,,,,,,,,,,,,,13,,48,0
43559,note_on,,119,0,8,,,,,,,,,,,,,,,,11,,66,0
43559,note_on,,119,0,10,,,,,,,,,,,,,,,,15,,48,0
43560,note_on,,1,0,6,,,,,,,,,,,,,,,,5,,74,64
43560,note_on,,1,0,8,,,,,,,,,,,,,,,,11,,67,48
43560,note_on,,1,0,9,,,,,,,,,,,,,,,,13,,46,48
43560,note_on,,0,0,10,,,,,,,,,,,,,,,,15,,67,48
43560,note_on,,1,0,10,,,,,,,,,,,,,,,,15,,46,48
43560,note_on,,0,0,10,,,,,,,,,,,,,,,,15,,70,48
43560,note_on,,0,0,10,,,,,,,,,,,,,,,,15,,62,48
43560,note_on,,1,0,7,,,,,,,,,,,,,,,,10,,67,48
43679,note_on,,119,0,6,,,,,,,,,,,,,,,,5,,74,0
43679,note_on,,119,0,9,,,,,,,,,,,,,,,,13,,46,0
43679,note_on,,119,0,10,,,,,,,,,,,,,,,,15,,46,0
43679,note_on,,0,0,10,,,,,,,,,,,,,,,,15,,70,0
43679,note_on,,0,0,10,,,,,,,,,,,,,,,,15,,62,0
43680,note_on,,1,0,9,,,,,,,,,,,,,,,,13,,45,48
43680,note_on,,1,0,6,,,,,,,,,,,,,,,,5,,72,64
43680,note_on,,1,0,10,,,,,,,,,,,,,,,,15,,45,48
43680,note_on,,0,0,10,,,,,,,,,,,,,,,,15,,72,48
43680,note_on,,0,0,10,,,,,,,,,,,,,,,,15,,60,48
43799,note_on,,119,0,9,,,,,,,,,,,,,,,,13,,45,0
43799,note_on,,239,0,8,,,,,,,,,,,,,,,,11,,67,0
43799,note_on,,0,0,10,,,,,,,,,,,,,,,,15,,45,0
43799,note_on,,119,0,10,,,,,,,,,,,,,,,,15,,67,0
43799,note_on,,239,0,7,,,,,,,,,,,,,,,,10,,67,0
43799,note_on,,119,0,6,,,,,,,,,,,,,,,,5,,72,0
43800,note_on,,1,0,6,,,,,,,,,,,,,,,,5,,70,64
43800,note_on,,0,0,10,,,,,,,,,,,,,,,,15,,66,48
43800,note_on,,1,0,10,,,,,,,,,,,,,,,,15,,50,48
43800,note_on,,1,0,9,,,,,,,,,,,,,,,,13,,50,48
43800,note_on,,1,0,8,,,,,,,,,,,,,,,,11,,66,48
43800,note_on,,1,0,7,,,,,,,,,,,,,,,,10,,66,48
43859,note_on,,59,0,6,,,,,,,,,,,,,,,,5,,70,0
43860,note_on,,1,0,6,,,,,,,,,,,,,,,,5,,69,64
43919,note_on,,59,0,6,,,,,,,,,,,,,,,,5,,69,0
43919,note_on,,119,0,8,,,,,,,,,,,,,,,,11,,66,0
43919,note_on,,119,0,7,,,,,,,,,,,,,,,,10,,66,0
43919,note_on,,0,0,10,,,,,,,,,,,,,,,,15,,66,0
43919,note_on,,0,0,10,,,,,,,,,,,,,,,,15,,50,0
43919,note_on,,119,0,9,,,,,,,,,,,,,,,,13,,50,0
43919,note_on,,119,0,10,,,,,,,,,,,,,,,,15,,72,0
43919,note_on,,0,0,10,,,,,,,,,,,,,,,,15,,60,0
43920,note_on,,0,0,10,,,,,,,,,,,,,,,,15,,62,48
43920,note_on,,0,0,10,,,,,,,,,,,,,,,,15,,67,48
43920,note_on,,0,0,10,,,,,,,,,,,,,,,,15,,70,48
43920,note_on,,1,0,10,,,,,,,,,,,,,,,,15,,43,48
43920,note_on,,1,0,8,,,,,,,,,,,,,,,,11,,67,48
43920,note_on,,1,0,6,,,,,,,,,,,,,,,,5,,70,64
43920,note_on,,1,0,7,,,,,,,,,,,,,,,,10,,67,48
43920,note_on,,1,0,9,,,,,,,,,,,,,,,,13,,43,48
44159,note_on,,239,0,6,,,,,,,,,,,,,,,,5,,70,0
44159,note_on,,239,0,9,,,,,,,,,,,,,,,,13,,43,0
44159,note_on,,0,0,10,,,,,,,,,,,,,,,,15,,62,0
44159,note_on,,0,0,10,,,,,,,,,,,,,,,,15,,67,0
44159,note_on,,239,0,10,,,,,,,,,,,,,,,,15,,43,0
44159,note_on,,239,0,8,,,,,,,,,,,,,,,,11,,67,0
44159,note_on,,0,0,10,,,,,,,,,,,,,,,,15,,70,0
44159,note_on,,239,0,7,,,,,,,,,,,,,,,,10,,67,0
44160,note_on,,1,0,8,,,,,,,,,,,,,,,,11,,74,48
44160,note_on,,1,0,7,,,,,,,,,,,,,,,,10,,74,48
44279,note_on,,119,0,8,,,,,,,,,,,,,,,,11,,74,0
44279,note_on,,119,0,7,,,,,,,,,,,,,,,,10,,74,0
44280,note_on,,1,0,7,,,,,,,,,,,,,,,,10,,79,48
44280,note_on,,1,0,8,,,,,,,,,,,,,,,,11,,79,48
44520,note_on,,0,0,10,,,,,,,,,,,,,,,,15,,67,48
44520,note_on,,361,0,9,,,,,,,,,,,,,,,,13,,55,48
44520,note_on,,361,0,6,,,,,,,,,,,,,,,,5,,74,64
44520,note_on,,0,0,10,,,,,,,,,,,,,,,,15,,62,48
44520,note_on,,361,0,10,,,,,,,,,,,,,,,,15,,55,48
44520,note_on,,0,0,10,,,,,,,,,,,,,,,,15,,70,48
44639,note_on,,119,0,9,,,,,,,,,,,,,,,,13,,55,0
44639,note_on,,0,0,10,,,,,,,,,,,,,,,,15,,62,0
44639,note_on,,0,0,10,,,,,,,,,,,,,,,,15,,67,0
44639,note_on,,119,0,6,,,,,,,,,,,,,,,,5,,74,0
44639,note_on,,0,0,10,,,,,,,,,,,,,,,,15,,70,0
44639,note_on,,119,0,10,,,,,,,,,,,,,,,,15,,55,0
44640,note_on,,1,0,6,,,,,,,,,,,,,,,,5,,67,64
44640,note_on,,0,0,10,,,,,,,,,,,,,,,,15,,62,48
44640,note_on,,0,0,10,,,,,,,,,,,,,,,,15,,67,48
44640,note_on,,0,0,10,,,,,,,,,,,,,,,,15,,74,48
44640,note_on,,1,0,10,,,,,,,,,,,,,,,,15,,46,48
44640,note_on,,1,0,9,,,,,,,,,,,,,,,,13,,46,48
44759,note_on,,119,0,6,,,,,,,,,,,,,,,,5,,67,0
44760,note_on,,1,0,6,,,,,,,,,,,,,,,,5,,74,64
44879,note_on,,239,0,9,,,,,,,,,,,,,,,,13,,46,0
44879,note_on,,239,0,10,,,,,,,,,,,,,,,,15,,46,0
44880,note_on,,1,0,10,,,,,,,,,,,,,,,,15,,58,48
44880,note_on,,1,0,9,,,,,,,,,,,,,,,,13,,58,48
44939,note_on,,179,0,6,,,,,,,,,,,,,,,,5,,74,0
44940,note_on,,1,0,6,,,,,,,,,,,,,,,,5,,74,64
44999,note_on,,0,0,10,,,,,,,,,,,,,,,,15,,58,0
44999,note_on,,59,0,6,,,,,,,,,,,,,,,,5,,74,0
44999,note_on,,119,0,9,,,,,,,,,,,,,,,,13,,58,0
44999,note_on,,0,0,10,,,,,,,,,,,,,,,,15,,62,0
44999,note_on,,0,0,10,,,,,,,,,,,,,,,,15,,67,0
44999,note_on,,119,0,10,,,,,,,,,,,,,,,,15,,74,0
45000,note_on,,1,0,9,,,,,,,,,,,,,,,,13,,60,48
45000,note_on,,1,0,6,,,,,,,,,,,,,,,,5,,75,64
45000,note_on,,0,0,10,,,,,,,,,,,,,,,,15,,63,48
45000,note_on,,0,0,10,,,,,,,,,,,,,,,,15,,67,48
45000,note_on,,1,0,10,,,,,,,,,,,,,,,,15,,60,48
45119,note_on,,119,0,6,,,,,,,,,,,,,,,,5,,75,0
45120,note_on,,1,0,6,,,,,,,,,,,,,,,,5,,75,64
45239,note_on,,239,0,10,,,,,,,,,,,,,,,,15,,60,0
45239,note_on,,119,0,6,,,,,,,,,,,,,,,,5,,75,0
45239,note_on,,239,0,9,,,,,,,,,,,,,,,,13,,60,0
45240,note_on,,1,0,10,,,,,,,,,,,,,,,,15,,58,48
45240,note_on,,1,0,6,,,,,,,,,,,,,,,,5,,74,64
45240,note_on,,1,0,9,,,,,,,,,,,,,,,,13,,58,48
45359,note_on,,119,0,6,,,,,,,,,,,,,,,,5,,74,0
45359,note_on,,1079,0,7,,,,,,,,,,,,,,,,10,,79,0
45359,note_on,,1079,0,8,,,,,,,,,,,,,,,,11,,79,0
45359,note_on,,119,0,9,,,,,,,,,,,,,,,,13,,58,0
45359,note_on,,119,0,10,,,,,,,,,,,,,,,,15,,67,0
45359,note_on,,0,0,10,,,,,,,,,,,,,,,,15,,63,0
45359,note_on,,0,0,10,,,,,,,,,,,,,,,,15,,58,0
45360,note_on,,1,0,6,,,,,,,,,,,,,,,,5,,72,64
45360,note_on,,1,0,8,,,,,,,,,,,,,,,,11,,77,48
45360,note_on,,1,0,7,,,,,,,,,,,,,,,,10,,77,48
45360,note_on,,1,0,9,,,,,,,,,,,,,,,,13,,57,48
45360,note_on,,0,0,10,,,,,,,,,,,,,,,,15,,72,48
45360,note_on,,0,0,10,,,,,,,,,,,,,,,,15,,65,48
45360,note_on,,0,0,10,,,,,,,,,,,,,,,,15,,60,48
45360,note_on,,1,0,10,,,,,,,,,,,,,,,,15,,57,48
45479,note_on,,119,0,6,,,,,,,,,,,,,,,,5,,72,0
45599,note_on,,0,0,10,,,,,,,,,,,,,,,,15,,60,0
45599,note_on,,0,0,10,,,,,,,,,,,,,,,,15,,65,0
45599,note_on,,0,0,10,,,,,,,,,,,,,,,,15,,72,0
45599,note_on,,239,0,10,,,,,,,,,,,,,,,,15,,57,0
45599,note_on,,239,0,9,,,,,,,,,,,,,,,,13,,57,0
45600,note_on,,121,0,6,,,,,,,,,,,,,,,,5,,72,64
45719,note_on,,119,0,6,,,,,,,,,,,,,,,,5,,72,0
45720,note_on,,0,0,10,,,,,,,,,,,,,,,,15,,69,48
45720,note_on,,1,0,6,,,,,,,,,,,,,,,,5,,65,64
45720,note_on,,0,0,10,,,,,,,,,,,,,,,,15,,72,48
45720,note_on,,121,0,10,,,,,,,,,,,,,,,,15,,45,48
45720,note_on,,0,0,10,,,,,,,,,,,,,,,,15,,77,48
45720,note_on,,121,0,9,,,,,,,,,,,,,,,,13,,45,48
45839,note_on,,119,0,6,,,,,,,,,,,,,,,,5,,65,0
45840,note_on,,1,0,6,,,,,,,,,,,,,,,,5,,72,64
45959,note_on,,239,0,10,,,,,,,,,,,,,,,,15,,45,0
45959,note_on,,239,0,9,,,,,,,,,,,,,,,,13,,45,0
45960,note_on,,1,0,10,,,,,,,,,,,,,,,,15,,57,48
45960,note_on,,1,0,9,,,,,,,,,,,,,,,,13,,57,48
46019,note_on,,179,0,6,,,,,,,,,,,,,,,,5,,72,0
46020,note_on,,1,0,6,,,,,,,,,,,,,,,,5,,72,64
46079,note_on,,0,0,10,,,,,,,,,,,,,,,,15,,72,0
46079,note_on,,0,0,10,,,,,,,,,,,,,,,,15,,57,0
46079,note_on,,0,0,10,,,,,,,,,,,,,,,,15,,69,0
46079,note_on,,119,0,10,,,,,,,,,,,,,,,,15,,77,0
46079,note_on,,119,0,9,,,,,,,,,,,,,,,,13,,57,0
46079,note_on,,59,0,6,,,,,,,,,,,,,,,,5,,72,0
46080,note_on,,0,0,10,,,,,,,,,,,,,,,,15,,70,48
46080,note_on,,0,0,10,,,,,,,,,,,,,,,,15,,65,48
46080,note_on,,1,0,10,,,,,,,,,,,,,,,,15,,58,48
46080,note_on,,0,0,10,,,,,,,,,,,,,,,,15,,74,48
46080,note_on,,1,0,6,,,,,,,,,,,,,,,,5,,74,64
46080,note_on,,1,0,9,,,,,,,,,,,,,,,,13,,58,48
46199,note_on,,119,0,6,,,,,,,,,,,,,,,,5,,74,0
46200,note_on,,1,0,6,,,,,,,,,,,,,,,,5,,74,64
46319,note_on,,959,0,8,,,,,,,,,,,,,,,,11,,77,0
46319,note_on,,239,0,9,,,,,,,,,,,,,,,,13,,58,0
46319,note_on,,119,0,6,,,,,,,,,,,,,,,,5,,74,0
46319,note_on,,959,0,7,,,,,,,,,,,,,,,,10,,77,0
46319,note_on,,239,0,10,,,,,,,,,,,,,,,,15,,58,0
46319,note_on,,0,0,10,,,,,,,,,,,,,,,,15,,70,0
46319,note_on,,0,0,10,,,,,,,,,,,,,,,,15,,65,0
46320,note_on,,1,0,7,,,,,,,,,,,,,,,,10,,78,48
46320,note_on,,1,0,9,,,,,,,,,,,,,,,,13,,57,48
46320,note_on,,1,0,10,,,,,,,,,,,,,,,,15,,57,48
46320,note_on,,0,0,10,,,,,,,,,,,,,,,,15,,72,48
46320,note_on,,0,0,10,,,,,,,,,,,,,,,,15,,66,48
46320,note_on,,1,0,8,,,,,,,,,,,,,,,,11,,78,48
46320,note_on,,1,0,6,,,,,,,,,,,,,,,,5,,72,64
46439,note_on,,119,0,10,,,,,,,,,,,,,,,,15,,74,0
46439,note_on,,0,0,10,,,,,,,,,,,,,,,,15,,66,0
46439,note_on,,119,0,8,,,,,,,,,,,,,,,,11,,78,0
46439,note_on,,0,0,10,,,,,,,,,,,,,,,,15,,72,0
46439,note_on,,119,0,9,,,,,,,,,,,,,,,,13,,57,0
46439,note_on,,0,0,10,,,,,,,,,,,,,,,,15,,57,0
46439,note_on,,119,0,6,,,,,,,,,,,,,,,,5,,72,0
46439,note_on,,119,0,7,,,,,,,,,,,,,,,,10,,78,0
46440,note_on,,1,0,6,,,,,,,,,,,,,,,,5,,70,64
46440,note_on,,0,0,10,,,,,,,,,,,,,,,,15,,67,48
46440,note_on,,1,0,8,,,,,,,,,,,,,,,,11,,79,48
46440,note_on,,1,0,7,,,,,,,,,,,,,,,,10,,79,48
46440,note_on,,1,0,10,,,,,,,,,,,,,,,,15,,55,48
46440,note_on,,0,0,10,,,,,,,,,,,,,,,,15,,70,48
46440,note_on,,1,0,9,,,,,,,,,,,,,,,,13,,55,48
46440,note_on,,0,0,10,,,,,,,,,,,,,,,,15,,62,48
46559,note_on,,119,0,6,,,,,,,,,,,,,,,,5,,70,0
46560,note_on,,1,0,6,,,,,,,,,,,,,,,,5,,69,64
46679,note_on,,0,0,10,,,,,,,,,,,,,,,,15,,67,0
46679,note_on,,239,0,10,,,,,,,,,,,,,,,,15,,70,0
46679,note_on,,239,0,7,,,,,,,,,,,,,,,,10,,79,0
46679,note_on,,239,0,8,,,,,,,,,,,,,,,,11,,79,0
46679,note_on,,119,0,6,,,,,,,,,,,,,,,,5,,69,0
46679,note_on,,0,0,10,,,,,,,,,,,,,,,,15,,62,0
46680,note_on,,1,0,8,,,,,,,,,,,,,,,,11,,74,48
46680,note_on,,0,0,10,,,,,,,,,,,,,,,,15,,70,48
46680,note_on,,1,0,6,,,,,,,,,,,,,,,,5,,67,64
46680,note_on,,0,0,10,,,,,,,,,,,,,,,,15,,74,48
46680,note_on,,1,0,10,,,,,,,,,,,,,,,,15,,79,48
46680,note_on,,1,0,7,,,,,,,,,,,,,,,,10,,74,48
46799,note_on,,119,0,7,,,,,,,,,,,,,,,,10,,74,0
46799,note_on,,119,0,10,,,,,,,,,,,,,,,,15,,55,0
46799,note_on,,0,0,10,,,,,,,,,,,,,,,,15,,79,0
46799,note_on,,0,0,10,,,,,,,,,,,,,,,,15,,74,0
46799,note_on,,0,0,10,,,,,,,,,,,,,,,,15,,70,0
46799,note_on,,359,0,9,,,,,,,,,,,,,,,,13,,55,0
46799,note_on,,119,0,6,,,,,,,,,,,,,,,,5,,67,0
46799,note_on,,119,0,8,,,,,,,,,,,,,,,,11,,74,0
46800,note_on,,1,0,9,,,,,,,,,,,,,,,,13,,48,48
46800,note_on,,1,0,7,,,,,,,,,,,,,,,,10,,72,48
46800,note_on,,1,0,8,,,,,,,,,,,,,,,,11,,72,48
46800,note_on,,0,0,10,,,,,,,,,,,,,,,,15,,72,48
46800,note_on,,0,0,10,,,,,,,,,,,,,,,,15,,67,48
46800,note_on,,0,0,10,,,,,,,,,,,,,,,,15,,75,48
46800,note_on,,1,0,10,,,,,,,,,,,,,,,,15,,48,48
46800,note_on,,0,0,10,,,,,,,,,,,,,,,,15,,55,48
46800,note_on,,1,0,6,,,,,,,,,,,,,,,,5,,75,64
46859,note_on,,59,0,8,,,,,,,,,,,,,,,,11,,72,0
46859,note_on,,59,0,6,,,,,,,,,,,,,,,,5,,75,0
46859,note_on,,59,0,7,,,,,,,,,,,,,,,,10,,72,0
46860,note_on,,1,0,8,,,,,,,,,,,,,,,,11,,70,48
46860,note_on,,1,0,7,,,,,,,,,,,,,,,,10,,70,48
46860,note_on,,1,0,6,,,,,,,,,,,,,,,,5,,74,64
46919,note_on,,59,0,6,,,,,,,,,,,,,,,,5,,74,0
46919,note_on,,59,0,8,,,,,,,,,,,,,,,,11,,70,0
46919,note_on,,59,0,7,,,,,,,,,,,,,,,,10,,70,0
46920,note_on,,1,0,7,,,,,,,,,,,,,,,,10,,69,48
46920,note_on,,1,0,6,,,,,,,,,,,,,,,,5,,72,64
46920,note_on,,1,0,8,,,,,,,,,,,,,,,,11,,69,48
47039,note_on,,239,0,9,,,,,,,,,,,,,,,,13,,48,0
47039,note_on,,119,0,7,,,,,,,,,,,,,,,,10,,69,0
47039,note_on,,119,0,8,,,,,,,,,,,,,,,,11,,69,0
47039,note_on,,0,0,10,,,,,,,,,,,,,,,,15,,67,0
47039,note_on,,119,0,6,,,,,,,,,,,,,,,,5,,72,0
47039,note_on,,0,0,10,,,,,,,,,,,,,,,,15,,72,0
47039,note_on,,239,0,10,,,,,,,,,,,,,,,,15,,48,0
47039,note_on,,0,0,10,,,,,,,,,,,,,,,,15,,75,0
47040,note_on,,1,0,7,,,,,,,,,,,,,,,,10,,67,48
47040,note_on,,1,0,9,,,,,,,,,,,,,,,,13,,49,48
47040,note_on,,1,0,8,,,,,,,,,,,,,,,,11,,67,48
47040,note_on,,1,0,6,,,,,,,,,,,,,,,,5,,70,64
47040,note_on,,0,0,10,,,,,,,,,,,,,,,,15,,67,48
47040,note_on,,0,0,10,,,,,,,,,,,,,,,,15,,70,48
47040,note_on,,1,0,10,,,,,,,,,,,,,,,,15,,49,48
47159,note_on,,0,0,10,,,,,,,,,,,,,,,,15,,67,0
47159,note_on,,119,0,7,,,,,,,,,,,,,,,,10,,67,0
47159,note_on,,0,0,10,,,,,,,,,,,,,,,,15,,70,0
47159,note_on,,0,0,10,,,,,,,,,,,,,,,,15,,49,0
47159,note_on,,119,0,10,,,,,,,,,,,,,,,,15,,55,0
47159,note_on,,119,0,9,,,,,,,,,,,,,,,,13,,49,0
47159,note_on,,119,0,6,,,,,,,,,,,,,,,,5,,70,0
47159,note_on,,119,0,8,,,,,,,,,,,,,,,,11,,67,0
47160,note_on,,1,0,10,,,,,,,,,,,,,,,,15,,50,48
47160,note_on,,1,0,6,,,,,,,,,,,,,,,,5,,69,64
47160,note_on,,0,0,10,,,,,,,,,,,,,,,,15,,69,48
47160,note_on,,1,0,9,,,,,,,,,,,,,,,,13,,50,48
47160,note_on,,0,0,10,,,,,,,,,,,,,,,,15,,66,48
47160,note_on,,0,0,10,,,,,,,,,,,,,,,,15,,62,48
47160,note_on,,1,0,8,,,,,,,,,,,,,,,,11,,66,48
47160,note_on,,1,0,7,,,,,,,,,,,,,,,,10,,66,48
47339,note_on,,179,0,8,,,,,,,,,,,,,,,,11,,66,0
47339,note_on,,179,0,7,,,,,,,,,,,,,,,,10,,66,0
47340,note_on,,1,0,7,,,,,,,,,,,,,,,,10,,64,48
47340,note_on,,1,0,8,,,,,,,,,,,,,,,,11,,64,48
47399,note_on,,59,0,7,,,,,,,,,,,,,,,,10,,64,0
47399,note_on,,59,0,8,,,,,,,,,,,,,,,,11,,64,0
47399,note_on,,0,0,10,,,,,,,,,,,,,,,,15,,62,0
47399,note_on,,0,0,10,,,,,,,,,,,,,,,,15,,66,0
47399,note_on,,0,0,10,,,,,,,,,,,,,,,,15,,69,0
47399,note_on,,239,0,10,,,,,,,,,,,,,,,,15,,50,0
47399,note_on,,239,0,9,,,,,,,,,,,,,,,,13,,50,0
47399,note_on,,239,0,6,,,,,,,,,,,,,,,,5,,69,0
47400,note_on,,1,0,8,,,,,,,,,,,,,,,,11,,62,48
47400,note_on,,0,0,10,,,,,,,,,,,,,,,,15,,69,48
47400,note_on,,1,0,9,,,,,,,,,,,,,,,,13,,54,48
47400,note_on,,1,0,6,,,,,,,,,,,,,,,,5,,69,64
47400,note_on,,0,0,10,,,,,,,,,,,,,,,,15,,62,48
47400,note_on,,1,0,7,,,,,,,,,,,,,,,,10,,62,48
47400,note_on,,0,0,10,,,,,,,,,,,,,,,,15,,74,48
47400,note_on,,1,0,10,,,,,,,,,,,,,,,,15,,54,48
47519,note_on,,119,0,7,,,,,,,,,,,,,,,,10,,62,0
47519,note_on,,119,0,8,,,,,,,,,,,,,,,,11,,62,0
47519,note_on,,119,0,10,,,,,,,,,,,,,,,,15,,54,0
47519,note_on,,0,0,10,,,,,,,,,,,,,,,,15,,74,0
47519,note_on,,0,0,10,,,,,,,,,,,,,,,,15,,69,0
47519,note_on,,0,0,10,,,,,,,,,,,,,,,,15,,62,0
47519,note_on,,119,0,9,,,,,,,,,,,,,,,,13,,54,0
47519,note_on,,119,0,6,,,,,,,,,,,,,,,,5,,69,0
47520,note_on,,0,0,10,,,,,,,,,,,,,,,,15,,62,48
47520,note_on,,0,0,10,,,,,,,,,,,,,,,,15,,70,48
47520,note_on,,0,0,10,,,,,,,,,,,,,,,,15,,67,48
47520,note_on,,1,0,6,,,,,,,,,,,,,,,,5,,70,64
47520,note_on,,1,0,10,,,,,,,,,,,,,,,,15,,55,48
47520,note_on,,1,0,9,,,,,,,,,,,,,,,,13,,55,48
47639,note_on,,0,0,10,,,,,,,,,,,,,,,,15,,62,0
47639,note_on,,119,0,9,,,,,,,,,,,,,,,,13,,55,0
47639,note_on,,119,0,10,,,,,,,,,,,,,,,,15,,55,0
47639,note_on,,119,0,6,,,,,,,,,,,,,,,,5,,70,0
47640,note_on,,1,0,9,,,,,,,,,,,,,,,,13,,57,48
47640,note_on,,1,0,6,,,,,,,,,,,,,,,,5,,69,64
47640,note_on,,1,0,10,,,,,,,,,,,,,,,,15,,57,48
47640,note_on,,0,0,10,,,,,,,,,,,,,,,,15,,60,48
47759,note_on,,119,0,9,,,,,,,,,,,,,,,,13,,57,0
47759,note_on,,119,0,6,,,,,,,,,,,,,,,,5,,69,0
47759,note_on,,0,0,10,,,,,,,,,,,,,,,,15,,67,0
47759,note_on,,0,0,10,,,,,,,,,,,,,,,,15,,57,0
47759,note_on,,0,0,10,,,,,,,,,,,,,,,,15,,60,0
47759,note_on,,119,0,10,,,,,,,,,,,,,,,,15,,70,0
47760,note_on,,0,0,10,,,,,,,,,,,,,,,,15,,74,48
47760,note_on,,0,0,10,,,,,,,,,,,,,,,,15,,62,48
47760,note_on,,0,0,10,,,,,,,,,,,,,,,,15,,67,48
47760,note_on,,1,0,6,,,,,,,,,,,,,,,,5,,67,64
47760,note_on,,1,0,9,,,,,,,,,,,,,,,,13,,58,48
47760,note_on,,241,0,7,,,,,,,,,,,,,,,,10,,74,48
47760,note_on,,241,0,8,,,,,,,,,,,,,,,,11,,74,48
47760,note_on,,1,0,10,,,,,,,,,,,,,,,,15,,58,48
47879,note_on,,0,0,10,,,,,,,,,,,,,,,,15,,74,0
47879,note_on,,0,0,10,,,,,,,,,,,,,,,,15,,67,0
47879,note_on,,0,0,10,,,,,,,,,,,,,,,,15,,62,0
47879,note_on,,119,0,10,,,,,,,,,,,,,,,,15,,58,0
47879,note_on,,119,0,8,,,,,,,,,,,,,,,,11,,74,0
47879,note_on,,119,0,7,,,,,,,,,,,,,,,,10,,74,0
47879,note_on,,119,0,6,,,,,,,,,,,,,,,,5,,67,0
47879,note_on,,119,0,9,,,,,,,,,,,,,,,,13,,58,0
47880,note_on,,1,0,6,,,,,,,,,,,,,,,,5,,75,64
47880,note_on,,0,0,10,,,,,,,,,,,,,,,,15,,60,48
47880,note_on,,0,0,10,,,,,,,,,,,,,,,,15,,67,48
47880,note_on,,1,0,9,,,,,,,,,,,,,,,,13,,48,48
47880,note_on,,0,0,10,,,,,,,,,,,,,,,,15,,72,48
47880,note_on,,1,0,7,,,,,,,,,,,,,,,,10,,75,48
47880,note_on,,1,0,8,,,,,,,,,,,,,,,,11,,75,48
47880,note_on,,0,0,10,,,,,,,,,,,,,,,,15,,75,48
47880,note_on,,1,0,10,,,,,,,,,,,,,,,,15,,48,48
47939,note_on,,59,0,7,,,,,,,,,,,,,,,,10,,75,0
47939,note_on,,59,0,8,,,,,,,,,,,,,,,,11,,75,0
47940,note_on,,1,0,8,,,,,,,,,,,,,,,,11,,79,48
47940,note_on,,1,0,7,,,,,,,,,,,,,,,,10,,79,48
47999,note_on,,0,0,10,,,,,,,,,,,,,,,,15,,60,0
47999,note_on,,0,0,10,,,,,,,,,,,,,,,,15,,67,0
47999,note_on,,119,0,10,,,,,,,,,,,,,,,,15,,48,0
47999,note_on,,0,0,10,,,,,,,,,,,,,,,,15,,75,0
47999,note_on,,0,0,10,,,,,,,,,,,,,,,,15,,72,0
47999,note_on,,59,0,8,,,,,,,,,,,,,,,,11,,79,0
47999,note_on,,119,0,9,,,,,,,,,,,,,,,,13,,48,0
47999,note_on,,59,0,7,,,,,,,,,,,,,,,,10,,79,0
48000,note_on,,1,0,8,,,,,,,,,,,,,,,,11,,72,48
48000,note_on,,1,0,7,,,,,,,,,,,,,,,,10,,72,48
48059,note_on,,59,0,7,,,,,,,,,,,,,,,,10,,72,0
48059,note_on,,59,0,8,,,,,,,,,,,,,,,,11,,72,0
48060,note_on,,1,0,7,,,,,,,,,,,,,,,,10,,75,48
48060,note_on,,1,0,8,,,,,,,,,,,,,,,,11,,75,48
48119,note_on,,59,0,7,,,,,,,,,,,,,,,,10,,75,0
48119,note_on,,59,0,8,,,,,,,,,,,,,,,,11,,75,0
48120,note_on,,1,0,8,,,,,,,,,,,,,,,,11,,69,48
48120,note_on,,1,0,7,,,,,,,,,,,,,,,,10,,69,48
48179,note_on,,59,0,7,,,,,,,,,,,,,,,,10,,69,0
48179,note_on,,59,0,8,,,,,,,,,,,,,,,,11,,69,0
48180,note_on,,1,0,7,,,,,,,,,,,,,,,,10,,72,48
48180,note_on,,1,0,8,,,,,,,,,,,,,,,,11,,72,48
48239,note_on,,59,0,7,,,,,,,,,,,,,,,,10,,72,0
48239,note_on,,59,0,8,,,,,,,,,,,,,,,,11,,72,0
48240,note_on,,0,0,10,,,,,,,,,,,,,,,,15,,77,48
48240,note_on,,1,0,7,,,,,,,,,,,,,,,,10,,65,48
48240,note_on,,1,0,8,,,,,,,,,,,,,,,,11,,65,48
48240,note_on,,241,0,9,,,,,,,,,,,,,,,,13,,57,48
48240,note_on,,241,0,10,,,,,,,,,,,,,,,,15,,57,48
48240,note_on,,0,0,10,,,,,,,,,,,,,,,,15,,60,48
48240,note_on,,0,0,10,,,,,,,,,,,,,,,,15,,65,48
48240,note_on,,0,0,10,,,,,,,,,,,,,,,,15,,72,48
48299,note_on,,419,0,6,,,,,,,,,,,,,,,,5,,75,0
48300,note_on,,1,0,6,,,,,,,,,,,,,,,,5,,79,64
48359,note_on,,59,0,6,,,,,,,,,,,,,,,,5,,79,0
48359,note_on,,0,0,10,,,,,,,,,,,,,,,,15,,60,0
48359,note_on,,119,0,9,,,,,,,,,,,,,,,,13,,57,0
48359,note_on,,0,0,10,,,,,,,,,,,,,,,,15,,72,0
48359,note_on,,0,0,10,,,,,,,,,,,,,,,,15,,77,0
48359,note_on,,119,0,10,,,,,,,,,,,,,,,,15,,57,0
48359,note_on,,119,0,8,,,,,,,,,,,,,,,,11,,65,0
48359,note_on,,119,0,7,,,,,,,,,,,,,,,,10,,65,0
48359,note_on,,0,0,10,,,,,,,,,,,,,,,,15,,65,0
48360,note_on,,1,0,6,,,,,,,,,,,,,,,,5,,77,64
48419,note_on,,59,0,6,,,,,,,,,,,,,,,,5,,77,0
48420,note_on,,1,0,6,,,,,,,,,,,,,,,,5,,75,64
48479,note_on,,59,0,6,,,,,,,,,,,,,,,,5,,75,0
48480,note_on,,1,0,6,,,,,,,,,,,,,,,,5,,74,64
48539,note_on,,59,0,6,,,,,,,,,,,,,,,,5,,74,0
48540,note_on,,1,0,6,,,,,,,,,,,,,,,,5,,72,64
48599,note_on,,59,0,6,,,,,,,,,,,,,,,,5,,72,0
48600,note_on,,241,0,7,,,,,,,,,,,,,,,,10,,74,48
48600,note_on,,1,0,6,,,,,,,,,,,,,,,,5,,74,64
48600,note_on,,241,0,8,,,,,,,,,,,,,,,,11,,74,48
48600,note_on,,0,0,10,,,,,,,,,,,,,,,,15,,74,48
48600,note_on,,241,0,9,,,,,,,,,,,,,,,,13,,46,48
48600,note_on,,241,0,10,,,,,,,,,,,,,,,,15,,46,48
48600,note_on,,0,0,10,,,,,,,,,,,,,,,,15,,53,48
48600,note_on,,0,0,10,,,,,,,,,,,,,,,,15,,65,48
48600,note_on,,0,0,10,,,,,,,,,,,,,,,,15,,70,48
48659,note_on,,59,0,7,,,,,,,,,,,,,,,,10,,74,0
48659,note_on,,59,0,8,,,,,,,,,,,,,,,,11,,74,0
48660,note_on,,1,0,7,,,,,,,,,,,,,,,,10,,77,48
48660,note_on,,1,0,8,,,,,,,,,,,,,,,,11,,77,48
48719,note_on,,119,0,9,,,,,,,,,,,,,,,,13,,46,0
48719,note_on,,0,0,10,,,,,,,,,,,,,,,,15,,53,0
48719,note_on,,119,0,10,,,,,,,,,,,,,,,,15,,46,0
48719,note_on,,59,0,7,,,,,,,,,,,,,,,,10,,77,0
48719,note_on,,59,0,8,,,,,,,,,,,,,,,,11,,77,0
48719,note_on,,0,0,10,,,,,,,,,,,,,,,,15,,65,0
48719,note_on,,0,0,10,,,,,,,,,,,,,,,,15,,70,0
48719,note_on,,0,0,10,,,,,,,,,,,,,,,,15,,74,0
48720,note_on,,1,0,8,,,,,,,,,,,,,,,,11,,70,48
48720,note_on,,1,0,7,,,,,,,,,,,,,,,,10,,70,48
48779,note_on,,59,0,7,,,,,,,,,,,,,,,,10,,70,0
48779,note_on,,59,0,8,,,,,,,,,,,,,,,,11,,70,0
48780,note_on,,1,0,8,,,,,,,,,,,,,,,,11,,74,48
48780,note_on,,1,0,7,,,,,,,,,,,,,,,,10,,74,48
48839,note_on,,59,0,8,,,,,,,,,,,,,,,,11,,74,0
48839,note_on,,59,0,7,,,,,,,,,,,,,,,,10,,74,0
48840,note_on,,1,0,7,,,,,,,,,,,,,,,,10,,67,48
48840,note_on,,1,0,8,,,,,,,,,,,,,,,,11,,67,48
48899,note_on,,59,0,8,,,,,,,,,,,,,,,,11,,67,0
48899,note_on,,59,0,7,,,,,,,,,,,,,,,,10,,67,0
48900,note_on,,1,0,7,,,,,,,,,,,,,,,,10,,70,48
48900,note_on,,1,0,8,,,,,,,,,,,,,,,,11,,70,48
48959,note_on,,59,0,8,,,,,,,,,,,,,,,,11,,70,0
48959,note_on,,59,0,7,,,,,,,,,,,,,,,,10,,70,0
48960,note_on,,241,0,10,,,,,,,,,,,,,,,,15,,55,48
48960,note_on,,0,0,10,,,,,,,,,,,,,,,,15,,75,48
48960,note_on,,0,0,10,,,,,,,,,,,,,,,,15,,70,48
48960,note_on,,1,0,7,,,,,,,,,,,,,,,,10,,63,48
48960,note_on,,241,0,9,,,,,,,,,,,,,,,,13,,55,48
48960,note_on,,1,0,8,,,,,,,,,,,,,,,,11,,63,48
48960,note_on,,0,0,10,,,,,,,,,,,,,,,,15,,67,48
48960,note_on,,0,0,10,,,,,,,,,,,,,,,,15,,58,48
49019,note_on,,419,0,6,,,,,,,,,,,,,,,,5,,74,0
49020,note_on,,1,0,6,,,,,,,,,,,,,,,,5,,77,64
49079,note_on,,0,0,10,,,,,,,,,,,,,,,,15,,58,0
49079,note_on,,0,0,10,,,,,,,,,,,,,,,,15,,67,0
49079,note_on,,0,0,10,,,,,,,,,,,,,,,,15,,70,0
49079,note_on,,119,0,8,,,,,,,,,,,,,,,,11,,63,0
49079,note_on,,119,0,10,,,,,,,,,,,,,,,,15,,55,0
49079,note_on,,59,0,6,,,,,,,,,,,,,,,,5,,77,0
49079,note_on,,0,0,10,,,,,,,,,,,,,,,,15,,75,0
49079,note_on,,119,0,9,,,,,,,,,,,,,,,,13,,55,0
49079,note_on,,119,0,7,,,,,,,,,,,,,,,,10,,63,0
49080,note_on,,1,0,6,,,,,,,,,,,,,,,,5,,75,64
49139,note_on,,59,0,6,,,,,,,,,,,,,,,,5,,75,0
49140,note_on,,1,0,6,,,,,,,,,,,,,,,,5,,74,64
49199,note_on,,59,0,6,,,,,,,,,,,,,,,,5,,74,0
49200,note_on,,1,0,6,,,,,,,,,,,,,,,,5,,72,64
49259,note_on,,59,0,6,,,,,,,,,,,,,,,,5,,72,0
49260,note_on,,1,0,6,,,,,,,,,,,,,,,,5,,70,64
49319,note_on,,59,0,6,,,,,,,,,,,,,,,,5,,70,0
49320,note_on,,241,0,10,,,,,,,,,,,,,,,,15,,45,48
49320,note_on,,241,0,7,,,,,,,,,,,,,,,,10,,72,48
49320,note_on,,0,0,10,,,,,,,,,,,,,,,,15,,72,48
49320,note_on,,0,0,10,,,,,,,,,,,,,,,,15,,69,48
49320,note_on,,0,0,10,,,,,,,,,,,,,,,,15,,57,48
49320,note_on,,1,0,6,,,,,,,,,,,,,,,,5,,72,64
49320,note_on,,241,0,8,,,,,,,,,,,,,,,,11,,72,48
49320,note_on,,241,0,9,,,,,,,,,,,,,,,,13,,45,48
49379,note_on,,59,0,7,,,,,,,,,,,,,,,,10,,72,0
49379,note_on,,59,0,8,,,,,,,,,,,,,,,,11,,72,0
49380,note_on,,1,0,7,,,,,,,,,,,,,,,,10,,75,48
49380,note_on,,1,0,8,,,,,,,,,,,,,,,,11,,75,48
49439,note_on,,59,0,7,,,,,,,,,,,,,,,,10,,75,0
49439,note_on,,59,0,8,,,,,,,,,,,,,,,,11,,75,0
49439,note_on,,0,0,10,,,,,,,,,,,,,,,,15,,57,0
49439,note_on,,0,0,10,,,,,,,,,,,,,,,,15,,69,0
49439,note_on,,119,0,9,,,,,,,,,,,,,,,,13,,45,0
49439,note_on,,119,0,10,,,,,,,,,,,,,,,,15,,45,0
49439,note_on,,0,0,10,,,,,,,,,,,,,,,,15,,72,0
49440,note_on,,1,0,8,,,,,,,,,,,,,,,,11,,69,48
49440,note_on,,1,0,7,,,,,,,,,,,,,,,,10,,69,48
49499,note_on,,59,0,7,,,,,,,,,,,,,,,,10,,69,0
49499,note_on,,59,0,8,,,,,,,,,,,,,,,,11,,69,0
49500,note_on,,1,0,7,,,,,,,,,,,,,,,,10,,72,48
49500,note_on,,1,0,8,,,,,,,,,,,,,,,,11,,72,48
49559,note_on,,59,0,7,,,,,,,,,,,,,,,,10,,72,0
49559,note_on,,59,0,8,,,,,,,,,,,,,,,,11,,72,0
49560,note_on,,1,0,7,,,,,,,,,,,,,,,,10,,66,48
49560,note_on,,1,0,8,,,,,,,,,,,,,,,,11,,66,48
49619,note_on,,59,0,8,,,,,,,,,,,,,,,,11,,66,0
49619,note_on,,59,0,7,,,,,,,,,,,,,,,,10,,66,0
49620,note_on,,1,0,7,,,,,,,,,,,,,,,,10,,69,48
49620,note_on,,1,0,8,,,,,,,,,,,,,,,,11,,69,48
49679,note_on,,59,0,7,,,,,,,,,,,,,,,,10,,69,0
49679,note_on,,59,0,8,,,,,,,,,,,,,,,,11,,69,0
49680,note_on,,241,0,9,,,,,,,,,,,,,,,,13,,54,48
49680,note_on,,1,0,7,,,,,,,,,,,,,,,,10,,62,48
49680,note_on,,1,0,8,,,,,,,,,,,,,,,,11,,62,48
49680,note_on,,0,0,10,,,,,,,,,,,,,,,,15,,57,48
49680,note_on,,0,0,10,,,,,,,,,,,,,,,,15,,54,48
49680,note_on,,0,0,10,,,,,,,,,,,,,,,,15,,62,48
49680,note_on,,241,0,10,,,,,,,,,,,,,,,,15,,69,48
49680,note_on,,0,0,10,,,,,,,,,,,,,,,,15,,74,48
49739,note_on,,419,0,6,,,,,,,,,,,,,,,,5,,72,0
49740,note_on,,1,0,6,,,,,,,,,,,,,,,,5,,75,64
49799,note_on,,59,0,6,,,,,,,,,,,,,,,,5,,75,0
49799,note_on,,0,0,10,,,,,,,,,,,,,,,,15,,57,0
49799,note_on,,119,0,8,,,,,,,,,,,,,,,,11,,62,0
49799,note_on,,0,0,10,,,,,,,,,,,,,,,,15,,74,0
49799,note_on,,119,0,9,,,,,,,,,,,,,,,,13,,54,0
49799,note_on,,0,0,10,,,,,,,,,,,,,,,,15,,54,0
49799,note_on,,119,0,10,,,,,,,,,,,,,,,,15,,69,0
49799,note_on,,119,0,7,,,,,,,,,,,,,,,,10,,62,0
49799,note_on,,0,0,10,,,,,,,,,,,,,,,,15,,62,0
49800,note_on,,1,0,6,,,,,,,,,,,,,,,,5,,74,64
49859,note_on,,59,0,6,,,,,,,,,,,,,,,,5,,74,0
49860,note_on,,1,0,6,,,,,,,,,,,,,,,,5,,72,64
49919,note_on,,59,0,6,,,,,,,,,,,,,,,,5,,72,0
49920,note_on,,1,0,6,,,,,,,,,,,,,,,,5,,70,64
49979,note_on,,59,0,6,,,,,,,,,,,,,,,,5,,70,0
49980,note_on,,1,0,6,,,,,,,,,,,,,,,,5,,69,64
50039,note_on,,59,0,6,,,,,,,,,,,,,,,,5,,69,0
50040,note_on,,241,0,10,,,,,,,,,,,,,,,,15,,55,48
50040,note_on,,0,0,10,,,,,,,,,,,,,,,,15,,70,48
50040,note_on,,0,0,10,,,,,,,,,,,,,,,,15,,67,48
50040,note_on,,241,0,9,,,,,,,,,,,,,,,,13,,55,48
50040,note_on,,1,0,6,,,,,,,,,,,,,,,,5,,70,64
50040,note_on,,0,0,10,,,,,,,,,,,,,,,,15,,62,48
50040,note_on,,0,0,10,,,,,,,,,,,,,,,,15,,58,48
50099,note_on,,59,0,6,,,,,,,,,,,,,,,,5,,70,0
50100,note_on,,1,0,6,,,,,,,,,,,,,,,,5,,69,64
50159,note_on,,0,0,10,,,,,,,,,,,,,,,,15,,67,0
50159,note_on,,0,0,10,,,,,,,,,,,,,,,,15,,58,0
50159,note_on,,0,0,10,,,,,,,,,,,,,,,,15,,62,0
50159,note_on,,119,0,10,,,,,,,,,,,,,,,,15,,55,0
50159,note_on,,0,0,10,,,,,,,,,,,,,,,,15,,70,0
50159,note_on,,59,0,6,,,,,,,,,,,,,,,,5,,69,0
50159,note_on,,119,0,9,,,,,,,,,,,,,,,,13,,55,0
50160,note_on,,1,0,6,,,,,,,,,,,,,,,,5,,67,64
50219,note_on,,59,0,6,,,,,,,,,,,,,,,,5,,67,0
50220,note_on,,1,0,6,,,,,,,,,,,,,,,,5,,70,64
50279,note_on,,59,0,6,,,,,,,,,,,,,,,,5,,70,0
50280,note_on,,1,0,6,,,,,,,,,,,,,,,,5,,69,64
50339,note_on,,59,0,6,,,,,,,,,,,,,,,,5,,69,0
50340,note_on,,1,0,6,,,,,,,,,,,,,,,,5,,70,64
50399,note_on,,59,0,6,,,,,,,,,,,,,,,,5,,70,0
50400,note_on,,241,0,10,,,,,,,,,,,,,,,,15,,57,48
50400,note_on,,0,0,10,,,,,,,,,,,,,,,,15,,60,48
50400,note_on,,0,0,10,,,,,,,,,,,,,,,,15,,66,48
50400,note_on,,0,0,10,,,,,,,,,,,,,,,,15,,69,48
50400,note_on,,241,0,9,,,,,,,,,,,,,,,,13,,57,48
50400,note_on,,1,0,6,,,,,,,,,,,,,,,,5,,72,64
50459,note_on,,59,0,6,,,,,,,,,,,,,,,,5,,72,0
50460,note_on,,1,0,6,,,,,,,,,,,,,,,,5,,70,64
50519,note_on,,0,0,10,,,,,,,,,,,,,,,,15,,66,0
50519,note_on,,119,0,9,,,,,,,,,,,,,,,,13,,57,0
50519,note_on,,0,0,10,,,,,,,,,,,,,,,,15,,60,0
50519,note_on,,0,0,10,,,,,,,,,,,,,,,,15,,69,0
50519,note_on,,119,0,10,,,,,,,,,,,,,,,,15,,57,0
50519,note_on,,59,0,6,,,,,,,,,,,,,,,,5,,70,0
50520,note_on,,1,0,6,,,,,,,,,,,,,,,,5,,69,64
50579,note_on,,59,0,6,,,,,,,,,,,,,,,,5,,69,0
50580,note_on,,1,0,6,,,,,,,,,,,,,,,,5,,72,64
50639,note_on,,59,0,6,,,,,,,,,,,,,,,,5,,72,0
50640,note_on,,1,0,6,,,,,,,,,,,,,,,,5,,70,64
50699,note_on,,59,0,6,,,,,,,,,,,,,,,,5,,70,0
50700,note_on,,1,0,6,,,,,,,,,,,,,,,,5,,72,64
50759,note_on,,59,0,6,,,,,,,,,,,,,,,,5,,72,0
50760,note_on,,0,0,10,,,,,,,,,,,,,,,,15,,58,48
50760,note_on,,241,0,10,,,,,,,,,,,,,,,,15,,74,48
50760,note_on,,0,0,10,,,,,,,,,,,,,,,,15,,67,48
50760,note_on,,0,0,10,,,,,,,,,,,,,,,,15,,62,48
50760,note_on,,0,0,10,,,,,,,,,,,,,,,,15,,79,48
50760,note_on,,1,0,6,,,,,,,,,,,,,,,,5,,74,64
50760,note_on,,241,0,9,,,,,,,,,,,,,,,,13,,58,48
50879,note_on,,119,0,10,,,,,,,,,,,,,,,,15,,74,0
50879,note_on,,0,0,10,,,,,,,,,,,,,,,,15,,58,0
50879,note_on,,0,0,10,,,,,,,,,,,,,,,,15,,79,0
50879,note_on,,0,0,10,,,,,,,,,,,,,,,,15,,62,0
50879,note_on,,0,0,10,,,,,,,,,,,,,,,,15,,67,0
50879,note_on,,119,0,6,,,,,,,,,,,,,,,,5,,74,0
50879,note_on,,119,0,9,,,,,,,,,,,,,,,,13,,58,0
50880,note_on,,1,0,6,,,,,,,,,,,,,,,,5,,67,64
50970,note_on,,1171,0,7,,,,,,,,,,,,,,,,10,,81,72
50970,note_on,,1171,0,8,,,,,,,,,,,,,,,,11,,81,72
50999,note_on,,29,0,7,,,,,,,,,,,,,,,,10,,81,0
50999,note_on,,119,0,6,,,,,,,,,,,,,,,,5,,67,0
50999,note_on,,29,0,8,,,,,,,,,,,,,,,,11,,81,0
51000,note_on,,7921,0,5,,,,,,,,,,,,,,,,2,,54,48
51000,note_on,,1,0,7,,,,,,,,,,,,,,,,10,,81,72
51000,note_on,,121,0,9,,,,,,,,,,,,,,,,13,,54,48
51000,note_on,,1,0,8,,,,,,,,,,,,,,,,11,,81,72
51000,note_on,,121,0,10,,,,,,,,,,,,,,,,15,,54,48
51000,note_on,,0,0,10,,,,,,,,,,,,,,,,15,,74,48
51000,note_on,,0,0,10,,,,,,,,,,,,,,,,15,,69,48
51000,note_on,,0,0,10,,,,,,,,,,,,,,,,15,,57,48
51014,note_on,,14,0,8,,,,,,,,,,,,,,,,11,,81,0
51014,note_on,,14,0,7,,,,,,,,,,,,,,,,10,,81,0
51015,note_on,,1,0,8,,,,,,,,,,,,,,,,11,,82,72
51015,note_on,,1,0,7,,,,,,,,,,,,,,,,10,,82,72
51029,note_on,,14,0,7,,,,,,,,,,,,,,,,10,,82,0
51029,note_on,,14,0,8,,,,,,,,,,,,,,,,11,,82,0
51030,note_on,,1,0,7,,,,,,,,,,,,,,,,10,,81,72
51030,note_on,,1,0,8,,,,,,,,,,,,,,,,11,,81,72
51044,note_on,,14,0,7,,,,,,,,,,,,,,,,10,,81,0
51044,note_on,,14,0,8,,,,,,,,,,,,,,,,11,,81,0
51045,note_on,,1,0,8,,,,,,,,,,,,,,,,11,,82,72
51045,note_on,,1,0,7,,,,,,,,,,,,,,,,10,,82,72
51059,note_on,,14,0,8,,,,,,,,,,,,,,,,11,,82,0
51059,note_on,,14,0,7,,,,,,,,,,,,,,,,10,,82,0
51060,note_on,,1,0,7,,,,,,,,,,,,,,,,10,,81,72
51060,note_on,,1,0,8,,,,,,,,,,,,,,,,11,,81,72
51074,note_on,,14,0,8,,,,,,,,,,,,,,,,11,,81,0
51074,note_on,,14,0,7,,,,,,,,,,,,,,,,10,,81,0
51075,note_on,,1,0,8,,,,,,,,,,,,,,,,11,,82,72
51075,note_on,,1,0,7,,,,,,,,,,,,,,,,10,,82,72
51089,note_on,,14,0,8,,,,,,,,,,,,,,,,11,,82,0
51089,note_on,,14,0,7,,,,,,,,,,,,,,,,10,,82,0
51090,note_on,,1,0,8,,,,,,,,,,,,,,,,11,,79,72
51090,note_on,,1,0,7,,,,,,,,,,,,,,,,10,,79,72
51104,note_on,,14,0,8,,,,,,,,,,,,,,,,11,,79,0
51104,note_on,,14,0,7,,,,,,,,,,,,,,,,10,,79,0
51105,note_on,,1,0,8,,,,,,,,,,,,,,,,11,,81,72
51105,note_on,,1,0,7,,,,,,,,,,,,,,,,10,,81,72
51119,note_on,,0,0,10,,,,,,,,,,,,,,,,15,,74,0
51119,note_on,,0,0,10,,,,,,,,,,,,,,,,15,,69,0
51119,note_on,,0,0,10,,,,,,,,,,,,,,,,15,,57,0
51119,note_on,,119,0,10,,,,,,,,,,,,,,,,15,,54,0
51119,note_on,,14,0,8,,,,,,,,,,,,,,,,11,,81,0
51119,note_on,,119,0,9,,,,,,,,,,,,,,,,13,,54,0
51119,note_on,,14,0,7,,,,,,,,,,,,,,,,10,,81,0
51119,note_on,,119,0,5,,,,,,,,,,,,,,,,2,,54,0
51120,note_on,,1,0,10,,,,,,,,,,,,,,,,15,,55,48
51120,note_on,,0,0,10,,,,,,,,,,,,,,,,15,,62,48
51120,note_on,,0,0,10,,,,,,,,,,,,,,,,15,,58,48
51120,note_on,,0,0,10,,,,,,,,,,,,,,,,15,,67,48
51120,note_on,,1,0,8,,,,,,,,,,,,,,,,11,,82,72
51120,note_on,,1,0,9,,,,,,,,,,,,,,,,13,,55,48
51120,note_on,,0,0,10,,,,,,,,,,,,,,,,15,,70,48
51120,note_on,,1,0,5,,,,,,,,,,,,,,,,2,,55,48
51120,note_on,,1,0,7,,,,,,,,,,,,,,,,10,,82,72
51239,note_on,,119,0,9,,,,,,,,,,,,,,,,13,,55,0
51239,note_on,,0,0,10,,,,,,,,,,,,,,,,15,,58,0
51239,note_on,,0,0,10,,,,,,,,,,,,,,,,15,,62,0
51239,note_on,,0,0,10,,,,,,,,,,,,,,,,15,,67,0
51239,note_on,,0,0,10,,,,,,,,,,,,,,,,15,,70,0
51239,note_on,,119,0,10,,,,,,,,,,,,,,,,15,,55,0
51239,note_on,,119,0,5,,,,,,,,,,,,,,,,2,,55,0
51299,note_on,,179,0,8,,,,,,,,,,,,,,,,11,,82,0
51299,note_on,,179,0,7,,,,,,,,,,,,,,,,10,,82,0
51330,note_on,,31,0,7,,,,,,,,,,,,,,,,10,,78,72
51330,note_on,,31,0,8,,,,,,,,,,,,,,,,11,,78,72
51359,note_on,,29,0,8,,,,,,,,,,,,,,,,11,,78,0
51359,note_on,,29,0,7,,,,,,,,,,,,,,,,10,,78,0
51360,note_on,,1,0,7,,,,,,,,,,,,,,,,10,,78,72
51360,note_on,,0,0,10,,,,,,,,,,,,,,,,15,,78,48
51360,note_on,,121,0,10,,,,,,,,,,,,,,,,15,,57,48
51360,note_on,,0,0,10,,,,,,,,,,,,,,,,15,,81,48
51360,note_on,,0,0,10,,,,,,,,,,,,,,,,15,,60,48
51360,note_on,,0,0,10,,,,,,,,,,,,,,,,15,,72,48
51360,note_on,,1,0,8,,,,,,,,,,,,,,,,11,,78,72
51360,note_on,,121,0,5,,,,,,,,,,,,,,,,2,,57,48
51360,note_on,,121,0,9,,,,,,,,,,,,,,,,13,,57,48
51374,note_on,,14,0,7,,,,,,,,,,,,,,,,10,,78,0
51374,note_on,,14,0,8,,,,,,,,,,,,,,,,11,,78,0
51375,note_on,,1,0,8,,,,,,,,,,,,,,,,11,,79,72
51375,note_on,,1,0,7,,,,,,,,,,,,,,,,10,,79,72
51389,note_on,,14,0,7,,,,,,,,,,,,,,,,10,,79,0
51389,note_on,,14,0,8,,,,,,,,,,,,,,,,11,,79,0
51390,note_on,,1,0,7,,,,,,,,,,,,,,,,10,,78,72
51390,note_on,,1,0,8,,,,,,,,,,,,,,,,11,,78,72
51404,note_on,,14,0,8,,,,,,,,,,,,,,,,11,,78,0
51404,note_on,,14,0,7,,,,,,,,,,,,,,,,10,,78,0
51405,note_on,,1,0,7,,,,,,,,,,,,,,,,10,,79,72
51405,note_on,,1,0,8,,,,,,,,,,,,,,,,11,,79,72
51419,note_on,,14,0,7,,,,,,,,,,,,,,,,10,,79,0
51419,note_on,,14,0,8,,,,,,,,,,,,,,,,11,,79,0
51420,note_on,,1,0,8,,,,,,,,,,,,,,,,11,,78,72
51420,note_on,,1,0,7,,,,,,,,,,,,,,,,10,,78,72
51434,note_on,,14,0,7,,,,,,,,,,,,,,,,10,,78,0
51434,note_on,,14,0,8,,,,,,,,,,,,,,,,11,,78,0
51435,note_on,,1,0,7,,,,,,,,,,,,,,,,10,,79,72
51435,note_on,,1,0,8,,,,,,,,,,,,,,,,11,,79,72
51449,note_on,,14,0,8,,,,,,,,,,,,,,,,11,,79,0
51449,note_on,,14,0,7,,,,,,,,,,,,,,,,10,,79,0
51450,note_on,,1,0,8,,,,,,,,,,,,,,,,11,,76,72
51450,note_on,,1,0,7,,,,,,,,,,,,,,,,10,,76,72
51464,note_on,,14,0,7,,,,,,,,,,,,,,,,10,,76,0
51464,note_on,,14,0,8,,,,,,,,,,,,,,,,11,,76,0
51465,note_on,,1,0,8,,,,,,,,,,,,,,,,11,,78,72
51465,note_on,,1,0,7,,,,,,,,,,,,,,,,10,,78,72
51479,note_on,,14,0,7,,,,,,,,,,,,,,,,10,,78,0
51479,note_on,,14,0,8,,,,,,,,,,,,,,,,11,,78,0
51479,note_on,,119,0,9,,,,,,,,,,,,,,,,13,,57,0
51479,note_on,,119,0,5,,,,,,,,,,,,,,,,2,,57,0
51479,note_on,,0,0,10,,,,,,,,,,,,,,,,15,,81,0
51479,note_on,,119,0,10,,,,,,,,,,,,,,,,15,,57,0
51479,note_on,,0,0,10,,,,,,,,,,,,,,,,15,,60,0
51479,note_on,,0,0,10,,,,,,,,,,,,,,,,15,,78,0
51479,note_on,,0,0,10,,,,,,,,,,,,,,,,15,,72,0
51480,note_on,,0,0,10,,,,,,,,,,,,,,,,15,,74,48
51480,note_on,,0,0,10,,,,,,,,,,,,,,,,15,,62,48
51480,note_on,,1,0,8,,,,,,,,,,,,,,,,11,,79,72
51480,note_on,,1,0,10,,,,,,,,,,,,,,,,15,,58,48
51480,note_on,,1,0,5,,,,,,,,,,,,,,,,2,,58,48
51480,note_on,,1,0,7,,,,,,,,,,,,,,,,10,,79,72
51480,note_on,,0,0,10,,,,,,,,,,,,,,,,15,,67,48
51480,note_on,,1,0,9,,,,,,,,,,,,,,,,13,,58,48
51599,note_on,,119,0,10,,,,,,,,,,,,,,,,15,,58,0
51599,note_on,,119,0,5,,,,,,,,,,,,,,,,2,,58,0
51599,note_on,,0,0,10,,,,,,,,,,,,,,,,15,,74,0
51599,note_on,,0,0,10,,,,,,,,,,,,,,,,15,,67,0
51599,note_on,,0,0,10,,,,,,,,,,,,,,,,15,,62,0
51599,note_on,,119,0,8,,,,,,,,,,,,,,,,11,,79,0
51599,note_on,,119,0,9,,,,,,,,,,,,,,,,13,,58,0
51599,note_on,,119,0,7,,,,,,,,,,,,,,,,10,,79,0
51600,note_on,,1,0,8,,,,,,,,,,,,,,,,11,,74,72
51600,note_on,,1,0,7,,,,,,,,,,,,,,,,10,,74,72
51719,note_on,,119,0,7,,,,,,,,,,,,,,,,10,,74,0
51719,note_on,,119,0,8,,,,,,,,,,,,,,,,11,,74,0
51720,note_on,,121,0,10,,,,,,,,,,,,,,,,15,,59,48
51720,note_on,,0,0,10,,,,,,,,,,,,,,,,15,,79,48
51720,note_on,,121,0,9,,,,,,,,,,,,,,,,13,,59,48
51720,note_on,,0,0,10,,,,,,,,,,,,,,,,15,,62,48
51720,note_on,,0,0,10,,,,,,,,,,,,,,,,15,,67,48
51720,note_on,,0,0,10,,,,,,,,,,,,,,,,15,,74,48
51720,note_on,,721,0,6,,,,,,,,,,,,,,,,5,,74,64
51839,note_on,,0,0,10,,,,,,,,,,,,,,,,15,,62,0
51839,note_on,,0,0,10,,,,,,,,,,,,,,,,15,,67,0
51839,note_on,,0,0,10,,,,,,,,,,,,,,,,15,,74,0
51839,note_on,,0,0,10,,,,,,,,,,,,,,,,15,,79,0
51839,note_on,,119,0,10,,,,,,,,,,,,,,,,15,,59,0
51839,note_on,,119,0,6,,,,,,,,,,,,,,,,5,,74,0
51839,note_on,,119,0,9,,,,,,,,,,,,,,,,13,,59,0
51840,note_on,,1,0,6,,,,,,,,,,,,,,,,5,,75,64
51840,note_on,,1,0,9,,,,,,,,,,,,,,,,13,,60,48
51840,note_on,,0,0,10,,,,,,,,,,,,,,,,15,,75,48
51840,note_on,,0,0,10,,,,,,,,,,,,,,,,15,,72,48
51840,note_on,,0,0,10,,,,,,,,,,,,,,,,15,,67,48
51840,note_on,,0,0,10,,,,,,,,,,,,,,,,15,,63,48
51840,note_on,,1,0,10,,,,,,,,,,,,,,,,15,,60,48
51959,note_on,,119,0,10,,,,,,,,,,,,,,,,15,,60,0
51959,note_on,,0,0,10,,,,,,,,,,,,,,,,15,,75,0
51959,note_on,,0,0,10,,,,,,,,,,,,,,,,15,,67,0
51959,note_on,,0,0,10,,,,,,,,,,,,,,,,15,,63,0
51959,note_on,,119,0,9,,,,,,,,,,,,,,,,13,,60,0
51959,note_on,,119,0,6,,,,,,,,,,,,,,,,5,,75,0
51959,note_on,,0,0,10,,,,,,,,,,,,,,,,15,,72,0
51960,note_on,,1,0,6,,,,,,,,,,,,,,,,5,,71,64
52080,note_on,,361,0,8,,,,,,,,,,,,,,,,11,,74,48
52080,note_on,,0,0,10,,,,,,,,,,,,,,,,15,,67,48
52080,note_on,,0,0,10,,,,,,,,,,,,,,,,15,,62,48
52080,note_on,,0,0,10,,,,,,,,,,,,,,,,15,,71,48
52080,note_on,,121,0,9,,,,,,,,,,,,,,,,13,,55,48
52080,note_on,,121,0,10,,,,,,,,,,,,,,,,15,,55,48
52080,note_on,,361,0,7,,,,,,,,,,,,,,,,10,,74,48
52139,note_on,,179,0,6,,,,,,,,,,,,,,,,5,,71,0
52140,note_on,,1,0,6,,,,,,,,,,,,,,,,5,,71,64
52199,note_on,,59,0,6,,,,,,,,,,,,,,,,5,,71,0
52199,note_on,,119,0,7,,,,,,,,,,,,,,,,10,,74,0
52199,note_on,,119,0,10,,,,,,,,,,,,,,,,15,,55,0
52199,note_on,,0,0,10,,,,,,,,,,,,,,,,15,,71,0
52199,note_on,,0,0,10,,,,,,,,,,,,,,,,15,,67,0
52199,note_on,,0,0,10,,,,,,,,,,,,,,,,15,,62,0
52199,note_on,,119,0,8,,,,,,,,,,,,,,,,11,,74,0
52199,note_on,,119,0,9,,,,,,,,,,,,,,,,13,,55,0
52200,note_on,,0,0,10,,,,,,,,,,,,,,,,15,,63,48
52200,note_on,,0,0,10,,,,,,,,,,,,,,,,15,,60,48
52200,note_on,,1,0,7,,,,,,,,,,,,,,,,10,,75,48
52200,note_on,,1,0,9,,,,,,,,,,,,,,,,13,,48,48
52200,note_on,,1,0,6,,,,,,,,,,,,,,,,5,,72,64
52200,note_on,,1,0,10,,,,,,,,,,,,,,,,15,,48,48
52200,note_on,,0,0,10,,,,,,,,,,,,,,,,15,,67,48
52200,note_on,,0,0,10,,,,,,,,,,,,,,,,15,,72,48
52200,note_on,,1,0,8,,,,,,,,,,,,,,,,11,,75,48
52259,note_on,,59,0,7,,,,,,,,,,,,,,,,10,,75,0
52259,note_on,,59,0,8,,,,,,,,,,,,,,,,11,,75,0
52260,note_on,,1,0,8,,,,,,,,,,,,,,,,11,,79,48
52260,note_on,,1,0,7,,,,,,,,,,,,,,,,10,,79,48
52319,note_on,,0,0,10,,,,,,,,,,,,,,,,15,,60,0
52319,note_on,,0,0,10,,,,,,,,,,,,,,,,15,,63,0
52319,note_on,,0,0,10,,,,,,,,,,,,,,,,15,,72,0
52319,note_on,,119,0,10,,,,,,,,,,,,,,,,15,,48,0
52319,note_on,,59,0,8,,,,,,,,,,,,,,,,11,,79,0
52319,note_on,,0,0,10,,,,,,,,,,,,,,,,15,,67,0
52319,note_on,,59,0,7,,,,,,,,,,,,,,,,10,,79,0
52319,note_on,,119,0,9,,,,,,,,,,,,,,,,13,,48,0
52320,note_on,,1,0,7,,,,,,,,,,,,,,,,10,,72,48
52320,note_on,,1,0,8,,,,,,,,,,,,,,,,11,,72,48
52379,note_on,,59,0,8,,,,,,,,,,,,,,,,11,,72,0
52379,note_on,,59,0,7,,,,,,,,,,,,,,,,10,,72,0
52380,note_on,,1,0,7,,,,,,,,,,,,,,,,10,,75,48
52380,note_on,,1,0,8,,,,,,,,,,,,,,,,11,,75,48
52439,note_on,,59,0,8,,,,,,,,,,,,,,,,11,,75,0
52439,note_on,,59,0,7,,,,,,,,,,,,,,,,10,,75,0
52440,note_on,,0,0,10,,,,,,,,,,,,,,,,15,,67,48
52440,note_on,,0,0,10,,,,,,,,,,,,,,,,15,,63,48
52440,note_on,,121,0,9,,,,,,,,,,,,,,,,13,,51,48
52440,note_on,,0,0,10,,,,,,,,,,,,,,,,15,,60,48
52440,note_on,,1,0,8,,,,,,,,,,,,,,,,11,,69,48
52440,note_on,,121,0,10,,,,,,,,,,,,,,,,15,,51,48
52440,note_on,,1,0,7,,,,,,,,,,,,,,,,10,,69,48
52499,note_on,,59,0,7,,,,,,,,,,,,,,,,10,,69,0
52499,note_on,,59,0,8,,,,,,,,,,,,,,,,11,,69,0
52500,note_on,,1,0,7,,,,,,,,,,,,,,,,10,,72,48
52500,note_on,,1,0,8,,,,,,,,,,,,,,,,11,,72,48
52559,note_on,,119,0,10,,,,,,,,,,,,,,,,15,,51,0
52559,note_on,,59,0,7,,,,,,,,,,,,,,,,10,,72,0
52559,note_on,,59,0,8,,,,,,,,,,,,,,,,11,,72,0
52559,note_on,,0,0,10,,,,,,,,,,,,,,,,15,,67,0
52559,note_on,,0,0,10,,,,,,,,,,,,,,,,15,,63,0
52559,note_on,,0,0,10,,,,,,,,,,,,,,,,15,,60,0
52559,note_on,,119,0,9,,,,,,,,,,,,,,,,13,,51,0
52560,note_on,,1,0,8,,,,,,,,,,,,,,,,11,,66,48
52560,note_on,,1,0,7,,,,,,,,,,,,,,,,10,,66,48
52560,note_on,,1,0,10,,,,,,,,,,,,,,,,15,,50,48
52560,note_on,,0,0,10,,,,,,,,,,,,,,,,15,,66,48
52560,note_on,,0,0,10,,,,,,,,,,,,,,,,15,,57,48
52560,note_on,,0,0,10,,,,,,,,,,,,,,,,15,,74,48
52560,note_on,,1,0,9,,,,,,,,,,,,,,,,13,,50,48
52619,note_on,,419,0,6,,,,,,,,,,,,,,,,5,,72,0
52620,note_on,,1,0,6,,,,,,,,,,,,,,,,5,,74,64
52679,note_on,,0,0,10,,,,,,,,,,,,,,,,15,,57,0
52679,note_on,,59,0,6,,,,,,,,,,,,,,,,5,,74,0
52679,note_on,,0,0,10,,,,,,,,,,,,,,,,15,,74,0
52679,note_on,,119,0,10,,,,,,,,,,,,,,,,15,,50,0
52679,note_on,,119,0,9,,,,,,,,,,,,,,,,13,,50,0
52679,note_on,,0,0,10,,,,,,,,,,,,,,,,15,,66,0
52679,note_on,,119,0,7,,,,,,,,,,,,,,,,10,,66,0
52679,note_on,,119,0,8,,,,,,,,,,,,,,,,11,,66,0
52680,note_on,,1,0,6,,,,,,,,,,,,,,,,5,,75,64
52739,note_on,,59,0,6,,,,,,,,,,,,,,,,5,,75,0
52740,note_on,,1,0,6,,,,,,,,,,,,,,,,5,,74,64
52799,note_on,,59,0,6,,,,,,,,,,,,,,,,5,,74,0
52800,note_on,,1,0,6,,,,,,,,,,,,,,,,5,,72,64
52800,note_on,,0,0,10,,,,,,,,,,,,,,,,15,,74,48
52800,note_on,,0,0,10,,,,,,,,,,,,,,,,15,,67,48
52800,note_on,,0,0,10,,,,,,,,,,,,,,,,15,,62,48
52800,note_on,,0,0,10,,,,,,,,,,,,,,,,15,,58,48
52800,note_on,,121,0,10,,,,,,,,,,,,,,,,15,,55,48
52800,note_on,,121,0,9,,,,,,,,,,,,,,,,13,,55,48
52859,note_on,,59,0,6,,,,,,,,,,,,,,,,5,,72,0
52860,note_on,,1,0,6,,,,,,,,,,,,,,,,5,,70,64
52919,note_on,,0,0,10,,,,,,,,,,,,,,,,15,,58,0
52919,note_on,,59,0,6,,,,,,,,,,,,,,,,5,,70,0
52919,note_on,,0,0,10,,,,,,,,,,,,,,,,15,,62,0
52919,note_on,,119,0,10,,,,,,,,,,,,,,,,15,,55,0
52919,note_on,,0,0,10,,,,,,,,,,,,,,,,15,,67,0
52919,note_on,,0,0,10,,,,,,,,,,,,,,,,15,,74,0
52919,note_on,,119,0,9,,,,,,,,,,,,,,,,13,,55,0
52920,note_on,,1,0,9,,,,,,,,,,,,,,,,13,,48,48
52920,note_on,,1,0,10,,,,,,,,,,,,,,,,15,,48,48
52920,note_on,,0,0,10,,,,,,,,,,,,,,,,15,,72,48
52920,note_on,,0,0,10,,,,,,,,,,,,,,,,15,,69,48
52920,note_on,,0,0,10,,,,,,,,,,,,,,,,15,,63,48
52920,note_on,,0,0,10,,,,,,,,,,,,,,,,15,,57,48
52920,note_on,,1,0,6,,,,,,,,,,,,,,,,5,,69,64
52979,note_on,,59,0,6,,,,,,,,,,,,,,,,5,,69,0
52980,note_on,,1,0,6,,,,,,,,,,,,,,,,5,,67,64
53039,note_on,,59,0,6,,,,,,,,,,,,,,,,5,,67,0
53039,note_on,,119,0,9,,,,,,,,,,,,,,,,13,,48,0
53039,note_on,,0,0,10,,,,,,,,,,,,,,,,15,,57,0
53039,note_on,,119,0,10,,,,,,,,,,,,,,,,15,,48,0
53039,note_on,,0,0,10,,,,,,,,,,,,,,,,15,,72,0
53039,note_on,,0,0,10,,,,,,,,,,,,,,,,15,,69,0
53039,note_on,,0,0,10,,,,,,,,,,,,,,,,15,,63,0
53040,note_on,,1,0,6,,,,,,,,,,,,,,,,5,,66,64
53040,note_on,,1,0,10,,,,,,,,,,,,,,,,15,,50,48
53040,note_on,,0,0,10,,,,,,,,,,,,,,,,15,,69,48
53040,note_on,,1,0,9,,,,,,,,,,,,,,,,13,,50,48
53040,note_on,,0,0,10,,,,,,,,,,,,,,,,15,,57,48
53040,note_on,,0,0,10,,,,,,,,,,,,,,,,15,,62,48
53040,note_on,,0,0,10,,,,,,,,,,,,,,,,15,,66,48
53054,note_on,,14,0,6,,,,,,,,,,,,,,,,5,,66,0
53055,note_on,,1,0,6,,,,,,,,,,,,,,,,5,,67,64
53069,note_on,,14,0,6,,,,,,,,,,,,,,,,5,,67,0
53070,note_on,,1,0,6,,,,,,,,,,,,,,,,5,,66,64
53084,note_on,,14,0,6,,,,,,,,,,,,,,,,5,,66,0
53085,note_on,,1,0,6,,,,,,,,,,,,,,,,5,,67,64
53099,note_on,,14,0,6,,,,,,,,,,,,,,,,5,,67,0
53100,note_on,,1,0,6,,,,,,,,,,,,,,,,5,,66,64
53114,note_on,,14,0,6,,,,,,,,,,,,,,,,5,,66,0
53115,note_on,,1,0,6,,,,,,,,,,,,,,,,5,,67,64
53129,note_on,,14,0,6,,,,,,,,,,,,,,,,5,,67,0
53130,note_on,,1,0,6,,,,,,,,,,,,,,,,5,,66,64
53144,note_on,,14,0,6,,,,,,,,,,,,,,,,5,,66,0
53145,note_on,,1,0,6,,,,,,,,,,,,,,,,5,,67,64
53159,note_on,,0,0,10,,,,,,,,,,,,,,,,15,,57,0
53159,note_on,,0,0,10,,,,,,,,,,,,,,,,15,,62,0
53159,note_on,,0,0,10,,,,,,,,,,,,,,,,15,,66,0
53159,note_on,,119,0,10,,,,,,,,,,,,,,,,15,,50,0
53159,note_on,,119,0,9,,,,,,,,,,,,,,,,13,,50,0
53159,note_on,,14,0,6,,,,,,,,,,,,,,,,5,,67,0
53159,note_on,,0,0,10,,,,,,,,,,,,,,,,15,,69,0
53160,note_on,,1,0,10,,,,,,,,,,,,,,,,15,,38,48
53160,note_on,,0,0,10,,,,,,,,,,,,,,,,15,,50,48
53160,note_on,,0,0,10,,,,,,,,,,,,,,,,15,,74,48
53160,note_on,,0,0,10,,,,,,,,,,,,,,,,15,,69,48
53160,note_on,,0,0,10,,,,,,,,,,,,,,,,15,,66,48
53160,note_on,,1,0,6,,,,,,,,,,,,,,,,5,,66,64
53160,note_on,,1,0,9,,,,,,,,,,,,,,,,13,,38,48
53174,note_on,,14,0,6,,,,,,,,,,,,,,,,5,,66,0
53175,note_on,,1,0,6,,,,,,,,,,,,,,,,5,,67,64
53189,note_on,,14,0,6,,,,,,,,,,,,,,,,5,,67,0
53190,note_on,,1,0,6,,,,,,,,,,,,,,,,5,,66,64
53204,note_on,,14,0,6,,,,,,,,,,,,,,,,5,,66,0
53205,note_on,,1,0,6,,,,,,,,,,,,,,,,5,,67,64
53219,note_on,,14,0,6,,,,,,,,,,,,,,,,5,,67,0
53220,note_on,,1,0,6,,,,,,,,,,,,,,,,5,,66,64
53234,note_on,,14,0,6,,,,,,,,,,,,,,,,5,,66,0
53235,note_on,,1,0,6,,,,,,,,,,,,,,,,5,,67,60
53249,note_on,,14,0,6,,,,,,,,,,,,,,,,5,,67,0
53250,note_on,,1,0,6,,,,,,,,,,,,,,,,5,,66,60
53264,note_on,,14,0,6,,,,,,,,,,,,,,,,5,,66,0
53265,note_on,,1,0,6,,,,,,,,,,,,,,,,5,,67,60
53279,note_on,,14,0,6,,,,,,,,,,,,,,,,5,,67,0
53279,note_on,,0,0,10,,,,,,,,,,,,,,,,15,,69,0
53279,note_on,,0,0,10,,,,,,,,,,,,,,,,15,,74,0
53279,note_on,,0,0,10,,,,,,,,,,,,,,,,15,,66,0
53279,note_on,,0,0,10,,,,,,,,,,,,,,,,15,,50,0
53279,note_on,,119,0,10,,,,,,,,,,,,,,,,15,,38,0
53279,note_on,,119,0,9,,,,,,,,,,,,,,,,13,,38,0
53280,note_on,,1,0,10,,,,,,,,,,,,,,,,15,,43,48
53280,note_on,,0,0,10,,,,,,,,,,,,,,,,15,,70,48
53280,note_on,,0,0,10,,,,,,,,,,,,,,,,15,,67,48
53280,note_on,,0,0,10,,,,,,,,,,,,,,,,15,,62,48
53280,note_on,,1,0,9,,,,,,,,,,,,,,,,13,,43,48
53280,note_on,,1,0,6,,,,,,,,,,,,,,,,5,,67,64
53280,note_on,,0,0,10,,,,,,,,,,,,,,,,15,,50,48
53519,note_on,,239,0,9,,,,,,,,,,,,,,,,13,,43,0
53519,note_on,,0,0,10,,,,,,,,,,,,,,,,15,,50,0
53519,note_on,,0,0,10,,,,,,,,,,,,,,,,15,,70,0
53519,note_on,,0,0,10,,,,,,,,,,,,,,,,15,,62,0
53519,note_on,,0,0,10,,,,,,,,,,,,,,,,15,,67,0
53519,note_on,,239,0,6,,,,,,,,,,,,,,,,5,,67,0
53519,note_on,,239,0,10,,,,,,,,,,,,,,,,15,,43,0
53520,note_on,,841,0,7,,,,,,,,,,,,,,,,10,,74,48
53520,note_on,,841,0,8,,,,,,,,,,,,,,,,11,,74,48
53639,note_on,,119,0,7,,,,,,,,,,,,,,,,10,,74,0
53639,note_on,,119,0,8,,,,,,,,,,,,,,,,11,,74,0
53640,note_on,,1,0,7,,,,,,,,,,,,,,,,10,,79,48
53640,note_on,,1,0,8,,,,,,,,,,,,,,,,11,,79,48
53880,note_on,,361,0,9,,,,,,,,,,,,,,,,13,,55,48
53880,note_on,,0,0,10,,,,,,,,,,,,,,,,15,,62,48
53880,note_on,,0,0,10,,,,,,,,,,,,,,,,15,,67,48
53880,note_on,,0,0,10,,,,,,,,,,,,,,,,15,,70,48
53880,note_on,,361,0,6,,,,,,,,,,,,,,,,5,,74,64
53880,note_on,,361,0,10,,,,,,,,,,,,,,,,15,,55,48
53999,note_on,,119,0,9,,,,,,,,,,,,,,,,13,,55,0
53999,note_on,,119,0,6,,,,,,,,,,,,,,,,5,,74,0
53999,note_on,,119,0,10,,,,,,,,,,,,,,,,15,,55,0
53999,note_on,,0,0,10,,,,,,,,,,,,,,,,15,,70,0
53999,note_on,,0,0,10,,,,,,,,,,,,,,,,15,,67,0
53999,note_on,,0,0,10,,,,,,,,,,,,,,,,15,,62,0
54000,note_on,,0,0,10,,,,,,,,,,,,,,,,15,,74,48
54000,note_on,,1,0,9,,,,,,,,,,,,,,,,13,,46,48
54000,note_on,,0,0,10,,,,,,,,,,,,,,,,15,,62,48
54000,note_on,,1,0,10,,,,,,,,,,,,,,,,15,,46,48
54000,note_on,,0,0,10,,,,,,,,,,,,,,,,15,,67,48
54000,note_on,,1,0,6,,,,,,,,,,,,,,,,5,,67,64
54119,note_on,,119,0,6,,,,,,,,,,,,,,,,5,,67,0
54120,note_on,,1,0,6,,,,,,,,,,,,,,,,5,,74,64
54239,note_on,,239,0,10,,,,,,,,,,,,,,,,15,,46,0
54239,note_on,,239,0,9,,,,,,,,,,,,,,,,13,,46,0
54240,note_on,,1,0,9,,,,,,,,,,,,,,,,13,,58,48
54240,note_on,,1,0,10,,,,,,,,,,,,,,,,15,,58,48
54299,note_on,,179,0,6,,,,,,,,,,,,,,,,5,,74,0
54300,note_on,,1,0,6,,,,,,,,,,,,,,,,5,,74,64
54359,note_on,,119,0,10,,,,,,,,,,,,,,,,15,,74,0
54359,note_on,,0,0,10,,,,,,,,,,,,,,,,15,,67,0
54359,note_on,,0,0,10,,,,,,,,,,,,,,,,15,,62,0
54359,note_on,,0,0,10,,,,,,,,,,,,,,,,15,,58,0
54359,note_on,,119,0,9,,,,,,,,,,,,,,,,13,,58,0
54359,note_on,,59,0,6,,,,,,,,,,,,,,,,5,,74,0
54360,note_on,,1,0,10,,,,,,,,,,,,,,,,15,,60,48
54360,note_on,,0,0,10,,,,,,,,,,,,,,,,15,,67,48
54360,note_on,,0,0,10,,,,,,,,,,,,,,,,15,,63,48
54360,note_on,,1,0,9,,,,,,,,,,,,,,,,13,,60,48
54360,note_on,,1,0,6,,,,,,,,,,,,,,,,5,,75,64
54479,note_on,,119,0,9,,,,,,,,,,,,,,,,13,,60,0
54479,note_on,,119,0,6,,,,,,,,,,,,,,,,5,,75,0
54479,note_on,,119,0,10,,,,,,,,,,,,,,,,15,,60,0
54480,note_on,,1,0,6,,,,,,,,,,,,,,,,5,,75,64
54480,note_on,,1,0,10,,,,,,,,,,,,,,,,15,,60,48
54480,note_on,,1,0,9,,,,,,,,,,,,,,,,13,,60,48
54599,note_on,,119,0,6,,,,,,,,,,,,,,,,5,,75,0
54599,note_on,,119,0,10,,,,,,,,,,,,,,,,15,,60,0
54599,note_on,,119,0,9,,,,,,,,,,,,,,,,13,,60,0
54600,note_on,,1,0,6,,,,,,,,,,,,,,,,5,,74,64
54600,note_on,,1,0,10,,,,,,,,,,,,,,,,15,,58,48
54600,note_on,,1,0,9,,,,,,,,,,,,,,,,13,,58,48
54719,note_on,,119,0,9,,,,,,,,,,,,,,,,13,,58,0
54719,note_on,,1079,0,7,,,,,,,,,,,,,,,,10,,79,0
54719,note_on,,0,0,10,,,,,,,,,,,,,,,,15,,63,0
54719,note_on,,119,0,10,,,,,,,,,,,,,,,,15,,67,0
54719,note_on,,1079,0,8,,,,,,,,,,,,,,,,11,,79,0
54719,note_on,,0,0,10,,,,,,,,,,,,,,,,15,,58,0
54719,note_on,,119,0,6,,,,,,,,,,,,,,,,5,,74,0
54720,note_on,,0,0,10,,,,,,,,,,,,,,,,15,,72,48
54720,note_on,,1,0,6,,,,,,,,,,,,,,,,5,,72,64
54720,note_on,,0,0,10,,,,,,,,,,,,,,,,15,,60,48
54720,note_on,,0,0,10,,,,,,,,,,,,,,,,15,,65,48
54720,note_on,,1,0,10,,,,,,,,,,,,,,,,15,,57,48
54720,note_on,,1,0,9,,,,,,,,,,,,,,,,13,,57,48
54720,note_on,,1,0,8,,,,,,,,,,,,,,,,11,,77,48
54720,note_on,,1,0,7,,,,,,,,,,,,,,,,10,,77,48
54959,note_on,,239,0,6,,,,,,,,,,,,,,,,5,,72,0
54960,note_on,,1,0,6,,,,,,,,,,,,,,,,5,,72,64
55079,note_on,,119,0,6,,,,,,,,,,,,,,,,5,,72,0
55079,note_on,,0,0,10,,,,,,,,,,,,,,,,15,,65,0
55079,note_on,,0,0,10,,,,,,,,,,,,,,,,15,,72,0
55079,note_on,,359,0,9,,,,,,,,,,,,,,,,13,,57,0
55079,note_on,,359,0,10,,,,,,,,,,,,,,,,15,,57,0
55079,note_on,,0,0,10,,,,,,,,,,,,,,,,15,,60,0
55080,note_on,,0,0,10,,,,,,,,,,,,,,,,15,,72,48
55080,note_on,,1,0,10,,,,,,,,,,,,,,,,15,,45,48
55080,note_on,,0,0,10,,,,,,,,,,,,,,,,15,,77,48
55080,note_on,,1,0,9,,,,,,,,,,,,,,,,13,,45,48
55080,note_on,,0,0,10,,,,,,,,,,,,,,,,15,,69,48
55080,note_on,,1,0,6,,,,,,,,,,,,,,,,5,,65,64
55199,note_on,,119,0,6,,,,,,,,,,,,,,,,5,,65,0
55200,note_on,,1,0,6,,,,,,,,,,,,,,,,5,,72,64
55319,note_on,,239,0,9,,,,,,,,,,,,,,,,13,,45,0
55319,note_on,,239,0,10,,,,,,,,,,,,,,,,15,,45,0
55320,note_on,,1,0,10,,,,,,,,,,,,,,,,15,,57,48
55320,note_on,,1,0,9,,,,,,,,,,,,,,,,13,,57,48
55379,note_on,,179,0,6,,,,,,,,,,,,,,,,5,,72,0
55380,note_on,,1,0,6,,,,,,,,,,,,,,,,5,,72,64
55439,note_on,,119,0,9,,,,,,,,,,,,,,,,13,,57,0
55439,note_on,,0,0,10,,,,,,,,,,,,,,,,15,,72,0
55439,note_on,,119,0,10,,,,,,,,,,,,,,,,15,,77,0
55439,note_on,,59,0,6,,,,,,,,,,,,,,,,5,,72,0
55439,note_on,,0,0,10,,,,,,,,,,,,,,,,15,,69,0
55439,note_on,,0,0,10,,,,,,,,,,,,,,,,15,,57,0
55440,note_on,,0,0,10,,,,,,,,,,,,,,,,15,,70,48
55440,note_on,,1,0,6,,,,,,,,,,,,,,,,5,,74,64
55440,note_on,,1,0,10,,,,,,,,,,,,,,,,15,,58,48
55440,note_on,,0,0,10,,,,,,,,,,,,,,,,15,,74,48
55440,note_on,,1,0,9,,,,,,,,,,,,,,,,13,,58,48
55440,note_on,,0,0,10,,,,,,,,,,,,,,,,15,,65,48
55559,note_on,,119,0,9,,,,,,,,,,,,,,,,13,,58,0
55559,note_on,,119,0,6,,,,,,,,,,,,,,,,5,,74,0
55559,note_on,,119,0,10,,,,,,,,,,,,,,,,15,,58,0
55560,note_on,,1,0,10,,,,,,,,,,,,,,,,15,,58,48
55560,note_on,,1,0,9,,,,,,,,,,,,,,,,13,,58,48
55560,note_on,,1,0,6,,,,,,,,,,,,,,,,5,,74,64
55679,note_on,,959,0,8,,,,,,,,,,,,,,,,11,,77,0
55679,note_on,,959,0,7,,,,,,,,,,,,,,,,10,,77,0
55679,note_on,,119,0,6,,,,,,,,,,,,,,,,5,,74,0
55679,note_on,,119,0,10,,,,,,,,,,,,,,,,15,,70,0
55679,note_on,,0,0,10,,,,,,,,,,,,,,,,15,,65,0
55679,note_on,,0,0,10,,,,,,,,,,,,,,,,15,,58,0
55679,note_on,,119,0,9,,,,,,,,,,,,,,,,13,,58,0
55680,note_on,,1,0,8,,,,,,,,,,,,,,,,11,,78,48
55680,note_on,,1,0,10,,,,,,,,,,,,,,,,15,,57,48
55680,note_on,,0,0,10,,,,,,,,,,,,,,,,15,,72,48
55680,note_on,,1,0,6,,,,,,,,,,,,,,,,5,,72,64
55680,note_on,,1,0,9,,,,,,,,,,,,,,,,13,,57,48
55680,note_on,,1,0,7,,,,,,,,,,,,,,,,10,,78,48
55680,note_on,,0,0,10,,,,,,,,,,,,,,,,15,,66,48
55799,note_on,,0,0,10,,,,,,,,,,,,,,,,15,,72,0
55799,note_on,,0,0,10,,,,,,,,,,,,,,,,15,,57,0
55799,note_on,,119,0,8,,,,,,,,,,,,,,,,11,,78,0
55799,note_on,,119,0,10,,,,,,,,,,,,,,,,15,,74,0
55799,note_on,,119,0,7,,,,,,,,,,,,,,,,10,,78,0
55799,note_on,,119,0,6,,,,,,,,,,,,,,,,5,,72,0
55799,note_on,,0,0,10,,,,,,,,,,,,,,,,15,,66,0
55799,note_on,,119,0,9,,,,,,,,,,,,,,,,13,,57,0
55800,note_on,,0,0,10,,,,,,,,,,,,,,,,15,,62,48
55800,note_on,,0,0,10,,,,,,,,,,,,,,,,15,,67,48
55800,note_on,,0,0,10,,,,,,,,,,,,,,,,15,,70,48
55800,note_on,,1,0,8,,,,,,,,,,,,,,,,11,,79,48
55800,note_on,,1,0,7,,,,,,,,,,,,,,,,10,,79,48
55800,note_on,,1,0,6,,,,,,,,,,,,,,,,5,,70,64
55800,note_on,,1,0,9,,,,,,,,,,,,,,,,13,,55,48
55800,note_on,,1,0,10,,,,,,,,,,,,,,,,15,,55,48
55919,note_on,,119,0,6,,,,,,,,,,,,,,,,5,,70,0
55919,note_on,,0,0,10,,,,,,,,,,,,,,,,15,,67,0
55919,note_on,,119,0,10,,,,,,,,,,,,,,,,15,,55,0
55919,note_on,,0,0,10,,,,,,,,,,,,,,,,15,,62,0
55919,note_on,,0,0,10,,,,,,,,,,,,,,,,15,,70,0
55919,note_on,,119,0,9,,,,,,,,,,,,,,,,13,,55,0
55920,note_on,,1,0,6,,,,,,,,,,,,,,,,5,,69,64
55920,note_on,,1,0,10,,,,,,,,,,,,,,,,15,,57,48
55920,note_on,,0,0,10,,,,,,,,,,,,,,,,15,,69,48
55920,note_on,,0,0,10,,,,,,,,,,,,,,,,15,,66,48
55920,note_on,,0,0,10,,,,,,,,,,,,,,,,15,,60,48
55920,note_on,,1,0,9,,,,,,,,,,,,,,,,13,,57,48
56039,note_on,,0,0,10,,,,,,,,,,,,,,,,15,,66,0
56039,note_on,,0,0,10,,,,,,,,,,,,,,,,15,,60,0
56039,note_on,,119,0,9,,,,,,,,,,,,,,,,13,,57,0
56039,note_on,,119,0,6,,,,,,,,,,,,,,,,5,,69,0
56039,note_on,,0,0,10,,,,,,,,,,,,,,,,15,,69,0
56039,note_on,,119,0,10,,,,,,,,,,,,,,,,15,,57,0
56040,note_on,,1,0,6,,,,,,,,,,,,,,,,5,,67,64
56040,note_on,,0,0,10,,,,,,,,,,,,,,,,15,,62,48
56040,note_on,,1,0,10,,,,,,,,,,,,,,,,15,,58,48
56040,note_on,,0,0,10,,,,,,,,,,,,,,,,15,,67,48
56040,note_on,,1,0,9,,,,,,,,,,,,,,,,13,,58,48
56159,note_on,,359,0,8,,,,,,,,,,,,,,,,11,,79,0
56159,note_on,,359,0,7,,,,,,,,,,,,,,,,10,,79,0
56159,note_on,,0,0,10,,,,,,,,,,,,,,,,15,,62,0
56159,note_on,,0,0,10,,,,,,,,,,,,,,,,15,,67,0
56159,note_on,,119,0,10,,,,,,,,,,,,,,,,15,,58,0
56159,note_on,,119,0,9,,,,,,,,,,,,,,,,13,,58,0
56159,note_on,,119,0,6,,,,,,,,,,,,,,,,5,,67,0
56160,note_on,,1,0,8,,,,,,,,,,,,,,,,11,,67,48
56160,note_on,,0,0,10,,,,,,,,,,,,,,,,15,,51,48
56160,note_on,,1,0,10,,,,,,,,,,,,,,,,15,,48,48
56160,note_on,,1,0,9,,,,,,,,,,,,,,,,13,,48,48
56160,note_on,,0,0,10,,,,,,,,,,,,,,,,15,,72,48
56160,note_on,,1,0,6,,,,,,,,,,,,,,,,5,,75,64
56160,note_on,,0,0,10,,,,,,,,,,,,,,,,15,,63,48
56160,note_on,,1,0,7,,,,,,,,,,,,,,,,10,,67,48
56264,note_on,,104,0,6,,,,,,,,,,,,,,,,5,,75,0
56265,note_on,,1,0,6,,,,,,,,,,,,,,,,5,,74,64
56279,note_on,,119,0,8,,,,,,,,,,,,,,,,11,,67,0
56279,note_on,,119,0,7,,,,,,,,,,,,,,,,10,,67,0
56279,note_on,,14,0,6,,,,,,,,,,,,,,,,5,,74,0
56280,note_on,,1,0,6,,,,,,,,,,,,,,,,5,,72,64
56280,note_on,,1,0,8,,,,,,,,,,,,,,,,11,,63,48
56280,note_on,,1,0,7,,,,,,,,,,,,,,,,10,,63,48
56384,note_on,,104,0,6,,,,,,,,,,,,,,,,5,,72,0
56385,note_on,,1,0,6,,,,,,,,,,,,,,,,5,,70,64
56399,note_on,,14,0,6,,,,,,,,,,,,,,,,5,,70,0
56399,note_on,,119,0,8,,,,,,,,,,,,,,,,11,,63,0
56399,note_on,,119,0,7,,,,,,,,,,,,,,,,10,,63,0
56400,note_on,,1,0,6,,,,,,,,,,,,,,,,5,,69,64
56400,note_on,,1,0,7,,,,,,,,,,,,,,,,10,,60,48
56400,note_on,,1,0,8,,,,,,,,,,,,,,,,11,,60,48
56489,note_on,,89,0,6,,,,,,,,,,,,,,,,5,,69,0
56490,note_on,,1,0,6,,,,,,,,,,,,,,,,5,,67,64
56519,note_on,,359,0,9,,,,,,,,,,,,,,,,13,,48,0
56519,note_on,,29,0,6,,,,,,,,,,,,,,,,5,,67,0
56519,note_on,,0,0,10,,,,,,,,,,,,,,,,15,,51,0
56519,note_on,,0,0,10,,,,,,,,,,,,,,,,15,,63,0
56519,note_on,,0,0,10,,,,,,,,,,,,,,,,15,,72,0
56519,note_on,,359,0,10,,,,,,,,,,,,,,,,15,,48,0
56519,note_on,,119,0,7,,,,,,,,,,,,,,,,10,,60,0
56519,note_on,,119,0,8,,,,,,,,,,,,,,,,11,,60,0
56520,note_on,,1,0,6,,,,,,,,,,,,,,,,5,,66,64
56520,note_on,,0,0,10,,,,,,,,,,,,,,,,15,,57,48
56520,note_on,,0,0,10,,,,,,,,,,,,,,,,15,,62,48
56520,note_on,,0,0,10,,,,,,,,,,,,,,,,15,,66,48
56520,note_on,,0,0,10,,,,,,,,,,,,,,,,15,,69,48
56520,note_on,,1,0,10,,,,,,,,,,,,,,,,15,,50,48
56520,note_on,,1,0,8,,,,,,,,,,,,,,,,11,,57,48
56520,note_on,,1,0,7,,,,,,,,,,,,,,,,10,,57,48
56520,set_tempo,,56520,1,0,,,,,,,,,1500000,,,,,,,,,,
56520,note_on,,1,0,9,,,,,,,,,,,,,,,,13,,50,48
56879,note_on,,0,0,10,,,,,,,,,,,,,,,,15,,57,0
56879,note_on,,0,0,10,,,,,,,,,,,,,,,,15,,62,0
56879,note_on,,0,0,10,,,,,,,,,,,,,,,,15,,66,0
56879,note_on,,0,0,10,,,,,,,,,,,,,,,,15,,69,0
56879,note_on,,359,0,10,,,,,,,,,,,,,,,,15,,50,0
56879,note_on,,359,0,6,,,,,,,,,,,,,,,,5,,66,0
56879,note_on,,359,0,8,,,,,,,,,,,,,,,,11,,57,0
56879,note_on,,359,0,7,,,,,,,,,,,,,,,,10,,57,0
56879,note_on,,359,0,9,,,,,,,,,,,,,,,,13,,50,0
56880,set_tempo,,360,1,0,,,,,,,,,1090909,,,,,,,,,,
57120,note_on,,241,0,6,,,,,,,,,,,,,,,,5,,75,64
57120,note_on,,0,0,10,,,,,,,,,,,,,,,,15,,57,48
57120,note_on,,0,0,10,,,,,,,,,,,,,,,,15,,66,48
57120,note_on,,0,0,10,,,,,,,,,,,,,,,,15,,69,48
57120,note_on,,0,0,10,,,,,,,,,,,,,,,,15,,75,48
57120,note_on,,241,0,9,,,,,,,,,,,,,,,,13,,48,48
57120,note_on,,241,0,10,,,,,,,,,,,,,,,,15,,48,48
57239,note_on,,0,0,10,,,,,,,,,,,,,,,,15,,75,0
57239,note_on,,119,0,9,,,,,,,,,,,,,,,,13,,48,0
57239,note_on,,119,0,10,,,,,,,,,,,,,,,,15,,48,0
57239,note_on,,119,0,6,,,,,,,,,,,,,,,,5,,75,0
57239,note_on,,0,0,10,,,,,,,,,,,,,,,,15,,69,0
57239,note_on,,0,0,10,,,,,,,,,,,,,,,,15,,66,0
57239,note_on,,0,0,10,,,,,,,,,,,,,,,,15,,57,0
57240,note_on,,1,0,6,,,,,,,,,,,,,,,,5,,74,64
57240,note_on,,0,0,10,,,,,,,,,,,,,,,,15,,55,48
57240,note_on,,0,0,10,,,,,,,,,,,,,,,,15,,67,48
57240,note_on,,1,0,10,,,,,,,,,,,,,,,,15,,46,48
57240,note_on,,0,0,10,,,,,,,,,,,,,,,,15,,79,48
57240,note_on,,1,0,9,,,,,,,,,,,,,,,,13,,46,48
57240,note_on,,0,0,10,,,,,,,,,,,,,,,,15,,74,48
57359,note_on,,119,0,6,,,,,,,,,,,,,,,,5,,74,0
57360,note_on,,1,0,6,,,,,,,,,,,,,,,,5,,74,64
57479,note_on,,119,0,6,,,,,,,,,,,,,,,,5,,74,0
57479,note_on,,0,0,10,,,,,,,,,,,,,,,,15,,74,0
57479,note_on,,239,0,9,,,,,,,,,,,,,,,,13,,46,0
57479,note_on,,0,0,10,,,,,,,,,,,,,,,,15,,55,0
57479,note_on,,239,0,10,,,,,,,,,,,,,,,,15,,46,0
57479,note_on,,0,0,10,,,,,,,,,,,,,,,,15,,79,0
57479,note_on,,0,0,10,,,,,,,,,,,,,,,,15,,67,0
57480,note_on,,0,0,10,,,,,,,,,,,,,,,,15,,48,48
57480,note_on,,0,0,10,,,,,,,,,,,,,,,,15,,75,48
57480,note_on,,0,0,10,,,,,,,,,,,,,,,,15,,72,48
57480,note_on,,0,0,10,,,,,,,,,,,,,,,,15,,67,48
57480,note_on,,1,0,9,,,,,,,,,,,,,,,,13,,48,48
57480,note_on,,1,0,6,,,,,,,,,,,,,,,,5,,79,64
57480,note_on,,1,0,10,,,,,,,,,,,,,,,,15,,55,48
57599,note_on,,119,0,9,,,,,,,,,,,,,,,,13,,48,0
57599,note_on,,119,0,6,,,,,,,,,,,,,,,,5,,79,0
57599,note_on,,0,0,10,,,,,,,,,,,,,,,,15,,48,0
57599,note_on,,119,0,10,,,,,,,,,,,,,,,,15,,55,0
57599,note_on,,0,0,10,,,,,,,,,,,,,,,,15,,75,0
57599,note_on,,0,0,10,,,,,,,,,,,,,,,,15,,72,0
57599,note_on,,0,0,10,,,,,,,,,,,,,,,,15,,67,0
57600,note_on,,0,0,10,,,,,,,,,,,,,,,,15,,67,48
57600,note_on,,1,0,9,,,,,,,,,,,,,,,,13,,50,48
57600,note_on,,1,0,10,,,,,,,,,,,,,,,,15,,50,48
57600,note_on,,0,0,10,,,,,,,,,,,,,,,,15,,74,48
57600,note_on,,0,0,10,,,,,,,,,,,,,,,,15,,55,48
57600,note_on,,1,0,6,,,,,,,,,,,,,,,,5,,70,60
57600,note_on,,0,0,10,,,,,,,,,,,,,,,,15,,70,48
57689,note_on,,89,0,6,,,,,,,,,,,,,,,,5,,70,0
57690,note_on,,1,0,6,,,,,,,,,,,,,,,,5,,72,60
57719,note_on,,29,0,6,,,,,,,,,,,,,,,,5,,72,0
57720,note_on,,1,0,6,,,,,,,,,,,,,,,,5,,74,60
57749,note_on,,29,0,6,,,,,,,,,,,,,,,,5,,74,0
57750,note_on,,1,0,6,,,,,,,,,,,,,,,,5,,75,60
57779,note_on,,29,0,6,,,,,,,,,,,,,,,,5,,75,0
57780,note_on,,1,0,6,,,,,,,,,,,,,,,,5,,74,60
57799,note_on,,19,0,6,,,,,,,,,,,,,,,,5,,74,0
57800,note_on,,1,0,6,,,,,,,,,,,,,,,,5,,72,60
57819,note_on,,19,0,6,,,,,,,,,,,,,,,,5,,72,0
57820,note_on,,1,0,6,,,,,,,,,,,,,,,,5,,70,60
57839,note_on,,19,0,6,,,,,,,,,,,,,,,,5,,70,0
57839,note_on,,239,0,9,,,,,,,,,,,,,,,,13,,50,0
57839,note_on,,0,0,10,,,,,,,,,,,,,,,,15,,55,0
57839,note_on,,0,0,10,,,,,,,,,,,,,,,,15,,67,0
57839,note_on,,0,0,10,,,,,,,,,,,,,,,,15,,70,0
57839,note_on,,239,0,10,,,,,,,,,,,,,,,,15,,50,0
57840,note_on,,0,0,10,,,,,,,,,,,,,,,,15,,50,48
57840,note_on,,0,0,10,,,,,,,,,,,,,,,,15,,66,48
57840,note_on,,0,0,10,,,,,,,,,,,,,,,,15,,69,48
57840,note_on,,1,0,9,,,,,,,,,,,,,,,,13,,38,48
57840,note_on,,1,0,10,,,,,,,,,,,,,,,,15,,38,48
57840,note_on,,1,0,6,,,,,,,,,,,,,,,,5,,69,60
57929,note_on,,89,0,6,,,,,,,,,,,,,,,,5,,69,0
57930,note_on,,1,0,6,,,,,,,,,,,,,,,,5,,67,60
57959,note_on,,119,0,9,,,,,,,,,,,,,,,,13,,38,0
57959,note_on,,29,0,6,,,,,,,,,,,,,,,,5,,67,0
57959,note_on,,119,0,10,,,,,,,,,,,,,,,,15,,74,0
57959,note_on,,0,0,10,,,,,,,,,,,,,,,,15,,38,0
57959,note_on,,0,0,10,,,,,,,,,,,,,,,,15,,69,0
57959,note_on,,0,0,10,,,,,,,,,,,,,,,,15,,66,0
57959,note_on,,0,0,10,,,,,,,,,,,,,,,,15,,50,0
57960,note_on,,1,0,9,,,,,,,,,,,,,,,,13,,43,48
57960,note_on,,1,0,6,,,,,,,,,,,,,,,,5,,67,64
57960,note_on,,1,0,10,,,,,,,,,,,,,,,,15,,43,48
57960,note_on,,0,0,10,,,,,,,,,,,,,,,,15,,70,48
57960,note_on,,0,0,10,,,,,,,,,,,,,,,,15,,62,48
57960,note_on,,0,0,10,,,,,,,,,,,,,,,,15,,50,48
57960,note_on,,0,0,10,,,,,,,,,,,,,,,,15,,67,48
58199,note_on,,0,0,10,,,,,,,,,,,,,,,,15,,70,0
58199,note_on,,239,0,10,,,,,,,,,,,,,,,,15,,43,0
58199,note_on,,0,0,10,,,,,,,,,,,,,,,,15,,62,0
58199,note_on,,0,0,10,,,,,,,,,,,,,,,,15,,50,0
58199,note_on,,0,0,10,,,,,,,,,,,,,,,,15,,67,0
58199,note_on,,239,0,9,,,,,,,,,,,,,,,,13,,43,0
58200,note_on,,6601,0,5,,,,,,,,,,,,,,,,2,,58,72
58200,note_on,,1,0,9,,,,,,,,,,,,,,,,13,,58,72
58200,note_on,,0,0,10,,,,,,,,,,,,,,,,15,,62,72
58200,note_on,,0,0,10,,,,,,,,,,,,,,,,15,,67,72
58200,note_on,,0,0,10,,,,,,,,,,,,,,,,15,,74,72
58200,note_on,,1,0,10,,,,,,,,,,,,,,,,15,,58,72
58200,note_on,,1321,0,7,,,,,,,,,,,,,,,,10,,74,72
58200,set_tempo,,1320,1,0,,,,,,,,,705882,,,,,,,,,,
58200,note_on,,1321,0,8,,,,,,,,,,,,,,,,11,,74,72
58319,note_on,,119,0,8,,,,,,,,,,,,,,,,11,,74,0
58319,end_of_track,,0,1,6,,,,,,,,,,,,,,,,,,,
58319,note_on,,359,0,6,,,,,,,,,,,,,,,,5,,67,0
58319,note_on,,0,0,10,,,,,,,,,,,,,,,,15,,62,0
58319,note_on,,119,0,5,,,,,,,,,,,,,,,,2,,58,0
58319,note_on,,0,0,10,,,,,,,,,,,,,,,,15,,67,0
58319,note_on,,0,0,10,,,,,,,,,,,,,,,,15,,74,0
58319,note_on,,119,0,10,,,,,,,,,,,,,,,,15,,58,0
58319,note_on,,119,0,7,,,,,,,,,,,,,,,,10,,74,0
58319,note_on,,119,0,9,,,,,,,,,,,,,,,,13,,58,0
58320,note_on,,1,0,8,,,,,,,,,,,,,,,,11,,75,72
58320,note_on,,1,0,5,,,,,,,,,,,,,,,,2,,48,72
58320,note_on,,1,0,9,,,,,,,,,,,,,,,,13,,48,72
58320,note_on,,1,0,7,,,,,,,,,,,,,,,,10,,75,72
58320,note_on,,1,0,10,,,,,,,,,,,,,,,,15,,48,72
58320,note_on,,0,0,10,,,,,,,,,,,,,,,,15,,75,72
58320,note_on,,0,0,10,,,,,,,,,,,,,,,,15,,72,72
58320,note_on,,0,0,10,,,,,,,,,,,,,,,,15,,67,72
58320,note_on,,0,0,10,,,,,,,,,,,,,,,,15,,60,72
58379,note_on,,59,0,8,,,,,,,,,,,,,,,,11,,75,0
58379,note_on,,59,0,7,,,,,,,,,,,,,,,,10,,75,0
58380,note_on,,1,0,7,,,,,,,,,,,,,,,,10,,79,72
58380,note_on,,1,0,8,,,,,,,,,,,,,,,,11,,79,72
58439,note_on,,59,0,7,,,,,,,,,,,,,,,,10,,79,0
58439,note_on,,119,0,5,,,,,,,,,,,,,,,,2,,48,0
58439,note_on,,59,0,8,,,,,,,,,,,,,,,,11,,79,0
58439,note_on,,119,0,9,,,,,,,,,,,,,,,,13,,48,0
58439,note_on,,0,0,10,,,,,,,,,,,,,,,,15,,75,0
58439,note_on,,119,0,10,,,,,,,,,,,,,,,,15,,48,0
58439,note_on,,0,0,10,,,,,,,,,,,,,,,,15,,72,0
58439,note_on,,0,0,10,,,,,,,,,,,,,,,,15,,67,0
58439,note_on,,0,0,10,,,,,,,,,,,,,,,,15,,60,0
58440,note_on,,1,0,8,,,,,,,,,,,,,,,,11,,72,72
58440,note_on,,1,0,7,,,,,,,,,,,,,,,,10,,72,72
58499,note_on,,59,0,8,,,,,,,,,,,,,,,,11,,72,0
58499,note_on,,59,0,7,,,,,,,,,,,,,,,,10,,72,0
58500,note_on,,1,0,8,,,,,,,,,,,,,,,,11,,75,72
58500,note_on,,1,0,7,,,,,,,,,,,,,,,,10,,75,72
58559,note_on,,59,0,8,,,,,,,,,,,,,,,,11,,75,0
58559,note_on,,59,0,7,,,,,,,,,,,,,,,,10,,75,0
58560,note_on,,1,0,7,,,,,,,,,,,,,,,,10,,69,72
58560,note_on,,1,0,8,,,,,,,,,,,,,,,,11,,69,72
58619,note_on,,59,0,7,,,,,,,,,,,,,,,,10,,69,0
58619,note_on,,59,0,8,,,,,,,,,,,,,,,,11,,69,0
58620,note_on,,1,0,7,,,,,,,,,,,,,,,,10,,72,72
58620,note_on,,1,0,8,,,,,,,,,,,,,,,,11,,72,72
58679,note_on,,59,0,7,,,,,,,,,,,,,,,,10,,72,0
58679,note_on,,59,0,8,,,,,,,,,,,,,,,,11,,72,0
58680,note_on,,241,0,5,,,,,,,,,,,,,,,,2,,57,72
58680,note_on,,241,0,10,,,,,,,,,,,,,,,,15,,72,72
58680,note_on,,0,0,10,,,,,,,,,,,,,,,,15,,77,72
58680,note_on,,0,0,10,,,,,,,,,,,,,,,,15,,57,72
58680,note_on,,0,0,10,,,,,,,,,,,,,,,,15,,65,72
58680,note_on,,1,0,8,,,,,,,,,,,,,,,,11,,65,72
58680,note_on,,0,0,10,,,,,,,,,,,,,,,,15,,60,72
58680,note_on,,241,0,9,,,,,,,,,,,,,,,,13,,57,72
58680,note_on,,1,0,7,,,,,,,,,,,,,,,,10,,65,72
58799,note_on,,119,0,10,,,,,,,,,,,,,,,,15,,72,0
58799,note_on,,0,0,10,,,,,,,,,,,,,,,,15,,77,0
58799,note_on,,119,0,9,,,,,,,,,,,,,,,,13,,57,0
58799,note_on,,119,0,5,,,,,,,,,,,,,,,,2,,57,0
58799,note_on,,0,0,10,,,,,,,,,,,,,,,,15,,60,0
58799,note_on,,0,0,10,,,,,,,,,,,,,,,,15,,57,0
58799,note_on,,0,0,10,,,,,,,,,,,,,,,,15,,65,0
58859,note_on,,179,0,7,,,,,,,,,,,,,,,,10,,65,0
58859,note_on,,179,0,8,,,,,,,,,,,,,,,,11,,65,0
58890,note_on,,31,0,7,,,,,,,,,,,,,,,,10,,72,72
58890,note_on,,31,0,8,,,,,,,,,,,,,,,,11,,72,72
58919,note_on,,29,0,8,,,,,,,,,,,,,,,,11,,72,0
58919,note_on,,29,0,7,,,,,,,,,,,,,,,,10,,72,0
58920,note_on,,1,0,7,,,,,,,,,,,,,,,,10,,72,72
58920,note_on,,1,0,8,,,,,,,,,,,,,,,,11,,72,72
58934,note_on,,14,0,8,,,,,,,,,,,,,,,,11,,72,0
58934,note_on,,14,0,7,,,,,,,,,,,,,,,,10,,72,0
58935,note_on,,1,0,8,,,,,,,,,,,,,,,,11,,74,72
58935,note_on,,1,0,7,,,,,,,,,,,,,,,,10,,74,72
58949,note_on,,14,0,8,,,,,,,,,,,,,,,,11,,74,0
58949,note_on,,14,0,7,,,,,,,,,,,,,,,,10,,74,0
58950,note_on,,1,0,8,,,,,,,,,,,,,,,,11,,72,72
58950,note_on,,1,0,7,,,,,,,,,,,,,,,,10,,72,72
58964,note_on,,14,0,8,,,,,,,,,,,,,,,,11,,72,0
58964,note_on,,14,0,7,,,,,,,,,,,,,,,,10,,72,0
58965,note_on,,1,0,8,,,,,,,,,,,,,,,,11,,74,72
58965,note_on,,1,0,7,,,,,,,,,,,,,,,,10,,74,72
58979,note_on,,14,0,8,,,,,,,,,,,,,,,,11,,74,0
58979,note_on,,14,0,7,,,,,,,,,,,,,,,,10,,74,0
58980,note_on,,1,0,7,,,,,,,,,,,,,,,,10,,72,72
58980,note_on,,1,0,8,,,,,,,,,,,,,,,,11,,72,72
58994,note_on,,14,0,8,,,,,,,,,,,,,,,,11,,72,0
58994,note_on,,14,0,7,,,,,,,,,,,,,,,,10,,72,0
58995,note_on,,1,0,8,,,,,,,,,,,,,,,,11,,74,72
58995,note_on,,1,0,7,,,,,,,,,,,,,,,,10,,74,72
59009,note_on,,14,0,8,,,,,,,,,,,,,,,,11,,74,0
59009,note_on,,14,0,7,,,,,,,,,,,,,,,,10,,74,0
59010,note_on,,1,0,7,,,,,,,,,,,,,,,,10,,70,72
59010,note_on,,1,0,8,,,,,,,,,,,,,,,,11,,70,72
59024,note_on,,14,0,7,,,,,,,,,,,,,,,,10,,70,0
59024,note_on,,14,0,8,,,,,,,,,,,,,,,,11,,70,0
59025,note_on,,1,0,7,,,,,,,,,,,,,,,,10,,72,72
59025,note_on,,1,0,8,,,,,,,,,,,,,,,,11,,72,72
59039,note_on,,14,0,7,,,,,,,,,,,,,,,,10,,72,0
59039,note_on,,14,0,8,,,,,,,,,,,,,,,,11,,72,0
59040,note_on,,241,0,10,,,,,,,,,,,,,,,,15,,46,72
59040,note_on,,0,0,10,,,,,,,,,,,,,,,,15,,74,72
59040,note_on,,1,0,7,,,,,,,,,,,,,,,,10,,74,72
59040,note_on,,241,0,5,,,,,,,,,,,,,,,,2,,46,72
59040,note_on,,0,0,10,,,,,,,,,,,,,,,,15,,65,72
59040,note_on,,241,0,9,,,,,,,,,,,,,,,,13,,46,72
59040,note_on,,1,0,8,,,,,,,,,,,,,,,,11,,74,72
59040,note_on,,0,0,10,,,,,,,,,,,,,,,,15,,58,72
59099,note_on,,59,0,8,,,,,,,,,,,,,,,,11,,74,0
59099,note_on,,59,0,7,,,,,,,,,,,,,,,,10,,74,0
59100,note_on,,1,0,7,,,,,,,,,,,,,,,,10,,77,72
59100,note_on,,1,0,8,,,,,,,,,,,,,,,,11,,77,72
59159,note_on,,59,0,8,,,,,,,,,,,,,,,,11,,77,0
59159,note_on,,0,0,10,,,,,,,,,,,,,,,,15,,65,0
59159,note_on,,119,0,5,,,,,,,,,,,,,,,,2,,46,0
59159,note_on,,0,0,10,,,,,,,,,,,,,,,,15,,74,0
59159,note_on,,59,0,7,,,,,,,,,,,,,,,,10,,77,0
59159,note_on,,0,0,10,,,,,,,,,,,,,,,,15,,58,0
59159,note_on,,119,0,9,,,,,,,,,,,,,,,,13,,46,0
59159,note_on,,119,0,10,,,,,,,,,,,,,,,,15,,46,0
59160,note_on,,1,0,7,,,,,,,,,,,,,,,,10,,70,72
59160,note_on,,1,0,8,,,,,,,,,,,,,,,,11,,70,72
59219,note_on,,59,0,7,,,,,,,,,,,,,,,,10,,70,0
59219,note_on,,59,0,8,,,,,,,,,,,,,,,,11,,70,0
59220,note_on,,1,0,7,,,,,,,,,,,,,,,,10,,74,72
59220,note_on,,1,0,8,,,,,,,,,,,,,,,,11,,74,72
59279,note_on,,59,0,7,,,,,,,,,,,,,,,,10,,74,0
59279,note_on,,59,0,8,,,,,,,,,,,,,,,,11,,74,0
59280,note_on,,1,0,8,,,,,,,,,,,,,,,,11,,67,72
59280,note_on,,1,0,7,,,,,,,,,,,,,,,,10,,67,72
59339,note_on,,59,0,7,,,,,,,,,,,,,,,,10,,67,0
59339,note_on,,59,0,8,,,,,,,,,,,,,,,,11,,67,0
59340,note_on,,1,0,7,,,,,,,,,,,,,,,,10,,70,72
59340,note_on,,1,0,8,,,,,,,,,,,,,,,,11,,70,72
59399,note_on,,59,0,8,,,,,,,,,,,,,,,,11,,70,0
59399,note_on,,59,0,7,,,,,,,,,,,,,,,,10,,70,0
59400,note_on,,1,0,8,,,,,,,,,,,,,,,,11,,63,72
59400,note_on,,0,0,10,,,,,,,,,,,,,,,,15,,58,72
59400,note_on,,1,0,7,,,,,,,,,,,,,,,,10,,63,72
59400,note_on,,241,0,9,,,,,,,,,,,,,,,,13,,55,72
59400,note_on,,0,0,10,,,,,,,,,,,,,,,,15,,67,72
59400,note_on,,241,0,5,,,,,,,,,,,,,,,,2,,55,72
59400,note_on,,0,0,10,,,,,,,,,,,,,,,,15,,75,72
59400,note_on,,241,0,10,,,,,,,,,,,,,,,,15,,55,72
59519,note_on,,119,0,5,,,,,,,,,,,,,,,,2,,55,0
59519,note_on,,119,0,10,,,,,,,,,,,,,,,,15,,55,0
59519,note_on,,0,0,10,,,,,,,,,,,,,,,,15,,75,0
59519,note_on,,0,0,10,,,,,,,,,,,,,,,,15,,67,0
59519,note_on,,0,0,10,,,,,,,,,,,,,,,,15,,58,0
59519,note_on,,119,0,9,,,,,,,,,,,,,,,,13,,55,0
59579,note_on,,179,0,7,,,,,,,,,,,,,,,,10,,63,0
59579,note_on,,179,0,8,,,,,,,,,,,,,,,,11,,63,0
59610,note_on,,31,0,7,,,,,,,,,,,,,,,,10,,70,72
59610,note_on,,31,0,8,,,,,,,,,,,,,,,,11,,70,72
59639,note_on,,29,0,8,,,,,,,,,,,,,,,,11,,70,0
59639,note_on,,29,0,7,,,,,,,,,,,,,,,,10,,70,0
59640,note_on,,1,0,8,,,,,,,,,,,,,,,,11,,70,72
59640,note_on,,1,0,7,,,,,,,,,,,,,,,,10,,70,72
59654,note_on,,14,0,8,,,,,,,,,,,,,,,,11,,70,0
59654,note_on,,14,0,7,,,,,,,,,,,,,,,,10,,70,0
59655,note_on,,1,0,8,,,,,,,,,,,,,,,,11,,72,72
59655,note_on,,1,0,7,,,,,,,,,,,,,,,,10,,72,72
59669,note_on,,14,0,8,,,,,,,,,,,,,,,,11,,72,0
59669,note_on,,14,0,7,,,,,,,,,,,,,,,,10,,72,0
59670,note_on,,1,0,7,,,,,,,,,,,,,,,,10,,70,72
59670,note_on,,1,0,8,,,,,,,,,,,,,,,,11,,70,72
59684,note_on,,14,0,8,,,,,,,,,,,,,,,,11,,70,0
59684,note_on,,14,0,7,,,,,,,,,,,,,,,,10,,70,0
59685,note_on,,1,0,8,,,,,,,,,,,,,,,,11,,72,72
59685,note_on,,1,0,7,,,,,,,,,,,,,,,,10,,72,72
59699,note_on,,14,0,8,,,,,,,,,,,,,,,,11,,72,0
59699,note_on,,14,0,7,,,,,,,,,,,,,,,,10,,72,0
59700,note_on,,1,0,7,,,,,,,,,,,,,,,,10,,70,72
59700,note_on,,1,0,8,,,,,,,,,,,,,,,,11,,70,72
59714,note_on,,14,0,7,,,,,,,,,,,,,,,,10,,70,0
59714,note_on,,14,0,8,,,,,,,,,,,,,,,,11,,70,0
59715,note_on,,1,0,7,,,,,,,,,,,,,,,,10,,72,72
59715,note_on,,1,0,8,,,,,,,,,,,,,,,,11,,72,72
59729,note_on,,14,0,7,,,,,,,,,,,,,,,,10,,72,0
59729,note_on,,14,0,8,,,,,,,,,,,,,,,,11,,72,0
59730,note_on,,1,0,8,,,,,,,,,,,,,,,,11,,69,72
59730,note_on,,1,0,7,,,,,,,,,,,,,,,,10,,69,72
59744,note_on,,14,0,7,,,,,,,,,,,,,,,,10,,69,0
59744,note_on,,14,0,8,,,,,,,,,,,,,,,,11,,69,0
59745,note_on,,1,0,7,,,,,,,,,,,,,,,,10,,70,72
59745,note_on,,1,0,8,,,,,,,,,,,,,,,,11,,70,72
59759,note_on,,14,0,8,,,,,,,,,,,,,,,,11,,70,0
59759,note_on,,14,0,7,,,,,,,,,,,,,,,,10,,70,0
59760,note_on,,0,0,10,,,,,,,,,,,,,,,,15,,69,72
59760,note_on,,0,0,10,,,,,,,,,,,,,,,,15,,72,72
59760,note_on,,241,0,10,,,,,,,,,,,,,,,,15,,45,72
59760,note_on,,241,0,9,,,,,,,,,,,,,,,,13,,45,72
59760,note_on,,0,0,10,,,,,,,,,,,,,,,,15,,57,72
59760,note_on,,0,0,10,,,,,,,,,,,,,,,,15,,67,72
59760,note_on,,1,0,7,,,,,,,,,,,,,,,,10,,72,72
59760,note_on,,1,0,8,,,,,,,,,,,,,,,,11,,72,72
59760,note_on,,241,0,5,,,,,,,,,,,,,,,,2,,45,72
59819,note_on,,59,0,7,,,,,,,,,,,,,,,,10,,72,0
59819,note_on,,59,0,8,,,,,,,,,,,,,,,,11,,72,0
59820,note_on,,1,0,8,,,,,,,,,,,,,,,,11,,75,72
59820,note_on,,1,0,7,,,,,,,,,,,,,,,,10,,75,72
59879,note_on,,0,0,10,,,,,,,,,,,,,,,,15,,69,0
59879,note_on,,0,0,10,,,,,,,,,,,,,,,,15,,72,0
59879,note_on,,119,0,10,,,,,,,,,,,,,,,,15,,45,0
59879,note_on,,59,0,8,,,,,,,,,,,,,,,,11,,75,0
59879,note_on,,0,0,10,,,,,,,,,,,,,,,,15,,57,0
59879,note_on,,0,0,10,,,,,,,,,,,,,,,,15,,67,0
59879,note_on,,119,0,9,,,,,,,,,,,,,,,,13,,45,0
59879,note_on,,59,0,7,,,,,,,,,,,,,,,,10,,75,0
59879,note_on,,119,0,5,,,,,,,,,,,,,,,,2,,45,0
59880,note_on,,1,0,8,,,,,,,,,,,,,,,,11,,69,72
59880,note_on,,1,0,7,,,,,,,,,,,,,,,,10,,69,72
59939,note_on,,59,0,8,,,,,,,,,,,,,,,,11,,69,0
59939,note_on,,59,0,7,,,,,,,,,,,,,,,,10,,69,0
59940,note_on,,1,0,8,,,,,,,,,,,,,,,,11,,72,72
59940,note_on,,1,0,7,,,,,,,,,,,,,,,,10,,72,72
59999,note_on,,59,0,8,,,,,,,,,,,,,,,,11,,72,0
59999,note_on,,59,0,7,,,,,,,,,,,,,,,,10,,72,0
60000,note_on,,1,0,7,,,,,,,,,,,,,,,,10,,66,72
60000,note_on,,1,0,8,,,,,,,,,,,,,,,,11,,66,72
60059,note_on,,59,0,8,,,,,,,,,,,,,,,,11,,66,0
60059,note_on,,59,0,7,,,,,,,,,,,,,,,,10,,66,0
60060,note_on,,1,0,8,,,,,,,,,,,,,,,,11,,69,72
60060,note_on,,1,0,7,,,,,,,,,,,,,,,,10,,69,72
60119,note_on,,59,0,7,,,,,,,,,,,,,,,,10,,69,0
60119,note_on,,59,0,8,,,,,,,,,,,,,,,,11,,69,0
60120,note_on,,241,0,5,,,,,,,,,,,,,,,,2,,54,72
60120,note_on,,1,0,8,,,,,,,,,,,,,,,,11,,62,72
60120,note_on,,0,0,10,,,,,,,,,,,,,,,,15,,57,72
60120,note_on,,1,0,7,,,,,,,,,,,,,,,,10,,62,72
60120,note_on,,241,0,9,,,,,,,,,,,,,,,,13,,54,72
60120,note_on,,241,0,10,,,,,,,,,,,,,,,,15,,54,72
60120,note_on,,0,0,10,,,,,,,,,,,,,,,,15,,74,72
60120,note_on,,0,0,10,,,,,,,,,,,,,,,,15,,69,72
60120,note_on,,0,0,10,,,,,,,,,,,,,,,,15,,62,72
60239,note_on,,119,0,5,,,,,,,,,,,,,,,,2,,54,0
60239,note_on,,119,0,10,,,,,,,,,,,,,,,,15,,54,0
60239,note_on,,119,0,9,,,,,,,,,,,,,,,,13,,54,0
60239,note_on,,0,0,10,,,,,,,,,,,,,,,,15,,69,0
60239,note_on,,0,0,10,,,,,,,,,,,,,,,,15,,62,0
60239,note_on,,0,0,10,,,,,,,,,,,,,,,,15,,57,0
60239,note_on,,0,0,10,,,,,,,,,,,,,,,,15,,74,0
60299,note_on,,179,0,8,,,,,,,,,,,,,,,,11,,62,0
60299,note_on,,179,0,7,,,,,,,,,,,,,,,,10,,62,0
60330,note_on,,31,0,7,,,,,,,,,,,,,,,,10,,81,72
60330,note_on,,31,0,8,,,,,,,,,,,,,,,,11,,81,72
60359,note_on,,29,0,7,,,,,,,,,,,,,,,,10,,81,0
60359,note_on,,29,0,8,,,,,,,,,,,,,,,,11,,81,0
60360,note_on,,1,0,7,,,,,,,,,,,,,,,,10,,81,72
60360,note_on,,1,0,8,,,,,,,,,,,,,,,,11,,81,72
60374,note_on,,14,0,7,,,,,,,,,,,,,,,,10,,81,0
60374,note_on,,14,0,8,,,,,,,,,,,,,,,,11,,81,0
60375,note_on,,1,0,8,,,,,,,,,,,,,,,,11,,82,72
60375,note_on,,1,0,7,,,,,,,,,,,,,,,,10,,82,72
60389,note_on,,14,0,7,,,,,,,,,,,,,,,,10,,82,0
60389,note_on,,14,0,8,,,,,,,,,,,,,,,,11,,82,0
60390,note_on,,1,0,7,,,,,,,,,,,,,,,,10,,81,72
60390,note_on,,1,0,8,,,,,,,,,,,,,,,,11,,81,72
60404,note_on,,14,0,8,,,,,,,,,,,,,,,,11,,81,0
60404,note_on,,14,0,7,,,,,,,,,,,,,,,,10,,81,0
60405,note_on,,1,0,7,,,,,,,,,,,,,,,,10,,82,72
60405,note_on,,1,0,8,,,,,,,,,,,,,,,,11,,82,72
60419,note_on,,14,0,7,,,,,,,,,,,,,,,,10,,82,0
60419,note_on,,14,0,8,,,,,,,,,,,,,,,,11,,82,0
60420,note_on,,1,0,8,,,,,,,,,,,,,,,,11,,81,72
60420,note_on,,1,0,7,,,,,,,,,,,,,,,,10,,81,72
60434,note_on,,14,0,7,,,,,,,,,,,,,,,,10,,81,0
60434,note_on,,14,0,8,,,,,,,,,,,,,,,,11,,81,0
60435,note_on,,1,0,7,,,,,,,,,,,,,,,,10,,82,72
60435,note_on,,1,0,8,,,,,,,,,,,,,,,,11,,82,72
60449,note_on,,14,0,7,,,,,,,,,,,,,,,,10,,82,0
60449,note_on,,14,0,8,,,,,,,,,,,,,,,,11,,82,0
60450,note_on,,1,0,8,,,,,,,,,,,,,,,,11,,79,72
60450,note_on,,1,0,7,,,,,,,,,,,,,,,,10,,79,72
60464,note_on,,14,0,7,,,,,,,,,,,,,,,,10,,79,0
60464,note_on,,14,0,8,,,,,,,,,,,,,,,,11,,79,0
60465,note_on,,1,0,7,,,,,,,,,,,,,,,,10,,81,72
60465,note_on,,1,0,8,,,,,,,,,,,,,,,,11,,81,72
60479,note_on,,14,0,8,,,,,,,,,,,,,,,,11,,81,0
60479,note_on,,14,0,7,,,,,,,,,,,,,,,,10,,81,0
60480,note_on,,1,0,7,,,,,,,,,,,,,,,,10,,82,72
60480,note_on,,241,0,5,,,,,,,,,,,,,,,,2,,55,72
60480,note_on,,241,0,10,,,,,,,,,,,,,,,,15,,55,72
60480,note_on,,0,0,10,,,,,,,,,,,,,,,,15,,67,72
60480,note_on,,241,0,9,,,,,,,,,,,,,,,,13,,55,72
60480,note_on,,0,0,10,,,,,,,,,,,,,,,,15,,58,72
60480,note_on,,0,0,10,,,,,,,,,,,,,,,,15,,74,72
60480,note_on,,1,0,8,,,,,,,,,,,,,,,,11,,82,72
60480,note_on,,0,0,10,,,,,,,,,,,,,,,,15,,62,72
60599,note_on,,119,0,9,,,,,,,,,,,,,,,,13,,55,0
60599,note_on,,0,0,10,,,,,,,,,,,,,,,,15,,58,0
60599,note_on,,0,0,10,,,,,,,,,,,,,,,,15,,67,0
60599,note_on,,0,0,10,,,,,,,,,,,,,,,,15,,74,0
60599,note_on,,119,0,10,,,,,,,,,,,,,,,,15,,55,0
60599,note_on,,0,0,10,,,,,,,,,,,,,,,,15,,62,0
60599,note_on,,119,0,5,,,,,,,,,,,,,,,,2,,55,0
60659,note_on,,179,0,8,,,,,,,,,,,,,,,,11,,82,0
60659,note_on,,179,0,7,,,,,,,,,,,,,,,,10,,82,0
60690,note_on,,31,0,7,,,,,,,,,,,,,,,,10,,78,72
60690,note_on,,31,0,8,,,,,,,,,,,,,,,,11,,78,72
60719,note_on,,29,0,7,,,,,,,,,,,,,,,,10,,78,0
60719,note_on,,29,0,8,,,,,,,,,,,,,,,,11,,78,0
60720,note_on,,1,0,8,,,,,,,,,,,,,,,,11,,78,72
60720,note_on,,121,0,5,,,,,,,,,,,,,,,,2,,57,72
60720,note_on,,0,0,10,,,,,,,,,,,,,,,,15,,69,72
60720,note_on,,0,0,10,,,,,,,,,,,,,,,,15,,72,72
60720,note_on,,0,0,10,,,,,,,,,,,,,,,,15,,78,72
60720,note_on,,121,0,10,,,,,,,,,,,,,,,,15,,57,72
60720,note_on,,1,0,7,,,,,,,,,,,,,,,,10,,78,72
60720,note_on,,121,0,9,,,,,,,,,,,,,,,,13,,57,72
60720,note_on,,0,0,10,,,,,,,,,,,,,,,,15,,60,72
60734,note_on,,14,0,8,,,,,,,,,,,,,,,,11,,78,0
60734,note_on,,14,0,7,,,,,,,,,,,,,,,,10,,78,0
60735,note_on,,1,0,8,,,,,,,,,,,,,,,,11,,79,72
60735,note_on,,1,0,7,,,,,,,,,,,,,,,,10,,79,72
60749,note_on,,14,0,8,,,,,,,,,,,,,,,,11,,79,0
60749,note_on,,14,0,7,,,,,,,,,,,,,,,,10,,79,0
60750,note_on,,1,0,8,,,,,,,,,,,,,,,,11,,78,72
60750,note_on,,1,0,7,,,,,,,,,,,,,,,,10,,78,72
60764,note_on,,14,0,7,,,,,,,,,,,,,,,,10,,78,0
60764,note_on,,14,0,8,,,,,,,,,,,,,,,,11,,78,0
60765,note_on,,1,0,7,,,,,,,,,,,,,,,,10,,79,72
60765,note_on,,1,0,8,,,,,,,,,,,,,,,,11,,79,72
60779,note_on,,14,0,7,,,,,,,,,,,,,,,,10,,79,0
60779,note_on,,14,0,8,,,,,,,,,,,,,,,,11,,79,0
60780,note_on,,1,0,8,,,,,,,,,,,,,,,,11,,78,72
60780,note_on,,1,0,7,,,,,,,,,,,,,,,,10,,78,72
60794,note_on,,14,0,7,,,,,,,,,,,,,,,,10,,78,0
60794,note_on,,14,0,8,,,,,,,,,,,,,,,,11,,78,0
60795,note_on,,1,0,7,,,,,,,,,,,,,,,,10,,79,72
60795,note_on,,1,0,8,,,,,,,,,,,,,,,,11,,79,72
60809,note_on,,14,0,7,,,,,,,,,,,,,,,,10,,79,0
60809,note_on,,14,0,8,,,,,,,,,,,,,,,,11,,79,0
60810,note_on,,1,0,8,,,,,,,,,,,,,,,,11,,76,72
60810,note_on,,1,0,7,,,,,,,,,,,,,,,,10,,76,72
60824,note_on,,14,0,8,,,,,,,,,,,,,,,,11,,76,0
60824,note_on,,14,0,7,,,,,,,,,,,,,,,,10,,76,0
60825,note_on,,1,0,7,,,,,,,,,,,,,,,,10,,78,72
60825,note_on,,1,0,8,,,,,,,,,,,,,,,,11,,78,72
60839,note_on,,0,0,10,,,,,,,,,,,,,,,,15,,60,0
60839,note_on,,0,0,10,,,,,,,,,,,,,,,,15,,69,0
60839,note_on,,119,0,9,,,,,,,,,,,,,,,,13,,57,0
60839,note_on,,0,0,10,,,,,,,,,,,,,,,,15,,78,0
60839,note_on,,14,0,7,,,,,,,,,,,,,,,,10,,78,0
60839,note_on,,14,0,8,,,,,,,,,,,,,,,,11,,78,0
60839,note_on,,119,0,5,,,,,,,,,,,,,,,,2,,57,0
60839,note_on,,0,0,10,,,,,,,,,,,,,,,,15,,72,0
60839,note_on,,119,0,10,,,,,,,,,,,,,,,,15,,57,0
60840,note_on,,1,0,5,,,,,,,,,,,,,,,,2,,58,72
60840,note_on,,1,0,9,,,,,,,,,,,,,,,,13,,58,72
60840,note_on,,1,0,8,,,,,,,,,,,,,,,,11,,79,72
60840,note_on,,1,0,7,,,,,,,,,,,,,,,,10,,79,72
60840,note_on,,0,0,10,,,,,,,,,,,,,,,,15,,62,72
60840,note_on,,1,0,10,,,,,,,,,,,,,,,,15,,58,72
60840,note_on,,0,0,10,,,,,,,,,,,,,,,,15,,74,72
60840,note_on,,0,0,10,,,,,,,,,,,,,,,,15,,67,72
60959,note_on,,119,0,9,,,,,,,,,,,,,,,,13,,58,0
60959,note_on,,119,0,5,,,,,,,,,,,,,,,,2,,58,0
60959,note_on,,119,0,10,,,,,,,,,,,,,,,,15,,58,0
60959,note_on,,0,0,10,,,,,,,,,,,,,,,,15,,67,0
60959,note_on,,0,0,10,,,,,,,,,,,,,,,,15,,62,0
60959,note_on,,0,0,10,,,,,,,,,,,,,,,,15,,74,0
61019,note_on,,179,0,7,,,,,,,,,,,,,,,,10,,79,0
61019,note_on,,179,0,8,,,,,,,,,,,,,,,,11,,79,0
61050,note_on,,31,0,8,,,,,,,,,,,,,,,,11,,74,72
61050,note_on,,31,0,7,,,,,,,,,,,,,,,,10,,74,72
61079,note_on,,29,0,8,,,,,,,,,,,,,,,,11,,74,0
61079,note_on,,29,0,7,,,,,,,,,,,,,,,,10,,74,0
61080,note_on,,1,0,8,,,,,,,,,,,,,,,,11,,74,72
61080,note_on,,121,0,10,,,,,,,,,,,,,,,,15,,59,72
61080,note_on,,0,0,10,,,,,,,,,,,,,,,,15,,67,72
61080,note_on,,0,0,10,,,,,,,,,,,,,,,,15,,62,72
61080,note_on,,1,0,7,,,,,,,,,,,,,,,,10,,74,72
61080,note_on,,121,0,5,,,,,,,,,,,,,,,,2,,59,72
61080,note_on,,121,0,9,,,,,,,,,,,,,,,,13,,59,72
61094,note_on,,14,0,7,,,,,,,,,,,,,,,,10,,74,0
61094,note_on,,14,0,8,,,,,,,,,,,,,,,,11,,74,0
61095,note_on,,1,0,7,,,,,,,,,,,,,,,,10,,75,72
61095,note_on,,1,0,8,,,,,,,,,,,,,,,,11,,75,72
61109,note_on,,14,0,8,,,,,,,,,,,,,,,,11,,75,0
61109,note_on,,14,0,7,,,,,,,,,,,,,,,,10,,75,0
61110,note_on,,1,0,7,,,,,,,,,,,,,,,,10,,74,72
61110,note_on,,1,0,8,,,,,,,,,,,,,,,,11,,74,72
61124,note_on,,14,0,7,,,,,,,,,,,,,,,,10,,74,0
61124,note_on,,14,0,8,,,,,,,,,,,,,,,,11,,74,0
61125,note_on,,1,0,7,,,,,,,,,,,,,,,,10,,75,72
61125,note_on,,1,0,8,,,,,,,,,,,,,,,,11,,75,72
61139,note_on,,14,0,7,,,,,,,,,,,,,,,,10,,75,0
61139,note_on,,14,0,8,,,,,,,,,,,,,,,,11,,75,0
61140,note_on,,1,0,8,,,,,,,,,,,,,,,,11,,74,72
61140,note_on,,1,0,7,,,,,,,,,,,,,,,,10,,74,72
61154,note_on,,14,0,8,,,,,,,,,,,,,,,,11,,74,0
61154,note_on,,14,0,7,,,,,,,,,,,,,,,,10,,74,0
61155,note_on,,1,0,8,,,,,,,,,,,,,,,,11,,75,72
61155,note_on,,1,0,7,,,,,,,,,,,,,,,,10,,75,72
61169,note_on,,14,0,8,,,,,,,,,,,,,,,,11,,75,0
61169,note_on,,14,0,7,,,,,,,,,,,,,,,,10,,75,0
61170,note_on,,1,0,7,,,,,,,,,,,,,,,,10,,72,72
61170,note_on,,1,0,8,,,,,,,,,,,,,,,,11,,72,72
61184,note_on,,14,0,7,,,,,,,,,,,,,,,,10,,72,0
61184,note_on,,14,0,8,,,,,,,,,,,,,,,,11,,72,0
61185,note_on,,1,0,7,,,,,,,,,,,,,,,,10,,74,72
61185,note_on,,1,0,8,,,,,,,,,,,,,,,,11,,74,72
61199,note_on,,0,0,10,,,,,,,,,,,,,,,,15,,62,0
61199,note_on,,0,0,10,,,,,,,,,,,,,,,,15,,67,0
61199,note_on,,119,0,10,,,,,,,,,,,,,,,,15,,59,0
61199,note_on,,119,0,5,,,,,,,,,,,,,,,,2,,59,0
61199,note_on,,119,0,9,,,,,,,,,,,,,,,,13,,59,0
61199,note_on,,14,0,8,,,,,,,,,,,,,,,,11,,74,0
61199,note_on,,14,0,7,,,,,,,,,,,,,,,,10,,74,0
61200,note_on,,1,0,7,,,,,,,,,,,,,,,,10,,75,72
61200,note_on,,1,0,5,,,,,,,,,,,,,,,,2,,60,72
61200,note_on,,1,0,8,,,,,,,,,,,,,,,,11,,75,72
61200,note_on,,1,0,9,,,,,,,,,,,,,,,,13,,60,72
61200,note_on,,1,0,10,,,,,,,,,,,,,,,,15,,60,72
61200,note_on,,0,0,10,,,,,,,,,,,,,,,,15,,72,72
61200,note_on,,0,0,10,,,,,,,,,,,,,,,,15,,67,72
61200,note_on,,0,0,10,,,,,,,,,,,,,,,,15,,63,72
61319,note_on,,119,0,9,,,,,,,,,,,,,,,,13,,60,0
61319,note_on,,0,0,10,,,,,,,,,,,,,,,,15,,72,0
61319,note_on,,119,0,10,,,,,,,,,,,,,,,,15,,60,0
61319,note_on,,0,0,10,,,,,,,,,,,,,,,,15,,67,0
61319,note_on,,119,0,5,,,,,,,,,,,,,,,,2,,60,0
61319,note_on,,0,0,10,,,,,,,,,,,,,,,,15,,63,0
61379,note_on,,179,0,7,,,,,,,,,,,,,,,,10,,75,0
61379,note_on,,179,0,8,,,,,,,,,,,,,,,,11,,75,0
61410,note_on,,31,0,7,,,,,,,,,,,,,,,,10,,71,72
61410,note_on,,31,0,8,,,,,,,,,,,,,,,,11,,71,72
61439,note_on,,29,0,7,,,,,,,,,,,,,,,,10,,71,0
61439,note_on,,29,0,8,,,,,,,,,,,,,,,,11,,71,0
61440,note_on,,121,0,10,,,,,,,,,,,,,,,,15,,62,72
61440,note_on,,121,0,5,,,,,,,,,,,,,,,,2,,62,72
61440,note_on,,0,0,10,,,,,,,,,,,,,,,,15,,77,72
61440,note_on,,0,0,10,,,,,,,,,,,,,,,,15,,74,72
61440,note_on,,0,0,10,,,,,,,,,,,,,,,,15,,71,72
61440,note_on,,1,0,7,,,,,,,,,,,,,,,,10,,71,72
61440,note_on,,121,0,9,,,,,,,,,,,,,,,,13,,62,72
61440,note_on,,1,0,8,,,,,,,,,,,,,,,,11,,71,72
61454,note_on,,14,0,8,,,,,,,,,,,,,,,,11,,71,0
61454,note_on,,14,0,7,,,,,,,,,,,,,,,,10,,71,0
61455,note_on,,1,0,7,,,,,,,,,,,,,,,,10,,72,72
61455,note_on,,1,0,8,,,,,,,,,,,,,,,,11,,72,72
61469,note_on,,14,0,8,,,,,,,,,,,,,,,,11,,72,0
61469,note_on,,14,0,7,,,,,,,,,,,,,,,,10,,72,0
61470,note_on,,1,0,8,,,,,,,,,,,,,,,,11,,71,72
61470,note_on,,1,0,7,,,,,,,,,,,,,,,,10,,71,72
61484,note_on,,14,0,8,,,,,,,,,,,,,,,,11,,71,0
61484,note_on,,14,0,7,,,,,,,,,,,,,,,,10,,71,0
61485,note_on,,1,0,8,,,,,,,,,,,,,,,,11,,72,72
61485,note_on,,1,0,7,,,,,,,,,,,,,,,,10,,72,72
61499,note_on,,14,0,8,,,,,,,,,,,,,,,,11,,72,0
61499,note_on,,14,0,7,,,,,,,,,,,,,,,,10,,72,0
61500,note_on,,1,0,8,,,,,,,,,,,,,,,,11,,71,72
61500,note_on,,1,0,7,,,,,,,,,,,,,,,,10,,71,72
61514,note_on,,14,0,7,,,,,,,,,,,,,,,,10,,71,0
61514,note_on,,14,0,8,,,,,,,,,,,,,,,,11,,71,0
61515,note_on,,1,0,7,,,,,,,,,,,,,,,,10,,72,72
61515,note_on,,1,0,8,,,,,,,,,,,,,,,,11,,72,72
61529,note_on,,14,0,7,,,,,,,,,,,,,,,,10,,72,0
61529,note_on,,14,0,8,,,,,,,,,,,,,,,,11,,72,0
61530,note_on,,1,0,7,,,,,,,,,,,,,,,,10,,69,72
61530,note_on,,1,0,8,,,,,,,,,,,,,,,,11,,69,72
61544,note_on,,14,0,8,,,,,,,,,,,,,,,,11,,69,0
61544,note_on,,14,0,7,,,,,,,,,,,,,,,,10,,69,0
61545,note_on,,1,0,8,,,,,,,,,,,,,,,,11,,71,72
61545,note_on,,1,0,7,,,,,,,,,,,,,,,,10,,71,72
61559,note_on,,0,0,10,,,,,,,,,,,,,,,,15,,77,0
61559,note_on,,0,0,10,,,,,,,,,,,,,,,,15,,71,0
61559,note_on,,119,0,10,,,,,,,,,,,,,,,,15,,62,0
61559,note_on,,14,0,8,,,,,,,,,,,,,,,,11,,71,0
61559,note_on,,119,0,5,,,,,,,,,,,,,,,,2,,62,0
61559,note_on,,0,0,10,,,,,,,,,,,,,,,,15,,74,0
61559,note_on,,119,0,9,,,,,,,,,,,,,,,,13,,62,0
61559,note_on,,14,0,7,,,,,,,,,,,,,,,,10,,71,0
61560,note_on,,1,0,9,,,,,,,,,,,,,,,,13,,63,72
61560,note_on,,1,0,8,,,,,,,,,,,,,,,,11,,72,72
61560,note_on,,0,0,10,,,,,,,,,,,,,,,,15,,67,72
61560,note_on,,0,0,10,,,,,,,,,,,,,,,,15,,72,72
61560,note_on,,0,0,10,,,,,,,,,,,,,,,,15,,79,72
61560,note_on,,1,0,10,,,,,,,,,,,,,,,,15,,63,72
61560,note_on,,1,0,5,,,,,,,,,,,,,,,,2,,63,72
61560,note_on,,1,0,7,,,,,,,,,,,,,,,,10,,72,72
61619,note_on,,59,0,8,,,,,,,,,,,,,,,,11,,72,0
61619,note_on,,59,0,7,,,,,,,,,,,,,,,,10,,72,0
61620,note_on,,1,0,8,,,,,,,,,,,,,,,,11,,67,72
61620,note_on,,1,0,7,,,,,,,,,,,,,,,,10,,67,72
61679,note_on,,119,0,10,,,,,,,,,,,,,,,,15,,63,0
61679,note_on,,0,0,10,,,,,,,,,,,,,,,,15,,72,0
61679,note_on,,0,0,10,,,,,,,,,,,,,,,,15,,67,0
61679,note_on,,119,0,9,,,,,,,,,,,,,,,,13,,63,0
61679,note_on,,119,0,5,,,,,,,,,,,,,,,,2,,63,0
61679,note_on,,59,0,7,,,,,,,,,,,,,,,,10,,67,0
61679,note_on,,59,0,8,,,,,,,,,,,,,,,,11,,67,0
61679,note_on,,0,0,10,,,,,,,,,,,,,,,,15,,79,0
61680,note_on,,1,0,8,,,,,,,,,,,,,,,,11,,75,72
61680,note_on,,1,0,7,,,,,,,,,,,,,,,,10,,75,72
61739,note_on,,59,0,7,,,,,,,,,,,,,,,,10,,75,0
61739,note_on,,59,0,8,,,,,,,,,,,,,,,,11,,75,0
61740,note_on,,1,0,8,,,,,,,,,,,,,,,,11,,71,72
61740,note_on,,1,0,7,,,,,,,,,,,,,,,,10,,71,72
61799,note_on,,59,0,8,,,,,,,,,,,,,,,,11,,71,0
61799,note_on,,59,0,7,,,,,,,,,,,,,,,,10,,71,0
61800,note_on,,1,0,8,,,,,,,,,,,,,,,,11,,72,72
61800,note_on,,1,0,7,,,,,,,,,,,,,,,,10,,72,72
61859,note_on,,59,0,8,,,,,,,,,,,,,,,,11,,72,0
61859,note_on,,59,0,7,,,,,,,,,,,,,,,,10,,72,0
61860,note_on,,1,0,8,,,,,,,,,,,,,,,,11,,67,72
61860,note_on,,1,0,7,,,,,,,,,,,,,,,,10,,67,72
61919,note_on,,59,0,8,,,,,,,,,,,,,,,,11,,67,0
61919,note_on,,59,0,7,,,,,,,,,,,,,,,,10,,67,0
61920,note_on,,1,0,8,,,,,,,,,,,,,,,,11,,63,72
61920,note_on,,1,0,7,,,,,,,,,,,,,,,,10,,63,72
61979,note_on,,59,0,8,,,,,,,,,,,,,,,,11,,63,0
61979,note_on,,59,0,7,,,,,,,,,,,,,,,,10,,63,0
61980,note_on,,1,0,7,,,,,,,,,,,,,,,,10,,60,72
61980,note_on,,1,0,8,,,,,,,,,,,,,,,,11,,60,72
62039,note_on,,59,0,7,,,,,,,,,,,,,,,,10,,60,0
62039,note_on,,59,0,8,,,,,,,,,,,,,,,,11,,60,0
62040,note_on,,1,0,7,,,,,,,,,,,,,,,,10,,67,72
62040,note_on,,1,0,8,,,,,,,,,,,,,,,,11,,67,72
62099,note_on,,59,0,7,,,,,,,,,,,,,,,,10,,67,0
62099,note_on,,59,0,8,,,,,,,,,,,,,,,,11,,67,0
62100,note_on,,1,0,7,,,,,,,,,,,,,,,,10,,63,72
62100,note_on,,1,0,8,,,,,,,,,,,,,,,,11,,63,72
62159,note_on,,59,0,7,,,,,,,,,,,,,,,,10,,63,0
62159,note_on,,59,0,8,,,,,,,,,,,,,,,,11,,63,0
62160,note_on,,1,0,7,,,,,,,,,,,,,,,,10,,72,72
62160,note_on,,1,0,8,,,,,,,,,,,,,,,,11,,72,72
62219,note_on,,59,0,7,,,,,,,,,,,,,,,,10,,72,0
62219,note_on,,59,0,8,,,,,,,,,,,,,,,,11,,72,0
62220,note_on,,1,0,8,,,,,,,,,,,,,,,,11,,67,72
62220,note_on,,1,0,7,,,,,,,,,,,,,,,,10,,67,72
62279,note_on,,59,0,8,,,,,,,,,,,,,,,,11,,67,0
62279,note_on,,59,0,7,,,,,,,,,,,,,,,,10,,67,0
62280,note_on,,1,0,8,,,,,,,,,,,,,,,,11,,75,72
62280,note_on,,1,0,7,,,,,,,,,,,,,,,,10,,75,72
62339,note_on,,59,0,8,,,,,,,,,,,,,,,,11,,75,0
62339,note_on,,59,0,7,,,,,,,,,,,,,,,,10,,75,0
62340,note_on,,1,0,8,,,,,,,,,,,,,,,,11,,72,72
62340,note_on,,1,0,7,,,,,,,,,,,,,,,,10,,72,72
62399,note_on,,59,0,7,,,,,,,,,,,,,,,,10,,72,0
62399,note_on,,59,0,8,,,,,,,,,,,,,,,,11,,72,0
62400,note_on,,1,0,7,,,,,,,,,,,,,,,,10,,79,72
62400,note_on,,1,0,8,,,,,,,,,,,,,,,,11,,79,72
62459,note_on,,59,0,7,,,,,,,,,,,,,,,,10,,79,0
62459,note_on,,59,0,8,,,,,,,,,,,,,,,,11,,79,0
62460,note_on,,1,0,8,,,,,,,,,,,,,,,,11,,75,72
62460,note_on,,1,0,7,,,,,,,,,,,,,,,,10,,75,72
62519,note_on,,59,0,8,,,,,,,,,,,,,,,,11,,75,0
62519,note_on,,59,0,7,,,,,,,,,,,,,,,,10,,75,0
62520,note_on,,1,0,8,,,,,,,,,,,,,,,,11,,72,72
62520,note_on,,1,0,7,,,,,,,,,,,,,,,,10,,72,72
62579,note_on,,59,0,8,,,,,,,,,,,,,,,,11,,72,0
62579,note_on,,59,0,7,,,,,,,,,,,,,,,,10,,72,0
62580,note_on,,1,0,7,,,,,,,,,,,,,,,,10,,67,72
62580,note_on,,1,0,8,,,,,,,,,,,,,,,,11,,67,72
62639,note_on,,59,0,7,,,,,,,,,,,,,,,,10,,67,0
62639,note_on,,59,0,8,,,,,,,,,,,,,,,,11,,67,0
62640,note_on,,1,0,8,,,,,,,,,,,,,,,,11,,75,72
62640,note_on,,1,0,7,,,,,,,,,,,,,,,,10,,75,72
62699,note_on,,59,0,8,,,,,,,,,,,,,,,,11,,75,0
62699,note_on,,59,0,7,,,,,,,,,,,,,,,,10,,75,0
62700,note_on,,1,0,8,,,,,,,,,,,,,,,,11,,72,72
62700,note_on,,1,0,7,,,,,,,,,,,,,,,,10,,72,72
62759,note_on,,59,0,7,,,,,,,,,,,,,,,,10,,72,0
62759,note_on,,59,0,8,,,,,,,,,,,,,,,,11,,72,0
62760,note_on,,1,0,7,,,,,,,,,,,,,,,,10,,79,72
62760,note_on,,1,0,8,,,,,,,,,,,,,,,,11,,79,72
62819,note_on,,59,0,8,,,,,,,,,,,,,,,,11,,79,0
62819,note_on,,59,0,7,,,,,,,,,,,,,,,,10,,79,0
62820,note_on,,1,0,7,,,,,,,,,,,,,,,,10,,75,72
62820,note_on,,1,0,8,,,,,,,,,,,,,,,,11,,75,72
62879,note_on,,59,0,7,,,,,,,,,,,,,,,,10,,75,0
62879,note_on,,59,0,8,,,,,,,,,,,,,,,,11,,75,0
62880,note_on,,1,0,8,,,,,,,,,,,,,,,,11,,84,72
62880,note_on,,0,0,10,,,,,,,,,,,,,,,,15,,67,72
62880,note_on,,1201,0,10,,,,,,,,,,,,,,,,15,,51,72
62880,note_on,,0,0,10,,,,,,,,,,,,,,,,15,,72,72
62880,note_on,,1,0,7,,,,,,,,,,,,,,,,10,,84,72
62880,note_on,,1201,0,9,,,,,,,,,,,,,,,,13,,51,72
62880,note_on,,0,0,10,,,,,,,,,,,,,,,,15,,69,72
62880,note_on,,1201,0,5,,,,,,,,,,,,,,,,2,,51,72
62939,note_on,,59,0,8,,,,,,,,,,,,,,,,11,,84,0
62939,note_on,,59,0,7,,,,,,,,,,,,,,,,10,,84,0
62940,note_on,,1,0,8,,,,,,,,,,,,,,,,11,,81,72
62940,note_on,,1,0,7,,,,,,,,,,,,,,,,10,,81,72
62999,note_on,,0,0,10,,,,,,,,,,,,,,,,15,,67,0
62999,note_on,,119,0,9,,,,,,,,,,,,,,,,13,,51,0
62999,note_on,,0,0,10,,,,,,,,,,,,,,,,15,,72,0
62999,note_on,,0,0,10,,,,,,,,,,,,,,,,15,,69,0
62999,note_on,,59,0,7,,,,,,,,,,,,,,,,10,,81,0
62999,note_on,,119,0,5,,,,,,,,,,,,,,,,2,,51,0
62999,note_on,,59,0,8,,,,,,,,,,,,,,,,11,,81,0
62999,note_on,,119,0,10,,,,,,,,,,,,,,,,15,,51,0
63000,note_on,,1,0,9,,,,,,,,,,,,,,,,13,,50,72
63000,note_on,,1,0,10,,,,,,,,,,,,,,,,15,,50,72
63000,note_on,,1,0,8,,,,,,,,,,,,,,,,11,,78,72
63000,note_on,,0,0,10,,,,,,,,,,,,,,,,15,,74,72
63000,note_on,,0,0,10,,,,,,,,,,,,,,,,15,,69,72
63000,note_on,,0,0,10,,,,,,,,,,,,,,,,15,,66,72
63000,note_on,,1,0,7,,,,,,,,,,,,,,,,10,,78,72
63000,note_on,,1,0,5,,,,,,,,,,,,,,,,2,,50,72
63119,note_on,,0,0,10,,,,,,,,,,,,,,,,15,,69,0
63119,note_on,,0,0,10,,,,,,,,,,,,,,,,15,,66,0
63119,note_on,,119,0,10,,,,,,,,,,,,,,,,15,,74,0
63179,note_on,,179,0,8,,,,,,,,,,,,,,,,11,,78,0
63179,note_on,,179,0,9,,,,,,,,,,,,,,,,13,,50,0
63179,note_on,,179,0,5,,,,,,,,,,,,,,,,2,,50,0
63179,note_on,,60,0,10,,,,,,,,,,,,,,,,15,,50,0
63179,note_on,,179,0,7,,,,,,,,,,,,,,,,10,,78,0
63210,note_on,,31,0,9,,,,,,,,,,,,,,,,13,,48,72
63210,note_on,,31,0,10,,,,,,,,,,,,,,,,15,,48,72
63210,note_on,,31,0,5,,,,,,,,,,,,,,,,2,,48,72
63210,note_on,,31,0,8,,,,,,,,,,,,,,,,11,,74,72
63210,note_on,,31,0,7,,,,,,,,,,,,,,,,10,,74,72
63239,note_on,,29,0,5,,,,,,,,,,,,,,,,2,,48,0
63239,note_on,,29,0,7,,,,,,,,,,,,,,,,10,,74,0
63239,note_on,,29,0,9,,,,,,,,,,,,,,,,13,,48,0
63239,note_on,,29,0,10,,,,,,,,,,,,,,,,15,,48,0
63239,note_on,,29,0,8,,,,,,,,,,,,,,,,11,,74,0
63240,note_on,,0,0,10,,,,,,,,,,,,,,,,15,,46,72
63240,note_on,,0,0,10,,,,,,,,,,,,,,,,15,,79,72
63240,note_on,,1,0,9,,,,,,,,,,,,,,,,13,,46,72
63240,note_on,,1,0,8,,,,,,,,,,,,,,,,11,,79,72
63240,note_on,,0,0,10,,,,,,,,,,,,,,,,15,,74,72
63240,note_on,,1,0,5,,,,,,,,,,,,,,,,2,,46,72
63240,note_on,,1,0,7,,,,,,,,,,,,,,,,10,,79,72
63240,note_on,,1,0,10,,,,,,,,,,,,,,,,15,,67,72
63329,note_on,,89,0,8,,,,,,,,,,,,,,,,11,,79,0
63329,note_on,,89,0,7,,,,,,,,,,,,,,,,10,,79,0
63330,note_on,,1,0,7,,,,,,,,,,,,,,,,10,,72,72
63330,note_on,,1,0,8,,,,,,,,,,,,,,,,11,,72,72
63359,note_on,,29,0,7,,,,,,,,,,,,,,,,10,,72,0
63359,note_on,,0,0,10,,,,,,,,,,,,,,,,15,,74,0
63359,note_on,,29,0,8,,,,,,,,,,,,,,,,11,,72,0
63359,note_on,,0,0,10,,,,,,,,,,,,,,,,15,,46,0
63359,note_on,,119,0,10,,,,,,,,,,,,,,,,15,,67,0
63359,note_on,,119,0,5,,,,,,,,,,,,,,,,2,,46,0
63359,note_on,,119,0,9,,,,,,,,,,,,,,,,13,,46,0
63359,note_on,,0,0,10,,,,,,,,,,,,,,,,15,,79,0
63360,note_on,,1,0,9,,,,,,,,,,,,,,,,13,,48,72
63360,note_on,,0,0,10,,,,,,,,,,,,,,,,15,,70,72
63360,note_on,,0,0,10,,,,,,,,,,,,,,,,15,,75,72
63360,note_on,,1,0,5,,,,,,,,,,,,,,,,2,,48,72
63360,note_on,,1,0,8,,,,,,,,,,,,,,,,11,,70,72
63360,note_on,,0,0,10,,,,,,,,,,,,,,,,15,,67,72
63360,note_on,,1,0,7,,,,,,,,,,,,,,,,10,,70,72
63360,note_on,,1,0,10,,,,,,,,,,,,,,,,15,,48,72
63449,note_on,,89,0,8,,,,,,,,,,,,,,,,11,,70,0
63449,note_on,,89,0,7,,,,,,,,,,,,,,,,10,,70,0
63450,note_on,,1,0,8,,,,,,,,,,,,,,,,11,,69,72
63450,note_on,,1,0,7,,,,,,,,,,,,,,,,10,,69,72
63479,note_on,,29,0,7,,,,,,,,,,,,,,,,10,,69,0
63479,note_on,,119,0,5,,,,,,,,,,,,,,,,2,,48,0
63479,note_on,,119,0,10,,,,,,,,,,,,,,,,15,,48,0
63479,note_on,,0,0,10,,,,,,,,,,,,,,,,15,,75,0
63479,note_on,,0,0,10,,,,,,,,,,,,,,,,15,,70,0
63479,note_on,,29,0,8,,,,,,,,,,,,,,,,11,,69,0
63479,note_on,,0,0,10,,,,,,,,,,,,,,,,15,,67,0
63479,note_on,,119,0,9,,,,,,,,,,,,,,,,13,,48,0
63480,note_on,,1,0,9,,,,,,,,,,,,,,,,13,,50,72
63480,note_on,,0,0,10,,,,,,,,,,,,,,,,15,,66,72
63480,note_on,,0,0,10,,,,,,,,,,,,,,,,15,,69,72
63480,note_on,,0,0,10,,,,,,,,,,,,,,,,15,,74,72
63480,note_on,,1,0,7,,,,,,,,,,,,,,,,10,,69,72
63480,note_on,,1,0,10,,,,,,,,,,,,,,,,15,,50,72
63480,note_on,,1,0,5,,,,,,,,,,,,,,,,2,,50,72
63480,note_on,,1,0,8,,,,,,,,,,,,,,,,11,,69,72
63494,note_on,,14,0,8,,,,,,,,,,,,,,,,11,,69,0
63494,note_on,,14,0,7,,,,,,,,,,,,,,,,10,,69,0
63495,note_on,,1,0,8,,,,,,,,,,,,,,,,11,,70,72
63495,note_on,,1,0,7,,,,,,,,,,,,,,,,10,,70,72
63509,note_on,,14,0,8,,,,,,,,,,,,,,,,11,,70,0
63509,note_on,,14,0,7,,,,,,,,,,,,,,,,10,,70,0
63510,note_on,,1,0,7,,,,,,,,,,,,,,,,10,,69,72
63510,note_on,,1,0,8,,,,,,,,,,,,,,,,11,,69,72
63524,note_on,,14,0,8,,,,,,,,,,,,,,,,11,,69,0
63524,note_on,,14,0,7,,,,,,,,,,,,,,,,10,,69,0
63525,note_on,,1,0,8,,,,,,,,,,,,,,,,11,,70,72
63525,note_on,,1,0,7,,,,,,,,,,,,,,,,10,,70,72
63539,note_on,,14,0,7,,,,,,,,,,,,,,,,10,,70,0
63539,note_on,,14,0,8,,,,,,,,,,,,,,,,11,,70,0
63540,note_on,,1,0,7,,,,,,,,,,,,,,,,10,,69,72
63540,note_on,,1,0,8,,,,,,,,,,,,,,,,11,,69,72
63554,note_on,,14,0,8,,,,,,,,,,,,,,,,11,,69,0
63554,note_on,,14,0,7,,,,,,,,,,,,,,,,10,,69,0
63555,note_on,,1,0,8,,,,,,,,,,,,,,,,11,,70,72
63555,note_on,,1,0,7,,,,,,,,,,,,,,,,10,,70,72
63569,note_on,,14,0,7,,,,,,,,,,,,,,,,10,,70,0
63569,note_on,,14,0,8,,,,,,,,,,,,,,,,11,,70,0
63570,note_on,,1,0,8,,,,,,,,,,,,,,,,11,,69,72
63570,note_on,,1,0,7,,,,,,,,,,,,,,,,10,,69,72
63584,note_on,,14,0,7,,,,,,,,,,,,,,,,10,,69,0
63584,note_on,,14,0,8,,,,,,,,,,,,,,,,11,,69,0
63585,note_on,,1,0,8,,,,,,,,,,,,,,,,11,,70,72
63585,note_on,,1,0,7,,,,,,,,,,,,,,,,10,,70,72
63599,note_on,,0,0,10,,,,,,,,,,,,,,,,15,,74,0
63599,note_on,,0,0,10,,,,,,,,,,,,,,,,15,,69,0
63599,note_on,,119,0,9,,,,,,,,,,,,,,,,13,,50,0
63599,note_on,,14,0,7,,,,,,,,,,,,,,,,10,,70,0
63599,note_on,,0,0,10,,,,,,,,,,,,,,,,15,,66,0
63599,note_on,,119,0,10,,,,,,,,,,,,,,,,15,,50,0
63599,note_on,,119,0,5,,,,,,,,,,,,,,,,2,,50,0
63599,note_on,,14,0,8,,,,,,,,,,,,,,,,11,,70,0
63600,note_on,,1,0,8,,,,,,,,,,,,,,,,11,,69,72
63600,note_on,,0,0,10,,,,,,,,,,,,,,,,15,,69,72
63600,note_on,,0,0,10,,,,,,,,,,,,,,,,15,,78,72
63600,note_on,,1,0,5,,,,,,,,,,,,,,,,2,,38,72
63600,note_on,,1,0,9,,,,,,,,,,,,,,,,13,,38,72
63600,note_on,,1,0,10,,,,,,,,,,,,,,,,15,,38,72
63600,note_on,,0,0,10,,,,,,,,,,,,,,,,15,,72,72
63600,note_on,,1,0,7,,,,,,,,,,,,,,,,10,,69,72
63614,note_on,,14,0,7,,,,,,,,,,,,,,,,10,,69,0
63614,note_on,,14,0,8,,,,,,,,,,,,,,,,11,,69,0
63615,note_on,,1,0,8,,,,,,,,,,,,,,,,11,,70,72
63615,note_on,,1,0,7,,,,,,,,,,,,,,,,10,,70,72
63629,note_on,,14,0,8,,,,,,,,,,,,,,,,11,,70,0
63629,note_on,,14,0,7,,,,,,,,,,,,,,,,10,,70,0
63630,note_on,,1,0,7,,,,,,,,,,,,,,,,10,,67,72
63630,note_on,,1,0,8,,,,,,,,,,,,,,,,11,,67,72
63644,note_on,,14,0,7,,,,,,,,,,,,,,,,10,,67,0
63644,note_on,,14,0,8,,,,,,,,,,,,,,,,11,,67,0
63645,note_on,,1,0,7,,,,,,,,,,,,,,,,10,,69,72
63645,note_on,,1,0,8,,,,,,,,,,,,,,,,11,,69,72
63659,note_on,,14,0,8,,,,,,,,,,,,,,,,11,,69,0
63659,note_on,,14,0,7,,,,,,,,,,,,,,,,10,,69,0
63660,note_on,,1,0,8,,,,,,,,,,,,,,,,11,,67,72
63660,note_on,,1,0,7,,,,,,,,,,,,,,,,10,,67,72
63719,note_on,,0,0,10,,,,,,,,,,,,,,,,15,,69,0
63719,note_on,,119,0,10,,,,,,,,,,,,,,,,15,,38,0
63719,note_on,,119,0,5,,,,,,,,,,,,,,,,2,,38,0
63719,note_on,,59,0,8,,,,,,,,,,,,,,,,11,,67,0
63719,note_on,,0,0,10,,,,,,,,,,,,,,,,15,,72,0
63719,note_on,,0,0,10,,,,,,,,,,,,,,,,15,,78,0
63719,note_on,,119,0,9,,,,,,,,,,,,,,,,13,,38,0
63719,note_on,,59,0,7,,,,,,,,,,,,,,,,10,,67,0
63720,note_on,,1,0,5,,,,,,,,,,,,,,,,2,,43,72
63720,note_on,,1,0,9,,,,,,,,,,,,,,,,13,,43,72
63720,note_on,,1,0,7,,,,,,,,,,,,,,,,10,,67,72
63720,note_on,,0,0,10,,,,,,,,,,,,,,,,15,,74,72
63720,note_on,,0,0,10,,,,,,,,,,,,,,,,15,,70,72
63720,note_on,,1,0,10,,,,,,,,,,,,,,,,15,,43,72
63720,note_on,,1,0,8,,,,,,,,,,,,,,,,11,,67,72
63720,note_on,,0,0,10,,,,,,,,,,,,,,,,15,,79,72
64079,note_on,,359,0,10,,,,,,,,,,,,,,,,15,,43,0
64079,note_on,,0,0,10,,,,,,,,,,,,,,,,15,,79,0
64079,note_on,,0,0,10,,,,,,,,,,,,,,,,15,,74,0
64079,note_on,,359,0,9,,,,,,,,,,,,,,,,13,,43,0
64079,note_on,,359,0,5,,,,,,,,,,,,,,,,2,,43,0
64079,end_of_track,,0,1,5,,,,,,,,,,,,,,,,,,,
64079,end_of_track,,0,1,9,,,,,,,,,,,,,,,,,,,
64079,note_on,,359,0,7,,,,,,,,,,,,,,,,10,,67,0
64079,end_of_track,,0,1,7,,,,,,,,,,,,,,,,,,,
64079,note_on,,0,0,10,,,,,,,,,,,,,,,,15,,70,0
64079,note_on,,359,0,8,,,,,,,,,,,,,,,,11,,67,0
64079,end_of_track,,0,1,8,,,,,,,,,,,,,,,,,,,
64079,end_of_track,,0,1,10,,,,,,,,,,,,,,,,,,,
64800,end_of_track,,0,1,0,,,,,,,,,,,,,,,,,,,
64800,set_tempo,,6600,1,0,,,,,,,,,705882,,,,,,,,,,
