tick,type,data,time,meta,track,frame_rate,hours,minutes,seconds,frames,sub_frames,port,key,tempo,numerator,denominator,clocks_per_click,notated_32nd_notes_per_beat,control,value,channel,program,note,velocity
0,sequencer_specific,"(0, 0, 91, 35, 1, 0, 5, 4, 35, 0)",0,1,0,,,,,,,,,,,,,,,,,,,
0,control_change,,0,0,9,,,,,,,,,,,,,,11,127,6,,,
0,control_change,,0,0,9,,,,,,,,,,,,,,10,104,6,,,
0,midi_port,,0,1,9,,,,,,,0,,,,,,,,,,,,
0,track_name,,0,1,9,,,,,,,,,,,,,,,,,,,
0,track_name,,0,1,16,,,,,,,,,,,,,,,,,,,
0,midi_port,,0,1,16,,,,,,,0,,,,,,,,,,,,
0,control_change,,0,0,16,,,,,,,,,,,,,,11,127,15,,,
0,control_change,,0,0,16,,,,,,,,,,,,,,10,90,15,,,
0,program_change,,0,0,16,,,,,,,,,,,,,,,,15,6,,
0,control_change,,0,0,16,,,,,,,,,,,,,,7,96,15,,,
0,note_on,,0,0,16,,,,,,,,,,,,,,,,15,,45,72
0,note_on,,0,0,16,,,,,,,,,,,,,,,,15,,64,72
0,note_on,,0,0,16,,,,,,,,,,,,,,,,15,,61,72
0,note_on,,0,0,16,,,,,,,,,,,,,,,,15,,57,72
0,program_change,,0,0,9,,,,,,,,,,,,,,,,6,73,,
0,midi_port,,0,1,12,,,,,,,0,,,,,,,,,,,,
0,control_change,,0,0,8,,,,,,,,,,,,,,10,24,5,,,
0,midi_port,,0,1,8,,,,,,,0,,,,,,,,,,,,
0,track_name,,0,1,8,,,,,,,,,,,,,,,,,,,
0,note_on,,0,0,7,,,,,,,,,,,,,,,,2,,45,72
0,control_change,,0,0,7,,,,,,,,,,,,,,7,96,2,,,
0,program_change,,0,0,7,,,,,,,,,,,,,,,,2,70,,
0,control_change,,0,0,7,,,,,,,,,,,,,,11,127,2,,,
0,control_change,,0,0,7,,,,,,,,,,,,,,10,65,2,,,
0,midi_port,,0,1,7,,,,,,,0,,,,,,,,,,,,
0,track_name,,0,1,7,,,,,,,,,,,,,,,,,,,
0,control_change,,0,0,6,,,,,,,,,,,,,,7,64,1,,,
0,program_change,,0,0,6,,,,,,,,,,,,,,,,1,68,,
0,control_change,,0,0,6,,,,,,,,,,,,,,10,75,1,,,
0,control_change,,0,0,6,,,,,,,,,,,,,,11,127,1,,,
0,program_change,,0,0,8,,,,,,,,,,,,,,,,5,73,,
0,midi_port,,0,1,6,,,,,,,0,,,,,,,,,,,,
0,note_on,,0,0,15,,,,,,,,,,,,,,,,13,,45,72
0,program_change,,0,0,15,,,,,,,,,,,,,,,,13,48,,
0,control_change,,0,0,12,,,,,,,,,,,,,,10,48,10,,,
0,control_change,,0,0,12,,,,,,,,,,,,,,11,127,10,,,
0,program_change,,0,0,12,,,,,,,,,,,,,,,,10,48,,
0,control_change,,0,0,12,,,,,,,,,,,,,,7,96,10,,,
0,track_name,,0,1,13,,,,,,,,,,,,,,,,,,,
0,midi_port,,0,1,13,,,,,,,0,,,,,,,,,,,,
0,control_change,,0,0,13,,,,,,,,,,,,,,10,24,11,,,
0,control_change,,0,0,13,,,,,,,,,,,,,,11,127,11,,,
0,program_change,,0,0,13,,,,,,,,,,,,,,,,11,48,,
0,control_change,,0,0,13,,,,,,,,,,,,,,7,96,11,,,
0,program_change,,0,0,11,,,,,,,,,,,,,,,,8,60,,
0,control_change,,0,0,11,,,,,,,,,,,,,,11,127,8,,,
0,control_change,,0,0,11,,,,,,,,,,,,,,10,80,8,,,
0,midi_port,,0,1,11,,,,,,,0,,,,,,,,,,,,
0,control_change,,0,0,15,,,,,,,,,,,,,,7,96,13,,,
0,track_name,,0,1,11,,,,,,,,,,,,,,,,,,,
0,midi_port,,0,1,14,,,,,,,0,,,,,,,,,,,,
0,control_change,,0,0,14,,,,,,,,,,,,,,10,80,12,,,
0,control_change,,0,0,14,,,,,,,,,,,,,,11,127,12,,,
0,program_change,,0,0,14,,,,,,,,,,,,,,,,12,48,,
0,control_change,,0,0,14,,,,,,,,,,,,,,7,96,12,,,
0,program_change,,0,0,10,,,,,,,,,,,,,,,,7,70,,
0,control_change,,0,0,10,,,,,,,,,,,,,,11,127,7,,,
0,control_change,,0,0,10,,,,,,,,,,,,,,10,48,7,,,
0,midi_port,,0,1,10,,,,,,,0,,,,,,,,,,,,
0,track_name,,0,1,10,,,,,,,,,,,,,,,,,,,
0,track_name,,0,1,15,,,,,,,,,,,,,,,,,,,
0,midi_port,,0,1,15,,,,,,,0,,,,,,,,,,,,
0,control_change,,0,0,15,,,,,,,,,,,,,,10,96,13,,,
0,control_change,,0,0,15,,,,,,,,,,,,,,11,127,13,,,
0,track_name,,0,1,14,,,,,,,,,,,,,,,,,,,
0,track_name,,0,1,6,,,,,,,,,,,,,,,,,,,
0,track_name,,0,1,12,,,,,,,,,,,,,,,,,,,
0,control_change,,0,0,5,,,,,,,,,,,,,,7,64,0,,,
0,set_tempo,,0,1,0,,,,,,,,,375000,,,,,,,,,,
0,track_name,,0,1,0,,,,,,,,,,,,,,,,,,,
0,program_change,,0,0,5,,,,,,,,,,,,,,,,0,68,,
0,instrument_name,,0,1,0,,,,,,,,,,,,,,,,,,,
0,midi_port,,0,1,2,,,,,,,0,,,,,,,,,,,,
0,track_name,,0,1,2,,,,,,,,,,,,,,,,,,,
0,end_of_track,,0,1,1,,,,,,,,,,,,,,,,,,,
0,midi_port,,0,1,1,,,,,,,0,,,,,,,,,,,,
0,smpte_offset,,0,1,0,25,32,0,3,0,0,,,,,,,,,,,,,
0,midi_port,,0,1,0,,,,,,,0,,,,,,,,,,,,
0,control_change,,0,0,5,,,,,,,,,,,,,,10,70,0,,,
0,control_change,,0,0,5,,,,,,,,,,,,,,11,127,0,,,
0,midi_port,,0,1,5,,,,,,,0,,,,,,,,,,,,
0,track_name,,0,1,5,,,,,,,,,,,,,,,,,,,
0,key_signature,,0,1,0,,,,,,,,A,,,,,,,,,,,
0,time_signature,,0,1,0,,,,,,,,,,3,4,24,8,,,,,,
0,track_name,,0,1,3,,,,,,,,,,,,,,,,,,,
0,midi_port,,0,1,3,,,,,,,0,,,,,,,,,,,,
0,track_name,,0,1,1,,,,,,,,,,,,,,,,,,,
0,end_of_track,,0,1,3,,,,,,,,,,,,,,,,,,,
0,end_of_track,,0,1,4,,,,,,,,,,,,,,,,,,,
0,midi_port,,0,1,4,,,,,,,0,,,,,,,,,,,,
0,end_of_track,,0,1,2,,,,,,,,,,,,,,,,,,,
120,note_on,,120,0,13,,,,,,,,,,,,,,,,11,,64,72
120,note_on,,120,0,12,,,,,,,,,,,,,,,,10,,73,72
120,note_on,,120,0,14,,,,,,,,,,,,,,,,12,,69,84
120,note_on,,120,0,6,,,,,,,,,,,,,,,,1,,64,72
120,note_on,,120,0,5,,,,,,,,,,,,,,,,0,,73,72
239,note_on,,119,0,13,,,,,,,,,,,,,,,,11,,64,0
239,note_on,,239,0,15,,,,,,,,,,,,,,,,13,,45,0
239,note_on,,119,0,6,,,,,,,,,,,,,,,,1,,64,0
239,note_on,,119,0,5,,,,,,,,,,,,,,,,0,,73,0
239,note_on,,0,0,16,,,,,,,,,,,,,,,,15,,61,0
239,note_on,,0,0,16,,,,,,,,,,,,,,,,15,,64,0
239,note_on,,119,0,14,,,,,,,,,,,,,,,,12,,69,0
239,note_on,,119,0,12,,,,,,,,,,,,,,,,10,,73,0
239,note_on,,239,0,7,,,,,,,,,,,,,,,,2,,45,0
239,note_on,,0,0,16,,,,,,,,,,,,,,,,15,,57,0
239,note_on,,239,0,16,,,,,,,,,,,,,,,,15,,45,0
240,note_on,,1,0,5,,,,,,,,,,,,,,,,0,,69,72
240,note_on,,1,0,15,,,,,,,,,,,,,,,,13,,57,72
240,note_on,,1,0,16,,,,,,,,,,,,,,,,15,,57,72
240,note_on,,0,0,16,,,,,,,,,,,,,,,,15,,73,72
240,note_on,,0,0,16,,,,,,,,,,,,,,,,15,,64,72
240,note_on,,1,0,13,,,,,,,,,,,,,,,,11,,73,72
240,note_on,,1,0,14,,,,,,,,,,,,,,,,12,,64,84
240,note_on,,1,0,7,,,,,,,,,,,,,,,,2,,57,72
240,note_on,,0,0,16,,,,,,,,,,,,,,,,15,,69,72
240,note_on,,1,0,6,,,,,,,,,,,,,,,,1,,73,72
240,note_on,,1,0,12,,,,,,,,,,,,,,,,10,,69,72
359,note_on,,119,0,13,,,,,,,,,,,,,,,,11,,73,0
359,note_on,,119,0,16,,,,,,,,,,,,,,,,15,,57,0
359,note_on,,119,0,5,,,,,,,,,,,,,,,,0,,69,0
359,note_on,,0,0,16,,,,,,,,,,,,,,,,15,,73,0
359,note_on,,119,0,6,,,,,,,,,,,,,,,,1,,73,0
359,note_on,,119,0,14,,,,,,,,,,,,,,,,12,,64,0
359,note_on,,0,0,16,,,,,,,,,,,,,,,,15,,69,0
359,note_on,,0,0,16,,,,,,,,,,,,,,,,15,,64,0
359,note_on,,119,0,7,,,,,,,,,,,,,,,,2,,57,0
359,note_on,,119,0,15,,,,,,,,,,,,,,,,13,,57,0
359,note_on,,119,0,12,,,,,,,,,,,,,,,,10,,69,0
360,note_on,,1,0,14,,,,,,,,,,,,,,,,12,,64,84
360,note_on,,1,0,7,,,,,,,,,,,,,,,,2,,56,72
360,note_on,,1,0,12,,,,,,,,,,,,,,,,10,,76,72
360,note_on,,1,0,6,,,,,,,,,,,,,,,,1,,71,72
360,note_on,,1,0,5,,,,,,,,,,,,,,,,0,,76,72
360,note_on,,1,0,15,,,,,,,,,,,,,,,,13,,56,72
360,note_on,,1,0,16,,,,,,,,,,,,,,,,15,,56,72
360,note_on,,0,0,16,,,,,,,,,,,,,,,,15,,71,72
360,note_on,,0,0,16,,,,,,,,,,,,,,,,15,,64,72
360,note_on,,1,0,13,,,,,,,,,,,,,,,,11,,71,72
360,note_on,,0,0,16,,,,,,,,,,,,,,,,15,,59,72
479,note_on,,119,0,16,,,,,,,,,,,,,,,,15,,56,0
479,note_on,,0,0,16,,,,,,,,,,,,,,,,15,,71,0
479,note_on,,119,0,13,,,,,,,,,,,,,,,,11,,71,0
479,note_on,,119,0,15,,,,,,,,,,,,,,,,13,,56,0
479,note_on,,119,0,7,,,,,,,,,,,,,,,,2,,56,0
479,note_on,,119,0,6,,,,,,,,,,,,,,,,1,,71,0
480,note_on,,1,0,16,,,,,,,,,,,,,,,,15,,52,72
480,note_on,,0,0,16,,,,,,,,,,,,,,,,15,,68,72
480,note_on,,1,0,6,,,,,,,,,,,,,,,,1,,68,72
480,note_on,,1,0,15,,,,,,,,,,,,,,,,13,,52,72
480,note_on,,1,0,7,,,,,,,,,,,,,,,,2,,52,72
480,note_on,,1,0,13,,,,,,,,,,,,,,,,11,,68,72
539,note_on,,179,0,5,,,,,,,,,,,,,,,,0,,76,0
539,note_on,,179,0,12,,,,,,,,,,,,,,,,10,,76,0
540,note_on,,1,0,5,,,,,,,,,,,,,,,,0,,74,72
540,note_on,,1,0,12,,,,,,,,,,,,,,,,10,,74,72
599,note_on,,119,0,16,,,,,,,,,,,,,,,,15,,64,0
599,note_on,,119,0,13,,,,,,,,,,,,,,,,11,,68,0
599,note_on,,239,0,14,,,,,,,,,,,,,,,,12,,64,0
599,note_on,,0,0,16,,,,,,,,,,,,,,,,15,,68,0
599,note_on,,0,0,16,,,,,,,,,,,,,,,,15,,52,0
599,note_on,,0,0,16,,,,,,,,,,,,,,,,15,,59,0
599,note_on,,119,0,7,,,,,,,,,,,,,,,,2,,52,0
599,note_on,,119,0,15,,,,,,,,,,,,,,,,13,,52,0
599,note_on,,59,0,12,,,,,,,,,,,,,,,,10,,74,0
599,note_on,,119,0,6,,,,,,,,,,,,,,,,1,,68,0
599,note_on,,59,0,5,,,,,,,,,,,,,,,,0,,74,0
600,note_on,,1,0,14,,,,,,,,,,,,,,,,12,,64,84
600,note_on,,1,0,15,,,,,,,,,,,,,,,,13,,57,72
600,note_on,,1,0,6,,,,,,,,,,,,,,,,1,,73,72
600,note_on,,0,0,16,,,,,,,,,,,,,,,,15,,69,72
600,note_on,,0,0,16,,,,,,,,,,,,,,,,15,,73,72
600,note_on,,1,0,12,,,,,,,,,,,,,,,,10,,73,72
600,note_on,,0,0,16,,,,,,,,,,,,,,,,15,,64,72
600,note_on,,1,0,7,,,,,,,,,,,,,,,,2,,57,72
600,note_on,,1,0,16,,,,,,,,,,,,,,,,15,,57,72
600,note_on,,1,0,13,,,,,,,,,,,,,,,,11,,73,72
600,note_on,,1,0,5,,,,,,,,,,,,,,,,0,,73,72
719,note_on,,119,0,5,,,,,,,,,,,,,,,,0,,73,0
719,note_on,,0,0,16,,,,,,,,,,,,,,,,15,,69,0
719,note_on,,119,0,14,,,,,,,,,,,,,,,,12,,64,0
719,note_on,,0,0,16,,,,,,,,,,,,,,,,15,,64,0
719,note_on,,0,0,16,,,,,,,,,,,,,,,,15,,73,0
719,note_on,,119,0,15,,,,,,,,,,,,,,,,13,,57,0
719,note_on,,119,0,16,,,,,,,,,,,,,,,,15,,57,0
719,note_on,,119,0,13,,,,,,,,,,,,,,,,11,,73,0
719,note_on,,119,0,7,,,,,,,,,,,,,,,,2,,57,0
719,note_on,,119,0,12,,,,,,,,,,,,,,,,10,,73,0
719,note_on,,119,0,6,,,,,,,,,,,,,,,,1,,73,0
720,note_on,,1,0,16,,,,,,,,,,,,,,,,15,,62,72
720,note_on,,1,0,15,,,,,,,,,,,,,,,,13,,62,72
720,note_on,,1,0,7,,,,,,,,,,,,,,,,2,,62,72
720,note_on,,1,0,12,,,,,,,,,,,,,,,,10,,78,72
720,note_on,,1,0,5,,,,,,,,,,,,,,,,0,,78,72
720,note_on,,0,0,16,,,,,,,,,,,,,,,,15,,69,72
720,note_on,,0,0,16,,,,,,,,,,,,,,,,15,,66,72
720,note_on,,1,0,6,,,,,,,,,,,,,,,,1,,69,72
720,note_on,,1,0,13,,,,,,,,,,,,,,,,11,,69,72
720,note_on,,1,0,14,,,,,,,,,,,,,,,,12,,74,84
839,note_on,,0,0,16,,,,,,,,,,,,,,,,15,,69,0
839,note_on,,119,0,5,,,,,,,,,,,,,,,,0,,78,0
839,note_on,,119,0,16,,,,,,,,,,,,,,,,15,,62,0
839,note_on,,119,0,15,,,,,,,,,,,,,,,,13,,62,0
839,note_on,,119,0,12,,,,,,,,,,,,,,,,10,,78,0
839,note_on,,0,0,16,,,,,,,,,,,,,,,,15,,66,0
839,note_on,,119,0,13,,,,,,,,,,,,,,,,11,,69,0
839,note_on,,119,0,6,,,,,,,,,,,,,,,,1,,69,0
839,note_on,,119,0,7,,,,,,,,,,,,,,,,2,,62,0
839,note_on,,119,0,14,,,,,,,,,,,,,,,,12,,74,0
840,note_on,,1,0,13,,,,,,,,,,,,,,,,11,,74,72
840,note_on,,0,0,16,,,,,,,,,,,,,,,,15,,74,72
840,note_on,,0,0,16,,,,,,,,,,,,,,,,15,,71,72
840,note_on,,1,0,16,,,,,,,,,,,,,,,,15,,59,72
840,note_on,,0,0,16,,,,,,,,,,,,,,,,15,,66,72
840,note_on,,1,0,12,,,,,,,,,,,,,,,,10,,78,72
840,note_on,,1,0,5,,,,,,,,,,,,,,,,0,,78,72
840,note_on,,1,0,15,,,,,,,,,,,,,,,,13,,59,72
840,note_on,,1,0,6,,,,,,,,,,,,,,,,1,,74,72
840,note_on,,1,0,7,,,,,,,,,,,,,,,,2,,59,72
840,note_on,,1,0,14,,,,,,,,,,,,,,,,12,,62,84
959,note_on,,119,0,14,,,,,,,,,,,,,,,,12,,62,0
959,note_on,,119,0,15,,,,,,,,,,,,,,,,13,,59,0
959,note_on,,0,0,16,,,,,,,,,,,,,,,,15,,66,0
959,note_on,,0,0,16,,,,,,,,,,,,,,,,15,,71,0
959,note_on,,0,0,16,,,,,,,,,,,,,,,,15,,74,0
959,note_on,,119,0,16,,,,,,,,,,,,,,,,15,,59,0
959,note_on,,119,0,7,,,,,,,,,,,,,,,,2,,59,0
959,note_on,,119,0,6,,,,,,,,,,,,,,,,1,,74,0
959,note_on,,119,0,13,,,,,,,,,,,,,,,,11,,74,0
959,note_on,,119,0,5,,,,,,,,,,,,,,,,0,,78,0
959,note_on,,119,0,12,,,,,,,,,,,,,,,,10,,78,0
960,note_on,,1,0,5,,,,,,,,,,,,,,,,0,,80,72
960,note_on,,1,0,15,,,,,,,,,,,,,,,,13,,64,72
960,note_on,,1,0,13,,,,,,,,,,,,,,,,11,,71,72
960,note_on,,1,0,7,,,,,,,,,,,,,,,,2,,64,72
960,note_on,,1,0,14,,,,,,,,,,,,,,,,12,,64,84
960,note_on,,1,0,16,,,,,,,,,,,,,,,,15,,64,72
960,note_on,,1,0,6,,,,,,,,,,,,,,,,1,,71,72
960,note_on,,1,0,12,,,,,,,,,,,,,,,,10,,80,72
960,note_on,,0,0,16,,,,,,,,,,,,,,,,15,,71,72
960,note_on,,0,0,16,,,,,,,,,,,,,,,,15,,68,72
1079,note_on,,119,0,14,,,,,,,,,,,,,,,,12,,64,0
1079,note_on,,119,0,13,,,,,,,,,,,,,,,,11,,71,0
1079,note_on,,119,0,5,,,,,,,,,,,,,,,,0,,80,0
1079,note_on,,119,0,12,,,,,,,,,,,,,,,,10,,80,0
1079,note_on,,119,0,15,,,,,,,,,,,,,,,,13,,64,0
1079,note_on,,0,0,16,,,,,,,,,,,,,,,,15,,68,0
1079,note_on,,119,0,7,,,,,,,,,,,,,,,,2,,64,0
1079,note_on,,119,0,6,,,,,,,,,,,,,,,,1,,71,0
1079,note_on,,119,0,16,,,,,,,,,,,,,,,,15,,64,0
1079,note_on,,0,0,16,,,,,,,,,,,,,,,,15,,71,0
1080,note_on,,1,0,16,,,,,,,,,,,,,,,,15,,61,72
1080,note_on,,1,0,7,,,,,,,,,,,,,,,,2,,61,72
1080,note_on,,0,0,16,,,,,,,,,,,,,,,,15,,76,72
1080,note_on,,1,0,14,,,,,,,,,,,,,,,,12,,64,84
1080,note_on,,1,0,5,,,,,,,,,,,,,,,,0,,81,72
1080,note_on,,1,0,6,,,,,,,,,,,,,,,,1,,76,72
1080,note_on,,1,0,13,,,,,,,,,,,,,,,,11,,76,72
1080,note_on,,1,0,15,,,,,,,,,,,,,,,,13,,61,72
1080,note_on,,0,0,16,,,,,,,,,,,,,,,,15,,69,72
1080,note_on,,0,0,16,,,,,,,,,,,,,,,,15,,64,72
1080,note_on,,1,0,12,,,,,,,,,,,,,,,,10,,81,72
1199,note_on,,119,0,14,,,,,,,,,,,,,,,,12,,64,0
1199,note_on,,119,0,16,,,,,,,,,,,,,,,,15,,61,0
1199,note_on,,119,0,6,,,,,,,,,,,,,,,,1,,76,0
1199,note_on,,119,0,15,,,,,,,,,,,,,,,,13,,61,0
1199,note_on,,119,0,7,,,,,,,,,,,,,,,,2,,61,0
1199,note_on,,0,0,16,,,,,,,,,,,,,,,,15,,76,0
1199,note_on,,119,0,13,,,,,,,,,,,,,,,,11,,76,0
1200,note_on,,1,0,16,,,,,,,,,,,,,,,,15,,57,72
1200,note_on,,1,0,6,,,,,,,,,,,,,,,,1,,73,72
1200,note_on,,1,0,13,,,,,,,,,,,,,,,,11,,73,72
1200,note_on,,1,0,14,,,,,,,,,,,,,,,,12,,69,84
1200,note_on,,1,0,15,,,,,,,,,,,,,,,,13,,57,72
1200,note_on,,0,0,16,,,,,,,,,,,,,,,,15,,73,72
1200,note_on,,1,0,7,,,,,,,,,,,,,,,,2,,57,72
1319,note_on,,0,0,16,,,,,,,,,,,,,,,,15,,73,0
1319,note_on,,119,0,7,,,,,,,,,,,,,,,,2,,57,0
1319,note_on,,119,0,15,,,,,,,,,,,,,,,,13,,57,0
1319,note_on,,239,0,5,,,,,,,,,,,,,,,,0,,81,0
1319,note_on,,239,0,12,,,,,,,,,,,,,,,,10,,81,0
1319,note_on,,0,0,16,,,,,,,,,,,,,,,,15,,64,0
1319,note_on,,119,0,16,,,,,,,,,,,,,,,,15,,69,0
1319,note_on,,0,0,16,,,,,,,,,,,,,,,,15,,57,0
1320,note_on,,1,0,16,,,,,,,,,,,,,,,,15,,61,72
1320,note_on,,1,0,12,,,,,,,,,,,,,,,,10,,76,72
1320,note_on,,0,0,16,,,,,,,,,,,,,,,,15,,69,72
1320,note_on,,0,0,16,,,,,,,,,,,,,,,,15,,64,72
1320,note_on,,1,0,5,,,,,,,,,,,,,,,,0,,76,72
1320,note_on,,1,0,7,,,,,,,,,,,,,,,,2,,61,72
1320,note_on,,1,0,15,,,,,,,,,,,,,,,,13,,61,72
1439,note_on,,239,0,14,,,,,,,,,,,,,,,,12,,69,0
1439,note_on,,0,0,16,,,,,,,,,,,,,,,,15,,64,0
1439,note_on,,0,0,16,,,,,,,,,,,,,,,,15,,69,0
1439,note_on,,119,0,15,,,,,,,,,,,,,,,,13,,61,0
1439,note_on,,119,0,5,,,,,,,,,,,,,,,,0,,76,0
1439,note_on,,119,0,12,,,,,,,,,,,,,,,,10,,76,0
1439,note_on,,119,0,16,,,,,,,,,,,,,,,,15,,61,0
1439,note_on,,119,0,7,,,,,,,,,,,,,,,,2,,61,0
1440,note_on,,1,0,7,,,,,,,,,,,,,,,,2,,54,72
1440,note_on,,0,0,16,,,,,,,,,,,,,,,,15,,66,72
1440,note_on,,1,0,14,,,,,,,,,,,,,,,,12,,69,84
1440,note_on,,0,0,16,,,,,,,,,,,,,,,,15,,69,72
1440,note_on,,1,0,16,,,,,,,,,,,,,,,,15,,54,72
1440,note_on,,0,0,16,,,,,,,,,,,,,,,,15,,74,72
1440,note_on,,1,0,5,,,,,,,,,,,,,,,,0,,74,72
1440,note_on,,1,0,12,,,,,,,,,,,,,,,,10,,74,72
1440,note_on,,1,0,15,,,,,,,,,,,,,,,,13,,54,72
1559,note_on,,0,0,16,,,,,,,,,,,,,,,,15,,66,0
1559,note_on,,119,0,15,,,,,,,,,,,,,,,,13,,54,0
1559,note_on,,359,0,13,,,,,,,,,,,,,,,,11,,73,0
1559,note_on,,0,0,16,,,,,,,,,,,,,,,,15,,69,0
1559,note_on,,359,0,6,,,,,,,,,,,,,,,,1,,73,0
1559,note_on,,119,0,7,,,,,,,,,,,,,,,,2,,54,0
1559,note_on,,119,0,14,,,,,,,,,,,,,,,,12,,69,0
1559,note_on,,119,0,16,,,,,,,,,,,,,,,,15,,54,0
1560,note_on,,1,0,16,,,,,,,,,,,,,,,,15,,56,72
1560,note_on,,0,0,16,,,,,,,,,,,,,,,,15,,71,72
1560,note_on,,0,0,16,,,,,,,,,,,,,,,,15,,64,72
1560,note_on,,1,0,13,,,,,,,,,,,,,,,,11,,71,72
1560,note_on,,1,0,14,,,,,,,,,,,,,,,,12,,64,84
1560,note_on,,1,0,15,,,,,,,,,,,,,,,,13,,56,72
1560,note_on,,1,0,7,,,,,,,,,,,,,,,,2,,56,72
1560,note_on,,1,0,6,,,,,,,,,,,,,,,,1,,71,72
1619,note_on,,179,0,5,,,,,,,,,,,,,,,,0,,74,0
1619,note_on,,179,0,12,,,,,,,,,,,,,,,,10,,74,0
1620,note_on,,1,0,5,,,,,,,,,,,,,,,,0,,78,72
1620,note_on,,1,0,12,,,,,,,,,,,,,,,,10,,78,72
1679,note_on,,0,0,16,,,,,,,,,,,,,,,,15,,71,0
1679,note_on,,119,0,7,,,,,,,,,,,,,,,,2,,56,0
1679,note_on,,59,0,5,,,,,,,,,,,,,,,,0,,78,0
1679,note_on,,119,0,16,,,,,,,,,,,,,,,,15,,74,0
1679,note_on,,0,0,16,,,,,,,,,,,,,,,,15,,64,0
1679,note_on,,59,0,12,,,,,,,,,,,,,,,,10,,78,0
1679,note_on,,0,0,16,,,,,,,,,,,,,,,,15,,56,0
1679,note_on,,119,0,15,,,,,,,,,,,,,,,,13,,56,0
1680,note_on,,1,0,7,,,,,,,,,,,,,,,,2,,52,72
1680,note_on,,1,0,15,,,,,,,,,,,,,,,,13,,52,72
1680,note_on,,1,0,16,,,,,,,,,,,,,,,,15,,52,72
1680,note_on,,1,0,5,,,,,,,,,,,,,,,,0,,76,72
1680,note_on,,1,0,12,,,,,,,,,,,,,,,,10,,76,72
1680,note_on,,0,0,16,,,,,,,,,,,,,,,,15,,68,72
1680,note_on,,0,0,16,,,,,,,,,,,,,,,,15,,76,72
1680,note_on,,0,0,16,,,,,,,,,,,,,,,,15,,71,72
1739,note_on,,59,0,5,,,,,,,,,,,,,,,,0,,76,0
1739,note_on,,59,0,12,,,,,,,,,,,,,,,,10,,76,0
1740,note_on,,1,0,12,,,,,,,,,,,,,,,,10,,74,72
1740,note_on,,1,0,5,,,,,,,,,,,,,,,,0,,74,72
1799,note_on,,119,0,16,,,,,,,,,,,,,,,,15,,52,0
1799,note_on,,119,0,7,,,,,,,,,,,,,,,,2,,52,0
1799,note_on,,0,0,16,,,,,,,,,,,,,,,,15,,68,0
1799,note_on,,239,0,14,,,,,,,,,,,,,,,,12,,64,0
1799,note_on,,0,0,16,,,,,,,,,,,,,,,,15,,71,0
1799,note_on,,0,0,16,,,,,,,,,,,,,,,,15,,76,0
1799,note_on,,59,0,5,,,,,,,,,,,,,,,,0,,74,0
1799,note_on,,119,0,15,,,,,,,,,,,,,,,,13,,52,0
1799,note_on,,59,0,12,,,,,,,,,,,,,,,,10,,74,0
1800,note_on,,1,0,5,,,,,,,,,,,,,,,,0,,73,72
1800,note_on,,0,0,16,,,,,,,,,,,,,,,,15,,71,72
1800,note_on,,0,0,16,,,,,,,,,,,,,,,,15,,64,72
1800,note_on,,1,0,12,,,,,,,,,,,,,,,,10,,73,72
1800,note_on,,1,0,16,,,,,,,,,,,,,,,,15,,57,72
1800,note_on,,0,0,16,,,,,,,,,,,,,,,,15,,73,72
1800,note_on,,1,0,14,,,,,,,,,,,,,,,,12,,64,84
1800,note_on,,1,0,7,,,,,,,,,,,,,,,,2,,57,72
1800,note_on,,1,0,15,,,,,,,,,,,,,,,,13,,57,72
1919,note_on,,119,0,16,,,,,,,,,,,,,,,,15,,57,0
1919,note_on,,0,0,16,,,,,,,,,,,,,,,,15,,64,0
1919,note_on,,0,0,16,,,,,,,,,,,,,,,,15,,71,0
1919,note_on,,0,0,16,,,,,,,,,,,,,,,,15,,73,0
1919,note_on,,119,0,15,,,,,,,,,,,,,,,,13,,57,0
1919,note_on,,119,0,7,,,,,,,,,,,,,,,,2,,57,0
1919,note_on,,359,0,13,,,,,,,,,,,,,,,,11,,71,0
1919,note_on,,359,0,6,,,,,,,,,,,,,,,,1,,71,0
1920,note_on,,1,0,7,,,,,,,,,,,,,,,,2,,45,72
1920,note_on,,0,0,16,,,,,,,,,,,,,,,,15,,64,72
1920,note_on,,1,0,15,,,,,,,,,,,,,,,,13,,45,72
1920,note_on,,0,0,16,,,,,,,,,,,,,,,,15,,45,72
1920,note_on,,1,0,16,,,,,,,,,,,,,,,,15,,61,72
1920,note_on,,1,0,13,,,,,,,,,,,,,,,,11,,69,72
1920,note_on,,1,0,6,,,,,,,,,,,,,,,,1,,69,72
1979,note_on,,179,0,12,,,,,,,,,,,,,,,,10,,73,0
1979,note_on,,179,0,5,,,,,,,,,,,,,,,,0,,73,0
1980,note_on,,1,0,5,,,,,,,,,,,,,,,,0,,76,72
1980,note_on,,1,0,12,,,,,,,,,,,,,,,,10,,76,72
2039,note_on,,119,0,13,,,,,,,,,,,,,,,,11,,69,0
2039,note_on,,239,0,14,,,,,,,,,,,,,,,,12,,64,0
2039,note_on,,119,0,15,,,,,,,,,,,,,,,,13,,45,0
2039,note_on,,119,0,16,,,,,,,,,,,,,,,,15,,61,0
2039,note_on,,0,0,16,,,,,,,,,,,,,,,,15,,45,0
2039,note_on,,59,0,5,,,,,,,,,,,,,,,,0,,76,0
2039,note_on,,0,0,16,,,,,,,,,,,,,,,,15,,64,0
2039,note_on,,59,0,12,,,,,,,,,,,,,,,,10,,76,0
2039,note_on,,119,0,6,,,,,,,,,,,,,,,,1,,69,0
2039,note_on,,119,0,7,,,,,,,,,,,,,,,,2,,45,0
2040,note_on,,1,0,12,,,,,,,,,,,,,,,,10,,74,72
2040,note_on,,1,0,14,,,,,,,,,,,,,,,,12,,64,84
2040,note_on,,1,0,6,,,,,,,,,,,,,,,,1,,69,72
2040,note_on,,1,0,5,,,,,,,,,,,,,,,,0,,74,72
2040,note_on,,0,0,16,,,,,,,,,,,,,,,,15,,69,72
2040,note_on,,1,0,7,,,,,,,,,,,,,,,,2,,49,72
2040,note_on,,1,0,16,,,,,,,,,,,,,,,,15,,49,72
2040,note_on,,1,0,13,,,,,,,,,,,,,,,,11,,69,72
2040,note_on,,1,0,15,,,,,,,,,,,,,,,,13,,49,72
2040,note_on,,0,0,16,,,,,,,,,,,,,,,,15,,57,72
2040,note_on,,0,0,16,,,,,,,,,,,,,,,,15,,64,72
2099,note_on,,59,0,5,,,,,,,,,,,,,,,,0,,74,0
2099,note_on,,59,0,12,,,,,,,,,,,,,,,,10,,74,0
2100,note_on,,1,0,12,,,,,,,,,,,,,,,,10,,73,72
2100,note_on,,1,0,5,,,,,,,,,,,,,,,,0,,73,72
2159,note_on,,119,0,6,,,,,,,,,,,,,,,,1,,69,0
2159,note_on,,119,0,16,,,,,,,,,,,,,,,,15,,49,0
2159,note_on,,59,0,5,,,,,,,,,,,,,,,,0,,73,0
2159,note_on,,119,0,15,,,,,,,,,,,,,,,,13,,49,0
2159,note_on,,0,0,16,,,,,,,,,,,,,,,,15,,69,0
2159,note_on,,0,0,16,,,,,,,,,,,,,,,,15,,64,0
2159,note_on,,119,0,13,,,,,,,,,,,,,,,,11,,69,0
2159,note_on,,119,0,7,,,,,,,,,,,,,,,,2,,49,0
2159,note_on,,119,0,14,,,,,,,,,,,,,,,,12,,64,0
2159,note_on,,0,0,16,,,,,,,,,,,,,,,,15,,57,0
2159,note_on,,59,0,12,,,,,,,,,,,,,,,,10,,73,0
2160,note_on,,1,0,15,,,,,,,,,,,,,,,,13,,52,72
2160,note_on,,1,0,5,,,,,,,,,,,,,,,,0,,71,72
2160,note_on,,1,0,12,,,,,,,,,,,,,,,,10,,71,72
2160,note_on,,0,0,16,,,,,,,,,,,,,,,,15,,64,72
2160,note_on,,0,0,16,,,,,,,,,,,,,,,,15,,68,72
2160,note_on,,0,0,16,,,,,,,,,,,,,,,,15,,71,72
2160,note_on,,1,0,16,,,,,,,,,,,,,,,,15,,52,72
2160,note_on,,1,0,13,,,,,,,,,,,,,,,,11,,68,72
2160,note_on,,1,0,14,,,,,,,,,,,,,,,,12,,64,84
2160,note_on,,1,0,7,,,,,,,,,,,,,,,,2,,52,72
2160,note_on,,1,0,6,,,,,,,,,,,,,,,,1,,68,72
2279,note_on,,119,0,12,,,,,,,,,,,,,,,,10,,71,0
2279,note_on,,119,0,5,,,,,,,,,,,,,,,,0,,71,0
2280,note_on,,1,0,5,,,,,,,,,,,,,,,,0,,76,72
2280,note_on,,1,0,12,,,,,,,,,,,,,,,,10,,76,72
2339,note_on,,179,0,6,,,,,,,,,,,,,,,,1,,68,0
2339,note_on,,179,0,13,,,,,,,,,,,,,,,,11,,68,0
2340,note_on,,1,0,13,,,,,,,,,,,,,,,,11,,71,72
2340,note_on,,1,0,6,,,,,,,,,,,,,,,,1,,71,72
2399,note_on,,239,0,7,,,,,,,,,,,,,,,,2,,52,0
2399,note_on,,0,0,16,,,,,,,,,,,,,,,,15,,71,0
2399,note_on,,0,0,16,,,,,,,,,,,,,,,,15,,68,0
2399,note_on,,0,0,16,,,,,,,,,,,,,,,,15,,64,0
2399,note_on,,59,0,6,,,,,,,,,,,,,,,,1,,71,0
2399,note_on,,239,0,15,,,,,,,,,,,,,,,,13,,52,0
2399,note_on,,59,0,13,,,,,,,,,,,,,,,,11,,71,0
2399,note_on,,239,0,14,,,,,,,,,,,,,,,,12,,64,0
2399,note_on,,239,0,16,,,,,,,,,,,,,,,,15,,52,0
2400,note_on,,1,0,6,,,,,,,,,,,,,,,,1,,69,72
2400,note_on,,1,0,7,,,,,,,,,,,,,,,,2,,61,72
2400,note_on,,1,0,13,,,,,,,,,,,,,,,,11,,69,72
2400,note_on,,0,0,16,,,,,,,,,,,,,,,,15,,61,72
2400,note_on,,1,0,14,,,,,,,,,,,,,,,,12,,64,84
2400,note_on,,1,0,16,,,,,,,,,,,,,,,,15,,64,72
2400,note_on,,0,0,16,,,,,,,,,,,,,,,,15,,69,72
2400,note_on,,1,0,15,,,,,,,,,,,,,,,,13,,61,72
2459,note_on,,59,0,6,,,,,,,,,,,,,,,,1,,69,0
2459,note_on,,59,0,13,,,,,,,,,,,,,,,,11,,69,0
2460,note_on,,1,0,13,,,,,,,,,,,,,,,,11,,68,72
2460,note_on,,1,0,6,,,,,,,,,,,,,,,,1,,68,72
2519,note_on,,0,0,16,,,,,,,,,,,,,,,,15,,69,0
2519,note_on,,0,0,16,,,,,,,,,,,,,,,,15,,61,0
2519,note_on,,119,0,15,,,,,,,,,,,,,,,,13,,61,0
2519,note_on,,59,0,6,,,,,,,,,,,,,,,,1,,68,0
2519,note_on,,119,0,16,,,,,,,,,,,,,,,,15,,64,0
2519,note_on,,119,0,14,,,,,,,,,,,,,,,,12,,64,0
2519,note_on,,59,0,13,,,,,,,,,,,,,,,,11,,68,0
2519,note_on,,119,0,7,,,,,,,,,,,,,,,,2,,61,0
2520,note_on,,1,0,6,,,,,,,,,,,,,,,,1,,66,72
2520,note_on,,1,0,7,,,,,,,,,,,,,,,,2,,57,72
2520,note_on,,1,0,14,,,,,,,,,,,,,,,,12,,61,84
2520,note_on,,0,0,16,,,,,,,,,,,,,,,,15,,61,72
2520,note_on,,0,0,16,,,,,,,,,,,,,,,,15,,64,72
2520,note_on,,0,0,16,,,,,,,,,,,,,,,,15,,66,72
2520,note_on,,1,0,16,,,,,,,,,,,,,,,,15,,57,72
2520,note_on,,1,0,13,,,,,,,,,,,,,,,,11,,66,72
2520,note_on,,1,0,15,,,,,,,,,,,,,,,,13,,57,72
2639,note_on,,119,0,7,,,,,,,,,,,,,,,,2,,57,0
2639,note_on,,0,0,16,,,,,,,,,,,,,,,,15,,61,0
2639,note_on,,359,0,12,,,,,,,,,,,,,,,,10,,76,0
2639,note_on,,359,0,5,,,,,,,,,,,,,,,,0,,76,0
2639,note_on,,119,0,14,,,,,,,,,,,,,,,,12,,61,0
2639,note_on,,119,0,15,,,,,,,,,,,,,,,,13,,57,0
2639,note_on,,0,0,16,,,,,,,,,,,,,,,,15,,64,0
2639,note_on,,119,0,16,,,,,,,,,,,,,,,,15,,57,0
2640,note_on,,1,0,15,,,,,,,,,,,,,,,,13,,54,72
2640,note_on,,1,0,5,,,,,,,,,,,,,,,,0,,74,72
2640,note_on,,1,0,16,,,,,,,,,,,,,,,,15,,54,72
2640,note_on,,0,0,16,,,,,,,,,,,,,,,,15,,57,72
2640,note_on,,1,0,12,,,,,,,,,,,,,,,,10,,74,72
2640,note_on,,1,0,7,,,,,,,,,,,,,,,,2,,54,72
2640,note_on,,1,0,14,,,,,,,,,,,,,,,,12,,62,84
2640,note_on,,0,0,16,,,,,,,,,,,,,,,,15,,62,72
2699,note_on,,179,0,6,,,,,,,,,,,,,,,,1,,66,0
2699,note_on,,179,0,13,,,,,,,,,,,,,,,,11,,66,0
2700,note_on,,1,0,6,,,,,,,,,,,,,,,,1,,69,72
2700,note_on,,1,0,13,,,,,,,,,,,,,,,,11,,69,72
2759,note_on,,119,0,16,,,,,,,,,,,,,,,,15,,66,0
2759,note_on,,0,0,16,,,,,,,,,,,,,,,,15,,54,0
2759,note_on,,0,0,16,,,,,,,,,,,,,,,,15,,62,0
2759,note_on,,0,0,16,,,,,,,,,,,,,,,,15,,57,0
2759,note_on,,59,0,6,,,,,,,,,,,,,,,,1,,69,0
2759,note_on,,119,0,7,,,,,,,,,,,,,,,,2,,54,0
2759,note_on,,59,0,13,,,,,,,,,,,,,,,,11,,69,0
2759,note_on,,119,0,15,,,,,,,,,,,,,,,,13,,54,0
2760,note_on,,1,0,6,,,,,,,,,,,,,,,,1,,68,72
2760,note_on,,1,0,16,,,,,,,,,,,,,,,,15,,59,72
2760,note_on,,1,0,15,,,,,,,,,,,,,,,,13,,59,72
2760,note_on,,0,0,16,,,,,,,,,,,,,,,,15,,68,72
2760,note_on,,0,0,16,,,,,,,,,,,,,,,,15,,62,72
2760,note_on,,1,0,13,,,,,,,,,,,,,,,,11,,68,72
2760,note_on,,1,0,7,,,,,,,,,,,,,,,,2,,59,72
2819,note_on,,59,0,6,,,,,,,,,,,,,,,,1,,68,0
2819,note_on,,59,0,13,,,,,,,,,,,,,,,,11,,68,0
2820,note_on,,1,0,13,,,,,,,,,,,,,,,,11,,66,72
2820,note_on,,1,0,6,,,,,,,,,,,,,,,,1,,66,72
2879,note_on,,119,0,15,,,,,,,,,,,,,,,,13,,59,0
2879,note_on,,119,0,16,,,,,,,,,,,,,,,,15,,59,0
2879,note_on,,119,0,7,,,,,,,,,,,,,,,,2,,59,0
2879,note_on,,59,0,6,,,,,,,,,,,,,,,,1,,66,0
2879,note_on,,239,0,14,,,,,,,,,,,,,,,,12,,62,0
2879,note_on,,59,0,13,,,,,,,,,,,,,,,,11,,66,0
2879,note_on,,0,0,16,,,,,,,,,,,,,,,,15,,62,0
2880,note_on,,0,0,16,,,,,,,,,,,,,,,,15,,64,72
2880,note_on,,0,0,16,,,,,,,,,,,,,,,,15,,59,72
2880,note_on,,1,0,7,,,,,,,,,,,,,,,,2,,56,72
2880,note_on,,1,0,6,,,,,,,,,,,,,,,,1,,64,72
2880,note_on,,1,0,13,,,,,,,,,,,,,,,,11,,64,72
2880,note_on,,1,0,15,,,,,,,,,,,,,,,,13,,56,72
2880,note_on,,1,0,14,,,,,,,,,,,,,,,,12,,71,84
2880,note_on,,1,0,16,,,,,,,,,,,,,,,,15,,56,72
2999,note_on,,119,0,6,,,,,,,,,,,,,,,,1,,64,0
2999,note_on,,119,0,15,,,,,,,,,,,,,,,,13,,56,0
2999,note_on,,0,0,16,,,,,,,,,,,,,,,,15,,59,0
2999,note_on,,0,0,16,,,,,,,,,,,,,,,,15,,56,0
2999,note_on,,119,0,7,,,,,,,,,,,,,,,,2,,56,0
2999,note_on,,119,0,14,,,,,,,,,,,,,,,,12,,71,0
2999,note_on,,119,0,16,,,,,,,,,,,,,,,,15,,68,0
2999,note_on,,119,0,13,,,,,,,,,,,,,,,,11,,64,0
3000,note_on,,1,0,6,,,,,,,,,,,,,,,,1,,68,72
3000,note_on,,1,0,13,,,,,,,,,,,,,,,,11,,68,72
3000,note_on,,1,0,15,,,,,,,,,,,,,,,,13,,52,72
3000,note_on,,0,0,16,,,,,,,,,,,,,,,,15,,56,72
3000,note_on,,0,0,16,,,,,,,,,,,,,,,,15,,71,72
3000,note_on,,1,0,16,,,,,,,,,,,,,,,,15,,52,72
3000,note_on,,1,0,14,,,,,,,,,,,,,,,,12,,59,84
3000,note_on,,1,0,7,,,,,,,,,,,,,,,,2,,52,72
3059,note_on,,419,0,12,,,,,,,,,,,,,,,,10,,74,0
3059,note_on,,419,0,5,,,,,,,,,,,,,,,,0,,74,0
3060,note_on,,1,0,5,,,,,,,,,,,,,,,,0,,76,72
3060,note_on,,1,0,12,,,,,,,,,,,,,,,,10,,76,72
3119,note_on,,119,0,13,,,,,,,,,,,,,,,,11,,68,0
3119,note_on,,0,0,16,,,,,,,,,,,,,,,,15,,52,0
3119,note_on,,119,0,6,,,,,,,,,,,,,,,,1,,68,0
3119,note_on,,0,0,16,,,,,,,,,,,,,,,,15,,71,0
3119,note_on,,119,0,15,,,,,,,,,,,,,,,,13,,52,0
3119,note_on,,119,0,7,,,,,,,,,,,,,,,,2,,52,0
3119,note_on,,59,0,5,,,,,,,,,,,,,,,,0,,76,0
3119,note_on,,119,0,14,,,,,,,,,,,,,,,,12,,59,0
3119,note_on,,0,0,16,,,,,,,,,,,,,,,,15,,56,0
3119,note_on,,59,0,12,,,,,,,,,,,,,,,,10,,76,0
3119,note_on,,119,0,16,,,,,,,,,,,,,,,,15,,64,0
3120,note_on,,1,0,16,,,,,,,,,,,,,,,,15,,54,72
3120,note_on,,0,0,16,,,,,,,,,,,,,,,,15,,69,72
3120,note_on,,0,0,16,,,,,,,,,,,,,,,,15,,61,72
3120,note_on,,1,0,15,,,,,,,,,,,,,,,,13,,54,72
3120,note_on,,1,0,7,,,,,,,,,,,,,,,,2,,54,72
3120,note_on,,1,0,5,,,,,,,,,,,,,,,,0,,73,72
3120,note_on,,1,0,6,,,,,,,,,,,,,,,,1,,69,72
3120,note_on,,1,0,14,,,,,,,,,,,,,,,,12,,66,84
3120,note_on,,1,0,12,,,,,,,,,,,,,,,,10,,73,72
3120,note_on,,1,0,13,,,,,,,,,,,,,,,,11,,69,72
3120,note_on,,0,0,16,,,,,,,,,,,,,,,,15,,57,72
3239,note_on,,119,0,13,,,,,,,,,,,,,,,,11,,69,0
3239,note_on,,119,0,14,,,,,,,,,,,,,,,,12,,66,0
3239,note_on,,119,0,6,,,,,,,,,,,,,,,,1,,69,0
3239,note_on,,0,0,16,,,,,,,,,,,,,,,,15,,69,0
3239,note_on,,119,0,16,,,,,,,,,,,,,,,,15,,54,0
3239,note_on,,119,0,7,,,,,,,,,,,,,,,,2,,54,0
3239,note_on,,119,0,15,,,,,,,,,,,,,,,,13,,54,0
3239,note_on,,0,0,16,,,,,,,,,,,,,,,,15,,61,0
3239,note_on,,0,0,16,,,,,,,,,,,,,,,,15,,57,0
3240,note_on,,0,0,16,,,,,,,,,,,,,,,,15,,69,72
3240,note_on,,0,0,16,,,,,,,,,,,,,,,,15,,66,72
3240,note_on,,0,0,16,,,,,,,,,,,,,,,,15,,62,72
3240,note_on,,1,0,13,,,,,,,,,,,,,,,,11,,69,72
3240,note_on,,1,0,7,,,,,,,,,,,,,,,,2,,50,72
3240,note_on,,1,0,6,,,,,,,,,,,,,,,,1,,69,72
3240,note_on,,1,0,15,,,,,,,,,,,,,,,,13,,50,72
3240,note_on,,1,0,16,,,,,,,,,,,,,,,,15,,50,72
3240,note_on,,1,0,14,,,,,,,,,,,,,,,,12,,66,84
3299,note_on,,179,0,5,,,,,,,,,,,,,,,,0,,73,0
3299,note_on,,179,0,12,,,,,,,,,,,,,,,,10,,73,0
3300,note_on,,1,0,5,,,,,,,,,,,,,,,,0,,71,72
3300,note_on,,1,0,12,,,,,,,,,,,,,,,,10,,71,72
3359,note_on,,119,0,16,,,,,,,,,,,,,,,,15,,50,0
3359,note_on,,0,0,16,,,,,,,,,,,,,,,,15,,66,0
3359,note_on,,0,0,16,,,,,,,,,,,,,,,,15,,62,0
3359,note_on,,119,0,15,,,,,,,,,,,,,,,,13,,50,0
3359,note_on,,59,0,12,,,,,,,,,,,,,,,,10,,71,0
3359,note_on,,59,0,5,,,,,,,,,,,,,,,,0,,71,0
3359,note_on,,119,0,7,,,,,,,,,,,,,,,,2,,50,0
3359,note_on,,119,0,14,,,,,,,,,,,,,,,,12,,66,0
3360,note_on,,1,0,12,,,,,,,,,,,,,,,,10,,71,72
3360,note_on,,1,0,16,,,,,,,,,,,,,,,,15,,52,72
3360,note_on,,1,0,7,,,,,,,,,,,,,,,,2,,52,72
3360,note_on,,1,0,15,,,,,,,,,,,,,,,,13,,52,72
3360,note_on,,1,0,5,,,,,,,,,,,,,,,,0,,71,72
3360,note_on,,1,0,14,,,,,,,,,,,,,,,,12,,59,84
3360,note_on,,0,0,16,,,,,,,,,,,,,,,,15,,64,72
3360,note_on,,0,0,16,,,,,,,,,,,,,,,,15,,59,72
3374,note_on,,14,0,12,,,,,,,,,,,,,,,,10,,71,0
3374,note_on,,14,0,5,,,,,,,,,,,,,,,,0,,71,0
3375,note_on,,1,0,5,,,,,,,,,,,,,,,,0,,73,72
3375,note_on,,1,0,12,,,,,,,,,,,,,,,,10,,73,72
3389,note_on,,14,0,5,,,,,,,,,,,,,,,,0,,73,0
3389,note_on,,14,0,12,,,,,,,,,,,,,,,,10,,73,0
3390,note_on,,1,0,5,,,,,,,,,,,,,,,,0,,71,72
3390,note_on,,1,0,12,,,,,,,,,,,,,,,,10,,71,72
3404,note_on,,14,0,5,,,,,,,,,,,,,,,,0,,71,0
3404,note_on,,14,0,12,,,,,,,,,,,,,,,,10,,71,0
3405,note_on,,1,0,12,,,,,,,,,,,,,,,,10,,73,72
3405,note_on,,1,0,5,,,,,,,,,,,,,,,,0,,73,72
3419,note_on,,14,0,5,,,,,,,,,,,,,,,,0,,73,0
3419,note_on,,14,0,12,,,,,,,,,,,,,,,,10,,73,0
3420,note_on,,1,0,5,,,,,,,,,,,,,,,,0,,71,72
3420,note_on,,1,0,12,,,,,,,,,,,,,,,,10,,71,72
3434,note_on,,14,0,5,,,,,,,,,,,,,,,,0,,71,0
3434,note_on,,14,0,12,,,,,,,,,,,,,,,,10,,71,0
3435,note_on,,1,0,12,,,,,,,,,,,,,,,,10,,73,72
3435,note_on,,1,0,5,,,,,,,,,,,,,,,,0,,73,72
3449,note_on,,14,0,5,,,,,,,,,,,,,,,,0,,73,0
3449,note_on,,14,0,12,,,,,,,,,,,,,,,,10,,73,0
3450,note_on,,1,0,5,,,,,,,,,,,,,,,,0,,71,72
3450,note_on,,1,0,12,,,,,,,,,,,,,,,,10,,71,72
3464,note_on,,14,0,5,,,,,,,,,,,,,,,,0,,71,0
3464,note_on,,14,0,12,,,,,,,,,,,,,,,,10,,71,0
3465,note_on,,1,0,5,,,,,,,,,,,,,,,,0,,73,72
3465,note_on,,1,0,12,,,,,,,,,,,,,,,,10,,73,72
3479,note_on,,0,0,16,,,,,,,,,,,,,,,,15,,52,0
3479,note_on,,14,0,5,,,,,,,,,,,,,,,,0,,73,0
3479,note_on,,119,0,16,,,,,,,,,,,,,,,,15,,69,0
3479,note_on,,14,0,12,,,,,,,,,,,,,,,,10,,73,0
3479,note_on,,239,0,13,,,,,,,,,,,,,,,,11,,69,0
3479,note_on,,119,0,14,,,,,,,,,,,,,,,,12,,59,0
3479,note_on,,119,0,7,,,,,,,,,,,,,,,,2,,52,0
3479,note_on,,239,0,6,,,,,,,,,,,,,,,,1,,69,0
3479,note_on,,119,0,15,,,,,,,,,,,,,,,,13,,52,0
3480,note_on,,1,0,13,,,,,,,,,,,,,,,,11,,68,72
3480,note_on,,0,0,16,,,,,,,,,,,,,,,,15,,71,72
3480,note_on,,1,0,5,,,,,,,,,,,,,,,,0,,71,72
3480,note_on,,0,0,16,,,,,,,,,,,,,,,,15,,52,72
3480,note_on,,1,0,15,,,,,,,,,,,,,,,,13,,40,72
3480,note_on,,1,0,12,,,,,,,,,,,,,,,,10,,71,72
3480,note_on,,1,0,7,,,,,,,,,,,,,,,,2,,40,72
3480,note_on,,1,0,14,,,,,,,,,,,,,,,,12,,64,84
3480,note_on,,1,0,6,,,,,,,,,,,,,,,,1,,68,72
3480,note_on,,1,0,16,,,,,,,,,,,,,,,,15,,40,72
3494,note_on,,14,0,5,,,,,,,,,,,,,,,,0,,71,0
3494,note_on,,14,0,12,,,,,,,,,,,,,,,,10,,71,0
3495,note_on,,1,0,5,,,,,,,,,,,,,,,,0,,73,72
3495,note_on,,1,0,12,,,,,,,,,,,,,,,,10,,73,72
3509,note_on,,14,0,5,,,,,,,,,,,,,,,,0,,73,0
3509,note_on,,14,0,12,,,,,,,,,,,,,,,,10,,73,0
3510,note_on,,1,0,5,,,,,,,,,,,,,,,,0,,69,72
3510,note_on,,1,0,12,,,,,,,,,,,,,,,,10,,69,72
3524,note_on,,14,0,12,,,,,,,,,,,,,,,,10,,69,0
3524,note_on,,14,0,5,,,,,,,,,,,,,,,,0,,69,0
3525,note_on,,1,0,5,,,,,,,,,,,,,,,,0,,71,72
3525,note_on,,1,0,12,,,,,,,,,,,,,,,,10,,71,72
3539,note_on,,14,0,5,,,,,,,,,,,,,,,,0,,71,0
3539,note_on,,14,0,12,,,,,,,,,,,,,,,,10,,71,0
3540,note_on,,1,0,5,,,,,,,,,,,,,,,,0,,69,72
3540,note_on,,1,0,12,,,,,,,,,,,,,,,,10,,69,72
3599,note_on,,119,0,15,,,,,,,,,,,,,,,,13,,40,0
3599,note_on,,119,0,14,,,,,,,,,,,,,,,,12,,64,0
3599,note_on,,119,0,13,,,,,,,,,,,,,,,,11,,68,0
3599,note_on,,119,0,6,,,,,,,,,,,,,,,,1,,68,0
3599,note_on,,119,0,7,,,,,,,,,,,,,,,,2,,40,0
3599,note_on,,0,0,16,,,,,,,,,,,,,,,,15,,71,0
3599,note_on,,0,0,16,,,,,,,,,,,,,,,,15,,52,0
3599,note_on,,0,0,16,,,,,,,,,,,,,,,,15,,40,0
3599,note_on,,0,0,16,,,,,,,,,,,,,,,,15,,59,0
3599,note_on,,119,0,16,,,,,,,,,,,,,,,,15,,64,0
3599,note_on,,59,0,5,,,,,,,,,,,,,,,,0,,69,0
3599,note_on,,59,0,12,,,,,,,,,,,,,,,,10,,69,0
3600,note_on,,1,0,5,,,,,,,,,,,,,,,,0,,69,72
3600,note_on,,1,0,13,,,,,,,,,,,,,,,,11,,69,72
3600,note_on,,1,0,6,,,,,,,,,,,,,,,,1,,69,72
3600,note_on,,1,0,7,,,,,,,,,,,,,,,,2,,45,72
3600,note_on,,1,0,15,,,,,,,,,,,,,,,,13,,45,72
3600,note_on,,1,0,14,,,,,,,,,,,,,,,,12,,61,84
3600,note_on,,1,0,16,,,,,,,,,,,,,,,,15,,45,72
3600,note_on,,0,0,16,,,,,,,,,,,,,,,,15,,69,72
3600,note_on,,0,0,16,,,,,,,,,,,,,,,,15,,64,72
3600,note_on,,0,0,16,,,,,,,,,,,,,,,,15,,61,72
3600,note_on,,0,0,16,,,,,,,,,,,,,,,,15,,52,72
3600,note_on,,1,0,12,,,,,,,,,,,,,,,,10,,69,72
3720,control_change,,3720,0,9,,,,,,,,,,,,,,7,96,6,,,
3720,note_on,,0,0,9,,,,,,,,,,,,,,,,6,,61,78
3839,note_on,,0,0,16,,,,,,,,,,,,,,,,15,,52,0
3839,note_on,,239,0,15,,,,,,,,,,,,,,,,13,,45,0
3839,note_on,,0,0,16,,,,,,,,,,,,,,,,15,,61,0
3839,note_on,,0,0,16,,,,,,,,,,,,,,,,15,,64,0
3839,note_on,,0,0,16,,,,,,,,,,,,,,,,15,,69,0
3839,note_on,,239,0,16,,,,,,,,,,,,,,,,15,,45,0
3839,note_on,,239,0,12,,,,,,,,,,,,,,,,10,,69,0
3839,note_on,,239,0,6,,,,,,,,,,,,,,,,1,,69,0
3839,note_on,,239,0,5,,,,,,,,,,,,,,,,0,,69,0
3839,note_on,,119,0,9,,,,,,,,,,,,,,,,6,,61,0
3839,note_on,,239,0,14,,,,,,,,,,,,,,,,12,,61,0
3839,note_on,,239,0,13,,,,,,,,,,,,,,,,11,,69,0
3839,note_on,,239,0,7,,,,,,,,,,,,,,,,2,,45,0
3840,note_on,,1,0,9,,,,,,,,,,,,,,,,6,,57,78
3959,note_on,,119,0,9,,,,,,,,,,,,,,,,6,,57,0
3960,note_on,,1,0,9,,,,,,,,,,,,,,,,6,,64,78
4080,note_on,,0,0,16,,,,,,,,,,,,,,,,15,,57,72
4080,note_on,,241,0,15,,,,,,,,,,,,,,,,13,,49,72
4080,note_on,,0,0,16,,,,,,,,,,,,,,,,15,,69,72
4080,note_on,,241,0,16,,,,,,,,,,,,,,,,15,,49,72
4080,note_on,,0,0,16,,,,,,,,,,,,,,,,15,,64,72
4080,note_on,,241,0,7,,,,,,,,,,,,,,,,2,,49,72
4139,note_on,,179,0,9,,,,,,,,,,,,,,,,6,,64,0
4140,note_on,,1,0,9,,,,,,,,,,,,,,,,6,,62,78
4199,note_on,,0,0,16,,,,,,,,,,,,,,,,15,,69,0
4199,note_on,,0,0,16,,,,,,,,,,,,,,,,15,,57,0
4199,note_on,,0,0,16,,,,,,,,,,,,,,,,15,,64,0
4199,note_on,,119,0,16,,,,,,,,,,,,,,,,15,,49,0
4199,note_on,,119,0,15,,,,,,,,,,,,,,,,13,,49,0
4199,note_on,,119,0,7,,,,,,,,,,,,,,,,2,,49,0
4199,note_on,,59,0,9,,,,,,,,,,,,,,,,6,,62,0
4200,note_on,,1,0,7,,,,,,,,,,,,,,,,2,,45,72
4200,note_on,,1,0,16,,,,,,,,,,,,,,,,15,,45,72
4200,note_on,,0,0,16,,,,,,,,,,,,,,,,15,,64,72
4200,note_on,,0,0,16,,,,,,,,,,,,,,,,15,,61,72
4200,note_on,,0,0,16,,,,,,,,,,,,,,,,15,,57,72
4200,note_on,,1,0,15,,,,,,,,,,,,,,,,13,,45,72
4200,note_on,,1,0,9,,,,,,,,,,,,,,,,6,,61,78
4319,note_on,,119,0,15,,,,,,,,,,,,,,,,13,,45,0
4319,note_on,,119,0,9,,,,,,,,,,,,,,,,6,,61,0
4319,note_on,,119,0,7,,,,,,,,,,,,,,,,2,,45,0
4319,note_on,,0,0,16,,,,,,,,,,,,,,,,15,,61,0
4319,note_on,,0,0,16,,,,,,,,,,,,,,,,15,,64,0
4319,note_on,,119,0,16,,,,,,,,,,,,,,,,15,,45,0
4319,note_on,,0,0,16,,,,,,,,,,,,,,,,15,,57,0
4320,note_on,,1,0,9,,,,,,,,,,,,,,,,6,,66,78
4320,note_on,,0,0,16,,,,,,,,,,,,,,,,15,,66,72
4320,note_on,,0,0,16,,,,,,,,,,,,,,,,15,,62,72
4320,note_on,,1,0,15,,,,,,,,,,,,,,,,13,,50,72
4320,note_on,,0,0,16,,,,,,,,,,,,,,,,15,,57,72
4320,note_on,,1,0,16,,,,,,,,,,,,,,,,15,,50,72
4320,note_on,,1,0,7,,,,,,,,,,,,,,,,2,,50,72
4439,note_on,,119,0,15,,,,,,,,,,,,,,,,13,,50,0
4439,note_on,,119,0,9,,,,,,,,,,,,,,,,6,,66,0
4439,note_on,,119,0,7,,,,,,,,,,,,,,,,2,,50,0
4439,note_on,,119,0,16,,,,,,,,,,,,,,,,15,,50,0
4440,note_on,,1,0,7,,,,,,,,,,,,,,,,2,,47,72
4440,note_on,,1,0,15,,,,,,,,,,,,,,,,13,,47,72
4440,note_on,,1,0,9,,,,,,,,,,,,,,,,6,,66,78
4440,note_on,,1,0,16,,,,,,,,,,,,,,,,15,,47,72
4559,note_on,,0,0,16,,,,,,,,,,,,,,,,15,,47,0
4559,note_on,,0,0,16,,,,,,,,,,,,,,,,15,,66,0
4559,note_on,,0,0,16,,,,,,,,,,,,,,,,15,,62,0
4559,note_on,,119,0,16,,,,,,,,,,,,,,,,15,,57,0
4559,note_on,,119,0,15,,,,,,,,,,,,,,,,13,,47,0
4559,note_on,,119,0,9,,,,,,,,,,,,,,,,6,,66,0
4559,note_on,,119,0,7,,,,,,,,,,,,,,,,2,,47,0
4560,note_on,,0,0,16,,,,,,,,,,,,,,,,15,,56,72
4560,note_on,,1,0,7,,,,,,,,,,,,,,,,2,,52,72
4560,note_on,,1,0,9,,,,,,,,,,,,,,,,6,,68,78
4560,note_on,,1,0,15,,,,,,,,,,,,,,,,13,,52,72
4560,note_on,,0,0,16,,,,,,,,,,,,,,,,15,,64,72
4560,note_on,,0,0,16,,,,,,,,,,,,,,,,15,,59,72
4560,note_on,,1,0,16,,,,,,,,,,,,,,,,15,,52,72
4679,note_on,,119,0,16,,,,,,,,,,,,,,,,15,,52,0
4679,note_on,,0,0,16,,,,,,,,,,,,,,,,15,,59,0
4679,note_on,,0,0,16,,,,,,,,,,,,,,,,15,,64,0
4679,note_on,,119,0,7,,,,,,,,,,,,,,,,2,,52,0
4679,note_on,,119,0,9,,,,,,,,,,,,,,,,6,,68,0
4679,note_on,,119,0,15,,,,,,,,,,,,,,,,13,,52,0
4679,note_on,,0,0,16,,,,,,,,,,,,,,,,15,,56,0
4680,note_on,,1,0,16,,,,,,,,,,,,,,,,15,,45,72
4680,note_on,,0,0,16,,,,,,,,,,,,,,,,15,,64,72
4680,note_on,,0,0,16,,,,,,,,,,,,,,,,15,,61,72
4680,note_on,,0,0,16,,,,,,,,,,,,,,,,15,,57,72
4680,note_on,,0,0,16,,,,,,,,,,,,,,,,15,,52,72
4680,note_on,,1,0,7,,,,,,,,,,,,,,,,2,,45,72
4680,note_on,,1,0,15,,,,,,,,,,,,,,,,13,,45,72
4680,note_on,,1,0,9,,,,,,,,,,,,,,,,6,,69,78
4799,note_on,,119,0,7,,,,,,,,,,,,,,,,2,,45,0
4799,note_on,,119,0,15,,,,,,,,,,,,,,,,13,,45,0
4799,note_on,,0,0,16,,,,,,,,,,,,,,,,15,,52,0
4799,note_on,,0,0,16,,,,,,,,,,,,,,,,15,,57,0
4799,note_on,,0,0,16,,,,,,,,,,,,,,,,15,,61,0
4799,note_on,,0,0,16,,,,,,,,,,,,,,,,15,,64,0
4799,note_on,,119,0,16,,,,,,,,,,,,,,,,15,,45,0
4800,control_change,,4800,0,11,,,,,,,,,,,,,,7,96,8,,,
4800,note_on,,0,0,16,,,,,,,,,,,,,,,,15,,64,72
4800,note_on,,0,0,16,,,,,,,,,,,,,,,,15,,76,72
4800,note_on,,0,0,16,,,,,,,,,,,,,,,,15,,49,72
4800,note_on,,1,0,16,,,,,,,,,,,,,,,,15,,69,72
4800,note_on,,961,0,5,,,,,,,,,,,,,,,,0,,76,72
4800,note_on,,0,0,16,,,,,,,,,,,,,,,,15,,57,72
4800,note_on,,0,0,11,,,,,,,,,,,,,,,,8,,49,88
4800,control_change,,0,0,8,,,,,,,,,,,,,,7,96,5,,,
4800,note_on,,0,0,8,,,,,,,,,,,,,,,,5,,76,88
4800,note_on,,961,0,13,,,,,,,,,,,,,,,,11,,69,72
4800,note_on,,1,0,7,,,,,,,,,,,,,,,,2,,49,72
4800,control_change,,4800,0,10,,,,,,,,,,,,,,7,96,7,,,
4800,note_on,,0,0,10,,,,,,,,,,,,,,,,7,,64,88
4800,note_on,,1,0,15,,,,,,,,,,,,,,,,13,,49,72
4800,note_on,,961,0,14,,,,,,,,,,,,,,,,12,,61,84
4800,control_change,,4800,0,8,,,,,,,,,,,,,,11,127,5,,,
4800,note_on,,961,0,12,,,,,,,,,,,,,,,,10,,76,72
4919,note_on,,0,0,16,,,,,,,,,,,,,,,,15,,64,0
4919,note_on,,0,0,16,,,,,,,,,,,,,,,,15,,57,0
4919,note_on,,119,0,7,,,,,,,,,,,,,,,,2,,49,0
4919,note_on,,0,0,16,,,,,,,,,,,,,,,,15,,76,0
4919,note_on,,119,0,10,,,,,,,,,,,,,,,,7,,64,0
4919,note_on,,119,0,16,,,,,,,,,,,,,,,,15,,69,0
4919,note_on,,119,0,5,,,,,,,,,,,,,,,,0,,76,0
4919,note_on,,119,0,8,,,,,,,,,,,,,,,,5,,76,0
4919,note_on,,119,0,15,,,,,,,,,,,,,,,,13,,49,0
4919,note_on,,119,0,13,,,,,,,,,,,,,,,,11,,69,0
4919,note_on,,119,0,12,,,,,,,,,,,,,,,,10,,76,0
4919,note_on,,119,0,14,,,,,,,,,,,,,,,,12,,61,0
4919,note_on,,0,0,16,,,,,,,,,,,,,,,,15,,49,0
4919,note_on,,119,0,11,,,,,,,,,,,,,,,,8,,49,0
4920,note_on,,1,0,11,,,,,,,,,,,,,,,,8,,45,88
4920,note_on,,0,0,16,,,,,,,,,,,,,,,,15,,57,72
4920,note_on,,1,0,7,,,,,,,,,,,,,,,,2,,45,72
4920,note_on,,1,0,15,,,,,,,,,,,,,,,,13,,45,72
4920,note_on,,1,0,12,,,,,,,,,,,,,,,,10,,81,72
4920,note_on,,1,0,14,,,,,,,,,,,,,,,,12,,64,84
4920,note_on,,0,0,16,,,,,,,,,,,,,,,,15,,64,72
4920,note_on,,0,0,16,,,,,,,,,,,,,,,,15,,69,72
4920,note_on,,0,0,16,,,,,,,,,,,,,,,,15,,73,72
4920,note_on,,1,0,16,,,,,,,,,,,,,,,,15,,45,72
4920,note_on,,1,0,5,,,,,,,,,,,,,,,,0,,73,72
4920,note_on,,1,0,13,,,,,,,,,,,,,,,,11,,73,72
4920,note_on,,1,0,10,,,,,,,,,,,,,,,,7,,64,88
4920,note_on,,1,0,8,,,,,,,,,,,,,,,,5,,73,88
5039,note_on,,119,0,11,,,,,,,,,,,,,,,,8,,45,0
5039,note_on,,119,0,15,,,,,,,,,,,,,,,,13,,45,0
5039,note_on,,119,0,7,,,,,,,,,,,,,,,,2,,45,0
5039,note_on,,119,0,12,,,,,,,,,,,,,,,,10,,81,0
5039,note_on,,119,0,13,,,,,,,,,,,,,,,,11,,73,0
5039,note_on,,119,0,8,,,,,,,,,,,,,,,,5,,73,0
5039,note_on,,119,0,14,,,,,,,,,,,,,,,,12,,64,0
5039,note_on,,0,0,16,,,,,,,,,,,,,,,,15,,69,0
5039,note_on,,0,0,16,,,,,,,,,,,,,,,,15,,64,0
5039,note_on,,119,0,5,,,,,,,,,,,,,,,,0,,73,0
5039,note_on,,359,0,9,,,,,,,,,,,,,,,,6,,69,0
5039,note_on,,0,0,16,,,,,,,,,,,,,,,,15,,73,0
5039,note_on,,119,0,10,,,,,,,,,,,,,,,,7,,64,0
5039,note_on,,0,0,16,,,,,,,,,,,,,,,,15,,57,0
5039,note_on,,119,0,16,,,,,,,,,,,,,,,,15,,45,0
5040,note_on,,1,0,10,,,,,,,,,,,,,,,,7,,56,88
5040,note_on,,0,0,16,,,,,,,,,,,,,,,,15,,71,72
5040,note_on,,1,0,5,,,,,,,,,,,,,,,,0,,71,72
5040,note_on,,1,0,12,,,,,,,,,,,,,,,,10,,80,72
5040,note_on,,1,0,15,,,,,,,,,,,,,,,,13,,52,72
5040,note_on,,1,0,8,,,,,,,,,,,,,,,,5,,71,88
5040,note_on,,0,0,16,,,,,,,,,,,,,,,,15,,68,72
5040,note_on,,1,0,13,,,,,,,,,,,,,,,,11,,71,72
5040,note_on,,0,0,16,,,,,,,,,,,,,,,,15,,64,72
5040,note_on,,0,0,16,,,,,,,,,,,,,,,,15,,59,72
5040,note_on,,1,0,14,,,,,,,,,,,,,,,,12,,64,84
5040,note_on,,1,0,11,,,,,,,,,,,,,,,,8,,52,88
5040,note_on,,1,0,7,,,,,,,,,,,,,,,,2,,52,72
5040,note_on,,1,0,16,,,,,,,,,,,,,,,,15,,52,72
5219,note_on,,179,0,7,,,,,,,,,,,,,,,,2,,52,0
5219,note_on,,179,0,10,,,,,,,,,,,,,,,,7,,56,0
5219,note_on,,179,0,13,,,,,,,,,,,,,,,,11,,71,0
5219,note_on,,179,0,15,,,,,,,,,,,,,,,,13,,52,0
5219,note_on,,179,0,11,,,,,,,,,,,,,,,,8,,52,0
5219,note_on,,179,0,12,,,,,,,,,,,,,,,,10,,80,0
5219,note_on,,179,0,8,,,,,,,,,,,,,,,,5,,71,0
5219,note_on,,179,0,16,,,,,,,,,,,,,,,,15,,52,0
5219,note_on,,179,0,14,,,,,,,,,,,,,,,,12,,64,0
5219,note_on,,179,0,5,,,,,,,,,,,,,,,,0,,71,0
5220,note_on,,1,0,8,,,,,,,,,,,,,,,,5,,71,88
5220,note_on,,1,0,15,,,,,,,,,,,,,,,,13,,50,72
5220,note_on,,1,0,10,,,,,,,,,,,,,,,,7,,56,88
5220,note_on,,1,0,11,,,,,,,,,,,,,,,,8,,50,88
5220,note_on,,1,0,16,,,,,,,,,,,,,,,,15,,50,72
5220,note_on,,1,0,7,,,,,,,,,,,,,,,,2,,50,72
5220,note_on,,1,0,14,,,,,,,,,,,,,,,,12,,64,84
5220,note_on,,1,0,12,,,,,,,,,,,,,,,,10,,78,72
5220,note_on,,1,0,5,,,,,,,,,,,,,,,,0,,71,72
5220,note_on,,1,0,13,,,,,,,,,,,,,,,,11,,71,72
5279,note_on,,0,0,16,,,,,,,,,,,,,,,,15,,68,0
5279,note_on,,59,0,12,,,,,,,,,,,,,,,,10,,78,0
5279,note_on,,59,0,15,,,,,,,,,,,,,,,,13,,50,0
5279,note_on,,59,0,13,,,,,,,,,,,,,,,,11,,71,0
5279,note_on,,59,0,11,,,,,,,,,,,,,,,,8,,50,0
5279,note_on,,59,0,5,,,,,,,,,,,,,,,,0,,71,0
5279,note_on,,59,0,16,,,,,,,,,,,,,,,,15,,71,0
5279,note_on,,59,0,10,,,,,,,,,,,,,,,,7,,56,0
5279,note_on,,0,0,16,,,,,,,,,,,,,,,,15,,64,0
5279,note_on,,0,0,16,,,,,,,,,,,,,,,,15,,59,0
5279,note_on,,0,0,16,,,,,,,,,,,,,,,,15,,50,0
5279,note_on,,59,0,14,,,,,,,,,,,,,,,,12,,64,0
5279,note_on,,59,0,8,,,,,,,,,,,,,,,,5,,71,0
5279,note_on,,59,0,7,,,,,,,,,,,,,,,,2,,50,0
5280,note_on,,1,0,13,,,,,,,,,,,,,,,,11,,81,72
5280,note_on,,1,0,11,,,,,,,,,,,,,,,,8,,49,88
5280,note_on,,241,0,9,,,,,,,,,,,,,,,,6,,69,88
5280,note_on,,1,0,14,,,,,,,,,,,,,,,,12,,69,84
5280,note_on,,1,0,8,,,,,,,,,,,,,,,,5,,76,88
5280,note_on,,1,0,5,,,,,,,,,,,,,,,,0,,76,72
5280,note_on,,1,0,16,,,,,,,,,,,,,,,,15,,76,72
5280,note_on,,0,0,16,,,,,,,,,,,,,,,,15,,49,72
5280,note_on,,0,0,16,,,,,,,,,,,,,,,,15,,69,72
5280,note_on,,1441,0,6,,,,,,,,,,,,,,,,1,,76,72
5280,note_on,,1,0,12,,,,,,,,,,,,,,,,10,,76,72
5280,note_on,,1,0,10,,,,,,,,,,,,,,,,7,,57,88
5280,note_on,,0,0,16,,,,,,,,,,,,,,,,15,,57,72
5280,note_on,,1,0,15,,,,,,,,,,,,,,,,13,,49,72
5280,note_on,,0,0,16,,,,,,,,,,,,,,,,15,,64,72
5280,note_on,,1,0,7,,,,,,,,,,,,,,,,2,,49,72
5399,note_on,,0,0,16,,,,,,,,,,,,,,,,15,,64,0
5399,note_on,,119,0,14,,,,,,,,,,,,,,,,12,,69,0
5399,note_on,,119,0,13,,,,,,,,,,,,,,,,11,,81,0
5399,note_on,,0,0,16,,,,,,,,,,,,,,,,15,,49,0
5399,note_on,,119,0,12,,,,,,,,,,,,,,,,10,,76,0
5399,note_on,,119,0,7,,,,,,,,,,,,,,,,2,,49,0
5399,note_on,,119,0,10,,,,,,,,,,,,,,,,7,,57,0
5399,note_on,,119,0,16,,,,,,,,,,,,,,,,15,,76,0
5399,note_on,,119,0,8,,,,,,,,,,,,,,,,5,,76,0
5399,note_on,,0,0,16,,,,,,,,,,,,,,,,15,,69,0
5399,note_on,,119,0,6,,,,,,,,,,,,,,,,1,,76,0
5399,note_on,,0,0,16,,,,,,,,,,,,,,,,15,,57,0
5399,note_on,,119,0,15,,,,,,,,,,,,,,,,13,,49,0
5399,note_on,,119,0,11,,,,,,,,,,,,,,,,8,,49,0
5399,note_on,,119,0,9,,,,,,,,,,,,,,,,6,,69,0
5399,note_on,,119,0,5,,,,,,,,,,,,,,,,0,,76,0
5400,note_on,,1,0,11,,,,,,,,,,,,,,,,8,,54,88
5400,note_on,,1,0,13,,,,,,,,,,,,,,,,11,,81,72
5400,note_on,,1,0,12,,,,,,,,,,,,,,,,10,,86,72
5400,note_on,,1,0,8,,,,,,,,,,,,,,,,5,,74,88
5400,note_on,,0,0,16,,,,,,,,,,,,,,,,15,,62,72
5400,note_on,,0,0,16,,,,,,,,,,,,,,,,15,,66,72
5400,note_on,,0,0,16,,,,,,,,,,,,,,,,15,,69,72
5400,note_on,,1,0,5,,,,,,,,,,,,,,,,0,,74,72
5400,note_on,,1,0,7,,,,,,,,,,,,,,,,2,,54,72
5400,note_on,,1,0,16,,,,,,,,,,,,,,,,15,,54,72
5400,note_on,,1,0,15,,,,,,,,,,,,,,,,13,,54,72
5400,note_on,,1,0,9,,,,,,,,,,,,,,,,6,,69,88
5400,note_on,,0,0,16,,,,,,,,,,,,,,,,15,,74,72
5400,note_on,,1,0,10,,,,,,,,,,,,,,,,7,,57,88
5400,note_on,,1,0,6,,,,,,,,,,,,,,,,1,,74,72
5400,note_on,,1,0,14,,,,,,,,,,,,,,,,12,,69,84
5519,note_on,,119,0,16,,,,,,,,,,,,,,,,15,,54,0
5519,note_on,,119,0,9,,,,,,,,,,,,,,,,6,,69,0
5519,note_on,,119,0,11,,,,,,,,,,,,,,,,8,,54,0
5519,note_on,,119,0,10,,,,,,,,,,,,,,,,7,,57,0
5519,note_on,,119,0,7,,,,,,,,,,,,,,,,2,,54,0
5519,note_on,,119,0,5,,,,,,,,,,,,,,,,0,,74,0
5519,note_on,,119,0,15,,,,,,,,,,,,,,,,13,,54,0
5519,note_on,,119,0,8,,,,,,,,,,,,,,,,5,,74,0
5519,note_on,,119,0,12,,,,,,,,,,,,,,,,10,,86,0
5519,note_on,,119,0,14,,,,,,,,,,,,,,,,12,,69,0
5519,note_on,,119,0,6,,,,,,,,,,,,,,,,1,,74,0
5519,note_on,,119,0,13,,,,,,,,,,,,,,,,11,,81,0
5520,note_on,,1,0,15,,,,,,,,,,,,,,,,13,,54,72
5520,note_on,,1,0,14,,,,,,,,,,,,,,,,12,,71,84
5520,note_on,,1,0,16,,,,,,,,,,,,,,,,15,,54,72
5520,note_on,,1,0,10,,,,,,,,,,,,,,,,7,,57,88
5520,note_on,,1,0,7,,,,,,,,,,,,,,,,2,,54,72
5520,note_on,,1,0,9,,,,,,,,,,,,,,,,6,,69,88
5520,note_on,,1,0,11,,,,,,,,,,,,,,,,8,,54,88
5520,note_on,,1,0,12,,,,,,,,,,,,,,,,10,,86,72
5520,note_on,,1,0,13,,,,,,,,,,,,,,,,11,,81,72
5520,note_on,,1,0,8,,,,,,,,,,,,,,,,5,,74,88
5520,note_on,,1,0,6,,,,,,,,,,,,,,,,1,,74,72
5520,note_on,,1,0,5,,,,,,,,,,,,,,,,0,,74,72
5639,note_on,,0,0,16,,,,,,,,,,,,,,,,15,,69,0
5639,note_on,,0,0,16,,,,,,,,,,,,,,,,15,,66,0
5639,note_on,,0,0,16,,,,,,,,,,,,,,,,15,,62,0
5639,note_on,,0,0,16,,,,,,,,,,,,,,,,15,,54,0
5639,note_on,,119,0,10,,,,,,,,,,,,,,,,7,,57,0
5639,note_on,,119,0,9,,,,,,,,,,,,,,,,6,,69,0
5639,note_on,,119,0,7,,,,,,,,,,,,,,,,2,,54,0
5639,note_on,,119,0,6,,,,,,,,,,,,,,,,1,,74,0
5639,note_on,,119,0,11,,,,,,,,,,,,,,,,8,,54,0
5639,note_on,,119,0,13,,,,,,,,,,,,,,,,11,,81,0
5639,note_on,,119,0,8,,,,,,,,,,,,,,,,5,,74,0
5639,note_on,,119,0,15,,,,,,,,,,,,,,,,13,,54,0
5639,note_on,,119,0,5,,,,,,,,,,,,,,,,0,,74,0
5639,note_on,,119,0,14,,,,,,,,,,,,,,,,12,,71,0
5639,note_on,,119,0,12,,,,,,,,,,,,,,,,10,,86,0
5639,note_on,,119,0,16,,,,,,,,,,,,,,,,15,,74,0
5640,note_on,,1,0,6,,,,,,,,,,,,,,,,1,,76,72
5640,note_on,,0,0,16,,,,,,,,,,,,,,,,15,,59,72
5640,note_on,,1,0,10,,,,,,,,,,,,,,,,7,,59,88
5640,note_on,,1,0,15,,,,,,,,,,,,,,,,13,,56,72
5640,note_on,,0,0,16,,,,,,,,,,,,,,,,15,,64,72
5640,note_on,,1,0,11,,,,,,,,,,,,,,,,8,,56,88
5640,note_on,,0,0,16,,,,,,,,,,,,,,,,15,,71,72
5640,note_on,,0,0,16,,,,,,,,,,,,,,,,15,,76,72
5640,note_on,,1,0,16,,,,,,,,,,,,,,,,15,,56,72
5640,note_on,,1,0,5,,,,,,,,,,,,,,,,0,,76,72
5640,note_on,,1,0,12,,,,,,,,,,,,,,,,10,,83,72
5640,note_on,,1,0,14,,,,,,,,,,,,,,,,12,,69,84
5640,note_on,,1,0,13,,,,,,,,,,,,,,,,11,,76,72
5640,note_on,,1,0,8,,,,,,,,,,,,,,,,5,,76,88
5640,note_on,,1,0,7,,,,,,,,,,,,,,,,2,,56,72
5640,note_on,,1,0,9,,,,,,,,,,,,,,,,6,,64,88
5759,note_on,,119,0,7,,,,,,,,,,,,,,,,2,,56,0
5759,note_on,,119,0,9,,,,,,,,,,,,,,,,6,,64,0
5759,note_on,,0,0,16,,,,,,,,,,,,,,,,15,,71,0
5759,note_on,,0,0,16,,,,,,,,,,,,,,,,15,,64,0
5759,note_on,,119,0,15,,,,,,,,,,,,,,,,13,,56,0
5759,note_on,,119,0,6,,,,,,,,,,,,,,,,1,,76,0
5759,note_on,,119,0,10,,,,,,,,,,,,,,,,7,,59,0
5759,note_on,,119,0,8,,,,,,,,,,,,,,,,5,,76,0
5759,note_on,,119,0,16,,,,,,,,,,,,,,,,15,,56,0
5759,note_on,,0,0,16,,,,,,,,,,,,,,,,15,,59,0
5759,note_on,,119,0,11,,,,,,,,,,,,,,,,8,,56,0
5759,note_on,,119,0,5,,,,,,,,,,,,,,,,0,,76,0
5759,note_on,,119,0,13,,,,,,,,,,,,,,,,11,,76,0
5759,note_on,,119,0,12,,,,,,,,,,,,,,,,10,,83,0
5759,note_on,,0,0,16,,,,,,,,,,,,,,,,15,,76,0
5760,note_on,,1,0,9,,,,,,,,,,,,,,,,6,,64,88
5760,note_on,,0,0,16,,,,,,,,,,,,,,,,15,,73,72
5760,note_on,,0,0,16,,,,,,,,,,,,,,,,15,,69,72
5760,note_on,,0,0,16,,,,,,,,,,,,,,,,15,,64,72
5760,note_on,,1,0,8,,,,,,,,,,,,,,,,5,,73,88
5760,note_on,,1,0,6,,,,,,,,,,,,,,,,1,,73,72
5760,note_on,,1,0,13,,,,,,,,,,,,,,,,11,,76,72
5760,note_on,,1,0,16,,,,,,,,,,,,,,,,15,,57,72
5760,note_on,,1,0,12,,,,,,,,,,,,,,,,10,,85,72
5760,note_on,,1,0,5,,,,,,,,,,,,,,,,0,,73,72
5760,note_on,,1,0,11,,,,,,,,,,,,,,,,8,,57,88
5760,note_on,,1,0,7,,,,,,,,,,,,,,,,2,,57,72
5760,note_on,,1,0,15,,,,,,,,,,,,,,,,13,,57,72
5760,note_on,,0,0,16,,,,,,,,,,,,,,,,15,,61,72
5760,note_on,,1,0,10,,,,,,,,,,,,,,,,7,,61,88
5879,note_on,,239,0,14,,,,,,,,,,,,,,,,12,,69,0
5879,note_on,,119,0,15,,,,,,,,,,,,,,,,13,,57,0
5879,note_on,,0,0,16,,,,,,,,,,,,,,,,15,,61,0
5879,note_on,,119,0,7,,,,,,,,,,,,,,,,2,,57,0
5879,note_on,,119,0,16,,,,,,,,,,,,,,,,15,,57,0
5880,note_on,,0,0,16,,,,,,,,,,,,,,,,15,,57,72
5880,note_on,,1,0,16,,,,,,,,,,,,,,,,15,,45,72
5880,note_on,,1,0,7,,,,,,,,,,,,,,,,2,,45,72
5880,note_on,,1,0,15,,,,,,,,,,,,,,,,13,,45,72
5999,note_on,,239,0,8,,,,,,,,,,,,,,,,5,,73,0
5999,note_on,,239,0,5,,,,,,,,,,,,,,,,0,,73,0
5999,note_on,,239,0,10,,,,,,,,,,,,,,,,7,,61,0
5999,note_on,,119,0,7,,,,,,,,,,,,,,,,2,,45,0
5999,note_on,,239,0,12,,,,,,,,,,,,,,,,10,,85,0
5999,note_on,,239,0,13,,,,,,,,,,,,,,,,11,,76,0
5999,note_on,,239,0,11,,,,,,,,,,,,,,,,8,,57,0
5999,note_on,,119,0,15,,,,,,,,,,,,,,,,13,,45,0
5999,note_on,,239,0,9,,,,,,,,,,,,,,,,6,,64,0
5999,note_on,,119,0,16,,,,,,,,,,,,,,,,15,,73,0
5999,note_on,,0,0,16,,,,,,,,,,,,,,,,15,,69,0
5999,note_on,,0,0,16,,,,,,,,,,,,,,,,15,,64,0
5999,note_on,,239,0,6,,,,,,,,,,,,,,,,1,,73,0
5999,note_on,,0,0,16,,,,,,,,,,,,,,,,15,,45,0
6000,note_on,,1,0,10,,,,,,,,,,,,,,,,7,,64,78
6000,note_on,,0,0,16,,,,,,,,,,,,,,,,15,,64,72
6000,note_on,,1,0,15,,,,,,,,,,,,,,,,13,,49,72
6000,note_on,,1,0,16,,,,,,,,,,,,,,,,15,,49,72
6000,note_on,,0,0,16,,,,,,,,,,,,,,,,15,,69,72
6000,note_on,,1,0,7,,,,,,,,,,,,,,,,2,,49,72
6119,note_on,,119,0,10,,,,,,,,,,,,,,,,7,,64,0
6119,note_on,,0,0,16,,,,,,,,,,,,,,,,15,,64,0
6119,note_on,,0,0,16,,,,,,,,,,,,,,,,15,,49,0
6119,note_on,,119,0,16,,,,,,,,,,,,,,,,15,,57,0
6119,note_on,,119,0,15,,,,,,,,,,,,,,,,13,,49,0
6119,note_on,,119,0,7,,,,,,,,,,,,,,,,2,,49,0
6120,note_on,,0,0,16,,,,,,,,,,,,,,,,15,,57,72
6120,note_on,,0,0,16,,,,,,,,,,,,,,,,15,,62,72
6120,note_on,,0,0,16,,,,,,,,,,,,,,,,15,,66,72
6120,note_on,,1,0,7,,,,,,,,,,,,,,,,2,,54,72
6120,note_on,,1,0,16,,,,,,,,,,,,,,,,15,,54,72
6120,note_on,,1,0,15,,,,,,,,,,,,,,,,13,,54,72
6120,note_on,,1,0,10,,,,,,,,,,,,,,,,7,,62,78
6239,note_on,,119,0,15,,,,,,,,,,,,,,,,13,,54,0
6239,note_on,,119,0,7,,,,,,,,,,,,,,,,2,,54,0
6239,note_on,,0,0,16,,,,,,,,,,,,,,,,15,,57,0
6239,note_on,,0,0,16,,,,,,,,,,,,,,,,15,,66,0
6239,note_on,,0,0,16,,,,,,,,,,,,,,,,15,,54,0
6239,note_on,,0,0,16,,,,,,,,,,,,,,,,15,,62,0
6239,note_on,,119,0,16,,,,,,,,,,,,,,,,15,,69,0
6240,note_on,,1,0,16,,,,,,,,,,,,,,,,15,,42,72
6240,note_on,,0,0,16,,,,,,,,,,,,,,,,15,,69,72
6240,note_on,,0,0,16,,,,,,,,,,,,,,,,15,,62,72
6240,note_on,,0,0,16,,,,,,,,,,,,,,,,15,,54,72
6240,note_on,,1,0,15,,,,,,,,,,,,,,,,13,,42,72
6240,note_on,,1,0,7,,,,,,,,,,,,,,,,2,,42,72
6299,note_on,,179,0,10,,,,,,,,,,,,,,,,7,,62,0
6300,note_on,,1,0,10,,,,,,,,,,,,,,,,7,,66,78
6359,note_on,,59,0,10,,,,,,,,,,,,,,,,7,,66,0
6359,note_on,,119,0,15,,,,,,,,,,,,,,,,13,,42,0
6359,note_on,,119,0,16,,,,,,,,,,,,,,,,15,,42,0
6359,note_on,,0,0,16,,,,,,,,,,,,,,,,15,,69,0
6359,note_on,,0,0,16,,,,,,,,,,,,,,,,15,,62,0
6359,note_on,,0,0,16,,,,,,,,,,,,,,,,15,,54,0
6359,note_on,,119,0,7,,,,,,,,,,,,,,,,2,,42,0
6360,note_on,,1,0,10,,,,,,,,,,,,,,,,7,,64,78
6360,note_on,,0,0,16,,,,,,,,,,,,,,,,15,,44,72
6360,note_on,,0,0,16,,,,,,,,,,,,,,,,15,,64,72
6360,note_on,,0,0,16,,,,,,,,,,,,,,,,15,,59,72
6360,note_on,,0,0,16,,,,,,,,,,,,,,,,15,,52,72
6360,note_on,,1,0,7,,,,,,,,,,,,,,,,2,,44,72
6360,note_on,,1,0,16,,,,,,,,,,,,,,,,15,,71,72
6360,note_on,,1,0,15,,,,,,,,,,,,,,,,13,,44,72
6419,note_on,,59,0,10,,,,,,,,,,,,,,,,7,,64,0
6420,note_on,,1,0,10,,,,,,,,,,,,,,,,7,,62,78
6479,note_on,,119,0,15,,,,,,,,,,,,,,,,13,,44,0
6479,note_on,,59,0,10,,,,,,,,,,,,,,,,7,,62,0
6479,note_on,,119,0,16,,,,,,,,,,,,,,,,15,,71,0
6479,note_on,,0,0,16,,,,,,,,,,,,,,,,15,,52,0
6479,note_on,,0,0,16,,,,,,,,,,,,,,,,15,,64,0
6479,note_on,,0,0,16,,,,,,,,,,,,,,,,15,,59,0
6479,note_on,,0,0,16,,,,,,,,,,,,,,,,15,,44,0
6479,note_on,,119,0,7,,,,,,,,,,,,,,,,2,,44,0
6480,note_on,,1,0,7,,,,,,,,,,,,,,,,2,,45,72
6480,note_on,,1,0,15,,,,,,,,,,,,,,,,13,,45,72
6480,note_on,,0,0,16,,,,,,,,,,,,,,,,15,,52,72
6480,note_on,,0,0,16,,,,,,,,,,,,,,,,15,,57,72
6480,note_on,,1,0,10,,,,,,,,,,,,,,,,7,,61,78
6480,note_on,,0,0,16,,,,,,,,,,,,,,,,15,,61,72
6480,note_on,,0,0,16,,,,,,,,,,,,,,,,15,,64,72
6480,note_on,,1,0,16,,,,,,,,,,,,,,,,15,,45,72
6599,note_on,,119,0,15,,,,,,,,,,,,,,,,13,,45,0
6599,note_on,,119,0,16,,,,,,,,,,,,,,,,15,,45,0
6599,note_on,,119,0,7,,,,,,,,,,,,,,,,2,,45,0
6600,note_on,,1,0,15,,,,,,,,,,,,,,,,13,,49,72
6600,note_on,,1,0,7,,,,,,,,,,,,,,,,2,,49,72
6600,note_on,,1,0,16,,,,,,,,,,,,,,,,15,,49,72
6659,note_on,,179,0,10,,,,,,,,,,,,,,,,7,,61,0
6660,note_on,,1,0,10,,,,,,,,,,,,,,,,7,,64,78
6719,note_on,,0,0,16,,,,,,,,,,,,,,,,15,,57,0
6719,note_on,,119,0,7,,,,,,,,,,,,,,,,2,,49,0
6719,note_on,,59,0,10,,,,,,,,,,,,,,,,7,,64,0
6719,note_on,,119,0,16,,,,,,,,,,,,,,,,15,,64,0
6719,note_on,,0,0,16,,,,,,,,,,,,,,,,15,,61,0
6719,note_on,,0,0,16,,,,,,,,,,,,,,,,15,,49,0
6719,note_on,,0,0,16,,,,,,,,,,,,,,,,15,,52,0
6719,note_on,,119,0,15,,,,,,,,,,,,,,,,13,,49,0
6720,note_on,,721,0,11,,,,,,,,,,,,,,,,8,,57,78
6720,note_on,,1,0,10,,,,,,,,,,,,,,,,7,,62,78
6720,note_on,,1,0,7,,,,,,,,,,,,,,,,2,,45,72
6720,note_on,,1,0,16,,,,,,,,,,,,,,,,15,,45,72
6720,note_on,,0,0,16,,,,,,,,,,,,,,,,15,,66,72
6720,note_on,,0,0,16,,,,,,,,,,,,,,,,15,,61,72
6720,note_on,,0,0,16,,,,,,,,,,,,,,,,15,,57,72
6720,note_on,,1,0,15,,,,,,,,,,,,,,,,13,,45,72
6779,note_on,,59,0,10,,,,,,,,,,,,,,,,7,,62,0
6780,note_on,,1,0,10,,,,,,,,,,,,,,,,7,,61,78
6839,note_on,,0,0,16,,,,,,,,,,,,,,,,15,,61,0
6839,note_on,,119,0,11,,,,,,,,,,,,,,,,8,,57,0
6839,note_on,,59,0,10,,,,,,,,,,,,,,,,7,,61,0
6839,note_on,,119,0,15,,,,,,,,,,,,,,,,13,,45,0
6839,note_on,,119,0,16,,,,,,,,,,,,,,,,15,,45,0
6839,note_on,,0,0,16,,,,,,,,,,,,,,,,15,,57,0
6839,note_on,,0,0,16,,,,,,,,,,,,,,,,15,,66,0
6839,note_on,,119,0,7,,,,,,,,,,,,,,,,2,,45,0
6840,note_on,,1,0,10,,,,,,,,,,,,,,,,7,,59,78
6840,note_on,,1,0,11,,,,,,,,,,,,,,,,8,,56,78
6840,note_on,,1,0,7,,,,,,,,,,,,,,,,2,,52,72
6840,note_on,,1,0,15,,,,,,,,,,,,,,,,13,,52,72
6840,note_on,,1,0,16,,,,,,,,,,,,,,,,15,,52,72
6840,note_on,,0,0,16,,,,,,,,,,,,,,,,15,,68,72
6840,note_on,,0,0,16,,,,,,,,,,,,,,,,15,,64,72
6840,note_on,,0,0,16,,,,,,,,,,,,,,,,15,,56,72
6840,note_on,,0,0,16,,,,,,,,,,,,,,,,15,,59,72
6959,note_on,,0,0,16,,,,,,,,,,,,,,,,15,,56,0
6959,note_on,,0,0,16,,,,,,,,,,,,,,,,15,,64,0
6959,note_on,,119,0,7,,,,,,,,,,,,,,,,2,,52,0
6959,note_on,,119,0,16,,,,,,,,,,,,,,,,15,,52,0
6959,note_on,,119,0,15,,,,,,,,,,,,,,,,13,,52,0
6959,note_on,,0,0,16,,,,,,,,,,,,,,,,15,,59,0
6959,note_on,,119,0,10,,,,,,,,,,,,,,,,7,,59,0
6960,note_on,,0,0,16,,,,,,,,,,,,,,,,15,,59,72
6960,note_on,,0,0,16,,,,,,,,,,,,,,,,15,,64,72
6960,note_on,,1,0,15,,,,,,,,,,,,,,,,13,,56,72
6960,note_on,,1,0,7,,,,,,,,,,,,,,,,2,,56,72
6960,note_on,,1,0,16,,,,,,,,,,,,,,,,15,,56,72
6960,note_on,,1,0,10,,,,,,,,,,,,,,,,7,,59,78
7019,note_on,,179,0,11,,,,,,,,,,,,,,,,8,,56,0
7020,note_on,,1,0,11,,,,,,,,,,,,,,,,8,,59,78
7079,note_on,,119,0,16,,,,,,,,,,,,,,,,15,,68,0
7079,note_on,,119,0,15,,,,,,,,,,,,,,,,13,,56,0
7079,note_on,,0,0,16,,,,,,,,,,,,,,,,15,,59,0
7079,note_on,,0,0,16,,,,,,,,,,,,,,,,15,,56,0
7079,note_on,,119,0,7,,,,,,,,,,,,,,,,2,,56,0
7079,note_on,,59,0,11,,,,,,,,,,,,,,,,8,,59,0
7079,note_on,,119,0,10,,,,,,,,,,,,,,,,7,,59,0
7080,note_on,,0,0,16,,,,,,,,,,,,,,,,15,,68,72
7080,note_on,,1,0,15,,,,,,,,,,,,,,,,13,,52,72
7080,note_on,,1,0,7,,,,,,,,,,,,,,,,2,,52,72
7080,note_on,,1,0,16,,,,,,,,,,,,,,,,15,,52,72
7080,note_on,,0,0,16,,,,,,,,,,,,,,,,15,,56,72
7080,note_on,,0,0,16,,,,,,,,,,,,,,,,15,,71,72
7080,note_on,,1081,0,5,,,,,,,,,,,,,,,,0,,71,72
7080,note_on,,1081,0,6,,,,,,,,,,,,,,,,1,,71,72
7080,note_on,,1,0,11,,,,,,,,,,,,,,,,8,,57,78
7080,note_on,,1081,0,8,,,,,,,,,,,,,,,,5,,71,88
7139,note_on,,59,0,11,,,,,,,,,,,,,,,,8,,57,0
7140,note_on,,1,0,11,,,,,,,,,,,,,,,,8,,56,78
7199,note_on,,0,0,16,,,,,,,,,,,,,,,,15,,71,0
7199,note_on,,0,0,16,,,,,,,,,,,,,,,,15,,56,0
7199,note_on,,0,0,16,,,,,,,,,,,,,,,,15,,52,0
7199,note_on,,119,0,16,,,,,,,,,,,,,,,,15,,64,0
7199,note_on,,119,0,6,,,,,,,,,,,,,,,,1,,71,0
7199,note_on,,59,0,11,,,,,,,,,,,,,,,,8,,56,0
7199,note_on,,0,0,16,,,,,,,,,,,,,,,,15,,68,0
7199,note_on,,119,0,7,,,,,,,,,,,,,,,,2,,52,0
7199,note_on,,119,0,5,,,,,,,,,,,,,,,,0,,71,0
7199,note_on,,119,0,8,,,,,,,,,,,,,,,,5,,71,0
7199,note_on,,119,0,15,,,,,,,,,,,,,,,,13,,52,0
7200,note_on,,1,0,7,,,,,,,,,,,,,,,,2,,54,72
7200,note_on,,1,0,6,,,,,,,,,,,,,,,,1,,69,72
7200,note_on,,1,0,8,,,,,,,,,,,,,,,,5,,69,88
7200,note_on,,1,0,11,,,,,,,,,,,,,,,,8,,54,78
7200,note_on,,1,0,15,,,,,,,,,,,,,,,,13,,54,72
7200,note_on,,0,0,16,,,,,,,,,,,,,,,,15,,69,72
7200,note_on,,0,0,16,,,,,,,,,,,,,,,,15,,66,72
7200,note_on,,0,0,16,,,,,,,,,,,,,,,,15,,61,72
7200,note_on,,0,0,16,,,,,,,,,,,,,,,,15,,57,72
7200,note_on,,1,0,5,,,,,,,,,,,,,,,,0,,69,72
7200,note_on,,1,0,16,,,,,,,,,,,,,,,,15,,54,72
7319,note_on,,119,0,15,,,,,,,,,,,,,,,,13,,54,0
7319,note_on,,119,0,16,,,,,,,,,,,,,,,,15,,54,0
7319,note_on,,0,0,16,,,,,,,,,,,,,,,,15,,61,0
7319,note_on,,0,0,16,,,,,,,,,,,,,,,,15,,57,0
7319,note_on,,119,0,7,,,,,,,,,,,,,,,,2,,54,0
7320,note_on,,0,0,16,,,,,,,,,,,,,,,,15,,59,72
7320,note_on,,1,0,7,,,,,,,,,,,,,,,,2,,51,72
7320,note_on,,0,0,16,,,,,,,,,,,,,,,,15,,54,72
7320,note_on,,1,0,15,,,,,,,,,,,,,,,,13,,51,72
7320,note_on,,1,0,16,,,,,,,,,,,,,,,,15,,51,72
7379,note_on,,179,0,8,,,,,,,,,,,,,,,,5,,69,0
7379,note_on,,179,0,6,,,,,,,,,,,,,,,,1,,69,0
7379,note_on,,179,0,5,,,,,,,,,,,,,,,,0,,69,0
7379,note_on,,179,0,11,,,,,,,,,,,,,,,,8,,54,0
7380,note_on,,1,0,6,,,,,,,,,,,,,,,,1,,73,72
7380,note_on,,1,0,11,,,,,,,,,,,,,,,,8,,57,78
7380,note_on,,1,0,8,,,,,,,,,,,,,,,,5,,73,88
7380,note_on,,1,0,5,,,,,,,,,,,,,,,,0,,73,72
7439,note_on,,119,0,16,,,,,,,,,,,,,,,,15,,69,0
7439,note_on,,59,0,8,,,,,,,,,,,,,,,,5,,73,0
7439,note_on,,59,0,5,,,,,,,,,,,,,,,,0,,73,0
7439,note_on,,59,0,6,,,,,,,,,,,,,,,,1,,73,0
7439,note_on,,59,0,11,,,,,,,,,,,,,,,,8,,57,0
7439,note_on,,0,0,16,,,,,,,,,,,,,,,,15,,66,0
7440,note_on,,1,0,16,,,,,,,,,,,,,,,,15,,71,72
7440,note_on,,0,0,16,,,,,,,,,,,,,,,,15,,66,72
7440,note_on,,1,0,8,,,,,,,,,,,,,,,,5,,71,88
7440,note_on,,1,0,11,,,,,,,,,,,,,,,,8,,56,78
7440,note_on,,1,0,5,,,,,,,,,,,,,,,,0,,71,72
7440,note_on,,1,0,6,,,,,,,,,,,,,,,,1,,71,72
7499,note_on,,59,0,11,,,,,,,,,,,,,,,,8,,56,0
7499,note_on,,59,0,6,,,,,,,,,,,,,,,,1,,71,0
7499,note_on,,59,0,5,,,,,,,,,,,,,,,,0,,71,0
7499,note_on,,59,0,8,,,,,,,,,,,,,,,,5,,71,0
7500,note_on,,1,0,6,,,,,,,,,,,,,,,,1,,69,72
7500,note_on,,1,0,8,,,,,,,,,,,,,,,,5,,69,88
7500,note_on,,1,0,5,,,,,,,,,,,,,,,,0,,69,72
7500,note_on,,1,0,11,,,,,,,,,,,,,,,,8,,54,78
7559,note_on,,59,0,8,,,,,,,,,,,,,,,,5,,69,0
7559,note_on,,0,0,16,,,,,,,,,,,,,,,,15,,59,0
7559,note_on,,0,0,16,,,,,,,,,,,,,,,,15,,54,0
7559,note_on,,0,0,16,,,,,,,,,,,,,,,,15,,71,0
7559,note_on,,0,0,16,,,,,,,,,,,,,,,,15,,66,0
7559,note_on,,59,0,6,,,,,,,,,,,,,,,,1,,69,0
7559,note_on,,239,0,7,,,,,,,,,,,,,,,,2,,51,0
7559,note_on,,59,0,5,,,,,,,,,,,,,,,,0,,69,0
7559,note_on,,59,0,11,,,,,,,,,,,,,,,,8,,54,0
7559,note_on,,119,0,16,,,,,,,,,,,,,,,,15,,51,0
7559,note_on,,239,0,15,,,,,,,,,,,,,,,,13,,51,0
7560,note_on,,1,0,11,,,,,,,,,,,,,,,,8,,52,78
7560,note_on,,0,0,16,,,,,,,,,,,,,,,,15,,56,72
7560,note_on,,1,0,7,,,,,,,,,,,,,,,,2,,52,72
7560,note_on,,0,0,16,,,,,,,,,,,,,,,,15,,64,72
7560,note_on,,1,0,6,,,,,,,,,,,,,,,,1,,68,72
7560,note_on,,1,0,15,,,,,,,,,,,,,,,,13,,52,72
7560,note_on,,1,0,16,,,,,,,,,,,,,,,,15,,52,72
7560,note_on,,1,0,5,,,,,,,,,,,,,,,,0,,68,72
7560,note_on,,1,0,8,,,,,,,,,,,,,,,,5,,68,88
7560,note_on,,0,0,16,,,,,,,,,,,,,,,,15,,68,72
7560,note_on,,0,0,16,,,,,,,,,,,,,,,,15,,59,72
7679,note_on,,119,0,11,,,,,,,,,,,,,,,,8,,52,0
7680,note_on,,601,0,10,,,,,,,,,,,,,,,,7,,56,78
7680,note_on,,1,0,11,,,,,,,,,,,,,,,,8,,52,78
7739,note_on,,179,0,8,,,,,,,,,,,,,,,,5,,68,0
7739,note_on,,179,0,6,,,,,,,,,,,,,,,,1,,68,0
7739,note_on,,179,0,5,,,,,,,,,,,,,,,,0,,68,0
7740,note_on,,1,0,8,,,,,,,,,,,,,,,,5,,71,88
7740,note_on,,1,0,5,,,,,,,,,,,,,,,,0,,71,72
7740,note_on,,1,0,6,,,,,,,,,,,,,,,,1,,71,72
7799,note_on,,0,0,16,,,,,,,,,,,,,,,,15,,68,0
7799,note_on,,239,0,16,,,,,,,,,,,,,,,,15,,52,0
7799,note_on,,239,0,7,,,,,,,,,,,,,,,,2,,52,0
7799,note_on,,0,0,16,,,,,,,,,,,,,,,,15,,64,0
7799,note_on,,0,0,16,,,,,,,,,,,,,,,,15,,56,0
7799,note_on,,59,0,6,,,,,,,,,,,,,,,,1,,71,0
7799,note_on,,0,0,16,,,,,,,,,,,,,,,,15,,59,0
7799,note_on,,59,0,5,,,,,,,,,,,,,,,,0,,71,0
7799,note_on,,119,0,10,,,,,,,,,,,,,,,,7,,56,0
7799,note_on,,119,0,11,,,,,,,,,,,,,,,,8,,52,0
7799,note_on,,59,0,8,,,,,,,,,,,,,,,,5,,71,0
7799,note_on,,239,0,15,,,,,,,,,,,,,,,,13,,52,0
7800,note_on,,1,0,10,,,,,,,,,,,,,,,,7,,52,78
7800,note_on,,1,0,15,,,,,,,,,,,,,,,,13,,52,72
7800,note_on,,1,0,7,,,,,,,,,,,,,,,,2,,52,72
7800,note_on,,0,0,16,,,,,,,,,,,,,,,,15,,56,72
7800,note_on,,0,0,16,,,,,,,,,,,,,,,,15,,64,72
7800,note_on,,0,0,16,,,,,,,,,,,,,,,,15,,52,72
7800,note_on,,1,0,16,,,,,,,,,,,,,,,,15,,61,72
7800,note_on,,1,0,8,,,,,,,,,,,,,,,,5,,69,88
7800,note_on,,1,0,6,,,,,,,,,,,,,,,,1,,69,72
7800,note_on,,1,0,5,,,,,,,,,,,,,,,,0,,69,72
7859,note_on,,59,0,8,,,,,,,,,,,,,,,,5,,69,0
7859,note_on,,59,0,5,,,,,,,,,,,,,,,,0,,69,0
7859,note_on,,59,0,6,,,,,,,,,,,,,,,,1,,69,0
7860,note_on,,1,0,5,,,,,,,,,,,,,,,,0,,68,72
7860,note_on,,1,0,6,,,,,,,,,,,,,,,,1,,68,72
7860,note_on,,1,0,8,,,,,,,,,,,,,,,,5,,68,88
7919,note_on,,59,0,5,,,,,,,,,,,,,,,,0,,68,0
7919,note_on,,0,0,16,,,,,,,,,,,,,,,,15,,56,0
7919,note_on,,119,0,10,,,,,,,,,,,,,,,,7,,52,0
7919,note_on,,0,0,16,,,,,,,,,,,,,,,,15,,64,0
7919,note_on,,59,0,8,,,,,,,,,,,,,,,,5,,68,0
7919,note_on,,59,0,6,,,,,,,,,,,,,,,,1,,68,0
7919,note_on,,119,0,16,,,,,,,,,,,,,,,,15,,61,0
7919,note_on,,119,0,15,,,,,,,,,,,,,,,,13,,52,0
7919,note_on,,0,0,16,,,,,,,,,,,,,,,,15,,52,0
7919,note_on,,119,0,7,,,,,,,,,,,,,,,,2,,52,0
7920,note_on,,1,0,6,,,,,,,,,,,,,,,,1,,66,72
7920,note_on,,1,0,15,,,,,,,,,,,,,,,,13,,51,72
7920,note_on,,1,0,8,,,,,,,,,,,,,,,,5,,66,88
7920,note_on,,1,0,5,,,,,,,,,,,,,,,,0,,66,72
7920,note_on,,0,0,16,,,,,,,,,,,,,,,,15,,54,72
7920,note_on,,1,0,7,,,,,,,,,,,,,,,,2,,51,72
7920,note_on,,0,0,16,,,,,,,,,,,,,,,,15,,66,72
7920,note_on,,1,0,10,,,,,,,,,,,,,,,,7,,59,78
7920,note_on,,1,0,16,,,,,,,,,,,,,,,,15,,51,72
7920,note_on,,0,0,16,,,,,,,,,,,,,,,,15,,59,72
8039,note_on,,119,0,5,,,,,,,,,,,,,,,,0,,66,0
8039,note_on,,119,0,7,,,,,,,,,,,,,,,,2,,51,0
8039,note_on,,119,0,16,,,,,,,,,,,,,,,,15,,51,0
8039,note_on,,119,0,6,,,,,,,,,,,,,,,,1,,66,0
8039,note_on,,119,0,8,,,,,,,,,,,,,,,,5,,66,0
8039,note_on,,119,0,15,,,,,,,,,,,,,,,,13,,51,0
8040,note_on,,1,0,7,,,,,,,,,,,,,,,,2,,47,72
8040,note_on,,1,0,6,,,,,,,,,,,,,,,,1,,66,72
8040,note_on,,0,0,16,,,,,,,,,,,,,,,,15,,63,72
8040,note_on,,1,0,15,,,,,,,,,,,,,,,,13,,47,72
8040,note_on,,1,0,5,,,,,,,,,,,,,,,,0,,66,72
8040,note_on,,1,0,8,,,,,,,,,,,,,,,,5,,66,88
8040,note_on,,1,0,16,,,,,,,,,,,,,,,,15,,47,72
8099,note_on,,179,0,10,,,,,,,,,,,,,,,,7,,59,0
8100,note_on,,1,0,10,,,,,,,,,,,,,,,,7,,57,78
8159,note_on,,119,0,16,,,,,,,,,,,,,,,,15,,66,0
8159,note_on,,0,0,16,,,,,,,,,,,,,,,,15,,59,0
8159,note_on,,119,0,5,,,,,,,,,,,,,,,,0,,66,0
8159,note_on,,0,0,16,,,,,,,,,,,,,,,,15,,47,0
8159,note_on,,119,0,6,,,,,,,,,,,,,,,,1,,66,0
8159,note_on,,119,0,15,,,,,,,,,,,,,,,,13,,47,0
8159,note_on,,119,0,8,,,,,,,,,,,,,,,,5,,66,0
8159,note_on,,0,0,16,,,,,,,,,,,,,,,,15,,63,0
8159,note_on,,59,0,10,,,,,,,,,,,,,,,,7,,57,0
8159,note_on,,0,0,16,,,,,,,,,,,,,,,,15,,54,0
8159,note_on,,119,0,7,,,,,,,,,,,,,,,,2,,47,0
8160,note_on,,1,0,16,,,,,,,,,,,,,,,,15,,52,72
8160,note_on,,0,0,16,,,,,,,,,,,,,,,,15,,68,72
8160,note_on,,0,0,16,,,,,,,,,,,,,,,,15,,64,72
8160,note_on,,0,0,16,,,,,,,,,,,,,,,,15,,59,72
8160,note_on,,1,0,10,,,,,,,,,,,,,,,,7,,56,78
8160,note_on,,361,0,11,,,,,,,,,,,,,,,,8,,59,78
8160,note_on,,1,0,15,,,,,,,,,,,,,,,,13,,52,72
8160,note_on,,1,0,7,,,,,,,,,,,,,,,,2,,52,72
8279,note_on,,0,0,16,,,,,,,,,,,,,,,,15,,59,0
8279,note_on,,119,0,16,,,,,,,,,,,,,,,,15,,52,0
8279,note_on,,0,0,16,,,,,,,,,,,,,,,,15,,68,0
8279,note_on,,119,0,10,,,,,,,,,,,,,,,,7,,56,0
8279,note_on,,0,0,16,,,,,,,,,,,,,,,,15,,64,0
8279,note_on,,119,0,11,,,,,,,,,,,,,,,,8,,59,0
8279,note_on,,119,0,7,,,,,,,,,,,,,,,,2,,52,0
8279,note_on,,119,0,15,,,,,,,,,,,,,,,,13,,52,0
8280,note_on,,1,0,16,,,,,,,,,,,,,,,,15,,45,72
8280,note_on,,0,0,16,,,,,,,,,,,,,,,,15,,69,72
8280,note_on,,0,0,16,,,,,,,,,,,,,,,,15,,64,72
8280,note_on,,0,0,16,,,,,,,,,,,,,,,,15,,61,72
8280,note_on,,0,0,16,,,,,,,,,,,,,,,,15,,52,72
8280,note_on,,1,0,7,,,,,,,,,,,,,,,,2,,45,72
8280,note_on,,1,0,15,,,,,,,,,,,,,,,,13,,45,72
8280,note_on,,1,0,11,,,,,,,,,,,,,,,,8,,57,78
8280,note_on,,1,0,10,,,,,,,,,,,,,,,,7,,61,78
8399,note_on,,0,0,16,,,,,,,,,,,,,,,,15,,61,0
8399,note_on,,119,0,7,,,,,,,,,,,,,,,,2,,45,0
8399,note_on,,119,0,15,,,,,,,,,,,,,,,,13,,45,0
8399,note_on,,119,0,10,,,,,,,,,,,,,,,,7,,61,0
8399,note_on,,119,0,16,,,,,,,,,,,,,,,,15,,45,0
8399,note_on,,0,0,16,,,,,,,,,,,,,,,,15,,52,0
8400,note_on,,1,0,15,,,,,,,,,,,,,,,,13,,42,72
8400,note_on,,1,0,10,,,,,,,,,,,,,,,,7,,61,78
8400,note_on,,1,0,16,,,,,,,,,,,,,,,,15,,42,72
8400,note_on,,0,0,16,,,,,,,,,,,,,,,,15,,57,72
8400,note_on,,0,0,16,,,,,,,,,,,,,,,,15,,54,72
8400,note_on,,1,0,7,,,,,,,,,,,,,,,,2,,42,72
8459,note_on,,179,0,11,,,,,,,,,,,,,,,,8,,57,0
8460,note_on,,1,0,11,,,,,,,,,,,,,,,,8,,61,78
8519,note_on,,59,0,11,,,,,,,,,,,,,,,,8,,61,0
8519,note_on,,119,0,16,,,,,,,,,,,,,,,,15,,69,0
8519,note_on,,0,0,16,,,,,,,,,,,,,,,,15,,64,0
8519,note_on,,0,0,16,,,,,,,,,,,,,,,,15,,42,0
8519,note_on,,119,0,15,,,,,,,,,,,,,,,,13,,42,0
8519,note_on,,0,0,16,,,,,,,,,,,,,,,,15,,54,0
8519,note_on,,119,0,7,,,,,,,,,,,,,,,,2,,42,0
8519,note_on,,119,0,10,,,,,,,,,,,,,,,,7,,61,0
8519,note_on,,0,0,16,,,,,,,,,,,,,,,,15,,57,0
8520,note_on,,1,0,11,,,,,,,,,,,,,,,,8,,59,78
8520,note_on,,1,0,16,,,,,,,,,,,,,,,,15,,47,72
8520,note_on,,1,0,15,,,,,,,,,,,,,,,,13,,47,72
8520,note_on,,1,0,7,,,,,,,,,,,,,,,,2,,47,72
8520,note_on,,0,0,16,,,,,,,,,,,,,,,,15,,59,72
8520,note_on,,1,0,10,,,,,,,,,,,,,,,,7,,63,78
8520,note_on,,0,0,16,,,,,,,,,,,,,,,,15,,54,72
8520,note_on,,0,0,16,,,,,,,,,,,,,,,,15,,66,72
8520,note_on,,0,0,16,,,,,,,,,,,,,,,,15,,63,72
8579,note_on,,59,0,11,,,,,,,,,,,,,,,,8,,59,0
8580,note_on,,1,0,11,,,,,,,,,,,,,,,,8,,57,78
8639,note_on,,119,0,16,,,,,,,,,,,,,,,,15,,47,0
8639,note_on,,0,0,16,,,,,,,,,,,,,,,,15,,54,0
8639,note_on,,0,0,16,,,,,,,,,,,,,,,,15,,66,0
8639,note_on,,0,0,16,,,,,,,,,,,,,,,,15,,63,0
8639,note_on,,0,0,16,,,,,,,,,,,,,,,,15,,59,0
8639,note_on,,119,0,15,,,,,,,,,,,,,,,,13,,47,0
8639,note_on,,119,0,10,,,,,,,,,,,,,,,,7,,63,0
8639,note_on,,119,0,7,,,,,,,,,,,,,,,,2,,47,0
8639,note_on,,59,0,11,,,,,,,,,,,,,,,,8,,57,0
8640,note_on,,1,0,10,,,,,,,,,,,,,,,,7,,64,78
8640,note_on,,1,0,7,,,,,,,,,,,,,,,,2,,52,72
8640,note_on,,1,0,15,,,,,,,,,,,,,,,,13,,52,72
8640,note_on,,0,0,16,,,,,,,,,,,,,,,,15,,59,72
8640,note_on,,0,0,16,,,,,,,,,,,,,,,,15,,64,72
8640,note_on,,0,0,16,,,,,,,,,,,,,,,,15,,68,72
8640,note_on,,1,0,16,,,,,,,,,,,,,,,,15,,52,72
8640,note_on,,1,0,11,,,,,,,,,,,,,,,,8,,56,78
8759,note_on,,119,0,7,,,,,,,,,,,,,,,,2,,52,0
8759,note_on,,119,0,15,,,,,,,,,,,,,,,,13,,52,0
8759,note_on,,119,0,11,,,,,,,,,,,,,,,,8,,56,0
8760,note_on,,1,0,7,,,,,,,,,,,,,,,,2,,40,72
8760,note_on,,1,0,15,,,,,,,,,,,,,,,,13,,40,72
8760,note_on,,601,0,8,,,,,,,,,,,,,,,,5,,68,88
8760,note_on,,601,0,5,,,,,,,,,,,,,,,,0,,68,72
8760,note_on,,120,0,16,,,,,,,,,,,,,,,,15,,40,72
8760,note_on,,1,0,11,,,,,,,,,,,,,,,,8,,52,78
8760,note_on,,601,0,6,,,,,,,,,,,,,,,,1,,68,72
8879,note_on,,119,0,6,,,,,,,,,,,,,,,,1,,68,0
8879,note_on,,119,0,5,,,,,,,,,,,,,,,,0,,68,0
8879,note_on,,119,0,7,,,,,,,,,,,,,,,,2,,40,0
8879,note_on,,119,0,16,,,,,,,,,,,,,,,,15,,52,0
8879,note_on,,0,0,16,,,,,,,,,,,,,,,,15,,59,0
8879,note_on,,0,0,16,,,,,,,,,,,,,,,,15,,40,0
8879,note_on,,119,0,11,,,,,,,,,,,,,,,,8,,52,0
8879,note_on,,119,0,8,,,,,,,,,,,,,,,,5,,68,0
8879,note_on,,119,0,15,,,,,,,,,,,,,,,,13,,40,0
8880,note_on,,1,0,16,,,,,,,,,,,,,,,,15,,49,72
8880,note_on,,2881,0,9,,,,,,,,,,,,,,,,6,,64,78
8880,note_on,,1,0,15,,,,,,,,,,,,,,,,13,,49,72
8880,note_on,,1,0,7,,,,,,,,,,,,,,,,2,,49,72
8880,note_on,,1,0,8,,,,,,,,,,,,,,,,5,,64,88
8880,note_on,,1,0,5,,,,,,,,,,,,,,,,0,,64,72
8880,note_on,,0,0,16,,,,,,,,,,,,,,,,15,,52,72
8880,note_on,,1,0,6,,,,,,,,,,,,,,,,1,,64,72
8999,note_on,,119,0,15,,,,,,,,,,,,,,,,13,,49,0
8999,note_on,,119,0,8,,,,,,,,,,,,,,,,5,,64,0
8999,note_on,,119,0,9,,,,,,,,,,,,,,,,6,,64,0
8999,note_on,,119,0,5,,,,,,,,,,,,,,,,0,,64,0
8999,note_on,,119,0,7,,,,,,,,,,,,,,,,2,,49,0
8999,note_on,,119,0,6,,,,,,,,,,,,,,,,1,,64,0
8999,note_on,,119,0,16,,,,,,,,,,,,,,,,15,,68,0
8999,note_on,,0,0,16,,,,,,,,,,,,,,,,15,,64,0
8999,note_on,,0,0,16,,,,,,,,,,,,,,,,15,,49,0
8999,note_on,,0,0,16,,,,,,,,,,,,,,,,15,,52,0
8999,note_on,,359,0,10,,,,,,,,,,,,,,,,7,,64,0
9000,note_on,,0,0,16,,,,,,,,,,,,,,,,15,,59,72
9000,note_on,,1,0,15,,,,,,,,,,,,,,,,13,,51,72
9000,note_on,,1,0,7,,,,,,,,,,,,,,,,2,,51,72
9000,note_on,,1,0,6,,,,,,,,,,,,,,,,1,,71,72
9000,note_on,,1,0,8,,,,,,,,,,,,,,,,5,,71,88
9000,note_on,,1,0,9,,,,,,,,,,,,,,,,6,,63,78
9000,note_on,,0,0,16,,,,,,,,,,,,,,,,15,,54,72
9000,note_on,,1,0,5,,,,,,,,,,,,,,,,0,,71,72
9000,note_on,,1,0,16,,,,,,,,,,,,,,,,15,,51,72
9000,note_on,,0,0,16,,,,,,,,,,,,,,,,15,,71,72
9000,note_on,,0,0,16,,,,,,,,,,,,,,,,15,,63,72
9119,note_on,,0,0,16,,,,,,,,,,,,,,,,15,,59,0
9119,note_on,,119,0,7,,,,,,,,,,,,,,,,2,,51,0
9119,note_on,,119,0,15,,,,,,,,,,,,,,,,13,,51,0
9119,note_on,,119,0,16,,,,,,,,,,,,,,,,15,,51,0
9119,note_on,,0,0,16,,,,,,,,,,,,,,,,15,,63,0
9120,note_on,,0,0,16,,,,,,,,,,,,,,,,15,,63,72
9120,note_on,,0,0,16,,,,,,,,,,,,,,,,15,,66,72
9120,note_on,,1,0,16,,,,,,,,,,,,,,,,15,,47,72
9120,note_on,,1,0,7,,,,,,,,,,,,,,,,2,,47,72
9120,note_on,,1,0,15,,,,,,,,,,,,,,,,13,,47,72
9179,note_on,,179,0,8,,,,,,,,,,,,,,,,5,,71,0
9179,note_on,,179,0,5,,,,,,,,,,,,,,,,0,,71,0
9179,note_on,,179,0,6,,,,,,,,,,,,,,,,1,,71,0
9179,note_on,,179,0,9,,,,,,,,,,,,,,,,6,,63,0
9180,note_on,,1,0,9,,,,,,,,,,,,,,,,6,,66,78
9180,note_on,,1,0,5,,,,,,,,,,,,,,,,0,,69,72
9180,note_on,,1,0,6,,,,,,,,,,,,,,,,1,,69,72
9180,note_on,,1,0,8,,,,,,,,,,,,,,,,5,,69,88
9239,note_on,,0,0,16,,,,,,,,,,,,,,,,15,,47,0
9239,note_on,,119,0,7,,,,,,,,,,,,,,,,2,,47,0
9239,note_on,,59,0,6,,,,,,,,,,,,,,,,1,,69,0
9239,note_on,,59,0,8,,,,,,,,,,,,,,,,5,,69,0
9239,note_on,,59,0,9,,,,,,,,,,,,,,,,6,,66,0
9239,note_on,,119,0,16,,,,,,,,,,,,,,,,15,,54,0
9239,note_on,,119,0,15,,,,,,,,,,,,,,,,13,,47,0
9239,note_on,,59,0,5,,,,,,,,,,,,,,,,0,,69,0
9239,note_on,,0,0,16,,,,,,,,,,,,,,,,15,,66,0
9239,note_on,,0,0,16,,,,,,,,,,,,,,,,15,,63,0
9240,note_on,,0,0,16,,,,,,,,,,,,,,,,15,,64,72
9240,note_on,,1,0,9,,,,,,,,,,,,,,,,6,,64,78
9240,note_on,,1,0,8,,,,,,,,,,,,,,,,5,,68,88
9240,note_on,,1,0,6,,,,,,,,,,,,,,,,1,,68,72
9240,note_on,,1,0,15,,,,,,,,,,,,,,,,13,,52,72
9240,note_on,,0,0,16,,,,,,,,,,,,,,,,15,,68,72
9240,note_on,,1,0,5,,,,,,,,,,,,,,,,0,,68,72
9240,note_on,,1,0,7,,,,,,,,,,,,,,,,2,,52,72
9240,note_on,,1,0,16,,,,,,,,,,,,,,,,15,,52,72
9299,note_on,,59,0,9,,,,,,,,,,,,,,,,6,,64,0
9300,note_on,,1,0,9,,,,,,,,,,,,,,,,6,,63,78
9359,note_on,,119,0,5,,,,,,,,,,,,,,,,0,,68,0
9359,note_on,,119,0,6,,,,,,,,,,,,,,,,1,,68,0
9359,note_on,,119,0,8,,,,,,,,,,,,,,,,5,,68,0
9359,note_on,,119,0,7,,,,,,,,,,,,,,,,2,,52,0
9359,note_on,,119,0,16,,,,,,,,,,,,,,,,15,,71,0
9359,note_on,,0,0,16,,,,,,,,,,,,,,,,15,,52,0
9359,note_on,,59,0,9,,,,,,,,,,,,,,,,6,,63,0
9359,note_on,,0,0,16,,,,,,,,,,,,,,,,15,,64,0
9359,note_on,,0,0,16,,,,,,,,,,,,,,,,15,,68,0
9359,note_on,,119,0,15,,,,,,,,,,,,,,,,13,,52,0
9360,note_on,,0,0,16,,,,,,,,,,,,,,,,15,,69,72
9360,note_on,,0,0,16,,,,,,,,,,,,,,,,15,,64,72
9360,note_on,,0,0,16,,,,,,,,,,,,,,,,15,,52,72
9360,note_on,,1,0,7,,,,,,,,,,,,,,,,2,,45,72
9360,note_on,,1,0,5,,,,,,,,,,,,,,,,0,,73,72
9360,note_on,,1,0,15,,,,,,,,,,,,,,,,13,,45,72
9360,note_on,,1,0,9,,,,,,,,,,,,,,,,6,,61,78
9360,note_on,,1,0,6,,,,,,,,,,,,,,,,1,,73,72
9360,note_on,,1,0,8,,,,,,,,,,,,,,,,5,,73,88
9360,note_on,,1,0,16,,,,,,,,,,,,,,,,15,,45,72
9360,note_on,,0,0,16,,,,,,,,,,,,,,,,15,,73,72
9479,note_on,,119,0,6,,,,,,,,,,,,,,,,1,,73,0
9479,note_on,,119,0,8,,,,,,,,,,,,,,,,5,,73,0
9479,note_on,,0,0,16,,,,,,,,,,,,,,,,15,,52,0
9479,note_on,,0,0,16,,,,,,,,,,,,,,,,15,,64,0
9479,note_on,,119,0,16,,,,,,,,,,,,,,,,15,,45,0
9479,note_on,,119,0,5,,,,,,,,,,,,,,,,0,,73,0
9479,note_on,,119,0,7,,,,,,,,,,,,,,,,2,,45,0
9479,note_on,,119,0,9,,,,,,,,,,,,,,,,6,,61,0
9479,note_on,,119,0,15,,,,,,,,,,,,,,,,13,,45,0
9480,note_on,,1,0,15,,,,,,,,,,,,,,,,13,,42,72
9480,note_on,,1,0,9,,,,,,,,,,,,,,,,6,,69,78
9480,note_on,,1,0,8,,,,,,,,,,,,,,,,5,,73,88
9480,note_on,,0,0,16,,,,,,,,,,,,,,,,15,,54,72
9480,note_on,,1,0,6,,,,,,,,,,,,,,,,1,,73,72
9480,note_on,,1,0,16,,,,,,,,,,,,,,,,15,,42,72
9480,note_on,,1,0,7,,,,,,,,,,,,,,,,2,,42,72
9480,note_on,,1,0,5,,,,,,,,,,,,,,,,0,,73,72
9599,note_on,,119,0,8,,,,,,,,,,,,,,,,5,,73,0
9599,note_on,,119,0,16,,,,,,,,,,,,,,,,15,,73,0
9599,note_on,,119,0,6,,,,,,,,,,,,,,,,1,,73,0
9599,note_on,,0,0,16,,,,,,,,,,,,,,,,15,,42,0
9599,note_on,,119,0,7,,,,,,,,,,,,,,,,2,,42,0
9599,note_on,,119,0,5,,,,,,,,,,,,,,,,0,,73,0
9599,note_on,,0,0,16,,,,,,,,,,,,,,,,15,,69,0
9599,note_on,,0,0,16,,,,,,,,,,,,,,,,15,,54,0
9599,note_on,,119,0,15,,,,,,,,,,,,,,,,13,,42,0
9600,note_on,,1,0,15,,,,,,,,,,,,,,,,13,,47,72
9600,note_on,,0,0,16,,,,,,,,,,,,,,,,15,,63,72
9600,note_on,,0,0,16,,,,,,,,,,,,,,,,15,,66,72
9600,note_on,,1,0,6,,,,,,,,,,,,,,,,1,,75,72
9600,note_on,,0,0,16,,,,,,,,,,,,,,,,15,,71,72
9600,note_on,,0,0,16,,,,,,,,,,,,,,,,15,,54,72
9600,note_on,,1,0,8,,,,,,,,,,,,,,,,5,,75,88
9600,note_on,,1,0,16,,,,,,,,,,,,,,,,15,,47,72
9600,note_on,,1,0,5,,,,,,,,,,,,,,,,0,,75,72
9600,note_on,,1,0,7,,,,,,,,,,,,,,,,2,,47,72
9719,note_on,,119,0,15,,,,,,,,,,,,,,,,13,,47,0
9719,note_on,,119,0,7,,,,,,,,,,,,,,,,2,,47,0
9719,note_on,,119,0,6,,,,,,,,,,,,,,,,1,,75,0
9719,note_on,,119,0,8,,,,,,,,,,,,,,,,5,,75,0
9719,note_on,,119,0,5,,,,,,,,,,,,,,,,0,,75,0
9719,note_on,,239,0,9,,,,,,,,,,,,,,,,6,,69,0
9719,note_on,,0,0,16,,,,,,,,,,,,,,,,15,,71,0
9719,note_on,,119,0,16,,,,,,,,,,,,,,,,15,,47,0
9719,note_on,,0,0,16,,,,,,,,,,,,,,,,15,,66,0
9719,note_on,,0,0,16,,,,,,,,,,,,,,,,15,,63,0
9719,note_on,,0,0,16,,,,,,,,,,,,,,,,15,,54,0
9720,note_on,,1,0,15,,,,,,,,,,,,,,,,13,,40,72
9720,note_on,,1,0,16,,,,,,,,,,,,,,,,15,,40,72
9720,note_on,,0,0,16,,,,,,,,,,,,,,,,15,,71,72
9720,note_on,,1,0,7,,,,,,,,,,,,,,,,2,,40,72
9720,note_on,,1,0,6,,,,,,,,,,,,,,,,1,,76,72
9720,note_on,,0,0,16,,,,,,,,,,,,,,,,15,,64,72
9720,note_on,,0,0,16,,,,,,,,,,,,,,,,15,,68,72
9720,note_on,,0,0,16,,,,,,,,,,,,,,,,15,,52,72
9720,note_on,,1,0,8,,,,,,,,,,,,,,,,5,,76,88
9720,note_on,,1,0,5,,,,,,,,,,,,,,,,0,,76,72
9720,note_on,,1,0,9,,,,,,,,,,,,,,,,6,,68,78
9839,note_on,,119,0,7,,,,,,,,,,,,,,,,2,,40,0
9839,note_on,,119,0,16,,,,,,,,,,,,,,,,15,,40,0
9839,note_on,,0,0,16,,,,,,,,,,,,,,,,15,,52,0
9839,note_on,,119,0,15,,,,,,,,,,,,,,,,13,,40,0
9840,note_on,,1,0,16,,,,,,,,,,,,,,,,15,,52,72
9840,note_on,,1,0,7,,,,,,,,,,,,,,,,2,,52,72
9840,note_on,,1,0,15,,,,,,,,,,,,,,,,13,,52,72
9899,note_on,,179,0,9,,,,,,,,,,,,,,,,6,,68,0
9900,note_on,,1,0,9,,,,,,,,,,,,,,,,6,,71,78
9959,note_on,,119,0,7,,,,,,,,,,,,,,,,2,,52,0
9959,note_on,,59,0,9,,,,,,,,,,,,,,,,6,,71,0
9959,note_on,,119,0,16,,,,,,,,,,,,,,,,15,,52,0
9959,note_on,,119,0,15,,,,,,,,,,,,,,,,13,,52,0
9960,note_on,,1,0,7,,,,,,,,,,,,,,,,2,,56,72
9960,note_on,,961,0,10,,,,,,,,,,,,,,,,7,,64,78
9960,note_on,,1,0,16,,,,,,,,,,,,,,,,15,,56,72
9960,note_on,,1,0,9,,,,,,,,,,,,,,,,6,,69,78
9960,note_on,,1,0,15,,,,,,,,,,,,,,,,13,,56,72
10019,note_on,,59,0,9,,,,,,,,,,,,,,,,6,,69,0
10020,note_on,,1,0,9,,,,,,,,,,,,,,,,6,,68,78
10079,note_on,,119,0,16,,,,,,,,,,,,,,,,15,,71,0
10079,note_on,,0,0,16,,,,,,,,,,,,,,,,15,,68,0
10079,note_on,,0,0,16,,,,,,,,,,,,,,,,15,,64,0
10079,note_on,,59,0,9,,,,,,,,,,,,,,,,6,,68,0
10079,note_on,,359,0,8,,,,,,,,,,,,,,,,5,,76,0
10079,note_on,,119,0,7,,,,,,,,,,,,,,,,2,,56,0
10079,note_on,,0,0,16,,,,,,,,,,,,,,,,15,,56,0
10079,note_on,,119,0,10,,,,,,,,,,,,,,,,7,,64,0
10079,note_on,,359,0,6,,,,,,,,,,,,,,,,1,,76,0
10079,note_on,,359,0,5,,,,,,,,,,,,,,,,0,,76,0
10079,note_on,,119,0,15,,,,,,,,,,,,,,,,13,,56,0
10080,note_on,,1,0,10,,,,,,,,,,,,,,,,7,,63,78
10080,note_on,,0,0,16,,,,,,,,,,,,,,,,15,,63,72
10080,note_on,,0,0,16,,,,,,,,,,,,,,,,15,,66,72
10080,note_on,,1,0,16,,,,,,,,,,,,,,,,15,,59,72
10080,note_on,,1,0,15,,,,,,,,,,,,,,,,13,,59,72
10080,note_on,,1,0,7,,,,,,,,,,,,,,,,2,,59,72
10080,note_on,,1,0,9,,,,,,,,,,,,,,,,6,,66,78
10199,note_on,,119,0,9,,,,,,,,,,,,,,,,6,,66,0
10200,note_on,,1,0,9,,,,,,,,,,,,,,,,6,,71,78
10259,note_on,,179,0,10,,,,,,,,,,,,,,,,7,,63,0
10260,note_on,,1,0,10,,,,,,,,,,,,,,,,7,,66,78
10319,note_on,,0,0,16,,,,,,,,,,,,,,,,15,,63,0
10319,note_on,,239,0,16,,,,,,,,,,,,,,,,15,,59,0
10319,note_on,,239,0,7,,,,,,,,,,,,,,,,2,,59,0
10319,note_on,,239,0,15,,,,,,,,,,,,,,,,13,,59,0
10319,note_on,,0,0,16,,,,,,,,,,,,,,,,15,,66,0
10319,note_on,,59,0,10,,,,,,,,,,,,,,,,7,,66,0
10320,note_on,,0,0,16,,,,,,,,,,,,,,,,15,,64,72
10320,note_on,,1,0,15,,,,,,,,,,,,,,,,13,,56,72
10320,note_on,,0,0,16,,,,,,,,,,,,,,,,15,,59,72
10320,note_on,,1,0,7,,,,,,,,,,,,,,,,2,,56,72
10320,note_on,,1,0,16,,,,,,,,,,,,,,,,15,,56,72
10320,note_on,,1,0,10,,,,,,,,,,,,,,,,7,,64,78
10320,note_on,,0,0,16,,,,,,,,,,,,,,,,15,,71,72
10379,note_on,,59,0,10,,,,,,,,,,,,,,,,7,,64,0
10380,note_on,,1,0,10,,,,,,,,,,,,,,,,7,,63,78
10439,note_on,,119,0,7,,,,,,,,,,,,,,,,2,,56,0
10439,note_on,,119,0,16,,,,,,,,,,,,,,,,15,,56,0
10439,note_on,,0,0,16,,,,,,,,,,,,,,,,15,,59,0
10439,note_on,,59,0,10,,,,,,,,,,,,,,,,7,,63,0
10439,note_on,,119,0,15,,,,,,,,,,,,,,,,13,,56,0
10440,note_on,,1,0,16,,,,,,,,,,,,,,,,15,,52,72
10440,note_on,,0,0,16,,,,,,,,,,,,,,,,15,,56,72
10440,note_on,,1,0,10,,,,,,,,,,,,,,,,7,,61,78
10440,note_on,,1,0,15,,,,,,,,,,,,,,,,13,,52,72
10440,note_on,,1,0,7,,,,,,,,,,,,,,,,2,,52,72
10559,note_on,,119,0,7,,,,,,,,,,,,,,,,2,,52,0
10559,note_on,,119,0,15,,,,,,,,,,,,,,,,13,,52,0
10559,note_on,,119,0,16,,,,,,,,,,,,,,,,15,,71,0
10559,note_on,,0,0,16,,,,,,,,,,,,,,,,15,,64,0
10559,note_on,,0,0,16,,,,,,,,,,,,,,,,15,,52,0
10559,note_on,,0,0,16,,,,,,,,,,,,,,,,15,,56,0
10559,note_on,,359,0,9,,,,,,,,,,,,,,,,6,,71,0
10560,note_on,,1,0,9,,,,,,,,,,,,,,,,6,,69,78
10560,note_on,,1,0,7,,,,,,,,,,,,,,,,2,,54,72
10560,note_on,,0,0,16,,,,,,,,,,,,,,,,15,,57,72
10560,note_on,,0,0,16,,,,,,,,,,,,,,,,15,,61,72
10560,note_on,,1,0,15,,,,,,,,,,,,,,,,13,,54,72
10560,note_on,,0,0,16,,,,,,,,,,,,,,,,15,,69,72
10560,note_on,,1,0,16,,,,,,,,,,,,,,,,15,,54,72
10619,note_on,,179,0,10,,,,,,,,,,,,,,,,7,,61,0
10620,note_on,,1,0,10,,,,,,,,,,,,,,,,7,,64,78
10679,note_on,,119,0,7,,,,,,,,,,,,,,,,2,,54,0
10679,note_on,,119,0,16,,,,,,,,,,,,,,,,15,,54,0
10679,note_on,,59,0,10,,,,,,,,,,,,,,,,7,,64,0
10679,note_on,,119,0,15,,,,,,,,,,,,,,,,13,,54,0
10680,note_on,,1,0,15,,,,,,,,,,,,,,,,13,,52,72
10680,note_on,,1,0,7,,,,,,,,,,,,,,,,2,,52,72
10680,note_on,,1,0,10,,,,,,,,,,,,,,,,7,,63,78
10680,note_on,,1,0,16,,,,,,,,,,,,,,,,15,,52,72
10739,note_on,,59,0,10,,,,,,,,,,,,,,,,7,,63,0
10740,note_on,,1,0,10,,,,,,,,,,,,,,,,7,,61,78
10799,note_on,,0,0,16,,,,,,,,,,,,,,,,15,,52,0
10799,note_on,,119,0,16,,,,,,,,,,,,,,,,15,,61,0
10799,note_on,,59,0,10,,,,,,,,,,,,,,,,7,,61,0
10799,note_on,,119,0,7,,,,,,,,,,,,,,,,2,,52,0
10799,note_on,,119,0,15,,,,,,,,,,,,,,,,13,,52,0
10799,note_on,,0,0,16,,,,,,,,,,,,,,,,15,,57,0
10800,note_on,,1,0,16,,,,,,,,,,,,,,,,15,,51,72
10800,note_on,,0,0,16,,,,,,,,,,,,,,,,15,,66,72
10800,note_on,,0,0,16,,,,,,,,,,,,,,,,15,,59,72
10800,note_on,,1,0,15,,,,,,,,,,,,,,,,13,,51,72
10800,note_on,,1,0,7,,,,,,,,,,,,,,,,2,,51,72
10800,note_on,,1,0,10,,,,,,,,,,,,,,,,7,,59,78
10800,note_on,,0,0,16,,,,,,,,,,,,,,,,15,,54,72
10919,note_on,,119,0,10,,,,,,,,,,,,,,,,7,,59,0
10919,note_on,,119,0,7,,,,,,,,,,,,,,,,2,,51,0
10919,note_on,,0,0,16,,,,,,,,,,,,,,,,15,,54,0
10919,note_on,,0,0,16,,,,,,,,,,,,,,,,15,,59,0
10919,note_on,,359,0,9,,,,,,,,,,,,,,,,6,,69,0
10919,note_on,,0,0,16,,,,,,,,,,,,,,,,15,,51,0
10919,note_on,,119,0,16,,,,,,,,,,,,,,,,15,,69,0
10919,note_on,,0,0,16,,,,,,,,,,,,,,,,15,,66,0
10919,note_on,,119,0,15,,,,,,,,,,,,,,,,13,,51,0
10920,note_on,,0,0,16,,,,,,,,,,,,,,,,15,,56,72
10920,note_on,,0,0,16,,,,,,,,,,,,,,,,15,,59,72
10920,note_on,,0,0,16,,,,,,,,,,,,,,,,15,,64,72
10920,note_on,,0,0,16,,,,,,,,,,,,,,,,15,,68,72
10920,note_on,,1,0,16,,,,,,,,,,,,,,,,15,,52,72
10920,note_on,,1,0,10,,,,,,,,,,,,,,,,7,,59,78
10920,note_on,,1,0,7,,,,,,,,,,,,,,,,2,,52,72
10920,note_on,,1,0,9,,,,,,,,,,,,,,,,6,,68,78
10920,note_on,,1,0,15,,,,,,,,,,,,,,,,13,,52,72
11039,note_on,,0,0,16,,,,,,,,,,,,,,,,15,,59,0
11039,note_on,,119,0,10,,,,,,,,,,,,,,,,7,,59,0
11039,note_on,,119,0,16,,,,,,,,,,,,,,,,15,,52,0
11039,note_on,,0,0,16,,,,,,,,,,,,,,,,15,,64,0
11039,note_on,,119,0,15,,,,,,,,,,,,,,,,13,,52,0
11039,note_on,,119,0,7,,,,,,,,,,,,,,,,2,,52,0
11040,note_on,,1,0,15,,,,,,,,,,,,,,,,13,,47,72
11040,note_on,,961,0,8,,,,,,,,,,,,,,,,5,,71,88
11040,note_on,,1,0,16,,,,,,,,,,,,,,,,15,,47,72
11040,note_on,,961,0,5,,,,,,,,,,,,,,,,0,,71,72
11040,note_on,,961,0,6,,,,,,,,,,,,,,,,1,,71,72
11040,note_on,,0,0,16,,,,,,,,,,,,,,,,15,,59,72
11040,note_on,,1,0,7,,,,,,,,,,,,,,,,2,,47,72
11040,note_on,,0,0,16,,,,,,,,,,,,,,,,15,,63,72
11159,note_on,,0,0,16,,,,,,,,,,,,,,,,15,,59,0
11159,note_on,,0,0,16,,,,,,,,,,,,,,,,15,,63,0
11159,note_on,,119,0,16,,,,,,,,,,,,,,,,15,,56,0
11159,note_on,,119,0,7,,,,,,,,,,,,,,,,2,,47,0
11159,note_on,,119,0,15,,,,,,,,,,,,,,,,13,,47,0
11159,note_on,,119,0,5,,,,,,,,,,,,,,,,0,,71,0
11159,note_on,,0,0,16,,,,,,,,,,,,,,,,15,,47,0
11159,note_on,,119,0,6,,,,,,,,,,,,,,,,1,,71,0
11159,note_on,,119,0,8,,,,,,,,,,,,,,,,5,,71,0
11160,note_on,,1,0,16,,,,,,,,,,,,,,,,15,,49,72
11160,note_on,,0,0,16,,,,,,,,,,,,,,,,15,,64,72
11160,note_on,,0,0,16,,,,,,,,,,,,,,,,15,,57,72
11160,note_on,,1,0,8,,,,,,,,,,,,,,,,5,,69,88
11160,note_on,,0,0,16,,,,,,,,,,,,,,,,15,,52,72
11160,note_on,,1,0,5,,,,,,,,,,,,,,,,0,,69,72
11160,note_on,,1,0,15,,,,,,,,,,,,,,,,13,,49,72
11160,note_on,,1,0,6,,,,,,,,,,,,,,,,1,,69,72
11160,note_on,,1,0,7,,,,,,,,,,,,,,,,2,,49,72
11279,note_on,,119,0,15,,,,,,,,,,,,,,,,13,,49,0
11279,note_on,,0,0,16,,,,,,,,,,,,,,,,15,,57,0
11279,note_on,,0,0,16,,,,,,,,,,,,,,,,15,,49,0
11279,note_on,,0,0,16,,,,,,,,,,,,,,,,15,,52,0
11279,note_on,,119,0,16,,,,,,,,,,,,,,,,15,,68,0
11279,note_on,,359,0,9,,,,,,,,,,,,,,,,6,,68,0
11279,note_on,,119,0,7,,,,,,,,,,,,,,,,2,,49,0
11279,note_on,,0,0,16,,,,,,,,,,,,,,,,15,,64,0
11280,note_on,,1,0,16,,,,,,,,,,,,,,,,15,,51,72
11280,note_on,,0,0,16,,,,,,,,,,,,,,,,15,,66,72
11280,note_on,,0,0,16,,,,,,,,,,,,,,,,15,,59,72
11280,note_on,,0,0,16,,,,,,,,,,,,,,,,15,,54,72
11280,note_on,,1,0,7,,,,,,,,,,,,,,,,2,,51,72
11280,note_on,,1,0,15,,,,,,,,,,,,,,,,13,,51,72
11280,note_on,,1,0,9,,,,,,,,,,,,,,,,6,,66,78
11339,note_on,,179,0,6,,,,,,,,,,,,,,,,1,,69,0
11339,note_on,,179,0,8,,,,,,,,,,,,,,,,5,,69,0
11339,note_on,,179,0,5,,,,,,,,,,,,,,,,0,,69,0
11340,note_on,,1,0,5,,,,,,,,,,,,,,,,0,,73,72
11340,note_on,,1,0,6,,,,,,,,,,,,,,,,1,,73,72
11340,note_on,,1,0,8,,,,,,,,,,,,,,,,5,,73,88
11399,note_on,,59,0,5,,,,,,,,,,,,,,,,0,,73,0
11399,note_on,,59,0,8,,,,,,,,,,,,,,,,5,,73,0
11399,note_on,,59,0,6,,,,,,,,,,,,,,,,1,,73,0
11400,note_on,,1,0,5,,,,,,,,,,,,,,,,0,,71,72
11400,note_on,,1,0,8,,,,,,,,,,,,,,,,5,,71,88
11400,note_on,,1,0,6,,,,,,,,,,,,,,,,1,,71,72
11459,note_on,,59,0,8,,,,,,,,,,,,,,,,5,,71,0
11459,note_on,,59,0,6,,,,,,,,,,,,,,,,1,,71,0
11459,note_on,,59,0,5,,,,,,,,,,,,,,,,0,,71,0
11460,note_on,,1,0,5,,,,,,,,,,,,,,,,0,,69,72
11460,note_on,,1,0,6,,,,,,,,,,,,,,,,1,,69,72
11460,note_on,,1,0,8,,,,,,,,,,,,,,,,5,,69,88
11519,note_on,,59,0,5,,,,,,,,,,,,,,,,0,,69,0
11519,note_on,,239,0,7,,,,,,,,,,,,,,,,2,,51,0
11519,note_on,,239,0,9,,,,,,,,,,,,,,,,6,,66,0
11519,note_on,,0,0,16,,,,,,,,,,,,,,,,15,,54,0
11519,note_on,,0,0,16,,,,,,,,,,,,,,,,15,,66,0
11519,note_on,,0,0,16,,,,,,,,,,,,,,,,15,,59,0
11519,note_on,,239,0,16,,,,,,,,,,,,,,,,15,,51,0
11519,note_on,,59,0,8,,,,,,,,,,,,,,,,5,,69,0
11519,note_on,,239,0,15,,,,,,,,,,,,,,,,13,,51,0
11519,note_on,,59,0,6,,,,,,,,,,,,,,,,1,,69,0
11520,note_on,,0,0,16,,,,,,,,,,,,,,,,15,,64,72
11520,note_on,,1,0,16,,,,,,,,,,,,,,,,15,,52,72
11520,note_on,,0,0,16,,,,,,,,,,,,,,,,15,,59,72
11520,note_on,,1,0,5,,,,,,,,,,,,,,,,0,,68,72
11520,note_on,,1,0,6,,,,,,,,,,,,,,,,1,,68,72
11520,note_on,,1,0,15,,,,,,,,,,,,,,,,13,,52,72
11520,note_on,,1,0,9,,,,,,,,,,,,,,,,6,,59,78
11520,note_on,,1,0,7,,,,,,,,,,,,,,,,2,,52,72
11520,note_on,,0,0,16,,,,,,,,,,,,,,,,15,,56,72
11520,note_on,,1,0,8,,,,,,,,,,,,,,,,5,,68,88
11639,note_on,,119,0,16,,,,,,,,,,,,,,,,15,,52,0
11639,note_on,,0,0,16,,,,,,,,,,,,,,,,15,,64,0
11639,note_on,,0,0,16,,,,,,,,,,,,,,,,15,,59,0
11639,note_on,,0,0,16,,,,,,,,,,,,,,,,15,,56,0
11639,note_on,,119,0,6,,,,,,,,,,,,,,,,1,,68,0
11639,note_on,,119,0,8,,,,,,,,,,,,,,,,5,,68,0
11639,note_on,,119,0,15,,,,,,,,,,,,,,,,13,,52,0
11639,note_on,,119,0,9,,,,,,,,,,,,,,,,6,,59,0
11639,note_on,,119,0,7,,,,,,,,,,,,,,,,2,,52,0
11639,note_on,,119,0,5,,,,,,,,,,,,,,,,0,,68,0
11640,note_on,,0,0,16,,,,,,,,,,,,,,,,15,,71,72
11640,note_on,,2761,0,11,,,,,,,,,,,,,,,,8,,56,88
11640,note_on,,1,0,5,,,,,,,,,,,,,,,,0,,71,72
11640,note_on,,1,0,9,,,,,,,,,,,,,,,,6,,59,88
11640,note_on,,1,0,15,,,,,,,,,,,,,,,,13,,56,72
11640,note_on,,5761,0,14,,,,,,,,,,,,,,,,12,,64,72
11640,note_on,,5641,0,12,,,,,,,,,,,,,,,,10,,83,72
11640,note_on,,1,0,16,,,,,,,,,,,,,,,,15,,56,72
11640,note_on,,1,0,6,,,,,,,,,,,,,,,,1,,71,72
11640,note_on,,1,0,8,,,,,,,,,,,,,,,,5,,71,88
11640,note_on,,0,0,16,,,,,,,,,,,,,,,,15,,59,72
11640,note_on,,601,0,10,,,,,,,,,,,,,,,,7,,64,88
11640,note_on,,0,0,16,,,,,,,,,,,,,,,,15,,64,72
11640,note_on,,1,0,7,,,,,,,,,,,,,,,,2,,56,72
11640,note_on,,5641,0,13,,,,,,,,,,,,,,,,11,,71,72
11759,note_on,,0,0,16,,,,,,,,,,,,,,,,15,,64,0
11759,note_on,,119,0,6,,,,,,,,,,,,,,,,1,,71,0
11759,note_on,,0,0,16,,,,,,,,,,,,,,,,15,,71,0
11759,note_on,,119,0,12,,,,,,,,,,,,,,,,10,,83,0
11759,note_on,,119,0,8,,,,,,,,,,,,,,,,5,,71,0
11759,note_on,,119,0,15,,,,,,,,,,,,,,,,13,,56,0
11759,note_on,,119,0,9,,,,,,,,,,,,,,,,6,,59,0
11759,note_on,,119,0,5,,,,,,,,,,,,,,,,0,,71,0
11759,note_on,,0,0,16,,,,,,,,,,,,,,,,15,,59,0
11759,note_on,,119,0,7,,,,,,,,,,,,,,,,2,,56,0
11759,note_on,,119,0,16,,,,,,,,,,,,,,,,15,,56,0
11759,note_on,,119,0,11,,,,,,,,,,,,,,,,8,,56,0
11759,note_on,,119,0,13,,,,,,,,,,,,,,,,11,,71,0
11759,note_on,,119,0,14,,,,,,,,,,,,,,,,12,,64,0
11759,note_on,,119,0,10,,,,,,,,,,,,,,,,7,,64,0
11760,note_on,,1,0,7,,,,,,,,,,,,,,,,2,,52,72
11760,note_on,,0,0,16,,,,,,,,,,,,,,,,15,,71,72
11760,note_on,,0,0,16,,,,,,,,,,,,,,,,15,,68,72
11760,note_on,,0,0,16,,,,,,,,,,,,,,,,15,,64,72
11760,note_on,,1,0,8,,,,,,,,,,,,,,,,5,,76,88
11760,note_on,,0,0,16,,,,,,,,,,,,,,,,15,,59,72
11760,note_on,,1,0,10,,,,,,,,,,,,,,,,7,,68,88
11760,note_on,,0,0,16,,,,,,,,,,,,,,,,15,,76,72
11760,note_on,,1,0,12,,,,,,,,,,,,,,,,10,,80,72
11760,note_on,,1,0,6,,,,,,,,,,,,,,,,1,,76,72
11760,note_on,,1,0,16,,,,,,,,,,,,,,,,15,,52,72
11760,note_on,,1,0,5,,,,,,,,,,,,,,,,0,,76,72
11760,note_on,,1,0,14,,,,,,,,,,,,,,,,12,,71,72
11760,note_on,,1,0,11,,,,,,,,,,,,,,,,8,,52,88
11760,note_on,,1,0,15,,,,,,,,,,,,,,,,13,,52,72
11760,note_on,,1,0,9,,,,,,,,,,,,,,,,6,,59,88
11760,note_on,,1,0,13,,,,,,,,,,,,,,,,11,,76,72
11879,note_on,,119,0,5,,,,,,,,,,,,,,,,0,,76,0
11879,note_on,,119,0,8,,,,,,,,,,,,,,,,5,,76,0
11879,note_on,,119,0,9,,,,,,,,,,,,,,,,6,,59,0
11879,note_on,,119,0,16,,,,,,,,,,,,,,,,15,,52,0
11879,note_on,,0,0,16,,,,,,,,,,,,,,,,15,,76,0
11879,note_on,,0,0,16,,,,,,,,,,,,,,,,15,,71,0
11879,note_on,,119,0,14,,,,,,,,,,,,,,,,12,,71,0
11879,note_on,,0,0,16,,,,,,,,,,,,,,,,15,,59,0
11879,note_on,,119,0,11,,,,,,,,,,,,,,,,8,,52,0
11879,note_on,,119,0,10,,,,,,,,,,,,,,,,7,,68,0
11879,note_on,,119,0,15,,,,,,,,,,,,,,,,13,,52,0
11879,note_on,,119,0,7,,,,,,,,,,,,,,,,2,,52,0
11879,note_on,,119,0,6,,,,,,,,,,,,,,,,1,,76,0
11879,note_on,,119,0,13,,,,,,,,,,,,,,,,11,,76,0
11879,note_on,,119,0,12,,,,,,,,,,,,,,,,10,,80,0
11879,note_on,,0,0,16,,,,,,,,,,,,,,,,15,,68,0
11879,note_on,,0,0,16,,,,,,,,,,,,,,,,15,,64,0
11880,note_on,,1,0,10,,,,,,,,,,,,,,,,7,,66,88
11880,note_on,,1,0,16,,,,,,,,,,,,,,,,15,,59,72
11880,note_on,,0,0,16,,,,,,,,,,,,,,,,15,,71,72
11880,note_on,,0,0,16,,,,,,,,,,,,,,,,15,,66,72
11880,note_on,,1,0,6,,,,,,,,,,,,,,,,1,,75,72
11880,note_on,,1,0,12,,,,,,,,,,,,,,,,10,,78,72
11880,note_on,,1,0,14,,,,,,,,,,,,,,,,12,,71,72
11880,note_on,,1,0,15,,,,,,,,,,,,,,,,13,,59,72
11880,note_on,,1,0,9,,,,,,,,,,,,,,,,6,,71,88
11880,note_on,,1,0,5,,,,,,,,,,,,,,,,0,,75,72
11880,note_on,,0,0,16,,,,,,,,,,,,,,,,15,,75,72
11880,note_on,,1,0,11,,,,,,,,,,,,,,,,8,,59,88
11880,note_on,,1,0,13,,,,,,,,,,,,,,,,11,,75,72
11880,note_on,,1,0,7,,,,,,,,,,,,,,,,2,,59,72
11880,note_on,,1,0,8,,,,,,,,,,,,,,,,5,,75,88
12059,note_on,,179,0,6,,,,,,,,,,,,,,,,1,,75,0
12059,note_on,,179,0,12,,,,,,,,,,,,,,,,10,,78,0
12059,note_on,,179,0,5,,,,,,,,,,,,,,,,0,,75,0
12059,note_on,,179,0,7,,,,,,,,,,,,,,,,2,,59,0
12059,note_on,,179,0,10,,,,,,,,,,,,,,,,7,,66,0
12059,note_on,,179,0,8,,,,,,,,,,,,,,,,5,,75,0
12059,note_on,,179,0,13,,,,,,,,,,,,,,,,11,,75,0
12059,note_on,,179,0,9,,,,,,,,,,,,,,,,6,,71,0
12059,note_on,,179,0,15,,,,,,,,,,,,,,,,13,,59,0
12059,note_on,,179,0,11,,,,,,,,,,,,,,,,8,,59,0
12059,note_on,,179,0,14,,,,,,,,,,,,,,,,12,,71,0
12060,note_on,,1,0,10,,,,,,,,,,,,,,,,7,,66,88
12060,note_on,,1,0,12,,,,,,,,,,,,,,,,10,,78,72
12060,note_on,,1,0,8,,,,,,,,,,,,,,,,5,,75,88
12060,note_on,,1,0,9,,,,,,,,,,,,,,,,6,,71,88
12060,note_on,,1,0,11,,,,,,,,,,,,,,,,8,,57,88
12060,note_on,,1,0,6,,,,,,,,,,,,,,,,1,,75,72
12060,note_on,,1,0,5,,,,,,,,,,,,,,,,0,,75,72
12060,note_on,,1,0,7,,,,,,,,,,,,,,,,2,,57,72
12060,note_on,,1,0,13,,,,,,,,,,,,,,,,11,,75,72
12060,note_on,,1,0,15,,,,,,,,,,,,,,,,13,,57,72
12060,note_on,,1,0,14,,,,,,,,,,,,,,,,12,,71,72
12119,note_on,,59,0,12,,,,,,,,,,,,,,,,10,,78,0
12119,note_on,,59,0,6,,,,,,,,,,,,,,,,1,,75,0
12119,note_on,,59,0,10,,,,,,,,,,,,,,,,7,,66,0
12119,note_on,,59,0,15,,,,,,,,,,,,,,,,13,,57,0
12119,note_on,,59,0,9,,,,,,,,,,,,,,,,6,,71,0
12119,note_on,,59,0,7,,,,,,,,,,,,,,,,2,,57,0
12119,note_on,,59,0,14,,,,,,,,,,,,,,,,12,,71,0
12119,note_on,,59,0,13,,,,,,,,,,,,,,,,11,,75,0
12119,note_on,,59,0,5,,,,,,,,,,,,,,,,0,,75,0
12119,note_on,,59,0,8,,,,,,,,,,,,,,,,5,,75,0
12119,note_on,,0,0,16,,,,,,,,,,,,,,,,15,,66,0
12119,note_on,,59,0,11,,,,,,,,,,,,,,,,8,,57,0
12119,note_on,,0,0,16,,,,,,,,,,,,,,,,15,,71,0
12119,note_on,,239,0,16,,,,,,,,,,,,,,,,15,,59,0
12119,note_on,,0,0,16,,,,,,,,,,,,,,,,15,,75,0
12120,note_on,,1,0,6,,,,,,,,,,,,,,,,1,,76,72
12120,note_on,,1,0,5,,,,,,,,,,,,,,,,0,,76,72
12120,note_on,,1,0,8,,,,,,,,,,,,,,,,5,,76,88
12120,note_on,,1,0,10,,,,,,,,,,,,,,,,7,,64,88
12120,note_on,,1,0,15,,,,,,,,,,,,,,,,13,,56,72
12120,note_on,,1,0,12,,,,,,,,,,,,,,,,10,,83,72
12120,note_on,,1,0,9,,,,,,,,,,,,,,,,6,,71,88
12120,note_on,,1,0,7,,,,,,,,,,,,,,,,2,,56,72
12120,note_on,,1,0,16,,,,,,,,,,,,,,,,15,,56,72
12120,note_on,,1,0,13,,,,,,,,,,,,,,,,11,,76,72
12120,note_on,,0,0,16,,,,,,,,,,,,,,,,15,,59,72
12120,note_on,,0,0,16,,,,,,,,,,,,,,,,15,,76,72
12120,note_on,,0,0,16,,,,,,,,,,,,,,,,15,,71,72
12120,note_on,,1,0,11,,,,,,,,,,,,,,,,8,,56,88
12120,note_on,,0,0,16,,,,,,,,,,,,,,,,15,,64,72
12120,note_on,,1,0,14,,,,,,,,,,,,,,,,12,,71,72
12239,note_on,,119,0,6,,,,,,,,,,,,,,,,1,,76,0
12239,note_on,,119,0,5,,,,,,,,,,,,,,,,0,,76,0
12239,note_on,,119,0,16,,,,,,,,,,,,,,,,15,,56,0
12239,note_on,,119,0,8,,,,,,,,,,,,,,,,5,,76,0
12239,note_on,,0,0,16,,,,,,,,,,,,,,,,15,,59,0
12239,note_on,,119,0,14,,,,,,,,,,,,,,,,12,,71,0
12239,note_on,,119,0,10,,,,,,,,,,,,,,,,7,,64,0
12239,note_on,,0,0,16,,,,,,,,,,,,,,,,15,,71,0
12239,note_on,,119,0,12,,,,,,,,,,,,,,,,10,,83,0
12239,note_on,,0,0,16,,,,,,,,,,,,,,,,15,,64,0
12239,note_on,,119,0,9,,,,,,,,,,,,,,,,6,,71,0
12239,note_on,,119,0,11,,,,,,,,,,,,,,,,8,,56,0
12239,note_on,,119,0,13,,,,,,,,,,,,,,,,11,,76,0
12239,note_on,,119,0,7,,,,,,,,,,,,,,,,2,,56,0
12239,note_on,,119,0,15,,,,,,,,,,,,,,,,13,,56,0
12239,note_on,,0,0,16,,,,,,,,,,,,,,,,15,,76,0
12240,note_on,,1,0,7,,,,,,,,,,,,,,,,2,,61,72
12240,note_on,,1,0,12,,,,,,,,,,,,,,,,10,,81,72
12240,note_on,,1,0,10,,,,,,,,,,,,,,,,7,,64,88
12240,note_on,,1,0,15,,,,,,,,,,,,,,,,13,,61,72
12240,note_on,,1,0,6,,,,,,,,,,,,,,,,1,,73,72
12240,note_on,,1,0,8,,,,,,,,,,,,,,,,5,,73,88
12240,note_on,,1,0,5,,,,,,,,,,,,,,,,0,,73,72
12240,note_on,,1,0,9,,,,,,,,,,,,,,,,6,,69,88
12240,note_on,,1,0,14,,,,,,,,,,,,,,,,12,,73,72
12240,note_on,,1,0,13,,,,,,,,,,,,,,,,11,,76,72
12240,note_on,,0,0,16,,,,,,,,,,,,,,,,15,,64,72
12240,note_on,,0,0,16,,,,,,,,,,,,,,,,15,,69,72
12240,note_on,,1,0,16,,,,,,,,,,,,,,,,15,,61,72
12240,note_on,,1,0,11,,,,,,,,,,,,,,,,8,,61,88
12240,note_on,,0,0,16,,,,,,,,,,,,,,,,15,,73,72
12359,note_on,,119,0,13,,,,,,,,,,,,,,,,11,,76,0
12359,note_on,,119,0,7,,,,,,,,,,,,,,,,2,,61,0
12359,note_on,,119,0,15,,,,,,,,,,,,,,,,13,,61,0
12359,note_on,,119,0,9,,,,,,,,,,,,,,,,6,,69,0
12359,note_on,,119,0,5,,,,,,,,,,,,,,,,0,,73,0
12359,note_on,,119,0,12,,,,,,,,,,,,,,,,10,,81,0
12359,note_on,,119,0,14,,,,,,,,,,,,,,,,12,,73,0
12359,note_on,,119,0,10,,,,,,,,,,,,,,,,7,,64,0
12359,note_on,,119,0,6,,,,,,,,,,,,,,,,1,,73,0
12359,note_on,,119,0,11,,,,,,,,,,,,,,,,8,,61,0
12359,note_on,,119,0,8,,,,,,,,,,,,,,,,5,,73,0
12360,note_on,,1,0,8,,,,,,,,,,,,,,,,5,,73,88
12360,note_on,,1,0,5,,,,,,,,,,,,,,,,0,,73,72
12360,note_on,,1,0,15,,,,,,,,,,,,,,,,13,,49,72
12360,note_on,,1,0,12,,,,,,,,,,,,,,,,10,,81,72
12360,note_on,,120,0,16,,,,,,,,,,,,,,,,15,,49,72
12360,note_on,,1,0,7,,,,,,,,,,,,,,,,2,,49,72
12360,note_on,,1,0,10,,,,,,,,,,,,,,,,7,,64,88
12360,note_on,,1,0,6,,,,,,,,,,,,,,,,1,,73,72
12360,note_on,,1,0,14,,,,,,,,,,,,,,,,12,,73,72
12360,note_on,,1,0,9,,,,,,,,,,,,,,,,6,,69,88
12360,note_on,,1,0,11,,,,,,,,,,,,,,,,8,,61,88
12360,note_on,,1,0,13,,,,,,,,,,,,,,,,11,,76,72
12479,note_on,,0,0,16,,,,,,,,,,,,,,,,15,,73,0
12479,note_on,,119,0,9,,,,,,,,,,,,,,,,6,,69,0
12479,note_on,,119,0,13,,,,,,,,,,,,,,,,11,,76,0
12479,note_on,,119,0,15,,,,,,,,,,,,,,,,13,,49,0
12479,note_on,,0,0,16,,,,,,,,,,,,,,,,15,,49,0
12479,note_on,,119,0,8,,,,,,,,,,,,,,,,5,,73,0
12479,note_on,,0,0,16,,,,,,,,,,,,,,,,15,,64,0
12479,note_on,,0,0,16,,,,,,,,,,,,,,,,15,,69,0
12479,note_on,,119,0,16,,,,,,,,,,,,,,,,15,,61,0
12479,note_on,,119,0,14,,,,,,,,,,,,,,,,12,,73,0
12479,note_on,,119,0,7,,,,,,,,,,,,,,,,2,,49,0
12479,note_on,,119,0,11,,,,,,,,,,,,,,,,8,,61,0
12479,note_on,,119,0,12,,,,,,,,,,,,,,,,10,,81,0
12479,note_on,,119,0,10,,,,,,,,,,,,,,,,7,,64,0
12479,note_on,,119,0,5,,,,,,,,,,,,,,,,0,,73,0
12479,note_on,,119,0,6,,,,,,,,,,,,,,,,1,,73,0
12480,note_on,,1,0,6,,,,,,,,,,,,,,,,1,,71,72
12480,note_on,,1,0,14,,,,,,,,,,,,,,,,12,,71,72
12480,note_on,,1,0,11,,,,,,,,,,,,,,,,8,,63,88
12480,note_on,,1,0,16,,,,,,,,,,,,,,,,15,,51,72
12480,note_on,,0,0,16,,,,,,,,,,,,,,,,15,,54,72
12480,note_on,,0,0,16,,,,,,,,,,,,,,,,15,,71,72
12480,note_on,,0,0,16,,,,,,,,,,,,,,,,15,,66,72
12480,note_on,,0,0,16,,,,,,,,,,,,,,,,15,,59,72
12480,note_on,,1,0,13,,,,,,,,,,,,,,,,11,,78,72
12480,note_on,,1,0,9,,,,,,,,,,,,,,,,6,,69,88
12480,note_on,,1,0,5,,,,,,,,,,,,,,,,0,,71,72
12480,note_on,,1,0,15,,,,,,,,,,,,,,,,13,,51,72
12480,note_on,,1,0,7,,,,,,,,,,,,,,,,2,,51,72
12480,note_on,,1,0,8,,,,,,,,,,,,,,,,5,,71,88
12480,note_on,,1,0,12,,,,,,,,,,,,,,,,10,,81,72
12480,note_on,,1,0,10,,,,,,,,,,,,,,,,7,,66,88
12599,note_on,,119,0,11,,,,,,,,,,,,,,,,8,,63,0
12599,note_on,,119,0,7,,,,,,,,,,,,,,,,2,,51,0
12599,note_on,,119,0,12,,,,,,,,,,,,,,,,10,,81,0
12599,note_on,,119,0,9,,,,,,,,,,,,,,,,6,,69,0
12599,note_on,,0,0,16,,,,,,,,,,,,,,,,15,,54,0
12599,note_on,,119,0,14,,,,,,,,,,,,,,,,12,,71,0
12599,note_on,,119,0,15,,,,,,,,,,,,,,,,13,,51,0
12599,note_on,,119,0,8,,,,,,,,,,,,,,,,5,,71,0
12599,note_on,,0,0,16,,,,,,,,,,,,,,,,15,,71,0
12599,note_on,,0,0,16,,,,,,,,,,,,,,,,15,,66,0
12599,note_on,,0,0,16,,,,,,,,,,,,,,,,15,,59,0
12599,note_on,,119,0,6,,,,,,,,,,,,,,,,1,,71,0
12599,note_on,,119,0,13,,,,,,,,,,,,,,,,11,,78,0
12599,note_on,,119,0,16,,,,,,,,,,,,,,,,15,,51,0
12599,note_on,,119,0,5,,,,,,,,,,,,,,,,0,,71,0
12599,note_on,,119,0,10,,,,,,,,,,,,,,,,7,,66,0
12600,note_on,,1,0,14,,,,,,,,,,,,,,,,12,,71,72
12600,note_on,,1,0,10,,,,,,,,,,,,,,,,7,,64,88
12600,note_on,,1,0,9,,,,,,,,,,,,,,,,6,,68,88
12600,note_on,,1,0,11,,,,,,,,,,,,,,,,8,,64,88
12600,note_on,,1,0,12,,,,,,,,,,,,,,,,10,,80,72
12600,note_on,,1,0,13,,,,,,,,,,,,,,,,11,,71,72
12600,note_on,,1,0,15,,,,,,,,,,,,,,,,13,,52,72
12600,note_on,,1,0,5,,,,,,,,,,,,,,,,0,,71,72
12600,note_on,,1,0,6,,,,,,,,,,,,,,,,1,,71,72
12600,note_on,,1,0,8,,,,,,,,,,,,,,,,5,,71,88
12600,note_on,,0,0,16,,,,,,,,,,,,,,,,15,,64,72
12600,note_on,,1,0,7,,,,,,,,,,,,,,,,2,,52,72
12600,note_on,,1,0,16,,,,,,,,,,,,,,,,15,,52,72
12600,note_on,,0,0,16,,,,,,,,,,,,,,,,15,,68,72
12600,note_on,,0,0,16,,,,,,,,,,,,,,,,15,,59,72
12600,note_on,,0,0,16,,,,,,,,,,,,,,,,15,,56,72
12779,note_on,,179,0,7,,,,,,,,,,,,,,,,2,,52,0
12779,note_on,,179,0,13,,,,,,,,,,,,,,,,11,,71,0
12779,note_on,,179,0,16,,,,,,,,,,,,,,,,15,,52,0
12779,note_on,,0,0,16,,,,,,,,,,,,,,,,15,,56,0
12779,note_on,,179,0,12,,,,,,,,,,,,,,,,10,,80,0
12779,note_on,,179,0,11,,,,,,,,,,,,,,,,8,,64,0
12779,note_on,,179,0,8,,,,,,,,,,,,,,,,5,,71,0
12779,note_on,,179,0,9,,,,,,,,,,,,,,,,6,,68,0
12779,note_on,,179,0,15,,,,,,,,,,,,,,,,13,,52,0
12779,note_on,,179,0,14,,,,,,,,,,,,,,,,12,,71,0
12779,note_on,,179,0,10,,,,,,,,,,,,,,,,7,,64,0
12779,note_on,,179,0,6,,,,,,,,,,,,,,,,1,,71,0
12779,note_on,,179,0,5,,,,,,,,,,,,,,,,0,,71,0
12780,note_on,,1,0,8,,,,,,,,,,,,,,,,5,,73,88
12780,note_on,,1,0,15,,,,,,,,,,,,,,,,13,,44,72
12780,note_on,,1,0,10,,,,,,,,,,,,,,,,7,,59,88
12780,note_on,,1,0,9,,,,,,,,,,,,,,,,6,,64,88
12780,note_on,,1,0,6,,,,,,,,,,,,,,,,1,,73,72
12780,note_on,,1,0,12,,,,,,,,,,,,,,,,10,,76,72
12780,note_on,,1,0,13,,,,,,,,,,,,,,,,11,,73,72
12780,note_on,,1,0,14,,,,,,,,,,,,,,,,12,,71,72
12780,note_on,,1,0,16,,,,,,,,,,,,,,,,15,,44,72
12780,note_on,,0,0,16,,,,,,,,,,,,,,,,15,,52,72
12780,note_on,,1,0,7,,,,,,,,,,,,,,,,2,,44,72
12780,note_on,,1,0,5,,,,,,,,,,,,,,,,0,,73,72
12780,note_on,,1,0,11,,,,,,,,,,,,,,,,8,,56,88
12839,note_on,,59,0,9,,,,,,,,,,,,,,,,6,,64,0
12839,note_on,,59,0,6,,,,,,,,,,,,,,,,1,,73,0
12839,note_on,,59,0,5,,,,,,,,,,,,,,,,0,,73,0
12839,note_on,,59,0,8,,,,,,,,,,,,,,,,5,,73,0
12839,note_on,,59,0,12,,,,,,,,,,,,,,,,10,,76,0
12839,note_on,,59,0,10,,,,,,,,,,,,,,,,7,,59,0
12839,note_on,,59,0,15,,,,,,,,,,,,,,,,13,,44,0
12839,note_on,,59,0,13,,,,,,,,,,,,,,,,11,,73,0
12839,note_on,,59,0,16,,,,,,,,,,,,,,,,15,,68,0
12839,note_on,,0,0,16,,,,,,,,,,,,,,,,15,,52,0
12839,note_on,,0,0,16,,,,,,,,,,,,,,,,15,,64,0
12839,note_on,,59,0,11,,,,,,,,,,,,,,,,8,,56,0
12839,note_on,,59,0,7,,,,,,,,,,,,,,,,2,,44,0
12839,note_on,,0,0,16,,,,,,,,,,,,,,,,15,,59,0
12839,note_on,,0,0,16,,,,,,,,,,,,,,,,15,,44,0
12839,note_on,,59,0,14,,,,,,,,,,,,,,,,12,,71,0
12840,note_on,,1,0,15,,,,,,,,,,,,,,,,13,,42,72
12840,note_on,,1,0,16,,,,,,,,,,,,,,,,15,,42,72
12840,note_on,,1,0,14,,,,,,,,,,,,,,,,12,,69,72
12840,note_on,,1,0,5,,,,,,,,,,,,,,,,0,,75,72
12840,note_on,,1,0,11,,,,,,,,,,,,,,,,8,,54,88
12840,note_on,,1,0,8,,,,,,,,,,,,,,,,5,,75,88
12840,note_on,,1,0,12,,,,,,,,,,,,,,,,10,,78,72
12840,note_on,,1,0,7,,,,,,,,,,,,,,,,2,,42,72
12840,note_on,,1,0,13,,,,,,,,,,,,,,,,11,,75,72
12840,note_on,,1,0,6,,,,,,,,,,,,,,,,1,,75,72
12840,note_on,,1,0,10,,,,,,,,,,,,,,,,7,,57,88
12840,note_on,,0,0,16,,,,,,,,,,,,,,,,15,,69,72
12840,note_on,,1,0,9,,,,,,,,,,,,,,,,6,,66,88
12840,note_on,,0,0,16,,,,,,,,,,,,,,,,15,,57,72
12840,note_on,,0,0,16,,,,,,,,,,,,,,,,15,,63,72
12959,note_on,,0,0,16,,,,,,,,,,,,,,,,15,,63,0
12959,note_on,,119,0,10,,,,,,,,,,,,,,,,7,,57,0
12959,note_on,,119,0,13,,,,,,,,,,,,,,,,11,,75,0
12959,note_on,,119,0,8,,,,,,,,,,,,,,,,5,,75,0
12959,note_on,,119,0,11,,,,,,,,,,,,,,,,8,,54,0
12959,note_on,,119,0,7,,,,,,,,,,,,,,,,2,,42,0
12959,note_on,,0,0,16,,,,,,,,,,,,,,,,15,,57,0
12959,note_on,,119,0,12,,,,,,,,,,,,,,,,10,,78,0
12959,note_on,,0,0,16,,,,,,,,,,,,,,,,15,,69,0
12959,note_on,,119,0,5,,,,,,,,,,,,,,,,0,,75,0
12959,note_on,,119,0,14,,,,,,,,,,,,,,,,12,,69,0
12959,note_on,,119,0,9,,,,,,,,,,,,,,,,6,,66,0
12959,note_on,,119,0,15,,,,,,,,,,,,,,,,13,,42,0
12959,note_on,,119,0,6,,,,,,,,,,,,,,,,1,,75,0
12959,note_on,,119,0,16,,,,,,,,,,,,,,,,15,,42,0
12960,note_on,,0,0,16,,,,,,,,,,,,,,,,15,,47,72
12960,note_on,,1,0,9,,,,,,,,,,,,,,,,6,,68,88
12960,note_on,,1,0,12,,,,,,,,,,,,,,,,10,,80,72
12960,note_on,,1,0,15,,,,,,,,,,,,,,,,13,,40,72
12960,note_on,,1,0,13,,,,,,,,,,,,,,,,11,,76,72
12960,note_on,,1,0,8,,,,,,,,,,,,,,,,5,,76,88
12960,note_on,,0,0,16,,,,,,,,,,,,,,,,15,,64,72
12960,note_on,,1,0,14,,,,,,,,,,,,,,,,12,,71,72
12960,note_on,,0,0,16,,,,,,,,,,,,,,,,15,,68,72
12960,note_on,,0,0,16,,,,,,,,,,,,,,,,15,,59,72
12960,note_on,,1,0,7,,,,,,,,,,,,,,,,2,,40,72
12960,note_on,,1,0,11,,,,,,,,,,,,,,,,8,,52,88
12960,note_on,,1,0,16,,,,,,,,,,,,,,,,15,,40,72
12960,note_on,,1,0,6,,,,,,,,,,,,,,,,1,,76,72
12960,note_on,,1,0,5,,,,,,,,,,,,,,,,0,,76,72
12960,note_on,,1,0,10,,,,,,,,,,,,,,,,7,,59,88
13079,note_on,,119,0,11,,,,,,,,,,,,,,,,8,,52,0
13079,note_on,,119,0,15,,,,,,,,,,,,,,,,13,,40,0
13079,note_on,,0,0,16,,,,,,,,,,,,,,,,15,,68,0
13079,note_on,,119,0,12,,,,,,,,,,,,,,,,10,,80,0
13079,note_on,,119,0,14,,,,,,,,,,,,,,,,12,,71,0
13079,note_on,,0,0,16,,,,,,,,,,,,,,,,15,,64,0
13079,note_on,,0,0,16,,,,,,,,,,,,,,,,15,,59,0
13079,note_on,,119,0,9,,,,,,,,,,,,,,,,6,,68,0
13079,note_on,,119,0,8,,,,,,,,,,,,,,,,5,,76,0
13079,note_on,,0,0,16,,,,,,,,,,,,,,,,15,,47,0
13079,note_on,,119,0,10,,,,,,,,,,,,,,,,7,,59,0
13079,note_on,,119,0,5,,,,,,,,,,,,,,,,0,,76,0
13079,note_on,,119,0,6,,,,,,,,,,,,,,,,1,,76,0
13079,note_on,,119,0,16,,,,,,,,,,,,,,,,15,,40,0
13079,note_on,,119,0,7,,,,,,,,,,,,,,,,2,,40,0
13080,note_on,,1,0,11,,,,,,,,,,,,,,,,8,,59,88
13080,note_on,,1,0,5,,,,,,,,,,,,,,,,0,,76,72
13080,note_on,,1,0,7,,,,,,,,,,,,,,,,2,,47,72
13080,note_on,,1,0,14,,,,,,,,,,,,,,,,12,,71,72
13080,note_on,,1,0,15,,,,,,,,,,,,,,,,13,,47,72
13080,note_on,,1,0,10,,,,,,,,,,,,,,,,7,,59,88
13080,note_on,,0,0,16,,,,,,,,,,,,,,,,15,,64,72
13080,note_on,,0,0,16,,,,,,,,,,,,,,,,15,,59,72
13080,note_on,,0,0,16,,,,,,,,,,,,,,,,15,,66,72
13080,note_on,,1,0,16,,,,,,,,,,,,,,,,15,,47,72
13080,note_on,,1,0,8,,,,,,,,,,,,,,,,5,,76,88
13080,note_on,,1,0,6,,,,,,,,,,,,,,,,1,,76,72
13080,note_on,,1,0,9,,,,,,,,,,,,,,,,6,,66,88
13080,note_on,,1,0,12,,,,,,,,,,,,,,,,10,,78,72
13199,note_on,,119,0,6,,,,,,,,,,,,,,,,1,,76,0
13199,note_on,,119,0,5,,,,,,,,,,,,,,,,0,,76,0
13199,note_on,,0,0,16,,,,,,,,,,,,,,,,15,,64,0
13199,note_on,,119,0,8,,,,,,,,,,,,,,,,5,,76,0
13199,note_on,,239,0,13,,,,,,,,,,,,,,,,11,,76,0
13199,note_on,,119,0,16,,,,,,,,,,,,,,,,15,,47,0
13200,note_on,,1,0,13,,,,,,,,,,,,,,,,11,,75,72
13200,note_on,,1,0,5,,,,,,,,,,,,,,,,0,,75,72
13200,note_on,,1,0,6,,,,,,,,,,,,,,,,1,,75,72
13200,note_on,,1,0,8,,,,,,,,,,,,,,,,5,,75,88
13200,note_on,,1,0,16,,,,,,,,,,,,,,,,15,,54,72
13200,note_on,,0,0,16,,,,,,,,,,,,,,,,15,,63,72
13319,note_on,,239,0,12,,,,,,,,,,,,,,,,10,,78,0
13319,note_on,,119,0,5,,,,,,,,,,,,,,,,0,,75,0
13319,note_on,,0,0,16,,,,,,,,,,,,,,,,15,,59,0
13319,note_on,,239,0,11,,,,,,,,,,,,,,,,8,,59,0
13319,note_on,,239,0,7,,,,,,,,,,,,,,,,2,,47,0
13319,note_on,,239,0,9,,,,,,,,,,,,,,,,6,,66,0
13319,note_on,,239,0,15,,,,,,,,,,,,,,,,13,,47,0
13319,note_on,,239,0,10,,,,,,,,,,,,,,,,7,,59,0
13319,note_on,,119,0,8,,,,,,,,,,,,,,,,5,,75,0
13319,note_on,,239,0,14,,,,,,,,,,,,,,,,12,,71,0
13319,note_on,,0,0,16,,,,,,,,,,,,,,,,15,,54,0
13319,note_on,,119,0,16,,,,,,,,,,,,,,,,15,,66,0
13319,note_on,,119,0,6,,,,,,,,,,,,,,,,1,,75,0
13319,note_on,,119,0,13,,,,,,,,,,,,,,,,11,,75,0
13319,note_on,,0,0,16,,,,,,,,,,,,,,,,15,,63,0
13320,note_on,,0,0,16,,,,,,,,,,,,,,,,15,,40,72
13320,note_on,,1,0,7,,,,,,,,,,,,,,,,2,,40,72
13320,note_on,,1,0,14,,,,,,,,,,,,,,,,12,,71,72
13320,note_on,,1,0,16,,,,,,,,,,,,,,,,15,,64,72
13320,note_on,,1,0,10,,,,,,,,,,,,,,,,7,,59,88
13320,note_on,,1,0,12,,,,,,,,,,,,,,,,10,,80,72
13320,note_on,,0,0,16,,,,,,,,,,,,,,,,15,,68,72
13320,note_on,,0,0,16,,,,,,,,,,,,,,,,15,,59,72
13320,note_on,,0,0,16,,,,,,,,,,,,,,,,15,,52,72
13320,note_on,,1,0,8,,,,,,,,,,,,,,,,5,,76,88
13320,note_on,,1,0,11,,,,,,,,,,,,,,,,8,,52,88
13320,note_on,,1,0,15,,,,,,,,,,,,,,,,13,,40,72
13320,note_on,,1,0,5,,,,,,,,,,,,,,,,0,,76,72
13320,note_on,,1,0,9,,,,,,,,,,,,,,,,6,,68,88
13320,note_on,,1,0,13,,,,,,,,,,,,,,,,11,,76,72
13320,note_on,,1,0,6,,,,,,,,,,,,,,,,1,,76,72
13439,note_on,,119,0,16,,,,,,,,,,,,,,,,15,,40,0
13439,note_on,,0,0,16,,,,,,,,,,,,,,,,15,,52,0
13439,note_on,,119,0,15,,,,,,,,,,,,,,,,13,,40,0
13439,note_on,,119,0,7,,,,,,,,,,,,,,,,2,,40,0
13439,note_on,,119,0,13,,,,,,,,,,,,,,,,11,,76,0
13440,note_on,,1,0,15,,,,,,,,,,,,,,,,13,,52,72
13440,note_on,,1,0,13,,,,,,,,,,,,,,,,11,,71,72
13440,note_on,,1,0,7,,,,,,,,,,,,,,,,2,,52,72
13440,note_on,,1,0,16,,,,,,,,,,,,,,,,15,,52,72
13499,note_on,,179,0,12,,,,,,,,,,,,,,,,10,,80,0
13500,note_on,,1,0,12,,,,,,,,,,,,,,,,10,,83,72
13559,note_on,,119,0,7,,,,,,,,,,,,,,,,2,,52,0
13559,note_on,,119,0,15,,,,,,,,,,,,,,,,13,,52,0
13559,note_on,,119,0,16,,,,,,,,,,,,,,,,15,,64,0
13559,note_on,,0,0,16,,,,,,,,,,,,,,,,15,,68,0
13559,note_on,,0,0,16,,,,,,,,,,,,,,,,15,,59,0
13559,note_on,,59,0,12,,,,,,,,,,,,,,,,10,,83,0
13559,note_on,,0,0,16,,,,,,,,,,,,,,,,15,,52,0
13559,note_on,,239,0,14,,,,,,,,,,,,,,,,12,,71,0
13559,note_on,,119,0,13,,,,,,,,,,,,,,,,11,,71,0
13560,note_on,,1,0,7,,,,,,,,,,,,,,,,2,,56,72
13560,note_on,,0,0,16,,,,,,,,,,,,,,,,15,,71,72
13560,note_on,,1,0,12,,,,,,,,,,,,,,,,10,,81,72
13560,note_on,,1,0,13,,,,,,,,,,,,,,,,11,,76,72
13560,note_on,,1,0,16,,,,,,,,,,,,,,,,15,,56,72
13560,note_on,,0,0,16,,,,,,,,,,,,,,,,15,,64,72
13560,note_on,,1,0,15,,,,,,,,,,,,,,,,13,,56,72
13560,note_on,,1,0,14,,,,,,,,,,,,,,,,12,,71,72
13619,note_on,,59,0,12,,,,,,,,,,,,,,,,10,,81,0
13620,note_on,,1,0,12,,,,,,,,,,,,,,,,10,,80,72
13679,note_on,,119,0,7,,,,,,,,,,,,,,,,2,,56,0
13679,note_on,,119,0,14,,,,,,,,,,,,,,,,12,,71,0
13679,note_on,,359,0,6,,,,,,,,,,,,,,,,1,,76,0
13679,note_on,,59,0,12,,,,,,,,,,,,,,,,10,,80,0
13679,note_on,,0,0,16,,,,,,,,,,,,,,,,15,,64,0
13679,note_on,,0,0,16,,,,,,,,,,,,,,,,15,,71,0
13679,note_on,,119,0,16,,,,,,,,,,,,,,,,15,,56,0
13679,note_on,,359,0,9,,,,,,,,,,,,,,,,6,,68,0
13679,note_on,,359,0,10,,,,,,,,,,,,,,,,7,,59,0
13679,note_on,,359,0,11,,,,,,,,,,,,,,,,8,,52,0
13679,note_on,,359,0,8,,,,,,,,,,,,,,,,5,,76,0
13679,note_on,,359,0,5,,,,,,,,,,,,,,,,0,,76,0
13679,note_on,,119,0,15,,,,,,,,,,,,,,,,13,,56,0
13680,note_on,,1,0,7,,,,,,,,,,,,,,,,2,,59,72
13680,note_on,,0,0,16,,,,,,,,,,,,,,,,15,,66,72
13680,note_on,,0,0,16,,,,,,,,,,,,,,,,15,,71,72
13680,note_on,,1,0,16,,,,,,,,,,,,,,,,15,,59,72
13680,note_on,,1,0,12,,,,,,,,,,,,,,,,10,,78,72
13680,note_on,,1,0,15,,,,,,,,,,,,,,,,13,,59,72
13680,note_on,,1,0,14,,,,,,,,,,,,,,,,12,,71,72
13799,note_on,,239,0,13,,,,,,,,,,,,,,,,11,,76,0
13799,note_on,,119,0,16,,,,,,,,,,,,,,,,15,,59,0
13799,note_on,,119,0,15,,,,,,,,,,,,,,,,13,,59,0
13799,note_on,,119,0,7,,,,,,,,,,,,,,,,2,,59,0
13800,note_on,,1,0,16,,,,,,,,,,,,,,,,15,,47,72
13800,note_on,,1,0,15,,,,,,,,,,,,,,,,13,,47,72
13800,note_on,,1,0,13,,,,,,,,,,,,,,,,11,,75,72
13800,note_on,,1,0,7,,,,,,,,,,,,,,,,2,,47,72
13859,note_on,,179,0,14,,,,,,,,,,,,,,,,12,,71,0
13859,note_on,,179,0,12,,,,,,,,,,,,,,,,10,,78,0
13860,note_on,,1,0,14,,,,,,,,,,,,,,,,12,,73,72
13860,note_on,,1,0,12,,,,,,,,,,,,,,,,10,,81,72
13919,note_on,,59,0,14,,,,,,,,,,,,,,,,12,,73,0
13919,note_on,,59,0,12,,,,,,,,,,,,,,,,10,,81,0
13919,note_on,,119,0,15,,,,,,,,,,,,,,,,13,,47,0
13919,note_on,,119,0,16,,,,,,,,,,,,,,,,15,,47,0
13919,note_on,,119,0,7,,,,,,,,,,,,,,,,2,,47,0
13920,note_on,,1,0,14,,,,,,,,,,,,,,,,12,,71,72
13920,note_on,,1,0,16,,,,,,,,,,,,,,,,15,,59,72
13920,note_on,,1,0,15,,,,,,,,,,,,,,,,13,,59,72
13920,note_on,,1,0,7,,,,,,,,,,,,,,,,2,,59,72
13920,note_on,,1,0,12,,,,,,,,,,,,,,,,10,,80,72
13979,note_on,,59,0,12,,,,,,,,,,,,,,,,10,,80,0
13979,note_on,,59,0,14,,,,,,,,,,,,,,,,12,,71,0
13980,note_on,,1,0,12,,,,,,,,,,,,,,,,10,,78,72
13980,note_on,,1,0,14,,,,,,,,,,,,,,,,12,,69,72
14039,note_on,,0,0,16,,,,,,,,,,,,,,,,15,,59,0
14039,note_on,,119,0,7,,,,,,,,,,,,,,,,2,,59,0
14039,note_on,,119,0,16,,,,,,,,,,,,,,,,15,,71,0
14039,note_on,,119,0,15,,,,,,,,,,,,,,,,13,,59,0
14039,note_on,,239,0,13,,,,,,,,,,,,,,,,11,,75,0
14039,note_on,,59,0,12,,,,,,,,,,,,,,,,10,,78,0
14039,note_on,,59,0,14,,,,,,,,,,,,,,,,12,,69,0
14039,note_on,,0,0,16,,,,,,,,,,,,,,,,15,,66,0
14040,note_on,,1,0,13,,,,,,,,,,,,,,,,11,,73,72
14040,note_on,,0,0,16,,,,,,,,,,,,,,,,15,,64,72
14040,note_on,,1,0,14,,,,,,,,,,,,,,,,12,,68,72
14040,note_on,,0,0,16,,,,,,,,,,,,,,,,15,,68,72
14040,note_on,,1,0,12,,,,,,,,,,,,,,,,10,,76,72
14040,note_on,,1,0,16,,,,,,,,,,,,,,,,15,,61,72
14040,note_on,,1,0,15,,,,,,,,,,,,,,,,13,,61,72
14040,note_on,,1,0,7,,,,,,,,,,,,,,,,2,,61,72
14159,note_on,,119,0,14,,,,,,,,,,,,,,,,12,,68,0
14159,note_on,,119,0,15,,,,,,,,,,,,,,,,13,,61,0
14159,note_on,,119,0,7,,,,,,,,,,,,,,,,2,,61,0
14159,note_on,,119,0,12,,,,,,,,,,,,,,,,10,,76,0
14159,note_on,,0,0,16,,,,,,,,,,,,,,,,15,,68,0
14159,note_on,,119,0,16,,,,,,,,,,,,,,,,15,,61,0
14160,note_on,,1,0,12,,,,,,,,,,,,,,,,10,,81,72
14160,note_on,,1,0,14,,,,,,,,,,,,,,,,12,,66,72
14160,note_on,,1,0,16,,,,,,,,,,,,,,,,15,,54,72
14160,note_on,,1,0,7,,,,,,,,,,,,,,,,2,,54,72
14160,note_on,,0,0,16,,,,,,,,,,,,,,,,15,,69,72
14160,note_on,,1,0,15,,,,,,,,,,,,,,,,13,,54,72
14219,note_on,,179,0,13,,,,,,,,,,,,,,,,11,,73,0
14220,note_on,,1,0,13,,,,,,,,,,,,,,,,11,,76,72
14279,note_on,,119,0,16,,,,,,,,,,,,,,,,15,,54,0
14279,note_on,,119,0,14,,,,,,,,,,,,,,,,12,,66,0
14279,note_on,,119,0,7,,,,,,,,,,,,,,,,2,,54,0
14279,note_on,,119,0,15,,,,,,,,,,,,,,,,13,,54,0
14279,note_on,,59,0,13,,,,,,,,,,,,,,,,11,,76,0
14280,note_on,,1,0,7,,,,,,,,,,,,,,,,2,,52,72
14280,note_on,,1,0,15,,,,,,,,,,,,,,,,13,,52,72
14280,note_on,,1,0,14,,,,,,,,,,,,,,,,12,,66,72
14280,note_on,,1,0,13,,,,,,,,,,,,,,,,11,,75,72
14280,note_on,,1,0,16,,,,,,,,,,,,,,,,15,,52,72
14339,note_on,,59,0,13,,,,,,,,,,,,,,,,11,,75,0
14340,note_on,,1,0,13,,,,,,,,,,,,,,,,11,,73,72
14399,note_on,,119,0,15,,,,,,,,,,,,,,,,13,,52,0
14399,note_on,,119,0,16,,,,,,,,,,,,,,,,15,,64,0
14399,note_on,,0,0,16,,,,,,,,,,,,,,,,15,,69,0
14399,note_on,,59,0,13,,,,,,,,,,,,,,,,11,,73,0
14399,note_on,,119,0,14,,,,,,,,,,,,,,,,12,,66,0
14399,note_on,,119,0,7,,,,,,,,,,,,,,,,2,,52,0
14399,note_on,,0,0,16,,,,,,,,,,,,,,,,15,,52,0
14400,note_on,,1,0,16,,,,,,,,,,,,,,,,15,,51,72
14400,note_on,,0,0,16,,,,,,,,,,,,,,,,15,,69,72
14400,note_on,,0,0,16,,,,,,,,,,,,,,,,15,,59,72
14400,note_on,,0,0,16,,,,,,,,,,,,,,,,15,,66,72
14400,note_on,,1,0,14,,,,,,,,,,,,,,,,12,,66,72
14400,note_on,,1,0,7,,,,,,,,,,,,,,,,2,,51,72
14400,note_on,,1,0,13,,,,,,,,,,,,,,,,11,,71,72
14400,note_on,,1,0,15,,,,,,,,,,,,,,,,13,,51,72
14519,note_on,,119,0,7,,,,,,,,,,,,,,,,2,,51,0
14519,note_on,,119,0,15,,,,,,,,,,,,,,,,13,,51,0
14519,note_on,,119,0,13,,,,,,,,,,,,,,,,11,,71,0
14519,note_on,,119,0,14,,,,,,,,,,,,,,,,12,,66,0
14519,note_on,,119,0,16,,,,,,,,,,,,,,,,15,,51,0
14519,note_on,,0,0,16,,,,,,,,,,,,,,,,15,,66,0
14520,note_on,,1,0,13,,,,,,,,,,,,,,,,11,,75,72
14520,note_on,,1,0,14,,,,,,,,,,,,,,,,12,,66,72
14520,note_on,,1,0,16,,,,,,,,,,,,,,,,15,,47,72
14520,note_on,,1,0,7,,,,,,,,,,,,,,,,2,,47,72
14520,note_on,,1,0,15,,,,,,,,,,,,,,,,13,,47,72
14520,note_on,,0,0,16,,,,,,,,,,,,,,,,15,,63,72
14579,note_on,,419,0,12,,,,,,,,,,,,,,,,10,,81,0
14580,note_on,,1,0,12,,,,,,,,,,,,,,,,10,,83,72
14639,note_on,,119,0,16,,,,,,,,,,,,,,,,15,,69,0
14639,note_on,,0,0,16,,,,,,,,,,,,,,,,15,,59,0
14639,note_on,,0,0,16,,,,,,,,,,,,,,,,15,,47,0
14639,note_on,,0,0,16,,,,,,,,,,,,,,,,15,,63,0
14639,note_on,,119,0,13,,,,,,,,,,,,,,,,11,,75,0
14639,note_on,,59,0,12,,,,,,,,,,,,,,,,10,,83,0
14639,note_on,,119,0,15,,,,,,,,,,,,,,,,13,,47,0
14639,note_on,,119,0,14,,,,,,,,,,,,,,,,12,,66,0
14639,note_on,,119,0,7,,,,,,,,,,,,,,,,2,,47,0
14640,note_on,,1,0,13,,,,,,,,,,,,,,,,11,,76,72
14640,note_on,,1,0,12,,,,,,,,,,,,,,,,10,,80,72
14640,note_on,,0,0,16,,,,,,,,,,,,,,,,15,,56,72
14640,note_on,,1,0,7,,,,,,,,,,,,,,,,2,,49,72
14640,note_on,,1,0,15,,,,,,,,,,,,,,,,13,,49,72
14640,note_on,,1,0,14,,,,,,,,,,,,,,,,12,,64,72
14640,note_on,,0,0,16,,,,,,,,,,,,,,,,15,,64,72
14640,note_on,,1,0,16,,,,,,,,,,,,,,,,15,,49,72
14640,note_on,,0,0,16,,,,,,,,,,,,,,,,15,,68,72
14759,note_on,,119,0,13,,,,,,,,,,,,,,,,11,,76,0
14759,note_on,,119,0,16,,,,,,,,,,,,,,,,15,,49,0
14759,note_on,,0,0,16,,,,,,,,,,,,,,,,15,,68,0
14759,note_on,,0,0,16,,,,,,,,,,,,,,,,15,,56,0
14759,note_on,,119,0,15,,,,,,,,,,,,,,,,13,,49,0
14759,note_on,,119,0,14,,,,,,,,,,,,,,,,12,,64,0
14759,note_on,,119,0,7,,,,,,,,,,,,,,,,2,,49,0
14760,note_on,,0,0,16,,,,,,,,,,,,,,,,15,,73,72
14760,note_on,,0,0,16,,,,,,,,,,,,,,,,15,,57,72
14760,note_on,,1,0,15,,,,,,,,,,,,,,,,13,,45,72
14760,note_on,,1,0,16,,,,,,,,,,,,,,,,15,,45,72
14760,note_on,,1,0,7,,,,,,,,,,,,,,,,2,,45,72
14760,note_on,,1,0,13,,,,,,,,,,,,,,,,11,,76,72
14760,note_on,,1,0,14,,,,,,,,,,,,,,,,12,,73,72
14819,note_on,,179,0,12,,,,,,,,,,,,,,,,10,,80,0
14820,note_on,,1,0,12,,,,,,,,,,,,,,,,10,,78,72
14879,note_on,,59,0,12,,,,,,,,,,,,,,,,10,,78,0
14879,note_on,,119,0,14,,,,,,,,,,,,,,,,12,,73,0
14879,note_on,,119,0,15,,,,,,,,,,,,,,,,13,,45,0
14879,note_on,,0,0,16,,,,,,,,,,,,,,,,15,,73,0
14879,note_on,,119,0,16,,,,,,,,,,,,,,,,15,,45,0
14879,note_on,,119,0,7,,,,,,,,,,,,,,,,2,,45,0
14879,note_on,,0,0,16,,,,,,,,,,,,,,,,15,,57,0
14880,note_on,,1,0,16,,,,,,,,,,,,,,,,15,,47,72
14880,note_on,,0,0,16,,,,,,,,,,,,,,,,15,,66,72
14880,note_on,,1,0,12,,,,,,,,,,,,,,,,10,,78,72
14880,note_on,,1,0,7,,,,,,,,,,,,,,,,2,,47,72
14880,note_on,,1,0,14,,,,,,,,,,,,,,,,12,,66,72
14880,note_on,,1,0,15,,,,,,,,,,,,,,,,13,,47,72
14880,note_on,,0,0,16,,,,,,,,,,,,,,,,15,,54,72
14894,note_on,,14,0,12,,,,,,,,,,,,,,,,10,,78,0
14895,note_on,,1,0,12,,,,,,,,,,,,,,,,10,,80,72
14909,note_on,,14,0,12,,,,,,,,,,,,,,,,10,,80,0
14910,note_on,,1,0,12,,,,,,,,,,,,,,,,10,,78,72
14924,note_on,,14,0,12,,,,,,,,,,,,,,,,10,,78,0
14925,note_on,,1,0,12,,,,,,,,,,,,,,,,10,,80,72
14939,note_on,,14,0,12,,,,,,,,,,,,,,,,10,,80,0
14940,note_on,,1,0,12,,,,,,,,,,,,,,,,10,,78,72
14954,note_on,,14,0,12,,,,,,,,,,,,,,,,10,,78,0
14955,note_on,,1,0,12,,,,,,,,,,,,,,,,10,,80,72
14969,note_on,,14,0,12,,,,,,,,,,,,,,,,10,,80,0
14970,note_on,,1,0,12,,,,,,,,,,,,,,,,10,,78,72
14984,note_on,,14,0,12,,,,,,,,,,,,,,,,10,,78,0
14985,note_on,,1,0,12,,,,,,,,,,,,,,,,10,,80,72
14999,note_on,,119,0,14,,,,,,,,,,,,,,,,12,,66,0
14999,note_on,,14,0,12,,,,,,,,,,,,,,,,10,,80,0
14999,note_on,,119,0,16,,,,,,,,,,,,,,,,15,,64,0
14999,note_on,,239,0,13,,,,,,,,,,,,,,,,11,,76,0
14999,note_on,,0,0,16,,,,,,,,,,,,,,,,15,,54,0
15000,note_on,,1,0,16,,,,,,,,,,,,,,,,15,,59,72
15000,note_on,,0,0,16,,,,,,,,,,,,,,,,15,,63,72
15000,note_on,,1,0,12,,,,,,,,,,,,,,,,10,,78,72
15000,note_on,,1,0,14,,,,,,,,,,,,,,,,12,,71,72
15000,note_on,,1,0,13,,,,,,,,,,,,,,,,11,,75,72
15014,note_on,,14,0,12,,,,,,,,,,,,,,,,10,,78,0
15015,note_on,,1,0,12,,,,,,,,,,,,,,,,10,,80,72
15029,note_on,,14,0,12,,,,,,,,,,,,,,,,10,,80,0
15030,note_on,,1,0,12,,,,,,,,,,,,,,,,10,,78,72
15044,note_on,,14,0,12,,,,,,,,,,,,,,,,10,,78,0
15045,note_on,,1,0,12,,,,,,,,,,,,,,,,10,,80,72
15059,note_on,,14,0,12,,,,,,,,,,,,,,,,10,,80,0
15060,note_on,,1,0,12,,,,,,,,,,,,,,,,10,,78,72
15074,note_on,,14,0,12,,,,,,,,,,,,,,,,10,,78,0
15075,note_on,,1,0,12,,,,,,,,,,,,,,,,10,,80,72
15089,note_on,,14,0,12,,,,,,,,,,,,,,,,10,,80,0
15090,note_on,,1,0,12,,,,,,,,,,,,,,,,10,,76,72
15104,note_on,,14,0,12,,,,,,,,,,,,,,,,10,,76,0
15105,note_on,,1,0,12,,,,,,,,,,,,,,,,10,,78,72
15119,note_on,,119,0,13,,,,,,,,,,,,,,,,11,,75,0
15119,note_on,,119,0,14,,,,,,,,,,,,,,,,12,,71,0
15119,note_on,,239,0,7,,,,,,,,,,,,,,,,2,,47,0
15119,note_on,,119,0,16,,,,,,,,,,,,,,,,15,,47,0
15119,note_on,,239,0,15,,,,,,,,,,,,,,,,13,,47,0
15119,note_on,,14,0,12,,,,,,,,,,,,,,,,10,,78,0
15119,note_on,,0,0,16,,,,,,,,,,,,,,,,15,,66,0
15119,note_on,,0,0,16,,,,,,,,,,,,,,,,15,,59,0
15119,note_on,,0,0,16,,,,,,,,,,,,,,,,15,,63,0
15120,note_on,,1,0,7,,,,,,,,,,,,,,,,2,,52,72
15120,note_on,,0,0,16,,,,,,,,,,,,,,,,15,,59,72
15120,note_on,,0,0,16,,,,,,,,,,,,,,,,15,,64,72
15120,note_on,,1,0,14,,,,,,,,,,,,,,,,12,,68,72
15120,note_on,,1,0,15,,,,,,,,,,,,,,,,13,,52,72
15120,note_on,,0,0,16,,,,,,,,,,,,,,,,15,,68,72
15120,note_on,,1,0,13,,,,,,,,,,,,,,,,11,,76,72
15120,note_on,,1,0,16,,,,,,,,,,,,,,,,15,,52,72
15120,note_on,,1,0,12,,,,,,,,,,,,,,,,10,,76,72
15239,note_on,,0,0,16,,,,,,,,,,,,,,,,15,,68,0
15239,note_on,,0,0,16,,,,,,,,,,,,,,,,15,,59,0
15239,note_on,,0,0,16,,,,,,,,,,,,,,,,15,,64,0
15239,note_on,,119,0,15,,,,,,,,,,,,,,,,13,,52,0
15239,note_on,,119,0,7,,,,,,,,,,,,,,,,2,,52,0
15239,note_on,,119,0,16,,,,,,,,,,,,,,,,15,,52,0
15240,note_on,,0,0,16,,,,,,,,,,,,,,,,15,,64,48
15240,note_on,,0,0,16,,,,,,,,,,,,,,,,15,,52,48
15240,note_on,,0,0,16,,,,,,,,,,,,,,,,15,,57,48
15240,note_on,,1561,0,9,,,,,,,,,,,,,,,,6,,64,78
15240,note_on,,1,0,16,,,,,,,,,,,,,,,,15,,49,48
15240,note_on,,1,0,7,,,,,,,,,,,,,,,,2,,49,48
15240,note_on,,1,0,15,,,,,,,,,,,,,,,,13,,49,48
15359,note_on,,119,0,16,,,,,,,,,,,,,,,,15,,49,0
15359,note_on,,239,0,13,,,,,,,,,,,,,,,,11,,76,0
15359,note_on,,0,0,16,,,,,,,,,,,,,,,,15,,64,0
15359,note_on,,0,0,16,,,,,,,,,,,,,,,,15,,57,0
15359,note_on,,0,0,16,,,,,,,,,,,,,,,,15,,52,0
15359,note_on,,239,0,12,,,,,,,,,,,,,,,,10,,76,0
15359,note_on,,119,0,7,,,,,,,,,,,,,,,,2,,49,0
15359,note_on,,239,0,14,,,,,,,,,,,,,,,,12,,68,0
15359,note_on,,119,0,15,,,,,,,,,,,,,,,,13,,49,0
15359,note_on,,119,0,9,,,,,,,,,,,,,,,,6,,64,0
15360,note_on,,1,0,16,,,,,,,,,,,,,,,,15,,45,48
15360,note_on,,0,0,16,,,,,,,,,,,,,,,,15,,57,48
15360,note_on,,0,0,16,,,,,,,,,,,,,,,,15,,52,48
15360,note_on,,1,0,15,,,,,,,,,,,,,,,,13,,45,48
15360,note_on,,0,0,16,,,,,,,,,,,,,,,,15,,61,48
15360,note_on,,1,0,9,,,,,,,,,,,,,,,,6,,69,78
15360,note_on,,1,0,7,,,,,,,,,,,,,,,,2,,45,48
15479,note_on,,119,0,9,,,,,,,,,,,,,,,,6,,69,0
15479,note_on,,0,0,16,,,,,,,,,,,,,,,,15,,57,0
15479,note_on,,0,0,16,,,,,,,,,,,,,,,,15,,61,0
15479,note_on,,0,0,16,,,,,,,,,,,,,,,,15,,52,0
15479,note_on,,119,0,16,,,,,,,,,,,,,,,,15,,45,0
15479,note_on,,119,0,7,,,,,,,,,,,,,,,,2,,45,0
15479,note_on,,119,0,15,,,,,,,,,,,,,,,,13,,45,0
15480,note_on,,1,0,15,,,,,,,,,,,,,,,,13,,52,48
15480,note_on,,1,0,16,,,,,,,,,,,,,,,,15,,52,48
15480,note_on,,0,0,16,,,,,,,,,,,,,,,,15,,59,48
15480,note_on,,0,0,16,,,,,,,,,,,,,,,,15,,56,48
15480,note_on,,1,0,7,,,,,,,,,,,,,,,,2,,52,48
15480,note_on,,1,0,9,,,,,,,,,,,,,,,,6,,68,78
15539,note_on,,59,0,9,,,,,,,,,,,,,,,,6,,68,0
15540,note_on,,1,0,9,,,,,,,,,,,,,,,,6,,66,78
15599,note_on,,119,0,7,,,,,,,,,,,,,,,,2,,52,0
15599,note_on,,119,0,15,,,,,,,,,,,,,,,,13,,52,0
15599,note_on,,59,0,9,,,,,,,,,,,,,,,,6,,66,0
15599,note_on,,119,0,16,,,,,,,,,,,,,,,,15,,52,0
15599,note_on,,0,0,16,,,,,,,,,,,,,,,,15,,59,0
15599,note_on,,0,0,16,,,,,,,,,,,,,,,,15,,56,0
15600,note_on,,1,0,7,,,,,,,,,,,,,,,,2,,49,48
15600,note_on,,1,0,15,,,,,,,,,,,,,,,,13,,49,48
15600,note_on,,0,0,16,,,,,,,,,,,,,,,,15,,57,48
15600,note_on,,0,0,16,,,,,,,,,,,,,,,,15,,64,48
15600,note_on,,1,0,9,,,,,,,,,,,,,,,,6,,64,78
15600,note_on,,0,0,16,,,,,,,,,,,,,,,,15,,52,48
15600,note_on,,1,0,16,,,,,,,,,,,,,,,,15,,49,48
15705,note_on,,105,0,7,,,,,,,,,,,,,,,,2,,45,48
15705,note_on,,105,0,15,,,,,,,,,,,,,,,,13,,45,48
15719,note_on,,119,0,16,,,,,,,,,,,,,,,,15,,49,0
15719,note_on,,14,0,7,,,,,,,,,,,,,,,,2,,49,0
15719,note_on,,119,0,9,,,,,,,,,,,,,,,,6,,64,0
15719,note_on,,14,0,15,,,,,,,,,,,,,,,,13,,49,0
15719,note_on,,0,0,16,,,,,,,,,,,,,,,,15,,57,0
15720,note_on,,1,0,9,,,,,,,,,,,,,,,,6,,69,78
15720,note_on,,0,0,16,,,,,,,,,,,,,,,,15,,61,48
15720,note_on,,1,0,16,,,,,,,,,,,,,,,,15,,45,48
15824,note_on,,105,0,15,,,,,,,,,,,,,,,,13,,45,0
15824,note_on,,105,0,7,,,,,,,,,,,,,,,,2,,45,0
15839,note_on,,0,0,16,,,,,,,,,,,,,,,,15,,61,0
15839,note_on,,119,0,9,,,,,,,,,,,,,,,,6,,69,0
15839,note_on,,119,0,16,,,,,,,,,,,,,,,,15,,52,0
15839,note_on,,0,0,16,,,,,,,,,,,,,,,,15,,45,0
15840,note_on,,16,0,15,,,,,,,,,,,,,,,,13,,52,48
15840,note_on,,16,0,7,,,,,,,,,,,,,,,,2,,52,48
15840,note_on,,1,0,9,,,,,,,,,,,,,,,,6,,68,78
15840,note_on,,1,0,16,,,,,,,,,,,,,,,,15,,52,48
15840,note_on,,0,0,16,,,,,,,,,,,,,,,,15,,59,48
15840,note_on,,0,0,16,,,,,,,,,,,,,,,,15,,56,48
15899,note_on,,59,0,9,,,,,,,,,,,,,,,,6,,68,0
15900,note_on,,1,0,9,,,,,,,,,,,,,,,,6,,66,78
15959,note_on,,0,0,16,,,,,,,,,,,,,,,,15,,56,0
15959,note_on,,119,0,7,,,,,,,,,,,,,,,,2,,52,0
15959,note_on,,59,0,9,,,,,,,,,,,,,,,,6,,66,0
15959,note_on,,0,0,16,,,,,,,,,,,,,,,,15,,52,0
15959,note_on,,119,0,15,,,,,,,,,,,,,,,,13,,52,0
15959,note_on,,0,0,16,,,,,,,,,,,,,,,,15,,59,0
15959,note_on,,119,0,16,,,,,,,,,,,,,,,,15,,64,0
15960,note_on,,1,0,16,,,,,,,,,,,,,,,,15,,61,48
15960,note_on,,1,0,15,,,,,,,,,,,,,,,,13,,61,48
15960,note_on,,0,0,16,,,,,,,,,,,,,,,,15,,64,48
15960,note_on,,1,0,9,,,,,,,,,,,,,,,,6,,64,78
15960,note_on,,1,0,7,,,,,,,,,,,,,,,,2,,61,48
15960,note_on,,0,0,16,,,,,,,,,,,,,,,,15,,69,48
16079,note_on,,119,0,9,,,,,,,,,,,,,,,,6,,64,0
16079,note_on,,119,0,16,,,,,,,,,,,,,,,,15,,61,0
16079,note_on,,119,0,7,,,,,,,,,,,,,,,,2,,61,0
16079,note_on,,0,0,16,,,,,,,,,,,,,,,,15,,64,0
16079,note_on,,119,0,15,,,,,,,,,,,,,,,,13,,61,0
16079,note_on,,0,0,16,,,,,,,,,,,,,,,,15,,69,0
16080,note_on,,1,0,16,,,,,,,,,,,,,,,,15,,57,48
16080,note_on,,0,0,16,,,,,,,,,,,,,,,,15,,73,48
16080,note_on,,0,0,16,,,,,,,,,,,,,,,,15,,69,48
16080,note_on,,0,0,16,,,,,,,,,,,,,,,,15,,64,48
16080,note_on,,1,0,9,,,,,,,,,,,,,,,,6,,69,78
16080,note_on,,0,0,16,,,,,,,,,,,,,,,,15,,61,48
16080,note_on,,1,0,7,,,,,,,,,,,,,,,,2,,57,48
16080,note_on,,1,0,15,,,,,,,,,,,,,,,,13,,57,48
16199,note_on,,119,0,9,,,,,,,,,,,,,,,,6,,69,0
16199,note_on,,0,0,16,,,,,,,,,,,,,,,,15,,64,0
16199,note_on,,0,0,16,,,,,,,,,,,,,,,,15,,69,0
16199,note_on,,0,0,16,,,,,,,,,,,,,,,,15,,73,0
16199,note_on,,119,0,7,,,,,,,,,,,,,,,,2,,57,0
16199,note_on,,119,0,15,,,,,,,,,,,,,,,,13,,57,0
16199,note_on,,0,0,16,,,,,,,,,,,,,,,,15,,61,0
16199,note_on,,119,0,16,,,,,,,,,,,,,,,,15,,57,0
16200,note_on,,0,0,16,,,,,,,,,,,,,,,,15,,71,48
16200,note_on,,1,0,15,,,,,,,,,,,,,,,,13,,64,48
16200,note_on,,0,0,16,,,,,,,,,,,,,,,,15,,68,48
16200,note_on,,1,0,16,,,,,,,,,,,,,,,,15,,64,48
16200,note_on,,1,0,7,,,,,,,,,,,,,,,,2,,64,48
16200,note_on,,1,0,9,,,,,,,,,,,,,,,,6,,68,78
16259,note_on,,59,0,9,,,,,,,,,,,,,,,,6,,68,0
16260,note_on,,1,0,9,,,,,,,,,,,,,,,,6,,66,78
16319,note_on,,59,0,9,,,,,,,,,,,,,,,,6,,66,0
16319,note_on,,119,0,15,,,,,,,,,,,,,,,,13,,64,0
16319,note_on,,0,0,16,,,,,,,,,,,,,,,,15,,68,0
16319,note_on,,0,0,16,,,,,,,,,,,,,,,,15,,71,0
16319,note_on,,119,0,16,,,,,,,,,,,,,,,,15,,64,0
16319,note_on,,119,0,7,,,,,,,,,,,,,,,,2,,64,0
16320,note_on,,961,0,12,,,,,,,,,,,,,,,,10,,71,72
16320,note_on,,0,0,16,,,,,,,,,,,,,,,,15,,64,48
16320,note_on,,1,0,15,,,,,,,,,,,,,,,,13,,56,48
16320,note_on,,961,0,14,,,,,,,,,,,,,,,,12,,59,72
16320,note_on,,0,0,16,,,,,,,,,,,,,,,,15,,59,48
16320,note_on,,1,0,16,,,,,,,,,,,,,,,,15,,56,48
16320,note_on,,1,0,7,,,,,,,,,,,,,,,,2,,56,48
16320,note_on,,961,0,13,,,,,,,,,,,,,,,,11,,64,72
16320,note_on,,1,0,9,,,,,,,,,,,,,,,,6,,64,78
16439,note_on,,119,0,12,,,,,,,,,,,,,,,,10,,71,0
16439,note_on,,119,0,13,,,,,,,,,,,,,,,,11,,64,0
16439,note_on,,119,0,14,,,,,,,,,,,,,,,,12,,59,0
16439,note_on,,119,0,7,,,,,,,,,,,,,,,,2,,56,0
16439,note_on,,119,0,9,,,,,,,,,,,,,,,,6,,64,0
16439,note_on,,119,0,16,,,,,,,,,,,,,,,,15,,56,0
16439,note_on,,0,0,16,,,,,,,,,,,,,,,,15,,64,0
16439,note_on,,119,0,15,,,,,,,,,,,,,,,,13,,56,0
16439,note_on,,0,0,16,,,,,,,,,,,,,,,,15,,59,0
16440,note_on,,1,0,7,,,,,,,,,,,,,,,,2,,52,48
16440,note_on,,0,0,16,,,,,,,,,,,,,,,,15,,64,48
16440,note_on,,1,0,16,,,,,,,,,,,,,,,,15,,52,48
16440,note_on,,1,0,15,,,,,,,,,,,,,,,,13,,52,48
16440,note_on,,0,0,16,,,,,,,,,,,,,,,,15,,68,48
16440,note_on,,1,0,12,,,,,,,,,,,,,,,,10,,76,72
16440,note_on,,1,0,13,,,,,,,,,,,,,,,,11,,68,72
16440,note_on,,1,0,14,,,,,,,,,,,,,,,,12,,59,72
16440,note_on,,0,0,16,,,,,,,,,,,,,,,,15,,71,48
16559,note_on,,119,0,14,,,,,,,,,,,,,,,,12,,59,0
16559,note_on,,0,0,16,,,,,,,,,,,,,,,,15,,64,0
16559,note_on,,0,0,16,,,,,,,,,,,,,,,,15,,68,0
16559,note_on,,119,0,16,,,,,,,,,,,,,,,,15,,52,0
16559,note_on,,119,0,15,,,,,,,,,,,,,,,,13,,52,0
16559,note_on,,0,0,16,,,,,,,,,,,,,,,,15,,71,0
16559,note_on,,119,0,13,,,,,,,,,,,,,,,,11,,68,0
16559,note_on,,119,0,12,,,,,,,,,,,,,,,,10,,76,0
16559,note_on,,119,0,7,,,,,,,,,,,,,,,,2,,52,0
16560,note_on,,1,0,13,,,,,,,,,,,,,,,,11,,64,72
16560,note_on,,0,0,16,,,,,,,,,,,,,,,,15,,73,48
16560,note_on,,0,0,16,,,,,,,,,,,,,,,,15,,69,48
16560,note_on,,0,0,16,,,,,,,,,,,,,,,,15,,64,48
16560,note_on,,1,0,14,,,,,,,,,,,,,,,,12,,69,72
16560,note_on,,1,0,12,,,,,,,,,,,,,,,,10,,73,72
16560,note_on,,1,0,15,,,,,,,,,,,,,,,,13,,57,48
16560,note_on,,1,0,7,,,,,,,,,,,,,,,,2,,57,48
16560,note_on,,1,0,16,,,,,,,,,,,,,,,,15,,57,48
16679,note_on,,119,0,13,,,,,,,,,,,,,,,,11,,64,0
16679,note_on,,119,0,14,,,,,,,,,,,,,,,,12,,69,0
16679,note_on,,119,0,16,,,,,,,,,,,,,,,,15,,73,0
16679,note_on,,0,0,16,,,,,,,,,,,,,,,,15,,69,0
16679,note_on,,119,0,12,,,,,,,,,,,,,,,,10,,73,0
16679,note_on,,0,0,16,,,,,,,,,,,,,,,,15,,64,0
16680,note_on,,3001,0,10,,,,,,,,,,,,,,,,7,,57,78
16680,note_on,,0,0,16,,,,,,,,,,,,,,,,15,,61,48
16680,note_on,,1,0,16,,,,,,,,,,,,,,,,15,,64,48
16799,note_on,,119,0,16,,,,,,,,,,,,,,,,15,,57,0
16799,note_on,,0,0,16,,,,,,,,,,,,,,,,15,,64,0
16799,note_on,,0,0,16,,,,,,,,,,,,,,,,15,,61,0
16799,note_on,,119,0,10,,,,,,,,,,,,,,,,7,,57,0
16799,note_on,,239,0,7,,,,,,,,,,,,,,,,2,,57,0
16799,note_on,,239,0,15,,,,,,,,,,,,,,,,13,,57,0
16800,note_on,,0,0,16,,,,,,,,,,,,,,,,15,,59,48
16800,note_on,,0,0,16,,,,,,,,,,,,,,,,15,,62,48
16800,note_on,,0,0,16,,,,,,,,,,,,,,,,15,,64,48
16800,note_on,,0,0,16,,,,,,,,,,,,,,,,15,,71,48
16800,note_on,,1,0,16,,,,,,,,,,,,,,,,15,,56,48
16800,note_on,,1,0,7,,,,,,,,,,,,,,,,2,,56,48
16800,note_on,,1,0,15,,,,,,,,,,,,,,,,13,,56,48
16800,note_on,,1,0,10,,,,,,,,,,,,,,,,7,,62,78
16919,note_on,,0,0,16,,,,,,,,,,,,,,,,15,,71,0
16919,note_on,,119,0,7,,,,,,,,,,,,,,,,2,,56,0
16919,note_on,,0,0,16,,,,,,,,,,,,,,,,15,,59,0
16919,note_on,,0,0,16,,,,,,,,,,,,,,,,15,,62,0
16919,note_on,,0,0,16,,,,,,,,,,,,,,,,15,,64,0
16919,note_on,,119,0,16,,,,,,,,,,,,,,,,15,,56,0
16919,note_on,,119,0,15,,,,,,,,,,,,,,,,13,,56,0
16919,note_on,,119,0,10,,,,,,,,,,,,,,,,7,,62,0
16920,note_on,,1,0,10,,,,,,,,,,,,,,,,7,,61,78
16920,note_on,,1,0,16,,,,,,,,,,,,,,,,15,,57,48
16920,note_on,,0,0,16,,,,,,,,,,,,,,,,15,,64,48
16920,note_on,,0,0,16,,,,,,,,,,,,,,,,15,,61,48
16920,note_on,,1,0,15,,,,,,,,,,,,,,,,13,,57,48
16920,note_on,,1,0,7,,,,,,,,,,,,,,,,2,,57,48
16979,note_on,,59,0,10,,,,,,,,,,,,,,,,7,,61,0
16980,note_on,,1,0,10,,,,,,,,,,,,,,,,7,,59,78
17039,note_on,,119,0,7,,,,,,,,,,,,,,,,2,,57,0
17039,note_on,,59,0,10,,,,,,,,,,,,,,,,7,,59,0
17039,note_on,,119,0,16,,,,,,,,,,,,,,,,15,,57,0
17039,note_on,,0,0,16,,,,,,,,,,,,,,,,15,,64,0
17039,note_on,,0,0,16,,,,,,,,,,,,,,,,15,,61,0
17039,note_on,,119,0,15,,,,,,,,,,,,,,,,13,,57,0
17040,note_on,,1,0,16,,,,,,,,,,,,,,,,15,,54,48
17040,note_on,,0,0,16,,,,,,,,,,,,,,,,15,,69,48
17040,note_on,,0,0,16,,,,,,,,,,,,,,,,15,,62,48
17040,note_on,,0,0,16,,,,,,,,,,,,,,,,15,,57,48
17040,note_on,,1,0,7,,,,,,,,,,,,,,,,2,,54,48
17040,note_on,,1,0,15,,,,,,,,,,,,,,,,13,,54,48
17040,note_on,,1,0,10,,,,,,,,,,,,,,,,7,,57,78
17159,note_on,,119,0,10,,,,,,,,,,,,,,,,7,,57,0
17159,note_on,,119,0,7,,,,,,,,,,,,,,,,2,,54,0
17159,note_on,,0,0,16,,,,,,,,,,,,,,,,15,,57,0
17159,note_on,,0,0,16,,,,,,,,,,,,,,,,15,,62,0
17159,note_on,,119,0,15,,,,,,,,,,,,,,,,13,,54,0
17159,note_on,,119,0,16,,,,,,,,,,,,,,,,15,,54,0
17159,note_on,,0,0,16,,,,,,,,,,,,,,,,15,,69,0
17160,note_on,,1,0,16,,,,,,,,,,,,,,,,15,,50,48
17160,note_on,,0,0,16,,,,,,,,,,,,,,,,15,,57,48
17160,note_on,,1,0,7,,,,,,,,,,,,,,,,2,,50,48
17160,note_on,,1,0,15,,,,,,,,,,,,,,,,13,,50,48
17160,note_on,,0,0,16,,,,,,,,,,,,,,,,15,,66,48
17160,note_on,,0,0,16,,,,,,,,,,,,,,,,15,,62,48
17160,note_on,,1,0,10,,,,,,,,,,,,,,,,7,,62,78
17279,note_on,,119,0,7,,,,,,,,,,,,,,,,2,,50,0
17279,note_on,,119,0,16,,,,,,,,,,,,,,,,15,,50,0
17279,note_on,,0,0,16,,,,,,,,,,,,,,,,15,,57,0
17279,note_on,,0,0,16,,,,,,,,,,,,,,,,15,,66,0
17279,note_on,,0,0,16,,,,,,,,,,,,,,,,15,,62,0
17279,note_on,,119,0,10,,,,,,,,,,,,,,,,7,,62,0
17279,note_on,,119,0,15,,,,,,,,,,,,,,,,13,,50,0
17280,note_on,,1,0,10,,,,,,,,,,,,,,,,7,,61,78
17280,note_on,,1,0,15,,,,,,,,,,,,,,,,13,,57,48
17280,note_on,,1,0,7,,,,,,,,,,,,,,,,2,,57,48
17280,note_on,,0,0,16,,,,,,,,,,,,,,,,15,,61,48
17280,note_on,,0,0,16,,,,,,,,,,,,,,,,15,,64,48
17280,note_on,,1,0,16,,,,,,,,,,,,,,,,15,,57,48
17339,note_on,,59,0,10,,,,,,,,,,,,,,,,7,,61,0
17340,note_on,,1,0,10,,,,,,,,,,,,,,,,7,,59,78
17399,note_on,,119,0,7,,,,,,,,,,,,,,,,2,,57,0
17399,note_on,,59,0,10,,,,,,,,,,,,,,,,7,,59,0
17399,note_on,,0,0,16,,,,,,,,,,,,,,,,15,,61,0
17399,note_on,,119,0,16,,,,,,,,,,,,,,,,15,,64,0
17399,note_on,,119,0,15,,,,,,,,,,,,,,,,13,,57,0
17400,note_on,,1,0,7,,,,,,,,,,,,,,,,2,,54,48
17400,note_on,,1,0,10,,,,,,,,,,,,,,,,7,,57,78
17400,note_on,,1,0,15,,,,,,,,,,,,,,,,13,,54,48
17400,note_on,,1,0,16,,,,,,,,,,,,,,,,15,,54,48
17400,note_on,,0,0,16,,,,,,,,,,,,,,,,15,,66,48
17400,note_on,,0,0,16,,,,,,,,,,,,,,,,15,,62,48
17519,note_on,,119,0,10,,,,,,,,,,,,,,,,7,,57,0
17519,note_on,,119,0,7,,,,,,,,,,,,,,,,2,,54,0
17519,note_on,,119,0,16,,,,,,,,,,,,,,,,15,,57,0
17519,note_on,,0,0,16,,,,,,,,,,,,,,,,15,,54,0
17519,note_on,,0,0,16,,,,,,,,,,,,,,,,15,,66,0
17519,note_on,,0,0,16,,,,,,,,,,,,,,,,15,,62,0
17519,note_on,,119,0,15,,,,,,,,,,,,,,,,13,,54,0
17520,note_on,,1,0,10,,,,,,,,,,,,,,,,7,,62,78
17520,note_on,,0,0,16,,,,,,,,,,,,,,,,15,,69,48
17520,note_on,,1,0,15,,,,,,,,,,,,,,,,13,,50,48
17520,note_on,,0,0,16,,,,,,,,,,,,,,,,15,,66,48
17520,note_on,,0,0,16,,,,,,,,,,,,,,,,15,,62,48
17520,note_on,,0,0,16,,,,,,,,,,,,,,,,15,,57,48
17520,note_on,,1,0,7,,,,,,,,,,,,,,,,2,,50,48
17520,note_on,,1,0,16,,,,,,,,,,,,,,,,15,,50,48
17639,note_on,,119,0,10,,,,,,,,,,,,,,,,7,,62,0
17639,note_on,,119,0,15,,,,,,,,,,,,,,,,13,,50,0
17639,note_on,,119,0,7,,,,,,,,,,,,,,,,2,,50,0
17639,note_on,,119,0,16,,,,,,,,,,,,,,,,15,,50,0
17639,note_on,,0,0,16,,,,,,,,,,,,,,,,15,,57,0
17639,note_on,,0,0,16,,,,,,,,,,,,,,,,15,,69,0
17639,note_on,,0,0,16,,,,,,,,,,,,,,,,15,,66,0
17639,note_on,,0,0,16,,,,,,,,,,,,,,,,15,,62,0
17640,note_on,,1,0,15,,,,,,,,,,,,,,,,13,,57,48
17640,note_on,,1,0,16,,,,,,,,,,,,,,,,15,,57,48
17640,note_on,,0,0,16,,,,,,,,,,,,,,,,15,,69,48
17640,note_on,,0,0,16,,,,,,,,,,,,,,,,15,,64,48
17640,note_on,,0,0,16,,,,,,,,,,,,,,,,15,,61,48
17640,note_on,,1,0,7,,,,,,,,,,,,,,,,2,,57,48
17640,note_on,,1,0,10,,,,,,,,,,,,,,,,7,,61,78
17699,note_on,,59,0,10,,,,,,,,,,,,,,,,7,,61,0
17700,note_on,,1,0,10,,,,,,,,,,,,,,,,7,,59,78
17759,note_on,,0,0,16,,,,,,,,,,,,,,,,15,,69,0
17759,note_on,,0,0,16,,,,,,,,,,,,,,,,15,,64,0
17759,note_on,,119,0,15,,,,,,,,,,,,,,,,13,,57,0
17759,note_on,,119,0,16,,,,,,,,,,,,,,,,15,,57,0
17759,note_on,,0,0,16,,,,,,,,,,,,,,,,15,,61,0
17759,note_on,,59,0,10,,,,,,,,,,,,,,,,7,,59,0
17759,note_on,,119,0,7,,,,,,,,,,,,,,,,2,,57,0
17760,note_on,,0,0,16,,,,,,,,,,,,,,,,15,,74,72
17760,note_on,,1,0,16,,,,,,,,,,,,,,,,15,,54,72
17760,note_on,,0,0,16,,,,,,,,,,,,,,,,15,,57,72
17760,note_on,,0,0,16,,,,,,,,,,,,,,,,15,,62,72
17760,note_on,,0,0,16,,,,,,,,,,,,,,,,15,,69,72
17760,note_on,,1081,0,12,,,,,,,,,,,,,,,,10,,81,72
17760,note_on,,1,0,10,,,,,,,,,,,,,,,,7,,57,78
17760,note_on,,1081,0,14,,,,,,,,,,,,,,,,12,,69,72
17760,note_on,,1,0,7,,,,,,,,,,,,,,,,2,,54,72
17760,note_on,,1,0,15,,,,,,,,,,,,,,,,13,,54,72
17760,note_on,,1081,0,13,,,,,,,,,,,,,,,,11,,74,72
17879,note_on,,119,0,12,,,,,,,,,,,,,,,,10,,81,0
17879,note_on,,0,0,16,,,,,,,,,,,,,,,,15,,69,0
17879,note_on,,119,0,7,,,,,,,,,,,,,,,,2,,54,0
17879,note_on,,119,0,16,,,,,,,,,,,,,,,,15,,54,0
17879,note_on,,0,0,16,,,,,,,,,,,,,,,,15,,57,0
17879,note_on,,0,0,16,,,,,,,,,,,,,,,,15,,62,0
17879,note_on,,119,0,15,,,,,,,,,,,,,,,,13,,54,0
17879,note_on,,119,0,14,,,,,,,,,,,,,,,,12,,69,0
17879,note_on,,0,0,16,,,,,,,,,,,,,,,,15,,74,0
17879,note_on,,119,0,13,,,,,,,,,,,,,,,,11,,74,0
17879,note_on,,119,0,10,,,,,,,,,,,,,,,,7,,57,0
17880,note_on,,0,0,16,,,,,,,,,,,,,,,,15,,69,72
17880,note_on,,1,0,16,,,,,,,,,,,,,,,,15,,50,72
17880,note_on,,0,0,16,,,,,,,,,,,,,,,,15,,74,72
17880,note_on,,1,0,14,,,,,,,,,,,,,,,,12,,69,72
17880,note_on,,1,0,13,,,,,,,,,,,,,,,,11,,78,72
17880,note_on,,1,0,12,,,,,,,,,,,,,,,,10,,86,72
17880,note_on,,0,0,16,,,,,,,,,,,,,,,,15,,78,72
17880,note_on,,1,0,7,,,,,,,,,,,,,,,,2,,50,72
17880,note_on,,0,0,16,,,,,,,,,,,,,,,,15,,57,72
17880,note_on,,1,0,15,,,,,,,,,,,,,,,,13,,50,72
17999,note_on,,0,0,16,,,,,,,,,,,,,,,,15,,74,0
17999,note_on,,0,0,16,,,,,,,,,,,,,,,,15,,69,0
17999,note_on,,0,0,16,,,,,,,,,,,,,,,,15,,57,0
17999,note_on,,119,0,12,,,,,,,,,,,,,,,,10,,86,0
17999,note_on,,0,0,16,,,,,,,,,,,,,,,,15,,78,0
17999,note_on,,119,0,15,,,,,,,,,,,,,,,,13,,50,0
17999,note_on,,119,0,16,,,,,,,,,,,,,,,,15,,50,0
17999,note_on,,119,0,13,,,,,,,,,,,,,,,,11,,78,0
17999,note_on,,119,0,14,,,,,,,,,,,,,,,,12,,69,0
17999,note_on,,119,0,7,,,,,,,,,,,,,,,,2,,50,0
18000,note_on,,4321,0,11,,,,,,,,,,,,,,,,8,,57,88
18000,note_on,,1,0,7,,,,,,,,,,,,,,,,2,,57,72
18000,note_on,,121,0,10,,,,,,,,,,,,,,,,7,,57,88
18000,note_on,,1,0,14,,,,,,,,,,,,,,,,12,,69,72
18000,note_on,,1,0,15,,,,,,,,,,,,,,,,13,,57,72
18000,note_on,,0,0,16,,,,,,,,,,,,,,,,15,,76,72
18000,note_on,,0,0,16,,,,,,,,,,,,,,,,15,,73,72
18000,note_on,,0,0,16,,,,,,,,,,,,,,,,15,,69,72
18000,note_on,,0,0,16,,,,,,,,,,,,,,,,15,,64,72
18000,note_on,,1,0,12,,,,,,,,,,,,,,,,10,,85,72
18000,note_on,,1,0,13,,,,,,,,,,,,,,,,11,,76,72
18000,note_on,,1,0,16,,,,,,,,,,,,,,,,15,,57,72
18059,note_on,,59,0,12,,,,,,,,,,,,,,,,10,,85,0
18059,note_on,,59,0,13,,,,,,,,,,,,,,,,11,,76,0
18060,note_on,,1,0,13,,,,,,,,,,,,,,,,11,,74,72
18060,note_on,,1,0,12,,,,,,,,,,,,,,,,10,,83,72
18119,note_on,,119,0,14,,,,,,,,,,,,,,,,12,,69,0
18119,note_on,,59,0,13,,,,,,,,,,,,,,,,11,,74,0
18119,note_on,,59,0,12,,,,,,,,,,,,,,,,10,,83,0
18120,note_on,,1,0,14,,,,,,,,,,,,,,,,12,,64,72
18120,note_on,,1,0,12,,,,,,,,,,,,,,,,10,,81,72
18120,note_on,,1,0,13,,,,,,,,,,,,,,,,11,,73,72
18239,note_on,,119,0,13,,,,,,,,,,,,,,,,11,,73,0
18239,note_on,,119,0,12,,,,,,,,,,,,,,,,10,,81,0
18239,note_on,,119,0,14,,,,,,,,,,,,,,,,12,,64,0
18359,note_on,,0,0,16,,,,,,,,,,,,,,,,15,,64,0
18359,note_on,,0,0,16,,,,,,,,,,,,,,,,15,,69,0
18359,note_on,,0,0,16,,,,,,,,,,,,,,,,15,,73,0
18359,note_on,,0,0,16,,,,,,,,,,,,,,,,15,,76,0
18359,note_on,,359,0,10,,,,,,,,,,,,,,,,7,,57,0
18359,note_on,,359,0,15,,,,,,,,,,,,,,,,13,,57,0
18359,note_on,,359,0,7,,,,,,,,,,,,,,,,2,,57,0
18359,note_on,,359,0,16,,,,,,,,,,,,,,,,15,,57,0
18359,note_on,,359,0,11,,,,,,,,,,,,,,,,8,,57,0
18360,note_on,,1,0,11,,,,,,,,,,,,,,,,8,,57,88
18360,note_on,,1,0,7,,,,,,,,,,,,,,,,2,,57,72
18360,note_on,,0,0,16,,,,,,,,,,,,,,,,15,,61,72
18360,note_on,,1,0,16,,,,,,,,,,,,,,,,15,,57,72
18360,note_on,,0,0,16,,,,,,,,,,,,,,,,15,,69,72
18360,note_on,,0,0,16,,,,,,,,,,,,,,,,15,,64,72
18360,note_on,,1,0,15,,,,,,,,,,,,,,,,13,,57,72
18360,note_on,,1,0,10,,,,,,,,,,,,,,,,7,,57,88
18719,note_on,,0,0,16,,,,,,,,,,,,,,,,15,,69,0
18719,note_on,,0,0,16,,,,,,,,,,,,,,,,15,,64,0
18719,note_on,,359,0,16,,,,,,,,,,,,,,,,15,,57,0
18719,note_on,,359,0,15,,,,,,,,,,,,,,,,13,,57,0
18719,note_on,,359,0,11,,,,,,,,,,,,,,,,8,,57,0
18719,note_on,,359,0,7,,,,,,,,,,,,,,,,2,,57,0
18719,note_on,,359,0,10,,,,,,,,,,,,,,,,7,,57,0
18719,note_on,,0,0,16,,,,,,,,,,,,,,,,15,,61,0
18720,note_on,,0,0,16,,,,,,,,,,,,,,,,15,,73,72
18720,note_on,,0,0,16,,,,,,,,,,,,,,,,15,,69,72
18720,note_on,,0,0,16,,,,,,,,,,,,,,,,15,,81,72
18720,note_on,,0,0,16,,,,,,,,,,,,,,,,15,,64,72
18720,note_on,,1,0,10,,,,,,,,,,,,,,,,7,,57,88
18720,note_on,,1,0,11,,,,,,,,,,,,,,,,8,,57,88
18720,note_on,,1,0,15,,,,,,,,,,,,,,,,13,,57,72
18720,note_on,,1,0,16,,,,,,,,,,,,,,,,15,,57,72
18720,note_on,,1,0,7,,,,,,,,,,,,,,,,2,,57,72
18840,note_on,,5161,0,6,,,,,,,,,,,,,,,,1,,69,72
18840,note_on,,5161,0,8,,,,,,,,,,,,,,,,5,,69,88
18840,note_on,,5161,0,5,,,,,,,,,,,,,,,,0,,69,72
18840,note_on,,601,0,13,,,,,,,,,,,,,,,,11,,73,72
18840,note_on,,601,0,12,,,,,,,,,,,,,,,,10,,81,72
18840,note_on,,2401,0,9,,,,,,,,,,,,,,,,6,,61,88
18840,note_on,,601,0,14,,,,,,,,,,,,,,,,12,,69,72
18959,note_on,,119,0,8,,,,,,,,,,,,,,,,5,,69,0
18959,note_on,,119,0,9,,,,,,,,,,,,,,,,6,,61,0
18959,note_on,,119,0,13,,,,,,,,,,,,,,,,11,,73,0
18959,note_on,,119,0,5,,,,,,,,,,,,,,,,0,,69,0
18959,note_on,,119,0,12,,,,,,,,,,,,,,,,10,,81,0
18959,note_on,,119,0,14,,,,,,,,,,,,,,,,12,,69,0
18959,note_on,,239,0,16,,,,,,,,,,,,,,,,15,,81,0
18959,note_on,,0,0,16,,,,,,,,,,,,,,,,15,,73,0
18959,note_on,,0,0,16,,,,,,,,,,,,,,,,15,,69,0
18959,note_on,,0,0,16,,,,,,,,,,,,,,,,15,,64,0
18959,note_on,,119,0,6,,,,,,,,,,,,,,,,1,,69,0
18960,note_on,,1,0,5,,,,,,,,,,,,,,,,0,,74,72
18960,note_on,,1,0,14,,,,,,,,,,,,,,,,12,,69,72
18960,note_on,,1,0,9,,,,,,,,,,,,,,,,6,,66,88
18960,note_on,,0,0,16,,,,,,,,,,,,,,,,15,,69,72
18960,note_on,,0,0,16,,,,,,,,,,,,,,,,15,,62,72
18960,note_on,,1,0,8,,,,,,,,,,,,,,,,5,,74,88
18960,note_on,,1,0,13,,,,,,,,,,,,,,,,11,,78,72
18960,note_on,,1,0,16,,,,,,,,,,,,,,,,15,,78,72
18960,note_on,,0,0,16,,,,,,,,,,,,,,,,15,,74,72
18960,note_on,,1,0,12,,,,,,,,,,,,,,,,10,,86,72
18960,note_on,,1,0,6,,,,,,,,,,,,,,,,1,,74,72
19079,note_on,,0,0,16,,,,,,,,,,,,,,,,15,,62,0
19079,note_on,,119,0,6,,,,,,,,,,,,,,,,1,,74,0
19079,note_on,,119,0,5,,,,,,,,,,,,,,,,0,,74,0
19079,note_on,,0,0,16,,,,,,,,,,,,,,,,15,,69,0
19079,note_on,,359,0,10,,,,,,,,,,,,,,,,7,,57,0
19079,note_on,,119,0,14,,,,,,,,,,,,,,,,12,,69,0
19079,note_on,,359,0,11,,,,,,,,,,,,,,,,8,,57,0
19079,note_on,,119,0,8,,,,,,,,,,,,,,,,5,,74,0
19079,note_on,,359,0,15,,,,,,,,,,,,,,,,13,,57,0
19079,note_on,,0,0,16,,,,,,,,,,,,,,,,15,,74,0
19079,note_on,,119,0,12,,,,,,,,,,,,,,,,10,,86,0
19079,note_on,,119,0,13,,,,,,,,,,,,,,,,11,,78,0
19079,note_on,,0,0,16,,,,,,,,,,,,,,,,15,,78,0
19079,note_on,,119,0,16,,,,,,,,,,,,,,,,15,,57,0
19079,note_on,,359,0,7,,,,,,,,,,,,,,,,2,,57,0
19079,note_on,,119,0,9,,,,,,,,,,,,,,,,6,,66,0
19080,note_on,,1,0,16,,,,,,,,,,,,,,,,15,,57,72
19080,note_on,,0,0,16,,,,,,,,,,,,,,,,15,,69,72
19080,note_on,,1,0,5,,,,,,,,,,,,,,,,0,,73,72
19080,note_on,,1,0,14,,,,,,,,,,,,,,,,12,,69,72
19080,note_on,,0,0,16,,,,,,,,,,,,,,,,15,,64,72
19080,note_on,,1,0,12,,,,,,,,,,,,,,,,10,,85,72
19080,note_on,,1,0,9,,,,,,,,,,,,,,,,6,,64,88
19080,note_on,,1,0,7,,,,,,,,,,,,,,,,2,,57,72
19080,note_on,,1,0,6,,,,,,,,,,,,,,,,1,,73,72
19080,note_on,,1,0,8,,,,,,,,,,,,,,,,5,,73,88
19080,note_on,,1,0,11,,,,,,,,,,,,,,,,8,,57,88
19080,note_on,,1,0,10,,,,,,,,,,,,,,,,7,,57,88
19080,note_on,,1,0,15,,,,,,,,,,,,,,,,13,,57,72
19080,note_on,,0,0,16,,,,,,,,,,,,,,,,15,,73,72
19080,note_on,,0,0,16,,,,,,,,,,,,,,,,15,,76,72
19080,note_on,,1,0,13,,,,,,,,,,,,,,,,11,,76,72
19139,note_on,,59,0,6,,,,,,,,,,,,,,,,1,,73,0
19139,note_on,,59,0,8,,,,,,,,,,,,,,,,5,,73,0
19139,note_on,,59,0,12,,,,,,,,,,,,,,,,10,,85,0
19139,note_on,,59,0,9,,,,,,,,,,,,,,,,6,,64,0
19139,note_on,,59,0,13,,,,,,,,,,,,,,,,11,,76,0
19139,note_on,,59,0,5,,,,,,,,,,,,,,,,0,,73,0
19140,note_on,,1,0,12,,,,,,,,,,,,,,,,10,,83,72
19140,note_on,,1,0,6,,,,,,,,,,,,,,,,1,,71,72
19140,note_on,,1,0,9,,,,,,,,,,,,,,,,6,,62,88
19140,note_on,,1,0,8,,,,,,,,,,,,,,,,5,,71,88
19140,note_on,,1,0,13,,,,,,,,,,,,,,,,11,,74,72
19140,note_on,,1,0,5,,,,,,,,,,,,,,,,0,,71,72
19199,note_on,,59,0,12,,,,,,,,,,,,,,,,10,,83,0
19199,note_on,,59,0,6,,,,,,,,,,,,,,,,1,,71,0
19199,note_on,,59,0,5,,,,,,,,,,,,,,,,0,,71,0
19199,note_on,,59,0,13,,,,,,,,,,,,,,,,11,,74,0
19199,note_on,,59,0,8,,,,,,,,,,,,,,,,5,,71,0
19199,note_on,,59,0,9,,,,,,,,,,,,,,,,6,,62,0
19200,note_on,,1,0,6,,,,,,,,,,,,,,,,1,,69,72
19200,note_on,,1,0,9,,,,,,,,,,,,,,,,6,,61,88
19200,note_on,,1,0,13,,,,,,,,,,,,,,,,11,,73,72
19200,note_on,,1,0,12,,,,,,,,,,,,,,,,10,,81,72
19200,note_on,,1,0,8,,,,,,,,,,,,,,,,5,,69,88
19200,note_on,,1,0,5,,,,,,,,,,,,,,,,0,,69,72
19319,note_on,,239,0,16,,,,,,,,,,,,,,,,15,,57,0
19319,note_on,,0,0,16,,,,,,,,,,,,,,,,15,,64,0
19319,note_on,,0,0,16,,,,,,,,,,,,,,,,15,,73,0
19319,note_on,,0,0,16,,,,,,,,,,,,,,,,15,,76,0
19319,note_on,,0,0,16,,,,,,,,,,,,,,,,15,,69,0
19319,note_on,,119,0,5,,,,,,,,,,,,,,,,0,,69,0
19319,note_on,,119,0,8,,,,,,,,,,,,,,,,5,,69,0
19319,note_on,,239,0,11,,,,,,,,,,,,,,,,8,,57,0
19319,note_on,,119,0,6,,,,,,,,,,,,,,,,1,,69,0
19319,note_on,,239,0,10,,,,,,,,,,,,,,,,7,,57,0
19319,note_on,,119,0,12,,,,,,,,,,,,,,,,10,,81,0
19319,note_on,,119,0,13,,,,,,,,,,,,,,,,11,,73,0
19319,note_on,,239,0,15,,,,,,,,,,,,,,,,13,,57,0
19319,note_on,,239,0,7,,,,,,,,,,,,,,,,2,,57,0
19319,note_on,,239,0,14,,,,,,,,,,,,,,,,12,,69,0
19319,note_on,,119,0,9,,,,,,,,,,,,,,,,6,,61,0
19320,note_on,,0,0,16,,,,,,,,,,,,,,,,15,,62,72
19320,note_on,,1,0,7,,,,,,,,,,,,,,,,2,,57,72
19320,note_on,,1,0,5,,,,,,,,,,,,,,,,0,,74,72
19320,note_on,,1,0,8,,,,,,,,,,,,,,,,5,,74,88
19320,note_on,,1,0,15,,,,,,,,,,,,,,,,13,,57,72
19320,note_on,,1,0,12,,,,,,,,,,,,,,,,10,,86,72
19320,note_on,,1,0,11,,,,,,,,,,,,,,,,8,,57,88
19320,note_on,,1,0,9,,,,,,,,,,,,,,,,6,,66,88
19320,note_on,,0,0,16,,,,,,,,,,,,,,,,15,,74,72
19320,note_on,,0,0,16,,,,,,,,,,,,,,,,15,,69,72
19320,note_on,,0,0,16,,,,,,,,,,,,,,,,15,,81,72
19320,note_on,,1,0,6,,,,,,,,,,,,,,,,1,,74,72
19320,note_on,,1,0,10,,,,,,,,,,,,,,,,7,,57,88
19320,note_on,,0,0,16,,,,,,,,,,,,,,,,15,,78,72
19320,note_on,,1,0,14,,,,,,,,,,,,,,,,12,,57,72
19320,note_on,,1,0,13,,,,,,,,,,,,,,,,11,,78,72
19320,note_on,,1,0,16,,,,,,,,,,,,,,,,15,,57,72
19439,note_on,,0,0,16,,,,,,,,,,,,,,,,15,,69,0
19439,note_on,,119,0,7,,,,,,,,,,,,,,,,2,,57,0
19439,note_on,,119,0,11,,,,,,,,,,,,,,,,8,,57,0
19439,note_on,,119,0,6,,,,,,,,,,,,,,,,1,,74,0
19439,note_on,,119,0,5,,,,,,,,,,,,,,,,0,,74,0
19439,note_on,,119,0,9,,,,,,,,,,,,,,,,6,,66,0
19439,note_on,,0,0,16,,,,,,,,,,,,,,,,15,,74,0
19439,note_on,,119,0,13,,,,,,,,,,,,,,,,11,,78,0
19439,note_on,,119,0,16,,,,,,,,,,,,,,,,15,,57,0
19439,note_on,,0,0,16,,,,,,,,,,,,,,,,15,,81,0
19439,note_on,,119,0,12,,,,,,,,,,,,,,,,10,,86,0
19439,note_on,,119,0,15,,,,,,,,,,,,,,,,13,,57,0
19439,note_on,,119,0,10,,,,,,,,,,,,,,,,7,,57,0
19439,note_on,,0,0,16,,,,,,,,,,,,,,,,15,,78,0
19439,note_on,,119,0,14,,,,,,,,,,,,,,,,12,,57,0
19439,note_on,,0,0,16,,,,,,,,,,,,,,,,15,,62,0
19439,note_on,,119,0,8,,,,,,,,,,,,,,,,5,,74,0
19440,note_on,,1,0,7,,,,,,,,,,,,,,,,2,,57,72
19440,note_on,,1,0,16,,,,,,,,,,,,,,,,15,,57,72
19440,note_on,,1,0,11,,,,,,,,,,,,,,,,8,,57,88
19440,note_on,,1,0,9,,,,,,,,,,,,,,,,6,,64,88
19440,note_on,,1,0,10,,,,,,,,,,,,,,,,7,,57,88
19440,note_on,,0,0,16,,,,,,,,,,,,,,,,15,,81,72
19440,note_on,,0,0,16,,,,,,,,,,,,,,,,15,,76,72
19440,note_on,,1,0,12,,,,,,,,,,,,,,,,10,,85,72
19440,note_on,,0,0,16,,,,,,,,,,,,,,,,15,,73,72
19440,note_on,,0,0,16,,,,,,,,,,,,,,,,15,,69,72
19440,note_on,,0,0,16,,,,,,,,,,,,,,,,15,,64,72
19440,note_on,,1,0,13,,,,,,,,,,,,,,,,11,,76,72
19440,note_on,,0,0,16,,,,,,,,,,,,,,,,15,,61,72
19440,note_on,,1,0,8,,,,,,,,,,,,,,,,5,,73,88
19440,note_on,,1,0,14,,,,,,,,,,,,,,,,12,,69,72
19440,note_on,,1,0,15,,,,,,,,,,,,,,,,13,,57,72
19440,note_on,,1,0,6,,,,,,,,,,,,,,,,1,,73,72
19440,note_on,,1,0,5,,,,,,,,,,,,,,,,0,,73,72
19499,note_on,,59,0,13,,,,,,,,,,,,,,,,11,,76,0
19499,note_on,,59,0,5,,,,,,,,,,,,,,,,0,,73,0
19499,note_on,,59,0,6,,,,,,,,,,,,,,,,1,,73,0
19499,note_on,,59,0,12,,,,,,,,,,,,,,,,10,,85,0
19499,note_on,,59,0,9,,,,,,,,,,,,,,,,6,,64,0
19499,note_on,,59,0,8,,,,,,,,,,,,,,,,5,,73,0
19500,note_on,,1,0,5,,,,,,,,,,,,,,,,0,,71,72
19500,note_on,,1,0,6,,,,,,,,,,,,,,,,1,,71,72
19500,note_on,,1,0,9,,,,,,,,,,,,,,,,6,,62,88
19500,note_on,,1,0,13,,,,,,,,,,,,,,,,11,,74,72
19500,note_on,,1,0,12,,,,,,,,,,,,,,,,10,,83,72
19500,note_on,,1,0,8,,,,,,,,,,,,,,,,5,,71,88
19559,note_on,,59,0,8,,,,,,,,,,,,,,,,5,,71,0
19559,note_on,,59,0,5,,,,,,,,,,,,,,,,0,,71,0
19559,note_on,,59,0,9,,,,,,,,,,,,,,,,6,,62,0
19559,note_on,,59,0,13,,,,,,,,,,,,,,,,11,,74,0
19559,note_on,,59,0,12,,,,,,,,,,,,,,,,10,,83,0
19559,note_on,,59,0,6,,,,,,,,,,,,,,,,1,,71,0
19560,note_on,,1,0,5,,,,,,,,,,,,,,,,0,,69,72
19560,note_on,,1,0,13,,,,,,,,,,,,,,,,11,,73,72
19560,note_on,,1,0,12,,,,,,,,,,,,,,,,10,,81,72
19560,note_on,,1,0,9,,,,,,,,,,,,,,,,6,,61,88
19560,note_on,,1,0,6,,,,,,,,,,,,,,,,1,,69,72
19560,note_on,,1,0,8,,,,,,,,,,,,,,,,5,,69,88
19679,note_on,,239,0,7,,,,,,,,,,,,,,,,2,,57,0
19679,note_on,,239,0,11,,,,,,,,,,,,,,,,8,,57,0
19679,note_on,,239,0,15,,,,,,,,,,,,,,,,13,,57,0
19679,note_on,,119,0,13,,,,,,,,,,,,,,,,11,,73,0
19679,note_on,,239,0,10,,,,,,,,,,,,,,,,7,,57,0
19679,note_on,,0,0,16,,,,,,,,,,,,,,,,15,,64,0
19679,note_on,,119,0,5,,,,,,,,,,,,,,,,0,,69,0
19679,note_on,,0,0,16,,,,,,,,,,,,,,,,15,,69,0
19679,note_on,,119,0,8,,,,,,,,,,,,,,,,5,,69,0
19679,note_on,,0,0,16,,,,,,,,,,,,,,,,15,,76,0
19679,note_on,,0,0,16,,,,,,,,,,,,,,,,15,,81,0
19679,note_on,,239,0,16,,,,,,,,,,,,,,,,15,,57,0
19679,note_on,,119,0,12,,,,,,,,,,,,,,,,10,,81,0
19679,note_on,,119,0,9,,,,,,,,,,,,,,,,6,,61,0
19679,note_on,,239,0,14,,,,,,,,,,,,,,,,12,,69,0
19679,note_on,,119,0,6,,,,,,,,,,,,,,,,1,,69,0
19679,note_on,,0,0,16,,,,,,,,,,,,,,,,15,,73,0
19679,note_on,,0,0,16,,,,,,,,,,,,,,,,15,,61,0
19680,note_on,,0,0,16,,,,,,,,,,,,,,,,15,,69,72
19680,note_on,,1,0,15,,,,,,,,,,,,,,,,13,,57,72
19680,note_on,,0,0,16,,,,,,,,,,,,,,,,15,,61,72
19680,note_on,,0,0,16,,,,,,,,,,,,,,,,15,,76,72
19680,note_on,,1,0,16,,,,,,,,,,,,,,,,15,,57,72
19680,note_on,,1,0,9,,,,,,,,,,,,,,,,6,,69,88
19680,note_on,,1,0,11,,,,,,,,,,,,,,,,8,,57,88
19680,note_on,,1,0,7,,,,,,,,,,,,,,,,2,,57,72
19680,note_on,,1,0,10,,,,,,,,,,,,,,,,7,,57,88
19680,note_on,,1,0,5,,,,,,,,,,,,,,,,0,,73,72
19680,note_on,,1,0,8,,,,,,,,,,,,,,,,5,,73,88
19680,note_on,,1,0,14,,,,,,,,,,,,,,,,12,,69,72
19680,note_on,,1,0,12,,,,,,,,,,,,,,,,10,,85,72
19680,note_on,,1,0,6,,,,,,,,,,,,,,,,1,,73,72
19680,note_on,,1,0,13,,,,,,,,,,,,,,,,11,,81,72
19799,note_on,,119,0,16,,,,,,,,,,,,,,,,15,,57,0
19799,note_on,,0,0,16,,,,,,,,,,,,,,,,15,,76,0
19799,note_on,,0,0,16,,,,,,,,,,,,,,,,15,,69,0
19799,note_on,,0,0,16,,,,,,,,,,,,,,,,15,,61,0
19799,note_on,,119,0,15,,,,,,,,,,,,,,,,13,,57,0
19799,note_on,,119,0,12,,,,,,,,,,,,,,,,10,,85,0
19799,note_on,,119,0,5,,,,,,,,,,,,,,,,0,,73,0
19799,note_on,,119,0,6,,,,,,,,,,,,,,,,1,,73,0
19799,note_on,,119,0,14,,,,,,,,,,,,,,,,12,,69,0
19799,note_on,,119,0,9,,,,,,,,,,,,,,,,6,,69,0
19799,note_on,,119,0,8,,,,,,,,,,,,,,,,5,,73,0
19799,note_on,,119,0,10,,,,,,,,,,,,,,,,7,,57,0
19799,note_on,,119,0,11,,,,,,,,,,,,,,,,8,,57,0
19799,note_on,,119,0,7,,,,,,,,,,,,,,,,2,,57,0
19799,note_on,,119,0,13,,,,,,,,,,,,,,,,11,,81,0
19800,note_on,,1,0,6,,,,,,,,,,,,,,,,1,,74,72
19800,note_on,,1,0,8,,,,,,,,,,,,,,,,5,,74,88
19800,note_on,,1,0,10,,,,,,,,,,,,,,,,7,,66,88
19800,note_on,,1,0,15,,,,,,,,,,,,,,,,13,,59,72
19800,note_on,,1,0,11,,,,,,,,,,,,,,,,8,,59,88
19800,note_on,,1,0,13,,,,,,,,,,,,,,,,11,,81,72
19800,note_on,,1,0,7,,,,,,,,,,,,,,,,2,,59,72
19800,note_on,,1,0,14,,,,,,,,,,,,,,,,12,,66,72
19800,note_on,,0,0,16,,,,,,,,,,,,,,,,15,,66,72
19800,note_on,,0,0,16,,,,,,,,,,,,,,,,15,,69,72
19800,note_on,,0,0,16,,,,,,,,,,,,,,,,15,,74,72
19800,note_on,,1,0,9,,,,,,,,,,,,,,,,6,,69,88
19800,note_on,,1,0,16,,,,,,,,,,,,,,,,15,,59,72
19800,note_on,,1,0,5,,,,,,,,,,,,,,,,0,,74,72
19800,note_on,,1,0,12,,,,,,,,,,,,,,,,10,,86,72
19919,note_on,,119,0,9,,,,,,,,,,,,,,,,6,,69,0
19919,note_on,,119,0,10,,,,,,,,,,,,,,,,7,,66,0
19919,note_on,,119,0,13,,,,,,,,,,,,,,,,11,,81,0
19919,note_on,,119,0,14,,,,,,,,,,,,,,,,12,,66,0
19919,note_on,,0,0,16,,,,,,,,,,,,,,,,15,,66,0
19919,note_on,,0,0,16,,,,,,,,,,,,,,,,15,,69,0
19919,note_on,,119,0,16,,,,,,,,,,,,,,,,15,,59,0
19920,note_on,,0,0,16,,,,,,,,,,,,,,,,15,,71,72
19920,note_on,,1,0,13,,,,,,,,,,,,,,,,11,,80,72
19920,note_on,,1,0,10,,,,,,,,,,,,,,,,7,,62,88
19920,note_on,,0,0,16,,,,,,,,,,,,,,,,15,,68,72
19920,note_on,,1,0,14,,,,,,,,,,,,,,,,12,,62,72
19920,note_on,,1,0,9,,,,,,,,,,,,,,,,6,,68,88
19920,note_on,,1,0,16,,,,,,,,,,,,,,,,15,,62,72
19979,note_on,,179,0,12,,,,,,,,,,,,,,,,10,,86,0
19980,note_on,,1,0,12,,,,,,,,,,,,,,,,10,,85,72
20039,note_on,,239,0,7,,,,,,,,,,,,,,,,2,,59,0
20039,note_on,,59,0,12,,,,,,,,,,,,,,,,10,,85,0
20039,note_on,,239,0,15,,,,,,,,,,,,,,,,13,,59,0
20039,note_on,,239,0,11,,,,,,,,,,,,,,,,8,,59,0
20040,note_on,,1,0,12,,,,,,,,,,,,,,,,10,,86,72
20040,note_on,,120,0,16,,,,,,,,,,,,,,,,15,,59,72
20040,note_on,,1,0,15,,,,,,,,,,,,,,,,13,,59,72
20040,note_on,,1,0,7,,,,,,,,,,,,,,,,2,,59,72
20040,note_on,,1,0,11,,,,,,,,,,,,,,,,8,,59,88
20099,note_on,,59,0,12,,,,,,,,,,,,,,,,10,,86,0
20100,note_on,,1,0,12,,,,,,,,,,,,,,,,10,,88,72
20159,note_on,,0,0,16,,,,,,,,,,,,,,,,15,,62,0
20159,note_on,,0,0,16,,,,,,,,,,,,,,,,15,,71,0
20159,note_on,,0,0,16,,,,,,,,,,,,,,,,15,,68,0
20159,note_on,,0,0,16,,,,,,,,,,,,,,,,15,,59,0
20159,note_on,,359,0,8,,,,,,,,,,,,,,,,5,,74,0
20159,note_on,,239,0,10,,,,,,,,,,,,,,,,7,,62,0
20159,note_on,,239,0,14,,,,,,,,,,,,,,,,12,,62,0
20159,note_on,,119,0,16,,,,,,,,,,,,,,,,15,,74,0
20159,note_on,,119,0,7,,,,,,,,,,,,,,,,2,,59,0
20159,note_on,,239,0,13,,,,,,,,,,,,,,,,11,,80,0
20159,note_on,,59,0,12,,,,,,,,,,,,,,,,10,,88,0
20159,note_on,,239,0,9,,,,,,,,,,,,,,,,6,,68,0
20159,note_on,,359,0,6,,,,,,,,,,,,,,,,1,,74,0
20159,note_on,,119,0,11,,,,,,,,,,,,,,,,8,,59,0
20159,note_on,,359,0,5,,,,,,,,,,,,,,,,0,,74,0
20159,note_on,,119,0,15,,,,,,,,,,,,,,,,13,,59,0
20160,note_on,,1,0,8,,,,,,,,,,,,,,,,5,,73,88
20160,note_on,,1,0,6,,,,,,,,,,,,,,,,1,,73,72
20160,note_on,,1,0,11,,,,,,,,,,,,,,,,8,,57,88
20160,note_on,,1,0,5,,,,,,,,,,,,,,,,0,,73,72
20160,note_on,,1,0,15,,,,,,,,,,,,,,,,13,,57,72
20160,note_on,,1,0,14,,,,,,,,,,,,,,,,12,,64,72
20160,note_on,,0,0,16,,,,,,,,,,,,,,,,15,,64,72
20160,note_on,,0,0,16,,,,,,,,,,,,,,,,15,,69,72
20160,note_on,,1,0,16,,,,,,,,,,,,,,,,15,,57,72
20160,note_on,,1,0,9,,,,,,,,,,,,,,,,6,,69,88
20160,note_on,,1,0,13,,,,,,,,,,,,,,,,11,,81,72
20160,note_on,,0,0,16,,,,,,,,,,,,,,,,15,,73,72
20160,note_on,,1,0,10,,,,,,,,,,,,,,,,7,,64,88
20160,note_on,,1,0,7,,,,,,,,,,,,,,,,2,,57,72
20160,note_on,,1,0,12,,,,,,,,,,,,,,,,10,,85,72
20219,note_on,,59,0,12,,,,,,,,,,,,,,,,10,,85,0
20220,note_on,,1,0,12,,,,,,,,,,,,,,,,10,,76,72
20279,note_on,,119,0,13,,,,,,,,,,,,,,,,11,,81,0
20279,note_on,,59,0,12,,,,,,,,,,,,,,,,10,,76,0
20280,note_on,,1,0,12,,,,,,,,,,,,,,,,10,,69,72
20280,note_on,,1,0,13,,,,,,,,,,,,,,,,11,,73,72
20339,note_on,,59,0,13,,,,,,,,,,,,,,,,11,,73,0
20339,note_on,,59,0,12,,,,,,,,,,,,,,,,10,,69,0
20340,note_on,,1,0,13,,,,,,,,,,,,,,,,11,,71,72
20340,note_on,,1,0,12,,,,,,,,,,,,,,,,10,,71,72
20399,note_on,,59,0,12,,,,,,,,,,,,,,,,10,,71,0
20399,note_on,,59,0,13,,,,,,,,,,,,,,,,11,,71,0
20400,note_on,,1,0,13,,,,,,,,,,,,,,,,11,,69,72
20400,note_on,,1,0,12,,,,,,,,,,,,,,,,10,,73,72
20459,note_on,,59,0,12,,,,,,,,,,,,,,,,10,,73,0
20459,note_on,,59,0,13,,,,,,,,,,,,,,,,11,,69,0
20460,note_on,,1,0,12,,,,,,,,,,,,,,,,10,,74,72
20460,note_on,,1,0,13,,,,,,,,,,,,,,,,11,,71,72
20519,note_on,,0,0,16,,,,,,,,,,,,,,,,15,,64,0
20519,note_on,,0,0,16,,,,,,,,,,,,,,,,15,,73,0
20519,note_on,,359,0,16,,,,,,,,,,,,,,,,15,,57,0
20519,note_on,,359,0,9,,,,,,,,,,,,,,,,6,,69,0
20519,note_on,,359,0,11,,,,,,,,,,,,,,,,8,,57,0
20519,note_on,,0,0,16,,,,,,,,,,,,,,,,15,,69,0
20519,note_on,,359,0,8,,,,,,,,,,,,,,,,5,,73,0
20519,note_on,,359,0,14,,,,,,,,,,,,,,,,12,,64,0
20519,note_on,,359,0,5,,,,,,,,,,,,,,,,0,,73,0
20519,note_on,,59,0,13,,,,,,,,,,,,,,,,11,,71,0
20519,note_on,,59,0,12,,,,,,,,,,,,,,,,10,,74,0
20519,note_on,,359,0,6,,,,,,,,,,,,,,,,1,,73,0
20519,note_on,,359,0,7,,,,,,,,,,,,,,,,2,,57,0
20519,note_on,,359,0,15,,,,,,,,,,,,,,,,13,,57,0
20519,note_on,,359,0,10,,,,,,,,,,,,,,,,7,,64,0
20520,note_on,,1,0,12,,,,,,,,,,,,,,,,10,,76,72
20520,note_on,,1,0,5,,,,,,,,,,,,,,,,0,,76,72
20520,note_on,,1,0,8,,,,,,,,,,,,,,,,5,,76,88
20520,note_on,,1,0,6,,,,,,,,,,,,,,,,1,,76,72
20520,note_on,,1,0,13,,,,,,,,,,,,,,,,11,,68,72
20579,note_on,,59,0,13,,,,,,,,,,,,,,,,11,,68,0
20580,note_on,,1,0,13,,,,,,,,,,,,,,,,11,,64,72
20580,note_on,,61,0,14,,,,,,,,,,,,,,,,12,,68,72
20639,note_on,,59,0,14,,,,,,,,,,,,,,,,12,,68,0
20639,note_on,,59,0,13,,,,,,,,,,,,,,,,11,,64,0
20640,note_on,,1,0,14,,,,,,,,,,,,,,,,12,,69,72
20640,note_on,,1,0,13,,,,,,,,,,,,,,,,11,,66,72
20699,note_on,,59,0,14,,,,,,,,,,,,,,,,12,,69,0
20699,note_on,,59,0,13,,,,,,,,,,,,,,,,11,,66,0
20700,note_on,,1,0,14,,,,,,,,,,,,,,,,12,,71,72
20700,note_on,,1,0,13,,,,,,,,,,,,,,,,11,,68,72
20759,note_on,,239,0,12,,,,,,,,,,,,,,,,10,,76,0
20759,note_on,,239,0,5,,,,,,,,,,,,,,,,0,,76,0
20759,note_on,,239,0,6,,,,,,,,,,,,,,,,1,,76,0
20759,note_on,,239,0,8,,,,,,,,,,,,,,,,5,,76,0
20759,note_on,,59,0,13,,,,,,,,,,,,,,,,11,,68,0
20759,note_on,,59,0,14,,,,,,,,,,,,,,,,12,,71,0
20760,note_on,,1,0,5,,,,,,,,,,,,,,,,0,,76,72
20760,note_on,,1,0,8,,,,,,,,,,,,,,,,5,,76,88
20760,note_on,,1,0,6,,,,,,,,,,,,,,,,1,,76,72
20760,note_on,,1,0,14,,,,,,,,,,,,,,,,12,,73,72
20760,note_on,,1,0,12,,,,,,,,,,,,,,,,10,,76,72
20760,note_on,,1,0,13,,,,,,,,,,,,,,,,11,,69,72
20819,note_on,,59,0,13,,,,,,,,,,,,,,,,11,,69,0
20819,note_on,,59,0,14,,,,,,,,,,,,,,,,12,,73,0
20820,note_on,,1,0,13,,,,,,,,,,,,,,,,11,,71,72
20820,note_on,,1,0,14,,,,,,,,,,,,,,,,12,,74,72
20879,note_on,,59,0,14,,,,,,,,,,,,,,,,12,,74,0
20879,note_on,,59,0,13,,,,,,,,,,,,,,,,11,,71,0
20879,note_on,,119,0,12,,,,,,,,,,,,,,,,10,,76,0
20879,note_on,,119,0,6,,,,,,,,,,,,,,,,1,,76,0
20879,note_on,,119,0,5,,,,,,,,,,,,,,,,0,,76,0
20879,note_on,,119,0,8,,,,,,,,,,,,,,,,5,,76,0
20880,note_on,,1,0,6,,,,,,,,,,,,,,,,1,,76,72
20880,note_on,,1,0,13,,,,,,,,,,,,,,,,11,,68,72
20880,note_on,,1,0,8,,,,,,,,,,,,,,,,5,,76,88
20880,note_on,,1,0,12,,,,,,,,,,,,,,,,10,,76,72
20880,note_on,,1,0,5,,,,,,,,,,,,,,,,0,,76,72
20880,note_on,,1,0,14,,,,,,,,,,,,,,,,12,,71,72
20999,note_on,,119,0,14,,,,,,,,,,,,,,,,12,,71,0
20999,note_on,,119,0,13,,,,,,,,,,,,,,,,11,,68,0
21000,note_on,,481,0,15,,,,,,,,,,,,,,,,13,,52,72
21000,note_on,,1,0,13,,,,,,,,,,,,,,,,11,,80,72
21000,note_on,,0,0,16,,,,,,,,,,,,,,,,15,,64,72
21000,note_on,,0,0,16,,,,,,,,,,,,,,,,15,,68,72
21000,note_on,,481,0,11,,,,,,,,,,,,,,,,8,,52,88
21000,note_on,,481,0,7,,,,,,,,,,,,,,,,2,,52,72
21000,note_on,,1,0,14,,,,,,,,,,,,,,,,12,,71,72
21000,note_on,,0,0,16,,,,,,,,,,,,,,,,15,,71,72
21000,note_on,,481,0,16,,,,,,,,,,,,,,,,15,,52,72
21000,note_on,,481,0,9,,,,,,,,,,,,,,,,6,,68,88
21000,note_on,,481,0,10,,,,,,,,,,,,,,,,7,,59,88
21119,note_on,,119,0,13,,,,,,,,,,,,,,,,11,,80,0
21119,note_on,,119,0,10,,,,,,,,,,,,,,,,7,,59,0
21119,note_on,,119,0,14,,,,,,,,,,,,,,,,12,,71,0
21119,note_on,,0,0,16,,,,,,,,,,,,,,,,15,,71,0
21119,note_on,,0,0,16,,,,,,,,,,,,,,,,15,,68,0
21119,note_on,,119,0,16,,,,,,,,,,,,,,,,15,,52,0
21119,note_on,,119,0,11,,,,,,,,,,,,,,,,8,,52,0
21119,note_on,,119,0,15,,,,,,,,,,,,,,,,13,,52,0
21119,note_on,,119,0,7,,,,,,,,,,,,,,,,2,,52,0
21119,note_on,,119,0,9,,,,,,,,,,,,,,,,6,,68,0
21120,note_on,,0,0,16,,,,,,,,,,,,,,,,15,,73,72
21120,note_on,,1,0,10,,,,,,,,,,,,,,,,7,,61,88
21120,note_on,,1,0,15,,,,,,,,,,,,,,,,13,,57,72
21120,note_on,,1,0,16,,,,,,,,,,,,,,,,15,,57,72
21120,note_on,,1,0,9,,,,,,,,,,,,,,,,6,,69,88
21120,note_on,,1,0,13,,,,,,,,,,,,,,,,11,,85,72
21120,note_on,,1,0,14,,,,,,,,,,,,,,,,12,,69,72
21120,note_on,,1,0,7,,,,,,,,,,,,,,,,2,,57,72
21120,note_on,,0,0,16,,,,,,,,,,,,,,,,15,,69,72
21120,note_on,,1,0,11,,,,,,,,,,,,,,,,8,,57,88
21239,note_on,,119,0,13,,,,,,,,,,,,,,,,11,,85,0
21239,note_on,,119,0,9,,,,,,,,,,,,,,,,6,,69,0
21239,note_on,,359,0,8,,,,,,,,,,,,,,,,5,,76,0
21239,note_on,,359,0,6,,,,,,,,,,,,,,,,1,,76,0
21239,note_on,,119,0,7,,,,,,,,,,,,,,,,2,,57,0
21239,note_on,,119,0,11,,,,,,,,,,,,,,,,8,,57,0
21239,note_on,,119,0,15,,,,,,,,,,,,,,,,13,,57,0
21239,note_on,,359,0,12,,,,,,,,,,,,,,,,10,,76,0
21239,note_on,,0,0,16,,,,,,,,,,,,,,,,15,,73,0
21239,note_on,,0,0,16,,,,,,,,,,,,,,,,15,,57,0
21239,note_on,,359,0,5,,,,,,,,,,,,,,,,0,,76,0
21239,note_on,,119,0,10,,,,,,,,,,,,,,,,7,,61,0
21239,note_on,,119,0,16,,,,,,,,,,,,,,,,15,,64,0
21239,note_on,,119,0,14,,,,,,,,,,,,,,,,12,,69,0
21239,note_on,,0,0,16,,,,,,,,,,,,,,,,15,,69,0
21240,note_on,,1,0,12,,,,,,,,,,,,,,,,10,,76,72
21240,note_on,,1,0,10,,,,,,,,,,,,,,,,7,,59,88
21240,note_on,,1,0,7,,,,,,,,,,,,,,,,2,,56,72
21240,note_on,,1,0,6,,,,,,,,,,,,,,,,1,,76,72
21240,note_on,,1,0,13,,,,,,,,,,,,,,,,11,,83,72
21240,note_on,,1,0,14,,,,,,,,,,,,,,,,12,,71,72
21240,note_on,,1,0,9,,,,,,,,,,,,,,,,6,,64,88
21240,note_on,,1,0,16,,,,,,,,,,,,,,,,15,,56,72
21240,note_on,,0,0,16,,,,,,,,,,,,,,,,15,,71,72
21240,note_on,,1,0,5,,,,,,,,,,,,,,,,0,,76,72
21240,note_on,,1,0,15,,,,,,,,,,,,,,,,13,,56,72
21240,note_on,,0,0,16,,,,,,,,,,,,,,,,15,,64,72
21240,note_on,,0,0,16,,,,,,,,,,,,,,,,15,,76,72
21240,note_on,,1,0,8,,,,,,,,,,,,,,,,5,,76,88
21240,note_on,,1,0,11,,,,,,,,,,,,,,,,8,,56,88
21299,note_on,,59,0,11,,,,,,,,,,,,,,,,8,,56,0
21299,note_on,,59,0,16,,,,,,,,,,,,,,,,15,,56,0
21299,note_on,,59,0,15,,,,,,,,,,,,,,,,13,,56,0
21299,note_on,,59,0,7,,,,,,,,,,,,,,,,2,,56,0
21299,note_on,,59,0,10,,,,,,,,,,,,,,,,7,,59,0
21299,note_on,,59,0,13,,,,,,,,,,,,,,,,11,,83,0
21299,note_on,,0,0,16,,,,,,,,,,,,,,,,15,,71,0
21300,note_on,,1,0,15,,,,,,,,,,,,,,,,13,,54,72
21300,note_on,,0,0,16,,,,,,,,,,,,,,,,15,,69,72
21300,note_on,,1,0,7,,,,,,,,,,,,,,,,2,,54,72
21300,note_on,,1,0,10,,,,,,,,,,,,,,,,7,,57,88
21300,note_on,,1,0,16,,,,,,,,,,,,,,,,15,,54,72
21300,note_on,,1,0,13,,,,,,,,,,,,,,,,11,,81,72
21300,note_on,,1,0,11,,,,,,,,,,,,,,,,8,,54,88
21359,note_on,,119,0,14,,,,,,,,,,,,,,,,12,,71,0
21359,note_on,,0,0,16,,,,,,,,,,,,,,,,15,,69,0
21359,note_on,,59,0,7,,,,,,,,,,,,,,,,2,,54,0
21359,note_on,,59,0,11,,,,,,,,,,,,,,,,8,,54,0
21359,note_on,,59,0,16,,,,,,,,,,,,,,,,15,,54,0
21359,note_on,,59,0,15,,,,,,,,,,,,,,,,13,,54,0
21359,note_on,,59,0,10,,,,,,,,,,,,,,,,7,,57,0
21359,note_on,,59,0,13,,,,,,,,,,,,,,,,11,,81,0
21360,note_on,,1,0,7,,,,,,,,,,,,,,,,2,,52,72
21360,note_on,,1,0,13,,,,,,,,,,,,,,,,11,,80,72
21360,note_on,,1,0,11,,,,,,,,,,,,,,,,8,,52,88
21360,note_on,,1,0,10,,,,,,,,,,,,,,,,7,,56,88
21360,note_on,,1,0,16,,,,,,,,,,,,,,,,15,,52,72
21360,note_on,,1,0,15,,,,,,,,,,,,,,,,13,,52,72
21360,note_on,,0,0,16,,,,,,,,,,,,,,,,15,,68,72
21360,note_on,,1,0,14,,,,,,,,,,,,,,,,12,,71,72
21479,note_on,,239,0,6,,,,,,,,,,,,,,,,1,,76,0
21479,note_on,,119,0,7,,,,,,,,,,,,,,,,2,,52,0
21479,note_on,,119,0,16,,,,,,,,,,,,,,,,15,,76,0
21479,note_on,,0,0,16,,,,,,,,,,,,,,,,15,,64,0
21479,note_on,,119,0,13,,,,,,,,,,,,,,,,11,,80,0
21479,note_on,,119,0,15,,,,,,,,,,,,,,,,13,,52,0
21479,note_on,,0,0,16,,,,,,,,,,,,,,,,15,,52,0
21479,note_on,,119,0,11,,,,,,,,,,,,,,,,8,,52,0
21479,note_on,,239,0,9,,,,,,,,,,,,,,,,6,,64,0
21479,note_on,,239,0,8,,,,,,,,,,,,,,,,5,,76,0
21479,note_on,,119,0,10,,,,,,,,,,,,,,,,7,,56,0
21479,note_on,,119,0,14,,,,,,,,,,,,,,,,12,,71,0
21479,note_on,,239,0,5,,,,,,,,,,,,,,,,0,,76,0
21479,note_on,,0,0,16,,,,,,,,,,,,,,,,15,,68,0
21480,note_on,,1,0,15,,,,,,,,,,,,,,,,13,,57,72
21480,note_on,,1,0,16,,,,,,,,,,,,,,,,15,,69,72
21480,note_on,,0,0,16,,,,,,,,,,,,,,,,15,,64,72
21480,note_on,,0,0,16,,,,,,,,,,,,,,,,15,,73,72
21480,note_on,,1,0,14,,,,,,,,,,,,,,,,12,,69,72
21480,note_on,,0,0,16,,,,,,,,,,,,,,,,15,,57,72
21480,note_on,,1,0,13,,,,,,,,,,,,,,,,11,,85,72
21480,note_on,,1,0,7,,,,,,,,,,,,,,,,2,,57,72
21480,note_on,,1,0,8,,,,,,,,,,,,,,,,5,,76,88
21480,note_on,,1,0,10,,,,,,,,,,,,,,,,7,,61,88
21480,note_on,,1,0,5,,,,,,,,,,,,,,,,0,,76,72
21480,note_on,,1,0,6,,,,,,,,,,,,,,,,1,,76,72
21480,note_on,,1,0,11,,,,,,,,,,,,,,,,8,,57,88
21480,note_on,,1,0,9,,,,,,,,,,,,,,,,6,,64,88
21599,note_on,,119,0,14,,,,,,,,,,,,,,,,12,,69,0
21599,note_on,,119,0,8,,,,,,,,,,,,,,,,5,,76,0
21599,note_on,,119,0,6,,,,,,,,,,,,,,,,1,,76,0
21599,note_on,,119,0,13,,,,,,,,,,,,,,,,11,,85,0
21599,note_on,,119,0,11,,,,,,,,,,,,,,,,8,,57,0
21599,note_on,,119,0,9,,,,,,,,,,,,,,,,6,,64,0
21599,note_on,,119,0,5,,,,,,,,,,,,,,,,0,,76,0
21599,note_on,,119,0,16,,,,,,,,,,,,,,,,15,,69,0
21599,note_on,,0,0,16,,,,,,,,,,,,,,,,15,,57,0
21599,note_on,,0,0,16,,,,,,,,,,,,,,,,15,,73,0
21599,note_on,,0,0,16,,,,,,,,,,,,,,,,15,,64,0
21599,note_on,,119,0,7,,,,,,,,,,,,,,,,2,,57,0
21599,note_on,,359,0,12,,,,,,,,,,,,,,,,10,,76,0
21599,note_on,,119,0,15,,,,,,,,,,,,,,,,13,,57,0
21599,note_on,,119,0,10,,,,,,,,,,,,,,,,7,,61,0
21600,note_on,,1,0,15,,,,,,,,,,,,,,,,13,,56,72
21600,note_on,,1,0,10,,,,,,,,,,,,,,,,7,,59,88
21600,note_on,,1,0,6,,,,,,,,,,,,,,,,1,,76,72
21600,note_on,,1,0,11,,,,,,,,,,,,,,,,8,,56,88
21600,note_on,,1,0,9,,,,,,,,,,,,,,,,6,,71,88
21600,note_on,,0,0,16,,,,,,,,,,,,,,,,15,,71,72
21600,note_on,,1,0,16,,,,,,,,,,,,,,,,15,,56,72
21600,note_on,,1,0,14,,,,,,,,,,,,,,,,12,,71,72
21600,note_on,,1,0,13,,,,,,,,,,,,,,,,11,,83,72
21600,note_on,,1,0,8,,,,,,,,,,,,,,,,5,,76,88
21600,note_on,,1,0,7,,,,,,,,,,,,,,,,2,,56,72
21600,note_on,,1,0,12,,,,,,,,,,,,,,,,10,,76,72
21600,note_on,,0,0,16,,,,,,,,,,,,,,,,15,,64,72
21600,note_on,,0,0,16,,,,,,,,,,,,,,,,15,,76,72
21600,note_on,,1,0,5,,,,,,,,,,,,,,,,0,,76,72
21659,note_on,,59,0,10,,,,,,,,,,,,,,,,7,,59,0
21659,note_on,,59,0,7,,,,,,,,,,,,,,,,2,,56,0
21659,note_on,,59,0,11,,,,,,,,,,,,,,,,8,,56,0
21659,note_on,,0,0,16,,,,,,,,,,,,,,,,15,,71,0
21659,note_on,,59,0,16,,,,,,,,,,,,,,,,15,,56,0
21659,note_on,,59,0,15,,,,,,,,,,,,,,,,13,,56,0
21659,note_on,,59,0,13,,,,,,,,,,,,,,,,11,,83,0
21660,note_on,,1,0,10,,,,,,,,,,,,,,,,7,,57,88
21660,note_on,,0,0,16,,,,,,,,,,,,,,,,15,,69,72
21660,note_on,,1,0,11,,,,,,,,,,,,,,,,8,,54,88
21660,note_on,,1,0,13,,,,,,,,,,,,,,,,11,,81,72
21660,note_on,,1,0,7,,,,,,,,,,,,,,,,2,,54,72
21660,note_on,,1,0,15,,,,,,,,,,,,,,,,13,,54,72
21660,note_on,,1,0,16,,,,,,,,,,,,,,,,15,,54,72
21719,note_on,,59,0,7,,,,,,,,,,,,,,,,2,,54,0
21719,note_on,,0,0,16,,,,,,,,,,,,,,,,15,,54,0
21719,note_on,,0,0,16,,,,,,,,,,,,,,,,15,,64,0
21719,note_on,,0,0,16,,,,,,,,,,,,,,,,15,,69,0
21719,note_on,,59,0,10,,,,,,,,,,,,,,,,7,,57,0
21719,note_on,,59,0,16,,,,,,,,,,,,,,,,15,,76,0
21719,note_on,,59,0,13,,,,,,,,,,,,,,,,11,,81,0
21719,note_on,,119,0,14,,,,,,,,,,,,,,,,12,,71,0
21719,note_on,,59,0,15,,,,,,,,,,,,,,,,13,,54,0
21719,note_on,,59,0,11,,,,,,,,,,,,,,,,8,,54,0
21719,note_on,,119,0,9,,,,,,,,,,,,,,,,6,,71,0
21720,note_on,,1,0,11,,,,,,,,,,,,,,,,8,,52,88
21720,note_on,,1,0,10,,,,,,,,,,,,,,,,7,,56,88
21720,note_on,,1,0,16,,,,,,,,,,,,,,,,15,,52,72
21720,note_on,,0,0,16,,,,,,,,,,,,,,,,15,,71,72
21720,note_on,,0,0,16,,,,,,,,,,,,,,,,15,,68,72
21720,note_on,,0,0,16,,,,,,,,,,,,,,,,15,,64,72
21720,note_on,,1,0,13,,,,,,,,,,,,,,,,11,,80,72
21720,note_on,,1,0,14,,,,,,,,,,,,,,,,12,,71,72
21720,note_on,,1,0,7,,,,,,,,,,,,,,,,2,,52,72
21720,note_on,,1,0,15,,,,,,,,,,,,,,,,13,,52,72
21720,note_on,,1,0,9,,,,,,,,,,,,,,,,6,,71,88
21839,note_on,,239,0,5,,,,,,,,,,,,,,,,0,,76,0
21839,note_on,,119,0,11,,,,,,,,,,,,,,,,8,,52,0
21839,note_on,,239,0,8,,,,,,,,,,,,,,,,5,,76,0
21839,note_on,,119,0,15,,,,,,,,,,,,,,,,13,,52,0
21839,note_on,,119,0,9,,,,,,,,,,,,,,,,6,,71,0
21839,note_on,,239,0,12,,,,,,,,,,,,,,,,10,,76,0
21839,note_on,,119,0,10,,,,,,,,,,,,,,,,7,,56,0
21839,note_on,,119,0,14,,,,,,,,,,,,,,,,12,,71,0
21839,note_on,,239,0,6,,,,,,,,,,,,,,,,1,,76,0
21839,note_on,,119,0,16,,,,,,,,,,,,,,,,15,,52,0
21839,note_on,,0,0,16,,,,,,,,,,,,,,,,15,,71,0
21839,note_on,,0,0,16,,,,,,,,,,,,,,,,15,,64,0
21839,note_on,,119,0,7,,,,,,,,,,,,,,,,2,,52,0
21839,note_on,,119,0,13,,,,,,,,,,,,,,,,11,,80,0
21839,note_on,,0,0,16,,,,,,,,,,,,,,,,15,,68,0
21840,note_on,,1,0,14,,,,,,,,,,,,,,,,12,,69,72
21840,note_on,,1,0,8,,,,,,,,,,,,,,,,5,,76,88
21840,note_on,,1,0,12,,,,,,,,,,,,,,,,10,,76,72
21840,note_on,,1,0,15,,,,,,,,,,,,,,,,13,,57,72
21840,note_on,,0,0,16,,,,,,,,,,,,,,,,15,,64,72
21840,note_on,,1,0,9,,,,,,,,,,,,,,,,6,,69,88
21840,note_on,,1,0,16,,,,,,,,,,,,,,,,15,,57,72
21840,note_on,,0,0,16,,,,,,,,,,,,,,,,15,,73,72
21840,note_on,,1,0,7,,,,,,,,,,,,,,,,2,,57,72
21840,note_on,,0,0,16,,,,,,,,,,,,,,,,15,,69,72
21840,note_on,,1,0,6,,,,,,,,,,,,,,,,1,,76,72
21840,note_on,,1,0,5,,,,,,,,,,,,,,,,0,,76,72
21840,note_on,,1,0,11,,,,,,,,,,,,,,,,8,,57,88
21840,note_on,,1,0,13,,,,,,,,,,,,,,,,11,,85,72
21840,note_on,,1,0,10,,,,,,,,,,,,,,,,7,,61,88
21959,note_on,,119,0,7,,,,,,,,,,,,,,,,2,,57,0
21959,note_on,,119,0,9,,,,,,,,,,,,,,,,6,,69,0
21959,note_on,,119,0,15,,,,,,,,,,,,,,,,13,,57,0
21959,note_on,,119,0,12,,,,,,,,,,,,,,,,10,,76,0
21959,note_on,,119,0,8,,,,,,,,,,,,,,,,5,,76,0
21959,note_on,,119,0,13,,,,,,,,,,,,,,,,11,,85,0
21959,note_on,,119,0,14,,,,,,,,,,,,,,,,12,,69,0
21959,note_on,,119,0,10,,,,,,,,,,,,,,,,7,,61,0
21959,note_on,,0,0,16,,,,,,,,,,,,,,,,15,,64,0
21959,note_on,,0,0,16,,,,,,,,,,,,,,,,15,,69,0
21959,note_on,,119,0,5,,,,,,,,,,,,,,,,0,,76,0
21959,note_on,,119,0,16,,,,,,,,,,,,,,,,15,,57,0
21959,note_on,,0,0,16,,,,,,,,,,,,,,,,15,,73,0
21959,note_on,,119,0,6,,,,,,,,,,,,,,,,1,,76,0
21959,note_on,,119,0,11,,,,,,,,,,,,,,,,8,,57,0
21960,note_on,,0,0,16,,,,,,,,,,,,,,,,15,,66,72
21960,note_on,,1,0,12,,,,,,,,,,,,,,,,10,,78,72
21960,note_on,,1,0,8,,,,,,,,,,,,,,,,5,,78,88
21960,note_on,,1,0,11,,,,,,,,,,,,,,,,8,,62,88
21960,note_on,,0,0,16,,,,,,,,,,,,,,,,15,,74,72
21960,note_on,,1,0,6,,,,,,,,,,,,,,,,1,,78,72
21960,note_on,,1,0,13,,,,,,,,,,,,,,,,11,,86,72
21960,note_on,,1,0,14,,,,,,,,,,,,,,,,12,,69,72
21960,note_on,,0,0,16,,,,,,,,,,,,,,,,15,,69,72
21960,note_on,,1,0,10,,,,,,,,,,,,,,,,7,,62,88
21960,note_on,,1,0,9,,,,,,,,,,,,,,,,6,,69,88
21960,note_on,,1,0,15,,,,,,,,,,,,,,,,13,,50,72
21960,note_on,,1,0,16,,,,,,,,,,,,,,,,15,,50,72
21960,note_on,,1,0,7,,,,,,,,,,,,,,,,2,,50,72
21960,note_on,,1,0,5,,,,,,,,,,,,,,,,0,,78,72
22019,note_on,,59,0,16,,,,,,,,,,,,,,,,15,,50,0
22019,note_on,,59,0,7,,,,,,,,,,,,,,,,2,,50,0
22019,note_on,,59,0,15,,,,,,,,,,,,,,,,13,,50,0
22020,note_on,,1,0,16,,,,,,,,,,,,,,,,15,,49,72
22020,note_on,,1,0,7,,,,,,,,,,,,,,,,2,,49,72
22020,note_on,,1,0,15,,,,,,,,,,,,,,,,13,,49,72
22079,note_on,,59,0,16,,,,,,,,,,,,,,,,15,,49,0
22079,note_on,,59,0,15,,,,,,,,,,,,,,,,13,,49,0
22079,note_on,,59,0,7,,,,,,,,,,,,,,,,2,,49,0
22080,note_on,,1,0,15,,,,,,,,,,,,,,,,13,,50,72
22080,note_on,,1,0,7,,,,,,,,,,,,,,,,2,,50,72
22080,note_on,,1,0,16,,,,,,,,,,,,,,,,15,,50,72
22139,note_on,,59,0,15,,,,,,,,,,,,,,,,13,,50,0
22139,note_on,,59,0,7,,,,,,,,,,,,,,,,2,,50,0
22139,note_on,,59,0,16,,,,,,,,,,,,,,,,15,,50,0
22140,note_on,,1,0,7,,,,,,,,,,,,,,,,2,,52,72
22140,note_on,,1,0,15,,,,,,,,,,,,,,,,13,,52,72
22140,note_on,,1,0,16,,,,,,,,,,,,,,,,15,,52,72
22199,note_on,,239,0,6,,,,,,,,,,,,,,,,1,,78,0
22199,note_on,,239,0,12,,,,,,,,,,,,,,,,10,,78,0
22199,note_on,,239,0,5,,,,,,,,,,,,,,,,0,,78,0
22199,note_on,,239,0,8,,,,,,,,,,,,,,,,5,,78,0
22199,note_on,,239,0,14,,,,,,,,,,,,,,,,12,,69,0
22199,note_on,,59,0,15,,,,,,,,,,,,,,,,13,,52,0
22199,note_on,,59,0,16,,,,,,,,,,,,,,,,15,,52,0
22199,note_on,,59,0,7,,,,,,,,,,,,,,,,2,,52,0
22199,note_on,,239,0,13,,,,,,,,,,,,,,,,11,,86,0
22200,note_on,,1,0,15,,,,,,,,,,,,,,,,13,,54,72
22200,note_on,,1,0,5,,,,,,,,,,,,,,,,0,,78,72
22200,note_on,,1,0,7,,,,,,,,,,,,,,,,2,,54,72
22200,note_on,,1,0,12,,,,,,,,,,,,,,,,10,,78,72
22200,note_on,,1,0,14,,,,,,,,,,,,,,,,12,,69,72
22200,note_on,,1,0,6,,,,,,,,,,,,,,,,1,,78,72
22200,note_on,,1,0,16,,,,,,,,,,,,,,,,15,,54,72
22200,note_on,,1,0,13,,,,,,,,,,,,,,,,11,,86,72
22200,note_on,,1,0,8,,,,,,,,,,,,,,,,5,,78,88
22259,note_on,,59,0,16,,,,,,,,,,,,,,,,15,,54,0
22259,note_on,,59,0,15,,,,,,,,,,,,,,,,13,,54,0
22259,note_on,,59,0,7,,,,,,,,,,,,,,,,2,,54,0
22260,note_on,,1,0,7,,,,,,,,,,,,,,,,2,,56,72
22260,note_on,,1,0,16,,,,,,,,,,,,,,,,15,,56,72
22260,note_on,,1,0,15,,,,,,,,,,,,,,,,13,,56,72
22319,note_on,,119,0,12,,,,,,,,,,,,,,,,10,,78,0
22319,note_on,,0,0,16,,,,,,,,,,,,,,,,15,,69,0
22319,note_on,,359,0,10,,,,,,,,,,,,,,,,7,,62,0
22319,note_on,,359,0,9,,,,,,,,,,,,,,,,6,,69,0
22319,note_on,,0,0,16,,,,,,,,,,,,,,,,15,,56,0
22319,note_on,,0,0,16,,,,,,,,,,,,,,,,15,,66,0
22319,note_on,,59,0,7,,,,,,,,,,,,,,,,2,,56,0
22319,note_on,,119,0,6,,,,,,,,,,,,,,,,1,,78,0
22319,note_on,,119,0,14,,,,,,,,,,,,,,,,12,,69,0
22319,note_on,,59,0,16,,,,,,,,,,,,,,,,15,,74,0
22319,note_on,,59,0,15,,,,,,,,,,,,,,,,13,,56,0
22319,note_on,,359,0,11,,,,,,,,,,,,,,,,8,,62,0
22319,note_on,,119,0,5,,,,,,,,,,,,,,,,0,,78,0
22319,note_on,,119,0,8,,,,,,,,,,,,,,,,5,,78,0
22319,note_on,,119,0,13,,,,,,,,,,,,,,,,11,,86,0
22320,note_on,,0,0,16,,,,,,,,,,,,,,,,15,,73,72
22320,note_on,,1,0,9,,,,,,,,,,,,,,,,6,,69,88
22320,note_on,,1,0,16,,,,,,,,,,,,,,,,15,,57,72
22320,note_on,,0,0,16,,,,,,,,,,,,,,,,15,,69,72
22320,note_on,,1,0,8,,,,,,,,,,,,,,,,5,,76,88
22320,note_on,,1,0,11,,,,,,,,,,,,,,,,8,,57,88
22320,note_on,,1,0,15,,,,,,,,,,,,,,,,13,,57,72
22320,note_on,,1,0,5,,,,,,,,,,,,,,,,0,,76,72
22320,note_on,,1,0,14,,,,,,,,,,,,,,,,12,,69,72
22320,note_on,,1,0,13,,,,,,,,,,,,,,,,11,,85,72
22320,note_on,,1,0,10,,,,,,,,,,,,,,,,7,,61,88
22320,note_on,,1,0,12,,,,,,,,,,,,,,,,10,,76,72
22320,note_on,,1,0,6,,,,,,,,,,,,,,,,1,,76,72
22320,note_on,,0,0,16,,,,,,,,,,,,,,,,15,,64,72
22320,note_on,,1,0,7,,,,,,,,,,,,,,,,2,,57,72
22439,note_on,,119,0,7,,,,,,,,,,,,,,,,2,,57,0
22439,note_on,,0,0,16,,,,,,,,,,,,,,,,15,,73,0
22439,note_on,,119,0,9,,,,,,,,,,,,,,,,6,,69,0
22439,note_on,,119,0,16,,,,,,,,,,,,,,,,15,,57,0
22439,note_on,,0,0,16,,,,,,,,,,,,,,,,15,,64,0
22439,note_on,,119,0,15,,,,,,,,,,,,,,,,13,,57,0
22439,note_on,,0,0,16,,,,,,,,,,,,,,,,15,,69,0
22440,note_on,,1,0,9,,,,,,,,,,,,,,,,6,,64,78
22440,note_on,,0,0,16,,,,,,,,,,,,,,,,15,,64,72
22440,note_on,,1,0,16,,,,,,,,,,,,,,,,15,,49,72
22440,note_on,,1,0,15,,,,,,,,,,,,,,,,13,,49,72
22440,note_on,,1,0,7,,,,,,,,,,,,,,,,2,,49,72
22440,note_on,,0,0,16,,,,,,,,,,,,,,,,15,,57,72
22440,note_on,,0,0,16,,,,,,,,,,,,,,,,15,,69,72
22559,note_on,,119,0,15,,,,,,,,,,,,,,,,13,,49,0
22559,note_on,,239,0,12,,,,,,,,,,,,,,,,10,,76,0
22559,note_on,,119,0,7,,,,,,,,,,,,,,,,2,,49,0
22559,note_on,,119,0,9,,,,,,,,,,,,,,,,6,,64,0
22559,note_on,,239,0,11,,,,,,,,,,,,,,,,8,,57,0
22559,note_on,,0,0,16,,,,,,,,,,,,,,,,15,,69,0
22559,note_on,,0,0,16,,,,,,,,,,,,,,,,15,,64,0
22559,note_on,,0,0,16,,,,,,,,,,,,,,,,15,,57,0
22559,note_on,,239,0,10,,,,,,,,,,,,,,,,7,,61,0
22559,note_on,,119,0,16,,,,,,,,,,,,,,,,15,,49,0
22559,note_on,,239,0,6,,,,,,,,,,,,,,,,1,,76,0
22559,note_on,,239,0,5,,,,,,,,,,,,,,,,0,,76,0
22559,note_on,,239,0,14,,,,,,,,,,,,,,,,12,,69,0
22559,note_on,,239,0,8,,,,,,,,,,,,,,,,5,,76,0
22559,note_on,,239,0,13,,,,,,,,,,,,,,,,11,,85,0
22560,note_on,,1,0,15,,,,,,,,,,,,,,,,13,,45,72
22560,note_on,,1,0,16,,,,,,,,,,,,,,,,15,,45,72
22560,note_on,,0,0,16,,,,,,,,,,,,,,,,15,,64,72
22560,note_on,,1,0,9,,,,,,,,,,,,,,,,6,,69,78
22560,note_on,,0,0,16,,,,,,,,,,,,,,,,15,,57,72
22560,note_on,,0,0,16,,,,,,,,,,,,,,,,15,,61,72
22560,note_on,,1,0,7,,,,,,,,,,,,,,,,2,,45,72
22679,note_on,,119,0,7,,,,,,,,,,,,,,,,2,,45,0
22679,note_on,,0,0,16,,,,,,,,,,,,,,,,15,,57,0
22679,note_on,,0,0,16,,,,,,,,,,,,,,,,15,,61,0
22679,note_on,,119,0,15,,,,,,,,,,,,,,,,13,,45,0
22679,note_on,,0,0,16,,,,,,,,,,,,,,,,15,,64,0
22679,note_on,,119,0,16,,,,,,,,,,,,,,,,15,,45,0
22679,note_on,,119,0,9,,,,,,,,,,,,,,,,6,,69,0
22680,note_on,,1,0,7,,,,,,,,,,,,,,,,2,,52,72
22680,note_on,,1,0,15,,,,,,,,,,,,,,,,13,,52,72
22680,note_on,,1,0,16,,,,,,,,,,,,,,,,15,,52,72
22680,note_on,,1,0,9,,,,,,,,,,,,,,,,6,,68,78
22680,note_on,,0,0,16,,,,,,,,,,,,,,,,15,,56,72
22680,note_on,,0,0,16,,,,,,,,,,,,,,,,15,,59,72
22739,note_on,,59,0,9,,,,,,,,,,,,,,,,6,,68,0
22740,note_on,,1,0,9,,,,,,,,,,,,,,,,6,,66,78
22799,note_on,,119,0,16,,,,,,,,,,,,,,,,15,,52,0
22799,note_on,,119,0,7,,,,,,,,,,,,,,,,2,,52,0
22799,note_on,,0,0,16,,,,,,,,,,,,,,,,15,,56,0
22799,note_on,,0,0,16,,,,,,,,,,,,,,,,15,,59,0
22799,note_on,,119,0,15,,,,,,,,,,,,,,,,13,,52,0
22799,note_on,,59,0,9,,,,,,,,,,,,,,,,6,,66,0
22800,note_on,,1,0,7,,,,,,,,,,,,,,,,2,,56,72
22800,note_on,,1,0,16,,,,,,,,,,,,,,,,15,,56,72
22800,note_on,,0,0,16,,,,,,,,,,,,,,,,15,,59,72
22800,note_on,,0,0,16,,,,,,,,,,,,,,,,15,,64,72
22800,note_on,,241,0,10,,,,,,,,,,,,,,,,7,,59,78
22800,note_on,,1,0,9,,,,,,,,,,,,,,,,6,,64,78
22800,note_on,,1,0,15,,,,,,,,,,,,,,,,13,,56,72
22919,note_on,,119,0,15,,,,,,,,,,,,,,,,13,,56,0
22919,note_on,,119,0,10,,,,,,,,,,,,,,,,7,,59,0
22919,note_on,,119,0,9,,,,,,,,,,,,,,,,6,,64,0
22919,note_on,,0,0,16,,,,,,,,,,,,,,,,15,,59,0
22919,note_on,,119,0,7,,,,,,,,,,,,,,,,2,,56,0
22919,note_on,,0,0,16,,,,,,,,,,,,,,,,15,,64,0
22919,note_on,,119,0,16,,,,,,,,,,,,,,,,15,,56,0
22920,note_on,,0,0,16,,,,,,,,,,,,,,,,15,,64,72
22920,note_on,,1,0,15,,,,,,,,,,,,,,,,13,,52,72
22920,note_on,,0,0,16,,,,,,,,,,,,,,,,15,,59,72
22920,note_on,,0,0,16,,,,,,,,,,,,,,,,15,,68,72
22920,note_on,,1,0,16,,,,,,,,,,,,,,,,15,,52,72
22920,note_on,,1,0,7,,,,,,,,,,,,,,,,2,,52,72
22920,note_on,,1,0,10,,,,,,,,,,,,,,,,7,,64,78
23039,note_on,,119,0,10,,,,,,,,,,,,,,,,7,,64,0
23039,note_on,,119,0,7,,,,,,,,,,,,,,,,2,,52,0
23039,note_on,,119,0,15,,,,,,,,,,,,,,,,13,,52,0
23039,note_on,,119,0,16,,,,,,,,,,,,,,,,15,,52,0
23039,note_on,,0,0,16,,,,,,,,,,,,,,,,15,,68,0
23039,note_on,,0,0,16,,,,,,,,,,,,,,,,15,,64,0
23039,note_on,,0,0,16,,,,,,,,,,,,,,,,15,,59,0
23040,note_on,,1,0,15,,,,,,,,,,,,,,,,13,,59,72
23040,note_on,,1,0,7,,,,,,,,,,,,,,,,2,,59,72
23040,note_on,,0,0,16,,,,,,,,,,,,,,,,15,,63,72
23040,note_on,,0,0,16,,,,,,,,,,,,,,,,15,,66,72
23040,note_on,,1,0,16,,,,,,,,,,,,,,,,15,,59,72
23040,note_on,,1,0,10,,,,,,,,,,,,,,,,7,,63,78
23099,note_on,,59,0,10,,,,,,,,,,,,,,,,7,,63,0
23100,note_on,,1,0,10,,,,,,,,,,,,,,,,7,,61,78
23159,note_on,,59,0,10,,,,,,,,,,,,,,,,7,,61,0
23159,note_on,,119,0,15,,,,,,,,,,,,,,,,13,,59,0
23159,note_on,,119,0,7,,,,,,,,,,,,,,,,2,,59,0
23160,note_on,,1,0,15,,,,,,,,,,,,,,,,13,,57,72
23160,note_on,,1,0,7,,,,,,,,,,,,,,,,2,,57,72
23160,note_on,,1,0,10,,,,,,,,,,,,,,,,7,,59,78
23160,note_on,,120,0,16,,,,,,,,,,,,,,,,15,,57,72
23160,note_on,,241,0,9,,,,,,,,,,,,,,,,6,,66,78
23279,note_on,,119,0,9,,,,,,,,,,,,,,,,6,,66,0
23279,note_on,,0,0,16,,,,,,,,,,,,,,,,15,,63,0
23279,note_on,,119,0,15,,,,,,,,,,,,,,,,13,,57,0
23279,note_on,,0,0,16,,,,,,,,,,,,,,,,15,,66,0
23279,note_on,,119,0,16,,,,,,,,,,,,,,,,15,,59,0
23279,note_on,,119,0,10,,,,,,,,,,,,,,,,7,,59,0
23279,note_on,,0,0,16,,,,,,,,,,,,,,,,15,,57,0
23279,note_on,,119,0,7,,,,,,,,,,,,,,,,2,,57,0
23280,note_on,,1,0,10,,,,,,,,,,,,,,,,7,,59,78
23280,note_on,,1,0,16,,,,,,,,,,,,,,,,15,,56,72
23280,note_on,,0,0,16,,,,,,,,,,,,,,,,15,,71,72
23280,note_on,,1,0,7,,,,,,,,,,,,,,,,2,,56,72
23280,note_on,,1,0,15,,,,,,,,,,,,,,,,13,,56,72
23280,note_on,,1,0,9,,,,,,,,,,,,,,,,6,,71,78
23280,note_on,,0,0,16,,,,,,,,,,,,,,,,15,,64,72
23280,note_on,,0,0,16,,,,,,,,,,,,,,,,15,,59,72
23399,note_on,,119,0,7,,,,,,,,,,,,,,,,2,,56,0
23399,note_on,,119,0,9,,,,,,,,,,,,,,,,6,,71,0
23399,note_on,,0,0,16,,,,,,,,,,,,,,,,15,,71,0
23399,note_on,,119,0,15,,,,,,,,,,,,,,,,13,,56,0
23399,note_on,,119,0,10,,,,,,,,,,,,,,,,7,,59,0
23399,note_on,,119,0,16,,,,,,,,,,,,,,,,15,,56,0
23399,note_on,,0,0,16,,,,,,,,,,,,,,,,15,,64,0
23399,note_on,,0,0,16,,,,,,,,,,,,,,,,15,,59,0
23400,note_on,,1,0,15,,,,,,,,,,,,,,,,13,,54,72
23400,note_on,,1,0,10,,,,,,,,,,,,,,,,7,,61,78
23400,note_on,,1,0,7,,,,,,,,,,,,,,,,2,,54,72
23400,note_on,,0,0,16,,,,,,,,,,,,,,,,15,,61,72
23400,note_on,,0,0,16,,,,,,,,,,,,,,,,15,,64,72
23400,note_on,,1,0,16,,,,,,,,,,,,,,,,15,,54,72
23400,note_on,,1,0,9,,,,,,,,,,,,,,,,6,,69,78
23400,note_on,,0,0,16,,,,,,,,,,,,,,,,15,,69,72
23459,note_on,,59,0,9,,,,,,,,,,,,,,,,6,,69,0
23460,note_on,,1,0,9,,,,,,,,,,,,,,,,6,,68,78
23519,note_on,,119,0,15,,,,,,,,,,,,,,,,13,,54,0
23519,note_on,,59,0,9,,,,,,,,,,,,,,,,6,,68,0
23519,note_on,,119,0,7,,,,,,,,,,,,,,,,2,,54,0
23519,note_on,,119,0,10,,,,,,,,,,,,,,,,7,,61,0
23519,note_on,,119,0,16,,,,,,,,,,,,,,,,15,,54,0
23520,note_on,,1,0,16,,,,,,,,,,,,,,,,15,,57,72
23520,note_on,,1,0,15,,,,,,,,,,,,,,,,13,,57,72
23520,note_on,,1,0,7,,,,,,,,,,,,,,,,2,,57,72
23520,note_on,,1,0,9,,,,,,,,,,,,,,,,6,,66,78
23520,note_on,,1,0,10,,,,,,,,,,,,,,,,7,,61,78
23639,note_on,,0,0,16,,,,,,,,,,,,,,,,15,,57,0
23639,note_on,,119,0,7,,,,,,,,,,,,,,,,2,,57,0
23639,note_on,,119,0,10,,,,,,,,,,,,,,,,7,,61,0
23639,note_on,,119,0,9,,,,,,,,,,,,,,,,6,,66,0
23639,note_on,,119,0,16,,,,,,,,,,,,,,,,15,,69,0
23639,note_on,,0,0,16,,,,,,,,,,,,,,,,15,,64,0
23639,note_on,,0,0,16,,,,,,,,,,,,,,,,15,,61,0
23639,note_on,,119,0,15,,,,,,,,,,,,,,,,13,,57,0
23640,note_on,,0,0,16,,,,,,,,,,,,,,,,15,,63,72
23640,note_on,,1,0,10,,,,,,,,,,,,,,,,7,,63,78
23640,note_on,,1,0,15,,,,,,,,,,,,,,,,13,,59,72
23640,note_on,,1,0,16,,,,,,,,,,,,,,,,15,,59,72
23640,note_on,,1,0,7,,,,,,,,,,,,,,,,2,,59,72
23640,note_on,,1,0,9,,,,,,,,,,,,,,,,6,,66,78
23640,note_on,,0,0,16,,,,,,,,,,,,,,,,15,,66,72
23759,note_on,,0,0,16,,,,,,,,,,,,,,,,15,,66,0
23759,note_on,,119,0,15,,,,,,,,,,,,,,,,13,,59,0
23759,note_on,,0,0,16,,,,,,,,,,,,,,,,15,,63,0
23759,note_on,,119,0,16,,,,,,,,,,,,,,,,15,,59,0
23759,note_on,,119,0,10,,,,,,,,,,,,,,,,7,,63,0
23759,note_on,,119,0,7,,,,,,,,,,,,,,,,2,,59,0
23759,note_on,,119,0,9,,,,,,,,,,,,,,,,6,,66,0
23760,note_on,,0,0,16,,,,,,,,,,,,,,,,15,,68,72
23760,note_on,,0,0,16,,,,,,,,,,,,,,,,15,,64,72
23760,note_on,,0,0,16,,,,,,,,,,,,,,,,15,,59,72
23760,note_on,,1,0,15,,,,,,,,,,,,,,,,13,,52,72
23760,note_on,,1,0,7,,,,,,,,,,,,,,,,2,,52,72
23760,note_on,,1,0,9,,,,,,,,,,,,,,,,6,,68,78
23760,note_on,,1,0,16,,,,,,,,,,,,,,,,15,,52,72
23760,note_on,,1,0,10,,,,,,,,,,,,,,,,7,,64,78
23879,note_on,,119,0,15,,,,,,,,,,,,,,,,13,,52,0
23879,note_on,,119,0,9,,,,,,,,,,,,,,,,6,,68,0
23879,note_on,,119,0,16,,,,,,,,,,,,,,,,15,,52,0
23879,note_on,,119,0,7,,,,,,,,,,,,,,,,2,,52,0
23880,note_on,,1,0,16,,,,,,,,,,,,,,,,15,,51,72
23880,note_on,,1,0,15,,,,,,,,,,,,,,,,13,,51,72
23880,note_on,,1,0,7,,,,,,,,,,,,,,,,2,,51,72
23880,note_on,,1,0,9,,,,,,,,,,,,,,,,6,,68,78
23999,note_on,,119,0,15,,,,,,,,,,,,,,,,13,,51,0
23999,note_on,,119,0,7,,,,,,,,,,,,,,,,2,,51,0
23999,note_on,,119,0,16,,,,,,,,,,,,,,,,15,,68,0
23999,note_on,,119,0,9,,,,,,,,,,,,,,,,6,,68,0
23999,note_on,,0,0,16,,,,,,,,,,,,,,,,15,,64,0
23999,note_on,,0,0,16,,,,,,,,,,,,,,,,15,,59,0
23999,note_on,,0,0,16,,,,,,,,,,,,,,,,15,,51,0
24000,note_on,,1,0,9,,,,,,,,,,,,,,,,6,,70,78
24000,note_on,,0,0,16,,,,,,,,,,,,,,,,15,,70,72
24000,note_on,,0,0,16,,,,,,,,,,,,,,,,15,,73,72
24000,note_on,,1,0,16,,,,,,,,,,,,,,,,15,,49,72
24000,note_on,,0,0,16,,,,,,,,,,,,,,,,15,,64,72
24000,note_on,,1,0,7,,,,,,,,,,,,,,,,2,,49,72
24000,note_on,,1,0,15,,,,,,,,,,,,,,,,13,,49,72
24000,note_on,,0,0,16,,,,,,,,,,,,,,,,15,,61,72
24119,note_on,,359,0,10,,,,,,,,,,,,,,,,7,,64,0
24119,note_on,,0,0,16,,,,,,,,,,,,,,,,15,,73,0
24119,note_on,,0,0,16,,,,,,,,,,,,,,,,15,,70,0
24119,note_on,,119,0,7,,,,,,,,,,,,,,,,2,,49,0
24119,note_on,,0,0,16,,,,,,,,,,,,,,,,15,,61,0
24119,note_on,,119,0,9,,,,,,,,,,,,,,,,6,,70,0
24119,note_on,,0,0,16,,,,,,,,,,,,,,,,15,,64,0
24119,note_on,,119,0,16,,,,,,,,,,,,,,,,15,,49,0
24119,note_on,,119,0,15,,,,,,,,,,,,,,,,13,,49,0
24120,note_on,,0,0,16,,,,,,,,,,,,,,,,15,,54,72
24120,note_on,,0,0,16,,,,,,,,,,,,,,,,15,,66,72
24120,note_on,,0,0,16,,,,,,,,,,,,,,,,15,,71,72
24120,note_on,,0,0,16,,,,,,,,,,,,,,,,15,,75,72
24120,note_on,,1,0,16,,,,,,,,,,,,,,,,15,,47,72
24120,note_on,,1,0,10,,,,,,,,,,,,,,,,7,,63,78
24120,note_on,,1,0,9,,,,,,,,,,,,,,,,6,,71,78
24120,note_on,,1,0,7,,,,,,,,,,,,,,,,2,,47,72
24120,note_on,,1561,0,11,,,,,,,,,,,,,,,,8,,59,88
24120,note_on,,1,0,15,,,,,,,,,,,,,,,,13,,47,72
24359,note_on,,0,0,16,,,,,,,,,,,,,,,,15,,71,0
24359,note_on,,0,0,16,,,,,,,,,,,,,,,,15,,66,0
24359,note_on,,239,0,7,,,,,,,,,,,,,,,,2,,47,0
24359,note_on,,239,0,11,,,,,,,,,,,,,,,,8,,59,0
24359,note_on,,239,0,10,,,,,,,,,,,,,,,,7,,63,0
24359,note_on,,239,0,9,,,,,,,,,,,,,,,,6,,71,0
24359,note_on,,0,0,16,,,,,,,,,,,,,,,,15,,75,0
24359,note_on,,239,0,15,,,,,,,,,,,,,,,,13,,47,0
24359,note_on,,239,0,16,,,,,,,,,,,,,,,,15,,47,0
24360,note_on,,1,0,10,,,,,,,,,,,,,,,,7,,59,88
24360,note_on,,1,0,15,,,,,,,,,,,,,,,,13,,47,72
24360,note_on,,1,0,11,,,,,,,,,,,,,,,,8,,59,88
24360,note_on,,1,0,7,,,,,,,,,,,,,,,,2,,47,72
24360,note_on,,1,0,16,,,,,,,,,,,,,,,,15,,47,72
24360,note_on,,1,0,9,,,,,,,,,,,,,,,,6,,69,78
24479,note_on,,119,0,10,,,,,,,,,,,,,,,,7,,59,0
24479,note_on,,119,0,11,,,,,,,,,,,,,,,,8,,59,0
24479,note_on,,119,0,7,,,,,,,,,,,,,,,,2,,47,0
24479,note_on,,0,0,16,,,,,,,,,,,,,,,,15,,47,0
24479,note_on,,119,0,16,,,,,,,,,,,,,,,,15,,54,0
24479,note_on,,119,0,9,,,,,,,,,,,,,,,,6,,69,0
24479,note_on,,119,0,15,,,,,,,,,,,,,,,,13,,47,0
24480,note_on,,0,0,16,,,,,,,,,,,,,,,,15,,71,72
24480,note_on,,0,0,16,,,,,,,,,,,,,,,,15,,66,72
24480,note_on,,1,0,7,,,,,,,,,,,,,,,,2,,59,72
24480,note_on,,1,0,15,,,,,,,,,,,,,,,,13,,59,72
24480,note_on,,1,0,16,,,,,,,,,,,,,,,,15,,59,72
24480,note_on,,1,0,11,,,,,,,,,,,,,,,,8,,59,88
24480,note_on,,0,0,16,,,,,,,,,,,,,,,,15,,63,72
24480,note_on,,1,0,10,,,,,,,,,,,,,,,,7,,59,88
24600,note_on,,2041,0,14,,,,,,,,,,,,,,,,12,,66,72
24600,note_on,,2041,0,6,,,,,,,,,,,,,,,,1,,71,72
24600,note_on,,121,0,9,,,,,,,,,,,,,,,,6,,63,88
24600,note_on,,2041,0,5,,,,,,,,,,,,,,,,0,,71,72
24600,note_on,,2041,0,8,,,,,,,,,,,,,,,,5,,71,88
24600,note_on,,2041,0,12,,,,,,,,,,,,,,,,10,,75,72
24600,note_on,,2041,0,13,,,,,,,,,,,,,,,,11,,71,72
24719,note_on,,119,0,5,,,,,,,,,,,,,,,,0,,71,0
24719,note_on,,239,0,16,,,,,,,,,,,,,,,,15,,71,0
24719,note_on,,119,0,13,,,,,,,,,,,,,,,,11,,71,0
24719,note_on,,119,0,9,,,,,,,,,,,,,,,,6,,63,0
24719,note_on,,0,0,16,,,,,,,,,,,,,,,,15,,63,0
24719,note_on,,0,0,16,,,,,,,,,,,,,,,,15,,66,0
24719,note_on,,119,0,14,,,,,,,,,,,,,,,,12,,66,0
24719,note_on,,119,0,8,,,,,,,,,,,,,,,,5,,71,0
24719,note_on,,119,0,6,,,,,,,,,,,,,,,,1,,71,0
24719,note_on,,119,0,12,,,,,,,,,,,,,,,,10,,75,0
24720,note_on,,1,0,8,,,,,,,,,,,,,,,,5,,76,88
24720,note_on,,1,0,16,,,,,,,,,,,,,,,,15,,76,72
24720,note_on,,0,0,16,,,,,,,,,,,,,,,,15,,71,72
24720,note_on,,0,0,16,,,,,,,,,,,,,,,,15,,68,72
24720,note_on,,1,0,5,,,,,,,,,,,,,,,,0,,76,72
24720,note_on,,1,0,6,,,,,,,,,,,,,,,,1,,76,72
24720,note_on,,1,0,12,,,,,,,,,,,,,,,,10,,80,72
24720,note_on,,1,0,14,,,,,,,,,,,,,,,,12,,64,72
24720,note_on,,1,0,9,,,,,,,,,,,,,,,,6,,68,88
24720,note_on,,1,0,13,,,,,,,,,,,,,,,,11,,76,72
24839,note_on,,0,0,16,,,,,,,,,,,,,,,,15,,71,0
24839,note_on,,0,0,16,,,,,,,,,,,,,,,,15,,68,0
24839,note_on,,119,0,16,,,,,,,,,,,,,,,,15,,59,0
24839,note_on,,359,0,10,,,,,,,,,,,,,,,,7,,59,0
24839,note_on,,359,0,15,,,,,,,,,,,,,,,,13,,59,0
24839,note_on,,119,0,8,,,,,,,,,,,,,,,,5,,76,0
24839,note_on,,0,0,16,,,,,,,,,,,,,,,,15,,76,0
24839,note_on,,119,0,14,,,,,,,,,,,,,,,,12,,64,0
24839,note_on,,119,0,6,,,,,,,,,,,,,,,,1,,76,0
24839,note_on,,119,0,13,,,,,,,,,,,,,,,,11,,76,0
24839,note_on,,359,0,7,,,,,,,,,,,,,,,,2,,59,0
24839,note_on,,359,0,11,,,,,,,,,,,,,,,,8,,59,0
24839,note_on,,119,0,5,,,,,,,,,,,,,,,,0,,76,0
24839,note_on,,119,0,9,,,,,,,,,,,,,,,,6,,68,0
24839,note_on,,119,0,12,,,,,,,,,,,,,,,,10,,80,0
24840,note_on,,0,0,16,,,,,,,,,,,,,,,,15,,66,72
24840,note_on,,0,0,16,,,,,,,,,,,,,,,,15,,71,72
24840,note_on,,1,0,15,,,,,,,,,,,,,,,,13,,59,72
24840,note_on,,1,0,7,,,,,,,,,,,,,,,,2,,59,72
24840,note_on,,1,0,10,,,,,,,,,,,,,,,,7,,59,88
24840,note_on,,0,0,16,,,,,,,,,,,,,,,,15,,75,72
24840,note_on,,1,0,16,,,,,,,,,,,,,,,,15,,59,72
24840,note_on,,1,0,6,,,,,,,,,,,,,,,,1,,75,72
24840,note_on,,1,0,8,,,,,,,,,,,,,,,,5,,75,88
24840,note_on,,1,0,5,,,,,,,,,,,,,,,,0,,75,72
24840,note_on,,1,0,11,,,,,,,,,,,,,,,,8,,59,88
24840,note_on,,1,0,14,,,,,,,,,,,,,,,,12,,66,72
24840,note_on,,1,0,9,,,,,,,,,,,,,,,,6,,66,88
24840,note_on,,1,0,13,,,,,,,,,,,,,,,,11,,75,72
24840,note_on,,1,0,12,,,,,,,,,,,,,,,,10,,78,72
24899,note_on,,59,0,6,,,,,,,,,,,,,,,,1,,75,0
24899,note_on,,59,0,5,,,,,,,,,,,,,,,,0,,75,0
24899,note_on,,59,0,12,,,,,,,,,,,,,,,,10,,78,0
24899,note_on,,59,0,9,,,,,,,,,,,,,,,,6,,66,0
24899,note_on,,59,0,13,,,,,,,,,,,,,,,,11,,75,0
24899,note_on,,59,0,8,,,,,,,,,,,,,,,,5,,75,0
24900,note_on,,1,0,12,,,,,,,,,,,,,,,,10,,76,72
24900,note_on,,1,0,5,,,,,,,,,,,,,,,,0,,73,72
24900,note_on,,1,0,13,,,,,,,,,,,,,,,,11,,73,72
24900,note_on,,1,0,8,,,,,,,,,,,,,,,,5,,73,88
24900,note_on,,1,0,6,,,,,,,,,,,,,,,,1,,73,72
24900,note_on,,1,0,9,,,,,,,,,,,,,,,,6,,64,88
24959,note_on,,59,0,5,,,,,,,,,,,,,,,,0,,73,0
24959,note_on,,59,0,13,,,,,,,,,,,,,,,,11,,73,0
24959,note_on,,59,0,8,,,,,,,,,,,,,,,,5,,73,0
24959,note_on,,59,0,6,,,,,,,,,,,,,,,,1,,73,0
24959,note_on,,59,0,9,,,,,,,,,,,,,,,,6,,64,0
24959,note_on,,59,0,12,,,,,,,,,,,,,,,,10,,76,0
24960,note_on,,1,0,8,,,,,,,,,,,,,,,,5,,71,88
24960,note_on,,1,0,5,,,,,,,,,,,,,,,,0,,71,72
24960,note_on,,1,0,9,,,,,,,,,,,,,,,,6,,63,88
24960,note_on,,1,0,12,,,,,,,,,,,,,,,,10,,75,72
24960,note_on,,1,0,13,,,,,,,,,,,,,,,,11,,71,72
24960,note_on,,1,0,6,,,,,,,,,,,,,,,,1,,71,72
25079,note_on,,119,0,6,,,,,,,,,,,,,,,,1,,71,0
25079,note_on,,119,0,9,,,,,,,,,,,,,,,,6,,63,0
25079,note_on,,119,0,12,,,,,,,,,,,,,,,,10,,75,0
25079,note_on,,239,0,11,,,,,,,,,,,,,,,,8,,59,0
25079,note_on,,239,0,15,,,,,,,,,,,,,,,,13,,59,0
25079,note_on,,239,0,10,,,,,,,,,,,,,,,,7,,59,0
25079,note_on,,239,0,7,,,,,,,,,,,,,,,,2,,59,0
25079,note_on,,239,0,14,,,,,,,,,,,,,,,,12,,66,0
25079,note_on,,239,0,16,,,,,,,,,,,,,,,,15,,59,0
25079,note_on,,119,0,8,,,,,,,,,,,,,,,,5,,71,0
25079,note_on,,0,0,16,,,,,,,,,,,,,,,,15,,75,0
25079,note_on,,0,0,16,,,,,,,,,,,,,,,,15,,71,0
25079,note_on,,0,0,16,,,,,,,,,,,,,,,,15,,66,0
25079,note_on,,119,0,13,,,,,,,,,,,,,,,,11,,71,0
25079,note_on,,119,0,5,,,,,,,,,,,,,,,,0,,71,0
25080,note_on,,1,0,16,,,,,,,,,,,,,,,,15,,59,72
25080,note_on,,1,0,14,,,,,,,,,,,,,,,,12,,59,72
25080,note_on,,1,0,9,,,,,,,,,,,,,,,,6,,64,88
25080,note_on,,1,0,12,,,,,,,,,,,,,,,,10,,80,72
25080,note_on,,1,0,7,,,,,,,,,,,,,,,,2,,59,72
25080,note_on,,1,0,8,,,,,,,,,,,,,,,,5,,76,88
25080,note_on,,1,0,11,,,,,,,,,,,,,,,,8,,59,88
25080,note_on,,1,0,5,,,,,,,,,,,,,,,,0,,76,72
25080,note_on,,0,0,16,,,,,,,,,,,,,,,,15,,76,72
25080,note_on,,1,0,6,,,,,,,,,,,,,,,,1,,76,72
25080,note_on,,0,0,16,,,,,,,,,,,,,,,,15,,71,72
25080,note_on,,0,0,16,,,,,,,,,,,,,,,,15,,64,72
25080,note_on,,1,0,15,,,,,,,,,,,,,,,,13,,59,72
25080,note_on,,1,0,10,,,,,,,,,,,,,,,,7,,59,88
25080,note_on,,1,0,13,,,,,,,,,,,,,,,,11,,76,72
25080,note_on,,0,0,16,,,,,,,,,,,,,,,,15,,80,72
25199,note_on,,0,0,16,,,,,,,,,,,,,,,,15,,64,0
25199,note_on,,119,0,8,,,,,,,,,,,,,,,,5,,76,0
25199,note_on,,119,0,14,,,,,,,,,,,,,,,,12,,59,0
25199,note_on,,119,0,9,,,,,,,,,,,,,,,,6,,64,0
25199,note_on,,119,0,13,,,,,,,,,,,,,,,,11,,76,0
25199,note_on,,119,0,16,,,,,,,,,,,,,,,,15,,59,0
25199,note_on,,0,0,16,,,,,,,,,,,,,,,,15,,80,0
25199,note_on,,0,0,16,,,,,,,,,,,,,,,,15,,76,0
25199,note_on,,119,0,6,,,,,,,,,,,,,,,,1,,76,0
25199,note_on,,119,0,5,,,,,,,,,,,,,,,,0,,76,0
25199,note_on,,119,0,11,,,,,,,,,,,,,,,,8,,59,0
25199,note_on,,119,0,7,,,,,,,,,,,,,,,,2,,59,0
25199,note_on,,119,0,10,,,,,,,,,,,,,,,,7,,59,0
25199,note_on,,119,0,12,,,,,,,,,,,,,,,,10,,80,0
25199,note_on,,119,0,15,,,,,,,,,,,,,,,,13,,59,0
25199,note_on,,0,0,16,,,,,,,,,,,,,,,,15,,71,0
25200,note_on,,1,0,7,,,,,,,,,,,,,,,,2,,59,72
25200,note_on,,1,0,11,,,,,,,,,,,,,,,,8,,59,88
25200,note_on,,1,0,13,,,,,,,,,,,,,,,,11,,75,72
25200,note_on,,1,0,9,,,,,,,,,,,,,,,,6,,66,88
25200,note_on,,1,0,10,,,,,,,,,,,,,,,,7,,59,88
25200,note_on,,1,0,12,,,,,,,,,,,,,,,,10,,78,72
25200,note_on,,1,0,15,,,,,,,,,,,,,,,,13,,59,72
25200,note_on,,1,0,6,,,,,,,,,,,,,,,,1,,75,72
25200,note_on,,1,0,14,,,,,,,,,,,,,,,,12,,66,72
25200,note_on,,1,0,5,,,,,,,,,,,,,,,,0,,75,72
25200,note_on,,1,0,16,,,,,,,,,,,,,,,,15,,59,72
25200,note_on,,1,0,8,,,,,,,,,,,,,,,,5,,75,88
25200,note_on,,0,0,16,,,,,,,,,,,,,,,,15,,78,72
25200,note_on,,0,0,16,,,,,,,,,,,,,,,,15,,75,72
25200,note_on,,0,0,16,,,,,,,,,,,,,,,,15,,71,72
25200,note_on,,0,0,16,,,,,,,,,,,,,,,,15,,66,72
25259,note_on,,59,0,6,,,,,,,,,,,,,,,,1,,75,0
25259,note_on,,59,0,12,,,,,,,,,,,,,,,,10,,78,0
25259,note_on,,59,0,5,,,,,,,,,,,,,,,,0,,75,0
25259,note_on,,59,0,13,,,,,,,,,,,,,,,,11,,75,0
25259,note_on,,59,0,8,,,,,,,,,,,,,,,,5,,75,0
25259,note_on,,59,0,9,,,,,,,,,,,,,,,,6,,66,0
25260,note_on,,1,0,6,,,,,,,,,,,,,,,,1,,73,72
25260,note_on,,1,0,13,,,,,,,,,,,,,,,,11,,73,72
25260,note_on,,1,0,9,,,,,,,,,,,,,,,,6,,64,88
25260,note_on,,1,0,12,,,,,,,,,,,,,,,,10,,76,72
25260,note_on,,1,0,8,,,,,,,,,,,,,,,,5,,73,88
25260,note_on,,1,0,5,,,,,,,,,,,,,,,,0,,73,72
25319,note_on,,59,0,5,,,,,,,,,,,,,,,,0,,73,0
25319,note_on,,59,0,13,,,,,,,,,,,,,,,,11,,73,0
25319,note_on,,59,0,9,,,,,,,,,,,,,,,,6,,64,0
25319,note_on,,59,0,12,,,,,,,,,,,,,,,,10,,76,0
25319,note_on,,59,0,8,,,,,,,,,,,,,,,,5,,73,0
25319,note_on,,59,0,6,,,,,,,,,,,,,,,,1,,73,0
25320,note_on,,1,0,12,,,,,,,,,,,,,,,,10,,75,72
25320,note_on,,1,0,13,,,,,,,,,,,,,,,,11,,71,72
25320,note_on,,1,0,6,,,,,,,,,,,,,,,,1,,71,72
25320,note_on,,1,0,8,,,,,,,,,,,,,,,,5,,71,88
25320,note_on,,1,0,9,,,,,,,,,,,,,,,,6,,63,88
25320,note_on,,1,0,5,,,,,,,,,,,,,,,,0,,71,72
25439,note_on,,119,0,9,,,,,,,,,,,,,,,,6,,63,0
25439,note_on,,119,0,12,,,,,,,,,,,,,,,,10,,75,0
25439,note_on,,0,0,16,,,,,,,,,,,,,,,,15,,66,0
25439,note_on,,0,0,16,,,,,,,,,,,,,,,,15,,71,0
25439,note_on,,239,0,14,,,,,,,,,,,,,,,,12,,66,0
25439,note_on,,0,0,16,,,,,,,,,,,,,,,,15,,75,0
25439,note_on,,239,0,16,,,,,,,,,,,,,,,,15,,59,0
25439,note_on,,0,0,16,,,,,,,,,,,,,,,,15,,78,0
25439,note_on,,119,0,8,,,,,,,,,,,,,,,,5,,71,0
25439,note_on,,119,0,6,,,,,,,,,,,,,,,,1,,71,0
25439,note_on,,119,0,13,,,,,,,,,,,,,,,,11,,71,0
25439,note_on,,239,0,10,,,,,,,,,,,,,,,,7,,59,0
25439,note_on,,119,0,5,,,,,,,,,,,,,,,,0,,71,0
25439,note_on,,239,0,15,,,,,,,,,,,,,,,,13,,59,0
25439,note_on,,239,0,11,,,,,,,,,,,,,,,,8,,59,0
25439,note_on,,239,0,7,,,,,,,,,,,,,,,,2,,59,0
25440,note_on,,1,0,12,,,,,,,,,,,,,,,,10,,83,72
25440,note_on,,1,0,14,,,,,,,,,,,,,,,,12,,66,72
25440,note_on,,1,0,6,,,,,,,,,,,,,,,,1,,75,72
25440,note_on,,1,0,5,,,,,,,,,,,,,,,,0,,75,72
25440,note_on,,1,0,15,,,,,,,,,,,,,,,,13,,59,72
25440,note_on,,1,0,13,,,,,,,,,,,,,,,,11,,75,72
25440,note_on,,1,0,8,,,,,,,,,,,,,,,,5,,75,88
25440,note_on,,1,0,10,,,,,,,,,,,,,,,,7,,66,88
25440,note_on,,1,0,11,,,,,,,,,,,,,,,,8,,59,88
25440,note_on,,0,0,16,,,,,,,,,,,,,,,,15,,66,72
25440,note_on,,1,0,9,,,,,,,,,,,,,,,,6,,71,88
25440,note_on,,1,0,7,,,,,,,,,,,,,,,,2,,59,72
25440,note_on,,1,0,16,,,,,,,,,,,,,,,,15,,59,72
25440,note_on,,0,0,16,,,,,,,,,,,,,,,,15,,75,72
25440,note_on,,0,0,16,,,,,,,,,,,,,,,,15,,71,72
25559,note_on,,0,0,16,,,,,,,,,,,,,,,,15,,66,0
25559,note_on,,119,0,12,,,,,,,,,,,,,,,,10,,83,0
25559,note_on,,0,0,16,,,,,,,,,,,,,,,,15,,71,0
25559,note_on,,119,0,6,,,,,,,,,,,,,,,,1,,75,0
25559,note_on,,119,0,7,,,,,,,,,,,,,,,,2,,59,0
25559,note_on,,119,0,16,,,,,,,,,,,,,,,,15,,59,0
25559,note_on,,119,0,10,,,,,,,,,,,,,,,,7,,66,0
25559,note_on,,119,0,5,,,,,,,,,,,,,,,,0,,75,0
25559,note_on,,119,0,13,,,,,,,,,,,,,,,,11,,75,0
25559,note_on,,0,0,16,,,,,,,,,,,,,,,,15,,75,0
25559,note_on,,119,0,8,,,,,,,,,,,,,,,,5,,75,0
25559,note_on,,119,0,15,,,,,,,,,,,,,,,,13,,59,0
25559,note_on,,119,0,11,,,,,,,,,,,,,,,,8,,59,0
25559,note_on,,119,0,14,,,,,,,,,,,,,,,,12,,66,0
25559,note_on,,119,0,9,,,,,,,,,,,,,,,,6,,71,0
25560,note_on,,1,0,9,,,,,,,,,,,,,,,,6,,71,88
25560,note_on,,1,0,5,,,,,,,,,,,,,,,,0,,76,72
25560,note_on,,1,0,12,,,,,,,,,,,,,,,,10,,83,72
25560,note_on,,1,0,14,,,,,,,,,,,,,,,,12,,64,72
25560,note_on,,0,0,16,,,,,,,,,,,,,,,,15,,64,72
25560,note_on,,0,0,16,,,,,,,,,,,,,,,,15,,71,72
25560,note_on,,0,0,16,,,,,,,,,,,,,,,,15,,76,72
25560,note_on,,1,0,16,,,,,,,,,,,,,,,,15,,61,72
25560,note_on,,1,0,11,,,,,,,,,,,,,,,,8,,61,88
25560,note_on,,1,0,15,,,,,,,,,,,,,,,,13,,61,72
25560,note_on,,1,0,8,,,,,,,,,,,,,,,,5,,76,88
25560,note_on,,1,0,6,,,,,,,,,,,,,,,,1,,76,72
25560,note_on,,1,0,10,,,,,,,,,,,,,,,,7,,64,88
25560,note_on,,1,0,13,,,,,,,,,,,,,,,,11,,76,72
25560,note_on,,1,0,7,,,,,,,,,,,,,,,,2,,61,72
25799,note_on,,239,0,9,,,,,,,,,,,,,,,,6,,71,0
25799,note_on,,239,0,12,,,,,,,,,,,,,,,,10,,83,0
25799,note_on,,0,0,16,,,,,,,,,,,,,,,,15,,71,0
25799,note_on,,0,0,16,,,,,,,,,,,,,,,,15,,76,0
25799,note_on,,239,0,16,,,,,,,,,,,,,,,,15,,61,0
25799,note_on,,239,0,7,,,,,,,,,,,,,,,,2,,61,0
25799,note_on,,239,0,15,,,,,,,,,,,,,,,,13,,61,0
25799,note_on,,239,0,14,,,,,,,,,,,,,,,,12,,64,0
25799,note_on,,0,0,16,,,,,,,,,,,,,,,,15,,64,0
25799,note_on,,239,0,10,,,,,,,,,,,,,,,,7,,64,0
25799,note_on,,239,0,11,,,,,,,,,,,,,,,,8,,61,0
25800,note_on,,1,0,14,,,,,,,,,,,,,,,,12,,64,72
25800,note_on,,1,0,10,,,,,,,,,,,,,,,,7,,64,88
25800,note_on,,1,0,9,,,,,,,,,,,,,,,,6,,70,88
25800,note_on,,1,0,11,,,,,,,,,,,,,,,,8,,61,88
25800,note_on,,0,0,16,,,,,,,,,,,,,,,,15,,73,72
25800,note_on,,1,0,16,,,,,,,,,,,,,,,,15,,61,72
25800,note_on,,0,0,16,,,,,,,,,,,,,,,,15,,70,72
25800,note_on,,1,0,12,,,,,,,,,,,,,,,,10,,82,72
25800,note_on,,1,0,15,,,,,,,,,,,,,,,,13,,61,72
25800,note_on,,1,0,7,,,,,,,,,,,,,,,,2,,61,72
25800,note_on,,0,0,16,,,,,,,,,,,,,,,,15,,64,72
25919,note_on,,0,0,16,,,,,,,,,,,,,,,,15,,64,0
25919,note_on,,119,0,16,,,,,,,,,,,,,,,,15,,61,0
25919,note_on,,359,0,5,,,,,,,,,,,,,,,,0,,76,0
25919,note_on,,0,0,16,,,,,,,,,,,,,,,,15,,70,0
25919,note_on,,359,0,6,,,,,,,,,,,,,,,,1,,76,0
25919,note_on,,0,0,16,,,,,,,,,,,,,,,,15,,73,0
25919,note_on,,119,0,9,,,,,,,,,,,,,,,,6,,70,0
25919,note_on,,119,0,10,,,,,,,,,,,,,,,,7,,64,0
25919,note_on,,119,0,7,,,,,,,,,,,,,,,,2,,61,0
25919,note_on,,359,0,13,,,,,,,,,,,,,,,,11,,76,0
25919,note_on,,359,0,8,,,,,,,,,,,,,,,,5,,76,0
25919,note_on,,119,0,15,,,,,,,,,,,,,,,,13,,61,0
25919,note_on,,119,0,11,,,,,,,,,,,,,,,,8,,61,0
25919,note_on,,119,0,12,,,,,,,,,,,,,,,,10,,82,0
25919,note_on,,119,0,14,,,,,,,,,,,,,,,,12,,64,0
25920,note_on,,1,0,9,,,,,,,,,,,,,,,,6,,71,88
25920,note_on,,0,0,16,,,,,,,,,,,,,,,,15,,66,72
25920,note_on,,1,0,11,,,,,,,,,,,,,,,,8,,59,88
25920,note_on,,1,0,10,,,,,,,,,,,,,,,,7,,66,88
25920,note_on,,0,0,16,,,,,,,,,,,,,,,,15,,71,72
25920,note_on,,1,0,16,,,,,,,,,,,,,,,,15,,59,72
25920,note_on,,1,0,15,,,,,,,,,,,,,,,,13,,59,72
25920,note_on,,1,0,13,,,,,,,,,,,,,,,,11,,75,72
25920,note_on,,1,0,7,,,,,,,,,,,,,,,,2,,59,72
25920,note_on,,1,0,5,,,,,,,,,,,,,,,,0,,75,72
25920,note_on,,0,0,16,,,,,,,,,,,,,,,,15,,75,72
25920,note_on,,1,0,14,,,,,,,,,,,,,,,,12,,66,72
25920,note_on,,1,0,8,,,,,,,,,,,,,,,,5,,75,88
25920,note_on,,1,0,6,,,,,,,,,,,,,,,,1,,75,72
25920,note_on,,1,0,12,,,,,,,,,,,,,,,,10,,83,72
26039,note_on,,119,0,12,,,,,,,,,,,,,,,,10,,83,0
26039,note_on,,119,0,13,,,,,,,,,,,,,,,,11,,75,0
26040,note_on,,1,0,12,,,,,,,,,,,,,,,,10,,75,72
26040,note_on,,1,0,13,,,,,,,,,,,,,,,,11,,71,72
26159,note_on,,119,0,12,,,,,,,,,,,,,,,,10,,75,0
26159,note_on,,119,0,13,,,,,,,,,,,,,,,,11,,71,0
26160,note_on,,1,0,13,,,,,,,,,,,,,,,,11,,66,72
26160,note_on,,1,0,12,,,,,,,,,,,,,,,,10,,71,72
26279,note_on,,359,0,15,,,,,,,,,,,,,,,,13,,59,0
26279,note_on,,119,0,13,,,,,,,,,,,,,,,,11,,66,0
26279,note_on,,359,0,9,,,,,,,,,,,,,,,,6,,71,0
26279,note_on,,359,0,7,,,,,,,,,,,,,,,,2,,59,0
26279,note_on,,359,0,11,,,,,,,,,,,,,,,,8,,59,0
26279,note_on,,359,0,10,,,,,,,,,,,,,,,,7,,66,0
26279,note_on,,359,0,5,,,,,,,,,,,,,,,,0,,75,0
26279,note_on,,359,0,6,,,,,,,,,,,,,,,,1,,75,0
26279,note_on,,359,0,14,,,,,,,,,,,,,,,,12,,66,0
26279,note_on,,359,0,8,,,,,,,,,,,,,,,,5,,75,0
26279,note_on,,0,0,16,,,,,,,,,,,,,,,,15,,66,0
26279,note_on,,0,0,16,,,,,,,,,,,,,,,,15,,75,0
26279,note_on,,0,0,16,,,,,,,,,,,,,,,,15,,71,0
26279,note_on,,119,0,12,,,,,,,,,,,,,,,,10,,71,0
26279,note_on,,359,0,16,,,,,,,,,,,,,,,,15,,59,0
26280,note_on,,1,0,13,,,,,,,,,,,,,,,,11,,75,72
26280,note_on,,1,0,12,,,,,,,,,,,,,,,,10,,78,72
26400,note_on,,121,0,16,,,,,,,,,,,,,,,,15,,59,72
26400,note_on,,0,0,16,,,,,,,,,,,,,,,,15,,63,72
26400,note_on,,121,0,14,,,,,,,,,,,,,,,,12,,71,72
26400,note_on,,121,0,15,,,,,,,,,,,,,,,,13,,59,72
26400,note_on,,121,0,7,,,,,,,,,,,,,,,,2,,59,72
26400,note_on,,0,0,16,,,,,,,,,,,,,,,,15,,66,72
26459,note_on,,179,0,13,,,,,,,,,,,,,,,,11,,75,0
26459,note_on,,179,0,12,,,,,,,,,,,,,,,,10,,78,0
26460,note_on,,1,0,13,,,,,,,,,,,,,,,,11,,73,72
26460,note_on,,1,0,12,,,,,,,,,,,,,,,,10,,76,72
26519,note_on,,119,0,16,,,,,,,,,,,,,,,,15,,59,0
26519,note_on,,119,0,15,,,,,,,,,,,,,,,,13,,59,0
26519,note_on,,0,0,16,,,,,,,,,,,,,,,,15,,66,0
26519,note_on,,59,0,12,,,,,,,,,,,,,,,,10,,76,0
26519,note_on,,119,0,14,,,,,,,,,,,,,,,,12,,71,0
26519,note_on,,0,0,16,,,,,,,,,,,,,,,,15,,63,0
26519,note_on,,119,0,7,,,,,,,,,,,,,,,,2,,59,0
26519,note_on,,59,0,13,,,,,,,,,,,,,,,,11,,73,0
26520,note_on,,1,0,12,,,,,,,,,,,,,,,,10,,75,72
26520,note_on,,1,0,14,,,,,,,,,,,,,,,,12,,66,72
26520,note_on,,1,0,15,,,,,,,,,,,,,,,,13,,63,72
26520,note_on,,1,0,7,,,,,,,,,,,,,,,,2,,63,72
26520,note_on,,0,0,16,,,,,,,,,,,,,,,,15,,66,72
26520,note_on,,0,0,16,,,,,,,,,,,,,,,,15,,71,72
26520,note_on,,1,0,16,,,,,,,,,,,,,,,,15,,63,72
26520,note_on,,1,0,13,,,,,,,,,,,,,,,,11,,71,72
26639,note_on,,0,0,16,,,,,,,,,,,,,,,,15,,71,0
26639,note_on,,119,0,14,,,,,,,,,,,,,,,,12,,66,0
26639,note_on,,119,0,12,,,,,,,,,,,,,,,,10,,75,0
26639,note_on,,0,0,16,,,,,,,,,,,,,,,,15,,66,0
26639,note_on,,119,0,16,,,,,,,,,,,,,,,,15,,63,0
26639,note_on,,119,0,13,,,,,,,,,,,,,,,,11,,71,0
26639,note_on,,119,0,15,,,,,,,,,,,,,,,,13,,63,0
26639,note_on,,119,0,7,,,,,,,,,,,,,,,,2,,63,0
26640,note_on,,1,0,14,,,,,,,,,,,,,,,,12,,68,72
26640,note_on,,1,0,16,,,,,,,,,,,,,,,,15,,64,72
26640,note_on,,0,0,16,,,,,,,,,,,,,,,,15,,68,72
26640,note_on,,1,0,7,,,,,,,,,,,,,,,,2,,64,72
26640,note_on,,0,0,16,,,,,,,,,,,,,,,,15,,71,72
26640,note_on,,1,0,12,,,,,,,,,,,,,,,,10,,80,72
26640,note_on,,1,0,13,,,,,,,,,,,,,,,,11,,71,72
26640,note_on,,1,0,15,,,,,,,,,,,,,,,,13,,64,72
26759,note_on,,119,0,16,,,,,,,,,,,,,,,,15,,64,0
26759,note_on,,119,0,12,,,,,,,,,,,,,,,,10,,80,0
26759,note_on,,119,0,14,,,,,,,,,,,,,,,,12,,68,0
26759,note_on,,119,0,15,,,,,,,,,,,,,,,,13,,64,0
26759,note_on,,0,0,16,,,,,,,,,,,,,,,,15,,68,0
26759,note_on,,119,0,7,,,,,,,,,,,,,,,,2,,64,0
26759,note_on,,119,0,13,,,,,,,,,,,,,,,,11,,71,0
26760,note_on,,1,0,12,,,,,,,,,,,,,,,,10,,80,72
26760,note_on,,1,0,7,,,,,,,,,,,,,,,,2,,63,72
26760,note_on,,1,0,14,,,,,,,,,,,,,,,,12,,66,72
26760,note_on,,1,0,13,,,,,,,,,,,,,,,,11,,71,72
26760,note_on,,0,0,16,,,,,,,,,,,,,,,,15,,66,72
26760,note_on,,1,0,16,,,,,,,,,,,,,,,,15,,63,72
26760,note_on,,1,0,15,,,,,,,,,,,,,,,,13,,63,72
26879,note_on,,119,0,13,,,,,,,,,,,,,,,,11,,71,0
26879,note_on,,119,0,16,,,,,,,,,,,,,,,,15,,71,0
26879,note_on,,0,0,16,,,,,,,,,,,,,,,,15,,66,0
26879,note_on,,0,0,16,,,,,,,,,,,,,,,,15,,63,0
26879,note_on,,119,0,15,,,,,,,,,,,,,,,,13,,63,0
26879,note_on,,119,0,7,,,,,,,,,,,,,,,,2,,63,0
26879,note_on,,119,0,12,,,,,,,,,,,,,,,,10,,80,0
26879,note_on,,119,0,14,,,,,,,,,,,,,,,,12,,66,0
26880,note_on,,1,0,15,,,,,,,,,,,,,,,,13,,61,72
26880,note_on,,1,0,13,,,,,,,,,,,,,,,,11,,76,72
26880,note_on,,1,0,12,,,,,,,,,,,,,,,,10,,82,72
26880,note_on,,0,0,16,,,,,,,,,,,,,,,,15,,64,72
26880,note_on,,0,0,16,,,,,,,,,,,,,,,,15,,70,72
26880,note_on,,0,0,16,,,,,,,,,,,,,,,,15,,73,72
26880,note_on,,1,0,16,,,,,,,,,,,,,,,,15,,61,72
26880,note_on,,1,0,7,,,,,,,,,,,,,,,,2,,61,72
26880,note_on,,1,0,14,,,,,,,,,,,,,,,,12,,64,72
26999,note_on,,0,0,16,,,,,,,,,,,,,,,,15,,64,0
26999,note_on,,0,0,16,,,,,,,,,,,,,,,,15,,70,0
26999,note_on,,0,0,16,,,,,,,,,,,,,,,,15,,73,0
26999,note_on,,119,0,16,,,,,,,,,,,,,,,,15,,61,0
26999,note_on,,119,0,15,,,,,,,,,,,,,,,,13,,61,0
26999,note_on,,119,0,13,,,,,,,,,,,,,,,,11,,76,0
26999,note_on,,119,0,7,,,,,,,,,,,,,,,,2,,61,0
26999,note_on,,119,0,12,,,,,,,,,,,,,,,,10,,82,0
26999,note_on,,119,0,14,,,,,,,,,,,,,,,,12,,64,0
27000,note_on,,0,0,16,,,,,,,,,,,,,,,,15,,66,72
27000,note_on,,1,0,7,,,,,,,,,,,,,,,,2,,59,72
27000,note_on,,1,0,13,,,,,,,,,,,,,,,,11,,75,72
27000,note_on,,1,0,12,,,,,,,,,,,,,,,,10,,83,72
27000,note_on,,0,0,16,,,,,,,,,,,,,,,,15,,71,72
27000,note_on,,1,0,15,,,,,,,,,,,,,,,,13,,59,72
27000,note_on,,1,0,14,,,,,,,,,,,,,,,,12,,66,72
27000,note_on,,1,0,16,,,,,,,,,,,,,,,,15,,59,72
27000,note_on,,0,0,16,,,,,,,,,,,,,,,,15,,75,72
27119,note_on,,119,0,16,,,,,,,,,,,,,,,,15,,59,0
27119,note_on,,119,0,7,,,,,,,,,,,,,,,,2,,59,0
27119,note_on,,119,0,15,,,,,,,,,,,,,,,,13,,59,0
27119,note_on,,119,0,12,,,,,,,,,,,,,,,,10,,83,0
27119,note_on,,119,0,14,,,,,,,,,,,,,,,,12,,66,0
27119,note_on,,119,0,13,,,,,,,,,,,,,,,,11,,75,0
27119,note_on,,0,0,16,,,,,,,,,,,,,,,,15,,75,0
27119,note_on,,0,0,16,,,,,,,,,,,,,,,,15,,71,0
27119,note_on,,0,0,16,,,,,,,,,,,,,,,,15,,66,0
27120,note_on,,841,0,9,,,,,,,,,,,,,,,,6,,66,88
27120,note_on,,0,0,16,,,,,,,,,,,,,,,,15,,51,72
27120,note_on,,1,0,14,,,,,,,,,,,,,,,,12,,66,72
27120,note_on,,1,0,12,,,,,,,,,,,,,,,,10,,78,72
27120,note_on,,841,0,6,,,,,,,,,,,,,,,,1,,66,72
27120,note_on,,841,0,8,,,,,,,,,,,,,,,,5,,66,88
27120,note_on,,841,0,5,,,,,,,,,,,,,,,,0,,66,72
27120,note_on,,1,0,7,,,,,,,,,,,,,,,,2,,51,72
27120,note_on,,1,0,16,,,,,,,,,,,,,,,,15,,54,72
27120,note_on,,841,0,10,,,,,,,,,,,,,,,,7,,59,88
27120,note_on,,0,0,16,,,,,,,,,,,,,,,,15,,66,72
27120,note_on,,0,0,16,,,,,,,,,,,,,,,,15,,59,72
27120,note_on,,1,0,13,,,,,,,,,,,,,,,,11,,71,72
27120,note_on,,1,0,15,,,,,,,,,,,,,,,,13,,51,72
27120,note_on,,841,0,11,,,,,,,,,,,,,,,,8,,51,88
27239,note_on,,119,0,12,,,,,,,,,,,,,,,,10,,78,0
27239,note_on,,119,0,11,,,,,,,,,,,,,,,,8,,51,0
27239,note_on,,119,0,6,,,,,,,,,,,,,,,,1,,66,0
27239,note_on,,119,0,7,,,,,,,,,,,,,,,,2,,51,0
27239,note_on,,119,0,9,,,,,,,,,,,,,,,,6,,66,0
27239,note_on,,119,0,8,,,,,,,,,,,,,,,,5,,66,0
27239,note_on,,119,0,14,,,,,,,,,,,,,,,,12,,66,0
27239,note_on,,0,0,16,,,,,,,,,,,,,,,,15,,66,0
27239,note_on,,0,0,16,,,,,,,,,,,,,,,,15,,51,0
27239,note_on,,119,0,16,,,,,,,,,,,,,,,,15,,54,0
27239,note_on,,119,0,10,,,,,,,,,,,,,,,,7,,59,0
27239,note_on,,119,0,5,,,,,,,,,,,,,,,,0,,66,0
27239,note_on,,119,0,13,,,,,,,,,,,,,,,,11,,71,0
27239,note_on,,0,0,16,,,,,,,,,,,,,,,,15,,59,0
27239,note_on,,119,0,15,,,,,,,,,,,,,,,,13,,51,0
27240,note_on,,1,0,7,,,,,,,,,,,,,,,,2,,47,72
27240,note_on,,1,0,14,,,,,,,,,,,,,,,,12,,66,72
27240,note_on,,1,0,8,,,,,,,,,,,,,,,,5,,71,88
27240,note_on,,1,0,15,,,,,,,,,,,,,,,,13,,47,72
27240,note_on,,0,0,16,,,,,,,,,,,,,,,,15,,54,72
27240,note_on,,1,0,5,,,,,,,,,,,,,,,,0,,71,72
27240,note_on,,1,0,6,,,,,,,,,,,,,,,,1,,71,72
27240,note_on,,0,0,16,,,,,,,,,,,,,,,,15,,63,72
27240,note_on,,1,0,10,,,,,,,,,,,,,,,,7,,63,88
27240,note_on,,0,0,16,,,,,,,,,,,,,,,,15,,71,72
27240,note_on,,0,0,16,,,,,,,,,,,,,,,,15,,66,72
27240,note_on,,1,0,11,,,,,,,,,,,,,,,,8,,47,88
27240,note_on,,1,0,9,,,,,,,,,,,,,,,,6,,66,88
27240,note_on,,1,0,16,,,,,,,,,,,,,,,,15,,47,72
27240,note_on,,1,0,13,,,,,,,,,,,,,,,,11,,75,72
27240,note_on,,1,0,12,,,,,,,,,,,,,,,,10,,83,72
27359,note_on,,119,0,10,,,,,,,,,,,,,,,,7,,63,0
27359,note_on,,0,0,16,,,,,,,,,,,,,,,,15,,54,0
27359,note_on,,119,0,15,,,,,,,,,,,,,,,,13,,47,0
27359,note_on,,0,0,16,,,,,,,,,,,,,,,,15,,63,0
27359,note_on,,119,0,14,,,,,,,,,,,,,,,,12,,66,0
27359,note_on,,119,0,8,,,,,,,,,,,,,,,,5,,71,0
27359,note_on,,119,0,12,,,,,,,,,,,,,,,,10,,83,0
27359,note_on,,0,0,16,,,,,,,,,,,,,,,,15,,66,0
27359,note_on,,0,0,16,,,,,,,,,,,,,,,,15,,71,0
27359,note_on,,119,0,16,,,,,,,,,,,,,,,,15,,47,0
27359,note_on,,119,0,9,,,,,,,,,,,,,,,,6,,66,0
27359,note_on,,119,0,7,,,,,,,,,,,,,,,,2,,47,0
27359,note_on,,119,0,11,,,,,,,,,,,,,,,,8,,47,0
27359,note_on,,119,0,6,,,,,,,,,,,,,,,,1,,71,0
27359,note_on,,119,0,13,,,,,,,,,,,,,,,,11,,75,0
27359,note_on,,119,0,5,,,,,,,,,,,,,,,,0,,71,0
27360,note_on,,1,0,14,,,,,,,,,,,,,,,,12,,66,72
27360,note_on,,1,0,6,,,,,,,,,,,,,,,,1,,70,72
27360,note_on,,1,0,16,,,,,,,,,,,,,,,,15,,54,72
27360,note_on,,0,0,16,,,,,,,,,,,,,,,,15,,70,72
27360,note_on,,0,0,16,,,,,,,,,,,,,,,,15,,66,72
27360,note_on,,0,0,16,,,,,,,,,,,,,,,,15,,61,72
27360,note_on,,1,0,10,,,,,,,,,,,,,,,,7,,61,88
27360,note_on,,1,0,12,,,,,,,,,,,,,,,,10,,82,72
27360,note_on,,1,0,5,,,,,,,,,,,,,,,,0,,70,72
27360,note_on,,1,0,9,,,,,,,,,,,,,,,,6,,66,88
27360,note_on,,1,0,7,,,,,,,,,,,,,,,,2,,54,72
27360,note_on,,1,0,11,,,,,,,,,,,,,,,,8,,54,88
27360,note_on,,1,0,15,,,,,,,,,,,,,,,,13,,54,72
27360,note_on,,1,0,8,,,,,,,,,,,,,,,,5,,70,88
27360,note_on,,1,0,13,,,,,,,,,,,,,,,,11,,73,72
27539,note_on,,179,0,8,,,,,,,,,,,,,,,,5,,70,0
27539,note_on,,179,0,9,,,,,,,,,,,,,,,,6,,66,0
27539,note_on,,179,0,10,,,,,,,,,,,,,,,,7,,61,0
27539,note_on,,179,0,12,,,,,,,,,,,,,,,,10,,82,0
27539,note_on,,179,0,6,,,,,,,,,,,,,,,,1,,70,0
27539,note_on,,179,0,7,,,,,,,,,,,,,,,,2,,54,0
27539,note_on,,179,0,11,,,,,,,,,,,,,,,,8,,54,0
27539,note_on,,179,0,14,,,,,,,,,,,,,,,,12,,66,0
27539,note_on,,179,0,5,,,,,,,,,,,,,,,,0,,70,0
27539,note_on,,179,0,13,,,,,,,,,,,,,,,,11,,73,0
27539,note_on,,179,0,15,,,,,,,,,,,,,,,,13,,54,0
27540,note_on,,1,0,12,,,,,,,,,,,,,,,,10,,80,72
27540,note_on,,1,0,8,,,,,,,,,,,,,,,,5,,68,88
27540,note_on,,1,0,11,,,,,,,,,,,,,,,,8,,52,88
27540,note_on,,1,0,5,,,,,,,,,,,,,,,,0,,68,72
27540,note_on,,1,0,15,,,,,,,,,,,,,,,,13,,52,72
27540,note_on,,1,0,6,,,,,,,,,,,,,,,,1,,68,72
27540,note_on,,180,0,16,,,,,,,,,,,,,,,,15,,52,72
27540,note_on,,1,0,9,,,,,,,,,,,,,,,,6,,66,88
27540,note_on,,1,0,10,,,,,,,,,,,,,,,,7,,61,88
27540,note_on,,1,0,13,,,,,,,,,,,,,,,,11,,73,72
27540,note_on,,1,0,7,,,,,,,,,,,,,,,,2,,52,72
27540,note_on,,1,0,14,,,,,,,,,,,,,,,,12,,66,72
27599,note_on,,59,0,8,,,,,,,,,,,,,,,,5,,68,0
27599,note_on,,0,0,16,,,,,,,,,,,,,,,,15,,52,0
27599,note_on,,0,0,16,,,,,,,,,,,,,,,,15,,61,0
27599,note_on,,0,0,16,,,,,,,,,,,,,,,,15,,66,0
27599,note_on,,59,0,6,,,,,,,,,,,,,,,,1,,68,0
27599,note_on,,59,0,7,,,,,,,,,,,,,,,,2,,52,0
27599,note_on,,59,0,11,,,,,,,,,,,,,,,,8,,52,0
27599,note_on,,59,0,14,,,,,,,,,,,,,,,,12,,66,0
27599,note_on,,59,0,16,,,,,,,,,,,,,,,,15,,54,0
27599,note_on,,59,0,5,,,,,,,,,,,,,,,,0,,68,0
27599,note_on,,59,0,10,,,,,,,,,,,,,,,,7,,61,0
27599,note_on,,59,0,13,,,,,,,,,,,,,,,,11,,73,0
27599,note_on,,59,0,12,,,,,,,,,,,,,,,,10,,80,0
27599,note_on,,59,0,15,,,,,,,,,,,,,,,,13,,52,0
27599,note_on,,59,0,9,,,,,,,,,,,,,,,,6,,66,0
27599,note_on,,0,0,16,,,,,,,,,,,,,,,,15,,70,0
27600,note_on,,1,0,10,,,,,,,,,,,,,,,,7,,63,88
27600,note_on,,0,0,16,,,,,,,,,,,,,,,,15,,71,72
27600,note_on,,0,0,16,,,,,,,,,,,,,,,,15,,66,72
27600,note_on,,1,0,13,,,,,,,,,,,,,,,,11,,75,72
27600,note_on,,1,0,15,,,,,,,,,,,,,,,,13,,51,72
27600,note_on,,1,0,6,,,,,,,,,,,,,,,,1,,66,72
27600,note_on,,1,0,7,,,,,,,,,,,,,,,,2,,51,72
27600,note_on,,0,0,16,,,,,,,,,,,,,,,,15,,59,72
27600,note_on,,1,0,12,,,,,,,,,,,,,,,,10,,78,72
27600,note_on,,1,0,8,,,,,,,,,,,,,,,,5,,66,88
27600,note_on,,0,0,16,,,,,,,,,,,,,,,,15,,54,72
27600,note_on,,1,0,16,,,,,,,,,,,,,,,,15,,51,72
27600,note_on,,1,0,14,,,,,,,,,,,,,,,,12,,71,72
27600,note_on,,1,0,11,,,,,,,,,,,,,,,,8,,51,88
27600,note_on,,1,0,9,,,,,,,,,,,,,,,,6,,59,88
27600,note_on,,1,0,5,,,,,,,,,,,,,,,,0,,66,72
27719,note_on,,119,0,9,,,,,,,,,,,,,,,,6,,59,0
27719,note_on,,119,0,8,,,,,,,,,,,,,,,,5,,66,0
27719,note_on,,119,0,11,,,,,,,,,,,,,,,,8,,51,0
27719,note_on,,119,0,5,,,,,,,,,,,,,,,,0,,66,0
27719,note_on,,119,0,10,,,,,,,,,,,,,,,,7,,63,0
27719,note_on,,119,0,12,,,,,,,,,,,,,,,,10,,78,0
27719,note_on,,119,0,15,,,,,,,,,,,,,,,,13,,51,0
27719,note_on,,119,0,7,,,,,,,,,,,,,,,,2,,51,0
27719,note_on,,119,0,13,,,,,,,,,,,,,,,,11,,75,0
27719,note_on,,0,0,16,,,,,,,,,,,,,,,,15,,59,0
27719,note_on,,119,0,14,,,,,,,,,,,,,,,,12,,71,0
27719,note_on,,0,0,16,,,,,,,,,,,,,,,,15,,71,0
27719,note_on,,0,0,16,,,,,,,,,,,,,,,,15,,54,0
27719,note_on,,119,0,16,,,,,,,,,,,,,,,,15,,51,0
27719,note_on,,119,0,6,,,,,,,,,,,,,,,,1,,66,0
27719,note_on,,0,0,16,,,,,,,,,,,,,,,,15,,66,0
27720,note_on,,1,0,5,,,,,,,,,,,,,,,,0,,71,72
27720,note_on,,1,0,10,,,,,,,,,,,,,,,,7,,64,88
27720,note_on,,1,0,9,,,,,,,,,,,,,,,,6,,64,88
27720,note_on,,1,0,13,,,,,,,,,,,,,,,,11,,76,72
27720,note_on,,1,0,15,,,,,,,,,,,,,,,,13,,56,72
27720,note_on,,1,0,12,,,,,,,,,,,,,,,,10,,83,72
27720,note_on,,1,0,14,,,,,,,,,,,,,,,,12,,71,72
27720,note_on,,1,0,6,,,,,,,,,,,,,,,,1,,71,72
27720,note_on,,1,0,8,,,,,,,,,,,,,,,,5,,71,88
27720,note_on,,1,0,16,,,,,,,,,,,,,,,,15,,56,72
27720,note_on,,1,0,11,,,,,,,,,,,,,,,,8,,56,88
27720,note_on,,0,0,16,,,,,,,,,,,,,,,,15,,71,72
27720,note_on,,1,0,7,,,,,,,,,,,,,,,,2,,56,72
27720,note_on,,0,0,16,,,,,,,,,,,,,,,,15,,59,72
27720,note_on,,0,0,16,,,,,,,,,,,,,,,,15,,68,72
27720,note_on,,0,0,16,,,,,,,,,,,,,,,,15,,64,72
27839,note_on,,0,0,16,,,,,,,,,,,,,,,,15,,59,0
27839,note_on,,119,0,10,,,,,,,,,,,,,,,,7,,64,0
27839,note_on,,119,0,15,,,,,,,,,,,,,,,,13,,56,0
27839,note_on,,119,0,16,,,,,,,,,,,,,,,,15,,56,0
27839,note_on,,119,0,11,,,,,,,,,,,,,,,,8,,56,0
27839,note_on,,0,0,16,,,,,,,,,,,,,,,,15,,71,0
27839,note_on,,119,0,5,,,,,,,,,,,,,,,,0,,71,0
27839,note_on,,0,0,16,,,,,,,,,,,,,,,,15,,64,0
27839,note_on,,0,0,16,,,,,,,,,,,,,,,,15,,68,0
27839,note_on,,119,0,9,,,,,,,,,,,,,,,,6,,64,0
27839,note_on,,119,0,7,,,,,,,,,,,,,,,,2,,56,0
27839,note_on,,119,0,12,,,,,,,,,,,,,,,,10,,83,0
27839,note_on,,119,0,6,,,,,,,,,,,,,,,,1,,71,0
27839,note_on,,119,0,13,,,,,,,,,,,,,,,,11,,76,0
27839,note_on,,119,0,14,,,,,,,,,,,,,,,,12,,71,0
27839,note_on,,119,0,8,,,,,,,,,,,,,,,,5,,71,0
27840,note_on,,1,0,14,,,,,,,,,,,,,,,,12,,68,72
27840,note_on,,0,0,16,,,,,,,,,,,,,,,,15,,71,72
27840,note_on,,0,0,16,,,,,,,,,,,,,,,,15,,76,72
27840,note_on,,1,0,16,,,,,,,,,,,,,,,,15,,56,72
27840,note_on,,1,0,7,,,,,,,,,,,,,,,,2,,56,72
27840,note_on,,1,0,11,,,,,,,,,,,,,,,,8,,56,88
27840,note_on,,1,0,12,,,,,,,,,,,,,,,,10,,76,72
27840,note_on,,1,0,6,,,,,,,,,,,,,,,,1,,76,72
27840,note_on,,0,0,16,,,,,,,,,,,,,,,,15,,68,72
27840,note_on,,1,0,8,,,,,,,,,,,,,,,,5,,76,88
27840,note_on,,0,0,16,,,,,,,,,,,,,,,,15,,59,72
27840,note_on,,1,0,15,,,,,,,,,,,,,,,,13,,56,72
27840,note_on,,1,0,5,,,,,,,,,,,,,,,,0,,76,72
27840,note_on,,1,0,10,,,,,,,,,,,,,,,,7,,59,88
27840,note_on,,1,0,13,,,,,,,,,,,,,,,,11,,71,72
27840,note_on,,1,0,9,,,,,,,,,,,,,,,,6,,64,88
27959,note_on,,119,0,11,,,,,,,,,,,,,,,,8,,56,0
27959,note_on,,119,0,5,,,,,,,,,,,,,,,,0,,76,0
27959,note_on,,0,0,16,,,,,,,,,,,,,,,,15,,68,0
27959,note_on,,119,0,16,,,,,,,,,,,,,,,,15,,56,0
27959,note_on,,119,0,7,,,,,,,,,,,,,,,,2,,56,0
27959,note_on,,0,0,16,,,,,,,,,,,,,,,,15,,71,0
27959,note_on,,0,0,16,,,,,,,,,,,,,,,,15,,76,0
27959,note_on,,119,0,10,,,,,,,,,,,,,,,,7,,59,0
27959,note_on,,119,0,14,,,,,,,,,,,,,,,,12,,68,0
27959,note_on,,119,0,9,,,,,,,,,,,,,,,,6,,64,0
27959,note_on,,119,0,13,,,,,,,,,,,,,,,,11,,71,0
27959,note_on,,119,0,12,,,,,,,,,,,,,,,,10,,76,0
27959,note_on,,119,0,6,,,,,,,,,,,,,,,,1,,76,0
27959,note_on,,0,0,16,,,,,,,,,,,,,,,,15,,59,0
27959,note_on,,119,0,15,,,,,,,,,,,,,,,,13,,56,0
27959,note_on,,119,0,8,,,,,,,,,,,,,,,,5,,76,0
27960,note_on,,1,0,11,,,,,,,,,,,,,,,,8,,58,88
27960,note_on,,1,0,13,,,,,,,,,,,,,,,,11,,73,72
27960,note_on,,1,0,15,,,,,,,,,,,,,,,,13,,58,72
27960,note_on,,1,0,12,,,,,,,,,,,,,,,,10,,78,72
27960,note_on,,1,0,10,,,,,,,,,,,,,,,,7,,61,88
27960,note_on,,1,0,5,,,,,,,,,,,,,,,,0,,73,72
27960,note_on,,1,0,14,,,,,,,,,,,,,,,,12,,66,72
27960,note_on,,1,0,9,,,,,,,,,,,,,,,,6,,66,88
27960,note_on,,1,0,16,,,,,,,,,,,,,,,,15,,58,72
27960,note_on,,0,0,16,,,,,,,,,,,,,,,,15,,61,72
27960,note_on,,1,0,6,,,,,,,,,,,,,,,,1,,73,72
27960,note_on,,1,0,8,,,,,,,,,,,,,,,,5,,73,88
27960,note_on,,0,0,16,,,,,,,,,,,,,,,,15,,73,72
27960,note_on,,1,0,7,,,,,,,,,,,,,,,,2,,58,72
27960,note_on,,0,0,16,,,,,,,,,,,,,,,,15,,66,72
28079,note_on,,0,0,16,,,,,,,,,,,,,,,,15,,73,0
28079,note_on,,119,0,13,,,,,,,,,,,,,,,,11,,73,0
28079,note_on,,119,0,5,,,,,,,,,,,,,,,,0,,73,0
28079,note_on,,119,0,9,,,,,,,,,,,,,,,,6,,66,0
28079,note_on,,119,0,10,,,,,,,,,,,,,,,,7,,61,0
28079,note_on,,119,0,15,,,,,,,,,,,,,,,,13,,58,0
28079,note_on,,119,0,7,,,,,,,,,,,,,,,,2,,58,0
28079,note_on,,119,0,12,,,,,,,,,,,,,,,,10,,78,0
28079,note_on,,119,0,6,,,,,,,,,,,,,,,,1,,73,0
28079,note_on,,0,0,16,,,,,,,,,,,,,,,,15,,61,0
28079,note_on,,119,0,11,,,,,,,,,,,,,,,,8,,58,0
28079,note_on,,119,0,14,,,,,,,,,,,,,,,,12,,66,0
28079,note_on,,119,0,16,,,,,,,,,,,,,,,,15,,58,0
28079,note_on,,0,0,16,,,,,,,,,,,,,,,,15,,66,0
28079,note_on,,119,0,8,,,,,,,,,,,,,,,,5,,73,0
28080,note_on,,1,0,16,,,,,,,,,,,,,,,,15,,59,72
28080,note_on,,0,0,16,,,,,,,,,,,,,,,,15,,71,72
28080,note_on,,0,0,16,,,,,,,,,,,,,,,,15,,66,72
28080,note_on,,1,0,10,,,,,,,,,,,,,,,,7,,59,88
28080,note_on,,0,0,16,,,,,,,,,,,,,,,,15,,75,72
28080,note_on,,1,0,13,,,,,,,,,,,,,,,,11,,64,72
28080,note_on,,1,0,11,,,,,,,,,,,,,,,,8,,59,88
28080,note_on,,1,0,12,,,,,,,,,,,,,,,,10,,75,72
28080,note_on,,1,0,7,,,,,,,,,,,,,,,,2,,59,72
28080,note_on,,1,0,15,,,,,,,,,,,,,,,,13,,59,72
28080,note_on,,1,0,6,,,,,,,,,,,,,,,,1,,75,72
28080,note_on,,1,0,8,,,,,,,,,,,,,,,,5,,75,88
28080,note_on,,1,0,14,,,,,,,,,,,,,,,,12,,71,72
28080,note_on,,1,0,5,,,,,,,,,,,,,,,,0,,75,72
28080,note_on,,1,0,9,,,,,,,,,,,,,,,,6,,66,88
28199,note_on,,119,0,9,,,,,,,,,,,,,,,,6,,66,0
28199,note_on,,119,0,13,,,,,,,,,,,,,,,,11,,64,0
28199,note_on,,119,0,15,,,,,,,,,,,,,,,,13,,59,0
28199,note_on,,119,0,14,,,,,,,,,,,,,,,,12,,71,0
28199,note_on,,119,0,7,,,,,,,,,,,,,,,,2,,59,0
28199,note_on,,119,0,10,,,,,,,,,,,,,,,,7,,59,0
28199,note_on,,119,0,12,,,,,,,,,,,,,,,,10,,75,0
28199,note_on,,0,0,16,,,,,,,,,,,,,,,,15,,71,0
28199,note_on,,119,0,16,,,,,,,,,,,,,,,,15,,59,0
28199,note_on,,0,0,16,,,,,,,,,,,,,,,,15,,75,0
28199,note_on,,0,0,16,,,,,,,,,,,,,,,,15,,66,0
28200,note_on,,1,0,9,,,,,,,,,,,,,,,,6,,66,88
28200,note_on,,1,0,10,,,,,,,,,,,,,,,,7,,59,88
28200,note_on,,1,0,12,,,,,,,,,,,,,,,,10,,78,72
28200,note_on,,1,0,15,,,,,,,,,,,,,,,,13,,51,72
28200,note_on,,0,0,16,,,,,,,,,,,,,,,,15,,71,72
28200,note_on,,1,0,13,,,,,,,,,,,,,,,,11,,71,72
28200,note_on,,1,0,7,,,,,,,,,,,,,,,,2,,51,72
28200,note_on,,1,0,16,,,,,,,,,,,,,,,,15,,51,72
28200,note_on,,0,0,16,,,,,,,,,,,,,,,,15,,66,72
28200,note_on,,0,0,16,,,,,,,,,,,,,,,,15,,59,72
28319,note_on,,119,0,7,,,,,,,,,,,,,,,,2,,51,0
28319,note_on,,119,0,13,,,,,,,,,,,,,,,,11,,71,0
28319,note_on,,119,0,10,,,,,,,,,,,,,,,,7,,59,0
28319,note_on,,239,0,6,,,,,,,,,,,,,,,,1,,75,0
28319,note_on,,119,0,9,,,,,,,,,,,,,,,,6,,66,0
28319,note_on,,239,0,5,,,,,,,,,,,,,,,,0,,75,0
28319,note_on,,119,0,16,,,,,,,,,,,,,,,,15,,51,0
28319,note_on,,239,0,11,,,,,,,,,,,,,,,,8,,59,0
28319,note_on,,239,0,8,,,,,,,,,,,,,,,,5,,75,0
28319,note_on,,119,0,15,,,,,,,,,,,,,,,,13,,51,0
28319,note_on,,119,0,12,,,,,,,,,,,,,,,,10,,78,0
28320,note_on,,0,0,16,,,,,,,,,,,,,,,,15,,63,72
28320,note_on,,1,0,10,,,,,,,,,,,,,,,,7,,63,88
28320,note_on,,1,0,13,,,,,,,,,,,,,,,,11,,75,72
28320,note_on,,1,0,7,,,,,,,,,,,,,,,,2,,47,72
28320,note_on,,1,0,15,,,,,,,,,,,,,,,,13,,47,72
28320,note_on,,1,0,16,,,,,,,,,,,,,,,,15,,47,72
28320,note_on,,1,0,12,,,,,,,,,,,,,,,,10,,83,72
28320,note_on,,1,0,9,,,,,,,,,,,,,,,,6,,71,88
28439,note_on,,119,0,9,,,,,,,,,,,,,,,,6,,71,0
28439,note_on,,119,0,7,,,,,,,,,,,,,,,,2,,47,0
28439,note_on,,0,0,16,,,,,,,,,,,,,,,,15,,47,0
28439,note_on,,0,0,16,,,,,,,,,,,,,,,,15,,59,0
28439,note_on,,0,0,16,,,,,,,,,,,,,,,,15,,66,0
28439,note_on,,0,0,16,,,,,,,,,,,,,,,,15,,63,0
28439,note_on,,119,0,13,,,,,,,,,,,,,,,,11,,75,0
28439,note_on,,119,0,15,,,,,,,,,,,,,,,,13,,47,0
28439,note_on,,119,0,16,,,,,,,,,,,,,,,,15,,71,0
28439,note_on,,119,0,10,,,,,,,,,,,,,,,,7,,63,0
28439,note_on,,119,0,12,,,,,,,,,,,,,,,,10,,83,0
28440,note_on,,1,0,7,,,,,,,,,,,,,,,,2,,54,72
28440,note_on,,1,0,12,,,,,,,,,,,,,,,,10,,82,72
28440,note_on,,1,0,13,,,,,,,,,,,,,,,,11,,73,72
28440,note_on,,1,0,9,,,,,,,,,,,,,,,,6,,70,88
28440,note_on,,1,0,15,,,,,,,,,,,,,,,,13,,54,72
28440,note_on,,0,0,16,,,,,,,,,,,,,,,,15,,61,72
28440,note_on,,0,0,16,,,,,,,,,,,,,,,,15,,66,72
28440,note_on,,0,0,16,,,,,,,,,,,,,,,,15,,70,72
28440,note_on,,1,0,16,,,,,,,,,,,,,,,,15,,54,72
28440,note_on,,1,0,10,,,,,,,,,,,,,,,,7,,61,88
28499,note_on,,59,0,9,,,,,,,,,,,,,,,,6,,70,0
28499,note_on,,59,0,10,,,,,,,,,,,,,,,,7,,61,0
28499,note_on,,59,0,12,,,,,,,,,,,,,,,,10,,82,0
28499,note_on,,59,0,13,,,,,,,,,,,,,,,,11,,73,0
28500,note_on,,1,0,12,,,,,,,,,,,,,,,,10,,80,72
28500,note_on,,1,0,9,,,,,,,,,,,,,,,,6,,68,88
28500,note_on,,1,0,13,,,,,,,,,,,,,,,,11,,71,72
28500,note_on,,1,0,10,,,,,,,,,,,,,,,,7,,59,88
28559,note_on,,59,0,13,,,,,,,,,,,,,,,,11,,71,0
28559,note_on,,119,0,15,,,,,,,,,,,,,,,,13,,54,0
28559,note_on,,59,0,10,,,,,,,,,,,,,,,,7,,59,0
28559,note_on,,119,0,16,,,,,,,,,,,,,,,,15,,54,0
28559,note_on,,119,0,7,,,,,,,,,,,,,,,,2,,54,0
28559,note_on,,59,0,9,,,,,,,,,,,,,,,,6,,68,0
28559,note_on,,59,0,12,,,,,,,,,,,,,,,,10,,80,0
28560,note_on,,241,0,11,,,,,,,,,,,,,,,,8,,54,88
28560,note_on,,1,0,12,,,,,,,,,,,,,,,,10,,78,72
28560,note_on,,241,0,6,,,,,,,,,,,,,,,,1,,73,72
28560,note_on,,1,0,13,,,,,,,,,,,,,,,,11,,70,72
28560,note_on,,361,0,14,,,,,,,,,,,,,,,,12,,73,72
28560,note_on,,241,0,8,,,,,,,,,,,,,,,,5,,73,88
28560,note_on,,1,0,7,,,,,,,,,,,,,,,,2,,54,72
28560,note_on,,1,0,9,,,,,,,,,,,,,,,,6,,66,88
28560,note_on,,1,0,10,,,,,,,,,,,,,,,,7,,58,88
28560,note_on,,1,0,15,,,,,,,,,,,,,,,,13,,54,72
28560,note_on,,241,0,5,,,,,,,,,,,,,,,,0,,73,72
28560,note_on,,1,0,16,,,,,,,,,,,,,,,,15,,54,72
28679,note_on,,119,0,8,,,,,,,,,,,,,,,,5,,73,0
28679,note_on,,119,0,13,,,,,,,,,,,,,,,,11,,70,0
28679,note_on,,0,0,16,,,,,,,,,,,,,,,,15,,61,0
28679,note_on,,0,0,16,,,,,,,,,,,,,,,,15,,66,0
28679,note_on,,119,0,6,,,,,,,,,,,,,,,,1,,73,0
28679,note_on,,119,0,12,,,,,,,,,,,,,,,,10,,78,0
28679,note_on,,119,0,5,,,,,,,,,,,,,,,,0,,73,0
28679,note_on,,0,0,16,,,,,,,,,,,,,,,,15,,54,0
28679,note_on,,119,0,14,,,,,,,,,,,,,,,,12,,73,0
28679,note_on,,119,0,15,,,,,,,,,,,,,,,,13,,54,0
28679,note_on,,119,0,11,,,,,,,,,,,,,,,,8,,54,0
28679,note_on,,119,0,9,,,,,,,,,,,,,,,,6,,66,0
28679,note_on,,119,0,16,,,,,,,,,,,,,,,,15,,70,0
28679,note_on,,119,0,10,,,,,,,,,,,,,,,,7,,58,0
28679,note_on,,119,0,7,,,,,,,,,,,,,,,,2,,54,0
28680,note_on,,1,0,9,,,,,,,,,,,,,,,,6,,66,88
28680,note_on,,1,0,6,,,,,,,,,,,,,,,,1,,75,72
28680,note_on,,1,0,12,,,,,,,,,,,,,,,,10,,83,72
28680,note_on,,1,0,5,,,,,,,,,,,,,,,,0,,75,72
28680,note_on,,1,0,13,,,,,,,,,,,,,,,,11,,78,72
28680,note_on,,1,0,10,,,,,,,,,,,,,,,,7,,59,88
28680,note_on,,1,0,8,,,,,,,,,,,,,,,,5,,75,88
28680,note_on,,0,0,16,,,,,,,,,,,,,,,,15,,59,72
28680,note_on,,0,0,16,,,,,,,,,,,,,,,,15,,66,72
28680,note_on,,1,0,14,,,,,,,,,,,,,,,,12,,75,72
28680,note_on,,0,0,16,,,,,,,,,,,,,,,,15,,75,72
28680,note_on,,1,0,16,,,,,,,,,,,,,,,,15,,47,72
28680,note_on,,1,0,11,,,,,,,,,,,,,,,,8,,59,88
28680,note_on,,1,0,15,,,,,,,,,,,,,,,,13,,47,72
28680,note_on,,1,0,7,,,,,,,,,,,,,,,,2,,47,72
28680,note_on,,0,0,16,,,,,,,,,,,,,,,,15,,71,72
28799,note_on,,119,0,8,,,,,,,,,,,,,,,,5,,75,0
28799,note_on,,119,0,15,,,,,,,,,,,,,,,,13,,47,0
28799,note_on,,119,0,5,,,,,,,,,,,,,,,,0,,75,0
28799,note_on,,119,0,11,,,,,,,,,,,,,,,,8,,59,0
28799,note_on,,119,0,13,,,,,,,,,,,,,,,,11,,78,0
28799,note_on,,119,0,6,,,,,,,,,,,,,,,,1,,75,0
28799,note_on,,119,0,10,,,,,,,,,,,,,,,,7,,59,0
28799,note_on,,119,0,16,,,,,,,,,,,,,,,,15,,47,0
28799,note_on,,0,0,16,,,,,,,,,,,,,,,,15,,75,0
28799,note_on,,119,0,14,,,,,,,,,,,,,,,,12,,75,0
28799,note_on,,0,0,16,,,,,,,,,,,,,,,,15,,71,0
28799,note_on,,0,0,16,,,,,,,,,,,,,,,,15,,66,0
28799,note_on,,0,0,16,,,,,,,,,,,,,,,,15,,59,0
28799,note_on,,119,0,9,,,,,,,,,,,,,,,,6,,66,0
28799,note_on,,119,0,7,,,,,,,,,,,,,,,,2,,47,0
28799,note_on,,119,0,12,,,,,,,,,,,,,,,,10,,83,0
28800,note_on,,1,0,15,,,,,,,,,,,,,,,,13,,54,72
28800,note_on,,1,0,5,,,,,,,,,,,,,,,,0,,73,72
28800,note_on,,1,0,12,,,,,,,,,,,,,,,,10,,85,72
28800,note_on,,1,0,7,,,,,,,,,,,,,,,,2,,54,72
28800,note_on,,1,0,11,,,,,,,,,,,,,,,,8,,58,88
28800,note_on,,1,0,10,,,,,,,,,,,,,,,,7,,61,88
28800,note_on,,1,0,6,,,,,,,,,,,,,,,,1,,73,72
28800,note_on,,1,0,14,,,,,,,,,,,,,,,,12,,66,72
28800,note_on,,1,0,9,,,,,,,,,,,,,,,,6,,66,88
28800,note_on,,0,0,16,,,,,,,,,,,,,,,,15,,61,72
28800,note_on,,1,0,13,,,,,,,,,,,,,,,,11,,78,72
28800,note_on,,1,0,16,,,,,,,,,,,,,,,,15,,54,72
28800,note_on,,1,0,8,,,,,,,,,,,,,,,,5,,73,88
28800,note_on,,0,0,16,,,,,,,,,,,,,,,,15,,66,72
28800,note_on,,0,0,16,,,,,,,,,,,,,,,,15,,70,72
28800,note_on,,0,0,16,,,,,,,,,,,,,,,,15,,73,72
28859,note_on,,59,0,6,,,,,,,,,,,,,,,,1,,73,0
28859,note_on,,59,0,11,,,,,,,,,,,,,,,,8,,58,0
28859,note_on,,59,0,8,,,,,,,,,,,,,,,,5,,73,0
28859,note_on,,59,0,5,,,,,,,,,,,,,,,,0,,73,0
28859,note_on,,59,0,12,,,,,,,,,,,,,,,,10,,85,0
28860,note_on,,1,0,12,,,,,,,,,,,,,,,,10,,83,72
28860,note_on,,1,0,5,,,,,,,,,,,,,,,,0,,71,72
28860,note_on,,1,0,11,,,,,,,,,,,,,,,,8,,56,88
28860,note_on,,1,0,6,,,,,,,,,,,,,,,,1,,71,72
28860,note_on,,1,0,8,,,,,,,,,,,,,,,,5,,71,88
28919,note_on,,59,0,12,,,,,,,,,,,,,,,,10,,83,0
28919,note_on,,59,0,6,,,,,,,,,,,,,,,,1,,71,0
28919,note_on,,59,0,11,,,,,,,,,,,,,,,,8,,56,0
28919,note_on,,59,0,5,,,,,,,,,,,,,,,,0,,71,0
28919,note_on,,119,0,10,,,,,,,,,,,,,,,,7,,61,0
28919,note_on,,59,0,8,,,,,,,,,,,,,,,,5,,71,0
28920,note_on,,1,0,10,,,,,,,,,,,,,,,,7,,61,88
28920,note_on,,1,0,11,,,,,,,,,,,,,,,,8,,54,88
28920,note_on,,1,0,6,,,,,,,,,,,,,,,,1,,70,72
28920,note_on,,1,0,8,,,,,,,,,,,,,,,,5,,70,88
28920,note_on,,1,0,12,,,,,,,,,,,,,,,,10,,82,72
28920,note_on,,1,0,5,,,,,,,,,,,,,,,,0,,70,72
28979,note_on,,179,0,13,,,,,,,,,,,,,,,,11,,78,0
28980,note_on,,1,0,13,,,,,,,,,,,,,,,,11,,76,72
29039,note_on,,119,0,10,,,,,,,,,,,,,,,,7,,61,0
29039,note_on,,239,0,16,,,,,,,,,,,,,,,,15,,54,0
29039,note_on,,0,0,16,,,,,,,,,,,,,,,,15,,66,0
29039,note_on,,0,0,16,,,,,,,,,,,,,,,,15,,70,0
29039,note_on,,239,0,14,,,,,,,,,,,,,,,,12,,66,0
29039,note_on,,0,0,16,,,,,,,,,,,,,,,,15,,61,0
29039,note_on,,59,0,13,,,,,,,,,,,,,,,,11,,76,0
29039,note_on,,119,0,11,,,,,,,,,,,,,,,,8,,54,0
29039,note_on,,0,0,16,,,,,,,,,,,,,,,,15,,73,0
29039,note_on,,119,0,8,,,,,,,,,,,,,,,,5,,70,0
29039,note_on,,239,0,15,,,,,,,,,,,,,,,,13,,54,0
29039,note_on,,119,0,6,,,,,,,,,,,,,,,,1,,70,0
29039,note_on,,239,0,7,,,,,,,,,,,,,,,,2,,54,0
29039,note_on,,119,0,12,,,,,,,,,,,,,,,,10,,82,0
29039,note_on,,119,0,5,,,,,,,,,,,,,,,,0,,70,0
29040,note_on,,1,0,13,,,,,,,,,,,,,,,,11,,75,72
29040,note_on,,1,0,11,,,,,,,,,,,,,,,,8,,59,88
29040,note_on,,1,0,8,,,,,,,,,,,,,,,,5,,71,88
29040,note_on,,1,0,5,,,,,,,,,,,,,,,,0,,71,72
29040,note_on,,1,0,16,,,,,,,,,,,,,,,,15,,59,72
29040,note_on,,1,0,7,,,,,,,,,,,,,,,,2,,59,72
29040,note_on,,0,0,16,,,,,,,,,,,,,,,,15,,66,72
29040,note_on,,1,0,12,,,,,,,,,,,,,,,,10,,83,72
29040,note_on,,1,0,10,,,,,,,,,,,,,,,,7,,63,88
29040,note_on,,1,0,14,,,,,,,,,,,,,,,,12,,66,72
29040,note_on,,1,0,6,,,,,,,,,,,,,,,,1,,71,72
29040,note_on,,0,0,16,,,,,,,,,,,,,,,,15,,75,72
29040,note_on,,1,0,15,,,,,,,,,,,,,,,,13,,59,72
29159,note_on,,359,0,9,,,,,,,,,,,,,,,,6,,66,0
29159,note_on,,119,0,16,,,,,,,,,,,,,,,,15,,59,0
29159,note_on,,119,0,13,,,,,,,,,,,,,,,,11,,75,0
29159,note_on,,119,0,7,,,,,,,,,,,,,,,,2,,59,0
29159,note_on,,119,0,8,,,,,,,,,,,,,,,,5,,71,0
29159,note_on,,119,0,6,,,,,,,,,,,,,,,,1,,71,0
29159,note_on,,119,0,5,,,,,,,,,,,,,,,,0,,71,0
29159,note_on,,119,0,15,,,,,,,,,,,,,,,,13,,59,0
29159,note_on,,119,0,10,,,,,,,,,,,,,,,,7,,63,0
29159,note_on,,0,0,16,,,,,,,,,,,,,,,,15,,66,0
29159,note_on,,119,0,12,,,,,,,,,,,,,,,,10,,83,0
29159,note_on,,119,0,14,,,,,,,,,,,,,,,,12,,66,0
29159,note_on,,0,0,16,,,,,,,,,,,,,,,,15,,75,0
29159,note_on,,119,0,11,,,,,,,,,,,,,,,,8,,59,0
29160,note_on,,0,0,16,,,,,,,,,,,,,,,,15,,61,72
29160,note_on,,1,0,15,,,,,,,,,,,,,,,,13,,58,72
29160,note_on,,0,0,16,,,,,,,,,,,,,,,,15,,66,72
29160,note_on,,0,0,16,,,,,,,,,,,,,,,,15,,73,72
29160,note_on,,1,0,13,,,,,,,,,,,,,,,,11,,78,72
29160,note_on,,1,0,8,,,,,,,,,,,,,,,,5,,73,88
29160,note_on,,1,0,9,,,,,,,,,,,,,,,,6,,66,88
29160,note_on,,1,0,14,,,,,,,,,,,,,,,,12,,66,72
29160,note_on,,1,0,12,,,,,,,,,,,,,,,,10,,85,72
29160,note_on,,1,0,10,,,,,,,,,,,,,,,,7,,61,88
29160,note_on,,1,0,5,,,,,,,,,,,,,,,,0,,73,72
29160,note_on,,1,0,7,,,,,,,,,,,,,,,,2,,58,72
29160,note_on,,1,0,11,,,,,,,,,,,,,,,,8,,58,88
29160,note_on,,1,0,16,,,,,,,,,,,,,,,,15,,58,72
29160,note_on,,1,0,6,,,,,,,,,,,,,,,,1,,73,72
29219,note_on,,59,0,12,,,,,,,,,,,,,,,,10,,85,0
29219,note_on,,59,0,16,,,,,,,,,,,,,,,,15,,58,0
29219,note_on,,59,0,5,,,,,,,,,,,,,,,,0,,73,0
29219,note_on,,59,0,15,,,,,,,,,,,,,,,,13,,58,0
29219,note_on,,59,0,7,,,,,,,,,,,,,,,,2,,58,0
29219,note_on,,59,0,11,,,,,,,,,,,,,,,,8,,58,0
29219,note_on,,59,0,6,,,,,,,,,,,,,,,,1,,73,0
29219,note_on,,59,0,8,,,,,,,,,,,,,,,,5,,73,0
29220,note_on,,1,0,6,,,,,,,,,,,,,,,,1,,71,72
29220,note_on,,1,0,12,,,,,,,,,,,,,,,,10,,83,72
29220,note_on,,1,0,11,,,,,,,,,,,,,,,,8,,56,88
29220,note_on,,0,0,16,,,,,,,,,,,,,,,,15,,71,72
29220,note_on,,1,0,16,,,,,,,,,,,,,,,,15,,56,72
29220,note_on,,1,0,5,,,,,,,,,,,,,,,,0,,71,72
29220,note_on,,1,0,7,,,,,,,,,,,,,,,,2,,56,72
29220,note_on,,1,0,15,,,,,,,,,,,,,,,,13,,56,72
29220,note_on,,1,0,8,,,,,,,,,,,,,,,,5,,71,88
29279,note_on,,0,0,16,,,,,,,,,,,,,,,,15,,71,0
29279,note_on,,0,0,16,,,,,,,,,,,,,,,,15,,56,0
29279,note_on,,59,0,5,,,,,,,,,,,,,,,,0,,71,0
29279,note_on,,0,0,16,,,,,,,,,,,,,,,,15,,61,0
29279,note_on,,0,0,16,,,,,,,,,,,,,,,,15,,66,0
29279,note_on,,59,0,12,,,,,,,,,,,,,,,,10,,83,0
29279,note_on,,59,0,16,,,,,,,,,,,,,,,,15,,73,0
29279,note_on,,59,0,8,,,,,,,,,,,,,,,,5,,71,0
29279,note_on,,119,0,10,,,,,,,,,,,,,,,,7,,61,0
29279,note_on,,59,0,7,,,,,,,,,,,,,,,,2,,56,0
29279,note_on,,59,0,6,,,,,,,,,,,,,,,,1,,71,0
29279,note_on,,59,0,15,,,,,,,,,,,,,,,,13,,56,0
29279,note_on,,59,0,11,,,,,,,,,,,,,,,,8,,56,0
29280,note_on,,1,0,8,,,,,,,,,,,,,,,,5,,70,88
29280,note_on,,1,0,6,,,,,,,,,,,,,,,,1,,70,72
29280,note_on,,1,0,11,,,,,,,,,,,,,,,,8,,54,88
29280,note_on,,1,0,15,,,,,,,,,,,,,,,,13,,54,72
29280,note_on,,1,0,16,,,,,,,,,,,,,,,,15,,54,72
29280,note_on,,0,0,16,,,,,,,,,,,,,,,,15,,78,72
29280,note_on,,0,0,16,,,,,,,,,,,,,,,,15,,73,72
29280,note_on,,0,0,16,,,,,,,,,,,,,,,,15,,70,72
29280,note_on,,1,0,10,,,,,,,,,,,,,,,,7,,61,88
29280,note_on,,1,0,7,,,,,,,,,,,,,,,,2,,54,72
29280,note_on,,1,0,12,,,,,,,,,,,,,,,,10,,82,72
29280,note_on,,1,0,5,,,,,,,,,,,,,,,,0,,70,72
29280,note_on,,0,0,16,,,,,,,,,,,,,,,,15,,61,72
29339,note_on,,179,0,13,,,,,,,,,,,,,,,,11,,78,0
29340,note_on,,1,0,13,,,,,,,,,,,,,,,,11,,76,72
29399,note_on,,119,0,5,,,,,,,,,,,,,,,,0,,70,0
29399,note_on,,0,0,16,,,,,,,,,,,,,,,,15,,78,0
29399,note_on,,119,0,15,,,,,,,,,,,,,,,,13,,54,0
29399,note_on,,0,0,16,,,,,,,,,,,,,,,,15,,73,0
29399,note_on,,0,0,16,,,,,,,,,,,,,,,,15,,70,0
29399,note_on,,0,0,16,,,,,,,,,,,,,,,,15,,61,0
29399,note_on,,119,0,10,,,,,,,,,,,,,,,,7,,61,0
29399,note_on,,119,0,6,,,,,,,,,,,,,,,,1,,70,0
29399,note_on,,119,0,16,,,,,,,,,,,,,,,,15,,54,0
29399,note_on,,119,0,12,,,,,,,,,,,,,,,,10,,82,0
29399,note_on,,119,0,11,,,,,,,,,,,,,,,,8,,54,0
29399,note_on,,119,0,8,,,,,,,,,,,,,,,,5,,70,0
29399,note_on,,239,0,14,,,,,,,,,,,,,,,,12,,66,0
29399,note_on,,119,0,7,,,,,,,,,,,,,,,,2,,54,0
29399,note_on,,239,0,9,,,,,,,,,,,,,,,,6,,66,0
29399,note_on,,59,0,13,,,,,,,,,,,,,,,,11,,76,0
29400,note_on,,0,0,16,,,,,,,,,,,,,,,,15,,66,72
29400,note_on,,1,0,6,,,,,,,,,,,,,,,,1,,71,72
29400,note_on,,1,0,14,,,,,,,,,,,,,,,,12,,66,72
29400,note_on,,1,0,5,,,,,,,,,,,,,,,,0,,71,72
29400,note_on,,1,0,7,,,,,,,,,,,,,,,,2,,59,72
29400,note_on,,1,0,10,,,,,,,,,,,,,,,,7,,63,88
29400,note_on,,1,0,15,,,,,,,,,,,,,,,,13,,59,72
29400,note_on,,1,0,13,,,,,,,,,,,,,,,,11,,75,72
29400,note_on,,1,0,16,,,,,,,,,,,,,,,,15,,59,72
29400,note_on,,0,0,16,,,,,,,,,,,,,,,,15,,75,72
29400,note_on,,1,0,11,,,,,,,,,,,,,,,,8,,59,88
29400,note_on,,0,0,16,,,,,,,,,,,,,,,,15,,63,72
29400,note_on,,0,0,16,,,,,,,,,,,,,,,,15,,71,72
29400,note_on,,1,0,12,,,,,,,,,,,,,,,,10,,83,72
29400,note_on,,1,0,8,,,,,,,,,,,,,,,,5,,71,88
29400,note_on,,1,0,9,,,,,,,,,,,,,,,,6,,66,88
29519,note_on,,119,0,8,,,,,,,,,,,,,,,,5,,71,0
29519,note_on,,119,0,7,,,,,,,,,,,,,,,,2,,59,0
29519,note_on,,119,0,10,,,,,,,,,,,,,,,,7,,63,0
29519,note_on,,119,0,9,,,,,,,,,,,,,,,,6,,66,0
29519,note_on,,119,0,14,,,,,,,,,,,,,,,,12,,66,0
29519,note_on,,119,0,13,,,,,,,,,,,,,,,,11,,75,0
29519,note_on,,119,0,5,,,,,,,,,,,,,,,,0,,71,0
29519,note_on,,0,0,16,,,,,,,,,,,,,,,,15,,63,0
29519,note_on,,119,0,11,,,,,,,,,,,,,,,,8,,59,0
29519,note_on,,119,0,15,,,,,,,,,,,,,,,,13,,59,0
29519,note_on,,119,0,12,,,,,,,,,,,,,,,,10,,83,0
29519,note_on,,119,0,6,,,,,,,,,,,,,,,,1,,71,0
29519,note_on,,0,0,16,,,,,,,,,,,,,,,,15,,66,0
29519,note_on,,0,0,16,,,,,,,,,,,,,,,,15,,71,0
29519,note_on,,0,0,16,,,,,,,,,,,,,,,,15,,75,0
29519,note_on,,119,0,16,,,,,,,,,,,,,,,,15,,59,0
29520,note_on,,1,0,6,,,,,,,,,,,,,,,,1,,73,72
29520,note_on,,1,0,12,,,,,,,,,,,,,,,,10,,85,72
29520,note_on,,1,0,8,,,,,,,,,,,,,,,,5,,73,88
29520,note_on,,1,0,5,,,,,,,,,,,,,,,,0,,73,72
29520,note_on,,1,0,7,,,,,,,,,,,,,,,,2,,58,72
29520,note_on,,1,0,13,,,,,,,,,,,,,,,,11,,78,72
29520,note_on,,1,0,15,,,,,,,,,,,,,,,,13,,58,72
29520,note_on,,1,0,16,,,,,,,,,,,,,,,,15,,58,72
29520,note_on,,1,0,14,,,,,,,,,,,,,,,,12,,66,72
29520,note_on,,1,0,9,,,,,,,,,,,,,,,,6,,66,88
29520,note_on,,0,0,16,,,,,,,,,,,,,,,,15,,73,72
29520,note_on,,0,0,16,,,,,,,,,,,,,,,,15,,78,72
29520,note_on,,0,0,16,,,,,,,,,,,,,,,,15,,66,72
29520,note_on,,0,0,16,,,,,,,,,,,,,,,,15,,61,72
29520,note_on,,1,0,10,,,,,,,,,,,,,,,,7,,61,88
29520,note_on,,1,0,11,,,,,,,,,,,,,,,,8,,58,88
29639,note_on,,119,0,8,,,,,,,,,,,,,,,,5,,73,0
29639,note_on,,119,0,9,,,,,,,,,,,,,,,,6,,66,0
29639,note_on,,119,0,10,,,,,,,,,,,,,,,,7,,61,0
29639,note_on,,119,0,6,,,,,,,,,,,,,,,,1,,73,0
29639,note_on,,119,0,11,,,,,,,,,,,,,,,,8,,58,0
29639,note_on,,119,0,12,,,,,,,,,,,,,,,,10,,85,0
29639,note_on,,0,0,16,,,,,,,,,,,,,,,,15,,66,0
29639,note_on,,119,0,13,,,,,,,,,,,,,,,,11,,78,0
29639,note_on,,119,0,15,,,,,,,,,,,,,,,,13,,58,0
29639,note_on,,0,0,16,,,,,,,,,,,,,,,,15,,73,0
29639,note_on,,119,0,7,,,,,,,,,,,,,,,,2,,58,0
29639,note_on,,119,0,5,,,,,,,,,,,,,,,,0,,73,0
29639,note_on,,0,0,16,,,,,,,,,,,,,,,,15,,78,0
29639,note_on,,119,0,16,,,,,,,,,,,,,,,,15,,58,0
29639,note_on,,0,0,16,,,,,,,,,,,,,,,,15,,61,0
29639,note_on,,119,0,14,,,,,,,,,,,,,,,,12,,66,0
29640,note_on,,1,0,7,,,,,,,,,,,,,,,,2,,54,72
29640,note_on,,1,0,11,,,,,,,,,,,,,,,,8,,54,88
29640,note_on,,1,0,6,,,,,,,,,,,,,,,,1,,73,72
29640,note_on,,1,0,16,,,,,,,,,,,,,,,,15,,54,72
29640,note_on,,0,0,16,,,,,,,,,,,,,,,,15,,61,72
29640,note_on,,0,0,16,,,,,,,,,,,,,,,,15,,73,72
29640,note_on,,0,0,16,,,,,,,,,,,,,,,,15,,70,72
29640,note_on,,0,0,16,,,,,,,,,,,,,,,,15,,66,72
29640,note_on,,1,0,8,,,,,,,,,,,,,,,,5,,73,88
29640,note_on,,1,0,10,,,,,,,,,,,,,,,,7,,58,88
29640,note_on,,1,0,9,,,,,,,,,,,,,,,,6,,66,88
29640,note_on,,1,0,13,,,,,,,,,,,,,,,,11,,78,72
29640,note_on,,1,0,12,,,,,,,,,,,,,,,,10,,78,72
29640,note_on,,1,0,14,,,,,,,,,,,,,,,,12,,70,72
29640,note_on,,1,0,15,,,,,,,,,,,,,,,,13,,54,72
29640,note_on,,1,0,5,,,,,,,,,,,,,,,,0,,73,72
29759,note_on,,0,0,16,,,,,,,,,,,,,,,,15,,66,0
29759,note_on,,0,0,16,,,,,,,,,,,,,,,,15,,61,0
29759,note_on,,119,0,6,,,,,,,,,,,,,,,,1,,73,0
29759,note_on,,119,0,13,,,,,,,,,,,,,,,,11,,78,0
29759,note_on,,119,0,16,,,,,,,,,,,,,,,,15,,54,0
29759,note_on,,119,0,11,,,,,,,,,,,,,,,,8,,54,0
29759,note_on,,119,0,15,,,,,,,,,,,,,,,,13,,54,0
29759,note_on,,119,0,5,,,,,,,,,,,,,,,,0,,73,0
29759,note_on,,119,0,10,,,,,,,,,,,,,,,,7,,58,0
29759,note_on,,119,0,14,,,,,,,,,,,,,,,,12,,70,0
29759,note_on,,0,0,16,,,,,,,,,,,,,,,,15,,73,0
29759,note_on,,119,0,9,,,,,,,,,,,,,,,,6,,66,0
29759,note_on,,0,0,16,,,,,,,,,,,,,,,,15,,70,0
29759,note_on,,119,0,8,,,,,,,,,,,,,,,,5,,73,0
29759,note_on,,119,0,7,,,,,,,,,,,,,,,,2,,54,0
29759,note_on,,119,0,12,,,,,,,,,,,,,,,,10,,78,0
29760,note_on,,1,0,8,,,,,,,,,,,,,,,,5,,78,88
29760,note_on,,1,0,14,,,,,,,,,,,,,,,,12,,66,72
29760,note_on,,1,0,6,,,,,,,,,,,,,,,,1,,78,72
29760,note_on,,1,0,5,,,,,,,,,,,,,,,,0,,78,72
29760,note_on,,1,0,13,,,,,,,,,,,,,,,,11,,78,72
29760,note_on,,1,0,12,,,,,,,,,,,,,,,,10,,78,72
29879,note_on,,119,0,13,,,,,,,,,,,,,,,,11,,78,0
29879,note_on,,119,0,6,,,,,,,,,,,,,,,,1,,78,0
29879,note_on,,119,0,12,,,,,,,,,,,,,,,,10,,78,0
29879,note_on,,119,0,8,,,,,,,,,,,,,,,,5,,78,0
29879,note_on,,119,0,5,,,,,,,,,,,,,,,,0,,78,0
29879,note_on,,119,0,14,,,,,,,,,,,,,,,,12,,66,0
29880,note_on,,1,0,8,,,,,,,,,,,,,,,,5,,78,88
29880,note_on,,1,0,12,,,,,,,,,,,,,,,,10,,78,72
29880,note_on,,1,0,6,,,,,,,,,,,,,,,,1,,78,72
29880,note_on,,1,0,5,,,,,,,,,,,,,,,,0,,78,72
29880,note_on,,1,0,13,,,,,,,,,,,,,,,,11,,78,72
30000,note_on,,121,0,14,,,,,,,,,,,,,,,,12,,63,72
30000,note_on,,0,0,16,,,,,,,,,,,,,,,,15,,66,72
30000,note_on,,241,0,16,,,,,,,,,,,,,,,,15,,63,72
30000,note_on,,241,0,9,,,,,,,,,,,,,,,,6,,63,88
30000,note_on,,241,0,7,,,,,,,,,,,,,,,,2,,63,72
30000,note_on,,241,0,15,,,,,,,,,,,,,,,,13,,63,72
30119,note_on,,119,0,16,,,,,,,,,,,,,,,,15,,63,0
30119,note_on,,119,0,7,,,,,,,,,,,,,,,,2,,63,0
30119,note_on,,119,0,14,,,,,,,,,,,,,,,,12,,63,0
30119,note_on,,119,0,15,,,,,,,,,,,,,,,,13,,63,0
30119,note_on,,0,0,16,,,,,,,,,,,,,,,,15,,66,0
30119,note_on,,119,0,9,,,,,,,,,,,,,,,,6,,63,0
30120,note_on,,0,0,16,,,,,,,,,,,,,,,,15,,66,72
30120,note_on,,0,0,16,,,,,,,,,,,,,,,,15,,62,72
30120,note_on,,0,0,16,,,,,,,,,,,,,,,,15,,71,72
30120,note_on,,1,0,15,,,,,,,,,,,,,,,,13,,59,72
30120,note_on,,1,0,9,,,,,,,,,,,,,,,,6,,59,88
30120,note_on,,1,0,14,,,,,,,,,,,,,,,,12,,59,72
30120,note_on,,1,0,7,,,,,,,,,,,,,,,,2,,59,72
30120,note_on,,1,0,16,,,,,,,,,,,,,,,,15,,59,72
30239,note_on,,119,0,15,,,,,,,,,,,,,,,,13,,59,0
30239,note_on,,119,0,9,,,,,,,,,,,,,,,,6,,59,0
30239,note_on,,119,0,14,,,,,,,,,,,,,,,,12,,59,0
30239,note_on,,359,0,12,,,,,,,,,,,,,,,,10,,78,0
30239,note_on,,359,0,13,,,,,,,,,,,,,,,,11,,78,0
30239,note_on,,359,0,8,,,,,,,,,,,,,,,,5,,78,0
30239,note_on,,119,0,7,,,,,,,,,,,,,,,,2,,59,0
30239,note_on,,359,0,5,,,,,,,,,,,,,,,,0,,78,0
30239,note_on,,0,0,16,,,,,,,,,,,,,,,,15,,71,0
30239,note_on,,0,0,16,,,,,,,,,,,,,,,,15,,66,0
30239,note_on,,119,0,16,,,,,,,,,,,,,,,,15,,59,0
30239,note_on,,359,0,6,,,,,,,,,,,,,,,,1,,78,0
30239,note_on,,0,0,16,,,,,,,,,,,,,,,,15,,62,0
30240,note_on,,1,0,12,,,,,,,,,,,,,,,,10,,78,72
30240,note_on,,1,0,7,,,,,,,,,,,,,,,,2,,66,72
30240,note_on,,1,0,5,,,,,,,,,,,,,,,,0,,78,72
30240,note_on,,1,0,9,,,,,,,,,,,,,,,,6,,66,88
30240,note_on,,1,0,15,,,,,,,,,,,,,,,,13,,66,72
30240,note_on,,1,0,13,,,,,,,,,,,,,,,,11,,78,72
30240,note_on,,1,0,16,,,,,,,,,,,,,,,,15,,66,72
30240,note_on,,1,0,14,,,,,,,,,,,,,,,,12,,66,72
30240,note_on,,0,0,16,,,,,,,,,,,,,,,,15,,70,72
30240,note_on,,0,0,16,,,,,,,,,,,,,,,,15,,73,72
30240,note_on,,1,0,8,,,,,,,,,,,,,,,,5,,78,88
30240,note_on,,1,0,6,,,,,,,,,,,,,,,,1,,78,72
30419,note_on,,179,0,9,,,,,,,,,,,,,,,,6,,66,0
30419,note_on,,179,0,14,,,,,,,,,,,,,,,,12,,66,0
30419,note_on,,179,0,15,,,,,,,,,,,,,,,,13,,66,0
30419,note_on,,179,0,16,,,,,,,,,,,,,,,,15,,66,0
30419,note_on,,179,0,7,,,,,,,,,,,,,,,,2,,66,0
30420,note_on,,1,0,15,,,,,,,,,,,,,,,,13,,64,72
30420,note_on,,1,0,7,,,,,,,,,,,,,,,,2,,64,72
30420,note_on,,1,0,9,,,,,,,,,,,,,,,,6,,64,88
30420,note_on,,1,0,16,,,,,,,,,,,,,,,,15,,64,72
30420,note_on,,1,0,14,,,,,,,,,,,,,,,,12,,64,72
30479,note_on,,59,0,15,,,,,,,,,,,,,,,,13,,64,0
30479,note_on,,59,0,14,,,,,,,,,,,,,,,,12,,64,0
30479,note_on,,239,0,8,,,,,,,,,,,,,,,,5,,78,0
30479,note_on,,239,0,12,,,,,,,,,,,,,,,,10,,78,0
30479,note_on,,239,0,6,,,,,,,,,,,,,,,,1,,78,0
30479,note_on,,59,0,9,,,,,,,,,,,,,,,,6,,64,0
30479,note_on,,239,0,5,,,,,,,,,,,,,,,,0,,78,0
30479,note_on,,239,0,13,,,,,,,,,,,,,,,,11,,78,0
30479,note_on,,0,0,16,,,,,,,,,,,,,,,,15,,70,0
30479,note_on,,59,0,7,,,,,,,,,,,,,,,,2,,64,0
30479,note_on,,0,0,16,,,,,,,,,,,,,,,,15,,64,0
30479,note_on,,59,0,16,,,,,,,,,,,,,,,,15,,73,0
30480,note_on,,1,0,9,,,,,,,,,,,,,,,,6,,63,88
30480,note_on,,1,0,13,,,,,,,,,,,,,,,,11,,78,72
30480,note_on,,1,0,16,,,,,,,,,,,,,,,,15,,63,72
30480,note_on,,1,0,12,,,,,,,,,,,,,,,,10,,78,72
30480,note_on,,1,0,7,,,,,,,,,,,,,,,,2,,63,72
30480,note_on,,1,0,8,,,,,,,,,,,,,,,,5,,78,88
30480,note_on,,1,0,5,,,,,,,,,,,,,,,,0,,78,72
30480,note_on,,1,0,15,,,,,,,,,,,,,,,,13,,63,72
30480,note_on,,1,0,14,,,,,,,,,,,,,,,,12,,63,72
30480,note_on,,0,0,16,,,,,,,,,,,,,,,,15,,66,72
30480,note_on,,0,0,16,,,,,,,,,,,,,,,,15,,71,72
30480,note_on,,1,0,6,,,,,,,,,,,,,,,,1,,78,72
30599,note_on,,119,0,7,,,,,,,,,,,,,,,,2,,63,0
30599,note_on,,119,0,9,,,,,,,,,,,,,,,,6,,63,0
30599,note_on,,0,0,16,,,,,,,,,,,,,,,,15,,66,0
30599,note_on,,0,0,16,,,,,,,,,,,,,,,,15,,71,0
30599,note_on,,119,0,16,,,,,,,,,,,,,,,,15,,63,0
30599,note_on,,119,0,13,,,,,,,,,,,,,,,,11,,78,0
30599,note_on,,119,0,12,,,,,,,,,,,,,,,,10,,78,0
30599,note_on,,119,0,6,,,,,,,,,,,,,,,,1,,78,0
30599,note_on,,119,0,15,,,,,,,,,,,,,,,,13,,63,0
30599,note_on,,119,0,14,,,,,,,,,,,,,,,,12,,63,0
30599,note_on,,119,0,5,,,,,,,,,,,,,,,,0,,78,0
30599,note_on,,119,0,8,,,,,,,,,,,,,,,,5,,78,0
30600,note_on,,1,0,7,,,,,,,,,,,,,,,,2,,68,72
30600,note_on,,1,0,12,,,,,,,,,,,,,,,,10,,78,72
30600,note_on,,1,0,15,,,,,,,,,,,,,,,,13,,68,72
30600,note_on,,1,0,6,,,,,,,,,,,,,,,,1,,78,72
30600,note_on,,1,0,9,,,,,,,,,,,,,,,,6,,68,88
30600,note_on,,1,0,5,,,,,,,,,,,,,,,,0,,78,72
30600,note_on,,1,0,16,,,,,,,,,,,,,,,,15,,68,72
30600,note_on,,1,0,13,,,,,,,,,,,,,,,,11,,78,72
30600,note_on,,0,0,16,,,,,,,,,,,,,,,,15,,71,72
30600,note_on,,1,0,14,,,,,,,,,,,,,,,,12,,68,72
30600,note_on,,1,0,8,,,,,,,,,,,,,,,,5,,78,88
30719,note_on,,119,0,14,,,,,,,,,,,,,,,,12,,68,0
30719,note_on,,119,0,16,,,,,,,,,,,,,,,,15,,68,0
30719,note_on,,119,0,15,,,,,,,,,,,,,,,,13,,68,0
30719,note_on,,119,0,9,,,,,,,,,,,,,,,,6,,68,0
30719,note_on,,119,0,7,,,,,,,,,,,,,,,,2,,68,0
30720,note_on,,1,0,9,,,,,,,,,,,,,,,,6,,68,88
30720,note_on,,1,0,16,,,,,,,,,,,,,,,,15,,68,72
30720,note_on,,1,0,7,,,,,,,,,,,,,,,,2,,68,72
30720,note_on,,1,0,14,,,,,,,,,,,,,,,,12,,68,72
30720,note_on,,1,0,15,,,,,,,,,,,,,,,,13,,68,72
30839,note_on,,119,0,15,,,,,,,,,,,,,,,,13,,68,0
30839,note_on,,119,0,9,,,,,,,,,,,,,,,,6,,68,0
30839,note_on,,119,0,7,,,,,,,,,,,,,,,,2,,68,0
30839,note_on,,119,0,14,,,,,,,,,,,,,,,,12,,68,0
30839,note_on,,239,0,6,,,,,,,,,,,,,,,,1,,78,0
30839,note_on,,0,0,16,,,,,,,,,,,,,,,,15,,68,0
30839,note_on,,239,0,8,,,,,,,,,,,,,,,,5,,78,0
30839,note_on,,119,0,16,,,,,,,,,,,,,,,,15,,71,0
30839,note_on,,239,0,5,,,,,,,,,,,,,,,,0,,78,0
30839,note_on,,239,0,12,,,,,,,,,,,,,,,,10,,78,0
30839,note_on,,239,0,13,,,,,,,,,,,,,,,,11,,78,0
30840,note_on,,1,0,8,,,,,,,,,,,,,,,,5,,76,88
30840,note_on,,1,0,13,,,,,,,,,,,,,,,,11,,76,72
30840,note_on,,1,0,16,,,,,,,,,,,,,,,,15,,70,72
30840,note_on,,1,0,5,,,,,,,,,,,,,,,,0,,76,72
30840,note_on,,1,0,9,,,,,,,,,,,,,,,,6,,70,88
30840,note_on,,1,0,12,,,,,,,,,,,,,,,,10,,76,72
30840,note_on,,0,0,16,,,,,,,,,,,,,,,,15,,73,72
30840,note_on,,1,0,7,,,,,,,,,,,,,,,,2,,70,72
30840,note_on,,1,0,6,,,,,,,,,,,,,,,,1,,76,72
30840,note_on,,1,0,15,,,,,,,,,,,,,,,,13,,70,72
30840,note_on,,1,0,14,,,,,,,,,,,,,,,,12,,70,72
30959,note_on,,119,0,9,,,,,,,,,,,,,,,,6,,70,0
30959,note_on,,119,0,16,,,,,,,,,,,,,,,,15,,70,0
30959,note_on,,119,0,13,,,,,,,,,,,,,,,,11,,76,0
30959,note_on,,119,0,7,,,,,,,,,,,,,,,,2,,70,0
30959,note_on,,119,0,8,,,,,,,,,,,,,,,,5,,76,0
30959,note_on,,0,0,16,,,,,,,,,,,,,,,,15,,73,0
30959,note_on,,119,0,6,,,,,,,,,,,,,,,,1,,76,0
30959,note_on,,119,0,15,,,,,,,,,,,,,,,,13,,70,0
30959,note_on,,119,0,12,,,,,,,,,,,,,,,,10,,76,0
30959,note_on,,119,0,5,,,,,,,,,,,,,,,,0,,76,0
30959,note_on,,119,0,14,,,,,,,,,,,,,,,,12,,70,0
30960,note_on,,1,0,14,,,,,,,,,,,,,,,,12,,71,72
30960,note_on,,1,0,5,,,,,,,,,,,,,,,,0,,75,72
30960,note_on,,1,0,16,,,,,,,,,,,,,,,,15,,71,72
30960,note_on,,1,0,9,,,,,,,,,,,,,,,,6,,71,88
30960,note_on,,1,0,7,,,,,,,,,,,,,,,,2,,71,72
30960,note_on,,1,0,13,,,,,,,,,,,,,,,,11,,75,72
30960,note_on,,1,0,6,,,,,,,,,,,,,,,,1,,75,72
30960,note_on,,1,0,12,,,,,,,,,,,,,,,,10,,75,72
30960,note_on,,1,0,15,,,,,,,,,,,,,,,,13,,71,72
30960,note_on,,1,0,8,,,,,,,,,,,,,,,,5,,75,88
31079,note_on,,119,0,7,,,,,,,,,,,,,,,,2,,71,0
31079,note_on,,119,0,13,,,,,,,,,,,,,,,,11,,75,0
31079,note_on,,119,0,15,,,,,,,,,,,,,,,,13,,71,0
31080,note_on,,120,0,16,,,,,,,,,,,,,,,,15,,59,72
31080,note_on,,1,0,7,,,,,,,,,,,,,,,,2,,59,72
31080,note_on,,1,0,15,,,,,,,,,,,,,,,,13,,59,72
31080,note_on,,1,0,13,,,,,,,,,,,,,,,,11,,71,72
31139,note_on,,179,0,8,,,,,,,,,,,,,,,,5,,75,0
31139,note_on,,179,0,12,,,,,,,,,,,,,,,,10,,75,0
31139,note_on,,179,0,5,,,,,,,,,,,,,,,,0,,75,0
31139,note_on,,179,0,6,,,,,,,,,,,,,,,,1,,75,0
31140,note_on,,1,0,8,,,,,,,,,,,,,,,,5,,73,88
31140,note_on,,1,0,12,,,,,,,,,,,,,,,,10,,73,72
31140,note_on,,1,0,5,,,,,,,,,,,,,,,,0,,73,72
31140,note_on,,1,0,6,,,,,,,,,,,,,,,,1,,73,72
31199,note_on,,59,0,6,,,,,,,,,,,,,,,,1,,73,0
31199,note_on,,59,0,5,,,,,,,,,,,,,,,,0,,73,0
31199,note_on,,119,0,16,,,,,,,,,,,,,,,,15,,71,0
31199,note_on,,119,0,13,,,,,,,,,,,,,,,,11,,71,0
31199,note_on,,239,0,14,,,,,,,,,,,,,,,,12,,71,0
31199,note_on,,0,0,16,,,,,,,,,,,,,,,,15,,59,0
31199,note_on,,239,0,9,,,,,,,,,,,,,,,,6,,71,0
31199,note_on,,59,0,8,,,,,,,,,,,,,,,,5,,73,0
31199,note_on,,119,0,15,,,,,,,,,,,,,,,,13,,59,0
31199,note_on,,119,0,7,,,,,,,,,,,,,,,,2,,59,0
31199,note_on,,59,0,12,,,,,,,,,,,,,,,,10,,73,0
31200,note_on,,1,0,16,,,,,,,,,,,,,,,,15,,63,72
31200,note_on,,1,0,7,,,,,,,,,,,,,,,,2,,63,72
31200,note_on,,0,0,16,,,,,,,,,,,,,,,,15,,66,72
31200,note_on,,1,0,6,,,,,,,,,,,,,,,,1,,71,72
31200,note_on,,1,0,14,,,,,,,,,,,,,,,,12,,63,72
31200,note_on,,1,0,9,,,,,,,,,,,,,,,,6,,66,88
31200,note_on,,1,0,13,,,,,,,,,,,,,,,,11,,66,72
31200,note_on,,1,0,12,,,,,,,,,,,,,,,,10,,71,72
31200,note_on,,1,0,8,,,,,,,,,,,,,,,,5,,71,88
31200,note_on,,1,0,5,,,,,,,,,,,,,,,,0,,71,72
31200,note_on,,1,0,15,,,,,,,,,,,,,,,,13,,63,72
31319,note_on,,119,0,7,,,,,,,,,,,,,,,,2,,63,0
31319,note_on,,0,0,16,,,,,,,,,,,,,,,,15,,66,0
31319,note_on,,119,0,12,,,,,,,,,,,,,,,,10,,71,0
31319,note_on,,119,0,6,,,,,,,,,,,,,,,,1,,71,0
31319,note_on,,119,0,16,,,,,,,,,,,,,,,,15,,63,0
31319,note_on,,119,0,15,,,,,,,,,,,,,,,,13,,63,0
31319,note_on,,119,0,5,,,,,,,,,,,,,,,,0,,71,0
31319,note_on,,119,0,8,,,,,,,,,,,,,,,,5,,71,0
31319,note_on,,119,0,9,,,,,,,,,,,,,,,,6,,66,0
31319,note_on,,119,0,14,,,,,,,,,,,,,,,,12,,63,0
31319,note_on,,119,0,13,,,,,,,,,,,,,,,,11,,66,0
31320,note_on,,1,0,15,,,,,,,,,,,,,,,,13,,61,72
31320,note_on,,1,0,9,,,,,,,,,,,,,,,,6,,64,88
31320,note_on,,1,0,7,,,,,,,,,,,,,,,,2,,61,72
31320,note_on,,1,0,14,,,,,,,,,,,,,,,,12,,61,72
31320,note_on,,0,0,16,,,,,,,,,,,,,,,,15,,64,72
31320,note_on,,1,0,13,,,,,,,,,,,,,,,,11,,64,72
31320,note_on,,1,0,16,,,,,,,,,,,,,,,,15,,61,72
31439,note_on,,119,0,16,,,,,,,,,,,,,,,,15,,61,0
31439,note_on,,119,0,7,,,,,,,,,,,,,,,,2,,61,0
31439,note_on,,119,0,14,,,,,,,,,,,,,,,,12,,61,0
31439,note_on,,119,0,15,,,,,,,,,,,,,,,,13,,61,0
31440,note_on,,1,0,16,,,,,,,,,,,,,,,,15,,56,72
31440,note_on,,1,0,7,,,,,,,,,,,,,,,,2,,56,72
31440,note_on,,1,0,15,,,,,,,,,,,,,,,,13,,56,72
31440,note_on,,1,0,14,,,,,,,,,,,,,,,,12,,56,72
31499,note_on,,179,0,13,,,,,,,,,,,,,,,,11,,64,0
31499,note_on,,59,0,16,,,,,,,,,,,,,,,,15,,64,0
31499,note_on,,179,0,9,,,,,,,,,,,,,,,,6,,64,0
31500,note_on,,1,0,13,,,,,,,,,,,,,,,,11,,68,72
31500,note_on,,1,0,16,,,,,,,,,,,,,,,,15,,68,72
31500,note_on,,1,0,9,,,,,,,,,,,,,,,,6,,68,88
31559,note_on,,119,0,14,,,,,,,,,,,,,,,,12,,56,0
31559,note_on,,119,0,7,,,,,,,,,,,,,,,,2,,56,0
31559,note_on,,59,0,9,,,,,,,,,,,,,,,,6,,68,0
31559,note_on,,0,0,16,,,,,,,,,,,,,,,,15,,68,0
31559,note_on,,119,0,15,,,,,,,,,,,,,,,,13,,56,0
31559,note_on,,59,0,13,,,,,,,,,,,,,,,,11,,68,0
31559,note_on,,59,0,16,,,,,,,,,,,,,,,,15,,56,0
31560,note_on,,1,0,15,,,,,,,,,,,,,,,,13,,58,72
31560,note_on,,1,0,14,,,,,,,,,,,,,,,,12,,58,72
31560,note_on,,1,0,9,,,,,,,,,,,,,,,,6,,66,88
31560,note_on,,1,0,7,,,,,,,,,,,,,,,,2,,58,72
31560,note_on,,1,0,13,,,,,,,,,,,,,,,,11,,66,72
31560,note_on,,1,0,16,,,,,,,,,,,,,,,,15,,58,72
31560,note_on,,0,0,16,,,,,,,,,,,,,,,,15,,66,72
31619,note_on,,59,0,13,,,,,,,,,,,,,,,,11,,66,0
31619,note_on,,59,0,9,,,,,,,,,,,,,,,,6,,66,0
31619,note_on,,59,0,16,,,,,,,,,,,,,,,,15,,66,0
31620,note_on,,1,0,16,,,,,,,,,,,,,,,,15,,64,72
31620,note_on,,1,0,13,,,,,,,,,,,,,,,,11,,64,72
31620,note_on,,1,0,9,,,,,,,,,,,,,,,,6,,64,88
31679,note_on,,119,0,14,,,,,,,,,,,,,,,,12,,58,0
31679,note_on,,59,0,13,,,,,,,,,,,,,,,,11,,64,0
31679,note_on,,0,0,16,,,,,,,,,,,,,,,,15,,64,0
31679,note_on,,119,0,15,,,,,,,,,,,,,,,,13,,58,0
31679,note_on,,59,0,9,,,,,,,,,,,,,,,,6,,64,0
31679,note_on,,119,0,7,,,,,,,,,,,,,,,,2,,58,0
31679,note_on,,59,0,16,,,,,,,,,,,,,,,,15,,58,0
31680,note_on,,0,0,16,,,,,,,,,,,,,,,,15,,63,72
31680,note_on,,1,0,14,,,,,,,,,,,,,,,,12,,59,72
31680,note_on,,1,0,13,,,,,,,,,,,,,,,,11,,63,72
31680,note_on,,1,0,9,,,,,,,,,,,,,,,,6,,63,88
31680,note_on,,1,0,7,,,,,,,,,,,,,,,,2,,59,72
31680,note_on,,1,0,15,,,,,,,,,,,,,,,,13,,59,72
31680,note_on,,1,0,16,,,,,,,,,,,,,,,,15,,59,72
31739,note_on,,59,0,13,,,,,,,,,,,,,,,,11,,63,0
31739,note_on,,59,0,9,,,,,,,,,,,,,,,,6,,63,0
31740,note_on,,1,0,13,,,,,,,,,,,,,,,,11,,61,72
31740,note_on,,1,0,9,,,,,,,,,,,,,,,,6,,61,88
31799,note_on,,59,0,9,,,,,,,,,,,,,,,,6,,61,0
31799,note_on,,119,0,7,,,,,,,,,,,,,,,,2,,59,0
31799,note_on,,119,0,15,,,,,,,,,,,,,,,,13,,59,0
31799,note_on,,59,0,13,,,,,,,,,,,,,,,,11,,61,0
31799,note_on,,0,0,16,,,,,,,,,,,,,,,,15,,63,0
31799,note_on,,119,0,14,,,,,,,,,,,,,,,,12,,59,0
31799,note_on,,119,0,16,,,,,,,,,,,,,,,,15,,59,0
31800,note_on,,1,0,15,,,,,,,,,,,,,,,,13,,56,72
31800,note_on,,0,0,16,,,,,,,,,,,,,,,,15,,64,72
31800,note_on,,1,0,13,,,,,,,,,,,,,,,,11,,59,72
31800,note_on,,1,0,16,,,,,,,,,,,,,,,,15,,56,72
31800,note_on,,1,0,7,,,,,,,,,,,,,,,,2,,56,72
31800,note_on,,1,0,9,,,,,,,,,,,,,,,,6,,59,88
31800,note_on,,2041,0,10,,,,,,,,,,,,,,,,7,,59,88
31800,note_on,,1,0,14,,,,,,,,,,,,,,,,12,,59,72
31800,note_on,,0,0,16,,,,,,,,,,,,,,,,15,,59,72
31919,note_on,,119,0,9,,,,,,,,,,,,,,,,6,,59,0
31919,note_on,,119,0,16,,,,,,,,,,,,,,,,15,,56,0
31919,note_on,,119,0,10,,,,,,,,,,,,,,,,7,,59,0
31919,note_on,,119,0,14,,,,,,,,,,,,,,,,12,,59,0
31919,note_on,,0,0,16,,,,,,,,,,,,,,,,15,,59,0
31919,note_on,,119,0,7,,,,,,,,,,,,,,,,2,,56,0
31919,note_on,,119,0,15,,,,,,,,,,,,,,,,13,,56,0
31919,note_on,,119,0,13,,,,,,,,,,,,,,,,11,,59,0
31919,note_on,,0,0,16,,,,,,,,,,,,,,,,15,,64,0
31920,note_on,,1,0,15,,,,,,,,,,,,,,,,13,,52,72
31920,note_on,,1,0,10,,,,,,,,,,,,,,,,7,,64,88
31920,note_on,,1,0,7,,,,,,,,,,,,,,,,2,,52,72
31920,note_on,,0,0,16,,,,,,,,,,,,,,,,15,,59,72
31920,note_on,,0,0,16,,,,,,,,,,,,,,,,15,,64,72
31920,note_on,,0,0,16,,,,,,,,,,,,,,,,15,,68,72
31920,note_on,,1,0,16,,,,,,,,,,,,,,,,15,,52,72
31920,note_on,,1,0,14,,,,,,,,,,,,,,,,12,,64,72
32039,note_on,,119,0,15,,,,,,,,,,,,,,,,13,,52,0
32039,note_on,,119,0,14,,,,,,,,,,,,,,,,12,,64,0
32039,note_on,,119,0,10,,,,,,,,,,,,,,,,7,,64,0
32039,note_on,,119,0,16,,,,,,,,,,,,,,,,15,,52,0
32039,note_on,,0,0,16,,,,,,,,,,,,,,,,15,,68,0
32039,note_on,,0,0,16,,,,,,,,,,,,,,,,15,,64,0
32039,note_on,,0,0,16,,,,,,,,,,,,,,,,15,,59,0
32039,note_on,,119,0,7,,,,,,,,,,,,,,,,2,,52,0
32040,note_on,,0,0,16,,,,,,,,,,,,,,,,15,,63,72
32040,note_on,,1,0,10,,,,,,,,,,,,,,,,7,,63,88
32040,note_on,,1,0,16,,,,,,,,,,,,,,,,15,,59,72
32040,note_on,,0,0,16,,,,,,,,,,,,,,,,15,,66,72
32040,note_on,,1,0,15,,,,,,,,,,,,,,,,13,,59,72
32040,note_on,,1,0,7,,,,,,,,,,,,,,,,2,,59,72
32040,note_on,,1,0,14,,,,,,,,,,,,,,,,12,,63,72
32099,note_on,,59,0,14,,,,,,,,,,,,,,,,12,,63,0
32099,note_on,,59,0,10,,,,,,,,,,,,,,,,7,,63,0
32100,note_on,,1,0,10,,,,,,,,,,,,,,,,7,,61,88
32100,note_on,,1,0,14,,,,,,,,,,,,,,,,12,,61,72
32159,note_on,,59,0,10,,,,,,,,,,,,,,,,7,,61,0
32159,note_on,,119,0,7,,,,,,,,,,,,,,,,2,,59,0
32159,note_on,,119,0,15,,,,,,,,,,,,,,,,13,,59,0
32159,note_on,,59,0,14,,,,,,,,,,,,,,,,12,,61,0
32159,note_on,,119,0,16,,,,,,,,,,,,,,,,15,,66,0
32160,note_on,,1,0,14,,,,,,,,,,,,,,,,12,,59,72
32160,note_on,,1,0,7,,,,,,,,,,,,,,,,2,,47,72
32160,note_on,,1,0,10,,,,,,,,,,,,,,,,7,,59,88
32160,note_on,,1,0,16,,,,,,,,,,,,,,,,15,,47,72
32160,note_on,,1,0,15,,,,,,,,,,,,,,,,13,,47,72
32160,note_on,,0,0,16,,,,,,,,,,,,,,,,15,,71,72
32160,note_on,,2401,0,11,,,,,,,,,,,,,,,,8,,47,88
32279,note_on,,119,0,15,,,,,,,,,,,,,,,,13,,47,0
32279,note_on,,0,0,16,,,,,,,,,,,,,,,,15,,71,0
32279,note_on,,0,0,16,,,,,,,,,,,,,,,,15,,63,0
32279,note_on,,119,0,10,,,,,,,,,,,,,,,,7,,59,0
32279,note_on,,119,0,11,,,,,,,,,,,,,,,,8,,47,0
32279,note_on,,0,0,16,,,,,,,,,,,,,,,,15,,47,0
32279,note_on,,119,0,14,,,,,,,,,,,,,,,,12,,59,0
32279,note_on,,119,0,16,,,,,,,,,,,,,,,,15,,59,0
32279,note_on,,119,0,7,,,,,,,,,,,,,,,,2,,47,0
32280,note_on,,1,0,11,,,,,,,,,,,,,,,,8,,52,88
32280,note_on,,1,0,15,,,,,,,,,,,,,,,,13,,52,72
32280,note_on,,1,0,16,,,,,,,,,,,,,,,,15,,52,72
32280,note_on,,0,0,16,,,,,,,,,,,,,,,,15,,68,72
32280,note_on,,0,0,16,,,,,,,,,,,,,,,,15,,64,72
32280,note_on,,0,0,16,,,,,,,,,,,,,,,,15,,59,72
32280,note_on,,1,0,7,,,,,,,,,,,,,,,,2,,52,72
32399,note_on,,119,0,7,,,,,,,,,,,,,,,,2,,52,0
32399,note_on,,119,0,11,,,,,,,,,,,,,,,,8,,52,0
32399,note_on,,119,0,16,,,,,,,,,,,,,,,,15,,52,0
32399,note_on,,119,0,15,,,,,,,,,,,,,,,,13,,52,0
32399,note_on,,0,0,16,,,,,,,,,,,,,,,,15,,59,0
32399,note_on,,0,0,16,,,,,,,,,,,,,,,,15,,68,0
32399,note_on,,0,0,16,,,,,,,,,,,,,,,,15,,64,0
32400,note_on,,1,0,15,,,,,,,,,,,,,,,,13,,51,72
32400,note_on,,1,0,7,,,,,,,,,,,,,,,,2,,51,72
32400,note_on,,1,0,16,,,,,,,,,,,,,,,,15,,51,72
32400,note_on,,0,0,16,,,,,,,,,,,,,,,,15,,54,72
32400,note_on,,0,0,16,,,,,,,,,,,,,,,,15,,59,72
32400,note_on,,0,0,16,,,,,,,,,,,,,,,,15,,66,72
32400,note_on,,1,0,11,,,,,,,,,,,,,,,,8,,51,88
32459,note_on,,59,0,11,,,,,,,,,,,,,,,,8,,51,0
32460,note_on,,1,0,11,,,,,,,,,,,,,,,,8,,49,88
32519,note_on,,119,0,16,,,,,,,,,,,,,,,,15,,51,0
32519,note_on,,119,0,7,,,,,,,,,,,,,,,,2,,51,0
32519,note_on,,59,0,11,,,,,,,,,,,,,,,,8,,49,0
32519,note_on,,119,0,15,,,,,,,,,,,,,,,,13,,51,0
32519,note_on,,0,0,16,,,,,,,,,,,,,,,,15,,66,0
32520,note_on,,1,0,7,,,,,,,,,,,,,,,,2,,47,72
32520,note_on,,1,0,15,,,,,,,,,,,,,,,,13,,47,72
32520,note_on,,0,0,16,,,,,,,,,,,,,,,,15,,63,72
32520,note_on,,601,0,9,,,,,,,,,,,,,,,,6,,59,88
32520,note_on,,1,0,11,,,,,,,,,,,,,,,,8,,47,88
32520,note_on,,601,0,13,,,,,,,,,,,,,,,,11,,59,72
32520,note_on,,1,0,16,,,,,,,,,,,,,,,,15,,47,72
32639,note_on,,119,0,13,,,,,,,,,,,,,,,,11,,59,0
32639,note_on,,119,0,9,,,,,,,,,,,,,,,,6,,59,0
32639,note_on,,119,0,15,,,,,,,,,,,,,,,,13,,47,0
32639,note_on,,119,0,11,,,,,,,,,,,,,,,,8,,47,0
32639,note_on,,119,0,16,,,,,,,,,,,,,,,,15,,59,0
32639,note_on,,0,0,16,,,,,,,,,,,,,,,,15,,63,0
32639,note_on,,0,0,16,,,,,,,,,,,,,,,,15,,47,0
32639,note_on,,119,0,7,,,,,,,,,,,,,,,,2,,47,0
32639,note_on,,0,0,16,,,,,,,,,,,,,,,,15,,54,0
32640,note_on,,1,0,16,,,,,,,,,,,,,,,,15,,56,72
32640,note_on,,1,0,13,,,,,,,,,,,,,,,,11,,64,72
32640,note_on,,0,0,16,,,,,,,,,,,,,,,,15,,64,72
32640,note_on,,1,0,7,,,,,,,,,,,,,,,,2,,56,72
32640,note_on,,0,0,16,,,,,,,,,,,,,,,,15,,59,72
32640,note_on,,1,0,15,,,,,,,,,,,,,,,,13,,56,72
32640,note_on,,1,0,9,,,,,,,,,,,,,,,,6,,64,88
32759,note_on,,119,0,16,,,,,,,,,,,,,,,,15,,56,0
32759,note_on,,119,0,9,,,,,,,,,,,,,,,,6,,64,0
32759,note_on,,119,0,15,,,,,,,,,,,,,,,,13,,56,0
32759,note_on,,119,0,7,,,,,,,,,,,,,,,,2,,56,0
32759,note_on,,0,0,16,,,,,,,,,,,,,,,,15,,59,0
32759,note_on,,119,0,13,,,,,,,,,,,,,,,,11,,64,0
32759,note_on,,0,0,16,,,,,,,,,,,,,,,,15,,64,0
32760,note_on,,1,0,15,,,,,,,,,,,,,,,,13,,59,72
32760,note_on,,1,0,7,,,,,,,,,,,,,,,,2,,59,72
32760,note_on,,1,0,16,,,,,,,,,,,,,,,,15,,59,72
32760,note_on,,0,0,16,,,,,,,,,,,,,,,,15,,66,72
32760,note_on,,0,0,16,,,,,,,,,,,,,,,,15,,63,72
32760,note_on,,1,0,13,,,,,,,,,,,,,,,,11,,63,72
32760,note_on,,1,0,9,,,,,,,,,,,,,,,,6,,63,88
32819,note_on,,59,0,13,,,,,,,,,,,,,,,,11,,63,0
32819,note_on,,59,0,9,,,,,,,,,,,,,,,,6,,63,0
32820,note_on,,1,0,13,,,,,,,,,,,,,,,,11,,61,72
32820,note_on,,1,0,9,,,,,,,,,,,,,,,,6,,61,88
32879,note_on,,59,0,9,,,,,,,,,,,,,,,,6,,61,0
32879,note_on,,59,0,13,,,,,,,,,,,,,,,,11,,61,0
32880,note_on,,1,0,9,,,,,,,,,,,,,,,,6,,59,88
32880,note_on,,1,0,13,,,,,,,,,,,,,,,,11,,59,72
32999,note_on,,119,0,9,,,,,,,,,,,,,,,,6,,59,0
32999,note_on,,0,0,16,,,,,,,,,,,,,,,,15,,63,0
32999,note_on,,239,0,16,,,,,,,,,,,,,,,,15,,59,0
32999,note_on,,0,0,16,,,,,,,,,,,,,,,,15,,66,0
32999,note_on,,239,0,15,,,,,,,,,,,,,,,,13,,59,0
32999,note_on,,239,0,7,,,,,,,,,,,,,,,,2,,59,0
32999,note_on,,119,0,13,,,,,,,,,,,,,,,,11,,59,0
33000,note_on,,1,0,7,,,,,,,,,,,,,,,,2,,47,72
33000,note_on,,0,0,16,,,,,,,,,,,,,,,,15,,63,72
33000,note_on,,0,0,16,,,,,,,,,,,,,,,,15,,59,72
33000,note_on,,0,0,16,,,,,,,,,,,,,,,,15,,54,72
33000,note_on,,1,0,15,,,,,,,,,,,,,,,,13,,47,72
33000,note_on,,1,0,16,,,,,,,,,,,,,,,,15,,47,72
33000,note_on,,1,0,9,,,,,,,,,,,,,,,,6,,63,88
33000,note_on,,361,0,11,,,,,,,,,,,,,,,,8,,47,88
33000,note_on,,1,0,13,,,,,,,,,,,,,,,,11,,62,72
33000,note_on,,721,0,14,,,,,,,,,,,,,,,,12,,59,72
33000,note_on,,721,0,10,,,,,,,,,,,,,,,,7,,59,88
33119,note_on,,0,0,16,,,,,,,,,,,,,,,,15,,54,0
33119,note_on,,119,0,16,,,,,,,,,,,,,,,,15,,47,0
33119,note_on,,119,0,14,,,,,,,,,,,,,,,,12,,59,0
33119,note_on,,119,0,10,,,,,,,,,,,,,,,,7,,59,0
33119,note_on,,119,0,7,,,,,,,,,,,,,,,,2,,47,0
33119,note_on,,119,0,15,,,,,,,,,,,,,,,,13,,47,0
33119,note_on,,119,0,11,,,,,,,,,,,,,,,,8,,47,0
33119,note_on,,119,0,13,,,,,,,,,,,,,,,,11,,62,0
33119,note_on,,119,0,9,,,,,,,,,,,,,,,,6,,63,0
33119,note_on,,0,0,16,,,,,,,,,,,,,,,,15,,59,0
33119,note_on,,0,0,16,,,,,,,,,,,,,,,,15,,63,0
33120,note_on,,1,0,10,,,,,,,,,,,,,,,,7,,59,88
33120,note_on,,1,0,7,,,,,,,,,,,,,,,,2,,49,72
33120,note_on,,1,0,11,,,,,,,,,,,,,,,,8,,49,88
33120,note_on,,1,0,14,,,,,,,,,,,,,,,,12,,59,72
33120,note_on,,1,0,16,,,,,,,,,,,,,,,,15,,49,72
33120,note_on,,0,0,16,,,,,,,,,,,,,,,,15,,64,72
33120,note_on,,1,0,9,,,,,,,,,,,,,,,,6,,64,88
33120,note_on,,1,0,15,,,,,,,,,,,,,,,,13,,49,72
33120,note_on,,1,0,13,,,,,,,,,,,,,,,,11,,64,72
33120,note_on,,0,0,16,,,,,,,,,,,,,,,,15,,52,72
33120,note_on,,0,0,16,,,,,,,,,,,,,,,,15,,59,72
33239,note_on,,0,0,16,,,,,,,,,,,,,,,,15,,64,0
33239,note_on,,119,0,7,,,,,,,,,,,,,,,,2,,49,0
33239,note_on,,119,0,13,,,,,,,,,,,,,,,,11,,64,0
33239,note_on,,119,0,9,,,,,,,,,,,,,,,,6,,64,0
33239,note_on,,119,0,10,,,,,,,,,,,,,,,,7,,59,0
33239,note_on,,119,0,16,,,,,,,,,,,,,,,,15,,49,0
33239,note_on,,119,0,11,,,,,,,,,,,,,,,,8,,49,0
33239,note_on,,0,0,16,,,,,,,,,,,,,,,,15,,59,0
33239,note_on,,119,0,15,,,,,,,,,,,,,,,,13,,49,0
33239,note_on,,0,0,16,,,,,,,,,,,,,,,,15,,52,0
33239,note_on,,119,0,14,,,,,,,,,,,,,,,,12,,59,0
33240,note_on,,0,0,16,,,,,,,,,,,,,,,,15,,71,72
33240,note_on,,1,0,9,,,,,,,,,,,,,,,,6,,66,88
33240,note_on,,1921,0,8,,,,,,,,,,,,,,,,5,,71,88
33240,note_on,,1921,0,6,,,,,,,,,,,,,,,,1,,71,72
33240,note_on,,1,0,7,,,,,,,,,,,,,,,,2,,51,72
33240,note_on,,1,0,15,,,,,,,,,,,,,,,,13,,51,72
33240,note_on,,1,0,13,,,,,,,,,,,,,,,,11,,66,72
33240,note_on,,0,0,16,,,,,,,,,,,,,,,,15,,54,72
33240,note_on,,0,0,16,,,,,,,,,,,,,,,,15,,59,72
33240,note_on,,1921,0,12,,,,,,,,,,,,,,,,10,,71,72
33240,note_on,,0,0,16,,,,,,,,,,,,,,,,15,,57,72
33240,note_on,,1,0,11,,,,,,,,,,,,,,,,8,,51,88
33240,note_on,,1,0,16,,,,,,,,,,,,,,,,15,,51,72
33240,note_on,,1921,0,5,,,,,,,,,,,,,,,,0,,71,72
33240,note_on,,1,0,14,,,,,,,,,,,,,,,,12,,57,72
33240,note_on,,0,0,16,,,,,,,,,,,,,,,,15,,66,72
33240,note_on,,1,0,10,,,,,,,,,,,,,,,,7,,57,88
33359,note_on,,119,0,5,,,,,,,,,,,,,,,,0,,71,0
33359,note_on,,119,0,6,,,,,,,,,,,,,,,,1,,71,0
33359,note_on,,119,0,12,,,,,,,,,,,,,,,,10,,71,0
33359,note_on,,119,0,8,,,,,,,,,,,,,,,,5,,71,0
33360,note_on,,1,0,6,,,,,,,,,,,,,,,,1,,71,72
33360,note_on,,1,0,12,,,,,,,,,,,,,,,,10,,71,72
33360,note_on,,1,0,5,,,,,,,,,,,,,,,,0,,71,72
33360,note_on,,1,0,8,,,,,,,,,,,,,,,,5,,71,88
33419,note_on,,179,0,14,,,,,,,,,,,,,,,,12,,57,0
33419,note_on,,179,0,7,,,,,,,,,,,,,,,,2,,51,0
33419,note_on,,179,0,11,,,,,,,,,,,,,,,,8,,51,0
33419,note_on,,179,0,9,,,,,,,,,,,,,,,,6,,66,0
33419,note_on,,179,0,10,,,,,,,,,,,,,,,,7,,57,0
33419,note_on,,179,0,16,,,,,,,,,,,,,,,,15,,51,0
33419,note_on,,0,0,16,,,,,,,,,,,,,,,,15,,57,0
33419,note_on,,0,0,16,,,,,,,,,,,,,,,,15,,54,0
33419,note_on,,179,0,15,,,,,,,,,,,,,,,,13,,51,0
33419,note_on,,179,0,13,,,,,,,,,,,,,,,,11,,66,0
33420,note_on,,1,0,14,,,,,,,,,,,,,,,,12,,57,72
33420,note_on,,1,0,10,,,,,,,,,,,,,,,,7,,57,88
33420,note_on,,0,0,16,,,,,,,,,,,,,,,,15,,57,72
33420,note_on,,1,0,16,,,,,,,,,,,,,,,,15,,51,72
33420,note_on,,0,0,16,,,,,,,,,,,,,,,,15,,54,72
33420,note_on,,1,0,11,,,,,,,,,,,,,,,,8,,51,88
33420,note_on,,1,0,13,,,,,,,,,,,,,,,,11,,66,72
33420,note_on,,1,0,9,,,,,,,,,,,,,,,,6,,66,88
33420,note_on,,1,0,7,,,,,,,,,,,,,,,,2,,51,72
33420,note_on,,1,0,15,,,,,,,,,,,,,,,,13,,51,72
33479,note_on,,59,0,11,,,,,,,,,,,,,,,,8,,51,0
33479,note_on,,119,0,12,,,,,,,,,,,,,,,,10,,71,0
33479,note_on,,59,0,9,,,,,,,,,,,,,,,,6,,66,0
33479,note_on,,59,0,13,,,,,,,,,,,,,,,,11,,66,0
33479,note_on,,59,0,10,,,,,,,,,,,,,,,,7,,57,0
33479,note_on,,119,0,5,,,,,,,,,,,,,,,,0,,71,0
33479,note_on,,0,0,16,,,,,,,,,,,,,,,,15,,51,0
33479,note_on,,0,0,16,,,,,,,,,,,,,,,,15,,59,0
33479,note_on,,0,0,16,,,,,,,,,,,,,,,,15,,66,0
33479,note_on,,59,0,16,,,,,,,,,,,,,,,,15,,71,0
33479,note_on,,119,0,8,,,,,,,,,,,,,,,,5,,71,0
33479,note_on,,0,0,16,,,,,,,,,,,,,,,,15,,54,0
33479,note_on,,0,0,16,,,,,,,,,,,,,,,,15,,57,0
33479,note_on,,59,0,7,,,,,,,,,,,,,,,,2,,51,0
33479,note_on,,119,0,6,,,,,,,,,,,,,,,,1,,71,0
33479,note_on,,59,0,15,,,,,,,,,,,,,,,,13,,51,0
33479,note_on,,59,0,14,,,,,,,,,,,,,,,,12,,57,0
33480,note_on,,0,0,16,,,,,,,,,,,,,,,,15,,64,72
33480,note_on,,0,0,16,,,,,,,,,,,,,,,,15,,71,72
33480,note_on,,1,0,16,,,,,,,,,,,,,,,,15,,52,72
33480,note_on,,1,0,13,,,,,,,,,,,,,,,,11,,59,72
33480,note_on,,1,0,15,,,,,,,,,,,,,,,,13,,52,72
33480,note_on,,1,0,5,,,,,,,,,,,,,,,,0,,71,72
33480,note_on,,0,0,16,,,,,,,,,,,,,,,,15,,59,72
33480,note_on,,1,0,9,,,,,,,,,,,,,,,,6,,59,88
33480,note_on,,1,0,6,,,,,,,,,,,,,,,,1,,71,72
33480,note_on,,1,0,7,,,,,,,,,,,,,,,,2,,52,72
33480,note_on,,1,0,12,,,,,,,,,,,,,,,,10,,71,72
33480,note_on,,1,0,14,,,,,,,,,,,,,,,,12,,56,72
33480,note_on,,1,0,11,,,,,,,,,,,,,,,,8,,52,88
33480,note_on,,1,0,8,,,,,,,,,,,,,,,,5,,71,88
33480,note_on,,1,0,10,,,,,,,,,,,,,,,,7,,56,88
33480,note_on,,0,0,16,,,,,,,,,,,,,,,,15,,56,72
33599,note_on,,119,0,15,,,,,,,,,,,,,,,,13,,52,0
33599,note_on,,119,0,9,,,,,,,,,,,,,,,,6,,59,0
33599,note_on,,0,0,16,,,,,,,,,,,,,,,,15,,59,0
33599,note_on,,0,0,16,,,,,,,,,,,,,,,,15,,56,0
33599,note_on,,119,0,11,,,,,,,,,,,,,,,,8,,52,0
33599,note_on,,119,0,14,,,,,,,,,,,,,,,,12,,56,0
33599,note_on,,119,0,13,,,,,,,,,,,,,,,,11,,59,0
33599,note_on,,119,0,7,,,,,,,,,,,,,,,,2,,52,0
33599,note_on,,119,0,10,,,,,,,,,,,,,,,,7,,56,0
33599,note_on,,119,0,16,,,,,,,,,,,,,,,,15,,52,0
33600,note_on,,1,0,14,,,,,,,,,,,,,,,,12,,56,72
33600,note_on,,1,0,9,,,,,,,,,,,,,,,,6,,59,88
33600,note_on,,1,0,15,,,,,,,,,,,,,,,,13,,56,72
33600,note_on,,1,0,10,,,,,,,,,,,,,,,,7,,56,88
33600,note_on,,1,0,13,,,,,,,,,,,,,,,,11,,59,72
33600,note_on,,1,0,7,,,,,,,,,,,,,,,,2,,56,72
33600,note_on,,0,0,16,,,,,,,,,,,,,,,,15,,59,72
33600,note_on,,1,0,16,,,,,,,,,,,,,,,,15,,56,72
33600,note_on,,1,0,11,,,,,,,,,,,,,,,,8,,52,88
33719,note_on,,119,0,15,,,,,,,,,,,,,,,,13,,56,0
33719,note_on,,119,0,14,,,,,,,,,,,,,,,,12,,56,0
33719,note_on,,119,0,13,,,,,,,,,,,,,,,,11,,59,0
33719,note_on,,119,0,10,,,,,,,,,,,,,,,,7,,56,0
33719,note_on,,119,0,7,,,,,,,,,,,,,,,,2,,56,0
33719,note_on,,119,0,9,,,,,,,,,,,,,,,,6,,59,0
33719,note_on,,119,0,11,,,,,,,,,,,,,,,,8,,52,0
33719,note_on,,119,0,16,,,,,,,,,,,,,,,,15,,56,0
33719,note_on,,0,0,16,,,,,,,,,,,,,,,,15,,59,0
33720,note_on,,1,0,10,,,,,,,,,,,,,,,,7,,52,88
33720,note_on,,1,0,15,,,,,,,,,,,,,,,,13,,52,72
33720,note_on,,1,0,7,,,,,,,,,,,,,,,,2,,52,72
33720,note_on,,1,0,14,,,,,,,,,,,,,,,,12,,52,72
33720,note_on,,1,0,16,,,,,,,,,,,,,,,,15,,52,72
33720,note_on,,0,0,16,,,,,,,,,,,,,,,,15,,56,72
33839,note_on,,0,0,16,,,,,,,,,,,,,,,,15,,52,0
33839,note_on,,0,0,16,,,,,,,,,,,,,,,,15,,64,0
33839,note_on,,359,0,6,,,,,,,,,,,,,,,,1,,71,0
33839,note_on,,0,0,16,,,,,,,,,,,,,,,,15,,56,0
33839,note_on,,119,0,14,,,,,,,,,,,,,,,,12,,52,0
33839,note_on,,119,0,7,,,,,,,,,,,,,,,,2,,52,0
33839,note_on,,119,0,15,,,,,,,,,,,,,,,,13,,52,0
33839,note_on,,119,0,16,,,,,,,,,,,,,,,,15,,71,0
33839,note_on,,359,0,5,,,,,,,,,,,,,,,,0,,71,0
33839,note_on,,119,0,10,,,,,,,,,,,,,,,,7,,52,0
33839,note_on,,359,0,8,,,,,,,,,,,,,,,,5,,71,0
33840,note_on,,1,0,7,,,,,,,,,,,,,,,,2,,59,72
33840,note_on,,1,0,8,,,,,,,,,,,,,,,,5,,71,88
33840,note_on,,1,0,14,,,,,,,,,,,,,,,,12,,59,72
33840,note_on,,1,0,10,,,,,,,,,,,,,,,,7,,59,88
33840,note_on,,0,0,16,,,,,,,,,,,,,,,,15,,63,72
33840,note_on,,1,0,15,,,,,,,,,,,,,,,,13,,59,72
33840,note_on,,1,0,6,,,,,,,,,,,,,,,,1,,71,72
33840,note_on,,1,0,16,,,,,,,,,,,,,,,,15,,59,72
33840,note_on,,0,0,16,,,,,,,,,,,,,,,,15,,66,72
33840,note_on,,1,0,5,,,,,,,,,,,,,,,,0,,71,72
33960,note_on,,241,0,13,,,,,,,,,,,,,,,,11,,71,72
34019,note_on,,179,0,15,,,,,,,,,,,,,,,,13,,59,0
34019,note_on,,179,0,10,,,,,,,,,,,,,,,,7,,59,0
34019,note_on,,179,0,16,,,,,,,,,,,,,,,,15,,59,0
34019,note_on,,179,0,14,,,,,,,,,,,,,,,,12,,59,0
34019,note_on,,179,0,7,,,,,,,,,,,,,,,,2,,59,0
34020,note_on,,1,0,7,,,,,,,,,,,,,,,,2,,57,72
34020,note_on,,1,0,10,,,,,,,,,,,,,,,,7,,57,88
34020,note_on,,1,0,16,,,,,,,,,,,,,,,,15,,57,72
34020,note_on,,1,0,15,,,,,,,,,,,,,,,,13,,57,72
34020,note_on,,1,0,14,,,,,,,,,,,,,,,,12,,57,72
34079,note_on,,59,0,7,,,,,,,,,,,,,,,,2,,57,0
34079,note_on,,59,0,10,,,,,,,,,,,,,,,,7,,57,0
34079,note_on,,59,0,15,,,,,,,,,,,,,,,,13,,57,0
34079,note_on,,59,0,14,,,,,,,,,,,,,,,,12,,57,0
34079,note_on,,119,0,13,,,,,,,,,,,,,,,,11,,71,0
34079,note_on,,239,0,8,,,,,,,,,,,,,,,,5,,71,0
34079,note_on,,0,0,16,,,,,,,,,,,,,,,,15,,57,0
34079,note_on,,239,0,6,,,,,,,,,,,,,,,,1,,71,0
34079,note_on,,239,0,5,,,,,,,,,,,,,,,,0,,71,0
34079,note_on,,59,0,16,,,,,,,,,,,,,,,,15,,66,0
34079,note_on,,0,0,16,,,,,,,,,,,,,,,,15,,63,0
34080,note_on,,1,0,15,,,,,,,,,,,,,,,,13,,56,72
34080,note_on,,1,0,8,,,,,,,,,,,,,,,,5,,71,88
34080,note_on,,1,0,5,,,,,,,,,,,,,,,,0,,71,72
34080,note_on,,0,0,16,,,,,,,,,,,,,,,,15,,59,72
34080,note_on,,0,0,16,,,,,,,,,,,,,,,,15,,64,72
34080,note_on,,1,0,10,,,,,,,,,,,,,,,,7,,56,88
34080,note_on,,0,0,16,,,,,,,,,,,,,,,,15,,71,72
34080,note_on,,1,0,16,,,,,,,,,,,,,,,,15,,56,72
34080,note_on,,1,0,7,,,,,,,,,,,,,,,,2,,56,72
34080,note_on,,1,0,13,,,,,,,,,,,,,,,,11,,71,72
34080,note_on,,1,0,6,,,,,,,,,,,,,,,,1,,71,72
34080,note_on,,1,0,14,,,,,,,,,,,,,,,,12,,56,72
34199,note_on,,119,0,6,,,,,,,,,,,,,,,,1,,71,0
34199,note_on,,119,0,16,,,,,,,,,,,,,,,,15,,56,0
34199,note_on,,119,0,14,,,,,,,,,,,,,,,,12,,56,0
34199,note_on,,119,0,7,,,,,,,,,,,,,,,,2,,56,0
34199,note_on,,119,0,8,,,,,,,,,,,,,,,,5,,71,0
34199,note_on,,119,0,13,,,,,,,,,,,,,,,,11,,71,0
34199,note_on,,119,0,10,,,,,,,,,,,,,,,,7,,56,0
34199,note_on,,119,0,15,,,,,,,,,,,,,,,,13,,56,0
34199,note_on,,0,0,16,,,,,,,,,,,,,,,,15,,59,0
34199,note_on,,119,0,5,,,,,,,,,,,,,,,,0,,71,0
34200,note_on,,1,0,8,,,,,,,,,,,,,,,,5,,71,88
34200,note_on,,1,0,15,,,,,,,,,,,,,,,,13,,61,72
34200,note_on,,1,0,5,,,,,,,,,,,,,,,,0,,71,72
34200,note_on,,1,0,7,,,,,,,,,,,,,,,,2,,61,72
34200,note_on,,1,0,16,,,,,,,,,,,,,,,,15,,61,72
34200,note_on,,1,0,13,,,,,,,,,,,,,,,,11,,71,72
34200,note_on,,1,0,14,,,,,,,,,,,,,,,,12,,61,72
34200,note_on,,1,0,10,,,,,,,,,,,,,,,,7,,61,88
34200,note_on,,1,0,6,,,,,,,,,,,,,,,,1,,71,72
34319,note_on,,119,0,14,,,,,,,,,,,,,,,,12,,61,0
34319,note_on,,119,0,7,,,,,,,,,,,,,,,,2,,61,0
34319,note_on,,0,0,16,,,,,,,,,,,,,,,,15,,64,0
34319,note_on,,119,0,16,,,,,,,,,,,,,,,,15,,71,0
34319,note_on,,119,0,15,,,,,,,,,,,,,,,,13,,61,0
34319,note_on,,839,0,12,,,,,,,,,,,,,,,,10,,71,0
34319,note_on,,0,0,16,,,,,,,,,,,,,,,,15,,61,0
34319,note_on,,119,0,10,,,,,,,,,,,,,,,,7,,61,0
34320,note_on,,0,0,16,,,,,,,,,,,,,,,,15,,78,72
34320,note_on,,0,0,16,,,,,,,,,,,,,,,,15,,71,72
34320,note_on,,1,0,7,,,,,,,,,,,,,,,,2,,63,72
34320,note_on,,0,0,16,,,,,,,,,,,,,,,,15,,66,72
34320,note_on,,1,0,10,,,,,,,,,,,,,,,,7,,63,88
34320,note_on,,0,0,16,,,,,,,,,,,,,,,,15,,69,72
34320,note_on,,1,0,16,,,,,,,,,,,,,,,,15,,63,72
34320,note_on,,1,0,12,,,,,,,,,,,,,,,,10,,83,72
34320,note_on,,1,0,15,,,,,,,,,,,,,,,,13,,63,72
34320,note_on,,1,0,14,,,,,,,,,,,,,,,,12,,63,72
34320,note_on,,601,0,9,,,,,,,,,,,,,,,,6,,71,88
34439,note_on,,239,0,13,,,,,,,,,,,,,,,,11,,71,0
34439,note_on,,239,0,5,,,,,,,,,,,,,,,,0,,71,0
34439,note_on,,239,0,8,,,,,,,,,,,,,,,,5,,71,0
34439,note_on,,239,0,6,,,,,,,,,,,,,,,,1,,71,0
34439,note_on,,119,0,9,,,,,,,,,,,,,,,,6,,71,0
34439,note_on,,119,0,12,,,,,,,,,,,,,,,,10,,83,0
34440,note_on,,1,0,5,,,,,,,,,,,,,,,,0,,69,72
34440,note_on,,1,0,8,,,,,,,,,,,,,,,,5,,69,88
34440,note_on,,1,0,12,,,,,,,,,,,,,,,,10,,83,72
34440,note_on,,1,0,6,,,,,,,,,,,,,,,,1,,69,72
34440,note_on,,1,0,9,,,,,,,,,,,,,,,,6,,71,88
34440,note_on,,1,0,13,,,,,,,,,,,,,,,,11,,69,72
34499,note_on,,0,0,16,,,,,,,,,,,,,,,,15,,66,0
34499,note_on,,179,0,14,,,,,,,,,,,,,,,,12,,63,0
34499,note_on,,179,0,10,,,,,,,,,,,,,,,,7,,63,0
34499,note_on,,179,0,7,,,,,,,,,,,,,,,,2,,63,0
34499,note_on,,179,0,15,,,,,,,,,,,,,,,,13,,63,0
34499,note_on,,179,0,16,,,,,,,,,,,,,,,,15,,63,0
34500,note_on,,1,0,14,,,,,,,,,,,,,,,,12,,63,72
34500,note_on,,1,0,16,,,,,,,,,,,,,,,,15,,63,72
34500,note_on,,1,0,7,,,,,,,,,,,,,,,,2,,63,72
34500,note_on,,0,0,16,,,,,,,,,,,,,,,,15,,66,72
34500,note_on,,1,0,10,,,,,,,,,,,,,,,,7,,63,88
34500,note_on,,1,0,15,,,,,,,,,,,,,,,,13,,63,72
34559,note_on,,59,0,14,,,,,,,,,,,,,,,,12,,63,0
34559,note_on,,119,0,6,,,,,,,,,,,,,,,,1,,69,0
34559,note_on,,119,0,13,,,,,,,,,,,,,,,,11,,69,0
34559,note_on,,59,0,10,,,,,,,,,,,,,,,,7,,63,0
34559,note_on,,0,0,16,,,,,,,,,,,,,,,,15,,66,0
34559,note_on,,0,0,16,,,,,,,,,,,,,,,,15,,63,0
34559,note_on,,59,0,16,,,,,,,,,,,,,,,,15,,78,0
34559,note_on,,59,0,15,,,,,,,,,,,,,,,,13,,63,0
34559,note_on,,119,0,5,,,,,,,,,,,,,,,,0,,69,0
34559,note_on,,0,0,16,,,,,,,,,,,,,,,,15,,71,0
34559,note_on,,119,0,9,,,,,,,,,,,,,,,,6,,71,0
34559,note_on,,119,0,12,,,,,,,,,,,,,,,,10,,83,0
34559,note_on,,119,0,8,,,,,,,,,,,,,,,,5,,69,0
34559,note_on,,59,0,7,,,,,,,,,,,,,,,,2,,63,0
34559,note_on,,0,0,16,,,,,,,,,,,,,,,,15,,69,0
34560,note_on,,1,0,7,,,,,,,,,,,,,,,,2,,64,72
34560,note_on,,0,0,16,,,,,,,,,,,,,,,,15,,68,72
34560,note_on,,1,0,13,,,,,,,,,,,,,,,,11,,68,72
34560,note_on,,1,0,14,,,,,,,,,,,,,,,,12,,64,72
34560,note_on,,0,0,16,,,,,,,,,,,,,,,,15,,71,72
34560,note_on,,1,0,16,,,,,,,,,,,,,,,,15,,64,72
34560,note_on,,1,0,10,,,,,,,,,,,,,,,,7,,64,88
34560,note_on,,1,0,5,,,,,,,,,,,,,,,,0,,68,72
34560,note_on,,1,0,8,,,,,,,,,,,,,,,,5,,68,88
34560,note_on,,1,0,12,,,,,,,,,,,,,,,,10,,83,72
34560,note_on,,1,0,15,,,,,,,,,,,,,,,,13,,64,72
34560,note_on,,1,0,9,,,,,,,,,,,,,,,,6,,71,88
34560,note_on,,1,0,6,,,,,,,,,,,,,,,,1,,68,72
34679,note_on,,0,0,16,,,,,,,,,,,,,,,,15,,68,0
34679,note_on,,0,0,16,,,,,,,,,,,,,,,,15,,71,0
34679,note_on,,119,0,16,,,,,,,,,,,,,,,,15,,64,0
34679,note_on,,119,0,7,,,,,,,,,,,,,,,,2,,64,0
34679,note_on,,119,0,15,,,,,,,,,,,,,,,,13,,64,0
34680,note_on,,1,0,15,,,,,,,,,,,,,,,,13,,44,72
34680,note_on,,961,0,11,,,,,,,,,,,,,,,,8,,56,88
34680,note_on,,0,0,16,,,,,,,,,,,,,,,,15,,59,72
34680,note_on,,0,0,16,,,,,,,,,,,,,,,,15,,64,72
34680,note_on,,1,0,16,,,,,,,,,,,,,,,,15,,44,72
34680,note_on,,1,0,7,,,,,,,,,,,,,,,,2,,44,72
34680,note_on,,0,0,16,,,,,,,,,,,,,,,,15,,52,72
34799,note_on,,119,0,15,,,,,,,,,,,,,,,,13,,44,0
34799,note_on,,239,0,10,,,,,,,,,,,,,,,,7,,64,0
34799,note_on,,239,0,8,,,,,,,,,,,,,,,,5,,68,0
34799,note_on,,119,0,7,,,,,,,,,,,,,,,,2,,44,0
34799,note_on,,239,0,14,,,,,,,,,,,,,,,,12,,64,0
34799,note_on,,239,0,13,,,,,,,,,,,,,,,,11,,68,0
34799,note_on,,119,0,16,,,,,,,,,,,,,,,,15,,44,0
34799,note_on,,0,0,16,,,,,,,,,,,,,,,,15,,64,0
34799,note_on,,0,0,16,,,,,,,,,,,,,,,,15,,59,0
34799,note_on,,119,0,11,,,,,,,,,,,,,,,,8,,56,0
34799,note_on,,239,0,5,,,,,,,,,,,,,,,,0,,68,0
34799,note_on,,239,0,6,,,,,,,,,,,,,,,,1,,68,0
34800,note_on,,1,0,14,,,,,,,,,,,,,,,,12,,64,72
34800,note_on,,1,0,6,,,,,,,,,,,,,,,,1,,68,72
34800,note_on,,1,0,11,,,,,,,,,,,,,,,,8,,52,88
34800,note_on,,1,0,5,,,,,,,,,,,,,,,,0,,68,72
34800,note_on,,1,0,8,,,,,,,,,,,,,,,,5,,68,88
34800,note_on,,1,0,15,,,,,,,,,,,,,,,,13,,40,72
34800,note_on,,0,0,16,,,,,,,,,,,,,,,,15,,68,72
34800,note_on,,0,0,16,,,,,,,,,,,,,,,,15,,64,72
34800,note_on,,0,0,16,,,,,,,,,,,,,,,,15,,59,72
34800,note_on,,1,0,10,,,,,,,,,,,,,,,,7,,64,88
34800,note_on,,1,0,16,,,,,,,,,,,,,,,,15,,40,72
34800,note_on,,1,0,13,,,,,,,,,,,,,,,,11,,68,72
34800,note_on,,1,0,7,,,,,,,,,,,,,,,,2,,40,72
34919,note_on,,359,0,9,,,,,,,,,,,,,,,,6,,71,0
34919,note_on,,119,0,16,,,,,,,,,,,,,,,,15,,52,0
34919,note_on,,119,0,6,,,,,,,,,,,,,,,,1,,68,0
34919,note_on,,0,0,16,,,,,,,,,,,,,,,,15,,40,0
34919,note_on,,0,0,16,,,,,,,,,,,,,,,,15,,68,0
34919,note_on,,119,0,13,,,,,,,,,,,,,,,,11,,68,0
34919,note_on,,0,0,16,,,,,,,,,,,,,,,,15,,64,0
34919,note_on,,0,0,16,,,,,,,,,,,,,,,,15,,59,0
34919,note_on,,119,0,14,,,,,,,,,,,,,,,,12,,64,0
34919,note_on,,119,0,7,,,,,,,,,,,,,,,,2,,40,0
34919,note_on,,119,0,5,,,,,,,,,,,,,,,,0,,68,0
34919,note_on,,119,0,11,,,,,,,,,,,,,,,,8,,52,0
34919,note_on,,119,0,8,,,,,,,,,,,,,,,,5,,68,0
34919,note_on,,119,0,15,,,,,,,,,,,,,,,,13,,40,0
34919,note_on,,119,0,10,,,,,,,,,,,,,,,,7,,64,0
34920,note_on,,0,0,16,,,,,,,,,,,,,,,,15,,59,72
34920,note_on,,1,0,5,,,,,,,,,,,,,,,,0,,69,72
34920,note_on,,1,0,6,,,,,,,,,,,,,,,,1,,69,72
34920,note_on,,1,0,9,,,,,,,,,,,,,,,,6,,71,88
34920,note_on,,1,0,15,,,,,,,,,,,,,,,,13,,47,72
34920,note_on,,1,0,11,,,,,,,,,,,,,,,,8,,47,88
34920,note_on,,0,0,16,,,,,,,,,,,,,,,,15,,63,72
34920,note_on,,0,0,16,,,,,,,,,,,,,,,,15,,66,72
34920,note_on,,1,0,16,,,,,,,,,,,,,,,,15,,47,72
34920,note_on,,0,0,16,,,,,,,,,,,,,,,,15,,54,72
34920,note_on,,1,0,7,,,,,,,,,,,,,,,,2,,47,72
34920,note_on,,1,0,10,,,,,,,,,,,,,,,,7,,63,88
34920,note_on,,1,0,8,,,,,,,,,,,,,,,,5,,69,88
34920,note_on,,1,0,14,,,,,,,,,,,,,,,,12,,63,72
34920,note_on,,1,0,13,,,,,,,,,,,,,,,,11,,66,72
35099,note_on,,179,0,10,,,,,,,,,,,,,,,,7,,63,0
35099,note_on,,179,0,15,,,,,,,,,,,,,,,,13,,47,0
35099,note_on,,179,0,16,,,,,,,,,,,,,,,,15,,47,0
35099,note_on,,179,0,11,,,,,,,,,,,,,,,,8,,47,0
35099,note_on,,179,0,7,,,,,,,,,,,,,,,,2,,47,0
35099,note_on,,179,0,14,,,,,,,,,,,,,,,,12,,63,0
35100,note_on,,1,0,14,,,,,,,,,,,,,,,,12,,66,72
35100,note_on,,1,0,15,,,,,,,,,,,,,,,,13,,45,72
35100,note_on,,1,0,11,,,,,,,,,,,,,,,,8,,45,88
35100,note_on,,1,0,7,,,,,,,,,,,,,,,,2,,45,72
35100,note_on,,1,0,10,,,,,,,,,,,,,,,,7,,66,88
35100,note_on,,1,0,16,,,,,,,,,,,,,,,,15,,45,72
35159,note_on,,239,0,13,,,,,,,,,,,,,,,,11,,66,0
35159,note_on,,599,0,12,,,,,,,,,,,,,,,,10,,83,0
35159,note_on,,59,0,11,,,,,,,,,,,,,,,,8,,45,0
35159,note_on,,59,0,10,,,,,,,,,,,,,,,,7,,66,0
35159,note_on,,59,0,16,,,,,,,,,,,,,,,,15,,66,0
35159,note_on,,0,0,16,,,,,,,,,,,,,,,,15,,45,0
35159,note_on,,239,0,8,,,,,,,,,,,,,,,,5,,69,0
35159,note_on,,239,0,6,,,,,,,,,,,,,,,,1,,69,0
35159,note_on,,0,0,16,,,,,,,,,,,,,,,,15,,54,0
35159,note_on,,239,0,9,,,,,,,,,,,,,,,,6,,71,0
35159,note_on,,0,0,16,,,,,,,,,,,,,,,,15,,59,0
35159,note_on,,239,0,5,,,,,,,,,,,,,,,,0,,69,0
35159,note_on,,59,0,14,,,,,,,,,,,,,,,,12,,66,0
35159,note_on,,0,0,16,,,,,,,,,,,,,,,,15,,63,0
35159,note_on,,59,0,15,,,,,,,,,,,,,,,,13,,45,0
35159,note_on,,59,0,7,,,,,,,,,,,,,,,,2,,45,0
35160,note_on,,1,0,16,,,,,,,,,,,,,,,,15,,44,72
35160,note_on,,0,0,16,,,,,,,,,,,,,,,,15,,68,72
35160,note_on,,0,0,16,,,,,,,,,,,,,,,,15,,59,72
35160,note_on,,0,0,16,,,,,,,,,,,,,,,,15,,64,72
35160,note_on,,0,0,16,,,,,,,,,,,,,,,,15,,52,72
35160,note_on,,1,0,10,,,,,,,,,,,,,,,,7,,64,88
35160,note_on,,1,0,11,,,,,,,,,,,,,,,,8,,44,88
35160,note_on,,1,0,9,,,,,,,,,,,,,,,,6,,71,88
35160,note_on,,1,0,15,,,,,,,,,,,,,,,,13,,44,72
35160,note_on,,1,0,12,,,,,,,,,,,,,,,,10,,83,72
35160,note_on,,1,0,7,,,,,,,,,,,,,,,,2,,44,72
35160,note_on,,1,0,14,,,,,,,,,,,,,,,,12,,64,72
35219,note_on,,59,0,10,,,,,,,,,,,,,,,,7,,64,0
35219,note_on,,59,0,14,,,,,,,,,,,,,,,,12,,64,0
35220,note_on,,1,0,14,,,,,,,,,,,,,,,,12,,63,72
35220,note_on,,1,0,10,,,,,,,,,,,,,,,,7,,63,88
35279,note_on,,0,0,16,,,,,,,,,,,,,,,,15,,52,0
35279,note_on,,119,0,15,,,,,,,,,,,,,,,,13,,44,0
35279,note_on,,119,0,16,,,,,,,,,,,,,,,,15,,44,0
35279,note_on,,0,0,16,,,,,,,,,,,,,,,,15,,68,0
35279,note_on,,119,0,9,,,,,,,,,,,,,,,,6,,71,0
35279,note_on,,119,0,11,,,,,,,,,,,,,,,,8,,44,0
35279,note_on,,59,0,14,,,,,,,,,,,,,,,,12,,63,0
35279,note_on,,119,0,7,,,,,,,,,,,,,,,,2,,44,0
35279,note_on,,0,0,16,,,,,,,,,,,,,,,,15,,64,0
35279,note_on,,59,0,10,,,,,,,,,,,,,,,,7,,63,0
35280,note_on,,1,0,14,,,,,,,,,,,,,,,,12,,61,72
35280,note_on,,1,0,11,,,,,,,,,,,,,,,,8,,49,88
35280,note_on,,0,0,16,,,,,,,,,,,,,,,,15,,52,72
35280,note_on,,1,0,9,,,,,,,,,,,,,,,,6,,71,88
35280,note_on,,1,0,7,,,,,,,,,,,,,,,,2,,49,72
35280,note_on,,1,0,10,,,,,,,,,,,,,,,,7,,61,88
35280,note_on,,1,0,16,,,,,,,,,,,,,,,,15,,49,72
35280,note_on,,1,0,15,,,,,,,,,,,,,,,,13,,49,72
35280,note_on,,0,0,16,,,,,,,,,,,,,,,,15,,64,72
35399,note_on,,119,0,7,,,,,,,,,,,,,,,,2,,49,0
35399,note_on,,119,0,9,,,,,,,,,,,,,,,,6,,71,0
35399,note_on,,0,0,16,,,,,,,,,,,,,,,,15,,49,0
35399,note_on,,119,0,16,,,,,,,,,,,,,,,,15,,59,0
35399,note_on,,0,0,16,,,,,,,,,,,,,,,,15,,52,0
35399,note_on,,119,0,11,,,,,,,,,,,,,,,,8,,49,0
35399,note_on,,239,0,12,,,,,,,,,,,,,,,,10,,83,0
35399,note_on,,119,0,15,,,,,,,,,,,,,,,,13,,49,0
35400,note_on,,0,0,16,,,,,,,,,,,,,,,,15,,52,72
35400,note_on,,1,0,12,,,,,,,,,,,,,,,,10,,81,72
35400,note_on,,1,0,9,,,,,,,,,,,,,,,,6,,69,88
35400,note_on,,241,0,8,,,,,,,,,,,,,,,,5,,76,88
35400,note_on,,1,0,7,,,,,,,,,,,,,,,,2,,49,72
35400,note_on,,1,0,15,,,,,,,,,,,,,,,,13,,49,72
35400,note_on,,1,0,11,,,,,,,,,,,,,,,,8,,49,88
35400,note_on,,241,0,6,,,,,,,,,,,,,,,,1,,76,72
35400,note_on,,241,0,13,,,,,,,,,,,,,,,,11,,76,72
35400,note_on,,241,0,5,,,,,,,,,,,,,,,,0,,76,72
35400,note_on,,1,0,16,,,,,,,,,,,,,,,,15,,49,72
35400,note_on,,0,0,16,,,,,,,,,,,,,,,,15,,57,72
35459,note_on,,59,0,16,,,,,,,,,,,,,,,,15,,57,0
35459,note_on,,179,0,10,,,,,,,,,,,,,,,,7,,61,0
35459,note_on,,179,0,14,,,,,,,,,,,,,,,,12,,61,0
35460,note_on,,1,0,16,,,,,,,,,,,,,,,,15,,56,72
35460,note_on,,1,0,14,,,,,,,,,,,,,,,,12,,64,72
35460,note_on,,1,0,10,,,,,,,,,,,,,,,,7,,64,88
35519,note_on,,119,0,5,,,,,,,,,,,,,,,,0,,76,0
35519,note_on,,119,0,11,,,,,,,,,,,,,,,,8,,49,0
35519,note_on,,119,0,15,,,,,,,,,,,,,,,,13,,49,0
35519,note_on,,119,0,8,,,,,,,,,,,,,,,,5,,76,0
35519,note_on,,59,0,16,,,,,,,,,,,,,,,,15,,64,0
35519,note_on,,119,0,7,,,,,,,,,,,,,,,,2,,49,0
35519,note_on,,59,0,14,,,,,,,,,,,,,,,,12,,64,0
35519,note_on,,0,0,16,,,,,,,,,,,,,,,,15,,49,0
35519,note_on,,119,0,13,,,,,,,,,,,,,,,,11,,76,0
35519,note_on,,0,0,16,,,,,,,,,,,,,,,,15,,56,0
35519,note_on,,119,0,6,,,,,,,,,,,,,,,,1,,76,0
35519,note_on,,59,0,10,,,,,,,,,,,,,,,,7,,64,0
35519,note_on,,0,0,16,,,,,,,,,,,,,,,,15,,52,0
35520,note_on,,0,0,16,,,,,,,,,,,,,,,,15,,54,72
35520,note_on,,1,0,16,,,,,,,,,,,,,,,,15,,51,72
35520,note_on,,0,0,16,,,,,,,,,,,,,,,,15,,71,72
35520,note_on,,1,0,8,,,,,,,,,,,,,,,,5,,78,88
35520,note_on,,0,0,16,,,,,,,,,,,,,,,,15,,66,72
35520,note_on,,1,0,15,,,,,,,,,,,,,,,,13,,51,72
35520,note_on,,1,0,5,,,,,,,,,,,,,,,,0,,78,72
35520,note_on,,1,0,11,,,,,,,,,,,,,,,,8,,51,88
35520,note_on,,1,0,10,,,,,,,,,,,,,,,,7,,63,88
35520,note_on,,1,0,7,,,,,,,,,,,,,,,,2,,51,72
35520,note_on,,1,0,13,,,,,,,,,,,,,,,,11,,78,72
35520,note_on,,1,0,14,,,,,,,,,,,,,,,,12,,63,72
35520,note_on,,0,0,16,,,,,,,,,,,,,,,,15,,59,72
35520,note_on,,1,0,6,,,,,,,,,,,,,,,,1,,78,72
35579,note_on,,59,0,10,,,,,,,,,,,,,,,,7,,63,0
35579,note_on,,59,0,14,,,,,,,,,,,,,,,,12,,63,0
35580,note_on,,1,0,10,,,,,,,,,,,,,,,,7,,61,88
35580,note_on,,1,0,14,,,,,,,,,,,,,,,,12,,61,72
35639,note_on,,119,0,13,,,,,,,,,,,,,,,,11,,78,0
35639,note_on,,119,0,8,,,,,,,,,,,,,,,,5,,78,0
35639,note_on,,59,0,14,,,,,,,,,,,,,,,,12,,61,0
35639,note_on,,119,0,15,,,,,,,,,,,,,,,,13,,51,0
35639,note_on,,59,0,10,,,,,,,,,,,,,,,,7,,61,0
35639,note_on,,119,0,5,,,,,,,,,,,,,,,,0,,78,0
35639,note_on,,119,0,7,,,,,,,,,,,,,,,,2,,51,0
35639,note_on,,119,0,16,,,,,,,,,,,,,,,,15,,51,0
35639,note_on,,0,0,16,,,,,,,,,,,,,,,,15,,54,0
35639,note_on,,0,0,16,,,,,,,,,,,,,,,,15,,71,0
35639,note_on,,0,0,16,,,,,,,,,,,,,,,,15,,66,0
35639,note_on,,0,0,16,,,,,,,,,,,,,,,,15,,59,0
35639,note_on,,119,0,11,,,,,,,,,,,,,,,,8,,51,0
35639,note_on,,119,0,6,,,,,,,,,,,,,,,,1,,78,0
35640,note_on,,0,0,16,,,,,,,,,,,,,,,,15,,59,72
35640,note_on,,1,0,13,,,,,,,,,,,,,,,,11,,71,72
35640,note_on,,1,0,8,,,,,,,,,,,,,,,,5,,71,88
35640,note_on,,1,0,10,,,,,,,,,,,,,,,,7,,59,88
35640,note_on,,0,0,16,,,,,,,,,,,,,,,,15,,64,72
35640,note_on,,0,0,16,,,,,,,,,,,,,,,,15,,71,72
35640,note_on,,1,0,16,,,,,,,,,,,,,,,,15,,52,72
35640,note_on,,1,0,6,,,,,,,,,,,,,,,,1,,71,72
35640,note_on,,1,0,11,,,,,,,,,,,,,,,,8,,52,88
35640,note_on,,1,0,7,,,,,,,,,,,,,,,,2,,52,72
35640,note_on,,1,0,14,,,,,,,,,,,,,,,,12,,59,72
35640,note_on,,1,0,5,,,,,,,,,,,,,,,,0,,71,72
35640,note_on,,0,0,16,,,,,,,,,,,,,,,,15,,56,72
35640,note_on,,1,0,15,,,,,,,,,,,,,,,,13,,52,72
35759,note_on,,119,0,14,,,,,,,,,,,,,,,,12,,59,0
35760,note_on,,1,0,14,,,,,,,,,,,,,,,,12,,71,72
35819,note_on,,179,0,15,,,,,,,,,,,,,,,,13,,52,0
35819,note_on,,179,0,16,,,,,,,,,,,,,,,,15,,52,0
35819,note_on,,0,0,16,,,,,,,,,,,,,,,,15,,56,0
35819,note_on,,179,0,11,,,,,,,,,,,,,,,,8,,52,0
35819,note_on,,179,0,7,,,,,,,,,,,,,,,,2,,52,0
35820,note_on,,1,0,7,,,,,,,,,,,,,,,,2,,54,72
35820,note_on,,1,0,15,,,,,,,,,,,,,,,,13,,54,72
35820,note_on,,0,0,16,,,,,,,,,,,,,,,,15,,57,72
35820,note_on,,1,0,11,,,,,,,,,,,,,,,,8,,54,88
35820,note_on,,1,0,16,,,,,,,,,,,,,,,,15,,54,72
35879,note_on,,0,0,16,,,,,,,,,,,,,,,,15,,57,0
35879,note_on,,239,0,5,,,,,,,,,,,,,,,,0,,71,0
35879,note_on,,59,0,11,,,,,,,,,,,,,,,,8,,54,0
35879,note_on,,479,0,9,,,,,,,,,,,,,,,,6,,69,0
35879,note_on,,119,0,14,,,,,,,,,,,,,,,,12,,71,0
35879,note_on,,479,0,12,,,,,,,,,,,,,,,,10,,81,0
35879,note_on,,239,0,8,,,,,,,,,,,,,,,,5,,71,0
35879,note_on,,239,0,6,,,,,,,,,,,,,,,,1,,71,0
35879,note_on,,239,0,13,,,,,,,,,,,,,,,,11,,71,0
35879,note_on,,0,0,16,,,,,,,,,,,,,,,,15,,64,0
35879,note_on,,59,0,16,,,,,,,,,,,,,,,,15,,71,0
35879,note_on,,59,0,15,,,,,,,,,,,,,,,,13,,54,0
35879,note_on,,59,0,7,,,,,,,,,,,,,,,,2,,54,0
35879,note_on,,0,0,16,,,,,,,,,,,,,,,,15,,54,0
35879,note_on,,0,0,16,,,,,,,,,,,,,,,,15,,59,0
35880,note_on,,1,0,5,,,,,,,,,,,,,,,,0,,76,72
35880,note_on,,1,0,15,,,,,,,,,,,,,,,,13,,56,72
35880,note_on,,1,0,9,,,,,,,,,,,,,,,,6,,68,88
35880,note_on,,1,0,6,,,,,,,,,,,,,,,,1,,76,72
35880,note_on,,1,0,13,,,,,,,,,,,,,,,,11,,76,72
35880,note_on,,1,0,11,,,,,,,,,,,,,,,,8,,56,88
35880,note_on,,1,0,16,,,,,,,,,,,,,,,,15,,56,72
35880,note_on,,0,0,16,,,,,,,,,,,,,,,,15,,64,72
35880,note_on,,1,0,14,,,,,,,,,,,,,,,,12,,71,72
35880,note_on,,1,0,8,,,,,,,,,,,,,,,,5,,76,88
35880,note_on,,1,0,7,,,,,,,,,,,,,,,,2,,56,72
35880,note_on,,0,0,16,,,,,,,,,,,,,,,,15,,59,72
35880,note_on,,1,0,12,,,,,,,,,,,,,,,,10,,80,72
35999,note_on,,0,0,16,,,,,,,,,,,,,,,,15,,64,0
35999,note_on,,119,0,7,,,,,,,,,,,,,,,,2,,56,0
35999,note_on,,119,0,16,,,,,,,,,,,,,,,,15,,56,0
35999,note_on,,119,0,14,,,,,,,,,,,,,,,,12,,71,0
35999,note_on,,119,0,15,,,,,,,,,,,,,,,,13,,56,0
35999,note_on,,119,0,11,,,,,,,,,,,,,,,,8,,56,0
35999,note_on,,119,0,9,,,,,,,,,,,,,,,,6,,68,0
35999,note_on,,359,0,10,,,,,,,,,,,,,,,,7,,59,0
35999,note_on,,0,0,16,,,,,,,,,,,,,,,,15,,59,0
35999,note_on,,119,0,12,,,,,,,,,,,,,,,,10,,80,0
36000,note_on,,1,0,10,,,,,,,,,,,,,,,,7,,61,88
36000,note_on,,0,0,16,,,,,,,,,,,,,,,,15,,69,72
36000,note_on,,1,0,16,,,,,,,,,,,,,,,,15,,57,72
36000,note_on,,0,0,16,,,,,,,,,,,,,,,,15,,64,72
36000,note_on,,1,0,12,,,,,,,,,,,,,,,,10,,78,72
36000,note_on,,1,0,7,,,,,,,,,,,,,,,,2,,57,72
36000,note_on,,1,0,14,,,,,,,,,,,,,,,,12,,73,72
36000,note_on,,0,0,16,,,,,,,,,,,,,,,,15,,61,72
36000,note_on,,1,0,9,,,,,,,,,,,,,,,,6,,66,88
36000,note_on,,1,0,11,,,,,,,,,,,,,,,,8,,57,88
36000,note_on,,1,0,15,,,,,,,,,,,,,,,,13,,57,72
36059,note_on,,179,0,6,,,,,,,,,,,,,,,,1,,76,0
36059,note_on,,179,0,13,,,,,,,,,,,,,,,,11,,76,0
36059,note_on,,179,0,8,,,,,,,,,,,,,,,,5,,76,0
36059,note_on,,179,0,5,,,,,,,,,,,,,,,,0,,76,0
36060,note_on,,1,0,6,,,,,,,,,,,,,,,,1,,78,72
36060,note_on,,1,0,8,,,,,,,,,,,,,,,,5,,78,88
36060,note_on,,1,0,5,,,,,,,,,,,,,,,,0,,78,72
36060,note_on,,1,0,13,,,,,,,,,,,,,,,,11,,78,72
36119,note_on,,119,0,9,,,,,,,,,,,,,,,,6,,66,0
36119,note_on,,119,0,15,,,,,,,,,,,,,,,,13,,57,0
36119,note_on,,119,0,12,,,,,,,,,,,,,,,,10,,78,0
36119,note_on,,119,0,10,,,,,,,,,,,,,,,,7,,61,0
36119,note_on,,119,0,14,,,,,,,,,,,,,,,,12,,73,0
36119,note_on,,59,0,13,,,,,,,,,,,,,,,,11,,78,0
36119,note_on,,0,0,16,,,,,,,,,,,,,,,,15,,61,0
36119,note_on,,59,0,6,,,,,,,,,,,,,,,,1,,78,0
36119,note_on,,59,0,5,,,,,,,,,,,,,,,,0,,78,0
36119,note_on,,59,0,8,,,,,,,,,,,,,,,,5,,78,0
36119,note_on,,0,0,16,,,,,,,,,,,,,,,,15,,64,0
36119,note_on,,0,0,16,,,,,,,,,,,,,,,,15,,69,0
36119,note_on,,119,0,7,,,,,,,,,,,,,,,,2,,57,0
36119,note_on,,119,0,11,,,,,,,,,,,,,,,,8,,57,0
36119,note_on,,119,0,16,,,,,,,,,,,,,,,,15,,57,0
36120,note_on,,1,0,11,,,,,,,,,,,,,,,,8,,59,88
36120,note_on,,1,0,5,,,,,,,,,,,,,,,,0,,75,72
36120,note_on,,1,0,13,,,,,,,,,,,,,,,,11,,75,72
36120,note_on,,1,0,8,,,,,,,,,,,,,,,,5,,75,88
36120,note_on,,1,0,9,,,,,,,,,,,,,,,,6,,66,88
36120,note_on,,1,0,14,,,,,,,,,,,,,,,,12,,71,72
36120,note_on,,0,0,16,,,,,,,,,,,,,,,,15,,63,72
36120,note_on,,1,0,7,,,,,,,,,,,,,,,,2,,59,72
36120,note_on,,1,0,15,,,,,,,,,,,,,,,,13,,59,72
36120,note_on,,1,0,12,,,,,,,,,,,,,,,,10,,78,72
36120,note_on,,1,0,16,,,,,,,,,,,,,,,,15,,59,72
36120,note_on,,0,0,16,,,,,,,,,,,,,,,,15,,66,72
36120,note_on,,1,0,10,,,,,,,,,,,,,,,,7,,59,88
36120,note_on,,1,0,6,,,,,,,,,,,,,,,,1,,75,72
36239,note_on,,119,0,16,,,,,,,,,,,,,,,,15,,59,0
36239,note_on,,119,0,14,,,,,,,,,,,,,,,,12,,71,0
36239,note_on,,119,0,7,,,,,,,,,,,,,,,,2,,59,0
36239,note_on,,119,0,15,,,,,,,,,,,,,,,,13,,59,0
36239,note_on,,119,0,11,,,,,,,,,,,,,,,,8,,59,0
36240,note_on,,1,0,16,,,,,,,,,,,,,,,,15,,47,72
36240,note_on,,1,0,11,,,,,,,,,,,,,,,,8,,47,88
36240,note_on,,0,0,16,,,,,,,,,,,,,,,,15,,59,72
36240,note_on,,1,0,15,,,,,,,,,,,,,,,,13,,47,72
36240,note_on,,1,0,14,,,,,,,,,,,,,,,,12,,71,72
36240,note_on,,1,0,7,,,,,,,,,,,,,,,,2,,47,72
36299,note_on,,179,0,8,,,,,,,,,,,,,,,,5,,75,0
36299,note_on,,179,0,13,,,,,,,,,,,,,,,,11,,75,0
36299,note_on,,179,0,9,,,,,,,,,,,,,,,,6,,66,0
36299,note_on,,179,0,6,,,,,,,,,,,,,,,,1,,75,0
36299,note_on,,179,0,12,,,,,,,,,,,,,,,,10,,78,0
36299,note_on,,179,0,5,,,,,,,,,,,,,,,,0,,75,0
36300,note_on,,1,0,8,,,,,,,,,,,,,,,,5,,75,88
36300,note_on,,1,0,5,,,,,,,,,,,,,,,,0,,75,72
36300,note_on,,1,0,13,,,,,,,,,,,,,,,,11,,75,72
36300,note_on,,1,0,9,,,,,,,,,,,,,,,,6,,66,88
36300,note_on,,1,0,6,,,,,,,,,,,,,,,,1,,75,72
36300,note_on,,1,0,12,,,,,,,,,,,,,,,,10,,78,72
36359,note_on,,0,0,16,,,,,,,,,,,,,,,,15,,47,0
36359,note_on,,0,0,16,,,,,,,,,,,,,,,,15,,59,0
36359,note_on,,119,0,16,,,,,,,,,,,,,,,,15,,66,0
36359,note_on,,119,0,7,,,,,,,,,,,,,,,,2,,47,0
36359,note_on,,59,0,13,,,,,,,,,,,,,,,,11,,75,0
36359,note_on,,119,0,11,,,,,,,,,,,,,,,,8,,47,0
36359,note_on,,59,0,6,,,,,,,,,,,,,,,,1,,75,0
36359,note_on,,239,0,10,,,,,,,,,,,,,,,,7,,59,0
36359,note_on,,0,0,16,,,,,,,,,,,,,,,,15,,63,0
36359,note_on,,59,0,12,,,,,,,,,,,,,,,,10,,78,0
36359,note_on,,119,0,14,,,,,,,,,,,,,,,,12,,71,0
36359,note_on,,59,0,9,,,,,,,,,,,,,,,,6,,66,0
36359,note_on,,119,0,15,,,,,,,,,,,,,,,,13,,47,0
36359,note_on,,59,0,8,,,,,,,,,,,,,,,,5,,75,0
36359,note_on,,59,0,5,,,,,,,,,,,,,,,,0,,75,0
36360,note_on,,1,0,13,,,,,,,,,,,,,,,,11,,76,72
36360,note_on,,1,0,16,,,,,,,,,,,,,,,,15,,52,72
36360,note_on,,0,0,16,,,,,,,,,,,,,,,,15,,68,72
36360,note_on,,0,0,16,,,,,,,,,,,,,,,,15,,64,72
36360,note_on,,0,0,16,,,,,,,,,,,,,,,,15,,59,72
36360,note_on,,1,0,9,,,,,,,,,,,,,,,,6,,68,88
36360,note_on,,1,0,15,,,,,,,,,,,,,,,,13,,52,72
36360,note_on,,1,0,10,,,,,,,,,,,,,,,,7,,59,88
36360,note_on,,1,0,14,,,,,,,,,,,,,,,,12,,71,72
36360,note_on,,1,0,6,,,,,,,,,,,,,,,,1,,76,72
36360,note_on,,1,0,11,,,,,,,,,,,,,,,,8,,52,88
36360,note_on,,1,0,12,,,,,,,,,,,,,,,,10,,80,72
36360,note_on,,1,0,7,,,,,,,,,,,,,,,,2,,52,72
36360,note_on,,1,0,8,,,,,,,,,,,,,,,,5,,76,88
36360,note_on,,1,0,5,,,,,,,,,,,,,,,,0,,76,72
36479,note_on,,119,0,7,,,,,,,,,,,,,,,,2,,52,0
36479,note_on,,0,0,16,,,,,,,,,,,,,,,,15,,68,0
36479,note_on,,119,0,13,,,,,,,,,,,,,,,,11,,76,0
36479,note_on,,119,0,12,,,,,,,,,,,,,,,,10,,80,0
36479,note_on,,0,0,16,,,,,,,,,,,,,,,,15,,64,0
36479,note_on,,119,0,9,,,,,,,,,,,,,,,,6,,68,0
36479,note_on,,119,0,14,,,,,,,,,,,,,,,,12,,71,0
36479,note_on,,119,0,10,,,,,,,,,,,,,,,,7,,59,0
36479,note_on,,119,0,16,,,,,,,,,,,,,,,,15,,52,0
36479,note_on,,0,0,16,,,,,,,,,,,,,,,,15,,59,0
36479,note_on,,119,0,15,,,,,,,,,,,,,,,,13,,52,0
36480,note_on,,1,0,9,,,,,,,,,,,,,,,,6,,64,88
36480,note_on,,0,0,16,,,,,,,,,,,,,,,,15,,64,72
36480,note_on,,0,0,16,,,,,,,,,,,,,,,,15,,69,72
36480,note_on,,1,0,15,,,,,,,,,,,,,,,,13,,49,72
36480,note_on,,0,0,16,,,,,,,,,,,,,,,,15,,57,72
36480,note_on,,1,0,12,,,,,,,,,,,,,,,,10,,76,72
36480,note_on,,1,0,13,,,,,,,,,,,,,,,,11,,64,72
36480,note_on,,1,0,7,,,,,,,,,,,,,,,,2,,49,72
36480,note_on,,1,0,16,,,,,,,,,,,,,,,,15,,49,72
36599,note_on,,119,0,9,,,,,,,,,,,,,,,,6,,64,0
36599,note_on,,239,0,11,,,,,,,,,,,,,,,,8,,52,0
36599,note_on,,239,0,8,,,,,,,,,,,,,,,,5,,76,0
36599,note_on,,119,0,13,,,,,,,,,,,,,,,,11,,64,0
36599,note_on,,119,0,15,,,,,,,,,,,,,,,,13,,49,0
36599,note_on,,119,0,12,,,,,,,,,,,,,,,,10,,76,0
36599,note_on,,239,0,5,,,,,,,,,,,,,,,,0,,76,0
36599,note_on,,239,0,6,,,,,,,,,,,,,,,,1,,76,0
36599,note_on,,119,0,7,,,,,,,,,,,,,,,,2,,49,0
36599,note_on,,0,0,16,,,,,,,,,,,,,,,,15,,64,0
36599,note_on,,0,0,16,,,,,,,,,,,,,,,,15,,69,0
36599,note_on,,119,0,16,,,,,,,,,,,,,,,,15,,49,0
36600,note_on,,0,0,16,,,,,,,,,,,,,,,,15,,69,72
36600,note_on,,1,0,13,,,,,,,,,,,,,,,,11,,61,72
36600,note_on,,1,0,15,,,,,,,,,,,,,,,,13,,45,72
36600,note_on,,1,0,12,,,,,,,,,,,,,,,,10,,81,72
36600,note_on,,1,0,16,,,,,,,,,,,,,,,,15,,45,72
36600,note_on,,1,0,7,,,,,,,,,,,,,,,,2,,45,72
36600,note_on,,0,0,16,,,,,,,,,,,,,,,,15,,73,72
36600,note_on,,1,0,9,,,,,,,,,,,,,,,,6,,69,88
36600,note_on,,0,0,16,,,,,,,,,,,,,,,,15,,64,72
36719,note_on,,0,0,16,,,,,,,,,,,,,,,,15,,64,0
36719,note_on,,0,0,16,,,,,,,,,,,,,,,,15,,69,0
36719,note_on,,119,0,13,,,,,,,,,,,,,,,,11,,61,0
36719,note_on,,0,0,16,,,,,,,,,,,,,,,,15,,73,0
36719,note_on,,119,0,12,,,,,,,,,,,,,,,,10,,81,0
36719,note_on,,119,0,16,,,,,,,,,,,,,,,,15,,57,0
36719,note_on,,119,0,7,,,,,,,,,,,,,,,,2,,45,0
36719,note_on,,119,0,15,,,,,,,,,,,,,,,,13,,45,0
36719,note_on,,0,0,16,,,,,,,,,,,,,,,,15,,45,0
36719,note_on,,119,0,9,,,,,,,,,,,,,,,,6,,69,0
36720,note_on,,1,0,12,,,,,,,,,,,,,,,,10,,80,72
36720,note_on,,1,0,15,,,,,,,,,,,,,,,,13,,52,72
36720,note_on,,1,0,16,,,,,,,,,,,,,,,,15,,52,72
36720,note_on,,0,0,16,,,,,,,,,,,,,,,,15,,59,72
36720,note_on,,0,0,16,,,,,,,,,,,,,,,,15,,71,72
36720,note_on,,1,0,9,,,,,,,,,,,,,,,,6,,68,88
36720,note_on,,0,0,16,,,,,,,,,,,,,,,,15,,64,72
36720,note_on,,0,0,16,,,,,,,,,,,,,,,,15,,68,72
36720,note_on,,1,0,13,,,,,,,,,,,,,,,,11,,59,72
36720,note_on,,1,0,7,,,,,,,,,,,,,,,,2,,52,72
36779,note_on,,59,0,9,,,,,,,,,,,,,,,,6,,68,0
36779,note_on,,59,0,12,,,,,,,,,,,,,,,,10,,80,0
36780,note_on,,1,0,9,,,,,,,,,,,,,,,,6,,66,88
36780,note_on,,1,0,12,,,,,,,,,,,,,,,,10,,78,72
36839,note_on,,119,0,7,,,,,,,,,,,,,,,,2,,52,0
36839,note_on,,119,0,13,,,,,,,,,,,,,,,,11,,59,0
36839,note_on,,59,0,12,,,,,,,,,,,,,,,,10,,78,0
36839,note_on,,0,0,16,,,,,,,,,,,,,,,,15,,68,0
36839,note_on,,119,0,16,,,,,,,,,,,,,,,,15,,52,0
36839,note_on,,119,0,15,,,,,,,,,,,,,,,,13,,52,0
36839,note_on,,59,0,9,,,,,,,,,,,,,,,,6,,66,0
36840,note_on,,1,0,9,,,,,,,,,,,,,,,,6,,64,88
36840,note_on,,1,0,16,,,,,,,,,,,,,,,,15,,56,72
36840,note_on,,1,0,15,,,,,,,,,,,,,,,,13,,56,72
36840,note_on,,1,0,12,,,,,,,,,,,,,,,,10,,76,72
36840,note_on,,361,0,14,,,,,,,,,,,,,,,,12,,71,72
36840,note_on,,361,0,10,,,,,,,,,,,,,,,,7,,59,88
36840,note_on,,1,0,7,,,,,,,,,,,,,,,,2,,56,72
36840,note_on,,1,0,13,,,,,,,,,,,,,,,,11,,71,72
36959,note_on,,0,0,16,,,,,,,,,,,,,,,,15,,64,0
36959,note_on,,0,0,16,,,,,,,,,,,,,,,,15,,71,0
36959,note_on,,119,0,16,,,,,,,,,,,,,,,,15,,59,0
36959,note_on,,119,0,7,,,,,,,,,,,,,,,,2,,56,0
36959,note_on,,119,0,15,,,,,,,,,,,,,,,,13,,56,0
36959,note_on,,0,0,16,,,,,,,,,,,,,,,,15,,56,0
36959,note_on,,119,0,12,,,,,,,,,,,,,,,,10,,76,0
36959,note_on,,119,0,9,,,,,,,,,,,,,,,,6,,64,0
36959,note_on,,119,0,13,,,,,,,,,,,,,,,,11,,71,0
36959,note_on,,119,0,10,,,,,,,,,,,,,,,,7,,59,0
36959,note_on,,119,0,14,,,,,,,,,,,,,,,,12,,71,0
36960,note_on,,1,0,15,,,,,,,,,,,,,,,,13,,52,72
36960,note_on,,1,0,13,,,,,,,,,,,,,,,,11,,76,72
36960,note_on,,1,0,7,,,,,,,,,,,,,,,,2,,52,72
36960,note_on,,1,0,10,,,,,,,,,,,,,,,,7,,64,88
36960,note_on,,1,0,14,,,,,,,,,,,,,,,,12,,68,72
36960,note_on,,0,0,16,,,,,,,,,,,,,,,,15,,59,72
36960,note_on,,0,0,16,,,,,,,,,,,,,,,,15,,68,72
36960,note_on,,1,0,16,,,,,,,,,,,,,,,,15,,52,72
37079,note_on,,119,0,13,,,,,,,,,,,,,,,,11,,76,0
37079,note_on,,119,0,7,,,,,,,,,,,,,,,,2,,52,0
37079,note_on,,0,0,16,,,,,,,,,,,,,,,,15,,59,0
37079,note_on,,0,0,16,,,,,,,,,,,,,,,,15,,68,0
37079,note_on,,119,0,16,,,,,,,,,,,,,,,,15,,52,0
37079,note_on,,119,0,10,,,,,,,,,,,,,,,,7,,64,0
37079,note_on,,119,0,15,,,,,,,,,,,,,,,,13,,52,0
37079,note_on,,119,0,14,,,,,,,,,,,,,,,,12,,68,0
37080,note_on,,1,0,10,,,,,,,,,,,,,,,,7,,61,88
37080,note_on,,0,0,16,,,,,,,,,,,,,,,,15,,69,72
37080,note_on,,1,0,13,,,,,,,,,,,,,,,,11,,73,72
37080,note_on,,1,0,14,,,,,,,,,,,,,,,,12,,64,72
37080,note_on,,0,0,16,,,,,,,,,,,,,,,,15,,64,72
37080,note_on,,1,0,15,,,,,,,,,,,,,,,,13,,57,72
37080,note_on,,0,0,16,,,,,,,,,,,,,,,,15,,73,72
37080,note_on,,1,0,7,,,,,,,,,,,,,,,,2,,57,72
37080,note_on,,1,0,16,,,,,,,,,,,,,,,,15,,57,72
37139,note_on,,59,0,10,,,,,,,,,,,,,,,,7,,61,0
37139,note_on,,59,0,13,,,,,,,,,,,,,,,,11,,73,0
37140,note_on,,1,0,10,,,,,,,,,,,,,,,,7,,59,88
37140,note_on,,1,0,13,,,,,,,,,,,,,,,,11,,71,72
37199,note_on,,59,0,10,,,,,,,,,,,,,,,,7,,59,0
37199,note_on,,119,0,7,,,,,,,,,,,,,,,,2,,57,0
37199,note_on,,119,0,15,,,,,,,,,,,,,,,,13,,57,0
37199,note_on,,59,0,13,,,,,,,,,,,,,,,,11,,71,0
37199,note_on,,0,0,16,,,,,,,,,,,,,,,,15,,64,0
37199,note_on,,0,0,16,,,,,,,,,,,,,,,,15,,69,0
37199,note_on,,0,0,16,,,,,,,,,,,,,,,,15,,73,0
37199,note_on,,119,0,16,,,,,,,,,,,,,,,,15,,57,0
37199,note_on,,119,0,14,,,,,,,,,,,,,,,,12,,64,0
37200,note_on,,1,0,13,,,,,,,,,,,,,,,,11,,69,72
37200,note_on,,1,0,14,,,,,,,,,,,,,,,,12,,64,72
37200,note_on,,601,0,11,,,,,,,,,,,,,,,,8,,52,88
37200,note_on,,1,0,7,,,,,,,,,,,,,,,,2,,49,72
37200,note_on,,1,0,15,,,,,,,,,,,,,,,,13,,49,72
37200,note_on,,1,0,10,,,,,,,,,,,,,,,,7,,57,88
37200,note_on,,241,0,12,,,,,,,,,,,,,,,,10,,64,72
37200,note_on,,0,0,16,,,,,,,,,,,,,,,,15,,52,72
37200,note_on,,0,0,16,,,,,,,,,,,,,,,,15,,64,72
37200,note_on,,1,0,16,,,,,,,,,,,,,,,,15,,49,72
37200,note_on,,0,0,16,,,,,,,,,,,,,,,,15,,76,72
37200,note_on,,0,0,16,,,,,,,,,,,,,,,,15,,69,72
37319,note_on,,0,0,16,,,,,,,,,,,,,,,,15,,52,0
37319,note_on,,0,0,16,,,,,,,,,,,,,,,,15,,64,0
37319,note_on,,0,0,16,,,,,,,,,,,,,,,,15,,69,0
37319,note_on,,119,0,13,,,,,,,,,,,,,,,,11,,69,0
37319,note_on,,119,0,15,,,,,,,,,,,,,,,,13,,49,0
37319,note_on,,119,0,10,,,,,,,,,,,,,,,,7,,57,0
37319,note_on,,119,0,12,,,,,,,,,,,,,,,,10,,64,0
37319,note_on,,119,0,14,,,,,,,,,,,,,,,,12,,64,0
37319,note_on,,0,0,16,,,,,,,,,,,,,,,,15,,76,0
37319,note_on,,119,0,7,,,,,,,,,,,,,,,,2,,49,0
37319,note_on,,119,0,16,,,,,,,,,,,,,,,,15,,49,0
37319,note_on,,119,0,11,,,,,,,,,,,,,,,,8,,52,0
37320,note_on,,0,0,16,,,,,,,,,,,,,,,,15,,57,72
37320,note_on,,0,0,16,,,,,,,,,,,,,,,,15,,64,72
37320,note_on,,0,0,16,,,,,,,,,,,,,,,,15,,69,72
37320,note_on,,0,0,16,,,,,,,,,,,,,,,,15,,73,72
37320,note_on,,1,0,16,,,,,,,,,,,,,,,,15,,45,72
37320,note_on,,1,0,11,,,,,,,,,,,,,,,,8,,57,88
37320,note_on,,1,0,15,,,,,,,,,,,,,,,,13,,45,72
37320,note_on,,1,0,12,,,,,,,,,,,,,,,,10,,61,72
37320,note_on,,1,0,7,,,,,,,,,,,,,,,,2,,45,72
37320,note_on,,1,0,14,,,,,,,,,,,,,,,,12,,69,72
37439,note_on,,0,0,16,,,,,,,,,,,,,,,,15,,64,0
37439,note_on,,119,0,12,,,,,,,,,,,,,,,,10,,61,0
37439,note_on,,0,0,16,,,,,,,,,,,,,,,,15,,57,0
37439,note_on,,0,0,16,,,,,,,,,,,,,,,,15,,73,0
37439,note_on,,119,0,14,,,,,,,,,,,,,,,,12,,69,0
37439,note_on,,119,0,7,,,,,,,,,,,,,,,,2,,45,0
37439,note_on,,119,0,15,,,,,,,,,,,,,,,,13,,45,0
37439,note_on,,0,0,16,,,,,,,,,,,,,,,,15,,69,0
37439,note_on,,119,0,11,,,,,,,,,,,,,,,,8,,57,0
37439,note_on,,119,0,16,,,,,,,,,,,,,,,,15,,45,0
37440,note_on,,1,0,12,,,,,,,,,,,,,,,,10,,59,72
37440,note_on,,1,0,14,,,,,,,,,,,,,,,,12,,68,72
37440,note_on,,1,0,16,,,,,,,,,,,,,,,,15,,52,72
37440,note_on,,0,0,16,,,,,,,,,,,,,,,,15,,71,72
37440,note_on,,0,0,16,,,,,,,,,,,,,,,,15,,68,72
37440,note_on,,0,0,16,,,,,,,,,,,,,,,,15,,64,72
37440,note_on,,0,0,16,,,,,,,,,,,,,,,,15,,59,72
37440,note_on,,1,0,11,,,,,,,,,,,,,,,,8,,56,88
37440,note_on,,1,0,7,,,,,,,,,,,,,,,,2,,52,72
37440,note_on,,1,0,15,,,,,,,,,,,,,,,,13,,52,72
37499,note_on,,59,0,11,,,,,,,,,,,,,,,,8,,56,0
37499,note_on,,59,0,14,,,,,,,,,,,,,,,,12,,68,0
37500,note_on,,1,0,11,,,,,,,,,,,,,,,,8,,54,88
37500,note_on,,1,0,14,,,,,,,,,,,,,,,,12,,66,72
37559,note_on,,119,0,12,,,,,,,,,,,,,,,,10,,59,0
37559,note_on,,59,0,11,,,,,,,,,,,,,,,,8,,54,0
37559,note_on,,59,0,14,,,,,,,,,,,,,,,,12,,66,0
37560,note_on,,1,0,14,,,,,,,,,,,,,,,,12,,64,72
37560,note_on,,1,0,11,,,,,,,,,,,,,,,,8,,52,88
37679,note_on,,119,0,11,,,,,,,,,,,,,,,,8,,52,0
37679,note_on,,239,0,15,,,,,,,,,,,,,,,,13,,52,0
37679,note_on,,239,0,7,,,,,,,,,,,,,,,,2,,52,0
37679,note_on,,119,0,14,,,,,,,,,,,,,,,,12,,64,0
37679,note_on,,0,0,16,,,,,,,,,,,,,,,,15,,59,0
37679,note_on,,239,0,16,,,,,,,,,,,,,,,,15,,52,0
37680,note_on,,721,0,9,,,,,,,,,,,,,,,,6,,68,88
37680,note_on,,1,0,14,,,,,,,,,,,,,,,,12,,64,72
37680,note_on,,1,0,15,,,,,,,,,,,,,,,,13,,52,72
37680,note_on,,1,0,11,,,,,,,,,,,,,,,,8,,52,88
37680,note_on,,361,0,13,,,,,,,,,,,,,,,,11,,68,72
37680,note_on,,361,0,10,,,,,,,,,,,,,,,,7,,64,88
37680,note_on,,1,0,7,,,,,,,,,,,,,,,,2,,52,72
37680,note_on,,1,0,16,,,,,,,,,,,,,,,,15,,52,72
37680,note_on,,0,0,16,,,,,,,,,,,,,,,,15,,56,72
37799,note_on,,119,0,15,,,,,,,,,,,,,,,,13,,52,0
37799,note_on,,119,0,7,,,,,,,,,,,,,,,,2,,52,0
37799,note_on,,119,0,16,,,,,,,,,,,,,,,,15,,71,0
37799,note_on,,119,0,9,,,,,,,,,,,,,,,,6,,68,0
37799,note_on,,119,0,11,,,,,,,,,,,,,,,,8,,52,0
37799,note_on,,0,0,16,,,,,,,,,,,,,,,,15,,68,0
37799,note_on,,0,0,16,,,,,,,,,,,,,,,,15,,64,0
37799,note_on,,0,0,16,,,,,,,,,,,,,,,,15,,52,0
37799,note_on,,0,0,16,,,,,,,,,,,,,,,,15,,56,0
37799,note_on,,119,0,10,,,,,,,,,,,,,,,,7,,64,0
37799,note_on,,119,0,13,,,,,,,,,,,,,,,,11,,68,0
37799,note_on,,119,0,14,,,,,,,,,,,,,,,,12,,64,0
37800,note_on,,1,0,11,,,,,,,,,,,,,,,,8,,54,88
37800,note_on,,1,0,16,,,,,,,,,,,,,,,,15,,54,72
37800,note_on,,1,0,10,,,,,,,,,,,,,,,,7,,64,88
37800,note_on,,0,0,16,,,,,,,,,,,,,,,,15,,66,72
37800,note_on,,0,0,16,,,,,,,,,,,,,,,,15,,64,72
37800,note_on,,0,0,16,,,,,,,,,,,,,,,,15,,57,72
37800,note_on,,1,0,14,,,,,,,,,,,,,,,,12,,64,72
37800,note_on,,1,0,7,,,,,,,,,,,,,,,,2,,54,72
37800,note_on,,1,0,9,,,,,,,,,,,,,,,,6,,69,88
37800,note_on,,1,0,13,,,,,,,,,,,,,,,,11,,69,72
37800,note_on,,0,0,16,,,,,,,,,,,,,,,,15,,69,72
37800,note_on,,1,0,15,,,,,,,,,,,,,,,,13,,54,72
37859,note_on,,59,0,14,,,,,,,,,,,,,,,,12,,64,0
37859,note_on,,59,0,10,,,,,,,,,,,,,,,,7,,64,0
37860,note_on,,1,0,14,,,,,,,,,,,,,,,,12,,62,72
37860,note_on,,1,0,10,,,,,,,,,,,,,,,,7,,62,88
37919,note_on,,0,0,16,,,,,,,,,,,,,,,,15,,64,0
37919,note_on,,0,0,16,,,,,,,,,,,,,,,,15,,57,0
37919,note_on,,59,0,14,,,,,,,,,,,,,,,,12,,62,0
37919,note_on,,119,0,9,,,,,,,,,,,,,,,,6,,69,0
37919,note_on,,0,0,16,,,,,,,,,,,,,,,,15,,66,0
37919,note_on,,119,0,15,,,,,,,,,,,,,,,,13,,54,0
37919,note_on,,119,0,11,,,,,,,,,,,,,,,,8,,54,0
37919,note_on,,119,0,7,,,,,,,,,,,,,,,,2,,54,0
37919,note_on,,0,0,16,,,,,,,,,,,,,,,,15,,69,0
37919,note_on,,119,0,16,,,,,,,,,,,,,,,,15,,54,0
37919,note_on,,119,0,13,,,,,,,,,,,,,,,,11,,69,0
37919,note_on,,59,0,10,,,,,,,,,,,,,,,,7,,62,0
37920,note_on,,1,0,11,,,,,,,,,,,,,,,,8,,56,88
37920,note_on,,1,0,14,,,,,,,,,,,,,,,,12,,62,72
37920,note_on,,361,0,12,,,,,,,,,,,,,,,,10,,76,72
37920,note_on,,1321,0,6,,,,,,,,,,,,,,,,1,,76,72
37920,note_on,,1,0,16,,,,,,,,,,,,,,,,15,,56,72
37920,note_on,,0,0,16,,,,,,,,,,,,,,,,15,,64,72
37920,note_on,,1,0,9,,,,,,,,,,,,,,,,6,,71,88
37920,note_on,,1,0,15,,,,,,,,,,,,,,,,13,,56,72
37920,note_on,,1,0,7,,,,,,,,,,,,,,,,2,,56,72
37920,note_on,,0,0,16,,,,,,,,,,,,,,,,15,,62,72
37920,note_on,,1321,0,5,,,,,,,,,,,,,,,,0,,76,72
37920,note_on,,0,0,16,,,,,,,,,,,,,,,,15,,59,72
37920,note_on,,1321,0,8,,,,,,,,,,,,,,,,5,,76,88
37920,note_on,,1,0,10,,,,,,,,,,,,,,,,7,,62,88
37920,note_on,,1,0,13,,,,,,,,,,,,,,,,11,,71,72
38039,note_on,,119,0,5,,,,,,,,,,,,,,,,0,,76,0
38039,note_on,,119,0,12,,,,,,,,,,,,,,,,10,,76,0
38039,note_on,,119,0,8,,,,,,,,,,,,,,,,5,,76,0
38039,note_on,,119,0,6,,,,,,,,,,,,,,,,1,,76,0
38040,note_on,,1,0,8,,,,,,,,,,,,,,,,5,,76,88
38040,note_on,,1,0,12,,,,,,,,,,,,,,,,10,,76,72
38040,note_on,,1,0,5,,,,,,,,,,,,,,,,0,,76,72
38040,note_on,,1,0,6,,,,,,,,,,,,,,,,1,,76,72
38099,note_on,,179,0,13,,,,,,,,,,,,,,,,11,,71,0
38099,note_on,,179,0,9,,,,,,,,,,,,,,,,6,,71,0
38099,note_on,,179,0,11,,,,,,,,,,,,,,,,8,,56,0
38099,note_on,,179,0,10,,,,,,,,,,,,,,,,7,,62,0
38099,note_on,,179,0,14,,,,,,,,,,,,,,,,12,,62,0
38100,note_on,,1,0,9,,,,,,,,,,,,,,,,6,,71,88
38100,note_on,,1,0,14,,,,,,,,,,,,,,,,12,,62,72
38100,note_on,,1,0,13,,,,,,,,,,,,,,,,11,,71,72
38100,note_on,,1,0,10,,,,,,,,,,,,,,,,7,,62,88
38100,note_on,,1,0,11,,,,,,,,,,,,,,,,8,,56,88
38159,note_on,,119,0,6,,,,,,,,,,,,,,,,1,,76,0
38159,note_on,,119,0,8,,,,,,,,,,,,,,,,5,,76,0
38159,note_on,,119,0,5,,,,,,,,,,,,,,,,0,,76,0
38159,note_on,,239,0,15,,,,,,,,,,,,,,,,13,,56,0
38159,note_on,,239,0,7,,,,,,,,,,,,,,,,2,,56,0
38159,note_on,,59,0,13,,,,,,,,,,,,,,,,11,,71,0
38159,note_on,,59,0,11,,,,,,,,,,,,,,,,8,,56,0
38159,note_on,,119,0,12,,,,,,,,,,,,,,,,10,,76,0
38159,note_on,,239,0,16,,,,,,,,,,,,,,,,15,,56,0
38159,note_on,,0,0,16,,,,,,,,,,,,,,,,15,,64,0
38159,note_on,,59,0,14,,,,,,,,,,,,,,,,12,,62,0
38159,note_on,,0,0,16,,,,,,,,,,,,,,,,15,,62,0
38159,note_on,,0,0,16,,,,,,,,,,,,,,,,15,,59,0
38159,note_on,,59,0,10,,,,,,,,,,,,,,,,7,,62,0
38159,note_on,,59,0,9,,,,,,,,,,,,,,,,6,,71,0
38160,note_on,,1,0,10,,,,,,,,,,,,,,,,7,,61,88
38160,note_on,,1,0,12,,,,,,,,,,,,,,,,10,,76,72
38160,note_on,,1,0,5,,,,,,,,,,,,,,,,0,,76,72
38160,note_on,,0,0,16,,,,,,,,,,,,,,,,15,,61,72
38160,note_on,,1,0,15,,,,,,,,,,,,,,,,13,,57,72
38160,note_on,,1,0,7,,,,,,,,,,,,,,,,2,,57,72
38160,note_on,,1,0,13,,,,,,,,,,,,,,,,11,,69,72
38160,note_on,,1,0,16,,,,,,,,,,,,,,,,15,,57,72
38160,note_on,,1,0,14,,,,,,,,,,,,,,,,12,,61,72
38160,note_on,,1,0,11,,,,,,,,,,,,,,,,8,,57,88
38160,note_on,,1,0,6,,,,,,,,,,,,,,,,1,,76,72
38160,note_on,,1,0,8,,,,,,,,,,,,,,,,5,,76,88
38160,note_on,,1,0,9,,,,,,,,,,,,,,,,6,,64,88
38160,note_on,,0,0,16,,,,,,,,,,,,,,,,15,,64,72
38279,note_on,,119,0,12,,,,,,,,,,,,,,,,10,,76,0
38279,note_on,,119,0,9,,,,,,,,,,,,,,,,6,,64,0
38279,note_on,,119,0,13,,,,,,,,,,,,,,,,11,,69,0
38279,note_on,,119,0,7,,,,,,,,,,,,,,,,2,,57,0
38279,note_on,,119,0,15,,,,,,,,,,,,,,,,13,,57,0
38279,note_on,,119,0,5,,,,,,,,,,,,,,,,0,,76,0
38279,note_on,,119,0,11,,,,,,,,,,,,,,,,8,,57,0
38279,note_on,,119,0,8,,,,,,,,,,,,,,,,5,,76,0
38279,note_on,,119,0,14,,,,,,,,,,,,,,,,12,,61,0
38279,note_on,,119,0,6,,,,,,,,,,,,,,,,1,,76,0
38279,note_on,,119,0,10,,,,,,,,,,,,,,,,7,,61,0
38280,note_on,,120,0,16,,,,,,,,,,,,,,,,15,,45,72
38280,note_on,,1,0,8,,,,,,,,,,,,,,,,5,,73,88
38280,note_on,,1,0,15,,,,,,,,,,,,,,,,13,,45,72
38280,note_on,,1,0,12,,,,,,,,,,,,,,,,10,,73,72
38280,note_on,,1,0,13,,,,,,,,,,,,,,,,11,,73,72
38280,note_on,,1,0,6,,,,,,,,,,,,,,,,1,,73,72
38280,note_on,,1,0,11,,,,,,,,,,,,,,,,8,,57,88
38280,note_on,,1,0,9,,,,,,,,,,,,,,,,6,,64,88
38280,note_on,,1,0,14,,,,,,,,,,,,,,,,12,,64,72
38280,note_on,,1,0,10,,,,,,,,,,,,,,,,7,,61,88
38280,note_on,,1,0,5,,,,,,,,,,,,,,,,0,,73,72
38280,note_on,,1,0,7,,,,,,,,,,,,,,,,2,,45,72
38399,note_on,,119,0,16,,,,,,,,,,,,,,,,15,,57,0
38399,note_on,,0,0,16,,,,,,,,,,,,,,,,15,,64,0
38399,note_on,,0,0,16,,,,,,,,,,,,,,,,15,,61,0
38399,note_on,,0,0,16,,,,,,,,,,,,,,,,15,,45,0
38399,note_on,,119,0,6,,,,,,,,,,,,,,,,1,,73,0
38399,note_on,,119,0,12,,,,,,,,,,,,,,,,10,,73,0
38399,note_on,,119,0,8,,,,,,,,,,,,,,,,5,,73,0
38399,note_on,,119,0,5,,,,,,,,,,,,,,,,0,,73,0
38399,note_on,,119,0,15,,,,,,,,,,,,,,,,13,,45,0
38399,note_on,,119,0,7,,,,,,,,,,,,,,,,2,,45,0
38399,note_on,,119,0,9,,,,,,,,,,,,,,,,6,,64,0
38399,note_on,,119,0,11,,,,,,,,,,,,,,,,8,,57,0
38399,note_on,,119,0,14,,,,,,,,,,,,,,,,12,,64,0
38399,note_on,,119,0,13,,,,,,,,,,,,,,,,11,,73,0
38399,note_on,,119,0,10,,,,,,,,,,,,,,,,7,,61,0
38400,note_on,,1,0,16,,,,,,,,,,,,,,,,15,,69,72
38400,note_on,,1,0,8,,,,,,,,,,,,,,,,5,,69,88
38400,note_on,,1,0,5,,,,,,,,,,,,,,,,0,,69,72
38400,note_on,,1,0,13,,,,,,,,,,,,,,,,11,,69,72
38400,note_on,,1,0,14,,,,,,,,,,,,,,,,12,,69,72
38400,note_on,,1,0,12,,,,,,,,,,,,,,,,10,,69,72
38400,note_on,,1,0,6,,,,,,,,,,,,,,,,1,,69,72
38519,note_on,,119,0,6,,,,,,,,,,,,,,,,1,,69,0
38519,note_on,,119,0,16,,,,,,,,,,,,,,,,15,,69,0
38519,note_on,,119,0,13,,,,,,,,,,,,,,,,11,,69,0
38519,note_on,,119,0,8,,,,,,,,,,,,,,,,5,,69,0
38519,note_on,,119,0,12,,,,,,,,,,,,,,,,10,,69,0
38519,note_on,,119,0,5,,,,,,,,,,,,,,,,0,,69,0
38519,note_on,,119,0,14,,,,,,,,,,,,,,,,12,,69,0
38520,note_on,,1,0,5,,,,,,,,,,,,,,,,0,,76,72
38520,note_on,,1,0,16,,,,,,,,,,,,,,,,15,,76,72
38520,note_on,,1,0,12,,,,,,,,,,,,,,,,10,,76,72
38520,note_on,,1,0,8,,,,,,,,,,,,,,,,5,,76,88
38520,note_on,,1,0,6,,,,,,,,,,,,,,,,1,,76,72
38520,note_on,,1,0,13,,,,,,,,,,,,,,,,11,,76,72
38699,note_on,,179,0,8,,,,,,,,,,,,,,,,5,,76,0
38699,note_on,,179,0,12,,,,,,,,,,,,,,,,10,,76,0
38699,note_on,,179,0,5,,,,,,,,,,,,,,,,0,,76,0
38699,note_on,,179,0,16,,,,,,,,,,,,,,,,15,,76,0
38699,note_on,,179,0,6,,,,,,,,,,,,,,,,1,,76,0
38699,note_on,,179,0,13,,,,,,,,,,,,,,,,11,,76,0
38700,note_on,,1,0,12,,,,,,,,,,,,,,,,10,,74,72
38700,note_on,,1,0,6,,,,,,,,,,,,,,,,1,,74,72
38700,note_on,,1,0,5,,,,,,,,,,,,,,,,0,,74,72
38700,note_on,,1,0,16,,,,,,,,,,,,,,,,15,,74,72
38700,note_on,,1,0,8,,,,,,,,,,,,,,,,5,,74,88
38700,note_on,,1,0,13,,,,,,,,,,,,,,,,11,,74,72
38759,note_on,,59,0,16,,,,,,,,,,,,,,,,15,,74,0
38759,note_on,,59,0,12,,,,,,,,,,,,,,,,10,,74,0
38759,note_on,,59,0,8,,,,,,,,,,,,,,,,5,,74,0
38759,note_on,,59,0,5,,,,,,,,,,,,,,,,0,,74,0
38759,note_on,,59,0,6,,,,,,,,,,,,,,,,1,,74,0
38759,note_on,,59,0,13,,,,,,,,,,,,,,,,11,,74,0
38760,note_on,,1,0,5,,,,,,,,,,,,,,,,0,,73,72
38760,note_on,,1,0,16,,,,,,,,,,,,,,,,15,,73,72
38760,note_on,,1,0,6,,,,,,,,,,,,,,,,1,,73,72
38760,note_on,,1,0,8,,,,,,,,,,,,,,,,5,,73,88
38760,note_on,,1,0,12,,,,,,,,,,,,,,,,10,,73,72
38760,note_on,,1,0,13,,,,,,,,,,,,,,,,11,,73,72
38879,note_on,,119,0,16,,,,,,,,,,,,,,,,15,,73,0
38879,note_on,,119,0,12,,,,,,,,,,,,,,,,10,,73,0
38879,note_on,,119,0,8,,,,,,,,,,,,,,,,5,,73,0
38879,note_on,,119,0,13,,,,,,,,,,,,,,,,11,,73,0
38879,note_on,,119,0,5,,,,,,,,,,,,,,,,0,,73,0
38879,note_on,,119,0,6,,,,,,,,,,,,,,,,1,,73,0
38880,note_on,,1,0,12,,,,,,,,,,,,,,,,10,,78,72
38880,note_on,,1,0,13,,,,,,,,,,,,,,,,11,,78,72
38880,note_on,,1,0,6,,,,,,,,,,,,,,,,1,,78,72
38880,note_on,,1,0,8,,,,,,,,,,,,,,,,5,,78,88
38880,note_on,,1,0,5,,,,,,,,,,,,,,,,0,,78,72
38880,note_on,,1,0,16,,,,,,,,,,,,,,,,15,,78,72
38999,note_on,,119,0,5,,,,,,,,,,,,,,,,0,,78,0
38999,note_on,,119,0,13,,,,,,,,,,,,,,,,11,,78,0
38999,note_on,,119,0,8,,,,,,,,,,,,,,,,5,,78,0
38999,note_on,,119,0,16,,,,,,,,,,,,,,,,15,,78,0
38999,note_on,,119,0,12,,,,,,,,,,,,,,,,10,,78,0
38999,note_on,,119,0,6,,,,,,,,,,,,,,,,1,,78,0
39000,note_on,,1,0,12,,,,,,,,,,,,,,,,10,,78,72
39000,note_on,,1,0,8,,,,,,,,,,,,,,,,5,,78,88
39000,note_on,,1,0,5,,,,,,,,,,,,,,,,0,,78,72
39000,note_on,,1,0,6,,,,,,,,,,,,,,,,1,,78,72
39000,note_on,,1,0,13,,,,,,,,,,,,,,,,11,,78,72
39000,note_on,,1,0,16,,,,,,,,,,,,,,,,15,,78,72
39119,note_on,,119,0,12,,,,,,,,,,,,,,,,10,,78,0
39119,note_on,,119,0,16,,,,,,,,,,,,,,,,15,,78,0
39119,note_on,,119,0,5,,,,,,,,,,,,,,,,0,,78,0
39119,note_on,,119,0,6,,,,,,,,,,,,,,,,1,,78,0
39119,note_on,,119,0,8,,,,,,,,,,,,,,,,5,,78,0
39119,note_on,,119,0,13,,,,,,,,,,,,,,,,11,,78,0
39120,note_on,,1,0,12,,,,,,,,,,,,,,,,10,,80,72
39120,note_on,,1,0,5,,,,,,,,,,,,,,,,0,,80,72
39120,note_on,,1,0,6,,,,,,,,,,,,,,,,1,,80,72
39120,note_on,,1,0,8,,,,,,,,,,,,,,,,5,,80,88
39120,note_on,,1,0,16,,,,,,,,,,,,,,,,15,,80,72
39120,note_on,,1,0,13,,,,,,,,,,,,,,,,11,,80,72
39239,note_on,,119,0,8,,,,,,,,,,,,,,,,5,,80,0
39239,note_on,,119,0,16,,,,,,,,,,,,,,,,15,,80,0
39239,note_on,,119,0,12,,,,,,,,,,,,,,,,10,,80,0
39239,note_on,,119,0,5,,,,,,,,,,,,,,,,0,,80,0
39239,note_on,,119,0,13,,,,,,,,,,,,,,,,11,,80,0
39239,note_on,,119,0,6,,,,,,,,,,,,,,,,1,,80,0
39240,note_on,,1,0,5,,,,,,,,,,,,,,,,0,,81,72
39240,note_on,,1,0,13,,,,,,,,,,,,,,,,11,,81,72
39240,note_on,,1,0,8,,,,,,,,,,,,,,,,5,,81,88
39240,note_on,,1,0,12,,,,,,,,,,,,,,,,10,,81,72
39240,note_on,,1,0,6,,,,,,,,,,,,,,,,1,,81,72
39240,note_on,,1,0,16,,,,,,,,,,,,,,,,15,,81,72
39359,note_on,,119,0,13,,,,,,,,,,,,,,,,11,,81,0
39359,note_on,,119,0,16,,,,,,,,,,,,,,,,15,,81,0
39360,note_on,,961,0,10,,,,,,,,,,,,,,,,7,,57,88
39360,note_on,,1,0,13,,,,,,,,,,,,,,,,11,,64,72
39360,note_on,,1,0,16,,,,,,,,,,,,,,,,15,,49,72
39360,note_on,,0,0,16,,,,,,,,,,,,,,,,15,,64,72
39360,note_on,,0,0,16,,,,,,,,,,,,,,,,15,,57,72
39360,note_on,,961,0,15,,,,,,,,,,,,,,,,13,,49,72
39360,note_on,,0,0,16,,,,,,,,,,,,,,,,15,,52,72
39360,note_on,,961,0,11,,,,,,,,,,,,,,,,8,,49,88
39360,note_on,,961,0,9,,,,,,,,,,,,,,,,6,,64,88
39360,note_on,,961,0,7,,,,,,,,,,,,,,,,2,,49,72
39360,note_on,,841,0,14,,,,,,,,,,,,,,,,12,,57,72
39479,note_on,,119,0,14,,,,,,,,,,,,,,,,12,,57,0
39479,note_on,,119,0,11,,,,,,,,,,,,,,,,8,,49,0
39479,note_on,,119,0,15,,,,,,,,,,,,,,,,13,,49,0
39479,note_on,,119,0,7,,,,,,,,,,,,,,,,2,,49,0
39479,note_on,,119,0,10,,,,,,,,,,,,,,,,7,,57,0
39479,note_on,,119,0,9,,,,,,,,,,,,,,,,6,,64,0
39479,note_on,,119,0,13,,,,,,,,,,,,,,,,11,,64,0
39479,note_on,,119,0,16,,,,,,,,,,,,,,,,15,,49,0
39479,note_on,,0,0,16,,,,,,,,,,,,,,,,15,,64,0
39479,note_on,,0,0,16,,,,,,,,,,,,,,,,15,,57,0
39479,note_on,,0,0,16,,,,,,,,,,,,,,,,15,,52,0
39480,note_on,,1,0,7,,,,,,,,,,,,,,,,2,,45,72
39480,note_on,,1,0,11,,,,,,,,,,,,,,,,8,,45,88
39480,note_on,,0,0,16,,,,,,,,,,,,,,,,15,,69,72
39480,note_on,,0,0,16,,,,,,,,,,,,,,,,15,,64,72
39480,note_on,,1,0,16,,,,,,,,,,,,,,,,15,,45,72
39480,note_on,,1,0,10,,,,,,,,,,,,,,,,7,,61,88
39480,note_on,,1,0,9,,,,,,,,,,,,,,,,6,,69,88
39480,note_on,,0,0,16,,,,,,,,,,,,,,,,15,,61,72
39480,note_on,,1,0,13,,,,,,,,,,,,,,,,11,,69,72
39480,note_on,,1,0,14,,,,,,,,,,,,,,,,12,,61,72
39480,note_on,,1,0,15,,,,,,,,,,,,,,,,13,,45,72
39599,note_on,,119,0,10,,,,,,,,,,,,,,,,7,,61,0
39599,note_on,,359,0,5,,,,,,,,,,,,,,,,0,,81,0
39599,note_on,,119,0,7,,,,,,,,,,,,,,,,2,,45,0
39599,note_on,,119,0,16,,,,,,,,,,,,,,,,15,,45,0
39599,note_on,,359,0,12,,,,,,,,,,,,,,,,10,,81,0
39599,note_on,,119,0,9,,,,,,,,,,,,,,,,6,,69,0
39599,note_on,,0,0,16,,,,,,,,,,,,,,,,15,,69,0
39599,note_on,,359,0,6,,,,,,,,,,,,,,,,1,,81,0
39599,note_on,,359,0,8,,,,,,,,,,,,,,,,5,,81,0
39599,note_on,,119,0,14,,,,,,,,,,,,,,,,12,,61,0
39599,note_on,,119,0,13,,,,,,,,,,,,,,,,11,,69,0
39599,note_on,,0,0,16,,,,,,,,,,,,,,,,15,,61,0
39599,note_on,,119,0,11,,,,,,,,,,,,,,,,8,,45,0
39599,note_on,,119,0,15,,,,,,,,,,,,,,,,13,,45,0
39599,note_on,,0,0,16,,,,,,,,,,,,,,,,15,,64,0
39600,note_on,,1,0,9,,,,,,,,,,,,,,,,6,,68,88
39600,note_on,,0,0,16,,,,,,,,,,,,,,,,15,,59,72
39600,note_on,,1,0,16,,,,,,,,,,,,,,,,15,,52,72
39600,note_on,,0,0,16,,,,,,,,,,,,,,,,15,,64,72
39600,note_on,,1,0,11,,,,,,,,,,,,,,,,8,,52,88
39600,note_on,,1,0,7,,,,,,,,,,,,,,,,2,,52,72
39600,note_on,,1,0,15,,,,,,,,,,,,,,,,13,,52,72
39600,note_on,,0,0,16,,,,,,,,,,,,,,,,15,,68,72
39600,note_on,,1,0,14,,,,,,,,,,,,,,,,12,,59,72
39600,note_on,,1,0,13,,,,,,,,,,,,,,,,11,,68,72
39600,note_on,,1,0,10,,,,,,,,,,,,,,,,7,,59,88
39779,note_on,,179,0,13,,,,,,,,,,,,,,,,11,,68,0
39779,note_on,,179,0,7,,,,,,,,,,,,,,,,2,,52,0
39779,note_on,,179,0,11,,,,,,,,,,,,,,,,8,,52,0
39779,note_on,,179,0,15,,,,,,,,,,,,,,,,13,,52,0
39779,note_on,,179,0,9,,,,,,,,,,,,,,,,6,,68,0
39779,note_on,,179,0,14,,,,,,,,,,,,,,,,12,,59,0
39779,note_on,,179,0,10,,,,,,,,,,,,,,,,7,,59,0
39780,note_on,,1,0,13,,,,,,,,,,,,,,,,11,,66,72
39780,note_on,,1,0,11,,,,,,,,,,,,,,,,8,,50,88
39780,note_on,,1,0,10,,,,,,,,,,,,,,,,7,,59,88
39780,note_on,,180,0,16,,,,,,,,,,,,,,,,15,,50,72
39780,note_on,,1,0,14,,,,,,,,,,,,,,,,12,,59,72
39780,note_on,,1,0,15,,,,,,,,,,,,,,,,13,,50,72
39780,note_on,,1,0,7,,,,,,,,,,,,,,,,2,,50,72
39780,note_on,,1,0,9,,,,,,,,,,,,,,,,6,,66,88
39839,note_on,,59,0,9,,,,,,,,,,,,,,,,6,,66,0
39839,note_on,,59,0,14,,,,,,,,,,,,,,,,12,,59,0
39839,note_on,,59,0,10,,,,,,,,,,,,,,,,7,,59,0
39839,note_on,,59,0,13,,,,,,,,,,,,,,,,11,,66,0
39839,note_on,,59,0,7,,,,,,,,,,,,,,,,2,,50,0
39839,note_on,,59,0,15,,,,,,,,,,,,,,,,13,,50,0
39839,note_on,,0,0,16,,,,,,,,,,,,,,,,15,,50,0
39839,note_on,,0,0,16,,,,,,,,,,,,,,,,15,,59,0
39839,note_on,,0,0,16,,,,,,,,,,,,,,,,15,,64,0
39839,note_on,,0,0,16,,,,,,,,,,,,,,,,15,,68,0
39839,note_on,,59,0,16,,,,,,,,,,,,,,,,15,,52,0
39839,note_on,,59,0,11,,,,,,,,,,,,,,,,8,,50,0
39840,note_on,,1,0,13,,,,,,,,,,,,,,,,11,,64,72
39840,note_on,,1,0,15,,,,,,,,,,,,,,,,13,,49,72
39840,note_on,,1,0,9,,,,,,,,,,,,,,,,6,,64,88
39840,note_on,,1,0,14,,,,,,,,,,,,,,,,12,,61,72
39840,note_on,,0,0,16,,,,,,,,,,,,,,,,15,,76,72
39840,note_on,,0,0,16,,,,,,,,,,,,,,,,15,,64,72
39840,note_on,,0,0,16,,,,,,,,,,,,,,,,15,,69,72
39840,note_on,,0,0,16,,,,,,,,,,,,,,,,15,,52,72
39840,note_on,,1,0,16,,,,,,,,,,,,,,,,15,,49,72
39840,note_on,,241,0,5,,,,,,,,,,,,,,,,0,,76,72
39840,note_on,,241,0,12,,,,,,,,,,,,,,,,10,,76,72
39840,note_on,,1,0,11,,,,,,,,,,,,,,,,8,,49,88
39840,note_on,,1,0,7,,,,,,,,,,,,,,,,2,,49,72
39840,note_on,,241,0,6,,,,,,,,,,,,,,,,1,,76,72
39840,note_on,,241,0,8,,,,,,,,,,,,,,,,5,,76,88
39840,note_on,,1,0,10,,,,,,,,,,,,,,,,7,,61,88
39959,note_on,,119,0,14,,,,,,,,,,,,,,,,12,,61,0
39959,note_on,,119,0,12,,,,,,,,,,,,,,,,10,,76,0
39959,note_on,,119,0,8,,,,,,,,,,,,,,,,5,,76,0
39959,note_on,,119,0,10,,,,,,,,,,,,,,,,7,,61,0
39959,note_on,,119,0,6,,,,,,,,,,,,,,,,1,,76,0
39959,note_on,,119,0,13,,,,,,,,,,,,,,,,11,,64,0
39959,note_on,,119,0,9,,,,,,,,,,,,,,,,6,,64,0
39959,note_on,,0,0,16,,,,,,,,,,,,,,,,15,,69,0
39959,note_on,,0,0,16,,,,,,,,,,,,,,,,15,,76,0
39959,note_on,,0,0,16,,,,,,,,,,,,,,,,15,,52,0
39959,note_on,,119,0,16,,,,,,,,,,,,,,,,15,,49,0
39959,note_on,,119,0,5,,,,,,,,,,,,,,,,0,,76,0
39959,note_on,,119,0,7,,,,,,,,,,,,,,,,2,,49,0
39959,note_on,,119,0,11,,,,,,,,,,,,,,,,8,,49,0
39959,note_on,,119,0,15,,,,,,,,,,,,,,,,13,,49,0
39959,note_on,,0,0,16,,,,,,,,,,,,,,,,15,,64,0
39960,note_on,,1,0,14,,,,,,,,,,,,,,,,12,,62,72
39960,note_on,,1,0,9,,,,,,,,,,,,,,,,6,,69,88
39960,note_on,,0,0,16,,,,,,,,,,,,,,,,15,,66,72
39960,note_on,,1,0,13,,,,,,,,,,,,,,,,11,,69,72
39960,note_on,,1,0,6,,,,,,,,,,,,,,,,1,,74,72
39960,note_on,,1,0,7,,,,,,,,,,,,,,,,2,,54,72
39960,note_on,,1,0,5,,,,,,,,,,,,,,,,0,,74,72
39960,note_on,,1,0,16,,,,,,,,,,,,,,,,15,,54,72
39960,note_on,,0,0,16,,,,,,,,,,,,,,,,15,,74,72
39960,note_on,,0,0,16,,,,,,,,,,,,,,,,15,,69,72
39960,note_on,,1,0,11,,,,,,,,,,,,,,,,8,,54,88
39960,note_on,,1,0,15,,,,,,,,,,,,,,,,13,,54,72
39960,note_on,,1,0,10,,,,,,,,,,,,,,,,7,,62,88
39960,note_on,,1,0,8,,,,,,,,,,,,,,,,5,,74,88
39960,note_on,,1,0,12,,,,,,,,,,,,,,,,10,,74,72
39960,note_on,,0,0,16,,,,,,,,,,,,,,,,15,,57,72
40079,note_on,,119,0,13,,,,,,,,,,,,,,,,11,,69,0
40079,note_on,,119,0,10,,,,,,,,,,,,,,,,7,,62,0
40079,note_on,,119,0,14,,,,,,,,,,,,,,,,12,,62,0
40079,note_on,,119,0,9,,,,,,,,,,,,,,,,6,,69,0
40079,note_on,,119,0,15,,,,,,,,,,,,,,,,13,,54,0
40079,note_on,,0,0,16,,,,,,,,,,,,,,,,15,,57,0
40079,note_on,,119,0,7,,,,,,,,,,,,,,,,2,,54,0
40079,note_on,,119,0,11,,,,,,,,,,,,,,,,8,,54,0
40079,note_on,,119,0,16,,,,,,,,,,,,,,,,15,,54,0
40080,note_on,,1,0,9,,,,,,,,,,,,,,,,6,,69,88
40080,note_on,,1,0,10,,,,,,,,,,,,,,,,7,,62,88
40080,note_on,,1,0,11,,,,,,,,,,,,,,,,8,,54,88
40080,note_on,,0,0,16,,,,,,,,,,,,,,,,15,,57,72
40080,note_on,,1,0,13,,,,,,,,,,,,,,,,11,,69,72
40080,note_on,,1,0,16,,,,,,,,,,,,,,,,15,,54,72
40080,note_on,,1,0,7,,,,,,,,,,,,,,,,2,,54,72
40080,note_on,,1,0,14,,,,,,,,,,,,,,,,12,,62,72
40080,note_on,,1,0,15,,,,,,,,,,,,,,,,13,,54,72
40139,note_on,,179,0,8,,,,,,,,,,,,,,,,5,,74,0
40139,note_on,,179,0,12,,,,,,,,,,,,,,,,10,,74,0
40139,note_on,,179,0,5,,,,,,,,,,,,,,,,0,,74,0
40139,note_on,,179,0,6,,,,,,,,,,,,,,,,1,,74,0
40140,note_on,,1,0,8,,,,,,,,,,,,,,,,5,,78,88
40140,note_on,,1,0,5,,,,,,,,,,,,,,,,0,,78,72
40140,note_on,,1,0,6,,,,,,,,,,,,,,,,1,,78,72
40140,note_on,,1,0,12,,,,,,,,,,,,,,,,10,,78,72
40199,note_on,,59,0,6,,,,,,,,,,,,,,,,1,,78,0
40199,note_on,,0,0,16,,,,,,,,,,,,,,,,15,,69,0
40199,note_on,,119,0,10,,,,,,,,,,,,,,,,7,,62,0
40199,note_on,,59,0,8,,,,,,,,,,,,,,,,5,,78,0
40199,note_on,,119,0,16,,,,,,,,,,,,,,,,15,,74,0
40199,note_on,,119,0,13,,,,,,,,,,,,,,,,11,,69,0
40199,note_on,,119,0,14,,,,,,,,,,,,,,,,12,,62,0
40199,note_on,,119,0,7,,,,,,,,,,,,,,,,2,,54,0
40199,note_on,,59,0,5,,,,,,,,,,,,,,,,0,,78,0
40199,note_on,,119,0,15,,,,,,,,,,,,,,,,13,,54,0
40199,note_on,,59,0,12,,,,,,,,,,,,,,,,10,,78,0
40199,note_on,,0,0,16,,,,,,,,,,,,,,,,15,,66,0
40199,note_on,,119,0,11,,,,,,,,,,,,,,,,8,,54,0
40199,note_on,,0,0,16,,,,,,,,,,,,,,,,15,,57,0
40199,note_on,,0,0,16,,,,,,,,,,,,,,,,15,,54,0
40199,note_on,,119,0,9,,,,,,,,,,,,,,,,6,,69,0
40200,note_on,,1,0,7,,,,,,,,,,,,,,,,2,,56,72
40200,note_on,,0,0,16,,,,,,,,,,,,,,,,15,,59,72
40200,note_on,,1,0,5,,,,,,,,,,,,,,,,0,,76,72
40200,note_on,,1,0,12,,,,,,,,,,,,,,,,10,,76,72
40200,note_on,,1,0,10,,,,,,,,,,,,,,,,7,,59,88
40200,note_on,,1,0,8,,,,,,,,,,,,,,,,5,,76,88
40200,note_on,,1,0,9,,,,,,,,,,,,,,,,6,,64,88
40200,note_on,,1,0,6,,,,,,,,,,,,,,,,1,,76,72
40200,note_on,,1,0,14,,,,,,,,,,,,,,,,12,,59,72
40200,note_on,,0,0,16,,,,,,,,,,,,,,,,15,,64,72
40200,note_on,,1,0,15,,,,,,,,,,,,,,,,13,,56,72
40200,note_on,,1,0,13,,,,,,,,,,,,,,,,11,,64,72
40200,note_on,,1,0,11,,,,,,,,,,,,,,,,8,,56,88
40200,note_on,,0,0,16,,,,,,,,,,,,,,,,15,,71,72
40200,note_on,,1,0,16,,,,,,,,,,,,,,,,15,,56,72
40259,note_on,,59,0,12,,,,,,,,,,,,,,,,10,,76,0
40259,note_on,,59,0,5,,,,,,,,,,,,,,,,0,,76,0
40259,note_on,,59,0,6,,,,,,,,,,,,,,,,1,,76,0
40259,note_on,,59,0,8,,,,,,,,,,,,,,,,5,,76,0
40260,note_on,,1,0,5,,,,,,,,,,,,,,,,0,,74,72
40260,note_on,,1,0,8,,,,,,,,,,,,,,,,5,,74,88
40260,note_on,,1,0,6,,,,,,,,,,,,,,,,1,,74,72
40260,note_on,,1,0,12,,,,,,,,,,,,,,,,10,,74,72
40319,note_on,,0,0,16,,,,,,,,,,,,,,,,15,,64,0
40319,note_on,,0,0,16,,,,,,,,,,,,,,,,15,,59,0
40319,note_on,,0,0,16,,,,,,,,,,,,,,,,15,,71,0
40319,note_on,,119,0,16,,,,,,,,,,,,,,,,15,,56,0
40319,note_on,,119,0,7,,,,,,,,,,,,,,,,2,,56,0
40319,note_on,,59,0,12,,,,,,,,,,,,,,,,10,,74,0
40319,note_on,,119,0,10,,,,,,,,,,,,,,,,7,,59,0
40319,note_on,,119,0,13,,,,,,,,,,,,,,,,11,,64,0
40319,note_on,,119,0,9,,,,,,,,,,,,,,,,6,,64,0
40319,note_on,,119,0,15,,,,,,,,,,,,,,,,13,,56,0
40319,note_on,,119,0,14,,,,,,,,,,,,,,,,12,,59,0
40319,note_on,,59,0,6,,,,,,,,,,,,,,,,1,,74,0
40319,note_on,,59,0,8,,,,,,,,,,,,,,,,5,,74,0
40319,note_on,,59,0,5,,,,,,,,,,,,,,,,0,,74,0
40319,note_on,,119,0,11,,,,,,,,,,,,,,,,8,,56,0
40320,note_on,,1,0,11,,,,,,,,,,,,,,,,8,,57,88
40320,note_on,,1,0,15,,,,,,,,,,,,,,,,13,,57,72
40320,note_on,,1,0,16,,,,,,,,,,,,,,,,15,,73,72
40320,note_on,,1,0,7,,,,,,,,,,,,,,,,2,,57,72
40320,note_on,,0,0,16,,,,,,,,,,,,,,,,15,,57,72
40320,note_on,,1,0,5,,,,,,,,,,,,,,,,0,,73,72
40320,note_on,,0,0,16,,,,,,,,,,,,,,,,15,,69,72
40320,note_on,,1,0,14,,,,,,,,,,,,,,,,12,,61,72
40320,note_on,,1,0,6,,,,,,,,,,,,,,,,1,,73,72
40320,note_on,,1,0,8,,,,,,,,,,,,,,,,5,,73,88
40320,note_on,,0,0,16,,,,,,,,,,,,,,,,15,,64,72
40320,note_on,,1,0,9,,,,,,,,,,,,,,,,6,,64,88
40320,note_on,,1,0,13,,,,,,,,,,,,,,,,11,,64,72
40320,note_on,,1,0,12,,,,,,,,,,,,,,,,10,,73,72
40320,note_on,,1,0,10,,,,,,,,,,,,,,,,7,,61,88
40439,note_on,,0,0,16,,,,,,,,,,,,,,,,15,,64,0
40439,note_on,,119,0,16,,,,,,,,,,,,,,,,15,,73,0
40440,note_on,,0,0,16,,,,,,,,,,,,,,,,15,,61,72
40440,note_on,,1,0,16,,,,,,,,,,,,,,,,15,,64,72
40499,note_on,,179,0,12,,,,,,,,,,,,,,,,10,,73,0
40499,note_on,,179,0,6,,,,,,,,,,,,,,,,1,,73,0
40499,note_on,,179,0,8,,,,,,,,,,,,,,,,5,,73,0
40499,note_on,,179,0,5,,,,,,,,,,,,,,,,0,,73,0
40500,note_on,,1,0,12,,,,,,,,,,,,,,,,10,,76,72
40500,note_on,,1,0,6,,,,,,,,,,,,,,,,1,,76,72
40500,note_on,,1,0,8,,,,,,,,,,,,,,,,5,,76,88
40500,note_on,,1,0,5,,,,,,,,,,,,,,,,0,,76,72
40559,note_on,,239,0,15,,,,,,,,,,,,,,,,13,,57,0
40559,note_on,,59,0,8,,,,,,,,,,,,,,,,5,,76,0
40559,note_on,,239,0,13,,,,,,,,,,,,,,,,11,,64,0
40559,note_on,,119,0,16,,,,,,,,,,,,,,,,15,,57,0
40559,note_on,,0,0,16,,,,,,,,,,,,,,,,15,,69,0
40559,note_on,,59,0,5,,,,,,,,,,,,,,,,0,,76,0
40559,note_on,,0,0,16,,,,,,,,,,,,,,,,15,,64,0
40559,note_on,,239,0,11,,,,,,,,,,,,,,,,8,,57,0
40559,note_on,,239,0,10,,,,,,,,,,,,,,,,7,,61,0
40559,note_on,,59,0,12,,,,,,,,,,,,,,,,10,,76,0
40559,note_on,,59,0,6,,,,,,,,,,,,,,,,1,,76,0
40559,note_on,,239,0,7,,,,,,,,,,,,,,,,2,,57,0
40559,note_on,,239,0,9,,,,,,,,,,,,,,,,6,,64,0
40559,note_on,,239,0,14,,,,,,,,,,,,,,,,12,,61,0
40560,note_on,,1,0,9,,,,,,,,,,,,,,,,6,,69,88
40560,note_on,,1,0,5,,,,,,,,,,,,,,,,0,,74,72
40560,note_on,,1,0,6,,,,,,,,,,,,,,,,1,,74,72
40560,note_on,,1,0,16,,,,,,,,,,,,,,,,15,,45,72
40560,note_on,,0,0,16,,,,,,,,,,,,,,,,15,,66,72
40560,note_on,,1,0,15,,,,,,,,,,,,,,,,13,,45,72
40560,note_on,,1,0,7,,,,,,,,,,,,,,,,2,,45,72
40560,note_on,,1,0,12,,,,,,,,,,,,,,,,10,,74,72
40560,note_on,,1,0,13,,,,,,,,,,,,,,,,11,,69,72
40560,note_on,,1,0,8,,,,,,,,,,,,,,,,5,,74,88
40619,note_on,,59,0,5,,,,,,,,,,,,,,,,0,,74,0
40619,note_on,,59,0,12,,,,,,,,,,,,,,,,10,,74,0
40619,note_on,,59,0,8,,,,,,,,,,,,,,,,5,,74,0
40619,note_on,,59,0,6,,,,,,,,,,,,,,,,1,,74,0
40620,note_on,,1,0,5,,,,,,,,,,,,,,,,0,,73,72
40620,note_on,,1,0,6,,,,,,,,,,,,,,,,1,,73,72
40620,note_on,,1,0,12,,,,,,,,,,,,,,,,10,,73,72
40620,note_on,,1,0,8,,,,,,,,,,,,,,,,5,,73,88
40679,note_on,,119,0,15,,,,,,,,,,,,,,,,13,,45,0
40679,note_on,,119,0,16,,,,,,,,,,,,,,,,15,,61,0
40679,note_on,,59,0,5,,,,,,,,,,,,,,,,0,,73,0
40679,note_on,,59,0,12,,,,,,,,,,,,,,,,10,,73,0
40679,note_on,,0,0,16,,,,,,,,,,,,,,,,15,,66,0
40679,note_on,,0,0,16,,,,,,,,,,,,,,,,15,,45,0
40679,note_on,,59,0,8,,,,,,,,,,,,,,,,5,,73,0
40679,note_on,,59,0,6,,,,,,,,,,,,,,,,1,,73,0
40679,note_on,,119,0,7,,,,,,,,,,,,,,,,2,,45,0
40679,note_on,,119,0,9,,,,,,,,,,,,,,,,6,,69,0
40679,note_on,,119,0,13,,,,,,,,,,,,,,,,11,,69,0
40680,note_on,,1,0,13,,,,,,,,,,,,,,,,11,,68,72
40680,note_on,,1,0,8,,,,,,,,,,,,,,,,5,,71,88
40680,note_on,,1,0,6,,,,,,,,,,,,,,,,1,,71,72
40680,note_on,,1,0,9,,,,,,,,,,,,,,,,6,,68,88
40680,note_on,,1,0,12,,,,,,,,,,,,,,,,10,,71,72
40680,note_on,,1,0,16,,,,,,,,,,,,,,,,15,,52,72
40680,note_on,,1,0,15,,,,,,,,,,,,,,,,13,,52,72
40680,note_on,,0,0,16,,,,,,,,,,,,,,,,15,,68,72
40680,note_on,,1,0,7,,,,,,,,,,,,,,,,2,,52,72
40680,note_on,,0,0,16,,,,,,,,,,,,,,,,15,,64,72
40680,note_on,,1,0,5,,,,,,,,,,,,,,,,0,,71,72
40680,note_on,,0,0,16,,,,,,,,,,,,,,,,15,,59,72
40799,note_on,,119,0,8,,,,,,,,,,,,,,,,5,,71,0
40799,note_on,,119,0,6,,,,,,,,,,,,,,,,1,,71,0
40799,note_on,,119,0,16,,,,,,,,,,,,,,,,15,,52,0
40799,note_on,,119,0,15,,,,,,,,,,,,,,,,13,,52,0
40799,note_on,,119,0,7,,,,,,,,,,,,,,,,2,,52,0
40799,note_on,,119,0,5,,,,,,,,,,,,,,,,0,,71,0
40799,note_on,,119,0,12,,,,,,,,,,,,,,,,10,,71,0
40800,note_on,,1,0,16,,,,,,,,,,,,,,,,15,,40,72
40800,note_on,,1,0,8,,,,,,,,,,,,,,,,5,,71,88
40800,note_on,,1,0,6,,,,,,,,,,,,,,,,1,,71,72
40800,note_on,,1,0,5,,,,,,,,,,,,,,,,0,,71,72
40800,note_on,,1,0,15,,,,,,,,,,,,,,,,13,,40,72
40800,note_on,,1,0,7,,,,,,,,,,,,,,,,2,,40,72
40800,note_on,,1,0,12,,,,,,,,,,,,,,,,10,,71,72
40859,note_on,,179,0,13,,,,,,,,,,,,,,,,11,,68,0
40859,note_on,,179,0,9,,,,,,,,,,,,,,,,6,,68,0
40860,note_on,,1,0,9,,,,,,,,,,,,,,,,6,,71,88
40860,note_on,,1,0,13,,,,,,,,,,,,,,,,11,,71,72
40919,note_on,,59,0,13,,,,,,,,,,,,,,,,11,,71,0
40919,note_on,,0,0,16,,,,,,,,,,,,,,,,15,,59,0
40919,note_on,,119,0,6,,,,,,,,,,,,,,,,1,,71,0
40919,note_on,,0,0,16,,,,,,,,,,,,,,,,15,,64,0
40919,note_on,,119,0,8,,,,,,,,,,,,,,,,5,,71,0
40919,note_on,,0,0,16,,,,,,,,,,,,,,,,15,,40,0
40919,note_on,,119,0,16,,,,,,,,,,,,,,,,15,,68,0
40919,note_on,,119,0,5,,,,,,,,,,,,,,,,0,,71,0
40919,note_on,,119,0,15,,,,,,,,,,,,,,,,13,,40,0
40919,note_on,,59,0,9,,,,,,,,,,,,,,,,6,,71,0
40919,note_on,,119,0,7,,,,,,,,,,,,,,,,2,,40,0
40919,note_on,,119,0,12,,,,,,,,,,,,,,,,10,,71,0
40920,note_on,,0,0,16,,,,,,,,,,,,,,,,15,,56,72
40920,note_on,,0,0,16,,,,,,,,,,,,,,,,15,,59,72
40920,note_on,,0,0,16,,,,,,,,,,,,,,,,15,,64,72
40920,note_on,,1,0,16,,,,,,,,,,,,,,,,15,,52,72
40920,note_on,,1,0,15,,,,,,,,,,,,,,,,13,,52,72
40920,note_on,,1,0,9,,,,,,,,,,,,,,,,6,,69,88
40920,note_on,,1,0,7,,,,,,,,,,,,,,,,2,,52,72
40920,note_on,,361,0,11,,,,,,,,,,,,,,,,8,,52,88
40920,note_on,,1,0,13,,,,,,,,,,,,,,,,11,,69,72
40979,note_on,,59,0,9,,,,,,,,,,,,,,,,6,,69,0
40979,note_on,,59,0,13,,,,,,,,,,,,,,,,11,,69,0
40980,note_on,,1,0,13,,,,,,,,,,,,,,,,11,,68,72
40980,note_on,,1,0,9,,,,,,,,,,,,,,,,6,,68,88
41039,note_on,,0,0,16,,,,,,,,,,,,,,,,15,,59,0
41039,note_on,,119,0,16,,,,,,,,,,,,,,,,15,,52,0
41039,note_on,,59,0,9,,,,,,,,,,,,,,,,6,,68,0
41039,note_on,,119,0,15,,,,,,,,,,,,,,,,13,,52,0
41039,note_on,,119,0,7,,,,,,,,,,,,,,,,2,,52,0
41039,note_on,,59,0,13,,,,,,,,,,,,,,,,11,,68,0
41039,note_on,,119,0,11,,,,,,,,,,,,,,,,8,,52,0
41039,note_on,,0,0,16,,,,,,,,,,,,,,,,15,,64,0
41039,note_on,,0,0,16,,,,,,,,,,,,,,,,15,,56,0
41040,note_on,,1,0,9,,,,,,,,,,,,,,,,6,,66,88
41040,note_on,,1,0,7,,,,,,,,,,,,,,,,2,,50,72
41040,note_on,,1,0,11,,,,,,,,,,,,,,,,8,,50,88
41040,note_on,,1,0,15,,,,,,,,,,,,,,,,13,,50,72
41040,note_on,,1,0,13,,,,,,,,,,,,,,,,11,,66,72
41040,note_on,,0,0,16,,,,,,,,,,,,,,,,15,,57,72
41040,note_on,,0,0,16,,,,,,,,,,,,,,,,15,,62,72
41040,note_on,,1,0,16,,,,,,,,,,,,,,,,15,,50,72
41040,note_on,,0,0,16,,,,,,,,,,,,,,,,15,,66,72
41159,note_on,,119,0,16,,,,,,,,,,,,,,,,15,,66,0
41159,note_on,,0,0,16,,,,,,,,,,,,,,,,15,,57,0
41159,note_on,,0,0,16,,,,,,,,,,,,,,,,15,,62,0
41160,note_on,,0,0,16,,,,,,,,,,,,,,,,15,,69,72
41160,note_on,,1,0,16,,,,,,,,,,,,,,,,15,,57,72
41160,note_on,,0,0,16,,,,,,,,,,,,,,,,15,,66,72
41160,note_on,,0,0,16,,,,,,,,,,,,,,,,15,,62,72
41219,note_on,,59,0,16,,,,,,,,,,,,,,,,15,,50,0
41219,note_on,,179,0,15,,,,,,,,,,,,,,,,13,,50,0
41219,note_on,,179,0,9,,,,,,,,,,,,,,,,6,,66,0
41219,note_on,,179,0,11,,,,,,,,,,,,,,,,8,,50,0
41219,note_on,,179,0,13,,,,,,,,,,,,,,,,11,,66,0
41219,note_on,,179,0,7,,,,,,,,,,,,,,,,2,,50,0
41220,note_on,,1,0,7,,,,,,,,,,,,,,,,2,,54,72
41220,note_on,,1,0,15,,,,,,,,,,,,,,,,13,,54,72
41220,note_on,,1,0,9,,,,,,,,,,,,,,,,6,,69,88
41220,note_on,,1,0,11,,,,,,,,,,,,,,,,8,,54,88
41220,note_on,,1,0,13,,,,,,,,,,,,,,,,11,,69,72
41220,note_on,,1,0,16,,,,,,,,,,,,,,,,15,,54,72
41279,note_on,,59,0,7,,,,,,,,,,,,,,,,2,,54,0
41279,note_on,,59,0,15,,,,,,,,,,,,,,,,13,,54,0
41279,note_on,,59,0,16,,,,,,,,,,,,,,,,15,,57,0
41279,note_on,,59,0,13,,,,,,,,,,,,,,,,11,,69,0
41279,note_on,,0,0,16,,,,,,,,,,,,,,,,15,,69,0
41279,note_on,,0,0,16,,,,,,,,,,,,,,,,15,,54,0
41279,note_on,,59,0,11,,,,,,,,,,,,,,,,8,,54,0
41279,note_on,,0,0,16,,,,,,,,,,,,,,,,15,,66,0
41279,note_on,,59,0,9,,,,,,,,,,,,,,,,6,,69,0
41280,note_on,,1,0,11,,,,,,,,,,,,,,,,8,,52,88
41280,note_on,,1,0,15,,,,,,,,,,,,,,,,13,,52,72
41280,note_on,,1,0,7,,,,,,,,,,,,,,,,2,,52,72
41280,note_on,,0,0,16,,,,,,,,,,,,,,,,15,,68,72
41280,note_on,,1,0,13,,,,,,,,,,,,,,,,11,,68,72
41280,note_on,,1,0,16,,,,,,,,,,,,,,,,15,,52,72
41280,note_on,,0,0,16,,,,,,,,,,,,,,,,15,,56,72
41280,note_on,,0,0,16,,,,,,,,,,,,,,,,15,,71,72
41280,note_on,,1,0,9,,,,,,,,,,,,,,,,6,,68,88
41339,note_on,,59,0,9,,,,,,,,,,,,,,,,6,,68,0
41339,note_on,,59,0,13,,,,,,,,,,,,,,,,11,,68,0
41339,note_on,,59,0,11,,,,,,,,,,,,,,,,8,,52,0
41339,note_on,,59,0,15,,,,,,,,,,,,,,,,13,,52,0
41339,note_on,,0,0,16,,,,,,,,,,,,,,,,15,,56,0
41339,note_on,,59,0,7,,,,,,,,,,,,,,,,2,,52,0
41339,note_on,,59,0,16,,,,,,,,,,,,,,,,15,,52,0
41340,note_on,,1,0,11,,,,,,,,,,,,,,,,8,,50,88
41340,note_on,,0,0,16,,,,,,,,,,,,,,,,15,,54,72
41340,note_on,,1,0,15,,,,,,,,,,,,,,,,13,,50,72
41340,note_on,,1,0,16,,,,,,,,,,,,,,,,15,,50,72
41340,note_on,,1,0,9,,,,,,,,,,,,,,,,6,,66,88
41340,note_on,,1,0,7,,,,,,,,,,,,,,,,2,,50,72
41340,note_on,,1,0,13,,,,,,,,,,,,,,,,11,,66,72
41399,note_on,,59,0,9,,,,,,,,,,,,,,,,6,,66,0
41399,note_on,,59,0,11,,,,,,,,,,,,,,,,8,,50,0
41399,note_on,,59,0,15,,,,,,,,,,,,,,,,13,,50,0
41399,note_on,,59,0,13,,,,,,,,,,,,,,,,11,,66,0
41399,note_on,,0,0,16,,,,,,,,,,,,,,,,15,,71,0
41399,note_on,,59,0,16,,,,,,,,,,,,,,,,15,,62,0
41399,note_on,,0,0,16,,,,,,,,,,,,,,,,15,,68,0
41399,note_on,,0,0,16,,,,,,,,,,,,,,,,15,,50,0
41399,note_on,,59,0,7,,,,,,,,,,,,,,,,2,,50,0
41399,note_on,,0,0,16,,,,,,,,,,,,,,,,15,,54,0
41400,note_on,,0,0,16,,,,,,,,,,,,,,,,15,,64,72
41400,note_on,,1,0,9,,,,,,,,,,,,,,,,6,,64,88
41400,note_on,,1,0,15,,,,,,,,,,,,,,,,13,,49,72
41400,note_on,,1,0,7,,,,,,,,,,,,,,,,2,,49,72
41400,note_on,,1,0,13,,,,,,,,,,,,,,,,11,,64,72
41400,note_on,,0,0,16,,,,,,,,,,,,,,,,15,,52,72
41400,note_on,,1,0,11,,,,,,,,,,,,,,,,8,,49,88
41400,note_on,,0,0,16,,,,,,,,,,,,,,,,15,,69,72
41400,note_on,,0,0,16,,,,,,,,,,,,,,,,15,,73,72
41400,note_on,,1,0,16,,,,,,,,,,,,,,,,15,,49,72
41519,note_on,,0,0,16,,,,,,,,,,,,,,,,15,,64,0
41519,note_on,,119,0,13,,,,,,,,,,,,,,,,11,,64,0
41519,note_on,,0,0,16,,,,,,,,,,,,,,,,15,,52,0
41519,note_on,,119,0,16,,,,,,,,,,,,,,,,15,,73,0
41519,note_on,,0,0,16,,,,,,,,,,,,,,,,15,,69,0
41519,note_on,,119,0,9,,,,,,,,,,,,,,,,6,,64,0
41520,note_on,,1,0,13,,,,,,,,,,,,,,,,11,,64,72
41520,note_on,,0,0,16,,,,,,,,,,,,,,,,15,,61,72
41520,note_on,,1,0,9,,,,,,,,,,,,,,,,6,,64,88
41520,note_on,,1,0,16,,,,,,,,,,,,,,,,15,,57,72
41520,note_on,,0,0,16,,,,,,,,,,,,,,,,15,,64,72
41579,note_on,,59,0,16,,,,,,,,,,,,,,,,15,,49,0
41579,note_on,,0,0,16,,,,,,,,,,,,,,,,15,,57,0
41579,note_on,,179,0,11,,,,,,,,,,,,,,,,8,,49,0
41579,note_on,,179,0,15,,,,,,,,,,,,,,,,13,,49,0
41579,note_on,,179,0,7,,,,,,,,,,,,,,,,2,,49,0
41580,note_on,,1,0,11,,,,,,,,,,,,,,,,8,,52,88
41580,note_on,,1,0,16,,,,,,,,,,,,,,,,15,,52,72
41580,note_on,,0,0,16,,,,,,,,,,,,,,,,15,,56,72
41580,note_on,,1,0,7,,,,,,,,,,,,,,,,2,,52,72
41580,note_on,,1,0,15,,,,,,,,,,,,,,,,13,,52,72
41639,note_on,,59,0,7,,,,,,,,,,,,,,,,2,,52,0
41639,note_on,,0,0,16,,,,,,,,,,,,,,,,15,,52,0
41639,note_on,,0,0,16,,,,,,,,,,,,,,,,15,,61,0
41639,note_on,,59,0,16,,,,,,,,,,,,,,,,15,,64,0
41639,note_on,,0,0,16,,,,,,,,,,,,,,,,15,,56,0
41639,note_on,,59,0,15,,,,,,,,,,,,,,,,13,,52,0
41639,note_on,,59,0,11,,,,,,,,,,,,,,,,8,,52,0
41639,note_on,,119,0,13,,,,,,,,,,,,,,,,11,,64,0
41639,note_on,,119,0,9,,,,,,,,,,,,,,,,6,,64,0
41640,note_on,,1,0,7,,,,,,,,,,,,,,,,2,,50,72
41640,note_on,,1,0,9,,,,,,,,,,,,,,,,6,,69,88
41640,note_on,,1,0,16,,,,,,,,,,,,,,,,15,,50,72
41640,note_on,,0,0,16,,,,,,,,,,,,,,,,15,,54,72
41640,note_on,,0,0,16,,,,,,,,,,,,,,,,15,,69,72
41640,note_on,,0,0,16,,,,,,,,,,,,,,,,15,,64,72
41640,note_on,,0,0,16,,,,,,,,,,,,,,,,15,,61,72
41640,note_on,,1081,0,14,,,,,,,,,,,,,,,,12,,64,72
41640,note_on,,1,0,13,,,,,,,,,,,,,,,,11,,69,72
41640,note_on,,1081,0,10,,,,,,,,,,,,,,,,7,,64,88
41640,note_on,,1,0,11,,,,,,,,,,,,,,,,8,,50,88
41640,note_on,,1,0,15,,,,,,,,,,,,,,,,13,,50,72
41699,note_on,,0,0,16,,,,,,,,,,,,,,,,15,,54,0
41699,note_on,,59,0,11,,,,,,,,,,,,,,,,8,,50,0
41699,note_on,,59,0,15,,,,,,,,,,,,,,,,13,,50,0
41699,note_on,,59,0,7,,,,,,,,,,,,,,,,2,,50,0
41699,note_on,,59,0,16,,,,,,,,,,,,,,,,15,,50,0
41700,note_on,,1,0,7,,,,,,,,,,,,,,,,2,,49,72
41700,note_on,,1,0,11,,,,,,,,,,,,,,,,8,,49,88
41700,note_on,,0,0,16,,,,,,,,,,,,,,,,15,,52,72
41700,note_on,,1,0,16,,,,,,,,,,,,,,,,15,,49,72
41700,note_on,,1,0,15,,,,,,,,,,,,,,,,13,,49,72
41759,note_on,,0,0,16,,,,,,,,,,,,,,,,15,,64,0
41759,note_on,,59,0,7,,,,,,,,,,,,,,,,2,,49,0
41759,note_on,,59,0,11,,,,,,,,,,,,,,,,8,,49,0
41759,note_on,,0,0,16,,,,,,,,,,,,,,,,15,,49,0
41759,note_on,,0,0,16,,,,,,,,,,,,,,,,15,,52,0
41759,note_on,,119,0,10,,,,,,,,,,,,,,,,7,,64,0
41759,note_on,,119,0,13,,,,,,,,,,,,,,,,11,,69,0
41759,note_on,,119,0,14,,,,,,,,,,,,,,,,12,,64,0
41759,note_on,,119,0,9,,,,,,,,,,,,,,,,6,,69,0
41759,note_on,,59,0,15,,,,,,,,,,,,,,,,13,,49,0
41759,note_on,,0,0,16,,,,,,,,,,,,,,,,15,,61,0
41759,note_on,,59,0,16,,,,,,,,,,,,,,,,15,,69,0
41760,note_on,,1,0,13,,,,,,,,,,,,,,,,11,,68,72
41760,note_on,,1,0,10,,,,,,,,,,,,,,,,7,,62,88
41760,note_on,,1,0,9,,,,,,,,,,,,,,,,6,,68,88
41760,note_on,,1,0,11,,,,,,,,,,,,,,,,8,,47,88
41760,note_on,,1,0,15,,,,,,,,,,,,,,,,13,,47,72
41760,note_on,,1,0,16,,,,,,,,,,,,,,,,15,,47,72
41760,note_on,,0,0,16,,,,,,,,,,,,,,,,15,,74,72
41760,note_on,,0,0,16,,,,,,,,,,,,,,,,15,,68,72
41760,note_on,,0,0,16,,,,,,,,,,,,,,,,15,,62,72
41760,note_on,,0,0,16,,,,,,,,,,,,,,,,15,,50,72
41760,note_on,,1,0,14,,,,,,,,,,,,,,,,12,,62,72
41760,note_on,,1,0,7,,,,,,,,,,,,,,,,2,,47,72
41879,note_on,,119,0,11,,,,,,,,,,,,,,,,8,,47,0
41879,note_on,,119,0,13,,,,,,,,,,,,,,,,11,,68,0
41879,note_on,,119,0,15,,,,,,,,,,,,,,,,13,,47,0
41879,note_on,,119,0,16,,,,,,,,,,,,,,,,15,,47,0
41879,note_on,,119,0,9,,,,,,,,,,,,,,,,6,,68,0
41879,note_on,,119,0,7,,,,,,,,,,,,,,,,2,,47,0
41880,note_on,,1,0,7,,,,,,,,,,,,,,,,2,,47,72
41880,note_on,,1,0,15,,,,,,,,,,,,,,,,13,,47,72
41880,note_on,,1,0,11,,,,,,,,,,,,,,,,8,,47,88
41880,note_on,,1,0,9,,,,,,,,,,,,,,,,6,,68,88
41880,note_on,,1,0,13,,,,,,,,,,,,,,,,11,,68,72
41880,note_on,,1,0,16,,,,,,,,,,,,,,,,15,,47,72
41939,note_on,,179,0,14,,,,,,,,,,,,,,,,12,,62,0
41939,note_on,,179,0,10,,,,,,,,,,,,,,,,7,,62,0
41940,note_on,,1,0,14,,,,,,,,,,,,,,,,12,,66,72
41940,note_on,,1,0,10,,,,,,,,,,,,,,,,7,,66,88
41999,note_on,,59,0,14,,,,,,,,,,,,,,,,12,,66,0
41999,note_on,,119,0,9,,,,,,,,,,,,,,,,6,,68,0
41999,note_on,,0,0,16,,,,,,,,,,,,,,,,15,,47,0
41999,note_on,,0,0,16,,,,,,,,,,,,,,,,15,,50,0
41999,note_on,,0,0,16,,,,,,,,,,,,,,,,15,,62,0
41999,note_on,,0,0,16,,,,,,,,,,,,,,,,15,,68,0
41999,note_on,,59,0,10,,,,,,,,,,,,,,,,7,,66,0
41999,note_on,,119,0,7,,,,,,,,,,,,,,,,2,,47,0
41999,note_on,,119,0,16,,,,,,,,,,,,,,,,15,,74,0
41999,note_on,,119,0,11,,,,,,,,,,,,,,,,8,,47,0
41999,note_on,,119,0,15,,,,,,,,,,,,,,,,13,,47,0
41999,note_on,,119,0,13,,,,,,,,,,,,,,,,11,,68,0
42000,note_on,,1,0,11,,,,,,,,,,,,,,,,8,,52,88
42000,note_on,,0,0,16,,,,,,,,,,,,,,,,15,,59,72
42000,note_on,,0,0,16,,,,,,,,,,,,,,,,15,,64,72
42000,note_on,,0,0,16,,,,,,,,,,,,,,,,15,,68,72
42000,note_on,,0,0,16,,,,,,,,,,,,,,,,15,,71,72
42000,note_on,,1,0,16,,,,,,,,,,,,,,,,15,,52,72
42000,note_on,,1,0,15,,,,,,,,,,,,,,,,13,,52,72
42000,note_on,,1,0,7,,,,,,,,,,,,,,,,2,,52,72
42000,note_on,,1,0,10,,,,,,,,,,,,,,,,7,,64,88
42000,note_on,,1,0,14,,,,,,,,,,,,,,,,12,,64,72
42059,note_on,,59,0,10,,,,,,,,,,,,,,,,7,,64,0
42059,note_on,,59,0,14,,,,,,,,,,,,,,,,12,,64,0
42060,note_on,,1,0,10,,,,,,,,,,,,,,,,7,,62,88
42060,note_on,,1,0,14,,,,,,,,,,,,,,,,12,,62,72
42119,note_on,,119,0,15,,,,,,,,,,,,,,,,13,,52,0
42119,note_on,,119,0,11,,,,,,,,,,,,,,,,8,,52,0
42119,note_on,,119,0,7,,,,,,,,,,,,,,,,2,,52,0
42119,note_on,,0,0,16,,,,,,,,,,,,,,,,15,,71,0
42119,note_on,,0,0,16,,,,,,,,,,,,,,,,15,,59,0
42119,note_on,,0,0,16,,,,,,,,,,,,,,,,15,,64,0
42119,note_on,,0,0,16,,,,,,,,,,,,,,,,15,,68,0
42119,note_on,,59,0,10,,,,,,,,,,,,,,,,7,,62,0
42119,note_on,,119,0,16,,,,,,,,,,,,,,,,15,,52,0
42119,note_on,,59,0,14,,,,,,,,,,,,,,,,12,,62,0
42120,note_on,,0,0,16,,,,,,,,,,,,,,,,15,,64,72
42120,note_on,,1,0,11,,,,,,,,,,,,,,,,8,,57,88
42120,note_on,,1,0,16,,,,,,,,,,,,,,,,15,,57,72
42120,note_on,,0,0,16,,,,,,,,,,,,,,,,15,,73,72
42120,note_on,,0,0,16,,,,,,,,,,,,,,,,15,,69,72
42120,note_on,,1,0,15,,,,,,,,,,,,,,,,13,,57,72
42120,note_on,,1,0,7,,,,,,,,,,,,,,,,2,,57,72
42120,note_on,,1,0,10,,,,,,,,,,,,,,,,7,,61,88
42120,note_on,,1,0,14,,,,,,,,,,,,,,,,12,,61,72
42240,note_on,,241,0,9,,,,,,,,,,,,,,,,6,,64,88
42240,note_on,,1321,0,12,,,,,,,,,,,,,,,,10,,76,72
42299,note_on,,179,0,10,,,,,,,,,,,,,,,,7,,61,0
42299,note_on,,179,0,14,,,,,,,,,,,,,,,,12,,61,0
42300,note_on,,1,0,14,,,,,,,,,,,,,,,,12,,64,72
42300,note_on,,1,0,10,,,,,,,,,,,,,,,,7,,64,88
42359,note_on,,239,0,7,,,,,,,,,,,,,,,,2,,57,0
42359,note_on,,119,0,12,,,,,,,,,,,,,,,,10,,76,0
42359,note_on,,239,0,15,,,,,,,,,,,,,,,,13,,57,0
42359,note_on,,119,0,9,,,,,,,,,,,,,,,,6,,64,0
42359,note_on,,59,0,10,,,,,,,,,,,,,,,,7,,64,0
42359,note_on,,59,0,14,,,,,,,,,,,,,,,,12,,64,0
42360,note_on,,1,0,15,,,,,,,,,,,,,,,,13,,45,72
42360,note_on,,1,0,7,,,,,,,,,,,,,,,,2,,45,72
42360,note_on,,1,0,9,,,,,,,,,,,,,,,,6,,69,88
42360,note_on,,1,0,14,,,,,,,,,,,,,,,,12,,62,72
42360,note_on,,240,0,16,,,,,,,,,,,,,,,,15,,45,72
42360,note_on,,1,0,12,,,,,,,,,,,,,,,,10,,81,72
42360,note_on,,1,0,10,,,,,,,,,,,,,,,,7,,62,88
42419,note_on,,59,0,14,,,,,,,,,,,,,,,,12,,62,0
42419,note_on,,59,0,10,,,,,,,,,,,,,,,,7,,62,0
42420,note_on,,1,0,10,,,,,,,,,,,,,,,,7,,61,88
42420,note_on,,1,0,14,,,,,,,,,,,,,,,,12,,61,72
42479,note_on,,59,0,10,,,,,,,,,,,,,,,,7,,61,0
42479,note_on,,119,0,16,,,,,,,,,,,,,,,,15,,57,0
42479,note_on,,0,0,16,,,,,,,,,,,,,,,,15,,73,0
42479,note_on,,0,0,16,,,,,,,,,,,,,,,,15,,69,0
42479,note_on,,119,0,7,,,,,,,,,,,,,,,,2,,45,0
42479,note_on,,119,0,12,,,,,,,,,,,,,,,,10,,81,0
42479,note_on,,59,0,14,,,,,,,,,,,,,,,,12,,61,0
42479,note_on,,0,0,16,,,,,,,,,,,,,,,,15,,64,0
42479,note_on,,0,0,16,,,,,,,,,,,,,,,,15,,45,0
42479,note_on,,359,0,11,,,,,,,,,,,,,,,,8,,57,0
42479,note_on,,119,0,15,,,,,,,,,,,,,,,,13,,45,0
42479,note_on,,119,0,9,,,,,,,,,,,,,,,,6,,69,0
42480,note_on,,1,0,12,,,,,,,,,,,,,,,,10,,80,72
42480,note_on,,0,0,16,,,,,,,,,,,,,,,,15,,59,72
42480,note_on,,0,0,16,,,,,,,,,,,,,,,,15,,71,72
42480,note_on,,1,0,14,,,,,,,,,,,,,,,,12,,59,72
42480,note_on,,1,0,15,,,,,,,,,,,,,,,,13,,52,72
42480,note_on,,1,0,10,,,,,,,,,,,,,,,,7,,59,88
42480,note_on,,1,0,11,,,,,,,,,,,,,,,,8,,52,88
42480,note_on,,1,0,16,,,,,,,,,,,,,,,,15,,52,72
42480,note_on,,1,0,9,,,,,,,,,,,,,,,,6,,68,88
42480,note_on,,1,0,7,,,,,,,,,,,,,,,,2,,52,72
42480,note_on,,0,0,16,,,,,,,,,,,,,,,,15,,64,72
42480,note_on,,0,0,16,,,,,,,,,,,,,,,,15,,68,72
42539,note_on,,59,0,12,,,,,,,,,,,,,,,,10,,80,0
42539,note_on,,59,0,9,,,,,,,,,,,,,,,,6,,68,0
42540,note_on,,1,0,12,,,,,,,,,,,,,,,,10,,78,72
42540,note_on,,1,0,9,,,,,,,,,,,,,,,,6,,66,88
42599,note_on,,119,0,7,,,,,,,,,,,,,,,,2,,52,0
42599,note_on,,119,0,10,,,,,,,,,,,,,,,,7,,59,0
42599,note_on,,119,0,16,,,,,,,,,,,,,,,,15,,52,0
42599,note_on,,59,0,12,,,,,,,,,,,,,,,,10,,78,0
42599,note_on,,119,0,15,,,,,,,,,,,,,,,,13,,52,0
42599,note_on,,119,0,14,,,,,,,,,,,,,,,,12,,59,0
42599,note_on,,59,0,9,,,,,,,,,,,,,,,,6,,66,0
42599,note_on,,119,0,11,,,,,,,,,,,,,,,,8,,52,0
42600,note_on,,1681,0,8,,,,,,,,,,,,,,,,5,,71,88
42600,note_on,,1,0,9,,,,,,,,,,,,,,,,6,,64,88
42600,note_on,,1,0,10,,,,,,,,,,,,,,,,7,,56,88
42600,note_on,,1681,0,5,,,,,,,,,,,,,,,,0,,71,72
42600,note_on,,1,0,7,,,,,,,,,,,,,,,,2,,52,72
42600,note_on,,1,0,16,,,,,,,,,,,,,,,,15,,52,72
42600,note_on,,1,0,12,,,,,,,,,,,,,,,,10,,76,72
42600,note_on,,601,0,13,,,,,,,,,,,,,,,,11,,71,72
42600,note_on,,1681,0,6,,,,,,,,,,,,,,,,1,,71,72
42600,note_on,,1,0,11,,,,,,,,,,,,,,,,8,,52,88
42600,note_on,,1,0,15,,,,,,,,,,,,,,,,13,,52,72
42600,note_on,,1,0,14,,,,,,,,,,,,,,,,12,,56,72
42719,note_on,,119,0,14,,,,,,,,,,,,,,,,12,,56,0
42719,note_on,,119,0,13,,,,,,,,,,,,,,,,11,,71,0
42719,note_on,,0,0,16,,,,,,,,,,,,,,,,15,,52,0
42719,note_on,,0,0,16,,,,,,,,,,,,,,,,15,,59,0
42719,note_on,,119,0,6,,,,,,,,,,,,,,,,1,,71,0
42719,note_on,,119,0,12,,,,,,,,,,,,,,,,10,,76,0
42719,note_on,,119,0,5,,,,,,,,,,,,,,,,0,,71,0
42719,note_on,,119,0,7,,,,,,,,,,,,,,,,2,,52,0
42719,note_on,,119,0,9,,,,,,,,,,,,,,,,6,,64,0
42719,note_on,,0,0,16,,,,,,,,,,,,,,,,15,,68,0
42719,note_on,,119,0,16,,,,,,,,,,,,,,,,15,,71,0
42719,note_on,,119,0,8,,,,,,,,,,,,,,,,5,,71,0
42719,note_on,,119,0,11,,,,,,,,,,,,,,,,8,,52,0
42719,note_on,,119,0,10,,,,,,,,,,,,,,,,7,,56,0
42719,note_on,,119,0,15,,,,,,,,,,,,,,,,13,,52,0
42719,note_on,,0,0,16,,,,,,,,,,,,,,,,15,,64,0
42720,note_on,,1,0,13,,,,,,,,,,,,,,,,11,,76,72
42720,note_on,,1,0,11,,,,,,,,,,,,,,,,8,,52,88
42720,note_on,,1,0,14,,,,,,,,,,,,,,,,12,,56,72
42720,note_on,,1,0,6,,,,,,,,,,,,,,,,1,,76,72
42720,note_on,,1,0,7,,,,,,,,,,,,,,,,2,,52,72
42720,note_on,,1,0,8,,,,,,,,,,,,,,,,5,,76,88
42720,note_on,,0,0,16,,,,,,,,,,,,,,,,15,,71,72
42720,note_on,,0,0,16,,,,,,,,,,,,,,,,15,,76,72
42720,note_on,,1,0,16,,,,,,,,,,,,,,,,15,,52,72
42720,note_on,,1,0,5,,,,,,,,,,,,,,,,0,,76,72
42720,note_on,,1,0,10,,,,,,,,,,,,,,,,7,,56,88
42720,note_on,,1,0,15,,,,,,,,,,,,,,,,13,,52,72
42720,note_on,,0,0,16,,,,,,,,,,,,,,,,15,,56,72
42720,note_on,,0,0,16,,,,,,,,,,,,,,,,15,,64,72
42839,note_on,,119,0,15,,,,,,,,,,,,,,,,13,,52,0
42839,note_on,,119,0,7,,,,,,,,,,,,,,,,2,,52,0
42839,note_on,,0,0,16,,,,,,,,,,,,,,,,15,,56,0
42839,note_on,,119,0,14,,,,,,,,,,,,,,,,12,,56,0
42839,note_on,,119,0,16,,,,,,,,,,,,,,,,15,,52,0
42839,note_on,,119,0,11,,,,,,,,,,,,,,,,8,,52,0
42839,note_on,,119,0,13,,,,,,,,,,,,,,,,11,,76,0
42839,note_on,,0,0,16,,,,,,,,,,,,,,,,15,,71,0
42839,note_on,,0,0,16,,,,,,,,,,,,,,,,15,,76,0
42839,note_on,,119,0,6,,,,,,,,,,,,,,,,1,,76,0
42839,note_on,,119,0,8,,,,,,,,,,,,,,,,5,,76,0
42839,note_on,,119,0,5,,,,,,,,,,,,,,,,0,,76,0
42839,note_on,,119,0,10,,,,,,,,,,,,,,,,7,,56,0
42839,note_on,,0,0,16,,,,,,,,,,,,,,,,15,,64,0
42840,note_on,,0,0,16,,,,,,,,,,,,,,,,15,,76,72
42840,note_on,,0,0,16,,,,,,,,,,,,,,,,15,,73,72
42840,note_on,,1,0,8,,,,,,,,,,,,,,,,5,,73,88
42840,note_on,,1,0,16,,,,,,,,,,,,,,,,15,,52,72
42840,note_on,,1,0,14,,,,,,,,,,,,,,,,12,,64,72
42840,note_on,,1,0,5,,,,,,,,,,,,,,,,0,,73,72
42840,note_on,,0,0,16,,,,,,,,,,,,,,,,15,,64,72
42840,note_on,,0,0,16,,,,,,,,,,,,,,,,15,,69,72
42840,note_on,,1,0,11,,,,,,,,,,,,,,,,8,,52,88
42840,note_on,,0,0,16,,,,,,,,,,,,,,,,15,,57,72
42840,note_on,,1,0,7,,,,,,,,,,,,,,,,2,,52,72
42840,note_on,,1,0,10,,,,,,,,,,,,,,,,7,,64,88
42840,note_on,,1,0,6,,,,,,,,,,,,,,,,1,,73,72
42840,note_on,,1,0,13,,,,,,,,,,,,,,,,11,,73,72
42840,note_on,,1,0,15,,,,,,,,,,,,,,,,13,,52,72
42899,note_on,,59,0,10,,,,,,,,,,,,,,,,7,,64,0
42899,note_on,,59,0,14,,,,,,,,,,,,,,,,12,,64,0
42899,note_on,,59,0,5,,,,,,,,,,,,,,,,0,,73,0
42899,note_on,,59,0,6,,,,,,,,,,,,,,,,1,,73,0
42899,note_on,,59,0,13,,,,,,,,,,,,,,,,11,,73,0
42899,note_on,,59,0,8,,,,,,,,,,,,,,,,5,,73,0
42900,note_on,,1,0,13,,,,,,,,,,,,,,,,11,,71,72
42900,note_on,,1,0,8,,,,,,,,,,,,,,,,5,,71,88
42900,note_on,,1,0,10,,,,,,,,,,,,,,,,7,,62,88
42900,note_on,,1,0,5,,,,,,,,,,,,,,,,0,,71,72
42900,note_on,,1,0,14,,,,,,,,,,,,,,,,12,,62,72
42900,note_on,,1,0,6,,,,,,,,,,,,,,,,1,,71,72
42959,note_on,,59,0,14,,,,,,,,,,,,,,,,12,,62,0
42959,note_on,,59,0,5,,,,,,,,,,,,,,,,0,,71,0
42959,note_on,,59,0,8,,,,,,,,,,,,,,,,5,,71,0
42959,note_on,,59,0,10,,,,,,,,,,,,,,,,7,,62,0
42959,note_on,,59,0,6,,,,,,,,,,,,,,,,1,,71,0
42959,note_on,,59,0,13,,,,,,,,,,,,,,,,11,,71,0
42960,note_on,,1,0,8,,,,,,,,,,,,,,,,5,,69,88
42960,note_on,,1,0,14,,,,,,,,,,,,,,,,12,,61,72
42960,note_on,,1,0,5,,,,,,,,,,,,,,,,0,,69,72
42960,note_on,,1,0,10,,,,,,,,,,,,,,,,7,,61,88
42960,note_on,,1,0,6,,,,,,,,,,,,,,,,1,,69,72
42960,note_on,,1,0,13,,,,,,,,,,,,,,,,11,,69,72
43079,note_on,,119,0,10,,,,,,,,,,,,,,,,7,,61,0
43079,note_on,,119,0,6,,,,,,,,,,,,,,,,1,,69,0
43079,note_on,,119,0,13,,,,,,,,,,,,,,,,11,,69,0
43079,note_on,,119,0,14,,,,,,,,,,,,,,,,12,,61,0
43079,note_on,,119,0,5,,,,,,,,,,,,,,,,0,,69,0
43079,note_on,,119,0,8,,,,,,,,,,,,,,,,5,,69,0
43080,note_on,,1,0,14,,,,,,,,,,,,,,,,12,,61,72
43080,note_on,,1,0,5,,,,,,,,,,,,,,,,0,,73,72
43080,note_on,,361,0,12,,,,,,,,,,,,,,,,10,,81,72
43080,note_on,,1,0,10,,,,,,,,,,,,,,,,7,,61,88
43080,note_on,,1,0,8,,,,,,,,,,,,,,,,5,,73,88
43080,note_on,,1,0,6,,,,,,,,,,,,,,,,1,,73,72
43080,note_on,,361,0,9,,,,,,,,,,,,,,,,6,,69,88
43080,note_on,,1,0,13,,,,,,,,,,,,,,,,11,,73,72
43199,note_on,,359,0,16,,,,,,,,,,,,,,,,15,,52,0
43199,note_on,,119,0,13,,,,,,,,,,,,,,,,11,,73,0
43199,note_on,,359,0,15,,,,,,,,,,,,,,,,13,,52,0
43199,note_on,,359,0,7,,,,,,,,,,,,,,,,2,,52,0
43199,note_on,,359,0,11,,,,,,,,,,,,,,,,8,,52,0
43199,note_on,,119,0,12,,,,,,,,,,,,,,,,10,,81,0
43199,note_on,,119,0,14,,,,,,,,,,,,,,,,12,,61,0
43199,note_on,,119,0,10,,,,,,,,,,,,,,,,7,,61,0
43199,note_on,,119,0,9,,,,,,,,,,,,,,,,6,,69,0
43199,note_on,,119,0,5,,,,,,,,,,,,,,,,0,,73,0
43199,note_on,,0,0,16,,,,,,,,,,,,,,,,15,,73,0
43199,note_on,,0,0,16,,,,,,,,,,,,,,,,15,,69,0
43199,note_on,,0,0,16,,,,,,,,,,,,,,,,15,,64,0
43199,note_on,,0,0,16,,,,,,,,,,,,,,,,15,,76,0
43199,note_on,,119,0,6,,,,,,,,,,,,,,,,1,,73,0
43199,note_on,,119,0,8,,,,,,,,,,,,,,,,5,,73,0
43199,note_on,,0,0,16,,,,,,,,,,,,,,,,15,,57,0
43200,note_on,,1,0,16,,,,,,,,,,,,,,,,15,,52,72
43200,note_on,,1,0,14,,,,,,,,,,,,,,,,12,,64,72
43200,note_on,,1,0,9,,,,,,,,,,,,,,,,6,,68,88
43200,note_on,,1,0,8,,,,,,,,,,,,,,,,5,,71,88
43200,note_on,,1,0,15,,,,,,,,,,,,,,,,13,,52,72
43200,note_on,,1,0,7,,,,,,,,,,,,,,,,2,,52,72
43200,note_on,,1,0,13,,,,,,,,,,,,,,,,11,,71,72
43200,note_on,,1,0,12,,,,,,,,,,,,,,,,10,,80,72
43200,note_on,,1,0,6,,,,,,,,,,,,,,,,1,,71,72
43200,note_on,,1,0,11,,,,,,,,,,,,,,,,8,,52,88
43200,note_on,,1,0,10,,,,,,,,,,,,,,,,7,,64,88
43200,note_on,,0,0,16,,,,,,,,,,,,,,,,15,,59,72
43200,note_on,,0,0,16,,,,,,,,,,,,,,,,15,,64,72
43200,note_on,,0,0,16,,,,,,,,,,,,,,,,15,,68,72
43200,note_on,,0,0,16,,,,,,,,,,,,,,,,15,,71,72
43200,note_on,,1,0,5,,,,,,,,,,,,,,,,0,,71,72
43259,note_on,,59,0,9,,,,,,,,,,,,,,,,6,,68,0
43259,note_on,,59,0,6,,,,,,,,,,,,,,,,1,,71,0
43259,note_on,,59,0,5,,,,,,,,,,,,,,,,0,,71,0
43259,note_on,,59,0,12,,,,,,,,,,,,,,,,10,,80,0
43259,note_on,,59,0,13,,,,,,,,,,,,,,,,11,,71,0
43259,note_on,,59,0,8,,,,,,,,,,,,,,,,5,,71,0
43260,note_on,,1,0,5,,,,,,,,,,,,,,,,0,,69,72
43260,note_on,,1,0,12,,,,,,,,,,,,,,,,10,,78,72
43260,note_on,,1,0,6,,,,,,,,,,,,,,,,1,,69,72
43260,note_on,,1,0,13,,,,,,,,,,,,,,,,11,,69,72
43260,note_on,,1,0,9,,,,,,,,,,,,,,,,6,,66,88
43260,note_on,,1,0,8,,,,,,,,,,,,,,,,5,,69,88
43319,note_on,,59,0,6,,,,,,,,,,,,,,,,1,,69,0
43319,note_on,,59,0,13,,,,,,,,,,,,,,,,11,,69,0
43319,note_on,,59,0,8,,,,,,,,,,,,,,,,5,,69,0
43319,note_on,,59,0,5,,,,,,,,,,,,,,,,0,,69,0
43319,note_on,,119,0,10,,,,,,,,,,,,,,,,7,,64,0
43319,note_on,,119,0,14,,,,,,,,,,,,,,,,12,,64,0
43319,note_on,,59,0,9,,,,,,,,,,,,,,,,6,,66,0
43319,note_on,,59,0,12,,,,,,,,,,,,,,,,10,,78,0
43320,note_on,,1,0,9,,,,,,,,,,,,,,,,6,,64,88
43320,note_on,,1,0,6,,,,,,,,,,,,,,,,1,,68,72
43320,note_on,,1,0,13,,,,,,,,,,,,,,,,11,,68,72
43320,note_on,,1,0,5,,,,,,,,,,,,,,,,0,,68,72
43320,note_on,,1,0,8,,,,,,,,,,,,,,,,5,,68,88
43320,note_on,,1,0,14,,,,,,,,,,,,,,,,12,,59,72
43320,note_on,,1,0,12,,,,,,,,,,,,,,,,10,,76,72
43320,note_on,,1,0,10,,,,,,,,,,,,,,,,7,,59,88
43439,note_on,,239,0,15,,,,,,,,,,,,,,,,13,,52,0
43439,note_on,,239,0,7,,,,,,,,,,,,,,,,2,,52,0
43439,note_on,,239,0,16,,,,,,,,,,,,,,,,15,,52,0
43439,note_on,,119,0,14,,,,,,,,,,,,,,,,12,,59,0
43439,note_on,,119,0,10,,,,,,,,,,,,,,,,7,,59,0
43439,note_on,,0,0,16,,,,,,,,,,,,,,,,15,,71,0
43439,note_on,,239,0,11,,,,,,,,,,,,,,,,8,,52,0
43439,note_on,,119,0,13,,,,,,,,,,,,,,,,11,,68,0
43439,note_on,,0,0,16,,,,,,,,,,,,,,,,15,,64,0
43439,note_on,,119,0,5,,,,,,,,,,,,,,,,0,,68,0
43439,note_on,,119,0,12,,,,,,,,,,,,,,,,10,,76,0
43439,note_on,,119,0,8,,,,,,,,,,,,,,,,5,,68,0
43439,note_on,,0,0,16,,,,,,,,,,,,,,,,15,,59,0
43439,note_on,,119,0,6,,,,,,,,,,,,,,,,1,,68,0
43439,note_on,,119,0,9,,,,,,,,,,,,,,,,6,,64,0
43439,note_on,,0,0,16,,,,,,,,,,,,,,,,15,,68,0
43440,note_on,,1,0,13,,,,,,,,,,,,,,,,11,,73,72
43440,note_on,,0,0,16,,,,,,,,,,,,,,,,15,,57,72
43440,note_on,,1,0,10,,,,,,,,,,,,,,,,7,,64,88
43440,note_on,,0,0,16,,,,,,,,,,,,,,,,15,,76,72
43440,note_on,,0,0,16,,,,,,,,,,,,,,,,15,,73,72
43440,note_on,,1,0,16,,,,,,,,,,,,,,,,15,,52,72
43440,note_on,,1,0,7,,,,,,,,,,,,,,,,2,,52,72
43440,note_on,,1,0,14,,,,,,,,,,,,,,,,12,,64,72
43440,note_on,,1,0,8,,,,,,,,,,,,,,,,5,,73,88
43440,note_on,,1,0,9,,,,,,,,,,,,,,,,6,,69,88
43440,note_on,,1,0,6,,,,,,,,,,,,,,,,1,,73,72
43440,note_on,,1,0,5,,,,,,,,,,,,,,,,0,,73,72
43440,note_on,,1,0,12,,,,,,,,,,,,,,,,10,,81,72
43440,note_on,,0,0,16,,,,,,,,,,,,,,,,15,,64,72
43440,note_on,,1,0,11,,,,,,,,,,,,,,,,8,,52,88
43440,note_on,,0,0,16,,,,,,,,,,,,,,,,15,,69,72
43440,note_on,,1,0,15,,,,,,,,,,,,,,,,13,,52,72
43559,note_on,,0,0,16,,,,,,,,,,,,,,,,15,,76,0
43559,note_on,,119,0,16,,,,,,,,,,,,,,,,15,,52,0
43559,note_on,,0,0,16,,,,,,,,,,,,,,,,15,,64,0
43559,note_on,,119,0,12,,,,,,,,,,,,,,,,10,,81,0
43559,note_on,,0,0,16,,,,,,,,,,,,,,,,15,,73,0
43559,note_on,,0,0,16,,,,,,,,,,,,,,,,15,,69,0
43559,note_on,,119,0,8,,,,,,,,,,,,,,,,5,,73,0
43559,note_on,,119,0,11,,,,,,,,,,,,,,,,8,,52,0
43559,note_on,,0,0,16,,,,,,,,,,,,,,,,15,,57,0
43559,note_on,,119,0,13,,,,,,,,,,,,,,,,11,,73,0
43559,note_on,,119,0,10,,,,,,,,,,,,,,,,7,,64,0
43559,note_on,,119,0,14,,,,,,,,,,,,,,,,12,,64,0
43559,note_on,,119,0,6,,,,,,,,,,,,,,,,1,,73,0
43559,note_on,,119,0,5,,,,,,,,,,,,,,,,0,,73,0
43559,note_on,,119,0,9,,,,,,,,,,,,,,,,6,,69,0
43559,note_on,,119,0,15,,,,,,,,,,,,,,,,13,,52,0
43559,note_on,,119,0,7,,,,,,,,,,,,,,,,2,,52,0
43560,note_on,,1,0,13,,,,,,,,,,,,,,,,11,,71,72
43560,note_on,,1,0,8,,,,,,,,,,,,,,,,5,,71,88
43560,note_on,,1,0,5,,,,,,,,,,,,,,,,0,,71,72
43560,note_on,,1,0,6,,,,,,,,,,,,,,,,1,,71,72
43560,note_on,,1,0,9,,,,,,,,,,,,,,,,6,,68,88
43560,note_on,,1,0,12,,,,,,,,,,,,,,,,10,,80,72
43560,note_on,,1,0,11,,,,,,,,,,,,,,,,8,,52,88
43560,note_on,,1,0,7,,,,,,,,,,,,,,,,2,,52,72
43560,note_on,,0,0,16,,,,,,,,,,,,,,,,15,,59,72
43560,note_on,,0,0,16,,,,,,,,,,,,,,,,15,,64,72
43560,note_on,,0,0,16,,,,,,,,,,,,,,,,15,,68,72
43560,note_on,,0,0,16,,,,,,,,,,,,,,,,15,,71,72
43560,note_on,,1,0,16,,,,,,,,,,,,,,,,15,,52,72
43560,note_on,,1,0,15,,,,,,,,,,,,,,,,13,,52,72
43560,note_on,,1,0,10,,,,,,,,,,,,,,,,7,,64,88
43560,note_on,,1,0,14,,,,,,,,,,,,,,,,12,,64,72
43619,note_on,,59,0,12,,,,,,,,,,,,,,,,10,,80,0
43619,note_on,,59,0,9,,,,,,,,,,,,,,,,6,,68,0
43619,note_on,,59,0,6,,,,,,,,,,,,,,,,1,,71,0
43619,note_on,,59,0,5,,,,,,,,,,,,,,,,0,,71,0
43619,note_on,,59,0,13,,,,,,,,,,,,,,,,11,,71,0
43619,note_on,,59,0,8,,,,,,,,,,,,,,,,5,,71,0
43620,note_on,,1,0,13,,,,,,,,,,,,,,,,11,,69,72
43620,note_on,,1,0,5,,,,,,,,,,,,,,,,0,,69,72
43620,note_on,,1,0,12,,,,,,,,,,,,,,,,10,,78,72
43620,note_on,,1,0,9,,,,,,,,,,,,,,,,6,,66,88
43620,note_on,,1,0,6,,,,,,,,,,,,,,,,1,,69,72
43620,note_on,,1,0,8,,,,,,,,,,,,,,,,5,,69,88
43679,note_on,,119,0,14,,,,,,,,,,,,,,,,12,,64,0
43679,note_on,,59,0,5,,,,,,,,,,,,,,,,0,,69,0
43679,note_on,,59,0,12,,,,,,,,,,,,,,,,10,,78,0
43679,note_on,,119,0,10,,,,,,,,,,,,,,,,7,,64,0
43679,note_on,,59,0,8,,,,,,,,,,,,,,,,5,,69,0
43679,note_on,,59,0,9,,,,,,,,,,,,,,,,6,,66,0
43679,note_on,,59,0,6,,,,,,,,,,,,,,,,1,,69,0
43679,note_on,,59,0,13,,,,,,,,,,,,,,,,11,,69,0
43680,note_on,,1,0,12,,,,,,,,,,,,,,,,10,,76,72
43680,note_on,,1,0,10,,,,,,,,,,,,,,,,7,,59,88
43680,note_on,,1,0,13,,,,,,,,,,,,,,,,11,,68,72
43680,note_on,,1,0,6,,,,,,,,,,,,,,,,1,,68,72
43680,note_on,,1,0,14,,,,,,,,,,,,,,,,12,,59,72
43680,note_on,,1,0,8,,,,,,,,,,,,,,,,5,,68,88
43680,note_on,,1,0,5,,,,,,,,,,,,,,,,0,,68,72
43680,note_on,,1,0,9,,,,,,,,,,,,,,,,6,,64,88
43799,note_on,,0,0,16,,,,,,,,,,,,,,,,15,,59,0
43799,note_on,,0,0,16,,,,,,,,,,,,,,,,15,,64,0
43799,note_on,,119,0,12,,,,,,,,,,,,,,,,10,,76,0
43799,note_on,,0,0,16,,,,,,,,,,,,,,,,15,,68,0
43799,note_on,,0,0,16,,,,,,,,,,,,,,,,15,,71,0
43799,note_on,,239,0,16,,,,,,,,,,,,,,,,15,,52,0
43799,note_on,,119,0,6,,,,,,,,,,,,,,,,1,,68,0
43799,note_on,,119,0,14,,,,,,,,,,,,,,,,12,,59,0
43799,note_on,,239,0,7,,,,,,,,,,,,,,,,2,,52,0
43799,note_on,,119,0,13,,,,,,,,,,,,,,,,11,,68,0
43799,note_on,,119,0,9,,,,,,,,,,,,,,,,6,,64,0
43799,note_on,,239,0,15,,,,,,,,,,,,,,,,13,,52,0
43799,note_on,,119,0,10,,,,,,,,,,,,,,,,7,,59,0
43799,note_on,,119,0,5,,,,,,,,,,,,,,,,0,,68,0
43799,note_on,,119,0,8,,,,,,,,,,,,,,,,5,,68,0
43799,note_on,,239,0,11,,,,,,,,,,,,,,,,8,,52,0
43800,note_on,,1,0,10,,,,,,,,,,,,,,,,7,,59,88
43800,note_on,,1,0,6,,,,,,,,,,,,,,,,1,,76,72
43800,note_on,,1,0,15,,,,,,,,,,,,,,,,13,,56,72
43800,note_on,,1,0,5,,,,,,,,,,,,,,,,0,,76,72
43800,note_on,,1,0,16,,,,,,,,,,,,,,,,15,,56,72
43800,note_on,,0,0,16,,,,,,,,,,,,,,,,15,,76,72
43800,note_on,,0,0,16,,,,,,,,,,,,,,,,15,,71,72
43800,note_on,,0,0,16,,,,,,,,,,,,,,,,15,,64,72
43800,note_on,,1,0,8,,,,,,,,,,,,,,,,5,,76,88
43800,note_on,,1,0,7,,,,,,,,,,,,,,,,2,,56,72
43800,note_on,,0,0,16,,,,,,,,,,,,,,,,15,,59,72
43800,note_on,,1,0,14,,,,,,,,,,,,,,,,12,,59,72
43800,note_on,,1,0,11,,,,,,,,,,,,,,,,8,,56,88
43800,note_on,,1,0,13,,,,,,,,,,,,,,,,11,,76,72
43800,note_on,,1,0,12,,,,,,,,,,,,,,,,10,,83,72
43800,note_on,,1,0,9,,,,,,,,,,,,,,,,6,,71,88
43919,note_on,,119,0,16,,,,,,,,,,,,,,,,15,,56,0
43919,note_on,,0,0,16,,,,,,,,,,,,,,,,15,,76,0
43919,note_on,,0,0,16,,,,,,,,,,,,,,,,15,,71,0
43919,note_on,,0,0,16,,,,,,,,,,,,,,,,15,,64,0
43919,note_on,,0,0,16,,,,,,,,,,,,,,,,15,,59,0
43919,note_on,,119,0,12,,,,,,,,,,,,,,,,10,,83,0
43919,note_on,,119,0,5,,,,,,,,,,,,,,,,0,,76,0
43919,note_on,,119,0,14,,,,,,,,,,,,,,,,12,,59,0
43919,note_on,,119,0,6,,,,,,,,,,,,,,,,1,,76,0
43919,note_on,,119,0,8,,,,,,,,,,,,,,,,5,,76,0
43919,note_on,,119,0,11,,,,,,,,,,,,,,,,8,,56,0
43919,note_on,,119,0,7,,,,,,,,,,,,,,,,2,,56,0
43919,note_on,,119,0,10,,,,,,,,,,,,,,,,7,,59,0
43919,note_on,,119,0,13,,,,,,,,,,,,,,,,11,,76,0
43919,note_on,,119,0,15,,,,,,,,,,,,,,,,13,,56,0
43919,note_on,,119,0,9,,,,,,,,,,,,,,,,6,,71,0
43920,note_on,,1,0,6,,,,,,,,,,,,,,,,1,,73,72
43920,note_on,,1,0,10,,,,,,,,,,,,,,,,7,,64,88
43920,note_on,,1,0,12,,,,,,,,,,,,,,,,10,,81,72
43920,note_on,,1,0,7,,,,,,,,,,,,,,,,2,,57,72
43920,note_on,,1,0,11,,,,,,,,,,,,,,,,8,,57,88
43920,note_on,,1,0,15,,,,,,,,,,,,,,,,13,,57,72
43920,note_on,,1,0,13,,,,,,,,,,,,,,,,11,,73,72
43920,note_on,,1,0,5,,,,,,,,,,,,,,,,0,,73,72
43920,note_on,,1,0,8,,,,,,,,,,,,,,,,5,,73,88
43920,note_on,,1,0,14,,,,,,,,,,,,,,,,12,,64,72
43920,note_on,,1,0,9,,,,,,,,,,,,,,,,6,,69,88
43920,note_on,,1,0,16,,,,,,,,,,,,,,,,15,,69,72
43920,note_on,,0,0,16,,,,,,,,,,,,,,,,15,,57,72
43920,note_on,,0,0,16,,,,,,,,,,,,,,,,15,,76,72
43920,note_on,,0,0,16,,,,,,,,,,,,,,,,15,,73,72
44159,note_on,,239,0,11,,,,,,,,,,,,,,,,8,,57,0
44159,note_on,,239,0,15,,,,,,,,,,,,,,,,13,,57,0
44159,note_on,,239,0,7,,,,,,,,,,,,,,,,2,,57,0
44160,note_on,,1,0,11,,,,,,,,,,,,,,,,8,,57,88
44160,note_on,,240,0,16,,,,,,,,,,,,,,,,15,,45,72
44160,note_on,,1,0,15,,,,,,,,,,,,,,,,13,,45,72
44160,note_on,,1,0,7,,,,,,,,,,,,,,,,2,,45,72
44279,note_on,,119,0,7,,,,,,,,,,,,,,,,2,,45,0
44279,note_on,,119,0,11,,,,,,,,,,,,,,,,8,,57,0
44279,note_on,,0,0,16,,,,,,,,,,,,,,,,15,,45,0
44279,note_on,,0,0,16,,,,,,,,,,,,,,,,15,,73,0
44279,note_on,,119,0,15,,,,,,,,,,,,,,,,13,,45,0
44279,note_on,,359,0,9,,,,,,,,,,,,,,,,6,,69,0
44279,note_on,,0,0,16,,,,,,,,,,,,,,,,15,,76,0
44279,note_on,,359,0,6,,,,,,,,,,,,,,,,1,,73,0
44279,note_on,,359,0,13,,,,,,,,,,,,,,,,11,,73,0
44279,note_on,,119,0,16,,,,,,,,,,,,,,,,15,,69,0
44279,note_on,,359,0,8,,,,,,,,,,,,,,,,5,,73,0
44279,note_on,,359,0,10,,,,,,,,,,,,,,,,7,,64,0
44279,note_on,,359,0,14,,,,,,,,,,,,,,,,12,,64,0
44279,note_on,,359,0,5,,,,,,,,,,,,,,,,0,,73,0
44279,note_on,,359,0,12,,,,,,,,,,,,,,,,10,,81,0
44279,note_on,,0,0,16,,,,,,,,,,,,,,,,15,,57,0
44280,note_on,,1,0,5,,,,,,,,,,,,,,,,0,,71,72
44280,note_on,,1,0,10,,,,,,,,,,,,,,,,7,,64,88
44280,note_on,,1,0,15,,,,,,,,,,,,,,,,13,,52,72
44280,note_on,,0,0,16,,,,,,,,,,,,,,,,15,,76,72
44280,note_on,,0,0,16,,,,,,,,,,,,,,,,15,,64,72
44280,note_on,,1,0,14,,,,,,,,,,,,,,,,12,,64,72
44280,note_on,,0,0,16,,,,,,,,,,,,,,,,15,,68,72
44280,note_on,,1,0,7,,,,,,,,,,,,,,,,2,,52,72
44280,note_on,,0,0,16,,,,,,,,,,,,,,,,15,,71,72
44280,note_on,,1,0,16,,,,,,,,,,,,,,,,15,,52,72
44280,note_on,,1,0,12,,,,,,,,,,,,,,,,10,,80,72
44280,note_on,,1,0,6,,,,,,,,,,,,,,,,1,,71,72
44280,note_on,,1,0,11,,,,,,,,,,,,,,,,8,,52,88
44280,note_on,,1,0,8,,,,,,,,,,,,,,,,5,,71,88
44280,note_on,,1,0,9,,,,,,,,,,,,,,,,6,,68,88
44280,note_on,,0,0,16,,,,,,,,,,,,,,,,15,,59,72
44280,note_on,,1,0,13,,,,,,,,,,,,,,,,11,,71,72
44399,note_on,,119,0,6,,,,,,,,,,,,,,,,1,,71,0
44399,note_on,,119,0,5,,,,,,,,,,,,,,,,0,,71,0
44399,note_on,,119,0,12,,,,,,,,,,,,,,,,10,,80,0
44399,note_on,,119,0,8,,,,,,,,,,,,,,,,5,,71,0
44399,note_on,,119,0,13,,,,,,,,,,,,,,,,11,,71,0
44400,note_on,,1,0,5,,,,,,,,,,,,,,,,0,,76,72
44400,note_on,,1,0,13,,,,,,,,,,,,,,,,11,,76,72
44400,note_on,,1,0,12,,,,,,,,,,,,,,,,10,,76,72
44400,note_on,,1,0,6,,,,,,,,,,,,,,,,1,,76,72
44400,note_on,,1,0,8,,,,,,,,,,,,,,,,5,,76,88
44519,note_on,,239,0,15,,,,,,,,,,,,,,,,13,,52,0
44519,note_on,,239,0,11,,,,,,,,,,,,,,,,8,,52,0
44519,note_on,,0,0,16,,,,,,,,,,,,,,,,15,,71,0
44519,note_on,,119,0,13,,,,,,,,,,,,,,,,11,,76,0
44519,note_on,,119,0,5,,,,,,,,,,,,,,,,0,,76,0
44519,note_on,,239,0,14,,,,,,,,,,,,,,,,12,,64,0
44519,note_on,,239,0,7,,,,,,,,,,,,,,,,2,,52,0
44519,note_on,,119,0,6,,,,,,,,,,,,,,,,1,,76,0
44519,note_on,,119,0,12,,,,,,,,,,,,,,,,10,,76,0
44519,note_on,,239,0,16,,,,,,,,,,,,,,,,15,,52,0
44519,note_on,,0,0,16,,,,,,,,,,,,,,,,15,,59,0
44519,note_on,,0,0,16,,,,,,,,,,,,,,,,15,,76,0
44519,note_on,,119,0,8,,,,,,,,,,,,,,,,5,,76,0
44519,note_on,,0,0,16,,,,,,,,,,,,,,,,15,,68,0
44519,note_on,,0,0,16,,,,,,,,,,,,,,,,15,,64,0
44520,note_on,,1,0,13,,,,,,,,,,,,,,,,11,,76,72
44520,note_on,,1,0,12,,,,,,,,,,,,,,,,10,,76,72
44520,note_on,,1,0,8,,,,,,,,,,,,,,,,5,,76,88
44520,note_on,,1,0,5,,,,,,,,,,,,,,,,0,,76,72
44520,note_on,,1,0,6,,,,,,,,,,,,,,,,1,,76,72
44639,note_on,,359,0,9,,,,,,,,,,,,,,,,6,,68,0
44639,note_on,,119,0,6,,,,,,,,,,,,,,,,1,,76,0
44639,note_on,,119,0,5,,,,,,,,,,,,,,,,0,,76,0
44639,note_on,,119,0,12,,,,,,,,,,,,,,,,10,,76,0
44639,note_on,,119,0,13,,,,,,,,,,,,,,,,11,,76,0
44639,note_on,,119,0,8,,,,,,,,,,,,,,,,5,,76,0
44639,note_on,,359,0,10,,,,,,,,,,,,,,,,7,,64,0
44640,note_on,,1,0,5,,,,,,,,,,,,,,,,0,,76,72
44640,note_on,,1,0,6,,,,,,,,,,,,,,,,1,,76,72
44640,note_on,,1,0,13,,,,,,,,,,,,,,,,11,,76,72
44640,note_on,,1,0,8,,,,,,,,,,,,,,,,5,,76,88
44640,note_on,,1,0,12,,,,,,,,,,,,,,,,10,,76,72
44759,note_on,,119,0,13,,,,,,,,,,,,,,,,11,,76,0
44760,note_on,,121,0,10,,,,,,,,,,,,,,,,7,,59,88
44760,note_on,,241,0,11,,,,,,,,,,,,,,,,8,,52,88
44760,note_on,,241,0,16,,,,,,,,,,,,,,,,15,,52,72
44760,note_on,,0,0,16,,,,,,,,,,,,,,,,15,,68,72
44760,note_on,,1,0,13,,,,,,,,,,,,,,,,11,,68,72
44760,note_on,,0,0,16,,,,,,,,,,,,,,,,15,,64,72
44760,note_on,,241,0,14,,,,,,,,,,,,,,,,12,,71,72
44760,note_on,,241,0,7,,,,,,,,,,,,,,,,2,,52,72
44760,note_on,,241,0,15,,,,,,,,,,,,,,,,13,,52,72
44760,note_on,,121,0,9,,,,,,,,,,,,,,,,6,,68,88
44760,note_on,,0,0,16,,,,,,,,,,,,,,,,15,,59,72
44879,note_on,,119,0,16,,,,,,,,,,,,,,,,15,,52,0
44879,note_on,,0,0,16,,,,,,,,,,,,,,,,15,,68,0
44879,note_on,,0,0,16,,,,,,,,,,,,,,,,15,,64,0
44879,note_on,,0,0,16,,,,,,,,,,,,,,,,15,,59,0
44879,note_on,,119,0,11,,,,,,,,,,,,,,,,8,,52,0
44879,note_on,,119,0,14,,,,,,,,,,,,,,,,12,,71,0
44879,note_on,,119,0,13,,,,,,,,,,,,,,,,11,,68,0
44879,note_on,,119,0,9,,,,,,,,,,,,,,,,6,,68,0
44879,note_on,,119,0,10,,,,,,,,,,,,,,,,7,,59,0
44879,note_on,,119,0,7,,,,,,,,,,,,,,,,2,,52,0
44879,note_on,,119,0,15,,,,,,,,,,,,,,,,13,,52,0
44880,note_on,,1,0,10,,,,,,,,,,,,,,,,7,,61,88
44880,note_on,,1,0,14,,,,,,,,,,,,,,,,12,,69,72
44880,note_on,,1,0,13,,,,,,,,,,,,,,,,11,,73,72
44880,note_on,,1,0,7,,,,,,,,,,,,,,,,2,,57,72
44880,note_on,,1,0,9,,,,,,,,,,,,,,,,6,,69,88
44880,note_on,,1,0,15,,,,,,,,,,,,,,,,13,,57,72
44880,note_on,,1,0,16,,,,,,,,,,,,,,,,15,,57,72
44880,note_on,,0,0,16,,,,,,,,,,,,,,,,15,,69,72
44880,note_on,,1,0,11,,,,,,,,,,,,,,,,8,,57,88
44880,note_on,,0,0,16,,,,,,,,,,,,,,,,15,,64,72
44880,note_on,,0,0,16,,,,,,,,,,,,,,,,15,,61,72
44999,note_on,,0,0,16,,,,,,,,,,,,,,,,15,,61,0
44999,note_on,,0,0,16,,,,,,,,,,,,,,,,15,,64,0
44999,note_on,,359,0,6,,,,,,,,,,,,,,,,1,,76,0
44999,note_on,,119,0,16,,,,,,,,,,,,,,,,15,,57,0
44999,note_on,,119,0,14,,,,,,,,,,,,,,,,12,,69,0
44999,note_on,,119,0,7,,,,,,,,,,,,,,,,2,,57,0
44999,note_on,,359,0,5,,,,,,,,,,,,,,,,0,,76,0
44999,note_on,,359,0,8,,,,,,,,,,,,,,,,5,,76,0
44999,note_on,,119,0,11,,,,,,,,,,,,,,,,8,,57,0
44999,note_on,,0,0,16,,,,,,,,,,,,,,,,15,,69,0
44999,note_on,,359,0,12,,,,,,,,,,,,,,,,10,,76,0
44999,note_on,,119,0,15,,,,,,,,,,,,,,,,13,,57,0
44999,note_on,,119,0,13,,,,,,,,,,,,,,,,11,,73,0
44999,note_on,,119,0,9,,,,,,,,,,,,,,,,6,,69,0
44999,note_on,,119,0,10,,,,,,,,,,,,,,,,7,,61,0
45000,note_on,,1,0,7,,,,,,,,,,,,,,,,2,,56,72
45000,note_on,,1,0,10,,,,,,,,,,,,,,,,7,,59,88
45000,note_on,,1,0,8,,,,,,,,,,,,,,,,5,,76,88
45000,note_on,,1,0,6,,,,,,,,,,,,,,,,1,,76,72
45000,note_on,,1,0,13,,,,,,,,,,,,,,,,11,,71,72
45000,note_on,,1,0,11,,,,,,,,,,,,,,,,8,,56,88
45000,note_on,,1,0,9,,,,,,,,,,,,,,,,6,,64,88
45000,note_on,,1,0,16,,,,,,,,,,,,,,,,15,,56,72
45000,note_on,,1,0,5,,,,,,,,,,,,,,,,0,,76,72
45000,note_on,,1,0,12,,,,,,,,,,,,,,,,10,,76,72
45000,note_on,,0,0,16,,,,,,,,,,,,,,,,15,,71,72
45000,note_on,,1,0,15,,,,,,,,,,,,,,,,13,,56,72
45000,note_on,,0,0,16,,,,,,,,,,,,,,,,15,,64,72
45000,note_on,,0,0,16,,,,,,,,,,,,,,,,15,,59,72
45000,note_on,,1,0,14,,,,,,,,,,,,,,,,12,,64,72
45119,note_on,,119,0,13,,,,,,,,,,,,,,,,11,,71,0
45119,note_on,,0,0,16,,,,,,,,,,,,,,,,15,,59,0
45119,note_on,,119,0,16,,,,,,,,,,,,,,,,15,,56,0
45119,note_on,,119,0,7,,,,,,,,,,,,,,,,2,,56,0
45119,note_on,,0,0,16,,,,,,,,,,,,,,,,15,,64,0
45119,note_on,,119,0,9,,,,,,,,,,,,,,,,6,,64,0
45119,note_on,,0,0,16,,,,,,,,,,,,,,,,15,,71,0
45119,note_on,,119,0,10,,,,,,,,,,,,,,,,7,,59,0
45119,note_on,,119,0,15,,,,,,,,,,,,,,,,13,,56,0
45119,note_on,,119,0,14,,,,,,,,,,,,,,,,12,,64,0
45119,note_on,,119,0,11,,,,,,,,,,,,,,,,8,,56,0
45120,note_on,,0,0,16,,,,,,,,,,,,,,,,15,,71,72
45120,note_on,,0,0,16,,,,,,,,,,,,,,,,15,,76,72
45120,note_on,,0,0,16,,,,,,,,,,,,,,,,15,,56,72
45120,note_on,,1,0,16,,,,,,,,,,,,,,,,15,,52,72
45120,note_on,,1,0,7,,,,,,,,,,,,,,,,2,,52,72
45120,note_on,,1,0,15,,,,,,,,,,,,,,,,13,,52,72
45120,note_on,,1,0,13,,,,,,,,,,,,,,,,11,,68,72
45120,note_on,,0,0,16,,,,,,,,,,,,,,,,15,,68,72
45120,note_on,,1,0,9,,,,,,,,,,,,,,,,6,,59,88
45120,note_on,,1,0,10,,,,,,,,,,,,,,,,7,,56,88
45120,note_on,,1,0,11,,,,,,,,,,,,,,,,8,,52,88
45120,note_on,,1,0,14,,,,,,,,,,,,,,,,12,,59,72
45239,note_on,,119,0,16,,,,,,,,,,,,,,,,15,,52,0
45239,note_on,,0,0,16,,,,,,,,,,,,,,,,15,,56,0
45239,note_on,,0,0,16,,,,,,,,,,,,,,,,15,,76,0
45239,note_on,,0,0,16,,,,,,,,,,,,,,,,15,,71,0
45239,note_on,,0,0,16,,,,,,,,,,,,,,,,15,,68,0
45239,note_on,,119,0,15,,,,,,,,,,,,,,,,13,,52,0
45239,note_on,,119,0,11,,,,,,,,,,,,,,,,8,,52,0
45239,note_on,,239,0,12,,,,,,,,,,,,,,,,10,,76,0
45239,note_on,,119,0,14,,,,,,,,,,,,,,,,12,,59,0
45239,note_on,,119,0,7,,,,,,,,,,,,,,,,2,,52,0
45239,note_on,,119,0,9,,,,,,,,,,,,,,,,6,,59,0
45239,note_on,,239,0,8,,,,,,,,,,,,,,,,5,,76,0
45239,note_on,,239,0,5,,,,,,,,,,,,,,,,0,,76,0
45239,note_on,,119,0,10,,,,,,,,,,,,,,,,7,,56,0
45239,note_on,,239,0,6,,,,,,,,,,,,,,,,1,,76,0
45239,note_on,,119,0,13,,,,,,,,,,,,,,,,11,,68,0
45240,note_on,,0,0,16,,,,,,,,,,,,,,,,15,,71,72
45240,note_on,,0,0,16,,,,,,,,,,,,,,,,15,,59,72
45240,note_on,,0,0,16,,,,,,,,,,,,,,,,15,,56,72
45240,note_on,,1,0,16,,,,,,,,,,,,,,,,15,,64,72
45240,note_on,,1,0,6,,,,,,,,,,,,,,,,1,,76,72
45240,note_on,,1,0,14,,,,,,,,,,,,,,,,12,,64,72
45240,note_on,,1,0,13,,,,,,,,,,,,,,,,11,,71,72
45240,note_on,,1,0,8,,,,,,,,,,,,,,,,5,,76,88
45240,note_on,,1,0,7,,,,,,,,,,,,,,,,2,,56,72
45240,note_on,,1,0,10,,,,,,,,,,,,,,,,7,,59,88
45240,note_on,,1,0,5,,,,,,,,,,,,,,,,0,,76,72
45240,note_on,,1,0,12,,,,,,,,,,,,,,,,10,,76,72
45240,note_on,,1,0,15,,,,,,,,,,,,,,,,13,,56,72
45240,note_on,,1,0,9,,,,,,,,,,,,,,,,6,,64,88
45240,note_on,,1,0,11,,,,,,,,,,,,,,,,8,,56,88
45359,note_on,,119,0,8,,,,,,,,,,,,,,,,5,,76,0
45359,note_on,,119,0,15,,,,,,,,,,,,,,,,13,,56,0
45359,note_on,,119,0,14,,,,,,,,,,,,,,,,12,,64,0
45359,note_on,,119,0,5,,,,,,,,,,,,,,,,0,,76,0
45359,note_on,,119,0,11,,,,,,,,,,,,,,,,8,,56,0
45359,note_on,,119,0,9,,,,,,,,,,,,,,,,6,,64,0
45359,note_on,,119,0,10,,,,,,,,,,,,,,,,7,,59,0
45359,note_on,,0,0,16,,,,,,,,,,,,,,,,15,,56,0
45359,note_on,,119,0,7,,,,,,,,,,,,,,,,2,,56,0
45359,note_on,,119,0,13,,,,,,,,,,,,,,,,11,,71,0
45359,note_on,,0,0,16,,,,,,,,,,,,,,,,15,,71,0
45359,note_on,,0,0,16,,,,,,,,,,,,,,,,15,,59,0
45359,note_on,,119,0,16,,,,,,,,,,,,,,,,15,,64,0
45359,note_on,,119,0,12,,,,,,,,,,,,,,,,10,,76,0
45359,note_on,,119,0,6,,,,,,,,,,,,,,,,1,,76,0
45360,note_on,,1,0,5,,,,,,,,,,,,,,,,0,,76,72
45360,note_on,,1,0,7,,,,,,,,,,,,,,,,2,,57,72
45360,note_on,,1,0,9,,,,,,,,,,,,,,,,6,,69,88
45360,note_on,,1,0,11,,,,,,,,,,,,,,,,8,,57,88
45360,note_on,,1,0,13,,,,,,,,,,,,,,,,11,,73,72
45360,note_on,,1,0,14,,,,,,,,,,,,,,,,12,,69,72
45360,note_on,,1,0,6,,,,,,,,,,,,,,,,1,,76,72
45360,note_on,,1,0,12,,,,,,,,,,,,,,,,10,,76,72
45360,note_on,,1,0,16,,,,,,,,,,,,,,,,15,,57,72
45360,note_on,,0,0,16,,,,,,,,,,,,,,,,15,,73,72
45360,note_on,,0,0,16,,,,,,,,,,,,,,,,15,,69,72
45360,note_on,,0,0,16,,,,,,,,,,,,,,,,15,,64,72
45360,note_on,,1,0,15,,,,,,,,,,,,,,,,13,,57,72
45360,note_on,,1,0,8,,,,,,,,,,,,,,,,5,,76,88
45360,note_on,,1,0,10,,,,,,,,,,,,,,,,7,,61,88
45539,note_on,,179,0,10,,,,,,,,,,,,,,,,7,,61,0
45539,note_on,,179,0,12,,,,,,,,,,,,,,,,10,,76,0
45539,note_on,,179,0,13,,,,,,,,,,,,,,,,11,,73,0
45539,note_on,,179,0,8,,,,,,,,,,,,,,,,5,,76,0
45539,note_on,,179,0,5,,,,,,,,,,,,,,,,0,,76,0
45539,note_on,,179,0,6,,,,,,,,,,,,,,,,1,,76,0
45540,note_on,,1,0,13,,,,,,,,,,,,,,,,11,,71,72
45540,note_on,,1,0,10,,,,,,,,,,,,,,,,7,,62,88
45540,note_on,,1,0,5,,,,,,,,,,,,,,,,0,,74,72
45540,note_on,,1,0,8,,,,,,,,,,,,,,,,5,,74,88
45540,note_on,,1,0,12,,,,,,,,,,,,,,,,10,,74,72
45540,note_on,,1,0,6,,,,,,,,,,,,,,,,1,,74,72
45599,note_on,,59,0,12,,,,,,,,,,,,,,,,10,,74,0
45599,note_on,,239,0,14,,,,,,,,,,,,,,,,12,,69,0
45599,note_on,,59,0,10,,,,,,,,,,,,,,,,7,,62,0
45599,note_on,,59,0,8,,,,,,,,,,,,,,,,5,,74,0
45599,note_on,,59,0,6,,,,,,,,,,,,,,,,1,,74,0
45599,note_on,,59,0,5,,,,,,,,,,,,,,,,0,,74,0
45599,note_on,,59,0,13,,,,,,,,,,,,,,,,11,,71,0
45600,note_on,,1,0,14,,,,,,,,,,,,,,,,12,,64,72
45600,note_on,,1,0,13,,,,,,,,,,,,,,,,11,,69,72
45600,note_on,,1,0,6,,,,,,,,,,,,,,,,1,,73,72
45600,note_on,,1,0,5,,,,,,,,,,,,,,,,0,,73,72
45600,note_on,,1,0,10,,,,,,,,,,,,,,,,7,,64,88
45600,note_on,,1,0,8,,,,,,,,,,,,,,,,5,,73,88
45600,note_on,,1,0,12,,,,,,,,,,,,,,,,10,,73,72
45719,note_on,,359,0,15,,,,,,,,,,,,,,,,13,,57,0
45719,note_on,,119,0,6,,,,,,,,,,,,,,,,1,,73,0
45719,note_on,,119,0,8,,,,,,,,,,,,,,,,5,,73,0
45719,note_on,,119,0,10,,,,,,,,,,,,,,,,7,,64,0
45719,note_on,,0,0,16,,,,,,,,,,,,,,,,15,,73,0
45719,note_on,,359,0,9,,,,,,,,,,,,,,,,6,,69,0
45719,note_on,,359,0,16,,,,,,,,,,,,,,,,15,,57,0
45719,note_on,,119,0,12,,,,,,,,,,,,,,,,10,,73,0
45719,note_on,,119,0,5,,,,,,,,,,,,,,,,0,,73,0
45719,note_on,,359,0,11,,,,,,,,,,,,,,,,8,,57,0
45719,note_on,,119,0,14,,,,,,,,,,,,,,,,12,,64,0
45719,note_on,,0,0,16,,,,,,,,,,,,,,,,15,,64,0
45719,note_on,,0,0,16,,,,,,,,,,,,,,,,15,,69,0
45719,note_on,,119,0,13,,,,,,,,,,,,,,,,11,,69,0
45719,note_on,,359,0,7,,,,,,,,,,,,,,,,2,,57,0
45720,note_on,,1,0,11,,,,,,,,,,,,,,,,8,,50,88
45720,note_on,,1,0,10,,,,,,,,,,,,,,,,7,,66,88
45720,note_on,,0,0,16,,,,,,,,,,,,,,,,15,,69,72
45720,note_on,,0,0,16,,,,,,,,,,,,,,,,15,,66,72
45720,note_on,,1,0,6,,,,,,,,,,,,,,,,1,,74,72
45720,note_on,,1,0,13,,,,,,,,,,,,,,,,11,,69,72
45720,note_on,,1,0,7,,,,,,,,,,,,,,,,2,,50,72
45720,note_on,,1,0,12,,,,,,,,,,,,,,,,10,,74,72
45720,note_on,,1,0,16,,,,,,,,,,,,,,,,15,,50,72
45720,note_on,,0,0,16,,,,,,,,,,,,,,,,15,,74,72
45720,note_on,,1,0,15,,,,,,,,,,,,,,,,13,,50,72
45720,note_on,,0,0,16,,,,,,,,,,,,,,,,15,,54,72
45720,note_on,,1,0,8,,,,,,,,,,,,,,,,5,,74,88
45720,note_on,,1,0,5,,,,,,,,,,,,,,,,0,,74,72
45720,note_on,,1,0,9,,,,,,,,,,,,,,,,6,,69,88
45720,note_on,,1,0,14,,,,,,,,,,,,,,,,12,,66,72
45839,note_on,,119,0,16,,,,,,,,,,,,,,,,15,,50,0
45839,note_on,,119,0,5,,,,,,,,,,,,,,,,0,,74,0
45839,note_on,,119,0,10,,,,,,,,,,,,,,,,7,,66,0
45839,note_on,,0,0,16,,,,,,,,,,,,,,,,15,,74,0
45839,note_on,,119,0,11,,,,,,,,,,,,,,,,8,,50,0
45839,note_on,,119,0,9,,,,,,,,,,,,,,,,6,,69,0
45839,note_on,,119,0,7,,,,,,,,,,,,,,,,2,,50,0
45839,note_on,,0,0,16,,,,,,,,,,,,,,,,15,,69,0
45839,note_on,,119,0,13,,,,,,,,,,,,,,,,11,,69,0
45839,note_on,,0,0,16,,,,,,,,,,,,,,,,15,,66,0
45839,note_on,,119,0,6,,,,,,,,,,,,,,,,1,,74,0
45839,note_on,,0,0,16,,,,,,,,,,,,,,,,15,,54,0
45839,note_on,,119,0,15,,,,,,,,,,,,,,,,13,,50,0
45839,note_on,,119,0,12,,,,,,,,,,,,,,,,10,,74,0
45839,note_on,,119,0,8,,,,,,,,,,,,,,,,5,,74,0
45839,note_on,,119,0,14,,,,,,,,,,,,,,,,12,,66,0
45840,note_on,,1,0,11,,,,,,,,,,,,,,,,8,,52,88
45840,note_on,,1,0,15,,,,,,,,,,,,,,,,13,,52,72
45840,note_on,,1,0,12,,,,,,,,,,,,,,,,10,,71,72
45840,note_on,,1,0,13,,,,,,,,,,,,,,,,11,,68,72
45840,note_on,,1,0,7,,,,,,,,,,,,,,,,2,,52,72
45840,note_on,,1,0,10,,,,,,,,,,,,,,,,7,,59,88
45840,note_on,,0,0,16,,,,,,,,,,,,,,,,15,,64,72
45840,note_on,,0,0,16,,,,,,,,,,,,,,,,15,,68,72
45840,note_on,,1,0,8,,,,,,,,,,,,,,,,5,,71,88
45840,note_on,,0,0,16,,,,,,,,,,,,,,,,15,,59,72
45840,note_on,,1,0,9,,,,,,,,,,,,,,,,6,,68,88
45840,note_on,,0,0,16,,,,,,,,,,,,,,,,15,,71,72
45840,note_on,,1,0,14,,,,,,,,,,,,,,,,12,,59,72
45840,note_on,,1,0,5,,,,,,,,,,,,,,,,0,,71,72
45840,note_on,,1,0,6,,,,,,,,,,,,,,,,1,,71,72
45840,note_on,,1,0,16,,,,,,,,,,,,,,,,15,,52,72
45854,note_on,,14,0,12,,,,,,,,,,,,,,,,10,,71,0
45855,note_on,,1,0,12,,,,,,,,,,,,,,,,10,,73,72
45869,note_on,,14,0,12,,,,,,,,,,,,,,,,10,,73,0
45870,note_on,,1,0,12,,,,,,,,,,,,,,,,10,,71,72
45884,note_on,,14,0,12,,,,,,,,,,,,,,,,10,,71,0
45885,note_on,,1,0,12,,,,,,,,,,,,,,,,10,,73,72
45899,note_on,,14,0,12,,,,,,,,,,,,,,,,10,,73,0
45900,note_on,,1,0,12,,,,,,,,,,,,,,,,10,,71,72
45914,note_on,,14,0,12,,,,,,,,,,,,,,,,10,,71,0
45915,note_on,,1,0,12,,,,,,,,,,,,,,,,10,,73,72
45929,note_on,,14,0,12,,,,,,,,,,,,,,,,10,,73,0
45930,note_on,,1,0,12,,,,,,,,,,,,,,,,10,,71,72
45944,note_on,,14,0,12,,,,,,,,,,,,,,,,10,,71,0
45945,note_on,,1,0,12,,,,,,,,,,,,,,,,10,,73,72
45959,note_on,,119,0,16,,,,,,,,,,,,,,,,15,,52,0
45959,note_on,,0,0,16,,,,,,,,,,,,,,,,15,,59,0
45959,note_on,,119,0,15,,,,,,,,,,,,,,,,13,,52,0
45959,note_on,,119,0,7,,,,,,,,,,,,,,,,2,,52,0
45959,note_on,,14,0,12,,,,,,,,,,,,,,,,10,,73,0
45959,note_on,,119,0,14,,,,,,,,,,,,,,,,12,,59,0
45959,note_on,,119,0,10,,,,,,,,,,,,,,,,7,,59,0
45960,note_on,,1,0,12,,,,,,,,,,,,,,,,10,,71,72
45960,note_on,,1,0,16,,,,,,,,,,,,,,,,15,,40,72
45960,note_on,,1,0,14,,,,,,,,,,,,,,,,12,,64,72
45960,note_on,,1,0,7,,,,,,,,,,,,,,,,2,,40,72
45960,note_on,,0,0,16,,,,,,,,,,,,,,,,15,,52,72
45960,note_on,,1,0,10,,,,,,,,,,,,,,,,7,,64,88
45960,note_on,,1,0,15,,,,,,,,,,,,,,,,13,,40,72
45974,note_on,,14,0,12,,,,,,,,,,,,,,,,10,,71,0
45975,note_on,,1,0,12,,,,,,,,,,,,,,,,10,,73,72
45989,note_on,,14,0,12,,,,,,,,,,,,,,,,10,,73,0
45990,note_on,,1,0,12,,,,,,,,,,,,,,,,10,,69,72
46004,note_on,,14,0,12,,,,,,,,,,,,,,,,10,,69,0
46005,note_on,,1,0,12,,,,,,,,,,,,,,,,10,,71,72
46019,note_on,,179,0,6,,,,,,,,,,,,,,,,1,,71,0
46019,note_on,,179,0,13,,,,,,,,,,,,,,,,11,,68,0
46019,note_on,,179,0,9,,,,,,,,,,,,,,,,6,,68,0
46019,note_on,,179,0,5,,,,,,,,,,,,,,,,0,,71,0
46019,note_on,,179,0,11,,,,,,,,,,,,,,,,8,,52,0
46019,note_on,,14,0,12,,,,,,,,,,,,,,,,10,,71,0
46019,note_on,,179,0,8,,,,,,,,,,,,,,,,5,,71,0
46020,note_on,,1,0,6,,,,,,,,,,,,,,,,1,,69,72
46020,note_on,,1,0,5,,,,,,,,,,,,,,,,0,,69,72
46020,note_on,,1,0,12,,,,,,,,,,,,,,,,10,,69,72
46020,note_on,,1,0,11,,,,,,,,,,,,,,,,8,,52,88
46020,note_on,,1,0,9,,,,,,,,,,,,,,,,6,,69,88
46020,note_on,,1,0,13,,,,,,,,,,,,,,,,11,,69,72
46020,note_on,,1,0,8,,,,,,,,,,,,,,,,5,,69,88
46079,note_on,,0,0,16,,,,,,,,,,,,,,,,15,,40,0
46079,note_on,,0,0,16,,,,,,,,,,,,,,,,15,,64,0
46079,note_on,,0,0,16,,,,,,,,,,,,,,,,15,,52,0
46079,note_on,,0,0,16,,,,,,,,,,,,,,,,15,,68,0
46079,note_on,,119,0,16,,,,,,,,,,,,,,,,15,,71,0
46079,note_on,,119,0,15,,,,,,,,,,,,,,,,13,,40,0
46079,note_on,,119,0,7,,,,,,,,,,,,,,,,2,,40,0
46079,note_on,,59,0,13,,,,,,,,,,,,,,,,11,,69,0
46079,note_on,,59,0,11,,,,,,,,,,,,,,,,8,,52,0
46079,note_on,,59,0,6,,,,,,,,,,,,,,,,1,,69,0
46079,note_on,,119,0,10,,,,,,,,,,,,,,,,7,,64,0
46079,note_on,,59,0,9,,,,,,,,,,,,,,,,6,,69,0
46079,note_on,,59,0,8,,,,,,,,,,,,,,,,5,,69,0
46079,note_on,,59,0,5,,,,,,,,,,,,,,,,0,,69,0
46079,note_on,,119,0,14,,,,,,,,,,,,,,,,12,,64,0
46079,note_on,,59,0,12,,,,,,,,,,,,,,,,10,,69,0
46080,note_on,,0,0,16,,,,,,,,,,,,,,,,15,,52,72
46080,note_on,,0,0,16,,,,,,,,,,,,,,,,15,,64,72
46080,note_on,,1,0,15,,,,,,,,,,,,,,,,13,,45,72
46080,note_on,,0,0,16,,,,,,,,,,,,,,,,15,,69,72
46080,note_on,,1,0,16,,,,,,,,,,,,,,,,15,,45,72
46080,note_on,,1,0,6,,,,,,,,,,,,,,,,1,,69,72
46080,note_on,,1,0,12,,,,,,,,,,,,,,,,10,,69,72
46080,note_on,,1,0,14,,,,,,,,,,,,,,,,12,,61,72
46080,note_on,,1,0,7,,,,,,,,,,,,,,,,2,,45,72
46080,note_on,,1,0,5,,,,,,,,,,,,,,,,0,,69,72
46080,note_on,,1,0,8,,,,,,,,,,,,,,,,5,,69,88
46080,note_on,,1,0,13,,,,,,,,,,,,,,,,11,,69,72
46080,note_on,,0,0,16,,,,,,,,,,,,,,,,15,,61,72
46080,note_on,,1,0,10,,,,,,,,,,,,,,,,7,,61,88
46080,note_on,,1,0,11,,,,,,,,,,,,,,,,8,,45,88
46080,note_on,,1,0,9,,,,,,,,,,,,,,,,6,,69,88
46199,note_on,,119,0,13,,,,,,,,,,,,,,,,11,,69,0
46199,note_on,,119,0,8,,,,,,,,,,,,,,,,5,,69,0
46199,note_on,,119,0,12,,,,,,,,,,,,,,,,10,,69,0
46199,note_on,,119,0,14,,,,,,,,,,,,,,,,12,,61,0
46199,note_on,,119,0,9,,,,,,,,,,,,,,,,6,,69,0
46199,note_on,,119,0,5,,,,,,,,,,,,,,,,0,,69,0
46199,note_on,,119,0,6,,,,,,,,,,,,,,,,1,,69,0
46200,note_on,,1,0,5,,,,,,,,,,,,,,,,0,,69,72
46200,note_on,,1,0,8,,,,,,,,,,,,,,,,5,,69,88
46200,note_on,,1,0,9,,,,,,,,,,,,,,,,6,,69,88
46200,note_on,,1,0,12,,,,,,,,,,,,,,,,10,,81,72
46200,note_on,,1,0,13,,,,,,,,,,,,,,,,11,,81,72
46200,note_on,,1,0,6,,,,,,,,,,,,,,,,1,,69,72
46319,note_on,,0,0,16,,,,,,,,,,,,,,,,15,,69,0
46319,note_on,,239,0,16,,,,,,,,,,,,,,,,15,,45,0
46319,note_on,,119,0,6,,,,,,,,,,,,,,,,1,,69,0
46319,note_on,,0,0,16,,,,,,,,,,,,,,,,15,,52,0
46319,note_on,,239,0,10,,,,,,,,,,,,,,,,7,,61,0
46319,note_on,,239,0,11,,,,,,,,,,,,,,,,8,,45,0
46319,note_on,,119,0,5,,,,,,,,,,,,,,,,0,,69,0
46319,note_on,,0,0,16,,,,,,,,,,,,,,,,15,,61,0
46319,note_on,,239,0,15,,,,,,,,,,,,,,,,13,,45,0
46319,note_on,,119,0,9,,,,,,,,,,,,,,,,6,,69,0
46319,note_on,,239,0,7,,,,,,,,,,,,,,,,2,,45,0
46319,note_on,,119,0,12,,,,,,,,,,,,,,,,10,,81,0
46319,note_on,,119,0,13,,,,,,,,,,,,,,,,11,,81,0
46319,note_on,,119,0,8,,,,,,,,,,,,,,,,5,,69,0
46319,note_on,,0,0,16,,,,,,,,,,,,,,,,15,,64,0
46320,note_on,,1,0,13,,,,,,,,,,,,,,,,11,,81,72
46320,note_on,,1,0,9,,,,,,,,,,,,,,,,6,,69,88
46320,note_on,,1,0,12,,,,,,,,,,,,,,,,10,,81,72
46320,note_on,,1,0,8,,,,,,,,,,,,,,,,5,,69,88
46320,note_on,,1,0,5,,,,,,,,,,,,,,,,0,,69,72
46320,note_on,,1,0,6,,,,,,,,,,,,,,,,1,,69,72
46439,note_on,,119,0,12,,,,,,,,,,,,,,,,10,,81,0
46439,note_on,,119,0,9,,,,,,,,,,,,,,,,6,,69,0
46439,note_on,,119,0,5,,,,,,,,,,,,,,,,0,,69,0
46439,note_on,,119,0,8,,,,,,,,,,,,,,,,5,,69,0
46439,note_on,,119,0,13,,,,,,,,,,,,,,,,11,,81,0
46439,note_on,,119,0,6,,,,,,,,,,,,,,,,1,,69,0
46440,note_on,,1,0,8,,,,,,,,,,,,,,,,5,,69,88
46440,note_on,,1,0,12,,,,,,,,,,,,,,,,10,,81,72
46440,note_on,,1,0,5,,,,,,,,,,,,,,,,0,,69,72
46440,note_on,,1,0,9,,,,,,,,,,,,,,,,6,,69,88
46440,note_on,,1,0,6,,,,,,,,,,,,,,,,1,,69,72
46440,note_on,,1,0,13,,,,,,,,,,,,,,,,11,,81,72
46545,note_on,,226,0,11,,,,,,,,,,,,,,,,8,,57,88
46559,note_on,,119,0,13,,,,,,,,,,,,,,,,11,,81,0
46560,note_on,,0,0,16,,,,,,,,,,,,,,,,15,,64,72
46560,note_on,,0,0,16,,,,,,,,,,,,,,,,15,,69,72
46560,note_on,,1,0,13,,,,,,,,,,,,,,,,11,,73,72
46560,note_on,,241,0,10,,,,,,,,,,,,,,,,7,,61,88
46560,note_on,,0,0,16,,,,,,,,,,,,,,,,15,,73,72
46560,note_on,,361,0,14,,,,,,,,,,,,,,,,12,,64,72
46560,note_on,,241,0,15,,,,,,,,,,,,,,,,13,,57,72
46560,note_on,,241,0,16,,,,,,,,,,,,,,,,15,,57,72
46560,note_on,,241,0,7,,,,,,,,,,,,,,,,2,,57,72
46664,note_on,,119,0,11,,,,,,,,,,,,,,,,8,,57,0
46679,note_on,,119,0,10,,,,,,,,,,,,,,,,7,,61,0
46679,note_on,,119,0,15,,,,,,,,,,,,,,,,13,,57,0
46679,note_on,,119,0,16,,,,,,,,,,,,,,,,15,,57,0
46679,note_on,,0,0,16,,,,,,,,,,,,,,,,15,,73,0
46679,note_on,,119,0,14,,,,,,,,,,,,,,,,12,,64,0
46679,note_on,,0,0,16,,,,,,,,,,,,,,,,15,,64,0
46679,note_on,,0,0,16,,,,,,,,,,,,,,,,15,,69,0
46679,note_on,,119,0,7,,,,,,,,,,,,,,,,2,,57,0
46679,note_on,,119,0,13,,,,,,,,,,,,,,,,11,,73,0
46680,note_on,,1,0,7,,,,,,,,,,,,,,,,2,,62,72
46680,note_on,,1,0,13,,,,,,,,,,,,,,,,11,,78,72
46680,note_on,,1,0,14,,,,,,,,,,,,,,,,12,,62,72
46680,note_on,,0,0,16,,,,,,,,,,,,,,,,15,,66,72
46680,note_on,,1,0,16,,,,,,,,,,,,,,,,15,,62,72
46680,note_on,,16,0,11,,,,,,,,,,,,,,,,8,,62,88
46680,note_on,,1,0,10,,,,,,,,,,,,,,,,7,,66,88
46680,note_on,,0,0,16,,,,,,,,,,,,,,,,15,,74,72
46680,note_on,,1,0,15,,,,,,,,,,,,,,,,13,,62,72
46680,note_on,,0,0,16,,,,,,,,,,,,,,,,15,,69,72
46799,note_on,,119,0,10,,,,,,,,,,,,,,,,7,,66,0
46799,note_on,,119,0,14,,,,,,,,,,,,,,,,12,,62,0
46799,note_on,,119,0,16,,,,,,,,,,,,,,,,15,,62,0
46799,note_on,,119,0,15,,,,,,,,,,,,,,,,13,,62,0
46799,note_on,,0,0,16,,,,,,,,,,,,,,,,15,,69,0
46799,note_on,,119,0,7,,,,,,,,,,,,,,,,2,,62,0
46799,note_on,,359,0,9,,,,,,,,,,,,,,,,6,,69,0
46799,note_on,,359,0,8,,,,,,,,,,,,,,,,5,,69,0
46799,note_on,,0,0,16,,,,,,,,,,,,,,,,15,,74,0
46799,note_on,,359,0,6,,,,,,,,,,,,,,,,1,,69,0
46799,note_on,,0,0,16,,,,,,,,,,,,,,,,15,,66,0
46799,note_on,,119,0,11,,,,,,,,,,,,,,,,8,,62,0
46799,note_on,,359,0,5,,,,,,,,,,,,,,,,0,,69,0
46799,note_on,,119,0,13,,,,,,,,,,,,,,,,11,,78,0
46800,note_on,,1,0,7,,,,,,,,,,,,,,,,2,,61,72
46800,note_on,,1,0,15,,,,,,,,,,,,,,,,13,,61,72
46800,note_on,,0,0,16,,,,,,,,,,,,,,,,15,,64,72
46800,note_on,,1,0,5,,,,,,,,,,,,,,,,0,,69,72
46800,note_on,,0,0,16,,,,,,,,,,,,,,,,15,,69,72
46800,note_on,,1,0,13,,,,,,,,,,,,,,,,11,,76,72
46800,note_on,,1,0,11,,,,,,,,,,,,,,,,8,,61,88
46800,note_on,,0,0,16,,,,,,,,,,,,,,,,15,,76,72
46800,note_on,,1,0,16,,,,,,,,,,,,,,,,15,,61,72
46800,note_on,,1,0,6,,,,,,,,,,,,,,,,1,,69,72
46800,note_on,,1,0,8,,,,,,,,,,,,,,,,5,,69,88
46800,note_on,,1,0,10,,,,,,,,,,,,,,,,7,,64,88
46800,note_on,,1,0,14,,,,,,,,,,,,,,,,12,,64,72
46800,note_on,,1,0,9,,,,,,,,,,,,,,,,6,,69,88
46919,note_on,,0,0,16,,,,,,,,,,,,,,,,15,,64,0
46919,note_on,,119,0,10,,,,,,,,,,,,,,,,7,,64,0
46919,note_on,,119,0,13,,,,,,,,,,,,,,,,11,,76,0
46919,note_on,,119,0,14,,,,,,,,,,,,,,,,12,,64,0
46919,note_on,,119,0,7,,,,,,,,,,,,,,,,2,,61,0
46919,note_on,,119,0,15,,,,,,,,,,,,,,,,13,,61,0
46919,note_on,,0,0,16,,,,,,,,,,,,,,,,15,,69,0
46919,note_on,,0,0,16,,,,,,,,,,,,,,,,15,,76,0
46919,note_on,,119,0,16,,,,,,,,,,,,,,,,15,,61,0
46919,note_on,,119,0,11,,,,,,,,,,,,,,,,8,,61,0
46920,note_on,,1,0,15,,,,,,,,,,,,,,,,13,,57,72
46920,note_on,,1,0,13,,,,,,,,,,,,,,,,11,,73,72
46920,note_on,,1,0,11,,,,,,,,,,,,,,,,8,,57,88
46920,note_on,,0,0,16,,,,,,,,,,,,,,,,15,,73,72
46920,note_on,,0,0,16,,,,,,,,,,,,,,,,15,,69,72
46920,note_on,,1,0,10,,,,,,,,,,,,,,,,7,,61,88
46920,note_on,,1,0,16,,,,,,,,,,,,,,,,15,,57,72
46920,note_on,,0,0,16,,,,,,,,,,,,,,,,15,,64,72
46920,note_on,,1,0,7,,,,,,,,,,,,,,,,2,,57,72
46920,note_on,,1,0,14,,,,,,,,,,,,,,,,12,,64,72
47039,note_on,,119,0,16,,,,,,,,,,,,,,,,15,,57,0
47039,note_on,,119,0,7,,,,,,,,,,,,,,,,2,,57,0
47039,note_on,,119,0,11,,,,,,,,,,,,,,,,8,,57,0
47039,note_on,,0,0,16,,,,,,,,,,,,,,,,15,,73,0
47039,note_on,,0,0,16,,,,,,,,,,,,,,,,15,,64,0
47039,note_on,,0,0,16,,,,,,,,,,,,,,,,15,,69,0
47039,note_on,,119,0,10,,,,,,,,,,,,,,,,7,,61,0
47039,note_on,,119,0,15,,,,,,,,,,,,,,,,13,,57,0
47039,note_on,,119,0,13,,,,,,,,,,,,,,,,11,,73,0
47039,note_on,,119,0,14,,,,,,,,,,,,,,,,12,,64,0
47040,note_on,,1,0,15,,,,,,,,,,,,,,,,13,,62,72
47040,note_on,,1,0,7,,,,,,,,,,,,,,,,2,,62,72
47040,note_on,,1,0,11,,,,,,,,,,,,,,,,8,,62,88
47040,note_on,,0,0,16,,,,,,,,,,,,,,,,15,,69,72
47040,note_on,,0,0,16,,,,,,,,,,,,,,,,15,,66,72
47040,note_on,,1,0,10,,,,,,,,,,,,,,,,7,,66,88
47040,note_on,,1,0,16,,,,,,,,,,,,,,,,15,,74,72
47040,note_on,,0,0,16,,,,,,,,,,,,,,,,15,,62,72
47040,note_on,,1,0,13,,,,,,,,,,,,,,,,11,,78,72
47040,note_on,,1,0,14,,,,,,,,,,,,,,,,12,,62,72
47159,note_on,,0,0,16,,,,,,,,,,,,,,,,15,,66,0
47159,note_on,,119,0,13,,,,,,,,,,,,,,,,11,,78,0
47159,note_on,,119,0,15,,,,,,,,,,,,,,,,13,,62,0
47159,note_on,,119,0,10,,,,,,,,,,,,,,,,7,,66,0
47159,note_on,,359,0,5,,,,,,,,,,,,,,,,0,,69,0
47159,note_on,,359,0,9,,,,,,,,,,,,,,,,6,,69,0
47159,note_on,,119,0,11,,,,,,,,,,,,,,,,8,,62,0
47159,note_on,,119,0,14,,,,,,,,,,,,,,,,12,,62,0
47159,note_on,,119,0,7,,,,,,,,,,,,,,,,2,,62,0
47159,note_on,,359,0,8,,,,,,,,,,,,,,,,5,,69,0
47159,note_on,,359,0,6,,,,,,,,,,,,,,,,1,,69,0
47159,note_on,,119,0,16,,,,,,,,,,,,,,,,15,,74,0
47159,note_on,,0,0,16,,,,,,,,,,,,,,,,15,,62,0
47159,note_on,,0,0,16,,,,,,,,,,,,,,,,15,,69,0
47160,note_on,,1,0,8,,,,,,,,,,,,,,,,5,,69,88
47160,note_on,,1,0,16,,,,,,,,,,,,,,,,15,,61,72
47160,note_on,,1,0,9,,,,,,,,,,,,,,,,6,,69,88
47160,note_on,,1,0,6,,,,,,,,,,,,,,,,1,,69,72
47160,note_on,,0,0,16,,,,,,,,,,,,,,,,15,,69,72
47160,note_on,,1,0,5,,,,,,,,,,,,,,,,0,,69,72
47160,note_on,,1,0,13,,,,,,,,,,,,,,,,11,,76,72
47160,note_on,,0,0,16,,,,,,,,,,,,,,,,15,,76,72
47160,note_on,,1,0,10,,,,,,,,,,,,,,,,7,,64,88
47160,note_on,,1,0,14,,,,,,,,,,,,,,,,12,,64,72
47160,note_on,,1,0,11,,,,,,,,,,,,,,,,8,,61,88
47160,note_on,,1,0,15,,,,,,,,,,,,,,,,13,,61,72
47160,note_on,,1,0,7,,,,,,,,,,,,,,,,2,,61,72
47160,note_on,,0,0,16,,,,,,,,,,,,,,,,15,,64,72
47219,note_on,,59,0,16,,,,,,,,,,,,,,,,15,,61,0
47219,note_on,,59,0,13,,,,,,,,,,,,,,,,11,,76,0
47219,note_on,,59,0,11,,,,,,,,,,,,,,,,8,,61,0
47219,note_on,,59,0,7,,,,,,,,,,,,,,,,2,,61,0
47219,note_on,,59,0,15,,,,,,,,,,,,,,,,13,,61,0
47219,note_on,,59,0,10,,,,,,,,,,,,,,,,7,,64,0
47219,note_on,,0,0,16,,,,,,,,,,,,,,,,15,,64,0
47220,note_on,,1,0,16,,,,,,,,,,,,,,,,15,,59,72
47220,note_on,,1,0,15,,,,,,,,,,,,,,,,13,,59,72
47220,note_on,,0,0,16,,,,,,,,,,,,,,,,15,,62,72
47220,note_on,,1,0,10,,,,,,,,,,,,,,,,7,,62,88
47220,note_on,,1,0,7,,,,,,,,,,,,,,,,2,,59,72
47220,note_on,,1,0,13,,,,,,,,,,,,,,,,11,,74,72
47220,note_on,,1,0,11,,,,,,,,,,,,,,,,8,,59,88
47279,note_on,,59,0,7,,,,,,,,,,,,,,,,2,,59,0
47279,note_on,,119,0,14,,,,,,,,,,,,,,,,12,,64,0
47279,note_on,,0,0,16,,,,,,,,,,,,,,,,15,,69,0
47279,note_on,,59,0,16,,,,,,,,,,,,,,,,15,,76,0
47279,note_on,,59,0,13,,,,,,,,,,,,,,,,11,,74,0
47279,note_on,,59,0,11,,,,,,,,,,,,,,,,8,,59,0
47279,note_on,,0,0,16,,,,,,,,,,,,,,,,15,,62,0
47279,note_on,,59,0,10,,,,,,,,,,,,,,,,7,,62,0
47279,note_on,,59,0,15,,,,,,,,,,,,,,,,13,,59,0
47279,note_on,,0,0,16,,,,,,,,,,,,,,,,15,,59,0
47280,note_on,,1,0,15,,,,,,,,,,,,,,,,13,,57,72
47280,note_on,,1,0,14,,,,,,,,,,,,,,,,12,,64,72
47280,note_on,,1,0,10,,,,,,,,,,,,,,,,7,,61,88
47280,note_on,,1,0,13,,,,,,,,,,,,,,,,11,,73,72
47280,note_on,,0,0,16,,,,,,,,,,,,,,,,15,,61,72
47280,note_on,,1,0,7,,,,,,,,,,,,,,,,2,,57,72
47280,note_on,,0,0,16,,,,,,,,,,,,,,,,15,,76,72
47280,note_on,,0,0,16,,,,,,,,,,,,,,,,15,,81,72
47280,note_on,,1,0,16,,,,,,,,,,,,,,,,15,,57,72
47280,note_on,,1,0,11,,,,,,,,,,,,,,,,8,,57,88
47280,note_on,,0,0,16,,,,,,,,,,,,,,,,15,,69,72
47399,note_on,,119,0,10,,,,,,,,,,,,,,,,7,,61,0
47399,note_on,,119,0,13,,,,,,,,,,,,,,,,11,,73,0
47399,note_on,,119,0,16,,,,,,,,,,,,,,,,15,,57,0
47399,note_on,,119,0,7,,,,,,,,,,,,,,,,2,,57,0
47399,note_on,,0,0,16,,,,,,,,,,,,,,,,15,,76,0
47399,note_on,,0,0,16,,,,,,,,,,,,,,,,15,,69,0
47399,note_on,,0,0,16,,,,,,,,,,,,,,,,15,,61,0
47399,note_on,,119,0,15,,,,,,,,,,,,,,,,13,,57,0
47399,note_on,,119,0,14,,,,,,,,,,,,,,,,12,,64,0
47399,note_on,,119,0,11,,,,,,,,,,,,,,,,8,,57,0
47399,note_on,,0,0,16,,,,,,,,,,,,,,,,15,,81,0
47400,note_on,,1,0,11,,,,,,,,,,,,,,,,8,,62,88
47400,note_on,,1,0,14,,,,,,,,,,,,,,,,12,,62,72
47400,note_on,,1,0,13,,,,,,,,,,,,,,,,11,,78,72
47400,note_on,,1,0,16,,,,,,,,,,,,,,,,15,,62,72
47400,note_on,,0,0,16,,,,,,,,,,,,,,,,15,,78,72
47400,note_on,,1,0,10,,,,,,,,,,,,,,,,7,,66,88
47400,note_on,,1,0,15,,,,,,,,,,,,,,,,13,,62,72
47400,note_on,,0,0,16,,,,,,,,,,,,,,,,15,,74,72
47400,note_on,,0,0,16,,,,,,,,,,,,,,,,15,,69,72
47400,note_on,,1,0,7,,,,,,,,,,,,,,,,2,,62,72
47519,note_on,,119,0,11,,,,,,,,,,,,,,,,8,,62,0
47519,note_on,,119,0,15,,,,,,,,,,,,,,,,13,,62,0
47519,note_on,,119,0,16,,,,,,,,,,,,,,,,15,,62,0
47519,note_on,,359,0,9,,,,,,,,,,,,,,,,6,,69,0
47519,note_on,,0,0,16,,,,,,,,,,,,,,,,15,,78,0
47519,note_on,,0,0,16,,,,,,,,,,,,,,,,15,,74,0
47519,note_on,,0,0,16,,,,,,,,,,,,,,,,15,,69,0
47519,note_on,,119,0,13,,,,,,,,,,,,,,,,11,,78,0
47519,note_on,,119,0,7,,,,,,,,,,,,,,,,2,,62,0
47519,note_on,,119,0,14,,,,,,,,,,,,,,,,12,,62,0
47519,note_on,,359,0,6,,,,,,,,,,,,,,,,1,,69,0
47519,note_on,,359,0,8,,,,,,,,,,,,,,,,5,,69,0
47519,note_on,,119,0,10,,,,,,,,,,,,,,,,7,,66,0
47519,note_on,,359,0,5,,,,,,,,,,,,,,,,0,,69,0
47520,note_on,,1,0,11,,,,,,,,,,,,,,,,8,,61,88
47520,note_on,,1,0,7,,,,,,,,,,,,,,,,2,,61,72
47520,note_on,,1,0,6,,,,,,,,,,,,,,,,1,,69,72
47520,note_on,,1,0,8,,,,,,,,,,,,,,,,5,,69,88
47520,note_on,,1,0,5,,,,,,,,,,,,,,,,0,,69,72
47520,note_on,,0,0,16,,,,,,,,,,,,,,,,15,,76,72
47520,note_on,,1,0,10,,,,,,,,,,,,,,,,7,,64,88
47520,note_on,,1,0,15,,,,,,,,,,,,,,,,13,,61,72
47520,note_on,,1,0,13,,,,,,,,,,,,,,,,11,,76,72
47520,note_on,,1,0,16,,,,,,,,,,,,,,,,15,,61,72
47520,note_on,,1,0,14,,,,,,,,,,,,,,,,12,,64,72
47520,note_on,,0,0,16,,,,,,,,,,,,,,,,15,,69,72
47520,note_on,,0,0,16,,,,,,,,,,,,,,,,15,,64,72
47520,note_on,,1,0,9,,,,,,,,,,,,,,,,6,,69,88
47639,note_on,,119,0,16,,,,,,,,,,,,,,,,15,,61,0
47639,note_on,,0,0,16,,,,,,,,,,,,,,,,15,,69,0
47639,note_on,,0,0,16,,,,,,,,,,,,,,,,15,,64,0
47639,note_on,,119,0,14,,,,,,,,,,,,,,,,12,,64,0
47639,note_on,,119,0,10,,,,,,,,,,,,,,,,7,,64,0
47639,note_on,,119,0,11,,,,,,,,,,,,,,,,8,,61,0
47639,note_on,,0,0,16,,,,,,,,,,,,,,,,15,,76,0
47639,note_on,,119,0,15,,,,,,,,,,,,,,,,13,,61,0
47639,note_on,,119,0,13,,,,,,,,,,,,,,,,11,,76,0
47639,note_on,,119,0,7,,,,,,,,,,,,,,,,2,,61,0
47640,note_on,,1,0,15,,,,,,,,,,,,,,,,13,,57,72
47640,note_on,,0,0,16,,,,,,,,,,,,,,,,15,,61,72
47640,note_on,,1,0,14,,,,,,,,,,,,,,,,12,,64,72
47640,note_on,,1,0,16,,,,,,,,,,,,,,,,15,,57,72
47640,note_on,,0,0,16,,,,,,,,,,,,,,,,15,,81,72
47640,note_on,,0,0,16,,,,,,,,,,,,,,,,15,,76,72
47640,note_on,,1,0,11,,,,,,,,,,,,,,,,8,,57,88
47640,note_on,,1,0,7,,,,,,,,,,,,,,,,2,,57,72
47640,note_on,,1,0,10,,,,,,,,,,,,,,,,7,,61,88
47640,note_on,,1,0,13,,,,,,,,,,,,,,,,11,,73,72
47640,note_on,,0,0,16,,,,,,,,,,,,,,,,15,,69,72
47759,note_on,,119,0,15,,,,,,,,,,,,,,,,13,,57,0
47759,note_on,,119,0,11,,,,,,,,,,,,,,,,8,,57,0
47759,note_on,,119,0,7,,,,,,,,,,,,,,,,2,,57,0
47759,note_on,,0,0,16,,,,,,,,,,,,,,,,15,,81,0
47759,note_on,,119,0,14,,,,,,,,,,,,,,,,12,,64,0
47759,note_on,,0,0,16,,,,,,,,,,,,,,,,15,,76,0
47759,note_on,,119,0,10,,,,,,,,,,,,,,,,7,,61,0
47759,note_on,,119,0,13,,,,,,,,,,,,,,,,11,,73,0
47759,note_on,,119,0,16,,,,,,,,,,,,,,,,15,,57,0
47759,note_on,,0,0,16,,,,,,,,,,,,,,,,15,,69,0
47759,note_on,,0,0,16,,,,,,,,,,,,,,,,15,,61,0
47760,note_on,,1,0,7,,,,,,,,,,,,,,,,2,,62,72
47760,note_on,,1,0,13,,,,,,,,,,,,,,,,11,,78,72
47760,note_on,,1,0,15,,,,,,,,,,,,,,,,13,,62,72
47760,note_on,,1,0,14,,,,,,,,,,,,,,,,12,,62,72
47760,note_on,,1,0,16,,,,,,,,,,,,,,,,15,,62,72
47760,note_on,,0,0,16,,,,,,,,,,,,,,,,15,,74,72
47760,note_on,,0,0,16,,,,,,,,,,,,,,,,15,,69,72
47760,note_on,,0,0,16,,,,,,,,,,,,,,,,15,,66,72
47760,note_on,,1,0,11,,,,,,,,,,,,,,,,8,,62,88
47760,note_on,,1,0,10,,,,,,,,,,,,,,,,7,,66,88
47760,note_on,,0,0,16,,,,,,,,,,,,,,,,15,,81,72
47879,note_on,,1439,0,12,,,,,,,,,,,,,,,,10,,81,0
47879,note_on,,119,0,11,,,,,,,,,,,,,,,,8,,62,0
47879,note_on,,119,0,10,,,,,,,,,,,,,,,,7,,66,0
47879,note_on,,119,0,14,,,,,,,,,,,,,,,,12,,62,0
47879,note_on,,119,0,16,,,,,,,,,,,,,,,,15,,62,0
47879,note_on,,119,0,15,,,,,,,,,,,,,,,,13,,62,0
47879,note_on,,119,0,13,,,,,,,,,,,,,,,,11,,78,0
47879,note_on,,119,0,7,,,,,,,,,,,,,,,,2,,62,0
47879,note_on,,0,0,16,,,,,,,,,,,,,,,,15,,74,0
47879,note_on,,0,0,16,,,,,,,,,,,,,,,,15,,69,0
47879,note_on,,0,0,16,,,,,,,,,,,,,,,,15,,66,0
47879,note_on,,0,0,16,,,,,,,,,,,,,,,,15,,81,0
47880,note_on,,0,0,16,,,,,,,,,,,,,,,,15,,64,72
47880,note_on,,1,0,11,,,,,,,,,,,,,,,,8,,61,88
47880,note_on,,0,0,16,,,,,,,,,,,,,,,,15,,76,72
47880,note_on,,1,0,14,,,,,,,,,,,,,,,,12,,64,72
47880,note_on,,0,0,16,,,,,,,,,,,,,,,,15,,81,72
47880,note_on,,1,0,15,,,,,,,,,,,,,,,,13,,61,72
47880,note_on,,1,0,10,,,,,,,,,,,,,,,,7,,64,88
47880,note_on,,1,0,13,,,,,,,,,,,,,,,,11,,76,72
47880,note_on,,1,0,12,,,,,,,,,,,,,,,,10,,81,72
47880,note_on,,0,0,16,,,,,,,,,,,,,,,,15,,69,72
47880,note_on,,1,0,7,,,,,,,,,,,,,,,,2,,61,72
47880,note_on,,1,0,16,,,,,,,,,,,,,,,,15,,61,72
47939,note_on,,59,0,11,,,,,,,,,,,,,,,,8,,61,0
47939,note_on,,59,0,7,,,,,,,,,,,,,,,,2,,61,0
47939,note_on,,59,0,16,,,,,,,,,,,,,,,,15,,61,0
47939,note_on,,0,0,16,,,,,,,,,,,,,,,,15,,76,0
47939,note_on,,59,0,13,,,,,,,,,,,,,,,,11,,76,0
47939,note_on,,59,0,15,,,,,,,,,,,,,,,,13,,61,0
47939,note_on,,59,0,10,,,,,,,,,,,,,,,,7,,64,0
47940,note_on,,1,0,7,,,,,,,,,,,,,,,,2,,59,72
47940,note_on,,1,0,15,,,,,,,,,,,,,,,,13,,59,72
47940,note_on,,1,0,13,,,,,,,,,,,,,,,,11,,74,72
47940,note_on,,1,0,10,,,,,,,,,,,,,,,,7,,62,88
47940,note_on,,0,0,16,,,,,,,,,,,,,,,,15,,74,72
47940,note_on,,1,0,16,,,,,,,,,,,,,,,,15,,59,72
47940,note_on,,1,0,11,,,,,,,,,,,,,,,,8,,59,88
47999,note_on,,0,0,16,,,,,,,,,,,,,,,,15,,74,0
47999,note_on,,0,0,16,,,,,,,,,,,,,,,,15,,59,0
47999,note_on,,59,0,15,,,,,,,,,,,,,,,,13,,59,0
47999,note_on,,0,0,16,,,,,,,,,,,,,,,,15,,64,0
47999,note_on,,59,0,16,,,,,,,,,,,,,,,,15,,81,0
47999,note_on,,59,0,7,,,,,,,,,,,,,,,,2,,59,0
47999,note_on,,119,0,12,,,,,,,,,,,,,,,,10,,81,0
47999,note_on,,59,0,10,,,,,,,,,,,,,,,,7,,62,0
47999,note_on,,0,0,16,,,,,,,,,,,,,,,,15,,69,0
47999,note_on,,59,0,11,,,,,,,,,,,,,,,,8,,59,0
47999,note_on,,59,0,13,,,,,,,,,,,,,,,,11,,74,0
47999,note_on,,119,0,14,,,,,,,,,,,,,,,,12,,64,0
48000,note_on,,0,0,16,,,,,,,,,,,,,,,,15,,81,72
48000,note_on,,0,0,16,,,,,,,,,,,,,,,,15,,76,72
48000,note_on,,1,0,13,,,,,,,,,,,,,,,,11,,73,72
48000,note_on,,1,0,10,,,,,,,,,,,,,,,,7,,61,88
48000,note_on,,1,0,7,,,,,,,,,,,,,,,,2,,57,72
48000,note_on,,0,0,16,,,,,,,,,,,,,,,,15,,64,72
48000,note_on,,1,0,12,,,,,,,,,,,,,,,,10,,76,72
48000,note_on,,1,0,14,,,,,,,,,,,,,,,,12,,69,72
48000,note_on,,1,0,16,,,,,,,,,,,,,,,,15,,57,72
48000,note_on,,0,0,16,,,,,,,,,,,,,,,,15,,73,72
48000,note_on,,0,0,16,,,,,,,,,,,,,,,,15,,69,72
48000,note_on,,1,0,11,,,,,,,,,,,,,,,,8,,57,88
48000,note_on,,1,0,15,,,,,,,,,,,,,,,,13,,57,72
48119,note_on,,119,0,11,,,,,,,,,,,,,,,,8,,57,0
48119,note_on,,0,0,16,,,,,,,,,,,,,,,,15,,73,0
48119,note_on,,119,0,16,,,,,,,,,,,,,,,,15,,57,0
48119,note_on,,599,0,9,,,,,,,,,,,,,,,,6,,69,0
48119,note_on,,119,0,14,,,,,,,,,,,,,,,,12,,69,0
48119,note_on,,119,0,10,,,,,,,,,,,,,,,,7,,61,0
48119,note_on,,599,0,8,,,,,,,,,,,,,,,,5,,69,0
48119,note_on,,119,0,13,,,,,,,,,,,,,,,,11,,73,0
48119,note_on,,0,0,16,,,,,,,,,,,,,,,,15,,76,0
48119,note_on,,0,0,16,,,,,,,,,,,,,,,,15,,69,0
48119,note_on,,599,0,5,,,,,,,,,,,,,,,,0,,69,0
48119,note_on,,119,0,7,,,,,,,,,,,,,,,,2,,57,0
48119,note_on,,599,0,6,,,,,,,,,,,,,,,,1,,69,0
48119,note_on,,119,0,12,,,,,,,,,,,,,,,,10,,76,0
48119,note_on,,119,0,15,,,,,,,,,,,,,,,,13,,57,0
48119,note_on,,0,0,16,,,,,,,,,,,,,,,,15,,81,0
48119,note_on,,0,0,16,,,,,,,,,,,,,,,,15,,64,0
48480,note_on,,361,0,13,,,,,,,,,,,,,,,,11,,73,72
48480,note_on,,0,0,16,,,,,,,,,,,,,,,,15,,73,72
48480,note_on,,361,0,16,,,,,,,,,,,,,,,,15,,57,72
48480,note_on,,0,0,16,,,,,,,,,,,,,,,,15,,76,72
48480,note_on,,361,0,10,,,,,,,,,,,,,,,,7,,64,88
48480,note_on,,361,0,6,,,,,,,,,,,,,,,,1,,73,72
48480,note_on,,361,0,5,,,,,,,,,,,,,,,,0,,73,72
48480,note_on,,361,0,12,,,,,,,,,,,,,,,,10,,76,72
48480,note_on,,0,0,16,,,,,,,,,,,,,,,,15,,69,72
48480,note_on,,361,0,7,,,,,,,,,,,,,,,,2,,57,72
48480,note_on,,361,0,14,,,,,,,,,,,,,,,,12,,69,72
48480,note_on,,0,0,16,,,,,,,,,,,,,,,,15,,64,72
48480,note_on,,361,0,11,,,,,,,,,,,,,,,,8,,57,88
48480,note_on,,361,0,15,,,,,,,,,,,,,,,,13,,57,72
48480,set_tempo,,48480,1,0,,,,,,,,,857142,,,,,,,,,,
48480,note_on,,361,0,8,,,,,,,,,,,,,,,,5,,73,88
48480,note_on,,361,0,9,,,,,,,,,,,,,,,,6,,69,88
48480,note_on,,0,0,16,,,,,,,,,,,,,,,,15,,61,72
48599,note_on,,119,0,10,,,,,,,,,,,,,,,,7,,64,0
48599,note_on,,0,0,16,,,,,,,,,,,,,,,,15,,61,0
48599,note_on,,119,0,5,,,,,,,,,,,,,,,,0,,73,0
48599,note_on,,119,0,14,,,,,,,,,,,,,,,,12,,69,0
48599,note_on,,119,0,16,,,,,,,,,,,,,,,,15,,57,0
48599,note_on,,119,0,8,,,,,,,,,,,,,,,,5,,73,0
48599,note_on,,0,0,16,,,,,,,,,,,,,,,,15,,69,0
48599,note_on,,0,0,16,,,,,,,,,,,,,,,,15,,64,0
48599,note_on,,119,0,9,,,,,,,,,,,,,,,,6,,69,0
48599,note_on,,0,0,16,,,,,,,,,,,,,,,,15,,73,0
48599,note_on,,0,0,16,,,,,,,,,,,,,,,,15,,76,0
48599,note_on,,119,0,13,,,,,,,,,,,,,,,,11,,73,0
48599,note_on,,119,0,11,,,,,,,,,,,,,,,,8,,57,0
48599,note_on,,119,0,7,,,,,,,,,,,,,,,,2,,57,0
48599,note_on,,119,0,12,,,,,,,,,,,,,,,,10,,76,0
48599,note_on,,119,0,15,,,,,,,,,,,,,,,,13,,57,0
48599,note_on,,119,0,6,,,,,,,,,,,,,,,,1,,73,0
48600,note_on,,1,0,5,,,,,,,,,,,,,,,,0,,74,72
48600,note_on,,1,0,12,,,,,,,,,,,,,,,,10,,78,72
48600,note_on,,0,0,16,,,,,,,,,,,,,,,,15,,57,72
48600,note_on,,1,0,6,,,,,,,,,,,,,,,,1,,74,72
48600,note_on,,1,0,14,,,,,,,,,,,,,,,,12,,69,72
48600,note_on,,0,0,16,,,,,,,,,,,,,,,,15,,78,72
48600,note_on,,0,0,16,,,,,,,,,,,,,,,,15,,74,72
48600,note_on,,1,0,11,,,,,,,,,,,,,,,,8,,62,88
48600,note_on,,1,0,10,,,,,,,,,,,,,,,,7,,66,88
48600,note_on,,1,0,8,,,,,,,,,,,,,,,,5,,74,88
48600,note_on,,1,0,9,,,,,,,,,,,,,,,,6,,69,88
48600,note_on,,1,0,13,,,,,,,,,,,,,,,,11,,74,72
48600,note_on,,0,0,16,,,,,,,,,,,,,,,,15,,62,72
48600,note_on,,0,0,16,,,,,,,,,,,,,,,,15,,69,72
48600,note_on,,1,0,15,,,,,,,,,,,,,,,,13,,50,72
48600,note_on,,1,0,16,,,,,,,,,,,,,,,,15,,50,72
48600,note_on,,1,0,7,,,,,,,,,,,,,,,,2,,50,72
49199,note_on,,599,0,16,,,,,,,,,,,,,,,,15,,50,0
49199,note_on,,0,0,16,,,,,,,,,,,,,,,,15,,78,0
49199,note_on,,0,0,16,,,,,,,,,,,,,,,,15,,74,0
49199,note_on,,0,0,16,,,,,,,,,,,,,,,,15,,62,0
49199,note_on,,599,0,8,,,,,,,,,,,,,,,,5,,74,0
49199,note_on,,599,0,11,,,,,,,,,,,,,,,,8,,62,0
49199,note_on,,599,0,12,,,,,,,,,,,,,,,,10,,78,0
49199,note_on,,0,0,16,,,,,,,,,,,,,,,,15,,57,0
49199,note_on,,599,0,13,,,,,,,,,,,,,,,,11,,74,0
49199,note_on,,599,0,15,,,,,,,,,,,,,,,,13,,50,0
49199,note_on,,599,0,6,,,,,,,,,,,,,,,,1,,74,0
49199,note_on,,599,0,7,,,,,,,,,,,,,,,,2,,50,0
49199,note_on,,599,0,5,,,,,,,,,,,,,,,,0,,74,0
49199,note_on,,0,0,16,,,,,,,,,,,,,,,,15,,69,0
49199,note_on,,599,0,14,,,,,,,,,,,,,,,,12,,69,0
49199,note_on,,599,0,9,,,,,,,,,,,,,,,,6,,69,0
49199,note_on,,599,0,10,,,,,,,,,,,,,,,,7,,66,0
49200,note_on,,0,0,16,,,,,,,,,,,,,,,,15,,69,72
49200,note_on,,1,0,15,,,,,,,,,,,,,,,,13,,50,72
49200,note_on,,1,0,14,,,,,,,,,,,,,,,,12,,69,72
49200,note_on,,1,0,5,,,,,,,,,,,,,,,,0,,74,72
49200,note_on,,1,0,16,,,,,,,,,,,,,,,,15,,50,72
49200,note_on,,1,0,9,,,,,,,,,,,,,,,,6,,69,88
49200,note_on,,0,0,16,,,,,,,,,,,,,,,,15,,78,72
49200,note_on,,1,0,13,,,,,,,,,,,,,,,,11,,74,72
49200,note_on,,0,0,16,,,,,,,,,,,,,,,,15,,57,72
49200,note_on,,1,0,8,,,,,,,,,,,,,,,,5,,74,88
49200,note_on,,0,0,16,,,,,,,,,,,,,,,,15,,62,72
49200,note_on,,1,0,11,,,,,,,,,,,,,,,,8,,50,88
49200,note_on,,1,0,12,,,,,,,,,,,,,,,,10,,78,72
49200,note_on,,1,0,10,,,,,,,,,,,,,,,,7,,66,88
49200,note_on,,1,0,6,,,,,,,,,,,,,,,,1,,74,72
49200,note_on,,0,0,16,,,,,,,,,,,,,,,,15,,74,72
49200,note_on,,1,0,7,,,,,,,,,,,,,,,,2,,50,72
49319,note_on,,119,0,6,,,,,,,,,,,,,,,,1,,74,0
49319,note_on,,119,0,5,,,,,,,,,,,,,,,,0,,74,0
49319,note_on,,119,0,16,,,,,,,,,,,,,,,,15,,50,0
49319,note_on,,119,0,15,,,,,,,,,,,,,,,,13,,50,0
49319,note_on,,0,0,16,,,,,,,,,,,,,,,,15,,74,0
49319,note_on,,0,0,16,,,,,,,,,,,,,,,,15,,78,0
49319,note_on,,119,0,7,,,,,,,,,,,,,,,,2,,50,0
49319,note_on,,119,0,8,,,,,,,,,,,,,,,,5,,74,0
49319,note_on,,119,0,11,,,,,,,,,,,,,,,,8,,50,0
49319,note_on,,0,0,16,,,,,,,,,,,,,,,,15,,69,0
49319,note_on,,119,0,12,,,,,,,,,,,,,,,,10,,78,0
49319,note_on,,119,0,10,,,,,,,,,,,,,,,,7,,66,0
49319,note_on,,119,0,13,,,,,,,,,,,,,,,,11,,74,0
49319,note_on,,119,0,9,,,,,,,,,,,,,,,,6,,69,0
49319,note_on,,0,0,16,,,,,,,,,,,,,,,,15,,57,0
49319,note_on,,0,0,16,,,,,,,,,,,,,,,,15,,62,0
49319,note_on,,119,0,14,,,,,,,,,,,,,,,,12,,69,0
49320,note_on,,1,0,14,,,,,,,,,,,,,,,,12,,69,72
49320,note_on,,1,0,6,,,,,,,,,,,,,,,,1,,73,72
49320,note_on,,1,0,12,,,,,,,,,,,,,,,,10,,76,72
49320,note_on,,1,0,7,,,,,,,,,,,,,,,,2,,45,72
49320,note_on,,1,0,10,,,,,,,,,,,,,,,,7,,64,88
49320,note_on,,0,0,16,,,,,,,,,,,,,,,,15,,57,72
49320,note_on,,1,0,16,,,,,,,,,,,,,,,,15,,45,72
49320,note_on,,1,0,11,,,,,,,,,,,,,,,,8,,57,88
49320,note_on,,1,0,5,,,,,,,,,,,,,,,,0,,73,72
49320,note_on,,0,0,16,,,,,,,,,,,,,,,,15,,64,72
49320,note_on,,0,0,16,,,,,,,,,,,,,,,,15,,69,72
49320,note_on,,0,0,16,,,,,,,,,,,,,,,,15,,73,72
49320,note_on,,0,0,16,,,,,,,,,,,,,,,,15,,76,72
49320,note_on,,1,0,9,,,,,,,,,,,,,,,,6,,69,88
49320,note_on,,1,0,15,,,,,,,,,,,,,,,,13,,45,72
49320,note_on,,1,0,8,,,,,,,,,,,,,,,,5,,73,88
49320,note_on,,1,0,13,,,,,,,,,,,,,,,,11,,73,72
49679,note_on,,0,0,16,,,,,,,,,,,,,,,,15,,64,0
49679,note_on,,359,0,16,,,,,,,,,,,,,,,,15,,45,0
49679,note_on,,0,0,16,,,,,,,,,,,,,,,,15,,76,0
49679,note_on,,0,0,16,,,,,,,,,,,,,,,,15,,73,0
49679,note_on,,0,0,16,,,,,,,,,,,,,,,,15,,69,0
49679,note_on,,359,0,11,,,,,,,,,,,,,,,,8,,57,0
49679,note_on,,359,0,14,,,,,,,,,,,,,,,,12,,69,0
49679,end_of_track,,0,1,11,,,,,,,,,,,,,,,,,,,
49679,note_on,,359,0,12,,,,,,,,,,,,,,,,10,,76,0
49679,end_of_track,,0,1,12,,,,,,,,,,,,,,,,,,,
49679,end_of_track,,0,1,10,,,,,,,,,,,,,,,,,,,
49679,note_on,,359,0,10,,,,,,,,,,,,,,,,7,,64,0
49679,note_on,,0,0,16,,,,,,,,,,,,,,,,15,,57,0
49679,note_on,,359,0,13,,,,,,,,,,,,,,,,11,,73,0
49679,end_of_track,,0,1,13,,,,,,,,,,,,,,,,,,,
49679,end_of_track,,0,1,9,,,,,,,,,,,,,,,,,,,
49679,note_on,,359,0,9,,,,,,,,,,,,,,,,6,,69,0
49679,end_of_track,,0,1,16,,,,,,,,,,,,,,,,,,,
49679,end_of_track,,0,1,8,,,,,,,,,,,,,,,,,,,
49679,note_on,,359,0,8,,,,,,,,,,,,,,,,5,,73,0
49679,note_on,,359,0,15,,,,,,,,,,,,,,,,13,,45,0
49679,end_of_track,,0,1,15,,,,,,,,,,,,,,,,,,,
49679,end_of_track,,0,1,7,,,,,,,,,,,,,,,,,,,
49679,note_on,,359,0,7,,,,,,,,,,,,,,,,2,,45,0
49679,end_of_track,,0,1,6,,,,,,,,,,,,,,,,,,,
49679,note_on,,359,0,6,,,,,,,,,,,,,,,,1,,73,0
49679,end_of_track,,0,1,5,,,,,,,,,,,,,,,,,,,
49679,note_on,,359,0,5,,,,,,,,,,,,,,,,0,,73,0
49679,end_of_track,,0,1,14,,,,,,,,,,,,,,,,,,,
50040,set_tempo,,1560,1,0,,,,,,,,,857142,,,,,,,,,,
50040,end_of_track,,0,1,0,,,,,,,,,,,,,,,,,,,
