tick,type,data,time,meta,track,frame_rate,hours,minutes,seconds,frames,sub_frames,port,key,tempo,numerator,denominator,clocks_per_click,notated_32nd_notes_per_beat,control,value,channel,program,note,velocity
0,sequencer_specific,"(0, 0, 91, 35, 1, 0, 5, 4, 35, 0)",0,1,0,,,,,,,,,,,,,,,,,,,
0,program_change,,0,0,5,,,,,,,,,,,,,,,,2,70,,
0,control_change,,0,0,9,,,,,,,,,,,,,,11,127,15,,,
0,control_change,,0,0,9,,,,,,,,,,,,,,7,96,15,,,
0,control_change,,0,0,9,,,,,,,,,,,,,,10,90,15,,,
0,program_change,,0,0,9,,,,,,,,,,,,,,,,15,6,,
0,midi_port,,0,1,7,,,,,,,0,,,,,,,,,,,,
0,track_name,,0,1,6,,,,,,,,,,,,,,,,,,,
0,midi_port,,0,1,6,,,,,,,0,,,,,,,,,,,,
0,control_change,,0,0,6,,,,,,,,,,,,,,11,127,6,,,
0,control_change,,0,0,6,,,,,,,,,,,,,,7,96,6,,,
0,control_change,,0,0,5,,,,,,,,,,,,,,10,65,2,,,
0,control_change,,0,0,6,,,,,,,,,,,,,,10,70,6,,,
0,program_change,,0,0,8,,,,,,,,,,,,,,,,13,48,,
0,control_change,,0,0,8,,,,,,,,,,,,,,10,96,13,,,
0,control_change,,0,0,8,,,,,,,,,,,,,,7,96,13,,,
0,control_change,,0,0,8,,,,,,,,,,,,,,11,127,13,,,
0,midi_port,,0,1,8,,,,,,,0,,,,,,,,,,,,
0,track_name,,0,1,8,,,,,,,,,,,,,,,,,,,
0,program_change,,0,0,7,,,,,,,,,,,,,,,,10,48,,
0,control_change,,0,0,7,,,,,,,,,,,,,,10,32,10,,,
0,control_change,,0,0,7,,,,,,,,,,,,,,7,96,10,,,
0,control_change,,0,0,7,,,,,,,,,,,,,,11,127,10,,,
0,program_change,,0,0,6,,,,,,,,,,,,,,,,6,73,,
0,control_change,,0,0,5,,,,,,,,,,,,,,7,80,2,,,
0,track_name,,0,1,7,,,,,,,,,,,,,,,,,,,
0,midi_port,,0,1,5,,,,,,,0,,,,,,,,,,,,
0,midi_port,,0,1,0,,,,,,,0,,,,,,,,,,,,
0,end_of_track,,0,1,4,,,,,,,,,,,,,,,,,,,
0,midi_port,,0,1,4,,,,,,,0,,,,,,,,,,,,
0,end_of_track,,0,1,3,,,,,,,,,,,,,,,,,,,
0,midi_port,,0,1,3,,,,,,,0,,,,,,,,,,,,
0,key_signature,,0,1,0,,,,,,,,Dm,,,,,,,,,,,
0,set_tempo,,0,1,0,,,,,,,,,631578,,,,,,,,,,
0,time_signature,,0,1,0,,,,,,,,,,4,4,24,8,,,,,,
0,track_name,,0,1,9,,,,,,,,,,,,,,,,,,,
0,midi_port,,0,1,9,,,,,,,0,,,,,,,,,,,,
0,track_name,,0,1,1,,,,,,,,,,,,,,,,,,,
0,midi_port,,0,1,1,,,,,,,0,,,,,,,,,,,,
0,end_of_track,,0,1,1,,,,,,,,,,,,,,,,,,,
0,track_name,,0,1,2,,,,,,,,,,,,,,,,,,,
0,midi_port,,0,1,2,,,,,,,0,,,,,,,,,,,,
0,end_of_track,,0,1,2,,,,,,,,,,,,,,,,,,,
0,track_name,,0,1,3,,,,,,,,,,,,,,,,,,,
0,smpte_offset,,0,1,0,25,32,0,3,0,0,,,,,,,,,,,,,
0,instrument_name,,0,1,0,,,,,,,,,,,,,,,,,,,
0,control_change,,0,0,5,,,,,,,,,,,,,,11,127,2,,,
0,track_name,,0,1,5,,,,,,,,,,,,,,,,,,,
0,track_name,,0,1,0,,,,,,,,,,,,,,,,,,,
60,note_on,,60,0,7,,,,,,,,,,,,,,,,10,,69,72
119,note_on,,59,0,7,,,,,,,,,,,,,,,,10,,69,0
120,note_on,,120,0,8,,,,,,,,,,,,,,,,13,,62,72
120,note_on,,0,0,9,,,,,,,,,,,,,,,,15,,74,64
120,note_on,,0,0,9,,,,,,,,,,,,,,,,15,,69,64
120,note_on,,120,0,5,,,,,,,,,,,,,,,,2,,62,72
120,note_on,,0,0,9,,,,,,,,,,,,,,,,15,,65,64
120,note_on,,120,0,9,,,,,,,,,,,,,,,,15,,62,64
120,note_on,,1,0,7,,,,,,,,,,,,,,,,10,,74,72
239,note_on,,119,0,8,,,,,,,,,,,,,,,,13,,62,0
239,note_on,,119,0,9,,,,,,,,,,,,,,,,15,,62,0
239,note_on,,119,0,5,,,,,,,,,,,,,,,,2,,62,0
240,note_on,,1,0,8,,,,,,,,,,,,,,,,13,,50,72
240,note_on,,1,0,5,,,,,,,,,,,,,,,,2,,50,72
240,note_on,,1,0,9,,,,,,,,,,,,,,,,15,,50,64
299,note_on,,179,0,7,,,,,,,,,,,,,,,,10,,74,0
300,note_on,,1,0,7,,,,,,,,,,,,,,,,10,,77,72
359,note_on,,0,0,9,,,,,,,,,,,,,,,,15,,69,0
359,note_on,,119,0,9,,,,,,,,,,,,,,,,15,,74,0
359,note_on,,0,0,9,,,,,,,,,,,,,,,,15,,65,0
359,note_on,,119,0,8,,,,,,,,,,,,,,,,13,,50,0
359,note_on,,119,0,5,,,,,,,,,,,,,,,,2,,50,0
359,note_on,,59,0,7,,,,,,,,,,,,,,,,10,,77,0
359,note_on,,0,0,9,,,,,,,,,,,,,,,,15,,50,0
360,note_on,,0,0,9,,,,,,,,,,,,,,,,15,,62,64
360,note_on,,1,0,8,,,,,,,,,,,,,,,,13,,58,72
360,note_on,,1,0,5,,,,,,,,,,,,,,,,2,,58,72
360,note_on,,1,0,9,,,,,,,,,,,,,,,,15,,58,64
360,note_on,,0,0,9,,,,,,,,,,,,,,,,15,,67,64
360,note_on,,1,0,7,,,,,,,,,,,,,,,,10,,76,72
419,note_on,,59,0,7,,,,,,,,,,,,,,,,10,,76,0
420,note_on,,1,0,7,,,,,,,,,,,,,,,,10,,74,72
479,note_on,,59,0,7,,,,,,,,,,,,,,,,10,,74,0
479,note_on,,119,0,8,,,,,,,,,,,,,,,,13,,58,0
479,note_on,,0,0,9,,,,,,,,,,,,,,,,15,,67,0
479,note_on,,119,0,9,,,,,,,,,,,,,,,,15,,58,0
479,note_on,,0,0,9,,,,,,,,,,,,,,,,15,,62,0
479,note_on,,119,0,5,,,,,,,,,,,,,,,,2,,58,0
480,note_on,,1,0,9,,,,,,,,,,,,,,,,15,,57,64
480,note_on,,0,0,9,,,,,,,,,,,,,,,,15,,69,64
480,note_on,,0,0,9,,,,,,,,,,,,,,,,15,,64,64
480,note_on,,0,0,9,,,,,,,,,,,,,,,,15,,61,64
480,time_signature,,480,1,0,,,,,,,,,,3,4,24,8,,,,,,
480,note_on,,1,0,5,,,,,,,,,,,,,,,,2,,57,72
480,note_on,,1,0,8,,,,,,,,,,,,,,,,13,,57,72
480,note_on,,1,0,7,,,,,,,,,,,,,,,,10,,73,72
539,note_on,,59,0,7,,,,,,,,,,,,,,,,10,,73,0
540,note_on,,1,0,7,,,,,,,,,,,,,,,,10,,82,72
599,note_on,,59,0,7,,,,,,,,,,,,,,,,10,,82,0
600,note_on,,1,0,7,,,,,,,,,,,,,,,,10,,81,72
659,note_on,,179,0,5,,,,,,,,,,,,,,,,2,,57,0
659,note_on,,179,0,9,,,,,,,,,,,,,,,,15,,57,0
659,note_on,,179,0,8,,,,,,,,,,,,,,,,13,,57,0
660,note_on,,1,0,9,,,,,,,,,,,,,,,,15,,55,64
660,note_on,,1,0,5,,,,,,,,,,,,,,,,2,,55,72
660,note_on,,1,0,8,,,,,,,,,,,,,,,,13,,55,72
719,note_on,,59,0,5,,,,,,,,,,,,,,,,2,,55,0
719,note_on,,0,0,9,,,,,,,,,,,,,,,,15,,61,0
719,note_on,,0,0,9,,,,,,,,,,,,,,,,15,,64,0
719,note_on,,59,0,9,,,,,,,,,,,,,,,,15,,69,0
719,note_on,,0,0,9,,,,,,,,,,,,,,,,15,,55,0
719,note_on,,59,0,8,,,,,,,,,,,,,,,,13,,55,0
720,note_on,,0,0,9,,,,,,,,,,,,,,,,15,,74,64
720,note_on,,1,0,9,,,,,,,,,,,,,,,,15,,54,64
720,note_on,,1,0,5,,,,,,,,,,,,,,,,2,,54,72
720,note_on,,0,0,9,,,,,,,,,,,,,,,,15,,69,64
720,note_on,,1,0,8,,,,,,,,,,,,,,,,13,,54,72
720,note_on,,0,0,9,,,,,,,,,,,,,,,,15,,62,64
779,note_on,,179,0,7,,,,,,,,,,,,,,,,10,,81,0
780,note_on,,1,0,7,,,,,,,,,,,,,,,,10,,72,72
839,note_on,,59,0,7,,,,,,,,,,,,,,,,10,,72,0
839,note_on,,119,0,5,,,,,,,,,,,,,,,,2,,54,0
839,note_on,,119,0,9,,,,,,,,,,,,,,,,15,,54,0
839,note_on,,0,0,9,,,,,,,,,,,,,,,,15,,69,0
839,note_on,,0,0,9,,,,,,,,,,,,,,,,15,,62,0
839,note_on,,119,0,8,,,,,,,,,,,,,,,,13,,54,0
840,note_on,,1,0,9,,,,,,,,,,,,,,,,15,,55,64
840,note_on,,0,0,9,,,,,,,,,,,,,,,,15,,70,64
840,note_on,,0,0,9,,,,,,,,,,,,,,,,15,,67,64
840,note_on,,1,0,7,,,,,,,,,,,,,,,,10,,70,72
840,note_on,,0,0,9,,,,,,,,,,,,,,,,15,,62,64
840,note_on,,1,0,8,,,,,,,,,,,,,,,,13,,55,72
840,note_on,,1,0,5,,,,,,,,,,,,,,,,2,,55,72
899,note_on,,59,0,7,,,,,,,,,,,,,,,,10,,70,0
900,note_on,,1,0,7,,,,,,,,,,,,,,,,10,,69,72
959,note_on,,119,0,8,,,,,,,,,,,,,,,,13,,55,0
959,note_on,,119,0,5,,,,,,,,,,,,,,,,2,,55,0
959,note_on,,119,0,9,,,,,,,,,,,,,,,,15,,55,0
959,note_on,,0,0,9,,,,,,,,,,,,,,,,15,,70,0
959,note_on,,59,0,7,,,,,,,,,,,,,,,,10,,69,0
959,note_on,,0,0,9,,,,,,,,,,,,,,,,15,,67,0
959,note_on,,0,0,9,,,,,,,,,,,,,,,,15,,62,0
960,note_on,,1,0,8,,,,,,,,,,,,,,,,13,,58,72
960,note_on,,0,0,9,,,,,,,,,,,,,,,,15,,67,64
960,note_on,,1,0,5,,,,,,,,,,,,,,,,2,,58,72
960,note_on,,0,0,9,,,,,,,,,,,,,,,,15,,62,64
960,note_on,,1,0,7,,,,,,,,,,,,,,,,10,,67,72
960,note_on,,1,0,9,,,,,,,,,,,,,,,,15,,58,64
1019,note_on,,59,0,7,,,,,,,,,,,,,,,,10,,67,0
1020,note_on,,1,0,7,,,,,,,,,,,,,,,,10,,65,72
1079,note_on,,119,0,9,,,,,,,,,,,,,,,,15,,74,0
1079,note_on,,0,0,9,,,,,,,,,,,,,,,,15,,58,0
1079,note_on,,59,0,7,,,,,,,,,,,,,,,,10,,65,0
1079,note_on,,0,0,9,,,,,,,,,,,,,,,,15,,67,0
1079,note_on,,119,0,8,,,,,,,,,,,,,,,,13,,58,0
1079,note_on,,0,0,9,,,,,,,,,,,,,,,,15,,62,0
1079,note_on,,119,0,5,,,,,,,,,,,,,,,,2,,58,0
1080,note_on,,1,0,9,,,,,,,,,,,,,,,,15,,60,64
1080,note_on,,0,0,9,,,,,,,,,,,,,,,,15,,64,64
1080,note_on,,0,0,9,,,,,,,,,,,,,,,,15,,72,64
1080,note_on,,1,0,8,,,,,,,,,,,,,,,,13,,60,72
1080,note_on,,1,0,7,,,,,,,,,,,,,,,,10,,64,72
1080,note_on,,0,0,9,,,,,,,,,,,,,,,,15,,67,64
1080,note_on,,1,0,5,,,,,,,,,,,,,,,,2,,60,72
1139,note_on,,59,0,7,,,,,,,,,,,,,,,,10,,64,0
1140,note_on,,1,0,7,,,,,,,,,,,,,,,,10,,70,72
1199,note_on,,59,0,7,,,,,,,,,,,,,,,,10,,70,0
1199,note_on,,119,0,9,,,,,,,,,,,,,,,,15,,60,0
1199,note_on,,0,0,9,,,,,,,,,,,,,,,,15,,67,0
1199,note_on,,0,0,9,,,,,,,,,,,,,,,,15,,64,0
1199,note_on,,119,0,8,,,,,,,,,,,,,,,,13,,60,0
1199,note_on,,119,0,5,,,,,,,,,,,,,,,,2,,60,0
1200,note_on,,1,0,7,,,,,,,,,,,,,,,,10,,69,72
1200,note_on,,1,0,8,,,,,,,,,,,,,,,,13,,53,72
1200,note_on,,1,0,9,,,,,,,,,,,,,,,,15,,53,64
1200,note_on,,0,0,9,,,,,,,,,,,,,,,,15,,65,64
1200,note_on,,0,0,9,,,,,,,,,,,,,,,,15,,60,64
1200,note_on,,0,0,9,,,,,,,,,,,,,,,,15,,69,64
1200,note_on,,1,0,5,,,,,,,,,,,,,,,,2,,53,72
1259,note_on,,59,0,7,,,,,,,,,,,,,,,,10,,69,0
1260,note_on,,1,0,7,,,,,,,,,,,,,,,,10,,79,72
1319,note_on,,59,0,7,,,,,,,,,,,,,,,,10,,79,0
1320,note_on,,1,0,7,,,,,,,,,,,,,,,,10,,77,72
1379,note_on,,179,0,9,,,,,,,,,,,,,,,,15,,53,0
1379,note_on,,179,0,8,,,,,,,,,,,,,,,,13,,53,0
1379,note_on,,179,0,5,,,,,,,,,,,,,,,,2,,53,0
1379,note_on,,0,0,9,,,,,,,,,,,,,,,,15,,69,0
1380,note_on,,1,0,8,,,,,,,,,,,,,,,,13,,52,72
1380,note_on,,1,0,9,,,,,,,,,,,,,,,,15,,52,64
1380,note_on,,0,0,9,,,,,,,,,,,,,,,,15,,67,64
1380,note_on,,1,0,5,,,,,,,,,,,,,,,,2,,52,72
1439,note_on,,0,0,9,,,,,,,,,,,,,,,,15,,65,0
1439,note_on,,0,0,9,,,,,,,,,,,,,,,,15,,60,0
1439,note_on,,0,0,9,,,,,,,,,,,,,,,,15,,52,0
1439,note_on,,0,0,9,,,,,,,,,,,,,,,,15,,67,0
1439,note_on,,59,0,8,,,,,,,,,,,,,,,,13,,52,0
1439,note_on,,59,0,9,,,,,,,,,,,,,,,,15,,72,0
1439,note_on,,59,0,5,,,,,,,,,,,,,,,,2,,52,0
1440,note_on,,1,0,5,,,,,,,,,,,,,,,,2,,50,72
1440,note_on,,1,0,9,,,,,,,,,,,,,,,,15,,50,64
1440,note_on,,0,0,9,,,,,,,,,,,,,,,,15,,65,64
1440,note_on,,0,0,9,,,,,,,,,,,,,,,,15,,69,64
1440,note_on,,0,0,9,,,,,,,,,,,,,,,,15,,74,64
1440,note_on,,1,0,8,,,,,,,,,,,,,,,,13,,50,72
1499,note_on,,179,0,7,,,,,,,,,,,,,,,,10,,77,0
1500,note_on,,1,0,7,,,,,,,,,,,,,,,,10,,86,72
1559,note_on,,0,0,9,,,,,,,,,,,,,,,,15,,69,0
1559,note_on,,0,0,9,,,,,,,,,,,,,,,,15,,65,0
1559,note_on,,59,0,7,,,,,,,,,,,,,,,,10,,86,0
1559,note_on,,119,0,5,,,,,,,,,,,,,,,,2,,50,0
1559,note_on,,119,0,8,,,,,,,,,,,,,,,,13,,50,0
1559,note_on,,119,0,9,,,,,,,,,,,,,,,,15,,50,0
1559,note_on,,0,0,9,,,,,,,,,,,,,,,,15,,74,0
1560,note_on,,0,0,9,,,,,,,,,,,,,,,,15,,64,64
1560,note_on,,1,0,9,,,,,,,,,,,,,,,,15,,57,64
1560,note_on,,1,0,5,,,,,,,,,,,,,,,,2,,57,72
1560,note_on,,0,0,9,,,,,,,,,,,,,,,,15,,73,64
1560,note_on,,0,0,9,,,,,,,,,,,,,,,,15,,69,64
1560,note_on,,0,0,9,,,,,,,,,,,,,,,,15,,76,64
1560,note_on,,1,0,7,,,,,,,,,,,,,,,,10,,85,72
1560,note_on,,1,0,8,,,,,,,,,,,,,,,,13,,57,72
1619,note_on,,59,0,7,,,,,,,,,,,,,,,,10,,85,0
1620,note_on,,1,0,7,,,,,,,,,,,,,,,,10,,81,72
1649,note_on,,29,0,7,,,,,,,,,,,,,,,,10,,81,0
1650,note_on,,1,0,7,,,,,,,,,,,,,,,,10,,82,72
1679,note_on,,119,0,9,,,,,,,,,,,,,,,,15,,57,0
1679,note_on,,0,0,9,,,,,,,,,,,,,,,,15,,69,0
1679,note_on,,0,0,9,,,,,,,,,,,,,,,,15,,64,0
1679,note_on,,119,0,5,,,,,,,,,,,,,,,,2,,57,0
1679,note_on,,0,0,9,,,,,,,,,,,,,,,,15,,73,0
1679,note_on,,0,0,9,,,,,,,,,,,,,,,,15,,76,0
1679,note_on,,29,0,7,,,,,,,,,,,,,,,,10,,82,0
1679,note_on,,119,0,8,,,,,,,,,,,,,,,,13,,57,0
1680,note_on,,1,0,7,,,,,,,,,,,,,,,,10,,84,72
1739,note_on,,59,0,7,,,,,,,,,,,,,,,,10,,84,0
1740,note_on,,1,0,7,,,,,,,,,,,,,,,,10,,76,72
1799,note_on,,59,0,7,,,,,,,,,,,,,,,,10,,76,0
1800,note_on,,1,0,7,,,,,,,,,,,,,,,,10,,78,72
1800,note_on,,0,0,9,,,,,,,,,,,,,,,,15,,74,64
1800,note_on,,121,0,9,,,,,,,,,,,,,,,,15,,62,64
1800,note_on,,121,0,8,,,,,,,,,,,,,,,,13,,62,72
1800,note_on,,0,0,9,,,,,,,,,,,,,,,,15,,69,64
1800,note_on,,0,0,9,,,,,,,,,,,,,,,,15,,72,64
1800,note_on,,121,0,5,,,,,,,,,,,,,,,,2,,62,72
1800,note_on,,0,0,9,,,,,,,,,,,,,,,,15,,66,64
1859,note_on,,59,0,7,,,,,,,,,,,,,,,,10,,78,0
1860,note_on,,1,0,7,,,,,,,,,,,,,,,,10,,84,72
1919,note_on,,119,0,8,,,,,,,,,,,,,,,,13,,62,0
1919,note_on,,119,0,9,,,,,,,,,,,,,,,,15,,62,0
1919,note_on,,0,0,9,,,,,,,,,,,,,,,,15,,74,0
1919,note_on,,0,0,9,,,,,,,,,,,,,,,,15,,72,0
1919,note_on,,0,0,9,,,,,,,,,,,,,,,,15,,66,0
1919,note_on,,119,0,5,,,,,,,,,,,,,,,,2,,62,0
1919,note_on,,0,0,9,,,,,,,,,,,,,,,,15,,69,0
1919,note_on,,59,0,7,,,,,,,,,,,,,,,,10,,84,0
1920,note_on,,0,0,9,,,,,,,,,,,,,,,,15,,71,64
1920,note_on,,0,0,9,,,,,,,,,,,,,,,,15,,62,64
1920,note_on,,0,0,9,,,,,,,,,,,,,,,,15,,74,64
1920,note_on,,1,0,8,,,,,,,,,,,,,,,,13,,55,72
1920,note_on,,1,0,9,,,,,,,,,,,,,,,,15,,55,64
1920,note_on,,1,0,5,,,,,,,,,,,,,,,,2,,55,72
1920,note_on,,1,0,7,,,,,,,,,,,,,,,,10,,83,72
1920,note_on,,0,0,9,,,,,,,,,,,,,,,,15,,67,64
1979,note_on,,59,0,7,,,,,,,,,,,,,,,,10,,83,0
1980,note_on,,1,0,7,,,,,,,,,,,,,,,,10,,79,72
2009,note_on,,29,0,7,,,,,,,,,,,,,,,,10,,79,0
2010,note_on,,1,0,7,,,,,,,,,,,,,,,,10,,81,72
2039,note_on,,29,0,7,,,,,,,,,,,,,,,,10,,81,0
2039,note_on,,119,0,8,,,,,,,,,,,,,,,,13,,55,0
2039,note_on,,0,0,9,,,,,,,,,,,,,,,,15,,62,0
2039,note_on,,0,0,9,,,,,,,,,,,,,,,,15,,67,0
2039,note_on,,0,0,9,,,,,,,,,,,,,,,,15,,71,0
2039,note_on,,0,0,9,,,,,,,,,,,,,,,,15,,74,0
2039,note_on,,119,0,9,,,,,,,,,,,,,,,,15,,55,0
2039,note_on,,119,0,5,,,,,,,,,,,,,,,,2,,55,0
2040,note_on,,1,0,7,,,,,,,,,,,,,,,,10,,82,72
2099,note_on,,59,0,7,,,,,,,,,,,,,,,,10,,82,0
2100,note_on,,1,0,7,,,,,,,,,,,,,,,,10,,74,72
2159,note_on,,59,0,7,,,,,,,,,,,,,,,,10,,74,0
2160,note_on,,0,0,9,,,,,,,,,,,,,,,,15,,64,64
2160,note_on,,0,0,9,,,,,,,,,,,,,,,,15,,67,64
2160,note_on,,0,0,9,,,,,,,,,,,,,,,,15,,72,64
2160,note_on,,0,0,9,,,,,,,,,,,,,,,,15,,70,64
2160,note_on,,1,0,7,,,,,,,,,,,,,,,,10,,76,72
2160,note_on,,121,0,8,,,,,,,,,,,,,,,,13,,60,72
2160,note_on,,121,0,9,,,,,,,,,,,,,,,,15,,60,64
2160,note_on,,121,0,5,,,,,,,,,,,,,,,,2,,60,72
2219,note_on,,59,0,7,,,,,,,,,,,,,,,,10,,76,0
2220,note_on,,1,0,7,,,,,,,,,,,,,,,,10,,82,72
2279,note_on,,119,0,5,,,,,,,,,,,,,,,,2,,60,0
2279,note_on,,119,0,8,,,,,,,,,,,,,,,,13,,60,0
2279,note_on,,119,0,9,,,,,,,,,,,,,,,,15,,60,0
2279,note_on,,0,0,9,,,,,,,,,,,,,,,,15,,72,0
2279,note_on,,0,0,9,,,,,,,,,,,,,,,,15,,70,0
2279,note_on,,0,0,9,,,,,,,,,,,,,,,,15,,67,0
2279,note_on,,0,0,9,,,,,,,,,,,,,,,,15,,64,0
2279,note_on,,59,0,7,,,,,,,,,,,,,,,,10,,82,0
2280,note_on,,1,0,7,,,,,,,,,,,,,,,,10,,81,72
2280,note_on,,1,0,8,,,,,,,,,,,,,,,,13,,53,72
2280,note_on,,1,0,9,,,,,,,,,,,,,,,,15,,53,64
2280,note_on,,0,0,9,,,,,,,,,,,,,,,,15,,72,64
2280,note_on,,0,0,9,,,,,,,,,,,,,,,,15,,69,64
2280,note_on,,0,0,9,,,,,,,,,,,,,,,,15,,65,64
2280,note_on,,0,0,9,,,,,,,,,,,,,,,,15,,60,64
2280,note_on,,1,0,5,,,,,,,,,,,,,,,,2,,53,72
2339,note_on,,59,0,7,,,,,,,,,,,,,,,,10,,81,0
2340,note_on,,1,0,7,,,,,,,,,,,,,,,,10,,82,72
2369,note_on,,29,0,7,,,,,,,,,,,,,,,,10,,82,0
2370,note_on,,1,0,7,,,,,,,,,,,,,,,,10,,81,72
2399,note_on,,119,0,8,,,,,,,,,,,,,,,,13,,53,0
2399,note_on,,29,0,7,,,,,,,,,,,,,,,,10,,81,0
2399,note_on,,119,0,5,,,,,,,,,,,,,,,,2,,53,0
2399,note_on,,0,0,9,,,,,,,,,,,,,,,,15,,60,0
2399,note_on,,0,0,9,,,,,,,,,,,,,,,,15,,65,0
2399,note_on,,0,0,9,,,,,,,,,,,,,,,,15,,69,0
2399,note_on,,119,0,9,,,,,,,,,,,,,,,,15,,53,0
2399,note_on,,0,0,9,,,,,,,,,,,,,,,,15,,72,0
2400,note_on,,0,0,9,,,,,,,,,,,,,,,,15,,67,64
2400,note_on,,1,0,5,,,,,,,,,,,,,,,,2,,58,72
2400,note_on,,1,0,7,,,,,,,,,,,,,,,,10,,79,72
2400,note_on,,1,0,8,,,,,,,,,,,,,,,,13,,58,72
2400,note_on,,1,0,9,,,,,,,,,,,,,,,,15,,58,64
2400,note_on,,0,0,9,,,,,,,,,,,,,,,,15,,62,64
2429,note_on,,29,0,7,,,,,,,,,,,,,,,,10,,79,0
2430,note_on,,1,0,7,,,,,,,,,,,,,,,,10,,77,72
2459,note_on,,29,0,7,,,,,,,,,,,,,,,,10,,77,0
2460,note_on,,1,0,7,,,,,,,,,,,,,,,,10,,76,72
2489,note_on,,29,0,7,,,,,,,,,,,,,,,,10,,76,0
2490,note_on,,1,0,7,,,,,,,,,,,,,,,,10,,74,72
2519,note_on,,119,0,8,,,,,,,,,,,,,,,,13,,58,0
2519,note_on,,0,0,9,,,,,,,,,,,,,,,,15,,62,0
2519,note_on,,0,0,9,,,,,,,,,,,,,,,,15,,67,0
2519,note_on,,119,0,9,,,,,,,,,,,,,,,,15,,58,0
2519,note_on,,119,0,5,,,,,,,,,,,,,,,,2,,58,0
2519,note_on,,29,0,7,,,,,,,,,,,,,,,,10,,74,0
2520,note_on,,1,0,8,,,,,,,,,,,,,,,,13,,55,72
2520,note_on,,1,0,7,,,,,,,,,,,,,,,,10,,76,72
2520,note_on,,1,0,9,,,,,,,,,,,,,,,,15,,55,64
2520,note_on,,0,0,9,,,,,,,,,,,,,,,,15,,70,64
2520,note_on,,0,0,9,,,,,,,,,,,,,,,,15,,67,64
2520,note_on,,0,0,9,,,,,,,,,,,,,,,,15,,62,64
2520,note_on,,1,0,5,,,,,,,,,,,,,,,,2,,55,72
2549,note_on,,29,0,7,,,,,,,,,,,,,,,,10,,76,0
2550,note_on,,1,0,7,,,,,,,,,,,,,,,,10,,74,72
2579,note_on,,29,0,7,,,,,,,,,,,,,,,,10,,74,0
2580,note_on,,1,0,7,,,,,,,,,,,,,,,,10,,73,72
2609,note_on,,29,0,7,,,,,,,,,,,,,,,,10,,73,0
2610,note_on,,1,0,7,,,,,,,,,,,,,,,,10,,71,72
2639,note_on,,0,0,9,,,,,,,,,,,,,,,,15,,70,0
2639,note_on,,0,0,9,,,,,,,,,,,,,,,,15,,67,0
2639,note_on,,0,0,9,,,,,,,,,,,,,,,,15,,62,0
2639,note_on,,119,0,8,,,,,,,,,,,,,,,,13,,55,0
2639,note_on,,119,0,5,,,,,,,,,,,,,,,,2,,55,0
2639,note_on,,119,0,9,,,,,,,,,,,,,,,,15,,55,0
2639,note_on,,29,0,7,,,,,,,,,,,,,,,,10,,71,0
2640,note_on,,0,0,9,,,,,,,,,,,,,,,,15,,61,64
2640,note_on,,1,0,9,,,,,,,,,,,,,,,,15,,57,64
2640,note_on,,0,0,9,,,,,,,,,,,,,,,,15,,64,64
2640,note_on,,1,0,7,,,,,,,,,,,,,,,,10,,69,72
2640,note_on,,1,0,5,,,,,,,,,,,,,,,,2,,57,72
2640,note_on,,1,0,8,,,,,,,,,,,,,,,,13,,57,72
2699,note_on,,59,0,7,,,,,,,,,,,,,,,,10,,69,0
2700,note_on,,1,0,7,,,,,,,,,,,,,,,,10,,70,72
2729,note_on,,29,0,7,,,,,,,,,,,,,,,,10,,70,0
2730,note_on,,1,0,7,,,,,,,,,,,,,,,,10,,69,72
2759,note_on,,119,0,8,,,,,,,,,,,,,,,,13,,57,0
2759,note_on,,29,0,7,,,,,,,,,,,,,,,,10,,69,0
2759,note_on,,119,0,5,,,,,,,,,,,,,,,,2,,57,0
2759,note_on,,0,0,9,,,,,,,,,,,,,,,,15,,64,0
2759,note_on,,0,0,9,,,,,,,,,,,,,,,,15,,61,0
2759,note_on,,119,0,9,,,,,,,,,,,,,,,,15,,57,0
2760,note_on,,1,0,5,,,,,,,,,,,,,,,,2,,52,72
2760,note_on,,1,0,9,,,,,,,,,,,,,,,,15,,52,64
2760,note_on,,0,0,9,,,,,,,,,,,,,,,,15,,55,64
2760,note_on,,0,0,9,,,,,,,,,,,,,,,,15,,67,64
2760,note_on,,0,0,9,,,,,,,,,,,,,,,,15,,61,64
2760,note_on,,1,0,8,,,,,,,,,,,,,,,,13,,52,72
2760,note_on,,1,0,7,,,,,,,,,,,,,,,,10,,67,72
2789,note_on,,29,0,7,,,,,,,,,,,,,,,,10,,67,0
2790,note_on,,1,0,7,,,,,,,,,,,,,,,,10,,65,72
2819,note_on,,29,0,7,,,,,,,,,,,,,,,,10,,65,0
2820,note_on,,1,0,7,,,,,,,,,,,,,,,,10,,64,72
2849,note_on,,29,0,7,,,,,,,,,,,,,,,,10,,64,0
2850,note_on,,1,0,7,,,,,,,,,,,,,,,,10,,62,72
2879,note_on,,119,0,9,,,,,,,,,,,,,,,,15,,52,0
2879,note_on,,0,0,9,,,,,,,,,,,,,,,,15,,55,0
2879,note_on,,0,0,9,,,,,,,,,,,,,,,,15,,61,0
2879,note_on,,119,0,5,,,,,,,,,,,,,,,,2,,52,0
2879,note_on,,119,0,8,,,,,,,,,,,,,,,,13,,52,0
2879,note_on,,29,0,7,,,,,,,,,,,,,,,,10,,62,0
2879,note_on,,0,0,9,,,,,,,,,,,,,,,,15,,67,0
2880,note_on,,0,0,9,,,,,,,,,,,,,,,,15,,73,64
2880,note_on,,1,0,9,,,,,,,,,,,,,,,,15,,55,64
2880,note_on,,1,0,8,,,,,,,,,,,,,,,,13,,55,72
2880,note_on,,0,0,9,,,,,,,,,,,,,,,,15,,64,64
2880,note_on,,1,0,5,,,,,,,,,,,,,,,,2,,55,72
2880,note_on,,1,0,7,,,,,,,,,,,,,,,,10,,64,72
2909,note_on,,29,0,7,,,,,,,,,,,,,,,,10,,64,0
2910,note_on,,1,0,7,,,,,,,,,,,,,,,,10,,62,72
2939,note_on,,29,0,7,,,,,,,,,,,,,,,,10,,62,0
2940,note_on,,1,0,7,,,,,,,,,,,,,,,,10,,61,72
2969,note_on,,29,0,7,,,,,,,,,,,,,,,,10,,61,0
2970,note_on,,1,0,7,,,,,,,,,,,,,,,,10,,59,72
2999,note_on,,119,0,5,,,,,,,,,,,,,,,,2,,55,0
2999,note_on,,0,0,9,,,,,,,,,,,,,,,,15,,64,0
2999,note_on,,0,0,9,,,,,,,,,,,,,,,,15,,73,0
2999,note_on,,119,0,8,,,,,,,,,,,,,,,,13,,55,0
2999,note_on,,119,0,9,,,,,,,,,,,,,,,,15,,55,0
2999,note_on,,29,0,7,,,,,,,,,,,,,,,,10,,59,0
3000,note_on,,0,0,9,,,,,,,,,,,,,,,,15,,64,64
3000,note_on,,0,0,9,,,,,,,,,,,,,,,,15,,76,64
3000,note_on,,1,0,9,,,,,,,,,,,,,,,,15,,49,64
3000,note_on,,1,0,7,,,,,,,,,,,,,,,,10,,57,72
3000,note_on,,1,0,5,,,,,,,,,,,,,,,,2,,49,72
3000,note_on,,0,0,9,,,,,,,,,,,,,,,,15,,69,64
3000,note_on,,1,0,8,,,,,,,,,,,,,,,,13,,49,72
3179,note_on,,179,0,9,,,,,,,,,,,,,,,,15,,49,0
3179,note_on,,179,0,7,,,,,,,,,,,,,,,,10,,57,0
3179,note_on,,179,0,8,,,,,,,,,,,,,,,,13,,49,0
3179,note_on,,0,0,9,,,,,,,,,,,,,,,,15,,64,0
3179,note_on,,0,0,9,,,,,,,,,,,,,,,,15,,69,0
3179,note_on,,179,0,5,,,,,,,,,,,,,,,,2,,49,0
3179,note_on,,0,0,9,,,,,,,,,,,,,,,,15,,76,0
3210,note_on,,0,0,9,,,,,,,,,,,,,,,,15,,64,64
3210,note_on,,0,0,9,,,,,,,,,,,,,,,,15,,69,64
3210,note_on,,0,0,9,,,,,,,,,,,,,,,,15,,73,64
3210,note_on,,31,0,9,,,,,,,,,,,,,,,,15,,45,64
3210,note_on,,31,0,8,,,,,,,,,,,,,,,,13,,45,72
3210,note_on,,31,0,5,,,,,,,,,,,,,,,,2,,45,72
3210,note_on,,31,0,7,,,,,,,,,,,,,,,,10,,79,72
3239,note_on,,29,0,9,,,,,,,,,,,,,,,,15,,45,0
3239,note_on,,0,0,9,,,,,,,,,,,,,,,,15,,64,0
3239,note_on,,29,0,5,,,,,,,,,,,,,,,,2,,45,0
3239,note_on,,0,0,9,,,,,,,,,,,,,,,,15,,73,0
3239,note_on,,29,0,8,,,,,,,,,,,,,,,,13,,45,0
3239,note_on,,0,0,9,,,,,,,,,,,,,,,,15,,69,0
3239,note_on,,29,0,7,,,,,,,,,,,,,,,,10,,79,0
3240,note_on,,0,0,9,,,,,,,,,,,,,,,,15,,65,64
3240,note_on,,0,0,9,,,,,,,,,,,,,,,,15,,74,64
3240,note_on,,1,0,9,,,,,,,,,,,,,,,,15,,50,64
3240,note_on,,1,0,7,,,,,,,,,,,,,,,,10,,77,72
3240,note_on,,1,0,8,,,,,,,,,,,,,,,,13,,50,72
3240,note_on,,0,0,9,,,,,,,,,,,,,,,,15,,69,64
3240,note_on,,1,0,5,,,,,,,,,,,,,,,,2,,50,72
3299,note_on,,59,0,7,,,,,,,,,,,,,,,,10,,77,0
3300,note_on,,1,0,7,,,,,,,,,,,,,,,,10,,76,72
3359,note_on,,0,0,9,,,,,,,,,,,,,,,,15,,65,0
3359,note_on,,0,0,9,,,,,,,,,,,,,,,,15,,69,0
3359,note_on,,0,0,9,,,,,,,,,,,,,,,,15,,74,0
3359,note_on,,119,0,9,,,,,,,,,,,,,,,,15,,50,0
3359,note_on,,59,0,7,,,,,,,,,,,,,,,,10,,76,0
3359,note_on,,119,0,5,,,,,,,,,,,,,,,,2,,50,0
3359,note_on,,119,0,8,,,,,,,,,,,,,,,,13,,50,0
3360,note_on,,1,0,7,,,,,,,,,,,,,,,,10,,77,72
3360,note_on,,0,0,9,,,,,,,,,,,,,,,,15,,62,64
3360,note_on,,1,0,9,,,,,,,,,,,,,,,,15,,55,64
3360,note_on,,0,0,9,,,,,,,,,,,,,,,,15,,70,64
3360,note_on,,1,0,8,,,,,,,,,,,,,,,,13,,55,72
3360,note_on,,1,0,5,,,,,,,,,,,,,,,,2,,55,72
3360,note_on,,0,0,9,,,,,,,,,,,,,,,,15,,67,64
3389,note_on,,29,0,7,,,,,,,,,,,,,,,,10,,77,0
3390,note_on,,1,0,7,,,,,,,,,,,,,,,,10,,76,72
3419,note_on,,29,0,7,,,,,,,,,,,,,,,,10,,76,0
3420,note_on,,1,0,7,,,,,,,,,,,,,,,,10,,74,72
3479,note_on,,119,0,9,,,,,,,,,,,,,,,,15,,55,0
3479,note_on,,0,0,9,,,,,,,,,,,,,,,,15,,70,0
3479,note_on,,0,0,9,,,,,,,,,,,,,,,,15,,67,0
3479,note_on,,0,0,9,,,,,,,,,,,,,,,,15,,62,0
3479,note_on,,59,0,7,,,,,,,,,,,,,,,,10,,74,0
3479,note_on,,119,0,8,,,,,,,,,,,,,,,,13,,55,0
3479,note_on,,119,0,5,,,,,,,,,,,,,,,,2,,55,0
3480,note_on,,0,0,9,,,,,,,,,,,,,,,,15,,61,64
3480,note_on,,1,0,7,,,,,,,,,,,,,,,,10,,73,72
3480,note_on,,1,0,8,,,,,,,,,,,,,,,,13,,57,72
3480,note_on,,1,0,5,,,,,,,,,,,,,,,,2,,57,72
3480,note_on,,0,0,9,,,,,,,,,,,,,,,,15,,64,64
3480,note_on,,0,0,9,,,,,,,,,,,,,,,,15,,69,64
3480,note_on,,1,0,9,,,,,,,,,,,,,,,,15,,57,64
3494,note_on,,14,0,7,,,,,,,,,,,,,,,,10,,73,0
3495,note_on,,1,0,7,,,,,,,,,,,,,,,,10,,74,72
3509,note_on,,14,0,7,,,,,,,,,,,,,,,,10,,74,0
3510,note_on,,1,0,7,,,,,,,,,,,,,,,,10,,73,72
3524,note_on,,14,0,7,,,,,,,,,,,,,,,,10,,73,0
3525,note_on,,1,0,7,,,,,,,,,,,,,,,,10,,74,72
3539,note_on,,14,0,7,,,,,,,,,,,,,,,,10,,74,0
3540,note_on,,1,0,7,,,,,,,,,,,,,,,,10,,73,72
3554,note_on,,14,0,7,,,,,,,,,,,,,,,,10,,73,0
3555,note_on,,1,0,7,,,,,,,,,,,,,,,,10,,74,72
3569,note_on,,14,0,7,,,,,,,,,,,,,,,,10,,74,0
3570,note_on,,1,0,7,,,,,,,,,,,,,,,,10,,73,72
3584,note_on,,14,0,7,,,,,,,,,,,,,,,,10,,73,0
3585,note_on,,1,0,7,,,,,,,,,,,,,,,,10,,74,72
3599,note_on,,0,0,9,,,,,,,,,,,,,,,,15,,64,0
3599,note_on,,119,0,8,,,,,,,,,,,,,,,,13,,57,0
3599,note_on,,14,0,7,,,,,,,,,,,,,,,,10,,74,0
3599,note_on,,119,0,5,,,,,,,,,,,,,,,,2,,57,0
3599,note_on,,119,0,9,,,,,,,,,,,,,,,,15,,69,0
3600,note_on,,1,0,9,,,,,,,,,,,,,,,,15,,45,64
3600,note_on,,0,0,9,,,,,,,,,,,,,,,,15,,67,64
3600,note_on,,1,0,8,,,,,,,,,,,,,,,,13,,45,72
3600,note_on,,1,0,7,,,,,,,,,,,,,,,,10,,73,72
3600,note_on,,0,0,9,,,,,,,,,,,,,,,,15,,64,64
3600,note_on,,1,0,5,,,,,,,,,,,,,,,,2,,45,72
3614,note_on,,14,0,7,,,,,,,,,,,,,,,,10,,73,0
3615,note_on,,1,0,7,,,,,,,,,,,,,,,,10,,74,72
3629,note_on,,14,0,7,,,,,,,,,,,,,,,,10,,74,0
3630,note_on,,1,0,7,,,,,,,,,,,,,,,,10,,70,72
3644,note_on,,14,0,7,,,,,,,,,,,,,,,,10,,70,0
3645,note_on,,1,0,7,,,,,,,,,,,,,,,,10,,73,72
3659,note_on,,14,0,7,,,,,,,,,,,,,,,,10,,73,0
3660,note_on,,1,0,7,,,,,,,,,,,,,,,,10,,74,72
3719,note_on,,0,0,9,,,,,,,,,,,,,,,,15,,64,0
3719,note_on,,0,0,9,,,,,,,,,,,,,,,,15,,45,0
3719,note_on,,119,0,9,,,,,,,,,,,,,,,,15,,57,0
3719,note_on,,119,0,5,,,,,,,,,,,,,,,,2,,45,0
3719,note_on,,119,0,8,,,,,,,,,,,,,,,,13,,45,0
3719,note_on,,59,0,7,,,,,,,,,,,,,,,,10,,74,0
3719,note_on,,0,0,9,,,,,,,,,,,,,,,,15,,67,0
3719,note_on,,0,0,9,,,,,,,,,,,,,,,,15,,61,0
3720,note_on,,1,0,5,,,,,,,,,,,,,,,,2,,50,72
3720,note_on,,0,0,9,,,,,,,,,,,,,,,,15,,65,48
3720,note_on,,0,0,9,,,,,,,,,,,,,,,,15,,57,48
3720,note_on,,1,0,7,,,,,,,,,,,,,,,,10,,74,72
3720,note_on,,1,0,8,,,,,,,,,,,,,,,,13,,50,72
3720,note_on,,1,0,9,,,,,,,,,,,,,,,,15,,50,48
3720,note_on,,0,0,9,,,,,,,,,,,,,,,,15,,69,48
3839,note_on,,119,0,7,,,,,,,,,,,,,,,,10,,74,0
3839,note_on,,119,0,5,,,,,,,,,,,,,,,,2,,50,0
3839,note_on,,119,0,8,,,,,,,,,,,,,,,,13,,50,0
3839,note_on,,0,0,9,,,,,,,,,,,,,,,,15,,57,0
3839,note_on,,0,0,9,,,,,,,,,,,,,,,,15,,65,0
3839,note_on,,119,0,9,,,,,,,,,,,,,,,,15,,50,0
3839,note_on,,0,0,9,,,,,,,,,,,,,,,,15,,69,0
3840,note_on,,3840,0,6,,,,,,,,,,,,,,,,6,,69,64
4079,note_on,,239,0,6,,,,,,,,,,,,,,,,6,,69,0
4080,note_on,,1,0,6,,,,,,,,,,,,,,,,6,,62,64
4259,note_on,,179,0,6,,,,,,,,,,,,,,,,6,,62,0
4260,note_on,,1,0,6,,,,,,,,,,,,,,,,6,,64,64
4319,note_on,,59,0,6,,,,,,,,,,,,,,,,6,,64,0
4320,note_on,,481,0,8,,,,,,,,,,,,,,,,13,,50,72
4320,note_on,,481,0,9,,,,,,,,,,,,,,,,15,,50,48
4320,note_on,,0,0,9,,,,,,,,,,,,,,,,15,,65,48
4320,note_on,,0,0,9,,,,,,,,,,,,,,,,15,,62,48
4320,note_on,,0,0,9,,,,,,,,,,,,,,,,15,,57,48
4320,note_on,,1,0,6,,,,,,,,,,,,,,,,6,,65,64
4379,note_on,,59,0,6,,,,,,,,,,,,,,,,6,,65,0
4380,note_on,,1,0,6,,,,,,,,,,,,,,,,6,,67,64
4439,note_on,,59,0,6,,,,,,,,,,,,,,,,6,,67,0
4439,note_on,,119,0,8,,,,,,,,,,,,,,,,13,,50,0
4439,note_on,,119,0,9,,,,,,,,,,,,,,,,15,,50,0
4439,note_on,,0,0,9,,,,,,,,,,,,,,,,15,,65,0
4439,note_on,,0,0,9,,,,,,,,,,,,,,,,15,,62,0
4439,note_on,,0,0,9,,,,,,,,,,,,,,,,15,,57,0
4440,note_on,,1,0,8,,,,,,,,,,,,,,,,13,,48,72
4440,note_on,,1,0,9,,,,,,,,,,,,,,,,15,,48,48
4440,note_on,,0,0,9,,,,,,,,,,,,,,,,15,,64,48
4440,note_on,,0,0,9,,,,,,,,,,,,,,,,15,,57,48
4440,note_on,,1,0,6,,,,,,,,,,,,,,,,6,,69,64
4559,note_on,,0,0,9,,,,,,,,,,,,,,,,15,,64,0
4559,note_on,,0,0,9,,,,,,,,,,,,,,,,15,,57,0
4559,note_on,,119,0,9,,,,,,,,,,,,,,,,15,,48,0
4559,note_on,,119,0,8,,,,,,,,,,,,,,,,13,,48,0
4559,note_on,,119,0,6,,,,,,,,,,,,,,,,6,,69,0
4680,note_on,,121,0,6,,,,,,,,,,,,,,,,6,,69,64
4799,note_on,,119,0,6,,,,,,,,,,,,,,,,6,,69,0
4800,note_on,,0,0,9,,,,,,,,,,,,,,,,15,,62,48
4800,note_on,,1,0,6,,,,,,,,,,,,,,,,6,,70,64
4800,note_on,,241,0,8,,,,,,,,,,,,,,,,13,,46,72
4800,note_on,,0,0,9,,,,,,,,,,,,,,,,15,,67,48
4800,note_on,,241,0,9,,,,,,,,,,,,,,,,15,,46,48
4800,note_on,,0,0,9,,,,,,,,,,,,,,,,15,,55,48
4859,note_on,,59,0,6,,,,,,,,,,,,,,,,6,,70,0
4860,note_on,,1,0,6,,,,,,,,,,,,,,,,6,,69,64
4919,note_on,,119,0,9,,,,,,,,,,,,,,,,15,,46,0
4919,note_on,,59,0,6,,,,,,,,,,,,,,,,6,,69,0
4919,note_on,,0,0,9,,,,,,,,,,,,,,,,15,,62,0
4919,note_on,,0,0,9,,,,,,,,,,,,,,,,15,,55,0
4919,note_on,,0,0,9,,,,,,,,,,,,,,,,15,,67,0
4919,note_on,,119,0,8,,,,,,,,,,,,,,,,13,,46,0
4920,note_on,,1,0,6,,,,,,,,,,,,,,,,6,,67,64
5099,note_on,,179,0,6,,,,,,,,,,,,,,,,6,,67,0
5100,note_on,,1,0,6,,,,,,,,,,,,,,,,6,,74,64
5159,note_on,,59,0,6,,,,,,,,,,,,,,,,6,,74,0
5160,note_on,,241,0,9,,,,,,,,,,,,,,,,15,,45,48
5160,note_on,,241,0,8,,,,,,,,,,,,,,,,13,,45,72
5160,note_on,,0,0,9,,,,,,,,,,,,,,,,15,,52,48
5160,note_on,,1,0,6,,,,,,,,,,,,,,,,6,,73,64
5160,note_on,,0,0,9,,,,,,,,,,,,,,,,15,,61,48
5160,note_on,,0,0,9,,,,,,,,,,,,,,,,15,,69,48
5279,note_on,,119,0,9,,,,,,,,,,,,,,,,15,,45,0
5279,note_on,,0,0,9,,,,,,,,,,,,,,,,15,,52,0
5279,note_on,,119,0,8,,,,,,,,,,,,,,,,13,,45,0
5280,note_on,,1,0,9,,,,,,,,,,,,,,,,15,,57,48
5280,note_on,,1,0,8,,,,,,,,,,,,,,,,13,,57,72
5339,note_on,,59,0,9,,,,,,,,,,,,,,,,15,,69,0
5339,note_on,,0,0,9,,,,,,,,,,,,,,,,15,,61,0
5340,note_on,,1,0,9,,,,,,,,,,,,,,,,15,,64,48
5340,note_on,,0,0,9,,,,,,,,,,,,,,,,15,,61,48
5399,note_on,,119,0,8,,,,,,,,,,,,,,,,13,,57,0
5399,note_on,,239,0,6,,,,,,,,,,,,,,,,6,,73,0
5399,note_on,,59,0,9,,,,,,,,,,,,,,,,15,,57,0
5399,note_on,,0,0,9,,,,,,,,,,,,,,,,15,,64,0
5399,note_on,,0,0,9,,,,,,,,,,,,,,,,15,,61,0
5400,note_on,,1,0,9,,,,,,,,,,,,,,,,15,,55,48
5400,note_on,,1,0,8,,,,,,,,,,,,,,,,13,,55,48
5400,note_on,,0,0,9,,,,,,,,,,,,,,,,15,,65,48
5400,note_on,,0,0,9,,,,,,,,,,,,,,,,15,,62,48
5459,note_on,,0,0,9,,,,,,,,,,,,,,,,15,,65,0
5459,note_on,,59,0,9,,,,,,,,,,,,,,,,15,,62,0
5460,note_on,,0,0,9,,,,,,,,,,,,,,,,15,,67,48
5460,note_on,,1621,0,7,,,,,,,,,,,,,,,,10,,69,48
5460,note_on,,1,0,9,,,,,,,,,,,,,,,,15,,64,48
5519,note_on,,59,0,9,,,,,,,,,,,,,,,,15,,55,0
5519,note_on,,59,0,7,,,,,,,,,,,,,,,,10,,69,0
5519,note_on,,119,0,8,,,,,,,,,,,,,,,,13,,55,0
5519,note_on,,0,0,9,,,,,,,,,,,,,,,,15,,64,0
5519,note_on,,0,0,9,,,,,,,,,,,,,,,,15,,67,0
5520,note_on,,0,0,9,,,,,,,,,,,,,,,,15,,62,48
5520,note_on,,1,0,7,,,,,,,,,,,,,,,,10,,74,48
5520,note_on,,1,0,8,,,,,,,,,,,,,,,,13,,53,48
5520,note_on,,1,0,9,,,,,,,,,,,,,,,,15,,53,48
5520,note_on,,0,0,9,,,,,,,,,,,,,,,,15,,74,48
5520,note_on,,0,0,9,,,,,,,,,,,,,,,,15,,69,48
5639,note_on,,0,0,9,,,,,,,,,,,,,,,,15,,62,0
5639,note_on,,0,0,9,,,,,,,,,,,,,,,,15,,69,0
5639,note_on,,119,0,9,,,,,,,,,,,,,,,,15,,53,0
5639,note_on,,0,0,9,,,,,,,,,,,,,,,,15,,74,0
5639,note_on,,119,0,8,,,,,,,,,,,,,,,,13,,53,0
5640,note_on,,1,0,9,,,,,,,,,,,,,,,,15,,50,48
5640,note_on,,0,0,9,,,,,,,,,,,,,,,,15,,69,48
5640,note_on,,0,0,9,,,,,,,,,,,,,,,,15,,65,48
5640,note_on,,0,0,9,,,,,,,,,,,,,,,,15,,62,48
5640,note_on,,1,0,8,,,,,,,,,,,,,,,,13,,50,48
5699,note_on,,179,0,7,,,,,,,,,,,,,,,,10,,74,0
5700,note_on,,1,0,7,,,,,,,,,,,,,,,,10,,77,48
5759,note_on,,119,0,8,,,,,,,,,,,,,,,,13,,50,0
5759,note_on,,119,0,9,,,,,,,,,,,,,,,,15,,50,0
5759,note_on,,0,0,9,,,,,,,,,,,,,,,,15,,69,0
5759,note_on,,0,0,9,,,,,,,,,,,,,,,,15,,62,0
5759,note_on,,59,0,7,,,,,,,,,,,,,,,,10,,77,0
5759,note_on,,0,0,9,,,,,,,,,,,,,,,,15,,65,0
5760,note_on,,1,0,9,,,,,,,,,,,,,,,,15,,58,48
5760,note_on,,0,0,9,,,,,,,,,,,,,,,,15,,67,48
5760,note_on,,0,0,9,,,,,,,,,,,,,,,,15,,62,48
5760,note_on,,1,0,8,,,,,,,,,,,,,,,,13,,58,48
5760,note_on,,1,0,7,,,,,,,,,,,,,,,,10,,76,48
5819,note_on,,59,0,7,,,,,,,,,,,,,,,,10,,76,0
5820,note_on,,1,0,7,,,,,,,,,,,,,,,,10,,74,48
5879,note_on,,0,0,9,,,,,,,,,,,,,,,,15,,67,0
5879,note_on,,119,0,9,,,,,,,,,,,,,,,,15,,58,0
5879,note_on,,59,0,7,,,,,,,,,,,,,,,,10,,74,0
5879,note_on,,119,0,8,,,,,,,,,,,,,,,,13,,58,0
5879,note_on,,0,0,9,,,,,,,,,,,,,,,,15,,62,0
5880,note_on,,0,0,9,,,,,,,,,,,,,,,,15,,61,48
5880,note_on,,1,0,8,,,,,,,,,,,,,,,,13,,57,48
5880,note_on,,0,0,9,,,,,,,,,,,,,,,,15,,69,48
5880,note_on,,0,0,9,,,,,,,,,,,,,,,,15,,64,48
5880,note_on,,1,0,7,,,,,,,,,,,,,,,,10,,73,48
5880,note_on,,1,0,9,,,,,,,,,,,,,,,,15,,57,48
5939,note_on,,59,0,7,,,,,,,,,,,,,,,,10,,73,0
5940,note_on,,1,0,7,,,,,,,,,,,,,,,,10,,82,48
5999,note_on,,59,0,7,,,,,,,,,,,,,,,,10,,82,0
6000,note_on,,1,0,7,,,,,,,,,,,,,,,,10,,81,48
6059,note_on,,179,0,9,,,,,,,,,,,,,,,,15,,57,0
6059,note_on,,179,0,8,,,,,,,,,,,,,,,,13,,57,0
6060,note_on,,1,0,8,,,,,,,,,,,,,,,,13,,58,48
6060,note_on,,1,0,9,,,,,,,,,,,,,,,,15,,58,48
6119,note_on,,0,0,9,,,,,,,,,,,,,,,,15,,64,0
6119,note_on,,0,0,9,,,,,,,,,,,,,,,,15,,58,0
6119,note_on,,59,0,9,,,,,,,,,,,,,,,,15,,69,0
6119,note_on,,0,0,9,,,,,,,,,,,,,,,,15,,61,0
6119,note_on,,59,0,8,,,,,,,,,,,,,,,,13,,58,0
6120,note_on,,1,0,8,,,,,,,,,,,,,,,,13,,57,48
6120,note_on,,721,0,6,,,,,,,,,,,,,,,,6,,69,64
6120,note_on,,1,0,9,,,,,,,,,,,,,,,,15,,57,48
6179,note_on,,59,0,8,,,,,,,,,,,,,,,,13,,57,0
6179,note_on,,59,0,6,,,,,,,,,,,,,,,,6,,69,0
6179,note_on,,59,0,9,,,,,,,,,,,,,,,,15,,57,0
6180,note_on,,1,0,8,,,,,,,,,,,,,,,,13,,55,48
6180,note_on,,1,0,6,,,,,,,,,,,,,,,,6,,70,64
6180,note_on,,1,0,9,,,,,,,,,,,,,,,,15,,55,48
6239,note_on,,59,0,8,,,,,,,,,,,,,,,,13,,55,0
6239,note_on,,59,0,6,,,,,,,,,,,,,,,,6,,70,0
6239,note_on,,59,0,9,,,,,,,,,,,,,,,,15,,55,0
6240,note_on,,0,0,9,,,,,,,,,,,,,,,,15,,57,48
6240,note_on,,0,0,9,,,,,,,,,,,,,,,,15,,62,48
6240,note_on,,1,0,6,,,,,,,,,,,,,,,,6,,72,64
6240,note_on,,0,0,9,,,,,,,,,,,,,,,,15,,74,48
6240,note_on,,1,0,9,,,,,,,,,,,,,,,,15,,54,48
6240,note_on,,1,0,8,,,,,,,,,,,,,,,,13,,54,48
6240,note_on,,0,0,9,,,,,,,,,,,,,,,,15,,69,48
6299,note_on,,299,0,7,,,,,,,,,,,,,,,,10,,81,0
6299,note_on,,59,0,6,,,,,,,,,,,,,,,,6,,72,0
6300,note_on,,1,0,7,,,,,,,,,,,,,,,,10,,70,48
6300,note_on,,1,0,6,,,,,,,,,,,,,,,,6,,70,64
6359,note_on,,59,0,7,,,,,,,,,,,,,,,,10,,70,0
6359,note_on,,119,0,8,,,,,,,,,,,,,,,,13,,54,0
6359,note_on,,0,0,9,,,,,,,,,,,,,,,,15,,74,0
6359,note_on,,0,0,9,,,,,,,,,,,,,,,,15,,57,0
6359,note_on,,0,0,9,,,,,,,,,,,,,,,,15,,62,0
6359,note_on,,0,0,9,,,,,,,,,,,,,,,,15,,69,0
6359,note_on,,119,0,9,,,,,,,,,,,,,,,,15,,54,0
6359,note_on,,59,0,6,,,,,,,,,,,,,,,,6,,70,0
6360,note_on,,1,0,6,,,,,,,,,,,,,,,,6,,72,64
6360,note_on,,1,0,7,,,,,,,,,,,,,,,,10,,69,48
6419,note_on,,59,0,7,,,,,,,,,,,,,,,,10,,69,0
6420,note_on,,1,0,7,,,,,,,,,,,,,,,,10,,67,48
6479,note_on,,119,0,6,,,,,,,,,,,,,,,,6,,72,0
6479,note_on,,59,0,7,,,,,,,,,,,,,,,,10,,67,0
6480,note_on,,1,0,7,,,,,,,,,,,,,,,,10,,66,48
6480,note_on,,121,0,8,,,,,,,,,,,,,,,,13,,50,48
6480,note_on,,0,0,9,,,,,,,,,,,,,,,,15,,66,48
6480,note_on,,0,0,9,,,,,,,,,,,,,,,,15,,69,48
6480,note_on,,0,0,9,,,,,,,,,,,,,,,,15,,57,48
6480,note_on,,121,0,9,,,,,,,,,,,,,,,,15,,50,48
6480,note_on,,0,0,9,,,,,,,,,,,,,,,,15,,62,48
6480,note_on,,1,0,6,,,,,,,,,,,,,,,,6,,74,64
6539,note_on,,59,0,6,,,,,,,,,,,,,,,,6,,74,0
6539,note_on,,59,0,7,,,,,,,,,,,,,,,,10,,66,0
6540,note_on,,1,0,6,,,,,,,,,,,,,,,,6,,72,64
6540,note_on,,1,0,7,,,,,,,,,,,,,,,,10,,64,48
6599,note_on,,59,0,6,,,,,,,,,,,,,,,,6,,72,0
6599,note_on,,119,0,8,,,,,,,,,,,,,,,,13,,50,0
6599,note_on,,0,0,9,,,,,,,,,,,,,,,,15,,62,0
6599,note_on,,59,0,7,,,,,,,,,,,,,,,,10,,64,0
6599,note_on,,119,0,9,,,,,,,,,,,,,,,,15,,50,0
6599,note_on,,0,0,9,,,,,,,,,,,,,,,,15,,69,0
6599,note_on,,0,0,9,,,,,,,,,,,,,,,,15,,66,0
6599,note_on,,0,0,9,,,,,,,,,,,,,,,,15,,57,0
6600,note_on,,1,0,6,,,,,,,,,,,,,,,,6,,70,64
6600,note_on,,1,0,8,,,,,,,,,,,,,,,,13,,55,48
6600,note_on,,0,0,9,,,,,,,,,,,,,,,,15,,70,48
6600,note_on,,0,0,9,,,,,,,,,,,,,,,,15,,67,48
6600,note_on,,0,0,9,,,,,,,,,,,,,,,,15,,62,48
6600,note_on,,1,0,7,,,,,,,,,,,,,,,,10,,62,48
6600,note_on,,1,0,9,,,,,,,,,,,,,,,,15,,55,48
6659,note_on,,59,0,7,,,,,,,,,,,,,,,,10,,62,0
6659,note_on,,59,0,6,,,,,,,,,,,,,,,,6,,70,0
6660,note_on,,1,0,7,,,,,,,,,,,,,,,,10,,78,48
6660,note_on,,1,0,6,,,,,,,,,,,,,,,,6,,69,64
6719,note_on,,59,0,7,,,,,,,,,,,,,,,,10,,78,0
6719,note_on,,59,0,6,,,,,,,,,,,,,,,,6,,69,0
6720,note_on,,1,0,6,,,,,,,,,,,,,,,,6,,67,64
6720,note_on,,1,0,7,,,,,,,,,,,,,,,,10,,79,48
6779,note_on,,179,0,8,,,,,,,,,,,,,,,,13,,55,0
6779,note_on,,179,0,9,,,,,,,,,,,,,,,,15,,55,0
6780,note_on,,1,0,9,,,,,,,,,,,,,,,,15,,57,48
6780,note_on,,1,0,8,,,,,,,,,,,,,,,,13,,57,48
6839,note_on,,119,0,6,,,,,,,,,,,,,,,,6,,67,0
6839,note_on,,0,0,9,,,,,,,,,,,,,,,,15,,62,0
6839,note_on,,0,0,9,,,,,,,,,,,,,,,,15,,57,0
6839,note_on,,0,0,9,,,,,,,,,,,,,,,,15,,67,0
6839,note_on,,59,0,8,,,,,,,,,,,,,,,,13,,57,0
6839,note_on,,59,0,9,,,,,,,,,,,,,,,,15,,70,0
6840,note_on,,1,0,8,,,,,,,,,,,,,,,,13,,55,48
6840,note_on,,1,0,6,,,,,,,,,,,,,,,,6,,67,64
6840,note_on,,1,0,9,,,,,,,,,,,,,,,,15,,55,48
6899,note_on,,59,0,6,,,,,,,,,,,,,,,,6,,67,0
6899,note_on,,59,0,9,,,,,,,,,,,,,,,,15,,55,0
6899,note_on,,59,0,8,,,,,,,,,,,,,,,,13,,55,0
6900,note_on,,1,0,8,,,,,,,,,,,,,,,,13,,53,48
6900,note_on,,1,0,6,,,,,,,,,,,,,,,,6,,69,64
6900,note_on,,1,0,9,,,,,,,,,,,,,,,,15,,53,48
6959,note_on,,59,0,8,,,,,,,,,,,,,,,,13,,53,0
6959,note_on,,59,0,6,,,,,,,,,,,,,,,,6,,69,0
6959,note_on,,59,0,9,,,,,,,,,,,,,,,,15,,53,0
6960,note_on,,1,0,8,,,,,,,,,,,,,,,,13,,52,48
6960,note_on,,1,0,6,,,,,,,,,,,,,,,,6,,70,64
6960,note_on,,1,0,9,,,,,,,,,,,,,,,,15,,52,48
6960,note_on,,0,0,9,,,,,,,,,,,,,,,,15,,72,48
6960,note_on,,0,0,9,,,,,,,,,,,,,,,,15,,67,48
6960,note_on,,0,0,9,,,,,,,,,,,,,,,,15,,60,48
6960,note_on,,0,0,9,,,,,,,,,,,,,,,,15,,55,48
7019,note_on,,59,0,6,,,,,,,,,,,,,,,,6,,70,0
7019,note_on,,299,0,7,,,,,,,,,,,,,,,,10,,79,0
7020,note_on,,1,0,7,,,,,,,,,,,,,,,,10,,69,48
7020,note_on,,1,0,6,,,,,,,,,,,,,,,,6,,69,64
7079,note_on,,119,0,8,,,,,,,,,,,,,,,,13,,52,0
7079,note_on,,59,0,7,,,,,,,,,,,,,,,,10,,69,0
7079,note_on,,0,0,9,,,,,,,,,,,,,,,,15,,55,0
7079,note_on,,0,0,9,,,,,,,,,,,,,,,,15,,60,0
7079,note_on,,59,0,6,,,,,,,,,,,,,,,,6,,69,0
7079,note_on,,0,0,9,,,,,,,,,,,,,,,,15,,72,0
7079,note_on,,0,0,9,,,,,,,,,,,,,,,,15,,67,0
7079,note_on,,119,0,9,,,,,,,,,,,,,,,,15,,52,0
7080,note_on,,1,0,6,,,,,,,,,,,,,,,,6,,70,64
7080,note_on,,1,0,7,,,,,,,,,,,,,,,,10,,67,48
7139,note_on,,59,0,7,,,,,,,,,,,,,,,,10,,67,0
7140,note_on,,1,0,7,,,,,,,,,,,,,,,,10,,65,48
7199,note_on,,59,0,7,,,,,,,,,,,,,,,,10,,65,0
7199,note_on,,119,0,6,,,,,,,,,,,,,,,,6,,70,0
7200,note_on,,0,0,9,,,,,,,,,,,,,,,,15,,60,48
7200,note_on,,0,0,9,,,,,,,,,,,,,,,,15,,64,48
7200,note_on,,0,0,9,,,,,,,,,,,,,,,,15,,67,48
7200,note_on,,121,0,8,,,,,,,,,,,,,,,,13,,48,48
7200,note_on,,121,0,9,,,,,,,,,,,,,,,,15,,48,48
7200,note_on,,0,0,9,,,,,,,,,,,,,,,,15,,55,48
7200,note_on,,1,0,6,,,,,,,,,,,,,,,,6,,72,64
7200,note_on,,1,0,7,,,,,,,,,,,,,,,,10,,64,48
7259,note_on,,59,0,6,,,,,,,,,,,,,,,,6,,72,0
7259,note_on,,59,0,7,,,,,,,,,,,,,,,,10,,64,0
7260,note_on,,1,0,6,,,,,,,,,,,,,,,,6,,70,64
7260,note_on,,1,0,7,,,,,,,,,,,,,,,,10,,62,48
7319,note_on,,59,0,6,,,,,,,,,,,,,,,,6,,70,0
7319,note_on,,0,0,9,,,,,,,,,,,,,,,,15,,55,0
7319,note_on,,0,0,9,,,,,,,,,,,,,,,,15,,64,0
7319,note_on,,0,0,9,,,,,,,,,,,,,,,,15,,60,0
7319,note_on,,0,0,9,,,,,,,,,,,,,,,,15,,67,0
7319,note_on,,119,0,9,,,,,,,,,,,,,,,,15,,48,0
7319,note_on,,59,0,7,,,,,,,,,,,,,,,,10,,62,0
7319,note_on,,119,0,8,,,,,,,,,,,,,,,,13,,48,0
7320,note_on,,1,0,8,,,,,,,,,,,,,,,,13,,53,48
7320,note_on,,1,0,9,,,,,,,,,,,,,,,,15,,53,48
7320,note_on,,0,0,9,,,,,,,,,,,,,,,,15,,69,48
7320,note_on,,0,0,9,,,,,,,,,,,,,,,,15,,65,48
7320,note_on,,1,0,7,,,,,,,,,,,,,,,,10,,60,48
7320,note_on,,0,0,9,,,,,,,,,,,,,,,,15,,60,48
7320,note_on,,1,0,6,,,,,,,,,,,,,,,,6,,69,64
7379,note_on,,59,0,6,,,,,,,,,,,,,,,,6,,69,0
7380,note_on,,1,0,6,,,,,,,,,,,,,,,,6,,67,64
7439,note_on,,0,0,9,,,,,,,,,,,,,,,,15,,69,0
7439,note_on,,119,0,9,,,,,,,,,,,,,,,,15,,53,0
7439,note_on,,119,0,7,,,,,,,,,,,,,,,,10,,60,0
7439,note_on,,119,0,8,,,,,,,,,,,,,,,,13,,53,0
7439,note_on,,0,0,9,,,,,,,,,,,,,,,,15,,65,0
7439,note_on,,59,0,6,,,,,,,,,,,,,,,,6,,67,0
7439,note_on,,0,0,9,,,,,,,,,,,,,,,,15,,60,0
7440,note_on,,1,0,6,,,,,,,,,,,,,,,,6,,65,64
7559,note_on,,119,0,6,,,,,,,,,,,,,,,,6,,65,0
7560,note_on,,1,0,6,,,,,,,,,,,,,,,,6,,72,64
7619,note_on,,59,0,6,,,,,,,,,,,,,,,,6,,72,0
7620,note_on,,1,0,6,,,,,,,,,,,,,,,,6,,69,64
7679,note_on,,59,0,6,,,,,,,,,,,,,,,,6,,69,0
7680,note_on,,0,0,9,,,,,,,,,,,,,,,,15,,53,48
7680,note_on,,0,0,9,,,,,,,,,,,,,,,,15,,65,48
7680,note_on,,0,0,9,,,,,,,,,,,,,,,,15,,70,48
7680,note_on,,0,0,9,,,,,,,,,,,,,,,,15,,74,48
7680,note_on,,1,0,6,,,,,,,,,,,,,,,,6,,74,64
7680,note_on,,241,0,8,,,,,,,,,,,,,,,,13,,46,48
7680,note_on,,241,0,9,,,,,,,,,,,,,,,,15,,46,48
7739,note_on,,59,0,6,,,,,,,,,,,,,,,,6,,74,0
7740,note_on,,1,0,6,,,,,,,,,,,,,,,,6,,72,64
7799,note_on,,59,0,6,,,,,,,,,,,,,,,,6,,72,0
7799,note_on,,0,0,9,,,,,,,,,,,,,,,,15,,74,0
7799,note_on,,0,0,9,,,,,,,,,,,,,,,,15,,70,0
7799,note_on,,0,0,9,,,,,,,,,,,,,,,,15,,65,0
7799,note_on,,0,0,9,,,,,,,,,,,,,,,,15,,53,0
7799,note_on,,119,0,9,,,,,,,,,,,,,,,,15,,46,0
7799,note_on,,119,0,8,,,,,,,,,,,,,,,,13,,46,0
7800,note_on,,1,0,6,,,,,,,,,,,,,,,,6,,70,64
7859,note_on,,59,0,6,,,,,,,,,,,,,,,,6,,70,0
7860,note_on,,1,0,6,,,,,,,,,,,,,,,,6,,69,64
7919,note_on,,59,0,6,,,,,,,,,,,,,,,,6,,69,0
7920,note_on,,1,0,6,,,,,,,,,,,,,,,,6,,67,64
7979,note_on,,59,0,6,,,,,,,,,,,,,,,,6,,67,0
7980,note_on,,1,0,6,,,,,,,,,,,,,,,,6,,65,64
8039,note_on,,59,0,6,,,,,,,,,,,,,,,,6,,65,0
8040,note_on,,0,0,9,,,,,,,,,,,,,,,,15,,60,48
8040,note_on,,0,0,9,,,,,,,,,,,,,,,,15,,67,48
8040,note_on,,241,0,8,,,,,,,,,,,,,,,,13,,48,48
8040,note_on,,0,0,9,,,,,,,,,,,,,,,,15,,72,48
8040,note_on,,241,0,9,,,,,,,,,,,,,,,,15,,48,48
8040,note_on,,1,0,6,,,,,,,,,,,,,,,,6,,64,64
8040,note_on,,0,0,9,,,,,,,,,,,,,,,,15,,64,48
8129,note_on,,89,0,6,,,,,,,,,,,,,,,,6,,64,0
8130,note_on,,1,0,6,,,,,,,,,,,,,,,,6,,74,64
8159,note_on,,29,0,6,,,,,,,,,,,,,,,,6,,74,0
8159,note_on,,119,0,9,,,,,,,,,,,,,,,,15,,48,0
8159,note_on,,0,0,9,,,,,,,,,,,,,,,,15,,60,0
8159,note_on,,0,0,9,,,,,,,,,,,,,,,,15,,64,0
8159,note_on,,0,0,9,,,,,,,,,,,,,,,,15,,67,0
8159,note_on,,0,0,9,,,,,,,,,,,,,,,,15,,72,0
8159,note_on,,119,0,8,,,,,,,,,,,,,,,,13,,48,0
8160,note_on,,1,0,6,,,,,,,,,,,,,,,,6,,72,64
8249,note_on,,89,0,6,,,,,,,,,,,,,,,,6,,72,0
8250,note_on,,1,0,6,,,,,,,,,,,,,,,,6,,65,64
8279,note_on,,29,0,6,,,,,,,,,,,,,,,,6,,65,0
8280,note_on,,1,0,6,,,,,,,,,,,,,,,,6,,64,64
8369,note_on,,89,0,6,,,,,,,,,,,,,,,,6,,64,0
8370,note_on,,1,0,6,,,,,,,,,,,,,,,,6,,70,64
8399,note_on,,29,0,6,,,,,,,,,,,,,,,,6,,70,0
8400,note_on,,1,0,6,,,,,,,,,,,,,,,,6,,69,64
8400,note_on,,0,0,9,,,,,,,,,,,,,,,,15,,69,48
8400,note_on,,0,0,9,,,,,,,,,,,,,,,,15,,60,48
8400,note_on,,0,0,9,,,,,,,,,,,,,,,,15,,53,48
8400,note_on,,241,0,9,,,,,,,,,,,,,,,,15,,72,48
8400,note_on,,0,0,9,,,,,,,,,,,,,,,,15,,65,48
8400,note_on,,241,0,8,,,,,,,,,,,,,,,,13,,53,48
8459,note_on,,59,0,6,,,,,,,,,,,,,,,,6,,69,0
8460,note_on,,1,0,6,,,,,,,,,,,,,,,,6,,70,64
8519,note_on,,0,0,9,,,,,,,,,,,,,,,,15,,65,0
8519,note_on,,0,0,9,,,,,,,,,,,,,,,,15,,60,0
8519,note_on,,119,0,9,,,,,,,,,,,,,,,,15,,72,0
8519,note_on,,0,0,9,,,,,,,,,,,,,,,,15,,69,0
8519,note_on,,59,0,6,,,,,,,,,,,,,,,,6,,70,0
8519,note_on,,0,0,9,,,,,,,,,,,,,,,,15,,53,0
8519,note_on,,119,0,8,,,,,,,,,,,,,,,,13,,53,0
8520,note_on,,1,0,6,,,,,,,,,,,,,,,,6,,69,64
8579,note_on,,59,0,6,,,,,,,,,,,,,,,,6,,69,0
8580,note_on,,1,0,6,,,,,,,,,,,,,,,,6,,67,64
8639,note_on,,59,0,6,,,,,,,,,,,,,,,,6,,67,0
8640,note_on,,1,0,6,,,,,,,,,,,,,,,,6,,65,64
8640,note_on,,121,0,8,,,,,,,,,,,,,,,,13,,57,48
8640,note_on,,0,0,9,,,,,,,,,,,,,,,,15,,72,48
8640,note_on,,0,0,9,,,,,,,,,,,,,,,,15,,65,48
8640,note_on,,0,0,9,,,,,,,,,,,,,,,,15,,60,48
8640,note_on,,0,0,9,,,,,,,,,,,,,,,,15,,77,48
8640,note_on,,121,0,9,,,,,,,,,,,,,,,,15,,57,48
8699,note_on,,59,0,6,,,,,,,,,,,,,,,,6,,65,0
8700,note_on,,1,0,6,,,,,,,,,,,,,,,,6,,64,64
8759,note_on,,119,0,9,,,,,,,,,,,,,,,,15,,57,0
8759,note_on,,0,0,9,,,,,,,,,,,,,,,,15,,65,0
8759,note_on,,0,0,9,,,,,,,,,,,,,,,,15,,60,0
8759,note_on,,0,0,9,,,,,,,,,,,,,,,,15,,72,0
8759,note_on,,119,0,8,,,,,,,,,,,,,,,,13,,57,0
8759,note_on,,59,0,6,,,,,,,,,,,,,,,,6,,64,0
8760,note_on,,0,0,9,,,,,,,,,,,,,,,,15,,65,48
8760,note_on,,0,0,9,,,,,,,,,,,,,,,,15,,74,48
8760,note_on,,1,0,8,,,,,,,,,,,,,,,,13,,46,48
8760,note_on,,0,0,9,,,,,,,,,,,,,,,,15,,58,48
8760,note_on,,1,0,9,,,,,,,,,,,,,,,,15,,46,48
8760,note_on,,1,0,6,,,,,,,,,,,,,,,,6,,62,64
8849,note_on,,89,0,6,,,,,,,,,,,,,,,,6,,62,0
8850,note_on,,1,0,6,,,,,,,,,,,,,,,,6,,72,64
8879,note_on,,119,0,9,,,,,,,,,,,,,,,,15,,77,0
8879,note_on,,0,0,9,,,,,,,,,,,,,,,,15,,46,0
8879,note_on,,0,0,9,,,,,,,,,,,,,,,,15,,65,0
8879,note_on,,0,0,9,,,,,,,,,,,,,,,,15,,58,0
8879,note_on,,0,0,9,,,,,,,,,,,,,,,,15,,74,0
8879,note_on,,119,0,8,,,,,,,,,,,,,,,,13,,46,0
8879,note_on,,29,0,6,,,,,,,,,,,,,,,,6,,72,0
8880,note_on,,1,0,6,,,,,,,,,,,,,,,,6,,70,64
8969,note_on,,89,0,6,,,,,,,,,,,,,,,,6,,70,0
8970,note_on,,1,0,6,,,,,,,,,,,,,,,,6,,65,64
8999,note_on,,29,0,6,,,,,,,,,,,,,,,,6,,65,0
9000,note_on,,121,0,8,,,,,,,,,,,,,,,,13,,48,48
9000,note_on,,121,0,9,,,,,,,,,,,,,,,,15,,48,48
9000,note_on,,1,0,6,,,,,,,,,,,,,,,,6,,64,64
9000,note_on,,0,0,9,,,,,,,,,,,,,,,,15,,76,48
9000,note_on,,0,0,9,,,,,,,,,,,,,,,,15,,72,48
9000,note_on,,0,0,9,,,,,,,,,,,,,,,,15,,55,48
9089,note_on,,89,0,6,,,,,,,,,,,,,,,,6,,64,0
9090,note_on,,1,0,6,,,,,,,,,,,,,,,,6,,72,64
9119,note_on,,29,0,6,,,,,,,,,,,,,,,,6,,72,0
9119,note_on,,0,0,9,,,,,,,,,,,,,,,,15,,72,0
9119,note_on,,119,0,9,,,,,,,,,,,,,,,,15,,48,0
9119,note_on,,0,0,9,,,,,,,,,,,,,,,,15,,76,0
9119,note_on,,0,0,9,,,,,,,,,,,,,,,,15,,55,0
9119,note_on,,119,0,8,,,,,,,,,,,,,,,,13,,48,0
9120,note_on,,1,0,9,,,,,,,,,,,,,,,,15,,50,48
9120,note_on,,0,0,9,,,,,,,,,,,,,,,,15,,74,48
9120,note_on,,1,0,8,,,,,,,,,,,,,,,,13,,50,48
9120,note_on,,1,0,6,,,,,,,,,,,,,,,,6,,70,64
9120,note_on,,0,0,9,,,,,,,,,,,,,,,,15,,65,48
9120,note_on,,0,0,9,,,,,,,,,,,,,,,,15,,62,48
9120,note_on,,0,0,9,,,,,,,,,,,,,,,,15,,70,48
9209,note_on,,89,0,6,,,,,,,,,,,,,,,,6,,70,0
9210,note_on,,1,0,6,,,,,,,,,,,,,,,,6,,69,64
9239,note_on,,119,0,8,,,,,,,,,,,,,,,,13,,50,0
9239,note_on,,0,0,9,,,,,,,,,,,,,,,,15,,74,0
9239,note_on,,0,0,9,,,,,,,,,,,,,,,,15,,70,0
9239,note_on,,0,0,9,,,,,,,,,,,,,,,,15,,62,0
9239,note_on,,0,0,9,,,,,,,,,,,,,,,,15,,65,0
9239,note_on,,119,0,9,,,,,,,,,,,,,,,,15,,50,0
9239,note_on,,29,0,6,,,,,,,,,,,,,,,,6,,69,0
9240,note_on,,1,0,6,,,,,,,,,,,,,,,,6,,70,64
9329,note_on,,89,0,6,,,,,,,,,,,,,,,,6,,70,0
9330,note_on,,1,0,6,,,,,,,,,,,,,,,,6,,65,64
9359,note_on,,29,0,6,,,,,,,,,,,,,,,,6,,65,0
9360,note_on,,121,0,8,,,,,,,,,,,,,,,,13,,52,48
9360,note_on,,0,0,9,,,,,,,,,,,,,,,,15,,72,48
9360,note_on,,0,0,9,,,,,,,,,,,,,,,,15,,55,48
9360,note_on,,0,0,9,,,,,,,,,,,,,,,,15,,67,48
9360,note_on,,1,0,6,,,,,,,,,,,,,,,,6,,67,64
9360,note_on,,121,0,9,,,,,,,,,,,,,,,,15,,52,48
9419,note_on,,59,0,6,,,,,,,,,,,,,,,,6,,67,0
9420,note_on,,1,0,6,,,,,,,,,,,,,,,,6,,69,64
9449,note_on,,29,0,6,,,,,,,,,,,,,,,,6,,69,0
9450,note_on,,1,0,6,,,,,,,,,,,,,,,,6,,70,64
9479,note_on,,119,0,8,,,,,,,,,,,,,,,,13,,52,0
9479,note_on,,0,0,9,,,,,,,,,,,,,,,,15,,55,0
9479,note_on,,29,0,6,,,,,,,,,,,,,,,,6,,70,0
9479,note_on,,119,0,9,,,,,,,,,,,,,,,,15,,52,0
9479,note_on,,0,0,9,,,,,,,,,,,,,,,,15,,67,0
9480,note_on,,1,0,6,,,,,,,,,,,,,,,,6,,69,64
9480,note_on,,0,0,9,,,,,,,,,,,,,,,,15,,69,48
9480,note_on,,0,0,9,,,,,,,,,,,,,,,,15,,60,48
9480,note_on,,1,0,9,,,,,,,,,,,,,,,,15,,53,48
9480,note_on,,1,0,8,,,,,,,,,,,,,,,,13,,53,48
9599,note_on,,0,0,9,,,,,,,,,,,,,,,,15,,69,0
9599,note_on,,0,0,9,,,,,,,,,,,,,,,,15,,53,0
9599,note_on,,119,0,9,,,,,,,,,,,,,,,,15,,72,0
9599,note_on,,0,0,9,,,,,,,,,,,,,,,,15,,60,0
9599,note_on,,119,0,8,,,,,,,,,,,,,,,,13,,53,0
9600,note_on,,2161,0,7,,,,,,,,,,,,,,,,10,,72,48
9720,note_on,,0,0,9,,,,,,,,,,,,,,,,15,,72,48
9720,note_on,,0,0,9,,,,,,,,,,,,,,,,15,,65,48
9720,note_on,,0,0,9,,,,,,,,,,,,,,,,15,,45,48
9720,note_on,,0,0,9,,,,,,,,,,,,,,,,15,,60,48
9720,note_on,,121,0,8,,,,,,,,,,,,,,,,13,,45,48
9720,note_on,,121,0,9,,,,,,,,,,,,,,,,15,,53,48
9779,note_on,,179,0,7,,,,,,,,,,,,,,,,10,,72,0
9780,note_on,,1,0,7,,,,,,,,,,,,,,,,10,,65,48
9839,note_on,,0,0,9,,,,,,,,,,,,,,,,15,,65,0
9839,note_on,,119,0,8,,,,,,,,,,,,,,,,13,,45,0
9839,note_on,,359,0,6,,,,,,,,,,,,,,,,6,,69,0
9839,note_on,,59,0,7,,,,,,,,,,,,,,,,10,,65,0
9839,note_on,,119,0,9,,,,,,,,,,,,,,,,15,,53,0
9839,note_on,,0,0,9,,,,,,,,,,,,,,,,15,,72,0
9839,note_on,,0,0,9,,,,,,,,,,,,,,,,15,,45,0
9839,note_on,,0,0,9,,,,,,,,,,,,,,,,15,,60,0
9840,note_on,,1,0,6,,,,,,,,,,,,,,,,6,,65,64
9840,note_on,,1,0,7,,,,,,,,,,,,,,,,10,,74,48
9840,note_on,,1,0,9,,,,,,,,,,,,,,,,15,,46,48
9840,note_on,,0,0,9,,,,,,,,,,,,,,,,15,,70,48
9840,note_on,,0,0,9,,,,,,,,,,,,,,,,15,,65,48
9840,note_on,,0,0,9,,,,,,,,,,,,,,,,15,,62,48
9840,note_on,,0,0,9,,,,,,,,,,,,,,,,15,,50,48
9840,note_on,,1,0,8,,,,,,,,,,,,,,,,13,,46,48
9899,note_on,,59,0,7,,,,,,,,,,,,,,,,10,,74,0
9900,note_on,,1,0,7,,,,,,,,,,,,,,,,10,,72,48
9959,note_on,,0,0,9,,,,,,,,,,,,,,,,15,,65,0
9959,note_on,,0,0,9,,,,,,,,,,,,,,,,15,,70,0
9959,note_on,,119,0,9,,,,,,,,,,,,,,,,15,,46,0
9959,note_on,,119,0,8,,,,,,,,,,,,,,,,13,,46,0
9959,note_on,,0,0,9,,,,,,,,,,,,,,,,15,,62,0
9959,note_on,,119,0,6,,,,,,,,,,,,,,,,6,,65,0
9959,note_on,,59,0,7,,,,,,,,,,,,,,,,10,,72,0
9959,note_on,,0,0,9,,,,,,,,,,,,,,,,15,,50,0
9960,note_on,,1,0,6,,,,,,,,,,,,,,,,6,,74,64
9960,note_on,,1,0,7,,,,,,,,,,,,,,,,10,,70,48
10019,note_on,,59,0,7,,,,,,,,,,,,,,,,10,,70,0
10019,note_on,,59,0,6,,,,,,,,,,,,,,,,6,,74,0
10020,note_on,,1,0,6,,,,,,,,,,,,,,,,6,,72,64
10020,note_on,,1,0,7,,,,,,,,,,,,,,,,10,,69,48
10079,note_on,,59,0,6,,,,,,,,,,,,,,,,6,,72,0
10079,note_on,,59,0,7,,,,,,,,,,,,,,,,10,,69,0
10080,note_on,,1,0,7,,,,,,,,,,,,,,,,10,,67,48
10080,note_on,,1,0,6,,,,,,,,,,,,,,,,6,,70,64
10139,note_on,,59,0,6,,,,,,,,,,,,,,,,6,,70,0
10139,note_on,,59,0,7,,,,,,,,,,,,,,,,10,,67,0
10140,note_on,,1,0,6,,,,,,,,,,,,,,,,6,,69,64
10140,note_on,,1,0,7,,,,,,,,,,,,,,,,10,,65,48
10199,note_on,,59,0,6,,,,,,,,,,,,,,,,6,,69,0
10199,note_on,,59,0,7,,,,,,,,,,,,,,,,10,,65,0
10200,note_on,,0,0,9,,,,,,,,,,,,,,,,15,,55,48
10200,note_on,,241,0,9,,,,,,,,,,,,,,,,15,,48,48
10200,note_on,,241,0,8,,,,,,,,,,,,,,,,13,,48,48
10200,note_on,,1,0,7,,,,,,,,,,,,,,,,10,,64,48
10200,note_on,,0,0,9,,,,,,,,,,,,,,,,15,,64,48
10200,note_on,,0,0,9,,,,,,,,,,,,,,,,15,,60,48
10200,note_on,,1,0,6,,,,,,,,,,,,,,,,6,,67,64
10200,note_on,,0,0,9,,,,,,,,,,,,,,,,15,,67,48
10289,note_on,,89,0,6,,,,,,,,,,,,,,,,6,,67,0
10289,note_on,,89,0,7,,,,,,,,,,,,,,,,10,,64,0
10290,note_on,,1,0,6,,,,,,,,,,,,,,,,6,,65,64
10290,note_on,,1,0,7,,,,,,,,,,,,,,,,10,,74,48
10319,note_on,,119,0,9,,,,,,,,,,,,,,,,15,,48,0
10319,note_on,,0,0,9,,,,,,,,,,,,,,,,15,,67,0
10319,note_on,,29,0,6,,,,,,,,,,,,,,,,6,,65,0
10319,note_on,,0,0,9,,,,,,,,,,,,,,,,15,,55,0
10319,note_on,,0,0,9,,,,,,,,,,,,,,,,15,,60,0
10319,note_on,,119,0,8,,,,,,,,,,,,,,,,13,,48,0
10319,note_on,,0,0,9,,,,,,,,,,,,,,,,15,,64,0
10319,note_on,,29,0,7,,,,,,,,,,,,,,,,10,,74,0
10320,note_on,,1,0,7,,,,,,,,,,,,,,,,10,,72,48
10320,note_on,,1,0,6,,,,,,,,,,,,,,,,6,,64,64
10409,note_on,,89,0,6,,,,,,,,,,,,,,,,6,,64,0
10409,note_on,,89,0,7,,,,,,,,,,,,,,,,10,,72,0
10410,note_on,,1,0,7,,,,,,,,,,,,,,,,10,,65,48
10410,note_on,,1,0,6,,,,,,,,,,,,,,,,6,,69,64
10439,note_on,,29,0,6,,,,,,,,,,,,,,,,6,,69,0
10439,note_on,,29,0,7,,,,,,,,,,,,,,,,10,,65,0
10440,note_on,,1,0,6,,,,,,,,,,,,,,,,6,,67,64
10440,note_on,,1,0,7,,,,,,,,,,,,,,,,10,,64,48
10529,note_on,,89,0,7,,,,,,,,,,,,,,,,10,,64,0
10530,note_on,,1,0,7,,,,,,,,,,,,,,,,10,,70,48
10559,note_on,,119,0,6,,,,,,,,,,,,,,,,6,,67,0
10559,note_on,,29,0,7,,,,,,,,,,,,,,,,10,,70,0
10560,note_on,,1,0,6,,,,,,,,,,,,,,,,6,,60,64
10560,note_on,,0,0,9,,,,,,,,,,,,,,,,15,,69,48
10560,note_on,,241,0,9,,,,,,,,,,,,,,,,15,,53,48
10560,note_on,,0,0,9,,,,,,,,,,,,,,,,15,,60,48
10560,note_on,,1,0,7,,,,,,,,,,,,,,,,10,,69,48
10560,note_on,,241,0,8,,,,,,,,,,,,,,,,13,,53,48
10560,note_on,,0,0,9,,,,,,,,,,,,,,,,15,,65,48
10619,note_on,,59,0,7,,,,,,,,,,,,,,,,10,,69,0
10620,note_on,,1,0,7,,,,,,,,,,,,,,,,10,,70,48
10679,note_on,,0,0,9,,,,,,,,,,,,,,,,15,,60,0
10679,note_on,,0,0,9,,,,,,,,,,,,,,,,15,,65,0
10679,note_on,,0,0,9,,,,,,,,,,,,,,,,15,,69,0
10679,note_on,,119,0,9,,,,,,,,,,,,,,,,15,,53,0
10679,note_on,,59,0,7,,,,,,,,,,,,,,,,10,,70,0
10679,note_on,,119,0,8,,,,,,,,,,,,,,,,13,,53,0
10679,note_on,,119,0,6,,,,,,,,,,,,,,,,6,,60,0
10680,note_on,,1,0,6,,,,,,,,,,,,,,,,6,,65,64
10680,note_on,,1,0,7,,,,,,,,,,,,,,,,10,,69,48
10739,note_on,,59,0,7,,,,,,,,,,,,,,,,10,,69,0
10740,note_on,,1,0,7,,,,,,,,,,,,,,,,10,,67,48
10799,note_on,,59,0,7,,,,,,,,,,,,,,,,10,,67,0
10800,note_on,,121,0,8,,,,,,,,,,,,,,,,13,,45,48
10800,note_on,,1,0,7,,,,,,,,,,,,,,,,10,,65,48
10800,note_on,,0,0,9,,,,,,,,,,,,,,,,15,,65,48
10800,note_on,,0,0,9,,,,,,,,,,,,,,,,15,,60,48
10800,note_on,,0,0,9,,,,,,,,,,,,,,,,15,,53,48
10800,note_on,,121,0,9,,,,,,,,,,,,,,,,15,,45,48
10859,note_on,,59,0,7,,,,,,,,,,,,,,,,10,,65,0
10860,note_on,,1,0,7,,,,,,,,,,,,,,,,10,,64,48
10919,note_on,,119,0,8,,,,,,,,,,,,,,,,13,,45,0
10919,note_on,,59,0,7,,,,,,,,,,,,,,,,10,,64,0
10919,note_on,,119,0,9,,,,,,,,,,,,,,,,15,,45,0
10919,note_on,,0,0,9,,,,,,,,,,,,,,,,15,,53,0
10919,note_on,,0,0,9,,,,,,,,,,,,,,,,15,,60,0
10920,note_on,,1,0,9,,,,,,,,,,,,,,,,15,,46,48
10920,note_on,,0,0,9,,,,,,,,,,,,,,,,15,,62,48
10920,note_on,,0,0,9,,,,,,,,,,,,,,,,15,,53,48
10920,note_on,,1,0,8,,,,,,,,,,,,,,,,13,,46,48
10920,note_on,,1,0,7,,,,,,,,,,,,,,,,10,,62,48
11009,note_on,,89,0,7,,,,,,,,,,,,,,,,10,,62,0
11009,note_on,,329,0,6,,,,,,,,,,,,,,,,6,,65,0
11010,note_on,,1,0,6,,,,,,,,,,,,,,,,6,,69,64
11010,note_on,,1,0,7,,,,,,,,,,,,,,,,10,,72,48
11039,note_on,,29,0,7,,,,,,,,,,,,,,,,10,,72,0
11039,note_on,,0,0,9,,,,,,,,,,,,,,,,15,,62,0
11039,note_on,,119,0,8,,,,,,,,,,,,,,,,13,,46,0
11039,note_on,,119,0,9,,,,,,,,,,,,,,,,15,,65,0
11039,note_on,,29,0,6,,,,,,,,,,,,,,,,6,,69,0
11039,note_on,,0,0,9,,,,,,,,,,,,,,,,15,,46,0
11039,note_on,,0,0,9,,,,,,,,,,,,,,,,15,,53,0
11040,note_on,,1,0,6,,,,,,,,,,,,,,,,6,,67,64
11040,note_on,,1,0,7,,,,,,,,,,,,,,,,10,,70,48
11129,note_on,,89,0,7,,,,,,,,,,,,,,,,10,,70,0
11130,note_on,,1,0,7,,,,,,,,,,,,,,,,10,,62,48
11159,note_on,,29,0,7,,,,,,,,,,,,,,,,10,,62,0
11160,note_on,,1,0,7,,,,,,,,,,,,,,,,10,,64,48
11249,note_on,,89,0,7,,,,,,,,,,,,,,,,10,,64,0
11250,note_on,,1,0,7,,,,,,,,,,,,,,,,10,,65,48
11279,note_on,,29,0,7,,,,,,,,,,,,,,,,10,,65,0
11280,note_on,,1,0,7,,,,,,,,,,,,,,,,10,,64,48
11280,note_on,,241,0,8,,,,,,,,,,,,,,,,13,,48,48
11280,note_on,,0,0,9,,,,,,,,,,,,,,,,15,,64,48
11280,note_on,,0,0,9,,,,,,,,,,,,,,,,15,,60,48
11280,note_on,,241,0,9,,,,,,,,,,,,,,,,15,,48,48
11280,note_on,,0,0,9,,,,,,,,,,,,,,,,15,,58,48
11369,note_on,,329,0,6,,,,,,,,,,,,,,,,6,,67,0
11369,note_on,,89,0,7,,,,,,,,,,,,,,,,10,,64,0
11370,note_on,,1,0,6,,,,,,,,,,,,,,,,6,,70,64
11370,note_on,,1,0,7,,,,,,,,,,,,,,,,10,,67,48
11399,note_on,,0,0,9,,,,,,,,,,,,,,,,15,,60,0
11399,note_on,,0,0,9,,,,,,,,,,,,,,,,15,,58,0
11399,note_on,,29,0,7,,,,,,,,,,,,,,,,10,,67,0
11399,note_on,,0,0,9,,,,,,,,,,,,,,,,15,,64,0
11399,note_on,,119,0,9,,,,,,,,,,,,,,,,15,,48,0
11399,note_on,,119,0,8,,,,,,,,,,,,,,,,13,,48,0
11399,note_on,,29,0,6,,,,,,,,,,,,,,,,6,,70,0
11400,note_on,,0,0,9,,,,,,,,,,,,,,,,15,,60,48
11400,note_on,,0,0,9,,,,,,,,,,,,,,,,15,,65,48
11400,note_on,,1,0,7,,,,,,,,,,,,,,,,10,,65,48
11400,note_on,,1,0,8,,,,,,,,,,,,,,,,13,,41,48
11400,note_on,,1,0,6,,,,,,,,,,,,,,,,6,,68,64
11400,note_on,,1,0,9,,,,,,,,,,,,,,,,15,,41,48
11400,note_on,,0,0,9,,,,,,,,,,,,,,,,15,,56,48
11459,note_on,,59,0,7,,,,,,,,,,,,,,,,10,,65,0
11460,note_on,,1,0,7,,,,,,,,,,,,,,,,10,,63,48
11519,note_on,,119,0,9,,,,,,,,,,,,,,,,15,,41,0
11519,note_on,,0,0,9,,,,,,,,,,,,,,,,15,,60,0
11519,note_on,,0,0,9,,,,,,,,,,,,,,,,15,,65,0
11519,note_on,,59,0,7,,,,,,,,,,,,,,,,10,,63,0
11519,note_on,,119,0,8,,,,,,,,,,,,,,,,13,,41,0
11520,note_on,,0,0,9,,,,,,,,,,,,,,,,15,,65,48
11520,note_on,,1,0,8,,,,,,,,,,,,,,,,13,,53,48
11520,note_on,,0,0,9,,,,,,,,,,,,,,,,15,,68,48
11520,note_on,,1,0,7,,,,,,,,,,,,,,,,10,,61,48
11520,note_on,,1,0,9,,,,,,,,,,,,,,,,15,,53,48
11579,note_on,,59,0,7,,,,,,,,,,,,,,,,10,,61,0
11580,note_on,,1,0,7,,,,,,,,,,,,,,,,10,,60,48
11639,note_on,,59,0,7,,,,,,,,,,,,,,,,10,,60,0
11639,note_on,,119,0,9,,,,,,,,,,,,,,,,15,,56,0
11639,note_on,,0,0,9,,,,,,,,,,,,,,,,15,,68,0
11639,note_on,,0,0,9,,,,,,,,,,,,,,,,15,,65,0
11639,note_on,,0,0,9,,,,,,,,,,,,,,,,15,,53,0
11639,note_on,,119,0,8,,,,,,,,,,,,,,,,13,,53,0
11640,note_on,,0,0,9,,,,,,,,,,,,,,,,15,,69,48
11640,note_on,,0,0,9,,,,,,,,,,,,,,,,15,,65,48
11640,note_on,,0,0,9,,,,,,,,,,,,,,,,15,,62,48
11640,note_on,,0,0,9,,,,,,,,,,,,,,,,15,,53,48
11640,note_on,,1,0,8,,,,,,,,,,,,,,,,13,,46,48
11640,note_on,,1,0,7,,,,,,,,,,,,,,,,10,,61,48
11640,note_on,,1,0,9,,,,,,,,,,,,,,,,15,,46,48
11699,note_on,,299,0,6,,,,,,,,,,,,,,,,6,,68,0
11700,note_on,,1,0,6,,,,,,,,,,,,,,,,6,,67,64
11759,note_on,,0,0,9,,,,,,,,,,,,,,,,15,,62,0
11759,note_on,,0,0,9,,,,,,,,,,,,,,,,15,,53,0
11759,note_on,,119,0,9,,,,,,,,,,,,,,,,15,,46,0
11759,note_on,,59,0,6,,,,,,,,,,,,,,,,6,,67,0
11759,note_on,,119,0,8,,,,,,,,,,,,,,,,13,,46,0
11759,note_on,,0,0,9,,,,,,,,,,,,,,,,15,,65,0
11759,note_on,,0,0,9,,,,,,,,,,,,,,,,15,,69,0
11760,note_on,,1,0,6,,,,,,,,,,,,,,,,6,,70,64
11819,note_on,,59,0,6,,,,,,,,,,,,,,,,6,,70,0
11820,note_on,,1,0,6,,,,,,,,,,,,,,,,6,,68,64
11879,note_on,,59,0,6,,,,,,,,,,,,,,,,6,,68,0
11879,note_on,,239,0,7,,,,,,,,,,,,,,,,10,,61,0
11880,note_on,,1,0,6,,,,,,,,,,,,,,,,6,,67,64
11880,note_on,,121,0,8,,,,,,,,,,,,,,,,13,,58,48
11880,note_on,,121,0,9,,,,,,,,,,,,,,,,15,,58,48
11880,note_on,,0,0,9,,,,,,,,,,,,,,,,15,,67,48
11880,note_on,,0,0,9,,,,,,,,,,,,,,,,15,,65,48
11880,note_on,,0,0,9,,,,,,,,,,,,,,,,15,,62,48
11880,note_on,,1,0,7,,,,,,,,,,,,,,,,10,,73,48
11939,note_on,,59,0,6,,,,,,,,,,,,,,,,6,,67,0
11940,note_on,,1,0,6,,,,,,,,,,,,,,,,6,,65,64
11999,note_on,,119,0,8,,,,,,,,,,,,,,,,13,,58,0
11999,note_on,,119,0,7,,,,,,,,,,,,,,,,10,,73,0
11999,note_on,,119,0,9,,,,,,,,,,,,,,,,15,,58,0
11999,note_on,,0,0,9,,,,,,,,,,,,,,,,15,,62,0
11999,note_on,,0,0,9,,,,,,,,,,,,,,,,15,,65,0
11999,note_on,,59,0,6,,,,,,,,,,,,,,,,6,,65,0
12000,note_on,,0,0,9,,,,,,,,,,,,,,,,15,,64,48
12000,note_on,,1,0,8,,,,,,,,,,,,,,,,13,,48,48
12000,note_on,,1,0,7,,,,,,,,,,,,,,,,10,,67,48
12000,note_on,,0,0,9,,,,,,,,,,,,,,,,15,,55,48
12000,note_on,,1,0,6,,,,,,,,,,,,,,,,6,,64,64
12000,note_on,,1,0,9,,,,,,,,,,,,,,,,15,,48,48
12000,note_on,,0,0,9,,,,,,,,,,,,,,,,15,,60,48
12089,note_on,,89,0,6,,,,,,,,,,,,,,,,6,,64,0
12090,note_on,,1,0,6,,,,,,,,,,,,,,,,6,,65,64
12119,note_on,,0,0,9,,,,,,,,,,,,,,,,15,,64,0
12119,note_on,,0,0,9,,,,,,,,,,,,,,,,15,,55,0
12119,note_on,,119,0,7,,,,,,,,,,,,,,,,10,,67,0
12119,note_on,,119,0,9,,,,,,,,,,,,,,,,15,,67,0
12119,note_on,,29,0,6,,,,,,,,,,,,,,,,6,,65,0
12120,note_on,,1,0,6,,,,,,,,,,,,,,,,6,,67,64
12179,note_on,,60,0,9,,,,,,,,,,,,,,,,15,,48,0
12179,note_on,,179,0,8,,,,,,,,,,,,,,,,13,,48,0
12180,note_on,,1,0,8,,,,,,,,,,,,,,,,13,,53,48
12180,note_on,,1,0,9,,,,,,,,,,,,,,,,15,,53,48
12239,note_on,,59,0,9,,,,,,,,,,,,,,,,15,,60,0
12239,note_on,,119,0,6,,,,,,,,,,,,,,,,6,,67,0
12239,note_on,,0,0,9,,,,,,,,,,,,,,,,15,,53,0
12239,note_on,,59,0,8,,,,,,,,,,,,,,,,13,,53,0
12240,note_on,,1,0,8,,,,,,,,,,,,,,,,13,,51,48
12240,note_on,,1,0,6,,,,,,,,,,,,,,,,6,,69,64
12240,note_on,,0,0,9,,,,,,,,,,,,,,,,15,,57,48
12240,note_on,,0,0,9,,,,,,,,,,,,,,,,15,,60,48
12240,note_on,,0,0,9,,,,,,,,,,,,,,,,15,,65,48
12240,note_on,,1,0,9,,,,,,,,,,,,,,,,15,,51,48
12329,note_on,,89,0,9,,,,,,,,,,,,,,,,15,,51,0
12329,note_on,,89,0,8,,,,,,,,,,,,,,,,13,,51,0
12330,note_on,,1,0,9,,,,,,,,,,,,,,,,15,,53,48
12330,note_on,,1,0,8,,,,,,,,,,,,,,,,13,,53,48
12359,note_on,,29,0,9,,,,,,,,,,,,,,,,15,,60,0
12359,note_on,,0,0,9,,,,,,,,,,,,,,,,15,,57,0
12359,note_on,,0,0,9,,,,,,,,,,,,,,,,15,,53,0
12359,note_on,,119,0,6,,,,,,,,,,,,,,,,6,,69,0
12359,note_on,,29,0,8,,,,,,,,,,,,,,,,13,,53,0
12360,note_on,,1,0,8,,,,,,,,,,,,,,,,13,,50,48
12360,note_on,,1,0,9,,,,,,,,,,,,,,,,15,,50,48
12360,note_on,,0,0,9,,,,,,,,,,,,,,,,15,,62,48
12360,note_on,,1,0,6,,,,,,,,,,,,,,,,6,,70,64
12360,note_on,,0,0,9,,,,,,,,,,,,,,,,15,,58,48
12479,note_on,,119,0,9,,,,,,,,,,,,,,,,15,,65,0
12479,note_on,,0,0,9,,,,,,,,,,,,,,,,15,,50,0
12479,note_on,,0,0,9,,,,,,,,,,,,,,,,15,,58,0
12479,note_on,,0,0,9,,,,,,,,,,,,,,,,15,,62,0
12479,note_on,,119,0,8,,,,,,,,,,,,,,,,13,,50,0
12480,note_on,,0,0,9,,,,,,,,,,,,,,,,15,,55,48
12480,note_on,,0,0,9,,,,,,,,,,,,,,,,15,,67,48
12480,note_on,,1,0,8,,,,,,,,,,,,,,,,13,,52,48
12480,note_on,,0,0,9,,,,,,,,,,,,,,,,15,,52,48
12480,note_on,,1,0,9,,,,,,,,,,,,,,,,15,,60,48
12539,note_on,,179,0,6,,,,,,,,,,,,,,,,6,,70,0
12540,note_on,,1,0,6,,,,,,,,,,,,,,,,6,,72,64
12599,note_on,,119,0,9,,,,,,,,,,,,,,,,15,,60,0
12599,note_on,,0,0,9,,,,,,,,,,,,,,,,15,,52,0
12599,note_on,,0,0,9,,,,,,,,,,,,,,,,15,,67,0
12599,note_on,,59,0,6,,,,,,,,,,,,,,,,6,,72,0
12599,note_on,,0,0,9,,,,,,,,,,,,,,,,15,,55,0
12599,note_on,,119,0,8,,,,,,,,,,,,,,,,13,,52,0
12600,note_on,,1,0,8,,,,,,,,,,,,,,,,13,,53,48
12600,note_on,,1,0,6,,,,,,,,,,,,,,,,6,,69,64
12600,note_on,,0,0,9,,,,,,,,,,,,,,,,15,,60,48
12600,note_on,,0,0,9,,,,,,,,,,,,,,,,15,,65,48
12600,note_on,,0,0,9,,,,,,,,,,,,,,,,15,,57,48
12600,note_on,,1,0,9,,,,,,,,,,,,,,,,15,,53,48
12659,note_on,,59,0,6,,,,,,,,,,,,,,,,6,,69,0
12660,note_on,,1,0,6,,,,,,,,,,,,,,,,6,,67,64
12719,note_on,,0,0,9,,,,,,,,,,,,,,,,15,,57,0
12719,note_on,,0,0,9,,,,,,,,,,,,,,,,15,,65,0
12719,note_on,,0,0,9,,,,,,,,,,,,,,,,15,,60,0
12719,note_on,,59,0,6,,,,,,,,,,,,,,,,6,,67,0
12719,note_on,,119,0,8,,,,,,,,,,,,,,,,13,,53,0
12719,note_on,,119,0,9,,,,,,,,,,,,,,,,15,,53,0
12720,note_on,,1,0,6,,,,,,,,,,,,,,,,6,,69,64
12720,note_on,,1,0,8,,,,,,,,,,,,,,,,13,,46,48
12720,note_on,,1,0,9,,,,,,,,,,,,,,,,15,,46,48
12720,note_on,,0,0,9,,,,,,,,,,,,,,,,15,,74,48
12720,note_on,,0,0,9,,,,,,,,,,,,,,,,15,,65,48
12720,note_on,,0,0,9,,,,,,,,,,,,,,,,15,,58,48
12749,note_on,,29,0,6,,,,,,,,,,,,,,,,6,,69,0
12750,note_on,,1,0,6,,,,,,,,,,,,,,,,6,,67,64
12779,note_on,,29,0,6,,,,,,,,,,,,,,,,6,,67,0
12780,note_on,,1,0,6,,,,,,,,,,,,,,,,6,,65,64
12839,note_on,,0,0,9,,,,,,,,,,,,,,,,15,,58,0
12839,note_on,,0,0,9,,,,,,,,,,,,,,,,15,,65,0
12839,note_on,,0,0,9,,,,,,,,,,,,,,,,15,,74,0
12839,note_on,,59,0,6,,,,,,,,,,,,,,,,6,,65,0
12839,note_on,,119,0,8,,,,,,,,,,,,,,,,13,,46,0
12839,note_on,,119,0,9,,,,,,,,,,,,,,,,15,,46,0
12840,note_on,,0,0,9,,,,,,,,,,,,,,,,15,,55,48
12840,note_on,,0,0,9,,,,,,,,,,,,,,,,15,,67,48
12840,note_on,,0,0,9,,,,,,,,,,,,,,,,15,,64,48
12840,note_on,,0,0,9,,,,,,,,,,,,,,,,15,,60,48
12840,note_on,,1,0,8,,,,,,,,,,,,,,,,13,,48,48
12840,note_on,,1,0,6,,,,,,,,,,,,,,,,6,,65,64
12840,note_on,,1,0,9,,,,,,,,,,,,,,,,15,,48,48
12869,note_on,,29,0,6,,,,,,,,,,,,,,,,6,,65,0
12870,note_on,,1,0,6,,,,,,,,,,,,,,,,6,,64,64
12959,note_on,,0,0,9,,,,,,,,,,,,,,,,15,,60,0
12959,note_on,,0,0,9,,,,,,,,,,,,,,,,15,,64,0
12959,note_on,,0,0,9,,,,,,,,,,,,,,,,15,,67,0
12959,note_on,,0,0,9,,,,,,,,,,,,,,,,15,,55,0
12959,note_on,,119,0,8,,,,,,,,,,,,,,,,13,,48,0
12959,note_on,,119,0,9,,,,,,,,,,,,,,,,15,,48,0
12960,note_on,,0,0,9,,,,,,,,,,,,,,,,15,,67,48
12960,note_on,,1,0,8,,,,,,,,,,,,,,,,13,,36,48
12960,note_on,,1,0,9,,,,,,,,,,,,,,,,15,,36,48
12960,note_on,,0,0,9,,,,,,,,,,,,,,,,15,,48,48
12960,note_on,,0,0,9,,,,,,,,,,,,,,,,15,,72,48
12960,note_on,,0,0,9,,,,,,,,,,,,,,,,15,,64,48
13019,note_on,,149,0,6,,,,,,,,,,,,,,,,6,,64,0
13020,note_on,,1,0,6,,,,,,,,,,,,,,,,6,,65,64
13079,note_on,,59,0,6,,,,,,,,,,,,,,,,6,,65,0
13079,note_on,,0,0,9,,,,,,,,,,,,,,,,15,,48,0
13079,note_on,,119,0,8,,,,,,,,,,,,,,,,13,,36,0
13079,note_on,,0,0,9,,,,,,,,,,,,,,,,15,,72,0
13079,note_on,,119,0,9,,,,,,,,,,,,,,,,15,,36,0
13079,note_on,,0,0,9,,,,,,,,,,,,,,,,15,,67,0
13079,note_on,,0,0,9,,,,,,,,,,,,,,,,15,,64,0
13080,note_on,,0,0,9,,,,,,,,,,,,,,,,15,,48,48
13080,note_on,,0,0,9,,,,,,,,,,,,,,,,15,,60,48
13080,note_on,,0,0,9,,,,,,,,,,,,,,,,15,,65,48
13080,note_on,,1,0,6,,,,,,,,,,,,,,,,6,,65,64
13080,note_on,,1,0,8,,,,,,,,,,,,,,,,13,,41,48
13080,note_on,,0,0,9,,,,,,,,,,,,,,,,15,,69,48
13080,note_on,,1,0,9,,,,,,,,,,,,,,,,15,,41,48
13199,note_on,,0,0,9,,,,,,,,,,,,,,,,15,,69,0
13199,note_on,,0,0,9,,,,,,,,,,,,,,,,15,,65,0
13199,note_on,,0,0,9,,,,,,,,,,,,,,,,15,,48,0
13199,note_on,,119,0,9,,,,,,,,,,,,,,,,15,,41,0
13199,note_on,,119,0,8,,,,,,,,,,,,,,,,13,,41,0
13200,note_on,,1,0,8,,,,,,,,,,,,,,,,13,,57,48
13200,note_on,,9361,0,5,,,,,,,,,,,,,,,,2,,57,48
13200,note_on,,0,0,9,,,,,,,,,,,,,,,,15,,65,48
13200,note_on,,1,0,9,,,,,,,,,,,,,,,,15,,57,48
13260,note_on,,1141,0,7,,,,,,,,,,,,,,,,10,,65,72
13319,note_on,,59,0,7,,,,,,,,,,,,,,,,10,,65,0
13319,note_on,,119,0,9,,,,,,,,,,,,,,,,15,,60,0
13319,note_on,,0,0,9,,,,,,,,,,,,,,,,15,,57,0
13319,note_on,,0,0,9,,,,,,,,,,,,,,,,15,,65,0
13319,note_on,,239,0,6,,,,,,,,,,,,,,,,6,,65,0
13319,note_on,,119,0,8,,,,,,,,,,,,,,,,13,,57,0
13319,note_on,,119,0,5,,,,,,,,,,,,,,,,2,,57,0
13320,note_on,,1,0,8,,,,,,,,,,,,,,,,13,,53,72
13320,note_on,,1,0,5,,,,,,,,,,,,,,,,2,,53,72
13320,note_on,,0,0,9,,,,,,,,,,,,,,,,15,,69,72
13320,note_on,,1,0,7,,,,,,,,,,,,,,,,10,,72,72
13320,note_on,,0,0,9,,,,,,,,,,,,,,,,15,,65,72
13320,note_on,,0,0,9,,,,,,,,,,,,,,,,15,,60,72
13320,note_on,,1,0,9,,,,,,,,,,,,,,,,15,,53,72
13379,note_on,,59,0,7,,,,,,,,,,,,,,,,10,,72,0
13380,note_on,,1,0,7,,,,,,,,,,,,,,,,10,,77,72
13439,note_on,,0,0,9,,,,,,,,,,,,,,,,15,,65,0
13439,note_on,,119,0,5,,,,,,,,,,,,,,,,2,,53,0
13439,note_on,,119,0,9,,,,,,,,,,,,,,,,15,,53,0
13439,note_on,,119,0,8,,,,,,,,,,,,,,,,13,,53,0
13439,note_on,,59,0,7,,,,,,,,,,,,,,,,10,,77,0
13439,note_on,,0,0,9,,,,,,,,,,,,,,,,15,,60,0
13439,note_on,,0,0,9,,,,,,,,,,,,,,,,15,,69,0
13440,note_on,,1,0,5,,,,,,,,,,,,,,,,2,,60,72
13440,note_on,,1,0,8,,,,,,,,,,,,,,,,13,,60,72
13440,note_on,,0,0,9,,,,,,,,,,,,,,,,15,,67,72
13440,note_on,,1,0,9,,,,,,,,,,,,,,,,15,,60,72
13440,note_on,,0,0,9,,,,,,,,,,,,,,,,15,,64,72
13440,note_on,,1,0,7,,,,,,,,,,,,,,,,10,,76,72
13499,note_on,,59,0,7,,,,,,,,,,,,,,,,10,,76,0
13500,note_on,,1,0,7,,,,,,,,,,,,,,,,10,,72,72
13529,note_on,,29,0,7,,,,,,,,,,,,,,,,10,,72,0
13530,note_on,,1,0,7,,,,,,,,,,,,,,,,10,,74,72
13559,note_on,,29,0,7,,,,,,,,,,,,,,,,10,,74,0
13559,note_on,,119,0,5,,,,,,,,,,,,,,,,2,,60,0
13559,note_on,,0,0,9,,,,,,,,,,,,,,,,15,,64,0
13559,note_on,,0,0,9,,,,,,,,,,,,,,,,15,,67,0
13559,note_on,,119,0,9,,,,,,,,,,,,,,,,15,,60,0
13559,note_on,,119,0,8,,,,,,,,,,,,,,,,13,,60,0
13560,note_on,,1,0,7,,,,,,,,,,,,,,,,10,,75,72
13619,note_on,,59,0,7,,,,,,,,,,,,,,,,10,,75,0
13620,note_on,,1,0,7,,,,,,,,,,,,,,,,10,,67,72
13679,note_on,,59,0,7,,,,,,,,,,,,,,,,10,,67,0
13680,note_on,,121,0,5,,,,,,,,,,,,,,,,2,,53,72
13680,note_on,,0,0,9,,,,,,,,,,,,,,,,15,,63,72
13680,note_on,,0,0,9,,,,,,,,,,,,,,,,15,,69,72
13680,note_on,,0,0,9,,,,,,,,,,,,,,,,15,,72,72
13680,note_on,,121,0,9,,,,,,,,,,,,,,,,15,,53,72
13680,note_on,,121,0,8,,,,,,,,,,,,,,,,13,,53,72
13680,note_on,,1,0,7,,,,,,,,,,,,,,,,10,,69,72
13739,note_on,,59,0,7,,,,,,,,,,,,,,,,10,,69,0
13740,note_on,,1,0,7,,,,,,,,,,,,,,,,10,,77,72
13799,note_on,,119,0,5,,,,,,,,,,,,,,,,2,,53,0
13799,note_on,,0,0,9,,,,,,,,,,,,,,,,15,,63,0
13799,note_on,,0,0,9,,,,,,,,,,,,,,,,15,,69,0
13799,note_on,,119,0,8,,,,,,,,,,,,,,,,13,,53,0
13799,note_on,,0,0,9,,,,,,,,,,,,,,,,15,,72,0
13799,note_on,,59,0,7,,,,,,,,,,,,,,,,10,,77,0
13799,note_on,,119,0,9,,,,,,,,,,,,,,,,15,,53,0
13800,note_on,,1,0,9,,,,,,,,,,,,,,,,15,,58,72
13800,note_on,,0,0,9,,,,,,,,,,,,,,,,15,,62,72
13800,note_on,,1,0,5,,,,,,,,,,,,,,,,2,,58,72
13800,note_on,,1,0,8,,,,,,,,,,,,,,,,13,,58,72
13800,note_on,,0,0,9,,,,,,,,,,,,,,,,15,,70,72
13800,note_on,,1,0,7,,,,,,,,,,,,,,,,10,,74,72
13800,note_on,,0,0,9,,,,,,,,,,,,,,,,15,,74,72
13859,note_on,,59,0,7,,,,,,,,,,,,,,,,10,,74,0
13860,note_on,,1,0,7,,,,,,,,,,,,,,,,10,,65,72
13919,note_on,,119,0,8,,,,,,,,,,,,,,,,13,,58,0
13919,note_on,,119,0,9,,,,,,,,,,,,,,,,15,,58,0
13919,note_on,,0,0,9,,,,,,,,,,,,,,,,15,,62,0
13919,note_on,,0,0,9,,,,,,,,,,,,,,,,15,,70,0
13919,note_on,,119,0,5,,,,,,,,,,,,,,,,2,,58,0
13919,note_on,,59,0,7,,,,,,,,,,,,,,,,10,,65,0
13919,note_on,,0,0,9,,,,,,,,,,,,,,,,15,,74,0
13920,note_on,,1,0,7,,,,,,,,,,,,,,,,10,,70,72
13979,note_on,,59,0,7,,,,,,,,,,,,,,,,10,,70,0
13980,note_on,,1,0,7,,,,,,,,,,,,,,,,10,,74,72
14039,note_on,,59,0,7,,,,,,,,,,,,,,,,10,,74,0
14040,note_on,,121,0,8,,,,,,,,,,,,,,,,13,,60,72
14040,note_on,,121,0,5,,,,,,,,,,,,,,,,2,,60,72
14040,note_on,,1,0,7,,,,,,,,,,,,,,,,10,,67,72
14040,note_on,,121,0,9,,,,,,,,,,,,,,,,15,,60,72
14040,note_on,,0,0,9,,,,,,,,,,,,,,,,15,,72,72
14040,note_on,,0,0,9,,,,,,,,,,,,,,,,15,,63,72
14040,note_on,,0,0,9,,,,,,,,,,,,,,,,15,,67,72
14040,note_on,,0,0,9,,,,,,,,,,,,,,,,15,,69,72
14099,note_on,,59,0,7,,,,,,,,,,,,,,,,10,,67,0
14100,note_on,,1,0,7,,,,,,,,,,,,,,,,10,,79,72
14159,note_on,,119,0,8,,,,,,,,,,,,,,,,13,,60,0
14159,note_on,,0,0,9,,,,,,,,,,,,,,,,15,,63,0
14159,note_on,,0,0,9,,,,,,,,,,,,,,,,15,,67,0
14159,note_on,,119,0,9,,,,,,,,,,,,,,,,15,,60,0
14159,note_on,,0,0,9,,,,,,,,,,,,,,,,15,,72,0
14159,note_on,,0,0,9,,,,,,,,,,,,,,,,15,,69,0
14159,note_on,,59,0,7,,,,,,,,,,,,,,,,10,,79,0
14159,note_on,,119,0,5,,,,,,,,,,,,,,,,2,,60,0
14160,note_on,,1,0,5,,,,,,,,,,,,,,,,2,,62,72
14160,note_on,,1,0,8,,,,,,,,,,,,,,,,13,,62,72
14160,note_on,,0,0,9,,,,,,,,,,,,,,,,15,,69,72
14160,note_on,,1,0,7,,,,,,,,,,,,,,,,10,,78,72
14160,note_on,,1,0,9,,,,,,,,,,,,,,,,15,,62,72
14160,note_on,,0,0,9,,,,,,,,,,,,,,,,15,,66,72
14219,note_on,,59,0,7,,,,,,,,,,,,,,,,10,,78,0
14220,note_on,,1,0,7,,,,,,,,,,,,,,,,10,,74,72
14249,note_on,,29,0,7,,,,,,,,,,,,,,,,10,,74,0
14250,note_on,,1,0,7,,,,,,,,,,,,,,,,10,,76,72
14279,note_on,,29,0,7,,,,,,,,,,,,,,,,10,,76,0
14279,note_on,,119,0,8,,,,,,,,,,,,,,,,13,,62,0
14279,note_on,,119,0,5,,,,,,,,,,,,,,,,2,,62,0
14279,note_on,,119,0,9,,,,,,,,,,,,,,,,15,,62,0
14279,note_on,,0,0,9,,,,,,,,,,,,,,,,15,,69,0
14279,note_on,,0,0,9,,,,,,,,,,,,,,,,15,,66,0
14280,note_on,,1,0,7,,,,,,,,,,,,,,,,10,,77,72
14339,note_on,,59,0,7,,,,,,,,,,,,,,,,10,,77,0
14340,note_on,,1,0,7,,,,,,,,,,,,,,,,10,,69,72
14399,note_on,,59,0,7,,,,,,,,,,,,,,,,10,,69,0
14400,note_on,,121,0,5,,,,,,,,,,,,,,,,2,,55,72
14400,note_on,,0,0,9,,,,,,,,,,,,,,,,15,,65,72
14400,note_on,,0,0,9,,,,,,,,,,,,,,,,15,,71,72
14400,note_on,,0,0,9,,,,,,,,,,,,,,,,15,,74,72
14400,note_on,,121,0,9,,,,,,,,,,,,,,,,15,,55,72
14400,note_on,,121,0,8,,,,,,,,,,,,,,,,13,,55,72
14400,note_on,,1,0,7,,,,,,,,,,,,,,,,10,,71,72
14459,note_on,,59,0,7,,,,,,,,,,,,,,,,10,,71,0
14460,note_on,,1,0,7,,,,,,,,,,,,,,,,10,,79,72
14519,note_on,,119,0,5,,,,,,,,,,,,,,,,2,,55,0
14519,note_on,,119,0,8,,,,,,,,,,,,,,,,13,,55,0
14519,note_on,,59,0,7,,,,,,,,,,,,,,,,10,,79,0
14519,note_on,,0,0,9,,,,,,,,,,,,,,,,15,,65,0
14519,note_on,,0,0,9,,,,,,,,,,,,,,,,15,,74,0
14519,note_on,,0,0,9,,,,,,,,,,,,,,,,15,,71,0
14519,note_on,,119,0,9,,,,,,,,,,,,,,,,15,,55,0
14520,note_on,,1,0,5,,,,,,,,,,,,,,,,2,,60,72
14520,note_on,,0,0,9,,,,,,,,,,,,,,,,15,,64,72
14520,note_on,,1,0,9,,,,,,,,,,,,,,,,15,,60,72
14520,note_on,,0,0,9,,,,,,,,,,,,,,,,15,,72,72
14520,note_on,,1,0,7,,,,,,,,,,,,,,,,10,,76,72
14520,note_on,,1,0,8,,,,,,,,,,,,,,,,13,,60,72
14520,note_on,,0,0,9,,,,,,,,,,,,,,,,15,,76,72
14579,note_on,,59,0,7,,,,,,,,,,,,,,,,10,,76,0
14580,note_on,,1,0,7,,,,,,,,,,,,,,,,10,,71,72
14639,note_on,,119,0,8,,,,,,,,,,,,,,,,13,,60,0
14639,note_on,,119,0,9,,,,,,,,,,,,,,,,15,,60,0
14639,note_on,,119,0,5,,,,,,,,,,,,,,,,2,,60,0
14639,note_on,,0,0,9,,,,,,,,,,,,,,,,15,,76,0
14639,note_on,,59,0,7,,,,,,,,,,,,,,,,10,,71,0
14639,note_on,,0,0,9,,,,,,,,,,,,,,,,15,,72,0
14639,note_on,,0,0,9,,,,,,,,,,,,,,,,15,,64,0
14640,note_on,,1,0,7,,,,,,,,,,,,,,,,10,,72,72
14699,note_on,,59,0,7,,,,,,,,,,,,,,,,10,,72,0
14700,note_on,,1,0,7,,,,,,,,,,,,,,,,10,,68,72
14759,note_on,,59,0,7,,,,,,,,,,,,,,,,10,,68,0
14760,note_on,,121,0,5,,,,,,,,,,,,,,,,2,,48,72
14760,note_on,,0,0,9,,,,,,,,,,,,,,,,15,,69,72
14760,note_on,,121,0,9,,,,,,,,,,,,,,,,15,,48,72
14760,note_on,,0,0,9,,,,,,,,,,,,,,,,15,,64,72
14760,note_on,,1,0,7,,,,,,,,,,,,,,,,10,,69,72
14760,note_on,,121,0,8,,,,,,,,,,,,,,,,13,,48,72
14760,note_on,,0,0,9,,,,,,,,,,,,,,,,15,,72,72
14819,note_on,,59,0,7,,,,,,,,,,,,,,,,10,,69,0
14820,note_on,,1,0,7,,,,,,,,,,,,,,,,10,,64,72
14879,note_on,,119,0,9,,,,,,,,,,,,,,,,15,,48,0
14879,note_on,,119,0,8,,,,,,,,,,,,,,,,13,,48,0
14879,note_on,,0,0,9,,,,,,,,,,,,,,,,15,,69,0
14879,note_on,,0,0,9,,,,,,,,,,,,,,,,15,,64,0
14879,note_on,,119,0,5,,,,,,,,,,,,,,,,2,,48,0
14879,note_on,,59,0,7,,,,,,,,,,,,,,,,10,,64,0
14879,note_on,,0,0,9,,,,,,,,,,,,,,,,15,,72,0
14880,note_on,,1,0,9,,,,,,,,,,,,,,,,15,,53,48
14880,note_on,,0,0,9,,,,,,,,,,,,,,,,15,,60,48
14880,note_on,,1,0,7,,,,,,,,,,,,,,,,10,,57,72
14880,note_on,,0,0,9,,,,,,,,,,,,,,,,15,,69,48
14880,note_on,,0,0,9,,,,,,,,,,,,,,,,15,,65,48
14880,note_on,,1,0,8,,,,,,,,,,,,,,,,13,,53,48
14880,note_on,,1,0,5,,,,,,,,,,,,,,,,2,,53,48
14880,note_on,,1561,0,6,,,,,,,,,,,,,,,,6,,69,64
14999,note_on,,119,0,7,,,,,,,,,,,,,,,,10,,57,0
14999,note_on,,119,0,8,,,,,,,,,,,,,,,,13,,53,0
14999,note_on,,0,0,9,,,,,,,,,,,,,,,,15,,69,0
14999,note_on,,119,0,9,,,,,,,,,,,,,,,,15,,53,0
14999,note_on,,119,0,5,,,,,,,,,,,,,,,,2,,53,0
14999,note_on,,119,0,6,,,,,,,,,,,,,,,,6,,69,0
15000,note_on,,1,0,6,,,,,,,,,,,,,,,,6,,69,64
15000,note_on,,1,0,8,,,,,,,,,,,,,,,,13,,52,48
15000,note_on,,0,0,9,,,,,,,,,,,,,,,,15,,67,48
15000,note_on,,1,0,9,,,,,,,,,,,,,,,,15,,52,48
15119,note_on,,0,0,9,,,,,,,,,,,,,,,,15,,52,0
15119,note_on,,0,0,9,,,,,,,,,,,,,,,,15,,60,0
15119,note_on,,0,0,9,,,,,,,,,,,,,,,,15,,67,0
15119,note_on,,119,0,6,,,,,,,,,,,,,,,,6,,69,0
15119,note_on,,119,0,8,,,,,,,,,,,,,,,,13,,52,0
15119,note_on,,119,0,9,,,,,,,,,,,,,,,,15,,65,0
15120,note_on,,1,0,8,,,,,,,,,,,,,,,,13,,50,48
15120,note_on,,1,0,9,,,,,,,,,,,,,,,,15,,50,48
15120,note_on,,0,0,9,,,,,,,,,,,,,,,,15,,65,48
15120,note_on,,0,0,9,,,,,,,,,,,,,,,,15,,62,48
15120,note_on,,0,0,9,,,,,,,,,,,,,,,,15,,53,48
15120,note_on,,1,0,6,,,,,,,,,,,,,,,,6,,71,64
15239,note_on,,119,0,6,,,,,,,,,,,,,,,,6,,71,0
15239,note_on,,119,0,8,,,,,,,,,,,,,,,,13,,50,0
15239,note_on,,0,0,9,,,,,,,,,,,,,,,,15,,62,0
15239,note_on,,119,0,9,,,,,,,,,,,,,,,,15,,50,0
15239,note_on,,0,0,9,,,,,,,,,,,,,,,,15,,65,0
15239,note_on,,0,0,9,,,,,,,,,,,,,,,,15,,53,0
15240,note_on,,1,0,9,,,,,,,,,,,,,,,,15,,57,48
15240,note_on,,0,0,9,,,,,,,,,,,,,,,,15,,64,48
15240,note_on,,0,0,9,,,,,,,,,,,,,,,,15,,60,48
15240,note_on,,1,0,8,,,,,,,,,,,,,,,,13,,57,48
15240,note_on,,1,0,6,,,,,,,,,,,,,,,,6,,72,64
15359,note_on,,0,0,9,,,,,,,,,,,,,,,,15,,60,0
15359,note_on,,119,0,9,,,,,,,,,,,,,,,,15,,57,0
15359,note_on,,0,0,9,,,,,,,,,,,,,,,,15,,64,0
15359,note_on,,119,0,8,,,,,,,,,,,,,,,,13,,57,0
15479,note_on,,239,0,6,,,,,,,,,,,,,,,,6,,72,0
15480,note_on,,1,0,6,,,,,,,,,,,,,,,,6,,72,64
15480,note_on,,121,0,8,,,,,,,,,,,,,,,,13,,45,48
15480,note_on,,0,0,9,,,,,,,,,,,,,,,,15,,69,48
15480,note_on,,0,0,9,,,,,,,,,,,,,,,,15,,72,48
15480,note_on,,121,0,9,,,,,,,,,,,,,,,,15,,45,48
15480,note_on,,0,0,9,,,,,,,,,,,,,,,,15,,52,48
15599,note_on,,119,0,8,,,,,,,,,,,,,,,,13,,45,0
15599,note_on,,0,0,9,,,,,,,,,,,,,,,,15,,69,0
15599,note_on,,0,0,9,,,,,,,,,,,,,,,,15,,52,0
15599,note_on,,119,0,6,,,,,,,,,,,,,,,,6,,72,0
15599,note_on,,0,0,9,,,,,,,,,,,,,,,,15,,72,0
15599,note_on,,119,0,9,,,,,,,,,,,,,,,,15,,45,0
15600,note_on,,0,0,9,,,,,,,,,,,,,,,,15,,58,48
15600,note_on,,0,0,9,,,,,,,,,,,,,,,,15,,53,48
15600,note_on,,0,0,9,,,,,,,,,,,,,,,,15,,74,48
15600,note_on,,1,0,8,,,,,,,,,,,,,,,,13,,50,48
15600,note_on,,1,0,9,,,,,,,,,,,,,,,,15,,50,48
15600,note_on,,0,0,9,,,,,,,,,,,,,,,,15,,71,48
15600,note_on,,1,0,6,,,,,,,,,,,,,,,,6,,71,64
15719,note_on,,119,0,8,,,,,,,,,,,,,,,,13,,50,0
15719,note_on,,119,0,9,,,,,,,,,,,,,,,,15,,50,0
15719,note_on,,0,0,9,,,,,,,,,,,,,,,,15,,53,0
15720,note_on,,1,0,8,,,,,,,,,,,,,,,,13,,52,48
15720,note_on,,1,0,9,,,,,,,,,,,,,,,,15,,52,48
15720,note_on,,0,0,9,,,,,,,,,,,,,,,,15,,55,48
15779,note_on,,179,0,6,,,,,,,,,,,,,,,,6,,71,0
15780,note_on,,1,0,6,,,,,,,,,,,,,,,,6,,72,64
15839,note_on,,59,0,6,,,,,,,,,,,,,,,,6,,72,0
15839,note_on,,0,0,9,,,,,,,,,,,,,,,,15,,55,0
15839,note_on,,0,0,9,,,,,,,,,,,,,,,,15,,52,0
15839,note_on,,119,0,9,,,,,,,,,,,,,,,,15,,58,0
15839,note_on,,119,0,8,,,,,,,,,,,,,,,,13,,52,0
15840,note_on,,1,0,9,,,,,,,,,,,,,,,,15,,53,48
15840,note_on,,0,0,9,,,,,,,,,,,,,,,,15,,57,48
15840,note_on,,0,0,9,,,,,,,,,,,,,,,,15,,62,48
15840,note_on,,1,0,6,,,,,,,,,,,,,,,,6,,69,64
15840,note_on,,1,0,8,,,,,,,,,,,,,,,,13,,53,48
15959,note_on,,0,0,9,,,,,,,,,,,,,,,,15,,62,0
15959,note_on,,0,0,9,,,,,,,,,,,,,,,,15,,57,0
15959,note_on,,0,0,9,,,,,,,,,,,,,,,,15,,53,0
15959,note_on,,119,0,8,,,,,,,,,,,,,,,,13,,53,0
15959,note_on,,119,0,9,,,,,,,,,,,,,,,,15,,74,0
15959,note_on,,119,0,6,,,,,,,,,,,,,,,,6,,69,0
15959,note_on,,0,0,9,,,,,,,,,,,,,,,,15,,71,0
15960,note_on,,1,0,6,,,,,,,,,,,,,,,,6,,68,64
15960,note_on,,0,0,9,,,,,,,,,,,,,,,,15,,59,48
15960,note_on,,0,0,9,,,,,,,,,,,,,,,,15,,64,48
15960,note_on,,1,0,8,,,,,,,,,,,,,,,,13,,52,48
15960,note_on,,0,0,9,,,,,,,,,,,,,,,,15,,71,48
15960,note_on,,1,0,9,,,,,,,,,,,,,,,,15,,52,48
15960,note_on,,0,0,9,,,,,,,,,,,,,,,,15,,68,48
16079,note_on,,119,0,9,,,,,,,,,,,,,,,,15,,52,0
16079,note_on,,119,0,8,,,,,,,,,,,,,,,,13,,52,0
16079,note_on,,119,0,6,,,,,,,,,,,,,,,,6,,68,0
16080,note_on,,1,0,9,,,,,,,,,,,,,,,,15,,40,48
16080,note_on,,1,0,8,,,,,,,,,,,,,,,,13,,40,48
16080,note_on,,1,0,6,,,,,,,,,,,,,,,,6,,64,64
16199,note_on,,119,0,9,,,,,,,,,,,,,,,,15,,71,0
16199,note_on,,0,0,9,,,,,,,,,,,,,,,,15,,68,0
16199,note_on,,119,0,8,,,,,,,,,,,,,,,,13,,40,0
16199,note_on,,0,0,9,,,,,,,,,,,,,,,,15,,64,0
16199,note_on,,0,0,9,,,,,,,,,,,,,,,,15,,59,0
16199,note_on,,0,0,9,,,,,,,,,,,,,,,,15,,40,0
16199,note_on,,119,0,6,,,,,,,,,,,,,,,,6,,64,0
16200,note_on,,0,0,9,,,,,,,,,,,,,,,,15,,64,48
16200,note_on,,1,0,9,,,,,,,,,,,,,,,,15,,50,48
16200,note_on,,0,0,9,,,,,,,,,,,,,,,,15,,59,48
16200,note_on,,0,0,9,,,,,,,,,,,,,,,,15,,68,48
16200,note_on,,1,0,8,,,,,,,,,,,,,,,,13,,50,48
16319,note_on,,0,0,9,,,,,,,,,,,,,,,,15,,59,0
16319,note_on,,0,0,9,,,,,,,,,,,,,,,,15,,64,0
16319,note_on,,0,0,9,,,,,,,,,,,,,,,,15,,68,0
16319,note_on,,119,0,9,,,,,,,,,,,,,,,,15,,50,0
16319,note_on,,119,0,8,,,,,,,,,,,,,,,,13,,50,0
16320,note_on,,1,0,9,,,,,,,,,,,,,,,,15,,48,48
16320,note_on,,1,0,8,,,,,,,,,,,,,,,,13,,48,48
16320,note_on,,0,0,9,,,,,,,,,,,,,,,,15,,69,48
16320,note_on,,121,0,6,,,,,,,,,,,,,,,,6,,64,64
16320,note_on,,0,0,9,,,,,,,,,,,,,,,,15,,52,48
16320,note_on,,0,0,9,,,,,,,,,,,,,,,,15,,64,48
16439,note_on,,119,0,6,,,,,,,,,,,,,,,,6,,64,0
16440,note_on,,1,0,6,,,,,,,,,,,,,,,,6,,69,64
16559,note_on,,239,0,9,,,,,,,,,,,,,,,,15,,48,0
16559,note_on,,239,0,8,,,,,,,,,,,,,,,,13,,48,0
16559,note_on,,119,0,6,,,,,,,,,,,,,,,,6,,69,0
16559,note_on,,0,0,9,,,,,,,,,,,,,,,,15,,64,0
16560,note_on,,1,0,6,,,,,,,,,,,,,,,,6,,64,64
16560,note_on,,0,0,9,,,,,,,,,,,,,,,,15,,60,48
16560,note_on,,1,0,9,,,,,,,,,,,,,,,,15,,45,48
16560,note_on,,1,0,8,,,,,,,,,,,,,,,,13,,45,48
16679,note_on,,119,0,6,,,,,,,,,,,,,,,,6,,64,0
16679,note_on,,0,0,9,,,,,,,,,,,,,,,,15,,45,0
16679,note_on,,119,0,9,,,,,,,,,,,,,,,,15,,69,0
16679,note_on,,0,0,9,,,,,,,,,,,,,,,,15,,60,0
16679,note_on,,0,0,9,,,,,,,,,,,,,,,,15,,52,0
16679,note_on,,119,0,8,,,,,,,,,,,,,,,,13,,45,0
16680,note_on,,1,0,6,,,,,,,,,,,,,,,,6,,65,64
16680,note_on,,0,0,9,,,,,,,,,,,,,,,,15,,53,48
16680,note_on,,0,0,9,,,,,,,,,,,,,,,,15,,69,48
16680,note_on,,1,0,9,,,,,,,,,,,,,,,,15,,50,48
16680,note_on,,0,0,9,,,,,,,,,,,,,,,,15,,57,48
16680,note_on,,1,0,8,,,,,,,,,,,,,,,,13,,50,48
16799,note_on,,0,0,9,,,,,,,,,,,,,,,,15,,57,0
16799,note_on,,119,0,9,,,,,,,,,,,,,,,,15,,50,0
16799,note_on,,119,0,8,,,,,,,,,,,,,,,,13,,50,0
16800,note_on,,1,0,8,,,,,,,,,,,,,,,,13,,45,48
16800,note_on,,0,0,9,,,,,,,,,,,,,,,,15,,65,48
16800,note_on,,1,0,9,,,,,,,,,,,,,,,,15,,45,48
16919,note_on,,0,0,9,,,,,,,,,,,,,,,,15,,65,0
16919,note_on,,239,0,6,,,,,,,,,,,,,,,,6,,65,0
16919,note_on,,119,0,8,,,,,,,,,,,,,,,,13,,45,0
16919,note_on,,119,0,9,,,,,,,,,,,,,,,,15,,45,0
16920,note_on,,1,0,6,,,,,,,,,,,,,,,,6,,65,64
16920,note_on,,1,0,8,,,,,,,,,,,,,,,,13,,48,48
16920,note_on,,1,0,9,,,,,,,,,,,,,,,,15,,48,48
16920,note_on,,0,0,9,,,,,,,,,,,,,,,,15,,64,48
17039,note_on,,119,0,9,,,,,,,,,,,,,,,,15,,69,0
17039,note_on,,0,0,9,,,,,,,,,,,,,,,,15,,48,0
17039,note_on,,0,0,9,,,,,,,,,,,,,,,,15,,64,0
17039,note_on,,119,0,8,,,,,,,,,,,,,,,,13,,48,0
17039,note_on,,119,0,6,,,,,,,,,,,,,,,,6,,65,0
17039,note_on,,0,0,9,,,,,,,,,,,,,,,,15,,53,0
17040,note_on,,0,0,9,,,,,,,,,,,,,,,,15,,67,48
17040,note_on,,0,0,9,,,,,,,,,,,,,,,,15,,62,48
17040,note_on,,0,0,9,,,,,,,,,,,,,,,,15,,55,48
17040,note_on,,1,0,8,,,,,,,,,,,,,,,,13,,47,48
17040,note_on,,1,0,6,,,,,,,,,,,,,,,,6,,74,64
17040,note_on,,1,0,9,,,,,,,,,,,,,,,,15,,47,48
17099,note_on,,59,0,6,,,,,,,,,,,,,,,,6,,74,0
17100,note_on,,1,0,6,,,,,,,,,,,,,,,,6,,72,64
17159,note_on,,119,0,8,,,,,,,,,,,,,,,,13,,47,0
17159,note_on,,119,0,9,,,,,,,,,,,,,,,,15,,47,0
17159,note_on,,59,0,6,,,,,,,,,,,,,,,,6,,72,0
17160,note_on,,1,0,8,,,,,,,,,,,,,,,,13,,43,48
17160,note_on,,1,0,6,,,,,,,,,,,,,,,,6,,71,64
17160,note_on,,1,0,9,,,,,,,,,,,,,,,,15,,43,48
17219,note_on,,59,0,6,,,,,,,,,,,,,,,,6,,71,0
17220,note_on,,1,0,6,,,,,,,,,,,,,,,,6,,69,64
17279,note_on,,0,0,9,,,,,,,,,,,,,,,,15,,55,0
17279,note_on,,59,0,6,,,,,,,,,,,,,,,,6,,69,0
17279,note_on,,119,0,9,,,,,,,,,,,,,,,,15,,62,0
17279,note_on,,0,0,9,,,,,,,,,,,,,,,,15,,43,0
17279,note_on,,119,0,8,,,,,,,,,,,,,,,,13,,43,0
17280,note_on,,1,0,9,,,,,,,,,,,,,,,,15,,47,48
17280,note_on,,0,0,9,,,,,,,,,,,,,,,,15,,62,48
17280,note_on,,1,0,6,,,,,,,,,,,,,,,,6,,67,64
17280,note_on,,1,0,8,,,,,,,,,,,,,,,,13,,47,48
17339,note_on,,59,0,6,,,,,,,,,,,,,,,,6,,67,0
17340,note_on,,1,0,6,,,,,,,,,,,,,,,,6,,65,64
17399,note_on,,119,0,9,,,,,,,,,,,,,,,,15,,67,0
17399,note_on,,0,0,9,,,,,,,,,,,,,,,,15,,47,0
17399,note_on,,0,0,9,,,,,,,,,,,,,,,,15,,62,0
17399,note_on,,119,0,8,,,,,,,,,,,,,,,,13,,47,0
17399,note_on,,59,0,6,,,,,,,,,,,,,,,,6,,65,0
17400,note_on,,1,0,8,,,,,,,,,,,,,,,,13,,48,48
17400,note_on,,1,0,6,,,,,,,,,,,,,,,,6,,64,64
17400,note_on,,1,0,9,,,,,,,,,,,,,,,,15,,48,48
17400,note_on,,0,0,9,,,,,,,,,,,,,,,,15,,64,48
17400,note_on,,0,0,9,,,,,,,,,,,,,,,,15,,60,48
17400,note_on,,0,0,9,,,,,,,,,,,,,,,,15,,55,48
17519,note_on,,119,0,8,,,,,,,,,,,,,,,,13,,48,0
17519,note_on,,0,0,9,,,,,,,,,,,,,,,,15,,55,0
17519,note_on,,119,0,9,,,,,,,,,,,,,,,,15,,48,0
17519,note_on,,0,0,9,,,,,,,,,,,,,,,,15,,60,0
17520,note_on,,1,0,8,,,,,,,,,,,,,,,,13,,45,48
17520,note_on,,0,0,9,,,,,,,,,,,,,,,,15,,60,48
17520,note_on,,1,0,9,,,,,,,,,,,,,,,,15,,45,48
17579,note_on,,179,0,6,,,,,,,,,,,,,,,,6,,64,0
17580,note_on,,1,0,6,,,,,,,,,,,,,,,,6,,67,64
17609,note_on,,29,0,6,,,,,,,,,,,,,,,,6,,67,0
17610,note_on,,1,0,6,,,,,,,,,,,,,,,,6,,66,64
17639,note_on,,29,0,6,,,,,,,,,,,,,,,,6,,66,0
17639,note_on,,0,0,9,,,,,,,,,,,,,,,,15,,45,0
17639,note_on,,119,0,9,,,,,,,,,,,,,,,,15,,64,0
17639,note_on,,119,0,8,,,,,,,,,,,,,,,,13,,45,0
17640,note_on,,0,0,9,,,,,,,,,,,,,,,,15,,69,48
17640,note_on,,1,0,9,,,,,,,,,,,,,,,,15,,48,48
17640,note_on,,1,0,8,,,,,,,,,,,,,,,,13,,48,48
17640,note_on,,1,0,6,,,,,,,,,,,,,,,,6,,64,64
17669,note_on,,29,0,6,,,,,,,,,,,,,,,,6,,64,0
17670,note_on,,1,0,6,,,,,,,,,,,,,,,,6,,66,64
17699,note_on,,29,0,6,,,,,,,,,,,,,,,,6,,66,0
17700,note_on,,1,0,6,,,,,,,,,,,,,,,,6,,67,64
17759,note_on,,0,0,9,,,,,,,,,,,,,,,,15,,48,0
17759,note_on,,59,0,6,,,,,,,,,,,,,,,,6,,67,0
17759,note_on,,119,0,9,,,,,,,,,,,,,,,,15,,60,0
17759,note_on,,119,0,8,,,,,,,,,,,,,,,,13,,48,0
17760,note_on,,1,0,8,,,,,,,,,,,,,,,,13,,50,48
17760,note_on,,1,0,9,,,,,,,,,,,,,,,,15,,57,48
17760,note_on,,0,0,9,,,,,,,,,,,,,,,,15,,50,48
17760,note_on,,1,0,6,,,,,,,,,,,,,,,,6,,66,64
17760,note_on,,0,0,9,,,,,,,,,,,,,,,,15,,66,48
17879,note_on,,119,0,9,,,,,,,,,,,,,,,,15,,57,0
17879,note_on,,0,0,9,,,,,,,,,,,,,,,,15,,50,0
17879,note_on,,119,0,8,,,,,,,,,,,,,,,,13,,50,0
17880,note_on,,1,0,9,,,,,,,,,,,,,,,,15,,47,48
17880,note_on,,0,0,9,,,,,,,,,,,,,,,,15,,62,48
17880,note_on,,1,0,8,,,,,,,,,,,,,,,,13,,47,48
17939,note_on,,179,0,6,,,,,,,,,,,,,,,,6,,66,0
17940,note_on,,1,0,6,,,,,,,,,,,,,,,,6,,69,64
17969,note_on,,29,0,6,,,,,,,,,,,,,,,,6,,69,0
17970,note_on,,1,0,6,,,,,,,,,,,,,,,,6,,68,64
17999,note_on,,119,0,9,,,,,,,,,,,,,,,,15,,69,0
17999,note_on,,0,0,9,,,,,,,,,,,,,,,,15,,47,0
17999,note_on,,29,0,6,,,,,,,,,,,,,,,,6,,68,0
17999,note_on,,119,0,8,,,,,,,,,,,,,,,,13,,47,0
18000,note_on,,1,0,9,,,,,,,,,,,,,,,,15,,50,48
18000,note_on,,1,0,8,,,,,,,,,,,,,,,,13,,50,48
18000,note_on,,1,0,6,,,,,,,,,,,,,,,,6,,66,64
18029,note_on,,29,0,6,,,,,,,,,,,,,,,,6,,66,0
18030,note_on,,1,0,6,,,,,,,,,,,,,,,,6,,68,64
18059,note_on,,29,0,6,,,,,,,,,,,,,,,,6,,68,0
18060,note_on,,1,0,6,,,,,,,,,,,,,,,,6,,69,64
18119,note_on,,119,0,8,,,,,,,,,,,,,,,,13,,50,0
18119,note_on,,59,0,6,,,,,,,,,,,,,,,,6,,69,0
18119,note_on,,119,0,9,,,,,,,,,,,,,,,,15,,66,0
18119,note_on,,0,0,9,,,,,,,,,,,,,,,,15,,62,0
18119,note_on,,0,0,9,,,,,,,,,,,,,,,,15,,50,0
18120,note_on,,1,0,8,,,,,,,,,,,,,,,,13,,52,48
18120,note_on,,0,0,9,,,,,,,,,,,,,,,,15,,68,48
18120,note_on,,1,0,6,,,,,,,,,,,,,,,,6,,68,64
18120,note_on,,0,0,9,,,,,,,,,,,,,,,,15,,59,48
18120,note_on,,1,0,9,,,,,,,,,,,,,,,,15,,52,48
18120,note_on,,0,0,9,,,,,,,,,,,,,,,,15,,64,48
18239,note_on,,119,0,9,,,,,,,,,,,,,,,,15,,52,0
18239,note_on,,119,0,8,,,,,,,,,,,,,,,,13,,52,0
18239,note_on,,0,0,9,,,,,,,,,,,,,,,,15,,68,0
18240,note_on,,0,0,9,,,,,,,,,,,,,,,,15,,66,48
18240,note_on,,1,0,8,,,,,,,,,,,,,,,,13,,50,48
18240,note_on,,1,0,9,,,,,,,,,,,,,,,,15,,50,48
18299,note_on,,179,0,6,,,,,,,,,,,,,,,,6,,68,0
18300,note_on,,1,0,6,,,,,,,,,,,,,,,,6,,71,64
18329,note_on,,29,0,6,,,,,,,,,,,,,,,,6,,71,0
18330,note_on,,1,0,6,,,,,,,,,,,,,,,,6,,69,64
18359,note_on,,119,0,9,,,,,,,,,,,,,,,,15,,50,0
18359,note_on,,119,0,8,,,,,,,,,,,,,,,,13,,50,0
18359,note_on,,0,0,9,,,,,,,,,,,,,,,,15,,66,0
18359,note_on,,29,0,6,,,,,,,,,,,,,,,,6,,69,0
18360,note_on,,1,0,6,,,,,,,,,,,,,,,,6,,68,64
18360,note_on,,0,0,9,,,,,,,,,,,,,,,,15,,64,48
18360,note_on,,1,0,9,,,,,,,,,,,,,,,,15,,52,48
18360,note_on,,1,0,8,,,,,,,,,,,,,,,,13,,52,48
18389,note_on,,29,0,6,,,,,,,,,,,,,,,,6,,68,0
18390,note_on,,1,0,6,,,,,,,,,,,,,,,,6,,69,64
18419,note_on,,29,0,6,,,,,,,,,,,,,,,,6,,69,0
18420,note_on,,1,0,6,,,,,,,,,,,,,,,,6,,71,64
18479,note_on,,0,0,9,,,,,,,,,,,,,,,,15,,59,0
18479,note_on,,0,0,9,,,,,,,,,,,,,,,,15,,52,0
18479,note_on,,119,0,8,,,,,,,,,,,,,,,,13,,52,0
18479,note_on,,59,0,6,,,,,,,,,,,,,,,,6,,71,0
18479,note_on,,119,0,9,,,,,,,,,,,,,,,,15,,64,0
18480,note_on,,1,0,8,,,,,,,,,,,,,,,,13,,48,48
18480,note_on,,1,0,6,,,,,,,,,,,,,,,,6,,69,64
18480,note_on,,0,0,9,,,,,,,,,,,,,,,,15,,52,48
18480,note_on,,1,0,9,,,,,,,,,,,,,,,,15,,48,48
18480,note_on,,0,0,9,,,,,,,,,,,,,,,,15,,57,48
18599,note_on,,0,0,9,,,,,,,,,,,,,,,,15,,57,0
18599,note_on,,119,0,9,,,,,,,,,,,,,,,,15,,48,0
18599,note_on,,119,0,8,,,,,,,,,,,,,,,,13,,48,0
18600,note_on,,1,0,9,,,,,,,,,,,,,,,,15,,45,48
18600,note_on,,1,0,8,,,,,,,,,,,,,,,,13,,45,48
18600,note_on,,0,0,9,,,,,,,,,,,,,,,,15,,60,48
18659,note_on,,179,0,6,,,,,,,,,,,,,,,,6,,69,0
18660,note_on,,1,0,6,,,,,,,,,,,,,,,,6,,72,64
18689,note_on,,29,0,6,,,,,,,,,,,,,,,,6,,72,0
18690,note_on,,1,0,6,,,,,,,,,,,,,,,,6,,70,64
18719,note_on,,0,0,9,,,,,,,,,,,,,,,,15,,52,0
18719,note_on,,119,0,8,,,,,,,,,,,,,,,,13,,45,0
18719,note_on,,29,0,6,,,,,,,,,,,,,,,,6,,70,0
18719,note_on,,119,0,9,,,,,,,,,,,,,,,,15,,64,0
18719,note_on,,0,0,9,,,,,,,,,,,,,,,,15,,45,0
18719,note_on,,0,0,9,,,,,,,,,,,,,,,,15,,60,0
18720,note_on,,1,0,8,,,,,,,,,,,,,,,,13,,48,48
18720,note_on,,0,0,9,,,,,,,,,,,,,,,,15,,64,48
18720,note_on,,0,0,9,,,,,,,,,,,,,,,,15,,69,48
18720,note_on,,0,0,9,,,,,,,,,,,,,,,,15,,57,48
18720,note_on,,1,0,9,,,,,,,,,,,,,,,,15,,48,48
18720,note_on,,1,0,6,,,,,,,,,,,,,,,,6,,69,64
18749,note_on,,29,0,6,,,,,,,,,,,,,,,,6,,69,0
18750,note_on,,1,0,6,,,,,,,,,,,,,,,,6,,70,64
18779,note_on,,29,0,6,,,,,,,,,,,,,,,,6,,70,0
18780,note_on,,1,0,6,,,,,,,,,,,,,,,,6,,72,64
18839,note_on,,0,0,9,,,,,,,,,,,,,,,,15,,57,0
18839,note_on,,0,0,9,,,,,,,,,,,,,,,,15,,64,0
18839,note_on,,0,0,9,,,,,,,,,,,,,,,,15,,69,0
18839,note_on,,119,0,8,,,,,,,,,,,,,,,,13,,48,0
18839,note_on,,119,0,9,,,,,,,,,,,,,,,,15,,48,0
18839,note_on,,59,0,6,,,,,,,,,,,,,,,,6,,72,0
18840,note_on,,0,0,9,,,,,,,,,,,,,,,,15,,62,48
18840,note_on,,0,0,9,,,,,,,,,,,,,,,,15,,65,48
18840,note_on,,1,0,9,,,,,,,,,,,,,,,,15,,50,48
18840,note_on,,1,0,8,,,,,,,,,,,,,,,,13,,50,48
18840,note_on,,1,0,6,,,,,,,,,,,,,,,,6,,70,64
18840,note_on,,0,0,9,,,,,,,,,,,,,,,,15,,58,48
18959,note_on,,0,0,9,,,,,,,,,,,,,,,,15,,62,0
18959,note_on,,119,0,8,,,,,,,,,,,,,,,,13,,50,0
18959,note_on,,119,0,9,,,,,,,,,,,,,,,,15,,50,0
18959,note_on,,0,0,9,,,,,,,,,,,,,,,,15,,65,0
18959,note_on,,0,0,9,,,,,,,,,,,,,,,,15,,58,0
18960,note_on,,1,0,9,,,,,,,,,,,,,,,,15,,52,48
18960,note_on,,1,0,8,,,,,,,,,,,,,,,,13,,52,48
18960,note_on,,0,0,9,,,,,,,,,,,,,,,,15,,67,48
18960,note_on,,0,0,9,,,,,,,,,,,,,,,,15,,60,48
18960,note_on,,0,0,9,,,,,,,,,,,,,,,,15,,55,48
19019,note_on,,179,0,6,,,,,,,,,,,,,,,,6,,70,0
19020,note_on,,1,0,6,,,,,,,,,,,,,,,,6,,72,64
19079,note_on,,119,0,9,,,,,,,,,,,,,,,,15,,52,0
19079,note_on,,0,0,9,,,,,,,,,,,,,,,,15,,60,0
19079,note_on,,0,0,9,,,,,,,,,,,,,,,,15,,55,0
19079,note_on,,59,0,6,,,,,,,,,,,,,,,,6,,72,0
19079,note_on,,119,0,8,,,,,,,,,,,,,,,,13,,52,0
19079,note_on,,0,0,9,,,,,,,,,,,,,,,,15,,67,0
19080,note_on,,1,0,6,,,,,,,,,,,,,,,,6,,69,64
19080,note_on,,1,0,8,,,,,,,,,,,,,,,,13,,53,48
19080,note_on,,0,0,9,,,,,,,,,,,,,,,,15,,60,48
19080,note_on,,0,0,9,,,,,,,,,,,,,,,,15,,57,48
19080,note_on,,1,0,9,,,,,,,,,,,,,,,,15,,53,48
19139,note_on,,59,0,9,,,,,,,,,,,,,,,,15,,60,0
19140,note_on,,1,0,9,,,,,,,,,,,,,,,,15,,62,48
19199,note_on,,119,0,8,,,,,,,,,,,,,,,,13,,53,0
19199,note_on,,0,0,9,,,,,,,,,,,,,,,,15,,62,0
19199,note_on,,59,0,9,,,,,,,,,,,,,,,,15,,53,0
19199,note_on,,119,0,6,,,,,,,,,,,,,,,,6,,69,0
19199,note_on,,0,0,9,,,,,,,,,,,,,,,,15,,57,0
19200,note_on,,1,0,6,,,,,,,,,,,,,,,,6,,68,64
19200,note_on,,1,0,8,,,,,,,,,,,,,,,,13,,52,48
19200,note_on,,0,0,9,,,,,,,,,,,,,,,,15,,59,48
19200,note_on,,0,0,9,,,,,,,,,,,,,,,,15,,64,48
19200,note_on,,1,0,9,,,,,,,,,,,,,,,,15,,52,48
19200,note_on,,0,0,9,,,,,,,,,,,,,,,,15,,56,48
19319,note_on,,119,0,9,,,,,,,,,,,,,,,,15,,64,0
19319,note_on,,0,0,9,,,,,,,,,,,,,,,,15,,59,0
19319,note_on,,119,0,6,,,,,,,,,,,,,,,,6,,68,0
19320,note_on,,1,0,6,,,,,,,,,,,,,,,,6,,64,64
19320,note_on,,0,0,9,,,,,,,,,,,,,,,,15,,64,48
19320,note_on,,1,0,9,,,,,,,,,,,,,,,,15,,71,48
19320,note_on,,0,0,9,,,,,,,,,,,,,,,,15,,68,48
19379,note_on,,59,0,9,,,,,,,,,,,,,,,,15,,52,0
19379,note_on,,179,0,8,,,,,,,,,,,,,,,,13,,52,0
19380,note_on,,1,0,9,,,,,,,,,,,,,,,,15,,50,48
19380,note_on,,1,0,8,,,,,,,,,,,,,,,,13,,50,48
19439,note_on,,59,0,9,,,,,,,,,,,,,,,,15,,56,0
19439,note_on,,0,0,9,,,,,,,,,,,,,,,,15,,68,0
19439,note_on,,0,0,9,,,,,,,,,,,,,,,,15,,64,0
19439,note_on,,0,0,9,,,,,,,,,,,,,,,,15,,50,0
19439,note_on,,0,0,9,,,,,,,,,,,,,,,,15,,71,0
19439,note_on,,119,0,6,,,,,,,,,,,,,,,,6,,64,0
19439,note_on,,59,0,8,,,,,,,,,,,,,,,,13,,50,0
19440,note_on,,0,0,9,,,,,,,,,,,,,,,,15,,60,48
19440,note_on,,1,0,9,,,,,,,,,,,,,,,,15,,48,48
19440,note_on,,0,0,9,,,,,,,,,,,,,,,,15,,69,48
19440,note_on,,1,0,6,,,,,,,,,,,,,,,,6,,69,64
19440,note_on,,1,0,8,,,,,,,,,,,,,,,,13,,48,48
19440,note_on,,0,0,9,,,,,,,,,,,,,,,,15,,76,48
19440,note_on,,0,0,9,,,,,,,,,,,,,,,,15,,64,48
19559,note_on,,119,0,9,,,,,,,,,,,,,,,,15,,48,0
19559,note_on,,0,0,9,,,,,,,,,,,,,,,,15,,60,0
19559,note_on,,0,0,9,,,,,,,,,,,,,,,,15,,76,0
19559,note_on,,119,0,8,,,,,,,,,,,,,,,,13,,48,0
19559,note_on,,0,0,9,,,,,,,,,,,,,,,,15,,69,0
19559,note_on,,0,0,9,,,,,,,,,,,,,,,,15,,64,0
19560,note_on,,1,0,8,,,,,,,,,,,,,,,,13,,50,48
19560,note_on,,0,0,9,,,,,,,,,,,,,,,,15,,59,48
19560,note_on,,1,0,9,,,,,,,,,,,,,,,,15,,50,48
19560,note_on,,0,0,9,,,,,,,,,,,,,,,,15,,77,48
19560,note_on,,0,0,9,,,,,,,,,,,,,,,,15,,74,48
19560,note_on,,0,0,9,,,,,,,,,,,,,,,,15,,69,48
19619,note_on,,179,0,6,,,,,,,,,,,,,,,,6,,69,0
19620,note_on,,1,0,6,,,,,,,,,,,,,,,,6,,71,64
19679,note_on,,59,0,6,,,,,,,,,,,,,,,,6,,71,0
19679,note_on,,119,0,8,,,,,,,,,,,,,,,,13,,50,0
19679,note_on,,119,0,9,,,,,,,,,,,,,,,,15,,50,0
19679,note_on,,0,0,9,,,,,,,,,,,,,,,,15,,69,0
19679,note_on,,0,0,9,,,,,,,,,,,,,,,,15,,77,0
19679,note_on,,0,0,9,,,,,,,,,,,,,,,,15,,74,0
19680,note_on,,0,0,9,,,,,,,,,,,,,,,,15,,68,48
19680,note_on,,0,0,9,,,,,,,,,,,,,,,,15,,71,48
19680,note_on,,0,0,9,,,,,,,,,,,,,,,,15,,64,48
19680,note_on,,1,0,9,,,,,,,,,,,,,,,,15,,52,48
19680,note_on,,1,0,8,,,,,,,,,,,,,,,,13,,52,48
19680,note_on,,1,0,6,,,,,,,,,,,,,,,,6,,69,64
19709,note_on,,29,0,6,,,,,,,,,,,,,,,,6,,69,0
19710,note_on,,1,0,6,,,,,,,,,,,,,,,,6,,68,64
19724,note_on,,14,0,6,,,,,,,,,,,,,,,,6,,68,0
19725,note_on,,1,0,6,,,,,,,,,,,,,,,,6,,69,64
19739,note_on,,14,0,6,,,,,,,,,,,,,,,,6,,69,0
19740,note_on,,1,0,6,,,,,,,,,,,,,,,,6,,68,64
19754,note_on,,14,0,6,,,,,,,,,,,,,,,,6,,68,0
19755,note_on,,1,0,6,,,,,,,,,,,,,,,,6,,69,64
19769,note_on,,14,0,6,,,,,,,,,,,,,,,,6,,69,0
19770,note_on,,1,0,6,,,,,,,,,,,,,,,,6,,68,64
19784,note_on,,14,0,6,,,,,,,,,,,,,,,,6,,68,0
19785,note_on,,1,0,6,,,,,,,,,,,,,,,,6,,69,64
19799,note_on,,14,0,6,,,,,,,,,,,,,,,,6,,69,0
19799,note_on,,0,0,9,,,,,,,,,,,,,,,,15,,64,0
19799,note_on,,0,0,9,,,,,,,,,,,,,,,,15,,68,0
19799,note_on,,0,0,9,,,,,,,,,,,,,,,,15,,52,0
19799,note_on,,119,0,9,,,,,,,,,,,,,,,,15,,59,0
19799,note_on,,0,0,9,,,,,,,,,,,,,,,,15,,71,0
19799,note_on,,119,0,8,,,,,,,,,,,,,,,,13,,52,0
19800,note_on,,1,0,9,,,,,,,,,,,,,,,,15,,40,48
19800,note_on,,0,0,9,,,,,,,,,,,,,,,,15,,52,48
19800,note_on,,0,0,9,,,,,,,,,,,,,,,,15,,68,48
19800,note_on,,0,0,9,,,,,,,,,,,,,,,,15,,71,48
19800,note_on,,0,0,9,,,,,,,,,,,,,,,,15,,76,48
19800,note_on,,1,0,6,,,,,,,,,,,,,,,,6,,68,64
19800,note_on,,1,0,8,,,,,,,,,,,,,,,,13,,40,48
19814,note_on,,14,0,6,,,,,,,,,,,,,,,,6,,68,0
19815,note_on,,1,0,6,,,,,,,,,,,,,,,,6,,69,64
19829,note_on,,14,0,6,,,,,,,,,,,,,,,,6,,69,0
19830,note_on,,1,0,6,,,,,,,,,,,,,,,,6,,68,64
19844,note_on,,14,0,6,,,,,,,,,,,,,,,,6,,68,0
19845,note_on,,1,0,6,,,,,,,,,,,,,,,,6,,69,64
19859,note_on,,14,0,6,,,,,,,,,,,,,,,,6,,69,0
19860,note_on,,1,0,6,,,,,,,,,,,,,,,,6,,69,64
19919,note_on,,59,0,6,,,,,,,,,,,,,,,,6,,69,0
19919,note_on,,0,0,9,,,,,,,,,,,,,,,,15,,52,0
19919,note_on,,119,0,8,,,,,,,,,,,,,,,,13,,40,0
19919,note_on,,119,0,9,,,,,,,,,,,,,,,,15,,40,0
19919,note_on,,0,0,9,,,,,,,,,,,,,,,,15,,76,0
19919,note_on,,0,0,9,,,,,,,,,,,,,,,,15,,71,0
19919,note_on,,0,0,9,,,,,,,,,,,,,,,,15,,68,0
19920,note_on,,0,0,9,,,,,,,,,,,,,,,,15,,64,48
19920,note_on,,0,0,9,,,,,,,,,,,,,,,,15,,52,48
19920,note_on,,0,0,9,,,,,,,,,,,,,,,,15,,69,48
19920,note_on,,0,0,9,,,,,,,,,,,,,,,,15,,72,48
19920,note_on,,1,0,6,,,,,,,,,,,,,,,,6,,69,64
19920,note_on,,1,0,8,,,,,,,,,,,,,,,,13,,45,48
19920,note_on,,1,0,9,,,,,,,,,,,,,,,,15,,45,48
20039,note_on,,119,0,6,,,,,,,,,,,,,,,,6,,69,0
20039,note_on,,119,0,9,,,,,,,,,,,,,,,,15,,45,0
20039,note_on,,0,0,9,,,,,,,,,,,,,,,,15,,52,0
20039,note_on,,119,0,8,,,,,,,,,,,,,,,,13,,45,0
20040,note_on,,0,0,9,,,,,,,,,,,,,,,,15,,60,48
20040,note_on,,1,0,8,,,,,,,,,,,,,,,,13,,57,48
20040,note_on,,1,0,9,,,,,,,,,,,,,,,,15,,57,48
20040,note_on,,1,0,6,,,,,,,,,,,,,,,,6,,69,64
20159,note_on,,0,0,9,,,,,,,,,,,,,,,,15,,60,0
20159,note_on,,0,0,9,,,,,,,,,,,,,,,,15,,64,0
20159,note_on,,0,0,9,,,,,,,,,,,,,,,,15,,69,0
20159,note_on,,119,0,9,,,,,,,,,,,,,,,,15,,72,0
20159,note_on,,0,0,9,,,,,,,,,,,,,,,,15,,57,0
20159,note_on,,119,0,8,,,,,,,,,,,,,,,,13,,57,0
20159,note_on,,119,0,6,,,,,,,,,,,,,,,,6,,69,0
20160,note_on,,1,0,8,,,,,,,,,,,,,,,,13,,56,48
20160,note_on,,1,0,9,,,,,,,,,,,,,,,,15,,56,48
20160,note_on,,0,0,9,,,,,,,,,,,,,,,,15,,58,48
20220,note_on,,5221,0,7,,,,,,,,,,,,,,,,10,,64,72
20279,note_on,,59,0,7,,,,,,,,,,,,,,,,10,,64,0
20279,note_on,,119,0,8,,,,,,,,,,,,,,,,13,,56,0
20279,note_on,,119,0,9,,,,,,,,,,,,,,,,15,,56,0
20279,note_on,,0,0,9,,,,,,,,,,,,,,,,15,,58,0
20280,note_on,,1,0,7,,,,,,,,,,,,,,,,10,,69,72
20280,note_on,,0,0,9,,,,,,,,,,,,,,,,15,,60,72
20280,note_on,,1,0,8,,,,,,,,,,,,,,,,13,,57,72
20280,note_on,,1,0,9,,,,,,,,,,,,,,,,15,,57,72
20399,note_on,,0,0,9,,,,,,,,,,,,,,,,15,,60,0
20399,note_on,,119,0,9,,,,,,,,,,,,,,,,15,,57,0
20399,note_on,,119,0,8,,,,,,,,,,,,,,,,13,,57,0
20400,note_on,,5401,0,5,,,,,,,,,,,,,,,,2,,48,72
20400,note_on,,0,0,9,,,,,,,,,,,,,,,,15,,57,72
20400,note_on,,0,0,9,,,,,,,,,,,,,,,,15,,64,72
20400,note_on,,0,0,9,,,,,,,,,,,,,,,,15,,69,72
20400,note_on,,1,0,9,,,,,,,,,,,,,,,,15,,48,72
20400,note_on,,1,0,8,,,,,,,,,,,,,,,,13,,48,72
20459,note_on,,179,0,7,,,,,,,,,,,,,,,,10,,69,0
20460,note_on,,1,0,7,,,,,,,,,,,,,,,,10,,72,72
20519,note_on,,0,0,9,,,,,,,,,,,,,,,,15,,64,0
20519,note_on,,119,0,8,,,,,,,,,,,,,,,,13,,48,0
20519,note_on,,0,0,9,,,,,,,,,,,,,,,,15,,57,0
20519,note_on,,59,0,7,,,,,,,,,,,,,,,,10,,72,0
20519,note_on,,0,0,9,,,,,,,,,,,,,,,,15,,69,0
20519,note_on,,119,0,5,,,,,,,,,,,,,,,,2,,48,0
20519,note_on,,119,0,9,,,,,,,,,,,,,,,,15,,48,0
20520,note_on,,1,0,9,,,,,,,,,,,,,,,,15,,53,72
20520,note_on,,0,0,9,,,,,,,,,,,,,,,,15,,62,72
20520,note_on,,0,0,9,,,,,,,,,,,,,,,,15,,57,72
20520,note_on,,1,0,5,,,,,,,,,,,,,,,,2,,53,72
20520,note_on,,1,0,7,,,,,,,,,,,,,,,,10,,71,72
20520,note_on,,1,0,8,,,,,,,,,,,,,,,,13,,53,72
20579,note_on,,59,0,7,,,,,,,,,,,,,,,,10,,71,0
20580,note_on,,1,0,7,,,,,,,,,,,,,,,,10,,69,72
20639,note_on,,119,0,5,,,,,,,,,,,,,,,,2,,53,0
20639,note_on,,119,0,8,,,,,,,,,,,,,,,,13,,53,0
20639,note_on,,0,0,9,,,,,,,,,,,,,,,,15,,62,0
20639,note_on,,0,0,9,,,,,,,,,,,,,,,,15,,57,0
20639,note_on,,59,0,7,,,,,,,,,,,,,,,,10,,69,0
20639,note_on,,119,0,9,,,,,,,,,,,,,,,,15,,53,0
20640,note_on,,1,0,9,,,,,,,,,,,,,,,,15,,52,72
20640,note_on,,0,0,9,,,,,,,,,,,,,,,,15,,64,72
20640,note_on,,0,0,9,,,,,,,,,,,,,,,,15,,59,72
20640,note_on,,0,0,9,,,,,,,,,,,,,,,,15,,56,72
20640,note_on,,1,0,7,,,,,,,,,,,,,,,,10,,68,72
20640,note_on,,1,0,5,,,,,,,,,,,,,,,,2,,52,72
20640,note_on,,1,0,8,,,,,,,,,,,,,,,,13,,52,72
20699,note_on,,59,0,7,,,,,,,,,,,,,,,,10,,68,0
20700,note_on,,1,0,7,,,,,,,,,,,,,,,,10,,77,72
20759,note_on,,59,0,7,,,,,,,,,,,,,,,,10,,77,0
20760,note_on,,1,0,7,,,,,,,,,,,,,,,,10,,76,72
20819,note_on,,179,0,5,,,,,,,,,,,,,,,,2,,52,0
20819,note_on,,179,0,8,,,,,,,,,,,,,,,,13,,52,0
20819,note_on,,179,0,9,,,,,,,,,,,,,,,,15,,52,0
20820,note_on,,1,0,8,,,,,,,,,,,,,,,,13,,50,72
20820,note_on,,1,0,5,,,,,,,,,,,,,,,,2,,50,72
20820,note_on,,1,0,9,,,,,,,,,,,,,,,,15,,50,72
20879,note_on,,0,0,9,,,,,,,,,,,,,,,,15,,50,0
20879,note_on,,0,0,9,,,,,,,,,,,,,,,,15,,59,0
20879,note_on,,59,0,5,,,,,,,,,,,,,,,,2,,50,0
20879,note_on,,0,0,9,,,,,,,,,,,,,,,,15,,56,0
20879,note_on,,59,0,9,,,,,,,,,,,,,,,,15,,64,0
20879,note_on,,59,0,8,,,,,,,,,,,,,,,,13,,50,0
20880,note_on,,1,0,5,,,,,,,,,,,,,,,,2,,49,72
20880,note_on,,0,0,9,,,,,,,,,,,,,,,,15,,69,72
20880,note_on,,1,0,8,,,,,,,,,,,,,,,,13,,49,72
20880,note_on,,1,0,9,,,,,,,,,,,,,,,,15,,49,72
20880,note_on,,0,0,9,,,,,,,,,,,,,,,,15,,64,72
20880,note_on,,0,0,9,,,,,,,,,,,,,,,,15,,57,72
20939,note_on,,179,0,7,,,,,,,,,,,,,,,,10,,76,0
20940,note_on,,1,0,7,,,,,,,,,,,,,,,,10,,79,72
20999,note_on,,119,0,5,,,,,,,,,,,,,,,,2,,49,0
20999,note_on,,59,0,7,,,,,,,,,,,,,,,,10,,79,0
20999,note_on,,119,0,8,,,,,,,,,,,,,,,,13,,49,0
20999,note_on,,119,0,9,,,,,,,,,,,,,,,,15,,49,0
20999,note_on,,0,0,9,,,,,,,,,,,,,,,,15,,57,0
20999,note_on,,0,0,9,,,,,,,,,,,,,,,,15,,64,0
21000,note_on,,1,0,5,,,,,,,,,,,,,,,,2,,50,72
21000,note_on,,0,0,9,,,,,,,,,,,,,,,,15,,62,72
21000,note_on,,1,0,9,,,,,,,,,,,,,,,,15,,50,72
21000,note_on,,1,0,7,,,,,,,,,,,,,,,,10,,77,72
21000,note_on,,1,0,8,,,,,,,,,,,,,,,,13,,50,72
21000,note_on,,0,0,9,,,,,,,,,,,,,,,,15,,65,72
21000,note_on,,0,0,9,,,,,,,,,,,,,,,,15,,57,72
21059,note_on,,59,0,7,,,,,,,,,,,,,,,,10,,77,0
21060,note_on,,1,0,7,,,,,,,,,,,,,,,,10,,76,72
21119,note_on,,119,0,5,,,,,,,,,,,,,,,,2,,50,0
21119,note_on,,59,0,7,,,,,,,,,,,,,,,,10,,76,0
21119,note_on,,119,0,9,,,,,,,,,,,,,,,,15,,50,0
21119,note_on,,0,0,9,,,,,,,,,,,,,,,,15,,65,0
21119,note_on,,0,0,9,,,,,,,,,,,,,,,,15,,62,0
21119,note_on,,0,0,9,,,,,,,,,,,,,,,,15,,57,0
21119,note_on,,119,0,8,,,,,,,,,,,,,,,,13,,50,0
21120,note_on,,0,0,9,,,,,,,,,,,,,,,,15,,57,72
21120,note_on,,0,0,9,,,,,,,,,,,,,,,,15,,62,72
21120,note_on,,1,0,7,,,,,,,,,,,,,,,,10,,74,72
21120,note_on,,1,0,9,,,,,,,,,,,,,,,,15,,53,72
21120,note_on,,1,0,8,,,,,,,,,,,,,,,,13,,53,72
21120,note_on,,1,0,5,,,,,,,,,,,,,,,,2,,53,72
21179,note_on,,59,0,7,,,,,,,,,,,,,,,,10,,74,0
21180,note_on,,1,0,7,,,,,,,,,,,,,,,,10,,72,72
21239,note_on,,59,0,7,,,,,,,,,,,,,,,,10,,72,0
21239,note_on,,119,0,8,,,,,,,,,,,,,,,,13,,53,0
21239,note_on,,119,0,5,,,,,,,,,,,,,,,,2,,53,0
21239,note_on,,119,0,9,,,,,,,,,,,,,,,,15,,69,0
21239,note_on,,0,0,9,,,,,,,,,,,,,,,,15,,53,0
21239,note_on,,0,0,9,,,,,,,,,,,,,,,,15,,62,0
21239,note_on,,0,0,9,,,,,,,,,,,,,,,,15,,57,0
21240,note_on,,0,0,9,,,,,,,,,,,,,,,,15,,67,72
21240,note_on,,0,0,9,,,,,,,,,,,,,,,,15,,59,72
21240,note_on,,1,0,8,,,,,,,,,,,,,,,,13,,55,72
21240,note_on,,1,0,5,,,,,,,,,,,,,,,,2,,55,72
21240,note_on,,0,0,9,,,,,,,,,,,,,,,,15,,62,72
21240,note_on,,1,0,9,,,,,,,,,,,,,,,,15,,55,72
21240,note_on,,1,0,7,,,,,,,,,,,,,,,,10,,71,72
21299,note_on,,59,0,7,,,,,,,,,,,,,,,,10,,71,0
21300,note_on,,1,0,7,,,,,,,,,,,,,,,,10,,77,72
21359,note_on,,119,0,9,,,,,,,,,,,,,,,,15,,55,0
21359,note_on,,0,0,9,,,,,,,,,,,,,,,,15,,67,0
21359,note_on,,59,0,7,,,,,,,,,,,,,,,,10,,77,0
21359,note_on,,0,0,9,,,,,,,,,,,,,,,,15,,59,0
21359,note_on,,119,0,5,,,,,,,,,,,,,,,,2,,55,0
21359,note_on,,119,0,8,,,,,,,,,,,,,,,,13,,55,0
21359,note_on,,0,0,9,,,,,,,,,,,,,,,,15,,62,0
21360,note_on,,1,0,5,,,,,,,,,,,,,,,,2,,48,72
21360,note_on,,0,0,9,,,,,,,,,,,,,,,,15,,60,72
21360,note_on,,0,0,9,,,,,,,,,,,,,,,,15,,64,72
21360,note_on,,1,0,9,,,,,,,,,,,,,,,,15,,48,72
21360,note_on,,1,0,7,,,,,,,,,,,,,,,,10,,76,72
21360,note_on,,0,0,9,,,,,,,,,,,,,,,,15,,67,72
21360,note_on,,1,0,8,,,,,,,,,,,,,,,,13,,48,72
21419,note_on,,59,0,7,,,,,,,,,,,,,,,,10,,76,0
21420,note_on,,1,0,7,,,,,,,,,,,,,,,,10,,86,72
21479,note_on,,59,0,7,,,,,,,,,,,,,,,,10,,86,0
21480,note_on,,1,0,7,,,,,,,,,,,,,,,,10,,84,48
21539,note_on,,0,0,9,,,,,,,,,,,,,,,,15,,60,0
21539,note_on,,0,0,9,,,,,,,,,,,,,,,,15,,64,0
21539,note_on,,59,0,7,,,,,,,,,,,,,,,,10,,84,0
21539,note_on,,179,0,9,,,,,,,,,,,,,,,,15,,67,0
21540,note_on,,1,0,9,,,,,,,,,,,,,,,,15,,65,48
21540,note_on,,0,0,9,,,,,,,,,,,,,,,,15,,62,48
21540,note_on,,1,0,7,,,,,,,,,,,,,,,,10,,83,48
21599,note_on,,239,0,5,,,,,,,,,,,,,,,,2,,48,0
21599,note_on,,0,0,9,,,,,,,,,,,,,,,,15,,62,0
21599,note_on,,0,0,9,,,,,,,,,,,,,,,,15,,65,0
21599,note_on,,59,0,9,,,,,,,,,,,,,,,,15,,48,0
21599,note_on,,59,0,7,,,,,,,,,,,,,,,,10,,83,0
21599,note_on,,239,0,8,,,,,,,,,,,,,,,,13,,48,0
21600,note_on,,1,0,7,,,,,,,,,,,,,,,,10,,81,48
21600,note_on,,0,0,9,,,,,,,,,,,,,,,,15,,64,48
21600,note_on,,1,0,9,,,,,,,,,,,,,,,,15,,52,48
21600,note_on,,0,0,9,,,,,,,,,,,,,,,,15,,60,48
21600,note_on,,1441,0,6,,,,,,,,,,,,,,,,6,,64,64
21600,note_on,,1,0,8,,,,,,,,,,,,,,,,13,,52,48
21659,note_on,,59,0,7,,,,,,,,,,,,,,,,10,,81,0
21659,note_on,,59,0,9,,,,,,,,,,,,,,,,15,,60,0
21660,note_on,,1,0,7,,,,,,,,,,,,,,,,10,,80,48
21660,note_on,,1,0,9,,,,,,,,,,,,,,,,15,,59,48
21719,note_on,,59,0,7,,,,,,,,,,,,,,,,10,,80,0
21719,note_on,,119,0,6,,,,,,,,,,,,,,,,6,,64,0
21719,note_on,,119,0,8,,,,,,,,,,,,,,,,13,,52,0
21719,note_on,,0,0,9,,,,,,,,,,,,,,,,15,,59,0
21719,note_on,,59,0,9,,,,,,,,,,,,,,,,15,,52,0
21720,note_on,,1,0,6,,,,,,,,,,,,,,,,6,,57,64
21720,note_on,,1,0,7,,,,,,,,,,,,,,,,10,,81,48
21720,note_on,,0,0,9,,,,,,,,,,,,,,,,15,,52,48
21720,note_on,,1,0,8,,,,,,,,,,,,,,,,13,,48,48
21720,note_on,,1,0,9,,,,,,,,,,,,,,,,15,,48,48
21720,note_on,,0,0,9,,,,,,,,,,,,,,,,15,,57,48
21779,note_on,,59,0,9,,,,,,,,,,,,,,,,15,,64,0
21780,note_on,,1,0,9,,,,,,,,,,,,,,,,15,,64,48
21809,note_on,,89,0,6,,,,,,,,,,,,,,,,6,,57,0
21809,note_on,,89,0,7,,,,,,,,,,,,,,,,10,,81,0
21810,note_on,,1,0,7,,,,,,,,,,,,,,,,10,,80,48
21810,note_on,,1,0,6,,,,,,,,,,,,,,,,6,,59,64
21839,note_on,,29,0,6,,,,,,,,,,,,,,,,6,,59,0
21839,note_on,,119,0,8,,,,,,,,,,,,,,,,13,,48,0
21839,note_on,,29,0,7,,,,,,,,,,,,,,,,10,,80,0
21839,note_on,,59,0,9,,,,,,,,,,,,,,,,15,,48,0
21839,note_on,,0,0,9,,,,,,,,,,,,,,,,15,,57,0
21839,note_on,,0,0,9,,,,,,,,,,,,,,,,15,,64,0
21840,note_on,,1,0,8,,,,,,,,,,,,,,,,13,,45,48
21840,note_on,,1,0,6,,,,,,,,,,,,,,,,6,,60,64
21840,note_on,,0,0,9,,,,,,,,,,,,,,,,15,,64,48
21840,note_on,,0,0,9,,,,,,,,,,,,,,,,15,,69,48
21840,note_on,,0,0,9,,,,,,,,,,,,,,,,15,,60,48
21840,note_on,,1,0,7,,,,,,,,,,,,,,,,10,,81,48
21840,note_on,,1,0,9,,,,,,,,,,,,,,,,15,,45,48
21899,note_on,,59,0,7,,,,,,,,,,,,,,,,10,,81,0
21900,note_on,,1,0,7,,,,,,,,,,,,,,,,10,,84,48
21959,note_on,,119,0,6,,,,,,,,,,,,,,,,6,,60,0
21959,note_on,,119,0,9,,,,,,,,,,,,,,,,15,,52,0
21959,note_on,,0,0,9,,,,,,,,,,,,,,,,15,,45,0
21959,note_on,,0,0,9,,,,,,,,,,,,,,,,15,,69,0
21959,note_on,,0,0,9,,,,,,,,,,,,,,,,15,,64,0
21959,note_on,,0,0,9,,,,,,,,,,,,,,,,15,,60,0
21959,note_on,,119,0,8,,,,,,,,,,,,,,,,13,,45,0
21959,note_on,,59,0,7,,,,,,,,,,,,,,,,10,,84,0
21960,note_on,,1,0,8,,,,,,,,,,,,,,,,13,,53,48
21960,note_on,,1,0,9,,,,,,,,,,,,,,,,15,,53,48
21960,note_on,,0,0,9,,,,,,,,,,,,,,,,15,,57,48
21960,note_on,,0,0,9,,,,,,,,,,,,,,,,15,,62,48
21960,note_on,,1,0,7,,,,,,,,,,,,,,,,10,,83,48
21960,note_on,,1,0,6,,,,,,,,,,,,,,,,6,,62,64
22019,note_on,,59,0,7,,,,,,,,,,,,,,,,10,,83,0
22020,note_on,,1,0,7,,,,,,,,,,,,,,,,10,,81,48
22079,note_on,,119,0,6,,,,,,,,,,,,,,,,6,,62,0
22079,note_on,,0,0,9,,,,,,,,,,,,,,,,15,,57,0
22079,note_on,,0,0,9,,,,,,,,,,,,,,,,15,,62,0
22079,note_on,,59,0,7,,,,,,,,,,,,,,,,10,,81,0
22079,note_on,,119,0,8,,,,,,,,,,,,,,,,13,,53,0
22079,note_on,,119,0,9,,,,,,,,,,,,,,,,15,,53,0
22080,note_on,,1,0,6,,,,,,,,,,,,,,,,6,,64,64
22080,note_on,,0,0,9,,,,,,,,,,,,,,,,15,,56,48
22080,note_on,,0,0,9,,,,,,,,,,,,,,,,15,,59,48
22080,note_on,,0,0,9,,,,,,,,,,,,,,,,15,,64,48
22080,note_on,,1,0,9,,,,,,,,,,,,,,,,15,,52,48
22080,note_on,,1,0,7,,,,,,,,,,,,,,,,10,,80,48
22080,note_on,,1,0,8,,,,,,,,,,,,,,,,13,,52,48
22169,note_on,,89,0,7,,,,,,,,,,,,,,,,10,,80,0
22170,note_on,,1,0,7,,,,,,,,,,,,,,,,10,,70,48
22199,note_on,,29,0,7,,,,,,,,,,,,,,,,10,,70,0
22200,note_on,,1,0,7,,,,,,,,,,,,,,,,10,,64,48
22259,note_on,,179,0,9,,,,,,,,,,,,,,,,15,,64,0
22260,note_on,,1,0,9,,,,,,,,,,,,,,,,15,,65,48
22319,note_on,,0,0,9,,,,,,,,,,,,,,,,15,,56,0
22319,note_on,,0,0,9,,,,,,,,,,,,,,,,15,,65,0
22319,note_on,,0,0,9,,,,,,,,,,,,,,,,15,,59,0
22319,note_on,,239,0,8,,,,,,,,,,,,,,,,13,,52,0
22319,note_on,,59,0,9,,,,,,,,,,,,,,,,15,,52,0
22319,note_on,,119,0,7,,,,,,,,,,,,,,,,10,,64,0
22319,note_on,,239,0,6,,,,,,,,,,,,,,,,6,,64,0
22320,note_on,,1,0,9,,,,,,,,,,,,,,,,15,,48,48
22320,note_on,,0,0,9,,,,,,,,,,,,,,,,15,,60,48
22320,note_on,,0,0,9,,,,,,,,,,,,,,,,15,,64,48
22320,note_on,,1,0,6,,,,,,,,,,,,,,,,6,,64,64
22320,note_on,,0,0,9,,,,,,,,,,,,,,,,15,,57,48
22320,note_on,,1,0,8,,,,,,,,,,,,,,,,13,,48,48
22379,note_on,,0,0,9,,,,,,,,,,,,,,,,15,,60,0
22379,note_on,,59,0,9,,,,,,,,,,,,,,,,15,,64,0
22380,note_on,,0,0,9,,,,,,,,,,,,,,,,15,,59,48
22380,note_on,,1,0,9,,,,,,,,,,,,,,,,15,,62,48
22439,note_on,,0,0,9,,,,,,,,,,,,,,,,15,,59,0
22439,note_on,,119,0,6,,,,,,,,,,,,,,,,6,,64,0
22439,note_on,,0,0,9,,,,,,,,,,,,,,,,15,,62,0
22439,note_on,,0,0,9,,,,,,,,,,,,,,,,15,,57,0
22439,note_on,,59,0,9,,,,,,,,,,,,,,,,15,,48,0
22439,note_on,,119,0,8,,,,,,,,,,,,,,,,13,,48,0
22440,note_on,,1,0,8,,,,,,,,,,,,,,,,13,,53,48
22440,note_on,,1,0,6,,,,,,,,,,,,,,,,6,,69,64
22440,note_on,,1,0,9,,,,,,,,,,,,,,,,15,,53,48
22440,note_on,,0,0,9,,,,,,,,,,,,,,,,15,,57,48
22440,note_on,,0,0,9,,,,,,,,,,,,,,,,15,,60,48
22559,note_on,,119,0,9,,,,,,,,,,,,,,,,15,,57,0
22560,note_on,,1,0,9,,,,,,,,,,,,,,,,15,,59,48
22619,note_on,,179,0,6,,,,,,,,,,,,,,,,6,,69,0
22620,note_on,,1,0,6,,,,,,,,,,,,,,,,6,,71,64
22679,note_on,,0,0,9,,,,,,,,,,,,,,,,15,,59,0
22679,note_on,,59,0,6,,,,,,,,,,,,,,,,6,,71,0
22679,note_on,,239,0,8,,,,,,,,,,,,,,,,13,,53,0
22679,note_on,,119,0,9,,,,,,,,,,,,,,,,15,,53,0
22680,note_on,,1,0,6,,,,,,,,,,,,,,,,6,,72,64
22680,note_on,,0,0,9,,,,,,,,,,,,,,,,15,,69,48
22680,note_on,,0,0,9,,,,,,,,,,,,,,,,15,,57,48
22680,note_on,,1,0,9,,,,,,,,,,,,,,,,15,,53,48
22680,note_on,,1,0,8,,,,,,,,,,,,,,,,13,,53,48
22739,note_on,,59,0,6,,,,,,,,,,,,,,,,6,,72,0
22740,note_on,,1,0,6,,,,,,,,,,,,,,,,6,,74,64
22799,note_on,,119,0,8,,,,,,,,,,,,,,,,13,,53,0
22799,note_on,,59,0,6,,,,,,,,,,,,,,,,6,,74,0
22799,note_on,,119,0,9,,,,,,,,,,,,,,,,15,,60,0
22799,note_on,,0,0,9,,,,,,,,,,,,,,,,15,,53,0
22799,note_on,,0,0,9,,,,,,,,,,,,,,,,15,,57,0
22799,note_on,,0,0,9,,,,,,,,,,,,,,,,15,,69,0
22800,note_on,,0,0,9,,,,,,,,,,,,,,,,15,,56,48
22800,note_on,,1,0,8,,,,,,,,,,,,,,,,13,,52,48
22800,note_on,,0,0,9,,,,,,,,,,,,,,,,15,,64,48
22800,note_on,,0,0,9,,,,,,,,,,,,,,,,15,,71,48
22800,note_on,,1,0,6,,,,,,,,,,,,,,,,6,,76,64
22800,note_on,,1,0,9,,,,,,,,,,,,,,,,15,,52,48
22919,note_on,,119,0,6,,,,,,,,,,,,,,,,6,,76,0
22920,note_on,,601,0,7,,,,,,,,,,,,,,,,10,,76,48
23039,note_on,,239,0,9,,,,,,,,,,,,,,,,15,,52,0
23039,note_on,,239,0,8,,,,,,,,,,,,,,,,13,,52,0
23040,note_on,,121,0,6,,,,,,,,,,,,,,,,6,,64,64
23040,note_on,,1,0,9,,,,,,,,,,,,,,,,15,,50,48
23040,note_on,,1,0,8,,,,,,,,,,,,,,,,13,,50,48
23099,note_on,,59,0,6,,,,,,,,,,,,,,,,6,,64,0
23100,note_on,,1,0,6,,,,,,,,,,,,,,,,6,,65,64
23159,note_on,,0,0,9,,,,,,,,,,,,,,,,15,,50,0
23159,note_on,,0,0,9,,,,,,,,,,,,,,,,15,,56,0
23159,note_on,,0,0,9,,,,,,,,,,,,,,,,15,,64,0
23159,note_on,,119,0,9,,,,,,,,,,,,,,,,15,,71,0
23159,note_on,,119,0,8,,,,,,,,,,,,,,,,13,,50,0
23159,note_on,,59,0,6,,,,,,,,,,,,,,,,6,,65,0
23160,note_on,,0,0,9,,,,,,,,,,,,,,,,15,,64,48
23160,note_on,,1,0,9,,,,,,,,,,,,,,,,15,,49,48
23160,note_on,,1,0,8,,,,,,,,,,,,,,,,13,,49,48
23160,note_on,,1,0,6,,,,,,,,,,,,,,,,6,,67,64
23160,note_on,,0,0,9,,,,,,,,,,,,,,,,15,,57,48
23160,note_on,,0,0,9,,,,,,,,,,,,,,,,15,,69,48
23219,note_on,,59,0,6,,,,,,,,,,,,,,,,6,,67,0
23219,note_on,,299,0,7,,,,,,,,,,,,,,,,10,,76,0
23220,note_on,,1,0,6,,,,,,,,,,,,,,,,6,,65,64
23220,note_on,,1,0,7,,,,,,,,,,,,,,,,10,,65,48
23279,note_on,,59,0,6,,,,,,,,,,,,,,,,6,,65,0
23279,note_on,,59,0,7,,,,,,,,,,,,,,,,10,,65,0
23280,note_on,,1,0,7,,,,,,,,,,,,,,,,10,,64,48
23280,note_on,,1,0,6,,,,,,,,,,,,,,,,6,,67,64
23339,note_on,,59,0,7,,,,,,,,,,,,,,,,10,,64,0
23340,note_on,,1,0,7,,,,,,,,,,,,,,,,10,,62,48
23399,note_on,,0,0,9,,,,,,,,,,,,,,,,15,,57,0
23399,note_on,,0,0,9,,,,,,,,,,,,,,,,15,,64,0
23399,note_on,,239,0,9,,,,,,,,,,,,,,,,15,,49,0
23399,note_on,,239,0,8,,,,,,,,,,,,,,,,13,,49,0
23399,note_on,,119,0,6,,,,,,,,,,,,,,,,6,,67,0
23399,note_on,,59,0,7,,,,,,,,,,,,,,,,10,,62,0
23399,note_on,,0,0,9,,,,,,,,,,,,,,,,15,,69,0
23400,note_on,,1,0,6,,,,,,,,,,,,,,,,6,,69,64
23400,note_on,,0,0,9,,,,,,,,,,,,,,,,15,,57,48
23400,note_on,,0,0,9,,,,,,,,,,,,,,,,15,,64,48
23400,note_on,,1,0,9,,,,,,,,,,,,,,,,15,,45,48
23400,note_on,,1,0,7,,,,,,,,,,,,,,,,10,,61,48
23400,note_on,,1,0,8,,,,,,,,,,,,,,,,13,,45,48
23400,note_on,,0,0,9,,,,,,,,,,,,,,,,15,,61,48
23459,note_on,,59,0,7,,,,,,,,,,,,,,,,10,,61,0
23459,note_on,,59,0,6,,,,,,,,,,,,,,,,6,,69,0
23460,note_on,,1,0,7,,,,,,,,,,,,,,,,10,,59,48
23460,note_on,,1,0,6,,,,,,,,,,,,,,,,6,,67,64
23519,note_on,,0,0,9,,,,,,,,,,,,,,,,15,,61,0
23519,note_on,,119,0,8,,,,,,,,,,,,,,,,13,,45,0
23519,note_on,,59,0,7,,,,,,,,,,,,,,,,10,,59,0
23519,note_on,,0,0,9,,,,,,,,,,,,,,,,15,,57,0
23519,note_on,,0,0,9,,,,,,,,,,,,,,,,15,,64,0
23519,note_on,,59,0,6,,,,,,,,,,,,,,,,6,,67,0
23519,note_on,,119,0,9,,,,,,,,,,,,,,,,15,,45,0
23520,note_on,,0,0,9,,,,,,,,,,,,,,,,15,,62,48
23520,note_on,,0,0,9,,,,,,,,,,,,,,,,15,,65,48
23520,note_on,,1,0,9,,,,,,,,,,,,,,,,15,,50,48
23520,note_on,,1,0,6,,,,,,,,,,,,,,,,6,,65,64
23520,note_on,,1,0,7,,,,,,,,,,,,,,,,10,,57,48
23520,note_on,,1,0,8,,,,,,,,,,,,,,,,13,,50,48
23520,note_on,,0,0,9,,,,,,,,,,,,,,,,15,,57,48
23579,note_on,,59,0,6,,,,,,,,,,,,,,,,6,,65,0
23579,note_on,,59,0,7,,,,,,,,,,,,,,,,10,,57,0
23580,note_on,,1,0,6,,,,,,,,,,,,,,,,6,,64,64
23580,note_on,,1,0,7,,,,,,,,,,,,,,,,10,,73,48
23639,note_on,,59,0,6,,,,,,,,,,,,,,,,6,,64,0
23639,note_on,,59,0,7,,,,,,,,,,,,,,,,10,,73,0
23640,note_on,,1,0,6,,,,,,,,,,,,,,,,6,,62,64
23640,note_on,,1,0,7,,,,,,,,,,,,,,,,10,,74,48
23699,note_on,,179,0,9,,,,,,,,,,,,,,,,15,,50,0
23699,note_on,,179,0,8,,,,,,,,,,,,,,,,13,,50,0
23700,note_on,,1,0,8,,,,,,,,,,,,,,,,13,,52,48
23700,note_on,,1,0,9,,,,,,,,,,,,,,,,15,,52,48
23759,note_on,,59,0,8,,,,,,,,,,,,,,,,13,,52,0
23759,note_on,,0,0,9,,,,,,,,,,,,,,,,15,,52,0
23759,note_on,,59,0,9,,,,,,,,,,,,,,,,15,,65,0
23759,note_on,,0,0,9,,,,,,,,,,,,,,,,15,,62,0
23759,note_on,,0,0,9,,,,,,,,,,,,,,,,15,,57,0
23759,note_on,,119,0,6,,,,,,,,,,,,,,,,6,,62,0
23760,note_on,,1,0,8,,,,,,,,,,,,,,,,13,,50,48
23760,note_on,,1,0,9,,,,,,,,,,,,,,,,15,,50,48
23760,note_on,,1,0,6,,,,,,,,,,,,,,,,6,,62,64
23819,note_on,,59,0,9,,,,,,,,,,,,,,,,15,,50,0
23819,note_on,,59,0,8,,,,,,,,,,,,,,,,13,,50,0
23819,note_on,,59,0,6,,,,,,,,,,,,,,,,6,,62,0
23820,note_on,,1,0,6,,,,,,,,,,,,,,,,6,,64,64
23820,note_on,,1,0,8,,,,,,,,,,,,,,,,13,,48,48
23820,note_on,,1,0,9,,,,,,,,,,,,,,,,15,,48,48
23879,note_on,,59,0,9,,,,,,,,,,,,,,,,15,,48,0
23879,note_on,,59,0,6,,,,,,,,,,,,,,,,6,,64,0
23879,note_on,,59,0,8,,,,,,,,,,,,,,,,13,,48,0
23880,note_on,,1,0,9,,,,,,,,,,,,,,,,15,,47,48
23880,note_on,,0,0,9,,,,,,,,,,,,,,,,15,,67,48
23880,note_on,,1,0,6,,,,,,,,,,,,,,,,6,,65,64
23880,note_on,,0,0,9,,,,,,,,,,,,,,,,15,,62,48
23880,note_on,,0,0,9,,,,,,,,,,,,,,,,15,,55,48
23880,note_on,,1,0,8,,,,,,,,,,,,,,,,13,,47,48
23939,note_on,,59,0,6,,,,,,,,,,,,,,,,6,,65,0
23939,note_on,,299,0,7,,,,,,,,,,,,,,,,10,,74,0
23940,note_on,,1,0,6,,,,,,,,,,,,,,,,6,,64,64
23940,note_on,,1,0,7,,,,,,,,,,,,,,,,10,,64,48
23999,note_on,,59,0,7,,,,,,,,,,,,,,,,10,,64,0
23999,note_on,,59,0,6,,,,,,,,,,,,,,,,6,,64,0
24000,note_on,,1,0,6,,,,,,,,,,,,,,,,6,,65,64
24000,note_on,,1,0,7,,,,,,,,,,,,,,,,10,,62,48
24059,note_on,,59,0,7,,,,,,,,,,,,,,,,10,,62,0
24060,note_on,,1,0,7,,,,,,,,,,,,,,,,10,,60,48
24119,note_on,,119,0,6,,,,,,,,,,,,,,,,6,,65,0
24119,note_on,,0,0,9,,,,,,,,,,,,,,,,15,,55,0
24119,note_on,,0,0,9,,,,,,,,,,,,,,,,15,,62,0
24119,note_on,,0,0,9,,,,,,,,,,,,,,,,15,,67,0
24119,note_on,,239,0,9,,,,,,,,,,,,,,,,15,,47,0
24119,note_on,,59,0,7,,,,,,,,,,,,,,,,10,,60,0
24119,note_on,,239,0,8,,,,,,,,,,,,,,,,13,,47,0
24120,note_on,,1,0,9,,,,,,,,,,,,,,,,15,,43,48
24120,note_on,,0,0,9,,,,,,,,,,,,,,,,15,,59,48
24120,note_on,,1,0,7,,,,,,,,,,,,,,,,10,,59,48
24120,note_on,,1,0,6,,,,,,,,,,,,,,,,6,,67,64
24120,note_on,,0,0,9,,,,,,,,,,,,,,,,15,,62,48
24120,note_on,,1,0,8,,,,,,,,,,,,,,,,13,,43,48
24120,note_on,,0,0,9,,,,,,,,,,,,,,,,15,,55,48
24179,note_on,,59,0,7,,,,,,,,,,,,,,,,10,,59,0
24179,note_on,,59,0,6,,,,,,,,,,,,,,,,6,,67,0
24180,note_on,,1,0,7,,,,,,,,,,,,,,,,10,,57,48
24180,note_on,,1,0,6,,,,,,,,,,,,,,,,6,,65,64
24239,note_on,,59,0,7,,,,,,,,,,,,,,,,10,,57,0
24239,note_on,,59,0,6,,,,,,,,,,,,,,,,6,,65,0
24239,note_on,,119,0,8,,,,,,,,,,,,,,,,13,,43,0
24239,note_on,,0,0,9,,,,,,,,,,,,,,,,15,,62,0
24239,note_on,,0,0,9,,,,,,,,,,,,,,,,15,,59,0
24239,note_on,,0,0,9,,,,,,,,,,,,,,,,15,,55,0
24239,note_on,,119,0,9,,,,,,,,,,,,,,,,15,,43,0
24240,note_on,,1,0,9,,,,,,,,,,,,,,,,15,,48,48
24240,note_on,,0,0,9,,,,,,,,,,,,,,,,15,,64,48
24240,note_on,,1,0,6,,,,,,,,,,,,,,,,6,,64,64
24240,note_on,,0,0,9,,,,,,,,,,,,,,,,15,,60,48
24240,note_on,,1,0,7,,,,,,,,,,,,,,,,10,,55,48
24240,note_on,,1,0,8,,,,,,,,,,,,,,,,13,,48,48
24240,note_on,,0,0,9,,,,,,,,,,,,,,,,15,,55,48
24299,note_on,,59,0,6,,,,,,,,,,,,,,,,6,,64,0
24300,note_on,,1,0,6,,,,,,,,,,,,,,,,6,,62,64
24359,note_on,,119,0,7,,,,,,,,,,,,,,,,10,,55,0
24359,note_on,,59,0,6,,,,,,,,,,,,,,,,6,,62,0
24360,note_on,,1,0,6,,,,,,,,,,,,,,,,6,,60,64
24419,note_on,,179,0,8,,,,,,,,,,,,,,,,13,,48,0
24419,note_on,,179,0,9,,,,,,,,,,,,,,,,15,,48,0
24420,note_on,,1,0,8,,,,,,,,,,,,,,,,13,,47,48
24420,note_on,,1,0,9,,,,,,,,,,,,,,,,15,,47,48
24479,note_on,,119,0,6,,,,,,,,,,,,,,,,6,,60,0
24479,note_on,,59,0,9,,,,,,,,,,,,,,,,15,,64,0
24479,note_on,,0,0,9,,,,,,,,,,,,,,,,15,,60,0
24479,note_on,,0,0,9,,,,,,,,,,,,,,,,15,,55,0
24479,note_on,,0,0,9,,,,,,,,,,,,,,,,15,,47,0
24479,note_on,,59,0,8,,,,,,,,,,,,,,,,13,,47,0
24480,note_on,,1,0,9,,,,,,,,,,,,,,,,15,,48,48
24480,note_on,,1,0,8,,,,,,,,,,,,,,,,13,,48,48
24539,note_on,,59,0,9,,,,,,,,,,,,,,,,15,,48,0
24539,note_on,,59,0,8,,,,,,,,,,,,,,,,13,,48,0
24540,note_on,,1,0,8,,,,,,,,,,,,,,,,13,,50,48
24540,note_on,,1,0,9,,,,,,,,,,,,,,,,15,,50,48
24599,note_on,,59,0,9,,,,,,,,,,,,,,,,15,,50,0
24599,note_on,,59,0,8,,,,,,,,,,,,,,,,13,,50,0
24600,note_on,,1,0,9,,,,,,,,,,,,,,,,15,,51,48
24600,note_on,,0,0,9,,,,,,,,,,,,,,,,15,,60,48
24600,note_on,,0,0,9,,,,,,,,,,,,,,,,15,,67,48
24600,note_on,,1,0,8,,,,,,,,,,,,,,,,13,,51,48
24659,note_on,,59,0,9,,,,,,,,,,,,,,,,15,,60,0
24660,note_on,,1,0,9,,,,,,,,,,,,,,,,15,,59,48
24660,note_on,,0,0,9,,,,,,,,,,,,,,,,15,,55,48
24719,note_on,,0,0,9,,,,,,,,,,,,,,,,15,,55,0
24719,note_on,,59,0,9,,,,,,,,,,,,,,,,15,,59,0
24720,note_on,,241,0,6,,,,,,,,,,,,,,,,6,,67,64
24720,note_on,,0,0,9,,,,,,,,,,,,,,,,15,,57,48
24720,note_on,,1,0,9,,,,,,,,,,,,,,,,15,,60,48
24779,note_on,,179,0,8,,,,,,,,,,,,,,,,13,,51,0
24779,note_on,,59,0,9,,,,,,,,,,,,,,,,15,,51,0
24779,note_on,,0,0,9,,,,,,,,,,,,,,,,15,,60,0
24779,note_on,,0,0,9,,,,,,,,,,,,,,,,15,,57,0
24780,note_on,,1,0,9,,,,,,,,,,,,,,,,15,,53,48
24780,note_on,,0,0,9,,,,,,,,,,,,,,,,15,,62,48
24780,note_on,,1,0,8,,,,,,,,,,,,,,,,13,,53,48
24780,note_on,,0,0,9,,,,,,,,,,,,,,,,15,,59,48
24839,note_on,,59,0,9,,,,,,,,,,,,,,,,15,,53,0
24839,note_on,,119,0,6,,,,,,,,,,,,,,,,6,,67,0
24839,note_on,,59,0,8,,,,,,,,,,,,,,,,13,,53,0
24839,note_on,,0,0,9,,,,,,,,,,,,,,,,15,,62,0
24839,note_on,,0,0,9,,,,,,,,,,,,,,,,15,,59,0
24840,note_on,,1,0,6,,,,,,,,,,,,,,,,6,,60,64
24840,note_on,,1,0,8,,,,,,,,,,,,,,,,13,,51,48
24840,note_on,,0,0,9,,,,,,,,,,,,,,,,15,,60,48
24840,note_on,,0,0,9,,,,,,,,,,,,,,,,15,,63,48
24840,note_on,,1,0,9,,,,,,,,,,,,,,,,15,,51,48
24899,note_on,,0,0,9,,,,,,,,,,,,,,,,15,,63,0
24899,note_on,,0,0,9,,,,,,,,,,,,,,,,15,,60,0
24899,note_on,,59,0,9,,,,,,,,,,,,,,,,15,,51,0
24899,note_on,,59,0,8,,,,,,,,,,,,,,,,13,,51,0
24900,note_on,,0,0,9,,,,,,,,,,,,,,,,15,,62,48
24900,note_on,,0,0,9,,,,,,,,,,,,,,,,15,,65,48
24900,note_on,,1,0,9,,,,,,,,,,,,,,,,15,,50,48
24900,note_on,,1,0,8,,,,,,,,,,,,,,,,13,,50,48
24959,note_on,,0,0,9,,,,,,,,,,,,,,,,15,,65,0
24959,note_on,,0,0,9,,,,,,,,,,,,,,,,15,,50,0
24959,note_on,,59,0,9,,,,,,,,,,,,,,,,15,,67,0
24959,note_on,,59,0,8,,,,,,,,,,,,,,,,13,,50,0
24959,note_on,,119,0,6,,,,,,,,,,,,,,,,6,,60,0
24959,note_on,,0,0,9,,,,,,,,,,,,,,,,15,,62,0
24960,note_on,,1,0,9,,,,,,,,,,,,,,,,15,,48,48
24960,note_on,,0,0,9,,,,,,,,,,,,,,,,15,,72,48
24960,note_on,,0,0,9,,,,,,,,,,,,,,,,15,,67,48
24960,note_on,,0,0,9,,,,,,,,,,,,,,,,15,,63,48
24960,note_on,,1,0,6,,,,,,,,,,,,,,,,6,,75,64
24960,note_on,,1,0,8,,,,,,,,,,,,,,,,13,,48,48
25019,note_on,,59,0,9,,,,,,,,,,,,,,,,15,,63,0
25019,note_on,,59,0,6,,,,,,,,,,,,,,,,6,,75,0
25020,note_on,,1,0,9,,,,,,,,,,,,,,,,15,,65,48
25020,note_on,,1,0,6,,,,,,,,,,,,,,,,6,,74,64
25079,note_on,,119,0,8,,,,,,,,,,,,,,,,13,,48,0
25079,note_on,,59,0,6,,,,,,,,,,,,,,,,6,,74,0
25079,note_on,,59,0,9,,,,,,,,,,,,,,,,15,,48,0
25079,note_on,,0,0,9,,,,,,,,,,,,,,,,15,,65,0
25080,note_on,,1,0,8,,,,,,,,,,,,,,,,13,,51,48
25080,note_on,,1,0,6,,,,,,,,,,,,,,,,6,,72,64
25080,note_on,,1,0,9,,,,,,,,,,,,,,,,15,,51,48
25080,note_on,,0,0,9,,,,,,,,,,,,,,,,15,,67,48
25139,note_on,,59,0,6,,,,,,,,,,,,,,,,6,,72,0
25140,note_on,,1,0,6,,,,,,,,,,,,,,,,6,,70,64
25199,note_on,,119,0,9,,,,,,,,,,,,,,,,15,,72,0
25199,note_on,,0,0,9,,,,,,,,,,,,,,,,15,,67,0
25199,note_on,,0,0,9,,,,,,,,,,,,,,,,15,,51,0
25199,note_on,,59,0,6,,,,,,,,,,,,,,,,6,,70,0
25199,note_on,,119,0,8,,,,,,,,,,,,,,,,13,,51,0
25199,note_on,,0,0,9,,,,,,,,,,,,,,,,15,,67,0
25200,note_on,,0,0,9,,,,,,,,,,,,,,,,15,,60,48
25200,note_on,,1,0,9,,,,,,,,,,,,,,,,15,,48,48
25200,note_on,,1,0,6,,,,,,,,,,,,,,,,6,,69,64
25200,note_on,,1,0,8,,,,,,,,,,,,,,,,13,,48,48
25200,note_on,,0,0,9,,,,,,,,,,,,,,,,15,,64,48
25200,note_on,,0,0,9,,,,,,,,,,,,,,,,15,,69,48
25259,note_on,,59,0,6,,,,,,,,,,,,,,,,6,,69,0
25260,note_on,,1,0,6,,,,,,,,,,,,,,,,6,,67,64
25319,note_on,,119,0,8,,,,,,,,,,,,,,,,13,,48,0
25319,note_on,,0,0,9,,,,,,,,,,,,,,,,15,,60,0
25319,note_on,,0,0,9,,,,,,,,,,,,,,,,15,,64,0
25319,note_on,,59,0,6,,,,,,,,,,,,,,,,6,,67,0
25319,note_on,,0,0,9,,,,,,,,,,,,,,,,15,,69,0
25319,note_on,,119,0,9,,,,,,,,,,,,,,,,15,,48,0
25320,note_on,,0,0,9,,,,,,,,,,,,,,,,15,,66,48
25320,note_on,,0,0,9,,,,,,,,,,,,,,,,15,,57,48
25320,note_on,,0,0,9,,,,,,,,,,,,,,,,15,,62,48
25320,note_on,,1,0,8,,,,,,,,,,,,,,,,13,,50,48
25320,note_on,,1,0,6,,,,,,,,,,,,,,,,6,,66,64
25320,note_on,,1,0,9,,,,,,,,,,,,,,,,15,,50,48
25379,note_on,,59,0,6,,,,,,,,,,,,,,,,6,,66,0
25380,note_on,,1,0,6,,,,,,,,,,,,,,,,6,,64,64
25439,note_on,,59,0,6,,,,,,,,,,,,,,,,6,,64,0
25439,note_on,,119,0,9,,,,,,,,,,,,,,,,15,,50,0
25439,note_on,,0,0,9,,,,,,,,,,,,,,,,15,,66,0
25439,note_on,,0,0,9,,,,,,,,,,,,,,,,15,,62,0
25439,note_on,,0,0,9,,,,,,,,,,,,,,,,15,,57,0
25439,note_on,,119,0,8,,,,,,,,,,,,,,,,13,,50,0
25440,note_on,,1,0,6,,,,,,,,,,,,,,,,6,,62,64
25559,note_on,,119,0,6,,,,,,,,,,,,,,,,6,,62,0
25560,note_on,,1,0,6,,,,,,,,,,,,,,,,6,,69,64
25619,note_on,,59,0,6,,,,,,,,,,,,,,,,6,,69,0
25620,note_on,,1,0,6,,,,,,,,,,,,,,,,6,,62,64
25679,note_on,,59,0,6,,,,,,,,,,,,,,,,6,,62,0
25680,note_on,,1,0,6,,,,,,,,,,,,,,,,6,,70,64
25680,note_on,,1321,0,7,,,,,,,,,,,,,,,,10,,74,48
25739,note_on,,59,0,6,,,,,,,,,,,,,,,,6,,70,0
25739,note_on,,59,0,7,,,,,,,,,,,,,,,,10,,74,0
25740,note_on,,1,0,6,,,,,,,,,,,,,,,,6,,69,64
25740,note_on,,1,0,7,,,,,,,,,,,,,,,,10,,72,48
25799,note_on,,59,0,6,,,,,,,,,,,,,,,,6,,69,0
25799,note_on,,59,0,7,,,,,,,,,,,,,,,,10,,72,0
25800,note_on,,0,0,9,,,,,,,,,,,,,,,,15,,67,48
25800,note_on,,0,0,9,,,,,,,,,,,,,,,,15,,58,48
25800,note_on,,0,0,9,,,,,,,,,,,,,,,,15,,62,48
25800,note_on,,361,0,9,,,,,,,,,,,,,,,,15,,55,48
25800,note_on,,361,0,8,,,,,,,,,,,,,,,,13,,55,48
25800,note_on,,1,0,7,,,,,,,,,,,,,,,,10,,70,48
25800,note_on,,1,0,6,,,,,,,,,,,,,,,,6,,70,64
25859,note_on,,59,0,7,,,,,,,,,,,,,,,,10,,70,0
25860,note_on,,1,0,7,,,,,,,,,,,,,,,,10,,69,48
25919,note_on,,59,0,7,,,,,,,,,,,,,,,,10,,69,0
25919,note_on,,119,0,8,,,,,,,,,,,,,,,,13,,55,0
25919,note_on,,119,0,9,,,,,,,,,,,,,,,,15,,55,0
25919,note_on,,0,0,9,,,,,,,,,,,,,,,,15,,67,0
25919,note_on,,0,0,9,,,,,,,,,,,,,,,,15,,62,0
25919,note_on,,0,0,9,,,,,,,,,,,,,,,,15,,58,0
25920,note_on,,1,0,7,,,,,,,,,,,,,,,,10,,67,48
25920,note_on,,1,0,9,,,,,,,,,,,,,,,,15,,55,48
25920,note_on,,1,0,8,,,,,,,,,,,,,,,,13,,55,48
25920,note_on,,0,0,9,,,,,,,,,,,,,,,,15,,74,48
25920,note_on,,0,0,9,,,,,,,,,,,,,,,,15,,62,48
25920,note_on,,0,0,9,,,,,,,,,,,,,,,,15,,70,48
25920,note_on,,0,0,9,,,,,,,,,,,,,,,,15,,67,48
25979,note_on,,59,0,7,,,,,,,,,,,,,,,,10,,67,0
25980,note_on,,1,0,7,,,,,,,,,,,,,,,,10,,65,48
26039,note_on,,59,0,7,,,,,,,,,,,,,,,,10,,65,0
26039,note_on,,119,0,9,,,,,,,,,,,,,,,,15,,55,0
26039,note_on,,239,0,6,,,,,,,,,,,,,,,,6,,70,0
26039,note_on,,0,0,9,,,,,,,,,,,,,,,,15,,62,0
26039,note_on,,119,0,8,,,,,,,,,,,,,,,,13,,55,0
26039,note_on,,0,0,9,,,,,,,,,,,,,,,,15,,67,0
26039,note_on,,0,0,9,,,,,,,,,,,,,,,,15,,70,0
26039,note_on,,0,0,9,,,,,,,,,,,,,,,,15,,74,0
26040,note_on,,0,0,9,,,,,,,,,,,,,,,,15,,75,48
26040,note_on,,0,0,9,,,,,,,,,,,,,,,,15,,72,48
26040,note_on,,0,0,9,,,,,,,,,,,,,,,,15,,60,48
26040,note_on,,1,0,9,,,,,,,,,,,,,,,,15,,48,48
26040,note_on,,1,0,7,,,,,,,,,,,,,,,,10,,63,48
26040,note_on,,0,0,9,,,,,,,,,,,,,,,,15,,67,48
26040,note_on,,1,0,8,,,,,,,,,,,,,,,,13,,48,48
26160,note_on,,121,0,6,,,,,,,,,,,,,,,,6,,72,64
26279,note_on,,239,0,9,,,,,,,,,,,,,,,,15,,48,0
26279,note_on,,239,0,7,,,,,,,,,,,,,,,,10,,63,0
26279,note_on,,0,0,9,,,,,,,,,,,,,,,,15,,75,0
26279,note_on,,0,0,9,,,,,,,,,,,,,,,,15,,72,0
26279,note_on,,0,0,9,,,,,,,,,,,,,,,,15,,67,0
26279,note_on,,0,0,9,,,,,,,,,,,,,,,,15,,60,0
26279,note_on,,239,0,8,,,,,,,,,,,,,,,,13,,48,0
26339,note_on,,179,0,6,,,,,,,,,,,,,,,,6,,72,0
26340,note_on,,1,0,6,,,,,,,,,,,,,,,,6,,70,64
26399,note_on,,59,0,6,,,,,,,,,,,,,,,,6,,70,0
26400,note_on,,1,0,6,,,,,,,,,,,,,,,,6,,69,64
26400,note_on,,121,0,7,,,,,,,,,,,,,,,,10,,72,48
26459,note_on,,59,0,7,,,,,,,,,,,,,,,,10,,72,0
26460,note_on,,1,0,7,,,,,,,,,,,,,,,,10,,70,48
26519,note_on,,59,0,7,,,,,,,,,,,,,,,,10,,70,0
26520,note_on,,0,0,9,,,,,,,,,,,,,,,,15,,60,48
26520,note_on,,0,0,9,,,,,,,,,,,,,,,,15,,65,48
26520,note_on,,0,0,9,,,,,,,,,,,,,,,,15,,69,48
26520,note_on,,241,0,9,,,,,,,,,,,,,,,,15,,53,48
26520,note_on,,1,0,7,,,,,,,,,,,,,,,,10,,69,48
26520,note_on,,241,0,8,,,,,,,,,,,,,,,,13,,53,48
26579,note_on,,59,0,7,,,,,,,,,,,,,,,,10,,69,0
26580,note_on,,1,0,7,,,,,,,,,,,,,,,,10,,67,48
26639,note_on,,0,0,9,,,,,,,,,,,,,,,,15,,65,0
26639,note_on,,59,0,7,,,,,,,,,,,,,,,,10,,67,0
26639,note_on,,0,0,9,,,,,,,,,,,,,,,,15,,60,0
26639,note_on,,119,0,9,,,,,,,,,,,,,,,,15,,53,0
26639,note_on,,0,0,9,,,,,,,,,,,,,,,,15,,69,0
26639,note_on,,119,0,8,,,,,,,,,,,,,,,,13,,53,0
26640,note_on,,1,0,9,,,,,,,,,,,,,,,,15,,65,48
26640,note_on,,1,0,8,,,,,,,,,,,,,,,,13,,53,48
26640,note_on,,0,0,9,,,,,,,,,,,,,,,,15,,72,48
26640,note_on,,0,0,9,,,,,,,,,,,,,,,,15,,57,48
26640,note_on,,0,0,9,,,,,,,,,,,,,,,,15,,53,48
26640,note_on,,1,0,7,,,,,,,,,,,,,,,,10,,65,48
26699,note_on,,59,0,7,,,,,,,,,,,,,,,,10,,65,0
26700,note_on,,1,0,7,,,,,,,,,,,,,,,,10,,63,48
26759,note_on,,119,0,8,,,,,,,,,,,,,,,,13,,53,0
26759,note_on,,59,0,7,,,,,,,,,,,,,,,,10,,63,0
26759,note_on,,359,0,6,,,,,,,,,,,,,,,,6,,69,0
26759,note_on,,0,0,9,,,,,,,,,,,,,,,,15,,72,0
26759,note_on,,0,0,9,,,,,,,,,,,,,,,,15,,57,0
26759,note_on,,0,0,9,,,,,,,,,,,,,,,,15,,53,0
26759,note_on,,119,0,9,,,,,,,,,,,,,,,,15,,65,0
26760,note_on,,1,0,8,,,,,,,,,,,,,,,,13,,46,48
26760,note_on,,1,0,7,,,,,,,,,,,,,,,,10,,62,48
26760,note_on,,1,0,9,,,,,,,,,,,,,,,,15,,46,48
26760,note_on,,0,0,9,,,,,,,,,,,,,,,,15,,74,48
26760,note_on,,0,0,9,,,,,,,,,,,,,,,,15,,70,48
26760,note_on,,0,0,9,,,,,,,,,,,,,,,,15,,65,48
26760,note_on,,0,0,9,,,,,,,,,,,,,,,,15,,58,48
26880,note_on,,121,0,6,,,,,,,,,,,,,,,,6,,70,64
26999,note_on,,239,0,8,,,,,,,,,,,,,,,,13,,46,0
26999,note_on,,239,0,7,,,,,,,,,,,,,,,,10,,62,0
26999,note_on,,0,0,9,,,,,,,,,,,,,,,,15,,58,0
26999,note_on,,0,0,9,,,,,,,,,,,,,,,,15,,65,0
26999,note_on,,0,0,9,,,,,,,,,,,,,,,,15,,70,0
26999,note_on,,0,0,9,,,,,,,,,,,,,,,,15,,74,0
26999,note_on,,239,0,9,,,,,,,,,,,,,,,,15,,46,0
27059,note_on,,179,0,6,,,,,,,,,,,,,,,,6,,70,0
27060,note_on,,1,0,6,,,,,,,,,,,,,,,,6,,69,64
27119,note_on,,59,0,6,,,,,,,,,,,,,,,,6,,69,0
27120,note_on,,121,0,7,,,,,,,,,,,,,,,,10,,70,48
27120,note_on,,1,0,6,,,,,,,,,,,,,,,,6,,67,64
27179,note_on,,59,0,6,,,,,,,,,,,,,,,,6,,67,0
27179,note_on,,59,0,7,,,,,,,,,,,,,,,,10,,70,0
27180,note_on,,1,0,6,,,,,,,,,,,,,,,,6,,66,64
27180,note_on,,1,0,7,,,,,,,,,,,,,,,,10,,69,48
27239,note_on,,59,0,6,,,,,,,,,,,,,,,,6,,66,0
27239,note_on,,59,0,7,,,,,,,,,,,,,,,,10,,69,0
27240,note_on,,0,0,9,,,,,,,,,,,,,,,,15,,61,48
27240,note_on,,1,0,7,,,,,,,,,,,,,,,,10,,67,48
27240,note_on,,0,0,9,,,,,,,,,,,,,,,,15,,55,48
27240,note_on,,1,0,6,,,,,,,,,,,,,,,,6,,67,64
27240,note_on,,241,0,9,,,,,,,,,,,,,,,,15,,52,48
27240,note_on,,241,0,8,,,,,,,,,,,,,,,,13,,52,48
27299,note_on,,59,0,7,,,,,,,,,,,,,,,,10,,67,0
27300,note_on,,1,0,7,,,,,,,,,,,,,,,,10,,65,48
27359,note_on,,59,0,7,,,,,,,,,,,,,,,,10,,65,0
27359,note_on,,0,0,9,,,,,,,,,,,,,,,,15,,55,0
27359,note_on,,119,0,8,,,,,,,,,,,,,,,,13,,52,0
27359,note_on,,119,0,9,,,,,,,,,,,,,,,,15,,52,0
27359,note_on,,0,0,9,,,,,,,,,,,,,,,,15,,61,0
27360,note_on,,0,0,9,,,,,,,,,,,,,,,,15,,64,48
27360,note_on,,1,0,8,,,,,,,,,,,,,,,,13,,52,48
27360,note_on,,1,0,9,,,,,,,,,,,,,,,,15,,52,48
27360,note_on,,0,0,9,,,,,,,,,,,,,,,,15,,61,48
27360,note_on,,0,0,9,,,,,,,,,,,,,,,,15,,55,48
27360,note_on,,1,0,7,,,,,,,,,,,,,,,,10,,64,48
27419,note_on,,59,0,7,,,,,,,,,,,,,,,,10,,64,0
27420,note_on,,1,0,7,,,,,,,,,,,,,,,,10,,62,48
27479,note_on,,0,0,9,,,,,,,,,,,,,,,,15,,61,0
27479,note_on,,119,0,9,,,,,,,,,,,,,,,,15,,52,0
27479,note_on,,239,0,6,,,,,,,,,,,,,,,,6,,67,0
27479,note_on,,119,0,8,,,,,,,,,,,,,,,,13,,52,0
27479,note_on,,59,0,7,,,,,,,,,,,,,,,,10,,62,0
27479,note_on,,0,0,9,,,,,,,,,,,,,,,,15,,64,0
27479,note_on,,0,0,9,,,,,,,,,,,,,,,,15,,55,0
27480,note_on,,1,0,9,,,,,,,,,,,,,,,,15,,45,48
27480,note_on,,0,0,9,,,,,,,,,,,,,,,,15,,64,48
27480,note_on,,0,0,9,,,,,,,,,,,,,,,,15,,55,48
27480,note_on,,0,0,9,,,,,,,,,,,,,,,,15,,48,48
27480,note_on,,1,0,6,,,,,,,,,,,,,,,,6,,67,64
27480,note_on,,0,0,9,,,,,,,,,,,,,,,,15,,76,48
27480,note_on,,1,0,7,,,,,,,,,,,,,,,,10,,61,48
27480,note_on,,1,0,8,,,,,,,,,,,,,,,,13,,45,48
27599,note_on,,119,0,6,,,,,,,,,,,,,,,,6,,67,0
27600,note_on,,1,0,6,,,,,,,,,,,,,,,,6,,69,64
27719,note_on,,0,0,9,,,,,,,,,,,,,,,,15,,48,0
27719,note_on,,0,0,9,,,,,,,,,,,,,,,,15,,55,0
27719,note_on,,0,0,9,,,,,,,,,,,,,,,,15,,64,0
27719,note_on,,0,0,9,,,,,,,,,,,,,,,,15,,76,0
27719,note_on,,239,0,9,,,,,,,,,,,,,,,,15,,45,0
27719,note_on,,239,0,7,,,,,,,,,,,,,,,,10,,61,0
27719,note_on,,239,0,8,,,,,,,,,,,,,,,,13,,45,0
27779,note_on,,179,0,6,,,,,,,,,,,,,,,,6,,69,0
27780,note_on,,1,0,6,,,,,,,,,,,,,,,,6,,67,64
27839,note_on,,59,0,6,,,,,,,,,,,,,,,,6,,67,0
27840,note_on,,1,0,6,,,,,,,,,,,,,,,,6,,65,64
27840,note_on,,121,0,7,,,,,,,,,,,,,,,,10,,69,48
27899,note_on,,59,0,7,,,,,,,,,,,,,,,,10,,69,0
27899,note_on,,59,0,6,,,,,,,,,,,,,,,,6,,65,0
27900,note_on,,1,0,6,,,,,,,,,,,,,,,,6,,64,64
27900,note_on,,1,0,7,,,,,,,,,,,,,,,,10,,67,48
27959,note_on,,59,0,6,,,,,,,,,,,,,,,,6,,64,0
27959,note_on,,59,0,7,,,,,,,,,,,,,,,,10,,67,0
27960,note_on,,241,0,8,,,,,,,,,,,,,,,,13,,50,48
27960,note_on,,0,0,9,,,,,,,,,,,,,,,,15,,62,48
27960,note_on,,241,0,9,,,,,,,,,,,,,,,,15,,50,48
27960,note_on,,1,0,7,,,,,,,,,,,,,,,,10,,65,48
27960,note_on,,1,0,6,,,,,,,,,,,,,,,,6,,62,64
27960,note_on,,0,0,9,,,,,,,,,,,,,,,,15,,57,48
27960,note_on,,0,0,9,,,,,,,,,,,,,,,,15,,53,48
28019,note_on,,59,0,7,,,,,,,,,,,,,,,,10,,65,0
28020,note_on,,1,0,7,,,,,,,,,,,,,,,,10,,64,48
28079,note_on,,59,0,7,,,,,,,,,,,,,,,,10,,64,0
28079,note_on,,119,0,9,,,,,,,,,,,,,,,,15,,50,0
28079,note_on,,0,0,9,,,,,,,,,,,,,,,,15,,57,0
28079,note_on,,0,0,9,,,,,,,,,,,,,,,,15,,62,0
28079,note_on,,0,0,9,,,,,,,,,,,,,,,,15,,53,0
28079,note_on,,119,0,8,,,,,,,,,,,,,,,,13,,50,0
28080,note_on,,0,0,9,,,,,,,,,,,,,,,,15,,62,48
28080,note_on,,0,0,9,,,,,,,,,,,,,,,,15,,65,48
28080,note_on,,0,0,9,,,,,,,,,,,,,,,,15,,57,48
28080,note_on,,1,0,7,,,,,,,,,,,,,,,,10,,62,48
28080,note_on,,1,0,9,,,,,,,,,,,,,,,,15,,50,48
28080,note_on,,1,0,8,,,,,,,,,,,,,,,,13,,50,48
28139,note_on,,59,0,7,,,,,,,,,,,,,,,,10,,62,0
28140,note_on,,1,0,7,,,,,,,,,,,,,,,,10,,61,48
28199,note_on,,239,0,6,,,,,,,,,,,,,,,,6,,62,0
28199,note_on,,119,0,9,,,,,,,,,,,,,,,,15,,50,0
28199,note_on,,0,0,9,,,,,,,,,,,,,,,,15,,62,0
28199,note_on,,0,0,9,,,,,,,,,,,,,,,,15,,57,0
28199,note_on,,59,0,7,,,,,,,,,,,,,,,,10,,61,0
28199,note_on,,0,0,9,,,,,,,,,,,,,,,,15,,65,0
28199,note_on,,119,0,8,,,,,,,,,,,,,,,,13,,50,0
28200,note_on,,1,0,6,,,,,,,,,,,,,,,,6,,70,64
28200,note_on,,0,0,9,,,,,,,,,,,,,,,,15,,50,48
28200,note_on,,1,0,9,,,,,,,,,,,,,,,,15,,38,48
28200,note_on,,1,0,8,,,,,,,,,,,,,,,,13,,38,48
28200,note_on,,0,0,9,,,,,,,,,,,,,,,,15,,70,48
28200,note_on,,0,0,9,,,,,,,,,,,,,,,,15,,65,48
28200,note_on,,1,0,7,,,,,,,,,,,,,,,,10,,62,48
28200,note_on,,0,0,9,,,,,,,,,,,,,,,,15,,74,48
28319,note_on,,119,0,6,,,,,,,,,,,,,,,,6,,70,0
28320,note_on,,1,0,6,,,,,,,,,,,,,,,,6,,70,64
28439,note_on,,239,0,7,,,,,,,,,,,,,,,,10,,62,0
28439,note_on,,239,0,9,,,,,,,,,,,,,,,,15,,38,0
28439,note_on,,239,0,8,,,,,,,,,,,,,,,,13,,38,0
28439,note_on,,119,0,6,,,,,,,,,,,,,,,,6,,70,0
28439,note_on,,0,0,9,,,,,,,,,,,,,,,,15,,74,0
28439,note_on,,0,0,9,,,,,,,,,,,,,,,,15,,70,0
28439,note_on,,0,0,9,,,,,,,,,,,,,,,,15,,65,0
28439,note_on,,0,0,9,,,,,,,,,,,,,,,,15,,50,0
28440,note_on,,1,0,6,,,,,,,,,,,,,,,,6,,69,64
28559,note_on,,119,0,6,,,,,,,,,,,,,,,,6,,69,0
28560,note_on,,121,0,7,,,,,,,,,,,,,,,,10,,74,48
28560,note_on,,1,0,6,,,,,,,,,,,,,,,,6,,67,64
28619,note_on,,59,0,7,,,,,,,,,,,,,,,,10,,74,0
28620,note_on,,1,0,7,,,,,,,,,,,,,,,,10,,72,48
28679,note_on,,59,0,7,,,,,,,,,,,,,,,,10,,72,0
28680,note_on,,241,0,8,,,,,,,,,,,,,,,,13,,55,48
28680,note_on,,1,0,7,,,,,,,,,,,,,,,,10,,70,48
28680,note_on,,0,0,9,,,,,,,,,,,,,,,,15,,55,48
28680,note_on,,0,0,9,,,,,,,,,,,,,,,,15,,67,48
28680,note_on,,241,0,9,,,,,,,,,,,,,,,,15,,70,48
28680,note_on,,0,0,9,,,,,,,,,,,,,,,,15,,62,48
28739,note_on,,59,0,7,,,,,,,,,,,,,,,,10,,70,0
28740,note_on,,1,0,7,,,,,,,,,,,,,,,,10,,69,48
28799,note_on,,239,0,6,,,,,,,,,,,,,,,,6,,67,0
28799,note_on,,0,0,9,,,,,,,,,,,,,,,,15,,62,0
28799,note_on,,0,0,9,,,,,,,,,,,,,,,,15,,67,0
28799,note_on,,0,0,9,,,,,,,,,,,,,,,,15,,55,0
28799,note_on,,119,0,8,,,,,,,,,,,,,,,,13,,55,0
28799,note_on,,119,0,9,,,,,,,,,,,,,,,,15,,70,0
28799,note_on,,59,0,7,,,,,,,,,,,,,,,,10,,69,0
28800,note_on,,0,0,9,,,,,,,,,,,,,,,,15,,67,48
28800,note_on,,1,0,7,,,,,,,,,,,,,,,,10,,67,48
28800,note_on,,1,0,8,,,,,,,,,,,,,,,,13,,55,48
28800,note_on,,0,0,9,,,,,,,,,,,,,,,,15,,74,48
28800,note_on,,1,0,9,,,,,,,,,,,,,,,,15,,55,48
28800,note_on,,0,0,9,,,,,,,,,,,,,,,,15,,70,48
28859,note_on,,59,0,7,,,,,,,,,,,,,,,,10,,67,0
28860,note_on,,1,0,7,,,,,,,,,,,,,,,,10,,65,48
28919,note_on,,119,0,8,,,,,,,,,,,,,,,,13,,55,0
28919,note_on,,0,0,9,,,,,,,,,,,,,,,,15,,74,0
28919,note_on,,0,0,9,,,,,,,,,,,,,,,,15,,70,0
28919,note_on,,0,0,9,,,,,,,,,,,,,,,,15,,67,0
28919,note_on,,119,0,9,,,,,,,,,,,,,,,,15,,55,0
28919,note_on,,59,0,7,,,,,,,,,,,,,,,,10,,65,0
28920,note_on,,1,0,9,,,,,,,,,,,,,,,,15,,48,48
28920,note_on,,0,0,9,,,,,,,,,,,,,,,,15,,76,48
28920,note_on,,0,0,9,,,,,,,,,,,,,,,,15,,72,48
28920,note_on,,121,0,6,,,,,,,,,,,,,,,,6,,67,64
28920,note_on,,0,0,9,,,,,,,,,,,,,,,,15,,67,48
28920,note_on,,0,0,9,,,,,,,,,,,,,,,,15,,55,48
28920,note_on,,1,0,7,,,,,,,,,,,,,,,,10,,64,48
28920,note_on,,1,0,8,,,,,,,,,,,,,,,,13,,48,48
29039,note_on,,119,0,6,,,,,,,,,,,,,,,,6,,67,0
29040,note_on,,1,0,6,,,,,,,,,,,,,,,,6,,72,64
29159,note_on,,239,0,7,,,,,,,,,,,,,,,,10,,64,0
29159,note_on,,0,0,9,,,,,,,,,,,,,,,,15,,55,0
29159,note_on,,0,0,9,,,,,,,,,,,,,,,,15,,67,0
29159,note_on,,0,0,9,,,,,,,,,,,,,,,,15,,72,0
29159,note_on,,0,0,9,,,,,,,,,,,,,,,,15,,76,0
29159,note_on,,239,0,8,,,,,,,,,,,,,,,,13,,48,0
29159,note_on,,239,0,9,,,,,,,,,,,,,,,,15,,48,0
29219,note_on,,179,0,6,,,,,,,,,,,,,,,,6,,72,0
29220,note_on,,1,0,6,,,,,,,,,,,,,,,,6,,70,64
29279,note_on,,59,0,6,,,,,,,,,,,,,,,,6,,70,0
29280,note_on,,1,0,6,,,,,,,,,,,,,,,,6,,69,64
29280,note_on,,121,0,7,,,,,,,,,,,,,,,,10,,72,48
29339,note_on,,59,0,7,,,,,,,,,,,,,,,,10,,72,0
29339,note_on,,59,0,6,,,,,,,,,,,,,,,,6,,69,0
29340,note_on,,1,0,6,,,,,,,,,,,,,,,,6,,67,64
29340,note_on,,1,0,7,,,,,,,,,,,,,,,,10,,70,48
29399,note_on,,59,0,6,,,,,,,,,,,,,,,,6,,67,0
29399,note_on,,59,0,7,,,,,,,,,,,,,,,,10,,70,0
29400,note_on,,1,0,6,,,,,,,,,,,,,,,,6,,65,64
29400,note_on,,241,0,8,,,,,,,,,,,,,,,,13,,53,48
29400,note_on,,1,0,7,,,,,,,,,,,,,,,,10,,69,48
29400,note_on,,0,0,9,,,,,,,,,,,,,,,,15,,65,48
29400,note_on,,241,0,9,,,,,,,,,,,,,,,,15,,53,48
29400,note_on,,0,0,9,,,,,,,,,,,,,,,,15,,69,48
29400,note_on,,0,0,9,,,,,,,,,,,,,,,,15,,60,48
29459,note_on,,59,0,7,,,,,,,,,,,,,,,,10,,69,0
29460,note_on,,1,0,7,,,,,,,,,,,,,,,,10,,67,48
29519,note_on,,119,0,6,,,,,,,,,,,,,,,,6,,65,0
29519,note_on,,119,0,8,,,,,,,,,,,,,,,,13,,53,0
29519,note_on,,119,0,9,,,,,,,,,,,,,,,,15,,53,0
29519,note_on,,59,0,7,,,,,,,,,,,,,,,,10,,67,0
29519,note_on,,0,0,9,,,,,,,,,,,,,,,,15,,69,0
29519,note_on,,0,0,9,,,,,,,,,,,,,,,,15,,65,0
29519,note_on,,0,0,9,,,,,,,,,,,,,,,,15,,60,0
29520,note_on,,1,0,8,,,,,,,,,,,,,,,,13,,53,48
29520,note_on,,1,0,7,,,,,,,,,,,,,,,,10,,65,48
29520,note_on,,0,0,9,,,,,,,,,,,,,,,,15,,65,48
29520,note_on,,0,0,9,,,,,,,,,,,,,,,,15,,72,48
29520,note_on,,0,0,9,,,,,,,,,,,,,,,,15,,57,48
29520,note_on,,1,0,9,,,,,,,,,,,,,,,,15,,53,48
29579,note_on,,59,0,7,,,,,,,,,,,,,,,,10,,65,0
29580,note_on,,1,0,7,,,,,,,,,,,,,,,,10,,64,48
29639,note_on,,119,0,9,,,,,,,,,,,,,,,,15,,53,0
29639,note_on,,0,0,9,,,,,,,,,,,,,,,,15,,57,0
29639,note_on,,0,0,9,,,,,,,,,,,,,,,,15,,72,0
29639,note_on,,119,0,8,,,,,,,,,,,,,,,,13,,53,0
29639,note_on,,0,0,9,,,,,,,,,,,,,,,,15,,65,0
29639,note_on,,59,0,7,,,,,,,,,,,,,,,,10,,64,0
29640,note_on,,1,0,7,,,,,,,,,,,,,,,,10,,65,48
29640,note_on,,1,0,9,,,,,,,,,,,,,,,,15,,45,48
29640,note_on,,0,0,9,,,,,,,,,,,,,,,,15,,77,48
29640,note_on,,0,0,9,,,,,,,,,,,,,,,,15,,53,48
29640,note_on,,0,0,9,,,,,,,,,,,,,,,,15,,65,48
29640,note_on,,0,0,9,,,,,,,,,,,,,,,,15,,72,48
29640,note_on,,1,0,8,,,,,,,,,,,,,,,,13,,45,48
29760,note_on,,241,0,6,,,,,,,,,,,,,,,,6,,72,64
29879,note_on,,0,0,9,,,,,,,,,,,,,,,,15,,77,0
29879,note_on,,119,0,6,,,,,,,,,,,,,,,,6,,72,0
29879,note_on,,0,0,9,,,,,,,,,,,,,,,,15,,72,0
29879,note_on,,0,0,9,,,,,,,,,,,,,,,,15,,65,0
29879,note_on,,239,0,7,,,,,,,,,,,,,,,,10,,65,0
29879,note_on,,239,0,9,,,,,,,,,,,,,,,,15,,45,0
29879,note_on,,239,0,8,,,,,,,,,,,,,,,,13,,45,0
29879,note_on,,0,0,9,,,,,,,,,,,,,,,,15,,53,0
29880,note_on,,1,0,6,,,,,,,,,,,,,,,,6,,69,64
29999,note_on,,119,0,6,,,,,,,,,,,,,,,,6,,69,0
30000,note_on,,0,0,9,,,,,,,,,,,,,,,,15,,77,48
30000,note_on,,0,0,9,,,,,,,,,,,,,,,,15,,74,48
30000,note_on,,0,0,9,,,,,,,,,,,,,,,,15,,65,48
30000,note_on,,0,0,9,,,,,,,,,,,,,,,,15,,58,48
30000,note_on,,121,0,9,,,,,,,,,,,,,,,,15,,46,48
30000,note_on,,121,0,8,,,,,,,,,,,,,,,,13,,46,48
30000,note_on,,1,0,6,,,,,,,,,,,,,,,,6,,74,64
30059,note_on,,59,0,6,,,,,,,,,,,,,,,,6,,74,0
30060,note_on,,1,0,6,,,,,,,,,,,,,,,,6,,72,64
30119,note_on,,59,0,6,,,,,,,,,,,,,,,,6,,72,0
30120,note_on,,1,0,6,,,,,,,,,,,,,,,,6,,70,64
30179,note_on,,59,0,6,,,,,,,,,,,,,,,,6,,70,0
30180,note_on,,1,0,6,,,,,,,,,,,,,,,,6,,69,64
30239,note_on,,59,0,6,,,,,,,,,,,,,,,,6,,69,0
30239,note_on,,239,0,8,,,,,,,,,,,,,,,,13,,46,0
30239,note_on,,0,0,9,,,,,,,,,,,,,,,,15,,58,0
30239,note_on,,239,0,9,,,,,,,,,,,,,,,,15,,46,0
30239,note_on,,0,0,9,,,,,,,,,,,,,,,,15,,77,0
30239,note_on,,0,0,9,,,,,,,,,,,,,,,,15,,74,0
30239,note_on,,0,0,9,,,,,,,,,,,,,,,,15,,65,0
30240,note_on,,1,0,6,,,,,,,,,,,,,,,,6,,67,64
30299,note_on,,59,0,6,,,,,,,,,,,,,,,,6,,67,0
30300,note_on,,1,0,6,,,,,,,,,,,,,,,,6,,65,64
30359,note_on,,59,0,6,,,,,,,,,,,,,,,,6,,65,0
30360,note_on,,121,0,8,,,,,,,,,,,,,,,,13,,48,48
30360,note_on,,1,0,6,,,,,,,,,,,,,,,,6,,64,64
30360,note_on,,0,0,9,,,,,,,,,,,,,,,,15,,72,48
30360,note_on,,0,0,9,,,,,,,,,,,,,,,,15,,55,48
30360,note_on,,0,0,9,,,,,,,,,,,,,,,,15,,64,48
30360,note_on,,0,0,9,,,,,,,,,,,,,,,,15,,67,48
30360,note_on,,121,0,9,,,,,,,,,,,,,,,,15,,48,48
30449,note_on,,89,0,6,,,,,,,,,,,,,,,,6,,64,0
30450,note_on,,1,0,6,,,,,,,,,,,,,,,,6,,74,64
30479,note_on,,29,0,6,,,,,,,,,,,,,,,,6,,74,0
30480,note_on,,1,0,6,,,,,,,,,,,,,,,,6,,72,64
30569,note_on,,89,0,6,,,,,,,,,,,,,,,,6,,72,0
30570,note_on,,1,0,6,,,,,,,,,,,,,,,,6,,65,64
30599,note_on,,29,0,6,,,,,,,,,,,,,,,,6,,65,0
30599,note_on,,0,0,9,,,,,,,,,,,,,,,,15,,55,0
30599,note_on,,0,0,9,,,,,,,,,,,,,,,,15,,64,0
30599,note_on,,0,0,9,,,,,,,,,,,,,,,,15,,67,0
30599,note_on,,0,0,9,,,,,,,,,,,,,,,,15,,72,0
30599,note_on,,239,0,9,,,,,,,,,,,,,,,,15,,48,0
30599,note_on,,239,0,8,,,,,,,,,,,,,,,,13,,48,0
30600,note_on,,1,0,6,,,,,,,,,,,,,,,,6,,64,64
30689,note_on,,89,0,6,,,,,,,,,,,,,,,,6,,64,0
30690,note_on,,1,0,6,,,,,,,,,,,,,,,,6,,70,64
30719,note_on,,29,0,6,,,,,,,,,,,,,,,,6,,70,0
30720,note_on,,121,0,8,,,,,,,,,,,,,,,,13,,53,48
30720,note_on,,0,0,9,,,,,,,,,,,,,,,,15,,65,48
30720,note_on,,0,0,9,,,,,,,,,,,,,,,,15,,57,48
30720,note_on,,0,0,9,,,,,,,,,,,,,,,,15,,72,48
30720,note_on,,1,0,6,,,,,,,,,,,,,,,,6,,69,64
30720,note_on,,121,0,9,,,,,,,,,,,,,,,,15,,53,48
30779,note_on,,59,0,6,,,,,,,,,,,,,,,,6,,69,0
30780,note_on,,1,0,6,,,,,,,,,,,,,,,,6,,70,64
30839,note_on,,59,0,6,,,,,,,,,,,,,,,,6,,70,0
30840,note_on,,1,0,6,,,,,,,,,,,,,,,,6,,69,64
30899,note_on,,59,0,6,,,,,,,,,,,,,,,,6,,69,0
30900,note_on,,1,0,6,,,,,,,,,,,,,,,,6,,67,64
30959,note_on,,239,0,8,,,,,,,,,,,,,,,,13,,53,0
30959,note_on,,239,0,9,,,,,,,,,,,,,,,,15,,53,0
30959,note_on,,0,0,9,,,,,,,,,,,,,,,,15,,72,0
30959,note_on,,0,0,9,,,,,,,,,,,,,,,,15,,65,0
30959,note_on,,59,0,6,,,,,,,,,,,,,,,,6,,67,0
30959,note_on,,0,0,9,,,,,,,,,,,,,,,,15,,57,0
30960,note_on,,1,0,6,,,,,,,,,,,,,,,,6,,65,64
31019,note_on,,59,0,6,,,,,,,,,,,,,,,,6,,65,0
31020,note_on,,1,0,6,,,,,,,,,,,,,,,,6,,64,64
31079,note_on,,59,0,6,,,,,,,,,,,,,,,,6,,64,0
31080,note_on,,0,0,9,,,,,,,,,,,,,,,,15,,74,48
31080,note_on,,0,0,9,,,,,,,,,,,,,,,,15,,65,48
31080,note_on,,121,0,9,,,,,,,,,,,,,,,,15,,58,48
31080,note_on,,0,0,9,,,,,,,,,,,,,,,,15,,62,48
31080,note_on,,1,0,6,,,,,,,,,,,,,,,,6,,62,64
31080,note_on,,121,0,8,,,,,,,,,,,,,,,,13,,58,48
31169,note_on,,89,0,6,,,,,,,,,,,,,,,,6,,62,0
31170,note_on,,1,0,6,,,,,,,,,,,,,,,,6,,72,64
31199,note_on,,29,0,6,,,,,,,,,,,,,,,,6,,72,0
31200,note_on,,1,0,6,,,,,,,,,,,,,,,,6,,70,64
31289,note_on,,89,0,6,,,,,,,,,,,,,,,,6,,70,0
31290,note_on,,1,0,6,,,,,,,,,,,,,,,,6,,64,64
31319,note_on,,29,0,6,,,,,,,,,,,,,,,,6,,64,0
31319,note_on,,0,0,9,,,,,,,,,,,,,,,,15,,65,0
31319,note_on,,0,0,9,,,,,,,,,,,,,,,,15,,74,0
31319,note_on,,239,0,9,,,,,,,,,,,,,,,,15,,58,0
31319,note_on,,0,0,9,,,,,,,,,,,,,,,,15,,62,0
31319,note_on,,239,0,8,,,,,,,,,,,,,,,,13,,58,0
31320,note_on,,1,0,6,,,,,,,,,,,,,,,,6,,62,64
31409,note_on,,89,0,6,,,,,,,,,,,,,,,,6,,62,0
31410,note_on,,1,0,6,,,,,,,,,,,,,,,,6,,69,64
31439,note_on,,29,0,6,,,,,,,,,,,,,,,,6,,69,0
31440,note_on,,1,0,6,,,,,,,,,,,,,,,,6,,67,64
31440,note_on,,0,0,9,,,,,,,,,,,,,,,,15,,62,48
31440,note_on,,0,0,9,,,,,,,,,,,,,,,,15,,55,48
31440,note_on,,121,0,9,,,,,,,,,,,,,,,,15,,52,48
31440,note_on,,121,0,8,,,,,,,,,,,,,,,,13,,52,48
31440,note_on,,0,0,9,,,,,,,,,,,,,,,,15,,70,48
31499,note_on,,59,0,6,,,,,,,,,,,,,,,,6,,67,0
31500,note_on,,1,0,6,,,,,,,,,,,,,,,,6,,69,64
31559,note_on,,59,0,6,,,,,,,,,,,,,,,,6,,69,0
31560,note_on,,1,0,6,,,,,,,,,,,,,,,,6,,67,64
31619,note_on,,59,0,6,,,,,,,,,,,,,,,,6,,67,0
31620,note_on,,1,0,6,,,,,,,,,,,,,,,,6,,65,64
31679,note_on,,59,0,6,,,,,,,,,,,,,,,,6,,65,0
31679,note_on,,0,0,9,,,,,,,,,,,,,,,,15,,70,0
31679,note_on,,239,0,9,,,,,,,,,,,,,,,,15,,52,0
31679,note_on,,239,0,8,,,,,,,,,,,,,,,,13,,52,0
31679,note_on,,0,0,9,,,,,,,,,,,,,,,,15,,55,0
31679,note_on,,0,0,9,,,,,,,,,,,,,,,,15,,62,0
31680,note_on,,1,0,6,,,,,,,,,,,,,,,,6,,64,64
31739,note_on,,59,0,6,,,,,,,,,,,,,,,,6,,64,0
31740,note_on,,1,0,6,,,,,,,,,,,,,,,,6,,62,64
31799,note_on,,59,0,6,,,,,,,,,,,,,,,,6,,62,0
31800,note_on,,121,0,9,,,,,,,,,,,,,,,,15,,57,48
31800,note_on,,0,0,9,,,,,,,,,,,,,,,,15,,61,48
31800,note_on,,0,0,9,,,,,,,,,,,,,,,,15,,64,48
31800,note_on,,0,0,9,,,,,,,,,,,,,,,,15,,69,48
31800,note_on,,121,0,8,,,,,,,,,,,,,,,,13,,57,48
31800,note_on,,1,0,6,,,,,,,,,,,,,,,,6,,61,64
31889,note_on,,89,0,6,,,,,,,,,,,,,,,,6,,61,0
31890,note_on,,1,0,6,,,,,,,,,,,,,,,,6,,70,64
31919,note_on,,29,0,6,,,,,,,,,,,,,,,,6,,70,0
31920,note_on,,1,0,6,,,,,,,,,,,,,,,,6,,69,64
32039,note_on,,0,0,9,,,,,,,,,,,,,,,,15,,64,0
32039,note_on,,0,0,9,,,,,,,,,,,,,,,,15,,61,0
32039,note_on,,0,0,9,,,,,,,,,,,,,,,,15,,69,0
32039,note_on,,239,0,9,,,,,,,,,,,,,,,,15,,57,0
32039,note_on,,239,0,8,,,,,,,,,,,,,,,,13,,57,0
32099,note_on,,179,0,6,,,,,,,,,,,,,,,,6,,69,0
32100,note_on,,1,0,6,,,,,,,,,,,,,,,,6,,67,64
32159,note_on,,59,0,6,,,,,,,,,,,,,,,,6,,67,0
32160,note_on,,0,0,9,,,,,,,,,,,,,,,,15,,62,48
32160,note_on,,0,0,9,,,,,,,,,,,,,,,,15,,57,48
32160,note_on,,0,0,9,,,,,,,,,,,,,,,,15,,65,48
32160,note_on,,0,0,9,,,,,,,,,,,,,,,,15,,69,48
32160,note_on,,121,0,9,,,,,,,,,,,,,,,,15,,50,48
32160,note_on,,1,0,6,,,,,,,,,,,,,,,,6,,65,64
32160,note_on,,2281,0,7,,,,,,,,,,,,,,,,10,,69,48
32160,note_on,,121,0,8,,,,,,,,,,,,,,,,13,,50,48
32219,note_on,,59,0,6,,,,,,,,,,,,,,,,6,,65,0
32219,note_on,,59,0,7,,,,,,,,,,,,,,,,10,,69,0
32220,note_on,,1,0,7,,,,,,,,,,,,,,,,10,,67,48
32220,note_on,,1,0,6,,,,,,,,,,,,,,,,6,,64,64
32279,note_on,,0,0,9,,,,,,,,,,,,,,,,15,,62,0
32279,note_on,,59,0,6,,,,,,,,,,,,,,,,6,,64,0
32279,note_on,,59,0,7,,,,,,,,,,,,,,,,10,,67,0
32279,note_on,,119,0,8,,,,,,,,,,,,,,,,13,,50,0
32279,note_on,,119,0,9,,,,,,,,,,,,,,,,15,,50,0
32279,note_on,,0,0,9,,,,,,,,,,,,,,,,15,,65,0
32279,note_on,,0,0,9,,,,,,,,,,,,,,,,15,,57,0
32279,note_on,,0,0,9,,,,,,,,,,,,,,,,15,,69,0
32280,note_on,,0,0,9,,,,,,,,,,,,,,,,15,,53,48
32280,note_on,,1,0,7,,,,,,,,,,,,,,,,10,,65,48
32280,note_on,,1,0,8,,,,,,,,,,,,,,,,13,,50,48
32280,note_on,,1,0,9,,,,,,,,,,,,,,,,15,,50,48
32280,note_on,,0,0,9,,,,,,,,,,,,,,,,15,,62,48
32280,note_on,,0,0,9,,,,,,,,,,,,,,,,15,,57,48
32280,note_on,,1,0,6,,,,,,,,,,,,,,,,6,,62,64
32339,note_on,,59,0,7,,,,,,,,,,,,,,,,10,,65,0
32340,note_on,,1,0,7,,,,,,,,,,,,,,,,10,,64,48
32399,note_on,,119,0,6,,,,,,,,,,,,,,,,6,,62,0
32399,note_on,,0,0,9,,,,,,,,,,,,,,,,15,,57,0
32399,note_on,,0,0,9,,,,,,,,,,,,,,,,15,,62,0
32399,note_on,,0,0,9,,,,,,,,,,,,,,,,15,,53,0
32399,note_on,,119,0,9,,,,,,,,,,,,,,,,15,,50,0
32399,note_on,,59,0,7,,,,,,,,,,,,,,,,10,,64,0
32399,note_on,,119,0,8,,,,,,,,,,,,,,,,13,,50,0
32400,note_on,,1,0,7,,,,,,,,,,,,,,,,10,,62,48
32400,note_on,,1,0,8,,,,,,,,,,,,,,,,13,,52,48
32400,note_on,,0,0,9,,,,,,,,,,,,,,,,15,,67,48
32400,note_on,,0,0,9,,,,,,,,,,,,,,,,15,,55,48
32400,note_on,,0,0,9,,,,,,,,,,,,,,,,15,,64,48
32400,note_on,,1,0,9,,,,,,,,,,,,,,,,15,,52,48
32459,note_on,,59,0,7,,,,,,,,,,,,,,,,10,,62,0
32460,note_on,,1,0,7,,,,,,,,,,,,,,,,10,,61,48
32519,note_on,,0,0,9,,,,,,,,,,,,,,,,15,,64,0
32519,note_on,,119,0,8,,,,,,,,,,,,,,,,13,,52,0
32519,note_on,,0,0,9,,,,,,,,,,,,,,,,15,,67,0
32519,note_on,,0,0,9,,,,,,,,,,,,,,,,15,,55,0
32519,note_on,,119,0,9,,,,,,,,,,,,,,,,15,,52,0
32519,note_on,,59,0,7,,,,,,,,,,,,,,,,10,,61,0
32520,note_on,,1,0,7,,,,,,,,,,,,,,,,10,,62,48
32520,note_on,,1,0,8,,,,,,,,,,,,,,,,13,,53,48
32520,note_on,,1,0,9,,,,,,,,,,,,,,,,15,,53,48
32520,note_on,,0,0,9,,,,,,,,,,,,,,,,15,,69,48
32520,note_on,,0,0,9,,,,,,,,,,,,,,,,15,,62,48
32639,note_on,,119,0,9,,,,,,,,,,,,,,,,15,,53,0
32639,note_on,,0,0,9,,,,,,,,,,,,,,,,15,,69,0
32639,note_on,,119,0,8,,,,,,,,,,,,,,,,13,,53,0
32639,note_on,,0,0,9,,,,,,,,,,,,,,,,15,,62,0
32640,note_on,,241,0,6,,,,,,,,,,,,,,,,6,,70,64
32640,note_on,,1,0,8,,,,,,,,,,,,,,,,13,,55,48
32640,note_on,,1,0,9,,,,,,,,,,,,,,,,15,,55,48
32640,note_on,,0,0,9,,,,,,,,,,,,,,,,15,,58,48
32640,note_on,,0,0,9,,,,,,,,,,,,,,,,15,,67,48
32640,note_on,,0,0,9,,,,,,,,,,,,,,,,15,,62,48
32699,note_on,,59,0,9,,,,,,,,,,,,,,,,15,,67,0
32699,note_on,,0,0,9,,,,,,,,,,,,,,,,15,,62,0
32700,note_on,,1,0,9,,,,,,,,,,,,,,,,15,,64,48
32759,note_on,,239,0,7,,,,,,,,,,,,,,,,10,,62,0
32759,note_on,,0,0,9,,,,,,,,,,,,,,,,15,,58,0
32759,note_on,,119,0,8,,,,,,,,,,,,,,,,13,,55,0
32759,note_on,,59,0,9,,,,,,,,,,,,,,,,15,,55,0
32759,note_on,,0,0,9,,,,,,,,,,,,,,,,15,,64,0
32760,note_on,,0,0,9,,,,,,,,,,,,,,,,15,,66,48
32760,note_on,,0,0,9,,,,,,,,,,,,,,,,15,,60,48
32760,note_on,,1,0,8,,,,,,,,,,,,,,,,13,,57,48
32760,note_on,,1,0,9,,,,,,,,,,,,,,,,15,,57,48
32819,note_on,,179,0,6,,,,,,,,,,,,,,,,6,,70,0
32820,note_on,,1,0,6,,,,,,,,,,,,,,,,6,,69,64
32879,note_on,,0,0,9,,,,,,,,,,,,,,,,15,,60,0
32879,note_on,,119,0,9,,,,,,,,,,,,,,,,15,,57,0
32879,note_on,,119,0,8,,,,,,,,,,,,,,,,13,,57,0
32879,note_on,,59,0,6,,,,,,,,,,,,,,,,6,,69,0
32879,note_on,,0,0,9,,,,,,,,,,,,,,,,15,,66,0
32880,note_on,,0,0,9,,,,,,,,,,,,,,,,15,,67,48
32880,note_on,,121,0,7,,,,,,,,,,,,,,,,10,,70,48
32880,note_on,,1,0,6,,,,,,,,,,,,,,,,6,,67,64
32880,note_on,,1,0,9,,,,,,,,,,,,,,,,15,,62,48
32880,note_on,,0,0,9,,,,,,,,,,,,,,,,15,,58,48
32880,note_on,,1,0,8,,,,,,,,,,,,,,,,13,,58,48
32939,note_on,,59,0,6,,,,,,,,,,,,,,,,6,,67,0
32939,note_on,,59,0,7,,,,,,,,,,,,,,,,10,,70,0
32940,note_on,,1,0,6,,,,,,,,,,,,,,,,6,,66,64
32940,note_on,,1,0,7,,,,,,,,,,,,,,,,10,,69,48
32999,note_on,,119,0,8,,,,,,,,,,,,,,,,13,,58,0
32999,note_on,,59,0,7,,,,,,,,,,,,,,,,10,,69,0
32999,note_on,,59,0,6,,,,,,,,,,,,,,,,6,,66,0
33000,note_on,,1,0,6,,,,,,,,,,,,,,,,6,,67,64
33000,note_on,,1,0,8,,,,,,,,,,,,,,,,13,,46,48
33000,note_on,,1,0,7,,,,,,,,,,,,,,,,10,,67,48
33000,note_on,,120,0,9,,,,,,,,,,,,,,,,15,,46,48
33059,note_on,,59,0,7,,,,,,,,,,,,,,,,10,,67,0
33060,note_on,,1,0,7,,,,,,,,,,,,,,,,10,,65,48
33119,note_on,,59,0,7,,,,,,,,,,,,,,,,10,,65,0
33119,note_on,,119,0,9,,,,,,,,,,,,,,,,15,,62,0
33119,note_on,,0,0,9,,,,,,,,,,,,,,,,15,,58,0
33119,note_on,,0,0,9,,,,,,,,,,,,,,,,15,,67,0
33120,note_on,,0,0,9,,,,,,,,,,,,,,,,15,,62,48
33120,note_on,,0,0,9,,,,,,,,,,,,,,,,15,,55,48
33120,note_on,,1,0,7,,,,,,,,,,,,,,,,10,,64,48
33120,note_on,,1,0,9,,,,,,,,,,,,,,,,15,,74,48
33179,note_on,,59,0,7,,,,,,,,,,,,,,,,10,,64,0
33180,note_on,,1,0,7,,,,,,,,,,,,,,,,10,,62,48
33239,note_on,,119,0,9,,,,,,,,,,,,,,,,15,,46,0
33239,note_on,,0,0,9,,,,,,,,,,,,,,,,15,,74,0
33239,note_on,,0,0,9,,,,,,,,,,,,,,,,15,,62,0
33239,note_on,,0,0,9,,,,,,,,,,,,,,,,15,,55,0
33239,note_on,,239,0,8,,,,,,,,,,,,,,,,13,,46,0
33239,note_on,,59,0,7,,,,,,,,,,,,,,,,10,,62,0
33240,note_on,,1,0,7,,,,,,,,,,,,,,,,10,,61,48
33240,note_on,,0,0,9,,,,,,,,,,,,,,,,15,,73,48
33240,note_on,,0,0,9,,,,,,,,,,,,,,,,15,,69,48
33240,note_on,,0,0,9,,,,,,,,,,,,,,,,15,,76,48
33240,note_on,,0,0,9,,,,,,,,,,,,,,,,15,,45,48
33240,note_on,,1,0,9,,,,,,,,,,,,,,,,15,,55,48
33240,note_on,,0,0,9,,,,,,,,,,,,,,,,15,,67,48
33240,note_on,,1,0,8,,,,,,,,,,,,,,,,13,,45,48
33359,note_on,,119,0,7,,,,,,,,,,,,,,,,10,,61,0
33419,note_on,,419,0,6,,,,,,,,,,,,,,,,6,,67,0
33420,note_on,,1,0,6,,,,,,,,,,,,,,,,6,,64,64
33479,note_on,,239,0,9,,,,,,,,,,,,,,,,15,,55,0
33479,note_on,,0,0,9,,,,,,,,,,,,,,,,15,,45,0
33479,note_on,,59,0,6,,,,,,,,,,,,,,,,6,,64,0
33479,note_on,,239,0,8,,,,,,,,,,,,,,,,13,,45,0
33480,note_on,,1,0,6,,,,,,,,,,,,,,,,6,,65,64
33480,note_on,,1,0,9,,,,,,,,,,,,,,,,15,,49,48
33480,note_on,,1,0,8,,,,,,,,,,,,,,,,13,,49,48
33539,note_on,,59,0,6,,,,,,,,,,,,,,,,6,,65,0
33540,note_on,,1,0,6,,,,,,,,,,,,,,,,6,,67,64
33599,note_on,,0,0,9,,,,,,,,,,,,,,,,15,,69,0
33599,note_on,,0,0,9,,,,,,,,,,,,,,,,15,,73,0
33599,note_on,,119,0,9,,,,,,,,,,,,,,,,15,,76,0
33599,note_on,,119,0,8,,,,,,,,,,,,,,,,13,,49,0
33599,note_on,,0,0,9,,,,,,,,,,,,,,,,15,,67,0
33599,note_on,,0,0,9,,,,,,,,,,,,,,,,15,,49,0
33599,note_on,,59,0,6,,,,,,,,,,,,,,,,6,,67,0
33600,note_on,,1,0,6,,,,,,,,,,,,,,,,6,,65,64
33600,note_on,,1,0,9,,,,,,,,,,,,,,,,15,,50,48
33600,note_on,,0,0,9,,,,,,,,,,,,,,,,15,,69,48
33600,note_on,,0,0,9,,,,,,,,,,,,,,,,15,,65,48
33600,note_on,,0,0,9,,,,,,,,,,,,,,,,15,,62,48
33600,note_on,,0,0,9,,,,,,,,,,,,,,,,15,,74,48
33600,note_on,,1,0,8,,,,,,,,,,,,,,,,13,,50,48
33659,note_on,,59,0,6,,,,,,,,,,,,,,,,6,,65,0
33660,note_on,,1,0,6,,,,,,,,,,,,,,,,6,,64,64
33719,note_on,,119,0,8,,,,,,,,,,,,,,,,13,,50,0
33719,note_on,,0,0,9,,,,,,,,,,,,,,,,15,,74,0
33719,note_on,,0,0,9,,,,,,,,,,,,,,,,15,,69,0
33719,note_on,,0,0,9,,,,,,,,,,,,,,,,15,,65,0
33719,note_on,,59,0,6,,,,,,,,,,,,,,,,6,,64,0
33719,note_on,,119,0,9,,,,,,,,,,,,,,,,15,,50,0
33719,note_on,,0,0,9,,,,,,,,,,,,,,,,15,,62,0
33720,note_on,,1,0,6,,,,,,,,,,,,,,,,6,,62,64
33779,note_on,,59,0,6,,,,,,,,,,,,,,,,6,,62,0
33780,note_on,,1,0,6,,,,,,,,,,,,,,,,6,,65,64
33839,note_on,,59,0,6,,,,,,,,,,,,,,,,6,,65,0
33840,note_on,,1,0,6,,,,,,,,,,,,,,,,6,,67,64
33899,note_on,,59,0,6,,,,,,,,,,,,,,,,6,,67,0
33900,note_on,,1,0,6,,,,,,,,,,,,,,,,6,,69,64
33959,note_on,,59,0,6,,,,,,,,,,,,,,,,6,,69,0
33960,note_on,,241,0,9,,,,,,,,,,,,,,,,15,,52,48
33960,note_on,,0,0,9,,,,,,,,,,,,,,,,15,,73,48
33960,note_on,,241,0,8,,,,,,,,,,,,,,,,13,,52,48
33960,note_on,,1,0,6,,,,,,,,,,,,,,,,6,,67,64
33960,note_on,,0,0,9,,,,,,,,,,,,,,,,15,,67,48
33960,note_on,,0,0,9,,,,,,,,,,,,,,,,15,,64,48
33960,note_on,,0,0,9,,,,,,,,,,,,,,,,15,,55,48
34019,note_on,,59,0,6,,,,,,,,,,,,,,,,6,,67,0
34020,note_on,,1,0,6,,,,,,,,,,,,,,,,6,,65,64
34079,note_on,,119,0,9,,,,,,,,,,,,,,,,15,,52,0
34079,note_on,,119,0,8,,,,,,,,,,,,,,,,13,,52,0
34079,note_on,,59,0,6,,,,,,,,,,,,,,,,6,,65,0
34079,note_on,,0,0,9,,,,,,,,,,,,,,,,15,,64,0
34079,note_on,,0,0,9,,,,,,,,,,,,,,,,15,,67,0
34079,note_on,,0,0,9,,,,,,,,,,,,,,,,15,,55,0
34079,note_on,,0,0,9,,,,,,,,,,,,,,,,15,,73,0
34080,note_on,,1,0,6,,,,,,,,,,,,,,,,6,,64,64
34139,note_on,,59,0,6,,,,,,,,,,,,,,,,6,,64,0
34140,note_on,,1,0,6,,,,,,,,,,,,,,,,6,,67,64
34199,note_on,,59,0,6,,,,,,,,,,,,,,,,6,,67,0
34200,note_on,,1,0,6,,,,,,,,,,,,,,,,6,,69,64
34259,note_on,,59,0,6,,,,,,,,,,,,,,,,6,,69,0
34260,note_on,,1,0,6,,,,,,,,,,,,,,,,6,,70,64
34319,note_on,,59,0,6,,,,,,,,,,,,,,,,6,,70,0
34320,note_on,,241,0,8,,,,,,,,,,,,,,,,13,,53,48
34320,note_on,,0,0,9,,,,,,,,,,,,,,,,15,,53,48
34320,note_on,,0,0,9,,,,,,,,,,,,,,,,15,,65,48
34320,note_on,,0,0,9,,,,,,,,,,,,,,,,15,,57,48
34320,note_on,,1,0,6,,,,,,,,,,,,,,,,6,,69,64
34320,note_on,,0,0,9,,,,,,,,,,,,,,,,15,,62,48
34320,note_on,,241,0,9,,,,,,,,,,,,,,,,15,,74,48
34379,note_on,,59,0,6,,,,,,,,,,,,,,,,6,,69,0
34380,note_on,,1,0,6,,,,,,,,,,,,,,,,6,,67,64
34439,note_on,,119,0,9,,,,,,,,,,,,,,,,15,,74,0
34439,note_on,,0,0,9,,,,,,,,,,,,,,,,15,,53,0
34439,note_on,,0,0,9,,,,,,,,,,,,,,,,15,,65,0
34439,note_on,,0,0,9,,,,,,,,,,,,,,,,15,,62,0
34439,note_on,,59,0,6,,,,,,,,,,,,,,,,6,,67,0
34439,note_on,,119,0,8,,,,,,,,,,,,,,,,13,,53,0
34439,note_on,,0,0,9,,,,,,,,,,,,,,,,15,,57,0
34440,note_on,,1,0,6,,,,,,,,,,,,,,,,6,,65,64
34499,note_on,,59,0,6,,,,,,,,,,,,,,,,6,,65,0
34500,note_on,,1,0,6,,,,,,,,,,,,,,,,6,,69,64
34559,note_on,,59,0,6,,,,,,,,,,,,,,,,6,,69,0
34560,note_on,,1,0,6,,,,,,,,,,,,,,,,6,,71,64
34619,note_on,,59,0,6,,,,,,,,,,,,,,,,6,,71,0
34620,note_on,,1,0,6,,,,,,,,,,,,,,,,6,,72,64
34679,note_on,,59,0,6,,,,,,,,,,,,,,,,6,,72,0
34680,note_on,,0,0,9,,,,,,,,,,,,,,,,15,,74,48
34680,note_on,,241,0,9,,,,,,,,,,,,,,,,15,,55,48
34680,note_on,,1,0,6,,,,,,,,,,,,,,,,6,,71,64
34680,note_on,,0,0,9,,,,,,,,,,,,,,,,15,,71,48
34680,note_on,,0,0,9,,,,,,,,,,,,,,,,15,,67,48
34680,note_on,,0,0,9,,,,,,,,,,,,,,,,15,,59,48
34680,note_on,,241,0,8,,,,,,,,,,,,,,,,13,,55,48
34739,note_on,,59,0,6,,,,,,,,,,,,,,,,6,,71,0
34740,note_on,,1,0,6,,,,,,,,,,,,,,,,6,,69,64
34799,note_on,,0,0,9,,,,,,,,,,,,,,,,15,,74,0
34799,note_on,,0,0,9,,,,,,,,,,,,,,,,15,,71,0
34799,note_on,,0,0,9,,,,,,,,,,,,,,,,15,,67,0
34799,note_on,,0,0,9,,,,,,,,,,,,,,,,15,,59,0
34799,note_on,,119,0,8,,,,,,,,,,,,,,,,13,,55,0
34799,note_on,,59,0,6,,,,,,,,,,,,,,,,6,,69,0
34799,note_on,,119,0,9,,,,,,,,,,,,,,,,15,,55,0
34800,note_on,,1,0,6,,,,,,,,,,,,,,,,6,,67,64
34859,note_on,,59,0,6,,,,,,,,,,,,,,,,6,,67,0
34860,note_on,,1,0,6,,,,,,,,,,,,,,,,6,,71,64
34919,note_on,,59,0,6,,,,,,,,,,,,,,,,6,,71,0
34920,note_on,,1,0,6,,,,,,,,,,,,,,,,6,,73,64
34979,note_on,,59,0,6,,,,,,,,,,,,,,,,6,,73,0
34980,note_on,,1,0,6,,,,,,,,,,,,,,,,6,,74,64
35039,note_on,,59,0,6,,,,,,,,,,,,,,,,6,,74,0
35040,note_on,,1,0,6,,,,,,,,,,,,,,,,6,,73,64
35040,note_on,,0,0,9,,,,,,,,,,,,,,,,15,,64,48
35040,note_on,,0,0,9,,,,,,,,,,,,,,,,15,,69,48
35040,note_on,,241,0,8,,,,,,,,,,,,,,,,13,,57,48
35040,note_on,,0,0,9,,,,,,,,,,,,,,,,15,,73,48
35040,note_on,,241,0,9,,,,,,,,,,,,,,,,15,,57,48
35099,note_on,,59,0,6,,,,,,,,,,,,,,,,6,,73,0
35100,note_on,,1,0,6,,,,,,,,,,,,,,,,6,,71,64
35159,note_on,,59,0,6,,,,,,,,,,,,,,,,6,,71,0
35159,note_on,,119,0,8,,,,,,,,,,,,,,,,13,,57,0
35159,note_on,,0,0,9,,,,,,,,,,,,,,,,15,,64,0
35159,note_on,,0,0,9,,,,,,,,,,,,,,,,15,,69,0
35159,note_on,,119,0,9,,,,,,,,,,,,,,,,15,,57,0
35159,note_on,,0,0,9,,,,,,,,,,,,,,,,15,,73,0
35160,note_on,,1,0,6,,,,,,,,,,,,,,,,6,,69,64
35219,note_on,,59,0,6,,,,,,,,,,,,,,,,6,,69,0
35220,note_on,,1,0,6,,,,,,,,,,,,,,,,6,,67,64
35279,note_on,,59,0,6,,,,,,,,,,,,,,,,6,,67,0
35280,note_on,,1,0,6,,,,,,,,,,,,,,,,6,,65,64
35339,note_on,,59,0,6,,,,,,,,,,,,,,,,6,,65,0
35340,note_on,,1,0,6,,,,,,,,,,,,,,,,6,,64,64
35399,note_on,,59,0,6,,,,,,,,,,,,,,,,6,,64,0
35400,note_on,,241,0,9,,,,,,,,,,,,,,,,15,,58,48
35400,note_on,,0,0,9,,,,,,,,,,,,,,,,15,,74,48
35400,note_on,,0,0,9,,,,,,,,,,,,,,,,15,,67,48
35400,note_on,,0,0,9,,,,,,,,,,,,,,,,15,,62,48
35400,note_on,,241,0,8,,,,,,,,,,,,,,,,13,,58,48
35400,note_on,,1,0,6,,,,,,,,,,,,,,,,6,,62,64
35459,note_on,,59,0,6,,,,,,,,,,,,,,,,6,,62,0
35460,note_on,,1,0,6,,,,,,,,,,,,,,,,6,,61,64
35519,note_on,,119,0,8,,,,,,,,,,,,,,,,13,,58,0
35519,note_on,,0,0,9,,,,,,,,,,,,,,,,15,,67,0
35519,note_on,,0,0,9,,,,,,,,,,,,,,,,15,,62,0
35519,note_on,,59,0,6,,,,,,,,,,,,,,,,6,,61,0
35519,note_on,,119,0,9,,,,,,,,,,,,,,,,15,,58,0
35519,note_on,,0,0,9,,,,,,,,,,,,,,,,15,,74,0
35520,note_on,,1,0,6,,,,,,,,,,,,,,,,6,,62,64
35639,note_on,,119,0,6,,,,,,,,,,,,,,,,6,,62,0
35760,note_on,,0,0,9,,,,,,,,,,,,,,,,15,,74,48
35760,note_on,,0,0,9,,,,,,,,,,,,,,,,15,,79,48
35760,note_on,,241,0,9,,,,,,,,,,,,,,,,15,,55,48
35760,note_on,,241,0,8,,,,,,,,,,,,,,,,13,,55,48
35760,note_on,,0,0,9,,,,,,,,,,,,,,,,15,,58,48
35760,note_on,,0,0,9,,,,,,,,,,,,,,,,15,,70,48
35879,note_on,,119,0,9,,,,,,,,,,,,,,,,15,,55,0
35879,note_on,,0,0,9,,,,,,,,,,,,,,,,15,,58,0
35879,note_on,,0,0,9,,,,,,,,,,,,,,,,15,,70,0
35879,note_on,,0,0,9,,,,,,,,,,,,,,,,15,,74,0
35879,note_on,,0,0,9,,,,,,,,,,,,,,,,15,,79,0
35879,note_on,,119,0,8,,,,,,,,,,,,,,,,13,,55,0
35880,note_on,,241,0,6,,,,,,,,,,,,,,,,6,,62,64
35999,note_on,,119,0,6,,,,,,,,,,,,,,,,6,,62,0
36000,note_on,,1,0,6,,,,,,,,,,,,,,,,6,,70,64
36119,note_on,,119,0,6,,,,,,,,,,,,,,,,6,,70,0
36120,note_on,,0,0,9,,,,,,,,,,,,,,,,15,,64,48
36120,note_on,,1,0,6,,,,,,,,,,,,,,,,6,,69,64
36120,note_on,,0,0,9,,,,,,,,,,,,,,,,15,,69,48
36120,note_on,,0,0,9,,,,,,,,,,,,,,,,15,,57,48
36120,note_on,,241,0,9,,,,,,,,,,,,,,,,15,,49,48
36120,note_on,,0,0,9,,,,,,,,,,,,,,,,15,,76,48
36120,note_on,,241,0,8,,,,,,,,,,,,,,,,13,,49,48
36239,note_on,,119,0,9,,,,,,,,,,,,,,,,15,,49,0
36239,note_on,,0,0,9,,,,,,,,,,,,,,,,15,,76,0
36239,note_on,,0,0,9,,,,,,,,,,,,,,,,15,,69,0
36239,note_on,,0,0,9,,,,,,,,,,,,,,,,15,,57,0
36239,note_on,,0,0,9,,,,,,,,,,,,,,,,15,,64,0
36239,note_on,,119,0,8,,,,,,,,,,,,,,,,13,,49,0
36299,note_on,,179,0,6,,,,,,,,,,,,,,,,6,,69,0
36300,note_on,,1,0,6,,,,,,,,,,,,,,,,6,,67,64
36359,note_on,,59,0,6,,,,,,,,,,,,,,,,6,,67,0
36360,note_on,,1,0,6,,,,,,,,,,,,,,,,6,,69,64
36419,note_on,,59,0,6,,,,,,,,,,,,,,,,6,,69,0
36420,note_on,,1,0,6,,,,,,,,,,,,,,,,6,,70,64
36479,note_on,,59,0,6,,,,,,,,,,,,,,,,6,,70,0
36480,note_on,,1,0,6,,,,,,,,,,,,,,,,6,,69,64
36659,note_on,,179,0,6,,,,,,,,,,,,,,,,6,,69,0
36660,note_on,,1,0,6,,,,,,,,,,,,,,,,6,,67,64
36719,note_on,,59,0,6,,,,,,,,,,,,,,,,6,,67,0
36720,note_on,,1,0,6,,,,,,,,,,,,,,,,6,,69,64
36720,note_on,,0,0,9,,,,,,,,,,,,,,,,15,,57,48
36720,note_on,,481,0,9,,,,,,,,,,,,,,,,15,,50,48
36720,note_on,,0,0,9,,,,,,,,,,,,,,,,15,,74,48
36720,note_on,,0,0,9,,,,,,,,,,,,,,,,15,,69,48
36720,note_on,,0,0,9,,,,,,,,,,,,,,,,15,,65,48
36720,note_on,,481,0,8,,,,,,,,,,,,,,,,13,,50,48
36779,note_on,,59,0,6,,,,,,,,,,,,,,,,6,,69,0
36780,note_on,,1,0,6,,,,,,,,,,,,,,,,6,,70,64
36839,note_on,,0,0,9,,,,,,,,,,,,,,,,15,,65,0
36839,note_on,,0,0,9,,,,,,,,,,,,,,,,15,,57,0
36839,note_on,,119,0,8,,,,,,,,,,,,,,,,13,,50,0
36839,note_on,,59,0,6,,,,,,,,,,,,,,,,6,,70,0
36839,note_on,,0,0,9,,,,,,,,,,,,,,,,15,,69,0
36839,note_on,,0,0,9,,,,,,,,,,,,,,,,15,,74,0
36839,note_on,,119,0,9,,,,,,,,,,,,,,,,15,,50,0
36840,note_on,,1,0,8,,,,,,,,,,,,,,,,13,,49,48
36840,note_on,,1,0,9,,,,,,,,,,,,,,,,15,,49,48
36840,note_on,,0,0,9,,,,,,,,,,,,,,,,15,,69,48
36840,note_on,,0,0,9,,,,,,,,,,,,,,,,15,,64,48
36840,note_on,,0,0,9,,,,,,,,,,,,,,,,15,,57,48
36840,note_on,,0,0,9,,,,,,,,,,,,,,,,15,,76,48
36840,note_on,,1,0,6,,,,,,,,,,,,,,,,6,,69,64
37019,note_on,,179,0,6,,,,,,,,,,,,,,,,6,,69,0
37020,note_on,,1,0,6,,,,,,,,,,,,,,,,6,,67,64
37079,note_on,,0,0,9,,,,,,,,,,,,,,,,15,,76,0
37079,note_on,,0,0,9,,,,,,,,,,,,,,,,15,,69,0
37079,note_on,,0,0,9,,,,,,,,,,,,,,,,15,,64,0
37079,note_on,,0,0,9,,,,,,,,,,,,,,,,15,,57,0
37079,note_on,,59,0,6,,,,,,,,,,,,,,,,6,,67,0
37079,note_on,,239,0,8,,,,,,,,,,,,,,,,13,,49,0
37079,note_on,,239,0,9,,,,,,,,,,,,,,,,15,,49,0
37080,note_on,,1,0,8,,,,,,,,,,,,,,,,13,,50,48
37080,note_on,,1,0,6,,,,,,,,,,,,,,,,6,,65,64
37080,note_on,,0,0,9,,,,,,,,,,,,,,,,15,,69,48
37080,note_on,,0,0,9,,,,,,,,,,,,,,,,15,,74,48
37080,note_on,,0,0,9,,,,,,,,,,,,,,,,15,,62,48
37080,note_on,,1,0,9,,,,,,,,,,,,,,,,15,,50,48
37080,note_on,,0,0,9,,,,,,,,,,,,,,,,15,,65,48
37139,note_on,,59,0,6,,,,,,,,,,,,,,,,6,,65,0
37140,note_on,,1,0,6,,,,,,,,,,,,,,,,6,,64,64
37199,note_on,,0,0,9,,,,,,,,,,,,,,,,15,,69,0
37199,note_on,,0,0,9,,,,,,,,,,,,,,,,15,,65,0
37199,note_on,,119,0,8,,,,,,,,,,,,,,,,13,,50,0
37199,note_on,,59,0,6,,,,,,,,,,,,,,,,6,,64,0
37199,note_on,,119,0,9,,,,,,,,,,,,,,,,15,,50,0
37200,note_on,,1,0,9,,,,,,,,,,,,,,,,15,,55,48
37200,note_on,,0,0,9,,,,,,,,,,,,,,,,15,,70,48
37200,note_on,,0,0,9,,,,,,,,,,,,,,,,15,,67,48
37200,note_on,,1,0,6,,,,,,,,,,,,,,,,6,,65,64
37200,note_on,,1,0,8,,,,,,,,,,,,,,,,13,,55,48
37259,note_on,,59,0,6,,,,,,,,,,,,,,,,6,,65,0
37260,note_on,,1,0,6,,,,,,,,,,,,,,,,6,,67,64
37319,note_on,,0,0,9,,,,,,,,,,,,,,,,15,,55,0
37319,note_on,,119,0,9,,,,,,,,,,,,,,,,15,,62,0
37319,note_on,,119,0,8,,,,,,,,,,,,,,,,13,,55,0
37319,note_on,,0,0,9,,,,,,,,,,,,,,,,15,,70,0
37319,note_on,,59,0,6,,,,,,,,,,,,,,,,6,,67,0
37319,note_on,,0,0,9,,,,,,,,,,,,,,,,15,,67,0
37320,note_on,,1,0,6,,,,,,,,,,,,,,,,6,,65,64
37320,note_on,,1,0,9,,,,,,,,,,,,,,,,15,,57,48
37320,note_on,,0,0,9,,,,,,,,,,,,,,,,15,,64,48
37320,note_on,,0,0,9,,,,,,,,,,,,,,,,15,,69,48
37320,note_on,,1,0,8,,,,,,,,,,,,,,,,13,,57,48
37349,note_on,,29,0,6,,,,,,,,,,,,,,,,6,,65,0
37350,note_on,,1,0,6,,,,,,,,,,,,,,,,6,,64,64
37364,note_on,,14,0,6,,,,,,,,,,,,,,,,6,,64,0
37365,note_on,,1,0,6,,,,,,,,,,,,,,,,6,,65,64
37379,note_on,,14,0,6,,,,,,,,,,,,,,,,6,,65,0
37380,note_on,,1,0,6,,,,,,,,,,,,,,,,6,,64,64
37394,note_on,,14,0,6,,,,,,,,,,,,,,,,6,,64,0
37395,note_on,,1,0,6,,,,,,,,,,,,,,,,6,,65,64
37409,note_on,,14,0,6,,,,,,,,,,,,,,,,6,,65,0
37410,note_on,,1,0,6,,,,,,,,,,,,,,,,6,,64,64
37424,note_on,,14,0,6,,,,,,,,,,,,,,,,6,,64,0
37425,note_on,,1,0,6,,,,,,,,,,,,,,,,6,,65,64
37439,note_on,,14,0,6,,,,,,,,,,,,,,,,6,,65,0
37439,note_on,,119,0,8,,,,,,,,,,,,,,,,13,,57,0
37439,note_on,,0,0,9,,,,,,,,,,,,,,,,15,,57,0
37439,note_on,,119,0,9,,,,,,,,,,,,,,,,15,,74,0
37440,note_on,,1,0,9,,,,,,,,,,,,,,,,15,,45,48
37440,note_on,,0,0,9,,,,,,,,,,,,,,,,15,,73,48
37440,note_on,,1,0,6,,,,,,,,,,,,,,,,6,,64,64
37440,note_on,,1,0,8,,,,,,,,,,,,,,,,13,,45,48
37454,note_on,,14,0,6,,,,,,,,,,,,,,,,6,,64,0
37455,note_on,,1,0,6,,,,,,,,,,,,,,,,6,,65,64
37469,note_on,,14,0,6,,,,,,,,,,,,,,,,6,,65,0
37470,note_on,,1,0,6,,,,,,,,,,,,,,,,6,,62,64
37484,note_on,,14,0,6,,,,,,,,,,,,,,,,6,,62,0
37485,note_on,,1,0,6,,,,,,,,,,,,,,,,6,,64,64
37499,note_on,,14,0,6,,,,,,,,,,,,,,,,6,,64,0
37500,note_on,,1,0,6,,,,,,,,,,,,,,,,6,,62,64
37559,note_on,,59,0,6,,,,,,,,,,,,,,,,6,,62,0
37559,note_on,,119,0,9,,,,,,,,,,,,,,,,15,,69,0
37559,note_on,,0,0,9,,,,,,,,,,,,,,,,15,,64,0
37559,note_on,,0,0,9,,,,,,,,,,,,,,,,15,,45,0
37559,note_on,,0,0,9,,,,,,,,,,,,,,,,15,,73,0
37559,note_on,,119,0,8,,,,,,,,,,,,,,,,13,,45,0
37560,note_on,,0,0,9,,,,,,,,,,,,,,,,15,,74,48
37560,note_on,,0,0,9,,,,,,,,,,,,,,,,15,,69,48
37560,note_on,,0,0,9,,,,,,,,,,,,,,,,15,,65,48
37560,note_on,,0,0,9,,,,,,,,,,,,,,,,15,,57,48
37560,note_on,,1,0,6,,,,,,,,,,,,,,,,6,,62,64
37560,note_on,,1,0,9,,,,,,,,,,,,,,,,15,,50,48
37560,note_on,,1,0,8,,,,,,,,,,,,,,,,13,,50,48
37679,note_on,,119,0,9,,,,,,,,,,,,,,,,15,,50,0
37679,note_on,,119,0,6,,,,,,,,,,,,,,,,6,,62,0
37679,note_on,,119,0,8,,,,,,,,,,,,,,,,13,,50,0
37680,note_on,,1,0,6,,,,,,,,,,,,,,,,6,,62,64
37680,note_on,,1,0,8,,,,,,,,,,,,,,,,13,,53,48
37680,note_on,,1,0,9,,,,,,,,,,,,,,,,15,,53,48
37799,note_on,,0,0,9,,,,,,,,,,,,,,,,15,,57,0
37799,note_on,,119,0,6,,,,,,,,,,,,,,,,6,,62,0
37799,end_of_track,,0,1,6,,,,,,,,,,,,,,,,,,,
37799,note_on,,0,0,9,,,,,,,,,,,,,,,,15,,53,0
37799,note_on,,0,0,9,,,,,,,,,,,,,,,,15,,65,0
37799,note_on,,119,0,9,,,,,,,,,,,,,,,,15,,74,0
37799,note_on,,0,0,9,,,,,,,,,,,,,,,,15,,69,0
37799,note_on,,119,0,8,,,,,,,,,,,,,,,,13,,53,0
37800,note_on,,0,0,9,,,,,,,,,,,,,,,,15,,61,48
37800,note_on,,0,0,9,,,,,,,,,,,,,,,,15,,64,48
37800,note_on,,1,0,9,,,,,,,,,,,,,,,,15,,57,48
37800,note_on,,1,0,8,,,,,,,,,,,,,,,,13,,57,72
37800,note_on,,16201,0,5,,,,,,,,,,,,,,,,2,,57,72
37860,note_on,,4501,0,7,,,,,,,,,,,,,,,,10,,69,72
37919,note_on,,59,0,7,,,,,,,,,,,,,,,,10,,69,0
37919,note_on,,119,0,9,,,,,,,,,,,,,,,,15,,57,0
37919,note_on,,0,0,9,,,,,,,,,,,,,,,,15,,64,0
37919,note_on,,0,0,9,,,,,,,,,,,,,,,,15,,61,0
37919,note_on,,119,0,5,,,,,,,,,,,,,,,,2,,57,0
37919,note_on,,119,0,8,,,,,,,,,,,,,,,,13,,57,0
37920,note_on,,0,0,9,,,,,,,,,,,,,,,,15,,69,72
37920,note_on,,1,0,5,,,,,,,,,,,,,,,,2,,53,72
37920,note_on,,1,0,8,,,,,,,,,,,,,,,,13,,53,72
37920,note_on,,0,0,9,,,,,,,,,,,,,,,,15,,62,72
37920,note_on,,1,0,9,,,,,,,,,,,,,,,,15,,53,72
37920,note_on,,1,0,7,,,,,,,,,,,,,,,,10,,74,72
38039,note_on,,0,0,9,,,,,,,,,,,,,,,,15,,69,0
38039,note_on,,0,0,9,,,,,,,,,,,,,,,,15,,62,0
38039,note_on,,119,0,5,,,,,,,,,,,,,,,,2,,53,0
38039,note_on,,119,0,9,,,,,,,,,,,,,,,,15,,53,0
38039,note_on,,119,0,8,,,,,,,,,,,,,,,,13,,53,0
38040,note_on,,1,0,9,,,,,,,,,,,,,,,,15,,50,72
38040,note_on,,0,0,9,,,,,,,,,,,,,,,,15,,74,72
38040,note_on,,0,0,9,,,,,,,,,,,,,,,,15,,65,72
38040,note_on,,1,0,5,,,,,,,,,,,,,,,,2,,50,72
38040,note_on,,0,0,9,,,,,,,,,,,,,,,,15,,69,72
38040,note_on,,1,0,8,,,,,,,,,,,,,,,,13,,50,72
38099,note_on,,179,0,7,,,,,,,,,,,,,,,,10,,74,0
38100,note_on,,1,0,7,,,,,,,,,,,,,,,,10,,77,72
38159,note_on,,0,0,9,,,,,,,,,,,,,,,,15,,69,0
38159,note_on,,119,0,8,,,,,,,,,,,,,,,,13,,50,0
38159,note_on,,59,0,7,,,,,,,,,,,,,,,,10,,77,0
38159,note_on,,0,0,9,,,,,,,,,,,,,,,,15,,74,0
38159,note_on,,119,0,9,,,,,,,,,,,,,,,,15,,50,0
38159,note_on,,0,0,9,,,,,,,,,,,,,,,,15,,65,0
38159,note_on,,119,0,5,,,,,,,,,,,,,,,,2,,50,0
38160,note_on,,1,0,9,,,,,,,,,,,,,,,,15,,58,72
38160,note_on,,0,0,9,,,,,,,,,,,,,,,,15,,67,72
38160,note_on,,0,0,9,,,,,,,,,,,,,,,,15,,62,72
38160,note_on,,1,0,5,,,,,,,,,,,,,,,,2,,58,72
38160,note_on,,1,0,7,,,,,,,,,,,,,,,,10,,76,72
38160,note_on,,1,0,8,,,,,,,,,,,,,,,,13,,58,72
38219,note_on,,59,0,7,,,,,,,,,,,,,,,,10,,76,0
38220,note_on,,1,0,7,,,,,,,,,,,,,,,,10,,74,72
38279,note_on,,119,0,5,,,,,,,,,,,,,,,,2,,58,0
38279,note_on,,0,0,9,,,,,,,,,,,,,,,,15,,62,0
38279,note_on,,0,0,9,,,,,,,,,,,,,,,,15,,67,0
38279,note_on,,119,0,9,,,,,,,,,,,,,,,,15,,58,0
38279,note_on,,119,0,8,,,,,,,,,,,,,,,,13,,58,0
38279,note_on,,59,0,7,,,,,,,,,,,,,,,,10,,74,0
38280,note_on,,0,0,9,,,,,,,,,,,,,,,,15,,69,72
38280,note_on,,0,0,9,,,,,,,,,,,,,,,,15,,64,72
38280,note_on,,0,0,9,,,,,,,,,,,,,,,,15,,61,72
38280,note_on,,1,0,9,,,,,,,,,,,,,,,,15,,57,72
38280,note_on,,1,0,5,,,,,,,,,,,,,,,,2,,57,72
38280,note_on,,1,0,8,,,,,,,,,,,,,,,,13,,57,72
38280,note_on,,1,0,7,,,,,,,,,,,,,,,,10,,73,72
38339,note_on,,59,0,7,,,,,,,,,,,,,,,,10,,73,0
38340,note_on,,1,0,7,,,,,,,,,,,,,,,,10,,82,72
38399,note_on,,59,0,7,,,,,,,,,,,,,,,,10,,82,0
38400,note_on,,1,0,7,,,,,,,,,,,,,,,,10,,81,72
38459,note_on,,179,0,9,,,,,,,,,,,,,,,,15,,57,0
38459,note_on,,179,0,5,,,,,,,,,,,,,,,,2,,57,0
38459,note_on,,179,0,8,,,,,,,,,,,,,,,,13,,57,0
38460,note_on,,1,0,5,,,,,,,,,,,,,,,,2,,55,72
38460,note_on,,1,0,8,,,,,,,,,,,,,,,,13,,55,72
38460,note_on,,1,0,9,,,,,,,,,,,,,,,,15,,55,72
38519,note_on,,0,0,9,,,,,,,,,,,,,,,,15,,64,0
38519,note_on,,59,0,8,,,,,,,,,,,,,,,,13,,55,0
38519,note_on,,59,0,5,,,,,,,,,,,,,,,,2,,55,0
38519,note_on,,0,0,9,,,,,,,,,,,,,,,,15,,61,0
38519,note_on,,0,0,9,,,,,,,,,,,,,,,,15,,55,0
38519,note_on,,59,0,9,,,,,,,,,,,,,,,,15,,69,0
38520,note_on,,1,0,5,,,,,,,,,,,,,,,,2,,54,72
38520,note_on,,0,0,9,,,,,,,,,,,,,,,,15,,69,72
38520,note_on,,0,0,9,,,,,,,,,,,,,,,,15,,62,72
38520,note_on,,1,0,9,,,,,,,,,,,,,,,,15,,54,72
38520,note_on,,0,0,9,,,,,,,,,,,,,,,,15,,74,72
38520,note_on,,1,0,8,,,,,,,,,,,,,,,,13,,54,72
38579,note_on,,179,0,7,,,,,,,,,,,,,,,,10,,81,0
38610,note_on,,31,0,7,,,,,,,,,,,,,,,,10,,72,72
38639,note_on,,119,0,9,,,,,,,,,,,,,,,,15,,54,0
38639,note_on,,29,0,7,,,,,,,,,,,,,,,,10,,72,0
38639,note_on,,0,0,9,,,,,,,,,,,,,,,,15,,62,0
38639,note_on,,119,0,8,,,,,,,,,,,,,,,,13,,54,0
38639,note_on,,119,0,5,,,,,,,,,,,,,,,,2,,54,0
38639,note_on,,0,0,9,,,,,,,,,,,,,,,,15,,69,0
38640,note_on,,1,0,9,,,,,,,,,,,,,,,,15,,55,72
38640,note_on,,0,0,9,,,,,,,,,,,,,,,,15,,70,72
38640,note_on,,0,0,9,,,,,,,,,,,,,,,,15,,67,72
38640,note_on,,0,0,9,,,,,,,,,,,,,,,,15,,62,72
38640,note_on,,1,0,8,,,,,,,,,,,,,,,,13,,55,72
38640,note_on,,1,0,7,,,,,,,,,,,,,,,,10,,70,72
38640,note_on,,1,0,5,,,,,,,,,,,,,,,,2,,55,72
38699,note_on,,59,0,7,,,,,,,,,,,,,,,,10,,70,0
38700,note_on,,1,0,7,,,,,,,,,,,,,,,,10,,69,72
38759,note_on,,0,0,9,,,,,,,,,,,,,,,,15,,62,0
38759,note_on,,0,0,9,,,,,,,,,,,,,,,,15,,67,0
38759,note_on,,0,0,9,,,,,,,,,,,,,,,,15,,70,0
38759,note_on,,119,0,9,,,,,,,,,,,,,,,,15,,55,0
38759,note_on,,59,0,7,,,,,,,,,,,,,,,,10,,69,0
38759,note_on,,119,0,8,,,,,,,,,,,,,,,,13,,55,0
38759,note_on,,119,0,5,,,,,,,,,,,,,,,,2,,55,0
38760,note_on,,0,0,9,,,,,,,,,,,,,,,,15,,62,72
38760,note_on,,0,0,9,,,,,,,,,,,,,,,,15,,67,72
38760,note_on,,1,0,9,,,,,,,,,,,,,,,,15,,58,72
38760,note_on,,1,0,5,,,,,,,,,,,,,,,,2,,58,72
38760,note_on,,1,0,8,,,,,,,,,,,,,,,,13,,58,72
38760,note_on,,1,0,7,,,,,,,,,,,,,,,,10,,67,72
38819,note_on,,59,0,7,,,,,,,,,,,,,,,,10,,67,0
38820,note_on,,1,0,7,,,,,,,,,,,,,,,,10,,65,72
38879,note_on,,59,0,7,,,,,,,,,,,,,,,,10,,65,0
38879,note_on,,0,0,9,,,,,,,,,,,,,,,,15,,62,0
38879,note_on,,119,0,8,,,,,,,,,,,,,,,,13,,58,0
38879,note_on,,119,0,9,,,,,,,,,,,,,,,,15,,74,0
38879,note_on,,0,0,9,,,,,,,,,,,,,,,,15,,58,0
38879,note_on,,0,0,9,,,,,,,,,,,,,,,,15,,67,0
38879,note_on,,119,0,5,,,,,,,,,,,,,,,,2,,58,0
38880,note_on,,1,0,9,,,,,,,,,,,,,,,,15,,60,72
38880,note_on,,0,0,9,,,,,,,,,,,,,,,,15,,64,72
38880,note_on,,0,0,9,,,,,,,,,,,,,,,,15,,67,72
38880,note_on,,1,0,7,,,,,,,,,,,,,,,,10,,64,72
38880,note_on,,0,0,9,,,,,,,,,,,,,,,,15,,72,72
38880,note_on,,1,0,8,,,,,,,,,,,,,,,,13,,60,72
38880,note_on,,1,0,5,,,,,,,,,,,,,,,,2,,60,72
38939,note_on,,59,0,7,,,,,,,,,,,,,,,,10,,64,0
38940,note_on,,1,0,7,,,,,,,,,,,,,,,,10,,70,72
38999,note_on,,119,0,8,,,,,,,,,,,,,,,,13,,60,0
38999,note_on,,0,0,9,,,,,,,,,,,,,,,,15,,64,0
38999,note_on,,0,0,9,,,,,,,,,,,,,,,,15,,67,0
38999,note_on,,119,0,9,,,,,,,,,,,,,,,,15,,60,0
38999,note_on,,119,0,5,,,,,,,,,,,,,,,,2,,60,0
38999,note_on,,59,0,7,,,,,,,,,,,,,,,,10,,70,0
39000,note_on,,0,0,9,,,,,,,,,,,,,,,,15,,65,72
39000,note_on,,1,0,9,,,,,,,,,,,,,,,,15,,53,72
39000,note_on,,1,0,5,,,,,,,,,,,,,,,,2,,53,72
39000,note_on,,0,0,9,,,,,,,,,,,,,,,,15,,60,72
39000,note_on,,1,0,8,,,,,,,,,,,,,,,,13,,53,72
39000,note_on,,1,0,7,,,,,,,,,,,,,,,,10,,69,72
39000,note_on,,0,0,9,,,,,,,,,,,,,,,,15,,69,72
39059,note_on,,59,0,7,,,,,,,,,,,,,,,,10,,69,0
39060,note_on,,1,0,7,,,,,,,,,,,,,,,,10,,79,72
39119,note_on,,59,0,7,,,,,,,,,,,,,,,,10,,79,0
39120,note_on,,1,0,7,,,,,,,,,,,,,,,,10,,77,72
39179,note_on,,0,0,9,,,,,,,,,,,,,,,,15,,69,0
39179,note_on,,179,0,9,,,,,,,,,,,,,,,,15,,53,0
39179,note_on,,179,0,8,,,,,,,,,,,,,,,,13,,53,0
39179,note_on,,179,0,5,,,,,,,,,,,,,,,,2,,53,0
39180,note_on,,0,0,9,,,,,,,,,,,,,,,,15,,67,72
39180,note_on,,1,0,9,,,,,,,,,,,,,,,,15,,52,72
39180,note_on,,1,0,8,,,,,,,,,,,,,,,,13,,52,72
39180,note_on,,1,0,5,,,,,,,,,,,,,,,,2,,52,72
39239,note_on,,59,0,5,,,,,,,,,,,,,,,,2,,52,0
39239,note_on,,59,0,9,,,,,,,,,,,,,,,,15,,72,0
39239,note_on,,0,0,9,,,,,,,,,,,,,,,,15,,65,0
39239,note_on,,0,0,9,,,,,,,,,,,,,,,,15,,60,0
39239,note_on,,0,0,9,,,,,,,,,,,,,,,,15,,52,0
39239,note_on,,0,0,9,,,,,,,,,,,,,,,,15,,67,0
39239,note_on,,59,0,8,,,,,,,,,,,,,,,,13,,52,0
39240,note_on,,0,0,9,,,,,,,,,,,,,,,,15,,65,72
39240,note_on,,1,0,8,,,,,,,,,,,,,,,,13,,50,72
39240,note_on,,0,0,9,,,,,,,,,,,,,,,,15,,69,72
39240,note_on,,0,0,9,,,,,,,,,,,,,,,,15,,74,72
39240,note_on,,1,0,9,,,,,,,,,,,,,,,,15,,50,72
39240,note_on,,1,0,5,,,,,,,,,,,,,,,,2,,50,72
39299,note_on,,179,0,7,,,,,,,,,,,,,,,,10,,77,0
39300,note_on,,1,0,7,,,,,,,,,,,,,,,,10,,86,72
39359,note_on,,0,0,9,,,,,,,,,,,,,,,,15,,69,0
39359,note_on,,0,0,9,,,,,,,,,,,,,,,,15,,65,0
39359,note_on,,119,0,5,,,,,,,,,,,,,,,,2,,50,0
39359,note_on,,59,0,7,,,,,,,,,,,,,,,,10,,86,0
39359,note_on,,0,0,9,,,,,,,,,,,,,,,,15,,74,0
39359,note_on,,119,0,9,,,,,,,,,,,,,,,,15,,50,0
39359,note_on,,119,0,8,,,,,,,,,,,,,,,,13,,50,0
39360,note_on,,1,0,5,,,,,,,,,,,,,,,,2,,57,72
39360,note_on,,1,0,7,,,,,,,,,,,,,,,,10,,85,72
39360,note_on,,1,0,8,,,,,,,,,,,,,,,,13,,57,72
39360,note_on,,1,0,9,,,,,,,,,,,,,,,,15,,57,72
39360,note_on,,0,0,9,,,,,,,,,,,,,,,,15,,76,72
39360,note_on,,0,0,9,,,,,,,,,,,,,,,,15,,73,72
39360,note_on,,0,0,9,,,,,,,,,,,,,,,,15,,64,72
39360,note_on,,0,0,9,,,,,,,,,,,,,,,,15,,69,72
39419,note_on,,59,0,7,,,,,,,,,,,,,,,,10,,85,0
39420,note_on,,1,0,7,,,,,,,,,,,,,,,,10,,81,72
39449,note_on,,29,0,7,,,,,,,,,,,,,,,,10,,81,0
39450,note_on,,1,0,7,,,,,,,,,,,,,,,,10,,83,72
39479,note_on,,0,0,9,,,,,,,,,,,,,,,,15,,64,0
39479,note_on,,0,0,9,,,,,,,,,,,,,,,,15,,73,0
39479,note_on,,0,0,9,,,,,,,,,,,,,,,,15,,69,0
39479,note_on,,0,0,9,,,,,,,,,,,,,,,,15,,76,0
39479,note_on,,29,0,7,,,,,,,,,,,,,,,,10,,83,0
39479,note_on,,119,0,9,,,,,,,,,,,,,,,,15,,57,0
39479,note_on,,119,0,8,,,,,,,,,,,,,,,,13,,57,0
39479,note_on,,119,0,5,,,,,,,,,,,,,,,,2,,57,0
39480,note_on,,1,0,7,,,,,,,,,,,,,,,,10,,84,72
39539,note_on,,59,0,7,,,,,,,,,,,,,,,,10,,84,0
39540,note_on,,1,0,7,,,,,,,,,,,,,,,,10,,76,72
39599,note_on,,59,0,7,,,,,,,,,,,,,,,,10,,76,0
39600,note_on,,121,0,8,,,,,,,,,,,,,,,,13,,62,72
39600,note_on,,121,0,5,,,,,,,,,,,,,,,,2,,62,72
39600,note_on,,121,0,9,,,,,,,,,,,,,,,,15,,62,72
39600,note_on,,0,0,9,,,,,,,,,,,,,,,,15,,72,72
39600,note_on,,0,0,9,,,,,,,,,,,,,,,,15,,69,72
39600,note_on,,0,0,9,,,,,,,,,,,,,,,,15,,66,72
39600,note_on,,1,0,7,,,,,,,,,,,,,,,,10,,78,72
39600,note_on,,0,0,9,,,,,,,,,,,,,,,,15,,74,72
39659,note_on,,59,0,7,,,,,,,,,,,,,,,,10,,78,0
39660,note_on,,1,0,7,,,,,,,,,,,,,,,,10,,84,72
39719,note_on,,119,0,8,,,,,,,,,,,,,,,,13,,62,0
39719,note_on,,0,0,9,,,,,,,,,,,,,,,,15,,66,0
39719,note_on,,0,0,9,,,,,,,,,,,,,,,,15,,74,0
39719,note_on,,0,0,9,,,,,,,,,,,,,,,,15,,72,0
39719,note_on,,0,0,9,,,,,,,,,,,,,,,,15,,69,0
39719,note_on,,59,0,7,,,,,,,,,,,,,,,,10,,84,0
39719,note_on,,119,0,5,,,,,,,,,,,,,,,,2,,62,0
39719,note_on,,119,0,9,,,,,,,,,,,,,,,,15,,62,0
39720,note_on,,1,0,9,,,,,,,,,,,,,,,,15,,55,72
39720,note_on,,0,0,9,,,,,,,,,,,,,,,,15,,74,72
39720,note_on,,0,0,9,,,,,,,,,,,,,,,,15,,71,72
39720,note_on,,0,0,9,,,,,,,,,,,,,,,,15,,67,72
39720,note_on,,0,0,9,,,,,,,,,,,,,,,,15,,62,72
39720,note_on,,1,0,5,,,,,,,,,,,,,,,,2,,55,72
39720,note_on,,1,0,8,,,,,,,,,,,,,,,,13,,55,72
39720,note_on,,1,0,7,,,,,,,,,,,,,,,,10,,83,72
39779,note_on,,59,0,7,,,,,,,,,,,,,,,,10,,83,0
39780,note_on,,1,0,7,,,,,,,,,,,,,,,,10,,79,72
39809,note_on,,29,0,7,,,,,,,,,,,,,,,,10,,79,0
39810,note_on,,1,0,7,,,,,,,,,,,,,,,,10,,81,72
39839,note_on,,0,0,9,,,,,,,,,,,,,,,,15,,74,0
39839,note_on,,119,0,9,,,,,,,,,,,,,,,,15,,55,0
39839,note_on,,0,0,9,,,,,,,,,,,,,,,,15,,71,0
39839,note_on,,29,0,7,,,,,,,,,,,,,,,,10,,81,0
39839,note_on,,0,0,9,,,,,,,,,,,,,,,,15,,62,0
39839,note_on,,119,0,5,,,,,,,,,,,,,,,,2,,55,0
39839,note_on,,0,0,9,,,,,,,,,,,,,,,,15,,67,0
39839,note_on,,119,0,8,,,,,,,,,,,,,,,,13,,55,0
39840,note_on,,1,0,7,,,,,,,,,,,,,,,,10,,82,72
39899,note_on,,59,0,7,,,,,,,,,,,,,,,,10,,82,0
39900,note_on,,1,0,7,,,,,,,,,,,,,,,,10,,74,72
39959,note_on,,59,0,7,,,,,,,,,,,,,,,,10,,74,0
39960,note_on,,121,0,5,,,,,,,,,,,,,,,,2,,60,72
39960,note_on,,121,0,8,,,,,,,,,,,,,,,,13,,60,72
39960,note_on,,0,0,9,,,,,,,,,,,,,,,,15,,72,72
39960,note_on,,121,0,9,,,,,,,,,,,,,,,,15,,60,72
39960,note_on,,0,0,9,,,,,,,,,,,,,,,,15,,70,72
39960,note_on,,0,0,9,,,,,,,,,,,,,,,,15,,67,72
39960,note_on,,0,0,9,,,,,,,,,,,,,,,,15,,64,72
39960,note_on,,1,0,7,,,,,,,,,,,,,,,,10,,76,72
40019,note_on,,59,0,7,,,,,,,,,,,,,,,,10,,76,0
40020,note_on,,1,0,7,,,,,,,,,,,,,,,,10,,82,72
40079,note_on,,0,0,9,,,,,,,,,,,,,,,,15,,72,0
40079,note_on,,119,0,8,,,,,,,,,,,,,,,,13,,60,0
40079,note_on,,0,0,9,,,,,,,,,,,,,,,,15,,64,0
40079,note_on,,119,0,5,,,,,,,,,,,,,,,,2,,60,0
40079,note_on,,0,0,9,,,,,,,,,,,,,,,,15,,67,0
40079,note_on,,0,0,9,,,,,,,,,,,,,,,,15,,70,0
40079,note_on,,59,0,7,,,,,,,,,,,,,,,,10,,82,0
40079,note_on,,119,0,9,,,,,,,,,,,,,,,,15,,60,0
40080,note_on,,1,0,9,,,,,,,,,,,,,,,,15,,53,72
40080,note_on,,0,0,9,,,,,,,,,,,,,,,,15,,69,72
40080,note_on,,0,0,9,,,,,,,,,,,,,,,,15,,65,72
40080,note_on,,0,0,9,,,,,,,,,,,,,,,,15,,60,72
40080,note_on,,1,0,5,,,,,,,,,,,,,,,,2,,53,72
40080,note_on,,1,0,7,,,,,,,,,,,,,,,,10,,81,72
40080,note_on,,1,0,8,,,,,,,,,,,,,,,,13,,53,72
40080,note_on,,0,0,9,,,,,,,,,,,,,,,,15,,72,72
40139,note_on,,59,0,7,,,,,,,,,,,,,,,,10,,81,0
40140,note_on,,1,0,7,,,,,,,,,,,,,,,,10,,82,72
40169,note_on,,29,0,7,,,,,,,,,,,,,,,,10,,82,0
40170,note_on,,1,0,7,,,,,,,,,,,,,,,,10,,81,72
40199,note_on,,0,0,9,,,,,,,,,,,,,,,,15,,60,0
40199,note_on,,0,0,9,,,,,,,,,,,,,,,,15,,65,0
40199,note_on,,0,0,9,,,,,,,,,,,,,,,,15,,69,0
40199,note_on,,0,0,9,,,,,,,,,,,,,,,,15,,72,0
40199,note_on,,119,0,9,,,,,,,,,,,,,,,,15,,53,0
40199,note_on,,29,0,7,,,,,,,,,,,,,,,,10,,81,0
40199,note_on,,119,0,8,,,,,,,,,,,,,,,,13,,53,0
40199,note_on,,119,0,5,,,,,,,,,,,,,,,,2,,53,0
40200,note_on,,1,0,5,,,,,,,,,,,,,,,,2,,58,72
40200,note_on,,1,0,8,,,,,,,,,,,,,,,,13,,58,72
40200,note_on,,1,0,9,,,,,,,,,,,,,,,,15,,58,72
40200,note_on,,1,0,7,,,,,,,,,,,,,,,,10,,79,72
40200,note_on,,0,0,9,,,,,,,,,,,,,,,,15,,62,72
40200,note_on,,0,0,9,,,,,,,,,,,,,,,,15,,67,72
40229,note_on,,29,0,7,,,,,,,,,,,,,,,,10,,79,0
40230,note_on,,1,0,7,,,,,,,,,,,,,,,,10,,77,72
40259,note_on,,29,0,7,,,,,,,,,,,,,,,,10,,77,0
40260,note_on,,1,0,7,,,,,,,,,,,,,,,,10,,76,72
40289,note_on,,29,0,7,,,,,,,,,,,,,,,,10,,76,0
40290,note_on,,1,0,7,,,,,,,,,,,,,,,,10,,74,72
40319,note_on,,119,0,8,,,,,,,,,,,,,,,,13,,58,0
40319,note_on,,119,0,5,,,,,,,,,,,,,,,,2,,58,0
40319,note_on,,0,0,9,,,,,,,,,,,,,,,,15,,67,0
40319,note_on,,119,0,9,,,,,,,,,,,,,,,,15,,58,0
40319,note_on,,0,0,9,,,,,,,,,,,,,,,,15,,62,0
40319,note_on,,29,0,7,,,,,,,,,,,,,,,,10,,74,0
40320,note_on,,1,0,9,,,,,,,,,,,,,,,,15,,55,72
40320,note_on,,0,0,9,,,,,,,,,,,,,,,,15,,62,72
40320,note_on,,0,0,9,,,,,,,,,,,,,,,,15,,67,72
40320,note_on,,0,0,9,,,,,,,,,,,,,,,,15,,70,72
40320,note_on,,1,0,5,,,,,,,,,,,,,,,,2,,55,72
40320,note_on,,1,0,7,,,,,,,,,,,,,,,,10,,76,72
40320,note_on,,1,0,8,,,,,,,,,,,,,,,,13,,55,72
40349,note_on,,29,0,7,,,,,,,,,,,,,,,,10,,76,0
40350,note_on,,1,0,7,,,,,,,,,,,,,,,,10,,74,72
40379,note_on,,29,0,7,,,,,,,,,,,,,,,,10,,74,0
40380,note_on,,1,0,7,,,,,,,,,,,,,,,,10,,73,72
40409,note_on,,29,0,7,,,,,,,,,,,,,,,,10,,73,0
40410,note_on,,1,0,7,,,,,,,,,,,,,,,,10,,71,72
40439,note_on,,119,0,9,,,,,,,,,,,,,,,,15,,55,0
40439,note_on,,0,0,9,,,,,,,,,,,,,,,,15,,62,0
40439,note_on,,119,0,8,,,,,,,,,,,,,,,,13,,55,0
40439,note_on,,0,0,9,,,,,,,,,,,,,,,,15,,67,0
40439,note_on,,119,0,5,,,,,,,,,,,,,,,,2,,55,0
40439,note_on,,29,0,7,,,,,,,,,,,,,,,,10,,71,0
40439,note_on,,0,0,9,,,,,,,,,,,,,,,,15,,70,0
40440,note_on,,1,0,8,,,,,,,,,,,,,,,,13,,57,72
40440,note_on,,0,0,9,,,,,,,,,,,,,,,,15,,64,72
40440,note_on,,1,0,9,,,,,,,,,,,,,,,,15,,57,72
40440,note_on,,1,0,5,,,,,,,,,,,,,,,,2,,57,72
40440,note_on,,0,0,9,,,,,,,,,,,,,,,,15,,61,72
40440,note_on,,1,0,7,,,,,,,,,,,,,,,,10,,69,72
40499,note_on,,59,0,7,,,,,,,,,,,,,,,,10,,69,0
40500,note_on,,1,0,7,,,,,,,,,,,,,,,,10,,70,72
40529,note_on,,29,0,7,,,,,,,,,,,,,,,,10,,70,0
40530,note_on,,1,0,7,,,,,,,,,,,,,,,,10,,69,72
40559,note_on,,119,0,8,,,,,,,,,,,,,,,,13,,57,0
40559,note_on,,119,0,5,,,,,,,,,,,,,,,,2,,57,0
40559,note_on,,119,0,9,,,,,,,,,,,,,,,,15,,57,0
40559,note_on,,0,0,9,,,,,,,,,,,,,,,,15,,64,0
40559,note_on,,0,0,9,,,,,,,,,,,,,,,,15,,61,0
40559,note_on,,29,0,7,,,,,,,,,,,,,,,,10,,69,0
40560,note_on,,1,0,9,,,,,,,,,,,,,,,,15,,52,72
40560,note_on,,0,0,9,,,,,,,,,,,,,,,,15,,55,72
40560,note_on,,0,0,9,,,,,,,,,,,,,,,,15,,67,72
40560,note_on,,0,0,9,,,,,,,,,,,,,,,,15,,61,72
40560,note_on,,1,0,5,,,,,,,,,,,,,,,,2,,52,72
40560,note_on,,1,0,8,,,,,,,,,,,,,,,,13,,52,72
40560,note_on,,1,0,7,,,,,,,,,,,,,,,,10,,67,72
40589,note_on,,29,0,7,,,,,,,,,,,,,,,,10,,67,0
40590,note_on,,1,0,7,,,,,,,,,,,,,,,,10,,65,72
40619,note_on,,29,0,7,,,,,,,,,,,,,,,,10,,65,0
40620,note_on,,1,0,7,,,,,,,,,,,,,,,,10,,64,72
40649,note_on,,29,0,7,,,,,,,,,,,,,,,,10,,64,0
40650,note_on,,1,0,7,,,,,,,,,,,,,,,,10,,62,72
40679,note_on,,29,0,7,,,,,,,,,,,,,,,,10,,62,0
40679,note_on,,0,0,9,,,,,,,,,,,,,,,,15,,61,0
40679,note_on,,0,0,9,,,,,,,,,,,,,,,,15,,67,0
40679,note_on,,0,0,9,,,,,,,,,,,,,,,,15,,55,0
40679,note_on,,119,0,8,,,,,,,,,,,,,,,,13,,52,0
40679,note_on,,119,0,5,,,,,,,,,,,,,,,,2,,52,0
40679,note_on,,119,0,9,,,,,,,,,,,,,,,,15,,52,0
40680,note_on,,0,0,9,,,,,,,,,,,,,,,,15,,55,72
40680,note_on,,1,0,9,,,,,,,,,,,,,,,,15,,64,72
40680,note_on,,1,0,7,,,,,,,,,,,,,,,,10,,64,72
40680,note_on,,1,0,8,,,,,,,,,,,,,,,,13,,55,72
40680,note_on,,1,0,5,,,,,,,,,,,,,,,,2,,55,72
40680,note_on,,0,0,9,,,,,,,,,,,,,,,,15,,73,72
40709,note_on,,29,0,7,,,,,,,,,,,,,,,,10,,64,0
40710,note_on,,1,0,7,,,,,,,,,,,,,,,,10,,62,72
40739,note_on,,29,0,7,,,,,,,,,,,,,,,,10,,62,0
40740,note_on,,1,0,7,,,,,,,,,,,,,,,,10,,61,72
40769,note_on,,29,0,7,,,,,,,,,,,,,,,,10,,61,0
40770,note_on,,1,0,7,,,,,,,,,,,,,,,,10,,59,72
40799,note_on,,0,0,9,,,,,,,,,,,,,,,,15,,55,0
40799,note_on,,119,0,8,,,,,,,,,,,,,,,,13,,55,0
40799,note_on,,0,0,9,,,,,,,,,,,,,,,,15,,73,0
40799,note_on,,119,0,9,,,,,,,,,,,,,,,,15,,64,0
40799,note_on,,119,0,5,,,,,,,,,,,,,,,,2,,55,0
40799,note_on,,29,0,7,,,,,,,,,,,,,,,,10,,59,0
40800,note_on,,1,0,9,,,,,,,,,,,,,,,,15,,49,72
40800,note_on,,0,0,9,,,,,,,,,,,,,,,,15,,76,72
40800,note_on,,1,0,8,,,,,,,,,,,,,,,,13,,49,72
40800,note_on,,1,0,7,,,,,,,,,,,,,,,,10,,57,72
40800,note_on,,1,0,5,,,,,,,,,,,,,,,,2,,49,72
40800,note_on,,0,0,9,,,,,,,,,,,,,,,,15,,64,72
40800,note_on,,0,0,9,,,,,,,,,,,,,,,,15,,69,72
40979,note_on,,179,0,7,,,,,,,,,,,,,,,,10,,57,0
40979,note_on,,0,0,9,,,,,,,,,,,,,,,,15,,69,0
40979,note_on,,179,0,8,,,,,,,,,,,,,,,,13,,49,0
40979,note_on,,0,0,9,,,,,,,,,,,,,,,,15,,76,0
40979,note_on,,179,0,5,,,,,,,,,,,,,,,,2,,49,0
40979,note_on,,179,0,9,,,,,,,,,,,,,,,,15,,49,0
40979,note_on,,0,0,9,,,,,,,,,,,,,,,,15,,64,0
41010,note_on,,0,0,9,,,,,,,,,,,,,,,,15,,64,72
41010,note_on,,0,0,9,,,,,,,,,,,,,,,,15,,69,72
41010,note_on,,31,0,8,,,,,,,,,,,,,,,,13,,45,72
41010,note_on,,0,0,9,,,,,,,,,,,,,,,,15,,73,72
41010,note_on,,31,0,9,,,,,,,,,,,,,,,,15,,45,72
41010,note_on,,31,0,7,,,,,,,,,,,,,,,,10,,79,72
41010,note_on,,31,0,5,,,,,,,,,,,,,,,,2,,45,72
41039,note_on,,0,0,9,,,,,,,,,,,,,,,,15,,64,0
41039,note_on,,29,0,8,,,,,,,,,,,,,,,,13,,45,0
41039,note_on,,0,0,9,,,,,,,,,,,,,,,,15,,69,0
41039,note_on,,0,0,9,,,,,,,,,,,,,,,,15,,73,0
41039,note_on,,29,0,9,,,,,,,,,,,,,,,,15,,45,0
41039,note_on,,29,0,7,,,,,,,,,,,,,,,,10,,79,0
41039,note_on,,29,0,5,,,,,,,,,,,,,,,,2,,45,0
41040,note_on,,0,0,9,,,,,,,,,,,,,,,,15,,65,72
41040,note_on,,1,0,5,,,,,,,,,,,,,,,,2,,50,72
41040,note_on,,0,0,9,,,,,,,,,,,,,,,,15,,69,72
41040,note_on,,1,0,8,,,,,,,,,,,,,,,,13,,50,72
41040,note_on,,1,0,7,,,,,,,,,,,,,,,,10,,77,72
41040,note_on,,1,0,9,,,,,,,,,,,,,,,,15,,50,72
41040,note_on,,0,0,9,,,,,,,,,,,,,,,,15,,74,72
41129,note_on,,89,0,7,,,,,,,,,,,,,,,,10,,77,0
41130,note_on,,1,0,7,,,,,,,,,,,,,,,,10,,76,72
41159,note_on,,29,0,7,,,,,,,,,,,,,,,,10,,76,0
41159,note_on,,119,0,8,,,,,,,,,,,,,,,,13,,50,0
41159,note_on,,119,0,9,,,,,,,,,,,,,,,,15,,50,0
41159,note_on,,0,0,9,,,,,,,,,,,,,,,,15,,69,0
41159,note_on,,0,0,9,,,,,,,,,,,,,,,,15,,65,0
41159,note_on,,119,0,5,,,,,,,,,,,,,,,,2,,50,0
41159,note_on,,0,0,9,,,,,,,,,,,,,,,,15,,74,0
41160,note_on,,1,0,8,,,,,,,,,,,,,,,,13,,55,72
41160,note_on,,0,0,9,,,,,,,,,,,,,,,,15,,62,72
41160,note_on,,0,0,9,,,,,,,,,,,,,,,,15,,67,72
41160,note_on,,0,0,9,,,,,,,,,,,,,,,,15,,70,72
41160,note_on,,1,0,9,,,,,,,,,,,,,,,,15,,55,72
41160,note_on,,1,0,5,,,,,,,,,,,,,,,,2,,55,72
41160,note_on,,1,0,7,,,,,,,,,,,,,,,,10,,77,72
41189,note_on,,29,0,7,,,,,,,,,,,,,,,,10,,77,0
41190,note_on,,1,0,7,,,,,,,,,,,,,,,,10,,76,72
41219,note_on,,29,0,7,,,,,,,,,,,,,,,,10,,76,0
41220,note_on,,1,0,7,,,,,,,,,,,,,,,,10,,74,72
41279,note_on,,0,0,9,,,,,,,,,,,,,,,,15,,67,0
41279,note_on,,59,0,7,,,,,,,,,,,,,,,,10,,74,0
41279,note_on,,119,0,8,,,,,,,,,,,,,,,,13,,55,0
41279,note_on,,0,0,9,,,,,,,,,,,,,,,,15,,70,0
41279,note_on,,119,0,5,,,,,,,,,,,,,,,,2,,55,0
41279,note_on,,0,0,9,,,,,,,,,,,,,,,,15,,62,0
41279,note_on,,119,0,9,,,,,,,,,,,,,,,,15,,55,0
41280,note_on,,0,0,9,,,,,,,,,,,,,,,,15,,61,72
41280,note_on,,1,0,8,,,,,,,,,,,,,,,,13,,57,72
41280,note_on,,0,0,9,,,,,,,,,,,,,,,,15,,64,72
41280,note_on,,1,0,9,,,,,,,,,,,,,,,,15,,57,72
41280,note_on,,1,0,5,,,,,,,,,,,,,,,,2,,57,72
41280,note_on,,1,0,7,,,,,,,,,,,,,,,,10,,73,72
41294,note_on,,14,0,7,,,,,,,,,,,,,,,,10,,73,0
41295,note_on,,1,0,7,,,,,,,,,,,,,,,,10,,74,72
41309,note_on,,14,0,7,,,,,,,,,,,,,,,,10,,74,0
41310,note_on,,1,0,7,,,,,,,,,,,,,,,,10,,73,72
41324,note_on,,14,0,7,,,,,,,,,,,,,,,,10,,73,0
41325,note_on,,1,0,7,,,,,,,,,,,,,,,,10,,74,72
41339,note_on,,14,0,7,,,,,,,,,,,,,,,,10,,74,0
41340,note_on,,1,0,7,,,,,,,,,,,,,,,,10,,73,72
41354,note_on,,14,0,7,,,,,,,,,,,,,,,,10,,73,0
41355,note_on,,1,0,7,,,,,,,,,,,,,,,,10,,74,72
41369,note_on,,14,0,7,,,,,,,,,,,,,,,,10,,74,0
41370,note_on,,1,0,7,,,,,,,,,,,,,,,,10,,73,72
41384,note_on,,14,0,7,,,,,,,,,,,,,,,,10,,73,0
41385,note_on,,1,0,7,,,,,,,,,,,,,,,,10,,74,72
41399,note_on,,119,0,8,,,,,,,,,,,,,,,,13,,57,0
41399,note_on,,119,0,9,,,,,,,,,,,,,,,,15,,57,0
41399,note_on,,119,0,5,,,,,,,,,,,,,,,,2,,57,0
41399,note_on,,14,0,7,,,,,,,,,,,,,,,,10,,74,0
41400,note_on,,1,0,7,,,,,,,,,,,,,,,,10,,73,72
41400,note_on,,1,0,9,,,,,,,,,,,,,,,,15,,45,72
41400,note_on,,0,0,9,,,,,,,,,,,,,,,,15,,52,72
41400,note_on,,1,0,5,,,,,,,,,,,,,,,,2,,45,72
41400,note_on,,1,0,8,,,,,,,,,,,,,,,,13,,45,72
41414,note_on,,14,0,7,,,,,,,,,,,,,,,,10,,73,0
41415,note_on,,1,0,7,,,,,,,,,,,,,,,,10,,74,72
41429,note_on,,14,0,7,,,,,,,,,,,,,,,,10,,74,0
41430,note_on,,1,0,7,,,,,,,,,,,,,,,,10,,70,72
41444,note_on,,14,0,7,,,,,,,,,,,,,,,,10,,70,0
41445,note_on,,1,0,7,,,,,,,,,,,,,,,,10,,73,72
41459,note_on,,14,0,7,,,,,,,,,,,,,,,,10,,73,0
41459,note_on,,59,0,9,,,,,,,,,,,,,,,,15,,64,0
41460,note_on,,1,0,7,,,,,,,,,,,,,,,,10,,74,72
41460,note_on,,1,0,9,,,,,,,,,,,,,,,,15,,62,72
41519,note_on,,59,0,9,,,,,,,,,,,,,,,,15,,61,0
41519,note_on,,59,0,7,,,,,,,,,,,,,,,,10,,74,0
41519,note_on,,0,0,9,,,,,,,,,,,,,,,,15,,52,0
41519,note_on,,119,0,8,,,,,,,,,,,,,,,,13,,45,0
41519,note_on,,0,0,9,,,,,,,,,,,,,,,,15,,62,0
41519,note_on,,119,0,5,,,,,,,,,,,,,,,,2,,45,0
41519,note_on,,0,0,9,,,,,,,,,,,,,,,,15,,45,0
41520,note_on,,1,0,7,,,,,,,,,,,,,,,,10,,74,72
41520,note_on,,0,0,9,,,,,,,,,,,,,,,,15,,53,72
41520,note_on,,0,0,9,,,,,,,,,,,,,,,,15,,57,72
41520,note_on,,1,0,5,,,,,,,,,,,,,,,,2,,50,72
41520,note_on,,0,0,9,,,,,,,,,,,,,,,,15,,62,72
41520,note_on,,1,0,8,,,,,,,,,,,,,,,,13,,50,72
41520,note_on,,1,0,9,,,,,,,,,,,,,,,,15,,50,72
41639,note_on,,119,0,7,,,,,,,,,,,,,,,,10,,74,0
41640,note_on,,1,0,7,,,,,,,,,,,,,,,,10,,62,72
41759,note_on,,0,0,9,,,,,,,,,,,,,,,,15,,57,0
41759,note_on,,0,0,9,,,,,,,,,,,,,,,,15,,62,0
41759,note_on,,239,0,9,,,,,,,,,,,,,,,,15,,50,0
41759,note_on,,239,0,8,,,,,,,,,,,,,,,,13,,50,0
41759,end_of_track,,0,1,8,,,,,,,,,,,,,,,,,,,
41759,note_on,,239,0,5,,,,,,,,,,,,,,,,2,,50,0
41759,end_of_track,,0,1,5,,,,,,,,,,,,,,,,,,,
41759,note_on,,119,0,7,,,,,,,,,,,,,,,,10,,62,0
41759,end_of_track,,0,1,7,,,,,,,,,,,,,,,,,,,
41759,note_on,,0,0,9,,,,,,,,,,,,,,,,15,,53,0
41759,end_of_track,,0,1,9,,,,,,,,,,,,,,,,,,,
42240,end_of_track,,0,1,0,,,,,,,,,,,,,,,,,,,
42240,set_tempo,,41760,1,0,,,,,,,,,500000,,,,,,,,,,
