tick,type,data,time,meta,track,frame_rate,hours,minutes,seconds,frames,sub_frames,port,key,tempo,numerator,denominator,clocks_per_click,notated_32nd_notes_per_beat,control,value,channel,program,note,velocity
0,sequencer_specific,"(0, 0, 91, 35, 1, 0, 5, 4, 35, 0)",0,1,0,,,,,,,,,,,,,,,,,,,
0,midi_port,,0,1,8,,,,,,,0,,,,,,,,,,,,
0,track_name,,0,1,8,,,,,,,,,,,,,,,,,,,
0,program_change,,0,0,10,,,,,,,,,,,,,,,,15,6,,
0,note_on,,0,0,7,,,,,,,,,,,,,,,,11,,78,64
0,control_change,,0,0,7,,,,,,,,,,,,,,7,96,11,,,
0,control_change,,0,0,7,,,,,,,,,,,,,,10,24,11,,,
0,program_change,,0,0,7,,,,,,,,,,,,,,,,11,48,,
0,control_change,,0,0,7,,,,,,,,,,,,,,11,127,11,,,
0,midi_port,,0,1,7,,,,,,,0,,,,,,,,,,,,
0,track_name,,0,1,7,,,,,,,,,,,,,,,,,,,
0,note_on,,0,0,6,,,,,,,,,,,,,,,,10,,81,64
0,control_change,,0,0,6,,,,,,,,,,,,,,7,96,10,,,
0,control_change,,0,0,6,,,,,,,,,,,,,,10,48,10,,,
0,program_change,,0,0,6,,,,,,,,,,,,,,,,10,48,,
0,control_change,,0,0,6,,,,,,,,,,,,,,11,127,10,,,
0,control_change,,0,0,8,,,,,,,,,,,,,,11,127,12,,,
0,midi_port,,0,1,6,,,,,,,0,,,,,,,,,,,,
0,program_change,,0,0,8,,,,,,,,,,,,,,,,12,48,,
0,control_change,,0,0,8,,,,,,,,,,,,,,7,96,12,,,
0,control_change,,0,0,10,,,,,,,,,,,,,,11,127,15,,,
0,midi_port,,0,1,10,,,,,,,0,,,,,,,,,,,,
0,track_name,,0,1,10,,,,,,,,,,,,,,,,,,,
0,control_change,,0,0,10,,,,,,,,,,,,,,7,96,15,,,
0,note_on,,0,0,10,,,,,,,,,,,,,,,,15,,62,64
0,note_on,,0,0,10,,,,,,,,,,,,,,,,15,,66,64
0,note_on,,0,0,10,,,,,,,,,,,,,,,,15,,69,64
0,note_on,,0,0,9,,,,,,,,,,,,,,,,13,,62,64
0,control_change,,0,0,9,,,,,,,,,,,,,,7,96,13,,,
0,control_change,,0,0,9,,,,,,,,,,,,,,10,96,13,,,
0,program_change,,0,0,9,,,,,,,,,,,,,,,,13,48,,
0,control_change,,0,0,9,,,,,,,,,,,,,,11,127,13,,,
0,midi_port,,0,1,9,,,,,,,0,,,,,,,,,,,,
0,track_name,,0,1,9,,,,,,,,,,,,,,,,,,,
0,note_on,,0,0,8,,,,,,,,,,,,,,,,12,,62,64
0,control_change,,0,0,8,,,,,,,,,,,,,,10,80,12,,,
0,track_name,,0,1,6,,,,,,,,,,,,,,,,,,,
0,control_change,,0,0,10,,,,,,,,,,,,,,10,90,15,,,
0,track_name,,0,1,5,,,,,,,,,,,,,,,,,,,
0,midi_port,,0,1,4,,,,,,,0,,,,,,,,,,,,
0,end_of_track,,0,1,4,,,,,,,,,,,,,,,,,,,
0,program_change,,0,0,5,,,,,,,,,,,,,,,,5,73,,
0,midi_port,,0,1,5,,,,,,,0,,,,,,,,,,,,
0,control_change,,0,0,5,,,,,,,,,,,,,,10,65,5,,,
0,control_change,,0,0,5,,,,,,,,,,,,,,11,127,5,,,
0,end_of_track,,0,1,2,,,,,,,,,,,,,,,,,,,
0,midi_port,,0,1,2,,,,,,,0,,,,,,,,,,,,
0,midi_port,,0,1,3,,,,,,,0,,,,,,,,,,,,
0,end_of_track,,0,1,1,,,,,,,,,,,,,,,,,,,
0,track_name,,0,1,2,,,,,,,,,,,,,,,,,,,
0,track_name,,0,1,1,,,,,,,,,,,,,,,,,,,
0,end_of_track,,0,1,3,,,,,,,,,,,,,,,,,,,
0,time_signature,,0,1,0,,,,,,,,,,4,4,24,8,,,,,,
0,set_tempo,,0,1,0,,,,,,,,,500000,,,,,,,,,,
0,key_signature,,0,1,0,,,,,,,,D,,,,,,,,,,,
0,midi_port,,0,1,0,,,,,,,0,,,,,,,,,,,,
0,smpte_offset,,0,1,0,25,32,0,3,0,0,,,,,,,,,,,,,
0,instrument_name,,0,1,0,,,,,,,,,,,,,,,,,,,
0,track_name,,0,1,0,,,,,,,,,,,,,,,,,,,
0,midi_port,,0,1,1,,,,,,,0,,,,,,,,,,,,
0,track_name,,0,1,3,,,,,,,,,,,,,,,,,,,
29,note_on,,29,0,6,,,,,,,,,,,,,,,,10,,81,0
29,note_on,,29,0,7,,,,,,,,,,,,,,,,11,,78,0
30,note_on,,1,0,6,,,,,,,,,,,,,,,,10,,78,64
30,note_on,,1,0,7,,,,,,,,,,,,,,,,11,,74,64
59,note_on,,59,0,9,,,,,,,,,,,,,,,,13,,62,0
59,note_on,,29,0,7,,,,,,,,,,,,,,,,11,,74,0
59,note_on,,59,0,10,,,,,,,,,,,,,,,,15,,62,0
59,note_on,,29,0,6,,,,,,,,,,,,,,,,10,,78,0
59,note_on,,59,0,8,,,,,,,,,,,,,,,,12,,62,0
60,note_on,,1,0,6,,,,,,,,,,,,,,,,10,,78,64
60,note_on,,1,0,7,,,,,,,,,,,,,,,,11,,74,64
60,note_on,,1,0,10,,,,,,,,,,,,,,,,15,,62,64
60,note_on,,1,0,8,,,,,,,,,,,,,,,,12,,62,64
60,note_on,,1,0,9,,,,,,,,,,,,,,,,13,,62,64
89,note_on,,29,0,6,,,,,,,,,,,,,,,,10,,78,0
89,note_on,,29,0,7,,,,,,,,,,,,,,,,11,,74,0
90,note_on,,1,0,6,,,,,,,,,,,,,,,,10,,81,64
90,note_on,,1,0,7,,,,,,,,,,,,,,,,11,,78,64
119,note_on,,59,0,9,,,,,,,,,,,,,,,,13,,62,0
119,note_on,,29,0,7,,,,,,,,,,,,,,,,11,,78,0
119,note_on,,29,0,6,,,,,,,,,,,,,,,,10,,81,0
119,note_on,,59,0,10,,,,,,,,,,,,,,,,15,,62,0
119,note_on,,59,0,8,,,,,,,,,,,,,,,,12,,62,0
120,note_on,,1,0,9,,,,,,,,,,,,,,,,13,,62,64
120,note_on,,1,0,6,,,,,,,,,,,,,,,,10,,81,64
120,note_on,,1,0,10,,,,,,,,,,,,,,,,15,,62,64
120,note_on,,1,0,7,,,,,,,,,,,,,,,,11,,78,64
120,note_on,,1,0,8,,,,,,,,,,,,,,,,12,,62,64
149,note_on,,29,0,7,,,,,,,,,,,,,,,,11,,78,0
149,note_on,,29,0,6,,,,,,,,,,,,,,,,10,,81,0
150,note_on,,1,0,6,,,,,,,,,,,,,,,,10,,78,64
150,note_on,,1,0,7,,,,,,,,,,,,,,,,11,,74,64
179,note_on,,59,0,8,,,,,,,,,,,,,,,,12,,62,0
179,note_on,,59,0,9,,,,,,,,,,,,,,,,13,,62,0
179,note_on,,29,0,6,,,,,,,,,,,,,,,,10,,78,0
179,note_on,,29,0,7,,,,,,,,,,,,,,,,11,,74,0
179,note_on,,59,0,10,,,,,,,,,,,,,,,,15,,62,0
180,note_on,,1,0,7,,,,,,,,,,,,,,,,11,,74,64
180,note_on,,1,0,9,,,,,,,,,,,,,,,,13,,62,64
180,note_on,,1,0,10,,,,,,,,,,,,,,,,15,,62,64
180,note_on,,1,0,6,,,,,,,,,,,,,,,,10,,78,64
180,note_on,,1,0,8,,,,,,,,,,,,,,,,12,,62,64
209,note_on,,29,0,7,,,,,,,,,,,,,,,,11,,74,0
209,note_on,,29,0,6,,,,,,,,,,,,,,,,10,,78,0
210,note_on,,1,0,7,,,,,,,,,,,,,,,,11,,78,64
210,note_on,,1,0,6,,,,,,,,,,,,,,,,10,,81,64
239,note_on,,29,0,6,,,,,,,,,,,,,,,,10,,81,0
239,note_on,,29,0,7,,,,,,,,,,,,,,,,11,,78,0
239,note_on,,59,0,9,,,,,,,,,,,,,,,,13,,62,0
239,note_on,,59,0,10,,,,,,,,,,,,,,,,15,,66,0
239,note_on,,0,0,10,,,,,,,,,,,,,,,,15,,69,0
239,note_on,,59,0,8,,,,,,,,,,,,,,,,12,,62,0
239,note_on,,0,0,10,,,,,,,,,,,,,,,,15,,62,0
240,note_on,,1,0,9,,,,,,,,,,,,,,,,13,,62,64
240,note_on,,0,0,10,,,,,,,,,,,,,,,,15,,69,64
240,note_on,,0,0,10,,,,,,,,,,,,,,,,15,,74,64
240,note_on,,1,0,6,,,,,,,,,,,,,,,,10,,83,64
240,note_on,,0,0,10,,,,,,,,,,,,,,,,15,,66,64
240,note_on,,1,0,8,,,,,,,,,,,,,,,,12,,62,64
240,note_on,,1,0,7,,,,,,,,,,,,,,,,11,,81,64
240,note_on,,1,0,10,,,,,,,,,,,,,,,,15,,62,64
269,note_on,,29,0,7,,,,,,,,,,,,,,,,11,,81,0
269,note_on,,29,0,6,,,,,,,,,,,,,,,,10,,83,0
270,note_on,,1,0,7,,,,,,,,,,,,,,,,11,,78,64
270,note_on,,1,0,6,,,,,,,,,,,,,,,,10,,81,64
299,note_on,,59,0,9,,,,,,,,,,,,,,,,13,,62,0
299,note_on,,29,0,6,,,,,,,,,,,,,,,,10,,81,0
299,note_on,,59,0,8,,,,,,,,,,,,,,,,12,,62,0
299,note_on,,29,0,7,,,,,,,,,,,,,,,,11,,78,0
299,note_on,,59,0,10,,,,,,,,,,,,,,,,15,,62,0
300,note_on,,1,0,9,,,,,,,,,,,,,,,,13,,62,64
300,note_on,,1,0,8,,,,,,,,,,,,,,,,12,,62,64
300,note_on,,1,0,10,,,,,,,,,,,,,,,,15,,62,64
300,note_on,,1,0,7,,,,,,,,,,,,,,,,11,,78,64
300,note_on,,1,0,6,,,,,,,,,,,,,,,,10,,81,64
329,note_on,,29,0,7,,,,,,,,,,,,,,,,11,,78,0
329,note_on,,29,0,6,,,,,,,,,,,,,,,,10,,81,0
330,note_on,,1,0,6,,,,,,,,,,,,,,,,10,,83,64
330,note_on,,1,0,7,,,,,,,,,,,,,,,,11,,81,64
359,note_on,,59,0,8,,,,,,,,,,,,,,,,12,,62,0
359,note_on,,29,0,6,,,,,,,,,,,,,,,,10,,83,0
359,note_on,,59,0,10,,,,,,,,,,,,,,,,15,,62,0
359,note_on,,59,0,9,,,,,,,,,,,,,,,,13,,62,0
359,note_on,,29,0,7,,,,,,,,,,,,,,,,11,,81,0
360,note_on,,1,0,7,,,,,,,,,,,,,,,,11,,81,64
360,note_on,,1,0,9,,,,,,,,,,,,,,,,13,,62,64
360,note_on,,1,0,8,,,,,,,,,,,,,,,,12,,62,64
360,note_on,,1,0,6,,,,,,,,,,,,,,,,10,,83,64
360,note_on,,1,0,10,,,,,,,,,,,,,,,,15,,62,64
389,note_on,,29,0,7,,,,,,,,,,,,,,,,11,,81,0
389,note_on,,29,0,6,,,,,,,,,,,,,,,,10,,83,0
390,note_on,,1,0,6,,,,,,,,,,,,,,,,10,,81,64
390,note_on,,1,0,7,,,,,,,,,,,,,,,,11,,78,64
419,note_on,,59,0,8,,,,,,,,,,,,,,,,12,,62,0
419,note_on,,29,0,6,,,,,,,,,,,,,,,,10,,81,0
419,note_on,,29,0,7,,,,,,,,,,,,,,,,11,,78,0
419,note_on,,59,0,10,,,,,,,,,,,,,,,,15,,62,0
419,note_on,,59,0,9,,,,,,,,,,,,,,,,13,,62,0
420,note_on,,1,0,10,,,,,,,,,,,,,,,,15,,62,64
420,note_on,,1,0,7,,,,,,,,,,,,,,,,11,,78,64
420,note_on,,1,0,9,,,,,,,,,,,,,,,,13,,62,64
420,note_on,,1,0,8,,,,,,,,,,,,,,,,12,,62,64
420,note_on,,1,0,6,,,,,,,,,,,,,,,,10,,81,64
449,note_on,,29,0,6,,,,,,,,,,,,,,,,10,,81,0
449,note_on,,29,0,7,,,,,,,,,,,,,,,,11,,78,0
450,note_on,,1,0,7,,,,,,,,,,,,,,,,11,,81,64
450,note_on,,1,0,6,,,,,,,,,,,,,,,,10,,86,64
479,note_on,,29,0,6,,,,,,,,,,,,,,,,10,,86,0
479,note_on,,29,0,7,,,,,,,,,,,,,,,,11,,81,0
479,note_on,,59,0,10,,,,,,,,,,,,,,,,15,,74,0
479,note_on,,59,0,8,,,,,,,,,,,,,,,,12,,62,0
479,note_on,,0,0,10,,,,,,,,,,,,,,,,15,,69,0
479,note_on,,0,0,10,,,,,,,,,,,,,,,,15,,66,0
479,note_on,,0,0,10,,,,,,,,,,,,,,,,15,,62,0
479,note_on,,59,0,9,,,,,,,,,,,,,,,,13,,62,0
480,note_on,,1,0,10,,,,,,,,,,,,,,,,15,,62,64
480,note_on,,0,0,10,,,,,,,,,,,,,,,,15,,71,64
480,note_on,,0,0,10,,,,,,,,,,,,,,,,15,,74,64
480,note_on,,1,0,6,,,,,,,,,,,,,,,,10,,83,64
480,note_on,,1,0,7,,,,,,,,,,,,,,,,11,,79,64
480,note_on,,1,0,8,,,,,,,,,,,,,,,,12,,62,64
480,note_on,,1,0,9,,,,,,,,,,,,,,,,13,,62,64
480,note_on,,0,0,10,,,,,,,,,,,,,,,,15,,79,64
509,note_on,,29,0,7,,,,,,,,,,,,,,,,11,,79,0
509,note_on,,29,0,6,,,,,,,,,,,,,,,,10,,83,0
510,note_on,,1,0,7,,,,,,,,,,,,,,,,11,,74,64
510,note_on,,1,0,6,,,,,,,,,,,,,,,,10,,79,64
539,note_on,,59,0,10,,,,,,,,,,,,,,,,15,,62,0
539,note_on,,59,0,8,,,,,,,,,,,,,,,,12,,62,0
539,note_on,,59,0,9,,,,,,,,,,,,,,,,13,,62,0
539,note_on,,29,0,7,,,,,,,,,,,,,,,,11,,74,0
539,note_on,,29,0,6,,,,,,,,,,,,,,,,10,,79,0
540,note_on,,1,0,10,,,,,,,,,,,,,,,,15,,62,64
540,note_on,,1,0,7,,,,,,,,,,,,,,,,11,,74,64
540,note_on,,1,0,8,,,,,,,,,,,,,,,,12,,62,64
540,note_on,,1,0,6,,,,,,,,,,,,,,,,10,,79,64
540,note_on,,1,0,9,,,,,,,,,,,,,,,,13,,62,64
569,note_on,,29,0,7,,,,,,,,,,,,,,,,11,,74,0
569,note_on,,29,0,6,,,,,,,,,,,,,,,,10,,79,0
570,note_on,,1,0,6,,,,,,,,,,,,,,,,10,,83,64
570,note_on,,1,0,7,,,,,,,,,,,,,,,,11,,79,64
599,note_on,,59,0,10,,,,,,,,,,,,,,,,15,,62,0
599,note_on,,59,0,8,,,,,,,,,,,,,,,,12,,62,0
599,note_on,,29,0,7,,,,,,,,,,,,,,,,11,,79,0
599,note_on,,59,0,9,,,,,,,,,,,,,,,,13,,62,0
599,note_on,,29,0,6,,,,,,,,,,,,,,,,10,,83,0
600,note_on,,1,0,9,,,,,,,,,,,,,,,,13,,62,64
600,note_on,,1,0,6,,,,,,,,,,,,,,,,10,,83,64
600,note_on,,1,0,8,,,,,,,,,,,,,,,,12,,62,64
600,note_on,,1,0,10,,,,,,,,,,,,,,,,15,,62,64
600,note_on,,1,0,7,,,,,,,,,,,,,,,,11,,79,64
629,note_on,,29,0,7,,,,,,,,,,,,,,,,11,,79,0
629,note_on,,29,0,6,,,,,,,,,,,,,,,,10,,83,0
630,note_on,,1,0,7,,,,,,,,,,,,,,,,11,,74,64
630,note_on,,1,0,6,,,,,,,,,,,,,,,,10,,79,64
659,note_on,,29,0,7,,,,,,,,,,,,,,,,11,,74,0
659,note_on,,59,0,10,,,,,,,,,,,,,,,,15,,62,0
659,note_on,,59,0,8,,,,,,,,,,,,,,,,12,,62,0
659,note_on,,29,0,6,,,,,,,,,,,,,,,,10,,79,0
659,note_on,,59,0,9,,,,,,,,,,,,,,,,13,,62,0
660,note_on,,1,0,8,,,,,,,,,,,,,,,,12,,62,64
660,note_on,,1,0,10,,,,,,,,,,,,,,,,15,,62,64
660,note_on,,1,0,7,,,,,,,,,,,,,,,,11,,74,64
660,note_on,,1,0,6,,,,,,,,,,,,,,,,10,,79,64
660,note_on,,1,0,9,,,,,,,,,,,,,,,,13,,62,64
689,note_on,,29,0,7,,,,,,,,,,,,,,,,11,,74,0
689,note_on,,29,0,6,,,,,,,,,,,,,,,,10,,79,0
690,note_on,,1,0,6,,,,,,,,,,,,,,,,10,,83,64
690,note_on,,1,0,7,,,,,,,,,,,,,,,,11,,79,64
719,note_on,,59,0,9,,,,,,,,,,,,,,,,13,,62,0
719,note_on,,0,0,10,,,,,,,,,,,,,,,,15,,62,0
719,note_on,,0,0,10,,,,,,,,,,,,,,,,15,,74,0
719,note_on,,0,0,10,,,,,,,,,,,,,,,,15,,71,0
719,note_on,,29,0,6,,,,,,,,,,,,,,,,10,,83,0
719,note_on,,29,0,7,,,,,,,,,,,,,,,,11,,79,0
719,note_on,,59,0,8,,,,,,,,,,,,,,,,12,,62,0
719,note_on,,59,0,10,,,,,,,,,,,,,,,,15,,79,0
720,note_on,,1,0,10,,,,,,,,,,,,,,,,15,,62,64
720,note_on,,0,0,10,,,,,,,,,,,,,,,,15,,74,64
720,note_on,,1,0,7,,,,,,,,,,,,,,,,11,,78,64
720,note_on,,0,0,10,,,,,,,,,,,,,,,,15,,78,64
720,note_on,,0,0,10,,,,,,,,,,,,,,,,15,,69,64
720,note_on,,1,0,9,,,,,,,,,,,,,,,,13,,62,64
720,note_on,,1,0,8,,,,,,,,,,,,,,,,12,,62,64
720,note_on,,1,0,6,,,,,,,,,,,,,,,,10,,81,64
749,note_on,,29,0,7,,,,,,,,,,,,,,,,11,,78,0
749,note_on,,29,0,6,,,,,,,,,,,,,,,,10,,81,0
750,note_on,,1,0,7,,,,,,,,,,,,,,,,11,,74,64
750,note_on,,1,0,6,,,,,,,,,,,,,,,,10,,78,64
779,note_on,,59,0,8,,,,,,,,,,,,,,,,12,,62,0
779,note_on,,59,0,10,,,,,,,,,,,,,,,,15,,62,0
779,note_on,,29,0,7,,,,,,,,,,,,,,,,11,,74,0
779,note_on,,59,0,9,,,,,,,,,,,,,,,,13,,62,0
779,note_on,,29,0,6,,,,,,,,,,,,,,,,10,,78,0
780,note_on,,1,0,9,,,,,,,,,,,,,,,,13,,62,64
780,note_on,,1,0,8,,,,,,,,,,,,,,,,12,,62,64
780,note_on,,1,0,6,,,,,,,,,,,,,,,,10,,78,64
780,note_on,,1,0,7,,,,,,,,,,,,,,,,11,,74,64
780,note_on,,1,0,10,,,,,,,,,,,,,,,,15,,62,64
809,note_on,,29,0,6,,,,,,,,,,,,,,,,10,,78,0
809,note_on,,29,0,7,,,,,,,,,,,,,,,,11,,74,0
810,note_on,,1,0,7,,,,,,,,,,,,,,,,11,,78,64
810,note_on,,1,0,6,,,,,,,,,,,,,,,,10,,81,64
839,note_on,,59,0,9,,,,,,,,,,,,,,,,13,,62,0
839,note_on,,29,0,7,,,,,,,,,,,,,,,,11,,78,0
839,note_on,,59,0,10,,,,,,,,,,,,,,,,15,,62,0
839,note_on,,59,0,8,,,,,,,,,,,,,,,,12,,62,0
839,note_on,,29,0,6,,,,,,,,,,,,,,,,10,,81,0
840,note_on,,1,0,7,,,,,,,,,,,,,,,,11,,78,64
840,note_on,,1,0,6,,,,,,,,,,,,,,,,10,,81,64
840,note_on,,1,0,10,,,,,,,,,,,,,,,,15,,62,64
840,note_on,,1,0,9,,,,,,,,,,,,,,,,13,,62,64
840,note_on,,1,0,8,,,,,,,,,,,,,,,,12,,62,64
869,note_on,,29,0,7,,,,,,,,,,,,,,,,11,,78,0
869,note_on,,29,0,6,,,,,,,,,,,,,,,,10,,81,0
870,note_on,,1,0,6,,,,,,,,,,,,,,,,10,,78,64
870,note_on,,1,0,7,,,,,,,,,,,,,,,,11,,74,64
899,note_on,,59,0,8,,,,,,,,,,,,,,,,12,,62,0
899,note_on,,29,0,7,,,,,,,,,,,,,,,,11,,74,0
899,note_on,,59,0,9,,,,,,,,,,,,,,,,13,,62,0
899,note_on,,29,0,6,,,,,,,,,,,,,,,,10,,78,0
899,note_on,,59,0,10,,,,,,,,,,,,,,,,15,,62,0
900,note_on,,1,0,9,,,,,,,,,,,,,,,,13,,62,64
900,note_on,,1,0,6,,,,,,,,,,,,,,,,10,,78,64
900,note_on,,1,0,10,,,,,,,,,,,,,,,,15,,62,64
900,note_on,,1,0,7,,,,,,,,,,,,,,,,11,,74,64
900,note_on,,1,0,8,,,,,,,,,,,,,,,,12,,62,64
929,note_on,,29,0,6,,,,,,,,,,,,,,,,10,,78,0
929,note_on,,29,0,7,,,,,,,,,,,,,,,,11,,74,0
930,note_on,,1,0,6,,,,,,,,,,,,,,,,10,,81,64
930,note_on,,1,0,7,,,,,,,,,,,,,,,,11,,78,64
959,note_on,,0,0,10,,,,,,,,,,,,,,,,15,,69,0
959,note_on,,0,0,10,,,,,,,,,,,,,,,,15,,62,0
959,note_on,,29,0,6,,,,,,,,,,,,,,,,10,,81,0
959,note_on,,0,0,10,,,,,,,,,,,,,,,,15,,74,0
959,note_on,,29,0,7,,,,,,,,,,,,,,,,11,,78,0
959,note_on,,59,0,8,,,,,,,,,,,,,,,,12,,62,0
959,note_on,,59,0,10,,,,,,,,,,,,,,,,15,,78,0
959,note_on,,59,0,9,,,,,,,,,,,,,,,,13,,62,0
960,note_on,,1,0,9,,,,,,,,,,,,,,,,13,,62,64
960,note_on,,1,0,6,,,,,,,,,,,,,,,,10,,79,64
960,note_on,,1,0,10,,,,,,,,,,,,,,,,15,,62,64
960,note_on,,1,0,7,,,,,,,,,,,,,,,,11,,76,64
960,note_on,,1,0,8,,,,,,,,,,,,,,,,12,,62,64
960,note_on,,0,0,10,,,,,,,,,,,,,,,,15,,73,64
960,note_on,,0,0,10,,,,,,,,,,,,,,,,15,,67,64
960,note_on,,0,0,10,,,,,,,,,,,,,,,,15,,76,64
989,note_on,,29,0,6,,,,,,,,,,,,,,,,10,,79,0
989,note_on,,29,0,7,,,,,,,,,,,,,,,,11,,76,0
990,note_on,,1,0,6,,,,,,,,,,,,,,,,10,,76,64
990,note_on,,1,0,7,,,,,,,,,,,,,,,,11,,73,64
1019,note_on,,59,0,9,,,,,,,,,,,,,,,,13,,62,0
1019,note_on,,59,0,10,,,,,,,,,,,,,,,,15,,62,0
1019,note_on,,59,0,8,,,,,,,,,,,,,,,,12,,62,0
1019,note_on,,29,0,7,,,,,,,,,,,,,,,,11,,73,0
1019,note_on,,29,0,6,,,,,,,,,,,,,,,,10,,76,0
1020,note_on,,1,0,8,,,,,,,,,,,,,,,,12,,62,64
1020,note_on,,1,0,6,,,,,,,,,,,,,,,,10,,76,64
1020,note_on,,1,0,7,,,,,,,,,,,,,,,,11,,73,64
1020,note_on,,1,0,10,,,,,,,,,,,,,,,,15,,62,64
1020,note_on,,1,0,9,,,,,,,,,,,,,,,,13,,62,64
1049,note_on,,29,0,7,,,,,,,,,,,,,,,,11,,73,0
1049,note_on,,29,0,6,,,,,,,,,,,,,,,,10,,76,0
1050,note_on,,1,0,6,,,,,,,,,,,,,,,,10,,79,64
1050,note_on,,1,0,7,,,,,,,,,,,,,,,,11,,76,64
1079,note_on,,29,0,6,,,,,,,,,,,,,,,,10,,79,0
1079,note_on,,59,0,8,,,,,,,,,,,,,,,,12,,62,0
1079,note_on,,59,0,10,,,,,,,,,,,,,,,,15,,62,0
1079,note_on,,59,0,9,,,,,,,,,,,,,,,,13,,62,0
1079,note_on,,29,0,7,,,,,,,,,,,,,,,,11,,76,0
1080,note_on,,1,0,10,,,,,,,,,,,,,,,,15,,62,64
1080,note_on,,1,0,9,,,,,,,,,,,,,,,,13,,62,64
1080,note_on,,1,0,7,,,,,,,,,,,,,,,,11,,76,64
1080,note_on,,1,0,8,,,,,,,,,,,,,,,,12,,62,64
1080,note_on,,1,0,6,,,,,,,,,,,,,,,,10,,79,64
1109,note_on,,29,0,7,,,,,,,,,,,,,,,,11,,76,0
1109,note_on,,29,0,6,,,,,,,,,,,,,,,,10,,79,0
1110,note_on,,1,0,7,,,,,,,,,,,,,,,,11,,73,64
1110,note_on,,1,0,6,,,,,,,,,,,,,,,,10,,76,64
1139,note_on,,59,0,8,,,,,,,,,,,,,,,,12,,62,0
1139,note_on,,59,0,10,,,,,,,,,,,,,,,,15,,62,0
1139,note_on,,59,0,9,,,,,,,,,,,,,,,,13,,62,0
1139,note_on,,29,0,7,,,,,,,,,,,,,,,,11,,73,0
1139,note_on,,29,0,6,,,,,,,,,,,,,,,,10,,76,0
1140,note_on,,1,0,8,,,,,,,,,,,,,,,,12,,62,64
1140,note_on,,1,0,9,,,,,,,,,,,,,,,,13,,62,64
1140,note_on,,1,0,10,,,,,,,,,,,,,,,,15,,62,64
1140,note_on,,1,0,6,,,,,,,,,,,,,,,,10,,76,64
1140,note_on,,1,0,7,,,,,,,,,,,,,,,,11,,73,64
1169,note_on,,29,0,6,,,,,,,,,,,,,,,,10,,76,0
1169,note_on,,29,0,7,,,,,,,,,,,,,,,,11,,73,0
1170,note_on,,1,0,7,,,,,,,,,,,,,,,,11,,76,64
1170,note_on,,1,0,6,,,,,,,,,,,,,,,,10,,79,64
1199,note_on,,0,0,10,,,,,,,,,,,,,,,,15,,67,0
1199,note_on,,0,0,10,,,,,,,,,,,,,,,,15,,62,0
1199,note_on,,59,0,9,,,,,,,,,,,,,,,,13,,62,0
1199,note_on,,0,0,10,,,,,,,,,,,,,,,,15,,73,0
1199,note_on,,29,0,6,,,,,,,,,,,,,,,,10,,79,0
1199,note_on,,29,0,7,,,,,,,,,,,,,,,,11,,76,0
1199,note_on,,59,0,8,,,,,,,,,,,,,,,,12,,62,0
1199,note_on,,59,0,10,,,,,,,,,,,,,,,,15,,76,0
1200,note_on,,1,0,8,,,,,,,,,,,,,,,,12,,62,64
1200,note_on,,0,0,10,,,,,,,,,,,,,,,,15,,64,64
1200,note_on,,0,0,10,,,,,,,,,,,,,,,,15,,73,64
1200,note_on,,1,0,6,,,,,,,,,,,,,,,,10,,79,64
1200,note_on,,0,0,10,,,,,,,,,,,,,,,,15,,62,64
1200,note_on,,1,0,10,,,,,,,,,,,,,,,,15,,67,64
1200,note_on,,1,0,7,,,,,,,,,,,,,,,,11,,76,64
1200,note_on,,1,0,9,,,,,,,,,,,,,,,,13,,62,64
1229,note_on,,29,0,6,,,,,,,,,,,,,,,,10,,79,0
1229,note_on,,29,0,7,,,,,,,,,,,,,,,,11,,76,0
1230,note_on,,1,0,7,,,,,,,,,,,,,,,,11,,73,64
1230,note_on,,1,0,6,,,,,,,,,,,,,,,,10,,76,64
1259,note_on,,59,0,10,,,,,,,,,,,,,,,,15,,62,0
1259,note_on,,29,0,7,,,,,,,,,,,,,,,,11,,73,0
1259,note_on,,59,0,9,,,,,,,,,,,,,,,,13,,62,0
1259,note_on,,29,0,6,,,,,,,,,,,,,,,,10,,76,0
1259,note_on,,59,0,8,,,,,,,,,,,,,,,,12,,62,0
1260,note_on,,1,0,8,,,,,,,,,,,,,,,,12,,62,64
1260,note_on,,1,0,7,,,,,,,,,,,,,,,,11,,73,64
1260,note_on,,1,0,10,,,,,,,,,,,,,,,,15,,62,64
1260,note_on,,1,0,9,,,,,,,,,,,,,,,,13,,62,64
1260,note_on,,1,0,6,,,,,,,,,,,,,,,,10,,76,64
1289,note_on,,29,0,7,,,,,,,,,,,,,,,,11,,73,0
1289,note_on,,29,0,6,,,,,,,,,,,,,,,,10,,76,0
1290,note_on,,1,0,7,,,,,,,,,,,,,,,,11,,76,64
1290,note_on,,1,0,6,,,,,,,,,,,,,,,,10,,79,64
1319,note_on,,59,0,8,,,,,,,,,,,,,,,,12,,62,0
1319,note_on,,59,0,10,,,,,,,,,,,,,,,,15,,62,0
1319,note_on,,29,0,7,,,,,,,,,,,,,,,,11,,76,0
1319,note_on,,59,0,9,,,,,,,,,,,,,,,,13,,62,0
1319,note_on,,29,0,6,,,,,,,,,,,,,,,,10,,79,0
1320,note_on,,1,0,7,,,,,,,,,,,,,,,,11,,76,48
1320,note_on,,1,0,8,,,,,,,,,,,,,,,,12,,62,48
1320,note_on,,1,0,10,,,,,,,,,,,,,,,,15,,62,48
1320,note_on,,1,0,6,,,,,,,,,,,,,,,,10,,79,48
1320,note_on,,1,0,9,,,,,,,,,,,,,,,,13,,62,48
1349,note_on,,29,0,7,,,,,,,,,,,,,,,,11,,76,0
1349,note_on,,29,0,6,,,,,,,,,,,,,,,,10,,79,0
1350,note_on,,1,0,6,,,,,,,,,,,,,,,,10,,76,48
1350,note_on,,1,0,7,,,,,,,,,,,,,,,,11,,73,48
1379,note_on,,59,0,9,,,,,,,,,,,,,,,,13,,62,0
1379,note_on,,29,0,6,,,,,,,,,,,,,,,,10,,76,0
1379,note_on,,59,0,8,,,,,,,,,,,,,,,,12,,62,0
1379,note_on,,59,0,10,,,,,,,,,,,,,,,,15,,62,0
1379,note_on,,29,0,7,,,,,,,,,,,,,,,,11,,73,0
1380,note_on,,0,0,5,,,,,,,,,,,,,,,,5,,69,64
1380,control_change,,1380,0,5,,,,,,,,,,,,,,7,96,5,,,
1380,note_on,,1,0,9,,,,,,,,,,,,,,,,13,,62,48
1380,note_on,,1,0,8,,,,,,,,,,,,,,,,12,,62,48
1380,note_on,,1,0,10,,,,,,,,,,,,,,,,15,,62,48
1380,note_on,,1,0,7,,,,,,,,,,,,,,,,11,,73,48
1380,note_on,,1,0,6,,,,,,,,,,,,,,,,10,,76,48
1409,note_on,,29,0,7,,,,,,,,,,,,,,,,11,,73,0
1409,note_on,,29,0,6,,,,,,,,,,,,,,,,10,,76,0
1410,note_on,,1,0,6,,,,,,,,,,,,,,,,10,,79,48
1410,note_on,,1,0,7,,,,,,,,,,,,,,,,11,,76,48
1439,note_on,,29,0,6,,,,,,,,,,,,,,,,10,,79,0
1439,note_on,,59,0,5,,,,,,,,,,,,,,,,5,,69,0
1439,note_on,,59,0,10,,,,,,,,,,,,,,,,15,,67,0
1439,note_on,,59,0,9,,,,,,,,,,,,,,,,13,,62,0
1439,note_on,,0,0,10,,,,,,,,,,,,,,,,15,,73,0
1439,note_on,,0,0,10,,,,,,,,,,,,,,,,15,,64,0
1439,note_on,,0,0,10,,,,,,,,,,,,,,,,15,,62,0
1439,note_on,,29,0,7,,,,,,,,,,,,,,,,11,,76,0
1439,note_on,,59,0,8,,,,,,,,,,,,,,,,12,,62,0
1440,note_on,,1,0,8,,,,,,,,,,,,,,,,12,,62,48
1440,note_on,,1,0,9,,,,,,,,,,,,,,,,13,,62,48
1440,note_on,,1,0,10,,,,,,,,,,,,,,,,15,,62,48
1440,note_on,,0,0,10,,,,,,,,,,,,,,,,15,,69,48
1440,note_on,,1,0,5,,,,,,,,,,,,,,,,5,,74,64
1440,note_on,,1,0,6,,,,,,,,,,,,,,,,10,,78,48
1440,note_on,,1,0,7,,,,,,,,,,,,,,,,11,,74,48
1440,note_on,,0,0,10,,,,,,,,,,,,,,,,15,,66,48
1469,note_on,,29,0,7,,,,,,,,,,,,,,,,11,,74,0
1469,note_on,,29,0,6,,,,,,,,,,,,,,,,10,,78,0
1470,note_on,,1,0,6,,,,,,,,,,,,,,,,10,,74,48
1470,note_on,,1,0,7,,,,,,,,,,,,,,,,11,,69,48
1499,note_on,,29,0,7,,,,,,,,,,,,,,,,11,,69,0
1499,note_on,,59,0,8,,,,,,,,,,,,,,,,12,,62,0
1499,note_on,,59,0,10,,,,,,,,,,,,,,,,15,,62,0
1499,note_on,,29,0,6,,,,,,,,,,,,,,,,10,,74,0
1499,note_on,,59,0,9,,,,,,,,,,,,,,,,13,,62,0
1500,note_on,,1,0,9,,,,,,,,,,,,,,,,13,,62,48
1500,note_on,,1,0,8,,,,,,,,,,,,,,,,12,,62,48
1500,note_on,,1,0,7,,,,,,,,,,,,,,,,11,,69,48
1500,note_on,,1,0,6,,,,,,,,,,,,,,,,10,,74,48
1500,note_on,,1,0,10,,,,,,,,,,,,,,,,15,,62,48
1529,note_on,,29,0,6,,,,,,,,,,,,,,,,10,,74,0
1529,note_on,,89,0,5,,,,,,,,,,,,,,,,5,,74,0
1529,note_on,,29,0,7,,,,,,,,,,,,,,,,11,,69,0
1530,note_on,,1,0,5,,,,,,,,,,,,,,,,5,,74,64
1530,note_on,,1,0,7,,,,,,,,,,,,,,,,11,,74,48
1530,note_on,,1,0,6,,,,,,,,,,,,,,,,10,,78,48
1559,note_on,,29,0,5,,,,,,,,,,,,,,,,5,,74,0
1559,note_on,,59,0,9,,,,,,,,,,,,,,,,13,,62,0
1559,note_on,,59,0,8,,,,,,,,,,,,,,,,12,,62,0
1559,note_on,,29,0,7,,,,,,,,,,,,,,,,11,,74,0
1559,note_on,,59,0,10,,,,,,,,,,,,,,,,15,,62,0
1559,note_on,,29,0,6,,,,,,,,,,,,,,,,10,,78,0
1560,note_on,,1,0,8,,,,,,,,,,,,,,,,12,,62,48
1560,note_on,,1,0,5,,,,,,,,,,,,,,,,5,,74,64
1560,note_on,,1,0,7,,,,,,,,,,,,,,,,11,,74,48
1560,note_on,,1,0,6,,,,,,,,,,,,,,,,10,,78,48
1560,note_on,,1,0,9,,,,,,,,,,,,,,,,13,,62,48
1560,note_on,,1,0,10,,,,,,,,,,,,,,,,15,,62,48
1589,note_on,,29,0,7,,,,,,,,,,,,,,,,11,,74,0
1589,note_on,,29,0,6,,,,,,,,,,,,,,,,10,,78,0
1590,note_on,,1,0,6,,,,,,,,,,,,,,,,10,,74,48
1590,note_on,,1,0,7,,,,,,,,,,,,,,,,11,,69,48
1619,note_on,,59,0,8,,,,,,,,,,,,,,,,12,,62,0
1619,note_on,,29,0,7,,,,,,,,,,,,,,,,11,,69,0
1619,note_on,,59,0,9,,,,,,,,,,,,,,,,13,,62,0
1619,note_on,,29,0,6,,,,,,,,,,,,,,,,10,,74,0
1619,note_on,,59,0,10,,,,,,,,,,,,,,,,15,,62,0
1620,note_on,,1,0,9,,,,,,,,,,,,,,,,13,,62,48
1620,note_on,,1,0,8,,,,,,,,,,,,,,,,12,,62,48
1620,note_on,,1,0,10,,,,,,,,,,,,,,,,15,,62,48
1620,note_on,,1,0,6,,,,,,,,,,,,,,,,10,,74,48
1620,note_on,,1,0,7,,,,,,,,,,,,,,,,11,,69,48
1649,note_on,,29,0,6,,,,,,,,,,,,,,,,10,,74,0
1649,note_on,,29,0,7,,,,,,,,,,,,,,,,11,,69,0
1650,note_on,,1,0,7,,,,,,,,,,,,,,,,11,,74,48
1650,note_on,,1,0,6,,,,,,,,,,,,,,,,10,,78,48
1679,note_on,,59,0,10,,,,,,,,,,,,,,,,15,,69,0
1679,note_on,,59,0,8,,,,,,,,,,,,,,,,12,,62,0
1679,note_on,,119,0,5,,,,,,,,,,,,,,,,5,,74,0
1679,note_on,,59,0,9,,,,,,,,,,,,,,,,13,,62,0
1679,note_on,,29,0,7,,,,,,,,,,,,,,,,11,,74,0
1679,note_on,,0,0,10,,,,,,,,,,,,,,,,15,,62,0
1679,note_on,,0,0,10,,,,,,,,,,,,,,,,15,,66,0
1679,note_on,,29,0,6,,,,,,,,,,,,,,,,10,,78,0
1680,note_on,,1,0,7,,,,,,,,,,,,,,,,11,,74,48
1680,note_on,,1,0,6,,,,,,,,,,,,,,,,10,,78,48
1680,note_on,,0,0,10,,,,,,,,,,,,,,,,15,,66,48
1680,note_on,,0,0,10,,,,,,,,,,,,,,,,15,,69,48
1680,note_on,,1,0,8,,,,,,,,,,,,,,,,12,,62,48
1680,note_on,,1,0,10,,,,,,,,,,,,,,,,15,,62,48
1680,note_on,,0,0,10,,,,,,,,,,,,,,,,15,,74,48
1680,note_on,,1,0,9,,,,,,,,,,,,,,,,13,,62,48
1709,note_on,,29,0,7,,,,,,,,,,,,,,,,11,,74,0
1709,note_on,,29,0,6,,,,,,,,,,,,,,,,10,,78,0
1710,note_on,,1,0,6,,,,,,,,,,,,,,,,10,,74,48
1710,note_on,,1,0,7,,,,,,,,,,,,,,,,11,,69,48
1739,note_on,,59,0,9,,,,,,,,,,,,,,,,13,,62,0
1739,note_on,,29,0,6,,,,,,,,,,,,,,,,10,,74,0
1739,note_on,,29,0,7,,,,,,,,,,,,,,,,11,,69,0
1739,note_on,,59,0,10,,,,,,,,,,,,,,,,15,,62,0
1739,note_on,,59,0,8,,,,,,,,,,,,,,,,12,,62,0
1740,note_on,,1,0,7,,,,,,,,,,,,,,,,11,,69,48
1740,note_on,,1,0,10,,,,,,,,,,,,,,,,15,,62,48
1740,note_on,,1,0,8,,,,,,,,,,,,,,,,12,,62,48
1740,note_on,,61,0,5,,,,,,,,,,,,,,,,5,,74,64
1740,note_on,,1,0,6,,,,,,,,,,,,,,,,10,,74,48
1740,note_on,,1,0,9,,,,,,,,,,,,,,,,13,,62,48
1769,note_on,,29,0,7,,,,,,,,,,,,,,,,11,,69,0
1769,note_on,,29,0,6,,,,,,,,,,,,,,,,10,,74,0
1770,note_on,,1,0,6,,,,,,,,,,,,,,,,10,,78,48
1770,note_on,,1,0,7,,,,,,,,,,,,,,,,11,,74,48
1799,note_on,,59,0,9,,,,,,,,,,,,,,,,13,,62,0
1799,note_on,,29,0,7,,,,,,,,,,,,,,,,11,,74,0
1799,note_on,,59,0,5,,,,,,,,,,,,,,,,5,,74,0
1799,note_on,,59,0,10,,,,,,,,,,,,,,,,15,,62,0
1799,note_on,,59,0,8,,,,,,,,,,,,,,,,12,,62,0
1799,note_on,,29,0,6,,,,,,,,,,,,,,,,10,,78,0
1800,note_on,,1,0,8,,,,,,,,,,,,,,,,12,,62,48
1800,note_on,,1,0,9,,,,,,,,,,,,,,,,13,,62,48
1800,note_on,,1,0,6,,,,,,,,,,,,,,,,10,,78,48
1800,note_on,,1,0,7,,,,,,,,,,,,,,,,11,,74,48
1800,note_on,,1,0,5,,,,,,,,,,,,,,,,5,,74,64
1800,note_on,,1,0,10,,,,,,,,,,,,,,,,15,,62,48
1829,note_on,,29,0,6,,,,,,,,,,,,,,,,10,,78,0
1829,note_on,,29,0,7,,,,,,,,,,,,,,,,11,,74,0
1830,note_on,,1,0,6,,,,,,,,,,,,,,,,10,,74,48
1830,note_on,,1,0,7,,,,,,,,,,,,,,,,11,,69,48
1859,note_on,,29,0,7,,,,,,,,,,,,,,,,11,,69,0
1859,note_on,,59,0,10,,,,,,,,,,,,,,,,15,,62,0
1859,note_on,,59,0,8,,,,,,,,,,,,,,,,12,,62,0
1859,note_on,,59,0,5,,,,,,,,,,,,,,,,5,,74,0
1859,note_on,,29,0,6,,,,,,,,,,,,,,,,10,,74,0
1859,note_on,,59,0,9,,,,,,,,,,,,,,,,13,,62,0
1860,note_on,,1,0,9,,,,,,,,,,,,,,,,13,,62,48
1860,note_on,,1,0,6,,,,,,,,,,,,,,,,10,,74,48
1860,note_on,,1,0,7,,,,,,,,,,,,,,,,11,,69,48
1860,note_on,,1,0,10,,,,,,,,,,,,,,,,15,,62,48
1860,note_on,,1,0,5,,,,,,,,,,,,,,,,5,,76,64
1860,note_on,,1,0,8,,,,,,,,,,,,,,,,12,,62,48
1889,note_on,,29,0,7,,,,,,,,,,,,,,,,11,,69,0
1889,note_on,,29,0,5,,,,,,,,,,,,,,,,5,,76,0
1889,note_on,,29,0,6,,,,,,,,,,,,,,,,10,,74,0
1890,note_on,,1,0,7,,,,,,,,,,,,,,,,11,,74,48
1890,note_on,,1,0,5,,,,,,,,,,,,,,,,5,,78,64
1890,note_on,,1,0,6,,,,,,,,,,,,,,,,10,,83,48
1919,note_on,,59,0,8,,,,,,,,,,,,,,,,12,,62,0
1919,note_on,,29,0,5,,,,,,,,,,,,,,,,5,,78,0
1919,note_on,,59,0,10,,,,,,,,,,,,,,,,15,,74,0
1919,note_on,,0,0,10,,,,,,,,,,,,,,,,15,,62,0
1919,note_on,,29,0,6,,,,,,,,,,,,,,,,10,,83,0
1919,note_on,,59,0,9,,,,,,,,,,,,,,,,13,,62,0
1919,note_on,,29,0,7,,,,,,,,,,,,,,,,11,,74,0
1919,note_on,,0,0,10,,,,,,,,,,,,,,,,15,,69,0
1919,note_on,,0,0,10,,,,,,,,,,,,,,,,15,,66,0
1920,note_on,,1,0,8,,,,,,,,,,,,,,,,12,,56,48
1920,note_on,,0,0,10,,,,,,,,,,,,,,,,15,,64,48
1920,note_on,,0,0,10,,,,,,,,,,,,,,,,15,,71,48
1920,note_on,,0,0,10,,,,,,,,,,,,,,,,15,,76,48
1920,note_on,,1,0,5,,,,,,,,,,,,,,,,5,,76,64
1920,note_on,,1,0,9,,,,,,,,,,,,,,,,13,,56,48
1920,note_on,,1,0,10,,,,,,,,,,,,,,,,15,,56,48
1920,note_on,,1,0,6,,,,,,,,,,,,,,,,10,,83,48
1920,note_on,,1,0,7,,,,,,,,,,,,,,,,11,,76,48
1949,note_on,,29,0,6,,,,,,,,,,,,,,,,10,,83,0
1949,note_on,,29,0,7,,,,,,,,,,,,,,,,11,,76,0
1950,note_on,,1,0,6,,,,,,,,,,,,,,,,10,,74,48
1950,note_on,,1,0,7,,,,,,,,,,,,,,,,11,,71,48
1979,note_on,,29,0,6,,,,,,,,,,,,,,,,10,,74,0
1979,note_on,,59,0,9,,,,,,,,,,,,,,,,13,,56,0
1979,note_on,,59,0,8,,,,,,,,,,,,,,,,12,,56,0
1979,note_on,,29,0,7,,,,,,,,,,,,,,,,11,,71,0
1979,note_on,,59,0,5,,,,,,,,,,,,,,,,5,,76,0
1979,note_on,,59,0,10,,,,,,,,,,,,,,,,15,,56,0
1980,note_on,,1,0,10,,,,,,,,,,,,,,,,15,,56,48
1980,note_on,,1,0,8,,,,,,,,,,,,,,,,12,,56,48
1980,note_on,,1,0,7,,,,,,,,,,,,,,,,11,,71,48
1980,note_on,,1,0,5,,,,,,,,,,,,,,,,5,,76,64
1980,note_on,,1,0,9,,,,,,,,,,,,,,,,13,,56,48
1980,note_on,,1,0,6,,,,,,,,,,,,,,,,10,,74,48
2009,note_on,,29,0,6,,,,,,,,,,,,,,,,10,,74,0
2009,note_on,,29,0,7,,,,,,,,,,,,,,,,11,,71,0
2010,note_on,,1,0,6,,,,,,,,,,,,,,,,10,,83,48
2010,note_on,,1,0,7,,,,,,,,,,,,,,,,11,,76,48
2039,note_on,,59,0,8,,,,,,,,,,,,,,,,12,,56,0
2039,note_on,,59,0,5,,,,,,,,,,,,,,,,5,,76,0
2039,note_on,,59,0,9,,,,,,,,,,,,,,,,13,,56,0
2039,note_on,,29,0,6,,,,,,,,,,,,,,,,10,,83,0
2039,note_on,,29,0,7,,,,,,,,,,,,,,,,11,,76,0
2039,note_on,,59,0,10,,,,,,,,,,,,,,,,15,,56,0
2040,note_on,,1,0,6,,,,,,,,,,,,,,,,10,,83,48
2040,note_on,,1,0,7,,,,,,,,,,,,,,,,11,,76,48
2040,note_on,,1,0,10,,,,,,,,,,,,,,,,15,,56,48
2040,note_on,,1,0,8,,,,,,,,,,,,,,,,12,,56,48
2040,note_on,,1,0,9,,,,,,,,,,,,,,,,13,,56,48
2069,note_on,,29,0,7,,,,,,,,,,,,,,,,11,,76,0
2069,note_on,,29,0,6,,,,,,,,,,,,,,,,10,,83,0
2070,note_on,,1,0,6,,,,,,,,,,,,,,,,10,,74,48
2070,note_on,,1,0,7,,,,,,,,,,,,,,,,11,,71,48
2099,note_on,,59,0,10,,,,,,,,,,,,,,,,15,,56,0
2099,note_on,,59,0,9,,,,,,,,,,,,,,,,13,,56,0
2099,note_on,,29,0,7,,,,,,,,,,,,,,,,11,,71,0
2099,note_on,,29,0,6,,,,,,,,,,,,,,,,10,,74,0
2099,note_on,,59,0,8,,,,,,,,,,,,,,,,12,,56,0
2100,note_on,,61,0,5,,,,,,,,,,,,,,,,5,,76,64
2100,note_on,,1,0,10,,,,,,,,,,,,,,,,15,,56,48
2100,note_on,,1,0,9,,,,,,,,,,,,,,,,13,,56,48
2100,note_on,,1,0,6,,,,,,,,,,,,,,,,10,,74,48
2100,note_on,,1,0,7,,,,,,,,,,,,,,,,11,,71,48
2100,note_on,,1,0,8,,,,,,,,,,,,,,,,12,,56,48
2129,note_on,,29,0,7,,,,,,,,,,,,,,,,11,,71,0
2129,note_on,,29,0,6,,,,,,,,,,,,,,,,10,,74,0
2130,note_on,,1,0,6,,,,,,,,,,,,,,,,10,,83,48
2130,note_on,,1,0,7,,,,,,,,,,,,,,,,11,,76,48
2159,note_on,,29,0,7,,,,,,,,,,,,,,,,11,,76,0
2159,note_on,,0,0,10,,,,,,,,,,,,,,,,15,,64,0
2159,note_on,,59,0,9,,,,,,,,,,,,,,,,13,,56,0
2159,note_on,,59,0,5,,,,,,,,,,,,,,,,5,,76,0
2159,note_on,,59,0,10,,,,,,,,,,,,,,,,15,,71,0
2159,note_on,,29,0,6,,,,,,,,,,,,,,,,10,,83,0
2159,note_on,,0,0,10,,,,,,,,,,,,,,,,15,,56,0
2159,note_on,,59,0,8,,,,,,,,,,,,,,,,12,,56,0
2160,note_on,,1,0,10,,,,,,,,,,,,,,,,15,,56,48
2160,note_on,,1,0,5,,,,,,,,,,,,,,,,5,,76,64
2160,note_on,,1,0,7,,,,,,,,,,,,,,,,11,,76,48
2160,note_on,,1,0,9,,,,,,,,,,,,,,,,13,,56,48
2160,note_on,,1,0,6,,,,,,,,,,,,,,,,10,,83,48
2160,note_on,,0,0,10,,,,,,,,,,,,,,,,15,,64,48
2160,note_on,,0,0,10,,,,,,,,,,,,,,,,15,,71,48
2160,note_on,,1,0,8,,,,,,,,,,,,,,,,12,,56,48
2189,note_on,,29,0,7,,,,,,,,,,,,,,,,11,,76,0
2189,note_on,,29,0,6,,,,,,,,,,,,,,,,10,,83,0
2190,note_on,,1,0,6,,,,,,,,,,,,,,,,10,,74,48
2190,note_on,,1,0,7,,,,,,,,,,,,,,,,11,,71,48
2219,note_on,,29,0,6,,,,,,,,,,,,,,,,10,,74,0
2219,note_on,,29,0,7,,,,,,,,,,,,,,,,11,,71,0
2219,note_on,,59,0,10,,,,,,,,,,,,,,,,15,,56,0
2219,note_on,,59,0,9,,,,,,,,,,,,,,,,13,,56,0
2219,note_on,,59,0,8,,,,,,,,,,,,,,,,12,,56,0
2220,note_on,,1,0,9,,,,,,,,,,,,,,,,13,,56,48
2220,note_on,,1,0,8,,,,,,,,,,,,,,,,12,,56,48
2220,note_on,,1,0,10,,,,,,,,,,,,,,,,15,,56,48
2220,note_on,,1,0,7,,,,,,,,,,,,,,,,11,,71,48
2220,note_on,,1,0,6,,,,,,,,,,,,,,,,10,,74,48
2249,note_on,,29,0,6,,,,,,,,,,,,,,,,10,,74,0
2249,note_on,,29,0,7,,,,,,,,,,,,,,,,11,,71,0
2249,note_on,,89,0,5,,,,,,,,,,,,,,,,5,,76,0
2250,note_on,,1,0,6,,,,,,,,,,,,,,,,10,,83,48
2250,note_on,,1,0,5,,,,,,,,,,,,,,,,5,,71,64
2250,note_on,,1,0,7,,,,,,,,,,,,,,,,11,,76,48
2279,note_on,,29,0,7,,,,,,,,,,,,,,,,11,,76,0
2279,note_on,,29,0,5,,,,,,,,,,,,,,,,5,,71,0
2279,note_on,,59,0,9,,,,,,,,,,,,,,,,13,,56,0
2279,note_on,,29,0,6,,,,,,,,,,,,,,,,10,,83,0
2279,note_on,,59,0,10,,,,,,,,,,,,,,,,15,,56,0
2279,note_on,,59,0,8,,,,,,,,,,,,,,,,12,,56,0
2280,note_on,,1,0,6,,,,,,,,,,,,,,,,10,,83,48
2280,note_on,,1,0,7,,,,,,,,,,,,,,,,11,,76,48
2280,note_on,,1,0,8,,,,,,,,,,,,,,,,12,,56,48
2280,note_on,,1,0,9,,,,,,,,,,,,,,,,13,,56,48
2280,note_on,,1,0,10,,,,,,,,,,,,,,,,15,,56,48
2280,note_on,,1,0,5,,,,,,,,,,,,,,,,5,,71,64
2309,note_on,,29,0,7,,,,,,,,,,,,,,,,11,,76,0
2309,note_on,,29,0,6,,,,,,,,,,,,,,,,10,,83,0
2310,note_on,,1,0,6,,,,,,,,,,,,,,,,10,,74,48
2310,note_on,,1,0,7,,,,,,,,,,,,,,,,11,,71,48
2339,note_on,,59,0,9,,,,,,,,,,,,,,,,13,,56,0
2339,note_on,,59,0,10,,,,,,,,,,,,,,,,15,,56,0
2339,note_on,,59,0,8,,,,,,,,,,,,,,,,12,,56,0
2339,note_on,,29,0,7,,,,,,,,,,,,,,,,11,,71,0
2339,note_on,,29,0,6,,,,,,,,,,,,,,,,10,,74,0
2340,note_on,,1,0,8,,,,,,,,,,,,,,,,12,,56,48
2340,note_on,,1,0,6,,,,,,,,,,,,,,,,10,,74,48
2340,note_on,,1,0,7,,,,,,,,,,,,,,,,11,,71,48
2340,note_on,,1,0,9,,,,,,,,,,,,,,,,13,,56,48
2340,note_on,,1,0,10,,,,,,,,,,,,,,,,15,,56,48
2369,note_on,,29,0,6,,,,,,,,,,,,,,,,10,,74,0
2369,note_on,,29,0,7,,,,,,,,,,,,,,,,11,,71,0
2370,note_on,,1,0,6,,,,,,,,,,,,,,,,10,,83,48
2370,note_on,,1,0,7,,,,,,,,,,,,,,,,11,,76,48
2399,note_on,,29,0,6,,,,,,,,,,,,,,,,10,,83,0
2399,note_on,,59,0,10,,,,,,,,,,,,,,,,15,,76,0
2399,note_on,,59,0,9,,,,,,,,,,,,,,,,13,,56,0
2399,note_on,,29,0,7,,,,,,,,,,,,,,,,11,,76,0
2399,note_on,,0,0,10,,,,,,,,,,,,,,,,15,,64,0
2399,note_on,,119,0,5,,,,,,,,,,,,,,,,5,,71,0
2399,note_on,,0,0,10,,,,,,,,,,,,,,,,15,,71,0
2399,note_on,,59,0,8,,,,,,,,,,,,,,,,12,,56,0
2399,note_on,,0,0,10,,,,,,,,,,,,,,,,15,,56,0
2400,note_on,,0,0,10,,,,,,,,,,,,,,,,15,,64,48
2400,note_on,,0,0,10,,,,,,,,,,,,,,,,15,,59,48
2400,note_on,,1,0,9,,,,,,,,,,,,,,,,13,,56,48
2400,note_on,,1,0,10,,,,,,,,,,,,,,,,15,,56,48
2400,note_on,,1,0,7,,,,,,,,,,,,,,,,11,,76,48
2400,note_on,,1,0,8,,,,,,,,,,,,,,,,12,,56,48
2400,note_on,,1,0,6,,,,,,,,,,,,,,,,10,,83,48
2400,note_on,,1,0,5,,,,,,,,,,,,,,,,5,,74,64
2429,note_on,,29,0,6,,,,,,,,,,,,,,,,10,,83,0
2429,note_on,,29,0,7,,,,,,,,,,,,,,,,11,,76,0
2430,note_on,,1,0,7,,,,,,,,,,,,,,,,11,,71,48
2430,note_on,,1,0,6,,,,,,,,,,,,,,,,10,,74,48
2459,note_on,,29,0,7,,,,,,,,,,,,,,,,11,,71,0
2459,note_on,,59,0,5,,,,,,,,,,,,,,,,5,,74,0
2459,note_on,,59,0,8,,,,,,,,,,,,,,,,12,,56,0
2459,note_on,,59,0,9,,,,,,,,,,,,,,,,13,,56,0
2459,note_on,,59,0,10,,,,,,,,,,,,,,,,15,,56,0
2459,note_on,,29,0,6,,,,,,,,,,,,,,,,10,,74,0
2460,note_on,,1,0,9,,,,,,,,,,,,,,,,13,,56,48
2460,note_on,,1,0,5,,,,,,,,,,,,,,,,5,,74,64
2460,note_on,,1,0,7,,,,,,,,,,,,,,,,11,,71,48
2460,note_on,,1,0,10,,,,,,,,,,,,,,,,15,,56,48
2460,note_on,,1,0,8,,,,,,,,,,,,,,,,12,,56,48
2460,note_on,,1,0,6,,,,,,,,,,,,,,,,10,,74,48
2489,note_on,,29,0,7,,,,,,,,,,,,,,,,11,,71,0
2489,note_on,,29,0,6,,,,,,,,,,,,,,,,10,,74,0
2490,note_on,,1,0,7,,,,,,,,,,,,,,,,11,,76,48
2490,note_on,,1,0,6,,,,,,,,,,,,,,,,10,,83,48
2519,note_on,,29,0,6,,,,,,,,,,,,,,,,10,,83,0
2519,note_on,,29,0,7,,,,,,,,,,,,,,,,11,,76,0
2519,note_on,,59,0,5,,,,,,,,,,,,,,,,5,,74,0
2519,note_on,,59,0,9,,,,,,,,,,,,,,,,13,,56,0
2519,note_on,,59,0,10,,,,,,,,,,,,,,,,15,,56,0
2519,note_on,,59,0,8,,,,,,,,,,,,,,,,12,,56,0
2520,note_on,,1,0,8,,,,,,,,,,,,,,,,12,,56,48
2520,note_on,,1,0,6,,,,,,,,,,,,,,,,10,,83,48
2520,note_on,,1,0,9,,,,,,,,,,,,,,,,13,,56,48
2520,note_on,,1,0,5,,,,,,,,,,,,,,,,5,,76,64
2520,note_on,,1,0,7,,,,,,,,,,,,,,,,11,,76,48
2520,note_on,,1,0,10,,,,,,,,,,,,,,,,15,,56,48
2549,note_on,,29,0,6,,,,,,,,,,,,,,,,10,,83,0
2549,note_on,,29,0,7,,,,,,,,,,,,,,,,11,,76,0
2550,note_on,,1,0,7,,,,,,,,,,,,,,,,11,,71,48
2550,note_on,,1,0,6,,,,,,,,,,,,,,,,10,,74,48
2579,note_on,,29,0,7,,,,,,,,,,,,,,,,11,,71,0
2579,note_on,,59,0,10,,,,,,,,,,,,,,,,15,,56,0
2579,note_on,,29,0,6,,,,,,,,,,,,,,,,10,,74,0
2579,note_on,,59,0,9,,,,,,,,,,,,,,,,13,,56,0
2579,note_on,,59,0,8,,,,,,,,,,,,,,,,12,,56,0
2579,note_on,,59,0,5,,,,,,,,,,,,,,,,5,,76,0
2580,note_on,,1,0,10,,,,,,,,,,,,,,,,15,,56,48
2580,note_on,,1,0,6,,,,,,,,,,,,,,,,10,,74,48
2580,note_on,,1,0,5,,,,,,,,,,,,,,,,5,,71,64
2580,note_on,,1,0,9,,,,,,,,,,,,,,,,13,,56,48
2580,note_on,,1,0,8,,,,,,,,,,,,,,,,12,,56,48
2580,note_on,,1,0,7,,,,,,,,,,,,,,,,11,,71,48
2609,note_on,,29,0,7,,,,,,,,,,,,,,,,11,,71,0
2609,note_on,,29,0,6,,,,,,,,,,,,,,,,10,,74,0
2610,note_on,,1,0,7,,,,,,,,,,,,,,,,11,,74,48
2610,note_on,,1,0,6,,,,,,,,,,,,,,,,10,,83,48
2639,note_on,,29,0,7,,,,,,,,,,,,,,,,11,,74,0
2639,note_on,,59,0,5,,,,,,,,,,,,,,,,5,,71,0
2639,note_on,,59,0,10,,,,,,,,,,,,,,,,15,,64,0
2639,note_on,,0,0,10,,,,,,,,,,,,,,,,15,,59,0
2639,note_on,,59,0,9,,,,,,,,,,,,,,,,13,,56,0
2639,note_on,,29,0,6,,,,,,,,,,,,,,,,10,,83,0
2639,note_on,,59,0,8,,,,,,,,,,,,,,,,12,,56,0
2639,note_on,,0,0,10,,,,,,,,,,,,,,,,15,,56,0
2640,note_on,,0,0,10,,,,,,,,,,,,,,,,15,,61,48
2640,note_on,,1,0,6,,,,,,,,,,,,,,,,10,,76,48
2640,note_on,,1,0,5,,,,,,,,,,,,,,,,5,,73,64
2640,note_on,,0,0,10,,,,,,,,,,,,,,,,15,,64,48
2640,note_on,,1,0,8,,,,,,,,,,,,,,,,12,,57,48
2640,note_on,,1,0,9,,,,,,,,,,,,,,,,13,,57,48
2640,note_on,,1,0,7,,,,,,,,,,,,,,,,11,,73,48
2640,note_on,,0,0,10,,,,,,,,,,,,,,,,15,,69,48
2640,note_on,,1,0,10,,,,,,,,,,,,,,,,15,,57,48
2669,note_on,,29,0,7,,,,,,,,,,,,,,,,11,,73,0
2669,note_on,,29,0,6,,,,,,,,,,,,,,,,10,,76,0
2670,note_on,,1,0,7,,,,,,,,,,,,,,,,11,,69,48
2670,note_on,,1,0,6,,,,,,,,,,,,,,,,10,,73,48
2699,note_on,,29,0,6,,,,,,,,,,,,,,,,10,,73,0
2699,note_on,,59,0,8,,,,,,,,,,,,,,,,12,,57,0
2699,note_on,,59,0,9,,,,,,,,,,,,,,,,13,,57,0
2699,note_on,,59,0,10,,,,,,,,,,,,,,,,15,,57,0
2699,note_on,,29,0,7,,,,,,,,,,,,,,,,11,,69,0
2700,note_on,,1,0,8,,,,,,,,,,,,,,,,12,,57,48
2700,note_on,,1,0,9,,,,,,,,,,,,,,,,13,,57,48
2700,note_on,,1,0,10,,,,,,,,,,,,,,,,15,,57,48
2700,note_on,,1,0,6,,,,,,,,,,,,,,,,10,,73,48
2700,note_on,,1,0,7,,,,,,,,,,,,,,,,11,,69,48
2729,note_on,,29,0,6,,,,,,,,,,,,,,,,10,,73,0
2729,note_on,,29,0,7,,,,,,,,,,,,,,,,11,,69,0
2730,note_on,,1,0,7,,,,,,,,,,,,,,,,11,,73,48
2730,note_on,,1,0,6,,,,,,,,,,,,,,,,10,,76,48
2759,note_on,,29,0,7,,,,,,,,,,,,,,,,11,,73,0
2759,note_on,,29,0,6,,,,,,,,,,,,,,,,10,,76,0
2759,note_on,,59,0,8,,,,,,,,,,,,,,,,12,,57,0
2759,note_on,,119,0,5,,,,,,,,,,,,,,,,5,,73,0
2759,note_on,,59,0,10,,,,,,,,,,,,,,,,15,,57,0
2759,note_on,,59,0,9,,,,,,,,,,,,,,,,13,,57,0
2760,note_on,,1,0,7,,,,,,,,,,,,,,,,11,,73,48
2760,note_on,,1,0,8,,,,,,,,,,,,,,,,12,,57,48
2760,note_on,,1,0,9,,,,,,,,,,,,,,,,13,,57,48
2760,note_on,,1,0,6,,,,,,,,,,,,,,,,10,,76,48
2760,note_on,,1,0,10,,,,,,,,,,,,,,,,15,,57,48
2789,note_on,,29,0,6,,,,,,,,,,,,,,,,10,,76,0
2789,note_on,,29,0,7,,,,,,,,,,,,,,,,11,,73,0
2790,note_on,,1,0,7,,,,,,,,,,,,,,,,11,,69,48
2790,note_on,,1,0,6,,,,,,,,,,,,,,,,10,,73,48
2819,note_on,,59,0,10,,,,,,,,,,,,,,,,15,,57,0
2819,note_on,,29,0,6,,,,,,,,,,,,,,,,10,,73,0
2819,note_on,,59,0,9,,,,,,,,,,,,,,,,13,,57,0
2819,note_on,,29,0,7,,,,,,,,,,,,,,,,11,,69,0
2819,note_on,,59,0,8,,,,,,,,,,,,,,,,12,,57,0
2820,note_on,,1,0,8,,,,,,,,,,,,,,,,12,,57,48
2820,note_on,,1,0,6,,,,,,,,,,,,,,,,10,,73,48
2820,note_on,,1,0,10,,,,,,,,,,,,,,,,15,,57,48
2820,note_on,,1,0,7,,,,,,,,,,,,,,,,11,,69,48
2820,note_on,,1,0,9,,,,,,,,,,,,,,,,13,,57,48
2849,note_on,,29,0,6,,,,,,,,,,,,,,,,10,,73,0
2849,note_on,,29,0,7,,,,,,,,,,,,,,,,11,,69,0
2850,note_on,,1,0,7,,,,,,,,,,,,,,,,11,,73,48
2850,note_on,,1,0,6,,,,,,,,,,,,,,,,10,,76,48
2879,note_on,,0,0,10,,,,,,,,,,,,,,,,15,,64,0
2879,note_on,,59,0,10,,,,,,,,,,,,,,,,15,,69,0
2879,note_on,,29,0,7,,,,,,,,,,,,,,,,11,,73,0
2879,note_on,,29,0,6,,,,,,,,,,,,,,,,10,,76,0
2879,note_on,,59,0,9,,,,,,,,,,,,,,,,13,,57,0
2879,note_on,,0,0,10,,,,,,,,,,,,,,,,15,,61,0
2879,note_on,,0,0,10,,,,,,,,,,,,,,,,15,,57,0
2879,note_on,,59,0,8,,,,,,,,,,,,,,,,12,,57,0
2880,note_on,,1,0,8,,,,,,,,,,,,,,,,12,,57,48
2880,note_on,,1,0,7,,,,,,,,,,,,,,,,11,,73,48
2880,note_on,,1,0,10,,,,,,,,,,,,,,,,15,,64,48
2880,note_on,,1,0,6,,,,,,,,,,,,,,,,10,,81,48
2880,note_on,,0,0,10,,,,,,,,,,,,,,,,15,,69,48
2880,note_on,,0,0,10,,,,,,,,,,,,,,,,15,,73,48
2880,note_on,,0,0,10,,,,,,,,,,,,,,,,15,,57,48
2880,note_on,,1,0,9,,,,,,,,,,,,,,,,13,,57,48
2909,note_on,,29,0,6,,,,,,,,,,,,,,,,10,,81,0
2909,note_on,,29,0,7,,,,,,,,,,,,,,,,11,,73,0
2910,note_on,,1,0,7,,,,,,,,,,,,,,,,11,,81,48
2910,note_on,,1,0,6,,,,,,,,,,,,,,,,10,,76,48
2939,note_on,,59,0,8,,,,,,,,,,,,,,,,12,,57,0
2939,note_on,,59,0,10,,,,,,,,,,,,,,,,15,,57,0
2939,note_on,,59,0,9,,,,,,,,,,,,,,,,13,,57,0
2939,note_on,,29,0,6,,,,,,,,,,,,,,,,10,,76,0
2939,note_on,,29,0,7,,,,,,,,,,,,,,,,11,,81,0
2940,note_on,,1,0,10,,,,,,,,,,,,,,,,15,,57,48
2940,note_on,,1,0,9,,,,,,,,,,,,,,,,13,,57,48
2940,note_on,,1,0,8,,,,,,,,,,,,,,,,12,,57,48
2940,note_on,,1,0,6,,,,,,,,,,,,,,,,10,,76,48
2940,note_on,,1,0,7,,,,,,,,,,,,,,,,11,,81,48
2969,note_on,,29,0,6,,,,,,,,,,,,,,,,10,,76,0
2969,note_on,,29,0,7,,,,,,,,,,,,,,,,11,,81,0
2970,note_on,,1,0,7,,,,,,,,,,,,,,,,11,,73,48
2970,note_on,,1,0,6,,,,,,,,,,,,,,,,10,,81,48
2999,note_on,,59,0,10,,,,,,,,,,,,,,,,15,,57,0
2999,note_on,,59,0,9,,,,,,,,,,,,,,,,13,,57,0
2999,note_on,,29,0,7,,,,,,,,,,,,,,,,11,,73,0
2999,note_on,,59,0,8,,,,,,,,,,,,,,,,12,,57,0
2999,note_on,,29,0,6,,,,,,,,,,,,,,,,10,,81,0
3000,note_on,,241,0,5,,,,,,,,,,,,,,,,5,,76,64
3000,note_on,,1,0,7,,,,,,,,,,,,,,,,11,,73,48
3000,note_on,,1,0,10,,,,,,,,,,,,,,,,15,,57,48
3000,note_on,,1,0,8,,,,,,,,,,,,,,,,12,,57,48
3000,note_on,,1,0,6,,,,,,,,,,,,,,,,10,,81,48
3000,note_on,,1,0,9,,,,,,,,,,,,,,,,13,,57,48
3029,note_on,,29,0,6,,,,,,,,,,,,,,,,10,,81,0
3029,note_on,,29,0,7,,,,,,,,,,,,,,,,11,,73,0
3030,note_on,,1,0,6,,,,,,,,,,,,,,,,10,,76,48
3030,note_on,,1,0,7,,,,,,,,,,,,,,,,11,,81,48
3059,note_on,,29,0,7,,,,,,,,,,,,,,,,11,,81,0
3059,note_on,,59,0,5,,,,,,,,,,,,,,,,5,,76,0
3059,note_on,,59,0,8,,,,,,,,,,,,,,,,12,,57,0
3059,note_on,,59,0,9,,,,,,,,,,,,,,,,13,,57,0
3059,note_on,,29,0,6,,,,,,,,,,,,,,,,10,,76,0
3059,note_on,,59,0,10,,,,,,,,,,,,,,,,15,,57,0
3060,note_on,,1,0,9,,,,,,,,,,,,,,,,13,,57,48
3060,note_on,,1,0,6,,,,,,,,,,,,,,,,10,,76,48
3060,note_on,,1,0,10,,,,,,,,,,,,,,,,15,,57,48
3060,note_on,,1,0,7,,,,,,,,,,,,,,,,11,,81,48
3060,note_on,,1,0,5,,,,,,,,,,,,,,,,5,,73,64
3060,note_on,,1,0,8,,,,,,,,,,,,,,,,12,,57,48
3089,note_on,,29,0,6,,,,,,,,,,,,,,,,10,,76,0
3089,note_on,,29,0,7,,,,,,,,,,,,,,,,11,,81,0
3090,note_on,,1,0,7,,,,,,,,,,,,,,,,11,,76,48
3090,note_on,,1,0,6,,,,,,,,,,,,,,,,10,,81,48
3119,note_on,,29,0,7,,,,,,,,,,,,,,,,11,,76,0
3119,note_on,,0,0,10,,,,,,,,,,,,,,,,15,,57,0
3119,note_on,,0,0,10,,,,,,,,,,,,,,,,15,,69,0
3119,note_on,,0,0,10,,,,,,,,,,,,,,,,15,,73,0
3119,note_on,,29,0,6,,,,,,,,,,,,,,,,10,,81,0
3119,note_on,,59,0,10,,,,,,,,,,,,,,,,15,,64,0
3119,note_on,,59,0,8,,,,,,,,,,,,,,,,12,,57,0
3119,note_on,,59,0,9,,,,,,,,,,,,,,,,13,,57,0
3119,note_on,,59,0,5,,,,,,,,,,,,,,,,5,,73,0
3120,note_on,,0,0,10,,,,,,,,,,,,,,,,15,,66,48
3120,note_on,,0,0,10,,,,,,,,,,,,,,,,15,,74,48
3120,note_on,,1,0,7,,,,,,,,,,,,,,,,11,,78,48
3120,note_on,,1,0,5,,,,,,,,,,,,,,,,5,,78,64
3120,note_on,,1,0,6,,,,,,,,,,,,,,,,10,,81,48
3120,note_on,,1,0,10,,,,,,,,,,,,,,,,15,,62,48
3120,note_on,,1,0,9,,,,,,,,,,,,,,,,13,,62,48
3120,note_on,,1,0,8,,,,,,,,,,,,,,,,12,,62,48
3120,note_on,,0,0,10,,,,,,,,,,,,,,,,15,,69,48
3149,note_on,,29,0,7,,,,,,,,,,,,,,,,11,,78,0
3149,note_on,,29,0,6,,,,,,,,,,,,,,,,10,,81,0
3150,note_on,,1,0,6,,,,,,,,,,,,,,,,10,,78,48
3150,note_on,,1,0,7,,,,,,,,,,,,,,,,11,,74,48
3179,note_on,,29,0,7,,,,,,,,,,,,,,,,11,,74,0
3179,note_on,,29,0,6,,,,,,,,,,,,,,,,10,,78,0
3179,note_on,,59,0,10,,,,,,,,,,,,,,,,15,,62,0
3179,note_on,,59,0,8,,,,,,,,,,,,,,,,12,,62,0
3179,note_on,,59,0,9,,,,,,,,,,,,,,,,13,,62,0
3180,note_on,,1,0,7,,,,,,,,,,,,,,,,11,,74,48
3180,note_on,,1,0,10,,,,,,,,,,,,,,,,15,,62,48
3180,note_on,,1,0,8,,,,,,,,,,,,,,,,12,,62,48
3180,note_on,,1,0,6,,,,,,,,,,,,,,,,10,,78,48
3180,note_on,,1,0,9,,,,,,,,,,,,,,,,13,,62,48
3209,note_on,,29,0,7,,,,,,,,,,,,,,,,11,,74,0
3209,note_on,,29,0,6,,,,,,,,,,,,,,,,10,,78,0
3210,note_on,,1,0,7,,,,,,,,,,,,,,,,11,,78,48
3210,note_on,,1,0,6,,,,,,,,,,,,,,,,10,,81,48
3239,note_on,,59,0,10,,,,,,,,,,,,,,,,15,,62,0
3239,note_on,,119,0,5,,,,,,,,,,,,,,,,5,,78,0
3239,note_on,,29,0,7,,,,,,,,,,,,,,,,11,,78,0
3239,note_on,,59,0,9,,,,,,,,,,,,,,,,13,,62,0
3239,note_on,,59,0,8,,,,,,,,,,,,,,,,12,,62,0
3239,note_on,,29,0,6,,,,,,,,,,,,,,,,10,,81,0
3240,note_on,,1,0,6,,,,,,,,,,,,,,,,10,,81,48
3240,note_on,,1,0,10,,,,,,,,,,,,,,,,15,,62,48
3240,note_on,,1,0,9,,,,,,,,,,,,,,,,13,,62,48
3240,note_on,,1,0,8,,,,,,,,,,,,,,,,12,,62,48
3240,note_on,,1,0,7,,,,,,,,,,,,,,,,11,,78,48
3269,note_on,,29,0,7,,,,,,,,,,,,,,,,11,,78,0
3269,note_on,,29,0,6,,,,,,,,,,,,,,,,10,,81,0
3270,note_on,,1,0,7,,,,,,,,,,,,,,,,11,,74,48
3270,note_on,,1,0,6,,,,,,,,,,,,,,,,10,,78,48
3299,note_on,,29,0,7,,,,,,,,,,,,,,,,11,,74,0
3299,note_on,,59,0,10,,,,,,,,,,,,,,,,15,,62,0
3299,note_on,,59,0,8,,,,,,,,,,,,,,,,12,,62,0
3299,note_on,,59,0,9,,,,,,,,,,,,,,,,13,,62,0
3299,note_on,,29,0,6,,,,,,,,,,,,,,,,10,,78,0
3300,note_on,,1,0,10,,,,,,,,,,,,,,,,15,,62,48
3300,note_on,,61,0,5,,,,,,,,,,,,,,,,5,,81,64
3300,note_on,,1,0,8,,,,,,,,,,,,,,,,12,,62,48
3300,note_on,,1,0,6,,,,,,,,,,,,,,,,10,,78,48
3300,note_on,,1,0,9,,,,,,,,,,,,,,,,13,,62,48
3300,note_on,,1,0,7,,,,,,,,,,,,,,,,11,,74,48
3329,note_on,,29,0,7,,,,,,,,,,,,,,,,11,,74,0
3329,note_on,,29,0,6,,,,,,,,,,,,,,,,10,,78,0
3330,note_on,,1,0,6,,,,,,,,,,,,,,,,10,,81,48
3330,note_on,,1,0,7,,,,,,,,,,,,,,,,11,,78,48
3359,note_on,,59,0,8,,,,,,,,,,,,,,,,12,,62,0
3359,note_on,,0,0,10,,,,,,,,,,,,,,,,15,,62,0
3359,note_on,,0,0,10,,,,,,,,,,,,,,,,15,,69,0
3359,note_on,,59,0,10,,,,,,,,,,,,,,,,15,,74,0
3359,note_on,,29,0,6,,,,,,,,,,,,,,,,10,,81,0
3359,note_on,,0,0,10,,,,,,,,,,,,,,,,15,,66,0
3359,note_on,,59,0,9,,,,,,,,,,,,,,,,13,,62,0
3359,note_on,,59,0,5,,,,,,,,,,,,,,,,5,,81,0
3359,note_on,,29,0,7,,,,,,,,,,,,,,,,11,,78,0
3360,note_on,,1,0,6,,,,,,,,,,,,,,,,10,,81,48
3360,note_on,,0,0,10,,,,,,,,,,,,,,,,15,,69,48
3360,note_on,,1,0,7,,,,,,,,,,,,,,,,11,,76,48
3360,note_on,,1,0,8,,,,,,,,,,,,,,,,12,,64,48
3360,note_on,,0,0,10,,,,,,,,,,,,,,,,15,,71,48
3360,note_on,,1,0,9,,,,,,,,,,,,,,,,13,,64,48
3360,note_on,,1,0,5,,,,,,,,,,,,,,,,5,,81,64
3360,note_on,,1,0,10,,,,,,,,,,,,,,,,15,,64,48
3389,note_on,,29,0,6,,,,,,,,,,,,,,,,10,,81,0
3389,note_on,,29,0,7,,,,,,,,,,,,,,,,11,,76,0
3390,note_on,,1,0,6,,,,,,,,,,,,,,,,10,,76,48
3390,note_on,,1,0,7,,,,,,,,,,,,,,,,11,,71,48
3419,note_on,,59,0,8,,,,,,,,,,,,,,,,12,,64,0
3419,note_on,,59,0,10,,,,,,,,,,,,,,,,15,,64,0
3419,note_on,,59,0,9,,,,,,,,,,,,,,,,13,,64,0
3419,note_on,,29,0,7,,,,,,,,,,,,,,,,11,,71,0
3419,note_on,,29,0,6,,,,,,,,,,,,,,,,10,,76,0
3420,note_on,,1,0,9,,,,,,,,,,,,,,,,13,,64,48
3420,note_on,,1,0,10,,,,,,,,,,,,,,,,15,,64,48
3420,note_on,,1,0,8,,,,,,,,,,,,,,,,12,,64,48
3420,note_on,,1,0,6,,,,,,,,,,,,,,,,10,,76,48
3420,note_on,,1,0,7,,,,,,,,,,,,,,,,11,,71,48
3449,note_on,,29,0,7,,,,,,,,,,,,,,,,11,,71,0
3449,note_on,,29,0,6,,,,,,,,,,,,,,,,10,,76,0
3450,note_on,,1,0,6,,,,,,,,,,,,,,,,10,,81,48
3450,note_on,,1,0,7,,,,,,,,,,,,,,,,11,,76,48
3479,note_on,,0,0,10,,,,,,,,,,,,,,,,15,,64,0
3479,note_on,,29,0,6,,,,,,,,,,,,,,,,10,,81,0
3479,note_on,,59,0,8,,,,,,,,,,,,,,,,12,,64,0
3479,note_on,,59,0,9,,,,,,,,,,,,,,,,13,,64,0
3479,note_on,,119,0,5,,,,,,,,,,,,,,,,5,,81,0
3479,note_on,,29,0,7,,,,,,,,,,,,,,,,11,,76,0
3479,note_on,,0,0,10,,,,,,,,,,,,,,,,15,,69,0
3479,note_on,,59,0,10,,,,,,,,,,,,,,,,15,,71,0
3480,note_on,,0,0,10,,,,,,,,,,,,,,,,15,,71,48
3480,note_on,,0,0,10,,,,,,,,,,,,,,,,15,,64,48
3480,note_on,,1,0,10,,,,,,,,,,,,,,,,15,,76,48
3480,note_on,,1,0,6,,,,,,,,,,,,,,,,10,,80,48
3480,note_on,,1,0,9,,,,,,,,,,,,,,,,13,,64,48
3480,note_on,,1,0,5,,,,,,,,,,,,,,,,5,,76,64
3480,note_on,,1,0,8,,,,,,,,,,,,,,,,12,,64,48
3480,note_on,,1,0,7,,,,,,,,,,,,,,,,11,,76,48
3480,note_on,,0,0,10,,,,,,,,,,,,,,,,15,,68,48
3509,note_on,,29,0,6,,,,,,,,,,,,,,,,10,,80,0
3509,note_on,,29,0,7,,,,,,,,,,,,,,,,11,,76,0
3510,note_on,,1,0,7,,,,,,,,,,,,,,,,11,,71,48
3510,note_on,,1,0,6,,,,,,,,,,,,,,,,10,,76,48
3539,note_on,,59,0,10,,,,,,,,,,,,,,,,15,,64,0
3539,note_on,,59,0,9,,,,,,,,,,,,,,,,13,,64,0
3539,note_on,,29,0,7,,,,,,,,,,,,,,,,11,,71,0
3539,note_on,,59,0,8,,,,,,,,,,,,,,,,12,,64,0
3539,note_on,,29,0,6,,,,,,,,,,,,,,,,10,,76,0
3540,note_on,,1,0,7,,,,,,,,,,,,,,,,11,,71,48
3540,note_on,,1,0,6,,,,,,,,,,,,,,,,10,,74,48
3540,note_on,,1,0,9,,,,,,,,,,,,,,,,13,,64,48
3540,note_on,,1,0,10,,,,,,,,,,,,,,,,15,,64,48
3540,note_on,,1,0,8,,,,,,,,,,,,,,,,12,,64,48
3569,note_on,,29,0,7,,,,,,,,,,,,,,,,11,,71,0
3569,note_on,,29,0,6,,,,,,,,,,,,,,,,10,,74,0
3570,note_on,,1,0,7,,,,,,,,,,,,,,,,11,,74,48
3570,note_on,,1,0,6,,,,,,,,,,,,,,,,10,,80,48
3599,note_on,,59,0,10,,,,,,,,,,,,,,,,15,,76,0
3599,note_on,,0,0,10,,,,,,,,,,,,,,,,15,,68,0
3599,note_on,,119,0,5,,,,,,,,,,,,,,,,5,,76,0
3599,end_of_track,,0,1,5,,,,,,,,,,,,,,,,,,,
3599,note_on,,0,0,10,,,,,,,,,,,,,,,,15,,64,0
3599,note_on,,29,0,6,,,,,,,,,,,,,,,,10,,80,0
3599,note_on,,59,0,9,,,,,,,,,,,,,,,,13,,64,0
3599,note_on,,29,0,7,,,,,,,,,,,,,,,,11,,74,0
3599,note_on,,0,0,10,,,,,,,,,,,,,,,,15,,71,0
3599,note_on,,59,0,8,,,,,,,,,,,,,,,,12,,64,0
3600,note_on,,1,0,9,,,,,,,,,,,,,,,,13,,57,48
3600,note_on,,1,0,8,,,,,,,,,,,,,,,,12,,57,48
3600,note_on,,1,0,7,,,,,,,,,,,,,,,,11,,73,48
3600,note_on,,0,0,10,,,,,,,,,,,,,,,,15,,64,48
3600,note_on,,0,0,10,,,,,,,,,,,,,,,,15,,69,48
3600,note_on,,0,0,10,,,,,,,,,,,,,,,,15,,73,48
3600,note_on,,1,0,6,,,,,,,,,,,,,,,,10,,81,48
3600,note_on,,1,0,10,,,,,,,,,,,,,,,,15,,57,48
3719,note_on,,0,0,10,,,,,,,,,,,,,,,,15,,73,0
3719,note_on,,0,0,10,,,,,,,,,,,,,,,,15,,69,0
3719,note_on,,119,0,10,,,,,,,,,,,,,,,,15,,57,0
3719,note_on,,119,0,9,,,,,,,,,,,,,,,,13,,57,0
3719,end_of_track,,0,1,9,,,,,,,,,,,,,,,,,,,
3719,note_on,,119,0,6,,,,,,,,,,,,,,,,10,,81,0
3719,end_of_track,,0,1,6,,,,,,,,,,,,,,,,,,,
3719,note_on,,0,0,10,,,,,,,,,,,,,,,,15,,64,0
3719,note_on,,119,0,7,,,,,,,,,,,,,,,,11,,73,0
3719,end_of_track,,0,1,7,,,,,,,,,,,,,,,,,,,
3719,note_on,,119,0,8,,,,,,,,,,,,,,,,12,,57,0
3719,end_of_track,,0,1,8,,,,,,,,,,,,,,,,,,,
3719,end_of_track,,0,1,10,,,,,,,,,,,,,,,,,,,
3840,end_of_track,,0,1,0,,,,,,,,,,,,,,,,,,,
3840,set_tempo,,3840,1,0,,,,,,,,,750000,,,,,,,,,,
