tick,type,data,time,meta,track,frame_rate,hours,minutes,seconds,frames,sub_frames,port,key,tempo,numerator,denominator,clocks_per_click,notated_32nd_notes_per_beat,program,channel,control,value,note,velocity
0,sequencer_specific,"(0, 0, 91, 35, 1, 0, 5, 4, 35, 0)",0,1,0,,,,,,,,,,,,,,,,,,,
0,note_on,,0,0,16,,,,,,,,,,,,,,,15,,,74,64
0,program_change,,0,0,8,,,,,,,,,,,,,,73,6,,,,
0,control_change,,0,0,8,,,,,,,,,,,,,,,6,10,96,,
0,control_change,,0,0,8,,,,,,,,,,,,,,,6,11,127,,
0,midi_port,,0,1,8,,,,,,,0,,,,,,,,,,,,
0,track_name,,0,1,8,,,,,,,,,,,,,,,,,,,
0,program_change,,0,0,7,,,,,,,,,,,,,,73,5,,,,
0,control_change,,0,0,7,,,,,,,,,,,,,,,5,10,32,,
0,control_change,,0,0,7,,,,,,,,,,,,,,,5,11,127,,
0,midi_port,,0,1,7,,,,,,,0,,,,,,,,,,,,
0,track_name,,0,1,7,,,,,,,,,,,,,,,,,,,
0,midi_port,,0,1,11,,,,,,,0,,,,,,,,,,,,
0,note_on,,0,0,13,,,,,,,,,,,,,,,11,,,81,64
0,program_change,,0,0,13,,,,,,,,,,,,,,48,11,,,,
0,control_change,,0,0,13,,,,,,,,,,,,,,,11,7,96,,
0,control_change,,0,0,13,,,,,,,,,,,,,,,11,10,24,,
0,control_change,,0,0,13,,,,,,,,,,,,,,,11,11,127,,
0,program_change,,0,0,6,,,,,,,,,,,,,,70,1,,,,
0,control_change,,0,0,6,,,,,,,,,,,,,,,1,11,127,,
0,control_change,,0,0,6,,,,,,,,,,,,,,,1,10,65,,
0,control_change,,0,0,6,,,,,,,,,,,,,,,1,7,72,,
0,note_on,,0,0,6,,,,,,,,,,,,,,,1,,,50,64
0,note_on,,0,0,12,,,,,,,,,,,,,,,10,,,81,64
0,note_on,,0,0,16,,,,,,,,,,,,,,,15,,,69,64
0,program_change,,0,0,12,,,,,,,,,,,,,,48,10,,,,
0,control_change,,0,0,12,,,,,,,,,,,,,,,10,10,48,,
0,control_change,,0,0,12,,,,,,,,,,,,,,,10,11,127,,
0,midi_port,,0,1,12,,,,,,,0,,,,,,,,,,,,
0,track_name,,0,1,12,,,,,,,,,,,,,,,,,,,
0,track_name,,0,1,13,,,,,,,,,,,,,,,,,,,
0,midi_port,,0,1,13,,,,,,,0,,,,,,,,,,,,
0,control_change,,0,0,12,,,,,,,,,,,,,,,10,7,96,,
0,note_on,,0,0,16,,,,,,,,,,,,,,,15,,,66,64
0,note_on,,0,0,16,,,,,,,,,,,,,,,15,,,50,64
0,program_change,,0,0,16,,,,,,,,,,,,,,6,15,,,,
0,control_change,,0,0,15,,,,,,,,,,,,,,,13,10,96,,
0,control_change,,0,0,15,,,,,,,,,,,,,,,13,11,127,,
0,midi_port,,0,1,15,,,,,,,0,,,,,,,,,,,,
0,track_name,,0,1,15,,,,,,,,,,,,,,,,,,,
0,program_change,,0,0,14,,,,,,,,,,,,,,48,12,,,,
0,control_change,,0,0,14,,,,,,,,,,,,,,,12,7,96,,
0,control_change,,0,0,15,,,,,,,,,,,,,,,13,7,96,,
0,control_change,,0,0,14,,,,,,,,,,,,,,,12,10,80,,
0,midi_port,,0,1,14,,,,,,,0,,,,,,,,,,,,
0,track_name,,0,1,14,,,,,,,,,,,,,,,,,,,
0,program_change,,0,0,11,,,,,,,,,,,,,,73,14,,,,
0,control_change,,0,0,11,,,,,,,,,,,,,,,14,7,96,,
0,control_change,,0,0,11,,,,,,,,,,,,,,,14,10,70,,
0,control_change,,0,0,11,,,,,,,,,,,,,,,14,11,127,,
0,control_change,,0,0,14,,,,,,,,,,,,,,,12,11,127,,
0,midi_port,,0,1,6,,,,,,,0,,,,,,,,,,,,
0,program_change,,0,0,15,,,,,,,,,,,,,,48,13,,,,
0,program_change,,0,0,10,,,,,,,,,,,,,,60,8,,,,
0,control_change,,0,0,16,,,,,,,,,,,,,,,15,7,96,,
0,control_change,,0,0,16,,,,,,,,,,,,,,,15,10,64,,
0,control_change,,0,0,16,,,,,,,,,,,,,,,15,11,127,,
0,midi_port,,0,1,16,,,,,,,0,,,,,,,,,,,,
0,track_name,,0,1,16,,,,,,,,,,,,,,,,,,,
0,track_name,,0,1,9,,,,,,,,,,,,,,,,,,,
0,note_on,,0,0,15,,,,,,,,,,,,,,,13,,,50,64
0,midi_port,,0,1,9,,,,,,,0,,,,,,,,,,,,
0,control_change,,0,0,9,,,,,,,,,,,,,,,7,10,48,,
0,program_change,,0,0,9,,,,,,,,,,,,,,70,7,,,,
0,track_name,,0,1,10,,,,,,,,,,,,,,,,,,,
0,midi_port,,0,1,10,,,,,,,0,,,,,,,,,,,,
0,control_change,,0,0,10,,,,,,,,,,,,,,,8,11,127,,
0,control_change,,0,0,10,,,,,,,,,,,,,,,8,10,80,,
0,control_change,,0,0,9,,,,,,,,,,,,,,,7,11,127,,
0,track_name,,0,1,6,,,,,,,,,,,,,,,,,,,
0,track_name,,0,1,11,,,,,,,,,,,,,,,,,,,
0,time_signature,,0,1,0,,,,,,,,,,7,8,12,8,,,,,,
0,midi_port,,0,1,4,,,,,,,0,,,,,,,,,,,,
0,end_of_track,,0,1,3,,,,,,,,,,,,,,,,,,,
0,midi_port,,0,1,3,,,,,,,0,,,,,,,,,,,,
0,key_signature,,0,1,0,,,,,,,,D,,,,,,,,,,,
0,set_tempo,,0,1,0,,,,,,,,,600000,,,,,,,,,,
0,track_name,,0,1,1,,,,,,,,,,,,,,,,,,,
0,midi_port,,0,1,1,,,,,,,0,,,,,,,,,,,,
0,end_of_track,,0,1,1,,,,,,,,,,,,,,,,,,,
0,track_name,,0,1,2,,,,,,,,,,,,,,,,,,,
0,midi_port,,0,1,2,,,,,,,0,,,,,,,,,,,,
0,end_of_track,,0,1,2,,,,,,,,,,,,,,,,,,,
0,end_of_track,,0,1,4,,,,,,,,,,,,,,,,,,,
0,track_name,,0,1,5,,,,,,,,,,,,,,,,,,,
0,track_name,,0,1,3,,,,,,,,,,,,,,,,,,,
0,midi_port,,0,1,5,,,,,,,0,,,,,,,,,,,,
0,program_change,,0,0,5,,,,,,,,,,,,,,68,0,,,,
0,control_change,,0,0,5,,,,,,,,,,,,,,,0,11,127,,
0,control_change,,0,0,5,,,,,,,,,,,,,,,0,10,70,,
0,control_change,,0,0,5,,,,,,,,,,,,,,,0,7,72,,
0,midi_port,,0,1,0,,,,,,,0,,,,,,,,,,,,
0,smpte_offset,,0,1,0,25,32,0,3,0,0,,,,,,,,,,,,,
0,instrument_name,,0,1,0,,,,,,,,,,,,,,,,,,,
0,track_name,,0,1,0,,,,,,,,,,,,,,,,,,,
59,note_on,,0,0,16,,,,,,,,,,,,,,,15,,,74,0
59,note_on,,59,0,16,,,,,,,,,,,,,,,15,,,50,0
59,note_on,,59,0,15,,,,,,,,,,,,,,,13,,,50,0
59,note_on,,59,0,13,,,,,,,,,,,,,,,11,,,81,0
59,note_on,,0,0,16,,,,,,,,,,,,,,,15,,,69,0
59,note_on,,0,0,16,,,,,,,,,,,,,,,15,,,66,0
59,note_on,,59,0,12,,,,,,,,,,,,,,,10,,,81,0
59,note_on,,59,0,6,,,,,,,,,,,,,,,1,,,50,0
60,note_on,,1,0,6,,,,,,,,,,,,,,,1,,,54,64
60,note_on,,1,0,12,,,,,,,,,,,,,,,10,,,74,64
60,note_on,,1,0,15,,,,,,,,,,,,,,,13,,,54,64
60,note_on,,1,0,16,,,,,,,,,,,,,,,15,,,62,64
60,note_on,,0,0,16,,,,,,,,,,,,,,,15,,,69,64
60,note_on,,1,0,13,,,,,,,,,,,,,,,11,,,74,64
60,note_on,,0,0,16,,,,,,,,,,,,,,,15,,,54,64
60,note_on,,0,0,16,,,,,,,,,,,,,,,15,,,69,64
119,note_on,,59,0,16,,,,,,,,,,,,,,,15,,,69,0
119,note_on,,59,0,15,,,,,,,,,,,,,,,13,,,54,0
119,note_on,,0,0,16,,,,,,,,,,,,,,,15,,,54,0
119,note_on,,59,0,6,,,,,,,,,,,,,,,1,,,54,0
120,note_on,,1,0,6,,,,,,,,,,,,,,,1,,,55,64
120,note_on,,1,0,16,,,,,,,,,,,,,,,15,,,55,64
120,note_on,,0,0,16,,,,,,,,,,,,,,,15,,,71,64
120,note_on,,1,0,15,,,,,,,,,,,,,,,13,,,55,64
179,note_on,,59,0,6,,,,,,,,,,,,,,,1,,,55,0
179,note_on,,59,0,16,,,,,,,,,,,,,,,15,,,62,0
179,note_on,,119,0,13,,,,,,,,,,,,,,,11,,,74,0
179,note_on,,59,0,15,,,,,,,,,,,,,,,13,,,55,0
179,note_on,,119,0,12,,,,,,,,,,,,,,,10,,,74,0
179,note_on,,0,0,16,,,,,,,,,,,,,,,15,,,69,0
179,note_on,,0,0,16,,,,,,,,,,,,,,,15,,,55,0
180,note_on,,1,0,13,,,,,,,,,,,,,,,11,,,76,64
180,note_on,,1,0,15,,,,,,,,,,,,,,,13,,,52,64
180,note_on,,1,0,12,,,,,,,,,,,,,,,10,,,76,64
180,note_on,,1,0,6,,,,,,,,,,,,,,,1,,,52,64
180,note_on,,0,0,16,,,,,,,,,,,,,,,15,,,64,64
180,note_on,,0,0,16,,,,,,,,,,,,,,,15,,,67,64
180,note_on,,1,0,16,,,,,,,,,,,,,,,15,,,52,64
239,note_on,,59,0,12,,,,,,,,,,,,,,,10,,,76,0
239,note_on,,59,0,16,,,,,,,,,,,,,,,15,,,71,0
239,note_on,,0,0,16,,,,,,,,,,,,,,,15,,,67,0
239,note_on,,59,0,6,,,,,,,,,,,,,,,1,,,52,0
239,note_on,,59,0,15,,,,,,,,,,,,,,,13,,,52,0
239,note_on,,59,0,13,,,,,,,,,,,,,,,11,,,76,0
239,note_on,,0,0,16,,,,,,,,,,,,,,,15,,,52,0
239,note_on,,0,0,16,,,,,,,,,,,,,,,15,,,64,0
240,note_on,,1,0,15,,,,,,,,,,,,,,,13,,,57,64
240,note_on,,1,0,12,,,,,,,,,,,,,,,10,,,73,64
240,note_on,,1,0,13,,,,,,,,,,,,,,,11,,,73,64
240,note_on,,1,0,6,,,,,,,,,,,,,,,1,,,57,64
240,note_on,,0,0,16,,,,,,,,,,,,,,,15,,,61,64
240,note_on,,0,0,16,,,,,,,,,,,,,,,15,,,69,64
240,note_on,,0,0,16,,,,,,,,,,,,,,,15,,,64,64
240,note_on,,1,0,16,,,,,,,,,,,,,,,15,,,57,64
299,note_on,,59,0,13,,,,,,,,,,,,,,,11,,,73,0
299,note_on,,59,0,15,,,,,,,,,,,,,,,13,,,57,0
299,note_on,,59,0,16,,,,,,,,,,,,,,,15,,,57,0
299,note_on,,59,0,12,,,,,,,,,,,,,,,10,,,73,0
299,note_on,,59,0,6,,,,,,,,,,,,,,,1,,,57,0
300,note_on,,1,0,15,,,,,,,,,,,,,,,13,,,59,64
300,note_on,,1,0,13,,,,,,,,,,,,,,,11,,,74,64
300,note_on,,1,0,16,,,,,,,,,,,,,,,15,,,59,64
300,note_on,,1,0,12,,,,,,,,,,,,,,,10,,,74,64
300,note_on,,1,0,6,,,,,,,,,,,,,,,1,,,59,64
359,note_on,,59,0,13,,,,,,,,,,,,,,,11,,,74,0
359,note_on,,59,0,15,,,,,,,,,,,,,,,13,,,59,0
359,note_on,,0,0,16,,,,,,,,,,,,,,,15,,,59,0
359,note_on,,59,0,16,,,,,,,,,,,,,,,15,,,69,0
359,note_on,,59,0,6,,,,,,,,,,,,,,,1,,,59,0
359,note_on,,59,0,12,,,,,,,,,,,,,,,10,,,74,0
360,note_on,,1,0,12,,,,,,,,,,,,,,,10,,,76,64
360,note_on,,1,0,15,,,,,,,,,,,,,,,13,,,61,64
360,note_on,,1,0,13,,,,,,,,,,,,,,,11,,,76,64
360,note_on,,1,0,16,,,,,,,,,,,,,,,15,,,61,64
360,note_on,,1,0,6,,,,,,,,,,,,,,,1,,,61,64
419,note_on,,0,0,16,,,,,,,,,,,,,,,15,,,61,0
419,note_on,,0,0,16,,,,,,,,,,,,,,,15,,,61,0
419,note_on,,59,0,16,,,,,,,,,,,,,,,15,,,64,0
419,note_on,,59,0,6,,,,,,,,,,,,,,,1,,,61,0
419,note_on,,59,0,15,,,,,,,,,,,,,,,13,,,61,0
419,note_on,,59,0,12,,,,,,,,,,,,,,,10,,,76,0
419,note_on,,59,0,13,,,,,,,,,,,,,,,11,,,76,0
420,time_signature,,420,1,0,,,,,,,,,,6,8,24,8,,,,,,
420,note_on,,1,0,6,,,,,,,,,,,,,,,1,,,62,64
420,note_on,,0,0,16,,,,,,,,,,,,,,,15,,,66,64
420,note_on,,1,0,12,,,,,,,,,,,,,,,10,,,78,64
420,note_on,,1,0,16,,,,,,,,,,,,,,,15,,,69,64
420,note_on,,1,0,13,,,,,,,,,,,,,,,11,,,78,64
420,note_on,,0,0,16,,,,,,,,,,,,,,,15,,,62,64
420,note_on,,1,0,15,,,,,,,,,,,,,,,13,,,62,64
479,note_on,,59,0,13,,,,,,,,,,,,,,,11,,,78,0
479,note_on,,59,0,6,,,,,,,,,,,,,,,1,,,62,0
479,note_on,,59,0,16,,,,,,,,,,,,,,,15,,,69,0
479,note_on,,0,0,16,,,,,,,,,,,,,,,15,,,62,0
479,note_on,,0,0,16,,,,,,,,,,,,,,,15,,,66,0
479,note_on,,59,0,12,,,,,,,,,,,,,,,10,,,78,0
479,note_on,,59,0,15,,,,,,,,,,,,,,,13,,,62,0
480,note_on,,1,0,6,,,,,,,,,,,,,,,1,,,64,64
480,note_on,,1,0,16,,,,,,,,,,,,,,,15,,,67,64
480,note_on,,0,0,16,,,,,,,,,,,,,,,15,,,64,64
480,note_on,,0,0,16,,,,,,,,,,,,,,,15,,,73,64
480,note_on,,1,0,15,,,,,,,,,,,,,,,13,,,64,64
480,note_on,,1,0,12,,,,,,,,,,,,,,,10,,,79,64
480,note_on,,1,0,13,,,,,,,,,,,,,,,11,,,79,64
539,note_on,,0,0,16,,,,,,,,,,,,,,,15,,,73,0
539,note_on,,59,0,12,,,,,,,,,,,,,,,10,,,79,0
539,note_on,,59,0,13,,,,,,,,,,,,,,,11,,,79,0
539,note_on,,59,0,16,,,,,,,,,,,,,,,15,,,67,0
539,note_on,,59,0,6,,,,,,,,,,,,,,,1,,,64,0
539,note_on,,59,0,15,,,,,,,,,,,,,,,13,,,64,0
539,note_on,,0,0,16,,,,,,,,,,,,,,,15,,,64,0
540,note_on,,1,0,15,,,,,,,,,,,,,,,13,,,62,64
540,note_on,,1,0,6,,,,,,,,,,,,,,,1,,,62,64
540,note_on,,1,0,13,,,,,,,,,,,,,,,11,,,78,64
540,note_on,,1,0,16,,,,,,,,,,,,,,,15,,,62,64
540,note_on,,0,0,16,,,,,,,,,,,,,,,15,,,66,64
540,note_on,,0,0,16,,,,,,,,,,,,,,,15,,,74,64
540,note_on,,1,0,12,,,,,,,,,,,,,,,10,,,78,64
540,note_on,,0,0,16,,,,,,,,,,,,,,,15,,,69,64
599,note_on,,59,0,16,,,,,,,,,,,,,,,15,,,62,0
599,note_on,,0,0,16,,,,,,,,,,,,,,,15,,,66,0
599,note_on,,0,0,16,,,,,,,,,,,,,,,15,,,74,0
599,note_on,,0,0,16,,,,,,,,,,,,,,,15,,,69,0
599,note_on,,59,0,15,,,,,,,,,,,,,,,13,,,62,0
599,note_on,,59,0,13,,,,,,,,,,,,,,,11,,,78,0
599,note_on,,59,0,12,,,,,,,,,,,,,,,10,,,78,0
599,note_on,,59,0,6,,,,,,,,,,,,,,,1,,,62,0
600,note_on,,0,0,16,,,,,,,,,,,,,,,15,,,74,64
600,note_on,,1,0,6,,,,,,,,,,,,,,,1,,,57,64
600,note_on,,1,0,13,,,,,,,,,,,,,,,11,,,78,64
600,note_on,,0,0,16,,,,,,,,,,,,,,,15,,,57,64
600,note_on,,1,0,16,,,,,,,,,,,,,,,15,,,66,64
600,note_on,,0,0,16,,,,,,,,,,,,,,,15,,,69,64
600,note_on,,1,0,12,,,,,,,,,,,,,,,10,,,78,64
600,note_on,,1,0,15,,,,,,,,,,,,,,,13,,,57,64
614,note_on,,14,0,12,,,,,,,,,,,,,,,10,,,78,0
614,note_on,,14,0,13,,,,,,,,,,,,,,,11,,,78,0
615,note_on,,1,0,12,,,,,,,,,,,,,,,10,,,79,64
615,note_on,,1,0,13,,,,,,,,,,,,,,,11,,,79,64
629,note_on,,14,0,13,,,,,,,,,,,,,,,11,,,79,0
629,note_on,,14,0,12,,,,,,,,,,,,,,,10,,,79,0
630,note_on,,1,0,13,,,,,,,,,,,,,,,11,,,76,64
630,note_on,,1,0,12,,,,,,,,,,,,,,,10,,,76,64
644,note_on,,14,0,12,,,,,,,,,,,,,,,10,,,76,0
644,note_on,,14,0,13,,,,,,,,,,,,,,,11,,,76,0
645,note_on,,1,0,13,,,,,,,,,,,,,,,11,,,78,64
645,note_on,,1,0,12,,,,,,,,,,,,,,,10,,,78,64
659,note_on,,59,0,16,,,,,,,,,,,,,,,15,,,66,0
659,note_on,,0,0,16,,,,,,,,,,,,,,,15,,,74,0
659,note_on,,0,0,16,,,,,,,,,,,,,,,15,,,69,0
659,note_on,,14,0,12,,,,,,,,,,,,,,,10,,,78,0
659,note_on,,14,0,13,,,,,,,,,,,,,,,11,,,78,0
660,note_on,,1,0,13,,,,,,,,,,,,,,,11,,,76,64
660,note_on,,0,0,16,,,,,,,,,,,,,,,15,,,69,64
660,note_on,,1,0,16,,,,,,,,,,,,,,,15,,,64,64
660,note_on,,0,0,16,,,,,,,,,,,,,,,15,,,73,64
660,note_on,,1,0,12,,,,,,,,,,,,,,,10,,,76,64
719,note_on,,59,0,16,,,,,,,,,,,,,,,15,,,57,0
719,note_on,,59,0,13,,,,,,,,,,,,,,,11,,,76,0
719,note_on,,0,0,16,,,,,,,,,,,,,,,15,,,73,0
719,note_on,,0,0,16,,,,,,,,,,,,,,,15,,,64,0
719,note_on,,59,0,12,,,,,,,,,,,,,,,10,,,76,0
719,note_on,,119,0,15,,,,,,,,,,,,,,,13,,,57,0
719,note_on,,119,0,6,,,,,,,,,,,,,,,1,,,57,0
719,note_on,,0,0,16,,,,,,,,,,,,,,,15,,,69,0
720,note_on,,1,0,16,,,,,,,,,,,,,,,15,,,55,64
720,note_on,,0,0,16,,,,,,,,,,,,,,,15,,,69,64
720,note_on,,0,0,16,,,,,,,,,,,,,,,15,,,76,64
720,note_on,,0,0,16,,,,,,,,,,,,,,,15,,,73,64
720,note_on,,1,0,13,,,,,,,,,,,,,,,11,,,69,64
720,note_on,,1,0,12,,,,,,,,,,,,,,,10,,,69,64
720,note_on,,1,0,6,,,,,,,,,,,,,,,1,,,55,64
720,note_on,,1,0,15,,,,,,,,,,,,,,,13,,,55,64
779,note_on,,59,0,15,,,,,,,,,,,,,,,13,,,55,0
779,note_on,,0,0,16,,,,,,,,,,,,,,,15,,,69,0
779,note_on,,0,0,16,,,,,,,,,,,,,,,15,,,76,0
779,note_on,,0,0,16,,,,,,,,,,,,,,,15,,,73,0
779,note_on,,59,0,12,,,,,,,,,,,,,,,10,,,69,0
779,note_on,,59,0,16,,,,,,,,,,,,,,,15,,,55,0
779,note_on,,59,0,6,,,,,,,,,,,,,,,1,,,55,0
779,note_on,,59,0,13,,,,,,,,,,,,,,,11,,,69,0
780,note_on,,1,0,12,,,,,,,,,,,,,,,10,,,81,64
780,note_on,,0,0,16,,,,,,,,,,,,,,,15,,,62,64
780,note_on,,0,0,16,,,,,,,,,,,,,,,15,,,74,64
780,note_on,,0,0,16,,,,,,,,,,,,,,,15,,,54,64
780,note_on,,1,0,16,,,,,,,,,,,,,,,15,,,69,64
780,note_on,,1,0,6,,,,,,,,,,,,,,,1,,,54,64
780,note_on,,1,0,13,,,,,,,,,,,,,,,11,,,81,64
780,note_on,,1,0,15,,,,,,,,,,,,,,,13,,,54,64
809,note_on,,29,0,13,,,,,,,,,,,,,,,11,,,81,0
809,note_on,,29,0,12,,,,,,,,,,,,,,,10,,,81,0
810,note_on,,1,0,12,,,,,,,,,,,,,,,10,,,83,64
810,note_on,,1,0,13,,,,,,,,,,,,,,,11,,,83,64
839,note_on,,29,0,13,,,,,,,,,,,,,,,11,,,83,0
839,note_on,,29,0,12,,,,,,,,,,,,,,,10,,,83,0
840,note_on,,1,0,13,,,,,,,,,,,,,,,11,,,81,64
840,note_on,,1,0,12,,,,,,,,,,,,,,,10,,,81,64
869,note_on,,29,0,13,,,,,,,,,,,,,,,11,,,81,0
869,note_on,,29,0,12,,,,,,,,,,,,,,,10,,,81,0
870,note_on,,1,0,13,,,,,,,,,,,,,,,11,,,69,64
870,note_on,,1,0,12,,,,,,,,,,,,,,,10,,,69,64
899,note_on,,119,0,6,,,,,,,,,,,,,,,1,,,54,0
899,note_on,,29,0,13,,,,,,,,,,,,,,,11,,,69,0
899,note_on,,119,0,15,,,,,,,,,,,,,,,13,,,54,0
899,note_on,,29,0,12,,,,,,,,,,,,,,,10,,,69,0
899,note_on,,119,0,16,,,,,,,,,,,,,,,15,,,54,0
900,note_on,,1,0,6,,,,,,,,,,,,,,,1,,,62,64
900,note_on,,1,0,15,,,,,,,,,,,,,,,13,,,62,64
900,note_on,,1,0,13,,,,,,,,,,,,,,,11,,,71,64
900,note_on,,1,0,12,,,,,,,,,,,,,,,10,,,71,64
900,note_on,,1,0,16,,,,,,,,,,,,,,,15,,,62,64
929,note_on,,29,0,12,,,,,,,,,,,,,,,10,,,71,0
929,note_on,,29,0,13,,,,,,,,,,,,,,,11,,,71,0
930,note_on,,1,0,13,,,,,,,,,,,,,,,11,,,69,64
930,note_on,,1,0,12,,,,,,,,,,,,,,,10,,,69,64
959,note_on,,0,0,16,,,,,,,,,,,,,,,15,,,62,0
959,note_on,,0,0,16,,,,,,,,,,,,,,,15,,,62,0
959,note_on,,59,0,16,,,,,,,,,,,,,,,15,,,69,0
959,note_on,,59,0,15,,,,,,,,,,,,,,,13,,,62,0
959,note_on,,29,0,12,,,,,,,,,,,,,,,10,,,69,0
959,note_on,,29,0,13,,,,,,,,,,,,,,,11,,,69,0
959,note_on,,59,0,6,,,,,,,,,,,,,,,1,,,62,0
959,note_on,,0,0,16,,,,,,,,,,,,,,,15,,,74,0
960,note_on,,1,0,16,,,,,,,,,,,,,,,15,,,52,64
960,note_on,,0,0,16,,,,,,,,,,,,,,,15,,,73,64
960,note_on,,0,0,16,,,,,,,,,,,,,,,15,,,67,64
960,note_on,,0,0,16,,,,,,,,,,,,,,,15,,,76,64
960,note_on,,1,0,13,,,,,,,,,,,,,,,11,,,79,64
960,note_on,,1,0,6,,,,,,,,,,,,,,,1,,,52,64
960,note_on,,1,0,12,,,,,,,,,,,,,,,10,,,79,64
960,note_on,,1,0,15,,,,,,,,,,,,,,,13,,,52,64
989,note_on,,29,0,13,,,,,,,,,,,,,,,11,,,79,0
989,note_on,,29,0,12,,,,,,,,,,,,,,,10,,,79,0
990,note_on,,1,0,12,,,,,,,,,,,,,,,10,,,81,64
990,note_on,,1,0,13,,,,,,,,,,,,,,,11,,,81,64
1019,note_on,,29,0,13,,,,,,,,,,,,,,,11,,,81,0
1019,note_on,,29,0,12,,,,,,,,,,,,,,,10,,,81,0
1020,note_on,,1,0,13,,,,,,,,,,,,,,,11,,,79,64
1020,note_on,,1,0,12,,,,,,,,,,,,,,,10,,,79,64
1049,note_on,,29,0,13,,,,,,,,,,,,,,,11,,,79,0
1049,note_on,,29,0,12,,,,,,,,,,,,,,,10,,,79,0
1050,note_on,,1,0,12,,,,,,,,,,,,,,,10,,,69,64
1050,note_on,,1,0,13,,,,,,,,,,,,,,,11,,,69,64
1079,note_on,,119,0,15,,,,,,,,,,,,,,,13,,,52,0
1079,note_on,,29,0,12,,,,,,,,,,,,,,,10,,,69,0
1079,note_on,,119,0,16,,,,,,,,,,,,,,,15,,,52,0
1079,note_on,,0,0,16,,,,,,,,,,,,,,,15,,,76,0
1079,note_on,,0,0,16,,,,,,,,,,,,,,,15,,,67,0
1079,note_on,,0,0,16,,,,,,,,,,,,,,,15,,,73,0
1079,note_on,,29,0,13,,,,,,,,,,,,,,,11,,,69,0
1079,note_on,,119,0,6,,,,,,,,,,,,,,,1,,,52,0
1080,note_on,,1,0,13,,,,,,,,,,,,,,,11,,,71,64
1080,note_on,,1,0,6,,,,,,,,,,,,,,,1,,,61,64
1080,note_on,,1,0,15,,,,,,,,,,,,,,,13,,,61,64
1080,note_on,,0,0,16,,,,,,,,,,,,,,,15,,,64,64
1080,note_on,,0,0,16,,,,,,,,,,,,,,,15,,,69,64
1080,note_on,,1,0,16,,,,,,,,,,,,,,,15,,,61,64
1080,note_on,,1,0,12,,,,,,,,,,,,,,,10,,,71,64
1109,note_on,,29,0,13,,,,,,,,,,,,,,,11,,,71,0
1109,note_on,,29,0,12,,,,,,,,,,,,,,,10,,,71,0
1110,note_on,,1,0,12,,,,,,,,,,,,,,,10,,,69,64
1110,note_on,,1,0,13,,,,,,,,,,,,,,,11,,,69,64
1139,note_on,,0,0,16,,,,,,,,,,,,,,,15,,,69,0
1139,note_on,,59,0,6,,,,,,,,,,,,,,,1,,,61,0
1139,note_on,,29,0,13,,,,,,,,,,,,,,,11,,,69,0
1139,note_on,,0,0,16,,,,,,,,,,,,,,,15,,,64,0
1139,note_on,,29,0,12,,,,,,,,,,,,,,,10,,,69,0
1139,note_on,,59,0,16,,,,,,,,,,,,,,,15,,,61,0
1139,note_on,,59,0,15,,,,,,,,,,,,,,,13,,,61,0
1140,note_on,,1,0,16,,,,,,,,,,,,,,,15,,,74,64
1140,note_on,,0,0,16,,,,,,,,,,,,,,,15,,,50,64
1140,note_on,,1,0,6,,,,,,,,,,,,,,,1,,,50,64
1140,note_on,,0,0,16,,,,,,,,,,,,,,,15,,,69,64
1140,note_on,,1,0,12,,,,,,,,,,,,,,,10,,,78,64
1140,note_on,,1,0,15,,,,,,,,,,,,,,,13,,,50,64
1140,note_on,,1,0,13,,,,,,,,,,,,,,,11,,,78,64
1140,note_on,,0,0,16,,,,,,,,,,,,,,,15,,,78,64
1169,note_on,,29,0,12,,,,,,,,,,,,,,,10,,,78,0
1169,note_on,,29,0,13,,,,,,,,,,,,,,,11,,,78,0
1170,note_on,,1,0,13,,,,,,,,,,,,,,,11,,,79,64
1170,note_on,,1,0,12,,,,,,,,,,,,,,,10,,,79,64
1199,note_on,,29,0,13,,,,,,,,,,,,,,,11,,,79,0
1199,note_on,,29,0,12,,,,,,,,,,,,,,,10,,,79,0
1200,note_on,,1,0,13,,,,,,,,,,,,,,,11,,,78,64
1200,note_on,,1,0,12,,,,,,,,,,,,,,,10,,,78,64
1229,note_on,,29,0,13,,,,,,,,,,,,,,,11,,,78,0
1229,note_on,,29,0,12,,,,,,,,,,,,,,,10,,,78,0
1230,note_on,,1,0,13,,,,,,,,,,,,,,,11,,,69,64
1230,note_on,,1,0,12,,,,,,,,,,,,,,,10,,,69,64
1259,note_on,,119,0,6,,,,,,,,,,,,,,,1,,,50,0
1259,note_on,,29,0,12,,,,,,,,,,,,,,,10,,,69,0
1259,note_on,,119,0,16,,,,,,,,,,,,,,,15,,,50,0
1259,note_on,,29,0,13,,,,,,,,,,,,,,,11,,,69,0
1259,note_on,,119,0,15,,,,,,,,,,,,,,,13,,,50,0
1260,note_on,,1,0,16,,,,,,,,,,,,,,,15,,,62,64
1260,note_on,,1,0,12,,,,,,,,,,,,,,,10,,,71,64
1260,note_on,,1,0,6,,,,,,,,,,,,,,,1,,,62,64
1260,note_on,,1,0,15,,,,,,,,,,,,,,,13,,,62,64
1260,note_on,,1,0,13,,,,,,,,,,,,,,,11,,,71,64
1289,note_on,,29,0,12,,,,,,,,,,,,,,,10,,,71,0
1289,note_on,,29,0,13,,,,,,,,,,,,,,,11,,,71,0
1290,note_on,,1,0,12,,,,,,,,,,,,,,,10,,,69,64
1290,note_on,,1,0,13,,,,,,,,,,,,,,,11,,,69,64
1319,note_on,,29,0,13,,,,,,,,,,,,,,,11,,,69,0
1319,note_on,,59,0,15,,,,,,,,,,,,,,,13,,,62,0
1319,note_on,,29,0,12,,,,,,,,,,,,,,,10,,,69,0
1319,note_on,,0,0,16,,,,,,,,,,,,,,,15,,,78,0
1319,note_on,,0,0,16,,,,,,,,,,,,,,,15,,,69,0
1319,note_on,,59,0,6,,,,,,,,,,,,,,,1,,,62,0
1319,note_on,,59,0,16,,,,,,,,,,,,,,,15,,,74,0
1319,note_on,,0,0,16,,,,,,,,,,,,,,,15,,,62,0
1320,note_on,,1,0,13,,,,,,,,,,,,,,,11,,,76,64
1320,note_on,,1,0,12,,,,,,,,,,,,,,,10,,,76,64
1320,note_on,,0,0,16,,,,,,,,,,,,,,,15,,,61,64
1320,note_on,,1,0,15,,,,,,,,,,,,,,,13,,,61,64
1320,note_on,,0,0,16,,,,,,,,,,,,,,,15,,,64,64
1320,note_on,,0,0,16,,,,,,,,,,,,,,,15,,,69,64
1320,note_on,,1,0,16,,,,,,,,,,,,,,,15,,,69,64
1320,note_on,,1,0,6,,,,,,,,,,,,,,,1,,,61,64
1349,note_on,,29,0,13,,,,,,,,,,,,,,,11,,,76,0
1349,note_on,,29,0,12,,,,,,,,,,,,,,,10,,,76,0
1350,note_on,,1,0,12,,,,,,,,,,,,,,,10,,,78,64
1350,note_on,,1,0,13,,,,,,,,,,,,,,,11,,,78,64
1379,note_on,,29,0,13,,,,,,,,,,,,,,,11,,,78,0
1379,note_on,,29,0,12,,,,,,,,,,,,,,,10,,,78,0
1380,note_on,,1,0,13,,,,,,,,,,,,,,,11,,,76,64
1380,note_on,,1,0,12,,,,,,,,,,,,,,,10,,,76,64
1409,note_on,,29,0,12,,,,,,,,,,,,,,,10,,,76,0
1409,note_on,,29,0,13,,,,,,,,,,,,,,,11,,,76,0
1410,note_on,,1,0,12,,,,,,,,,,,,,,,10,,,81,64
1410,note_on,,1,0,13,,,,,,,,,,,,,,,11,,,81,64
1439,note_on,,29,0,13,,,,,,,,,,,,,,,11,,,81,0
1439,note_on,,119,0,16,,,,,,,,,,,,,,,15,,,69,0
1439,note_on,,0,0,16,,,,,,,,,,,,,,,15,,,61,0
1439,note_on,,119,0,6,,,,,,,,,,,,,,,1,,,61,0
1439,note_on,,119,0,15,,,,,,,,,,,,,,,13,,,61,0
1439,note_on,,29,0,12,,,,,,,,,,,,,,,10,,,81,0
1440,note_on,,1,0,16,,,,,,,,,,,,,,,15,,,57,64
1440,note_on,,1,0,13,,,,,,,,,,,,,,,11,,,83,64
1440,note_on,,0,0,16,,,,,,,,,,,,,,,15,,,73,64
1440,note_on,,1,0,15,,,,,,,,,,,,,,,13,,,57,64
1440,note_on,,1,0,12,,,,,,,,,,,,,,,10,,,83,64
1440,note_on,,1,0,6,,,,,,,,,,,,,,,1,,,57,64
1469,note_on,,29,0,12,,,,,,,,,,,,,,,10,,,83,0
1469,note_on,,29,0,13,,,,,,,,,,,,,,,11,,,83,0
1470,note_on,,1,0,12,,,,,,,,,,,,,,,10,,,85,64
1470,note_on,,1,0,13,,,,,,,,,,,,,,,11,,,85,64
1499,note_on,,29,0,13,,,,,,,,,,,,,,,11,,,85,0
1499,note_on,,59,0,15,,,,,,,,,,,,,,,13,,,57,0
1499,note_on,,59,0,6,,,,,,,,,,,,,,,1,,,57,0
1499,note_on,,0,0,16,,,,,,,,,,,,,,,15,,,73,0
1499,note_on,,0,0,16,,,,,,,,,,,,,,,15,,,57,0
1499,note_on,,0,0,16,,,,,,,,,,,,,,,15,,,64,0
1499,note_on,,59,0,16,,,,,,,,,,,,,,,15,,,69,0
1499,note_on,,29,0,12,,,,,,,,,,,,,,,10,,,85,0
1500,note_on,,0,0,16,,,,,,,,,,,,,,,15,,,69,64
1500,note_on,,1,0,16,,,,,,,,,,,,,,,15,,,54,64
1500,note_on,,1,0,15,,,,,,,,,,,,,,,13,,,54,64
1500,note_on,,1,0,6,,,,,,,,,,,,,,,1,,,54,64
1500,note_on,,1,0,13,,,,,,,,,,,,,,,11,,,86,64
1500,note_on,,1,0,12,,,,,,,,,,,,,,,10,,,86,64
1500,note_on,,0,0,16,,,,,,,,,,,,,,,15,,,74,64
1500,note_on,,0,0,16,,,,,,,,,,,,,,,15,,,62,64
1529,note_on,,29,0,12,,,,,,,,,,,,,,,10,,,86,0
1529,note_on,,29,0,13,,,,,,,,,,,,,,,11,,,86,0
1530,note_on,,1,0,13,,,,,,,,,,,,,,,11,,,85,64
1530,note_on,,1,0,12,,,,,,,,,,,,,,,10,,,85,64
1559,note_on,,29,0,12,,,,,,,,,,,,,,,10,,,85,0
1559,note_on,,29,0,13,,,,,,,,,,,,,,,11,,,85,0
1560,note_on,,1,0,13,,,,,,,,,,,,,,,11,,,86,64
1560,note_on,,1,0,12,,,,,,,,,,,,,,,10,,,86,64
1589,note_on,,29,0,13,,,,,,,,,,,,,,,11,,,86,0
1589,note_on,,29,0,12,,,,,,,,,,,,,,,10,,,86,0
1590,note_on,,1,0,13,,,,,,,,,,,,,,,11,,,57,64
1590,note_on,,1,0,12,,,,,,,,,,,,,,,10,,,57,64
1619,note_on,,29,0,13,,,,,,,,,,,,,,,11,,,57,0
1619,note_on,,29,0,12,,,,,,,,,,,,,,,10,,,57,0
1619,note_on,,119,0,15,,,,,,,,,,,,,,,13,,,54,0
1619,note_on,,0,0,16,,,,,,,,,,,,,,,15,,,62,0
1619,note_on,,119,0,16,,,,,,,,,,,,,,,15,,,54,0
1619,note_on,,119,0,6,,,,,,,,,,,,,,,1,,,54,0
1620,note_on,,1,0,13,,,,,,,,,,,,,,,11,,,59,64
1620,note_on,,1,0,15,,,,,,,,,,,,,,,13,,,50,64
1620,note_on,,0,0,16,,,,,,,,,,,,,,,15,,,50,64
1620,note_on,,1,0,16,,,,,,,,,,,,,,,15,,,66,64
1620,note_on,,1,0,12,,,,,,,,,,,,,,,10,,,59,64
1620,note_on,,1,0,6,,,,,,,,,,,,,,,1,,,50,64
1649,note_on,,29,0,13,,,,,,,,,,,,,,,11,,,59,0
1649,note_on,,29,0,12,,,,,,,,,,,,,,,10,,,59,0
1650,note_on,,1,0,12,,,,,,,,,,,,,,,10,,,60,64
1650,note_on,,1,0,13,,,,,,,,,,,,,,,11,,,60,64
1679,note_on,,59,0,15,,,,,,,,,,,,,,,13,,,50,0
1679,note_on,,0,0,16,,,,,,,,,,,,,,,15,,,74,0
1679,note_on,,0,0,16,,,,,,,,,,,,,,,15,,,66,0
1679,note_on,,29,0,12,,,,,,,,,,,,,,,10,,,60,0
1679,note_on,,0,0,16,,,,,,,,,,,,,,,15,,,50,0
1679,note_on,,59,0,16,,,,,,,,,,,,,,,15,,,69,0
1679,note_on,,59,0,6,,,,,,,,,,,,,,,1,,,50,0
1679,note_on,,29,0,13,,,,,,,,,,,,,,,11,,,60,0
1680,note_on,,0,0,16,,,,,,,,,,,,,,,15,,,43,64
1680,note_on,,0,0,16,,,,,,,,,,,,,,,15,,,71,64
1680,note_on,,0,0,16,,,,,,,,,,,,,,,15,,,67,64
1680,note_on,,1,0,13,,,,,,,,,,,,,,,11,,,59,64
1680,note_on,,1,0,15,,,,,,,,,,,,,,,13,,,43,64
1680,note_on,,1,0,16,,,,,,,,,,,,,,,15,,,62,64
1680,note_on,,0,0,16,,,,,,,,,,,,,,,15,,,74,64
1680,note_on,,1,0,6,,,,,,,,,,,,,,,1,,,43,64
1680,note_on,,1,0,12,,,,,,,,,,,,,,,10,,,59,64
1709,note_on,,29,0,12,,,,,,,,,,,,,,,10,,,59,0
1709,note_on,,29,0,13,,,,,,,,,,,,,,,11,,,59,0
1710,note_on,,1,0,13,,,,,,,,,,,,,,,11,,,57,64
1710,note_on,,1,0,12,,,,,,,,,,,,,,,10,,,57,64
1739,note_on,,59,0,6,,,,,,,,,,,,,,,1,,,43,0
1739,note_on,,59,0,16,,,,,,,,,,,,,,,15,,,43,0
1739,note_on,,29,0,12,,,,,,,,,,,,,,,10,,,57,0
1739,note_on,,59,0,15,,,,,,,,,,,,,,,13,,,43,0
1739,note_on,,29,0,13,,,,,,,,,,,,,,,11,,,57,0
1740,note_on,,1,0,16,,,,,,,,,,,,,,,15,,,59,64
1740,note_on,,1,0,12,,,,,,,,,,,,,,,10,,,55,64
1740,note_on,,1,0,6,,,,,,,,,,,,,,,1,,,59,64
1740,note_on,,1,0,15,,,,,,,,,,,,,,,13,,,59,64
1740,note_on,,1,0,13,,,,,,,,,,,,,,,11,,,55,64
1769,note_on,,29,0,12,,,,,,,,,,,,,,,10,,,55,0
1769,note_on,,29,0,13,,,,,,,,,,,,,,,11,,,55,0
1770,note_on,,1,0,12,,,,,,,,,,,,,,,10,,,71,64
1770,note_on,,1,0,13,,,,,,,,,,,,,,,11,,,71,64
1799,note_on,,59,0,16,,,,,,,,,,,,,,,15,,,59,0
1799,note_on,,29,0,13,,,,,,,,,,,,,,,11,,,71,0
1799,note_on,,59,0,6,,,,,,,,,,,,,,,1,,,59,0
1799,note_on,,59,0,15,,,,,,,,,,,,,,,13,,,59,0
1799,note_on,,29,0,12,,,,,,,,,,,,,,,10,,,71,0
1800,note_on,,1,0,12,,,,,,,,,,,,,,,10,,,73,64
1800,note_on,,1,0,6,,,,,,,,,,,,,,,1,,,57,64
1800,note_on,,1,0,15,,,,,,,,,,,,,,,13,,,57,64
1800,note_on,,1,0,13,,,,,,,,,,,,,,,11,,,73,64
1800,note_on,,1,0,16,,,,,,,,,,,,,,,15,,,57,64
1829,note_on,,29,0,13,,,,,,,,,,,,,,,11,,,73,0
1829,note_on,,29,0,12,,,,,,,,,,,,,,,10,,,73,0
1830,note_on,,1,0,12,,,,,,,,,,,,,,,10,,,74,64
1830,note_on,,1,0,13,,,,,,,,,,,,,,,11,,,74,64
1859,note_on,,0,0,16,,,,,,,,,,,,,,,15,,,57,0
1859,note_on,,0,0,16,,,,,,,,,,,,,,,15,,,67,0
1859,note_on,,0,0,16,,,,,,,,,,,,,,,15,,,71,0
1859,note_on,,0,0,16,,,,,,,,,,,,,,,15,,,74,0
1859,note_on,,59,0,15,,,,,,,,,,,,,,,13,,,57,0
1859,note_on,,29,0,13,,,,,,,,,,,,,,,11,,,74,0
1859,note_on,,29,0,12,,,,,,,,,,,,,,,10,,,74,0
1859,note_on,,59,0,16,,,,,,,,,,,,,,,15,,,62,0
1859,note_on,,59,0,6,,,,,,,,,,,,,,,1,,,57,0
1860,note_on,,1,0,15,,,,,,,,,,,,,,,13,,,56,64
1860,note_on,,1,0,12,,,,,,,,,,,,,,,10,,,76,64
1860,note_on,,0,0,16,,,,,,,,,,,,,,,15,,,56,64
1860,note_on,,1,0,16,,,,,,,,,,,,,,,15,,,62,64
1860,note_on,,0,0,16,,,,,,,,,,,,,,,15,,,71,64
1860,note_on,,1,0,13,,,,,,,,,,,,,,,11,,,76,64
1860,note_on,,0,0,16,,,,,,,,,,,,,,,15,,,64,64
1860,note_on,,1,0,6,,,,,,,,,,,,,,,1,,,56,64
1889,note_on,,29,0,12,,,,,,,,,,,,,,,10,,,76,0
1889,note_on,,29,0,13,,,,,,,,,,,,,,,11,,,76,0
1890,note_on,,1,0,12,,,,,,,,,,,,,,,10,,,74,64
1890,note_on,,1,0,13,,,,,,,,,,,,,,,11,,,74,64
1919,note_on,,29,0,13,,,,,,,,,,,,,,,11,,,74,0
1919,note_on,,29,0,12,,,,,,,,,,,,,,,10,,,74,0
1920,note_on,,1,0,12,,,,,,,,,,,,,,,10,,,76,64
1920,note_on,,1,0,13,,,,,,,,,,,,,,,11,,,76,64
1949,note_on,,29,0,13,,,,,,,,,,,,,,,11,,,76,0
1949,note_on,,29,0,12,,,,,,,,,,,,,,,10,,,76,0
1950,note_on,,1,0,13,,,,,,,,,,,,,,,11,,,59,64
1950,note_on,,1,0,12,,,,,,,,,,,,,,,10,,,59,64
1979,note_on,,119,0,6,,,,,,,,,,,,,,,1,,,56,0
1979,note_on,,119,0,15,,,,,,,,,,,,,,,13,,,56,0
1979,note_on,,29,0,12,,,,,,,,,,,,,,,10,,,59,0
1979,note_on,,29,0,13,,,,,,,,,,,,,,,11,,,59,0
1979,note_on,,119,0,16,,,,,,,,,,,,,,,15,,,56,0
1980,note_on,,1,0,16,,,,,,,,,,,,,,,15,,,44,64
1980,note_on,,1,0,13,,,,,,,,,,,,,,,11,,,61,64
1980,note_on,,1,0,6,,,,,,,,,,,,,,,1,,,44,64
1980,note_on,,1,0,12,,,,,,,,,,,,,,,10,,,61,64
1980,note_on,,1,0,15,,,,,,,,,,,,,,,13,,,44,64
2009,note_on,,29,0,12,,,,,,,,,,,,,,,10,,,61,0
2009,note_on,,29,0,13,,,,,,,,,,,,,,,11,,,61,0
2010,note_on,,1,0,13,,,,,,,,,,,,,,,11,,,62,64
2010,note_on,,1,0,12,,,,,,,,,,,,,,,10,,,62,64
2039,note_on,,59,0,6,,,,,,,,,,,,,,,1,,,44,0
2039,note_on,,29,0,12,,,,,,,,,,,,,,,10,,,62,0
2039,note_on,,0,0,16,,,,,,,,,,,,,,,15,,,64,0
2039,note_on,,0,0,16,,,,,,,,,,,,,,,15,,,71,0
2039,note_on,,59,0,16,,,,,,,,,,,,,,,15,,,62,0
2039,note_on,,29,0,13,,,,,,,,,,,,,,,11,,,62,0
2039,note_on,,59,0,15,,,,,,,,,,,,,,,13,,,44,0
2039,note_on,,0,0,16,,,,,,,,,,,,,,,15,,,44,0
2040,note_on,,1,0,15,,,,,,,,,,,,,,,13,,,45,64
2040,note_on,,1,0,6,,,,,,,,,,,,,,,1,,,45,64
2040,note_on,,0,0,16,,,,,,,,,,,,,,,15,,,45,64
2040,note_on,,0,0,16,,,,,,,,,,,,,,,15,,,64,64
2040,note_on,,1,0,16,,,,,,,,,,,,,,,15,,,61,64
2040,note_on,,1,0,13,,,,,,,,,,,,,,,11,,,61,64
2040,note_on,,1,0,12,,,,,,,,,,,,,,,10,,,61,64
2040,note_on,,0,0,16,,,,,,,,,,,,,,,15,,,57,64
2069,note_on,,29,0,12,,,,,,,,,,,,,,,10,,,61,0
2069,note_on,,29,0,13,,,,,,,,,,,,,,,11,,,61,0
2070,note_on,,1,0,12,,,,,,,,,,,,,,,10,,,59,64
2070,note_on,,1,0,13,,,,,,,,,,,,,,,11,,,59,64
2099,note_on,,59,0,16,,,,,,,,,,,,,,,15,,,45,0
2099,note_on,,59,0,15,,,,,,,,,,,,,,,13,,,45,0
2099,note_on,,29,0,13,,,,,,,,,,,,,,,11,,,59,0
2099,note_on,,29,0,12,,,,,,,,,,,,,,,10,,,59,0
2099,note_on,,59,0,6,,,,,,,,,,,,,,,1,,,45,0
2100,note_on,,1,0,16,,,,,,,,,,,,,,,15,,,61,64
2100,note_on,,1,0,6,,,,,,,,,,,,,,,1,,,61,64
2100,note_on,,1,0,15,,,,,,,,,,,,,,,13,,,61,64
2100,note_on,,1,0,12,,,,,,,,,,,,,,,10,,,57,64
2100,note_on,,1,0,13,,,,,,,,,,,,,,,11,,,57,64
2129,note_on,,29,0,13,,,,,,,,,,,,,,,11,,,57,0
2129,note_on,,29,0,12,,,,,,,,,,,,,,,10,,,57,0
2130,note_on,,1,0,13,,,,,,,,,,,,,,,11,,,73,64
2130,note_on,,1,0,12,,,,,,,,,,,,,,,10,,,73,64
2159,note_on,,29,0,13,,,,,,,,,,,,,,,11,,,73,0
2159,note_on,,59,0,6,,,,,,,,,,,,,,,1,,,61,0
2159,note_on,,59,0,15,,,,,,,,,,,,,,,13,,,61,0
2159,note_on,,29,0,12,,,,,,,,,,,,,,,10,,,73,0
2159,note_on,,59,0,16,,,,,,,,,,,,,,,15,,,61,0
2160,note_on,,1,0,12,,,,,,,,,,,,,,,10,,,74,64
2160,note_on,,1,0,16,,,,,,,,,,,,,,,15,,,59,64
2160,note_on,,1,0,6,,,,,,,,,,,,,,,1,,,59,64
2160,note_on,,1,0,13,,,,,,,,,,,,,,,11,,,74,64
2160,note_on,,1,0,15,,,,,,,,,,,,,,,13,,,59,64
2189,note_on,,29,0,13,,,,,,,,,,,,,,,11,,,74,0
2189,note_on,,29,0,12,,,,,,,,,,,,,,,10,,,74,0
2190,note_on,,1,0,12,,,,,,,,,,,,,,,10,,,76,64
2190,note_on,,1,0,13,,,,,,,,,,,,,,,11,,,76,64
2219,note_on,,0,0,16,,,,,,,,,,,,,,,15,,,59,0
2219,note_on,,59,0,15,,,,,,,,,,,,,,,13,,,59,0
2219,note_on,,0,0,16,,,,,,,,,,,,,,,15,,,57,0
2219,note_on,,59,0,16,,,,,,,,,,,,,,,15,,,64,0
2219,note_on,,0,0,16,,,,,,,,,,,,,,,15,,,61,0
2219,note_on,,29,0,13,,,,,,,,,,,,,,,11,,,76,0
2219,note_on,,29,0,12,,,,,,,,,,,,,,,10,,,76,0
2219,note_on,,59,0,6,,,,,,,,,,,,,,,1,,,59,0
2220,note_on,,1,0,15,,,,,,,,,,,,,,,13,,,58,64
2220,note_on,,1,0,6,,,,,,,,,,,,,,,1,,,58,64
2220,note_on,,1,0,12,,,,,,,,,,,,,,,10,,,78,64
2220,note_on,,1,0,13,,,,,,,,,,,,,,,11,,,78,64
2220,note_on,,0,0,16,,,,,,,,,,,,,,,15,,,58,64
2220,note_on,,1,0,16,,,,,,,,,,,,,,,15,,,66,64
2220,note_on,,0,0,16,,,,,,,,,,,,,,,15,,,61,64
2249,note_on,,29,0,12,,,,,,,,,,,,,,,10,,,78,0
2249,note_on,,29,0,13,,,,,,,,,,,,,,,11,,,78,0
2250,note_on,,1,0,12,,,,,,,,,,,,,,,10,,,76,64
2250,note_on,,1,0,13,,,,,,,,,,,,,,,11,,,76,64
2279,note_on,,29,0,12,,,,,,,,,,,,,,,10,,,76,0
2279,note_on,,29,0,13,,,,,,,,,,,,,,,11,,,76,0
2280,note_on,,1,0,13,,,,,,,,,,,,,,,11,,,78,64
2280,note_on,,1,0,12,,,,,,,,,,,,,,,10,,,78,64
2309,note_on,,29,0,12,,,,,,,,,,,,,,,10,,,78,0
2309,note_on,,29,0,13,,,,,,,,,,,,,,,11,,,78,0
2310,note_on,,1,0,13,,,,,,,,,,,,,,,11,,,61,64
2310,note_on,,1,0,12,,,,,,,,,,,,,,,10,,,61,64
2339,note_on,,29,0,12,,,,,,,,,,,,,,,10,,,61,0
2339,note_on,,119,0,6,,,,,,,,,,,,,,,1,,,58,0
2339,note_on,,29,0,13,,,,,,,,,,,,,,,11,,,61,0
2339,note_on,,119,0,16,,,,,,,,,,,,,,,15,,,66,0
2339,note_on,,0,0,16,,,,,,,,,,,,,,,15,,,61,0
2339,note_on,,0,0,16,,,,,,,,,,,,,,,15,,,58,0
2339,note_on,,119,0,15,,,,,,,,,,,,,,,13,,,58,0
2340,note_on,,1,0,13,,,,,,,,,,,,,,,11,,,62,64
2340,note_on,,1,0,6,,,,,,,,,,,,,,,1,,,46,64
2340,note_on,,1,0,16,,,,,,,,,,,,,,,15,,,66,64
2340,note_on,,0,0,16,,,,,,,,,,,,,,,15,,,73,64
2340,note_on,,1,0,15,,,,,,,,,,,,,,,13,,,46,64
2340,note_on,,1,0,12,,,,,,,,,,,,,,,10,,,62,64
2340,note_on,,0,0,16,,,,,,,,,,,,,,,15,,,46,64
2369,note_on,,29,0,12,,,,,,,,,,,,,,,10,,,62,0
2369,note_on,,29,0,13,,,,,,,,,,,,,,,11,,,62,0
2370,note_on,,1,0,13,,,,,,,,,,,,,,,11,,,64,64
2370,note_on,,1,0,12,,,,,,,,,,,,,,,10,,,64,64
2399,note_on,,59,0,16,,,,,,,,,,,,,,,15,,,66,0
2399,note_on,,29,0,12,,,,,,,,,,,,,,,10,,,64,0
2399,note_on,,0,0,16,,,,,,,,,,,,,,,15,,,73,0
2399,note_on,,0,0,16,,,,,,,,,,,,,,,15,,,46,0
2399,note_on,,29,0,13,,,,,,,,,,,,,,,11,,,64,0
2399,note_on,,59,0,6,,,,,,,,,,,,,,,1,,,46,0
2399,note_on,,59,0,15,,,,,,,,,,,,,,,13,,,46,0
2400,note_on,,0,0,16,,,,,,,,,,,,,,,15,,,71,64
2400,note_on,,1,0,16,,,,,,,,,,,,,,,15,,,47,64
2400,note_on,,1,0,6,,,,,,,,,,,,,,,1,,,47,64
2400,note_on,,0,0,16,,,,,,,,,,,,,,,15,,,66,64
2400,note_on,,1,0,15,,,,,,,,,,,,,,,13,,,47,64
2400,note_on,,0,0,16,,,,,,,,,,,,,,,15,,,74,64
2400,note_on,,1,0,13,,,,,,,,,,,,,,,11,,,62,64
2400,note_on,,1,0,12,,,,,,,,,,,,,,,10,,,62,64
2429,note_on,,29,0,13,,,,,,,,,,,,,,,11,,,62,0
2429,note_on,,29,0,12,,,,,,,,,,,,,,,10,,,62,0
2430,note_on,,1,0,13,,,,,,,,,,,,,,,11,,,61,64
2430,note_on,,1,0,12,,,,,,,,,,,,,,,10,,,61,64
2459,note_on,,59,0,15,,,,,,,,,,,,,,,13,,,47,0
2459,note_on,,59,0,16,,,,,,,,,,,,,,,15,,,47,0
2459,note_on,,59,0,6,,,,,,,,,,,,,,,1,,,47,0
2459,note_on,,29,0,13,,,,,,,,,,,,,,,11,,,61,0
2459,note_on,,29,0,12,,,,,,,,,,,,,,,10,,,61,0
2460,note_on,,1,0,13,,,,,,,,,,,,,,,11,,,59,64
2460,note_on,,1,0,15,,,,,,,,,,,,,,,13,,,50,64
2460,note_on,,1,0,12,,,,,,,,,,,,,,,10,,,59,64
2460,note_on,,1,0,16,,,,,,,,,,,,,,,15,,,50,64
2460,note_on,,1,0,6,,,,,,,,,,,,,,,1,,,50,64
2489,note_on,,29,0,12,,,,,,,,,,,,,,,10,,,59,0
2489,note_on,,29,0,13,,,,,,,,,,,,,,,11,,,59,0
2490,note_on,,1,0,12,,,,,,,,,,,,,,,10,,,62,64
2490,note_on,,1,0,13,,,,,,,,,,,,,,,11,,,62,64
2519,note_on,,29,0,12,,,,,,,,,,,,,,,10,,,62,0
2519,note_on,,29,0,13,,,,,,,,,,,,,,,11,,,62,0
2519,note_on,,59,0,6,,,,,,,,,,,,,,,1,,,50,0
2519,note_on,,59,0,16,,,,,,,,,,,,,,,15,,,50,0
2519,note_on,,59,0,15,,,,,,,,,,,,,,,13,,,50,0
2520,note_on,,1,0,12,,,,,,,,,,,,,,,10,,,64,64
2520,note_on,,1,0,16,,,,,,,,,,,,,,,15,,,47,64
2520,note_on,,1,0,15,,,,,,,,,,,,,,,13,,,47,64
2520,note_on,,1,0,6,,,,,,,,,,,,,,,1,,,47,64
2520,note_on,,1,0,13,,,,,,,,,,,,,,,11,,,64,64
2549,note_on,,29,0,12,,,,,,,,,,,,,,,10,,,64,0
2549,note_on,,29,0,13,,,,,,,,,,,,,,,11,,,64,0
2550,note_on,,1,0,12,,,,,,,,,,,,,,,10,,,66,64
2550,note_on,,1,0,13,,,,,,,,,,,,,,,11,,,66,64
2579,note_on,,59,0,6,,,,,,,,,,,,,,,1,,,47,0
2579,note_on,,59,0,16,,,,,,,,,,,,,,,15,,,71,0
2579,note_on,,0,0,16,,,,,,,,,,,,,,,15,,,74,0
2579,note_on,,0,0,16,,,,,,,,,,,,,,,15,,,66,0
2579,note_on,,59,0,15,,,,,,,,,,,,,,,13,,,47,0
2579,note_on,,29,0,12,,,,,,,,,,,,,,,10,,,66,0
2579,note_on,,0,0,16,,,,,,,,,,,,,,,15,,,47,0
2579,note_on,,29,0,13,,,,,,,,,,,,,,,11,,,66,0
2580,note_on,,1,0,13,,,,,,,,,,,,,,,11,,,64,64
2580,note_on,,1,0,16,,,,,,,,,,,,,,,15,,,67,64
2580,note_on,,0,0,16,,,,,,,,,,,,,,,15,,,49,64
2580,note_on,,0,0,16,,,,,,,,,,,,,,,15,,,69,64
2580,note_on,,1,0,12,,,,,,,,,,,,,,,10,,,64,64
2580,note_on,,0,0,16,,,,,,,,,,,,,,,15,,,64,64
2580,note_on,,1,0,6,,,,,,,,,,,,,,,1,,,49,64
2580,note_on,,1,0,15,,,,,,,,,,,,,,,13,,,49,64
2609,note_on,,29,0,12,,,,,,,,,,,,,,,10,,,64,0
2609,note_on,,29,0,13,,,,,,,,,,,,,,,11,,,64,0
2610,note_on,,1,0,12,,,,,,,,,,,,,,,10,,,62,64
2610,note_on,,1,0,13,,,,,,,,,,,,,,,11,,,62,64
2639,note_on,,59,0,16,,,,,,,,,,,,,,,15,,,49,0
2639,note_on,,59,0,15,,,,,,,,,,,,,,,13,,,49,0
2639,note_on,,29,0,13,,,,,,,,,,,,,,,11,,,62,0
2639,note_on,,59,0,6,,,,,,,,,,,,,,,1,,,49,0
2639,note_on,,29,0,12,,,,,,,,,,,,,,,10,,,62,0
2640,note_on,,1,0,15,,,,,,,,,,,,,,,13,,,45,64
2640,note_on,,1,0,12,,,,,,,,,,,,,,,10,,,61,64
2640,note_on,,1,0,16,,,,,,,,,,,,,,,15,,,45,64
2640,note_on,,1,0,6,,,,,,,,,,,,,,,1,,,45,64
2640,note_on,,1,0,13,,,,,,,,,,,,,,,11,,,61,64
2669,note_on,,29,0,12,,,,,,,,,,,,,,,10,,,61,0
2669,note_on,,29,0,13,,,,,,,,,,,,,,,11,,,61,0
2670,note_on,,1,0,12,,,,,,,,,,,,,,,10,,,64,64
2670,note_on,,1,0,13,,,,,,,,,,,,,,,11,,,64,64
2699,note_on,,59,0,15,,,,,,,,,,,,,,,13,,,45,0
2699,note_on,,59,0,6,,,,,,,,,,,,,,,1,,,45,0
2699,note_on,,59,0,16,,,,,,,,,,,,,,,15,,,45,0
2699,note_on,,29,0,12,,,,,,,,,,,,,,,10,,,64,0
2699,note_on,,29,0,13,,,,,,,,,,,,,,,11,,,64,0
2700,note_on,,1,0,16,,,,,,,,,,,,,,,15,,,49,64
2700,note_on,,1,0,6,,,,,,,,,,,,,,,1,,,49,64
2700,note_on,,1,0,13,,,,,,,,,,,,,,,11,,,66,64
2700,note_on,,1,0,15,,,,,,,,,,,,,,,13,,,49,64
2700,note_on,,1,0,12,,,,,,,,,,,,,,,10,,,66,64
2729,note_on,,29,0,13,,,,,,,,,,,,,,,11,,,66,0
2729,note_on,,29,0,12,,,,,,,,,,,,,,,10,,,66,0
2730,note_on,,1,0,12,,,,,,,,,,,,,,,10,,,67,64
2730,note_on,,1,0,13,,,,,,,,,,,,,,,11,,,67,64
2759,note_on,,59,0,15,,,,,,,,,,,,,,,13,,,49,0
2759,note_on,,29,0,12,,,,,,,,,,,,,,,10,,,67,0
2759,note_on,,59,0,16,,,,,,,,,,,,,,,15,,,67,0
2759,note_on,,0,0,16,,,,,,,,,,,,,,,15,,,64,0
2759,note_on,,29,0,13,,,,,,,,,,,,,,,11,,,67,0
2759,note_on,,59,0,6,,,,,,,,,,,,,,,1,,,49,0
2759,note_on,,0,0,16,,,,,,,,,,,,,,,15,,,69,0
2759,note_on,,0,0,16,,,,,,,,,,,,,,,15,,,49,0
2760,note_on,,1,0,16,,,,,,,,,,,,,,,15,,,57,64
2760,note_on,,1,0,12,,,,,,,,,,,,,,,10,,,66,64
2760,note_on,,1,0,13,,,,,,,,,,,,,,,11,,,66,64
2760,note_on,,0,0,16,,,,,,,,,,,,,,,15,,,62,64
2760,note_on,,1,0,15,,,,,,,,,,,,,,,13,,,50,64
2760,note_on,,0,0,16,,,,,,,,,,,,,,,15,,,50,64
2760,note_on,,1,0,6,,,,,,,,,,,,,,,1,,,50,64
2760,note_on,,0,0,16,,,,,,,,,,,,,,,15,,,66,64
2789,note_on,,29,0,13,,,,,,,,,,,,,,,11,,,66,0
2789,note_on,,29,0,12,,,,,,,,,,,,,,,10,,,66,0
2790,note_on,,1,0,13,,,,,,,,,,,,,,,11,,,64,64
2790,note_on,,1,0,12,,,,,,,,,,,,,,,10,,,64,64
2819,note_on,,59,0,15,,,,,,,,,,,,,,,13,,,50,0
2819,note_on,,59,0,16,,,,,,,,,,,,,,,15,,,50,0
2819,note_on,,29,0,13,,,,,,,,,,,,,,,11,,,64,0
2819,note_on,,59,0,6,,,,,,,,,,,,,,,1,,,50,0
2819,note_on,,29,0,12,,,,,,,,,,,,,,,10,,,64,0
2820,note_on,,1,0,16,,,,,,,,,,,,,,,15,,,54,64
2820,note_on,,1,0,6,,,,,,,,,,,,,,,1,,,54,64
2820,note_on,,1,0,15,,,,,,,,,,,,,,,13,,,54,64
2820,note_on,,1,0,13,,,,,,,,,,,,,,,11,,,62,64
2820,note_on,,1,0,12,,,,,,,,,,,,,,,10,,,62,64
2849,note_on,,29,0,12,,,,,,,,,,,,,,,10,,,62,0
2849,note_on,,29,0,13,,,,,,,,,,,,,,,11,,,62,0
2850,note_on,,1,0,13,,,,,,,,,,,,,,,11,,,81,64
2850,note_on,,1,0,12,,,,,,,,,,,,,,,10,,,81,64
2879,note_on,,29,0,12,,,,,,,,,,,,,,,10,,,81,0
2879,note_on,,29,0,13,,,,,,,,,,,,,,,11,,,81,0
2879,note_on,,59,0,16,,,,,,,,,,,,,,,15,,,54,0
2879,note_on,,59,0,15,,,,,,,,,,,,,,,13,,,54,0
2879,note_on,,59,0,6,,,,,,,,,,,,,,,1,,,54,0
2880,note_on,,1,0,6,,,,,,,,,,,,,,,1,,,50,64
2880,note_on,,1,0,13,,,,,,,,,,,,,,,11,,,83,64
2880,note_on,,1,0,15,,,,,,,,,,,,,,,13,,,50,64
2880,note_on,,1,0,12,,,,,,,,,,,,,,,10,,,83,64
2880,note_on,,1,0,16,,,,,,,,,,,,,,,15,,,50,64
2909,note_on,,29,0,13,,,,,,,,,,,,,,,11,,,83,0
2909,note_on,,29,0,12,,,,,,,,,,,,,,,10,,,83,0
2910,note_on,,1,0,13,,,,,,,,,,,,,,,11,,,85,64
2910,note_on,,1,0,12,,,,,,,,,,,,,,,10,,,85,64
2939,note_on,,0,0,16,,,,,,,,,,,,,,,15,,,62,0
2939,note_on,,59,0,15,,,,,,,,,,,,,,,13,,,50,0
2939,note_on,,59,0,6,,,,,,,,,,,,,,,1,,,50,0
2939,note_on,,29,0,13,,,,,,,,,,,,,,,11,,,85,0
2939,note_on,,29,0,12,,,,,,,,,,,,,,,10,,,85,0
2939,note_on,,59,0,16,,,,,,,,,,,,,,,15,,,57,0
2939,note_on,,0,0,16,,,,,,,,,,,,,,,15,,,66,0
2939,note_on,,0,0,16,,,,,,,,,,,,,,,15,,,50,0
2940,note_on,,1,0,15,,,,,,,,,,,,,,,13,,,59,64
2940,note_on,,1,0,12,,,,,,,,,,,,,,,10,,,86,64
2940,note_on,,1,0,13,,,,,,,,,,,,,,,11,,,86,64
2940,note_on,,1,0,6,,,,,,,,,,,,,,,1,,,59,64
2940,note_on,,1,0,16,,,,,,,,,,,,,,,15,,,66,64
2940,note_on,,0,0,16,,,,,,,,,,,,,,,15,,,62,64
2940,note_on,,0,0,16,,,,,,,,,,,,,,,15,,,59,64
2999,note_on,,59,0,16,,,,,,,,,,,,,,,15,,,59,0
2999,note_on,,59,0,15,,,,,,,,,,,,,,,13,,,59,0
2999,note_on,,59,0,6,,,,,,,,,,,,,,,1,,,59,0
2999,note_on,,59,0,12,,,,,,,,,,,,,,,10,,,86,0
2999,note_on,,59,0,13,,,,,,,,,,,,,,,11,,,86,0
3000,note_on,,1,0,6,,,,,,,,,,,,,,,1,,,57,64
3000,note_on,,1,0,16,,,,,,,,,,,,,,,15,,,57,64
3000,note_on,,1,0,12,,,,,,,,,,,,,,,10,,,85,64
3000,note_on,,1,0,13,,,,,,,,,,,,,,,11,,,85,64
3000,note_on,,1,0,15,,,,,,,,,,,,,,,13,,,57,64
3059,note_on,,59,0,16,,,,,,,,,,,,,,,15,,,57,0
3059,note_on,,59,0,15,,,,,,,,,,,,,,,13,,,57,0
3059,note_on,,59,0,6,,,,,,,,,,,,,,,1,,,57,0
3059,note_on,,59,0,13,,,,,,,,,,,,,,,11,,,85,0
3059,note_on,,59,0,12,,,,,,,,,,,,,,,10,,,85,0
3060,note_on,,1,0,16,,,,,,,,,,,,,,,15,,,55,64
3060,note_on,,1,0,13,,,,,,,,,,,,,,,11,,,83,64
3060,note_on,,1,0,12,,,,,,,,,,,,,,,10,,,83,64
3060,note_on,,1,0,15,,,,,,,,,,,,,,,13,,,55,64
3060,note_on,,1,0,6,,,,,,,,,,,,,,,1,,,55,64
3119,note_on,,59,0,6,,,,,,,,,,,,,,,1,,,55,0
3119,note_on,,0,0,16,,,,,,,,,,,,,,,15,,,62,0
3119,note_on,,0,0,16,,,,,,,,,,,,,,,15,,,55,0
3119,note_on,,59,0,16,,,,,,,,,,,,,,,15,,,66,0
3119,note_on,,59,0,12,,,,,,,,,,,,,,,10,,,83,0
3119,note_on,,59,0,15,,,,,,,,,,,,,,,13,,,55,0
3119,note_on,,59,0,13,,,,,,,,,,,,,,,11,,,83,0
3120,note_on,,1,0,6,,,,,,,,,,,,,,,1,,,54,64
3120,note_on,,0,0,16,,,,,,,,,,,,,,,15,,,69,64
3120,note_on,,0,0,16,,,,,,,,,,,,,,,15,,,62,64
3120,note_on,,1,0,15,,,,,,,,,,,,,,,13,,,54,64
3120,note_on,,1,0,16,,,,,,,,,,,,,,,15,,,54,64
3120,note_on,,1,0,13,,,,,,,,,,,,,,,11,,,81,64
3120,note_on,,0,0,16,,,,,,,,,,,,,,,15,,,66,64
3120,note_on,,1,0,12,,,,,,,,,,,,,,,10,,,81,64
3179,note_on,,59,0,16,,,,,,,,,,,,,,,15,,,54,0
3179,note_on,,59,0,13,,,,,,,,,,,,,,,11,,,81,0
3179,note_on,,59,0,6,,,,,,,,,,,,,,,1,,,54,0
3179,note_on,,59,0,12,,,,,,,,,,,,,,,10,,,81,0
3179,note_on,,59,0,15,,,,,,,,,,,,,,,13,,,54,0
3180,note_on,,1,0,13,,,,,,,,,,,,,,,11,,,79,64
3180,note_on,,1,0,16,,,,,,,,,,,,,,,15,,,52,64
3180,note_on,,1,0,6,,,,,,,,,,,,,,,1,,,52,64
3180,note_on,,1,0,15,,,,,,,,,,,,,,,13,,,52,64
3180,note_on,,1,0,12,,,,,,,,,,,,,,,10,,,79,64
3239,note_on,,59,0,15,,,,,,,,,,,,,,,13,,,52,0
3239,note_on,,59,0,6,,,,,,,,,,,,,,,1,,,52,0
3239,note_on,,59,0,13,,,,,,,,,,,,,,,11,,,79,0
3239,note_on,,59,0,12,,,,,,,,,,,,,,,10,,,79,0
3239,note_on,,59,0,16,,,,,,,,,,,,,,,15,,,52,0
3240,note_on,,1,0,6,,,,,,,,,,,,,,,1,,,50,64
3240,note_on,,1,0,13,,,,,,,,,,,,,,,11,,,78,64
3240,note_on,,1,0,15,,,,,,,,,,,,,,,13,,,50,64
3240,note_on,,1,0,16,,,,,,,,,,,,,,,15,,,50,64
3240,note_on,,1,0,12,,,,,,,,,,,,,,,10,,,78,64
3299,note_on,,0,0,16,,,,,,,,,,,,,,,15,,,50,0
3299,note_on,,0,0,16,,,,,,,,,,,,,,,15,,,69,0
3299,note_on,,0,0,16,,,,,,,,,,,,,,,15,,,62,0
3299,note_on,,59,0,16,,,,,,,,,,,,,,,15,,,66,0
3299,note_on,,59,0,13,,,,,,,,,,,,,,,11,,,78,0
3299,note_on,,59,0,6,,,,,,,,,,,,,,,1,,,50,0
3299,note_on,,59,0,15,,,,,,,,,,,,,,,13,,,50,0
3299,note_on,,59,0,12,,,,,,,,,,,,,,,10,,,78,0
3300,note_on,,0,0,16,,,,,,,,,,,,,,,15,,,44,64
3300,note_on,,0,0,16,,,,,,,,,,,,,,,15,,,62,64
3300,note_on,,1,0,16,,,,,,,,,,,,,,,15,,,71,64
3300,note_on,,0,0,16,,,,,,,,,,,,,,,15,,,64,64
3300,note_on,,1,0,13,,,,,,,,,,,,,,,11,,,64,64
3300,note_on,,1,0,15,,,,,,,,,,,,,,,13,,,44,64
3300,note_on,,1,0,6,,,,,,,,,,,,,,,1,,,44,64
3300,note_on,,1,0,12,,,,,,,,,,,,,,,10,,,64,64
3314,note_on,,14,0,12,,,,,,,,,,,,,,,10,,,64,0
3314,note_on,,14,0,13,,,,,,,,,,,,,,,11,,,64,0
3315,note_on,,1,0,13,,,,,,,,,,,,,,,11,,,66,64
3315,note_on,,1,0,12,,,,,,,,,,,,,,,10,,,66,64
3329,note_on,,14,0,13,,,,,,,,,,,,,,,11,,,66,0
3329,note_on,,14,0,12,,,,,,,,,,,,,,,10,,,66,0
3330,note_on,,1,0,12,,,,,,,,,,,,,,,10,,,64,64
3330,note_on,,1,0,13,,,,,,,,,,,,,,,11,,,64,64
3344,note_on,,14,0,12,,,,,,,,,,,,,,,10,,,64,0
3344,note_on,,14,0,13,,,,,,,,,,,,,,,11,,,64,0
3345,note_on,,1,0,12,,,,,,,,,,,,,,,10,,,66,64
3345,note_on,,1,0,13,,,,,,,,,,,,,,,11,,,66,64
3359,note_on,,14,0,12,,,,,,,,,,,,,,,10,,,66,0
3359,note_on,,59,0,16,,,,,,,,,,,,,,,15,,,44,0
3359,note_on,,14,0,13,,,,,,,,,,,,,,,11,,,66,0
3359,note_on,,59,0,15,,,,,,,,,,,,,,,13,,,44,0
3359,note_on,,59,0,6,,,,,,,,,,,,,,,1,,,44,0
3360,note_on,,1,0,6,,,,,,,,,,,,,,,1,,,47,64
3360,note_on,,1,0,13,,,,,,,,,,,,,,,11,,,64,64
3360,note_on,,1,0,12,,,,,,,,,,,,,,,10,,,64,64
3360,note_on,,1,0,15,,,,,,,,,,,,,,,13,,,47,64
3360,note_on,,1,0,16,,,,,,,,,,,,,,,15,,,47,64
3374,note_on,,14,0,13,,,,,,,,,,,,,,,11,,,64,0
3374,note_on,,14,0,12,,,,,,,,,,,,,,,10,,,64,0
3375,note_on,,1,0,13,,,,,,,,,,,,,,,11,,,66,64
3375,note_on,,1,0,12,,,,,,,,,,,,,,,10,,,66,64
3389,note_on,,14,0,13,,,,,,,,,,,,,,,11,,,66,0
3389,note_on,,14,0,12,,,,,,,,,,,,,,,10,,,66,0
3390,note_on,,1,0,13,,,,,,,,,,,,,,,11,,,64,64
3390,note_on,,1,0,12,,,,,,,,,,,,,,,10,,,64,64
3404,note_on,,14,0,12,,,,,,,,,,,,,,,10,,,64,0
3404,note_on,,14,0,13,,,,,,,,,,,,,,,11,,,64,0
3405,note_on,,1,0,12,,,,,,,,,,,,,,,10,,,66,64
3405,note_on,,1,0,13,,,,,,,,,,,,,,,11,,,66,64
3419,note_on,,59,0,15,,,,,,,,,,,,,,,13,,,47,0
3419,note_on,,59,0,16,,,,,,,,,,,,,,,15,,,47,0
3419,note_on,,14,0,12,,,,,,,,,,,,,,,10,,,66,0
3419,note_on,,59,0,6,,,,,,,,,,,,,,,1,,,47,0
3419,note_on,,14,0,13,,,,,,,,,,,,,,,11,,,66,0
3420,note_on,,1,0,13,,,,,,,,,,,,,,,11,,,64,64
3420,note_on,,1,0,16,,,,,,,,,,,,,,,15,,,45,64
3420,note_on,,1,0,12,,,,,,,,,,,,,,,10,,,64,64
3420,note_on,,1,0,15,,,,,,,,,,,,,,,13,,,45,64
3420,note_on,,1,0,6,,,,,,,,,,,,,,,1,,,45,64
3434,note_on,,14,0,13,,,,,,,,,,,,,,,11,,,64,0
3434,note_on,,14,0,12,,,,,,,,,,,,,,,10,,,64,0
3435,note_on,,1,0,13,,,,,,,,,,,,,,,11,,,66,64
3435,note_on,,1,0,12,,,,,,,,,,,,,,,10,,,66,64
3449,note_on,,14,0,13,,,,,,,,,,,,,,,11,,,66,0
3449,note_on,,14,0,12,,,,,,,,,,,,,,,10,,,66,0
3450,note_on,,1,0,12,,,,,,,,,,,,,,,10,,,62,64
3450,note_on,,1,0,13,,,,,,,,,,,,,,,11,,,62,64
3464,note_on,,14,0,12,,,,,,,,,,,,,,,10,,,62,0
3464,note_on,,14,0,13,,,,,,,,,,,,,,,11,,,62,0
3465,note_on,,1,0,12,,,,,,,,,,,,,,,10,,,64,64
3465,note_on,,1,0,13,,,,,,,,,,,,,,,11,,,64,64
3479,note_on,,59,0,15,,,,,,,,,,,,,,,13,,,45,0
3479,note_on,,14,0,12,,,,,,,,,,,,,,,10,,,64,0
3479,note_on,,59,0,6,,,,,,,,,,,,,,,1,,,45,0
3479,note_on,,0,0,16,,,,,,,,,,,,,,,15,,,45,0
3479,note_on,,0,0,16,,,,,,,,,,,,,,,15,,,64,0
3479,note_on,,0,0,16,,,,,,,,,,,,,,,15,,,62,0
3479,note_on,,59,0,16,,,,,,,,,,,,,,,15,,,71,0
3479,note_on,,14,0,13,,,,,,,,,,,,,,,11,,,64,0
3480,note_on,,1,0,12,,,,,,,,,,,,,,,10,,,64,64
3480,note_on,,1,0,6,,,,,,,,,,,,,,,1,,,44,64
3480,note_on,,1,0,16,,,,,,,,,,,,,,,15,,,64,64
3480,note_on,,1,0,13,,,,,,,,,,,,,,,11,,,64,64
3480,note_on,,0,0,16,,,,,,,,,,,,,,,15,,,62,64
3480,note_on,,0,0,16,,,,,,,,,,,,,,,15,,,44,64
3480,note_on,,1,0,15,,,,,,,,,,,,,,,13,,,44,64
3480,note_on,,0,0,16,,,,,,,,,,,,,,,15,,,59,64
3494,note_on,,14,0,13,,,,,,,,,,,,,,,11,,,64,0
3494,note_on,,14,0,12,,,,,,,,,,,,,,,10,,,64,0
3495,note_on,,1,0,12,,,,,,,,,,,,,,,10,,,66,64
3495,note_on,,1,0,13,,,,,,,,,,,,,,,11,,,66,64
3509,note_on,,14,0,13,,,,,,,,,,,,,,,11,,,66,0
3509,note_on,,14,0,12,,,,,,,,,,,,,,,10,,,66,0
3510,note_on,,1,0,12,,,,,,,,,,,,,,,10,,,64,64
3510,note_on,,1,0,13,,,,,,,,,,,,,,,11,,,64,64
3524,note_on,,14,0,12,,,,,,,,,,,,,,,10,,,64,0
3524,note_on,,14,0,13,,,,,,,,,,,,,,,11,,,64,0
3525,note_on,,1,0,12,,,,,,,,,,,,,,,10,,,66,64
3525,note_on,,1,0,13,,,,,,,,,,,,,,,11,,,66,64
3539,note_on,,59,0,15,,,,,,,,,,,,,,,13,,,44,0
3539,note_on,,59,0,16,,,,,,,,,,,,,,,15,,,44,0
3539,note_on,,59,0,6,,,,,,,,,,,,,,,1,,,44,0
3539,note_on,,14,0,13,,,,,,,,,,,,,,,11,,,66,0
3539,note_on,,14,0,12,,,,,,,,,,,,,,,10,,,66,0
3540,note_on,,1,0,12,,,,,,,,,,,,,,,10,,,64,64
3540,note_on,,1,0,6,,,,,,,,,,,,,,,1,,,47,64
3540,note_on,,1,0,13,,,,,,,,,,,,,,,11,,,64,64
3540,note_on,,1,0,16,,,,,,,,,,,,,,,15,,,47,64
3540,note_on,,1,0,15,,,,,,,,,,,,,,,13,,,47,64
3554,note_on,,14,0,13,,,,,,,,,,,,,,,11,,,64,0
3554,note_on,,14,0,12,,,,,,,,,,,,,,,10,,,64,0
3555,note_on,,1,0,13,,,,,,,,,,,,,,,11,,,66,64
3555,note_on,,1,0,12,,,,,,,,,,,,,,,10,,,66,64
3569,note_on,,14,0,12,,,,,,,,,,,,,,,10,,,66,0
3569,note_on,,14,0,13,,,,,,,,,,,,,,,11,,,66,0
3570,note_on,,1,0,12,,,,,,,,,,,,,,,10,,,64,64
3570,note_on,,1,0,13,,,,,,,,,,,,,,,11,,,64,64
3584,note_on,,14,0,12,,,,,,,,,,,,,,,10,,,64,0
3584,note_on,,14,0,13,,,,,,,,,,,,,,,11,,,64,0
3585,note_on,,1,0,12,,,,,,,,,,,,,,,10,,,66,64
3585,note_on,,1,0,13,,,,,,,,,,,,,,,11,,,66,64
3599,note_on,,14,0,12,,,,,,,,,,,,,,,10,,,66,0
3599,note_on,,59,0,15,,,,,,,,,,,,,,,13,,,47,0
3599,note_on,,14,0,13,,,,,,,,,,,,,,,11,,,66,0
3599,note_on,,59,0,16,,,,,,,,,,,,,,,15,,,47,0
3599,note_on,,59,0,6,,,,,,,,,,,,,,,1,,,47,0
3600,note_on,,1,0,15,,,,,,,,,,,,,,,13,,,45,64
3600,note_on,,1,0,6,,,,,,,,,,,,,,,1,,,45,64
3600,note_on,,1,0,13,,,,,,,,,,,,,,,11,,,64,64
3600,note_on,,1,0,16,,,,,,,,,,,,,,,15,,,45,64
3600,note_on,,1,0,12,,,,,,,,,,,,,,,10,,,64,64
3614,note_on,,14,0,12,,,,,,,,,,,,,,,10,,,64,0
3614,note_on,,14,0,13,,,,,,,,,,,,,,,11,,,64,0
3615,note_on,,1,0,13,,,,,,,,,,,,,,,11,,,66,64
3615,note_on,,1,0,12,,,,,,,,,,,,,,,10,,,66,64
3629,note_on,,14,0,12,,,,,,,,,,,,,,,10,,,66,0
3629,note_on,,14,0,13,,,,,,,,,,,,,,,11,,,66,0
3630,note_on,,1,0,13,,,,,,,,,,,,,,,11,,,62,64
3630,note_on,,1,0,12,,,,,,,,,,,,,,,10,,,62,64
3644,note_on,,14,0,12,,,,,,,,,,,,,,,10,,,62,0
3644,note_on,,14,0,13,,,,,,,,,,,,,,,11,,,62,0
3645,note_on,,1,0,13,,,,,,,,,,,,,,,11,,,64,64
3645,note_on,,1,0,12,,,,,,,,,,,,,,,10,,,64,64
3659,note_on,,0,0,16,,,,,,,,,,,,,,,15,,,59,0
3659,note_on,,0,0,16,,,,,,,,,,,,,,,15,,,45,0
3659,note_on,,14,0,13,,,,,,,,,,,,,,,11,,,64,0
3659,note_on,,59,0,16,,,,,,,,,,,,,,,15,,,64,0
3659,note_on,,14,0,12,,,,,,,,,,,,,,,10,,,64,0
3659,note_on,,0,0,16,,,,,,,,,,,,,,,15,,,62,0
3659,note_on,,59,0,6,,,,,,,,,,,,,,,1,,,45,0
3659,note_on,,59,0,15,,,,,,,,,,,,,,,13,,,45,0
3660,note_on,,1,0,13,,,,,,,,,,,,,,,11,,,64,64
3660,note_on,,1,0,6,,,,,,,,,,,,,,,1,,,44,64
3660,note_on,,1,0,16,,,,,,,,,,,,,,,15,,,74,64
3660,note_on,,0,0,16,,,,,,,,,,,,,,,15,,,71,64
3660,note_on,,1,0,12,,,,,,,,,,,,,,,10,,,64,64
3660,note_on,,1,0,15,,,,,,,,,,,,,,,13,,,44,64
3660,note_on,,0,0,16,,,,,,,,,,,,,,,15,,,64,64
3660,note_on,,0,0,16,,,,,,,,,,,,,,,15,,,44,64
3674,note_on,,14,0,13,,,,,,,,,,,,,,,11,,,64,0
3674,note_on,,14,0,12,,,,,,,,,,,,,,,10,,,64,0
3675,note_on,,1,0,12,,,,,,,,,,,,,,,10,,,66,64
3675,note_on,,1,0,13,,,,,,,,,,,,,,,11,,,66,64
3689,note_on,,14,0,13,,,,,,,,,,,,,,,11,,,66,0
3689,note_on,,14,0,12,,,,,,,,,,,,,,,10,,,66,0
3690,note_on,,1,0,13,,,,,,,,,,,,,,,11,,,64,64
3690,note_on,,1,0,12,,,,,,,,,,,,,,,10,,,64,64
3704,note_on,,14,0,13,,,,,,,,,,,,,,,11,,,64,0
3704,note_on,,14,0,12,,,,,,,,,,,,,,,10,,,64,0
3705,note_on,,1,0,13,,,,,,,,,,,,,,,11,,,66,64
3705,note_on,,1,0,12,,,,,,,,,,,,,,,10,,,66,64
3719,note_on,,59,0,16,,,,,,,,,,,,,,,15,,,44,0
3719,note_on,,59,0,15,,,,,,,,,,,,,,,13,,,44,0
3719,note_on,,14,0,13,,,,,,,,,,,,,,,11,,,66,0
3719,note_on,,0,0,16,,,,,,,,,,,,,,,15,,,64,0
3719,note_on,,14,0,12,,,,,,,,,,,,,,,10,,,66,0
3719,note_on,,59,0,6,,,,,,,,,,,,,,,1,,,44,0
3720,note_on,,1,0,6,,,,,,,,,,,,,,,1,,,47,64
3720,note_on,,1,0,12,,,,,,,,,,,,,,,10,,,64,64
3720,note_on,,1,0,15,,,,,,,,,,,,,,,13,,,47,64
3720,note_on,,0,0,16,,,,,,,,,,,,,,,15,,,68,64
3720,note_on,,1,0,16,,,,,,,,,,,,,,,15,,,47,64
3720,note_on,,1,0,13,,,,,,,,,,,,,,,11,,,64,64
3734,note_on,,14,0,12,,,,,,,,,,,,,,,10,,,64,0
3734,note_on,,14,0,13,,,,,,,,,,,,,,,11,,,64,0
3735,note_on,,1,0,12,,,,,,,,,,,,,,,10,,,66,64
3735,note_on,,1,0,13,,,,,,,,,,,,,,,11,,,66,64
3749,note_on,,14,0,13,,,,,,,,,,,,,,,11,,,66,0
3749,note_on,,14,0,12,,,,,,,,,,,,,,,10,,,66,0
3750,note_on,,1,0,13,,,,,,,,,,,,,,,11,,,62,64
3750,note_on,,1,0,12,,,,,,,,,,,,,,,10,,,62,64
3764,note_on,,14,0,12,,,,,,,,,,,,,,,10,,,62,0
3764,note_on,,14,0,13,,,,,,,,,,,,,,,11,,,62,0
3765,note_on,,1,0,13,,,,,,,,,,,,,,,11,,,64,64
3765,note_on,,1,0,12,,,,,,,,,,,,,,,10,,,64,64
3779,note_on,,59,0,15,,,,,,,,,,,,,,,13,,,47,0
3779,note_on,,14,0,12,,,,,,,,,,,,,,,10,,,64,0
3779,note_on,,14,0,13,,,,,,,,,,,,,,,11,,,64,0
3779,note_on,,59,0,16,,,,,,,,,,,,,,,15,,,74,0
3779,note_on,,0,0,16,,,,,,,,,,,,,,,15,,,71,0
3779,note_on,,0,0,16,,,,,,,,,,,,,,,15,,,47,0
3779,note_on,,0,0,16,,,,,,,,,,,,,,,15,,,68,0
3779,note_on,,59,0,6,,,,,,,,,,,,,,,1,,,47,0
3780,note_on,,1,0,12,,,,,,,,,,,,,,,10,,,74,64
3780,note_on,,1,0,13,,,,,,,,,,,,,,,11,,,74,64
3780,note_on,,0,0,16,,,,,,,,,,,,,,,15,,,44,64
3780,note_on,,1,0,15,,,,,,,,,,,,,,,13,,,44,64
3780,note_on,,0,0,16,,,,,,,,,,,,,,,15,,,76,64
3780,note_on,,1,0,6,,,,,,,,,,,,,,,1,,,44,64
3780,note_on,,0,0,16,,,,,,,,,,,,,,,15,,,64,64
3780,note_on,,1,0,16,,,,,,,,,,,,,,,15,,,71,64
3839,note_on,,0,0,16,,,,,,,,,,,,,,,15,,,64,0
3839,note_on,,59,0,15,,,,,,,,,,,,,,,13,,,44,0
3839,note_on,,59,0,12,,,,,,,,,,,,,,,10,,,74,0
3839,note_on,,0,0,16,,,,,,,,,,,,,,,15,,,44,0
3839,note_on,,59,0,16,,,,,,,,,,,,,,,15,,,71,0
3839,note_on,,0,0,16,,,,,,,,,,,,,,,15,,,76,0
3839,note_on,,59,0,13,,,,,,,,,,,,,,,11,,,74,0
3839,note_on,,59,0,6,,,,,,,,,,,,,,,1,,,44,0
3840,note_on,,0,0,16,,,,,,,,,,,,,,,15,,,64,64
3840,note_on,,0,0,16,,,,,,,,,,,,,,,15,,,69,64
3840,note_on,,0,0,16,,,,,,,,,,,,,,,15,,,45,64
3840,note_on,,1,0,12,,,,,,,,,,,,,,,10,,,73,64
3840,note_on,,1,0,13,,,,,,,,,,,,,,,11,,,73,64
3840,note_on,,1,0,15,,,,,,,,,,,,,,,13,,,45,64
3840,note_on,,1,0,16,,,,,,,,,,,,,,,15,,,73,64
3840,note_on,,1,0,6,,,,,,,,,,,,,,,1,,,45,64
3869,note_on,,29,0,12,,,,,,,,,,,,,,,10,,,73,0
3869,note_on,,29,0,13,,,,,,,,,,,,,,,11,,,73,0
3870,note_on,,1,0,12,,,,,,,,,,,,,,,10,,,76,64
3870,note_on,,1,0,13,,,,,,,,,,,,,,,11,,,76,64
3899,note_on,,29,0,13,,,,,,,,,,,,,,,11,,,76,0
3899,note_on,,29,0,12,,,,,,,,,,,,,,,10,,,76,0
3899,note_on,,59,0,6,,,,,,,,,,,,,,,1,,,45,0
3899,note_on,,59,0,16,,,,,,,,,,,,,,,15,,,73,0
3899,note_on,,0,0,16,,,,,,,,,,,,,,,15,,,45,0
3899,note_on,,59,0,15,,,,,,,,,,,,,,,13,,,45,0
3900,note_on,,1,0,12,,,,,,,,,,,,,,,10,,,69,64
3900,note_on,,1,0,13,,,,,,,,,,,,,,,11,,,69,64
3900,note_on,,1,0,15,,,,,,,,,,,,,,,13,,,49,64
3900,note_on,,0,0,16,,,,,,,,,,,,,,,15,,,76,64
3900,note_on,,1,0,16,,,,,,,,,,,,,,,15,,,49,64
3900,note_on,,1,0,6,,,,,,,,,,,,,,,1,,,49,64
3929,note_on,,29,0,13,,,,,,,,,,,,,,,11,,,69,0
3929,note_on,,29,0,12,,,,,,,,,,,,,,,10,,,69,0
3930,note_on,,1,0,13,,,,,,,,,,,,,,,11,,,79,64
3930,note_on,,1,0,12,,,,,,,,,,,,,,,10,,,79,64
3959,note_on,,59,0,15,,,,,,,,,,,,,,,13,,,49,0
3959,note_on,,0,0,16,,,,,,,,,,,,,,,15,,,76,0
3959,note_on,,0,0,16,,,,,,,,,,,,,,,15,,,49,0
3959,note_on,,0,0,16,,,,,,,,,,,,,,,15,,,69,0
3959,note_on,,59,0,16,,,,,,,,,,,,,,,15,,,64,0
3959,note_on,,29,0,13,,,,,,,,,,,,,,,11,,,79,0
3959,note_on,,59,0,6,,,,,,,,,,,,,,,1,,,49,0
3959,note_on,,29,0,12,,,,,,,,,,,,,,,10,,,79,0
3960,note_on,,1,0,6,,,,,,,,,,,,,,,1,,,50,64
3960,note_on,,1,0,15,,,,,,,,,,,,,,,13,,,50,64
3960,note_on,,1,0,13,,,,,,,,,,,,,,,11,,,78,64
3960,note_on,,0,0,16,,,,,,,,,,,,,,,15,,,62,64
3960,note_on,,0,0,16,,,,,,,,,,,,,,,15,,,69,64
3960,note_on,,0,0,16,,,,,,,,,,,,,,,15,,,50,64
3960,note_on,,1,0,12,,,,,,,,,,,,,,,10,,,78,64
3960,note_on,,1,0,16,,,,,,,,,,,,,,,15,,,66,64
3989,note_on,,29,0,12,,,,,,,,,,,,,,,10,,,78,0
3989,note_on,,29,0,13,,,,,,,,,,,,,,,11,,,78,0
3990,note_on,,1,0,12,,,,,,,,,,,,,,,10,,,74,64
3990,note_on,,1,0,13,,,,,,,,,,,,,,,11,,,74,64
4019,note_on,,59,0,16,,,,,,,,,,,,,,,15,,,66,0
4019,note_on,,0,0,16,,,,,,,,,,,,,,,15,,,69,0
4019,note_on,,0,0,16,,,,,,,,,,,,,,,15,,,62,0
4019,note_on,,0,0,16,,,,,,,,,,,,,,,15,,,50,0
4019,note_on,,29,0,13,,,,,,,,,,,,,,,11,,,74,0
4019,note_on,,29,0,12,,,,,,,,,,,,,,,10,,,74,0
4019,note_on,,59,0,6,,,,,,,,,,,,,,,1,,,50,0
4019,note_on,,59,0,15,,,,,,,,,,,,,,,13,,,50,0
4020,note_on,,1,0,13,,,,,,,,,,,,,,,11,,,76,64
4020,note_on,,1,0,15,,,,,,,,,,,,,,,13,,,55,64
4020,note_on,,1,0,12,,,,,,,,,,,,,,,10,,,76,64
4020,note_on,,0,0,16,,,,,,,,,,,,,,,15,,,59,64
4020,note_on,,1,0,6,,,,,,,,,,,,,,,1,,,55,64
4020,note_on,,0,0,16,,,,,,,,,,,,,,,15,,,67,64
4020,note_on,,1,0,16,,,,,,,,,,,,,,,15,,,71,64
4020,note_on,,0,0,16,,,,,,,,,,,,,,,15,,,55,64
4049,note_on,,29,0,12,,,,,,,,,,,,,,,10,,,76,0
4049,note_on,,29,0,13,,,,,,,,,,,,,,,11,,,76,0
4050,note_on,,1,0,13,,,,,,,,,,,,,,,11,,,67,64
4050,note_on,,1,0,12,,,,,,,,,,,,,,,10,,,67,64
4079,note_on,,29,0,12,,,,,,,,,,,,,,,10,,,67,0
4079,note_on,,0,0,16,,,,,,,,,,,,,,,15,,,59,0
4079,note_on,,0,0,16,,,,,,,,,,,,,,,15,,,67,0
4079,note_on,,59,0,15,,,,,,,,,,,,,,,13,,,55,0
4079,note_on,,0,0,16,,,,,,,,,,,,,,,15,,,55,0
4079,note_on,,59,0,16,,,,,,,,,,,,,,,15,,,71,0
4079,note_on,,59,0,6,,,,,,,,,,,,,,,1,,,55,0
4079,note_on,,29,0,13,,,,,,,,,,,,,,,11,,,67,0
4080,note_on,,1,0,13,,,,,,,,,,,,,,,11,,,66,64
4080,note_on,,0,0,16,,,,,,,,,,,,,,,15,,,66,64
4080,note_on,,0,0,16,,,,,,,,,,,,,,,15,,,69,64
4080,note_on,,0,0,16,,,,,,,,,,,,,,,15,,,57,64
4080,note_on,,1,0,16,,,,,,,,,,,,,,,15,,,62,64
4080,note_on,,1,0,15,,,,,,,,,,,,,,,13,,,57,64
4080,note_on,,1,0,6,,,,,,,,,,,,,,,1,,,57,64
4080,note_on,,1,0,12,,,,,,,,,,,,,,,10,,,66,64
4109,note_on,,29,0,13,,,,,,,,,,,,,,,11,,,66,0
4109,note_on,,29,0,12,,,,,,,,,,,,,,,10,,,66,0
4110,note_on,,1,0,13,,,,,,,,,,,,,,,11,,,74,64
4110,note_on,,1,0,12,,,,,,,,,,,,,,,10,,,74,64
4139,note_on,,59,0,15,,,,,,,,,,,,,,,13,,,57,0
4139,note_on,,0,0,16,,,,,,,,,,,,,,,15,,,69,0
4139,note_on,,29,0,13,,,,,,,,,,,,,,,11,,,74,0
4139,note_on,,59,0,6,,,,,,,,,,,,,,,1,,,57,0
4139,note_on,,0,0,16,,,,,,,,,,,,,,,15,,,57,0
4139,note_on,,0,0,16,,,,,,,,,,,,,,,15,,,66,0
4139,note_on,,29,0,12,,,,,,,,,,,,,,,10,,,74,0
4139,note_on,,59,0,16,,,,,,,,,,,,,,,15,,,62,0
4140,note_on,,1,0,6,,,,,,,,,,,,,,,1,,,45,64
4140,note_on,,0,0,16,,,,,,,,,,,,,,,15,,,67,64
4140,note_on,,0,0,16,,,,,,,,,,,,,,,15,,,64,64
4140,note_on,,0,0,16,,,,,,,,,,,,,,,15,,,45,64
4140,note_on,,1,0,16,,,,,,,,,,,,,,,15,,,73,64
4140,note_on,,1,0,13,,,,,,,,,,,,,,,11,,,64,64
4140,note_on,,1,0,15,,,,,,,,,,,,,,,13,,,45,64
4140,note_on,,1,0,12,,,,,,,,,,,,,,,10,,,64,64
4169,note_on,,29,0,12,,,,,,,,,,,,,,,10,,,64,0
4169,note_on,,29,0,13,,,,,,,,,,,,,,,11,,,64,0
4170,note_on,,1,0,13,,,,,,,,,,,,,,,11,,,73,64
4170,note_on,,1,0,12,,,,,,,,,,,,,,,10,,,73,64
4199,note_on,,59,0,15,,,,,,,,,,,,,,,13,,,45,0
4199,note_on,,59,0,6,,,,,,,,,,,,,,,1,,,45,0
4199,note_on,,0,0,16,,,,,,,,,,,,,,,15,,,67,0
4199,note_on,,0,0,16,,,,,,,,,,,,,,,15,,,64,0
4199,note_on,,59,0,16,,,,,,,,,,,,,,,15,,,73,0
4199,note_on,,29,0,12,,,,,,,,,,,,,,,10,,,73,0
4199,note_on,,0,0,16,,,,,,,,,,,,,,,15,,,45,0
4199,note_on,,29,0,13,,,,,,,,,,,,,,,11,,,73,0
4200,note_on,,0,0,16,,,,,,,,,,,,,,,15,,,50,64
4200,note_on,,0,0,16,,,,,,,,,,,,,,,15,,,66,64
4200,note_on,,1,0,16,,,,,,,,,,,,,,,15,,,74,64
4200,note_on,,1,0,6,,,,,,,,,,,,,,,1,,,50,64
4200,note_on,,0,0,16,,,,,,,,,,,,,,,15,,,69,64
4200,note_on,,1,0,13,,,,,,,,,,,,,,,11,,,74,64
4200,note_on,,1,0,12,,,,,,,,,,,,,,,10,,,74,64
4200,note_on,,1,0,15,,,,,,,,,,,,,,,13,,,50,64
4259,note_on,,59,0,13,,,,,,,,,,,,,,,11,,,74,0
4259,note_on,,59,0,12,,,,,,,,,,,,,,,10,,,74,0
4260,note_on,,1,0,12,,,,,,,,,,,,,,,10,,,62,64
4260,note_on,,1,0,13,,,,,,,,,,,,,,,11,,,62,64
4319,note_on,,119,0,6,,,,,,,,,,,,,,,1,,,50,0
4319,note_on,,119,0,15,,,,,,,,,,,,,,,13,,,50,0
4319,note_on,,59,0,12,,,,,,,,,,,,,,,10,,,62,0
4319,note_on,,0,0,16,,,,,,,,,,,,,,,15,,,66,0
4319,note_on,,0,0,16,,,,,,,,,,,,,,,15,,,69,0
4319,note_on,,59,0,13,,,,,,,,,,,,,,,11,,,62,0
4319,note_on,,0,0,16,,,,,,,,,,,,,,,15,,,50,0
4319,note_on,,119,0,16,,,,,,,,,,,,,,,15,,,74,0
4320,note_on,,4320,0,11,,,,,,,,,,,,,,,14,,,69,68
4379,note_on,,59,0,11,,,,,,,,,,,,,,,14,,,69,0
4380,note_on,,1,0,11,,,,,,,,,,,,,,,14,,,62,66
4440,note_on,,0,0,16,,,,,,,,,,,,,,,15,,,54,48
4440,note_on,,121,0,15,,,,,,,,,,,,,,,13,,,54,48
4440,note_on,,0,0,16,,,,,,,,,,,,,,,15,,,62,48
4440,note_on,,121,0,16,,,,,,,,,,,,,,,15,,,62,48
4499,note_on,,0,0,16,,,,,,,,,,,,,,,15,,,54,0
4499,note_on,,59,0,15,,,,,,,,,,,,,,,13,,,54,0
4499,note_on,,59,0,16,,,,,,,,,,,,,,,15,,,62,0
4499,note_on,,119,0,11,,,,,,,,,,,,,,,14,,,62,0
4500,note_on,,1,0,15,,,,,,,,,,,,,,,13,,,55,48
4500,note_on,,1,0,16,,,,,,,,,,,,,,,15,,,71,48
4500,note_on,,0,0,16,,,,,,,,,,,,,,,15,,,55,48
4500,note_on,,1,0,11,,,,,,,,,,,,,,,14,,,64,61
4559,note_on,,0,0,16,,,,,,,,,,,,,,,15,,,71,0
4559,note_on,,59,0,11,,,,,,,,,,,,,,,14,,,64,0
4559,note_on,,59,0,15,,,,,,,,,,,,,,,13,,,55,0
4559,note_on,,0,0,16,,,,,,,,,,,,,,,15,,,55,0
4559,note_on,,59,0,16,,,,,,,,,,,,,,,15,,,62,0
4560,note_on,,0,0,16,,,,,,,,,,,,,,,15,,,61,48
4560,note_on,,0,0,16,,,,,,,,,,,,,,,15,,,57,48
4560,note_on,,1,0,11,,,,,,,,,,,,,,,14,,,61,66
4560,note_on,,1,0,16,,,,,,,,,,,,,,,15,,,64,48
4560,note_on,,1,0,15,,,,,,,,,,,,,,,13,,,57,48
4619,note_on,,59,0,16,,,,,,,,,,,,,,,15,,,57,0
4619,note_on,,59,0,15,,,,,,,,,,,,,,,13,,,57,0
4619,note_on,,59,0,11,,,,,,,,,,,,,,,14,,,61,0
4619,note_on,,0,0,16,,,,,,,,,,,,,,,15,,,61,0
4620,note_on,,1,0,15,,,,,,,,,,,,,,,13,,,59,48
4620,note_on,,1,0,11,,,,,,,,,,,,,,,14,,,62,59
4620,note_on,,0,0,16,,,,,,,,,,,,,,,15,,,59,48
4620,note_on,,1,0,16,,,,,,,,,,,,,,,15,,,62,48
4679,note_on,,59,0,11,,,,,,,,,,,,,,,14,,,62,0
4679,note_on,,59,0,15,,,,,,,,,,,,,,,13,,,59,0
4679,note_on,,0,0,16,,,,,,,,,,,,,,,15,,,59,0
4679,note_on,,59,0,16,,,,,,,,,,,,,,,15,,,62,0
4680,note_on,,1,0,15,,,,,,,,,,,,,,,13,,,61,48
4680,note_on,,0,0,16,,,,,,,,,,,,,,,15,,,64,48
4680,note_on,,1,0,16,,,,,,,,,,,,,,,15,,,61,48
4680,note_on,,1,0,11,,,,,,,,,,,,,,,14,,,64,61
4739,note_on,,0,0,16,,,,,,,,,,,,,,,15,,,64,0
4739,note_on,,0,0,16,,,,,,,,,,,,,,,15,,,61,0
4739,note_on,,59,0,11,,,,,,,,,,,,,,,14,,,64,0
4739,note_on,,59,0,15,,,,,,,,,,,,,,,13,,,61,0
4739,note_on,,59,0,16,,,,,,,,,,,,,,,15,,,64,0
4740,note_on,,1,0,16,,,,,,,,,,,,,,,15,,,62,48
4740,note_on,,0,0,16,,,,,,,,,,,,,,,15,,,66,48
4740,note_on,,0,0,16,,,,,,,,,,,,,,,15,,,69,48
4740,note_on,,1,0,11,,,,,,,,,,,,,,,14,,,66,61
4740,note_on,,1,0,15,,,,,,,,,,,,,,,13,,,62,48
4799,note_on,,59,0,11,,,,,,,,,,,,,,,14,,,66,0
4799,note_on,,0,0,16,,,,,,,,,,,,,,,15,,,66,0
4799,note_on,,59,0,16,,,,,,,,,,,,,,,15,,,62,0
4799,note_on,,59,0,15,,,,,,,,,,,,,,,13,,,62,0
4800,note_on,,1,0,11,,,,,,,,,,,,,,,14,,,67,64
4800,note_on,,0,0,16,,,,,,,,,,,,,,,15,,,64,48
4800,note_on,,1,0,15,,,,,,,,,,,,,,,13,,,64,48
4800,note_on,,1,0,16,,,,,,,,,,,,,,,15,,,67,48
4859,note_on,,0,0,16,,,,,,,,,,,,,,,15,,,64,0
4859,note_on,,59,0,11,,,,,,,,,,,,,,,14,,,67,0
4859,note_on,,59,0,16,,,,,,,,,,,,,,,15,,,67,0
4859,note_on,,59,0,15,,,,,,,,,,,,,,,13,,,64,0
4860,note_on,,0,0,16,,,,,,,,,,,,,,,15,,,62,48
4860,note_on,,1,0,16,,,,,,,,,,,,,,,15,,,66,48
4860,note_on,,1,0,15,,,,,,,,,,,,,,,13,,,62,48
4860,note_on,,1,0,11,,,,,,,,,,,,,,,14,,,66,59
4919,note_on,,59,0,15,,,,,,,,,,,,,,,13,,,62,0
4919,note_on,,59,0,11,,,,,,,,,,,,,,,14,,,66,0
4919,note_on,,59,0,16,,,,,,,,,,,,,,,15,,,69,0
4919,note_on,,0,0,16,,,,,,,,,,,,,,,15,,,66,0
4919,note_on,,0,0,16,,,,,,,,,,,,,,,15,,,62,0
4920,note_on,,1,0,15,,,,,,,,,,,,,,,13,,,57,48
4920,note_on,,0,0,16,,,,,,,,,,,,,,,15,,,69,48
4920,note_on,,0,0,16,,,,,,,,,,,,,,,15,,,57,48
4920,note_on,,1,0,16,,,,,,,,,,,,,,,15,,,74,48
4920,note_on,,0,0,16,,,,,,,,,,,,,,,15,,,66,48
4920,note_on,,1,0,11,,,,,,,,,,,,,,,14,,,66,60
4979,note_on,,59,0,16,,,,,,,,,,,,,,,15,,,74,0
4979,note_on,,0,0,16,,,,,,,,,,,,,,,15,,,66,0
4979,note_on,,59,0,11,,,,,,,,,,,,,,,14,,,66,0
4980,note_on,,1,0,11,,,,,,,,,,,,,,,14,,,64,64
4980,note_on,,1,0,16,,,,,,,,,,,,,,,15,,,73,48
4980,note_on,,0,0,16,,,,,,,,,,,,,,,15,,,64,48
5039,note_on,,59,0,11,,,,,,,,,,,,,,,14,,,64,0
5039,note_on,,119,0,15,,,,,,,,,,,,,,,13,,,57,0
5039,note_on,,59,0,16,,,,,,,,,,,,,,,15,,,57,0
5039,note_on,,0,0,16,,,,,,,,,,,,,,,15,,,69,0
5039,note_on,,0,0,16,,,,,,,,,,,,,,,15,,,73,0
5039,note_on,,0,0,16,,,,,,,,,,,,,,,15,,,64,0
5040,note_on,,721,0,12,,,,,,,,,,,,,,,10,,,81,48
5040,note_on,,0,0,16,,,,,,,,,,,,,,,15,,,57,48
5040,note_on,,1,0,16,,,,,,,,,,,,,,,15,,,64,48
5040,note_on,,0,0,16,,,,,,,,,,,,,,,15,,,61,48
5040,note_on,,0,0,16,,,,,,,,,,,,,,,15,,,55,48
5040,note_on,,721,0,6,,,,,,,,,,,,,,,1,,,55,48
5040,note_on,,721,0,13,,,,,,,,,,,,,,,11,,,81,48
5040,note_on,,1,0,15,,,,,,,,,,,,,,,13,,,55,48
5099,note_on,,59,0,6,,,,,,,,,,,,,,,1,,,55,0
5099,note_on,,59,0,16,,,,,,,,,,,,,,,15,,,64,0
5099,note_on,,0,0,16,,,,,,,,,,,,,,,15,,,61,0
5099,note_on,,0,0,16,,,,,,,,,,,,,,,15,,,57,0
5099,note_on,,0,0,16,,,,,,,,,,,,,,,15,,,55,0
5099,note_on,,59,0,12,,,,,,,,,,,,,,,10,,,81,0
5099,note_on,,59,0,15,,,,,,,,,,,,,,,13,,,55,0
5099,note_on,,59,0,13,,,,,,,,,,,,,,,11,,,81,0
5100,note_on,,0,0,16,,,,,,,,,,,,,,,15,,,57,48
5100,note_on,,0,0,16,,,,,,,,,,,,,,,15,,,54,48
5100,note_on,,1,0,13,,,,,,,,,,,,,,,11,,,74,48
5100,note_on,,1,0,16,,,,,,,,,,,,,,,15,,,62,48
5100,note_on,,1,0,12,,,,,,,,,,,,,,,10,,,74,48
5100,note_on,,0,0,16,,,,,,,,,,,,,,,15,,,69,48
5100,note_on,,1,0,6,,,,,,,,,,,,,,,1,,,54,48
5100,note_on,,1,0,15,,,,,,,,,,,,,,,13,,,54,48
5159,note_on,,59,0,16,,,,,,,,,,,,,,,15,,,62,0
5159,note_on,,0,0,16,,,,,,,,,,,,,,,15,,,57,0
5159,note_on,,0,0,16,,,,,,,,,,,,,,,15,,,54,0
5159,note_on,,59,0,6,,,,,,,,,,,,,,,1,,,54,0
5159,note_on,,59,0,15,,,,,,,,,,,,,,,13,,,54,0
5160,note_on,,0,0,16,,,,,,,,,,,,,,,15,,,66,48
5160,note_on,,0,0,16,,,,,,,,,,,,,,,15,,,50,48
5160,note_on,,1,0,16,,,,,,,,,,,,,,,15,,,62,48
5160,note_on,,1,0,6,,,,,,,,,,,,,,,1,,,50,48
5160,note_on,,1,0,15,,,,,,,,,,,,,,,13,,,50,48
5219,note_on,,59,0,15,,,,,,,,,,,,,,,13,,,50,0
5219,note_on,,0,0,16,,,,,,,,,,,,,,,15,,,62,0
5219,note_on,,0,0,16,,,,,,,,,,,,,,,15,,,50,0
5219,note_on,,0,0,16,,,,,,,,,,,,,,,15,,,66,0
5219,note_on,,119,0,13,,,,,,,,,,,,,,,11,,,74,0
5219,note_on,,59,0,6,,,,,,,,,,,,,,,1,,,50,0
5219,note_on,,119,0,12,,,,,,,,,,,,,,,10,,,74,0
5219,note_on,,59,0,16,,,,,,,,,,,,,,,15,,,69,0
5220,note_on,,1,0,16,,,,,,,,,,,,,,,15,,,67,48
5220,note_on,,0,0,16,,,,,,,,,,,,,,,15,,,55,48
5220,note_on,,0,0,16,,,,,,,,,,,,,,,15,,,59,48
5220,note_on,,1,0,12,,,,,,,,,,,,,,,10,,,76,48
5220,note_on,,1,0,15,,,,,,,,,,,,,,,13,,,55,48
5220,note_on,,1,0,6,,,,,,,,,,,,,,,1,,,55,48
5220,note_on,,1,0,13,,,,,,,,,,,,,,,11,,,76,48
5279,note_on,,59,0,15,,,,,,,,,,,,,,,13,,,55,0
5279,note_on,,59,0,6,,,,,,,,,,,,,,,1,,,55,0
5279,note_on,,59,0,13,,,,,,,,,,,,,,,11,,,76,0
5279,note_on,,59,0,16,,,,,,,,,,,,,,,15,,,67,0
5279,note_on,,0,0,16,,,,,,,,,,,,,,,15,,,55,0
5279,note_on,,0,0,16,,,,,,,,,,,,,,,15,,,59,0
5279,note_on,,59,0,12,,,,,,,,,,,,,,,10,,,76,0
5280,note_on,,1,0,12,,,,,,,,,,,,,,,10,,,73,48
5280,note_on,,0,0,16,,,,,,,,,,,,,,,15,,,64,48
5280,note_on,,1,0,13,,,,,,,,,,,,,,,11,,,73,48
5280,note_on,,1,0,6,,,,,,,,,,,,,,,1,,,45,48
5280,note_on,,1,0,15,,,,,,,,,,,,,,,13,,,45,48
5280,note_on,,1,0,16,,,,,,,,,,,,,,,15,,,61,48
5280,note_on,,0,0,16,,,,,,,,,,,,,,,15,,,45,48
5339,note_on,,59,0,6,,,,,,,,,,,,,,,1,,,45,0
5339,note_on,,59,0,12,,,,,,,,,,,,,,,10,,,73,0
5339,note_on,,59,0,16,,,,,,,,,,,,,,,15,,,45,0
5339,note_on,,59,0,15,,,,,,,,,,,,,,,13,,,45,0
5339,note_on,,59,0,13,,,,,,,,,,,,,,,11,,,73,0
5340,note_on,,1,0,6,,,,,,,,,,,,,,,1,,,47,48
5340,note_on,,301,0,11,,,,,,,,,,,,,,,14,,,64,62
5340,note_on,,1,0,15,,,,,,,,,,,,,,,13,,,47,48
5340,note_on,,1,0,12,,,,,,,,,,,,,,,10,,,74,48
5340,note_on,,1,0,13,,,,,,,,,,,,,,,11,,,74,48
5340,note_on,,1,0,16,,,,,,,,,,,,,,,15,,,47,48
5399,note_on,,0,0,16,,,,,,,,,,,,,,,15,,,47,0
5399,note_on,,59,0,12,,,,,,,,,,,,,,,10,,,74,0
5399,note_on,,59,0,13,,,,,,,,,,,,,,,11,,,74,0
5399,note_on,,59,0,15,,,,,,,,,,,,,,,13,,,47,0
5399,note_on,,0,0,16,,,,,,,,,,,,,,,15,,,64,0
5399,note_on,,59,0,16,,,,,,,,,,,,,,,15,,,61,0
5399,note_on,,59,0,6,,,,,,,,,,,,,,,1,,,47,0
5399,note_on,,59,0,11,,,,,,,,,,,,,,,14,,,64,0
5400,note_on,,1,0,11,,,,,,,,,,,,,,,14,,,64,63
5400,note_on,,1,0,13,,,,,,,,,,,,,,,11,,,76,48
5400,note_on,,1,0,15,,,,,,,,,,,,,,,13,,,49,48
5400,note_on,,0,0,16,,,,,,,,,,,,,,,15,,,49,48
5400,note_on,,1,0,12,,,,,,,,,,,,,,,10,,,76,48
5400,note_on,,0,0,16,,,,,,,,,,,,,,,15,,,69,48
5400,note_on,,1,0,16,,,,,,,,,,,,,,,15,,,57,48
5400,note_on,,1,0,6,,,,,,,,,,,,,,,1,,,49,48
5400,note_on,,0,0,16,,,,,,,,,,,,,,,15,,,64,48
5459,note_on,,0,0,16,,,,,,,,,,,,,,,15,,,49,0
5459,note_on,,0,0,16,,,,,,,,,,,,,,,15,,,64,0
5459,note_on,,59,0,6,,,,,,,,,,,,,,,1,,,49,0
5459,note_on,,59,0,12,,,,,,,,,,,,,,,10,,,76,0
5459,note_on,,0,0,16,,,,,,,,,,,,,,,15,,,69,0
5459,note_on,,59,0,11,,,,,,,,,,,,,,,14,,,64,0
5459,note_on,,59,0,13,,,,,,,,,,,,,,,11,,,76,0
5459,note_on,,59,0,15,,,,,,,,,,,,,,,13,,,49,0
5459,note_on,,59,0,16,,,,,,,,,,,,,,,15,,,57,0
5460,note_on,,1,0,12,,,,,,,,,,,,,,,10,,,78,48
5460,note_on,,0,0,16,,,,,,,,,,,,,,,15,,,50,48
5460,note_on,,1,0,6,,,,,,,,,,,,,,,1,,,50,48
5460,note_on,,0,0,16,,,,,,,,,,,,,,,15,,,62,48
5460,note_on,,1,0,16,,,,,,,,,,,,,,,15,,,66,48
5460,note_on,,1,0,11,,,,,,,,,,,,,,,14,,,69,67
5460,note_on,,1,0,15,,,,,,,,,,,,,,,13,,,50,48
5460,note_on,,1,0,13,,,,,,,,,,,,,,,11,,,78,48
5460,note_on,,0,0,16,,,,,,,,,,,,,,,15,,,57,48
5519,note_on,,59,0,16,,,,,,,,,,,,,,,15,,,50,0
5519,note_on,,59,0,13,,,,,,,,,,,,,,,11,,,78,0
5519,note_on,,59,0,15,,,,,,,,,,,,,,,13,,,50,0
5519,note_on,,59,0,6,,,,,,,,,,,,,,,1,,,50,0
5519,note_on,,59,0,12,,,,,,,,,,,,,,,10,,,78,0
5520,note_on,,1,0,6,,,,,,,,,,,,,,,1,,,52,48
5520,note_on,,1,0,12,,,,,,,,,,,,,,,10,,,79,48
5520,note_on,,1,0,16,,,,,,,,,,,,,,,15,,,52,48
5520,note_on,,1,0,15,,,,,,,,,,,,,,,13,,,52,48
5520,note_on,,1,0,13,,,,,,,,,,,,,,,11,,,79,48
5579,note_on,,0,0,16,,,,,,,,,,,,,,,15,,,62,0
5579,note_on,,119,0,11,,,,,,,,,,,,,,,14,,,69,0
5579,note_on,,59,0,15,,,,,,,,,,,,,,,13,,,52,0
5579,note_on,,0,0,16,,,,,,,,,,,,,,,15,,,52,0
5579,note_on,,59,0,13,,,,,,,,,,,,,,,11,,,79,0
5579,note_on,,59,0,16,,,,,,,,,,,,,,,15,,,66,0
5579,note_on,,59,0,12,,,,,,,,,,,,,,,10,,,79,0
5579,note_on,,59,0,6,,,,,,,,,,,,,,,1,,,52,0
5579,note_on,,0,0,16,,,,,,,,,,,,,,,15,,,57,0
5580,note_on,,1,0,11,,,,,,,,,,,,,,,14,,,69,59
5580,note_on,,1,0,12,,,,,,,,,,,,,,,10,,,78,48
5580,note_on,,1,0,6,,,,,,,,,,,,,,,1,,,50,48
5580,note_on,,1,0,15,,,,,,,,,,,,,,,13,,,50,48
5580,note_on,,0,0,16,,,,,,,,,,,,,,,15,,,69,48
5580,note_on,,0,0,16,,,,,,,,,,,,,,,15,,,50,48
5580,note_on,,1,0,16,,,,,,,,,,,,,,,15,,,74,48
5580,note_on,,1,0,13,,,,,,,,,,,,,,,11,,,78,48
5580,note_on,,0,0,16,,,,,,,,,,,,,,,15,,,66,48
5639,note_on,,59,0,13,,,,,,,,,,,,,,,11,,,78,0
5639,note_on,,59,0,15,,,,,,,,,,,,,,,13,,,50,0
5639,note_on,,59,0,11,,,,,,,,,,,,,,,14,,,69,0
5639,note_on,,59,0,12,,,,,,,,,,,,,,,10,,,78,0
5639,note_on,,59,0,6,,,,,,,,,,,,,,,1,,,50,0
5639,note_on,,0,0,16,,,,,,,,,,,,,,,15,,,69,0
5639,note_on,,0,0,16,,,,,,,,,,,,,,,15,,,50,0
5639,note_on,,0,0,16,,,,,,,,,,,,,,,15,,,66,0
5639,note_on,,59,0,16,,,,,,,,,,,,,,,15,,,74,0
5640,note_on,,1,0,13,,,,,,,,,,,,,,,11,,,78,48
5640,note_on,,1,0,12,,,,,,,,,,,,,,,10,,,78,48
5640,note_on,,1,0,6,,,,,,,,,,,,,,,1,,,57,48
5640,note_on,,1,0,11,,,,,,,,,,,,,,,14,,,64,63
5640,note_on,,1,0,15,,,,,,,,,,,,,,,13,,,57,48
5640,note_on,,1,0,16,,,,,,,,,,,,,,,15,,,57,48
5640,note_on,,0,0,16,,,,,,,,,,,,,,,15,,,69,48
5640,note_on,,0,0,16,,,,,,,,,,,,,,,15,,,66,48
5640,note_on,,0,0,16,,,,,,,,,,,,,,,15,,,62,48
5699,note_on,,59,0,13,,,,,,,,,,,,,,,11,,,78,0
5699,note_on,,59,0,11,,,,,,,,,,,,,,,14,,,64,0
5699,note_on,,59,0,16,,,,,,,,,,,,,,,15,,,66,0
5699,note_on,,59,0,12,,,,,,,,,,,,,,,10,,,78,0
5699,note_on,,0,0,16,,,,,,,,,,,,,,,15,,,62,0
5700,note_on,,1,0,11,,,,,,,,,,,,,,,14,,,66,60
5700,note_on,,1,0,16,,,,,,,,,,,,,,,15,,,64,48
5700,note_on,,1,0,12,,,,,,,,,,,,,,,10,,,76,48
5700,note_on,,0,0,16,,,,,,,,,,,,,,,15,,,61,48
5700,note_on,,1,0,13,,,,,,,,,,,,,,,11,,,76,48
5759,note_on,,119,0,15,,,,,,,,,,,,,,,13,,,57,0
5759,note_on,,59,0,11,,,,,,,,,,,,,,,14,,,66,0
5759,note_on,,0,0,16,,,,,,,,,,,,,,,15,,,69,0
5759,note_on,,59,0,12,,,,,,,,,,,,,,,10,,,76,0
5759,note_on,,59,0,16,,,,,,,,,,,,,,,15,,,57,0
5759,note_on,,0,0,16,,,,,,,,,,,,,,,15,,,64,0
5759,note_on,,59,0,13,,,,,,,,,,,,,,,11,,,76,0
5759,note_on,,119,0,6,,,,,,,,,,,,,,,1,,,57,0
5759,note_on,,0,0,16,,,,,,,,,,,,,,,15,,,61,0
5760,note_on,,0,0,16,,,,,,,,,,,,,,,15,,,55,48
5760,note_on,,0,0,16,,,,,,,,,,,,,,,15,,,64,48
5760,note_on,,1,0,15,,,,,,,,,,,,,,,13,,,55,48
5760,note_on,,1,0,11,,,,,,,,,,,,,,,14,,,67,66
5760,note_on,,0,0,16,,,,,,,,,,,,,,,15,,,69,48
5760,note_on,,1,0,16,,,,,,,,,,,,,,,15,,,73,48
5819,note_on,,59,0,11,,,,,,,,,,,,,,,14,,,67,0
5819,note_on,,59,0,15,,,,,,,,,,,,,,,13,,,55,0
5819,note_on,,59,0,16,,,,,,,,,,,,,,,15,,,73,0
5819,note_on,,0,0,16,,,,,,,,,,,,,,,15,,,69,0
5819,note_on,,0,0,16,,,,,,,,,,,,,,,15,,,64,0
5819,note_on,,0,0,16,,,,,,,,,,,,,,,15,,,55,0
5820,note_on,,0,0,16,,,,,,,,,,,,,,,15,,,74,48
5820,note_on,,1,0,16,,,,,,,,,,,,,,,15,,,54,48
5820,note_on,,0,0,16,,,,,,,,,,,,,,,15,,,62,48
5820,note_on,,0,0,16,,,,,,,,,,,,,,,15,,,69,48
5820,note_on,,1,0,15,,,,,,,,,,,,,,,13,,,54,48
5820,note_on,,1,0,11,,,,,,,,,,,,,,,14,,,66,62
5879,note_on,,0,0,16,,,,,,,,,,,,,,,15,,,62,0
5879,note_on,,59,0,15,,,,,,,,,,,,,,,13,,,54,0
5879,note_on,,59,0,16,,,,,,,,,,,,,,,15,,,54,0
5880,note_on,,1,0,15,,,,,,,,,,,,,,,13,,,57,48
5880,note_on,,0,0,16,,,,,,,,,,,,,,,15,,,66,48
5880,note_on,,1,0,16,,,,,,,,,,,,,,,15,,,57,48
5939,note_on,,59,0,15,,,,,,,,,,,,,,,13,,,57,0
5939,note_on,,0,0,16,,,,,,,,,,,,,,,15,,,66,0
5939,note_on,,59,0,16,,,,,,,,,,,,,,,15,,,57,0
5940,note_on,,1,0,16,,,,,,,,,,,,,,,15,,,62,48
5940,note_on,,0,0,16,,,,,,,,,,,,,,,15,,,69,48
5940,note_on,,1,0,15,,,,,,,,,,,,,,,13,,,62,48
5999,note_on,,59,0,15,,,,,,,,,,,,,,,13,,,62,0
5999,note_on,,179,0,11,,,,,,,,,,,,,,,14,,,66,0
5999,note_on,,0,0,16,,,,,,,,,,,,,,,15,,,62,0
5999,note_on,,0,0,16,,,,,,,,,,,,,,,15,,,69,0
5999,note_on,,0,0,16,,,,,,,,,,,,,,,15,,,69,0
5999,note_on,,59,0,16,,,,,,,,,,,,,,,15,,,74,0
6000,note_on,,1,0,16,,,,,,,,,,,,,,,15,,,76,48
6000,note_on,,1,0,15,,,,,,,,,,,,,,,13,,,61,48
6000,note_on,,0,0,16,,,,,,,,,,,,,,,15,,,61,48
6000,note_on,,0,0,16,,,,,,,,,,,,,,,15,,,64,48
6000,note_on,,0,0,16,,,,,,,,,,,,,,,15,,,69,48
6000,note_on,,1,0,11,,,,,,,,,,,,,,,14,,,64,62
6119,note_on,,119,0,16,,,,,,,,,,,,,,,15,,,76,0
6119,note_on,,0,0,16,,,,,,,,,,,,,,,15,,,61,0
6119,note_on,,0,0,16,,,,,,,,,,,,,,,15,,,64,0
6119,note_on,,0,0,16,,,,,,,,,,,,,,,15,,,69,0
6119,note_on,,119,0,15,,,,,,,,,,,,,,,13,,,61,0
6120,note_on,,0,0,16,,,,,,,,,,,,,,,15,,,69,48
6120,note_on,,1,0,16,,,,,,,,,,,,,,,15,,,73,48
6120,note_on,,0,0,16,,,,,,,,,,,,,,,15,,,64,48
6120,note_on,,0,0,16,,,,,,,,,,,,,,,15,,,57,48
6120,note_on,,1,0,15,,,,,,,,,,,,,,,13,,,57,48
6179,note_on,,59,0,15,,,,,,,,,,,,,,,13,,,57,0
6179,note_on,,179,0,11,,,,,,,,,,,,,,,14,,,64,0
6179,note_on,,0,0,16,,,,,,,,,,,,,,,15,,,57,0
6179,note_on,,0,0,16,,,,,,,,,,,,,,,15,,,64,0
6179,note_on,,0,0,16,,,,,,,,,,,,,,,15,,,69,0
6179,note_on,,59,0,16,,,,,,,,,,,,,,,15,,,73,0
6180,note_on,,0,0,16,,,,,,,,,,,,,,,15,,,69,48
6180,note_on,,0,0,16,,,,,,,,,,,,,,,15,,,62,48
6180,note_on,,1,0,16,,,,,,,,,,,,,,,15,,,66,48
6180,note_on,,1,0,15,,,,,,,,,,,,,,,13,,,62,48
6299,note_on,,119,0,16,,,,,,,,,,,,,,,15,,,62,0
6299,note_on,,119,0,15,,,,,,,,,,,,,,,13,,,62,0
6300,note_on,,1,0,15,,,,,,,,,,,,,,,13,,,50,48
6300,note_on,,1,0,16,,,,,,,,,,,,,,,15,,,50,48
6359,note_on,,59,0,16,,,,,,,,,,,,,,,15,,,66,0
6359,note_on,,0,0,16,,,,,,,,,,,,,,,15,,,69,0
6359,note_on,,0,0,16,,,,,,,,,,,,,,,15,,,50,0
6359,note_on,,59,0,15,,,,,,,,,,,,,,,13,,,50,0
6360,note_on,,0,0,16,,,,,,,,,,,,,,,15,,,45,48
6360,note_on,,1,0,15,,,,,,,,,,,,,,,13,,,45,48
6360,note_on,,1,0,16,,,,,,,,,,,,,,,15,,,73,48
6360,note_on,,0,0,16,,,,,,,,,,,,,,,15,,,69,48
6360,note_on,,0,0,16,,,,,,,,,,,,,,,15,,,64,48
6419,note_on,,59,0,15,,,,,,,,,,,,,,,13,,,45,0
6419,note_on,,59,0,16,,,,,,,,,,,,,,,15,,,45,0
6420,note_on,,1,0,15,,,,,,,,,,,,,,,13,,,57,48
6420,note_on,,661,0,6,,,,,,,,,,,,,,,1,,,57,48
6420,note_on,,1,0,16,,,,,,,,,,,,,,,15,,,57,48
6450,note_on,,691,0,12,,,,,,,,,,,,,,,10,,,76,48
6450,note_on,,691,0,13,,,,,,,,,,,,,,,11,,,76,48
6479,note_on,,59,0,15,,,,,,,,,,,,,,,13,,,57,0
6479,note_on,,59,0,6,,,,,,,,,,,,,,,1,,,57,0
6479,note_on,,29,0,13,,,,,,,,,,,,,,,11,,,76,0
6479,note_on,,29,0,12,,,,,,,,,,,,,,,10,,,76,0
6479,note_on,,59,0,16,,,,,,,,,,,,,,,15,,,57,0
6480,note_on,,1,0,15,,,,,,,,,,,,,,,13,,,55,48
6480,note_on,,1,0,6,,,,,,,,,,,,,,,1,,,55,48
6480,note_on,,1,0,12,,,,,,,,,,,,,,,10,,,78,48
6480,note_on,,1,0,13,,,,,,,,,,,,,,,11,,,78,48
6480,note_on,,1,0,16,,,,,,,,,,,,,,,15,,,55,48
6509,note_on,,29,0,12,,,,,,,,,,,,,,,10,,,78,0
6509,note_on,,29,0,13,,,,,,,,,,,,,,,11,,,78,0
6510,note_on,,1,0,12,,,,,,,,,,,,,,,10,,,79,48
6510,note_on,,1,0,13,,,,,,,,,,,,,,,11,,,79,48
6539,note_on,,59,0,15,,,,,,,,,,,,,,,13,,,55,0
6539,note_on,,59,0,6,,,,,,,,,,,,,,,1,,,55,0
6539,note_on,,29,0,12,,,,,,,,,,,,,,,10,,,79,0
6539,note_on,,59,0,16,,,,,,,,,,,,,,,15,,,73,0
6539,note_on,,29,0,13,,,,,,,,,,,,,,,11,,,79,0
6539,note_on,,0,0,16,,,,,,,,,,,,,,,15,,,55,0
6539,note_on,,0,0,16,,,,,,,,,,,,,,,15,,,64,0
6539,note_on,,0,0,16,,,,,,,,,,,,,,,15,,,69,0
6540,note_on,,1,0,12,,,,,,,,,,,,,,,10,,,81,48
6540,note_on,,1,0,16,,,,,,,,,,,,,,,15,,,62,48
6540,note_on,,0,0,16,,,,,,,,,,,,,,,15,,,69,48
6540,note_on,,1,0,13,,,,,,,,,,,,,,,11,,,81,48
6540,note_on,,0,0,16,,,,,,,,,,,,,,,15,,,54,48
6540,note_on,,0,0,16,,,,,,,,,,,,,,,15,,,74,48
6540,note_on,,1,0,6,,,,,,,,,,,,,,,1,,,54,48
6540,note_on,,1,0,15,,,,,,,,,,,,,,,13,,,54,48
6569,note_on,,29,0,12,,,,,,,,,,,,,,,10,,,81,0
6569,note_on,,29,0,13,,,,,,,,,,,,,,,11,,,81,0
6570,note_on,,1,0,12,,,,,,,,,,,,,,,10,,,83,48
6570,note_on,,1,0,13,,,,,,,,,,,,,,,11,,,83,48
6599,note_on,,29,0,13,,,,,,,,,,,,,,,11,,,83,0
6599,note_on,,29,0,12,,,,,,,,,,,,,,,10,,,83,0
6600,note_on,,1,0,13,,,,,,,,,,,,,,,11,,,81,48
6600,note_on,,1,0,12,,,,,,,,,,,,,,,10,,,81,48
6629,note_on,,29,0,12,,,,,,,,,,,,,,,10,,,81,0
6629,note_on,,29,0,13,,,,,,,,,,,,,,,11,,,81,0
6630,note_on,,1,0,12,,,,,,,,,,,,,,,10,,,69,48
6630,note_on,,1,0,13,,,,,,,,,,,,,,,11,,,69,48
6659,note_on,,119,0,15,,,,,,,,,,,,,,,13,,,54,0
6659,note_on,,119,0,16,,,,,,,,,,,,,,,15,,,54,0
6659,note_on,,29,0,12,,,,,,,,,,,,,,,10,,,69,0
6659,note_on,,29,0,13,,,,,,,,,,,,,,,11,,,69,0
6659,note_on,,119,0,6,,,,,,,,,,,,,,,1,,,54,0
6660,note_on,,1,0,13,,,,,,,,,,,,,,,11,,,71,48
6660,note_on,,1,0,12,,,,,,,,,,,,,,,10,,,71,48
6660,note_on,,1,0,15,,,,,,,,,,,,,,,13,,,62,48
6660,note_on,,1,0,6,,,,,,,,,,,,,,,1,,,62,48
6660,note_on,,1,0,16,,,,,,,,,,,,,,,15,,,62,48
6689,note_on,,29,0,13,,,,,,,,,,,,,,,11,,,71,0
6689,note_on,,29,0,12,,,,,,,,,,,,,,,10,,,71,0
6690,note_on,,1,0,13,,,,,,,,,,,,,,,11,,,69,48
6690,note_on,,1,0,12,,,,,,,,,,,,,,,10,,,69,48
6719,note_on,,59,0,15,,,,,,,,,,,,,,,13,,,62,0
6719,note_on,,29,0,12,,,,,,,,,,,,,,,10,,,69,0
6719,note_on,,59,0,6,,,,,,,,,,,,,,,1,,,62,0
6719,note_on,,0,0,16,,,,,,,,,,,,,,,15,,,69,0
6719,note_on,,0,0,16,,,,,,,,,,,,,,,15,,,74,0
6719,note_on,,0,0,16,,,,,,,,,,,,,,,15,,,62,0
6719,note_on,,29,0,13,,,,,,,,,,,,,,,11,,,69,0
6719,note_on,,59,0,16,,,,,,,,,,,,,,,15,,,62,0
6720,note_on,,1,0,12,,,,,,,,,,,,,,,10,,,79,48
6720,note_on,,0,0,16,,,,,,,,,,,,,,,15,,,76,48
6720,note_on,,0,0,16,,,,,,,,,,,,,,,15,,,67,48
6720,note_on,,0,0,16,,,,,,,,,,,,,,,15,,,73,48
6720,note_on,,1,0,6,,,,,,,,,,,,,,,1,,,52,48
6720,note_on,,1,0,16,,,,,,,,,,,,,,,15,,,52,48
6720,note_on,,1,0,15,,,,,,,,,,,,,,,13,,,52,48
6720,note_on,,1,0,13,,,,,,,,,,,,,,,11,,,79,48
6749,note_on,,29,0,13,,,,,,,,,,,,,,,11,,,79,0
6749,note_on,,29,0,12,,,,,,,,,,,,,,,10,,,79,0
6750,note_on,,1,0,13,,,,,,,,,,,,,,,11,,,81,48
6750,note_on,,1,0,12,,,,,,,,,,,,,,,10,,,81,48
6779,note_on,,29,0,12,,,,,,,,,,,,,,,10,,,81,0
6779,note_on,,29,0,13,,,,,,,,,,,,,,,11,,,81,0
6780,note_on,,1,0,12,,,,,,,,,,,,,,,10,,,79,48
6780,note_on,,1,0,13,,,,,,,,,,,,,,,11,,,79,48
6809,note_on,,29,0,12,,,,,,,,,,,,,,,10,,,79,0
6809,note_on,,29,0,13,,,,,,,,,,,,,,,11,,,79,0
6810,note_on,,1,0,13,,,,,,,,,,,,,,,11,,,69,48
6810,note_on,,1,0,12,,,,,,,,,,,,,,,10,,,69,48
6839,note_on,,29,0,13,,,,,,,,,,,,,,,11,,,69,0
6839,note_on,,29,0,12,,,,,,,,,,,,,,,10,,,69,0
6839,note_on,,119,0,6,,,,,,,,,,,,,,,1,,,52,0
6839,note_on,,119,0,15,,,,,,,,,,,,,,,13,,,52,0
6839,note_on,,119,0,16,,,,,,,,,,,,,,,15,,,52,0
6840,note_on,,1,0,12,,,,,,,,,,,,,,,10,,,71,48
6840,note_on,,1,0,15,,,,,,,,,,,,,,,13,,,61,48
6840,note_on,,1,0,6,,,,,,,,,,,,,,,1,,,61,48
6840,note_on,,1,0,13,,,,,,,,,,,,,,,11,,,71,48
6840,note_on,,1,0,16,,,,,,,,,,,,,,,15,,,61,48
6869,note_on,,29,0,12,,,,,,,,,,,,,,,10,,,71,0
6869,note_on,,29,0,13,,,,,,,,,,,,,,,11,,,71,0
6870,note_on,,1,0,12,,,,,,,,,,,,,,,10,,,69,48
6870,note_on,,1,0,13,,,,,,,,,,,,,,,11,,,69,48
6899,note_on,,59,0,15,,,,,,,,,,,,,,,13,,,61,0
6899,note_on,,59,0,6,,,,,,,,,,,,,,,1,,,61,0
6899,note_on,,29,0,12,,,,,,,,,,,,,,,10,,,69,0
6899,note_on,,0,0,16,,,,,,,,,,,,,,,15,,,61,0
6899,note_on,,0,0,16,,,,,,,,,,,,,,,15,,,73,0
6899,note_on,,0,0,16,,,,,,,,,,,,,,,15,,,67,0
6899,note_on,,59,0,16,,,,,,,,,,,,,,,15,,,76,0
6899,note_on,,29,0,13,,,,,,,,,,,,,,,11,,,69,0
6900,note_on,,0,0,16,,,,,,,,,,,,,,,15,,,66,48
6900,note_on,,1,0,13,,,,,,,,,,,,,,,11,,,78,48
6900,note_on,,0,0,16,,,,,,,,,,,,,,,15,,,62,48
6900,note_on,,1,0,16,,,,,,,,,,,,,,,15,,,69,48
6900,note_on,,1,0,6,,,,,,,,,,,,,,,1,,,62,48
6900,note_on,,1,0,15,,,,,,,,,,,,,,,13,,,62,48
6900,note_on,,1,0,12,,,,,,,,,,,,,,,10,,,78,48
6929,note_on,,29,0,12,,,,,,,,,,,,,,,10,,,78,0
6929,note_on,,29,0,13,,,,,,,,,,,,,,,11,,,78,0
6930,note_on,,1,0,13,,,,,,,,,,,,,,,11,,,79,48
6930,note_on,,1,0,12,,,,,,,,,,,,,,,10,,,79,48
6959,note_on,,29,0,13,,,,,,,,,,,,,,,11,,,79,0
6959,note_on,,29,0,12,,,,,,,,,,,,,,,10,,,79,0
6960,note_on,,1,0,13,,,,,,,,,,,,,,,11,,,78,48
6960,note_on,,1,0,12,,,,,,,,,,,,,,,10,,,78,48
6989,note_on,,29,0,12,,,,,,,,,,,,,,,10,,,78,0
6989,note_on,,29,0,13,,,,,,,,,,,,,,,11,,,78,0
6990,note_on,,1,0,13,,,,,,,,,,,,,,,11,,,69,48
6990,note_on,,1,0,12,,,,,,,,,,,,,,,10,,,69,48
7019,note_on,,29,0,13,,,,,,,,,,,,,,,11,,,69,0
7019,note_on,,119,0,6,,,,,,,,,,,,,,,1,,,62,0
7019,note_on,,0,0,16,,,,,,,,,,,,,,,15,,,62,0
7019,note_on,,119,0,15,,,,,,,,,,,,,,,13,,,62,0
7019,note_on,,119,0,16,,,,,,,,,,,,,,,15,,,69,0
7019,note_on,,0,0,16,,,,,,,,,,,,,,,15,,,66,0
7019,note_on,,29,0,12,,,,,,,,,,,,,,,10,,,69,0
7020,note_on,,1,0,12,,,,,,,,,,,,,,,10,,,71,48
7020,note_on,,1,0,13,,,,,,,,,,,,,,,11,,,71,48
7020,note_on,,1,0,16,,,,,,,,,,,,,,,15,,,50,48
7020,note_on,,1,0,6,,,,,,,,,,,,,,,1,,,50,48
7020,note_on,,0,0,16,,,,,,,,,,,,,,,15,,,69,48
7020,note_on,,0,0,16,,,,,,,,,,,,,,,15,,,78,48
7020,note_on,,0,0,16,,,,,,,,,,,,,,,15,,,74,48
7020,note_on,,1,0,15,,,,,,,,,,,,,,,13,,,50,48
7049,note_on,,29,0,13,,,,,,,,,,,,,,,11,,,71,0
7049,note_on,,29,0,12,,,,,,,,,,,,,,,10,,,71,0
7050,note_on,,1,0,13,,,,,,,,,,,,,,,11,,,69,48
7050,note_on,,1,0,12,,,,,,,,,,,,,,,10,,,69,48
7079,note_on,,29,0,12,,,,,,,,,,,,,,,10,,,69,0
7079,note_on,,29,0,13,,,,,,,,,,,,,,,11,,,69,0
7079,note_on,,59,0,16,,,,,,,,,,,,,,,15,,,50,0
7079,note_on,,0,0,16,,,,,,,,,,,,,,,15,,,69,0
7079,note_on,,0,0,16,,,,,,,,,,,,,,,15,,,78,0
7079,note_on,,0,0,16,,,,,,,,,,,,,,,15,,,74,0
7079,note_on,,59,0,15,,,,,,,,,,,,,,,13,,,50,0
7079,note_on,,59,0,6,,,,,,,,,,,,,,,1,,,50,0
7080,note_on,,1,0,6,,,,,,,,,,,,,,,1,,,49,48
7080,note_on,,1,0,12,,,,,,,,,,,,,,,10,,,76,48
7080,note_on,,1,0,15,,,,,,,,,,,,,,,13,,,49,48
7080,note_on,,0,0,16,,,,,,,,,,,,,,,15,,,49,48
7080,note_on,,0,0,16,,,,,,,,,,,,,,,15,,,69,48
7080,note_on,,0,0,16,,,,,,,,,,,,,,,15,,,64,48
7080,note_on,,1,0,16,,,,,,,,,,,,,,,15,,,76,48
7080,note_on,,1,0,13,,,,,,,,,,,,,,,11,,,76,48
7139,note_on,,59,0,12,,,,,,,,,,,,,,,10,,,76,0
7139,note_on,,59,0,13,,,,,,,,,,,,,,,11,,,76,0
7140,note_on,,1,0,12,,,,,,,,,,,,,,,10,,,69,48
7140,note_on,,1,0,13,,,,,,,,,,,,,,,11,,,69,48
7199,note_on,,119,0,16,,,,,,,,,,,,,,,15,,,76,0
7199,note_on,,0,0,16,,,,,,,,,,,,,,,15,,,69,0
7199,note_on,,119,0,6,,,,,,,,,,,,,,,1,,,49,0
7199,note_on,,59,0,12,,,,,,,,,,,,,,,10,,,69,0
7199,note_on,,59,0,13,,,,,,,,,,,,,,,11,,,69,0
7199,note_on,,119,0,15,,,,,,,,,,,,,,,13,,,49,0
7199,note_on,,0,0,16,,,,,,,,,,,,,,,15,,,64,0
7199,note_on,,0,0,16,,,,,,,,,,,,,,,15,,,49,0
7200,note_on,,1,0,16,,,,,,,,,,,,,,,15,,,69,48
7200,note_on,,0,0,16,,,,,,,,,,,,,,,15,,,73,48
7200,note_on,,0,0,16,,,,,,,,,,,,,,,15,,,64,48
7200,note_on,,0,0,16,,,,,,,,,,,,,,,15,,,57,48
7200,note_on,,1021,0,11,,,,,,,,,,,,,,,14,,,69,60
7200,note_on,,1,0,15,,,,,,,,,,,,,,,13,,,57,48
7259,note_on,,0,0,16,,,,,,,,,,,,,,,15,,,64,0
7259,note_on,,0,0,16,,,,,,,,,,,,,,,15,,,57,0
7259,note_on,,0,0,16,,,,,,,,,,,,,,,15,,,73,0
7259,note_on,,59,0,15,,,,,,,,,,,,,,,13,,,57,0
7259,note_on,,59,0,16,,,,,,,,,,,,,,,15,,,69,0
7259,note_on,,59,0,11,,,,,,,,,,,,,,,14,,,69,0
7260,note_on,,1,0,15,,,,,,,,,,,,,,,13,,,59,48
7260,note_on,,1,0,11,,,,,,,,,,,,,,,14,,,62,62
7260,note_on,,1,0,16,,,,,,,,,,,,,,,15,,,62,48
7260,note_on,,0,0,16,,,,,,,,,,,,,,,15,,,59,48
7260,note_on,,0,0,16,,,,,,,,,,,,,,,15,,,66,48
7319,note_on,,59,0,15,,,,,,,,,,,,,,,13,,,59,0
7319,note_on,,59,0,16,,,,,,,,,,,,,,,15,,,59,0
7320,note_on,,1,0,15,,,,,,,,,,,,,,,13,,,54,48
7320,note_on,,1,0,16,,,,,,,,,,,,,,,15,,,54,48
7379,note_on,,59,0,16,,,,,,,,,,,,,,,15,,,66,0
7379,note_on,,119,0,11,,,,,,,,,,,,,,,14,,,62,0
7379,note_on,,59,0,15,,,,,,,,,,,,,,,13,,,54,0
7379,note_on,,0,0,16,,,,,,,,,,,,,,,15,,,54,0
7380,note_on,,1,0,15,,,,,,,,,,,,,,,13,,,55,48
7380,note_on,,1,0,16,,,,,,,,,,,,,,,15,,,71,48
7380,note_on,,1,0,11,,,,,,,,,,,,,,,14,,,64,63
7380,note_on,,0,0,16,,,,,,,,,,,,,,,15,,,55,48
7439,note_on,,59,0,11,,,,,,,,,,,,,,,14,,,64,0
7439,note_on,,59,0,15,,,,,,,,,,,,,,,13,,,55,0
7439,note_on,,0,0,16,,,,,,,,,,,,,,,15,,,55,0
7439,note_on,,0,0,16,,,,,,,,,,,,,,,15,,,71,0
7439,note_on,,59,0,16,,,,,,,,,,,,,,,15,,,62,0
7440,note_on,,1,0,11,,,,,,,,,,,,,,,14,,,61,62
7440,note_on,,0,0,16,,,,,,,,,,,,,,,15,,,64,48
7440,note_on,,1,0,15,,,,,,,,,,,,,,,13,,,57,48
7440,note_on,,0,0,16,,,,,,,,,,,,,,,15,,,57,48
7440,note_on,,1,0,16,,,,,,,,,,,,,,,15,,,61,48
7499,note_on,,59,0,11,,,,,,,,,,,,,,,14,,,61,0
7500,note_on,,1,0,11,,,,,,,,,,,,,,,14,,,62,62
7559,note_on,,0,0,16,,,,,,,,,,,,,,,15,,,57,0
7559,note_on,,119,0,16,,,,,,,,,,,,,,,15,,,61,0
7559,note_on,,119,0,15,,,,,,,,,,,,,,,13,,,57,0
7559,note_on,,59,0,11,,,,,,,,,,,,,,,14,,,62,0
7559,note_on,,0,0,16,,,,,,,,,,,,,,,15,,,64,0
7560,note_on,,0,0,16,,,,,,,,,,,,,,,15,,,69,48
7560,note_on,,1,0,15,,,,,,,,,,,,,,,13,,,49,48
7560,note_on,,0,0,16,,,,,,,,,,,,,,,15,,,49,48
7560,note_on,,1,0,16,,,,,,,,,,,,,,,15,,,64,48
7560,note_on,,1,0,11,,,,,,,,,,,,,,,14,,,64,64
7619,note_on,,0,0,16,,,,,,,,,,,,,,,15,,,69,0
7619,note_on,,59,0,11,,,,,,,,,,,,,,,14,,,64,0
7619,note_on,,0,0,16,,,,,,,,,,,,,,,15,,,49,0
7619,note_on,,59,0,15,,,,,,,,,,,,,,,13,,,49,0
7619,note_on,,59,0,16,,,,,,,,,,,,,,,15,,,64,0
7620,note_on,,1,0,15,,,,,,,,,,,,,,,13,,,50,48
7620,note_on,,0,0,16,,,,,,,,,,,,,,,15,,,50,48
7620,note_on,,1,0,11,,,,,,,,,,,,,,,14,,,66,65
7620,note_on,,1,0,16,,,,,,,,,,,,,,,15,,,66,48
7620,note_on,,0,0,16,,,,,,,,,,,,,,,15,,,57,48
7620,note_on,,0,0,16,,,,,,,,,,,,,,,15,,,62,48
7679,note_on,,59,0,15,,,,,,,,,,,,,,,13,,,50,0
7679,note_on,,59,0,11,,,,,,,,,,,,,,,14,,,66,0
7679,note_on,,0,0,16,,,,,,,,,,,,,,,15,,,50,0
7679,note_on,,59,0,16,,,,,,,,,,,,,,,15,,,66,0
7680,note_on,,0,0,16,,,,,,,,,,,,,,,15,,,52,48
7680,note_on,,1,0,15,,,,,,,,,,,,,,,13,,,52,48
7680,note_on,,1,0,16,,,,,,,,,,,,,,,15,,,67,48
7680,note_on,,1,0,11,,,,,,,,,,,,,,,14,,,67,63
7739,note_on,,59,0,11,,,,,,,,,,,,,,,14,,,67,0
7739,note_on,,59,0,15,,,,,,,,,,,,,,,13,,,52,0
7739,note_on,,0,0,16,,,,,,,,,,,,,,,15,,,52,0
7739,note_on,,59,0,16,,,,,,,,,,,,,,,15,,,67,0
7740,note_on,,1,0,11,,,,,,,,,,,,,,,14,,,66,62
7740,note_on,,1,0,15,,,,,,,,,,,,,,,13,,,50,48
7740,note_on,,0,0,16,,,,,,,,,,,,,,,15,,,66,48
7740,note_on,,1,0,16,,,,,,,,,,,,,,,15,,,50,48
7799,note_on,,0,0,16,,,,,,,,,,,,,,,15,,,50,0
7799,note_on,,59,0,15,,,,,,,,,,,,,,,13,,,50,0
7799,note_on,,0,0,16,,,,,,,,,,,,,,,15,,,66,0
7799,note_on,,0,0,16,,,,,,,,,,,,,,,15,,,62,0
7799,note_on,,59,0,16,,,,,,,,,,,,,,,15,,,57,0
7799,note_on,,59,0,11,,,,,,,,,,,,,,,14,,,66,0
7800,note_on,,0,0,16,,,,,,,,,,,,,,,15,,,45,48
7800,note_on,,1,0,16,,,,,,,,,,,,,,,15,,,66,48
7800,note_on,,0,0,16,,,,,,,,,,,,,,,15,,,62,48
7800,note_on,,0,0,16,,,,,,,,,,,,,,,15,,,69,48
7800,note_on,,1,0,15,,,,,,,,,,,,,,,13,,,45,48
7800,note_on,,1,0,11,,,,,,,,,,,,,,,14,,,66,61
7859,note_on,,59,0,11,,,,,,,,,,,,,,,14,,,66,0
7859,note_on,,59,0,16,,,,,,,,,,,,,,,15,,,66,0
7859,note_on,,0,0,16,,,,,,,,,,,,,,,15,,,62,0
7860,note_on,,1,0,11,,,,,,,,,,,,,,,14,,,64,68
7860,note_on,,1,0,16,,,,,,,,,,,,,,,15,,,61,48
7860,note_on,,0,0,16,,,,,,,,,,,,,,,15,,,64,48
7919,note_on,,119,0,15,,,,,,,,,,,,,,,13,,,45,0
7919,note_on,,59,0,16,,,,,,,,,,,,,,,15,,,69,0
7919,note_on,,59,0,11,,,,,,,,,,,,,,,14,,,64,0
7919,note_on,,0,0,16,,,,,,,,,,,,,,,15,,,45,0
7919,note_on,,0,0,16,,,,,,,,,,,,,,,15,,,61,0
7919,note_on,,0,0,16,,,,,,,,,,,,,,,15,,,64,0
7920,note_on,,1,0,15,,,,,,,,,,,,,,,13,,,49,48
7920,note_on,,721,0,13,,,,,,,,,,,,,,,11,,,81,48
7920,note_on,,1,0,16,,,,,,,,,,,,,,,15,,,64,48
7920,note_on,,0,0,16,,,,,,,,,,,,,,,15,,,57,48
7920,note_on,,0,0,16,,,,,,,,,,,,,,,15,,,49,48
7920,note_on,,721,0,6,,,,,,,,,,,,,,,1,,,49,48
7920,note_on,,721,0,12,,,,,,,,,,,,,,,10,,,81,48
7979,note_on,,59,0,15,,,,,,,,,,,,,,,13,,,49,0
7979,note_on,,59,0,12,,,,,,,,,,,,,,,10,,,81,0
7979,note_on,,59,0,13,,,,,,,,,,,,,,,11,,,81,0
7979,note_on,,59,0,16,,,,,,,,,,,,,,,15,,,64,0
7979,note_on,,0,0,16,,,,,,,,,,,,,,,15,,,57,0
7979,note_on,,0,0,16,,,,,,,,,,,,,,,15,,,49,0
7979,note_on,,59,0,6,,,,,,,,,,,,,,,1,,,49,0
7980,note_on,,1,0,15,,,,,,,,,,,,,,,13,,,50,48
7980,note_on,,1,0,16,,,,,,,,,,,,,,,15,,,66,48
7980,note_on,,0,0,16,,,,,,,,,,,,,,,15,,,62,48
7980,note_on,,0,0,16,,,,,,,,,,,,,,,15,,,50,48
7980,note_on,,1,0,6,,,,,,,,,,,,,,,1,,,50,48
7980,note_on,,1,0,12,,,,,,,,,,,,,,,10,,,74,48
7980,note_on,,1,0,13,,,,,,,,,,,,,,,11,,,74,48
8039,note_on,,59,0,16,,,,,,,,,,,,,,,15,,,66,0
8039,note_on,,0,0,16,,,,,,,,,,,,,,,15,,,50,0
8039,note_on,,59,0,15,,,,,,,,,,,,,,,13,,,50,0
8039,note_on,,59,0,6,,,,,,,,,,,,,,,1,,,50,0
8040,note_on,,1,0,6,,,,,,,,,,,,,,,1,,,54,48
8040,note_on,,1,0,15,,,,,,,,,,,,,,,13,,,54,48
8040,note_on,,1,0,16,,,,,,,,,,,,,,,15,,,69,48
8040,note_on,,0,0,16,,,,,,,,,,,,,,,15,,,54,48
8099,note_on,,0,0,16,,,,,,,,,,,,,,,15,,,54,0
8099,note_on,,59,0,6,,,,,,,,,,,,,,,1,,,54,0
8099,note_on,,59,0,15,,,,,,,,,,,,,,,13,,,54,0
8099,note_on,,59,0,16,,,,,,,,,,,,,,,15,,,62,0
8099,note_on,,0,0,16,,,,,,,,,,,,,,,15,,,69,0
8099,note_on,,119,0,13,,,,,,,,,,,,,,,11,,,74,0
8099,note_on,,119,0,12,,,,,,,,,,,,,,,10,,,74,0
8100,note_on,,0,0,16,,,,,,,,,,,,,,,15,,,59,48
8100,note_on,,1,0,15,,,,,,,,,,,,,,,13,,,55,48
8100,note_on,,0,0,16,,,,,,,,,,,,,,,15,,,71,48
8100,note_on,,1,0,13,,,,,,,,,,,,,,,11,,,76,48
8100,note_on,,1,0,12,,,,,,,,,,,,,,,10,,,76,48
8100,note_on,,1,0,6,,,,,,,,,,,,,,,1,,,55,48
8100,note_on,,1,0,16,,,,,,,,,,,,,,,15,,,55,48
8159,note_on,,59,0,12,,,,,,,,,,,,,,,10,,,76,0
8159,note_on,,59,0,6,,,,,,,,,,,,,,,1,,,55,0
8159,note_on,,59,0,13,,,,,,,,,,,,,,,11,,,76,0
8159,note_on,,59,0,16,,,,,,,,,,,,,,,15,,,55,0
8159,note_on,,0,0,16,,,,,,,,,,,,,,,15,,,59,0
8159,note_on,,0,0,16,,,,,,,,,,,,,,,15,,,71,0
8159,note_on,,59,0,15,,,,,,,,,,,,,,,13,,,55,0
8160,note_on,,1,0,15,,,,,,,,,,,,,,,13,,,57,48
8160,note_on,,1,0,12,,,,,,,,,,,,,,,10,,,73,48
8160,note_on,,0,0,16,,,,,,,,,,,,,,,15,,,57,48
8160,note_on,,0,0,16,,,,,,,,,,,,,,,15,,,61,48
8160,note_on,,0,0,16,,,,,,,,,,,,,,,15,,,64,48
8160,note_on,,1,0,6,,,,,,,,,,,,,,,1,,,57,48
8160,note_on,,1,0,13,,,,,,,,,,,,,,,11,,,73,48
8160,note_on,,1,0,16,,,,,,,,,,,,,,,15,,,69,48
8219,note_on,,59,0,15,,,,,,,,,,,,,,,13,,,57,0
8219,note_on,,59,0,16,,,,,,,,,,,,,,,15,,,57,0
8219,note_on,,59,0,12,,,,,,,,,,,,,,,10,,,73,0
8219,note_on,,59,0,6,,,,,,,,,,,,,,,1,,,57,0
8219,note_on,,59,0,13,,,,,,,,,,,,,,,11,,,73,0
8220,note_on,,1,0,15,,,,,,,,,,,,,,,13,,,59,48
8220,note_on,,1,0,16,,,,,,,,,,,,,,,15,,,59,48
8220,note_on,,1,0,6,,,,,,,,,,,,,,,1,,,59,48
8220,note_on,,1,0,13,,,,,,,,,,,,,,,11,,,74,48
8220,note_on,,1,0,12,,,,,,,,,,,,,,,10,,,74,48
8279,note_on,,59,0,16,,,,,,,,,,,,,,,15,,,69,0
8279,note_on,,0,0,16,,,,,,,,,,,,,,,15,,,59,0
8279,note_on,,59,0,6,,,,,,,,,,,,,,,1,,,59,0
8279,note_on,,59,0,13,,,,,,,,,,,,,,,11,,,74,0
8279,note_on,,59,0,15,,,,,,,,,,,,,,,13,,,59,0
8279,note_on,,59,0,12,,,,,,,,,,,,,,,10,,,74,0
8280,note_on,,1,0,12,,,,,,,,,,,,,,,10,,,76,48
8280,note_on,,1,0,13,,,,,,,,,,,,,,,11,,,76,48
8280,note_on,,0,0,16,,,,,,,,,,,,,,,15,,,64,48
8280,note_on,,1,0,16,,,,,,,,,,,,,,,15,,,61,48
8280,note_on,,1,0,15,,,,,,,,,,,,,,,13,,,61,48
8280,note_on,,1,0,6,,,,,,,,,,,,,,,1,,,61,48
8339,note_on,,59,0,13,,,,,,,,,,,,,,,11,,,76,0
8339,note_on,,0,0,16,,,,,,,,,,,,,,,15,,,61,0
8339,note_on,,59,0,6,,,,,,,,,,,,,,,1,,,61,0
8339,note_on,,0,0,16,,,,,,,,,,,,,,,15,,,64,0
8339,note_on,,0,0,16,,,,,,,,,,,,,,,15,,,64,0
8339,note_on,,59,0,12,,,,,,,,,,,,,,,10,,,76,0
8339,note_on,,59,0,15,,,,,,,,,,,,,,,13,,,61,0
8339,note_on,,59,0,16,,,,,,,,,,,,,,,15,,,61,0
8340,note_on,,1,0,13,,,,,,,,,,,,,,,11,,,78,48
8340,note_on,,1,0,12,,,,,,,,,,,,,,,10,,,78,48
8340,note_on,,0,0,16,,,,,,,,,,,,,,,15,,,66,48
8340,note_on,,1,0,6,,,,,,,,,,,,,,,1,,,62,48
8340,note_on,,1,0,16,,,,,,,,,,,,,,,15,,,69,48
8340,note_on,,1,0,15,,,,,,,,,,,,,,,13,,,62,48
8340,note_on,,0,0,16,,,,,,,,,,,,,,,15,,,62,48
8399,note_on,,59,0,16,,,,,,,,,,,,,,,15,,,69,0
8399,note_on,,0,0,16,,,,,,,,,,,,,,,15,,,62,0
8399,note_on,,59,0,6,,,,,,,,,,,,,,,1,,,62,0
8399,note_on,,59,0,12,,,,,,,,,,,,,,,10,,,78,0
8399,note_on,,59,0,15,,,,,,,,,,,,,,,13,,,62,0
8399,note_on,,59,0,13,,,,,,,,,,,,,,,11,,,78,0
8399,note_on,,0,0,16,,,,,,,,,,,,,,,15,,,66,0
8400,note_on,,1,0,16,,,,,,,,,,,,,,,15,,,64,48
8400,note_on,,0,0,16,,,,,,,,,,,,,,,15,,,73,48
8400,note_on,,0,0,16,,,,,,,,,,,,,,,15,,,67,48
8400,note_on,,1,0,13,,,,,,,,,,,,,,,11,,,79,48
8400,note_on,,1,0,6,,,,,,,,,,,,,,,1,,,64,48
8400,note_on,,1,0,12,,,,,,,,,,,,,,,10,,,79,48
8400,note_on,,1,0,15,,,,,,,,,,,,,,,13,,,64,48
8459,note_on,,59,0,6,,,,,,,,,,,,,,,1,,,64,0
8459,note_on,,0,0,16,,,,,,,,,,,,,,,15,,,73,0
8459,note_on,,59,0,16,,,,,,,,,,,,,,,15,,,64,0
8459,note_on,,59,0,12,,,,,,,,,,,,,,,10,,,79,0
8459,note_on,,59,0,15,,,,,,,,,,,,,,,13,,,64,0
8459,note_on,,0,0,16,,,,,,,,,,,,,,,15,,,67,0
8459,note_on,,59,0,13,,,,,,,,,,,,,,,11,,,79,0
8460,note_on,,1,0,13,,,,,,,,,,,,,,,11,,,78,48
8460,note_on,,1,0,15,,,,,,,,,,,,,,,13,,,62,48
8460,note_on,,1,0,12,,,,,,,,,,,,,,,10,,,78,48
8460,note_on,,0,0,16,,,,,,,,,,,,,,,15,,,74,48
8460,note_on,,0,0,16,,,,,,,,,,,,,,,15,,,62,48
8460,note_on,,0,0,16,,,,,,,,,,,,,,,15,,,69,48
8460,note_on,,1,0,16,,,,,,,,,,,,,,,15,,,66,48
8460,note_on,,1,0,6,,,,,,,,,,,,,,,1,,,62,48
8519,note_on,,0,0,16,,,,,,,,,,,,,,,15,,,69,0
8519,note_on,,0,0,16,,,,,,,,,,,,,,,15,,,62,0
8519,note_on,,0,0,16,,,,,,,,,,,,,,,15,,,74,0
8519,note_on,,59,0,16,,,,,,,,,,,,,,,15,,,66,0
8519,note_on,,59,0,6,,,,,,,,,,,,,,,1,,,62,0
8519,note_on,,59,0,13,,,,,,,,,,,,,,,11,,,78,0
8519,note_on,,59,0,12,,,,,,,,,,,,,,,10,,,78,0
8519,note_on,,59,0,15,,,,,,,,,,,,,,,13,,,62,0
8520,note_on,,1,0,6,,,,,,,,,,,,,,,1,,,57,48
8520,note_on,,1,0,13,,,,,,,,,,,,,,,11,,,78,48
8520,note_on,,1,0,12,,,,,,,,,,,,,,,10,,,78,48
8520,note_on,,1,0,15,,,,,,,,,,,,,,,13,,,57,48
8520,note_on,,0,0,16,,,,,,,,,,,,,,,15,,,74,48
8520,note_on,,0,0,16,,,,,,,,,,,,,,,15,,,57,48
8520,note_on,,1,0,16,,,,,,,,,,,,,,,15,,,66,48
8520,note_on,,0,0,16,,,,,,,,,,,,,,,15,,,69,48
8579,note_on,,59,0,12,,,,,,,,,,,,,,,10,,,78,0
8579,note_on,,59,0,13,,,,,,,,,,,,,,,11,,,78,0
8579,note_on,,0,0,16,,,,,,,,,,,,,,,15,,,69,0
8579,note_on,,0,0,16,,,,,,,,,,,,,,,15,,,74,0
8579,note_on,,59,0,16,,,,,,,,,,,,,,,15,,,66,0
8580,note_on,,0,0,16,,,,,,,,,,,,,,,15,,,64,48
8580,note_on,,0,0,16,,,,,,,,,,,,,,,15,,,69,48
8580,note_on,,1,0,16,,,,,,,,,,,,,,,15,,,73,48
8580,note_on,,1,0,12,,,,,,,,,,,,,,,10,,,76,48
8580,note_on,,1,0,13,,,,,,,,,,,,,,,11,,,76,48
8580,note_on,,661,0,11,,,,,,,,,,,,,,,14,,,64,60
8639,note_on,,59,0,13,,,,,,,,,,,,,,,11,,,76,0
8639,note_on,,59,0,16,,,,,,,,,,,,,,,15,,,57,0
8639,note_on,,0,0,16,,,,,,,,,,,,,,,15,,,69,0
8639,note_on,,119,0,15,,,,,,,,,,,,,,,13,,,57,0
8639,note_on,,59,0,12,,,,,,,,,,,,,,,10,,,76,0
8639,note_on,,119,0,6,,,,,,,,,,,,,,,1,,,57,0
8639,note_on,,0,0,16,,,,,,,,,,,,,,,15,,,64,0
8639,note_on,,59,0,11,,,,,,,,,,,,,,,14,,,64,0
8639,note_on,,0,0,16,,,,,,,,,,,,,,,15,,,73,0
8640,note_on,,1,0,15,,,,,,,,,,,,,,,13,,,49,48
8640,note_on,,0,0,16,,,,,,,,,,,,,,,15,,,64,48
8640,note_on,,0,0,16,,,,,,,,,,,,,,,15,,,76,48
8640,note_on,,1,0,16,,,,,,,,,,,,,,,15,,,49,48
8640,note_on,,0,0,16,,,,,,,,,,,,,,,15,,,69,48
8640,note_on,,1,0,11,,,,,,,,,,,,,,,14,,,64,62
8699,note_on,,0,0,16,,,,,,,,,,,,,,,15,,,76,0
8699,note_on,,59,0,11,,,,,,,,,,,,,,,14,,,64,0
8699,note_on,,0,0,16,,,,,,,,,,,,,,,15,,,69,0
8699,note_on,,59,0,15,,,,,,,,,,,,,,,13,,,49,0
8699,note_on,,0,0,16,,,,,,,,,,,,,,,15,,,64,0
8699,note_on,,59,0,16,,,,,,,,,,,,,,,15,,,49,0
8700,note_on,,1,0,16,,,,,,,,,,,,,,,15,,,66,48
8700,note_on,,0,0,16,,,,,,,,,,,,,,,15,,,69,48
8700,note_on,,0,0,16,,,,,,,,,,,,,,,15,,,50,48
8700,note_on,,1,0,15,,,,,,,,,,,,,,,13,,,50,48
8700,note_on,,1,0,11,,,,,,,,,,,,,,,14,,,66,63
8819,note_on,,119,0,11,,,,,,,,,,,,,,,14,,,66,0
8819,note_on,,119,0,15,,,,,,,,,,,,,,,13,,,50,0
8819,note_on,,119,0,16,,,,,,,,,,,,,,,15,,,66,0
8819,note_on,,0,0,16,,,,,,,,,,,,,,,15,,,69,0
8819,note_on,,0,0,16,,,,,,,,,,,,,,,15,,,50,0
8820,note_on,,0,0,16,,,,,,,,,,,,,,,15,,,64,48
8820,note_on,,1,0,15,,,,,,,,,,,,,,,13,,,49,48
8820,note_on,,0,0,16,,,,,,,,,,,,,,,15,,,57,48
8820,note_on,,1,0,16,,,,,,,,,,,,,,,15,,,49,48
8820,note_on,,1,0,11,,,,,,,,,,,,,,,14,,,64,61
8879,note_on,,59,0,16,,,,,,,,,,,,,,,15,,,49,0
8879,note_on,,0,0,16,,,,,,,,,,,,,,,15,,,64,0
8879,note_on,,0,0,16,,,,,,,,,,,,,,,15,,,57,0
8879,note_on,,59,0,15,,,,,,,,,,,,,,,13,,,49,0
8879,note_on,,59,0,11,,,,,,,,,,,,,,,14,,,64,0
8880,note_on,,1,0,16,,,,,,,,,,,,,,,15,,,66,48
8880,note_on,,0,0,16,,,,,,,,,,,,,,,15,,,62,48
8880,note_on,,0,0,16,,,,,,,,,,,,,,,15,,,50,48
8880,note_on,,1,0,15,,,,,,,,,,,,,,,13,,,50,48
8880,note_on,,1,0,11,,,,,,,,,,,,,,,14,,,66,67
8939,note_on,,59,0,11,,,,,,,,,,,,,,,14,,,66,0
8939,note_on,,59,0,16,,,,,,,,,,,,,,,15,,,50,0
8939,note_on,,59,0,15,,,,,,,,,,,,,,,13,,,50,0
8940,note_on,,1,0,16,,,,,,,,,,,,,,,15,,,49,48
8940,note_on,,1,0,15,,,,,,,,,,,,,,,13,,,49,48
8940,note_on,,1,0,11,,,,,,,,,,,,,,,14,,,69,67
8999,note_on,,0,0,16,,,,,,,,,,,,,,,15,,,62,0
8999,note_on,,59,0,15,,,,,,,,,,,,,,,13,,,49,0
8999,note_on,,59,0,16,,,,,,,,,,,,,,,15,,,66,0
8999,note_on,,0,0,16,,,,,,,,,,,,,,,15,,,49,0
8999,note_on,,59,0,11,,,,,,,,,,,,,,,14,,,69,0
9000,note_on,,361,0,13,,,,,,,,,,,,,,,11,,,74,48
9000,note_on,,1,0,11,,,,,,,,,,,,,,,14,,,68,66
9000,note_on,,361,0,12,,,,,,,,,,,,,,,10,,,74,48
9000,note_on,,0,0,16,,,,,,,,,,,,,,,15,,,47,48
9000,note_on,,0,0,16,,,,,,,,,,,,,,,15,,,68,48
9000,note_on,,1,0,16,,,,,,,,,,,,,,,15,,,62,48
9000,note_on,,1,0,15,,,,,,,,,,,,,,,13,,,47,48
9000,note_on,,0,0,16,,,,,,,,,,,,,,,15,,,71,48
9059,note_on,,59,0,13,,,,,,,,,,,,,,,11,,,74,0
9059,note_on,,59,0,12,,,,,,,,,,,,,,,10,,,74,0
9059,note_on,,59,0,15,,,,,,,,,,,,,,,13,,,47,0
9059,note_on,,59,0,11,,,,,,,,,,,,,,,14,,,68,0
9059,note_on,,59,0,16,,,,,,,,,,,,,,,15,,,62,0
9059,note_on,,0,0,16,,,,,,,,,,,,,,,15,,,71,0
9059,note_on,,0,0,16,,,,,,,,,,,,,,,15,,,47,0
9059,note_on,,0,0,16,,,,,,,,,,,,,,,15,,,68,0
9060,note_on,,1,0,11,,,,,,,,,,,,,,,14,,,69,63
9060,note_on,,1,0,16,,,,,,,,,,,,,,,15,,,76,48
9060,note_on,,1,0,12,,,,,,,,,,,,,,,10,,,81,48
9060,note_on,,0,0,16,,,,,,,,,,,,,,,15,,,49,48
9060,note_on,,0,0,16,,,,,,,,,,,,,,,15,,,69,48
9060,note_on,,0,0,16,,,,,,,,,,,,,,,15,,,64,48
9060,note_on,,1,0,15,,,,,,,,,,,,,,,13,,,49,48
9060,note_on,,1,0,13,,,,,,,,,,,,,,,11,,,81,48
9119,note_on,,59,0,12,,,,,,,,,,,,,,,10,,,81,0
9119,note_on,,59,0,13,,,,,,,,,,,,,,,11,,,81,0
9120,note_on,,1,0,12,,,,,,,,,,,,,,,10,,,80,48
9120,note_on,,1,0,13,,,,,,,,,,,,,,,11,,,80,48
9179,note_on,,119,0,15,,,,,,,,,,,,,,,13,,,49,0
9179,note_on,,119,0,16,,,,,,,,,,,,,,,15,,,49,0
9179,note_on,,59,0,13,,,,,,,,,,,,,,,11,,,80,0
9179,note_on,,59,0,12,,,,,,,,,,,,,,,10,,,80,0
9180,note_on,,1,0,15,,,,,,,,,,,,,,,13,,,62,48
9180,note_on,,1,0,16,,,,,,,,,,,,,,,15,,,62,48
9180,note_on,,1,0,13,,,,,,,,,,,,,,,11,,,78,48
9180,note_on,,1,0,12,,,,,,,,,,,,,,,10,,,78,48
9239,note_on,,59,0,13,,,,,,,,,,,,,,,11,,,78,0
9239,note_on,,0,0,16,,,,,,,,,,,,,,,15,,,69,0
9239,note_on,,59,0,12,,,,,,,,,,,,,,,10,,,78,0
9239,note_on,,59,0,15,,,,,,,,,,,,,,,13,,,62,0
9239,note_on,,59,0,16,,,,,,,,,,,,,,,15,,,76,0
9239,note_on,,0,0,16,,,,,,,,,,,,,,,15,,,64,0
9239,note_on,,0,0,16,,,,,,,,,,,,,,,15,,,62,0
9240,note_on,,1,0,15,,,,,,,,,,,,,,,13,,,61,48
9240,note_on,,1,0,13,,,,,,,,,,,,,,,11,,,76,48
9240,note_on,,0,0,16,,,,,,,,,,,,,,,15,,,69,48
9240,note_on,,1,0,16,,,,,,,,,,,,,,,15,,,61,48
9240,note_on,,1,0,12,,,,,,,,,,,,,,,10,,,76,48
9240,note_on,,0,0,16,,,,,,,,,,,,,,,15,,,64,48
9299,note_on,,59,0,12,,,,,,,,,,,,,,,10,,,76,0
9299,note_on,,59,0,16,,,,,,,,,,,,,,,15,,,61,0
9299,note_on,,59,0,13,,,,,,,,,,,,,,,11,,,76,0
9299,note_on,,59,0,15,,,,,,,,,,,,,,,13,,,61,0
9300,note_on,,1,0,12,,,,,,,,,,,,,,,10,,,74,48
9300,note_on,,1,0,16,,,,,,,,,,,,,,,15,,,59,48
9300,note_on,,1,0,13,,,,,,,,,,,,,,,11,,,74,48
9300,note_on,,1,0,15,,,,,,,,,,,,,,,13,,,59,48
9359,note_on,,59,0,13,,,,,,,,,,,,,,,11,,,74,0
9359,note_on,,59,0,12,,,,,,,,,,,,,,,10,,,74,0
9359,note_on,,59,0,15,,,,,,,,,,,,,,,13,,,59,0
9359,note_on,,59,0,16,,,,,,,,,,,,,,,15,,,59,0
9360,note_on,,1,0,16,,,,,,,,,,,,,,,15,,,57,48
9360,note_on,,1,0,13,,,,,,,,,,,,,,,11,,,73,48
9360,note_on,,1,0,12,,,,,,,,,,,,,,,10,,,73,48
9360,note_on,,1,0,15,,,,,,,,,,,,,,,13,,,57,48
9419,note_on,,59,0,16,,,,,,,,,,,,,,,15,,,64,0
9419,note_on,,0,0,16,,,,,,,,,,,,,,,15,,,57,0
9419,note_on,,59,0,15,,,,,,,,,,,,,,,13,,,57,0
9419,note_on,,0,0,16,,,,,,,,,,,,,,,15,,,69,0
9419,note_on,,59,0,13,,,,,,,,,,,,,,,11,,,73,0
9419,note_on,,59,0,12,,,,,,,,,,,,,,,10,,,73,0
9420,note_on,,0,0,16,,,,,,,,,,,,,,,15,,,66,48
9420,note_on,,1,0,15,,,,,,,,,,,,,,,13,,,51,48
9420,note_on,,1,0,16,,,,,,,,,,,,,,,15,,,71,48
9420,note_on,,1,0,13,,,,,,,,,,,,,,,11,,,71,48
9420,note_on,,0,0,16,,,,,,,,,,,,,,,15,,,51,48
9420,note_on,,1,0,12,,,,,,,,,,,,,,,10,,,71,48
9420,note_on,,0,0,16,,,,,,,,,,,,,,,15,,,69,48
9449,note_on,,29,0,12,,,,,,,,,,,,,,,10,,,71,0
9449,note_on,,29,0,13,,,,,,,,,,,,,,,11,,,71,0
9450,note_on,,1,0,13,,,,,,,,,,,,,,,11,,,73,48
9450,note_on,,1,0,12,,,,,,,,,,,,,,,10,,,73,48
9479,note_on,,29,0,12,,,,,,,,,,,,,,,10,,,73,0
9479,note_on,,29,0,13,,,,,,,,,,,,,,,11,,,73,0
9480,note_on,,1,0,12,,,,,,,,,,,,,,,10,,,71,48
9480,note_on,,1,0,13,,,,,,,,,,,,,,,11,,,71,48
9509,note_on,,29,0,13,,,,,,,,,,,,,,,11,,,71,0
9509,note_on,,29,0,12,,,,,,,,,,,,,,,10,,,71,0
9510,note_on,,1,0,12,,,,,,,,,,,,,,,10,,,81,48
9510,note_on,,1,0,13,,,,,,,,,,,,,,,11,,,81,48
9539,note_on,,29,0,13,,,,,,,,,,,,,,,11,,,81,0
9539,note_on,,29,0,12,,,,,,,,,,,,,,,10,,,81,0
9540,note_on,,1,0,12,,,,,,,,,,,,,,,10,,,80,48
9540,note_on,,1,0,13,,,,,,,,,,,,,,,11,,,80,48
9569,note_on,,29,0,13,,,,,,,,,,,,,,,11,,,80,0
9569,note_on,,29,0,12,,,,,,,,,,,,,,,10,,,80,0
9570,note_on,,1,0,13,,,,,,,,,,,,,,,11,,,81,48
9570,note_on,,1,0,12,,,,,,,,,,,,,,,10,,,81,48
9599,note_on,,179,0,15,,,,,,,,,,,,,,,13,,,51,0
9599,note_on,,29,0,12,,,,,,,,,,,,,,,10,,,81,0
9599,note_on,,29,0,13,,,,,,,,,,,,,,,11,,,81,0
9599,note_on,,0,0,16,,,,,,,,,,,,,,,15,,,51,0
9599,note_on,,0,0,16,,,,,,,,,,,,,,,15,,,66,0
9599,note_on,,179,0,16,,,,,,,,,,,,,,,15,,,69,0
9600,note_on,,0,0,16,,,,,,,,,,,,,,,15,,,59,48
9600,note_on,,1,0,13,,,,,,,,,,,,,,,11,,,71,48
9600,note_on,,1,0,16,,,,,,,,,,,,,,,15,,,51,48
9600,note_on,,1,0,15,,,,,,,,,,,,,,,13,,,51,48
9600,note_on,,1,0,12,,,,,,,,,,,,,,,10,,,71,48
9600,note_on,,0,0,16,,,,,,,,,,,,,,,15,,,66,48
9629,note_on,,29,0,13,,,,,,,,,,,,,,,11,,,71,0
9629,note_on,,29,0,12,,,,,,,,,,,,,,,10,,,71,0
9630,note_on,,1,0,13,,,,,,,,,,,,,,,11,,,73,48
9630,note_on,,1,0,12,,,,,,,,,,,,,,,10,,,73,48
9659,note_on,,29,0,12,,,,,,,,,,,,,,,10,,,73,0
9659,note_on,,29,0,13,,,,,,,,,,,,,,,11,,,73,0
9660,note_on,,1,0,12,,,,,,,,,,,,,,,10,,,71,48
9660,note_on,,1,0,13,,,,,,,,,,,,,,,11,,,71,48
9689,note_on,,29,0,12,,,,,,,,,,,,,,,10,,,71,0
9689,note_on,,29,0,13,,,,,,,,,,,,,,,11,,,71,0
9690,note_on,,1,0,12,,,,,,,,,,,,,,,10,,,81,48
9690,note_on,,1,0,13,,,,,,,,,,,,,,,11,,,81,48
9719,note_on,,29,0,12,,,,,,,,,,,,,,,10,,,81,0
9719,note_on,,29,0,13,,,,,,,,,,,,,,,11,,,81,0
9720,note_on,,1,0,13,,,,,,,,,,,,,,,11,,,80,48
9720,note_on,,1,0,12,,,,,,,,,,,,,,,10,,,80,48
9749,note_on,,29,0,12,,,,,,,,,,,,,,,10,,,80,0
9749,note_on,,29,0,13,,,,,,,,,,,,,,,11,,,80,0
9750,note_on,,1,0,12,,,,,,,,,,,,,,,10,,,81,48
9750,note_on,,1,0,13,,,,,,,,,,,,,,,11,,,81,48
9779,note_on,,29,0,12,,,,,,,,,,,,,,,10,,,81,0
9779,note_on,,179,0,16,,,,,,,,,,,,,,,15,,,71,0
9779,note_on,,0,0,16,,,,,,,,,,,,,,,15,,,51,0
9779,note_on,,0,0,16,,,,,,,,,,,,,,,15,,,59,0
9779,note_on,,0,0,16,,,,,,,,,,,,,,,15,,,66,0
9779,note_on,,29,0,13,,,,,,,,,,,,,,,11,,,81,0
9779,note_on,,179,0,15,,,,,,,,,,,,,,,13,,,51,0
9780,note_on,,0,0,16,,,,,,,,,,,,,,,15,,,78,48
9780,note_on,,1,0,12,,,,,,,,,,,,,,,10,,,71,48
9780,note_on,,1,0,15,,,,,,,,,,,,,,,13,,,51,48
9780,note_on,,1,0,13,,,,,,,,,,,,,,,11,,,71,48
9780,note_on,,1,0,16,,,,,,,,,,,,,,,15,,,51,48
9780,note_on,,0,0,16,,,,,,,,,,,,,,,15,,,71,48
9780,note_on,,0,0,16,,,,,,,,,,,,,,,15,,,69,48
9839,note_on,,779,0,11,,,,,,,,,,,,,,,14,,,69,0
9840,note_on,,1,0,11,,,,,,,,,,,,,,,14,,,68,66
9899,note_on,,59,0,11,,,,,,,,,,,,,,,14,,,68,0
9899,note_on,,119,0,12,,,,,,,,,,,,,,,10,,,71,0
9899,note_on,,119,0,13,,,,,,,,,,,,,,,11,,,71,0
9900,note_on,,1,0,11,,,,,,,,,,,,,,,14,,,66,61
9959,note_on,,179,0,16,,,,,,,,,,,,,,,15,,,51,0
9959,note_on,,0,0,16,,,,,,,,,,,,,,,15,,,71,0
9959,note_on,,179,0,15,,,,,,,,,,,,,,,13,,,51,0
9959,note_on,,0,0,16,,,,,,,,,,,,,,,15,,,78,0
9959,note_on,,0,0,16,,,,,,,,,,,,,,,15,,,69,0
9959,note_on,,59,0,11,,,,,,,,,,,,,,,14,,,66,0
9960,note_on,,0,0,16,,,,,,,,,,,,,,,15,,,52,48
9960,note_on,,1,0,11,,,,,,,,,,,,,,,14,,,68,63
9960,note_on,,0,0,16,,,,,,,,,,,,,,,15,,,71,48
9960,note_on,,1,0,16,,,,,,,,,,,,,,,15,,,64,48
9960,note_on,,1,0,15,,,,,,,,,,,,,,,13,,,52,48
9960,note_on,,0,0,16,,,,,,,,,,,,,,,15,,,68,48
9989,note_on,,29,0,11,,,,,,,,,,,,,,,14,,,68,0
9990,note_on,,1,0,11,,,,,,,,,,,,,,,14,,,66,60
10019,note_on,,29,0,11,,,,,,,,,,,,,,,14,,,66,0
10020,note_on,,1,0,11,,,,,,,,,,,,,,,14,,,64,63
10050,note_on,,151,0,12,,,,,,,,,,,,,,,10,,,76,48
10050,note_on,,151,0,13,,,,,,,,,,,,,,,11,,,76,48
10079,note_on,,0,0,16,,,,,,,,,,,,,,,15,,,68,0
10079,note_on,,0,0,16,,,,,,,,,,,,,,,15,,,71,0
10079,note_on,,0,0,16,,,,,,,,,,,,,,,15,,,52,0
10079,note_on,,29,0,13,,,,,,,,,,,,,,,11,,,76,0
10079,note_on,,59,0,11,,,,,,,,,,,,,,,14,,,64,0
10079,note_on,,29,0,12,,,,,,,,,,,,,,,10,,,76,0
10079,note_on,,119,0,16,,,,,,,,,,,,,,,15,,,64,0
10079,note_on,,119,0,15,,,,,,,,,,,,,,,13,,,52,0
10080,note_on,,1,0,15,,,,,,,,,,,,,,,13,,,61,48
10080,note_on,,1,0,12,,,,,,,,,,,,,,,10,,,74,48
10080,note_on,,0,0,16,,,,,,,,,,,,,,,15,,,64,48
10080,note_on,,0,0,16,,,,,,,,,,,,,,,15,,,69,48
10080,note_on,,0,0,16,,,,,,,,,,,,,,,15,,,73,48
10080,note_on,,1,0,16,,,,,,,,,,,,,,,15,,,61,48
10080,note_on,,1441,0,6,,,,,,,,,,,,,,,1,,,61,48
10080,note_on,,1,0,13,,,,,,,,,,,,,,,11,,,74,48
10109,note_on,,29,0,12,,,,,,,,,,,,,,,10,,,74,0
10109,note_on,,29,0,13,,,,,,,,,,,,,,,11,,,74,0
10110,note_on,,1,0,12,,,,,,,,,,,,,,,10,,,76,48
10110,note_on,,1,0,13,,,,,,,,,,,,,,,11,,,76,48
10139,note_on,,0,0,16,,,,,,,,,,,,,,,15,,,69,0
10139,note_on,,29,0,12,,,,,,,,,,,,,,,10,,,76,0
10139,note_on,,29,0,13,,,,,,,,,,,,,,,11,,,76,0
10139,note_on,,59,0,6,,,,,,,,,,,,,,,1,,,61,0
10139,note_on,,59,0,16,,,,,,,,,,,,,,,15,,,61,0
10139,note_on,,0,0,16,,,,,,,,,,,,,,,15,,,73,0
10139,note_on,,59,0,15,,,,,,,,,,,,,,,13,,,61,0
10139,note_on,,0,0,16,,,,,,,,,,,,,,,15,,,64,0
10140,note_on,,0,0,16,,,,,,,,,,,,,,,15,,,62,48
10140,note_on,,1,0,13,,,,,,,,,,,,,,,11,,,66,48
10140,note_on,,0,0,16,,,,,,,,,,,,,,,15,,,69,48
10140,note_on,,1,0,6,,,,,,,,,,,,,,,1,,,62,48
10140,note_on,,1,0,16,,,,,,,,,,,,,,,15,,,66,48
10140,note_on,,1,0,12,,,,,,,,,,,,,,,10,,,66,48
10140,note_on,,1,0,15,,,,,,,,,,,,,,,13,,,62,48
10169,note_on,,29,0,13,,,,,,,,,,,,,,,11,,,66,0
10169,note_on,,29,0,12,,,,,,,,,,,,,,,10,,,66,0
10170,note_on,,1,0,13,,,,,,,,,,,,,,,11,,,68,48
10170,note_on,,1,0,12,,,,,,,,,,,,,,,10,,,68,48
10199,note_on,,29,0,13,,,,,,,,,,,,,,,11,,,68,0
10199,note_on,,29,0,12,,,,,,,,,,,,,,,10,,,68,0
10200,note_on,,1,0,13,,,,,,,,,,,,,,,11,,,66,48
10200,note_on,,1,0,12,,,,,,,,,,,,,,,10,,,66,48
10229,note_on,,29,0,13,,,,,,,,,,,,,,,11,,,66,0
10229,note_on,,29,0,12,,,,,,,,,,,,,,,10,,,66,0
10230,note_on,,1,0,13,,,,,,,,,,,,,,,11,,,74,48
10230,note_on,,1,0,12,,,,,,,,,,,,,,,10,,,74,48
10259,note_on,,29,0,13,,,,,,,,,,,,,,,11,,,74,0
10259,note_on,,29,0,12,,,,,,,,,,,,,,,10,,,74,0
10259,note_on,,119,0,16,,,,,,,,,,,,,,,15,,,62,0
10259,note_on,,119,0,6,,,,,,,,,,,,,,,1,,,62,0
10259,note_on,,119,0,15,,,,,,,,,,,,,,,13,,,62,0
10260,note_on,,1,0,12,,,,,,,,,,,,,,,10,,,73,48
10260,note_on,,1,0,13,,,,,,,,,,,,,,,11,,,73,48
10260,note_on,,1,0,16,,,,,,,,,,,,,,,15,,,59,48
10260,note_on,,1,0,6,,,,,,,,,,,,,,,1,,,59,48
10260,note_on,,1,0,15,,,,,,,,,,,,,,,13,,,59,48
10289,note_on,,29,0,12,,,,,,,,,,,,,,,10,,,73,0
10289,note_on,,29,0,13,,,,,,,,,,,,,,,11,,,73,0
10290,note_on,,1,0,12,,,,,,,,,,,,,,,10,,,74,48
10290,note_on,,1,0,13,,,,,,,,,,,,,,,11,,,74,48
10319,note_on,,29,0,13,,,,,,,,,,,,,,,11,,,74,0
10319,note_on,,0,0,16,,,,,,,,,,,,,,,15,,,59,0
10319,note_on,,0,0,16,,,,,,,,,,,,,,,15,,,69,0
10319,note_on,,59,0,16,,,,,,,,,,,,,,,15,,,66,0
10319,note_on,,29,0,12,,,,,,,,,,,,,,,10,,,74,0
10319,note_on,,59,0,15,,,,,,,,,,,,,,,13,,,59,0
10319,note_on,,59,0,6,,,,,,,,,,,,,,,1,,,59,0
10320,note_on,,1,0,15,,,,,,,,,,,,,,,13,,,61,48
10320,note_on,,1,0,13,,,,,,,,,,,,,,,11,,,64,48
10320,note_on,,1,0,6,,,,,,,,,,,,,,,1,,,61,48
10320,note_on,,1,0,16,,,,,,,,,,,,,,,15,,,61,48
10320,note_on,,0,0,16,,,,,,,,,,,,,,,15,,,76,48
10320,note_on,,1,0,12,,,,,,,,,,,,,,,10,,,64,48
10320,note_on,,0,0,16,,,,,,,,,,,,,,,15,,,81,48
10320,note_on,,0,0,16,,,,,,,,,,,,,,,15,,,69,48
10380,note_on,,301,0,11,,,,,,,,,,,,,,,14,,,64,62
10439,note_on,,119,0,16,,,,,,,,,,,,,,,15,,,61,0
10439,note_on,,119,0,15,,,,,,,,,,,,,,,13,,,61,0
10439,note_on,,59,0,11,,,,,,,,,,,,,,,14,,,64,0
10439,note_on,,119,0,6,,,,,,,,,,,,,,,1,,,61,0
10439,note_on,,119,0,13,,,,,,,,,,,,,,,11,,,64,0
10439,note_on,,119,0,12,,,,,,,,,,,,,,,10,,,64,0
10439,note_on,,0,0,16,,,,,,,,,,,,,,,15,,,76,0
10439,note_on,,0,0,16,,,,,,,,,,,,,,,15,,,81,0
10440,note_on,,1,0,16,,,,,,,,,,,,,,,15,,,73,48
10440,note_on,,1,0,11,,,,,,,,,,,,,,,14,,,64,63
10440,note_on,,0,0,16,,,,,,,,,,,,,,,15,,,76,48
10440,note_on,,1,0,15,,,,,,,,,,,,,,,13,,,57,48
10440,note_on,,0,0,16,,,,,,,,,,,,,,,15,,,57,48
10499,note_on,,59,0,11,,,,,,,,,,,,,,,14,,,64,0
10499,note_on,,59,0,15,,,,,,,,,,,,,,,13,,,57,0
10499,note_on,,59,0,16,,,,,,,,,,,,,,,15,,,69,0
10499,note_on,,0,0,16,,,,,,,,,,,,,,,15,,,57,0
10499,note_on,,0,0,16,,,,,,,,,,,,,,,15,,,76,0
10499,note_on,,0,0,16,,,,,,,,,,,,,,,15,,,73,0
10500,note_on,,0,0,16,,,,,,,,,,,,,,,15,,,50,48
10500,note_on,,0,0,16,,,,,,,,,,,,,,,15,,,78,48
10500,note_on,,1,0,16,,,,,,,,,,,,,,,15,,,74,48
10500,note_on,,1,0,15,,,,,,,,,,,,,,,13,,,50,48
10500,note_on,,1,0,11,,,,,,,,,,,,,,,14,,,66,59
10500,note_on,,0,0,16,,,,,,,,,,,,,,,15,,,66,48
10619,note_on,,0,0,16,,,,,,,,,,,,,,,15,,,50,0
10619,note_on,,119,0,16,,,,,,,,,,,,,,,15,,,66,0
10619,note_on,,119,0,11,,,,,,,,,,,,,,,14,,,66,0
10619,note_on,,119,0,15,,,,,,,,,,,,,,,13,,,50,0
10620,note_on,,0,0,16,,,,,,,,,,,,,,,15,,,68,48
10620,note_on,,1,0,16,,,,,,,,,,,,,,,15,,,59,48
10620,note_on,,1,0,11,,,,,,,,,,,,,,,14,,,62,63
10620,note_on,,1,0,15,,,,,,,,,,,,,,,13,,,59,48
10679,note_on,,0,0,16,,,,,,,,,,,,,,,15,,,68,0
10679,note_on,,59,0,16,,,,,,,,,,,,,,,15,,,74,0
10679,note_on,,59,0,15,,,,,,,,,,,,,,,13,,,59,0
10679,note_on,,0,0,16,,,,,,,,,,,,,,,15,,,59,0
10679,note_on,,59,0,11,,,,,,,,,,,,,,,14,,,62,0
10679,note_on,,0,0,16,,,,,,,,,,,,,,,15,,,78,0
10680,note_on,,1,0,16,,,,,,,,,,,,,,,15,,,69,48
10680,note_on,,0,0,16,,,,,,,,,,,,,,,15,,,76,48
10680,note_on,,1,0,15,,,,,,,,,,,,,,,13,,,49,48
10680,note_on,,1,0,11,,,,,,,,,,,,,,,14,,,64,62
10680,note_on,,0,0,16,,,,,,,,,,,,,,,15,,,49,48
10709,note_on,,29,0,11,,,,,,,,,,,,,,,14,,,64,0
10710,note_on,,1,0,11,,,,,,,,,,,,,,,14,,,62,62
10739,note_on,,0,0,16,,,,,,,,,,,,,,,15,,,49,0
10739,note_on,,59,0,15,,,,,,,,,,,,,,,13,,,49,0
10739,note_on,,29,0,11,,,,,,,,,,,,,,,14,,,62,0
10739,note_on,,59,0,16,,,,,,,,,,,,,,,15,,,69,0
10740,note_on,,0,0,16,,,,,,,,,,,,,,,15,,,57,48
10740,note_on,,1,0,15,,,,,,,,,,,,,,,13,,,57,48
10740,note_on,,1,0,16,,,,,,,,,,,,,,,15,,,73,48
10740,note_on,,1,0,11,,,,,,,,,,,,,,,14,,,61,59
10799,note_on,,59,0,11,,,,,,,,,,,,,,,14,,,61,0
10799,note_on,,59,0,16,,,,,,,,,,,,,,,15,,,76,0
10799,note_on,,0,0,16,,,,,,,,,,,,,,,15,,,57,0
10799,note_on,,59,0,15,,,,,,,,,,,,,,,13,,,57,0
10799,note_on,,0,0,16,,,,,,,,,,,,,,,15,,,73,0
10800,note_on,,1,0,15,,,,,,,,,,,,,,,13,,,49,48
10800,note_on,,1,0,16,,,,,,,,,,,,,,,15,,,69,48
10800,note_on,,0,0,16,,,,,,,,,,,,,,,15,,,64,48
10800,note_on,,0,0,16,,,,,,,,,,,,,,,15,,,49,48
10800,note_on,,1,0,11,,,,,,,,,,,,,,,14,,,64,64
10859,note_on,,0,0,16,,,,,,,,,,,,,,,15,,,49,0
10859,note_on,,59,0,16,,,,,,,,,,,,,,,15,,,69,0
10859,note_on,,0,0,16,,,,,,,,,,,,,,,15,,,64,0
10859,note_on,,59,0,11,,,,,,,,,,,,,,,14,,,64,0
10859,note_on,,59,0,15,,,,,,,,,,,,,,,13,,,49,0
10860,note_on,,0,0,16,,,,,,,,,,,,,,,15,,,50,48
10860,note_on,,1,0,16,,,,,,,,,,,,,,,15,,,66,48
10860,note_on,,1,0,15,,,,,,,,,,,,,,,13,,,50,48
10860,note_on,,0,0,16,,,,,,,,,,,,,,,15,,,62,48
10860,note_on,,1,0,11,,,,,,,,,,,,,,,14,,,66,67
10889,note_on,,29,0,11,,,,,,,,,,,,,,,14,,,66,0
10890,note_on,,1,0,11,,,,,,,,,,,,,,,14,,,64,66
10919,note_on,,59,0,16,,,,,,,,,,,,,,,15,,,50,0
10919,note_on,,29,0,11,,,,,,,,,,,,,,,14,,,64,0
10919,note_on,,59,0,15,,,,,,,,,,,,,,,13,,,50,0
10920,note_on,,1,0,16,,,,,,,,,,,,,,,15,,,59,48
10920,note_on,,1,0,15,,,,,,,,,,,,,,,13,,,59,48
10920,note_on,,1,0,11,,,,,,,,,,,,,,,14,,,62,65
10979,note_on,,59,0,11,,,,,,,,,,,,,,,14,,,62,0
10979,note_on,,59,0,16,,,,,,,,,,,,,,,15,,,66,0
10979,note_on,,59,0,15,,,,,,,,,,,,,,,13,,,59,0
10979,note_on,,0,0,16,,,,,,,,,,,,,,,15,,,59,0
10980,note_on,,0,0,16,,,,,,,,,,,,,,,15,,,71,48
10980,note_on,,1,0,15,,,,,,,,,,,,,,,13,,,50,48
10980,note_on,,1,0,11,,,,,,,,,,,,,,,14,,,66,64
10980,note_on,,1,0,16,,,,,,,,,,,,,,,15,,,50,48
11039,note_on,,59,0,16,,,,,,,,,,,,,,,15,,,62,0
11039,note_on,,0,0,16,,,,,,,,,,,,,,,15,,,50,0
11039,note_on,,0,0,16,,,,,,,,,,,,,,,15,,,71,0
11039,note_on,,59,0,15,,,,,,,,,,,,,,,13,,,50,0
11039,note_on,,59,0,11,,,,,,,,,,,,,,,14,,,66,0
11040,note_on,,0,0,16,,,,,,,,,,,,,,,15,,,69,48
11040,note_on,,0,0,16,,,,,,,,,,,,,,,15,,,73,48
11040,note_on,,0,0,16,,,,,,,,,,,,,,,15,,,49,48
11040,note_on,,1,0,16,,,,,,,,,,,,,,,15,,,64,48
11040,note_on,,1,0,11,,,,,,,,,,,,,,,14,,,64,65
11040,note_on,,1,0,15,,,,,,,,,,,,,,,13,,,49,48
11069,note_on,,29,0,11,,,,,,,,,,,,,,,14,,,64,0
11070,note_on,,1,0,11,,,,,,,,,,,,,,,14,,,62,68
11099,note_on,,59,0,16,,,,,,,,,,,,,,,15,,,49,0
11099,note_on,,59,0,15,,,,,,,,,,,,,,,13,,,49,0
11099,note_on,,29,0,11,,,,,,,,,,,,,,,14,,,62,0
11100,note_on,,1,0,16,,,,,,,,,,,,,,,15,,,57,48
11100,note_on,,1,0,15,,,,,,,,,,,,,,,13,,,57,48
11100,note_on,,1,0,11,,,,,,,,,,,,,,,14,,,61,63
11159,note_on,,59,0,16,,,,,,,,,,,,,,,15,,,57,0
11159,note_on,,59,0,15,,,,,,,,,,,,,,,13,,,57,0
11159,note_on,,59,0,11,,,,,,,,,,,,,,,14,,,61,0
11160,note_on,,1,0,11,,,,,,,,,,,,,,,14,,,64,68
11160,note_on,,1,0,15,,,,,,,,,,,,,,,13,,,49,48
11160,note_on,,1,0,16,,,,,,,,,,,,,,,15,,,49,48
11219,note_on,,59,0,15,,,,,,,,,,,,,,,13,,,49,0
11219,note_on,,59,0,16,,,,,,,,,,,,,,,15,,,64,0
11219,note_on,,0,0,16,,,,,,,,,,,,,,,15,,,69,0
11219,note_on,,0,0,16,,,,,,,,,,,,,,,15,,,73,0
11219,note_on,,0,0,16,,,,,,,,,,,,,,,15,,,49,0
11219,note_on,,59,0,11,,,,,,,,,,,,,,,14,,,64,0
11220,note_on,,1,0,11,,,,,,,,,,,,,,,14,,,66,65
11220,note_on,,0,0,16,,,,,,,,,,,,,,,15,,,69,48
11220,note_on,,1,0,15,,,,,,,,,,,,,,,13,,,50,48
11220,note_on,,0,0,16,,,,,,,,,,,,,,,15,,,66,48
11220,note_on,,0,0,16,,,,,,,,,,,,,,,15,,,50,48
11220,note_on,,1,0,16,,,,,,,,,,,,,,,15,,,62,48
11249,note_on,,29,0,11,,,,,,,,,,,,,,,14,,,66,0
11250,note_on,,1,0,11,,,,,,,,,,,,,,,14,,,64,65
11279,note_on,,29,0,11,,,,,,,,,,,,,,,14,,,64,0
11279,note_on,,59,0,15,,,,,,,,,,,,,,,13,,,50,0
11279,note_on,,59,0,16,,,,,,,,,,,,,,,15,,,50,0
11280,note_on,,1,0,15,,,,,,,,,,,,,,,13,,,54,48
11280,note_on,,1,0,16,,,,,,,,,,,,,,,15,,,54,48
11280,note_on,,1,0,11,,,,,,,,,,,,,,,14,,,62,66
11339,note_on,,59,0,11,,,,,,,,,,,,,,,14,,,62,0
11339,note_on,,59,0,16,,,,,,,,,,,,,,,15,,,54,0
11339,note_on,,59,0,15,,,,,,,,,,,,,,,13,,,54,0
11340,note_on,,1,0,11,,,,,,,,,,,,,,,14,,,66,68
11340,note_on,,1,0,15,,,,,,,,,,,,,,,13,,,50,48
11340,note_on,,1,0,16,,,,,,,,,,,,,,,15,,,50,48
11399,note_on,,0,0,16,,,,,,,,,,,,,,,15,,,69,0
11399,note_on,,59,0,16,,,,,,,,,,,,,,,15,,,62,0
11399,note_on,,0,0,16,,,,,,,,,,,,,,,15,,,66,0
11399,note_on,,59,0,15,,,,,,,,,,,,,,,13,,,50,0
11399,note_on,,59,0,11,,,,,,,,,,,,,,,14,,,66,0
11399,note_on,,0,0,16,,,,,,,,,,,,,,,15,,,50,0
11400,note_on,,0,0,16,,,,,,,,,,,,,,,15,,,68,48
11400,note_on,,0,0,16,,,,,,,,,,,,,,,15,,,47,48
11400,note_on,,0,0,16,,,,,,,,,,,,,,,15,,,74,48
11400,note_on,,1,0,16,,,,,,,,,,,,,,,15,,,62,48
11400,note_on,,1,0,15,,,,,,,,,,,,,,,13,,,47,48
11400,note_on,,1,0,11,,,,,,,,,,,,,,,14,,,68,64
11429,note_on,,29,0,11,,,,,,,,,,,,,,,14,,,68,0
11430,note_on,,1,0,11,,,,,,,,,,,,,,,14,,,66,62
11459,note_on,,59,0,15,,,,,,,,,,,,,,,13,,,47,0
11459,note_on,,29,0,11,,,,,,,,,,,,,,,14,,,66,0
11459,note_on,,59,0,16,,,,,,,,,,,,,,,15,,,47,0
11460,note_on,,1,0,15,,,,,,,,,,,,,,,13,,,52,48
11460,note_on,,1,0,16,,,,,,,,,,,,,,,15,,,52,48
11460,note_on,,1,0,11,,,,,,,,,,,,,,,14,,,64,62
11519,note_on,,0,0,16,,,,,,,,,,,,,,,15,,,52,0
11519,note_on,,0,0,16,,,,,,,,,,,,,,,15,,,68,0
11519,note_on,,0,0,16,,,,,,,,,,,,,,,15,,,74,0
11519,note_on,,59,0,15,,,,,,,,,,,,,,,13,,,52,0
11519,note_on,,59,0,11,,,,,,,,,,,,,,,14,,,64,0
11519,note_on,,59,0,16,,,,,,,,,,,,,,,15,,,62,0
11520,note_on,,1081,0,13,,,,,,,,,,,,,,,11,,,76,48
11520,note_on,,0,0,16,,,,,,,,,,,,,,,15,,,64,48
11520,note_on,,0,0,16,,,,,,,,,,,,,,,15,,,68,48
11520,note_on,,0,0,16,,,,,,,,,,,,,,,15,,,71,48
11520,note_on,,1,0,16,,,,,,,,,,,,,,,15,,,50,48
11520,note_on,,1081,0,12,,,,,,,,,,,,,,,10,,,76,48
11520,note_on,,1,0,15,,,,,,,,,,,,,,,13,,,50,48
11520,note_on,,1,0,11,,,,,,,,,,,,,,,14,,,68,66
11579,note_on,,59,0,16,,,,,,,,,,,,,,,15,,,50,0
11579,note_on,,59,0,13,,,,,,,,,,,,,,,11,,,76,0
11579,note_on,,59,0,11,,,,,,,,,,,,,,,14,,,68,0
11579,note_on,,59,0,12,,,,,,,,,,,,,,,10,,,76,0
11579,note_on,,0,0,16,,,,,,,,,,,,,,,15,,,68,0
11579,note_on,,0,0,16,,,,,,,,,,,,,,,15,,,64,0
11579,note_on,,59,0,15,,,,,,,,,,,,,,,13,,,50,0
11579,note_on,,0,0,16,,,,,,,,,,,,,,,15,,,71,0
11580,note_on,,1,0,16,,,,,,,,,,,,,,,15,,,69,48
11580,note_on,,1,0,12,,,,,,,,,,,,,,,10,,,81,48
11580,note_on,,1,0,13,,,,,,,,,,,,,,,11,,,81,48
11580,note_on,,1,0,11,,,,,,,,,,,,,,,14,,,69,60
11580,note_on,,1,0,15,,,,,,,,,,,,,,,13,,,49,48
11580,note_on,,0,0,16,,,,,,,,,,,,,,,15,,,76,48
11580,note_on,,0,0,16,,,,,,,,,,,,,,,15,,,64,48
11580,note_on,,0,0,16,,,,,,,,,,,,,,,15,,,49,48
11639,note_on,,59,0,12,,,,,,,,,,,,,,,10,,,81,0
11639,note_on,,59,0,13,,,,,,,,,,,,,,,11,,,81,0
11640,note_on,,1,0,13,,,,,,,,,,,,,,,11,,,80,48
11640,note_on,,1,0,12,,,,,,,,,,,,,,,10,,,80,48
11699,note_on,,59,0,13,,,,,,,,,,,,,,,11,,,80,0
11699,note_on,,119,0,16,,,,,,,,,,,,,,,15,,,49,0
11699,note_on,,119,0,15,,,,,,,,,,,,,,,13,,,49,0
11699,note_on,,59,0,12,,,,,,,,,,,,,,,10,,,80,0
11700,note_on,,1,0,15,,,,,,,,,,,,,,,13,,,62,48
11700,note_on,,1,0,12,,,,,,,,,,,,,,,10,,,78,48
11700,note_on,,1,0,16,,,,,,,,,,,,,,,15,,,62,48
11700,note_on,,1,0,13,,,,,,,,,,,,,,,11,,,78,48
11759,note_on,,0,0,16,,,,,,,,,,,,,,,15,,,64,0
11759,note_on,,0,0,16,,,,,,,,,,,,,,,15,,,76,0
11759,note_on,,59,0,16,,,,,,,,,,,,,,,15,,,69,0
11759,note_on,,0,0,16,,,,,,,,,,,,,,,15,,,62,0
11759,note_on,,59,0,15,,,,,,,,,,,,,,,13,,,62,0
11759,note_on,,59,0,12,,,,,,,,,,,,,,,10,,,78,0
11759,note_on,,59,0,13,,,,,,,,,,,,,,,11,,,78,0
11760,note_on,,0,0,16,,,,,,,,,,,,,,,15,,,64,48
11760,note_on,,1,0,15,,,,,,,,,,,,,,,13,,,61,48
11760,note_on,,1,0,16,,,,,,,,,,,,,,,15,,,61,48
11760,note_on,,1,0,13,,,,,,,,,,,,,,,11,,,76,48
11760,note_on,,0,0,16,,,,,,,,,,,,,,,15,,,69,48
11760,note_on,,1,0,12,,,,,,,,,,,,,,,10,,,76,48
11819,note_on,,59,0,16,,,,,,,,,,,,,,,15,,,61,0
11819,note_on,,59,0,13,,,,,,,,,,,,,,,11,,,76,0
11819,note_on,,59,0,15,,,,,,,,,,,,,,,13,,,61,0
11819,note_on,,59,0,12,,,,,,,,,,,,,,,10,,,76,0
11820,note_on,,1,0,16,,,,,,,,,,,,,,,15,,,59,48
11820,note_on,,1,0,13,,,,,,,,,,,,,,,11,,,74,48
11820,note_on,,1,0,12,,,,,,,,,,,,,,,10,,,74,48
11820,note_on,,1,0,15,,,,,,,,,,,,,,,13,,,59,48
11879,note_on,,59,0,16,,,,,,,,,,,,,,,15,,,59,0
11879,note_on,,59,0,12,,,,,,,,,,,,,,,10,,,74,0
11879,note_on,,59,0,13,,,,,,,,,,,,,,,11,,,74,0
11879,note_on,,59,0,15,,,,,,,,,,,,,,,13,,,59,0
11880,note_on,,1,0,16,,,,,,,,,,,,,,,15,,,57,48
11880,note_on,,1,0,13,,,,,,,,,,,,,,,11,,,73,48
11880,note_on,,1,0,15,,,,,,,,,,,,,,,13,,,57,48
11880,note_on,,1,0,12,,,,,,,,,,,,,,,10,,,73,48
11939,note_on,,59,0,12,,,,,,,,,,,,,,,10,,,73,0
11939,note_on,,0,0,16,,,,,,,,,,,,,,,15,,,69,0
11939,note_on,,59,0,15,,,,,,,,,,,,,,,13,,,57,0
11939,note_on,,59,0,13,,,,,,,,,,,,,,,11,,,73,0
11939,note_on,,0,0,16,,,,,,,,,,,,,,,15,,,57,0
11939,note_on,,59,0,16,,,,,,,,,,,,,,,15,,,64,0
11940,note_on,,1,0,12,,,,,,,,,,,,,,,10,,,59,48
11940,note_on,,0,0,16,,,,,,,,,,,,,,,15,,,51,48
11940,note_on,,0,0,16,,,,,,,,,,,,,,,15,,,69,48
11940,note_on,,0,0,16,,,,,,,,,,,,,,,15,,,71,48
11940,note_on,,1,0,15,,,,,,,,,,,,,,,13,,,51,48
11940,note_on,,1,0,13,,,,,,,,,,,,,,,11,,,59,48
11940,note_on,,1,0,16,,,,,,,,,,,,,,,15,,,78,48
11999,note_on,,419,0,11,,,,,,,,,,,,,,,14,,,69,0
12000,note_on,,1,0,11,,,,,,,,,,,,,,,14,,,68,61
12059,note_on,,59,0,11,,,,,,,,,,,,,,,14,,,68,0
12060,note_on,,1,0,11,,,,,,,,,,,,,,,14,,,66,59
12119,note_on,,0,0,16,,,,,,,,,,,,,,,15,,,71,0
12119,note_on,,0,0,16,,,,,,,,,,,,,,,15,,,69,0
12119,note_on,,0,0,16,,,,,,,,,,,,,,,15,,,51,0
12119,note_on,,59,0,11,,,,,,,,,,,,,,,14,,,66,0
12119,note_on,,179,0,15,,,,,,,,,,,,,,,13,,,51,0
12119,note_on,,179,0,16,,,,,,,,,,,,,,,15,,,78,0
12120,note_on,,0,0,16,,,,,,,,,,,,,,,15,,,52,48
12120,note_on,,1,0,15,,,,,,,,,,,,,,,13,,,52,48
12120,note_on,,0,0,16,,,,,,,,,,,,,,,15,,,71,48
12120,note_on,,0,0,16,,,,,,,,,,,,,,,15,,,64,48
12120,note_on,,1,0,11,,,,,,,,,,,,,,,14,,,68,62
12120,note_on,,1,0,16,,,,,,,,,,,,,,,15,,,68,48
12179,note_on,,59,0,11,,,,,,,,,,,,,,,14,,,68,0
12180,note_on,,1,0,11,,,,,,,,,,,,,,,14,,,64,62
12239,note_on,,0,0,16,,,,,,,,,,,,,,,15,,,52,0
12239,note_on,,299,0,12,,,,,,,,,,,,,,,10,,,59,0
12239,note_on,,59,0,11,,,,,,,,,,,,,,,14,,,64,0
12239,note_on,,119,0,15,,,,,,,,,,,,,,,13,,,52,0
12239,note_on,,299,0,13,,,,,,,,,,,,,,,11,,,59,0
12239,note_on,,0,0,16,,,,,,,,,,,,,,,15,,,64,0
12239,note_on,,119,0,16,,,,,,,,,,,,,,,15,,,68,0
12239,note_on,,0,0,16,,,,,,,,,,,,,,,15,,,71,0
12240,note_on,,0,0,16,,,,,,,,,,,,,,,15,,,54,48
12240,note_on,,0,0,16,,,,,,,,,,,,,,,15,,,69,48
12240,note_on,,1,0,12,,,,,,,,,,,,,,,10,,,85,48
12240,note_on,,1,0,11,,,,,,,,,,,,,,,14,,,69,63
12240,note_on,,0,0,16,,,,,,,,,,,,,,,15,,,61,48
12240,note_on,,1,0,15,,,,,,,,,,,,,,,13,,,54,48
12240,note_on,,1,0,16,,,,,,,,,,,,,,,15,,,66,48
12240,note_on,,1,0,13,,,,,,,,,,,,,,,11,,,85,48
12299,note_on,,59,0,12,,,,,,,,,,,,,,,10,,,85,0
12299,note_on,,0,0,16,,,,,,,,,,,,,,,15,,,69,0
12299,note_on,,0,0,16,,,,,,,,,,,,,,,15,,,61,0
12299,note_on,,59,0,16,,,,,,,,,,,,,,,15,,,66,0
12299,note_on,,59,0,15,,,,,,,,,,,,,,,13,,,54,0
12299,note_on,,59,0,11,,,,,,,,,,,,,,,14,,,69,0
12299,note_on,,0,0,16,,,,,,,,,,,,,,,15,,,54,0
12299,note_on,,59,0,13,,,,,,,,,,,,,,,11,,,85,0
12300,note_on,,1,0,12,,,,,,,,,,,,,,,10,,,86,48
12300,note_on,,1,0,11,,,,,,,,,,,,,,,14,,,66,59
12300,note_on,,1,0,16,,,,,,,,,,,,,,,15,,,66,48
12300,note_on,,0,0,16,,,,,,,,,,,,,,,15,,,69,48
12300,note_on,,0,0,16,,,,,,,,,,,,,,,15,,,71,48
12300,note_on,,1,0,13,,,,,,,,,,,,,,,11,,,86,48
12300,note_on,,0,0,16,,,,,,,,,,,,,,,15,,,50,48
12300,note_on,,1,0,15,,,,,,,,,,,,,,,13,,,50,48
12359,note_on,,0,0,16,,,,,,,,,,,,,,,15,,,69,0
12359,note_on,,59,0,15,,,,,,,,,,,,,,,13,,,50,0
12359,note_on,,59,0,13,,,,,,,,,,,,,,,11,,,86,0
12359,note_on,,59,0,11,,,,,,,,,,,,,,,14,,,66,0
12359,note_on,,0,0,16,,,,,,,,,,,,,,,15,,,50,0
12359,note_on,,59,0,12,,,,,,,,,,,,,,,10,,,86,0
12359,note_on,,59,0,16,,,,,,,,,,,,,,,15,,,66,0
12360,note_on,,1,0,15,,,,,,,,,,,,,,,13,,,52,48
12360,note_on,,1,0,13,,,,,,,,,,,,,,,11,,,83,48
12360,note_on,,1,0,11,,,,,,,,,,,,,,,14,,,68,63
12360,note_on,,1,0,12,,,,,,,,,,,,,,,10,,,83,48
12360,note_on,,0,0,16,,,,,,,,,,,,,,,15,,,52,48
12360,note_on,,0,0,16,,,,,,,,,,,,,,,15,,,68,48
12360,note_on,,0,0,16,,,,,,,,,,,,,,,15,,,64,48
12360,note_on,,1,0,16,,,,,,,,,,,,,,,15,,,59,48
12374,note_on,,14,0,12,,,,,,,,,,,,,,,10,,,83,0
12374,note_on,,14,0,13,,,,,,,,,,,,,,,11,,,83,0
12375,note_on,,1,0,12,,,,,,,,,,,,,,,10,,,85,48
12375,note_on,,1,0,13,,,,,,,,,,,,,,,11,,,85,48
12389,note_on,,14,0,12,,,,,,,,,,,,,,,10,,,85,0
12389,note_on,,14,0,13,,,,,,,,,,,,,,,11,,,85,0
12390,note_on,,1,0,12,,,,,,,,,,,,,,,10,,,83,48
12390,note_on,,1,0,13,,,,,,,,,,,,,,,11,,,83,48
12404,note_on,,14,0,13,,,,,,,,,,,,,,,11,,,83,0
12404,note_on,,14,0,12,,,,,,,,,,,,,,,10,,,83,0
12405,note_on,,1,0,13,,,,,,,,,,,,,,,11,,,85,48
12405,note_on,,1,0,12,,,,,,,,,,,,,,,10,,,85,48
12419,note_on,,14,0,12,,,,,,,,,,,,,,,10,,,85,0
12419,note_on,,59,0,16,,,,,,,,,,,,,,,15,,,59,0
12419,note_on,,0,0,16,,,,,,,,,,,,,,,15,,,52,0
12419,note_on,,14,0,13,,,,,,,,,,,,,,,11,,,85,0
12419,note_on,,59,0,15,,,,,,,,,,,,,,,13,,,52,0
12420,note_on,,1,0,12,,,,,,,,,,,,,,,10,,,83,48
12420,note_on,,1,0,16,,,,,,,,,,,,,,,15,,,64,48
12420,note_on,,1,0,15,,,,,,,,,,,,,,,13,,,40,48
12420,note_on,,0,0,16,,,,,,,,,,,,,,,15,,,40,48
12420,note_on,,1,0,13,,,,,,,,,,,,,,,11,,,83,48
12434,note_on,,14,0,12,,,,,,,,,,,,,,,10,,,83,0
12434,note_on,,14,0,13,,,,,,,,,,,,,,,11,,,83,0
12435,note_on,,1,0,13,,,,,,,,,,,,,,,11,,,85,48
12435,note_on,,1,0,12,,,,,,,,,,,,,,,10,,,85,48
12449,note_on,,14,0,13,,,,,,,,,,,,,,,11,,,85,0
12449,note_on,,14,0,12,,,,,,,,,,,,,,,10,,,85,0
12450,note_on,,1,0,13,,,,,,,,,,,,,,,11,,,81,48
12450,note_on,,1,0,12,,,,,,,,,,,,,,,10,,,81,48
12464,note_on,,14,0,13,,,,,,,,,,,,,,,11,,,81,0
12464,note_on,,14,0,12,,,,,,,,,,,,,,,10,,,81,0
12465,note_on,,1,0,12,,,,,,,,,,,,,,,10,,,83,48
12465,note_on,,1,0,13,,,,,,,,,,,,,,,11,,,83,48
12479,note_on,,14,0,12,,,,,,,,,,,,,,,10,,,83,0
12479,note_on,,59,0,15,,,,,,,,,,,,,,,13,,,40,0
12479,note_on,,59,0,16,,,,,,,,,,,,,,,15,,,71,0
12479,note_on,,0,0,16,,,,,,,,,,,,,,,15,,,64,0
12479,note_on,,14,0,13,,,,,,,,,,,,,,,11,,,83,0
12479,note_on,,0,0,16,,,,,,,,,,,,,,,15,,,40,0
12479,note_on,,119,0,11,,,,,,,,,,,,,,,14,,,68,0
12479,note_on,,0,0,16,,,,,,,,,,,,,,,15,,,68,0
12479,note_on,,0,0,16,,,,,,,,,,,,,,,15,,,64,0
12480,note_on,,1,0,15,,,,,,,,,,,,,,,13,,,45,48
12480,note_on,,1,0,11,,,,,,,,,,,,,,,14,,,69,63
12480,note_on,,1,0,16,,,,,,,,,,,,,,,15,,,45,48
12480,note_on,,0,0,16,,,,,,,,,,,,,,,15,,,69,48
12480,note_on,,0,0,16,,,,,,,,,,,,,,,15,,,64,48
12480,note_on,,0,0,16,,,,,,,,,,,,,,,15,,,73,48
12480,note_on,,1,0,12,,,,,,,,,,,,,,,10,,,81,48
12480,note_on,,1,0,13,,,,,,,,,,,,,,,11,,,81,48
12539,note_on,,59,0,13,,,,,,,,,,,,,,,11,,,81,0
12539,note_on,,59,0,12,,,,,,,,,,,,,,,10,,,81,0
12570,note_on,,31,0,12,,,,,,,,,,,,,,,10,,,76,72
12570,note_on,,31,0,13,,,,,,,,,,,,,,,11,,,76,72
12599,note_on,,29,0,12,,,,,,,,,,,,,,,10,,,76,0
12599,note_on,,119,0,15,,,,,,,,,,,,,,,13,,,45,0
12599,note_on,,119,0,16,,,,,,,,,,,,,,,15,,,45,0
12599,note_on,,29,0,13,,,,,,,,,,,,,,,11,,,76,0
12600,note_on,,1,0,15,,,,,,,,,,,,,,,13,,,62,72
12600,note_on,,2161,0,6,,,,,,,,,,,,,,,1,,,62,72
12600,note_on,,1,0,12,,,,,,,,,,,,,,,10,,,78,72
12600,note_on,,1,0,16,,,,,,,,,,,,,,,15,,,62,72
12600,note_on,,1,0,13,,,,,,,,,,,,,,,11,,,78,72
12629,note_on,,29,0,13,,,,,,,,,,,,,,,11,,,78,0
12629,note_on,,29,0,12,,,,,,,,,,,,,,,10,,,78,0
12630,note_on,,1,0,13,,,,,,,,,,,,,,,11,,,80,72
12630,note_on,,1,0,12,,,,,,,,,,,,,,,10,,,80,72
12659,note_on,,179,0,11,,,,,,,,,,,,,,,14,,,69,0
12659,note_on,,59,0,16,,,,,,,,,,,,,,,15,,,69,0
12659,note_on,,59,0,15,,,,,,,,,,,,,,,13,,,62,0
12659,note_on,,0,0,16,,,,,,,,,,,,,,,15,,,64,0
12659,note_on,,59,0,6,,,,,,,,,,,,,,,1,,,62,0
12659,note_on,,29,0,12,,,,,,,,,,,,,,,10,,,80,0
12659,note_on,,0,0,16,,,,,,,,,,,,,,,15,,,73,0
12659,note_on,,0,0,16,,,,,,,,,,,,,,,15,,,62,0
12659,note_on,,29,0,13,,,,,,,,,,,,,,,11,,,80,0
12660,note_on,,0,0,16,,,,,,,,,,,,,,,15,,,76,72
12660,note_on,,1,0,12,,,,,,,,,,,,,,,10,,,81,72
12660,note_on,,1,0,16,,,,,,,,,,,,,,,15,,,64,72
12660,note_on,,1,0,6,,,,,,,,,,,,,,,1,,,61,72
12660,note_on,,0,0,16,,,,,,,,,,,,,,,15,,,69,72
12660,note_on,,1,0,15,,,,,,,,,,,,,,,13,,,61,72
12660,note_on,,0,0,16,,,,,,,,,,,,,,,15,,,61,72
12660,note_on,,1,0,13,,,,,,,,,,,,,,,11,,,81,72
12689,note_on,,29,0,12,,,,,,,,,,,,,,,10,,,81,0
12689,note_on,,29,0,13,,,,,,,,,,,,,,,11,,,81,0
12690,note_on,,1,0,13,,,,,,,,,,,,,,,11,,,80,72
12690,note_on,,1,0,12,,,,,,,,,,,,,,,10,,,80,72
12719,note_on,,29,0,12,,,,,,,,,,,,,,,10,,,80,0
12719,note_on,,29,0,13,,,,,,,,,,,,,,,11,,,80,0
12720,note_on,,1,0,13,,,,,,,,,,,,,,,11,,,81,72
12720,note_on,,1,0,12,,,,,,,,,,,,,,,10,,,81,72
12749,note_on,,29,0,13,,,,,,,,,,,,,,,11,,,81,0
12749,note_on,,29,0,12,,,,,,,,,,,,,,,10,,,81,0
12750,note_on,,1,0,12,,,,,,,,,,,,,,,10,,,64,72
12750,note_on,,1,0,13,,,,,,,,,,,,,,,11,,,64,72
12779,note_on,,119,0,6,,,,,,,,,,,,,,,1,,,61,0
12779,note_on,,119,0,16,,,,,,,,,,,,,,,15,,,61,0
12779,note_on,,119,0,15,,,,,,,,,,,,,,,13,,,61,0
12779,note_on,,29,0,12,,,,,,,,,,,,,,,10,,,64,0
12779,note_on,,29,0,13,,,,,,,,,,,,,,,11,,,64,0
12780,note_on,,1,0,16,,,,,,,,,,,,,,,15,,,49,72
12780,note_on,,1,0,6,,,,,,,,,,,,,,,1,,,49,72
12780,note_on,,1,0,13,,,,,,,,,,,,,,,11,,,66,72
12780,note_on,,1,0,15,,,,,,,,,,,,,,,13,,,49,72
12780,note_on,,1,0,12,,,,,,,,,,,,,,,10,,,66,72
12809,note_on,,29,0,13,,,,,,,,,,,,,,,11,,,66,0
12809,note_on,,29,0,12,,,,,,,,,,,,,,,10,,,66,0
12810,note_on,,1,0,13,,,,,,,,,,,,,,,11,,,67,72
12810,note_on,,1,0,12,,,,,,,,,,,,,,,10,,,67,72
12839,note_on,,59,0,15,,,,,,,,,,,,,,,13,,,49,0
12839,note_on,,59,0,16,,,,,,,,,,,,,,,15,,,64,0
12839,note_on,,0,0,16,,,,,,,,,,,,,,,15,,,49,0
12839,note_on,,29,0,12,,,,,,,,,,,,,,,10,,,67,0
12839,note_on,,59,0,6,,,,,,,,,,,,,,,1,,,49,0
12839,note_on,,0,0,16,,,,,,,,,,,,,,,15,,,69,0
12839,note_on,,0,0,16,,,,,,,,,,,,,,,15,,,76,0
12839,note_on,,29,0,13,,,,,,,,,,,,,,,11,,,67,0
12840,note_on,,1,0,12,,,,,,,,,,,,,,,10,,,66,72
12840,note_on,,0,0,16,,,,,,,,,,,,,,,15,,,69,72
12840,note_on,,1,0,6,,,,,,,,,,,,,,,1,,,50,72
12840,note_on,,0,0,16,,,,,,,,,,,,,,,15,,,50,72
12840,note_on,,1,0,15,,,,,,,,,,,,,,,13,,,50,72
12840,note_on,,1,0,16,,,,,,,,,,,,,,,15,,,66,72
12840,note_on,,1,0,13,,,,,,,,,,,,,,,11,,,66,72
12840,note_on,,0,0,16,,,,,,,,,,,,,,,15,,,62,72
12869,note_on,,29,0,12,,,,,,,,,,,,,,,10,,,66,0
12869,note_on,,29,0,13,,,,,,,,,,,,,,,11,,,66,0
12870,note_on,,1,0,12,,,,,,,,,,,,,,,10,,,64,72
12870,note_on,,1,0,13,,,,,,,,,,,,,,,11,,,64,72
12899,note_on,,59,0,16,,,,,,,,,,,,,,,15,,,50,0
12899,note_on,,59,0,6,,,,,,,,,,,,,,,1,,,50,0
12899,note_on,,29,0,13,,,,,,,,,,,,,,,11,,,64,0
12899,note_on,,29,0,12,,,,,,,,,,,,,,,10,,,64,0
12899,note_on,,59,0,15,,,,,,,,,,,,,,,13,,,50,0
12900,note_on,,1,0,15,,,,,,,,,,,,,,,13,,,54,72
12900,note_on,,1,0,12,,,,,,,,,,,,,,,10,,,62,72
12900,note_on,,1,0,13,,,,,,,,,,,,,,,11,,,62,72
12900,note_on,,1,0,16,,,,,,,,,,,,,,,15,,,54,72
12900,note_on,,1,0,6,,,,,,,,,,,,,,,1,,,54,72
12929,note_on,,29,0,13,,,,,,,,,,,,,,,11,,,62,0
12929,note_on,,29,0,12,,,,,,,,,,,,,,,10,,,62,0
12930,note_on,,1,0,13,,,,,,,,,,,,,,,11,,,78,72
12930,note_on,,1,0,12,,,,,,,,,,,,,,,10,,,78,72
12959,note_on,,59,0,6,,,,,,,,,,,,,,,1,,,54,0
12959,note_on,,59,0,16,,,,,,,,,,,,,,,15,,,54,0
12959,note_on,,29,0,13,,,,,,,,,,,,,,,11,,,78,0
12959,note_on,,59,0,15,,,,,,,,,,,,,,,13,,,54,0
12959,note_on,,29,0,12,,,,,,,,,,,,,,,10,,,78,0
12960,note_on,,1,0,6,,,,,,,,,,,,,,,1,,,52,72
12960,note_on,,1,0,13,,,,,,,,,,,,,,,11,,,80,72
12960,note_on,,1,0,12,,,,,,,,,,,,,,,10,,,80,72
12960,note_on,,1,0,15,,,,,,,,,,,,,,,13,,,52,72
12960,note_on,,1,0,16,,,,,,,,,,,,,,,15,,,52,72
12989,note_on,,29,0,12,,,,,,,,,,,,,,,10,,,80,0
12989,note_on,,29,0,13,,,,,,,,,,,,,,,11,,,80,0
12990,note_on,,1,0,12,,,,,,,,,,,,,,,10,,,81,72
12990,note_on,,1,0,13,,,,,,,,,,,,,,,11,,,81,72
13019,note_on,,29,0,13,,,,,,,,,,,,,,,11,,,81,0
13019,note_on,,59,0,15,,,,,,,,,,,,,,,13,,,52,0
13019,note_on,,59,0,6,,,,,,,,,,,,,,,1,,,52,0
13019,note_on,,0,0,16,,,,,,,,,,,,,,,15,,,52,0
13019,note_on,,0,0,16,,,,,,,,,,,,,,,15,,,62,0
13019,note_on,,0,0,16,,,,,,,,,,,,,,,15,,,69,0
13019,note_on,,59,0,16,,,,,,,,,,,,,,,15,,,66,0
13019,note_on,,29,0,12,,,,,,,,,,,,,,,10,,,81,0
13020,note_on,,1,0,15,,,,,,,,,,,,,,,13,,,51,72
13020,note_on,,1,0,13,,,,,,,,,,,,,,,11,,,83,72
13020,note_on,,0,0,16,,,,,,,,,,,,,,,15,,,78,72
13020,note_on,,0,0,16,,,,,,,,,,,,,,,15,,,66,72
13020,note_on,,0,0,16,,,,,,,,,,,,,,,15,,,71,72
13020,note_on,,1,0,16,,,,,,,,,,,,,,,15,,,51,72
13020,note_on,,1,0,12,,,,,,,,,,,,,,,10,,,83,72
13020,note_on,,1,0,6,,,,,,,,,,,,,,,1,,,51,72
13049,note_on,,29,0,12,,,,,,,,,,,,,,,10,,,83,0
13049,note_on,,29,0,13,,,,,,,,,,,,,,,11,,,83,0
13050,note_on,,1,0,13,,,,,,,,,,,,,,,11,,,81,72
13050,note_on,,1,0,12,,,,,,,,,,,,,,,10,,,81,72
13079,note_on,,29,0,12,,,,,,,,,,,,,,,10,,,81,0
13079,note_on,,29,0,13,,,,,,,,,,,,,,,11,,,81,0
13080,note_on,,1,0,12,,,,,,,,,,,,,,,10,,,83,72
13080,note_on,,1,0,13,,,,,,,,,,,,,,,11,,,83,72
13109,note_on,,29,0,12,,,,,,,,,,,,,,,10,,,83,0
13109,note_on,,29,0,13,,,,,,,,,,,,,,,11,,,83,0
13110,note_on,,1,0,13,,,,,,,,,,,,,,,11,,,66,72
13110,note_on,,1,0,12,,,,,,,,,,,,,,,10,,,66,72
13139,note_on,,29,0,12,,,,,,,,,,,,,,,10,,,66,0
13139,note_on,,119,0,16,,,,,,,,,,,,,,,15,,,51,0
13139,note_on,,119,0,6,,,,,,,,,,,,,,,1,,,51,0
13139,note_on,,119,0,15,,,,,,,,,,,,,,,13,,,51,0
13139,note_on,,29,0,13,,,,,,,,,,,,,,,11,,,66,0
13140,note_on,,1,0,12,,,,,,,,,,,,,,,10,,,68,72
13140,note_on,,1,0,15,,,,,,,,,,,,,,,13,,,47,72
13140,note_on,,1,0,6,,,,,,,,,,,,,,,1,,,47,72
13140,note_on,,1,0,16,,,,,,,,,,,,,,,15,,,47,72
13140,note_on,,1,0,13,,,,,,,,,,,,,,,11,,,68,72
13169,note_on,,29,0,13,,,,,,,,,,,,,,,11,,,68,0
13169,note_on,,29,0,12,,,,,,,,,,,,,,,10,,,68,0
13170,note_on,,1,0,13,,,,,,,,,,,,,,,11,,,69,72
13170,note_on,,1,0,12,,,,,,,,,,,,,,,10,,,69,72
13199,note_on,,0,0,16,,,,,,,,,,,,,,,15,,,78,0
13199,note_on,,0,0,16,,,,,,,,,,,,,,,15,,,66,0
13199,note_on,,59,0,16,,,,,,,,,,,,,,,15,,,71,0
13199,note_on,,0,0,16,,,,,,,,,,,,,,,15,,,47,0
13199,note_on,,59,0,6,,,,,,,,,,,,,,,1,,,47,0
13199,note_on,,59,0,15,,,,,,,,,,,,,,,13,,,47,0
13199,note_on,,29,0,12,,,,,,,,,,,,,,,10,,,69,0
13199,note_on,,29,0,13,,,,,,,,,,,,,,,11,,,69,0
13200,note_on,,0,0,16,,,,,,,,,,,,,,,15,,,52,72
13200,note_on,,1,0,16,,,,,,,,,,,,,,,15,,,71,72
13200,note_on,,1,0,12,,,,,,,,,,,,,,,10,,,68,72
13200,note_on,,1,0,6,,,,,,,,,,,,,,,1,,,52,72
13200,note_on,,0,0,16,,,,,,,,,,,,,,,15,,,64,72
13200,note_on,,1,0,13,,,,,,,,,,,,,,,11,,,68,72
13200,note_on,,0,0,16,,,,,,,,,,,,,,,15,,,68,72
13200,note_on,,1,0,15,,,,,,,,,,,,,,,13,,,52,72
13229,note_on,,29,0,12,,,,,,,,,,,,,,,10,,,68,0
13229,note_on,,29,0,13,,,,,,,,,,,,,,,11,,,68,0
13230,note_on,,1,0,12,,,,,,,,,,,,,,,10,,,66,72
13230,note_on,,1,0,13,,,,,,,,,,,,,,,11,,,66,72
13259,note_on,,59,0,15,,,,,,,,,,,,,,,13,,,52,0
13259,note_on,,59,0,6,,,,,,,,,,,,,,,1,,,52,0
13259,note_on,,29,0,12,,,,,,,,,,,,,,,10,,,66,0
13259,note_on,,29,0,13,,,,,,,,,,,,,,,11,,,66,0
13259,note_on,,59,0,16,,,,,,,,,,,,,,,15,,,52,0
13260,note_on,,1,0,15,,,,,,,,,,,,,,,13,,,56,72
13260,note_on,,1,0,12,,,,,,,,,,,,,,,10,,,64,72
13260,note_on,,1,0,16,,,,,,,,,,,,,,,15,,,56,72
13260,note_on,,1,0,6,,,,,,,,,,,,,,,1,,,56,72
13260,note_on,,1,0,13,,,,,,,,,,,,,,,11,,,64,72
13289,note_on,,29,0,13,,,,,,,,,,,,,,,11,,,64,0
13289,note_on,,29,0,12,,,,,,,,,,,,,,,10,,,64,0
13290,note_on,,1,0,13,,,,,,,,,,,,,,,11,,,68,72
13290,note_on,,1,0,12,,,,,,,,,,,,,,,10,,,68,72
13319,note_on,,0,0,16,,,,,,,,,,,,,,,15,,,64,0
13319,note_on,,0,0,16,,,,,,,,,,,,,,,15,,,68,0
13319,note_on,,59,0,16,,,,,,,,,,,,,,,15,,,71,0
13319,note_on,,59,0,6,,,,,,,,,,,,,,,1,,,56,0
13319,note_on,,59,0,15,,,,,,,,,,,,,,,13,,,56,0
13319,note_on,,29,0,13,,,,,,,,,,,,,,,11,,,68,0
13319,note_on,,0,0,16,,,,,,,,,,,,,,,15,,,56,0
13319,note_on,,29,0,12,,,,,,,,,,,,,,,10,,,68,0
13320,note_on,,1,0,13,,,,,,,,,,,,,,,11,,,69,72
13320,note_on,,1,0,15,,,,,,,,,,,,,,,13,,,52,72
13320,note_on,,0,0,16,,,,,,,,,,,,,,,15,,,68,72
13320,note_on,,1,0,12,,,,,,,,,,,,,,,10,,,69,72
13320,note_on,,0,0,16,,,,,,,,,,,,,,,15,,,71,72
13320,note_on,,0,0,16,,,,,,,,,,,,,,,15,,,76,72
13320,note_on,,1,0,16,,,,,,,,,,,,,,,15,,,52,72
13320,note_on,,1,0,6,,,,,,,,,,,,,,,1,,,52,72
13349,note_on,,29,0,12,,,,,,,,,,,,,,,10,,,69,0
13349,note_on,,29,0,13,,,,,,,,,,,,,,,11,,,69,0
13350,note_on,,1,0,13,,,,,,,,,,,,,,,11,,,71,72
13350,note_on,,1,0,12,,,,,,,,,,,,,,,10,,,71,72
13379,note_on,,0,0,16,,,,,,,,,,,,,,,15,,,71,0
13379,note_on,,59,0,16,,,,,,,,,,,,,,,15,,,52,0
13379,note_on,,29,0,13,,,,,,,,,,,,,,,11,,,71,0
13379,note_on,,59,0,6,,,,,,,,,,,,,,,1,,,52,0
13379,note_on,,59,0,15,,,,,,,,,,,,,,,13,,,52,0
13379,note_on,,29,0,12,,,,,,,,,,,,,,,10,,,71,0
13379,note_on,,0,0,16,,,,,,,,,,,,,,,15,,,76,0
13379,note_on,,0,0,16,,,,,,,,,,,,,,,15,,,68,0
13380,note_on,,1,0,6,,,,,,,,,,,,,,,1,,,54,72
13380,note_on,,1,0,15,,,,,,,,,,,,,,,13,,,54,72
13380,note_on,,0,0,16,,,,,,,,,,,,,,,15,,,74,72
13380,note_on,,1,0,12,,,,,,,,,,,,,,,10,,,69,72
13380,note_on,,0,0,16,,,,,,,,,,,,,,,15,,,66,72
13380,note_on,,0,0,16,,,,,,,,,,,,,,,15,,,54,72
13380,note_on,,1,0,13,,,,,,,,,,,,,,,11,,,69,72
13380,note_on,,1,0,16,,,,,,,,,,,,,,,15,,,69,72
13409,note_on,,29,0,12,,,,,,,,,,,,,,,10,,,69,0
13409,note_on,,29,0,13,,,,,,,,,,,,,,,11,,,69,0
13410,note_on,,1,0,12,,,,,,,,,,,,,,,10,,,68,72
13410,note_on,,1,0,13,,,,,,,,,,,,,,,11,,,68,72
13439,note_on,,29,0,12,,,,,,,,,,,,,,,10,,,68,0
13439,note_on,,59,0,16,,,,,,,,,,,,,,,15,,,54,0
13439,note_on,,29,0,13,,,,,,,,,,,,,,,11,,,68,0
13439,note_on,,59,0,6,,,,,,,,,,,,,,,1,,,54,0
13439,note_on,,59,0,15,,,,,,,,,,,,,,,13,,,54,0
13440,note_on,,1,0,13,,,,,,,,,,,,,,,11,,,66,72
13440,note_on,,1,0,15,,,,,,,,,,,,,,,13,,,57,72
13440,note_on,,1,0,16,,,,,,,,,,,,,,,15,,,57,72
13440,note_on,,1,0,6,,,,,,,,,,,,,,,1,,,57,72
13440,note_on,,1,0,12,,,,,,,,,,,,,,,10,,,66,72
13469,note_on,,29,0,13,,,,,,,,,,,,,,,11,,,66,0
13469,note_on,,29,0,12,,,,,,,,,,,,,,,10,,,66,0
13470,note_on,,1,0,12,,,,,,,,,,,,,,,10,,,69,72
13470,note_on,,1,0,13,,,,,,,,,,,,,,,11,,,69,72
13499,note_on,,59,0,16,,,,,,,,,,,,,,,15,,,57,0
13499,note_on,,29,0,13,,,,,,,,,,,,,,,11,,,69,0
13499,note_on,,29,0,12,,,,,,,,,,,,,,,10,,,69,0
13499,note_on,,59,0,15,,,,,,,,,,,,,,,13,,,57,0
13499,note_on,,59,0,6,,,,,,,,,,,,,,,1,,,57,0
13500,note_on,,1,0,13,,,,,,,,,,,,,,,11,,,71,72
13500,note_on,,1,0,15,,,,,,,,,,,,,,,13,,,54,72
13500,note_on,,1,0,12,,,,,,,,,,,,,,,10,,,71,72
13500,note_on,,1,0,6,,,,,,,,,,,,,,,1,,,54,72
13500,note_on,,1,0,16,,,,,,,,,,,,,,,15,,,54,72
13529,note_on,,29,0,12,,,,,,,,,,,,,,,10,,,71,0
13529,note_on,,29,0,13,,,,,,,,,,,,,,,11,,,71,0
13530,note_on,,1,0,12,,,,,,,,,,,,,,,10,,,73,72
13530,note_on,,1,0,13,,,,,,,,,,,,,,,11,,,73,72
13559,note_on,,0,0,16,,,,,,,,,,,,,,,15,,,74,0
13559,note_on,,29,0,12,,,,,,,,,,,,,,,10,,,73,0
13559,note_on,,59,0,16,,,,,,,,,,,,,,,15,,,69,0
13559,note_on,,0,0,16,,,,,,,,,,,,,,,15,,,66,0
13559,note_on,,59,0,6,,,,,,,,,,,,,,,1,,,54,0
13559,note_on,,0,0,16,,,,,,,,,,,,,,,15,,,54,0
13559,note_on,,59,0,15,,,,,,,,,,,,,,,13,,,54,0
13559,note_on,,29,0,13,,,,,,,,,,,,,,,11,,,73,0
13560,note_on,,0,0,16,,,,,,,,,,,,,,,15,,,71,72
13560,note_on,,0,0,16,,,,,,,,,,,,,,,15,,,56,72
13560,note_on,,0,0,16,,,,,,,,,,,,,,,15,,,64,72
13560,note_on,,1,0,16,,,,,,,,,,,,,,,15,,,62,72
13560,note_on,,1,0,13,,,,,,,,,,,,,,,11,,,71,72
13560,note_on,,1,0,12,,,,,,,,,,,,,,,10,,,71,72
13560,note_on,,1,0,6,,,,,,,,,,,,,,,1,,,56,72
13560,note_on,,1,0,15,,,,,,,,,,,,,,,13,,,56,72
13589,note_on,,29,0,13,,,,,,,,,,,,,,,11,,,71,0
13589,note_on,,29,0,12,,,,,,,,,,,,,,,10,,,71,0
13590,note_on,,1,0,12,,,,,,,,,,,,,,,10,,,69,72
13590,note_on,,1,0,13,,,,,,,,,,,,,,,11,,,69,72
13619,note_on,,59,0,16,,,,,,,,,,,,,,,15,,,56,0
13619,note_on,,29,0,13,,,,,,,,,,,,,,,11,,,69,0
13619,note_on,,59,0,15,,,,,,,,,,,,,,,13,,,56,0
13619,note_on,,29,0,12,,,,,,,,,,,,,,,10,,,69,0
13619,note_on,,59,0,6,,,,,,,,,,,,,,,1,,,56,0
13620,note_on,,1,0,13,,,,,,,,,,,,,,,11,,,68,72
13620,note_on,,1,0,15,,,,,,,,,,,,,,,13,,,59,72
13620,note_on,,1,0,16,,,,,,,,,,,,,,,15,,,59,72
13620,note_on,,1,0,6,,,,,,,,,,,,,,,1,,,59,72
13620,note_on,,1,0,12,,,,,,,,,,,,,,,10,,,68,72
13649,note_on,,29,0,13,,,,,,,,,,,,,,,11,,,68,0
13649,note_on,,29,0,12,,,,,,,,,,,,,,,10,,,68,0
13650,note_on,,1,0,13,,,,,,,,,,,,,,,11,,,71,72
13650,note_on,,1,0,12,,,,,,,,,,,,,,,10,,,71,72
13679,note_on,,29,0,12,,,,,,,,,,,,,,,10,,,71,0
13679,note_on,,59,0,15,,,,,,,,,,,,,,,13,,,59,0
13679,note_on,,59,0,6,,,,,,,,,,,,,,,1,,,59,0
13679,note_on,,59,0,16,,,,,,,,,,,,,,,15,,,59,0
13679,note_on,,29,0,13,,,,,,,,,,,,,,,11,,,71,0
13680,note_on,,1,0,15,,,,,,,,,,,,,,,13,,,56,72
13680,note_on,,1,0,12,,,,,,,,,,,,,,,10,,,73,72
13680,note_on,,1,0,6,,,,,,,,,,,,,,,1,,,56,72
13680,note_on,,1,0,16,,,,,,,,,,,,,,,15,,,56,72
13680,note_on,,1,0,13,,,,,,,,,,,,,,,11,,,73,72
13709,note_on,,29,0,12,,,,,,,,,,,,,,,10,,,73,0
13709,note_on,,29,0,13,,,,,,,,,,,,,,,11,,,73,0
13710,note_on,,1,0,12,,,,,,,,,,,,,,,10,,,74,72
13710,note_on,,1,0,13,,,,,,,,,,,,,,,11,,,74,72
13739,note_on,,59,0,6,,,,,,,,,,,,,,,1,,,56,0
13739,note_on,,0,0,16,,,,,,,,,,,,,,,15,,,71,0
13739,note_on,,0,0,16,,,,,,,,,,,,,,,15,,,64,0
13739,note_on,,59,0,16,,,,,,,,,,,,,,,15,,,62,0
13739,note_on,,29,0,13,,,,,,,,,,,,,,,11,,,74,0
13739,note_on,,29,0,12,,,,,,,,,,,,,,,10,,,74,0
13739,note_on,,59,0,15,,,,,,,,,,,,,,,13,,,56,0
13739,note_on,,0,0,16,,,,,,,,,,,,,,,15,,,56,0
13740,note_on,,1,0,15,,,,,,,,,,,,,,,13,,,57,72
13740,note_on,,0,0,16,,,,,,,,,,,,,,,15,,,57,72
13740,note_on,,1,0,6,,,,,,,,,,,,,,,1,,,57,72
13740,note_on,,0,0,16,,,,,,,,,,,,,,,15,,,64,72
13740,note_on,,1,0,16,,,,,,,,,,,,,,,15,,,61,72
13740,note_on,,1,0,12,,,,,,,,,,,,,,,10,,,73,72
13740,note_on,,1,0,13,,,,,,,,,,,,,,,11,,,73,72
13769,note_on,,29,0,12,,,,,,,,,,,,,,,10,,,73,0
13769,note_on,,29,0,13,,,,,,,,,,,,,,,11,,,73,0
13770,note_on,,1,0,13,,,,,,,,,,,,,,,11,,,74,72
13770,note_on,,1,0,12,,,,,,,,,,,,,,,10,,,74,72
13799,note_on,,59,0,15,,,,,,,,,,,,,,,13,,,57,0
13799,note_on,,29,0,13,,,,,,,,,,,,,,,11,,,74,0
13799,note_on,,0,0,16,,,,,,,,,,,,,,,15,,,64,0
13799,note_on,,0,0,16,,,,,,,,,,,,,,,15,,,57,0
13799,note_on,,59,0,16,,,,,,,,,,,,,,,15,,,61,0
13799,note_on,,59,0,6,,,,,,,,,,,,,,,1,,,57,0
13799,note_on,,29,0,12,,,,,,,,,,,,,,,10,,,74,0
13800,note_on,,1,0,6,,,,,,,,,,,,,,,1,,,61,72
13800,note_on,,1,0,13,,,,,,,,,,,,,,,11,,,76,72
13800,note_on,,0,0,16,,,,,,,,,,,,,,,15,,,61,72
13800,note_on,,1,0,15,,,,,,,,,,,,,,,13,,,61,72
13800,note_on,,0,0,16,,,,,,,,,,,,,,,15,,,69,72
13800,note_on,,1,0,12,,,,,,,,,,,,,,,10,,,76,72
13800,note_on,,1,0,16,,,,,,,,,,,,,,,15,,,64,72
13829,note_on,,29,0,12,,,,,,,,,,,,,,,10,,,76,0
13829,note_on,,29,0,13,,,,,,,,,,,,,,,11,,,76,0
13830,note_on,,1,0,12,,,,,,,,,,,,,,,10,,,78,72
13830,note_on,,1,0,13,,,,,,,,,,,,,,,11,,,78,72
13859,note_on,,59,0,15,,,,,,,,,,,,,,,13,,,61,0
13859,note_on,,29,0,12,,,,,,,,,,,,,,,10,,,78,0
13859,note_on,,0,0,16,,,,,,,,,,,,,,,15,,,61,0
13859,note_on,,59,0,16,,,,,,,,,,,,,,,15,,,64,0
13859,note_on,,59,0,6,,,,,,,,,,,,,,,1,,,61,0
13859,note_on,,29,0,13,,,,,,,,,,,,,,,11,,,78,0
13860,note_on,,1,0,13,,,,,,,,,,,,,,,11,,,80,72
13860,note_on,,1,0,16,,,,,,,,,,,,,,,15,,,62,72
13860,note_on,,0,0,16,,,,,,,,,,,,,,,15,,,66,72
13860,note_on,,1,0,6,,,,,,,,,,,,,,,1,,,62,72
13860,note_on,,1,0,12,,,,,,,,,,,,,,,10,,,80,72
13860,note_on,,1,0,15,,,,,,,,,,,,,,,13,,,62,72
13889,note_on,,29,0,13,,,,,,,,,,,,,,,11,,,80,0
13889,note_on,,29,0,12,,,,,,,,,,,,,,,10,,,80,0
13890,note_on,,1,0,13,,,,,,,,,,,,,,,11,,,81,72
13890,note_on,,1,0,12,,,,,,,,,,,,,,,10,,,81,72
13919,note_on,,59,0,6,,,,,,,,,,,,,,,1,,,62,0
13919,note_on,,59,0,15,,,,,,,,,,,,,,,13,,,62,0
13919,note_on,,59,0,16,,,,,,,,,,,,,,,15,,,69,0
13919,note_on,,0,0,16,,,,,,,,,,,,,,,15,,,66,0
13919,note_on,,0,0,16,,,,,,,,,,,,,,,15,,,62,0
13919,note_on,,29,0,13,,,,,,,,,,,,,,,11,,,81,0
13919,note_on,,29,0,12,,,,,,,,,,,,,,,10,,,81,0
13920,note_on,,1,0,12,,,,,,,,,,,,,,,10,,,74,72
13920,note_on,,1,0,16,,,,,,,,,,,,,,,15,,,68,72
13920,note_on,,0,0,16,,,,,,,,,,,,,,,15,,,59,72
13920,note_on,,1,0,6,,,,,,,,,,,,,,,1,,,59,72
13920,note_on,,1,0,13,,,,,,,,,,,,,,,11,,,74,72
13920,note_on,,0,0,16,,,,,,,,,,,,,,,15,,,74,72
13920,note_on,,1,0,15,,,,,,,,,,,,,,,13,,,59,72
13979,note_on,,0,0,16,,,,,,,,,,,,,,,15,,,59,0
13979,note_on,,59,0,6,,,,,,,,,,,,,,,1,,,59,0
13979,note_on,,59,0,15,,,,,,,,,,,,,,,13,,,59,0
13979,note_on,,59,0,16,,,,,,,,,,,,,,,15,,,68,0
13980,note_on,,1,0,6,,,,,,,,,,,,,,,1,,,56,72
13980,note_on,,0,0,16,,,,,,,,,,,,,,,15,,,64,72
13980,note_on,,1,0,15,,,,,,,,,,,,,,,13,,,56,72
13980,note_on,,1,0,16,,,,,,,,,,,,,,,15,,,56,72
13980,note_on,,0,0,16,,,,,,,,,,,,,,,15,,,71,72
14009,note_on,,89,0,13,,,,,,,,,,,,,,,11,,,74,0
14009,note_on,,89,0,12,,,,,,,,,,,,,,,10,,,74,0
14010,note_on,,1,0,13,,,,,,,,,,,,,,,11,,,83,72
14010,note_on,,1,0,12,,,,,,,,,,,,,,,10,,,83,72
14039,note_on,,29,0,12,,,,,,,,,,,,,,,10,,,83,0
14039,note_on,,29,0,13,,,,,,,,,,,,,,,11,,,83,0
14039,note_on,,59,0,16,,,,,,,,,,,,,,,15,,,74,0
14039,note_on,,59,0,15,,,,,,,,,,,,,,,13,,,56,0
14039,note_on,,0,0,16,,,,,,,,,,,,,,,15,,,64,0
14039,note_on,,0,0,16,,,,,,,,,,,,,,,15,,,71,0
14039,note_on,,59,0,6,,,,,,,,,,,,,,,1,,,56,0
14039,note_on,,0,0,16,,,,,,,,,,,,,,,15,,,56,0
14040,note_on,,1,0,12,,,,,,,,,,,,,,,10,,,73,72
14040,note_on,,1,0,15,,,,,,,,,,,,,,,13,,,57,72
14040,note_on,,0,0,16,,,,,,,,,,,,,,,15,,,57,72
14040,note_on,,1,0,13,,,,,,,,,,,,,,,11,,,73,72
14040,note_on,,0,0,16,,,,,,,,,,,,,,,15,,,73,72
14040,note_on,,1,0,16,,,,,,,,,,,,,,,15,,,64,72
14040,note_on,,0,0,16,,,,,,,,,,,,,,,15,,,69,72
14040,note_on,,1,0,6,,,,,,,,,,,,,,,1,,,57,72
14069,note_on,,29,0,12,,,,,,,,,,,,,,,10,,,73,0
14069,note_on,,29,0,13,,,,,,,,,,,,,,,11,,,73,0
14070,note_on,,1,0,13,,,,,,,,,,,,,,,11,,,81,72
14070,note_on,,1,0,12,,,,,,,,,,,,,,,10,,,81,72
14099,note_on,,29,0,13,,,,,,,,,,,,,,,11,,,81,0
14099,note_on,,0,0,16,,,,,,,,,,,,,,,15,,,69,0
14099,note_on,,0,0,16,,,,,,,,,,,,,,,15,,,73,0
14099,note_on,,0,0,16,,,,,,,,,,,,,,,15,,,57,0
14099,note_on,,59,0,15,,,,,,,,,,,,,,,13,,,57,0
14099,note_on,,59,0,16,,,,,,,,,,,,,,,15,,,64,0
14099,note_on,,59,0,6,,,,,,,,,,,,,,,1,,,57,0
14099,note_on,,29,0,12,,,,,,,,,,,,,,,10,,,81,0
14100,note_on,,1,0,12,,,,,,,,,,,,,,,10,,,71,72
14100,note_on,,1,0,13,,,,,,,,,,,,,,,11,,,71,72
14100,note_on,,0,0,16,,,,,,,,,,,,,,,15,,,71,72
14100,note_on,,0,0,16,,,,,,,,,,,,,,,15,,,69,72
14100,note_on,,0,0,16,,,,,,,,,,,,,,,15,,,50,72
14100,note_on,,1,0,16,,,,,,,,,,,,,,,15,,,66,72
14100,note_on,,1,0,6,,,,,,,,,,,,,,,1,,,50,72
14100,note_on,,1,0,15,,,,,,,,,,,,,,,13,,,50,72
14129,note_on,,29,0,12,,,,,,,,,,,,,,,10,,,71,0
14129,note_on,,29,0,13,,,,,,,,,,,,,,,11,,,71,0
14130,note_on,,1,0,13,,,,,,,,,,,,,,,11,,,81,72
14130,note_on,,1,0,12,,,,,,,,,,,,,,,10,,,81,72
14159,note_on,,59,0,6,,,,,,,,,,,,,,,1,,,50,0
14159,note_on,,29,0,12,,,,,,,,,,,,,,,10,,,81,0
14159,note_on,,59,0,16,,,,,,,,,,,,,,,15,,,66,0
14159,note_on,,0,0,16,,,,,,,,,,,,,,,15,,,50,0
14159,note_on,,0,0,16,,,,,,,,,,,,,,,15,,,69,0
14159,note_on,,59,0,15,,,,,,,,,,,,,,,13,,,50,0
14159,note_on,,29,0,13,,,,,,,,,,,,,,,11,,,81,0
14160,note_on,,1,0,16,,,,,,,,,,,,,,,15,,,59,72
14160,note_on,,1,0,12,,,,,,,,,,,,,,,10,,,80,72
14160,note_on,,0,0,16,,,,,,,,,,,,,,,15,,,68,72
14160,note_on,,0,0,16,,,,,,,,,,,,,,,15,,,52,72
14160,note_on,,1,0,13,,,,,,,,,,,,,,,11,,,80,72
14160,note_on,,1,0,6,,,,,,,,,,,,,,,1,,,52,72
14160,note_on,,1,0,15,,,,,,,,,,,,,,,13,,,52,72
14174,note_on,,14,0,13,,,,,,,,,,,,,,,11,,,80,0
14174,note_on,,14,0,12,,,,,,,,,,,,,,,10,,,80,0
14175,note_on,,1,0,13,,,,,,,,,,,,,,,11,,,81,72
14175,note_on,,1,0,12,,,,,,,,,,,,,,,10,,,81,72
14189,note_on,,14,0,13,,,,,,,,,,,,,,,11,,,81,0
14189,note_on,,14,0,12,,,,,,,,,,,,,,,10,,,81,0
14190,note_on,,1,0,13,,,,,,,,,,,,,,,11,,,80,72
14190,note_on,,1,0,12,,,,,,,,,,,,,,,10,,,80,72
14204,note_on,,14,0,13,,,,,,,,,,,,,,,11,,,80,0
14204,note_on,,14,0,12,,,,,,,,,,,,,,,10,,,80,0
14205,note_on,,1,0,13,,,,,,,,,,,,,,,11,,,81,72
14205,note_on,,1,0,12,,,,,,,,,,,,,,,10,,,81,72
14219,note_on,,59,0,6,,,,,,,,,,,,,,,1,,,52,0
14219,note_on,,59,0,15,,,,,,,,,,,,,,,13,,,52,0
14219,note_on,,0,0,16,,,,,,,,,,,,,,,15,,,52,0
14219,note_on,,59,0,16,,,,,,,,,,,,,,,15,,,59,0
14219,note_on,,14,0,13,,,,,,,,,,,,,,,11,,,81,0
14219,note_on,,14,0,12,,,,,,,,,,,,,,,10,,,81,0
14220,note_on,,1,0,15,,,,,,,,,,,,,,,13,,,40,72
14220,note_on,,1,0,12,,,,,,,,,,,,,,,10,,,78,72
14220,note_on,,1,0,16,,,,,,,,,,,,,,,15,,,40,72
14220,note_on,,0,0,16,,,,,,,,,,,,,,,15,,,64,72
14220,note_on,,1,0,13,,,,,,,,,,,,,,,11,,,78,72
14220,note_on,,1,0,6,,,,,,,,,,,,,,,1,,,40,72
14234,note_on,,14,0,13,,,,,,,,,,,,,,,11,,,78,0
14234,note_on,,14,0,12,,,,,,,,,,,,,,,10,,,78,0
14235,note_on,,1,0,13,,,,,,,,,,,,,,,11,,,80,72
14235,note_on,,1,0,12,,,,,,,,,,,,,,,10,,,80,72
14249,note_on,,14,0,13,,,,,,,,,,,,,,,11,,,80,0
14249,note_on,,14,0,12,,,,,,,,,,,,,,,10,,,80,0
14250,note_on,,1,0,13,,,,,,,,,,,,,,,11,,,81,72
14250,note_on,,1,0,12,,,,,,,,,,,,,,,10,,,81,72
14279,note_on,,29,0,12,,,,,,,,,,,,,,,10,,,81,0
14279,note_on,,0,0,16,,,,,,,,,,,,,,,15,,,40,0
14279,note_on,,0,0,16,,,,,,,,,,,,,,,15,,,64,0
14279,note_on,,29,0,13,,,,,,,,,,,,,,,11,,,81,0
14279,note_on,,59,0,16,,,,,,,,,,,,,,,15,,,71,0
14279,note_on,,59,0,6,,,,,,,,,,,,,,,1,,,40,0
14279,note_on,,0,0,16,,,,,,,,,,,,,,,15,,,68,0
14279,note_on,,59,0,15,,,,,,,,,,,,,,,13,,,40,0
14280,note_on,,0,0,16,,,,,,,,,,,,,,,15,,,64,72
14280,note_on,,0,0,16,,,,,,,,,,,,,,,15,,,69,72
14280,note_on,,0,0,16,,,,,,,,,,,,,,,15,,,45,72
14280,note_on,,1,0,16,,,,,,,,,,,,,,,15,,,61,72
14280,note_on,,1,0,6,,,,,,,,,,,,,,,1,,,45,72
14280,note_on,,1,0,12,,,,,,,,,,,,,,,10,,,81,72
14280,note_on,,1,0,13,,,,,,,,,,,,,,,11,,,81,72
14280,note_on,,1,0,15,,,,,,,,,,,,,,,13,,,45,72
14339,note_on,,59,0,15,,,,,,,,,,,,,,,13,,,45,0
14339,note_on,,59,0,12,,,,,,,,,,,,,,,10,,,81,0
14339,note_on,,59,0,6,,,,,,,,,,,,,,,1,,,45,0
14339,note_on,,59,0,16,,,,,,,,,,,,,,,15,,,45,0
14339,note_on,,59,0,13,,,,,,,,,,,,,,,11,,,81,0
14340,note_on,,1,0,15,,,,,,,,,,,,,,,13,,,61,72
14340,note_on,,1,0,12,,,,,,,,,,,,,,,10,,,69,72
14340,note_on,,1,0,13,,,,,,,,,,,,,,,11,,,69,72
14340,note_on,,1,0,16,,,,,,,,,,,,,,,15,,,61,72
14399,note_on,,0,0,16,,,,,,,,,,,,,,,15,,,69,0
14399,note_on,,0,0,16,,,,,,,,,,,,,,,15,,,61,0
14399,note_on,,0,0,16,,,,,,,,,,,,,,,15,,,64,0
14399,note_on,,59,0,13,,,,,,,,,,,,,,,11,,,69,0
14399,note_on,,59,0,12,,,,,,,,,,,,,,,10,,,69,0
14399,note_on,,59,0,15,,,,,,,,,,,,,,,13,,,61,0
14399,note_on,,59,0,16,,,,,,,,,,,,,,,15,,,61,0
14400,note_on,,0,0,16,,,,,,,,,,,,,,,15,,,57,72
14400,note_on,,1,0,16,,,,,,,,,,,,,,,15,,,73,72
14400,note_on,,0,0,16,,,,,,,,,,,,,,,15,,,64,72
14400,note_on,,0,0,16,,,,,,,,,,,,,,,15,,,69,72
14400,note_on,,1741,0,11,,,,,,,,,,,,,,,14,,,69,59
14400,note_on,,1,0,15,,,,,,,,,,,,,,,13,,,57,72
14459,note_on,,59,0,11,,,,,,,,,,,,,,,14,,,69,0
14459,note_on,,59,0,15,,,,,,,,,,,,,,,13,,,57,0
14459,note_on,,59,0,16,,,,,,,,,,,,,,,15,,,73,0
14459,note_on,,0,0,16,,,,,,,,,,,,,,,15,,,64,0
14459,note_on,,0,0,16,,,,,,,,,,,,,,,15,,,57,0
14459,note_on,,0,0,16,,,,,,,,,,,,,,,15,,,69,0
14460,note_on,,1,0,15,,,,,,,,,,,,,,,13,,,59,72
14460,note_on,,1,0,11,,,,,,,,,,,,,,,14,,,62,66
14460,note_on,,0,0,16,,,,,,,,,,,,,,,15,,,59,72
14460,note_on,,0,0,16,,,,,,,,,,,,,,,15,,,66,72
14460,note_on,,0,0,16,,,,,,,,,,,,,,,15,,,62,72
14460,note_on,,1,0,16,,,,,,,,,,,,,,,15,,,62,72
14519,note_on,,0,0,16,,,,,,,,,,,,,,,15,,,66,0
14519,note_on,,0,0,16,,,,,,,,,,,,,,,15,,,59,0
14519,note_on,,59,0,16,,,,,,,,,,,,,,,15,,,62,0
14519,note_on,,59,0,15,,,,,,,,,,,,,,,13,,,59,0
14520,note_on,,0,0,16,,,,,,,,,,,,,,,15,,,74,72
14520,note_on,,1,0,16,,,,,,,,,,,,,,,15,,,54,72
14520,note_on,,1,0,15,,,,,,,,,,,,,,,13,,,54,72
14579,note_on,,119,0,11,,,,,,,,,,,,,,,14,,,62,0
14579,note_on,,0,0,16,,,,,,,,,,,,,,,15,,,74,0
14579,note_on,,59,0,16,,,,,,,,,,,,,,,15,,,54,0
14579,note_on,,59,0,15,,,,,,,,,,,,,,,13,,,54,0
14580,note_on,,1,0,15,,,,,,,,,,,,,,,13,,,55,72
14580,note_on,,1,0,11,,,,,,,,,,,,,,,14,,,64,60
14580,note_on,,0,0,16,,,,,,,,,,,,,,,15,,,71,72
14580,note_on,,1,0,16,,,,,,,,,,,,,,,15,,,55,72
14639,note_on,,0,0,16,,,,,,,,,,,,,,,15,,,71,0
14639,note_on,,59,0,15,,,,,,,,,,,,,,,13,,,55,0
14639,note_on,,59,0,16,,,,,,,,,,,,,,,15,,,62,0
14639,note_on,,59,0,11,,,,,,,,,,,,,,,14,,,64,0
14639,note_on,,0,0,16,,,,,,,,,,,,,,,15,,,55,0
14640,note_on,,1,0,16,,,,,,,,,,,,,,,15,,,57,72
14640,note_on,,1,0,15,,,,,,,,,,,,,,,13,,,57,72
14640,note_on,,0,0,16,,,,,,,,,,,,,,,15,,,64,72
14640,note_on,,0,0,16,,,,,,,,,,,,,,,15,,,61,72
14640,note_on,,1,0,11,,,,,,,,,,,,,,,14,,,61,65
14699,note_on,,59,0,15,,,,,,,,,,,,,,,13,,,57,0
14699,note_on,,0,0,16,,,,,,,,,,,,,,,15,,,61,0
14699,note_on,,59,0,16,,,,,,,,,,,,,,,15,,,57,0
14699,note_on,,59,0,11,,,,,,,,,,,,,,,14,,,61,0
14700,note_on,,0,0,16,,,,,,,,,,,,,,,15,,,59,72
14700,note_on,,1,0,15,,,,,,,,,,,,,,,13,,,59,72
14700,note_on,,1,0,16,,,,,,,,,,,,,,,15,,,62,72
14700,note_on,,1,0,11,,,,,,,,,,,,,,,14,,,62,67
14759,note_on,,59,0,15,,,,,,,,,,,,,,,13,,,59,0
14759,note_on,,59,0,16,,,,,,,,,,,,,,,15,,,62,0
14759,note_on,,59,0,11,,,,,,,,,,,,,,,14,,,62,0
14759,note_on,,0,0,16,,,,,,,,,,,,,,,15,,,59,0
14760,note_on,,1,0,11,,,,,,,,,,,,,,,14,,,64,63
14760,note_on,,1,0,16,,,,,,,,,,,,,,,15,,,61,72
14760,note_on,,0,0,16,,,,,,,,,,,,,,,15,,,64,72
14760,note_on,,1,0,15,,,,,,,,,,,,,,,13,,,61,72
14819,note_on,,0,0,16,,,,,,,,,,,,,,,15,,,64,0
14819,note_on,,0,0,16,,,,,,,,,,,,,,,15,,,61,0
14819,note_on,,59,0,15,,,,,,,,,,,,,,,13,,,61,0
14819,note_on,,59,0,16,,,,,,,,,,,,,,,15,,,64,0
14819,note_on,,59,0,11,,,,,,,,,,,,,,,14,,,64,0
14820,note_on,,1,0,16,,,,,,,,,,,,,,,15,,,69,72
14820,note_on,,0,0,16,,,,,,,,,,,,,,,15,,,62,72
14820,note_on,,1,0,11,,,,,,,,,,,,,,,14,,,66,61
14820,note_on,,0,0,16,,,,,,,,,,,,,,,15,,,66,72
14820,note_on,,1,0,15,,,,,,,,,,,,,,,13,,,62,72
14879,note_on,,59,0,15,,,,,,,,,,,,,,,13,,,62,0
14879,note_on,,59,0,16,,,,,,,,,,,,,,,15,,,62,0
14879,note_on,,0,0,16,,,,,,,,,,,,,,,15,,,66,0
14879,note_on,,59,0,11,,,,,,,,,,,,,,,14,,,66,0
14880,note_on,,1,0,15,,,,,,,,,,,,,,,13,,,61,72
14880,note_on,,0,0,16,,,,,,,,,,,,,,,15,,,64,72
14880,note_on,,1,0,16,,,,,,,,,,,,,,,15,,,61,72
14880,note_on,,1,0,11,,,,,,,,,,,,,,,14,,,67,67
14909,note_on,,29,0,11,,,,,,,,,,,,,,,14,,,67,0
14910,note_on,,1,0,11,,,,,,,,,,,,,,,14,,,66,66
14939,note_on,,29,0,11,,,,,,,,,,,,,,,14,,,66,0
14939,note_on,,59,0,16,,,,,,,,,,,,,,,15,,,69,0
14939,note_on,,0,0,16,,,,,,,,,,,,,,,15,,,64,0
14939,note_on,,59,0,15,,,,,,,,,,,,,,,13,,,61,0
14939,note_on,,0,0,16,,,,,,,,,,,,,,,15,,,61,0
14940,note_on,,1,0,11,,,,,,,,,,,,,,,14,,,64,62
14940,note_on,,0,0,16,,,,,,,,,,,,,,,15,,,68,72
14940,note_on,,0,0,16,,,,,,,,,,,,,,,15,,,62,72
14940,note_on,,1,0,15,,,,,,,,,,,,,,,13,,,59,72
14940,note_on,,1,0,16,,,,,,,,,,,,,,,15,,,59,72
14969,note_on,,29,0,11,,,,,,,,,,,,,,,14,,,64,0
14970,note_on,,1,0,11,,,,,,,,,,,,,,,14,,,62,59
14999,note_on,,59,0,16,,,,,,,,,,,,,,,15,,,59,0
14999,note_on,,0,0,16,,,,,,,,,,,,,,,15,,,62,0
14999,note_on,,0,0,16,,,,,,,,,,,,,,,15,,,68,0
14999,note_on,,29,0,11,,,,,,,,,,,,,,,14,,,62,0
14999,note_on,,59,0,15,,,,,,,,,,,,,,,13,,,59,0
15000,note_on,,1,0,16,,,,,,,,,,,,,,,15,,,69,72
15000,note_on,,0,0,16,,,,,,,,,,,,,,,15,,,61,72
15000,note_on,,1,0,15,,,,,,,,,,,,,,,13,,,57,72
15000,note_on,,0,0,16,,,,,,,,,,,,,,,15,,,64,72
15000,note_on,,0,0,16,,,,,,,,,,,,,,,15,,,57,72
15000,note_on,,1,0,11,,,,,,,,,,,,,,,14,,,69,59
15059,note_on,,59,0,11,,,,,,,,,,,,,,,14,,,69,0
15060,note_on,,1,0,11,,,,,,,,,,,,,,,14,,,67,61
15089,note_on,,29,0,11,,,,,,,,,,,,,,,14,,,67,0
15090,note_on,,1,0,11,,,,,,,,,,,,,,,14,,,66,64
15119,note_on,,29,0,11,,,,,,,,,,,,,,,14,,,66,0
15119,note_on,,119,0,15,,,,,,,,,,,,,,,13,,,57,0
15119,note_on,,119,0,16,,,,,,,,,,,,,,,15,,,69,0
15119,note_on,,0,0,16,,,,,,,,,,,,,,,15,,,64,0
15119,note_on,,0,0,16,,,,,,,,,,,,,,,15,,,61,0
15119,note_on,,0,0,16,,,,,,,,,,,,,,,15,,,57,0
15120,note_on,,781,0,6,,,,,,,,,,,,,,,1,,,49,72
15120,note_on,,0,0,16,,,,,,,,,,,,,,,15,,,49,72
15120,note_on,,721,0,12,,,,,,,,,,,,,,,10,,,69,72
15120,note_on,,721,0,13,,,,,,,,,,,,,,,11,,,69,72
15120,note_on,,0,0,16,,,,,,,,,,,,,,,15,,,76,72
15120,note_on,,1,0,11,,,,,,,,,,,,,,,14,,,64,63
15120,note_on,,1,0,15,,,,,,,,,,,,,,,13,,,49,72
15120,note_on,,0,0,16,,,,,,,,,,,,,,,15,,,64,72
15120,note_on,,1,0,16,,,,,,,,,,,,,,,15,,,69,72
15179,note_on,,59,0,16,,,,,,,,,,,,,,,15,,,69,0
15179,note_on,,59,0,12,,,,,,,,,,,,,,,10,,,69,0
15179,note_on,,0,0,16,,,,,,,,,,,,,,,15,,,49,0
15179,note_on,,59,0,13,,,,,,,,,,,,,,,11,,,69,0
15179,note_on,,59,0,15,,,,,,,,,,,,,,,13,,,49,0
15179,note_on,,59,0,6,,,,,,,,,,,,,,,1,,,49,0
15179,note_on,,0,0,16,,,,,,,,,,,,,,,15,,,76,0
15179,note_on,,0,0,16,,,,,,,,,,,,,,,15,,,64,0
15179,note_on,,59,0,11,,,,,,,,,,,,,,,14,,,64,0
15180,note_on,,0,0,16,,,,,,,,,,,,,,,15,,,69,72
15180,note_on,,1,0,15,,,,,,,,,,,,,,,13,,,50,72
15180,note_on,,0,0,16,,,,,,,,,,,,,,,15,,,50,72
15180,note_on,,0,0,16,,,,,,,,,,,,,,,15,,,62,72
15180,note_on,,1,0,16,,,,,,,,,,,,,,,15,,,66,72
15180,note_on,,1,0,6,,,,,,,,,,,,,,,1,,,50,72
15180,note_on,,1,0,13,,,,,,,,,,,,,,,11,,,78,72
15180,note_on,,1,0,12,,,,,,,,,,,,,,,10,,,78,72
15239,note_on,,59,0,16,,,,,,,,,,,,,,,15,,,50,0
15239,note_on,,59,0,12,,,,,,,,,,,,,,,10,,,78,0
15239,note_on,,59,0,6,,,,,,,,,,,,,,,1,,,50,0
15239,note_on,,59,0,13,,,,,,,,,,,,,,,11,,,78,0
15239,note_on,,59,0,15,,,,,,,,,,,,,,,13,,,50,0
15240,note_on,,1,0,6,,,,,,,,,,,,,,,1,,,49,72
15240,note_on,,1,0,13,,,,,,,,,,,,,,,11,,,79,72
15240,note_on,,1,0,12,,,,,,,,,,,,,,,10,,,79,72
15240,note_on,,1,0,15,,,,,,,,,,,,,,,13,,,49,72
15240,note_on,,1,0,16,,,,,,,,,,,,,,,15,,,49,72
15269,note_on,,29,0,12,,,,,,,,,,,,,,,10,,,79,0
15269,note_on,,29,0,13,,,,,,,,,,,,,,,11,,,79,0
15270,note_on,,1,0,12,,,,,,,,,,,,,,,10,,,78,72
15270,note_on,,1,0,13,,,,,,,,,,,,,,,11,,,78,72
15299,note_on,,0,0,16,,,,,,,,,,,,,,,15,,,69,0
15299,note_on,,29,0,13,,,,,,,,,,,,,,,11,,,78,0
15299,note_on,,59,0,16,,,,,,,,,,,,,,,15,,,66,0
15299,note_on,,59,0,6,,,,,,,,,,,,,,,1,,,49,0
15299,note_on,,0,0,16,,,,,,,,,,,,,,,15,,,49,0
15299,note_on,,59,0,15,,,,,,,,,,,,,,,13,,,49,0
15299,note_on,,29,0,12,,,,,,,,,,,,,,,10,,,78,0
15300,note_on,,1,0,13,,,,,,,,,,,,,,,11,,,76,72
15300,note_on,,1,0,6,,,,,,,,,,,,,,,1,,,47,72
15300,note_on,,1,0,12,,,,,,,,,,,,,,,10,,,76,72
15300,note_on,,1,0,16,,,,,,,,,,,,,,,15,,,68,72
15300,note_on,,0,0,16,,,,,,,,,,,,,,,15,,,47,72
15300,note_on,,0,0,16,,,,,,,,,,,,,,,15,,,74,72
15300,note_on,,1,0,15,,,,,,,,,,,,,,,13,,,47,72
15329,note_on,,29,0,12,,,,,,,,,,,,,,,10,,,76,0
15329,note_on,,29,0,13,,,,,,,,,,,,,,,11,,,76,0
15330,note_on,,1,0,12,,,,,,,,,,,,,,,10,,,74,72
15330,note_on,,1,0,13,,,,,,,,,,,,,,,11,,,74,72
15359,note_on,,59,0,16,,,,,,,,,,,,,,,15,,,62,0
15359,note_on,,0,0,16,,,,,,,,,,,,,,,15,,,68,0
15359,note_on,,59,0,15,,,,,,,,,,,,,,,13,,,47,0
15359,note_on,,0,0,16,,,,,,,,,,,,,,,15,,,74,0
15359,note_on,,59,0,6,,,,,,,,,,,,,,,1,,,47,0
15359,note_on,,29,0,12,,,,,,,,,,,,,,,10,,,74,0
15359,note_on,,29,0,13,,,,,,,,,,,,,,,11,,,74,0
15359,note_on,,0,0,16,,,,,,,,,,,,,,,15,,,47,0
15360,note_on,,1,0,13,,,,,,,,,,,,,,,11,,,81,72
15360,note_on,,1,0,15,,,,,,,,,,,,,,,13,,,45,72
15360,note_on,,1,0,12,,,,,,,,,,,,,,,10,,,81,72
15360,note_on,,1,0,6,,,,,,,,,,,,,,,1,,,45,72
15360,note_on,,1,0,16,,,,,,,,,,,,,,,15,,,69,72
15360,note_on,,0,0,16,,,,,,,,,,,,,,,15,,,73,72
15360,note_on,,0,0,16,,,,,,,,,,,,,,,15,,,45,72
15360,note_on,,0,0,16,,,,,,,,,,,,,,,15,,,64,72
15419,note_on,,59,0,15,,,,,,,,,,,,,,,13,,,45,0
15419,note_on,,59,0,16,,,,,,,,,,,,,,,15,,,45,0
15419,note_on,,59,0,13,,,,,,,,,,,,,,,11,,,81,0
15419,note_on,,0,0,16,,,,,,,,,,,,,,,15,,,73,0
15419,note_on,,59,0,6,,,,,,,,,,,,,,,1,,,45,0
15419,note_on,,59,0,12,,,,,,,,,,,,,,,10,,,81,0
15420,note_on,,1,0,13,,,,,,,,,,,,,,,11,,,69,72
15420,note_on,,1,0,12,,,,,,,,,,,,,,,10,,,69,72
15420,note_on,,1,0,16,,,,,,,,,,,,,,,15,,,76,72
15420,note_on,,1,0,6,,,,,,,,,,,,,,,1,,,49,72
15420,note_on,,0,0,16,,,,,,,,,,,,,,,15,,,49,72
15420,note_on,,1,0,15,,,,,,,,,,,,,,,13,,,49,72
15479,note_on,,0,0,16,,,,,,,,,,,,,,,15,,,49,0
15479,note_on,,59,0,16,,,,,,,,,,,,,,,15,,,76,0
15479,note_on,,59,0,6,,,,,,,,,,,,,,,1,,,49,0
15479,note_on,,59,0,13,,,,,,,,,,,,,,,11,,,69,0
15479,note_on,,59,0,15,,,,,,,,,,,,,,,13,,,49,0
15479,note_on,,59,0,12,,,,,,,,,,,,,,,10,,,69,0
15480,note_on,,301,0,11,,,,,,,,,,,,,,,14,,,57,64
15480,note_on,,1,0,16,,,,,,,,,,,,,,,15,,,73,72
15480,note_on,,0,0,16,,,,,,,,,,,,,,,15,,,45,72
15480,note_on,,1,0,15,,,,,,,,,,,,,,,13,,,45,72
15539,note_on,,59,0,15,,,,,,,,,,,,,,,13,,,45,0
15539,note_on,,59,0,16,,,,,,,,,,,,,,,15,,,69,0
15539,note_on,,0,0,16,,,,,,,,,,,,,,,15,,,73,0
15539,note_on,,0,0,16,,,,,,,,,,,,,,,15,,,45,0
15539,note_on,,0,0,16,,,,,,,,,,,,,,,15,,,64,0
15539,note_on,,59,0,11,,,,,,,,,,,,,,,14,,,57,0
15540,note_on,,1,0,11,,,,,,,,,,,,,,,14,,,62,63
15540,note_on,,1,0,16,,,,,,,,,,,,,,,15,,,62,72
15540,note_on,,1,0,15,,,,,,,,,,,,,,,13,,,54,72
15540,note_on,,0,0,16,,,,,,,,,,,,,,,15,,,54,72
15540,note_on,,0,0,16,,,,,,,,,,,,,,,15,,,69,72
15599,note_on,,59,0,15,,,,,,,,,,,,,,,13,,,54,0
15599,note_on,,59,0,16,,,,,,,,,,,,,,,15,,,62,0
15599,note_on,,0,0,16,,,,,,,,,,,,,,,15,,,54,0
15600,note_on,,1,0,16,,,,,,,,,,,,,,,15,,,66,72
15600,note_on,,0,0,16,,,,,,,,,,,,,,,15,,,50,72
15600,note_on,,1,0,15,,,,,,,,,,,,,,,13,,,50,72
15630,note_on,,151,0,13,,,,,,,,,,,,,,,11,,,69,48
15630,note_on,,151,0,12,,,,,,,,,,,,,,,10,,,69,48
15659,note_on,,29,0,13,,,,,,,,,,,,,,,11,,,69,0
15659,note_on,,0,0,16,,,,,,,,,,,,,,,15,,,50,0
15659,note_on,,59,0,15,,,,,,,,,,,,,,,13,,,50,0
15659,note_on,,29,0,12,,,,,,,,,,,,,,,10,,,69,0
15659,note_on,,59,0,16,,,,,,,,,,,,,,,15,,,66,0
15660,note_on,,1,0,16,,,,,,,,,,,,,,,15,,,54,72
15660,note_on,,0,0,16,,,,,,,,,,,,,,,15,,,62,72
15660,note_on,,1,0,15,,,,,,,,,,,,,,,13,,,54,72
15660,note_on,,1,0,12,,,,,,,,,,,,,,,10,,,71,48
15660,note_on,,1,0,13,,,,,,,,,,,,,,,11,,,71,48
15689,note_on,,29,0,12,,,,,,,,,,,,,,,10,,,71,0
15689,note_on,,29,0,13,,,,,,,,,,,,,,,11,,,71,0
15690,note_on,,1,0,12,,,,,,,,,,,,,,,10,,,72,48
15690,note_on,,1,0,13,,,,,,,,,,,,,,,11,,,72,48
15719,note_on,,179,0,11,,,,,,,,,,,,,,,14,,,62,0
15719,note_on,,29,0,12,,,,,,,,,,,,,,,10,,,72,0
15719,note_on,,29,0,13,,,,,,,,,,,,,,,11,,,72,0
15719,note_on,,59,0,16,,,,,,,,,,,,,,,15,,,69,0
15719,note_on,,0,0,16,,,,,,,,,,,,,,,15,,,54,0
15719,note_on,,59,0,15,,,,,,,,,,,,,,,13,,,54,0
15719,note_on,,0,0,16,,,,,,,,,,,,,,,15,,,62,0
15720,note_on,,0,0,16,,,,,,,,,,,,,,,15,,,62,72
15720,note_on,,1,0,15,,,,,,,,,,,,,,,13,,,55,72
15720,note_on,,0,0,16,,,,,,,,,,,,,,,15,,,71,72
15720,note_on,,0,0,16,,,,,,,,,,,,,,,15,,,55,72
15720,note_on,,1,0,13,,,,,,,,,,,,,,,11,,,71,48
15720,note_on,,1,0,12,,,,,,,,,,,,,,,10,,,71,48
15720,note_on,,1,0,16,,,,,,,,,,,,,,,15,,,74,72
15720,note_on,,0,0,16,,,,,,,,,,,,,,,15,,,67,72
15749,note_on,,29,0,13,,,,,,,,,,,,,,,11,,,71,0
15749,note_on,,29,0,12,,,,,,,,,,,,,,,10,,,71,0
15750,note_on,,1,0,13,,,,,,,,,,,,,,,11,,,69,48
15750,note_on,,1,0,12,,,,,,,,,,,,,,,10,,,69,48
15779,note_on,,29,0,13,,,,,,,,,,,,,,,11,,,69,0
15779,note_on,,29,0,12,,,,,,,,,,,,,,,10,,,69,0
15780,note_on,,1,0,12,,,,,,,,,,,,,,,10,,,67,48
15780,note_on,,1,0,13,,,,,,,,,,,,,,,11,,,67,48
15839,note_on,,59,0,13,,,,,,,,,,,,,,,11,,,67,0
15839,note_on,,0,0,16,,,,,,,,,,,,,,,15,,,67,0
15839,note_on,,119,0,16,,,,,,,,,,,,,,,15,,,74,0
15839,note_on,,0,0,16,,,,,,,,,,,,,,,15,,,55,0
15839,note_on,,0,0,16,,,,,,,,,,,,,,,15,,,62,0
15839,note_on,,59,0,12,,,,,,,,,,,,,,,10,,,67,0
15839,note_on,,119,0,15,,,,,,,,,,,,,,,13,,,55,0
15839,note_on,,0,0,16,,,,,,,,,,,,,,,15,,,71,0
15840,note_on,,121,0,11,,,,,,,,,,,,,,,14,,,59,68
15899,note_on,,59,0,11,,,,,,,,,,,,,,,14,,,59,0
15900,note_on,,1,0,11,,,,,,,,,,,,,,,14,,,64,63
15900,note_on,,61,0,15,,,,,,,,,,,,,,,13,,,56,72
15900,note_on,,61,0,16,,,,,,,,,,,,,,,15,,,71,72
15900,note_on,,0,0,16,,,,,,,,,,,,,,,15,,,64,72
15900,note_on,,0,0,16,,,,,,,,,,,,,,,15,,,56,72
15959,note_on,,59,0,15,,,,,,,,,,,,,,,13,,,56,0
15959,note_on,,59,0,16,,,,,,,,,,,,,,,15,,,64,0
15959,note_on,,0,0,16,,,,,,,,,,,,,,,15,,,56,0
15960,note_on,,1,0,16,,,,,,,,,,,,,,,15,,,68,72
15960,note_on,,0,0,16,,,,,,,,,,,,,,,15,,,52,72
15960,note_on,,1,0,15,,,,,,,,,,,,,,,13,,,52,72
15990,note_on,,151,0,12,,,,,,,,,,,,,,,10,,,71,48
15990,note_on,,151,0,13,,,,,,,,,,,,,,,11,,,71,48
16019,note_on,,0,0,16,,,,,,,,,,,,,,,15,,,52,0
16019,note_on,,59,0,16,,,,,,,,,,,,,,,15,,,68,0
16019,note_on,,29,0,12,,,,,,,,,,,,,,,10,,,71,0
16019,note_on,,59,0,15,,,,,,,,,,,,,,,13,,,52,0
16019,note_on,,29,0,13,,,,,,,,,,,,,,,11,,,71,0
16020,note_on,,1,0,16,,,,,,,,,,,,,,,15,,,56,72
16020,note_on,,1,0,12,,,,,,,,,,,,,,,10,,,73,48
16020,note_on,,1,0,15,,,,,,,,,,,,,,,13,,,56,72
16020,note_on,,0,0,16,,,,,,,,,,,,,,,15,,,64,72
16020,note_on,,1,0,13,,,,,,,,,,,,,,,11,,,73,48
16049,note_on,,29,0,12,,,,,,,,,,,,,,,10,,,73,0
16049,note_on,,29,0,13,,,,,,,,,,,,,,,11,,,73,0
16050,note_on,,1,0,12,,,,,,,,,,,,,,,10,,,74,48
16050,note_on,,1,0,13,,,,,,,,,,,,,,,11,,,74,48
16079,note_on,,29,0,13,,,,,,,,,,,,,,,11,,,74,0
16079,note_on,,0,0,16,,,,,,,,,,,,,,,15,,,64,0
16079,note_on,,59,0,15,,,,,,,,,,,,,,,13,,,56,0
16079,note_on,,179,0,11,,,,,,,,,,,,,,,14,,,64,0
16079,note_on,,0,0,16,,,,,,,,,,,,,,,15,,,56,0
16079,note_on,,59,0,16,,,,,,,,,,,,,,,15,,,71,0
16079,note_on,,29,0,12,,,,,,,,,,,,,,,10,,,74,0
16080,note_on,,0,0,16,,,,,,,,,,,,,,,15,,,64,72
16080,note_on,,1,0,13,,,,,,,,,,,,,,,11,,,73,48
16080,note_on,,0,0,16,,,,,,,,,,,,,,,15,,,57,72
16080,note_on,,1,0,16,,,,,,,,,,,,,,,15,,,76,72
16080,note_on,,1,0,15,,,,,,,,,,,,,,,13,,,57,72
16080,note_on,,0,0,16,,,,,,,,,,,,,,,15,,,69,72
16080,note_on,,0,0,16,,,,,,,,,,,,,,,15,,,73,72
16080,note_on,,1,0,12,,,,,,,,,,,,,,,10,,,73,48
16109,note_on,,29,0,12,,,,,,,,,,,,,,,10,,,73,0
16109,note_on,,29,0,13,,,,,,,,,,,,,,,11,,,73,0
16110,note_on,,1,0,13,,,,,,,,,,,,,,,11,,,71,48
16110,note_on,,1,0,12,,,,,,,,,,,,,,,10,,,71,48
16139,note_on,,29,0,12,,,,,,,,,,,,,,,10,,,71,0
16139,note_on,,29,0,13,,,,,,,,,,,,,,,11,,,71,0
16140,note_on,,1,0,13,,,,,,,,,,,,,,,11,,,69,48
16140,note_on,,1,0,12,,,,,,,,,,,,,,,10,,,69,48
16199,note_on,,119,0,15,,,,,,,,,,,,,,,13,,,57,0
16199,note_on,,119,0,16,,,,,,,,,,,,,,,15,,,76,0
16199,note_on,,59,0,12,,,,,,,,,,,,,,,10,,,69,0
16199,note_on,,59,0,13,,,,,,,,,,,,,,,11,,,69,0
16199,note_on,,0,0,16,,,,,,,,,,,,,,,15,,,73,0
16199,note_on,,0,0,16,,,,,,,,,,,,,,,15,,,69,0
16199,note_on,,0,0,16,,,,,,,,,,,,,,,15,,,64,0
16199,note_on,,0,0,16,,,,,,,,,,,,,,,15,,,57,0
16200,note_on,,121,0,11,,,,,,,,,,,,,,,14,,,61,61
16259,note_on,,59,0,11,,,,,,,,,,,,,,,14,,,61,0
16260,note_on,,0,0,16,,,,,,,,,,,,,,,15,,,58,72
16260,note_on,,0,0,16,,,,,,,,,,,,,,,15,,,66,72
16260,note_on,,61,0,16,,,,,,,,,,,,,,,15,,,73,72
16260,note_on,,1,0,11,,,,,,,,,,,,,,,14,,,66,64
16260,note_on,,61,0,15,,,,,,,,,,,,,,,13,,,58,72
16319,note_on,,0,0,16,,,,,,,,,,,,,,,15,,,58,0
16319,note_on,,59,0,15,,,,,,,,,,,,,,,13,,,58,0
16319,note_on,,59,0,16,,,,,,,,,,,,,,,15,,,66,0
16320,note_on,,1,0,15,,,,,,,,,,,,,,,13,,,54,72
16320,note_on,,1,0,16,,,,,,,,,,,,,,,15,,,70,72
16320,note_on,,0,0,16,,,,,,,,,,,,,,,15,,,54,72
16350,note_on,,151,0,12,,,,,,,,,,,,,,,10,,,73,48
16350,note_on,,151,0,13,,,,,,,,,,,,,,,11,,,73,48
16379,note_on,,59,0,16,,,,,,,,,,,,,,,15,,,70,0
16379,note_on,,59,0,15,,,,,,,,,,,,,,,13,,,54,0
16379,note_on,,29,0,13,,,,,,,,,,,,,,,11,,,73,0
16379,note_on,,0,0,16,,,,,,,,,,,,,,,15,,,54,0
16379,note_on,,29,0,12,,,,,,,,,,,,,,,10,,,73,0
16380,note_on,,1,0,16,,,,,,,,,,,,,,,15,,,66,72
16380,note_on,,0,0,16,,,,,,,,,,,,,,,15,,,58,72
16380,note_on,,1,0,13,,,,,,,,,,,,,,,11,,,74,48
16380,note_on,,1,0,15,,,,,,,,,,,,,,,13,,,58,72
16380,note_on,,1,0,12,,,,,,,,,,,,,,,10,,,74,48
16409,note_on,,29,0,13,,,,,,,,,,,,,,,11,,,74,0
16409,note_on,,29,0,12,,,,,,,,,,,,,,,10,,,74,0
16410,note_on,,1,0,12,,,,,,,,,,,,,,,10,,,76,48
16410,note_on,,1,0,13,,,,,,,,,,,,,,,11,,,76,48
16439,note_on,,0,0,16,,,,,,,,,,,,,,,15,,,66,0
16439,note_on,,29,0,13,,,,,,,,,,,,,,,11,,,76,0
16439,note_on,,29,0,12,,,,,,,,,,,,,,,10,,,76,0
16439,note_on,,0,0,16,,,,,,,,,,,,,,,15,,,58,0
16439,note_on,,59,0,16,,,,,,,,,,,,,,,15,,,73,0
16439,note_on,,59,0,15,,,,,,,,,,,,,,,13,,,58,0
16439,note_on,,179,0,11,,,,,,,,,,,,,,,14,,,66,0
16440,note_on,,0,0,16,,,,,,,,,,,,,,,15,,,74,72
16440,note_on,,1,0,16,,,,,,,,,,,,,,,15,,,78,72
16440,note_on,,0,0,16,,,,,,,,,,,,,,,15,,,66,72
16440,note_on,,0,0,16,,,,,,,,,,,,,,,15,,,71,72
16440,note_on,,1,0,12,,,,,,,,,,,,,,,10,,,74,48
16440,note_on,,1,0,15,,,,,,,,,,,,,,,13,,,59,72
16440,note_on,,1,0,13,,,,,,,,,,,,,,,11,,,74,48
16440,note_on,,0,0,16,,,,,,,,,,,,,,,15,,,59,72
16469,note_on,,29,0,12,,,,,,,,,,,,,,,10,,,74,0
16469,note_on,,29,0,13,,,,,,,,,,,,,,,11,,,74,0
16470,note_on,,1,0,12,,,,,,,,,,,,,,,10,,,73,48
16470,note_on,,1,0,13,,,,,,,,,,,,,,,11,,,73,48
16499,note_on,,29,0,13,,,,,,,,,,,,,,,11,,,73,0
16499,note_on,,29,0,12,,,,,,,,,,,,,,,10,,,73,0
16500,note_on,,61,0,11,,,,,,,,,,,,,,,14,,,62,68
16500,note_on,,1,0,12,,,,,,,,,,,,,,,10,,,71,48
16500,note_on,,1,0,13,,,,,,,,,,,,,,,11,,,71,48
16559,note_on,,59,0,13,,,,,,,,,,,,,,,11,,,71,0
16559,note_on,,0,0,16,,,,,,,,,,,,,,,15,,,71,0
16559,note_on,,0,0,16,,,,,,,,,,,,,,,15,,,66,0
16559,note_on,,119,0,15,,,,,,,,,,,,,,,13,,,59,0
16559,note_on,,0,0,16,,,,,,,,,,,,,,,15,,,59,0
16559,note_on,,0,0,16,,,,,,,,,,,,,,,15,,,74,0
16559,note_on,,119,0,16,,,,,,,,,,,,,,,15,,,78,0
16559,note_on,,59,0,12,,,,,,,,,,,,,,,10,,,71,0
16559,note_on,,59,0,11,,,,,,,,,,,,,,,14,,,62,0
16560,note_on,,1,0,11,,,,,,,,,,,,,,,14,,,62,64
16619,note_on,,59,0,11,,,,,,,,,,,,,,,14,,,62,0
16620,note_on,,61,0,15,,,,,,,,,,,,,,,13,,,59,72
16620,note_on,,1,0,11,,,,,,,,,,,,,,,14,,,67,65
16620,note_on,,61,0,16,,,,,,,,,,,,,,,15,,,74,72
16620,note_on,,0,0,16,,,,,,,,,,,,,,,15,,,59,72
16620,note_on,,0,0,16,,,,,,,,,,,,,,,15,,,67,72
16650,note_on,,91,0,13,,,,,,,,,,,,,,,11,,,78,48
16650,note_on,,91,0,12,,,,,,,,,,,,,,,10,,,78,48
16679,note_on,,59,0,16,,,,,,,,,,,,,,,15,,,74,0
16679,note_on,,0,0,16,,,,,,,,,,,,,,,15,,,67,0
16679,note_on,,0,0,16,,,,,,,,,,,,,,,15,,,59,0
16679,note_on,,29,0,13,,,,,,,,,,,,,,,11,,,78,0
16679,note_on,,29,0,12,,,,,,,,,,,,,,,10,,,78,0
16679,note_on,,59,0,15,,,,,,,,,,,,,,,13,,,59,0
16680,note_on,,1,0,12,,,,,,,,,,,,,,,10,,,76,48
16680,note_on,,0,0,16,,,,,,,,,,,,,,,15,,,67,72
16680,note_on,,0,0,16,,,,,,,,,,,,,,,15,,,61,72
16680,note_on,,0,0,16,,,,,,,,,,,,,,,15,,,69,72
16680,note_on,,1,0,16,,,,,,,,,,,,,,,15,,,64,72
16680,note_on,,1,0,15,,,,,,,,,,,,,,,13,,,61,72
16680,note_on,,1,0,13,,,,,,,,,,,,,,,11,,,76,48
16709,note_on,,29,0,13,,,,,,,,,,,,,,,11,,,76,0
16709,note_on,,29,0,12,,,,,,,,,,,,,,,10,,,76,0
16710,note_on,,1,0,13,,,,,,,,,,,,,,,11,,,74,48
16710,note_on,,1,0,12,,,,,,,,,,,,,,,10,,,74,48
16739,note_on,,29,0,13,,,,,,,,,,,,,,,11,,,74,0
16739,note_on,,59,0,15,,,,,,,,,,,,,,,13,,,61,0
16739,note_on,,29,0,12,,,,,,,,,,,,,,,10,,,74,0
16739,note_on,,59,0,16,,,,,,,,,,,,,,,15,,,61,0
16740,note_on,,1,0,15,,,,,,,,,,,,,,,13,,,57,72
16740,note_on,,1,0,16,,,,,,,,,,,,,,,15,,,57,72
16740,note_on,,1,0,12,,,,,,,,,,,,,,,10,,,73,48
16740,note_on,,1,0,13,,,,,,,,,,,,,,,11,,,73,48
16769,note_on,,29,0,12,,,,,,,,,,,,,,,10,,,73,0
16769,note_on,,29,0,13,,,,,,,,,,,,,,,11,,,73,0
16770,note_on,,1,0,13,,,,,,,,,,,,,,,11,,,71,48
16770,note_on,,1,0,12,,,,,,,,,,,,,,,10,,,71,48
16799,note_on,,29,0,13,,,,,,,,,,,,,,,11,,,71,0
16799,note_on,,59,0,16,,,,,,,,,,,,,,,15,,,64,0
16799,note_on,,59,0,15,,,,,,,,,,,,,,,13,,,57,0
16799,note_on,,0,0,16,,,,,,,,,,,,,,,15,,,67,0
16799,note_on,,179,0,11,,,,,,,,,,,,,,,14,,,67,0
16799,note_on,,0,0,16,,,,,,,,,,,,,,,15,,,57,0
16799,note_on,,0,0,16,,,,,,,,,,,,,,,15,,,69,0
16799,note_on,,29,0,12,,,,,,,,,,,,,,,10,,,71,0
16800,note_on,,0,0,16,,,,,,,,,,,,,,,15,,,62,72
16800,note_on,,0,0,16,,,,,,,,,,,,,,,15,,,66,72
16800,note_on,,1,0,16,,,,,,,,,,,,,,,15,,,69,72
16800,note_on,,1,0,11,,,,,,,,,,,,,,,14,,,66,60
16800,note_on,,1,0,13,,,,,,,,,,,,,,,11,,,69,48
16800,note_on,,1,0,12,,,,,,,,,,,,,,,10,,,69,48
16800,note_on,,1,0,15,,,,,,,,,,,,,,,13,,,62,72
16859,note_on,,59,0,11,,,,,,,,,,,,,,,14,,,66,0
16859,note_on,,59,0,15,,,,,,,,,,,,,,,13,,,62,0
16859,note_on,,0,0,16,,,,,,,,,,,,,,,15,,,62,0
16859,note_on,,59,0,16,,,,,,,,,,,,,,,15,,,66,0
16860,note_on,,1,0,11,,,,,,,,,,,,,,,14,,,64,65
16860,note_on,,0,0,16,,,,,,,,,,,,,,,15,,,64,72
16860,note_on,,1,0,16,,,,,,,,,,,,,,,15,,,61,72
16860,note_on,,1,0,15,,,,,,,,,,,,,,,13,,,61,72
16919,note_on,,59,0,16,,,,,,,,,,,,,,,15,,,61,0
16919,note_on,,119,0,12,,,,,,,,,,,,,,,10,,,69,0
16919,note_on,,0,0,16,,,,,,,,,,,,,,,15,,,64,0
16919,note_on,,59,0,15,,,,,,,,,,,,,,,13,,,61,0
16919,note_on,,119,0,13,,,,,,,,,,,,,,,11,,,69,0
16919,note_on,,59,0,11,,,,,,,,,,,,,,,14,,,64,0
16920,note_on,,1,0,11,,,,,,,,,,,,,,,14,,,62,63
16920,note_on,,0,0,16,,,,,,,,,,,,,,,15,,,59,72
16920,note_on,,1,0,15,,,,,,,,,,,,,,,13,,,59,72
16920,note_on,,1,0,16,,,,,,,,,,,,,,,15,,,62,72
16979,note_on,,59,0,15,,,,,,,,,,,,,,,13,,,59,0
16979,note_on,,59,0,11,,,,,,,,,,,,,,,14,,,62,0
16979,note_on,,0,0,16,,,,,,,,,,,,,,,15,,,62,0
16979,note_on,,59,0,16,,,,,,,,,,,,,,,15,,,69,0
16979,note_on,,0,0,16,,,,,,,,,,,,,,,15,,,59,0
16980,note_on,,0,0,16,,,,,,,,,,,,,,,15,,,69,72
16980,note_on,,1,0,16,,,,,,,,,,,,,,,15,,,54,72
16980,note_on,,0,0,16,,,,,,,,,,,,,,,15,,,57,72
16980,note_on,,0,0,16,,,,,,,,,,,,,,,15,,,74,72
16980,note_on,,1,0,11,,,,,,,,,,,,,,,14,,,69,67
16980,note_on,,1,0,15,,,,,,,,,,,,,,,13,,,54,72
17070,note_on,,151,0,13,,,,,,,,,,,,,,,11,,,81,48
17070,note_on,,151,0,12,,,,,,,,,,,,,,,10,,,81,48
17099,note_on,,119,0,16,,,,,,,,,,,,,,,15,,,54,0
17099,note_on,,29,0,12,,,,,,,,,,,,,,,10,,,81,0
17099,note_on,,29,0,13,,,,,,,,,,,,,,,11,,,81,0
17099,note_on,,0,0,16,,,,,,,,,,,,,,,15,,,57,0
17099,note_on,,119,0,15,,,,,,,,,,,,,,,13,,,54,0
17100,note_on,,1,0,15,,,,,,,,,,,,,,,13,,,62,48
17100,note_on,,1,0,12,,,,,,,,,,,,,,,10,,,83,48
17100,note_on,,1,0,16,,,,,,,,,,,,,,,15,,,62,48
17100,note_on,,1,0,13,,,,,,,,,,,,,,,11,,,83,48
17100,note_on,,1621,0,6,,,,,,,,,,,,,,,1,,,62,48
17100,note_on,,0,0,16,,,,,,,,,,,,,,,15,,,66,48
17129,note_on,,29,0,13,,,,,,,,,,,,,,,11,,,83,0
17129,note_on,,29,0,12,,,,,,,,,,,,,,,10,,,83,0
17130,note_on,,1,0,12,,,,,,,,,,,,,,,10,,,81,48
17130,note_on,,1,0,13,,,,,,,,,,,,,,,11,,,81,48
17159,note_on,,29,0,12,,,,,,,,,,,,,,,10,,,81,0
17159,note_on,,59,0,15,,,,,,,,,,,,,,,13,,,62,0
17159,note_on,,179,0,11,,,,,,,,,,,,,,,14,,,69,0
17159,note_on,,0,0,16,,,,,,,,,,,,,,,15,,,74,0
17159,note_on,,0,0,16,,,,,,,,,,,,,,,15,,,62,0
17159,note_on,,0,0,16,,,,,,,,,,,,,,,15,,,66,0
17159,note_on,,59,0,6,,,,,,,,,,,,,,,1,,,62,0
17159,note_on,,29,0,13,,,,,,,,,,,,,,,11,,,81,0
17159,note_on,,59,0,16,,,,,,,,,,,,,,,15,,,69,0
17160,note_on,,1,0,12,,,,,,,,,,,,,,,10,,,79,48
17160,note_on,,1,0,16,,,,,,,,,,,,,,,15,,,67,48
17160,note_on,,1,0,13,,,,,,,,,,,,,,,11,,,79,48
17160,note_on,,0,0,16,,,,,,,,,,,,,,,15,,,73,48
17160,note_on,,0,0,16,,,,,,,,,,,,,,,15,,,52,48
17160,note_on,,0,0,16,,,,,,,,,,,,,,,15,,,76,48
17160,note_on,,1,0,15,,,,,,,,,,,,,,,13,,,52,48
17160,note_on,,1,0,6,,,,,,,,,,,,,,,1,,,52,48
17189,note_on,,29,0,13,,,,,,,,,,,,,,,11,,,79,0
17189,note_on,,29,0,12,,,,,,,,,,,,,,,10,,,79,0
17190,note_on,,1,0,12,,,,,,,,,,,,,,,10,,,81,48
17190,note_on,,1,0,13,,,,,,,,,,,,,,,11,,,81,48
17219,note_on,,29,0,13,,,,,,,,,,,,,,,11,,,81,0
17219,note_on,,29,0,12,,,,,,,,,,,,,,,10,,,81,0
17220,note_on,,1,0,13,,,,,,,,,,,,,,,11,,,79,48
17220,note_on,,1,0,12,,,,,,,,,,,,,,,10,,,79,48
17249,note_on,,29,0,13,,,,,,,,,,,,,,,11,,,79,0
17249,note_on,,29,0,12,,,,,,,,,,,,,,,10,,,79,0
17250,note_on,,1,0,12,,,,,,,,,,,,,,,10,,,69,48
17250,note_on,,1,0,13,,,,,,,,,,,,,,,11,,,69,48
17279,note_on,,29,0,13,,,,,,,,,,,,,,,11,,,69,0
17279,note_on,,119,0,6,,,,,,,,,,,,,,,1,,,52,0
17279,note_on,,29,0,12,,,,,,,,,,,,,,,10,,,69,0
17279,note_on,,0,0,16,,,,,,,,,,,,,,,15,,,52,0
17279,note_on,,119,0,16,,,,,,,,,,,,,,,15,,,67,0
17279,note_on,,119,0,15,,,,,,,,,,,,,,,13,,,52,0
17280,note_on,,0,0,16,,,,,,,,,,,,,,,15,,,61,48
17280,note_on,,1,0,15,,,,,,,,,,,,,,,13,,,61,48
17280,note_on,,1,0,16,,,,,,,,,,,,,,,15,,,64,48
17280,note_on,,1,0,6,,,,,,,,,,,,,,,1,,,61,48
17280,note_on,,1,0,12,,,,,,,,,,,,,,,10,,,71,48
17280,note_on,,1,0,13,,,,,,,,,,,,,,,11,,,71,48
17309,note_on,,29,0,13,,,,,,,,,,,,,,,11,,,71,0
17309,note_on,,29,0,12,,,,,,,,,,,,,,,10,,,71,0
17310,note_on,,1,0,13,,,,,,,,,,,,,,,11,,,69,48
17310,note_on,,1,0,12,,,,,,,,,,,,,,,10,,,69,48
17339,note_on,,0,0,16,,,,,,,,,,,,,,,15,,,73,0
17339,note_on,,0,0,16,,,,,,,,,,,,,,,15,,,61,0
17339,note_on,,0,0,16,,,,,,,,,,,,,,,15,,,64,0
17339,note_on,,59,0,6,,,,,,,,,,,,,,,1,,,61,0
17339,note_on,,29,0,12,,,,,,,,,,,,,,,10,,,69,0
17339,note_on,,29,0,13,,,,,,,,,,,,,,,11,,,69,0
17339,note_on,,59,0,15,,,,,,,,,,,,,,,13,,,61,0
17339,note_on,,59,0,16,,,,,,,,,,,,,,,15,,,76,0
17340,note_on,,0,0,16,,,,,,,,,,,,,,,15,,,66,48
17340,note_on,,1,0,15,,,,,,,,,,,,,,,13,,,62,48
17340,note_on,,0,0,16,,,,,,,,,,,,,,,15,,,62,48
17340,note_on,,0,0,16,,,,,,,,,,,,,,,15,,,69,48
17340,note_on,,1,0,6,,,,,,,,,,,,,,,1,,,62,48
17340,note_on,,1,0,16,,,,,,,,,,,,,,,15,,,62,48
17340,note_on,,1,0,13,,,,,,,,,,,,,,,11,,,78,48
17340,note_on,,1,0,12,,,,,,,,,,,,,,,10,,,78,48
17369,note_on,,29,0,13,,,,,,,,,,,,,,,11,,,78,0
17369,note_on,,29,0,12,,,,,,,,,,,,,,,10,,,78,0
17370,note_on,,1,0,13,,,,,,,,,,,,,,,11,,,79,48
17370,note_on,,1,0,12,,,,,,,,,,,,,,,10,,,79,48
17399,note_on,,29,0,12,,,,,,,,,,,,,,,10,,,79,0
17399,note_on,,29,0,13,,,,,,,,,,,,,,,11,,,79,0
17400,note_on,,1,0,12,,,,,,,,,,,,,,,10,,,78,48
17400,note_on,,1,0,13,,,,,,,,,,,,,,,11,,,78,48
17429,note_on,,29,0,12,,,,,,,,,,,,,,,10,,,78,0
17429,note_on,,29,0,13,,,,,,,,,,,,,,,11,,,78,0
17430,note_on,,1,0,12,,,,,,,,,,,,,,,10,,,69,48
17430,note_on,,1,0,13,,,,,,,,,,,,,,,11,,,69,48
17459,note_on,,119,0,15,,,,,,,,,,,,,,,13,,,62,0
17459,note_on,,119,0,16,,,,,,,,,,,,,,,15,,,62,0
17459,note_on,,119,0,6,,,,,,,,,,,,,,,1,,,62,0
17459,note_on,,29,0,13,,,,,,,,,,,,,,,11,,,69,0
17459,note_on,,29,0,12,,,,,,,,,,,,,,,10,,,69,0
17460,note_on,,1,0,13,,,,,,,,,,,,,,,11,,,71,48
17460,note_on,,301,0,11,,,,,,,,,,,,,,,14,,,69,62
17460,note_on,,1,0,12,,,,,,,,,,,,,,,10,,,71,48
17460,note_on,,1,0,15,,,,,,,,,,,,,,,13,,,54,48
17460,note_on,,1,0,16,,,,,,,,,,,,,,,15,,,54,48
17489,note_on,,29,0,13,,,,,,,,,,,,,,,11,,,71,0
17489,note_on,,29,0,12,,,,,,,,,,,,,,,10,,,71,0
17490,note_on,,1,0,12,,,,,,,,,,,,,,,10,,,69,48
17490,note_on,,1,0,13,,,,,,,,,,,,,,,11,,,69,48
17519,note_on,,59,0,11,,,,,,,,,,,,,,,14,,,69,0
17519,note_on,,0,0,16,,,,,,,,,,,,,,,15,,,54,0
17519,note_on,,0,0,16,,,,,,,,,,,,,,,15,,,66,0
17519,note_on,,0,0,16,,,,,,,,,,,,,,,15,,,69,0
17519,note_on,,59,0,16,,,,,,,,,,,,,,,15,,,62,0
17519,note_on,,59,0,15,,,,,,,,,,,,,,,13,,,54,0
17519,note_on,,29,0,13,,,,,,,,,,,,,,,11,,,69,0
17519,note_on,,29,0,12,,,,,,,,,,,,,,,10,,,69,0
17520,note_on,,1,0,15,,,,,,,,,,,,,,,13,,,52,48
17520,note_on,,0,0,16,,,,,,,,,,,,,,,15,,,67,48
17520,note_on,,0,0,16,,,,,,,,,,,,,,,15,,,61,48
17520,note_on,,1,0,13,,,,,,,,,,,,,,,11,,,76,48
17520,note_on,,1,0,16,,,,,,,,,,,,,,,15,,,52,48
17520,note_on,,1,0,12,,,,,,,,,,,,,,,10,,,76,48
17520,note_on,,0,0,16,,,,,,,,,,,,,,,15,,,55,48
17520,note_on,,1,0,11,,,,,,,,,,,,,,,14,,,67,64
17549,note_on,,29,0,11,,,,,,,,,,,,,,,14,,,67,0
17550,note_on,,1,0,11,,,,,,,,,,,,,,,14,,,66,64
17579,note_on,,59,0,13,,,,,,,,,,,,,,,11,,,76,0
17579,note_on,,59,0,15,,,,,,,,,,,,,,,13,,,52,0
17579,note_on,,29,0,11,,,,,,,,,,,,,,,14,,,66,0
17579,note_on,,59,0,12,,,,,,,,,,,,,,,10,,,76,0
17579,note_on,,0,0,16,,,,,,,,,,,,,,,15,,,61,0
17579,note_on,,59,0,16,,,,,,,,,,,,,,,15,,,52,0
17580,note_on,,1,0,16,,,,,,,,,,,,,,,15,,,49,48
17580,note_on,,0,0,16,,,,,,,,,,,,,,,15,,,64,48
17580,note_on,,1,0,13,,,,,,,,,,,,,,,11,,,69,48
17580,note_on,,1,0,11,,,,,,,,,,,,,,,14,,,64,65
17580,note_on,,1,0,12,,,,,,,,,,,,,,,10,,,69,48
17580,note_on,,1,0,15,,,,,,,,,,,,,,,13,,,49,48
17639,note_on,,0,0,16,,,,,,,,,,,,,,,15,,,64,0
17639,note_on,,59,0,16,,,,,,,,,,,,,,,15,,,49,0
17639,note_on,,59,0,13,,,,,,,,,,,,,,,11,,,69,0
17639,note_on,,59,0,11,,,,,,,,,,,,,,,14,,,64,0
17639,note_on,,59,0,15,,,,,,,,,,,,,,,13,,,49,0
17639,note_on,,59,0,12,,,,,,,,,,,,,,,10,,,69,0
17640,note_on,,1,0,16,,,,,,,,,,,,,,,15,,,45,48
17640,note_on,,1,0,11,,,,,,,,,,,,,,,14,,,67,68
17640,note_on,,1,0,15,,,,,,,,,,,,,,,13,,,45,48
17640,note_on,,0,0,16,,,,,,,,,,,,,,,15,,,61,48
17699,note_on,,59,0,11,,,,,,,,,,,,,,,14,,,67,0
17699,note_on,,59,0,15,,,,,,,,,,,,,,,13,,,45,0
17699,note_on,,0,0,16,,,,,,,,,,,,,,,15,,,61,0
17699,note_on,,0,0,16,,,,,,,,,,,,,,,15,,,45,0
17699,note_on,,0,0,16,,,,,,,,,,,,,,,15,,,55,0
17699,note_on,,59,0,16,,,,,,,,,,,,,,,15,,,67,0
17700,note_on,,1,0,15,,,,,,,,,,,,,,,13,,,50,48
17700,note_on,,0,0,16,,,,,,,,,,,,,,,15,,,66,48
17700,note_on,,0,0,16,,,,,,,,,,,,,,,15,,,57,48
17700,note_on,,0,0,16,,,,,,,,,,,,,,,15,,,62,48
17700,note_on,,1,0,16,,,,,,,,,,,,,,,15,,,50,48
17700,note_on,,1,0,11,,,,,,,,,,,,,,,14,,,66,60
17729,note_on,,29,0,11,,,,,,,,,,,,,,,14,,,66,0
17730,note_on,,1,0,11,,,,,,,,,,,,,,,14,,,64,61
17759,note_on,,59,0,15,,,,,,,,,,,,,,,13,,,50,0
17759,note_on,,29,0,11,,,,,,,,,,,,,,,14,,,64,0
17759,note_on,,59,0,16,,,,,,,,,,,,,,,15,,,50,0
17760,note_on,,1,0,15,,,,,,,,,,,,,,,13,,,54,48
17760,note_on,,1,0,11,,,,,,,,,,,,,,,14,,,62,59
17760,note_on,,1,0,16,,,,,,,,,,,,,,,15,,,54,48
17790,note_on,,151,0,13,,,,,,,,,,,,,,,11,,,69,48
17790,note_on,,151,0,12,,,,,,,,,,,,,,,10,,,69,48
17819,note_on,,59,0,16,,,,,,,,,,,,,,,15,,,54,0
17819,note_on,,29,0,13,,,,,,,,,,,,,,,11,,,69,0
17819,note_on,,59,0,15,,,,,,,,,,,,,,,13,,,54,0
17819,note_on,,59,0,11,,,,,,,,,,,,,,,14,,,62,0
17819,note_on,,29,0,12,,,,,,,,,,,,,,,10,,,69,0
17820,note_on,,1,0,16,,,,,,,,,,,,,,,15,,,50,48
17820,note_on,,1,0,11,,,,,,,,,,,,,,,14,,,66,59
17820,note_on,,1,0,13,,,,,,,,,,,,,,,11,,,71,48
17820,note_on,,1,0,15,,,,,,,,,,,,,,,13,,,50,48
17820,note_on,,1,0,12,,,,,,,,,,,,,,,10,,,71,48
17849,note_on,,29,0,12,,,,,,,,,,,,,,,10,,,71,0
17849,note_on,,29,0,13,,,,,,,,,,,,,,,11,,,71,0
17850,note_on,,1,0,13,,,,,,,,,,,,,,,11,,,69,48
17850,note_on,,1,0,12,,,,,,,,,,,,,,,10,,,69,48
17879,note_on,,0,0,16,,,,,,,,,,,,,,,15,,,66,0
17879,note_on,,59,0,16,,,,,,,,,,,,,,,15,,,62,0
17879,note_on,,59,0,11,,,,,,,,,,,,,,,14,,,66,0
17879,note_on,,29,0,12,,,,,,,,,,,,,,,10,,,69,0
17879,note_on,,29,0,13,,,,,,,,,,,,,,,11,,,69,0
17879,note_on,,59,0,15,,,,,,,,,,,,,,,13,,,50,0
17879,note_on,,0,0,16,,,,,,,,,,,,,,,15,,,57,0
17879,note_on,,0,0,16,,,,,,,,,,,,,,,15,,,50,0
17880,note_on,,1,0,11,,,,,,,,,,,,,,,14,,,64,62
17880,note_on,,1,0,12,,,,,,,,,,,,,,,10,,,79,48
17880,note_on,,0,0,16,,,,,,,,,,,,,,,15,,,52,48
17880,note_on,,1,0,15,,,,,,,,,,,,,,,13,,,52,48
17880,note_on,,1,0,13,,,,,,,,,,,,,,,11,,,79,48
17880,note_on,,1,0,16,,,,,,,,,,,,,,,15,,,55,48
17880,note_on,,0,0,16,,,,,,,,,,,,,,,15,,,64,48
17880,note_on,,0,0,16,,,,,,,,,,,,,,,15,,,61,48
17909,note_on,,29,0,12,,,,,,,,,,,,,,,10,,,79,0
17909,note_on,,29,0,13,,,,,,,,,,,,,,,11,,,79,0
17910,note_on,,1,0,12,,,,,,,,,,,,,,,10,,,81,48
17910,note_on,,1,0,13,,,,,,,,,,,,,,,11,,,81,48
17939,note_on,,29,0,12,,,,,,,,,,,,,,,10,,,81,0
17939,note_on,,29,0,13,,,,,,,,,,,,,,,11,,,81,0
17939,note_on,,59,0,11,,,,,,,,,,,,,,,14,,,64,0
17939,note_on,,59,0,16,,,,,,,,,,,,,,,15,,,52,0
17939,note_on,,59,0,15,,,,,,,,,,,,,,,13,,,52,0
17940,note_on,,1,0,11,,,,,,,,,,,,,,,14,,,57,60
17940,note_on,,1,0,12,,,,,,,,,,,,,,,10,,,79,48
17940,note_on,,1,0,16,,,,,,,,,,,,,,,15,,,49,48
17940,note_on,,1,0,15,,,,,,,,,,,,,,,13,,,49,48
17940,note_on,,1,0,13,,,,,,,,,,,,,,,11,,,79,48
17969,note_on,,29,0,12,,,,,,,,,,,,,,,10,,,79,0
17969,note_on,,29,0,13,,,,,,,,,,,,,,,11,,,79,0
17970,note_on,,1,0,13,,,,,,,,,,,,,,,11,,,69,48
17970,note_on,,1,0,12,,,,,,,,,,,,,,,10,,,69,48
17999,note_on,,59,0,11,,,,,,,,,,,,,,,14,,,57,0
17999,note_on,,59,0,16,,,,,,,,,,,,,,,15,,,49,0
17999,note_on,,59,0,15,,,,,,,,,,,,,,,13,,,49,0
17999,note_on,,29,0,13,,,,,,,,,,,,,,,11,,,69,0
17999,note_on,,29,0,12,,,,,,,,,,,,,,,10,,,69,0
18000,note_on,,1,0,13,,,,,,,,,,,,,,,11,,,71,48
18000,note_on,,1,0,15,,,,,,,,,,,,,,,13,,,45,48
18000,note_on,,1,0,12,,,,,,,,,,,,,,,10,,,71,48
18000,note_on,,1,0,16,,,,,,,,,,,,,,,15,,,45,48
18029,note_on,,29,0,13,,,,,,,,,,,,,,,11,,,71,0
18029,note_on,,29,0,12,,,,,,,,,,,,,,,10,,,71,0
18030,note_on,,1,0,13,,,,,,,,,,,,,,,11,,,69,48
18030,note_on,,1,0,12,,,,,,,,,,,,,,,10,,,69,48
18059,note_on,,0,0,16,,,,,,,,,,,,,,,15,,,45,0
18059,note_on,,29,0,12,,,,,,,,,,,,,,,10,,,69,0
18059,note_on,,0,0,16,,,,,,,,,,,,,,,15,,,64,0
18059,note_on,,59,0,15,,,,,,,,,,,,,,,13,,,45,0
18059,note_on,,29,0,13,,,,,,,,,,,,,,,11,,,69,0
18059,note_on,,0,0,16,,,,,,,,,,,,,,,15,,,61,0
18059,note_on,,59,0,16,,,,,,,,,,,,,,,15,,,55,0
18060,note_on,,1,0,13,,,,,,,,,,,,,,,11,,,78,48
18060,note_on,,0,0,16,,,,,,,,,,,,,,,15,,,57,48
18060,note_on,,1,0,15,,,,,,,,,,,,,,,13,,,50,48
18060,note_on,,1,0,16,,,,,,,,,,,,,,,15,,,54,48
18060,note_on,,0,0,16,,,,,,,,,,,,,,,15,,,50,48
18060,note_on,,1,0,12,,,,,,,,,,,,,,,10,,,78,48
18089,note_on,,29,0,12,,,,,,,,,,,,,,,10,,,78,0
18089,note_on,,29,0,13,,,,,,,,,,,,,,,11,,,78,0
18090,note_on,,1,0,12,,,,,,,,,,,,,,,10,,,79,48
18090,note_on,,1,0,13,,,,,,,,,,,,,,,11,,,79,48
18119,note_on,,29,0,13,,,,,,,,,,,,,,,11,,,79,0
18119,note_on,,29,0,12,,,,,,,,,,,,,,,10,,,79,0
18120,note_on,,1,0,13,,,,,,,,,,,,,,,11,,,78,48
18120,note_on,,1,0,12,,,,,,,,,,,,,,,10,,,78,48
18149,note_on,,29,0,13,,,,,,,,,,,,,,,11,,,78,0
18149,note_on,,29,0,12,,,,,,,,,,,,,,,10,,,78,0
18150,note_on,,1,0,13,,,,,,,,,,,,,,,11,,,69,48
18150,note_on,,1,0,12,,,,,,,,,,,,,,,10,,,69,48
18179,note_on,,29,0,12,,,,,,,,,,,,,,,10,,,69,0
18179,note_on,,0,0,16,,,,,,,,,,,,,,,15,,,50,0
18179,note_on,,0,0,16,,,,,,,,,,,,,,,15,,,57,0
18179,note_on,,29,0,13,,,,,,,,,,,,,,,11,,,69,0
18179,note_on,,119,0,15,,,,,,,,,,,,,,,13,,,50,0
18179,note_on,,119,0,16,,,,,,,,,,,,,,,15,,,54,0
18180,note_on,,1,0,15,,,,,,,,,,,,,,,13,,,54,48
18180,note_on,,181,0,11,,,,,,,,,,,,,,,14,,,69,60
18180,note_on,,1,0,12,,,,,,,,,,,,,,,10,,,71,48
18180,note_on,,1,0,13,,,,,,,,,,,,,,,11,,,71,48
18180,note_on,,1,0,16,,,,,,,,,,,,,,,15,,,69,48
18180,note_on,,0,0,16,,,,,,,,,,,,,,,15,,,54,48
18180,note_on,,0,0,16,,,,,,,,,,,,,,,15,,,62,48
18209,note_on,,29,0,12,,,,,,,,,,,,,,,10,,,71,0
18209,note_on,,29,0,13,,,,,,,,,,,,,,,11,,,71,0
18210,note_on,,1,0,12,,,,,,,,,,,,,,,10,,,69,48
18210,note_on,,1,0,13,,,,,,,,,,,,,,,11,,,69,48
18239,note_on,,59,0,15,,,,,,,,,,,,,,,13,,,54,0
18239,note_on,,29,0,12,,,,,,,,,,,,,,,10,,,69,0
18239,note_on,,0,0,16,,,,,,,,,,,,,,,15,,,62,0
18239,note_on,,0,0,16,,,,,,,,,,,,,,,15,,,54,0
18239,note_on,,59,0,16,,,,,,,,,,,,,,,15,,,69,0
18239,note_on,,29,0,13,,,,,,,,,,,,,,,11,,,69,0
18239,note_on,,59,0,11,,,,,,,,,,,,,,,14,,,69,0
18240,note_on,,1,0,16,,,,,,,,,,,,,,,15,,,67,48
18240,note_on,,0,0,16,,,,,,,,,,,,,,,15,,,61,48
18240,note_on,,0,0,16,,,,,,,,,,,,,,,15,,,55,48
18240,note_on,,0,0,16,,,,,,,,,,,,,,,15,,,52,48
18240,note_on,,1,0,13,,,,,,,,,,,,,,,11,,,76,48
18240,note_on,,1,0,12,,,,,,,,,,,,,,,10,,,76,48
18240,note_on,,1,0,11,,,,,,,,,,,,,,,14,,,67,65
18240,note_on,,1,0,15,,,,,,,,,,,,,,,13,,,52,48
18269,note_on,,29,0,11,,,,,,,,,,,,,,,14,,,67,0
18270,note_on,,1,0,11,,,,,,,,,,,,,,,14,,,66,59
18299,note_on,,59,0,12,,,,,,,,,,,,,,,10,,,76,0
18299,note_on,,29,0,11,,,,,,,,,,,,,,,14,,,66,0
18299,note_on,,59,0,13,,,,,,,,,,,,,,,11,,,76,0
18299,note_on,,59,0,15,,,,,,,,,,,,,,,13,,,52,0
18299,note_on,,59,0,16,,,,,,,,,,,,,,,15,,,61,0
18299,note_on,,0,0,16,,,,,,,,,,,,,,,15,,,52,0
18300,note_on,,1,0,15,,,,,,,,,,,,,,,13,,,49,48
18300,note_on,,1,0,13,,,,,,,,,,,,,,,11,,,69,48
18300,note_on,,1,0,16,,,,,,,,,,,,,,,15,,,49,48
18300,note_on,,1,0,12,,,,,,,,,,,,,,,10,,,69,48
18300,note_on,,0,0,16,,,,,,,,,,,,,,,15,,,64,48
18300,note_on,,1,0,11,,,,,,,,,,,,,,,14,,,64,68
18359,note_on,,59,0,16,,,,,,,,,,,,,,,15,,,49,0
18359,note_on,,0,0,16,,,,,,,,,,,,,,,15,,,64,0
18359,note_on,,59,0,13,,,,,,,,,,,,,,,11,,,69,0
18359,note_on,,59,0,12,,,,,,,,,,,,,,,10,,,69,0
18359,note_on,,59,0,11,,,,,,,,,,,,,,,14,,,64,0
18359,note_on,,59,0,15,,,,,,,,,,,,,,,13,,,49,0
18360,note_on,,1,0,16,,,,,,,,,,,,,,,15,,,61,48
18360,note_on,,0,0,16,,,,,,,,,,,,,,,15,,,45,48
18360,note_on,,1,0,11,,,,,,,,,,,,,,,14,,,67,66
18360,note_on,,1,0,15,,,,,,,,,,,,,,,13,,,45,48
18419,note_on,,0,0,16,,,,,,,,,,,,,,,15,,,61,0
18419,note_on,,0,0,16,,,,,,,,,,,,,,,15,,,55,0
18419,note_on,,0,0,16,,,,,,,,,,,,,,,15,,,45,0
18419,note_on,,59,0,11,,,,,,,,,,,,,,,14,,,67,0
18419,note_on,,59,0,16,,,,,,,,,,,,,,,15,,,67,0
18419,note_on,,59,0,15,,,,,,,,,,,,,,,13,,,45,0
18420,note_on,,0,0,16,,,,,,,,,,,,,,,15,,,57,48
18420,note_on,,1,0,16,,,,,,,,,,,,,,,15,,,66,48
18420,note_on,,0,0,16,,,,,,,,,,,,,,,15,,,62,48
18420,note_on,,1,0,11,,,,,,,,,,,,,,,14,,,66,67
18420,note_on,,0,0,16,,,,,,,,,,,,,,,15,,,50,48
18420,note_on,,1,0,15,,,,,,,,,,,,,,,13,,,50,48
18449,note_on,,29,0,11,,,,,,,,,,,,,,,14,,,66,0
18450,note_on,,1,0,11,,,,,,,,,,,,,,,14,,,64,62
18479,note_on,,59,0,15,,,,,,,,,,,,,,,13,,,50,0
18479,note_on,,0,0,16,,,,,,,,,,,,,,,15,,,50,0
18479,note_on,,0,0,16,,,,,,,,,,,,,,,15,,,57,0
18479,note_on,,0,0,16,,,,,,,,,,,,,,,15,,,62,0
18479,note_on,,29,0,11,,,,,,,,,,,,,,,14,,,64,0
18479,note_on,,59,0,16,,,,,,,,,,,,,,,15,,,66,0
18480,note_on,,1,0,11,,,,,,,,,,,,,,,14,,,62,63
18480,note_on,,1,0,15,,,,,,,,,,,,,,,13,,,54,48
18480,note_on,,1,0,16,,,,,,,,,,,,,,,15,,,69,48
18480,note_on,,0,0,16,,,,,,,,,,,,,,,15,,,62,48
18480,note_on,,0,0,16,,,,,,,,,,,,,,,15,,,54,48
18539,note_on,,0,0,16,,,,,,,,,,,,,,,15,,,54,0
18539,note_on,,59,0,11,,,,,,,,,,,,,,,14,,,62,0
18539,note_on,,0,0,16,,,,,,,,,,,,,,,15,,,62,0
18539,note_on,,59,0,15,,,,,,,,,,,,,,,13,,,54,0
18539,note_on,,59,0,16,,,,,,,,,,,,,,,15,,,69,0
18540,note_on,,0,0,16,,,,,,,,,,,,,,,15,,,66,48
18540,note_on,,0,0,16,,,,,,,,,,,,,,,15,,,69,48
18540,note_on,,0,0,16,,,,,,,,,,,,,,,15,,,74,48
18540,note_on,,1,0,15,,,,,,,,,,,,,,,13,,,50,48
18540,note_on,,1,0,11,,,,,,,,,,,,,,,14,,,66,64
18540,note_on,,1,0,16,,,,,,,,,,,,,,,15,,,50,48
18599,note_on,,59,0,15,,,,,,,,,,,,,,,13,,,50,0
18599,note_on,,0,0,16,,,,,,,,,,,,,,,15,,,74,0
18599,note_on,,0,0,16,,,,,,,,,,,,,,,15,,,69,0
18599,note_on,,0,0,16,,,,,,,,,,,,,,,15,,,66,0
18599,note_on,,59,0,16,,,,,,,,,,,,,,,15,,,50,0
18599,note_on,,59,0,11,,,,,,,,,,,,,,,14,,,66,0
18600,note_on,,0,0,16,,,,,,,,,,,,,,,15,,,73,48
18600,note_on,,0,0,16,,,,,,,,,,,,,,,15,,,64,48
18600,note_on,,0,0,16,,,,,,,,,,,,,,,15,,,69,48
18600,note_on,,1,0,11,,,,,,,,,,,,,,,14,,,64,63
18600,note_on,,1,0,15,,,,,,,,,,,,,,,13,,,57,48
18600,note_on,,1,0,16,,,,,,,,,,,,,,,15,,,57,48
18659,note_on,,59,0,15,,,,,,,,,,,,,,,13,,,57,0
18659,note_on,,59,0,16,,,,,,,,,,,,,,,15,,,57,0
18659,note_on,,59,0,11,,,,,,,,,,,,,,,14,,,64,0
18659,note_on,,0,0,16,,,,,,,,,,,,,,,15,,,73,0
18660,note_on,,1,0,16,,,,,,,,,,,,,,,15,,,76,48
18660,note_on,,0,0,16,,,,,,,,,,,,,,,15,,,61,48
18660,note_on,,1,0,11,,,,,,,,,,,,,,,14,,,57,66
18660,note_on,,1,0,15,,,,,,,,,,,,,,,13,,,61,48
18705,note_on,,346,0,12,,,,,,,,,,,,,,,10,,,81,48
18705,note_on,,346,0,13,,,,,,,,,,,,,,,11,,,81,48
18719,note_on,,59,0,16,,,,,,,,,,,,,,,15,,,69,0
18719,note_on,,0,0,16,,,,,,,,,,,,,,,15,,,64,0
18719,note_on,,59,0,15,,,,,,,,,,,,,,,13,,,61,0
18719,note_on,,0,0,16,,,,,,,,,,,,,,,15,,,76,0
18719,note_on,,0,0,16,,,,,,,,,,,,,,,15,,,61,0
18719,note_on,,59,0,11,,,,,,,,,,,,,,,14,,,57,0
18720,note_on,,0,0,16,,,,,,,,,,,,,,,15,,,73,48
18720,note_on,,1,0,15,,,,,,,,,,,,,,,13,,,57,48
18720,note_on,,1,0,16,,,,,,,,,,,,,,,15,,,57,48
18720,note_on,,0,0,16,,,,,,,,,,,,,,,15,,,81,48
18764,note_on,,59,0,12,,,,,,,,,,,,,,,10,,,81,0
18764,note_on,,59,0,13,,,,,,,,,,,,,,,11,,,81,0
18779,note_on,,59,0,16,,,,,,,,,,,,,,,15,,,57,0
18779,note_on,,0,0,16,,,,,,,,,,,,,,,15,,,73,0
18779,note_on,,0,0,16,,,,,,,,,,,,,,,15,,,81,0
18779,note_on,,59,0,15,,,,,,,,,,,,,,,13,,,57,0
18780,note_on,,16,0,12,,,,,,,,,,,,,,,10,,,86,48
18780,note_on,,1,0,16,,,,,,,,,,,,,,,15,,,62,48
18780,note_on,,0,0,16,,,,,,,,,,,,,,,15,,,66,48
18780,note_on,,0,0,16,,,,,,,,,,,,,,,15,,,74,48
18780,note_on,,16,0,13,,,,,,,,,,,,,,,11,,,86,48
18780,note_on,,0,0,16,,,,,,,,,,,,,,,15,,,59,48
18780,note_on,,1,0,15,,,,,,,,,,,,,,,13,,,59,48
18839,note_on,,59,0,16,,,,,,,,,,,,,,,15,,,59,0
18839,note_on,,59,0,12,,,,,,,,,,,,,,,10,,,86,0
18839,note_on,,59,0,13,,,,,,,,,,,,,,,11,,,86,0
18839,note_on,,59,0,15,,,,,,,,,,,,,,,13,,,59,0
18840,note_on,,1,0,13,,,,,,,,,,,,,,,11,,,85,48
18840,note_on,,1,0,12,,,,,,,,,,,,,,,10,,,85,48
18840,note_on,,1,0,16,,,,,,,,,,,,,,,15,,,57,48
18840,note_on,,1,0,15,,,,,,,,,,,,,,,13,,,57,48
18899,note_on,,59,0,13,,,,,,,,,,,,,,,11,,,85,0
18899,note_on,,59,0,12,,,,,,,,,,,,,,,10,,,85,0
18899,note_on,,59,0,16,,,,,,,,,,,,,,,15,,,57,0
18899,note_on,,59,0,15,,,,,,,,,,,,,,,13,,,57,0
18900,note_on,,1,0,13,,,,,,,,,,,,,,,11,,,83,48
18900,note_on,,1,0,16,,,,,,,,,,,,,,,15,,,55,48
18900,note_on,,1,0,12,,,,,,,,,,,,,,,10,,,83,48
18900,note_on,,1,0,15,,,,,,,,,,,,,,,13,,,55,48
18959,note_on,,0,0,16,,,,,,,,,,,,,,,15,,,66,0
18959,note_on,,59,0,16,,,,,,,,,,,,,,,15,,,62,0
18959,note_on,,0,0,16,,,,,,,,,,,,,,,15,,,74,0
18959,note_on,,0,0,16,,,,,,,,,,,,,,,15,,,55,0
18959,note_on,,59,0,12,,,,,,,,,,,,,,,10,,,83,0
18959,note_on,,59,0,15,,,,,,,,,,,,,,,13,,,55,0
18959,note_on,,59,0,13,,,,,,,,,,,,,,,11,,,83,0
18960,note_on,,1,0,13,,,,,,,,,,,,,,,11,,,81,48
18960,note_on,,0,0,16,,,,,,,,,,,,,,,15,,,66,48
18960,note_on,,0,0,16,,,,,,,,,,,,,,,15,,,54,48
18960,note_on,,0,0,16,,,,,,,,,,,,,,,15,,,69,48
18960,note_on,,1,0,16,,,,,,,,,,,,,,,15,,,62,48
18960,note_on,,1,0,15,,,,,,,,,,,,,,,13,,,54,48
18960,note_on,,1,0,12,,,,,,,,,,,,,,,10,,,81,48
19019,note_on,,59,0,16,,,,,,,,,,,,,,,15,,,54,0
19019,note_on,,59,0,12,,,,,,,,,,,,,,,10,,,81,0
19019,note_on,,59,0,15,,,,,,,,,,,,,,,13,,,54,0
19019,note_on,,59,0,13,,,,,,,,,,,,,,,11,,,81,0
19020,note_on,,1,0,15,,,,,,,,,,,,,,,13,,,52,48
19020,note_on,,1,0,16,,,,,,,,,,,,,,,15,,,52,48
19020,note_on,,1,0,13,,,,,,,,,,,,,,,11,,,79,48
19020,note_on,,1,0,12,,,,,,,,,,,,,,,10,,,79,48
19079,note_on,,59,0,16,,,,,,,,,,,,,,,15,,,52,0
19079,note_on,,59,0,12,,,,,,,,,,,,,,,10,,,79,0
19079,note_on,,59,0,13,,,,,,,,,,,,,,,11,,,79,0
19079,note_on,,59,0,15,,,,,,,,,,,,,,,13,,,52,0
19080,note_on,,361,0,11,,,,,,,,,,,,,,,14,,,69,60
19080,note_on,,1,0,12,,,,,,,,,,,,,,,10,,,78,48
19080,note_on,,1,0,15,,,,,,,,,,,,,,,13,,,50,48
19080,note_on,,1,0,13,,,,,,,,,,,,,,,11,,,78,48
19080,note_on,,1,0,16,,,,,,,,,,,,,,,15,,,50,48
19139,note_on,,59,0,16,,,,,,,,,,,,,,,15,,,62,0
19139,note_on,,0,0,16,,,,,,,,,,,,,,,15,,,69,0
19139,note_on,,0,0,16,,,,,,,,,,,,,,,15,,,66,0
19139,note_on,,59,0,11,,,,,,,,,,,,,,,14,,,69,0
19139,note_on,,59,0,12,,,,,,,,,,,,,,,10,,,78,0
19139,note_on,,59,0,13,,,,,,,,,,,,,,,11,,,78,0
19139,note_on,,59,0,15,,,,,,,,,,,,,,,13,,,50,0
19139,note_on,,0,0,16,,,,,,,,,,,,,,,15,,,50,0
19140,note_on,,1,0,16,,,,,,,,,,,,,,,15,,,71,48
19140,note_on,,1,0,12,,,,,,,,,,,,,,,10,,,64,48
19140,note_on,,0,0,16,,,,,,,,,,,,,,,15,,,44,48
19140,note_on,,1,0,13,,,,,,,,,,,,,,,11,,,64,48
19140,note_on,,1,0,11,,,,,,,,,,,,,,,14,,,71,61
19140,note_on,,1,0,15,,,,,,,,,,,,,,,13,,,44,48
19140,note_on,,0,0,16,,,,,,,,,,,,,,,15,,,62,48
19140,note_on,,0,0,16,,,,,,,,,,,,,,,15,,,64,48
19439,note_on,,299,0,11,,,,,,,,,,,,,,,14,,,71,0
19440,note_on,,1,0,11,,,,,,,,,,,,,,,14,,,62,64
19499,note_on,,359,0,16,,,,,,,,,,,,,,,15,,,71,0
19499,note_on,,0,0,16,,,,,,,,,,,,,,,15,,,62,0
19499,note_on,,0,0,16,,,,,,,,,,,,,,,15,,,64,0
19499,note_on,,59,0,11,,,,,,,,,,,,,,,14,,,62,0
19499,note_on,,359,0,15,,,,,,,,,,,,,,,13,,,44,0
19499,note_on,,0,0,16,,,,,,,,,,,,,,,15,,,44,0
19500,note_on,,0,0,16,,,,,,,,,,,,,,,15,,,61,48
19500,note_on,,1,0,11,,,,,,,,,,,,,,,14,,,61,62
19500,note_on,,0,0,16,,,,,,,,,,,,,,,15,,,57,48
19500,note_on,,0,0,16,,,,,,,,,,,,,,,15,,,64,48
19500,note_on,,1,0,16,,,,,,,,,,,,,,,15,,,45,48
19500,note_on,,1,0,15,,,,,,,,,,,,,,,13,,,45,48
19679,note_on,,179,0,15,,,,,,,,,,,,,,,13,,,45,0
19679,note_on,,179,0,16,,,,,,,,,,,,,,,15,,,45,0
19679,note_on,,0,0,16,,,,,,,,,,,,,,,15,,,61,0
19679,note_on,,0,0,16,,,,,,,,,,,,,,,15,,,64,0
19679,note_on,,0,0,16,,,,,,,,,,,,,,,15,,,57,0
19680,note_on,,0,0,16,,,,,,,,,,,,,,,15,,,73,48
19680,note_on,,1,0,15,,,,,,,,,,,,,,,13,,,43,48
19680,note_on,,1,0,16,,,,,,,,,,,,,,,15,,,43,48
19680,note_on,,0,0,16,,,,,,,,,,,,,,,15,,,64,48
19680,note_on,,0,0,16,,,,,,,,,,,,,,,15,,,69,48
19799,note_on,,299,0,11,,,,,,,,,,,,,,,14,,,61,0
19800,note_on,,1,0,11,,,,,,,,,,,,,,,14,,,69,66
19859,note_on,,59,0,11,,,,,,,,,,,,,,,14,,,69,0
19859,note_on,,0,0,16,,,,,,,,,,,,,,,15,,,69,0
19859,note_on,,0,0,16,,,,,,,,,,,,,,,15,,,64,0
19859,note_on,,719,0,13,,,,,,,,,,,,,,,11,,,64,0
19859,note_on,,179,0,16,,,,,,,,,,,,,,,15,,,43,0
19859,note_on,,179,0,15,,,,,,,,,,,,,,,13,,,43,0
19859,note_on,,719,0,12,,,,,,,,,,,,,,,10,,,64,0
19859,note_on,,0,0,16,,,,,,,,,,,,,,,15,,,73,0
19860,note_on,,1,0,15,,,,,,,,,,,,,,,13,,,42,48
19860,note_on,,1,0,11,,,,,,,,,,,,,,,14,,,69,63
19860,note_on,,1,0,12,,,,,,,,,,,,,,,10,,,62,48
19860,note_on,,1,0,16,,,,,,,,,,,,,,,15,,,74,48
19860,note_on,,1,0,13,,,,,,,,,,,,,,,11,,,62,48
19860,note_on,,0,0,16,,,,,,,,,,,,,,,15,,,62,48
19860,note_on,,0,0,16,,,,,,,,,,,,,,,15,,,42,48
19860,note_on,,0,0,16,,,,,,,,,,,,,,,15,,,69,48
20039,note_on,,0,0,16,,,,,,,,,,,,,,,15,,,62,0
20039,note_on,,179,0,16,,,,,,,,,,,,,,,15,,,74,0
20039,note_on,,0,0,16,,,,,,,,,,,,,,,15,,,69,0
20040,note_on,,1,0,16,,,,,,,,,,,,,,,15,,,57,48
20040,note_on,,0,0,16,,,,,,,,,,,,,,,15,,,66,48
20040,note_on,,0,0,16,,,,,,,,,,,,,,,15,,,62,48
20159,note_on,,299,0,11,,,,,,,,,,,,,,,14,,,69,0
20160,note_on,,1,0,11,,,,,,,,,,,,,,,14,,,60,66
20219,note_on,,359,0,15,,,,,,,,,,,,,,,13,,,42,0
20219,note_on,,59,0,11,,,,,,,,,,,,,,,14,,,60,0
20219,note_on,,0,0,16,,,,,,,,,,,,,,,15,,,66,0
20219,note_on,,179,0,16,,,,,,,,,,,,,,,15,,,42,0
20219,note_on,,0,0,16,,,,,,,,,,,,,,,15,,,62,0
20219,note_on,,0,0,16,,,,,,,,,,,,,,,15,,,57,0
20220,note_on,,0,0,16,,,,,,,,,,,,,,,15,,,59,48
20220,note_on,,1,0,15,,,,,,,,,,,,,,,13,,,43,48
20220,note_on,,1,0,11,,,,,,,,,,,,,,,14,,,59,63
20220,note_on,,0,0,16,,,,,,,,,,,,,,,15,,,55,48
20220,note_on,,0,0,16,,,,,,,,,,,,,,,15,,,62,48
20220,note_on,,1,0,16,,,,,,,,,,,,,,,15,,,43,48
20399,note_on,,179,0,15,,,,,,,,,,,,,,,13,,,43,0
20399,note_on,,0,0,16,,,,,,,,,,,,,,,15,,,55,0
20399,note_on,,179,0,11,,,,,,,,,,,,,,,14,,,59,0
20399,note_on,,0,0,16,,,,,,,,,,,,,,,15,,,62,0
20399,note_on,,179,0,16,,,,,,,,,,,,,,,15,,,43,0
20399,note_on,,0,0,16,,,,,,,,,,,,,,,15,,,59,0
20400,note_on,,1,0,15,,,,,,,,,,,,,,,13,,,54,48
20400,note_on,,1,0,16,,,,,,,,,,,,,,,15,,,57,48
20400,note_on,,0,0,16,,,,,,,,,,,,,,,15,,,54,48
20400,note_on,,0,0,16,,,,,,,,,,,,,,,15,,,69,48
20400,note_on,,0,0,16,,,,,,,,,,,,,,,15,,,62,48
20520,note_on,,121,0,11,,,,,,,,,,,,,,,14,,,62,59
20579,note_on,,59,0,11,,,,,,,,,,,,,,,14,,,62,0
20579,note_on,,719,0,13,,,,,,,,,,,,,,,11,,,62,0
20579,note_on,,0,0,16,,,,,,,,,,,,,,,15,,,62,0
20579,note_on,,0,0,16,,,,,,,,,,,,,,,15,,,54,0
20579,note_on,,0,0,16,,,,,,,,,,,,,,,15,,,69,0
20579,note_on,,179,0,15,,,,,,,,,,,,,,,13,,,54,0
20579,note_on,,179,0,16,,,,,,,,,,,,,,,15,,,57,0
20579,note_on,,719,0,12,,,,,,,,,,,,,,,10,,,62,0
20580,note_on,,1,0,15,,,,,,,,,,,,,,,13,,,52,48
20580,note_on,,0,0,16,,,,,,,,,,,,,,,15,,,52,48
20580,note_on,,0,0,16,,,,,,,,,,,,,,,15,,,55,48
20580,note_on,,0,0,16,,,,,,,,,,,,,,,15,,,67,48
20580,note_on,,1,0,16,,,,,,,,,,,,,,,15,,,76,48
20580,note_on,,1,0,11,,,,,,,,,,,,,,,14,,,62,64
20639,note_on,,59,0,11,,,,,,,,,,,,,,,14,,,62,0
20640,note_on,,1,0,11,,,,,,,,,,,,,,,14,,,61,68
20699,note_on,,119,0,16,,,,,,,,,,,,,,,15,,,76,0
20699,note_on,,119,0,15,,,,,,,,,,,,,,,13,,,52,0
20699,note_on,,59,0,11,,,,,,,,,,,,,,,14,,,61,0
20699,note_on,,0,0,16,,,,,,,,,,,,,,,15,,,52,0
20699,note_on,,0,0,16,,,,,,,,,,,,,,,15,,,55,0
20700,note_on,,1,0,15,,,,,,,,,,,,,,,13,,,55,48
20700,note_on,,1,0,11,,,,,,,,,,,,,,,14,,,64,63
20700,note_on,,0,0,16,,,,,,,,,,,,,,,15,,,55,48
20700,note_on,,1,0,16,,,,,,,,,,,,,,,15,,,73,48
20759,note_on,,59,0,15,,,,,,,,,,,,,,,13,,,55,0
20759,note_on,,59,0,11,,,,,,,,,,,,,,,14,,,64,0
20759,note_on,,0,0,16,,,,,,,,,,,,,,,15,,,55,0
20759,note_on,,0,0,16,,,,,,,,,,,,,,,15,,,73,0
20759,note_on,,59,0,16,,,,,,,,,,,,,,,15,,,67,0
20760,note_on,,1,0,15,,,,,,,,,,,,,,,13,,,54,48
20760,note_on,,0,0,16,,,,,,,,,,,,,,,15,,,57,48
20760,note_on,,1,0,11,,,,,,,,,,,,,,,14,,,64,65
20760,note_on,,0,0,16,,,,,,,,,,,,,,,15,,,67,48
20760,note_on,,0,0,16,,,,,,,,,,,,,,,15,,,54,48
20760,note_on,,1,0,16,,,,,,,,,,,,,,,15,,,69,48
20819,note_on,,59,0,11,,,,,,,,,,,,,,,14,,,64,0
20820,note_on,,1,0,11,,,,,,,,,,,,,,,14,,,62,61
20879,note_on,,119,0,16,,,,,,,,,,,,,,,15,,,69,0
20879,note_on,,119,0,15,,,,,,,,,,,,,,,13,,,54,0
20879,note_on,,0,0,16,,,,,,,,,,,,,,,15,,,54,0
20879,note_on,,0,0,16,,,,,,,,,,,,,,,15,,,57,0
20879,note_on,,0,0,16,,,,,,,,,,,,,,,15,,,67,0
20879,note_on,,59,0,11,,,,,,,,,,,,,,,14,,,62,0
20880,note_on,,1,0,15,,,,,,,,,,,,,,,13,,,50,48
20880,note_on,,1,0,16,,,,,,,,,,,,,,,15,,,74,48
20880,note_on,,0,0,16,,,,,,,,,,,,,,,15,,,69,48
20880,note_on,,0,0,16,,,,,,,,,,,,,,,15,,,66,48
20880,note_on,,0,0,16,,,,,,,,,,,,,,,15,,,50,48
20880,note_on,,1,0,11,,,,,,,,,,,,,,,14,,,66,61
20939,note_on,,0,0,16,,,,,,,,,,,,,,,15,,,69,0
20939,note_on,,0,0,16,,,,,,,,,,,,,,,15,,,66,0
20939,note_on,,0,0,16,,,,,,,,,,,,,,,15,,,50,0
20939,note_on,,59,0,11,,,,,,,,,,,,,,,14,,,66,0
20939,note_on,,59,0,15,,,,,,,,,,,,,,,13,,,50,0
20939,note_on,,59,0,16,,,,,,,,,,,,,,,15,,,74,0
20940,note_on,,0,0,16,,,,,,,,,,,,,,,15,,,74,48
20940,note_on,,1,0,16,,,,,,,,,,,,,,,15,,,69,48
20940,note_on,,1,0,11,,,,,,,,,,,,,,,14,,,66,66
20940,note_on,,1,0,15,,,,,,,,,,,,,,,13,,,50,48
20940,note_on,,0,0,16,,,,,,,,,,,,,,,15,,,81,48
20940,note_on,,0,0,16,,,,,,,,,,,,,,,15,,,50,48
20999,note_on,,0,0,16,,,,,,,,,,,,,,,15,,,50,0
20999,note_on,,59,0,16,,,,,,,,,,,,,,,15,,,74,0
20999,note_on,,59,0,15,,,,,,,,,,,,,,,13,,,50,0
20999,note_on,,59,0,11,,,,,,,,,,,,,,,14,,,66,0
21000,note_on,,1,0,11,,,,,,,,,,,,,,,14,,,64,68
21000,note_on,,1,0,16,,,,,,,,,,,,,,,15,,,76,48
21000,note_on,,0,0,16,,,,,,,,,,,,,,,15,,,49,48
21000,note_on,,1,0,15,,,,,,,,,,,,,,,13,,,49,48
21059,note_on,,59,0,16,,,,,,,,,,,,,,,15,,,76,0
21059,note_on,,59,0,15,,,,,,,,,,,,,,,13,,,49,0
21059,note_on,,59,0,11,,,,,,,,,,,,,,,14,,,64,0
21059,note_on,,0,0,16,,,,,,,,,,,,,,,15,,,49,0
21060,note_on,,1,0,11,,,,,,,,,,,,,,,14,,,67,63
21060,note_on,,1,0,15,,,,,,,,,,,,,,,13,,,52,48
21060,note_on,,0,0,16,,,,,,,,,,,,,,,15,,,73,48
21060,note_on,,1,0,16,,,,,,,,,,,,,,,15,,,52,48
21119,note_on,,59,0,16,,,,,,,,,,,,,,,15,,,69,0
21119,note_on,,0,0,16,,,,,,,,,,,,,,,15,,,73,0
21119,note_on,,0,0,16,,,,,,,,,,,,,,,15,,,52,0
21119,note_on,,0,0,16,,,,,,,,,,,,,,,15,,,81,0
21119,note_on,,59,0,11,,,,,,,,,,,,,,,14,,,67,0
21119,note_on,,59,0,15,,,,,,,,,,,,,,,13,,,52,0
21120,note_on,,0,0,16,,,,,,,,,,,,,,,15,,,69,48
21120,note_on,,0,0,16,,,,,,,,,,,,,,,15,,,50,48
21120,note_on,,1,0,16,,,,,,,,,,,,,,,15,,,66,48
21120,note_on,,1,0,15,,,,,,,,,,,,,,,13,,,50,48
21120,note_on,,0,0,16,,,,,,,,,,,,,,,15,,,62,48
21120,note_on,,1,0,11,,,,,,,,,,,,,,,14,,,66,61
21179,note_on,,59,0,11,,,,,,,,,,,,,,,14,,,66,0
21180,note_on,,1,0,11,,,,,,,,,,,,,,,14,,,64,60
21239,note_on,,59,0,11,,,,,,,,,,,,,,,14,,,64,0
21239,note_on,,119,0,15,,,,,,,,,,,,,,,13,,,50,0
21239,note_on,,0,0,16,,,,,,,,,,,,,,,15,,,69,0
21239,note_on,,0,0,16,,,,,,,,,,,,,,,15,,,62,0
21239,note_on,,0,0,16,,,,,,,,,,,,,,,15,,,50,0
21239,note_on,,119,0,16,,,,,,,,,,,,,,,15,,,66,0
21240,note_on,,0,0,16,,,,,,,,,,,,,,,15,,,62,48
21240,note_on,,1,0,16,,,,,,,,,,,,,,,15,,,57,48
21240,note_on,,661,0,13,,,,,,,,,,,,,,,11,,,74,48
21240,note_on,,661,0,12,,,,,,,,,,,,,,,10,,,74,48
21240,note_on,,1,0,11,,,,,,,,,,,,,,,14,,,62,67
21240,note_on,,0,0,16,,,,,,,,,,,,,,,15,,,54,48
21240,note_on,,1,0,15,,,,,,,,,,,,,,,13,,,54,48
21240,note_on,,3781,0,6,,,,,,,,,,,,,,,1,,,54,48
21299,note_on,,59,0,11,,,,,,,,,,,,,,,14,,,62,0
21299,note_on,,0,0,16,,,,,,,,,,,,,,,15,,,62,0
21299,note_on,,59,0,16,,,,,,,,,,,,,,,15,,,57,0
21299,note_on,,59,0,6,,,,,,,,,,,,,,,1,,,54,0
21299,note_on,,59,0,12,,,,,,,,,,,,,,,10,,,74,0
21299,note_on,,59,0,15,,,,,,,,,,,,,,,13,,,54,0
21299,note_on,,0,0,16,,,,,,,,,,,,,,,15,,,54,0
21299,note_on,,59,0,13,,,,,,,,,,,,,,,11,,,74,0
21300,note_on,,1,0,16,,,,,,,,,,,,,,,15,,,55,48
21300,note_on,,0,0,16,,,,,,,,,,,,,,,15,,,67,48
21300,note_on,,0,0,16,,,,,,,,,,,,,,,15,,,52,48
21300,note_on,,1,0,6,,,,,,,,,,,,,,,1,,,52,48
21300,note_on,,1,0,12,,,,,,,,,,,,,,,10,,,74,48
21300,note_on,,1,0,15,,,,,,,,,,,,,,,13,,,52,48
21300,note_on,,0,0,16,,,,,,,,,,,,,,,15,,,64,48
21300,note_on,,1,0,13,,,,,,,,,,,,,,,11,,,74,48
21314,note_on,,14,0,13,,,,,,,,,,,,,,,11,,,74,0
21314,note_on,,14,0,12,,,,,,,,,,,,,,,10,,,74,0
21315,note_on,,1,0,13,,,,,,,,,,,,,,,11,,,76,48
21315,note_on,,1,0,12,,,,,,,,,,,,,,,10,,,76,48
21329,note_on,,14,0,12,,,,,,,,,,,,,,,10,,,76,0
21329,note_on,,14,0,13,,,,,,,,,,,,,,,11,,,76,0
21330,note_on,,1,0,12,,,,,,,,,,,,,,,10,,,73,48
21330,note_on,,1,0,13,,,,,,,,,,,,,,,11,,,73,48
21344,note_on,,14,0,12,,,,,,,,,,,,,,,10,,,73,0
21344,note_on,,14,0,13,,,,,,,,,,,,,,,11,,,73,0
21345,note_on,,1,0,12,,,,,,,,,,,,,,,10,,,74,48
21345,note_on,,1,0,13,,,,,,,,,,,,,,,11,,,74,48
21359,note_on,,14,0,13,,,,,,,,,,,,,,,11,,,74,0
21359,note_on,,14,0,12,,,,,,,,,,,,,,,10,,,74,0
21360,note_on,,1,0,12,,,,,,,,,,,,,,,10,,,73,48
21360,note_on,,1,0,13,,,,,,,,,,,,,,,11,,,73,48
21419,note_on,,59,0,12,,,,,,,,,,,,,,,10,,,73,0
21419,note_on,,0,0,16,,,,,,,,,,,,,,,15,,,64,0
21419,note_on,,0,0,16,,,,,,,,,,,,,,,15,,,52,0
21419,note_on,,59,0,13,,,,,,,,,,,,,,,11,,,73,0
21419,note_on,,119,0,6,,,,,,,,,,,,,,,1,,,52,0
21419,note_on,,119,0,16,,,,,,,,,,,,,,,15,,,67,0
21419,note_on,,119,0,15,,,,,,,,,,,,,,,13,,,52,0
21420,note_on,,1,0,16,,,,,,,,,,,,,,,15,,,61,48
21420,note_on,,1,0,12,,,,,,,,,,,,,,,10,,,76,48
21420,note_on,,1,0,6,,,,,,,,,,,,,,,1,,,55,48
21420,note_on,,1,0,15,,,,,,,,,,,,,,,13,,,55,48
21420,note_on,,1,0,13,,,,,,,,,,,,,,,11,,,76,48
21420,note_on,,0,0,16,,,,,,,,,,,,,,,15,,,55,48
21420,note_on,,0,0,16,,,,,,,,,,,,,,,15,,,64,48
21479,note_on,,59,0,6,,,,,,,,,,,,,,,1,,,55,0
21479,note_on,,59,0,13,,,,,,,,,,,,,,,11,,,76,0
21479,note_on,,59,0,15,,,,,,,,,,,,,,,13,,,55,0
21479,note_on,,0,0,16,,,,,,,,,,,,,,,15,,,61,0
21479,note_on,,0,0,16,,,,,,,,,,,,,,,15,,,55,0
21479,note_on,,0,0,16,,,,,,,,,,,,,,,15,,,64,0
21479,note_on,,59,0,12,,,,,,,,,,,,,,,10,,,76,0
21479,note_on,,59,0,16,,,,,,,,,,,,,,,15,,,55,0
21480,note_on,,1,0,6,,,,,,,,,,,,,,,1,,,54,48
21480,note_on,,0,0,16,,,,,,,,,,,,,,,15,,,69,48
21480,note_on,,1,0,12,,,,,,,,,,,,,,,10,,,76,48
21480,note_on,,1,0,16,,,,,,,,,,,,,,,15,,,57,48
21480,note_on,,1,0,13,,,,,,,,,,,,,,,11,,,76,48
21480,note_on,,0,0,16,,,,,,,,,,,,,,,15,,,64,48
21480,note_on,,0,0,16,,,,,,,,,,,,,,,15,,,54,48
21480,note_on,,1,0,15,,,,,,,,,,,,,,,13,,,54,48
21539,note_on,,59,0,12,,,,,,,,,,,,,,,10,,,76,0
21539,note_on,,59,0,13,,,,,,,,,,,,,,,11,,,76,0
21540,note_on,,1,0,12,,,,,,,,,,,,,,,10,,,74,48
21540,note_on,,1,0,13,,,,,,,,,,,,,,,11,,,74,48
21599,note_on,,59,0,13,,,,,,,,,,,,,,,11,,,74,0
21599,note_on,,59,0,12,,,,,,,,,,,,,,,10,,,74,0
21599,note_on,,119,0,6,,,,,,,,,,,,,,,1,,,54,0
21599,note_on,,119,0,16,,,,,,,,,,,,,,,15,,,57,0
21599,note_on,,119,0,15,,,,,,,,,,,,,,,13,,,54,0
21599,note_on,,0,0,16,,,,,,,,,,,,,,,15,,,64,0
21599,note_on,,0,0,16,,,,,,,,,,,,,,,15,,,54,0
21599,note_on,,0,0,16,,,,,,,,,,,,,,,15,,,69,0
21600,note_on,,1,0,13,,,,,,,,,,,,,,,11,,,78,48
21600,note_on,,0,0,16,,,,,,,,,,,,,,,15,,,74,48
21600,note_on,,0,0,16,,,,,,,,,,,,,,,15,,,50,48
21600,note_on,,0,0,16,,,,,,,,,,,,,,,15,,,57,48
21600,note_on,,1,0,15,,,,,,,,,,,,,,,13,,,50,48
21600,note_on,,301,0,11,,,,,,,,,,,,,,,14,,,62,63
21600,note_on,,1,0,12,,,,,,,,,,,,,,,10,,,78,48
21600,note_on,,1,0,16,,,,,,,,,,,,,,,15,,,66,48
21659,note_on,,0,0,16,,,,,,,,,,,,,,,15,,,74,0
21659,note_on,,0,0,16,,,,,,,,,,,,,,,15,,,50,0
21659,note_on,,59,0,11,,,,,,,,,,,,,,,14,,,62,0
21659,note_on,,59,0,16,,,,,,,,,,,,,,,15,,,66,0
21659,note_on,,59,0,12,,,,,,,,,,,,,,,10,,,78,0
21659,note_on,,59,0,13,,,,,,,,,,,,,,,11,,,78,0
21659,note_on,,59,0,15,,,,,,,,,,,,,,,13,,,50,0
21659,note_on,,0,0,16,,,,,,,,,,,,,,,15,,,57,0
21660,note_on,,1,0,12,,,,,,,,,,,,,,,10,,,78,48
21660,note_on,,0,0,16,,,,,,,,,,,,,,,15,,,69,48
21660,note_on,,0,0,16,,,,,,,,,,,,,,,15,,,69,48
21660,note_on,,1,0,15,,,,,,,,,,,,,,,13,,,50,48
21660,note_on,,0,0,16,,,,,,,,,,,,,,,15,,,50,48
21660,note_on,,1,0,13,,,,,,,,,,,,,,,11,,,78,48
21660,note_on,,1,0,11,,,,,,,,,,,,,,,14,,,69,65
21660,note_on,,1,0,16,,,,,,,,,,,,,,,15,,,78,48
21719,note_on,,59,0,12,,,,,,,,,,,,,,,10,,,78,0
21719,note_on,,59,0,16,,,,,,,,,,,,,,,15,,,78,0
21719,note_on,,0,0,16,,,,,,,,,,,,,,,15,,,50,0
21719,note_on,,0,0,16,,,,,,,,,,,,,,,15,,,69,0
21719,note_on,,59,0,15,,,,,,,,,,,,,,,13,,,50,0
21719,note_on,,59,0,13,,,,,,,,,,,,,,,11,,,78,0
21720,note_on,,1,0,16,,,,,,,,,,,,,,,15,,,49,48
21720,note_on,,1,0,15,,,,,,,,,,,,,,,13,,,49,48
21720,note_on,,1,0,13,,,,,,,,,,,,,,,11,,,76,48
21720,note_on,,1,0,12,,,,,,,,,,,,,,,10,,,76,48
21720,note_on,,0,0,16,,,,,,,,,,,,,,,15,,,76,48
21779,note_on,,59,0,12,,,,,,,,,,,,,,,10,,,76,0
21779,note_on,,59,0,13,,,,,,,,,,,,,,,11,,,76,0
21779,note_on,,0,0,16,,,,,,,,,,,,,,,15,,,49,0
21779,note_on,,59,0,16,,,,,,,,,,,,,,,15,,,69,0
21779,note_on,,59,0,15,,,,,,,,,,,,,,,13,,,49,0
21779,note_on,,0,0,16,,,,,,,,,,,,,,,15,,,76,0
21780,note_on,,1,0,16,,,,,,,,,,,,,,,15,,,52,48
21780,note_on,,1,0,13,,,,,,,,,,,,,,,11,,,79,48
21780,note_on,,0,0,16,,,,,,,,,,,,,,,15,,,69,48
21780,note_on,,0,0,16,,,,,,,,,,,,,,,15,,,67,48
21780,note_on,,1,0,12,,,,,,,,,,,,,,,10,,,79,48
21780,note_on,,1,0,15,,,,,,,,,,,,,,,13,,,52,48
21780,note_on,,0,0,16,,,,,,,,,,,,,,,15,,,73,48
21839,note_on,,59,0,12,,,,,,,,,,,,,,,10,,,79,0
21839,note_on,,0,0,16,,,,,,,,,,,,,,,15,,,67,0
21839,note_on,,59,0,15,,,,,,,,,,,,,,,13,,,52,0
21839,note_on,,0,0,16,,,,,,,,,,,,,,,15,,,69,0
21839,note_on,,0,0,16,,,,,,,,,,,,,,,15,,,73,0
21839,note_on,,59,0,16,,,,,,,,,,,,,,,15,,,52,0
21839,note_on,,59,0,13,,,,,,,,,,,,,,,11,,,79,0
21840,note_on,,0,0,16,,,,,,,,,,,,,,,15,,,69,48
21840,note_on,,0,0,16,,,,,,,,,,,,,,,15,,,62,48
21840,note_on,,0,0,16,,,,,,,,,,,,,,,15,,,50,48
21840,note_on,,1,0,15,,,,,,,,,,,,,,,13,,,50,48
21840,note_on,,1,0,12,,,,,,,,,,,,,,,10,,,78,48
21840,note_on,,1,0,16,,,,,,,,,,,,,,,15,,,66,48
21840,note_on,,1,0,13,,,,,,,,,,,,,,,11,,,78,48
21899,note_on,,59,0,13,,,,,,,,,,,,,,,11,,,78,0
21899,note_on,,59,0,12,,,,,,,,,,,,,,,10,,,78,0
21900,note_on,,1,0,12,,,,,,,,,,,,,,,10,,,76,48
21900,note_on,,1,0,13,,,,,,,,,,,,,,,11,,,76,48
21959,note_on,,0,0,16,,,,,,,,,,,,,,,15,,,50,0
21959,note_on,,59,0,12,,,,,,,,,,,,,,,10,,,76,0
21959,note_on,,0,0,16,,,,,,,,,,,,,,,15,,,69,0
21959,note_on,,119,0,16,,,,,,,,,,,,,,,15,,,66,0
21959,note_on,,119,0,15,,,,,,,,,,,,,,,13,,,50,0
21959,note_on,,299,0,11,,,,,,,,,,,,,,,14,,,69,0
21959,note_on,,0,0,16,,,,,,,,,,,,,,,15,,,62,0
21959,note_on,,59,0,13,,,,,,,,,,,,,,,11,,,76,0
21960,note_on,,1,0,13,,,,,,,,,,,,,,,11,,,74,48
21960,note_on,,1,0,11,,,,,,,,,,,,,,,14,,,62,59
21960,note_on,,0,0,16,,,,,,,,,,,,,,,15,,,69,48
21960,note_on,,0,0,16,,,,,,,,,,,,,,,15,,,74,48
21960,note_on,,1,0,12,,,,,,,,,,,,,,,10,,,74,48
21960,note_on,,1,0,15,,,,,,,,,,,,,,,13,,,50,48
21960,note_on,,0,0,16,,,,,,,,,,,,,,,15,,,66,48
21960,note_on,,1,0,16,,,,,,,,,,,,,,,15,,,50,48
22019,note_on,,59,0,16,,,,,,,,,,,,,,,15,,,50,0
22019,note_on,,0,0,16,,,,,,,,,,,,,,,15,,,74,0
22019,note_on,,59,0,12,,,,,,,,,,,,,,,10,,,74,0
22019,note_on,,59,0,15,,,,,,,,,,,,,,,13,,,50,0
22019,note_on,,0,0,16,,,,,,,,,,,,,,,15,,,69,0
22019,note_on,,59,0,11,,,,,,,,,,,,,,,14,,,62,0
22019,note_on,,59,0,13,,,,,,,,,,,,,,,11,,,74,0
22019,note_on,,0,0,16,,,,,,,,,,,,,,,15,,,66,0
22020,note_on,,0,0,16,,,,,,,,,,,,,,,15,,,64,48
22020,note_on,,1,0,15,,,,,,,,,,,,,,,13,,,52,48
22020,note_on,,1,0,16,,,,,,,,,,,,,,,15,,,59,48
22020,note_on,,0,0,16,,,,,,,,,,,,,,,15,,,52,48
22020,note_on,,0,0,16,,,,,,,,,,,,,,,15,,,67,48
22020,note_on,,1,0,11,,,,,,,,,,,,,,,14,,,67,62
22079,note_on,,59,0,15,,,,,,,,,,,,,,,13,,,52,0
22079,note_on,,59,0,16,,,,,,,,,,,,,,,15,,,52,0
22080,note_on,,1,0,15,,,,,,,,,,,,,,,13,,,50,48
22080,note_on,,1,0,16,,,,,,,,,,,,,,,15,,,50,48
22139,note_on,,59,0,15,,,,,,,,,,,,,,,13,,,50,0
22139,note_on,,59,0,16,,,,,,,,,,,,,,,15,,,50,0
22140,note_on,,1,0,15,,,,,,,,,,,,,,,13,,,48,48
22140,note_on,,1,0,16,,,,,,,,,,,,,,,15,,,48,48
22199,note_on,,59,0,15,,,,,,,,,,,,,,,13,,,48,0
22199,note_on,,59,0,16,,,,,,,,,,,,,,,15,,,59,0
22199,note_on,,0,0,16,,,,,,,,,,,,,,,15,,,67,0
22199,note_on,,0,0,16,,,,,,,,,,,,,,,15,,,64,0
22199,note_on,,0,0,16,,,,,,,,,,,,,,,15,,,48,0
22200,note_on,,1,0,16,,,,,,,,,,,,,,,15,,,74,48
22200,note_on,,1,0,15,,,,,,,,,,,,,,,13,,,47,48
22200,note_on,,0,0,16,,,,,,,,,,,,,,,15,,,79,48
22200,note_on,,0,0,16,,,,,,,,,,,,,,,15,,,47,48
22200,note_on,,0,0,16,,,,,,,,,,,,,,,15,,,67,48
22259,note_on,,59,0,15,,,,,,,,,,,,,,,13,,,47,0
22259,note_on,,59,0,16,,,,,,,,,,,,,,,15,,,47,0
22260,note_on,,1,0,15,,,,,,,,,,,,,,,13,,,45,48
22260,note_on,,1,0,16,,,,,,,,,,,,,,,15,,,45,48
22319,note_on,,299,0,11,,,,,,,,,,,,,,,14,,,67,0
22319,note_on,,59,0,16,,,,,,,,,,,,,,,15,,,45,0
22319,note_on,,59,0,15,,,,,,,,,,,,,,,13,,,45,0
22320,note_on,,1,0,16,,,,,,,,,,,,,,,15,,,43,48
22320,note_on,,1,0,15,,,,,,,,,,,,,,,13,,,43,48
22320,note_on,,301,0,12,,,,,,,,,,,,,,,10,,,74,48
22320,note_on,,1,0,11,,,,,,,,,,,,,,,14,,,67,60
22320,note_on,,301,0,13,,,,,,,,,,,,,,,11,,,74,48
22379,note_on,,59,0,12,,,,,,,,,,,,,,,10,,,74,0
22379,note_on,,59,0,15,,,,,,,,,,,,,,,13,,,43,0
22379,note_on,,59,0,11,,,,,,,,,,,,,,,14,,,67,0
22379,note_on,,59,0,13,,,,,,,,,,,,,,,11,,,74,0
22379,note_on,,59,0,16,,,,,,,,,,,,,,,15,,,74,0
22379,note_on,,0,0,16,,,,,,,,,,,,,,,15,,,79,0
22379,note_on,,0,0,16,,,,,,,,,,,,,,,15,,,67,0
22379,note_on,,0,0,16,,,,,,,,,,,,,,,15,,,43,0
22380,note_on,,1,0,11,,,,,,,,,,,,,,,14,,,67,68
22380,note_on,,0,0,16,,,,,,,,,,,,,,,15,,,67,48
22380,note_on,,0,0,16,,,,,,,,,,,,,,,15,,,64,48
22380,note_on,,1,0,12,,,,,,,,,,,,,,,10,,,79,48
22380,note_on,,1,0,15,,,,,,,,,,,,,,,13,,,64,48
22380,note_on,,1,0,16,,,,,,,,,,,,,,,15,,,71,48
22380,note_on,,1,0,13,,,,,,,,,,,,,,,11,,,79,48
22439,note_on,,59,0,12,,,,,,,,,,,,,,,10,,,79,0
22439,note_on,,59,0,15,,,,,,,,,,,,,,,13,,,64,0
22439,note_on,,59,0,16,,,,,,,,,,,,,,,15,,,64,0
22439,note_on,,59,0,13,,,,,,,,,,,,,,,11,,,79,0
22440,note_on,,1,0,12,,,,,,,,,,,,,,,10,,,78,48
22440,note_on,,1,0,15,,,,,,,,,,,,,,,13,,,62,48
22440,note_on,,1,0,16,,,,,,,,,,,,,,,15,,,62,48
22440,note_on,,1,0,13,,,,,,,,,,,,,,,11,,,78,48
22499,note_on,,59,0,12,,,,,,,,,,,,,,,10,,,78,0
22499,note_on,,59,0,15,,,,,,,,,,,,,,,13,,,62,0
22499,note_on,,59,0,16,,,,,,,,,,,,,,,15,,,62,0
22499,note_on,,59,0,13,,,,,,,,,,,,,,,11,,,78,0
22500,note_on,,1,0,12,,,,,,,,,,,,,,,10,,,76,48
22500,note_on,,1,0,15,,,,,,,,,,,,,,,13,,,60,48
22500,note_on,,1,0,13,,,,,,,,,,,,,,,11,,,76,48
22500,note_on,,1,0,16,,,,,,,,,,,,,,,15,,,60,48
22559,note_on,,59,0,13,,,,,,,,,,,,,,,11,,,76,0
22559,note_on,,59,0,12,,,,,,,,,,,,,,,10,,,76,0
22559,note_on,,179,0,11,,,,,,,,,,,,,,,14,,,67,0
22559,note_on,,0,0,16,,,,,,,,,,,,,,,15,,,67,0
22559,note_on,,0,0,16,,,,,,,,,,,,,,,15,,,60,0
22559,note_on,,59,0,15,,,,,,,,,,,,,,,13,,,60,0
22559,note_on,,59,0,16,,,,,,,,,,,,,,,15,,,71,0
22560,note_on,,1,0,13,,,,,,,,,,,,,,,11,,,74,48
22560,note_on,,1,0,12,,,,,,,,,,,,,,,10,,,74,48
22560,note_on,,1,0,11,,,,,,,,,,,,,,,14,,,67,68
22560,note_on,,1,0,15,,,,,,,,,,,,,,,13,,,59,48
22560,note_on,,0,0,16,,,,,,,,,,,,,,,15,,,74,48
22560,note_on,,0,0,16,,,,,,,,,,,,,,,15,,,59,48
22560,note_on,,0,0,16,,,,,,,,,,,,,,,15,,,62,48
22560,note_on,,1,0,16,,,,,,,,,,,,,,,15,,,67,48
22619,note_on,,59,0,15,,,,,,,,,,,,,,,13,,,59,0
22619,note_on,,59,0,16,,,,,,,,,,,,,,,15,,,59,0
22619,note_on,,59,0,12,,,,,,,,,,,,,,,10,,,74,0
22619,note_on,,59,0,13,,,,,,,,,,,,,,,11,,,74,0
22620,note_on,,1,0,15,,,,,,,,,,,,,,,13,,,57,48
22620,note_on,,1,0,13,,,,,,,,,,,,,,,11,,,72,48
22620,note_on,,1,0,16,,,,,,,,,,,,,,,15,,,57,48
22620,note_on,,1,0,12,,,,,,,,,,,,,,,10,,,72,48
22679,note_on,,59,0,13,,,,,,,,,,,,,,,11,,,72,0
22679,note_on,,59,0,12,,,,,,,,,,,,,,,10,,,72,0
22679,note_on,,59,0,15,,,,,,,,,,,,,,,13,,,57,0
22679,note_on,,59,0,16,,,,,,,,,,,,,,,15,,,57,0
22680,note_on,,1,0,13,,,,,,,,,,,,,,,11,,,71,48
22680,note_on,,1,0,12,,,,,,,,,,,,,,,10,,,71,48
22680,note_on,,1,0,16,,,,,,,,,,,,,,,15,,,55,48
22680,note_on,,1,0,15,,,,,,,,,,,,,,,13,,,55,48
22739,note_on,,59,0,12,,,,,,,,,,,,,,,10,,,71,0
22739,note_on,,59,0,15,,,,,,,,,,,,,,,13,,,55,0
22739,note_on,,179,0,11,,,,,,,,,,,,,,,14,,,67,0
22739,note_on,,59,0,16,,,,,,,,,,,,,,,15,,,67,0
22739,note_on,,0,0,16,,,,,,,,,,,,,,,15,,,62,0
22739,note_on,,0,0,16,,,,,,,,,,,,,,,15,,,74,0
22739,note_on,,0,0,16,,,,,,,,,,,,,,,15,,,55,0
22739,note_on,,59,0,13,,,,,,,,,,,,,,,11,,,71,0
22740,note_on,,1,0,15,,,,,,,,,,,,,,,13,,,36,48
22740,note_on,,1,0,12,,,,,,,,,,,,,,,10,,,57,48
22740,note_on,,1,0,13,,,,,,,,,,,,,,,11,,,57,48
22740,note_on,,1,0,11,,,,,,,,,,,,,,,14,,,67,64
22740,note_on,,1,0,16,,,,,,,,,,,,,,,15,,,76,48
22740,note_on,,0,0,16,,,,,,,,,,,,,,,15,,,36,48
22740,note_on,,0,0,16,,,,,,,,,,,,,,,15,,,69,48
22740,note_on,,0,0,16,,,,,,,,,,,,,,,15,,,67,48
22919,note_on,,0,0,16,,,,,,,,,,,,,,,15,,,69,0
22919,note_on,,179,0,16,,,,,,,,,,,,,,,15,,,76,0
22919,note_on,,0,0,16,,,,,,,,,,,,,,,15,,,67,0
22920,note_on,,0,0,16,,,,,,,,,,,,,,,15,,,72,48
22920,note_on,,0,0,16,,,,,,,,,,,,,,,15,,,64,48
22920,note_on,,1,0,16,,,,,,,,,,,,,,,15,,,69,48
23099,note_on,,0,0,16,,,,,,,,,,,,,,,15,,,64,0
23099,note_on,,179,0,16,,,,,,,,,,,,,,,15,,,36,0
23099,note_on,,359,0,15,,,,,,,,,,,,,,,13,,,36,0
23099,note_on,,0,0,16,,,,,,,,,,,,,,,15,,,69,0
23099,note_on,,0,0,16,,,,,,,,,,,,,,,15,,,72,0
23100,note_on,,1,0,15,,,,,,,,,,,,,,,13,,,37,48
23100,note_on,,0,0,16,,,,,,,,,,,,,,,15,,,67,48
23100,note_on,,1,0,16,,,,,,,,,,,,,,,15,,,64,48
23100,note_on,,0,0,16,,,,,,,,,,,,,,,15,,,69,48
23100,note_on,,0,0,16,,,,,,,,,,,,,,,15,,,37,48
23279,note_on,,179,0,16,,,,,,,,,,,,,,,15,,,64,0
23279,note_on,,0,0,16,,,,,,,,,,,,,,,15,,,67,0
23280,note_on,,0,0,16,,,,,,,,,,,,,,,15,,,57,48
23280,note_on,,1,0,16,,,,,,,,,,,,,,,15,,,64,48
23399,note_on,,659,0,11,,,,,,,,,,,,,,,14,,,67,0
23400,note_on,,1,0,11,,,,,,,,,,,,,,,14,,,67,67
23459,note_on,,59,0,11,,,,,,,,,,,,,,,14,,,67,0
23459,note_on,,359,0,15,,,,,,,,,,,,,,,13,,,37,0
23459,note_on,,179,0,16,,,,,,,,,,,,,,,15,,,69,0
23459,note_on,,0,0,16,,,,,,,,,,,,,,,15,,,57,0
23459,note_on,,0,0,16,,,,,,,,,,,,,,,15,,,64,0
23459,note_on,,0,0,16,,,,,,,,,,,,,,,15,,,37,0
23460,note_on,,0,0,16,,,,,,,,,,,,,,,15,,,62,48
23460,note_on,,0,0,16,,,,,,,,,,,,,,,15,,,38,48
23460,note_on,,0,0,16,,,,,,,,,,,,,,,15,,,74,48
23460,note_on,,1,0,15,,,,,,,,,,,,,,,13,,,38,48
23460,note_on,,1,0,16,,,,,,,,,,,,,,,15,,,50,48
23460,note_on,,0,0,16,,,,,,,,,,,,,,,15,,,67,48
23460,note_on,,1,0,11,,,,,,,,,,,,,,,14,,,67,59
23639,note_on,,179,0,11,,,,,,,,,,,,,,,14,,,67,0
23639,note_on,,899,0,12,,,,,,,,,,,,,,,10,,,57,0
23639,note_on,,179,0,16,,,,,,,,,,,,,,,15,,,50,0
23639,note_on,,899,0,13,,,,,,,,,,,,,,,11,,,57,0
23639,note_on,,0,0,16,,,,,,,,,,,,,,,15,,,67,0
23640,note_on,,1,0,11,,,,,,,,,,,,,,,14,,,66,64
23640,note_on,,0,0,16,,,,,,,,,,,,,,,15,,,66,48
23640,note_on,,1,0,16,,,,,,,,,,,,,,,15,,,62,48
23654,note_on,,14,0,11,,,,,,,,,,,,,,,14,,,66,0
23655,note_on,,1,0,11,,,,,,,,,,,,,,,14,,,67,67
23669,note_on,,14,0,11,,,,,,,,,,,,,,,14,,,67,0
23670,note_on,,1,0,11,,,,,,,,,,,,,,,14,,,66,65
23684,note_on,,14,0,11,,,,,,,,,,,,,,,14,,,66,0
23685,note_on,,1,0,11,,,,,,,,,,,,,,,14,,,67,63
23699,note_on,,14,0,11,,,,,,,,,,,,,,,14,,,67,0
23700,note_on,,1,0,11,,,,,,,,,,,,,,,14,,,66,64
23714,note_on,,14,0,11,,,,,,,,,,,,,,,14,,,66,0
23715,note_on,,1,0,11,,,,,,,,,,,,,,,14,,,67,66
23729,note_on,,14,0,11,,,,,,,,,,,,,,,14,,,67,0
23730,note_on,,1,0,11,,,,,,,,,,,,,,,14,,,66,65
23744,note_on,,14,0,11,,,,,,,,,,,,,,,14,,,66,0
23745,note_on,,1,0,11,,,,,,,,,,,,,,,14,,,67,61
23759,note_on,,14,0,11,,,,,,,,,,,,,,,14,,,67,0
23760,note_on,,121,0,12,,,,,,,,,,,,,,,10,,,69,72
23760,note_on,,121,0,13,,,,,,,,,,,,,,,11,,,69,72
23760,note_on,,1,0,11,,,,,,,,,,,,,,,14,,,66,67
23774,note_on,,14,0,11,,,,,,,,,,,,,,,14,,,66,0
23775,note_on,,1,0,11,,,,,,,,,,,,,,,14,,,67,65
23789,note_on,,14,0,11,,,,,,,,,,,,,,,14,,,67,0
23790,note_on,,1,0,11,,,,,,,,,,,,,,,14,,,66,63
23804,note_on,,14,0,11,,,,,,,,,,,,,,,14,,,66,0
23805,note_on,,1,0,11,,,,,,,,,,,,,,,14,,,67,65
23819,note_on,,59,0,13,,,,,,,,,,,,,,,11,,,69,0
23819,note_on,,0,0,16,,,,,,,,,,,,,,,15,,,66,0
23819,note_on,,59,0,12,,,,,,,,,,,,,,,10,,,69,0
23819,note_on,,14,0,11,,,,,,,,,,,,,,,14,,,67,0
23819,note_on,,0,0,16,,,,,,,,,,,,,,,15,,,38,0
23819,note_on,,179,0,16,,,,,,,,,,,,,,,15,,,74,0
23819,note_on,,359,0,15,,,,,,,,,,,,,,,13,,,38,0
23819,note_on,,0,0,16,,,,,,,,,,,,,,,15,,,62,0
23819,note_on,,0,0,16,,,,,,,,,,,,,,,15,,,62,0
23820,note_on,,2221,0,6,,,,,,,,,,,,,,,1,,,43,72
23820,note_on,,0,0,16,,,,,,,,,,,,,,,15,,,43,72
23820,note_on,,0,0,16,,,,,,,,,,,,,,,15,,,67,72
23820,note_on,,1,0,13,,,,,,,,,,,,,,,11,,,79,72
23820,note_on,,1,0,15,,,,,,,,,,,,,,,13,,,43,72
23820,note_on,,1,0,16,,,,,,,,,,,,,,,15,,,62,72
23820,note_on,,1,0,12,,,,,,,,,,,,,,,10,,,79,72
23820,note_on,,1,0,11,,,,,,,,,,,,,,,14,,,67,67
23820,note_on,,0,0,16,,,,,,,,,,,,,,,15,,,71,72
23879,note_on,,59,0,13,,,,,,,,,,,,,,,11,,,79,0
23879,note_on,,59,0,12,,,,,,,,,,,,,,,10,,,79,0
23880,note_on,,1,0,13,,,,,,,,,,,,,,,11,,,78,72
23880,note_on,,1,0,12,,,,,,,,,,,,,,,10,,,78,72
23939,note_on,,119,0,16,,,,,,,,,,,,,,,15,,,43,0
23939,note_on,,119,0,6,,,,,,,,,,,,,,,1,,,43,0
23939,note_on,,59,0,13,,,,,,,,,,,,,,,11,,,78,0
23939,note_on,,59,0,12,,,,,,,,,,,,,,,10,,,78,0
23939,note_on,,0,0,16,,,,,,,,,,,,,,,15,,,71,0
23939,note_on,,119,0,15,,,,,,,,,,,,,,,13,,,43,0
23940,note_on,,1,0,6,,,,,,,,,,,,,,,1,,,45,72
23940,note_on,,1,0,13,,,,,,,,,,,,,,,11,,,76,72
23940,note_on,,1,0,15,,,,,,,,,,,,,,,13,,,45,72
23940,note_on,,1,0,12,,,,,,,,,,,,,,,10,,,76,72
23940,note_on,,1,0,16,,,,,,,,,,,,,,,15,,,45,72
23940,note_on,,0,0,16,,,,,,,,,,,,,,,15,,,72,72
23999,note_on,,59,0,12,,,,,,,,,,,,,,,10,,,76,0
23999,note_on,,59,0,15,,,,,,,,,,,,,,,13,,,45,0
23999,note_on,,59,0,13,,,,,,,,,,,,,,,11,,,76,0
23999,note_on,,0,0,16,,,,,,,,,,,,,,,15,,,72,0
23999,note_on,,59,0,6,,,,,,,,,,,,,,,1,,,45,0
23999,note_on,,0,0,16,,,,,,,,,,,,,,,15,,,45,0
23999,note_on,,0,0,16,,,,,,,,,,,,,,,15,,,67,0
23999,note_on,,59,0,16,,,,,,,,,,,,,,,15,,,62,0
24000,note_on,,1,0,12,,,,,,,,,,,,,,,10,,,74,72
24000,note_on,,1,0,15,,,,,,,,,,,,,,,13,,,47,72
24000,note_on,,0,0,16,,,,,,,,,,,,,,,15,,,79,72
24000,note_on,,0,0,16,,,,,,,,,,,,,,,15,,,74,72
24000,note_on,,1,0,16,,,,,,,,,,,,,,,15,,,47,72
24000,note_on,,0,0,16,,,,,,,,,,,,,,,15,,,67,72
24000,note_on,,1,0,13,,,,,,,,,,,,,,,11,,,74,72
24000,note_on,,1,0,6,,,,,,,,,,,,,,,1,,,47,72
24059,note_on,,59,0,16,,,,,,,,,,,,,,,15,,,47,0
24059,note_on,,59,0,15,,,,,,,,,,,,,,,13,,,47,0
24059,note_on,,59,0,6,,,,,,,,,,,,,,,1,,,47,0
24059,note_on,,59,0,13,,,,,,,,,,,,,,,11,,,74,0
24059,note_on,,59,0,12,,,,,,,,,,,,,,,10,,,74,0
24060,note_on,,1,0,15,,,,,,,,,,,,,,,13,,,45,72
24060,note_on,,1,0,13,,,,,,,,,,,,,,,11,,,72,72
24060,note_on,,1,0,12,,,,,,,,,,,,,,,10,,,72,72
24060,note_on,,1,0,16,,,,,,,,,,,,,,,15,,,45,72
24060,note_on,,1,0,6,,,,,,,,,,,,,,,1,,,45,72
24119,note_on,,59,0,12,,,,,,,,,,,,,,,10,,,72,0
24119,note_on,,59,0,13,,,,,,,,,,,,,,,11,,,72,0
24119,note_on,,59,0,6,,,,,,,,,,,,,,,1,,,45,0
24119,note_on,,59,0,16,,,,,,,,,,,,,,,15,,,45,0
24119,note_on,,59,0,15,,,,,,,,,,,,,,,13,,,45,0
24120,note_on,,1,0,13,,,,,,,,,,,,,,,11,,,71,72
24120,note_on,,1,0,15,,,,,,,,,,,,,,,13,,,43,72
24120,note_on,,1,0,12,,,,,,,,,,,,,,,10,,,71,72
24120,note_on,,1,0,16,,,,,,,,,,,,,,,15,,,43,72
24120,note_on,,1,0,6,,,,,,,,,,,,,,,1,,,43,72
24179,note_on,,59,0,13,,,,,,,,,,,,,,,11,,,71,0
24179,note_on,,0,0,16,,,,,,,,,,,,,,,15,,,79,0
24179,note_on,,0,0,16,,,,,,,,,,,,,,,15,,,74,0
24179,note_on,,59,0,16,,,,,,,,,,,,,,,15,,,67,0
24179,note_on,,0,0,16,,,,,,,,,,,,,,,15,,,43,0
24179,note_on,,59,0,6,,,,,,,,,,,,,,,1,,,43,0
24179,note_on,,59,0,15,,,,,,,,,,,,,,,13,,,43,0
24179,note_on,,359,0,11,,,,,,,,,,,,,,,14,,,67,0
24179,note_on,,59,0,12,,,,,,,,,,,,,,,10,,,71,0
24180,note_on,,1,0,13,,,,,,,,,,,,,,,11,,,69,72
24180,note_on,,1,0,16,,,,,,,,,,,,,,,15,,,72,72
24180,note_on,,0,0,16,,,,,,,,,,,,,,,15,,,64,72
24180,note_on,,0,0,16,,,,,,,,,,,,,,,15,,,69,72
24180,note_on,,1,0,15,,,,,,,,,,,,,,,13,,,48,72
24180,note_on,,0,0,16,,,,,,,,,,,,,,,15,,,48,72
24180,note_on,,1,0,12,,,,,,,,,,,,,,,10,,,69,72
24180,note_on,,1,0,6,,,,,,,,,,,,,,,1,,,48,72
24209,note_on,,29,0,13,,,,,,,,,,,,,,,11,,,69,0
24209,note_on,,29,0,12,,,,,,,,,,,,,,,10,,,69,0
24210,note_on,,1,0,13,,,,,,,,,,,,,,,11,,,71,72
24210,note_on,,1,0,12,,,,,,,,,,,,,,,10,,,71,72
24239,note_on,,29,0,12,,,,,,,,,,,,,,,10,,,71,0
24239,note_on,,29,0,13,,,,,,,,,,,,,,,11,,,71,0
24240,note_on,,1,0,13,,,,,,,,,,,,,,,11,,,69,72
24240,note_on,,1,0,12,,,,,,,,,,,,,,,10,,,69,72
24269,note_on,,29,0,13,,,,,,,,,,,,,,,11,,,69,0
24269,note_on,,29,0,12,,,,,,,,,,,,,,,10,,,69,0
24270,note_on,,1,0,13,,,,,,,,,,,,,,,11,,,79,72
24270,note_on,,1,0,12,,,,,,,,,,,,,,,10,,,79,72
24299,note_on,,29,0,12,,,,,,,,,,,,,,,10,,,79,0
24299,note_on,,29,0,13,,,,,,,,,,,,,,,11,,,79,0
24300,note_on,,1,0,13,,,,,,,,,,,,,,,11,,,78,72
24300,note_on,,1,0,12,,,,,,,,,,,,,,,10,,,78,72
24329,note_on,,29,0,13,,,,,,,,,,,,,,,11,,,78,0
24329,note_on,,29,0,12,,,,,,,,,,,,,,,10,,,78,0
24330,note_on,,1,0,12,,,,,,,,,,,,,,,10,,,79,72
24330,note_on,,1,0,13,,,,,,,,,,,,,,,11,,,79,72
24359,note_on,,29,0,13,,,,,,,,,,,,,,,11,,,79,0
24359,note_on,,29,0,12,,,,,,,,,,,,,,,10,,,79,0
24359,note_on,,179,0,16,,,,,,,,,,,,,,,15,,,72,0
24359,note_on,,0,0,16,,,,,,,,,,,,,,,15,,,64,0
24359,note_on,,0,0,16,,,,,,,,,,,,,,,15,,,69,0
24360,note_on,,1,0,13,,,,,,,,,,,,,,,11,,,69,72
24360,note_on,,1,0,12,,,,,,,,,,,,,,,10,,,69,72
24360,note_on,,0,0,16,,,,,,,,,,,,,,,15,,,60,72
24360,note_on,,0,0,16,,,,,,,,,,,,,,,15,,,64,72
24360,note_on,,1,0,16,,,,,,,,,,,,,,,15,,,69,72
24389,note_on,,29,0,12,,,,,,,,,,,,,,,10,,,69,0
24389,note_on,,29,0,13,,,,,,,,,,,,,,,11,,,69,0
24390,note_on,,1,0,12,,,,,,,,,,,,,,,10,,,71,72
24390,note_on,,1,0,13,,,,,,,,,,,,,,,11,,,71,72
24419,note_on,,29,0,13,,,,,,,,,,,,,,,11,,,71,0
24419,note_on,,29,0,12,,,,,,,,,,,,,,,10,,,71,0
24420,note_on,,1,0,12,,,,,,,,,,,,,,,10,,,69,72
24420,note_on,,1,0,13,,,,,,,,,,,,,,,11,,,69,72
24449,note_on,,29,0,12,,,,,,,,,,,,,,,10,,,69,0
24449,note_on,,29,0,13,,,,,,,,,,,,,,,11,,,69,0
24450,note_on,,1,0,12,,,,,,,,,,,,,,,10,,,79,72
24450,note_on,,1,0,13,,,,,,,,,,,,,,,11,,,79,72
24479,note_on,,29,0,12,,,,,,,,,,,,,,,10,,,79,0
24479,note_on,,29,0,13,,,,,,,,,,,,,,,11,,,79,0
24480,note_on,,1,0,12,,,,,,,,,,,,,,,10,,,78,72
24480,note_on,,1,0,13,,,,,,,,,,,,,,,11,,,78,72
24509,note_on,,29,0,12,,,,,,,,,,,,,,,10,,,78,0
24509,note_on,,29,0,13,,,,,,,,,,,,,,,11,,,78,0
24510,note_on,,1,0,13,,,,,,,,,,,,,,,11,,,79,72
24510,note_on,,1,0,12,,,,,,,,,,,,,,,10,,,79,72
24539,note_on,,359,0,15,,,,,,,,,,,,,,,13,,,48,0
24539,note_on,,359,0,6,,,,,,,,,,,,,,,1,,,48,0
24539,note_on,,0,0,16,,,,,,,,,,,,,,,15,,,60,0
24539,note_on,,0,0,16,,,,,,,,,,,,,,,15,,,64,0
24539,note_on,,0,0,16,,,,,,,,,,,,,,,15,,,69,0
24539,note_on,,179,0,16,,,,,,,,,,,,,,,15,,,48,0
24539,note_on,,29,0,12,,,,,,,,,,,,,,,10,,,79,0
24539,note_on,,29,0,13,,,,,,,,,,,,,,,11,,,79,0
24540,note_on,,1,0,15,,,,,,,,,,,,,,,13,,,49,72
24540,note_on,,1,0,12,,,,,,,,,,,,,,,10,,,69,72
24540,note_on,,0,0,16,,,,,,,,,,,,,,,15,,,64,72
24540,note_on,,1,0,6,,,,,,,,,,,,,,,1,,,49,72
24540,note_on,,1,0,13,,,,,,,,,,,,,,,11,,,69,72
24540,note_on,,1,0,16,,,,,,,,,,,,,,,15,,,57,72
24540,note_on,,0,0,16,,,,,,,,,,,,,,,15,,,49,72
24540,note_on,,0,0,16,,,,,,,,,,,,,,,15,,,67,72
24569,note_on,,29,0,13,,,,,,,,,,,,,,,11,,,69,0
24569,note_on,,29,0,12,,,,,,,,,,,,,,,10,,,69,0
24570,note_on,,1,0,12,,,,,,,,,,,,,,,10,,,71,72
24570,note_on,,1,0,13,,,,,,,,,,,,,,,11,,,71,72
24599,note_on,,29,0,12,,,,,,,,,,,,,,,10,,,71,0
24599,note_on,,29,0,13,,,,,,,,,,,,,,,11,,,71,0
24600,note_on,,1,0,13,,,,,,,,,,,,,,,11,,,69,72
24600,note_on,,1,0,12,,,,,,,,,,,,,,,10,,,69,72
24629,note_on,,29,0,13,,,,,,,,,,,,,,,11,,,69,0
24629,note_on,,29,0,12,,,,,,,,,,,,,,,10,,,69,0
24630,note_on,,1,0,13,,,,,,,,,,,,,,,11,,,79,72
24630,note_on,,1,0,12,,,,,,,,,,,,,,,10,,,79,72
24659,note_on,,29,0,13,,,,,,,,,,,,,,,11,,,79,0
24659,note_on,,29,0,12,,,,,,,,,,,,,,,10,,,79,0
24660,note_on,,1,0,13,,,,,,,,,,,,,,,11,,,78,72
24660,note_on,,1,0,12,,,,,,,,,,,,,,,10,,,78,72
24689,note_on,,29,0,12,,,,,,,,,,,,,,,10,,,78,0
24689,note_on,,29,0,13,,,,,,,,,,,,,,,11,,,78,0
24690,note_on,,1,0,13,,,,,,,,,,,,,,,11,,,79,72
24690,note_on,,1,0,12,,,,,,,,,,,,,,,10,,,79,72
24719,note_on,,29,0,13,,,,,,,,,,,,,,,11,,,79,0
24719,note_on,,179,0,16,,,,,,,,,,,,,,,15,,,57,0
24719,note_on,,29,0,12,,,,,,,,,,,,,,,10,,,79,0
24719,note_on,,0,0,16,,,,,,,,,,,,,,,15,,,64,0
24719,note_on,,0,0,16,,,,,,,,,,,,,,,15,,,67,0
24720,note_on,,1,0,16,,,,,,,,,,,,,,,15,,,76,72
24720,note_on,,1,0,13,,,,,,,,,,,,,,,11,,,69,72
24720,note_on,,0,0,16,,,,,,,,,,,,,,,15,,,67,72
24720,note_on,,0,0,16,,,,,,,,,,,,,,,15,,,69,72
24720,note_on,,1,0,12,,,,,,,,,,,,,,,10,,,69,72
24749,note_on,,29,0,12,,,,,,,,,,,,,,,10,,,69,0
24749,note_on,,29,0,13,,,,,,,,,,,,,,,11,,,69,0
24750,note_on,,1,0,12,,,,,,,,,,,,,,,10,,,71,72
24750,note_on,,1,0,13,,,,,,,,,,,,,,,11,,,71,72
24779,note_on,,29,0,12,,,,,,,,,,,,,,,10,,,71,0
24779,note_on,,29,0,13,,,,,,,,,,,,,,,11,,,71,0
24780,note_on,,1,0,13,,,,,,,,,,,,,,,11,,,69,72
24780,note_on,,1,0,12,,,,,,,,,,,,,,,10,,,69,72
24809,note_on,,29,0,13,,,,,,,,,,,,,,,11,,,69,0
24809,note_on,,29,0,12,,,,,,,,,,,,,,,10,,,69,0
24810,note_on,,1,0,12,,,,,,,,,,,,,,,10,,,79,72
24810,note_on,,1,0,13,,,,,,,,,,,,,,,11,,,79,72
24839,note_on,,29,0,13,,,,,,,,,,,,,,,11,,,79,0
24839,note_on,,29,0,12,,,,,,,,,,,,,,,10,,,79,0
24840,note_on,,1,0,12,,,,,,,,,,,,,,,10,,,78,72
24840,note_on,,1,0,13,,,,,,,,,,,,,,,11,,,78,72
24869,note_on,,29,0,13,,,,,,,,,,,,,,,11,,,78,0
24869,note_on,,29,0,12,,,,,,,,,,,,,,,10,,,78,0
24870,note_on,,1,0,13,,,,,,,,,,,,,,,11,,,79,72
24870,note_on,,1,0,12,,,,,,,,,,,,,,,10,,,79,72
24899,note_on,,29,0,12,,,,,,,,,,,,,,,10,,,79,0
24899,note_on,,0,0,16,,,,,,,,,,,,,,,15,,,67,0
24899,note_on,,359,0,15,,,,,,,,,,,,,,,13,,,49,0
24899,note_on,,29,0,13,,,,,,,,,,,,,,,11,,,79,0
24899,note_on,,359,0,6,,,,,,,,,,,,,,,1,,,49,0
24899,note_on,,0,0,16,,,,,,,,,,,,,,,15,,,76,0
24899,note_on,,0,0,16,,,,,,,,,,,,,,,15,,,69,0
24899,note_on,,179,0,16,,,,,,,,,,,,,,,15,,,49,0
24900,note_on,,0,0,16,,,,,,,,,,,,,,,15,,,50,72
24900,note_on,,1,0,12,,,,,,,,,,,,,,,10,,,69,72
24900,note_on,,1,0,13,,,,,,,,,,,,,,,11,,,69,72
24900,note_on,,0,0,16,,,,,,,,,,,,,,,15,,,69,72
24900,note_on,,1,0,15,,,,,,,,,,,,,,,13,,,50,72
24900,note_on,,1,0,6,,,,,,,,,,,,,,,1,,,50,72
24900,note_on,,1,0,16,,,,,,,,,,,,,,,15,,,74,72
24900,note_on,,0,0,16,,,,,,,,,,,,,,,15,,,66,72
24959,note_on,,59,0,12,,,,,,,,,,,,,,,10,,,69,0
24959,note_on,,59,0,13,,,,,,,,,,,,,,,11,,,69,0
24960,note_on,,1,0,13,,,,,,,,,,,,,,,11,,,78,72
24960,note_on,,1,0,12,,,,,,,,,,,,,,,10,,,78,72
25019,note_on,,119,0,6,,,,,,,,,,,,,,,1,,,50,0
25019,note_on,,119,0,16,,,,,,,,,,,,,,,15,,,74,0
25019,note_on,,0,0,16,,,,,,,,,,,,,,,15,,,50,0
25019,note_on,,0,0,16,,,,,,,,,,,,,,,15,,,69,0
25019,note_on,,0,0,16,,,,,,,,,,,,,,,15,,,66,0
25019,note_on,,119,0,15,,,,,,,,,,,,,,,13,,,50,0
25019,note_on,,59,0,12,,,,,,,,,,,,,,,10,,,78,0
25019,note_on,,59,0,13,,,,,,,,,,,,,,,11,,,78,0
25020,note_on,,1,0,12,,,,,,,,,,,,,,,10,,,79,72
25020,note_on,,0,0,16,,,,,,,,,,,,,,,15,,,52,72
25020,note_on,,0,0,16,,,,,,,,,,,,,,,15,,,67,72
25020,note_on,,1,0,15,,,,,,,,,,,,,,,13,,,52,72
25020,note_on,,0,0,16,,,,,,,,,,,,,,,15,,,71,72
25020,note_on,,1,0,6,,,,,,,,,,,,,,,1,,,52,72
25020,note_on,,1,0,13,,,,,,,,,,,,,,,11,,,79,72
25020,note_on,,1,0,16,,,,,,,,,,,,,,,15,,,64,72
25079,note_on,,0,0,16,,,,,,,,,,,,,,,15,,,67,0
25079,note_on,,0,0,16,,,,,,,,,,,,,,,15,,,52,0
25079,note_on,,59,0,12,,,,,,,,,,,,,,,10,,,79,0
25079,note_on,,59,0,16,,,,,,,,,,,,,,,15,,,64,0
25079,note_on,,0,0,16,,,,,,,,,,,,,,,15,,,71,0
25079,note_on,,59,0,15,,,,,,,,,,,,,,,13,,,52,0
25079,note_on,,59,0,13,,,,,,,,,,,,,,,11,,,79,0
25079,note_on,,59,0,6,,,,,,,,,,,,,,,1,,,52,0
25080,note_on,,1,0,15,,,,,,,,,,,,,,,13,,,48,72
25080,note_on,,0,0,16,,,,,,,,,,,,,,,15,,,48,72
25080,note_on,,0,0,16,,,,,,,,,,,,,,,15,,,64,72
25080,note_on,,1,0,6,,,,,,,,,,,,,,,1,,,48,72
25080,note_on,,1,0,16,,,,,,,,,,,,,,,15,,,69,72
25080,note_on,,1,0,12,,,,,,,,,,,,,,,10,,,64,72
25080,note_on,,1,0,13,,,,,,,,,,,,,,,11,,,64,72
25080,note_on,,0,0,16,,,,,,,,,,,,,,,15,,,72,72
25139,note_on,,59,0,12,,,,,,,,,,,,,,,10,,,64,0
25139,note_on,,59,0,13,,,,,,,,,,,,,,,11,,,64,0
25140,note_on,,1,0,12,,,,,,,,,,,,,,,10,,,62,72
25140,note_on,,1,0,13,,,,,,,,,,,,,,,11,,,62,72
25199,note_on,,0,0,16,,,,,,,,,,,,,,,15,,,72,0
25199,note_on,,0,0,16,,,,,,,,,,,,,,,15,,,64,0
25199,note_on,,119,0,16,,,,,,,,,,,,,,,15,,,69,0
25199,note_on,,119,0,6,,,,,,,,,,,,,,,1,,,48,0
25199,note_on,,119,0,15,,,,,,,,,,,,,,,13,,,48,0
25199,note_on,,59,0,12,,,,,,,,,,,,,,,10,,,62,0
25199,note_on,,0,0,16,,,,,,,,,,,,,,,15,,,48,0
25199,note_on,,59,0,13,,,,,,,,,,,,,,,11,,,62,0
25200,note_on,,1,0,16,,,,,,,,,,,,,,,15,,,69,72
25200,note_on,,0,0,16,,,,,,,,,,,,,,,15,,,50,72
25200,note_on,,0,0,16,,,,,,,,,,,,,,,15,,,62,72
25200,note_on,,0,0,16,,,,,,,,,,,,,,,15,,,66,72
25200,note_on,,1,0,15,,,,,,,,,,,,,,,13,,,50,72
25200,note_on,,1,0,12,,,,,,,,,,,,,,,10,,,78,72
25200,note_on,,1,0,6,,,,,,,,,,,,,,,1,,,50,72
25200,note_on,,1,0,13,,,,,,,,,,,,,,,11,,,78,72
25259,note_on,,0,0,16,,,,,,,,,,,,,,,15,,,50,0
25259,note_on,,0,0,16,,,,,,,,,,,,,,,15,,,66,0
25259,note_on,,59,0,16,,,,,,,,,,,,,,,15,,,69,0
25259,note_on,,59,0,12,,,,,,,,,,,,,,,10,,,78,0
25259,note_on,,59,0,13,,,,,,,,,,,,,,,11,,,78,0
25259,note_on,,59,0,6,,,,,,,,,,,,,,,1,,,50,0
25259,note_on,,59,0,15,,,,,,,,,,,,,,,13,,,50,0
25259,note_on,,0,0,16,,,,,,,,,,,,,,,15,,,62,0
25260,note_on,,1,0,12,,,,,,,,,,,,,,,10,,,79,72
25260,note_on,,1,0,6,,,,,,,,,,,,,,,1,,,43,72
25260,note_on,,1,0,15,,,,,,,,,,,,,,,13,,,43,72
25260,note_on,,0,0,16,,,,,,,,,,,,,,,15,,,71,72
25260,note_on,,0,0,16,,,,,,,,,,,,,,,15,,,62,72
25260,note_on,,0,0,16,,,,,,,,,,,,,,,15,,,67,72
25260,note_on,,1,0,16,,,,,,,,,,,,,,,15,,,43,72
25260,note_on,,1,0,13,,,,,,,,,,,,,,,11,,,79,72
25319,note_on,,59,0,12,,,,,,,,,,,,,,,10,,,79,0
25319,note_on,,59,0,13,,,,,,,,,,,,,,,11,,,79,0
25320,note_on,,1,0,13,,,,,,,,,,,,,,,11,,,59,72
25320,note_on,,1,0,12,,,,,,,,,,,,,,,10,,,59,72
25379,note_on,,59,0,12,,,,,,,,,,,,,,,10,,,59,0
25379,note_on,,59,0,13,,,,,,,,,,,,,,,11,,,59,0
25380,note_on,,1,0,12,,,,,,,,,,,,,,,10,,,62,72
25380,note_on,,1,0,13,,,,,,,,,,,,,,,11,,,62,72
25439,note_on,,0,0,16,,,,,,,,,,,,,,,15,,,71,0
25439,note_on,,179,0,16,,,,,,,,,,,,,,,15,,,43,0
25439,note_on,,179,0,6,,,,,,,,,,,,,,,1,,,43,0
25439,note_on,,59,0,13,,,,,,,,,,,,,,,11,,,62,0
25439,note_on,,0,0,16,,,,,,,,,,,,,,,15,,,62,0
25439,note_on,,0,0,16,,,,,,,,,,,,,,,15,,,67,0
25439,note_on,,59,0,12,,,,,,,,,,,,,,,10,,,62,0
25439,note_on,,179,0,15,,,,,,,,,,,,,,,13,,,43,0
25440,note_on,,1,0,12,,,,,,,,,,,,,,,10,,,55,72
25440,note_on,,1,0,13,,,,,,,,,,,,,,,11,,,55,72
25559,note_on,,119,0,12,,,,,,,,,,,,,,,10,,,55,0
25559,note_on,,119,0,13,,,,,,,,,,,,,,,11,,,55,0
25560,note_on,,1381,0,11,,,,,,,,,,,,,,,14,,,69,64
25560,note_on,,121,0,16,,,,,,,,,,,,,,,15,,,69,48
25560,note_on,,0,0,16,,,,,,,,,,,,,,,15,,,57,48
25560,note_on,,0,0,16,,,,,,,,,,,,,,,15,,,54,48
25560,note_on,,121,0,15,,,,,,,,,,,,,,,13,,,54,48
25619,note_on,,59,0,11,,,,,,,,,,,,,,,14,,,69,0
25619,note_on,,59,0,15,,,,,,,,,,,,,,,13,,,54,0
25619,note_on,,0,0,16,,,,,,,,,,,,,,,15,,,54,0
25619,note_on,,59,0,16,,,,,,,,,,,,,,,15,,,69,0
25619,note_on,,0,0,16,,,,,,,,,,,,,,,15,,,57,0
25620,note_on,,1,0,16,,,,,,,,,,,,,,,15,,,66,48
25620,note_on,,0,0,16,,,,,,,,,,,,,,,15,,,62,48
25620,note_on,,0,0,16,,,,,,,,,,,,,,,15,,,59,48
25620,note_on,,1,0,15,,,,,,,,,,,,,,,13,,,59,48
25620,note_on,,1,0,11,,,,,,,,,,,,,,,14,,,62,60
25679,note_on,,59,0,16,,,,,,,,,,,,,,,15,,,59,0
25679,note_on,,59,0,15,,,,,,,,,,,,,,,13,,,59,0
25680,note_on,,1,0,16,,,,,,,,,,,,,,,15,,,57,48
25680,note_on,,1,0,15,,,,,,,,,,,,,,,13,,,57,48
25739,note_on,,59,0,15,,,,,,,,,,,,,,,13,,,57,0
25739,note_on,,59,0,16,,,,,,,,,,,,,,,15,,,66,0
25739,note_on,,0,0,16,,,,,,,,,,,,,,,15,,,57,0
25739,note_on,,119,0,11,,,,,,,,,,,,,,,14,,,62,0
25740,note_on,,1,0,15,,,,,,,,,,,,,,,13,,,55,48
25740,note_on,,1,0,16,,,,,,,,,,,,,,,15,,,71,48
25740,note_on,,0,0,16,,,,,,,,,,,,,,,15,,,55,48
25740,note_on,,1,0,11,,,,,,,,,,,,,,,14,,,64,60
25799,note_on,,59,0,15,,,,,,,,,,,,,,,13,,,55,0
25799,note_on,,0,0,16,,,,,,,,,,,,,,,15,,,55,0
25799,note_on,,0,0,16,,,,,,,,,,,,,,,15,,,71,0
25799,note_on,,59,0,16,,,,,,,,,,,,,,,15,,,62,0
25799,note_on,,59,0,11,,,,,,,,,,,,,,,14,,,64,0
25800,note_on,,1,0,15,,,,,,,,,,,,,,,13,,,57,48
25800,note_on,,0,0,16,,,,,,,,,,,,,,,15,,,61,48
25800,note_on,,0,0,16,,,,,,,,,,,,,,,15,,,64,48
25800,note_on,,1,0,16,,,,,,,,,,,,,,,15,,,57,48
25800,note_on,,1,0,11,,,,,,,,,,,,,,,14,,,61,62
25859,note_on,,59,0,11,,,,,,,,,,,,,,,14,,,61,0
25860,note_on,,1,0,11,,,,,,,,,,,,,,,14,,,62,65
25919,note_on,,119,0,15,,,,,,,,,,,,,,,13,,,57,0
25919,note_on,,0,0,16,,,,,,,,,,,,,,,15,,,64,0
25919,note_on,,119,0,16,,,,,,,,,,,,,,,15,,,57,0
25919,note_on,,59,0,11,,,,,,,,,,,,,,,14,,,62,0
25919,note_on,,0,0,16,,,,,,,,,,,,,,,15,,,61,0
25920,note_on,,1,0,11,,,,,,,,,,,,,,,14,,,64,68
25920,note_on,,1,0,15,,,,,,,,,,,,,,,13,,,49,48
25920,note_on,,1,0,16,,,,,,,,,,,,,,,15,,,57,48
25920,note_on,,0,0,16,,,,,,,,,,,,,,,15,,,69,48
25920,note_on,,0,0,16,,,,,,,,,,,,,,,15,,,64,48
25920,note_on,,0,0,16,,,,,,,,,,,,,,,15,,,49,48
25979,note_on,,59,0,11,,,,,,,,,,,,,,,14,,,64,0
25979,note_on,,59,0,15,,,,,,,,,,,,,,,13,,,49,0
25979,note_on,,0,0,16,,,,,,,,,,,,,,,15,,,49,0
25979,note_on,,0,0,16,,,,,,,,,,,,,,,15,,,64,0
25979,note_on,,0,0,16,,,,,,,,,,,,,,,15,,,69,0
25979,note_on,,59,0,16,,,,,,,,,,,,,,,15,,,57,0
25980,note_on,,1,0,16,,,,,,,,,,,,,,,15,,,57,48
25980,note_on,,1,0,15,,,,,,,,,,,,,,,13,,,50,48
25980,note_on,,0,0,16,,,,,,,,,,,,,,,15,,,50,48
25980,note_on,,0,0,16,,,,,,,,,,,,,,,15,,,66,48
25980,note_on,,0,0,16,,,,,,,,,,,,,,,15,,,62,48
25980,note_on,,1,0,11,,,,,,,,,,,,,,,14,,,66,62
26039,note_on,,59,0,15,,,,,,,,,,,,,,,13,,,50,0
26039,note_on,,59,0,11,,,,,,,,,,,,,,,14,,,66,0
26039,note_on,,59,0,16,,,,,,,,,,,,,,,15,,,50,0
26040,note_on,,1,0,16,,,,,,,,,,,,,,,15,,,52,48
26040,note_on,,1,0,15,,,,,,,,,,,,,,,13,,,52,48
26040,note_on,,1,0,11,,,,,,,,,,,,,,,14,,,67,63
26099,note_on,,59,0,11,,,,,,,,,,,,,,,14,,,67,0
26099,note_on,,0,0,16,,,,,,,,,,,,,,,15,,,52,0
26099,note_on,,59,0,16,,,,,,,,,,,,,,,15,,,57,0
26099,note_on,,59,0,15,,,,,,,,,,,,,,,13,,,52,0
26099,note_on,,0,0,16,,,,,,,,,,,,,,,15,,,66,0
26099,note_on,,0,0,16,,,,,,,,,,,,,,,15,,,62,0
26100,note_on,,1,0,15,,,,,,,,,,,,,,,13,,,50,48
26100,note_on,,1,0,11,,,,,,,,,,,,,,,14,,,66,65
26100,note_on,,1,0,16,,,,,,,,,,,,,,,15,,,74,48
26100,note_on,,0,0,16,,,,,,,,,,,,,,,15,,,50,48
26100,note_on,,0,0,16,,,,,,,,,,,,,,,15,,,66,48
26100,note_on,,0,0,16,,,,,,,,,,,,,,,15,,,69,48
26159,note_on,,59,0,11,,,,,,,,,,,,,,,14,,,66,0
26159,note_on,,59,0,15,,,,,,,,,,,,,,,13,,,50,0
26159,note_on,,0,0,16,,,,,,,,,,,,,,,15,,,50,0
26159,note_on,,0,0,16,,,,,,,,,,,,,,,15,,,69,0
26159,note_on,,0,0,16,,,,,,,,,,,,,,,15,,,66,0
26159,note_on,,59,0,16,,,,,,,,,,,,,,,15,,,74,0
26160,note_on,,1,0,15,,,,,,,,,,,,,,,13,,,57,48
26160,note_on,,0,0,16,,,,,,,,,,,,,,,15,,,57,48
26160,note_on,,1,0,16,,,,,,,,,,,,,,,15,,,62,48
26160,note_on,,0,0,16,,,,,,,,,,,,,,,15,,,69,48
26160,note_on,,0,0,16,,,,,,,,,,,,,,,15,,,66,48
26160,note_on,,1,0,11,,,,,,,,,,,,,,,14,,,66,59
26219,note_on,,59,0,11,,,,,,,,,,,,,,,14,,,66,0
26219,note_on,,59,0,16,,,,,,,,,,,,,,,15,,,62,0
26219,note_on,,0,0,16,,,,,,,,,,,,,,,15,,,66,0
26220,note_on,,1,0,11,,,,,,,,,,,,,,,14,,,64,61
26220,note_on,,0,0,16,,,,,,,,,,,,,,,15,,,64,48
26220,note_on,,1,0,16,,,,,,,,,,,,,,,15,,,61,48
26279,note_on,,59,0,16,,,,,,,,,,,,,,,15,,,69,0
26279,note_on,,0,0,16,,,,,,,,,,,,,,,15,,,57,0
26279,note_on,,0,0,16,,,,,,,,,,,,,,,15,,,61,0
26279,note_on,,0,0,16,,,,,,,,,,,,,,,15,,,64,0
26279,note_on,,59,0,11,,,,,,,,,,,,,,,14,,,64,0
26279,note_on,,119,0,15,,,,,,,,,,,,,,,13,,,57,0
26280,note_on,,721,0,13,,,,,,,,,,,,,,,11,,,81,72
26280,note_on,,841,0,6,,,,,,,,,,,,,,,1,,,54,48
26280,note_on,,1,0,16,,,,,,,,,,,,,,,15,,,54,48
26280,note_on,,0,0,16,,,,,,,,,,,,,,,15,,,57,48
26280,note_on,,0,0,16,,,,,,,,,,,,,,,15,,,62,48
26280,note_on,,721,0,12,,,,,,,,,,,,,,,10,,,81,72
26280,note_on,,1,0,15,,,,,,,,,,,,,,,13,,,54,48
26339,note_on,,59,0,15,,,,,,,,,,,,,,,13,,,54,0
26339,note_on,,59,0,6,,,,,,,,,,,,,,,1,,,54,0
26339,note_on,,59,0,13,,,,,,,,,,,,,,,11,,,81,0
26339,note_on,,59,0,16,,,,,,,,,,,,,,,15,,,54,0
26339,note_on,,59,0,12,,,,,,,,,,,,,,,10,,,81,0
26339,note_on,,0,0,16,,,,,,,,,,,,,,,15,,,57,0
26339,note_on,,0,0,16,,,,,,,,,,,,,,,15,,,62,0
26340,note_on,,0,0,16,,,,,,,,,,,,,,,15,,,62,48
26340,note_on,,0,0,16,,,,,,,,,,,,,,,15,,,59,48
26340,note_on,,1,0,13,,,,,,,,,,,,,,,11,,,74,72
26340,note_on,,1,0,12,,,,,,,,,,,,,,,10,,,74,72
26340,note_on,,1,0,6,,,,,,,,,,,,,,,1,,,59,48
26340,note_on,,1,0,16,,,,,,,,,,,,,,,15,,,66,48
26340,note_on,,1,0,15,,,,,,,,,,,,,,,13,,,59,48
26399,note_on,,59,0,15,,,,,,,,,,,,,,,13,,,59,0
26399,note_on,,59,0,16,,,,,,,,,,,,,,,15,,,66,0
26399,note_on,,0,0,16,,,,,,,,,,,,,,,15,,,59,0
26399,note_on,,59,0,6,,,,,,,,,,,,,,,1,,,59,0
26400,note_on,,1,0,15,,,,,,,,,,,,,,,13,,,54,48
26400,note_on,,1,0,16,,,,,,,,,,,,,,,15,,,69,48
26400,note_on,,0,0,16,,,,,,,,,,,,,,,15,,,54,48
26400,note_on,,1,0,6,,,,,,,,,,,,,,,1,,,54,48
26459,note_on,,59,0,15,,,,,,,,,,,,,,,13,,,54,0
26459,note_on,,59,0,6,,,,,,,,,,,,,,,1,,,54,0
26459,note_on,,119,0,13,,,,,,,,,,,,,,,11,,,74,0
26459,note_on,,119,0,12,,,,,,,,,,,,,,,10,,,74,0
26459,note_on,,59,0,16,,,,,,,,,,,,,,,15,,,69,0
26459,note_on,,0,0,16,,,,,,,,,,,,,,,15,,,54,0
26460,note_on,,1,0,15,,,,,,,,,,,,,,,13,,,55,48
26460,note_on,,1,0,6,,,,,,,,,,,,,,,1,,,55,48
26460,note_on,,1,0,16,,,,,,,,,,,,,,,15,,,71,48
26460,note_on,,1,0,12,,,,,,,,,,,,,,,10,,,76,72
26460,note_on,,0,0,16,,,,,,,,,,,,,,,15,,,55,48
26460,note_on,,1,0,13,,,,,,,,,,,,,,,11,,,76,72
26519,note_on,,59,0,13,,,,,,,,,,,,,,,11,,,76,0
26519,note_on,,59,0,6,,,,,,,,,,,,,,,1,,,55,0
26519,note_on,,59,0,12,,,,,,,,,,,,,,,10,,,76,0
26519,note_on,,0,0,16,,,,,,,,,,,,,,,15,,,55,0
26519,note_on,,0,0,16,,,,,,,,,,,,,,,15,,,71,0
26519,note_on,,59,0,16,,,,,,,,,,,,,,,15,,,62,0
26519,note_on,,59,0,15,,,,,,,,,,,,,,,13,,,55,0
26520,note_on,,0,0,16,,,,,,,,,,,,,,,15,,,61,48
26520,note_on,,1,0,16,,,,,,,,,,,,,,,15,,,57,48
26520,note_on,,0,0,16,,,,,,,,,,,,,,,15,,,64,48
26520,note_on,,0,0,16,,,,,,,,,,,,,,,15,,,69,48
26520,note_on,,1,0,12,,,,,,,,,,,,,,,10,,,73,72
26520,note_on,,1,0,13,,,,,,,,,,,,,,,11,,,73,72
26520,note_on,,1,0,6,,,,,,,,,,,,,,,1,,,57,48
26520,note_on,,1,0,15,,,,,,,,,,,,,,,13,,,57,48
26579,note_on,,59,0,12,,,,,,,,,,,,,,,10,,,73,0
26579,note_on,,59,0,15,,,,,,,,,,,,,,,13,,,57,0
26579,note_on,,59,0,13,,,,,,,,,,,,,,,11,,,73,0
26579,note_on,,59,0,6,,,,,,,,,,,,,,,1,,,57,0
26579,note_on,,59,0,16,,,,,,,,,,,,,,,15,,,57,0
26580,note_on,,1,0,15,,,,,,,,,,,,,,,13,,,59,48
26580,note_on,,1,0,12,,,,,,,,,,,,,,,10,,,74,72
26580,note_on,,1,0,13,,,,,,,,,,,,,,,11,,,74,72
26580,note_on,,1,0,16,,,,,,,,,,,,,,,15,,,59,48
26580,note_on,,1,0,6,,,,,,,,,,,,,,,1,,,59,48
26639,note_on,,59,0,13,,,,,,,,,,,,,,,11,,,74,0
26639,note_on,,59,0,6,,,,,,,,,,,,,,,1,,,59,0
26639,note_on,,59,0,12,,,,,,,,,,,,,,,10,,,74,0
26639,note_on,,59,0,15,,,,,,,,,,,,,,,13,,,59,0
26639,note_on,,59,0,16,,,,,,,,,,,,,,,15,,,69,0
26639,note_on,,0,0,16,,,,,,,,,,,,,,,15,,,59,0
26640,note_on,,1,0,12,,,,,,,,,,,,,,,10,,,76,72
26640,note_on,,1,0,15,,,,,,,,,,,,,,,13,,,61,48
26640,note_on,,0,0,16,,,,,,,,,,,,,,,15,,,64,48
26640,note_on,,1,0,13,,,,,,,,,,,,,,,11,,,76,72
26640,note_on,,1,0,16,,,,,,,,,,,,,,,15,,,61,48
26640,note_on,,1,0,6,,,,,,,,,,,,,,,1,,,61,48
26699,note_on,,59,0,16,,,,,,,,,,,,,,,15,,,61,0
26699,note_on,,59,0,12,,,,,,,,,,,,,,,10,,,76,0
26699,note_on,,59,0,15,,,,,,,,,,,,,,,13,,,61,0
26699,note_on,,59,0,13,,,,,,,,,,,,,,,11,,,76,0
26699,note_on,,59,0,6,,,,,,,,,,,,,,,1,,,61,0
26699,note_on,,0,0,16,,,,,,,,,,,,,,,15,,,61,0
26699,note_on,,0,0,16,,,,,,,,,,,,,,,15,,,64,0
26699,note_on,,0,0,16,,,,,,,,,,,,,,,15,,,64,0
26700,note_on,,1,0,6,,,,,,,,,,,,,,,1,,,62,48
26700,note_on,,1,0,16,,,,,,,,,,,,,,,15,,,69,48
26700,note_on,,1,0,12,,,,,,,,,,,,,,,10,,,78,72
26700,note_on,,1,0,15,,,,,,,,,,,,,,,13,,,62,48
26700,note_on,,1,0,13,,,,,,,,,,,,,,,11,,,78,72
26700,note_on,,0,0,16,,,,,,,,,,,,,,,15,,,62,48
26700,note_on,,0,0,16,,,,,,,,,,,,,,,15,,,66,48
26759,note_on,,0,0,16,,,,,,,,,,,,,,,15,,,62,0
26759,note_on,,59,0,6,,,,,,,,,,,,,,,1,,,62,0
26759,note_on,,59,0,12,,,,,,,,,,,,,,,10,,,78,0
26759,note_on,,59,0,13,,,,,,,,,,,,,,,11,,,78,0
26759,note_on,,59,0,15,,,,,,,,,,,,,,,13,,,62,0
26759,note_on,,59,0,16,,,,,,,,,,,,,,,15,,,69,0
26759,note_on,,0,0,16,,,,,,,,,,,,,,,15,,,66,0
26760,note_on,,0,0,16,,,,,,,,,,,,,,,15,,,67,48
26760,note_on,,1,0,12,,,,,,,,,,,,,,,10,,,79,72
26760,note_on,,1,0,13,,,,,,,,,,,,,,,11,,,79,72
26760,note_on,,1,0,16,,,,,,,,,,,,,,,15,,,64,48
26760,note_on,,0,0,16,,,,,,,,,,,,,,,15,,,73,48
26760,note_on,,1,0,15,,,,,,,,,,,,,,,13,,,64,48
26760,note_on,,1,0,6,,,,,,,,,,,,,,,1,,,64,48
26819,note_on,,59,0,13,,,,,,,,,,,,,,,11,,,79,0
26819,note_on,,59,0,15,,,,,,,,,,,,,,,13,,,64,0
26819,note_on,,0,0,16,,,,,,,,,,,,,,,15,,,67,0
26819,note_on,,59,0,16,,,,,,,,,,,,,,,15,,,64,0
26819,note_on,,0,0,16,,,,,,,,,,,,,,,15,,,73,0
26819,note_on,,59,0,6,,,,,,,,,,,,,,,1,,,64,0
26819,note_on,,59,0,12,,,,,,,,,,,,,,,10,,,79,0
26820,note_on,,0,0,16,,,,,,,,,,,,,,,15,,,62,48
26820,note_on,,0,0,16,,,,,,,,,,,,,,,15,,,66,48
26820,note_on,,1,0,16,,,,,,,,,,,,,,,15,,,69,48
26820,note_on,,0,0,16,,,,,,,,,,,,,,,15,,,74,48
26820,note_on,,1,0,6,,,,,,,,,,,,,,,1,,,62,48
26820,note_on,,1,0,15,,,,,,,,,,,,,,,13,,,62,48
26820,note_on,,1,0,13,,,,,,,,,,,,,,,11,,,78,72
26820,note_on,,1,0,12,,,,,,,,,,,,,,,10,,,78,72
26879,note_on,,0,0,16,,,,,,,,,,,,,,,15,,,66,0
26879,note_on,,0,0,16,,,,,,,,,,,,,,,15,,,74,0
26879,note_on,,0,0,16,,,,,,,,,,,,,,,15,,,62,0
26879,note_on,,59,0,12,,,,,,,,,,,,,,,10,,,78,0
26879,note_on,,59,0,6,,,,,,,,,,,,,,,1,,,62,0
26879,note_on,,59,0,15,,,,,,,,,,,,,,,13,,,62,0
26879,note_on,,59,0,13,,,,,,,,,,,,,,,11,,,78,0
26879,note_on,,59,0,16,,,,,,,,,,,,,,,15,,,69,0
26880,note_on,,1,0,12,,,,,,,,,,,,,,,10,,,78,72
26880,note_on,,1,0,6,,,,,,,,,,,,,,,1,,,57,48
26880,note_on,,1,0,16,,,,,,,,,,,,,,,15,,,74,48
26880,note_on,,0,0,16,,,,,,,,,,,,,,,15,,,57,48
26880,note_on,,0,0,16,,,,,,,,,,,,,,,15,,,69,48
26880,note_on,,0,0,16,,,,,,,,,,,,,,,15,,,66,48
26880,note_on,,1,0,15,,,,,,,,,,,,,,,13,,,57,48
26880,note_on,,1,0,13,,,,,,,,,,,,,,,11,,,78,72
26939,note_on,,59,0,13,,,,,,,,,,,,,,,11,,,78,0
26939,note_on,,0,0,16,,,,,,,,,,,,,,,15,,,66,0
26939,note_on,,59,0,16,,,,,,,,,,,,,,,15,,,74,0
26939,note_on,,59,0,12,,,,,,,,,,,,,,,10,,,78,0
26940,note_on,,1,0,13,,,,,,,,,,,,,,,11,,,76,72
26940,note_on,,1,0,16,,,,,,,,,,,,,,,15,,,73,48
26940,note_on,,1,0,12,,,,,,,,,,,,,,,10,,,76,72
26940,note_on,,0,0,16,,,,,,,,,,,,,,,15,,,64,48
26999,note_on,,0,0,16,,,,,,,,,,,,,,,15,,,73,0
26999,note_on,,0,0,16,,,,,,,,,,,,,,,15,,,64,0
26999,note_on,,0,0,16,,,,,,,,,,,,,,,15,,,69,0
26999,note_on,,59,0,16,,,,,,,,,,,,,,,15,,,57,0
26999,note_on,,59,0,12,,,,,,,,,,,,,,,10,,,76,0
26999,note_on,,119,0,15,,,,,,,,,,,,,,,13,,,57,0
26999,note_on,,119,0,6,,,,,,,,,,,,,,,1,,,57,0
26999,note_on,,59,0,13,,,,,,,,,,,,,,,11,,,76,0
27000,note_on,,1,0,15,,,,,,,,,,,,,,,13,,,55,48
27000,note_on,,1,0,16,,,,,,,,,,,,,,,15,,,55,48
27000,note_on,,0,0,16,,,,,,,,,,,,,,,15,,,69,48
27000,note_on,,0,0,16,,,,,,,,,,,,,,,15,,,64,48
27000,note_on,,721,0,11,,,,,,,,,,,,,,,14,,,64,64
27059,note_on,,0,0,16,,,,,,,,,,,,,,,15,,,64,0
27059,note_on,,0,0,16,,,,,,,,,,,,,,,15,,,69,0
27059,note_on,,59,0,16,,,,,,,,,,,,,,,15,,,55,0
27059,note_on,,59,0,15,,,,,,,,,,,,,,,13,,,55,0
27059,note_on,,59,0,11,,,,,,,,,,,,,,,14,,,64,0
27060,note_on,,1,0,16,,,,,,,,,,,,,,,15,,,74,48
27060,note_on,,0,0,16,,,,,,,,,,,,,,,15,,,66,48
27060,note_on,,0,0,16,,,,,,,,,,,,,,,15,,,69,48
27060,note_on,,0,0,16,,,,,,,,,,,,,,,15,,,54,48
27060,note_on,,1,0,15,,,,,,,,,,,,,,,13,,,54,48
27060,note_on,,1,0,11,,,,,,,,,,,,,,,14,,,69,68
27119,note_on,,59,0,16,,,,,,,,,,,,,,,15,,,54,0
27119,note_on,,59,0,15,,,,,,,,,,,,,,,13,,,54,0
27120,note_on,,1,0,16,,,,,,,,,,,,,,,15,,,62,48
27120,note_on,,1,0,15,,,,,,,,,,,,,,,13,,,62,48
27179,note_on,,119,0,11,,,,,,,,,,,,,,,14,,,69,0
27179,note_on,,59,0,15,,,,,,,,,,,,,,,13,,,62,0
27179,note_on,,59,0,16,,,,,,,,,,,,,,,15,,,62,0
27180,note_on,,1,0,15,,,,,,,,,,,,,,,13,,,54,48
27180,note_on,,1,0,16,,,,,,,,,,,,,,,15,,,54,48
27239,note_on,,0,0,16,,,,,,,,,,,,,,,15,,,69,0
27239,note_on,,0,0,16,,,,,,,,,,,,,,,15,,,66,0
27239,note_on,,59,0,16,,,,,,,,,,,,,,,15,,,74,0
27239,note_on,,0,0,16,,,,,,,,,,,,,,,15,,,54,0
27239,note_on,,59,0,15,,,,,,,,,,,,,,,13,,,54,0
27240,note_on,,1,0,15,,,,,,,,,,,,,,,13,,,52,48
27240,note_on,,1,0,16,,,,,,,,,,,,,,,15,,,67,48
27240,note_on,,0,0,16,,,,,,,,,,,,,,,15,,,52,48
27240,note_on,,0,0,16,,,,,,,,,,,,,,,15,,,79,48
27240,note_on,,0,0,16,,,,,,,,,,,,,,,15,,,73,48
27240,note_on,,61,0,11,,,,,,,,,,,,,,,14,,,67,67
27359,note_on,,119,0,15,,,,,,,,,,,,,,,13,,,52,0
27359,note_on,,0,0,16,,,,,,,,,,,,,,,15,,,73,0
27359,note_on,,119,0,16,,,,,,,,,,,,,,,15,,,67,0
27359,note_on,,119,0,11,,,,,,,,,,,,,,,14,,,67,0
27359,note_on,,0,0,16,,,,,,,,,,,,,,,15,,,79,0
27359,note_on,,0,0,16,,,,,,,,,,,,,,,15,,,52,0
27360,note_on,,1,0,11,,,,,,,,,,,,,,,14,,,64,61
27360,note_on,,1,0,16,,,,,,,,,,,,,,,15,,,69,48
27360,note_on,,0,0,16,,,,,,,,,,,,,,,15,,,76,48
27360,note_on,,1,0,15,,,,,,,,,,,,,,,13,,,61,48
27360,note_on,,0,0,16,,,,,,,,,,,,,,,15,,,67,48
27360,note_on,,0,0,16,,,,,,,,,,,,,,,15,,,61,48
27419,note_on,,59,0,11,,,,,,,,,,,,,,,14,,,64,0
27419,note_on,,59,0,15,,,,,,,,,,,,,,,13,,,61,0
27419,note_on,,0,0,16,,,,,,,,,,,,,,,15,,,76,0
27419,note_on,,0,0,16,,,,,,,,,,,,,,,15,,,61,0
27419,note_on,,59,0,16,,,,,,,,,,,,,,,15,,,69,0
27419,note_on,,0,0,16,,,,,,,,,,,,,,,15,,,67,0
27420,note_on,,0,0,16,,,,,,,,,,,,,,,15,,,69,48
27420,note_on,,1,0,11,,,,,,,,,,,,,,,14,,,66,66
27420,note_on,,0,0,16,,,,,,,,,,,,,,,15,,,62,48
27420,note_on,,1,0,16,,,,,,,,,,,,,,,15,,,66,48
27420,note_on,,1,0,15,,,,,,,,,,,,,,,13,,,62,48
27479,note_on,,59,0,16,,,,,,,,,,,,,,,15,,,62,0
27479,note_on,,59,0,11,,,,,,,,,,,,,,,14,,,66,0
27479,note_on,,59,0,15,,,,,,,,,,,,,,,13,,,62,0
27480,note_on,,1,0,15,,,,,,,,,,,,,,,13,,,64,48
27480,note_on,,1,0,16,,,,,,,,,,,,,,,15,,,64,48
27480,note_on,,1,0,11,,,,,,,,,,,,,,,14,,,67,65
27539,note_on,,59,0,15,,,,,,,,,,,,,,,13,,,64,0
27539,note_on,,59,0,16,,,,,,,,,,,,,,,15,,,64,0
27539,note_on,,59,0,11,,,,,,,,,,,,,,,14,,,67,0
27540,note_on,,1,0,11,,,,,,,,,,,,,,,14,,,66,61
27540,note_on,,1,0,15,,,,,,,,,,,,,,,13,,,62,48
27540,note_on,,1,0,16,,,,,,,,,,,,,,,15,,,62,48
27599,note_on,,59,0,11,,,,,,,,,,,,,,,14,,,66,0
27599,note_on,,59,0,16,,,,,,,,,,,,,,,15,,,66,0
27599,note_on,,0,0,16,,,,,,,,,,,,,,,15,,,69,0
27599,note_on,,0,0,16,,,,,,,,,,,,,,,15,,,62,0
27599,note_on,,59,0,15,,,,,,,,,,,,,,,13,,,62,0
27600,note_on,,1,0,11,,,,,,,,,,,,,,,14,,,64,61
27600,note_on,,1,0,15,,,,,,,,,,,,,,,13,,,57,48
27600,note_on,,0,0,16,,,,,,,,,,,,,,,15,,,81,48
27600,note_on,,0,0,16,,,,,,,,,,,,,,,15,,,69,48
27600,note_on,,0,0,16,,,,,,,,,,,,,,,15,,,57,48
27600,note_on,,1,0,16,,,,,,,,,,,,,,,15,,,76,48
27600,note_on,,0,0,16,,,,,,,,,,,,,,,15,,,73,48
27659,note_on,,59,0,16,,,,,,,,,,,,,,,15,,,57,0
27659,note_on,,0,0,16,,,,,,,,,,,,,,,15,,,73,0
27659,note_on,,59,0,15,,,,,,,,,,,,,,,13,,,57,0
27660,note_on,,661,0,6,,,,,,,,,,,,,,,1,,,61,48
27660,note_on,,1,0,15,,,,,,,,,,,,,,,13,,,61,48
27660,note_on,,0,0,16,,,,,,,,,,,,,,,15,,,61,48
27660,note_on,,1,0,16,,,,,,,,,,,,,,,15,,,76,48
27690,note_on,,691,0,13,,,,,,,,,,,,,,,11,,,69,72
27690,note_on,,691,0,12,,,,,,,,,,,,,,,10,,,69,72
27719,note_on,,59,0,6,,,,,,,,,,,,,,,1,,,61,0
27719,note_on,,0,0,16,,,,,,,,,,,,,,,15,,,61,0
27719,note_on,,29,0,13,,,,,,,,,,,,,,,11,,,69,0
27719,note_on,,29,0,12,,,,,,,,,,,,,,,10,,,69,0
27719,note_on,,59,0,15,,,,,,,,,,,,,,,13,,,61,0
27719,note_on,,59,0,16,,,,,,,,,,,,,,,15,,,76,0
27720,note_on,,1,0,15,,,,,,,,,,,,,,,13,,,57,48
27720,note_on,,0,0,16,,,,,,,,,,,,,,,15,,,73,48
27720,note_on,,1,0,12,,,,,,,,,,,,,,,10,,,71,72
27720,note_on,,1,0,13,,,,,,,,,,,,,,,11,,,71,72
27720,note_on,,1,0,6,,,,,,,,,,,,,,,1,,,57,48
27720,note_on,,1,0,16,,,,,,,,,,,,,,,15,,,57,48
27749,note_on,,29,0,13,,,,,,,,,,,,,,,11,,,71,0
27749,note_on,,29,0,12,,,,,,,,,,,,,,,10,,,71,0
27750,note_on,,1,0,12,,,,,,,,,,,,,,,10,,,69,72
27750,note_on,,1,0,13,,,,,,,,,,,,,,,11,,,69,72
27779,note_on,,179,0,11,,,,,,,,,,,,,,,14,,,64,0
27779,note_on,,29,0,13,,,,,,,,,,,,,,,11,,,69,0
27779,note_on,,29,0,12,,,,,,,,,,,,,,,10,,,69,0
27779,note_on,,0,0,16,,,,,,,,,,,,,,,15,,,57,0
27779,note_on,,0,0,16,,,,,,,,,,,,,,,15,,,76,0
27779,note_on,,0,0,16,,,,,,,,,,,,,,,15,,,73,0
27779,note_on,,59,0,16,,,,,,,,,,,,,,,15,,,69,0
27779,note_on,,59,0,15,,,,,,,,,,,,,,,13,,,57,0
27779,note_on,,0,0,16,,,,,,,,,,,,,,,15,,,81,0
27779,note_on,,59,0,6,,,,,,,,,,,,,,,1,,,57,0
27780,note_on,,1,0,6,,,,,,,,,,,,,,,1,,,54,48
27780,note_on,,1,0,13,,,,,,,,,,,,,,,11,,,81,72
27780,note_on,,1,0,16,,,,,,,,,,,,,,,15,,,69,48
27780,note_on,,0,0,16,,,,,,,,,,,,,,,15,,,74,48
27780,note_on,,0,0,16,,,,,,,,,,,,,,,15,,,54,48
27780,note_on,,1,0,12,,,,,,,,,,,,,,,10,,,81,72
27780,note_on,,1,0,15,,,,,,,,,,,,,,,13,,,54,48
27809,note_on,,29,0,12,,,,,,,,,,,,,,,10,,,81,0
27809,note_on,,29,0,13,,,,,,,,,,,,,,,11,,,81,0
27810,note_on,,1,0,12,,,,,,,,,,,,,,,10,,,83,72
27810,note_on,,1,0,13,,,,,,,,,,,,,,,11,,,83,72
27839,note_on,,29,0,13,,,,,,,,,,,,,,,11,,,83,0
27839,note_on,,29,0,12,,,,,,,,,,,,,,,10,,,83,0
27840,note_on,,1,0,13,,,,,,,,,,,,,,,11,,,81,72
27840,note_on,,1,0,12,,,,,,,,,,,,,,,10,,,81,72
27869,note_on,,29,0,12,,,,,,,,,,,,,,,10,,,81,0
27869,note_on,,29,0,13,,,,,,,,,,,,,,,11,,,81,0
27870,note_on,,1,0,12,,,,,,,,,,,,,,,10,,,69,72
27870,note_on,,1,0,13,,,,,,,,,,,,,,,11,,,69,72
27899,note_on,,119,0,15,,,,,,,,,,,,,,,13,,,54,0
27899,note_on,,29,0,12,,,,,,,,,,,,,,,10,,,69,0
27899,note_on,,119,0,16,,,,,,,,,,,,,,,15,,,54,0
27899,note_on,,29,0,13,,,,,,,,,,,,,,,11,,,69,0
27899,note_on,,119,0,6,,,,,,,,,,,,,,,1,,,54,0
27900,note_on,,1,0,12,,,,,,,,,,,,,,,10,,,71,72
27900,note_on,,1,0,13,,,,,,,,,,,,,,,11,,,71,72
27900,note_on,,1,0,6,,,,,,,,,,,,,,,1,,,62,48
27900,note_on,,1,0,15,,,,,,,,,,,,,,,13,,,62,48
27900,note_on,,1,0,16,,,,,,,,,,,,,,,15,,,62,48
27929,note_on,,29,0,12,,,,,,,,,,,,,,,10,,,71,0
27929,note_on,,29,0,13,,,,,,,,,,,,,,,11,,,71,0
27930,note_on,,1,0,12,,,,,,,,,,,,,,,10,,,69,72
27930,note_on,,1,0,13,,,,,,,,,,,,,,,11,,,69,72
27959,note_on,,0,0,16,,,,,,,,,,,,,,,15,,,74,0
27959,note_on,,29,0,13,,,,,,,,,,,,,,,11,,,69,0
27959,note_on,,59,0,15,,,,,,,,,,,,,,,13,,,62,0
27959,note_on,,29,0,12,,,,,,,,,,,,,,,10,,,69,0
27959,note_on,,59,0,6,,,,,,,,,,,,,,,1,,,62,0
27959,note_on,,59,0,16,,,,,,,,,,,,,,,15,,,69,0
27959,note_on,,0,0,16,,,,,,,,,,,,,,,15,,,62,0
27960,note_on,,1,0,13,,,,,,,,,,,,,,,11,,,79,72
27960,note_on,,0,0,16,,,,,,,,,,,,,,,15,,,73,48
27960,note_on,,0,0,16,,,,,,,,,,,,,,,15,,,76,48
27960,note_on,,1,0,15,,,,,,,,,,,,,,,13,,,52,48
27960,note_on,,1,0,6,,,,,,,,,,,,,,,1,,,52,48
27960,note_on,,1,0,16,,,,,,,,,,,,,,,15,,,52,48
27960,note_on,,1,0,12,,,,,,,,,,,,,,,10,,,79,72
27960,note_on,,0,0,16,,,,,,,,,,,,,,,15,,,67,48
27989,note_on,,29,0,13,,,,,,,,,,,,,,,11,,,79,0
27989,note_on,,29,0,12,,,,,,,,,,,,,,,10,,,79,0
27990,note_on,,1,0,12,,,,,,,,,,,,,,,10,,,81,72
27990,note_on,,1,0,13,,,,,,,,,,,,,,,11,,,81,72
28019,note_on,,29,0,12,,,,,,,,,,,,,,,10,,,81,0
28019,note_on,,29,0,13,,,,,,,,,,,,,,,11,,,81,0
28020,note_on,,1,0,12,,,,,,,,,,,,,,,10,,,79,72
28020,note_on,,1,0,13,,,,,,,,,,,,,,,11,,,79,72
28049,note_on,,29,0,12,,,,,,,,,,,,,,,10,,,79,0
28049,note_on,,29,0,13,,,,,,,,,,,,,,,11,,,79,0
28050,note_on,,1,0,12,,,,,,,,,,,,,,,10,,,69,72
28050,note_on,,1,0,13,,,,,,,,,,,,,,,11,,,69,72
28079,note_on,,119,0,16,,,,,,,,,,,,,,,15,,,52,0
28079,note_on,,119,0,6,,,,,,,,,,,,,,,1,,,52,0
28079,note_on,,119,0,15,,,,,,,,,,,,,,,13,,,52,0
28079,note_on,,29,0,12,,,,,,,,,,,,,,,10,,,69,0
28079,note_on,,29,0,13,,,,,,,,,,,,,,,11,,,69,0
28080,note_on,,1,0,16,,,,,,,,,,,,,,,15,,,61,48
28080,note_on,,1,0,12,,,,,,,,,,,,,,,10,,,71,72
28080,note_on,,1,0,15,,,,,,,,,,,,,,,13,,,61,48
28080,note_on,,1,0,13,,,,,,,,,,,,,,,11,,,71,72
28080,note_on,,1,0,6,,,,,,,,,,,,,,,1,,,61,48
28109,note_on,,29,0,12,,,,,,,,,,,,,,,10,,,71,0
28109,note_on,,29,0,13,,,,,,,,,,,,,,,11,,,71,0
28110,note_on,,1,0,12,,,,,,,,,,,,,,,10,,,69,72
28110,note_on,,1,0,13,,,,,,,,,,,,,,,11,,,69,72
28139,note_on,,0,0,16,,,,,,,,,,,,,,,15,,,67,0
28139,note_on,,29,0,12,,,,,,,,,,,,,,,10,,,69,0
28139,note_on,,59,0,6,,,,,,,,,,,,,,,1,,,61,0
28139,note_on,,0,0,16,,,,,,,,,,,,,,,15,,,76,0
28139,note_on,,59,0,15,,,,,,,,,,,,,,,13,,,61,0
28139,note_on,,0,0,16,,,,,,,,,,,,,,,15,,,61,0
28139,note_on,,59,0,16,,,,,,,,,,,,,,,15,,,73,0
28139,note_on,,29,0,13,,,,,,,,,,,,,,,11,,,69,0
28140,note_on,,1,0,12,,,,,,,,,,,,,,,10,,,78,72
28140,note_on,,1,0,15,,,,,,,,,,,,,,,13,,,62,48
28140,note_on,,1,0,13,,,,,,,,,,,,,,,11,,,78,72
28140,note_on,,1,0,6,,,,,,,,,,,,,,,1,,,62,48
28140,note_on,,1,0,16,,,,,,,,,,,,,,,15,,,69,48
28140,note_on,,0,0,16,,,,,,,,,,,,,,,15,,,62,48
28140,note_on,,0,0,16,,,,,,,,,,,,,,,15,,,66,48
28169,note_on,,29,0,12,,,,,,,,,,,,,,,10,,,78,0
28169,note_on,,29,0,13,,,,,,,,,,,,,,,11,,,78,0
28170,note_on,,1,0,12,,,,,,,,,,,,,,,10,,,79,72
28170,note_on,,1,0,13,,,,,,,,,,,,,,,11,,,79,72
28199,note_on,,29,0,12,,,,,,,,,,,,,,,10,,,79,0
28199,note_on,,29,0,13,,,,,,,,,,,,,,,11,,,79,0
28200,note_on,,1,0,13,,,,,,,,,,,,,,,11,,,78,72
28200,note_on,,1,0,12,,,,,,,,,,,,,,,10,,,78,72
28229,note_on,,29,0,13,,,,,,,,,,,,,,,11,,,78,0
28229,note_on,,29,0,12,,,,,,,,,,,,,,,10,,,78,0
28230,note_on,,1,0,12,,,,,,,,,,,,,,,10,,,69,72
28230,note_on,,1,0,13,,,,,,,,,,,,,,,11,,,69,72
28259,note_on,,0,0,16,,,,,,,,,,,,,,,15,,,66,0
28259,note_on,,0,0,16,,,,,,,,,,,,,,,15,,,62,0
28259,note_on,,119,0,15,,,,,,,,,,,,,,,13,,,62,0
28259,note_on,,29,0,13,,,,,,,,,,,,,,,11,,,69,0
28259,note_on,,29,0,12,,,,,,,,,,,,,,,10,,,69,0
28259,note_on,,119,0,6,,,,,,,,,,,,,,,1,,,62,0
28259,note_on,,119,0,16,,,,,,,,,,,,,,,15,,,69,0
28260,note_on,,1,0,15,,,,,,,,,,,,,,,13,,,54,48
28260,note_on,,1,0,12,,,,,,,,,,,,,,,10,,,71,72
28260,note_on,,1,0,13,,,,,,,,,,,,,,,11,,,71,72
28260,note_on,,1,0,16,,,,,,,,,,,,,,,15,,,54,48
28260,note_on,,0,0,16,,,,,,,,,,,,,,,15,,,74,48
28260,note_on,,0,0,16,,,,,,,,,,,,,,,15,,,69,48
28260,note_on,,0,0,16,,,,,,,,,,,,,,,15,,,81,48
28260,note_on,,1,0,6,,,,,,,,,,,,,,,1,,,54,48
28289,note_on,,29,0,13,,,,,,,,,,,,,,,11,,,71,0
28289,note_on,,29,0,12,,,,,,,,,,,,,,,10,,,71,0
28290,note_on,,1,0,13,,,,,,,,,,,,,,,11,,,69,72
28290,note_on,,1,0,12,,,,,,,,,,,,,,,10,,,69,72
28319,note_on,,0,0,16,,,,,,,,,,,,,,,15,,,69,0
28319,note_on,,59,0,15,,,,,,,,,,,,,,,13,,,54,0
28319,note_on,,0,0,16,,,,,,,,,,,,,,,15,,,81,0
28319,note_on,,59,0,6,,,,,,,,,,,,,,,1,,,54,0
28319,note_on,,29,0,13,,,,,,,,,,,,,,,11,,,69,0
28319,note_on,,59,0,16,,,,,,,,,,,,,,,15,,,54,0
28319,note_on,,0,0,16,,,,,,,,,,,,,,,15,,,74,0
28319,note_on,,29,0,12,,,,,,,,,,,,,,,10,,,69,0
28320,note_on,,1,0,12,,,,,,,,,,,,,,,10,,,76,72
28320,note_on,,1,0,15,,,,,,,,,,,,,,,13,,,57,48
28320,note_on,,0,0,16,,,,,,,,,,,,,,,15,,,73,48
28320,note_on,,0,0,16,,,,,,,,,,,,,,,15,,,69,48
28320,note_on,,1,0,16,,,,,,,,,,,,,,,15,,,57,48
28320,note_on,,1,0,6,,,,,,,,,,,,,,,1,,,57,48
28320,note_on,,0,0,16,,,,,,,,,,,,,,,15,,,76,48
28320,note_on,,1,0,13,,,,,,,,,,,,,,,11,,,76,72
28379,note_on,,59,0,13,,,,,,,,,,,,,,,11,,,76,0
28379,note_on,,59,0,12,,,,,,,,,,,,,,,10,,,76,0
28379,note_on,,59,0,15,,,,,,,,,,,,,,,13,,,57,0
28379,note_on,,59,0,6,,,,,,,,,,,,,,,1,,,57,0
28379,note_on,,59,0,16,,,,,,,,,,,,,,,15,,,57,0
28379,note_on,,0,0,16,,,,,,,,,,,,,,,15,,,69,0
28380,note_on,,1,0,13,,,,,,,,,,,,,,,11,,,69,72
28380,note_on,,1,0,15,,,,,,,,,,,,,,,13,,,61,48
28380,note_on,,1,0,16,,,,,,,,,,,,,,,15,,,64,48
28380,note_on,,0,0,16,,,,,,,,,,,,,,,15,,,61,48
28380,note_on,,1,0,12,,,,,,,,,,,,,,,10,,,69,72
28410,note_on,,631,0,11,,,,,,,,,,,,,,,14,,,64,61
28439,note_on,,29,0,11,,,,,,,,,,,,,,,14,,,64,0
28439,note_on,,59,0,15,,,,,,,,,,,,,,,13,,,61,0
28439,note_on,,59,0,16,,,,,,,,,,,,,,,15,,,64,0
28439,note_on,,59,0,13,,,,,,,,,,,,,,,11,,,69,0
28439,note_on,,0,0,16,,,,,,,,,,,,,,,15,,,61,0
28439,note_on,,59,0,12,,,,,,,,,,,,,,,10,,,69,0
28440,note_on,,1,0,16,,,,,,,,,,,,,,,15,,,61,48
28440,note_on,,0,0,16,,,,,,,,,,,,,,,15,,,57,48
28440,note_on,,1,0,15,,,,,,,,,,,,,,,13,,,57,48
28440,note_on,,1,0,11,,,,,,,,,,,,,,,14,,,66,64
28469,note_on,,29,0,11,,,,,,,,,,,,,,,14,,,66,0
28470,note_on,,1,0,11,,,,,,,,,,,,,,,14,,,67,66
28499,note_on,,59,0,16,,,,,,,,,,,,,,,15,,,73,0
28499,note_on,,0,0,16,,,,,,,,,,,,,,,15,,,76,0
28499,note_on,,0,0,16,,,,,,,,,,,,,,,15,,,61,0
28499,note_on,,0,0,16,,,,,,,,,,,,,,,15,,,57,0
28499,note_on,,29,0,11,,,,,,,,,,,,,,,14,,,67,0
28499,note_on,,59,0,15,,,,,,,,,,,,,,,13,,,57,0
28500,note_on,,1,0,11,,,,,,,,,,,,,,,14,,,66,67
28500,note_on,,1,0,16,,,,,,,,,,,,,,,15,,,69,48
28500,note_on,,0,0,16,,,,,,,,,,,,,,,15,,,78,48
28500,note_on,,0,0,16,,,,,,,,,,,,,,,15,,,62,48
28500,note_on,,1,0,15,,,,,,,,,,,,,,,13,,,62,48
28529,note_on,,29,0,11,,,,,,,,,,,,,,,14,,,66,0
28530,note_on,,1,0,11,,,,,,,,,,,,,,,14,,,64,59
28559,note_on,,29,0,11,,,,,,,,,,,,,,,14,,,64,0
28560,note_on,,1,0,11,,,,,,,,,,,,,,,14,,,62,66
28590,note_on,,151,0,12,,,,,,,,,,,,,,,10,,,76,72
28590,note_on,,151,0,13,,,,,,,,,,,,,,,11,,,76,72
28619,note_on,,0,0,16,,,,,,,,,,,,,,,15,,,62,0
28619,note_on,,59,0,11,,,,,,,,,,,,,,,14,,,62,0
28619,note_on,,29,0,13,,,,,,,,,,,,,,,11,,,76,0
28619,note_on,,0,0,16,,,,,,,,,,,,,,,15,,,78,0
28619,note_on,,119,0,15,,,,,,,,,,,,,,,13,,,62,0
28619,note_on,,119,0,16,,,,,,,,,,,,,,,15,,,69,0
28619,note_on,,29,0,12,,,,,,,,,,,,,,,10,,,76,0
28620,note_on,,0,0,16,,,,,,,,,,,,,,,15,,,73,48
28620,note_on,,1,0,15,,,,,,,,,,,,,,,13,,,57,48
28620,note_on,,1,0,12,,,,,,,,,,,,,,,10,,,78,72
28620,note_on,,1,0,16,,,,,,,,,,,,,,,15,,,69,48
28620,note_on,,1,0,13,,,,,,,,,,,,,,,11,,,78,72
28620,note_on,,0,0,16,,,,,,,,,,,,,,,15,,,64,48
28620,note_on,,0,0,16,,,,,,,,,,,,,,,15,,,57,48
28649,note_on,,29,0,13,,,,,,,,,,,,,,,11,,,78,0
28649,note_on,,29,0,12,,,,,,,,,,,,,,,10,,,78,0
28650,note_on,,1,0,13,,,,,,,,,,,,,,,11,,,79,72
28650,note_on,,1,0,12,,,,,,,,,,,,,,,10,,,79,72
28679,note_on,,0,0,16,,,,,,,,,,,,,,,15,,,57,0
28679,note_on,,59,0,16,,,,,,,,,,,,,,,15,,,69,0
28679,note_on,,0,0,16,,,,,,,,,,,,,,,15,,,64,0
28679,note_on,,0,0,16,,,,,,,,,,,,,,,15,,,73,0
28679,note_on,,59,0,15,,,,,,,,,,,,,,,13,,,57,0
28679,note_on,,29,0,12,,,,,,,,,,,,,,,10,,,79,0
28679,note_on,,29,0,13,,,,,,,,,,,,,,,11,,,79,0
28680,note_on,,0,0,16,,,,,,,,,,,,,,,15,,,69,48
28680,note_on,,1,0,12,,,,,,,,,,,,,,,10,,,78,72
28680,note_on,,1,0,16,,,,,,,,,,,,,,,15,,,66,48
28680,note_on,,1,0,15,,,,,,,,,,,,,,,13,,,50,48
28680,note_on,,0,0,16,,,,,,,,,,,,,,,15,,,50,48
28680,note_on,,0,0,16,,,,,,,,,,,,,,,15,,,74,48
28680,note_on,,1,0,13,,,,,,,,,,,,,,,11,,,78,72
28709,note_on,,29,0,13,,,,,,,,,,,,,,,11,,,78,0
28709,note_on,,29,0,12,,,,,,,,,,,,,,,10,,,78,0
28710,note_on,,1,0,13,,,,,,,,,,,,,,,11,,,76,72
28710,note_on,,1,0,12,,,,,,,,,,,,,,,10,,,76,72
28739,note_on,,29,0,13,,,,,,,,,,,,,,,11,,,76,0
28739,note_on,,29,0,12,,,,,,,,,,,,,,,10,,,76,0
28740,note_on,,1,0,13,,,,,,,,,,,,,,,11,,,74,72
28740,note_on,,1,0,12,,,,,,,,,,,,,,,10,,,74,72
28770,note_on,,151,0,11,,,,,,,,,,,,,,,14,,,67,68
28799,note_on,,0,0,16,,,,,,,,,,,,,,,15,,,50,0
28799,note_on,,119,0,16,,,,,,,,,,,,,,,15,,,66,0
28799,note_on,,119,0,15,,,,,,,,,,,,,,,13,,,50,0
28799,note_on,,59,0,12,,,,,,,,,,,,,,,10,,,74,0
28799,note_on,,29,0,11,,,,,,,,,,,,,,,14,,,67,0
28799,note_on,,0,0,16,,,,,,,,,,,,,,,15,,,69,0
28799,note_on,,0,0,16,,,,,,,,,,,,,,,15,,,74,0
28799,note_on,,59,0,13,,,,,,,,,,,,,,,11,,,74,0
28800,note_on,,1,0,15,,,,,,,,,,,,,,,13,,,43,48
28800,note_on,,1,0,11,,,,,,,,,,,,,,,14,,,69,60
28800,note_on,,1,0,16,,,,,,,,,,,,,,,15,,,79,48
28800,note_on,,0,0,16,,,,,,,,,,,,,,,15,,,74,48
28800,note_on,,0,0,16,,,,,,,,,,,,,,,15,,,43,48
28800,note_on,,0,0,16,,,,,,,,,,,,,,,15,,,71,48
28829,note_on,,29,0,11,,,,,,,,,,,,,,,14,,,69,0
28830,note_on,,1,0,11,,,,,,,,,,,,,,,14,,,71,59
28859,note_on,,59,0,15,,,,,,,,,,,,,,,13,,,43,0
28859,note_on,,59,0,16,,,,,,,,,,,,,,,15,,,79,0
28859,note_on,,0,0,16,,,,,,,,,,,,,,,15,,,74,0
28859,note_on,,0,0,16,,,,,,,,,,,,,,,15,,,43,0
28859,note_on,,29,0,11,,,,,,,,,,,,,,,14,,,71,0
28859,note_on,,0,0,16,,,,,,,,,,,,,,,15,,,71,0
28860,note_on,,1,0,11,,,,,,,,,,,,,,,14,,,69,67
28860,note_on,,1,0,15,,,,,,,,,,,,,,,13,,,50,48
28860,note_on,,1,0,16,,,,,,,,,,,,,,,15,,,74,48
28860,note_on,,0,0,16,,,,,,,,,,,,,,,15,,,78,48
28860,note_on,,0,0,16,,,,,,,,,,,,,,,15,,,50,48
28860,note_on,,0,0,16,,,,,,,,,,,,,,,15,,,69,48
28889,note_on,,29,0,11,,,,,,,,,,,,,,,14,,,69,0
28890,note_on,,1,0,11,,,,,,,,,,,,,,,14,,,67,65
28919,note_on,,29,0,11,,,,,,,,,,,,,,,14,,,67,0
28920,note_on,,1,0,11,,,,,,,,,,,,,,,14,,,66,62
28950,note_on,,151,0,13,,,,,,,,,,,,,,,11,,,79,72
28950,note_on,,151,0,12,,,,,,,,,,,,,,,10,,,79,72
28979,note_on,,119,0,16,,,,,,,,,,,,,,,15,,,74,0
28979,note_on,,29,0,12,,,,,,,,,,,,,,,10,,,79,0
28979,note_on,,0,0,16,,,,,,,,,,,,,,,15,,,69,0
28979,note_on,,0,0,16,,,,,,,,,,,,,,,15,,,50,0
28979,note_on,,59,0,11,,,,,,,,,,,,,,,14,,,66,0
28979,note_on,,119,0,15,,,,,,,,,,,,,,,13,,,50,0
28979,note_on,,0,0,16,,,,,,,,,,,,,,,15,,,78,0
28979,note_on,,29,0,13,,,,,,,,,,,,,,,11,,,79,0
28980,note_on,,1,0,12,,,,,,,,,,,,,,,10,,,81,72
28980,note_on,,0,0,16,,,,,,,,,,,,,,,15,,,67,48
28980,note_on,,1,0,13,,,,,,,,,,,,,,,11,,,81,72
28980,note_on,,0,0,16,,,,,,,,,,,,,,,15,,,62,48
28980,note_on,,1,0,16,,,,,,,,,,,,,,,15,,,71,48
28980,note_on,,1,0,15,,,,,,,,,,,,,,,13,,,55,48
28980,note_on,,0,0,16,,,,,,,,,,,,,,,15,,,55,48
29009,note_on,,29,0,13,,,,,,,,,,,,,,,11,,,81,0
29009,note_on,,29,0,12,,,,,,,,,,,,,,,10,,,81,0
29010,note_on,,1,0,12,,,,,,,,,,,,,,,10,,,83,72
29010,note_on,,1,0,13,,,,,,,,,,,,,,,11,,,83,72
29039,note_on,,59,0,15,,,,,,,,,,,,,,,13,,,55,0
29039,note_on,,29,0,12,,,,,,,,,,,,,,,10,,,83,0
29039,note_on,,0,0,16,,,,,,,,,,,,,,,15,,,55,0
29039,note_on,,0,0,16,,,,,,,,,,,,,,,15,,,67,0
29039,note_on,,0,0,16,,,,,,,,,,,,,,,15,,,62,0
29039,note_on,,59,0,16,,,,,,,,,,,,,,,15,,,71,0
29039,note_on,,29,0,13,,,,,,,,,,,,,,,11,,,83,0
29040,note_on,,0,0,16,,,,,,,,,,,,,,,15,,,62,48
29040,note_on,,1,0,16,,,,,,,,,,,,,,,15,,,69,48
29040,note_on,,1,0,13,,,,,,,,,,,,,,,11,,,81,72
29040,note_on,,1,0,15,,,,,,,,,,,,,,,13,,,62,48
29040,note_on,,1,0,12,,,,,,,,,,,,,,,10,,,81,72
29040,note_on,,0,0,16,,,,,,,,,,,,,,,15,,,66,48
29069,note_on,,29,0,13,,,,,,,,,,,,,,,11,,,81,0
29069,note_on,,29,0,12,,,,,,,,,,,,,,,10,,,81,0
29070,note_on,,1,0,13,,,,,,,,,,,,,,,11,,,79,72
29070,note_on,,1,0,12,,,,,,,,,,,,,,,10,,,79,72
29099,note_on,,29,0,12,,,,,,,,,,,,,,,10,,,79,0
29099,note_on,,29,0,13,,,,,,,,,,,,,,,11,,,79,0
29100,note_on,,1,0,12,,,,,,,,,,,,,,,10,,,78,72
29100,note_on,,1,0,13,,,,,,,,,,,,,,,11,,,78,72
29159,note_on,,59,0,13,,,,,,,,,,,,,,,11,,,78,0
29159,note_on,,119,0,15,,,,,,,,,,,,,,,13,,,62,0
29159,note_on,,59,0,12,,,,,,,,,,,,,,,10,,,78,0
29159,note_on,,119,0,16,,,,,,,,,,,,,,,15,,,62,0
29160,note_on,,1,0,15,,,,,,,,,,,,,,,13,,,62,48
29160,note_on,,181,0,11,,,,,,,,,,,,,,,14,,,62,63
29160,note_on,,1,0,16,,,,,,,,,,,,,,,15,,,62,48
29219,note_on,,0,0,16,,,,,,,,,,,,,,,15,,,66,0
29219,note_on,,59,0,11,,,,,,,,,,,,,,,14,,,62,0
29219,note_on,,59,0,16,,,,,,,,,,,,,,,15,,,69,0
29219,note_on,,59,0,15,,,,,,,,,,,,,,,13,,,62,0
29219,note_on,,0,0,16,,,,,,,,,,,,,,,15,,,62,0
29220,note_on,,1,0,15,,,,,,,,,,,,,,,13,,,54,48
29220,note_on,,0,0,16,,,,,,,,,,,,,,,15,,,74,48
29220,note_on,,0,0,16,,,,,,,,,,,,,,,15,,,54,48
29220,note_on,,1,0,16,,,,,,,,,,,,,,,15,,,69,48
29220,note_on,,1,0,11,,,,,,,,,,,,,,,14,,,69,66
29220,note_on,,0,0,16,,,,,,,,,,,,,,,15,,,62,48
29279,note_on,,59,0,16,,,,,,,,,,,,,,,15,,,54,0
29279,note_on,,59,0,15,,,,,,,,,,,,,,,13,,,54,0
29280,note_on,,1,0,16,,,,,,,,,,,,,,,15,,,62,48
29280,note_on,,1,0,15,,,,,,,,,,,,,,,13,,,62,48
29339,note_on,,59,0,15,,,,,,,,,,,,,,,13,,,62,0
29339,note_on,,119,0,11,,,,,,,,,,,,,,,14,,,69,0
29339,note_on,,59,0,16,,,,,,,,,,,,,,,15,,,62,0
29340,note_on,,1,0,16,,,,,,,,,,,,,,,15,,,54,48
29340,note_on,,1,0,15,,,,,,,,,,,,,,,13,,,54,48
29399,note_on,,0,0,16,,,,,,,,,,,,,,,15,,,74,0
29399,note_on,,59,0,15,,,,,,,,,,,,,,,13,,,54,0
29399,note_on,,0,0,16,,,,,,,,,,,,,,,15,,,62,0
29399,note_on,,0,0,16,,,,,,,,,,,,,,,15,,,54,0
29399,note_on,,59,0,16,,,,,,,,,,,,,,,15,,,69,0
29400,note_on,,0,0,16,,,,,,,,,,,,,,,15,,,73,48
29400,note_on,,0,0,16,,,,,,,,,,,,,,,15,,,52,48
29400,note_on,,0,0,16,,,,,,,,,,,,,,,15,,,67,48
29400,note_on,,61,0,11,,,,,,,,,,,,,,,14,,,67,59
29400,note_on,,1,0,16,,,,,,,,,,,,,,,15,,,76,48
29400,note_on,,1,0,15,,,,,,,,,,,,,,,13,,,52,48
29519,note_on,,119,0,16,,,,,,,,,,,,,,,15,,,73,0
29519,note_on,,119,0,11,,,,,,,,,,,,,,,14,,,67,0
29519,note_on,,0,0,16,,,,,,,,,,,,,,,15,,,67,0
29519,note_on,,119,0,15,,,,,,,,,,,,,,,13,,,52,0
29519,note_on,,0,0,16,,,,,,,,,,,,,,,15,,,52,0
29520,note_on,,1,0,11,,,,,,,,,,,,,,,14,,,64,68
29520,note_on,,0,0,16,,,,,,,,,,,,,,,15,,,69,48
29520,note_on,,0,0,16,,,,,,,,,,,,,,,15,,,61,48
29520,note_on,,1,0,16,,,,,,,,,,,,,,,15,,,67,48
29520,note_on,,1,0,15,,,,,,,,,,,,,,,13,,,61,48
29579,note_on,,59,0,11,,,,,,,,,,,,,,,14,,,64,0
29579,note_on,,0,0,16,,,,,,,,,,,,,,,15,,,69,0
29579,note_on,,0,0,16,,,,,,,,,,,,,,,15,,,61,0
29579,note_on,,0,0,16,,,,,,,,,,,,,,,15,,,67,0
29579,note_on,,59,0,15,,,,,,,,,,,,,,,13,,,61,0
29579,note_on,,59,0,16,,,,,,,,,,,,,,,15,,,76,0
29580,note_on,,0,0,16,,,,,,,,,,,,,,,15,,,69,48
29580,note_on,,1,0,16,,,,,,,,,,,,,,,15,,,74,48
29580,note_on,,0,0,16,,,,,,,,,,,,,,,15,,,66,48
29580,note_on,,0,0,16,,,,,,,,,,,,,,,15,,,62,48
29580,note_on,,1,0,11,,,,,,,,,,,,,,,14,,,66,62
29580,note_on,,1,0,15,,,,,,,,,,,,,,,13,,,62,48
29639,note_on,,59,0,11,,,,,,,,,,,,,,,14,,,66,0
29640,note_on,,1,0,11,,,,,,,,,,,,,,,14,,,67,67
29699,note_on,,119,0,16,,,,,,,,,,,,,,,15,,,62,0
29699,note_on,,59,0,11,,,,,,,,,,,,,,,14,,,67,0
29699,note_on,,119,0,15,,,,,,,,,,,,,,,13,,,62,0
29700,note_on,,1,0,11,,,,,,,,,,,,,,,14,,,66,67
29700,note_on,,1,0,16,,,,,,,,,,,,,,,15,,,50,48
29700,note_on,,1,0,15,,,,,,,,,,,,,,,13,,,50,48
29759,note_on,,0,0,16,,,,,,,,,,,,,,,15,,,50,0
29759,note_on,,0,0,16,,,,,,,,,,,,,,,15,,,66,0
29759,note_on,,59,0,16,,,,,,,,,,,,,,,15,,,74,0
29759,note_on,,0,0,16,,,,,,,,,,,,,,,15,,,69,0
29759,note_on,,59,0,15,,,,,,,,,,,,,,,13,,,50,0
29759,note_on,,59,0,11,,,,,,,,,,,,,,,14,,,66,0
29760,note_on,,0,0,16,,,,,,,,,,,,,,,15,,,69,48
29760,note_on,,0,0,16,,,,,,,,,,,,,,,15,,,73,48
29760,note_on,,0,0,16,,,,,,,,,,,,,,,15,,,64,48
29760,note_on,,1,0,16,,,,,,,,,,,,,,,15,,,57,48
29760,note_on,,1,0,15,,,,,,,,,,,,,,,13,,,57,48
29760,note_on,,1,0,11,,,,,,,,,,,,,,,14,,,64,66
29819,note_on,,59,0,15,,,,,,,,,,,,,,,13,,,57,0
29819,note_on,,0,0,16,,,,,,,,,,,,,,,15,,,64,0
29819,note_on,,0,0,16,,,,,,,,,,,,,,,15,,,69,0
29819,note_on,,59,0,16,,,,,,,,,,,,,,,15,,,57,0
29820,note_on,,0,0,16,,,,,,,,,,,,,,,15,,,69,48
29820,note_on,,1,0,15,,,,,,,,,,,,,,,13,,,61,48
29820,note_on,,1441,0,6,,,,,,,,,,,,,,,1,,,61,48
29820,note_on,,1,0,16,,,,,,,,,,,,,,,15,,,61,48
29879,note_on,,59,0,16,,,,,,,,,,,,,,,15,,,61,0
29879,note_on,,0,0,16,,,,,,,,,,,,,,,15,,,69,0
29879,note_on,,59,0,6,,,,,,,,,,,,,,,1,,,61,0
29879,note_on,,59,0,15,,,,,,,,,,,,,,,13,,,61,0
29880,note_on,,1,0,6,,,,,,,,,,,,,,,1,,,57,48
29880,note_on,,1,0,15,,,,,,,,,,,,,,,13,,,57,48
29880,note_on,,0,0,16,,,,,,,,,,,,,,,15,,,64,48
29880,note_on,,721,0,13,,,,,,,,,,,,,,,11,,,76,72
29880,note_on,,721,0,12,,,,,,,,,,,,,,,10,,,76,72
29880,note_on,,1,0,16,,,,,,,,,,,,,,,15,,,57,48
29939,note_on,,59,0,6,,,,,,,,,,,,,,,1,,,57,0
29939,note_on,,0,0,16,,,,,,,,,,,,,,,15,,,64,0
29939,note_on,,0,0,16,,,,,,,,,,,,,,,15,,,57,0
29939,note_on,,59,0,12,,,,,,,,,,,,,,,10,,,76,0
29939,note_on,,59,0,13,,,,,,,,,,,,,,,11,,,76,0
29939,note_on,,59,0,16,,,,,,,,,,,,,,,15,,,73,0
29939,note_on,,179,0,11,,,,,,,,,,,,,,,14,,,64,0
29939,note_on,,59,0,15,,,,,,,,,,,,,,,13,,,57,0
29940,note_on,,1,0,13,,,,,,,,,,,,,,,11,,,78,72
29940,note_on,,0,0,16,,,,,,,,,,,,,,,15,,,62,48
29940,note_on,,0,0,16,,,,,,,,,,,,,,,15,,,69,48
29940,note_on,,1,0,16,,,,,,,,,,,,,,,15,,,66,48
29940,note_on,,1,0,6,,,,,,,,,,,,,,,1,,,62,48
29940,note_on,,1,0,15,,,,,,,,,,,,,,,13,,,62,48
29940,note_on,,1,0,12,,,,,,,,,,,,,,,10,,,78,72
29999,note_on,,59,0,12,,,,,,,,,,,,,,,10,,,78,0
29999,note_on,,59,0,16,,,,,,,,,,,,,,,15,,,66,0
29999,note_on,,59,0,6,,,,,,,,,,,,,,,1,,,62,0
29999,note_on,,0,0,16,,,,,,,,,,,,,,,15,,,62,0
29999,note_on,,59,0,15,,,,,,,,,,,,,,,13,,,62,0
29999,note_on,,59,0,13,,,,,,,,,,,,,,,11,,,78,0
30000,note_on,,1,0,12,,,,,,,,,,,,,,,10,,,79,72
30000,note_on,,1,0,15,,,,,,,,,,,,,,,13,,,61,48
30000,note_on,,1,0,16,,,,,,,,,,,,,,,15,,,64,48
30000,note_on,,0,0,16,,,,,,,,,,,,,,,15,,,61,48
30000,note_on,,1,0,6,,,,,,,,,,,,,,,1,,,61,48
30000,note_on,,1,0,13,,,,,,,,,,,,,,,11,,,79,72
30059,note_on,,59,0,13,,,,,,,,,,,,,,,11,,,79,0
30059,note_on,,59,0,12,,,,,,,,,,,,,,,10,,,79,0
30059,note_on,,59,0,15,,,,,,,,,,,,,,,13,,,61,0
30059,note_on,,59,0,6,,,,,,,,,,,,,,,1,,,61,0
30059,note_on,,0,0,16,,,,,,,,,,,,,,,15,,,61,0
30059,note_on,,0,0,16,,,,,,,,,,,,,,,15,,,64,0
30059,note_on,,59,0,16,,,,,,,,,,,,,,,15,,,69,0
30060,note_on,,1,0,12,,,,,,,,,,,,,,,10,,,78,72
30060,note_on,,0,0,16,,,,,,,,,,,,,,,15,,,62,48
30060,note_on,,0,0,16,,,,,,,,,,,,,,,15,,,71,48
30060,note_on,,1,0,15,,,,,,,,,,,,,,,13,,,62,48
30060,note_on,,1,0,13,,,,,,,,,,,,,,,11,,,78,72
30060,note_on,,1,0,6,,,,,,,,,,,,,,,1,,,62,48
30060,note_on,,1,0,16,,,,,,,,,,,,,,,15,,,66,48
30119,note_on,,59,0,16,,,,,,,,,,,,,,,15,,,66,0
30119,note_on,,0,0,16,,,,,,,,,,,,,,,15,,,62,0
30119,note_on,,0,0,16,,,,,,,,,,,,,,,15,,,71,0
30119,note_on,,59,0,12,,,,,,,,,,,,,,,10,,,78,0
30119,note_on,,59,0,13,,,,,,,,,,,,,,,11,,,78,0
30119,note_on,,59,0,6,,,,,,,,,,,,,,,1,,,62,0
30119,note_on,,59,0,15,,,,,,,,,,,,,,,13,,,62,0
30120,note_on,,1,0,13,,,,,,,,,,,,,,,11,,,76,72
30120,note_on,,0,0,16,,,,,,,,,,,,,,,15,,,57,48
30120,note_on,,0,0,16,,,,,,,,,,,,,,,15,,,64,48
30120,note_on,,1,0,15,,,,,,,,,,,,,,,13,,,57,48
30120,note_on,,0,0,16,,,,,,,,,,,,,,,15,,,73,48
30120,note_on,,1,0,12,,,,,,,,,,,,,,,10,,,76,72
30120,note_on,,1,0,6,,,,,,,,,,,,,,,1,,,57,48
30120,note_on,,1,0,16,,,,,,,,,,,,,,,15,,,69,48
30180,note_on,,241,0,11,,,,,,,,,,,,,,,14,,,57,61
30239,note_on,,119,0,16,,,,,,,,,,,,,,,15,,,69,0
30239,note_on,,0,0,16,,,,,,,,,,,,,,,15,,,64,0
30239,note_on,,0,0,16,,,,,,,,,,,,,,,15,,,57,0
30239,note_on,,119,0,15,,,,,,,,,,,,,,,13,,,57,0
30239,note_on,,0,0,16,,,,,,,,,,,,,,,15,,,73,0
30239,note_on,,119,0,6,,,,,,,,,,,,,,,1,,,57,0
30239,note_on,,59,0,11,,,,,,,,,,,,,,,14,,,57,0
30240,note_on,,0,0,16,,,,,,,,,,,,,,,15,,,73,48
30240,note_on,,0,0,16,,,,,,,,,,,,,,,15,,,76,48
30240,note_on,,0,0,16,,,,,,,,,,,,,,,15,,,55,48
30240,note_on,,1,0,16,,,,,,,,,,,,,,,15,,,69,48
30240,note_on,,1,0,11,,,,,,,,,,,,,,,14,,,57,65
30240,note_on,,1,0,15,,,,,,,,,,,,,,,13,,,55,48
30299,note_on,,59,0,11,,,,,,,,,,,,,,,14,,,57,0
30299,note_on,,59,0,15,,,,,,,,,,,,,,,13,,,55,0
30299,note_on,,179,0,13,,,,,,,,,,,,,,,11,,,76,0
30299,note_on,,179,0,12,,,,,,,,,,,,,,,10,,,76,0
30299,note_on,,59,0,16,,,,,,,,,,,,,,,15,,,69,0
30299,note_on,,0,0,16,,,,,,,,,,,,,,,15,,,73,0
30299,note_on,,0,0,16,,,,,,,,,,,,,,,15,,,76,0
30299,note_on,,0,0,16,,,,,,,,,,,,,,,15,,,55,0
30300,note_on,,0,0,16,,,,,,,,,,,,,,,15,,,74,48
30300,note_on,,0,0,16,,,,,,,,,,,,,,,15,,,81,48
30300,note_on,,1,0,16,,,,,,,,,,,,,,,15,,,54,48
30300,note_on,,1,0,15,,,,,,,,,,,,,,,13,,,54,48
30300,note_on,,1,0,11,,,,,,,,,,,,,,,14,,,62,66
30300,note_on,,0,0,16,,,,,,,,,,,,,,,15,,,69,48
30329,note_on,,29,0,11,,,,,,,,,,,,,,,14,,,62,0
30330,note_on,,1,0,11,,,,,,,,,,,,,,,14,,,64,65
30359,note_on,,29,0,11,,,,,,,,,,,,,,,14,,,64,0
30360,note_on,,1,0,11,,,,,,,,,,,,,,,14,,,66,66
30389,note_on,,29,0,11,,,,,,,,,,,,,,,14,,,66,0
30390,note_on,,1,0,11,,,,,,,,,,,,,,,14,,,62,63
30419,note_on,,29,0,11,,,,,,,,,,,,,,,14,,,62,0
30419,note_on,,0,0,16,,,,,,,,,,,,,,,15,,,69,0
30419,note_on,,0,0,16,,,,,,,,,,,,,,,15,,,74,0
30419,note_on,,119,0,15,,,,,,,,,,,,,,,13,,,54,0
30419,note_on,,119,0,16,,,,,,,,,,,,,,,15,,,54,0
30419,note_on,,0,0,16,,,,,,,,,,,,,,,15,,,81,0
30420,note_on,,1,0,11,,,,,,,,,,,,,,,14,,,64,62
30449,note_on,,29,0,11,,,,,,,,,,,,,,,14,,,64,0
30450,note_on,,1,0,11,,,,,,,,,,,,,,,14,,,61,66
30479,note_on,,29,0,11,,,,,,,,,,,,,,,14,,,61,0
30480,note_on,,1,0,11,,,,,,,,,,,,,,,14,,,59,64
30480,note_on,,61,0,16,,,,,,,,,,,,,,,15,,,67,48
30480,note_on,,61,0,15,,,,,,,,,,,,,,,13,,,55,48
30480,note_on,,0,0,16,,,,,,,,,,,,,,,15,,,74,48
30480,note_on,,0,0,16,,,,,,,,,,,,,,,15,,,55,48
30480,note_on,,0,0,16,,,,,,,,,,,,,,,15,,,71,48
30509,note_on,,29,0,11,,,,,,,,,,,,,,,14,,,59,0
30510,note_on,,1,0,11,,,,,,,,,,,,,,,14,,,62,66
30539,note_on,,29,0,11,,,,,,,,,,,,,,,14,,,62,0
30540,note_on,,1,0,11,,,,,,,,,,,,,,,14,,,61,61
30569,note_on,,29,0,11,,,,,,,,,,,,,,,14,,,61,0
30570,note_on,,1,0,11,,,,,,,,,,,,,,,14,,,59,65
30599,note_on,,29,0,11,,,,,,,,,,,,,,,14,,,59,0
30599,note_on,,119,0,15,,,,,,,,,,,,,,,13,,,55,0
30599,note_on,,0,0,16,,,,,,,,,,,,,,,15,,,71,0
30599,note_on,,0,0,16,,,,,,,,,,,,,,,15,,,55,0
30599,note_on,,0,0,16,,,,,,,,,,,,,,,15,,,74,0
30599,note_on,,119,0,16,,,,,,,,,,,,,,,15,,,67,0
30600,note_on,,1,0,11,,,,,,,,,,,,,,,14,,,61,67
30629,note_on,,29,0,11,,,,,,,,,,,,,,,14,,,61,0
30630,note_on,,1,0,11,,,,,,,,,,,,,,,14,,,62,63
30659,note_on,,29,0,11,,,,,,,,,,,,,,,14,,,62,0
30660,note_on,,1,0,11,,,,,,,,,,,,,,,14,,,64,67
30660,note_on,,0,0,16,,,,,,,,,,,,,,,15,,,76,48
30660,note_on,,0,0,16,,,,,,,,,,,,,,,15,,,79,48
30660,note_on,,61,0,16,,,,,,,,,,,,,,,15,,,71,48
30660,note_on,,0,0,16,,,,,,,,,,,,,,,15,,,52,48
30660,note_on,,61,0,15,,,,,,,,,,,,,,,13,,,52,48
30689,note_on,,29,0,11,,,,,,,,,,,,,,,14,,,64,0
30690,note_on,,1,0,11,,,,,,,,,,,,,,,14,,,66,68
30719,note_on,,29,0,11,,,,,,,,,,,,,,,14,,,66,0
30720,note_on,,1,0,11,,,,,,,,,,,,,,,14,,,67,63
30749,note_on,,29,0,11,,,,,,,,,,,,,,,14,,,67,0
30750,note_on,,1,0,11,,,,,,,,,,,,,,,14,,,64,67
30779,note_on,,0,0,16,,,,,,,,,,,,,,,15,,,76,0
30779,note_on,,0,0,16,,,,,,,,,,,,,,,15,,,79,0
30779,note_on,,0,0,16,,,,,,,,,,,,,,,15,,,52,0
30779,note_on,,119,0,16,,,,,,,,,,,,,,,15,,,71,0
30779,note_on,,29,0,11,,,,,,,,,,,,,,,14,,,64,0
30779,note_on,,119,0,15,,,,,,,,,,,,,,,13,,,52,0
30780,note_on,,1,0,11,,,,,,,,,,,,,,,14,,,66,64
30809,note_on,,29,0,11,,,,,,,,,,,,,,,14,,,66,0
30810,note_on,,1,0,11,,,,,,,,,,,,,,,14,,,62,66
30839,note_on,,29,0,11,,,,,,,,,,,,,,,14,,,62,0
30840,note_on,,0,0,16,,,,,,,,,,,,,,,15,,,69,48
30840,note_on,,1,0,11,,,,,,,,,,,,,,,14,,,61,68
30840,note_on,,61,0,16,,,,,,,,,,,,,,,15,,,76,48
30840,note_on,,61,0,15,,,,,,,,,,,,,,,13,,,57,48
30840,note_on,,0,0,16,,,,,,,,,,,,,,,15,,,57,48
30840,note_on,,0,0,16,,,,,,,,,,,,,,,15,,,73,48
30869,note_on,,29,0,11,,,,,,,,,,,,,,,14,,,61,0
30870,note_on,,1,0,11,,,,,,,,,,,,,,,14,,,64,66
30899,note_on,,29,0,11,,,,,,,,,,,,,,,14,,,64,0
30900,note_on,,1,0,11,,,,,,,,,,,,,,,14,,,62,64
30929,note_on,,29,0,11,,,,,,,,,,,,,,,14,,,62,0
30930,note_on,,1,0,11,,,,,,,,,,,,,,,14,,,61,64
30959,note_on,,29,0,11,,,,,,,,,,,,,,,14,,,61,0
30959,note_on,,0,0,16,,,,,,,,,,,,,,,15,,,57,0
30959,note_on,,119,0,16,,,,,,,,,,,,,,,15,,,76,0
30959,note_on,,0,0,16,,,,,,,,,,,,,,,15,,,73,0
30959,note_on,,0,0,16,,,,,,,,,,,,,,,15,,,69,0
30959,note_on,,119,0,15,,,,,,,,,,,,,,,13,,,57,0
30960,note_on,,1,0,11,,,,,,,,,,,,,,,14,,,62,59
30989,note_on,,29,0,11,,,,,,,,,,,,,,,14,,,62,0
30990,note_on,,1,0,11,,,,,,,,,,,,,,,14,,,64,65
31019,note_on,,29,0,11,,,,,,,,,,,,,,,14,,,64,0
31020,note_on,,0,0,16,,,,,,,,,,,,,,,15,,,54,48
31020,note_on,,61,0,16,,,,,,,,,,,,,,,15,,,74,48
31020,note_on,,61,0,15,,,,,,,,,,,,,,,13,,,54,48
31020,note_on,,1,0,11,,,,,,,,,,,,,,,14,,,66,63
31020,note_on,,0,0,16,,,,,,,,,,,,,,,15,,,69,48
31020,note_on,,0,0,16,,,,,,,,,,,,,,,15,,,62,48
31049,note_on,,29,0,11,,,,,,,,,,,,,,,14,,,66,0
31050,note_on,,1,0,11,,,,,,,,,,,,,,,14,,,67,67
31079,note_on,,29,0,11,,,,,,,,,,,,,,,14,,,67,0
31080,note_on,,1,0,11,,,,,,,,,,,,,,,14,,,69,61
31109,note_on,,29,0,11,,,,,,,,,,,,,,,14,,,69,0
31110,note_on,,1,0,11,,,,,,,,,,,,,,,14,,,66,64
31139,note_on,,0,0,16,,,,,,,,,,,,,,,15,,,62,0
31139,note_on,,119,0,16,,,,,,,,,,,,,,,15,,,74,0
31139,note_on,,0,0,16,,,,,,,,,,,,,,,15,,,69,0
31139,note_on,,0,0,16,,,,,,,,,,,,,,,15,,,54,0
31139,note_on,,29,0,11,,,,,,,,,,,,,,,14,,,66,0
31139,note_on,,119,0,15,,,,,,,,,,,,,,,13,,,54,0
31140,note_on,,1,0,11,,,,,,,,,,,,,,,14,,,67,64
31169,note_on,,29,0,11,,,,,,,,,,,,,,,14,,,67,0
31170,note_on,,1,0,11,,,,,,,,,,,,,,,14,,,64,63
31199,note_on,,29,0,11,,,,,,,,,,,,,,,14,,,64,0
31200,note_on,,61,0,15,,,,,,,,,,,,,,,13,,,59,48
31200,note_on,,1,0,11,,,,,,,,,,,,,,,14,,,62,68
31200,note_on,,61,0,16,,,,,,,,,,,,,,,15,,,59,48
31200,note_on,,0,0,16,,,,,,,,,,,,,,,15,,,66,48
31200,note_on,,0,0,16,,,,,,,,,,,,,,,15,,,62,48
31229,note_on,,29,0,11,,,,,,,,,,,,,,,14,,,62,0
31230,note_on,,1,0,11,,,,,,,,,,,,,,,14,,,61,66
31259,note_on,,29,0,11,,,,,,,,,,,,,,,14,,,61,0
31260,note_on,,1,0,11,,,,,,,,,,,,,,,14,,,62,62
31319,note_on,,119,0,15,,,,,,,,,,,,,,,13,,,59,0
31319,note_on,,119,0,16,,,,,,,,,,,,,,,15,,,59,0
31319,note_on,,0,0,16,,,,,,,,,,,,,,,15,,,66,0
31319,note_on,,0,0,16,,,,,,,,,,,,,,,15,,,62,0
31319,note_on,,59,0,11,,,,,,,,,,,,,,,14,,,62,0
31320,note_on,,0,0,16,,,,,,,,,,,,,,,15,,,74,48
31320,note_on,,0,0,16,,,,,,,,,,,,,,,15,,,69,48
31320,note_on,,1,0,16,,,,,,,,,,,,,,,15,,,54,48
31320,note_on,,1,0,15,,,,,,,,,,,,,,,13,,,54,48
31320,note_on,,1,0,11,,,,,,,,,,,,,,,14,,,66,62
31379,note_on,,59,0,16,,,,,,,,,,,,,,,15,,,54,0
31379,note_on,,59,0,11,,,,,,,,,,,,,,,14,,,66,0
31379,note_on,,0,0,16,,,,,,,,,,,,,,,15,,,69,0
31379,note_on,,59,0,15,,,,,,,,,,,,,,,13,,,54,0
31380,note_on,,1,0,11,,,,,,,,,,,,,,,14,,,64,65
31380,note_on,,0,0,16,,,,,,,,,,,,,,,15,,,55,48
31380,note_on,,1,0,16,,,,,,,,,,,,,,,15,,,71,48
31380,note_on,,1,0,15,,,,,,,,,,,,,,,13,,,55,48
31439,note_on,,59,0,15,,,,,,,,,,,,,,,13,,,55,0
31439,note_on,,59,0,16,,,,,,,,,,,,,,,15,,,71,0
31439,note_on,,0,0,16,,,,,,,,,,,,,,,15,,,55,0
31440,note_on,,1,0,15,,,,,,,,,,,,,,,13,,,57,48
31440,note_on,,1,0,16,,,,,,,,,,,,,,,15,,,69,48
31440,note_on,,0,0,16,,,,,,,,,,,,,,,15,,,57,48
31499,note_on,,119,0,11,,,,,,,,,,,,,,,14,,,64,0
31499,note_on,,59,0,15,,,,,,,,,,,,,,,13,,,57,0
31499,note_on,,59,0,16,,,,,,,,,,,,,,,15,,,74,0
31499,note_on,,0,0,16,,,,,,,,,,,,,,,15,,,69,0
31499,note_on,,0,0,16,,,,,,,,,,,,,,,15,,,57,0
31500,note_on,,0,0,16,,,,,,,,,,,,,,,15,,,45,48
31500,note_on,,1,0,16,,,,,,,,,,,,,,,15,,,64,48
31500,note_on,,0,0,16,,,,,,,,,,,,,,,15,,,73,48
31500,note_on,,1,0,15,,,,,,,,,,,,,,,13,,,45,48
31500,note_on,,1,0,11,,,,,,,,,,,,,,,14,,,67,61
31559,note_on,,59,0,16,,,,,,,,,,,,,,,15,,,64,0
31559,note_on,,0,0,16,,,,,,,,,,,,,,,15,,,73,0
31559,note_on,,59,0,15,,,,,,,,,,,,,,,13,,,45,0
31559,note_on,,0,0,16,,,,,,,,,,,,,,,15,,,45,0
31559,note_on,,59,0,11,,,,,,,,,,,,,,,14,,,67,0
31560,note_on,,0,0,16,,,,,,,,,,,,,,,15,,,74,48
31560,note_on,,1,0,16,,,,,,,,,,,,,,,15,,,50,48
31560,note_on,,1,0,11,,,,,,,,,,,,,,,14,,,66,66
31560,note_on,,0,0,16,,,,,,,,,,,,,,,15,,,66,48
31560,note_on,,1,0,15,,,,,,,,,,,,,,,13,,,50,48
31619,note_on,,59,0,15,,,,,,,,,,,,,,,13,,,50,0
31619,note_on,,0,0,16,,,,,,,,,,,,,,,15,,,66,0
31619,note_on,,59,0,16,,,,,,,,,,,,,,,15,,,50,0
31620,note_on,,1,0,15,,,,,,,,,,,,,,,13,,,52,48
31620,note_on,,0,0,16,,,,,,,,,,,,,,,15,,,52,48
31620,note_on,,1,0,16,,,,,,,,,,,,,,,15,,,67,48
31679,note_on,,59,0,15,,,,,,,,,,,,,,,13,,,52,0
31679,note_on,,0,0,16,,,,,,,,,,,,,,,15,,,52,0
31679,note_on,,59,0,16,,,,,,,,,,,,,,,15,,,74,0
31679,note_on,,0,0,16,,,,,,,,,,,,,,,15,,,67,0
31680,note_on,,1381,0,12,,,,,,,,,,,,,,,10,,,81,72
31680,note_on,,0,0,16,,,,,,,,,,,,,,,15,,,62,48
31680,note_on,,1,0,15,,,,,,,,,,,,,,,13,,,54,48
31680,note_on,,1381,0,13,,,,,,,,,,,,,,,11,,,81,72
31680,note_on,,1,0,16,,,,,,,,,,,,,,,15,,,69,48
31680,note_on,,0,0,16,,,,,,,,,,,,,,,15,,,54,48
31739,note_on,,0,0,16,,,,,,,,,,,,,,,15,,,54,0
31739,note_on,,0,0,16,,,,,,,,,,,,,,,15,,,62,0
31739,note_on,,59,0,15,,,,,,,,,,,,,,,13,,,54,0
31739,note_on,,59,0,16,,,,,,,,,,,,,,,15,,,69,0
31739,note_on,,59,0,12,,,,,,,,,,,,,,,10,,,81,0
31739,note_on,,179,0,11,,,,,,,,,,,,,,,14,,,66,0
31739,note_on,,59,0,13,,,,,,,,,,,,,,,11,,,81,0
31740,note_on,,1,0,12,,,,,,,,,,,,,,,10,,,76,72
31740,note_on,,1,0,15,,,,,,,,,,,,,,,13,,,55,48
31740,note_on,,1,0,13,,,,,,,,,,,,,,,11,,,76,72
31740,note_on,,0,0,16,,,,,,,,,,,,,,,15,,,55,48
31740,note_on,,1,0,16,,,,,,,,,,,,,,,15,,,67,48
31740,note_on,,0,0,16,,,,,,,,,,,,,,,15,,,62,48
31740,note_on,,0,0,16,,,,,,,,,,,,,,,15,,,71,48
31769,note_on,,29,0,12,,,,,,,,,,,,,,,10,,,76,0
31769,note_on,,29,0,13,,,,,,,,,,,,,,,11,,,76,0
31770,note_on,,1,0,12,,,,,,,,,,,,,,,10,,,74,72
31770,note_on,,1,0,13,,,,,,,,,,,,,,,11,,,74,72
31799,note_on,,59,0,15,,,,,,,,,,,,,,,13,,,55,0
31799,note_on,,59,0,16,,,,,,,,,,,,,,,15,,,55,0
31799,note_on,,29,0,12,,,,,,,,,,,,,,,10,,,74,0
31799,note_on,,29,0,13,,,,,,,,,,,,,,,11,,,74,0
31800,note_on,,1,0,16,,,,,,,,,,,,,,,15,,,52,48
31800,note_on,,1,0,13,,,,,,,,,,,,,,,11,,,76,72
31800,note_on,,1,0,12,,,,,,,,,,,,,,,10,,,76,72
31800,note_on,,1,0,15,,,,,,,,,,,,,,,13,,,52,48
31859,note_on,,59,0,16,,,,,,,,,,,,,,,15,,,67,0
31859,note_on,,0,0,16,,,,,,,,,,,,,,,15,,,52,0
31859,note_on,,59,0,12,,,,,,,,,,,,,,,10,,,76,0
31859,note_on,,59,0,13,,,,,,,,,,,,,,,11,,,76,0
31859,note_on,,0,0,16,,,,,,,,,,,,,,,15,,,71,0
31859,note_on,,0,0,16,,,,,,,,,,,,,,,15,,,62,0
31859,note_on,,59,0,15,,,,,,,,,,,,,,,13,,,52,0
31860,note_on,,1,0,15,,,,,,,,,,,,,,,13,,,57,48
31860,note_on,,0,0,16,,,,,,,,,,,,,,,15,,,69,48
31860,note_on,,1,0,16,,,,,,,,,,,,,,,15,,,57,48
31860,note_on,,1,0,13,,,,,,,,,,,,,,,11,,,79,72
31860,note_on,,0,0,16,,,,,,,,,,,,,,,15,,,61,48
31860,note_on,,1,0,12,,,,,,,,,,,,,,,10,,,79,72
31860,note_on,,0,0,16,,,,,,,,,,,,,,,15,,,64,48
31919,note_on,,0,0,16,,,,,,,,,,,,,,,15,,,61,0
31919,note_on,,0,0,16,,,,,,,,,,,,,,,15,,,64,0
31919,note_on,,59,0,16,,,,,,,,,,,,,,,15,,,57,0
31919,note_on,,0,0,16,,,,,,,,,,,,,,,15,,,69,0
31919,note_on,,59,0,12,,,,,,,,,,,,,,,10,,,79,0
31919,note_on,,59,0,15,,,,,,,,,,,,,,,13,,,57,0
31919,note_on,,59,0,13,,,,,,,,,,,,,,,11,,,79,0
31920,note_on,,1,0,12,,,,,,,,,,,,,,,10,,,78,72
31920,note_on,,0,0,16,,,,,,,,,,,,,,,15,,,62,48
31920,note_on,,1,0,15,,,,,,,,,,,,,,,13,,,50,48
31920,note_on,,0,0,16,,,,,,,,,,,,,,,15,,,69,48
31920,note_on,,1,0,13,,,,,,,,,,,,,,,11,,,78,72
31920,note_on,,0,0,16,,,,,,,,,,,,,,,15,,,66,48
31920,note_on,,1,0,16,,,,,,,,,,,,,,,15,,,50,48
32039,note_on,,119,0,13,,,,,,,,,,,,,,,11,,,78,0
32039,note_on,,119,0,12,,,,,,,,,,,,,,,10,,,78,0
32039,note_on,,119,0,15,,,,,,,,,,,,,,,13,,,50,0
32039,note_on,,0,0,16,,,,,,,,,,,,,,,15,,,62,0
32039,note_on,,0,0,16,,,,,,,,,,,,,,,15,,,66,0
32039,note_on,,0,0,16,,,,,,,,,,,,,,,15,,,69,0
32039,note_on,,119,0,16,,,,,,,,,,,,,,,15,,,50,0
32040,note_on,,301,0,11,,,,,,,,,,,,,,,14,,,69,60
32099,note_on,,59,0,11,,,,,,,,,,,,,,,14,,,69,0
32100,note_on,,1,0,11,,,,,,,,,,,,,,,14,,,71,62
32159,note_on,,59,0,11,,,,,,,,,,,,,,,14,,,71,0
32160,note_on,,1,0,11,,,,,,,,,,,,,,,14,,,69,64
32219,note_on,,59,0,11,,,,,,,,,,,,,,,14,,,69,0
32220,note_on,,1,0,11,,,,,,,,,,,,,,,14,,,67,60
32279,note_on,,59,0,11,,,,,,,,,,,,,,,14,,,67,0
32280,note_on,,1,0,11,,,,,,,,,,,,,,,14,,,66,59
32339,note_on,,59,0,11,,,,,,,,,,,,,,,14,,,66,0
32340,note_on,,1,0,11,,,,,,,,,,,,,,,14,,,64,62
32399,note_on,,59,0,11,,,,,,,,,,,,,,,14,,,64,0
32400,note_on,,1,0,11,,,,,,,,,,,,,,,14,,,62,61
32459,note_on,,59,0,11,,,,,,,,,,,,,,,14,,,62,0
32460,note_on,,421,0,12,,,,,,,,,,,,,,,10,,,57,48
32460,note_on,,421,0,15,,,,,,,,,,,,,,,13,,,38,48
32460,note_on,,1,0,11,,,,,,,,,,,,,,,14,,,60,62
32460,note_on,,0,0,16,,,,,,,,,,,,,,,15,,,54,48
32460,note_on,,421,0,13,,,,,,,,,,,,,,,11,,,57,48
32460,note_on,,0,0,16,,,,,,,,,,,,,,,15,,,60,48
32460,note_on,,421,0,16,,,,,,,,,,,,,,,15,,,50,48
32460,note_on,,0,0,16,,,,,,,,,,,,,,,15,,,38,48
32460,note_on,,0,0,16,,,,,,,,,,,,,,,15,,,57,48
32489,note_on,,29,0,13,,,,,,,,,,,,,,,11,,,57,0
32489,note_on,,29,0,12,,,,,,,,,,,,,,,10,,,57,0
32490,note_on,,1,0,13,,,,,,,,,,,,,,,11,,,66,48
32490,note_on,,1,0,12,,,,,,,,,,,,,,,10,,,66,48
32519,note_on,,29,0,12,,,,,,,,,,,,,,,10,,,66,0
32519,note_on,,29,0,13,,,,,,,,,,,,,,,11,,,66,0
32520,note_on,,1,0,13,,,,,,,,,,,,,,,11,,,69,48
32520,note_on,,1,0,12,,,,,,,,,,,,,,,10,,,69,48
32549,note_on,,29,0,12,,,,,,,,,,,,,,,10,,,69,0
32549,note_on,,29,0,13,,,,,,,,,,,,,,,11,,,69,0
32550,note_on,,1,0,12,,,,,,,,,,,,,,,10,,,66,48
32550,note_on,,1,0,13,,,,,,,,,,,,,,,11,,,66,48
32579,note_on,,29,0,13,,,,,,,,,,,,,,,11,,,66,0
32579,note_on,,29,0,12,,,,,,,,,,,,,,,10,,,66,0
32580,note_on,,1,0,12,,,,,,,,,,,,,,,10,,,60,48
32580,note_on,,1,0,13,,,,,,,,,,,,,,,11,,,60,48
32609,note_on,,29,0,13,,,,,,,,,,,,,,,11,,,60,0
32609,note_on,,29,0,12,,,,,,,,,,,,,,,10,,,60,0
32610,note_on,,1,0,12,,,,,,,,,,,,,,,10,,,66,48
32610,note_on,,1,0,13,,,,,,,,,,,,,,,11,,,66,48
32639,note_on,,0,0,16,,,,,,,,,,,,,,,15,,,54,0
32639,note_on,,0,0,16,,,,,,,,,,,,,,,15,,,60,0
32639,note_on,,179,0,16,,,,,,,,,,,,,,,15,,,57,0
32639,note_on,,29,0,12,,,,,,,,,,,,,,,10,,,66,0
32639,note_on,,29,0,13,,,,,,,,,,,,,,,11,,,66,0
32640,note_on,,0,0,16,,,,,,,,,,,,,,,15,,,57,48
32640,note_on,,0,0,16,,,,,,,,,,,,,,,15,,,60,48
32640,note_on,,1,0,16,,,,,,,,,,,,,,,15,,,66,48
32640,note_on,,1,0,13,,,,,,,,,,,,,,,11,,,57,48
32640,note_on,,1,0,12,,,,,,,,,,,,,,,10,,,57,48
32669,note_on,,29,0,13,,,,,,,,,,,,,,,11,,,57,0
32669,note_on,,29,0,12,,,,,,,,,,,,,,,10,,,57,0
32670,note_on,,1,0,13,,,,,,,,,,,,,,,11,,,66,48
32670,note_on,,1,0,12,,,,,,,,,,,,,,,10,,,66,48
32699,note_on,,29,0,13,,,,,,,,,,,,,,,11,,,66,0
32699,note_on,,29,0,12,,,,,,,,,,,,,,,10,,,66,0
32700,note_on,,1,0,12,,,,,,,,,,,,,,,10,,,69,48
32700,note_on,,1,0,13,,,,,,,,,,,,,,,11,,,69,48
32729,note_on,,29,0,12,,,,,,,,,,,,,,,10,,,69,0
32729,note_on,,29,0,13,,,,,,,,,,,,,,,11,,,69,0
32730,note_on,,1,0,12,,,,,,,,,,,,,,,10,,,66,48
32730,note_on,,1,0,13,,,,,,,,,,,,,,,11,,,66,48
32759,note_on,,29,0,12,,,,,,,,,,,,,,,10,,,66,0
32759,note_on,,29,0,13,,,,,,,,,,,,,,,11,,,66,0
32760,note_on,,1,0,13,,,,,,,,,,,,,,,11,,,60,48
32760,note_on,,1,0,12,,,,,,,,,,,,,,,10,,,60,48
32789,note_on,,29,0,12,,,,,,,,,,,,,,,10,,,60,0
32789,note_on,,29,0,13,,,,,,,,,,,,,,,11,,,60,0
32790,note_on,,1,0,13,,,,,,,,,,,,,,,11,,,66,48
32790,note_on,,1,0,12,,,,,,,,,,,,,,,10,,,66,48
32819,note_on,,29,0,12,,,,,,,,,,,,,,,10,,,66,0
32819,note_on,,179,0,16,,,,,,,,,,,,,,,15,,,66,0
32819,note_on,,0,0,16,,,,,,,,,,,,,,,15,,,57,0
32819,note_on,,0,0,16,,,,,,,,,,,,,,,15,,,60,0
32819,note_on,,29,0,13,,,,,,,,,,,,,,,11,,,66,0
32820,note_on,,1,0,16,,,,,,,,,,,,,,,15,,,61,48
32820,note_on,,0,0,16,,,,,,,,,,,,,,,15,,,69,48
32820,note_on,,0,0,16,,,,,,,,,,,,,,,15,,,66,48
32820,note_on,,1,0,13,,,,,,,,,,,,,,,11,,,57,48
32820,note_on,,1,0,12,,,,,,,,,,,,,,,10,,,57,48
32849,note_on,,29,0,12,,,,,,,,,,,,,,,10,,,57,0
32849,note_on,,29,0,13,,,,,,,,,,,,,,,11,,,57,0
32850,note_on,,1,0,12,,,,,,,,,,,,,,,10,,,66,48
32850,note_on,,1,0,13,,,,,,,,,,,,,,,11,,,66,48
32879,note_on,,29,0,12,,,,,,,,,,,,,,,10,,,66,0
32879,note_on,,29,0,13,,,,,,,,,,,,,,,11,,,66,0
32880,note_on,,1,0,13,,,,,,,,,,,,,,,11,,,69,48
32880,note_on,,1,0,12,,,,,,,,,,,,,,,10,,,69,48
32909,note_on,,29,0,13,,,,,,,,,,,,,,,11,,,69,0
32909,note_on,,29,0,12,,,,,,,,,,,,,,,10,,,69,0
32910,note_on,,1,0,12,,,,,,,,,,,,,,,10,,,66,48
32910,note_on,,1,0,13,,,,,,,,,,,,,,,11,,,66,48
32939,note_on,,29,0,12,,,,,,,,,,,,,,,10,,,66,0
32939,note_on,,29,0,13,,,,,,,,,,,,,,,11,,,66,0
32940,note_on,,1,0,12,,,,,,,,,,,,,,,10,,,60,48
32940,note_on,,1,0,13,,,,,,,,,,,,,,,11,,,60,48
32969,note_on,,29,0,12,,,,,,,,,,,,,,,10,,,60,0
32969,note_on,,29,0,13,,,,,,,,,,,,,,,11,,,60,0
32970,note_on,,1,0,12,,,,,,,,,,,,,,,10,,,66,48
32970,note_on,,1,0,13,,,,,,,,,,,,,,,11,,,66,48
32999,note_on,,29,0,13,,,,,,,,,,,,,,,11,,,66,0
32999,note_on,,29,0,12,,,,,,,,,,,,,,,10,,,66,0
33000,note_on,,1,0,12,,,,,,,,,,,,,,,10,,,57,48
33000,note_on,,1,0,13,,,,,,,,,,,,,,,11,,,57,48
33029,note_on,,29,0,13,,,,,,,,,,,,,,,11,,,57,0
33029,note_on,,29,0,12,,,,,,,,,,,,,,,10,,,57,0
33030,note_on,,1,0,13,,,,,,,,,,,,,,,11,,,66,48
33030,note_on,,1,0,12,,,,,,,,,,,,,,,10,,,66,48
33059,note_on,,29,0,12,,,,,,,,,,,,,,,10,,,66,0
33059,note_on,,29,0,13,,,,,,,,,,,,,,,11,,,66,0
33060,note_on,,1,0,12,,,,,,,,,,,,,,,10,,,69,48
33060,note_on,,1,0,13,,,,,,,,,,,,,,,11,,,69,48
33089,note_on,,29,0,12,,,,,,,,,,,,,,,10,,,69,0
33089,note_on,,29,0,13,,,,,,,,,,,,,,,11,,,69,0
33090,note_on,,1,0,12,,,,,,,,,,,,,,,10,,,66,48
33090,note_on,,1,0,13,,,,,,,,,,,,,,,11,,,66,48
33119,note_on,,0,0,16,,,,,,,,,,,,,,,15,,,38,0
33119,note_on,,29,0,13,,,,,,,,,,,,,,,11,,,66,0
33119,note_on,,659,0,15,,,,,,,,,,,,,,,13,,,38,0
33119,note_on,,659,0,11,,,,,,,,,,,,,,,14,,,60,0
33119,note_on,,299,0,16,,,,,,,,,,,,,,,15,,,50,0
33119,note_on,,29,0,12,,,,,,,,,,,,,,,10,,,66,0
33120,note_on,,1,0,13,,,,,,,,,,,,,,,11,,,60,48
33120,note_on,,1,0,15,,,,,,,,,,,,,,,13,,,50,48
33120,note_on,,1,0,11,,,,,,,,,,,,,,,14,,,60,63
33120,note_on,,1,0,16,,,,,,,,,,,,,,,15,,,50,48
33120,note_on,,1,0,12,,,,,,,,,,,,,,,10,,,60,48
33149,note_on,,29,0,12,,,,,,,,,,,,,,,10,,,60,0
33149,note_on,,29,0,13,,,,,,,,,,,,,,,11,,,60,0
33150,note_on,,1,0,12,,,,,,,,,,,,,,,10,,,66,48
33150,note_on,,1,0,13,,,,,,,,,,,,,,,11,,,66,48
33179,note_on,,0,0,16,,,,,,,,,,,,,,,15,,,50,0
33179,note_on,,59,0,11,,,,,,,,,,,,,,,14,,,60,0
33179,note_on,,0,0,16,,,,,,,,,,,,,,,15,,,66,0
33179,note_on,,29,0,12,,,,,,,,,,,,,,,10,,,66,0
33179,note_on,,29,0,13,,,,,,,,,,,,,,,11,,,66,0
33179,note_on,,0,0,16,,,,,,,,,,,,,,,15,,,69,0
33179,note_on,,59,0,16,,,,,,,,,,,,,,,15,,,61,0
33179,note_on,,59,0,15,,,,,,,,,,,,,,,13,,,50,0
33180,note_on,,1,0,16,,,,,,,,,,,,,,,15,,,62,48
33180,note_on,,1,0,12,,,,,,,,,,,,,,,10,,,55,48
33180,note_on,,1,0,11,,,,,,,,,,,,,,,14,,,60,68
33180,note_on,,0,0,16,,,,,,,,,,,,,,,15,,,55,48
33180,note_on,,0,0,16,,,,,,,,,,,,,,,15,,,67,48
33180,note_on,,1,0,15,,,,,,,,,,,,,,,13,,,55,48
33180,note_on,,1,0,13,,,,,,,,,,,,,,,11,,,55,48
33239,note_on,,59,0,11,,,,,,,,,,,,,,,14,,,60,0
33240,note_on,,1,0,11,,,,,,,,,,,,,,,14,,,59,66
33299,note_on,,119,0,16,,,,,,,,,,,,,,,15,,,55,0
33299,note_on,,119,0,13,,,,,,,,,,,,,,,11,,,55,0
33299,note_on,,119,0,15,,,,,,,,,,,,,,,13,,,55,0
33299,note_on,,119,0,12,,,,,,,,,,,,,,,10,,,55,0
33299,note_on,,0,0,16,,,,,,,,,,,,,,,15,,,67,0
33299,note_on,,59,0,11,,,,,,,,,,,,,,,14,,,59,0
33300,note_on,,1,0,15,,,,,,,,,,,,,,,13,,,54,48
33300,note_on,,1,0,11,,,,,,,,,,,,,,,14,,,62,63
33300,note_on,,1,0,16,,,,,,,,,,,,,,,15,,,54,48
33300,note_on,,0,0,16,,,,,,,,,,,,,,,15,,,69,48
33359,note_on,,0,0,16,,,,,,,,,,,,,,,15,,,69,0
33359,note_on,,59,0,15,,,,,,,,,,,,,,,13,,,54,0
33359,note_on,,59,0,11,,,,,,,,,,,,,,,14,,,62,0
33359,note_on,,59,0,16,,,,,,,,,,,,,,,15,,,62,0
33359,note_on,,0,0,16,,,,,,,,,,,,,,,15,,,54,0
33360,note_on,,0,0,16,,,,,,,,,,,,,,,15,,,52,48
33360,note_on,,0,0,16,,,,,,,,,,,,,,,15,,,67,48
33360,note_on,,1,0,16,,,,,,,,,,,,,,,15,,,55,48
33360,note_on,,1,0,11,,,,,,,,,,,,,,,14,,,62,62
33360,note_on,,1,0,15,,,,,,,,,,,,,,,13,,,52,48
33360,note_on,,0,0,16,,,,,,,,,,,,,,,15,,,64,48
33419,note_on,,59,0,15,,,,,,,,,,,,,,,13,,,52,0
33419,note_on,,0,0,16,,,,,,,,,,,,,,,15,,,52,0
33419,note_on,,59,0,16,,,,,,,,,,,,,,,15,,,55,0
33419,note_on,,59,0,11,,,,,,,,,,,,,,,14,,,62,0
33420,note_on,,1,0,16,,,,,,,,,,,,,,,15,,,57,48
33420,note_on,,1,0,15,,,,,,,,,,,,,,,13,,,57,48
33420,note_on,,1,0,11,,,,,,,,,,,,,,,14,,,61,66
33479,note_on,,59,0,15,,,,,,,,,,,,,,,13,,,57,0
33479,note_on,,59,0,11,,,,,,,,,,,,,,,14,,,61,0
33479,note_on,,59,0,16,,,,,,,,,,,,,,,15,,,57,0
33480,note_on,,1,0,15,,,,,,,,,,,,,,,13,,,55,48
33480,note_on,,1,0,16,,,,,,,,,,,,,,,15,,,55,48
33480,note_on,,1,0,11,,,,,,,,,,,,,,,14,,,64,65
33539,note_on,,59,0,11,,,,,,,,,,,,,,,14,,,64,0
33539,note_on,,59,0,15,,,,,,,,,,,,,,,13,,,55,0
33539,note_on,,59,0,16,,,,,,,,,,,,,,,15,,,67,0
33539,note_on,,0,0,16,,,,,,,,,,,,,,,15,,,55,0
33539,note_on,,0,0,16,,,,,,,,,,,,,,,15,,,64,0
33540,note_on,,1,0,15,,,,,,,,,,,,,,,13,,,54,48
33540,note_on,,1,0,11,,,,,,,,,,,,,,,14,,,64,62
33540,note_on,,0,0,16,,,,,,,,,,,,,,,15,,,69,48
33540,note_on,,0,0,16,,,,,,,,,,,,,,,15,,,54,48
33540,note_on,,0,0,16,,,,,,,,,,,,,,,15,,,69,48
33540,note_on,,1,0,16,,,,,,,,,,,,,,,15,,,57,48
33599,note_on,,59,0,11,,,,,,,,,,,,,,,14,,,64,0
33600,note_on,,1,0,11,,,,,,,,,,,,,,,14,,,62,59
33659,note_on,,0,0,16,,,,,,,,,,,,,,,15,,,54,0
33659,note_on,,119,0,16,,,,,,,,,,,,,,,15,,,69,0
33659,note_on,,119,0,15,,,,,,,,,,,,,,,13,,,54,0
33659,note_on,,59,0,11,,,,,,,,,,,,,,,14,,,62,0
33660,note_on,,1,0,11,,,,,,,,,,,,,,,14,,,66,60
33660,note_on,,1,0,15,,,,,,,,,,,,,,,13,,,50,48
33660,note_on,,1,0,16,,,,,,,,,,,,,,,15,,,66,48
33660,note_on,,0,0,16,,,,,,,,,,,,,,,15,,,50,48
33719,note_on,,0,0,16,,,,,,,,,,,,,,,15,,,66,0
33719,note_on,,59,0,11,,,,,,,,,,,,,,,14,,,66,0
33719,note_on,,59,0,15,,,,,,,,,,,,,,,13,,,50,0
33719,note_on,,59,0,16,,,,,,,,,,,,,,,15,,,57,0
33719,note_on,,0,0,16,,,,,,,,,,,,,,,15,,,69,0
33719,note_on,,0,0,16,,,,,,,,,,,,,,,15,,,50,0
33720,note_on,,1,0,11,,,,,,,,,,,,,,,14,,,66,60
33720,note_on,,0,0,16,,,,,,,,,,,,,,,15,,,50,48
33720,note_on,,1,0,16,,,,,,,,,,,,,,,15,,,69,48
33720,note_on,,0,0,16,,,,,,,,,,,,,,,15,,,66,48
33720,note_on,,1,0,15,,,,,,,,,,,,,,,13,,,50,48
33779,note_on,,0,0,16,,,,,,,,,,,,,,,15,,,50,0
33779,note_on,,59,0,15,,,,,,,,,,,,,,,13,,,50,0
33779,note_on,,59,0,16,,,,,,,,,,,,,,,15,,,66,0
33779,note_on,,59,0,11,,,,,,,,,,,,,,,14,,,66,0
33780,note_on,,1,0,11,,,,,,,,,,,,,,,14,,,64,60
33780,note_on,,0,0,16,,,,,,,,,,,,,,,15,,,49,48
33780,note_on,,1,0,16,,,,,,,,,,,,,,,15,,,64,48
33780,note_on,,1,0,15,,,,,,,,,,,,,,,13,,,49,48
33839,note_on,,0,0,16,,,,,,,,,,,,,,,15,,,49,0
33839,note_on,,0,0,16,,,,,,,,,,,,,,,15,,,64,0
33839,note_on,,59,0,16,,,,,,,,,,,,,,,15,,,69,0
33839,note_on,,59,0,15,,,,,,,,,,,,,,,13,,,49,0
33839,note_on,,59,0,11,,,,,,,,,,,,,,,14,,,64,0
33840,note_on,,1,0,15,,,,,,,,,,,,,,,13,,,45,48
33840,note_on,,1,0,11,,,,,,,,,,,,,,,14,,,67,60
33840,note_on,,1,0,16,,,,,,,,,,,,,,,15,,,45,48
33840,note_on,,0,0,16,,,,,,,,,,,,,,,15,,,67,48
33840,note_on,,0,0,16,,,,,,,,,,,,,,,15,,,61,48
33899,note_on,,59,0,11,,,,,,,,,,,,,,,14,,,67,0
33899,note_on,,59,0,15,,,,,,,,,,,,,,,13,,,45,0
33899,note_on,,0,0,16,,,,,,,,,,,,,,,15,,,61,0
33899,note_on,,59,0,16,,,,,,,,,,,,,,,15,,,45,0
33899,note_on,,0,0,16,,,,,,,,,,,,,,,15,,,67,0
33900,note_on,,1,0,15,,,,,,,,,,,,,,,13,,,50,48
33900,note_on,,0,0,16,,,,,,,,,,,,,,,15,,,57,48
33900,note_on,,0,0,16,,,,,,,,,,,,,,,15,,,62,48
33900,note_on,,1,0,16,,,,,,,,,,,,,,,15,,,50,48
33900,note_on,,1,0,11,,,,,,,,,,,,,,,14,,,67,63
33959,note_on,,59,0,11,,,,,,,,,,,,,,,14,,,67,0
33960,note_on,,1,0,11,,,,,,,,,,,,,,,14,,,66,59
34019,note_on,,119,0,15,,,,,,,,,,,,,,,13,,,50,0
34019,note_on,,0,0,16,,,,,,,,,,,,,,,15,,,57,0
34019,note_on,,59,0,11,,,,,,,,,,,,,,,14,,,66,0
34019,note_on,,119,0,16,,,,,,,,,,,,,,,15,,,50,0
34019,note_on,,0,0,16,,,,,,,,,,,,,,,15,,,62,0
34020,note_on,,0,0,16,,,,,,,,,,,,,,,15,,,69,48
34020,note_on,,0,0,16,,,,,,,,,,,,,,,15,,,54,48
34020,note_on,,0,0,16,,,,,,,,,,,,,,,15,,,62,48
34020,note_on,,1,0,11,,,,,,,,,,,,,,,14,,,69,66
34020,note_on,,1,0,15,,,,,,,,,,,,,,,13,,,54,48
34020,note_on,,1,0,16,,,,,,,,,,,,,,,15,,,74,48
34079,note_on,,0,0,16,,,,,,,,,,,,,,,15,,,69,0
34079,note_on,,59,0,11,,,,,,,,,,,,,,,14,,,69,0
34079,note_on,,59,0,16,,,,,,,,,,,,,,,15,,,74,0
34079,note_on,,0,0,16,,,,,,,,,,,,,,,15,,,62,0
34079,note_on,,59,0,15,,,,,,,,,,,,,,,13,,,54,0
34079,note_on,,0,0,16,,,,,,,,,,,,,,,15,,,54,0
34080,note_on,,1,0,15,,,,,,,,,,,,,,,13,,,54,48
34080,note_on,,1,0,11,,,,,,,,,,,,,,,14,,,69,67
34080,note_on,,1,0,16,,,,,,,,,,,,,,,15,,,74,48
34080,note_on,,0,0,16,,,,,,,,,,,,,,,15,,,69,48
34080,note_on,,0,0,16,,,,,,,,,,,,,,,15,,,62,48
34080,note_on,,0,0,16,,,,,,,,,,,,,,,15,,,54,48
34139,note_on,,59,0,15,,,,,,,,,,,,,,,13,,,54,0
34139,note_on,,59,0,11,,,,,,,,,,,,,,,14,,,69,0
34139,note_on,,0,0,16,,,,,,,,,,,,,,,15,,,69,0
34139,note_on,,0,0,16,,,,,,,,,,,,,,,15,,,62,0
34139,note_on,,59,0,16,,,,,,,,,,,,,,,15,,,74,0
34139,note_on,,0,0,16,,,,,,,,,,,,,,,15,,,54,0
34140,note_on,,1,0,16,,,,,,,,,,,,,,,15,,,52,48
34140,note_on,,1,0,15,,,,,,,,,,,,,,,13,,,52,48
34140,note_on,,0,0,16,,,,,,,,,,,,,,,15,,,67,48
34140,note_on,,0,0,16,,,,,,,,,,,,,,,15,,,64,48
34140,note_on,,0,0,16,,,,,,,,,,,,,,,15,,,73,48
34140,note_on,,1,0,11,,,,,,,,,,,,,,,14,,,67,63
34199,note_on,,59,0,16,,,,,,,,,,,,,,,15,,,52,0
34199,note_on,,0,0,16,,,,,,,,,,,,,,,15,,,73,0
34199,note_on,,59,0,15,,,,,,,,,,,,,,,13,,,52,0
34199,note_on,,59,0,11,,,,,,,,,,,,,,,14,,,67,0
34200,note_on,,1,0,16,,,,,,,,,,,,,,,15,,,55,48
34200,note_on,,0,0,16,,,,,,,,,,,,,,,15,,,76,48
34200,note_on,,1,0,11,,,,,,,,,,,,,,,14,,,71,64
34200,note_on,,1,0,15,,,,,,,,,,,,,,,13,,,55,48
34259,note_on,,59,0,11,,,,,,,,,,,,,,,14,,,71,0
34259,note_on,,0,0,16,,,,,,,,,,,,,,,15,,,76,0
34259,note_on,,0,0,16,,,,,,,,,,,,,,,15,,,55,0
34259,note_on,,0,0,16,,,,,,,,,,,,,,,15,,,64,0
34259,note_on,,59,0,16,,,,,,,,,,,,,,,15,,,67,0
34259,note_on,,59,0,15,,,,,,,,,,,,,,,13,,,55,0
34260,note_on,,0,0,16,,,,,,,,,,,,,,,15,,,66,48
34260,note_on,,0,0,16,,,,,,,,,,,,,,,15,,,54,48
34260,note_on,,1,0,11,,,,,,,,,,,,,,,14,,,69,60
34260,note_on,,1,0,15,,,,,,,,,,,,,,,13,,,54,48
34260,note_on,,0,0,16,,,,,,,,,,,,,,,15,,,74,48
34260,note_on,,1,0,16,,,,,,,,,,,,,,,15,,,69,48
34319,note_on,,59,0,16,,,,,,,,,,,,,,,15,,,54,0
34319,note_on,,59,0,15,,,,,,,,,,,,,,,13,,,54,0
34320,note_on,,1,0,16,,,,,,,,,,,,,,,15,,,52,48
34320,note_on,,1,0,15,,,,,,,,,,,,,,,13,,,52,48
34379,note_on,,59,0,16,,,,,,,,,,,,,,,15,,,52,0
34379,note_on,,59,0,15,,,,,,,,,,,,,,,13,,,52,0
34380,note_on,,1,0,16,,,,,,,,,,,,,,,15,,,50,48
34380,note_on,,1,0,15,,,,,,,,,,,,,,,13,,,50,48
34439,note_on,,59,0,16,,,,,,,,,,,,,,,15,,,69,0
34439,note_on,,0,0,16,,,,,,,,,,,,,,,15,,,50,0
34439,note_on,,0,0,16,,,,,,,,,,,,,,,15,,,74,0
34439,note_on,,0,0,16,,,,,,,,,,,,,,,15,,,66,0
34439,note_on,,179,0,11,,,,,,,,,,,,,,,14,,,69,0
34439,note_on,,59,0,15,,,,,,,,,,,,,,,13,,,50,0
34440,note_on,,1,0,15,,,,,,,,,,,,,,,13,,,49,48
34440,note_on,,0,0,16,,,,,,,,,,,,,,,15,,,69,48
34440,note_on,,0,0,16,,,,,,,,,,,,,,,15,,,76,48
34440,note_on,,0,0,16,,,,,,,,,,,,,,,15,,,49,48
34440,note_on,,1,0,16,,,,,,,,,,,,,,,15,,,81,48
34440,note_on,,1,0,11,,,,,,,,,,,,,,,14,,,69,67
34499,note_on,,59,0,15,,,,,,,,,,,,,,,13,,,49,0
34499,note_on,,59,0,16,,,,,,,,,,,,,,,15,,,49,0
34500,note_on,,1,0,15,,,,,,,,,,,,,,,13,,,45,48
34500,note_on,,1,0,16,,,,,,,,,,,,,,,15,,,45,48
34559,note_on,,0,0,16,,,,,,,,,,,,,,,15,,,76,0
34559,note_on,,0,0,16,,,,,,,,,,,,,,,15,,,45,0
34559,note_on,,0,0,16,,,,,,,,,,,,,,,15,,,69,0
34559,note_on,,59,0,16,,,,,,,,,,,,,,,15,,,81,0
34559,note_on,,119,0,11,,,,,,,,,,,,,,,14,,,69,0
34559,note_on,,59,0,15,,,,,,,,,,,,,,,13,,,45,0
34560,note_on,,1,0,11,,,,,,,,,,,,,,,14,,,67,60
34560,note_on,,1,0,15,,,,,,,,,,,,,,,13,,,49,48
34560,note_on,,0,0,16,,,,,,,,,,,,,,,15,,,49,48
34560,note_on,,1,0,16,,,,,,,,,,,,,,,15,,,69,48
34560,note_on,,0,0,16,,,,,,,,,,,,,,,15,,,76,48
34619,note_on,,59,0,16,,,,,,,,,,,,,,,15,,,69,0
34619,note_on,,59,0,11,,,,,,,,,,,,,,,14,,,67,0
34619,note_on,,59,0,15,,,,,,,,,,,,,,,13,,,49,0
34619,note_on,,0,0,16,,,,,,,,,,,,,,,15,,,76,0
34619,note_on,,0,0,16,,,,,,,,,,,,,,,15,,,49,0
34620,note_on,,1,0,11,,,,,,,,,,,,,,,14,,,66,64
34620,note_on,,1,0,15,,,,,,,,,,,,,,,13,,,50,48
34620,note_on,,1,0,16,,,,,,,,,,,,,,,15,,,78,48
34620,note_on,,0,0,16,,,,,,,,,,,,,,,15,,,69,48
34620,note_on,,0,0,16,,,,,,,,,,,,,,,15,,,74,48
34620,note_on,,0,0,16,,,,,,,,,,,,,,,15,,,50,48
34679,note_on,,59,0,11,,,,,,,,,,,,,,,14,,,66,0
34680,note_on,,1,0,11,,,,,,,,,,,,,,,14,,,64,68
34739,note_on,,59,0,11,,,,,,,,,,,,,,,14,,,64,0
34739,note_on,,0,0,16,,,,,,,,,,,,,,,15,,,74,0
34739,note_on,,0,0,16,,,,,,,,,,,,,,,15,,,50,0
34739,note_on,,0,0,16,,,,,,,,,,,,,,,15,,,69,0
34739,note_on,,119,0,16,,,,,,,,,,,,,,,15,,,78,0
34739,note_on,,119,0,15,,,,,,,,,,,,,,,13,,,50,0
34740,note_on,,0,0,16,,,,,,,,,,,,,,,15,,,76,48
34740,note_on,,1,0,16,,,,,,,,,,,,,,,15,,,67,48
34740,note_on,,0,0,16,,,,,,,,,,,,,,,15,,,43,48
34740,note_on,,1,0,11,,,,,,,,,,,,,,,14,,,67,67
34740,note_on,,1,0,15,,,,,,,,,,,,,,,13,,,43,48
34740,note_on,,0,0,16,,,,,,,,,,,,,,,15,,,71,48
34799,note_on,,59,0,15,,,,,,,,,,,,,,,13,,,43,0
34799,note_on,,59,0,11,,,,,,,,,,,,,,,14,,,67,0
34799,note_on,,59,0,16,,,,,,,,,,,,,,,15,,,67,0
34799,note_on,,0,0,16,,,,,,,,,,,,,,,15,,,43,0
34799,note_on,,0,0,16,,,,,,,,,,,,,,,15,,,71,0
34799,note_on,,0,0,16,,,,,,,,,,,,,,,15,,,76,0
34800,note_on,,0,0,16,,,,,,,,,,,,,,,15,,,69,48
34800,note_on,,0,0,16,,,,,,,,,,,,,,,15,,,45,48
34800,note_on,,1,0,16,,,,,,,,,,,,,,,15,,,66,48
34800,note_on,,1,0,15,,,,,,,,,,,,,,,13,,,45,48
34800,note_on,,1,0,11,,,,,,,,,,,,,,,14,,,66,67
34800,note_on,,0,0,16,,,,,,,,,,,,,,,15,,,74,48
34859,note_on,,59,0,11,,,,,,,,,,,,,,,14,,,66,0
34860,note_on,,1,0,11,,,,,,,,,,,,,,,14,,,67,64
34919,note_on,,119,0,15,,,,,,,,,,,,,,,13,,,45,0
34919,note_on,,0,0,16,,,,,,,,,,,,,,,15,,,74,0
34919,note_on,,119,0,16,,,,,,,,,,,,,,,15,,,66,0
34919,note_on,,0,0,16,,,,,,,,,,,,,,,15,,,45,0
34919,note_on,,59,0,11,,,,,,,,,,,,,,,14,,,67,0
34919,note_on,,0,0,16,,,,,,,,,,,,,,,15,,,69,0
34920,note_on,,1621,0,13,,,,,,,,,,,,,,,11,,,76,48
34920,note_on,,0,0,16,,,,,,,,,,,,,,,15,,,73,48
34920,note_on,,0,0,16,,,,,,,,,,,,,,,15,,,64,48
34920,note_on,,0,0,16,,,,,,,,,,,,,,,15,,,69,48
34920,note_on,,1,0,16,,,,,,,,,,,,,,,15,,,57,48
34920,note_on,,1621,0,12,,,,,,,,,,,,,,,10,,,76,48
34920,note_on,,1,0,11,,,,,,,,,,,,,,,14,,,64,64
34920,note_on,,1,0,15,,,,,,,,,,,,,,,13,,,57,48
34934,note_on,,14,0,13,,,,,,,,,,,,,,,11,,,76,0
34934,note_on,,14,0,12,,,,,,,,,,,,,,,10,,,76,0
34935,note_on,,1,0,12,,,,,,,,,,,,,,,10,,,78,48
34935,note_on,,1,0,13,,,,,,,,,,,,,,,11,,,78,48
34949,note_on,,14,0,12,,,,,,,,,,,,,,,10,,,78,0
34949,note_on,,14,0,13,,,,,,,,,,,,,,,11,,,78,0
34950,note_on,,1,0,12,,,,,,,,,,,,,,,10,,,79,48
34950,note_on,,1,0,13,,,,,,,,,,,,,,,11,,,79,48
34979,note_on,,0,0,16,,,,,,,,,,,,,,,15,,,64,0
34979,note_on,,0,0,16,,,,,,,,,,,,,,,15,,,73,0
34979,note_on,,29,0,12,,,,,,,,,,,,,,,10,,,79,0
34979,note_on,,29,0,13,,,,,,,,,,,,,,,11,,,79,0
34979,note_on,,59,0,11,,,,,,,,,,,,,,,14,,,64,0
34979,note_on,,59,0,15,,,,,,,,,,,,,,,13,,,57,0
34979,note_on,,59,0,16,,,,,,,,,,,,,,,15,,,57,0
34979,note_on,,0,0,16,,,,,,,,,,,,,,,15,,,69,0
34980,note_on,,1,0,16,,,,,,,,,,,,,,,15,,,62,48
34980,note_on,,1,0,13,,,,,,,,,,,,,,,11,,,78,48
34980,note_on,,1,0,11,,,,,,,,,,,,,,,14,,,62,61
34980,note_on,,0,0,16,,,,,,,,,,,,,,,15,,,66,48
34980,note_on,,0,0,16,,,,,,,,,,,,,,,15,,,74,48
34980,note_on,,0,0,16,,,,,,,,,,,,,,,15,,,69,48
34980,note_on,,1,0,12,,,,,,,,,,,,,,,10,,,78,48
34980,note_on,,1,0,15,,,,,,,,,,,,,,,13,,,62,48
35009,note_on,,29,0,13,,,,,,,,,,,,,,,11,,,78,0
35009,note_on,,29,0,12,,,,,,,,,,,,,,,10,,,78,0
35010,note_on,,1,0,13,,,,,,,,,,,,,,,11,,,76,48
35010,note_on,,1,0,12,,,,,,,,,,,,,,,10,,,76,48
35039,note_on,,59,0,11,,,,,,,,,,,,,,,14,,,62,0
35039,note_on,,29,0,12,,,,,,,,,,,,,,,10,,,76,0
35039,note_on,,29,0,13,,,,,,,,,,,,,,,11,,,76,0
35040,note_on,,1,0,13,,,,,,,,,,,,,,,11,,,74,48
35040,note_on,,1,0,12,,,,,,,,,,,,,,,10,,,74,48
35040,note_on,,1,0,11,,,,,,,,,,,,,,,14,,,62,63
35099,note_on,,59,0,11,,,,,,,,,,,,,,,14,,,62,0
35099,note_on,,59,0,13,,,,,,,,,,,,,,,11,,,74,0
35099,note_on,,59,0,12,,,,,,,,,,,,,,,10,,,74,0
35099,note_on,,119,0,15,,,,,,,,,,,,,,,13,,,62,0
35099,note_on,,119,0,16,,,,,,,,,,,,,,,15,,,62,0
35099,note_on,,0,0,16,,,,,,,,,,,,,,,15,,,69,0
35099,note_on,,0,0,16,,,,,,,,,,,,,,,15,,,74,0
35099,note_on,,0,0,16,,,,,,,,,,,,,,,15,,,66,0
35100,note_on,,1,0,12,,,,,,,,,,,,,,,10,,,76,48
35100,note_on,,1,0,13,,,,,,,,,,,,,,,11,,,76,48
35100,note_on,,0,0,16,,,,,,,,,,,,,,,15,,,69,48
35100,note_on,,0,0,16,,,,,,,,,,,,,,,15,,,73,48
35100,note_on,,1,0,16,,,,,,,,,,,,,,,15,,,57,48
35100,note_on,,0,0,16,,,,,,,,,,,,,,,15,,,76,48
35100,note_on,,1,0,15,,,,,,,,,,,,,,,13,,,57,48
35114,note_on,,14,0,13,,,,,,,,,,,,,,,11,,,76,0
35114,note_on,,14,0,12,,,,,,,,,,,,,,,10,,,76,0
35115,note_on,,1,0,13,,,,,,,,,,,,,,,11,,,78,48
35115,note_on,,1,0,12,,,,,,,,,,,,,,,10,,,78,48
35129,note_on,,14,0,12,,,,,,,,,,,,,,,10,,,78,0
35129,note_on,,14,0,13,,,,,,,,,,,,,,,11,,,78,0
35130,note_on,,1,0,13,,,,,,,,,,,,,,,11,,,79,48
35130,note_on,,1,0,12,,,,,,,,,,,,,,,10,,,79,48
35159,note_on,,0,0,16,,,,,,,,,,,,,,,15,,,76,0
35159,note_on,,59,0,16,,,,,,,,,,,,,,,15,,,57,0
35159,note_on,,29,0,12,,,,,,,,,,,,,,,10,,,79,0
35159,note_on,,0,0,16,,,,,,,,,,,,,,,15,,,73,0
35159,note_on,,0,0,16,,,,,,,,,,,,,,,15,,,69,0
35159,note_on,,59,0,15,,,,,,,,,,,,,,,13,,,57,0
35159,note_on,,29,0,13,,,,,,,,,,,,,,,11,,,79,0
35160,note_on,,0,0,16,,,,,,,,,,,,,,,15,,,74,48
35160,note_on,,1,0,16,,,,,,,,,,,,,,,15,,,78,48
35160,note_on,,0,0,16,,,,,,,,,,,,,,,15,,,50,48
35160,note_on,,1,0,15,,,,,,,,,,,,,,,13,,,50,48
35160,note_on,,1,0,12,,,,,,,,,,,,,,,10,,,78,48
35160,note_on,,1,0,13,,,,,,,,,,,,,,,11,,,78,48
35160,note_on,,0,0,16,,,,,,,,,,,,,,,15,,,69,48
35189,note_on,,29,0,13,,,,,,,,,,,,,,,11,,,78,0
35189,note_on,,29,0,12,,,,,,,,,,,,,,,10,,,78,0
35190,note_on,,1,0,12,,,,,,,,,,,,,,,10,,,76,48
35190,note_on,,1,0,13,,,,,,,,,,,,,,,11,,,76,48
35219,note_on,,29,0,12,,,,,,,,,,,,,,,10,,,76,0
35219,note_on,,29,0,13,,,,,,,,,,,,,,,11,,,76,0
35220,note_on,,1,0,12,,,,,,,,,,,,,,,10,,,74,48
35220,note_on,,1,0,13,,,,,,,,,,,,,,,11,,,74,48
35279,note_on,,0,0,16,,,,,,,,,,,,,,,15,,,69,0
35279,note_on,,119,0,16,,,,,,,,,,,,,,,15,,,78,0
35279,note_on,,59,0,12,,,,,,,,,,,,,,,10,,,74,0
35279,note_on,,0,0,16,,,,,,,,,,,,,,,15,,,74,0
35279,note_on,,0,0,16,,,,,,,,,,,,,,,15,,,50,0
35279,note_on,,59,0,13,,,,,,,,,,,,,,,11,,,74,0
35279,note_on,,119,0,15,,,,,,,,,,,,,,,13,,,50,0
35280,note_on,,0,0,16,,,,,,,,,,,,,,,15,,,49,48
35280,note_on,,1,0,16,,,,,,,,,,,,,,,15,,,76,48
35280,note_on,,0,0,16,,,,,,,,,,,,,,,15,,,69,48
35280,note_on,,0,0,16,,,,,,,,,,,,,,,15,,,81,48
35280,note_on,,181,0,11,,,,,,,,,,,,,,,14,,,64,66
35280,note_on,,1,0,15,,,,,,,,,,,,,,,13,,,49,48
35294,note_on,,14,0,11,,,,,,,,,,,,,,,14,,,64,0
35295,note_on,,1,0,11,,,,,,,,,,,,,,,14,,,66,59
35309,note_on,,14,0,11,,,,,,,,,,,,,,,14,,,66,0
35310,note_on,,1,0,11,,,,,,,,,,,,,,,14,,,67,65
35339,note_on,,59,0,16,,,,,,,,,,,,,,,15,,,76,0
35339,note_on,,0,0,16,,,,,,,,,,,,,,,15,,,69,0
35339,note_on,,0,0,16,,,,,,,,,,,,,,,15,,,49,0
35339,note_on,,0,0,16,,,,,,,,,,,,,,,15,,,81,0
35339,note_on,,59,0,15,,,,,,,,,,,,,,,13,,,49,0
35339,note_on,,29,0,11,,,,,,,,,,,,,,,14,,,67,0
35340,note_on,,0,0,16,,,,,,,,,,,,,,,15,,,69,48
35340,note_on,,1,0,11,,,,,,,,,,,,,,,14,,,66,59
35340,note_on,,1,0,16,,,,,,,,,,,,,,,15,,,78,48
35340,note_on,,0,0,16,,,,,,,,,,,,,,,15,,,74,48
35340,note_on,,0,0,16,,,,,,,,,,,,,,,15,,,50,48
35340,note_on,,1,0,15,,,,,,,,,,,,,,,13,,,50,48
35369,note_on,,29,0,11,,,,,,,,,,,,,,,14,,,66,0
35370,note_on,,1,0,11,,,,,,,,,,,,,,,14,,,64,59
35399,note_on,,29,0,11,,,,,,,,,,,,,,,14,,,64,0
35400,note_on,,1,0,11,,,,,,,,,,,,,,,14,,,62,60
35459,note_on,,119,0,16,,,,,,,,,,,,,,,15,,,78,0
35459,note_on,,0,0,16,,,,,,,,,,,,,,,15,,,74,0
35459,note_on,,0,0,16,,,,,,,,,,,,,,,15,,,50,0
35459,note_on,,0,0,16,,,,,,,,,,,,,,,15,,,69,0
35459,note_on,,119,0,15,,,,,,,,,,,,,,,13,,,50,0
35459,note_on,,59,0,11,,,,,,,,,,,,,,,14,,,62,0
35460,note_on,,0,0,16,,,,,,,,,,,,,,,15,,,76,48
35460,note_on,,1,0,16,,,,,,,,,,,,,,,15,,,61,48
35460,note_on,,181,0,13,,,,,,,,,,,,,,,11,,,76,48
35460,note_on,,0,0,16,,,,,,,,,,,,,,,15,,,69,48
35460,note_on,,1,0,15,,,,,,,,,,,,,,,13,,,61,48
35460,note_on,,181,0,12,,,,,,,,,,,,,,,10,,,76,48
35474,note_on,,14,0,13,,,,,,,,,,,,,,,11,,,76,0
35474,note_on,,14,0,12,,,,,,,,,,,,,,,10,,,76,0
35475,note_on,,1,0,13,,,,,,,,,,,,,,,11,,,78,48
35475,note_on,,1,0,12,,,,,,,,,,,,,,,10,,,78,48
35489,note_on,,14,0,12,,,,,,,,,,,,,,,10,,,78,0
35489,note_on,,14,0,13,,,,,,,,,,,,,,,11,,,78,0
35490,note_on,,1,0,13,,,,,,,,,,,,,,,11,,,79,48
35490,note_on,,1,0,12,,,,,,,,,,,,,,,10,,,79,48
35519,note_on,,29,0,12,,,,,,,,,,,,,,,10,,,79,0
35519,note_on,,59,0,15,,,,,,,,,,,,,,,13,,,61,0
35519,note_on,,0,0,16,,,,,,,,,,,,,,,15,,,76,0
35519,note_on,,29,0,13,,,,,,,,,,,,,,,11,,,79,0
35519,note_on,,0,0,16,,,,,,,,,,,,,,,15,,,69,0
35519,note_on,,59,0,16,,,,,,,,,,,,,,,15,,,61,0
35520,note_on,,0,0,16,,,,,,,,,,,,,,,15,,,62,48
35520,note_on,,1,0,15,,,,,,,,,,,,,,,13,,,62,48
35520,note_on,,1,0,12,,,,,,,,,,,,,,,10,,,78,48
35520,note_on,,1,0,13,,,,,,,,,,,,,,,11,,,78,48
35520,note_on,,1,0,16,,,,,,,,,,,,,,,15,,,66,48
35520,note_on,,0,0,16,,,,,,,,,,,,,,,15,,,74,48
35549,note_on,,29,0,12,,,,,,,,,,,,,,,10,,,78,0
35549,note_on,,29,0,13,,,,,,,,,,,,,,,11,,,78,0
35550,note_on,,1,0,13,,,,,,,,,,,,,,,11,,,76,48
35550,note_on,,1,0,12,,,,,,,,,,,,,,,10,,,76,48
35579,note_on,,29,0,12,,,,,,,,,,,,,,,10,,,76,0
35579,note_on,,29,0,13,,,,,,,,,,,,,,,11,,,76,0
35579,note_on,,59,0,16,,,,,,,,,,,,,,,15,,,62,0
35579,note_on,,59,0,15,,,,,,,,,,,,,,,13,,,62,0
35580,note_on,,1,0,12,,,,,,,,,,,,,,,10,,,74,48
35580,note_on,,1,0,13,,,,,,,,,,,,,,,11,,,74,48
35580,note_on,,1,0,15,,,,,,,,,,,,,,,13,,,59,48
35580,note_on,,1,0,16,,,,,,,,,,,,,,,15,,,59,48
35639,note_on,,59,0,15,,,,,,,,,,,,,,,13,,,59,0
35639,note_on,,59,0,13,,,,,,,,,,,,,,,11,,,74,0
35639,note_on,,59,0,16,,,,,,,,,,,,,,,15,,,66,0
35639,note_on,,0,0,16,,,,,,,,,,,,,,,15,,,74,0
35639,note_on,,0,0,16,,,,,,,,,,,,,,,15,,,59,0
35639,note_on,,59,0,12,,,,,,,,,,,,,,,10,,,74,0
35640,note_on,,1,0,15,,,,,,,,,,,,,,,13,,,55,48
35640,note_on,,1,0,16,,,,,,,,,,,,,,,15,,,55,48
35640,note_on,,0,0,16,,,,,,,,,,,,,,,15,,,79,48
35640,note_on,,181,0,11,,,,,,,,,,,,,,,14,,,67,65
35640,note_on,,0,0,16,,,,,,,,,,,,,,,15,,,71,48
35640,note_on,,0,0,16,,,,,,,,,,,,,,,15,,,74,48
35654,note_on,,14,0,11,,,,,,,,,,,,,,,14,,,67,0
35655,note_on,,1,0,11,,,,,,,,,,,,,,,14,,,69,61
35669,note_on,,14,0,11,,,,,,,,,,,,,,,14,,,69,0
35670,note_on,,1,0,11,,,,,,,,,,,,,,,14,,,71,68
35699,note_on,,29,0,11,,,,,,,,,,,,,,,14,,,71,0
35699,note_on,,0,0,16,,,,,,,,,,,,,,,15,,,79,0
35699,note_on,,0,0,16,,,,,,,,,,,,,,,15,,,71,0
35699,note_on,,59,0,16,,,,,,,,,,,,,,,15,,,55,0
35699,note_on,,0,0,16,,,,,,,,,,,,,,,15,,,74,0
35699,note_on,,59,0,15,,,,,,,,,,,,,,,13,,,55,0
35700,note_on,,0,0,16,,,,,,,,,,,,,,,15,,,78,48
35700,note_on,,0,0,16,,,,,,,,,,,,,,,15,,,69,48
35700,note_on,,1,0,16,,,,,,,,,,,,,,,15,,,74,48
35700,note_on,,1,0,11,,,,,,,,,,,,,,,14,,,69,67
35700,note_on,,1,0,15,,,,,,,,,,,,,,,13,,,62,48
35700,note_on,,0,0,16,,,,,,,,,,,,,,,15,,,62,48
35729,note_on,,29,0,11,,,,,,,,,,,,,,,14,,,69,0
35730,note_on,,1,0,11,,,,,,,,,,,,,,,14,,,67,63
35759,note_on,,29,0,11,,,,,,,,,,,,,,,14,,,67,0
35760,note_on,,1,0,11,,,,,,,,,,,,,,,14,,,66,64
35819,note_on,,119,0,15,,,,,,,,,,,,,,,13,,,62,0
35819,note_on,,59,0,11,,,,,,,,,,,,,,,14,,,66,0
35819,note_on,,119,0,16,,,,,,,,,,,,,,,15,,,74,0
35819,note_on,,0,0,16,,,,,,,,,,,,,,,15,,,69,0
35819,note_on,,0,0,16,,,,,,,,,,,,,,,15,,,62,0
35819,note_on,,0,0,16,,,,,,,,,,,,,,,15,,,78,0
35820,note_on,,181,0,12,,,,,,,,,,,,,,,10,,,79,48
35820,note_on,,181,0,13,,,,,,,,,,,,,,,11,,,79,48
35820,note_on,,1,0,16,,,,,,,,,,,,,,,15,,,55,48
35820,note_on,,1,0,15,,,,,,,,,,,,,,,13,,,55,48
35820,note_on,,0,0,16,,,,,,,,,,,,,,,15,,,67,48
35820,note_on,,0,0,16,,,,,,,,,,,,,,,15,,,71,48
35834,note_on,,14,0,13,,,,,,,,,,,,,,,11,,,79,0
35834,note_on,,14,0,12,,,,,,,,,,,,,,,10,,,79,0
35835,note_on,,1,0,13,,,,,,,,,,,,,,,11,,,81,48
35835,note_on,,1,0,12,,,,,,,,,,,,,,,10,,,81,48
35849,note_on,,14,0,13,,,,,,,,,,,,,,,11,,,81,0
35849,note_on,,14,0,12,,,,,,,,,,,,,,,10,,,81,0
35850,note_on,,1,0,13,,,,,,,,,,,,,,,11,,,83,48
35850,note_on,,1,0,12,,,,,,,,,,,,,,,10,,,83,48
35879,note_on,,0,0,16,,,,,,,,,,,,,,,15,,,67,0
35879,note_on,,59,0,16,,,,,,,,,,,,,,,15,,,55,0
35879,note_on,,59,0,15,,,,,,,,,,,,,,,13,,,55,0
35879,note_on,,29,0,13,,,,,,,,,,,,,,,11,,,83,0
35879,note_on,,29,0,12,,,,,,,,,,,,,,,10,,,83,0
35879,note_on,,0,0,16,,,,,,,,,,,,,,,15,,,71,0
35880,note_on,,1,0,15,,,,,,,,,,,,,,,13,,,50,48
35880,note_on,,1,0,12,,,,,,,,,,,,,,,10,,,81,48
35880,note_on,,1,0,16,,,,,,,,,,,,,,,15,,,74,48
35880,note_on,,1,0,13,,,,,,,,,,,,,,,11,,,81,48
35880,note_on,,0,0,16,,,,,,,,,,,,,,,15,,,66,48
35880,note_on,,0,0,16,,,,,,,,,,,,,,,15,,,50,48
35880,note_on,,0,0,16,,,,,,,,,,,,,,,15,,,69,48
35880,note_on,,0,0,16,,,,,,,,,,,,,,,15,,,57,48
35909,note_on,,29,0,13,,,,,,,,,,,,,,,11,,,81,0
35909,note_on,,29,0,12,,,,,,,,,,,,,,,10,,,81,0
35910,note_on,,1,0,12,,,,,,,,,,,,,,,10,,,79,48
35910,note_on,,1,0,13,,,,,,,,,,,,,,,11,,,79,48
35939,note_on,,29,0,13,,,,,,,,,,,,,,,11,,,79,0
35939,note_on,,29,0,12,,,,,,,,,,,,,,,10,,,79,0
35940,note_on,,1,0,12,,,,,,,,,,,,,,,10,,,78,48
35940,note_on,,1,0,13,,,,,,,,,,,,,,,11,,,78,48
35999,note_on,,0,0,16,,,,,,,,,,,,,,,15,,,66,0
35999,note_on,,0,0,16,,,,,,,,,,,,,,,15,,,50,0
35999,note_on,,0,0,16,,,,,,,,,,,,,,,15,,,69,0
35999,note_on,,119,0,15,,,,,,,,,,,,,,,13,,,50,0
35999,note_on,,0,0,16,,,,,,,,,,,,,,,15,,,57,0
35999,note_on,,119,0,16,,,,,,,,,,,,,,,15,,,74,0
35999,note_on,,59,0,12,,,,,,,,,,,,,,,10,,,78,0
35999,note_on,,59,0,13,,,,,,,,,,,,,,,11,,,78,0
36000,note_on,,1,0,13,,,,,,,,,,,,,,,11,,,69,48
36000,note_on,,1,0,12,,,,,,,,,,,,,,,10,,,69,48
36000,note_on,,181,0,11,,,,,,,,,,,,,,,14,,,69,62
36059,note_on,,59,0,13,,,,,,,,,,,,,,,11,,,69,0
36059,note_on,,59,0,12,,,,,,,,,,,,,,,10,,,69,0
36059,note_on,,59,0,11,,,,,,,,,,,,,,,14,,,69,0
36060,note_on,,1,0,11,,,,,,,,,,,,,,,14,,,71,67
36060,note_on,,1,0,12,,,,,,,,,,,,,,,10,,,71,48
36060,note_on,,1,0,13,,,,,,,,,,,,,,,11,,,71,48
36119,note_on,,59,0,11,,,,,,,,,,,,,,,14,,,71,0
36119,note_on,,59,0,13,,,,,,,,,,,,,,,11,,,71,0
36119,note_on,,59,0,12,,,,,,,,,,,,,,,10,,,71,0
36120,note_on,,1,0,11,,,,,,,,,,,,,,,14,,,69,61
36120,note_on,,1,0,12,,,,,,,,,,,,,,,10,,,69,48
36120,note_on,,1,0,13,,,,,,,,,,,,,,,11,,,69,48
36179,note_on,,59,0,11,,,,,,,,,,,,,,,14,,,69,0
36179,note_on,,59,0,12,,,,,,,,,,,,,,,10,,,69,0
36179,note_on,,59,0,13,,,,,,,,,,,,,,,11,,,69,0
36180,note_on,,1,0,13,,,,,,,,,,,,,,,11,,,67,48
36180,note_on,,1,0,11,,,,,,,,,,,,,,,14,,,67,59
36180,note_on,,1,0,12,,,,,,,,,,,,,,,10,,,67,48
36239,note_on,,59,0,13,,,,,,,,,,,,,,,11,,,67,0
36239,note_on,,59,0,11,,,,,,,,,,,,,,,14,,,67,0
36239,note_on,,59,0,12,,,,,,,,,,,,,,,10,,,67,0
36240,note_on,,1,0,13,,,,,,,,,,,,,,,11,,,66,48
36240,note_on,,1,0,12,,,,,,,,,,,,,,,10,,,66,48
36240,note_on,,1,0,11,,,,,,,,,,,,,,,14,,,66,66
36299,note_on,,59,0,13,,,,,,,,,,,,,,,11,,,66,0
36299,note_on,,59,0,12,,,,,,,,,,,,,,,10,,,66,0
36299,note_on,,59,0,11,,,,,,,,,,,,,,,14,,,66,0
36300,note_on,,1,0,11,,,,,,,,,,,,,,,14,,,64,60
36300,note_on,,1,0,12,,,,,,,,,,,,,,,10,,,64,48
36300,note_on,,1,0,13,,,,,,,,,,,,,,,11,,,64,48
36359,note_on,,59,0,12,,,,,,,,,,,,,,,10,,,64,0
36359,note_on,,59,0,13,,,,,,,,,,,,,,,11,,,64,0
36359,note_on,,59,0,11,,,,,,,,,,,,,,,14,,,64,0
36360,note_on,,1,0,12,,,,,,,,,,,,,,,10,,,62,48
36360,note_on,,1,0,13,,,,,,,,,,,,,,,11,,,62,48
36360,note_on,,1,0,11,,,,,,,,,,,,,,,14,,,62,67
36419,note_on,,59,0,13,,,,,,,,,,,,,,,11,,,62,0
36419,note_on,,59,0,11,,,,,,,,,,,,,,,14,,,62,0
36419,note_on,,59,0,12,,,,,,,,,,,,,,,10,,,62,0
36420,note_on,,1,0,12,,,,,,,,,,,,,,,10,,,69,48
36420,note_on,,1,0,11,,,,,,,,,,,,,,,14,,,60,60
36420,note_on,,0,0,16,,,,,,,,,,,,,,,15,,,66,48
36420,note_on,,1,0,13,,,,,,,,,,,,,,,11,,,69,48
36420,note_on,,421,0,15,,,,,,,,,,,,,,,13,,,38,48
36420,note_on,,0,0,16,,,,,,,,,,,,,,,15,,,38,48
36420,note_on,,0,0,16,,,,,,,,,,,,,,,15,,,69,48
36420,note_on,,421,0,16,,,,,,,,,,,,,,,15,,,60,48
36449,note_on,,29,0,12,,,,,,,,,,,,,,,10,,,69,0
36449,note_on,,29,0,13,,,,,,,,,,,,,,,11,,,69,0
36450,note_on,,1,0,13,,,,,,,,,,,,,,,11,,,78,48
36450,note_on,,1,0,12,,,,,,,,,,,,,,,10,,,78,48
36479,note_on,,29,0,13,,,,,,,,,,,,,,,11,,,78,0
36479,note_on,,29,0,12,,,,,,,,,,,,,,,10,,,78,0
36480,note_on,,1,0,12,,,,,,,,,,,,,,,10,,,81,48
36480,note_on,,1,0,13,,,,,,,,,,,,,,,11,,,81,48
36509,note_on,,29,0,13,,,,,,,,,,,,,,,11,,,81,0
36509,note_on,,29,0,12,,,,,,,,,,,,,,,10,,,81,0
36510,note_on,,1,0,13,,,,,,,,,,,,,,,11,,,78,48
36510,note_on,,1,0,12,,,,,,,,,,,,,,,10,,,78,48
36539,note_on,,29,0,13,,,,,,,,,,,,,,,11,,,78,0
36539,note_on,,29,0,12,,,,,,,,,,,,,,,10,,,78,0
36540,note_on,,1,0,13,,,,,,,,,,,,,,,11,,,72,48
36540,note_on,,1,0,12,,,,,,,,,,,,,,,10,,,72,48
36569,note_on,,29,0,12,,,,,,,,,,,,,,,10,,,72,0
36569,note_on,,29,0,13,,,,,,,,,,,,,,,11,,,72,0
36570,note_on,,1,0,13,,,,,,,,,,,,,,,11,,,78,48
36570,note_on,,1,0,12,,,,,,,,,,,,,,,10,,,78,48
36599,note_on,,29,0,13,,,,,,,,,,,,,,,11,,,78,0
36599,note_on,,0,0,16,,,,,,,,,,,,,,,15,,,66,0
36599,note_on,,0,0,16,,,,,,,,,,,,,,,15,,,69,0
36599,note_on,,29,0,12,,,,,,,,,,,,,,,10,,,78,0
36599,note_on,,179,0,16,,,,,,,,,,,,,,,15,,,60,0
36600,note_on,,0,0,16,,,,,,,,,,,,,,,15,,,66,48
36600,note_on,,0,0,16,,,,,,,,,,,,,,,15,,,69,48
36600,note_on,,1,0,13,,,,,,,,,,,,,,,11,,,69,48
36600,note_on,,1,0,16,,,,,,,,,,,,,,,15,,,72,48
36600,note_on,,1,0,12,,,,,,,,,,,,,,,10,,,69,48
36629,note_on,,29,0,13,,,,,,,,,,,,,,,11,,,69,0
36629,note_on,,29,0,12,,,,,,,,,,,,,,,10,,,69,0
36630,note_on,,1,0,12,,,,,,,,,,,,,,,10,,,78,48
36630,note_on,,1,0,13,,,,,,,,,,,,,,,11,,,78,48
36659,note_on,,29,0,13,,,,,,,,,,,,,,,11,,,78,0
36659,note_on,,29,0,12,,,,,,,,,,,,,,,10,,,78,0
36660,note_on,,1,0,12,,,,,,,,,,,,,,,10,,,81,48
36660,note_on,,1,0,13,,,,,,,,,,,,,,,11,,,81,48
36689,note_on,,29,0,13,,,,,,,,,,,,,,,11,,,81,0
36689,note_on,,29,0,12,,,,,,,,,,,,,,,10,,,81,0
36690,note_on,,1,0,13,,,,,,,,,,,,,,,11,,,78,48
36690,note_on,,1,0,12,,,,,,,,,,,,,,,10,,,78,48
36719,note_on,,29,0,13,,,,,,,,,,,,,,,11,,,78,0
36719,note_on,,29,0,12,,,,,,,,,,,,,,,10,,,78,0
36720,note_on,,1,0,12,,,,,,,,,,,,,,,10,,,72,48
36720,note_on,,1,0,13,,,,,,,,,,,,,,,11,,,72,48
36749,note_on,,29,0,12,,,,,,,,,,,,,,,10,,,72,0
36749,note_on,,29,0,13,,,,,,,,,,,,,,,11,,,72,0
36750,note_on,,1,0,12,,,,,,,,,,,,,,,10,,,78,48
36750,note_on,,1,0,13,,,,,,,,,,,,,,,11,,,78,48
36779,note_on,,29,0,12,,,,,,,,,,,,,,,10,,,78,0
36779,note_on,,0,0,16,,,,,,,,,,,,,,,15,,,66,0
36779,note_on,,29,0,13,,,,,,,,,,,,,,,11,,,78,0
36779,note_on,,179,0,16,,,,,,,,,,,,,,,15,,,72,0
36779,note_on,,0,0,16,,,,,,,,,,,,,,,15,,,69,0
36780,note_on,,1,0,12,,,,,,,,,,,,,,,10,,,69,48
36780,note_on,,0,0,16,,,,,,,,,,,,,,,15,,,72,48
36780,note_on,,0,0,16,,,,,,,,,,,,,,,15,,,69,48
36780,note_on,,1,0,16,,,,,,,,,,,,,,,15,,,78,48
36780,note_on,,1,0,13,,,,,,,,,,,,,,,11,,,69,48
36809,note_on,,29,0,12,,,,,,,,,,,,,,,10,,,69,0
36809,note_on,,29,0,13,,,,,,,,,,,,,,,11,,,69,0
36810,note_on,,1,0,13,,,,,,,,,,,,,,,11,,,78,48
36810,note_on,,1,0,12,,,,,,,,,,,,,,,10,,,78,48
36839,note_on,,29,0,12,,,,,,,,,,,,,,,10,,,78,0
36839,note_on,,29,0,13,,,,,,,,,,,,,,,11,,,78,0
36840,note_on,,1,0,12,,,,,,,,,,,,,,,10,,,81,48
36840,note_on,,1,0,13,,,,,,,,,,,,,,,11,,,81,48
36869,note_on,,29,0,13,,,,,,,,,,,,,,,11,,,81,0
36869,note_on,,29,0,12,,,,,,,,,,,,,,,10,,,81,0
36870,note_on,,1,0,13,,,,,,,,,,,,,,,11,,,78,48
36870,note_on,,1,0,12,,,,,,,,,,,,,,,10,,,78,48
36899,note_on,,29,0,13,,,,,,,,,,,,,,,11,,,78,0
36899,note_on,,29,0,12,,,,,,,,,,,,,,,10,,,78,0
36900,note_on,,1,0,12,,,,,,,,,,,,,,,10,,,72,48
36900,note_on,,1,0,13,,,,,,,,,,,,,,,11,,,72,48
36929,note_on,,29,0,13,,,,,,,,,,,,,,,11,,,72,0
36929,note_on,,29,0,12,,,,,,,,,,,,,,,10,,,72,0
36930,note_on,,1,0,12,,,,,,,,,,,,,,,10,,,78,48
36930,note_on,,1,0,13,,,,,,,,,,,,,,,11,,,78,48
36959,note_on,,0,0,16,,,,,,,,,,,,,,,15,,,78,0
36959,note_on,,539,0,15,,,,,,,,,,,,,,,13,,,38,0
36959,note_on,,29,0,12,,,,,,,,,,,,,,,10,,,78,0
36959,note_on,,0,0,16,,,,,,,,,,,,,,,15,,,72,0
36959,note_on,,0,0,16,,,,,,,,,,,,,,,15,,,69,0
36959,note_on,,539,0,11,,,,,,,,,,,,,,,14,,,60,0
36959,note_on,,179,0,16,,,,,,,,,,,,,,,15,,,38,0
36959,note_on,,29,0,13,,,,,,,,,,,,,,,11,,,78,0
36960,note_on,,1,0,12,,,,,,,,,,,,,,,10,,,69,48
36960,note_on,,1,0,13,,,,,,,,,,,,,,,11,,,69,48
36989,note_on,,29,0,12,,,,,,,,,,,,,,,10,,,69,0
36989,note_on,,29,0,13,,,,,,,,,,,,,,,11,,,69,0
36990,note_on,,1,0,12,,,,,,,,,,,,,,,10,,,78,48
36990,note_on,,1,0,13,,,,,,,,,,,,,,,11,,,78,48
37019,note_on,,29,0,13,,,,,,,,,,,,,,,11,,,78,0
37019,note_on,,29,0,12,,,,,,,,,,,,,,,10,,,78,0
37020,note_on,,1,0,12,,,,,,,,,,,,,,,10,,,81,48
37020,note_on,,1,0,13,,,,,,,,,,,,,,,11,,,81,48
37049,note_on,,29,0,12,,,,,,,,,,,,,,,10,,,81,0
37049,note_on,,29,0,13,,,,,,,,,,,,,,,11,,,81,0
37050,note_on,,1,0,12,,,,,,,,,,,,,,,10,,,78,48
37050,note_on,,1,0,13,,,,,,,,,,,,,,,11,,,78,48
37079,note_on,,29,0,13,,,,,,,,,,,,,,,11,,,78,0
37079,note_on,,29,0,12,,,,,,,,,,,,,,,10,,,78,0
37080,note_on,,1,0,12,,,,,,,,,,,,,,,10,,,69,48
37080,note_on,,121,0,16,,,,,,,,,,,,,,,15,,,69,48
37080,note_on,,0,0,16,,,,,,,,,,,,,,,15,,,62,48
37080,note_on,,121,0,11,,,,,,,,,,,,,,,14,,,60,64
37080,note_on,,0,0,16,,,,,,,,,,,,,,,15,,,54,48
37080,note_on,,121,0,15,,,,,,,,,,,,,,,13,,,54,48
37080,note_on,,0,0,16,,,,,,,,,,,,,,,15,,,60,48
37080,note_on,,1,0,13,,,,,,,,,,,,,,,11,,,69,48
37109,note_on,,29,0,13,,,,,,,,,,,,,,,11,,,69,0
37109,note_on,,29,0,12,,,,,,,,,,,,,,,10,,,69,0
37110,note_on,,1,0,13,,,,,,,,,,,,,,,11,,,78,48
37110,note_on,,1,0,12,,,,,,,,,,,,,,,10,,,78,48
37139,note_on,,0,0,16,,,,,,,,,,,,,,,15,,,54,0
37139,note_on,,0,0,16,,,,,,,,,,,,,,,15,,,60,0
37139,note_on,,0,0,16,,,,,,,,,,,,,,,15,,,62,0
37139,note_on,,59,0,16,,,,,,,,,,,,,,,15,,,69,0
37139,note_on,,29,0,12,,,,,,,,,,,,,,,10,,,78,0
37139,note_on,,29,0,13,,,,,,,,,,,,,,,11,,,78,0
37139,note_on,,59,0,15,,,,,,,,,,,,,,,13,,,54,0
37139,note_on,,59,0,11,,,,,,,,,,,,,,,14,,,60,0
37140,note_on,,0,0,16,,,,,,,,,,,,,,,15,,,55,48
37140,note_on,,0,0,16,,,,,,,,,,,,,,,15,,,59,48
37140,note_on,,1,0,16,,,,,,,,,,,,,,,15,,,71,48
37140,note_on,,1,0,13,,,,,,,,,,,,,,,11,,,62,48
37140,note_on,,0,0,16,,,,,,,,,,,,,,,15,,,62,48
37140,note_on,,1,0,12,,,,,,,,,,,,,,,10,,,62,48
37140,note_on,,1,0,15,,,,,,,,,,,,,,,13,,,55,48
37140,note_on,,1,0,11,,,,,,,,,,,,,,,14,,,59,67
37319,note_on,,179,0,13,,,,,,,,,,,,,,,11,,,62,0
37319,note_on,,179,0,11,,,,,,,,,,,,,,,14,,,59,0
37319,note_on,,179,0,12,,,,,,,,,,,,,,,10,,,62,0
37319,note_on,,179,0,15,,,,,,,,,,,,,,,13,,,55,0
37319,note_on,,179,0,16,,,,,,,,,,,,,,,15,,,71,0
37319,note_on,,0,0,16,,,,,,,,,,,,,,,15,,,62,0
37319,note_on,,0,0,16,,,,,,,,,,,,,,,15,,,59,0
37319,note_on,,0,0,16,,,,,,,,,,,,,,,15,,,55,0
37320,note_on,,0,0,16,,,,,,,,,,,,,,,15,,,76,48
37320,note_on,,0,0,16,,,,,,,,,,,,,,,15,,,71,48
37320,note_on,,0,0,16,,,,,,,,,,,,,,,15,,,52,48
37320,note_on,,1,0,11,,,,,,,,,,,,,,,14,,,67,63
37320,note_on,,1,0,16,,,,,,,,,,,,,,,15,,,55,48
37320,note_on,,1,0,15,,,,,,,,,,,,,,,13,,,52,48
37320,note_on,,0,0,16,,,,,,,,,,,,,,,15,,,67,48
37499,note_on,,0,0,16,,,,,,,,,,,,,,,15,,,71,0
37499,note_on,,0,0,16,,,,,,,,,,,,,,,15,,,76,0
37499,note_on,,179,0,11,,,,,,,,,,,,,,,14,,,67,0
37499,note_on,,0,0,16,,,,,,,,,,,,,,,15,,,67,0
37499,note_on,,179,0,16,,,,,,,,,,,,,,,15,,,55,0
37499,note_on,,179,0,15,,,,,,,,,,,,,,,13,,,52,0
37499,note_on,,0,0,16,,,,,,,,,,,,,,,15,,,52,0
37500,note_on,,0,0,16,,,,,,,,,,,,,,,15,,,69,48
37500,note_on,,1,0,11,,,,,,,,,,,,,,,14,,,66,61
37500,note_on,,0,0,16,,,,,,,,,,,,,,,15,,,57,48
37500,note_on,,1,0,16,,,,,,,,,,,,,,,15,,,74,48
37500,note_on,,1,0,15,,,,,,,,,,,,,,,13,,,57,48
37500,note_on,,0,0,16,,,,,,,,,,,,,,,15,,,66,48
37679,note_on,,179,0,16,,,,,,,,,,,,,,,15,,,74,0
37679,note_on,,0,0,16,,,,,,,,,,,,,,,15,,,57,0
37679,note_on,,0,0,16,,,,,,,,,,,,,,,15,,,66,0
37679,note_on,,179,0,11,,,,,,,,,,,,,,,14,,,66,0
37679,note_on,,179,0,15,,,,,,,,,,,,,,,13,,,57,0
37679,note_on,,0,0,16,,,,,,,,,,,,,,,15,,,69,0
37680,note_on,,1,0,15,,,,,,,,,,,,,,,13,,,45,48
37680,note_on,,1,0,11,,,,,,,,,,,,,,,14,,,64,59
37680,note_on,,0,0,16,,,,,,,,,,,,,,,15,,,64,48
37680,note_on,,1,0,16,,,,,,,,,,,,,,,15,,,57,48
37680,note_on,,0,0,16,,,,,,,,,,,,,,,15,,,73,48
37680,note_on,,0,0,16,,,,,,,,,,,,,,,15,,,69,48
37680,note_on,,0,0,16,,,,,,,,,,,,,,,15,,,45,48
37799,note_on,,119,0,11,,,,,,,,,,,,,,,14,,,64,0
37800,note_on,,1,0,11,,,,,,,,,,,,,,,14,,,62,60
37859,note_on,,0,0,16,,,,,,,,,,,,,,,15,,,64,0
37859,note_on,,0,0,16,,,,,,,,,,,,,,,15,,,69,0
37859,note_on,,0,0,16,,,,,,,,,,,,,,,15,,,73,0
37859,note_on,,179,0,16,,,,,,,,,,,,,,,15,,,57,0
37859,note_on,,0,0,16,,,,,,,,,,,,,,,15,,,45,0
37859,note_on,,179,0,15,,,,,,,,,,,,,,,13,,,45,0
37859,note_on,,59,0,11,,,,,,,,,,,,,,,14,,,62,0
37860,note_on,,1,0,16,,,,,,,,,,,,,,,15,,,50,48
37860,note_on,,1,0,11,,,,,,,,,,,,,,,14,,,62,63
37860,note_on,,0,0,16,,,,,,,,,,,,,,,15,,,57,48
37860,note_on,,0,0,16,,,,,,,,,,,,,,,15,,,66,48
37860,note_on,,0,0,16,,,,,,,,,,,,,,,15,,,69,48
37860,note_on,,0,0,16,,,,,,,,,,,,,,,15,,,74,48
37860,note_on,,1,0,15,,,,,,,,,,,,,,,13,,,50,48
38039,note_on,,179,0,11,,,,,,,,,,,,,,,14,,,62,0
38039,note_on,,0,0,16,,,,,,,,,,,,,,,15,,,57,0
38039,note_on,,0,0,16,,,,,,,,,,,,,,,15,,,66,0
38039,note_on,,0,0,16,,,,,,,,,,,,,,,15,,,69,0
38039,note_on,,0,0,16,,,,,,,,,,,,,,,15,,,74,0
38039,note_on,,179,0,16,,,,,,,,,,,,,,,15,,,50,0
38039,note_on,,179,0,15,,,,,,,,,,,,,,,13,,,50,0
38040,note_on,,0,0,16,,,,,,,,,,,,,,,15,,,50,48
38040,note_on,,1,0,11,,,,,,,,,,,,,,,14,,,62,60
38040,note_on,,0,0,16,,,,,,,,,,,,,,,15,,,66,48
38040,note_on,,0,0,16,,,,,,,,,,,,,,,15,,,74,48
38040,note_on,,0,0,16,,,,,,,,,,,,,,,15,,,38,48
38040,note_on,,1,0,16,,,,,,,,,,,,,,,15,,,69,48
38040,note_on,,1,0,15,,,,,,,,,,,,,,,13,,,38,48
38159,note_on,,0,0,16,,,,,,,,,,,,,,,15,,,66,0
38159,note_on,,0,0,16,,,,,,,,,,,,,,,15,,,74,0
38159,note_on,,119,0,16,,,,,,,,,,,,,,,15,,,69,0
38160,note_on,,841,0,12,,,,,,,,,,,,,,,10,,,81,72
38160,note_on,,0,0,7,,,,,,,,,,,,,,,5,,,69,72
38160,note_on,,841,0,13,,,,,,,,,,,,,,,11,,,81,72
38160,note_on,,38160,0,5,,,,,,,,,,,,,,,0,,,69,72
38160,control_change,,38160,0,7,,,,,,,,,,,,,,,5,7,96,,
38219,note_on,,179,0,15,,,,,,,,,,,,,,,13,,,38,0
38219,note_on,,59,0,12,,,,,,,,,,,,,,,10,,,81,0
38219,note_on,,59,0,7,,,,,,,,,,,,,,,5,,,69,0
38219,note_on,,179,0,11,,,,,,,,,,,,,,,14,,,62,0
38219,note_on,,59,0,5,,,,,,,,,,,,,,,0,,,69,0
38219,note_on,,60,0,16,,,,,,,,,,,,,,,15,,,38,0
38219,note_on,,0,0,16,,,,,,,,,,,,,,,15,,,50,0
38219,note_on,,59,0,13,,,,,,,,,,,,,,,11,,,81,0
38219,end_of_track,,0,1,11,,,,,,,,,,,,,,,,,,,
38220,note_on,,1,0,12,,,,,,,,,,,,,,,10,,,74,72
38220,note_on,,1,0,5,,,,,,,,,,,,,,,0,,,74,72
38220,note_on,,1,0,7,,,,,,,,,,,,,,,5,,,74,72
38220,note_on,,1,0,13,,,,,,,,,,,,,,,11,,,74,72
38339,note_on,,119,0,7,,,,,,,,,,,,,,,5,,,74,0
38339,note_on,,119,0,13,,,,,,,,,,,,,,,11,,,74,0
38339,note_on,,119,0,12,,,,,,,,,,,,,,,10,,,74,0
38339,note_on,,119,0,5,,,,,,,,,,,,,,,0,,,74,0
38340,note_on,,1,0,12,,,,,,,,,,,,,,,10,,,76,72
38340,note_on,,1,0,13,,,,,,,,,,,,,,,11,,,76,72
38340,note_on,,1,0,5,,,,,,,,,,,,,,,0,,,76,72
38340,note_on,,1,0,7,,,,,,,,,,,,,,,5,,,76,72
38399,note_on,,59,0,12,,,,,,,,,,,,,,,10,,,76,0
38399,note_on,,59,0,13,,,,,,,,,,,,,,,11,,,76,0
38399,note_on,,59,0,5,,,,,,,,,,,,,,,0,,,76,0
38399,note_on,,59,0,7,,,,,,,,,,,,,,,5,,,76,0
38400,note_on,,1,0,13,,,,,,,,,,,,,,,11,,,73,72
38400,note_on,,1,0,7,,,,,,,,,,,,,,,5,,,73,72
38400,note_on,,1,0,5,,,,,,,,,,,,,,,0,,,73,72
38400,note_on,,1,0,12,,,,,,,,,,,,,,,10,,,73,72
38459,note_on,,59,0,5,,,,,,,,,,,,,,,0,,,73,0
38459,note_on,,59,0,13,,,,,,,,,,,,,,,11,,,73,0
38459,note_on,,59,0,12,,,,,,,,,,,,,,,10,,,73,0
38459,note_on,,59,0,7,,,,,,,,,,,,,,,5,,,73,0
38460,note_on,,1,0,7,,,,,,,,,,,,,,,5,,,74,72
38460,note_on,,1,0,5,,,,,,,,,,,,,,,0,,,74,72
38460,note_on,,1,0,12,,,,,,,,,,,,,,,10,,,74,72
38460,note_on,,1,0,13,,,,,,,,,,,,,,,11,,,74,72
38519,note_on,,59,0,5,,,,,,,,,,,,,,,0,,,74,0
38519,note_on,,59,0,13,,,,,,,,,,,,,,,11,,,74,0
38519,note_on,,59,0,7,,,,,,,,,,,,,,,5,,,74,0
38519,note_on,,59,0,12,,,,,,,,,,,,,,,10,,,74,0
38520,note_on,,1,0,7,,,,,,,,,,,,,,,5,,,76,72
38520,note_on,,1,0,12,,,,,,,,,,,,,,,10,,,76,72
38520,note_on,,1,0,13,,,,,,,,,,,,,,,11,,,76,72
38520,note_on,,8281,0,6,,,,,,,,,,,,,,,1,,,57,72
38520,note_on,,0,0,10,,,,,,,,,,,,,,,8,,,57,72
38520,control_change,,38520,0,10,,,,,,,,,,,,,,,8,7,96,,
38520,note_on,,301,0,16,,,,,,,,,,,,,,,15,,,57,72
38520,note_on,,0,0,16,,,,,,,,,,,,,,,15,,,64,72
38520,note_on,,0,0,16,,,,,,,,,,,,,,,15,,,69,72
38520,note_on,,0,0,16,,,,,,,,,,,,,,,15,,,73,72
38520,note_on,,1,0,5,,,,,,,,,,,,,,,0,,,76,72
38520,note_on,,301,0,15,,,,,,,,,,,,,,,13,,,57,72
38579,note_on,,0,0,16,,,,,,,,,,,,,,,15,,,73,0
38579,note_on,,59,0,16,,,,,,,,,,,,,,,15,,,57,0
38579,note_on,,59,0,7,,,,,,,,,,,,,,,5,,,76,0
38579,note_on,,0,0,16,,,,,,,,,,,,,,,15,,,64,0
38579,note_on,,59,0,12,,,,,,,,,,,,,,,10,,,76,0
38579,note_on,,59,0,15,,,,,,,,,,,,,,,13,,,57,0
38579,note_on,,0,0,16,,,,,,,,,,,,,,,15,,,69,0
38579,note_on,,59,0,13,,,,,,,,,,,,,,,11,,,76,0
38579,note_on,,59,0,6,,,,,,,,,,,,,,,1,,,57,0
38579,note_on,,59,0,10,,,,,,,,,,,,,,,8,,,57,0
38579,note_on,,59,0,5,,,,,,,,,,,,,,,0,,,76,0
38580,note_on,,1,0,15,,,,,,,,,,,,,,,13,,,50,72
38580,note_on,,0,0,16,,,,,,,,,,,,,,,15,,,69,72
38580,note_on,,0,0,16,,,,,,,,,,,,,,,15,,,66,72
38580,note_on,,1,0,12,,,,,,,,,,,,,,,10,,,78,72
38580,note_on,,1,0,7,,,,,,,,,,,,,,,5,,,78,72
38580,note_on,,1,0,13,,,,,,,,,,,,,,,11,,,78,72
38580,note_on,,1,0,5,,,,,,,,,,,,,,,0,,,78,72
38580,note_on,,1,0,16,,,,,,,,,,,,,,,15,,,50,72
38580,note_on,,1,0,10,,,,,,,,,,,,,,,8,,,50,72
38580,note_on,,0,0,16,,,,,,,,,,,,,,,15,,,74,72
38580,note_on,,1,0,6,,,,,,,,,,,,,,,1,,,50,72
38639,note_on,,59,0,7,,,,,,,,,,,,,,,5,,,78,0
38639,note_on,,59,0,5,,,,,,,,,,,,,,,0,,,78,0
38640,note_on,,1,0,7,,,,,,,,,,,,,,,5,,,78,72
38640,note_on,,1,0,5,,,,,,,,,,,,,,,0,,,78,72
38699,note_on,,119,0,10,,,,,,,,,,,,,,,8,,,50,0
38699,note_on,,119,0,12,,,,,,,,,,,,,,,10,,,78,0
38699,note_on,,59,0,5,,,,,,,,,,,,,,,0,,,78,0
38699,note_on,,119,0,13,,,,,,,,,,,,,,,11,,,78,0
38699,note_on,,119,0,6,,,,,,,,,,,,,,,1,,,50,0
38699,note_on,,59,0,7,,,,,,,,,,,,,,,5,,,78,0
38699,note_on,,119,0,16,,,,,,,,,,,,,,,15,,,50,0
38699,note_on,,0,0,16,,,,,,,,,,,,,,,15,,,66,0
38699,note_on,,119,0,15,,,,,,,,,,,,,,,13,,,50,0
38700,note_on,,1,0,16,,,,,,,,,,,,,,,15,,,52,72
38700,note_on,,1,0,15,,,,,,,,,,,,,,,13,,,52,72
38700,note_on,,0,0,16,,,,,,,,,,,,,,,15,,,67,72
38700,note_on,,1,0,10,,,,,,,,,,,,,,,8,,,52,72
38700,note_on,,1,0,13,,,,,,,,,,,,,,,11,,,79,72
38700,note_on,,1,0,12,,,,,,,,,,,,,,,10,,,79,72
38700,note_on,,1,0,5,,,,,,,,,,,,,,,0,,,79,72
38700,note_on,,1,0,6,,,,,,,,,,,,,,,1,,,52,72
38700,note_on,,1,0,7,,,,,,,,,,,,,,,5,,,79,72
38759,note_on,,59,0,10,,,,,,,,,,,,,,,8,,,52,0
38759,note_on,,59,0,13,,,,,,,,,,,,,,,11,,,79,0
38759,note_on,,0,0,16,,,,,,,,,,,,,,,15,,,67,0
38759,note_on,,0,0,16,,,,,,,,,,,,,,,15,,,69,0
38759,note_on,,59,0,12,,,,,,,,,,,,,,,10,,,79,0
38759,note_on,,59,0,16,,,,,,,,,,,,,,,15,,,74,0
38759,note_on,,59,0,15,,,,,,,,,,,,,,,13,,,52,0
38759,note_on,,59,0,6,,,,,,,,,,,,,,,1,,,52,0
38759,note_on,,0,0,16,,,,,,,,,,,,,,,15,,,52,0
38759,note_on,,59,0,5,,,,,,,,,,,,,,,0,,,79,0
38759,note_on,,59,0,7,,,,,,,,,,,,,,,5,,,79,0
38760,note_on,,0,0,16,,,,,,,,,,,,,,,15,,,64,72
38760,note_on,,1,0,5,,,,,,,,,,,,,,,0,,,76,72
38760,note_on,,1,0,15,,,,,,,,,,,,,,,13,,,49,72
38760,note_on,,0,0,16,,,,,,,,,,,,,,,15,,,57,72
38760,note_on,,1,0,7,,,,,,,,,,,,,,,5,,,76,72
38760,note_on,,1,0,16,,,,,,,,,,,,,,,15,,,49,72
38760,note_on,,0,0,16,,,,,,,,,,,,,,,15,,,69,72
38760,note_on,,1,0,12,,,,,,,,,,,,,,,10,,,76,72
38760,note_on,,1,0,6,,,,,,,,,,,,,,,1,,,49,72
38760,note_on,,1,0,10,,,,,,,,,,,,,,,8,,,49,72
38760,note_on,,1,0,13,,,,,,,,,,,,,,,11,,,76,72
38819,note_on,,59,0,15,,,,,,,,,,,,,,,13,,,49,0
38819,note_on,,59,0,10,,,,,,,,,,,,,,,8,,,49,0
38819,note_on,,0,0,16,,,,,,,,,,,,,,,15,,,64,0
38819,note_on,,59,0,16,,,,,,,,,,,,,,,15,,,49,0
38819,note_on,,59,0,6,,,,,,,,,,,,,,,1,,,49,0
38819,note_on,,59,0,7,,,,,,,,,,,,,,,5,,,76,0
38819,note_on,,59,0,5,,,,,,,,,,,,,,,0,,,76,0
38820,note_on,,1,0,10,,,,,,,,,,,,,,,8,,,50,72
38820,note_on,,1,0,6,,,,,,,,,,,,,,,1,,,50,72
38820,note_on,,1,0,16,,,,,,,,,,,,,,,15,,,50,72
38820,note_on,,1,0,7,,,,,,,,,,,,,,,5,,,76,72
38820,note_on,,0,0,16,,,,,,,,,,,,,,,15,,,66,72
38820,note_on,,1,0,5,,,,,,,,,,,,,,,0,,,76,72
38820,note_on,,1,0,15,,,,,,,,,,,,,,,13,,,50,72
38879,note_on,,59,0,5,,,,,,,,,,,,,,,0,,,76,0
38879,note_on,,0,0,16,,,,,,,,,,,,,,,15,,,66,0
38879,note_on,,59,0,16,,,,,,,,,,,,,,,15,,,50,0
38879,note_on,,59,0,7,,,,,,,,,,,,,,,5,,,76,0
38879,note_on,,59,0,15,,,,,,,,,,,,,,,13,,,50,0
38879,note_on,,119,0,12,,,,,,,,,,,,,,,10,,,76,0
38879,note_on,,59,0,10,,,,,,,,,,,,,,,8,,,50,0
38879,note_on,,59,0,6,,,,,,,,,,,,,,,1,,,50,0
38879,note_on,,119,0,13,,,,,,,,,,,,,,,11,,,76,0
38880,note_on,,1,0,15,,,,,,,,,,,,,,,13,,,52,72
38880,note_on,,1,0,10,,,,,,,,,,,,,,,8,,,52,72
38880,note_on,,0,0,9,,,,,,,,,,,,,,,7,,,61,72
38880,control_change,,38880,0,9,,,,,,,,,,,,,,,7,7,96,,
38880,note_on,,0,0,16,,,,,,,,,,,,,,,15,,,67,72
38880,note_on,,1,0,16,,,,,,,,,,,,,,,15,,,52,72
38880,note_on,,1,0,6,,,,,,,,,,,,,,,1,,,52,72
38880,note_on,,1,0,5,,,,,,,,,,,,,,,0,,,76,72
38880,note_on,,1,0,13,,,,,,,,,,,,,,,11,,,76,72
38880,note_on,,38880,0,14,,,,,,,,,,,,,,,12,,,61,72
38880,note_on,,1,0,7,,,,,,,,,,,,,,,5,,,76,72
38880,note_on,,1,0,12,,,,,,,,,,,,,,,10,,,61,72
38939,note_on,,59,0,10,,,,,,,,,,,,,,,8,,,52,0
38939,note_on,,59,0,6,,,,,,,,,,,,,,,1,,,52,0
38939,note_on,,59,0,9,,,,,,,,,,,,,,,7,,,61,0
38939,note_on,,59,0,12,,,,,,,,,,,,,,,10,,,61,0
38939,note_on,,59,0,14,,,,,,,,,,,,,,,12,,,61,0
38939,note_on,,59,0,5,,,,,,,,,,,,,,,0,,,76,0
38939,note_on,,0,0,16,,,,,,,,,,,,,,,15,,,67,0
38939,note_on,,0,0,16,,,,,,,,,,,,,,,15,,,52,0
38939,note_on,,0,0,16,,,,,,,,,,,,,,,15,,,57,0
38939,note_on,,59,0,16,,,,,,,,,,,,,,,15,,,69,0
38939,note_on,,59,0,7,,,,,,,,,,,,,,,5,,,76,0
38939,note_on,,59,0,13,,,,,,,,,,,,,,,11,,,76,0
38939,note_on,,59,0,15,,,,,,,,,,,,,,,13,,,52,0
38940,note_on,,0,0,16,,,,,,,,,,,,,,,15,,,66,72
38940,note_on,,1,0,13,,,,,,,,,,,,,,,11,,,69,72
38940,note_on,,0,0,16,,,,,,,,,,,,,,,15,,,57,72
38940,note_on,,1,0,15,,,,,,,,,,,,,,,13,,,54,72
38940,note_on,,1,0,5,,,,,,,,,,,,,,,0,,,69,72
38940,note_on,,1,0,10,,,,,,,,,,,,,,,8,,,54,72
38940,note_on,,1,0,7,,,,,,,,,,,,,,,5,,,69,72
38940,note_on,,1,0,16,,,,,,,,,,,,,,,15,,,54,72
38940,note_on,,1,0,12,,,,,,,,,,,,,,,10,,,62,72
38940,note_on,,1,0,6,,,,,,,,,,,,,,,1,,,54,72
38940,note_on,,0,0,16,,,,,,,,,,,,,,,15,,,62,72
38940,note_on,,1,0,9,,,,,,,,,,,,,,,7,,,62,72
38940,note_on,,1,0,14,,,,,,,,,,,,,,,12,,,62,72
38999,note_on,,59,0,5,,,,,,,,,,,,,,,0,,,69,0
38999,note_on,,59,0,13,,,,,,,,,,,,,,,11,,,69,0
38999,note_on,,59,0,10,,,,,,,,,,,,,,,8,,,54,0
38999,note_on,,59,0,7,,,,,,,,,,,,,,,5,,,69,0
39000,note_on,,1,0,5,,,,,,,,,,,,,,,0,,,71,72
39000,note_on,,1,0,13,,,,,,,,,,,,,,,11,,,71,72
39000,note_on,,1,0,10,,,,,,,,,,,,,,,8,,,54,72
39000,note_on,,1,0,7,,,,,,,,,,,,,,,5,,,71,72
39029,note_on,,29,0,13,,,,,,,,,,,,,,,11,,,71,0
39029,note_on,,29,0,7,,,,,,,,,,,,,,,5,,,71,0
39029,note_on,,29,0,5,,,,,,,,,,,,,,,0,,,71,0
39030,note_on,,1,0,7,,,,,,,,,,,,,,,5,,,69,72
39030,note_on,,1,0,13,,,,,,,,,,,,,,,11,,,69,72
39030,note_on,,1,0,5,,,,,,,,,,,,,,,0,,,69,72
39059,note_on,,0,0,16,,,,,,,,,,,,,,,15,,,57,0
39059,note_on,,29,0,5,,,,,,,,,,,,,,,0,,,69,0
39059,note_on,,119,0,15,,,,,,,,,,,,,,,13,,,54,0
39059,note_on,,119,0,12,,,,,,,,,,,,,,,10,,,62,0
39059,note_on,,119,0,6,,,,,,,,,,,,,,,1,,,54,0
39059,note_on,,119,0,16,,,,,,,,,,,,,,,15,,,54,0
39059,note_on,,0,0,16,,,,,,,,,,,,,,,15,,,62,0
39059,note_on,,119,0,14,,,,,,,,,,,,,,,12,,,62,0
39059,note_on,,29,0,13,,,,,,,,,,,,,,,11,,,69,0
39059,note_on,,29,0,7,,,,,,,,,,,,,,,5,,,69,0
39059,note_on,,59,0,10,,,,,,,,,,,,,,,8,,,54,0
39059,note_on,,119,0,9,,,,,,,,,,,,,,,7,,,62,0
39060,note_on,,1,0,12,,,,,,,,,,,,,,,10,,,64,72
39060,note_on,,1,0,9,,,,,,,,,,,,,,,7,,,64,72
39060,note_on,,1,0,6,,,,,,,,,,,,,,,1,,,55,72
39060,note_on,,1,0,13,,,,,,,,,,,,,,,11,,,67,72
39060,note_on,,0,0,16,,,,,,,,,,,,,,,15,,,59,72
39060,note_on,,1,0,7,,,,,,,,,,,,,,,5,,,67,72
39060,note_on,,1,0,16,,,,,,,,,,,,,,,15,,,55,72
39060,note_on,,1,0,14,,,,,,,,,,,,,,,12,,,64,72
39060,note_on,,1,0,15,,,,,,,,,,,,,,,13,,,55,72
39060,note_on,,1,0,10,,,,,,,,,,,,,,,8,,,55,72
39060,note_on,,1,0,5,,,,,,,,,,,,,,,0,,,67,72
39089,note_on,,29,0,5,,,,,,,,,,,,,,,0,,,67,0
39089,note_on,,29,0,13,,,,,,,,,,,,,,,11,,,67,0
39089,note_on,,29,0,7,,,,,,,,,,,,,,,5,,,67,0
39090,note_on,,1,0,13,,,,,,,,,,,,,,,11,,,66,72
39090,note_on,,1,0,7,,,,,,,,,,,,,,,5,,,66,72
39090,note_on,,1,0,5,,,,,,,,,,,,,,,0,,,66,72
39119,note_on,,59,0,9,,,,,,,,,,,,,,,7,,,64,0
39119,note_on,,59,0,15,,,,,,,,,,,,,,,13,,,55,0
39119,note_on,,29,0,7,,,,,,,,,,,,,,,5,,,66,0
39119,note_on,,29,0,13,,,,,,,,,,,,,,,11,,,66,0
39119,note_on,,59,0,12,,,,,,,,,,,,,,,10,,,64,0
39119,note_on,,59,0,6,,,,,,,,,,,,,,,1,,,55,0
39119,note_on,,0,0,16,,,,,,,,,,,,,,,15,,,59,0
39119,note_on,,0,0,16,,,,,,,,,,,,,,,15,,,55,0
39119,note_on,,59,0,16,,,,,,,,,,,,,,,15,,,66,0
39119,note_on,,59,0,10,,,,,,,,,,,,,,,8,,,55,0
39119,note_on,,59,0,14,,,,,,,,,,,,,,,12,,,64,0
39119,note_on,,29,0,5,,,,,,,,,,,,,,,0,,,66,0
39120,note_on,,1,0,5,,,,,,,,,,,,,,,0,,,64,72
39120,note_on,,1,0,9,,,,,,,,,,,,,,,7,,,61,72
39120,note_on,,1,0,13,,,,,,,,,,,,,,,11,,,64,72
39120,note_on,,1,0,14,,,,,,,,,,,,,,,12,,,61,72
39120,note_on,,1,0,7,,,,,,,,,,,,,,,5,,,64,72
39120,note_on,,1,0,12,,,,,,,,,,,,,,,10,,,61,72
39120,note_on,,1,0,16,,,,,,,,,,,,,,,15,,,57,72
39120,note_on,,0,0,16,,,,,,,,,,,,,,,15,,,64,72
39120,note_on,,1,0,15,,,,,,,,,,,,,,,13,,,57,72
39120,note_on,,1,0,6,,,,,,,,,,,,,,,1,,,57,72
39120,note_on,,0,0,16,,,,,,,,,,,,,,,15,,,61,72
39120,note_on,,1,0,10,,,,,,,,,,,,,,,8,,,57,72
39179,note_on,,59,0,16,,,,,,,,,,,,,,,15,,,57,0
39179,note_on,,0,0,16,,,,,,,,,,,,,,,15,,,61,0
39179,note_on,,59,0,12,,,,,,,,,,,,,,,10,,,61,0
39179,note_on,,59,0,9,,,,,,,,,,,,,,,7,,,61,0
39179,note_on,,59,0,15,,,,,,,,,,,,,,,13,,,57,0
39179,note_on,,59,0,10,,,,,,,,,,,,,,,8,,,57,0
39179,note_on,,59,0,14,,,,,,,,,,,,,,,12,,,61,0
39179,note_on,,59,0,6,,,,,,,,,,,,,,,1,,,57,0
39180,note_on,,1,0,15,,,,,,,,,,,,,,,13,,,59,72
39180,note_on,,0,0,16,,,,,,,,,,,,,,,15,,,62,72
39180,note_on,,1,0,16,,,,,,,,,,,,,,,15,,,59,72
39180,note_on,,1,0,14,,,,,,,,,,,,,,,12,,,62,72
39180,note_on,,1,0,12,,,,,,,,,,,,,,,10,,,62,72
39180,note_on,,1,0,9,,,,,,,,,,,,,,,7,,,62,72
39180,note_on,,1,0,10,,,,,,,,,,,,,,,8,,,59,72
39180,note_on,,1,0,6,,,,,,,,,,,,,,,1,,,59,72
39239,note_on,,59,0,6,,,,,,,,,,,,,,,1,,,59,0
39239,note_on,,59,0,16,,,,,,,,,,,,,,,15,,,59,0
39239,note_on,,59,0,10,,,,,,,,,,,,,,,8,,,59,0
39239,note_on,,59,0,14,,,,,,,,,,,,,,,12,,,62,0
39239,note_on,,59,0,15,,,,,,,,,,,,,,,13,,,59,0
39239,note_on,,119,0,5,,,,,,,,,,,,,,,0,,,64,0
39239,note_on,,59,0,9,,,,,,,,,,,,,,,7,,,62,0
39239,note_on,,119,0,13,,,,,,,,,,,,,,,11,,,64,0
39239,note_on,,0,0,16,,,,,,,,,,,,,,,15,,,62,0
39239,note_on,,119,0,7,,,,,,,,,,,,,,,5,,,64,0
39239,note_on,,59,0,12,,,,,,,,,,,,,,,10,,,62,0
39240,note_on,,1,0,12,,,,,,,,,,,,,,,10,,,64,72
39240,note_on,,1,0,7,,,,,,,,,,,,,,,5,,,69,72
39240,note_on,,1,0,5,,,,,,,,,,,,,,,0,,,69,72
39240,note_on,,0,0,16,,,,,,,,,,,,,,,15,,,64,72
39240,note_on,,1,0,6,,,,,,,,,,,,,,,1,,,61,72
39240,note_on,,1,0,13,,,,,,,,,,,,,,,11,,,69,72
39240,note_on,,1,0,10,,,,,,,,,,,,,,,8,,,61,72
39240,note_on,,1,0,15,,,,,,,,,,,,,,,13,,,61,72
39240,note_on,,1,0,14,,,,,,,,,,,,,,,12,,,64,72
39240,note_on,,1,0,9,,,,,,,,,,,,,,,7,,,64,72
39240,note_on,,1,0,16,,,,,,,,,,,,,,,15,,,61,72
39299,note_on,,59,0,15,,,,,,,,,,,,,,,13,,,61,0
39299,note_on,,59,0,6,,,,,,,,,,,,,,,1,,,61,0
39299,note_on,,59,0,12,,,,,,,,,,,,,,,10,,,64,0
39299,note_on,,59,0,5,,,,,,,,,,,,,,,0,,,69,0
39299,note_on,,59,0,7,,,,,,,,,,,,,,,5,,,69,0
39299,note_on,,59,0,14,,,,,,,,,,,,,,,12,,,64,0
39299,note_on,,0,0,16,,,,,,,,,,,,,,,15,,,64,0
39299,note_on,,0,0,16,,,,,,,,,,,,,,,15,,,61,0
39299,note_on,,59,0,16,,,,,,,,,,,,,,,15,,,64,0
39299,note_on,,59,0,13,,,,,,,,,,,,,,,11,,,69,0
39299,note_on,,59,0,10,,,,,,,,,,,,,,,8,,,61,0
39299,note_on,,59,0,9,,,,,,,,,,,,,,,7,,,64,0
39300,note_on,,0,0,16,,,,,,,,,,,,,,,15,,,69,72
39300,note_on,,1,0,15,,,,,,,,,,,,,,,13,,,62,72
39300,note_on,,0,0,16,,,,,,,,,,,,,,,15,,,66,72
39300,note_on,,1,0,10,,,,,,,,,,,,,,,8,,,62,72
39300,note_on,,1,0,16,,,,,,,,,,,,,,,15,,,62,72
39300,note_on,,1,0,12,,,,,,,,,,,,,,,10,,,66,72
39300,note_on,,1,0,7,,,,,,,,,,,,,,,5,,,69,72
39300,note_on,,1,0,14,,,,,,,,,,,,,,,12,,,66,72
39300,note_on,,1,0,13,,,,,,,,,,,,,,,11,,,69,72
39300,note_on,,1,0,5,,,,,,,,,,,,,,,0,,,69,72
39300,note_on,,1,0,6,,,,,,,,,,,,,,,1,,,62,72
39300,note_on,,1,0,9,,,,,,,,,,,,,,,7,,,66,72
39359,note_on,,59,0,14,,,,,,,,,,,,,,,12,,,66,0
39359,note_on,,0,0,16,,,,,,,,,,,,,,,15,,,66,0
39359,note_on,,59,0,16,,,,,,,,,,,,,,,15,,,62,0
39359,note_on,,59,0,9,,,,,,,,,,,,,,,7,,,66,0
39359,note_on,,59,0,12,,,,,,,,,,,,,,,10,,,66,0
39359,note_on,,59,0,6,,,,,,,,,,,,,,,1,,,62,0
39359,note_on,,59,0,10,,,,,,,,,,,,,,,8,,,62,0
39359,note_on,,59,0,15,,,,,,,,,,,,,,,13,,,62,0
39360,note_on,,1,0,14,,,,,,,,,,,,,,,12,,,67,72
39360,note_on,,1,0,15,,,,,,,,,,,,,,,13,,,64,72
39360,note_on,,1,0,6,,,,,,,,,,,,,,,1,,,64,72
39360,note_on,,1,0,10,,,,,,,,,,,,,,,8,,,64,72
39360,note_on,,1,0,16,,,,,,,,,,,,,,,15,,,64,72
39360,note_on,,0,0,16,,,,,,,,,,,,,,,15,,,67,72
39360,note_on,,1,0,9,,,,,,,,,,,,,,,7,,,67,72
39360,note_on,,1,0,12,,,,,,,,,,,,,,,10,,,67,72
39419,note_on,,59,0,12,,,,,,,,,,,,,,,10,,,67,0
39419,note_on,,119,0,13,,,,,,,,,,,,,,,11,,,69,0
39419,note_on,,59,0,9,,,,,,,,,,,,,,,7,,,67,0
39419,note_on,,119,0,5,,,,,,,,,,,,,,,0,,,69,0
39419,note_on,,59,0,14,,,,,,,,,,,,,,,12,,,67,0
39419,note_on,,0,0,16,,,,,,,,,,,,,,,15,,,67,0
39419,note_on,,59,0,16,,,,,,,,,,,,,,,15,,,64,0
39419,note_on,,59,0,10,,,,,,,,,,,,,,,8,,,64,0
39419,note_on,,59,0,15,,,,,,,,,,,,,,,13,,,64,0
39419,note_on,,119,0,7,,,,,,,,,,,,,,,5,,,69,0
39419,note_on,,59,0,6,,,,,,,,,,,,,,,1,,,64,0
39420,note_on,,1,0,12,,,,,,,,,,,,,,,10,,,66,72
39420,note_on,,1,0,7,,,,,,,,,,,,,,,5,,,69,72
39420,note_on,,1,0,14,,,,,,,,,,,,,,,12,,,66,72
39420,note_on,,1,0,10,,,,,,,,,,,,,,,8,,,62,72
39420,note_on,,1,0,5,,,,,,,,,,,,,,,0,,,69,72
39420,note_on,,1,0,16,,,,,,,,,,,,,,,15,,,62,72
39420,note_on,,1,0,6,,,,,,,,,,,,,,,1,,,62,72
39420,note_on,,1,0,13,,,,,,,,,,,,,,,11,,,69,72
39420,note_on,,1,0,15,,,,,,,,,,,,,,,13,,,62,72
39420,note_on,,1,0,9,,,,,,,,,,,,,,,7,,,66,72
39420,note_on,,0,0,16,,,,,,,,,,,,,,,15,,,66,72
39479,note_on,,59,0,5,,,,,,,,,,,,,,,0,,,69,0
39479,note_on,,59,0,6,,,,,,,,,,,,,,,1,,,62,0
39479,note_on,,59,0,7,,,,,,,,,,,,,,,5,,,69,0
39479,note_on,,59,0,15,,,,,,,,,,,,,,,13,,,62,0
39479,note_on,,59,0,14,,,,,,,,,,,,,,,12,,,66,0
39479,note_on,,59,0,9,,,,,,,,,,,,,,,7,,,66,0
39479,note_on,,59,0,16,,,,,,,,,,,,,,,15,,,69,0
39479,note_on,,0,0,16,,,,,,,,,,,,,,,15,,,62,0
39479,note_on,,59,0,10,,,,,,,,,,,,,,,8,,,62,0
39479,note_on,,59,0,12,,,,,,,,,,,,,,,10,,,66,0
39479,note_on,,0,0,16,,,,,,,,,,,,,,,15,,,66,0
39479,note_on,,59,0,13,,,,,,,,,,,,,,,11,,,69,0
39480,note_on,,1,0,10,,,,,,,,,,,,,,,8,,,61,72
39480,note_on,,1,0,14,,,,,,,,,,,,,,,12,,,64,72
39480,note_on,,1,0,13,,,,,,,,,,,,,,,11,,,69,72
39480,note_on,,1,0,9,,,,,,,,,,,,,,,7,,,64,72
39480,note_on,,1,0,6,,,,,,,,,,,,,,,1,,,61,72
39480,note_on,,1,0,5,,,,,,,,,,,,,,,0,,,69,72
39480,note_on,,1,0,12,,,,,,,,,,,,,,,10,,,64,72
39480,note_on,,1,0,7,,,,,,,,,,,,,,,5,,,69,72
39480,note_on,,0,0,16,,,,,,,,,,,,,,,15,,,69,72
39480,note_on,,0,0,16,,,,,,,,,,,,,,,15,,,76,72
39480,note_on,,1,0,16,,,,,,,,,,,,,,,15,,,61,72
39480,note_on,,1,0,15,,,,,,,,,,,,,,,13,,,61,72
39480,note_on,,0,0,16,,,,,,,,,,,,,,,15,,,64,72
39539,note_on,,59,0,9,,,,,,,,,,,,,,,7,,,64,0
39540,note_on,,1,0,9,,,,,,,,,,,,,,,7,,,64,72
39599,note_on,,119,0,13,,,,,,,,,,,,,,,11,,,69,0
39599,note_on,,119,0,12,,,,,,,,,,,,,,,10,,,64,0
39599,note_on,,119,0,6,,,,,,,,,,,,,,,1,,,61,0
39599,note_on,,59,0,9,,,,,,,,,,,,,,,7,,,64,0
39599,note_on,,119,0,10,,,,,,,,,,,,,,,8,,,61,0
39599,note_on,,119,0,15,,,,,,,,,,,,,,,13,,,61,0
39599,note_on,,119,0,14,,,,,,,,,,,,,,,12,,,64,0
39599,note_on,,119,0,16,,,,,,,,,,,,,,,15,,,61,0
39600,note_on,,1,0,10,,,,,,,,,,,,,,,8,,,61,72
39600,note_on,,0,0,8,,,,,,,,,,,,,,,6,,,69,72
39600,control_change,,39600,0,8,,,,,,,,,,,,,,,6,7,96,,
39600,note_on,,1,0,14,,,,,,,,,,,,,,,12,,,69,72
39600,note_on,,1,0,13,,,,,,,,,,,,,,,11,,,69,72
39600,note_on,,1,0,6,,,,,,,,,,,,,,,1,,,61,72
39600,note_on,,1,0,15,,,,,,,,,,,,,,,13,,,61,72
39600,note_on,,1,0,16,,,,,,,,,,,,,,,15,,,61,72
39659,note_on,,59,0,10,,,,,,,,,,,,,,,8,,,61,0
39659,note_on,,0,0,16,,,,,,,,,,,,,,,15,,,64,0
39659,note_on,,0,0,16,,,,,,,,,,,,,,,15,,,69,0
39659,note_on,,59,0,13,,,,,,,,,,,,,,,11,,,69,0
39659,note_on,,59,0,16,,,,,,,,,,,,,,,15,,,76,0
39659,note_on,,0,0,16,,,,,,,,,,,,,,,15,,,61,0
39659,note_on,,179,0,7,,,,,,,,,,,,,,,5,,,69,0
39659,note_on,,59,0,6,,,,,,,,,,,,,,,1,,,61,0
39659,note_on,,179,0,5,,,,,,,,,,,,,,,0,,,69,0
39659,note_on,,59,0,14,,,,,,,,,,,,,,,12,,,69,0
39659,note_on,,59,0,15,,,,,,,,,,,,,,,13,,,61,0
39659,note_on,,59,0,8,,,,,,,,,,,,,,,6,,,69,0
39660,note_on,,1,0,8,,,,,,,,,,,,,,,6,,,62,72
39660,note_on,,1,0,16,,,,,,,,,,,,,,,15,,,59,72
39660,note_on,,0,0,16,,,,,,,,,,,,,,,15,,,74,72
39660,note_on,,0,0,16,,,,,,,,,,,,,,,15,,,69,72
39660,note_on,,0,0,16,,,,,,,,,,,,,,,15,,,66,72
39660,note_on,,1,0,10,,,,,,,,,,,,,,,8,,,59,72
39660,note_on,,1,0,15,,,,,,,,,,,,,,,13,,,59,72
39660,note_on,,1,0,13,,,,,,,,,,,,,,,11,,,62,72
39660,note_on,,1,0,6,,,,,,,,,,,,,,,1,,,59,72
39660,note_on,,1,0,14,,,,,,,,,,,,,,,12,,,62,72
39779,note_on,,119,0,14,,,,,,,,,,,,,,,12,,,62,0
39779,note_on,,119,0,6,,,,,,,,,,,,,,,1,,,59,0
39779,note_on,,119,0,15,,,,,,,,,,,,,,,13,,,59,0
39779,note_on,,119,0,8,,,,,,,,,,,,,,,6,,,62,0
39779,note_on,,119,0,10,,,,,,,,,,,,,,,8,,,59,0
39779,note_on,,0,0,16,,,,,,,,,,,,,,,15,,,69,0
39779,note_on,,0,0,16,,,,,,,,,,,,,,,15,,,66,0
39779,note_on,,119,0,16,,,,,,,,,,,,,,,15,,,59,0
39779,note_on,,119,0,13,,,,,,,,,,,,,,,11,,,62,0
39780,note_on,,1,0,14,,,,,,,,,,,,,,,12,,,64,72
39780,note_on,,0,0,16,,,,,,,,,,,,,,,15,,,64,72
39780,note_on,,1,0,6,,,,,,,,,,,,,,,1,,,56,72
39780,note_on,,1,0,8,,,,,,,,,,,,,,,6,,,64,72
39780,note_on,,1,0,15,,,,,,,,,,,,,,,13,,,56,72
39780,note_on,,1,0,10,,,,,,,,,,,,,,,8,,,56,72
39780,note_on,,1,0,13,,,,,,,,,,,,,,,11,,,64,72
39780,note_on,,1,0,16,,,,,,,,,,,,,,,15,,,56,72
39780,note_on,,0,0,16,,,,,,,,,,,,,,,15,,,71,72
39839,note_on,,59,0,15,,,,,,,,,,,,,,,13,,,56,0
39839,note_on,,59,0,6,,,,,,,,,,,,,,,1,,,56,0
39839,note_on,,0,0,16,,,,,,,,,,,,,,,15,,,56,0
39839,note_on,,0,0,16,,,,,,,,,,,,,,,15,,,71,0
39839,note_on,,59,0,14,,,,,,,,,,,,,,,12,,,64,0
39839,note_on,,0,0,16,,,,,,,,,,,,,,,15,,,64,0
39839,note_on,,59,0,8,,,,,,,,,,,,,,,6,,,64,0
39839,note_on,,59,0,13,,,,,,,,,,,,,,,11,,,64,0
39839,note_on,,59,0,16,,,,,,,,,,,,,,,15,,,74,0
39839,note_on,,59,0,10,,,,,,,,,,,,,,,8,,,56,0
39840,note_on,,1,0,16,,,,,,,,,,,,,,,15,,,57,72
39840,note_on,,1,0,14,,,,,,,,,,,,,,,12,,,61,72
39840,note_on,,0,0,16,,,,,,,,,,,,,,,15,,,73,72
39840,note_on,,0,0,16,,,,,,,,,,,,,,,15,,,69,72
39840,note_on,,0,0,16,,,,,,,,,,,,,,,15,,,64,72
39840,note_on,,1,0,10,,,,,,,,,,,,,,,8,,,57,72
39840,note_on,,1,0,6,,,,,,,,,,,,,,,1,,,57,72
39840,note_on,,1,0,8,,,,,,,,,,,,,,,6,,,61,72
39840,note_on,,1,0,13,,,,,,,,,,,,,,,11,,,61,72
39840,note_on,,1,0,15,,,,,,,,,,,,,,,13,,,57,72
39899,note_on,,59,0,14,,,,,,,,,,,,,,,12,,,61,0
39899,note_on,,59,0,8,,,,,,,,,,,,,,,6,,,61,0
39899,note_on,,59,0,13,,,,,,,,,,,,,,,11,,,61,0
39900,note_on,,1,0,14,,,,,,,,,,,,,,,12,,,62,72
39900,note_on,,1,0,8,,,,,,,,,,,,,,,6,,,62,72
39900,note_on,,1,0,13,,,,,,,,,,,,,,,11,,,62,72
39959,note_on,,59,0,14,,,,,,,,,,,,,,,12,,,62,0
39959,note_on,,59,0,13,,,,,,,,,,,,,,,11,,,62,0
39959,note_on,,0,0,16,,,,,,,,,,,,,,,15,,,64,0
39959,note_on,,59,0,8,,,,,,,,,,,,,,,6,,,62,0
39959,note_on,,119,0,10,,,,,,,,,,,,,,,8,,,57,0
39959,note_on,,119,0,6,,,,,,,,,,,,,,,1,,,57,0
39959,note_on,,119,0,16,,,,,,,,,,,,,,,15,,,57,0
39959,note_on,,0,0,16,,,,,,,,,,,,,,,15,,,73,0
39959,note_on,,119,0,15,,,,,,,,,,,,,,,13,,,57,0
39959,note_on,,0,0,16,,,,,,,,,,,,,,,15,,,69,0
39960,note_on,,1,0,13,,,,,,,,,,,,,,,11,,,64,72
39960,note_on,,301,0,5,,,,,,,,,,,,,,,0,,,76,72
39960,note_on,,1,0,14,,,,,,,,,,,,,,,12,,,64,72
39960,note_on,,361,0,12,,,,,,,,,,,,,,,10,,,76,72
39960,note_on,,301,0,7,,,,,,,,,,,,,,,5,,,76,72
39960,note_on,,1,0,16,,,,,,,,,,,,,,,15,,,64,72
39960,note_on,,0,0,16,,,,,,,,,,,,,,,15,,,76,72
39960,note_on,,1,0,6,,,,,,,,,,,,,,,1,,,64,72
39960,note_on,,1,0,8,,,,,,,,,,,,,,,6,,,64,72
39960,note_on,,1,0,15,,,,,,,,,,,,,,,13,,,64,72
40019,note_on,,59,0,12,,,,,,,,,,,,,,,10,,,76,0
40019,note_on,,59,0,14,,,,,,,,,,,,,,,12,,,64,0
40019,note_on,,59,0,13,,,,,,,,,,,,,,,11,,,64,0
40019,note_on,,59,0,16,,,,,,,,,,,,,,,15,,,64,0
40019,note_on,,0,0,16,,,,,,,,,,,,,,,15,,,76,0
40019,note_on,,59,0,7,,,,,,,,,,,,,,,5,,,76,0
40019,note_on,,59,0,6,,,,,,,,,,,,,,,1,,,64,0
40019,note_on,,59,0,5,,,,,,,,,,,,,,,0,,,76,0
40019,note_on,,59,0,15,,,,,,,,,,,,,,,13,,,64,0
40019,note_on,,59,0,8,,,,,,,,,,,,,,,6,,,64,0
40020,note_on,,0,0,16,,,,,,,,,,,,,,,15,,,66,72
40020,note_on,,1,0,8,,,,,,,,,,,,,,,6,,,66,72
40020,note_on,,1,0,12,,,,,,,,,,,,,,,10,,,69,72
40020,note_on,,1,0,7,,,,,,,,,,,,,,,5,,,69,72
40020,note_on,,1,0,14,,,,,,,,,,,,,,,12,,,66,72
40020,note_on,,1,0,13,,,,,,,,,,,,,,,11,,,66,72
40020,note_on,,1,0,5,,,,,,,,,,,,,,,0,,,69,72
40020,note_on,,1,0,16,,,,,,,,,,,,,,,15,,,69,72
40020,note_on,,1,0,6,,,,,,,,,,,,,,,1,,,66,72
40020,note_on,,1,0,15,,,,,,,,,,,,,,,13,,,66,72
40079,note_on,,59,0,8,,,,,,,,,,,,,,,6,,,66,0
40080,note_on,,1,0,8,,,,,,,,,,,,,,,6,,,66,72
40139,note_on,,119,0,15,,,,,,,,,,,,,,,13,,,66,0
40139,note_on,,119,0,6,,,,,,,,,,,,,,,1,,,66,0
40139,note_on,,0,0,16,,,,,,,,,,,,,,,15,,,66,0
40139,note_on,,119,0,16,,,,,,,,,,,,,,,15,,,69,0
40139,note_on,,119,0,5,,,,,,,,,,,,,,,0,,,69,0
40139,note_on,,119,0,14,,,,,,,,,,,,,,,12,,,66,0
40139,note_on,,59,0,8,,,,,,,,,,,,,,,6,,,66,0
40139,note_on,,119,0,13,,,,,,,,,,,,,,,11,,,66,0
40139,note_on,,119,0,12,,,,,,,,,,,,,,,10,,,69,0
40139,note_on,,119,0,7,,,,,,,,,,,,,,,5,,,69,0
40140,note_on,,1,0,14,,,,,,,,,,,,,,,12,,,62,72
40140,note_on,,1,0,15,,,,,,,,,,,,,,,13,,,62,72
40140,note_on,,1,0,16,,,,,,,,,,,,,,,15,,,71,72
40140,note_on,,0,0,16,,,,,,,,,,,,,,,15,,,62,72
40140,note_on,,1,0,8,,,,,,,,,,,,,,,6,,,62,72
40140,note_on,,1,0,7,,,,,,,,,,,,,,,5,,,71,72
40140,note_on,,1,0,12,,,,,,,,,,,,,,,10,,,71,72
40140,note_on,,1,0,13,,,,,,,,,,,,,,,11,,,62,72
40140,note_on,,1,0,6,,,,,,,,,,,,,,,1,,,62,72
40140,note_on,,1,0,5,,,,,,,,,,,,,,,0,,,71,72
40199,note_on,,59,0,7,,,,,,,,,,,,,,,5,,,71,0
40199,note_on,,59,0,13,,,,,,,,,,,,,,,11,,,62,0
40199,note_on,,59,0,16,,,,,,,,,,,,,,,15,,,71,0
40199,note_on,,0,0,16,,,,,,,,,,,,,,,15,,,62,0
40199,note_on,,59,0,12,,,,,,,,,,,,,,,10,,,71,0
40199,note_on,,59,0,15,,,,,,,,,,,,,,,13,,,62,0
40199,note_on,,59,0,6,,,,,,,,,,,,,,,1,,,62,0
40199,note_on,,59,0,5,,,,,,,,,,,,,,,0,,,71,0
40199,note_on,,59,0,14,,,,,,,,,,,,,,,12,,,62,0
40199,note_on,,59,0,8,,,,,,,,,,,,,,,6,,,62,0
40200,note_on,,1,0,7,,,,,,,,,,,,,,,5,,,68,72
40200,note_on,,1,0,6,,,,,,,,,,,,,,,1,,,64,72
40200,note_on,,1,0,5,,,,,,,,,,,,,,,0,,,68,72
40200,note_on,,1,0,16,,,,,,,,,,,,,,,15,,,68,72
40200,note_on,,1,0,8,,,,,,,,,,,,,,,6,,,64,72
40200,note_on,,1,0,15,,,,,,,,,,,,,,,13,,,64,72
40200,note_on,,1,0,13,,,,,,,,,,,,,,,11,,,64,72
40200,note_on,,1,0,14,,,,,,,,,,,,,,,12,,,64,72
40200,note_on,,0,0,16,,,,,,,,,,,,,,,15,,,64,72
40200,note_on,,1,0,12,,,,,,,,,,,,,,,10,,,68,72
40259,note_on,,0,0,16,,,,,,,,,,,,,,,15,,,64,0
40259,note_on,,59,0,15,,,,,,,,,,,,,,,13,,,64,0
40259,note_on,,59,0,16,,,,,,,,,,,,,,,15,,,68,0
40259,note_on,,59,0,5,,,,,,,,,,,,,,,0,,,68,0
40259,note_on,,59,0,7,,,,,,,,,,,,,,,5,,,68,0
40259,note_on,,59,0,13,,,,,,,,,,,,,,,11,,,64,0
40259,note_on,,59,0,6,,,,,,,,,,,,,,,1,,,64,0
40259,note_on,,59,0,12,,,,,,,,,,,,,,,10,,,68,0
40259,note_on,,59,0,8,,,,,,,,,,,,,,,6,,,64,0
40260,note_on,,1,0,13,,,,,,,,,,,,,,,11,,,66,72
40260,note_on,,1,0,6,,,,,,,,,,,,,,,1,,,66,72
40260,note_on,,1,0,12,,,,,,,,,,,,,,,10,,,69,72
40260,note_on,,1,0,8,,,,,,,,,,,,,,,6,,,66,72
40260,note_on,,1,0,5,,,,,,,,,,,,,,,0,,,69,72
40260,note_on,,0,0,16,,,,,,,,,,,,,,,15,,,66,72
40260,note_on,,1,0,16,,,,,,,,,,,,,,,15,,,69,72
40260,note_on,,1,0,15,,,,,,,,,,,,,,,13,,,66,72
40260,note_on,,1,0,7,,,,,,,,,,,,,,,5,,,69,72
40319,note_on,,59,0,15,,,,,,,,,,,,,,,13,,,66,0
40319,note_on,,119,0,14,,,,,,,,,,,,,,,12,,,64,0
40319,note_on,,59,0,5,,,,,,,,,,,,,,,0,,,69,0
40319,note_on,,59,0,7,,,,,,,,,,,,,,,5,,,69,0
40319,note_on,,59,0,13,,,,,,,,,,,,,,,11,,,66,0
40319,note_on,,59,0,12,,,,,,,,,,,,,,,10,,,69,0
40319,note_on,,59,0,8,,,,,,,,,,,,,,,6,,,66,0
40319,note_on,,0,0,16,,,,,,,,,,,,,,,15,,,66,0
40319,note_on,,59,0,16,,,,,,,,,,,,,,,15,,,69,0
40319,note_on,,59,0,6,,,,,,,,,,,,,,,1,,,66,0
40320,note_on,,1,0,8,,,,,,,,,,,,,,,6,,,68,72
40320,note_on,,721,0,9,,,,,,,,,,,,,,,7,,,64,72
40320,note_on,,1,0,12,,,,,,,,,,,,,,,10,,,71,72
40320,note_on,,1,0,14,,,,,,,,,,,,,,,12,,,64,72
40320,note_on,,1,0,7,,,,,,,,,,,,,,,5,,,71,72
40320,note_on,,1,0,13,,,,,,,,,,,,,,,11,,,68,72
40320,note_on,,0,0,16,,,,,,,,,,,,,,,15,,,68,72
40320,note_on,,0,0,16,,,,,,,,,,,,,,,15,,,71,72
40320,note_on,,1,0,16,,,,,,,,,,,,,,,15,,,64,72
40320,note_on,,1,0,5,,,,,,,,,,,,,,,0,,,71,72
40320,note_on,,1,0,15,,,,,,,,,,,,,,,13,,,64,72
40379,note_on,,59,0,5,,,,,,,,,,,,,,,0,,,71,0
40379,note_on,,59,0,7,,,,,,,,,,,,,,,5,,,71,0
40379,note_on,,59,0,15,,,,,,,,,,,,,,,13,,,64,0
40379,note_on,,59,0,8,,,,,,,,,,,,,,,6,,,68,0
40379,note_on,,0,0,16,,,,,,,,,,,,,,,15,,,71,0
40379,note_on,,59,0,16,,,,,,,,,,,,,,,15,,,64,0
40379,note_on,,59,0,13,,,,,,,,,,,,,,,11,,,68,0
40379,note_on,,0,0,16,,,,,,,,,,,,,,,15,,,68,0
40379,note_on,,59,0,14,,,,,,,,,,,,,,,12,,,64,0
40379,note_on,,59,0,9,,,,,,,,,,,,,,,7,,,64,0
40379,note_on,,59,0,12,,,,,,,,,,,,,,,10,,,71,0
40380,note_on,,1,0,16,,,,,,,,,,,,,,,15,,,57,72
40380,note_on,,0,0,16,,,,,,,,,,,,,,,15,,,73,72
40380,note_on,,1,0,13,,,,,,,,,,,,,,,11,,,69,72
40380,note_on,,1,0,7,,,,,,,,,,,,,,,5,,,73,72
40380,note_on,,1,0,5,,,,,,,,,,,,,,,0,,,73,72
40380,note_on,,1,0,14,,,,,,,,,,,,,,,12,,,57,72
40380,note_on,,0,0,16,,,,,,,,,,,,,,,15,,,69,72
40380,note_on,,0,0,16,,,,,,,,,,,,,,,15,,,64,72
40380,note_on,,1,0,8,,,,,,,,,,,,,,,6,,,69,72
40380,note_on,,1,0,15,,,,,,,,,,,,,,,13,,,57,72
40380,note_on,,1,0,12,,,,,,,,,,,,,,,10,,,73,72
40380,note_on,,1,0,9,,,,,,,,,,,,,,,7,,,57,72
40439,note_on,,59,0,7,,,,,,,,,,,,,,,5,,,73,0
40439,note_on,,59,0,5,,,,,,,,,,,,,,,0,,,73,0
40440,note_on,,1,0,7,,,,,,,,,,,,,,,5,,,73,72
40440,note_on,,1,0,5,,,,,,,,,,,,,,,0,,,73,72
40499,note_on,,119,0,8,,,,,,,,,,,,,,,6,,,69,0
40499,note_on,,119,0,14,,,,,,,,,,,,,,,12,,,57,0
40499,note_on,,119,0,13,,,,,,,,,,,,,,,11,,,69,0
40499,note_on,,59,0,5,,,,,,,,,,,,,,,0,,,73,0
40499,note_on,,119,0,12,,,,,,,,,,,,,,,10,,,73,0
40499,note_on,,119,0,9,,,,,,,,,,,,,,,7,,,57,0
40499,note_on,,0,0,16,,,,,,,,,,,,,,,15,,,73,0
40499,note_on,,119,0,16,,,,,,,,,,,,,,,15,,,57,0
40499,note_on,,119,0,15,,,,,,,,,,,,,,,13,,,57,0
40499,note_on,,59,0,7,,,,,,,,,,,,,,,5,,,73,0
40500,note_on,,1,0,7,,,,,,,,,,,,,,,5,,,74,72
40500,note_on,,1,0,13,,,,,,,,,,,,,,,11,,,62,72
40500,note_on,,1,0,12,,,,,,,,,,,,,,,10,,,74,72
40500,note_on,,1,0,15,,,,,,,,,,,,,,,13,,,59,72
40500,note_on,,1,0,16,,,,,,,,,,,,,,,15,,,59,72
40500,note_on,,0,0,16,,,,,,,,,,,,,,,15,,,74,72
40500,note_on,,1,0,5,,,,,,,,,,,,,,,0,,,74,72
40500,note_on,,1,0,14,,,,,,,,,,,,,,,12,,,59,72
40500,note_on,,1,0,9,,,,,,,,,,,,,,,7,,,59,72
40500,note_on,,1,0,8,,,,,,,,,,,,,,,6,,,62,72
40559,note_on,,59,0,13,,,,,,,,,,,,,,,11,,,62,0
40559,note_on,,59,0,5,,,,,,,,,,,,,,,0,,,74,0
40559,note_on,,59,0,14,,,,,,,,,,,,,,,12,,,59,0
40559,note_on,,59,0,15,,,,,,,,,,,,,,,13,,,59,0
40559,note_on,,59,0,7,,,,,,,,,,,,,,,5,,,74,0
40559,note_on,,59,0,8,,,,,,,,,,,,,,,6,,,62,0
40559,note_on,,0,0,16,,,,,,,,,,,,,,,15,,,74,0
40559,note_on,,0,0,16,,,,,,,,,,,,,,,15,,,59,0
40559,note_on,,0,0,16,,,,,,,,,,,,,,,15,,,64,0
40559,note_on,,59,0,12,,,,,,,,,,,,,,,10,,,74,0
40559,note_on,,59,0,9,,,,,,,,,,,,,,,7,,,59,0
40559,note_on,,59,0,16,,,,,,,,,,,,,,,15,,,69,0
40560,note_on,,1,0,15,,,,,,,,,,,,,,,13,,,56,72
40560,note_on,,0,0,16,,,,,,,,,,,,,,,15,,,71,72
40560,note_on,,1,0,16,,,,,,,,,,,,,,,15,,,56,72
40560,note_on,,1,0,14,,,,,,,,,,,,,,,12,,,56,72
40560,note_on,,1,0,5,,,,,,,,,,,,,,,0,,,71,72
40560,note_on,,1,0,13,,,,,,,,,,,,,,,11,,,64,72
40560,note_on,,1,0,9,,,,,,,,,,,,,,,7,,,56,72
40560,note_on,,1,0,12,,,,,,,,,,,,,,,10,,,71,72
40560,note_on,,1,0,8,,,,,,,,,,,,,,,6,,,64,72
40560,note_on,,1,0,7,,,,,,,,,,,,,,,5,,,71,72
40560,note_on,,0,0,16,,,,,,,,,,,,,,,15,,,64,72
40619,note_on,,0,0,16,,,,,,,,,,,,,,,15,,,71,0
40619,note_on,,59,0,5,,,,,,,,,,,,,,,0,,,71,0
40619,note_on,,59,0,7,,,,,,,,,,,,,,,5,,,71,0
40619,note_on,,59,0,9,,,,,,,,,,,,,,,7,,,56,0
40619,note_on,,59,0,12,,,,,,,,,,,,,,,10,,,71,0
40619,note_on,,59,0,16,,,,,,,,,,,,,,,15,,,56,0
40619,note_on,,59,0,14,,,,,,,,,,,,,,,12,,,56,0
40619,note_on,,59,0,15,,,,,,,,,,,,,,,13,,,56,0
40620,note_on,,1,0,16,,,,,,,,,,,,,,,15,,,57,72
40620,note_on,,1,0,12,,,,,,,,,,,,,,,10,,,73,72
40620,note_on,,1,0,5,,,,,,,,,,,,,,,0,,,73,72
40620,note_on,,1,0,14,,,,,,,,,,,,,,,12,,,57,72
40620,note_on,,1,0,9,,,,,,,,,,,,,,,7,,,57,72
40620,note_on,,1,0,15,,,,,,,,,,,,,,,13,,,57,72
40620,note_on,,1,0,7,,,,,,,,,,,,,,,5,,,73,72
40620,note_on,,0,0,16,,,,,,,,,,,,,,,15,,,73,72
40679,note_on,,59,0,16,,,,,,,,,,,,,,,15,,,57,0
40679,note_on,,59,0,15,,,,,,,,,,,,,,,13,,,57,0
40679,note_on,,59,0,12,,,,,,,,,,,,,,,10,,,73,0
40679,note_on,,59,0,7,,,,,,,,,,,,,,,5,,,73,0
40679,note_on,,119,0,8,,,,,,,,,,,,,,,6,,,64,0
40679,note_on,,119,0,13,,,,,,,,,,,,,,,11,,,64,0
40679,note_on,,59,0,14,,,,,,,,,,,,,,,12,,,57,0
40679,note_on,,59,0,5,,,,,,,,,,,,,,,0,,,73,0
40679,note_on,,59,0,9,,,,,,,,,,,,,,,7,,,57,0
40679,note_on,,0,0,16,,,,,,,,,,,,,,,15,,,73,0
40680,note_on,,1,0,9,,,,,,,,,,,,,,,7,,,59,72
40680,note_on,,1,0,15,,,,,,,,,,,,,,,13,,,59,72
40680,note_on,,0,0,16,,,,,,,,,,,,,,,15,,,74,72
40680,note_on,,1,0,7,,,,,,,,,,,,,,,5,,,74,72
40680,note_on,,1,0,16,,,,,,,,,,,,,,,15,,,59,72
40680,note_on,,1,0,12,,,,,,,,,,,,,,,10,,,74,72
40680,note_on,,1,0,14,,,,,,,,,,,,,,,12,,,59,72
40680,note_on,,1,0,5,,,,,,,,,,,,,,,0,,,74,72
40739,note_on,,0,0,16,,,,,,,,,,,,,,,15,,,59,0
40739,note_on,,59,0,9,,,,,,,,,,,,,,,7,,,59,0
40739,note_on,,59,0,12,,,,,,,,,,,,,,,10,,,74,0
40739,note_on,,59,0,7,,,,,,,,,,,,,,,5,,,74,0
40739,note_on,,59,0,15,,,,,,,,,,,,,,,13,,,59,0
40739,note_on,,59,0,14,,,,,,,,,,,,,,,12,,,59,0
40739,note_on,,0,0,16,,,,,,,,,,,,,,,15,,,74,0
40739,note_on,,59,0,16,,,,,,,,,,,,,,,15,,,64,0
40739,note_on,,59,0,5,,,,,,,,,,,,,,,0,,,74,0
40740,note_on,,0,0,16,,,,,,,,,,,,,,,15,,,73,72
40740,note_on,,1,0,5,,,,,,,,,,,,,,,0,,,76,72
40740,note_on,,1,0,15,,,,,,,,,,,,,,,13,,,61,72
40740,note_on,,1,0,12,,,,,,,,,,,,,,,10,,,76,72
40740,note_on,,0,0,16,,,,,,,,,,,,,,,15,,,69,72
40740,note_on,,1,0,7,,,,,,,,,,,,,,,5,,,76,72
40740,note_on,,1,0,9,,,,,,,,,,,,,,,7,,,61,72
40740,note_on,,1,0,14,,,,,,,,,,,,,,,12,,,61,72
40740,note_on,,0,0,16,,,,,,,,,,,,,,,15,,,64,72
40740,note_on,,1,0,16,,,,,,,,,,,,,,,15,,,61,72
40799,note_on,,59,0,7,,,,,,,,,,,,,,,5,,,76,0
40799,note_on,,59,0,12,,,,,,,,,,,,,,,10,,,76,0
40799,note_on,,59,0,15,,,,,,,,,,,,,,,13,,,61,0
40799,note_on,,59,0,5,,,,,,,,,,,,,,,0,,,76,0
40799,note_on,,59,0,14,,,,,,,,,,,,,,,12,,,61,0
40799,note_on,,59,0,16,,,,,,,,,,,,,,,15,,,61,0
40799,note_on,,59,0,9,,,,,,,,,,,,,,,7,,,61,0
40800,note_on,,1,0,9,,,,,,,,,,,,,,,7,,,62,72
40800,note_on,,1,0,5,,,,,,,,,,,,,,,0,,,78,72
40800,note_on,,1,0,15,,,,,,,,,,,,,,,13,,,62,72
40800,note_on,,1,0,12,,,,,,,,,,,,,,,10,,,78,72
40800,note_on,,1,0,16,,,,,,,,,,,,,,,15,,,62,72
40800,note_on,,1,0,7,,,,,,,,,,,,,,,5,,,78,72
40800,note_on,,1,0,14,,,,,,,,,,,,,,,12,,,62,72
40859,note_on,,59,0,12,,,,,,,,,,,,,,,10,,,78,0
40859,note_on,,59,0,7,,,,,,,,,,,,,,,5,,,78,0
40859,note_on,,59,0,15,,,,,,,,,,,,,,,13,,,62,0
40859,note_on,,59,0,14,,,,,,,,,,,,,,,12,,,62,0
40859,note_on,,59,0,5,,,,,,,,,,,,,,,0,,,78,0
40859,note_on,,59,0,9,,,,,,,,,,,,,,,7,,,62,0
40859,note_on,,59,0,16,,,,,,,,,,,,,,,15,,,62,0
40860,note_on,,1,0,14,,,,,,,,,,,,,,,12,,,61,72
40860,note_on,,1,0,15,,,,,,,,,,,,,,,13,,,61,72
40860,note_on,,1,0,5,,,,,,,,,,,,,,,0,,,76,72
40860,note_on,,1,0,7,,,,,,,,,,,,,,,5,,,76,72
40860,note_on,,1,0,12,,,,,,,,,,,,,,,10,,,76,72
40860,note_on,,1,0,16,,,,,,,,,,,,,,,15,,,61,72
40860,note_on,,1,0,9,,,,,,,,,,,,,,,7,,,61,72
40919,note_on,,59,0,9,,,,,,,,,,,,,,,7,,,61,0
40919,note_on,,59,0,15,,,,,,,,,,,,,,,13,,,61,0
40919,note_on,,0,0,16,,,,,,,,,,,,,,,15,,,64,0
40919,note_on,,59,0,7,,,,,,,,,,,,,,,5,,,76,0
40919,note_on,,0,0,16,,,,,,,,,,,,,,,15,,,69,0
40919,note_on,,59,0,16,,,,,,,,,,,,,,,15,,,73,0
40919,note_on,,59,0,5,,,,,,,,,,,,,,,0,,,76,0
40919,note_on,,59,0,12,,,,,,,,,,,,,,,10,,,76,0
40919,note_on,,59,0,14,,,,,,,,,,,,,,,12,,,61,0
40919,note_on,,0,0,16,,,,,,,,,,,,,,,15,,,61,0
40920,note_on,,1,0,15,,,,,,,,,,,,,,,13,,,59,72
40920,note_on,,1,0,7,,,,,,,,,,,,,,,5,,,74,72
40920,note_on,,1,0,14,,,,,,,,,,,,,,,12,,,59,72
40920,note_on,,1,0,12,,,,,,,,,,,,,,,10,,,74,72
40920,note_on,,1,0,5,,,,,,,,,,,,,,,0,,,74,72
40920,note_on,,1,0,9,,,,,,,,,,,,,,,7,,,59,72
40920,note_on,,0,0,16,,,,,,,,,,,,,,,15,,,66,72
40920,note_on,,0,0,16,,,,,,,,,,,,,,,15,,,69,72
40920,note_on,,0,0,16,,,,,,,,,,,,,,,15,,,74,72
40920,note_on,,1,0,16,,,,,,,,,,,,,,,15,,,59,72
40979,note_on,,59,0,7,,,,,,,,,,,,,,,5,,,74,0
40979,note_on,,59,0,14,,,,,,,,,,,,,,,12,,,59,0
40979,note_on,,59,0,5,,,,,,,,,,,,,,,0,,,74,0
40979,note_on,,59,0,9,,,,,,,,,,,,,,,7,,,59,0
40979,note_on,,59,0,12,,,,,,,,,,,,,,,10,,,74,0
40980,note_on,,1,0,7,,,,,,,,,,,,,,,5,,,73,72
40980,note_on,,1,0,5,,,,,,,,,,,,,,,0,,,73,72
40980,note_on,,1,0,14,,,,,,,,,,,,,,,12,,,59,72
40980,note_on,,1,0,12,,,,,,,,,,,,,,,10,,,73,72
40980,note_on,,1,0,9,,,,,,,,,,,,,,,7,,,59,72
41039,note_on,,0,0,16,,,,,,,,,,,,,,,15,,,74,0
41039,note_on,,59,0,9,,,,,,,,,,,,,,,7,,,59,0
41039,note_on,,59,0,7,,,,,,,,,,,,,,,5,,,73,0
41039,note_on,,119,0,15,,,,,,,,,,,,,,,13,,,59,0
41039,note_on,,119,0,16,,,,,,,,,,,,,,,15,,,59,0
41039,note_on,,59,0,5,,,,,,,,,,,,,,,0,,,73,0
41039,note_on,,0,0,16,,,,,,,,,,,,,,,15,,,66,0
41039,note_on,,0,0,16,,,,,,,,,,,,,,,15,,,69,0
41039,note_on,,59,0,12,,,,,,,,,,,,,,,10,,,73,0
41039,note_on,,59,0,14,,,,,,,,,,,,,,,12,,,59,0
41040,note_on,,1,0,12,,,,,,,,,,,,,,,10,,,71,72
41040,note_on,,0,0,16,,,,,,,,,,,,,,,15,,,71,72
41040,note_on,,0,0,16,,,,,,,,,,,,,,,15,,,76,72
41040,note_on,,1,0,16,,,,,,,,,,,,,,,15,,,52,72
41040,note_on,,721,0,6,,,,,,,,,,,,,,,1,,,52,72
41040,note_on,,1081,0,10,,,,,,,,,,,,,,,8,,,52,72
41040,note_on,,1,0,7,,,,,,,,,,,,,,,5,,,71,72
41040,note_on,,0,0,16,,,,,,,,,,,,,,,15,,,68,72
41040,note_on,,1,0,9,,,,,,,,,,,,,,,7,,,64,72
41040,note_on,,1,0,15,,,,,,,,,,,,,,,13,,,52,72
41040,note_on,,361,0,8,,,,,,,,,,,,,,,6,,,68,72
41040,note_on,,1,0,5,,,,,,,,,,,,,,,0,,,71,72
41040,note_on,,1,0,14,,,,,,,,,,,,,,,12,,,64,72
41040,note_on,,0,0,16,,,,,,,,,,,,,,,15,,,59,72
41040,note_on,,361,0,13,,,,,,,,,,,,,,,11,,,68,72
41054,note_on,,14,0,5,,,,,,,,,,,,,,,0,,,71,0
41054,note_on,,14,0,12,,,,,,,,,,,,,,,10,,,71,0
41054,note_on,,14,0,7,,,,,,,,,,,,,,,5,,,71,0
41055,note_on,,1,0,5,,,,,,,,,,,,,,,0,,,73,72
41055,note_on,,1,0,7,,,,,,,,,,,,,,,5,,,73,72
41055,note_on,,1,0,12,,,,,,,,,,,,,,,10,,,73,72
41069,note_on,,14,0,5,,,,,,,,,,,,,,,0,,,73,0
41069,note_on,,14,0,12,,,,,,,,,,,,,,,10,,,73,0
41069,note_on,,14,0,7,,,,,,,,,,,,,,,5,,,73,0
41070,note_on,,1,0,5,,,,,,,,,,,,,,,0,,,74,72
41070,note_on,,1,0,12,,,,,,,,,,,,,,,10,,,74,72
41070,note_on,,1,0,7,,,,,,,,,,,,,,,5,,,74,72
41099,note_on,,59,0,16,,,,,,,,,,,,,,,15,,,52,0
41099,note_on,,0,0,16,,,,,,,,,,,,,,,15,,,71,0
41099,note_on,,0,0,16,,,,,,,,,,,,,,,15,,,68,0
41099,note_on,,0,0,16,,,,,,,,,,,,,,,15,,,59,0
41099,note_on,,29,0,12,,,,,,,,,,,,,,,10,,,74,0
41099,note_on,,59,0,8,,,,,,,,,,,,,,,6,,,68,0
41099,note_on,,29,0,7,,,,,,,,,,,,,,,5,,,74,0
41099,note_on,,0,0,16,,,,,,,,,,,,,,,15,,,76,0
41099,note_on,,59,0,14,,,,,,,,,,,,,,,12,,,64,0
41099,note_on,,29,0,5,,,,,,,,,,,,,,,0,,,74,0
41099,note_on,,59,0,13,,,,,,,,,,,,,,,11,,,68,0
41099,note_on,,59,0,6,,,,,,,,,,,,,,,1,,,52,0
41099,note_on,,59,0,10,,,,,,,,,,,,,,,8,,,52,0
41099,note_on,,59,0,15,,,,,,,,,,,,,,,13,,,52,0
41099,note_on,,59,0,9,,,,,,,,,,,,,,,7,,,64,0
41100,note_on,,0,0,16,,,,,,,,,,,,,,,15,,,73,72
41100,note_on,,1,0,16,,,,,,,,,,,,,,,15,,,57,72
41100,note_on,,0,0,16,,,,,,,,,,,,,,,15,,,64,72
41100,note_on,,0,0,16,,,,,,,,,,,,,,,15,,,61,72
41100,note_on,,1,0,10,,,,,,,,,,,,,,,8,,,57,72
41100,note_on,,1,0,15,,,,,,,,,,,,,,,13,,,57,72
41100,note_on,,1,0,8,,,,,,,,,,,,,,,6,,,69,72
41100,note_on,,1,0,6,,,,,,,,,,,,,,,1,,,57,72
41100,note_on,,1,0,9,,,,,,,,,,,,,,,7,,,64,72
41100,note_on,,0,0,16,,,,,,,,,,,,,,,15,,,69,72
41100,note_on,,1,0,7,,,,,,,,,,,,,,,5,,,73,72
41100,note_on,,1,0,12,,,,,,,,,,,,,,,10,,,73,72
41100,note_on,,1,0,14,,,,,,,,,,,,,,,12,,,64,72
41100,note_on,,1,0,5,,,,,,,,,,,,,,,0,,,73,72
41100,note_on,,1,0,13,,,,,,,,,,,,,,,11,,,69,72
41219,note_on,,0,0,16,,,,,,,,,,,,,,,15,,,69,0
41219,note_on,,119,0,14,,,,,,,,,,,,,,,12,,,64,0
41219,note_on,,119,0,10,,,,,,,,,,,,,,,8,,,57,0
41219,note_on,,119,0,15,,,,,,,,,,,,,,,13,,,57,0
41219,note_on,,119,0,13,,,,,,,,,,,,,,,11,,,69,0
41219,note_on,,0,0,16,,,,,,,,,,,,,,,15,,,61,0
41219,note_on,,0,0,16,,,,,,,,,,,,,,,15,,,64,0
41219,note_on,,0,0,16,,,,,,,,,,,,,,,15,,,73,0
41219,note_on,,119,0,16,,,,,,,,,,,,,,,15,,,57,0
41219,note_on,,119,0,8,,,,,,,,,,,,,,,6,,,69,0
41219,note_on,,119,0,9,,,,,,,,,,,,,,,7,,,64,0
41219,note_on,,119,0,5,,,,,,,,,,,,,,,0,,,73,0
41219,note_on,,119,0,12,,,,,,,,,,,,,,,10,,,73,0
41219,note_on,,119,0,7,,,,,,,,,,,,,,,5,,,73,0
41219,note_on,,119,0,6,,,,,,,,,,,,,,,1,,,57,0
41220,note_on,,1,0,14,,,,,,,,,,,,,,,12,,,64,72
41220,note_on,,1,0,13,,,,,,,,,,,,,,,11,,,80,72
41220,note_on,,1,0,12,,,,,,,,,,,,,,,10,,,83,72
41234,note_on,,14,0,13,,,,,,,,,,,,,,,11,,,80,0
41234,note_on,,14,0,12,,,,,,,,,,,,,,,10,,,83,0
41235,note_on,,1,0,13,,,,,,,,,,,,,,,11,,,81,72
41235,note_on,,1,0,12,,,,,,,,,,,,,,,10,,,85,72
41249,note_on,,14,0,13,,,,,,,,,,,,,,,11,,,81,0
41249,note_on,,14,0,12,,,,,,,,,,,,,,,10,,,85,0
41250,note_on,,1,0,13,,,,,,,,,,,,,,,11,,,83,72
41250,note_on,,1,0,12,,,,,,,,,,,,,,,10,,,86,72
41279,note_on,,59,0,14,,,,,,,,,,,,,,,12,,,64,0
41279,note_on,,29,0,12,,,,,,,,,,,,,,,10,,,86,0
41279,note_on,,29,0,13,,,,,,,,,,,,,,,11,,,83,0
41280,note_on,,1,0,13,,,,,,,,,,,,,,,11,,,81,72
41280,note_on,,1,0,12,,,,,,,,,,,,,,,10,,,85,72
41280,note_on,,1,0,14,,,,,,,,,,,,,,,12,,,69,72
41309,note_on,,29,0,12,,,,,,,,,,,,,,,10,,,85,0
41310,note_on,,1,0,12,,,,,,,,,,,,,,,10,,,83,72
41339,note_on,,59,0,13,,,,,,,,,,,,,,,11,,,81,0
41339,note_on,,29,0,12,,,,,,,,,,,,,,,10,,,83,0
41340,note_on,,1,0,12,,,,,,,,,,,,,,,10,,,81,72
41340,note_on,,1,0,13,,,,,,,,,,,,,,,11,,,76,72
41399,note_on,,59,0,13,,,,,,,,,,,,,,,11,,,76,0
41399,note_on,,119,0,14,,,,,,,,,,,,,,,12,,,69,0
41399,note_on,,59,0,12,,,,,,,,,,,,,,,10,,,81,0
41400,note_on,,0,0,16,,,,,,,,,,,,,,,15,,,66,72
41400,note_on,,0,0,16,,,,,,,,,,,,,,,15,,,69,72
41400,note_on,,0,0,16,,,,,,,,,,,,,,,15,,,74,72
41400,note_on,,181,0,15,,,,,,,,,,,,,,,13,,,50,72
41400,note_on,,181,0,16,,,,,,,,,,,,,,,15,,,50,72
41400,note_on,,181,0,6,,,,,,,,,,,,,,,1,,,50,72
41400,note_on,,181,0,8,,,,,,,,,,,,,,,6,,,69,72
41400,note_on,,181,0,9,,,,,,,,,,,,,,,7,,,66,72
41400,note_on,,181,0,5,,,,,,,,,,,,,,,0,,,74,72
41400,note_on,,0,0,16,,,,,,,,,,,,,,,15,,,57,72
41400,note_on,,181,0,10,,,,,,,,,,,,,,,8,,,50,72
41400,note_on,,181,0,7,,,,,,,,,,,,,,,5,,,74,72
41414,note_on,,14,0,7,,,,,,,,,,,,,,,5,,,74,0
41414,note_on,,14,0,5,,,,,,,,,,,,,,,0,,,74,0
41414,note_on,,14,0,9,,,,,,,,,,,,,,,7,,,66,0
41415,note_on,,1,0,5,,,,,,,,,,,,,,,0,,,76,72
41415,note_on,,1,0,9,,,,,,,,,,,,,,,7,,,64,72
41415,note_on,,1,0,7,,,,,,,,,,,,,,,5,,,76,72
41429,note_on,,14,0,5,,,,,,,,,,,,,,,0,,,76,0
41429,note_on,,14,0,7,,,,,,,,,,,,,,,5,,,76,0
41429,note_on,,14,0,9,,,,,,,,,,,,,,,7,,,64,0
41430,note_on,,1,0,7,,,,,,,,,,,,,,,5,,,78,72
41430,note_on,,1,0,5,,,,,,,,,,,,,,,0,,,78,72
41430,note_on,,1,0,9,,,,,,,,,,,,,,,7,,,62,72
41459,note_on,,0,0,16,,,,,,,,,,,,,,,15,,,69,0
41459,note_on,,0,0,16,,,,,,,,,,,,,,,15,,,74,0
41459,note_on,,29,0,5,,,,,,,,,,,,,,,0,,,78,0
41459,note_on,,59,0,8,,,,,,,,,,,,,,,6,,,69,0
41459,note_on,,59,0,16,,,,,,,,,,,,,,,15,,,50,0
41459,note_on,,59,0,15,,,,,,,,,,,,,,,13,,,50,0
41459,note_on,,29,0,7,,,,,,,,,,,,,,,5,,,78,0
41459,note_on,,59,0,10,,,,,,,,,,,,,,,8,,,50,0
41459,note_on,,29,0,9,,,,,,,,,,,,,,,7,,,62,0
41459,note_on,,59,0,6,,,,,,,,,,,,,,,1,,,50,0
41459,note_on,,0,0,16,,,,,,,,,,,,,,,15,,,57,0
41459,note_on,,0,0,16,,,,,,,,,,,,,,,15,,,66,0
41460,note_on,,1,0,5,,,,,,,,,,,,,,,0,,,76,72
41460,note_on,,1,0,9,,,,,,,,,,,,,,,7,,,61,72
41460,note_on,,1,0,15,,,,,,,,,,,,,,,13,,,57,72
41460,note_on,,0,0,16,,,,,,,,,,,,,,,15,,,69,72
41460,note_on,,0,0,16,,,,,,,,,,,,,,,15,,,76,72
41460,note_on,,0,0,16,,,,,,,,,,,,,,,15,,,64,72
41460,note_on,,0,0,16,,,,,,,,,,,,,,,15,,,61,72
41460,note_on,,1,0,8,,,,,,,,,,,,,,,6,,,69,72
41460,note_on,,1,0,10,,,,,,,,,,,,,,,8,,,57,72
41460,note_on,,1,0,6,,,,,,,,,,,,,,,1,,,57,72
41460,note_on,,1,0,16,,,,,,,,,,,,,,,15,,,57,72
41460,note_on,,1,0,7,,,,,,,,,,,,,,,5,,,76,72
41579,note_on,,119,0,15,,,,,,,,,,,,,,,13,,,57,0
41579,note_on,,119,0,7,,,,,,,,,,,,,,,5,,,76,0
41579,note_on,,119,0,8,,,,,,,,,,,,,,,6,,,69,0
41579,note_on,,119,0,9,,,,,,,,,,,,,,,7,,,61,0
41579,note_on,,119,0,16,,,,,,,,,,,,,,,15,,,57,0
41579,note_on,,0,0,16,,,,,,,,,,,,,,,15,,,76,0
41579,note_on,,0,0,16,,,,,,,,,,,,,,,15,,,69,0
41579,note_on,,0,0,16,,,,,,,,,,,,,,,15,,,64,0
41579,note_on,,0,0,16,,,,,,,,,,,,,,,15,,,61,0
41579,note_on,,119,0,5,,,,,,,,,,,,,,,0,,,76,0
41579,note_on,,119,0,10,,,,,,,,,,,,,,,8,,,57,0
41579,note_on,,119,0,6,,,,,,,,,,,,,,,1,,,57,0
41580,note_on,,181,0,13,,,,,,,,,,,,,,,11,,,71,72
41580,note_on,,181,0,14,,,,,,,,,,,,,,,12,,,62,72
41580,note_on,,181,0,12,,,,,,,,,,,,,,,10,,,74,72
41594,note_on,,14,0,12,,,,,,,,,,,,,,,10,,,74,0
41594,note_on,,14,0,13,,,,,,,,,,,,,,,11,,,71,0
41595,note_on,,1,0,12,,,,,,,,,,,,,,,10,,,76,72
41595,note_on,,1,0,13,,,,,,,,,,,,,,,11,,,73,72
41609,note_on,,14,0,13,,,,,,,,,,,,,,,11,,,73,0
41609,note_on,,14,0,12,,,,,,,,,,,,,,,10,,,76,0
41610,note_on,,1,0,12,,,,,,,,,,,,,,,10,,,78,72
41610,note_on,,1,0,13,,,,,,,,,,,,,,,11,,,74,72
41639,note_on,,59,0,14,,,,,,,,,,,,,,,12,,,62,0
41639,note_on,,29,0,12,,,,,,,,,,,,,,,10,,,78,0
41639,note_on,,29,0,13,,,,,,,,,,,,,,,11,,,74,0
41640,note_on,,1,0,14,,,,,,,,,,,,,,,12,,,69,72
41640,note_on,,1,0,12,,,,,,,,,,,,,,,10,,,76,72
41640,note_on,,1,0,13,,,,,,,,,,,,,,,11,,,73,72
41669,note_on,,29,0,12,,,,,,,,,,,,,,,10,,,76,0
41669,note_on,,29,0,13,,,,,,,,,,,,,,,11,,,73,0
41670,note_on,,1,0,13,,,,,,,,,,,,,,,11,,,71,72
41670,note_on,,1,0,12,,,,,,,,,,,,,,,10,,,74,72
41699,note_on,,29,0,12,,,,,,,,,,,,,,,10,,,74,0
41699,note_on,,29,0,13,,,,,,,,,,,,,,,11,,,71,0
41700,note_on,,1,0,13,,,,,,,,,,,,,,,11,,,69,72
41700,note_on,,1,0,12,,,,,,,,,,,,,,,10,,,73,72
41759,note_on,,119,0,14,,,,,,,,,,,,,,,12,,,69,0
41759,note_on,,59,0,13,,,,,,,,,,,,,,,11,,,69,0
41759,note_on,,59,0,12,,,,,,,,,,,,,,,10,,,73,0
41760,note_on,,1,0,14,,,,,,,,,,,,,,,12,,,69,72
41760,note_on,,181,0,16,,,,,,,,,,,,,,,15,,,45,72
41760,note_on,,181,0,9,,,,,,,,,,,,,,,7,,,64,72
41760,note_on,,181,0,5,,,,,,,,,,,,,,,0,,,73,72
41760,note_on,,0,0,16,,,,,,,,,,,,,,,15,,,64,72
41760,note_on,,0,0,16,,,,,,,,,,,,,,,15,,,57,72
41760,note_on,,181,0,10,,,,,,,,,,,,,,,8,,,45,72
41760,note_on,,181,0,6,,,,,,,,,,,,,,,1,,,45,72
41760,note_on,,181,0,15,,,,,,,,,,,,,,,13,,,45,72
41760,note_on,,0,0,16,,,,,,,,,,,,,,,15,,,69,72
41760,note_on,,1,0,13,,,,,,,,,,,,,,,11,,,73,72
41760,note_on,,1,0,12,,,,,,,,,,,,,,,10,,,76,72
41760,note_on,,181,0,8,,,,,,,,,,,,,,,6,,,69,72
41760,note_on,,0,0,16,,,,,,,,,,,,,,,15,,,73,72
41760,note_on,,181,0,7,,,,,,,,,,,,,,,5,,,73,72
41774,note_on,,14,0,13,,,,,,,,,,,,,,,11,,,73,0
41774,note_on,,14,0,12,,,,,,,,,,,,,,,10,,,76,0
41775,note_on,,1,0,13,,,,,,,,,,,,,,,11,,,74,72
41775,note_on,,1,0,12,,,,,,,,,,,,,,,10,,,78,72
41789,note_on,,14,0,12,,,,,,,,,,,,,,,10,,,78,0
41789,note_on,,14,0,13,,,,,,,,,,,,,,,11,,,74,0
41790,note_on,,1,0,12,,,,,,,,,,,,,,,10,,,79,72
41790,note_on,,1,0,13,,,,,,,,,,,,,,,11,,,76,72
41819,note_on,,0,0,16,,,,,,,,,,,,,,,15,,,69,0
41819,note_on,,59,0,16,,,,,,,,,,,,,,,15,,,45,0
41819,note_on,,59,0,8,,,,,,,,,,,,,,,6,,,69,0
41819,note_on,,0,0,16,,,,,,,,,,,,,,,15,,,73,0
41819,note_on,,59,0,15,,,,,,,,,,,,,,,13,,,45,0
41819,note_on,,29,0,13,,,,,,,,,,,,,,,11,,,76,0
41819,note_on,,59,0,14,,,,,,,,,,,,,,,12,,,69,0
41819,note_on,,59,0,9,,,,,,,,,,,,,,,7,,,64,0
41819,note_on,,0,0,16,,,,,,,,,,,,,,,15,,,64,0
41819,note_on,,0,0,16,,,,,,,,,,,,,,,15,,,57,0
41819,note_on,,59,0,6,,,,,,,,,,,,,,,1,,,45,0
41819,note_on,,59,0,5,,,,,,,,,,,,,,,0,,,73,0
41819,note_on,,29,0,12,,,,,,,,,,,,,,,10,,,79,0
41819,note_on,,59,0,7,,,,,,,,,,,,,,,5,,,73,0
41819,note_on,,59,0,10,,,,,,,,,,,,,,,8,,,45,0
41820,note_on,,1,0,6,,,,,,,,,,,,,,,1,,,50,72
41820,note_on,,1,0,14,,,,,,,,,,,,,,,12,,,69,72
41820,note_on,,0,0,16,,,,,,,,,,,,,,,15,,,57,72
41820,note_on,,1,0,16,,,,,,,,,,,,,,,15,,,50,72
41820,note_on,,1,0,7,,,,,,,,,,,,,,,5,,,69,72
41820,note_on,,1,0,5,,,,,,,,,,,,,,,0,,,69,72
41820,note_on,,1,0,10,,,,,,,,,,,,,,,8,,,50,72
41820,note_on,,0,0,16,,,,,,,,,,,,,,,15,,,66,72
41820,note_on,,0,0,16,,,,,,,,,,,,,,,15,,,69,72
41820,note_on,,1,0,12,,,,,,,,,,,,,,,10,,,78,72
41820,note_on,,1,0,13,,,,,,,,,,,,,,,11,,,74,72
41820,note_on,,1,0,15,,,,,,,,,,,,,,,13,,,50,72
41820,note_on,,1,0,8,,,,,,,,,,,,,,,6,,,66,72
41820,note_on,,1,0,9,,,,,,,,,,,,,,,7,,,62,72
41820,note_on,,0,0,16,,,,,,,,,,,,,,,15,,,62,72
41849,note_on,,29,0,12,,,,,,,,,,,,,,,10,,,78,0
41850,note_on,,1,0,12,,,,,,,,,,,,,,,10,,,76,72
41879,note_on,,59,0,5,,,,,,,,,,,,,,,0,,,69,0
41879,note_on,,59,0,7,,,,,,,,,,,,,,,5,,,69,0
41879,note_on,,59,0,10,,,,,,,,,,,,,,,8,,,50,0
41879,note_on,,29,0,12,,,,,,,,,,,,,,,10,,,76,0
41879,note_on,,59,0,13,,,,,,,,,,,,,,,11,,,74,0
41879,note_on,,59,0,14,,,,,,,,,,,,,,,12,,,69,0
41879,note_on,,59,0,8,,,,,,,,,,,,,,,6,,,66,0
41879,note_on,,59,0,9,,,,,,,,,,,,,,,7,,,62,0
41880,note_on,,1,0,13,,,,,,,,,,,,,,,11,,,69,72
41880,note_on,,1,0,14,,,,,,,,,,,,,,,12,,,66,72
41880,note_on,,1,0,7,,,,,,,,,,,,,,,5,,,69,72
41880,note_on,,1,0,12,,,,,,,,,,,,,,,10,,,74,72
41880,note_on,,1,0,8,,,,,,,,,,,,,,,6,,,66,72
41880,note_on,,1,0,10,,,,,,,,,,,,,,,8,,,50,72
41880,note_on,,1,0,5,,,,,,,,,,,,,,,0,,,69,72
41880,note_on,,1,0,9,,,,,,,,,,,,,,,7,,,62,72
41909,note_on,,29,0,12,,,,,,,,,,,,,,,10,,,74,0
41909,note_on,,29,0,13,,,,,,,,,,,,,,,11,,,69,0
41910,note_on,,1,0,12,,,,,,,,,,,,,,,10,,,78,72
41910,note_on,,1,0,13,,,,,,,,,,,,,,,11,,,74,72
41939,note_on,,119,0,6,,,,,,,,,,,,,,,1,,,50,0
41939,note_on,,0,0,16,,,,,,,,,,,,,,,15,,,69,0
41939,note_on,,119,0,16,,,,,,,,,,,,,,,15,,,50,0
41939,note_on,,0,0,16,,,,,,,,,,,,,,,15,,,57,0
41939,note_on,,29,0,12,,,,,,,,,,,,,,,10,,,78,0
41939,note_on,,0,0,16,,,,,,,,,,,,,,,15,,,66,0
41939,note_on,,59,0,7,,,,,,,,,,,,,,,5,,,69,0
41939,note_on,,59,0,5,,,,,,,,,,,,,,,0,,,69,0
41939,note_on,,119,0,15,,,,,,,,,,,,,,,13,,,50,0
41939,note_on,,59,0,10,,,,,,,,,,,,,,,8,,,50,0
41939,note_on,,59,0,9,,,,,,,,,,,,,,,7,,,62,0
41939,note_on,,29,0,13,,,,,,,,,,,,,,,11,,,74,0
41939,note_on,,0,0,16,,,,,,,,,,,,,,,15,,,62,0
41939,note_on,,59,0,8,,,,,,,,,,,,,,,6,,,66,0
41939,note_on,,59,0,14,,,,,,,,,,,,,,,12,,,66,0
41940,note_on,,1,0,14,,,,,,,,,,,,,,,12,,,71,72
41940,note_on,,1,0,6,,,,,,,,,,,,,,,1,,,47,72
41940,note_on,,1,0,7,,,,,,,,,,,,,,,5,,,74,72
41940,note_on,,1,0,15,,,,,,,,,,,,,,,13,,,47,72
41940,note_on,,1,0,9,,,,,,,,,,,,,,,7,,,62,72
41940,note_on,,1,0,13,,,,,,,,,,,,,,,11,,,76,72
41940,note_on,,1,0,10,,,,,,,,,,,,,,,8,,,47,72
41940,note_on,,1,0,12,,,,,,,,,,,,,,,10,,,80,72
41940,note_on,,1,0,5,,,,,,,,,,,,,,,0,,,74,72
41940,note_on,,0,0,16,,,,,,,,,,,,,,,15,,,71,72
41940,note_on,,0,0,16,,,,,,,,,,,,,,,15,,,74,72
41940,note_on,,1,0,16,,,,,,,,,,,,,,,15,,,47,72
41940,note_on,,1,0,8,,,,,,,,,,,,,,,6,,,66,72
41940,note_on,,0,0,16,,,,,,,,,,,,,,,15,,,66,72
41940,note_on,,0,0,16,,,,,,,,,,,,,,,15,,,59,72
41969,note_on,,29,0,12,,,,,,,,,,,,,,,10,,,80,0
41969,note_on,,29,0,13,,,,,,,,,,,,,,,11,,,76,0
41970,note_on,,1,0,13,,,,,,,,,,,,,,,11,,,78,72
41970,note_on,,1,0,12,,,,,,,,,,,,,,,10,,,81,72
41999,note_on,,59,0,9,,,,,,,,,,,,,,,7,,,62,0
41999,note_on,,29,0,12,,,,,,,,,,,,,,,10,,,81,0
41999,note_on,,59,0,5,,,,,,,,,,,,,,,0,,,74,0
41999,note_on,,59,0,6,,,,,,,,,,,,,,,1,,,47,0
41999,note_on,,29,0,13,,,,,,,,,,,,,,,11,,,78,0
41999,note_on,,59,0,15,,,,,,,,,,,,,,,13,,,47,0
41999,note_on,,59,0,14,,,,,,,,,,,,,,,12,,,71,0
41999,note_on,,59,0,8,,,,,,,,,,,,,,,6,,,66,0
41999,note_on,,0,0,16,,,,,,,,,,,,,,,15,,,59,0
41999,note_on,,59,0,10,,,,,,,,,,,,,,,8,,,47,0
41999,note_on,,59,0,7,,,,,,,,,,,,,,,5,,,74,0
41999,note_on,,0,0,16,,,,,,,,,,,,,,,15,,,66,0
41999,note_on,,0,0,16,,,,,,,,,,,,,,,15,,,71,0
41999,note_on,,0,0,16,,,,,,,,,,,,,,,15,,,74,0
41999,note_on,,59,0,16,,,,,,,,,,,,,,,15,,,47,0
42000,note_on,,1,0,7,,,,,,,,,,,,,,,5,,,71,72
42000,note_on,,1,0,5,,,,,,,,,,,,,,,0,,,71,72
42000,note_on,,1,0,10,,,,,,,,,,,,,,,8,,,52,72
42000,note_on,,1,0,13,,,,,,,,,,,,,,,11,,,76,72
42000,note_on,,1,0,6,,,,,,,,,,,,,,,1,,,52,72
42000,note_on,,1,0,15,,,,,,,,,,,,,,,13,,,52,72
42000,note_on,,0,0,16,,,,,,,,,,,,,,,15,,,64,72
42000,note_on,,1,0,8,,,,,,,,,,,,,,,6,,,68,72
42000,note_on,,1,0,9,,,,,,,,,,,,,,,7,,,64,72
42000,note_on,,1,0,12,,,,,,,,,,,,,,,10,,,80,72
42000,note_on,,1,0,16,,,,,,,,,,,,,,,15,,,52,72
42000,note_on,,0,0,16,,,,,,,,,,,,,,,15,,,71,72
42000,note_on,,0,0,16,,,,,,,,,,,,,,,15,,,68,72
42000,note_on,,0,0,16,,,,,,,,,,,,,,,15,,,59,72
42000,note_on,,1,0,14,,,,,,,,,,,,,,,12,,,71,72
42029,note_on,,29,0,12,,,,,,,,,,,,,,,10,,,80,0
42030,note_on,,1,0,12,,,,,,,,,,,,,,,10,,,78,72
42059,note_on,,29,0,12,,,,,,,,,,,,,,,10,,,78,0
42059,note_on,,59,0,13,,,,,,,,,,,,,,,11,,,76,0
42059,note_on,,59,0,7,,,,,,,,,,,,,,,5,,,71,0
42059,note_on,,59,0,5,,,,,,,,,,,,,,,0,,,71,0
42059,note_on,,59,0,14,,,,,,,,,,,,,,,12,,,71,0
42059,note_on,,59,0,10,,,,,,,,,,,,,,,8,,,52,0
42059,note_on,,59,0,9,,,,,,,,,,,,,,,7,,,64,0
42059,note_on,,59,0,8,,,,,,,,,,,,,,,6,,,68,0
42060,note_on,,1,0,7,,,,,,,,,,,,,,,5,,,71,72
42060,note_on,,1,0,14,,,,,,,,,,,,,,,12,,,68,72
42060,note_on,,1,0,13,,,,,,,,,,,,,,,11,,,71,72
42060,note_on,,1,0,5,,,,,,,,,,,,,,,0,,,71,72
42060,note_on,,1,0,10,,,,,,,,,,,,,,,8,,,52,72
42060,note_on,,1,0,9,,,,,,,,,,,,,,,7,,,64,72
42060,note_on,,1,0,8,,,,,,,,,,,,,,,6,,,68,72
42060,note_on,,1,0,12,,,,,,,,,,,,,,,10,,,76,72
42089,note_on,,29,0,13,,,,,,,,,,,,,,,11,,,71,0
42089,note_on,,29,0,12,,,,,,,,,,,,,,,10,,,76,0
42090,note_on,,1,0,13,,,,,,,,,,,,,,,11,,,76,72
42090,note_on,,1,0,12,,,,,,,,,,,,,,,10,,,80,72
42119,note_on,,0,0,16,,,,,,,,,,,,,,,15,,,64,0
42119,note_on,,0,0,16,,,,,,,,,,,,,,,15,,,71,0
42119,note_on,,0,0,16,,,,,,,,,,,,,,,15,,,68,0
42119,note_on,,119,0,15,,,,,,,,,,,,,,,13,,,52,0
42119,note_on,,59,0,9,,,,,,,,,,,,,,,7,,,64,0
42119,note_on,,59,0,5,,,,,,,,,,,,,,,0,,,71,0
42119,note_on,,119,0,6,,,,,,,,,,,,,,,1,,,52,0
42119,note_on,,119,0,16,,,,,,,,,,,,,,,15,,,52,0
42119,note_on,,0,0,16,,,,,,,,,,,,,,,15,,,59,0
42119,note_on,,59,0,8,,,,,,,,,,,,,,,6,,,68,0
42119,note_on,,29,0,13,,,,,,,,,,,,,,,11,,,76,0
42119,note_on,,29,0,12,,,,,,,,,,,,,,,10,,,80,0
42119,note_on,,59,0,14,,,,,,,,,,,,,,,12,,,68,0
42119,note_on,,59,0,7,,,,,,,,,,,,,,,5,,,71,0
42119,note_on,,59,0,10,,,,,,,,,,,,,,,8,,,52,0
42120,note_on,,1,0,15,,,,,,,,,,,,,,,13,,,49,72
42120,note_on,,1,0,8,,,,,,,,,,,,,,,6,,,68,72
42120,note_on,,1,0,13,,,,,,,,,,,,,,,11,,,78,72
42120,note_on,,0,0,16,,,,,,,,,,,,,,,15,,,68,72
42120,note_on,,1,0,9,,,,,,,,,,,,,,,7,,,64,72
42120,note_on,,1,0,5,,,,,,,,,,,,,,,0,,,76,72
42120,note_on,,1,0,16,,,,,,,,,,,,,,,15,,,49,72
42120,note_on,,0,0,16,,,,,,,,,,,,,,,15,,,76,72
42120,note_on,,1,0,12,,,,,,,,,,,,,,,10,,,81,72
42120,note_on,,0,0,16,,,,,,,,,,,,,,,15,,,61,72
42120,note_on,,0,0,16,,,,,,,,,,,,,,,15,,,73,72
42120,note_on,,1,0,7,,,,,,,,,,,,,,,5,,,76,72
42120,note_on,,1,0,14,,,,,,,,,,,,,,,12,,,73,72
42120,note_on,,1,0,10,,,,,,,,,,,,,,,8,,,49,72
42120,note_on,,1,0,6,,,,,,,,,,,,,,,1,,,49,72
42149,note_on,,29,0,13,,,,,,,,,,,,,,,11,,,78,0
42149,note_on,,29,0,12,,,,,,,,,,,,,,,10,,,81,0
42150,note_on,,1,0,12,,,,,,,,,,,,,,,10,,,83,72
42150,note_on,,1,0,13,,,,,,,,,,,,,,,11,,,80,72
42179,note_on,,29,0,12,,,,,,,,,,,,,,,10,,,83,0
42179,note_on,,59,0,15,,,,,,,,,,,,,,,13,,,49,0
42179,note_on,,0,0,16,,,,,,,,,,,,,,,15,,,61,0
42179,note_on,,0,0,16,,,,,,,,,,,,,,,15,,,68,0
42179,note_on,,0,0,16,,,,,,,,,,,,,,,15,,,73,0
42179,note_on,,0,0,16,,,,,,,,,,,,,,,15,,,76,0
42179,note_on,,59,0,7,,,,,,,,,,,,,,,5,,,76,0
42179,note_on,,59,0,8,,,,,,,,,,,,,,,6,,,68,0
42179,note_on,,59,0,16,,,,,,,,,,,,,,,15,,,49,0
42179,note_on,,59,0,14,,,,,,,,,,,,,,,12,,,73,0
42179,note_on,,59,0,6,,,,,,,,,,,,,,,1,,,49,0
42179,note_on,,59,0,5,,,,,,,,,,,,,,,0,,,76,0
42179,note_on,,59,0,9,,,,,,,,,,,,,,,7,,,64,0
42179,note_on,,59,0,10,,,,,,,,,,,,,,,8,,,49,0
42179,note_on,,29,0,13,,,,,,,,,,,,,,,11,,,80,0
42180,note_on,,1,0,13,,,,,,,,,,,,,,,11,,,78,72
42180,note_on,,1,0,14,,,,,,,,,,,,,,,12,,,73,72
42180,note_on,,0,0,16,,,,,,,,,,,,,,,15,,,61,72
42180,note_on,,1,0,10,,,,,,,,,,,,,,,8,,,54,72
42180,note_on,,0,0,16,,,,,,,,,,,,,,,15,,,73,72
42180,note_on,,0,0,16,,,,,,,,,,,,,,,15,,,69,72
42180,note_on,,1,0,16,,,,,,,,,,,,,,,15,,,54,72
42180,note_on,,1,0,9,,,,,,,,,,,,,,,7,,,66,72
42180,note_on,,1,0,5,,,,,,,,,,,,,,,0,,,73,72
42180,note_on,,1,0,6,,,,,,,,,,,,,,,1,,,54,72
42180,note_on,,0,0,16,,,,,,,,,,,,,,,15,,,66,72
42180,note_on,,1,0,8,,,,,,,,,,,,,,,6,,,69,72
42180,note_on,,1,0,7,,,,,,,,,,,,,,,5,,,73,72
42180,note_on,,1,0,12,,,,,,,,,,,,,,,10,,,81,72
42180,note_on,,1,0,15,,,,,,,,,,,,,,,13,,,54,72
42209,note_on,,29,0,12,,,,,,,,,,,,,,,10,,,81,0
42210,note_on,,1,0,12,,,,,,,,,,,,,,,10,,,80,72
42239,note_on,,59,0,13,,,,,,,,,,,,,,,11,,,78,0
42239,note_on,,59,0,5,,,,,,,,,,,,,,,0,,,73,0
42239,note_on,,59,0,9,,,,,,,,,,,,,,,7,,,66,0
42239,note_on,,29,0,12,,,,,,,,,,,,,,,10,,,80,0
42239,note_on,,59,0,8,,,,,,,,,,,,,,,6,,,69,0
42239,note_on,,59,0,14,,,,,,,,,,,,,,,12,,,73,0
42239,note_on,,59,0,7,,,,,,,,,,,,,,,5,,,73,0
42239,note_on,,59,0,10,,,,,,,,,,,,,,,8,,,54,0
42240,note_on,,1,0,12,,,,,,,,,,,,,,,10,,,78,72
42240,note_on,,1,0,5,,,,,,,,,,,,,,,0,,,73,72
42240,note_on,,1,0,13,,,,,,,,,,,,,,,11,,,73,72
42240,note_on,,1,0,10,,,,,,,,,,,,,,,8,,,54,72
42240,note_on,,1,0,8,,,,,,,,,,,,,,,6,,,69,72
42240,note_on,,1,0,9,,,,,,,,,,,,,,,7,,,66,72
42240,note_on,,1,0,7,,,,,,,,,,,,,,,5,,,73,72
42240,note_on,,1,0,14,,,,,,,,,,,,,,,12,,,69,72
42269,note_on,,29,0,12,,,,,,,,,,,,,,,10,,,78,0
42269,note_on,,29,0,13,,,,,,,,,,,,,,,11,,,73,0
42270,note_on,,1,0,12,,,,,,,,,,,,,,,10,,,81,72
42270,note_on,,1,0,13,,,,,,,,,,,,,,,11,,,78,72
42299,note_on,,119,0,16,,,,,,,,,,,,,,,15,,,54,0
42299,note_on,,0,0,16,,,,,,,,,,,,,,,15,,,73,0
42299,note_on,,0,0,16,,,,,,,,,,,,,,,15,,,69,0
42299,note_on,,119,0,15,,,,,,,,,,,,,,,13,,,54,0
42299,note_on,,119,0,6,,,,,,,,,,,,,,,1,,,54,0
42299,note_on,,0,0,16,,,,,,,,,,,,,,,15,,,66,0
42299,note_on,,59,0,9,,,,,,,,,,,,,,,7,,,66,0
42299,note_on,,59,0,10,,,,,,,,,,,,,,,8,,,54,0
42299,note_on,,59,0,7,,,,,,,,,,,,,,,5,,,73,0
42299,note_on,,59,0,14,,,,,,,,,,,,,,,12,,,69,0
42299,note_on,,59,0,5,,,,,,,,,,,,,,,0,,,73,0
42299,note_on,,29,0,13,,,,,,,,,,,,,,,11,,,78,0
42299,note_on,,0,0,16,,,,,,,,,,,,,,,15,,,61,0
42299,note_on,,59,0,8,,,,,,,,,,,,,,,6,,,69,0
42299,note_on,,29,0,12,,,,,,,,,,,,,,,10,,,81,0
42300,note_on,,0,0,16,,,,,,,,,,,,,,,15,,,57,72
42300,note_on,,1,0,9,,,,,,,,,,,,,,,7,,,66,72
42300,note_on,,1,0,6,,,,,,,,,,,,,,,1,,,54,72
42300,note_on,,1,0,16,,,,,,,,,,,,,,,15,,,54,72
42300,note_on,,0,0,16,,,,,,,,,,,,,,,15,,,78,72
42300,note_on,,0,0,16,,,,,,,,,,,,,,,15,,,73,72
42300,note_on,,0,0,16,,,,,,,,,,,,,,,15,,,69,72
42300,note_on,,1,0,8,,,,,,,,,,,,,,,6,,,69,72
42300,note_on,,1,0,15,,,,,,,,,,,,,,,13,,,54,72
42300,note_on,,1,0,10,,,,,,,,,,,,,,,8,,,54,72
42300,note_on,,1,0,12,,,,,,,,,,,,,,,10,,,83,72
42300,note_on,,1,0,7,,,,,,,,,,,,,,,5,,,73,72
42300,note_on,,1,0,14,,,,,,,,,,,,,,,12,,,66,72
42300,note_on,,1,0,5,,,,,,,,,,,,,,,0,,,73,72
42300,note_on,,1,0,13,,,,,,,,,,,,,,,11,,,80,72
42329,note_on,,29,0,12,,,,,,,,,,,,,,,10,,,83,0
42329,note_on,,29,0,13,,,,,,,,,,,,,,,11,,,80,0
42330,note_on,,1,0,12,,,,,,,,,,,,,,,10,,,85,72
42330,note_on,,1,0,13,,,,,,,,,,,,,,,11,,,81,72
42359,note_on,,0,0,16,,,,,,,,,,,,,,,15,,,57,0
42359,note_on,,59,0,15,,,,,,,,,,,,,,,13,,,54,0
42359,note_on,,59,0,14,,,,,,,,,,,,,,,12,,,66,0
42359,note_on,,59,0,6,,,,,,,,,,,,,,,1,,,54,0
42359,note_on,,0,0,16,,,,,,,,,,,,,,,15,,,73,0
42359,note_on,,59,0,9,,,,,,,,,,,,,,,7,,,66,0
42359,note_on,,0,0,16,,,,,,,,,,,,,,,15,,,69,0
42359,note_on,,29,0,13,,,,,,,,,,,,,,,11,,,81,0
42359,note_on,,59,0,8,,,,,,,,,,,,,,,6,,,69,0
42359,note_on,,59,0,5,,,,,,,,,,,,,,,0,,,73,0
42359,note_on,,59,0,7,,,,,,,,,,,,,,,5,,,73,0
42359,note_on,,59,0,10,,,,,,,,,,,,,,,8,,,54,0
42359,note_on,,0,0,16,,,,,,,,,,,,,,,15,,,78,0
42359,note_on,,59,0,16,,,,,,,,,,,,,,,15,,,54,0
42359,note_on,,29,0,12,,,,,,,,,,,,,,,10,,,85,0
42360,note_on,,1,0,15,,,,,,,,,,,,,,,13,,,56,72
42360,note_on,,1,0,5,,,,,,,,,,,,,,,0,,,76,72
42360,note_on,,1,0,13,,,,,,,,,,,,,,,11,,,76,72
42360,note_on,,1,0,16,,,,,,,,,,,,,,,15,,,56,72
42360,note_on,,1,0,10,,,,,,,,,,,,,,,8,,,56,72
42360,note_on,,1,0,6,,,,,,,,,,,,,,,1,,,56,72
42360,note_on,,1,0,14,,,,,,,,,,,,,,,12,,,71,72
42360,note_on,,1,0,8,,,,,,,,,,,,,,,6,,,64,72
42360,note_on,,0,0,16,,,,,,,,,,,,,,,15,,,76,72
42360,note_on,,0,0,16,,,,,,,,,,,,,,,15,,,71,72
42360,note_on,,1,0,7,,,,,,,,,,,,,,,5,,,76,72
42360,note_on,,1,0,12,,,,,,,,,,,,,,,10,,,83,72
42360,note_on,,0,0,16,,,,,,,,,,,,,,,15,,,64,72
42360,note_on,,0,0,16,,,,,,,,,,,,,,,15,,,59,72
42360,note_on,,1,0,9,,,,,,,,,,,,,,,7,,,59,72
42389,note_on,,29,0,12,,,,,,,,,,,,,,,10,,,83,0
42390,note_on,,1,0,12,,,,,,,,,,,,,,,10,,,81,72
42419,note_on,,59,0,14,,,,,,,,,,,,,,,12,,,71,0
42419,note_on,,59,0,13,,,,,,,,,,,,,,,11,,,76,0
42419,note_on,,29,0,12,,,,,,,,,,,,,,,10,,,81,0
42420,note_on,,1,0,12,,,,,,,,,,,,,,,10,,,80,72
42420,note_on,,1,0,13,,,,,,,,,,,,,,,11,,,71,72
42420,note_on,,1,0,14,,,,,,,,,,,,,,,12,,,64,72
42449,note_on,,29,0,13,,,,,,,,,,,,,,,11,,,71,0
42449,note_on,,29,0,12,,,,,,,,,,,,,,,10,,,80,0
42450,note_on,,1,0,13,,,,,,,,,,,,,,,11,,,80,72
42450,note_on,,1,0,12,,,,,,,,,,,,,,,10,,,83,72
42479,note_on,,0,0,16,,,,,,,,,,,,,,,15,,,64,0
42479,note_on,,119,0,15,,,,,,,,,,,,,,,13,,,56,0
42479,note_on,,119,0,9,,,,,,,,,,,,,,,7,,,59,0
42479,note_on,,119,0,7,,,,,,,,,,,,,,,5,,,76,0
42479,note_on,,119,0,8,,,,,,,,,,,,,,,6,,,64,0
42479,note_on,,59,0,14,,,,,,,,,,,,,,,12,,,64,0
42479,note_on,,0,0,16,,,,,,,,,,,,,,,15,,,59,0
42479,note_on,,0,0,16,,,,,,,,,,,,,,,15,,,71,0
42479,note_on,,119,0,16,,,,,,,,,,,,,,,15,,,56,0
42479,note_on,,119,0,5,,,,,,,,,,,,,,,0,,,76,0
42479,note_on,,119,0,10,,,,,,,,,,,,,,,8,,,56,0
42479,note_on,,0,0,16,,,,,,,,,,,,,,,15,,,76,0
42479,note_on,,29,0,12,,,,,,,,,,,,,,,10,,,83,0
42479,note_on,,29,0,13,,,,,,,,,,,,,,,11,,,80,0
42479,note_on,,119,0,6,,,,,,,,,,,,,,,1,,,56,0
42480,note_on,,1,0,9,,,,,,,,,,,,,,,7,,,59,72
42480,note_on,,0,0,16,,,,,,,,,,,,,,,15,,,71,72
42480,note_on,,1,0,13,,,,,,,,,,,,,,,11,,,81,72
42480,note_on,,1,0,14,,,,,,,,,,,,,,,12,,,64,72
42480,note_on,,0,0,16,,,,,,,,,,,,,,,15,,,62,72
42480,note_on,,1,0,16,,,,,,,,,,,,,,,15,,,56,72
42480,note_on,,0,0,16,,,,,,,,,,,,,,,15,,,64,72
42480,note_on,,1,0,10,,,,,,,,,,,,,,,8,,,56,72
42480,note_on,,1,0,15,,,,,,,,,,,,,,,13,,,56,72
42480,note_on,,1,0,12,,,,,,,,,,,,,,,10,,,85,72
42480,note_on,,1,0,6,,,,,,,,,,,,,,,1,,,56,72
42480,note_on,,1,0,5,,,,,,,,,,,,,,,0,,,76,72
42480,note_on,,1,0,7,,,,,,,,,,,,,,,5,,,76,72
42480,note_on,,1,0,8,,,,,,,,,,,,,,,6,,,64,72
42509,note_on,,29,0,12,,,,,,,,,,,,,,,10,,,85,0
42509,note_on,,29,0,13,,,,,,,,,,,,,,,11,,,81,0
42510,note_on,,1,0,13,,,,,,,,,,,,,,,11,,,83,72
42510,note_on,,1,0,12,,,,,,,,,,,,,,,10,,,86,72
42539,note_on,,59,0,15,,,,,,,,,,,,,,,13,,,56,0
42539,note_on,,59,0,6,,,,,,,,,,,,,,,1,,,56,0
42539,note_on,,59,0,16,,,,,,,,,,,,,,,15,,,56,0
42539,note_on,,59,0,9,,,,,,,,,,,,,,,7,,,59,0
42539,note_on,,59,0,10,,,,,,,,,,,,,,,8,,,56,0
42539,note_on,,59,0,8,,,,,,,,,,,,,,,6,,,64,0
42539,note_on,,0,0,16,,,,,,,,,,,,,,,15,,,71,0
42539,note_on,,0,0,16,,,,,,,,,,,,,,,15,,,64,0
42539,note_on,,0,0,16,,,,,,,,,,,,,,,15,,,62,0
42539,note_on,,59,0,14,,,,,,,,,,,,,,,12,,,64,0
42539,note_on,,59,0,7,,,,,,,,,,,,,,,5,,,76,0
42539,note_on,,29,0,13,,,,,,,,,,,,,,,11,,,83,0
42539,note_on,,59,0,5,,,,,,,,,,,,,,,0,,,76,0
42539,note_on,,29,0,12,,,,,,,,,,,,,,,10,,,86,0
42540,note_on,,1,0,7,,,,,,,,,,,,,,,5,,,76,72
42540,note_on,,1,0,5,,,,,,,,,,,,,,,0,,,76,72
42540,note_on,,1,0,12,,,,,,,,,,,,,,,10,,,85,72
42540,note_on,,1,0,16,,,,,,,,,,,,,,,15,,,57,72
42540,note_on,,0,0,16,,,,,,,,,,,,,,,15,,,73,72
42540,note_on,,1,0,10,,,,,,,,,,,,,,,8,,,57,72
42540,note_on,,1,0,9,,,,,,,,,,,,,,,7,,,61,72
42540,note_on,,1,0,15,,,,,,,,,,,,,,,13,,,57,72
42540,note_on,,0,0,16,,,,,,,,,,,,,,,15,,,69,72
42540,note_on,,0,0,16,,,,,,,,,,,,,,,15,,,64,72
42540,note_on,,0,0,16,,,,,,,,,,,,,,,15,,,61,72
42540,note_on,,1,0,14,,,,,,,,,,,,,,,12,,,64,72
42540,note_on,,1,0,6,,,,,,,,,,,,,,,1,,,57,72
42540,note_on,,1,0,8,,,,,,,,,,,,,,,6,,,64,72
42540,note_on,,1,0,13,,,,,,,,,,,,,,,11,,,81,72
42569,note_on,,29,0,12,,,,,,,,,,,,,,,10,,,85,0
42570,note_on,,1,0,12,,,,,,,,,,,,,,,10,,,83,72
42599,note_on,,29,0,12,,,,,,,,,,,,,,,10,,,83,0
42599,note_on,,59,0,13,,,,,,,,,,,,,,,11,,,81,0
42600,note_on,,1,0,12,,,,,,,,,,,,,,,10,,,81,72
42600,note_on,,1,0,13,,,,,,,,,,,,,,,11,,,76,72
42659,note_on,,119,0,16,,,,,,,,,,,,,,,15,,,57,0
42659,note_on,,0,0,16,,,,,,,,,,,,,,,15,,,73,0
42659,note_on,,0,0,16,,,,,,,,,,,,,,,15,,,69,0
42659,note_on,,0,0,16,,,,,,,,,,,,,,,15,,,64,0
42659,note_on,,0,0,16,,,,,,,,,,,,,,,15,,,61,0
42659,note_on,,59,0,13,,,,,,,,,,,,,,,11,,,76,0
42659,note_on,,119,0,6,,,,,,,,,,,,,,,1,,,57,0
42659,note_on,,119,0,14,,,,,,,,,,,,,,,12,,,64,0
42659,note_on,,119,0,9,,,,,,,,,,,,,,,7,,,61,0
42659,note_on,,59,0,12,,,,,,,,,,,,,,,10,,,81,0
42659,note_on,,119,0,15,,,,,,,,,,,,,,,13,,,57,0
42659,note_on,,119,0,10,,,,,,,,,,,,,,,8,,,57,0
42659,note_on,,119,0,7,,,,,,,,,,,,,,,5,,,76,0
42659,note_on,,119,0,8,,,,,,,,,,,,,,,6,,,64,0
42659,note_on,,119,0,5,,,,,,,,,,,,,,,0,,,76,0
42660,note_on,,1,0,13,,,,,,,,,,,,,,,11,,,80,72
42660,note_on,,1,0,12,,,,,,,,,,,,,,,10,,,83,72
42660,note_on,,1,0,14,,,,,,,,,,,,,,,12,,,64,72
42674,note_on,,14,0,12,,,,,,,,,,,,,,,10,,,83,0
42674,note_on,,14,0,13,,,,,,,,,,,,,,,11,,,80,0
42675,note_on,,1,0,13,,,,,,,,,,,,,,,11,,,81,72
42675,note_on,,1,0,12,,,,,,,,,,,,,,,10,,,85,72
42689,note_on,,14,0,12,,,,,,,,,,,,,,,10,,,85,0
42689,note_on,,14,0,13,,,,,,,,,,,,,,,11,,,81,0
42690,note_on,,1,0,12,,,,,,,,,,,,,,,10,,,86,72
42690,note_on,,1,0,13,,,,,,,,,,,,,,,11,,,83,72
42719,note_on,,29,0,13,,,,,,,,,,,,,,,11,,,83,0
42719,note_on,,29,0,12,,,,,,,,,,,,,,,10,,,86,0
42719,note_on,,59,0,14,,,,,,,,,,,,,,,12,,,64,0
42720,note_on,,1,0,14,,,,,,,,,,,,,,,12,,,69,72
42720,note_on,,1,0,13,,,,,,,,,,,,,,,11,,,81,72
42720,note_on,,1,0,12,,,,,,,,,,,,,,,10,,,85,72
42749,note_on,,29,0,12,,,,,,,,,,,,,,,10,,,85,0
42750,note_on,,1,0,12,,,,,,,,,,,,,,,10,,,83,72
42779,note_on,,59,0,13,,,,,,,,,,,,,,,11,,,81,0
42779,note_on,,29,0,12,,,,,,,,,,,,,,,10,,,83,0
42780,note_on,,1,0,12,,,,,,,,,,,,,,,10,,,81,72
42780,note_on,,1,0,13,,,,,,,,,,,,,,,11,,,76,72
42839,note_on,,59,0,12,,,,,,,,,,,,,,,10,,,81,0
42839,note_on,,119,0,14,,,,,,,,,,,,,,,12,,,69,0
42839,note_on,,59,0,13,,,,,,,,,,,,,,,11,,,76,0
42840,note_on,,0,0,16,,,,,,,,,,,,,,,15,,,64,72
42840,note_on,,0,0,16,,,,,,,,,,,,,,,15,,,68,72
42840,note_on,,181,0,15,,,,,,,,,,,,,,,13,,,52,72
42840,note_on,,0,0,16,,,,,,,,,,,,,,,15,,,59,72
42840,note_on,,181,0,5,,,,,,,,,,,,,,,0,,,71,72
42840,note_on,,181,0,6,,,,,,,,,,,,,,,1,,,52,72
42840,note_on,,181,0,10,,,,,,,,,,,,,,,8,,,52,72
42840,note_on,,181,0,16,,,,,,,,,,,,,,,15,,,52,72
42840,note_on,,181,0,9,,,,,,,,,,,,,,,7,,,64,72
42840,note_on,,181,0,8,,,,,,,,,,,,,,,6,,,68,72
42840,note_on,,0,0,16,,,,,,,,,,,,,,,15,,,76,72
42840,note_on,,0,0,16,,,,,,,,,,,,,,,15,,,71,72
42840,note_on,,181,0,7,,,,,,,,,,,,,,,5,,,71,72
42854,note_on,,14,0,5,,,,,,,,,,,,,,,0,,,71,0
42854,note_on,,14,0,7,,,,,,,,,,,,,,,5,,,71,0
42854,note_on,,14,0,8,,,,,,,,,,,,,,,6,,,68,0
42855,note_on,,1,0,5,,,,,,,,,,,,,,,0,,,73,72
42855,note_on,,1,0,7,,,,,,,,,,,,,,,5,,,73,72
42855,note_on,,1,0,8,,,,,,,,,,,,,,,6,,,69,72
42869,note_on,,14,0,5,,,,,,,,,,,,,,,0,,,73,0
42869,note_on,,14,0,7,,,,,,,,,,,,,,,5,,,73,0
42869,note_on,,14,0,8,,,,,,,,,,,,,,,6,,,69,0
42870,note_on,,1,0,7,,,,,,,,,,,,,,,5,,,74,72
42870,note_on,,1,0,5,,,,,,,,,,,,,,,0,,,74,72
42870,note_on,,1,0,8,,,,,,,,,,,,,,,6,,,71,72
42899,note_on,,29,0,7,,,,,,,,,,,,,,,5,,,74,0
42899,note_on,,59,0,15,,,,,,,,,,,,,,,13,,,52,0
42899,note_on,,59,0,16,,,,,,,,,,,,,,,15,,,52,0
42899,note_on,,0,0,16,,,,,,,,,,,,,,,15,,,76,0
42899,note_on,,0,0,16,,,,,,,,,,,,,,,15,,,71,0
42899,note_on,,0,0,16,,,,,,,,,,,,,,,15,,,68,0
42899,note_on,,29,0,5,,,,,,,,,,,,,,,0,,,74,0
42899,note_on,,0,0,16,,,,,,,,,,,,,,,15,,,64,0
42899,note_on,,0,0,16,,,,,,,,,,,,,,,15,,,59,0
42899,note_on,,59,0,9,,,,,,,,,,,,,,,7,,,64,0
42899,note_on,,59,0,10,,,,,,,,,,,,,,,8,,,52,0
42899,note_on,,59,0,6,,,,,,,,,,,,,,,1,,,52,0
42899,note_on,,29,0,8,,,,,,,,,,,,,,,6,,,71,0
42900,note_on,,0,0,16,,,,,,,,,,,,,,,15,,,73,72
42900,note_on,,1,0,8,,,,,,,,,,,,,,,6,,,69,72
42900,note_on,,0,0,16,,,,,,,,,,,,,,,15,,,69,72
42900,note_on,,0,0,16,,,,,,,,,,,,,,,15,,,64,72
42900,note_on,,0,0,16,,,,,,,,,,,,,,,15,,,61,72
42900,note_on,,1,0,16,,,,,,,,,,,,,,,15,,,57,72
42900,note_on,,1,0,7,,,,,,,,,,,,,,,5,,,73,72
42900,note_on,,1,0,10,,,,,,,,,,,,,,,8,,,57,72
42900,note_on,,1,0,15,,,,,,,,,,,,,,,13,,,57,72
42900,note_on,,1,0,9,,,,,,,,,,,,,,,7,,,64,72
42900,note_on,,1,0,6,,,,,,,,,,,,,,,1,,,57,72
42900,note_on,,1,0,5,,,,,,,,,,,,,,,0,,,73,72
43019,note_on,,119,0,8,,,,,,,,,,,,,,,6,,,69,0
43019,note_on,,0,0,16,,,,,,,,,,,,,,,15,,,73,0
43019,note_on,,119,0,16,,,,,,,,,,,,,,,15,,,57,0
43019,note_on,,119,0,10,,,,,,,,,,,,,,,8,,,57,0
43019,note_on,,119,0,9,,,,,,,,,,,,,,,7,,,64,0
43019,note_on,,0,0,16,,,,,,,,,,,,,,,15,,,61,0
43019,note_on,,119,0,5,,,,,,,,,,,,,,,0,,,73,0
43019,note_on,,119,0,6,,,,,,,,,,,,,,,1,,,57,0
43019,note_on,,0,0,16,,,,,,,,,,,,,,,15,,,69,0
43019,note_on,,119,0,15,,,,,,,,,,,,,,,13,,,57,0
43019,note_on,,119,0,7,,,,,,,,,,,,,,,5,,,73,0
43019,note_on,,0,0,16,,,,,,,,,,,,,,,15,,,64,0
43020,note_on,,181,0,12,,,,,,,,,,,,,,,10,,,74,72
43020,note_on,,181,0,13,,,,,,,,,,,,,,,11,,,71,72
43020,note_on,,181,0,14,,,,,,,,,,,,,,,12,,,62,72
43034,note_on,,14,0,12,,,,,,,,,,,,,,,10,,,74,0
43034,note_on,,14,0,13,,,,,,,,,,,,,,,11,,,71,0
43035,note_on,,1,0,13,,,,,,,,,,,,,,,11,,,73,72
43035,note_on,,1,0,12,,,,,,,,,,,,,,,10,,,76,72
43049,note_on,,14,0,13,,,,,,,,,,,,,,,11,,,73,0
43049,note_on,,14,0,12,,,,,,,,,,,,,,,10,,,76,0
43050,note_on,,1,0,12,,,,,,,,,,,,,,,10,,,78,72
43050,note_on,,1,0,13,,,,,,,,,,,,,,,11,,,74,72
43079,note_on,,29,0,13,,,,,,,,,,,,,,,11,,,74,0
43079,note_on,,29,0,12,,,,,,,,,,,,,,,10,,,78,0
43079,note_on,,59,0,14,,,,,,,,,,,,,,,12,,,62,0
43080,note_on,,1,0,13,,,,,,,,,,,,,,,11,,,73,72
43080,note_on,,1,0,12,,,,,,,,,,,,,,,10,,,76,72
43080,note_on,,1,0,14,,,,,,,,,,,,,,,12,,,69,72
43109,note_on,,29,0,13,,,,,,,,,,,,,,,11,,,73,0
43109,note_on,,29,0,12,,,,,,,,,,,,,,,10,,,76,0
43110,note_on,,1,0,13,,,,,,,,,,,,,,,11,,,71,72
43110,note_on,,1,0,12,,,,,,,,,,,,,,,10,,,74,72
43139,note_on,,29,0,13,,,,,,,,,,,,,,,11,,,71,0
43139,note_on,,29,0,12,,,,,,,,,,,,,,,10,,,74,0
43140,note_on,,1,0,12,,,,,,,,,,,,,,,10,,,73,72
43140,note_on,,1,0,13,,,,,,,,,,,,,,,11,,,69,72
43199,note_on,,119,0,14,,,,,,,,,,,,,,,12,,,69,0
43199,note_on,,59,0,13,,,,,,,,,,,,,,,11,,,69,0
43199,note_on,,59,0,12,,,,,,,,,,,,,,,10,,,73,0
43200,note_on,,1,0,13,,,,,,,,,,,,,,,11,,,76,72
43200,note_on,,181,0,9,,,,,,,,,,,,,,,7,,,64,72
43200,note_on,,181,0,5,,,,,,,,,,,,,,,0,,,76,72
43200,note_on,,181,0,16,,,,,,,,,,,,,,,15,,,61,72
43200,note_on,,181,0,6,,,,,,,,,,,,,,,1,,,61,72
43200,note_on,,181,0,15,,,,,,,,,,,,,,,13,,,61,72
43200,note_on,,181,0,7,,,,,,,,,,,,,,,5,,,76,72
43200,note_on,,181,0,8,,,,,,,,,,,,,,,6,,,69,72
43200,note_on,,1,0,14,,,,,,,,,,,,,,,12,,,69,72
43200,note_on,,0,0,16,,,,,,,,,,,,,,,15,,,64,72
43200,note_on,,0,0,16,,,,,,,,,,,,,,,15,,,69,72
43200,note_on,,0,0,16,,,,,,,,,,,,,,,15,,,76,72
43200,note_on,,1,0,12,,,,,,,,,,,,,,,10,,,81,72
43200,note_on,,181,0,10,,,,,,,,,,,,,,,8,,,61,72
43259,note_on,,59,0,6,,,,,,,,,,,,,,,1,,,61,0
43259,note_on,,59,0,10,,,,,,,,,,,,,,,8,,,61,0
43259,note_on,,59,0,14,,,,,,,,,,,,,,,12,,,69,0
43259,note_on,,59,0,13,,,,,,,,,,,,,,,11,,,76,0
43259,note_on,,0,0,16,,,,,,,,,,,,,,,15,,,76,0
43259,note_on,,59,0,9,,,,,,,,,,,,,,,7,,,64,0
43259,note_on,,59,0,5,,,,,,,,,,,,,,,0,,,76,0
43259,note_on,,59,0,12,,,,,,,,,,,,,,,10,,,81,0
43259,note_on,,59,0,15,,,,,,,,,,,,,,,13,,,61,0
43259,note_on,,59,0,7,,,,,,,,,,,,,,,5,,,76,0
43259,note_on,,59,0,8,,,,,,,,,,,,,,,6,,,69,0
43259,note_on,,59,0,16,,,,,,,,,,,,,,,15,,,61,0
43259,note_on,,0,0,16,,,,,,,,,,,,,,,15,,,69,0
43259,note_on,,0,0,16,,,,,,,,,,,,,,,15,,,64,0
43260,note_on,,1,0,9,,,,,,,,,,,,,,,7,,,66,72
43260,note_on,,1,0,12,,,,,,,,,,,,,,,10,,,81,72
43260,note_on,,1,0,15,,,,,,,,,,,,,,,13,,,62,72
43260,note_on,,1,0,7,,,,,,,,,,,,,,,5,,,74,72
43260,note_on,,1,0,14,,,,,,,,,,,,,,,12,,,69,72
43260,note_on,,1,0,16,,,,,,,,,,,,,,,15,,,62,72
43260,note_on,,1,0,10,,,,,,,,,,,,,,,8,,,62,72
43260,note_on,,0,0,16,,,,,,,,,,,,,,,15,,,69,72
43260,note_on,,1,0,5,,,,,,,,,,,,,,,0,,,74,72
43260,note_on,,1,0,8,,,,,,,,,,,,,,,6,,,69,72
43260,note_on,,0,0,16,,,,,,,,,,,,,,,15,,,74,72
43260,note_on,,1,0,6,,,,,,,,,,,,,,,1,,,62,72
43260,note_on,,1,0,13,,,,,,,,,,,,,,,11,,,78,72
43260,note_on,,0,0,16,,,,,,,,,,,,,,,15,,,66,72
43289,note_on,,29,0,13,,,,,,,,,,,,,,,11,,,78,0
43289,note_on,,29,0,9,,,,,,,,,,,,,,,7,,,66,0
43289,note_on,,29,0,10,,,,,,,,,,,,,,,8,,,62,0
43289,note_on,,29,0,5,,,,,,,,,,,,,,,0,,,74,0
43289,note_on,,29,0,6,,,,,,,,,,,,,,,1,,,62,0
43289,note_on,,29,0,16,,,,,,,,,,,,,,,15,,,62,0
43289,note_on,,0,0,16,,,,,,,,,,,,,,,15,,,66,0
43289,note_on,,29,0,7,,,,,,,,,,,,,,,5,,,74,0
43289,note_on,,29,0,15,,,,,,,,,,,,,,,13,,,62,0
43290,note_on,,1,0,6,,,,,,,,,,,,,,,1,,,61,72
43290,note_on,,1,0,16,,,,,,,,,,,,,,,15,,,61,72
43290,note_on,,0,0,16,,,,,,,,,,,,,,,15,,,64,72
43290,note_on,,1,0,15,,,,,,,,,,,,,,,13,,,61,72
43290,note_on,,1,0,7,,,,,,,,,,,,,,,5,,,76,72
43290,note_on,,1,0,9,,,,,,,,,,,,,,,7,,,64,72
43290,note_on,,1,0,10,,,,,,,,,,,,,,,8,,,61,72
43290,note_on,,1,0,13,,,,,,,,,,,,,,,11,,,76,72
43290,note_on,,1,0,5,,,,,,,,,,,,,,,0,,,76,72
43319,note_on,,29,0,5,,,,,,,,,,,,,,,0,,,76,0
43319,note_on,,29,0,9,,,,,,,,,,,,,,,7,,,64,0
43319,note_on,,29,0,10,,,,,,,,,,,,,,,8,,,61,0
43319,note_on,,29,0,6,,,,,,,,,,,,,,,1,,,61,0
43319,note_on,,29,0,13,,,,,,,,,,,,,,,11,,,76,0
43319,note_on,,0,0,16,,,,,,,,,,,,,,,15,,,64,0
43319,note_on,,29,0,16,,,,,,,,,,,,,,,15,,,61,0
43319,note_on,,29,0,15,,,,,,,,,,,,,,,13,,,61,0
43319,note_on,,29,0,7,,,,,,,,,,,,,,,5,,,76,0
43320,note_on,,1,0,16,,,,,,,,,,,,,,,15,,,59,72
43320,note_on,,1,0,5,,,,,,,,,,,,,,,0,,,78,72
43320,note_on,,1,0,10,,,,,,,,,,,,,,,8,,,59,72
43320,note_on,,1,0,9,,,,,,,,,,,,,,,7,,,62,72
43320,note_on,,0,0,16,,,,,,,,,,,,,,,15,,,62,72
43320,note_on,,1,0,15,,,,,,,,,,,,,,,13,,,59,72
43320,note_on,,1,0,7,,,,,,,,,,,,,,,5,,,78,72
43320,note_on,,1,0,6,,,,,,,,,,,,,,,1,,,59,72
43320,note_on,,1,0,13,,,,,,,,,,,,,,,11,,,74,72
43379,note_on,,59,0,15,,,,,,,,,,,,,,,13,,,59,0
43379,note_on,,59,0,10,,,,,,,,,,,,,,,8,,,59,0
43379,note_on,,59,0,6,,,,,,,,,,,,,,,1,,,59,0
43379,note_on,,59,0,13,,,,,,,,,,,,,,,11,,,74,0
43379,note_on,,59,0,7,,,,,,,,,,,,,,,5,,,78,0
43379,note_on,,59,0,16,,,,,,,,,,,,,,,15,,,59,0
43379,note_on,,0,0,16,,,,,,,,,,,,,,,15,,,62,0
43379,note_on,,59,0,5,,,,,,,,,,,,,,,0,,,78,0
43379,note_on,,119,0,8,,,,,,,,,,,,,,,6,,,69,0
43379,note_on,,59,0,9,,,,,,,,,,,,,,,7,,,62,0
43380,note_on,,1,0,6,,,,,,,,,,,,,,,1,,,62,72
43380,note_on,,1,0,9,,,,,,,,,,,,,,,7,,,66,72
43380,note_on,,1,0,5,,,,,,,,,,,,,,,0,,,74,72
43380,note_on,,1,0,8,,,,,,,,,,,,,,,6,,,69,72
43380,note_on,,1,0,7,,,,,,,,,,,,,,,5,,,74,72
43380,note_on,,1,0,10,,,,,,,,,,,,,,,8,,,62,72
43380,note_on,,0,0,16,,,,,,,,,,,,,,,15,,,66,72
43380,note_on,,1,0,16,,,,,,,,,,,,,,,15,,,62,72
43380,note_on,,1,0,15,,,,,,,,,,,,,,,13,,,62,72
43380,note_on,,1,0,13,,,,,,,,,,,,,,,11,,,78,72
43439,note_on,,59,0,15,,,,,,,,,,,,,,,13,,,62,0
43439,note_on,,59,0,7,,,,,,,,,,,,,,,5,,,74,0
43439,note_on,,0,0,16,,,,,,,,,,,,,,,15,,,66,0
43439,note_on,,0,0,16,,,,,,,,,,,,,,,15,,,62,0
43439,note_on,,0,0,16,,,,,,,,,,,,,,,15,,,69,0
43439,note_on,,59,0,16,,,,,,,,,,,,,,,15,,,74,0
43439,note_on,,59,0,8,,,,,,,,,,,,,,,6,,,69,0
43439,note_on,,59,0,6,,,,,,,,,,,,,,,1,,,62,0
43439,note_on,,59,0,5,,,,,,,,,,,,,,,0,,,74,0
43439,note_on,,59,0,13,,,,,,,,,,,,,,,11,,,78,0
43439,note_on,,59,0,10,,,,,,,,,,,,,,,8,,,62,0
43439,note_on,,59,0,9,,,,,,,,,,,,,,,7,,,66,0
43440,note_on,,1,0,9,,,,,,,,,,,,,,,7,,,64,72
43440,note_on,,0,0,16,,,,,,,,,,,,,,,15,,,64,72
43440,note_on,,0,0,16,,,,,,,,,,,,,,,15,,,64,72
43440,note_on,,0,0,16,,,,,,,,,,,,,,,15,,,69,72
43440,note_on,,1,0,15,,,,,,,,,,,,,,,13,,,61,72
43440,note_on,,1,0,7,,,,,,,,,,,,,,,5,,,73,72
43440,note_on,,1,0,16,,,,,,,,,,,,,,,15,,,61,72
43440,note_on,,1,0,5,,,,,,,,,,,,,,,0,,,73,72
43440,note_on,,1,0,10,,,,,,,,,,,,,,,8,,,61,72
43440,note_on,,1,0,8,,,,,,,,,,,,,,,6,,,69,72
43440,note_on,,1,0,13,,,,,,,,,,,,,,,11,,,76,72
43440,note_on,,1,0,6,,,,,,,,,,,,,,,1,,,61,72
43469,note_on,,29,0,9,,,,,,,,,,,,,,,7,,,64,0
43469,note_on,,29,0,15,,,,,,,,,,,,,,,13,,,61,0
43469,note_on,,29,0,7,,,,,,,,,,,,,,,5,,,73,0
43469,note_on,,29,0,5,,,,,,,,,,,,,,,0,,,73,0
43469,note_on,,29,0,13,,,,,,,,,,,,,,,11,,,76,0
43469,note_on,,29,0,6,,,,,,,,,,,,,,,1,,,61,0
43469,note_on,,29,0,16,,,,,,,,,,,,,,,15,,,61,0
43469,note_on,,29,0,10,,,,,,,,,,,,,,,8,,,61,0
43469,note_on,,0,0,16,,,,,,,,,,,,,,,15,,,64,0
43470,note_on,,1,0,9,,,,,,,,,,,,,,,7,,,62,72
43470,note_on,,1,0,10,,,,,,,,,,,,,,,8,,,59,72
43470,note_on,,1,0,7,,,,,,,,,,,,,,,5,,,74,72
43470,note_on,,1,0,6,,,,,,,,,,,,,,,1,,,59,72
43470,note_on,,1,0,16,,,,,,,,,,,,,,,15,,,59,72
43470,note_on,,1,0,5,,,,,,,,,,,,,,,0,,,74,72
43470,note_on,,0,0,16,,,,,,,,,,,,,,,15,,,62,72
43470,note_on,,1,0,15,,,,,,,,,,,,,,,13,,,59,72
43470,note_on,,1,0,13,,,,,,,,,,,,,,,11,,,74,72
43499,note_on,,29,0,9,,,,,,,,,,,,,,,7,,,62,0
43499,note_on,,29,0,6,,,,,,,,,,,,,,,1,,,59,0
43499,note_on,,29,0,16,,,,,,,,,,,,,,,15,,,59,0
43499,note_on,,0,0,16,,,,,,,,,,,,,,,15,,,62,0
43499,note_on,,29,0,5,,,,,,,,,,,,,,,0,,,74,0
43499,note_on,,29,0,10,,,,,,,,,,,,,,,8,,,59,0
43499,note_on,,29,0,7,,,,,,,,,,,,,,,5,,,74,0
43499,note_on,,29,0,13,,,,,,,,,,,,,,,11,,,74,0
43499,note_on,,29,0,15,,,,,,,,,,,,,,,13,,,59,0
43500,note_on,,1,0,16,,,,,,,,,,,,,,,15,,,57,72
43500,note_on,,0,0,16,,,,,,,,,,,,,,,15,,,61,72
43500,note_on,,1,0,5,,,,,,,,,,,,,,,0,,,76,72
43500,note_on,,1,0,10,,,,,,,,,,,,,,,8,,,57,72
43500,note_on,,1,0,13,,,,,,,,,,,,,,,11,,,73,72
43500,note_on,,1,0,6,,,,,,,,,,,,,,,1,,,57,72
43500,note_on,,1,0,9,,,,,,,,,,,,,,,7,,,61,72
43500,note_on,,1,0,15,,,,,,,,,,,,,,,13,,,57,72
43500,note_on,,1,0,7,,,,,,,,,,,,,,,5,,,76,72
43559,note_on,,59,0,7,,,,,,,,,,,,,,,5,,,76,0
43559,note_on,,59,0,9,,,,,,,,,,,,,,,7,,,61,0
43559,note_on,,59,0,13,,,,,,,,,,,,,,,11,,,73,0
43559,note_on,,119,0,8,,,,,,,,,,,,,,,6,,,69,0
43559,note_on,,59,0,5,,,,,,,,,,,,,,,0,,,76,0
43559,note_on,,0,0,16,,,,,,,,,,,,,,,15,,,61,0
43559,note_on,,59,0,16,,,,,,,,,,,,,,,15,,,57,0
43559,note_on,,59,0,10,,,,,,,,,,,,,,,8,,,57,0
43559,note_on,,59,0,15,,,,,,,,,,,,,,,13,,,57,0
43559,note_on,,59,0,6,,,,,,,,,,,,,,,1,,,57,0
43559,note_on,,299,0,12,,,,,,,,,,,,,,,10,,,81,0
43560,note_on,,1,0,16,,,,,,,,,,,,,,,15,,,61,72
43560,note_on,,0,0,16,,,,,,,,,,,,,,,15,,,64,72
43560,note_on,,1,0,8,,,,,,,,,,,,,,,6,,,69,72
43560,note_on,,1,0,7,,,,,,,,,,,,,,,5,,,73,72
43560,note_on,,1,0,10,,,,,,,,,,,,,,,8,,,61,72
43560,note_on,,1,0,13,,,,,,,,,,,,,,,11,,,76,72
43560,note_on,,1,0,15,,,,,,,,,,,,,,,13,,,61,72
43560,note_on,,1,0,9,,,,,,,,,,,,,,,7,,,64,72
43560,note_on,,1,0,6,,,,,,,,,,,,,,,1,,,61,72
43560,note_on,,1,0,5,,,,,,,,,,,,,,,0,,,73,72
43560,note_on,,1,0,12,,,,,,,,,,,,,,,10,,,81,72
43619,note_on,,59,0,12,,,,,,,,,,,,,,,10,,,81,0
43619,note_on,,59,0,9,,,,,,,,,,,,,,,7,,,64,0
43619,note_on,,59,0,10,,,,,,,,,,,,,,,8,,,61,0
43619,note_on,,59,0,7,,,,,,,,,,,,,,,5,,,73,0
43619,note_on,,359,0,14,,,,,,,,,,,,,,,12,,,69,0
43619,note_on,,59,0,6,,,,,,,,,,,,,,,1,,,61,0
43619,note_on,,59,0,5,,,,,,,,,,,,,,,0,,,73,0
43619,note_on,,59,0,16,,,,,,,,,,,,,,,15,,,69,0
43619,note_on,,0,0,16,,,,,,,,,,,,,,,15,,,64,0
43619,note_on,,0,0,16,,,,,,,,,,,,,,,15,,,61,0
43619,note_on,,0,0,16,,,,,,,,,,,,,,,15,,,64,0
43619,note_on,,59,0,13,,,,,,,,,,,,,,,11,,,76,0
43619,note_on,,59,0,15,,,,,,,,,,,,,,,13,,,61,0
43619,note_on,,59,0,8,,,,,,,,,,,,,,,6,,,69,0
43620,note_on,,0,0,16,,,,,,,,,,,,,,,15,,,69,72
43620,note_on,,1,0,12,,,,,,,,,,,,,,,10,,,81,72
43620,note_on,,1,0,13,,,,,,,,,,,,,,,11,,,74,72
43620,note_on,,1,0,9,,,,,,,,,,,,,,,7,,,62,72
43620,note_on,,1,0,6,,,,,,,,,,,,,,,1,,,59,72
43620,note_on,,1,0,10,,,,,,,,,,,,,,,8,,,59,72
43620,note_on,,1,0,7,,,,,,,,,,,,,,,5,,,74,72
43620,note_on,,1,0,14,,,,,,,,,,,,,,,12,,,71,72
43620,note_on,,0,0,16,,,,,,,,,,,,,,,15,,,66,72
43620,note_on,,1,0,15,,,,,,,,,,,,,,,13,,,59,72
43620,note_on,,1,0,5,,,,,,,,,,,,,,,0,,,74,72
43620,note_on,,1,0,16,,,,,,,,,,,,,,,15,,,59,72
43620,note_on,,0,0,16,,,,,,,,,,,,,,,15,,,71,72
43620,note_on,,1,0,8,,,,,,,,,,,,,,,6,,,69,72
43649,note_on,,29,0,12,,,,,,,,,,,,,,,10,,,81,0
43649,note_on,,29,0,8,,,,,,,,,,,,,,,6,,,69,0
43650,note_on,,1,0,12,,,,,,,,,,,,,,,10,,,80,72
43650,note_on,,1,0,8,,,,,,,,,,,,,,,6,,,68,72
43679,note_on,,29,0,8,,,,,,,,,,,,,,,6,,,68,0
43679,note_on,,29,0,12,,,,,,,,,,,,,,,10,,,80,0
43680,note_on,,1,0,12,,,,,,,,,,,,,,,10,,,78,72
43680,note_on,,1,0,8,,,,,,,,,,,,,,,6,,,66,72
43739,note_on,,59,0,12,,,,,,,,,,,,,,,10,,,78,0
43739,note_on,,59,0,8,,,,,,,,,,,,,,,6,,,66,0
43740,note_on,,1,0,8,,,,,,,,,,,,,,,6,,,69,72
43740,note_on,,1,0,12,,,,,,,,,,,,,,,10,,,81,72
43799,note_on,,59,0,8,,,,,,,,,,,,,,,6,,,69,0
43799,note_on,,0,0,16,,,,,,,,,,,,,,,15,,,66,0
43799,note_on,,0,0,16,,,,,,,,,,,,,,,15,,,69,0
43799,note_on,,179,0,16,,,,,,,,,,,,,,,15,,,71,0
43799,note_on,,59,0,12,,,,,,,,,,,,,,,10,,,81,0
43800,note_on,,0,0,16,,,,,,,,,,,,,,,15,,,62,72
43800,note_on,,1,0,8,,,,,,,,,,,,,,,6,,,68,72
43800,note_on,,1,0,16,,,,,,,,,,,,,,,15,,,74,72
43800,note_on,,0,0,16,,,,,,,,,,,,,,,15,,,68,72
43800,note_on,,1,0,12,,,,,,,,,,,,,,,10,,,80,72
43829,note_on,,29,0,12,,,,,,,,,,,,,,,10,,,80,0
43829,note_on,,29,0,8,,,,,,,,,,,,,,,6,,,68,0
43830,note_on,,1,0,8,,,,,,,,,,,,,,,6,,,69,72
43830,note_on,,1,0,12,,,,,,,,,,,,,,,10,,,81,72
43859,note_on,,29,0,12,,,,,,,,,,,,,,,10,,,81,0
43859,note_on,,29,0,8,,,,,,,,,,,,,,,6,,,69,0
43860,note_on,,1,0,8,,,,,,,,,,,,,,,6,,,71,72
43860,note_on,,1,0,12,,,,,,,,,,,,,,,10,,,83,72
43889,note_on,,29,0,8,,,,,,,,,,,,,,,6,,,71,0
43889,note_on,,29,0,12,,,,,,,,,,,,,,,10,,,83,0
43890,note_on,,1,0,12,,,,,,,,,,,,,,,10,,,81,72
43890,note_on,,1,0,8,,,,,,,,,,,,,,,6,,,69,72
43919,note_on,,299,0,9,,,,,,,,,,,,,,,7,,,62,0
43919,note_on,,299,0,5,,,,,,,,,,,,,,,0,,,74,0
43919,note_on,,299,0,6,,,,,,,,,,,,,,,1,,,59,0
43919,note_on,,29,0,12,,,,,,,,,,,,,,,10,,,81,0
43919,note_on,,119,0,16,,,,,,,,,,,,,,,15,,,59,0
43919,note_on,,0,0,16,,,,,,,,,,,,,,,15,,,74,0
43919,note_on,,0,0,16,,,,,,,,,,,,,,,15,,,68,0
43919,note_on,,0,0,16,,,,,,,,,,,,,,,15,,,62,0
43919,note_on,,299,0,10,,,,,,,,,,,,,,,8,,,59,0
43919,note_on,,299,0,15,,,,,,,,,,,,,,,13,,,59,0
43919,note_on,,299,0,14,,,,,,,,,,,,,,,12,,,71,0
43919,note_on,,299,0,7,,,,,,,,,,,,,,,5,,,74,0
43919,note_on,,29,0,8,,,,,,,,,,,,,,,6,,,69,0
43919,note_on,,299,0,13,,,,,,,,,,,,,,,11,,,74,0
43920,note_on,,0,0,16,,,,,,,,,,,,,,,15,,,71,72
43920,note_on,,1,0,13,,,,,,,,,,,,,,,11,,,74,72
43920,note_on,,0,0,16,,,,,,,,,,,,,,,15,,,59,72
43920,note_on,,1,0,6,,,,,,,,,,,,,,,1,,,52,72
43920,note_on,,0,0,16,,,,,,,,,,,,,,,15,,,68,72
43920,note_on,,0,0,16,,,,,,,,,,,,,,,15,,,76,72
43920,note_on,,1,0,16,,,,,,,,,,,,,,,15,,,52,72
43920,note_on,,1,0,12,,,,,,,,,,,,,,,10,,,80,72
43920,note_on,,1,0,9,,,,,,,,,,,,,,,7,,,62,72
43920,note_on,,1,0,5,,,,,,,,,,,,,,,0,,,71,72
43920,note_on,,1,0,10,,,,,,,,,,,,,,,8,,,52,72
43920,note_on,,1,0,7,,,,,,,,,,,,,,,5,,,71,72
43920,note_on,,1,0,14,,,,,,,,,,,,,,,12,,,71,72
43920,note_on,,1,0,8,,,,,,,,,,,,,,,6,,,68,72
43920,note_on,,1,0,15,,,,,,,,,,,,,,,13,,,52,72
43949,note_on,,29,0,12,,,,,,,,,,,,,,,10,,,80,0
43949,note_on,,29,0,8,,,,,,,,,,,,,,,6,,,68,0
43950,note_on,,1,0,12,,,,,,,,,,,,,,,10,,,78,72
43950,note_on,,1,0,8,,,,,,,,,,,,,,,6,,,66,72
43979,note_on,,59,0,15,,,,,,,,,,,,,,,13,,,52,0
43979,note_on,,59,0,5,,,,,,,,,,,,,,,0,,,71,0
43979,note_on,,59,0,13,,,,,,,,,,,,,,,11,,,74,0
43979,note_on,,59,0,7,,,,,,,,,,,,,,,5,,,71,0
43979,note_on,,29,0,8,,,,,,,,,,,,,,,6,,,66,0
43979,note_on,,59,0,14,,,,,,,,,,,,,,,12,,,71,0
43979,note_on,,59,0,10,,,,,,,,,,,,,,,8,,,52,0
43979,note_on,,59,0,6,,,,,,,,,,,,,,,1,,,52,0
43979,note_on,,0,0,16,,,,,,,,,,,,,,,15,,,59,0
43979,note_on,,0,0,16,,,,,,,,,,,,,,,15,,,68,0
43979,note_on,,0,0,16,,,,,,,,,,,,,,,15,,,71,0
43979,note_on,,0,0,16,,,,,,,,,,,,,,,15,,,76,0
43979,note_on,,59,0,16,,,,,,,,,,,,,,,15,,,52,0
43979,note_on,,59,0,9,,,,,,,,,,,,,,,7,,,62,0
43979,note_on,,29,0,12,,,,,,,,,,,,,,,10,,,78,0
43980,note_on,,1,0,5,,,,,,,,,,,,,,,0,,,73,72
43980,note_on,,1,0,13,,,,,,,,,,,,,,,11,,,73,72
43980,note_on,,1,0,6,,,,,,,,,,,,,,,1,,,57,72
43980,note_on,,0,0,16,,,,,,,,,,,,,,,15,,,61,72
43980,note_on,,0,0,16,,,,,,,,,,,,,,,15,,,73,72
43980,note_on,,1,0,12,,,,,,,,,,,,,,,10,,,76,72
43980,note_on,,1,0,16,,,,,,,,,,,,,,,15,,,57,72
43980,note_on,,0,0,16,,,,,,,,,,,,,,,15,,,69,72
43980,note_on,,0,0,16,,,,,,,,,,,,,,,15,,,64,72
43980,note_on,,1,0,9,,,,,,,,,,,,,,,7,,,61,72
43980,note_on,,1,0,10,,,,,,,,,,,,,,,8,,,57,72
43980,note_on,,1,0,14,,,,,,,,,,,,,,,12,,,73,72
43980,note_on,,1,0,15,,,,,,,,,,,,,,,13,,,57,72
43980,note_on,,1,0,8,,,,,,,,,,,,,,,6,,,64,72
43980,note_on,,1,0,7,,,,,,,,,,,,,,,5,,,73,72
44009,note_on,,29,0,13,,,,,,,,,,,,,,,11,,,73,0
44010,note_on,,1,0,13,,,,,,,,,,,,,,,11,,,71,72
44039,note_on,,59,0,14,,,,,,,,,,,,,,,12,,,73,0
44039,note_on,,59,0,6,,,,,,,,,,,,,,,1,,,57,0
44039,note_on,,59,0,12,,,,,,,,,,,,,,,10,,,76,0
44039,note_on,,59,0,8,,,,,,,,,,,,,,,6,,,64,0
44039,note_on,,59,0,9,,,,,,,,,,,,,,,7,,,61,0
44039,note_on,,59,0,7,,,,,,,,,,,,,,,5,,,73,0
44039,note_on,,59,0,16,,,,,,,,,,,,,,,15,,,57,0
44039,note_on,,0,0,16,,,,,,,,,,,,,,,15,,,73,0
44039,note_on,,0,0,16,,,,,,,,,,,,,,,15,,,69,0
44039,note_on,,0,0,16,,,,,,,,,,,,,,,15,,,64,0
44039,note_on,,59,0,15,,,,,,,,,,,,,,,13,,,57,0
44039,note_on,,59,0,5,,,,,,,,,,,,,,,0,,,73,0
44039,note_on,,29,0,13,,,,,,,,,,,,,,,11,,,71,0
44039,note_on,,0,0,16,,,,,,,,,,,,,,,15,,,61,0
44039,note_on,,59,0,10,,,,,,,,,,,,,,,8,,,57,0
44040,note_on,,1,0,10,,,,,,,,,,,,,,,8,,,54,72
44040,note_on,,1,0,7,,,,,,,,,,,,,,,5,,,73,72
44040,note_on,,1,0,14,,,,,,,,,,,,,,,12,,,66,72
44040,note_on,,1,0,12,,,,,,,,,,,,,,,10,,,81,72
44040,note_on,,1,0,5,,,,,,,,,,,,,,,0,,,73,72
44040,note_on,,1,0,6,,,,,,,,,,,,,,,1,,,54,72
44040,note_on,,1,0,16,,,,,,,,,,,,,,,15,,,54,72
44040,note_on,,1,0,8,,,,,,,,,,,,,,,6,,,69,72
44040,note_on,,1,0,13,,,,,,,,,,,,,,,11,,,73,72
44040,note_on,,1,0,15,,,,,,,,,,,,,,,13,,,54,72
44040,note_on,,0,0,16,,,,,,,,,,,,,,,15,,,78,72
44040,note_on,,0,0,16,,,,,,,,,,,,,,,15,,,57,72
44040,note_on,,1,0,9,,,,,,,,,,,,,,,7,,,66,72
44040,note_on,,0,0,16,,,,,,,,,,,,,,,15,,,73,72
44040,note_on,,0,0,16,,,,,,,,,,,,,,,15,,,69,72
44069,note_on,,29,0,13,,,,,,,,,,,,,,,11,,,73,0
44070,note_on,,1,0,13,,,,,,,,,,,,,,,11,,,76,72
44099,note_on,,29,0,13,,,,,,,,,,,,,,,11,,,76,0
44100,note_on,,1,0,13,,,,,,,,,,,,,,,11,,,74,72
44129,note_on,,29,0,13,,,,,,,,,,,,,,,11,,,74,0
44130,note_on,,1,0,13,,,,,,,,,,,,,,,11,,,73,72
44159,note_on,,119,0,6,,,,,,,,,,,,,,,1,,,54,0
44159,note_on,,119,0,9,,,,,,,,,,,,,,,7,,,66,0
44159,note_on,,119,0,8,,,,,,,,,,,,,,,6,,,69,0
44159,note_on,,119,0,14,,,,,,,,,,,,,,,12,,,66,0
44159,note_on,,119,0,5,,,,,,,,,,,,,,,0,,,73,0
44159,note_on,,119,0,7,,,,,,,,,,,,,,,5,,,73,0
44159,note_on,,119,0,10,,,,,,,,,,,,,,,8,,,54,0
44159,note_on,,119,0,15,,,,,,,,,,,,,,,13,,,54,0
44159,note_on,,119,0,16,,,,,,,,,,,,,,,15,,,54,0
44159,note_on,,29,0,13,,,,,,,,,,,,,,,11,,,73,0
44159,note_on,,0,0,16,,,,,,,,,,,,,,,15,,,78,0
44159,note_on,,0,0,16,,,,,,,,,,,,,,,15,,,73,0
44159,note_on,,0,0,16,,,,,,,,,,,,,,,15,,,57,0
44159,note_on,,0,0,16,,,,,,,,,,,,,,,15,,,69,0
44160,note_on,,1,0,7,,,,,,,,,,,,,,,5,,,71,72
44160,note_on,,1,0,10,,,,,,,,,,,,,,,8,,,50,72
44160,note_on,,1,0,8,,,,,,,,,,,,,,,6,,,69,72
44160,note_on,,1,0,15,,,,,,,,,,,,,,,13,,,50,72
44160,note_on,,1,0,6,,,,,,,,,,,,,,,1,,,50,72
44160,note_on,,1,0,14,,,,,,,,,,,,,,,12,,,66,72
44160,note_on,,1,0,5,,,,,,,,,,,,,,,0,,,71,72
44160,note_on,,1,0,9,,,,,,,,,,,,,,,7,,,66,72
44160,note_on,,0,0,16,,,,,,,,,,,,,,,15,,,66,72
44160,note_on,,0,0,16,,,,,,,,,,,,,,,15,,,69,72
44160,note_on,,1,0,16,,,,,,,,,,,,,,,15,,,50,72
44160,note_on,,0,0,16,,,,,,,,,,,,,,,15,,,71,72
44160,note_on,,0,0,16,,,,,,,,,,,,,,,15,,,59,72
44160,note_on,,1,0,13,,,,,,,,,,,,,,,11,,,71,72
44189,note_on,,29,0,13,,,,,,,,,,,,,,,11,,,71,0
44190,note_on,,1,0,13,,,,,,,,,,,,,,,11,,,69,72
44219,note_on,,29,0,13,,,,,,,,,,,,,,,11,,,69,0
44220,note_on,,1,0,13,,,,,,,,,,,,,,,11,,,71,72
44249,note_on,,29,0,13,,,,,,,,,,,,,,,11,,,71,0
44250,note_on,,1,0,13,,,,,,,,,,,,,,,11,,,73,72
44279,note_on,,119,0,8,,,,,,,,,,,,,,,6,,,69,0
44279,note_on,,119,0,15,,,,,,,,,,,,,,,13,,,50,0
44279,note_on,,119,0,10,,,,,,,,,,,,,,,8,,,50,0
44279,note_on,,29,0,13,,,,,,,,,,,,,,,11,,,73,0
44279,note_on,,119,0,14,,,,,,,,,,,,,,,12,,,66,0
44279,note_on,,0,0,16,,,,,,,,,,,,,,,15,,,66,0
44279,note_on,,0,0,16,,,,,,,,,,,,,,,15,,,69,0
44279,note_on,,119,0,16,,,,,,,,,,,,,,,15,,,50,0
44279,note_on,,239,0,12,,,,,,,,,,,,,,,10,,,81,0
44279,note_on,,119,0,6,,,,,,,,,,,,,,,1,,,50,0
44279,note_on,,119,0,9,,,,,,,,,,,,,,,7,,,66,0
44280,note_on,,0,0,16,,,,,,,,,,,,,,,15,,,64,72
44280,note_on,,1,0,13,,,,,,,,,,,,,,,11,,,74,72
44280,note_on,,0,0,16,,,,,,,,,,,,,,,15,,,68,72
44280,note_on,,1,0,16,,,,,,,,,,,,,,,15,,,52,72
44280,note_on,,1,0,10,,,,,,,,,,,,,,,8,,,52,72
44280,note_on,,1,0,15,,,,,,,,,,,,,,,13,,,52,72
44280,note_on,,1,0,6,,,,,,,,,,,,,,,1,,,52,72
44280,note_on,,1,0,12,,,,,,,,,,,,,,,10,,,80,72
44280,note_on,,1,0,14,,,,,,,,,,,,,,,12,,,64,72
44280,note_on,,1,0,8,,,,,,,,,,,,,,,6,,,68,72
44280,note_on,,1,0,9,,,,,,,,,,,,,,,7,,,64,72
44309,note_on,,29,0,13,,,,,,,,,,,,,,,11,,,74,0
44310,note_on,,1,0,13,,,,,,,,,,,,,,,11,,,71,72
44339,note_on,,59,0,10,,,,,,,,,,,,,,,8,,,52,0
44339,note_on,,0,0,16,,,,,,,,,,,,,,,15,,,64,0
44339,note_on,,59,0,9,,,,,,,,,,,,,,,7,,,64,0
44339,note_on,,59,0,14,,,,,,,,,,,,,,,12,,,64,0
44339,note_on,,179,0,7,,,,,,,,,,,,,,,5,,,71,0
44339,note_on,,59,0,16,,,,,,,,,,,,,,,15,,,71,0
44339,note_on,,0,0,16,,,,,,,,,,,,,,,15,,,59,0
44339,note_on,,0,0,16,,,,,,,,,,,,,,,15,,,68,0
44339,note_on,,59,0,12,,,,,,,,,,,,,,,10,,,80,0
44339,note_on,,0,0,16,,,,,,,,,,,,,,,15,,,52,0
44339,note_on,,29,0,13,,,,,,,,,,,,,,,11,,,71,0
44339,note_on,,59,0,15,,,,,,,,,,,,,,,13,,,52,0
44339,note_on,,59,0,8,,,,,,,,,,,,,,,6,,,68,0
44339,note_on,,59,0,6,,,,,,,,,,,,,,,1,,,52,0
44339,note_on,,179,0,5,,,,,,,,,,,,,,,0,,,71,0
44340,note_on,,1,0,8,,,,,,,,,,,,,,,6,,,69,72
44340,note_on,,1,0,7,,,,,,,,,,,,,,,5,,,73,72
44340,note_on,,1,0,14,,,,,,,,,,,,,,,12,,,64,72
44340,note_on,,1,0,12,,,,,,,,,,,,,,,10,,,81,72
44340,note_on,,1,0,6,,,,,,,,,,,,,,,1,,,45,72
44340,note_on,,1,0,5,,,,,,,,,,,,,,,0,,,73,72
44340,note_on,,1,0,10,,,,,,,,,,,,,,,8,,,57,72
44340,note_on,,0,0,16,,,,,,,,,,,,,,,15,,,57,72
44340,note_on,,1,0,13,,,,,,,,,,,,,,,11,,,73,72
44340,note_on,,1,0,9,,,,,,,,,,,,,,,7,,,64,72
44340,note_on,,0,0,16,,,,,,,,,,,,,,,15,,,64,72
44340,note_on,,0,0,16,,,,,,,,,,,,,,,15,,,69,72
44340,note_on,,0,0,16,,,,,,,,,,,,,,,15,,,73,72
44340,note_on,,1,0,16,,,,,,,,,,,,,,,15,,,45,72
44340,note_on,,1,0,15,,,,,,,,,,,,,,,13,,,45,72
44369,note_on,,29,0,13,,,,,,,,,,,,,,,11,,,73,0
44370,note_on,,1,0,13,,,,,,,,,,,,,,,11,,,74,72
44399,note_on,,29,0,13,,,,,,,,,,,,,,,11,,,74,0
44399,note_on,,59,0,12,,,,,,,,,,,,,,,10,,,81,0
44400,note_on,,1,0,12,,,,,,,,,,,,,,,10,,,76,72
44400,note_on,,1,0,13,,,,,,,,,,,,,,,11,,,73,72
44429,note_on,,29,0,13,,,,,,,,,,,,,,,11,,,73,0
44429,note_on,,29,0,12,,,,,,,,,,,,,,,10,,,76,0
44430,note_on,,1,0,13,,,,,,,,,,,,,,,11,,,71,72
44430,note_on,,1,0,12,,,,,,,,,,,,,,,10,,,74,72
44459,note_on,,119,0,14,,,,,,,,,,,,,,,12,,,64,0
44459,note_on,,29,0,12,,,,,,,,,,,,,,,10,,,74,0
44459,note_on,,29,0,13,,,,,,,,,,,,,,,11,,,71,0
44460,note_on,,1,0,13,,,,,,,,,,,,,,,11,,,69,72
44460,note_on,,1,0,12,,,,,,,,,,,,,,,10,,,73,72
44460,note_on,,1,0,14,,,,,,,,,,,,,,,12,,,64,72
44489,note_on,,29,0,13,,,,,,,,,,,,,,,11,,,69,0
44489,note_on,,29,0,12,,,,,,,,,,,,,,,10,,,73,0
44490,note_on,,1,0,12,,,,,,,,,,,,,,,10,,,71,72
44490,note_on,,1,0,13,,,,,,,,,,,,,,,11,,,68,72
44519,note_on,,179,0,15,,,,,,,,,,,,,,,13,,,45,0
44519,note_on,,29,0,13,,,,,,,,,,,,,,,11,,,68,0
44519,note_on,,179,0,7,,,,,,,,,,,,,,,5,,,73,0
44519,note_on,,179,0,8,,,,,,,,,,,,,,,6,,,69,0
44519,note_on,,0,0,16,,,,,,,,,,,,,,,15,,,73,0
44519,note_on,,59,0,14,,,,,,,,,,,,,,,12,,,64,0
44519,note_on,,0,0,16,,,,,,,,,,,,,,,15,,,69,0
44519,note_on,,0,0,16,,,,,,,,,,,,,,,15,,,64,0
44519,note_on,,0,0,16,,,,,,,,,,,,,,,15,,,57,0
44519,note_on,,179,0,16,,,,,,,,,,,,,,,15,,,45,0
44519,note_on,,179,0,10,,,,,,,,,,,,,,,8,,,57,0
44519,note_on,,179,0,9,,,,,,,,,,,,,,,7,,,64,0
44519,note_on,,29,0,12,,,,,,,,,,,,,,,10,,,71,0
44519,note_on,,179,0,5,,,,,,,,,,,,,,,0,,,73,0
44519,note_on,,179,0,6,,,,,,,,,,,,,,,1,,,45,0
44520,note_on,,0,0,16,,,,,,,,,,,,,,,15,,,69,72
44520,note_on,,1,0,16,,,,,,,,,,,,,,,15,,,45,72
44520,note_on,,1,0,5,,,,,,,,,,,,,,,0,,,73,72
44520,note_on,,1,0,15,,,,,,,,,,,,,,,13,,,45,72
44520,note_on,,1,0,6,,,,,,,,,,,,,,,1,,,45,72
44520,note_on,,0,0,16,,,,,,,,,,,,,,,15,,,57,72
44520,note_on,,0,0,16,,,,,,,,,,,,,,,15,,,64,72
44520,note_on,,1,0,14,,,,,,,,,,,,,,,12,,,64,72
44520,note_on,,1,0,10,,,,,,,,,,,,,,,8,,,57,72
44520,note_on,,1,0,7,,,,,,,,,,,,,,,5,,,73,72
44520,note_on,,1,0,12,,,,,,,,,,,,,,,10,,,69,72
44520,note_on,,1,0,9,,,,,,,,,,,,,,,7,,,64,72
44520,note_on,,1,0,8,,,,,,,,,,,,,,,6,,,69,72
44520,note_on,,0,0,16,,,,,,,,,,,,,,,15,,,73,72
44520,note_on,,1,0,13,,,,,,,,,,,,,,,11,,,69,72
44549,note_on,,29,0,13,,,,,,,,,,,,,,,11,,,69,0
44550,note_on,,1,0,13,,,,,,,,,,,,,,,11,,,71,72
44579,note_on,,29,0,13,,,,,,,,,,,,,,,11,,,71,0
44579,note_on,,59,0,12,,,,,,,,,,,,,,,10,,,69,0
44580,note_on,,1,0,12,,,,,,,,,,,,,,,10,,,76,72
44580,note_on,,1,0,13,,,,,,,,,,,,,,,11,,,73,72
44609,note_on,,29,0,13,,,,,,,,,,,,,,,11,,,73,0
44610,note_on,,1,0,13,,,,,,,,,,,,,,,11,,,74,72
44639,note_on,,0,0,16,,,,,,,,,,,,,,,15,,,73,0
44639,note_on,,0,0,16,,,,,,,,,,,,,,,15,,,69,0
44639,note_on,,0,0,16,,,,,,,,,,,,,,,15,,,64,0
44639,note_on,,0,0,16,,,,,,,,,,,,,,,15,,,57,0
44639,note_on,,119,0,16,,,,,,,,,,,,,,,15,,,45,0
44639,note_on,,29,0,13,,,,,,,,,,,,,,,11,,,74,0
44639,note_on,,119,0,15,,,,,,,,,,,,,,,13,,,45,0
44639,note_on,,59,0,12,,,,,,,,,,,,,,,10,,,76,0
44639,note_on,,119,0,10,,,,,,,,,,,,,,,8,,,57,0
44639,note_on,,119,0,9,,,,,,,,,,,,,,,7,,,64,0
44639,note_on,,119,0,8,,,,,,,,,,,,,,,6,,,69,0
44639,note_on,,119,0,7,,,,,,,,,,,,,,,5,,,73,0
44639,note_on,,119,0,6,,,,,,,,,,,,,,,1,,,45,0
44639,note_on,,119,0,5,,,,,,,,,,,,,,,0,,,73,0
44639,note_on,,119,0,14,,,,,,,,,,,,,,,12,,,64,0
44640,note_on,,0,0,16,,,,,,,,,,,,,,,15,,,64,72
44640,note_on,,1,0,14,,,,,,,,,,,,,,,12,,,64,72
44640,note_on,,1,0,7,,,,,,,,,,,,,,,5,,,69,72
44640,note_on,,0,0,16,,,,,,,,,,,,,,,15,,,61,72
44640,note_on,,0,0,16,,,,,,,,,,,,,,,15,,,69,72
44640,note_on,,1,0,16,,,,,,,,,,,,,,,15,,,57,72
44640,note_on,,1,0,9,,,,,,,,,,,,,,,7,,,61,72
44640,note_on,,1,0,15,,,,,,,,,,,,,,,13,,,57,72
44640,note_on,,1,0,13,,,,,,,,,,,,,,,11,,,76,72
44640,note_on,,1,0,10,,,,,,,,,,,,,,,8,,,57,72
44640,note_on,,1,0,6,,,,,,,,,,,,,,,1,,,57,72
44640,note_on,,1,0,5,,,,,,,,,,,,,,,0,,,69,72
44640,note_on,,1,0,8,,,,,,,,,,,,,,,6,,,64,72
44640,note_on,,1,0,12,,,,,,,,,,,,,,,10,,,81,72
44669,note_on,,29,0,13,,,,,,,,,,,,,,,11,,,76,0
44670,note_on,,1,0,13,,,,,,,,,,,,,,,11,,,73,72
44699,note_on,,59,0,6,,,,,,,,,,,,,,,1,,,57,0
44699,note_on,,0,0,16,,,,,,,,,,,,,,,15,,,69,0
44699,note_on,,59,0,12,,,,,,,,,,,,,,,10,,,81,0
44699,note_on,,59,0,15,,,,,,,,,,,,,,,13,,,57,0
44699,note_on,,59,0,16,,,,,,,,,,,,,,,15,,,57,0
44699,note_on,,0,0,16,,,,,,,,,,,,,,,15,,,61,0
44699,note_on,,0,0,16,,,,,,,,,,,,,,,15,,,64,0
44699,note_on,,59,0,5,,,,,,,,,,,,,,,0,,,69,0
44699,note_on,,59,0,7,,,,,,,,,,,,,,,5,,,69,0
44699,note_on,,59,0,9,,,,,,,,,,,,,,,7,,,61,0
44699,note_on,,59,0,14,,,,,,,,,,,,,,,12,,,64,0
44699,note_on,,29,0,13,,,,,,,,,,,,,,,11,,,73,0
44699,note_on,,59,0,8,,,,,,,,,,,,,,,6,,,64,0
44699,note_on,,59,0,10,,,,,,,,,,,,,,,8,,,57,0
44700,note_on,,1,0,16,,,,,,,,,,,,,,,15,,,54,72
44700,note_on,,1,0,15,,,,,,,,,,,,,,,13,,,54,72
44700,note_on,,1,0,5,,,,,,,,,,,,,,,0,,,74,72
44700,note_on,,0,0,16,,,,,,,,,,,,,,,15,,,74,72
44700,note_on,,1,0,12,,,,,,,,,,,,,,,10,,,74,72
44700,note_on,,0,0,16,,,,,,,,,,,,,,,15,,,66,72
44700,note_on,,0,0,16,,,,,,,,,,,,,,,15,,,57,72
44700,note_on,,1,0,6,,,,,,,,,,,,,,,1,,,54,72
44700,note_on,,1,0,10,,,,,,,,,,,,,,,8,,,54,72
44700,note_on,,1,0,7,,,,,,,,,,,,,,,5,,,74,72
44700,note_on,,1,0,9,,,,,,,,,,,,,,,7,,,62,72
44700,note_on,,1,0,14,,,,,,,,,,,,,,,12,,,66,72
44700,note_on,,1,0,13,,,,,,,,,,,,,,,11,,,69,72
44700,note_on,,1,0,8,,,,,,,,,,,,,,,6,,,69,72
44700,note_on,,0,0,16,,,,,,,,,,,,,,,15,,,69,72
44819,note_on,,119,0,6,,,,,,,,,,,,,,,1,,,54,0
44819,note_on,,119,0,15,,,,,,,,,,,,,,,13,,,54,0
44819,note_on,,119,0,9,,,,,,,,,,,,,,,7,,,62,0
44819,note_on,,119,0,14,,,,,,,,,,,,,,,12,,,66,0
44819,note_on,,119,0,8,,,,,,,,,,,,,,,6,,,69,0
44819,note_on,,119,0,10,,,,,,,,,,,,,,,8,,,54,0
44819,note_on,,119,0,7,,,,,,,,,,,,,,,5,,,74,0
44819,note_on,,119,0,5,,,,,,,,,,,,,,,0,,,74,0
44819,note_on,,119,0,13,,,,,,,,,,,,,,,11,,,69,0
44819,note_on,,119,0,16,,,,,,,,,,,,,,,15,,,54,0
44819,note_on,,0,0,16,,,,,,,,,,,,,,,15,,,74,0
44819,note_on,,0,0,16,,,,,,,,,,,,,,,15,,,69,0
44819,note_on,,0,0,16,,,,,,,,,,,,,,,15,,,66,0
44819,note_on,,0,0,16,,,,,,,,,,,,,,,15,,,57,0
44819,note_on,,119,0,12,,,,,,,,,,,,,,,10,,,74,0
44820,note_on,,1,0,5,,,,,,,,,,,,,,,0,,,76,72
44820,note_on,,1,0,8,,,,,,,,,,,,,,,6,,,71,72
44820,note_on,,1,0,13,,,,,,,,,,,,,,,11,,,71,72
44820,note_on,,1,0,12,,,,,,,,,,,,,,,10,,,76,72
44820,note_on,,1,0,9,,,,,,,,,,,,,,,7,,,59,72
44820,note_on,,1,0,7,,,,,,,,,,,,,,,5,,,76,72
44820,note_on,,0,0,16,,,,,,,,,,,,,,,15,,,59,72
44820,note_on,,0,0,16,,,,,,,,,,,,,,,15,,,64,72
44820,note_on,,1,0,14,,,,,,,,,,,,,,,12,,,64,72
44820,note_on,,0,0,16,,,,,,,,,,,,,,,15,,,71,72
44820,note_on,,1,0,16,,,,,,,,,,,,,,,15,,,55,72
44820,note_on,,1,0,15,,,,,,,,,,,,,,,13,,,55,72
44820,note_on,,1,0,10,,,,,,,,,,,,,,,8,,,55,72
44820,note_on,,1,0,6,,,,,,,,,,,,,,,1,,,55,72
44820,note_on,,0,0,16,,,,,,,,,,,,,,,15,,,67,72
44879,note_on,,59,0,8,,,,,,,,,,,,,,,6,,,71,0
44879,note_on,,59,0,13,,,,,,,,,,,,,,,11,,,71,0
44879,note_on,,59,0,10,,,,,,,,,,,,,,,8,,,55,0
44879,note_on,,59,0,12,,,,,,,,,,,,,,,10,,,76,0
44879,note_on,,59,0,15,,,,,,,,,,,,,,,13,,,55,0
44879,note_on,,59,0,6,,,,,,,,,,,,,,,1,,,55,0
44879,note_on,,59,0,9,,,,,,,,,,,,,,,7,,,59,0
44879,note_on,,59,0,14,,,,,,,,,,,,,,,12,,,64,0
44879,note_on,,59,0,7,,,,,,,,,,,,,,,5,,,76,0
44879,note_on,,0,0,16,,,,,,,,,,,,,,,15,,,59,0
44879,note_on,,0,0,16,,,,,,,,,,,,,,,15,,,64,0
44879,note_on,,0,0,16,,,,,,,,,,,,,,,15,,,67,0
44879,note_on,,0,0,16,,,,,,,,,,,,,,,15,,,71,0
44879,note_on,,59,0,5,,,,,,,,,,,,,,,0,,,76,0
44879,note_on,,59,0,16,,,,,,,,,,,,,,,15,,,55,0
44880,note_on,,1,0,12,,,,,,,,,,,,,,,10,,,73,72
44880,note_on,,1,0,13,,,,,,,,,,,,,,,11,,,64,72
44880,note_on,,1,0,9,,,,,,,,,,,,,,,7,,,64,72
44880,note_on,,1,0,14,,,,,,,,,,,,,,,12,,,69,72
44880,note_on,,1,0,10,,,,,,,,,,,,,,,8,,,57,72
44880,note_on,,1,0,7,,,,,,,,,,,,,,,5,,,73,72
44880,note_on,,1,0,16,,,,,,,,,,,,,,,15,,,57,72
44880,note_on,,0,0,16,,,,,,,,,,,,,,,15,,,69,72
44880,note_on,,0,0,16,,,,,,,,,,,,,,,15,,,64,72
44880,note_on,,0,0,16,,,,,,,,,,,,,,,15,,,61,72
44880,note_on,,1,0,6,,,,,,,,,,,,,,,1,,,57,72
44880,note_on,,1,0,15,,,,,,,,,,,,,,,13,,,57,72
44880,note_on,,1,0,5,,,,,,,,,,,,,,,0,,,73,72
44880,note_on,,1,0,8,,,,,,,,,,,,,,,6,,,69,72
44939,note_on,,59,0,12,,,,,,,,,,,,,,,10,,,73,0
44939,note_on,,59,0,8,,,,,,,,,,,,,,,6,,,69,0
44939,note_on,,59,0,7,,,,,,,,,,,,,,,5,,,73,0
44939,note_on,,59,0,9,,,,,,,,,,,,,,,7,,,64,0
44939,note_on,,59,0,10,,,,,,,,,,,,,,,8,,,57,0
44939,note_on,,0,0,16,,,,,,,,,,,,,,,15,,,61,0
44939,note_on,,59,0,16,,,,,,,,,,,,,,,15,,,57,0
44939,note_on,,59,0,5,,,,,,,,,,,,,,,0,,,73,0
44939,note_on,,59,0,15,,,,,,,,,,,,,,,13,,,57,0
44939,note_on,,59,0,6,,,,,,,,,,,,,,,1,,,57,0
44940,note_on,,1,0,5,,,,,,,,,,,,,,,0,,,74,72
44940,note_on,,1,0,10,,,,,,,,,,,,,,,8,,,59,72
44940,note_on,,1,0,15,,,,,,,,,,,,,,,13,,,59,72
44940,note_on,,1,0,8,,,,,,,,,,,,,,,6,,,69,72
44940,note_on,,1,0,12,,,,,,,,,,,,,,,10,,,74,72
44940,note_on,,1,0,9,,,,,,,,,,,,,,,7,,,62,72
44940,note_on,,1,0,7,,,,,,,,,,,,,,,5,,,74,72
44940,note_on,,1,0,16,,,,,,,,,,,,,,,15,,,59,72
44940,note_on,,0,0,16,,,,,,,,,,,,,,,15,,,62,72
44940,note_on,,1,0,6,,,,,,,,,,,,,,,1,,,59,72
44999,note_on,,0,0,16,,,,,,,,,,,,,,,15,,,64,0
44999,note_on,,59,0,12,,,,,,,,,,,,,,,10,,,74,0
44999,note_on,,0,0,16,,,,,,,,,,,,,,,15,,,59,0
44999,note_on,,0,0,16,,,,,,,,,,,,,,,15,,,62,0
44999,note_on,,119,0,13,,,,,,,,,,,,,,,11,,,64,0
44999,note_on,,59,0,16,,,,,,,,,,,,,,,15,,,69,0
44999,note_on,,59,0,10,,,,,,,,,,,,,,,8,,,59,0
44999,note_on,,59,0,5,,,,,,,,,,,,,,,0,,,74,0
44999,note_on,,59,0,8,,,,,,,,,,,,,,,6,,,69,0
44999,note_on,,59,0,6,,,,,,,,,,,,,,,1,,,59,0
44999,note_on,,59,0,15,,,,,,,,,,,,,,,13,,,59,0
44999,note_on,,59,0,9,,,,,,,,,,,,,,,7,,,62,0
44999,note_on,,59,0,7,,,,,,,,,,,,,,,5,,,74,0
44999,note_on,,119,0,14,,,,,,,,,,,,,,,12,,,69,0
45000,note_on,,1,0,13,,,,,,,,,,,,,,,11,,,69,72
45000,note_on,,0,0,16,,,,,,,,,,,,,,,15,,,76,72
45000,note_on,,0,0,16,,,,,,,,,,,,,,,15,,,64,72
45000,note_on,,1,0,16,,,,,,,,,,,,,,,15,,,61,72
45000,note_on,,1,0,8,,,,,,,,,,,,,,,6,,,69,72
45000,note_on,,1,0,7,,,,,,,,,,,,,,,5,,,76,72
45000,note_on,,1,0,15,,,,,,,,,,,,,,,13,,,61,72
45000,note_on,,1,0,9,,,,,,,,,,,,,,,7,,,61,72
45000,note_on,,1,0,12,,,,,,,,,,,,,,,10,,,76,72
45000,note_on,,1,0,6,,,,,,,,,,,,,,,1,,,61,72
45000,note_on,,1,0,5,,,,,,,,,,,,,,,0,,,76,72
45000,note_on,,1,0,10,,,,,,,,,,,,,,,8,,,61,72
45000,note_on,,1,0,14,,,,,,,,,,,,,,,12,,,69,72
45000,note_on,,0,0,16,,,,,,,,,,,,,,,15,,,69,72
45059,note_on,,59,0,14,,,,,,,,,,,,,,,12,,,69,0
45059,note_on,,59,0,7,,,,,,,,,,,,,,,5,,,76,0
45059,note_on,,59,0,13,,,,,,,,,,,,,,,11,,,69,0
45059,note_on,,0,0,16,,,,,,,,,,,,,,,15,,,69,0
45059,note_on,,0,0,16,,,,,,,,,,,,,,,15,,,76,0
45059,note_on,,0,0,16,,,,,,,,,,,,,,,15,,,64,0
45059,note_on,,59,0,16,,,,,,,,,,,,,,,15,,,61,0
45059,note_on,,59,0,5,,,,,,,,,,,,,,,0,,,76,0
45059,note_on,,59,0,15,,,,,,,,,,,,,,,13,,,61,0
45059,note_on,,59,0,6,,,,,,,,,,,,,,,1,,,61,0
45059,note_on,,59,0,10,,,,,,,,,,,,,,,8,,,61,0
45059,note_on,,59,0,9,,,,,,,,,,,,,,,7,,,61,0
45059,note_on,,59,0,12,,,,,,,,,,,,,,,10,,,76,0
45059,note_on,,59,0,8,,,,,,,,,,,,,,,6,,,69,0
45060,note_on,,0,0,16,,,,,,,,,,,,,,,15,,,69,72
45060,note_on,,0,0,16,,,,,,,,,,,,,,,15,,,74,72
45060,note_on,,0,0,16,,,,,,,,,,,,,,,15,,,78,72
45060,note_on,,1,0,16,,,,,,,,,,,,,,,15,,,62,72
45060,note_on,,1,0,12,,,,,,,,,,,,,,,10,,,78,72
45060,note_on,,1,0,7,,,,,,,,,,,,,,,5,,,78,72
45060,note_on,,1,0,5,,,,,,,,,,,,,,,0,,,78,72
45060,note_on,,1,0,13,,,,,,,,,,,,,,,11,,,74,72
45060,note_on,,1,0,6,,,,,,,,,,,,,,,1,,,62,72
45060,note_on,,1,0,14,,,,,,,,,,,,,,,12,,,69,72
45060,note_on,,1,0,8,,,,,,,,,,,,,,,6,,,69,72
45060,note_on,,1,0,9,,,,,,,,,,,,,,,7,,,66,72
45060,note_on,,1,0,15,,,,,,,,,,,,,,,13,,,62,72
45060,note_on,,1,0,10,,,,,,,,,,,,,,,8,,,62,72
45119,note_on,,0,0,16,,,,,,,,,,,,,,,15,,,78,0
45119,note_on,,59,0,9,,,,,,,,,,,,,,,7,,,66,0
45119,note_on,,59,0,8,,,,,,,,,,,,,,,6,,,69,0
45119,note_on,,0,0,16,,,,,,,,,,,,,,,15,,,74,0
45119,note_on,,59,0,7,,,,,,,,,,,,,,,5,,,78,0
45119,note_on,,59,0,10,,,,,,,,,,,,,,,8,,,62,0
45119,note_on,,59,0,6,,,,,,,,,,,,,,,1,,,62,0
45119,note_on,,59,0,14,,,,,,,,,,,,,,,12,,,69,0
45119,note_on,,59,0,12,,,,,,,,,,,,,,,10,,,78,0
45119,note_on,,59,0,5,,,,,,,,,,,,,,,0,,,78,0
45119,note_on,,59,0,16,,,,,,,,,,,,,,,15,,,62,0
45119,note_on,,59,0,15,,,,,,,,,,,,,,,13,,,62,0
45119,note_on,,0,0,16,,,,,,,,,,,,,,,15,,,69,0
45119,note_on,,59,0,13,,,,,,,,,,,,,,,11,,,74,0
45120,note_on,,1,0,13,,,,,,,,,,,,,,,11,,,76,72
45120,note_on,,1,0,5,,,,,,,,,,,,,,,0,,,79,72
45120,note_on,,1,0,9,,,,,,,,,,,,,,,7,,,64,72
45120,note_on,,1,0,15,,,,,,,,,,,,,,,13,,,61,72
45120,note_on,,1,0,8,,,,,,,,,,,,,,,6,,,69,72
45120,note_on,,1,0,16,,,,,,,,,,,,,,,15,,,61,72
45120,note_on,,1,0,12,,,,,,,,,,,,,,,10,,,79,72
45120,note_on,,0,0,16,,,,,,,,,,,,,,,15,,,76,72
45120,note_on,,1,0,14,,,,,,,,,,,,,,,12,,,69,72
45120,note_on,,1,0,7,,,,,,,,,,,,,,,5,,,79,72
45120,note_on,,1,0,6,,,,,,,,,,,,,,,1,,,61,72
45120,note_on,,0,0,16,,,,,,,,,,,,,,,15,,,69,72
45120,note_on,,1,0,10,,,,,,,,,,,,,,,8,,,61,72
45120,note_on,,0,0,16,,,,,,,,,,,,,,,15,,,67,72
45179,note_on,,0,0,16,,,,,,,,,,,,,,,15,,,69,0
45179,note_on,,0,0,16,,,,,,,,,,,,,,,15,,,67,0
45179,note_on,,59,0,16,,,,,,,,,,,,,,,15,,,61,0
45179,note_on,,59,0,14,,,,,,,,,,,,,,,12,,,69,0
45179,note_on,,59,0,5,,,,,,,,,,,,,,,0,,,79,0
45179,note_on,,0,0,16,,,,,,,,,,,,,,,15,,,76,0
45179,note_on,,59,0,6,,,,,,,,,,,,,,,1,,,61,0
45179,note_on,,59,0,8,,,,,,,,,,,,,,,6,,,69,0
45179,note_on,,59,0,9,,,,,,,,,,,,,,,7,,,64,0
45179,note_on,,59,0,7,,,,,,,,,,,,,,,5,,,79,0
45179,note_on,,59,0,13,,,,,,,,,,,,,,,11,,,76,0
45179,note_on,,59,0,15,,,,,,,,,,,,,,,13,,,61,0
45179,note_on,,59,0,12,,,,,,,,,,,,,,,10,,,79,0
45179,note_on,,59,0,10,,,,,,,,,,,,,,,8,,,61,0
45180,note_on,,1,0,13,,,,,,,,,,,,,,,11,,,74,72
45180,note_on,,1,0,12,,,,,,,,,,,,,,,10,,,78,72
45180,note_on,,1,0,16,,,,,,,,,,,,,,,15,,,62,72
45180,note_on,,0,0,16,,,,,,,,,,,,,,,15,,,74,72
45180,note_on,,0,0,16,,,,,,,,,,,,,,,15,,,69,72
45180,note_on,,0,0,16,,,,,,,,,,,,,,,15,,,66,72
45180,note_on,,1,0,15,,,,,,,,,,,,,,,13,,,62,72
45180,note_on,,1,0,14,,,,,,,,,,,,,,,12,,,69,72
45180,note_on,,1,0,10,,,,,,,,,,,,,,,8,,,62,72
45180,note_on,,1,0,8,,,,,,,,,,,,,,,6,,,69,72
45180,note_on,,1,0,5,,,,,,,,,,,,,,,0,,,78,72
45180,note_on,,1,0,9,,,,,,,,,,,,,,,7,,,62,72
45180,note_on,,1,0,7,,,,,,,,,,,,,,,5,,,78,72
45180,note_on,,1,0,6,,,,,,,,,,,,,,,1,,,62,72
45239,note_on,,59,0,13,,,,,,,,,,,,,,,11,,,74,0
45239,note_on,,59,0,12,,,,,,,,,,,,,,,10,,,78,0
45239,note_on,,59,0,7,,,,,,,,,,,,,,,5,,,78,0
45239,note_on,,59,0,16,,,,,,,,,,,,,,,15,,,62,0
45239,note_on,,0,0,16,,,,,,,,,,,,,,,15,,,74,0
45239,note_on,,0,0,16,,,,,,,,,,,,,,,15,,,69,0
45239,note_on,,0,0,16,,,,,,,,,,,,,,,15,,,66,0
45239,note_on,,59,0,15,,,,,,,,,,,,,,,13,,,62,0
45239,note_on,,59,0,9,,,,,,,,,,,,,,,7,,,62,0
45239,note_on,,59,0,6,,,,,,,,,,,,,,,1,,,62,0
45239,note_on,,59,0,8,,,,,,,,,,,,,,,6,,,69,0
45239,note_on,,59,0,5,,,,,,,,,,,,,,,0,,,78,0
45239,note_on,,59,0,10,,,,,,,,,,,,,,,8,,,62,0
45239,note_on,,59,0,14,,,,,,,,,,,,,,,12,,,69,0
45240,note_on,,1,0,13,,,,,,,,,,,,,,,11,,,74,72
45240,note_on,,1,0,8,,,,,,,,,,,,,,,6,,,69,72
45240,note_on,,1,0,12,,,,,,,,,,,,,,,10,,,78,72
45240,note_on,,1,0,10,,,,,,,,,,,,,,,8,,,57,72
45240,note_on,,1,0,7,,,,,,,,,,,,,,,5,,,78,72
45240,note_on,,1,0,9,,,,,,,,,,,,,,,7,,,62,72
45240,note_on,,1,0,6,,,,,,,,,,,,,,,1,,,57,72
45240,note_on,,1,0,16,,,,,,,,,,,,,,,15,,,57,72
45240,note_on,,1,0,5,,,,,,,,,,,,,,,0,,,78,72
45240,note_on,,0,0,16,,,,,,,,,,,,,,,15,,,69,72
45240,note_on,,0,0,16,,,,,,,,,,,,,,,15,,,66,72
45240,note_on,,1,0,15,,,,,,,,,,,,,,,13,,,57,72
45240,note_on,,1,0,14,,,,,,,,,,,,,,,12,,,69,72
45240,note_on,,0,0,16,,,,,,,,,,,,,,,15,,,74,72
45299,note_on,,59,0,9,,,,,,,,,,,,,,,7,,,62,0
45299,note_on,,59,0,14,,,,,,,,,,,,,,,12,,,69,0
45299,note_on,,59,0,5,,,,,,,,,,,,,,,0,,,78,0
45299,note_on,,59,0,7,,,,,,,,,,,,,,,5,,,78,0
45299,note_on,,59,0,10,,,,,,,,,,,,,,,8,,,57,0
45299,note_on,,59,0,12,,,,,,,,,,,,,,,10,,,78,0
45299,note_on,,59,0,8,,,,,,,,,,,,,,,6,,,69,0
45299,note_on,,59,0,13,,,,,,,,,,,,,,,11,,,74,0
45299,note_on,,59,0,6,,,,,,,,,,,,,,,1,,,57,0
45299,note_on,,0,0,16,,,,,,,,,,,,,,,15,,,74,0
45299,note_on,,0,0,16,,,,,,,,,,,,,,,15,,,69,0
45299,note_on,,0,0,16,,,,,,,,,,,,,,,15,,,66,0
45299,note_on,,59,0,15,,,,,,,,,,,,,,,13,,,57,0
45299,note_on,,59,0,16,,,,,,,,,,,,,,,15,,,57,0
45300,note_on,,1,0,15,,,,,,,,,,,,,,,13,,,57,72
45300,note_on,,1,0,12,,,,,,,,,,,,,,,10,,,76,72
45300,note_on,,1,0,7,,,,,,,,,,,,,,,5,,,76,72
45300,note_on,,1,0,6,,,,,,,,,,,,,,,1,,,57,72
45300,note_on,,1,0,14,,,,,,,,,,,,,,,12,,,69,72
45300,note_on,,1,0,8,,,,,,,,,,,,,,,6,,,69,72
45300,note_on,,1,0,13,,,,,,,,,,,,,,,11,,,73,72
45300,note_on,,1,0,9,,,,,,,,,,,,,,,7,,,61,72
45300,note_on,,1,0,16,,,,,,,,,,,,,,,15,,,57,72
45300,note_on,,0,0,16,,,,,,,,,,,,,,,15,,,73,72
45300,note_on,,0,0,16,,,,,,,,,,,,,,,15,,,69,72
45300,note_on,,0,0,16,,,,,,,,,,,,,,,15,,,64,72
45300,note_on,,1,0,10,,,,,,,,,,,,,,,8,,,57,72
45300,note_on,,1,0,5,,,,,,,,,,,,,,,0,,,76,72
45329,note_on,,29,0,13,,,,,,,,,,,,,,,11,,,73,0
45329,note_on,,29,0,12,,,,,,,,,,,,,,,10,,,76,0
45330,note_on,,1,0,13,,,,,,,,,,,,,,,11,,,73,72
45330,note_on,,1,0,12,,,,,,,,,,,,,,,10,,,76,72
45359,note_on,,59,0,10,,,,,,,,,,,,,,,8,,,57,0
45359,note_on,,59,0,6,,,,,,,,,,,,,,,1,,,57,0
45359,note_on,,59,0,9,,,,,,,,,,,,,,,7,,,61,0
45359,note_on,,59,0,15,,,,,,,,,,,,,,,13,,,57,0
45359,note_on,,29,0,13,,,,,,,,,,,,,,,11,,,73,0
45359,note_on,,59,0,7,,,,,,,,,,,,,,,5,,,76,0
45359,note_on,,0,0,16,,,,,,,,,,,,,,,15,,,64,0
45359,note_on,,0,0,16,,,,,,,,,,,,,,,15,,,69,0
45359,note_on,,0,0,16,,,,,,,,,,,,,,,15,,,73,0
45359,note_on,,59,0,5,,,,,,,,,,,,,,,0,,,76,0
45359,note_on,,29,0,12,,,,,,,,,,,,,,,10,,,76,0
45359,note_on,,59,0,14,,,,,,,,,,,,,,,12,,,69,0
45359,note_on,,59,0,8,,,,,,,,,,,,,,,6,,,69,0
45359,note_on,,59,0,16,,,,,,,,,,,,,,,15,,,57,0
45360,note_on,,1,0,8,,,,,,,,,,,,,,,6,,,69,72
45360,note_on,,1,0,15,,,,,,,,,,,,,,,13,,,55,72
45360,note_on,,1,0,6,,,,,,,,,,,,,,,1,,,55,72
45360,note_on,,1,0,7,,,,,,,,,,,,,,,5,,,76,72
45360,note_on,,0,0,16,,,,,,,,,,,,,,,15,,,57,72
45360,note_on,,1,0,9,,,,,,,,,,,,,,,7,,,61,72
45360,note_on,,1,0,13,,,,,,,,,,,,,,,11,,,74,72
45360,note_on,,1,0,16,,,,,,,,,,,,,,,15,,,55,72
45360,note_on,,1,0,14,,,,,,,,,,,,,,,12,,,69,72
45360,note_on,,0,0,16,,,,,,,,,,,,,,,15,,,76,72
45360,note_on,,0,0,16,,,,,,,,,,,,,,,15,,,69,72
45360,note_on,,0,0,16,,,,,,,,,,,,,,,15,,,73,72
45360,note_on,,1,0,10,,,,,,,,,,,,,,,8,,,55,72
45360,note_on,,1,0,5,,,,,,,,,,,,,,,0,,,76,72
45360,note_on,,1,0,12,,,,,,,,,,,,,,,10,,,78,72
45389,note_on,,29,0,13,,,,,,,,,,,,,,,11,,,74,0
45389,note_on,,29,0,12,,,,,,,,,,,,,,,10,,,78,0
45390,note_on,,1,0,12,,,,,,,,,,,,,,,10,,,76,72
45390,note_on,,1,0,13,,,,,,,,,,,,,,,11,,,73,72
45419,note_on,,29,0,12,,,,,,,,,,,,,,,10,,,76,0
45419,note_on,,59,0,14,,,,,,,,,,,,,,,12,,,69,0
45419,note_on,,29,0,13,,,,,,,,,,,,,,,11,,,73,0
45419,note_on,,59,0,7,,,,,,,,,,,,,,,5,,,76,0
45419,note_on,,0,0,16,,,,,,,,,,,,,,,15,,,73,0
45419,note_on,,59,0,8,,,,,,,,,,,,,,,6,,,69,0
45419,note_on,,59,0,10,,,,,,,,,,,,,,,8,,,55,0
45419,note_on,,0,0,16,,,,,,,,,,,,,,,15,,,69,0
45419,note_on,,0,0,16,,,,,,,,,,,,,,,15,,,57,0
45419,note_on,,59,0,9,,,,,,,,,,,,,,,7,,,61,0
45419,note_on,,59,0,15,,,,,,,,,,,,,,,13,,,55,0
45419,note_on,,59,0,6,,,,,,,,,,,,,,,1,,,55,0
45419,note_on,,59,0,16,,,,,,,,,,,,,,,15,,,55,0
45419,note_on,,0,0,16,,,,,,,,,,,,,,,15,,,76,0
45419,note_on,,59,0,5,,,,,,,,,,,,,,,0,,,76,0
45420,note_on,,1,0,9,,,,,,,,,,,,,,,7,,,62,72
45420,note_on,,1,0,15,,,,,,,,,,,,,,,13,,,54,72
45420,note_on,,1,0,8,,,,,,,,,,,,,,,6,,,69,72
45420,note_on,,0,0,16,,,,,,,,,,,,,,,15,,,57,72
45420,note_on,,1,0,10,,,,,,,,,,,,,,,8,,,54,72
45420,note_on,,1,0,5,,,,,,,,,,,,,,,0,,,74,72
45420,note_on,,1,0,13,,,,,,,,,,,,,,,11,,,74,72
45420,note_on,,1,0,14,,,,,,,,,,,,,,,12,,,69,72
45420,note_on,,1,0,7,,,,,,,,,,,,,,,5,,,74,72
45420,note_on,,1,0,6,,,,,,,,,,,,,,,1,,,54,72
45420,note_on,,0,0,16,,,,,,,,,,,,,,,15,,,69,72
45420,note_on,,1,0,12,,,,,,,,,,,,,,,10,,,81,72
45420,note_on,,0,0,16,,,,,,,,,,,,,,,15,,,74,72
45420,note_on,,0,0,16,,,,,,,,,,,,,,,15,,,81,72
45420,note_on,,1,0,16,,,,,,,,,,,,,,,15,,,54,72
45449,note_on,,29,0,12,,,,,,,,,,,,,,,10,,,81,0
45449,note_on,,29,0,13,,,,,,,,,,,,,,,11,,,74,0
45450,note_on,,1,0,12,,,,,,,,,,,,,,,10,,,83,72
45450,note_on,,1,0,13,,,,,,,,,,,,,,,11,,,79,72
45479,note_on,,59,0,8,,,,,,,,,,,,,,,6,,,69,0
45479,note_on,,59,0,6,,,,,,,,,,,,,,,1,,,54,0
45479,note_on,,59,0,16,,,,,,,,,,,,,,,15,,,54,0
45479,note_on,,29,0,13,,,,,,,,,,,,,,,11,,,79,0
45479,note_on,,59,0,14,,,,,,,,,,,,,,,12,,,69,0
45479,note_on,,59,0,7,,,,,,,,,,,,,,,5,,,74,0
45479,note_on,,29,0,12,,,,,,,,,,,,,,,10,,,83,0
45479,note_on,,59,0,10,,,,,,,,,,,,,,,8,,,54,0
45479,note_on,,59,0,9,,,,,,,,,,,,,,,7,,,62,0
45479,note_on,,0,0,16,,,,,,,,,,,,,,,15,,,57,0
45479,note_on,,59,0,15,,,,,,,,,,,,,,,13,,,54,0
45479,note_on,,59,0,5,,,,,,,,,,,,,,,0,,,74,0
45480,note_on,,1,0,10,,,,,,,,,,,,,,,8,,,54,72
45480,note_on,,1,0,14,,,,,,,,,,,,,,,12,,,69,72
45480,note_on,,1,0,16,,,,,,,,,,,,,,,15,,,54,72
45480,note_on,,1,0,15,,,,,,,,,,,,,,,13,,,54,72
45480,note_on,,1,0,9,,,,,,,,,,,,,,,7,,,62,72
45480,note_on,,1,0,12,,,,,,,,,,,,,,,10,,,81,72
45480,note_on,,0,0,16,,,,,,,,,,,,,,,15,,,57,72
45480,note_on,,1,0,6,,,,,,,,,,,,,,,1,,,54,72
45480,note_on,,1,0,8,,,,,,,,,,,,,,,6,,,69,72
45480,note_on,,1,0,7,,,,,,,,,,,,,,,5,,,74,72
45480,note_on,,1,0,5,,,,,,,,,,,,,,,0,,,74,72
45480,note_on,,1,0,13,,,,,,,,,,,,,,,11,,,78,72
45509,note_on,,29,0,12,,,,,,,,,,,,,,,10,,,81,0
45510,note_on,,1,0,12,,,,,,,,,,,,,,,10,,,69,72
45539,note_on,,59,0,10,,,,,,,,,,,,,,,8,,,54,0
45539,note_on,,29,0,12,,,,,,,,,,,,,,,10,,,69,0
45539,note_on,,59,0,16,,,,,,,,,,,,,,,15,,,81,0
45539,note_on,,0,0,16,,,,,,,,,,,,,,,15,,,69,0
45539,note_on,,59,0,15,,,,,,,,,,,,,,,13,,,54,0
45539,note_on,,0,0,16,,,,,,,,,,,,,,,15,,,54,0
45539,note_on,,59,0,8,,,,,,,,,,,,,,,6,,,69,0
45539,note_on,,59,0,7,,,,,,,,,,,,,,,5,,,74,0
45539,note_on,,0,0,16,,,,,,,,,,,,,,,15,,,57,0
45539,note_on,,59,0,6,,,,,,,,,,,,,,,1,,,54,0
45539,note_on,,0,0,16,,,,,,,,,,,,,,,15,,,74,0
45539,note_on,,59,0,13,,,,,,,,,,,,,,,11,,,78,0
45539,note_on,,59,0,5,,,,,,,,,,,,,,,0,,,74,0
45539,note_on,,59,0,14,,,,,,,,,,,,,,,12,,,69,0
45539,note_on,,59,0,9,,,,,,,,,,,,,,,7,,,62,0
45540,note_on,,1,0,6,,,,,,,,,,,,,,,1,,,54,72
45540,note_on,,1,0,14,,,,,,,,,,,,,,,12,,,62,72
45540,note_on,,1,0,13,,,,,,,,,,,,,,,11,,,62,72
45540,note_on,,1,0,12,,,,,,,,,,,,,,,10,,,71,72
45540,note_on,,1,0,5,,,,,,,,,,,,,,,0,,,74,72
45540,note_on,,1,0,7,,,,,,,,,,,,,,,5,,,74,72
45540,note_on,,1,0,15,,,,,,,,,,,,,,,13,,,54,72
45540,note_on,,1,0,8,,,,,,,,,,,,,,,6,,,69,72
45540,note_on,,1,0,16,,,,,,,,,,,,,,,15,,,54,72
45540,note_on,,0,0,16,,,,,,,,,,,,,,,15,,,57,72
45540,note_on,,0,0,16,,,,,,,,,,,,,,,15,,,74,72
45540,note_on,,0,0,16,,,,,,,,,,,,,,,15,,,69,72
45540,note_on,,0,0,16,,,,,,,,,,,,,,,15,,,66,72
45540,note_on,,1,0,9,,,,,,,,,,,,,,,7,,,62,72
45540,note_on,,1,0,10,,,,,,,,,,,,,,,8,,,54,72
45569,note_on,,29,0,12,,,,,,,,,,,,,,,10,,,71,0
45570,note_on,,1,0,12,,,,,,,,,,,,,,,10,,,69,72
45599,note_on,,29,0,12,,,,,,,,,,,,,,,10,,,69,0
45599,note_on,,59,0,15,,,,,,,,,,,,,,,13,,,54,0
45599,note_on,,59,0,8,,,,,,,,,,,,,,,6,,,69,0
45599,note_on,,59,0,14,,,,,,,,,,,,,,,12,,,62,0
45599,note_on,,59,0,5,,,,,,,,,,,,,,,0,,,74,0
45599,note_on,,59,0,10,,,,,,,,,,,,,,,8,,,54,0
45599,note_on,,59,0,13,,,,,,,,,,,,,,,11,,,62,0
45599,note_on,,59,0,6,,,,,,,,,,,,,,,1,,,54,0
45599,note_on,,0,0,16,,,,,,,,,,,,,,,15,,,66,0
45599,note_on,,0,0,16,,,,,,,,,,,,,,,15,,,69,0
45599,note_on,,0,0,16,,,,,,,,,,,,,,,15,,,74,0
45599,note_on,,0,0,16,,,,,,,,,,,,,,,15,,,57,0
45599,note_on,,59,0,16,,,,,,,,,,,,,,,15,,,54,0
45599,note_on,,59,0,9,,,,,,,,,,,,,,,7,,,62,0
45599,note_on,,59,0,7,,,,,,,,,,,,,,,5,,,74,0
45600,note_on,,1,0,12,,,,,,,,,,,,,,,10,,,79,72
45600,note_on,,1,0,5,,,,,,,,,,,,,,,0,,,73,72
45600,note_on,,1,0,6,,,,,,,,,,,,,,,1,,,52,72
45600,note_on,,1,0,9,,,,,,,,,,,,,,,7,,,64,72
45600,note_on,,1,0,8,,,,,,,,,,,,,,,6,,,67,72
45600,note_on,,0,0,16,,,,,,,,,,,,,,,15,,,67,72
45600,note_on,,1,0,16,,,,,,,,,,,,,,,15,,,52,72
45600,note_on,,0,0,16,,,,,,,,,,,,,,,15,,,55,72
45600,note_on,,1,0,10,,,,,,,,,,,,,,,8,,,52,72
45600,note_on,,0,0,16,,,,,,,,,,,,,,,15,,,79,72
45600,note_on,,0,0,16,,,,,,,,,,,,,,,15,,,73,72
45600,note_on,,1,0,7,,,,,,,,,,,,,,,5,,,73,72
45600,note_on,,1,0,13,,,,,,,,,,,,,,,11,,,73,72
45600,note_on,,1,0,15,,,,,,,,,,,,,,,13,,,52,72
45600,note_on,,1,0,14,,,,,,,,,,,,,,,12,,,67,72
45629,note_on,,29,0,12,,,,,,,,,,,,,,,10,,,79,0
45629,note_on,,29,0,13,,,,,,,,,,,,,,,11,,,73,0
45630,note_on,,1,0,13,,,,,,,,,,,,,,,11,,,74,72
45630,note_on,,1,0,12,,,,,,,,,,,,,,,10,,,81,72
45659,note_on,,59,0,9,,,,,,,,,,,,,,,7,,,64,0
45659,note_on,,59,0,15,,,,,,,,,,,,,,,13,,,52,0
45659,note_on,,59,0,6,,,,,,,,,,,,,,,1,,,52,0
45659,note_on,,0,0,16,,,,,,,,,,,,,,,15,,,55,0
45659,note_on,,59,0,16,,,,,,,,,,,,,,,15,,,52,0
45659,note_on,,29,0,13,,,,,,,,,,,,,,,11,,,74,0
45659,note_on,,59,0,14,,,,,,,,,,,,,,,12,,,67,0
45659,note_on,,59,0,7,,,,,,,,,,,,,,,5,,,73,0
45659,note_on,,59,0,8,,,,,,,,,,,,,,,6,,,67,0
45659,note_on,,59,0,5,,,,,,,,,,,,,,,0,,,73,0
45659,note_on,,29,0,12,,,,,,,,,,,,,,,10,,,81,0
45659,note_on,,59,0,10,,,,,,,,,,,,,,,8,,,52,0
45660,note_on,,1,0,14,,,,,,,,,,,,,,,12,,,67,72
45660,note_on,,1,0,15,,,,,,,,,,,,,,,13,,,52,72
45660,note_on,,1,0,12,,,,,,,,,,,,,,,10,,,79,72
45660,note_on,,1,0,16,,,,,,,,,,,,,,,15,,,52,72
45660,note_on,,1,0,9,,,,,,,,,,,,,,,7,,,64,72
45660,note_on,,1,0,10,,,,,,,,,,,,,,,8,,,52,72
45660,note_on,,1,0,13,,,,,,,,,,,,,,,11,,,73,72
45660,note_on,,1,0,8,,,,,,,,,,,,,,,6,,,67,72
45660,note_on,,0,0,16,,,,,,,,,,,,,,,15,,,55,72
45660,note_on,,1,0,7,,,,,,,,,,,,,,,5,,,73,72
45660,note_on,,1,0,5,,,,,,,,,,,,,,,0,,,73,72
45660,note_on,,1,0,6,,,,,,,,,,,,,,,1,,,52,72
45689,note_on,,29,0,12,,,,,,,,,,,,,,,10,,,79,0
45690,note_on,,1,0,12,,,,,,,,,,,,,,,10,,,69,72
45719,note_on,,0,0,16,,,,,,,,,,,,,,,15,,,67,0
45719,note_on,,0,0,16,,,,,,,,,,,,,,,15,,,73,0
45719,note_on,,59,0,16,,,,,,,,,,,,,,,15,,,79,0
45719,note_on,,59,0,7,,,,,,,,,,,,,,,5,,,73,0
45719,note_on,,59,0,6,,,,,,,,,,,,,,,1,,,52,0
45719,note_on,,59,0,14,,,,,,,,,,,,,,,12,,,67,0
45719,note_on,,0,0,16,,,,,,,,,,,,,,,15,,,52,0
45719,note_on,,59,0,13,,,,,,,,,,,,,,,11,,,73,0
45719,note_on,,29,0,12,,,,,,,,,,,,,,,10,,,69,0
45719,note_on,,59,0,5,,,,,,,,,,,,,,,0,,,73,0
45719,note_on,,59,0,8,,,,,,,,,,,,,,,6,,,67,0
45719,note_on,,59,0,15,,,,,,,,,,,,,,,13,,,52,0
45719,note_on,,0,0,16,,,,,,,,,,,,,,,15,,,55,0
45719,note_on,,59,0,10,,,,,,,,,,,,,,,8,,,52,0
45719,note_on,,59,0,9,,,,,,,,,,,,,,,7,,,64,0
45720,note_on,,0,0,16,,,,,,,,,,,,,,,15,,,67,72
45720,note_on,,1,0,12,,,,,,,,,,,,,,,10,,,71,72
45720,note_on,,1,0,15,,,,,,,,,,,,,,,13,,,52,72
45720,note_on,,1,0,6,,,,,,,,,,,,,,,1,,,52,72
45720,note_on,,1,0,5,,,,,,,,,,,,,,,0,,,73,72
45720,note_on,,1,0,7,,,,,,,,,,,,,,,5,,,73,72
45720,note_on,,1,0,10,,,,,,,,,,,,,,,8,,,52,72
45720,note_on,,1,0,14,,,,,,,,,,,,,,,12,,,67,72
45720,note_on,,1,0,8,,,,,,,,,,,,,,,6,,,67,72
45720,note_on,,1,0,13,,,,,,,,,,,,,,,11,,,61,72
45720,note_on,,1,0,16,,,,,,,,,,,,,,,15,,,52,72
45720,note_on,,0,0,16,,,,,,,,,,,,,,,15,,,55,72
45720,note_on,,0,0,16,,,,,,,,,,,,,,,15,,,73,72
45720,note_on,,0,0,16,,,,,,,,,,,,,,,15,,,64,72
45720,note_on,,1,0,9,,,,,,,,,,,,,,,7,,,64,72
45749,note_on,,29,0,12,,,,,,,,,,,,,,,10,,,71,0
45750,note_on,,1,0,12,,,,,,,,,,,,,,,10,,,69,72
45779,note_on,,29,0,12,,,,,,,,,,,,,,,10,,,69,0
45779,note_on,,59,0,14,,,,,,,,,,,,,,,12,,,67,0
45779,note_on,,59,0,5,,,,,,,,,,,,,,,0,,,73,0
45779,note_on,,59,0,7,,,,,,,,,,,,,,,5,,,73,0
45779,note_on,,59,0,10,,,,,,,,,,,,,,,8,,,52,0
45779,note_on,,59,0,8,,,,,,,,,,,,,,,6,,,67,0
45779,note_on,,59,0,6,,,,,,,,,,,,,,,1,,,52,0
45779,note_on,,59,0,13,,,,,,,,,,,,,,,11,,,61,0
45779,note_on,,59,0,15,,,,,,,,,,,,,,,13,,,52,0
45779,note_on,,0,0,16,,,,,,,,,,,,,,,15,,,64,0
45779,note_on,,0,0,16,,,,,,,,,,,,,,,15,,,73,0
45779,note_on,,0,0,16,,,,,,,,,,,,,,,15,,,67,0
45779,note_on,,59,0,16,,,,,,,,,,,,,,,15,,,52,0
45779,note_on,,0,0,16,,,,,,,,,,,,,,,15,,,55,0
45779,note_on,,59,0,9,,,,,,,,,,,,,,,7,,,64,0
45780,note_on,,1,0,5,,,,,,,,,,,,,,,0,,,74,72
45780,note_on,,1,0,10,,,,,,,,,,,,,,,8,,,50,72
45780,note_on,,1,0,13,,,,,,,,,,,,,,,11,,,74,72
45780,note_on,,1,0,7,,,,,,,,,,,,,,,5,,,74,72
45780,note_on,,1,0,9,,,,,,,,,,,,,,,7,,,66,72
45780,note_on,,1,0,16,,,,,,,,,,,,,,,15,,,50,72
45780,note_on,,0,0,16,,,,,,,,,,,,,,,15,,,78,72
45780,note_on,,0,0,16,,,,,,,,,,,,,,,15,,,74,72
45780,note_on,,1,0,14,,,,,,,,,,,,,,,12,,,69,72
45780,note_on,,0,0,16,,,,,,,,,,,,,,,15,,,69,72
45780,note_on,,1,0,6,,,,,,,,,,,,,,,1,,,50,72
45780,note_on,,0,0,16,,,,,,,,,,,,,,,15,,,57,72
45780,note_on,,1,0,8,,,,,,,,,,,,,,,6,,,69,72
45780,note_on,,1,0,12,,,,,,,,,,,,,,,10,,,78,72
45780,note_on,,1,0,15,,,,,,,,,,,,,,,13,,,50,72
45809,note_on,,29,0,12,,,,,,,,,,,,,,,10,,,78,0
45809,note_on,,29,0,13,,,,,,,,,,,,,,,11,,,74,0
45810,note_on,,1,0,12,,,,,,,,,,,,,,,10,,,79,72
45810,note_on,,1,0,13,,,,,,,,,,,,,,,11,,,76,72
45839,note_on,,29,0,13,,,,,,,,,,,,,,,11,,,76,0
45839,note_on,,29,0,12,,,,,,,,,,,,,,,10,,,79,0
45840,note_on,,1,0,12,,,,,,,,,,,,,,,10,,,78,72
45840,note_on,,1,0,13,,,,,,,,,,,,,,,11,,,74,72
45869,note_on,,29,0,13,,,,,,,,,,,,,,,11,,,74,0
45869,note_on,,29,0,12,,,,,,,,,,,,,,,10,,,78,0
45870,note_on,,1,0,13,,,,,,,,,,,,,,,11,,,66,72
45870,note_on,,1,0,12,,,,,,,,,,,,,,,10,,,69,72
45899,note_on,,29,0,12,,,,,,,,,,,,,,,10,,,69,0
45899,note_on,,29,0,13,,,,,,,,,,,,,,,11,,,66,0
45900,note_on,,1,0,13,,,,,,,,,,,,,,,11,,,67,72
45900,note_on,,1,0,12,,,,,,,,,,,,,,,10,,,71,72
45929,note_on,,29,0,12,,,,,,,,,,,,,,,10,,,71,0
45929,note_on,,29,0,13,,,,,,,,,,,,,,,11,,,67,0
45930,note_on,,1,0,12,,,,,,,,,,,,,,,10,,,69,72
45930,note_on,,1,0,13,,,,,,,,,,,,,,,11,,,66,72
45959,note_on,,0,0,16,,,,,,,,,,,,,,,15,,,57,0
45959,note_on,,179,0,10,,,,,,,,,,,,,,,8,,,50,0
45959,note_on,,179,0,14,,,,,,,,,,,,,,,12,,,69,0
45959,note_on,,0,0,16,,,,,,,,,,,,,,,15,,,69,0
45959,note_on,,0,0,16,,,,,,,,,,,,,,,15,,,74,0
45959,note_on,,0,0,16,,,,,,,,,,,,,,,15,,,78,0
45959,note_on,,179,0,16,,,,,,,,,,,,,,,15,,,50,0
45959,note_on,,179,0,15,,,,,,,,,,,,,,,13,,,50,0
45959,note_on,,179,0,9,,,,,,,,,,,,,,,7,,,66,0
45959,note_on,,29,0,13,,,,,,,,,,,,,,,11,,,66,0
45959,note_on,,179,0,6,,,,,,,,,,,,,,,1,,,50,0
45959,note_on,,179,0,8,,,,,,,,,,,,,,,6,,,69,0
45959,note_on,,29,0,12,,,,,,,,,,,,,,,10,,,69,0
45959,note_on,,179,0,5,,,,,,,,,,,,,,,0,,,74,0
45959,note_on,,179,0,7,,,,,,,,,,,,,,,5,,,74,0
45960,note_on,,1,0,6,,,,,,,,,,,,,,,1,,,45,72
45960,note_on,,1,0,8,,,,,,,,,,,,,,,6,,,69,72
45960,note_on,,0,0,16,,,,,,,,,,,,,,,15,,,57,72
45960,note_on,,1,0,13,,,,,,,,,,,,,,,11,,,64,72
45960,note_on,,0,0,16,,,,,,,,,,,,,,,15,,,69,72
45960,note_on,,0,0,16,,,,,,,,,,,,,,,15,,,73,72
45960,note_on,,1,0,10,,,,,,,,,,,,,,,8,,,57,72
45960,note_on,,1,0,16,,,,,,,,,,,,,,,15,,,45,72
45960,note_on,,1,0,7,,,,,,,,,,,,,,,5,,,73,72
45960,note_on,,1,0,12,,,,,,,,,,,,,,,10,,,73,72
45960,note_on,,0,0,16,,,,,,,,,,,,,,,15,,,76,72
45960,note_on,,1,0,5,,,,,,,,,,,,,,,0,,,73,72
45960,note_on,,1,0,15,,,,,,,,,,,,,,,13,,,45,72
45960,note_on,,1,0,14,,,,,,,,,,,,,,,12,,,69,72
45960,note_on,,1,0,9,,,,,,,,,,,,,,,7,,,64,72
45989,note_on,,29,0,13,,,,,,,,,,,,,,,11,,,64,0
45989,note_on,,29,0,12,,,,,,,,,,,,,,,10,,,73,0
45990,note_on,,1,0,12,,,,,,,,,,,,,,,10,,,74,72
45990,note_on,,1,0,13,,,,,,,,,,,,,,,11,,,66,72
46019,note_on,,29,0,12,,,,,,,,,,,,,,,10,,,74,0
46019,note_on,,29,0,13,,,,,,,,,,,,,,,11,,,66,0
46020,note_on,,1,0,12,,,,,,,,,,,,,,,10,,,73,72
46020,note_on,,1,0,13,,,,,,,,,,,,,,,11,,,64,72
46079,note_on,,119,0,6,,,,,,,,,,,,,,,1,,,45,0
46079,note_on,,119,0,5,,,,,,,,,,,,,,,0,,,73,0
46079,note_on,,59,0,13,,,,,,,,,,,,,,,11,,,64,0
46079,note_on,,119,0,10,,,,,,,,,,,,,,,8,,,57,0
46079,note_on,,0,0,16,,,,,,,,,,,,,,,15,,,69,0
46079,note_on,,119,0,15,,,,,,,,,,,,,,,13,,,45,0
46079,note_on,,119,0,16,,,,,,,,,,,,,,,15,,,45,0
46079,note_on,,0,0,16,,,,,,,,,,,,,,,15,,,76,0
46079,note_on,,0,0,16,,,,,,,,,,,,,,,15,,,73,0
46079,note_on,,119,0,8,,,,,,,,,,,,,,,6,,,69,0
46079,note_on,,0,0,16,,,,,,,,,,,,,,,15,,,57,0
46079,note_on,,119,0,7,,,,,,,,,,,,,,,5,,,73,0
46079,note_on,,119,0,9,,,,,,,,,,,,,,,7,,,64,0
46079,note_on,,59,0,12,,,,,,,,,,,,,,,10,,,73,0
46080,note_on,,0,0,16,,,,,,,,,,,,,,,15,,,69,72
46080,note_on,,0,0,16,,,,,,,,,,,,,,,15,,,81,72
46080,note_on,,1,0,16,,,,,,,,,,,,,,,15,,,57,72
46080,note_on,,0,0,16,,,,,,,,,,,,,,,15,,,61,72
46080,note_on,,1,0,6,,,,,,,,,,,,,,,1,,,57,72
46080,note_on,,1,0,7,,,,,,,,,,,,,,,5,,,73,72
46080,note_on,,1,0,12,,,,,,,,,,,,,,,10,,,76,72
46080,note_on,,1,0,13,,,,,,,,,,,,,,,11,,,73,72
46080,note_on,,0,0,16,,,,,,,,,,,,,,,15,,,76,72
46080,note_on,,1,0,15,,,,,,,,,,,,,,,13,,,57,72
46080,note_on,,1,0,5,,,,,,,,,,,,,,,0,,,73,72
46080,note_on,,1,0,10,,,,,,,,,,,,,,,8,,,57,72
46080,note_on,,1,0,9,,,,,,,,,,,,,,,7,,,64,72
46080,note_on,,1,0,8,,,,,,,,,,,,,,,6,,,69,72
46094,note_on,,14,0,9,,,,,,,,,,,,,,,7,,,64,0
46094,note_on,,14,0,7,,,,,,,,,,,,,,,5,,,73,0
46094,note_on,,14,0,5,,,,,,,,,,,,,,,0,,,73,0
46095,note_on,,1,0,7,,,,,,,,,,,,,,,5,,,74,72
46095,note_on,,1,0,9,,,,,,,,,,,,,,,7,,,66,72
46095,note_on,,1,0,5,,,,,,,,,,,,,,,0,,,74,72
46109,note_on,,14,0,9,,,,,,,,,,,,,,,7,,,66,0
46109,note_on,,14,0,5,,,,,,,,,,,,,,,0,,,74,0
46109,note_on,,14,0,7,,,,,,,,,,,,,,,5,,,74,0
46110,note_on,,1,0,5,,,,,,,,,,,,,,,0,,,76,72
46110,note_on,,1,0,9,,,,,,,,,,,,,,,7,,,67,72
46110,note_on,,1,0,7,,,,,,,,,,,,,,,5,,,76,72
46139,note_on,,59,0,10,,,,,,,,,,,,,,,8,,,57,0
46139,note_on,,59,0,12,,,,,,,,,,,,,,,10,,,76,0
46139,note_on,,59,0,13,,,,,,,,,,,,,,,11,,,73,0
46139,note_on,,0,0,16,,,,,,,,,,,,,,,15,,,69,0
46139,note_on,,29,0,5,,,,,,,,,,,,,,,0,,,76,0
46139,note_on,,0,0,16,,,,,,,,,,,,,,,15,,,61,0
46139,note_on,,59,0,15,,,,,,,,,,,,,,,13,,,57,0
46139,note_on,,0,0,16,,,,,,,,,,,,,,,15,,,76,0
46139,note_on,,0,0,16,,,,,,,,,,,,,,,15,,,81,0
46139,note_on,,59,0,16,,,,,,,,,,,,,,,15,,,57,0
46139,note_on,,59,0,8,,,,,,,,,,,,,,,6,,,69,0
46139,note_on,,179,0,14,,,,,,,,,,,,,,,12,,,69,0
46139,note_on,,29,0,9,,,,,,,,,,,,,,,7,,,67,0
46139,note_on,,59,0,6,,,,,,,,,,,,,,,1,,,57,0
46139,note_on,,29,0,7,,,,,,,,,,,,,,,5,,,76,0
46140,note_on,,1,0,7,,,,,,,,,,,,,,,5,,,74,72
46140,note_on,,1,0,5,,,,,,,,,,,,,,,0,,,74,72
46140,note_on,,1,0,8,,,,,,,,,,,,,,,6,,,69,72
46140,note_on,,1,0,9,,,,,,,,,,,,,,,7,,,66,72
46140,note_on,,1,0,10,,,,,,,,,,,,,,,8,,,62,72
46140,note_on,,1,0,15,,,,,,,,,,,,,,,13,,,62,72
46140,note_on,,1,0,16,,,,,,,,,,,,,,,15,,,62,72
46140,note_on,,0,0,16,,,,,,,,,,,,,,,15,,,78,72
46140,note_on,,0,0,16,,,,,,,,,,,,,,,15,,,74,72
46140,note_on,,0,0,16,,,,,,,,,,,,,,,15,,,69,72
46140,note_on,,0,0,16,,,,,,,,,,,,,,,15,,,66,72
46140,note_on,,1,0,6,,,,,,,,,,,,,,,1,,,62,72
46259,note_on,,119,0,8,,,,,,,,,,,,,,,6,,,69,0
46259,note_on,,119,0,7,,,,,,,,,,,,,,,5,,,74,0
46259,note_on,,119,0,10,,,,,,,,,,,,,,,8,,,62,0
46259,note_on,,0,0,16,,,,,,,,,,,,,,,15,,,69,0
46259,note_on,,119,0,9,,,,,,,,,,,,,,,7,,,66,0
46259,note_on,,0,0,16,,,,,,,,,,,,,,,15,,,66,0
46259,note_on,,119,0,6,,,,,,,,,,,,,,,1,,,62,0
46259,note_on,,119,0,5,,,,,,,,,,,,,,,0,,,74,0
46259,note_on,,0,0,16,,,,,,,,,,,,,,,15,,,74,0
46259,note_on,,0,0,16,,,,,,,,,,,,,,,15,,,78,0
46259,note_on,,119,0,15,,,,,,,,,,,,,,,13,,,62,0
46259,note_on,,119,0,16,,,,,,,,,,,,,,,15,,,62,0
46260,note_on,,121,0,13,,,,,,,,,,,,,,,11,,,73,72
46260,note_on,,121,0,14,,,,,,,,,,,,,,,12,,,69,72
46260,note_on,,121,0,12,,,,,,,,,,,,,,,10,,,76,72
46274,note_on,,14,0,13,,,,,,,,,,,,,,,11,,,73,0
46274,note_on,,14,0,12,,,,,,,,,,,,,,,10,,,76,0
46275,note_on,,1,0,13,,,,,,,,,,,,,,,11,,,74,72
46275,note_on,,1,0,12,,,,,,,,,,,,,,,10,,,78,72
46289,note_on,,14,0,12,,,,,,,,,,,,,,,10,,,78,0
46289,note_on,,14,0,13,,,,,,,,,,,,,,,11,,,74,0
46290,note_on,,1,0,12,,,,,,,,,,,,,,,10,,,79,72
46290,note_on,,1,0,13,,,,,,,,,,,,,,,11,,,76,72
46319,note_on,,59,0,14,,,,,,,,,,,,,,,12,,,69,0
46319,note_on,,29,0,12,,,,,,,,,,,,,,,10,,,79,0
46319,note_on,,29,0,13,,,,,,,,,,,,,,,11,,,76,0
46320,note_on,,1,0,14,,,,,,,,,,,,,,,12,,,62,72
46320,note_on,,1,0,12,,,,,,,,,,,,,,,10,,,78,72
46320,note_on,,1,0,13,,,,,,,,,,,,,,,11,,,74,72
46349,note_on,,29,0,12,,,,,,,,,,,,,,,10,,,78,0
46350,note_on,,1,0,12,,,,,,,,,,,,,,,10,,,76,72
46379,note_on,,59,0,13,,,,,,,,,,,,,,,11,,,74,0
46379,note_on,,29,0,12,,,,,,,,,,,,,,,10,,,76,0
46379,note_on,,59,0,14,,,,,,,,,,,,,,,12,,,62,0
46380,note_on,,1,0,13,,,,,,,,,,,,,,,11,,,69,72
46380,note_on,,1,0,12,,,,,,,,,,,,,,,10,,,74,72
46380,note_on,,1,0,14,,,,,,,,,,,,,,,12,,,66,72
46439,note_on,,59,0,14,,,,,,,,,,,,,,,12,,,66,0
46439,note_on,,59,0,13,,,,,,,,,,,,,,,11,,,69,0
46439,note_on,,59,0,12,,,,,,,,,,,,,,,10,,,74,0
46440,note_on,,181,0,15,,,,,,,,,,,,,,,13,,,55,72
46440,note_on,,181,0,5,,,,,,,,,,,,,,,0,,,76,72
46440,note_on,,181,0,16,,,,,,,,,,,,,,,15,,,55,72
46440,note_on,,181,0,9,,,,,,,,,,,,,,,7,,,59,72
46440,note_on,,0,0,16,,,,,,,,,,,,,,,15,,,79,72
46440,note_on,,0,0,16,,,,,,,,,,,,,,,15,,,74,72
46440,note_on,,0,0,16,,,,,,,,,,,,,,,15,,,71,72
46440,note_on,,0,0,16,,,,,,,,,,,,,,,15,,,62,72
46440,note_on,,181,0,10,,,,,,,,,,,,,,,8,,,55,72
46440,note_on,,181,0,6,,,,,,,,,,,,,,,1,,,55,72
46440,note_on,,181,0,7,,,,,,,,,,,,,,,5,,,76,72
46440,note_on,,181,0,8,,,,,,,,,,,,,,,6,,,67,72
46454,note_on,,14,0,8,,,,,,,,,,,,,,,6,,,67,0
46454,note_on,,14,0,5,,,,,,,,,,,,,,,0,,,76,0
46454,note_on,,14,0,7,,,,,,,,,,,,,,,5,,,76,0
46455,note_on,,1,0,8,,,,,,,,,,,,,,,6,,,69,72
46455,note_on,,1,0,7,,,,,,,,,,,,,,,5,,,78,72
46455,note_on,,1,0,5,,,,,,,,,,,,,,,0,,,78,72
46469,note_on,,14,0,8,,,,,,,,,,,,,,,6,,,69,0
46469,note_on,,14,0,7,,,,,,,,,,,,,,,5,,,78,0
46469,note_on,,14,0,5,,,,,,,,,,,,,,,0,,,78,0
46470,note_on,,1,0,8,,,,,,,,,,,,,,,6,,,71,72
46470,note_on,,1,0,7,,,,,,,,,,,,,,,5,,,79,72
46470,note_on,,1,0,5,,,,,,,,,,,,,,,0,,,79,72
46499,note_on,,59,0,9,,,,,,,,,,,,,,,7,,,59,0
46499,note_on,,29,0,7,,,,,,,,,,,,,,,5,,,79,0
46499,note_on,,29,0,8,,,,,,,,,,,,,,,6,,,71,0
46499,note_on,,59,0,15,,,,,,,,,,,,,,,13,,,55,0
46499,note_on,,59,0,16,,,,,,,,,,,,,,,15,,,55,0
46499,note_on,,0,0,16,,,,,,,,,,,,,,,15,,,79,0
46499,note_on,,59,0,6,,,,,,,,,,,,,,,1,,,55,0
46499,note_on,,0,0,16,,,,,,,,,,,,,,,15,,,71,0
46499,note_on,,29,0,5,,,,,,,,,,,,,,,0,,,79,0
46499,note_on,,0,0,16,,,,,,,,,,,,,,,15,,,74,0
46499,note_on,,0,0,16,,,,,,,,,,,,,,,15,,,62,0
46499,note_on,,59,0,10,,,,,,,,,,,,,,,8,,,55,0
46500,note_on,,1,0,10,,,,,,,,,,,,,,,8,,,62,72
46500,note_on,,0,0,16,,,,,,,,,,,,,,,15,,,74,72
46500,note_on,,1,0,16,,,,,,,,,,,,,,,15,,,62,72
46500,note_on,,0,0,16,,,,,,,,,,,,,,,15,,,69,72
46500,note_on,,1,0,8,,,,,,,,,,,,,,,6,,,69,72
46500,note_on,,1,0,15,,,,,,,,,,,,,,,13,,,62,72
46500,note_on,,0,0,16,,,,,,,,,,,,,,,15,,,78,72
46500,note_on,,1,0,9,,,,,,,,,,,,,,,7,,,66,72
46500,note_on,,0,0,16,,,,,,,,,,,,,,,15,,,66,72
46500,note_on,,1,0,7,,,,,,,,,,,,,,,5,,,78,72
46500,note_on,,1,0,5,,,,,,,,,,,,,,,0,,,78,72
46500,note_on,,1,0,6,,,,,,,,,,,,,,,1,,,62,72
46529,note_on,,29,0,7,,,,,,,,,,,,,,,5,,,78,0
46529,note_on,,29,0,8,,,,,,,,,,,,,,,6,,,69,0
46529,note_on,,29,0,5,,,,,,,,,,,,,,,0,,,78,0
46530,note_on,,1,0,8,,,,,,,,,,,,,,,6,,,67,72
46530,note_on,,1,0,5,,,,,,,,,,,,,,,0,,,76,72
46530,note_on,,1,0,7,,,,,,,,,,,,,,,5,,,76,72
46559,note_on,,29,0,5,,,,,,,,,,,,,,,0,,,76,0
46559,note_on,,29,0,8,,,,,,,,,,,,,,,6,,,67,0
46559,note_on,,29,0,7,,,,,,,,,,,,,,,5,,,76,0
46560,note_on,,1,0,8,,,,,,,,,,,,,,,6,,,66,72
46560,note_on,,1,0,5,,,,,,,,,,,,,,,0,,,74,72
46560,note_on,,1,0,7,,,,,,,,,,,,,,,5,,,74,72
46619,note_on,,0,0,16,,,,,,,,,,,,,,,15,,,69,0
46619,note_on,,0,0,16,,,,,,,,,,,,,,,15,,,78,0
46619,note_on,,119,0,16,,,,,,,,,,,,,,,15,,,62,0
46619,note_on,,59,0,7,,,,,,,,,,,,,,,5,,,74,0
46619,note_on,,119,0,9,,,,,,,,,,,,,,,7,,,66,0
46619,note_on,,119,0,10,,,,,,,,,,,,,,,8,,,62,0
46619,note_on,,0,0,16,,,,,,,,,,,,,,,15,,,74,0
46619,note_on,,0,0,16,,,,,,,,,,,,,,,15,,,66,0
46619,note_on,,119,0,6,,,,,,,,,,,,,,,1,,,62,0
46619,note_on,,119,0,15,,,,,,,,,,,,,,,13,,,62,0
46619,note_on,,59,0,8,,,,,,,,,,,,,,,6,,,66,0
46619,note_on,,59,0,5,,,,,,,,,,,,,,,0,,,74,0
46620,note_on,,181,0,13,,,,,,,,,,,,,,,11,,,76,72
46620,note_on,,181,0,12,,,,,,,,,,,,,,,10,,,79,72
46620,note_on,,181,0,14,,,,,,,,,,,,,,,12,,,67,72
46634,note_on,,14,0,13,,,,,,,,,,,,,,,11,,,76,0
46634,note_on,,14,0,12,,,,,,,,,,,,,,,10,,,79,0
46635,note_on,,1,0,13,,,,,,,,,,,,,,,11,,,78,72
46635,note_on,,1,0,12,,,,,,,,,,,,,,,10,,,81,72
46649,note_on,,14,0,13,,,,,,,,,,,,,,,11,,,78,0
46649,note_on,,14,0,12,,,,,,,,,,,,,,,10,,,81,0
46650,note_on,,1,0,13,,,,,,,,,,,,,,,11,,,79,72
46650,note_on,,1,0,12,,,,,,,,,,,,,,,10,,,83,72
46679,note_on,,29,0,12,,,,,,,,,,,,,,,10,,,83,0
46679,note_on,,29,0,13,,,,,,,,,,,,,,,11,,,79,0
46679,note_on,,59,0,14,,,,,,,,,,,,,,,12,,,67,0
46680,note_on,,1,0,12,,,,,,,,,,,,,,,10,,,81,72
46680,note_on,,1,0,13,,,,,,,,,,,,,,,11,,,78,72
46680,note_on,,1,0,14,,,,,,,,,,,,,,,12,,,74,72
46709,note_on,,29,0,12,,,,,,,,,,,,,,,10,,,81,0
46709,note_on,,29,0,13,,,,,,,,,,,,,,,11,,,78,0
46710,note_on,,1,0,13,,,,,,,,,,,,,,,11,,,76,72
46710,note_on,,1,0,12,,,,,,,,,,,,,,,10,,,79,72
46739,note_on,,29,0,13,,,,,,,,,,,,,,,11,,,76,0
46739,note_on,,29,0,12,,,,,,,,,,,,,,,10,,,79,0
46739,note_on,,59,0,14,,,,,,,,,,,,,,,12,,,74,0
46740,note_on,,1,0,14,,,,,,,,,,,,,,,12,,,69,72
46740,note_on,,1,0,13,,,,,,,,,,,,,,,11,,,74,72
46740,note_on,,1,0,12,,,,,,,,,,,,,,,10,,,78,72
46769,note_on,,29,0,12,,,,,,,,,,,,,,,10,,,78,0
46770,note_on,,1,0,12,,,,,,,,,,,,,,,10,,,81,72
46799,note_on,,59,0,14,,,,,,,,,,,,,,,12,,,69,0
46799,note_on,,59,0,13,,,,,,,,,,,,,,,11,,,74,0
46799,note_on,,29,0,12,,,,,,,,,,,,,,,10,,,81,0
46800,note_on,,0,0,16,,,,,,,,,,,,,,,15,,,69,72
46800,note_on,,181,0,6,,,,,,,,,,,,,,,1,,,61,72
46800,note_on,,181,0,5,,,,,,,,,,,,,,,0,,,69,72
46800,note_on,,181,0,15,,,,,,,,,,,,,,,13,,,61,72
46800,note_on,,181,0,8,,,,,,,,,,,,,,,6,,,69,72
46800,note_on,,1,0,13,,,,,,,,,,,,,,,11,,,81,72
46800,note_on,,181,0,9,,,,,,,,,,,,,,,7,,,64,72
46800,note_on,,0,0,16,,,,,,,,,,,,,,,15,,,76,72
46800,note_on,,181,0,16,,,,,,,,,,,,,,,15,,,61,72
46800,note_on,,1,0,14,,,,,,,,,,,,,,,12,,,64,72
46800,note_on,,1,0,12,,,,,,,,,,,,,,,10,,,83,72
46800,note_on,,0,0,16,,,,,,,,,,,,,,,15,,,81,72
46800,note_on,,181,0,10,,,,,,,,,,,,,,,8,,,61,72
46800,note_on,,0,0,16,,,,,,,,,,,,,,,15,,,64,72
46800,note_on,,181,0,7,,,,,,,,,,,,,,,5,,,69,72
46829,note_on,,29,0,12,,,,,,,,,,,,,,,10,,,83,0
46830,note_on,,1,0,12,,,,,,,,,,,,,,,10,,,85,72
46859,note_on,,59,0,6,,,,,,,,,,,,,,,1,,,61,0
46859,note_on,,59,0,5,,,,,,,,,,,,,,,0,,,69,0
46859,note_on,,59,0,16,,,,,,,,,,,,,,,15,,,61,0
46859,note_on,,59,0,7,,,,,,,,,,,,,,,5,,,69,0
46859,note_on,,59,0,15,,,,,,,,,,,,,,,13,,,61,0
46859,note_on,,0,0,16,,,,,,,,,,,,,,,15,,,81,0
46859,note_on,,59,0,14,,,,,,,,,,,,,,,12,,,64,0
46859,note_on,,0,0,16,,,,,,,,,,,,,,,15,,,76,0
46859,note_on,,59,0,13,,,,,,,,,,,,,,,11,,,81,0
46859,note_on,,59,0,9,,,,,,,,,,,,,,,7,,,64,0
46859,note_on,,0,0,16,,,,,,,,,,,,,,,15,,,69,0
46859,note_on,,29,0,12,,,,,,,,,,,,,,,10,,,85,0
46859,note_on,,0,0,16,,,,,,,,,,,,,,,15,,,64,0
46859,note_on,,59,0,10,,,,,,,,,,,,,,,8,,,61,0
46859,note_on,,59,0,8,,,,,,,,,,,,,,,6,,,69,0
46860,note_on,,1,0,14,,,,,,,,,,,,,,,12,,,62,72
46860,note_on,,1,0,12,,,,,,,,,,,,,,,10,,,86,72
46860,note_on,,0,0,16,,,,,,,,,,,,,,,15,,,71,72
46860,note_on,,0,0,16,,,,,,,,,,,,,,,15,,,66,72
46860,note_on,,1,0,15,,,,,,,,,,,,,,,13,,,59,72
46860,note_on,,1,0,8,,,,,,,,,,,,,,,6,,,66,72
46860,note_on,,1,0,6,,,,,,,,,,,,,,,1,,,59,72
46860,note_on,,1,0,13,,,,,,,,,,,,,,,11,,,78,72
46860,note_on,,0,0,16,,,,,,,,,,,,,,,15,,,62,72
46860,note_on,,0,0,16,,,,,,,,,,,,,,,15,,,74,72
46860,note_on,,1,0,16,,,,,,,,,,,,,,,15,,,59,72
46860,note_on,,1,0,5,,,,,,,,,,,,,,,0,,,74,72
46860,note_on,,1,0,7,,,,,,,,,,,,,,,5,,,74,72
46860,note_on,,1,0,10,,,,,,,,,,,,,,,8,,,59,72
46860,note_on,,1,0,9,,,,,,,,,,,,,,,7,,,62,72
46919,note_on,,59,0,7,,,,,,,,,,,,,,,5,,,74,0
46919,note_on,,59,0,5,,,,,,,,,,,,,,,0,,,74,0
46919,note_on,,59,0,16,,,,,,,,,,,,,,,15,,,59,0
46919,note_on,,59,0,6,,,,,,,,,,,,,,,1,,,59,0
46919,note_on,,59,0,12,,,,,,,,,,,,,,,10,,,86,0
46919,note_on,,59,0,10,,,,,,,,,,,,,,,8,,,59,0
46919,note_on,,59,0,15,,,,,,,,,,,,,,,13,,,59,0
46920,note_on,,1,0,7,,,,,,,,,,,,,,,5,,,73,72
46920,note_on,,1,0,6,,,,,,,,,,,,,,,1,,,57,72
46920,note_on,,1,0,12,,,,,,,,,,,,,,,10,,,85,72
46920,note_on,,1,0,5,,,,,,,,,,,,,,,0,,,73,72
46920,note_on,,1,0,10,,,,,,,,,,,,,,,8,,,57,72
46920,note_on,,1,0,15,,,,,,,,,,,,,,,13,,,57,72
46920,note_on,,1,0,16,,,,,,,,,,,,,,,15,,,57,72
46979,note_on,,59,0,10,,,,,,,,,,,,,,,8,,,57,0
46979,note_on,,119,0,14,,,,,,,,,,,,,,,12,,,62,0
46979,note_on,,119,0,9,,,,,,,,,,,,,,,7,,,62,0
46979,note_on,,59,0,12,,,,,,,,,,,,,,,10,,,85,0
46979,note_on,,59,0,7,,,,,,,,,,,,,,,5,,,73,0
46979,note_on,,59,0,15,,,,,,,,,,,,,,,13,,,57,0
46979,note_on,,59,0,16,,,,,,,,,,,,,,,15,,,57,0
46979,note_on,,59,0,6,,,,,,,,,,,,,,,1,,,57,0
46979,note_on,,59,0,5,,,,,,,,,,,,,,,0,,,73,0
46979,note_on,,119,0,8,,,,,,,,,,,,,,,6,,,66,0
46979,note_on,,119,0,13,,,,,,,,,,,,,,,11,,,78,0
46980,note_on,,1,0,16,,,,,,,,,,,,,,,15,,,55,72
46980,note_on,,1,0,8,,,,,,,,,,,,,,,6,,,67,72
46980,note_on,,1,0,6,,,,,,,,,,,,,,,1,,,55,72
46980,note_on,,1,0,7,,,,,,,,,,,,,,,5,,,71,72
46980,note_on,,1,0,15,,,,,,,,,,,,,,,13,,,55,72
46980,note_on,,1,0,5,,,,,,,,,,,,,,,0,,,71,72
46980,note_on,,1,0,9,,,,,,,,,,,,,,,7,,,62,72
46980,note_on,,1,0,14,,,,,,,,,,,,,,,12,,,62,72
46980,note_on,,1,0,12,,,,,,,,,,,,,,,10,,,83,72
46980,note_on,,1,0,10,,,,,,,,,,,,,,,8,,,55,72
46980,note_on,,1,0,13,,,,,,,,,,,,,,,11,,,79,72
47039,note_on,,0,0,16,,,,,,,,,,,,,,,15,,,55,0
47039,note_on,,59,0,13,,,,,,,,,,,,,,,11,,,79,0
47039,note_on,,59,0,6,,,,,,,,,,,,,,,1,,,55,0
47039,note_on,,59,0,8,,,,,,,,,,,,,,,6,,,67,0
47039,note_on,,59,0,14,,,,,,,,,,,,,,,12,,,62,0
47039,note_on,,59,0,15,,,,,,,,,,,,,,,13,,,55,0
47039,note_on,,59,0,16,,,,,,,,,,,,,,,15,,,74,0
47039,note_on,,0,0,16,,,,,,,,,,,,,,,15,,,71,0
47039,note_on,,0,0,16,,,,,,,,,,,,,,,15,,,66,0
47039,note_on,,0,0,16,,,,,,,,,,,,,,,15,,,62,0
47039,note_on,,59,0,7,,,,,,,,,,,,,,,5,,,71,0
47039,note_on,,59,0,10,,,,,,,,,,,,,,,8,,,55,0
47039,note_on,,59,0,5,,,,,,,,,,,,,,,0,,,71,0
47039,note_on,,59,0,12,,,,,,,,,,,,,,,10,,,83,0
47039,note_on,,59,0,9,,,,,,,,,,,,,,,7,,,62,0
47040,note_on,,0,0,16,,,,,,,,,,,,,,,15,,,74,72
47040,note_on,,1,0,10,,,,,,,,,,,,,,,8,,,54,72
47040,note_on,,1,0,13,,,,,,,,,,,,,,,11,,,74,72
47040,note_on,,1,0,6,,,,,,,,,,,,,,,1,,,54,72
47040,note_on,,1,0,14,,,,,,,,,,,,,,,12,,,62,72
47040,note_on,,1,0,9,,,,,,,,,,,,,,,7,,,62,72
47040,note_on,,0,0,16,,,,,,,,,,,,,,,15,,,57,72
47040,note_on,,0,0,16,,,,,,,,,,,,,,,15,,,69,72
47040,note_on,,1,0,8,,,,,,,,,,,,,,,6,,,69,72
47040,note_on,,1,0,12,,,,,,,,,,,,,,,10,,,81,72
47040,note_on,,1,0,7,,,,,,,,,,,,,,,5,,,69,72
47040,note_on,,1,0,16,,,,,,,,,,,,,,,15,,,54,72
47040,note_on,,0,0,16,,,,,,,,,,,,,,,15,,,78,72
47040,note_on,,1,0,5,,,,,,,,,,,,,,,0,,,69,72
47040,note_on,,1,0,15,,,,,,,,,,,,,,,13,,,54,72
47099,note_on,,59,0,8,,,,,,,,,,,,,,,6,,,69,0
47099,note_on,,59,0,15,,,,,,,,,,,,,,,13,,,54,0
47099,note_on,,59,0,6,,,,,,,,,,,,,,,1,,,54,0
47099,note_on,,59,0,12,,,,,,,,,,,,,,,10,,,81,0
47099,note_on,,59,0,16,,,,,,,,,,,,,,,15,,,54,0
47099,note_on,,59,0,10,,,,,,,,,,,,,,,8,,,54,0
47100,note_on,,1,0,12,,,,,,,,,,,,,,,10,,,79,72
47100,note_on,,1,0,8,,,,,,,,,,,,,,,6,,,67,72
47100,note_on,,1,0,16,,,,,,,,,,,,,,,15,,,52,72
47100,note_on,,1,0,6,,,,,,,,,,,,,,,1,,,52,72
47100,note_on,,1,0,10,,,,,,,,,,,,,,,8,,,52,72
47100,note_on,,1,0,15,,,,,,,,,,,,,,,13,,,52,72
47159,note_on,,119,0,14,,,,,,,,,,,,,,,12,,,62,0
47159,note_on,,59,0,6,,,,,,,,,,,,,,,1,,,52,0
47159,note_on,,59,0,16,,,,,,,,,,,,,,,15,,,52,0
47159,note_on,,119,0,9,,,,,,,,,,,,,,,7,,,62,0
47159,note_on,,59,0,10,,,,,,,,,,,,,,,8,,,52,0
47159,note_on,,119,0,5,,,,,,,,,,,,,,,0,,,69,0
47159,note_on,,119,0,13,,,,,,,,,,,,,,,11,,,74,0
47159,note_on,,59,0,15,,,,,,,,,,,,,,,13,,,52,0
47159,note_on,,59,0,8,,,,,,,,,,,,,,,6,,,67,0
47159,note_on,,119,0,7,,,,,,,,,,,,,,,5,,,69,0
47159,note_on,,59,0,12,,,,,,,,,,,,,,,10,,,79,0
47160,note_on,,1,0,9,,,,,,,,,,,,,,,7,,,62,72
47160,note_on,,1,0,15,,,,,,,,,,,,,,,13,,,50,72
47160,note_on,,1,0,8,,,,,,,,,,,,,,,6,,,66,72
47160,note_on,,1,0,7,,,,,,,,,,,,,,,5,,,69,72
47160,note_on,,1,0,6,,,,,,,,,,,,,,,1,,,50,72
47160,note_on,,1,0,14,,,,,,,,,,,,,,,12,,,57,72
47160,note_on,,1,0,13,,,,,,,,,,,,,,,11,,,62,72
47160,note_on,,1,0,12,,,,,,,,,,,,,,,10,,,78,72
47160,note_on,,1,0,16,,,,,,,,,,,,,,,15,,,50,72
47160,note_on,,1,0,10,,,,,,,,,,,,,,,8,,,50,72
47160,note_on,,1,0,5,,,,,,,,,,,,,,,0,,,69,72
47219,note_on,,59,0,12,,,,,,,,,,,,,,,10,,,78,0
47219,note_on,,59,0,16,,,,,,,,,,,,,,,15,,,78,0
47219,note_on,,0,0,16,,,,,,,,,,,,,,,15,,,74,0
47219,note_on,,0,0,16,,,,,,,,,,,,,,,15,,,69,0
47219,note_on,,0,0,16,,,,,,,,,,,,,,,15,,,57,0
47219,note_on,,59,0,7,,,,,,,,,,,,,,,5,,,69,0
47219,note_on,,59,0,9,,,,,,,,,,,,,,,7,,,62,0
47219,note_on,,0,0,16,,,,,,,,,,,,,,,15,,,50,0
47219,note_on,,59,0,10,,,,,,,,,,,,,,,8,,,50,0
47219,note_on,,59,0,13,,,,,,,,,,,,,,,11,,,62,0
47219,note_on,,59,0,15,,,,,,,,,,,,,,,13,,,50,0
47219,note_on,,59,0,14,,,,,,,,,,,,,,,12,,,57,0
47219,note_on,,59,0,5,,,,,,,,,,,,,,,0,,,69,0
47219,note_on,,59,0,6,,,,,,,,,,,,,,,1,,,50,0
47219,note_on,,59,0,8,,,,,,,,,,,,,,,6,,,66,0
47220,note_on,,1,0,12,,,,,,,,,,,,,,,10,,,64,72
47220,note_on,,1,0,16,,,,,,,,,,,,,,,15,,,44,72
47220,note_on,,0,0,16,,,,,,,,,,,,,,,15,,,76,72
47220,note_on,,1,0,13,,,,,,,,,,,,,,,11,,,62,72
47220,note_on,,1,0,6,,,,,,,,,,,,,,,1,,,44,72
47220,note_on,,0,0,16,,,,,,,,,,,,,,,15,,,52,72
47220,note_on,,1,0,8,,,,,,,,,,,,,,,6,,,64,72
47220,note_on,,1,0,7,,,,,,,,,,,,,,,5,,,71,72
47220,note_on,,0,0,16,,,,,,,,,,,,,,,15,,,74,72
47220,note_on,,0,0,16,,,,,,,,,,,,,,,15,,,71,72
47220,note_on,,1,0,9,,,,,,,,,,,,,,,7,,,62,72
47220,note_on,,1,0,10,,,,,,,,,,,,,,,8,,,44,72
47220,note_on,,1,0,14,,,,,,,,,,,,,,,12,,,59,72
47220,note_on,,1,0,15,,,,,,,,,,,,,,,13,,,44,72
47220,note_on,,1,0,5,,,,,,,,,,,,,,,0,,,71,72
47459,note_on,,239,0,15,,,,,,,,,,,,,,,13,,,44,0
47459,note_on,,239,0,5,,,,,,,,,,,,,,,0,,,71,0
47459,note_on,,239,0,16,,,,,,,,,,,,,,,15,,,44,0
47459,note_on,,239,0,8,,,,,,,,,,,,,,,6,,,64,0
47459,note_on,,0,0,16,,,,,,,,,,,,,,,15,,,71,0
47459,note_on,,239,0,12,,,,,,,,,,,,,,,10,,,64,0
47459,note_on,,0,0,16,,,,,,,,,,,,,,,15,,,52,0
47459,note_on,,239,0,6,,,,,,,,,,,,,,,1,,,44,0
47459,note_on,,239,0,13,,,,,,,,,,,,,,,11,,,62,0
47459,note_on,,239,0,10,,,,,,,,,,,,,,,8,,,44,0
47459,note_on,,239,0,9,,,,,,,,,,,,,,,7,,,62,0
47459,note_on,,239,0,14,,,,,,,,,,,,,,,12,,,59,0
47459,note_on,,239,0,7,,,,,,,,,,,,,,,5,,,71,0
47459,note_on,,0,0,16,,,,,,,,,,,,,,,15,,,74,0
47459,note_on,,0,0,16,,,,,,,,,,,,,,,15,,,76,0
47460,note_on,,1,0,10,,,,,,,,,,,,,,,8,,,56,72
47460,note_on,,0,0,16,,,,,,,,,,,,,,,15,,,62,72
47460,note_on,,0,0,16,,,,,,,,,,,,,,,15,,,64,72
47460,note_on,,1,0,5,,,,,,,,,,,,,,,0,,,71,72
47460,note_on,,1,0,12,,,,,,,,,,,,,,,10,,,76,72
47460,note_on,,0,0,16,,,,,,,,,,,,,,,15,,,59,72
47460,note_on,,1,0,16,,,,,,,,,,,,,,,15,,,56,72
47460,note_on,,1,0,9,,,,,,,,,,,,,,,7,,,62,72
47460,note_on,,1,0,15,,,,,,,,,,,,,,,13,,,56,72
47460,note_on,,1,0,8,,,,,,,,,,,,,,,6,,,64,72
47460,note_on,,1,0,7,,,,,,,,,,,,,,,5,,,71,72
47460,note_on,,1,0,6,,,,,,,,,,,,,,,1,,,56,72
47460,note_on,,1,0,14,,,,,,,,,,,,,,,12,,,71,72
47460,note_on,,1,0,13,,,,,,,,,,,,,,,11,,,62,72
47519,note_on,,59,0,8,,,,,,,,,,,,,,,6,,,64,0
47519,note_on,,59,0,13,,,,,,,,,,,,,,,11,,,62,0
47519,note_on,,59,0,6,,,,,,,,,,,,,,,1,,,56,0
47519,note_on,,59,0,5,,,,,,,,,,,,,,,0,,,71,0
47519,note_on,,59,0,14,,,,,,,,,,,,,,,12,,,71,0
47519,note_on,,59,0,16,,,,,,,,,,,,,,,15,,,56,0
47519,note_on,,0,0,16,,,,,,,,,,,,,,,15,,,62,0
47519,note_on,,0,0,16,,,,,,,,,,,,,,,15,,,59,0
47519,note_on,,59,0,7,,,,,,,,,,,,,,,5,,,71,0
47519,note_on,,59,0,10,,,,,,,,,,,,,,,8,,,56,0
47519,note_on,,59,0,12,,,,,,,,,,,,,,,10,,,76,0
47519,note_on,,59,0,9,,,,,,,,,,,,,,,7,,,62,0
47519,note_on,,0,0,16,,,,,,,,,,,,,,,15,,,64,0
47519,note_on,,59,0,15,,,,,,,,,,,,,,,13,,,56,0
47520,note_on,,1,0,7,,,,,,,,,,,,,,,5,,,71,72
47520,note_on,,1,0,9,,,,,,,,,,,,,,,7,,,62,72
47520,note_on,,1,0,16,,,,,,,,,,,,,,,15,,,56,72
47520,note_on,,0,0,16,,,,,,,,,,,,,,,15,,,71,72
47520,note_on,,0,0,16,,,,,,,,,,,,,,,15,,,68,72
47520,note_on,,0,0,16,,,,,,,,,,,,,,,15,,,59,72
47520,note_on,,1,0,13,,,,,,,,,,,,,,,11,,,62,72
47520,note_on,,0,0,16,,,,,,,,,,,,,,,15,,,76,72
47520,note_on,,1,0,8,,,,,,,,,,,,,,,6,,,64,72
47520,note_on,,1,0,14,,,,,,,,,,,,,,,12,,,71,72
47520,note_on,,1,0,12,,,,,,,,,,,,,,,10,,,76,72
47520,note_on,,1,0,15,,,,,,,,,,,,,,,13,,,56,72
47520,note_on,,1,0,10,,,,,,,,,,,,,,,8,,,56,72
47520,note_on,,1,0,6,,,,,,,,,,,,,,,1,,,56,72
47520,note_on,,1,0,5,,,,,,,,,,,,,,,0,,,71,72
47579,note_on,,0,0,16,,,,,,,,,,,,,,,15,,,71,0
47579,note_on,,0,0,16,,,,,,,,,,,,,,,15,,,76,0
47579,note_on,,59,0,16,,,,,,,,,,,,,,,15,,,56,0
47579,note_on,,0,0,16,,,,,,,,,,,,,,,15,,,59,0
47579,note_on,,59,0,7,,,,,,,,,,,,,,,5,,,71,0
47579,note_on,,59,0,13,,,,,,,,,,,,,,,11,,,62,0
47579,note_on,,59,0,6,,,,,,,,,,,,,,,1,,,56,0
47579,note_on,,59,0,15,,,,,,,,,,,,,,,13,,,56,0
47579,note_on,,59,0,8,,,,,,,,,,,,,,,6,,,64,0
47579,note_on,,59,0,9,,,,,,,,,,,,,,,7,,,62,0
47579,note_on,,59,0,5,,,,,,,,,,,,,,,0,,,71,0
47579,note_on,,59,0,10,,,,,,,,,,,,,,,8,,,56,0
47579,note_on,,59,0,12,,,,,,,,,,,,,,,10,,,76,0
47579,note_on,,0,0,16,,,,,,,,,,,,,,,15,,,68,0
47579,note_on,,59,0,14,,,,,,,,,,,,,,,12,,,71,0
47580,note_on,,1,0,14,,,,,,,,,,,,,,,12,,,69,72
47580,note_on,,1,0,16,,,,,,,,,,,,,,,15,,,57,72
47580,note_on,,0,0,16,,,,,,,,,,,,,,,15,,,73,72
47580,note_on,,0,0,16,,,,,,,,,,,,,,,15,,,69,72
47580,note_on,,0,0,16,,,,,,,,,,,,,,,15,,,64,72
47580,note_on,,0,0,16,,,,,,,,,,,,,,,15,,,61,72
47580,note_on,,1,0,12,,,,,,,,,,,,,,,10,,,76,72
47580,note_on,,1,0,15,,,,,,,,,,,,,,,13,,,57,72
47580,note_on,,1,0,6,,,,,,,,,,,,,,,1,,,57,72
47580,note_on,,1,0,7,,,,,,,,,,,,,,,5,,,69,72
47580,note_on,,1,0,9,,,,,,,,,,,,,,,7,,,61,72
47580,note_on,,1,0,10,,,,,,,,,,,,,,,8,,,57,72
47580,note_on,,1,0,5,,,,,,,,,,,,,,,0,,,69,72
47580,note_on,,1,0,8,,,,,,,,,,,,,,,6,,,64,72
47580,note_on,,1,0,13,,,,,,,,,,,,,,,11,,,61,72
47609,note_on,,29,0,12,,,,,,,,,,,,,,,10,,,76,0
47610,note_on,,1,0,12,,,,,,,,,,,,,,,10,,,81,72
47639,note_on,,29,0,12,,,,,,,,,,,,,,,10,,,81,0
47640,note_on,,1,0,12,,,,,,,,,,,,,,,10,,,85,72
47669,note_on,,29,0,12,,,,,,,,,,,,,,,10,,,85,0
47670,note_on,,1,0,12,,,,,,,,,,,,,,,10,,,81,72
47699,note_on,,29,0,12,,,,,,,,,,,,,,,10,,,81,0
47700,note_on,,1,0,12,,,,,,,,,,,,,,,10,,,76,72
47729,note_on,,29,0,12,,,,,,,,,,,,,,,10,,,76,0
47730,note_on,,1,0,12,,,,,,,,,,,,,,,10,,,81,72
47759,note_on,,179,0,13,,,,,,,,,,,,,,,11,,,61,0
47759,note_on,,29,0,12,,,,,,,,,,,,,,,10,,,81,0
47760,note_on,,1,0,13,,,,,,,,,,,,,,,11,,,69,72
47760,note_on,,1,0,12,,,,,,,,,,,,,,,10,,,73,72
47789,note_on,,29,0,12,,,,,,,,,,,,,,,10,,,73,0
47789,note_on,,29,0,13,,,,,,,,,,,,,,,11,,,69,0
47790,note_on,,1,0,13,,,,,,,,,,,,,,,11,,,71,72
47790,note_on,,1,0,12,,,,,,,,,,,,,,,10,,,74,72
47819,note_on,,29,0,12,,,,,,,,,,,,,,,10,,,74,0
47819,note_on,,29,0,13,,,,,,,,,,,,,,,11,,,71,0
47820,note_on,,1,0,13,,,,,,,,,,,,,,,11,,,73,72
47820,note_on,,1,0,12,,,,,,,,,,,,,,,10,,,76,72
47849,note_on,,29,0,13,,,,,,,,,,,,,,,11,,,73,0
47849,note_on,,29,0,12,,,,,,,,,,,,,,,10,,,76,0
47850,note_on,,1,0,13,,,,,,,,,,,,,,,11,,,69,72
47850,note_on,,1,0,12,,,,,,,,,,,,,,,10,,,73,72
47879,note_on,,29,0,12,,,,,,,,,,,,,,,10,,,73,0
47879,note_on,,29,0,13,,,,,,,,,,,,,,,11,,,69,0
47879,note_on,,299,0,8,,,,,,,,,,,,,,,6,,,64,0
47880,note_on,,1,0,13,,,,,,,,,,,,,,,11,,,81,72
47880,note_on,,1,0,8,,,,,,,,,,,,,,,6,,,69,72
47880,note_on,,1,0,12,,,,,,,,,,,,,,,10,,,69,72
47909,note_on,,29,0,12,,,,,,,,,,,,,,,10,,,69,0
47910,note_on,,1,0,12,,,,,,,,,,,,,,,10,,,81,72
47939,note_on,,359,0,15,,,,,,,,,,,,,,,13,,,57,0
47939,note_on,,359,0,9,,,,,,,,,,,,,,,7,,,61,0
47939,note_on,,59,0,13,,,,,,,,,,,,,,,11,,,81,0
47939,note_on,,359,0,10,,,,,,,,,,,,,,,8,,,57,0
47939,note_on,,359,0,14,,,,,,,,,,,,,,,12,,,69,0
47939,note_on,,0,0,16,,,,,,,,,,,,,,,15,,,73,0
47939,note_on,,0,0,16,,,,,,,,,,,,,,,15,,,69,0
47939,note_on,,0,0,16,,,,,,,,,,,,,,,15,,,64,0
47939,note_on,,359,0,16,,,,,,,,,,,,,,,15,,,57,0
47939,note_on,,0,0,16,,,,,,,,,,,,,,,15,,,61,0
47939,note_on,,359,0,6,,,,,,,,,,,,,,,1,,,57,0
47939,note_on,,29,0,12,,,,,,,,,,,,,,,10,,,81,0
47939,note_on,,359,0,5,,,,,,,,,,,,,,,0,,,69,0
47939,note_on,,359,0,7,,,,,,,,,,,,,,,5,,,69,0
47939,note_on,,59,0,8,,,,,,,,,,,,,,,6,,,69,0
47940,note_on,,1,0,12,,,,,,,,,,,,,,,10,,,83,72
47940,note_on,,1,0,8,,,,,,,,,,,,,,,6,,,71,72
47940,note_on,,1,0,13,,,,,,,,,,,,,,,11,,,83,72
47999,note_on,,59,0,12,,,,,,,,,,,,,,,10,,,83,0
47999,note_on,,59,0,13,,,,,,,,,,,,,,,11,,,83,0
47999,note_on,,59,0,8,,,,,,,,,,,,,,,6,,,71,0
48000,note_on,,1,0,13,,,,,,,,,,,,,,,11,,,81,72
48000,note_on,,1,0,12,,,,,,,,,,,,,,,10,,,81,72
48000,note_on,,1,0,8,,,,,,,,,,,,,,,6,,,69,72
48059,note_on,,59,0,12,,,,,,,,,,,,,,,10,,,81,0
48059,note_on,,59,0,8,,,,,,,,,,,,,,,6,,,69,0
48059,note_on,,59,0,13,,,,,,,,,,,,,,,11,,,81,0
48060,note_on,,1,0,13,,,,,,,,,,,,,,,11,,,79,72
48060,note_on,,1,0,8,,,,,,,,,,,,,,,6,,,67,72
48060,note_on,,1,0,12,,,,,,,,,,,,,,,10,,,79,72
48119,note_on,,59,0,12,,,,,,,,,,,,,,,10,,,79,0
48119,note_on,,59,0,13,,,,,,,,,,,,,,,11,,,79,0
48119,note_on,,59,0,8,,,,,,,,,,,,,,,6,,,67,0
48120,note_on,,1,0,8,,,,,,,,,,,,,,,6,,,66,72
48120,note_on,,1,0,13,,,,,,,,,,,,,,,11,,,78,72
48120,note_on,,1,0,12,,,,,,,,,,,,,,,10,,,78,72
48179,note_on,,59,0,12,,,,,,,,,,,,,,,10,,,78,0
48179,note_on,,59,0,13,,,,,,,,,,,,,,,11,,,78,0
48179,note_on,,59,0,8,,,,,,,,,,,,,,,6,,,66,0
48180,note_on,,1,0,13,,,,,,,,,,,,,,,11,,,76,72
48180,note_on,,1,0,8,,,,,,,,,,,,,,,6,,,64,72
48180,note_on,,1,0,12,,,,,,,,,,,,,,,10,,,76,72
48239,note_on,,59,0,13,,,,,,,,,,,,,,,11,,,76,0
48239,note_on,,59,0,12,,,,,,,,,,,,,,,10,,,76,0
48239,note_on,,59,0,8,,,,,,,,,,,,,,,6,,,64,0
48240,note_on,,1,0,12,,,,,,,,,,,,,,,10,,,74,72
48240,note_on,,301,0,6,,,,,,,,,,,,,,,1,,,50,72
48240,note_on,,301,0,9,,,,,,,,,,,,,,,7,,,54,72
48240,note_on,,301,0,14,,,,,,,,,,,,,,,12,,,66,72
48240,note_on,,301,0,10,,,,,,,,,,,,,,,8,,,50,72
48240,note_on,,0,0,16,,,,,,,,,,,,,,,15,,,57,72
48240,note_on,,301,0,15,,,,,,,,,,,,,,,13,,,50,72
48240,note_on,,1,0,8,,,,,,,,,,,,,,,6,,,62,72
48240,note_on,,0,0,16,,,,,,,,,,,,,,,15,,,69,72
48240,note_on,,301,0,5,,,,,,,,,,,,,,,0,,,69,72
48240,note_on,,1,0,13,,,,,,,,,,,,,,,11,,,74,72
48240,note_on,,0,0,16,,,,,,,,,,,,,,,15,,,72,72
48240,note_on,,0,0,16,,,,,,,,,,,,,,,15,,,74,72
48240,note_on,,301,0,16,,,,,,,,,,,,,,,15,,,50,72
48240,note_on,,0,0,16,,,,,,,,,,,,,,,15,,,66,72
48240,note_on,,301,0,7,,,,,,,,,,,,,,,5,,,69,72
48299,note_on,,59,0,9,,,,,,,,,,,,,,,7,,,54,0
48299,note_on,,0,0,16,,,,,,,,,,,,,,,15,,,57,0
48299,note_on,,0,0,16,,,,,,,,,,,,,,,15,,,74,0
48299,note_on,,0,0,16,,,,,,,,,,,,,,,15,,,66,0
48299,note_on,,0,0,16,,,,,,,,,,,,,,,15,,,69,0
48299,note_on,,0,0,16,,,,,,,,,,,,,,,15,,,72,0
48299,note_on,,59,0,16,,,,,,,,,,,,,,,15,,,50,0
48299,note_on,,59,0,7,,,,,,,,,,,,,,,5,,,69,0
48299,note_on,,59,0,10,,,,,,,,,,,,,,,8,,,50,0
48299,note_on,,59,0,5,,,,,,,,,,,,,,,0,,,69,0
48299,note_on,,59,0,12,,,,,,,,,,,,,,,10,,,74,0
48299,note_on,,59,0,15,,,,,,,,,,,,,,,13,,,50,0
48299,note_on,,59,0,13,,,,,,,,,,,,,,,11,,,74,0
48299,note_on,,59,0,8,,,,,,,,,,,,,,,6,,,62,0
48299,note_on,,59,0,14,,,,,,,,,,,,,,,12,,,66,0
48299,note_on,,59,0,6,,,,,,,,,,,,,,,1,,,50,0
48300,note_on,,1,0,6,,,,,,,,,,,,,,,1,,,50,72
48300,note_on,,1,0,12,,,,,,,,,,,,,,,10,,,60,72
48300,note_on,,1,0,15,,,,,,,,,,,,,,,13,,,50,72
48300,note_on,,1,0,8,,,,,,,,,,,,,,,6,,,60,72
48300,note_on,,1,0,14,,,,,,,,,,,,,,,12,,,66,72
48300,note_on,,1,0,10,,,,,,,,,,,,,,,8,,,50,72
48300,note_on,,1,0,5,,,,,,,,,,,,,,,0,,,69,72
48300,note_on,,1,0,7,,,,,,,,,,,,,,,5,,,69,72
48300,note_on,,0,0,16,,,,,,,,,,,,,,,15,,,69,72
48300,note_on,,0,0,16,,,,,,,,,,,,,,,15,,,66,72
48300,note_on,,0,0,16,,,,,,,,,,,,,,,15,,,57,72
48300,note_on,,1,0,9,,,,,,,,,,,,,,,7,,,54,72
48300,note_on,,1,0,13,,,,,,,,,,,,,,,11,,,60,72
48300,note_on,,1,0,16,,,,,,,,,,,,,,,15,,,50,72
48300,note_on,,0,0,16,,,,,,,,,,,,,,,15,,,74,72
48300,note_on,,0,0,16,,,,,,,,,,,,,,,15,,,72,72
48329,note_on,,29,0,12,,,,,,,,,,,,,,,10,,,60,0
48329,note_on,,29,0,13,,,,,,,,,,,,,,,11,,,60,0
48330,note_on,,1,0,13,,,,,,,,,,,,,,,11,,,69,72
48330,note_on,,1,0,12,,,,,,,,,,,,,,,10,,,69,72
48359,note_on,,29,0,13,,,,,,,,,,,,,,,11,,,69,0
48359,note_on,,29,0,12,,,,,,,,,,,,,,,10,,,69,0
48360,note_on,,1,0,12,,,,,,,,,,,,,,,10,,,72,72
48360,note_on,,1,0,13,,,,,,,,,,,,,,,11,,,72,72
48389,note_on,,29,0,12,,,,,,,,,,,,,,,10,,,72,0
48389,note_on,,29,0,13,,,,,,,,,,,,,,,11,,,72,0
48390,note_on,,1,0,12,,,,,,,,,,,,,,,10,,,69,72
48390,note_on,,1,0,13,,,,,,,,,,,,,,,11,,,69,72
48419,note_on,,119,0,10,,,,,,,,,,,,,,,8,,,50,0
48419,note_on,,0,0,16,,,,,,,,,,,,,,,15,,,57,0
48419,note_on,,119,0,16,,,,,,,,,,,,,,,15,,,50,0
48419,note_on,,119,0,5,,,,,,,,,,,,,,,0,,,69,0
48419,note_on,,29,0,12,,,,,,,,,,,,,,,10,,,69,0
48419,note_on,,119,0,15,,,,,,,,,,,,,,,13,,,50,0
48419,note_on,,119,0,14,,,,,,,,,,,,,,,12,,,66,0
48419,note_on,,119,0,6,,,,,,,,,,,,,,,1,,,50,0
48419,note_on,,119,0,7,,,,,,,,,,,,,,,5,,,69,0
48419,note_on,,29,0,13,,,,,,,,,,,,,,,11,,,69,0
48419,note_on,,119,0,9,,,,,,,,,,,,,,,7,,,54,0
48420,note_on,,1,0,16,,,,,,,,,,,,,,,15,,,50,72
48420,note_on,,1,0,7,,,,,,,,,,,,,,,5,,,69,72
48420,note_on,,0,0,16,,,,,,,,,,,,,,,15,,,57,72
48420,note_on,,1,0,10,,,,,,,,,,,,,,,8,,,50,72
48420,note_on,,1,0,6,,,,,,,,,,,,,,,1,,,50,72
48420,note_on,,1,0,12,,,,,,,,,,,,,,,10,,,66,72
48420,note_on,,1,0,15,,,,,,,,,,,,,,,13,,,50,72
48420,note_on,,1,0,9,,,,,,,,,,,,,,,7,,,54,72
48420,note_on,,1,0,13,,,,,,,,,,,,,,,11,,,66,72
48420,note_on,,1,0,5,,,,,,,,,,,,,,,0,,,69,72
48420,note_on,,1,0,14,,,,,,,,,,,,,,,12,,,69,72
48449,note_on,,29,0,12,,,,,,,,,,,,,,,10,,,66,0
48449,note_on,,29,0,13,,,,,,,,,,,,,,,11,,,66,0
48450,note_on,,1,0,13,,,,,,,,,,,,,,,11,,,69,72
48450,note_on,,1,0,12,,,,,,,,,,,,,,,10,,,69,72
48479,note_on,,0,0,16,,,,,,,,,,,,,,,15,,,69,0
48479,note_on,,0,0,16,,,,,,,,,,,,,,,15,,,72,0
48479,note_on,,59,0,14,,,,,,,,,,,,,,,12,,,69,0
48479,note_on,,59,0,15,,,,,,,,,,,,,,,13,,,50,0
48479,note_on,,0,0,16,,,,,,,,,,,,,,,15,,,57,0
48479,note_on,,59,0,5,,,,,,,,,,,,,,,0,,,69,0
48479,note_on,,59,0,6,,,,,,,,,,,,,,,1,,,50,0
48479,note_on,,0,0,16,,,,,,,,,,,,,,,15,,,66,0
48479,note_on,,29,0,12,,,,,,,,,,,,,,,10,,,69,0
48479,note_on,,59,0,10,,,,,,,,,,,,,,,8,,,50,0
48479,note_on,,0,0,16,,,,,,,,,,,,,,,15,,,50,0
48479,note_on,,59,0,16,,,,,,,,,,,,,,,15,,,74,0
48479,note_on,,59,0,9,,,,,,,,,,,,,,,7,,,54,0
48479,note_on,,59,0,7,,,,,,,,,,,,,,,5,,,69,0
48479,note_on,,29,0,13,,,,,,,,,,,,,,,11,,,69,0
48480,note_on,,1,0,14,,,,,,,,,,,,,,,12,,,66,72
48480,note_on,,0,0,16,,,,,,,,,,,,,,,15,,,69,72
48480,note_on,,1,0,15,,,,,,,,,,,,,,,13,,,50,72
48480,note_on,,1,0,13,,,,,,,,,,,,,,,11,,,60,72
48480,note_on,,1,0,5,,,,,,,,,,,,,,,0,,,69,72
48480,note_on,,1,0,6,,,,,,,,,,,,,,,1,,,50,72
48480,note_on,,1,0,12,,,,,,,,,,,,,,,10,,,60,72
48480,note_on,,0,0,16,,,,,,,,,,,,,,,15,,,62,72
48480,note_on,,1,0,9,,,,,,,,,,,,,,,7,,,54,72
48480,note_on,,0,0,16,,,,,,,,,,,,,,,15,,,50,72
48480,note_on,,0,0,16,,,,,,,,,,,,,,,15,,,57,72
48480,note_on,,1,0,10,,,,,,,,,,,,,,,8,,,50,72
48480,note_on,,1,0,7,,,,,,,,,,,,,,,5,,,69,72
48480,note_on,,1,0,16,,,,,,,,,,,,,,,15,,,60,72
48480,note_on,,0,0,16,,,,,,,,,,,,,,,15,,,66,72
48509,note_on,,29,0,13,,,,,,,,,,,,,,,11,,,60,0
48509,note_on,,29,0,12,,,,,,,,,,,,,,,10,,,60,0
48510,note_on,,1,0,13,,,,,,,,,,,,,,,11,,,69,72
48510,note_on,,1,0,12,,,,,,,,,,,,,,,10,,,69,72
48539,note_on,,29,0,13,,,,,,,,,,,,,,,11,,,69,0
48539,note_on,,29,0,12,,,,,,,,,,,,,,,10,,,69,0
48540,note_on,,1,0,13,,,,,,,,,,,,,,,11,,,72,72
48540,note_on,,1,0,12,,,,,,,,,,,,,,,10,,,72,72
48569,note_on,,29,0,12,,,,,,,,,,,,,,,10,,,72,0
48569,note_on,,29,0,13,,,,,,,,,,,,,,,11,,,72,0
48570,note_on,,1,0,13,,,,,,,,,,,,,,,11,,,69,72
48570,note_on,,1,0,12,,,,,,,,,,,,,,,10,,,69,72
48599,note_on,,119,0,16,,,,,,,,,,,,,,,15,,,57,0
48599,note_on,,119,0,14,,,,,,,,,,,,,,,12,,,66,0
48599,note_on,,0,0,16,,,,,,,,,,,,,,,15,,,50,0
48599,note_on,,119,0,6,,,,,,,,,,,,,,,1,,,50,0
48599,note_on,,119,0,9,,,,,,,,,,,,,,,7,,,54,0
48599,note_on,,29,0,12,,,,,,,,,,,,,,,10,,,69,0
48599,note_on,,119,0,10,,,,,,,,,,,,,,,8,,,50,0
48599,note_on,,119,0,15,,,,,,,,,,,,,,,13,,,50,0
48599,note_on,,29,0,13,,,,,,,,,,,,,,,11,,,69,0
48599,note_on,,119,0,7,,,,,,,,,,,,,,,5,,,69,0
48599,note_on,,119,0,5,,,,,,,,,,,,,,,0,,,69,0
48600,note_on,,1,0,6,,,,,,,,,,,,,,,1,,,50,72
48600,note_on,,1,0,13,,,,,,,,,,,,,,,11,,,66,72
48600,note_on,,1,0,14,,,,,,,,,,,,,,,12,,,69,72
48600,note_on,,1,0,10,,,,,,,,,,,,,,,8,,,50,72
48600,note_on,,1,0,7,,,,,,,,,,,,,,,5,,,69,72
48600,note_on,,1,0,9,,,,,,,,,,,,,,,7,,,54,72
48600,note_on,,1,0,12,,,,,,,,,,,,,,,10,,,66,72
48600,note_on,,1,0,16,,,,,,,,,,,,,,,15,,,50,72
48600,note_on,,0,0,16,,,,,,,,,,,,,,,15,,,57,72
48600,note_on,,1,0,5,,,,,,,,,,,,,,,0,,,69,72
48600,note_on,,1,0,15,,,,,,,,,,,,,,,13,,,50,72
48629,note_on,,29,0,13,,,,,,,,,,,,,,,11,,,66,0
48629,note_on,,29,0,12,,,,,,,,,,,,,,,10,,,66,0
48630,note_on,,1,0,12,,,,,,,,,,,,,,,10,,,69,72
48630,note_on,,1,0,13,,,,,,,,,,,,,,,11,,,69,72
48659,note_on,,29,0,13,,,,,,,,,,,,,,,11,,,69,0
48659,note_on,,59,0,6,,,,,,,,,,,,,,,1,,,50,0
48659,note_on,,0,0,16,,,,,,,,,,,,,,,15,,,57,0
48659,note_on,,59,0,5,,,,,,,,,,,,,,,0,,,69,0
48659,note_on,,59,0,9,,,,,,,,,,,,,,,7,,,54,0
48659,note_on,,59,0,14,,,,,,,,,,,,,,,12,,,69,0
48659,note_on,,0,0,16,,,,,,,,,,,,,,,15,,,50,0
48659,note_on,,0,0,16,,,,,,,,,,,,,,,15,,,62,0
48659,note_on,,59,0,15,,,,,,,,,,,,,,,13,,,50,0
48659,note_on,,59,0,10,,,,,,,,,,,,,,,8,,,50,0
48659,note_on,,0,0,16,,,,,,,,,,,,,,,15,,,66,0
48659,note_on,,0,0,16,,,,,,,,,,,,,,,15,,,69,0
48659,note_on,,59,0,16,,,,,,,,,,,,,,,15,,,60,0
48659,note_on,,29,0,12,,,,,,,,,,,,,,,10,,,69,0
48659,note_on,,59,0,7,,,,,,,,,,,,,,,5,,,69,0
48660,note_on,,1,0,16,,,,,,,,,,,,,,,15,,,50,72
48660,note_on,,0,0,16,,,,,,,,,,,,,,,15,,,78,72
48660,note_on,,1,0,13,,,,,,,,,,,,,,,11,,,60,72
48660,note_on,,1,0,7,,,,,,,,,,,,,,,5,,,69,72
48660,note_on,,0,0,16,,,,,,,,,,,,,,,15,,,74,72
48660,note_on,,0,0,16,,,,,,,,,,,,,,,15,,,57,72
48660,note_on,,0,0,16,,,,,,,,,,,,,,,15,,,69,72
48660,note_on,,1,0,15,,,,,,,,,,,,,,,13,,,50,72
48660,note_on,,1,0,12,,,,,,,,,,,,,,,10,,,60,72
48660,note_on,,1,0,9,,,,,,,,,,,,,,,7,,,54,72
48660,note_on,,1,0,10,,,,,,,,,,,,,,,8,,,50,72
48660,note_on,,0,0,16,,,,,,,,,,,,,,,15,,,72,72
48660,note_on,,1,0,5,,,,,,,,,,,,,,,0,,,69,72
48660,note_on,,1,0,6,,,,,,,,,,,,,,,1,,,50,72
48660,note_on,,1,0,14,,,,,,,,,,,,,,,12,,,66,72
48689,note_on,,29,0,13,,,,,,,,,,,,,,,11,,,60,0
48689,note_on,,29,0,12,,,,,,,,,,,,,,,10,,,60,0
48690,note_on,,1,0,12,,,,,,,,,,,,,,,10,,,69,72
48690,note_on,,1,0,13,,,,,,,,,,,,,,,11,,,69,72
48719,note_on,,29,0,13,,,,,,,,,,,,,,,11,,,69,0
48719,note_on,,29,0,12,,,,,,,,,,,,,,,10,,,69,0
48720,note_on,,1,0,12,,,,,,,,,,,,,,,10,,,72,72
48720,note_on,,1,0,13,,,,,,,,,,,,,,,11,,,72,72
48749,note_on,,29,0,13,,,,,,,,,,,,,,,11,,,72,0
48749,note_on,,29,0,12,,,,,,,,,,,,,,,10,,,72,0
48750,note_on,,1,0,13,,,,,,,,,,,,,,,11,,,69,72
48750,note_on,,1,0,12,,,,,,,,,,,,,,,10,,,69,72
48779,note_on,,119,0,14,,,,,,,,,,,,,,,12,,,66,0
48779,note_on,,29,0,12,,,,,,,,,,,,,,,10,,,69,0
48779,note_on,,29,0,13,,,,,,,,,,,,,,,11,,,69,0
48780,note_on,,1,0,12,,,,,,,,,,,,,,,10,,,66,72
48780,note_on,,1,0,13,,,,,,,,,,,,,,,11,,,66,72
48780,note_on,,1,0,14,,,,,,,,,,,,,,,12,,,69,72
48809,note_on,,29,0,12,,,,,,,,,,,,,,,10,,,66,0
48809,note_on,,29,0,13,,,,,,,,,,,,,,,11,,,66,0
48810,note_on,,1,0,12,,,,,,,,,,,,,,,10,,,69,72
48810,note_on,,1,0,13,,,,,,,,,,,,,,,11,,,69,72
48839,note_on,,29,0,12,,,,,,,,,,,,,,,10,,,69,0
48839,note_on,,29,0,13,,,,,,,,,,,,,,,11,,,69,0
48839,note_on,,59,0,14,,,,,,,,,,,,,,,12,,,69,0
48840,note_on,,1,0,14,,,,,,,,,,,,,,,12,,,66,72
48840,note_on,,1,0,13,,,,,,,,,,,,,,,11,,,60,72
48840,note_on,,1,0,12,,,,,,,,,,,,,,,10,,,60,72
48869,note_on,,29,0,12,,,,,,,,,,,,,,,10,,,60,0
48869,note_on,,29,0,13,,,,,,,,,,,,,,,11,,,60,0
48870,note_on,,1,0,13,,,,,,,,,,,,,,,11,,,69,72
48870,note_on,,1,0,12,,,,,,,,,,,,,,,10,,,69,72
48899,note_on,,29,0,13,,,,,,,,,,,,,,,11,,,69,0
48899,note_on,,29,0,12,,,,,,,,,,,,,,,10,,,69,0
48900,note_on,,1,0,13,,,,,,,,,,,,,,,11,,,72,72
48900,note_on,,1,0,12,,,,,,,,,,,,,,,10,,,72,72
48929,note_on,,29,0,13,,,,,,,,,,,,,,,11,,,72,0
48929,note_on,,29,0,12,,,,,,,,,,,,,,,10,,,72,0
48930,note_on,,1,0,13,,,,,,,,,,,,,,,11,,,69,72
48930,note_on,,1,0,12,,,,,,,,,,,,,,,10,,,69,72
48959,note_on,,29,0,13,,,,,,,,,,,,,,,11,,,69,0
48959,note_on,,299,0,15,,,,,,,,,,,,,,,13,,,50,0
48959,note_on,,119,0,14,,,,,,,,,,,,,,,12,,,66,0
48959,note_on,,299,0,9,,,,,,,,,,,,,,,7,,,54,0
48959,note_on,,299,0,10,,,,,,,,,,,,,,,8,,,50,0
48959,note_on,,29,0,12,,,,,,,,,,,,,,,10,,,69,0
48959,note_on,,659,0,8,,,,,,,,,,,,,,,6,,,60,0
48959,note_on,,0,0,16,,,,,,,,,,,,,,,15,,,69,0
48959,note_on,,0,0,16,,,,,,,,,,,,,,,15,,,57,0
48959,note_on,,0,0,16,,,,,,,,,,,,,,,15,,,72,0
48959,note_on,,0,0,16,,,,,,,,,,,,,,,15,,,74,0
48959,note_on,,0,0,16,,,,,,,,,,,,,,,15,,,78,0
48959,note_on,,299,0,6,,,,,,,,,,,,,,,1,,,50,0
48959,note_on,,299,0,16,,,,,,,,,,,,,,,15,,,50,0
48959,note_on,,299,0,7,,,,,,,,,,,,,,,5,,,69,0
48959,note_on,,299,0,5,,,,,,,,,,,,,,,0,,,69,0
48960,note_on,,1,0,12,,,,,,,,,,,,,,,10,,,66,72
48960,note_on,,1,0,9,,,,,,,,,,,,,,,7,,,54,72
48960,note_on,,1,0,8,,,,,,,,,,,,,,,6,,,60,72
48960,note_on,,1,0,6,,,,,,,,,,,,,,,1,,,50,72
48960,note_on,,1,0,14,,,,,,,,,,,,,,,12,,,62,72
48960,note_on,,0,0,16,,,,,,,,,,,,,,,15,,,62,72
48960,note_on,,1,0,15,,,,,,,,,,,,,,,13,,,50,72
48960,note_on,,1,0,10,,,,,,,,,,,,,,,8,,,50,72
48960,note_on,,0,0,16,,,,,,,,,,,,,,,15,,,72,72
48960,note_on,,0,0,16,,,,,,,,,,,,,,,15,,,74,72
48960,note_on,,0,0,16,,,,,,,,,,,,,,,15,,,78,72
48960,note_on,,1,0,16,,,,,,,,,,,,,,,15,,,50,72
48960,note_on,,1,0,7,,,,,,,,,,,,,,,5,,,69,72
48960,note_on,,1,0,5,,,,,,,,,,,,,,,0,,,69,72
48960,note_on,,0,0,16,,,,,,,,,,,,,,,15,,,69,72
48960,note_on,,1,0,13,,,,,,,,,,,,,,,11,,,66,72
48989,note_on,,29,0,12,,,,,,,,,,,,,,,10,,,66,0
48989,note_on,,29,0,13,,,,,,,,,,,,,,,11,,,66,0
48990,note_on,,1,0,13,,,,,,,,,,,,,,,11,,,69,72
48990,note_on,,1,0,12,,,,,,,,,,,,,,,10,,,69,72
49019,note_on,,59,0,15,,,,,,,,,,,,,,,13,,,50,0
49019,note_on,,29,0,13,,,,,,,,,,,,,,,11,,,69,0
49019,note_on,,59,0,6,,,,,,,,,,,,,,,1,,,50,0
49019,note_on,,59,0,16,,,,,,,,,,,,,,,15,,,50,0
49019,note_on,,0,0,16,,,,,,,,,,,,,,,15,,,78,0
49019,note_on,,0,0,16,,,,,,,,,,,,,,,15,,,74,0
49019,note_on,,0,0,16,,,,,,,,,,,,,,,15,,,72,0
49019,note_on,,0,0,16,,,,,,,,,,,,,,,15,,,69,0
49019,note_on,,0,0,16,,,,,,,,,,,,,,,15,,,62,0
49019,note_on,,59,0,14,,,,,,,,,,,,,,,12,,,62,0
49019,note_on,,29,0,12,,,,,,,,,,,,,,,10,,,69,0
49019,note_on,,59,0,9,,,,,,,,,,,,,,,7,,,54,0
49019,note_on,,59,0,10,,,,,,,,,,,,,,,8,,,50,0
49019,note_on,,59,0,8,,,,,,,,,,,,,,,6,,,60,0
49019,note_on,,59,0,7,,,,,,,,,,,,,,,5,,,69,0
49019,note_on,,59,0,5,,,,,,,,,,,,,,,0,,,69,0
49020,note_on,,1,0,12,,,,,,,,,,,,,,,10,,,71,72
49020,note_on,,1,0,9,,,,,,,,,,,,,,,7,,,62,72
49020,note_on,,1,0,10,,,,,,,,,,,,,,,8,,,55,72
49020,note_on,,1,0,14,,,,,,,,,,,,,,,12,,,62,72
49020,note_on,,1,0,13,,,,,,,,,,,,,,,11,,,67,72
49020,note_on,,1,0,8,,,,,,,,,,,,,,,6,,,59,72
49020,note_on,,1,0,5,,,,,,,,,,,,,,,0,,,71,72
49020,note_on,,0,0,16,,,,,,,,,,,,,,,15,,,59,72
49020,note_on,,1,0,7,,,,,,,,,,,,,,,5,,,71,72
49020,note_on,,1,0,15,,,,,,,,,,,,,,,13,,,55,72
49020,note_on,,1,0,16,,,,,,,,,,,,,,,15,,,55,72
49020,note_on,,0,0,16,,,,,,,,,,,,,,,15,,,79,72
49020,note_on,,0,0,16,,,,,,,,,,,,,,,15,,,74,72
49020,note_on,,0,0,16,,,,,,,,,,,,,,,15,,,71,72
49020,note_on,,1,0,6,,,,,,,,,,,,,,,1,,,55,72
49139,note_on,,119,0,8,,,,,,,,,,,,,,,6,,,59,0
49139,note_on,,119,0,6,,,,,,,,,,,,,,,1,,,55,0
49139,note_on,,119,0,10,,,,,,,,,,,,,,,8,,,55,0
49139,note_on,,0,0,16,,,,,,,,,,,,,,,15,,,59,0
49139,note_on,,119,0,9,,,,,,,,,,,,,,,7,,,62,0
49139,note_on,,119,0,5,,,,,,,,,,,,,,,0,,,71,0
49139,note_on,,119,0,12,,,,,,,,,,,,,,,10,,,71,0
49139,note_on,,119,0,14,,,,,,,,,,,,,,,12,,,62,0
49139,note_on,,119,0,13,,,,,,,,,,,,,,,11,,,67,0
49139,note_on,,119,0,7,,,,,,,,,,,,,,,5,,,71,0
49139,note_on,,119,0,16,,,,,,,,,,,,,,,15,,,55,0
49139,note_on,,119,0,15,,,,,,,,,,,,,,,13,,,55,0
49140,note_on,,1,0,8,,,,,,,,,,,,,,,6,,,71,72
49140,note_on,,1,0,16,,,,,,,,,,,,,,,15,,,52,72
49140,note_on,,1,0,14,,,,,,,,,,,,,,,12,,,64,72
49140,note_on,,0,0,16,,,,,,,,,,,,,,,15,,,55,72
49140,note_on,,1,0,6,,,,,,,,,,,,,,,1,,,52,72
49140,note_on,,1,0,7,,,,,,,,,,,,,,,5,,,76,72
49140,note_on,,1,0,15,,,,,,,,,,,,,,,13,,,52,72
49140,note_on,,1,0,13,,,,,,,,,,,,,,,11,,,71,72
49140,note_on,,1,0,9,,,,,,,,,,,,,,,7,,,67,72
49140,note_on,,1,0,12,,,,,,,,,,,,,,,10,,,79,72
49140,note_on,,1,0,10,,,,,,,,,,,,,,,8,,,52,72
49140,note_on,,1,0,5,,,,,,,,,,,,,,,0,,,76,72
49199,note_on,,59,0,13,,,,,,,,,,,,,,,11,,,71,0
49199,note_on,,59,0,8,,,,,,,,,,,,,,,6,,,71,0
49199,note_on,,59,0,10,,,,,,,,,,,,,,,8,,,52,0
49199,note_on,,59,0,14,,,,,,,,,,,,,,,12,,,64,0
49199,note_on,,59,0,6,,,,,,,,,,,,,,,1,,,52,0
49199,note_on,,59,0,7,,,,,,,,,,,,,,,5,,,76,0
49199,note_on,,59,0,15,,,,,,,,,,,,,,,13,,,52,0
49199,note_on,,0,0,16,,,,,,,,,,,,,,,15,,,52,0
49199,note_on,,59,0,16,,,,,,,,,,,,,,,15,,,79,0
49199,note_on,,0,0,16,,,,,,,,,,,,,,,15,,,55,0
49199,note_on,,0,0,16,,,,,,,,,,,,,,,15,,,74,0
49199,note_on,,59,0,12,,,,,,,,,,,,,,,10,,,79,0
49199,note_on,,59,0,9,,,,,,,,,,,,,,,7,,,67,0
49199,note_on,,0,0,16,,,,,,,,,,,,,,,15,,,71,0
49199,note_on,,59,0,5,,,,,,,,,,,,,,,0,,,76,0
49200,note_on,,1,0,5,,,,,,,,,,,,,,,0,,,73,72
49200,note_on,,1,0,6,,,,,,,,,,,,,,,1,,,57,72
49200,note_on,,1,0,8,,,,,,,,,,,,,,,6,,,69,72
49200,note_on,,1,0,14,,,,,,,,,,,,,,,12,,,64,72
49200,note_on,,1,0,9,,,,,,,,,,,,,,,7,,,64,72
49200,note_on,,1,0,12,,,,,,,,,,,,,,,10,,,76,72
49200,note_on,,1,0,7,,,,,,,,,,,,,,,5,,,73,72
49200,note_on,,0,0,16,,,,,,,,,,,,,,,15,,,69,72
49200,note_on,,1,0,13,,,,,,,,,,,,,,,11,,,73,72
49200,note_on,,0,0,16,,,,,,,,,,,,,,,15,,,73,72
49200,note_on,,0,0,16,,,,,,,,,,,,,,,15,,,76,72
49200,note_on,,0,0,16,,,,,,,,,,,,,,,15,,,61,72
49200,note_on,,1,0,16,,,,,,,,,,,,,,,15,,,57,72
49200,note_on,,1,0,15,,,,,,,,,,,,,,,13,,,57,72
49200,note_on,,1,0,10,,,,,,,,,,,,,,,8,,,57,72
49319,note_on,,119,0,9,,,,,,,,,,,,,,,7,,,64,0
49319,note_on,,119,0,16,,,,,,,,,,,,,,,15,,,57,0
49319,note_on,,0,0,16,,,,,,,,,,,,,,,15,,,73,0
49319,note_on,,119,0,12,,,,,,,,,,,,,,,10,,,76,0
49319,note_on,,119,0,10,,,,,,,,,,,,,,,8,,,57,0
49319,note_on,,119,0,5,,,,,,,,,,,,,,,0,,,73,0
49319,note_on,,119,0,6,,,,,,,,,,,,,,,1,,,57,0
49319,note_on,,119,0,15,,,,,,,,,,,,,,,13,,,57,0
49319,note_on,,0,0,16,,,,,,,,,,,,,,,15,,,69,0
49319,note_on,,119,0,13,,,,,,,,,,,,,,,11,,,73,0
49319,note_on,,0,0,16,,,,,,,,,,,,,,,15,,,76,0
49319,note_on,,119,0,8,,,,,,,,,,,,,,,6,,,69,0
49319,note_on,,119,0,14,,,,,,,,,,,,,,,12,,,64,0
49319,note_on,,119,0,7,,,,,,,,,,,,,,,5,,,73,0
49319,note_on,,0,0,16,,,,,,,,,,,,,,,15,,,61,0
49320,note_on,,1,0,12,,,,,,,,,,,,,,,10,,,85,72
49320,note_on,,0,0,16,,,,,,,,,,,,,,,15,,,57,72
49320,note_on,,1,0,6,,,,,,,,,,,,,,,1,,,45,72
49320,note_on,,1,0,14,,,,,,,,,,,,,,,12,,,69,72
49320,note_on,,0,0,16,,,,,,,,,,,,,,,15,,,81,72
49320,note_on,,1,0,10,,,,,,,,,,,,,,,8,,,57,72
49320,note_on,,0,0,16,,,,,,,,,,,,,,,15,,,73,72
49320,note_on,,0,0,16,,,,,,,,,,,,,,,15,,,76,72
49320,note_on,,1,0,15,,,,,,,,,,,,,,,13,,,45,72
49320,note_on,,1,0,16,,,,,,,,,,,,,,,15,,,45,72
49320,note_on,,1,0,8,,,,,,,,,,,,,,,6,,,69,72
49320,note_on,,1,0,5,,,,,,,,,,,,,,,0,,,73,72
49320,note_on,,1,0,9,,,,,,,,,,,,,,,7,,,64,72
49320,note_on,,1,0,13,,,,,,,,,,,,,,,11,,,76,72
49320,note_on,,1,0,7,,,,,,,,,,,,,,,5,,,73,72
49379,note_on,,0,0,16,,,,,,,,,,,,,,,15,,,73,0
49379,note_on,,59,0,10,,,,,,,,,,,,,,,8,,,57,0
49379,note_on,,59,0,13,,,,,,,,,,,,,,,11,,,76,0
49379,note_on,,59,0,5,,,,,,,,,,,,,,,0,,,73,0
49379,note_on,,59,0,16,,,,,,,,,,,,,,,15,,,45,0
49379,note_on,,0,0,16,,,,,,,,,,,,,,,15,,,81,0
49379,note_on,,0,0,16,,,,,,,,,,,,,,,15,,,57,0
49379,note_on,,59,0,6,,,,,,,,,,,,,,,1,,,45,0
49379,note_on,,59,0,7,,,,,,,,,,,,,,,5,,,73,0
49379,note_on,,59,0,15,,,,,,,,,,,,,,,13,,,45,0
49379,note_on,,0,0,16,,,,,,,,,,,,,,,15,,,76,0
49379,note_on,,59,0,12,,,,,,,,,,,,,,,10,,,85,0
49379,note_on,,59,0,8,,,,,,,,,,,,,,,6,,,69,0
49379,note_on,,59,0,14,,,,,,,,,,,,,,,12,,,69,0
49379,note_on,,59,0,9,,,,,,,,,,,,,,,7,,,64,0
49380,note_on,,0,0,16,,,,,,,,,,,,,,,15,,,69,72
49380,note_on,,1,0,15,,,,,,,,,,,,,,,13,,,50,72
49380,note_on,,1,0,16,,,,,,,,,,,,,,,15,,,50,72
49380,note_on,,0,0,16,,,,,,,,,,,,,,,15,,,78,72
49380,note_on,,1,0,6,,,,,,,,,,,,,,,1,,,50,72
49380,note_on,,0,0,16,,,,,,,,,,,,,,,15,,,74,72
49380,note_on,,0,0,16,,,,,,,,,,,,,,,15,,,57,72
49380,note_on,,1,0,9,,,,,,,,,,,,,,,7,,,66,72
49380,note_on,,1,0,14,,,,,,,,,,,,,,,12,,,69,72
49380,note_on,,1,0,7,,,,,,,,,,,,,,,5,,,74,72
49380,note_on,,1,0,12,,,,,,,,,,,,,,,10,,,86,72
49380,note_on,,1,0,10,,,,,,,,,,,,,,,8,,,50,72
49380,note_on,,1,0,8,,,,,,,,,,,,,,,6,,,69,72
49380,note_on,,1,0,5,,,,,,,,,,,,,,,0,,,74,72
49380,note_on,,1,0,13,,,,,,,,,,,,,,,11,,,78,72
49439,note_on,,59,0,12,,,,,,,,,,,,,,,10,,,86,0
49439,note_on,,59,0,13,,,,,,,,,,,,,,,11,,,78,0
49440,note_on,,1,0,12,,,,,,,,,,,,,,,10,,,69,72
49440,note_on,,1,0,13,,,,,,,,,,,,,,,11,,,69,72
49469,note_on,,29,0,12,,,,,,,,,,,,,,,10,,,69,0
49469,note_on,,29,0,13,,,,,,,,,,,,,,,11,,,69,0
49470,note_on,,1,0,13,,,,,,,,,,,,,,,11,,,67,72
49470,note_on,,1,0,12,,,,,,,,,,,,,,,10,,,67,72
49499,note_on,,29,0,12,,,,,,,,,,,,,,,10,,,67,0
49499,note_on,,29,0,13,,,,,,,,,,,,,,,11,,,67,0
49500,note_on,,1,0,13,,,,,,,,,,,,,,,11,,,66,72
49500,note_on,,1,0,12,,,,,,,,,,,,,,,10,,,66,72
49529,note_on,,29,0,13,,,,,,,,,,,,,,,11,,,66,0
49529,note_on,,29,0,12,,,,,,,,,,,,,,,10,,,66,0
49530,note_on,,1,0,12,,,,,,,,,,,,,,,10,,,64,72
49530,note_on,,1,0,13,,,,,,,,,,,,,,,11,,,64,72
49559,note_on,,29,0,13,,,,,,,,,,,,,,,11,,,64,0
49559,note_on,,179,0,9,,,,,,,,,,,,,,,7,,,66,0
49559,note_on,,179,0,8,,,,,,,,,,,,,,,6,,,69,0
49559,note_on,,179,0,14,,,,,,,,,,,,,,,12,,,69,0
49559,note_on,,179,0,7,,,,,,,,,,,,,,,5,,,74,0
49559,note_on,,179,0,10,,,,,,,,,,,,,,,8,,,50,0
49559,note_on,,29,0,12,,,,,,,,,,,,,,,10,,,64,0
49559,note_on,,179,0,5,,,,,,,,,,,,,,,0,,,74,0
49560,note_on,,1,0,5,,,,,,,,,,,,,,,0,,,74,72
49560,note_on,,1,0,10,,,,,,,,,,,,,,,8,,,50,72
49560,note_on,,1,0,14,,,,,,,,,,,,,,,12,,,69,72
49560,note_on,,1,0,7,,,,,,,,,,,,,,,5,,,74,72
49560,note_on,,1,0,8,,,,,,,,,,,,,,,6,,,69,72
49560,note_on,,1,0,9,,,,,,,,,,,,,,,7,,,66,72
49560,note_on,,1,0,12,,,,,,,,,,,,,,,10,,,62,72
49560,note_on,,1,0,13,,,,,,,,,,,,,,,11,,,62,72
49619,note_on,,59,0,12,,,,,,,,,,,,,,,10,,,62,0
49619,note_on,,59,0,13,,,,,,,,,,,,,,,11,,,62,0
49620,note_on,,1,0,12,,,,,,,,,,,,,,,10,,,78,72
49620,note_on,,1,0,13,,,,,,,,,,,,,,,11,,,78,72
49679,note_on,,59,0,12,,,,,,,,,,,,,,,10,,,78,0
49679,note_on,,59,0,13,,,,,,,,,,,,,,,11,,,78,0
49679,note_on,,299,0,15,,,,,,,,,,,,,,,13,,,50,0
49679,note_on,,0,0,16,,,,,,,,,,,,,,,15,,,57,0
49679,note_on,,0,0,16,,,,,,,,,,,,,,,15,,,69,0
49679,note_on,,0,0,16,,,,,,,,,,,,,,,15,,,74,0
49679,note_on,,0,0,16,,,,,,,,,,,,,,,15,,,78,0
49679,note_on,,299,0,16,,,,,,,,,,,,,,,15,,,50,0
49679,note_on,,299,0,6,,,,,,,,,,,,,,,1,,,50,0
49680,note_on,,1,0,16,,,,,,,,,,,,,,,15,,,50,72
49680,note_on,,1,0,15,,,,,,,,,,,,,,,13,,,50,72
49680,note_on,,1,0,13,,,,,,,,,,,,,,,11,,,81,72
49680,note_on,,1,0,12,,,,,,,,,,,,,,,10,,,81,72
49680,note_on,,0,0,16,,,,,,,,,,,,,,,15,,,69,72
49680,note_on,,0,0,16,,,,,,,,,,,,,,,15,,,57,72
49680,note_on,,0,0,16,,,,,,,,,,,,,,,15,,,66,72
49680,note_on,,1,0,6,,,,,,,,,,,,,,,1,,,50,72
49680,note_on,,0,0,16,,,,,,,,,,,,,,,15,,,74,72
49739,note_on,,59,0,16,,,,,,,,,,,,,,,15,,,50,0
49739,note_on,,0,0,16,,,,,,,,,,,,,,,15,,,74,0
49739,note_on,,59,0,12,,,,,,,,,,,,,,,10,,,81,0
49739,note_on,,0,0,16,,,,,,,,,,,,,,,15,,,69,0
49739,note_on,,0,0,16,,,,,,,,,,,,,,,15,,,66,0
49739,end_of_track,,0,1,10,,,,,,,,,,,,,,,,,,,
49739,note_on,,0,0,16,,,,,,,,,,,,,,,15,,,57,0
49739,note_on,,179,0,10,,,,,,,,,,,,,,,8,,,50,0
49739,end_of_track,,0,1,8,,,,,,,,,,,,,,,,,,,
49739,note_on,,59,0,13,,,,,,,,,,,,,,,11,,,81,0
49739,note_on,,59,0,6,,,,,,,,,,,,,,,1,,,50,0
49739,note_on,,179,0,9,,,,,,,,,,,,,,,7,,,66,0
49739,end_of_track,,0,1,9,,,,,,,,,,,,,,,,,,,
49739,note_on,,179,0,8,,,,,,,,,,,,,,,6,,,69,0
49739,note_on,,179,0,7,,,,,,,,,,,,,,,5,,,74,0
49739,end_of_track,,0,1,7,,,,,,,,,,,,,,,,,,,
49739,end_of_track,,0,1,5,,,,,,,,,,,,,,,,,,,
49739,note_on,,179,0,5,,,,,,,,,,,,,,,0,,,74,0
49739,note_on,,179,0,14,,,,,,,,,,,,,,,12,,,69,0
49739,end_of_track,,0,1,14,,,,,,,,,,,,,,,,,,,
49739,note_on,,59,0,15,,,,,,,,,,,,,,,13,,,50,0
49740,note_on,,1,0,13,,,,,,,,,,,,,,,11,,,74,72
49740,note_on,,1,0,15,,,,,,,,,,,,,,,13,,,54,72
49740,note_on,,1,0,16,,,,,,,,,,,,,,,15,,,54,72
49740,note_on,,0,0,16,,,,,,,,,,,,,,,15,,,69,72
49740,note_on,,0,0,16,,,,,,,,,,,,,,,15,,,69,72
49740,note_on,,0,0,16,,,,,,,,,,,,,,,15,,,62,72
49740,note_on,,0,0,16,,,,,,,,,,,,,,,15,,,57,72
49740,note_on,,1,0,12,,,,,,,,,,,,,,,10,,,74,72
49740,note_on,,1,0,6,,,,,,,,,,,,,,,1,,,54,72
49799,note_on,,59,0,16,,,,,,,,,,,,,,,15,,,54,0
49799,note_on,,0,0,16,,,,,,,,,,,,,,,15,,,69,0
49799,note_on,,0,0,16,,,,,,,,,,,,,,,15,,,57,0
49799,note_on,,59,0,15,,,,,,,,,,,,,,,13,,,54,0
49799,note_on,,59,0,6,,,,,,,,,,,,,,,1,,,54,0
49800,note_on,,1,0,16,,,,,,,,,,,,,,,15,,,55,72
49800,note_on,,1,0,15,,,,,,,,,,,,,,,13,,,55,72
49800,note_on,,1,0,6,,,,,,,,,,,,,,,1,,,55,72
49800,note_on,,0,0,16,,,,,,,,,,,,,,,15,,,71,72
49859,note_on,,59,0,15,,,,,,,,,,,,,,,13,,,55,0
49859,note_on,,0,0,16,,,,,,,,,,,,,,,15,,,69,0
49859,note_on,,119,0,13,,,,,,,,,,,,,,,11,,,74,0
49859,note_on,,119,0,12,,,,,,,,,,,,,,,10,,,74,0
49859,note_on,,59,0,6,,,,,,,,,,,,,,,1,,,55,0
49859,note_on,,59,0,16,,,,,,,,,,,,,,,15,,,62,0
49859,note_on,,0,0,16,,,,,,,,,,,,,,,15,,,55,0
49860,note_on,,1,0,15,,,,,,,,,,,,,,,13,,,52,72
49860,note_on,,0,0,16,,,,,,,,,,,,,,,15,,,67,72
49860,note_on,,1,0,6,,,,,,,,,,,,,,,1,,,52,72
49860,note_on,,1,0,13,,,,,,,,,,,,,,,11,,,76,72
49860,note_on,,1,0,12,,,,,,,,,,,,,,,10,,,76,72
49860,note_on,,1,0,16,,,,,,,,,,,,,,,15,,,52,72
49860,note_on,,0,0,16,,,,,,,,,,,,,,,15,,,64,72
49919,note_on,,59,0,16,,,,,,,,,,,,,,,15,,,71,0
49919,note_on,,0,0,16,,,,,,,,,,,,,,,15,,,52,0
49919,note_on,,0,0,16,,,,,,,,,,,,,,,15,,,67,0
49919,note_on,,0,0,16,,,,,,,,,,,,,,,15,,,64,0
49919,note_on,,59,0,12,,,,,,,,,,,,,,,10,,,76,0
49919,note_on,,59,0,15,,,,,,,,,,,,,,,13,,,52,0
49919,note_on,,59,0,6,,,,,,,,,,,,,,,1,,,52,0
49919,note_on,,59,0,13,,,,,,,,,,,,,,,11,,,76,0
49920,note_on,,1,0,13,,,,,,,,,,,,,,,11,,,73,72
49920,note_on,,1,0,15,,,,,,,,,,,,,,,13,,,57,72
49920,note_on,,1,0,12,,,,,,,,,,,,,,,10,,,73,72
49920,note_on,,0,0,16,,,,,,,,,,,,,,,15,,,64,72
49920,note_on,,0,0,16,,,,,,,,,,,,,,,15,,,61,72
49920,note_on,,1,0,16,,,,,,,,,,,,,,,15,,,57,72
49920,note_on,,0,0,16,,,,,,,,,,,,,,,15,,,69,72
49920,note_on,,1,0,6,,,,,,,,,,,,,,,1,,,57,72
49979,note_on,,59,0,15,,,,,,,,,,,,,,,13,,,57,0
49979,note_on,,59,0,16,,,,,,,,,,,,,,,15,,,57,0
49979,note_on,,59,0,12,,,,,,,,,,,,,,,10,,,73,0
49979,note_on,,59,0,13,,,,,,,,,,,,,,,11,,,73,0
49979,note_on,,59,0,6,,,,,,,,,,,,,,,1,,,57,0
49980,note_on,,1,0,13,,,,,,,,,,,,,,,11,,,74,72
49980,note_on,,1,0,16,,,,,,,,,,,,,,,15,,,59,72
49980,note_on,,1,0,12,,,,,,,,,,,,,,,10,,,74,72
49980,note_on,,1,0,15,,,,,,,,,,,,,,,13,,,59,72
49980,note_on,,1,0,6,,,,,,,,,,,,,,,1,,,59,72
50039,note_on,,0,0,16,,,,,,,,,,,,,,,15,,,59,0
50039,note_on,,59,0,16,,,,,,,,,,,,,,,15,,,69,0
50039,note_on,,59,0,12,,,,,,,,,,,,,,,10,,,74,0
50039,note_on,,59,0,6,,,,,,,,,,,,,,,1,,,59,0
50039,note_on,,59,0,15,,,,,,,,,,,,,,,13,,,59,0
50039,note_on,,59,0,13,,,,,,,,,,,,,,,11,,,74,0
50040,note_on,,1,0,6,,,,,,,,,,,,,,,1,,,61,72
50040,note_on,,1,0,13,,,,,,,,,,,,,,,11,,,76,72
50040,note_on,,1,0,15,,,,,,,,,,,,,,,13,,,61,72
50040,note_on,,1,0,12,,,,,,,,,,,,,,,10,,,76,72
50040,note_on,,1,0,16,,,,,,,,,,,,,,,15,,,61,72
50040,note_on,,0,0,16,,,,,,,,,,,,,,,15,,,64,72
50099,note_on,,59,0,13,,,,,,,,,,,,,,,11,,,76,0
50099,note_on,,59,0,12,,,,,,,,,,,,,,,10,,,76,0
50099,note_on,,0,0,16,,,,,,,,,,,,,,,15,,,61,0
50099,note_on,,59,0,16,,,,,,,,,,,,,,,15,,,64,0
50099,note_on,,59,0,6,,,,,,,,,,,,,,,1,,,61,0
50099,note_on,,0,0,16,,,,,,,,,,,,,,,15,,,61,0
50099,note_on,,59,0,15,,,,,,,,,,,,,,,13,,,61,0
50099,note_on,,0,0,16,,,,,,,,,,,,,,,15,,,64,0
50100,note_on,,1,0,6,,,,,,,,,,,,,,,1,,,62,72
50100,note_on,,0,0,16,,,,,,,,,,,,,,,15,,,66,72
50100,note_on,,1,0,12,,,,,,,,,,,,,,,10,,,78,72
50100,note_on,,1,0,16,,,,,,,,,,,,,,,15,,,62,72
50100,note_on,,0,0,16,,,,,,,,,,,,,,,15,,,69,72
50100,note_on,,1,0,13,,,,,,,,,,,,,,,11,,,78,72
50100,note_on,,1,0,15,,,,,,,,,,,,,,,13,,,62,72
50159,note_on,,59,0,6,,,,,,,,,,,,,,,1,,,62,0
50159,note_on,,59,0,12,,,,,,,,,,,,,,,10,,,78,0
50159,note_on,,0,0,16,,,,,,,,,,,,,,,15,,,66,0
50159,note_on,,59,0,15,,,,,,,,,,,,,,,13,,,62,0
50159,note_on,,59,0,13,,,,,,,,,,,,,,,11,,,78,0
50159,note_on,,59,0,16,,,,,,,,,,,,,,,15,,,62,0
50159,note_on,,0,0,16,,,,,,,,,,,,,,,15,,,69,0
50160,note_on,,1,0,12,,,,,,,,,,,,,,,10,,,79,72
50160,note_on,,1,0,15,,,,,,,,,,,,,,,13,,,64,72
50160,note_on,,0,0,16,,,,,,,,,,,,,,,15,,,73,72
50160,note_on,,0,0,16,,,,,,,,,,,,,,,15,,,67,72
50160,note_on,,1,0,13,,,,,,,,,,,,,,,11,,,79,72
50160,note_on,,1,0,6,,,,,,,,,,,,,,,1,,,64,72
50160,note_on,,1,0,16,,,,,,,,,,,,,,,15,,,64,72
50219,note_on,,59,0,13,,,,,,,,,,,,,,,11,,,79,0
50219,note_on,,59,0,16,,,,,,,,,,,,,,,15,,,64,0
50219,note_on,,59,0,12,,,,,,,,,,,,,,,10,,,79,0
50219,note_on,,0,0,16,,,,,,,,,,,,,,,15,,,73,0
50219,note_on,,59,0,15,,,,,,,,,,,,,,,13,,,64,0
50219,note_on,,59,0,6,,,,,,,,,,,,,,,1,,,64,0
50219,note_on,,0,0,16,,,,,,,,,,,,,,,15,,,67,0
50220,note_on,,1,0,15,,,,,,,,,,,,,,,13,,,62,72
50220,note_on,,1,0,6,,,,,,,,,,,,,,,1,,,62,72
50220,note_on,,1,0,13,,,,,,,,,,,,,,,11,,,78,72
50220,note_on,,1,0,16,,,,,,,,,,,,,,,15,,,62,72
50220,note_on,,0,0,16,,,,,,,,,,,,,,,15,,,74,72
50220,note_on,,1,0,12,,,,,,,,,,,,,,,10,,,78,72
50220,note_on,,0,0,16,,,,,,,,,,,,,,,15,,,69,72
50220,note_on,,0,0,16,,,,,,,,,,,,,,,15,,,66,72
50279,note_on,,59,0,6,,,,,,,,,,,,,,,1,,,62,0
50279,note_on,,59,0,12,,,,,,,,,,,,,,,10,,,78,0
50279,note_on,,59,0,13,,,,,,,,,,,,,,,11,,,78,0
50279,note_on,,0,0,16,,,,,,,,,,,,,,,15,,,69,0
50279,note_on,,0,0,16,,,,,,,,,,,,,,,15,,,66,0
50279,note_on,,59,0,15,,,,,,,,,,,,,,,13,,,62,0
50279,note_on,,59,0,16,,,,,,,,,,,,,,,15,,,62,0
50279,note_on,,0,0,16,,,,,,,,,,,,,,,15,,,74,0
50280,note_on,,1,0,13,,,,,,,,,,,,,,,11,,,78,72
50280,note_on,,1,0,6,,,,,,,,,,,,,,,1,,,57,72
50280,note_on,,1,0,16,,,,,,,,,,,,,,,15,,,57,72
50280,note_on,,1,0,15,,,,,,,,,,,,,,,13,,,57,72
50280,note_on,,0,0,16,,,,,,,,,,,,,,,15,,,66,72
50280,note_on,,0,0,16,,,,,,,,,,,,,,,15,,,74,72
50280,note_on,,0,0,16,,,,,,,,,,,,,,,15,,,69,72
50280,note_on,,1,0,12,,,,,,,,,,,,,,,10,,,78,72
50294,note_on,,14,0,13,,,,,,,,,,,,,,,11,,,78,0
50294,note_on,,14,0,12,,,,,,,,,,,,,,,10,,,78,0
50295,note_on,,1,0,12,,,,,,,,,,,,,,,10,,,79,72
50295,note_on,,1,0,13,,,,,,,,,,,,,,,11,,,79,72
50309,note_on,,14,0,13,,,,,,,,,,,,,,,11,,,79,0
50309,note_on,,14,0,12,,,,,,,,,,,,,,,10,,,79,0
50310,note_on,,1,0,13,,,,,,,,,,,,,,,11,,,76,72
50310,note_on,,1,0,12,,,,,,,,,,,,,,,10,,,76,72
50324,note_on,,14,0,12,,,,,,,,,,,,,,,10,,,76,0
50324,note_on,,14,0,13,,,,,,,,,,,,,,,11,,,76,0
50325,note_on,,1,0,12,,,,,,,,,,,,,,,10,,,78,72
50325,note_on,,1,0,13,,,,,,,,,,,,,,,11,,,78,72
50339,note_on,,59,0,16,,,,,,,,,,,,,,,15,,,74,0
50339,note_on,,0,0,16,,,,,,,,,,,,,,,15,,,69,0
50339,note_on,,14,0,12,,,,,,,,,,,,,,,10,,,78,0
50339,note_on,,14,0,13,,,,,,,,,,,,,,,11,,,78,0
50339,note_on,,0,0,16,,,,,,,,,,,,,,,15,,,66,0
50340,note_on,,1,0,13,,,,,,,,,,,,,,,11,,,76,72
50340,note_on,,1,0,12,,,,,,,,,,,,,,,10,,,76,72
50340,note_on,,1,0,16,,,,,,,,,,,,,,,15,,,73,72
50340,note_on,,0,0,16,,,,,,,,,,,,,,,15,,,69,72
50340,note_on,,0,0,16,,,,,,,,,,,,,,,15,,,64,72
50399,note_on,,0,0,16,,,,,,,,,,,,,,,15,,,69,0
50399,note_on,,119,0,6,,,,,,,,,,,,,,,1,,,57,0
50399,note_on,,119,0,15,,,,,,,,,,,,,,,13,,,57,0
50399,note_on,,59,0,13,,,,,,,,,,,,,,,11,,,76,0
50399,note_on,,0,0,16,,,,,,,,,,,,,,,15,,,73,0
50399,note_on,,59,0,16,,,,,,,,,,,,,,,15,,,57,0
50399,note_on,,59,0,12,,,,,,,,,,,,,,,10,,,76,0
50399,note_on,,0,0,16,,,,,,,,,,,,,,,15,,,64,0
50400,note_on,,1,0,13,,,,,,,,,,,,,,,11,,,69,72
50400,note_on,,0,0,16,,,,,,,,,,,,,,,15,,,69,72
50400,note_on,,1,0,6,,,,,,,,,,,,,,,1,,,55,72
50400,note_on,,1,0,12,,,,,,,,,,,,,,,10,,,69,72
50400,note_on,,1,0,16,,,,,,,,,,,,,,,15,,,55,72
50400,note_on,,0,0,16,,,,,,,,,,,,,,,15,,,73,72
50400,note_on,,0,0,16,,,,,,,,,,,,,,,15,,,76,72
50400,note_on,,1,0,15,,,,,,,,,,,,,,,13,,,55,72
50459,note_on,,59,0,6,,,,,,,,,,,,,,,1,,,55,0
50459,note_on,,0,0,16,,,,,,,,,,,,,,,15,,,73,0
50459,note_on,,59,0,13,,,,,,,,,,,,,,,11,,,69,0
50459,note_on,,0,0,16,,,,,,,,,,,,,,,15,,,76,0
50459,note_on,,59,0,12,,,,,,,,,,,,,,,10,,,69,0
50459,note_on,,59,0,15,,,,,,,,,,,,,,,13,,,55,0
50459,note_on,,0,0,16,,,,,,,,,,,,,,,15,,,69,0
50459,note_on,,59,0,16,,,,,,,,,,,,,,,15,,,55,0
50460,note_on,,1,0,15,,,,,,,,,,,,,,,13,,,54,72
50460,note_on,,1,0,13,,,,,,,,,,,,,,,11,,,81,72
50460,note_on,,0,0,16,,,,,,,,,,,,,,,15,,,62,72
50460,note_on,,1,0,12,,,,,,,,,,,,,,,10,,,81,72
50460,note_on,,1,0,6,,,,,,,,,,,,,,,1,,,54,72
50460,note_on,,0,0,16,,,,,,,,,,,,,,,15,,,69,72
50460,note_on,,1,0,16,,,,,,,,,,,,,,,15,,,54,72
50460,note_on,,0,0,16,,,,,,,,,,,,,,,15,,,74,72
50489,note_on,,29,0,13,,,,,,,,,,,,,,,11,,,81,0
50489,note_on,,29,0,12,,,,,,,,,,,,,,,10,,,81,0
50490,note_on,,1,0,12,,,,,,,,,,,,,,,10,,,83,72
50490,note_on,,1,0,13,,,,,,,,,,,,,,,11,,,83,72
50519,note_on,,29,0,12,,,,,,,,,,,,,,,10,,,83,0
50519,note_on,,29,0,13,,,,,,,,,,,,,,,11,,,83,0
50520,note_on,,1,0,12,,,,,,,,,,,,,,,10,,,81,72
50520,note_on,,1,0,13,,,,,,,,,,,,,,,11,,,81,72
50549,note_on,,29,0,12,,,,,,,,,,,,,,,10,,,81,0
50549,note_on,,29,0,13,,,,,,,,,,,,,,,11,,,81,0
50550,note_on,,1,0,13,,,,,,,,,,,,,,,11,,,73,72
50550,note_on,,1,0,12,,,,,,,,,,,,,,,10,,,73,72
50579,note_on,,29,0,13,,,,,,,,,,,,,,,11,,,73,0
50579,note_on,,119,0,16,,,,,,,,,,,,,,,15,,,54,0
50579,note_on,,29,0,12,,,,,,,,,,,,,,,10,,,73,0
50579,note_on,,119,0,6,,,,,,,,,,,,,,,1,,,54,0
50579,note_on,,119,0,15,,,,,,,,,,,,,,,13,,,54,0
50580,note_on,,1,0,15,,,,,,,,,,,,,,,13,,,62,72
50580,note_on,,1,0,16,,,,,,,,,,,,,,,15,,,62,72
50580,note_on,,1,0,13,,,,,,,,,,,,,,,11,,,74,72
50580,note_on,,1,0,6,,,,,,,,,,,,,,,1,,,62,72
50580,note_on,,1,0,12,,,,,,,,,,,,,,,10,,,74,72
50609,note_on,,29,0,13,,,,,,,,,,,,,,,11,,,74,0
50609,note_on,,29,0,12,,,,,,,,,,,,,,,10,,,74,0
50610,note_on,,1,0,12,,,,,,,,,,,,,,,10,,,73,72
50610,note_on,,1,0,13,,,,,,,,,,,,,,,11,,,73,72
50639,note_on,,0,0,16,,,,,,,,,,,,,,,15,,,62,0
50639,note_on,,59,0,15,,,,,,,,,,,,,,,13,,,62,0
50639,note_on,,29,0,12,,,,,,,,,,,,,,,10,,,73,0
50639,note_on,,59,0,16,,,,,,,,,,,,,,,15,,,74,0
50639,note_on,,0,0,16,,,,,,,,,,,,,,,15,,,69,0
50639,note_on,,59,0,6,,,,,,,,,,,,,,,1,,,62,0
50639,note_on,,29,0,13,,,,,,,,,,,,,,,11,,,73,0
50639,note_on,,0,0,16,,,,,,,,,,,,,,,15,,,62,0
50640,note_on,,1,0,15,,,,,,,,,,,,,,,13,,,52,72
50640,note_on,,0,0,16,,,,,,,,,,,,,,,15,,,67,72
50640,note_on,,0,0,16,,,,,,,,,,,,,,,15,,,73,72
50640,note_on,,1,0,6,,,,,,,,,,,,,,,1,,,52,72
50640,note_on,,1,0,16,,,,,,,,,,,,,,,15,,,52,72
50640,note_on,,0,0,16,,,,,,,,,,,,,,,15,,,76,72
50640,note_on,,1,0,12,,,,,,,,,,,,,,,10,,,79,72
50640,note_on,,1,0,13,,,,,,,,,,,,,,,11,,,79,72
50669,note_on,,29,0,12,,,,,,,,,,,,,,,10,,,79,0
50669,note_on,,29,0,13,,,,,,,,,,,,,,,11,,,79,0
50670,note_on,,1,0,12,,,,,,,,,,,,,,,10,,,81,72
50670,note_on,,1,0,13,,,,,,,,,,,,,,,11,,,81,72
50699,note_on,,29,0,12,,,,,,,,,,,,,,,10,,,81,0
50699,note_on,,29,0,13,,,,,,,,,,,,,,,11,,,81,0
50700,note_on,,1,0,12,,,,,,,,,,,,,,,10,,,79,72
50700,note_on,,1,0,13,,,,,,,,,,,,,,,11,,,79,72
50729,note_on,,29,0,13,,,,,,,,,,,,,,,11,,,79,0
50729,note_on,,29,0,12,,,,,,,,,,,,,,,10,,,79,0
50730,note_on,,1,0,13,,,,,,,,,,,,,,,11,,,73,72
50730,note_on,,1,0,12,,,,,,,,,,,,,,,10,,,73,72
50759,note_on,,0,0,16,,,,,,,,,,,,,,,15,,,73,0
50759,note_on,,0,0,16,,,,,,,,,,,,,,,15,,,76,0
50759,note_on,,119,0,16,,,,,,,,,,,,,,,15,,,52,0
50759,note_on,,29,0,12,,,,,,,,,,,,,,,10,,,73,0
50759,note_on,,119,0,15,,,,,,,,,,,,,,,13,,,52,0
50759,note_on,,29,0,13,,,,,,,,,,,,,,,11,,,73,0
50759,note_on,,119,0,6,,,,,,,,,,,,,,,1,,,52,0
50759,note_on,,0,0,16,,,,,,,,,,,,,,,15,,,67,0
50760,note_on,,0,0,16,,,,,,,,,,,,,,,15,,,69,72
50760,note_on,,1,0,12,,,,,,,,,,,,,,,10,,,74,72
50760,note_on,,0,0,16,,,,,,,,,,,,,,,15,,,64,72
50760,note_on,,1,0,16,,,,,,,,,,,,,,,15,,,61,72
50760,note_on,,1,0,15,,,,,,,,,,,,,,,13,,,61,72
50760,note_on,,1,0,6,,,,,,,,,,,,,,,1,,,61,72
50760,note_on,,1,0,13,,,,,,,,,,,,,,,11,,,74,72
50789,note_on,,29,0,13,,,,,,,,,,,,,,,11,,,74,0
50789,note_on,,29,0,12,,,,,,,,,,,,,,,10,,,74,0
50790,note_on,,1,0,13,,,,,,,,,,,,,,,11,,,73,72
50790,note_on,,1,0,12,,,,,,,,,,,,,,,10,,,73,72
50819,note_on,,59,0,16,,,,,,,,,,,,,,,15,,,61,0
50819,note_on,,0,0,16,,,,,,,,,,,,,,,15,,,69,0
50819,note_on,,0,0,16,,,,,,,,,,,,,,,15,,,64,0
50819,note_on,,59,0,15,,,,,,,,,,,,,,,13,,,61,0
50819,note_on,,59,0,6,,,,,,,,,,,,,,,1,,,61,0
50819,note_on,,29,0,12,,,,,,,,,,,,,,,10,,,73,0
50819,note_on,,29,0,13,,,,,,,,,,,,,,,11,,,73,0
50820,note_on,,1,0,16,,,,,,,,,,,,,,,15,,,50,72
50820,note_on,,1,0,15,,,,,,,,,,,,,,,13,,,50,72
50820,note_on,,1,0,12,,,,,,,,,,,,,,,10,,,78,72
50820,note_on,,0,0,16,,,,,,,,,,,,,,,15,,,78,72
50820,note_on,,0,0,16,,,,,,,,,,,,,,,15,,,69,72
50820,note_on,,0,0,16,,,,,,,,,,,,,,,15,,,74,72
50820,note_on,,1,0,6,,,,,,,,,,,,,,,1,,,50,72
50820,note_on,,1,0,13,,,,,,,,,,,,,,,11,,,78,72
50849,note_on,,29,0,13,,,,,,,,,,,,,,,11,,,78,0
50849,note_on,,29,0,12,,,,,,,,,,,,,,,10,,,78,0
50850,note_on,,1,0,13,,,,,,,,,,,,,,,11,,,79,72
50850,note_on,,1,0,12,,,,,,,,,,,,,,,10,,,79,72
50879,note_on,,29,0,13,,,,,,,,,,,,,,,11,,,79,0
50879,note_on,,29,0,12,,,,,,,,,,,,,,,10,,,79,0
50880,note_on,,1,0,12,,,,,,,,,,,,,,,10,,,78,72
50880,note_on,,1,0,13,,,,,,,,,,,,,,,11,,,78,72
50909,note_on,,29,0,13,,,,,,,,,,,,,,,11,,,78,0
50909,note_on,,29,0,12,,,,,,,,,,,,,,,10,,,78,0
50910,note_on,,1,0,13,,,,,,,,,,,,,,,11,,,73,72
50910,note_on,,1,0,12,,,,,,,,,,,,,,,10,,,73,72
50939,note_on,,119,0,6,,,,,,,,,,,,,,,1,,,50,0
50939,note_on,,29,0,12,,,,,,,,,,,,,,,10,,,73,0
50939,note_on,,29,0,13,,,,,,,,,,,,,,,11,,,73,0
50939,note_on,,119,0,15,,,,,,,,,,,,,,,13,,,50,0
50939,note_on,,119,0,16,,,,,,,,,,,,,,,15,,,50,0
50940,note_on,,1,0,12,,,,,,,,,,,,,,,10,,,74,72
50940,note_on,,1,0,16,,,,,,,,,,,,,,,15,,,62,72
50940,note_on,,1,0,6,,,,,,,,,,,,,,,1,,,62,72
50940,note_on,,1,0,15,,,,,,,,,,,,,,,13,,,62,72
50940,note_on,,1,0,13,,,,,,,,,,,,,,,11,,,74,72
50969,note_on,,29,0,12,,,,,,,,,,,,,,,10,,,74,0
50969,note_on,,29,0,13,,,,,,,,,,,,,,,11,,,74,0
50970,note_on,,1,0,12,,,,,,,,,,,,,,,10,,,73,72
50970,note_on,,1,0,13,,,,,,,,,,,,,,,11,,,73,72
50999,note_on,,29,0,13,,,,,,,,,,,,,,,11,,,73,0
50999,note_on,,29,0,12,,,,,,,,,,,,,,,10,,,73,0
50999,note_on,,59,0,16,,,,,,,,,,,,,,,15,,,78,0
50999,note_on,,0,0,16,,,,,,,,,,,,,,,15,,,69,0
50999,note_on,,0,0,16,,,,,,,,,,,,,,,15,,,62,0
50999,note_on,,59,0,6,,,,,,,,,,,,,,,1,,,62,0
50999,note_on,,59,0,15,,,,,,,,,,,,,,,13,,,62,0
50999,note_on,,0,0,16,,,,,,,,,,,,,,,15,,,74,0
51000,note_on,,1,0,13,,,,,,,,,,,,,,,11,,,76,72
51000,note_on,,1,0,16,,,,,,,,,,,,,,,15,,,61,72
51000,note_on,,0,0,16,,,,,,,,,,,,,,,15,,,69,72
51000,note_on,,0,0,16,,,,,,,,,,,,,,,15,,,69,72
51000,note_on,,0,0,16,,,,,,,,,,,,,,,15,,,64,72
51000,note_on,,1,0,6,,,,,,,,,,,,,,,1,,,61,72
51000,note_on,,1,0,15,,,,,,,,,,,,,,,13,,,61,72
51000,note_on,,1,0,12,,,,,,,,,,,,,,,10,,,76,72
51029,note_on,,29,0,12,,,,,,,,,,,,,,,10,,,76,0
51029,note_on,,29,0,13,,,,,,,,,,,,,,,11,,,76,0
51030,note_on,,1,0,13,,,,,,,,,,,,,,,11,,,78,72
51030,note_on,,1,0,12,,,,,,,,,,,,,,,10,,,78,72
51059,note_on,,29,0,13,,,,,,,,,,,,,,,11,,,78,0
51059,note_on,,29,0,12,,,,,,,,,,,,,,,10,,,78,0
51060,note_on,,1,0,13,,,,,,,,,,,,,,,11,,,76,72
51060,note_on,,1,0,12,,,,,,,,,,,,,,,10,,,76,72
51089,note_on,,29,0,12,,,,,,,,,,,,,,,10,,,76,0
51089,note_on,,29,0,13,,,,,,,,,,,,,,,11,,,76,0
51090,note_on,,1,0,12,,,,,,,,,,,,,,,10,,,81,72
51090,note_on,,1,0,13,,,,,,,,,,,,,,,11,,,81,72
51119,note_on,,119,0,15,,,,,,,,,,,,,,,13,,,61,0
51119,note_on,,29,0,13,,,,,,,,,,,,,,,11,,,81,0
51119,note_on,,0,0,16,,,,,,,,,,,,,,,15,,,69,0
51119,note_on,,119,0,6,,,,,,,,,,,,,,,1,,,61,0
51119,note_on,,119,0,16,,,,,,,,,,,,,,,15,,,61,0
51119,note_on,,29,0,12,,,,,,,,,,,,,,,10,,,81,0
51120,note_on,,1,0,16,,,,,,,,,,,,,,,15,,,57,72
51120,note_on,,0,0,16,,,,,,,,,,,,,,,15,,,73,72
51120,note_on,,1,0,12,,,,,,,,,,,,,,,10,,,83,72
51120,note_on,,1,0,13,,,,,,,,,,,,,,,11,,,83,72
51120,note_on,,1,0,15,,,,,,,,,,,,,,,13,,,57,72
51120,note_on,,1,0,6,,,,,,,,,,,,,,,1,,,57,72
51149,note_on,,29,0,12,,,,,,,,,,,,,,,10,,,83,0
51149,note_on,,29,0,13,,,,,,,,,,,,,,,11,,,83,0
51150,note_on,,1,0,12,,,,,,,,,,,,,,,10,,,85,72
51150,note_on,,1,0,13,,,,,,,,,,,,,,,11,,,85,72
51179,note_on,,29,0,12,,,,,,,,,,,,,,,10,,,85,0
51179,note_on,,29,0,13,,,,,,,,,,,,,,,11,,,85,0
51179,note_on,,59,0,15,,,,,,,,,,,,,,,13,,,57,0
51179,note_on,,0,0,16,,,,,,,,,,,,,,,15,,,73,0
51179,note_on,,0,0,16,,,,,,,,,,,,,,,15,,,57,0
51179,note_on,,0,0,16,,,,,,,,,,,,,,,15,,,64,0
51179,note_on,,59,0,16,,,,,,,,,,,,,,,15,,,69,0
51179,note_on,,59,0,6,,,,,,,,,,,,,,,1,,,57,0
51180,note_on,,1,0,15,,,,,,,,,,,,,,,13,,,54,72
51180,note_on,,1,0,12,,,,,,,,,,,,,,,10,,,86,72
51180,note_on,,1,0,6,,,,,,,,,,,,,,,1,,,54,72
51180,note_on,,1,0,13,,,,,,,,,,,,,,,11,,,86,72
51180,note_on,,1,0,16,,,,,,,,,,,,,,,15,,,54,72
51180,note_on,,0,0,16,,,,,,,,,,,,,,,15,,,74,72
51180,note_on,,0,0,16,,,,,,,,,,,,,,,15,,,69,72
51180,note_on,,0,0,16,,,,,,,,,,,,,,,15,,,62,72
51209,note_on,,29,0,12,,,,,,,,,,,,,,,10,,,86,0
51209,note_on,,29,0,13,,,,,,,,,,,,,,,11,,,86,0
51210,note_on,,1,0,12,,,,,,,,,,,,,,,10,,,85,72
51210,note_on,,1,0,13,,,,,,,,,,,,,,,11,,,85,72
51239,note_on,,29,0,12,,,,,,,,,,,,,,,10,,,85,0
51239,note_on,,29,0,13,,,,,,,,,,,,,,,11,,,85,0
51240,note_on,,1,0,12,,,,,,,,,,,,,,,10,,,86,72
51240,note_on,,1,0,13,,,,,,,,,,,,,,,11,,,86,72
51269,note_on,,29,0,12,,,,,,,,,,,,,,,10,,,86,0
51269,note_on,,29,0,13,,,,,,,,,,,,,,,11,,,86,0
51270,note_on,,1,0,12,,,,,,,,,,,,,,,10,,,57,72
51270,note_on,,1,0,13,,,,,,,,,,,,,,,11,,,57,72
51299,note_on,,119,0,15,,,,,,,,,,,,,,,13,,,54,0
51299,note_on,,29,0,12,,,,,,,,,,,,,,,10,,,57,0
51299,note_on,,29,0,13,,,,,,,,,,,,,,,11,,,57,0
51299,note_on,,119,0,16,,,,,,,,,,,,,,,15,,,54,0
51299,note_on,,0,0,16,,,,,,,,,,,,,,,15,,,62,0
51299,note_on,,119,0,6,,,,,,,,,,,,,,,1,,,54,0
51300,note_on,,1,0,12,,,,,,,,,,,,,,,10,,,59,72
51300,note_on,,1,0,13,,,,,,,,,,,,,,,11,,,59,72
51300,note_on,,1,0,6,,,,,,,,,,,,,,,1,,,50,72
51300,note_on,,1,0,16,,,,,,,,,,,,,,,15,,,50,72
51300,note_on,,0,0,16,,,,,,,,,,,,,,,15,,,66,72
51300,note_on,,1,0,15,,,,,,,,,,,,,,,13,,,50,72
51329,note_on,,29,0,12,,,,,,,,,,,,,,,10,,,59,0
51329,note_on,,29,0,13,,,,,,,,,,,,,,,11,,,59,0
51330,note_on,,1,0,13,,,,,,,,,,,,,,,11,,,60,72
51330,note_on,,1,0,12,,,,,,,,,,,,,,,10,,,60,72
51359,note_on,,29,0,13,,,,,,,,,,,,,,,11,,,60,0
51359,note_on,,29,0,12,,,,,,,,,,,,,,,10,,,60,0
51359,note_on,,59,0,15,,,,,,,,,,,,,,,13,,,50,0
51359,note_on,,0,0,16,,,,,,,,,,,,,,,15,,,66,0
51359,note_on,,59,0,6,,,,,,,,,,,,,,,1,,,50,0
51359,note_on,,0,0,16,,,,,,,,,,,,,,,15,,,50,0
51359,note_on,,0,0,16,,,,,,,,,,,,,,,15,,,69,0
51359,note_on,,59,0,16,,,,,,,,,,,,,,,15,,,74,0
51360,note_on,,0,0,16,,,,,,,,,,,,,,,15,,,71,72
51360,note_on,,0,0,16,,,,,,,,,,,,,,,15,,,67,72
51360,note_on,,1,0,12,,,,,,,,,,,,,,,10,,,59,72
51360,note_on,,0,0,16,,,,,,,,,,,,,,,15,,,74,72
51360,note_on,,1,0,16,,,,,,,,,,,,,,,15,,,43,72
51360,note_on,,1,0,15,,,,,,,,,,,,,,,13,,,43,72
51360,note_on,,1,0,6,,,,,,,,,,,,,,,1,,,43,72
51360,note_on,,0,0,16,,,,,,,,,,,,,,,15,,,62,72
51360,note_on,,1,0,13,,,,,,,,,,,,,,,11,,,59,72
51389,note_on,,29,0,12,,,,,,,,,,,,,,,10,,,59,0
51389,note_on,,29,0,13,,,,,,,,,,,,,,,11,,,59,0
51390,note_on,,1,0,13,,,,,,,,,,,,,,,11,,,57,72
51390,note_on,,1,0,12,,,,,,,,,,,,,,,10,,,57,72
51419,note_on,,59,0,16,,,,,,,,,,,,,,,15,,,43,0
51419,note_on,,29,0,12,,,,,,,,,,,,,,,10,,,57,0
51419,note_on,,59,0,15,,,,,,,,,,,,,,,13,,,43,0
51419,note_on,,59,0,6,,,,,,,,,,,,,,,1,,,43,0
51419,note_on,,29,0,13,,,,,,,,,,,,,,,11,,,57,0
51420,note_on,,1,0,12,,,,,,,,,,,,,,,10,,,55,72
51420,note_on,,1,0,13,,,,,,,,,,,,,,,11,,,55,72
51420,note_on,,1,0,16,,,,,,,,,,,,,,,15,,,59,72
51420,note_on,,1,0,6,,,,,,,,,,,,,,,1,,,59,72
51420,note_on,,1,0,15,,,,,,,,,,,,,,,13,,,59,72
51449,note_on,,29,0,13,,,,,,,,,,,,,,,11,,,55,0
51449,note_on,,29,0,12,,,,,,,,,,,,,,,10,,,55,0
51450,note_on,,1,0,13,,,,,,,,,,,,,,,11,,,71,72
51450,note_on,,1,0,12,,,,,,,,,,,,,,,10,,,71,72
51479,note_on,,59,0,16,,,,,,,,,,,,,,,15,,,59,0
51479,note_on,,29,0,13,,,,,,,,,,,,,,,11,,,71,0
51479,note_on,,59,0,15,,,,,,,,,,,,,,,13,,,59,0
51479,note_on,,29,0,12,,,,,,,,,,,,,,,10,,,71,0
51479,note_on,,59,0,6,,,,,,,,,,,,,,,1,,,59,0
51480,note_on,,1,0,15,,,,,,,,,,,,,,,13,,,57,72
51480,note_on,,1,0,12,,,,,,,,,,,,,,,10,,,73,72
51480,note_on,,1,0,16,,,,,,,,,,,,,,,15,,,57,72
51480,note_on,,1,0,6,,,,,,,,,,,,,,,1,,,57,72
51480,note_on,,1,0,13,,,,,,,,,,,,,,,11,,,73,72
51509,note_on,,29,0,13,,,,,,,,,,,,,,,11,,,73,0
51509,note_on,,29,0,12,,,,,,,,,,,,,,,10,,,73,0
51510,note_on,,1,0,12,,,,,,,,,,,,,,,10,,,74,72
51510,note_on,,1,0,13,,,,,,,,,,,,,,,11,,,74,72
51539,note_on,,0,0,16,,,,,,,,,,,,,,,15,,,62,0
51539,note_on,,0,0,16,,,,,,,,,,,,,,,15,,,67,0
51539,note_on,,0,0,16,,,,,,,,,,,,,,,15,,,71,0
51539,note_on,,59,0,16,,,,,,,,,,,,,,,15,,,74,0
51539,note_on,,29,0,12,,,,,,,,,,,,,,,10,,,74,0
51539,note_on,,29,0,13,,,,,,,,,,,,,,,11,,,74,0
51539,note_on,,59,0,15,,,,,,,,,,,,,,,13,,,57,0
51539,note_on,,0,0,16,,,,,,,,,,,,,,,15,,,57,0
51539,note_on,,59,0,6,,,,,,,,,,,,,,,1,,,57,0
51540,note_on,,1,0,6,,,,,,,,,,,,,,,1,,,56,72
51540,note_on,,1,0,16,,,,,,,,,,,,,,,15,,,56,72
51540,note_on,,1,0,13,,,,,,,,,,,,,,,11,,,76,72
51540,note_on,,0,0,16,,,,,,,,,,,,,,,15,,,62,72
51540,note_on,,0,0,16,,,,,,,,,,,,,,,15,,,64,72
51540,note_on,,0,0,16,,,,,,,,,,,,,,,15,,,71,72
51540,note_on,,1,0,12,,,,,,,,,,,,,,,10,,,76,72
51540,note_on,,1,0,15,,,,,,,,,,,,,,,13,,,56,72
51569,note_on,,29,0,12,,,,,,,,,,,,,,,10,,,76,0
51569,note_on,,29,0,13,,,,,,,,,,,,,,,11,,,76,0
51570,note_on,,1,0,12,,,,,,,,,,,,,,,10,,,74,72
51570,note_on,,1,0,13,,,,,,,,,,,,,,,11,,,74,72
51599,note_on,,29,0,13,,,,,,,,,,,,,,,11,,,74,0
51599,note_on,,29,0,12,,,,,,,,,,,,,,,10,,,74,0
51600,note_on,,1,0,13,,,,,,,,,,,,,,,11,,,76,72
51600,note_on,,1,0,12,,,,,,,,,,,,,,,10,,,76,72
51629,note_on,,29,0,13,,,,,,,,,,,,,,,11,,,76,0
51629,note_on,,29,0,12,,,,,,,,,,,,,,,10,,,76,0
51630,note_on,,1,0,13,,,,,,,,,,,,,,,11,,,59,72
51630,note_on,,1,0,12,,,,,,,,,,,,,,,10,,,59,72
51659,note_on,,119,0,15,,,,,,,,,,,,,,,13,,,56,0
51659,note_on,,119,0,6,,,,,,,,,,,,,,,1,,,56,0
51659,note_on,,119,0,16,,,,,,,,,,,,,,,15,,,56,0
51659,note_on,,29,0,12,,,,,,,,,,,,,,,10,,,59,0
51659,note_on,,29,0,13,,,,,,,,,,,,,,,11,,,59,0
51660,note_on,,1,0,13,,,,,,,,,,,,,,,11,,,61,72
51660,note_on,,1,0,16,,,,,,,,,,,,,,,15,,,44,72
51660,note_on,,1,0,15,,,,,,,,,,,,,,,13,,,44,72
51660,note_on,,1,0,6,,,,,,,,,,,,,,,1,,,44,72
51660,note_on,,1,0,12,,,,,,,,,,,,,,,10,,,61,72
51689,note_on,,29,0,12,,,,,,,,,,,,,,,10,,,61,0
51689,note_on,,29,0,13,,,,,,,,,,,,,,,11,,,61,0
51690,note_on,,1,0,13,,,,,,,,,,,,,,,11,,,62,72
51690,note_on,,1,0,12,,,,,,,,,,,,,,,10,,,62,72
51719,note_on,,59,0,6,,,,,,,,,,,,,,,1,,,44,0
51719,note_on,,29,0,12,,,,,,,,,,,,,,,10,,,62,0
51719,note_on,,29,0,13,,,,,,,,,,,,,,,11,,,62,0
51719,note_on,,0,0,16,,,,,,,,,,,,,,,15,,,44,0
51719,note_on,,59,0,15,,,,,,,,,,,,,,,13,,,44,0
51719,note_on,,59,0,16,,,,,,,,,,,,,,,15,,,71,0
51719,note_on,,0,0,16,,,,,,,,,,,,,,,15,,,64,0
51719,note_on,,0,0,16,,,,,,,,,,,,,,,15,,,62,0
51720,note_on,,1,0,13,,,,,,,,,,,,,,,11,,,61,72
51720,note_on,,0,0,16,,,,,,,,,,,,,,,15,,,57,72
51720,note_on,,0,0,16,,,,,,,,,,,,,,,15,,,61,72
51720,note_on,,0,0,16,,,,,,,,,,,,,,,15,,,64,72
51720,note_on,,1,0,16,,,,,,,,,,,,,,,15,,,45,72
51720,note_on,,1,0,6,,,,,,,,,,,,,,,1,,,45,72
51720,note_on,,1,0,15,,,,,,,,,,,,,,,13,,,45,72
51720,note_on,,1,0,12,,,,,,,,,,,,,,,10,,,61,72
51749,note_on,,29,0,13,,,,,,,,,,,,,,,11,,,61,0
51749,note_on,,29,0,12,,,,,,,,,,,,,,,10,,,61,0
51750,note_on,,1,0,13,,,,,,,,,,,,,,,11,,,59,72
51750,note_on,,1,0,12,,,,,,,,,,,,,,,10,,,59,72
51779,note_on,,29,0,13,,,,,,,,,,,,,,,11,,,59,0
51779,note_on,,59,0,6,,,,,,,,,,,,,,,1,,,45,0
51779,note_on,,59,0,15,,,,,,,,,,,,,,,13,,,45,0
51779,note_on,,59,0,16,,,,,,,,,,,,,,,15,,,45,0
51779,note_on,,29,0,12,,,,,,,,,,,,,,,10,,,59,0
51780,note_on,,1,0,12,,,,,,,,,,,,,,,10,,,57,72
51780,note_on,,1,0,13,,,,,,,,,,,,,,,11,,,57,72
51780,note_on,,1,0,15,,,,,,,,,,,,,,,13,,,61,72
51780,note_on,,1,0,16,,,,,,,,,,,,,,,15,,,61,72
51780,note_on,,1,0,6,,,,,,,,,,,,,,,1,,,61,72
51809,note_on,,29,0,13,,,,,,,,,,,,,,,11,,,57,0
51809,note_on,,29,0,12,,,,,,,,,,,,,,,10,,,57,0
51810,note_on,,1,0,13,,,,,,,,,,,,,,,11,,,73,72
51810,note_on,,1,0,12,,,,,,,,,,,,,,,10,,,73,72
51839,note_on,,59,0,6,,,,,,,,,,,,,,,1,,,61,0
51839,note_on,,29,0,13,,,,,,,,,,,,,,,11,,,73,0
51839,note_on,,59,0,15,,,,,,,,,,,,,,,13,,,61,0
51839,note_on,,29,0,12,,,,,,,,,,,,,,,10,,,73,0
51839,note_on,,59,0,16,,,,,,,,,,,,,,,15,,,61,0
51840,note_on,,1,0,15,,,,,,,,,,,,,,,13,,,59,72
51840,note_on,,1,0,13,,,,,,,,,,,,,,,11,,,74,72
51840,note_on,,1,0,12,,,,,,,,,,,,,,,10,,,74,72
51840,note_on,,1,0,16,,,,,,,,,,,,,,,15,,,59,72
51840,note_on,,1,0,6,,,,,,,,,,,,,,,1,,,59,72
51869,note_on,,29,0,13,,,,,,,,,,,,,,,11,,,74,0
51869,note_on,,29,0,12,,,,,,,,,,,,,,,10,,,74,0
51870,note_on,,1,0,13,,,,,,,,,,,,,,,11,,,76,72
51870,note_on,,1,0,12,,,,,,,,,,,,,,,10,,,76,72
51899,note_on,,0,0,16,,,,,,,,,,,,,,,15,,,61,0
51899,note_on,,0,0,16,,,,,,,,,,,,,,,15,,,59,0
51899,note_on,,59,0,15,,,,,,,,,,,,,,,13,,,59,0
51899,note_on,,29,0,13,,,,,,,,,,,,,,,11,,,76,0
51899,note_on,,59,0,6,,,,,,,,,,,,,,,1,,,59,0
51899,note_on,,29,0,12,,,,,,,,,,,,,,,10,,,76,0
51899,note_on,,0,0,16,,,,,,,,,,,,,,,15,,,57,0
51899,note_on,,59,0,16,,,,,,,,,,,,,,,15,,,64,0
51900,note_on,,1,0,15,,,,,,,,,,,,,,,13,,,58,72
51900,note_on,,1,0,13,,,,,,,,,,,,,,,11,,,78,72
51900,note_on,,1,0,12,,,,,,,,,,,,,,,10,,,78,72
51900,note_on,,0,0,16,,,,,,,,,,,,,,,15,,,66,72
51900,note_on,,1,0,16,,,,,,,,,,,,,,,15,,,58,72
51900,note_on,,0,0,16,,,,,,,,,,,,,,,15,,,61,72
51900,note_on,,1,0,6,,,,,,,,,,,,,,,1,,,58,72
51929,note_on,,29,0,12,,,,,,,,,,,,,,,10,,,78,0
51929,note_on,,29,0,13,,,,,,,,,,,,,,,11,,,78,0
51930,note_on,,1,0,12,,,,,,,,,,,,,,,10,,,76,72
51930,note_on,,1,0,13,,,,,,,,,,,,,,,11,,,76,72
51959,note_on,,29,0,12,,,,,,,,,,,,,,,10,,,76,0
51959,note_on,,29,0,13,,,,,,,,,,,,,,,11,,,76,0
51960,note_on,,1,0,13,,,,,,,,,,,,,,,11,,,78,72
51960,note_on,,1,0,12,,,,,,,,,,,,,,,10,,,78,72
51989,note_on,,29,0,13,,,,,,,,,,,,,,,11,,,78,0
51989,note_on,,29,0,12,,,,,,,,,,,,,,,10,,,78,0
51990,note_on,,1,0,13,,,,,,,,,,,,,,,11,,,61,72
51990,note_on,,1,0,12,,,,,,,,,,,,,,,10,,,61,72
52019,note_on,,29,0,12,,,,,,,,,,,,,,,10,,,61,0
52019,note_on,,119,0,6,,,,,,,,,,,,,,,1,,,58,0
52019,note_on,,0,0,16,,,,,,,,,,,,,,,15,,,66,0
52019,note_on,,0,0,16,,,,,,,,,,,,,,,15,,,61,0
52019,note_on,,119,0,16,,,,,,,,,,,,,,,15,,,58,0
52019,note_on,,29,0,13,,,,,,,,,,,,,,,11,,,61,0
52019,note_on,,119,0,15,,,,,,,,,,,,,,,13,,,58,0
52020,note_on,,1,0,13,,,,,,,,,,,,,,,11,,,62,72
52020,note_on,,1,0,15,,,,,,,,,,,,,,,13,,,46,72
52020,note_on,,1,0,6,,,,,,,,,,,,,,,1,,,46,72
52020,note_on,,1,0,12,,,,,,,,,,,,,,,10,,,62,72
52020,note_on,,1,0,16,,,,,,,,,,,,,,,15,,,46,72
52020,note_on,,0,0,16,,,,,,,,,,,,,,,15,,,73,72
52020,note_on,,0,0,16,,,,,,,,,,,,,,,15,,,66,72
52049,note_on,,29,0,13,,,,,,,,,,,,,,,11,,,62,0
52049,note_on,,29,0,12,,,,,,,,,,,,,,,10,,,62,0
52050,note_on,,1,0,13,,,,,,,,,,,,,,,11,,,64,72
52050,note_on,,1,0,12,,,,,,,,,,,,,,,10,,,64,72
52079,note_on,,59,0,6,,,,,,,,,,,,,,,1,,,46,0
52079,note_on,,29,0,13,,,,,,,,,,,,,,,11,,,64,0
52079,note_on,,59,0,15,,,,,,,,,,,,,,,13,,,46,0
52079,note_on,,59,0,16,,,,,,,,,,,,,,,15,,,46,0
52079,note_on,,0,0,16,,,,,,,,,,,,,,,15,,,73,0
52079,note_on,,0,0,16,,,,,,,,,,,,,,,15,,,66,0
52079,note_on,,29,0,12,,,,,,,,,,,,,,,10,,,64,0
52080,note_on,,0,0,16,,,,,,,,,,,,,,,15,,,74,72
52080,note_on,,0,0,16,,,,,,,,,,,,,,,15,,,71,72
52080,note_on,,1,0,15,,,,,,,,,,,,,,,13,,,47,72
52080,note_on,,0,0,16,,,,,,,,,,,,,,,15,,,66,72
52080,note_on,,1,0,12,,,,,,,,,,,,,,,10,,,62,72
52080,note_on,,1,0,13,,,,,,,,,,,,,,,11,,,62,72
52080,note_on,,1,0,6,,,,,,,,,,,,,,,1,,,47,72
52080,note_on,,1,0,16,,,,,,,,,,,,,,,15,,,47,72
52109,note_on,,29,0,12,,,,,,,,,,,,,,,10,,,62,0
52109,note_on,,29,0,13,,,,,,,,,,,,,,,11,,,62,0
52110,note_on,,1,0,13,,,,,,,,,,,,,,,11,,,61,72
52110,note_on,,1,0,12,,,,,,,,,,,,,,,10,,,61,72
52139,note_on,,59,0,15,,,,,,,,,,,,,,,13,,,47,0
52139,note_on,,29,0,12,,,,,,,,,,,,,,,10,,,61,0
52139,note_on,,59,0,6,,,,,,,,,,,,,,,1,,,47,0
52139,note_on,,59,0,16,,,,,,,,,,,,,,,15,,,47,0
52139,note_on,,29,0,13,,,,,,,,,,,,,,,11,,,61,0
52140,note_on,,1,0,6,,,,,,,,,,,,,,,1,,,50,72
52140,note_on,,1,0,12,,,,,,,,,,,,,,,10,,,59,72
52140,note_on,,1,0,16,,,,,,,,,,,,,,,15,,,50,72
52140,note_on,,1,0,15,,,,,,,,,,,,,,,13,,,50,72
52140,note_on,,1,0,13,,,,,,,,,,,,,,,11,,,59,72
52169,note_on,,29,0,12,,,,,,,,,,,,,,,10,,,59,0
52169,note_on,,29,0,13,,,,,,,,,,,,,,,11,,,59,0
52170,note_on,,1,0,12,,,,,,,,,,,,,,,10,,,62,72
52170,note_on,,1,0,13,,,,,,,,,,,,,,,11,,,62,72
52199,note_on,,29,0,13,,,,,,,,,,,,,,,11,,,62,0
52199,note_on,,59,0,6,,,,,,,,,,,,,,,1,,,50,0
52199,note_on,,59,0,16,,,,,,,,,,,,,,,15,,,50,0
52199,note_on,,29,0,12,,,,,,,,,,,,,,,10,,,62,0
52199,note_on,,59,0,15,,,,,,,,,,,,,,,13,,,50,0
52200,note_on,,1,0,13,,,,,,,,,,,,,,,11,,,64,72
52200,note_on,,1,0,12,,,,,,,,,,,,,,,10,,,64,72
52200,note_on,,1,0,15,,,,,,,,,,,,,,,13,,,47,72
52200,note_on,,1,0,6,,,,,,,,,,,,,,,1,,,47,72
52200,note_on,,1,0,16,,,,,,,,,,,,,,,15,,,47,72
52229,note_on,,29,0,13,,,,,,,,,,,,,,,11,,,64,0
52229,note_on,,29,0,12,,,,,,,,,,,,,,,10,,,64,0
52230,note_on,,1,0,12,,,,,,,,,,,,,,,10,,,66,72
52230,note_on,,1,0,13,,,,,,,,,,,,,,,11,,,66,72
52259,note_on,,29,0,12,,,,,,,,,,,,,,,10,,,66,0
52259,note_on,,59,0,6,,,,,,,,,,,,,,,1,,,47,0
52259,note_on,,59,0,16,,,,,,,,,,,,,,,15,,,74,0
52259,note_on,,59,0,15,,,,,,,,,,,,,,,13,,,47,0
52259,note_on,,0,0,16,,,,,,,,,,,,,,,15,,,71,0
52259,note_on,,0,0,16,,,,,,,,,,,,,,,15,,,47,0
52259,note_on,,0,0,16,,,,,,,,,,,,,,,15,,,66,0
52259,note_on,,29,0,13,,,,,,,,,,,,,,,11,,,66,0
52260,note_on,,1,0,15,,,,,,,,,,,,,,,13,,,49,72
52260,note_on,,0,0,16,,,,,,,,,,,,,,,15,,,67,72
52260,note_on,,0,0,16,,,,,,,,,,,,,,,15,,,69,72
52260,note_on,,1,0,13,,,,,,,,,,,,,,,11,,,64,72
52260,note_on,,1,0,16,,,,,,,,,,,,,,,15,,,49,72
52260,note_on,,1,0,12,,,,,,,,,,,,,,,10,,,64,72
52260,note_on,,1,0,6,,,,,,,,,,,,,,,1,,,49,72
52260,note_on,,0,0,16,,,,,,,,,,,,,,,15,,,64,72
52289,note_on,,29,0,13,,,,,,,,,,,,,,,11,,,64,0
52289,note_on,,29,0,12,,,,,,,,,,,,,,,10,,,64,0
52290,note_on,,1,0,13,,,,,,,,,,,,,,,11,,,62,72
52290,note_on,,1,0,12,,,,,,,,,,,,,,,10,,,62,72
52319,note_on,,29,0,12,,,,,,,,,,,,,,,10,,,62,0
52319,note_on,,59,0,6,,,,,,,,,,,,,,,1,,,49,0
52319,note_on,,59,0,15,,,,,,,,,,,,,,,13,,,49,0
52319,note_on,,29,0,13,,,,,,,,,,,,,,,11,,,62,0
52319,note_on,,59,0,16,,,,,,,,,,,,,,,15,,,49,0
52320,note_on,,1,0,15,,,,,,,,,,,,,,,13,,,45,72
52320,note_on,,1,0,12,,,,,,,,,,,,,,,10,,,61,72
52320,note_on,,1,0,16,,,,,,,,,,,,,,,15,,,45,72
52320,note_on,,1,0,6,,,,,,,,,,,,,,,1,,,45,72
52320,note_on,,1,0,13,,,,,,,,,,,,,,,11,,,61,72
52349,note_on,,29,0,13,,,,,,,,,,,,,,,11,,,61,0
52349,note_on,,29,0,12,,,,,,,,,,,,,,,10,,,61,0
52350,note_on,,1,0,13,,,,,,,,,,,,,,,11,,,64,72
52350,note_on,,1,0,12,,,,,,,,,,,,,,,10,,,64,72
52379,note_on,,29,0,13,,,,,,,,,,,,,,,11,,,64,0
52379,note_on,,59,0,6,,,,,,,,,,,,,,,1,,,45,0
52379,note_on,,29,0,12,,,,,,,,,,,,,,,10,,,64,0
52379,note_on,,59,0,16,,,,,,,,,,,,,,,15,,,45,0
52379,note_on,,59,0,15,,,,,,,,,,,,,,,13,,,45,0
52380,note_on,,1,0,16,,,,,,,,,,,,,,,15,,,49,72
52380,note_on,,1,0,13,,,,,,,,,,,,,,,11,,,66,72
52380,note_on,,1,0,6,,,,,,,,,,,,,,,1,,,49,72
52380,note_on,,1,0,15,,,,,,,,,,,,,,,13,,,49,72
52380,note_on,,1,0,12,,,,,,,,,,,,,,,10,,,66,72
52409,note_on,,29,0,13,,,,,,,,,,,,,,,11,,,66,0
52409,note_on,,29,0,12,,,,,,,,,,,,,,,10,,,66,0
52410,note_on,,1,0,13,,,,,,,,,,,,,,,11,,,67,72
52410,note_on,,1,0,12,,,,,,,,,,,,,,,10,,,67,72
52439,note_on,,29,0,12,,,,,,,,,,,,,,,10,,,67,0
52439,note_on,,29,0,13,,,,,,,,,,,,,,,11,,,67,0
52439,note_on,,59,0,15,,,,,,,,,,,,,,,13,,,49,0
52439,note_on,,59,0,16,,,,,,,,,,,,,,,15,,,69,0
52439,note_on,,0,0,16,,,,,,,,,,,,,,,15,,,67,0
52439,note_on,,0,0,16,,,,,,,,,,,,,,,15,,,64,0
52439,note_on,,0,0,16,,,,,,,,,,,,,,,15,,,49,0
52439,note_on,,59,0,6,,,,,,,,,,,,,,,1,,,49,0
52440,note_on,,1,0,6,,,,,,,,,,,,,,,1,,,50,72
52440,note_on,,0,0,16,,,,,,,,,,,,,,,15,,,62,72
52440,note_on,,1,0,12,,,,,,,,,,,,,,,10,,,66,72
52440,note_on,,0,0,16,,,,,,,,,,,,,,,15,,,66,72
52440,note_on,,1,0,16,,,,,,,,,,,,,,,15,,,50,72
52440,note_on,,1,0,15,,,,,,,,,,,,,,,13,,,50,72
52440,note_on,,0,0,16,,,,,,,,,,,,,,,15,,,57,72
52440,note_on,,1,0,13,,,,,,,,,,,,,,,11,,,66,72
52469,note_on,,29,0,12,,,,,,,,,,,,,,,10,,,66,0
52469,note_on,,29,0,13,,,,,,,,,,,,,,,11,,,66,0
52470,note_on,,1,0,12,,,,,,,,,,,,,,,10,,,64,72
52470,note_on,,1,0,13,,,,,,,,,,,,,,,11,,,64,72
52499,note_on,,59,0,16,,,,,,,,,,,,,,,15,,,50,0
52499,note_on,,59,0,15,,,,,,,,,,,,,,,13,,,50,0
52499,note_on,,59,0,6,,,,,,,,,,,,,,,1,,,50,0
52499,note_on,,29,0,12,,,,,,,,,,,,,,,10,,,64,0
52499,note_on,,29,0,13,,,,,,,,,,,,,,,11,,,64,0
52500,note_on,,1,0,13,,,,,,,,,,,,,,,11,,,62,72
52500,note_on,,1,0,16,,,,,,,,,,,,,,,15,,,54,72
52500,note_on,,1,0,12,,,,,,,,,,,,,,,10,,,62,72
52500,note_on,,1,0,15,,,,,,,,,,,,,,,13,,,54,72
52500,note_on,,1,0,6,,,,,,,,,,,,,,,1,,,54,72
52529,note_on,,29,0,12,,,,,,,,,,,,,,,10,,,62,0
52529,note_on,,29,0,13,,,,,,,,,,,,,,,11,,,62,0
52530,note_on,,1,0,13,,,,,,,,,,,,,,,11,,,81,72
52530,note_on,,1,0,12,,,,,,,,,,,,,,,10,,,81,72
52559,note_on,,29,0,13,,,,,,,,,,,,,,,11,,,81,0
52559,note_on,,59,0,16,,,,,,,,,,,,,,,15,,,54,0
52559,note_on,,59,0,15,,,,,,,,,,,,,,,13,,,54,0
52559,note_on,,29,0,12,,,,,,,,,,,,,,,10,,,81,0
52559,note_on,,59,0,6,,,,,,,,,,,,,,,1,,,54,0
52560,note_on,,1,0,13,,,,,,,,,,,,,,,11,,,83,72
52560,note_on,,1,0,12,,,,,,,,,,,,,,,10,,,83,72
52560,note_on,,1,0,6,,,,,,,,,,,,,,,1,,,50,72
52560,note_on,,1,0,15,,,,,,,,,,,,,,,13,,,50,72
52560,note_on,,1,0,16,,,,,,,,,,,,,,,15,,,50,72
52589,note_on,,29,0,13,,,,,,,,,,,,,,,11,,,83,0
52589,note_on,,29,0,12,,,,,,,,,,,,,,,10,,,83,0
52590,note_on,,1,0,13,,,,,,,,,,,,,,,11,,,85,72
52590,note_on,,1,0,12,,,,,,,,,,,,,,,10,,,85,72
52619,note_on,,59,0,16,,,,,,,,,,,,,,,15,,,66,0
52619,note_on,,29,0,13,,,,,,,,,,,,,,,11,,,85,0
52619,note_on,,59,0,6,,,,,,,,,,,,,,,1,,,50,0
52619,note_on,,29,0,12,,,,,,,,,,,,,,,10,,,85,0
52619,note_on,,59,0,15,,,,,,,,,,,,,,,13,,,50,0
52619,note_on,,0,0,16,,,,,,,,,,,,,,,15,,,62,0
52619,note_on,,0,0,16,,,,,,,,,,,,,,,15,,,57,0
52619,note_on,,0,0,16,,,,,,,,,,,,,,,15,,,50,0
52620,note_on,,0,0,16,,,,,,,,,,,,,,,15,,,66,72
52620,note_on,,1,0,15,,,,,,,,,,,,,,,13,,,59,72
52620,note_on,,1,0,13,,,,,,,,,,,,,,,11,,,86,72
52620,note_on,,1,0,12,,,,,,,,,,,,,,,10,,,86,72
52620,note_on,,0,0,16,,,,,,,,,,,,,,,15,,,62,72
52620,note_on,,1,0,6,,,,,,,,,,,,,,,1,,,59,72
52620,note_on,,1,0,16,,,,,,,,,,,,,,,15,,,59,72
52679,note_on,,59,0,6,,,,,,,,,,,,,,,1,,,59,0
52679,note_on,,59,0,15,,,,,,,,,,,,,,,13,,,59,0
52679,note_on,,59,0,12,,,,,,,,,,,,,,,10,,,86,0
52679,note_on,,59,0,13,,,,,,,,,,,,,,,11,,,86,0
52679,note_on,,59,0,16,,,,,,,,,,,,,,,15,,,59,0
52680,note_on,,1,0,6,,,,,,,,,,,,,,,1,,,57,72
52680,note_on,,1,0,16,,,,,,,,,,,,,,,15,,,57,72
52680,note_on,,1,0,15,,,,,,,,,,,,,,,13,,,57,72
52680,note_on,,1,0,13,,,,,,,,,,,,,,,11,,,85,72
52680,note_on,,1,0,12,,,,,,,,,,,,,,,10,,,85,72
52739,note_on,,59,0,13,,,,,,,,,,,,,,,11,,,85,0
52739,note_on,,59,0,16,,,,,,,,,,,,,,,15,,,57,0
52739,note_on,,59,0,15,,,,,,,,,,,,,,,13,,,57,0
52739,note_on,,59,0,6,,,,,,,,,,,,,,,1,,,57,0
52739,note_on,,59,0,12,,,,,,,,,,,,,,,10,,,85,0
52740,note_on,,1,0,12,,,,,,,,,,,,,,,10,,,83,72
52740,note_on,,1,0,6,,,,,,,,,,,,,,,1,,,55,72
52740,note_on,,1,0,13,,,,,,,,,,,,,,,11,,,83,72
52740,note_on,,1,0,15,,,,,,,,,,,,,,,13,,,55,72
52740,note_on,,1,0,16,,,,,,,,,,,,,,,15,,,55,72
52799,note_on,,59,0,15,,,,,,,,,,,,,,,13,,,55,0
52799,note_on,,0,0,16,,,,,,,,,,,,,,,15,,,62,0
52799,note_on,,0,0,16,,,,,,,,,,,,,,,15,,,55,0
52799,note_on,,59,0,13,,,,,,,,,,,,,,,11,,,83,0
52799,note_on,,59,0,12,,,,,,,,,,,,,,,10,,,83,0
52799,note_on,,59,0,6,,,,,,,,,,,,,,,1,,,55,0
52799,note_on,,59,0,16,,,,,,,,,,,,,,,15,,,66,0
52800,note_on,,0,0,16,,,,,,,,,,,,,,,15,,,66,72
52800,note_on,,0,0,16,,,,,,,,,,,,,,,15,,,62,72
52800,note_on,,1,0,12,,,,,,,,,,,,,,,10,,,81,72
52800,note_on,,1,0,6,,,,,,,,,,,,,,,1,,,54,72
52800,note_on,,0,0,16,,,,,,,,,,,,,,,15,,,69,72
52800,note_on,,1,0,16,,,,,,,,,,,,,,,15,,,54,72
52800,note_on,,1,0,15,,,,,,,,,,,,,,,13,,,54,72
52800,note_on,,1,0,13,,,,,,,,,,,,,,,11,,,81,72
52859,note_on,,59,0,15,,,,,,,,,,,,,,,13,,,54,0
52859,note_on,,59,0,6,,,,,,,,,,,,,,,1,,,54,0
52859,note_on,,59,0,12,,,,,,,,,,,,,,,10,,,81,0
52859,note_on,,59,0,13,,,,,,,,,,,,,,,11,,,81,0
52859,note_on,,59,0,16,,,,,,,,,,,,,,,15,,,54,0
52860,note_on,,1,0,16,,,,,,,,,,,,,,,15,,,52,72
52860,note_on,,1,0,12,,,,,,,,,,,,,,,10,,,79,72
52860,note_on,,1,0,15,,,,,,,,,,,,,,,13,,,52,72
52860,note_on,,1,0,13,,,,,,,,,,,,,,,11,,,79,72
52860,note_on,,1,0,6,,,,,,,,,,,,,,,1,,,52,72
52919,note_on,,59,0,15,,,,,,,,,,,,,,,13,,,52,0
52919,note_on,,59,0,12,,,,,,,,,,,,,,,10,,,79,0
52919,note_on,,59,0,6,,,,,,,,,,,,,,,1,,,52,0
52919,note_on,,59,0,13,,,,,,,,,,,,,,,11,,,79,0
52919,note_on,,59,0,16,,,,,,,,,,,,,,,15,,,52,0
52920,note_on,,1,0,6,,,,,,,,,,,,,,,1,,,50,72
52920,note_on,,1,0,16,,,,,,,,,,,,,,,15,,,50,72
52920,note_on,,1,0,13,,,,,,,,,,,,,,,11,,,78,72
52920,note_on,,1,0,12,,,,,,,,,,,,,,,10,,,78,72
52920,note_on,,1,0,15,,,,,,,,,,,,,,,13,,,50,72
52979,note_on,,59,0,13,,,,,,,,,,,,,,,11,,,78,0
52979,note_on,,59,0,16,,,,,,,,,,,,,,,15,,,69,0
52979,note_on,,0,0,16,,,,,,,,,,,,,,,15,,,66,0
52979,note_on,,0,0,16,,,,,,,,,,,,,,,15,,,62,0
52979,note_on,,0,0,16,,,,,,,,,,,,,,,15,,,50,0
52979,note_on,,59,0,12,,,,,,,,,,,,,,,10,,,78,0
52979,note_on,,59,0,6,,,,,,,,,,,,,,,1,,,50,0
52979,note_on,,59,0,15,,,,,,,,,,,,,,,13,,,50,0
52980,note_on,,1,0,13,,,,,,,,,,,,,,,11,,,64,72
52980,note_on,,1,0,12,,,,,,,,,,,,,,,10,,,64,72
52980,note_on,,0,0,16,,,,,,,,,,,,,,,15,,,71,72
52980,note_on,,1,0,15,,,,,,,,,,,,,,,13,,,44,72
52980,note_on,,1,0,16,,,,,,,,,,,,,,,15,,,44,72
52980,note_on,,1,0,6,,,,,,,,,,,,,,,1,,,44,72
52980,note_on,,0,0,16,,,,,,,,,,,,,,,15,,,62,72
52980,note_on,,0,0,16,,,,,,,,,,,,,,,15,,,64,72
52994,note_on,,14,0,12,,,,,,,,,,,,,,,10,,,64,0
52994,note_on,,14,0,13,,,,,,,,,,,,,,,11,,,64,0
52995,note_on,,1,0,12,,,,,,,,,,,,,,,10,,,66,72
52995,note_on,,1,0,13,,,,,,,,,,,,,,,11,,,66,72
53009,note_on,,14,0,12,,,,,,,,,,,,,,,10,,,66,0
53009,note_on,,14,0,13,,,,,,,,,,,,,,,11,,,66,0
53010,note_on,,1,0,12,,,,,,,,,,,,,,,10,,,64,72
53010,note_on,,1,0,13,,,,,,,,,,,,,,,11,,,64,72
53024,note_on,,14,0,13,,,,,,,,,,,,,,,11,,,64,0
53024,note_on,,14,0,12,,,,,,,,,,,,,,,10,,,64,0
53025,note_on,,1,0,13,,,,,,,,,,,,,,,11,,,66,72
53025,note_on,,1,0,12,,,,,,,,,,,,,,,10,,,66,72
53039,note_on,,14,0,12,,,,,,,,,,,,,,,10,,,66,0
53039,note_on,,59,0,6,,,,,,,,,,,,,,,1,,,44,0
53039,note_on,,59,0,16,,,,,,,,,,,,,,,15,,,44,0
53039,note_on,,59,0,15,,,,,,,,,,,,,,,13,,,44,0
53039,note_on,,14,0,13,,,,,,,,,,,,,,,11,,,66,0
53040,note_on,,1,0,6,,,,,,,,,,,,,,,1,,,47,72
53040,note_on,,1,0,16,,,,,,,,,,,,,,,15,,,47,72
53040,note_on,,1,0,12,,,,,,,,,,,,,,,10,,,64,72
53040,note_on,,1,0,15,,,,,,,,,,,,,,,13,,,47,72
53040,note_on,,1,0,13,,,,,,,,,,,,,,,11,,,64,72
53054,note_on,,14,0,12,,,,,,,,,,,,,,,10,,,64,0
53054,note_on,,14,0,13,,,,,,,,,,,,,,,11,,,64,0
53055,note_on,,1,0,13,,,,,,,,,,,,,,,11,,,66,72
53055,note_on,,1,0,12,,,,,,,,,,,,,,,10,,,66,72
53069,note_on,,14,0,13,,,,,,,,,,,,,,,11,,,66,0
53069,note_on,,14,0,12,,,,,,,,,,,,,,,10,,,66,0
53070,note_on,,1,0,13,,,,,,,,,,,,,,,11,,,64,72
53070,note_on,,1,0,12,,,,,,,,,,,,,,,10,,,64,72
53084,note_on,,14,0,12,,,,,,,,,,,,,,,10,,,64,0
53084,note_on,,14,0,13,,,,,,,,,,,,,,,11,,,64,0
53085,note_on,,1,0,12,,,,,,,,,,,,,,,10,,,66,72
53085,note_on,,1,0,13,,,,,,,,,,,,,,,11,,,66,72
53099,note_on,,59,0,16,,,,,,,,,,,,,,,15,,,47,0
53099,note_on,,59,0,6,,,,,,,,,,,,,,,1,,,47,0
53099,note_on,,59,0,15,,,,,,,,,,,,,,,13,,,47,0
53099,note_on,,14,0,13,,,,,,,,,,,,,,,11,,,66,0
53099,note_on,,14,0,12,,,,,,,,,,,,,,,10,,,66,0
53100,note_on,,1,0,16,,,,,,,,,,,,,,,15,,,45,72
53100,note_on,,1,0,12,,,,,,,,,,,,,,,10,,,64,72
53100,note_on,,1,0,6,,,,,,,,,,,,,,,1,,,45,72
53100,note_on,,1,0,13,,,,,,,,,,,,,,,11,,,64,72
53100,note_on,,1,0,15,,,,,,,,,,,,,,,13,,,45,72
53114,note_on,,14,0,12,,,,,,,,,,,,,,,10,,,64,0
53114,note_on,,14,0,13,,,,,,,,,,,,,,,11,,,64,0
53115,note_on,,1,0,13,,,,,,,,,,,,,,,11,,,66,72
53115,note_on,,1,0,12,,,,,,,,,,,,,,,10,,,66,72
53129,note_on,,14,0,13,,,,,,,,,,,,,,,11,,,66,0
53129,note_on,,14,0,12,,,,,,,,,,,,,,,10,,,66,0
53130,note_on,,1,0,13,,,,,,,,,,,,,,,11,,,62,72
53130,note_on,,1,0,12,,,,,,,,,,,,,,,10,,,62,72
53144,note_on,,14,0,13,,,,,,,,,,,,,,,11,,,62,0
53144,note_on,,14,0,12,,,,,,,,,,,,,,,10,,,62,0
53145,note_on,,1,0,13,,,,,,,,,,,,,,,11,,,64,72
53145,note_on,,1,0,12,,,,,,,,,,,,,,,10,,,64,72
53159,note_on,,59,0,6,,,,,,,,,,,,,,,1,,,45,0
53159,note_on,,0,0,16,,,,,,,,,,,,,,,15,,,64,0
53159,note_on,,59,0,16,,,,,,,,,,,,,,,15,,,71,0
53159,note_on,,14,0,12,,,,,,,,,,,,,,,10,,,64,0
53159,note_on,,14,0,13,,,,,,,,,,,,,,,11,,,64,0
53159,note_on,,59,0,15,,,,,,,,,,,,,,,13,,,45,0
53159,note_on,,0,0,16,,,,,,,,,,,,,,,15,,,45,0
53159,note_on,,0,0,16,,,,,,,,,,,,,,,15,,,62,0
53160,note_on,,1,0,12,,,,,,,,,,,,,,,10,,,64,72
53160,note_on,,1,0,15,,,,,,,,,,,,,,,13,,,44,72
53160,note_on,,0,0,16,,,,,,,,,,,,,,,15,,,59,72
53160,note_on,,0,0,16,,,,,,,,,,,,,,,15,,,62,72
53160,note_on,,1,0,6,,,,,,,,,,,,,,,1,,,44,72
53160,note_on,,1,0,13,,,,,,,,,,,,,,,11,,,64,72
53160,note_on,,1,0,16,,,,,,,,,,,,,,,15,,,44,72
53160,note_on,,0,0,16,,,,,,,,,,,,,,,15,,,64,72
53174,note_on,,14,0,12,,,,,,,,,,,,,,,10,,,64,0
53174,note_on,,14,0,13,,,,,,,,,,,,,,,11,,,64,0
53175,note_on,,1,0,12,,,,,,,,,,,,,,,10,,,66,72
53175,note_on,,1,0,13,,,,,,,,,,,,,,,11,,,66,72
53189,note_on,,14,0,13,,,,,,,,,,,,,,,11,,,66,0
53189,note_on,,14,0,12,,,,,,,,,,,,,,,10,,,66,0
53190,note_on,,1,0,12,,,,,,,,,,,,,,,10,,,64,72
53190,note_on,,1,0,13,,,,,,,,,,,,,,,11,,,64,72
53204,note_on,,14,0,12,,,,,,,,,,,,,,,10,,,64,0
53204,note_on,,14,0,13,,,,,,,,,,,,,,,11,,,64,0
53205,note_on,,1,0,13,,,,,,,,,,,,,,,11,,,66,72
53205,note_on,,1,0,12,,,,,,,,,,,,,,,10,,,66,72
53219,note_on,,59,0,16,,,,,,,,,,,,,,,15,,,44,0
53219,note_on,,59,0,15,,,,,,,,,,,,,,,13,,,44,0
53219,note_on,,14,0,13,,,,,,,,,,,,,,,11,,,66,0
53219,note_on,,59,0,6,,,,,,,,,,,,,,,1,,,44,0
53219,note_on,,14,0,12,,,,,,,,,,,,,,,10,,,66,0
53220,note_on,,1,0,12,,,,,,,,,,,,,,,10,,,64,72
53220,note_on,,1,0,15,,,,,,,,,,,,,,,13,,,47,72
53220,note_on,,1,0,6,,,,,,,,,,,,,,,1,,,47,72
53220,note_on,,1,0,16,,,,,,,,,,,,,,,15,,,47,72
53220,note_on,,1,0,13,,,,,,,,,,,,,,,11,,,64,72
53234,note_on,,14,0,13,,,,,,,,,,,,,,,11,,,64,0
53234,note_on,,14,0,12,,,,,,,,,,,,,,,10,,,64,0
53235,note_on,,1,0,13,,,,,,,,,,,,,,,11,,,66,72
53235,note_on,,1,0,12,,,,,,,,,,,,,,,10,,,66,72
53249,note_on,,14,0,13,,,,,,,,,,,,,,,11,,,66,0
53249,note_on,,14,0,12,,,,,,,,,,,,,,,10,,,66,0
53250,note_on,,1,0,13,,,,,,,,,,,,,,,11,,,64,72
53250,note_on,,1,0,12,,,,,,,,,,,,,,,10,,,64,72
53264,note_on,,14,0,12,,,,,,,,,,,,,,,10,,,64,0
53264,note_on,,14,0,13,,,,,,,,,,,,,,,11,,,64,0
53265,note_on,,1,0,13,,,,,,,,,,,,,,,11,,,66,72
53265,note_on,,1,0,12,,,,,,,,,,,,,,,10,,,66,72
53279,note_on,,14,0,13,,,,,,,,,,,,,,,11,,,66,0
53279,note_on,,14,0,12,,,,,,,,,,,,,,,10,,,66,0
53279,note_on,,59,0,15,,,,,,,,,,,,,,,13,,,47,0
53279,note_on,,59,0,16,,,,,,,,,,,,,,,15,,,47,0
53279,note_on,,59,0,6,,,,,,,,,,,,,,,1,,,47,0
53280,note_on,,1,0,16,,,,,,,,,,,,,,,15,,,45,72
53280,note_on,,1,0,13,,,,,,,,,,,,,,,11,,,64,72
53280,note_on,,1,0,15,,,,,,,,,,,,,,,13,,,45,72
53280,note_on,,1,0,12,,,,,,,,,,,,,,,10,,,64,72
53280,note_on,,1,0,6,,,,,,,,,,,,,,,1,,,45,72
53294,note_on,,14,0,12,,,,,,,,,,,,,,,10,,,64,0
53294,note_on,,14,0,13,,,,,,,,,,,,,,,11,,,64,0
53295,note_on,,1,0,12,,,,,,,,,,,,,,,10,,,66,72
53295,note_on,,1,0,13,,,,,,,,,,,,,,,11,,,66,72
53309,note_on,,14,0,13,,,,,,,,,,,,,,,11,,,66,0
53309,note_on,,14,0,12,,,,,,,,,,,,,,,10,,,66,0
53310,note_on,,1,0,12,,,,,,,,,,,,,,,10,,,62,72
53310,note_on,,1,0,13,,,,,,,,,,,,,,,11,,,62,72
53324,note_on,,14,0,12,,,,,,,,,,,,,,,10,,,62,0
53324,note_on,,14,0,13,,,,,,,,,,,,,,,11,,,62,0
53325,note_on,,1,0,13,,,,,,,,,,,,,,,11,,,64,72
53325,note_on,,1,0,12,,,,,,,,,,,,,,,10,,,64,72
53339,note_on,,0,0,16,,,,,,,,,,,,,,,15,,,59,0
53339,note_on,,59,0,15,,,,,,,,,,,,,,,13,,,45,0
53339,note_on,,0,0,16,,,,,,,,,,,,,,,15,,,45,0
53339,note_on,,14,0,12,,,,,,,,,,,,,,,10,,,64,0
53339,note_on,,59,0,16,,,,,,,,,,,,,,,15,,,64,0
53339,note_on,,59,0,6,,,,,,,,,,,,,,,1,,,45,0
53339,note_on,,0,0,16,,,,,,,,,,,,,,,15,,,62,0
53339,note_on,,14,0,13,,,,,,,,,,,,,,,11,,,64,0
53340,note_on,,1,0,15,,,,,,,,,,,,,,,13,,,44,72
53340,note_on,,1,0,16,,,,,,,,,,,,,,,15,,,44,72
53340,note_on,,0,0,16,,,,,,,,,,,,,,,15,,,71,72
53340,note_on,,1,0,13,,,,,,,,,,,,,,,11,,,64,72
53340,note_on,,1,0,6,,,,,,,,,,,,,,,1,,,44,72
53340,note_on,,1,0,12,,,,,,,,,,,,,,,10,,,64,72
53340,note_on,,0,0,16,,,,,,,,,,,,,,,15,,,64,72
53340,note_on,,0,0,16,,,,,,,,,,,,,,,15,,,74,72
53354,note_on,,14,0,12,,,,,,,,,,,,,,,10,,,64,0
53354,note_on,,14,0,13,,,,,,,,,,,,,,,11,,,64,0
53355,note_on,,1,0,12,,,,,,,,,,,,,,,10,,,66,72
53355,note_on,,1,0,13,,,,,,,,,,,,,,,11,,,66,72
53369,note_on,,14,0,12,,,,,,,,,,,,,,,10,,,66,0
53369,note_on,,14,0,13,,,,,,,,,,,,,,,11,,,66,0
53370,note_on,,1,0,12,,,,,,,,,,,,,,,10,,,64,72
53370,note_on,,1,0,13,,,,,,,,,,,,,,,11,,,64,72
53384,note_on,,14,0,12,,,,,,,,,,,,,,,10,,,64,0
53384,note_on,,14,0,13,,,,,,,,,,,,,,,11,,,64,0
53385,note_on,,1,0,12,,,,,,,,,,,,,,,10,,,66,72
53385,note_on,,1,0,13,,,,,,,,,,,,,,,11,,,66,72
53399,note_on,,59,0,16,,,,,,,,,,,,,,,15,,,44,0
53399,note_on,,0,0,16,,,,,,,,,,,,,,,15,,,64,0
53399,note_on,,14,0,13,,,,,,,,,,,,,,,11,,,66,0
53399,note_on,,14,0,12,,,,,,,,,,,,,,,10,,,66,0
53399,note_on,,59,0,6,,,,,,,,,,,,,,,1,,,44,0
53399,note_on,,59,0,15,,,,,,,,,,,,,,,13,,,44,0
53400,note_on,,1,0,6,,,,,,,,,,,,,,,1,,,47,72
53400,note_on,,1,0,12,,,,,,,,,,,,,,,10,,,64,72
53400,note_on,,1,0,16,,,,,,,,,,,,,,,15,,,47,72
53400,note_on,,0,0,16,,,,,,,,,,,,,,,15,,,68,72
53400,note_on,,1,0,15,,,,,,,,,,,,,,,13,,,47,72
53400,note_on,,1,0,13,,,,,,,,,,,,,,,11,,,64,72
53414,note_on,,14,0,13,,,,,,,,,,,,,,,11,,,64,0
53414,note_on,,14,0,12,,,,,,,,,,,,,,,10,,,64,0
53415,note_on,,1,0,13,,,,,,,,,,,,,,,11,,,66,72
53415,note_on,,1,0,12,,,,,,,,,,,,,,,10,,,66,72
53429,note_on,,14,0,12,,,,,,,,,,,,,,,10,,,66,0
53429,note_on,,14,0,13,,,,,,,,,,,,,,,11,,,66,0
53430,note_on,,1,0,12,,,,,,,,,,,,,,,10,,,62,72
53430,note_on,,1,0,13,,,,,,,,,,,,,,,11,,,62,72
53444,note_on,,14,0,13,,,,,,,,,,,,,,,11,,,62,0
53444,note_on,,14,0,12,,,,,,,,,,,,,,,10,,,62,0
53445,note_on,,1,0,13,,,,,,,,,,,,,,,11,,,64,72
53445,note_on,,1,0,12,,,,,,,,,,,,,,,10,,,64,72
53459,note_on,,0,0,16,,,,,,,,,,,,,,,15,,,47,0
53459,note_on,,0,0,16,,,,,,,,,,,,,,,15,,,68,0
53459,note_on,,59,0,15,,,,,,,,,,,,,,,13,,,47,0
53459,note_on,,59,0,6,,,,,,,,,,,,,,,1,,,47,0
53459,note_on,,14,0,12,,,,,,,,,,,,,,,10,,,64,0
53459,note_on,,59,0,16,,,,,,,,,,,,,,,15,,,74,0
53459,note_on,,14,0,13,,,,,,,,,,,,,,,11,,,64,0
53459,note_on,,0,0,16,,,,,,,,,,,,,,,15,,,71,0
53460,note_on,,1,0,15,,,,,,,,,,,,,,,13,,,44,72
53460,note_on,,1,0,13,,,,,,,,,,,,,,,11,,,74,72
53460,note_on,,0,0,16,,,,,,,,,,,,,,,15,,,76,72
53460,note_on,,1,0,12,,,,,,,,,,,,,,,10,,,74,72
53460,note_on,,0,0,16,,,,,,,,,,,,,,,15,,,64,72
53460,note_on,,0,0,16,,,,,,,,,,,,,,,15,,,71,72
53460,note_on,,1,0,16,,,,,,,,,,,,,,,15,,,44,72
53460,note_on,,1,0,6,,,,,,,,,,,,,,,1,,,44,72
53519,note_on,,59,0,15,,,,,,,,,,,,,,,13,,,44,0
53519,note_on,,0,0,16,,,,,,,,,,,,,,,15,,,71,0
53519,note_on,,59,0,12,,,,,,,,,,,,,,,10,,,74,0
53519,note_on,,0,0,16,,,,,,,,,,,,,,,15,,,76,0
53519,note_on,,0,0,16,,,,,,,,,,,,,,,15,,,64,0
53519,note_on,,59,0,16,,,,,,,,,,,,,,,15,,,44,0
53519,note_on,,59,0,6,,,,,,,,,,,,,,,1,,,44,0
53519,note_on,,59,0,13,,,,,,,,,,,,,,,11,,,74,0
53520,note_on,,1,0,6,,,,,,,,,,,,,,,1,,,45,72
53520,note_on,,1,0,12,,,,,,,,,,,,,,,10,,,73,72
53520,note_on,,1,0,13,,,,,,,,,,,,,,,11,,,73,72
53520,note_on,,1,0,15,,,,,,,,,,,,,,,13,,,45,72
53520,note_on,,1,0,16,,,,,,,,,,,,,,,15,,,45,72
53520,note_on,,0,0,16,,,,,,,,,,,,,,,15,,,73,72
53520,note_on,,0,0,16,,,,,,,,,,,,,,,15,,,69,72
53520,note_on,,0,0,16,,,,,,,,,,,,,,,15,,,64,72
53549,note_on,,29,0,13,,,,,,,,,,,,,,,11,,,73,0
53549,note_on,,29,0,12,,,,,,,,,,,,,,,10,,,73,0
53550,note_on,,1,0,13,,,,,,,,,,,,,,,11,,,76,72
53550,note_on,,1,0,12,,,,,,,,,,,,,,,10,,,76,72
53579,note_on,,59,0,16,,,,,,,,,,,,,,,15,,,45,0
53579,note_on,,0,0,16,,,,,,,,,,,,,,,15,,,73,0
53579,note_on,,59,0,6,,,,,,,,,,,,,,,1,,,45,0
53579,note_on,,59,0,15,,,,,,,,,,,,,,,13,,,45,0
53579,note_on,,29,0,13,,,,,,,,,,,,,,,11,,,76,0
53579,note_on,,29,0,12,,,,,,,,,,,,,,,10,,,76,0
53580,note_on,,1,0,13,,,,,,,,,,,,,,,11,,,69,72
53580,note_on,,1,0,12,,,,,,,,,,,,,,,10,,,69,72
53580,note_on,,0,0,16,,,,,,,,,,,,,,,15,,,76,72
53580,note_on,,1,0,16,,,,,,,,,,,,,,,15,,,49,72
53580,note_on,,1,0,6,,,,,,,,,,,,,,,1,,,49,72
53580,note_on,,1,0,15,,,,,,,,,,,,,,,13,,,49,72
53609,note_on,,29,0,12,,,,,,,,,,,,,,,10,,,69,0
53609,note_on,,29,0,13,,,,,,,,,,,,,,,11,,,69,0
53610,note_on,,1,0,13,,,,,,,,,,,,,,,11,,,79,72
53610,note_on,,1,0,12,,,,,,,,,,,,,,,10,,,79,72
53639,note_on,,59,0,15,,,,,,,,,,,,,,,13,,,49,0
53639,note_on,,29,0,12,,,,,,,,,,,,,,,10,,,79,0
53639,note_on,,59,0,16,,,,,,,,,,,,,,,15,,,69,0
53639,note_on,,0,0,16,,,,,,,,,,,,,,,15,,,64,0
53639,note_on,,0,0,16,,,,,,,,,,,,,,,15,,,76,0
53639,note_on,,0,0,16,,,,,,,,,,,,,,,15,,,49,0
53639,note_on,,59,0,6,,,,,,,,,,,,,,,1,,,49,0
53639,note_on,,29,0,13,,,,,,,,,,,,,,,11,,,79,0
53640,note_on,,1,0,12,,,,,,,,,,,,,,,10,,,78,72
53640,note_on,,1,0,6,,,,,,,,,,,,,,,1,,,50,72
53640,note_on,,1,0,16,,,,,,,,,,,,,,,15,,,50,72
53640,note_on,,0,0,16,,,,,,,,,,,,,,,15,,,69,72
53640,note_on,,0,0,16,,,,,,,,,,,,,,,15,,,66,72
53640,note_on,,0,0,16,,,,,,,,,,,,,,,15,,,62,72
53640,note_on,,1,0,15,,,,,,,,,,,,,,,13,,,50,72
53640,note_on,,1,0,13,,,,,,,,,,,,,,,11,,,78,72
53669,note_on,,29,0,13,,,,,,,,,,,,,,,11,,,78,0
53669,note_on,,29,0,12,,,,,,,,,,,,,,,10,,,78,0
53670,note_on,,1,0,12,,,,,,,,,,,,,,,10,,,74,72
53670,note_on,,1,0,13,,,,,,,,,,,,,,,11,,,74,72
53699,note_on,,59,0,15,,,,,,,,,,,,,,,13,,,50,0
53699,note_on,,29,0,12,,,,,,,,,,,,,,,10,,,74,0
53699,note_on,,29,0,13,,,,,,,,,,,,,,,11,,,74,0
53699,note_on,,0,0,16,,,,,,,,,,,,,,,15,,,62,0
53699,note_on,,0,0,16,,,,,,,,,,,,,,,15,,,66,0
53699,note_on,,0,0,16,,,,,,,,,,,,,,,15,,,69,0
53699,note_on,,59,0,16,,,,,,,,,,,,,,,15,,,50,0
53699,note_on,,59,0,6,,,,,,,,,,,,,,,1,,,50,0
53700,note_on,,1,0,13,,,,,,,,,,,,,,,11,,,76,72
53700,note_on,,1,0,16,,,,,,,,,,,,,,,15,,,55,72
53700,note_on,,1,0,6,,,,,,,,,,,,,,,1,,,55,72
53700,note_on,,0,0,16,,,,,,,,,,,,,,,15,,,71,72
53700,note_on,,1,0,12,,,,,,,,,,,,,,,10,,,76,72
53700,note_on,,1,0,15,,,,,,,,,,,,,,,13,,,55,72
53700,note_on,,0,0,16,,,,,,,,,,,,,,,15,,,67,72
53700,note_on,,0,0,16,,,,,,,,,,,,,,,15,,,59,72
53729,note_on,,29,0,13,,,,,,,,,,,,,,,11,,,76,0
53729,note_on,,29,0,12,,,,,,,,,,,,,,,10,,,76,0
53730,note_on,,1,0,13,,,,,,,,,,,,,,,11,,,67,72
53730,note_on,,1,0,12,,,,,,,,,,,,,,,10,,,67,72
53759,note_on,,59,0,6,,,,,,,,,,,,,,,1,,,55,0
53759,note_on,,59,0,15,,,,,,,,,,,,,,,13,,,55,0
53759,note_on,,59,0,16,,,,,,,,,,,,,,,15,,,55,0
53759,note_on,,0,0,16,,,,,,,,,,,,,,,15,,,59,0
53759,note_on,,0,0,16,,,,,,,,,,,,,,,15,,,71,0
53759,note_on,,29,0,12,,,,,,,,,,,,,,,10,,,67,0
53759,note_on,,29,0,13,,,,,,,,,,,,,,,11,,,67,0
53759,note_on,,0,0,16,,,,,,,,,,,,,,,15,,,67,0
53760,note_on,,1,0,12,,,,,,,,,,,,,,,10,,,66,72
53760,note_on,,1,0,16,,,,,,,,,,,,,,,15,,,57,72
53760,note_on,,1,0,13,,,,,,,,,,,,,,,11,,,66,72
53760,note_on,,1,0,15,,,,,,,,,,,,,,,13,,,57,72
53760,note_on,,0,0,16,,,,,,,,,,,,,,,15,,,69,72
53760,note_on,,0,0,16,,,,,,,,,,,,,,,15,,,66,72
53760,note_on,,0,0,16,,,,,,,,,,,,,,,15,,,62,72
53760,note_on,,1,0,6,,,,,,,,,,,,,,,1,,,57,72
53789,note_on,,29,0,13,,,,,,,,,,,,,,,11,,,66,0
53789,note_on,,29,0,12,,,,,,,,,,,,,,,10,,,66,0
53790,note_on,,1,0,13,,,,,,,,,,,,,,,11,,,74,72
53790,note_on,,1,0,12,,,,,,,,,,,,,,,10,,,74,72
53819,note_on,,29,0,13,,,,,,,,,,,,,,,11,,,74,0
53819,note_on,,59,0,16,,,,,,,,,,,,,,,15,,,57,0
53819,note_on,,59,0,15,,,,,,,,,,,,,,,13,,,57,0
53819,note_on,,29,0,12,,,,,,,,,,,,,,,10,,,74,0
53819,note_on,,0,0,16,,,,,,,,,,,,,,,15,,,62,0
53819,note_on,,59,0,6,,,,,,,,,,,,,,,1,,,57,0
53819,note_on,,0,0,16,,,,,,,,,,,,,,,15,,,66,0
53819,note_on,,0,0,16,,,,,,,,,,,,,,,15,,,69,0
53820,note_on,,0,0,16,,,,,,,,,,,,,,,15,,,67,72
53820,note_on,,0,0,16,,,,,,,,,,,,,,,15,,,73,72
53820,note_on,,1,0,16,,,,,,,,,,,,,,,15,,,45,72
53820,note_on,,1,0,6,,,,,,,,,,,,,,,1,,,45,72
53820,note_on,,1,0,13,,,,,,,,,,,,,,,11,,,64,72
53820,note_on,,1,0,12,,,,,,,,,,,,,,,10,,,64,72
53820,note_on,,0,0,16,,,,,,,,,,,,,,,15,,,64,72
53820,note_on,,1,0,15,,,,,,,,,,,,,,,13,,,45,72
53849,note_on,,29,0,13,,,,,,,,,,,,,,,11,,,64,0
53849,note_on,,29,0,12,,,,,,,,,,,,,,,10,,,64,0
53850,note_on,,1,0,12,,,,,,,,,,,,,,,10,,,73,72
53850,note_on,,1,0,13,,,,,,,,,,,,,,,11,,,73,72
53879,note_on,,59,0,15,,,,,,,,,,,,,,,13,,,45,0
53879,note_on,,59,0,16,,,,,,,,,,,,,,,15,,,45,0
53879,note_on,,0,0,16,,,,,,,,,,,,,,,15,,,73,0
53879,note_on,,0,0,16,,,,,,,,,,,,,,,15,,,67,0
53879,note_on,,29,0,12,,,,,,,,,,,,,,,10,,,73,0
53879,note_on,,29,0,13,,,,,,,,,,,,,,,11,,,73,0
53879,note_on,,59,0,6,,,,,,,,,,,,,,,1,,,45,0
53879,note_on,,0,0,16,,,,,,,,,,,,,,,15,,,64,0
53880,note_on,,1,0,13,,,,,,,,,,,,,,,11,,,74,72
53880,note_on,,0,0,16,,,,,,,,,,,,,,,15,,,66,72
53880,note_on,,1,0,16,,,,,,,,,,,,,,,15,,,50,72
53880,note_on,,0,0,16,,,,,,,,,,,,,,,15,,,74,72
53880,note_on,,1,0,15,,,,,,,,,,,,,,,13,,,50,72
53880,note_on,,1,0,12,,,,,,,,,,,,,,,10,,,74,72
53880,note_on,,0,0,16,,,,,,,,,,,,,,,15,,,69,72
53880,note_on,,1,0,6,,,,,,,,,,,,,,,1,,,50,72
53999,note_on,,0,0,16,,,,,,,,,,,,,,,15,,,74,0
53999,note_on,,0,0,16,,,,,,,,,,,,,,,15,,,69,0
53999,note_on,,119,0,16,,,,,,,,,,,,,,,15,,,50,0
53999,note_on,,119,0,15,,,,,,,,,,,,,,,13,,,50,0
53999,note_on,,119,0,6,,,,,,,,,,,,,,,1,,,50,0
53999,end_of_track,,0,1,6,,,,,,,,,,,,,,,,,,,
53999,end_of_track,,0,1,15,,,,,,,,,,,,,,,,,,,
53999,note_on,,119,0,12,,,,,,,,,,,,,,,10,,,74,0
53999,end_of_track,,0,1,12,,,,,,,,,,,,,,,,,,,
53999,note_on,,0,0,16,,,,,,,,,,,,,,,15,,,66,0
53999,note_on,,119,0,13,,,,,,,,,,,,,,,11,,,74,0
53999,end_of_track,,0,1,13,,,,,,,,,,,,,,,,,,,
53999,end_of_track,,0,1,16,,,,,,,,,,,,,,,,,,,
54960,end_of_track,,0,1,0,,,,,,,,,,,,,,,,,,,
54960,set_tempo,,54540,1,0,,,,,,,,,600000,,,,,,,,,,
