tick,type,data,time,meta,track,frame_rate,hours,minutes,seconds,frames,sub_frames,port,key,tempo,numerator,denominator,clocks_per_click,notated_32nd_notes_per_beat,control,value,channel,program,note,velocity
0,sequencer_specific,"(0, 0, 91, 35, 1, 0, 5, 4, 35, 0)",0,1,0,,,,,,,,,,,,,,,,,,,
0,control_change,,0,0,8,,,,,,,,,,,,,,10,96,13,,,
0,control_change,,0,0,8,,,,,,,,,,,,,,7,96,13,,,
0,control_change,,0,0,8,,,,,,,,,,,,,,11,127,13,,,
0,midi_port,,0,1,8,,,,,,,0,,,,,,,,,,,,
0,track_name,,0,1,8,,,,,,,,,,,,,,,,,,,
0,track_name,,0,1,9,,,,,,,,,,,,,,,,,,,
0,midi_port,,0,1,9,,,,,,,0,,,,,,,,,,,,
0,control_change,,0,0,9,,,,,,,,,,,,,,11,127,15,,,
0,control_change,,0,0,9,,,,,,,,,,,,,,7,96,15,,,
0,control_change,,0,0,9,,,,,,,,,,,,,,10,90,15,,,
0,program_change,,0,0,9,,,,,,,,,,,,,,,,15,6,,
0,note_on,,0,0,9,,,,,,,,,,,,,,,,15,,52,64
0,program_change,,0,0,8,,,,,,,,,,,,,,,,13,48,,
0,note_on,,0,0,9,,,,,,,,,,,,,,,,15,,64,64
0,note_on,,0,0,9,,,,,,,,,,,,,,,,15,,56,64
0,midi_port,,0,1,6,,,,,,,0,,,,,,,,,,,,
0,program_change,,0,0,7,,,,,,,,,,,,,,,,10,48,,
0,control_change,,0,0,7,,,,,,,,,,,,,,10,32,10,,,
0,control_change,,0,0,7,,,,,,,,,,,,,,7,96,10,,,
0,control_change,,0,0,7,,,,,,,,,,,,,,11,127,10,,,
0,midi_port,,0,1,7,,,,,,,0,,,,,,,,,,,,
0,track_name,,0,1,7,,,,,,,,,,,,,,,,,,,
0,program_change,,0,0,6,,,,,,,,,,,,,,,,5,73,,
0,control_change,,0,0,6,,,,,,,,,,,,,,7,96,5,,,
0,control_change,,0,0,6,,,,,,,,,,,,,,10,70,5,,,
0,control_change,,0,0,6,,,,,,,,,,,,,,11,127,5,,,
0,note_on,,0,0,9,,,,,,,,,,,,,,,,15,,59,64
0,note_on,,0,0,8,,,,,,,,,,,,,,,,13,,52,64
0,track_name,,0,1,6,,,,,,,,,,,,,,,,,,,
0,end_of_track,,0,1,4,,,,,,,,,,,,,,,,,,,
0,track_name,,0,1,1,,,,,,,,,,,,,,,,,,,
0,midi_port,,0,1,1,,,,,,,0,,,,,,,,,,,,
0,end_of_track,,0,1,1,,,,,,,,,,,,,,,,,,,
0,track_name,,0,1,2,,,,,,,,,,,,,,,,,,,
0,midi_port,,0,1,2,,,,,,,0,,,,,,,,,,,,
0,end_of_track,,0,1,2,,,,,,,,,,,,,,,,,,,
0,track_name,,0,1,3,,,,,,,,,,,,,,,,,,,
0,midi_port,,0,1,3,,,,,,,0,,,,,,,,,,,,
0,end_of_track,,0,1,3,,,,,,,,,,,,,,,,,,,
0,midi_port,,0,1,4,,,,,,,0,,,,,,,,,,,,
0,track_name,,0,1,5,,,,,,,,,,,,,,,,,,,
0,midi_port,,0,1,5,,,,,,,0,,,,,,,,,,,,
0,control_change,,0,0,5,,,,,,,,,,,,,,11,127,2,,,
0,note_on,,0,0,5,,,,,,,,,,,,,,,,2,,52,64
0,control_change,,0,0,5,,,,,,,,,,,,,,10,65,2,,,
0,track_name,,0,1,0,,,,,,,,,,,,,,,,,,,
0,instrument_name,,0,1,0,,,,,,,,,,,,,,,,,,,
0,control_change,,0,0,5,,,,,,,,,,,,,,7,80,2,,,
0,midi_port,,0,1,0,,,,,,,0,,,,,,,,,,,,
0,key_signature,,0,1,0,,,,,,,,E,,,,,,,,,,,
0,set_tempo,,0,1,0,,,,,,,,,800000,,,,,,,,,,
0,smpte_offset,,0,1,0,25,32,0,3,0,0,,,,,,,,,,,,,
0,program_change,,0,0,5,,,,,,,,,,,,,,,,2,70,,
0,time_signature,,0,1,0,,,,,,,,,,3,4,24,8,,,,,,
239,note_on,,239,0,8,,,,,,,,,,,,,,,,13,,52,0
239,note_on,,239,0,9,,,,,,,,,,,,,,,,15,,52,0
239,note_on,,0,0,9,,,,,,,,,,,,,,,,15,,64,0
239,note_on,,0,0,9,,,,,,,,,,,,,,,,15,,59,0
239,note_on,,0,0,9,,,,,,,,,,,,,,,,15,,56,0
239,note_on,,239,0,5,,,,,,,,,,,,,,,,2,,52,0
240,note_on,,240,0,7,,,,,,,,,,,,,,,,10,,71,72
359,note_on,,119,0,7,,,,,,,,,,,,,,,,10,,71,0
360,note_on,,1,0,7,,,,,,,,,,,,,,,,10,,76,72
599,note_on,,239,0,7,,,,,,,,,,,,,,,,10,,76,0
600,note_on,,1,0,7,,,,,,,,,,,,,,,,10,,68,72
600,note_on,,361,0,9,,,,,,,,,,,,,,,,15,,59,64
600,note_on,,361,0,5,,,,,,,,,,,,,,,,2,,59,64
600,note_on,,361,0,8,,,,,,,,,,,,,,,,13,,59,64
600,note_on,,0,0,9,,,,,,,,,,,,,,,,15,,68,64
600,note_on,,0,0,9,,,,,,,,,,,,,,,,15,,63,64
614,note_on,,14,0,7,,,,,,,,,,,,,,,,10,,68,0
615,note_on,,1,0,7,,,,,,,,,,,,,,,,10,,69,72
629,note_on,,14,0,7,,,,,,,,,,,,,,,,10,,69,0
630,note_on,,1,0,7,,,,,,,,,,,,,,,,10,,68,72
644,note_on,,14,0,7,,,,,,,,,,,,,,,,10,,68,0
645,note_on,,1,0,7,,,,,,,,,,,,,,,,10,,69,72
659,note_on,,14,0,7,,,,,,,,,,,,,,,,10,,69,0
660,note_on,,1,0,7,,,,,,,,,,,,,,,,10,,66,72
674,note_on,,14,0,7,,,,,,,,,,,,,,,,10,,66,0
675,note_on,,1,0,7,,,,,,,,,,,,,,,,10,,68,72
689,note_on,,14,0,7,,,,,,,,,,,,,,,,10,,68,0
690,note_on,,1,0,7,,,,,,,,,,,,,,,,10,,66,72
719,note_on,,0,0,9,,,,,,,,,,,,,,,,15,,63,0
719,note_on,,119,0,5,,,,,,,,,,,,,,,,2,,59,0
719,note_on,,119,0,8,,,,,,,,,,,,,,,,13,,59,0
719,note_on,,0,0,9,,,,,,,,,,,,,,,,15,,68,0
719,note_on,,29,0,7,,,,,,,,,,,,,,,,10,,66,0
719,note_on,,119,0,9,,,,,,,,,,,,,,,,15,,59,0
720,note_on,,1,0,9,,,,,,,,,,,,,,,,15,,61,64
720,note_on,,0,0,9,,,,,,,,,,,,,,,,15,,76,64
720,note_on,,1,0,5,,,,,,,,,,,,,,,,2,,61,64
720,note_on,,1,0,7,,,,,,,,,,,,,,,,10,,64,72
720,note_on,,1,0,8,,,,,,,,,,,,,,,,13,,61,64
720,note_on,,0,0,9,,,,,,,,,,,,,,,,15,,64,64
720,note_on,,0,0,9,,,,,,,,,,,,,,,,15,,68,64
959,note_on,,0,0,9,,,,,,,,,,,,,,,,15,,76,0
959,note_on,,239,0,9,,,,,,,,,,,,,,,,15,,61,0
959,note_on,,0,0,9,,,,,,,,,,,,,,,,15,,64,0
959,note_on,,0,0,9,,,,,,,,,,,,,,,,15,,68,0
959,note_on,,239,0,7,,,,,,,,,,,,,,,,10,,64,0
959,note_on,,239,0,5,,,,,,,,,,,,,,,,2,,61,0
959,note_on,,239,0,8,,,,,,,,,,,,,,,,13,,61,0
960,note_on,,1,0,5,,,,,,,,,,,,,,,,2,,57,64
960,note_on,,1,0,8,,,,,,,,,,,,,,,,13,,57,64
960,note_on,,0,0,9,,,,,,,,,,,,,,,,15,,73,64
960,note_on,,0,0,9,,,,,,,,,,,,,,,,15,,69,64
960,note_on,,0,0,9,,,,,,,,,,,,,,,,15,,64,64
960,note_on,,1,0,9,,,,,,,,,,,,,,,,15,,57,64
960,note_on,,1,0,7,,,,,,,,,,,,,,,,10,,73,72
1079,note_on,,119,0,8,,,,,,,,,,,,,,,,13,,57,0
1079,note_on,,119,0,9,,,,,,,,,,,,,,,,15,,57,0
1079,note_on,,0,0,9,,,,,,,,,,,,,,,,15,,73,0
1079,note_on,,0,0,9,,,,,,,,,,,,,,,,15,,69,0
1079,note_on,,0,0,9,,,,,,,,,,,,,,,,15,,64,0
1079,note_on,,119,0,7,,,,,,,,,,,,,,,,10,,73,0
1079,note_on,,119,0,5,,,,,,,,,,,,,,,,2,,57,0
1080,note_on,,1,0,7,,,,,,,,,,,,,,,,10,,69,72
1080,note_on,,0,0,9,,,,,,,,,,,,,,,,15,,57,64
1080,note_on,,1,0,5,,,,,,,,,,,,,,,,2,,54,64
1080,note_on,,0,0,9,,,,,,,,,,,,,,,,15,,66,64
1080,note_on,,1,0,9,,,,,,,,,,,,,,,,15,,54,64
1080,note_on,,0,0,9,,,,,,,,,,,,,,,,15,,64,64
1080,note_on,,1,0,8,,,,,,,,,,,,,,,,13,,54,64
1259,note_on,,179,0,7,,,,,,,,,,,,,,,,10,,69,0
1260,note_on,,1,0,7,,,,,,,,,,,,,,,,10,,68,72
1319,note_on,,239,0,8,,,,,,,,,,,,,,,,13,,54,0
1319,note_on,,0,0,9,,,,,,,,,,,,,,,,15,,57,0
1319,note_on,,0,0,9,,,,,,,,,,,,,,,,15,,64,0
1319,note_on,,0,0,9,,,,,,,,,,,,,,,,15,,66,0
1319,note_on,,239,0,9,,,,,,,,,,,,,,,,15,,54,0
1319,note_on,,59,0,7,,,,,,,,,,,,,,,,10,,68,0
1319,note_on,,239,0,5,,,,,,,,,,,,,,,,2,,54,0
1320,note_on,,1,0,7,,,,,,,,,,,,,,,,10,,69,72
1320,note_on,,1,0,9,,,,,,,,,,,,,,,,15,,47,64
1320,note_on,,1,0,8,,,,,,,,,,,,,,,,13,,47,64
1320,note_on,,0,0,9,,,,,,,,,,,,,,,,15,,71,64
1320,note_on,,0,0,9,,,,,,,,,,,,,,,,15,,66,64
1320,note_on,,0,0,9,,,,,,,,,,,,,,,,15,,63,64
1320,note_on,,1,0,5,,,,,,,,,,,,,,,,2,,47,64
1439,note_on,,0,0,9,,,,,,,,,,,,,,,,15,,63,0
1439,note_on,,119,0,7,,,,,,,,,,,,,,,,10,,69,0
1439,note_on,,119,0,9,,,,,,,,,,,,,,,,15,,47,0
1439,note_on,,0,0,9,,,,,,,,,,,,,,,,15,,71,0
1439,note_on,,0,0,9,,,,,,,,,,,,,,,,15,,66,0
1439,note_on,,119,0,5,,,,,,,,,,,,,,,,2,,47,0
1439,note_on,,119,0,8,,,,,,,,,,,,,,,,13,,47,0
1440,note_on,,0,0,9,,,,,,,,,,,,,,,,15,,68,64
1440,note_on,,0,0,9,,,,,,,,,,,,,,,,15,,64,64
1440,note_on,,0,0,9,,,,,,,,,,,,,,,,15,,59,64
1440,note_on,,1,0,8,,,,,,,,,,,,,,,,13,,52,64
1440,note_on,,1,0,7,,,,,,,,,,,,,,,,10,,68,72
1440,note_on,,1,0,9,,,,,,,,,,,,,,,,15,,52,64
1440,note_on,,1,0,5,,,,,,,,,,,,,,,,2,,52,64
1559,note_on,,119,0,7,,,,,,,,,,,,,,,,10,,68,0
1620,note_on,,61,0,7,,,,,,,,,,,,,,,,10,,80,72
1679,note_on,,239,0,9,,,,,,,,,,,,,,,,15,,52,0
1679,note_on,,0,0,9,,,,,,,,,,,,,,,,15,,68,0
1679,note_on,,0,0,9,,,,,,,,,,,,,,,,15,,64,0
1679,note_on,,0,0,9,,,,,,,,,,,,,,,,15,,59,0
1679,note_on,,239,0,5,,,,,,,,,,,,,,,,2,,52,0
1679,note_on,,59,0,7,,,,,,,,,,,,,,,,10,,80,0
1679,note_on,,239,0,8,,,,,,,,,,,,,,,,13,,52,0
1680,note_on,,1,0,7,,,,,,,,,,,,,,,,10,,78,72
1694,note_on,,14,0,7,,,,,,,,,,,,,,,,10,,78,0
1695,note_on,,1,0,7,,,,,,,,,,,,,,,,10,,80,72
1709,note_on,,14,0,7,,,,,,,,,,,,,,,,10,,80,0
1710,note_on,,1,0,7,,,,,,,,,,,,,,,,10,,76,72
1724,note_on,,14,0,7,,,,,,,,,,,,,,,,10,,76,0
1725,note_on,,1,0,7,,,,,,,,,,,,,,,,10,,78,72
1739,note_on,,14,0,7,,,,,,,,,,,,,,,,10,,78,0
1740,note_on,,1,0,7,,,,,,,,,,,,,,,,10,,76,72
1799,note_on,,59,0,7,,,,,,,,,,,,,,,,10,,76,0
1800,note_on,,1,0,7,,,,,,,,,,,,,,,,10,,71,72
1980,note_on,,0,0,9,,,,,,,,,,,,,,,,15,,64,64
1980,note_on,,0,0,9,,,,,,,,,,,,,,,,15,,71,64
1980,note_on,,301,0,9,,,,,,,,,,,,,,,,15,,56,64
1980,note_on,,301,0,8,,,,,,,,,,,,,,,,13,,56,64
1980,note_on,,0,0,9,,,,,,,,,,,,,,,,15,,59,64
1980,note_on,,301,0,5,,,,,,,,,,,,,,,,2,,56,64
2039,note_on,,59,0,9,,,,,,,,,,,,,,,,15,,56,0
2039,note_on,,59,0,5,,,,,,,,,,,,,,,,2,,56,0
2039,note_on,,0,0,9,,,,,,,,,,,,,,,,15,,59,0
2039,note_on,,0,0,9,,,,,,,,,,,,,,,,15,,64,0
2039,note_on,,59,0,8,,,,,,,,,,,,,,,,13,,56,0
2040,note_on,,0,0,9,,,,,,,,,,,,,,,,15,,63,64
2040,note_on,,0,0,9,,,,,,,,,,,,,,,,15,,69,64
2040,note_on,,1,0,9,,,,,,,,,,,,,,,,15,,54,64
2040,note_on,,1,0,5,,,,,,,,,,,,,,,,2,,54,64
2040,note_on,,1,0,8,,,,,,,,,,,,,,,,13,,54,64
2099,note_on,,59,0,8,,,,,,,,,,,,,,,,13,,54,0
2099,note_on,,0,0,9,,,,,,,,,,,,,,,,15,,63,0
2099,note_on,,59,0,5,,,,,,,,,,,,,,,,2,,54,0
2099,note_on,,59,0,9,,,,,,,,,,,,,,,,15,,54,0
2099,note_on,,0,0,9,,,,,,,,,,,,,,,,15,,69,0
2100,note_on,,1,0,5,,,,,,,,,,,,,,,,2,,52,64
2100,note_on,,0,0,9,,,,,,,,,,,,,,,,15,,64,64
2100,note_on,,1,0,9,,,,,,,,,,,,,,,,15,,52,64
2100,note_on,,1,0,8,,,,,,,,,,,,,,,,13,,52,64
2100,note_on,,0,0,9,,,,,,,,,,,,,,,,15,,68,64
2159,note_on,,0,0,9,,,,,,,,,,,,,,,,15,,68,0
2159,note_on,,59,0,8,,,,,,,,,,,,,,,,13,,52,0
2159,note_on,,59,0,5,,,,,,,,,,,,,,,,2,,52,0
2159,note_on,,0,0,9,,,,,,,,,,,,,,,,15,,52,0
2159,note_on,,59,0,9,,,,,,,,,,,,,,,,15,,71,0
2159,note_on,,0,0,9,,,,,,,,,,,,,,,,15,,64,0
2160,note_on,,1,0,9,,,,,,,,,,,,,,,,15,,47,64
2160,note_on,,1,0,8,,,,,,,,,,,,,,,,13,,47,64
2160,note_on,,0,0,9,,,,,,,,,,,,,,,,15,,63,64
2160,note_on,,0,0,9,,,,,,,,,,,,,,,,15,,66,64
2160,note_on,,0,0,9,,,,,,,,,,,,,,,,15,,71,64
2160,note_on,,1,0,5,,,,,,,,,,,,,,,,2,,47,64
2339,note_on,,539,0,7,,,,,,,,,,,,,,,,10,,71,0
2370,note_on,,31,0,7,,,,,,,,,,,,,,,,10,,68,72
2399,note_on,,239,0,5,,,,,,,,,,,,,,,,2,,47,0
2399,note_on,,29,0,7,,,,,,,,,,,,,,,,10,,68,0
2399,note_on,,239,0,8,,,,,,,,,,,,,,,,13,,47,0
2399,note_on,,0,0,9,,,,,,,,,,,,,,,,15,,71,0
2399,note_on,,0,0,9,,,,,,,,,,,,,,,,15,,66,0
2399,note_on,,0,0,9,,,,,,,,,,,,,,,,15,,63,0
2399,note_on,,239,0,9,,,,,,,,,,,,,,,,15,,47,0
2400,note_on,,1,0,7,,,,,,,,,,,,,,,,10,,66,72
2414,note_on,,14,0,7,,,,,,,,,,,,,,,,10,,66,0
2415,note_on,,1,0,7,,,,,,,,,,,,,,,,10,,68,72
2429,note_on,,14,0,7,,,,,,,,,,,,,,,,10,,68,0
2430,note_on,,1,0,7,,,,,,,,,,,,,,,,10,,66,72
2444,note_on,,14,0,7,,,,,,,,,,,,,,,,10,,66,0
2445,note_on,,1,0,7,,,,,,,,,,,,,,,,10,,68,72
2459,note_on,,14,0,7,,,,,,,,,,,,,,,,10,,68,0
2460,note_on,,1,0,7,,,,,,,,,,,,,,,,10,,64,72
2474,note_on,,14,0,7,,,,,,,,,,,,,,,,10,,64,0
2475,note_on,,1,0,7,,,,,,,,,,,,,,,,10,,66,72
2489,note_on,,14,0,7,,,,,,,,,,,,,,,,10,,66,0
2490,note_on,,1,0,7,,,,,,,,,,,,,,,,10,,64,72
2519,note_on,,29,0,7,,,,,,,,,,,,,,,,10,,64,0
2520,note_on,,1,0,7,,,,,,,,,,,,,,,,10,,76,72
2700,note_on,,0,0,9,,,,,,,,,,,,,,,,15,,56,64
2700,note_on,,0,0,9,,,,,,,,,,,,,,,,15,,64,64
2700,note_on,,301,0,9,,,,,,,,,,,,,,,,15,,49,64
2700,note_on,,301,0,8,,,,,,,,,,,,,,,,13,,49,64
2700,note_on,,301,0,5,,,,,,,,,,,,,,,,2,,49,64
2759,note_on,,59,0,5,,,,,,,,,,,,,,,,2,,49,0
2759,note_on,,59,0,8,,,,,,,,,,,,,,,,13,,49,0
2759,note_on,,59,0,9,,,,,,,,,,,,,,,,15,,49,0
2760,note_on,,1,0,8,,,,,,,,,,,,,,,,13,,47,64
2760,note_on,,1,0,9,,,,,,,,,,,,,,,,15,,47,64
2760,note_on,,0,0,9,,,,,,,,,,,,,,,,15,,63,64
2760,note_on,,1,0,5,,,,,,,,,,,,,,,,2,,47,64
2819,note_on,,59,0,8,,,,,,,,,,,,,,,,13,,47,0
2819,note_on,,59,0,9,,,,,,,,,,,,,,,,15,,56,0
2819,note_on,,0,0,9,,,,,,,,,,,,,,,,15,,47,0
2819,note_on,,0,0,9,,,,,,,,,,,,,,,,15,,63,0
2819,note_on,,59,0,5,,,,,,,,,,,,,,,,2,,47,0
2820,note_on,,1,0,9,,,,,,,,,,,,,,,,15,,45,64
2820,note_on,,1,0,8,,,,,,,,,,,,,,,,13,,45,64
2820,note_on,,1,0,5,,,,,,,,,,,,,,,,2,,45,64
2820,note_on,,0,0,9,,,,,,,,,,,,,,,,15,,61,64
2820,note_on,,0,0,9,,,,,,,,,,,,,,,,15,,57,64
2879,note_on,,0,0,9,,,,,,,,,,,,,,,,15,,61,0
2879,note_on,,59,0,8,,,,,,,,,,,,,,,,13,,45,0
2879,note_on,,59,0,5,,,,,,,,,,,,,,,,2,,45,0
2879,note_on,,0,0,9,,,,,,,,,,,,,,,,15,,45,0
2879,note_on,,59,0,9,,,,,,,,,,,,,,,,15,,64,0
2879,note_on,,0,0,9,,,,,,,,,,,,,,,,15,,57,0
2880,note_on,,0,0,9,,,,,,,,,,,,,,,,15,,64,64
2880,note_on,,1,0,5,,,,,,,,,,,,,,,,2,,44,64
2880,note_on,,0,0,9,,,,,,,,,,,,,,,,15,,52,64
2880,note_on,,0,0,9,,,,,,,,,,,,,,,,15,,59,64
2880,note_on,,1,0,8,,,,,,,,,,,,,,,,13,,44,64
2880,note_on,,1,0,9,,,,,,,,,,,,,,,,15,,44,64
2999,note_on,,119,0,5,,,,,,,,,,,,,,,,2,,44,0
2999,note_on,,119,0,9,,,,,,,,,,,,,,,,15,,44,0
2999,note_on,,479,0,7,,,,,,,,,,,,,,,,10,,76,0
2999,note_on,,0,0,9,,,,,,,,,,,,,,,,15,,59,0
2999,note_on,,0,0,9,,,,,,,,,,,,,,,,15,,64,0
2999,note_on,,119,0,8,,,,,,,,,,,,,,,,13,,44,0
2999,note_on,,0,0,9,,,,,,,,,,,,,,,,15,,52,0
3060,note_on,,0,0,9,,,,,,,,,,,,,,,,15,,64,64
3060,note_on,,61,0,9,,,,,,,,,,,,,,,,15,,71,64
3060,note_on,,0,0,9,,,,,,,,,,,,,,,,15,,56,64
3060,note_on,,61,0,5,,,,,,,,,,,,,,,,2,,56,64
3060,note_on,,61,0,7,,,,,,,,,,,,,,,,10,,64,72
3060,note_on,,61,0,8,,,,,,,,,,,,,,,,13,,56,64
3060,note_on,,0,0,9,,,,,,,,,,,,,,,,15,,59,64
3119,note_on,,59,0,7,,,,,,,,,,,,,,,,10,,64,0
3119,note_on,,59,0,9,,,,,,,,,,,,,,,,15,,56,0
3119,note_on,,59,0,8,,,,,,,,,,,,,,,,13,,56,0
3119,note_on,,59,0,5,,,,,,,,,,,,,,,,2,,56,0
3119,note_on,,0,0,9,,,,,,,,,,,,,,,,15,,59,0
3119,note_on,,0,0,9,,,,,,,,,,,,,,,,15,,64,0
3120,note_on,,0,0,9,,,,,,,,,,,,,,,,15,,63,64
3120,note_on,,0,0,9,,,,,,,,,,,,,,,,15,,57,64
3120,note_on,,1,0,9,,,,,,,,,,,,,,,,15,,54,64
3120,note_on,,1,0,8,,,,,,,,,,,,,,,,13,,54,64
3120,note_on,,1,0,7,,,,,,,,,,,,,,,,10,,63,72
3120,note_on,,1,0,5,,,,,,,,,,,,,,,,2,,54,64
3179,note_on,,59,0,8,,,,,,,,,,,,,,,,13,,54,0
3179,note_on,,59,0,7,,,,,,,,,,,,,,,,10,,63,0
3179,note_on,,59,0,9,,,,,,,,,,,,,,,,15,,54,0
3179,note_on,,59,0,5,,,,,,,,,,,,,,,,2,,54,0
3179,note_on,,0,0,9,,,,,,,,,,,,,,,,15,,57,0
3179,note_on,,0,0,9,,,,,,,,,,,,,,,,15,,63,0
3180,note_on,,1,0,7,,,,,,,,,,,,,,,,10,,61,72
3180,note_on,,1,0,8,,,,,,,,,,,,,,,,13,,52,64
3180,note_on,,1,0,5,,,,,,,,,,,,,,,,2,,52,64
3180,note_on,,1,0,9,,,,,,,,,,,,,,,,15,,52,64
3180,note_on,,0,0,9,,,,,,,,,,,,,,,,15,,61,64
3180,note_on,,0,0,9,,,,,,,,,,,,,,,,15,,56,64
3239,note_on,,59,0,9,,,,,,,,,,,,,,,,15,,71,0
3239,note_on,,0,0,9,,,,,,,,,,,,,,,,15,,52,0
3239,note_on,,0,0,9,,,,,,,,,,,,,,,,15,,61,0
3239,note_on,,0,0,9,,,,,,,,,,,,,,,,15,,56,0
3239,note_on,,59,0,8,,,,,,,,,,,,,,,,13,,52,0
3239,note_on,,59,0,5,,,,,,,,,,,,,,,,2,,52,0
3239,note_on,,59,0,7,,,,,,,,,,,,,,,,10,,61,0
3240,note_on,,1,0,7,,,,,,,,,,,,,,,,10,,59,72
3240,note_on,,0,0,9,,,,,,,,,,,,,,,,15,,54,64
3240,note_on,,0,0,9,,,,,,,,,,,,,,,,15,,59,64
3240,note_on,,0,0,9,,,,,,,,,,,,,,,,15,,66,64
3240,note_on,,0,0,9,,,,,,,,,,,,,,,,15,,71,64
3240,note_on,,1,0,5,,,,,,,,,,,,,,,,2,,51,64
3240,note_on,,1,0,8,,,,,,,,,,,,,,,,13,,51,64
3240,note_on,,1,0,9,,,,,,,,,,,,,,,,15,,51,64
3329,note_on,,89,0,7,,,,,,,,,,,,,,,,10,,59,0
3330,note_on,,1,0,7,,,,,,,,,,,,,,,,10,,61,72
3359,note_on,,29,0,7,,,,,,,,,,,,,,,,10,,61,0
3360,note_on,,1,0,7,,,,,,,,,,,,,,,,10,,59,72
3449,note_on,,89,0,7,,,,,,,,,,,,,,,,10,,59,0
3450,note_on,,1,0,7,,,,,,,,,,,,,,,,10,,61,72
3479,note_on,,239,0,9,,,,,,,,,,,,,,,,15,,51,0
3479,note_on,,0,0,9,,,,,,,,,,,,,,,,15,,71,0
3479,note_on,,239,0,5,,,,,,,,,,,,,,,,2,,51,0
3479,note_on,,0,0,9,,,,,,,,,,,,,,,,15,,66,0
3479,note_on,,239,0,8,,,,,,,,,,,,,,,,13,,51,0
3479,note_on,,0,0,9,,,,,,,,,,,,,,,,15,,54,0
3479,note_on,,29,0,7,,,,,,,,,,,,,,,,10,,61,0
3479,note_on,,0,0,9,,,,,,,,,,,,,,,,15,,59,0
3480,note_on,,1,0,7,,,,,,,,,,,,,,,,10,,59,72
3480,note_on,,0,0,9,,,,,,,,,,,,,,,,15,,59,64
3480,note_on,,1,0,5,,,,,,,,,,,,,,,,2,,52,64
3480,note_on,,1,0,8,,,,,,,,,,,,,,,,13,,52,64
3480,note_on,,1,0,9,,,,,,,,,,,,,,,,15,,52,64
3480,note_on,,0,0,9,,,,,,,,,,,,,,,,15,,56,64
3480,note_on,,0,0,9,,,,,,,,,,,,,,,,15,,68,64
3480,note_on,,0,0,9,,,,,,,,,,,,,,,,15,,64,64
3569,note_on,,89,0,7,,,,,,,,,,,,,,,,10,,59,0
3570,note_on,,1,0,7,,,,,,,,,,,,,,,,10,,61,72
3599,note_on,,0,0,9,,,,,,,,,,,,,,,,15,,68,0
3599,note_on,,0,0,9,,,,,,,,,,,,,,,,15,,56,0
3599,note_on,,119,0,9,,,,,,,,,,,,,,,,15,,52,0
3599,note_on,,0,0,9,,,,,,,,,,,,,,,,15,,59,0
3599,note_on,,119,0,8,,,,,,,,,,,,,,,,13,,52,0
3599,note_on,,29,0,7,,,,,,,,,,,,,,,,10,,61,0
3599,note_on,,119,0,5,,,,,,,,,,,,,,,,2,,52,0
3599,note_on,,0,0,9,,,,,,,,,,,,,,,,15,,64,0
3600,note_on,,1,0,8,,,,,,,,,,,,,,,,13,,54,64
3600,note_on,,1,0,7,,,,,,,,,,,,,,,,10,,57,72
3600,note_on,,1,0,5,,,,,,,,,,,,,,,,2,,54,64
3600,note_on,,1,0,9,,,,,,,,,,,,,,,,15,,54,64
3600,note_on,,0,0,9,,,,,,,,,,,,,,,,15,,69,64
3600,note_on,,0,0,9,,,,,,,,,,,,,,,,15,,63,64
3600,note_on,,0,0,9,,,,,,,,,,,,,,,,15,,57,64
3689,note_on,,89,0,7,,,,,,,,,,,,,,,,10,,57,0
3690,note_on,,1,0,7,,,,,,,,,,,,,,,,10,,59,72
3719,note_on,,29,0,7,,,,,,,,,,,,,,,,10,,59,0
3720,note_on,,1,0,7,,,,,,,,,,,,,,,,10,,57,72
3809,note_on,,89,0,7,,,,,,,,,,,,,,,,10,,57,0
3810,note_on,,1,0,7,,,,,,,,,,,,,,,,10,,59,72
3839,note_on,,239,0,9,,,,,,,,,,,,,,,,15,,54,0
3839,note_on,,239,0,8,,,,,,,,,,,,,,,,13,,54,0
3839,note_on,,0,0,9,,,,,,,,,,,,,,,,15,,57,0
3839,note_on,,239,0,5,,,,,,,,,,,,,,,,2,,54,0
3839,note_on,,0,0,9,,,,,,,,,,,,,,,,15,,69,0
3839,note_on,,0,0,9,,,,,,,,,,,,,,,,15,,63,0
3839,note_on,,29,0,7,,,,,,,,,,,,,,,,10,,59,0
3840,note_on,,1,0,5,,,,,,,,,,,,,,,,2,,47,64
3840,note_on,,1,0,7,,,,,,,,,,,,,,,,10,,57,72
3840,note_on,,0,0,9,,,,,,,,,,,,,,,,15,,66,64
3840,note_on,,0,0,9,,,,,,,,,,,,,,,,15,,63,64
3840,note_on,,0,0,9,,,,,,,,,,,,,,,,15,,71,64
3840,note_on,,1,0,9,,,,,,,,,,,,,,,,15,,47,64
3840,note_on,,1,0,8,,,,,,,,,,,,,,,,13,,47,64
3929,note_on,,89,0,7,,,,,,,,,,,,,,,,10,,57,0
3930,note_on,,1,0,7,,,,,,,,,,,,,,,,10,,59,72
3959,note_on,,0,0,9,,,,,,,,,,,,,,,,15,,63,0
3959,note_on,,119,0,5,,,,,,,,,,,,,,,,2,,47,0
3959,note_on,,119,0,9,,,,,,,,,,,,,,,,15,,47,0
3959,note_on,,119,0,8,,,,,,,,,,,,,,,,13,,47,0
3959,note_on,,29,0,7,,,,,,,,,,,,,,,,10,,59,0
3959,note_on,,0,0,9,,,,,,,,,,,,,,,,15,,66,0
3960,note_on,,0,0,9,,,,,,,,,,,,,,,,15,,68,64
3960,note_on,,0,0,9,,,,,,,,,,,,,,,,15,,64,64
3960,note_on,,1,0,9,,,,,,,,,,,,,,,,15,,52,64
3960,note_on,,0,0,9,,,,,,,,,,,,,,,,15,,59,64
3960,note_on,,1,0,5,,,,,,,,,,,,,,,,2,,52,64
3960,note_on,,1,0,7,,,,,,,,,,,,,,,,10,,56,72
3960,note_on,,1,0,8,,,,,,,,,,,,,,,,13,,52,64
4079,note_on,,0,0,9,,,,,,,,,,,,,,,,15,,68,0
4079,note_on,,0,0,9,,,,,,,,,,,,,,,,15,,52,0
4079,note_on,,0,0,9,,,,,,,,,,,,,,,,15,,59,0
4079,note_on,,119,0,5,,,,,,,,,,,,,,,,2,,52,0
4079,note_on,,119,0,9,,,,,,,,,,,,,,,,15,,71,0
4079,note_on,,0,0,9,,,,,,,,,,,,,,,,15,,64,0
4079,note_on,,119,0,8,,,,,,,,,,,,,,,,13,,52,0
4080,note_on,,1,0,9,,,,,,,,,,,,,,,,15,,45,64
4080,note_on,,0,0,9,,,,,,,,,,,,,,,,15,,69,64
4080,note_on,,0,0,9,,,,,,,,,,,,,,,,15,,64,64
4080,note_on,,1,0,5,,,,,,,,,,,,,,,,2,,45,64
4080,note_on,,1,0,8,,,,,,,,,,,,,,,,13,,45,64
4080,note_on,,0,0,9,,,,,,,,,,,,,,,,15,,73,64
4139,note_on,,179,0,7,,,,,,,,,,,,,,,,10,,56,0
4170,note_on,,31,0,7,,,,,,,,,,,,,,,,10,,68,72
4199,note_on,,29,0,7,,,,,,,,,,,,,,,,10,,68,0
4200,note_on,,1,0,7,,,,,,,,,,,,,,,,10,,66,72
4214,note_on,,14,0,7,,,,,,,,,,,,,,,,10,,66,0
4215,note_on,,1,0,7,,,,,,,,,,,,,,,,10,,68,72
4229,note_on,,14,0,7,,,,,,,,,,,,,,,,10,,68,0
4230,note_on,,1,0,7,,,,,,,,,,,,,,,,10,,66,72
4244,note_on,,14,0,7,,,,,,,,,,,,,,,,10,,66,0
4245,note_on,,1,0,7,,,,,,,,,,,,,,,,10,,68,72
4259,note_on,,14,0,7,,,,,,,,,,,,,,,,10,,68,0
4260,note_on,,1,0,7,,,,,,,,,,,,,,,,10,,64,72
4274,note_on,,14,0,7,,,,,,,,,,,,,,,,10,,64,0
4275,note_on,,1,0,7,,,,,,,,,,,,,,,,10,,66,72
4289,note_on,,14,0,7,,,,,,,,,,,,,,,,10,,66,0
4290,note_on,,1,0,7,,,,,,,,,,,,,,,,10,,64,72
4319,note_on,,0,0,9,,,,,,,,,,,,,,,,15,,64,0
4319,note_on,,239,0,8,,,,,,,,,,,,,,,,13,,45,0
4319,note_on,,239,0,5,,,,,,,,,,,,,,,,2,,45,0
4319,note_on,,0,0,9,,,,,,,,,,,,,,,,15,,73,0
4319,note_on,,239,0,9,,,,,,,,,,,,,,,,15,,45,0
4319,note_on,,29,0,7,,,,,,,,,,,,,,,,10,,64,0
4319,note_on,,0,0,9,,,,,,,,,,,,,,,,15,,69,0
4320,note_on,,0,0,9,,,,,,,,,,,,,,,,15,,66,64
4320,note_on,,1,0,9,,,,,,,,,,,,,,,,15,,47,64
4320,note_on,,0,0,9,,,,,,,,,,,,,,,,15,,59,64
4320,note_on,,0,0,9,,,,,,,,,,,,,,,,15,,63,64
4320,note_on,,1,0,5,,,,,,,,,,,,,,,,2,,47,64
4320,note_on,,1,0,7,,,,,,,,,,,,,,,,10,,63,72
4320,note_on,,1,0,8,,,,,,,,,,,,,,,,13,,47,64
4439,note_on,,0,0,9,,,,,,,,,,,,,,,,15,,63,0
4439,note_on,,119,0,5,,,,,,,,,,,,,,,,2,,47,0
4439,note_on,,119,0,8,,,,,,,,,,,,,,,,13,,47,0
4439,note_on,,119,0,9,,,,,,,,,,,,,,,,15,,47,0
4439,note_on,,0,0,9,,,,,,,,,,,,,,,,15,,66,0
4440,note_on,,0,0,9,,,,,,,,,,,,,,,,15,,71,64
4440,note_on,,1,0,8,,,,,,,,,,,,,,,,13,,51,64
4440,note_on,,1,0,9,,,,,,,,,,,,,,,,15,,51,64
4440,note_on,,1,0,5,,,,,,,,,,,,,,,,2,,51,64
4440,note_on,,0,0,9,,,,,,,,,,,,,,,,15,,66,64
4499,note_on,,179,0,7,,,,,,,,,,,,,,,,10,,63,0
4530,note_on,,31,0,7,,,,,,,,,,,,,,,,10,,81,72
4559,note_on,,119,0,9,,,,,,,,,,,,,,,,15,,59,0
4559,note_on,,0,0,9,,,,,,,,,,,,,,,,15,,51,0
4559,note_on,,0,0,9,,,,,,,,,,,,,,,,15,,66,0
4559,note_on,,119,0,5,,,,,,,,,,,,,,,,2,,51,0
4559,note_on,,29,0,7,,,,,,,,,,,,,,,,10,,81,0
4559,note_on,,119,0,8,,,,,,,,,,,,,,,,13,,51,0
4560,note_on,,1,0,5,,,,,,,,,,,,,,,,2,,52,64
4560,note_on,,1,0,9,,,,,,,,,,,,,,,,15,,52,64
4560,note_on,,0,0,9,,,,,,,,,,,,,,,,15,,64,64
4560,note_on,,1,0,8,,,,,,,,,,,,,,,,13,,52,64
4560,note_on,,1,0,7,,,,,,,,,,,,,,,,10,,80,72
4560,note_on,,0,0,9,,,,,,,,,,,,,,,,15,,68,64
4574,note_on,,14,0,7,,,,,,,,,,,,,,,,10,,80,0
4575,note_on,,1,0,7,,,,,,,,,,,,,,,,10,,81,72
4589,note_on,,14,0,7,,,,,,,,,,,,,,,,10,,81,0
4590,note_on,,1,0,7,,,,,,,,,,,,,,,,10,,80,72
4604,note_on,,14,0,7,,,,,,,,,,,,,,,,10,,80,0
4605,note_on,,1,0,7,,,,,,,,,,,,,,,,10,,81,72
4619,note_on,,14,0,7,,,,,,,,,,,,,,,,10,,81,0
4620,note_on,,1,0,7,,,,,,,,,,,,,,,,10,,78,72
4634,note_on,,14,0,7,,,,,,,,,,,,,,,,10,,78,0
4635,note_on,,1,0,7,,,,,,,,,,,,,,,,10,,80,72
4649,note_on,,14,0,7,,,,,,,,,,,,,,,,10,,80,0
4650,note_on,,1,0,7,,,,,,,,,,,,,,,,10,,81,72
4679,note_on,,29,0,7,,,,,,,,,,,,,,,,10,,81,0
4679,note_on,,0,0,9,,,,,,,,,,,,,,,,15,,52,0
4679,note_on,,119,0,9,,,,,,,,,,,,,,,,15,,71,0
4679,note_on,,119,0,5,,,,,,,,,,,,,,,,2,,52,0
4679,note_on,,0,0,9,,,,,,,,,,,,,,,,15,,68,0
4679,note_on,,0,0,9,,,,,,,,,,,,,,,,15,,64,0
4679,note_on,,119,0,8,,,,,,,,,,,,,,,,13,,52,0
4680,note_on,,1,0,8,,,,,,,,,,,,,,,,13,,57,64
4680,note_on,,0,0,9,,,,,,,,,,,,,,,,15,,73,64
4680,note_on,,0,0,9,,,,,,,,,,,,,,,,15,,69,64
4680,note_on,,0,0,9,,,,,,,,,,,,,,,,15,,64,64
4680,note_on,,1,0,9,,,,,,,,,,,,,,,,15,,57,64
4680,note_on,,1,0,7,,,,,,,,,,,,,,,,10,,80,72
4680,note_on,,1,0,5,,,,,,,,,,,,,,,,2,,57,64
4719,note_on,,39,0,7,,,,,,,,,,,,,,,,10,,80,0
4720,note_on,,1,0,7,,,,,,,,,,,,,,,,10,,78,72
4759,note_on,,39,0,7,,,,,,,,,,,,,,,,10,,78,0
4760,note_on,,1,0,7,,,,,,,,,,,,,,,,10,,76,72
4799,note_on,,39,0,7,,,,,,,,,,,,,,,,10,,76,0
4799,note_on,,119,0,5,,,,,,,,,,,,,,,,2,,57,0
4799,note_on,,0,0,9,,,,,,,,,,,,,,,,15,,64,0
4799,note_on,,0,0,9,,,,,,,,,,,,,,,,15,,69,0
4799,note_on,,0,0,9,,,,,,,,,,,,,,,,15,,73,0
4799,note_on,,119,0,9,,,,,,,,,,,,,,,,15,,57,0
4799,note_on,,119,0,8,,,,,,,,,,,,,,,,13,,57,0
4800,note_on,,0,0,9,,,,,,,,,,,,,,,,15,,66,64
4800,note_on,,1,0,5,,,,,,,,,,,,,,,,2,,59,64
4800,note_on,,1,0,9,,,,,,,,,,,,,,,,15,,59,64
4800,note_on,,1,0,8,,,,,,,,,,,,,,,,13,,59,64
4800,note_on,,1,0,7,,,,,,,,,,,,,,,,10,,75,72
4800,note_on,,0,0,9,,,,,,,,,,,,,,,,15,,63,64
4814,note_on,,14,0,7,,,,,,,,,,,,,,,,10,,75,0
4815,note_on,,1,0,7,,,,,,,,,,,,,,,,10,,76,72
4829,note_on,,14,0,7,,,,,,,,,,,,,,,,10,,76,0
4830,note_on,,1,0,7,,,,,,,,,,,,,,,,10,,75,72
4844,note_on,,14,0,7,,,,,,,,,,,,,,,,10,,75,0
4845,note_on,,1,0,7,,,,,,,,,,,,,,,,10,,76,72
4859,note_on,,14,0,7,,,,,,,,,,,,,,,,10,,76,0
4860,note_on,,1,0,7,,,,,,,,,,,,,,,,10,,75,72
4874,note_on,,14,0,7,,,,,,,,,,,,,,,,10,,75,0
4875,note_on,,1,0,7,,,,,,,,,,,,,,,,10,,76,72
4889,note_on,,14,0,7,,,,,,,,,,,,,,,,10,,76,0
4890,note_on,,1,0,7,,,,,,,,,,,,,,,,10,,75,72
4904,note_on,,14,0,7,,,,,,,,,,,,,,,,10,,75,0
4905,note_on,,1,0,7,,,,,,,,,,,,,,,,10,,76,72
4919,note_on,,119,0,9,,,,,,,,,,,,,,,,15,,59,0
4919,note_on,,0,0,9,,,,,,,,,,,,,,,,15,,66,0
4919,note_on,,119,0,5,,,,,,,,,,,,,,,,2,,59,0
4919,note_on,,14,0,7,,,,,,,,,,,,,,,,10,,76,0
4919,note_on,,0,0,9,,,,,,,,,,,,,,,,15,,63,0
4919,note_on,,119,0,8,,,,,,,,,,,,,,,,13,,59,0
4920,note_on,,1,0,8,,,,,,,,,,,,,,,,13,,47,64
4920,note_on,,1,0,5,,,,,,,,,,,,,,,,2,,47,64
4920,note_on,,1,0,9,,,,,,,,,,,,,,,,15,,47,64
4920,note_on,,0,0,9,,,,,,,,,,,,,,,,15,,63,64
4920,note_on,,1,0,7,,,,,,,,,,,,,,,,10,,75,72
4920,note_on,,0,0,9,,,,,,,,,,,,,,,,15,,71,64
4920,note_on,,0,0,9,,,,,,,,,,,,,,,,15,,66,64
4934,note_on,,14,0,7,,,,,,,,,,,,,,,,10,,75,0
4935,note_on,,1,0,7,,,,,,,,,,,,,,,,10,,76,72
4949,note_on,,14,0,7,,,,,,,,,,,,,,,,10,,76,0
4950,note_on,,1,0,7,,,,,,,,,,,,,,,,10,,73,72
4964,note_on,,14,0,7,,,,,,,,,,,,,,,,10,,73,0
4965,note_on,,1,0,7,,,,,,,,,,,,,,,,10,,75,72
4979,note_on,,14,0,7,,,,,,,,,,,,,,,,10,,75,0
4980,note_on,,1,0,7,,,,,,,,,,,,,,,,10,,76,72
5039,note_on,,119,0,9,,,,,,,,,,,,,,,,15,,47,0
5039,note_on,,59,0,7,,,,,,,,,,,,,,,,10,,76,0
5039,note_on,,0,0,9,,,,,,,,,,,,,,,,15,,66,0
5039,note_on,,119,0,8,,,,,,,,,,,,,,,,13,,47,0
5039,note_on,,0,0,9,,,,,,,,,,,,,,,,15,,71,0
5039,note_on,,0,0,9,,,,,,,,,,,,,,,,15,,63,0
5039,note_on,,119,0,5,,,,,,,,,,,,,,,,2,,47,0
5040,note_on,,0,0,9,,,,,,,,,,,,,,,,15,,68,64
5040,note_on,,0,0,9,,,,,,,,,,,,,,,,15,,61,64
5040,note_on,,1,0,9,,,,,,,,,,,,,,,,15,,49,64
5040,note_on,,0,0,9,,,,,,,,,,,,,,,,15,,64,64
5040,note_on,,1,0,7,,,,,,,,,,,,,,,,10,,64,72
5040,note_on,,1,0,8,,,,,,,,,,,,,,,,13,,49,64
5040,note_on,,1,0,5,,,,,,,,,,,,,,,,2,,49,64
5159,note_on,,0,0,9,,,,,,,,,,,,,,,,15,,64,0
5159,note_on,,119,0,9,,,,,,,,,,,,,,,,15,,49,0
5159,note_on,,119,0,8,,,,,,,,,,,,,,,,13,,49,0
5159,note_on,,119,0,5,,,,,,,,,,,,,,,,2,,49,0
5160,note_on,,1,0,5,,,,,,,,,,,,,,,,2,,47,64
5160,note_on,,0,0,9,,,,,,,,,,,,,,,,15,,63,64
5160,note_on,,1,0,9,,,,,,,,,,,,,,,,15,,47,64
5160,note_on,,1,0,8,,,,,,,,,,,,,,,,13,,47,64
5219,note_on,,179,0,7,,,,,,,,,,,,,,,,10,,64,0
5220,note_on,,1,0,7,,,,,,,,,,,,,,,,10,,66,72
5279,note_on,,0,0,9,,,,,,,,,,,,,,,,15,,63,0
5279,note_on,,119,0,9,,,,,,,,,,,,,,,,15,,61,0
5279,note_on,,0,0,9,,,,,,,,,,,,,,,,15,,47,0
5279,note_on,,59,0,7,,,,,,,,,,,,,,,,10,,66,0
5279,note_on,,119,0,8,,,,,,,,,,,,,,,,13,,47,0
5279,note_on,,119,0,5,,,,,,,,,,,,,,,,2,,47,0
5280,note_on,,1,0,7,,,,,,,,,,,,,,,,10,,68,72
5280,note_on,,1,0,8,,,,,,,,,,,,,,,,13,,45,64
5280,note_on,,1,0,9,,,,,,,,,,,,,,,,15,,45,64
5280,note_on,,0,0,9,,,,,,,,,,,,,,,,15,,61,64
5280,note_on,,0,0,9,,,,,,,,,,,,,,,,15,,64,64
5280,note_on,,1,0,5,,,,,,,,,,,,,,,,2,,45,64
5339,note_on,,59,0,7,,,,,,,,,,,,,,,,10,,68,0
5339,note_on,,59,0,9,,,,,,,,,,,,,,,,15,,64,0
5340,note_on,,1,0,7,,,,,,,,,,,,,,,,10,,69,72
5340,note_on,,1,0,9,,,,,,,,,,,,,,,,15,,66,64
5399,note_on,,59,0,9,,,,,,,,,,,,,,,,15,,68,0
5399,note_on,,0,0,9,,,,,,,,,,,,,,,,15,,45,0
5399,note_on,,0,0,9,,,,,,,,,,,,,,,,15,,61,0
5399,note_on,,0,0,9,,,,,,,,,,,,,,,,15,,66,0
5399,note_on,,119,0,8,,,,,,,,,,,,,,,,13,,45,0
5399,note_on,,119,0,5,,,,,,,,,,,,,,,,2,,45,0
5399,note_on,,59,0,7,,,,,,,,,,,,,,,,10,,69,0
5400,note_on,,1,0,7,,,,,,,,,,,,,,,,10,,71,72
5400,note_on,,1,0,9,,,,,,,,,,,,,,,,15,,44,64
5400,note_on,,0,0,9,,,,,,,,,,,,,,,,15,,76,64
5400,note_on,,0,0,9,,,,,,,,,,,,,,,,15,,68,64
5400,note_on,,0,0,9,,,,,,,,,,,,,,,,15,,64,64
5400,note_on,,0,0,9,,,,,,,,,,,,,,,,15,,71,64
5400,note_on,,1,0,8,,,,,,,,,,,,,,,,13,,44,64
5400,note_on,,1,0,5,,,,,,,,,,,,,,,,2,,44,64
5579,note_on,,179,0,7,,,,,,,,,,,,,,,,10,,71,0
5580,note_on,,1,0,7,,,,,,,,,,,,,,,,10,,73,72
5609,note_on,,29,0,7,,,,,,,,,,,,,,,,10,,73,0
5610,note_on,,1,0,7,,,,,,,,,,,,,,,,10,,75,72
5639,note_on,,29,0,7,,,,,,,,,,,,,,,,10,,75,0
5640,note_on,,1,0,7,,,,,,,,,,,,,,,,10,,76,72
5699,note_on,,59,0,7,,,,,,,,,,,,,,,,10,,76,0
5700,note_on,,1,0,7,,,,,,,,,,,,,,,,10,,75,72
5729,note_on,,29,0,7,,,,,,,,,,,,,,,,10,,75,0
5730,note_on,,1,0,7,,,,,,,,,,,,,,,,10,,73,72
5759,note_on,,359,0,5,,,,,,,,,,,,,,,,2,,44,0
5759,note_on,,0,0,9,,,,,,,,,,,,,,,,15,,71,0
5759,note_on,,0,0,9,,,,,,,,,,,,,,,,15,,68,0
5759,note_on,,0,0,9,,,,,,,,,,,,,,,,15,,64,0
5759,note_on,,0,0,9,,,,,,,,,,,,,,,,15,,76,0
5759,note_on,,29,0,7,,,,,,,,,,,,,,,,10,,73,0
5759,note_on,,359,0,9,,,,,,,,,,,,,,,,15,,44,0
5759,note_on,,359,0,8,,,,,,,,,,,,,,,,13,,44,0
5760,note_on,,1,0,7,,,,,,,,,,,,,,,,10,,71,72
5789,note_on,,29,0,7,,,,,,,,,,,,,,,,10,,71,0
5790,note_on,,1,0,7,,,,,,,,,,,,,,,,10,,73,72
5819,note_on,,29,0,7,,,,,,,,,,,,,,,,10,,73,0
5820,note_on,,1,0,7,,,,,,,,,,,,,,,,10,,69,72
5820,note_on,,61,0,9,,,,,,,,,,,,,,,,15,,57,64
5820,note_on,,0,0,9,,,,,,,,,,,,,,,,15,,78,64
5820,note_on,,0,0,9,,,,,,,,,,,,,,,,15,,73,64
5820,note_on,,0,0,9,,,,,,,,,,,,,,,,15,,69,64
5820,note_on,,61,0,5,,,,,,,,,,,,,,,,2,,57,64
5820,note_on,,61,0,8,,,,,,,,,,,,,,,,13,,57,64
5879,note_on,,59,0,8,,,,,,,,,,,,,,,,13,,57,0
5879,note_on,,59,0,9,,,,,,,,,,,,,,,,15,,57,0
5879,note_on,,0,0,9,,,,,,,,,,,,,,,,15,,78,0
5879,note_on,,59,0,5,,,,,,,,,,,,,,,,2,,57,0
5879,note_on,,0,0,9,,,,,,,,,,,,,,,,15,,73,0
5879,note_on,,0,0,9,,,,,,,,,,,,,,,,15,,69,0
5879,note_on,,59,0,7,,,,,,,,,,,,,,,,10,,69,0
5880,note_on,,0,0,9,,,,,,,,,,,,,,,,15,,76,64
5880,note_on,,0,0,9,,,,,,,,,,,,,,,,15,,71,64
5880,note_on,,1,0,5,,,,,,,,,,,,,,,,2,,59,64
5880,note_on,,0,0,9,,,,,,,,,,,,,,,,15,,68,64
5880,note_on,,1,0,7,,,,,,,,,,,,,,,,10,,68,72
5880,note_on,,1,0,8,,,,,,,,,,,,,,,,13,,59,64
5880,note_on,,1,0,9,,,,,,,,,,,,,,,,15,,59,64
5999,note_on,,119,0,8,,,,,,,,,,,,,,,,13,,59,0
5999,note_on,,119,0,9,,,,,,,,,,,,,,,,15,,59,0
5999,note_on,,0,0,9,,,,,,,,,,,,,,,,15,,76,0
5999,note_on,,0,0,9,,,,,,,,,,,,,,,,15,,71,0
5999,note_on,,0,0,9,,,,,,,,,,,,,,,,15,,68,0
5999,note_on,,119,0,7,,,,,,,,,,,,,,,,10,,68,0
5999,note_on,,119,0,5,,,,,,,,,,,,,,,,2,,59,0
6000,note_on,,0,0,9,,,,,,,,,,,,,,,,15,,75,64
6000,note_on,,1,0,7,,,,,,,,,,,,,,,,10,,66,72
6000,note_on,,0,0,9,,,,,,,,,,,,,,,,15,,66,64
6000,note_on,,1,0,5,,,,,,,,,,,,,,,,2,,47,64
6000,note_on,,1,0,8,,,,,,,,,,,,,,,,13,,47,64
6000,note_on,,0,0,9,,,,,,,,,,,,,,,,15,,71,64
6000,note_on,,1,0,9,,,,,,,,,,,,,,,,15,,47,64
6014,note_on,,14,0,7,,,,,,,,,,,,,,,,10,,66,0
6015,note_on,,1,0,7,,,,,,,,,,,,,,,,10,,68,72
6029,note_on,,14,0,7,,,,,,,,,,,,,,,,10,,68,0
6030,note_on,,1,0,7,,,,,,,,,,,,,,,,10,,66,72
6044,note_on,,14,0,7,,,,,,,,,,,,,,,,10,,66,0
6045,note_on,,1,0,7,,,,,,,,,,,,,,,,10,,68,72
6059,note_on,,14,0,7,,,,,,,,,,,,,,,,10,,68,0
6060,note_on,,1,0,7,,,,,,,,,,,,,,,,10,,64,72
6074,note_on,,14,0,7,,,,,,,,,,,,,,,,10,,64,0
6075,note_on,,1,0,7,,,,,,,,,,,,,,,,10,,66,72
6089,note_on,,14,0,7,,,,,,,,,,,,,,,,10,,66,0
6090,note_on,,1,0,7,,,,,,,,,,,,,,,,10,,64,72
6119,note_on,,29,0,7,,,,,,,,,,,,,,,,10,,64,0
6119,note_on,,119,0,9,,,,,,,,,,,,,,,,15,,47,0
6119,note_on,,0,0,9,,,,,,,,,,,,,,,,15,,75,0
6119,note_on,,0,0,9,,,,,,,,,,,,,,,,15,,71,0
6119,note_on,,0,0,9,,,,,,,,,,,,,,,,15,,66,0
6119,note_on,,119,0,5,,,,,,,,,,,,,,,,2,,47,0
6119,note_on,,119,0,8,,,,,,,,,,,,,,,,13,,47,0
6120,note_on,,1,0,7,,,,,,,,,,,,,,,,10,,64,72
6120,note_on,,1,0,8,,,,,,,,,,,,,,,,13,,40,64
6120,note_on,,1,0,5,,,,,,,,,,,,,,,,2,,40,64
6120,note_on,,0,0,9,,,,,,,,,,,,,,,,15,,68,64
6120,note_on,,0,0,9,,,,,,,,,,,,,,,,15,,71,64
6120,note_on,,0,0,9,,,,,,,,,,,,,,,,15,,76,64
6120,note_on,,1,0,9,,,,,,,,,,,,,,,,15,,40,64
6120,note_on,,0,0,9,,,,,,,,,,,,,,,,15,,52,64
6359,note_on,,239,0,9,,,,,,,,,,,,,,,,15,,40,0
6359,note_on,,0,0,9,,,,,,,,,,,,,,,,15,,71,0
6359,note_on,,0,0,9,,,,,,,,,,,,,,,,15,,68,0
6359,note_on,,0,0,9,,,,,,,,,,,,,,,,15,,52,0
6359,note_on,,239,0,8,,,,,,,,,,,,,,,,13,,40,0
6359,note_on,,239,0,5,,,,,,,,,,,,,,,,2,,40,0
6359,note_on,,239,0,7,,,,,,,,,,,,,,,,10,,64,0
6359,note_on,,0,0,9,,,,,,,,,,,,,,,,15,,76,0
6360,note_on,,6360,0,6,,,,,,,,,,,,,,,,5,,71,64
6479,note_on,,119,0,6,,,,,,,,,,,,,,,,5,,71,0
6480,note_on,,1,0,6,,,,,,,,,,,,,,,,5,,76,64
6704,note_on,,224,0,6,,,,,,,,,,,,,,,,5,,76,0
6705,note_on,,1,0,6,,,,,,,,,,,,,,,,5,,69,64
6719,note_on,,14,0,6,,,,,,,,,,,,,,,,5,,69,0
6720,note_on,,0,0,9,,,,,,,,,,,,,,,,15,,63,48
6720,note_on,,1,0,6,,,,,,,,,,,,,,,,5,,68,64
6720,note_on,,361,0,8,,,,,,,,,,,,,,,,13,,59,48
6720,note_on,,361,0,9,,,,,,,,,,,,,,,,15,,59,48
6720,note_on,,0,0,9,,,,,,,,,,,,,,,,15,,71,48
6720,note_on,,0,0,9,,,,,,,,,,,,,,,,15,,68,48
6809,note_on,,89,0,6,,,,,,,,,,,,,,,,5,,68,0
6810,note_on,,1,0,6,,,,,,,,,,,,,,,,5,,66,64
6824,note_on,,14,0,6,,,,,,,,,,,,,,,,5,,66,0
6825,note_on,,1,0,6,,,,,,,,,,,,,,,,5,,66,64
6839,note_on,,119,0,8,,,,,,,,,,,,,,,,13,,59,0
6839,note_on,,14,0,6,,,,,,,,,,,,,,,,5,,66,0
6839,note_on,,0,0,9,,,,,,,,,,,,,,,,15,,63,0
6839,note_on,,0,0,9,,,,,,,,,,,,,,,,15,,68,0
6839,note_on,,119,0,9,,,,,,,,,,,,,,,,15,,59,0
6839,note_on,,0,0,9,,,,,,,,,,,,,,,,15,,71,0
6840,note_on,,0,0,9,,,,,,,,,,,,,,,,15,,64,48
6840,note_on,,1,0,9,,,,,,,,,,,,,,,,15,,61,48
6840,note_on,,1,0,8,,,,,,,,,,,,,,,,13,,61,48
6840,note_on,,0,0,9,,,,,,,,,,,,,,,,15,,68,48
6840,note_on,,1,0,6,,,,,,,,,,,,,,,,5,,64,64
7079,note_on,,239,0,8,,,,,,,,,,,,,,,,13,,61,0
7079,note_on,,239,0,6,,,,,,,,,,,,,,,,5,,64,0
7079,note_on,,239,0,9,,,,,,,,,,,,,,,,15,,61,0
7079,note_on,,0,0,9,,,,,,,,,,,,,,,,15,,68,0
7079,note_on,,0,0,9,,,,,,,,,,,,,,,,15,,64,0
7080,note_on,,1,0,8,,,,,,,,,,,,,,,,13,,57,48
7080,note_on,,0,0,9,,,,,,,,,,,,,,,,15,,69,48
7080,note_on,,0,0,9,,,,,,,,,,,,,,,,15,,64,48
7080,note_on,,0,0,9,,,,,,,,,,,,,,,,15,,61,48
7080,note_on,,1,0,9,,,,,,,,,,,,,,,,15,,57,48
7080,note_on,,1,0,6,,,,,,,,,,,,,,,,5,,66,64
7184,note_on,,104,0,6,,,,,,,,,,,,,,,,5,,66,0
7185,note_on,,1,0,6,,,,,,,,,,,,,,,,5,,68,64
7199,note_on,,0,0,9,,,,,,,,,,,,,,,,15,,64,0
7199,note_on,,0,0,9,,,,,,,,,,,,,,,,15,,69,0
7199,note_on,,119,0,9,,,,,,,,,,,,,,,,15,,57,0
7199,note_on,,0,0,9,,,,,,,,,,,,,,,,15,,61,0
7199,note_on,,119,0,8,,,,,,,,,,,,,,,,13,,57,0
7199,note_on,,14,0,6,,,,,,,,,,,,,,,,5,,68,0
7200,note_on,,1,0,8,,,,,,,,,,,,,,,,13,,54,48
7200,note_on,,0,0,9,,,,,,,,,,,,,,,,15,,73,48
7200,note_on,,1,0,6,,,,,,,,,,,,,,,,5,,69,64
7200,note_on,,0,0,9,,,,,,,,,,,,,,,,15,,69,48
7200,note_on,,0,0,9,,,,,,,,,,,,,,,,15,,64,48
7200,note_on,,1,0,9,,,,,,,,,,,,,,,,15,,54,48
7214,note_on,,14,0,6,,,,,,,,,,,,,,,,5,,69,0
7215,note_on,,1,0,6,,,,,,,,,,,,,,,,5,,71,64
7229,note_on,,14,0,6,,,,,,,,,,,,,,,,5,,71,0
7230,note_on,,1,0,6,,,,,,,,,,,,,,,,5,,69,64
7244,note_on,,14,0,6,,,,,,,,,,,,,,,,5,,69,0
7245,note_on,,1,0,6,,,,,,,,,,,,,,,,5,,71,64
7259,note_on,,14,0,6,,,,,,,,,,,,,,,,5,,71,0
7260,note_on,,1,0,6,,,,,,,,,,,,,,,,5,,69,64
7274,note_on,,14,0,6,,,,,,,,,,,,,,,,5,,69,0
7275,note_on,,1,0,6,,,,,,,,,,,,,,,,5,,71,64
7289,note_on,,14,0,6,,,,,,,,,,,,,,,,5,,71,0
7290,note_on,,1,0,6,,,,,,,,,,,,,,,,5,,69,64
7304,note_on,,14,0,6,,,,,,,,,,,,,,,,5,,69,0
7305,note_on,,1,0,6,,,,,,,,,,,,,,,,5,,71,64
7319,note_on,,14,0,6,,,,,,,,,,,,,,,,5,,71,0
7320,note_on,,1,0,6,,,,,,,,,,,,,,,,5,,69,64
7334,note_on,,14,0,6,,,,,,,,,,,,,,,,5,,69,0
7335,note_on,,1,0,6,,,,,,,,,,,,,,,,5,,71,64
7349,note_on,,14,0,6,,,,,,,,,,,,,,,,5,,71,0
7350,note_on,,1,0,6,,,,,,,,,,,,,,,,5,,68,64
7364,note_on,,14,0,6,,,,,,,,,,,,,,,,5,,68,0
7365,note_on,,1,0,6,,,,,,,,,,,,,,,,5,,69,64
7379,note_on,,14,0,6,,,,,,,,,,,,,,,,5,,69,0
7380,note_on,,1,0,6,,,,,,,,,,,,,,,,5,,68,64
7439,note_on,,239,0,9,,,,,,,,,,,,,,,,15,,54,0
7439,note_on,,0,0,9,,,,,,,,,,,,,,,,15,,69,0
7439,note_on,,0,0,9,,,,,,,,,,,,,,,,15,,73,0
7439,note_on,,0,0,9,,,,,,,,,,,,,,,,15,,64,0
7439,note_on,,239,0,8,,,,,,,,,,,,,,,,13,,54,0
7439,note_on,,59,0,6,,,,,,,,,,,,,,,,5,,68,0
7440,note_on,,0,0,9,,,,,,,,,,,,,,,,15,,63,48
7440,note_on,,0,0,9,,,,,,,,,,,,,,,,15,,66,48
7440,note_on,,1,0,8,,,,,,,,,,,,,,,,13,,47,48
7440,note_on,,1,0,9,,,,,,,,,,,,,,,,15,,47,48
7440,note_on,,0,0,9,,,,,,,,,,,,,,,,15,,71,48
7440,note_on,,1,0,6,,,,,,,,,,,,,,,,5,,69,64
7529,note_on,,89,0,6,,,,,,,,,,,,,,,,5,,69,0
7530,note_on,,1,0,6,,,,,,,,,,,,,,,,5,,69,64
7559,note_on,,119,0,8,,,,,,,,,,,,,,,,13,,47,0
7559,note_on,,0,0,9,,,,,,,,,,,,,,,,15,,63,0
7559,note_on,,0,0,9,,,,,,,,,,,,,,,,15,,66,0
7559,note_on,,0,0,9,,,,,,,,,,,,,,,,15,,71,0
7559,note_on,,29,0,6,,,,,,,,,,,,,,,,5,,69,0
7559,note_on,,119,0,9,,,,,,,,,,,,,,,,15,,47,0
7560,note_on,,1,0,6,,,,,,,,,,,,,,,,5,,68,64
7560,note_on,,1,0,8,,,,,,,,,,,,,,,,13,,52,48
7560,note_on,,0,0,9,,,,,,,,,,,,,,,,15,,71,48
7560,note_on,,0,0,9,,,,,,,,,,,,,,,,15,,68,48
7560,note_on,,1,0,9,,,,,,,,,,,,,,,,15,,52,48
7560,note_on,,0,0,9,,,,,,,,,,,,,,,,15,,64,48
7679,note_on,,119,0,6,,,,,,,,,,,,,,,,5,,68,0
7680,note_on,,1,0,6,,,,,,,,,,,,,,,,5,,68,64
7799,note_on,,239,0,8,,,,,,,,,,,,,,,,13,,52,0
7799,note_on,,239,0,9,,,,,,,,,,,,,,,,15,,52,0
7799,note_on,,0,0,9,,,,,,,,,,,,,,,,15,,71,0
7799,note_on,,119,0,6,,,,,,,,,,,,,,,,5,,68,0
7799,note_on,,0,0,9,,,,,,,,,,,,,,,,15,,68,0
7799,note_on,,0,0,9,,,,,,,,,,,,,,,,15,,64,0
7800,note_on,,1441,0,7,,,,,,,,,,,,,,,,10,,71,48
7919,note_on,,119,0,7,,,,,,,,,,,,,,,,10,,71,0
7920,note_on,,1,0,7,,,,,,,,,,,,,,,,10,,76,48
8159,note_on,,239,0,7,,,,,,,,,,,,,,,,10,,76,0
8160,note_on,,1801,0,5,,,,,,,,,,,,,,,,2,,47,48
8160,note_on,,0,0,9,,,,,,,,,,,,,,,,15,,56,48
8160,note_on,,0,0,9,,,,,,,,,,,,,,,,15,,59,48
8160,note_on,,0,0,9,,,,,,,,,,,,,,,,15,,63,48
8160,note_on,,361,0,9,,,,,,,,,,,,,,,,15,,47,48
8160,note_on,,1,0,7,,,,,,,,,,,,,,,,10,,68,48
8160,note_on,,361,0,8,,,,,,,,,,,,,,,,13,,47,48
8174,note_on,,14,0,7,,,,,,,,,,,,,,,,10,,68,0
8175,note_on,,1,0,7,,,,,,,,,,,,,,,,10,,69,48
8189,note_on,,14,0,7,,,,,,,,,,,,,,,,10,,69,0
8190,note_on,,1,0,7,,,,,,,,,,,,,,,,10,,68,48
8204,note_on,,14,0,7,,,,,,,,,,,,,,,,10,,68,0
8205,note_on,,1,0,7,,,,,,,,,,,,,,,,10,,69,48
8219,note_on,,14,0,7,,,,,,,,,,,,,,,,10,,69,0
8220,note_on,,1,0,7,,,,,,,,,,,,,,,,10,,66,48
8234,note_on,,14,0,7,,,,,,,,,,,,,,,,10,,66,0
8235,note_on,,1,0,7,,,,,,,,,,,,,,,,10,,68,48
8249,note_on,,14,0,7,,,,,,,,,,,,,,,,10,,68,0
8250,note_on,,1,0,7,,,,,,,,,,,,,,,,10,,66,48
8279,note_on,,119,0,9,,,,,,,,,,,,,,,,15,,47,0
8279,note_on,,119,0,5,,,,,,,,,,,,,,,,2,,47,0
8279,note_on,,29,0,7,,,,,,,,,,,,,,,,10,,66,0
8279,note_on,,119,0,8,,,,,,,,,,,,,,,,13,,47,0
8279,note_on,,0,0,9,,,,,,,,,,,,,,,,15,,63,0
8279,note_on,,0,0,9,,,,,,,,,,,,,,,,15,,59,0
8279,note_on,,0,0,9,,,,,,,,,,,,,,,,15,,56,0
8280,note_on,,1,0,5,,,,,,,,,,,,,,,,2,,49,48
8280,note_on,,0,0,9,,,,,,,,,,,,,,,,15,,64,48
8280,note_on,,1,0,7,,,,,,,,,,,,,,,,10,,64,48
8280,note_on,,1,0,8,,,,,,,,,,,,,,,,13,,49,48
8280,note_on,,0,0,9,,,,,,,,,,,,,,,,15,,52,48
8280,note_on,,0,0,9,,,,,,,,,,,,,,,,15,,56,48
8280,note_on,,1,0,9,,,,,,,,,,,,,,,,15,,49,48
8519,note_on,,239,0,7,,,,,,,,,,,,,,,,10,,64,0
8519,note_on,,0,0,9,,,,,,,,,,,,,,,,15,,64,0
8519,note_on,,239,0,8,,,,,,,,,,,,,,,,13,,49,0
8519,note_on,,239,0,5,,,,,,,,,,,,,,,,2,,49,0
8519,note_on,,0,0,9,,,,,,,,,,,,,,,,15,,56,0
8519,note_on,,0,0,9,,,,,,,,,,,,,,,,15,,52,0
8519,note_on,,239,0,9,,,,,,,,,,,,,,,,15,,49,0
8520,note_on,,0,0,9,,,,,,,,,,,,,,,,15,,57,48
8520,note_on,,1,0,9,,,,,,,,,,,,,,,,15,,45,48
8520,note_on,,0,0,9,,,,,,,,,,,,,,,,15,,66,48
8520,note_on,,0,0,9,,,,,,,,,,,,,,,,15,,61,48
8520,note_on,,1,0,5,,,,,,,,,,,,,,,,2,,45,48
8520,note_on,,1,0,7,,,,,,,,,,,,,,,,10,,73,48
8520,note_on,,1,0,8,,,,,,,,,,,,,,,,13,,45,48
8639,note_on,,119,0,8,,,,,,,,,,,,,,,,13,,45,0
8639,note_on,,0,0,9,,,,,,,,,,,,,,,,15,,61,0
8639,note_on,,0,0,9,,,,,,,,,,,,,,,,15,,66,0
8639,note_on,,119,0,9,,,,,,,,,,,,,,,,15,,45,0
8639,note_on,,119,0,7,,,,,,,,,,,,,,,,10,,73,0
8639,note_on,,119,0,5,,,,,,,,,,,,,,,,2,,45,0
8640,note_on,,1,0,7,,,,,,,,,,,,,,,,10,,69,48
8640,note_on,,1,0,8,,,,,,,,,,,,,,,,13,,42,48
8640,note_on,,0,0,9,,,,,,,,,,,,,,,,15,,63,48
8640,note_on,,1,0,5,,,,,,,,,,,,,,,,2,,42,48
8640,note_on,,1,0,9,,,,,,,,,,,,,,,,15,,42,48
8819,note_on,,179,0,7,,,,,,,,,,,,,,,,10,,69,0
8820,note_on,,1,0,7,,,,,,,,,,,,,,,,10,,68,48
8879,note_on,,239,0,5,,,,,,,,,,,,,,,,2,,42,0
8879,note_on,,0,0,9,,,,,,,,,,,,,,,,15,,42,0
8879,note_on,,0,0,9,,,,,,,,,,,,,,,,15,,63,0
8879,note_on,,59,0,7,,,,,,,,,,,,,,,,10,,68,0
8879,note_on,,239,0,9,,,,,,,,,,,,,,,,15,,57,0
8879,note_on,,239,0,8,,,,,,,,,,,,,,,,13,,42,0
8880,note_on,,1,0,9,,,,,,,,,,,,,,,,15,,51,48
8880,note_on,,0,0,9,,,,,,,,,,,,,,,,15,,59,48
8880,note_on,,0,0,9,,,,,,,,,,,,,,,,15,,66,48
8880,note_on,,0,0,9,,,,,,,,,,,,,,,,15,,71,48
8880,note_on,,1,0,8,,,,,,,,,,,,,,,,13,,51,48
8880,note_on,,1,0,5,,,,,,,,,,,,,,,,2,,51,48
8880,note_on,,1,0,7,,,,,,,,,,,,,,,,10,,69,48
8999,note_on,,119,0,8,,,,,,,,,,,,,,,,13,,51,0
8999,note_on,,119,0,5,,,,,,,,,,,,,,,,2,,51,0
8999,note_on,,0,0,9,,,,,,,,,,,,,,,,15,,71,0
8999,note_on,,119,0,9,,,,,,,,,,,,,,,,15,,51,0
8999,note_on,,119,0,7,,,,,,,,,,,,,,,,10,,69,0
8999,note_on,,0,0,9,,,,,,,,,,,,,,,,15,,66,0
8999,note_on,,0,0,9,,,,,,,,,,,,,,,,15,,59,0
9000,note_on,,1,0,9,,,,,,,,,,,,,,,,15,,52,48
9000,note_on,,1,0,8,,,,,,,,,,,,,,,,13,,52,48
9000,note_on,,0,0,9,,,,,,,,,,,,,,,,15,,68,48
9000,note_on,,0,0,9,,,,,,,,,,,,,,,,15,,71,48
9000,note_on,,1,0,7,,,,,,,,,,,,,,,,10,,68,48
9000,note_on,,0,0,9,,,,,,,,,,,,,,,,15,,59,48
9000,note_on,,1,0,5,,,,,,,,,,,,,,,,2,,52,48
9120,note_on,,1321,0,6,,,,,,,,,,,,,,,,5,,71,64
9239,note_on,,239,0,5,,,,,,,,,,,,,,,,2,,52,0
9239,note_on,,239,0,8,,,,,,,,,,,,,,,,13,,52,0
9239,note_on,,239,0,7,,,,,,,,,,,,,,,,10,,68,0
9239,note_on,,239,0,9,,,,,,,,,,,,,,,,15,,52,0
9239,note_on,,119,0,6,,,,,,,,,,,,,,,,5,,71,0
9240,note_on,,1,0,6,,,,,,,,,,,,,,,,5,,71,64
9240,note_on,,1,0,9,,,,,,,,,,,,,,,,15,,52,48
9240,note_on,,1,0,8,,,,,,,,,,,,,,,,13,,52,48
9359,note_on,,0,0,9,,,,,,,,,,,,,,,,15,,59,0
9359,note_on,,119,0,8,,,,,,,,,,,,,,,,13,,52,0
9359,note_on,,119,0,9,,,,,,,,,,,,,,,,15,,71,0
9359,note_on,,0,0,9,,,,,,,,,,,,,,,,15,,68,0
9359,note_on,,0,0,9,,,,,,,,,,,,,,,,15,,52,0
9359,note_on,,119,0,6,,,,,,,,,,,,,,,,5,,71,0
9360,note_on,,1,0,9,,,,,,,,,,,,,,,,15,,49,48
9360,note_on,,0,0,9,,,,,,,,,,,,,,,,15,,73,48
9360,note_on,,0,0,9,,,,,,,,,,,,,,,,15,,68,48
9360,note_on,,0,0,9,,,,,,,,,,,,,,,,15,,64,48
9360,note_on,,1,0,6,,,,,,,,,,,,,,,,5,,76,64
9360,note_on,,1,0,8,,,,,,,,,,,,,,,,13,,49,48
9599,note_on,,0,0,9,,,,,,,,,,,,,,,,15,,64,0
9599,note_on,,0,0,9,,,,,,,,,,,,,,,,15,,68,0
9599,note_on,,239,0,9,,,,,,,,,,,,,,,,15,,49,0
9599,note_on,,239,0,8,,,,,,,,,,,,,,,,13,,49,0
9599,note_on,,0,0,9,,,,,,,,,,,,,,,,15,,73,0
9599,note_on,,239,0,6,,,,,,,,,,,,,,,,5,,76,0
9600,note_on,,1,0,8,,,,,,,,,,,,,,,,13,,51,48
9600,note_on,,1,0,9,,,,,,,,,,,,,,,,15,,51,48
9600,note_on,,0,0,9,,,,,,,,,,,,,,,,15,,71,48
9600,note_on,,0,0,9,,,,,,,,,,,,,,,,15,,66,48
9600,note_on,,0,0,9,,,,,,,,,,,,,,,,15,,59,48
9600,note_on,,1,0,6,,,,,,,,,,,,,,,,5,,78,64
9719,note_on,,119,0,9,,,,,,,,,,,,,,,,15,,51,0
9719,note_on,,0,0,9,,,,,,,,,,,,,,,,15,,71,0
9719,note_on,,0,0,9,,,,,,,,,,,,,,,,15,,66,0
9719,note_on,,119,0,8,,,,,,,,,,,,,,,,13,,51,0
9719,note_on,,0,0,9,,,,,,,,,,,,,,,,15,,59,0
9719,note_on,,119,0,6,,,,,,,,,,,,,,,,5,,78,0
9720,note_on,,1,0,8,,,,,,,,,,,,,,,,13,,52,48
9720,note_on,,0,0,9,,,,,,,,,,,,,,,,15,,68,48
9720,note_on,,1,0,9,,,,,,,,,,,,,,,,15,,52,48
9720,note_on,,1,0,6,,,,,,,,,,,,,,,,5,,71,64
9720,note_on,,0,0,9,,,,,,,,,,,,,,,,15,,59,48
9720,note_on,,0,0,9,,,,,,,,,,,,,,,,15,,64,48
9900,note_on,,661,0,7,,,,,,,,,,,,,,,,10,,68,48
9959,note_on,,0,0,9,,,,,,,,,,,,,,,,15,,64,0
9959,note_on,,239,0,8,,,,,,,,,,,,,,,,13,,52,0
9959,note_on,,59,0,7,,,,,,,,,,,,,,,,10,,68,0
9959,note_on,,0,0,9,,,,,,,,,,,,,,,,15,,68,0
9959,note_on,,239,0,9,,,,,,,,,,,,,,,,15,,52,0
9959,note_on,,0,0,9,,,,,,,,,,,,,,,,15,,59,0
9960,note_on,,1,0,7,,,,,,,,,,,,,,,,10,,66,48
9974,note_on,,14,0,7,,,,,,,,,,,,,,,,10,,66,0
9975,note_on,,1,0,7,,,,,,,,,,,,,,,,10,,68,48
9989,note_on,,14,0,7,,,,,,,,,,,,,,,,10,,68,0
9990,note_on,,1,0,7,,,,,,,,,,,,,,,,10,,64,48
10004,note_on,,14,0,7,,,,,,,,,,,,,,,,10,,64,0
10005,note_on,,1,0,7,,,,,,,,,,,,,,,,10,,66,48
10019,note_on,,14,0,7,,,,,,,,,,,,,,,,10,,66,0
10020,note_on,,1,0,7,,,,,,,,,,,,,,,,10,,64,48
10079,note_on,,59,0,7,,,,,,,,,,,,,,,,10,,64,0
10080,note_on,,1,0,7,,,,,,,,,,,,,,,,10,,59,48
10080,note_on,,121,0,8,,,,,,,,,,,,,,,,13,,51,48
10080,note_on,,121,0,9,,,,,,,,,,,,,,,,15,,51,48
10080,note_on,,0,0,9,,,,,,,,,,,,,,,,15,,59,48
10080,note_on,,0,0,9,,,,,,,,,,,,,,,,15,,66,48
10199,note_on,,119,0,8,,,,,,,,,,,,,,,,13,,51,0
10199,note_on,,119,0,9,,,,,,,,,,,,,,,,15,,51,0
10199,note_on,,0,0,9,,,,,,,,,,,,,,,,15,,66,0
10200,note_on,,1,0,8,,,,,,,,,,,,,,,,13,,52,48
10200,note_on,,0,0,9,,,,,,,,,,,,,,,,15,,68,48
10200,note_on,,0,0,9,,,,,,,,,,,,,,,,15,,64,48
10200,note_on,,1,0,9,,,,,,,,,,,,,,,,15,,52,48
10259,note_on,,539,0,6,,,,,,,,,,,,,,,,5,,71,0
10260,note_on,,1,0,6,,,,,,,,,,,,,,,,5,,68,64
10319,note_on,,59,0,6,,,,,,,,,,,,,,,,5,,68,0
10319,note_on,,0,0,9,,,,,,,,,,,,,,,,15,,68,0
10319,note_on,,119,0,9,,,,,,,,,,,,,,,,15,,52,0
10319,note_on,,239,0,7,,,,,,,,,,,,,,,,10,,59,0
10319,note_on,,119,0,8,,,,,,,,,,,,,,,,13,,52,0
10320,note_on,,0,0,9,,,,,,,,,,,,,,,,15,,71,48
10320,note_on,,1,0,9,,,,,,,,,,,,,,,,15,,56,48
10320,note_on,,1,0,8,,,,,,,,,,,,,,,,13,,56,48
10320,note_on,,1,0,6,,,,,,,,,,,,,,,,5,,66,64
10379,note_on,,59,0,6,,,,,,,,,,,,,,,,5,,66,0
10380,note_on,,1,0,6,,,,,,,,,,,,,,,,5,,64,64
10439,note_on,,119,0,8,,,,,,,,,,,,,,,,13,,56,0
10439,note_on,,59,0,6,,,,,,,,,,,,,,,,5,,64,0
10439,note_on,,119,0,9,,,,,,,,,,,,,,,,15,,59,0
10439,note_on,,0,0,9,,,,,,,,,,,,,,,,15,,71,0
10439,note_on,,0,0,9,,,,,,,,,,,,,,,,15,,56,0
10439,note_on,,0,0,9,,,,,,,,,,,,,,,,15,,64,0
10440,note_on,,1,0,6,,,,,,,,,,,,,,,,5,,73,64
10620,note_on,,0,0,9,,,,,,,,,,,,,,,,15,,68,48
10620,note_on,,0,0,9,,,,,,,,,,,,,,,,15,,64,48
10620,note_on,,0,0,9,,,,,,,,,,,,,,,,15,,73,48
10620,note_on,,181,0,9,,,,,,,,,,,,,,,,15,,52,48
10620,note_on,,181,0,8,,,,,,,,,,,,,,,,13,,52,48
10620,note_on,,301,0,7,,,,,,,,,,,,,,,,10,,68,48
10679,note_on,,0,0,9,,,,,,,,,,,,,,,,15,,68,0
10679,note_on,,59,0,9,,,,,,,,,,,,,,,,15,,52,0
10679,note_on,,59,0,8,,,,,,,,,,,,,,,,13,,52,0
10679,note_on,,59,0,7,,,,,,,,,,,,,,,,10,,68,0
10680,note_on,,1,0,9,,,,,,,,,,,,,,,,15,,51,48
10680,note_on,,0,0,9,,,,,,,,,,,,,,,,15,,66,48
10680,note_on,,1,0,7,,,,,,,,,,,,,,,,10,,66,48
10680,note_on,,1,0,8,,,,,,,,,,,,,,,,13,,51,48
10739,note_on,,59,0,9,,,,,,,,,,,,,,,,15,,51,0
10739,note_on,,0,0,9,,,,,,,,,,,,,,,,15,,66,0
10739,note_on,,59,0,7,,,,,,,,,,,,,,,,10,,66,0
10739,note_on,,59,0,8,,,,,,,,,,,,,,,,13,,51,0
10740,note_on,,1,0,9,,,,,,,,,,,,,,,,15,,49,48
10740,note_on,,1,0,7,,,,,,,,,,,,,,,,10,,64,48
10740,note_on,,1,0,8,,,,,,,,,,,,,,,,13,,49,48
10799,note_on,,59,0,9,,,,,,,,,,,,,,,,15,,73,0
10799,note_on,,0,0,9,,,,,,,,,,,,,,,,15,,64,0
10799,note_on,,0,0,9,,,,,,,,,,,,,,,,15,,49,0
10799,note_on,,59,0,7,,,,,,,,,,,,,,,,10,,64,0
10799,note_on,,59,0,8,,,,,,,,,,,,,,,,13,,49,0
10800,note_on,,1,0,8,,,,,,,,,,,,,,,,13,,54,48
10800,note_on,,1,0,7,,,,,,,,,,,,,,,,10,,70,48
10800,note_on,,1,0,9,,,,,,,,,,,,,,,,15,,54,48
10800,note_on,,0,0,9,,,,,,,,,,,,,,,,15,,73,48
10800,note_on,,0,0,9,,,,,,,,,,,,,,,,15,,70,48
10800,note_on,,0,0,9,,,,,,,,,,,,,,,,15,,61,48
10979,note_on,,539,0,6,,,,,,,,,,,,,,,,5,,73,0
10980,note_on,,1,0,6,,,,,,,,,,,,,,,,5,,70,64
11039,note_on,,0,0,9,,,,,,,,,,,,,,,,15,,70,0
11039,note_on,,0,0,9,,,,,,,,,,,,,,,,15,,61,0
11039,note_on,,59,0,6,,,,,,,,,,,,,,,,5,,70,0
11039,note_on,,239,0,8,,,,,,,,,,,,,,,,13,,54,0
11039,note_on,,0,0,9,,,,,,,,,,,,,,,,15,,73,0
11039,note_on,,239,0,7,,,,,,,,,,,,,,,,10,,70,0
11039,note_on,,239,0,9,,,,,,,,,,,,,,,,15,,54,0
11040,note_on,,1,0,6,,,,,,,,,,,,,,,,5,,68,64
11099,note_on,,59,0,6,,,,,,,,,,,,,,,,5,,68,0
11100,note_on,,1,0,6,,,,,,,,,,,,,,,,5,,66,64
11159,note_on,,59,0,6,,,,,,,,,,,,,,,,5,,66,0
11160,note_on,,1,0,6,,,,,,,,,,,,,,,,5,,76,64
11340,note_on,,301,0,8,,,,,,,,,,,,,,,,13,,56,48
11340,note_on,,301,0,7,,,,,,,,,,,,,,,,10,,71,48
11340,note_on,,301,0,9,,,,,,,,,,,,,,,,15,,56,48
11340,note_on,,0,0,9,,,,,,,,,,,,,,,,15,,76,48
11340,note_on,,0,0,9,,,,,,,,,,,,,,,,15,,71,48
11340,note_on,,0,0,9,,,,,,,,,,,,,,,,15,,64,48
11399,note_on,,59,0,7,,,,,,,,,,,,,,,,10,,71,0
11399,note_on,,59,0,8,,,,,,,,,,,,,,,,13,,56,0
11399,note_on,,59,0,9,,,,,,,,,,,,,,,,15,,56,0
11399,note_on,,0,0,9,,,,,,,,,,,,,,,,15,,71,0
11400,note_on,,1,0,9,,,,,,,,,,,,,,,,15,,61,48
11400,note_on,,1,0,8,,,,,,,,,,,,,,,,13,,61,48
11400,note_on,,0,0,9,,,,,,,,,,,,,,,,15,,70,48
11400,note_on,,1,0,7,,,,,,,,,,,,,,,,10,,70,48
11459,note_on,,59,0,8,,,,,,,,,,,,,,,,13,,61,0
11459,note_on,,59,0,7,,,,,,,,,,,,,,,,10,,70,0
11459,note_on,,0,0,9,,,,,,,,,,,,,,,,15,,70,0
11459,note_on,,0,0,9,,,,,,,,,,,,,,,,15,,61,0
11459,note_on,,59,0,9,,,,,,,,,,,,,,,,15,,64,0
11460,note_on,,1,0,8,,,,,,,,,,,,,,,,13,,59,48
11460,note_on,,0,0,9,,,,,,,,,,,,,,,,15,,68,48
11460,note_on,,0,0,9,,,,,,,,,,,,,,,,15,,71,48
11460,note_on,,1,0,7,,,,,,,,,,,,,,,,10,,68,48
11460,note_on,,1,0,9,,,,,,,,,,,,,,,,15,,59,48
11519,note_on,,0,0,9,,,,,,,,,,,,,,,,15,,59,0
11519,note_on,,59,0,9,,,,,,,,,,,,,,,,15,,76,0
11519,note_on,,0,0,9,,,,,,,,,,,,,,,,15,,68,0
11519,note_on,,59,0,7,,,,,,,,,,,,,,,,10,,68,0
11519,note_on,,59,0,8,,,,,,,,,,,,,,,,13,,59,0
11519,note_on,,0,0,9,,,,,,,,,,,,,,,,15,,71,0
11520,note_on,,1,0,8,,,,,,,,,,,,,,,,13,,58,48
11520,note_on,,0,0,9,,,,,,,,,,,,,,,,15,,73,48
11520,note_on,,0,0,9,,,,,,,,,,,,,,,,15,,66,48
11520,note_on,,1,0,7,,,,,,,,,,,,,,,,10,,66,48
11520,note_on,,1,0,9,,,,,,,,,,,,,,,,15,,58,48
11699,note_on,,539,0,6,,,,,,,,,,,,,,,,5,,76,0
11700,note_on,,1,0,6,,,,,,,,,,,,,,,,5,,78,64
11759,note_on,,59,0,6,,,,,,,,,,,,,,,,5,,78,0
11759,note_on,,239,0,9,,,,,,,,,,,,,,,,15,,58,0
11759,note_on,,239,0,8,,,,,,,,,,,,,,,,13,,58,0
11759,note_on,,0,0,9,,,,,,,,,,,,,,,,15,,73,0
11759,note_on,,0,0,9,,,,,,,,,,,,,,,,15,,66,0
11760,note_on,,0,0,9,,,,,,,,,,,,,,,,15,,63,48
11760,note_on,,1,0,6,,,,,,,,,,,,,,,,5,,75,64
11760,note_on,,1,0,9,,,,,,,,,,,,,,,,15,,59,48
11760,note_on,,1,0,8,,,,,,,,,,,,,,,,13,,59,48
11760,note_on,,0,0,9,,,,,,,,,,,,,,,,15,,66,48
11819,note_on,,59,0,6,,,,,,,,,,,,,,,,5,,75,0
11820,note_on,,1,0,6,,,,,,,,,,,,,,,,5,,73,64
11879,note_on,,119,0,9,,,,,,,,,,,,,,,,15,,59,0
11879,note_on,,0,0,9,,,,,,,,,,,,,,,,15,,63,0
11879,note_on,,119,0,8,,,,,,,,,,,,,,,,13,,59,0
11879,note_on,,0,0,9,,,,,,,,,,,,,,,,15,,66,0
11879,note_on,,59,0,6,,,,,,,,,,,,,,,,5,,73,0
11879,note_on,,359,0,7,,,,,,,,,,,,,,,,10,,66,0
11880,note_on,,1,0,8,,,,,,,,,,,,,,,,13,,52,48
11880,note_on,,1,0,9,,,,,,,,,,,,,,,,15,,52,48
11880,note_on,,0,0,9,,,,,,,,,,,,,,,,15,,71,48
11880,note_on,,0,0,9,,,,,,,,,,,,,,,,15,,68,48
11880,note_on,,0,0,9,,,,,,,,,,,,,,,,15,,59,48
11880,note_on,,1,0,6,,,,,,,,,,,,,,,,5,,75,64
11909,note_on,,29,0,6,,,,,,,,,,,,,,,,5,,75,0
11910,note_on,,1,0,6,,,,,,,,,,,,,,,,5,,73,64
11939,note_on,,29,0,6,,,,,,,,,,,,,,,,5,,73,0
11940,note_on,,1,0,6,,,,,,,,,,,,,,,,5,,71,64
11984,note_on,,44,0,6,,,,,,,,,,,,,,,,5,,71,0
11985,note_on,,1,0,6,,,,,,,,,,,,,,,,5,,71,64
11999,note_on,,0,0,9,,,,,,,,,,,,,,,,15,,59,0
11999,note_on,,0,0,9,,,,,,,,,,,,,,,,15,,68,0
11999,note_on,,119,0,9,,,,,,,,,,,,,,,,15,,52,0
11999,note_on,,0,0,9,,,,,,,,,,,,,,,,15,,71,0
11999,note_on,,14,0,6,,,,,,,,,,,,,,,,5,,71,0
11999,note_on,,119,0,8,,,,,,,,,,,,,,,,13,,52,0
12000,note_on,,0,0,9,,,,,,,,,,,,,,,,15,,61,48
12000,note_on,,1,0,6,,,,,,,,,,,,,,,,5,,70,64
12000,note_on,,0,0,9,,,,,,,,,,,,,,,,15,,58,48
12000,note_on,,0,0,9,,,,,,,,,,,,,,,,15,,66,48
12000,note_on,,1,0,9,,,,,,,,,,,,,,,,15,,54,48
12000,note_on,,1,0,8,,,,,,,,,,,,,,,,13,,54,48
12119,note_on,,119,0,9,,,,,,,,,,,,,,,,15,,54,0
12119,note_on,,119,0,8,,,,,,,,,,,,,,,,13,,54,0
12120,note_on,,1,0,8,,,,,,,,,,,,,,,,13,,42,48
12120,note_on,,0,0,9,,,,,,,,,,,,,,,,15,,64,48
12120,note_on,,1,0,9,,,,,,,,,,,,,,,,15,,42,48
12179,note_on,,179,0,6,,,,,,,,,,,,,,,,5,,70,0
12180,note_on,,1,0,6,,,,,,,,,,,,,,,,5,,71,64
12239,note_on,,0,0,9,,,,,,,,,,,,,,,,15,,42,0
12239,note_on,,0,0,9,,,,,,,,,,,,,,,,15,,64,0
12239,note_on,,59,0,6,,,,,,,,,,,,,,,,5,,71,0
12239,note_on,,119,0,9,,,,,,,,,,,,,,,,15,,66,0
12239,note_on,,0,0,9,,,,,,,,,,,,,,,,15,,61,0
12239,note_on,,119,0,8,,,,,,,,,,,,,,,,13,,42,0
12239,note_on,,0,0,9,,,,,,,,,,,,,,,,15,,58,0
12240,note_on,,1,0,6,,,,,,,,,,,,,,,,5,,71,64
12240,note_on,,0,0,9,,,,,,,,,,,,,,,,15,,63,48
12240,note_on,,0,0,9,,,,,,,,,,,,,,,,15,,59,48
12240,note_on,,1,0,8,,,,,,,,,,,,,,,,13,,47,48
12240,note_on,,0,0,9,,,,,,,,,,,,,,,,15,,66,48
12240,note_on,,1,0,9,,,,,,,,,,,,,,,,15,,47,48
12479,note_on,,239,0,9,,,,,,,,,,,,,,,,15,,47,0
12479,note_on,,0,0,9,,,,,,,,,,,,,,,,15,,66,0
12479,note_on,,0,0,9,,,,,,,,,,,,,,,,15,,63,0
12479,note_on,,0,0,9,,,,,,,,,,,,,,,,15,,59,0
12479,note_on,,239,0,8,,,,,,,,,,,,,,,,13,,47,0
12480,note_on,,601,0,7,,,,,,,,,,,,,,,,10,,78,72
12599,note_on,,119,0,7,,,,,,,,,,,,,,,,10,,78,0
12599,note_on,,359,0,6,,,,,,,,,,,,,,,,5,,71,0
12600,note_on,,1,0,7,,,,,,,,,,,,,,,,10,,83,72
12839,note_on,,239,0,7,,,,,,,,,,,,,,,,10,,83,0
12840,note_on,,3601,0,5,,,,,,,,,,,,,,,,2,,54,72
12840,note_on,,1,0,7,,,,,,,,,,,,,,,,10,,75,72
12840,note_on,,361,0,9,,,,,,,,,,,,,,,,15,,54,72
12840,note_on,,0,0,9,,,,,,,,,,,,,,,,15,,58,72
12840,note_on,,0,0,9,,,,,,,,,,,,,,,,15,,63,72
12840,note_on,,0,0,9,,,,,,,,,,,,,,,,15,,70,72
12840,note_on,,361,0,8,,,,,,,,,,,,,,,,13,,54,72
12854,note_on,,14,0,7,,,,,,,,,,,,,,,,10,,75,0
12855,note_on,,1,0,7,,,,,,,,,,,,,,,,10,,76,72
12869,note_on,,14,0,7,,,,,,,,,,,,,,,,10,,76,0
12870,note_on,,1,0,7,,,,,,,,,,,,,,,,10,,75,72
12884,note_on,,14,0,7,,,,,,,,,,,,,,,,10,,75,0
12885,note_on,,1,0,7,,,,,,,,,,,,,,,,10,,76,72
12899,note_on,,14,0,7,,,,,,,,,,,,,,,,10,,76,0
12900,note_on,,1,0,7,,,,,,,,,,,,,,,,10,,73,72
12914,note_on,,14,0,7,,,,,,,,,,,,,,,,10,,73,0
12915,note_on,,1,0,7,,,,,,,,,,,,,,,,10,,75,72
12929,note_on,,14,0,7,,,,,,,,,,,,,,,,10,,75,0
12930,note_on,,1,0,7,,,,,,,,,,,,,,,,10,,73,72
12959,note_on,,0,0,9,,,,,,,,,,,,,,,,15,,70,0
12959,note_on,,29,0,7,,,,,,,,,,,,,,,,10,,73,0
12959,note_on,,0,0,9,,,,,,,,,,,,,,,,15,,63,0
12959,note_on,,119,0,8,,,,,,,,,,,,,,,,13,,54,0
12959,note_on,,119,0,5,,,,,,,,,,,,,,,,2,,54,0
12959,note_on,,119,0,9,,,,,,,,,,,,,,,,15,,54,0
12959,note_on,,0,0,9,,,,,,,,,,,,,,,,15,,58,0
12960,note_on,,0,0,9,,,,,,,,,,,,,,,,15,,59,72
12960,note_on,,1,0,8,,,,,,,,,,,,,,,,13,,56,72
12960,note_on,,0,0,9,,,,,,,,,,,,,,,,15,,63,72
12960,note_on,,1,0,7,,,,,,,,,,,,,,,,10,,71,72
12960,note_on,,0,0,9,,,,,,,,,,,,,,,,15,,68,72
12960,note_on,,1,0,9,,,,,,,,,,,,,,,,15,,56,72
12960,note_on,,1,0,5,,,,,,,,,,,,,,,,2,,56,72
13199,note_on,,0,0,9,,,,,,,,,,,,,,,,15,,59,0
13199,note_on,,0,0,9,,,,,,,,,,,,,,,,15,,63,0
13199,note_on,,0,0,9,,,,,,,,,,,,,,,,15,,68,0
13199,note_on,,239,0,9,,,,,,,,,,,,,,,,15,,56,0
13199,note_on,,239,0,5,,,,,,,,,,,,,,,,2,,56,0
13199,note_on,,239,0,8,,,,,,,,,,,,,,,,13,,56,0
13199,note_on,,239,0,7,,,,,,,,,,,,,,,,10,,71,0
13200,note_on,,1,0,5,,,,,,,,,,,,,,,,2,,52,72
13200,note_on,,0,0,9,,,,,,,,,,,,,,,,15,,56,72
13200,note_on,,0,0,9,,,,,,,,,,,,,,,,15,,71,72
13200,note_on,,1,0,9,,,,,,,,,,,,,,,,15,,52,72
13200,note_on,,1,0,7,,,,,,,,,,,,,,,,10,,80,72
13200,note_on,,1,0,8,,,,,,,,,,,,,,,,13,,52,72
13200,note_on,,0,0,9,,,,,,,,,,,,,,,,15,,64,72
13319,note_on,,0,0,9,,,,,,,,,,,,,,,,15,,64,0
13319,note_on,,0,0,9,,,,,,,,,,,,,,,,15,,56,0
13319,note_on,,0,0,9,,,,,,,,,,,,,,,,15,,71,0
13319,note_on,,119,0,9,,,,,,,,,,,,,,,,15,,52,0
13319,note_on,,119,0,7,,,,,,,,,,,,,,,,10,,80,0
13319,note_on,,119,0,5,,,,,,,,,,,,,,,,2,,52,0
13319,note_on,,119,0,8,,,,,,,,,,,,,,,,13,,52,0
13320,note_on,,0,0,9,,,,,,,,,,,,,,,,15,,49,72
13320,note_on,,1,0,9,,,,,,,,,,,,,,,,15,,64,72
13320,note_on,,1,0,5,,,,,,,,,,,,,,,,2,,49,72
13320,note_on,,0,0,9,,,,,,,,,,,,,,,,15,,61,72
13320,note_on,,0,0,9,,,,,,,,,,,,,,,,15,,71,72
13320,note_on,,1,0,8,,,,,,,,,,,,,,,,13,,49,72
13320,note_on,,1,0,7,,,,,,,,,,,,,,,,10,,76,72
13320,note_on,,0,0,9,,,,,,,,,,,,,,,,15,,76,72
13499,note_on,,179,0,7,,,,,,,,,,,,,,,,10,,76,0
13500,note_on,,1,0,7,,,,,,,,,,,,,,,,10,,75,72
13559,note_on,,0,0,9,,,,,,,,,,,,,,,,15,,49,0
13559,note_on,,0,0,9,,,,,,,,,,,,,,,,15,,76,0
13559,note_on,,0,0,9,,,,,,,,,,,,,,,,15,,71,0
13559,note_on,,0,0,9,,,,,,,,,,,,,,,,15,,61,0
13559,note_on,,239,0,9,,,,,,,,,,,,,,,,15,,64,0
13559,note_on,,59,0,7,,,,,,,,,,,,,,,,10,,75,0
13559,note_on,,239,0,5,,,,,,,,,,,,,,,,2,,49,0
13559,note_on,,239,0,8,,,,,,,,,,,,,,,,13,,49,0
13560,note_on,,1,0,8,,,,,,,,,,,,,,,,13,,58,72
13560,note_on,,1,0,7,,,,,,,,,,,,,,,,10,,76,72
13560,note_on,,1,0,9,,,,,,,,,,,,,,,,15,,61,72
13560,note_on,,0,0,9,,,,,,,,,,,,,,,,15,,58,72
13560,note_on,,0,0,9,,,,,,,,,,,,,,,,15,,73,72
13560,note_on,,0,0,9,,,,,,,,,,,,,,,,15,,66,72
13560,note_on,,1,0,5,,,,,,,,,,,,,,,,2,,58,72
13679,note_on,,119,0,8,,,,,,,,,,,,,,,,13,,58,0
13679,note_on,,119,0,7,,,,,,,,,,,,,,,,10,,76,0
13679,note_on,,119,0,5,,,,,,,,,,,,,,,,2,,58,0
13679,note_on,,0,0,9,,,,,,,,,,,,,,,,15,,73,0
13679,note_on,,0,0,9,,,,,,,,,,,,,,,,15,,66,0
13679,note_on,,0,0,9,,,,,,,,,,,,,,,,15,,58,0
13679,note_on,,119,0,9,,,,,,,,,,,,,,,,15,,61,0
13680,note_on,,0,0,9,,,,,,,,,,,,,,,,15,,63,72
13680,note_on,,0,0,9,,,,,,,,,,,,,,,,15,,66,72
13680,note_on,,1,0,9,,,,,,,,,,,,,,,,15,,59,72
13680,note_on,,1,0,7,,,,,,,,,,,,,,,,10,,75,72
13680,note_on,,1,0,5,,,,,,,,,,,,,,,,2,,59,72
13680,note_on,,1,0,8,,,,,,,,,,,,,,,,13,,59,72
13859,note_on,,179,0,9,,,,,,,,,,,,,,,,15,,63,0
13860,note_on,,1,0,9,,,,,,,,,,,,,,,,15,,64,48
13919,note_on,,239,0,7,,,,,,,,,,,,,,,,10,,75,0
13919,note_on,,239,0,5,,,,,,,,,,,,,,,,2,,59,0
13919,note_on,,239,0,8,,,,,,,,,,,,,,,,13,,59,0
13919,note_on,,59,0,9,,,,,,,,,,,,,,,,15,,59,0
13919,note_on,,0,0,9,,,,,,,,,,,,,,,,15,,66,0
13919,note_on,,0,0,9,,,,,,,,,,,,,,,,15,,64,0
13920,note_on,,0,0,9,,,,,,,,,,,,,,,,15,,71,48
13920,note_on,,1,0,8,,,,,,,,,,,,,,,,13,,57,48
13920,note_on,,0,0,9,,,,,,,,,,,,,,,,15,,66,48
13920,note_on,,0,0,9,,,,,,,,,,,,,,,,15,,78,48
13920,note_on,,1321,0,6,,,,,,,,,,,,,,,,5,,71,64
13920,note_on,,1,0,9,,,,,,,,,,,,,,,,15,,57,48
13920,note_on,,0,0,9,,,,,,,,,,,,,,,,15,,63,48
13979,note_on,,59,0,9,,,,,,,,,,,,,,,,15,,63,0
13980,note_on,,1,0,9,,,,,,,,,,,,,,,,15,,61,48
14039,note_on,,119,0,8,,,,,,,,,,,,,,,,13,,57,0
14039,note_on,,119,0,6,,,,,,,,,,,,,,,,5,,71,0
14039,note_on,,0,0,9,,,,,,,,,,,,,,,,15,,61,0
14039,note_on,,0,0,9,,,,,,,,,,,,,,,,15,,78,0
14039,note_on,,0,0,9,,,,,,,,,,,,,,,,15,,71,0
14039,note_on,,59,0,9,,,,,,,,,,,,,,,,15,,57,0
14039,note_on,,0,0,9,,,,,,,,,,,,,,,,15,,66,0
14040,note_on,,1,0,9,,,,,,,,,,,,,,,,15,,56,48
14040,note_on,,0,0,9,,,,,,,,,,,,,,,,15,,71,48
14040,note_on,,0,0,9,,,,,,,,,,,,,,,,15,,68,48
14040,note_on,,0,0,9,,,,,,,,,,,,,,,,15,,64,48
14040,note_on,,0,0,9,,,,,,,,,,,,,,,,15,,59,48
14040,note_on,,1,0,8,,,,,,,,,,,,,,,,13,,56,48
14040,note_on,,1,0,6,,,,,,,,,,,,,,,,5,,76,64
14279,note_on,,239,0,8,,,,,,,,,,,,,,,,13,,56,0
14279,note_on,,239,0,6,,,,,,,,,,,,,,,,5,,76,0
14279,note_on,,0,0,9,,,,,,,,,,,,,,,,15,,64,0
14279,note_on,,0,0,9,,,,,,,,,,,,,,,,15,,59,0
14279,note_on,,0,0,9,,,,,,,,,,,,,,,,15,,68,0
14279,note_on,,0,0,9,,,,,,,,,,,,,,,,15,,71,0
14279,note_on,,239,0,9,,,,,,,,,,,,,,,,15,,56,0
14280,note_on,,1,0,9,,,,,,,,,,,,,,,,15,,59,48
14280,note_on,,1,0,6,,,,,,,,,,,,,,,,5,,69,64
14280,note_on,,1,0,8,,,,,,,,,,,,,,,,13,,59,48
14280,note_on,,0,0,9,,,,,,,,,,,,,,,,15,,68,48
14280,note_on,,0,0,9,,,,,,,,,,,,,,,,15,,63,48
14294,note_on,,14,0,6,,,,,,,,,,,,,,,,5,,69,0
14295,note_on,,1,0,6,,,,,,,,,,,,,,,,5,,68,64
14369,note_on,,74,0,6,,,,,,,,,,,,,,,,5,,68,0
14370,note_on,,1,0,6,,,,,,,,,,,,,,,,5,,66,64
14399,note_on,,119,0,8,,,,,,,,,,,,,,,,13,,59,0
14399,note_on,,29,0,6,,,,,,,,,,,,,,,,5,,66,0
14399,note_on,,119,0,9,,,,,,,,,,,,,,,,15,,59,0
14399,note_on,,0,0,9,,,,,,,,,,,,,,,,15,,63,0
14399,note_on,,0,0,9,,,,,,,,,,,,,,,,15,,68,0
14400,note_on,,1,0,9,,,,,,,,,,,,,,,,15,,61,48
14400,note_on,,0,0,9,,,,,,,,,,,,,,,,15,,76,48
14400,note_on,,0,0,9,,,,,,,,,,,,,,,,15,,68,48
14400,note_on,,0,0,9,,,,,,,,,,,,,,,,15,,64,48
14400,note_on,,1,0,6,,,,,,,,,,,,,,,,5,,66,64
14400,note_on,,1,0,8,,,,,,,,,,,,,,,,13,,61,48
14519,note_on,,119,0,6,,,,,,,,,,,,,,,,5,,66,0
14520,note_on,,1,0,6,,,,,,,,,,,,,,,,5,,64,64
14559,note_on,,39,0,6,,,,,,,,,,,,,,,,5,,64,0
14560,note_on,,1,0,6,,,,,,,,,,,,,,,,5,,66,64
14599,note_on,,39,0,6,,,,,,,,,,,,,,,,5,,66,0
14600,note_on,,1,0,6,,,,,,,,,,,,,,,,5,,68,64
14639,note_on,,239,0,8,,,,,,,,,,,,,,,,13,,61,0
14639,note_on,,0,0,9,,,,,,,,,,,,,,,,15,,68,0
14639,note_on,,0,0,9,,,,,,,,,,,,,,,,15,,76,0
14639,note_on,,239,0,9,,,,,,,,,,,,,,,,15,,61,0
14639,note_on,,39,0,6,,,,,,,,,,,,,,,,5,,68,0
14639,note_on,,0,0,9,,,,,,,,,,,,,,,,15,,64,0
14640,note_on,,0,0,9,,,,,,,,,,,,,,,,15,,69,48
14640,note_on,,1,0,8,,,,,,,,,,,,,,,,13,,57,48
14640,note_on,,1,0,6,,,,,,,,,,,,,,,,5,,69,64
14640,note_on,,0,0,9,,,,,,,,,,,,,,,,15,,64,48
14640,note_on,,1,0,9,,,,,,,,,,,,,,,,15,,57,48
14640,note_on,,0,0,9,,,,,,,,,,,,,,,,15,,73,48
14679,note_on,,39,0,6,,,,,,,,,,,,,,,,5,,69,0
14680,note_on,,1,0,6,,,,,,,,,,,,,,,,5,,71,64
14719,note_on,,39,0,6,,,,,,,,,,,,,,,,5,,71,0
14720,note_on,,1,0,6,,,,,,,,,,,,,,,,5,,73,64
14759,note_on,,119,0,8,,,,,,,,,,,,,,,,13,,57,0
14759,note_on,,0,0,9,,,,,,,,,,,,,,,,15,,69,0
14759,note_on,,39,0,6,,,,,,,,,,,,,,,,5,,73,0
14759,note_on,,0,0,9,,,,,,,,,,,,,,,,15,,73,0
14759,note_on,,0,0,9,,,,,,,,,,,,,,,,15,,64,0
14759,note_on,,119,0,9,,,,,,,,,,,,,,,,15,,57,0
14760,note_on,,0,0,9,,,,,,,,,,,,,,,,15,,66,48
14760,note_on,,0,0,9,,,,,,,,,,,,,,,,15,,57,48
14760,note_on,,0,0,9,,,,,,,,,,,,,,,,15,,64,48
14760,note_on,,1,0,6,,,,,,,,,,,,,,,,5,,69,64
14760,note_on,,1,0,9,,,,,,,,,,,,,,,,15,,54,48
14760,note_on,,1,0,8,,,,,,,,,,,,,,,,13,,54,48
14774,note_on,,14,0,6,,,,,,,,,,,,,,,,5,,69,0
14775,note_on,,1,0,6,,,,,,,,,,,,,,,,5,,71,64
14789,note_on,,14,0,6,,,,,,,,,,,,,,,,5,,71,0
14790,note_on,,1,0,6,,,,,,,,,,,,,,,,5,,69,64
14804,note_on,,14,0,6,,,,,,,,,,,,,,,,5,,69,0
14805,note_on,,1,0,6,,,,,,,,,,,,,,,,5,,71,64
14819,note_on,,14,0,6,,,,,,,,,,,,,,,,5,,71,0
14820,note_on,,1,0,6,,,,,,,,,,,,,,,,5,,69,64
14834,note_on,,14,0,6,,,,,,,,,,,,,,,,5,,69,0
14835,note_on,,1,0,6,,,,,,,,,,,,,,,,5,,71,64
14849,note_on,,14,0,6,,,,,,,,,,,,,,,,5,,71,0
14850,note_on,,1,0,6,,,,,,,,,,,,,,,,5,,69,64
14864,note_on,,14,0,6,,,,,,,,,,,,,,,,5,,69,0
14865,note_on,,1,0,6,,,,,,,,,,,,,,,,5,,71,64
14879,note_on,,119,0,9,,,,,,,,,,,,,,,,15,,64,0
14879,note_on,,14,0,6,,,,,,,,,,,,,,,,5,,71,0
14880,note_on,,1,0,9,,,,,,,,,,,,,,,,15,,63,48
14880,note_on,,1,0,6,,,,,,,,,,,,,,,,5,,69,64
14894,note_on,,14,0,6,,,,,,,,,,,,,,,,5,,69,0
14895,note_on,,1,0,6,,,,,,,,,,,,,,,,5,,71,64
14909,note_on,,14,0,6,,,,,,,,,,,,,,,,5,,71,0
14910,note_on,,1,0,6,,,,,,,,,,,,,,,,5,,69,64
14924,note_on,,14,0,6,,,,,,,,,,,,,,,,5,,69,0
14925,note_on,,1,0,6,,,,,,,,,,,,,,,,5,,71,64
14939,note_on,,14,0,6,,,,,,,,,,,,,,,,5,,71,0
14940,note_on,,1,0,6,,,,,,,,,,,,,,,,5,,69,64
14954,note_on,,14,0,6,,,,,,,,,,,,,,,,5,,69,0
14955,note_on,,1,0,6,,,,,,,,,,,,,,,,5,,71,64
14969,note_on,,14,0,6,,,,,,,,,,,,,,,,5,,71,0
14970,note_on,,1,0,6,,,,,,,,,,,,,,,,5,,68,64
14984,note_on,,14,0,6,,,,,,,,,,,,,,,,5,,68,0
14985,note_on,,1,0,6,,,,,,,,,,,,,,,,5,,69,64
14999,note_on,,14,0,6,,,,,,,,,,,,,,,,5,,69,0
14999,note_on,,239,0,8,,,,,,,,,,,,,,,,13,,54,0
14999,note_on,,0,0,9,,,,,,,,,,,,,,,,15,,57,0
14999,note_on,,0,0,9,,,,,,,,,,,,,,,,15,,66,0
14999,note_on,,0,0,9,,,,,,,,,,,,,,,,15,,63,0
14999,note_on,,119,0,9,,,,,,,,,,,,,,,,15,,54,0
15000,note_on,,0,0,9,,,,,,,,,,,,,,,,15,,68,48
15000,note_on,,1,0,8,,,,,,,,,,,,,,,,13,,52,48
15000,note_on,,0,0,9,,,,,,,,,,,,,,,,15,,71,48
15000,note_on,,0,0,9,,,,,,,,,,,,,,,,15,,56,48
15000,note_on,,0,0,9,,,,,,,,,,,,,,,,15,,64,48
15000,note_on,,1,0,9,,,,,,,,,,,,,,,,15,,52,48
15000,note_on,,1,0,6,,,,,,,,,,,,,,,,5,,68,64
15089,note_on,,89,0,6,,,,,,,,,,,,,,,,5,,68,0
15090,note_on,,1,0,6,,,,,,,,,,,,,,,,5,,68,64
15119,note_on,,0,0,9,,,,,,,,,,,,,,,,15,,64,0
15119,note_on,,29,0,6,,,,,,,,,,,,,,,,5,,68,0
15119,note_on,,0,0,9,,,,,,,,,,,,,,,,15,,56,0
15119,note_on,,119,0,8,,,,,,,,,,,,,,,,13,,52,0
15119,note_on,,0,0,9,,,,,,,,,,,,,,,,15,,68,0
15119,note_on,,0,0,9,,,,,,,,,,,,,,,,15,,71,0
15119,note_on,,119,0,9,,,,,,,,,,,,,,,,15,,52,0
15120,note_on,,0,0,9,,,,,,,,,,,,,,,,15,,59,48
15120,note_on,,0,0,9,,,,,,,,,,,,,,,,15,,63,48
15120,note_on,,0,0,9,,,,,,,,,,,,,,,,15,,71,48
15120,note_on,,1,0,9,,,,,,,,,,,,,,,,15,,47,48
15120,note_on,,1,0,6,,,,,,,,,,,,,,,,5,,66,64
15120,note_on,,1,0,8,,,,,,,,,,,,,,,,13,,47,48
15120,note_on,,0,0,9,,,,,,,,,,,,,,,,15,,66,48
15239,note_on,,119,0,6,,,,,,,,,,,,,,,,5,,66,0
15240,note_on,,1,0,6,,,,,,,,,,,,,,,,5,,66,64
15359,note_on,,0,0,9,,,,,,,,,,,,,,,,15,,66,0
15359,note_on,,0,0,9,,,,,,,,,,,,,,,,15,,71,0
15359,note_on,,0,0,9,,,,,,,,,,,,,,,,15,,63,0
15359,note_on,,0,0,9,,,,,,,,,,,,,,,,15,,59,0
15359,note_on,,239,0,8,,,,,,,,,,,,,,,,13,,47,0
15359,note_on,,119,0,6,,,,,,,,,,,,,,,,5,,66,0
15359,note_on,,239,0,9,,,,,,,,,,,,,,,,15,,47,0
15360,note_on,,1,0,6,,,,,,,,,,,,,,,,5,,66,64
15449,note_on,,89,0,6,,,,,,,,,,,,,,,,5,,66,0
15450,note_on,,1,0,6,,,,,,,,,,,,,,,,5,,69,64
15479,note_on,,29,0,6,,,,,,,,,,,,,,,,5,,69,0
15480,note_on,,1,0,6,,,,,,,,,,,,,,,,5,,68,64
15659,note_on,,179,0,6,,,,,,,,,,,,,,,,5,,68,0
15660,note_on,,1,0,6,,,,,,,,,,,,,,,,5,,68,64
15719,note_on,,59,0,6,,,,,,,,,,,,,,,,5,,68,0
15720,note_on,,1,0,6,,,,,,,,,,,,,,,,5,,66,64
15779,note_on,,59,0,6,,,,,,,,,,,,,,,,5,,66,0
15780,note_on,,1,0,6,,,,,,,,,,,,,,,,5,,64,64
15839,note_on,,59,0,6,,,,,,,,,,,,,,,,5,,64,0
15840,note_on,,1,0,6,,,,,,,,,,,,,,,,5,,71,64
16020,note_on,,2101,0,7,,,,,,,,,,,,,,,,10,,80,48
16079,note_on,,59,0,7,,,,,,,,,,,,,,,,10,,80,0
16080,note_on,,1,0,7,,,,,,,,,,,,,,,,10,,78,48
16094,note_on,,14,0,7,,,,,,,,,,,,,,,,10,,78,0
16095,note_on,,1,0,7,,,,,,,,,,,,,,,,10,,80,48
16109,note_on,,14,0,7,,,,,,,,,,,,,,,,10,,80,0
16110,note_on,,1,0,7,,,,,,,,,,,,,,,,10,,76,48
16124,note_on,,14,0,7,,,,,,,,,,,,,,,,10,,76,0
16125,note_on,,1,0,7,,,,,,,,,,,,,,,,10,,78,48
16139,note_on,,14,0,7,,,,,,,,,,,,,,,,10,,78,0
16140,note_on,,1,0,7,,,,,,,,,,,,,,,,10,,76,48
16199,note_on,,59,0,7,,,,,,,,,,,,,,,,10,,76,0
16200,note_on,,1,0,7,,,,,,,,,,,,,,,,10,,71,48
16380,note_on,,0,0,9,,,,,,,,,,,,,,,,15,,64,48
16380,note_on,,1021,0,8,,,,,,,,,,,,,,,,13,,56,48
16380,note_on,,0,0,9,,,,,,,,,,,,,,,,15,,59,48
16380,note_on,,1021,0,9,,,,,,,,,,,,,,,,15,,56,48
16439,note_on,,59,0,9,,,,,,,,,,,,,,,,15,,56,0
16439,note_on,,0,0,9,,,,,,,,,,,,,,,,15,,64,0
16439,note_on,,0,0,9,,,,,,,,,,,,,,,,15,,59,0
16439,note_on,,59,0,8,,,,,,,,,,,,,,,,13,,56,0
16440,note_on,,1,0,9,,,,,,,,,,,,,,,,15,,54,48
16440,note_on,,0,0,9,,,,,,,,,,,,,,,,15,,57,48
16440,note_on,,0,0,9,,,,,,,,,,,,,,,,15,,63,48
16440,note_on,,1,0,8,,,,,,,,,,,,,,,,13,,54,48
16499,note_on,,0,0,9,,,,,,,,,,,,,,,,15,,63,0
16499,note_on,,0,0,9,,,,,,,,,,,,,,,,15,,57,0
16499,note_on,,59,0,9,,,,,,,,,,,,,,,,15,,54,0
16499,note_on,,59,0,8,,,,,,,,,,,,,,,,13,,54,0
16500,note_on,,1,0,8,,,,,,,,,,,,,,,,13,,52,48
16500,note_on,,1,0,9,,,,,,,,,,,,,,,,15,,52,48
16500,note_on,,0,0,9,,,,,,,,,,,,,,,,15,,61,48
16500,note_on,,0,0,9,,,,,,,,,,,,,,,,15,,56,48
16559,note_on,,59,0,8,,,,,,,,,,,,,,,,13,,52,0
16559,note_on,,0,0,9,,,,,,,,,,,,,,,,15,,56,0
16559,note_on,,0,0,9,,,,,,,,,,,,,,,,15,,61,0
16559,note_on,,59,0,9,,,,,,,,,,,,,,,,15,,52,0
16560,note_on,,1,0,8,,,,,,,,,,,,,,,,13,,47,48
16560,note_on,,1,0,9,,,,,,,,,,,,,,,,15,,47,48
16560,note_on,,0,0,9,,,,,,,,,,,,,,,,15,,63,48
16560,note_on,,0,0,9,,,,,,,,,,,,,,,,15,,59,48
16560,note_on,,0,0,9,,,,,,,,,,,,,,,,15,,54,48
16799,note_on,,959,0,6,,,,,,,,,,,,,,,,5,,71,0
16799,note_on,,599,0,7,,,,,,,,,,,,,,,,10,,71,0
16799,note_on,,0,0,9,,,,,,,,,,,,,,,,15,,54,0
16799,note_on,,0,0,9,,,,,,,,,,,,,,,,15,,63,0
16799,note_on,,239,0,9,,,,,,,,,,,,,,,,15,,47,0
16799,note_on,,239,0,8,,,,,,,,,,,,,,,,13,,47,0
16799,note_on,,0,0,9,,,,,,,,,,,,,,,,15,,59,0
16800,note_on,,1,0,6,,,,,,,,,,,,,,,,5,,73,64
16800,note_on,,1,0,7,,,,,,,,,,,,,,,,10,,73,48
16889,note_on,,89,0,7,,,,,,,,,,,,,,,,10,,73,0
16889,note_on,,89,0,6,,,,,,,,,,,,,,,,5,,73,0
16890,note_on,,1,0,7,,,,,,,,,,,,,,,,10,,71,48
16890,note_on,,1,0,6,,,,,,,,,,,,,,,,5,,71,64
16919,note_on,,29,0,6,,,,,,,,,,,,,,,,5,,71,0
16919,note_on,,29,0,7,,,,,,,,,,,,,,,,10,,71,0
16920,note_on,,1,0,7,,,,,,,,,,,,,,,,10,,73,48
16920,note_on,,1,0,6,,,,,,,,,,,,,,,,5,,73,64
17100,note_on,,301,0,8,,,,,,,,,,,,,,,,13,,61,48
17100,note_on,,0,0,9,,,,,,,,,,,,,,,,15,,69,48
17100,note_on,,301,0,9,,,,,,,,,,,,,,,,15,,61,48
17100,note_on,,0,0,9,,,,,,,,,,,,,,,,15,,64,48
17159,note_on,,59,0,8,,,,,,,,,,,,,,,,13,,61,0
17159,note_on,,0,0,9,,,,,,,,,,,,,,,,15,,64,0
17159,note_on,,59,0,9,,,,,,,,,,,,,,,,15,,61,0
17159,note_on,,0,0,9,,,,,,,,,,,,,,,,15,,69,0
17160,note_on,,1,0,9,,,,,,,,,,,,,,,,15,,59,48
17160,note_on,,0,0,9,,,,,,,,,,,,,,,,15,,68,48
17160,note_on,,0,0,9,,,,,,,,,,,,,,,,15,,63,48
17160,note_on,,1,0,8,,,,,,,,,,,,,,,,13,,59,48
17219,note_on,,59,0,9,,,,,,,,,,,,,,,,15,,59,0
17219,note_on,,299,0,7,,,,,,,,,,,,,,,,10,,73,0
17219,note_on,,0,0,9,,,,,,,,,,,,,,,,15,,63,0
17219,note_on,,299,0,6,,,,,,,,,,,,,,,,5,,73,0
17219,note_on,,59,0,8,,,,,,,,,,,,,,,,13,,59,0
17219,note_on,,0,0,9,,,,,,,,,,,,,,,,15,,68,0
17220,note_on,,1,0,7,,,,,,,,,,,,,,,,10,,75,48
17220,note_on,,0,0,9,,,,,,,,,,,,,,,,15,,66,48
17220,note_on,,1,0,9,,,,,,,,,,,,,,,,15,,57,48
17220,note_on,,0,0,9,,,,,,,,,,,,,,,,15,,61,48
17220,note_on,,1,0,6,,,,,,,,,,,,,,,,5,,75,64
17220,note_on,,1,0,8,,,,,,,,,,,,,,,,13,,57,48
17279,note_on,,59,0,7,,,,,,,,,,,,,,,,10,,75,0
17279,note_on,,59,0,6,,,,,,,,,,,,,,,,5,,75,0
17279,note_on,,0,0,9,,,,,,,,,,,,,,,,15,,66,0
17279,note_on,,59,0,9,,,,,,,,,,,,,,,,15,,57,0
17279,note_on,,0,0,9,,,,,,,,,,,,,,,,15,,61,0
17279,note_on,,59,0,8,,,,,,,,,,,,,,,,13,,57,0
17280,note_on,,1,0,6,,,,,,,,,,,,,,,,5,,76,64
17280,note_on,,1,0,9,,,,,,,,,,,,,,,,15,,56,48
17280,note_on,,0,0,9,,,,,,,,,,,,,,,,15,,71,48
17280,note_on,,0,0,9,,,,,,,,,,,,,,,,15,,64,48
17280,note_on,,1,0,7,,,,,,,,,,,,,,,,10,,76,48
17280,note_on,,0,0,9,,,,,,,,,,,,,,,,15,,59,48
17280,note_on,,1,0,8,,,,,,,,,,,,,,,,13,,56,48
17399,note_on,,0,0,9,,,,,,,,,,,,,,,,15,,64,0
17399,note_on,,119,0,9,,,,,,,,,,,,,,,,15,,56,0
17399,note_on,,0,0,9,,,,,,,,,,,,,,,,15,,71,0
17399,note_on,,0,0,9,,,,,,,,,,,,,,,,15,,59,0
17399,note_on,,119,0,8,,,,,,,,,,,,,,,,13,,56,0
17459,note_on,,179,0,6,,,,,,,,,,,,,,,,5,,76,0
17459,note_on,,179,0,7,,,,,,,,,,,,,,,,10,,76,0
17460,note_on,,1,0,7,,,,,,,,,,,,,,,,10,,64,48
17460,note_on,,1,0,6,,,,,,,,,,,,,,,,5,,64,64
17519,note_on,,59,0,7,,,,,,,,,,,,,,,,10,,64,0
17519,note_on,,59,0,6,,,,,,,,,,,,,,,,5,,64,0
17520,note_on,,1,0,7,,,,,,,,,,,,,,,,10,,66,48
17520,note_on,,1,0,6,,,,,,,,,,,,,,,,5,,66,64
17579,note_on,,59,0,6,,,,,,,,,,,,,,,,5,,66,0
17579,note_on,,59,0,7,,,,,,,,,,,,,,,,10,,66,0
17580,note_on,,1,0,7,,,,,,,,,,,,,,,,10,,68,48
17580,note_on,,1,0,6,,,,,,,,,,,,,,,,5,,68,64
17639,note_on,,59,0,6,,,,,,,,,,,,,,,,5,,68,0
17639,note_on,,59,0,7,,,,,,,,,,,,,,,,10,,68,0
17640,note_on,,1,0,6,,,,,,,,,,,,,,,,5,,69,64
17640,note_on,,1,0,7,,,,,,,,,,,,,,,,10,,69,48
17819,note_on,,179,0,7,,,,,,,,,,,,,,,,10,,69,0
17820,note_on,,0,0,9,,,,,,,,,,,,,,,,15,,64,48
17820,note_on,,1,0,7,,,,,,,,,,,,,,,,10,,64,48
17820,note_on,,421,0,9,,,,,,,,,,,,,,,,15,,56,48
17820,note_on,,421,0,8,,,,,,,,,,,,,,,,13,,56,48
17879,note_on,,59,0,8,,,,,,,,,,,,,,,,13,,56,0
17879,note_on,,59,0,7,,,,,,,,,,,,,,,,10,,64,0
17879,note_on,,59,0,9,,,,,,,,,,,,,,,,15,,56,0
17880,note_on,,1,0,7,,,,,,,,,,,,,,,,10,,63,48
17880,note_on,,1,0,8,,,,,,,,,,,,,,,,13,,54,48
17880,note_on,,0,0,9,,,,,,,,,,,,,,,,15,,63,48
17880,note_on,,1,0,9,,,,,,,,,,,,,,,,15,,54,48
17939,note_on,,59,0,8,,,,,,,,,,,,,,,,13,,54,0
17939,note_on,,59,0,7,,,,,,,,,,,,,,,,10,,63,0
17939,note_on,,59,0,9,,,,,,,,,,,,,,,,15,,54,0
17939,note_on,,0,0,9,,,,,,,,,,,,,,,,15,,63,0
17940,note_on,,1,0,7,,,,,,,,,,,,,,,,10,,61,48
17940,note_on,,1,0,9,,,,,,,,,,,,,,,,15,,52,48
17940,note_on,,0,0,9,,,,,,,,,,,,,,,,15,,61,48
17940,note_on,,1,0,8,,,,,,,,,,,,,,,,13,,52,48
17999,note_on,,59,0,9,,,,,,,,,,,,,,,,15,,64,0
17999,note_on,,0,0,9,,,,,,,,,,,,,,,,15,,52,0
17999,note_on,,0,0,9,,,,,,,,,,,,,,,,15,,61,0
17999,note_on,,59,0,7,,,,,,,,,,,,,,,,10,,61,0
17999,note_on,,59,0,8,,,,,,,,,,,,,,,,13,,52,0
18000,note_on,,1,0,9,,,,,,,,,,,,,,,,15,,51,48
18000,note_on,,0,0,9,,,,,,,,,,,,,,,,15,,66,48
18000,note_on,,0,0,9,,,,,,,,,,,,,,,,15,,59,48
18000,note_on,,1,0,8,,,,,,,,,,,,,,,,13,,51,48
18000,note_on,,1,0,7,,,,,,,,,,,,,,,,10,,59,48
18179,note_on,,539,0,6,,,,,,,,,,,,,,,,5,,69,0
18180,note_on,,1,0,6,,,,,,,,,,,,,,,,5,,71,64
18239,note_on,,239,0,7,,,,,,,,,,,,,,,,10,,59,0
18239,note_on,,239,0,8,,,,,,,,,,,,,,,,13,,51,0
18239,note_on,,59,0,6,,,,,,,,,,,,,,,,5,,71,0
18239,note_on,,239,0,9,,,,,,,,,,,,,,,,15,,51,0
18239,note_on,,0,0,9,,,,,,,,,,,,,,,,15,,66,0
18239,note_on,,0,0,9,,,,,,,,,,,,,,,,15,,59,0
18240,note_on,,1,0,6,,,,,,,,,,,,,,,,5,,68,64
18240,note_on,,0,0,9,,,,,,,,,,,,,,,,15,,68,48
18240,note_on,,1,0,9,,,,,,,,,,,,,,,,15,,52,48
18240,note_on,,0,0,9,,,,,,,,,,,,,,,,15,,59,48
18240,note_on,,0,0,9,,,,,,,,,,,,,,,,15,,64,48
18240,note_on,,1,0,8,,,,,,,,,,,,,,,,13,,52,48
18299,note_on,,59,0,6,,,,,,,,,,,,,,,,5,,68,0
18300,note_on,,1,0,6,,,,,,,,,,,,,,,,5,,66,64
18359,note_on,,0,0,9,,,,,,,,,,,,,,,,15,,59,0
18359,note_on,,0,0,9,,,,,,,,,,,,,,,,15,,68,0
18359,note_on,,119,0,9,,,,,,,,,,,,,,,,15,,52,0
18359,note_on,,119,0,8,,,,,,,,,,,,,,,,13,,52,0
18359,note_on,,0,0,9,,,,,,,,,,,,,,,,15,,64,0
18359,note_on,,59,0,6,,,,,,,,,,,,,,,,5,,66,0
18360,note_on,,1,0,9,,,,,,,,,,,,,,,,15,,45,48
18360,note_on,,0,0,9,,,,,,,,,,,,,,,,15,,73,48
18360,note_on,,1,0,8,,,,,,,,,,,,,,,,13,,45,48
18360,note_on,,1,0,6,,,,,,,,,,,,,,,,5,,68,64
18360,note_on,,0,0,9,,,,,,,,,,,,,,,,15,,64,48
18419,note_on,,59,0,6,,,,,,,,,,,,,,,,5,,68,0
18420,note_on,,1,0,6,,,,,,,,,,,,,,,,5,,69,64
18464,note_on,,44,0,6,,,,,,,,,,,,,,,,5,,69,0
18465,note_on,,1,0,6,,,,,,,,,,,,,,,,5,,68,64
18479,note_on,,14,0,6,,,,,,,,,,,,,,,,5,,68,0
18479,note_on,,119,0,8,,,,,,,,,,,,,,,,13,,45,0
18479,note_on,,0,0,9,,,,,,,,,,,,,,,,15,,64,0
18479,note_on,,0,0,9,,,,,,,,,,,,,,,,15,,73,0
18479,note_on,,119,0,9,,,,,,,,,,,,,,,,15,,45,0
18480,note_on,,1,0,6,,,,,,,,,,,,,,,,5,,66,64
18480,note_on,,1,0,8,,,,,,,,,,,,,,,,13,,47,48
18480,note_on,,0,0,9,,,,,,,,,,,,,,,,15,,66,48
18480,note_on,,0,0,9,,,,,,,,,,,,,,,,15,,64,48
18480,note_on,,1,0,9,,,,,,,,,,,,,,,,15,,47,48
18599,note_on,,0,0,9,,,,,,,,,,,,,,,,15,,64,0
18599,note_on,,119,0,9,,,,,,,,,,,,,,,,15,,47,0
18599,note_on,,119,0,8,,,,,,,,,,,,,,,,13,,47,0
18600,note_on,,1,0,9,,,,,,,,,,,,,,,,15,,47,48
18600,note_on,,0,0,9,,,,,,,,,,,,,,,,15,,71,48
18600,note_on,,0,0,9,,,,,,,,,,,,,,,,15,,63,48
18600,note_on,,1,0,8,,,,,,,,,,,,,,,,13,,47,48
18659,note_on,,179,0,6,,,,,,,,,,,,,,,,5,,66,0
18660,note_on,,1,0,6,,,,,,,,,,,,,,,,5,,64,64
18719,note_on,,119,0,9,,,,,,,,,,,,,,,,15,,66,0
18719,note_on,,119,0,8,,,,,,,,,,,,,,,,13,,47,0
18719,note_on,,0,0,9,,,,,,,,,,,,,,,,15,,47,0
18719,note_on,,0,0,9,,,,,,,,,,,,,,,,15,,63,0
18719,note_on,,0,0,9,,,,,,,,,,,,,,,,15,,71,0
18719,note_on,,59,0,6,,,,,,,,,,,,,,,,5,,64,0
18720,note_on,,1,0,8,,,,,,,,,,,,,,,,13,,52,48
18720,note_on,,0,0,9,,,,,,,,,,,,,,,,15,,59,48
18720,note_on,,0,0,9,,,,,,,,,,,,,,,,15,,68,48
18720,note_on,,1,0,9,,,,,,,,,,,,,,,,15,,52,48
18720,note_on,,0,0,9,,,,,,,,,,,,,,,,15,,64,48
18720,note_on,,1,0,6,,,,,,,,,,,,,,,,5,,64,64
18900,note_on,,661,0,7,,,,,,,,,,,,,,,,10,,68,48
18959,note_on,,59,0,7,,,,,,,,,,,,,,,,10,,68,0
18959,note_on,,0,0,9,,,,,,,,,,,,,,,,15,,59,0
18959,note_on,,0,0,9,,,,,,,,,,,,,,,,15,,64,0
18959,note_on,,239,0,6,,,,,,,,,,,,,,,,5,,64,0
18959,note_on,,239,0,8,,,,,,,,,,,,,,,,13,,52,0
18959,note_on,,239,0,9,,,,,,,,,,,,,,,,15,,52,0
18959,note_on,,0,0,9,,,,,,,,,,,,,,,,15,,68,0
18960,note_on,,1,0,7,,,,,,,,,,,,,,,,10,,66,48
18960,note_on,,1,0,6,,,,,,,,,,,,,,,,5,,71,64
19019,note_on,,59,0,7,,,,,,,,,,,,,,,,10,,66,0
19020,note_on,,1,0,7,,,,,,,,,,,,,,,,10,,64,48
19079,note_on,,59,0,7,,,,,,,,,,,,,,,,10,,64,0
19079,note_on,,119,0,6,,,,,,,,,,,,,,,,5,,71,0
19080,note_on,,1,0,7,,,,,,,,,,,,,,,,10,,59,48
19080,note_on,,1,0,6,,,,,,,,,,,,,,,,5,,71,64
19260,note_on,,0,0,9,,,,,,,,,,,,,,,,15,,59,48
19260,note_on,,301,0,9,,,,,,,,,,,,,,,,15,,56,48
19260,note_on,,301,0,8,,,,,,,,,,,,,,,,13,,56,48
19260,note_on,,0,0,9,,,,,,,,,,,,,,,,15,,64,48
19319,note_on,,59,0,8,,,,,,,,,,,,,,,,13,,56,0
19319,note_on,,59,0,9,,,,,,,,,,,,,,,,15,,56,0
19319,note_on,,239,0,7,,,,,,,,,,,,,,,,10,,59,0
19319,note_on,,0,0,9,,,,,,,,,,,,,,,,15,,64,0
19319,note_on,,0,0,9,,,,,,,,,,,,,,,,15,,59,0
19320,note_on,,1,0,9,,,,,,,,,,,,,,,,15,,54,48
19320,note_on,,0,0,9,,,,,,,,,,,,,,,,15,,57,48
19320,note_on,,1,0,8,,,,,,,,,,,,,,,,13,,54,48
19320,note_on,,0,0,9,,,,,,,,,,,,,,,,15,,63,48
19379,note_on,,0,0,9,,,,,,,,,,,,,,,,15,,63,0
19379,note_on,,59,0,9,,,,,,,,,,,,,,,,15,,54,0
19379,note_on,,0,0,9,,,,,,,,,,,,,,,,15,,57,0
19379,note_on,,59,0,8,,,,,,,,,,,,,,,,13,,54,0
19380,note_on,,1,0,8,,,,,,,,,,,,,,,,13,,52,48
19380,note_on,,1,0,9,,,,,,,,,,,,,,,,15,,52,48
19380,note_on,,0,0,9,,,,,,,,,,,,,,,,15,,61,48
19380,note_on,,0,0,9,,,,,,,,,,,,,,,,15,,56,48
19439,note_on,,59,0,8,,,,,,,,,,,,,,,,13,,52,0
19439,note_on,,0,0,9,,,,,,,,,,,,,,,,15,,61,0
19439,note_on,,0,0,9,,,,,,,,,,,,,,,,15,,56,0
19439,note_on,,59,0,9,,,,,,,,,,,,,,,,15,,52,0
19440,note_on,,0,0,9,,,,,,,,,,,,,,,,15,,63,48
19440,note_on,,0,0,9,,,,,,,,,,,,,,,,15,,54,48
19440,note_on,,0,0,9,,,,,,,,,,,,,,,,15,,59,48
19440,note_on,,1,0,9,,,,,,,,,,,,,,,,15,,47,48
19440,note_on,,1,0,8,,,,,,,,,,,,,,,,13,,47,48
19619,note_on,,539,0,6,,,,,,,,,,,,,,,,5,,71,0
19620,note_on,,301,0,7,,,,,,,,,,,,,,,,10,,68,48
19620,note_on,,1,0,6,,,,,,,,,,,,,,,,5,,68,64
19679,note_on,,0,0,9,,,,,,,,,,,,,,,,15,,59,0
19679,note_on,,0,0,9,,,,,,,,,,,,,,,,15,,63,0
19679,note_on,,239,0,9,,,,,,,,,,,,,,,,15,,47,0
19679,note_on,,59,0,7,,,,,,,,,,,,,,,,10,,68,0
19679,note_on,,59,0,6,,,,,,,,,,,,,,,,5,,68,0
19679,note_on,,0,0,9,,,,,,,,,,,,,,,,15,,54,0
19679,note_on,,239,0,8,,,,,,,,,,,,,,,,13,,47,0
19680,note_on,,1,0,7,,,,,,,,,,,,,,,,10,,66,48
19680,note_on,,1,0,6,,,,,,,,,,,,,,,,5,,66,64
19739,note_on,,59,0,6,,,,,,,,,,,,,,,,5,,66,0
19739,note_on,,59,0,7,,,,,,,,,,,,,,,,10,,66,0
19740,note_on,,1,0,6,,,,,,,,,,,,,,,,5,,64,64
19740,note_on,,1,0,7,,,,,,,,,,,,,,,,10,,64,48
19799,note_on,,59,0,6,,,,,,,,,,,,,,,,5,,64,0
19799,note_on,,59,0,7,,,,,,,,,,,,,,,,10,,64,0
19800,note_on,,1,0,6,,,,,,,,,,,,,,,,5,,76,64
19800,note_on,,1,0,7,,,,,,,,,,,,,,,,10,,76,48
19980,note_on,,0,0,9,,,,,,,,,,,,,,,,15,,64,48
19980,note_on,,0,0,9,,,,,,,,,,,,,,,,15,,69,48
19980,note_on,,301,0,8,,,,,,,,,,,,,,,,13,,61,48
19980,note_on,,301,0,9,,,,,,,,,,,,,,,,15,,61,48
20039,note_on,,59,0,8,,,,,,,,,,,,,,,,13,,61,0
20039,note_on,,0,0,9,,,,,,,,,,,,,,,,15,,69,0
20039,note_on,,0,0,9,,,,,,,,,,,,,,,,15,,64,0
20039,note_on,,59,0,9,,,,,,,,,,,,,,,,15,,61,0
20040,note_on,,1,0,9,,,,,,,,,,,,,,,,15,,59,48
20040,note_on,,1,0,8,,,,,,,,,,,,,,,,13,,59,48
20040,note_on,,0,0,9,,,,,,,,,,,,,,,,15,,68,48
20040,note_on,,0,0,9,,,,,,,,,,,,,,,,15,,63,48
20099,note_on,,0,0,9,,,,,,,,,,,,,,,,15,,68,0
20099,note_on,,0,0,9,,,,,,,,,,,,,,,,15,,63,0
20099,note_on,,299,0,7,,,,,,,,,,,,,,,,10,,76,0
20099,note_on,,59,0,8,,,,,,,,,,,,,,,,13,,59,0
20099,note_on,,59,0,9,,,,,,,,,,,,,,,,15,,59,0
20099,note_on,,299,0,6,,,,,,,,,,,,,,,,5,,76,0
20100,note_on,,1,0,9,,,,,,,,,,,,,,,,15,,66,48
20100,note_on,,0,0,9,,,,,,,,,,,,,,,,15,,57,48
20100,note_on,,1,0,6,,,,,,,,,,,,,,,,5,,76,64
20100,note_on,,0,0,9,,,,,,,,,,,,,,,,15,,61,48
20100,note_on,,1,0,7,,,,,,,,,,,,,,,,10,,76,48
20100,note_on,,1,0,8,,,,,,,,,,,,,,,,13,,57,48
20159,note_on,,59,0,6,,,,,,,,,,,,,,,,5,,76,0
20159,note_on,,0,0,9,,,,,,,,,,,,,,,,15,,61,0
20159,note_on,,0,0,9,,,,,,,,,,,,,,,,15,,57,0
20159,note_on,,59,0,9,,,,,,,,,,,,,,,,15,,66,0
20159,note_on,,59,0,8,,,,,,,,,,,,,,,,13,,57,0
20159,note_on,,59,0,7,,,,,,,,,,,,,,,,10,,76,0
20160,note_on,,1,0,6,,,,,,,,,,,,,,,,5,,76,64
20160,note_on,,1,0,8,,,,,,,,,,,,,,,,13,,56,48
20160,note_on,,0,0,9,,,,,,,,,,,,,,,,15,,59,48
20160,note_on,,1,0,7,,,,,,,,,,,,,,,,10,,76,48
20160,note_on,,0,0,9,,,,,,,,,,,,,,,,15,,71,48
20160,note_on,,1,0,9,,,,,,,,,,,,,,,,15,,56,48
20160,note_on,,0,0,9,,,,,,,,,,,,,,,,15,,64,48
20249,note_on,,89,0,7,,,,,,,,,,,,,,,,10,,76,0
20249,note_on,,89,0,6,,,,,,,,,,,,,,,,5,,76,0
20250,note_on,,1,0,6,,,,,,,,,,,,,,,,5,,78,64
20250,note_on,,1,0,7,,,,,,,,,,,,,,,,10,,78,48
20279,note_on,,29,0,6,,,,,,,,,,,,,,,,5,,78,0
20279,note_on,,29,0,7,,,,,,,,,,,,,,,,10,,78,0
20280,note_on,,1,0,6,,,,,,,,,,,,,,,,5,,80,64
20280,note_on,,1,0,7,,,,,,,,,,,,,,,,10,,80,48
20339,note_on,,59,0,7,,,,,,,,,,,,,,,,10,,80,0
20339,note_on,,59,0,6,,,,,,,,,,,,,,,,5,,80,0
20340,note_on,,1,0,7,,,,,,,,,,,,,,,,10,,76,48
20340,note_on,,1,0,6,,,,,,,,,,,,,,,,5,,76,64
20399,note_on,,239,0,8,,,,,,,,,,,,,,,,13,,56,0
20399,note_on,,0,0,9,,,,,,,,,,,,,,,,15,,59,0
20399,note_on,,0,0,9,,,,,,,,,,,,,,,,15,,64,0
20399,note_on,,0,0,9,,,,,,,,,,,,,,,,15,,71,0
20399,note_on,,239,0,9,,,,,,,,,,,,,,,,15,,56,0
20399,note_on,,59,0,7,,,,,,,,,,,,,,,,10,,76,0
20399,note_on,,59,0,6,,,,,,,,,,,,,,,,5,,76,0
20400,note_on,,1,0,7,,,,,,,,,,,,,,,,10,,75,48
20400,note_on,,1,0,6,,,,,,,,,,,,,,,,5,,75,64
20459,note_on,,59,0,6,,,,,,,,,,,,,,,,5,,75,0
20459,note_on,,59,0,7,,,,,,,,,,,,,,,,10,,75,0
20460,note_on,,1,0,6,,,,,,,,,,,,,,,,5,,73,64
20460,note_on,,1,0,7,,,,,,,,,,,,,,,,10,,73,48
20519,note_on,,59,0,7,,,,,,,,,,,,,,,,10,,73,0
20519,note_on,,59,0,6,,,,,,,,,,,,,,,,5,,73,0
20520,note_on,,1,0,6,,,,,,,,,,,,,,,,5,,71,64
20520,note_on,,1,0,7,,,,,,,,,,,,,,,,10,,71,48
20700,note_on,,301,0,8,,,,,,,,,,,,,,,,13,,56,48
20700,note_on,,301,0,9,,,,,,,,,,,,,,,,15,,56,48
20700,note_on,,0,0,9,,,,,,,,,,,,,,,,15,,64,48
20700,note_on,,0,0,9,,,,,,,,,,,,,,,,15,,59,48
20759,note_on,,59,0,9,,,,,,,,,,,,,,,,15,,56,0
20759,note_on,,0,0,9,,,,,,,,,,,,,,,,15,,59,0
20759,note_on,,59,0,8,,,,,,,,,,,,,,,,13,,56,0
20759,note_on,,0,0,9,,,,,,,,,,,,,,,,15,,64,0
20760,note_on,,1,0,9,,,,,,,,,,,,,,,,15,,54,48
20760,note_on,,0,0,9,,,,,,,,,,,,,,,,15,,63,48
20760,note_on,,0,0,9,,,,,,,,,,,,,,,,15,,57,48
20760,note_on,,1,0,8,,,,,,,,,,,,,,,,13,,54,48
20819,note_on,,0,0,9,,,,,,,,,,,,,,,,15,,57,0
20819,note_on,,59,0,8,,,,,,,,,,,,,,,,13,,54,0
20819,note_on,,59,0,9,,,,,,,,,,,,,,,,15,,54,0
20819,note_on,,0,0,9,,,,,,,,,,,,,,,,15,,63,0
20820,note_on,,1,0,8,,,,,,,,,,,,,,,,13,,52,48
20820,note_on,,0,0,9,,,,,,,,,,,,,,,,15,,56,48
20820,note_on,,0,0,9,,,,,,,,,,,,,,,,15,,61,48
20820,note_on,,1,0,9,,,,,,,,,,,,,,,,15,,52,48
20879,note_on,,59,0,9,,,,,,,,,,,,,,,,15,,52,0
20879,note_on,,0,0,9,,,,,,,,,,,,,,,,15,,61,0
20879,note_on,,0,0,9,,,,,,,,,,,,,,,,15,,56,0
20879,note_on,,59,0,8,,,,,,,,,,,,,,,,13,,52,0
20880,note_on,,1,0,8,,,,,,,,,,,,,,,,13,,51,48
20880,note_on,,1,0,9,,,,,,,,,,,,,,,,15,,51,48
20880,note_on,,0,0,9,,,,,,,,,,,,,,,,15,,59,48
20880,note_on,,0,0,9,,,,,,,,,,,,,,,,15,,54,48
21059,note_on,,539,0,7,,,,,,,,,,,,,,,,10,,71,0
21059,note_on,,539,0,6,,,,,,,,,,,,,,,,5,,71,0
21060,note_on,,1,0,7,,,,,,,,,,,,,,,,10,,73,48
21060,note_on,,1,0,6,,,,,,,,,,,,,,,,5,,73,64
21119,note_on,,0,0,9,,,,,,,,,,,,,,,,15,,59,0
21119,note_on,,0,0,9,,,,,,,,,,,,,,,,15,,54,0
21119,note_on,,59,0,6,,,,,,,,,,,,,,,,5,,73,0
21119,note_on,,239,0,9,,,,,,,,,,,,,,,,15,,51,0
21119,note_on,,59,0,7,,,,,,,,,,,,,,,,10,,73,0
21119,note_on,,239,0,8,,,,,,,,,,,,,,,,13,,51,0
21120,note_on,,1,0,7,,,,,,,,,,,,,,,,10,,69,48
21120,note_on,,1,0,6,,,,,,,,,,,,,,,,5,,69,64
21179,note_on,,59,0,6,,,,,,,,,,,,,,,,5,,69,0
21179,note_on,,59,0,7,,,,,,,,,,,,,,,,10,,69,0
21180,note_on,,1,0,7,,,,,,,,,,,,,,,,10,,68,48
21180,note_on,,1,0,6,,,,,,,,,,,,,,,,5,,68,64
21239,note_on,,59,0,7,,,,,,,,,,,,,,,,10,,68,0
21239,note_on,,59,0,6,,,,,,,,,,,,,,,,5,,68,0
21240,note_on,,1,0,7,,,,,,,,,,,,,,,,10,,69,48
21240,note_on,,1,0,6,,,,,,,,,,,,,,,,5,,69,64
21419,note_on,,179,0,7,,,,,,,,,,,,,,,,10,,69,0
21420,note_on,,1,0,7,,,,,,,,,,,,,,,,10,,68,48
21420,note_on,,301,0,9,,,,,,,,,,,,,,,,15,,52,48
21420,note_on,,301,0,8,,,,,,,,,,,,,,,,13,,52,48
21420,note_on,,0,0,9,,,,,,,,,,,,,,,,15,,68,48
21420,note_on,,0,0,9,,,,,,,,,,,,,,,,15,,59,48
21479,note_on,,0,0,9,,,,,,,,,,,,,,,,15,,68,0
21479,note_on,,59,0,8,,,,,,,,,,,,,,,,13,,52,0
21479,note_on,,59,0,9,,,,,,,,,,,,,,,,15,,52,0
21479,note_on,,59,0,7,,,,,,,,,,,,,,,,10,,68,0
21480,note_on,,1,0,8,,,,,,,,,,,,,,,,13,,51,48
21480,note_on,,1,0,7,,,,,,,,,,,,,,,,10,,66,48
21480,note_on,,1,0,9,,,,,,,,,,,,,,,,15,,51,48
21480,note_on,,0,0,9,,,,,,,,,,,,,,,,15,,66,48
21539,note_on,,0,0,9,,,,,,,,,,,,,,,,15,,66,0
21539,note_on,,59,0,8,,,,,,,,,,,,,,,,13,,51,0
21539,note_on,,59,0,7,,,,,,,,,,,,,,,,10,,66,0
21539,note_on,,59,0,9,,,,,,,,,,,,,,,,15,,59,0
21539,note_on,,0,0,9,,,,,,,,,,,,,,,,15,,51,0
21540,note_on,,0,0,9,,,,,,,,,,,,,,,,15,,64,48
21540,note_on,,0,0,9,,,,,,,,,,,,,,,,15,,61,48
21540,note_on,,1,0,8,,,,,,,,,,,,,,,,13,,49,48
21540,note_on,,1,0,7,,,,,,,,,,,,,,,,10,,64,48
21540,note_on,,1,0,9,,,,,,,,,,,,,,,,15,,49,48
21599,note_on,,59,0,9,,,,,,,,,,,,,,,,15,,49,0
21599,note_on,,0,0,9,,,,,,,,,,,,,,,,15,,64,0
21599,note_on,,0,0,9,,,,,,,,,,,,,,,,15,,61,0
21599,note_on,,59,0,7,,,,,,,,,,,,,,,,10,,64,0
21599,note_on,,59,0,8,,,,,,,,,,,,,,,,13,,49,0
21600,note_on,,0,0,9,,,,,,,,,,,,,,,,15,,63,48
21600,note_on,,0,0,9,,,,,,,,,,,,,,,,15,,54,48
21600,note_on,,1,0,8,,,,,,,,,,,,,,,,13,,47,48
21600,note_on,,0,0,9,,,,,,,,,,,,,,,,15,,66,48
21600,note_on,,1,0,9,,,,,,,,,,,,,,,,15,,47,48
21600,note_on,,1,0,7,,,,,,,,,,,,,,,,10,,63,48
21719,note_on,,0,0,9,,,,,,,,,,,,,,,,15,,54,0
21719,note_on,,119,0,9,,,,,,,,,,,,,,,,15,,66,0
21719,note_on,,0,0,9,,,,,,,,,,,,,,,,15,,63,0
21720,note_on,,0,0,9,,,,,,,,,,,,,,,,15,,63,48
21720,note_on,,0,0,9,,,,,,,,,,,,,,,,15,,66,48
21720,note_on,,1,0,9,,,,,,,,,,,,,,,,15,,71,48
21779,note_on,,59,0,9,,,,,,,,,,,,,,,,15,,47,0
21779,note_on,,179,0,8,,,,,,,,,,,,,,,,13,,47,0
21779,note_on,,539,0,6,,,,,,,,,,,,,,,,5,,69,0
21779,note_on,,179,0,7,,,,,,,,,,,,,,,,10,,63,0
21780,note_on,,1,0,6,,,,,,,,,,,,,,,,5,,71,64
21780,note_on,,1,0,8,,,,,,,,,,,,,,,,13,,51,48
21780,note_on,,1,0,9,,,,,,,,,,,,,,,,15,,51,48
21780,note_on,,1,0,7,,,,,,,,,,,,,,,,10,,66,48
21839,note_on,,0,0,9,,,,,,,,,,,,,,,,15,,51,0
21839,note_on,,59,0,9,,,,,,,,,,,,,,,,15,,71,0
21839,note_on,,0,0,9,,,,,,,,,,,,,,,,15,,66,0
21839,note_on,,0,0,9,,,,,,,,,,,,,,,,15,,63,0
21839,note_on,,59,0,6,,,,,,,,,,,,,,,,5,,71,0
21839,note_on,,59,0,7,,,,,,,,,,,,,,,,10,,66,0
21839,note_on,,59,0,8,,,,,,,,,,,,,,,,13,,51,0
21840,note_on,,1,0,6,,,,,,,,,,,,,,,,5,,68,64
21840,note_on,,1,0,8,,,,,,,,,,,,,,,,13,,52,48
21840,note_on,,1,0,7,,,,,,,,,,,,,,,,10,,59,48
21840,note_on,,1,0,9,,,,,,,,,,,,,,,,15,,52,48
21840,note_on,,0,0,9,,,,,,,,,,,,,,,,15,,68,48
21840,note_on,,0,0,9,,,,,,,,,,,,,,,,15,,64,48
21840,note_on,,0,0,9,,,,,,,,,,,,,,,,15,,59,48
21899,note_on,,59,0,6,,,,,,,,,,,,,,,,5,,68,0
21900,note_on,,1,0,6,,,,,,,,,,,,,,,,5,,66,64
21959,note_on,,0,0,9,,,,,,,,,,,,,,,,15,,64,0
21959,note_on,,0,0,9,,,,,,,,,,,,,,,,15,,68,0
21959,note_on,,59,0,6,,,,,,,,,,,,,,,,5,,66,0
21959,note_on,,119,0,8,,,,,,,,,,,,,,,,13,,52,0
21959,note_on,,119,0,9,,,,,,,,,,,,,,,,15,,52,0
21959,note_on,,0,0,9,,,,,,,,,,,,,,,,15,,59,0
21959,note_on,,119,0,7,,,,,,,,,,,,,,,,10,,59,0
21960,note_on,,1,0,6,,,,,,,,,,,,,,,,5,,68,64
21960,note_on,,1,0,8,,,,,,,,,,,,,,,,13,,57,48
21960,note_on,,1,0,9,,,,,,,,,,,,,,,,15,,57,48
21960,note_on,,0,0,9,,,,,,,,,,,,,,,,15,,73,48
21960,note_on,,0,0,9,,,,,,,,,,,,,,,,15,,64,48
21960,note_on,,0,0,9,,,,,,,,,,,,,,,,15,,61,48
22019,note_on,,59,0,6,,,,,,,,,,,,,,,,5,,68,0
22020,note_on,,1,0,6,,,,,,,,,,,,,,,,5,,69,64
22079,note_on,,0,0,9,,,,,,,,,,,,,,,,15,,73,0
22079,note_on,,119,0,8,,,,,,,,,,,,,,,,13,,57,0
22079,note_on,,0,0,9,,,,,,,,,,,,,,,,15,,61,0
22079,note_on,,0,0,9,,,,,,,,,,,,,,,,15,,64,0
22079,note_on,,59,0,6,,,,,,,,,,,,,,,,5,,69,0
22079,note_on,,119,0,9,,,,,,,,,,,,,,,,15,,57,0
22080,note_on,,1,0,6,,,,,,,,,,,,,,,,5,,66,64
22080,note_on,,0,0,9,,,,,,,,,,,,,,,,15,,66,48
22080,note_on,,0,0,9,,,,,,,,,,,,,,,,15,,64,48
22080,note_on,,1,0,8,,,,,,,,,,,,,,,,13,,59,48
22080,note_on,,1,0,9,,,,,,,,,,,,,,,,15,,59,48
22199,note_on,,119,0,9,,,,,,,,,,,,,,,,15,,59,0
22199,note_on,,0,0,9,,,,,,,,,,,,,,,,15,,66,0
22199,note_on,,0,0,9,,,,,,,,,,,,,,,,15,,64,0
22199,note_on,,119,0,8,,,,,,,,,,,,,,,,13,,59,0
22200,note_on,,1,0,8,,,,,,,,,,,,,,,,13,,47,48
22200,note_on,,0,0,9,,,,,,,,,,,,,,,,15,,63,48
22200,note_on,,0,0,9,,,,,,,,,,,,,,,,15,,47,48
22200,note_on,,1,0,9,,,,,,,,,,,,,,,,15,,71,48
22200,note_on,,0,0,9,,,,,,,,,,,,,,,,15,,66,48
22259,note_on,,179,0,6,,,,,,,,,,,,,,,,5,,66,0
22260,note_on,,1,0,6,,,,,,,,,,,,,,,,5,,64,64
22319,note_on,,0,0,9,,,,,,,,,,,,,,,,15,,47,0
22319,note_on,,119,0,9,,,,,,,,,,,,,,,,15,,71,0
22319,note_on,,59,0,6,,,,,,,,,,,,,,,,5,,64,0
22319,note_on,,119,0,8,,,,,,,,,,,,,,,,13,,47,0
22319,note_on,,0,0,9,,,,,,,,,,,,,,,,15,,63,0
22319,note_on,,0,0,9,,,,,,,,,,,,,,,,15,,66,0
22320,note_on,,0,0,9,,,,,,,,,,,,,,,,15,,64,48
22320,note_on,,0,0,9,,,,,,,,,,,,,,,,15,,68,48
22320,note_on,,0,0,9,,,,,,,,,,,,,,,,15,,61,48
22320,note_on,,1,0,6,,,,,,,,,,,,,,,,5,,64,64
22320,note_on,,1,0,8,,,,,,,,,,,,,,,,13,,49,48
22320,note_on,,1,0,9,,,,,,,,,,,,,,,,15,,49,48
22439,note_on,,119,0,8,,,,,,,,,,,,,,,,13,,49,0
22439,note_on,,119,0,9,,,,,,,,,,,,,,,,15,,49,0
22439,note_on,,0,0,9,,,,,,,,,,,,,,,,15,,64,0
22440,note_on,,1,0,8,,,,,,,,,,,,,,,,13,,47,48
22440,note_on,,0,0,9,,,,,,,,,,,,,,,,15,,63,48
22440,note_on,,1,0,9,,,,,,,,,,,,,,,,15,,47,48
22499,note_on,,179,0,6,,,,,,,,,,,,,,,,5,,64,0
22500,note_on,,1,0,6,,,,,,,,,,,,,,,,5,,66,64
22559,note_on,,0,0,9,,,,,,,,,,,,,,,,15,,47,0
22559,note_on,,0,0,9,,,,,,,,,,,,,,,,15,,63,0
22559,note_on,,59,0,6,,,,,,,,,,,,,,,,5,,66,0
22559,note_on,,0,0,9,,,,,,,,,,,,,,,,15,,61,0
22559,note_on,,119,0,8,,,,,,,,,,,,,,,,13,,47,0
22559,note_on,,119,0,9,,,,,,,,,,,,,,,,15,,68,0
22560,note_on,,1,0,6,,,,,,,,,,,,,,,,5,,68,64
22560,note_on,,0,0,9,,,,,,,,,,,,,,,,15,,61,48
22560,note_on,,1,0,8,,,,,,,,,,,,,,,,13,,45,48
22560,note_on,,1,0,9,,,,,,,,,,,,,,,,15,,45,48
22560,note_on,,0,0,9,,,,,,,,,,,,,,,,15,,64,48
22619,note_on,,59,0,6,,,,,,,,,,,,,,,,5,,68,0
22619,note_on,,59,0,9,,,,,,,,,,,,,,,,15,,64,0
22620,note_on,,1,0,6,,,,,,,,,,,,,,,,5,,69,64
22620,note_on,,1,0,9,,,,,,,,,,,,,,,,15,,66,48
22679,note_on,,119,0,8,,,,,,,,,,,,,,,,13,,45,0
22679,note_on,,59,0,6,,,,,,,,,,,,,,,,5,,69,0
22679,note_on,,59,0,9,,,,,,,,,,,,,,,,15,,45,0
22679,note_on,,0,0,9,,,,,,,,,,,,,,,,15,,61,0
22679,note_on,,0,0,9,,,,,,,,,,,,,,,,15,,66,0
22680,note_on,,1,0,8,,,,,,,,,,,,,,,,13,,44,48
22680,note_on,,1,0,6,,,,,,,,,,,,,,,,5,,71,64
22680,note_on,,1,0,9,,,,,,,,,,,,,,,,15,,44,48
22680,note_on,,0,0,9,,,,,,,,,,,,,,,,15,,76,48
22680,note_on,,0,0,9,,,,,,,,,,,,,,,,15,,68,48
22680,note_on,,0,0,9,,,,,,,,,,,,,,,,15,,64,48
22680,note_on,,0,0,9,,,,,,,,,,,,,,,,15,,71,48
22799,note_on,,119,0,9,,,,,,,,,,,,,,,,15,,44,0
22799,note_on,,0,0,9,,,,,,,,,,,,,,,,15,,76,0
22799,note_on,,0,0,9,,,,,,,,,,,,,,,,15,,71,0
22799,note_on,,0,0,9,,,,,,,,,,,,,,,,15,,68,0
22799,note_on,,0,0,9,,,,,,,,,,,,,,,,15,,64,0
22799,note_on,,119,0,8,,,,,,,,,,,,,,,,13,,44,0
22859,note_on,,179,0,6,,,,,,,,,,,,,,,,5,,71,0
22860,note_on,,1,0,6,,,,,,,,,,,,,,,,5,,73,64
22889,note_on,,29,0,6,,,,,,,,,,,,,,,,5,,73,0
22890,note_on,,1,0,6,,,,,,,,,,,,,,,,5,,75,64
22919,note_on,,29,0,6,,,,,,,,,,,,,,,,5,,75,0
22920,note_on,,1,0,6,,,,,,,,,,,,,,,,5,,76,64
22979,note_on,,59,0,6,,,,,,,,,,,,,,,,5,,76,0
22980,note_on,,1,0,6,,,,,,,,,,,,,,,,5,,75,64
23009,note_on,,29,0,6,,,,,,,,,,,,,,,,5,,75,0
23010,note_on,,1,0,6,,,,,,,,,,,,,,,,5,,73,64
23039,note_on,,29,0,6,,,,,,,,,,,,,,,,5,,73,0
23040,note_on,,1,0,6,,,,,,,,,,,,,,,,5,,71,64
23099,note_on,,59,0,6,,,,,,,,,,,,,,,,5,,71,0
23100,note_on,,0,0,9,,,,,,,,,,,,,,,,15,,69,48
23100,note_on,,301,0,8,,,,,,,,,,,,,,,,13,,45,48
23100,note_on,,301,0,9,,,,,,,,,,,,,,,,15,,45,48
23100,note_on,,0,0,9,,,,,,,,,,,,,,,,15,,78,48
23100,note_on,,0,0,9,,,,,,,,,,,,,,,,15,,73,48
23100,note_on,,1,0,6,,,,,,,,,,,,,,,,5,,69,64
23159,note_on,,0,0,9,,,,,,,,,,,,,,,,15,,78,0
23159,note_on,,59,0,9,,,,,,,,,,,,,,,,15,,45,0
23159,note_on,,59,0,6,,,,,,,,,,,,,,,,5,,69,0
23159,note_on,,0,0,9,,,,,,,,,,,,,,,,15,,73,0
23159,note_on,,0,0,9,,,,,,,,,,,,,,,,15,,69,0
23159,note_on,,59,0,8,,,,,,,,,,,,,,,,13,,45,0
23160,note_on,,1,0,8,,,,,,,,,,,,,,,,13,,47,48
23160,note_on,,1,0,9,,,,,,,,,,,,,,,,15,,47,48
23160,note_on,,0,0,9,,,,,,,,,,,,,,,,15,,76,48
23160,note_on,,0,0,9,,,,,,,,,,,,,,,,15,,71,48
23160,note_on,,0,0,9,,,,,,,,,,,,,,,,15,,68,48
23160,note_on,,1,0,6,,,,,,,,,,,,,,,,5,,68,64
23279,note_on,,119,0,6,,,,,,,,,,,,,,,,5,,68,0
23279,note_on,,119,0,9,,,,,,,,,,,,,,,,15,,47,0
23279,note_on,,0,0,9,,,,,,,,,,,,,,,,15,,76,0
23279,note_on,,0,0,9,,,,,,,,,,,,,,,,15,,71,0
23279,note_on,,0,0,9,,,,,,,,,,,,,,,,15,,68,0
23279,note_on,,119,0,8,,,,,,,,,,,,,,,,13,,47,0
23280,note_on,,1,0,9,,,,,,,,,,,,,,,,15,,47,48
23280,note_on,,0,0,9,,,,,,,,,,,,,,,,15,,75,48
23280,note_on,,0,0,9,,,,,,,,,,,,,,,,15,,71,48
23280,note_on,,1,0,8,,,,,,,,,,,,,,,,13,,47,48
23280,note_on,,0,0,9,,,,,,,,,,,,,,,,15,,66,48
23280,note_on,,1,0,6,,,,,,,,,,,,,,,,5,,66,64
23294,note_on,,14,0,6,,,,,,,,,,,,,,,,5,,66,0
23295,note_on,,1,0,6,,,,,,,,,,,,,,,,5,,68,64
23309,note_on,,14,0,6,,,,,,,,,,,,,,,,5,,68,0
23310,note_on,,1,0,6,,,,,,,,,,,,,,,,5,,66,64
23324,note_on,,14,0,6,,,,,,,,,,,,,,,,5,,66,0
23325,note_on,,1,0,6,,,,,,,,,,,,,,,,5,,68,64
23339,note_on,,14,0,6,,,,,,,,,,,,,,,,5,,68,0
23340,note_on,,1,0,6,,,,,,,,,,,,,,,,5,,64,64
23354,note_on,,14,0,6,,,,,,,,,,,,,,,,5,,64,0
23355,note_on,,1,0,6,,,,,,,,,,,,,,,,5,,66,64
23369,note_on,,14,0,6,,,,,,,,,,,,,,,,5,,66,0
23370,note_on,,1,0,6,,,,,,,,,,,,,,,,5,,64,64
23399,note_on,,119,0,9,,,,,,,,,,,,,,,,15,,47,0
23399,note_on,,0,0,9,,,,,,,,,,,,,,,,15,,75,0
23399,note_on,,0,0,9,,,,,,,,,,,,,,,,15,,71,0
23399,note_on,,0,0,9,,,,,,,,,,,,,,,,15,,66,0
23399,note_on,,119,0,8,,,,,,,,,,,,,,,,13,,47,0
23399,note_on,,29,0,6,,,,,,,,,,,,,,,,5,,64,0
23400,note_on,,1,0,9,,,,,,,,,,,,,,,,15,,40,48
23400,note_on,,0,0,9,,,,,,,,,,,,,,,,15,,76,48
23400,note_on,,0,0,9,,,,,,,,,,,,,,,,15,,71,48
23400,note_on,,0,0,9,,,,,,,,,,,,,,,,15,,68,48
23400,note_on,,0,0,9,,,,,,,,,,,,,,,,15,,52,48
23400,note_on,,1,0,6,,,,,,,,,,,,,,,,5,,64,64
23400,note_on,,1,0,8,,,,,,,,,,,,,,,,13,,40,48
23580,note_on,,1621,0,7,,,,,,,,,,,,,,,,10,,80,72
23639,note_on,,0,0,9,,,,,,,,,,,,,,,,15,,76,0
23639,note_on,,59,0,7,,,,,,,,,,,,,,,,10,,80,0
23639,note_on,,0,0,9,,,,,,,,,,,,,,,,15,,52,0
23639,note_on,,239,0,6,,,,,,,,,,,,,,,,5,,64,0
23639,note_on,,0,0,9,,,,,,,,,,,,,,,,15,,68,0
23639,note_on,,0,0,9,,,,,,,,,,,,,,,,15,,71,0
23639,note_on,,239,0,9,,,,,,,,,,,,,,,,15,,40,0
23639,note_on,,239,0,8,,,,,,,,,,,,,,,,13,,40,0
23640,note_on,,1,0,7,,,,,,,,,,,,,,,,10,,78,72
23654,note_on,,14,0,7,,,,,,,,,,,,,,,,10,,78,0
23655,note_on,,1,0,7,,,,,,,,,,,,,,,,10,,80,72
23669,note_on,,14,0,7,,,,,,,,,,,,,,,,10,,80,0
23670,note_on,,1,0,7,,,,,,,,,,,,,,,,10,,78,72
23684,note_on,,14,0,7,,,,,,,,,,,,,,,,10,,78,0
23685,note_on,,1,0,7,,,,,,,,,,,,,,,,10,,80,72
23699,note_on,,14,0,7,,,,,,,,,,,,,,,,10,,80,0
23700,note_on,,1,0,7,,,,,,,,,,,,,,,,10,,76,72
23714,note_on,,14,0,7,,,,,,,,,,,,,,,,10,,76,0
23715,note_on,,1,0,7,,,,,,,,,,,,,,,,10,,78,72
23729,note_on,,14,0,7,,,,,,,,,,,,,,,,10,,78,0
23730,note_on,,1,0,7,,,,,,,,,,,,,,,,10,,76,72
23759,note_on,,29,0,7,,,,,,,,,,,,,,,,10,,76,0
23760,note_on,,1,0,7,,,,,,,,,,,,,,,,10,,71,72
23940,note_on,,10021,0,5,,,,,,,,,,,,,,,,2,,56,72
23940,note_on,,0,0,9,,,,,,,,,,,,,,,,15,,59,72
23940,note_on,,0,0,9,,,,,,,,,,,,,,,,15,,64,72
23940,note_on,,301,0,8,,,,,,,,,,,,,,,,13,,56,72
23940,note_on,,301,0,9,,,,,,,,,,,,,,,,15,,56,72
23999,note_on,,59,0,5,,,,,,,,,,,,,,,,2,,56,0
23999,note_on,,59,0,9,,,,,,,,,,,,,,,,15,,56,0
23999,note_on,,0,0,9,,,,,,,,,,,,,,,,15,,64,0
23999,note_on,,0,0,9,,,,,,,,,,,,,,,,15,,59,0
23999,note_on,,59,0,8,,,,,,,,,,,,,,,,13,,56,0
24000,note_on,,0,0,9,,,,,,,,,,,,,,,,15,,57,72
24000,note_on,,1,0,8,,,,,,,,,,,,,,,,13,,54,72
24000,note_on,,0,0,9,,,,,,,,,,,,,,,,15,,63,72
24000,note_on,,1,0,9,,,,,,,,,,,,,,,,15,,54,72
24000,note_on,,1,0,5,,,,,,,,,,,,,,,,2,,54,72
24059,note_on,,59,0,5,,,,,,,,,,,,,,,,2,,54,0
24059,note_on,,59,0,9,,,,,,,,,,,,,,,,15,,54,0
24059,note_on,,0,0,9,,,,,,,,,,,,,,,,15,,63,0
24059,note_on,,0,0,9,,,,,,,,,,,,,,,,15,,57,0
24059,note_on,,59,0,8,,,,,,,,,,,,,,,,13,,54,0
24060,note_on,,1,0,8,,,,,,,,,,,,,,,,13,,52,72
24060,note_on,,0,0,9,,,,,,,,,,,,,,,,15,,56,72
24060,note_on,,0,0,9,,,,,,,,,,,,,,,,15,,61,72
24060,note_on,,1,0,5,,,,,,,,,,,,,,,,2,,52,72
24060,note_on,,1,0,9,,,,,,,,,,,,,,,,15,,52,72
24119,note_on,,59,0,5,,,,,,,,,,,,,,,,2,,52,0
24119,note_on,,0,0,9,,,,,,,,,,,,,,,,15,,56,0
24119,note_on,,0,0,9,,,,,,,,,,,,,,,,15,,61,0
24119,note_on,,59,0,9,,,,,,,,,,,,,,,,15,,52,0
24119,note_on,,359,0,7,,,,,,,,,,,,,,,,10,,71,0
24119,note_on,,59,0,8,,,,,,,,,,,,,,,,13,,52,0
24120,note_on,,1,0,5,,,,,,,,,,,,,,,,2,,47,72
24120,note_on,,0,0,9,,,,,,,,,,,,,,,,15,,54,72
24120,note_on,,0,0,9,,,,,,,,,,,,,,,,15,,59,72
24120,note_on,,0,0,9,,,,,,,,,,,,,,,,15,,63,72
24120,note_on,,1,0,8,,,,,,,,,,,,,,,,13,,47,72
24120,note_on,,1,0,9,,,,,,,,,,,,,,,,15,,47,72
24300,note_on,,181,0,7,,,,,,,,,,,,,,,,10,,68,72
24359,note_on,,239,0,5,,,,,,,,,,,,,,,,2,,47,0
24359,note_on,,239,0,8,,,,,,,,,,,,,,,,13,,47,0
24359,note_on,,59,0,7,,,,,,,,,,,,,,,,10,,68,0
24359,note_on,,239,0,9,,,,,,,,,,,,,,,,15,,47,0
24359,note_on,,0,0,9,,,,,,,,,,,,,,,,15,,63,0
24359,note_on,,0,0,9,,,,,,,,,,,,,,,,15,,59,0
24359,note_on,,0,0,9,,,,,,,,,,,,,,,,15,,54,0
24360,note_on,,1,0,7,,,,,,,,,,,,,,,,10,,66,72
24374,note_on,,14,0,7,,,,,,,,,,,,,,,,10,,66,0
24375,note_on,,1,0,7,,,,,,,,,,,,,,,,10,,68,72
24389,note_on,,14,0,7,,,,,,,,,,,,,,,,10,,68,0
24390,note_on,,1,0,7,,,,,,,,,,,,,,,,10,,66,72
24404,note_on,,14,0,7,,,,,,,,,,,,,,,,10,,66,0
24405,note_on,,1,0,7,,,,,,,,,,,,,,,,10,,68,72
24419,note_on,,14,0,7,,,,,,,,,,,,,,,,10,,68,0
24420,note_on,,1,0,7,,,,,,,,,,,,,,,,10,,64,72
24434,note_on,,14,0,7,,,,,,,,,,,,,,,,10,,64,0
24435,note_on,,1,0,7,,,,,,,,,,,,,,,,10,,66,72
24449,note_on,,14,0,7,,,,,,,,,,,,,,,,10,,66,0
24450,note_on,,1,0,7,,,,,,,,,,,,,,,,10,,64,72
24479,note_on,,29,0,7,,,,,,,,,,,,,,,,10,,64,0
24480,note_on,,1,0,7,,,,,,,,,,,,,,,,10,,73,72
24660,note_on,,301,0,5,,,,,,,,,,,,,,,,2,,61,72
24660,note_on,,301,0,8,,,,,,,,,,,,,,,,13,,61,72
24660,note_on,,301,0,9,,,,,,,,,,,,,,,,15,,61,72
24660,note_on,,0,0,9,,,,,,,,,,,,,,,,15,,69,72
24660,note_on,,0,0,9,,,,,,,,,,,,,,,,15,,64,72
24719,note_on,,59,0,8,,,,,,,,,,,,,,,,13,,61,0
24719,note_on,,59,0,9,,,,,,,,,,,,,,,,15,,61,0
24719,note_on,,0,0,9,,,,,,,,,,,,,,,,15,,69,0
24719,note_on,,59,0,5,,,,,,,,,,,,,,,,2,,61,0
24719,note_on,,0,0,9,,,,,,,,,,,,,,,,15,,64,0
24720,note_on,,0,0,9,,,,,,,,,,,,,,,,15,,63,72
24720,note_on,,0,0,9,,,,,,,,,,,,,,,,15,,68,72
24720,note_on,,1,0,9,,,,,,,,,,,,,,,,15,,59,72
24720,note_on,,1,0,5,,,,,,,,,,,,,,,,2,,59,72
24720,note_on,,1,0,8,,,,,,,,,,,,,,,,13,,59,72
24779,note_on,,299,0,7,,,,,,,,,,,,,,,,10,,73,0
24779,note_on,,59,0,5,,,,,,,,,,,,,,,,2,,59,0
24779,note_on,,59,0,9,,,,,,,,,,,,,,,,15,,59,0
24779,note_on,,0,0,9,,,,,,,,,,,,,,,,15,,68,0
24779,note_on,,0,0,9,,,,,,,,,,,,,,,,15,,63,0
24779,note_on,,59,0,8,,,,,,,,,,,,,,,,13,,59,0
24780,note_on,,1,0,5,,,,,,,,,,,,,,,,2,,57,72
24780,note_on,,0,0,9,,,,,,,,,,,,,,,,15,,61,72
24780,note_on,,1,0,7,,,,,,,,,,,,,,,,10,,75,72
24780,note_on,,1,0,9,,,,,,,,,,,,,,,,15,,57,72
24780,note_on,,1,0,8,,,,,,,,,,,,,,,,13,,57,72
24780,note_on,,0,0,9,,,,,,,,,,,,,,,,15,,66,72
24839,note_on,,59,0,9,,,,,,,,,,,,,,,,15,,57,0
24839,note_on,,59,0,8,,,,,,,,,,,,,,,,13,,57,0
24839,note_on,,59,0,5,,,,,,,,,,,,,,,,2,,57,0
24839,note_on,,59,0,7,,,,,,,,,,,,,,,,10,,75,0
24839,note_on,,0,0,9,,,,,,,,,,,,,,,,15,,61,0
24839,note_on,,0,0,9,,,,,,,,,,,,,,,,15,,66,0
24840,note_on,,1,0,7,,,,,,,,,,,,,,,,10,,76,72
24840,note_on,,1,0,8,,,,,,,,,,,,,,,,13,,56,72
24840,note_on,,1,0,5,,,,,,,,,,,,,,,,2,,56,72
24840,note_on,,0,0,9,,,,,,,,,,,,,,,,15,,59,72
24840,note_on,,0,0,9,,,,,,,,,,,,,,,,15,,64,72
24840,note_on,,0,0,9,,,,,,,,,,,,,,,,15,,71,72
24840,note_on,,1,0,9,,,,,,,,,,,,,,,,15,,56,72
25019,note_on,,179,0,8,,,,,,,,,,,,,,,,13,,56,0
25019,note_on,,179,0,5,,,,,,,,,,,,,,,,2,,56,0
25019,note_on,,179,0,7,,,,,,,,,,,,,,,,10,,76,0
25019,note_on,,0,0,9,,,,,,,,,,,,,,,,15,,64,0
25019,note_on,,179,0,9,,,,,,,,,,,,,,,,15,,56,0
25019,note_on,,0,0,9,,,,,,,,,,,,,,,,15,,59,0
25019,note_on,,0,0,9,,,,,,,,,,,,,,,,15,,71,0
25020,note_on,,0,0,9,,,,,,,,,,,,,,,,15,,59,72
25020,note_on,,1,0,7,,,,,,,,,,,,,,,,10,,64,72
25020,note_on,,1,0,8,,,,,,,,,,,,,,,,13,,56,72
25020,note_on,,0,0,9,,,,,,,,,,,,,,,,15,,64,72
25020,note_on,,1,0,9,,,,,,,,,,,,,,,,15,,56,72
25020,note_on,,1,0,5,,,,,,,,,,,,,,,,2,,56,72
25079,note_on,,59,0,8,,,,,,,,,,,,,,,,13,,56,0
25079,note_on,,0,0,9,,,,,,,,,,,,,,,,15,,59,0
25079,note_on,,0,0,9,,,,,,,,,,,,,,,,15,,64,0
25079,note_on,,59,0,9,,,,,,,,,,,,,,,,15,,56,0
25079,note_on,,59,0,5,,,,,,,,,,,,,,,,2,,56,0
25079,note_on,,59,0,7,,,,,,,,,,,,,,,,10,,64,0
25080,note_on,,0,0,9,,,,,,,,,,,,,,,,15,,57,72
25080,note_on,,0,0,9,,,,,,,,,,,,,,,,15,,63,72
25080,note_on,,1,0,8,,,,,,,,,,,,,,,,13,,54,72
25080,note_on,,1,0,7,,,,,,,,,,,,,,,,10,,63,72
25080,note_on,,1,0,9,,,,,,,,,,,,,,,,15,,54,72
25080,note_on,,1,0,5,,,,,,,,,,,,,,,,2,,54,72
25139,note_on,,59,0,9,,,,,,,,,,,,,,,,15,,54,0
25139,note_on,,0,0,9,,,,,,,,,,,,,,,,15,,57,0
25139,note_on,,0,0,9,,,,,,,,,,,,,,,,15,,63,0
25139,note_on,,59,0,7,,,,,,,,,,,,,,,,10,,63,0
25139,note_on,,59,0,8,,,,,,,,,,,,,,,,13,,54,0
25139,note_on,,59,0,5,,,,,,,,,,,,,,,,2,,54,0
25140,note_on,,1,0,5,,,,,,,,,,,,,,,,2,,52,72
25140,note_on,,1,0,8,,,,,,,,,,,,,,,,13,,52,72
25140,note_on,,1,0,7,,,,,,,,,,,,,,,,10,,61,72
25140,note_on,,1,0,9,,,,,,,,,,,,,,,,15,,52,72
25140,note_on,,0,0,9,,,,,,,,,,,,,,,,15,,61,72
25140,note_on,,0,0,9,,,,,,,,,,,,,,,,15,,54,72
25199,note_on,,59,0,8,,,,,,,,,,,,,,,,13,,52,0
25199,note_on,,0,0,9,,,,,,,,,,,,,,,,15,,61,0
25199,note_on,,59,0,7,,,,,,,,,,,,,,,,10,,61,0
25199,note_on,,59,0,5,,,,,,,,,,,,,,,,2,,52,0
25199,note_on,,0,0,9,,,,,,,,,,,,,,,,15,,54,0
25199,note_on,,59,0,9,,,,,,,,,,,,,,,,15,,52,0
25200,note_on,,0,0,9,,,,,,,,,,,,,,,,15,,54,72
25200,note_on,,1,0,9,,,,,,,,,,,,,,,,15,,51,72
25200,note_on,,0,0,9,,,,,,,,,,,,,,,,15,,66,72
25200,note_on,,0,0,9,,,,,,,,,,,,,,,,15,,59,72
25200,note_on,,1,0,8,,,,,,,,,,,,,,,,13,,51,72
25200,note_on,,1,0,5,,,,,,,,,,,,,,,,2,,51,72
25200,note_on,,1,0,7,,,,,,,,,,,,,,,,10,,59,72
25289,note_on,,89,0,7,,,,,,,,,,,,,,,,10,,59,0
25290,note_on,,1,0,7,,,,,,,,,,,,,,,,10,,61,72
25319,note_on,,29,0,7,,,,,,,,,,,,,,,,10,,61,0
25319,note_on,,119,0,5,,,,,,,,,,,,,,,,2,,51,0
25319,note_on,,119,0,8,,,,,,,,,,,,,,,,13,,51,0
25319,note_on,,119,0,9,,,,,,,,,,,,,,,,15,,51,0
25319,note_on,,0,0,9,,,,,,,,,,,,,,,,15,,66,0
25319,note_on,,0,0,9,,,,,,,,,,,,,,,,15,,59,0
25319,note_on,,0,0,9,,,,,,,,,,,,,,,,15,,54,0
25320,note_on,,1,0,7,,,,,,,,,,,,,,,,10,,59,72
25409,note_on,,89,0,7,,,,,,,,,,,,,,,,10,,59,0
25410,note_on,,1,0,7,,,,,,,,,,,,,,,,10,,61,72
25439,note_on,,29,0,7,,,,,,,,,,,,,,,,10,,61,0
25440,note_on,,0,0,9,,,,,,,,,,,,,,,,15,,59,72
25440,note_on,,121,0,9,,,,,,,,,,,,,,,,15,,52,72
25440,note_on,,121,0,5,,,,,,,,,,,,,,,,2,,52,72
25440,note_on,,0,0,9,,,,,,,,,,,,,,,,15,,64,72
25440,note_on,,0,0,9,,,,,,,,,,,,,,,,15,,68,72
25440,note_on,,121,0,8,,,,,,,,,,,,,,,,13,,52,72
25440,note_on,,1,0,7,,,,,,,,,,,,,,,,10,,59,72
25529,note_on,,89,0,7,,,,,,,,,,,,,,,,10,,59,0
25530,note_on,,1,0,7,,,,,,,,,,,,,,,,10,,61,72
25559,note_on,,119,0,8,,,,,,,,,,,,,,,,13,,52,0
25559,note_on,,119,0,5,,,,,,,,,,,,,,,,2,,52,0
25559,note_on,,29,0,7,,,,,,,,,,,,,,,,10,,61,0
25559,note_on,,0,0,9,,,,,,,,,,,,,,,,15,,59,0
25559,note_on,,0,0,9,,,,,,,,,,,,,,,,15,,68,0
25559,note_on,,0,0,9,,,,,,,,,,,,,,,,15,,64,0
25559,note_on,,119,0,9,,,,,,,,,,,,,,,,15,,52,0
25560,note_on,,1,0,5,,,,,,,,,,,,,,,,2,,54,72
25560,note_on,,1,0,8,,,,,,,,,,,,,,,,13,,54,72
25560,note_on,,1,0,7,,,,,,,,,,,,,,,,10,,57,72
25560,note_on,,0,0,9,,,,,,,,,,,,,,,,15,,63,72
25560,note_on,,0,0,9,,,,,,,,,,,,,,,,15,,69,72
25560,note_on,,0,0,9,,,,,,,,,,,,,,,,15,,57,72
25560,note_on,,1,0,9,,,,,,,,,,,,,,,,15,,54,72
25649,note_on,,89,0,7,,,,,,,,,,,,,,,,10,,57,0
25650,note_on,,1,0,7,,,,,,,,,,,,,,,,10,,59,72
25679,note_on,,119,0,5,,,,,,,,,,,,,,,,2,,54,0
25679,note_on,,119,0,8,,,,,,,,,,,,,,,,13,,54,0
25679,note_on,,119,0,9,,,,,,,,,,,,,,,,15,,54,0
25679,note_on,,0,0,9,,,,,,,,,,,,,,,,15,,63,0
25679,note_on,,29,0,7,,,,,,,,,,,,,,,,10,,59,0
25680,note_on,,1,0,9,,,,,,,,,,,,,,,,15,,51,72
25680,note_on,,0,0,9,,,,,,,,,,,,,,,,15,,66,72
25680,note_on,,1,0,5,,,,,,,,,,,,,,,,2,,51,72
25680,note_on,,1,0,7,,,,,,,,,,,,,,,,10,,57,72
25680,note_on,,1,0,8,,,,,,,,,,,,,,,,13,,51,72
25769,note_on,,89,0,7,,,,,,,,,,,,,,,,10,,57,0
25770,note_on,,1,0,7,,,,,,,,,,,,,,,,10,,59,72
25799,note_on,,119,0,8,,,,,,,,,,,,,,,,13,,51,0
25799,note_on,,29,0,7,,,,,,,,,,,,,,,,10,,59,0
25799,note_on,,119,0,5,,,,,,,,,,,,,,,,2,,51,0
25799,note_on,,0,0,9,,,,,,,,,,,,,,,,15,,66,0
25799,note_on,,119,0,9,,,,,,,,,,,,,,,,15,,69,0
25799,note_on,,0,0,9,,,,,,,,,,,,,,,,15,,57,0
25799,note_on,,0,0,9,,,,,,,,,,,,,,,,15,,51,0
25800,note_on,,0,0,9,,,,,,,,,,,,,,,,15,,63,72
25800,note_on,,0,0,9,,,,,,,,,,,,,,,,15,,66,72
25800,note_on,,0,0,9,,,,,,,,,,,,,,,,15,,71,72
25800,note_on,,1,0,9,,,,,,,,,,,,,,,,15,,47,72
25800,note_on,,1,0,5,,,,,,,,,,,,,,,,2,,47,72
25800,note_on,,1,0,7,,,,,,,,,,,,,,,,10,,57,72
25800,note_on,,1,0,8,,,,,,,,,,,,,,,,13,,47,72
25889,note_on,,89,0,7,,,,,,,,,,,,,,,,10,,57,0
25890,note_on,,1,0,7,,,,,,,,,,,,,,,,10,,69,72
25919,note_on,,119,0,5,,,,,,,,,,,,,,,,2,,47,0
25919,note_on,,0,0,9,,,,,,,,,,,,,,,,15,,66,0
25919,note_on,,0,0,9,,,,,,,,,,,,,,,,15,,63,0
25919,note_on,,119,0,9,,,,,,,,,,,,,,,,15,,47,0
25919,note_on,,119,0,8,,,,,,,,,,,,,,,,13,,47,0
25919,note_on,,29,0,7,,,,,,,,,,,,,,,,10,,69,0
25919,note_on,,0,0,9,,,,,,,,,,,,,,,,15,,71,0
25920,note_on,,1,0,8,,,,,,,,,,,,,,,,13,,52,72
25920,note_on,,1,0,5,,,,,,,,,,,,,,,,2,,52,72
25920,note_on,,1,0,7,,,,,,,,,,,,,,,,10,,68,72
25920,note_on,,0,0,9,,,,,,,,,,,,,,,,15,,64,72
25920,note_on,,0,0,9,,,,,,,,,,,,,,,,15,,59,72
25920,note_on,,0,0,9,,,,,,,,,,,,,,,,15,,68,72
25920,note_on,,1,0,9,,,,,,,,,,,,,,,,15,,52,72
26039,note_on,,119,0,9,,,,,,,,,,,,,,,,15,,52,0
26039,note_on,,119,0,5,,,,,,,,,,,,,,,,2,,52,0
26039,note_on,,0,0,9,,,,,,,,,,,,,,,,15,,64,0
26039,note_on,,119,0,8,,,,,,,,,,,,,,,,13,,52,0
26040,note_on,,1,0,9,,,,,,,,,,,,,,,,15,,47,72
26040,note_on,,0,0,9,,,,,,,,,,,,,,,,15,,63,72
26040,note_on,,1,0,5,,,,,,,,,,,,,,,,2,,47,72
26040,note_on,,1,0,8,,,,,,,,,,,,,,,,13,,47,72
26099,note_on,,179,0,7,,,,,,,,,,,,,,,,10,,68,0
26100,note_on,,1,0,7,,,,,,,,,,,,,,,,10,,66,72
26159,note_on,,119,0,5,,,,,,,,,,,,,,,,2,,47,0
26159,note_on,,119,0,8,,,,,,,,,,,,,,,,13,,47,0
26159,note_on,,119,0,9,,,,,,,,,,,,,,,,15,,68,0
26159,note_on,,0,0,9,,,,,,,,,,,,,,,,15,,47,0
26159,note_on,,59,0,7,,,,,,,,,,,,,,,,10,,66,0
26159,note_on,,0,0,9,,,,,,,,,,,,,,,,15,,59,0
26159,note_on,,0,0,9,,,,,,,,,,,,,,,,15,,63,0
26160,note_on,,1,0,7,,,,,,,,,,,,,,,,10,,64,72
26160,note_on,,1,0,9,,,,,,,,,,,,,,,,15,,49,72
26160,note_on,,0,0,9,,,,,,,,,,,,,,,,15,,64,72
26160,note_on,,0,0,9,,,,,,,,,,,,,,,,15,,61,72
26160,note_on,,1,0,8,,,,,,,,,,,,,,,,13,,49,72
26160,note_on,,1,0,5,,,,,,,,,,,,,,,,2,,49,72
26160,note_on,,0,0,9,,,,,,,,,,,,,,,,15,,56,72
26199,note_on,,39,0,7,,,,,,,,,,,,,,,,10,,64,0
26200,note_on,,1,0,7,,,,,,,,,,,,,,,,10,,66,72
26239,note_on,,39,0,7,,,,,,,,,,,,,,,,10,,66,0
26240,note_on,,1,0,7,,,,,,,,,,,,,,,,10,,68,72
26279,note_on,,119,0,9,,,,,,,,,,,,,,,,15,,49,0
26279,note_on,,0,0,9,,,,,,,,,,,,,,,,15,,64,0
26279,note_on,,0,0,9,,,,,,,,,,,,,,,,15,,61,0
26279,note_on,,119,0,8,,,,,,,,,,,,,,,,13,,49,0
26279,note_on,,0,0,9,,,,,,,,,,,,,,,,15,,56,0
26279,note_on,,119,0,5,,,,,,,,,,,,,,,,2,,49,0
26279,note_on,,39,0,7,,,,,,,,,,,,,,,,10,,68,0
26280,note_on,,1,0,5,,,,,,,,,,,,,,,,2,,45,72
26280,note_on,,1,0,8,,,,,,,,,,,,,,,,13,,45,72
26280,note_on,,0,0,9,,,,,,,,,,,,,,,,15,,64,72
26280,note_on,,0,0,9,,,,,,,,,,,,,,,,15,,69,72
26280,note_on,,1,0,9,,,,,,,,,,,,,,,,15,,45,72
26280,note_on,,0,0,9,,,,,,,,,,,,,,,,15,,73,72
26280,note_on,,1,0,7,,,,,,,,,,,,,,,,10,,69,72
26319,note_on,,39,0,7,,,,,,,,,,,,,,,,10,,69,0
26320,note_on,,1,0,7,,,,,,,,,,,,,,,,10,,68,72
26359,note_on,,39,0,7,,,,,,,,,,,,,,,,10,,68,0
26360,note_on,,1,0,7,,,,,,,,,,,,,,,,10,,66,72
26399,note_on,,0,0,9,,,,,,,,,,,,,,,,15,,69,0
26399,note_on,,0,0,9,,,,,,,,,,,,,,,,15,,64,0
26399,note_on,,0,0,9,,,,,,,,,,,,,,,,15,,73,0
26399,note_on,,119,0,9,,,,,,,,,,,,,,,,15,,45,0
26399,note_on,,39,0,7,,,,,,,,,,,,,,,,10,,66,0
26399,note_on,,119,0,5,,,,,,,,,,,,,,,,2,,45,0
26399,note_on,,119,0,8,,,,,,,,,,,,,,,,13,,45,0
26400,note_on,,1,0,5,,,,,,,,,,,,,,,,2,,47,72
26400,note_on,,1,0,9,,,,,,,,,,,,,,,,15,,47,72
26400,note_on,,0,0,9,,,,,,,,,,,,,,,,15,,66,72
26400,note_on,,0,0,9,,,,,,,,,,,,,,,,15,,63,72
26400,note_on,,1,0,8,,,,,,,,,,,,,,,,13,,47,72
26400,note_on,,0,0,9,,,,,,,,,,,,,,,,15,,71,72
26400,note_on,,1,0,7,,,,,,,,,,,,,,,,10,,63,72
26414,note_on,,14,0,7,,,,,,,,,,,,,,,,10,,63,0
26415,note_on,,1,0,7,,,,,,,,,,,,,,,,10,,64,72
26429,note_on,,14,0,7,,,,,,,,,,,,,,,,10,,64,0
26430,note_on,,1,0,7,,,,,,,,,,,,,,,,10,,63,72
26444,note_on,,14,0,7,,,,,,,,,,,,,,,,10,,63,0
26445,note_on,,1,0,7,,,,,,,,,,,,,,,,10,,64,72
26459,note_on,,14,0,7,,,,,,,,,,,,,,,,10,,64,0
26460,note_on,,1,0,7,,,,,,,,,,,,,,,,10,,63,72
26474,note_on,,14,0,7,,,,,,,,,,,,,,,,10,,63,0
26475,note_on,,1,0,7,,,,,,,,,,,,,,,,10,,64,72
26489,note_on,,14,0,7,,,,,,,,,,,,,,,,10,,64,0
26490,note_on,,1,0,7,,,,,,,,,,,,,,,,10,,63,72
26504,note_on,,14,0,7,,,,,,,,,,,,,,,,10,,63,0
26505,note_on,,1,0,7,,,,,,,,,,,,,,,,10,,64,72
26519,note_on,,0,0,9,,,,,,,,,,,,,,,,15,,66,0
26519,note_on,,0,0,9,,,,,,,,,,,,,,,,15,,71,0
26519,note_on,,119,0,9,,,,,,,,,,,,,,,,15,,47,0
26519,note_on,,14,0,7,,,,,,,,,,,,,,,,10,,64,0
26519,note_on,,119,0,5,,,,,,,,,,,,,,,,2,,47,0
26519,note_on,,0,0,9,,,,,,,,,,,,,,,,15,,63,0
26519,note_on,,119,0,8,,,,,,,,,,,,,,,,13,,47,0
26520,note_on,,1,0,7,,,,,,,,,,,,,,,,10,,63,72
26520,note_on,,1,0,8,,,,,,,,,,,,,,,,13,,47,72
26520,note_on,,0,0,9,,,,,,,,,,,,,,,,15,,59,72
26520,note_on,,0,0,9,,,,,,,,,,,,,,,,15,,63,72
26520,note_on,,0,0,9,,,,,,,,,,,,,,,,15,,69,72
26520,note_on,,1,0,9,,,,,,,,,,,,,,,,15,,47,72
26520,note_on,,1,0,5,,,,,,,,,,,,,,,,2,,47,72
26534,note_on,,14,0,7,,,,,,,,,,,,,,,,10,,63,0
26535,note_on,,1,0,7,,,,,,,,,,,,,,,,10,,64,72
26549,note_on,,14,0,7,,,,,,,,,,,,,,,,10,,64,0
26550,note_on,,1,0,7,,,,,,,,,,,,,,,,10,,61,72
26564,note_on,,14,0,7,,,,,,,,,,,,,,,,10,,61,0
26565,note_on,,1,0,7,,,,,,,,,,,,,,,,10,,63,72
26579,note_on,,14,0,7,,,,,,,,,,,,,,,,10,,63,0
26580,note_on,,1,0,7,,,,,,,,,,,,,,,,10,,64,72
26639,note_on,,0,0,9,,,,,,,,,,,,,,,,15,,69,0
26639,note_on,,0,0,9,,,,,,,,,,,,,,,,15,,63,0
26639,note_on,,0,0,9,,,,,,,,,,,,,,,,15,,59,0
26639,note_on,,119,0,9,,,,,,,,,,,,,,,,15,,47,0
26639,note_on,,59,0,7,,,,,,,,,,,,,,,,10,,64,0
26639,note_on,,119,0,8,,,,,,,,,,,,,,,,13,,47,0
26639,note_on,,119,0,5,,,,,,,,,,,,,,,,2,,47,0
26640,note_on,,0,0,9,,,,,,,,,,,,,,,,15,,64,72
26640,note_on,,1,0,9,,,,,,,,,,,,,,,,15,,40,72
26640,note_on,,0,0,9,,,,,,,,,,,,,,,,15,,68,72
26640,note_on,,1,0,7,,,,,,,,,,,,,,,,10,,64,72
26640,note_on,,0,0,9,,,,,,,,,,,,,,,,15,,59,72
26640,note_on,,1,0,8,,,,,,,,,,,,,,,,13,,40,72
26640,note_on,,1,0,5,,,,,,,,,,,,,,,,2,,40,72
26760,note_on,,3121,0,6,,,,,,,,,,,,,,,,5,,64,64
26849,note_on,,89,0,6,,,,,,,,,,,,,,,,5,,64,0
26850,note_on,,1,0,6,,,,,,,,,,,,,,,,5,,69,64
26879,note_on,,239,0,8,,,,,,,,,,,,,,,,13,,40,0
26879,note_on,,239,0,7,,,,,,,,,,,,,,,,10,,64,0
26879,note_on,,29,0,6,,,,,,,,,,,,,,,,5,,69,0
26879,note_on,,0,0,9,,,,,,,,,,,,,,,,15,,59,0
26879,note_on,,0,0,9,,,,,,,,,,,,,,,,15,,64,0
26879,note_on,,0,0,9,,,,,,,,,,,,,,,,15,,68,0
26879,note_on,,239,0,5,,,,,,,,,,,,,,,,2,,40,0
26879,note_on,,239,0,9,,,,,,,,,,,,,,,,15,,40,0
26880,note_on,,1,0,6,,,,,,,,,,,,,,,,5,,68,64
26969,note_on,,89,0,6,,,,,,,,,,,,,,,,5,,68,0
26970,note_on,,1,0,6,,,,,,,,,,,,,,,,5,,69,64
26999,note_on,,29,0,6,,,,,,,,,,,,,,,,5,,69,0
27000,note_on,,1,0,6,,,,,,,,,,,,,,,,5,,71,64
27120,note_on,,241,0,8,,,,,,,,,,,,,,,,13,,52,48
27120,note_on,,241,0,9,,,,,,,,,,,,,,,,15,,52,48
27120,note_on,,0,0,9,,,,,,,,,,,,,,,,15,,76,48
27120,note_on,,0,0,9,,,,,,,,,,,,,,,,15,,71,48
27120,note_on,,0,0,9,,,,,,,,,,,,,,,,15,,68,48
27239,note_on,,0,0,9,,,,,,,,,,,,,,,,15,,76,0
27239,note_on,,0,0,9,,,,,,,,,,,,,,,,15,,68,0
27239,note_on,,0,0,9,,,,,,,,,,,,,,,,15,,71,0
27239,note_on,,239,0,6,,,,,,,,,,,,,,,,5,,71,0
27239,note_on,,119,0,8,,,,,,,,,,,,,,,,13,,52,0
27239,note_on,,119,0,9,,,,,,,,,,,,,,,,15,,52,0
27240,note_on,,1,0,8,,,,,,,,,,,,,,,,13,,56,48
27240,note_on,,1,0,9,,,,,,,,,,,,,,,,15,,56,48
27240,note_on,,0,0,9,,,,,,,,,,,,,,,,15,,71,48
27240,note_on,,0,0,9,,,,,,,,,,,,,,,,15,,64,48
27240,note_on,,0,0,9,,,,,,,,,,,,,,,,15,,59,48
27240,note_on,,1,0,6,,,,,,,,,,,,,,,,5,,71,64
27359,note_on,,119,0,8,,,,,,,,,,,,,,,,13,,56,0
27359,note_on,,119,0,6,,,,,,,,,,,,,,,,5,,71,0
27359,note_on,,119,0,9,,,,,,,,,,,,,,,,15,,56,0
27359,note_on,,0,0,9,,,,,,,,,,,,,,,,15,,71,0
27359,note_on,,0,0,9,,,,,,,,,,,,,,,,15,,64,0
27359,note_on,,0,0,9,,,,,,,,,,,,,,,,15,,59,0
27360,note_on,,0,0,9,,,,,,,,,,,,,,,,15,,64,48
27360,note_on,,1,0,8,,,,,,,,,,,,,,,,13,,57,48
27360,note_on,,1,0,6,,,,,,,,,,,,,,,,5,,73,64
27360,note_on,,0,0,9,,,,,,,,,,,,,,,,15,,61,48
27360,note_on,,1,0,9,,,,,,,,,,,,,,,,15,,57,48
27479,note_on,,0,0,9,,,,,,,,,,,,,,,,15,,61,0
27479,note_on,,0,0,9,,,,,,,,,,,,,,,,15,,64,0
27479,note_on,,119,0,8,,,,,,,,,,,,,,,,13,,57,0
27479,note_on,,119,0,9,,,,,,,,,,,,,,,,15,,57,0
27479,note_on,,119,0,6,,,,,,,,,,,,,,,,5,,73,0
27480,note_on,,0,0,9,,,,,,,,,,,,,,,,15,,63,48
27480,note_on,,0,0,9,,,,,,,,,,,,,,,,15,,57,48
27480,note_on,,1,0,9,,,,,,,,,,,,,,,,15,,54,48
27480,note_on,,1,0,8,,,,,,,,,,,,,,,,13,,54,48
27480,note_on,,1,0,6,,,,,,,,,,,,,,,,5,,75,64
27480,note_on,,0,0,9,,,,,,,,,,,,,,,,15,,69,48
27719,note_on,,239,0,6,,,,,,,,,,,,,,,,5,,75,0
27719,note_on,,0,0,9,,,,,,,,,,,,,,,,15,,69,0
27719,note_on,,239,0,8,,,,,,,,,,,,,,,,13,,54,0
27719,note_on,,239,0,9,,,,,,,,,,,,,,,,15,,54,0
27719,note_on,,0,0,9,,,,,,,,,,,,,,,,15,,63,0
27719,note_on,,0,0,9,,,,,,,,,,,,,,,,15,,57,0
27720,note_on,,1,0,6,,,,,,,,,,,,,,,,5,,76,64
27720,note_on,,1,0,9,,,,,,,,,,,,,,,,15,,52,48
27720,note_on,,0,0,9,,,,,,,,,,,,,,,,15,,68,48
27720,note_on,,0,0,9,,,,,,,,,,,,,,,,15,,64,48
27720,note_on,,0,0,9,,,,,,,,,,,,,,,,15,,59,48
27720,note_on,,1,0,8,,,,,,,,,,,,,,,,13,,52,48
27839,note_on,,119,0,6,,,,,,,,,,,,,,,,5,,76,0
27840,note_on,,1,0,6,,,,,,,,,,,,,,,,5,,64,64
27900,note_on,,1021,0,7,,,,,,,,,,,,,,,,10,,64,48
27959,note_on,,0,0,9,,,,,,,,,,,,,,,,15,,59,0
27959,note_on,,0,0,9,,,,,,,,,,,,,,,,15,,64,0
27959,note_on,,59,0,7,,,,,,,,,,,,,,,,10,,64,0
27959,note_on,,0,0,9,,,,,,,,,,,,,,,,15,,68,0
27959,note_on,,239,0,9,,,,,,,,,,,,,,,,15,,52,0
27959,note_on,,119,0,6,,,,,,,,,,,,,,,,5,,64,0
27959,note_on,,239,0,8,,,,,,,,,,,,,,,,13,,52,0
27960,note_on,,0,0,9,,,,,,,,,,,,,,,,15,,59,48
27960,note_on,,0,0,9,,,,,,,,,,,,,,,,15,,63,48
27960,note_on,,0,0,9,,,,,,,,,,,,,,,,15,,66,48
27960,note_on,,1,0,9,,,,,,,,,,,,,,,,15,,47,48
27960,note_on,,1,0,7,,,,,,,,,,,,,,,,10,,63,48
27960,note_on,,1,0,8,,,,,,,,,,,,,,,,13,,47,48
28019,note_on,,59,0,7,,,,,,,,,,,,,,,,10,,63,0
28020,note_on,,1,0,7,,,,,,,,,,,,,,,,10,,61,48
28079,note_on,,119,0,8,,,,,,,,,,,,,,,,13,,47,0
28079,note_on,,119,0,9,,,,,,,,,,,,,,,,15,,47,0
28079,note_on,,59,0,7,,,,,,,,,,,,,,,,10,,61,0
28079,note_on,,0,0,9,,,,,,,,,,,,,,,,15,,66,0
28079,note_on,,0,0,9,,,,,,,,,,,,,,,,15,,63,0
28079,note_on,,0,0,9,,,,,,,,,,,,,,,,15,,59,0
28080,note_on,,0,0,9,,,,,,,,,,,,,,,,15,,59,48
28080,note_on,,1,0,7,,,,,,,,,,,,,,,,10,,59,48
28080,note_on,,1,0,9,,,,,,,,,,,,,,,,15,,44,48
28080,note_on,,0,0,9,,,,,,,,,,,,,,,,15,,64,48
28080,note_on,,0,0,9,,,,,,,,,,,,,,,,15,,52,48
28080,note_on,,1,0,8,,,,,,,,,,,,,,,,13,,44,48
28169,note_on,,89,0,7,,,,,,,,,,,,,,,,10,,59,0
28170,note_on,,1,0,7,,,,,,,,,,,,,,,,10,,61,48
28199,note_on,,29,0,7,,,,,,,,,,,,,,,,10,,61,0
28200,note_on,,1,0,7,,,,,,,,,,,,,,,,10,,59,48
28289,note_on,,89,0,7,,,,,,,,,,,,,,,,10,,59,0
28290,note_on,,1,0,7,,,,,,,,,,,,,,,,10,,61,48
28319,note_on,,29,0,7,,,,,,,,,,,,,,,,10,,61,0
28319,note_on,,239,0,8,,,,,,,,,,,,,,,,13,,44,0
28319,note_on,,239,0,9,,,,,,,,,,,,,,,,15,,44,0
28320,note_on,,1,0,7,,,,,,,,,,,,,,,,10,,59,48
28320,note_on,,1,0,8,,,,,,,,,,,,,,,,13,,52,48
28320,note_on,,1,0,9,,,,,,,,,,,,,,,,15,,52,48
28409,note_on,,89,0,7,,,,,,,,,,,,,,,,10,,59,0
28410,note_on,,1,0,7,,,,,,,,,,,,,,,,10,,61,48
28439,note_on,,119,0,9,,,,,,,,,,,,,,,,15,,64,0
28439,note_on,,0,0,9,,,,,,,,,,,,,,,,15,,59,0
28439,note_on,,0,0,9,,,,,,,,,,,,,,,,15,,52,0
28439,note_on,,0,0,9,,,,,,,,,,,,,,,,15,,52,0
28439,note_on,,29,0,7,,,,,,,,,,,,,,,,10,,61,0
28439,note_on,,119,0,8,,,,,,,,,,,,,,,,13,,52,0
28440,note_on,,1,0,7,,,,,,,,,,,,,,,,10,,57,48
28440,note_on,,1,0,8,,,,,,,,,,,,,,,,13,,42,48
28440,note_on,,0,0,9,,,,,,,,,,,,,,,,15,,63,48
28440,note_on,,0,0,9,,,,,,,,,,,,,,,,15,,57,48
28440,note_on,,0,0,9,,,,,,,,,,,,,,,,15,,66,48
28440,note_on,,1,0,9,,,,,,,,,,,,,,,,15,,42,48
28529,note_on,,89,0,7,,,,,,,,,,,,,,,,10,,57,0
28530,note_on,,1,0,7,,,,,,,,,,,,,,,,10,,59,48
28559,note_on,,29,0,7,,,,,,,,,,,,,,,,10,,59,0
28560,note_on,,1,0,7,,,,,,,,,,,,,,,,10,,57,48
28649,note_on,,89,0,7,,,,,,,,,,,,,,,,10,,57,0
28650,note_on,,1,0,7,,,,,,,,,,,,,,,,10,,59,48
28679,note_on,,0,0,9,,,,,,,,,,,,,,,,15,,63,0
28679,note_on,,239,0,8,,,,,,,,,,,,,,,,13,,42,0
28679,note_on,,239,0,9,,,,,,,,,,,,,,,,15,,42,0
28679,note_on,,29,0,7,,,,,,,,,,,,,,,,10,,59,0
28680,note_on,,1,0,7,,,,,,,,,,,,,,,,10,,57,48
28680,note_on,,1,0,8,,,,,,,,,,,,,,,,13,,51,48
28680,note_on,,1,0,9,,,,,,,,,,,,,,,,15,,51,48
28680,note_on,,0,0,9,,,,,,,,,,,,,,,,15,,59,48
28769,note_on,,89,0,7,,,,,,,,,,,,,,,,10,,57,0
28770,note_on,,1,0,7,,,,,,,,,,,,,,,,10,,59,48
28799,note_on,,119,0,9,,,,,,,,,,,,,,,,15,,66,0
28799,note_on,,0,0,9,,,,,,,,,,,,,,,,15,,57,0
28799,note_on,,0,0,9,,,,,,,,,,,,,,,,15,,51,0
28799,note_on,,0,0,9,,,,,,,,,,,,,,,,15,,59,0
28799,note_on,,119,0,8,,,,,,,,,,,,,,,,13,,51,0
28799,note_on,,29,0,7,,,,,,,,,,,,,,,,10,,59,0
28800,note_on,,0,0,9,,,,,,,,,,,,,,,,15,,59,48
28800,note_on,,841,0,6,,,,,,,,,,,,,,,,5,,64,64
28800,note_on,,1,0,8,,,,,,,,,,,,,,,,13,,52,48
28800,note_on,,1,0,7,,,,,,,,,,,,,,,,10,,56,48
28800,note_on,,0,0,9,,,,,,,,,,,,,,,,15,,56,48
28800,note_on,,0,0,9,,,,,,,,,,,,,,,,15,,68,48
28800,note_on,,1,0,9,,,,,,,,,,,,,,,,15,,52,48
28919,note_on,,119,0,7,,,,,,,,,,,,,,,,10,,56,0
28919,note_on,,119,0,6,,,,,,,,,,,,,,,,5,,64,0
28920,note_on,,1,0,6,,,,,,,,,,,,,,,,5,,68,64
29039,note_on,,0,0,9,,,,,,,,,,,,,,,,15,,68,0
29039,note_on,,0,0,9,,,,,,,,,,,,,,,,15,,59,0
29039,note_on,,0,0,9,,,,,,,,,,,,,,,,15,,56,0
29039,note_on,,239,0,8,,,,,,,,,,,,,,,,13,,52,0
29039,note_on,,119,0,6,,,,,,,,,,,,,,,,5,,68,0
29039,note_on,,239,0,9,,,,,,,,,,,,,,,,15,,52,0
29040,note_on,,1,0,8,,,,,,,,,,,,,,,,13,,54,48
29040,note_on,,0,0,9,,,,,,,,,,,,,,,,15,,63,48
29040,note_on,,0,0,9,,,,,,,,,,,,,,,,15,,57,48
29040,note_on,,0,0,9,,,,,,,,,,,,,,,,15,,66,48
29040,note_on,,1,0,9,,,,,,,,,,,,,,,,15,,54,48
29040,note_on,,1,0,6,,,,,,,,,,,,,,,,5,,69,64
29159,note_on,,119,0,6,,,,,,,,,,,,,,,,5,,69,0
29159,note_on,,0,0,9,,,,,,,,,,,,,,,,15,,57,0
29159,note_on,,0,0,9,,,,,,,,,,,,,,,,15,,63,0
29159,note_on,,0,0,9,,,,,,,,,,,,,,,,15,,66,0
29159,note_on,,119,0,9,,,,,,,,,,,,,,,,15,,54,0
29159,note_on,,119,0,8,,,,,,,,,,,,,,,,13,,54,0
29160,note_on,,0,0,9,,,,,,,,,,,,,,,,15,,64,48
29160,note_on,,1,0,9,,,,,,,,,,,,,,,,15,,56,48
29160,note_on,,0,0,9,,,,,,,,,,,,,,,,15,,59,48
29160,note_on,,1,0,8,,,,,,,,,,,,,,,,13,,56,48
29160,note_on,,1,0,6,,,,,,,,,,,,,,,,5,,71,64
29399,note_on,,239,0,9,,,,,,,,,,,,,,,,15,,56,0
29399,note_on,,0,0,9,,,,,,,,,,,,,,,,15,,59,0
29399,note_on,,0,0,9,,,,,,,,,,,,,,,,15,,64,0
29399,note_on,,239,0,6,,,,,,,,,,,,,,,,5,,71,0
29399,note_on,,239,0,8,,,,,,,,,,,,,,,,13,,56,0
29400,note_on,,1,0,9,,,,,,,,,,,,,,,,15,,57,48
29400,note_on,,0,0,9,,,,,,,,,,,,,,,,15,,73,48
29400,note_on,,1,0,6,,,,,,,,,,,,,,,,5,,73,64
29400,note_on,,1,0,8,,,,,,,,,,,,,,,,13,,57,48
29400,note_on,,0,0,9,,,,,,,,,,,,,,,,15,,64,48
29400,note_on,,0,0,9,,,,,,,,,,,,,,,,15,,61,48
29519,note_on,,0,0,9,,,,,,,,,,,,,,,,15,,61,0
29519,note_on,,0,0,9,,,,,,,,,,,,,,,,15,,64,0
29519,note_on,,119,0,6,,,,,,,,,,,,,,,,5,,73,0
29519,note_on,,119,0,9,,,,,,,,,,,,,,,,15,,57,0
29519,note_on,,119,0,8,,,,,,,,,,,,,,,,13,,57,0
29519,note_on,,0,0,9,,,,,,,,,,,,,,,,15,,73,0
29520,note_on,,0,0,9,,,,,,,,,,,,,,,,15,,66,48
29520,note_on,,0,0,9,,,,,,,,,,,,,,,,15,,75,48
29520,note_on,,1,0,9,,,,,,,,,,,,,,,,15,,54,48
29520,note_on,,0,0,9,,,,,,,,,,,,,,,,15,,69,48
29520,note_on,,1,0,6,,,,,,,,,,,,,,,,5,,69,64
29520,note_on,,1,0,8,,,,,,,,,,,,,,,,13,,54,48
29639,note_on,,119,0,8,,,,,,,,,,,,,,,,13,,54,0
29639,note_on,,119,0,6,,,,,,,,,,,,,,,,5,,69,0
29639,note_on,,119,0,9,,,,,,,,,,,,,,,,15,,54,0
29639,note_on,,0,0,9,,,,,,,,,,,,,,,,15,,75,0
29639,note_on,,0,0,9,,,,,,,,,,,,,,,,15,,69,0
29639,note_on,,0,0,9,,,,,,,,,,,,,,,,15,,66,0
29640,note_on,,0,0,9,,,,,,,,,,,,,,,,15,,71,48
29640,note_on,,1,0,8,,,,,,,,,,,,,,,,13,,52,48
29640,note_on,,1,0,9,,,,,,,,,,,,,,,,15,,52,48
29640,note_on,,0,0,9,,,,,,,,,,,,,,,,15,,76,48
29640,note_on,,1,0,6,,,,,,,,,,,,,,,,5,,68,64
29640,note_on,,0,0,9,,,,,,,,,,,,,,,,15,,68,48
29879,note_on,,0,0,9,,,,,,,,,,,,,,,,15,,68,0
29879,note_on,,0,0,9,,,,,,,,,,,,,,,,15,,76,0
29879,note_on,,239,0,8,,,,,,,,,,,,,,,,13,,52,0
29879,note_on,,239,0,9,,,,,,,,,,,,,,,,15,,52,0
29879,note_on,,239,0,6,,,,,,,,,,,,,,,,5,,68,0
29879,note_on,,0,0,9,,,,,,,,,,,,,,,,15,,71,0
29880,note_on,,0,0,9,,,,,,,,,,,,,,,,15,,66,48
29880,note_on,,1,0,8,,,,,,,,,,,,,,,,13,,47,48
29880,note_on,,1,0,9,,,,,,,,,,,,,,,,15,,47,48
29880,note_on,,0,0,9,,,,,,,,,,,,,,,,15,,71,48
29880,note_on,,1,0,6,,,,,,,,,,,,,,,,5,,66,64
29880,note_on,,0,0,9,,,,,,,,,,,,,,,,15,,75,48
29940,note_on,,1021,0,7,,,,,,,,,,,,,,,,10,,73,48
29999,note_on,,59,0,7,,,,,,,,,,,,,,,,10,,73,0
30000,note_on,,1,0,7,,,,,,,,,,,,,,,,10,,71,48
30089,note_on,,89,0,7,,,,,,,,,,,,,,,,10,,71,0
30090,note_on,,1,0,7,,,,,,,,,,,,,,,,10,,73,48
30119,note_on,,239,0,9,,,,,,,,,,,,,,,,15,,47,0
30119,note_on,,0,0,9,,,,,,,,,,,,,,,,15,,75,0
30119,note_on,,0,0,9,,,,,,,,,,,,,,,,15,,66,0
30119,note_on,,0,0,9,,,,,,,,,,,,,,,,15,,71,0
30119,note_on,,239,0,8,,,,,,,,,,,,,,,,13,,47,0
30119,note_on,,239,0,6,,,,,,,,,,,,,,,,5,,66,0
30119,note_on,,29,0,7,,,,,,,,,,,,,,,,10,,73,0
30120,note_on,,0,0,9,,,,,,,,,,,,,,,,15,,71,48
30120,note_on,,1,0,8,,,,,,,,,,,,,,,,13,,51,48
30120,note_on,,0,0,9,,,,,,,,,,,,,,,,15,,66,48
30120,note_on,,0,0,9,,,,,,,,,,,,,,,,15,,59,48
30120,note_on,,1,0,9,,,,,,,,,,,,,,,,15,,51,48
30120,note_on,,1,0,7,,,,,,,,,,,,,,,,10,,71,48
30120,note_on,,1,0,6,,,,,,,,,,,,,,,,5,,78,64
30209,note_on,,89,0,7,,,,,,,,,,,,,,,,10,,71,0
30210,note_on,,1,0,7,,,,,,,,,,,,,,,,10,,73,48
30239,note_on,,0,0,9,,,,,,,,,,,,,,,,15,,66,0
30239,note_on,,0,0,9,,,,,,,,,,,,,,,,15,,71,0
30239,note_on,,119,0,9,,,,,,,,,,,,,,,,15,,51,0
30239,note_on,,119,0,6,,,,,,,,,,,,,,,,5,,78,0
30239,note_on,,29,0,7,,,,,,,,,,,,,,,,10,,73,0
30239,note_on,,119,0,8,,,,,,,,,,,,,,,,13,,51,0
30239,note_on,,0,0,9,,,,,,,,,,,,,,,,15,,59,0
30240,note_on,,1,0,8,,,,,,,,,,,,,,,,13,,52,48
30240,note_on,,1,0,7,,,,,,,,,,,,,,,,10,,71,48
30240,note_on,,0,0,9,,,,,,,,,,,,,,,,15,,64,48
30240,note_on,,1,0,6,,,,,,,,,,,,,,,,5,,73,64
30240,note_on,,1,0,9,,,,,,,,,,,,,,,,15,,52,48
30240,note_on,,0,0,9,,,,,,,,,,,,,,,,15,,73,48
30240,note_on,,0,0,9,,,,,,,,,,,,,,,,15,,68,48
30329,note_on,,89,0,7,,,,,,,,,,,,,,,,10,,71,0
30330,note_on,,1,0,7,,,,,,,,,,,,,,,,10,,73,48
30359,note_on,,29,0,7,,,,,,,,,,,,,,,,10,,73,0
30360,note_on,,1,0,7,,,,,,,,,,,,,,,,10,,71,48
30449,note_on,,89,0,7,,,,,,,,,,,,,,,,10,,71,0
30450,note_on,,1,0,7,,,,,,,,,,,,,,,,10,,73,48
30479,note_on,,239,0,8,,,,,,,,,,,,,,,,13,,52,0
30479,note_on,,239,0,6,,,,,,,,,,,,,,,,5,,73,0
30479,note_on,,0,0,9,,,,,,,,,,,,,,,,15,,73,0
30479,note_on,,0,0,9,,,,,,,,,,,,,,,,15,,68,0
30479,note_on,,239,0,9,,,,,,,,,,,,,,,,15,,52,0
30479,note_on,,0,0,9,,,,,,,,,,,,,,,,15,,64,0
30479,note_on,,29,0,7,,,,,,,,,,,,,,,,10,,73,0
30480,note_on,,1,0,7,,,,,,,,,,,,,,,,10,,71,48
30480,note_on,,0,0,9,,,,,,,,,,,,,,,,15,,57,48
30480,note_on,,0,0,9,,,,,,,,,,,,,,,,15,,66,48
30480,note_on,,0,0,9,,,,,,,,,,,,,,,,15,,75,48
30480,note_on,,1,0,9,,,,,,,,,,,,,,,,15,,54,48
30480,note_on,,1,0,8,,,,,,,,,,,,,,,,13,,54,48
30480,note_on,,1,0,6,,,,,,,,,,,,,,,,5,,75,64
30569,note_on,,89,0,7,,,,,,,,,,,,,,,,10,,71,0
30570,note_on,,1,0,7,,,,,,,,,,,,,,,,10,,73,48
30599,note_on,,119,0,9,,,,,,,,,,,,,,,,15,,54,0
30599,note_on,,0,0,9,,,,,,,,,,,,,,,,15,,75,0
30599,note_on,,0,0,9,,,,,,,,,,,,,,,,15,,57,0
30599,note_on,,119,0,8,,,,,,,,,,,,,,,,13,,54,0
30599,note_on,,29,0,7,,,,,,,,,,,,,,,,10,,73,0
30599,note_on,,0,0,9,,,,,,,,,,,,,,,,15,,66,0
30599,note_on,,119,0,6,,,,,,,,,,,,,,,,5,,75,0
30600,note_on,,0,0,9,,,,,,,,,,,,,,,,15,,71,48
30600,note_on,,1,0,8,,,,,,,,,,,,,,,,13,,56,48
30600,note_on,,1,0,7,,,,,,,,,,,,,,,,10,,71,48
30600,note_on,,1,0,9,,,,,,,,,,,,,,,,15,,56,48
30600,note_on,,1,0,6,,,,,,,,,,,,,,,,5,,76,64
30600,note_on,,0,0,9,,,,,,,,,,,,,,,,15,,59,48
30600,note_on,,0,0,9,,,,,,,,,,,,,,,,15,,64,48
30689,note_on,,89,0,7,,,,,,,,,,,,,,,,10,,71,0
30690,note_on,,1,0,7,,,,,,,,,,,,,,,,10,,73,48
30719,note_on,,29,0,7,,,,,,,,,,,,,,,,10,,73,0
30719,note_on,,119,0,6,,,,,,,,,,,,,,,,5,,76,0
30720,note_on,,1,0,7,,,,,,,,,,,,,,,,10,,71,48
30720,note_on,,1,0,6,,,,,,,,,,,,,,,,5,,75,64
30809,note_on,,89,0,7,,,,,,,,,,,,,,,,10,,71,0
30810,note_on,,1,0,7,,,,,,,,,,,,,,,,10,,73,48
30839,note_on,,29,0,7,,,,,,,,,,,,,,,,10,,73,0
30839,note_on,,119,0,6,,,,,,,,,,,,,,,,5,,75,0
30840,note_on,,240,0,9,,,,,,,,,,,,,,,,15,,73,48
30840,note_on,,1,0,6,,,,,,,,,,,,,,,,5,,73,64
30840,note_on,,1,0,7,,,,,,,,,,,,,,,,10,,71,48
30929,note_on,,89,0,7,,,,,,,,,,,,,,,,10,,71,0
30930,note_on,,1,0,7,,,,,,,,,,,,,,,,10,,73,48
30959,note_on,,0,0,9,,,,,,,,,,,,,,,,15,,64,0
30959,note_on,,29,0,7,,,,,,,,,,,,,,,,10,,73,0
30959,note_on,,119,0,9,,,,,,,,,,,,,,,,15,,56,0
30959,note_on,,119,0,6,,,,,,,,,,,,,,,,5,,73,0
30959,note_on,,0,0,9,,,,,,,,,,,,,,,,15,,59,0
30959,note_on,,0,0,9,,,,,,,,,,,,,,,,15,,71,0
30959,note_on,,0,0,9,,,,,,,,,,,,,,,,15,,73,0
30959,note_on,,359,0,8,,,,,,,,,,,,,,,,13,,56,0
30960,note_on,,0,0,9,,,,,,,,,,,,,,,,15,,75,48
30960,note_on,,0,0,9,,,,,,,,,,,,,,,,15,,59,48
30960,note_on,,1,0,7,,,,,,,,,,,,,,,,10,,71,48
30960,note_on,,0,0,9,,,,,,,,,,,,,,,,15,,71,48
30960,note_on,,1,0,6,,,,,,,,,,,,,,,,5,,75,64
30960,note_on,,1,0,9,,,,,,,,,,,,,,,,15,,54,48
30960,note_on,,1,0,8,,,,,,,,,,,,,,,,13,,54,48
30960,note_on,,0,0,9,,,,,,,,,,,,,,,,15,,66,48
31019,note_on,,59,0,6,,,,,,,,,,,,,,,,5,,75,0
31020,note_on,,1,0,6,,,,,,,,,,,,,,,,5,,76,64
31049,note_on,,89,0,7,,,,,,,,,,,,,,,,10,,71,0
31050,note_on,,1,0,7,,,,,,,,,,,,,,,,10,,73,48
31064,note_on,,44,0,6,,,,,,,,,,,,,,,,5,,76,0
31065,note_on,,1,0,6,,,,,,,,,,,,,,,,5,,75,64
31079,note_on,,0,0,9,,,,,,,,,,,,,,,,15,,59,0
31079,note_on,,0,0,9,,,,,,,,,,,,,,,,15,,66,0
31079,note_on,,0,0,9,,,,,,,,,,,,,,,,15,,71,0
31079,note_on,,119,0,9,,,,,,,,,,,,,,,,15,,75,0
31079,note_on,,14,0,6,,,,,,,,,,,,,,,,5,,75,0
31079,note_on,,29,0,7,,,,,,,,,,,,,,,,10,,73,0
31080,note_on,,1,0,7,,,,,,,,,,,,,,,,10,,71,48
31080,note_on,,1,0,6,,,,,,,,,,,,,,,,5,,73,64
31080,note_on,,0,0,9,,,,,,,,,,,,,,,,15,,66,48
31080,note_on,,0,0,9,,,,,,,,,,,,,,,,15,,73,48
31080,note_on,,0,0,9,,,,,,,,,,,,,,,,15,,71,48
31080,note_on,,1,0,9,,,,,,,,,,,,,,,,15,,61,48
31199,note_on,,119,0,7,,,,,,,,,,,,,,,,10,,71,0
31199,note_on,,239,0,8,,,,,,,,,,,,,,,,13,,54,0
31199,note_on,,0,0,9,,,,,,,,,,,,,,,,15,,71,0
31199,note_on,,0,0,9,,,,,,,,,,,,,,,,15,,61,0
31199,note_on,,119,0,9,,,,,,,,,,,,,,,,15,,54,0
31200,note_on,,0,0,9,,,,,,,,,,,,,,,,15,,70,48
31200,note_on,,0,0,9,,,,,,,,,,,,,,,,15,,66,48
31200,note_on,,1,0,7,,,,,,,,,,,,,,,,10,,70,48
31200,note_on,,1,0,8,,,,,,,,,,,,,,,,13,,42,48
31200,note_on,,1,0,9,,,,,,,,,,,,,,,,15,,42,48
31319,note_on,,119,0,9,,,,,,,,,,,,,,,,15,,73,0
31319,note_on,,0,0,9,,,,,,,,,,,,,,,,15,,66,0
31319,note_on,,0,0,9,,,,,,,,,,,,,,,,15,,66,0
31319,note_on,,0,0,9,,,,,,,,,,,,,,,,15,,42,0
31319,note_on,,0,0,9,,,,,,,,,,,,,,,,15,,70,0
31319,note_on,,119,0,7,,,,,,,,,,,,,,,,10,,70,0
31319,note_on,,119,0,8,,,,,,,,,,,,,,,,13,,42,0
31319,note_on,,239,0,6,,,,,,,,,,,,,,,,5,,73,0
31320,note_on,,1,0,9,,,,,,,,,,,,,,,,15,,47,48
31320,note_on,,0,0,9,,,,,,,,,,,,,,,,15,,71,48
31320,note_on,,0,0,9,,,,,,,,,,,,,,,,15,,66,48
31320,note_on,,0,0,9,,,,,,,,,,,,,,,,15,,63,48
31320,note_on,,1,0,6,,,,,,,,,,,,,,,,5,,71,64
31320,note_on,,1,0,8,,,,,,,,,,,,,,,,13,,47,48
31320,note_on,,1,0,7,,,,,,,,,,,,,,,,10,,71,48
31559,note_on,,0,0,9,,,,,,,,,,,,,,,,15,,63,0
31559,note_on,,0,0,9,,,,,,,,,,,,,,,,15,,66,0
31559,note_on,,0,0,9,,,,,,,,,,,,,,,,15,,71,0
31559,note_on,,239,0,9,,,,,,,,,,,,,,,,15,,47,0
31559,note_on,,239,0,6,,,,,,,,,,,,,,,,5,,71,0
31559,note_on,,239,0,8,,,,,,,,,,,,,,,,13,,47,0
31559,note_on,,239,0,7,,,,,,,,,,,,,,,,10,,71,0
31560,note_on,,1,0,7,,,,,,,,,,,,,,,,10,,78,72
31679,note_on,,119,0,7,,,,,,,,,,,,,,,,10,,78,0
31680,note_on,,1,0,7,,,,,,,,,,,,,,,,10,,80,72
31919,note_on,,239,0,7,,,,,,,,,,,,,,,,10,,80,0
31920,note_on,,361,0,8,,,,,,,,,,,,,,,,13,,54,72
31920,note_on,,0,0,9,,,,,,,,,,,,,,,,15,,66,72
31920,note_on,,1,0,7,,,,,,,,,,,,,,,,10,,75,72
31920,note_on,,361,0,9,,,,,,,,,,,,,,,,15,,54,72
31920,note_on,,0,0,9,,,,,,,,,,,,,,,,15,,70,72
31920,note_on,,5041,0,5,,,,,,,,,,,,,,,,2,,54,72
31920,note_on,,0,0,9,,,,,,,,,,,,,,,,15,,63,72
31934,note_on,,14,0,7,,,,,,,,,,,,,,,,10,,75,0
31935,note_on,,1,0,7,,,,,,,,,,,,,,,,10,,76,72
31949,note_on,,14,0,7,,,,,,,,,,,,,,,,10,,76,0
31950,note_on,,1,0,7,,,,,,,,,,,,,,,,10,,75,72
31964,note_on,,14,0,7,,,,,,,,,,,,,,,,10,,75,0
31965,note_on,,1,0,7,,,,,,,,,,,,,,,,10,,76,72
31979,note_on,,14,0,7,,,,,,,,,,,,,,,,10,,76,0
31980,note_on,,1,0,7,,,,,,,,,,,,,,,,10,,73,72
31994,note_on,,14,0,7,,,,,,,,,,,,,,,,10,,73,0
31995,note_on,,1,0,7,,,,,,,,,,,,,,,,10,,75,72
32009,note_on,,14,0,7,,,,,,,,,,,,,,,,10,,75,0
32010,note_on,,1,0,7,,,,,,,,,,,,,,,,10,,73,72
32039,note_on,,29,0,7,,,,,,,,,,,,,,,,10,,73,0
32039,note_on,,119,0,9,,,,,,,,,,,,,,,,15,,54,0
32039,note_on,,0,0,9,,,,,,,,,,,,,,,,15,,70,0
32039,note_on,,0,0,9,,,,,,,,,,,,,,,,15,,66,0
32039,note_on,,0,0,9,,,,,,,,,,,,,,,,15,,63,0
32039,note_on,,119,0,5,,,,,,,,,,,,,,,,2,,54,0
32039,note_on,,119,0,8,,,,,,,,,,,,,,,,13,,54,0
32040,note_on,,1,0,9,,,,,,,,,,,,,,,,15,,56,72
32040,note_on,,0,0,9,,,,,,,,,,,,,,,,15,,71,72
32040,note_on,,0,0,9,,,,,,,,,,,,,,,,15,,63,72
32040,note_on,,0,0,9,,,,,,,,,,,,,,,,15,,59,72
32040,note_on,,1,0,8,,,,,,,,,,,,,,,,13,,56,72
32040,note_on,,1,0,7,,,,,,,,,,,,,,,,10,,71,72
32040,note_on,,1,0,5,,,,,,,,,,,,,,,,2,,56,72
32279,note_on,,0,0,9,,,,,,,,,,,,,,,,15,,63,0
32279,note_on,,239,0,9,,,,,,,,,,,,,,,,15,,56,0
32279,note_on,,239,0,5,,,,,,,,,,,,,,,,2,,56,0
32279,note_on,,0,0,9,,,,,,,,,,,,,,,,15,,59,0
32279,note_on,,239,0,7,,,,,,,,,,,,,,,,10,,71,0
32279,note_on,,239,0,8,,,,,,,,,,,,,,,,13,,56,0
32280,note_on,,0,0,9,,,,,,,,,,,,,,,,15,,64,72
32280,note_on,,1,0,5,,,,,,,,,,,,,,,,2,,52,72
32280,note_on,,1,0,8,,,,,,,,,,,,,,,,13,,52,72
32280,note_on,,1,0,7,,,,,,,,,,,,,,,,10,,80,72
32280,note_on,,1,0,9,,,,,,,,,,,,,,,,15,,52,72
32280,note_on,,0,0,9,,,,,,,,,,,,,,,,15,,68,72
32399,note_on,,119,0,8,,,,,,,,,,,,,,,,13,,52,0
32399,note_on,,0,0,9,,,,,,,,,,,,,,,,15,,64,0
32399,note_on,,0,0,9,,,,,,,,,,,,,,,,15,,68,0
32399,note_on,,119,0,7,,,,,,,,,,,,,,,,10,,80,0
32399,note_on,,119,0,9,,,,,,,,,,,,,,,,15,,71,0
32399,note_on,,119,0,5,,,,,,,,,,,,,,,,2,,52,0
32399,note_on,,0,0,9,,,,,,,,,,,,,,,,15,,52,0
32400,note_on,,1,0,7,,,,,,,,,,,,,,,,10,,76,72
32400,note_on,,1,0,5,,,,,,,,,,,,,,,,2,,49,72
32400,note_on,,1,0,8,,,,,,,,,,,,,,,,13,,49,72
32400,note_on,,1,0,9,,,,,,,,,,,,,,,,15,,49,72
32400,note_on,,0,0,9,,,,,,,,,,,,,,,,15,,73,72
32400,note_on,,0,0,9,,,,,,,,,,,,,,,,15,,64,72
32400,note_on,,0,0,9,,,,,,,,,,,,,,,,15,,71,72
32579,note_on,,179,0,7,,,,,,,,,,,,,,,,10,,76,0
32580,note_on,,1,0,7,,,,,,,,,,,,,,,,10,,75,72
32639,note_on,,59,0,7,,,,,,,,,,,,,,,,10,,75,0
32639,note_on,,239,0,5,,,,,,,,,,,,,,,,2,,49,0
32639,note_on,,239,0,8,,,,,,,,,,,,,,,,13,,49,0
32639,note_on,,239,0,9,,,,,,,,,,,,,,,,15,,49,0
32639,note_on,,0,0,9,,,,,,,,,,,,,,,,15,,71,0
32639,note_on,,0,0,9,,,,,,,,,,,,,,,,15,,64,0
32640,note_on,,1,0,5,,,,,,,,,,,,,,,,2,,58,72
32640,note_on,,0,0,9,,,,,,,,,,,,,,,,15,,64,72
32640,note_on,,1,0,8,,,,,,,,,,,,,,,,13,,58,72
32640,note_on,,0,0,9,,,,,,,,,,,,,,,,15,,66,72
32640,note_on,,1,0,9,,,,,,,,,,,,,,,,15,,58,72
32640,note_on,,1,0,7,,,,,,,,,,,,,,,,10,,76,72
32759,note_on,,119,0,5,,,,,,,,,,,,,,,,2,,58,0
32759,note_on,,0,0,9,,,,,,,,,,,,,,,,15,,64,0
32759,note_on,,0,0,9,,,,,,,,,,,,,,,,15,,66,0
32759,note_on,,0,0,9,,,,,,,,,,,,,,,,15,,58,0
32759,note_on,,119,0,8,,,,,,,,,,,,,,,,13,,58,0
32759,note_on,,119,0,9,,,,,,,,,,,,,,,,15,,73,0
32759,note_on,,119,0,7,,,,,,,,,,,,,,,,10,,76,0
32760,note_on,,1,0,7,,,,,,,,,,,,,,,,10,,75,72
32760,note_on,,1,0,8,,,,,,,,,,,,,,,,13,,59,72
32760,note_on,,0,0,9,,,,,,,,,,,,,,,,15,,63,72
32760,note_on,,0,0,9,,,,,,,,,,,,,,,,15,,66,72
32760,note_on,,0,0,9,,,,,,,,,,,,,,,,15,,75,72
32760,note_on,,1,0,9,,,,,,,,,,,,,,,,15,,59,72
32760,note_on,,1,0,5,,,,,,,,,,,,,,,,2,,59,72
32999,note_on,,0,0,9,,,,,,,,,,,,,,,,15,,63,0
32999,note_on,,0,0,9,,,,,,,,,,,,,,,,15,,66,0
32999,note_on,,0,0,9,,,,,,,,,,,,,,,,15,,75,0
32999,note_on,,239,0,9,,,,,,,,,,,,,,,,15,,59,0
32999,note_on,,239,0,7,,,,,,,,,,,,,,,,10,,75,0
32999,note_on,,239,0,5,,,,,,,,,,,,,,,,2,,59,0
32999,note_on,,239,0,8,,,,,,,,,,,,,,,,13,,59,0
33000,note_on,,1441,0,6,,,,,,,,,,,,,,,,5,,66,64
33119,note_on,,119,0,6,,,,,,,,,,,,,,,,5,,66,0
33120,note_on,,1,0,6,,,,,,,,,,,,,,,,5,,71,64
33329,note_on,,209,0,6,,,,,,,,,,,,,,,,5,,71,0
33330,note_on,,1,0,6,,,,,,,,,,,,,,,,5,,76,64
33359,note_on,,29,0,6,,,,,,,,,,,,,,,,5,,76,0
33360,note_on,,361,0,8,,,,,,,,,,,,,,,,13,,54,48
33360,note_on,,0,0,9,,,,,,,,,,,,,,,,15,,63,48
33360,note_on,,0,0,9,,,,,,,,,,,,,,,,15,,70,48
33360,note_on,,361,0,9,,,,,,,,,,,,,,,,15,,54,48
33360,note_on,,1,0,6,,,,,,,,,,,,,,,,5,,75,64
33360,note_on,,0,0,9,,,,,,,,,,,,,,,,15,,66,48
33449,note_on,,89,0,6,,,,,,,,,,,,,,,,5,,75,0
33450,note_on,,1,0,6,,,,,,,,,,,,,,,,5,,73,64
33479,note_on,,119,0,9,,,,,,,,,,,,,,,,15,,54,0
33479,note_on,,29,0,6,,,,,,,,,,,,,,,,5,,73,0
33479,note_on,,0,0,9,,,,,,,,,,,,,,,,15,,70,0
33479,note_on,,0,0,9,,,,,,,,,,,,,,,,15,,66,0
33479,note_on,,119,0,8,,,,,,,,,,,,,,,,13,,54,0
33479,note_on,,0,0,9,,,,,,,,,,,,,,,,15,,63,0
33480,note_on,,0,0,9,,,,,,,,,,,,,,,,15,,59,48
33480,note_on,,1,0,8,,,,,,,,,,,,,,,,13,,56,48
33480,note_on,,0,0,9,,,,,,,,,,,,,,,,15,,63,48
33480,note_on,,1,0,9,,,,,,,,,,,,,,,,15,,56,48
33480,note_on,,0,0,9,,,,,,,,,,,,,,,,15,,71,48
33480,note_on,,1,0,6,,,,,,,,,,,,,,,,5,,73,64
33599,note_on,,119,0,6,,,,,,,,,,,,,,,,5,,73,0
33600,note_on,,1,0,6,,,,,,,,,,,,,,,,5,,71,64
33639,note_on,,39,0,6,,,,,,,,,,,,,,,,5,,71,0
33640,note_on,,1,0,6,,,,,,,,,,,,,,,,5,,73,64
33679,note_on,,39,0,6,,,,,,,,,,,,,,,,5,,73,0
33680,note_on,,1,0,6,,,,,,,,,,,,,,,,5,,75,64
33719,note_on,,0,0,9,,,,,,,,,,,,,,,,15,,63,0
33719,note_on,,239,0,9,,,,,,,,,,,,,,,,15,,56,0
33719,note_on,,0,0,9,,,,,,,,,,,,,,,,15,,59,0
33719,note_on,,239,0,8,,,,,,,,,,,,,,,,13,,56,0
33719,note_on,,39,0,6,,,,,,,,,,,,,,,,5,,75,0
33720,note_on,,0,0,9,,,,,,,,,,,,,,,,15,,56,48
33720,note_on,,0,0,9,,,,,,,,,,,,,,,,15,,64,48
33720,note_on,,1,0,9,,,,,,,,,,,,,,,,15,,52,48
33720,note_on,,1,0,6,,,,,,,,,,,,,,,,5,,76,64
33720,note_on,,1,0,8,,,,,,,,,,,,,,,,13,,52,48
33759,note_on,,39,0,6,,,,,,,,,,,,,,,,5,,76,0
33760,note_on,,1,0,6,,,,,,,,,,,,,,,,5,,78,64
33799,note_on,,39,0,6,,,,,,,,,,,,,,,,5,,78,0
33800,note_on,,1,0,6,,,,,,,,,,,,,,,,5,,80,64
33824,note_on,,24,0,6,,,,,,,,,,,,,,,,5,,80,0
33825,note_on,,1,0,6,,,,,,,,,,,,,,,,5,,78,64
33839,note_on,,0,0,9,,,,,,,,,,,,,,,,15,,52,0
33839,note_on,,119,0,8,,,,,,,,,,,,,,,,13,,52,0
33839,note_on,,14,0,6,,,,,,,,,,,,,,,,5,,78,0
33839,note_on,,0,0,9,,,,,,,,,,,,,,,,15,,64,0
33839,note_on,,0,0,9,,,,,,,,,,,,,,,,15,,56,0
33839,note_on,,119,0,9,,,,,,,,,,,,,,,,15,,71,0
33840,note_on,,0,0,9,,,,,,,,,,,,,,,,15,,64,48
33840,note_on,,0,0,9,,,,,,,,,,,,,,,,15,,71,48
33840,note_on,,0,0,9,,,,,,,,,,,,,,,,15,,61,48
33840,note_on,,1,0,8,,,,,,,,,,,,,,,,13,,49,48
33840,note_on,,1,0,6,,,,,,,,,,,,,,,,5,,76,64
33840,note_on,,1,0,9,,,,,,,,,,,,,,,,15,,49,48
33854,note_on,,14,0,6,,,,,,,,,,,,,,,,5,,76,0
33855,note_on,,1,0,6,,,,,,,,,,,,,,,,5,,78,64
33869,note_on,,14,0,6,,,,,,,,,,,,,,,,5,,78,0
33870,note_on,,1,0,6,,,,,,,,,,,,,,,,5,,76,64
33884,note_on,,14,0,6,,,,,,,,,,,,,,,,5,,76,0
33885,note_on,,1,0,6,,,,,,,,,,,,,,,,5,,78,64
33899,note_on,,14,0,6,,,,,,,,,,,,,,,,5,,78,0
33900,note_on,,1,0,6,,,,,,,,,,,,,,,,5,,76,64
33914,note_on,,14,0,6,,,,,,,,,,,,,,,,5,,76,0
33915,note_on,,1,0,6,,,,,,,,,,,,,,,,5,,78,64
33929,note_on,,14,0,6,,,,,,,,,,,,,,,,5,,78,0
33930,note_on,,1,0,6,,,,,,,,,,,,,,,,5,,76,64
33944,note_on,,14,0,6,,,,,,,,,,,,,,,,5,,76,0
33945,note_on,,1,0,6,,,,,,,,,,,,,,,,5,,78,64
33959,note_on,,14,0,6,,,,,,,,,,,,,,,,5,,78,0
33960,note_on,,1,0,6,,,,,,,,,,,,,,,,5,,76,64
33974,note_on,,14,0,6,,,,,,,,,,,,,,,,5,,76,0
33975,note_on,,1,0,6,,,,,,,,,,,,,,,,5,,78,64
33989,note_on,,14,0,6,,,,,,,,,,,,,,,,5,,78,0
33990,note_on,,1,0,6,,,,,,,,,,,,,,,,5,,75,64
34004,note_on,,14,0,6,,,,,,,,,,,,,,,,5,,75,0
34005,note_on,,1,0,6,,,,,,,,,,,,,,,,5,,76,64
34019,note_on,,14,0,6,,,,,,,,,,,,,,,,5,,76,0
34020,note_on,,1,0,6,,,,,,,,,,,,,,,,5,,75,64
34079,note_on,,0,0,9,,,,,,,,,,,,,,,,15,,61,0
34079,note_on,,59,0,6,,,,,,,,,,,,,,,,5,,75,0
34079,note_on,,0,0,9,,,,,,,,,,,,,,,,15,,71,0
34079,note_on,,239,0,9,,,,,,,,,,,,,,,,15,,49,0
34079,note_on,,239,0,8,,,,,,,,,,,,,,,,13,,49,0
34079,note_on,,0,0,9,,,,,,,,,,,,,,,,15,,64,0
34080,note_on,,1,0,8,,,,,,,,,,,,,,,,13,,54,48
34080,note_on,,1,0,9,,,,,,,,,,,,,,,,15,,54,48
34080,note_on,,0,0,9,,,,,,,,,,,,,,,,15,,61,48
34080,note_on,,0,0,9,,,,,,,,,,,,,,,,15,,66,48
34080,note_on,,0,0,9,,,,,,,,,,,,,,,,15,,70,48
34080,note_on,,1,0,6,,,,,,,,,,,,,,,,5,,76,64
34169,note_on,,89,0,6,,,,,,,,,,,,,,,,5,,76,0
34170,note_on,,1,0,6,,,,,,,,,,,,,,,,5,,76,64
34199,note_on,,0,0,9,,,,,,,,,,,,,,,,15,,70,0
34199,note_on,,0,0,9,,,,,,,,,,,,,,,,15,,66,0
34199,note_on,,0,0,9,,,,,,,,,,,,,,,,15,,61,0
34199,note_on,,29,0,6,,,,,,,,,,,,,,,,5,,76,0
34199,note_on,,119,0,8,,,,,,,,,,,,,,,,13,,54,0
34199,note_on,,119,0,9,,,,,,,,,,,,,,,,15,,54,0
34200,note_on,,1,0,6,,,,,,,,,,,,,,,,5,,75,64
34200,note_on,,0,0,9,,,,,,,,,,,,,,,,15,,63,48
34200,note_on,,1,0,9,,,,,,,,,,,,,,,,15,,47,48
34200,note_on,,0,0,9,,,,,,,,,,,,,,,,15,,66,48
34200,note_on,,1,0,8,,,,,,,,,,,,,,,,13,,47,48
34200,note_on,,0,0,9,,,,,,,,,,,,,,,,15,,71,48
34319,note_on,,119,0,6,,,,,,,,,,,,,,,,5,,75,0
34320,note_on,,1,0,6,,,,,,,,,,,,,,,,5,,75,64
34379,note_on,,179,0,9,,,,,,,,,,,,,,,,15,,47,0
34379,note_on,,179,0,8,,,,,,,,,,,,,,,,13,,47,0
34380,note_on,,1,0,9,,,,,,,,,,,,,,,,15,,49,48
34380,note_on,,1381,0,7,,,,,,,,,,,,,,,,10,,69,48
34380,note_on,,1,0,8,,,,,,,,,,,,,,,,13,,49,48
34439,note_on,,0,0,9,,,,,,,,,,,,,,,,15,,66,0
34439,note_on,,59,0,9,,,,,,,,,,,,,,,,15,,71,0
34439,note_on,,59,0,8,,,,,,,,,,,,,,,,13,,49,0
34439,note_on,,119,0,6,,,,,,,,,,,,,,,,5,,75,0
34439,note_on,,0,0,9,,,,,,,,,,,,,,,,15,,63,0
34439,note_on,,0,0,9,,,,,,,,,,,,,,,,15,,49,0
34439,note_on,,59,0,7,,,,,,,,,,,,,,,,10,,69,0
34440,note_on,,1,0,7,,,,,,,,,,,,,,,,10,,68,48
34440,note_on,,1,0,8,,,,,,,,,,,,,,,,13,,47,48
34440,note_on,,1,0,9,,,,,,,,,,,,,,,,15,,47,48
34499,note_on,,59,0,8,,,,,,,,,,,,,,,,13,,47,0
34499,note_on,,59,0,7,,,,,,,,,,,,,,,,10,,68,0
34499,note_on,,59,0,9,,,,,,,,,,,,,,,,15,,47,0
34500,note_on,,1,0,8,,,,,,,,,,,,,,,,13,,45,48
34500,note_on,,1,0,7,,,,,,,,,,,,,,,,10,,66,48
34500,note_on,,1,0,9,,,,,,,,,,,,,,,,15,,45,48
34559,note_on,,59,0,7,,,,,,,,,,,,,,,,10,,66,0
34559,note_on,,59,0,8,,,,,,,,,,,,,,,,13,,45,0
34559,note_on,,59,0,9,,,,,,,,,,,,,,,,15,,45,0
34560,note_on,,1,0,7,,,,,,,,,,,,,,,,10,,64,48
34560,note_on,,1,0,8,,,,,,,,,,,,,,,,13,,44,48
34560,note_on,,0,0,9,,,,,,,,,,,,,,,,15,,59,48
34560,note_on,,0,0,9,,,,,,,,,,,,,,,,15,,71,48
34560,note_on,,1,0,9,,,,,,,,,,,,,,,,15,,44,48
34560,note_on,,0,0,9,,,,,,,,,,,,,,,,15,,64,48
34649,note_on,,89,0,7,,,,,,,,,,,,,,,,10,,64,0
34650,note_on,,1,0,7,,,,,,,,,,,,,,,,10,,66,48
34679,note_on,,119,0,8,,,,,,,,,,,,,,,,13,,44,0
34679,note_on,,119,0,9,,,,,,,,,,,,,,,,15,,44,0
34679,note_on,,0,0,9,,,,,,,,,,,,,,,,15,,71,0
34679,note_on,,0,0,9,,,,,,,,,,,,,,,,15,,64,0
34679,note_on,,0,0,9,,,,,,,,,,,,,,,,15,,59,0
34679,note_on,,29,0,7,,,,,,,,,,,,,,,,10,,66,0
34680,note_on,,241,0,6,,,,,,,,,,,,,,,,5,,71,64
34680,note_on,,1,0,7,,,,,,,,,,,,,,,,10,,64,48
34769,note_on,,89,0,7,,,,,,,,,,,,,,,,10,,64,0
34770,note_on,,1,0,7,,,,,,,,,,,,,,,,10,,66,48
34799,note_on,,29,0,7,,,,,,,,,,,,,,,,10,,66,0
34799,note_on,,119,0,6,,,,,,,,,,,,,,,,5,,71,0
34800,note_on,,1,0,6,,,,,,,,,,,,,,,,5,,76,64
34800,note_on,,1,0,7,,,,,,,,,,,,,,,,10,,64,48
34889,note_on,,89,0,7,,,,,,,,,,,,,,,,10,,64,0
34890,note_on,,1,0,7,,,,,,,,,,,,,,,,10,,66,48
34919,note_on,,29,0,7,,,,,,,,,,,,,,,,10,,66,0
34919,note_on,,119,0,6,,,,,,,,,,,,,,,,5,,76,0
34920,note_on,,241,0,8,,,,,,,,,,,,,,,,13,,45,48
34920,note_on,,0,0,9,,,,,,,,,,,,,,,,15,,66,48
34920,note_on,,0,0,9,,,,,,,,,,,,,,,,15,,61,48
34920,note_on,,0,0,9,,,,,,,,,,,,,,,,15,,64,48
34920,note_on,,1,0,7,,,,,,,,,,,,,,,,10,,64,48
34920,note_on,,241,0,9,,,,,,,,,,,,,,,,15,,45,48
34920,note_on,,1,0,6,,,,,,,,,,,,,,,,5,,66,64
35009,note_on,,89,0,7,,,,,,,,,,,,,,,,10,,64,0
35010,note_on,,1,0,7,,,,,,,,,,,,,,,,10,,66,48
35039,note_on,,0,0,9,,,,,,,,,,,,,,,,15,,64,0
35039,note_on,,0,0,9,,,,,,,,,,,,,,,,15,,66,0
35039,note_on,,119,0,9,,,,,,,,,,,,,,,,15,,45,0
35039,note_on,,119,0,8,,,,,,,,,,,,,,,,13,,45,0
35039,note_on,,29,0,7,,,,,,,,,,,,,,,,10,,66,0
35039,note_on,,0,0,9,,,,,,,,,,,,,,,,15,,61,0
35040,note_on,,1,0,7,,,,,,,,,,,,,,,,10,,64,48
35129,note_on,,89,0,7,,,,,,,,,,,,,,,,10,,64,0
35130,note_on,,1,0,7,,,,,,,,,,,,,,,,10,,66,48
35159,note_on,,29,0,7,,,,,,,,,,,,,,,,10,,66,0
35159,note_on,,239,0,6,,,,,,,,,,,,,,,,5,,66,0
35160,note_on,,1,0,7,,,,,,,,,,,,,,,,10,,64,48
35160,note_on,,1,0,6,,,,,,,,,,,,,,,,5,,69,64
35249,note_on,,89,0,7,,,,,,,,,,,,,,,,10,,64,0
35249,note_on,,89,0,6,,,,,,,,,,,,,,,,5,,69,0
35250,note_on,,1,0,6,,,,,,,,,,,,,,,,5,,69,64
35250,note_on,,1,0,7,,,,,,,,,,,,,,,,10,,66,48
35279,note_on,,29,0,7,,,,,,,,,,,,,,,,10,,66,0
35279,note_on,,29,0,6,,,,,,,,,,,,,,,,5,,69,0
35280,note_on,,0,0,9,,,,,,,,,,,,,,,,15,,64,48
35280,note_on,,1,0,6,,,,,,,,,,,,,,,,5,,68,64
35280,note_on,,241,0,8,,,,,,,,,,,,,,,,13,,47,48
35280,note_on,,0,0,9,,,,,,,,,,,,,,,,15,,68,48
35280,note_on,,0,0,9,,,,,,,,,,,,,,,,15,,59,48
35280,note_on,,1,0,7,,,,,,,,,,,,,,,,10,,64,48
35280,note_on,,241,0,9,,,,,,,,,,,,,,,,15,,47,48
35369,note_on,,89,0,7,,,,,,,,,,,,,,,,10,,64,0
35370,note_on,,1,0,7,,,,,,,,,,,,,,,,10,,66,48
35399,note_on,,119,0,9,,,,,,,,,,,,,,,,15,,47,0
35399,note_on,,0,0,9,,,,,,,,,,,,,,,,15,,68,0
35399,note_on,,0,0,9,,,,,,,,,,,,,,,,15,,64,0
35399,note_on,,0,0,9,,,,,,,,,,,,,,,,15,,59,0
35399,note_on,,119,0,8,,,,,,,,,,,,,,,,13,,47,0
35399,note_on,,29,0,7,,,,,,,,,,,,,,,,10,,66,0
35400,note_on,,1,0,7,,,,,,,,,,,,,,,,10,,64,48
35489,note_on,,89,0,7,,,,,,,,,,,,,,,,10,,64,0
35490,note_on,,1,0,7,,,,,,,,,,,,,,,,10,,66,48
35519,note_on,,239,0,6,,,,,,,,,,,,,,,,5,,68,0
35519,note_on,,29,0,7,,,,,,,,,,,,,,,,10,,66,0
35520,note_on,,1,0,6,,,,,,,,,,,,,,,,5,,71,64
35520,note_on,,1,0,7,,,,,,,,,,,,,,,,10,,64,48
35609,note_on,,89,0,6,,,,,,,,,,,,,,,,5,,71,0
35609,note_on,,89,0,7,,,,,,,,,,,,,,,,10,,64,0
35610,note_on,,1,0,6,,,,,,,,,,,,,,,,5,,71,64
35610,note_on,,1,0,7,,,,,,,,,,,,,,,,10,,66,48
35639,note_on,,29,0,6,,,,,,,,,,,,,,,,5,,71,0
35639,note_on,,29,0,7,,,,,,,,,,,,,,,,10,,66,0
35640,note_on,,1,0,7,,,,,,,,,,,,,,,,10,,64,48
35640,note_on,,241,0,9,,,,,,,,,,,,,,,,15,,49,48
35640,note_on,,0,0,9,,,,,,,,,,,,,,,,15,,69,48
35640,note_on,,0,0,9,,,,,,,,,,,,,,,,15,,64,48
35640,note_on,,0,0,9,,,,,,,,,,,,,,,,15,,57,48
35640,note_on,,1,0,6,,,,,,,,,,,,,,,,5,,69,64
35640,note_on,,241,0,8,,,,,,,,,,,,,,,,13,,49,48
35729,note_on,,89,0,7,,,,,,,,,,,,,,,,10,,64,0
35730,note_on,,1,0,7,,,,,,,,,,,,,,,,10,,66,48
35759,note_on,,119,0,8,,,,,,,,,,,,,,,,13,,49,0
35759,note_on,,119,0,6,,,,,,,,,,,,,,,,5,,69,0
35759,note_on,,0,0,9,,,,,,,,,,,,,,,,15,,57,0
35759,note_on,,29,0,7,,,,,,,,,,,,,,,,10,,66,0
35759,note_on,,119,0,9,,,,,,,,,,,,,,,,15,,49,0
35759,note_on,,0,0,9,,,,,,,,,,,,,,,,15,,69,0
35759,note_on,,0,0,9,,,,,,,,,,,,,,,,15,,64,0
35760,note_on,,1,0,6,,,,,,,,,,,,,,,,5,,69,64
35760,note_on,,1,0,7,,,,,,,,,,,,,,,,10,,64,48
35849,note_on,,89,0,7,,,,,,,,,,,,,,,,10,,64,0
35850,note_on,,1,0,7,,,,,,,,,,,,,,,,10,,66,48
35879,note_on,,119,0,6,,,,,,,,,,,,,,,,5,,69,0
35879,note_on,,29,0,7,,,,,,,,,,,,,,,,10,,66,0
35880,note_on,,1,0,6,,,,,,,,,,,,,,,,5,,76,64
35880,note_on,,1,0,7,,,,,,,,,,,,,,,,10,,64,48
35969,note_on,,89,0,7,,,,,,,,,,,,,,,,10,,64,0
35970,note_on,,1,0,7,,,,,,,,,,,,,,,,10,,66,48
35999,note_on,,119,0,6,,,,,,,,,,,,,,,,5,,76,0
35999,note_on,,29,0,7,,,,,,,,,,,,,,,,10,,66,0
36000,note_on,,0,0,9,,,,,,,,,,,,,,,,15,,59,48
36000,note_on,,241,0,9,,,,,,,,,,,,,,,,15,,56,48
36000,note_on,,0,0,9,,,,,,,,,,,,,,,,15,,64,48
36000,note_on,,241,0,8,,,,,,,,,,,,,,,,13,,56,48
36000,note_on,,1,0,6,,,,,,,,,,,,,,,,5,,71,64
36000,note_on,,1,0,7,,,,,,,,,,,,,,,,10,,64,48
36089,note_on,,89,0,7,,,,,,,,,,,,,,,,10,,64,0
36090,note_on,,1,0,7,,,,,,,,,,,,,,,,10,,66,48
36119,note_on,,29,0,7,,,,,,,,,,,,,,,,10,,66,0
36119,note_on,,119,0,8,,,,,,,,,,,,,,,,13,,56,0
36119,note_on,,0,0,9,,,,,,,,,,,,,,,,15,,64,0
36119,note_on,,119,0,9,,,,,,,,,,,,,,,,15,,56,0
36119,note_on,,0,0,9,,,,,,,,,,,,,,,,15,,59,0
36120,note_on,,1,0,7,,,,,,,,,,,,,,,,10,,64,48
36209,note_on,,89,0,7,,,,,,,,,,,,,,,,10,,64,0
36210,note_on,,1,0,7,,,,,,,,,,,,,,,,10,,66,48
36239,note_on,,239,0,6,,,,,,,,,,,,,,,,5,,71,0
36239,note_on,,29,0,7,,,,,,,,,,,,,,,,10,,66,0
36240,note_on,,1,0,7,,,,,,,,,,,,,,,,10,,64,48
36240,note_on,,1,0,6,,,,,,,,,,,,,,,,5,,74,64
36329,note_on,,89,0,6,,,,,,,,,,,,,,,,5,,74,0
36329,note_on,,89,0,7,,,,,,,,,,,,,,,,10,,64,0
36330,note_on,,1,0,7,,,,,,,,,,,,,,,,10,,66,48
36330,note_on,,1,0,6,,,,,,,,,,,,,,,,5,,74,64
36359,note_on,,29,0,7,,,,,,,,,,,,,,,,10,,66,0
36359,note_on,,29,0,6,,,,,,,,,,,,,,,,5,,74,0
36360,note_on,,0,0,9,,,,,,,,,,,,,,,,15,,64,48
36360,note_on,,0,0,9,,,,,,,,,,,,,,,,15,,61,48
36360,note_on,,241,0,8,,,,,,,,,,,,,,,,13,,57,48
36360,note_on,,1,0,6,,,,,,,,,,,,,,,,5,,73,64
36360,note_on,,0,0,9,,,,,,,,,,,,,,,,15,,69,48
36360,note_on,,1,0,7,,,,,,,,,,,,,,,,10,,64,48
36360,note_on,,241,0,9,,,,,,,,,,,,,,,,15,,57,48
36479,note_on,,119,0,9,,,,,,,,,,,,,,,,15,,57,0
36479,note_on,,0,0,9,,,,,,,,,,,,,,,,15,,69,0
36479,note_on,,119,0,8,,,,,,,,,,,,,,,,13,,57,0
36480,note_on,,1,0,9,,,,,,,,,,,,,,,,15,,52,48
36480,note_on,,0,0,9,,,,,,,,,,,,,,,,15,,68,48
36480,note_on,,1,0,8,,,,,,,,,,,,,,,,13,,52,48
36539,note_on,,179,0,7,,,,,,,,,,,,,,,,10,,64,0
36539,note_on,,179,0,6,,,,,,,,,,,,,,,,5,,73,0
36540,note_on,,1,0,7,,,,,,,,,,,,,,,,10,,62,48
36540,note_on,,1,0,6,,,,,,,,,,,,,,,,5,,71,64
36599,note_on,,119,0,9,,,,,,,,,,,,,,,,15,,64,0
36599,note_on,,0,0,9,,,,,,,,,,,,,,,,15,,61,0
36599,note_on,,0,0,9,,,,,,,,,,,,,,,,15,,52,0
36599,note_on,,119,0,8,,,,,,,,,,,,,,,,13,,52,0
36599,note_on,,59,0,6,,,,,,,,,,,,,,,,5,,71,0
36599,note_on,,59,0,7,,,,,,,,,,,,,,,,10,,62,0
36599,note_on,,0,0,9,,,,,,,,,,,,,,,,15,,68,0
36600,note_on,,1,0,8,,,,,,,,,,,,,,,,13,,54,48
36600,note_on,,1,0,6,,,,,,,,,,,,,,,,5,,69,64
36600,note_on,,1,0,7,,,,,,,,,,,,,,,,10,,61,48
36600,note_on,,1,0,9,,,,,,,,,,,,,,,,15,,54,48
36600,note_on,,0,0,9,,,,,,,,,,,,,,,,15,,66,48
36600,note_on,,0,0,9,,,,,,,,,,,,,,,,15,,57,48
36600,note_on,,0,0,9,,,,,,,,,,,,,,,,15,,61,48
36719,note_on,,119,0,7,,,,,,,,,,,,,,,,10,,61,0
36719,note_on,,0,0,9,,,,,,,,,,,,,,,,15,,61,0
36719,note_on,,0,0,9,,,,,,,,,,,,,,,,15,,57,0
36719,note_on,,119,0,6,,,,,,,,,,,,,,,,5,,69,0
36719,note_on,,119,0,8,,,,,,,,,,,,,,,,13,,54,0
36719,note_on,,119,0,9,,,,,,,,,,,,,,,,15,,54,0
36719,note_on,,0,0,9,,,,,,,,,,,,,,,,15,,66,0
36720,note_on,,1,0,9,,,,,,,,,,,,,,,,15,,50,48
36720,note_on,,1,0,8,,,,,,,,,,,,,,,,13,,50,48
36720,note_on,,1,0,7,,,,,,,,,,,,,,,,10,,62,48
36720,note_on,,1,0,6,,,,,,,,,,,,,,,,5,,71,64
36720,note_on,,0,0,9,,,,,,,,,,,,,,,,15,,59,48
36720,note_on,,0,0,9,,,,,,,,,,,,,,,,15,,62,48
36720,note_on,,0,0,9,,,,,,,,,,,,,,,,15,,66,48
36794,note_on,,74,0,6,,,,,,,,,,,,,,,,5,,71,0
36795,note_on,,1,0,6,,,,,,,,,,,,,,,,5,,73,64
36809,note_on,,14,0,6,,,,,,,,,,,,,,,,5,,73,0
36810,note_on,,1,0,6,,,,,,,,,,,,,,,,5,,69,64
36839,note_on,,29,0,6,,,,,,,,,,,,,,,,5,,69,0
36839,note_on,,119,0,7,,,,,,,,,,,,,,,,10,,62,0
36839,note_on,,119,0,9,,,,,,,,,,,,,,,,15,,50,0
36839,note_on,,119,0,8,,,,,,,,,,,,,,,,13,,50,0
36839,note_on,,0,0,9,,,,,,,,,,,,,,,,15,,59,0
36839,note_on,,0,0,9,,,,,,,,,,,,,,,,15,,62,0
36839,note_on,,0,0,9,,,,,,,,,,,,,,,,15,,66,0
36840,note_on,,1,0,8,,,,,,,,,,,,,,,,13,,52,48
36840,note_on,,0,0,9,,,,,,,,,,,,,,,,15,,56,48
36840,note_on,,0,0,9,,,,,,,,,,,,,,,,15,,64,48
36840,note_on,,0,0,9,,,,,,,,,,,,,,,,15,,59,48
36840,note_on,,1,0,9,,,,,,,,,,,,,,,,15,,52,48
36840,note_on,,1,0,7,,,,,,,,,,,,,,,,10,,59,48
36840,note_on,,1,0,6,,,,,,,,,,,,,,,,5,,68,64
36854,note_on,,14,0,6,,,,,,,,,,,,,,,,5,,68,0
36855,note_on,,1,0,6,,,,,,,,,,,,,,,,5,,69,64
36869,note_on,,14,0,6,,,,,,,,,,,,,,,,5,,69,0
36870,note_on,,1,0,6,,,,,,,,,,,,,,,,5,,68,64
36884,note_on,,14,0,6,,,,,,,,,,,,,,,,5,,68,0
36885,note_on,,1,0,6,,,,,,,,,,,,,,,,5,,69,64
36899,note_on,,14,0,6,,,,,,,,,,,,,,,,5,,69,0
36900,note_on,,1,0,6,,,,,,,,,,,,,,,,5,,68,64
36914,note_on,,14,0,6,,,,,,,,,,,,,,,,5,,68,0
36915,note_on,,1,0,6,,,,,,,,,,,,,,,,5,,69,64
36929,note_on,,14,0,6,,,,,,,,,,,,,,,,5,,69,0
36930,note_on,,1,0,6,,,,,,,,,,,,,,,,5,,68,64
36944,note_on,,14,0,6,,,,,,,,,,,,,,,,5,,68,0
36945,note_on,,1,0,6,,,,,,,,,,,,,,,,5,,69,64
36959,note_on,,14,0,6,,,,,,,,,,,,,,,,5,,69,0
36959,note_on,,119,0,8,,,,,,,,,,,,,,,,13,,52,0
36959,note_on,,119,0,7,,,,,,,,,,,,,,,,10,,59,0
36959,note_on,,0,0,9,,,,,,,,,,,,,,,,15,,59,0
36959,note_on,,119,0,9,,,,,,,,,,,,,,,,15,,52,0
36960,note_on,,1,0,7,,,,,,,,,,,,,,,,10,,64,48
36960,note_on,,1,0,8,,,,,,,,,,,,,,,,13,,40,48
36960,note_on,,1,0,6,,,,,,,,,,,,,,,,5,,68,64
36960,note_on,,0,0,9,,,,,,,,,,,,,,,,15,,63,48
36960,note_on,,1,0,9,,,,,,,,,,,,,,,,15,,40,48
36974,note_on,,14,0,6,,,,,,,,,,,,,,,,5,,68,0
36975,note_on,,1,0,6,,,,,,,,,,,,,,,,5,,69,64
36989,note_on,,14,0,6,,,,,,,,,,,,,,,,5,,69,0
36990,note_on,,1,0,6,,,,,,,,,,,,,,,,5,,68,64
37004,note_on,,14,0,6,,,,,,,,,,,,,,,,5,,68,0
37005,note_on,,1,0,6,,,,,,,,,,,,,,,,5,,69,64
37019,note_on,,14,0,6,,,,,,,,,,,,,,,,5,,69,0
37020,note_on,,1,0,6,,,,,,,,,,,,,,,,5,,68,64
37034,note_on,,14,0,6,,,,,,,,,,,,,,,,5,,68,0
37035,note_on,,1,0,6,,,,,,,,,,,,,,,,5,,69,64
37049,note_on,,14,0,6,,,,,,,,,,,,,,,,5,,69,0
37050,note_on,,1,0,6,,,,,,,,,,,,,,,,5,,66,64
37064,note_on,,14,0,6,,,,,,,,,,,,,,,,5,,66,0
37065,note_on,,1,0,6,,,,,,,,,,,,,,,,5,,68,64
37079,note_on,,119,0,9,,,,,,,,,,,,,,,,15,,64,0
37079,note_on,,0,0,9,,,,,,,,,,,,,,,,15,,56,0
37079,note_on,,0,0,9,,,,,,,,,,,,,,,,15,,40,0
37079,note_on,,0,0,9,,,,,,,,,,,,,,,,15,,63,0
37079,note_on,,14,0,6,,,,,,,,,,,,,,,,5,,68,0
37079,note_on,,119,0,8,,,,,,,,,,,,,,,,13,,40,0
37079,note_on,,119,0,7,,,,,,,,,,,,,,,,10,,64,0
37080,note_on,,1,0,7,,,,,,,,,,,,,,,,10,,61,48
37080,note_on,,1,0,6,,,,,,,,,,,,,,,,5,,69,64
37080,note_on,,1,0,8,,,,,,,,,,,,,,,,13,,45,48
37080,note_on,,0,0,9,,,,,,,,,,,,,,,,15,,57,48
37080,note_on,,0,0,9,,,,,,,,,,,,,,,,15,,61,48
37080,note_on,,0,0,9,,,,,,,,,,,,,,,,15,,64,48
37080,note_on,,1,0,9,,,,,,,,,,,,,,,,15,,45,48
37199,note_on,,119,0,7,,,,,,,,,,,,,,,,10,,61,0
37260,note_on,,61,0,7,,,,,,,,,,,,,,,,10,,73,72
37319,note_on,,0,0,9,,,,,,,,,,,,,,,,15,,57,0
37319,note_on,,0,0,9,,,,,,,,,,,,,,,,15,,64,0
37319,note_on,,239,0,9,,,,,,,,,,,,,,,,15,,45,0
37319,note_on,,0,0,9,,,,,,,,,,,,,,,,15,,61,0
37319,note_on,,59,0,7,,,,,,,,,,,,,,,,10,,73,0
37319,note_on,,239,0,6,,,,,,,,,,,,,,,,5,,69,0
37319,note_on,,239,0,8,,,,,,,,,,,,,,,,13,,45,0
37320,note_on,,1,0,7,,,,,,,,,,,,,,,,10,,71,72
37379,note_on,,59,0,7,,,,,,,,,,,,,,,,10,,71,0
37380,note_on,,1,0,7,,,,,,,,,,,,,,,,10,,69,72
37439,note_on,,59,0,7,,,,,,,,,,,,,,,,10,,69,0
37440,note_on,,1,0,7,,,,,,,,,,,,,,,,10,,64,72
37620,note_on,,301,0,6,,,,,,,,,,,,,,,,5,,73,64
37679,note_on,,59,0,6,,,,,,,,,,,,,,,,5,,73,0
37679,note_on,,239,0,7,,,,,,,,,,,,,,,,10,,64,0
37680,note_on,,1,0,6,,,,,,,,,,,,,,,,5,,71,64
37739,note_on,,59,0,6,,,,,,,,,,,,,,,,5,,71,0
37740,note_on,,1,0,6,,,,,,,,,,,,,,,,5,,69,64
37799,note_on,,59,0,6,,,,,,,,,,,,,,,,5,,69,0
37800,note_on,,1,0,6,,,,,,,,,,,,,,,,5,,76,64
37980,note_on,,661,0,8,,,,,,,,,,,,,,,,13,,61,48
37980,note_on,,661,0,9,,,,,,,,,,,,,,,,15,,61,48
37980,note_on,,0,0,9,,,,,,,,,,,,,,,,15,,69,48
37980,note_on,,0,0,9,,,,,,,,,,,,,,,,15,,64,48
38039,note_on,,0,0,9,,,,,,,,,,,,,,,,15,,69,0
38039,note_on,,59,0,9,,,,,,,,,,,,,,,,15,,61,0
38039,note_on,,59,0,8,,,,,,,,,,,,,,,,13,,61,0
38039,note_on,,0,0,9,,,,,,,,,,,,,,,,15,,64,0
38040,note_on,,0,0,9,,,,,,,,,,,,,,,,15,,62,48
38040,note_on,,1,0,9,,,,,,,,,,,,,,,,15,,59,48
38040,note_on,,0,0,9,,,,,,,,,,,,,,,,15,,68,48
38040,note_on,,1,0,8,,,,,,,,,,,,,,,,13,,59,48
38099,note_on,,59,0,8,,,,,,,,,,,,,,,,13,,59,0
38099,note_on,,59,0,9,,,,,,,,,,,,,,,,15,,59,0
38099,note_on,,0,0,9,,,,,,,,,,,,,,,,15,,68,0
38099,note_on,,0,0,9,,,,,,,,,,,,,,,,15,,62,0
38100,note_on,,1,0,8,,,,,,,,,,,,,,,,13,,57,48
38100,note_on,,1,0,9,,,,,,,,,,,,,,,,15,,57,48
38100,note_on,,0,0,9,,,,,,,,,,,,,,,,15,,66,48
38100,note_on,,0,0,9,,,,,,,,,,,,,,,,15,,61,48
38159,note_on,,59,0,8,,,,,,,,,,,,,,,,13,,57,0
38159,note_on,,59,0,9,,,,,,,,,,,,,,,,15,,57,0
38159,note_on,,0,0,9,,,,,,,,,,,,,,,,15,,66,0
38159,note_on,,0,0,9,,,,,,,,,,,,,,,,15,,61,0
38160,note_on,,1,0,9,,,,,,,,,,,,,,,,15,,52,48
38160,note_on,,0,0,9,,,,,,,,,,,,,,,,15,,64,48
38160,note_on,,0,0,9,,,,,,,,,,,,,,,,15,,68,48
38160,note_on,,0,0,9,,,,,,,,,,,,,,,,15,,59,48
38160,note_on,,1,0,8,,,,,,,,,,,,,,,,13,,52,48
38340,note_on,,661,0,7,,,,,,,,,,,,,,,,10,,74,48
38399,note_on,,59,0,7,,,,,,,,,,,,,,,,10,,74,0
38399,note_on,,599,0,6,,,,,,,,,,,,,,,,5,,76,0
38399,note_on,,239,0,9,,,,,,,,,,,,,,,,15,,64,0
38399,note_on,,0,0,9,,,,,,,,,,,,,,,,15,,59,0
38399,note_on,,0,0,9,,,,,,,,,,,,,,,,15,,68,0
38400,note_on,,0,0,9,,,,,,,,,,,,,,,,15,,68,48
38400,note_on,,1,0,9,,,,,,,,,,,,,,,,15,,73,48
38400,note_on,,1,0,7,,,,,,,,,,,,,,,,10,,73,48
38400,note_on,,0,0,9,,,,,,,,,,,,,,,,15,,64,48
38400,note_on,,1,0,6,,,,,,,,,,,,,,,,5,,76,64
38459,note_on,,59,0,7,,,,,,,,,,,,,,,,10,,73,0
38460,note_on,,1,0,7,,,,,,,,,,,,,,,,10,,71,48
38519,note_on,,119,0,9,,,,,,,,,,,,,,,,15,,73,0
38519,note_on,,119,0,6,,,,,,,,,,,,,,,,5,,76,0
38519,note_on,,59,0,7,,,,,,,,,,,,,,,,10,,71,0
38519,note_on,,0,0,9,,,,,,,,,,,,,,,,15,,68,0
38519,note_on,,0,0,9,,,,,,,,,,,,,,,,15,,64,0
38520,note_on,,1,0,6,,,,,,,,,,,,,,,,5,,78,64
38520,note_on,,1,0,9,,,,,,,,,,,,,,,,15,,78,48
38520,note_on,,1,0,7,,,,,,,,,,,,,,,,10,,69,48
38520,note_on,,0,0,9,,,,,,,,,,,,,,,,15,,69,48
38520,note_on,,0,0,9,,,,,,,,,,,,,,,,15,,73,48
38579,note_on,,59,0,7,,,,,,,,,,,,,,,,10,,69,0
38580,note_on,,1,0,7,,,,,,,,,,,,,,,,10,,68,48
38639,note_on,,59,0,7,,,,,,,,,,,,,,,,10,,68,0
38639,note_on,,119,0,6,,,,,,,,,,,,,,,,5,,78,0
38639,note_on,,0,0,9,,,,,,,,,,,,,,,,15,,73,0
38639,note_on,,0,0,9,,,,,,,,,,,,,,,,15,,78,0
38639,note_on,,119,0,9,,,,,,,,,,,,,,,,15,,52,0
38639,note_on,,0,0,9,,,,,,,,,,,,,,,,15,,69,0
38639,note_on,,479,0,8,,,,,,,,,,,,,,,,13,,52,0
38640,note_on,,1,0,9,,,,,,,,,,,,,,,,15,,50,48
38640,note_on,,1,0,8,,,,,,,,,,,,,,,,13,,50,48
38640,note_on,,1,0,6,,,,,,,,,,,,,,,,5,,66,64
38640,note_on,,0,0,9,,,,,,,,,,,,,,,,15,,69,48
38640,note_on,,1,0,7,,,,,,,,,,,,,,,,10,,66,48
38640,note_on,,0,0,9,,,,,,,,,,,,,,,,15,,66,48
38699,note_on,,59,0,7,,,,,,,,,,,,,,,,10,,66,0
38700,note_on,,1,0,7,,,,,,,,,,,,,,,,10,,64,48
38759,note_on,,59,0,7,,,,,,,,,,,,,,,,10,,64,0
38760,note_on,,1,0,7,,,,,,,,,,,,,,,,10,,62,48
38819,note_on,,59,0,7,,,,,,,,,,,,,,,,10,,62,0
38820,note_on,,1,0,7,,,,,,,,,,,,,,,,10,,61,48
38879,note_on,,59,0,7,,,,,,,,,,,,,,,,10,,61,0
38879,note_on,,239,0,6,,,,,,,,,,,,,,,,5,,66,0
38879,note_on,,239,0,9,,,,,,,,,,,,,,,,15,,69,0
38879,note_on,,0,0,9,,,,,,,,,,,,,,,,15,,66,0
38880,note_on,,1,0,7,,,,,,,,,,,,,,,,10,,59,48
38880,note_on,,0,0,9,,,,,,,,,,,,,,,,15,,68,48
38880,note_on,,1,0,9,,,,,,,,,,,,,,,,15,,71,48
38880,note_on,,0,0,9,,,,,,,,,,,,,,,,15,,64,48
38880,note_on,,1,0,6,,,,,,,,,,,,,,,,5,,68,64
38999,note_on,,119,0,7,,,,,,,,,,,,,,,,10,,59,0
39000,note_on,,1,0,7,,,,,,,,,,,,,,,,10,,64,48
39119,note_on,,479,0,8,,,,,,,,,,,,,,,,13,,50,0
39119,note_on,,119,0,7,,,,,,,,,,,,,,,,10,,64,0
39119,note_on,,239,0,9,,,,,,,,,,,,,,,,15,,50,0
39119,note_on,,0,0,9,,,,,,,,,,,,,,,,15,,71,0
39119,note_on,,0,0,9,,,,,,,,,,,,,,,,15,,68,0
39119,note_on,,0,0,9,,,,,,,,,,,,,,,,15,,64,0
39119,note_on,,239,0,6,,,,,,,,,,,,,,,,5,,68,0
39120,note_on,,1,0,9,,,,,,,,,,,,,,,,15,,49,48
39120,note_on,,1,0,8,,,,,,,,,,,,,,,,13,,49,48
39120,note_on,,0,0,9,,,,,,,,,,,,,,,,15,,76,48
39120,note_on,,0,0,9,,,,,,,,,,,,,,,,15,,69,48
39120,note_on,,0,0,9,,,,,,,,,,,,,,,,15,,64,48
39120,note_on,,1,0,6,,,,,,,,,,,,,,,,5,,69,64
39239,note_on,,119,0,8,,,,,,,,,,,,,,,,13,,49,0
39239,note_on,,119,0,6,,,,,,,,,,,,,,,,5,,69,0
39239,note_on,,119,0,9,,,,,,,,,,,,,,,,15,,49,0
39239,note_on,,0,0,9,,,,,,,,,,,,,,,,15,,69,0
39239,note_on,,0,0,9,,,,,,,,,,,,,,,,15,,64,0
39239,note_on,,0,0,9,,,,,,,,,,,,,,,,15,,76,0
39240,note_on,,1,0,6,,,,,,,,,,,,,,,,5,,74,64
39240,note_on,,0,0,9,,,,,,,,,,,,,,,,15,,62,48
39240,note_on,,0,0,9,,,,,,,,,,,,,,,,15,,66,48
39240,note_on,,0,0,9,,,,,,,,,,,,,,,,15,,69,48
39240,note_on,,1,0,9,,,,,,,,,,,,,,,,15,,54,48
39240,note_on,,1,0,8,,,,,,,,,,,,,,,,13,,54,48
39329,note_on,,89,0,6,,,,,,,,,,,,,,,,5,,74,0
39330,note_on,,1,0,6,,,,,,,,,,,,,,,,5,,73,64
39359,note_on,,29,0,6,,,,,,,,,,,,,,,,5,,73,0
39359,note_on,,119,0,8,,,,,,,,,,,,,,,,13,,54,0
39359,note_on,,0,0,9,,,,,,,,,,,,,,,,15,,62,0
39359,note_on,,0,0,9,,,,,,,,,,,,,,,,15,,66,0
39359,note_on,,0,0,9,,,,,,,,,,,,,,,,15,,69,0
39359,note_on,,119,0,9,,,,,,,,,,,,,,,,15,,54,0
39360,note_on,,0,0,9,,,,,,,,,,,,,,,,15,,66,48
39360,note_on,,1,0,6,,,,,,,,,,,,,,,,5,,71,64
39360,note_on,,1,0,9,,,,,,,,,,,,,,,,15,,50,48
39360,note_on,,1,0,8,,,,,,,,,,,,,,,,13,,50,48
39360,note_on,,0,0,9,,,,,,,,,,,,,,,,15,,62,48
39360,note_on,,0,0,9,,,,,,,,,,,,,,,,15,,71,48
39479,note_on,,119,0,9,,,,,,,,,,,,,,,,15,,50,0
39479,note_on,,119,0,8,,,,,,,,,,,,,,,,13,,50,0
39479,note_on,,0,0,9,,,,,,,,,,,,,,,,15,,62,0
39479,note_on,,0,0,9,,,,,,,,,,,,,,,,15,,66,0
39480,note_on,,1,0,8,,,,,,,,,,,,,,,,13,,52,48
39480,note_on,,0,0,9,,,,,,,,,,,,,,,,15,,68,48
39480,note_on,,0,0,9,,,,,,,,,,,,,,,,15,,59,48
39480,note_on,,1,0,9,,,,,,,,,,,,,,,,15,,52,48
39569,note_on,,209,0,6,,,,,,,,,,,,,,,,5,,71,0
39570,note_on,,1,0,6,,,,,,,,,,,,,,,,5,,69,64
39599,note_on,,29,0,6,,,,,,,,,,,,,,,,5,,69,0
39599,note_on,,119,0,9,,,,,,,,,,,,,,,,15,,71,0
39599,note_on,,0,0,9,,,,,,,,,,,,,,,,15,,59,0
39599,note_on,,0,0,9,,,,,,,,,,,,,,,,15,,68,0
39599,note_on,,119,0,8,,,,,,,,,,,,,,,,13,,52,0
39599,note_on,,0,0,9,,,,,,,,,,,,,,,,15,,52,0
39600,note_on,,0,0,9,,,,,,,,,,,,,,,,15,,64,48
39600,note_on,,0,0,9,,,,,,,,,,,,,,,,15,,69,48
39600,note_on,,0,0,9,,,,,,,,,,,,,,,,15,,73,48
39600,note_on,,1,0,9,,,,,,,,,,,,,,,,15,,45,48
39600,note_on,,1,0,8,,,,,,,,,,,,,,,,13,,45,48
39600,note_on,,1,0,6,,,,,,,,,,,,,,,,5,,69,64
39839,note_on,,239,0,6,,,,,,,,,,,,,,,,5,,69,0
39839,note_on,,0,0,9,,,,,,,,,,,,,,,,15,,69,0
39839,note_on,,0,0,9,,,,,,,,,,,,,,,,15,,73,0
39839,note_on,,239,0,9,,,,,,,,,,,,,,,,15,,45,0
39839,note_on,,0,0,9,,,,,,,,,,,,,,,,15,,64,0
39839,note_on,,239,0,8,,,,,,,,,,,,,,,,13,,45,0
39840,note_on,,1,0,6,,,,,,,,,,,,,,,,5,,64,64
39959,note_on,,119,0,6,,,,,,,,,,,,,,,,5,,64,0
39960,note_on,,1,0,6,,,,,,,,,,,,,,,,5,,69,64
40184,note_on,,224,0,6,,,,,,,,,,,,,,,,5,,69,0
40185,note_on,,1,0,6,,,,,,,,,,,,,,,,5,,74,64
40199,note_on,,14,0,6,,,,,,,,,,,,,,,,5,,74,0
40200,note_on,,1,0,6,,,,,,,,,,,,,,,,5,,73,64
40200,note_on,,0,0,9,,,,,,,,,,,,,,,,15,,61,48
40200,note_on,,0,0,9,,,,,,,,,,,,,,,,15,,68,48
40200,note_on,,361,0,9,,,,,,,,,,,,,,,,15,,52,48
40200,note_on,,361,0,8,,,,,,,,,,,,,,,,13,,52,48
40200,note_on,,0,0,9,,,,,,,,,,,,,,,,15,,64,48
40289,note_on,,89,0,6,,,,,,,,,,,,,,,,5,,73,0
40290,note_on,,1,0,6,,,,,,,,,,,,,,,,5,,71,64
40304,note_on,,14,0,6,,,,,,,,,,,,,,,,5,,71,0
40305,note_on,,1,0,6,,,,,,,,,,,,,,,,5,,71,64
40319,note_on,,14,0,6,,,,,,,,,,,,,,,,5,,71,0
40319,note_on,,0,0,9,,,,,,,,,,,,,,,,15,,68,0
40319,note_on,,119,0,9,,,,,,,,,,,,,,,,15,,52,0
40319,note_on,,119,0,8,,,,,,,,,,,,,,,,13,,52,0
40319,note_on,,0,0,9,,,,,,,,,,,,,,,,15,,61,0
40319,note_on,,0,0,9,,,,,,,,,,,,,,,,15,,64,0
40320,note_on,,1,0,8,,,,,,,,,,,,,,,,13,,54,48
40320,note_on,,0,0,9,,,,,,,,,,,,,,,,15,,57,48
40320,note_on,,0,0,9,,,,,,,,,,,,,,,,15,,61,48
40320,note_on,,0,0,9,,,,,,,,,,,,,,,,15,,69,48
40320,note_on,,1,0,9,,,,,,,,,,,,,,,,15,,54,48
40320,note_on,,1,0,6,,,,,,,,,,,,,,,,5,,69,64
40559,note_on,,0,0,9,,,,,,,,,,,,,,,,15,,57,0
40559,note_on,,239,0,8,,,,,,,,,,,,,,,,13,,54,0
40559,note_on,,239,0,6,,,,,,,,,,,,,,,,5,,69,0
40559,note_on,,0,0,9,,,,,,,,,,,,,,,,15,,61,0
40559,note_on,,239,0,9,,,,,,,,,,,,,,,,15,,54,0
40560,note_on,,1,0,6,,,,,,,,,,,,,,,,5,,74,64
40560,note_on,,1,0,8,,,,,,,,,,,,,,,,13,,50,48
40560,note_on,,1,0,9,,,,,,,,,,,,,,,,15,,50,48
40560,note_on,,0,0,9,,,,,,,,,,,,,,,,15,,66,48
40560,note_on,,0,0,9,,,,,,,,,,,,,,,,15,,62,48
40649,note_on,,89,0,6,,,,,,,,,,,,,,,,5,,74,0
40650,note_on,,1,0,6,,,,,,,,,,,,,,,,5,,76,64
40679,note_on,,0,0,9,,,,,,,,,,,,,,,,15,,66,0
40679,note_on,,0,0,9,,,,,,,,,,,,,,,,15,,50,0
40679,note_on,,0,0,9,,,,,,,,,,,,,,,,15,,62,0
40679,note_on,,29,0,6,,,,,,,,,,,,,,,,5,,76,0
40679,note_on,,119,0,9,,,,,,,,,,,,,,,,15,,69,0
40679,note_on,,119,0,8,,,,,,,,,,,,,,,,13,,50,0
40680,note_on,,1,0,8,,,,,,,,,,,,,,,,13,,47,48
40680,note_on,,1,0,9,,,,,,,,,,,,,,,,15,,47,48
40680,note_on,,0,0,9,,,,,,,,,,,,,,,,15,,69,48
40680,note_on,,0,0,9,,,,,,,,,,,,,,,,15,,62,48
40680,note_on,,0,0,9,,,,,,,,,,,,,,,,15,,71,48
40680,note_on,,1,0,6,,,,,,,,,,,,,,,,5,,74,64
40694,note_on,,14,0,6,,,,,,,,,,,,,,,,5,,74,0
40695,note_on,,1,0,6,,,,,,,,,,,,,,,,5,,76,64
40709,note_on,,14,0,6,,,,,,,,,,,,,,,,5,,76,0
40710,note_on,,1,0,6,,,,,,,,,,,,,,,,5,,74,64
40724,note_on,,14,0,6,,,,,,,,,,,,,,,,5,,74,0
40725,note_on,,1,0,6,,,,,,,,,,,,,,,,5,,76,64
40739,note_on,,14,0,6,,,,,,,,,,,,,,,,5,,76,0
40740,note_on,,1,0,6,,,,,,,,,,,,,,,,5,,74,64
40754,note_on,,14,0,6,,,,,,,,,,,,,,,,5,,74,0
40755,note_on,,1,0,6,,,,,,,,,,,,,,,,5,,76,64
40769,note_on,,14,0,6,,,,,,,,,,,,,,,,5,,76,0
40770,note_on,,1,0,6,,,,,,,,,,,,,,,,5,,74,64
40784,note_on,,14,0,6,,,,,,,,,,,,,,,,5,,74,0
40785,note_on,,1,0,6,,,,,,,,,,,,,,,,5,,76,64
40799,note_on,,14,0,6,,,,,,,,,,,,,,,,5,,76,0
40800,note_on,,1,0,6,,,,,,,,,,,,,,,,5,,74,64
40814,note_on,,14,0,6,,,,,,,,,,,,,,,,5,,74,0
40815,note_on,,1,0,6,,,,,,,,,,,,,,,,5,,76,64
40829,note_on,,14,0,6,,,,,,,,,,,,,,,,5,,76,0
40830,note_on,,1,0,6,,,,,,,,,,,,,,,,5,,73,64
40844,note_on,,14,0,6,,,,,,,,,,,,,,,,5,,73,0
40845,note_on,,1,0,6,,,,,,,,,,,,,,,,5,,74,64
40859,note_on,,14,0,6,,,,,,,,,,,,,,,,5,,74,0
40860,note_on,,1,0,6,,,,,,,,,,,,,,,,5,,73,64
40919,note_on,,0,0,9,,,,,,,,,,,,,,,,15,,69,0
40919,note_on,,0,0,9,,,,,,,,,,,,,,,,15,,62,0
40919,note_on,,239,0,9,,,,,,,,,,,,,,,,15,,47,0
40919,note_on,,239,0,8,,,,,,,,,,,,,,,,13,,47,0
40919,note_on,,59,0,6,,,,,,,,,,,,,,,,5,,73,0
40920,note_on,,1,0,8,,,,,,,,,,,,,,,,13,,52,48
40920,note_on,,0,0,9,,,,,,,,,,,,,,,,15,,59,48
40920,note_on,,1,0,6,,,,,,,,,,,,,,,,5,,74,64
40920,note_on,,1,0,9,,,,,,,,,,,,,,,,15,,52,48
40920,note_on,,0,0,9,,,,,,,,,,,,,,,,15,,68,48
41009,note_on,,89,0,6,,,,,,,,,,,,,,,,5,,74,0
41010,note_on,,1,0,6,,,,,,,,,,,,,,,,5,,74,64
41039,note_on,,119,0,8,,,,,,,,,,,,,,,,13,,52,0
41039,note_on,,0,0,9,,,,,,,,,,,,,,,,15,,52,0
41039,note_on,,0,0,9,,,,,,,,,,,,,,,,15,,68,0
41039,note_on,,0,0,9,,,,,,,,,,,,,,,,15,,59,0
41039,note_on,,119,0,9,,,,,,,,,,,,,,,,15,,71,0
41039,note_on,,29,0,6,,,,,,,,,,,,,,,,5,,74,0
41040,note_on,,0,0,9,,,,,,,,,,,,,,,,15,,64,48
41040,note_on,,1,0,6,,,,,,,,,,,,,,,,5,,73,64
41040,note_on,,0,0,9,,,,,,,,,,,,,,,,15,,57,48
41040,note_on,,0,0,9,,,,,,,,,,,,,,,,15,,69,48
41040,note_on,,1,0,9,,,,,,,,,,,,,,,,15,,45,48
41040,note_on,,0,0,9,,,,,,,,,,,,,,,,15,,73,48
41040,note_on,,1,0,8,,,,,,,,,,,,,,,,13,,45,48
41159,note_on,,119,0,6,,,,,,,,,,,,,,,,5,,73,0
41160,note_on,,1,0,6,,,,,,,,,,,,,,,,5,,73,64
41279,note_on,,0,0,9,,,,,,,,,,,,,,,,15,,69,0
41279,note_on,,239,0,9,,,,,,,,,,,,,,,,15,,45,0
41279,note_on,,119,0,6,,,,,,,,,,,,,,,,5,,73,0
41279,note_on,,0,0,9,,,,,,,,,,,,,,,,15,,73,0
41279,note_on,,239,0,8,,,,,,,,,,,,,,,,13,,45,0
41279,note_on,,0,0,9,,,,,,,,,,,,,,,,15,,64,0
41279,note_on,,0,0,9,,,,,,,,,,,,,,,,15,,57,0
41280,note_on,,2161,0,7,,,,,,,,,,,,,,,,10,,76,72
41399,note_on,,119,0,7,,,,,,,,,,,,,,,,10,,76,0
41400,note_on,,1,0,7,,,,,,,,,,,,,,,,10,,81,72
41639,note_on,,239,0,7,,,,,,,,,,,,,,,,10,,81,0
41640,note_on,,1,0,7,,,,,,,,,,,,,,,,10,,73,72
41640,note_on,,361,0,8,,,,,,,,,,,,,,,,13,,52,72
41640,note_on,,8641,0,5,,,,,,,,,,,,,,,,2,,52,72
41640,note_on,,0,0,9,,,,,,,,,,,,,,,,15,,76,72
41640,note_on,,361,0,9,,,,,,,,,,,,,,,,15,,52,72
41640,note_on,,0,0,9,,,,,,,,,,,,,,,,15,,68,72
41640,note_on,,0,0,9,,,,,,,,,,,,,,,,15,,73,72
41654,note_on,,14,0,7,,,,,,,,,,,,,,,,10,,73,0
41655,note_on,,1,0,7,,,,,,,,,,,,,,,,10,,75,72
41669,note_on,,14,0,7,,,,,,,,,,,,,,,,10,,75,0
41670,note_on,,1,0,7,,,,,,,,,,,,,,,,10,,73,72
41684,note_on,,14,0,7,,,,,,,,,,,,,,,,10,,73,0
41685,note_on,,1,0,7,,,,,,,,,,,,,,,,10,,75,72
41699,note_on,,14,0,7,,,,,,,,,,,,,,,,10,,75,0
41700,note_on,,1,0,7,,,,,,,,,,,,,,,,10,,71,72
41714,note_on,,14,0,7,,,,,,,,,,,,,,,,10,,71,0
41715,note_on,,1,0,7,,,,,,,,,,,,,,,,10,,73,72
41729,note_on,,14,0,7,,,,,,,,,,,,,,,,10,,73,0
41730,note_on,,1,0,7,,,,,,,,,,,,,,,,10,,71,72
41759,note_on,,119,0,5,,,,,,,,,,,,,,,,2,,52,0
41759,note_on,,0,0,9,,,,,,,,,,,,,,,,15,,73,0
41759,note_on,,119,0,9,,,,,,,,,,,,,,,,15,,52,0
41759,note_on,,29,0,7,,,,,,,,,,,,,,,,10,,71,0
41759,note_on,,0,0,9,,,,,,,,,,,,,,,,15,,68,0
41759,note_on,,119,0,8,,,,,,,,,,,,,,,,13,,52,0
41759,note_on,,0,0,9,,,,,,,,,,,,,,,,15,,76,0
41760,note_on,,1,0,9,,,,,,,,,,,,,,,,15,,54,72
41760,note_on,,0,0,9,,,,,,,,,,,,,,,,15,,73,72
41760,note_on,,1,0,8,,,,,,,,,,,,,,,,13,,54,72
41760,note_on,,1,0,7,,,,,,,,,,,,,,,,10,,69,72
41760,note_on,,0,0,9,,,,,,,,,,,,,,,,15,,69,72
41760,note_on,,0,0,9,,,,,,,,,,,,,,,,15,,61,72
41760,note_on,,1,0,5,,,,,,,,,,,,,,,,2,,54,72
41999,note_on,,239,0,9,,,,,,,,,,,,,,,,15,,54,0
41999,note_on,,239,0,8,,,,,,,,,,,,,,,,13,,54,0
41999,note_on,,0,0,9,,,,,,,,,,,,,,,,15,,73,0
41999,note_on,,0,0,9,,,,,,,,,,,,,,,,15,,69,0
41999,note_on,,0,0,9,,,,,,,,,,,,,,,,15,,61,0
41999,note_on,,239,0,7,,,,,,,,,,,,,,,,10,,69,0
41999,note_on,,239,0,5,,,,,,,,,,,,,,,,2,,54,0
42000,note_on,,1,0,7,,,,,,,,,,,,,,,,10,,78,72
42000,note_on,,0,0,9,,,,,,,,,,,,,,,,15,,66,72
42000,note_on,,1,0,8,,,,,,,,,,,,,,,,13,,50,72
42000,note_on,,1,0,9,,,,,,,,,,,,,,,,15,,50,72
42000,note_on,,0,0,9,,,,,,,,,,,,,,,,15,,74,72
42000,note_on,,0,0,9,,,,,,,,,,,,,,,,15,,69,72
42000,note_on,,1,0,5,,,,,,,,,,,,,,,,2,,50,72
42119,note_on,,119,0,5,,,,,,,,,,,,,,,,2,,50,0
42119,note_on,,0,0,9,,,,,,,,,,,,,,,,15,,74,0
42119,note_on,,119,0,8,,,,,,,,,,,,,,,,13,,50,0
42119,note_on,,119,0,7,,,,,,,,,,,,,,,,10,,78,0
42119,note_on,,119,0,9,,,,,,,,,,,,,,,,15,,50,0
42119,note_on,,0,0,9,,,,,,,,,,,,,,,,15,,69,0
42119,note_on,,0,0,9,,,,,,,,,,,,,,,,15,,66,0
42120,note_on,,0,0,9,,,,,,,,,,,,,,,,15,,69,72
42120,note_on,,1,0,7,,,,,,,,,,,,,,,,10,,74,72
42120,note_on,,1,0,9,,,,,,,,,,,,,,,,15,,47,72
42120,note_on,,0,0,9,,,,,,,,,,,,,,,,15,,71,72
42120,note_on,,1,0,5,,,,,,,,,,,,,,,,2,,47,72
42120,note_on,,0,0,9,,,,,,,,,,,,,,,,15,,78,72
42120,note_on,,1,0,8,,,,,,,,,,,,,,,,13,,47,72
42299,note_on,,179,0,7,,,,,,,,,,,,,,,,10,,74,0
42300,note_on,,1,0,7,,,,,,,,,,,,,,,,10,,73,72
42359,note_on,,0,0,9,,,,,,,,,,,,,,,,15,,71,0
42359,note_on,,59,0,7,,,,,,,,,,,,,,,,10,,73,0
42359,note_on,,0,0,9,,,,,,,,,,,,,,,,15,,69,0
42359,note_on,,239,0,8,,,,,,,,,,,,,,,,13,,47,0
42359,note_on,,239,0,9,,,,,,,,,,,,,,,,15,,47,0
42359,note_on,,0,0,9,,,,,,,,,,,,,,,,15,,78,0
42359,note_on,,239,0,5,,,,,,,,,,,,,,,,2,,47,0
42360,note_on,,1,0,8,,,,,,,,,,,,,,,,13,,52,72
42360,note_on,,0,0,9,,,,,,,,,,,,,,,,15,,71,72
42360,note_on,,0,0,9,,,,,,,,,,,,,,,,15,,76,72
42360,note_on,,1,0,5,,,,,,,,,,,,,,,,2,,52,72
42360,note_on,,1,0,9,,,,,,,,,,,,,,,,15,,52,72
42360,note_on,,1,0,7,,,,,,,,,,,,,,,,10,,74,72
42360,note_on,,0,0,9,,,,,,,,,,,,,,,,15,,68,72
42479,note_on,,119,0,8,,,,,,,,,,,,,,,,13,,52,0
42479,note_on,,0,0,9,,,,,,,,,,,,,,,,15,,68,0
42479,note_on,,119,0,7,,,,,,,,,,,,,,,,10,,74,0
42479,note_on,,119,0,9,,,,,,,,,,,,,,,,15,,52,0
42479,note_on,,0,0,9,,,,,,,,,,,,,,,,15,,76,0
42479,note_on,,0,0,9,,,,,,,,,,,,,,,,15,,71,0
42479,note_on,,119,0,5,,,,,,,,,,,,,,,,2,,52,0
42480,note_on,,1,0,5,,,,,,,,,,,,,,,,2,,45,72
42480,note_on,,1,0,7,,,,,,,,,,,,,,,,10,,73,72
42480,note_on,,1,0,8,,,,,,,,,,,,,,,,13,,45,72
42480,note_on,,1,0,9,,,,,,,,,,,,,,,,15,,45,72
42480,note_on,,0,0,9,,,,,,,,,,,,,,,,15,,76,72
42480,note_on,,0,0,9,,,,,,,,,,,,,,,,15,,73,72
42480,note_on,,0,0,9,,,,,,,,,,,,,,,,15,,69,72
42720,note_on,,1441,0,6,,,,,,,,,,,,,,,,5,,69,64
42839,note_on,,359,0,7,,,,,,,,,,,,,,,,10,,73,0
42839,note_on,,0,0,9,,,,,,,,,,,,,,,,15,,69,0
42839,note_on,,0,0,9,,,,,,,,,,,,,,,,15,,73,0
42839,note_on,,0,0,9,,,,,,,,,,,,,,,,15,,76,0
42839,note_on,,359,0,9,,,,,,,,,,,,,,,,15,,45,0
42839,note_on,,359,0,5,,,,,,,,,,,,,,,,2,,45,0
42839,note_on,,359,0,8,,,,,,,,,,,,,,,,13,,45,0
42839,note_on,,119,0,6,,,,,,,,,,,,,,,,5,,69,0
42840,note_on,,1,0,8,,,,,,,,,,,,,,,,13,,57,48
42840,note_on,,1,0,6,,,,,,,,,,,,,,,,5,,73,64
42840,note_on,,1,0,9,,,,,,,,,,,,,,,,15,,57,48
42840,note_on,,0,0,9,,,,,,,,,,,,,,,,15,,64,48
42840,note_on,,0,0,9,,,,,,,,,,,,,,,,15,,73,48
42840,note_on,,0,0,9,,,,,,,,,,,,,,,,15,,81,48
42959,note_on,,119,0,6,,,,,,,,,,,,,,,,5,,73,0
42960,note_on,,1,0,6,,,,,,,,,,,,,,,,5,,71,64
43079,note_on,,119,0,6,,,,,,,,,,,,,,,,5,,71,0
43080,note_on,,1,0,6,,,,,,,,,,,,,,,,5,,69,64
43199,note_on,,359,0,9,,,,,,,,,,,,,,,,15,,57,0
43199,note_on,,0,0,9,,,,,,,,,,,,,,,,15,,81,0
43199,note_on,,0,0,9,,,,,,,,,,,,,,,,15,,73,0
43199,note_on,,0,0,9,,,,,,,,,,,,,,,,15,,64,0
43199,note_on,,359,0,8,,,,,,,,,,,,,,,,13,,57,0
43199,note_on,,119,0,6,,,,,,,,,,,,,,,,5,,69,0
43200,note_on,,1,0,6,,,,,,,,,,,,,,,,5,,76,64
43200,note_on,,1,0,9,,,,,,,,,,,,,,,,15,,56,48
43200,note_on,,0,0,9,,,,,,,,,,,,,,,,15,,76,48
43200,note_on,,0,0,9,,,,,,,,,,,,,,,,15,,71,48
43200,note_on,,0,0,9,,,,,,,,,,,,,,,,15,,64,48
43200,note_on,,1,0,8,,,,,,,,,,,,,,,,13,,56,48
43289,note_on,,89,0,6,,,,,,,,,,,,,,,,5,,76,0
43290,note_on,,1,0,6,,,,,,,,,,,,,,,,5,,78,64
43319,note_on,,29,0,6,,,,,,,,,,,,,,,,5,,78,0
43320,note_on,,1,0,6,,,,,,,,,,,,,,,,5,,76,64
43439,note_on,,119,0,6,,,,,,,,,,,,,,,,5,,76,0
43559,note_on,,359,0,8,,,,,,,,,,,,,,,,13,,56,0
43559,note_on,,0,0,9,,,,,,,,,,,,,,,,15,,76,0
43559,note_on,,0,0,9,,,,,,,,,,,,,,,,15,,71,0
43559,note_on,,0,0,9,,,,,,,,,,,,,,,,15,,64,0
43559,note_on,,359,0,9,,,,,,,,,,,,,,,,15,,56,0
43560,note_on,,1,0,9,,,,,,,,,,,,,,,,15,,54,48
43560,note_on,,0,0,9,,,,,,,,,,,,,,,,15,,69,48
43560,note_on,,0,0,9,,,,,,,,,,,,,,,,15,,66,48
43560,note_on,,0,0,9,,,,,,,,,,,,,,,,15,,57,48
43560,note_on,,121,0,6,,,,,,,,,,,,,,,,5,,69,64
43560,note_on,,0,0,9,,,,,,,,,,,,,,,,15,,75,48
43560,note_on,,1,0,8,,,,,,,,,,,,,,,,13,,54,48
43679,note_on,,0,0,9,,,,,,,,,,,,,,,,15,,69,0
43679,note_on,,119,0,6,,,,,,,,,,,,,,,,5,,69,0
43679,note_on,,119,0,9,,,,,,,,,,,,,,,,15,,54,0
43679,note_on,,0,0,9,,,,,,,,,,,,,,,,15,,75,0
43679,note_on,,0,0,9,,,,,,,,,,,,,,,,15,,66,0
43679,note_on,,0,0,9,,,,,,,,,,,,,,,,15,,57,0
43679,note_on,,119,0,8,,,,,,,,,,,,,,,,13,,54,0
43680,note_on,,0,0,9,,,,,,,,,,,,,,,,15,,59,48
43680,note_on,,0,0,9,,,,,,,,,,,,,,,,15,,68,48
43680,note_on,,0,0,9,,,,,,,,,,,,,,,,15,,76,48
43680,note_on,,1,0,9,,,,,,,,,,,,,,,,15,,52,48
43680,note_on,,1,0,8,,,,,,,,,,,,,,,,13,,52,48
43680,note_on,,1,0,6,,,,,,,,,,,,,,,,5,,68,64
43919,note_on,,0,0,9,,,,,,,,,,,,,,,,15,,76,0
43919,note_on,,239,0,8,,,,,,,,,,,,,,,,13,,52,0
43919,note_on,,0,0,9,,,,,,,,,,,,,,,,15,,68,0
43919,note_on,,0,0,9,,,,,,,,,,,,,,,,15,,59,0
43919,note_on,,239,0,6,,,,,,,,,,,,,,,,5,,68,0
43919,note_on,,239,0,9,,,,,,,,,,,,,,,,15,,52,0
43920,note_on,,1,0,8,,,,,,,,,,,,,,,,13,,47,48
43920,note_on,,0,0,9,,,,,,,,,,,,,,,,15,,71,48
43920,note_on,,0,0,9,,,,,,,,,,,,,,,,15,,59,48
43920,note_on,,0,0,9,,,,,,,,,,,,,,,,15,,75,48
43920,note_on,,1,0,6,,,,,,,,,,,,,,,,5,,66,64
43920,note_on,,0,0,9,,,,,,,,,,,,,,,,15,,78,48
43920,note_on,,1,0,9,,,,,,,,,,,,,,,,15,,47,48
43920,note_on,,0,0,9,,,,,,,,,,,,,,,,15,,66,48
44100,note_on,,1261,0,7,,,,,,,,,,,,,,,,10,,64,48
44159,note_on,,59,0,7,,,,,,,,,,,,,,,,10,,64,0
44160,note_on,,1,0,7,,,,,,,,,,,,,,,,10,,63,48
44219,note_on,,59,0,7,,,,,,,,,,,,,,,,10,,63,0
44220,note_on,,1,0,7,,,,,,,,,,,,,,,,10,,61,48
44279,note_on,,359,0,9,,,,,,,,,,,,,,,,15,,78,0
44279,note_on,,0,0,9,,,,,,,,,,,,,,,,15,,75,0
44279,note_on,,0,0,9,,,,,,,,,,,,,,,,15,,71,0
44279,note_on,,59,0,7,,,,,,,,,,,,,,,,10,,61,0
44279,note_on,,0,0,9,,,,,,,,,,,,,,,,15,,59,0
44279,note_on,,0,0,9,,,,,,,,,,,,,,,,15,,66,0
44279,note_on,,359,0,6,,,,,,,,,,,,,,,,5,,66,0
44280,note_on,,360,0,8,,,,,,,,,,,,,,,,13,,47,0
44280,note_on,,0,0,8,,,,,,,,,,,,,,,,13,,47,48
44280,note_on,,0,0,9,,,,,,,,,,,,,,,,15,,47,48
44280,note_on,,0,0,9,,,,,,,,,,,,,,,,15,,59,48
44280,note_on,,1,0,9,,,,,,,,,,,,,,,,15,,47,0
44280,note_on,,1,0,7,,,,,,,,,,,,,,,,10,,59,48
44295,note_on,,15,0,9,,,,,,,,,,,,,,,,15,,64,48
44310,note_on,,15,0,9,,,,,,,,,,,,,,,,15,,68,48
44325,note_on,,15,0,9,,,,,,,,,,,,,,,,15,,71,48
44369,note_on,,89,0,7,,,,,,,,,,,,,,,,10,,59,0
44370,note_on,,1,0,7,,,,,,,,,,,,,,,,10,,61,48
44399,note_on,,29,0,7,,,,,,,,,,,,,,,,10,,61,0
44400,note_on,,1,0,7,,,,,,,,,,,,,,,,10,,59,48
44489,note_on,,89,0,7,,,,,,,,,,,,,,,,10,,59,0
44490,note_on,,1,0,7,,,,,,,,,,,,,,,,10,,61,48
44519,note_on,,29,0,7,,,,,,,,,,,,,,,,10,,61,0
44520,note_on,,1,0,7,,,,,,,,,,,,,,,,10,,59,48
44609,note_on,,89,0,7,,,,,,,,,,,,,,,,10,,59,0
44610,note_on,,1,0,7,,,,,,,,,,,,,,,,10,,61,48
44639,note_on,,0,0,9,,,,,,,,,,,,,,,,15,,71,0
44639,note_on,,0,0,9,,,,,,,,,,,,,,,,15,,68,0
44639,note_on,,314,0,9,,,,,,,,,,,,,,,,15,,59,0
44639,note_on,,29,0,7,,,,,,,,,,,,,,,,10,,61,0
44639,note_on,,0,0,9,,,,,,,,,,,,,,,,15,,64,0
44640,note_on,,0,0,9,,,,,,,,,,,,,,,,15,,57,48
44640,note_on,,1,0,9,,,,,,,,,,,,,,,,15,,47,0
44640,note_on,,0,0,9,,,,,,,,,,,,,,,,15,,47,48
44640,note_on,,1,0,7,,,,,,,,,,,,,,,,10,,57,48
44640,note_on,,360,0,8,,,,,,,,,,,,,,,,13,,47,0
44640,note_on,,0,0,8,,,,,,,,,,,,,,,,13,,47,48
44655,note_on,,15,0,9,,,,,,,,,,,,,,,,15,,66,48
44670,note_on,,15,0,9,,,,,,,,,,,,,,,,15,,69,48
44685,note_on,,15,0,9,,,,,,,,,,,,,,,,15,,75,48
44729,note_on,,89,0,7,,,,,,,,,,,,,,,,10,,57,0
44730,note_on,,1,0,7,,,,,,,,,,,,,,,,10,,59,48
44759,note_on,,29,0,7,,,,,,,,,,,,,,,,10,,59,0
44760,note_on,,1,0,7,,,,,,,,,,,,,,,,10,,57,48
44849,note_on,,89,0,7,,,,,,,,,,,,,,,,10,,57,0
44850,note_on,,1,0,7,,,,,,,,,,,,,,,,10,,59,48
44879,note_on,,29,0,7,,,,,,,,,,,,,,,,10,,59,0
44880,note_on,,1,0,7,,,,,,,,,,,,,,,,10,,57,48
44880,note_on,,601,0,6,,,,,,,,,,,,,,,,5,,71,64
44969,note_on,,89,0,7,,,,,,,,,,,,,,,,10,,57,0
44970,note_on,,1,0,7,,,,,,,,,,,,,,,,10,,59,48
44999,note_on,,0,0,9,,,,,,,,,,,,,,,,15,,66,0
44999,note_on,,314,0,9,,,,,,,,,,,,,,,,15,,57,0
44999,note_on,,29,0,7,,,,,,,,,,,,,,,,10,,59,0
44999,note_on,,0,0,9,,,,,,,,,,,,,,,,15,,75,0
44999,note_on,,0,0,9,,,,,,,,,,,,,,,,15,,69,0
44999,note_on,,119,0,6,,,,,,,,,,,,,,,,5,,71,0
45000,note_on,,1,0,9,,,,,,,,,,,,,,,,15,,47,0
45000,note_on,,0,0,9,,,,,,,,,,,,,,,,15,,56,48
45000,note_on,,0,0,9,,,,,,,,,,,,,,,,15,,47,48
45000,note_on,,0,0,8,,,,,,,,,,,,,,,,13,,47,48
45000,note_on,,1,0,6,,,,,,,,,,,,,,,,5,,71,64
45000,note_on,,360,0,8,,,,,,,,,,,,,,,,13,,47,0
45000,note_on,,1,0,7,,,,,,,,,,,,,,,,10,,56,48
45015,note_on,,15,0,9,,,,,,,,,,,,,,,,15,,64,48
45030,note_on,,15,0,9,,,,,,,,,,,,,,,,15,,71,48
45045,note_on,,15,0,9,,,,,,,,,,,,,,,,15,,76,48
45089,note_on,,89,0,7,,,,,,,,,,,,,,,,10,,56,0
45090,note_on,,1,0,7,,,,,,,,,,,,,,,,10,,57,48
45119,note_on,,29,0,7,,,,,,,,,,,,,,,,10,,57,0
45120,note_on,,1,0,7,,,,,,,,,,,,,,,,10,,56,48
45209,note_on,,89,0,7,,,,,,,,,,,,,,,,10,,56,0
45210,note_on,,1,0,7,,,,,,,,,,,,,,,,10,,57,48
45239,note_on,,29,0,7,,,,,,,,,,,,,,,,10,,57,0
45240,note_on,,1,0,7,,,,,,,,,,,,,,,,10,,56,48
45329,note_on,,89,0,7,,,,,,,,,,,,,,,,10,,56,0
45330,note_on,,1,0,7,,,,,,,,,,,,,,,,10,,68,48
45359,note_on,,0,0,9,,,,,,,,,,,,,,,,15,,64,0
45359,note_on,,314,0,9,,,,,,,,,,,,,,,,15,,56,0
45359,note_on,,359,0,6,,,,,,,,,,,,,,,,5,,71,0
45359,note_on,,29,0,7,,,,,,,,,,,,,,,,10,,68,0
45359,note_on,,0,0,9,,,,,,,,,,,,,,,,15,,76,0
45359,note_on,,0,0,9,,,,,,,,,,,,,,,,15,,71,0
45360,note_on,,1,0,9,,,,,,,,,,,,,,,,15,,47,0
45360,note_on,,1,0,6,,,,,,,,,,,,,,,,5,,69,64
45360,note_on,,360,0,8,,,,,,,,,,,,,,,,13,,47,0
45360,note_on,,0,0,8,,,,,,,,,,,,,,,,13,,47,48
45360,note_on,,1,0,7,,,,,,,,,,,,,,,,10,,66,48
45360,note_on,,0,0,9,,,,,,,,,,,,,,,,15,,47,48
45360,note_on,,0,0,9,,,,,,,,,,,,,,,,15,,51,48
45375,note_on,,15,0,9,,,,,,,,,,,,,,,,15,,59,48
45390,note_on,,15,0,9,,,,,,,,,,,,,,,,15,,66,48
45405,note_on,,15,0,9,,,,,,,,,,,,,,,,15,,69,48
45449,note_on,,89,0,7,,,,,,,,,,,,,,,,10,,66,0
45450,note_on,,1,0,7,,,,,,,,,,,,,,,,10,,68,48
45479,note_on,,29,0,7,,,,,,,,,,,,,,,,10,,68,0
45480,note_on,,1,0,7,,,,,,,,,,,,,,,,10,,66,48
45569,note_on,,89,0,7,,,,,,,,,,,,,,,,10,,66,0
45570,note_on,,1,0,7,,,,,,,,,,,,,,,,10,,68,48
45599,note_on,,29,0,7,,,,,,,,,,,,,,,,10,,68,0
45599,note_on,,239,0,6,,,,,,,,,,,,,,,,5,,69,0
45600,note_on,,1,0,6,,,,,,,,,,,,,,,,5,,69,64
45600,note_on,,1,0,7,,,,,,,,,,,,,,,,10,,66,48
45689,note_on,,89,0,7,,,,,,,,,,,,,,,,10,,66,0
45690,note_on,,1,0,7,,,,,,,,,,,,,,,,10,,68,48
45719,note_on,,0,0,9,,,,,,,,,,,,,,,,15,,66,0
45719,note_on,,0,0,9,,,,,,,,,,,,,,,,15,,69,0
45719,note_on,,119,0,6,,,,,,,,,,,,,,,,5,,69,0
45719,note_on,,0,0,9,,,,,,,,,,,,,,,,15,,59,0
45719,note_on,,314,0,9,,,,,,,,,,,,,,,,15,,51,0
45719,note_on,,29,0,7,,,,,,,,,,,,,,,,10,,68,0
45720,note_on,,360,0,8,,,,,,,,,,,,,,,,13,,47,0
45720,note_on,,1,0,7,,,,,,,,,,,,,,,,10,,64,48
45720,note_on,,1,0,9,,,,,,,,,,,,,,,,15,,47,0
45720,note_on,,0,0,9,,,,,,,,,,,,,,,,15,,47,48
45720,note_on,,0,0,9,,,,,,,,,,,,,,,,15,,52,48
45720,note_on,,0,0,8,,,,,,,,,,,,,,,,13,,47,48
45720,note_on,,1,0,6,,,,,,,,,,,,,,,,5,,68,64
45735,note_on,,15,0,9,,,,,,,,,,,,,,,,15,,59,48
45750,note_on,,15,0,9,,,,,,,,,,,,,,,,15,,64,48
45765,note_on,,15,0,9,,,,,,,,,,,,,,,,15,,68,48
45809,note_on,,89,0,7,,,,,,,,,,,,,,,,10,,64,0
45810,note_on,,1,0,7,,,,,,,,,,,,,,,,10,,66,48
45839,note_on,,29,0,7,,,,,,,,,,,,,,,,10,,66,0
45840,note_on,,1,0,7,,,,,,,,,,,,,,,,10,,64,48
45929,note_on,,89,0,7,,,,,,,,,,,,,,,,10,,64,0
45930,note_on,,1,0,7,,,,,,,,,,,,,,,,10,,66,48
45959,note_on,,29,0,7,,,,,,,,,,,,,,,,10,,66,0
45959,note_on,,239,0,6,,,,,,,,,,,,,,,,5,,68,0
45960,note_on,,1,0,6,,,,,,,,,,,,,,,,5,,70,64
45960,note_on,,1,0,7,,,,,,,,,,,,,,,,10,,64,48
46049,note_on,,89,0,7,,,,,,,,,,,,,,,,10,,64,0
46050,note_on,,1,0,7,,,,,,,,,,,,,,,,10,,66,48
46079,note_on,,119,0,6,,,,,,,,,,,,,,,,5,,70,0
46079,note_on,,0,0,9,,,,,,,,,,,,,,,,15,,59,0
46079,note_on,,314,0,9,,,,,,,,,,,,,,,,15,,52,0
46079,note_on,,0,0,9,,,,,,,,,,,,,,,,15,,64,0
46079,note_on,,0,0,9,,,,,,,,,,,,,,,,15,,68,0
46079,note_on,,29,0,7,,,,,,,,,,,,,,,,10,,66,0
46080,note_on,,0,0,9,,,,,,,,,,,,,,,,15,,54,48
46080,note_on,,1,0,9,,,,,,,,,,,,,,,,15,,47,0
46080,note_on,,0,0,9,,,,,,,,,,,,,,,,15,,47,48
46080,note_on,,1,0,7,,,,,,,,,,,,,,,,10,,63,48
46080,note_on,,1,0,6,,,,,,,,,,,,,,,,5,,71,64
46080,note_on,,0,0,8,,,,,,,,,,,,,,,,13,,47,48
46080,note_on,,360,0,8,,,,,,,,,,,,,,,,13,,47,0
46095,note_on,,15,0,9,,,,,,,,,,,,,,,,15,,59,48
46110,note_on,,15,0,9,,,,,,,,,,,,,,,,15,,63,48
46125,note_on,,15,0,9,,,,,,,,,,,,,,,,15,,66,48
46139,note_on,,59,0,7,,,,,,,,,,,,,,,,10,,63,0
46169,note_on,,89,0,8,,,,,,,,,,,,,,,,13,,47,0
46169,note_on,,44,0,9,,,,,,,,,,,,,,,,15,,47,0
46170,note_on,,1,0,9,,,,,,,,,,,,,,,,15,,49,48
46170,note_on,,1,0,8,,,,,,,,,,,,,,,,13,,49,48
46199,note_on,,29,0,9,,,,,,,,,,,,,,,,15,,49,0
46199,note_on,,29,0,8,,,,,,,,,,,,,,,,13,,49,0
46200,note_on,,61,0,7,,,,,,,,,,,,,,,,10,,63,48
46200,note_on,,1,0,9,,,,,,,,,,,,,,,,15,,47,48
46200,note_on,,1,0,8,,,,,,,,,,,,,,,,13,,47,48
46259,note_on,,59,0,7,,,,,,,,,,,,,,,,10,,63,0
46289,note_on,,89,0,8,,,,,,,,,,,,,,,,13,,47,0
46289,note_on,,89,0,9,,,,,,,,,,,,,,,,15,,47,0
46290,note_on,,1,0,9,,,,,,,,,,,,,,,,15,,49,48
46290,note_on,,1,0,8,,,,,,,,,,,,,,,,13,,49,48
46319,note_on,,29,0,9,,,,,,,,,,,,,,,,15,,49,0
46319,note_on,,29,0,8,,,,,,,,,,,,,,,,13,,49,0
46320,note_on,,1,0,8,,,,,,,,,,,,,,,,13,,47,48
46320,note_on,,61,0,7,,,,,,,,,,,,,,,,10,,63,48
46320,note_on,,1,0,9,,,,,,,,,,,,,,,,15,,47,48
46379,note_on,,59,0,7,,,,,,,,,,,,,,,,10,,63,0
46409,note_on,,89,0,9,,,,,,,,,,,,,,,,15,,47,0
46409,note_on,,89,0,8,,,,,,,,,,,,,,,,13,,47,0
46410,note_on,,1,0,9,,,,,,,,,,,,,,,,15,,49,48
46410,note_on,,1,0,8,,,,,,,,,,,,,,,,13,,49,48
46439,note_on,,0,0,9,,,,,,,,,,,,,,,,15,,63,0
46439,note_on,,0,0,9,,,,,,,,,,,,,,,,15,,66,0
46439,note_on,,0,0,9,,,,,,,,,,,,,,,,15,,49,0
46439,note_on,,29,0,9,,,,,,,,,,,,,,,,15,,54,0
46439,note_on,,0,0,9,,,,,,,,,,,,,,,,15,,59,0
46439,note_on,,29,0,8,,,,,,,,,,,,,,,,13,,49,0
46440,note_on,,1,0,8,,,,,,,,,,,,,,,,13,,45,48
46440,note_on,,0,0,9,,,,,,,,,,,,,,,,15,,66,48
46440,note_on,,0,0,9,,,,,,,,,,,,,,,,15,,71,48
46440,note_on,,0,0,9,,,,,,,,,,,,,,,,15,,75,48
46440,note_on,,1,0,9,,,,,,,,,,,,,,,,15,,45,48
46440,note_on,,61,0,7,,,,,,,,,,,,,,,,10,,66,48
46499,note_on,,59,0,7,,,,,,,,,,,,,,,,10,,66,0
46529,note_on,,89,0,8,,,,,,,,,,,,,,,,13,,45,0
46529,note_on,,89,0,9,,,,,,,,,,,,,,,,15,,45,0
46530,note_on,,1,0,8,,,,,,,,,,,,,,,,13,,47,48
46530,note_on,,1,0,9,,,,,,,,,,,,,,,,15,,47,48
46559,note_on,,29,0,8,,,,,,,,,,,,,,,,13,,47,0
46559,note_on,,29,0,9,,,,,,,,,,,,,,,,15,,47,0
46560,note_on,,1,0,8,,,,,,,,,,,,,,,,13,,45,48
46560,note_on,,1,0,9,,,,,,,,,,,,,,,,15,,45,48
46560,note_on,,61,0,7,,,,,,,,,,,,,,,,10,,66,48
46619,note_on,,59,0,7,,,,,,,,,,,,,,,,10,,66,0
46649,note_on,,89,0,9,,,,,,,,,,,,,,,,15,,45,0
46649,note_on,,89,0,8,,,,,,,,,,,,,,,,13,,45,0
46650,note_on,,1,0,9,,,,,,,,,,,,,,,,15,,47,48
46650,note_on,,1,0,8,,,,,,,,,,,,,,,,13,,47,48
46679,note_on,,29,0,9,,,,,,,,,,,,,,,,15,,47,0
46679,note_on,,29,0,8,,,,,,,,,,,,,,,,13,,47,0
46680,note_on,,1,0,9,,,,,,,,,,,,,,,,15,,45,48
46680,note_on,,61,0,7,,,,,,,,,,,,,,,,10,,66,48
46680,note_on,,1,0,8,,,,,,,,,,,,,,,,13,,45,48
46739,note_on,,59,0,7,,,,,,,,,,,,,,,,10,,66,0
46769,note_on,,89,0,9,,,,,,,,,,,,,,,,15,,45,0
46769,note_on,,89,0,8,,,,,,,,,,,,,,,,13,,45,0
46770,note_on,,1,0,9,,,,,,,,,,,,,,,,15,,47,48
46770,note_on,,1,0,8,,,,,,,,,,,,,,,,13,,47,48
46799,note_on,,29,0,8,,,,,,,,,,,,,,,,13,,47,0
46799,note_on,,0,0,9,,,,,,,,,,,,,,,,15,,47,0
46799,note_on,,0,0,9,,,,,,,,,,,,,,,,15,,66,0
46799,note_on,,0,0,9,,,,,,,,,,,,,,,,15,,71,0
46799,note_on,,29,0,9,,,,,,,,,,,,,,,,15,,75,0
46800,note_on,,61,0,7,,,,,,,,,,,,,,,,10,,59,48
46800,note_on,,1,0,8,,,,,,,,,,,,,,,,13,,44,48
46800,note_on,,0,0,9,,,,,,,,,,,,,,,,15,,64,48
46800,note_on,,0,0,9,,,,,,,,,,,,,,,,15,,71,48
46800,note_on,,0,0,9,,,,,,,,,,,,,,,,15,,76,48
46800,note_on,,1,0,9,,,,,,,,,,,,,,,,15,,44,48
46859,note_on,,59,0,7,,,,,,,,,,,,,,,,10,,59,0
46889,note_on,,89,0,8,,,,,,,,,,,,,,,,13,,44,0
46889,note_on,,89,0,9,,,,,,,,,,,,,,,,15,,44,0
46890,note_on,,1,0,8,,,,,,,,,,,,,,,,13,,45,48
46890,note_on,,1,0,9,,,,,,,,,,,,,,,,15,,45,48
46919,note_on,,29,0,8,,,,,,,,,,,,,,,,13,,45,0
46919,note_on,,29,0,9,,,,,,,,,,,,,,,,15,,45,0
46920,note_on,,1,0,9,,,,,,,,,,,,,,,,15,,44,48
46920,note_on,,1,0,8,,,,,,,,,,,,,,,,13,,44,48
46920,note_on,,61,0,7,,,,,,,,,,,,,,,,10,,59,48
46979,note_on,,59,0,7,,,,,,,,,,,,,,,,10,,59,0
47009,note_on,,89,0,8,,,,,,,,,,,,,,,,13,,44,0
47009,note_on,,89,0,9,,,,,,,,,,,,,,,,15,,44,0
47010,note_on,,1,0,9,,,,,,,,,,,,,,,,15,,45,48
47010,note_on,,1,0,8,,,,,,,,,,,,,,,,13,,45,48
47039,note_on,,959,0,6,,,,,,,,,,,,,,,,5,,71,0
47039,note_on,,29,0,8,,,,,,,,,,,,,,,,13,,45,0
47039,note_on,,29,0,9,,,,,,,,,,,,,,,,15,,45,0
47040,note_on,,1,0,6,,,,,,,,,,,,,,,,5,,64,64
47040,note_on,,61,0,7,,,,,,,,,,,,,,,,10,,59,48
47040,note_on,,1,0,8,,,,,,,,,,,,,,,,13,,44,48
47040,note_on,,1,0,9,,,,,,,,,,,,,,,,15,,44,48
47099,note_on,,59,0,7,,,,,,,,,,,,,,,,10,,59,0
47129,note_on,,89,0,8,,,,,,,,,,,,,,,,13,,44,0
47129,note_on,,89,0,9,,,,,,,,,,,,,,,,15,,44,0
47130,note_on,,1,0,8,,,,,,,,,,,,,,,,13,,45,48
47130,note_on,,1,0,9,,,,,,,,,,,,,,,,15,,45,48
47159,note_on,,0,0,9,,,,,,,,,,,,,,,,15,,71,0
47159,note_on,,0,0,9,,,,,,,,,,,,,,,,15,,45,0
47159,note_on,,0,0,9,,,,,,,,,,,,,,,,15,,64,0
47159,note_on,,119,0,6,,,,,,,,,,,,,,,,5,,64,0
47159,note_on,,29,0,9,,,,,,,,,,,,,,,,15,,76,0
47159,note_on,,29,0,8,,,,,,,,,,,,,,,,13,,45,0
47160,note_on,,0,0,9,,,,,,,,,,,,,,,,15,,73,48
47160,note_on,,1,0,9,,,,,,,,,,,,,,,,15,,42,48
47160,note_on,,61,0,7,,,,,,,,,,,,,,,,10,,61,48
47160,note_on,,0,0,9,,,,,,,,,,,,,,,,15,,69,48
47160,note_on,,0,0,9,,,,,,,,,,,,,,,,15,,66,48
47160,note_on,,1,0,8,,,,,,,,,,,,,,,,13,,42,48
47160,note_on,,1,0,6,,,,,,,,,,,,,,,,5,,69,64
47219,note_on,,59,0,7,,,,,,,,,,,,,,,,10,,61,0
47249,note_on,,89,0,8,,,,,,,,,,,,,,,,13,,42,0
47249,note_on,,89,0,9,,,,,,,,,,,,,,,,15,,42,0
47250,note_on,,1,0,8,,,,,,,,,,,,,,,,13,,44,48
47250,note_on,,1,0,9,,,,,,,,,,,,,,,,15,,44,48
47279,note_on,,29,0,8,,,,,,,,,,,,,,,,13,,44,0
47279,note_on,,29,0,9,,,,,,,,,,,,,,,,15,,44,0
47280,note_on,,1,0,8,,,,,,,,,,,,,,,,13,,42,48
47280,note_on,,1,0,9,,,,,,,,,,,,,,,,15,,42,48
47280,note_on,,61,0,7,,,,,,,,,,,,,,,,10,,61,48
47339,note_on,,59,0,7,,,,,,,,,,,,,,,,10,,61,0
47369,note_on,,89,0,8,,,,,,,,,,,,,,,,13,,42,0
47369,note_on,,89,0,9,,,,,,,,,,,,,,,,15,,42,0
47370,note_on,,1,0,9,,,,,,,,,,,,,,,,15,,44,48
47370,note_on,,1,0,8,,,,,,,,,,,,,,,,13,,44,48
47399,note_on,,29,0,8,,,,,,,,,,,,,,,,13,,44,0
47399,note_on,,0,0,9,,,,,,,,,,,,,,,,15,,66,0
47399,note_on,,0,0,9,,,,,,,,,,,,,,,,15,,69,0
47399,note_on,,29,0,9,,,,,,,,,,,,,,,,15,,73,0
47399,note_on,,239,0,6,,,,,,,,,,,,,,,,5,,69,0
47399,note_on,,0,0,9,,,,,,,,,,,,,,,,15,,44,0
47400,note_on,,1,0,6,,,,,,,,,,,,,,,,5,,69,64
47400,note_on,,1,0,8,,,,,,,,,,,,,,,,13,,42,48
47400,note_on,,0,0,9,,,,,,,,,,,,,,,,15,,63,48
47400,note_on,,0,0,9,,,,,,,,,,,,,,,,15,,69,48
47400,note_on,,0,0,9,,,,,,,,,,,,,,,,15,,71,48
47400,note_on,,61,0,7,,,,,,,,,,,,,,,,10,,63,48
47400,note_on,,1,0,9,,,,,,,,,,,,,,,,15,,42,48
47459,note_on,,59,0,7,,,,,,,,,,,,,,,,10,,63,0
47489,note_on,,89,0,8,,,,,,,,,,,,,,,,13,,42,0
47489,note_on,,89,0,9,,,,,,,,,,,,,,,,15,,42,0
47490,note_on,,1,0,9,,,,,,,,,,,,,,,,15,,44,48
47490,note_on,,1,0,8,,,,,,,,,,,,,,,,13,,44,48
47519,note_on,,29,0,9,,,,,,,,,,,,,,,,15,,71,0
47519,note_on,,119,0,6,,,,,,,,,,,,,,,,5,,69,0
47519,note_on,,29,0,8,,,,,,,,,,,,,,,,13,,44,0
47519,note_on,,0,0,9,,,,,,,,,,,,,,,,15,,69,0
47519,note_on,,0,0,9,,,,,,,,,,,,,,,,15,,44,0
47519,note_on,,0,0,9,,,,,,,,,,,,,,,,15,,63,0
47520,note_on,,0,0,9,,,,,,,,,,,,,,,,15,,64,48
47520,note_on,,0,0,9,,,,,,,,,,,,,,,,15,,68,48
47520,note_on,,1,0,8,,,,,,,,,,,,,,,,13,,40,48
47520,note_on,,0,0,9,,,,,,,,,,,,,,,,15,,71,48
47520,note_on,,1,0,6,,,,,,,,,,,,,,,,5,,68,64
47520,note_on,,61,0,7,,,,,,,,,,,,,,,,10,,64,48
47520,note_on,,1,0,9,,,,,,,,,,,,,,,,15,,40,48
47639,note_on,,119,0,9,,,,,,,,,,,,,,,,15,,40,0
47639,note_on,,119,0,8,,,,,,,,,,,,,,,,13,,40,0
47640,note_on,,1,0,8,,,,,,,,,,,,,,,,13,,52,48
47640,note_on,,1,0,9,,,,,,,,,,,,,,,,15,,52,48
47759,note_on,,239,0,6,,,,,,,,,,,,,,,,5,,68,0
47759,note_on,,119,0,8,,,,,,,,,,,,,,,,13,,52,0
47759,note_on,,0,0,9,,,,,,,,,,,,,,,,15,,52,0
47759,note_on,,0,0,9,,,,,,,,,,,,,,,,15,,64,0
47759,note_on,,0,0,9,,,,,,,,,,,,,,,,15,,68,0
47759,note_on,,119,0,9,,,,,,,,,,,,,,,,15,,71,0
47759,note_on,,239,0,7,,,,,,,,,,,,,,,,10,,64,0
47760,note_on,,1,0,6,,,,,,,,,,,,,,,,5,,71,64
47760,note_on,,1,0,8,,,,,,,,,,,,,,,,13,,51,48
47760,note_on,,1,0,9,,,,,,,,,,,,,,,,15,,51,48
47879,note_on,,119,0,8,,,,,,,,,,,,,,,,13,,51,0
47879,note_on,,119,0,6,,,,,,,,,,,,,,,,5,,71,0
47879,note_on,,119,0,9,,,,,,,,,,,,,,,,15,,51,0
47880,note_on,,1,0,8,,,,,,,,,,,,,,,,13,,49,48
47880,note_on,,0,0,9,,,,,,,,,,,,,,,,15,,73,48
47880,note_on,,0,0,9,,,,,,,,,,,,,,,,15,,76,48
47880,note_on,,1,0,9,,,,,,,,,,,,,,,,15,,49,48
47880,note_on,,0,0,9,,,,,,,,,,,,,,,,15,,64,48
47880,note_on,,1,0,6,,,,,,,,,,,,,,,,5,,70,64
48059,note_on,,179,0,6,,,,,,,,,,,,,,,,5,,70,0
48060,note_on,,1,0,6,,,,,,,,,,,,,,,,5,,71,64
48119,note_on,,59,0,6,,,,,,,,,,,,,,,,5,,71,0
48120,note_on,,1,0,6,,,,,,,,,,,,,,,,5,,70,64
48179,note_on,,59,0,6,,,,,,,,,,,,,,,,5,,70,0
48180,note_on,,1,0,6,,,,,,,,,,,,,,,,5,,71,64
48239,note_on,,59,0,6,,,,,,,,,,,,,,,,5,,71,0
48239,note_on,,0,0,9,,,,,,,,,,,,,,,,15,,64,0
48239,note_on,,0,0,9,,,,,,,,,,,,,,,,15,,73,0
48239,note_on,,359,0,9,,,,,,,,,,,,,,,,15,,76,0
48240,note_on,,0,0,9,,,,,,,,,,,,,,,,15,,49,48
48240,note_on,,0,0,8,,,,,,,,,,,,,,,,13,,49,48
48240,note_on,,1,0,9,,,,,,,,,,,,,,,,15,,49,0
48240,note_on,,1,0,6,,,,,,,,,,,,,,,,5,,64,64
48240,note_on,,0,0,9,,,,,,,,,,,,,,,,15,,61,48
48240,note_on,,0,0,9,,,,,,,,,,,,,,,,15,,81,48
48240,note_on,,0,0,9,,,,,,,,,,,,,,,,15,,76,48
48240,note_on,,0,0,9,,,,,,,,,,,,,,,,15,,69,48
48240,note_on,,360,0,8,,,,,,,,,,,,,,,,13,,49,0
48479,note_on,,239,0,6,,,,,,,,,,,,,,,,5,,64,0
48480,note_on,,1,0,6,,,,,,,,,,,,,,,,5,,69,64
48599,note_on,,359,0,9,,,,,,,,,,,,,,,,15,,49,0
48599,note_on,,0,0,9,,,,,,,,,,,,,,,,15,,61,0
48599,note_on,,0,0,9,,,,,,,,,,,,,,,,15,,76,0
48599,note_on,,0,0,9,,,,,,,,,,,,,,,,15,,69,0
48599,note_on,,359,0,8,,,,,,,,,,,,,,,,13,,49,0
48599,note_on,,0,0,9,,,,,,,,,,,,,,,,15,,81,0
48599,note_on,,119,0,6,,,,,,,,,,,,,,,,5,,69,0
48600,note_on,,1,0,6,,,,,,,,,,,,,,,,5,,68,64
48600,note_on,,0,0,9,,,,,,,,,,,,,,,,15,,64,48
48600,note_on,,1,0,9,,,,,,,,,,,,,,,,15,,47,48
48600,note_on,,0,0,9,,,,,,,,,,,,,,,,15,,68,48
48600,note_on,,0,0,9,,,,,,,,,,,,,,,,15,,71,48
48600,note_on,,0,0,9,,,,,,,,,,,,,,,,15,,76,48
48600,note_on,,1,0,8,,,,,,,,,,,,,,,,13,,47,48
48659,note_on,,59,0,6,,,,,,,,,,,,,,,,5,,68,0
48660,note_on,,1,0,6,,,,,,,,,,,,,,,,5,,69,64
48719,note_on,,59,0,6,,,,,,,,,,,,,,,,5,,69,0
48720,note_on,,1,0,6,,,,,,,,,,,,,,,,5,,66,64
48734,note_on,,14,0,6,,,,,,,,,,,,,,,,5,,66,0
48735,note_on,,1,0,6,,,,,,,,,,,,,,,,5,,68,64
48749,note_on,,14,0,6,,,,,,,,,,,,,,,,5,,68,0
48750,note_on,,1,0,6,,,,,,,,,,,,,,,,5,,66,64
48764,note_on,,14,0,6,,,,,,,,,,,,,,,,5,,66,0
48765,note_on,,1,0,6,,,,,,,,,,,,,,,,5,,68,64
48779,note_on,,14,0,6,,,,,,,,,,,,,,,,5,,68,0
48780,note_on,,1,0,6,,,,,,,,,,,,,,,,5,,66,64
48794,note_on,,14,0,6,,,,,,,,,,,,,,,,5,,66,0
48795,note_on,,1,0,6,,,,,,,,,,,,,,,,5,,68,64
48809,note_on,,14,0,6,,,,,,,,,,,,,,,,5,,68,0
48810,note_on,,1,0,6,,,,,,,,,,,,,,,,5,,66,64
48824,note_on,,14,0,6,,,,,,,,,,,,,,,,5,,66,0
48825,note_on,,1,0,6,,,,,,,,,,,,,,,,5,,68,64
48839,note_on,,14,0,6,,,,,,,,,,,,,,,,5,,68,0
48839,note_on,,0,0,9,,,,,,,,,,,,,,,,15,,76,0
48839,note_on,,239,0,8,,,,,,,,,,,,,,,,13,,47,0
48839,note_on,,0,0,9,,,,,,,,,,,,,,,,15,,64,0
48839,note_on,,0,0,9,,,,,,,,,,,,,,,,15,,68,0
48839,note_on,,0,0,9,,,,,,,,,,,,,,,,15,,71,0
48839,note_on,,239,0,9,,,,,,,,,,,,,,,,15,,47,0
48840,note_on,,1,0,8,,,,,,,,,,,,,,,,13,,47,48
48840,note_on,,1,0,9,,,,,,,,,,,,,,,,15,,47,48
48840,note_on,,0,0,9,,,,,,,,,,,,,,,,15,,75,48
48840,note_on,,0,0,9,,,,,,,,,,,,,,,,15,,71,48
48840,note_on,,0,0,9,,,,,,,,,,,,,,,,15,,66,48
48840,note_on,,1,0,6,,,,,,,,,,,,,,,,5,,66,64
48854,note_on,,14,0,6,,,,,,,,,,,,,,,,5,,66,0
48855,note_on,,1,0,6,,,,,,,,,,,,,,,,5,,68,64
48869,note_on,,14,0,6,,,,,,,,,,,,,,,,5,,68,0
48870,note_on,,1,0,6,,,,,,,,,,,,,,,,5,,66,64
48884,note_on,,14,0,6,,,,,,,,,,,,,,,,5,,66,0
48885,note_on,,1,0,6,,,,,,,,,,,,,,,,5,,68,64
48899,note_on,,14,0,6,,,,,,,,,,,,,,,,5,,68,0
48900,note_on,,1,0,6,,,,,,,,,,,,,,,,5,,66,64
48914,note_on,,14,0,6,,,,,,,,,,,,,,,,5,,66,0
48915,note_on,,1,0,6,,,,,,,,,,,,,,,,5,,68,64
48929,note_on,,14,0,6,,,,,,,,,,,,,,,,5,,68,0
48930,note_on,,1,0,6,,,,,,,,,,,,,,,,5,,66,64
48944,note_on,,14,0,6,,,,,,,,,,,,,,,,5,,66,0
48945,note_on,,1,0,6,,,,,,,,,,,,,,,,5,,64,64
48959,note_on,,119,0,8,,,,,,,,,,,,,,,,13,,47,0
48959,note_on,,0,0,9,,,,,,,,,,,,,,,,15,,71,0
48959,note_on,,0,0,9,,,,,,,,,,,,,,,,15,,66,0
48959,note_on,,119,0,9,,,,,,,,,,,,,,,,15,,47,0
48959,note_on,,14,0,6,,,,,,,,,,,,,,,,5,,64,0
48959,note_on,,0,0,9,,,,,,,,,,,,,,,,15,,75,0
48960,note_on,,1,0,8,,,,,,,,,,,,,,,,13,,52,48
48960,note_on,,0,0,9,,,,,,,,,,,,,,,,15,,71,48
48960,note_on,,0,0,9,,,,,,,,,,,,,,,,15,,68,48
48960,note_on,,1,0,9,,,,,,,,,,,,,,,,15,,52,48
48960,note_on,,1,0,6,,,,,,,,,,,,,,,,5,,64,64
48960,note_on,,0,0,9,,,,,,,,,,,,,,,,15,,76,48
49079,note_on,,119,0,8,,,,,,,,,,,,,,,,13,,52,0
49079,note_on,,119,0,9,,,,,,,,,,,,,,,,15,,52,0
49080,note_on,,1,0,9,,,,,,,,,,,,,,,,15,,64,48
49080,note_on,,1,0,8,,,,,,,,,,,,,,,,13,,64,48
49199,note_on,,0,0,9,,,,,,,,,,,,,,,,15,,68,0
49199,note_on,,119,0,9,,,,,,,,,,,,,,,,15,,76,0
49199,note_on,,0,0,9,,,,,,,,,,,,,,,,15,,64,0
49199,note_on,,239,0,6,,,,,,,,,,,,,,,,5,,64,0
49199,note_on,,119,0,8,,,,,,,,,,,,,,,,13,,64,0
49199,note_on,,0,0,9,,,,,,,,,,,,,,,,15,,71,0
49200,note_on,,6361,0,5,,,,,,,,,,,,,,,,2,,63,48
49200,note_on,,1,0,9,,,,,,,,,,,,,,,,15,,63,48
49200,note_on,,1,0,8,,,,,,,,,,,,,,,,13,,63,48
49200,note_on,,1441,0,7,,,,,,,,,,,,,,,,10,,83,48
49319,note_on,,119,0,5,,,,,,,,,,,,,,,,2,,63,0
49319,note_on,,119,0,9,,,,,,,,,,,,,,,,15,,63,0
49319,note_on,,119,0,8,,,,,,,,,,,,,,,,13,,63,0
49319,note_on,,119,0,7,,,,,,,,,,,,,,,,10,,83,0
49320,note_on,,0,0,9,,,,,,,,,,,,,,,,15,,64,48
49320,note_on,,1,0,7,,,,,,,,,,,,,,,,10,,82,48
49320,note_on,,1,0,5,,,,,,,,,,,,,,,,2,,61,48
49320,note_on,,1,0,8,,,,,,,,,,,,,,,,13,,61,48
49320,note_on,,1,0,9,,,,,,,,,,,,,,,,15,,61,48
49320,note_on,,0,0,9,,,,,,,,,,,,,,,,15,,70,48
49409,note_on,,89,0,7,,,,,,,,,,,,,,,,10,,82,0
49410,note_on,,1,0,7,,,,,,,,,,,,,,,,10,,83,48
49439,note_on,,29,0,7,,,,,,,,,,,,,,,,10,,83,0
49440,note_on,,1,0,7,,,,,,,,,,,,,,,,10,,82,48
49529,note_on,,89,0,7,,,,,,,,,,,,,,,,10,,82,0
49530,note_on,,1,0,7,,,,,,,,,,,,,,,,10,,83,48
49559,note_on,,29,0,7,,,,,,,,,,,,,,,,10,,83,0
49560,note_on,,1,0,7,,,,,,,,,,,,,,,,10,,82,48
49649,note_on,,89,0,7,,,,,,,,,,,,,,,,10,,82,0
49650,note_on,,1,0,7,,,,,,,,,,,,,,,,10,,83,48
49679,note_on,,359,0,9,,,,,,,,,,,,,,,,15,,61,0
49679,note_on,,359,0,8,,,,,,,,,,,,,,,,13,,61,0
49679,note_on,,359,0,5,,,,,,,,,,,,,,,,2,,61,0
49679,note_on,,0,0,9,,,,,,,,,,,,,,,,15,,64,0
49679,note_on,,0,0,9,,,,,,,,,,,,,,,,15,,70,0
49679,note_on,,29,0,7,,,,,,,,,,,,,,,,10,,83,0
49680,note_on,,1,0,8,,,,,,,,,,,,,,,,13,,49,48
49680,note_on,,1,0,5,,,,,,,,,,,,,,,,2,,49,48
49680,note_on,,1,0,7,,,,,,,,,,,,,,,,10,,76,48
49680,note_on,,0,0,9,,,,,,,,,,,,,,,,15,,61,48
49680,note_on,,1,0,9,,,,,,,,,,,,,,,,15,,49,48
49695,note_on,,15,0,9,,,,,,,,,,,,,,,,15,,64,48
49710,note_on,,15,0,9,,,,,,,,,,,,,,,,15,,69,48
49725,note_on,,15,0,9,,,,,,,,,,,,,,,,15,,76,48
49919,note_on,,239,0,8,,,,,,,,,,,,,,,,13,,49,0
49919,note_on,,194,0,9,,,,,,,,,,,,,,,,15,,49,0
49919,note_on,,239,0,7,,,,,,,,,,,,,,,,10,,76,0
49919,note_on,,239,0,5,,,,,,,,,,,,,,,,2,,49,0
49920,note_on,,1,0,7,,,,,,,,,,,,,,,,10,,81,48
49920,note_on,,1,0,8,,,,,,,,,,,,,,,,13,,61,48
49920,note_on,,1,0,5,,,,,,,,,,,,,,,,2,,61,48
50039,note_on,,119,0,7,,,,,,,,,,,,,,,,10,,81,0
50039,note_on,,119,0,8,,,,,,,,,,,,,,,,13,,61,0
50039,note_on,,119,0,5,,,,,,,,,,,,,,,,2,,61,0
50039,note_on,,120,0,9,,,,,,,,,,,,,,,,15,,61,0
50039,note_on,,0,0,9,,,,,,,,,,,,,,,,15,,64,0
50039,note_on,,0,0,9,,,,,,,,,,,,,,,,15,,69,0
50039,note_on,,0,0,9,,,,,,,,,,,,,,,,15,,76,0
50040,note_on,,1,0,8,,,,,,,,,,,,,,,,13,,59,48
50040,note_on,,1,0,7,,,,,,,,,,,,,,,,10,,80,48
50040,note_on,,0,0,9,,,,,,,,,,,,,,,,15,,64,48
50040,note_on,,0,0,9,,,,,,,,,,,,,,,,15,,68,48
50040,note_on,,0,0,9,,,,,,,,,,,,,,,,15,,71,48
50040,note_on,,1,0,9,,,,,,,,,,,,,,,,15,,59,48
50040,note_on,,1,0,5,,,,,,,,,,,,,,,,2,,59,48
50079,note_on,,39,0,7,,,,,,,,,,,,,,,,10,,80,0
50080,note_on,,1,0,7,,,,,,,,,,,,,,,,10,,78,48
50119,note_on,,39,0,7,,,,,,,,,,,,,,,,10,,78,0
50120,note_on,,1,0,7,,,,,,,,,,,,,,,,10,,76,48
50159,note_on,,39,0,7,,,,,,,,,,,,,,,,10,,76,0
50160,note_on,,1,0,7,,,,,,,,,,,,,,,,10,,80,48
50279,note_on,,239,0,5,,,,,,,,,,,,,,,,2,,59,0
50279,note_on,,119,0,7,,,,,,,,,,,,,,,,10,,80,0
50279,note_on,,0,0,9,,,,,,,,,,,,,,,,15,,71,0
50279,note_on,,239,0,9,,,,,,,,,,,,,,,,15,,59,0
50279,note_on,,0,0,9,,,,,,,,,,,,,,,,15,,64,0
50279,note_on,,239,0,8,,,,,,,,,,,,,,,,13,,59,0
50279,note_on,,0,0,9,,,,,,,,,,,,,,,,15,,68,0
50280,note_on,,1,0,8,,,,,,,,,,,,,,,,13,,47,48
50280,note_on,,0,0,9,,,,,,,,,,,,,,,,15,,63,48
50280,note_on,,1,0,5,,,,,,,,,,,,,,,,2,,47,48
50280,note_on,,0,0,9,,,,,,,,,,,,,,,,15,,69,48
50280,note_on,,1,0,9,,,,,,,,,,,,,,,,15,,47,48
50280,note_on,,1,0,7,,,,,,,,,,,,,,,,10,,78,48
50280,note_on,,0,0,9,,,,,,,,,,,,,,,,15,,59,48
50294,note_on,,14,0,7,,,,,,,,,,,,,,,,10,,78,0
50295,note_on,,1,0,7,,,,,,,,,,,,,,,,10,,80,48
50309,note_on,,14,0,7,,,,,,,,,,,,,,,,10,,80,0
50310,note_on,,1,0,7,,,,,,,,,,,,,,,,10,,78,48
50324,note_on,,14,0,7,,,,,,,,,,,,,,,,10,,78,0
50325,note_on,,1,0,7,,,,,,,,,,,,,,,,10,,80,48
50339,note_on,,14,0,7,,,,,,,,,,,,,,,,10,,80,0
50340,note_on,,1,0,7,,,,,,,,,,,,,,,,10,,76,48
50354,note_on,,14,0,7,,,,,,,,,,,,,,,,10,,76,0
50355,note_on,,1,0,7,,,,,,,,,,,,,,,,10,,78,48
50369,note_on,,14,0,7,,,,,,,,,,,,,,,,10,,78,0
50370,note_on,,1,0,7,,,,,,,,,,,,,,,,10,,76,48
50399,note_on,,119,0,9,,,,,,,,,,,,,,,,15,,47,0
50399,note_on,,119,0,5,,,,,,,,,,,,,,,,2,,47,0
50399,note_on,,29,0,7,,,,,,,,,,,,,,,,10,,76,0
50399,note_on,,119,0,8,,,,,,,,,,,,,,,,13,,47,0
50399,note_on,,0,0,9,,,,,,,,,,,,,,,,15,,59,0
50399,note_on,,0,0,9,,,,,,,,,,,,,,,,15,,63,0
50399,note_on,,0,0,9,,,,,,,,,,,,,,,,15,,69,0
50400,note_on,,1,0,8,,,,,,,,,,,,,,,,13,,52,48
50400,note_on,,0,0,9,,,,,,,,,,,,,,,,15,,59,48
50400,note_on,,1,0,7,,,,,,,,,,,,,,,,10,,76,48
50400,note_on,,0,0,9,,,,,,,,,,,,,,,,15,,68,48
50400,note_on,,1,0,9,,,,,,,,,,,,,,,,15,,52,48
50400,note_on,,1,0,5,,,,,,,,,,,,,,,,2,,52,48
50400,note_on,,0,0,9,,,,,,,,,,,,,,,,15,,64,48
50639,note_on,,0,0,9,,,,,,,,,,,,,,,,15,,64,0
50639,note_on,,239,0,9,,,,,,,,,,,,,,,,15,,52,0
50639,note_on,,0,0,9,,,,,,,,,,,,,,,,15,,68,0
50639,note_on,,0,0,9,,,,,,,,,,,,,,,,15,,59,0
50639,note_on,,239,0,5,,,,,,,,,,,,,,,,2,,52,0
50639,note_on,,239,0,7,,,,,,,,,,,,,,,,10,,76,0
50639,note_on,,239,0,8,,,,,,,,,,,,,,,,13,,52,0
50640,note_on,,1,0,8,,,,,,,,,,,,,,,,13,,47,48
50640,note_on,,0,0,9,,,,,,,,,,,,,,,,15,,63,48
50640,note_on,,0,0,9,,,,,,,,,,,,,,,,15,,66,48
50640,note_on,,1441,0,6,,,,,,,,,,,,,,,,5,,66,64
50640,note_on,,1,0,9,,,,,,,,,,,,,,,,15,,47,48
50640,note_on,,0,0,9,,,,,,,,,,,,,,,,15,,71,48
50640,note_on,,0,0,9,,,,,,,,,,,,,,,,15,,59,48
50759,note_on,,119,0,8,,,,,,,,,,,,,,,,13,,47,0
50759,note_on,,0,0,9,,,,,,,,,,,,,,,,15,,63,0
50759,note_on,,119,0,9,,,,,,,,,,,,,,,,15,,47,0
50759,note_on,,0,0,9,,,,,,,,,,,,,,,,15,,66,0
50759,note_on,,0,0,9,,,,,,,,,,,,,,,,15,,71,0
50759,note_on,,0,0,9,,,,,,,,,,,,,,,,15,,59,0
50759,note_on,,119,0,6,,,,,,,,,,,,,,,,5,,66,0
50760,note_on,,1,0,6,,,,,,,,,,,,,,,,5,,68,64
50760,note_on,,1,0,9,,,,,,,,,,,,,,,,15,,52,48
50760,note_on,,0,0,9,,,,,,,,,,,,,,,,15,,68,48
50760,note_on,,0,0,9,,,,,,,,,,,,,,,,15,,64,48
50760,note_on,,0,0,9,,,,,,,,,,,,,,,,15,,59,48
50760,note_on,,1,0,8,,,,,,,,,,,,,,,,13,,52,48
50879,note_on,,119,0,6,,,,,,,,,,,,,,,,5,,68,0
50880,note_on,,1,0,6,,,,,,,,,,,,,,,,5,,68,64
50999,note_on,,0,0,9,,,,,,,,,,,,,,,,15,,59,0
50999,note_on,,0,0,9,,,,,,,,,,,,,,,,15,,64,0
50999,note_on,,119,0,6,,,,,,,,,,,,,,,,5,,68,0
50999,note_on,,239,0,8,,,,,,,,,,,,,,,,13,,52,0
50999,note_on,,0,0,9,,,,,,,,,,,,,,,,15,,68,0
50999,note_on,,239,0,9,,,,,,,,,,,,,,,,15,,52,0
51000,note_on,,0,0,9,,,,,,,,,,,,,,,,15,,63,48
51000,note_on,,0,0,9,,,,,,,,,,,,,,,,15,,66,48
51000,note_on,,0,0,9,,,,,,,,,,,,,,,,15,,57,48
51000,note_on,,1,0,6,,,,,,,,,,,,,,,,5,,69,64
51000,note_on,,1,0,8,,,,,,,,,,,,,,,,13,,54,48
51000,note_on,,1,0,9,,,,,,,,,,,,,,,,15,,54,48
51119,note_on,,119,0,6,,,,,,,,,,,,,,,,5,,69,0
51119,note_on,,119,0,9,,,,,,,,,,,,,,,,15,,54,0
51119,note_on,,0,0,9,,,,,,,,,,,,,,,,15,,66,0
51119,note_on,,0,0,9,,,,,,,,,,,,,,,,15,,63,0
51119,note_on,,0,0,9,,,,,,,,,,,,,,,,15,,57,0
51119,note_on,,119,0,8,,,,,,,,,,,,,,,,13,,54,0
51120,note_on,,1,0,9,,,,,,,,,,,,,,,,15,,56,48
51120,note_on,,0,0,9,,,,,,,,,,,,,,,,15,,71,48
51120,note_on,,0,0,9,,,,,,,,,,,,,,,,15,,64,48
51120,note_on,,0,0,9,,,,,,,,,,,,,,,,15,,59,48
51120,note_on,,1,0,6,,,,,,,,,,,,,,,,5,,71,64
51120,note_on,,1,0,8,,,,,,,,,,,,,,,,13,,56,48
51239,note_on,,119,0,6,,,,,,,,,,,,,,,,5,,71,0
51240,note_on,,1,0,6,,,,,,,,,,,,,,,,5,,71,64
51359,note_on,,119,0,6,,,,,,,,,,,,,,,,5,,71,0
51359,note_on,,239,0,8,,,,,,,,,,,,,,,,13,,56,0
51359,note_on,,239,0,9,,,,,,,,,,,,,,,,15,,56,0
51359,note_on,,0,0,9,,,,,,,,,,,,,,,,15,,71,0
51359,note_on,,0,0,9,,,,,,,,,,,,,,,,15,,64,0
51359,note_on,,0,0,9,,,,,,,,,,,,,,,,15,,59,0
51360,note_on,,1,0,6,,,,,,,,,,,,,,,,5,,73,64
51360,note_on,,1,0,8,,,,,,,,,,,,,,,,13,,57,48
51360,note_on,,1,0,9,,,,,,,,,,,,,,,,15,,57,48
51360,note_on,,0,0,9,,,,,,,,,,,,,,,,15,,64,48
51360,note_on,,0,0,9,,,,,,,,,,,,,,,,15,,61,48
51479,note_on,,119,0,9,,,,,,,,,,,,,,,,15,,57,0
51479,note_on,,119,0,6,,,,,,,,,,,,,,,,5,,73,0
51479,note_on,,119,0,8,,,,,,,,,,,,,,,,13,,57,0
51479,note_on,,0,0,9,,,,,,,,,,,,,,,,15,,61,0
51479,note_on,,0,0,9,,,,,,,,,,,,,,,,15,,64,0
51480,note_on,,0,0,9,,,,,,,,,,,,,,,,15,,57,48
51480,note_on,,1,0,6,,,,,,,,,,,,,,,,5,,75,64
51480,note_on,,0,0,9,,,,,,,,,,,,,,,,15,,63,48
51480,note_on,,0,0,9,,,,,,,,,,,,,,,,15,,69,48
51480,note_on,,1,0,9,,,,,,,,,,,,,,,,15,,54,48
51480,note_on,,1,0,8,,,,,,,,,,,,,,,,13,,54,48
51599,note_on,,119,0,6,,,,,,,,,,,,,,,,5,,75,0
51600,note_on,,1,0,6,,,,,,,,,,,,,,,,5,,75,64
51719,note_on,,0,0,9,,,,,,,,,,,,,,,,15,,69,0
51719,note_on,,0,0,9,,,,,,,,,,,,,,,,15,,63,0
51719,note_on,,239,0,9,,,,,,,,,,,,,,,,15,,54,0
51719,note_on,,119,0,6,,,,,,,,,,,,,,,,5,,75,0
51719,note_on,,0,0,9,,,,,,,,,,,,,,,,15,,57,0
51719,note_on,,239,0,8,,,,,,,,,,,,,,,,13,,54,0
51720,note_on,,1,0,9,,,,,,,,,,,,,,,,15,,56,48
51720,note_on,,1,0,8,,,,,,,,,,,,,,,,13,,56,48
51720,note_on,,0,0,9,,,,,,,,,,,,,,,,15,,76,48
51720,note_on,,0,0,9,,,,,,,,,,,,,,,,15,,68,48
51720,note_on,,0,0,9,,,,,,,,,,,,,,,,15,,59,48
51720,note_on,,1,0,6,,,,,,,,,,,,,,,,5,,76,64
51720,note_on,,0,0,9,,,,,,,,,,,,,,,,15,,71,48
51839,note_on,,119,0,9,,,,,,,,,,,,,,,,15,,56,0
51839,note_on,,119,0,6,,,,,,,,,,,,,,,,5,,76,0
51839,note_on,,119,0,8,,,,,,,,,,,,,,,,13,,56,0
51839,note_on,,0,0,9,,,,,,,,,,,,,,,,15,,76,0
51839,note_on,,0,0,9,,,,,,,,,,,,,,,,15,,71,0
51839,note_on,,0,0,9,,,,,,,,,,,,,,,,15,,59,0
51839,note_on,,0,0,9,,,,,,,,,,,,,,,,15,,68,0
51840,note_on,,1,0,8,,,,,,,,,,,,,,,,13,,51,48
51840,note_on,,0,0,9,,,,,,,,,,,,,,,,15,,71,48
51840,note_on,,0,0,9,,,,,,,,,,,,,,,,15,,69,48
51840,note_on,,0,0,9,,,,,,,,,,,,,,,,15,,66,48
51840,note_on,,0,0,9,,,,,,,,,,,,,,,,15,,59,48
51840,note_on,,1,0,9,,,,,,,,,,,,,,,,15,,51,48
51840,note_on,,1,0,6,,,,,,,,,,,,,,,,5,,78,64
51959,note_on,,0,0,9,,,,,,,,,,,,,,,,15,,59,0
51959,note_on,,0,0,9,,,,,,,,,,,,,,,,15,,71,0
51959,note_on,,0,0,9,,,,,,,,,,,,,,,,15,,69,0
51959,note_on,,0,0,9,,,,,,,,,,,,,,,,15,,66,0
51959,note_on,,119,0,6,,,,,,,,,,,,,,,,5,,78,0
51959,note_on,,119,0,8,,,,,,,,,,,,,,,,13,,51,0
51959,note_on,,119,0,9,,,,,,,,,,,,,,,,15,,51,0
51960,note_on,,1,0,6,,,,,,,,,,,,,,,,5,,80,64
51960,note_on,,1,0,8,,,,,,,,,,,,,,,,13,,52,48
51960,note_on,,1,0,9,,,,,,,,,,,,,,,,15,,52,48
51960,note_on,,0,0,9,,,,,,,,,,,,,,,,15,,71,48
51960,note_on,,0,0,9,,,,,,,,,,,,,,,,15,,68,48
51960,note_on,,0,0,9,,,,,,,,,,,,,,,,15,,59,48
51960,note_on,,0,0,9,,,,,,,,,,,,,,,,15,,64,48
52199,note_on,,239,0,6,,,,,,,,,,,,,,,,5,,80,0
52199,note_on,,0,0,9,,,,,,,,,,,,,,,,15,,59,0
52199,note_on,,0,0,9,,,,,,,,,,,,,,,,15,,64,0
52199,note_on,,0,0,9,,,,,,,,,,,,,,,,15,,68,0
52199,note_on,,0,0,9,,,,,,,,,,,,,,,,15,,71,0
52199,note_on,,239,0,9,,,,,,,,,,,,,,,,15,,52,0
52199,note_on,,239,0,8,,,,,,,,,,,,,,,,13,,52,0
52200,note_on,,0,0,9,,,,,,,,,,,,,,,,15,,64,48
52200,note_on,,1,0,6,,,,,,,,,,,,,,,,5,,73,64
52200,note_on,,0,0,9,,,,,,,,,,,,,,,,15,,69,48
52200,note_on,,0,0,9,,,,,,,,,,,,,,,,15,,73,48
52200,note_on,,1,0,9,,,,,,,,,,,,,,,,15,,57,48
52200,note_on,,1,0,8,,,,,,,,,,,,,,,,13,,57,48
52274,note_on,,74,0,6,,,,,,,,,,,,,,,,5,,73,0
52275,note_on,,1,0,6,,,,,,,,,,,,,,,,5,,76,64
52289,note_on,,14,0,6,,,,,,,,,,,,,,,,5,,76,0
52290,note_on,,1,0,6,,,,,,,,,,,,,,,,5,,75,64
52304,note_on,,14,0,6,,,,,,,,,,,,,,,,5,,75,0
52305,note_on,,1,0,6,,,,,,,,,,,,,,,,5,,73,64
52319,note_on,,14,0,6,,,,,,,,,,,,,,,,5,,73,0
52320,note_on,,1,0,6,,,,,,,,,,,,,,,,5,,75,64
52439,note_on,,119,0,6,,,,,,,,,,,,,,,,5,,75,0
52439,note_on,,239,0,9,,,,,,,,,,,,,,,,15,,57,0
52439,note_on,,0,0,9,,,,,,,,,,,,,,,,15,,73,0
52439,note_on,,0,0,9,,,,,,,,,,,,,,,,15,,69,0
52439,note_on,,0,0,9,,,,,,,,,,,,,,,,15,,64,0
52439,note_on,,239,0,8,,,,,,,,,,,,,,,,13,,57,0
52440,note_on,,1,0,9,,,,,,,,,,,,,,,,15,,52,48
52440,note_on,,0,0,9,,,,,,,,,,,,,,,,15,,71,48
52440,note_on,,0,0,9,,,,,,,,,,,,,,,,15,,68,48
52440,note_on,,0,0,9,,,,,,,,,,,,,,,,15,,76,48
52440,note_on,,1,0,8,,,,,,,,,,,,,,,,13,,52,48
52440,note_on,,1,0,6,,,,,,,,,,,,,,,,5,,76,64
52559,note_on,,0,0,9,,,,,,,,,,,,,,,,15,,76,0
52559,note_on,,119,0,6,,,,,,,,,,,,,,,,5,,76,0
52559,note_on,,0,0,9,,,,,,,,,,,,,,,,15,,68,0
52559,note_on,,119,0,8,,,,,,,,,,,,,,,,13,,52,0
52559,note_on,,119,0,9,,,,,,,,,,,,,,,,15,,52,0
52559,note_on,,0,0,9,,,,,,,,,,,,,,,,15,,71,0
52560,note_on,,0,0,9,,,,,,,,,,,,,,,,15,,64,48
52560,note_on,,0,0,9,,,,,,,,,,,,,,,,15,,68,48
52560,note_on,,0,0,9,,,,,,,,,,,,,,,,15,,71,48
52560,note_on,,1,0,9,,,,,,,,,,,,,,,,15,,59,48
52560,note_on,,1,0,6,,,,,,,,,,,,,,,,5,,68,64
52560,note_on,,1,0,8,,,,,,,,,,,,,,,,13,,59,48
52679,note_on,,0,0,9,,,,,,,,,,,,,,,,15,,64,0
52679,note_on,,119,0,6,,,,,,,,,,,,,,,,5,,68,0
52679,note_on,,119,0,9,,,,,,,,,,,,,,,,15,,68,0
52680,note_on,,1,0,6,,,,,,,,,,,,,,,,5,,66,64
52680,note_on,,0,0,9,,,,,,,,,,,,,,,,15,,63,48
52680,note_on,,1,0,9,,,,,,,,,,,,,,,,15,,66,48
52799,note_on,,239,0,8,,,,,,,,,,,,,,,,13,,59,0
52799,note_on,,119,0,9,,,,,,,,,,,,,,,,15,,59,0
52799,note_on,,0,0,9,,,,,,,,,,,,,,,,15,,71,0
52800,note_on,,2161,0,7,,,,,,,,,,,,,,,,10,,71,48
52800,note_on,,1,0,8,,,,,,,,,,,,,,,,13,,47,48
52800,note_on,,0,0,9,,,,,,,,,,,,,,,,15,,59,48
52800,note_on,,1,0,9,,,,,,,,,,,,,,,,15,,47,48
52919,note_on,,119,0,8,,,,,,,,,,,,,,,,13,,47,0
52919,note_on,,119,0,7,,,,,,,,,,,,,,,,10,,71,0
52919,note_on,,0,0,9,,,,,,,,,,,,,,,,15,,59,0
52919,note_on,,0,0,9,,,,,,,,,,,,,,,,15,,47,0
52919,note_on,,0,0,9,,,,,,,,,,,,,,,,15,,63,0
52919,note_on,,119,0,9,,,,,,,,,,,,,,,,15,,66,0
52919,note_on,,239,0,6,,,,,,,,,,,,,,,,5,,66,0
52920,note_on,,1,0,8,,,,,,,,,,,,,,,,13,,49,48
52920,note_on,,1,0,9,,,,,,,,,,,,,,,,15,,49,48
52920,note_on,,0,0,9,,,,,,,,,,,,,,,,15,,64,48
52920,note_on,,0,0,9,,,,,,,,,,,,,,,,15,,58,48
52920,note_on,,0,0,9,,,,,,,,,,,,,,,,15,,76,48
52920,note_on,,0,0,9,,,,,,,,,,,,,,,,15,,73,48
52920,note_on,,1,0,7,,,,,,,,,,,,,,,,10,,70,48
53009,note_on,,89,0,7,,,,,,,,,,,,,,,,10,,70,0
53010,note_on,,1,0,7,,,,,,,,,,,,,,,,10,,71,48
53039,note_on,,29,0,7,,,,,,,,,,,,,,,,10,,71,0
53040,note_on,,1,0,7,,,,,,,,,,,,,,,,10,,70,48
53129,note_on,,89,0,7,,,,,,,,,,,,,,,,10,,70,0
53130,note_on,,1,0,7,,,,,,,,,,,,,,,,10,,71,48
53159,note_on,,239,0,9,,,,,,,,,,,,,,,,15,,49,0
53159,note_on,,239,0,8,,,,,,,,,,,,,,,,13,,49,0
53159,note_on,,29,0,7,,,,,,,,,,,,,,,,10,,71,0
53160,note_on,,1,0,7,,,,,,,,,,,,,,,,10,,70,48
53249,note_on,,89,0,7,,,,,,,,,,,,,,,,10,,70,0
53250,note_on,,1,0,7,,,,,,,,,,,,,,,,10,,71,48
53279,note_on,,0,0,9,,,,,,,,,,,,,,,,15,,73,0
53279,note_on,,29,0,7,,,,,,,,,,,,,,,,10,,71,0
53279,note_on,,0,0,9,,,,,,,,,,,,,,,,15,,58,0
53279,note_on,,0,0,9,,,,,,,,,,,,,,,,15,,64,0
53279,note_on,,120,0,9,,,,,,,,,,,,,,,,15,,76,0
53280,note_on,,1,0,9,,,,,,,,,,,,,,,,15,,51,48
53280,note_on,,0,0,9,,,,,,,,,,,,,,,,15,,71,48
53280,note_on,,0,0,9,,,,,,,,,,,,,,,,15,,69,48
53280,note_on,,0,0,9,,,,,,,,,,,,,,,,15,,66,48
53280,note_on,,0,0,9,,,,,,,,,,,,,,,,15,,59,48
53280,note_on,,1,0,7,,,,,,,,,,,,,,,,10,,59,48
53280,note_on,,121,0,8,,,,,,,,,,,,,,,,13,,51,48
53519,note_on,,239,0,7,,,,,,,,,,,,,,,,10,,59,0
53520,note_on,,601,0,6,,,,,,,,,,,,,,,,5,,69,64
53609,note_on,,89,0,6,,,,,,,,,,,,,,,,5,,69,0
53610,note_on,,1,0,6,,,,,,,,,,,,,,,,5,,69,64
53639,note_on,,29,0,6,,,,,,,,,,,,,,,,5,,69,0
53639,note_on,,359,0,8,,,,,,,,,,,,,,,,13,,51,0
53639,note_on,,0,0,9,,,,,,,,,,,,,,,,15,,59,0
53639,note_on,,0,0,9,,,,,,,,,,,,,,,,15,,66,0
53639,note_on,,0,0,9,,,,,,,,,,,,,,,,15,,69,0
53639,note_on,,0,0,9,,,,,,,,,,,,,,,,15,,71,0
53639,note_on,,359,0,9,,,,,,,,,,,,,,,,15,,51,0
53640,note_on,,1,0,8,,,,,,,,,,,,,,,,13,,52,48
53640,note_on,,0,0,9,,,,,,,,,,,,,,,,15,,68,48
53640,note_on,,0,0,9,,,,,,,,,,,,,,,,15,,76,48
53640,note_on,,0,0,9,,,,,,,,,,,,,,,,15,,64,48
53640,note_on,,0,0,9,,,,,,,,,,,,,,,,15,,59,48
53640,note_on,,1,0,9,,,,,,,,,,,,,,,,15,,52,48
53640,note_on,,1,0,6,,,,,,,,,,,,,,,,5,,68,64
53759,note_on,,119,0,9,,,,,,,,,,,,,,,,15,,52,0
53759,note_on,,0,0,9,,,,,,,,,,,,,,,,15,,76,0
53759,note_on,,0,0,9,,,,,,,,,,,,,,,,15,,68,0
53759,note_on,,0,0,9,,,,,,,,,,,,,,,,15,,64,0
53759,note_on,,0,0,9,,,,,,,,,,,,,,,,15,,59,0
53759,note_on,,119,0,8,,,,,,,,,,,,,,,,13,,52,0
53759,note_on,,119,0,6,,,,,,,,,,,,,,,,5,,68,0
53760,note_on,,1,0,8,,,,,,,,,,,,,,,,13,,57,48
53760,note_on,,1,0,6,,,,,,,,,,,,,,,,5,,66,64
53760,note_on,,0,0,9,,,,,,,,,,,,,,,,15,,66,48
53760,note_on,,0,0,9,,,,,,,,,,,,,,,,15,,69,48
53760,note_on,,0,0,9,,,,,,,,,,,,,,,,15,,73,48
53760,note_on,,0,0,9,,,,,,,,,,,,,,,,15,,61,48
53760,note_on,,1,0,9,,,,,,,,,,,,,,,,15,,57,48
53879,note_on,,119,0,6,,,,,,,,,,,,,,,,5,,66,0
53880,note_on,,1,0,6,,,,,,,,,,,,,,,,5,,64,64
53999,note_on,,119,0,6,,,,,,,,,,,,,,,,5,,64,0
53999,note_on,,0,0,9,,,,,,,,,,,,,,,,15,,61,0
53999,note_on,,239,0,9,,,,,,,,,,,,,,,,15,,57,0
53999,note_on,,0,0,9,,,,,,,,,,,,,,,,15,,66,0
53999,note_on,,0,0,9,,,,,,,,,,,,,,,,15,,69,0
53999,note_on,,239,0,8,,,,,,,,,,,,,,,,13,,57,0
53999,note_on,,0,0,9,,,,,,,,,,,,,,,,15,,73,0
54000,note_on,,0,0,9,,,,,,,,,,,,,,,,15,,75,48
54000,set_tempo,,54000,1,0,,,,,,,,,1000000,,,,,,,,,,
54000,note_on,,1,0,9,,,,,,,,,,,,,,,,15,,57,48
54000,note_on,,1,0,6,,,,,,,,,,,,,,,,5,,75,64
54000,note_on,,0,0,9,,,,,,,,,,,,,,,,15,,71,48
54000,note_on,,1,0,8,,,,,,,,,,,,,,,,13,,57,48
54000,note_on,,0,0,9,,,,,,,,,,,,,,,,15,,66,48
54000,note_on,,0,0,9,,,,,,,,,,,,,,,,15,,59,48
54000,note_on,,0,0,9,,,,,,,,,,,,,,,,15,,78,48
54239,note_on,,239,0,9,,,,,,,,,,,,,,,,15,,57,0
54239,note_on,,0,0,9,,,,,,,,,,,,,,,,15,,78,0
54239,note_on,,0,0,9,,,,,,,,,,,,,,,,15,,66,0
54239,note_on,,239,0,8,,,,,,,,,,,,,,,,13,,57,0
54239,note_on,,0,0,9,,,,,,,,,,,,,,,,15,,75,0
54239,note_on,,0,0,9,,,,,,,,,,,,,,,,15,,71,0
54239,note_on,,0,0,9,,,,,,,,,,,,,,,,15,,59,0
54239,note_on,,239,0,6,,,,,,,,,,,,,,,,5,,75,0
54240,note_on,,1,0,6,,,,,,,,,,,,,,,,5,,76,64
54240,note_on,,0,0,9,,,,,,,,,,,,,,,,15,,59,48
54240,note_on,,0,0,9,,,,,,,,,,,,,,,,15,,76,48
54240,note_on,,0,0,9,,,,,,,,,,,,,,,,15,,80,48
54240,note_on,,1,0,9,,,,,,,,,,,,,,,,15,,56,48
54240,note_on,,0,0,9,,,,,,,,,,,,,,,,15,,71,48
54240,note_on,,1,0,8,,,,,,,,,,,,,,,,13,,56,48
54359,note_on,,119,0,8,,,,,,,,,,,,,,,,13,,56,0
54359,note_on,,119,0,6,,,,,,,,,,,,,,,,5,,76,0
54359,note_on,,119,0,9,,,,,,,,,,,,,,,,15,,56,0
54359,note_on,,0,0,9,,,,,,,,,,,,,,,,15,,80,0
54359,note_on,,0,0,9,,,,,,,,,,,,,,,,15,,76,0
54359,note_on,,0,0,9,,,,,,,,,,,,,,,,15,,71,0
54359,note_on,,0,0,9,,,,,,,,,,,,,,,,15,,59,0
54360,note_on,,0,0,9,,,,,,,,,,,,,,,,15,,76,48
54360,note_on,,1,0,8,,,,,,,,,,,,,,,,13,,59,48
54360,note_on,,1,0,6,,,,,,,,,,,,,,,,5,,68,64
54360,note_on,,1,0,9,,,,,,,,,,,,,,,,15,,59,48
54360,note_on,,0,0,9,,,,,,,,,,,,,,,,15,,68,48
54360,note_on,,0,0,9,,,,,,,,,,,,,,,,15,,71,48
54479,note_on,,0,0,9,,,,,,,,,,,,,,,,15,,68,0
54479,note_on,,119,0,9,,,,,,,,,,,,,,,,15,,76,0
54479,note_on,,0,0,9,,,,,,,,,,,,,,,,15,,71,0
54479,note_on,,119,0,6,,,,,,,,,,,,,,,,5,,68,0
54480,note_on,,1,0,6,,,,,,,,,,,,,,,,5,,66,64
54480,note_on,,0,0,9,,,,,,,,,,,,,,,,15,,66,48
54480,note_on,,0,0,9,,,,,,,,,,,,,,,,15,,71,48
54480,note_on,,1,0,9,,,,,,,,,,,,,,,,15,,75,48
54599,note_on,,239,0,8,,,,,,,,,,,,,,,,13,,59,0
54599,note_on,,119,0,9,,,,,,,,,,,,,,,,15,,59,0
54600,note_on,,1,0,8,,,,,,,,,,,,,,,,13,,47,48
54600,note_on,,1,0,9,,,,,,,,,,,,,,,,15,,47,48
54600,note_on,,0,0,9,,,,,,,,,,,,,,,,15,,59,48
54659,note_on,,179,0,6,,,,,,,,,,,,,,,,5,,66,0
54660,note_on,,1,0,6,,,,,,,,,,,,,,,,5,,64,64
54719,note_on,,59,0,6,,,,,,,,,,,,,,,,5,,64,0
54719,note_on,,0,0,9,,,,,,,,,,,,,,,,15,,71,0
54719,note_on,,119,0,9,,,,,,,,,,,,,,,,15,,75,0
54719,note_on,,0,0,9,,,,,,,,,,,,,,,,15,,66,0
54719,note_on,,0,0,9,,,,,,,,,,,,,,,,15,,47,0
54719,note_on,,0,0,9,,,,,,,,,,,,,,,,15,,59,0
54719,note_on,,119,0,8,,,,,,,,,,,,,,,,13,,47,0
54720,note_on,,1,0,9,,,,,,,,,,,,,,,,15,,52,48
54720,note_on,,0,0,9,,,,,,,,,,,,,,,,15,,76,48
54720,note_on,,0,0,9,,,,,,,,,,,,,,,,15,,71,48
54720,note_on,,0,0,9,,,,,,,,,,,,,,,,15,,68,48
54720,note_on,,0,0,9,,,,,,,,,,,,,,,,15,,59,48
54720,note_on,,1,0,8,,,,,,,,,,,,,,,,13,,52,48
54720,note_on,,1,0,6,,,,,,,,,,,,,,,,5,,64,64
54960,note_on,,1441,0,7,,,,,,,,,,,,,,,,10,,71,72
55079,note_on,,0,0,9,,,,,,,,,,,,,,,,15,,68,0
55079,note_on,,359,0,8,,,,,,,,,,,,,,,,13,,52,0
55079,note_on,,0,0,9,,,,,,,,,,,,,,,,15,,59,0
55079,end_of_track,,0,1,6,,,,,,,,,,,,,,,,,,,
55079,note_on,,359,0,6,,,,,,,,,,,,,,,,5,,64,0
55079,note_on,,359,0,9,,,,,,,,,,,,,,,,15,,52,0
55079,note_on,,0,0,9,,,,,,,,,,,,,,,,15,,71,0
55079,note_on,,119,0,7,,,,,,,,,,,,,,,,10,,71,0
55079,note_on,,0,0,9,,,,,,,,,,,,,,,,15,,76,0
55080,note_on,,1,0,7,,,,,,,,,,,,,,,,10,,76,72
55080,set_tempo,,1080,1,0,,,,,,,,,800000,,,,,,,,,,
55319,note_on,,239,0,7,,,,,,,,,,,,,,,,10,,76,0
55320,note_on,,241,0,9,,,,,,,,,,,,,,,,15,,59,72
55320,note_on,,0,0,9,,,,,,,,,,,,,,,,15,,68,72
55320,note_on,,0,0,9,,,,,,,,,,,,,,,,15,,63,72
55320,note_on,,241,0,8,,,,,,,,,,,,,,,,13,,59,72
55320,note_on,,4681,0,5,,,,,,,,,,,,,,,,2,,59,72
55320,note_on,,1,0,7,,,,,,,,,,,,,,,,10,,68,72
55334,note_on,,14,0,7,,,,,,,,,,,,,,,,10,,68,0
55335,note_on,,1,0,7,,,,,,,,,,,,,,,,10,,69,72
55349,note_on,,14,0,7,,,,,,,,,,,,,,,,10,,69,0
55350,note_on,,1,0,7,,,,,,,,,,,,,,,,10,,68,72
55364,note_on,,14,0,7,,,,,,,,,,,,,,,,10,,68,0
55365,note_on,,1,0,7,,,,,,,,,,,,,,,,10,,69,72
55379,note_on,,14,0,7,,,,,,,,,,,,,,,,10,,69,0
55380,note_on,,1,0,7,,,,,,,,,,,,,,,,10,,66,72
55394,note_on,,14,0,7,,,,,,,,,,,,,,,,10,,66,0
55395,note_on,,1,0,7,,,,,,,,,,,,,,,,10,,68,72
55409,note_on,,14,0,7,,,,,,,,,,,,,,,,10,,68,0
55410,note_on,,1,0,7,,,,,,,,,,,,,,,,10,,66,72
55439,note_on,,0,0,9,,,,,,,,,,,,,,,,15,,63,0
55439,note_on,,0,0,9,,,,,,,,,,,,,,,,15,,68,0
55439,note_on,,119,0,9,,,,,,,,,,,,,,,,15,,59,0
55439,note_on,,119,0,5,,,,,,,,,,,,,,,,2,,59,0
55439,note_on,,29,0,7,,,,,,,,,,,,,,,,10,,66,0
55439,note_on,,119,0,8,,,,,,,,,,,,,,,,13,,59,0
55440,note_on,,1,0,7,,,,,,,,,,,,,,,,10,,64,72
55440,note_on,,1,0,5,,,,,,,,,,,,,,,,2,,61,72
55440,note_on,,1,0,8,,,,,,,,,,,,,,,,13,,61,72
55440,note_on,,1,0,9,,,,,,,,,,,,,,,,15,,61,72
55440,note_on,,0,0,9,,,,,,,,,,,,,,,,15,,76,72
55440,note_on,,0,0,9,,,,,,,,,,,,,,,,15,,68,72
55440,note_on,,0,0,9,,,,,,,,,,,,,,,,15,,64,72
55679,note_on,,0,0,9,,,,,,,,,,,,,,,,15,,68,0
55679,note_on,,0,0,9,,,,,,,,,,,,,,,,15,,76,0
55679,note_on,,239,0,9,,,,,,,,,,,,,,,,15,,61,0
55679,note_on,,0,0,9,,,,,,,,,,,,,,,,15,,64,0
55679,note_on,,239,0,7,,,,,,,,,,,,,,,,10,,64,0
55679,note_on,,239,0,8,,,,,,,,,,,,,,,,13,,61,0
55679,note_on,,239,0,5,,,,,,,,,,,,,,,,2,,61,0
55680,note_on,,1,0,5,,,,,,,,,,,,,,,,2,,57,72
55680,note_on,,1,0,8,,,,,,,,,,,,,,,,13,,57,72
55680,note_on,,1,0,9,,,,,,,,,,,,,,,,15,,57,72
55680,note_on,,0,0,9,,,,,,,,,,,,,,,,15,,73,72
55680,note_on,,0,0,9,,,,,,,,,,,,,,,,15,,69,72
55680,note_on,,0,0,9,,,,,,,,,,,,,,,,15,,64,72
55680,note_on,,1,0,7,,,,,,,,,,,,,,,,10,,73,72
55799,note_on,,119,0,9,,,,,,,,,,,,,,,,15,,57,0
55799,note_on,,0,0,9,,,,,,,,,,,,,,,,15,,73,0
55799,note_on,,0,0,9,,,,,,,,,,,,,,,,15,,69,0
55799,note_on,,0,0,9,,,,,,,,,,,,,,,,15,,64,0
55799,note_on,,119,0,5,,,,,,,,,,,,,,,,2,,57,0
55799,note_on,,119,0,8,,,,,,,,,,,,,,,,13,,57,0
55799,note_on,,119,0,7,,,,,,,,,,,,,,,,10,,73,0
55800,note_on,,1,0,8,,,,,,,,,,,,,,,,13,,54,72
55800,note_on,,0,0,9,,,,,,,,,,,,,,,,15,,57,72
55800,note_on,,0,0,9,,,,,,,,,,,,,,,,15,,64,72
55800,note_on,,0,0,9,,,,,,,,,,,,,,,,15,,66,72
55800,note_on,,1,0,9,,,,,,,,,,,,,,,,15,,54,72
55800,note_on,,1,0,7,,,,,,,,,,,,,,,,10,,69,72
55800,note_on,,1,0,5,,,,,,,,,,,,,,,,2,,54,72
55979,note_on,,179,0,7,,,,,,,,,,,,,,,,10,,69,0
55980,note_on,,1,0,7,,,,,,,,,,,,,,,,10,,68,72
56039,note_on,,239,0,8,,,,,,,,,,,,,,,,13,,54,0
56039,note_on,,0,0,9,,,,,,,,,,,,,,,,15,,57,0
56039,note_on,,0,0,9,,,,,,,,,,,,,,,,15,,64,0
56039,note_on,,0,0,9,,,,,,,,,,,,,,,,15,,66,0
56039,note_on,,239,0,9,,,,,,,,,,,,,,,,15,,54,0
56039,note_on,,59,0,7,,,,,,,,,,,,,,,,10,,68,0
56039,note_on,,239,0,5,,,,,,,,,,,,,,,,2,,54,0
56040,note_on,,0,0,9,,,,,,,,,,,,,,,,15,,63,72
56040,note_on,,0,0,9,,,,,,,,,,,,,,,,15,,66,72
56040,note_on,,0,0,9,,,,,,,,,,,,,,,,15,,71,72
56040,note_on,,1,0,9,,,,,,,,,,,,,,,,15,,47,72
56040,note_on,,1,0,5,,,,,,,,,,,,,,,,2,,47,72
56040,note_on,,1,0,7,,,,,,,,,,,,,,,,10,,69,72
56040,note_on,,1,0,8,,,,,,,,,,,,,,,,13,,47,72
56159,note_on,,0,0,9,,,,,,,,,,,,,,,,15,,63,0
56159,note_on,,119,0,7,,,,,,,,,,,,,,,,10,,69,0
56159,note_on,,0,0,9,,,,,,,,,,,,,,,,15,,66,0
56159,note_on,,119,0,8,,,,,,,,,,,,,,,,13,,47,0
56159,note_on,,0,0,9,,,,,,,,,,,,,,,,15,,71,0
56159,note_on,,119,0,9,,,,,,,,,,,,,,,,15,,47,0
56159,note_on,,119,0,5,,,,,,,,,,,,,,,,2,,47,0
56160,note_on,,1,0,9,,,,,,,,,,,,,,,,15,,52,72
56160,note_on,,0,0,9,,,,,,,,,,,,,,,,15,,64,72
56160,note_on,,1,0,7,,,,,,,,,,,,,,,,10,,68,72
56160,note_on,,1,0,8,,,,,,,,,,,,,,,,13,,52,72
56160,note_on,,1,0,5,,,,,,,,,,,,,,,,2,,52,72
56160,note_on,,0,0,9,,,,,,,,,,,,,,,,15,,59,72
56160,note_on,,0,0,9,,,,,,,,,,,,,,,,15,,68,72
56279,note_on,,119,0,7,,,,,,,,,,,,,,,,10,,68,0
56340,note_on,,61,0,7,,,,,,,,,,,,,,,,10,,80,72
56399,note_on,,59,0,7,,,,,,,,,,,,,,,,10,,80,0
56399,note_on,,0,0,9,,,,,,,,,,,,,,,,15,,59,0
56399,note_on,,0,0,9,,,,,,,,,,,,,,,,15,,64,0
56399,note_on,,239,0,5,,,,,,,,,,,,,,,,2,,52,0
56399,note_on,,239,0,9,,,,,,,,,,,,,,,,15,,52,0
56399,note_on,,0,0,9,,,,,,,,,,,,,,,,15,,68,0
56399,note_on,,239,0,8,,,,,,,,,,,,,,,,13,,52,0
56400,note_on,,1,0,7,,,,,,,,,,,,,,,,10,,78,72
56414,note_on,,14,0,7,,,,,,,,,,,,,,,,10,,78,0
56415,note_on,,1,0,7,,,,,,,,,,,,,,,,10,,80,72
56429,note_on,,14,0,7,,,,,,,,,,,,,,,,10,,80,0
56430,note_on,,1,0,7,,,,,,,,,,,,,,,,10,,76,72
56444,note_on,,14,0,7,,,,,,,,,,,,,,,,10,,76,0
56445,note_on,,1,0,7,,,,,,,,,,,,,,,,10,,78,72
56459,note_on,,14,0,7,,,,,,,,,,,,,,,,10,,78,0
56460,note_on,,1,0,7,,,,,,,,,,,,,,,,10,,76,72
56519,note_on,,59,0,7,,,,,,,,,,,,,,,,10,,76,0
56520,note_on,,1,0,7,,,,,,,,,,,,,,,,10,,71,72
56639,note_on,,119,0,7,,,,,,,,,,,,,,,,10,,71,0
56700,note_on,,301,0,9,,,,,,,,,,,,,,,,15,,56,72
56700,note_on,,0,0,9,,,,,,,,,,,,,,,,15,,71,72
56700,note_on,,0,0,9,,,,,,,,,,,,,,,,15,,64,72
56700,note_on,,0,0,9,,,,,,,,,,,,,,,,15,,59,72
56700,note_on,,301,0,5,,,,,,,,,,,,,,,,2,,56,72
56700,note_on,,61,0,7,,,,,,,,,,,,,,,,10,,64,72
56700,note_on,,301,0,8,,,,,,,,,,,,,,,,13,,56,72
56759,note_on,,0,0,9,,,,,,,,,,,,,,,,15,,71,0
56759,note_on,,59,0,7,,,,,,,,,,,,,,,,10,,64,0
56759,note_on,,0,0,9,,,,,,,,,,,,,,,,15,,59,0
56759,note_on,,59,0,8,,,,,,,,,,,,,,,,13,,56,0
56759,note_on,,0,0,9,,,,,,,,,,,,,,,,15,,64,0
56759,note_on,,59,0,5,,,,,,,,,,,,,,,,2,,56,0
56759,note_on,,59,0,9,,,,,,,,,,,,,,,,15,,56,0
56760,note_on,,0,0,9,,,,,,,,,,,,,,,,15,,57,72
56760,note_on,,0,0,9,,,,,,,,,,,,,,,,15,,71,72
56760,note_on,,0,0,9,,,,,,,,,,,,,,,,15,,54,72
56760,note_on,,1,0,9,,,,,,,,,,,,,,,,15,,63,72
56760,note_on,,1,0,5,,,,,,,,,,,,,,,,2,,54,72
56760,note_on,,1,0,8,,,,,,,,,,,,,,,,13,,54,72
56760,note_on,,1,0,7,,,,,,,,,,,,,,,,10,,63,72
56819,note_on,,59,0,8,,,,,,,,,,,,,,,,13,,54,0
56819,note_on,,59,0,7,,,,,,,,,,,,,,,,10,,63,0
56819,note_on,,59,0,5,,,,,,,,,,,,,,,,2,,54,0
56819,note_on,,59,0,9,,,,,,,,,,,,,,,,15,,63,0
56819,note_on,,0,0,9,,,,,,,,,,,,,,,,15,,54,0
56819,note_on,,0,0,9,,,,,,,,,,,,,,,,15,,71,0
56819,note_on,,0,0,9,,,,,,,,,,,,,,,,15,,57,0
56820,note_on,,0,0,9,,,,,,,,,,,,,,,,15,,64,72
56820,note_on,,1,0,7,,,,,,,,,,,,,,,,10,,61,72
56820,note_on,,1,0,5,,,,,,,,,,,,,,,,2,,52,72
56820,note_on,,1,0,9,,,,,,,,,,,,,,,,15,,52,72
56820,note_on,,0,0,9,,,,,,,,,,,,,,,,15,,59,72
56820,note_on,,1,0,8,,,,,,,,,,,,,,,,13,,52,72
56820,note_on,,0,0,9,,,,,,,,,,,,,,,,15,,68,72
56879,note_on,,59,0,8,,,,,,,,,,,,,,,,13,,52,0
56879,note_on,,0,0,9,,,,,,,,,,,,,,,,15,,59,0
56879,note_on,,59,0,7,,,,,,,,,,,,,,,,10,,61,0
56879,note_on,,59,0,5,,,,,,,,,,,,,,,,2,,52,0
56879,note_on,,59,0,9,,,,,,,,,,,,,,,,15,,52,0
56879,note_on,,0,0,9,,,,,,,,,,,,,,,,15,,64,0
56879,note_on,,0,0,9,,,,,,,,,,,,,,,,15,,68,0
56880,note_on,,1,0,5,,,,,,,,,,,,,,,,2,,51,72
56880,note_on,,0,0,9,,,,,,,,,,,,,,,,15,,54,72
56880,note_on,,0,0,9,,,,,,,,,,,,,,,,15,,59,72
56880,note_on,,1,0,8,,,,,,,,,,,,,,,,13,,51,72
56880,note_on,,0,0,9,,,,,,,,,,,,,,,,15,,66,72
56880,note_on,,1,0,9,,,,,,,,,,,,,,,,15,,51,72
56880,note_on,,1,0,7,,,,,,,,,,,,,,,,10,,59,72
57059,note_on,,179,0,7,,,,,,,,,,,,,,,,10,,59,0
57059,note_on,,0,0,9,,,,,,,,,,,,,,,,15,,59,0
57059,note_on,,0,0,9,,,,,,,,,,,,,,,,15,,66,0
57059,note_on,,179,0,9,,,,,,,,,,,,,,,,15,,51,0
57059,note_on,,179,0,8,,,,,,,,,,,,,,,,13,,51,0
57059,note_on,,179,0,5,,,,,,,,,,,,,,,,2,,51,0
57059,note_on,,0,0,9,,,,,,,,,,,,,,,,15,,54,0
57090,note_on,,0,0,9,,,,,,,,,,,,,,,,15,,71,72
57090,note_on,,0,0,9,,,,,,,,,,,,,,,,15,,63,72
57090,note_on,,0,0,9,,,,,,,,,,,,,,,,15,,54,72
57090,note_on,,31,0,8,,,,,,,,,,,,,,,,13,,47,72
57090,note_on,,31,0,5,,,,,,,,,,,,,,,,2,,47,72
57090,note_on,,31,0,9,,,,,,,,,,,,,,,,15,,47,72
57090,note_on,,0,0,9,,,,,,,,,,,,,,,,15,,66,72
57090,note_on,,31,0,7,,,,,,,,,,,,,,,,10,,81,72
57119,note_on,,29,0,7,,,,,,,,,,,,,,,,10,,81,0
57119,note_on,,29,0,5,,,,,,,,,,,,,,,,2,,47,0
57119,note_on,,29,0,8,,,,,,,,,,,,,,,,13,,47,0
57119,note_on,,29,0,9,,,,,,,,,,,,,,,,15,,47,0
57119,note_on,,0,0,9,,,,,,,,,,,,,,,,15,,71,0
57119,note_on,,0,0,9,,,,,,,,,,,,,,,,15,,66,0
57119,note_on,,0,0,9,,,,,,,,,,,,,,,,15,,63,0
57119,note_on,,0,0,9,,,,,,,,,,,,,,,,15,,54,0
57120,note_on,,1,0,5,,,,,,,,,,,,,,,,2,,52,72
57120,note_on,,1,0,8,,,,,,,,,,,,,,,,13,,52,72
57120,note_on,,0,0,9,,,,,,,,,,,,,,,,15,,56,72
57120,note_on,,0,0,9,,,,,,,,,,,,,,,,15,,59,72
57120,note_on,,1,0,7,,,,,,,,,,,,,,,,10,,80,72
57120,note_on,,0,0,9,,,,,,,,,,,,,,,,15,,68,72
57120,note_on,,1,0,9,,,,,,,,,,,,,,,,15,,52,72
57120,note_on,,0,0,9,,,,,,,,,,,,,,,,15,,64,72
57134,note_on,,14,0,7,,,,,,,,,,,,,,,,10,,80,0
57135,note_on,,1,0,7,,,,,,,,,,,,,,,,10,,81,72
57149,note_on,,14,0,7,,,,,,,,,,,,,,,,10,,81,0
57150,note_on,,1,0,7,,,,,,,,,,,,,,,,10,,80,72
57164,note_on,,14,0,7,,,,,,,,,,,,,,,,10,,80,0
57165,note_on,,1,0,7,,,,,,,,,,,,,,,,10,,81,72
57179,note_on,,14,0,7,,,,,,,,,,,,,,,,10,,81,0
57180,note_on,,1,0,7,,,,,,,,,,,,,,,,10,,78,72
57194,note_on,,14,0,7,,,,,,,,,,,,,,,,10,,78,0
57195,note_on,,1,0,7,,,,,,,,,,,,,,,,10,,80,72
57209,note_on,,14,0,7,,,,,,,,,,,,,,,,10,,80,0
57210,note_on,,1,0,7,,,,,,,,,,,,,,,,10,,78,72
57239,note_on,,0,0,9,,,,,,,,,,,,,,,,15,,56,0
57239,note_on,,0,0,9,,,,,,,,,,,,,,,,15,,64,0
57239,note_on,,0,0,9,,,,,,,,,,,,,,,,15,,68,0
57239,note_on,,0,0,9,,,,,,,,,,,,,,,,15,,59,0
57239,note_on,,119,0,9,,,,,,,,,,,,,,,,15,,52,0
57239,note_on,,119,0,8,,,,,,,,,,,,,,,,13,,52,0
57239,note_on,,29,0,7,,,,,,,,,,,,,,,,10,,78,0
57239,note_on,,119,0,5,,,,,,,,,,,,,,,,2,,52,0
57240,note_on,,1,0,8,,,,,,,,,,,,,,,,13,,57,72
57240,note_on,,1,0,7,,,,,,,,,,,,,,,,10,,80,72
57240,note_on,,1,0,5,,,,,,,,,,,,,,,,2,,57,72
57240,note_on,,1,0,9,,,,,,,,,,,,,,,,15,,57,72
57240,note_on,,0,0,9,,,,,,,,,,,,,,,,15,,73,72
57240,note_on,,0,0,9,,,,,,,,,,,,,,,,15,,64,72
57240,note_on,,0,0,9,,,,,,,,,,,,,,,,15,,61,72
57279,note_on,,39,0,7,,,,,,,,,,,,,,,,10,,80,0
57280,note_on,,1,0,7,,,,,,,,,,,,,,,,10,,78,72
57319,note_on,,39,0,7,,,,,,,,,,,,,,,,10,,78,0
57320,note_on,,1,0,7,,,,,,,,,,,,,,,,10,,76,72
57359,note_on,,119,0,8,,,,,,,,,,,,,,,,13,,57,0
57359,note_on,,119,0,5,,,,,,,,,,,,,,,,2,,57,0
57359,note_on,,39,0,7,,,,,,,,,,,,,,,,10,,76,0
57359,note_on,,0,0,9,,,,,,,,,,,,,,,,15,,73,0
57359,note_on,,0,0,9,,,,,,,,,,,,,,,,15,,64,0
57359,note_on,,0,0,9,,,,,,,,,,,,,,,,15,,61,0
57359,note_on,,119,0,9,,,,,,,,,,,,,,,,15,,57,0
57360,note_on,,1,0,9,,,,,,,,,,,,,,,,15,,59,72
57360,note_on,,0,0,9,,,,,,,,,,,,,,,,15,,66,72
57360,note_on,,0,0,9,,,,,,,,,,,,,,,,15,,63,72
57360,note_on,,1,0,5,,,,,,,,,,,,,,,,2,,59,72
57360,note_on,,1,0,8,,,,,,,,,,,,,,,,13,,59,72
57360,note_on,,1,0,7,,,,,,,,,,,,,,,,10,,75,72
57374,note_on,,14,0,7,,,,,,,,,,,,,,,,10,,75,0
57375,note_on,,1,0,7,,,,,,,,,,,,,,,,10,,76,72
57389,note_on,,14,0,7,,,,,,,,,,,,,,,,10,,76,0
57390,note_on,,1,0,7,,,,,,,,,,,,,,,,10,,75,72
57404,note_on,,14,0,7,,,,,,,,,,,,,,,,10,,75,0
57405,note_on,,1,0,7,,,,,,,,,,,,,,,,10,,76,72
57419,note_on,,14,0,7,,,,,,,,,,,,,,,,10,,76,0
57420,note_on,,1,0,7,,,,,,,,,,,,,,,,10,,75,72
57434,note_on,,14,0,7,,,,,,,,,,,,,,,,10,,75,0
57435,note_on,,1,0,7,,,,,,,,,,,,,,,,10,,76,72
57449,note_on,,14,0,7,,,,,,,,,,,,,,,,10,,76,0
57450,note_on,,1,0,7,,,,,,,,,,,,,,,,10,,75,72
57464,note_on,,14,0,7,,,,,,,,,,,,,,,,10,,75,0
57465,note_on,,1,0,7,,,,,,,,,,,,,,,,10,,76,72
57479,note_on,,14,0,7,,,,,,,,,,,,,,,,10,,76,0
57479,note_on,,119,0,8,,,,,,,,,,,,,,,,13,,59,0
57479,note_on,,0,0,9,,,,,,,,,,,,,,,,15,,63,0
57479,note_on,,0,0,9,,,,,,,,,,,,,,,,15,,66,0
57479,note_on,,119,0,9,,,,,,,,,,,,,,,,15,,59,0
57479,note_on,,119,0,5,,,,,,,,,,,,,,,,2,,59,0
57480,note_on,,0,0,9,,,,,,,,,,,,,,,,15,,63,72
57480,note_on,,0,0,9,,,,,,,,,,,,,,,,15,,71,72
57480,note_on,,0,0,9,,,,,,,,,,,,,,,,15,,66,72
57480,note_on,,1,0,9,,,,,,,,,,,,,,,,15,,47,72
57480,note_on,,1,0,5,,,,,,,,,,,,,,,,2,,47,72
57480,note_on,,1,0,7,,,,,,,,,,,,,,,,10,,75,72
57480,note_on,,1,0,8,,,,,,,,,,,,,,,,13,,47,72
57494,note_on,,14,0,7,,,,,,,,,,,,,,,,10,,75,0
57495,note_on,,1,0,7,,,,,,,,,,,,,,,,10,,76,72
57509,note_on,,14,0,7,,,,,,,,,,,,,,,,10,,76,0
57510,note_on,,1,0,7,,,,,,,,,,,,,,,,10,,73,72
57524,note_on,,14,0,7,,,,,,,,,,,,,,,,10,,73,0
57525,note_on,,1,0,7,,,,,,,,,,,,,,,,10,,75,72
57539,note_on,,14,0,7,,,,,,,,,,,,,,,,10,,75,0
57540,note_on,,1,0,7,,,,,,,,,,,,,,,,10,,76,72
57599,note_on,,119,0,8,,,,,,,,,,,,,,,,13,,47,0
57599,note_on,,0,0,9,,,,,,,,,,,,,,,,15,,66,0
57599,note_on,,59,0,7,,,,,,,,,,,,,,,,10,,76,0
57599,note_on,,0,0,9,,,,,,,,,,,,,,,,15,,71,0
57599,note_on,,0,0,9,,,,,,,,,,,,,,,,15,,63,0
57599,note_on,,119,0,9,,,,,,,,,,,,,,,,15,,47,0
57599,note_on,,119,0,5,,,,,,,,,,,,,,,,2,,47,0
57600,note_on,,0,0,9,,,,,,,,,,,,,,,,15,,68,72
57600,note_on,,0,0,9,,,,,,,,,,,,,,,,15,,61,72
57600,note_on,,1,0,5,,,,,,,,,,,,,,,,2,,49,72
57600,note_on,,1,0,9,,,,,,,,,,,,,,,,15,,49,72
57600,note_on,,1,0,7,,,,,,,,,,,,,,,,10,,64,72
57600,note_on,,0,0,9,,,,,,,,,,,,,,,,15,,64,72
57600,note_on,,1,0,8,,,,,,,,,,,,,,,,13,,49,72
57719,note_on,,119,0,9,,,,,,,,,,,,,,,,15,,49,0
57719,note_on,,0,0,9,,,,,,,,,,,,,,,,15,,64,0
57719,note_on,,119,0,8,,,,,,,,,,,,,,,,13,,49,0
57719,note_on,,119,0,5,,,,,,,,,,,,,,,,2,,49,0
57720,note_on,,1,0,8,,,,,,,,,,,,,,,,13,,47,72
57720,note_on,,1,0,5,,,,,,,,,,,,,,,,2,,47,72
57720,note_on,,1,0,9,,,,,,,,,,,,,,,,15,,47,72
57720,note_on,,0,0,9,,,,,,,,,,,,,,,,15,,63,72
57779,note_on,,179,0,7,,,,,,,,,,,,,,,,10,,64,0
57780,note_on,,1,0,7,,,,,,,,,,,,,,,,10,,66,72
57839,note_on,,119,0,5,,,,,,,,,,,,,,,,2,,47,0
57839,note_on,,0,0,9,,,,,,,,,,,,,,,,15,,47,0
57839,note_on,,119,0,8,,,,,,,,,,,,,,,,13,,47,0
57839,note_on,,119,0,9,,,,,,,,,,,,,,,,15,,61,0
57839,note_on,,59,0,7,,,,,,,,,,,,,,,,10,,66,0
57839,note_on,,0,0,9,,,,,,,,,,,,,,,,15,,63,0
57840,note_on,,1,0,8,,,,,,,,,,,,,,,,13,,45,72
57840,note_on,,1,0,7,,,,,,,,,,,,,,,,10,,68,72
57840,note_on,,1,0,5,,,,,,,,,,,,,,,,2,,45,72
57840,note_on,,1,0,9,,,,,,,,,,,,,,,,15,,45,72
57840,note_on,,0,0,9,,,,,,,,,,,,,,,,15,,61,72
57840,note_on,,0,0,9,,,,,,,,,,,,,,,,15,,64,72
57899,note_on,,59,0,7,,,,,,,,,,,,,,,,10,,68,0
57899,note_on,,59,0,9,,,,,,,,,,,,,,,,15,,64,0
57900,note_on,,1,0,9,,,,,,,,,,,,,,,,15,,66,72
57900,note_on,,1,0,7,,,,,,,,,,,,,,,,10,,69,72
57959,note_on,,119,0,5,,,,,,,,,,,,,,,,2,,45,0
57959,note_on,,0,0,9,,,,,,,,,,,,,,,,15,,61,0
57959,note_on,,0,0,9,,,,,,,,,,,,,,,,15,,66,0
57959,note_on,,0,0,9,,,,,,,,,,,,,,,,15,,45,0
57959,note_on,,59,0,9,,,,,,,,,,,,,,,,15,,68,0
57959,note_on,,59,0,7,,,,,,,,,,,,,,,,10,,69,0
57959,note_on,,119,0,8,,,,,,,,,,,,,,,,13,,45,0
57960,note_on,,1,0,9,,,,,,,,,,,,,,,,15,,44,72
57960,note_on,,0,0,9,,,,,,,,,,,,,,,,15,,68,72
57960,note_on,,0,0,9,,,,,,,,,,,,,,,,15,,64,72
57960,note_on,,1,0,7,,,,,,,,,,,,,,,,10,,71,72
57960,note_on,,1,0,8,,,,,,,,,,,,,,,,13,,44,72
57960,note_on,,0,0,9,,,,,,,,,,,,,,,,15,,76,72
57960,note_on,,1,0,5,,,,,,,,,,,,,,,,2,,44,72
57960,note_on,,0,0,9,,,,,,,,,,,,,,,,15,,71,72
58139,note_on,,179,0,7,,,,,,,,,,,,,,,,10,,71,0
58140,note_on,,1,0,7,,,,,,,,,,,,,,,,10,,73,72
58169,note_on,,29,0,7,,,,,,,,,,,,,,,,10,,73,0
58170,note_on,,1,0,7,,,,,,,,,,,,,,,,10,,75,72
58199,note_on,,29,0,7,,,,,,,,,,,,,,,,10,,75,0
58199,note_on,,239,0,5,,,,,,,,,,,,,,,,2,,44,0
58199,note_on,,239,0,9,,,,,,,,,,,,,,,,15,,44,0
58199,note_on,,0,0,9,,,,,,,,,,,,,,,,15,,71,0
58199,note_on,,0,0,9,,,,,,,,,,,,,,,,15,,64,0
58199,note_on,,0,0,9,,,,,,,,,,,,,,,,15,,68,0
58199,note_on,,239,0,8,,,,,,,,,,,,,,,,13,,44,0
58199,note_on,,0,0,9,,,,,,,,,,,,,,,,15,,76,0
58200,note_on,,1,0,7,,,,,,,,,,,,,,,,10,,76,72
58259,note_on,,59,0,7,,,,,,,,,,,,,,,,10,,76,0
58260,note_on,,1,0,7,,,,,,,,,,,,,,,,10,,75,72
58289,note_on,,29,0,7,,,,,,,,,,,,,,,,10,,75,0
58290,note_on,,1,0,7,,,,,,,,,,,,,,,,10,,73,72
58319,note_on,,29,0,7,,,,,,,,,,,,,,,,10,,73,0
58320,note_on,,0,0,9,,,,,,,,,,,,,,,,15,,76,72
58320,note_on,,1,0,7,,,,,,,,,,,,,,,,10,,71,72
58320,note_on,,121,0,8,,,,,,,,,,,,,,,,13,,56,72
58320,note_on,,121,0,5,,,,,,,,,,,,,,,,2,,56,72
58320,note_on,,0,0,9,,,,,,,,,,,,,,,,15,,59,72
58320,note_on,,0,0,9,,,,,,,,,,,,,,,,15,,71,72
58320,note_on,,121,0,9,,,,,,,,,,,,,,,,15,,56,72
58320,note_on,,0,0,9,,,,,,,,,,,,,,,,15,,80,72
58349,note_on,,29,0,7,,,,,,,,,,,,,,,,10,,71,0
58350,note_on,,1,0,7,,,,,,,,,,,,,,,,10,,73,72
58379,note_on,,59,0,8,,,,,,,,,,,,,,,,13,,56,0
58379,note_on,,59,0,5,,,,,,,,,,,,,,,,2,,56,0
58379,note_on,,59,0,9,,,,,,,,,,,,,,,,15,,56,0
58379,note_on,,0,0,9,,,,,,,,,,,,,,,,15,,80,0
58379,note_on,,0,0,9,,,,,,,,,,,,,,,,15,,76,0
58379,note_on,,0,0,9,,,,,,,,,,,,,,,,15,,71,0
58379,note_on,,0,0,9,,,,,,,,,,,,,,,,15,,59,0
58379,note_on,,29,0,7,,,,,,,,,,,,,,,,10,,73,0
58380,note_on,,1,0,9,,,,,,,,,,,,,,,,15,,57,72
58380,note_on,,0,0,9,,,,,,,,,,,,,,,,15,,73,72
58380,note_on,,1,0,5,,,,,,,,,,,,,,,,2,,57,72
58380,note_on,,0,0,9,,,,,,,,,,,,,,,,15,,78,72
58380,note_on,,0,0,9,,,,,,,,,,,,,,,,15,,69,72
58380,note_on,,0,0,9,,,,,,,,,,,,,,,,15,,61,72
58380,note_on,,1,0,7,,,,,,,,,,,,,,,,10,,69,72
58380,note_on,,1,0,8,,,,,,,,,,,,,,,,13,,57,72
58439,note_on,,0,0,9,,,,,,,,,,,,,,,,15,,61,0
58439,note_on,,0,0,9,,,,,,,,,,,,,,,,15,,69,0
58439,note_on,,0,0,9,,,,,,,,,,,,,,,,15,,73,0
58439,note_on,,59,0,8,,,,,,,,,,,,,,,,13,,57,0
58439,note_on,,59,0,7,,,,,,,,,,,,,,,,10,,69,0
58439,note_on,,0,0,9,,,,,,,,,,,,,,,,15,,78,0
58439,note_on,,59,0,9,,,,,,,,,,,,,,,,15,,57,0
58439,note_on,,59,0,5,,,,,,,,,,,,,,,,2,,57,0
58440,note_on,,0,0,9,,,,,,,,,,,,,,,,15,,68,72
58440,note_on,,1,0,5,,,,,,,,,,,,,,,,2,,59,72
58440,note_on,,1,0,8,,,,,,,,,,,,,,,,13,,59,72
58440,note_on,,1,0,9,,,,,,,,,,,,,,,,15,,59,72
58440,note_on,,0,0,9,,,,,,,,,,,,,,,,15,,64,72
58440,note_on,,0,0,9,,,,,,,,,,,,,,,,15,,71,72
58440,note_on,,1,0,7,,,,,,,,,,,,,,,,10,,68,72
58559,note_on,,0,0,9,,,,,,,,,,,,,,,,15,,68,0
58559,note_on,,119,0,5,,,,,,,,,,,,,,,,2,,59,0
58559,note_on,,0,0,9,,,,,,,,,,,,,,,,15,,71,0
58559,note_on,,119,0,9,,,,,,,,,,,,,,,,15,,59,0
58559,note_on,,0,0,9,,,,,,,,,,,,,,,,15,,64,0
58559,note_on,,119,0,8,,,,,,,,,,,,,,,,13,,59,0
58559,note_on,,119,0,7,,,,,,,,,,,,,,,,10,,68,0
58560,note_on,,0,0,9,,,,,,,,,,,,,,,,15,,66,72
58560,note_on,,1,0,8,,,,,,,,,,,,,,,,13,,47,72
58560,note_on,,0,0,9,,,,,,,,,,,,,,,,15,,75,72
58560,note_on,,0,0,9,,,,,,,,,,,,,,,,15,,54,72
58560,note_on,,1,0,7,,,,,,,,,,,,,,,,10,,66,72
58560,note_on,,1,0,5,,,,,,,,,,,,,,,,2,,47,72
58560,note_on,,1,0,9,,,,,,,,,,,,,,,,15,,47,72
58560,note_on,,0,0,9,,,,,,,,,,,,,,,,15,,69,72
58574,note_on,,14,0,7,,,,,,,,,,,,,,,,10,,66,0
58575,note_on,,1,0,7,,,,,,,,,,,,,,,,10,,68,72
58589,note_on,,14,0,7,,,,,,,,,,,,,,,,10,,68,0
58590,note_on,,1,0,7,,,,,,,,,,,,,,,,10,,66,72
58604,note_on,,14,0,7,,,,,,,,,,,,,,,,10,,66,0
58605,note_on,,1,0,7,,,,,,,,,,,,,,,,10,,68,72
58619,note_on,,14,0,7,,,,,,,,,,,,,,,,10,,68,0
58620,note_on,,1,0,7,,,,,,,,,,,,,,,,10,,64,72
58634,note_on,,14,0,7,,,,,,,,,,,,,,,,10,,64,0
58635,note_on,,1,0,7,,,,,,,,,,,,,,,,10,,66,72
58649,note_on,,14,0,7,,,,,,,,,,,,,,,,10,,66,0
58650,note_on,,1,0,7,,,,,,,,,,,,,,,,10,,64,72
58679,note_on,,0,0,9,,,,,,,,,,,,,,,,15,,66,0
58679,note_on,,119,0,5,,,,,,,,,,,,,,,,2,,47,0
58679,note_on,,0,0,9,,,,,,,,,,,,,,,,15,,75,0
58679,note_on,,119,0,9,,,,,,,,,,,,,,,,15,,47,0
58679,note_on,,119,0,8,,,,,,,,,,,,,,,,13,,47,0
58679,note_on,,29,0,7,,,,,,,,,,,,,,,,10,,64,0
58679,note_on,,0,0,9,,,,,,,,,,,,,,,,15,,69,0
58679,note_on,,0,0,9,,,,,,,,,,,,,,,,15,,54,0
58680,note_on,,0,0,9,,,,,,,,,,,,,,,,15,,71,72
58680,note_on,,0,0,9,,,,,,,,,,,,,,,,15,,76,72
58680,note_on,,1,0,7,,,,,,,,,,,,,,,,10,,64,72
58680,note_on,,0,0,9,,,,,,,,,,,,,,,,15,,52,72
58680,note_on,,1,0,5,,,,,,,,,,,,,,,,2,,40,72
58680,note_on,,0,0,9,,,,,,,,,,,,,,,,15,,68,72
58680,note_on,,1,0,8,,,,,,,,,,,,,,,,13,,40,72
58680,note_on,,1,0,9,,,,,,,,,,,,,,,,15,,40,72
59039,note_on,,0,0,9,,,,,,,,,,,,,,,,15,,68,0
59039,note_on,,0,0,9,,,,,,,,,,,,,,,,15,,71,0
59039,note_on,,0,0,9,,,,,,,,,,,,,,,,15,,76,0
59039,note_on,,359,0,9,,,,,,,,,,,,,,,,15,,40,0
59039,note_on,,359,0,8,,,,,,,,,,,,,,,,13,,40,0
59039,end_of_track,,0,1,8,,,,,,,,,,,,,,,,,,,
59039,note_on,,359,0,5,,,,,,,,,,,,,,,,2,,40,0
59039,end_of_track,,0,1,5,,,,,,,,,,,,,,,,,,,
59039,note_on,,359,0,7,,,,,,,,,,,,,,,,10,,64,0
59039,end_of_track,,0,1,7,,,,,,,,,,,,,,,,,,,
59039,note_on,,0,0,9,,,,,,,,,,,,,,,,15,,52,0
59039,end_of_track,,0,1,9,,,,,,,,,,,,,,,,,,,
59400,end_of_track,,0,1,0,,,,,,,,,,,,,,,,,,,
59400,set_tempo,,4320,1,0,,,,,,,,,800000,,,,,,,,,,
