tick,type,data,time,meta,track,frame_rate,hours,minutes,seconds,frames,sub_frames,port,key,tempo,numerator,denominator,clocks_per_click,notated_32nd_notes_per_beat,control,value,channel,program,note,velocity
0,sequencer_specific,"(0, 0, 91, 35, 1, 0, 5, 4, 35, 0)",0,1,0,,,,,,,,,,,,,,,,,,,
0,track_name,,0,1,13,,,,,,,,,,,,,,,,,,,
0,midi_port,,0,1,13,,,,,,,0,,,,,,,,,,,,
0,control_change,,0,0,13,,,,,,,,,,,,,,11,127,12,,,
0,control_change,,0,0,13,,,,,,,,,,,,,,7,96,12,,,
0,control_change,,0,0,13,,,,,,,,,,,,,,10,80,12,,,
0,program_change,,0,0,13,,,,,,,,,,,,,,,,12,48,,
0,track_name,,0,1,14,,,,,,,,,,,,,,,,,,,
0,midi_port,,0,1,14,,,,,,,0,,,,,,,,,,,,
0,control_change,,0,0,14,,,,,,,,,,,,,,11,127,13,,,
0,control_change,,0,0,14,,,,,,,,,,,,,,7,96,13,,,
0,control_change,,0,0,14,,,,,,,,,,,,,,10,96,13,,,
0,program_change,,0,0,14,,,,,,,,,,,,,,,,13,48,,
0,note_on,,0,0,14,,,,,,,,,,,,,,,,13,,46,48
0,track_name,,0,1,15,,,,,,,,,,,,,,,,,,,
0,midi_port,,0,1,15,,,,,,,0,,,,,,,,,,,,
0,control_change,,0,0,15,,,,,,,,,,,,,,11,127,15,,,
0,control_change,,0,0,15,,,,,,,,,,,,,,7,96,15,,,
0,control_change,,0,0,15,,,,,,,,,,,,,,10,90,15,,,
0,program_change,,0,0,15,,,,,,,,,,,,,,,,15,6,,
0,note_on,,0,0,15,,,,,,,,,,,,,,,,15,,46,48
0,note_on,,0,0,15,,,,,,,,,,,,,,,,15,,70,48
0,note_on,,0,0,15,,,,,,,,,,,,,,,,15,,65,48
0,note_on,,0,0,15,,,,,,,,,,,,,,,,15,,62,48
0,midi_port,,0,1,8,,,,,,,0,,,,,,,,,,,,
0,note_on,,0,0,6,,,,,,,,,,,,,,,,2,,46,48
0,program_change,,0,0,6,,,,,,,,,,,,,,,,2,70,,
0,control_change,,0,0,6,,,,,,,,,,,,,,10,65,2,,,
0,control_change,,0,0,6,,,,,,,,,,,,,,7,88,2,,,
0,control_change,,0,0,6,,,,,,,,,,,,,,11,127,2,,,
0,program_change,,0,0,12,,,,,,,,,,,,,,,,11,48,,
0,control_change,,0,0,12,,,,,,,,,,,,,,10,24,11,,,
0,control_change,,0,0,12,,,,,,,,,,,,,,7,96,11,,,
0,control_change,,0,0,12,,,,,,,,,,,,,,11,127,11,,,
0,control_change,,0,0,8,,,,,,,,,,,,,,11,127,6,,,
0,control_change,,0,0,8,,,,,,,,,,,,,,10,96,6,,,
0,control_change,,0,0,8,,,,,,,,,,,,,,7,96,6,,,
0,program_change,,0,0,8,,,,,,,,,,,,,,,,6,73,,
0,track_name,,0,1,9,,,,,,,,,,,,,,,,,,,
0,midi_port,,0,1,9,,,,,,,0,,,,,,,,,,,,
0,control_change,,0,0,9,,,,,,,,,,,,,,11,127,7,,,
0,control_change,,0,0,9,,,,,,,,,,,,,,7,96,7,,,
0,control_change,,0,0,9,,,,,,,,,,,,,,10,48,7,,,
0,program_change,,0,0,9,,,,,,,,,,,,,,,,7,70,,
0,program_change,,0,0,7,,,,,,,,,,,,,,,,5,73,,
0,control_change,,0,0,7,,,,,,,,,,,,,,10,32,5,,,
0,control_change,,0,0,7,,,,,,,,,,,,,,7,96,5,,,
0,control_change,,0,0,7,,,,,,,,,,,,,,11,127,5,,,
0,midi_port,,0,1,6,,,,,,,0,,,,,,,,,,,,
0,midi_port,,0,1,7,,,,,,,0,,,,,,,,,,,,
0,track_name,,0,1,10,,,,,,,,,,,,,,,,,,,
0,midi_port,,0,1,10,,,,,,,0,,,,,,,,,,,,
0,control_change,,0,0,10,,,,,,,,,,,,,,11,127,8,,,
0,control_change,,0,0,10,,,,,,,,,,,,,,10,80,8,,,
0,control_change,,0,0,10,,,,,,,,,,,,,,7,96,8,,,
0,program_change,,0,0,10,,,,,,,,,,,,,,,,8,60,,
0,track_name,,0,1,11,,,,,,,,,,,,,,,,,,,
0,midi_port,,0,1,11,,,,,,,0,,,,,,,,,,,,
0,control_change,,0,0,11,,,,,,,,,,,,,,11,127,10,,,
0,control_change,,0,0,11,,,,,,,,,,,,,,7,96,10,,,
0,control_change,,0,0,11,,,,,,,,,,,,,,10,48,10,,,
0,program_change,,0,0,11,,,,,,,,,,,,,,,,10,48,,
0,track_name,,0,1,12,,,,,,,,,,,,,,,,,,,
0,midi_port,,0,1,12,,,,,,,0,,,,,,,,,,,,
0,track_name,,0,1,7,,,,,,,,,,,,,,,,,,,
0,track_name,,0,1,6,,,,,,,,,,,,,,,,,,,
0,track_name,,0,1,8,,,,,,,,,,,,,,,,,,,
0,control_change,,0,0,5,,,,,,,,,,,,,,7,72,0,,,
0,midi_port,,0,1,1,,,,,,,0,,,,,,,,,,,,
0,track_name,,0,1,1,,,,,,,,,,,,,,,,,,,
0,control_change,,0,0,5,,,,,,,,,,,,,,10,70,0,,,
0,program_change,,0,0,5,,,,,,,,,,,,,,,,0,68,,
0,control_change,,0,0,5,,,,,,,,,,,,,,11,127,0,,,
0,midi_port,,0,1,2,,,,,,,0,,,,,,,,,,,,
0,end_of_track,,0,1,2,,,,,,,,,,,,,,,,,,,
0,track_name,,0,1,3,,,,,,,,,,,,,,,,,,,
0,midi_port,,0,1,3,,,,,,,0,,,,,,,,,,,,
0,end_of_track,,0,1,3,,,,,,,,,,,,,,,,,,,
0,midi_port,,0,1,4,,,,,,,0,,,,,,,,,,,,
0,end_of_track,,0,1,4,,,,,,,,,,,,,,,,,,,
0,track_name,,0,1,5,,,,,,,,,,,,,,,,,,,
0,midi_port,,0,1,5,,,,,,,0,,,,,,,,,,,,
0,time_signature,,0,1,0,,,,,,,,,,4,4,24,8,,,,,,
0,set_tempo,,0,1,0,,,,,,,,,600000,,,,,,,,,,
0,key_signature,,0,1,0,,,,,,,,Bb,,,,,,,,,,,
0,midi_port,,0,1,0,,,,,,,0,,,,,,,,,,,,
0,smpte_offset,,0,1,0,25,32,0,3,0,0,,,,,,,,,,,,,
0,instrument_name,,0,1,0,,,,,,,,,,,,,,,,,,,
0,track_name,,0,1,0,,,,,,,,,,,,,,,,,,,
0,end_of_track,,0,1,1,,,,,,,,,,,,,,,,,,,
0,track_name,,0,1,2,,,,,,,,,,,,,,,,,,,
59,note_on,,59,0,6,,,,,,,,,,,,,,,,2,,46,0
59,note_on,,59,0,15,,,,,,,,,,,,,,,,15,,46,0
59,note_on,,59,0,14,,,,,,,,,,,,,,,,13,,46,0
60,note_on,,1,0,6,,,,,,,,,,,,,,,,2,,58,48
60,note_on,,1,0,15,,,,,,,,,,,,,,,,15,,58,48
60,note_on,,1,0,14,,,,,,,,,,,,,,,,13,,58,48
119,note_on,,59,0,14,,,,,,,,,,,,,,,,13,,58,0
119,note_on,,0,0,15,,,,,,,,,,,,,,,,15,,65,0
119,note_on,,0,0,15,,,,,,,,,,,,,,,,15,,62,0
119,note_on,,0,0,15,,,,,,,,,,,,,,,,15,,58,0
119,note_on,,59,0,6,,,,,,,,,,,,,,,,2,,58,0
119,note_on,,59,0,15,,,,,,,,,,,,,,,,15,,70,0
120,note_on,,1,0,6,,,,,,,,,,,,,,,,2,,57,48
120,note_on,,0,0,15,,,,,,,,,,,,,,,,15,,60,48
120,note_on,,0,0,15,,,,,,,,,,,,,,,,15,,65,48
120,note_on,,1,0,15,,,,,,,,,,,,,,,,15,,57,48
120,note_on,,1,0,14,,,,,,,,,,,,,,,,13,,57,48
179,note_on,,59,0,6,,,,,,,,,,,,,,,,2,,57,0
179,note_on,,0,0,15,,,,,,,,,,,,,,,,15,,60,0
179,note_on,,59,0,15,,,,,,,,,,,,,,,,15,,57,0
179,note_on,,59,0,14,,,,,,,,,,,,,,,,13,,57,0
180,note_on,,1,0,15,,,,,,,,,,,,,,,,15,,58,48
180,note_on,,1,0,6,,,,,,,,,,,,,,,,2,,58,48
180,note_on,,0,0,15,,,,,,,,,,,,,,,,15,,62,48
180,note_on,,180,0,7,,,,,,,,,,,,,,,,5,,65,48
180,note_on,,1,0,14,,,,,,,,,,,,,,,,13,,58,48
180,note_on,,180,0,5,,,,,,,,,,,,,,,,0,,65,48
239,note_on,,59,0,7,,,,,,,,,,,,,,,,5,,65,0
239,note_on,,59,0,5,,,,,,,,,,,,,,,,0,,65,0
239,note_on,,59,0,6,,,,,,,,,,,,,,,,2,,58,0
239,note_on,,59,0,14,,,,,,,,,,,,,,,,13,,58,0
239,note_on,,0,0,15,,,,,,,,,,,,,,,,15,,62,0
239,note_on,,0,0,15,,,,,,,,,,,,,,,,15,,58,0
239,note_on,,59,0,15,,,,,,,,,,,,,,,,15,,65,0
240,note_on,,1,0,5,,,,,,,,,,,,,,,,0,,70,48
240,note_on,,1,0,6,,,,,,,,,,,,,,,,2,,55,48
240,note_on,,0,0,15,,,,,,,,,,,,,,,,15,,58,48
240,note_on,,0,0,15,,,,,,,,,,,,,,,,15,,67,48
240,note_on,,1,0,7,,,,,,,,,,,,,,,,5,,70,48
240,note_on,,0,0,15,,,,,,,,,,,,,,,,15,,74,48
240,note_on,,1,0,15,,,,,,,,,,,,,,,,15,,55,48
240,note_on,,0,0,15,,,,,,,,,,,,,,,,15,,70,48
240,note_on,,1,0,14,,,,,,,,,,,,,,,,13,,55,48
329,note_on,,89,0,7,,,,,,,,,,,,,,,,5,,70,0
329,note_on,,89,0,5,,,,,,,,,,,,,,,,0,,70,0
330,note_on,,1,0,7,,,,,,,,,,,,,,,,5,,72,48
330,note_on,,1,0,5,,,,,,,,,,,,,,,,0,,72,48
359,note_on,,0,0,15,,,,,,,,,,,,,,,,15,,74,0
359,note_on,,0,0,15,,,,,,,,,,,,,,,,15,,70,0
359,note_on,,0,0,15,,,,,,,,,,,,,,,,15,,67,0
359,note_on,,0,0,15,,,,,,,,,,,,,,,,15,,58,0
359,note_on,,119,0,15,,,,,,,,,,,,,,,,15,,55,0
359,note_on,,119,0,14,,,,,,,,,,,,,,,,13,,55,0
359,note_on,,29,0,5,,,,,,,,,,,,,,,,0,,72,0
359,note_on,,119,0,6,,,,,,,,,,,,,,,,2,,55,0
359,note_on,,29,0,7,,,,,,,,,,,,,,,,5,,72,0
360,note_on,,0,0,15,,,,,,,,,,,,,,,,15,,62,48
360,note_on,,0,0,15,,,,,,,,,,,,,,,,15,,57,48
360,note_on,,1,0,6,,,,,,,,,,,,,,,,2,,53,48
360,note_on,,1,0,15,,,,,,,,,,,,,,,,15,,53,48
360,note_on,,1,0,14,,,,,,,,,,,,,,,,13,,53,48
360,note_on,,1,0,5,,,,,,,,,,,,,,,,0,,74,48
360,note_on,,1,0,7,,,,,,,,,,,,,,,,5,,74,48
419,note_on,,59,0,14,,,,,,,,,,,,,,,,13,,53,0
419,note_on,,59,0,6,,,,,,,,,,,,,,,,2,,53,0
419,note_on,,0,0,15,,,,,,,,,,,,,,,,15,,57,0
419,note_on,,59,0,5,,,,,,,,,,,,,,,,0,,74,0
419,note_on,,59,0,7,,,,,,,,,,,,,,,,5,,74,0
419,note_on,,59,0,15,,,,,,,,,,,,,,,,15,,53,0
420,note_on,,0,0,15,,,,,,,,,,,,,,,,15,,58,48
420,note_on,,1,0,5,,,,,,,,,,,,,,,,0,,72,48
420,note_on,,1,0,6,,,,,,,,,,,,,,,,2,,55,48
420,note_on,,1,0,14,,,,,,,,,,,,,,,,13,,55,48
420,note_on,,1,0,7,,,,,,,,,,,,,,,,5,,72,48
420,note_on,,1,0,15,,,,,,,,,,,,,,,,15,,55,48
449,note_on,,29,0,7,,,,,,,,,,,,,,,,5,,72,0
449,note_on,,29,0,5,,,,,,,,,,,,,,,,0,,72,0
450,note_on,,1,0,5,,,,,,,,,,,,,,,,0,,70,48
450,note_on,,1,0,7,,,,,,,,,,,,,,,,5,,70,48
479,note_on,,59,0,15,,,,,,,,,,,,,,,,15,,62,0
479,note_on,,29,0,5,,,,,,,,,,,,,,,,0,,70,0
479,note_on,,59,0,14,,,,,,,,,,,,,,,,13,,55,0
479,note_on,,29,0,7,,,,,,,,,,,,,,,,5,,70,0
479,note_on,,0,0,15,,,,,,,,,,,,,,,,15,,55,0
479,note_on,,59,0,6,,,,,,,,,,,,,,,,2,,55,0
479,note_on,,0,0,15,,,,,,,,,,,,,,,,15,,58,0
480,note_on,,1,0,6,,,,,,,,,,,,,,,,2,,50,48
480,note_on,,1,0,14,,,,,,,,,,,,,,,,13,,50,48
480,note_on,,1,0,7,,,,,,,,,,,,,,,,5,,77,48
480,note_on,,1,0,15,,,,,,,,,,,,,,,,15,,50,48
480,note_on,,0,0,15,,,,,,,,,,,,,,,,15,,70,48
480,note_on,,0,0,15,,,,,,,,,,,,,,,,15,,65,48
480,note_on,,0,0,15,,,,,,,,,,,,,,,,15,,62,48
480,note_on,,1,0,5,,,,,,,,,,,,,,,,0,,77,48
539,note_on,,59,0,14,,,,,,,,,,,,,,,,13,,50,0
539,note_on,,59,0,6,,,,,,,,,,,,,,,,2,,50,0
539,note_on,,59,0,15,,,,,,,,,,,,,,,,15,,50,0
540,note_on,,1,0,14,,,,,,,,,,,,,,,,13,,62,48
540,note_on,,1,0,15,,,,,,,,,,,,,,,,15,,62,48
540,note_on,,1,0,6,,,,,,,,,,,,,,,,2,,62,48
599,note_on,,59,0,15,,,,,,,,,,,,,,,,15,,70,0
599,note_on,,59,0,14,,,,,,,,,,,,,,,,13,,62,0
599,note_on,,0,0,15,,,,,,,,,,,,,,,,15,,65,0
599,note_on,,0,0,15,,,,,,,,,,,,,,,,15,,62,0
599,note_on,,59,0,6,,,,,,,,,,,,,,,,2,,62,0
599,note_on,,0,0,15,,,,,,,,,,,,,,,,15,,62,0
600,note_on,,0,0,15,,,,,,,,,,,,,,,,15,,72,48
600,note_on,,1,0,15,,,,,,,,,,,,,,,,15,,57,48
600,note_on,,0,0,15,,,,,,,,,,,,,,,,15,,60,48
600,note_on,,1,0,6,,,,,,,,,,,,,,,,2,,57,48
600,note_on,,1,0,14,,,,,,,,,,,,,,,,13,,57,48
600,note_on,,0,0,15,,,,,,,,,,,,,,,,15,,65,48
629,note_on,,149,0,5,,,,,,,,,,,,,,,,0,,77,0
629,note_on,,149,0,7,,,,,,,,,,,,,,,,5,,77,0
630,note_on,,1,0,7,,,,,,,,,,,,,,,,5,,79,48
630,note_on,,1,0,5,,,,,,,,,,,,,,,,0,,79,48
659,note_on,,29,0,7,,,,,,,,,,,,,,,,5,,79,0
659,note_on,,29,0,5,,,,,,,,,,,,,,,,0,,79,0
659,note_on,,59,0,6,,,,,,,,,,,,,,,,2,,57,0
659,note_on,,59,0,15,,,,,,,,,,,,,,,,15,,57,0
659,note_on,,0,0,15,,,,,,,,,,,,,,,,15,,72,0
659,note_on,,0,0,15,,,,,,,,,,,,,,,,15,,65,0
659,note_on,,0,0,15,,,,,,,,,,,,,,,,15,,60,0
659,note_on,,59,0,14,,,,,,,,,,,,,,,,13,,57,0
660,note_on,,1,0,7,,,,,,,,,,,,,,,,5,,77,48
660,note_on,,0,0,15,,,,,,,,,,,,,,,,15,,74,48
660,note_on,,1,0,14,,,,,,,,,,,,,,,,13,,58,48
660,note_on,,1,0,6,,,,,,,,,,,,,,,,2,,58,48
660,note_on,,0,0,15,,,,,,,,,,,,,,,,15,,70,48
660,note_on,,1,0,5,,,,,,,,,,,,,,,,0,,77,48
660,note_on,,0,0,15,,,,,,,,,,,,,,,,15,,65,48
660,note_on,,1,0,15,,,,,,,,,,,,,,,,15,,58,48
689,note_on,,29,0,7,,,,,,,,,,,,,,,,5,,77,0
689,note_on,,29,0,5,,,,,,,,,,,,,,,,0,,77,0
690,note_on,,1,0,5,,,,,,,,,,,,,,,,0,,79,48
690,note_on,,1,0,7,,,,,,,,,,,,,,,,5,,79,48
719,note_on,,59,0,6,,,,,,,,,,,,,,,,2,,58,0
719,note_on,,0,0,15,,,,,,,,,,,,,,,,15,,70,0
719,note_on,,0,0,15,,,,,,,,,,,,,,,,15,,74,0
719,note_on,,59,0,14,,,,,,,,,,,,,,,,13,,58,0
719,note_on,,59,0,15,,,,,,,,,,,,,,,,15,,58,0
719,note_on,,29,0,5,,,,,,,,,,,,,,,,0,,79,0
719,note_on,,0,0,15,,,,,,,,,,,,,,,,15,,65,0
719,note_on,,29,0,7,,,,,,,,,,,,,,,,5,,79,0
720,note_on,,1,0,14,,,,,,,,,,,,,,,,13,,60,48
720,note_on,,1,0,15,,,,,,,,,,,,,,,,15,,60,48
720,note_on,,0,0,15,,,,,,,,,,,,,,,,15,,72,48
720,note_on,,0,0,15,,,,,,,,,,,,,,,,15,,67,48
720,note_on,,1,0,7,,,,,,,,,,,,,,,,5,,75,48
720,note_on,,1,0,6,,,,,,,,,,,,,,,,2,,60,48
720,note_on,,0,0,15,,,,,,,,,,,,,,,,15,,63,48
720,note_on,,1,0,5,,,,,,,,,,,,,,,,0,,75,48
764,note_on,,44,0,7,,,,,,,,,,,,,,,,5,,75,0
764,note_on,,44,0,5,,,,,,,,,,,,,,,,0,,75,0
765,note_on,,1,0,5,,,,,,,,,,,,,,,,0,,74,48
765,note_on,,1,0,7,,,,,,,,,,,,,,,,5,,74,48
779,note_on,,14,0,7,,,,,,,,,,,,,,,,5,,74,0
779,note_on,,59,0,6,,,,,,,,,,,,,,,,2,,60,0
779,note_on,,59,0,15,,,,,,,,,,,,,,,,15,,60,0
779,note_on,,59,0,14,,,,,,,,,,,,,,,,13,,60,0
779,note_on,,14,0,5,,,,,,,,,,,,,,,,0,,74,0
780,note_on,,1,0,5,,,,,,,,,,,,,,,,0,,75,48
780,note_on,,1,0,14,,,,,,,,,,,,,,,,13,,48,48
780,note_on,,1,0,6,,,,,,,,,,,,,,,,2,,48,48
780,note_on,,1,0,7,,,,,,,,,,,,,,,,5,,75,48
780,note_on,,1,0,15,,,,,,,,,,,,,,,,15,,48,48
809,note_on,,29,0,5,,,,,,,,,,,,,,,,0,,75,0
809,note_on,,29,0,7,,,,,,,,,,,,,,,,5,,75,0
810,note_on,,1,0,5,,,,,,,,,,,,,,,,0,,77,48
810,note_on,,1,0,7,,,,,,,,,,,,,,,,5,,77,48
839,note_on,,29,0,7,,,,,,,,,,,,,,,,5,,77,0
839,note_on,,0,0,15,,,,,,,,,,,,,,,,15,,63,0
839,note_on,,0,0,15,,,,,,,,,,,,,,,,15,,48,0
839,note_on,,0,0,15,,,,,,,,,,,,,,,,15,,67,0
839,note_on,,59,0,15,,,,,,,,,,,,,,,,15,,72,0
839,note_on,,29,0,5,,,,,,,,,,,,,,,,0,,77,0
839,note_on,,59,0,6,,,,,,,,,,,,,,,,2,,48,0
839,note_on,,59,0,14,,,,,,,,,,,,,,,,13,,48,0
840,note_on,,1,0,6,,,,,,,,,,,,,,,,2,,55,48
840,note_on,,1,0,7,,,,,,,,,,,,,,,,5,,75,48
840,note_on,,1,0,5,,,,,,,,,,,,,,,,0,,75,48
840,note_on,,1,0,15,,,,,,,,,,,,,,,,15,,55,48
840,note_on,,0,0,15,,,,,,,,,,,,,,,,15,,70,48
840,note_on,,0,0,15,,,,,,,,,,,,,,,,15,,67,48
840,note_on,,0,0,15,,,,,,,,,,,,,,,,15,,63,48
840,note_on,,1,0,14,,,,,,,,,,,,,,,,13,,55,48
869,note_on,,29,0,7,,,,,,,,,,,,,,,,5,,75,0
869,note_on,,29,0,5,,,,,,,,,,,,,,,,0,,75,0
870,note_on,,1,0,7,,,,,,,,,,,,,,,,5,,77,48
870,note_on,,1,0,5,,,,,,,,,,,,,,,,0,,77,48
899,note_on,,59,0,15,,,,,,,,,,,,,,,,15,,55,0
899,note_on,,59,0,14,,,,,,,,,,,,,,,,13,,55,0
899,note_on,,0,0,15,,,,,,,,,,,,,,,,15,,70,0
899,note_on,,0,0,15,,,,,,,,,,,,,,,,15,,67,0
899,note_on,,0,0,15,,,,,,,,,,,,,,,,15,,63,0
899,note_on,,29,0,5,,,,,,,,,,,,,,,,0,,77,0
899,note_on,,29,0,7,,,,,,,,,,,,,,,,5,,77,0
899,note_on,,59,0,6,,,,,,,,,,,,,,,,2,,55,0
900,note_on,,1,0,7,,,,,,,,,,,,,,,,5,,75,48
900,note_on,,1,0,6,,,,,,,,,,,,,,,,2,,57,48
900,note_on,,1,0,14,,,,,,,,,,,,,,,,13,,57,48
900,note_on,,0,0,15,,,,,,,,,,,,,,,,15,,63,48
900,note_on,,1,0,15,,,,,,,,,,,,,,,,15,,57,48
900,note_on,,0,0,15,,,,,,,,,,,,,,,,15,,72,48
900,note_on,,0,0,15,,,,,,,,,,,,,,,,15,,65,48
900,note_on,,1,0,5,,,,,,,,,,,,,,,,0,,75,48
929,note_on,,29,0,5,,,,,,,,,,,,,,,,0,,75,0
929,note_on,,29,0,7,,,,,,,,,,,,,,,,5,,75,0
930,note_on,,1,0,5,,,,,,,,,,,,,,,,0,,77,48
930,note_on,,1,0,7,,,,,,,,,,,,,,,,5,,77,48
959,note_on,,29,0,7,,,,,,,,,,,,,,,,5,,77,0
959,note_on,,59,0,14,,,,,,,,,,,,,,,,13,,57,0
959,note_on,,29,0,5,,,,,,,,,,,,,,,,0,,77,0
959,note_on,,59,0,6,,,,,,,,,,,,,,,,2,,57,0
959,note_on,,59,0,15,,,,,,,,,,,,,,,,15,,57,0
959,note_on,,0,0,15,,,,,,,,,,,,,,,,15,,65,0
959,note_on,,0,0,15,,,,,,,,,,,,,,,,15,,63,0
959,note_on,,0,0,15,,,,,,,,,,,,,,,,15,,72,0
960,note_on,,1,0,14,,,,,,,,,,,,,,,,13,,58,48
960,note_on,,1,0,15,,,,,,,,,,,,,,,,15,,58,48
960,note_on,,0,0,15,,,,,,,,,,,,,,,,15,,65,48
960,note_on,,1,0,6,,,,,,,,,,,,,,,,2,,58,48
960,note_on,,1,0,7,,,,,,,,,,,,,,,,5,,74,48
960,note_on,,1,0,5,,,,,,,,,,,,,,,,0,,74,48
960,note_on,,0,0,15,,,,,,,,,,,,,,,,15,,62,48
989,note_on,,29,0,5,,,,,,,,,,,,,,,,0,,74,0
989,note_on,,29,0,7,,,,,,,,,,,,,,,,5,,74,0
990,note_on,,1,0,5,,,,,,,,,,,,,,,,0,,72,48
990,note_on,,1,0,7,,,,,,,,,,,,,,,,5,,72,48
1019,note_on,,59,0,6,,,,,,,,,,,,,,,,2,,58,0
1019,note_on,,29,0,5,,,,,,,,,,,,,,,,0,,72,0
1019,note_on,,59,0,14,,,,,,,,,,,,,,,,13,,58,0
1019,note_on,,59,0,15,,,,,,,,,,,,,,,,15,,58,0
1019,note_on,,29,0,7,,,,,,,,,,,,,,,,5,,72,0
1020,note_on,,1,0,14,,,,,,,,,,,,,,,,13,,50,48
1020,note_on,,1,0,15,,,,,,,,,,,,,,,,15,,50,48
1020,note_on,,1,0,7,,,,,,,,,,,,,,,,5,,70,48
1020,note_on,,1,0,6,,,,,,,,,,,,,,,,2,,50,48
1020,note_on,,1,0,5,,,,,,,,,,,,,,,,0,,70,48
1079,note_on,,59,0,14,,,,,,,,,,,,,,,,13,,50,0
1079,note_on,,59,0,7,,,,,,,,,,,,,,,,5,,70,0
1079,note_on,,59,0,6,,,,,,,,,,,,,,,,2,,50,0
1079,note_on,,0,0,15,,,,,,,,,,,,,,,,15,,62,0
1079,note_on,,59,0,15,,,,,,,,,,,,,,,,15,,65,0
1079,note_on,,59,0,5,,,,,,,,,,,,,,,,0,,70,0
1079,note_on,,0,0,15,,,,,,,,,,,,,,,,15,,50,0
1080,note_on,,1,0,15,,,,,,,,,,,,,,,,15,,55,48
1080,note_on,,1,0,6,,,,,,,,,,,,,,,,2,,55,48
1080,note_on,,0,0,15,,,,,,,,,,,,,,,,15,,63,48
1080,note_on,,0,0,15,,,,,,,,,,,,,,,,15,,58,48
1080,note_on,,1,0,14,,,,,,,,,,,,,,,,13,,55,48
1139,note_on,,0,0,15,,,,,,,,,,,,,,,,15,,58,0
1139,note_on,,59,0,15,,,,,,,,,,,,,,,,15,,55,0
1139,note_on,,59,0,6,,,,,,,,,,,,,,,,2,,55,0
1139,note_on,,0,0,15,,,,,,,,,,,,,,,,15,,63,0
1139,note_on,,59,0,14,,,,,,,,,,,,,,,,13,,55,0
1140,note_on,,1,0,15,,,,,,,,,,,,,,,,15,,51,48
1140,note_on,,1,0,14,,,,,,,,,,,,,,,,13,,51,48
1140,note_on,,1,0,6,,,,,,,,,,,,,,,,2,,51,48
1140,note_on,,0,0,15,,,,,,,,,,,,,,,,15,,67,48
1140,note_on,,0,0,15,,,,,,,,,,,,,,,,15,,63,48
1140,note_on,,61,0,5,,,,,,,,,,,,,,,,0,,75,48
1140,note_on,,61,0,7,,,,,,,,,,,,,,,,5,,75,48
1140,note_on,,0,0,15,,,,,,,,,,,,,,,,15,,58,48
1199,note_on,,59,0,15,,,,,,,,,,,,,,,,15,,51,0
1199,note_on,,59,0,7,,,,,,,,,,,,,,,,5,,75,0
1199,note_on,,0,0,15,,,,,,,,,,,,,,,,15,,67,0
1199,note_on,,0,0,15,,,,,,,,,,,,,,,,15,,63,0
1199,note_on,,0,0,15,,,,,,,,,,,,,,,,15,,58,0
1199,note_on,,59,0,6,,,,,,,,,,,,,,,,2,,51,0
1199,note_on,,59,0,14,,,,,,,,,,,,,,,,13,,51,0
1199,note_on,,59,0,5,,,,,,,,,,,,,,,,0,,75,0
1200,note_on,,0,0,15,,,,,,,,,,,,,,,,15,,70,48
1200,note_on,,0,0,15,,,,,,,,,,,,,,,,15,,65,48
1200,note_on,,1,0,14,,,,,,,,,,,,,,,,13,,58,48
1200,note_on,,0,0,15,,,,,,,,,,,,,,,,15,,62,48
1200,note_on,,1,0,6,,,,,,,,,,,,,,,,2,,58,48
1200,note_on,,1,0,5,,,,,,,,,,,,,,,,0,,74,48
1200,note_on,,1,0,7,,,,,,,,,,,,,,,,5,,74,48
1200,note_on,,1,0,15,,,,,,,,,,,,,,,,15,,58,48
1229,note_on,,29,0,7,,,,,,,,,,,,,,,,5,,74,0
1229,note_on,,29,0,5,,,,,,,,,,,,,,,,0,,74,0
1230,note_on,,1,0,5,,,,,,,,,,,,,,,,0,,72,48
1230,note_on,,1,0,7,,,,,,,,,,,,,,,,5,,72,48
1259,note_on,,59,0,14,,,,,,,,,,,,,,,,13,,58,0
1259,note_on,,29,0,7,,,,,,,,,,,,,,,,5,,72,0
1259,note_on,,59,0,15,,,,,,,,,,,,,,,,15,,58,0
1259,note_on,,59,0,6,,,,,,,,,,,,,,,,2,,58,0
1259,note_on,,29,0,5,,,,,,,,,,,,,,,,0,,72,0
1260,note_on,,1,0,15,,,,,,,,,,,,,,,,15,,62,48
1260,note_on,,1,0,6,,,,,,,,,,,,,,,,2,,62,48
1260,note_on,,1,0,7,,,,,,,,,,,,,,,,5,,70,48
1260,note_on,,1,0,14,,,,,,,,,,,,,,,,13,,62,48
1260,note_on,,1,0,5,,,,,,,,,,,,,,,,0,,70,48
1319,note_on,,0,0,15,,,,,,,,,,,,,,,,15,,62,0
1319,note_on,,0,0,15,,,,,,,,,,,,,,,,15,,65,0
1319,note_on,,59,0,15,,,,,,,,,,,,,,,,15,,70,0
1319,note_on,,59,0,14,,,,,,,,,,,,,,,,13,,62,0
1319,note_on,,59,0,6,,,,,,,,,,,,,,,,2,,62,0
1319,note_on,,0,0,15,,,,,,,,,,,,,,,,15,,62,0
1320,note_on,,1,0,15,,,,,,,,,,,,,,,,15,,53,48
1320,note_on,,0,0,15,,,,,,,,,,,,,,,,15,,77,48
1320,note_on,,0,0,15,,,,,,,,,,,,,,,,15,,70,48
1320,note_on,,0,0,15,,,,,,,,,,,,,,,,15,,65,48
1320,note_on,,1,0,6,,,,,,,,,,,,,,,,2,,53,48
1320,note_on,,1,0,14,,,,,,,,,,,,,,,,13,,53,48
1379,note_on,,0,0,15,,,,,,,,,,,,,,,,15,,65,0
1379,note_on,,59,0,14,,,,,,,,,,,,,,,,13,,53,0
1379,note_on,,59,0,15,,,,,,,,,,,,,,,,15,,53,0
1379,note_on,,119,0,5,,,,,,,,,,,,,,,,0,,70,0
1379,note_on,,0,0,15,,,,,,,,,,,,,,,,15,,77,0
1379,note_on,,119,0,7,,,,,,,,,,,,,,,,5,,70,0
1379,note_on,,0,0,15,,,,,,,,,,,,,,,,15,,70,0
1379,note_on,,59,0,6,,,,,,,,,,,,,,,,2,,53,0
1380,note_on,,0,0,15,,,,,,,,,,,,,,,,15,,75,48
1380,note_on,,1,0,14,,,,,,,,,,,,,,,,13,,55,48
1380,note_on,,0,0,15,,,,,,,,,,,,,,,,15,,70,48
1380,note_on,,1,0,6,,,,,,,,,,,,,,,,2,,55,48
1380,note_on,,1,0,7,,,,,,,,,,,,,,,,5,,79,48
1380,note_on,,0,0,15,,,,,,,,,,,,,,,,15,,67,48
1380,note_on,,1,0,5,,,,,,,,,,,,,,,,0,,79,48
1380,note_on,,1,0,15,,,,,,,,,,,,,,,,15,,55,48
1439,note_on,,59,0,6,,,,,,,,,,,,,,,,2,,55,0
1439,note_on,,59,0,7,,,,,,,,,,,,,,,,5,,79,0
1439,note_on,,59,0,5,,,,,,,,,,,,,,,,0,,79,0
1439,note_on,,59,0,14,,,,,,,,,,,,,,,,13,,55,0
1439,note_on,,0,0,15,,,,,,,,,,,,,,,,15,,75,0
1439,note_on,,0,0,15,,,,,,,,,,,,,,,,15,,70,0
1439,note_on,,0,0,15,,,,,,,,,,,,,,,,15,,67,0
1439,note_on,,59,0,15,,,,,,,,,,,,,,,,15,,55,0
1440,note_on,,1,0,7,,,,,,,,,,,,,,,,5,,77,48
1440,note_on,,0,0,15,,,,,,,,,,,,,,,,15,,74,48
1440,note_on,,1,0,14,,,,,,,,,,,,,,,,13,,46,48
1440,note_on,,0,0,15,,,,,,,,,,,,,,,,15,,70,48
1440,note_on,,1,0,15,,,,,,,,,,,,,,,,15,,46,48
1440,note_on,,1,0,5,,,,,,,,,,,,,,,,0,,77,48
1440,note_on,,1,0,6,,,,,,,,,,,,,,,,2,,46,48
1440,note_on,,0,0,15,,,,,,,,,,,,,,,,15,,65,48
1469,note_on,,29,0,5,,,,,,,,,,,,,,,,0,,77,0
1469,note_on,,29,0,7,,,,,,,,,,,,,,,,5,,77,0
1470,note_on,,1,0,5,,,,,,,,,,,,,,,,0,,75,48
1470,note_on,,1,0,7,,,,,,,,,,,,,,,,5,,75,48
1499,note_on,,29,0,7,,,,,,,,,,,,,,,,5,,75,0
1499,note_on,,29,0,5,,,,,,,,,,,,,,,,0,,75,0
1499,note_on,,59,0,15,,,,,,,,,,,,,,,,15,,46,0
1499,note_on,,59,0,14,,,,,,,,,,,,,,,,13,,46,0
1499,note_on,,59,0,6,,,,,,,,,,,,,,,,2,,46,0
1500,note_on,,1,0,15,,,,,,,,,,,,,,,,15,,58,48
1500,note_on,,1,0,7,,,,,,,,,,,,,,,,5,,74,48
1500,note_on,,1,0,6,,,,,,,,,,,,,,,,2,,58,48
1500,note_on,,1,0,5,,,,,,,,,,,,,,,,0,,74,48
1500,note_on,,1,0,14,,,,,,,,,,,,,,,,13,,58,48
1559,note_on,,59,0,15,,,,,,,,,,,,,,,,15,,58,0
1559,note_on,,59,0,14,,,,,,,,,,,,,,,,13,,58,0
1559,note_on,,59,0,7,,,,,,,,,,,,,,,,5,,74,0
1559,note_on,,59,0,5,,,,,,,,,,,,,,,,0,,74,0
1559,note_on,,59,0,6,,,,,,,,,,,,,,,,2,,58,0
1560,note_on,,1,0,15,,,,,,,,,,,,,,,,15,,62,48
1560,note_on,,1,0,14,,,,,,,,,,,,,,,,13,,62,48
1560,note_on,,1,0,6,,,,,,,,,,,,,,,,2,,62,48
1619,note_on,,59,0,6,,,,,,,,,,,,,,,,2,,62,0
1619,note_on,,59,0,15,,,,,,,,,,,,,,,,15,,74,0
1619,note_on,,0,0,15,,,,,,,,,,,,,,,,15,,62,0
1619,note_on,,59,0,14,,,,,,,,,,,,,,,,13,,62,0
1619,note_on,,0,0,15,,,,,,,,,,,,,,,,15,,70,0
1619,note_on,,0,0,15,,,,,,,,,,,,,,,,15,,65,0
1620,note_on,,1,0,6,,,,,,,,,,,,,,,,2,,50,48
1620,note_on,,0,0,15,,,,,,,,,,,,,,,,15,,70,48
1620,note_on,,1,0,15,,,,,,,,,,,,,,,,15,,50,48
1620,note_on,,61,0,5,,,,,,,,,,,,,,,,0,,65,48
1620,note_on,,0,0,15,,,,,,,,,,,,,,,,15,,65,48
1620,note_on,,1,0,14,,,,,,,,,,,,,,,,13,,50,48
1620,note_on,,61,0,7,,,,,,,,,,,,,,,,5,,65,48
1620,note_on,,0,0,15,,,,,,,,,,,,,,,,15,,58,48
1679,note_on,,59,0,7,,,,,,,,,,,,,,,,5,,65,0
1679,note_on,,59,0,14,,,,,,,,,,,,,,,,13,,50,0
1679,note_on,,59,0,6,,,,,,,,,,,,,,,,2,,50,0
1679,note_on,,0,0,15,,,,,,,,,,,,,,,,15,,58,0
1679,note_on,,0,0,15,,,,,,,,,,,,,,,,15,,65,0
1679,note_on,,0,0,15,,,,,,,,,,,,,,,,15,,70,0
1679,note_on,,59,0,15,,,,,,,,,,,,,,,,15,,50,0
1679,note_on,,59,0,5,,,,,,,,,,,,,,,,0,,65,0
1680,note_on,,1,0,15,,,,,,,,,,,,,,,,15,,51,48
1680,note_on,,0,0,15,,,,,,,,,,,,,,,,15,,63,48
1680,note_on,,1,0,7,,,,,,,,,,,,,,,,5,,67,48
1680,note_on,,1,0,5,,,,,,,,,,,,,,,,0,,67,48
1680,note_on,,1,0,14,,,,,,,,,,,,,,,,13,,51,48
1680,note_on,,1,0,6,,,,,,,,,,,,,,,,2,,51,48
1680,note_on,,0,0,15,,,,,,,,,,,,,,,,15,,67,48
1680,note_on,,0,0,15,,,,,,,,,,,,,,,,15,,58,48
1709,note_on,,29,0,5,,,,,,,,,,,,,,,,0,,67,0
1709,note_on,,29,0,7,,,,,,,,,,,,,,,,5,,67,0
1710,note_on,,1,0,5,,,,,,,,,,,,,,,,0,,69,48
1710,note_on,,1,0,7,,,,,,,,,,,,,,,,5,,69,48
1739,note_on,,29,0,7,,,,,,,,,,,,,,,,5,,69,0
1739,note_on,,29,0,5,,,,,,,,,,,,,,,,0,,69,0
1739,note_on,,0,0,15,,,,,,,,,,,,,,,,15,,63,0
1739,note_on,,0,0,15,,,,,,,,,,,,,,,,15,,67,0
1739,note_on,,0,0,15,,,,,,,,,,,,,,,,15,,58,0
1739,note_on,,59,0,6,,,,,,,,,,,,,,,,2,,51,0
1739,note_on,,59,0,15,,,,,,,,,,,,,,,,15,,51,0
1739,note_on,,59,0,14,,,,,,,,,,,,,,,,13,,51,0
1740,note_on,,1,0,6,,,,,,,,,,,,,,,,2,,50,48
1740,note_on,,1,0,7,,,,,,,,,,,,,,,,5,,70,48
1740,note_on,,1,0,5,,,,,,,,,,,,,,,,0,,70,48
1740,note_on,,1,0,14,,,,,,,,,,,,,,,,13,,50,48
1740,note_on,,1,0,15,,,,,,,,,,,,,,,,15,,50,48
1740,note_on,,0,0,15,,,,,,,,,,,,,,,,15,,65,48
1740,note_on,,0,0,15,,,,,,,,,,,,,,,,15,,58,48
1799,note_on,,59,0,14,,,,,,,,,,,,,,,,13,,50,0
1799,note_on,,0,0,15,,,,,,,,,,,,,,,,15,,58,0
1799,note_on,,59,0,15,,,,,,,,,,,,,,,,15,,50,0
1799,note_on,,59,0,5,,,,,,,,,,,,,,,,0,,70,0
1799,note_on,,59,0,6,,,,,,,,,,,,,,,,2,,50,0
1799,note_on,,59,0,7,,,,,,,,,,,,,,,,5,,70,0
1799,note_on,,0,0,15,,,,,,,,,,,,,,,,15,,65,0
1860,note_on,,61,0,14,,,,,,,,,,,,,,,,13,,50,48
1860,note_on,,61,0,5,,,,,,,,,,,,,,,,0,,77,48
1860,note_on,,61,0,15,,,,,,,,,,,,,,,,15,,50,48
1860,note_on,,0,0,15,,,,,,,,,,,,,,,,15,,70,48
1860,note_on,,0,0,15,,,,,,,,,,,,,,,,15,,65,48
1860,note_on,,0,0,15,,,,,,,,,,,,,,,,15,,58,48
1860,note_on,,61,0,7,,,,,,,,,,,,,,,,5,,77,48
1860,note_on,,61,0,6,,,,,,,,,,,,,,,,2,,50,48
1919,note_on,,59,0,14,,,,,,,,,,,,,,,,13,,50,0
1919,note_on,,59,0,7,,,,,,,,,,,,,,,,5,,77,0
1919,note_on,,59,0,5,,,,,,,,,,,,,,,,0,,77,0
1919,note_on,,0,0,15,,,,,,,,,,,,,,,,15,,65,0
1919,note_on,,0,0,15,,,,,,,,,,,,,,,,15,,58,0
1919,note_on,,0,0,15,,,,,,,,,,,,,,,,15,,70,0
1919,note_on,,59,0,15,,,,,,,,,,,,,,,,15,,50,0
1919,note_on,,59,0,6,,,,,,,,,,,,,,,,2,,50,0
1920,note_on,,0,0,15,,,,,,,,,,,,,,,,15,,69,48
1920,note_on,,0,0,15,,,,,,,,,,,,,,,,15,,63,48
1920,note_on,,0,0,15,,,,,,,,,,,,,,,,15,,60,48
1920,note_on,,1,0,7,,,,,,,,,,,,,,,,5,,75,48
1920,note_on,,1,0,14,,,,,,,,,,,,,,,,13,,48,48
1920,note_on,,1,0,15,,,,,,,,,,,,,,,,15,,48,48
1920,note_on,,1,0,6,,,,,,,,,,,,,,,,2,,48,48
1920,note_on,,1,0,5,,,,,,,,,,,,,,,,0,,75,48
1979,note_on,,59,0,5,,,,,,,,,,,,,,,,0,,75,0
1979,note_on,,59,0,6,,,,,,,,,,,,,,,,2,,48,0
1979,note_on,,59,0,15,,,,,,,,,,,,,,,,15,,48,0
1979,note_on,,0,0,15,,,,,,,,,,,,,,,,15,,69,0
1979,note_on,,0,0,15,,,,,,,,,,,,,,,,15,,63,0
1979,note_on,,0,0,15,,,,,,,,,,,,,,,,15,,60,0
1979,note_on,,59,0,14,,,,,,,,,,,,,,,,13,,48,0
1979,note_on,,59,0,7,,,,,,,,,,,,,,,,5,,75,0
1980,note_on,,1,0,6,,,,,,,,,,,,,,,,2,,46,48
1980,note_on,,1,0,15,,,,,,,,,,,,,,,,15,,46,48
1980,note_on,,1,0,7,,,,,,,,,,,,,,,,5,,74,48
1980,note_on,,0,0,15,,,,,,,,,,,,,,,,15,,65,48
1980,note_on,,0,0,15,,,,,,,,,,,,,,,,15,,62,48
1980,note_on,,0,0,15,,,,,,,,,,,,,,,,15,,70,48
1980,note_on,,1,0,5,,,,,,,,,,,,,,,,0,,74,48
1980,note_on,,1,0,14,,,,,,,,,,,,,,,,13,,46,48
2009,note_on,,29,0,5,,,,,,,,,,,,,,,,0,,74,0
2009,note_on,,29,0,7,,,,,,,,,,,,,,,,5,,74,0
2010,note_on,,1,0,7,,,,,,,,,,,,,,,,5,,72,48
2010,note_on,,1,0,5,,,,,,,,,,,,,,,,0,,72,48
2039,note_on,,59,0,14,,,,,,,,,,,,,,,,13,,46,0
2039,note_on,,0,0,15,,,,,,,,,,,,,,,,15,,65,0
2039,note_on,,59,0,6,,,,,,,,,,,,,,,,2,,46,0
2039,note_on,,29,0,5,,,,,,,,,,,,,,,,0,,72,0
2039,note_on,,0,0,15,,,,,,,,,,,,,,,,15,,70,0
2039,note_on,,0,0,15,,,,,,,,,,,,,,,,15,,62,0
2039,note_on,,59,0,15,,,,,,,,,,,,,,,,15,,46,0
2039,note_on,,29,0,7,,,,,,,,,,,,,,,,5,,72,0
2040,note_on,,1,0,15,,,,,,,,,,,,,,,,15,,41,48
2040,note_on,,0,0,15,,,,,,,,,,,,,,,,15,,70,48
2040,note_on,,1,0,14,,,,,,,,,,,,,,,,13,,41,48
2040,note_on,,0,0,15,,,,,,,,,,,,,,,,15,,72,48
2040,note_on,,1,0,5,,,,,,,,,,,,,,,,0,,72,48
2040,note_on,,1,0,6,,,,,,,,,,,,,,,,2,,41,48
2040,note_on,,1,0,7,,,,,,,,,,,,,,,,5,,72,48
2040,note_on,,0,0,15,,,,,,,,,,,,,,,,15,,65,48
2099,note_on,,0,0,15,,,,,,,,,,,,,,,,15,,70,0
2099,note_on,,0,0,15,,,,,,,,,,,,,,,,15,,65,0
2099,note_on,,59,0,14,,,,,,,,,,,,,,,,13,,41,0
2099,note_on,,59,0,6,,,,,,,,,,,,,,,,2,,41,0
2099,note_on,,59,0,15,,,,,,,,,,,,,,,,15,,41,0
2100,note_on,,1,0,14,,,,,,,,,,,,,,,,13,,53,48
2100,note_on,,1,0,6,,,,,,,,,,,,,,,,2,,53,48
2100,note_on,,0,0,15,,,,,,,,,,,,,,,,15,,60,48
2100,note_on,,0,0,15,,,,,,,,,,,,,,,,15,,69,48
2100,note_on,,1,0,15,,,,,,,,,,,,,,,,15,,53,48
2100,note_on,,2100,0,9,,,,,,,,,,,,,,,,7,,53,48
2129,note_on,,89,0,5,,,,,,,,,,,,,,,,0,,72,0
2129,note_on,,89,0,7,,,,,,,,,,,,,,,,5,,72,0
2130,note_on,,1,0,5,,,,,,,,,,,,,,,,0,,70,48
2130,note_on,,1,0,7,,,,,,,,,,,,,,,,5,,70,48
2159,note_on,,0,0,15,,,,,,,,,,,,,,,,15,,60,0
2159,note_on,,0,0,15,,,,,,,,,,,,,,,,15,,69,0
2159,note_on,,0,0,15,,,,,,,,,,,,,,,,15,,53,0
2159,note_on,,59,0,15,,,,,,,,,,,,,,,,15,,72,0
2159,note_on,,59,0,6,,,,,,,,,,,,,,,,2,,53,0
2159,note_on,,29,0,7,,,,,,,,,,,,,,,,5,,70,0
2159,note_on,,59,0,14,,,,,,,,,,,,,,,,13,,53,0
2159,note_on,,29,0,5,,,,,,,,,,,,,,,,0,,70,0
2159,note_on,,59,0,9,,,,,,,,,,,,,,,,7,,53,0
2160,note_on,,0,0,15,,,,,,,,,,,,,,,,15,,65,48
2160,note_on,,1,0,7,,,,,,,,,,,,,,,,5,,70,48
2160,note_on,,0,0,15,,,,,,,,,,,,,,,,15,,70,48
2160,note_on,,1,0,5,,,,,,,,,,,,,,,,0,,70,48
2160,note_on,,1,0,15,,,,,,,,,,,,,,,,15,,50,48
2160,note_on,,1,0,14,,,,,,,,,,,,,,,,13,,50,48
2160,note_on,,1,0,9,,,,,,,,,,,,,,,,7,,58,48
2160,note_on,,1,0,6,,,,,,,,,,,,,,,,2,,50,48
2160,note_on,,0,0,15,,,,,,,,,,,,,,,,15,,74,48
2219,note_on,,59,0,15,,,,,,,,,,,,,,,,15,,50,0
2219,note_on,,59,0,6,,,,,,,,,,,,,,,,2,,50,0
2219,note_on,,59,0,14,,,,,,,,,,,,,,,,13,,50,0
2220,note_on,,1,0,15,,,,,,,,,,,,,,,,15,,46,48
2220,note_on,,1,0,6,,,,,,,,,,,,,,,,2,,46,48
2220,note_on,,1,0,14,,,,,,,,,,,,,,,,13,,46,48
2249,note_on,,89,0,9,,,,,,,,,,,,,,,,7,,58,0
2250,note_on,,1,0,9,,,,,,,,,,,,,,,,7,,60,48
2279,note_on,,59,0,6,,,,,,,,,,,,,,,,2,,46,0
2279,note_on,,119,0,7,,,,,,,,,,,,,,,,5,,70,0
2279,note_on,,59,0,14,,,,,,,,,,,,,,,,13,,46,0
2279,note_on,,119,0,5,,,,,,,,,,,,,,,,0,,70,0
2279,note_on,,0,0,15,,,,,,,,,,,,,,,,15,,46,0
2279,note_on,,0,0,15,,,,,,,,,,,,,,,,15,,65,0
2279,note_on,,59,0,15,,,,,,,,,,,,,,,,15,,74,0
2279,note_on,,29,0,9,,,,,,,,,,,,,,,,7,,60,0
2279,note_on,,0,0,15,,,,,,,,,,,,,,,,15,,70,0
2280,note_on,,1,0,9,,,,,,,,,,,,,,,,7,,62,48
2339,note_on,,59,0,9,,,,,,,,,,,,,,,,7,,62,0
2340,note_on,,0,0,15,,,,,,,,,,,,,,,,15,,70,48
2340,note_on,,61,0,14,,,,,,,,,,,,,,,,13,,58,48
2340,note_on,,1,0,9,,,,,,,,,,,,,,,,7,,60,48
2340,note_on,,0,0,15,,,,,,,,,,,,,,,,15,,74,48
2340,note_on,,0,0,15,,,,,,,,,,,,,,,,15,,77,48
2340,note_on,,61,0,15,,,,,,,,,,,,,,,,15,,58,48
2340,note_on,,61,0,6,,,,,,,,,,,,,,,,2,,58,48
2340,note_on,,0,0,15,,,,,,,,,,,,,,,,15,,65,48
2369,note_on,,29,0,9,,,,,,,,,,,,,,,,7,,60,0
2370,note_on,,1,0,9,,,,,,,,,,,,,,,,7,,58,48
2399,note_on,,29,0,9,,,,,,,,,,,,,,,,7,,58,0
2399,note_on,,59,0,15,,,,,,,,,,,,,,,,15,,58,0
2399,note_on,,0,0,15,,,,,,,,,,,,,,,,15,,77,0
2399,note_on,,0,0,15,,,,,,,,,,,,,,,,15,,74,0
2399,note_on,,0,0,15,,,,,,,,,,,,,,,,15,,70,0
2399,note_on,,0,0,15,,,,,,,,,,,,,,,,15,,65,0
2399,note_on,,59,0,6,,,,,,,,,,,,,,,,2,,58,0
2399,note_on,,59,0,14,,,,,,,,,,,,,,,,13,,58,0
2400,note_on,,0,0,15,,,,,,,,,,,,,,,,15,,60,48
2400,note_on,,0,0,15,,,,,,,,,,,,,,,,15,,65,48
2400,note_on,,1,0,14,,,,,,,,,,,,,,,,13,,57,48
2400,note_on,,1,0,6,,,,,,,,,,,,,,,,2,,57,48
2400,note_on,,1,0,15,,,,,,,,,,,,,,,,15,,57,48
2400,note_on,,1,0,9,,,,,,,,,,,,,,,,7,,65,48
2400,note_on,,0,0,15,,,,,,,,,,,,,,,,15,,72,48
2459,note_on,,59,0,14,,,,,,,,,,,,,,,,13,,57,0
2459,note_on,,59,0,15,,,,,,,,,,,,,,,,15,,57,0
2459,note_on,,0,0,15,,,,,,,,,,,,,,,,15,,60,0
2459,note_on,,59,0,6,,,,,,,,,,,,,,,,2,,57,0
2460,note_on,,1,0,14,,,,,,,,,,,,,,,,13,,53,48
2460,note_on,,1,0,15,,,,,,,,,,,,,,,,15,,53,48
2460,note_on,,0,0,15,,,,,,,,,,,,,,,,15,,57,48
2460,note_on,,1,0,6,,,,,,,,,,,,,,,,2,,53,48
2519,note_on,,59,0,14,,,,,,,,,,,,,,,,13,,53,0
2519,note_on,,0,0,15,,,,,,,,,,,,,,,,15,,57,0
2519,note_on,,0,0,15,,,,,,,,,,,,,,,,15,,53,0
2519,note_on,,59,0,15,,,,,,,,,,,,,,,,15,,72,0
2519,note_on,,0,0,15,,,,,,,,,,,,,,,,15,,65,0
2519,note_on,,59,0,6,,,,,,,,,,,,,,,,2,,53,0
2520,note_on,,1,0,14,,,,,,,,,,,,,,,,13,,62,48
2520,note_on,,1,0,6,,,,,,,,,,,,,,,,2,,62,48
2520,note_on,,1,0,15,,,,,,,,,,,,,,,,15,,62,48
2520,note_on,,0,0,15,,,,,,,,,,,,,,,,15,,70,48
2520,note_on,,0,0,15,,,,,,,,,,,,,,,,15,,65,48
2549,note_on,,149,0,9,,,,,,,,,,,,,,,,7,,65,0
2550,note_on,,1,0,9,,,,,,,,,,,,,,,,7,,67,48
2579,note_on,,29,0,9,,,,,,,,,,,,,,,,7,,67,0
2579,note_on,,59,0,14,,,,,,,,,,,,,,,,13,,62,0
2579,note_on,,0,0,15,,,,,,,,,,,,,,,,15,,65,0
2579,note_on,,59,0,15,,,,,,,,,,,,,,,,15,,62,0
2579,note_on,,0,0,15,,,,,,,,,,,,,,,,15,,70,0
2579,note_on,,59,0,6,,,,,,,,,,,,,,,,2,,62,0
2580,note_on,,0,0,15,,,,,,,,,,,,,,,,15,,70,48
2580,note_on,,0,0,15,,,,,,,,,,,,,,,,15,,65,48
2580,note_on,,0,0,15,,,,,,,,,,,,,,,,15,,74,48
2580,note_on,,0,0,15,,,,,,,,,,,,,,,,15,,62,48
2580,note_on,,1,0,9,,,,,,,,,,,,,,,,7,,65,48
2580,note_on,,1,0,14,,,,,,,,,,,,,,,,13,,58,48
2580,note_on,,1,0,15,,,,,,,,,,,,,,,,15,,58,48
2580,note_on,,1,0,6,,,,,,,,,,,,,,,,2,,58,48
2609,note_on,,29,0,9,,,,,,,,,,,,,,,,7,,65,0
2610,note_on,,1,0,9,,,,,,,,,,,,,,,,7,,67,48
2639,note_on,,29,0,9,,,,,,,,,,,,,,,,7,,67,0
2639,note_on,,0,0,15,,,,,,,,,,,,,,,,15,,70,0
2639,note_on,,0,0,15,,,,,,,,,,,,,,,,15,,65,0
2639,note_on,,0,0,15,,,,,,,,,,,,,,,,15,,74,0
2639,note_on,,59,0,15,,,,,,,,,,,,,,,,15,,58,0
2639,note_on,,59,0,6,,,,,,,,,,,,,,,,2,,58,0
2639,note_on,,59,0,14,,,,,,,,,,,,,,,,13,,58,0
2639,note_on,,0,0,15,,,,,,,,,,,,,,,,15,,62,0
2640,note_on,,1,0,15,,,,,,,,,,,,,,,,15,,55,48
2640,note_on,,0,0,15,,,,,,,,,,,,,,,,15,,75,48
2640,note_on,,0,0,15,,,,,,,,,,,,,,,,15,,70,48
2640,note_on,,0,0,15,,,,,,,,,,,,,,,,15,,67,48
2640,note_on,,1,0,6,,,,,,,,,,,,,,,,2,,55,48
2640,note_on,,1,0,14,,,,,,,,,,,,,,,,13,,55,48
2640,note_on,,1,0,9,,,,,,,,,,,,,,,,7,,63,48
2640,note_on,,0,0,15,,,,,,,,,,,,,,,,15,,58,48
2684,note_on,,44,0,9,,,,,,,,,,,,,,,,7,,63,0
2685,note_on,,1,0,9,,,,,,,,,,,,,,,,7,,62,48
2699,note_on,,59,0,14,,,,,,,,,,,,,,,,13,,55,0
2699,note_on,,14,0,9,,,,,,,,,,,,,,,,7,,62,0
2699,note_on,,59,0,15,,,,,,,,,,,,,,,,15,,55,0
2699,note_on,,59,0,6,,,,,,,,,,,,,,,,2,,55,0
2699,note_on,,0,0,15,,,,,,,,,,,,,,,,15,,58,0
2700,note_on,,1,0,6,,,,,,,,,,,,,,,,2,,60,48
2700,note_on,,1,0,15,,,,,,,,,,,,,,,,15,,60,48
2700,note_on,,1,0,9,,,,,,,,,,,,,,,,7,,63,48
2700,note_on,,1,0,14,,,,,,,,,,,,,,,,13,,60,48
2700,note_on,,0,0,15,,,,,,,,,,,,,,,,15,,63,48
2729,note_on,,29,0,9,,,,,,,,,,,,,,,,7,,63,0
2730,note_on,,1,0,9,,,,,,,,,,,,,,,,7,,65,48
2759,note_on,,59,0,15,,,,,,,,,,,,,,,,15,,75,0
2759,note_on,,0,0,15,,,,,,,,,,,,,,,,15,,70,0
2759,note_on,,0,0,15,,,,,,,,,,,,,,,,15,,67,0
2759,note_on,,0,0,15,,,,,,,,,,,,,,,,15,,60,0
2759,note_on,,59,0,6,,,,,,,,,,,,,,,,2,,60,0
2759,note_on,,59,0,14,,,,,,,,,,,,,,,,13,,60,0
2759,note_on,,0,0,15,,,,,,,,,,,,,,,,15,,63,0
2759,note_on,,29,0,9,,,,,,,,,,,,,,,,7,,65,0
2760,note_on,,1,0,14,,,,,,,,,,,,,,,,13,,53,48
2760,note_on,,1,0,6,,,,,,,,,,,,,,,,2,,53,48
2760,note_on,,0,0,15,,,,,,,,,,,,,,,,15,,65,48
2760,note_on,,0,0,15,,,,,,,,,,,,,,,,15,,69,48
2760,note_on,,0,0,15,,,,,,,,,,,,,,,,15,,60,48
2760,note_on,,1,0,15,,,,,,,,,,,,,,,,15,,53,48
2760,note_on,,1,0,9,,,,,,,,,,,,,,,,7,,63,48
2789,note_on,,29,0,9,,,,,,,,,,,,,,,,7,,63,0
2790,note_on,,1,0,9,,,,,,,,,,,,,,,,7,,65,48
2819,note_on,,59,0,6,,,,,,,,,,,,,,,,2,,53,0
2819,note_on,,59,0,15,,,,,,,,,,,,,,,,15,,53,0
2819,note_on,,0,0,15,,,,,,,,,,,,,,,,15,,60,0
2819,note_on,,0,0,15,,,,,,,,,,,,,,,,15,,69,0
2819,note_on,,0,0,15,,,,,,,,,,,,,,,,15,,65,0
2819,note_on,,59,0,14,,,,,,,,,,,,,,,,13,,53,0
2819,note_on,,29,0,9,,,,,,,,,,,,,,,,7,,65,0
2820,note_on,,0,0,15,,,,,,,,,,,,,,,,15,,65,48
2820,note_on,,1,0,14,,,,,,,,,,,,,,,,13,,57,48
2820,note_on,,1,0,6,,,,,,,,,,,,,,,,2,,57,48
2820,note_on,,1,0,15,,,,,,,,,,,,,,,,15,,57,48
2820,note_on,,0,0,15,,,,,,,,,,,,,,,,15,,60,48
2820,note_on,,0,0,15,,,,,,,,,,,,,,,,15,,72,48
2820,note_on,,2820,0,8,,,,,,,,,,,,,,,,6,,65,48
2820,note_on,,1,0,9,,,,,,,,,,,,,,,,7,,63,48
2849,note_on,,29,0,9,,,,,,,,,,,,,,,,7,,63,0
2850,note_on,,1,0,9,,,,,,,,,,,,,,,,7,,65,48
2879,note_on,,59,0,14,,,,,,,,,,,,,,,,13,,57,0
2879,note_on,,59,0,8,,,,,,,,,,,,,,,,6,,65,0
2879,note_on,,59,0,6,,,,,,,,,,,,,,,,2,,57,0
2879,note_on,,0,0,15,,,,,,,,,,,,,,,,15,,72,0
2879,note_on,,0,0,15,,,,,,,,,,,,,,,,15,,60,0
2879,note_on,,0,0,15,,,,,,,,,,,,,,,,15,,65,0
2879,note_on,,29,0,9,,,,,,,,,,,,,,,,7,,65,0
2879,note_on,,59,0,15,,,,,,,,,,,,,,,,15,,57,0
2880,note_on,,0,0,15,,,,,,,,,,,,,,,,15,,62,48
2880,note_on,,1,0,9,,,,,,,,,,,,,,,,7,,62,48
2880,note_on,,1,0,14,,,,,,,,,,,,,,,,13,,58,48
2880,note_on,,1,0,8,,,,,,,,,,,,,,,,6,,58,48
2880,note_on,,1,0,15,,,,,,,,,,,,,,,,15,,58,48
2880,note_on,,0,0,15,,,,,,,,,,,,,,,,15,,65,48
2880,note_on,,1,0,6,,,,,,,,,,,,,,,,2,,58,48
2909,note_on,,29,0,9,,,,,,,,,,,,,,,,7,,62,0
2910,note_on,,1,0,9,,,,,,,,,,,,,,,,7,,60,48
2939,note_on,,59,0,6,,,,,,,,,,,,,,,,2,,58,0
2939,note_on,,59,0,14,,,,,,,,,,,,,,,,13,,58,0
2939,note_on,,59,0,15,,,,,,,,,,,,,,,,15,,58,0
2939,note_on,,29,0,9,,,,,,,,,,,,,,,,7,,60,0
2940,note_on,,1,0,9,,,,,,,,,,,,,,,,7,,58,48
2940,note_on,,1,0,6,,,,,,,,,,,,,,,,2,,46,48
2940,note_on,,1,0,14,,,,,,,,,,,,,,,,13,,46,48
2940,note_on,,1,0,15,,,,,,,,,,,,,,,,15,,46,48
2969,note_on,,89,0,8,,,,,,,,,,,,,,,,6,,58,0
2970,note_on,,1,0,8,,,,,,,,,,,,,,,,6,,60,48
2999,note_on,,59,0,9,,,,,,,,,,,,,,,,7,,58,0
2999,note_on,,59,0,15,,,,,,,,,,,,,,,,15,,65,0
2999,note_on,,0,0,15,,,,,,,,,,,,,,,,15,,62,0
2999,note_on,,59,0,14,,,,,,,,,,,,,,,,13,,46,0
2999,note_on,,0,0,15,,,,,,,,,,,,,,,,15,,46,0
2999,note_on,,29,0,8,,,,,,,,,,,,,,,,6,,60,0
2999,note_on,,59,0,6,,,,,,,,,,,,,,,,2,,46,0
3000,note_on,,1,0,6,,,,,,,,,,,,,,,,2,,43,48
3000,note_on,,1,0,15,,,,,,,,,,,,,,,,15,,67,48
3000,note_on,,0,0,15,,,,,,,,,,,,,,,,15,,43,48
3000,note_on,,0,0,15,,,,,,,,,,,,,,,,15,,62,48
3000,note_on,,1,0,8,,,,,,,,,,,,,,,,6,,62,48
3000,note_on,,1,0,14,,,,,,,,,,,,,,,,13,,43,48
3000,note_on,,0,0,15,,,,,,,,,,,,,,,,15,,70,48
3059,note_on,,59,0,15,,,,,,,,,,,,,,,,15,,43,0
3059,note_on,,59,0,8,,,,,,,,,,,,,,,,6,,62,0
3059,note_on,,59,0,14,,,,,,,,,,,,,,,,13,,43,0
3059,note_on,,59,0,6,,,,,,,,,,,,,,,,2,,43,0
3060,note_on,,1,0,14,,,,,,,,,,,,,,,,13,,55,48
3060,note_on,,1,0,8,,,,,,,,,,,,,,,,6,,60,48
3060,note_on,,1,0,15,,,,,,,,,,,,,,,,15,,55,48
3060,note_on,,1,0,6,,,,,,,,,,,,,,,,2,,55,48
3060,note_on,,61,0,9,,,,,,,,,,,,,,,,7,,58,48
3089,note_on,,29,0,8,,,,,,,,,,,,,,,,6,,60,0
3090,note_on,,1,0,8,,,,,,,,,,,,,,,,6,,58,48
3119,note_on,,59,0,14,,,,,,,,,,,,,,,,13,,55,0
3119,note_on,,29,0,8,,,,,,,,,,,,,,,,6,,58,0
3119,note_on,,0,0,15,,,,,,,,,,,,,,,,15,,55,0
3119,note_on,,0,0,15,,,,,,,,,,,,,,,,15,,62,0
3119,note_on,,0,0,15,,,,,,,,,,,,,,,,15,,70,0
3119,note_on,,59,0,15,,,,,,,,,,,,,,,,15,,67,0
3119,note_on,,59,0,9,,,,,,,,,,,,,,,,7,,58,0
3119,note_on,,59,0,6,,,,,,,,,,,,,,,,2,,55,0
3120,note_on,,0,0,15,,,,,,,,,,,,,,,,15,,69,48
3120,note_on,,1,0,9,,,,,,,,,,,,,,,,7,,57,48
3120,note_on,,1,0,8,,,,,,,,,,,,,,,,6,,65,48
3120,note_on,,1,0,14,,,,,,,,,,,,,,,,13,,53,48
3120,note_on,,0,0,15,,,,,,,,,,,,,,,,15,,65,48
3120,note_on,,1,0,6,,,,,,,,,,,,,,,,2,,53,48
3120,note_on,,1,0,15,,,,,,,,,,,,,,,,15,,53,48
3120,note_on,,0,0,15,,,,,,,,,,,,,,,,15,,72,48
3149,note_on,,29,0,9,,,,,,,,,,,,,,,,7,,57,0
3150,note_on,,1,0,9,,,,,,,,,,,,,,,,7,,55,48
3179,note_on,,29,0,9,,,,,,,,,,,,,,,,7,,55,0
3180,note_on,,1,0,9,,,,,,,,,,,,,,,,7,,53,48
3239,note_on,,119,0,15,,,,,,,,,,,,,,,,15,,53,0
3239,note_on,,0,0,15,,,,,,,,,,,,,,,,15,,69,0
3239,note_on,,0,0,15,,,,,,,,,,,,,,,,15,,65,0
3239,note_on,,119,0,14,,,,,,,,,,,,,,,,13,,53,0
3239,note_on,,119,0,6,,,,,,,,,,,,,,,,2,,53,0
3239,note_on,,0,0,15,,,,,,,,,,,,,,,,15,,72,0
3240,note_on,,1,0,14,,,,,,,,,,,,,,,,13,,50,48
3240,note_on,,0,0,15,,,,,,,,,,,,,,,,15,,65,48
3240,note_on,,0,0,15,,,,,,,,,,,,,,,,15,,70,48
3240,note_on,,0,0,15,,,,,,,,,,,,,,,,15,,74,48
3240,note_on,,1,0,15,,,,,,,,,,,,,,,,15,,50,48
3240,note_on,,1,0,6,,,,,,,,,,,,,,,,2,,50,48
3269,note_on,,149,0,8,,,,,,,,,,,,,,,,6,,65,0
3270,note_on,,1,0,8,,,,,,,,,,,,,,,,6,,67,48
3299,note_on,,0,0,15,,,,,,,,,,,,,,,,15,,70,0
3299,note_on,,0,0,15,,,,,,,,,,,,,,,,15,,65,0
3299,note_on,,59,0,15,,,,,,,,,,,,,,,,15,,50,0
3299,note_on,,59,0,6,,,,,,,,,,,,,,,,2,,50,0
3299,note_on,,119,0,9,,,,,,,,,,,,,,,,7,,53,0
3299,note_on,,29,0,8,,,,,,,,,,,,,,,,6,,67,0
3299,note_on,,59,0,14,,,,,,,,,,,,,,,,13,,50,0
3299,note_on,,0,0,15,,,,,,,,,,,,,,,,15,,74,0
3300,note_on,,1,0,14,,,,,,,,,,,,,,,,13,,46,48
3300,note_on,,1,0,8,,,,,,,,,,,,,,,,6,,65,48
3300,note_on,,0,0,15,,,,,,,,,,,,,,,,15,,74,48
3300,note_on,,1,0,15,,,,,,,,,,,,,,,,15,,46,48
3300,note_on,,0,0,15,,,,,,,,,,,,,,,,15,,77,48
3300,note_on,,0,0,15,,,,,,,,,,,,,,,,15,,70,48
3300,note_on,,1,0,9,,,,,,,,,,,,,,,,7,,62,48
3300,note_on,,1,0,6,,,,,,,,,,,,,,,,2,,46,48
3329,note_on,,29,0,8,,,,,,,,,,,,,,,,6,,65,0
3330,note_on,,1,0,8,,,,,,,,,,,,,,,,6,,67,48
3359,note_on,,29,0,8,,,,,,,,,,,,,,,,6,,67,0
3359,note_on,,59,0,14,,,,,,,,,,,,,,,,13,,46,0
3359,note_on,,59,0,6,,,,,,,,,,,,,,,,2,,46,0
3359,note_on,,59,0,9,,,,,,,,,,,,,,,,7,,62,0
3359,note_on,,0,0,15,,,,,,,,,,,,,,,,15,,74,0
3359,note_on,,0,0,15,,,,,,,,,,,,,,,,15,,77,0
3359,note_on,,59,0,15,,,,,,,,,,,,,,,,15,,46,0
3359,note_on,,0,0,15,,,,,,,,,,,,,,,,15,,70,0
3360,note_on,,1,0,9,,,,,,,,,,,,,,,,7,,60,48
3360,note_on,,0,0,15,,,,,,,,,,,,,,,,15,,63,48
3360,note_on,,1,0,6,,,,,,,,,,,,,,,,2,,48,48
3360,note_on,,0,0,15,,,,,,,,,,,,,,,,15,,75,48
3360,note_on,,1,0,15,,,,,,,,,,,,,,,,15,,48,48
3360,note_on,,1,0,8,,,,,,,,,,,,,,,,6,,63,48
3360,note_on,,0,0,15,,,,,,,,,,,,,,,,15,,72,48
3360,note_on,,1,0,14,,,,,,,,,,,,,,,,13,,48,48
3389,note_on,,29,0,9,,,,,,,,,,,,,,,,7,,60,0
3390,note_on,,1,0,9,,,,,,,,,,,,,,,,7,,58,48
3404,note_on,,44,0,8,,,,,,,,,,,,,,,,6,,63,0
3405,note_on,,1,0,8,,,,,,,,,,,,,,,,6,,62,48
3419,note_on,,14,0,8,,,,,,,,,,,,,,,,6,,62,0
3419,note_on,,59,0,6,,,,,,,,,,,,,,,,2,,48,0
3419,note_on,,59,0,14,,,,,,,,,,,,,,,,13,,48,0
3419,note_on,,59,0,15,,,,,,,,,,,,,,,,15,,48,0
3419,note_on,,29,0,9,,,,,,,,,,,,,,,,7,,58,0
3420,note_on,,1,0,15,,,,,,,,,,,,,,,,15,,41,48
3420,note_on,,1,0,14,,,,,,,,,,,,,,,,13,,41,48
3420,note_on,,1,0,8,,,,,,,,,,,,,,,,6,,63,48
3420,note_on,,1,0,9,,,,,,,,,,,,,,,,7,,57,48
3420,note_on,,1,0,6,,,,,,,,,,,,,,,,2,,41,48
3449,note_on,,29,0,8,,,,,,,,,,,,,,,,6,,63,0
3450,note_on,,1,0,8,,,,,,,,,,,,,,,,6,,65,48
3479,note_on,,59,0,9,,,,,,,,,,,,,,,,7,,57,0
3479,note_on,,29,0,8,,,,,,,,,,,,,,,,6,,65,0
3479,note_on,,0,0,15,,,,,,,,,,,,,,,,15,,72,0
3479,note_on,,59,0,15,,,,,,,,,,,,,,,,15,,75,0
3479,note_on,,59,0,14,,,,,,,,,,,,,,,,13,,41,0
3479,note_on,,59,0,6,,,,,,,,,,,,,,,,2,,41,0
3479,note_on,,0,0,15,,,,,,,,,,,,,,,,15,,41,0
3479,note_on,,0,0,15,,,,,,,,,,,,,,,,15,,63,0
3480,note_on,,1,0,8,,,,,,,,,,,,,,,,6,,63,48
3509,note_on,,29,0,8,,,,,,,,,,,,,,,,6,,63,0
3510,note_on,,1,0,8,,,,,,,,,,,,,,,,6,,65,48
3539,note_on,,29,0,8,,,,,,,,,,,,,,,,6,,65,0
3540,note_on,,1,0,8,,,,,,,,,,,,,,,,6,,63,48
3540,note_on,,0,0,15,,,,,,,,,,,,,,,,15,,72,48
3540,note_on,,61,0,15,,,,,,,,,,,,,,,,15,,53,48
3540,note_on,,3540,0,11,,,,,,,,,,,,,,,,10,,81,48
3540,note_on,,3540,0,12,,,,,,,,,,,,,,,,11,,72,48
3540,note_on,,61,0,14,,,,,,,,,,,,,,,,13,,53,48
3540,note_on,,3540,0,13,,,,,,,,,,,,,,,,12,,69,48
3540,note_on,,61,0,6,,,,,,,,,,,,,,,,2,,53,48
3540,note_on,,0,0,15,,,,,,,,,,,,,,,,15,,65,48
3540,note_on,,61,0,9,,,,,,,,,,,,,,,,7,,60,48
3540,note_on,,3540,0,10,,,,,,,,,,,,,,,,8,,53,48
3540,note_on,,0,0,15,,,,,,,,,,,,,,,,15,,69,48
3569,note_on,,29,0,8,,,,,,,,,,,,,,,,6,,63,0
3570,note_on,,1,0,8,,,,,,,,,,,,,,,,6,,65,48
3599,note_on,,59,0,13,,,,,,,,,,,,,,,,12,,69,0
3599,note_on,,29,0,8,,,,,,,,,,,,,,,,6,,65,0
3599,note_on,,59,0,12,,,,,,,,,,,,,,,,11,,72,0
3599,note_on,,0,0,15,,,,,,,,,,,,,,,,15,,69,0
3599,note_on,,59,0,14,,,,,,,,,,,,,,,,13,,53,0
3599,note_on,,59,0,10,,,,,,,,,,,,,,,,8,,53,0
3599,note_on,,0,0,15,,,,,,,,,,,,,,,,15,,65,0
3599,note_on,,0,0,15,,,,,,,,,,,,,,,,15,,72,0
3599,note_on,,59,0,15,,,,,,,,,,,,,,,,15,,53,0
3599,note_on,,59,0,11,,,,,,,,,,,,,,,,10,,81,0
3599,note_on,,59,0,9,,,,,,,,,,,,,,,,7,,60,0
3599,note_on,,59,0,6,,,,,,,,,,,,,,,,2,,53,0
3600,note_on,,1,0,8,,,,,,,,,,,,,,,,6,,62,48
3600,note_on,,1,0,13,,,,,,,,,,,,,,,,12,,62,48
3600,note_on,,1,0,6,,,,,,,,,,,,,,,,2,,46,48
3600,note_on,,1,0,9,,,,,,,,,,,,,,,,7,,62,48
3600,note_on,,0,0,15,,,,,,,,,,,,,,,,15,,74,48
3600,note_on,,1,0,14,,,,,,,,,,,,,,,,13,,46,48
3600,note_on,,1,0,11,,,,,,,,,,,,,,,,10,,82,48
3600,note_on,,1,0,12,,,,,,,,,,,,,,,,11,,70,48
3600,note_on,,0,0,15,,,,,,,,,,,,,,,,15,,65,48
3600,note_on,,0,0,15,,,,,,,,,,,,,,,,15,,70,48
3600,note_on,,1,0,15,,,,,,,,,,,,,,,,15,,46,48
3600,note_on,,1,0,10,,,,,,,,,,,,,,,,8,,46,48
3629,note_on,,29,0,9,,,,,,,,,,,,,,,,7,,62,0
3629,note_on,,29,0,8,,,,,,,,,,,,,,,,6,,62,0
3630,note_on,,1,0,8,,,,,,,,,,,,,,,,6,,60,48
3630,note_on,,1,0,9,,,,,,,,,,,,,,,,7,,63,48
3659,note_on,,59,0,11,,,,,,,,,,,,,,,,10,,82,0
3659,note_on,,29,0,9,,,,,,,,,,,,,,,,7,,63,0
3659,note_on,,59,0,13,,,,,,,,,,,,,,,,12,,62,0
3659,note_on,,29,0,8,,,,,,,,,,,,,,,,6,,60,0
3659,note_on,,59,0,12,,,,,,,,,,,,,,,,11,,70,0
3660,note_on,,1,0,13,,,,,,,,,,,,,,,,12,,58,48
3660,note_on,,1,0,11,,,,,,,,,,,,,,,,10,,77,48
3660,note_on,,1,0,9,,,,,,,,,,,,,,,,7,,65,48
3660,note_on,,1,0,8,,,,,,,,,,,,,,,,6,,58,48
3660,note_on,,1,0,12,,,,,,,,,,,,,,,,11,,74,48
3689,note_on,,89,0,10,,,,,,,,,,,,,,,,8,,46,0
3689,note_on,,89,0,15,,,,,,,,,,,,,,,,15,,46,0
3689,note_on,,89,0,6,,,,,,,,,,,,,,,,2,,46,0
3689,note_on,,89,0,14,,,,,,,,,,,,,,,,13,,46,0
3690,note_on,,1,0,10,,,,,,,,,,,,,,,,8,,48,48
3690,note_on,,1,0,15,,,,,,,,,,,,,,,,15,,48,48
3690,note_on,,1,0,6,,,,,,,,,,,,,,,,2,,48,48
3690,note_on,,1,0,14,,,,,,,,,,,,,,,,13,,48,48
3719,note_on,,29,0,10,,,,,,,,,,,,,,,,8,,48,0
3719,note_on,,59,0,8,,,,,,,,,,,,,,,,6,,58,0
3719,note_on,,59,0,13,,,,,,,,,,,,,,,,12,,58,0
3719,note_on,,29,0,14,,,,,,,,,,,,,,,,13,,48,0
3719,note_on,,29,0,6,,,,,,,,,,,,,,,,2,,48,0
3719,note_on,,59,0,12,,,,,,,,,,,,,,,,11,,74,0
3719,note_on,,59,0,11,,,,,,,,,,,,,,,,10,,77,0
3719,note_on,,29,0,15,,,,,,,,,,,,,,,,15,,48,0
3720,note_on,,1,0,14,,,,,,,,,,,,,,,,13,,50,48
3720,note_on,,1,0,15,,,,,,,,,,,,,,,,15,,50,48
3720,note_on,,1,0,6,,,,,,,,,,,,,,,,2,,50,48
3720,note_on,,1,0,10,,,,,,,,,,,,,,,,8,,50,48
3720,note_on,,1,0,13,,,,,,,,,,,,,,,,12,,58,48
3720,note_on,,1,0,12,,,,,,,,,,,,,,,,11,,65,48
3720,note_on,,1,0,11,,,,,,,,,,,,,,,,10,,70,48
3779,note_on,,59,0,6,,,,,,,,,,,,,,,,2,,50,0
3779,note_on,,0,0,15,,,,,,,,,,,,,,,,15,,70,0
3779,note_on,,119,0,9,,,,,,,,,,,,,,,,7,,65,0
3779,note_on,,59,0,10,,,,,,,,,,,,,,,,8,,50,0
3779,note_on,,59,0,13,,,,,,,,,,,,,,,,12,,58,0
3779,note_on,,59,0,15,,,,,,,,,,,,,,,,15,,74,0
3779,note_on,,0,0,15,,,,,,,,,,,,,,,,15,,65,0
3779,note_on,,59,0,14,,,,,,,,,,,,,,,,13,,50,0
3779,note_on,,59,0,12,,,,,,,,,,,,,,,,11,,65,0
3779,note_on,,0,0,15,,,,,,,,,,,,,,,,15,,50,0
3779,note_on,,59,0,11,,,,,,,,,,,,,,,,10,,70,0
3780,note_on,,1,0,15,,,,,,,,,,,,,,,,15,,46,48
3780,note_on,,1,0,12,,,,,,,,,,,,,,,,11,,70,48
3780,note_on,,1,0,13,,,,,,,,,,,,,,,,12,,62,48
3780,note_on,,1,0,10,,,,,,,,,,,,,,,,8,,48,48
3780,note_on,,1,0,11,,,,,,,,,,,,,,,,10,,77,48
3780,note_on,,1,0,6,,,,,,,,,,,,,,,,2,,46,48
3780,note_on,,1,0,9,,,,,,,,,,,,,,,,7,,63,48
3780,note_on,,61,0,8,,,,,,,,,,,,,,,,6,,70,48
3780,note_on,,1,0,14,,,,,,,,,,,,,,,,13,,46,48
3809,note_on,,29,0,10,,,,,,,,,,,,,,,,8,,48,0
3809,note_on,,29,0,9,,,,,,,,,,,,,,,,7,,63,0
3810,note_on,,1,0,9,,,,,,,,,,,,,,,,7,,62,48
3810,note_on,,1,0,10,,,,,,,,,,,,,,,,8,,46,48
3839,note_on,,29,0,10,,,,,,,,,,,,,,,,8,,46,0
3839,note_on,,29,0,9,,,,,,,,,,,,,,,,7,,62,0
3839,note_on,,59,0,11,,,,,,,,,,,,,,,,10,,77,0
3839,note_on,,59,0,14,,,,,,,,,,,,,,,,13,,46,0
3839,note_on,,59,0,12,,,,,,,,,,,,,,,,11,,70,0
3839,note_on,,59,0,6,,,,,,,,,,,,,,,,2,,46,0
3839,note_on,,59,0,15,,,,,,,,,,,,,,,,15,,46,0
3839,note_on,,59,0,13,,,,,,,,,,,,,,,,12,,62,0
3839,note_on,,59,0,8,,,,,,,,,,,,,,,,6,,70,0
3840,note_on,,0,0,15,,,,,,,,,,,,,,,,15,,69,48
3840,note_on,,1,0,15,,,,,,,,,,,,,,,,15,,53,48
3840,note_on,,1,0,9,,,,,,,,,,,,,,,,7,,60,48
3840,note_on,,1,0,10,,,,,,,,,,,,,,,,8,,53,48
3840,note_on,,1,0,8,,,,,,,,,,,,,,,,6,,69,48
3840,note_on,,1,0,14,,,,,,,,,,,,,,,,13,,53,48
3840,note_on,,1,0,6,,,,,,,,,,,,,,,,2,,53,48
3840,note_on,,0,0,15,,,,,,,,,,,,,,,,15,,60,48
3840,note_on,,0,0,15,,,,,,,,,,,,,,,,15,,65,48
3869,note_on,,29,0,8,,,,,,,,,,,,,,,,6,,69,0
3870,note_on,,1,0,8,,,,,,,,,,,,,,,,6,,67,48
3899,note_on,,29,0,8,,,,,,,,,,,,,,,,6,,67,0
3900,note_on,,61,0,11,,,,,,,,,,,,,,,,10,,69,48
3900,note_on,,61,0,12,,,,,,,,,,,,,,,,11,,60,48
3900,note_on,,61,0,13,,,,,,,,,,,,,,,,12,,53,48
3900,note_on,,1,0,8,,,,,,,,,,,,,,,,6,,65,48
3959,note_on,,59,0,12,,,,,,,,,,,,,,,,11,,60,0
3959,note_on,,59,0,13,,,,,,,,,,,,,,,,12,,53,0
3959,note_on,,59,0,8,,,,,,,,,,,,,,,,6,,65,0
3959,note_on,,59,0,11,,,,,,,,,,,,,,,,10,,69,0
3959,note_on,,119,0,9,,,,,,,,,,,,,,,,7,,60,0
3960,note_on,,1,0,12,,,,,,,,,,,,,,,,11,,69,48
3960,note_on,,1,0,13,,,,,,,,,,,,,,,,12,,65,48
3960,note_on,,1,0,11,,,,,,,,,,,,,,,,10,,72,48
3989,note_on,,149,0,10,,,,,,,,,,,,,,,,8,,53,0
3990,note_on,,1,0,10,,,,,,,,,,,,,,,,8,,55,48
4019,note_on,,179,0,6,,,,,,,,,,,,,,,,2,,53,0
4019,note_on,,29,0,10,,,,,,,,,,,,,,,,8,,55,0
4019,note_on,,0,0,15,,,,,,,,,,,,,,,,15,,69,0
4019,note_on,,59,0,12,,,,,,,,,,,,,,,,11,,69,0
4019,note_on,,0,0,15,,,,,,,,,,,,,,,,15,,65,0
4019,note_on,,0,0,15,,,,,,,,,,,,,,,,15,,60,0
4019,note_on,,179,0,14,,,,,,,,,,,,,,,,13,,53,0
4019,note_on,,179,0,15,,,,,,,,,,,,,,,,15,,53,0
4019,note_on,,59,0,11,,,,,,,,,,,,,,,,10,,72,0
4019,note_on,,59,0,13,,,,,,,,,,,,,,,,12,,65,0
4020,note_on,,1,0,15,,,,,,,,,,,,,,,,15,,53,48
4020,note_on,,1,0,13,,,,,,,,,,,,,,,,12,,62,48
4020,note_on,,1,0,14,,,,,,,,,,,,,,,,13,,53,48
4020,note_on,,1,0,12,,,,,,,,,,,,,,,,11,,70,48
4020,note_on,,0,0,15,,,,,,,,,,,,,,,,15,,62,48
4020,note_on,,61,0,8,,,,,,,,,,,,,,,,6,,62,48
4020,note_on,,1,0,11,,,,,,,,,,,,,,,,10,,77,48
4020,note_on,,0,0,15,,,,,,,,,,,,,,,,15,,65,48
4020,note_on,,0,0,15,,,,,,,,,,,,,,,,15,,70,48
4020,note_on,,1,0,10,,,,,,,,,,,,,,,,8,,53,48
4020,note_on,,1,0,6,,,,,,,,,,,,,,,,2,,53,48
4049,note_on,,29,0,10,,,,,,,,,,,,,,,,8,,53,0
4050,note_on,,1,0,10,,,,,,,,,,,,,,,,8,,55,48
4079,note_on,,59,0,6,,,,,,,,,,,,,,,,2,,53,0
4079,note_on,,59,0,12,,,,,,,,,,,,,,,,11,,70,0
4079,note_on,,59,0,11,,,,,,,,,,,,,,,,10,,77,0
4079,note_on,,59,0,8,,,,,,,,,,,,,,,,6,,62,0
4079,note_on,,0,0,15,,,,,,,,,,,,,,,,15,,62,0
4079,note_on,,0,0,15,,,,,,,,,,,,,,,,15,,70,0
4079,note_on,,59,0,15,,,,,,,,,,,,,,,,15,,53,0
4079,note_on,,59,0,13,,,,,,,,,,,,,,,,12,,62,0
4079,note_on,,59,0,14,,,,,,,,,,,,,,,,13,,53,0
4079,note_on,,0,0,15,,,,,,,,,,,,,,,,15,,65,0
4079,note_on,,29,0,10,,,,,,,,,,,,,,,,8,,55,0
4080,note_on,,1,0,15,,,,,,,,,,,,,,,,15,,72,48
4080,note_on,,0,0,15,,,,,,,,,,,,,,,,15,,51,48
4080,note_on,,0,0,15,,,,,,,,,,,,,,,,15,,69,48
4080,note_on,,0,0,15,,,,,,,,,,,,,,,,15,,60,48
4080,note_on,,1,0,14,,,,,,,,,,,,,,,,13,,51,48
4080,note_on,,1,0,10,,,,,,,,,,,,,,,,8,,51,48
4080,note_on,,1,0,8,,,,,,,,,,,,,,,,6,,60,48
4080,note_on,,1,0,6,,,,,,,,,,,,,,,,2,,51,48
4109,note_on,,29,0,8,,,,,,,,,,,,,,,,6,,60,0
4110,note_on,,1,0,8,,,,,,,,,,,,,,,,6,,58,48
4124,note_on,,44,0,10,,,,,,,,,,,,,,,,8,,51,0
4125,note_on,,1,0,10,,,,,,,,,,,,,,,,8,,50,48
4139,note_on,,14,0,10,,,,,,,,,,,,,,,,8,,50,0
4139,note_on,,29,0,8,,,,,,,,,,,,,,,,6,,58,0
4140,note_on,,61,0,12,,,,,,,,,,,,,,,,11,,69,48
4140,note_on,,1,0,10,,,,,,,,,,,,,,,,8,,51,48
4140,note_on,,61,0,13,,,,,,,,,,,,,,,,12,,65,48
4140,note_on,,61,0,11,,,,,,,,,,,,,,,,10,,72,48
4140,note_on,,1,0,8,,,,,,,,,,,,,,,,6,,57,48
4169,note_on,,89,0,15,,,,,,,,,,,,,,,,15,,51,0
4169,note_on,,29,0,10,,,,,,,,,,,,,,,,8,,51,0
4169,note_on,,89,0,6,,,,,,,,,,,,,,,,2,,51,0
4169,note_on,,89,0,14,,,,,,,,,,,,,,,,13,,51,0
4170,note_on,,1,0,10,,,,,,,,,,,,,,,,8,,53,48
4170,note_on,,1,0,14,,,,,,,,,,,,,,,,13,,53,48
4170,note_on,,1,0,6,,,,,,,,,,,,,,,,2,,53,48
4170,note_on,,1,0,15,,,,,,,,,,,,,,,,15,,53,48
4199,note_on,,59,0,12,,,,,,,,,,,,,,,,11,,69,0
4199,note_on,,29,0,14,,,,,,,,,,,,,,,,13,,53,0
4199,note_on,,29,0,6,,,,,,,,,,,,,,,,2,,53,0
4199,note_on,,29,0,15,,,,,,,,,,,,,,,,15,,72,0
4199,note_on,,0,0,15,,,,,,,,,,,,,,,,15,,69,0
4199,note_on,,59,0,8,,,,,,,,,,,,,,,,6,,57,0
4199,note_on,,0,0,15,,,,,,,,,,,,,,,,15,,60,0
4199,note_on,,0,0,15,,,,,,,,,,,,,,,,15,,53,0
4199,note_on,,59,0,13,,,,,,,,,,,,,,,,12,,65,0
4199,note_on,,59,0,11,,,,,,,,,,,,,,,,10,,72,0
4199,note_on,,29,0,10,,,,,,,,,,,,,,,,8,,53,0
4200,note_on,,1,0,6,,,,,,,,,,,,,,,,2,,51,48
4200,note_on,,1,0,11,,,,,,,,,,,,,,,,10,,69,48
4200,note_on,,0,0,15,,,,,,,,,,,,,,,,15,,60,48
4200,note_on,,0,0,15,,,,,,,,,,,,,,,,15,,65,48
4200,note_on,,1,0,10,,,,,,,,,,,,,,,,8,,51,48
4200,note_on,,0,0,15,,,,,,,,,,,,,,,,15,,69,48
4200,note_on,,1,0,15,,,,,,,,,,,,,,,,15,,51,48
4200,note_on,,1,0,12,,,,,,,,,,,,,,,,11,,65,48
4200,note_on,,1,0,14,,,,,,,,,,,,,,,,13,,51,48
4200,note_on,,1,0,13,,,,,,,,,,,,,,,,12,,60,48
4229,note_on,,29,0,10,,,,,,,,,,,,,,,,8,,51,0
4230,note_on,,1,0,10,,,,,,,,,,,,,,,,8,,53,48
4259,note_on,,59,0,13,,,,,,,,,,,,,,,,12,,60,0
4259,note_on,,29,0,10,,,,,,,,,,,,,,,,8,,53,0
4259,note_on,,59,0,12,,,,,,,,,,,,,,,,11,,65,0
4259,note_on,,59,0,11,,,,,,,,,,,,,,,,10,,69,0
4260,note_on,,1,0,11,,,,,,,,,,,,,,,,10,,65,48
4260,note_on,,1,0,10,,,,,,,,,,,,,,,,8,,51,48
4260,note_on,,301,0,9,,,,,,,,,,,,,,,,7,,57,48
4260,note_on,,1,0,12,,,,,,,,,,,,,,,,11,,60,48
4260,note_on,,1,0,13,,,,,,,,,,,,,,,,12,,57,48
4289,note_on,,89,0,15,,,,,,,,,,,,,,,,15,,51,0
4289,note_on,,89,0,14,,,,,,,,,,,,,,,,13,,51,0
4289,note_on,,89,0,6,,,,,,,,,,,,,,,,2,,51,0
4289,note_on,,29,0,10,,,,,,,,,,,,,,,,8,,51,0
4290,note_on,,1,0,6,,,,,,,,,,,,,,,,2,,53,48
4290,note_on,,1,0,10,,,,,,,,,,,,,,,,8,,53,48
4290,note_on,,1,0,15,,,,,,,,,,,,,,,,15,,53,48
4290,note_on,,1,0,14,,,,,,,,,,,,,,,,13,,53,48
4319,note_on,,0,0,15,,,,,,,,,,,,,,,,15,,53,0
4319,note_on,,29,0,10,,,,,,,,,,,,,,,,8,,53,0
4319,note_on,,59,0,12,,,,,,,,,,,,,,,,11,,60,0
4319,note_on,,0,0,15,,,,,,,,,,,,,,,,15,,65,0
4319,note_on,,0,0,15,,,,,,,,,,,,,,,,15,,60,0
4319,note_on,,59,0,9,,,,,,,,,,,,,,,,7,,57,0
4319,note_on,,59,0,11,,,,,,,,,,,,,,,,10,,65,0
4319,note_on,,29,0,14,,,,,,,,,,,,,,,,13,,53,0
4319,note_on,,29,0,6,,,,,,,,,,,,,,,,2,,53,0
4319,note_on,,29,0,15,,,,,,,,,,,,,,,,15,,69,0
4319,note_on,,59,0,13,,,,,,,,,,,,,,,,12,,57,0
4320,note_on,,1,0,10,,,,,,,,,,,,,,,,8,,50,48
4320,note_on,,1,0,9,,,,,,,,,,,,,,,,7,,58,48
4320,note_on,,1,0,6,,,,,,,,,,,,,,,,2,,50,48
4320,note_on,,1,0,15,,,,,,,,,,,,,,,,15,,50,48
4320,note_on,,1,0,14,,,,,,,,,,,,,,,,13,,50,48
4320,note_on,,0,0,15,,,,,,,,,,,,,,,,15,,70,48
4320,note_on,,0,0,15,,,,,,,,,,,,,,,,15,,77,48
4320,note_on,,0,0,15,,,,,,,,,,,,,,,,15,,65,48
4349,note_on,,29,0,9,,,,,,,,,,,,,,,,7,,58,0
4349,note_on,,29,0,10,,,,,,,,,,,,,,,,8,,50,0
4350,note_on,,1,0,10,,,,,,,,,,,,,,,,8,,48,48
4350,note_on,,1,0,9,,,,,,,,,,,,,,,,7,,60,48
4379,note_on,,59,0,6,,,,,,,,,,,,,,,,2,,50,0
4379,note_on,,59,0,14,,,,,,,,,,,,,,,,13,,50,0
4379,note_on,,59,0,15,,,,,,,,,,,,,,,,15,,50,0
4379,note_on,,29,0,10,,,,,,,,,,,,,,,,8,,48,0
4379,note_on,,29,0,9,,,,,,,,,,,,,,,,7,,60,0
4380,note_on,,1,0,9,,,,,,,,,,,,,,,,7,,62,48
4380,note_on,,61,0,12,,,,,,,,,,,,,,,,11,,62,48
4380,note_on,,61,0,11,,,,,,,,,,,,,,,,10,,65,48
4380,note_on,,1,0,10,,,,,,,,,,,,,,,,8,,46,48
4380,note_on,,61,0,13,,,,,,,,,,,,,,,,12,,53,48
4380,note_on,,1,0,15,,,,,,,,,,,,,,,,15,,46,48
4380,note_on,,1,0,14,,,,,,,,,,,,,,,,13,,46,48
4380,note_on,,1,0,6,,,,,,,,,,,,,,,,2,,46,48
4439,note_on,,59,0,12,,,,,,,,,,,,,,,,11,,62,0
4439,note_on,,59,0,11,,,,,,,,,,,,,,,,10,,65,0
4439,note_on,,59,0,10,,,,,,,,,,,,,,,,8,,46,0
4439,note_on,,59,0,13,,,,,,,,,,,,,,,,12,,53,0
4439,note_on,,59,0,6,,,,,,,,,,,,,,,,2,,46,0
4439,note_on,,59,0,14,,,,,,,,,,,,,,,,13,,46,0
4439,note_on,,0,0,15,,,,,,,,,,,,,,,,15,,46,0
4439,note_on,,59,0,9,,,,,,,,,,,,,,,,7,,62,0
4439,note_on,,59,0,15,,,,,,,,,,,,,,,,15,,77,0
4439,note_on,,0,0,15,,,,,,,,,,,,,,,,15,,70,0
4439,note_on,,0,0,15,,,,,,,,,,,,,,,,15,,65,0
4440,note_on,,1,0,12,,,,,,,,,,,,,,,,11,,60,48
4440,note_on,,1,0,14,,,,,,,,,,,,,,,,13,,53,48
4440,note_on,,0,0,15,,,,,,,,,,,,,,,,15,,65,48
4440,note_on,,1,0,13,,,,,,,,,,,,,,,,12,,65,48
4440,note_on,,1,0,6,,,,,,,,,,,,,,,,2,,53,48
4440,note_on,,0,0,15,,,,,,,,,,,,,,,,15,,69,48
4440,note_on,,0,0,15,,,,,,,,,,,,,,,,15,,72,48
4440,note_on,,1,0,15,,,,,,,,,,,,,,,,15,,53,48
4440,note_on,,1,0,11,,,,,,,,,,,,,,,,10,,69,48
4499,note_on,,59,0,6,,,,,,,,,,,,,,,,2,,53,0
4499,note_on,,59,0,14,,,,,,,,,,,,,,,,13,,53,0
4499,note_on,,0,0,15,,,,,,,,,,,,,,,,15,,69,0
4499,note_on,,59,0,13,,,,,,,,,,,,,,,,12,,65,0
4499,note_on,,59,0,11,,,,,,,,,,,,,,,,10,,69,0
4499,note_on,,59,0,12,,,,,,,,,,,,,,,,11,,60,0
4499,note_on,,0,0,15,,,,,,,,,,,,,,,,15,,72,0
4499,note_on,,59,0,15,,,,,,,,,,,,,,,,15,,53,0
4499,note_on,,0,0,15,,,,,,,,,,,,,,,,15,,65,0
4500,note_on,,0,0,15,,,,,,,,,,,,,,,,15,,65,48
4500,note_on,,1,0,13,,,,,,,,,,,,,,,,12,,65,48
4500,note_on,,0,0,15,,,,,,,,,,,,,,,,15,,77,48
4500,note_on,,0,0,15,,,,,,,,,,,,,,,,15,,72,48
4500,note_on,,1,0,12,,,,,,,,,,,,,,,,11,,77,48
4500,note_on,,1,0,11,,,,,,,,,,,,,,,,10,,72,48
4500,note_on,,61,0,10,,,,,,,,,,,,,,,,8,,57,48
4500,note_on,,1,0,14,,,,,,,,,,,,,,,,13,,57,48
4500,note_on,,1,0,6,,,,,,,,,,,,,,,,2,,57,48
4500,note_on,,61,0,9,,,,,,,,,,,,,,,,7,,60,48
4500,note_on,,1,0,15,,,,,,,,,,,,,,,,15,,57,48
4559,note_on,,0,0,15,,,,,,,,,,,,,,,,15,,65,0
4559,note_on,,59,0,10,,,,,,,,,,,,,,,,8,,57,0
4559,note_on,,0,0,15,,,,,,,,,,,,,,,,15,,72,0
4559,note_on,,59,0,15,,,,,,,,,,,,,,,,15,,57,0
4559,note_on,,59,0,6,,,,,,,,,,,,,,,,2,,57,0
4559,note_on,,59,0,13,,,,,,,,,,,,,,,,12,,65,0
4559,note_on,,59,0,9,,,,,,,,,,,,,,,,7,,60,0
4559,note_on,,59,0,12,,,,,,,,,,,,,,,,11,,77,0
4559,note_on,,0,0,15,,,,,,,,,,,,,,,,15,,77,0
4559,note_on,,59,0,11,,,,,,,,,,,,,,,,10,,72,0
4559,note_on,,59,0,14,,,,,,,,,,,,,,,,13,,57,0
4560,note_on,,1,0,10,,,,,,,,,,,,,,,,8,,58,48
4560,note_on,,1,0,9,,,,,,,,,,,,,,,,7,,62,48
4560,note_on,,0,0,15,,,,,,,,,,,,,,,,15,,74,48
4560,note_on,,0,0,15,,,,,,,,,,,,,,,,15,,70,48
4560,note_on,,0,0,15,,,,,,,,,,,,,,,,15,,65,48
4560,note_on,,1,0,15,,,,,,,,,,,,,,,,15,,58,48
4560,note_on,,1,0,6,,,,,,,,,,,,,,,,2,,58,48
4560,note_on,,1,0,14,,,,,,,,,,,,,,,,13,,58,48
4589,note_on,,29,0,14,,,,,,,,,,,,,,,,13,,58,0
4589,note_on,,29,0,6,,,,,,,,,,,,,,,,2,,58,0
4589,note_on,,29,0,9,,,,,,,,,,,,,,,,7,,62,0
4589,note_on,,29,0,10,,,,,,,,,,,,,,,,8,,58,0
4589,note_on,,29,0,15,,,,,,,,,,,,,,,,15,,58,0
4590,note_on,,1,0,9,,,,,,,,,,,,,,,,7,,64,48
4590,note_on,,1,0,6,,,,,,,,,,,,,,,,2,,60,48
4590,note_on,,1,0,15,,,,,,,,,,,,,,,,15,,60,48
4590,note_on,,1,0,14,,,,,,,,,,,,,,,,13,,60,48
4590,note_on,,1,0,10,,,,,,,,,,,,,,,,8,,60,48
4619,note_on,,29,0,6,,,,,,,,,,,,,,,,2,,60,0
4619,note_on,,29,0,9,,,,,,,,,,,,,,,,7,,64,0
4619,note_on,,29,0,10,,,,,,,,,,,,,,,,8,,60,0
4619,note_on,,29,0,14,,,,,,,,,,,,,,,,13,,60,0
4619,note_on,,29,0,15,,,,,,,,,,,,,,,,15,,60,0
4620,note_on,,61,0,13,,,,,,,,,,,,,,,,12,,62,72
4620,note_on,,1,0,14,,,,,,,,,,,,,,,,13,,62,48
4620,note_on,,61,0,11,,,,,,,,,,,,,,,,10,,77,48
4620,note_on,,1,0,15,,,,,,,,,,,,,,,,15,,62,48
4620,note_on,,1,0,10,,,,,,,,,,,,,,,,8,,62,48
4620,note_on,,1,0,9,,,,,,,,,,,,,,,,7,,65,48
4620,note_on,,1,0,6,,,,,,,,,,,,,,,,2,,62,48
4620,note_on,,61,0,12,,,,,,,,,,,,,,,,11,,70,72
4679,note_on,,59,0,12,,,,,,,,,,,,,,,,11,,70,0
4679,note_on,,59,0,15,,,,,,,,,,,,,,,,15,,62,0
4679,note_on,,59,0,6,,,,,,,,,,,,,,,,2,,62,0
4679,note_on,,59,0,9,,,,,,,,,,,,,,,,7,,65,0
4679,note_on,,59,0,13,,,,,,,,,,,,,,,,12,,62,0
4679,note_on,,59,0,14,,,,,,,,,,,,,,,,13,,62,0
4679,note_on,,59,0,10,,,,,,,,,,,,,,,,8,,62,0
4679,note_on,,59,0,11,,,,,,,,,,,,,,,,10,,77,0
4680,note_on,,1,0,6,,,,,,,,,,,,,,,,2,,58,48
4680,note_on,,1,0,12,,,,,,,,,,,,,,,,11,,65,72
4680,note_on,,1,0,13,,,,,,,,,,,,,,,,12,,62,72
4680,note_on,,1,0,14,,,,,,,,,,,,,,,,13,,58,48
4680,note_on,,1,0,15,,,,,,,,,,,,,,,,15,,58,48
4680,note_on,,1,0,11,,,,,,,,,,,,,,,,10,,74,48
4709,note_on,,29,0,11,,,,,,,,,,,,,,,,10,,74,0
4710,note_on,,1,0,11,,,,,,,,,,,,,,,,10,,76,48
4739,note_on,,59,0,14,,,,,,,,,,,,,,,,13,,58,0
4739,note_on,,0,0,15,,,,,,,,,,,,,,,,15,,65,0
4739,note_on,,0,0,15,,,,,,,,,,,,,,,,15,,58,0
4739,note_on,,59,0,6,,,,,,,,,,,,,,,,2,,58,0
4739,note_on,,59,0,12,,,,,,,,,,,,,,,,11,,65,0
4739,note_on,,0,0,15,,,,,,,,,,,,,,,,15,,70,0
4739,note_on,,59,0,15,,,,,,,,,,,,,,,,15,,74,0
4739,note_on,,59,0,13,,,,,,,,,,,,,,,,12,,62,0
4739,note_on,,29,0,11,,,,,,,,,,,,,,,,10,,76,0
4740,note_on,,1,0,12,,,,,,,,,,,,,,,,11,,72,72
4740,note_on,,0,0,15,,,,,,,,,,,,,,,,15,,72,72
4740,note_on,,1,0,13,,,,,,,,,,,,,,,,12,,57,72
4740,note_on,,1,0,15,,,,,,,,,,,,,,,,15,,57,72
4740,note_on,,0,0,15,,,,,,,,,,,,,,,,15,,65,72
4740,note_on,,1,0,11,,,,,,,,,,,,,,,,10,,77,48
4740,note_on,,541,0,8,,,,,,,,,,,,,,,,6,,65,72
4740,note_on,,1,0,14,,,,,,,,,,,,,,,,13,,57,72
4740,note_on,,61,0,9,,,,,,,,,,,,,,,,7,,60,72
4740,note_on,,1,0,6,,,,,,,,,,,,,,,,2,,57,72
4740,note_on,,61,0,10,,,,,,,,,,,,,,,,8,,57,72
4799,note_on,,59,0,14,,,,,,,,,,,,,,,,13,,57,0
4799,note_on,,59,0,11,,,,,,,,,,,,,,,,10,,77,0
4799,note_on,,59,0,12,,,,,,,,,,,,,,,,11,,72,0
4799,note_on,,59,0,6,,,,,,,,,,,,,,,,2,,57,0
4799,note_on,,59,0,9,,,,,,,,,,,,,,,,7,,60,0
4799,note_on,,59,0,13,,,,,,,,,,,,,,,,12,,57,0
4799,note_on,,59,0,15,,,,,,,,,,,,,,,,15,,57,0
4799,note_on,,0,0,15,,,,,,,,,,,,,,,,15,,72,0
4799,note_on,,59,0,8,,,,,,,,,,,,,,,,6,,65,0
4799,note_on,,0,0,15,,,,,,,,,,,,,,,,15,,65,0
4799,note_on,,59,0,10,,,,,,,,,,,,,,,,8,,57,0
4800,note_on,,1,0,6,,,,,,,,,,,,,,,,2,,55,72
4800,note_on,,1,0,8,,,,,,,,,,,,,,,,6,,64,72
4800,note_on,,1,0,15,,,,,,,,,,,,,,,,15,,55,72
4800,note_on,,0,0,15,,,,,,,,,,,,,,,,15,,70,72
4800,note_on,,0,0,15,,,,,,,,,,,,,,,,15,,64,72
4800,note_on,,1,0,9,,,,,,,,,,,,,,,,7,,58,72
4800,note_on,,0,0,15,,,,,,,,,,,,,,,,15,,58,72
4800,note_on,,1,0,10,,,,,,,,,,,,,,,,8,,55,72
4800,note_on,,1,0,12,,,,,,,,,,,,,,,,11,,74,72
4800,note_on,,1,0,11,,,,,,,,,,,,,,,,10,,76,48
4800,note_on,,1,0,14,,,,,,,,,,,,,,,,13,,55,72
4800,note_on,,1,0,13,,,,,,,,,,,,,,,,12,,58,72
4859,note_on,,59,0,12,,,,,,,,,,,,,,,,11,,74,0
4859,note_on,,59,0,11,,,,,,,,,,,,,,,,10,,76,0
4859,note_on,,0,0,15,,,,,,,,,,,,,,,,15,,58,0
4859,note_on,,59,0,10,,,,,,,,,,,,,,,,8,,55,0
4859,note_on,,0,0,15,,,,,,,,,,,,,,,,15,,64,0
4859,note_on,,0,0,15,,,,,,,,,,,,,,,,15,,70,0
4859,note_on,,59,0,13,,,,,,,,,,,,,,,,12,,58,0
4859,note_on,,59,0,6,,,,,,,,,,,,,,,,2,,55,0
4859,note_on,,59,0,14,,,,,,,,,,,,,,,,13,,55,0
4859,note_on,,59,0,15,,,,,,,,,,,,,,,,15,,55,0
4859,note_on,,59,0,8,,,,,,,,,,,,,,,,6,,64,0
4859,note_on,,59,0,9,,,,,,,,,,,,,,,,7,,58,0
4860,note_on,,0,0,15,,,,,,,,,,,,,,,,15,,65,72
4860,note_on,,0,0,15,,,,,,,,,,,,,,,,15,,69,72
4860,note_on,,1,0,12,,,,,,,,,,,,,,,,11,,72,72
4860,note_on,,1,0,9,,,,,,,,,,,,,,,,7,,57,72
4860,note_on,,1,0,14,,,,,,,,,,,,,,,,13,,53,72
4860,note_on,,1,0,11,,,,,,,,,,,,,,,,10,,77,48
4860,note_on,,1,0,15,,,,,,,,,,,,,,,,15,,53,72
4860,note_on,,1,0,6,,,,,,,,,,,,,,,,2,,53,72
4860,note_on,,1,0,10,,,,,,,,,,,,,,,,8,,53,72
4860,note_on,,1,0,8,,,,,,,,,,,,,,,,6,,65,72
4860,note_on,,1,0,13,,,,,,,,,,,,,,,,12,,60,72
4860,note_on,,0,0,15,,,,,,,,,,,,,,,,15,,60,72
4889,note_on,,29,0,8,,,,,,,,,,,,,,,,6,,65,0
4889,note_on,,29,0,12,,,,,,,,,,,,,,,,11,,72,0
4889,note_on,,29,0,11,,,,,,,,,,,,,,,,10,,77,0
4889,note_on,,29,0,9,,,,,,,,,,,,,,,,7,,57,0
4890,note_on,,1,0,12,,,,,,,,,,,,,,,,11,,74,72
4890,note_on,,1,0,11,,,,,,,,,,,,,,,,10,,79,48
4890,note_on,,1,0,8,,,,,,,,,,,,,,,,6,,67,72
4890,note_on,,1,0,9,,,,,,,,,,,,,,,,7,,58,72
4919,note_on,,59,0,15,,,,,,,,,,,,,,,,15,,53,0
4919,note_on,,59,0,13,,,,,,,,,,,,,,,,12,,60,0
4919,note_on,,59,0,6,,,,,,,,,,,,,,,,2,,53,0
4919,note_on,,29,0,9,,,,,,,,,,,,,,,,7,,58,0
4919,note_on,,59,0,14,,,,,,,,,,,,,,,,13,,53,0
4919,note_on,,29,0,8,,,,,,,,,,,,,,,,6,,67,0
4919,note_on,,29,0,12,,,,,,,,,,,,,,,,11,,74,0
4919,note_on,,0,0,15,,,,,,,,,,,,,,,,15,,60,0
4919,note_on,,0,0,15,,,,,,,,,,,,,,,,15,,65,0
4919,note_on,,0,0,15,,,,,,,,,,,,,,,,15,,69,0
4919,note_on,,29,0,11,,,,,,,,,,,,,,,,10,,79,0
4919,note_on,,59,0,10,,,,,,,,,,,,,,,,8,,53,0
4920,note_on,,1,0,8,,,,,,,,,,,,,,,,6,,64,72
4920,note_on,,0,0,15,,,,,,,,,,,,,,,,15,,60,72
4920,note_on,,1,0,15,,,,,,,,,,,,,,,,15,,48,72
4920,note_on,,1,0,6,,,,,,,,,,,,,,,,2,,48,72
4920,note_on,,0,0,15,,,,,,,,,,,,,,,,15,,64,72
4920,note_on,,1,0,9,,,,,,,,,,,,,,,,7,,55,72
4920,note_on,,0,0,15,,,,,,,,,,,,,,,,15,,67,72
4920,note_on,,1,0,13,,,,,,,,,,,,,,,,12,,60,72
4920,note_on,,1,0,14,,,,,,,,,,,,,,,,13,,48,72
4920,note_on,,1,0,12,,,,,,,,,,,,,,,,11,,67,72
4920,note_on,,1,0,10,,,,,,,,,,,,,,,,8,,48,72
4920,note_on,,1,0,11,,,,,,,,,,,,,,,,10,,76,72
4934,note_on,,14,0,11,,,,,,,,,,,,,,,,10,,76,0
4935,note_on,,1,0,11,,,,,,,,,,,,,,,,10,,77,72
4949,note_on,,14,0,11,,,,,,,,,,,,,,,,10,,77,0
4950,note_on,,1,0,11,,,,,,,,,,,,,,,,10,,76,72
4964,note_on,,14,0,11,,,,,,,,,,,,,,,,10,,76,0
4965,note_on,,1,0,11,,,,,,,,,,,,,,,,10,,77,72
4979,note_on,,59,0,6,,,,,,,,,,,,,,,,2,,48,0
4979,note_on,,14,0,11,,,,,,,,,,,,,,,,10,,77,0
4979,note_on,,59,0,15,,,,,,,,,,,,,,,,15,,48,0
4979,note_on,,0,0,15,,,,,,,,,,,,,,,,15,,67,0
4979,note_on,,0,0,15,,,,,,,,,,,,,,,,15,,64,0
4979,note_on,,0,0,15,,,,,,,,,,,,,,,,15,,60,0
4979,note_on,,59,0,14,,,,,,,,,,,,,,,,13,,48,0
4979,note_on,,59,0,13,,,,,,,,,,,,,,,,12,,60,0
4979,note_on,,59,0,12,,,,,,,,,,,,,,,,11,,67,0
4980,note_on,,0,0,15,,,,,,,,,,,,,,,,15,,72,72
4980,note_on,,1,0,11,,,,,,,,,,,,,,,,10,,74,72
4980,note_on,,1,0,6,,,,,,,,,,,,,,,,2,,39,72
4980,note_on,,1,0,14,,,,,,,,,,,,,,,,13,,39,72
4980,note_on,,1,0,15,,,,,,,,,,,,,,,,15,,39,72
4980,note_on,,2701,0,5,,,,,,,,,,,,,,,,0,,70,64
4980,note_on,,1,0,13,,,,,,,,,,,,,,,,12,,67,72
4980,note_on,,2701,0,7,,,,,,,,,,,,,,,,5,,70,64
4980,note_on,,0,0,15,,,,,,,,,,,,,,,,15,,64,72
4980,note_on,,0,0,15,,,,,,,,,,,,,,,,15,,67,72
4980,note_on,,1,0,12,,,,,,,,,,,,,,,,11,,60,72
4994,note_on,,14,0,11,,,,,,,,,,,,,,,,10,,74,0
4995,note_on,,1,0,11,,,,,,,,,,,,,,,,10,,76,72
5009,note_on,,89,0,9,,,,,,,,,,,,,,,,7,,55,0
5009,note_on,,89,0,10,,,,,,,,,,,,,,,,8,,48,0
5009,note_on,,89,0,8,,,,,,,,,,,,,,,,6,,64,0
5009,note_on,,14,0,11,,,,,,,,,,,,,,,,10,,76,0
5010,note_on,,1,0,8,,,,,,,,,,,,,,,,6,,65,72
5010,note_on,,1,0,10,,,,,,,,,,,,,,,,8,,48,72
5010,note_on,,1,0,9,,,,,,,,,,,,,,,,7,,53,72
5010,note_on,,1,0,11,,,,,,,,,,,,,,,,10,,77,72
5039,note_on,,29,0,11,,,,,,,,,,,,,,,,10,,77,0
5039,note_on,,29,0,8,,,,,,,,,,,,,,,,6,,65,0
5039,note_on,,29,0,10,,,,,,,,,,,,,,,,8,,48,0
5039,note_on,,59,0,12,,,,,,,,,,,,,,,,11,,60,0
5039,note_on,,59,0,5,,,,,,,,,,,,,,,,0,,70,0
5039,note_on,,29,0,9,,,,,,,,,,,,,,,,7,,53,0
5039,note_on,,59,0,13,,,,,,,,,,,,,,,,12,,67,0
5039,note_on,,59,0,14,,,,,,,,,,,,,,,,13,,39,0
5039,note_on,,0,0,15,,,,,,,,,,,,,,,,15,,67,0
5039,note_on,,0,0,15,,,,,,,,,,,,,,,,15,,72,0
5039,note_on,,59,0,15,,,,,,,,,,,,,,,,15,,39,0
5039,note_on,,59,0,7,,,,,,,,,,,,,,,,5,,70,0
5039,note_on,,59,0,6,,,,,,,,,,,,,,,,2,,39,0
5039,note_on,,0,0,15,,,,,,,,,,,,,,,,15,,64,0
5040,note_on,,1,0,12,,,,,,,,,,,,,,,,11,,72,72
5040,note_on,,0,0,15,,,,,,,,,,,,,,,,15,,69,72
5040,note_on,,0,0,15,,,,,,,,,,,,,,,,15,,65,72
5040,note_on,,1,0,8,,,,,,,,,,,,,,,,6,,65,72
5040,note_on,,1,0,13,,,,,,,,,,,,,,,,12,,69,72
5040,note_on,,1,0,5,,,,,,,,,,,,,,,,0,,69,64
5040,note_on,,1,0,9,,,,,,,,,,,,,,,,7,,53,72
5040,note_on,,1,0,15,,,,,,,,,,,,,,,,15,,41,72
5040,note_on,,1,0,6,,,,,,,,,,,,,,,,2,,41,72
5040,note_on,,1,0,10,,,,,,,,,,,,,,,,8,,53,72
5040,note_on,,1,0,7,,,,,,,,,,,,,,,,5,,69,64
5040,note_on,,0,0,15,,,,,,,,,,,,,,,,15,,60,72
5040,note_on,,1,0,14,,,,,,,,,,,,,,,,13,,41,72
5040,note_on,,1,0,11,,,,,,,,,,,,,,,,10,,77,72
5069,note_on,,29,0,7,,,,,,,,,,,,,,,,5,,69,0
5069,note_on,,29,0,5,,,,,,,,,,,,,,,,0,,69,0
5070,note_on,,1,0,7,,,,,,,,,,,,,,,,5,,67,64
5070,note_on,,1,0,5,,,,,,,,,,,,,,,,0,,67,64
5099,note_on,,29,0,5,,,,,,,,,,,,,,,,0,,67,0
5099,note_on,,59,0,15,,,,,,,,,,,,,,,,15,,41,0
5099,note_on,,29,0,7,,,,,,,,,,,,,,,,5,,67,0
5099,note_on,,59,0,14,,,,,,,,,,,,,,,,13,,41,0
5099,note_on,,59,0,6,,,,,,,,,,,,,,,,2,,41,0
5100,note_on,,1,0,7,,,,,,,,,,,,,,,,5,,65,64
5100,note_on,,1,0,5,,,,,,,,,,,,,,,,0,,65,64
5100,note_on,,1,0,6,,,,,,,,,,,,,,,,2,,57,72
5100,note_on,,1,0,14,,,,,,,,,,,,,,,,13,,57,72
5100,note_on,,60,0,13,,,,,,,,,,,,,,,,12,,60,72
5100,note_on,,60,0,11,,,,,,,,,,,,,,,,10,,72,72
5100,note_on,,1,0,15,,,,,,,,,,,,,,,,15,,57,72
5100,note_on,,60,0,12,,,,,,,,,,,,,,,,11,,65,72
5159,note_on,,0,0,12,,,,,,,,,,,,,,,,11,,65,0
5159,note_on,,119,0,9,,,,,,,,,,,,,,,,7,,53,0
5159,note_on,,59,0,6,,,,,,,,,,,,,,,,2,,57,0
5159,note_on,,59,0,11,,,,,,,,,,,,,,,,10,,77,0
5159,note_on,,0,0,13,,,,,,,,,,,,,,,,12,,60,0
5159,note_on,,59,0,12,,,,,,,,,,,,,,,,11,,72,0
5159,note_on,,59,0,15,,,,,,,,,,,,,,,,15,,69,0
5159,note_on,,119,0,8,,,,,,,,,,,,,,,,6,,65,0
5159,note_on,,59,0,14,,,,,,,,,,,,,,,,13,,57,0
5159,note_on,,0,0,15,,,,,,,,,,,,,,,,15,,60,0
5159,note_on,,0,0,15,,,,,,,,,,,,,,,,15,,65,0
5159,note_on,,59,0,13,,,,,,,,,,,,,,,,12,,69,0
5159,note_on,,0,0,15,,,,,,,,,,,,,,,,15,,57,0
5159,note_on,,0,0,11,,,,,,,,,,,,,,,,10,,72,0
5159,note_on,,119,0,10,,,,,,,,,,,,,,,,8,,53,0
5160,note_on,,1,0,11,,,,,,,,,,,,,,,,10,,65,72
5160,note_on,,1,0,15,,,,,,,,,,,,,,,,15,,58,72
5160,note_on,,0,0,15,,,,,,,,,,,,,,,,15,,65,72
5160,note_on,,1,0,14,,,,,,,,,,,,,,,,13,,58,72
5160,note_on,,1,0,13,,,,,,,,,,,,,,,,12,,58,72
5160,note_on,,0,0,15,,,,,,,,,,,,,,,,15,,62,72
5160,note_on,,1,0,6,,,,,,,,,,,,,,,,2,,58,72
5160,note_on,,1,0,12,,,,,,,,,,,,,,,,11,,62,72
5219,note_on,,119,0,5,,,,,,,,,,,,,,,,0,,65,0
5219,note_on,,0,0,15,,,,,,,,,,,,,,,,15,,62,0
5219,note_on,,119,0,7,,,,,,,,,,,,,,,,5,,65,0
5219,note_on,,0,0,15,,,,,,,,,,,,,,,,15,,65,0
5219,note_on,,59,0,15,,,,,,,,,,,,,,,,15,,58,0
5219,note_on,,59,0,14,,,,,,,,,,,,,,,,13,,58,0
5219,note_on,,59,0,6,,,,,,,,,,,,,,,,2,,58,0
5220,note_on,,0,0,15,,,,,,,,,,,,,,,,15,,70,72
5220,note_on,,1,0,5,,,,,,,,,,,,,,,,0,,74,64
5220,note_on,,1,0,14,,,,,,,,,,,,,,,,13,,46,72
5220,note_on,,0,0,15,,,,,,,,,,,,,,,,15,,62,72
5220,note_on,,0,0,15,,,,,,,,,,,,,,,,15,,65,72
5220,note_on,,61,0,9,,,,,,,,,,,,,,,,7,,58,72
5220,note_on,,1,0,15,,,,,,,,,,,,,,,,15,,46,72
5220,note_on,,1,0,7,,,,,,,,,,,,,,,,5,,74,64
5220,note_on,,1,0,6,,,,,,,,,,,,,,,,2,,46,72
5279,note_on,,119,0,11,,,,,,,,,,,,,,,,10,,65,0
5279,note_on,,59,0,9,,,,,,,,,,,,,,,,7,,58,0
5279,note_on,,59,0,6,,,,,,,,,,,,,,,,2,,46,0
5279,note_on,,59,0,5,,,,,,,,,,,,,,,,0,,74,0
5279,note_on,,59,0,7,,,,,,,,,,,,,,,,5,,74,0
5279,note_on,,0,0,15,,,,,,,,,,,,,,,,15,,62,0
5279,note_on,,119,0,13,,,,,,,,,,,,,,,,12,,58,0
5279,note_on,,119,0,12,,,,,,,,,,,,,,,,11,,62,0
5279,note_on,,0,0,15,,,,,,,,,,,,,,,,15,,70,0
5279,note_on,,59,0,15,,,,,,,,,,,,,,,,15,,46,0
5279,note_on,,0,0,15,,,,,,,,,,,,,,,,15,,65,0
5279,note_on,,59,0,14,,,,,,,,,,,,,,,,13,,46,0
5280,note_on,,1,0,14,,,,,,,,,,,,,,,,13,,41,72
5280,note_on,,1,0,6,,,,,,,,,,,,,,,,2,,41,72
5280,note_on,,0,0,15,,,,,,,,,,,,,,,,15,,72,72
5280,note_on,,0,0,15,,,,,,,,,,,,,,,,15,,65,72
5280,note_on,,1,0,9,,,,,,,,,,,,,,,,7,,57,72
5280,note_on,,1,0,5,,,,,,,,,,,,,,,,0,,72,64
5280,note_on,,1,0,15,,,,,,,,,,,,,,,,15,,41,72
5280,note_on,,0,0,15,,,,,,,,,,,,,,,,15,,69,72
5280,note_on,,1,0,7,,,,,,,,,,,,,,,,5,,72,64
5309,note_on,,29,0,5,,,,,,,,,,,,,,,,0,,72,0
5309,note_on,,29,0,7,,,,,,,,,,,,,,,,5,,72,0
5309,note_on,,29,0,9,,,,,,,,,,,,,,,,7,,57,0
5310,note_on,,1,0,9,,,,,,,,,,,,,,,,7,,55,72
5310,note_on,,1,0,7,,,,,,,,,,,,,,,,5,,70,64
5310,note_on,,1,0,5,,,,,,,,,,,,,,,,0,,70,64
5339,note_on,,59,0,15,,,,,,,,,,,,,,,,15,,41,0
5339,note_on,,59,0,14,,,,,,,,,,,,,,,,13,,41,0
5339,note_on,,29,0,5,,,,,,,,,,,,,,,,0,,70,0
5339,note_on,,29,0,7,,,,,,,,,,,,,,,,5,,70,0
5339,note_on,,29,0,9,,,,,,,,,,,,,,,,7,,55,0
5339,note_on,,59,0,6,,,,,,,,,,,,,,,,2,,41,0
5340,note_on,,61,0,13,,,,,,,,,,,,,,,,12,,69,48
5340,note_on,,1,0,15,,,,,,,,,,,,,,,,15,,53,48
5340,note_on,,1,0,9,,,,,,,,,,,,,,,,7,,53,72
5340,note_on,,61,0,11,,,,,,,,,,,,,,,,10,,77,48
5340,note_on,,1,0,14,,,,,,,,,,,,,,,,13,,53,48
5340,note_on,,61,0,12,,,,,,,,,,,,,,,,11,,72,48
5340,note_on,,1,0,5,,,,,,,,,,,,,,,,0,,69,64
5340,note_on,,1,0,6,,,,,,,,,,,,,,,,2,,53,48
5340,note_on,,1,0,7,,,,,,,,,,,,,,,,5,,69,64
5399,note_on,,59,0,12,,,,,,,,,,,,,,,,11,,72,0
5399,note_on,,59,0,11,,,,,,,,,,,,,,,,10,,77,0
5399,note_on,,59,0,6,,,,,,,,,,,,,,,,2,,53,0
5399,note_on,,59,0,7,,,,,,,,,,,,,,,,5,,69,0
5399,note_on,,59,0,5,,,,,,,,,,,,,,,,0,,69,0
5399,note_on,,59,0,15,,,,,,,,,,,,,,,,15,,53,0
5399,note_on,,59,0,9,,,,,,,,,,,,,,,,7,,53,0
5399,note_on,,59,0,14,,,,,,,,,,,,,,,,13,,53,0
5399,note_on,,59,0,13,,,,,,,,,,,,,,,,12,,69,0
5400,note_on,,1,0,12,,,,,,,,,,,,,,,,11,,65,48
5400,note_on,,1,0,11,,,,,,,,,,,,,,,,10,,72,48
5400,note_on,,1,0,14,,,,,,,,,,,,,,,,13,,57,48
5400,note_on,,1,0,13,,,,,,,,,,,,,,,,12,,65,48
5400,note_on,,1,0,6,,,,,,,,,,,,,,,,2,,57,48
5400,note_on,,1,0,15,,,,,,,,,,,,,,,,15,,57,48
5459,note_on,,59,0,12,,,,,,,,,,,,,,,,11,,65,0
5459,note_on,,0,0,15,,,,,,,,,,,,,,,,15,,57,0
5459,note_on,,0,0,15,,,,,,,,,,,,,,,,15,,65,0
5459,note_on,,0,0,15,,,,,,,,,,,,,,,,15,,69,0
5459,note_on,,59,0,11,,,,,,,,,,,,,,,,10,,72,0
5459,note_on,,59,0,15,,,,,,,,,,,,,,,,15,,72,0
5459,note_on,,59,0,14,,,,,,,,,,,,,,,,13,,57,0
5459,note_on,,59,0,6,,,,,,,,,,,,,,,,2,,57,0
5459,note_on,,59,0,13,,,,,,,,,,,,,,,,12,,65,0
5460,note_on,,1,0,13,,,,,,,,,,,,,,,,12,,65,48
5460,note_on,,0,0,15,,,,,,,,,,,,,,,,15,,65,48
5460,note_on,,1,0,14,,,,,,,,,,,,,,,,13,,53,48
5460,note_on,,0,0,15,,,,,,,,,,,,,,,,15,,69,48
5460,note_on,,1,0,11,,,,,,,,,,,,,,,,10,,69,48
5460,note_on,,61,0,5,,,,,,,,,,,,,,,,0,,72,48
5460,note_on,,1,0,12,,,,,,,,,,,,,,,,11,,72,48
5460,note_on,,61,0,7,,,,,,,,,,,,,,,,5,,72,48
5460,note_on,,1,0,15,,,,,,,,,,,,,,,,15,,53,48
5460,note_on,,1,0,6,,,,,,,,,,,,,,,,2,,53,48
5519,note_on,,0,0,15,,,,,,,,,,,,,,,,15,,69,0
5519,note_on,,59,0,15,,,,,,,,,,,,,,,,15,,53,0
5519,note_on,,59,0,5,,,,,,,,,,,,,,,,0,,72,0
5519,note_on,,0,0,15,,,,,,,,,,,,,,,,15,,65,0
5519,note_on,,59,0,6,,,,,,,,,,,,,,,,2,,53,0
5519,note_on,,59,0,13,,,,,,,,,,,,,,,,12,,65,0
5519,note_on,,59,0,7,,,,,,,,,,,,,,,,5,,72,0
5519,note_on,,59,0,12,,,,,,,,,,,,,,,,11,,72,0
5519,note_on,,59,0,11,,,,,,,,,,,,,,,,10,,69,0
5519,note_on,,59,0,14,,,,,,,,,,,,,,,,13,,53,0
5520,note_on,,1,0,14,,,,,,,,,,,,,,,,13,,58,48
5520,note_on,,1,0,15,,,,,,,,,,,,,,,,15,,58,48
5520,note_on,,0,0,15,,,,,,,,,,,,,,,,15,,70,48
5520,note_on,,1,0,5,,,,,,,,,,,,,,,,0,,74,48
5520,note_on,,1,0,7,,,,,,,,,,,,,,,,5,,74,48
5520,note_on,,1,0,6,,,,,,,,,,,,,,,,2,,58,48
5520,note_on,,0,0,15,,,,,,,,,,,,,,,,15,,62,48
5520,note_on,,0,0,15,,,,,,,,,,,,,,,,15,,65,48
5549,note_on,,29,0,5,,,,,,,,,,,,,,,,0,,74,0
5549,note_on,,29,0,7,,,,,,,,,,,,,,,,5,,74,0
5550,note_on,,1,0,5,,,,,,,,,,,,,,,,0,,76,48
5550,note_on,,1,0,7,,,,,,,,,,,,,,,,5,,76,48
5579,note_on,,0,0,15,,,,,,,,,,,,,,,,15,,62,0
5579,note_on,,59,0,6,,,,,,,,,,,,,,,,2,,58,0
5579,note_on,,0,0,15,,,,,,,,,,,,,,,,15,,70,0
5579,note_on,,59,0,14,,,,,,,,,,,,,,,,13,,58,0
5579,note_on,,59,0,15,,,,,,,,,,,,,,,,15,,58,0
5579,note_on,,29,0,5,,,,,,,,,,,,,,,,0,,76,0
5579,note_on,,29,0,7,,,,,,,,,,,,,,,,5,,76,0
5579,note_on,,0,0,15,,,,,,,,,,,,,,,,15,,65,0
5580,note_on,,1,0,15,,,,,,,,,,,,,,,,15,,57,48
5580,note_on,,0,0,15,,,,,,,,,,,,,,,,15,,60,48
5580,note_on,,1,0,7,,,,,,,,,,,,,,,,5,,77,48
5580,note_on,,1,0,5,,,,,,,,,,,,,,,,0,,77,48
5580,note_on,,0,0,15,,,,,,,,,,,,,,,,15,,65,48
5580,note_on,,1,0,14,,,,,,,,,,,,,,,,13,,57,48
5580,note_on,,61,0,11,,,,,,,,,,,,,,,,10,,72,40
5580,note_on,,61,0,12,,,,,,,,,,,,,,,,11,,65,40
5580,note_on,,61,0,13,,,,,,,,,,,,,,,,12,,65,40
5580,note_on,,1,0,6,,,,,,,,,,,,,,,,2,,57,48
5580,note_on,,0,0,15,,,,,,,,,,,,,,,,15,,72,48
5639,note_on,,59,0,5,,,,,,,,,,,,,,,,0,,77,0
5639,note_on,,59,0,13,,,,,,,,,,,,,,,,12,,65,0
5639,note_on,,59,0,11,,,,,,,,,,,,,,,,10,,72,0
5639,note_on,,0,0,15,,,,,,,,,,,,,,,,15,,65,0
5639,note_on,,0,0,15,,,,,,,,,,,,,,,,15,,72,0
5639,note_on,,59,0,7,,,,,,,,,,,,,,,,5,,77,0
5639,note_on,,59,0,6,,,,,,,,,,,,,,,,2,,57,0
5639,note_on,,59,0,14,,,,,,,,,,,,,,,,13,,57,0
5639,note_on,,59,0,12,,,,,,,,,,,,,,,,11,,65,0
5639,note_on,,59,0,15,,,,,,,,,,,,,,,,15,,57,0
5639,note_on,,0,0,15,,,,,,,,,,,,,,,,15,,60,0
5640,note_on,,1,0,11,,,,,,,,,,,,,,,,10,,77,40
5640,note_on,,1,0,13,,,,,,,,,,,,,,,,12,,72,40
5640,note_on,,1,0,12,,,,,,,,,,,,,,,,11,,69,40
5699,note_on,,59,0,11,,,,,,,,,,,,,,,,10,,77,0
5699,note_on,,59,0,12,,,,,,,,,,,,,,,,11,,69,0
5699,note_on,,59,0,13,,,,,,,,,,,,,,,,12,,72,0
5700,note_on,,1,0,13,,,,,,,,,,,,,,,,12,,65,40
5700,note_on,,61,0,6,,,,,,,,,,,,,,,,2,,57,48
5700,note_on,,0,0,15,,,,,,,,,,,,,,,,15,,60,48
5700,note_on,,61,0,14,,,,,,,,,,,,,,,,13,,57,48
5700,note_on,,1,0,11,,,,,,,,,,,,,,,,10,,65,40
5700,note_on,,0,0,15,,,,,,,,,,,,,,,,15,,65,48
5700,note_on,,1,0,12,,,,,,,,,,,,,,,,11,,72,40
5700,note_on,,61,0,5,,,,,,,,,,,,,,,,0,,72,48
5700,note_on,,61,0,15,,,,,,,,,,,,,,,,15,,57,48
5700,note_on,,61,0,7,,,,,,,,,,,,,,,,5,,72,48
5759,note_on,,59,0,5,,,,,,,,,,,,,,,,0,,72,0
5759,note_on,,59,0,13,,,,,,,,,,,,,,,,12,,65,0
5759,note_on,,59,0,12,,,,,,,,,,,,,,,,11,,72,0
5759,note_on,,59,0,7,,,,,,,,,,,,,,,,5,,72,0
5759,note_on,,59,0,14,,,,,,,,,,,,,,,,13,,57,0
5759,note_on,,59,0,11,,,,,,,,,,,,,,,,10,,65,0
5759,note_on,,59,0,15,,,,,,,,,,,,,,,,15,,57,0
5759,note_on,,0,0,15,,,,,,,,,,,,,,,,15,,65,0
5759,note_on,,0,0,15,,,,,,,,,,,,,,,,15,,60,0
5759,note_on,,59,0,6,,,,,,,,,,,,,,,,2,,57,0
5760,note_on,,1,0,7,,,,,,,,,,,,,,,,5,,70,48
5760,note_on,,0,0,15,,,,,,,,,,,,,,,,15,,67,48
5760,note_on,,1,0,14,,,,,,,,,,,,,,,,13,,55,48
5760,note_on,,1,0,15,,,,,,,,,,,,,,,,15,,55,48
5760,note_on,,1,0,12,,,,,,,,,,,,,,,,11,,76,40
5760,note_on,,0,0,15,,,,,,,,,,,,,,,,15,,64,48
5760,note_on,,0,0,15,,,,,,,,,,,,,,,,15,,58,48
5760,note_on,,1,0,6,,,,,,,,,,,,,,,,2,,55,48
5760,note_on,,1,0,5,,,,,,,,,,,,,,,,0,,70,48
5760,note_on,,1,0,11,,,,,,,,,,,,,,,,10,,70,40
5760,note_on,,1,0,13,,,,,,,,,,,,,,,,12,,67,40
5819,note_on,,59,0,11,,,,,,,,,,,,,,,,10,,70,0
5819,note_on,,59,0,12,,,,,,,,,,,,,,,,11,,76,0
5819,note_on,,59,0,13,,,,,,,,,,,,,,,,12,,67,0
5819,note_on,,59,0,15,,,,,,,,,,,,,,,,15,,55,0
5819,note_on,,0,0,15,,,,,,,,,,,,,,,,15,,67,0
5819,note_on,,0,0,15,,,,,,,,,,,,,,,,15,,64,0
5819,note_on,,0,0,15,,,,,,,,,,,,,,,,15,,58,0
5819,note_on,,59,0,6,,,,,,,,,,,,,,,,2,,55,0
5819,note_on,,59,0,5,,,,,,,,,,,,,,,,0,,70,0
5819,note_on,,59,0,7,,,,,,,,,,,,,,,,5,,70,0
5819,note_on,,59,0,14,,,,,,,,,,,,,,,,13,,55,0
5820,note_on,,1,0,12,,,,,,,,,,,,,,,,11,,77,40
5820,note_on,,1,0,6,,,,,,,,,,,,,,,,2,,53,48
5820,note_on,,1,0,7,,,,,,,,,,,,,,,,5,,69,48
5820,note_on,,1,0,13,,,,,,,,,,,,,,,,12,,69,40
5820,note_on,,1,0,11,,,,,,,,,,,,,,,,10,,72,40
5820,note_on,,0,0,15,,,,,,,,,,,,,,,,15,,60,48
5820,note_on,,0,0,15,,,,,,,,,,,,,,,,15,,65,48
5820,note_on,,0,0,15,,,,,,,,,,,,,,,,15,,69,48
5820,note_on,,1,0,15,,,,,,,,,,,,,,,,15,,53,48
5820,note_on,,1,0,5,,,,,,,,,,,,,,,,0,,69,48
5820,note_on,,1,0,14,,,,,,,,,,,,,,,,13,,53,48
5849,note_on,,29,0,7,,,,,,,,,,,,,,,,5,,69,0
5849,note_on,,29,0,5,,,,,,,,,,,,,,,,0,,69,0
5850,note_on,,1,0,7,,,,,,,,,,,,,,,,5,,67,48
5850,note_on,,1,0,5,,,,,,,,,,,,,,,,0,,67,48
5879,note_on,,29,0,5,,,,,,,,,,,,,,,,0,,67,0
5879,note_on,,0,0,15,,,,,,,,,,,,,,,,15,,65,0
5879,note_on,,0,0,15,,,,,,,,,,,,,,,,15,,60,0
5879,note_on,,59,0,6,,,,,,,,,,,,,,,,2,,53,0
5879,note_on,,0,0,15,,,,,,,,,,,,,,,,15,,69,0
5879,note_on,,59,0,15,,,,,,,,,,,,,,,,15,,53,0
5879,note_on,,59,0,13,,,,,,,,,,,,,,,,12,,69,0
5879,note_on,,29,0,7,,,,,,,,,,,,,,,,5,,67,0
5879,note_on,,59,0,14,,,,,,,,,,,,,,,,13,,53,0
5879,note_on,,59,0,12,,,,,,,,,,,,,,,,11,,77,0
5879,note_on,,59,0,11,,,,,,,,,,,,,,,,10,,72,0
5880,note_on,,1,0,12,,,,,,,,,,,,,,,,11,,77,40
5880,note_on,,1,0,14,,,,,,,,,,,,,,,,13,,60,48
5880,note_on,,1,0,15,,,,,,,,,,,,,,,,15,,60,48
5880,note_on,,0,0,15,,,,,,,,,,,,,,,,15,,65,48
5880,note_on,,1,0,6,,,,,,,,,,,,,,,,2,,60,48
5880,note_on,,0,0,15,,,,,,,,,,,,,,,,15,,67,48
5880,note_on,,1,0,5,,,,,,,,,,,,,,,,0,,67,48
5880,note_on,,1,0,7,,,,,,,,,,,,,,,,5,,67,48
5939,note_on,,59,0,6,,,,,,,,,,,,,,,,2,,60,0
5939,note_on,,59,0,15,,,,,,,,,,,,,,,,15,,60,0
5939,note_on,,0,0,15,,,,,,,,,,,,,,,,15,,67,0
5939,note_on,,0,0,15,,,,,,,,,,,,,,,,15,,65,0
5939,note_on,,59,0,12,,,,,,,,,,,,,,,,11,,77,0
5939,note_on,,59,0,14,,,,,,,,,,,,,,,,13,,60,0
5940,note_on,,61,0,11,,,,,,,,,,,,,,,,10,,72,40
5940,note_on,,1,0,12,,,,,,,,,,,,,,,,11,,76,40
5940,note_on,,781,0,10,,,,,,,,,,,,,,,,8,,55,48
5940,note_on,,0,0,15,,,,,,,,,,,,,,,,15,,72,48
5940,note_on,,0,0,15,,,,,,,,,,,,,,,,15,,67,48
5940,note_on,,0,0,15,,,,,,,,,,,,,,,,15,,64,48
5940,note_on,,61,0,13,,,,,,,,,,,,,,,,12,,60,40
5940,note_on,,1,0,14,,,,,,,,,,,,,,,,13,,48,48
5940,note_on,,1,0,6,,,,,,,,,,,,,,,,2,,48,48
5940,note_on,,1,0,15,,,,,,,,,,,,,,,,15,,48,48
5969,note_on,,89,0,7,,,,,,,,,,,,,,,,5,,67,0
5969,note_on,,89,0,5,,,,,,,,,,,,,,,,0,,67,0
5970,note_on,,1,0,7,,,,,,,,,,,,,,,,5,,65,48
5970,note_on,,1,0,5,,,,,,,,,,,,,,,,0,,65,48
5999,note_on,,0,0,15,,,,,,,,,,,,,,,,15,,64,0
5999,note_on,,29,0,7,,,,,,,,,,,,,,,,5,,65,0
5999,note_on,,59,0,6,,,,,,,,,,,,,,,,2,,48,0
5999,note_on,,59,0,12,,,,,,,,,,,,,,,,11,,76,0
5999,note_on,,59,0,10,,,,,,,,,,,,,,,,8,,55,0
5999,note_on,,59,0,15,,,,,,,,,,,,,,,,15,,48,0
5999,note_on,,59,0,11,,,,,,,,,,,,,,,,10,,72,0
5999,note_on,,0,0,15,,,,,,,,,,,,,,,,15,,72,0
5999,note_on,,59,0,13,,,,,,,,,,,,,,,,12,,60,0
5999,note_on,,59,0,14,,,,,,,,,,,,,,,,13,,48,0
5999,note_on,,0,0,15,,,,,,,,,,,,,,,,15,,67,0
5999,note_on,,29,0,5,,,,,,,,,,,,,,,,0,,65,0
6000,note_on,,1,0,14,,,,,,,,,,,,,,,,13,,53,48
6000,note_on,,1,0,6,,,,,,,,,,,,,,,,2,,53,48
6000,note_on,,1,0,11,,,,,,,,,,,,,,,,10,,69,40
6000,note_on,,1,0,5,,,,,,,,,,,,,,,,0,,65,48
6000,note_on,,1,0,15,,,,,,,,,,,,,,,,15,,53,48
6000,note_on,,0,0,15,,,,,,,,,,,,,,,,15,,69,48
6000,note_on,,1,0,12,,,,,,,,,,,,,,,,11,,77,40
6000,note_on,,1,0,7,,,,,,,,,,,,,,,,5,,65,48
6000,note_on,,1,0,13,,,,,,,,,,,,,,,,12,,60,40
6000,note_on,,0,0,15,,,,,,,,,,,,,,,,15,,65,48
6000,note_on,,0,0,15,,,,,,,,,,,,,,,,15,,60,48
6000,note_on,,1,0,10,,,,,,,,,,,,,,,,8,,57,48
6029,note_on,,29,0,10,,,,,,,,,,,,,,,,8,,57,0
6030,note_on,,1,0,10,,,,,,,,,,,,,,,,8,,58,48
6059,note_on,,29,0,10,,,,,,,,,,,,,,,,8,,58,0
6059,note_on,,59,0,15,,,,,,,,,,,,,,,,15,,53,0
6059,note_on,,59,0,11,,,,,,,,,,,,,,,,10,,69,0
6059,note_on,,59,0,13,,,,,,,,,,,,,,,,12,,60,0
6059,note_on,,59,0,14,,,,,,,,,,,,,,,,13,,53,0
6059,note_on,,59,0,6,,,,,,,,,,,,,,,,2,,53,0
6059,note_on,,59,0,12,,,,,,,,,,,,,,,,11,,77,0
6060,note_on,,1,0,15,,,,,,,,,,,,,,,,15,,41,48
6060,note_on,,1,0,13,,,,,,,,,,,,,,,,12,,72,40
6060,note_on,,1,0,14,,,,,,,,,,,,,,,,13,,41,48
6060,note_on,,1,0,6,,,,,,,,,,,,,,,,2,,41,48
6060,note_on,,1,0,12,,,,,,,,,,,,,,,,11,,69,40
6060,note_on,,1,0,10,,,,,,,,,,,,,,,,8,,60,48
6060,note_on,,1,0,11,,,,,,,,,,,,,,,,10,,65,40
6119,note_on,,59,0,12,,,,,,,,,,,,,,,,11,,69,0
6119,note_on,,59,0,14,,,,,,,,,,,,,,,,13,,41,0
6119,note_on,,59,0,6,,,,,,,,,,,,,,,,2,,41,0
6119,note_on,,59,0,10,,,,,,,,,,,,,,,,8,,60,0
6119,note_on,,59,0,13,,,,,,,,,,,,,,,,12,,72,0
6119,note_on,,0,0,15,,,,,,,,,,,,,,,,15,,60,0
6119,note_on,,0,0,15,,,,,,,,,,,,,,,,15,,65,0
6119,note_on,,59,0,15,,,,,,,,,,,,,,,,15,,69,0
6119,note_on,,119,0,7,,,,,,,,,,,,,,,,5,,65,0
6119,note_on,,0,0,15,,,,,,,,,,,,,,,,15,,41,0
6119,note_on,,59,0,11,,,,,,,,,,,,,,,,10,,65,0
6119,note_on,,119,0,5,,,,,,,,,,,,,,,,0,,65,0
6120,note_on,,1,0,11,,,,,,,,,,,,,,,,10,,69,40
6120,note_on,,1,0,12,,,,,,,,,,,,,,,,11,,72,40
6120,note_on,,1,0,13,,,,,,,,,,,,,,,,12,,69,40
6179,note_on,,59,0,11,,,,,,,,,,,,,,,,10,,69,0
6179,note_on,,59,0,12,,,,,,,,,,,,,,,,11,,72,0
6179,note_on,,59,0,13,,,,,,,,,,,,,,,,12,,69,0
6180,note_on,,781,0,9,,,,,,,,,,,,,,,,7,,60,48
6180,note_on,,61,0,6,,,,,,,,,,,,,,,,2,,45,48
6180,note_on,,61,0,10,,,,,,,,,,,,,,,,8,,60,48
6180,note_on,,1,0,12,,,,,,,,,,,,,,,,11,,77,40
6180,note_on,,1,0,13,,,,,,,,,,,,,,,,12,,65,40
6180,note_on,,0,0,15,,,,,,,,,,,,,,,,15,,60,48
6180,note_on,,0,0,15,,,,,,,,,,,,,,,,15,,65,48
6180,note_on,,61,0,15,,,,,,,,,,,,,,,,15,,45,48
6180,note_on,,1,0,11,,,,,,,,,,,,,,,,10,,72,40
6180,note_on,,61,0,14,,,,,,,,,,,,,,,,13,,45,48
6239,note_on,,0,0,15,,,,,,,,,,,,,,,,15,,65,0
6239,note_on,,59,0,12,,,,,,,,,,,,,,,,11,,77,0
6239,note_on,,59,0,9,,,,,,,,,,,,,,,,7,,60,0
6239,note_on,,59,0,15,,,,,,,,,,,,,,,,15,,45,0
6239,note_on,,59,0,10,,,,,,,,,,,,,,,,8,,60,0
6239,note_on,,59,0,14,,,,,,,,,,,,,,,,13,,45,0
6239,note_on,,0,0,15,,,,,,,,,,,,,,,,15,,60,0
6239,note_on,,59,0,13,,,,,,,,,,,,,,,,12,,65,0
6239,note_on,,59,0,11,,,,,,,,,,,,,,,,10,,72,0
6239,note_on,,59,0,6,,,,,,,,,,,,,,,,2,,45,0
6240,note_on,,0,0,15,,,,,,,,,,,,,,,,15,,58,48
6240,note_on,,1,0,9,,,,,,,,,,,,,,,,7,,62,48
6240,note_on,,1,0,10,,,,,,,,,,,,,,,,8,,58,48
6240,note_on,,0,0,15,,,,,,,,,,,,,,,,15,,67,48
6240,note_on,,1,0,6,,,,,,,,,,,,,,,,2,,43,48
6240,note_on,,1,0,15,,,,,,,,,,,,,,,,15,,43,48
6240,note_on,,1,0,14,,,,,,,,,,,,,,,,13,,43,48
6269,note_on,,29,0,9,,,,,,,,,,,,,,,,7,,62,0
6270,note_on,,1,0,9,,,,,,,,,,,,,,,,7,,64,48
6299,note_on,,59,0,14,,,,,,,,,,,,,,,,13,,43,0
6299,note_on,,59,0,6,,,,,,,,,,,,,,,,2,,43,0
6299,note_on,,59,0,10,,,,,,,,,,,,,,,,8,,58,0
6299,note_on,,29,0,9,,,,,,,,,,,,,,,,7,,64,0
6299,note_on,,0,0,15,,,,,,,,,,,,,,,,15,,58,0
6299,note_on,,59,0,15,,,,,,,,,,,,,,,,15,,43,0
6299,note_on,,0,0,15,,,,,,,,,,,,,,,,15,,67,0
6300,note_on,,1,0,9,,,,,,,,,,,,,,,,7,,65,48
6300,note_on,,1,0,6,,,,,,,,,,,,,,,,2,,41,48
6300,note_on,,0,0,15,,,,,,,,,,,,,,,,15,,57,48
6300,note_on,,0,0,15,,,,,,,,,,,,,,,,15,,60,48
6300,note_on,,1,0,10,,,,,,,,,,,,,,,,8,,57,48
6300,note_on,,1,0,14,,,,,,,,,,,,,,,,13,,41,48
6300,note_on,,1,0,15,,,,,,,,,,,,,,,,15,,41,48
6329,note_on,,29,0,10,,,,,,,,,,,,,,,,8,,57,0
6330,note_on,,1,0,10,,,,,,,,,,,,,,,,8,,55,48
6359,note_on,,59,0,6,,,,,,,,,,,,,,,,2,,41,0
6359,note_on,,29,0,10,,,,,,,,,,,,,,,,8,,55,0
6359,note_on,,59,0,15,,,,,,,,,,,,,,,,15,,41,0
6359,note_on,,0,0,15,,,,,,,,,,,,,,,,15,,57,0
6359,note_on,,59,0,14,,,,,,,,,,,,,,,,13,,41,0
6360,note_on,,1,0,6,,,,,,,,,,,,,,,,2,,48,48
6360,note_on,,1,0,15,,,,,,,,,,,,,,,,15,,48,48
6360,note_on,,1,0,14,,,,,,,,,,,,,,,,13,,48,48
6360,note_on,,1,0,10,,,,,,,,,,,,,,,,8,,55,48
6360,note_on,,0,0,15,,,,,,,,,,,,,,,,15,,55,48
6419,note_on,,119,0,9,,,,,,,,,,,,,,,,7,,65,0
6419,note_on,,0,0,15,,,,,,,,,,,,,,,,15,,55,0
6419,note_on,,59,0,15,,,,,,,,,,,,,,,,15,,60,0
6420,note_on,,301,0,7,,,,,,,,,,,,,,,,5,,67,48
6420,note_on,,1,0,9,,,,,,,,,,,,,,,,7,,64,48
6420,note_on,,1,0,15,,,,,,,,,,,,,,,,15,,60,48
6420,note_on,,0,0,15,,,,,,,,,,,,,,,,15,,67,48
6420,note_on,,301,0,5,,,,,,,,,,,,,,,,0,,67,48
6420,note_on,,0,0,15,,,,,,,,,,,,,,,,15,,64,48
6449,note_on,,89,0,10,,,,,,,,,,,,,,,,8,,55,0
6450,note_on,,1,0,10,,,,,,,,,,,,,,,,8,,53,48
6479,note_on,,0,0,15,,,,,,,,,,,,,,,,15,,67,0
6479,note_on,,119,0,6,,,,,,,,,,,,,,,,2,,48,0
6479,note_on,,59,0,7,,,,,,,,,,,,,,,,5,,67,0
6479,note_on,,59,0,15,,,,,,,,,,,,,,,,15,,48,0
6479,note_on,,59,0,9,,,,,,,,,,,,,,,,7,,64,0
6479,note_on,,119,0,14,,,,,,,,,,,,,,,,13,,48,0
6479,note_on,,0,0,15,,,,,,,,,,,,,,,,15,,64,0
6479,note_on,,29,0,10,,,,,,,,,,,,,,,,8,,53,0
6479,note_on,,0,0,15,,,,,,,,,,,,,,,,15,,60,0
6479,note_on,,59,0,5,,,,,,,,,,,,,,,,0,,67,0
6480,note_on,,1,0,9,,,,,,,,,,,,,,,,7,,65,48
6480,note_on,,1,0,5,,,,,,,,,,,,,,,,0,,69,48
6480,note_on,,1,0,10,,,,,,,,,,,,,,,,8,,53,48
6480,note_on,,0,0,15,,,,,,,,,,,,,,,,15,,69,48
6480,note_on,,1,0,6,,,,,,,,,,,,,,,,2,,53,48
6480,note_on,,1,0,14,,,,,,,,,,,,,,,,13,,53,48
6480,note_on,,1,0,7,,,,,,,,,,,,,,,,5,,69,48
6480,note_on,,0,0,15,,,,,,,,,,,,,,,,15,,65,48
6480,note_on,,1,0,15,,,,,,,,,,,,,,,,15,,53,48
6480,note_on,,0,0,15,,,,,,,,,,,,,,,,15,,60,48
6509,note_on,,29,0,7,,,,,,,,,,,,,,,,5,,69,0
6509,note_on,,29,0,5,,,,,,,,,,,,,,,,0,,69,0
6510,note_on,,1,0,5,,,,,,,,,,,,,,,,0,,70,48
6510,note_on,,1,0,7,,,,,,,,,,,,,,,,5,,70,48
6539,note_on,,59,0,6,,,,,,,,,,,,,,,,2,,53,0
6539,note_on,,59,0,14,,,,,,,,,,,,,,,,13,,53,0
6539,note_on,,29,0,5,,,,,,,,,,,,,,,,0,,70,0
6539,note_on,,59,0,15,,,,,,,,,,,,,,,,15,,53,0
6539,note_on,,29,0,7,,,,,,,,,,,,,,,,5,,70,0
6540,note_on,,1,0,15,,,,,,,,,,,,,,,,15,,57,48
6540,note_on,,1,0,6,,,,,,,,,,,,,,,,2,,57,48
6540,note_on,,1,0,5,,,,,,,,,,,,,,,,0,,72,48
6540,note_on,,301,0,11,,,,,,,,,,,,,,,,10,,77,40
6540,note_on,,301,0,12,,,,,,,,,,,,,,,,11,,72,40
6540,note_on,,1,0,7,,,,,,,,,,,,,,,,5,,72,48
6540,note_on,,1,0,14,,,,,,,,,,,,,,,,13,,57,48
6599,note_on,,119,0,10,,,,,,,,,,,,,,,,8,,53,0
6599,note_on,,59,0,6,,,,,,,,,,,,,,,,2,,57,0
6599,note_on,,59,0,15,,,,,,,,,,,,,,,,15,,69,0
6599,note_on,,119,0,9,,,,,,,,,,,,,,,,7,,65,0
6599,note_on,,59,0,11,,,,,,,,,,,,,,,,10,,77,0
6599,note_on,,0,0,15,,,,,,,,,,,,,,,,15,,60,0
6599,note_on,,59,0,12,,,,,,,,,,,,,,,,11,,72,0
6599,note_on,,59,0,14,,,,,,,,,,,,,,,,13,,57,0
6599,note_on,,0,0,15,,,,,,,,,,,,,,,,15,,57,0
6599,note_on,,0,0,15,,,,,,,,,,,,,,,,15,,65,0
6600,note_on,,1,0,11,,,,,,,,,,,,,,,,10,,81,40
6600,note_on,,1,0,12,,,,,,,,,,,,,,,,11,,77,40
6659,note_on,,59,0,12,,,,,,,,,,,,,,,,11,,77,0
6659,note_on,,119,0,5,,,,,,,,,,,,,,,,0,,72,0
6659,note_on,,59,0,11,,,,,,,,,,,,,,,,10,,81,0
6659,note_on,,119,0,7,,,,,,,,,,,,,,,,5,,72,0
6660,note_on,,61,0,15,,,,,,,,,,,,,,,,15,,58,48
6660,note_on,,0,0,15,,,,,,,,,,,,,,,,15,,74,48
6660,note_on,,1,0,7,,,,,,,,,,,,,,,,5,,74,64
6660,note_on,,1,0,5,,,,,,,,,,,,,,,,0,,74,64
6660,note_on,,1,0,11,,,,,,,,,,,,,,,,10,,77,40
6660,note_on,,421,0,13,,,,,,,,,,,,,,,,12,,65,40
6660,note_on,,61,0,6,,,,,,,,,,,,,,,,2,,58,48
6660,note_on,,1,0,12,,,,,,,,,,,,,,,,11,,74,40
6660,note_on,,1501,0,8,,,,,,,,,,,,,,,,6,,65,64
6660,note_on,,0,0,15,,,,,,,,,,,,,,,,15,,62,48
6660,note_on,,61,0,14,,,,,,,,,,,,,,,,13,,58,48
6660,note_on,,0,0,15,,,,,,,,,,,,,,,,15,,65,48
6719,note_on,,59,0,7,,,,,,,,,,,,,,,,5,,74,0
6719,note_on,,59,0,12,,,,,,,,,,,,,,,,11,,74,0
6719,note_on,,59,0,6,,,,,,,,,,,,,,,,2,,58,0
6719,note_on,,59,0,11,,,,,,,,,,,,,,,,10,,77,0
6719,note_on,,59,0,14,,,,,,,,,,,,,,,,13,,58,0
6719,note_on,,59,0,15,,,,,,,,,,,,,,,,15,,58,0
6719,note_on,,0,0,15,,,,,,,,,,,,,,,,15,,74,0
6719,note_on,,0,0,15,,,,,,,,,,,,,,,,15,,65,0
6719,note_on,,59,0,5,,,,,,,,,,,,,,,,0,,74,0
6719,note_on,,59,0,8,,,,,,,,,,,,,,,,6,,65,0
6719,note_on,,0,0,15,,,,,,,,,,,,,,,,15,,62,0
6719,note_on,,59,0,13,,,,,,,,,,,,,,,,12,,65,0
6720,note_on,,1,0,15,,,,,,,,,,,,,,,,15,,55,48
6720,note_on,,1,0,6,,,,,,,,,,,,,,,,2,,55,48
6720,note_on,,1,0,7,,,,,,,,,,,,,,,,5,,76,64
6720,note_on,,0,0,15,,,,,,,,,,,,,,,,15,,64,48
6720,note_on,,1,0,8,,,,,,,,,,,,,,,,6,,70,64
6720,note_on,,1,0,13,,,,,,,,,,,,,,,,12,,67,40
6720,note_on,,1,0,11,,,,,,,,,,,,,,,,10,,76,40
6720,note_on,,1,0,5,,,,,,,,,,,,,,,,0,,76,64
6720,note_on,,0,0,15,,,,,,,,,,,,,,,,15,,70,48
6720,note_on,,1,0,14,,,,,,,,,,,,,,,,13,,55,48
6720,note_on,,1,0,12,,,,,,,,,,,,,,,,11,,70,40
6779,note_on,,0,0,15,,,,,,,,,,,,,,,,15,,64,0
6779,note_on,,59,0,6,,,,,,,,,,,,,,,,2,,55,0
6779,note_on,,59,0,14,,,,,,,,,,,,,,,,13,,55,0
6779,note_on,,59,0,11,,,,,,,,,,,,,,,,10,,76,0
6779,note_on,,59,0,7,,,,,,,,,,,,,,,,5,,76,0
6779,note_on,,0,0,15,,,,,,,,,,,,,,,,15,,70,0
6779,note_on,,59,0,12,,,,,,,,,,,,,,,,11,,70,0
6779,note_on,,59,0,13,,,,,,,,,,,,,,,,12,,67,0
6779,note_on,,59,0,8,,,,,,,,,,,,,,,,6,,70,0
6779,note_on,,59,0,5,,,,,,,,,,,,,,,,0,,76,0
6779,note_on,,59,0,15,,,,,,,,,,,,,,,,15,,55,0
6780,note_on,,1,0,14,,,,,,,,,,,,,,,,13,,53,48
6780,note_on,,1,0,6,,,,,,,,,,,,,,,,2,,53,48
6780,note_on,,1,0,7,,,,,,,,,,,,,,,,5,,77,64
6780,note_on,,1,0,8,,,,,,,,,,,,,,,,6,,69,64
6780,note_on,,1,0,5,,,,,,,,,,,,,,,,0,,77,64
6780,note_on,,1,0,12,,,,,,,,,,,,,,,,11,,69,40
6780,note_on,,0,0,15,,,,,,,,,,,,,,,,15,,69,48
6780,note_on,,0,0,15,,,,,,,,,,,,,,,,15,,65,48
6780,note_on,,1,0,15,,,,,,,,,,,,,,,,15,,53,48
6780,note_on,,1,0,11,,,,,,,,,,,,,,,,10,,77,40
6780,note_on,,1,0,13,,,,,,,,,,,,,,,,12,,60,40
6809,note_on,,29,0,7,,,,,,,,,,,,,,,,5,,77,0
6809,note_on,,29,0,11,,,,,,,,,,,,,,,,10,,77,0
6809,note_on,,29,0,5,,,,,,,,,,,,,,,,0,,77,0
6810,note_on,,1,0,11,,,,,,,,,,,,,,,,10,,79,40
6810,note_on,,1,0,7,,,,,,,,,,,,,,,,5,,79,64
6810,note_on,,1,0,5,,,,,,,,,,,,,,,,0,,79,64
6839,note_on,,0,0,15,,,,,,,,,,,,,,,,15,,65,0
6839,note_on,,29,0,5,,,,,,,,,,,,,,,,0,,79,0
6839,note_on,,0,0,15,,,,,,,,,,,,,,,,15,,69,0
6839,note_on,,59,0,8,,,,,,,,,,,,,,,,6,,69,0
6839,note_on,,59,0,13,,,,,,,,,,,,,,,,12,,60,0
6839,note_on,,59,0,12,,,,,,,,,,,,,,,,11,,69,0
6839,note_on,,59,0,14,,,,,,,,,,,,,,,,13,,53,0
6839,note_on,,59,0,6,,,,,,,,,,,,,,,,2,,53,0
6839,note_on,,59,0,15,,,,,,,,,,,,,,,,15,,53,0
6839,note_on,,29,0,7,,,,,,,,,,,,,,,,5,,79,0
6839,note_on,,29,0,11,,,,,,,,,,,,,,,,10,,79,0
6840,note_on,,1,0,12,,,,,,,,,,,,,,,,11,,67,40
6840,note_on,,1,0,7,,,,,,,,,,,,,,,,5,,76,64
6840,note_on,,1,0,13,,,,,,,,,,,,,,,,12,,60,40
6840,note_on,,1,0,5,,,,,,,,,,,,,,,,0,,76,64
6840,note_on,,0,0,15,,,,,,,,,,,,,,,,15,,67,48
6840,note_on,,1,0,14,,,,,,,,,,,,,,,,13,,60,48
6840,note_on,,1,0,6,,,,,,,,,,,,,,,,2,,60,48
6840,note_on,,1,0,11,,,,,,,,,,,,,,,,10,,76,40
6840,note_on,,0,0,15,,,,,,,,,,,,,,,,15,,64,48
6840,note_on,,1,0,8,,,,,,,,,,,,,,,,6,,67,64
6840,note_on,,1,0,15,,,,,,,,,,,,,,,,15,,60,48
6854,note_on,,14,0,11,,,,,,,,,,,,,,,,10,,76,0
6855,note_on,,1,0,11,,,,,,,,,,,,,,,,10,,77,40
6869,note_on,,14,0,11,,,,,,,,,,,,,,,,10,,77,0
6870,note_on,,1,0,11,,,,,,,,,,,,,,,,10,,76,40
6884,note_on,,14,0,11,,,,,,,,,,,,,,,,10,,76,0
6885,note_on,,1,0,11,,,,,,,,,,,,,,,,10,,77,40
6899,note_on,,14,0,11,,,,,,,,,,,,,,,,10,,77,0
6899,note_on,,59,0,15,,,,,,,,,,,,,,,,15,,60,0
6899,note_on,,59,0,14,,,,,,,,,,,,,,,,13,,60,0
6899,note_on,,59,0,13,,,,,,,,,,,,,,,,12,,60,0
6899,note_on,,0,0,15,,,,,,,,,,,,,,,,15,,67,0
6899,note_on,,0,0,15,,,,,,,,,,,,,,,,15,,64,0
6899,note_on,,59,0,6,,,,,,,,,,,,,,,,2,,60,0
6900,note_on,,0,0,15,,,,,,,,,,,,,,,,15,,64,48
6900,note_on,,1,0,13,,,,,,,,,,,,,,,,12,,60,40
6900,note_on,,0,0,15,,,,,,,,,,,,,,,,15,,67,48
6900,note_on,,0,0,15,,,,,,,,,,,,,,,,15,,72,48
6900,note_on,,1,0,15,,,,,,,,,,,,,,,,15,,48,48
6900,note_on,,1,0,14,,,,,,,,,,,,,,,,13,,48,48
6900,note_on,,301,0,10,,,,,,,,,,,,,,,,8,,48,48
6900,note_on,,1,0,11,,,,,,,,,,,,,,,,10,,74,40
6900,note_on,,1,0,6,,,,,,,,,,,,,,,,2,,48,48
6900,note_on,,301,0,9,,,,,,,,,,,,,,,,7,,60,64
6914,note_on,,14,0,11,,,,,,,,,,,,,,,,10,,74,0
6915,note_on,,1,0,11,,,,,,,,,,,,,,,,10,,76,40
6929,note_on,,89,0,5,,,,,,,,,,,,,,,,0,,76,0
6929,note_on,,89,0,12,,,,,,,,,,,,,,,,11,,67,0
6929,note_on,,89,0,8,,,,,,,,,,,,,,,,6,,67,0
6929,note_on,,89,0,7,,,,,,,,,,,,,,,,5,,76,0
6929,note_on,,14,0,11,,,,,,,,,,,,,,,,10,,76,0
6930,note_on,,1,0,12,,,,,,,,,,,,,,,,11,,67,40
6930,note_on,,1,0,8,,,,,,,,,,,,,,,,6,,67,64
6930,note_on,,1,0,5,,,,,,,,,,,,,,,,0,,77,64
6930,note_on,,1,0,7,,,,,,,,,,,,,,,,5,,77,64
6930,note_on,,1,0,11,,,,,,,,,,,,,,,,10,,77,40
6959,note_on,,59,0,14,,,,,,,,,,,,,,,,13,,48,0
6959,note_on,,59,0,13,,,,,,,,,,,,,,,,12,,60,0
6959,note_on,,0,0,15,,,,,,,,,,,,,,,,15,,64,0
6959,note_on,,29,0,12,,,,,,,,,,,,,,,,11,,67,0
6959,note_on,,59,0,6,,,,,,,,,,,,,,,,2,,48,0
6959,note_on,,29,0,11,,,,,,,,,,,,,,,,10,,77,0
6959,note_on,,0,0,15,,,,,,,,,,,,,,,,15,,67,0
6959,note_on,,29,0,5,,,,,,,,,,,,,,,,0,,77,0
6959,note_on,,59,0,15,,,,,,,,,,,,,,,,15,,48,0
6959,note_on,,29,0,7,,,,,,,,,,,,,,,,5,,77,0
6959,note_on,,29,0,8,,,,,,,,,,,,,,,,6,,67,0
6959,note_on,,59,0,10,,,,,,,,,,,,,,,,8,,48,0
6959,note_on,,59,0,9,,,,,,,,,,,,,,,,7,,60,0
6959,note_on,,0,0,15,,,,,,,,,,,,,,,,15,,72,0
6960,note_on,,1,0,14,,,,,,,,,,,,,,,,13,,53,48
6960,note_on,,1,0,15,,,,,,,,,,,,,,,,15,,53,48
6960,note_on,,0,0,15,,,,,,,,,,,,,,,,15,,69,48
6960,note_on,,0,0,15,,,,,,,,,,,,,,,,15,,65,48
6960,note_on,,0,0,15,,,,,,,,,,,,,,,,15,,60,48
6960,note_on,,1,0,11,,,,,,,,,,,,,,,,10,,77,40
6960,note_on,,1,0,9,,,,,,,,,,,,,,,,7,,60,64
6960,note_on,,1,0,10,,,,,,,,,,,,,,,,8,,53,48
6960,note_on,,1,0,6,,,,,,,,,,,,,,,,2,,53,48
6960,note_on,,1,0,8,,,,,,,,,,,,,,,,6,,69,64
6960,note_on,,1,0,7,,,,,,,,,,,,,,,,5,,77,64
6960,note_on,,1,0,13,,,,,,,,,,,,,,,,12,,60,40
6960,note_on,,1,0,5,,,,,,,,,,,,,,,,0,,77,64
6960,note_on,,1,0,12,,,,,,,,,,,,,,,,11,,69,40
7019,note_on,,59,0,11,,,,,,,,,,,,,,,,10,,77,0
7019,note_on,,59,0,13,,,,,,,,,,,,,,,,12,,60,0
7019,note_on,,59,0,12,,,,,,,,,,,,,,,,11,,69,0
7020,note_on,,1,0,11,,,,,,,,,,,,,,,,10,,72,40
7020,note_on,,1,0,13,,,,,,,,,,,,,,,,12,,65,40
7020,note_on,,1,0,12,,,,,,,,,,,,,,,,11,,69,40
7049,note_on,,89,0,14,,,,,,,,,,,,,,,,13,,53,0
7049,note_on,,89,0,10,,,,,,,,,,,,,,,,8,,53,0
7049,note_on,,89,0,15,,,,,,,,,,,,,,,,15,,53,0
7049,note_on,,89,0,6,,,,,,,,,,,,,,,,2,,53,0
7050,note_on,,1,0,10,,,,,,,,,,,,,,,,8,,55,48
7050,note_on,,1,0,14,,,,,,,,,,,,,,,,13,,55,48
7050,note_on,,1,0,15,,,,,,,,,,,,,,,,15,,55,48
7050,note_on,,1,0,6,,,,,,,,,,,,,,,,2,,55,48
7079,note_on,,29,0,10,,,,,,,,,,,,,,,,8,,55,0
7079,note_on,,119,0,8,,,,,,,,,,,,,,,,6,,69,0
7079,note_on,,119,0,7,,,,,,,,,,,,,,,,5,,77,0
7079,note_on,,29,0,14,,,,,,,,,,,,,,,,13,,55,0
7079,note_on,,119,0,5,,,,,,,,,,,,,,,,0,,77,0
7079,note_on,,59,0,12,,,,,,,,,,,,,,,,11,,69,0
7079,note_on,,29,0,15,,,,,,,,,,,,,,,,15,,55,0
7079,note_on,,59,0,11,,,,,,,,,,,,,,,,10,,72,0
7079,note_on,,119,0,9,,,,,,,,,,,,,,,,7,,60,0
7079,note_on,,59,0,13,,,,,,,,,,,,,,,,12,,65,0
7079,note_on,,29,0,6,,,,,,,,,,,,,,,,2,,55,0
7080,note_on,,1,0,15,,,,,,,,,,,,,,,,15,,57,48
7080,note_on,,1,0,12,,,,,,,,,,,,,,,,11,,60,40
7080,note_on,,1,0,6,,,,,,,,,,,,,,,,2,,57,48
7080,note_on,,1,0,10,,,,,,,,,,,,,,,,8,,57,48
7080,note_on,,1,0,11,,,,,,,,,,,,,,,,10,,65,40
7080,note_on,,1,0,13,,,,,,,,,,,,,,,,12,,53,40
7080,note_on,,1,0,14,,,,,,,,,,,,,,,,13,,57,48
7139,note_on,,59,0,10,,,,,,,,,,,,,,,,8,,57,0
7139,note_on,,59,0,15,,,,,,,,,,,,,,,,15,,57,0
7139,note_on,,59,0,14,,,,,,,,,,,,,,,,13,,57,0
7139,note_on,,59,0,6,,,,,,,,,,,,,,,,2,,57,0
7139,note_on,,59,0,11,,,,,,,,,,,,,,,,10,,65,0
7139,note_on,,59,0,12,,,,,,,,,,,,,,,,11,,60,0
7139,note_on,,59,0,13,,,,,,,,,,,,,,,,12,,53,0
7140,note_on,,1,0,11,,,,,,,,,,,,,,,,10,,69,40
7140,note_on,,1,0,12,,,,,,,,,,,,,,,,11,,65,40
7140,note_on,,1,0,13,,,,,,,,,,,,,,,,12,,60,40
7140,note_on,,1,0,10,,,,,,,,,,,,,,,,8,,55,48
7140,note_on,,1,0,14,,,,,,,,,,,,,,,,13,,53,48
7140,note_on,,1,0,6,,,,,,,,,,,,,,,,2,,53,48
7140,note_on,,1,0,15,,,,,,,,,,,,,,,,15,,53,48
7169,note_on,,29,0,10,,,,,,,,,,,,,,,,8,,55,0
7170,note_on,,1,0,10,,,,,,,,,,,,,,,,8,,53,48
7199,note_on,,59,0,13,,,,,,,,,,,,,,,,12,,60,0
7199,note_on,,0,0,15,,,,,,,,,,,,,,,,15,,53,0
7199,note_on,,0,0,15,,,,,,,,,,,,,,,,15,,60,0
7199,note_on,,0,0,15,,,,,,,,,,,,,,,,15,,65,0
7199,note_on,,59,0,15,,,,,,,,,,,,,,,,15,,69,0
7199,note_on,,29,0,10,,,,,,,,,,,,,,,,8,,53,0
7199,note_on,,59,0,11,,,,,,,,,,,,,,,,10,,69,0
7199,note_on,,59,0,14,,,,,,,,,,,,,,,,13,,53,0
7199,note_on,,59,0,12,,,,,,,,,,,,,,,,11,,65,0
7199,note_on,,59,0,6,,,,,,,,,,,,,,,,2,,53,0
7200,note_on,,0,0,15,,,,,,,,,,,,,,,,15,,65,48
7200,note_on,,0,0,15,,,,,,,,,,,,,,,,15,,72,48
7200,note_on,,1,0,10,,,,,,,,,,,,,,,,8,,60,48
7200,note_on,,1,0,15,,,,,,,,,,,,,,,,15,,45,48
7200,note_on,,1,0,6,,,,,,,,,,,,,,,,2,,45,48
7200,note_on,,1,0,14,,,,,,,,,,,,,,,,13,,45,48
7200,note_on,,0,0,15,,,,,,,,,,,,,,,,15,,60,48
7259,note_on,,59,0,6,,,,,,,,,,,,,,,,2,,45,0
7259,note_on,,59,0,14,,,,,,,,,,,,,,,,13,,45,0
7259,note_on,,59,0,15,,,,,,,,,,,,,,,,15,,45,0
7260,note_on,,61,0,13,,,,,,,,,,,,,,,,12,,65,40
7260,note_on,,61,0,11,,,,,,,,,,,,,,,,10,,72,40
7260,note_on,,61,0,12,,,,,,,,,,,,,,,,11,,77,40
7260,note_on,,1,0,14,,,,,,,,,,,,,,,,13,,57,48
7260,note_on,,1,0,6,,,,,,,,,,,,,,,,2,,57,48
7260,note_on,,1,0,15,,,,,,,,,,,,,,,,15,,57,48
7319,note_on,,59,0,15,,,,,,,,,,,,,,,,15,,65,0
7319,note_on,,59,0,13,,,,,,,,,,,,,,,,12,,65,0
7319,note_on,,59,0,11,,,,,,,,,,,,,,,,10,,72,0
7319,note_on,,59,0,12,,,,,,,,,,,,,,,,11,,77,0
7319,note_on,,59,0,6,,,,,,,,,,,,,,,,2,,57,0
7319,note_on,,59,0,14,,,,,,,,,,,,,,,,13,,57,0
7319,note_on,,0,0,15,,,,,,,,,,,,,,,,15,,57,0
7319,note_on,,0,0,15,,,,,,,,,,,,,,,,15,,60,0
7320,note_on,,1,0,13,,,,,,,,,,,,,,,,12,,67,40
7320,note_on,,1,0,14,,,,,,,,,,,,,,,,13,,52,48
7320,note_on,,1,0,12,,,,,,,,,,,,,,,,11,,72,40
7320,note_on,,1,0,11,,,,,,,,,,,,,,,,10,,67,40
7320,note_on,,0,0,15,,,,,,,,,,,,,,,,15,,67,48
7320,note_on,,1,0,15,,,,,,,,,,,,,,,,15,,52,48
7320,note_on,,1,0,6,,,,,,,,,,,,,,,,2,,52,48
7320,note_on,,0,0,15,,,,,,,,,,,,,,,,15,,60,48
7349,note_on,,149,0,10,,,,,,,,,,,,,,,,8,,60,0
7350,note_on,,1,0,10,,,,,,,,,,,,,,,,8,,62,48
7379,note_on,,0,0,15,,,,,,,,,,,,,,,,15,,67,0
7379,note_on,,59,0,12,,,,,,,,,,,,,,,,11,,72,0
7379,note_on,,59,0,6,,,,,,,,,,,,,,,,2,,52,0
7379,note_on,,29,0,10,,,,,,,,,,,,,,,,8,,62,0
7379,note_on,,0,0,15,,,,,,,,,,,,,,,,15,,60,0
7379,note_on,,59,0,11,,,,,,,,,,,,,,,,10,,67,0
7379,note_on,,0,0,15,,,,,,,,,,,,,,,,15,,52,0
7379,note_on,,59,0,13,,,,,,,,,,,,,,,,12,,67,0
7379,note_on,,59,0,15,,,,,,,,,,,,,,,,15,,72,0
7379,note_on,,59,0,14,,,,,,,,,,,,,,,,13,,52,0
7380,note_on,,0,0,15,,,,,,,,,,,,,,,,15,,72,48
7380,note_on,,1,0,15,,,,,,,,,,,,,,,,15,,53,48
7380,note_on,,1,0,10,,,,,,,,,,,,,,,,8,,60,48
7380,note_on,,1,0,14,,,,,,,,,,,,,,,,13,,53,48
7380,note_on,,0,0,15,,,,,,,,,,,,,,,,15,,65,48
7380,note_on,,1,0,11,,,,,,,,,,,,,,,,10,,69,40
7380,note_on,,1,0,13,,,,,,,,,,,,,,,,12,,60,40
7380,note_on,,1,0,6,,,,,,,,,,,,,,,,2,,53,48
7380,note_on,,1,0,12,,,,,,,,,,,,,,,,11,,65,40
7380,note_on,,0,0,15,,,,,,,,,,,,,,,,15,,69,48
7409,note_on,,29,0,10,,,,,,,,,,,,,,,,8,,60,0
7410,note_on,,1,0,10,,,,,,,,,,,,,,,,8,,62,48
7439,note_on,,59,0,11,,,,,,,,,,,,,,,,10,,69,0
7439,note_on,,59,0,6,,,,,,,,,,,,,,,,2,,53,0
7439,note_on,,29,0,10,,,,,,,,,,,,,,,,8,,62,0
7439,note_on,,59,0,12,,,,,,,,,,,,,,,,11,,65,0
7439,note_on,,59,0,14,,,,,,,,,,,,,,,,13,,53,0
7439,note_on,,59,0,13,,,,,,,,,,,,,,,,12,,60,0
7439,note_on,,0,0,15,,,,,,,,,,,,,,,,15,,72,0
7439,note_on,,0,0,15,,,,,,,,,,,,,,,,15,,69,0
7439,note_on,,0,0,15,,,,,,,,,,,,,,,,15,,65,0
7439,note_on,,59,0,15,,,,,,,,,,,,,,,,15,,53,0
7440,note_on,,1,0,6,,,,,,,,,,,,,,,,2,,55,48
7440,note_on,,1,0,10,,,,,,,,,,,,,,,,8,,58,48
7440,note_on,,1,0,15,,,,,,,,,,,,,,,,15,,55,48
7440,note_on,,0,0,15,,,,,,,,,,,,,,,,15,,62,48
7440,note_on,,0,0,15,,,,,,,,,,,,,,,,15,,67,48
7440,note_on,,1,0,14,,,,,,,,,,,,,,,,13,,55,48
7440,note_on,,0,0,15,,,,,,,,,,,,,,,,15,,70,48
7484,note_on,,44,0,10,,,,,,,,,,,,,,,,8,,58,0
7485,note_on,,1,0,10,,,,,,,,,,,,,,,,8,,57,48
7499,note_on,,59,0,15,,,,,,,,,,,,,,,,15,,55,0
7499,note_on,,59,0,14,,,,,,,,,,,,,,,,13,,55,0
7499,note_on,,59,0,6,,,,,,,,,,,,,,,,2,,55,0
7499,note_on,,14,0,10,,,,,,,,,,,,,,,,8,,57,0
7500,note_on,,61,0,13,,,,,,,,,,,,,,,,12,,58,40
7500,note_on,,1,0,14,,,,,,,,,,,,,,,,13,,53,48
7500,note_on,,61,0,12,,,,,,,,,,,,,,,,11,,65,40
7500,note_on,,1,0,10,,,,,,,,,,,,,,,,8,,58,48
7500,note_on,,1,0,15,,,,,,,,,,,,,,,,15,,53,48
7500,note_on,,1,0,6,,,,,,,,,,,,,,,,2,,53,48
7500,note_on,,61,0,11,,,,,,,,,,,,,,,,10,,70,40
7529,note_on,,29,0,10,,,,,,,,,,,,,,,,8,,58,0
7530,note_on,,1,0,10,,,,,,,,,,,,,,,,8,,60,48
7559,note_on,,0,0,15,,,,,,,,,,,,,,,,15,,62,0
7559,note_on,,59,0,12,,,,,,,,,,,,,,,,11,,65,0
7559,note_on,,0,0,15,,,,,,,,,,,,,,,,15,,67,0
7559,note_on,,0,0,15,,,,,,,,,,,,,,,,15,,53,0
7559,note_on,,59,0,6,,,,,,,,,,,,,,,,2,,53,0
7559,note_on,,59,0,13,,,,,,,,,,,,,,,,12,,58,0
7559,note_on,,59,0,14,,,,,,,,,,,,,,,,13,,53,0
7559,note_on,,59,0,11,,,,,,,,,,,,,,,,10,,70,0
7559,note_on,,29,0,10,,,,,,,,,,,,,,,,8,,60,0
7559,note_on,,59,0,15,,,,,,,,,,,,,,,,15,,70,0
7560,note_on,,0,0,15,,,,,,,,,,,,,,,,15,,58,48
7560,note_on,,1,0,15,,,,,,,,,,,,,,,,15,,55,48
7560,note_on,,1,0,10,,,,,,,,,,,,,,,,8,,58,48
7560,note_on,,1,0,13,,,,,,,,,,,,,,,,12,,58,40
7560,note_on,,1,0,12,,,,,,,,,,,,,,,,11,,64,40
7560,note_on,,0,0,15,,,,,,,,,,,,,,,,15,,64,48
7560,note_on,,1,0,11,,,,,,,,,,,,,,,,10,,67,40
7560,note_on,,1,0,14,,,,,,,,,,,,,,,,13,,55,48
7560,note_on,,1,0,6,,,,,,,,,,,,,,,,2,,55,48
7589,note_on,,29,0,10,,,,,,,,,,,,,,,,8,,58,0
7590,note_on,,1,0,10,,,,,,,,,,,,,,,,8,,60,48
7619,note_on,,59,0,15,,,,,,,,,,,,,,,,15,,55,0
7619,note_on,,59,0,12,,,,,,,,,,,,,,,,11,,64,0
7619,note_on,,59,0,14,,,,,,,,,,,,,,,,13,,55,0
7619,note_on,,59,0,6,,,,,,,,,,,,,,,,2,,55,0
7619,note_on,,59,0,11,,,,,,,,,,,,,,,,10,,67,0
7619,note_on,,59,0,13,,,,,,,,,,,,,,,,12,,58,0
7619,note_on,,29,0,10,,,,,,,,,,,,,,,,8,,60,0
7619,note_on,,0,0,15,,,,,,,,,,,,,,,,15,,64,0
7620,note_on,,1,0,10,,,,,,,,,,,,,,,,8,,58,48
7620,note_on,,1,0,12,,,,,,,,,,,,,,,,11,,72,40
7620,note_on,,541,0,5,,,,,,,,,,,,,,,,0,,72,48
7620,note_on,,1,0,14,,,,,,,,,,,,,,,,13,,51,48
7620,note_on,,1,0,6,,,,,,,,,,,,,,,,2,,51,48
7620,note_on,,1,0,11,,,,,,,,,,,,,,,,10,,79,40
7620,note_on,,1,0,13,,,,,,,,,,,,,,,,12,,64,40
7620,note_on,,0,0,15,,,,,,,,,,,,,,,,15,,67,48
7620,note_on,,541,0,7,,,,,,,,,,,,,,,,5,,72,48
7620,note_on,,1,0,15,,,,,,,,,,,,,,,,15,,51,48
7649,note_on,,29,0,10,,,,,,,,,,,,,,,,8,,58,0
7650,note_on,,1,0,10,,,,,,,,,,,,,,,,8,,60,48
7679,note_on,,59,0,12,,,,,,,,,,,,,,,,11,,72,0
7679,note_on,,59,0,7,,,,,,,,,,,,,,,,5,,72,0
7679,note_on,,0,0,15,,,,,,,,,,,,,,,,15,,67,0
7679,note_on,,59,0,6,,,,,,,,,,,,,,,,2,,51,0
7679,note_on,,29,0,10,,,,,,,,,,,,,,,,8,,60,0
7679,note_on,,59,0,13,,,,,,,,,,,,,,,,12,,64,0
7679,note_on,,59,0,14,,,,,,,,,,,,,,,,13,,51,0
7679,note_on,,59,0,15,,,,,,,,,,,,,,,,15,,58,0
7679,note_on,,59,0,11,,,,,,,,,,,,,,,,10,,79,0
7679,note_on,,59,0,5,,,,,,,,,,,,,,,,0,,72,0
7679,note_on,,0,0,15,,,,,,,,,,,,,,,,15,,51,0
7680,note_on,,1,0,6,,,,,,,,,,,,,,,,2,,53,48
7680,note_on,,1,0,15,,,,,,,,,,,,,,,,15,,53,48
7680,note_on,,1,0,7,,,,,,,,,,,,,,,,5,,65,48
7680,note_on,,0,0,15,,,,,,,,,,,,,,,,15,,60,48
7680,note_on,,0,0,15,,,,,,,,,,,,,,,,15,,57,48
7680,note_on,,1,0,14,,,,,,,,,,,,,,,,13,,53,48
7680,note_on,,1,0,5,,,,,,,,,,,,,,,,0,,65,48
7680,note_on,,1,0,10,,,,,,,,,,,,,,,,8,,57,48
7709,note_on,,29,0,10,,,,,,,,,,,,,,,,8,,57,0
7710,note_on,,1,0,10,,,,,,,,,,,,,,,,8,,55,48
7739,note_on,,29,0,10,,,,,,,,,,,,,,,,8,,55,0
7740,note_on,,1,0,10,,,,,,,,,,,,,,,,8,,53,48
7740,note_on,,61,0,13,,,,,,,,,,,,,,,,12,,69,40
7740,note_on,,61,0,11,,,,,,,,,,,,,,,,10,,81,40
7740,note_on,,61,0,12,,,,,,,,,,,,,,,,11,,72,40
7769,note_on,,89,0,7,,,,,,,,,,,,,,,,5,,65,0
7769,note_on,,89,0,5,,,,,,,,,,,,,,,,0,,65,0
7770,note_on,,1,0,5,,,,,,,,,,,,,,,,0,,67,48
7770,note_on,,1,0,7,,,,,,,,,,,,,,,,5,,67,48
7799,note_on,,29,0,7,,,,,,,,,,,,,,,,5,,67,0
7799,note_on,,59,0,10,,,,,,,,,,,,,,,,8,,53,0
7799,note_on,,59,0,13,,,,,,,,,,,,,,,,12,,69,0
7799,note_on,,59,0,12,,,,,,,,,,,,,,,,11,,72,0
7799,note_on,,59,0,11,,,,,,,,,,,,,,,,10,,81,0
7799,note_on,,29,0,5,,,,,,,,,,,,,,,,0,,67,0
7800,note_on,,1,0,12,,,,,,,,,,,,,,,,11,,72,40
7800,note_on,,1,0,5,,,,,,,,,,,,,,,,0,,69,48
7800,note_on,,1,0,13,,,,,,,,,,,,,,,,12,,69,40
7800,note_on,,1,0,7,,,,,,,,,,,,,,,,5,,69,48
7800,note_on,,1,0,11,,,,,,,,,,,,,,,,10,,77,40
7859,note_on,,59,0,5,,,,,,,,,,,,,,,,0,,69,0
7859,note_on,,59,0,13,,,,,,,,,,,,,,,,12,,69,0
7859,note_on,,179,0,14,,,,,,,,,,,,,,,,13,,53,0
7859,note_on,,59,0,7,,,,,,,,,,,,,,,,5,,69,0
7859,note_on,,59,0,11,,,,,,,,,,,,,,,,10,,77,0
7859,note_on,,59,0,12,,,,,,,,,,,,,,,,11,,72,0
7859,note_on,,0,0,15,,,,,,,,,,,,,,,,15,,57,0
7859,note_on,,0,0,15,,,,,,,,,,,,,,,,15,,60,0
7859,note_on,,179,0,6,,,,,,,,,,,,,,,,2,,53,0
7859,note_on,,179,0,15,,,,,,,,,,,,,,,,15,,53,0
7860,note_on,,1,0,13,,,,,,,,,,,,,,,,12,,57,40
7860,note_on,,1,0,12,,,,,,,,,,,,,,,,11,,65,40
7860,note_on,,0,0,15,,,,,,,,,,,,,,,,15,,60,48
7860,note_on,,781,0,8,,,,,,,,,,,,,,,,6,,65,48
7860,note_on,,0,0,15,,,,,,,,,,,,,,,,15,,65,48
7860,note_on,,1,0,15,,,,,,,,,,,,,,,,15,,57,48
7860,note_on,,1,0,14,,,,,,,,,,,,,,,,13,,57,48
7860,note_on,,1,0,6,,,,,,,,,,,,,,,,2,,57,48
7860,note_on,,1,0,7,,,,,,,,,,,,,,,,5,,67,48
7860,note_on,,1,0,5,,,,,,,,,,,,,,,,0,,67,48
7860,note_on,,1,0,11,,,,,,,,,,,,,,,,10,,72,40
7889,note_on,,29,0,7,,,,,,,,,,,,,,,,5,,67,0
7889,note_on,,29,0,5,,,,,,,,,,,,,,,,0,,67,0
7890,note_on,,1,0,7,,,,,,,,,,,,,,,,5,,65,48
7890,note_on,,1,0,5,,,,,,,,,,,,,,,,0,,65,48
7919,note_on,,29,0,7,,,,,,,,,,,,,,,,5,,65,0
7919,note_on,,29,0,5,,,,,,,,,,,,,,,,0,,65,0
7919,note_on,,59,0,6,,,,,,,,,,,,,,,,2,,57,0
7919,note_on,,59,0,15,,,,,,,,,,,,,,,,15,,57,0
7919,note_on,,59,0,13,,,,,,,,,,,,,,,,12,,57,0
7919,note_on,,59,0,11,,,,,,,,,,,,,,,,10,,72,0
7919,note_on,,59,0,8,,,,,,,,,,,,,,,,6,,65,0
7919,note_on,,0,0,15,,,,,,,,,,,,,,,,15,,60,0
7919,note_on,,59,0,12,,,,,,,,,,,,,,,,11,,65,0
7919,note_on,,59,0,14,,,,,,,,,,,,,,,,13,,57,0
7919,note_on,,0,0,15,,,,,,,,,,,,,,,,15,,65,0
7920,note_on,,1,0,8,,,,,,,,,,,,,,,,6,,64,48
7920,note_on,,1,0,15,,,,,,,,,,,,,,,,15,,48,48
7920,note_on,,1,0,5,,,,,,,,,,,,,,,,0,,72,48
7920,note_on,,1,0,6,,,,,,,,,,,,,,,,2,,48,48
7920,note_on,,1,0,7,,,,,,,,,,,,,,,,5,,72,48
7920,note_on,,0,0,15,,,,,,,,,,,,,,,,15,,60,48
7920,note_on,,0,0,15,,,,,,,,,,,,,,,,15,,64,48
7920,note_on,,1,0,14,,,,,,,,,,,,,,,,13,,48,48
7949,note_on,,29,0,8,,,,,,,,,,,,,,,,6,,64,0
7950,note_on,,1,0,8,,,,,,,,,,,,,,,,6,,62,48
7979,note_on,,59,0,14,,,,,,,,,,,,,,,,13,,48,0
7979,note_on,,0,0,15,,,,,,,,,,,,,,,,15,,60,0
7979,note_on,,0,0,15,,,,,,,,,,,,,,,,15,,64,0
7979,note_on,,59,0,15,,,,,,,,,,,,,,,,15,,48,0
7979,note_on,,29,0,8,,,,,,,,,,,,,,,,6,,62,0
7979,note_on,,59,0,6,,,,,,,,,,,,,,,,2,,48,0
7980,note_on,,61,0,12,,,,,,,,,,,,,,,,11,,67,40
7980,note_on,,1,0,6,,,,,,,,,,,,,,,,2,,52,48
7980,note_on,,61,0,11,,,,,,,,,,,,,,,,10,,72,40
7980,note_on,,61,0,13,,,,,,,,,,,,,,,,12,,64,40
7980,note_on,,1,0,14,,,,,,,,,,,,,,,,13,,52,48
7980,note_on,,1,0,8,,,,,,,,,,,,,,,,6,,60,48
7980,note_on,,0,0,15,,,,,,,,,,,,,,,,15,,60,48
7980,note_on,,0,0,15,,,,,,,,,,,,,,,,15,,67,48
7980,note_on,,1,0,15,,,,,,,,,,,,,,,,15,,52,48
8039,note_on,,59,0,11,,,,,,,,,,,,,,,,10,,72,0
8039,note_on,,59,0,12,,,,,,,,,,,,,,,,11,,67,0
8039,note_on,,0,0,15,,,,,,,,,,,,,,,,15,,67,0
8039,note_on,,59,0,13,,,,,,,,,,,,,,,,12,,64,0
8039,note_on,,59,0,14,,,,,,,,,,,,,,,,13,,52,0
8039,note_on,,59,0,6,,,,,,,,,,,,,,,,2,,52,0
8039,note_on,,59,0,15,,,,,,,,,,,,,,,,15,,52,0
8039,note_on,,0,0,15,,,,,,,,,,,,,,,,15,,60,0
8040,note_on,,1,0,13,,,,,,,,,,,,,,,,12,,60,40
8040,note_on,,1,0,12,,,,,,,,,,,,,,,,11,,65,40
8040,note_on,,1,0,14,,,,,,,,,,,,,,,,13,,53,48
8040,note_on,,1,0,11,,,,,,,,,,,,,,,,10,,69,40
8040,note_on,,1,0,15,,,,,,,,,,,,,,,,15,,53,48
8040,note_on,,0,0,15,,,,,,,,,,,,,,,,15,,65,48
8040,note_on,,0,0,15,,,,,,,,,,,,,,,,15,,60,48
8040,note_on,,1,0,6,,,,,,,,,,,,,,,,2,,53,48
8040,note_on,,0,0,15,,,,,,,,,,,,,,,,15,,69,48
8069,note_on,,149,0,7,,,,,,,,,,,,,,,,5,,72,0
8069,note_on,,149,0,5,,,,,,,,,,,,,,,,0,,72,0
8070,note_on,,1,0,5,,,,,,,,,,,,,,,,0,,74,48
8070,note_on,,1,0,7,,,,,,,,,,,,,,,,5,,74,48
8099,note_on,,59,0,6,,,,,,,,,,,,,,,,2,,53,0
8099,note_on,,59,0,15,,,,,,,,,,,,,,,,15,,53,0
8099,note_on,,29,0,5,,,,,,,,,,,,,,,,0,,74,0
8099,note_on,,59,0,11,,,,,,,,,,,,,,,,10,,69,0
8099,note_on,,119,0,8,,,,,,,,,,,,,,,,6,,60,0
8099,note_on,,29,0,7,,,,,,,,,,,,,,,,5,,74,0
8099,note_on,,59,0,12,,,,,,,,,,,,,,,,11,,65,0
8099,note_on,,59,0,14,,,,,,,,,,,,,,,,13,,53,0
8099,note_on,,59,0,13,,,,,,,,,,,,,,,,12,,60,0
8100,note_on,,1,0,11,,,,,,,,,,,,,,,,10,,65,40
8100,note_on,,1,0,14,,,,,,,,,,,,,,,,13,,41,48
8100,note_on,,1,0,12,,,,,,,,,,,,,,,,11,,60,40
8100,note_on,,1,0,6,,,,,,,,,,,,,,,,2,,41,48
8100,note_on,,1,0,15,,,,,,,,,,,,,,,,15,,41,48
8100,note_on,,1,0,8,,,,,,,,,,,,,,,,6,,69,48
8100,note_on,,1,0,5,,,,,,,,,,,,,,,,0,,72,48
8100,note_on,,1,0,7,,,,,,,,,,,,,,,,5,,72,48
8100,note_on,,1,0,13,,,,,,,,,,,,,,,,12,,57,40
8129,note_on,,29,0,7,,,,,,,,,,,,,,,,5,,72,0
8129,note_on,,29,0,5,,,,,,,,,,,,,,,,0,,72,0
8130,note_on,,1,0,5,,,,,,,,,,,,,,,,0,,74,48
8130,note_on,,1,0,7,,,,,,,,,,,,,,,,5,,74,48
8159,note_on,,59,0,12,,,,,,,,,,,,,,,,11,,60,0
8159,note_on,,59,0,8,,,,,,,,,,,,,,,,6,,69,0
8159,note_on,,0,0,15,,,,,,,,,,,,,,,,15,,41,0
8159,note_on,,29,0,5,,,,,,,,,,,,,,,,0,,74,0
8159,note_on,,0,0,15,,,,,,,,,,,,,,,,15,,60,0
8159,note_on,,0,0,15,,,,,,,,,,,,,,,,15,,65,0
8159,note_on,,59,0,6,,,,,,,,,,,,,,,,2,,41,0
8159,note_on,,59,0,14,,,,,,,,,,,,,,,,13,,41,0
8159,note_on,,59,0,13,,,,,,,,,,,,,,,,12,,57,0
8159,note_on,,59,0,11,,,,,,,,,,,,,,,,10,,65,0
8159,note_on,,59,0,15,,,,,,,,,,,,,,,,15,,69,0
8159,note_on,,29,0,7,,,,,,,,,,,,,,,,5,,74,0
8160,note_on,,0,0,15,,,,,,,,,,,,,,,,15,,65,48
8160,note_on,,1,0,7,,,,,,,,,,,,,,,,5,,70,48
8160,note_on,,0,0,15,,,,,,,,,,,,,,,,15,,58,48
8160,note_on,,1,0,8,,,,,,,,,,,,,,,,6,,67,48
8160,note_on,,1,0,6,,,,,,,,,,,,,,,,2,,43,48
8160,note_on,,1,0,15,,,,,,,,,,,,,,,,15,,43,48
8160,note_on,,1,0,14,,,,,,,,,,,,,,,,13,,43,48
8160,note_on,,0,0,15,,,,,,,,,,,,,,,,15,,67,48
8160,note_on,,1,0,5,,,,,,,,,,,,,,,,0,,70,48
8189,note_on,,29,0,8,,,,,,,,,,,,,,,,6,,67,0
8190,note_on,,1,0,8,,,,,,,,,,,,,,,,6,,65,48
8204,note_on,,44,0,5,,,,,,,,,,,,,,,,0,,70,0
8204,note_on,,44,0,7,,,,,,,,,,,,,,,,5,,70,0
8205,note_on,,1,0,7,,,,,,,,,,,,,,,,5,,69,48
8205,note_on,,1,0,5,,,,,,,,,,,,,,,,0,,69,48
8219,note_on,,59,0,14,,,,,,,,,,,,,,,,13,,43,0
8219,note_on,,29,0,8,,,,,,,,,,,,,,,,6,,65,0
8219,note_on,,59,0,15,,,,,,,,,,,,,,,,15,,43,0
8219,note_on,,0,0,15,,,,,,,,,,,,,,,,15,,65,0
8219,note_on,,14,0,7,,,,,,,,,,,,,,,,5,,69,0
8219,note_on,,14,0,5,,,,,,,,,,,,,,,,0,,69,0
8219,note_on,,59,0,6,,,,,,,,,,,,,,,,2,,43,0
8220,note_on,,61,0,13,,,,,,,,,,,,,,,,12,,58,40
8220,note_on,,1,0,8,,,,,,,,,,,,,,,,6,,64,48
8220,note_on,,1,0,5,,,,,,,,,,,,,,,,0,,70,48
8220,note_on,,1,0,7,,,,,,,,,,,,,,,,5,,70,48
8220,note_on,,1,0,6,,,,,,,,,,,,,,,,2,,55,48
8220,note_on,,1,0,14,,,,,,,,,,,,,,,,13,,55,48
8220,note_on,,61,0,12,,,,,,,,,,,,,,,,11,,64,40
8220,note_on,,61,0,11,,,,,,,,,,,,,,,,10,,67,40
8220,note_on,,1,0,15,,,,,,,,,,,,,,,,15,,55,48
8220,note_on,,0,0,15,,,,,,,,,,,,,,,,15,,64,48
8249,note_on,,29,0,7,,,,,,,,,,,,,,,,5,,70,0
8249,note_on,,29,0,15,,,,,,,,,,,,,,,,15,,64,0
8249,note_on,,29,0,5,,,,,,,,,,,,,,,,0,,70,0
8250,note_on,,1,0,5,,,,,,,,,,,,,,,,0,,72,48
8250,note_on,,1,0,7,,,,,,,,,,,,,,,,5,,72,48
8250,note_on,,1,0,15,,,,,,,,,,,,,,,,15,,62,48
8279,note_on,,29,0,5,,,,,,,,,,,,,,,,0,,72,0
8279,note_on,,59,0,6,,,,,,,,,,,,,,,,2,,55,0
8279,note_on,,59,0,14,,,,,,,,,,,,,,,,13,,55,0
8279,note_on,,59,0,11,,,,,,,,,,,,,,,,10,,67,0
8279,note_on,,29,0,15,,,,,,,,,,,,,,,,15,,58,0
8279,note_on,,29,0,7,,,,,,,,,,,,,,,,5,,72,0
8279,note_on,,0,0,15,,,,,,,,,,,,,,,,15,,55,0
8279,note_on,,0,0,15,,,,,,,,,,,,,,,,15,,62,0
8279,note_on,,59,0,13,,,,,,,,,,,,,,,,12,,58,0
8279,note_on,,59,0,8,,,,,,,,,,,,,,,,6,,64,0
8279,note_on,,59,0,12,,,,,,,,,,,,,,,,11,,64,0
8280,note_on,,1,0,12,,,,,,,,,,,,,,,,11,,67,40
8280,note_on,,1,0,11,,,,,,,,,,,,,,,,10,,64,40
8280,note_on,,1,0,7,,,,,,,,,,,,,,,,5,,70,48
8280,note_on,,1,0,14,,,,,,,,,,,,,,,,13,,60,48
8280,note_on,,1,0,15,,,,,,,,,,,,,,,,15,,60,48
8280,note_on,,1,0,5,,,,,,,,,,,,,,,,0,,70,48
8280,note_on,,1,0,6,,,,,,,,,,,,,,,,2,,60,48
8280,note_on,,1,0,13,,,,,,,,,,,,,,,,12,,60,40
8280,note_on,,0,0,15,,,,,,,,,,,,,,,,15,,64,48
8309,note_on,,29,0,5,,,,,,,,,,,,,,,,0,,70,0
8309,note_on,,29,0,7,,,,,,,,,,,,,,,,5,,70,0
8310,note_on,,1,0,5,,,,,,,,,,,,,,,,0,,72,48
8310,note_on,,1,0,7,,,,,,,,,,,,,,,,5,,72,48
8339,note_on,,29,0,5,,,,,,,,,,,,,,,,0,,72,0
8339,note_on,,59,0,12,,,,,,,,,,,,,,,,11,,67,0
8339,note_on,,59,0,13,,,,,,,,,,,,,,,,12,,60,0
8339,note_on,,29,0,7,,,,,,,,,,,,,,,,5,,72,0
8339,note_on,,59,0,14,,,,,,,,,,,,,,,,13,,60,0
8339,note_on,,59,0,11,,,,,,,,,,,,,,,,10,,64,0
8339,note_on,,0,0,15,,,,,,,,,,,,,,,,15,,64,0
8339,note_on,,59,0,6,,,,,,,,,,,,,,,,2,,60,0
8339,note_on,,59,0,15,,,,,,,,,,,,,,,,15,,67,0
8339,note_on,,0,0,15,,,,,,,,,,,,,,,,15,,60,0
8340,note_on,,0,0,15,,,,,,,,,,,,,,,,15,,72,48
8340,note_on,,61,0,8,,,,,,,,,,,,,,,,6,,64,48
8340,note_on,,0,0,15,,,,,,,,,,,,,,,,15,,67,48
8340,note_on,,0,0,15,,,,,,,,,,,,,,,,15,,64,48
8340,note_on,,1,0,15,,,,,,,,,,,,,,,,15,,48,48
8340,note_on,,1,0,6,,,,,,,,,,,,,,,,2,,48,48
8340,note_on,,1,0,7,,,,,,,,,,,,,,,,5,,70,48
8340,note_on,,1,0,5,,,,,,,,,,,,,,,,0,,70,48
8340,note_on,,1,0,13,,,,,,,,,,,,,,,,12,,70,40
8340,note_on,,1,0,11,,,,,,,,,,,,,,,,10,,67,40
8340,note_on,,1,0,14,,,,,,,,,,,,,,,,13,,48,48
8340,note_on,,1,0,12,,,,,,,,,,,,,,,,11,,64,40
8369,note_on,,29,0,7,,,,,,,,,,,,,,,,5,,70,0
8369,note_on,,29,0,5,,,,,,,,,,,,,,,,0,,70,0
8370,note_on,,1,0,7,,,,,,,,,,,,,,,,5,,72,48
8370,note_on,,1,0,5,,,,,,,,,,,,,,,,0,,72,48
8399,note_on,,0,0,15,,,,,,,,,,,,,,,,15,,72,0
8399,note_on,,29,0,7,,,,,,,,,,,,,,,,5,,72,0
8399,note_on,,59,0,8,,,,,,,,,,,,,,,,6,,64,0
8399,note_on,,59,0,15,,,,,,,,,,,,,,,,15,,48,0
8399,note_on,,29,0,5,,,,,,,,,,,,,,,,0,,72,0
8399,note_on,,0,0,15,,,,,,,,,,,,,,,,15,,67,0
8399,note_on,,0,0,15,,,,,,,,,,,,,,,,15,,64,0
8399,note_on,,59,0,14,,,,,,,,,,,,,,,,13,,48,0
8399,note_on,,59,0,13,,,,,,,,,,,,,,,,12,,70,0
8399,note_on,,59,0,6,,,,,,,,,,,,,,,,2,,48,0
8399,note_on,,59,0,12,,,,,,,,,,,,,,,,11,,64,0
8399,note_on,,59,0,11,,,,,,,,,,,,,,,,10,,67,0
8400,note_on,,1,0,8,,,,,,,,,,,,,,,,6,,65,48
8400,note_on,,0,0,15,,,,,,,,,,,,,,,,15,,65,48
8400,note_on,,1,0,15,,,,,,,,,,,,,,,,15,,41,48
8400,note_on,,1,0,7,,,,,,,,,,,,,,,,5,,69,48
8400,note_on,,1,0,6,,,,,,,,,,,,,,,,2,,41,48
8400,note_on,,0,0,15,,,,,,,,,,,,,,,,15,,69,48
8400,note_on,,1,0,14,,,,,,,,,,,,,,,,13,,41,48
8400,note_on,,1,0,5,,,,,,,,,,,,,,,,0,,69,48
8429,note_on,,29,0,8,,,,,,,,,,,,,,,,6,,65,0
8429,note_on,,29,0,7,,,,,,,,,,,,,,,,5,,69,0
8429,note_on,,29,0,5,,,,,,,,,,,,,,,,0,,69,0
8430,note_on,,1,0,7,,,,,,,,,,,,,,,,5,,67,48
8430,note_on,,1,0,5,,,,,,,,,,,,,,,,0,,67,48
8430,note_on,,1,0,8,,,,,,,,,,,,,,,,6,,67,48
8459,note_on,,29,0,7,,,,,,,,,,,,,,,,5,,67,0
8459,note_on,,29,0,8,,,,,,,,,,,,,,,,6,,67,0
8459,note_on,,59,0,6,,,,,,,,,,,,,,,,2,,41,0
8459,note_on,,59,0,15,,,,,,,,,,,,,,,,15,,41,0
8459,note_on,,59,0,14,,,,,,,,,,,,,,,,13,,41,0
8459,note_on,,29,0,5,,,,,,,,,,,,,,,,0,,67,0
8460,note_on,,1,0,8,,,,,,,,,,,,,,,,6,,69,48
8460,note_on,,61,0,13,,,,,,,,,,,,,,,,12,,65,40
8460,note_on,,61,0,11,,,,,,,,,,,,,,,,10,,69,40
8460,note_on,,61,0,12,,,,,,,,,,,,,,,,11,,65,40
8460,note_on,,1,0,15,,,,,,,,,,,,,,,,15,,50,48
8460,note_on,,1,0,14,,,,,,,,,,,,,,,,13,,50,48
8460,note_on,,1,0,6,,,,,,,,,,,,,,,,2,,50,48
8460,note_on,,1,0,5,,,,,,,,,,,,,,,,0,,65,48
8460,note_on,,1,0,7,,,,,,,,,,,,,,,,5,,65,48
8519,note_on,,59,0,7,,,,,,,,,,,,,,,,5,,65,0
8519,note_on,,0,0,15,,,,,,,,,,,,,,,,15,,65,0
8519,note_on,,59,0,13,,,,,,,,,,,,,,,,12,,65,0
8519,note_on,,59,0,6,,,,,,,,,,,,,,,,2,,50,0
8519,note_on,,59,0,11,,,,,,,,,,,,,,,,10,,69,0
8519,note_on,,59,0,15,,,,,,,,,,,,,,,,15,,69,0
8519,note_on,,0,0,15,,,,,,,,,,,,,,,,15,,50,0
8519,note_on,,59,0,5,,,,,,,,,,,,,,,,0,,65,0
8519,note_on,,59,0,12,,,,,,,,,,,,,,,,11,,65,0
8519,note_on,,59,0,14,,,,,,,,,,,,,,,,13,,50,0
8519,note_on,,59,0,8,,,,,,,,,,,,,,,,6,,69,0
8520,note_on,,1,0,13,,,,,,,,,,,,,,,,12,,61,40
8520,note_on,,1,0,6,,,,,,,,,,,,,,,,2,,49,48
8520,note_on,,1,0,11,,,,,,,,,,,,,,,,10,,57,40
8520,note_on,,1,0,14,,,,,,,,,,,,,,,,13,,49,48
8520,note_on,,1,0,15,,,,,,,,,,,,,,,,15,,49,48
8520,note_on,,0,0,15,,,,,,,,,,,,,,,,15,,76,48
8520,note_on,,0,0,15,,,,,,,,,,,,,,,,15,,69,48
8520,note_on,,1,0,12,,,,,,,,,,,,,,,,11,,64,40
8579,note_on,,59,0,6,,,,,,,,,,,,,,,,2,,49,0
8579,note_on,,59,0,12,,,,,,,,,,,,,,,,11,,64,0
8579,note_on,,59,0,13,,,,,,,,,,,,,,,,12,,61,0
8579,note_on,,0,0,15,,,,,,,,,,,,,,,,15,,69,0
8579,note_on,,0,0,15,,,,,,,,,,,,,,,,15,,76,0
8579,note_on,,59,0,15,,,,,,,,,,,,,,,,15,,49,0
8579,note_on,,59,0,14,,,,,,,,,,,,,,,,13,,49,0
8579,note_on,,59,0,11,,,,,,,,,,,,,,,,10,,57,0
8580,note_on,,61,0,5,,,,,,,,,,,,,,,,0,,74,72
8580,note_on,,1,0,11,,,,,,,,,,,,,,,,10,,81,72
8580,note_on,,781,0,10,,,,,,,,,,,,,,,,8,,53,72
8580,note_on,,1,0,12,,,,,,,,,,,,,,,,11,,62,72
8580,note_on,,1,0,14,,,,,,,,,,,,,,,,13,,53,72
8580,note_on,,1,0,6,,,,,,,,,,,,,,,,2,,53,72
8580,note_on,,61,0,8,,,,,,,,,,,,,,,,6,,69,72
8580,note_on,,0,0,15,,,,,,,,,,,,,,,,15,,65,72
8580,note_on,,0,0,15,,,,,,,,,,,,,,,,15,,69,72
8580,note_on,,0,0,15,,,,,,,,,,,,,,,,15,,74,72
8580,note_on,,1,0,15,,,,,,,,,,,,,,,,15,,53,72
8580,note_on,,61,0,7,,,,,,,,,,,,,,,,5,,74,72
8580,note_on,,1,0,13,,,,,,,,,,,,,,,,12,,74,72
8639,note_on,,59,0,5,,,,,,,,,,,,,,,,0,,74,0
8639,note_on,,59,0,15,,,,,,,,,,,,,,,,15,,53,0
8639,note_on,,0,0,15,,,,,,,,,,,,,,,,15,,74,0
8639,note_on,,0,0,15,,,,,,,,,,,,,,,,15,,65,0
8639,note_on,,59,0,14,,,,,,,,,,,,,,,,13,,53,0
8639,note_on,,0,0,15,,,,,,,,,,,,,,,,15,,69,0
8639,note_on,,59,0,12,,,,,,,,,,,,,,,,11,,62,0
8639,note_on,,59,0,10,,,,,,,,,,,,,,,,8,,53,0
8639,note_on,,59,0,6,,,,,,,,,,,,,,,,2,,53,0
8639,note_on,,59,0,7,,,,,,,,,,,,,,,,5,,74,0
8639,note_on,,59,0,8,,,,,,,,,,,,,,,,6,,69,0
8639,note_on,,59,0,13,,,,,,,,,,,,,,,,12,,74,0
8639,note_on,,59,0,11,,,,,,,,,,,,,,,,10,,81,0
8640,note_on,,1,0,12,,,,,,,,,,,,,,,,11,,73,72
8640,note_on,,1,0,5,,,,,,,,,,,,,,,,0,,73,72
8640,note_on,,0,0,15,,,,,,,,,,,,,,,,15,,67,72
8640,note_on,,0,0,15,,,,,,,,,,,,,,,,15,,73,72
8640,note_on,,0,0,15,,,,,,,,,,,,,,,,15,,76,72
8640,note_on,,1,0,15,,,,,,,,,,,,,,,,15,,52,72
8640,note_on,,1,0,13,,,,,,,,,,,,,,,,12,,67,72
8640,note_on,,1,0,10,,,,,,,,,,,,,,,,8,,52,72
8640,note_on,,1,0,14,,,,,,,,,,,,,,,,13,,52,72
8640,note_on,,1,0,11,,,,,,,,,,,,,,,,10,,79,72
8640,note_on,,1,0,8,,,,,,,,,,,,,,,,6,,67,72
8640,note_on,,1,0,6,,,,,,,,,,,,,,,,2,,52,72
8640,note_on,,1,0,7,,,,,,,,,,,,,,,,5,,73,72
8699,note_on,,59,0,7,,,,,,,,,,,,,,,,5,,73,0
8699,note_on,,59,0,10,,,,,,,,,,,,,,,,8,,52,0
8699,note_on,,59,0,12,,,,,,,,,,,,,,,,11,,73,0
8699,note_on,,59,0,5,,,,,,,,,,,,,,,,0,,73,0
8699,note_on,,0,0,15,,,,,,,,,,,,,,,,15,,67,0
8699,note_on,,0,0,15,,,,,,,,,,,,,,,,15,,73,0
8699,note_on,,0,0,15,,,,,,,,,,,,,,,,15,,76,0
8699,note_on,,59,0,15,,,,,,,,,,,,,,,,15,,52,0
8699,note_on,,59,0,6,,,,,,,,,,,,,,,,2,,52,0
8699,note_on,,59,0,11,,,,,,,,,,,,,,,,10,,79,0
8699,note_on,,59,0,13,,,,,,,,,,,,,,,,12,,67,0
8699,note_on,,59,0,8,,,,,,,,,,,,,,,,6,,67,0
8699,note_on,,59,0,14,,,,,,,,,,,,,,,,13,,52,0
8700,note_on,,1,0,5,,,,,,,,,,,,,,,,0,,74,72
8700,note_on,,1,0,12,,,,,,,,,,,,,,,,11,,74,72
8700,note_on,,1,0,14,,,,,,,,,,,,,,,,13,,50,72
8700,note_on,,1,0,6,,,,,,,,,,,,,,,,2,,50,72
8700,note_on,,1,0,11,,,,,,,,,,,,,,,,10,,77,72
8700,note_on,,1,0,10,,,,,,,,,,,,,,,,8,,50,72
8700,note_on,,1,0,7,,,,,,,,,,,,,,,,5,,74,72
8700,note_on,,1,0,13,,,,,,,,,,,,,,,,12,,69,72
8700,note_on,,0,0,15,,,,,,,,,,,,,,,,15,,74,72
8700,note_on,,0,0,15,,,,,,,,,,,,,,,,15,,69,72
8700,note_on,,1,0,8,,,,,,,,,,,,,,,,6,,65,72
8700,note_on,,1,0,15,,,,,,,,,,,,,,,,15,,50,72
8700,note_on,,0,0,15,,,,,,,,,,,,,,,,15,,77,72
8729,note_on,,29,0,7,,,,,,,,,,,,,,,,5,,74,0
8729,note_on,,29,0,8,,,,,,,,,,,,,,,,6,,65,0
8729,note_on,,29,0,12,,,,,,,,,,,,,,,,11,,74,0
8729,note_on,,29,0,5,,,,,,,,,,,,,,,,0,,74,0
8729,note_on,,29,0,11,,,,,,,,,,,,,,,,10,,77,0
8730,note_on,,1,0,11,,,,,,,,,,,,,,,,10,,76,72
8730,note_on,,1,0,12,,,,,,,,,,,,,,,,11,,76,72
8730,note_on,,1,0,7,,,,,,,,,,,,,,,,5,,76,72
8730,note_on,,1,0,5,,,,,,,,,,,,,,,,0,,76,72
8730,note_on,,1,0,8,,,,,,,,,,,,,,,,6,,64,72
8759,note_on,,29,0,8,,,,,,,,,,,,,,,,6,,64,0
8759,note_on,,29,0,5,,,,,,,,,,,,,,,,0,,76,0
8759,note_on,,29,0,11,,,,,,,,,,,,,,,,10,,76,0
8759,note_on,,0,0,15,,,,,,,,,,,,,,,,15,,69,0
8759,note_on,,59,0,14,,,,,,,,,,,,,,,,13,,50,0
8759,note_on,,0,0,15,,,,,,,,,,,,,,,,15,,74,0
8759,note_on,,59,0,10,,,,,,,,,,,,,,,,8,,50,0
8759,note_on,,59,0,15,,,,,,,,,,,,,,,,15,,50,0
8759,note_on,,0,0,15,,,,,,,,,,,,,,,,15,,77,0
8759,note_on,,59,0,13,,,,,,,,,,,,,,,,12,,69,0
8759,note_on,,59,0,6,,,,,,,,,,,,,,,,2,,50,0
8759,note_on,,29,0,12,,,,,,,,,,,,,,,,11,,76,0
8759,note_on,,29,0,7,,,,,,,,,,,,,,,,5,,76,0
8760,note_on,,1,0,8,,,,,,,,,,,,,,,,6,,64,72
8760,note_on,,1,0,6,,,,,,,,,,,,,,,,2,,57,72
8760,note_on,,1,0,12,,,,,,,,,,,,,,,,11,,73,72
8760,note_on,,1,0,14,,,,,,,,,,,,,,,,13,,57,72
8760,note_on,,1,0,11,,,,,,,,,,,,,,,,10,,76,72
8760,note_on,,1,0,7,,,,,,,,,,,,,,,,5,,73,72
8760,note_on,,1,0,15,,,,,,,,,,,,,,,,15,,57,72
8760,note_on,,0,0,15,,,,,,,,,,,,,,,,15,,76,72
8760,note_on,,0,0,15,,,,,,,,,,,,,,,,15,,73,72
8760,note_on,,0,0,15,,,,,,,,,,,,,,,,15,,69,72
8760,note_on,,1,0,5,,,,,,,,,,,,,,,,0,,73,72
8760,note_on,,1,0,13,,,,,,,,,,,,,,,,12,,69,72
8760,note_on,,1,0,10,,,,,,,,,,,,,,,,8,,57,72
8774,note_on,,14,0,12,,,,,,,,,,,,,,,,11,,73,0
8774,note_on,,14,0,11,,,,,,,,,,,,,,,,10,,76,0
8775,note_on,,1,0,11,,,,,,,,,,,,,,,,10,,77,72
8775,note_on,,1,0,12,,,,,,,,,,,,,,,,11,,74,72
8789,note_on,,14,0,12,,,,,,,,,,,,,,,,11,,74,0
8789,note_on,,14,0,11,,,,,,,,,,,,,,,,10,,77,0
8790,note_on,,1,0,11,,,,,,,,,,,,,,,,10,,76,72
8790,note_on,,1,0,12,,,,,,,,,,,,,,,,11,,73,72
8804,note_on,,14,0,11,,,,,,,,,,,,,,,,10,,76,0
8804,note_on,,14,0,12,,,,,,,,,,,,,,,,11,,73,0
8805,note_on,,1,0,11,,,,,,,,,,,,,,,,10,,77,72
8805,note_on,,1,0,12,,,,,,,,,,,,,,,,11,,74,72
8819,note_on,,59,0,10,,,,,,,,,,,,,,,,8,,57,0
8819,note_on,,14,0,11,,,,,,,,,,,,,,,,10,,77,0
8819,note_on,,59,0,15,,,,,,,,,,,,,,,,15,,57,0
8819,note_on,,0,0,15,,,,,,,,,,,,,,,,15,,76,0
8819,note_on,,59,0,14,,,,,,,,,,,,,,,,13,,57,0
8819,note_on,,59,0,6,,,,,,,,,,,,,,,,2,,57,0
8819,note_on,,59,0,13,,,,,,,,,,,,,,,,12,,69,0
8819,note_on,,14,0,12,,,,,,,,,,,,,,,,11,,74,0
8819,note_on,,0,0,15,,,,,,,,,,,,,,,,15,,69,0
8819,note_on,,0,0,15,,,,,,,,,,,,,,,,15,,73,0
8820,note_on,,1,0,10,,,,,,,,,,,,,,,,8,,55,72
8820,note_on,,1,0,13,,,,,,,,,,,,,,,,12,,69,72
8820,note_on,,1,0,15,,,,,,,,,,,,,,,,15,,55,72
8820,note_on,,1741,0,9,,,,,,,,,,,,,,,,7,,57,48
8820,note_on,,0,0,15,,,,,,,,,,,,,,,,15,,73,72
8820,note_on,,1,0,12,,,,,,,,,,,,,,,,11,,70,72
8820,note_on,,0,0,15,,,,,,,,,,,,,,,,15,,69,72
8820,note_on,,1,0,14,,,,,,,,,,,,,,,,13,,55,72
8820,note_on,,0,0,15,,,,,,,,,,,,,,,,15,,63,72
8820,note_on,,1,0,6,,,,,,,,,,,,,,,,2,,55,72
8820,note_on,,1,0,11,,,,,,,,,,,,,,,,10,,74,72
8834,note_on,,14,0,11,,,,,,,,,,,,,,,,10,,74,0
8834,note_on,,14,0,12,,,,,,,,,,,,,,,,11,,70,0
8835,note_on,,1,0,11,,,,,,,,,,,,,,,,10,,76,72
8835,note_on,,1,0,12,,,,,,,,,,,,,,,,11,,73,72
8849,note_on,,89,0,5,,,,,,,,,,,,,,,,0,,73,0
8849,note_on,,89,0,7,,,,,,,,,,,,,,,,5,,73,0
8849,note_on,,14,0,11,,,,,,,,,,,,,,,,10,,76,0
8849,note_on,,89,0,8,,,,,,,,,,,,,,,,6,,64,0
8849,note_on,,14,0,12,,,,,,,,,,,,,,,,11,,73,0
8850,note_on,,1,0,11,,,,,,,,,,,,,,,,10,,74,72
8850,note_on,,1,0,8,,,,,,,,,,,,,,,,6,,62,72
8850,note_on,,1,0,12,,,,,,,,,,,,,,,,11,,74,72
8850,note_on,,1,0,7,,,,,,,,,,,,,,,,5,,74,72
8850,note_on,,1,0,5,,,,,,,,,,,,,,,,0,,74,72
8879,note_on,,59,0,15,,,,,,,,,,,,,,,,15,,55,0
8879,note_on,,0,0,15,,,,,,,,,,,,,,,,15,,73,0
8879,note_on,,59,0,14,,,,,,,,,,,,,,,,13,,55,0
8879,note_on,,29,0,7,,,,,,,,,,,,,,,,5,,74,0
8879,note_on,,29,0,12,,,,,,,,,,,,,,,,11,,74,0
8879,note_on,,0,0,15,,,,,,,,,,,,,,,,15,,69,0
8879,note_on,,29,0,11,,,,,,,,,,,,,,,,10,,74,0
8879,note_on,,59,0,10,,,,,,,,,,,,,,,,8,,55,0
8879,note_on,,59,0,13,,,,,,,,,,,,,,,,12,,69,0
8879,note_on,,59,0,6,,,,,,,,,,,,,,,,2,,55,0
8879,note_on,,59,0,9,,,,,,,,,,,,,,,,7,,57,0
8879,note_on,,0,0,15,,,,,,,,,,,,,,,,15,,63,0
8879,note_on,,29,0,8,,,,,,,,,,,,,,,,6,,62,0
8879,note_on,,29,0,5,,,,,,,,,,,,,,,,0,,74,0
8880,note_on,,1,0,12,,,,,,,,,,,,,,,,11,,74,72
8880,note_on,,1,0,7,,,,,,,,,,,,,,,,5,,74,72
8880,note_on,,1,0,9,,,,,,,,,,,,,,,,7,,62,48
8880,note_on,,1,0,13,,,,,,,,,,,,,,,,12,,69,72
8880,note_on,,1,0,8,,,,,,,,,,,,,,,,6,,62,72
8880,note_on,,1,0,10,,,,,,,,,,,,,,,,8,,53,72
8880,note_on,,1,0,6,,,,,,,,,,,,,,,,2,,53,72
8880,note_on,,1,0,5,,,,,,,,,,,,,,,,0,,74,72
8880,note_on,,1,0,11,,,,,,,,,,,,,,,,10,,74,72
8880,note_on,,1,0,14,,,,,,,,,,,,,,,,13,,53,72
8880,note_on,,1,0,15,,,,,,,,,,,,,,,,15,,69,72
8880,note_on,,0,0,15,,,,,,,,,,,,,,,,15,,53,72
8880,note_on,,0,0,15,,,,,,,,,,,,,,,,15,,74,72
8880,note_on,,0,0,15,,,,,,,,,,,,,,,,15,,62,72
8909,note_on,,29,0,10,,,,,,,,,,,,,,,,8,,53,0
8910,note_on,,1,0,10,,,,,,,,,,,,,,,,8,,52,72
8939,note_on,,29,0,10,,,,,,,,,,,,,,,,8,,52,0
8939,note_on,,59,0,15,,,,,,,,,,,,,,,,15,,53,0
8939,note_on,,59,0,6,,,,,,,,,,,,,,,,2,,53,0
8939,note_on,,59,0,14,,,,,,,,,,,,,,,,13,,53,0
8940,note_on,,1,0,10,,,,,,,,,,,,,,,,8,,50,72
8940,note_on,,1,0,15,,,,,,,,,,,,,,,,15,,50,72
8940,note_on,,1,0,14,,,,,,,,,,,,,,,,13,,50,72
8940,note_on,,1,0,6,,,,,,,,,,,,,,,,2,,50,72
8969,note_on,,89,0,9,,,,,,,,,,,,,,,,7,,62,0
8970,note_on,,1,0,9,,,,,,,,,,,,,,,,7,,64,48
8999,note_on,,0,0,15,,,,,,,,,,,,,,,,15,,74,0
8999,note_on,,59,0,15,,,,,,,,,,,,,,,,15,,69,0
8999,note_on,,119,0,12,,,,,,,,,,,,,,,,11,,74,0
8999,note_on,,59,0,6,,,,,,,,,,,,,,,,2,,50,0
8999,note_on,,119,0,13,,,,,,,,,,,,,,,,12,,69,0
8999,note_on,,119,0,8,,,,,,,,,,,,,,,,6,,62,0
8999,note_on,,119,0,11,,,,,,,,,,,,,,,,10,,74,0
8999,note_on,,59,0,10,,,,,,,,,,,,,,,,8,,50,0
8999,note_on,,59,0,14,,,,,,,,,,,,,,,,13,,50,0
8999,note_on,,29,0,9,,,,,,,,,,,,,,,,7,,64,0
8999,note_on,,0,0,15,,,,,,,,,,,,,,,,15,,62,0
8999,note_on,,0,0,15,,,,,,,,,,,,,,,,15,,50,0
8999,note_on,,119,0,5,,,,,,,,,,,,,,,,0,,74,0
8999,note_on,,119,0,7,,,,,,,,,,,,,,,,5,,74,0
9000,note_on,,1,0,6,,,,,,,,,,,,,,,,2,,62,48
9000,note_on,,1,0,14,,,,,,,,,,,,,,,,13,,62,48
9000,note_on,,1,0,9,,,,,,,,,,,,,,,,7,,65,48
9000,note_on,,0,0,15,,,,,,,,,,,,,,,,15,,69,48
9000,note_on,,1,0,15,,,,,,,,,,,,,,,,15,,62,48
9000,note_on,,0,0,15,,,,,,,,,,,,,,,,15,,65,48
9059,note_on,,59,0,14,,,,,,,,,,,,,,,,13,,62,0
9059,note_on,,59,0,6,,,,,,,,,,,,,,,,2,,62,0
9059,note_on,,59,0,9,,,,,,,,,,,,,,,,7,,65,0
9059,note_on,,59,0,15,,,,,,,,,,,,,,,,15,,62,0
9060,note_on,,1,0,14,,,,,,,,,,,,,,,,13,,65,48
9060,note_on,,1,0,6,,,,,,,,,,,,,,,,2,,65,48
9060,note_on,,1,0,9,,,,,,,,,,,,,,,,7,,64,48
9060,note_on,,1,0,15,,,,,,,,,,,,,,,,15,,65,48
9089,note_on,,29,0,9,,,,,,,,,,,,,,,,7,,64,0
9090,note_on,,1,0,9,,,,,,,,,,,,,,,,7,,62,48
9119,note_on,,0,0,15,,,,,,,,,,,,,,,,15,,65,0
9119,note_on,,59,0,6,,,,,,,,,,,,,,,,2,,65,0
9119,note_on,,59,0,15,,,,,,,,,,,,,,,,15,,69,0
9119,note_on,,29,0,9,,,,,,,,,,,,,,,,7,,62,0
9119,note_on,,59,0,14,,,,,,,,,,,,,,,,13,,65,0
9119,note_on,,0,0,15,,,,,,,,,,,,,,,,15,,65,0
9120,note_on,,0,0,15,,,,,,,,,,,,,,,,15,,74,48
9120,note_on,,1,0,15,,,,,,,,,,,,,,,,15,,59,48
9120,note_on,,1,0,9,,,,,,,,,,,,,,,,7,,67,48
9120,note_on,,1,0,14,,,,,,,,,,,,,,,,13,,59,48
9120,note_on,,0,0,15,,,,,,,,,,,,,,,,15,,62,48
9120,note_on,,1,0,6,,,,,,,,,,,,,,,,2,,59,48
9120,note_on,,0,0,15,,,,,,,,,,,,,,,,15,,67,48
9179,note_on,,59,0,14,,,,,,,,,,,,,,,,13,,59,0
9179,note_on,,59,0,15,,,,,,,,,,,,,,,,15,,59,0
9179,note_on,,0,0,15,,,,,,,,,,,,,,,,15,,62,0
9179,note_on,,0,0,15,,,,,,,,,,,,,,,,15,,74,0
9179,note_on,,0,0,15,,,,,,,,,,,,,,,,15,,67,0
9179,note_on,,59,0,6,,,,,,,,,,,,,,,,2,,59,0
9180,note_on,,181,0,13,,,,,,,,,,,,,,,,12,,67,40
9180,note_on,,0,0,15,,,,,,,,,,,,,,,,15,,67,48
9180,note_on,,0,0,15,,,,,,,,,,,,,,,,15,,62,48
9180,note_on,,0,0,15,,,,,,,,,,,,,,,,15,,71,48
9180,note_on,,181,0,12,,,,,,,,,,,,,,,,11,,71,40
9180,note_on,,181,0,11,,,,,,,,,,,,,,,,10,,74,40
9180,note_on,,1,0,6,,,,,,,,,,,,,,,,2,,55,48
9180,note_on,,1,0,14,,,,,,,,,,,,,,,,13,,55,48
9180,note_on,,1,0,15,,,,,,,,,,,,,,,,15,,55,48
9239,note_on,,59,0,14,,,,,,,,,,,,,,,,13,,55,0
9239,note_on,,59,0,12,,,,,,,,,,,,,,,,11,,71,0
9239,note_on,,59,0,11,,,,,,,,,,,,,,,,10,,74,0
9239,note_on,,59,0,13,,,,,,,,,,,,,,,,12,,67,0
9239,note_on,,59,0,6,,,,,,,,,,,,,,,,2,,55,0
9239,note_on,,0,0,15,,,,,,,,,,,,,,,,15,,62,0
9239,note_on,,0,0,15,,,,,,,,,,,,,,,,15,,67,0
9239,note_on,,0,0,15,,,,,,,,,,,,,,,,15,,71,0
9239,note_on,,59,0,15,,,,,,,,,,,,,,,,15,,55,0
9240,note_on,,1,0,13,,,,,,,,,,,,,,,,12,,67,40
9240,note_on,,1,0,14,,,,,,,,,,,,,,,,13,,60,48
9240,note_on,,0,0,15,,,,,,,,,,,,,,,,15,,63,48
9240,note_on,,0,0,15,,,,,,,,,,,,,,,,15,,67,48
9240,note_on,,1,0,12,,,,,,,,,,,,,,,,11,,72,40
9240,note_on,,1,0,11,,,,,,,,,,,,,,,,10,,75,40
9240,note_on,,1,0,15,,,,,,,,,,,,,,,,15,,60,48
9240,note_on,,1,0,6,,,,,,,,,,,,,,,,2,,60,48
9269,note_on,,149,0,9,,,,,,,,,,,,,,,,7,,67,0
9270,note_on,,1,0,9,,,,,,,,,,,,,,,,7,,68,48
9299,note_on,,59,0,13,,,,,,,,,,,,,,,,12,,67,0
9299,note_on,,29,0,9,,,,,,,,,,,,,,,,7,,68,0
9299,note_on,,59,0,6,,,,,,,,,,,,,,,,2,,60,0
9299,note_on,,59,0,11,,,,,,,,,,,,,,,,10,,75,0
9299,note_on,,59,0,15,,,,,,,,,,,,,,,,15,,60,0
9299,note_on,,59,0,12,,,,,,,,,,,,,,,,11,,72,0
9299,note_on,,59,0,14,,,,,,,,,,,,,,,,13,,60,0
9300,note_on,,1,0,12,,,,,,,,,,,,,,,,11,,67,40
9300,note_on,,1,0,6,,,,,,,,,,,,,,,,2,,51,48
9300,note_on,,1,0,14,,,,,,,,,,,,,,,,13,,51,48
9300,note_on,,1,0,11,,,,,,,,,,,,,,,,10,,72,40
9300,note_on,,1,0,9,,,,,,,,,,,,,,,,7,,67,48
9300,note_on,,1,0,15,,,,,,,,,,,,,,,,15,,51,48
9300,note_on,,1,0,13,,,,,,,,,,,,,,,,12,,63,40
9329,note_on,,29,0,9,,,,,,,,,,,,,,,,7,,67,0
9330,note_on,,1,0,9,,,,,,,,,,,,,,,,7,,68,48
9359,note_on,,59,0,12,,,,,,,,,,,,,,,,11,,67,0
9359,note_on,,59,0,6,,,,,,,,,,,,,,,,2,,51,0
9359,note_on,,59,0,15,,,,,,,,,,,,,,,,15,,67,0
9359,note_on,,0,0,15,,,,,,,,,,,,,,,,15,,51,0
9359,note_on,,59,0,14,,,,,,,,,,,,,,,,13,,51,0
9359,note_on,,59,0,13,,,,,,,,,,,,,,,,12,,63,0
9359,note_on,,29,0,9,,,,,,,,,,,,,,,,7,,68,0
9359,note_on,,0,0,15,,,,,,,,,,,,,,,,15,,63,0
9359,note_on,,59,0,11,,,,,,,,,,,,,,,,10,,72,0
9360,note_on,,1,0,15,,,,,,,,,,,,,,,,15,,50,48
9360,note_on,,0,0,15,,,,,,,,,,,,,,,,15,,68,48
9360,note_on,,0,0,15,,,,,,,,,,,,,,,,15,,65,48
9360,note_on,,1,0,6,,,,,,,,,,,,,,,,2,,50,48
9360,note_on,,1,0,9,,,,,,,,,,,,,,,,7,,65,48
9360,note_on,,1,0,14,,,,,,,,,,,,,,,,13,,50,48
9404,note_on,,44,0,9,,,,,,,,,,,,,,,,7,,65,0
9405,note_on,,1,0,9,,,,,,,,,,,,,,,,7,,63,48
9419,note_on,,59,0,6,,,,,,,,,,,,,,,,2,,50,0
9419,note_on,,14,0,9,,,,,,,,,,,,,,,,7,,63,0
9419,note_on,,59,0,15,,,,,,,,,,,,,,,,15,,50,0
9419,note_on,,59,0,14,,,,,,,,,,,,,,,,13,,50,0
9420,note_on,,1,0,6,,,,,,,,,,,,,,,,2,,62,48
9420,note_on,,61,0,13,,,,,,,,,,,,,,,,12,,65,40
9420,note_on,,1,0,14,,,,,,,,,,,,,,,,13,,62,48
9420,note_on,,1,0,15,,,,,,,,,,,,,,,,15,,62,48
9420,note_on,,1,0,9,,,,,,,,,,,,,,,,7,,65,48
9420,note_on,,61,0,12,,,,,,,,,,,,,,,,11,,68,40
9420,note_on,,61,0,11,,,,,,,,,,,,,,,,10,,72,40
9449,note_on,,29,0,9,,,,,,,,,,,,,,,,7,,65,0
9450,note_on,,1,0,9,,,,,,,,,,,,,,,,7,,67,48
9479,note_on,,59,0,6,,,,,,,,,,,,,,,,2,,62,0
9479,note_on,,59,0,15,,,,,,,,,,,,,,,,15,,68,0
9479,note_on,,0,0,15,,,,,,,,,,,,,,,,15,,62,0
9479,note_on,,0,0,15,,,,,,,,,,,,,,,,15,,65,0
9479,note_on,,59,0,14,,,,,,,,,,,,,,,,13,,62,0
9479,note_on,,59,0,11,,,,,,,,,,,,,,,,10,,72,0
9479,note_on,,59,0,12,,,,,,,,,,,,,,,,11,,68,0
9479,note_on,,29,0,9,,,,,,,,,,,,,,,,7,,67,0
9479,note_on,,59,0,13,,,,,,,,,,,,,,,,12,,65,0
9480,note_on,,0,0,15,,,,,,,,,,,,,,,,15,,67,48
9480,note_on,,0,0,15,,,,,,,,,,,,,,,,15,,59,48
9480,note_on,,1,0,14,,,,,,,,,,,,,,,,13,,55,48
9480,note_on,,1,0,15,,,,,,,,,,,,,,,,15,,55,48
9480,note_on,,1,0,13,,,,,,,,,,,,,,,,12,,62,40
9480,note_on,,1,0,6,,,,,,,,,,,,,,,,2,,55,48
9480,note_on,,1,0,11,,,,,,,,,,,,,,,,10,,71,40
9480,note_on,,1,0,12,,,,,,,,,,,,,,,,11,,67,40
9480,note_on,,1,0,9,,,,,,,,,,,,,,,,7,,65,48
9480,note_on,,0,0,15,,,,,,,,,,,,,,,,15,,62,48
9509,note_on,,29,0,9,,,,,,,,,,,,,,,,7,,65,0
9510,note_on,,1,0,9,,,,,,,,,,,,,,,,7,,67,48
9539,note_on,,59,0,15,,,,,,,,,,,,,,,,15,,55,0
9539,note_on,,0,0,15,,,,,,,,,,,,,,,,15,,62,0
9539,note_on,,59,0,11,,,,,,,,,,,,,,,,10,,71,0
9539,note_on,,59,0,13,,,,,,,,,,,,,,,,12,,62,0
9539,note_on,,59,0,6,,,,,,,,,,,,,,,,2,,55,0
9539,note_on,,0,0,15,,,,,,,,,,,,,,,,15,,59,0
9539,note_on,,59,0,14,,,,,,,,,,,,,,,,13,,55,0
9539,note_on,,0,0,15,,,,,,,,,,,,,,,,15,,67,0
9539,note_on,,29,0,9,,,,,,,,,,,,,,,,7,,67,0
9539,note_on,,59,0,12,,,,,,,,,,,,,,,,11,,67,0
9540,note_on,,0,0,15,,,,,,,,,,,,,,,,15,,74,48
9540,note_on,,1,0,15,,,,,,,,,,,,,,,,15,,59,48
9540,note_on,,1,0,14,,,,,,,,,,,,,,,,13,,59,48
9540,note_on,,0,0,15,,,,,,,,,,,,,,,,15,,62,48
9540,note_on,,1,0,13,,,,,,,,,,,,,,,,12,,62,40
9540,note_on,,1,0,11,,,,,,,,,,,,,,,,10,,74,40
9540,note_on,,1,0,12,,,,,,,,,,,,,,,,11,,67,40
9540,note_on,,541,0,5,,,,,,,,,,,,,,,,0,,67,48
9540,note_on,,0,0,15,,,,,,,,,,,,,,,,15,,67,48
9540,note_on,,1,0,9,,,,,,,,,,,,,,,,7,,65,48
9540,note_on,,1,0,6,,,,,,,,,,,,,,,,2,,59,48
9540,note_on,,541,0,7,,,,,,,,,,,,,,,,5,,67,48
9569,note_on,,29,0,9,,,,,,,,,,,,,,,,7,,65,0
9570,note_on,,1,0,9,,,,,,,,,,,,,,,,7,,67,48
9599,note_on,,29,0,9,,,,,,,,,,,,,,,,7,,67,0
9599,note_on,,59,0,6,,,,,,,,,,,,,,,,2,,59,0
9599,note_on,,59,0,15,,,,,,,,,,,,,,,,15,,59,0
9599,note_on,,59,0,13,,,,,,,,,,,,,,,,12,,62,0
9599,note_on,,59,0,5,,,,,,,,,,,,,,,,0,,67,0
9599,note_on,,59,0,12,,,,,,,,,,,,,,,,11,,67,0
9599,note_on,,59,0,14,,,,,,,,,,,,,,,,13,,59,0
9599,note_on,,59,0,11,,,,,,,,,,,,,,,,10,,74,0
9599,note_on,,59,0,7,,,,,,,,,,,,,,,,5,,67,0
9599,note_on,,0,0,15,,,,,,,,,,,,,,,,15,,62,0
9599,note_on,,0,0,15,,,,,,,,,,,,,,,,15,,67,0
9599,note_on,,0,0,15,,,,,,,,,,,,,,,,15,,74,0
9600,note_on,,1,0,14,,,,,,,,,,,,,,,,13,,48,48
9600,note_on,,0,0,15,,,,,,,,,,,,,,,,15,,60,48
9600,note_on,,0,0,15,,,,,,,,,,,,,,,,15,,75,48
9600,note_on,,0,0,15,,,,,,,,,,,,,,,,15,,72,48
9600,note_on,,1,0,7,,,,,,,,,,,,,,,,5,,72,48
9600,note_on,,1,0,6,,,,,,,,,,,,,,,,2,,48,48
9600,note_on,,1,0,9,,,,,,,,,,,,,,,,7,,63,48
9600,note_on,,1,0,15,,,,,,,,,,,,,,,,15,,48,48
9600,note_on,,1,0,5,,,,,,,,,,,,,,,,0,,72,48
9629,note_on,,29,0,9,,,,,,,,,,,,,,,,7,,63,0
9630,note_on,,1,0,9,,,,,,,,,,,,,,,,7,,62,48
9659,note_on,,59,0,14,,,,,,,,,,,,,,,,13,,48,0
9659,note_on,,0,0,15,,,,,,,,,,,,,,,,15,,60,0
9659,note_on,,59,0,15,,,,,,,,,,,,,,,,15,,48,0
9659,note_on,,29,0,9,,,,,,,,,,,,,,,,7,,62,0
9659,note_on,,59,0,6,,,,,,,,,,,,,,,,2,,48,0
9660,note_on,,61,0,11,,,,,,,,,,,,,,,,10,,72,40
9660,note_on,,0,0,15,,,,,,,,,,,,,,,,15,,67,48
9660,note_on,,1,0,14,,,,,,,,,,,,,,,,13,,63,48
9660,note_on,,1,0,15,,,,,,,,,,,,,,,,15,,63,48
9660,note_on,,61,0,13,,,,,,,,,,,,,,,,12,,63,40
9660,note_on,,61,0,12,,,,,,,,,,,,,,,,11,,67,40
9660,note_on,,1,0,9,,,,,,,,,,,,,,,,7,,60,48
9660,note_on,,1,0,6,,,,,,,,,,,,,,,,2,,63,48
9689,note_on,,89,0,5,,,,,,,,,,,,,,,,0,,72,0
9689,note_on,,89,0,7,,,,,,,,,,,,,,,,5,,72,0
9690,note_on,,1,0,7,,,,,,,,,,,,,,,,5,,74,48
9690,note_on,,1,0,5,,,,,,,,,,,,,,,,0,,74,48
9719,note_on,,59,0,9,,,,,,,,,,,,,,,,7,,60,0
9719,note_on,,59,0,12,,,,,,,,,,,,,,,,11,,67,0
9719,note_on,,59,0,14,,,,,,,,,,,,,,,,13,,63,0
9719,note_on,,59,0,11,,,,,,,,,,,,,,,,10,,72,0
9719,note_on,,59,0,15,,,,,,,,,,,,,,,,15,,63,0
9719,note_on,,0,0,15,,,,,,,,,,,,,,,,15,,67,0
9719,note_on,,59,0,13,,,,,,,,,,,,,,,,12,,63,0
9719,note_on,,29,0,5,,,,,,,,,,,,,,,,0,,74,0
9719,note_on,,59,0,6,,,,,,,,,,,,,,,,2,,63,0
9719,note_on,,29,0,7,,,,,,,,,,,,,,,,5,,74,0
9720,note_on,,1,0,11,,,,,,,,,,,,,,,,10,,72,40
9720,note_on,,1,0,6,,,,,,,,,,,,,,,,2,,60,48
9720,note_on,,1,0,7,,,,,,,,,,,,,,,,5,,75,48
9720,note_on,,1,0,12,,,,,,,,,,,,,,,,11,,63,40
9720,note_on,,0,0,15,,,,,,,,,,,,,,,,15,,63,48
9720,note_on,,1,0,13,,,,,,,,,,,,,,,,12,,63,40
9720,note_on,,1,0,15,,,,,,,,,,,,,,,,15,,60,48
9720,note_on,,1,0,5,,,,,,,,,,,,,,,,0,,75,48
9720,note_on,,1,0,14,,,,,,,,,,,,,,,,13,,60,48
9779,note_on,,59,0,15,,,,,,,,,,,,,,,,15,,60,0
9779,note_on,,59,0,7,,,,,,,,,,,,,,,,5,,75,0
9779,note_on,,59,0,5,,,,,,,,,,,,,,,,0,,75,0
9779,note_on,,59,0,14,,,,,,,,,,,,,,,,13,,60,0
9779,note_on,,59,0,6,,,,,,,,,,,,,,,,2,,60,0
9779,note_on,,0,0,15,,,,,,,,,,,,,,,,15,,63,0
9780,note_on,,0,0,15,,,,,,,,,,,,,,,,15,,60,48
9780,note_on,,1,0,15,,,,,,,,,,,,,,,,15,,56,48
9780,note_on,,1,0,5,,,,,,,,,,,,,,,,0,,74,48
9780,note_on,,1,0,14,,,,,,,,,,,,,,,,13,,56,48
9780,note_on,,1,0,7,,,,,,,,,,,,,,,,5,,74,48
9780,note_on,,1,0,6,,,,,,,,,,,,,,,,2,,56,48
9780,note_on,,61,0,9,,,,,,,,,,,,,,,,7,,60,48
9809,note_on,,29,0,5,,,,,,,,,,,,,,,,0,,74,0
9809,note_on,,29,0,7,,,,,,,,,,,,,,,,5,,74,0
9810,note_on,,1,0,5,,,,,,,,,,,,,,,,0,,72,48
9810,note_on,,1,0,7,,,,,,,,,,,,,,,,5,,72,48
9839,note_on,,29,0,5,,,,,,,,,,,,,,,,0,,72,0
9839,note_on,,59,0,9,,,,,,,,,,,,,,,,7,,60,0
9839,note_on,,59,0,15,,,,,,,,,,,,,,,,15,,75,0
9839,note_on,,0,0,15,,,,,,,,,,,,,,,,15,,72,0
9839,note_on,,0,0,15,,,,,,,,,,,,,,,,15,,56,0
9839,note_on,,0,0,15,,,,,,,,,,,,,,,,15,,60,0
9839,note_on,,119,0,11,,,,,,,,,,,,,,,,10,,72,0
9839,note_on,,119,0,13,,,,,,,,,,,,,,,,12,,63,0
9839,note_on,,119,0,12,,,,,,,,,,,,,,,,11,,63,0
9839,note_on,,59,0,14,,,,,,,,,,,,,,,,13,,56,0
9839,note_on,,59,0,6,,,,,,,,,,,,,,,,2,,56,0
9839,note_on,,29,0,7,,,,,,,,,,,,,,,,5,,72,0
9840,note_on,,1,0,6,,,,,,,,,,,,,,,,2,,55,48
9840,note_on,,1,0,14,,,,,,,,,,,,,,,,13,,55,48
9840,note_on,,1,0,5,,,,,,,,,,,,,,,,0,,79,48
9840,note_on,,0,0,15,,,,,,,,,,,,,,,,15,,59,48
9840,note_on,,1,0,9,,,,,,,,,,,,,,,,7,,59,48
9840,note_on,,0,0,15,,,,,,,,,,,,,,,,15,,74,48
9840,note_on,,1,0,7,,,,,,,,,,,,,,,,5,,79,48
9840,note_on,,1,0,15,,,,,,,,,,,,,,,,15,,79,48
9840,note_on,,0,0,15,,,,,,,,,,,,,,,,15,,55,48
9840,note_on,,0,0,15,,,,,,,,,,,,,,,,15,,67,48
9869,note_on,,29,0,9,,,,,,,,,,,,,,,,7,,59,0
9870,note_on,,1,0,9,,,,,,,,,,,,,,,,7,,57,48
9899,note_on,,29,0,9,,,,,,,,,,,,,,,,7,,57,0
9899,note_on,,59,0,15,,,,,,,,,,,,,,,,15,,55,0
9899,note_on,,59,0,6,,,,,,,,,,,,,,,,2,,55,0
9899,note_on,,59,0,14,,,,,,,,,,,,,,,,13,,55,0
9900,note_on,,1,0,6,,,,,,,,,,,,,,,,2,,47,48
9900,note_on,,61,0,11,,,,,,,,,,,,,,,,10,,74,40
9900,note_on,,1,0,14,,,,,,,,,,,,,,,,13,,47,48
9900,note_on,,1,0,15,,,,,,,,,,,,,,,,15,,47,48
9900,note_on,,61,0,12,,,,,,,,,,,,,,,,11,,67,40
9900,note_on,,1,0,9,,,,,,,,,,,,,,,,7,,55,48
9900,note_on,,61,0,13,,,,,,,,,,,,,,,,12,,62,40
9959,note_on,,59,0,15,,,,,,,,,,,,,,,,15,,79,0
9959,note_on,,0,0,15,,,,,,,,,,,,,,,,15,,74,0
9959,note_on,,0,0,15,,,,,,,,,,,,,,,,15,,59,0
9959,note_on,,59,0,6,,,,,,,,,,,,,,,,2,,47,0
9959,note_on,,59,0,14,,,,,,,,,,,,,,,,13,,47,0
9959,note_on,,59,0,11,,,,,,,,,,,,,,,,10,,74,0
9959,note_on,,0,0,15,,,,,,,,,,,,,,,,15,,67,0
9959,note_on,,59,0,12,,,,,,,,,,,,,,,,11,,67,0
9959,note_on,,0,0,15,,,,,,,,,,,,,,,,15,,47,0
9959,note_on,,59,0,13,,,,,,,,,,,,,,,,12,,62,0
9960,note_on,,1,0,15,,,,,,,,,,,,,,,,15,,48,48
9960,note_on,,1,0,6,,,,,,,,,,,,,,,,2,,48,48
9960,note_on,,0,0,15,,,,,,,,,,,,,,,,15,,67,48
9960,note_on,,0,0,15,,,,,,,,,,,,,,,,15,,55,48
9960,note_on,,1,0,12,,,,,,,,,,,,,,,,11,,67,40
9960,note_on,,1,0,14,,,,,,,,,,,,,,,,13,,48,48
9960,note_on,,1,0,11,,,,,,,,,,,,,,,,10,,75,40
9960,note_on,,0,0,15,,,,,,,,,,,,,,,,15,,75,48
9960,note_on,,1,0,13,,,,,,,,,,,,,,,,12,,60,40
9960,note_on,,0,0,15,,,,,,,,,,,,,,,,15,,72,48
9989,note_on,,149,0,5,,,,,,,,,,,,,,,,0,,79,0
9989,note_on,,149,0,7,,,,,,,,,,,,,,,,5,,79,0
9990,note_on,,1,0,5,,,,,,,,,,,,,,,,0,,80,48
9990,note_on,,1,0,7,,,,,,,,,,,,,,,,5,,80,48
10019,note_on,,29,0,7,,,,,,,,,,,,,,,,5,,80,0
10019,note_on,,119,0,9,,,,,,,,,,,,,,,,7,,55,0
10019,note_on,,59,0,6,,,,,,,,,,,,,,,,2,,48,0
10019,note_on,,59,0,15,,,,,,,,,,,,,,,,15,,48,0
10019,note_on,,0,0,15,,,,,,,,,,,,,,,,15,,55,0
10019,note_on,,59,0,12,,,,,,,,,,,,,,,,11,,67,0
10019,note_on,,59,0,13,,,,,,,,,,,,,,,,12,,60,0
10019,note_on,,59,0,14,,,,,,,,,,,,,,,,13,,48,0
10019,note_on,,29,0,5,,,,,,,,,,,,,,,,0,,80,0
10019,note_on,,59,0,11,,,,,,,,,,,,,,,,10,,75,0
10020,note_on,,1,0,14,,,,,,,,,,,,,,,,13,,60,48
10020,note_on,,1,0,12,,,,,,,,,,,,,,,,11,,72,40
10020,note_on,,1,0,15,,,,,,,,,,,,,,,,15,,60,48
10020,note_on,,1,0,7,,,,,,,,,,,,,,,,5,,79,48
10020,note_on,,1,0,11,,,,,,,,,,,,,,,,10,,72,40
10020,note_on,,1,0,13,,,,,,,,,,,,,,,,12,,67,40
10020,note_on,,1,0,6,,,,,,,,,,,,,,,,2,,60,48
10020,note_on,,1,0,5,,,,,,,,,,,,,,,,0,,79,48
10020,note_on,,1,0,9,,,,,,,,,,,,,,,,7,,63,48
10049,note_on,,29,0,7,,,,,,,,,,,,,,,,5,,79,0
10049,note_on,,29,0,5,,,,,,,,,,,,,,,,0,,79,0
10050,note_on,,1,0,7,,,,,,,,,,,,,,,,5,,80,48
10050,note_on,,1,0,5,,,,,,,,,,,,,,,,0,,80,48
10079,note_on,,59,0,11,,,,,,,,,,,,,,,,10,,72,0
10079,note_on,,29,0,7,,,,,,,,,,,,,,,,5,,80,0
10079,note_on,,59,0,15,,,,,,,,,,,,,,,,15,,75,0
10079,note_on,,59,0,13,,,,,,,,,,,,,,,,12,,67,0
10079,note_on,,59,0,6,,,,,,,,,,,,,,,,2,,60,0
10079,note_on,,59,0,14,,,,,,,,,,,,,,,,13,,60,0
10079,note_on,,29,0,5,,,,,,,,,,,,,,,,0,,80,0
10079,note_on,,59,0,12,,,,,,,,,,,,,,,,11,,72,0
10079,note_on,,59,0,9,,,,,,,,,,,,,,,,7,,63,0
10079,note_on,,0,0,15,,,,,,,,,,,,,,,,15,,72,0
10079,note_on,,0,0,15,,,,,,,,,,,,,,,,15,,67,0
10079,note_on,,0,0,15,,,,,,,,,,,,,,,,15,,60,0
10080,note_on,,1,0,9,,,,,,,,,,,,,,,,7,,62,48
10080,note_on,,1,0,5,,,,,,,,,,,,,,,,0,,77,48
10080,note_on,,0,0,15,,,,,,,,,,,,,,,,15,,60,48
10080,note_on,,1,0,14,,,,,,,,,,,,,,,,13,,50,48
10080,note_on,,1,0,6,,,,,,,,,,,,,,,,2,,50,48
10080,note_on,,0,0,15,,,,,,,,,,,,,,,,15,,74,48
10080,note_on,,0,0,15,,,,,,,,,,,,,,,,15,,77,48
10080,note_on,,0,0,15,,,,,,,,,,,,,,,,15,,65,48
10080,note_on,,1,0,7,,,,,,,,,,,,,,,,5,,77,48
10080,note_on,,1,0,15,,,,,,,,,,,,,,,,15,,50,48
10109,note_on,,29,0,9,,,,,,,,,,,,,,,,7,,62,0
10110,note_on,,1,0,9,,,,,,,,,,,,,,,,7,,60,48
10124,note_on,,44,0,7,,,,,,,,,,,,,,,,5,,77,0
10124,note_on,,44,0,5,,,,,,,,,,,,,,,,0,,77,0
10125,note_on,,1,0,7,,,,,,,,,,,,,,,,5,,75,48
10125,note_on,,1,0,5,,,,,,,,,,,,,,,,0,,75,48
10139,note_on,,14,0,7,,,,,,,,,,,,,,,,5,,75,0
10139,note_on,,14,0,5,,,,,,,,,,,,,,,,0,,75,0
10139,note_on,,59,0,6,,,,,,,,,,,,,,,,2,,50,0
10139,note_on,,0,0,15,,,,,,,,,,,,,,,,15,,60,0
10139,note_on,,59,0,15,,,,,,,,,,,,,,,,15,,50,0
10139,note_on,,29,0,9,,,,,,,,,,,,,,,,7,,60,0
10139,note_on,,59,0,14,,,,,,,,,,,,,,,,13,,50,0
10140,note_on,,1,0,15,,,,,,,,,,,,,,,,15,,55,48
10140,note_on,,61,0,13,,,,,,,,,,,,,,,,12,,67,40
10140,note_on,,0,0,15,,,,,,,,,,,,,,,,15,,59,48
10140,note_on,,1,0,6,,,,,,,,,,,,,,,,2,,55,48
10140,note_on,,61,0,12,,,,,,,,,,,,,,,,11,,71,40
10140,note_on,,1,0,14,,,,,,,,,,,,,,,,13,,55,48
10140,note_on,,1,0,7,,,,,,,,,,,,,,,,5,,77,48
10140,note_on,,1,0,5,,,,,,,,,,,,,,,,0,,77,48
10140,note_on,,61,0,11,,,,,,,,,,,,,,,,10,,74,40
10140,note_on,,1,0,9,,,,,,,,,,,,,,,,7,,59,48
10169,note_on,,29,0,5,,,,,,,,,,,,,,,,0,,77,0
10169,note_on,,29,0,7,,,,,,,,,,,,,,,,5,,77,0
10169,note_on,,29,0,15,,,,,,,,,,,,,,,,15,,59,0
10170,note_on,,1,0,5,,,,,,,,,,,,,,,,0,,79,48
10170,note_on,,1,0,7,,,,,,,,,,,,,,,,5,,79,48
10170,note_on,,1,0,15,,,,,,,,,,,,,,,,15,,57,48
10199,note_on,,59,0,12,,,,,,,,,,,,,,,,11,,71,0
10199,note_on,,29,0,7,,,,,,,,,,,,,,,,5,,79,0
10199,note_on,,59,0,9,,,,,,,,,,,,,,,,7,,59,0
10199,note_on,,29,0,15,,,,,,,,,,,,,,,,15,,77,0
10199,note_on,,59,0,6,,,,,,,,,,,,,,,,2,,55,0
10199,note_on,,29,0,5,,,,,,,,,,,,,,,,0,,79,0
10199,note_on,,0,0,15,,,,,,,,,,,,,,,,15,,55,0
10199,note_on,,0,0,15,,,,,,,,,,,,,,,,15,,57,0
10199,note_on,,59,0,14,,,,,,,,,,,,,,,,13,,55,0
10199,note_on,,59,0,13,,,,,,,,,,,,,,,,12,,67,0
10199,note_on,,59,0,11,,,,,,,,,,,,,,,,10,,74,0
10199,note_on,,0,0,15,,,,,,,,,,,,,,,,15,,74,0
10199,note_on,,0,0,15,,,,,,,,,,,,,,,,15,,65,0
10200,note_on,,1,0,6,,,,,,,,,,,,,,,,2,,58,48
10200,note_on,,1,0,14,,,,,,,,,,,,,,,,13,,58,48
10200,note_on,,1,0,13,,,,,,,,,,,,,,,,12,,67,40
10200,note_on,,1,0,7,,,,,,,,,,,,,,,,5,,77,48
10200,note_on,,1,0,12,,,,,,,,,,,,,,,,11,,71,40
10200,note_on,,1,0,15,,,,,,,,,,,,,,,,15,,58,48
10200,note_on,,1,0,5,,,,,,,,,,,,,,,,0,,77,48
10200,note_on,,0,0,15,,,,,,,,,,,,,,,,15,,62,48
10200,note_on,,0,0,15,,,,,,,,,,,,,,,,15,,74,48
10200,note_on,,1,0,11,,,,,,,,,,,,,,,,10,,74,40
10200,note_on,,0,0,15,,,,,,,,,,,,,,,,15,,67,48
10229,note_on,,29,0,7,,,,,,,,,,,,,,,,5,,77,0
10229,note_on,,29,0,5,,,,,,,,,,,,,,,,0,,77,0
10230,note_on,,1,0,7,,,,,,,,,,,,,,,,5,,79,48
10230,note_on,,1,0,5,,,,,,,,,,,,,,,,0,,79,48
10259,note_on,,59,0,15,,,,,,,,,,,,,,,,15,,58,0
10259,note_on,,59,0,6,,,,,,,,,,,,,,,,2,,58,0
10259,note_on,,59,0,14,,,,,,,,,,,,,,,,13,,58,0
10259,note_on,,0,0,15,,,,,,,,,,,,,,,,15,,74,0
10259,note_on,,29,0,5,,,,,,,,,,,,,,,,0,,79,0
10259,note_on,,0,0,15,,,,,,,,,,,,,,,,15,,67,0
10259,note_on,,29,0,7,,,,,,,,,,,,,,,,5,,79,0
10259,note_on,,0,0,15,,,,,,,,,,,,,,,,15,,62,0
10260,note_on,,1,0,14,,,,,,,,,,,,,,,,13,,55,48
10260,note_on,,1,0,7,,,,,,,,,,,,,,,,5,,77,48
10260,note_on,,1,0,5,,,,,,,,,,,,,,,,0,,77,48
10260,note_on,,1,0,15,,,,,,,,,,,,,,,,15,,55,48
10260,note_on,,0,0,15,,,,,,,,,,,,,,,,15,,62,48
10260,note_on,,0,0,15,,,,,,,,,,,,,,,,15,,71,48
10260,note_on,,0,0,15,,,,,,,,,,,,,,,,15,,67,48
10260,note_on,,1,0,6,,,,,,,,,,,,,,,,2,,55,48
10260,note_on,,61,0,9,,,,,,,,,,,,,,,,7,,62,48
10289,note_on,,29,0,5,,,,,,,,,,,,,,,,0,,77,0
10289,note_on,,29,0,7,,,,,,,,,,,,,,,,5,,77,0
10290,note_on,,1,0,7,,,,,,,,,,,,,,,,5,,79,48
10290,note_on,,1,0,5,,,,,,,,,,,,,,,,0,,79,48
10319,note_on,,119,0,13,,,,,,,,,,,,,,,,12,,67,0
10319,note_on,,0,0,15,,,,,,,,,,,,,,,,15,,62,0
10319,note_on,,59,0,15,,,,,,,,,,,,,,,,15,,55,0
10319,note_on,,29,0,5,,,,,,,,,,,,,,,,0,,79,0
10319,note_on,,59,0,14,,,,,,,,,,,,,,,,13,,55,0
10319,note_on,,29,0,7,,,,,,,,,,,,,,,,5,,79,0
10319,note_on,,0,0,15,,,,,,,,,,,,,,,,15,,71,0
10319,note_on,,0,0,15,,,,,,,,,,,,,,,,15,,67,0
10319,note_on,,119,0,12,,,,,,,,,,,,,,,,11,,71,0
10319,note_on,,59,0,9,,,,,,,,,,,,,,,,7,,62,0
10319,note_on,,119,0,11,,,,,,,,,,,,,,,,10,,74,0
10319,note_on,,59,0,6,,,,,,,,,,,,,,,,2,,55,0
10320,note_on,,1,0,15,,,,,,,,,,,,,,,,15,,60,48
10320,note_on,,0,0,15,,,,,,,,,,,,,,,,15,,60,48
10320,note_on,,0,0,15,,,,,,,,,,,,,,,,15,,75,48
10320,note_on,,0,0,15,,,,,,,,,,,,,,,,15,,72,48
10320,note_on,,0,0,15,,,,,,,,,,,,,,,,15,,67,48
10320,note_on,,1,0,9,,,,,,,,,,,,,,,,7,,63,48
10320,note_on,,1,0,5,,,,,,,,,,,,,,,,0,,75,48
10320,note_on,,1,0,14,,,,,,,,,,,,,,,,13,,60,48
10320,note_on,,1,0,7,,,,,,,,,,,,,,,,5,,75,48
10320,note_on,,1,0,6,,,,,,,,,,,,,,,,2,,60,48
10349,note_on,,29,0,5,,,,,,,,,,,,,,,,0,,75,0
10349,note_on,,29,0,9,,,,,,,,,,,,,,,,7,,63,0
10349,note_on,,29,0,7,,,,,,,,,,,,,,,,5,,75,0
10350,note_on,,1,0,9,,,,,,,,,,,,,,,,7,,65,48
10350,note_on,,1,0,7,,,,,,,,,,,,,,,,5,,74,48
10350,note_on,,1,0,5,,,,,,,,,,,,,,,,0,,74,48
10379,note_on,,59,0,6,,,,,,,,,,,,,,,,2,,60,0
10379,note_on,,29,0,5,,,,,,,,,,,,,,,,0,,74,0
10379,note_on,,29,0,9,,,,,,,,,,,,,,,,7,,65,0
10379,note_on,,59,0,15,,,,,,,,,,,,,,,,15,,60,0
10379,note_on,,59,0,14,,,,,,,,,,,,,,,,13,,60,0
10379,note_on,,29,0,7,,,,,,,,,,,,,,,,5,,74,0
10380,note_on,,1,0,9,,,,,,,,,,,,,,,,7,,67,48
10380,note_on,,1,0,14,,,,,,,,,,,,,,,,13,,51,48
10380,note_on,,1,0,6,,,,,,,,,,,,,,,,2,,51,48
10380,note_on,,61,0,13,,,,,,,,,,,,,,,,12,,55,40
10380,note_on,,61,0,11,,,,,,,,,,,,,,,,10,,67,40
10380,note_on,,1,0,5,,,,,,,,,,,,,,,,0,,72,48
10380,note_on,,61,0,12,,,,,,,,,,,,,,,,11,,72,40
10380,note_on,,1,0,7,,,,,,,,,,,,,,,,5,,72,48
10380,note_on,,1,0,15,,,,,,,,,,,,,,,,15,,51,48
10439,note_on,,59,0,7,,,,,,,,,,,,,,,,5,,72,0
10439,note_on,,59,0,13,,,,,,,,,,,,,,,,12,,55,0
10439,note_on,,59,0,12,,,,,,,,,,,,,,,,11,,72,0
10439,note_on,,59,0,6,,,,,,,,,,,,,,,,2,,51,0
10439,note_on,,59,0,9,,,,,,,,,,,,,,,,7,,67,0
10439,note_on,,59,0,14,,,,,,,,,,,,,,,,13,,51,0
10439,note_on,,59,0,11,,,,,,,,,,,,,,,,10,,67,0
10439,note_on,,59,0,5,,,,,,,,,,,,,,,,0,,72,0
10439,note_on,,59,0,15,,,,,,,,,,,,,,,,15,,51,0
10440,note_on,,1,0,13,,,,,,,,,,,,,,,,12,,60,40
10440,note_on,,1,0,12,,,,,,,,,,,,,,,,11,,63,40
10440,note_on,,1,0,14,,,,,,,,,,,,,,,,13,,48,48
10440,note_on,,1,0,6,,,,,,,,,,,,,,,,2,,48,48
10440,note_on,,1,0,11,,,,,,,,,,,,,,,,10,,55,40
10440,note_on,,1,0,15,,,,,,,,,,,,,,,,15,,48,48
10499,note_on,,59,0,6,,,,,,,,,,,,,,,,2,,48,0
10499,note_on,,0,0,15,,,,,,,,,,,,,,,,15,,48,0
10499,note_on,,0,0,15,,,,,,,,,,,,,,,,15,,67,0
10499,note_on,,0,0,15,,,,,,,,,,,,,,,,15,,72,0
10499,note_on,,0,0,15,,,,,,,,,,,,,,,,15,,75,0
10499,note_on,,59,0,15,,,,,,,,,,,,,,,,15,,60,0
10499,note_on,,59,0,12,,,,,,,,,,,,,,,,11,,63,0
10499,note_on,,59,0,13,,,,,,,,,,,,,,,,12,,60,0
10499,note_on,,59,0,11,,,,,,,,,,,,,,,,10,,55,0
10499,note_on,,59,0,14,,,,,,,,,,,,,,,,13,,48,0
10500,note_on,,1,0,11,,,,,,,,,,,,,,,,10,,79,72
10500,note_on,,1,0,14,,,,,,,,,,,,,,,,13,,51,72
10500,note_on,,61,0,9,,,,,,,,,,,,,,,,7,,67,72
10500,note_on,,1,0,6,,,,,,,,,,,,,,,,2,,51,72
10500,note_on,,1501,0,10,,,,,,,,,,,,,,,,8,,51,72
10500,note_on,,61,0,7,,,,,,,,,,,,,,,,5,,72,72
10500,note_on,,61,0,5,,,,,,,,,,,,,,,,0,,72,72
10500,note_on,,1,0,13,,,,,,,,,,,,,,,,12,,72,72
10500,note_on,,0,0,15,,,,,,,,,,,,,,,,15,,67,72
10500,note_on,,1,0,15,,,,,,,,,,,,,,,,15,,51,72
10500,note_on,,0,0,15,,,,,,,,,,,,,,,,15,,60,72
10500,note_on,,0,0,15,,,,,,,,,,,,,,,,15,,72,72
10500,note_on,,1,0,12,,,,,,,,,,,,,,,,11,,60,72
10559,note_on,,59,0,13,,,,,,,,,,,,,,,,12,,72,0
10559,note_on,,59,0,7,,,,,,,,,,,,,,,,5,,72,0
10559,note_on,,59,0,10,,,,,,,,,,,,,,,,8,,51,0
10559,note_on,,59,0,6,,,,,,,,,,,,,,,,2,,51,0
10559,note_on,,59,0,11,,,,,,,,,,,,,,,,10,,79,0
10559,note_on,,0,0,15,,,,,,,,,,,,,,,,15,,67,0
10559,note_on,,59,0,12,,,,,,,,,,,,,,,,11,,60,0
10559,note_on,,59,0,5,,,,,,,,,,,,,,,,0,,72,0
10559,note_on,,59,0,9,,,,,,,,,,,,,,,,7,,67,0
10559,note_on,,0,0,15,,,,,,,,,,,,,,,,15,,72,0
10559,note_on,,0,0,15,,,,,,,,,,,,,,,,15,,60,0
10559,note_on,,59,0,15,,,,,,,,,,,,,,,,15,,51,0
10559,note_on,,59,0,14,,,,,,,,,,,,,,,,13,,51,0
10560,note_on,,1,0,9,,,,,,,,,,,,,,,,7,,65,72
10560,note_on,,1,0,14,,,,,,,,,,,,,,,,13,,50,72
10560,note_on,,1,0,13,,,,,,,,,,,,,,,,12,,65,72
10560,note_on,,1,0,12,,,,,,,,,,,,,,,,11,,71,72
10560,note_on,,1,0,7,,,,,,,,,,,,,,,,5,,71,72
10560,note_on,,1,0,10,,,,,,,,,,,,,,,,8,,50,72
10560,note_on,,1,0,6,,,,,,,,,,,,,,,,2,,50,72
10560,note_on,,0,0,15,,,,,,,,,,,,,,,,15,,53,72
10560,note_on,,0,0,15,,,,,,,,,,,,,,,,15,,65,72
10560,note_on,,0,0,15,,,,,,,,,,,,,,,,15,,71,72
10560,note_on,,0,0,15,,,,,,,,,,,,,,,,15,,74,72
10560,note_on,,1,0,15,,,,,,,,,,,,,,,,15,,50,72
10560,note_on,,1,0,11,,,,,,,,,,,,,,,,10,,77,72
10560,note_on,,1,0,5,,,,,,,,,,,,,,,,0,,71,72
10619,note_on,,59,0,11,,,,,,,,,,,,,,,,10,,77,0
10619,note_on,,59,0,13,,,,,,,,,,,,,,,,12,,65,0
10619,note_on,,59,0,12,,,,,,,,,,,,,,,,11,,71,0
10619,note_on,,59,0,6,,,,,,,,,,,,,,,,2,,50,0
10619,note_on,,59,0,10,,,,,,,,,,,,,,,,8,,50,0
10619,note_on,,59,0,5,,,,,,,,,,,,,,,,0,,71,0
10619,note_on,,59,0,9,,,,,,,,,,,,,,,,7,,65,0
10619,note_on,,59,0,14,,,,,,,,,,,,,,,,13,,50,0
10619,note_on,,0,0,15,,,,,,,,,,,,,,,,15,,53,0
10619,note_on,,0,0,15,,,,,,,,,,,,,,,,15,,65,0
10619,note_on,,0,0,15,,,,,,,,,,,,,,,,15,,71,0
10619,note_on,,0,0,15,,,,,,,,,,,,,,,,15,,74,0
10619,note_on,,59,0,15,,,,,,,,,,,,,,,,15,,50,0
10619,note_on,,59,0,7,,,,,,,,,,,,,,,,5,,71,0
10620,note_on,,1,0,14,,,,,,,,,,,,,,,,13,,48,72
10620,note_on,,1,0,13,,,,,,,,,,,,,,,,12,,67,72
10620,note_on,,1,0,5,,,,,,,,,,,,,,,,0,,72,72
10620,note_on,,1,0,10,,,,,,,,,,,,,,,,8,,48,72
10620,note_on,,1,0,9,,,,,,,,,,,,,,,,7,,63,72
10620,note_on,,1,0,6,,,,,,,,,,,,,,,,2,,48,72
10620,note_on,,1,0,7,,,,,,,,,,,,,,,,5,,72,72
10620,note_on,,1,0,12,,,,,,,,,,,,,,,,11,,72,72
10620,note_on,,1,0,11,,,,,,,,,,,,,,,,10,,75,72
10620,note_on,,1,0,15,,,,,,,,,,,,,,,,15,,48,72
10620,note_on,,0,0,15,,,,,,,,,,,,,,,,15,,60,72
10620,note_on,,0,0,15,,,,,,,,,,,,,,,,15,,75,72
10620,note_on,,0,0,15,,,,,,,,,,,,,,,,15,,72,72
10620,note_on,,0,0,15,,,,,,,,,,,,,,,,15,,67,72
10649,note_on,,29,0,11,,,,,,,,,,,,,,,,10,,75,0
10649,note_on,,29,0,12,,,,,,,,,,,,,,,,11,,72,0
10649,note_on,,29,0,9,,,,,,,,,,,,,,,,7,,63,0
10649,note_on,,29,0,5,,,,,,,,,,,,,,,,0,,72,0
10649,note_on,,29,0,7,,,,,,,,,,,,,,,,5,,72,0
10650,note_on,,1,0,11,,,,,,,,,,,,,,,,10,,74,72
10650,note_on,,1,0,5,,,,,,,,,,,,,,,,0,,74,72
10650,note_on,,1,0,7,,,,,,,,,,,,,,,,5,,74,72
10650,note_on,,1,0,9,,,,,,,,,,,,,,,,7,,62,72
10650,note_on,,1,0,12,,,,,,,,,,,,,,,,11,,74,72
10679,note_on,,29,0,9,,,,,,,,,,,,,,,,7,,62,0
10679,note_on,,59,0,10,,,,,,,,,,,,,,,,8,,48,0
10679,note_on,,0,0,15,,,,,,,,,,,,,,,,15,,72,0
10679,note_on,,59,0,15,,,,,,,,,,,,,,,,15,,48,0
10679,note_on,,0,0,15,,,,,,,,,,,,,,,,15,,60,0
10679,note_on,,59,0,6,,,,,,,,,,,,,,,,2,,48,0
10679,note_on,,29,0,5,,,,,,,,,,,,,,,,0,,74,0
10679,note_on,,59,0,13,,,,,,,,,,,,,,,,12,,67,0
10679,note_on,,0,0,15,,,,,,,,,,,,,,,,15,,75,0
10679,note_on,,29,0,11,,,,,,,,,,,,,,,,10,,74,0
10679,note_on,,29,0,7,,,,,,,,,,,,,,,,5,,74,0
10679,note_on,,29,0,12,,,,,,,,,,,,,,,,11,,74,0
10679,note_on,,0,0,15,,,,,,,,,,,,,,,,15,,67,0
10679,note_on,,59,0,14,,,,,,,,,,,,,,,,13,,48,0
10680,note_on,,1,0,15,,,,,,,,,,,,,,,,15,,55,72
10680,note_on,,1,0,7,,,,,,,,,,,,,,,,5,,71,72
10680,note_on,,1,0,10,,,,,,,,,,,,,,,,8,,55,72
10680,note_on,,0,0,15,,,,,,,,,,,,,,,,15,,62,72
10680,note_on,,0,0,15,,,,,,,,,,,,,,,,15,,71,72
10680,note_on,,0,0,15,,,,,,,,,,,,,,,,15,,74,72
10680,note_on,,1,0,12,,,,,,,,,,,,,,,,11,,71,72
10680,note_on,,1,0,11,,,,,,,,,,,,,,,,10,,74,72
10680,note_on,,1,0,5,,,,,,,,,,,,,,,,0,,71,72
10680,note_on,,1,0,13,,,,,,,,,,,,,,,,12,,67,72
10680,note_on,,1,0,6,,,,,,,,,,,,,,,,2,,55,72
10680,note_on,,1,0,14,,,,,,,,,,,,,,,,13,,55,72
10680,note_on,,1,0,9,,,,,,,,,,,,,,,,7,,62,72
10694,note_on,,14,0,12,,,,,,,,,,,,,,,,11,,71,0
10694,note_on,,14,0,11,,,,,,,,,,,,,,,,10,,74,0
10695,note_on,,1,0,12,,,,,,,,,,,,,,,,11,,72,72
10695,note_on,,1,0,11,,,,,,,,,,,,,,,,10,,75,72
10709,note_on,,14,0,11,,,,,,,,,,,,,,,,10,,75,0
10709,note_on,,14,0,12,,,,,,,,,,,,,,,,11,,72,0
10710,note_on,,1,0,12,,,,,,,,,,,,,,,,11,,71,72
10710,note_on,,1,0,11,,,,,,,,,,,,,,,,10,,74,72
10724,note_on,,14,0,12,,,,,,,,,,,,,,,,11,,71,0
10724,note_on,,14,0,11,,,,,,,,,,,,,,,,10,,74,0
10725,note_on,,1,0,11,,,,,,,,,,,,,,,,10,,75,72
10725,note_on,,1,0,12,,,,,,,,,,,,,,,,11,,72,72
10739,note_on,,59,0,10,,,,,,,,,,,,,,,,8,,55,0
10739,note_on,,59,0,13,,,,,,,,,,,,,,,,12,,67,0
10739,note_on,,14,0,11,,,,,,,,,,,,,,,,10,,75,0
10739,note_on,,14,0,12,,,,,,,,,,,,,,,,11,,72,0
10739,note_on,,59,0,6,,,,,,,,,,,,,,,,2,,55,0
10739,note_on,,59,0,14,,,,,,,,,,,,,,,,13,,55,0
10739,note_on,,59,0,15,,,,,,,,,,,,,,,,15,,55,0
10739,note_on,,0,0,15,,,,,,,,,,,,,,,,15,,62,0
10740,note_on,,1,0,11,,,,,,,,,,,,,,,,10,,72,72
10740,note_on,,1,0,13,,,,,,,,,,,,,,,,12,,67,72
10740,note_on,,1,0,14,,,,,,,,,,,,,,,,13,,53,72
10740,note_on,,1,0,12,,,,,,,,,,,,,,,,11,,69,72
10740,note_on,,1741,0,8,,,,,,,,,,,,,,,,6,,67,48
10740,note_on,,1,0,15,,,,,,,,,,,,,,,,15,,53,72
10740,note_on,,1,0,10,,,,,,,,,,,,,,,,8,,53,72
10740,note_on,,0,0,15,,,,,,,,,,,,,,,,15,,67,72
10740,note_on,,1,0,6,,,,,,,,,,,,,,,,2,,53,72
10754,note_on,,14,0,11,,,,,,,,,,,,,,,,10,,72,0
10754,note_on,,14,0,12,,,,,,,,,,,,,,,,11,,69,0
10755,note_on,,1,0,12,,,,,,,,,,,,,,,,11,,71,72
10755,note_on,,1,0,11,,,,,,,,,,,,,,,,10,,74,72
10769,note_on,,14,0,11,,,,,,,,,,,,,,,,10,,74,0
10769,note_on,,89,0,5,,,,,,,,,,,,,,,,0,,71,0
10769,note_on,,89,0,9,,,,,,,,,,,,,,,,7,,62,0
10769,note_on,,89,0,7,,,,,,,,,,,,,,,,5,,71,0
10769,note_on,,14,0,12,,,,,,,,,,,,,,,,11,,71,0
10770,note_on,,1,0,11,,,,,,,,,,,,,,,,10,,72,72
10770,note_on,,1,0,5,,,,,,,,,,,,,,,,0,,72,72
10770,note_on,,1,0,12,,,,,,,,,,,,,,,,11,,72,72
10770,note_on,,1,0,7,,,,,,,,,,,,,,,,5,,72,72
10770,note_on,,1,0,9,,,,,,,,,,,,,,,,7,,60,72
10799,note_on,,29,0,5,,,,,,,,,,,,,,,,0,,72,0
10799,note_on,,59,0,13,,,,,,,,,,,,,,,,12,,67,0
10799,note_on,,29,0,11,,,,,,,,,,,,,,,,10,,72,0
10799,note_on,,59,0,14,,,,,,,,,,,,,,,,13,,53,0
10799,note_on,,59,0,15,,,,,,,,,,,,,,,,15,,74,0
10799,note_on,,29,0,9,,,,,,,,,,,,,,,,7,,60,0
10799,note_on,,29,0,7,,,,,,,,,,,,,,,,5,,72,0
10799,note_on,,0,0,15,,,,,,,,,,,,,,,,15,,53,0
10799,note_on,,59,0,6,,,,,,,,,,,,,,,,2,,53,0
10799,note_on,,59,0,10,,,,,,,,,,,,,,,,8,,53,0
10799,note_on,,59,0,8,,,,,,,,,,,,,,,,6,,67,0
10799,note_on,,0,0,15,,,,,,,,,,,,,,,,15,,71,0
10799,note_on,,29,0,12,,,,,,,,,,,,,,,,11,,72,0
10799,note_on,,0,0,15,,,,,,,,,,,,,,,,15,,67,0
10800,note_on,,1,0,14,,,,,,,,,,,,,,,,13,,51,72
10800,note_on,,1,0,7,,,,,,,,,,,,,,,,5,,72,72
10800,note_on,,0,0,15,,,,,,,,,,,,,,,,15,,67,72
10800,note_on,,0,0,15,,,,,,,,,,,,,,,,15,,72,72
10800,note_on,,1,0,15,,,,,,,,,,,,,,,,15,,51,72
10800,note_on,,1,0,9,,,,,,,,,,,,,,,,7,,60,72
10800,note_on,,1,0,10,,,,,,,,,,,,,,,,8,,51,72
10800,note_on,,1,0,5,,,,,,,,,,,,,,,,0,,72,72
10800,note_on,,0,0,15,,,,,,,,,,,,,,,,15,,55,72
10800,note_on,,1,0,12,,,,,,,,,,,,,,,,11,,72,72
10800,note_on,,1,0,11,,,,,,,,,,,,,,,,10,,72,72
10800,note_on,,1,0,8,,,,,,,,,,,,,,,,6,,60,48
10800,note_on,,1,0,6,,,,,,,,,,,,,,,,2,,51,72
10800,note_on,,1,0,13,,,,,,,,,,,,,,,,12,,67,72
10829,note_on,,29,0,10,,,,,,,,,,,,,,,,8,,51,0
10830,note_on,,1,0,10,,,,,,,,,,,,,,,,8,,50,72
10859,note_on,,59,0,6,,,,,,,,,,,,,,,,2,,51,0
10859,note_on,,59,0,15,,,,,,,,,,,,,,,,15,,51,0
10859,note_on,,59,0,14,,,,,,,,,,,,,,,,13,,51,0
10859,note_on,,29,0,10,,,,,,,,,,,,,,,,8,,50,0
10860,note_on,,1,0,14,,,,,,,,,,,,,,,,13,,48,72
10860,note_on,,1,0,10,,,,,,,,,,,,,,,,8,,48,72
10860,note_on,,1,0,6,,,,,,,,,,,,,,,,2,,48,72
10860,note_on,,1,0,15,,,,,,,,,,,,,,,,15,,48,72
10889,note_on,,89,0,8,,,,,,,,,,,,,,,,6,,60,0
10890,note_on,,1,0,8,,,,,,,,,,,,,,,,6,,62,48
10919,note_on,,119,0,9,,,,,,,,,,,,,,,,7,,60,0
10919,note_on,,59,0,10,,,,,,,,,,,,,,,,8,,48,0
10919,note_on,,119,0,5,,,,,,,,,,,,,,,,0,,72,0
10919,note_on,,119,0,12,,,,,,,,,,,,,,,,11,,72,0
10919,note_on,,0,0,15,,,,,,,,,,,,,,,,15,,48,0
10919,note_on,,0,0,15,,,,,,,,,,,,,,,,15,,67,0
10919,note_on,,59,0,15,,,,,,,,,,,,,,,,15,,72,0
10919,note_on,,59,0,6,,,,,,,,,,,,,,,,2,,48,0
10919,note_on,,0,0,15,,,,,,,,,,,,,,,,15,,55,0
10919,note_on,,119,0,7,,,,,,,,,,,,,,,,5,,72,0
10919,note_on,,119,0,11,,,,,,,,,,,,,,,,10,,72,0
10919,note_on,,59,0,14,,,,,,,,,,,,,,,,13,,48,0
10919,note_on,,29,0,8,,,,,,,,,,,,,,,,6,,62,0
10919,note_on,,119,0,13,,,,,,,,,,,,,,,,12,,67,0
10920,note_on,,1,0,15,,,,,,,,,,,,,,,,15,,55,48
10920,note_on,,1,0,14,,,,,,,,,,,,,,,,13,,55,48
10920,note_on,,1,0,8,,,,,,,,,,,,,,,,6,,63,48
10920,note_on,,1,0,6,,,,,,,,,,,,,,,,2,,55,48
10979,note_on,,59,0,14,,,,,,,,,,,,,,,,13,,55,0
10979,note_on,,59,0,6,,,,,,,,,,,,,,,,2,,55,0
10979,note_on,,59,0,8,,,,,,,,,,,,,,,,6,,63,0
10979,note_on,,59,0,15,,,,,,,,,,,,,,,,15,,55,0
10980,note_on,,1,0,6,,,,,,,,,,,,,,,,2,,63,48
10980,note_on,,61,0,10,,,,,,,,,,,,,,,,8,,63,48
10980,note_on,,0,0,15,,,,,,,,,,,,,,,,15,,67,48
10980,note_on,,1,0,8,,,,,,,,,,,,,,,,6,,62,48
10980,note_on,,1,0,14,,,,,,,,,,,,,,,,13,,63,48
10980,note_on,,1,0,15,,,,,,,,,,,,,,,,15,,63,48
11009,note_on,,29,0,8,,,,,,,,,,,,,,,,6,,62,0
11010,note_on,,1,0,8,,,,,,,,,,,,,,,,6,,60,48
11039,note_on,,59,0,10,,,,,,,,,,,,,,,,8,,63,0
11039,note_on,,0,0,15,,,,,,,,,,,,,,,,15,,67,0
11039,note_on,,59,0,6,,,,,,,,,,,,,,,,2,,63,0
11039,note_on,,59,0,14,,,,,,,,,,,,,,,,13,,63,0
11039,note_on,,29,0,8,,,,,,,,,,,,,,,,6,,60,0
11039,note_on,,59,0,15,,,,,,,,,,,,,,,,15,,63,0
11040,note_on,,1,0,14,,,,,,,,,,,,,,,,13,,53,48
11040,note_on,,0,0,15,,,,,,,,,,,,,,,,15,,69,48
11040,note_on,,1,0,8,,,,,,,,,,,,,,,,6,,65,48
11040,note_on,,1,0,10,,,,,,,,,,,,,,,,8,,53,48
11040,note_on,,1,0,15,,,,,,,,,,,,,,,,15,,53,48
11040,note_on,,0,0,15,,,,,,,,,,,,,,,,15,,60,48
11040,note_on,,0,0,15,,,,,,,,,,,,,,,,15,,65,48
11040,note_on,,1,0,6,,,,,,,,,,,,,,,,2,,53,48
11129,note_on,,89,0,14,,,,,,,,,,,,,,,,13,,53,0
11129,note_on,,89,0,6,,,,,,,,,,,,,,,,2,,53,0
11129,note_on,,89,0,15,,,,,,,,,,,,,,,,15,,53,0
11129,note_on,,89,0,10,,,,,,,,,,,,,,,,8,,53,0
11130,note_on,,1,0,6,,,,,,,,,,,,,,,,2,,55,48
11130,note_on,,1,0,15,,,,,,,,,,,,,,,,15,,55,48
11130,note_on,,1,0,14,,,,,,,,,,,,,,,,13,,55,48
11130,note_on,,1,0,10,,,,,,,,,,,,,,,,8,,55,48
11159,note_on,,29,0,15,,,,,,,,,,,,,,,,15,,55,0
11159,note_on,,29,0,14,,,,,,,,,,,,,,,,13,,55,0
11159,note_on,,29,0,6,,,,,,,,,,,,,,,,2,,55,0
11159,note_on,,29,0,10,,,,,,,,,,,,,,,,8,,55,0
11160,note_on,,1,0,14,,,,,,,,,,,,,,,,13,,57,48
11160,note_on,,1,0,6,,,,,,,,,,,,,,,,2,,57,48
11160,note_on,,1,0,10,,,,,,,,,,,,,,,,8,,57,48
11160,note_on,,1,0,15,,,,,,,,,,,,,,,,15,,57,48
11189,note_on,,149,0,8,,,,,,,,,,,,,,,,6,,65,0
11190,note_on,,1,0,8,,,,,,,,,,,,,,,,6,,67,48
11219,note_on,,59,0,10,,,,,,,,,,,,,,,,8,,57,0
11219,note_on,,59,0,14,,,,,,,,,,,,,,,,13,,57,0
11219,note_on,,59,0,6,,,,,,,,,,,,,,,,2,,57,0
11219,note_on,,29,0,8,,,,,,,,,,,,,,,,6,,67,0
11219,note_on,,0,0,15,,,,,,,,,,,,,,,,15,,60,0
11219,note_on,,0,0,15,,,,,,,,,,,,,,,,15,,65,0
11219,note_on,,59,0,15,,,,,,,,,,,,,,,,15,,69,0
11219,note_on,,0,0,15,,,,,,,,,,,,,,,,15,,57,0
11220,note_on,,1,0,6,,,,,,,,,,,,,,,,2,,53,48
11220,note_on,,1,0,15,,,,,,,,,,,,,,,,15,,53,48
11220,note_on,,1,0,10,,,,,,,,,,,,,,,,8,,55,48
11220,note_on,,1,0,14,,,,,,,,,,,,,,,,13,,53,48
11220,note_on,,1,0,8,,,,,,,,,,,,,,,,6,,65,48
11249,note_on,,29,0,10,,,,,,,,,,,,,,,,8,,55,0
11249,note_on,,29,0,8,,,,,,,,,,,,,,,,6,,65,0
11250,note_on,,1,0,10,,,,,,,,,,,,,,,,8,,53,48
11250,note_on,,1,0,8,,,,,,,,,,,,,,,,6,,67,48
11279,note_on,,59,0,6,,,,,,,,,,,,,,,,2,,53,0
11279,note_on,,29,0,10,,,,,,,,,,,,,,,,8,,53,0
11279,note_on,,59,0,14,,,,,,,,,,,,,,,,13,,53,0
11279,note_on,,29,0,8,,,,,,,,,,,,,,,,6,,67,0
11279,note_on,,59,0,15,,,,,,,,,,,,,,,,15,,53,0
11280,note_on,,1,0,15,,,,,,,,,,,,,,,,15,,48,48
11280,note_on,,1,0,10,,,,,,,,,,,,,,,,8,,60,48
11280,note_on,,1,0,8,,,,,,,,,,,,,,,,6,,63,48
11280,note_on,,0,0,15,,,,,,,,,,,,,,,,15,,67,48
11280,note_on,,1,0,6,,,,,,,,,,,,,,,,2,,48,48
11280,note_on,,0,0,15,,,,,,,,,,,,,,,,15,,63,48
11280,note_on,,0,0,15,,,,,,,,,,,,,,,,15,,60,48
11280,note_on,,1,0,14,,,,,,,,,,,,,,,,13,,48,48
11324,note_on,,44,0,8,,,,,,,,,,,,,,,,6,,63,0
11325,note_on,,1,0,8,,,,,,,,,,,,,,,,6,,62,48
11339,note_on,,14,0,8,,,,,,,,,,,,,,,,6,,62,0
11340,note_on,,1,0,8,,,,,,,,,,,,,,,,6,,63,48
11369,note_on,,29,0,8,,,,,,,,,,,,,,,,6,,63,0
11369,note_on,,89,0,14,,,,,,,,,,,,,,,,13,,48,0
11369,note_on,,89,0,6,,,,,,,,,,,,,,,,2,,48,0
11369,note_on,,89,0,15,,,,,,,,,,,,,,,,15,,48,0
11370,note_on,,1,0,14,,,,,,,,,,,,,,,,13,,50,48
11370,note_on,,1,0,8,,,,,,,,,,,,,,,,6,,65,48
11370,note_on,,1,0,15,,,,,,,,,,,,,,,,15,,50,48
11370,note_on,,1,0,6,,,,,,,,,,,,,,,,2,,50,48
11399,note_on,,29,0,6,,,,,,,,,,,,,,,,2,,50,0
11399,note_on,,29,0,14,,,,,,,,,,,,,,,,13,,50,0
11399,note_on,,29,0,8,,,,,,,,,,,,,,,,6,,65,0
11399,note_on,,29,0,15,,,,,,,,,,,,,,,,15,,50,0
11400,note_on,,1,0,6,,,,,,,,,,,,,,,,2,,51,48
11400,note_on,,1,0,8,,,,,,,,,,,,,,,,6,,63,48
11400,note_on,,1,0,14,,,,,,,,,,,,,,,,13,,51,48
11400,note_on,,1,0,15,,,,,,,,,,,,,,,,15,,51,48
11429,note_on,,29,0,8,,,,,,,,,,,,,,,,6,,63,0
11429,note_on,,149,0,10,,,,,,,,,,,,,,,,8,,60,0
11430,note_on,,1,0,10,,,,,,,,,,,,,,,,8,,62,48
11430,note_on,,1,0,8,,,,,,,,,,,,,,,,6,,65,48
11459,note_on,,59,0,15,,,,,,,,,,,,,,,,15,,67,0
11459,note_on,,59,0,14,,,,,,,,,,,,,,,,13,,51,0
11459,note_on,,0,0,15,,,,,,,,,,,,,,,,15,,60,0
11459,note_on,,0,0,15,,,,,,,,,,,,,,,,15,,63,0
11459,note_on,,29,0,10,,,,,,,,,,,,,,,,8,,62,0
11459,note_on,,29,0,8,,,,,,,,,,,,,,,,6,,65,0
11459,note_on,,0,0,15,,,,,,,,,,,,,,,,15,,51,0
11459,note_on,,59,0,6,,,,,,,,,,,,,,,,2,,51,0
11460,note_on,,1,0,10,,,,,,,,,,,,,,,,8,,60,48
11460,note_on,,1,0,14,,,,,,,,,,,,,,,,13,,53,48
11460,note_on,,1,0,6,,,,,,,,,,,,,,,,2,,53,48
11460,note_on,,1,0,15,,,,,,,,,,,,,,,,15,,53,48
11460,note_on,,1,0,8,,,,,,,,,,,,,,,,6,,63,48
11489,note_on,,29,0,8,,,,,,,,,,,,,,,,6,,63,0
11489,note_on,,29,0,10,,,,,,,,,,,,,,,,8,,60,0
11490,note_on,,1,0,8,,,,,,,,,,,,,,,,6,,65,48
11490,note_on,,1,0,10,,,,,,,,,,,,,,,,8,,62,48
11519,note_on,,29,0,8,,,,,,,,,,,,,,,,6,,65,0
11519,note_on,,59,0,6,,,,,,,,,,,,,,,,2,,53,0
11519,note_on,,29,0,10,,,,,,,,,,,,,,,,8,,62,0
11519,note_on,,59,0,14,,,,,,,,,,,,,,,,13,,53,0
11519,note_on,,59,0,15,,,,,,,,,,,,,,,,15,,53,0
11520,note_on,,1,0,6,,,,,,,,,,,,,,,,2,,55,48
11520,note_on,,1,0,10,,,,,,,,,,,,,,,,8,,58,48
11520,note_on,,1,0,15,,,,,,,,,,,,,,,,15,,55,48
11520,note_on,,0,0,15,,,,,,,,,,,,,,,,15,,58,48
11520,note_on,,0,0,15,,,,,,,,,,,,,,,,15,,62,48
11520,note_on,,1,0,8,,,,,,,,,,,,,,,,6,,62,48
11520,note_on,,0,0,15,,,,,,,,,,,,,,,,15,,70,48
11520,note_on,,1,0,14,,,,,,,,,,,,,,,,13,,55,48
11549,note_on,,29,0,10,,,,,,,,,,,,,,,,8,,58,0
11550,note_on,,1,0,10,,,,,,,,,,,,,,,,8,,57,48
11564,note_on,,44,0,8,,,,,,,,,,,,,,,,6,,62,0
11565,note_on,,1,0,8,,,,,,,,,,,,,,,,6,,60,48
11579,note_on,,29,0,10,,,,,,,,,,,,,,,,8,,57,0
11579,note_on,,14,0,8,,,,,,,,,,,,,,,,6,,60,0
11579,note_on,,59,0,15,,,,,,,,,,,,,,,,15,,55,0
11579,note_on,,59,0,14,,,,,,,,,,,,,,,,13,,55,0
11579,note_on,,59,0,6,,,,,,,,,,,,,,,,2,,55,0
11580,note_on,,1,0,6,,,,,,,,,,,,,,,,2,,43,48
11580,note_on,,1,0,8,,,,,,,,,,,,,,,,6,,62,48
11580,note_on,,1,0,15,,,,,,,,,,,,,,,,15,,43,48
11580,note_on,,1,0,10,,,,,,,,,,,,,,,,8,,58,48
11580,note_on,,1,0,14,,,,,,,,,,,,,,,,13,,43,48
11609,note_on,,29,0,10,,,,,,,,,,,,,,,,8,,58,0
11609,note_on,,29,0,8,,,,,,,,,,,,,,,,6,,62,0
11610,note_on,,1,0,8,,,,,,,,,,,,,,,,6,,63,48
11610,note_on,,1,0,10,,,,,,,,,,,,,,,,8,,60,48
11639,note_on,,59,0,14,,,,,,,,,,,,,,,,13,,43,0
11639,note_on,,29,0,10,,,,,,,,,,,,,,,,8,,60,0
11639,note_on,,59,0,15,,,,,,,,,,,,,,,,15,,43,0
11639,note_on,,59,0,6,,,,,,,,,,,,,,,,2,,43,0
11639,note_on,,29,0,8,,,,,,,,,,,,,,,,6,,63,0
11640,note_on,,1,0,10,,,,,,,,,,,,,,,,8,,58,48
11640,note_on,,1,0,6,,,,,,,,,,,,,,,,2,,50,48
11640,note_on,,1,0,14,,,,,,,,,,,,,,,,13,,50,48
11640,note_on,,1,0,8,,,,,,,,,,,,,,,,6,,62,48
11640,note_on,,1,0,15,,,,,,,,,,,,,,,,15,,50,48
11669,note_on,,29,0,10,,,,,,,,,,,,,,,,8,,58,0
11669,note_on,,29,0,8,,,,,,,,,,,,,,,,6,,62,0
11670,note_on,,1,0,8,,,,,,,,,,,,,,,,6,,63,48
11670,note_on,,1,0,10,,,,,,,,,,,,,,,,8,,60,48
11699,note_on,,0,0,15,,,,,,,,,,,,,,,,15,,50,0
11699,note_on,,0,0,15,,,,,,,,,,,,,,,,15,,62,0
11699,note_on,,29,0,8,,,,,,,,,,,,,,,,6,,63,0
11699,note_on,,29,0,10,,,,,,,,,,,,,,,,8,,60,0
11699,note_on,,59,0,14,,,,,,,,,,,,,,,,13,,50,0
11699,note_on,,59,0,6,,,,,,,,,,,,,,,,2,,50,0
11699,note_on,,0,0,15,,,,,,,,,,,,,,,,15,,58,0
11699,note_on,,59,0,15,,,,,,,,,,,,,,,,15,,70,0
11700,note_on,,1,0,10,,,,,,,,,,,,,,,,8,,58,48
11700,note_on,,1,0,6,,,,,,,,,,,,,,,,2,,51,48
11700,note_on,,1,0,14,,,,,,,,,,,,,,,,13,,51,48
11700,note_on,,1,0,8,,,,,,,,,,,,,,,,6,,62,48
11700,note_on,,1,0,15,,,,,,,,,,,,,,,,15,,51,48
11729,note_on,,29,0,10,,,,,,,,,,,,,,,,8,,58,0
11729,note_on,,29,0,8,,,,,,,,,,,,,,,,6,,62,0
11730,note_on,,1,0,8,,,,,,,,,,,,,,,,6,,63,48
11730,note_on,,1,0,10,,,,,,,,,,,,,,,,8,,60,48
11759,note_on,,29,0,10,,,,,,,,,,,,,,,,8,,60,0
11759,note_on,,59,0,15,,,,,,,,,,,,,,,,15,,51,0
11759,note_on,,29,0,8,,,,,,,,,,,,,,,,6,,63,0
11759,note_on,,59,0,6,,,,,,,,,,,,,,,,2,,51,0
11759,note_on,,59,0,14,,,,,,,,,,,,,,,,13,,51,0
11760,note_on,,0,0,15,,,,,,,,,,,,,,,,15,,65,48
11760,note_on,,1,0,15,,,,,,,,,,,,,,,,15,,53,48
11760,note_on,,0,0,15,,,,,,,,,,,,,,,,15,,60,48
11760,note_on,,0,0,15,,,,,,,,,,,,,,,,15,,57,48
11760,note_on,,1,0,6,,,,,,,,,,,,,,,,2,,53,48
11760,note_on,,1,0,8,,,,,,,,,,,,,,,,6,,60,48
11760,note_on,,1,0,10,,,,,,,,,,,,,,,,8,,57,48
11760,note_on,,1,0,14,,,,,,,,,,,,,,,,13,,53,48
11789,note_on,,29,0,10,,,,,,,,,,,,,,,,8,,57,0
11790,note_on,,1,0,10,,,,,,,,,,,,,,,,8,,55,48
11819,note_on,,59,0,8,,,,,,,,,,,,,,,,6,,60,0
11819,note_on,,29,0,10,,,,,,,,,,,,,,,,8,,55,0
11819,note_on,,59,0,15,,,,,,,,,,,,,,,,15,,53,0
11819,note_on,,59,0,14,,,,,,,,,,,,,,,,13,,53,0
11819,note_on,,59,0,6,,,,,,,,,,,,,,,,2,,53,0
11820,note_on,,1,0,10,,,,,,,,,,,,,,,,8,,57,48
11820,note_on,,1,0,14,,,,,,,,,,,,,,,,13,,41,48
11820,note_on,,1,0,6,,,,,,,,,,,,,,,,2,,41,48
11820,note_on,,901,0,11,,,,,,,,,,,,,,,,10,,72,40
11820,note_on,,1,0,15,,,,,,,,,,,,,,,,15,,41,48
11820,note_on,,901,0,13,,,,,,,,,,,,,,,,12,,69,48
11820,note_on,,1,0,8,,,,,,,,,,,,,,,,6,,60,48
11820,note_on,,901,0,12,,,,,,,,,,,,,,,,11,,60,48
11849,note_on,,29,0,10,,,,,,,,,,,,,,,,8,,57,0
11850,note_on,,1,0,10,,,,,,,,,,,,,,,,8,,58,48
11879,note_on,,29,0,10,,,,,,,,,,,,,,,,8,,58,0
11879,note_on,,59,0,12,,,,,,,,,,,,,,,,11,,60,0
11879,note_on,,59,0,8,,,,,,,,,,,,,,,,6,,60,0
11879,note_on,,59,0,13,,,,,,,,,,,,,,,,12,,69,0
11879,note_on,,59,0,15,,,,,,,,,,,,,,,,15,,41,0
11879,note_on,,59,0,11,,,,,,,,,,,,,,,,10,,72,0
11879,note_on,,59,0,14,,,,,,,,,,,,,,,,13,,41,0
11879,note_on,,59,0,6,,,,,,,,,,,,,,,,2,,41,0
11880,note_on,,1,0,15,,,,,,,,,,,,,,,,15,,45,48
11880,note_on,,1,0,11,,,,,,,,,,,,,,,,10,,77,40
11880,note_on,,1,0,14,,,,,,,,,,,,,,,,13,,45,48
11880,note_on,,1,0,10,,,,,,,,,,,,,,,,8,,57,48
11880,note_on,,1,0,13,,,,,,,,,,,,,,,,12,,65,48
11880,note_on,,1,0,12,,,,,,,,,,,,,,,,11,,72,48
11880,note_on,,1,0,6,,,,,,,,,,,,,,,,2,,45,48
11909,note_on,,29,0,10,,,,,,,,,,,,,,,,8,,57,0
11910,note_on,,1,0,10,,,,,,,,,,,,,,,,8,,58,48
11939,note_on,,29,0,10,,,,,,,,,,,,,,,,8,,58,0
11939,note_on,,59,0,11,,,,,,,,,,,,,,,,10,,77,0
11939,note_on,,59,0,13,,,,,,,,,,,,,,,,12,,65,0
11939,note_on,,59,0,15,,,,,,,,,,,,,,,,15,,65,0
11939,note_on,,59,0,12,,,,,,,,,,,,,,,,11,,72,0
11939,note_on,,0,0,15,,,,,,,,,,,,,,,,15,,45,0
11939,note_on,,0,0,15,,,,,,,,,,,,,,,,15,,57,0
11939,note_on,,0,0,15,,,,,,,,,,,,,,,,15,,60,0
11939,note_on,,59,0,14,,,,,,,,,,,,,,,,13,,45,0
11939,note_on,,59,0,6,,,,,,,,,,,,,,,,2,,45,0
11940,note_on,,1,0,12,,,,,,,,,,,,,,,,11,,62,48
11940,note_on,,1,0,15,,,,,,,,,,,,,,,,15,,46,48
11940,note_on,,1,0,11,,,,,,,,,,,,,,,,10,,65,40
11940,note_on,,1,0,10,,,,,,,,,,,,,,,,8,,57,48
11940,note_on,,1,0,13,,,,,,,,,,,,,,,,12,,62,48
11940,note_on,,1,0,6,,,,,,,,,,,,,,,,2,,46,48
11940,note_on,,1,0,14,,,,,,,,,,,,,,,,13,,46,48
11969,note_on,,29,0,10,,,,,,,,,,,,,,,,8,,57,0
11970,note_on,,1,0,10,,,,,,,,,,,,,,,,8,,58,48
11999,note_on,,59,0,6,,,,,,,,,,,,,,,,2,,46,0
11999,note_on,,59,0,13,,,,,,,,,,,,,,,,12,,62,0
11999,note_on,,59,0,11,,,,,,,,,,,,,,,,10,,65,0
11999,note_on,,29,0,10,,,,,,,,,,,,,,,,8,,58,0
11999,note_on,,59,0,12,,,,,,,,,,,,,,,,11,,62,0
11999,note_on,,59,0,15,,,,,,,,,,,,,,,,15,,46,0
11999,note_on,,59,0,14,,,,,,,,,,,,,,,,13,,46,0
12000,note_on,,0,0,15,,,,,,,,,,,,,,,,15,,63,48
12000,note_on,,0,0,15,,,,,,,,,,,,,,,,15,,72,48
12000,note_on,,1,0,15,,,,,,,,,,,,,,,,15,,48,48
12000,note_on,,1,0,10,,,,,,,,,,,,,,,,8,,55,48
12000,note_on,,1,0,13,,,,,,,,,,,,,,,,12,,55,48
12000,note_on,,1,0,12,,,,,,,,,,,,,,,,11,,63,48
12000,note_on,,1,0,11,,,,,,,,,,,,,,,,10,,63,40
12000,note_on,,1,0,6,,,,,,,,,,,,,,,,2,,48,48
12000,note_on,,1,0,14,,,,,,,,,,,,,,,,13,,48,48
12029,note_on,,29,0,10,,,,,,,,,,,,,,,,8,,55,0
12030,note_on,,1,0,10,,,,,,,,,,,,,,,,8,,53,48
12059,note_on,,59,0,15,,,,,,,,,,,,,,,,15,,48,0
12059,note_on,,29,0,10,,,,,,,,,,,,,,,,8,,53,0
12059,note_on,,59,0,14,,,,,,,,,,,,,,,,13,,48,0
12059,note_on,,59,0,6,,,,,,,,,,,,,,,,2,,48,0
12059,note_on,,59,0,12,,,,,,,,,,,,,,,,11,,63,0
12059,note_on,,59,0,11,,,,,,,,,,,,,,,,10,,63,0
12060,note_on,,1,0,10,,,,,,,,,,,,,,,,8,,55,48
12060,note_on,,1,0,6,,,,,,,,,,,,,,,,2,,36,48
12060,note_on,,1,0,15,,,,,,,,,,,,,,,,15,,36,48
12060,note_on,,1,0,12,,,,,,,,,,,,,,,,11,,67,48
12060,note_on,,1,0,14,,,,,,,,,,,,,,,,13,,36,48
12060,note_on,,1,0,11,,,,,,,,,,,,,,,,10,,75,40
12089,note_on,,29,0,10,,,,,,,,,,,,,,,,8,,55,0
12090,note_on,,1,0,10,,,,,,,,,,,,,,,,8,,57,48
12119,note_on,,59,0,11,,,,,,,,,,,,,,,,10,,75,0
12119,note_on,,59,0,6,,,,,,,,,,,,,,,,2,,36,0
12119,note_on,,59,0,14,,,,,,,,,,,,,,,,13,,36,0
12119,note_on,,59,0,12,,,,,,,,,,,,,,,,11,,67,0
12119,note_on,,29,0,10,,,,,,,,,,,,,,,,8,,57,0
12119,note_on,,59,0,15,,,,,,,,,,,,,,,,15,,36,0
12119,note_on,,119,0,13,,,,,,,,,,,,,,,,12,,55,0
12120,note_on,,1,0,11,,,,,,,,,,,,,,,,10,,70,40
12120,note_on,,1,0,6,,,,,,,,,,,,,,,,2,,43,48
12120,note_on,,1,0,14,,,,,,,,,,,,,,,,13,,43,48
12120,note_on,,1,0,12,,,,,,,,,,,,,,,,11,,63,48
12120,note_on,,1,0,15,,,,,,,,,,,,,,,,15,,43,48
12120,note_on,,1,0,10,,,,,,,,,,,,,,,,8,,55,48
12149,note_on,,29,0,10,,,,,,,,,,,,,,,,8,,55,0
12150,note_on,,1,0,10,,,,,,,,,,,,,,,,8,,57,48
12179,note_on,,0,0,15,,,,,,,,,,,,,,,,15,,63,0
12179,note_on,,59,0,14,,,,,,,,,,,,,,,,13,,43,0
12179,note_on,,0,0,15,,,,,,,,,,,,,,,,15,,43,0
12179,note_on,,59,0,15,,,,,,,,,,,,,,,,15,,72,0
12179,note_on,,59,0,6,,,,,,,,,,,,,,,,2,,43,0
12179,note_on,,59,0,12,,,,,,,,,,,,,,,,11,,63,0
12179,note_on,,59,0,11,,,,,,,,,,,,,,,,10,,70,0
12179,note_on,,29,0,10,,,,,,,,,,,,,,,,8,,57,0
12180,note_on,,1,0,12,,,,,,,,,,,,,,,,11,,60,48
12180,note_on,,1,0,11,,,,,,,,,,,,,,,,10,,72,40
12180,note_on,,1,0,15,,,,,,,,,,,,,,,,15,,45,48
12180,note_on,,1,0,14,,,,,,,,,,,,,,,,13,,45,48
12180,note_on,,1,0,10,,,,,,,,,,,,,,,,8,,55,48
12180,note_on,,1,0,6,,,,,,,,,,,,,,,,2,,45,48
12180,note_on,,61,0,13,,,,,,,,,,,,,,,,12,,65,48
12180,note_on,,301,0,8,,,,,,,,,,,,,,,,6,,63,48
12209,note_on,,29,0,10,,,,,,,,,,,,,,,,8,,55,0
12210,note_on,,1,0,10,,,,,,,,,,,,,,,,8,,57,48
12239,note_on,,59,0,12,,,,,,,,,,,,,,,,11,,60,0
12239,note_on,,59,0,15,,,,,,,,,,,,,,,,15,,45,0
12239,note_on,,59,0,13,,,,,,,,,,,,,,,,12,,65,0
12239,note_on,,59,0,8,,,,,,,,,,,,,,,,6,,63,0
12239,note_on,,59,0,6,,,,,,,,,,,,,,,,2,,45,0
12239,note_on,,29,0,10,,,,,,,,,,,,,,,,8,,57,0
12239,note_on,,59,0,14,,,,,,,,,,,,,,,,13,,45,0
12239,note_on,,59,0,11,,,,,,,,,,,,,,,,10,,72,0
12240,note_on,,1,0,6,,,,,,,,,,,,,,,,2,,46,48
12240,note_on,,1,0,8,,,,,,,,,,,,,,,,6,,62,48
12240,note_on,,0,0,15,,,,,,,,,,,,,,,,15,,58,48
12240,note_on,,0,0,15,,,,,,,,,,,,,,,,15,,62,48
12240,note_on,,1,0,15,,,,,,,,,,,,,,,,15,,46,48
12240,note_on,,1,0,14,,,,,,,,,,,,,,,,13,,46,48
12240,note_on,,0,0,15,,,,,,,,,,,,,,,,15,,65,48
12240,note_on,,1,0,12,,,,,,,,,,,,,,,,11,,70,48
12240,note_on,,1,0,11,,,,,,,,,,,,,,,,10,,74,40
12240,note_on,,1,0,10,,,,,,,,,,,,,,,,8,,53,48
12240,note_on,,1,0,13,,,,,,,,,,,,,,,,12,,65,48
12269,note_on,,29,0,8,,,,,,,,,,,,,,,,6,,62,0
12270,note_on,,1,0,8,,,,,,,,,,,,,,,,6,,60,48
12299,note_on,,59,0,14,,,,,,,,,,,,,,,,13,,46,0
12299,note_on,,29,0,8,,,,,,,,,,,,,,,,6,,60,0
12299,note_on,,59,0,10,,,,,,,,,,,,,,,,8,,53,0
12299,note_on,,59,0,15,,,,,,,,,,,,,,,,15,,46,0
12299,note_on,,59,0,6,,,,,,,,,,,,,,,,2,,46,0
12300,note_on,,1,0,8,,,,,,,,,,,,,,,,6,,58,48
12300,note_on,,1,0,6,,,,,,,,,,,,,,,,2,,50,48
12300,note_on,,1,0,14,,,,,,,,,,,,,,,,13,,50,48
12300,note_on,,1,0,15,,,,,,,,,,,,,,,,15,,50,48
12300,note_on,,1,0,10,,,,,,,,,,,,,,,,8,,53,48
12359,note_on,,59,0,14,,,,,,,,,,,,,,,,13,,50,0
12359,note_on,,59,0,10,,,,,,,,,,,,,,,,8,,53,0
12359,note_on,,59,0,15,,,,,,,,,,,,,,,,15,,65,0
12359,note_on,,119,0,13,,,,,,,,,,,,,,,,12,,65,0
12359,note_on,,0,0,15,,,,,,,,,,,,,,,,15,,50,0
12359,note_on,,119,0,11,,,,,,,,,,,,,,,,10,,74,0
12359,note_on,,0,0,15,,,,,,,,,,,,,,,,15,,58,0
12359,note_on,,0,0,15,,,,,,,,,,,,,,,,15,,62,0
12359,note_on,,119,0,12,,,,,,,,,,,,,,,,11,,70,0
12359,note_on,,59,0,6,,,,,,,,,,,,,,,,2,,50,0
12360,note_on,,1,0,14,,,,,,,,,,,,,,,,13,,51,48
12360,note_on,,1,0,6,,,,,,,,,,,,,,,,2,,51,48
12360,note_on,,1,0,15,,,,,,,,,,,,,,,,15,,51,48
12360,note_on,,0,0,15,,,,,,,,,,,,,,,,15,,55,48
12360,note_on,,0,0,15,,,,,,,,,,,,,,,,15,,58,48
12419,note_on,,59,0,14,,,,,,,,,,,,,,,,13,,51,0
12419,note_on,,59,0,6,,,,,,,,,,,,,,,,2,,51,0
12419,note_on,,119,0,8,,,,,,,,,,,,,,,,6,,58,0
12419,note_on,,59,0,15,,,,,,,,,,,,,,,,15,,51,0
12419,note_on,,0,0,15,,,,,,,,,,,,,,,,15,,58,0
12419,note_on,,0,0,15,,,,,,,,,,,,,,,,15,,55,0
12420,note_on,,1501,0,5,,,,,,,,,,,,,,,,0,,75,48
12420,note_on,,0,0,15,,,,,,,,,,,,,,,,15,,58,48
12420,note_on,,1,0,8,,,,,,,,,,,,,,,,6,,67,48
12420,note_on,,1,0,14,,,,,,,,,,,,,,,,13,,39,48
12420,note_on,,1501,0,7,,,,,,,,,,,,,,,,5,,75,48
12420,note_on,,0,0,15,,,,,,,,,,,,,,,,15,,67,48
12420,note_on,,0,0,15,,,,,,,,,,,,,,,,15,,63,48
12420,note_on,,1,0,6,,,,,,,,,,,,,,,,2,,39,48
12420,note_on,,1,0,15,,,,,,,,,,,,,,,,15,,39,48
12479,note_on,,0,0,15,,,,,,,,,,,,,,,,15,,63,0
12479,note_on,,59,0,7,,,,,,,,,,,,,,,,5,,75,0
12479,note_on,,59,0,5,,,,,,,,,,,,,,,,0,,75,0
12479,note_on,,59,0,8,,,,,,,,,,,,,,,,6,,67,0
12479,note_on,,59,0,6,,,,,,,,,,,,,,,,2,,39,0
12479,note_on,,59,0,14,,,,,,,,,,,,,,,,13,,39,0
12479,note_on,,0,0,15,,,,,,,,,,,,,,,,15,,58,0
12479,note_on,,59,0,15,,,,,,,,,,,,,,,,15,,39,0
12479,note_on,,0,0,15,,,,,,,,,,,,,,,,15,,67,0
12480,note_on,,1,0,5,,,,,,,,,,,,,,,,0,,74,48
12480,note_on,,0,0,15,,,,,,,,,,,,,,,,15,,62,48
12480,note_on,,0,0,15,,,,,,,,,,,,,,,,15,,65,48
12480,note_on,,0,0,15,,,,,,,,,,,,,,,,15,,46,48
12480,note_on,,1,0,15,,,,,,,,,,,,,,,,15,,58,48
12480,note_on,,1,0,6,,,,,,,,,,,,,,,,2,,46,48
12480,note_on,,1,0,14,,,,,,,,,,,,,,,,13,,46,48
12480,note_on,,1,0,7,,,,,,,,,,,,,,,,5,,74,48
12480,note_on,,1,0,8,,,,,,,,,,,,,,,,6,,65,48
12509,note_on,,29,0,8,,,,,,,,,,,,,,,,6,,65,0
12509,note_on,,29,0,5,,,,,,,,,,,,,,,,0,,74,0
12509,note_on,,29,0,7,,,,,,,,,,,,,,,,5,,74,0
12510,note_on,,1,0,5,,,,,,,,,,,,,,,,0,,72,48
12510,note_on,,1,0,7,,,,,,,,,,,,,,,,5,,72,48
12510,note_on,,1,0,8,,,,,,,,,,,,,,,,6,,63,48
12539,note_on,,29,0,5,,,,,,,,,,,,,,,,0,,72,0
12539,note_on,,29,0,7,,,,,,,,,,,,,,,,5,,72,0
12539,note_on,,29,0,8,,,,,,,,,,,,,,,,6,,63,0
12540,note_on,,181,0,11,,,,,,,,,,,,,,,,10,,74,40
12540,note_on,,181,0,13,,,,,,,,,,,,,,,,12,,65,48
12540,note_on,,181,0,12,,,,,,,,,,,,,,,,11,,70,48
12540,note_on,,1,0,5,,,,,,,,,,,,,,,,0,,70,48
12540,note_on,,1,0,8,,,,,,,,,,,,,,,,6,,62,48
12540,note_on,,1,0,7,,,,,,,,,,,,,,,,5,,70,48
12599,note_on,,59,0,12,,,,,,,,,,,,,,,,11,,70,0
12599,note_on,,0,0,15,,,,,,,,,,,,,,,,15,,62,0
12599,note_on,,119,0,15,,,,,,,,,,,,,,,,15,,58,0
12599,note_on,,59,0,13,,,,,,,,,,,,,,,,12,,65,0
12599,note_on,,0,0,15,,,,,,,,,,,,,,,,15,,65,0
12599,note_on,,59,0,11,,,,,,,,,,,,,,,,10,,74,0
12599,note_on,,119,0,6,,,,,,,,,,,,,,,,2,,46,0
12599,note_on,,119,0,14,,,,,,,,,,,,,,,,13,,46,0
12599,note_on,,0,0,15,,,,,,,,,,,,,,,,15,,46,0
12599,note_on,,59,0,8,,,,,,,,,,,,,,,,6,,62,0
12600,note_on,,1,0,12,,,,,,,,,,,,,,,,11,,67,48
12600,note_on,,1,0,13,,,,,,,,,,,,,,,,12,,63,48
12600,note_on,,1,0,11,,,,,,,,,,,,,,,,10,,70,40
12659,note_on,,119,0,5,,,,,,,,,,,,,,,,0,,70,0
12659,note_on,,119,0,7,,,,,,,,,,,,,,,,5,,70,0
12660,note_on,,0,0,15,,,,,,,,,,,,,,,,15,,63,48
12660,note_on,,0,0,15,,,,,,,,,,,,,,,,15,,55,48
12660,note_on,,1,0,7,,,,,,,,,,,,,,,,5,,79,48
12660,note_on,,61,0,15,,,,,,,,,,,,,,,,15,,51,48
12660,note_on,,0,0,15,,,,,,,,,,,,,,,,15,,70,48
12660,note_on,,61,0,6,,,,,,,,,,,,,,,,2,,51,48
12660,note_on,,1,0,5,,,,,,,,,,,,,,,,0,,79,48
12660,note_on,,61,0,14,,,,,,,,,,,,,,,,13,,51,48
12660,note_on,,1741,0,9,,,,,,,,,,,,,,,,7,,63,48
12719,note_on,,119,0,11,,,,,,,,,,,,,,,,10,,70,0
12719,note_on,,59,0,6,,,,,,,,,,,,,,,,2,,51,0
12719,note_on,,59,0,14,,,,,,,,,,,,,,,,13,,51,0
12719,note_on,,0,0,15,,,,,,,,,,,,,,,,15,,55,0
12719,note_on,,0,0,15,,,,,,,,,,,,,,,,15,,63,0
12719,note_on,,119,0,12,,,,,,,,,,,,,,,,11,,67,0
12719,note_on,,0,0,15,,,,,,,,,,,,,,,,15,,70,0
12719,note_on,,59,0,5,,,,,,,,,,,,,,,,0,,79,0
12719,note_on,,59,0,7,,,,,,,,,,,,,,,,5,,79,0
12719,note_on,,59,0,9,,,,,,,,,,,,,,,,7,,63,0
12719,note_on,,59,0,15,,,,,,,,,,,,,,,,15,,51,0
12719,note_on,,119,0,13,,,,,,,,,,,,,,,,12,,63,0
12720,note_on,,1,0,5,,,,,,,,,,,,,,,,0,,77,48
12720,note_on,,0,0,15,,,,,,,,,,,,,,,,15,,58,48
12720,note_on,,1,0,14,,,,,,,,,,,,,,,,13,,58,48
12720,note_on,,1,0,15,,,,,,,,,,,,,,,,15,,62,48
12720,note_on,,0,0,15,,,,,,,,,,,,,,,,15,,74,48
12720,note_on,,0,0,15,,,,,,,,,,,,,,,,15,,65,48
12720,note_on,,1,0,7,,,,,,,,,,,,,,,,5,,77,48
12720,note_on,,1,0,9,,,,,,,,,,,,,,,,7,,62,48
12720,note_on,,1,0,6,,,,,,,,,,,,,,,,2,,58,48
12749,note_on,,29,0,5,,,,,,,,,,,,,,,,0,,77,0
12749,note_on,,29,0,7,,,,,,,,,,,,,,,,5,,77,0
12749,note_on,,29,0,9,,,,,,,,,,,,,,,,7,,62,0
12750,note_on,,1,0,7,,,,,,,,,,,,,,,,5,,75,48
12750,note_on,,1,0,9,,,,,,,,,,,,,,,,7,,60,48
12750,note_on,,1,0,5,,,,,,,,,,,,,,,,0,,75,48
12779,note_on,,29,0,5,,,,,,,,,,,,,,,,0,,75,0
12779,note_on,,29,0,9,,,,,,,,,,,,,,,,7,,60,0
12779,note_on,,29,0,7,,,,,,,,,,,,,,,,5,,75,0
12780,note_on,,1,0,5,,,,,,,,,,,,,,,,0,,74,48
12780,note_on,,1,0,7,,,,,,,,,,,,,,,,5,,74,48
12780,note_on,,61,0,12,,,,,,,,,,,,,,,,11,,70,48
12780,note_on,,61,0,11,,,,,,,,,,,,,,,,10,,74,40
12780,note_on,,1,0,9,,,,,,,,,,,,,,,,7,,58,48
12780,note_on,,61,0,13,,,,,,,,,,,,,,,,12,,65,48
12839,note_on,,119,0,14,,,,,,,,,,,,,,,,13,,58,0
12839,note_on,,59,0,11,,,,,,,,,,,,,,,,10,,74,0
12839,note_on,,59,0,7,,,,,,,,,,,,,,,,5,,74,0
12839,note_on,,59,0,5,,,,,,,,,,,,,,,,0,,74,0
12839,note_on,,0,0,15,,,,,,,,,,,,,,,,15,,74,0
12839,note_on,,59,0,12,,,,,,,,,,,,,,,,11,,70,0
12839,note_on,,59,0,13,,,,,,,,,,,,,,,,12,,65,0
12839,note_on,,119,0,15,,,,,,,,,,,,,,,,15,,62,0
12839,note_on,,0,0,15,,,,,,,,,,,,,,,,15,,58,0
12839,note_on,,119,0,6,,,,,,,,,,,,,,,,2,,58,0
12839,note_on,,0,0,15,,,,,,,,,,,,,,,,15,,65,0
12840,note_on,,1,0,12,,,,,,,,,,,,,,,,11,,67,48
12840,note_on,,1,0,13,,,,,,,,,,,,,,,,12,,63,48
12840,note_on,,1,0,11,,,,,,,,,,,,,,,,10,,70,40
12899,note_on,,119,0,9,,,,,,,,,,,,,,,,7,,58,0
12900,note_on,,541,0,10,,,,,,,,,,,,,,,,8,,51,48
12900,note_on,,1,0,9,,,,,,,,,,,,,,,,7,,67,48
12900,note_on,,0,0,15,,,,,,,,,,,,,,,,15,,60,48
12900,note_on,,0,0,15,,,,,,,,,,,,,,,,15,,63,48
12900,note_on,,0,0,15,,,,,,,,,,,,,,,,15,,67,48
12900,note_on,,61,0,6,,,,,,,,,,,,,,,,2,,51,48
12900,note_on,,61,0,14,,,,,,,,,,,,,,,,13,,51,48
12900,note_on,,301,0,8,,,,,,,,,,,,,,,,6,,60,48
12900,note_on,,61,0,15,,,,,,,,,,,,,,,,15,,51,48
12959,note_on,,0,0,15,,,,,,,,,,,,,,,,15,,60,0
12959,note_on,,119,0,12,,,,,,,,,,,,,,,,11,,67,0
12959,note_on,,59,0,9,,,,,,,,,,,,,,,,7,,67,0
12959,note_on,,59,0,8,,,,,,,,,,,,,,,,6,,60,0
12959,note_on,,59,0,10,,,,,,,,,,,,,,,,8,,51,0
12959,note_on,,0,0,15,,,,,,,,,,,,,,,,15,,63,0
12959,note_on,,59,0,14,,,,,,,,,,,,,,,,13,,51,0
12959,note_on,,0,0,15,,,,,,,,,,,,,,,,15,,67,0
12959,note_on,,59,0,15,,,,,,,,,,,,,,,,15,,51,0
12959,note_on,,119,0,11,,,,,,,,,,,,,,,,10,,70,0
12959,note_on,,119,0,13,,,,,,,,,,,,,,,,12,,63,0
12959,note_on,,59,0,6,,,,,,,,,,,,,,,,2,,51,0
12960,note_on,,1,0,6,,,,,,,,,,,,,,,,2,,50,48
12960,note_on,,1,0,8,,,,,,,,,,,,,,,,6,,62,48
12960,note_on,,1,0,10,,,,,,,,,,,,,,,,8,,50,48
12960,note_on,,1,0,14,,,,,,,,,,,,,,,,13,,50,48
12960,note_on,,0,0,15,,,,,,,,,,,,,,,,15,,62,48
12960,note_on,,0,0,15,,,,,,,,,,,,,,,,15,,70,48
12960,note_on,,1,0,15,,,,,,,,,,,,,,,,15,,50,48
12960,note_on,,1,0,9,,,,,,,,,,,,,,,,7,,65,48
12960,note_on,,0,0,15,,,,,,,,,,,,,,,,15,,65,48
12989,note_on,,29,0,9,,,,,,,,,,,,,,,,7,,65,0
12989,note_on,,29,0,10,,,,,,,,,,,,,,,,8,,50,0
12989,note_on,,29,0,8,,,,,,,,,,,,,,,,6,,62,0
12990,note_on,,1,0,10,,,,,,,,,,,,,,,,8,,48,48
12990,note_on,,1,0,9,,,,,,,,,,,,,,,,7,,63,48
12990,note_on,,1,0,8,,,,,,,,,,,,,,,,6,,63,48
13019,note_on,,59,0,15,,,,,,,,,,,,,,,,15,,50,0
13019,note_on,,29,0,9,,,,,,,,,,,,,,,,7,,63,0
13019,note_on,,59,0,14,,,,,,,,,,,,,,,,13,,50,0
13019,note_on,,59,0,6,,,,,,,,,,,,,,,,2,,50,0
13019,note_on,,29,0,8,,,,,,,,,,,,,,,,6,,63,0
13019,note_on,,29,0,10,,,,,,,,,,,,,,,,8,,48,0
13020,note_on,,1,0,8,,,,,,,,,,,,,,,,6,,65,48
13020,note_on,,1,0,14,,,,,,,,,,,,,,,,13,,46,48
13020,note_on,,1,0,15,,,,,,,,,,,,,,,,15,,46,48
13020,note_on,,61,0,12,,,,,,,,,,,,,,,,11,,65,48
13020,note_on,,1,0,10,,,,,,,,,,,,,,,,8,,46,48
13020,note_on,,61,0,13,,,,,,,,,,,,,,,,12,,58,48
13020,note_on,,1,0,9,,,,,,,,,,,,,,,,7,,62,48
13020,note_on,,1,0,6,,,,,,,,,,,,,,,,2,,46,48
13020,note_on,,61,0,11,,,,,,,,,,,,,,,,10,,70,40
13079,note_on,,0,0,15,,,,,,,,,,,,,,,,15,,65,0
13079,note_on,,59,0,12,,,,,,,,,,,,,,,,11,,65,0
13079,note_on,,59,0,13,,,,,,,,,,,,,,,,12,,58,0
13079,note_on,,59,0,6,,,,,,,,,,,,,,,,2,,46,0
13079,note_on,,59,0,15,,,,,,,,,,,,,,,,15,,70,0
13079,note_on,,0,0,15,,,,,,,,,,,,,,,,15,,46,0
13079,note_on,,0,0,15,,,,,,,,,,,,,,,,15,,62,0
13079,note_on,,59,0,10,,,,,,,,,,,,,,,,8,,46,0
13079,note_on,,59,0,8,,,,,,,,,,,,,,,,6,,65,0
13079,note_on,,59,0,14,,,,,,,,,,,,,,,,13,,46,0
13079,note_on,,59,0,9,,,,,,,,,,,,,,,,7,,62,0
13079,note_on,,59,0,11,,,,,,,,,,,,,,,,10,,70,0
13080,note_on,,1,0,13,,,,,,,,,,,,,,,,12,,58,48
13080,note_on,,1,0,11,,,,,,,,,,,,,,,,10,,74,40
13080,note_on,,1,0,6,,,,,,,,,,,,,,,,2,,44,48
13080,note_on,,1,0,15,,,,,,,,,,,,,,,,15,,44,48
13080,note_on,,1,0,14,,,,,,,,,,,,,,,,13,,44,48
13080,note_on,,1,0,12,,,,,,,,,,,,,,,,11,,65,48
13139,note_on,,59,0,11,,,,,,,,,,,,,,,,10,,74,0
13139,note_on,,59,0,15,,,,,,,,,,,,,,,,15,,44,0
13139,note_on,,59,0,14,,,,,,,,,,,,,,,,13,,44,0
13139,note_on,,59,0,13,,,,,,,,,,,,,,,,12,,58,0
13139,note_on,,59,0,12,,,,,,,,,,,,,,,,11,,65,0
13139,note_on,,59,0,6,,,,,,,,,,,,,,,,2,,44,0
13140,note_on,,1,0,15,,,,,,,,,,,,,,,,15,,43,48
13140,note_on,,1,0,12,,,,,,,,,,,,,,,,11,,67,48
13140,note_on,,0,0,15,,,,,,,,,,,,,,,,15,,63,48
13140,note_on,,0,0,15,,,,,,,,,,,,,,,,15,,58,48
13140,note_on,,301,0,7,,,,,,,,,,,,,,,,5,,70,48
13140,note_on,,1,0,13,,,,,,,,,,,,,,,,12,,58,48
13140,note_on,,61,0,8,,,,,,,,,,,,,,,,6,,70,48
13140,note_on,,301,0,5,,,,,,,,,,,,,,,,0,,70,48
13140,note_on,,1,0,11,,,,,,,,,,,,,,,,10,,75,40
13140,note_on,,1,0,6,,,,,,,,,,,,,,,,2,,43,48
13140,note_on,,1,0,14,,,,,,,,,,,,,,,,13,,43,48
13199,note_on,,59,0,6,,,,,,,,,,,,,,,,2,,43,0
13199,note_on,,0,0,15,,,,,,,,,,,,,,,,15,,58,0
13199,note_on,,0,0,15,,,,,,,,,,,,,,,,15,,63,0
13199,note_on,,59,0,15,,,,,,,,,,,,,,,,15,,43,0
13199,note_on,,59,0,8,,,,,,,,,,,,,,,,6,,70,0
13199,note_on,,59,0,11,,,,,,,,,,,,,,,,10,,75,0
13199,note_on,,59,0,5,,,,,,,,,,,,,,,,0,,70,0
13199,note_on,,59,0,7,,,,,,,,,,,,,,,,5,,70,0
13199,note_on,,59,0,12,,,,,,,,,,,,,,,,11,,67,0
13199,note_on,,59,0,14,,,,,,,,,,,,,,,,13,,43,0
13199,note_on,,59,0,13,,,,,,,,,,,,,,,,12,,58,0
13200,note_on,,1,0,14,,,,,,,,,,,,,,,,13,,41,48
13200,note_on,,1,0,5,,,,,,,,,,,,,,,,0,,72,48
13200,note_on,,1,0,8,,,,,,,,,,,,,,,,6,,68,48
13200,note_on,,1,0,7,,,,,,,,,,,,,,,,5,,72,48
13200,note_on,,1,0,6,,,,,,,,,,,,,,,,2,,41,48
13200,note_on,,1,0,15,,,,,,,,,,,,,,,,15,,41,48
13200,note_on,,0,0,15,,,,,,,,,,,,,,,,15,,68,48
13200,note_on,,0,0,15,,,,,,,,,,,,,,,,15,,65,48
13200,note_on,,0,0,15,,,,,,,,,,,,,,,,15,,57,48
13229,note_on,,29,0,5,,,,,,,,,,,,,,,,0,,72,0
13229,note_on,,29,0,7,,,,,,,,,,,,,,,,5,,72,0
13230,note_on,,1,0,5,,,,,,,,,,,,,,,,0,,74,48
13230,note_on,,1,0,7,,,,,,,,,,,,,,,,5,,74,48
13259,note_on,,59,0,8,,,,,,,,,,,,,,,,6,,68,0
13259,note_on,,29,0,5,,,,,,,,,,,,,,,,0,,74,0
13259,note_on,,59,0,14,,,,,,,,,,,,,,,,13,,41,0
13259,note_on,,0,0,15,,,,,,,,,,,,,,,,15,,57,0
13259,note_on,,59,0,6,,,,,,,,,,,,,,,,2,,41,0
13259,note_on,,0,0,15,,,,,,,,,,,,,,,,15,,68,0
13259,note_on,,59,0,15,,,,,,,,,,,,,,,,15,,41,0
13259,note_on,,0,0,15,,,,,,,,,,,,,,,,15,,65,0
13259,note_on,,29,0,7,,,,,,,,,,,,,,,,5,,74,0
13260,note_on,,1,0,15,,,,,,,,,,,,,,,,15,,39,48
13260,note_on,,0,0,15,,,,,,,,,,,,,,,,15,,70,48
13260,note_on,,0,0,15,,,,,,,,,,,,,,,,15,,67,48
13260,note_on,,0,0,15,,,,,,,,,,,,,,,,15,,63,48
13260,note_on,,1,0,14,,,,,,,,,,,,,,,,13,,39,48
13260,note_on,,1,0,8,,,,,,,,,,,,,,,,6,,67,48
13260,note_on,,1,0,7,,,,,,,,,,,,,,,,5,,75,48
13260,note_on,,1,0,5,,,,,,,,,,,,,,,,0,,75,48
13260,note_on,,1,0,6,,,,,,,,,,,,,,,,2,,39,48
13289,note_on,,29,0,8,,,,,,,,,,,,,,,,6,,67,0
13290,note_on,,1,0,8,,,,,,,,,,,,,,,,6,,65,48
13319,note_on,,29,0,8,,,,,,,,,,,,,,,,6,,65,0
13319,note_on,,59,0,7,,,,,,,,,,,,,,,,5,,75,0
13319,note_on,,59,0,5,,,,,,,,,,,,,,,,0,,75,0
13319,note_on,,59,0,14,,,,,,,,,,,,,,,,13,,39,0
13319,note_on,,59,0,6,,,,,,,,,,,,,,,,2,,39,0
13319,note_on,,0,0,15,,,,,,,,,,,,,,,,15,,63,0
13319,note_on,,0,0,15,,,,,,,,,,,,,,,,15,,67,0
13319,note_on,,0,0,15,,,,,,,,,,,,,,,,15,,70,0
13319,note_on,,59,0,15,,,,,,,,,,,,,,,,15,,39,0
13320,note_on,,1,0,6,,,,,,,,,,,,,,,,2,,46,48
13320,note_on,,0,0,15,,,,,,,,,,,,,,,,15,,65,48
13320,note_on,,1,0,15,,,,,,,,,,,,,,,,15,,46,48
13320,note_on,,1,0,14,,,,,,,,,,,,,,,,13,,46,48
13320,note_on,,1,0,8,,,,,,,,,,,,,,,,6,,65,48
13320,note_on,,0,0,15,,,,,,,,,,,,,,,,15,,63,48
13379,note_on,,0,0,15,,,,,,,,,,,,,,,,15,,65,0
13379,note_on,,0,0,15,,,,,,,,,,,,,,,,15,,63,0
13379,note_on,,59,0,15,,,,,,,,,,,,,,,,15,,46,0
13379,note_on,,59,0,14,,,,,,,,,,,,,,,,13,,46,0
13379,note_on,,59,0,6,,,,,,,,,,,,,,,,2,,46,0
13380,note_on,,61,0,7,,,,,,,,,,,,,,,,5,,74,48
13380,note_on,,301,0,10,,,,,,,,,,,,,,,,8,,58,48
13380,note_on,,1,0,6,,,,,,,,,,,,,,,,2,,58,48
13380,note_on,,0,0,15,,,,,,,,,,,,,,,,15,,65,48
13380,note_on,,0,0,15,,,,,,,,,,,,,,,,15,,62,48
13380,note_on,,1,0,15,,,,,,,,,,,,,,,,15,,58,48
13380,note_on,,61,0,5,,,,,,,,,,,,,,,,0,,74,48
13380,note_on,,1,0,14,,,,,,,,,,,,,,,,13,,58,48
13380,note_on,,0,0,15,,,,,,,,,,,,,,,,15,,70,48
13409,note_on,,89,0,8,,,,,,,,,,,,,,,,6,,65,0
13410,note_on,,1,0,8,,,,,,,,,,,,,,,,6,,63,48
13439,note_on,,59,0,10,,,,,,,,,,,,,,,,8,,58,0
13439,note_on,,59,0,6,,,,,,,,,,,,,,,,2,,58,0
13439,note_on,,59,0,14,,,,,,,,,,,,,,,,13,,58,0
13439,note_on,,0,0,15,,,,,,,,,,,,,,,,15,,70,0
13439,note_on,,0,0,15,,,,,,,,,,,,,,,,15,,65,0
13439,note_on,,0,0,15,,,,,,,,,,,,,,,,15,,62,0
13439,note_on,,59,0,7,,,,,,,,,,,,,,,,5,,74,0
13439,note_on,,59,0,5,,,,,,,,,,,,,,,,0,,74,0
13439,note_on,,59,0,15,,,,,,,,,,,,,,,,15,,58,0
13439,note_on,,29,0,8,,,,,,,,,,,,,,,,6,,63,0
13440,note_on,,1,0,10,,,,,,,,,,,,,,,,8,,60,48
13440,note_on,,1,0,5,,,,,,,,,,,,,,,,0,,75,48
13440,note_on,,0,0,15,,,,,,,,,,,,,,,,15,,67,48
13440,note_on,,1,0,14,,,,,,,,,,,,,,,,13,,60,48
13440,note_on,,0,0,15,,,,,,,,,,,,,,,,15,,63,48
13440,note_on,,1,0,7,,,,,,,,,,,,,,,,5,,75,48
13440,note_on,,1,0,15,,,,,,,,,,,,,,,,15,,60,48
13440,note_on,,1,0,8,,,,,,,,,,,,,,,,6,,63,48
13440,note_on,,1,0,6,,,,,,,,,,,,,,,,2,,60,48
13469,note_on,,29,0,10,,,,,,,,,,,,,,,,8,,60,0
13469,note_on,,29,0,7,,,,,,,,,,,,,,,,5,,75,0
13469,note_on,,29,0,5,,,,,,,,,,,,,,,,0,,75,0
13470,note_on,,1,0,5,,,,,,,,,,,,,,,,0,,77,48
13470,note_on,,1,0,10,,,,,,,,,,,,,,,,8,,62,48
13470,note_on,,1,0,7,,,,,,,,,,,,,,,,5,,77,48
13499,note_on,,29,0,7,,,,,,,,,,,,,,,,5,,77,0
13499,note_on,,29,0,10,,,,,,,,,,,,,,,,8,,62,0
13499,note_on,,59,0,14,,,,,,,,,,,,,,,,13,,60,0
13499,note_on,,59,0,6,,,,,,,,,,,,,,,,2,,60,0
13499,note_on,,29,0,5,,,,,,,,,,,,,,,,0,,77,0
13499,note_on,,59,0,15,,,,,,,,,,,,,,,,15,,60,0
13500,note_on,,1,0,10,,,,,,,,,,,,,,,,8,,63,48
13500,note_on,,1,0,7,,,,,,,,,,,,,,,,5,,79,48
13500,note_on,,1,0,6,,,,,,,,,,,,,,,,2,,63,48
13500,note_on,,1,0,14,,,,,,,,,,,,,,,,13,,63,48
13500,note_on,,1,0,15,,,,,,,,,,,,,,,,15,,63,48
13500,note_on,,1,0,5,,,,,,,,,,,,,,,,0,,79,48
13559,note_on,,119,0,8,,,,,,,,,,,,,,,,6,,63,0
13559,note_on,,59,0,14,,,,,,,,,,,,,,,,13,,63,0
13559,note_on,,59,0,15,,,,,,,,,,,,,,,,15,,67,0
13559,note_on,,59,0,5,,,,,,,,,,,,,,,,0,,79,0
13559,note_on,,59,0,7,,,,,,,,,,,,,,,,5,,79,0
13559,note_on,,0,0,15,,,,,,,,,,,,,,,,15,,63,0
13559,note_on,,0,0,15,,,,,,,,,,,,,,,,15,,63,0
13559,note_on,,59,0,10,,,,,,,,,,,,,,,,8,,63,0
13559,note_on,,59,0,6,,,,,,,,,,,,,,,,2,,63,0
13560,note_on,,1,0,14,,,,,,,,,,,,,,,,13,,55,72
13560,note_on,,1,0,15,,,,,,,,,,,,,,,,15,,55,72
13560,note_on,,0,0,15,,,,,,,,,,,,,,,,15,,75,72
13560,note_on,,0,0,15,,,,,,,,,,,,,,,,15,,58,72
13560,note_on,,1,0,6,,,,,,,,,,,,,,,,2,,55,72
13560,note_on,,0,0,15,,,,,,,,,,,,,,,,15,,63,72
13560,note_on,,0,0,15,,,,,,,,,,,,,,,,15,,70,72
13620,note_on,,61,0,8,,,,,,,,,,,,,,,,6,,63,72
13620,note_on,,421,0,11,,,,,,,,,,,,,,,,10,,82,72
13620,note_on,,61,0,5,,,,,,,,,,,,,,,,0,,70,72
13620,note_on,,421,0,13,,,,,,,,,,,,,,,,12,,63,72
13620,note_on,,61,0,10,,,,,,,,,,,,,,,,8,,55,72
13620,note_on,,61,0,7,,,,,,,,,,,,,,,,5,,70,72
13620,note_on,,421,0,12,,,,,,,,,,,,,,,,11,,70,72
13679,note_on,,59,0,13,,,,,,,,,,,,,,,,12,,63,0
13679,note_on,,0,0,15,,,,,,,,,,,,,,,,15,,63,0
13679,note_on,,59,0,10,,,,,,,,,,,,,,,,8,,55,0
13679,note_on,,0,0,15,,,,,,,,,,,,,,,,15,,70,0
13679,note_on,,0,0,15,,,,,,,,,,,,,,,,15,,75,0
13679,note_on,,59,0,8,,,,,,,,,,,,,,,,6,,63,0
13679,note_on,,0,0,15,,,,,,,,,,,,,,,,15,,58,0
13679,note_on,,119,0,6,,,,,,,,,,,,,,,,2,,55,0
13679,note_on,,59,0,12,,,,,,,,,,,,,,,,11,,70,0
13679,note_on,,59,0,5,,,,,,,,,,,,,,,,0,,70,0
13679,note_on,,59,0,7,,,,,,,,,,,,,,,,5,,70,0
13679,note_on,,119,0,14,,,,,,,,,,,,,,,,13,,55,0
13679,note_on,,119,0,15,,,,,,,,,,,,,,,,15,,55,0
13679,note_on,,59,0,11,,,,,,,,,,,,,,,,10,,82,0
13680,note_on,,1,0,12,,,,,,,,,,,,,,,,11,,74,72
13680,note_on,,1,0,7,,,,,,,,,,,,,,,,5,,68,72
13680,note_on,,0,0,15,,,,,,,,,,,,,,,,15,,65,72
13680,note_on,,0,0,15,,,,,,,,,,,,,,,,15,,62,72
13680,note_on,,0,0,15,,,,,,,,,,,,,,,,15,,56,72
13680,note_on,,1,0,10,,,,,,,,,,,,,,,,8,,53,72
13680,note_on,,1,0,15,,,,,,,,,,,,,,,,15,,53,72
13680,note_on,,1,0,5,,,,,,,,,,,,,,,,0,,68,72
13680,note_on,,0,0,15,,,,,,,,,,,,,,,,15,,68,72
13680,note_on,,1,0,11,,,,,,,,,,,,,,,,10,,80,72
13680,note_on,,1,0,13,,,,,,,,,,,,,,,,12,,65,72
13680,note_on,,1,0,6,,,,,,,,,,,,,,,,2,,53,72
13680,note_on,,1,0,14,,,,,,,,,,,,,,,,13,,53,72
13680,note_on,,1,0,8,,,,,,,,,,,,,,,,6,,62,72
13739,note_on,,59,0,11,,,,,,,,,,,,,,,,10,,80,0
13739,note_on,,0,0,15,,,,,,,,,,,,,,,,15,,62,0
13739,note_on,,59,0,10,,,,,,,,,,,,,,,,8,,53,0
13739,note_on,,0,0,15,,,,,,,,,,,,,,,,15,,65,0
13739,note_on,,0,0,15,,,,,,,,,,,,,,,,15,,68,0
13739,note_on,,59,0,8,,,,,,,,,,,,,,,,6,,62,0
13739,note_on,,59,0,14,,,,,,,,,,,,,,,,13,,53,0
13739,note_on,,59,0,7,,,,,,,,,,,,,,,,5,,68,0
13739,note_on,,59,0,13,,,,,,,,,,,,,,,,12,,65,0
13739,note_on,,59,0,5,,,,,,,,,,,,,,,,0,,68,0
13739,note_on,,0,0,15,,,,,,,,,,,,,,,,15,,56,0
13739,note_on,,59,0,15,,,,,,,,,,,,,,,,15,,53,0
13739,note_on,,59,0,12,,,,,,,,,,,,,,,,11,,74,0
13739,note_on,,59,0,6,,,,,,,,,,,,,,,,2,,53,0
13740,note_on,,0,0,15,,,,,,,,,,,,,,,,15,,55,72
13740,note_on,,1,0,14,,,,,,,,,,,,,,,,13,,51,72
13740,note_on,,1,0,7,,,,,,,,,,,,,,,,5,,67,72
13740,note_on,,1,0,15,,,,,,,,,,,,,,,,15,,51,72
13740,note_on,,0,0,15,,,,,,,,,,,,,,,,15,,70,72
13740,note_on,,0,0,15,,,,,,,,,,,,,,,,15,,63,72
13740,note_on,,1,0,11,,,,,,,,,,,,,,,,10,,79,72
13740,note_on,,1,0,10,,,,,,,,,,,,,,,,8,,51,72
13740,note_on,,1,0,12,,,,,,,,,,,,,,,,11,,75,72
13740,note_on,,1,0,8,,,,,,,,,,,,,,,,6,,63,72
13740,note_on,,0,0,15,,,,,,,,,,,,,,,,15,,67,72
13740,note_on,,1,0,6,,,,,,,,,,,,,,,,2,,51,72
13740,note_on,,1,0,13,,,,,,,,,,,,,,,,12,,70,72
13740,note_on,,1,0,5,,,,,,,,,,,,,,,,0,,67,72
13769,note_on,,29,0,5,,,,,,,,,,,,,,,,0,,67,0
13769,note_on,,29,0,12,,,,,,,,,,,,,,,,11,,75,0
13769,note_on,,29,0,11,,,,,,,,,,,,,,,,10,,79,0
13769,note_on,,29,0,8,,,,,,,,,,,,,,,,6,,63,0
13769,note_on,,29,0,7,,,,,,,,,,,,,,,,5,,67,0
13770,note_on,,1,0,7,,,,,,,,,,,,,,,,5,,65,72
13770,note_on,,1,0,11,,,,,,,,,,,,,,,,10,,77,72
13770,note_on,,1,0,12,,,,,,,,,,,,,,,,11,,77,72
13770,note_on,,1,0,5,,,,,,,,,,,,,,,,0,,65,72
13770,note_on,,1,0,8,,,,,,,,,,,,,,,,6,,65,72
13799,note_on,,59,0,14,,,,,,,,,,,,,,,,13,,51,0
13799,note_on,,59,0,10,,,,,,,,,,,,,,,,8,,51,0
13799,note_on,,29,0,11,,,,,,,,,,,,,,,,10,,77,0
13799,note_on,,59,0,13,,,,,,,,,,,,,,,,12,,70,0
13799,note_on,,29,0,12,,,,,,,,,,,,,,,,11,,77,0
13799,note_on,,59,0,15,,,,,,,,,,,,,,,,15,,51,0
13799,note_on,,0,0,15,,,,,,,,,,,,,,,,15,,55,0
13799,note_on,,0,0,15,,,,,,,,,,,,,,,,15,,67,0
13799,note_on,,0,0,15,,,,,,,,,,,,,,,,15,,63,0
13799,note_on,,59,0,6,,,,,,,,,,,,,,,,2,,51,0
13799,note_on,,29,0,8,,,,,,,,,,,,,,,,6,,65,0
13799,note_on,,29,0,5,,,,,,,,,,,,,,,,0,,65,0
13799,note_on,,29,0,7,,,,,,,,,,,,,,,,5,,65,0
13800,note_on,,1,0,5,,,,,,,,,,,,,,,,0,,65,72
13800,note_on,,1,0,13,,,,,,,,,,,,,,,,12,,70,72
13800,note_on,,0,0,15,,,,,,,,,,,,,,,,15,,62,72
13800,note_on,,1,0,7,,,,,,,,,,,,,,,,5,,65,72
13800,note_on,,1,0,10,,,,,,,,,,,,,,,,8,,58,72
13800,note_on,,1,0,11,,,,,,,,,,,,,,,,10,,77,72
13800,note_on,,1,0,15,,,,,,,,,,,,,,,,15,,58,72
13800,note_on,,1,0,6,,,,,,,,,,,,,,,,2,,58,72
13800,note_on,,0,0,15,,,,,,,,,,,,,,,,15,,58,72
13800,note_on,,1,0,8,,,,,,,,,,,,,,,,6,,62,72
13800,note_on,,0,0,15,,,,,,,,,,,,,,,,15,,65,72
13800,note_on,,1,0,14,,,,,,,,,,,,,,,,13,,58,72
13800,note_on,,1,0,12,,,,,,,,,,,,,,,,11,,74,72
13814,note_on,,14,0,11,,,,,,,,,,,,,,,,10,,77,0
13814,note_on,,14,0,12,,,,,,,,,,,,,,,,11,,74,0
13815,note_on,,1,0,11,,,,,,,,,,,,,,,,10,,79,72
13815,note_on,,1,0,12,,,,,,,,,,,,,,,,11,,75,72
13829,note_on,,14,0,12,,,,,,,,,,,,,,,,11,,75,0
13829,note_on,,14,0,11,,,,,,,,,,,,,,,,10,,79,0
13830,note_on,,1,0,12,,,,,,,,,,,,,,,,11,,74,72
13830,note_on,,1,0,11,,,,,,,,,,,,,,,,10,,77,72
13844,note_on,,14,0,12,,,,,,,,,,,,,,,,11,,74,0
13844,note_on,,14,0,11,,,,,,,,,,,,,,,,10,,77,0
13845,note_on,,1,0,12,,,,,,,,,,,,,,,,11,,75,72
13845,note_on,,1,0,11,,,,,,,,,,,,,,,,10,,79,72
13859,note_on,,14,0,11,,,,,,,,,,,,,,,,10,,79,0
13859,note_on,,59,0,6,,,,,,,,,,,,,,,,2,,58,0
13859,note_on,,59,0,13,,,,,,,,,,,,,,,,12,,70,0
13859,note_on,,59,0,15,,,,,,,,,,,,,,,,15,,70,0
13859,note_on,,0,0,15,,,,,,,,,,,,,,,,15,,58,0
13859,note_on,,0,0,15,,,,,,,,,,,,,,,,15,,65,0
13859,note_on,,59,0,14,,,,,,,,,,,,,,,,13,,58,0
13859,note_on,,0,0,15,,,,,,,,,,,,,,,,15,,62,0
13859,note_on,,59,0,10,,,,,,,,,,,,,,,,8,,58,0
13859,note_on,,14,0,12,,,,,,,,,,,,,,,,11,,75,0
13860,note_on,,1,0,6,,,,,,,,,,,,,,,,2,,46,72
13860,note_on,,781,0,9,,,,,,,,,,,,,,,,7,,53,72
13860,note_on,,1,0,14,,,,,,,,,,,,,,,,13,,46,72
13860,note_on,,1,0,13,,,,,,,,,,,,,,,,12,,65,72
13860,note_on,,1,0,11,,,,,,,,,,,,,,,,10,,75,72
13860,note_on,,1,0,12,,,,,,,,,,,,,,,,11,,72,72
13860,note_on,,1,0,10,,,,,,,,,,,,,,,,8,,46,72
13860,note_on,,0,0,15,,,,,,,,,,,,,,,,15,,70,72
13860,note_on,,0,0,15,,,,,,,,,,,,,,,,15,,65,72
13860,note_on,,1,0,15,,,,,,,,,,,,,,,,15,,46,72
13860,note_on,,0,0,15,,,,,,,,,,,,,,,,15,,74,72
13874,note_on,,14,0,12,,,,,,,,,,,,,,,,11,,72,0
13874,note_on,,14,0,11,,,,,,,,,,,,,,,,10,,75,0
13875,note_on,,1,0,11,,,,,,,,,,,,,,,,10,,77,72
13875,note_on,,1,0,12,,,,,,,,,,,,,,,,11,,74,72
13889,note_on,,14,0,12,,,,,,,,,,,,,,,,11,,74,0
13889,note_on,,89,0,7,,,,,,,,,,,,,,,,5,,65,0
13889,note_on,,89,0,8,,,,,,,,,,,,,,,,6,,62,0
13889,note_on,,14,0,11,,,,,,,,,,,,,,,,10,,77,0
13889,note_on,,89,0,5,,,,,,,,,,,,,,,,0,,65,0
13890,note_on,,1,0,7,,,,,,,,,,,,,,,,5,,63,72
13890,note_on,,1,0,11,,,,,,,,,,,,,,,,10,,75,72
13890,note_on,,1,0,8,,,,,,,,,,,,,,,,6,,63,72
13890,note_on,,1,0,5,,,,,,,,,,,,,,,,0,,63,72
13890,note_on,,1,0,12,,,,,,,,,,,,,,,,11,,75,72
13919,note_on,,59,0,15,,,,,,,,,,,,,,,,15,,58,0
13919,note_on,,59,0,6,,,,,,,,,,,,,,,,2,,46,0
13919,note_on,,29,0,11,,,,,,,,,,,,,,,,10,,75,0
13919,note_on,,29,0,5,,,,,,,,,,,,,,,,0,,63,0
13919,note_on,,59,0,10,,,,,,,,,,,,,,,,8,,46,0
13919,note_on,,29,0,12,,,,,,,,,,,,,,,,11,,75,0
13919,note_on,,59,0,14,,,,,,,,,,,,,,,,13,,46,0
13919,note_on,,29,0,7,,,,,,,,,,,,,,,,5,,63,0
13919,note_on,,0,0,15,,,,,,,,,,,,,,,,15,,70,0
13919,note_on,,0,0,15,,,,,,,,,,,,,,,,15,,74,0
13919,note_on,,0,0,15,,,,,,,,,,,,,,,,15,,46,0
13919,note_on,,59,0,13,,,,,,,,,,,,,,,,12,,65,0
13919,note_on,,29,0,8,,,,,,,,,,,,,,,,6,,63,0
13919,note_on,,59,0,9,,,,,,,,,,,,,,,,7,,53,0
13919,note_on,,0,0,15,,,,,,,,,,,,,,,,15,,65,0
13920,note_on,,1,0,12,,,,,,,,,,,,,,,,11,,75,72
13920,note_on,,1,0,14,,,,,,,,,,,,,,,,13,,51,72
13920,note_on,,1,0,7,,,,,,,,,,,,,,,,5,,63,72
13920,note_on,,1,0,11,,,,,,,,,,,,,,,,10,,75,72
13920,note_on,,1,0,13,,,,,,,,,,,,,,,,12,,67,72
13920,note_on,,1,0,9,,,,,,,,,,,,,,,,7,,55,72
13920,note_on,,1,0,10,,,,,,,,,,,,,,,,8,,51,72
13920,note_on,,1,0,8,,,,,,,,,,,,,,,,6,,63,72
13920,note_on,,1,0,5,,,,,,,,,,,,,,,,0,,63,72
13920,note_on,,0,0,15,,,,,,,,,,,,,,,,15,,58,72
13920,note_on,,0,0,15,,,,,,,,,,,,,,,,15,,67,72
13920,note_on,,0,0,15,,,,,,,,,,,,,,,,15,,70,72
13920,note_on,,0,0,15,,,,,,,,,,,,,,,,15,,75,72
13920,note_on,,1,0,6,,,,,,,,,,,,,,,,2,,51,72
13920,note_on,,1,0,15,,,,,,,,,,,,,,,,15,,51,72
13949,note_on,,29,0,13,,,,,,,,,,,,,,,,12,,67,0
13949,note_on,,29,0,10,,,,,,,,,,,,,,,,8,,51,0
13949,note_on,,29,0,9,,,,,,,,,,,,,,,,7,,55,0
13950,note_on,,1,0,9,,,,,,,,,,,,,,,,7,,56,72
13950,note_on,,1,0,10,,,,,,,,,,,,,,,,8,,53,72
13950,note_on,,1,0,13,,,,,,,,,,,,,,,,12,,68,72
13979,note_on,,29,0,13,,,,,,,,,,,,,,,,12,,68,0
13979,note_on,,29,0,10,,,,,,,,,,,,,,,,8,,53,0
13979,note_on,,59,0,14,,,,,,,,,,,,,,,,13,,51,0
13979,note_on,,59,0,6,,,,,,,,,,,,,,,,2,,51,0
13979,note_on,,59,0,15,,,,,,,,,,,,,,,,15,,51,0
13979,note_on,,29,0,9,,,,,,,,,,,,,,,,7,,56,0
13980,note_on,,1,0,6,,,,,,,,,,,,,,,,2,,55,72
13980,note_on,,1,0,9,,,,,,,,,,,,,,,,7,,58,72
13980,note_on,,1,0,10,,,,,,,,,,,,,,,,8,,55,72
13980,note_on,,1,0,14,,,,,,,,,,,,,,,,13,,55,72
13980,note_on,,1,0,13,,,,,,,,,,,,,,,,12,,70,72
13980,note_on,,1,0,15,,,,,,,,,,,,,,,,15,,55,72
14039,note_on,,119,0,12,,,,,,,,,,,,,,,,11,,75,0
14039,note_on,,59,0,14,,,,,,,,,,,,,,,,13,,55,0
14039,note_on,,59,0,10,,,,,,,,,,,,,,,,8,,55,0
14039,note_on,,59,0,9,,,,,,,,,,,,,,,,7,,58,0
14039,note_on,,119,0,7,,,,,,,,,,,,,,,,5,,63,0
14039,note_on,,59,0,13,,,,,,,,,,,,,,,,12,,70,0
14039,note_on,,59,0,6,,,,,,,,,,,,,,,,2,,55,0
14039,note_on,,0,0,15,,,,,,,,,,,,,,,,15,,67,0
14039,note_on,,119,0,11,,,,,,,,,,,,,,,,10,,75,0
14039,note_on,,119,0,8,,,,,,,,,,,,,,,,6,,63,0
14039,note_on,,0,0,15,,,,,,,,,,,,,,,,15,,55,0
14039,note_on,,119,0,5,,,,,,,,,,,,,,,,0,,63,0
14039,note_on,,0,0,15,,,,,,,,,,,,,,,,15,,58,0
14039,note_on,,59,0,15,,,,,,,,,,,,,,,,15,,75,0
14039,note_on,,0,0,15,,,,,,,,,,,,,,,,15,,70,0
14100,note_on,,61,0,6,,,,,,,,,,,,,,,,2,,56,48
14100,note_on,,0,0,15,,,,,,,,,,,,,,,,15,,68,48
14100,note_on,,0,0,15,,,,,,,,,,,,,,,,15,,63,48
14100,note_on,,61,0,10,,,,,,,,,,,,,,,,8,,56,72
14100,note_on,,61,0,15,,,,,,,,,,,,,,,,15,,56,48
14100,note_on,,61,0,14,,,,,,,,,,,,,,,,13,,56,48
14100,note_on,,61,0,9,,,,,,,,,,,,,,,,7,,60,72
14100,note_on,,0,0,15,,,,,,,,,,,,,,,,15,,72,48
14159,note_on,,59,0,6,,,,,,,,,,,,,,,,2,,56,0
14159,note_on,,0,0,15,,,,,,,,,,,,,,,,15,,72,0
14159,note_on,,59,0,14,,,,,,,,,,,,,,,,13,,56,0
14159,note_on,,59,0,15,,,,,,,,,,,,,,,,15,,56,0
14159,note_on,,0,0,15,,,,,,,,,,,,,,,,15,,63,0
14159,note_on,,59,0,9,,,,,,,,,,,,,,,,7,,60,0
14159,note_on,,59,0,10,,,,,,,,,,,,,,,,8,,56,0
14159,note_on,,0,0,15,,,,,,,,,,,,,,,,15,,68,0
14160,note_on,,0,0,15,,,,,,,,,,,,,,,,15,,70,48
14160,note_on,,1,0,15,,,,,,,,,,,,,,,,15,,58,48
14160,note_on,,0,0,15,,,,,,,,,,,,,,,,15,,65,48
14160,note_on,,0,0,15,,,,,,,,,,,,,,,,15,,62,48
14160,note_on,,1,0,14,,,,,,,,,,,,,,,,13,,58,48
14160,note_on,,1,0,9,,,,,,,,,,,,,,,,7,,62,72
14160,note_on,,1,0,10,,,,,,,,,,,,,,,,8,,58,72
14160,note_on,,1,0,6,,,,,,,,,,,,,,,,2,,58,48
14219,note_on,,59,0,10,,,,,,,,,,,,,,,,8,,58,0
14219,note_on,,59,0,6,,,,,,,,,,,,,,,,2,,58,0
14219,note_on,,0,0,15,,,,,,,,,,,,,,,,15,,70,0
14219,note_on,,0,0,15,,,,,,,,,,,,,,,,15,,65,0
14219,note_on,,0,0,15,,,,,,,,,,,,,,,,15,,62,0
14219,note_on,,59,0,9,,,,,,,,,,,,,,,,7,,62,0
14219,note_on,,59,0,15,,,,,,,,,,,,,,,,15,,58,0
14219,note_on,,59,0,14,,,,,,,,,,,,,,,,13,,58,0
14220,note_on,,1,0,15,,,,,,,,,,,,,,,,15,,60,48
14220,note_on,,0,0,15,,,,,,,,,,,,,,,,15,,67,48
14220,note_on,,1,0,10,,,,,,,,,,,,,,,,8,,60,72
14220,note_on,,1,0,14,,,,,,,,,,,,,,,,13,,60,48
14220,note_on,,1,0,9,,,,,,,,,,,,,,,,7,,63,72
14220,note_on,,1,0,6,,,,,,,,,,,,,,,,2,,60,48
14220,note_on,,0,0,15,,,,,,,,,,,,,,,,15,,63,48
14249,note_on,,29,0,9,,,,,,,,,,,,,,,,7,,63,0
14250,note_on,,1,0,9,,,,,,,,,,,,,,,,7,,65,72
14279,note_on,,59,0,10,,,,,,,,,,,,,,,,8,,60,0
14279,note_on,,59,0,14,,,,,,,,,,,,,,,,13,,60,0
14279,note_on,,0,0,15,,,,,,,,,,,,,,,,15,,67,0
14279,note_on,,0,0,15,,,,,,,,,,,,,,,,15,,63,0
14279,note_on,,29,0,9,,,,,,,,,,,,,,,,7,,65,0
14279,note_on,,59,0,6,,,,,,,,,,,,,,,,2,,60,0
14279,note_on,,59,0,15,,,,,,,,,,,,,,,,15,,60,0
14280,note_on,,1,0,10,,,,,,,,,,,,,,,,8,,53,72
14280,note_on,,1,0,9,,,,,,,,,,,,,,,,7,,62,72
14280,note_on,,1,0,15,,,,,,,,,,,,,,,,15,,53,48
14280,note_on,,0,0,15,,,,,,,,,,,,,,,,15,,68,48
14280,note_on,,0,0,15,,,,,,,,,,,,,,,,15,,65,48
14280,note_on,,1,0,14,,,,,,,,,,,,,,,,13,,53,48
14280,note_on,,1,0,6,,,,,,,,,,,,,,,,2,,53,48
14339,note_on,,59,0,15,,,,,,,,,,,,,,,,15,,53,0
14339,note_on,,0,0,15,,,,,,,,,,,,,,,,15,,68,0
14339,note_on,,0,0,15,,,,,,,,,,,,,,,,15,,65,0
14339,note_on,,59,0,6,,,,,,,,,,,,,,,,2,,53,0
14339,note_on,,59,0,10,,,,,,,,,,,,,,,,8,,53,0
14339,note_on,,59,0,14,,,,,,,,,,,,,,,,13,,53,0
14340,note_on,,1,0,10,,,,,,,,,,,,,,,,8,,58,72
14340,note_on,,301,0,5,,,,,,,,,,,,,,,,0,,70,48
14340,note_on,,1,0,14,,,,,,,,,,,,,,,,13,,58,48
14340,note_on,,1,0,15,,,,,,,,,,,,,,,,15,,58,48
14340,note_on,,1,0,6,,,,,,,,,,,,,,,,2,,58,48
14340,note_on,,301,0,7,,,,,,,,,,,,,,,,5,,70,48
14340,note_on,,0,0,15,,,,,,,,,,,,,,,,15,,65,48
14340,note_on,,0,0,15,,,,,,,,,,,,,,,,15,,62,48
14369,note_on,,89,0,9,,,,,,,,,,,,,,,,7,,62,0
14370,note_on,,1,0,9,,,,,,,,,,,,,,,,7,,63,72
14399,note_on,,59,0,6,,,,,,,,,,,,,,,,2,,58,0
14399,note_on,,0,0,15,,,,,,,,,,,,,,,,15,,62,0
14399,note_on,,59,0,7,,,,,,,,,,,,,,,,5,,70,0
14399,note_on,,0,0,15,,,,,,,,,,,,,,,,15,,65,0
14399,note_on,,59,0,5,,,,,,,,,,,,,,,,0,,70,0
14399,note_on,,29,0,9,,,,,,,,,,,,,,,,7,,63,0
14399,note_on,,59,0,15,,,,,,,,,,,,,,,,15,,58,0
14399,note_on,,59,0,10,,,,,,,,,,,,,,,,8,,58,0
14399,note_on,,59,0,14,,,,,,,,,,,,,,,,13,,58,0
14400,note_on,,1,0,15,,,,,,,,,,,,,,,,15,,55,48
14400,note_on,,0,0,15,,,,,,,,,,,,,,,,15,,58,48
14400,note_on,,1,0,9,,,,,,,,,,,,,,,,7,,63,72
14400,note_on,,0,0,15,,,,,,,,,,,,,,,,15,,63,48
14400,note_on,,1,0,10,,,,,,,,,,,,,,,,8,,55,72
14400,note_on,,1,0,5,,,,,,,,,,,,,,,,0,,63,48
14400,note_on,,0,0,15,,,,,,,,,,,,,,,,15,,70,48
14400,note_on,,1,0,6,,,,,,,,,,,,,,,,2,,55,48
14400,note_on,,1,0,7,,,,,,,,,,,,,,,,5,,63,48
14400,note_on,,1,0,14,,,,,,,,,,,,,,,,13,,55,48
14429,note_on,,29,0,10,,,,,,,,,,,,,,,,8,,55,0
14430,note_on,,1,0,10,,,,,,,,,,,,,,,,8,,53,72
14459,note_on,,29,0,10,,,,,,,,,,,,,,,,8,,53,0
14459,note_on,,0,0,15,,,,,,,,,,,,,,,,15,,70,0
14459,note_on,,59,0,15,,,,,,,,,,,,,,,,15,,55,0
14459,note_on,,0,0,15,,,,,,,,,,,,,,,,15,,58,0
14459,note_on,,0,0,15,,,,,,,,,,,,,,,,15,,63,0
14459,note_on,,59,0,6,,,,,,,,,,,,,,,,2,,55,0
14459,note_on,,59,0,14,,,,,,,,,,,,,,,,13,,55,0
14460,note_on,,1,0,10,,,,,,,,,,,,,,,,8,,51,72
14460,note_on,,0,0,15,,,,,,,,,,,,,,,,15,,55,48
14460,note_on,,0,0,15,,,,,,,,,,,,,,,,15,,70,48
14460,note_on,,0,0,15,,,,,,,,,,,,,,,,15,,75,48
14460,note_on,,0,0,15,,,,,,,,,,,,,,,,15,,67,48
14460,note_on,,1,0,14,,,,,,,,,,,,,,,,13,,51,48
14460,note_on,,1,0,6,,,,,,,,,,,,,,,,2,,51,48
14460,note_on,,1,0,15,,,,,,,,,,,,,,,,15,,51,48
14489,note_on,,89,0,7,,,,,,,,,,,,,,,,5,,63,0
14489,note_on,,89,0,5,,,,,,,,,,,,,,,,0,,63,0
14490,note_on,,1,0,7,,,,,,,,,,,,,,,,5,,65,48
14490,note_on,,1,0,5,,,,,,,,,,,,,,,,0,,65,48
14519,note_on,,59,0,6,,,,,,,,,,,,,,,,2,,51,0
14519,note_on,,29,0,5,,,,,,,,,,,,,,,,0,,65,0
14519,note_on,,0,0,15,,,,,,,,,,,,,,,,15,,75,0
14519,note_on,,29,0,7,,,,,,,,,,,,,,,,5,,65,0
14519,note_on,,0,0,15,,,,,,,,,,,,,,,,15,,55,0
14519,note_on,,0,0,15,,,,,,,,,,,,,,,,15,,67,0
14519,note_on,,0,0,15,,,,,,,,,,,,,,,,15,,70,0
14519,note_on,,59,0,15,,,,,,,,,,,,,,,,15,,51,0
14519,note_on,,59,0,14,,,,,,,,,,,,,,,,13,,51,0
14519,note_on,,59,0,10,,,,,,,,,,,,,,,,8,,51,0
14519,note_on,,119,0,9,,,,,,,,,,,,,,,,7,,63,0
14520,note_on,,1,0,7,,,,,,,,,,,,,,,,5,,67,48
14520,note_on,,1,0,5,,,,,,,,,,,,,,,,0,,67,48
14579,note_on,,59,0,5,,,,,,,,,,,,,,,,0,,67,0
14579,note_on,,59,0,7,,,,,,,,,,,,,,,,5,,67,0
14580,note_on,,0,0,15,,,,,,,,,,,,,,,,15,,74,48
14580,note_on,,0,0,15,,,,,,,,,,,,,,,,15,,65,48
14580,note_on,,0,0,15,,,,,,,,,,,,,,,,15,,70,48
14580,note_on,,61,0,6,,,,,,,,,,,,,,,,2,,46,48
14580,note_on,,61,0,15,,,,,,,,,,,,,,,,15,,46,48
14580,note_on,,61,0,14,,,,,,,,,,,,,,,,13,,46,48
14580,note_on,,1,0,5,,,,,,,,,,,,,,,,0,,65,48
14580,note_on,,0,0,15,,,,,,,,,,,,,,,,15,,58,48
14580,note_on,,1,0,7,,,,,,,,,,,,,,,,5,,65,48
14580,note_on,,61,0,10,,,,,,,,,,,,,,,,8,,46,48
14609,note_on,,29,0,7,,,,,,,,,,,,,,,,5,,65,0
14609,note_on,,29,0,5,,,,,,,,,,,,,,,,0,,65,0
14610,note_on,,1,0,7,,,,,,,,,,,,,,,,5,,63,48
14610,note_on,,1,0,5,,,,,,,,,,,,,,,,0,,63,48
14639,note_on,,0,0,15,,,,,,,,,,,,,,,,15,,65,0
14639,note_on,,0,0,15,,,,,,,,,,,,,,,,15,,58,0
14639,note_on,,0,0,15,,,,,,,,,,,,,,,,15,,70,0
14639,note_on,,59,0,6,,,,,,,,,,,,,,,,2,,46,0
14639,note_on,,29,0,5,,,,,,,,,,,,,,,,0,,63,0
14639,note_on,,59,0,15,,,,,,,,,,,,,,,,15,,46,0
14639,note_on,,59,0,14,,,,,,,,,,,,,,,,13,,46,0
14639,note_on,,29,0,7,,,,,,,,,,,,,,,,5,,63,0
14639,note_on,,0,0,15,,,,,,,,,,,,,,,,15,,74,0
14639,note_on,,59,0,10,,,,,,,,,,,,,,,,8,,46,0
14640,note_on,,1,0,6,,,,,,,,,,,,,,,,2,,43,48
14640,note_on,,1,0,5,,,,,,,,,,,,,,,,0,,75,48
14640,note_on,,0,0,15,,,,,,,,,,,,,,,,15,,67,48
14640,note_on,,1,0,15,,,,,,,,,,,,,,,,15,,43,48
14640,note_on,,0,0,15,,,,,,,,,,,,,,,,15,,51,48
14640,note_on,,0,0,15,,,,,,,,,,,,,,,,15,,75,48
14640,note_on,,0,0,15,,,,,,,,,,,,,,,,15,,70,48
14640,note_on,,1,0,7,,,,,,,,,,,,,,,,5,,75,48
14640,note_on,,1,0,14,,,,,,,,,,,,,,,,13,,43,48
14640,note_on,,1,0,10,,,,,,,,,,,,,,,,8,,51,48
14699,note_on,,0,0,15,,,,,,,,,,,,,,,,15,,67,0
14699,note_on,,0,0,15,,,,,,,,,,,,,,,,15,,70,0
14699,note_on,,0,0,15,,,,,,,,,,,,,,,,15,,75,0
14699,note_on,,59,0,15,,,,,,,,,,,,,,,,15,,43,0
14699,note_on,,59,0,14,,,,,,,,,,,,,,,,13,,43,0
14699,note_on,,59,0,6,,,,,,,,,,,,,,,,2,,43,0
14700,note_on,,1,0,14,,,,,,,,,,,,,,,,13,,39,48
14700,note_on,,0,0,15,,,,,,,,,,,,,,,,15,,79,48
14700,note_on,,1,0,6,,,,,,,,,,,,,,,,2,,39,48
14700,note_on,,1,0,15,,,,,,,,,,,,,,,,15,,39,48
14700,note_on,,0,0,15,,,,,,,,,,,,,,,,15,,75,48
14700,note_on,,0,0,15,,,,,,,,,,,,,,,,15,,70,48
14729,note_on,,89,0,10,,,,,,,,,,,,,,,,8,,51,0
14730,note_on,,1,0,10,,,,,,,,,,,,,,,,8,,53,48
14759,note_on,,59,0,15,,,,,,,,,,,,,,,,15,,51,0
14759,note_on,,59,0,14,,,,,,,,,,,,,,,,13,,39,0
14759,note_on,,29,0,10,,,,,,,,,,,,,,,,8,,53,0
14759,note_on,,0,0,15,,,,,,,,,,,,,,,,15,,79,0
14759,note_on,,0,0,15,,,,,,,,,,,,,,,,15,,39,0
14759,note_on,,59,0,6,,,,,,,,,,,,,,,,2,,39,0
14759,note_on,,0,0,15,,,,,,,,,,,,,,,,15,,75,0
14759,note_on,,0,0,15,,,,,,,,,,,,,,,,15,,70,0
14760,note_on,,1,0,10,,,,,,,,,,,,,,,,8,,55,48
14789,note_on,,149,0,5,,,,,,,,,,,,,,,,0,,75,0
14789,note_on,,149,0,7,,,,,,,,,,,,,,,,5,,75,0
14790,note_on,,1,0,5,,,,,,,,,,,,,,,,0,,77,48
14790,note_on,,1,0,7,,,,,,,,,,,,,,,,5,,77,48
14819,note_on,,29,0,7,,,,,,,,,,,,,,,,5,,77,0
14819,note_on,,29,0,5,,,,,,,,,,,,,,,,0,,77,0
14819,note_on,,59,0,10,,,,,,,,,,,,,,,,8,,55,0
14820,note_on,,1,0,5,,,,,,,,,,,,,,,,0,,75,48
14820,note_on,,0,0,15,,,,,,,,,,,,,,,,15,,72,48
14820,note_on,,61,0,14,,,,,,,,,,,,,,,,13,,48,48
14820,note_on,,61,0,15,,,,,,,,,,,,,,,,15,,48,48
14820,note_on,,0,0,15,,,,,,,,,,,,,,,,15,,51,48
14820,note_on,,61,0,6,,,,,,,,,,,,,,,,2,,48,48
14820,note_on,,0,0,15,,,,,,,,,,,,,,,,15,,63,48
14820,note_on,,0,0,15,,,,,,,,,,,,,,,,15,,69,48
14820,note_on,,1,0,7,,,,,,,,,,,,,,,,5,,75,48
14820,note_on,,1,0,10,,,,,,,,,,,,,,,,8,,53,48
14849,note_on,,29,0,10,,,,,,,,,,,,,,,,8,,53,0
14849,note_on,,29,0,5,,,,,,,,,,,,,,,,0,,75,0
14849,note_on,,29,0,7,,,,,,,,,,,,,,,,5,,75,0
14850,note_on,,1,0,5,,,,,,,,,,,,,,,,0,,77,48
14850,note_on,,1,0,7,,,,,,,,,,,,,,,,5,,77,48
14850,note_on,,1,0,10,,,,,,,,,,,,,,,,8,,51,48
14879,note_on,,29,0,7,,,,,,,,,,,,,,,,5,,77,0
14879,note_on,,59,0,6,,,,,,,,,,,,,,,,2,,48,0
14879,note_on,,29,0,10,,,,,,,,,,,,,,,,8,,51,0
14879,note_on,,0,0,15,,,,,,,,,,,,,,,,15,,51,0
14879,note_on,,0,0,15,,,,,,,,,,,,,,,,15,,63,0
14879,note_on,,0,0,15,,,,,,,,,,,,,,,,15,,69,0
14879,note_on,,0,0,15,,,,,,,,,,,,,,,,15,,72,0
14879,note_on,,59,0,15,,,,,,,,,,,,,,,,15,,48,0
14879,note_on,,59,0,14,,,,,,,,,,,,,,,,13,,48,0
14879,note_on,,29,0,5,,,,,,,,,,,,,,,,0,,77,0
14880,note_on,,0,0,15,,,,,,,,,,,,,,,,15,,74,48
14880,note_on,,1,0,14,,,,,,,,,,,,,,,,13,,46,48
14880,note_on,,1,0,7,,,,,,,,,,,,,,,,5,,74,48
14880,note_on,,1,0,5,,,,,,,,,,,,,,,,0,,74,48
14880,note_on,,0,0,15,,,,,,,,,,,,,,,,15,,70,48
14880,note_on,,0,0,15,,,,,,,,,,,,,,,,15,,65,48
14880,note_on,,0,0,15,,,,,,,,,,,,,,,,15,,58,48
14880,note_on,,1,0,6,,,,,,,,,,,,,,,,2,,46,48
14880,note_on,,1,0,15,,,,,,,,,,,,,,,,15,,46,48
14880,note_on,,1,0,10,,,,,,,,,,,,,,,,8,,58,48
14924,note_on,,44,0,5,,,,,,,,,,,,,,,,0,,74,0
14924,note_on,,44,0,7,,,,,,,,,,,,,,,,5,,74,0
14925,note_on,,1,0,5,,,,,,,,,,,,,,,,0,,72,48
14925,note_on,,1,0,7,,,,,,,,,,,,,,,,5,,72,48
14939,note_on,,14,0,5,,,,,,,,,,,,,,,,0,,72,0
14939,note_on,,14,0,7,,,,,,,,,,,,,,,,5,,72,0
14939,note_on,,59,0,6,,,,,,,,,,,,,,,,2,,46,0
14939,note_on,,59,0,15,,,,,,,,,,,,,,,,15,,46,0
14939,note_on,,59,0,14,,,,,,,,,,,,,,,,13,,46,0
14940,note_on,,1,0,7,,,,,,,,,,,,,,,,5,,74,48
14940,note_on,,1,0,6,,,,,,,,,,,,,,,,2,,46,48
14940,note_on,,1,0,15,,,,,,,,,,,,,,,,15,,46,48
14940,note_on,,1,0,14,,,,,,,,,,,,,,,,13,,46,48
14940,note_on,,1,0,5,,,,,,,,,,,,,,,,0,,74,48
14969,note_on,,29,0,7,,,,,,,,,,,,,,,,5,,74,0
14969,note_on,,29,0,5,,,,,,,,,,,,,,,,0,,74,0
14970,note_on,,1,0,7,,,,,,,,,,,,,,,,5,,75,48
14970,note_on,,1,0,5,,,,,,,,,,,,,,,,0,,75,48
14999,note_on,,29,0,5,,,,,,,,,,,,,,,,0,,75,0
14999,note_on,,59,0,14,,,,,,,,,,,,,,,,13,,46,0
14999,note_on,,29,0,7,,,,,,,,,,,,,,,,5,,75,0
14999,note_on,,59,0,15,,,,,,,,,,,,,,,,15,,46,0
14999,note_on,,59,0,6,,,,,,,,,,,,,,,,2,,46,0
15000,note_on,,1,0,14,,,,,,,,,,,,,,,,13,,50,48
15000,note_on,,1,0,6,,,,,,,,,,,,,,,,2,,50,48
15000,note_on,,1,0,7,,,,,,,,,,,,,,,,5,,74,48
15000,note_on,,1,0,15,,,,,,,,,,,,,,,,15,,50,48
15000,note_on,,1,0,5,,,,,,,,,,,,,,,,0,,74,48
15029,note_on,,29,0,7,,,,,,,,,,,,,,,,5,,74,0
15029,note_on,,149,0,10,,,,,,,,,,,,,,,,8,,58,0
15029,note_on,,29,0,5,,,,,,,,,,,,,,,,0,,74,0
15030,note_on,,1,0,10,,,,,,,,,,,,,,,,8,,60,48
15030,note_on,,1,0,5,,,,,,,,,,,,,,,,0,,75,48
15030,note_on,,1,0,7,,,,,,,,,,,,,,,,5,,75,48
15059,note_on,,59,0,6,,,,,,,,,,,,,,,,2,,50,0
15059,note_on,,29,0,10,,,,,,,,,,,,,,,,8,,60,0
15059,note_on,,29,0,5,,,,,,,,,,,,,,,,0,,75,0
15059,note_on,,0,0,15,,,,,,,,,,,,,,,,15,,70,0
15059,note_on,,0,0,15,,,,,,,,,,,,,,,,15,,50,0
15059,note_on,,0,0,15,,,,,,,,,,,,,,,,15,,65,0
15059,note_on,,59,0,15,,,,,,,,,,,,,,,,15,,74,0
15059,note_on,,29,0,7,,,,,,,,,,,,,,,,5,,75,0
15059,note_on,,59,0,14,,,,,,,,,,,,,,,,13,,50,0
15060,note_on,,1,0,7,,,,,,,,,,,,,,,,5,,74,48
15060,note_on,,1,0,6,,,,,,,,,,,,,,,,2,,51,48
15060,note_on,,1,0,10,,,,,,,,,,,,,,,,8,,58,48
15060,note_on,,1,0,15,,,,,,,,,,,,,,,,15,,51,48
15060,note_on,,1,0,5,,,,,,,,,,,,,,,,0,,74,48
15060,note_on,,1,0,14,,,,,,,,,,,,,,,,13,,51,48
15089,note_on,,29,0,10,,,,,,,,,,,,,,,,8,,58,0
15089,note_on,,29,0,7,,,,,,,,,,,,,,,,5,,74,0
15089,note_on,,29,0,5,,,,,,,,,,,,,,,,0,,74,0
15090,note_on,,1,0,7,,,,,,,,,,,,,,,,5,,75,48
15090,note_on,,1,0,10,,,,,,,,,,,,,,,,8,,60,48
15090,note_on,,1,0,5,,,,,,,,,,,,,,,,0,,75,48
15119,note_on,,59,0,14,,,,,,,,,,,,,,,,13,,51,0
15119,note_on,,59,0,6,,,,,,,,,,,,,,,,2,,51,0
15119,note_on,,29,0,10,,,,,,,,,,,,,,,,8,,60,0
15119,note_on,,29,0,7,,,,,,,,,,,,,,,,5,,75,0
15119,note_on,,29,0,5,,,,,,,,,,,,,,,,0,,75,0
15119,note_on,,59,0,15,,,,,,,,,,,,,,,,15,,58,0
15119,note_on,,0,0,15,,,,,,,,,,,,,,,,15,,51,0
15120,note_on,,1,0,7,,,,,,,,,,,,,,,,5,,72,48
15120,note_on,,1,0,6,,,,,,,,,,,,,,,,2,,53,48
15120,note_on,,1,0,10,,,,,,,,,,,,,,,,8,,57,48
15120,note_on,,1,0,5,,,,,,,,,,,,,,,,0,,72,48
15120,note_on,,1,0,14,,,,,,,,,,,,,,,,13,,53,48
15120,note_on,,0,0,15,,,,,,,,,,,,,,,,15,,57,48
15120,note_on,,0,0,15,,,,,,,,,,,,,,,,15,,60,48
15120,note_on,,0,0,15,,,,,,,,,,,,,,,,15,,65,48
15120,note_on,,0,0,15,,,,,,,,,,,,,,,,15,,72,48
15120,note_on,,1,0,15,,,,,,,,,,,,,,,,15,,53,48
15149,note_on,,29,0,10,,,,,,,,,,,,,,,,8,,57,0
15150,note_on,,1,0,10,,,,,,,,,,,,,,,,8,,55,48
15179,note_on,,29,0,10,,,,,,,,,,,,,,,,8,,55,0
15179,note_on,,59,0,5,,,,,,,,,,,,,,,,0,,72,0
15179,note_on,,59,0,7,,,,,,,,,,,,,,,,5,,72,0
15180,note_on,,1,0,10,,,,,,,,,,,,,,,,8,,57,48
15180,note_on,,1,0,5,,,,,,,,,,,,,,,,0,,72,48
15180,note_on,,1,0,7,,,,,,,,,,,,,,,,5,,72,48
15209,note_on,,29,0,10,,,,,,,,,,,,,,,,8,,57,0
15210,note_on,,1,0,10,,,,,,,,,,,,,,,,8,,58,48
15239,note_on,,59,0,5,,,,,,,,,,,,,,,,0,,72,0
15239,note_on,,59,0,7,,,,,,,,,,,,,,,,5,,72,0
15239,note_on,,29,0,10,,,,,,,,,,,,,,,,8,,58,0
15240,note_on,,1,0,10,,,,,,,,,,,,,,,,8,,57,48
15269,note_on,,29,0,10,,,,,,,,,,,,,,,,8,,57,0
15270,note_on,,1,0,10,,,,,,,,,,,,,,,,8,,58,48
15299,note_on,,179,0,6,,,,,,,,,,,,,,,,2,,53,0
15299,note_on,,29,0,10,,,,,,,,,,,,,,,,8,,58,0
15299,note_on,,179,0,14,,,,,,,,,,,,,,,,13,,53,0
15299,note_on,,0,0,15,,,,,,,,,,,,,,,,15,,65,0
15299,note_on,,0,0,15,,,,,,,,,,,,,,,,15,,60,0
15299,note_on,,179,0,15,,,,,,,,,,,,,,,,15,,53,0
15299,note_on,,0,0,15,,,,,,,,,,,,,,,,15,,72,0
15300,note_on,,1,0,6,,,,,,,,,,,,,,,,2,,45,48
15300,note_on,,1,0,14,,,,,,,,,,,,,,,,13,,45,48
15300,note_on,,61,0,5,,,,,,,,,,,,,,,,0,,75,48
15300,note_on,,61,0,7,,,,,,,,,,,,,,,,5,,75,48
15300,note_on,,1,0,10,,,,,,,,,,,,,,,,8,,57,48
15300,note_on,,1,0,15,,,,,,,,,,,,,,,,15,,45,48
15329,note_on,,29,0,10,,,,,,,,,,,,,,,,8,,57,0
15330,note_on,,1,0,10,,,,,,,,,,,,,,,,8,,58,48
15359,note_on,,59,0,15,,,,,,,,,,,,,,,,15,,57,0
15359,note_on,,29,0,10,,,,,,,,,,,,,,,,8,,58,0
15359,note_on,,59,0,5,,,,,,,,,,,,,,,,0,,75,0
15359,note_on,,59,0,14,,,,,,,,,,,,,,,,13,,45,0
15359,note_on,,59,0,7,,,,,,,,,,,,,,,,5,,75,0
15359,note_on,,0,0,15,,,,,,,,,,,,,,,,15,,45,0
15359,note_on,,59,0,6,,,,,,,,,,,,,,,,2,,45,0
15360,note_on,,1,0,10,,,,,,,,,,,,,,,,8,,53,48
15360,note_on,,1,0,5,,,,,,,,,,,,,,,,0,,74,48
15360,note_on,,1,0,7,,,,,,,,,,,,,,,,5,,74,48
15360,note_on,,0,0,15,,,,,,,,,,,,,,,,15,,58,48
15360,note_on,,0,0,15,,,,,,,,,,,,,,,,15,,62,48
15360,note_on,,0,0,15,,,,,,,,,,,,,,,,15,,65,48
15360,note_on,,1,0,15,,,,,,,,,,,,,,,,15,,46,48
15360,note_on,,1,0,14,,,,,,,,,,,,,,,,13,,46,48
15360,note_on,,1,0,6,,,,,,,,,,,,,,,,2,,46,48
15389,note_on,,29,0,5,,,,,,,,,,,,,,,,0,,74,0
15389,note_on,,29,0,7,,,,,,,,,,,,,,,,5,,74,0
15390,note_on,,1,0,5,,,,,,,,,,,,,,,,0,,72,48
15390,note_on,,1,0,7,,,,,,,,,,,,,,,,5,,72,48
15419,note_on,,29,0,5,,,,,,,,,,,,,,,,0,,72,0
15419,note_on,,59,0,10,,,,,,,,,,,,,,,,8,,53,0
15419,note_on,,59,0,6,,,,,,,,,,,,,,,,2,,46,0
15419,note_on,,29,0,7,,,,,,,,,,,,,,,,5,,72,0
15419,note_on,,59,0,14,,,,,,,,,,,,,,,,13,,46,0
15419,note_on,,59,0,15,,,,,,,,,,,,,,,,15,,46,0
15420,note_on,,1,0,14,,,,,,,,,,,,,,,,13,,50,48
15420,note_on,,1,0,7,,,,,,,,,,,,,,,,5,,70,48
15420,note_on,,1,0,15,,,,,,,,,,,,,,,,15,,50,48
15420,note_on,,1,0,6,,,,,,,,,,,,,,,,2,,50,48
15420,note_on,,1,0,10,,,,,,,,,,,,,,,,8,,53,48
15420,note_on,,1,0,5,,,,,,,,,,,,,,,,0,,70,48
15479,note_on,,59,0,10,,,,,,,,,,,,,,,,8,,53,0
15479,note_on,,59,0,6,,,,,,,,,,,,,,,,2,,50,0
15479,note_on,,59,0,14,,,,,,,,,,,,,,,,13,,50,0
15479,note_on,,59,0,15,,,,,,,,,,,,,,,,15,,65,0
15479,note_on,,0,0,15,,,,,,,,,,,,,,,,15,,62,0
15479,note_on,,0,0,15,,,,,,,,,,,,,,,,15,,58,0
15479,note_on,,0,0,15,,,,,,,,,,,,,,,,15,,50,0
15480,note_on,,1,0,6,,,,,,,,,,,,,,,,2,,50,48
15480,note_on,,1,0,14,,,,,,,,,,,,,,,,13,,50,48
15480,note_on,,1,0,15,,,,,,,,,,,,,,,,15,,50,48
15539,note_on,,59,0,14,,,,,,,,,,,,,,,,13,,50,0
15539,note_on,,119,0,7,,,,,,,,,,,,,,,,5,,70,0
15539,note_on,,119,0,5,,,,,,,,,,,,,,,,0,,70,0
15539,note_on,,59,0,15,,,,,,,,,,,,,,,,15,,50,0
15539,note_on,,59,0,6,,,,,,,,,,,,,,,,2,,50,0
15540,note_on,,1,0,15,,,,,,,,,,,,,,,,15,,51,48
15540,note_on,,1,0,6,,,,,,,,,,,,,,,,2,,51,48
15540,note_on,,0,0,15,,,,,,,,,,,,,,,,15,,67,48
15540,note_on,,1,0,14,,,,,,,,,,,,,,,,13,,51,48
15540,note_on,,1,0,5,,,,,,,,,,,,,,,,0,,79,48
15540,note_on,,1,0,7,,,,,,,,,,,,,,,,5,,79,48
15540,note_on,,1021,0,9,,,,,,,,,,,,,,,,7,,63,48
15540,note_on,,0,0,15,,,,,,,,,,,,,,,,15,,58,48
15540,note_on,,0,0,15,,,,,,,,,,,,,,,,15,,55,48
15599,note_on,,59,0,6,,,,,,,,,,,,,,,,2,,51,0
15599,note_on,,59,0,15,,,,,,,,,,,,,,,,15,,51,0
15599,note_on,,0,0,15,,,,,,,,,,,,,,,,15,,67,0
15599,note_on,,0,0,15,,,,,,,,,,,,,,,,15,,58,0
15599,note_on,,0,0,15,,,,,,,,,,,,,,,,15,,55,0
15599,note_on,,59,0,7,,,,,,,,,,,,,,,,5,,79,0
15599,note_on,,59,0,14,,,,,,,,,,,,,,,,13,,51,0
15599,note_on,,59,0,9,,,,,,,,,,,,,,,,7,,63,0
15599,note_on,,59,0,5,,,,,,,,,,,,,,,,0,,79,0
15600,note_on,,1,0,6,,,,,,,,,,,,,,,,2,,46,48
15600,note_on,,1,0,14,,,,,,,,,,,,,,,,13,,46,48
15600,note_on,,1,0,9,,,,,,,,,,,,,,,,7,,62,48
15600,note_on,,1,0,15,,,,,,,,,,,,,,,,15,,46,48
15600,note_on,,0,0,15,,,,,,,,,,,,,,,,15,,70,48
15600,note_on,,0,0,15,,,,,,,,,,,,,,,,15,,62,48
15600,note_on,,1,0,5,,,,,,,,,,,,,,,,0,,77,48
15600,note_on,,1,0,7,,,,,,,,,,,,,,,,5,,77,48
15600,note_on,,0,0,15,,,,,,,,,,,,,,,,15,,65,48
15629,note_on,,29,0,5,,,,,,,,,,,,,,,,0,,77,0
15629,note_on,,29,0,7,,,,,,,,,,,,,,,,5,,77,0
15629,note_on,,29,0,9,,,,,,,,,,,,,,,,7,,62,0
15630,note_on,,1,0,9,,,,,,,,,,,,,,,,7,,60,48
15630,note_on,,1,0,5,,,,,,,,,,,,,,,,0,,75,48
15630,note_on,,1,0,7,,,,,,,,,,,,,,,,5,,75,48
15659,note_on,,59,0,15,,,,,,,,,,,,,,,,15,,46,0
15659,note_on,,59,0,14,,,,,,,,,,,,,,,,13,,46,0
15659,note_on,,29,0,5,,,,,,,,,,,,,,,,0,,75,0
15659,note_on,,29,0,7,,,,,,,,,,,,,,,,5,,75,0
15659,note_on,,29,0,9,,,,,,,,,,,,,,,,7,,60,0
15659,note_on,,59,0,6,,,,,,,,,,,,,,,,2,,46,0
15660,note_on,,1,0,7,,,,,,,,,,,,,,,,5,,74,48
15660,note_on,,1,0,15,,,,,,,,,,,,,,,,15,,58,48
15660,note_on,,1,0,14,,,,,,,,,,,,,,,,13,,58,48
15660,note_on,,1,0,5,,,,,,,,,,,,,,,,0,,74,48
15660,note_on,,1,0,6,,,,,,,,,,,,,,,,2,,58,48
15660,note_on,,1,0,9,,,,,,,,,,,,,,,,7,,58,48
15719,note_on,,59,0,6,,,,,,,,,,,,,,,,2,,58,0
15719,note_on,,59,0,15,,,,,,,,,,,,,,,,15,,70,0
15719,note_on,,59,0,7,,,,,,,,,,,,,,,,5,,74,0
15719,note_on,,59,0,14,,,,,,,,,,,,,,,,13,,58,0
15719,note_on,,0,0,15,,,,,,,,,,,,,,,,15,,65,0
15719,note_on,,0,0,15,,,,,,,,,,,,,,,,15,,58,0
15719,note_on,,0,0,15,,,,,,,,,,,,,,,,15,,62,0
15719,note_on,,59,0,5,,,,,,,,,,,,,,,,0,,74,0
15720,note_on,,1,0,14,,,,,,,,,,,,,,,,13,,50,48
15720,note_on,,1,0,15,,,,,,,,,,,,,,,,15,,50,48
15720,note_on,,1,0,6,,,,,,,,,,,,,,,,2,,50,48
15779,note_on,,59,0,14,,,,,,,,,,,,,,,,13,,50,0
15779,note_on,,59,0,15,,,,,,,,,,,,,,,,15,,50,0
15779,note_on,,119,0,9,,,,,,,,,,,,,,,,7,,58,0
15779,note_on,,59,0,6,,,,,,,,,,,,,,,,2,,50,0
15780,note_on,,1,0,9,,,,,,,,,,,,,,,,7,,67,48
15780,note_on,,1,0,14,,,,,,,,,,,,,,,,13,,51,48
15780,note_on,,301,0,10,,,,,,,,,,,,,,,,8,,58,48
15780,note_on,,1,0,15,,,,,,,,,,,,,,,,15,,51,48
15780,note_on,,0,0,15,,,,,,,,,,,,,,,,15,,67,48
15780,note_on,,1,0,6,,,,,,,,,,,,,,,,2,,51,48
15780,note_on,,0,0,15,,,,,,,,,,,,,,,,15,,63,48
15780,note_on,,0,0,15,,,,,,,,,,,,,,,,15,,58,48
15839,note_on,,59,0,14,,,,,,,,,,,,,,,,13,,51,0
15839,note_on,,59,0,9,,,,,,,,,,,,,,,,7,,67,0
15839,note_on,,0,0,15,,,,,,,,,,,,,,,,15,,58,0
15839,note_on,,0,0,15,,,,,,,,,,,,,,,,15,,63,0
15839,note_on,,0,0,15,,,,,,,,,,,,,,,,15,,67,0
15839,note_on,,59,0,10,,,,,,,,,,,,,,,,8,,58,0
15839,note_on,,59,0,15,,,,,,,,,,,,,,,,15,,51,0
15839,note_on,,59,0,6,,,,,,,,,,,,,,,,2,,51,0
15840,note_on,,0,0,15,,,,,,,,,,,,,,,,15,,60,48
15840,note_on,,1,0,14,,,,,,,,,,,,,,,,13,,53,48
15840,note_on,,1,0,9,,,,,,,,,,,,,,,,7,,65,48
15840,note_on,,1,0,10,,,,,,,,,,,,,,,,8,,57,48
15840,note_on,,1,0,6,,,,,,,,,,,,,,,,2,,53,48
15840,note_on,,1,0,15,,,,,,,,,,,,,,,,15,,53,48
15840,note_on,,0,0,15,,,,,,,,,,,,,,,,15,,57,48
15869,note_on,,29,0,10,,,,,,,,,,,,,,,,8,,57,0
15870,note_on,,1,0,10,,,,,,,,,,,,,,,,8,,55,48
15899,note_on,,29,0,10,,,,,,,,,,,,,,,,8,,55,0
15899,note_on,,59,0,14,,,,,,,,,,,,,,,,13,,53,0
15899,note_on,,0,0,15,,,,,,,,,,,,,,,,15,,57,0
15899,note_on,,0,0,15,,,,,,,,,,,,,,,,15,,60,0
15899,note_on,,59,0,15,,,,,,,,,,,,,,,,15,,53,0
15899,note_on,,59,0,6,,,,,,,,,,,,,,,,2,,53,0
15900,note_on,,1,0,10,,,,,,,,,,,,,,,,8,,53,48
15900,note_on,,1,0,14,,,,,,,,,,,,,,,,13,,45,48
15900,note_on,,1,0,6,,,,,,,,,,,,,,,,2,,45,48
15900,note_on,,1,0,15,,,,,,,,,,,,,,,,15,,45,48
15900,note_on,,0,0,15,,,,,,,,,,,,,,,,15,,65,48
15900,note_on,,0,0,15,,,,,,,,,,,,,,,,15,,60,48
15959,note_on,,59,0,15,,,,,,,,,,,,,,,,15,,45,0
15959,note_on,,59,0,14,,,,,,,,,,,,,,,,13,,45,0
15959,note_on,,119,0,9,,,,,,,,,,,,,,,,7,,65,0
15959,note_on,,0,0,15,,,,,,,,,,,,,,,,15,,65,0
15959,note_on,,59,0,6,,,,,,,,,,,,,,,,2,,45,0
15959,note_on,,0,0,15,,,,,,,,,,,,,,,,15,,60,0
15960,note_on,,1,0,6,,,,,,,,,,,,,,,,2,,46,48
15960,note_on,,1,0,14,,,,,,,,,,,,,,,,13,,46,48
15960,note_on,,1,0,15,,,,,,,,,,,,,,,,15,,46,48
15960,note_on,,0,0,15,,,,,,,,,,,,,,,,15,,62,48
15960,note_on,,0,0,15,,,,,,,,,,,,,,,,15,,58,48
16019,note_on,,59,0,6,,,,,,,,,,,,,,,,2,,46,0
16019,note_on,,59,0,14,,,,,,,,,,,,,,,,13,,46,0
16019,note_on,,59,0,15,,,,,,,,,,,,,,,,15,,46,0
16019,note_on,,0,0,15,,,,,,,,,,,,,,,,15,,62,0
16019,note_on,,0,0,15,,,,,,,,,,,,,,,,15,,58,0
16019,note_on,,119,0,10,,,,,,,,,,,,,,,,8,,53,0
16020,note_on,,1,0,6,,,,,,,,,,,,,,,,2,,58,48
16020,note_on,,0,0,15,,,,,,,,,,,,,,,,15,,65,48
16020,note_on,,0,0,15,,,,,,,,,,,,,,,,15,,70,48
16020,note_on,,0,0,15,,,,,,,,,,,,,,,,15,,74,48
16020,note_on,,1,0,15,,,,,,,,,,,,,,,,15,,58,48
16020,note_on,,1981,0,8,,,,,,,,,,,,,,,,6,,70,72
16020,note_on,,1,0,14,,,,,,,,,,,,,,,,13,,58,48
16020,note_on,,1,0,10,,,,,,,,,,,,,,,,8,,62,48
16079,note_on,,59,0,6,,,,,,,,,,,,,,,,2,,58,0
16079,note_on,,59,0,10,,,,,,,,,,,,,,,,8,,62,0
16079,note_on,,59,0,15,,,,,,,,,,,,,,,,15,,58,0
16079,note_on,,0,0,15,,,,,,,,,,,,,,,,15,,70,0
16079,note_on,,0,0,15,,,,,,,,,,,,,,,,15,,65,0
16079,note_on,,0,0,15,,,,,,,,,,,,,,,,15,,74,0
16079,note_on,,59,0,8,,,,,,,,,,,,,,,,6,,70,0
16079,note_on,,59,0,14,,,,,,,,,,,,,,,,13,,58,0
16080,note_on,,1,0,14,,,,,,,,,,,,,,,,13,,53,48
16080,note_on,,1,0,8,,,,,,,,,,,,,,,,6,,69,72
16080,note_on,,1,0,6,,,,,,,,,,,,,,,,2,,53,48
16080,note_on,,0,0,15,,,,,,,,,,,,,,,,15,,65,48
16080,note_on,,0,0,15,,,,,,,,,,,,,,,,15,,69,48
16080,note_on,,0,0,15,,,,,,,,,,,,,,,,15,,72,48
16080,note_on,,1,0,15,,,,,,,,,,,,,,,,15,,53,48
16080,note_on,,1,0,10,,,,,,,,,,,,,,,,8,,60,48
16109,note_on,,29,0,8,,,,,,,,,,,,,,,,6,,69,0
16110,note_on,,1,0,8,,,,,,,,,,,,,,,,6,,67,72
16139,note_on,,59,0,6,,,,,,,,,,,,,,,,2,,53,0
16139,note_on,,59,0,15,,,,,,,,,,,,,,,,15,,53,0
16139,note_on,,29,0,8,,,,,,,,,,,,,,,,6,,67,0
16139,note_on,,59,0,14,,,,,,,,,,,,,,,,13,,53,0
16140,note_on,,1,0,6,,,,,,,,,,,,,,,,2,,57,48
16140,note_on,,1,0,8,,,,,,,,,,,,,,,,6,,65,72
16140,note_on,,1,0,15,,,,,,,,,,,,,,,,15,,57,48
16140,note_on,,1,0,14,,,,,,,,,,,,,,,,13,,57,48
16199,note_on,,59,0,6,,,,,,,,,,,,,,,,2,,57,0
16199,note_on,,119,0,10,,,,,,,,,,,,,,,,8,,60,0
16199,note_on,,59,0,14,,,,,,,,,,,,,,,,13,,57,0
16199,note_on,,0,0,15,,,,,,,,,,,,,,,,15,,57,0
16199,note_on,,0,0,15,,,,,,,,,,,,,,,,15,,65,0
16199,note_on,,0,0,15,,,,,,,,,,,,,,,,15,,69,0
16199,note_on,,59,0,15,,,,,,,,,,,,,,,,15,,72,0
16200,note_on,,1,0,6,,,,,,,,,,,,,,,,2,,58,48
16200,note_on,,1,0,15,,,,,,,,,,,,,,,,15,,58,48
16200,note_on,,1,0,14,,,,,,,,,,,,,,,,13,,58,48
16200,note_on,,0,0,15,,,,,,,,,,,,,,,,15,,65,48
16200,note_on,,0,0,15,,,,,,,,,,,,,,,,15,,62,48
16259,note_on,,59,0,15,,,,,,,,,,,,,,,,15,,58,0
16259,note_on,,0,0,15,,,,,,,,,,,,,,,,15,,65,0
16259,note_on,,0,0,15,,,,,,,,,,,,,,,,15,,62,0
16259,note_on,,59,0,14,,,,,,,,,,,,,,,,13,,58,0
16259,note_on,,119,0,8,,,,,,,,,,,,,,,,6,,65,0
16259,note_on,,59,0,6,,,,,,,,,,,,,,,,2,,58,0
16260,note_on,,541,0,7,,,,,,,,,,,,,,,,5,,70,72
16260,note_on,,2221,0,11,,,,,,,,,,,,,,,,10,,82,72
16260,note_on,,2221,0,12,,,,,,,,,,,,,,,,11,,77,72
16260,note_on,,2221,0,13,,,,,,,,,,,,,,,,12,,74,72
16260,note_on,,1,0,6,,,,,,,,,,,,,,,,2,,46,72
16260,note_on,,0,0,15,,,,,,,,,,,,,,,,15,,70,72
16260,note_on,,1,0,15,,,,,,,,,,,,,,,,15,,46,72
16260,note_on,,0,0,15,,,,,,,,,,,,,,,,15,,77,72
16260,note_on,,0,0,15,,,,,,,,,,,,,,,,15,,74,72
16260,note_on,,1,0,8,,,,,,,,,,,,,,,,6,,63,72
16260,note_on,,301,0,9,,,,,,,,,,,,,,,,7,,65,72
16260,note_on,,61,0,10,,,,,,,,,,,,,,,,8,,58,72
16260,note_on,,541,0,5,,,,,,,,,,,,,,,,0,,70,72
16260,note_on,,0,0,15,,,,,,,,,,,,,,,,15,,65,72
16260,note_on,,1,0,14,,,,,,,,,,,,,,,,13,,46,72
16289,note_on,,29,0,8,,,,,,,,,,,,,,,,6,,63,0
16290,note_on,,1,0,8,,,,,,,,,,,,,,,,6,,62,72
16319,note_on,,59,0,14,,,,,,,,,,,,,,,,13,,46,0
16319,note_on,,59,0,10,,,,,,,,,,,,,,,,8,,58,0
16319,note_on,,59,0,12,,,,,,,,,,,,,,,,11,,77,0
16319,note_on,,59,0,9,,,,,,,,,,,,,,,,7,,65,0
16319,note_on,,59,0,13,,,,,,,,,,,,,,,,12,,74,0
16319,note_on,,59,0,6,,,,,,,,,,,,,,,,2,,46,0
16319,note_on,,0,0,15,,,,,,,,,,,,,,,,15,,74,0
16319,note_on,,0,0,15,,,,,,,,,,,,,,,,15,,77,0
16319,note_on,,59,0,15,,,,,,,,,,,,,,,,15,,46,0
16319,note_on,,59,0,7,,,,,,,,,,,,,,,,5,,70,0
16319,note_on,,0,0,15,,,,,,,,,,,,,,,,15,,70,0
16319,note_on,,0,0,15,,,,,,,,,,,,,,,,15,,65,0
16319,note_on,,29,0,8,,,,,,,,,,,,,,,,6,,62,0
16319,note_on,,59,0,11,,,,,,,,,,,,,,,,10,,82,0
16319,note_on,,59,0,5,,,,,,,,,,,,,,,,0,,70,0
16320,note_on,,1,0,9,,,,,,,,,,,,,,,,7,,65,72
16320,note_on,,1,0,6,,,,,,,,,,,,,,,,2,,53,72
16320,note_on,,1,0,5,,,,,,,,,,,,,,,,0,,69,72
16320,note_on,,0,0,15,,,,,,,,,,,,,,,,15,,69,72
16320,note_on,,0,0,15,,,,,,,,,,,,,,,,15,,72,72
16320,note_on,,0,0,15,,,,,,,,,,,,,,,,15,,77,72
16320,note_on,,1,0,15,,,,,,,,,,,,,,,,15,,53,72
16320,note_on,,1,0,8,,,,,,,,,,,,,,,,6,,60,72
16320,note_on,,1,0,11,,,,,,,,,,,,,,,,10,,81,72
16320,note_on,,1,0,10,,,,,,,,,,,,,,,,8,,57,72
16320,note_on,,1,0,14,,,,,,,,,,,,,,,,13,,53,72
16320,note_on,,1,0,7,,,,,,,,,,,,,,,,5,,69,72
16320,note_on,,1,0,12,,,,,,,,,,,,,,,,11,,77,72
16320,note_on,,1,0,13,,,,,,,,,,,,,,,,12,,72,72
16349,note_on,,29,0,11,,,,,,,,,,,,,,,,10,,81,0
16349,note_on,,29,0,13,,,,,,,,,,,,,,,,12,,72,0
16349,note_on,,29,0,7,,,,,,,,,,,,,,,,5,,69,0
16349,note_on,,29,0,5,,,,,,,,,,,,,,,,0,,69,0
16350,note_on,,1,0,5,,,,,,,,,,,,,,,,0,,67,72
16350,note_on,,1,0,11,,,,,,,,,,,,,,,,10,,79,72
16350,note_on,,1,0,7,,,,,,,,,,,,,,,,5,,67,72
16350,note_on,,1,0,13,,,,,,,,,,,,,,,,12,,70,72
16379,note_on,,29,0,5,,,,,,,,,,,,,,,,0,,67,0
16379,note_on,,59,0,12,,,,,,,,,,,,,,,,11,,77,0
16379,note_on,,59,0,14,,,,,,,,,,,,,,,,13,,53,0
16379,note_on,,59,0,15,,,,,,,,,,,,,,,,15,,53,0
16379,note_on,,29,0,7,,,,,,,,,,,,,,,,5,,67,0
16379,note_on,,29,0,13,,,,,,,,,,,,,,,,12,,70,0
16379,note_on,,59,0,6,,,,,,,,,,,,,,,,2,,53,0
16379,note_on,,29,0,11,,,,,,,,,,,,,,,,10,,79,0
16380,note_on,,1,0,12,,,,,,,,,,,,,,,,11,,72,72
16380,note_on,,1,0,7,,,,,,,,,,,,,,,,5,,65,72
16380,note_on,,1,0,13,,,,,,,,,,,,,,,,12,,69,72
16380,note_on,,1,0,14,,,,,,,,,,,,,,,,13,,57,72
16380,note_on,,1,0,5,,,,,,,,,,,,,,,,0,,65,72
16380,note_on,,1,0,11,,,,,,,,,,,,,,,,10,,77,72
16380,note_on,,1,0,6,,,,,,,,,,,,,,,,2,,57,72
16380,note_on,,1,0,15,,,,,,,,,,,,,,,,15,,57,72
16439,note_on,,59,0,11,,,,,,,,,,,,,,,,10,,77,0
16439,note_on,,59,0,6,,,,,,,,,,,,,,,,2,,57,0
16439,note_on,,119,0,9,,,,,,,,,,,,,,,,7,,65,0
16439,note_on,,119,0,8,,,,,,,,,,,,,,,,6,,60,0
16439,note_on,,59,0,13,,,,,,,,,,,,,,,,12,,69,0
16439,note_on,,119,0,10,,,,,,,,,,,,,,,,8,,57,0
16439,note_on,,59,0,15,,,,,,,,,,,,,,,,15,,77,0
16439,note_on,,0,0,15,,,,,,,,,,,,,,,,15,,72,0
16439,note_on,,0,0,15,,,,,,,,,,,,,,,,15,,69,0
16439,note_on,,0,0,15,,,,,,,,,,,,,,,,15,,57,0
16439,note_on,,59,0,12,,,,,,,,,,,,,,,,11,,72,0
16439,note_on,,59,0,14,,,,,,,,,,,,,,,,13,,57,0
16440,note_on,,1,0,15,,,,,,,,,,,,,,,,15,,58,48
16440,note_on,,0,0,15,,,,,,,,,,,,,,,,15,,74,48
16440,note_on,,0,0,15,,,,,,,,,,,,,,,,15,,70,48
16440,note_on,,0,0,15,,,,,,,,,,,,,,,,15,,65,48
16440,note_on,,1,0,6,,,,,,,,,,,,,,,,2,,58,48
16440,note_on,,1,0,14,,,,,,,,,,,,,,,,13,,58,48
16499,note_on,,59,0,14,,,,,,,,,,,,,,,,13,,58,0
16499,note_on,,119,0,7,,,,,,,,,,,,,,,,5,,65,0
16499,note_on,,59,0,15,,,,,,,,,,,,,,,,15,,58,0
16499,note_on,,119,0,5,,,,,,,,,,,,,,,,0,,65,0
16499,note_on,,59,0,6,,,,,,,,,,,,,,,,2,,58,0
16500,note_on,,1,0,6,,,,,,,,,,,,,,,,2,,46,48
16500,note_on,,1,0,7,,,,,,,,,,,,,,,,5,,74,48
16500,note_on,,1,0,14,,,,,,,,,,,,,,,,13,,46,48
16500,note_on,,1,0,5,,,,,,,,,,,,,,,,0,,74,48
16500,note_on,,1,0,15,,,,,,,,,,,,,,,,15,,46,48
16500,note_on,,61,0,8,,,,,,,,,,,,,,,,6,,70,48
16559,note_on,,59,0,14,,,,,,,,,,,,,,,,13,,46,0
16559,note_on,,59,0,8,,,,,,,,,,,,,,,,6,,70,0
16559,note_on,,59,0,5,,,,,,,,,,,,,,,,0,,74,0
16559,note_on,,0,0,15,,,,,,,,,,,,,,,,15,,70,0
16559,note_on,,59,0,7,,,,,,,,,,,,,,,,5,,74,0
16559,note_on,,59,0,6,,,,,,,,,,,,,,,,2,,46,0
16559,note_on,,0,0,15,,,,,,,,,,,,,,,,15,,65,0
16559,note_on,,59,0,15,,,,,,,,,,,,,,,,15,,74,0
16559,note_on,,0,0,15,,,,,,,,,,,,,,,,15,,46,0
16560,note_on,,0,0,15,,,,,,,,,,,,,,,,15,,69,48
16560,note_on,,1,0,15,,,,,,,,,,,,,,,,15,,53,48
16560,note_on,,1,0,14,,,,,,,,,,,,,,,,13,,53,48
16560,note_on,,0,0,15,,,,,,,,,,,,,,,,15,,60,48
16560,note_on,,0,0,15,,,,,,,,,,,,,,,,15,,65,48
16560,note_on,,1,0,6,,,,,,,,,,,,,,,,2,,53,48
16560,note_on,,1,0,5,,,,,,,,,,,,,,,,0,,72,48
16560,note_on,,1,0,7,,,,,,,,,,,,,,,,5,,72,48
16560,note_on,,1,0,8,,,,,,,,,,,,,,,,6,,69,48
16589,note_on,,29,0,5,,,,,,,,,,,,,,,,0,,72,0
16589,note_on,,29,0,8,,,,,,,,,,,,,,,,6,,69,0
16589,note_on,,29,0,7,,,,,,,,,,,,,,,,5,,72,0
16590,note_on,,1,0,5,,,,,,,,,,,,,,,,0,,70,48
16590,note_on,,1,0,7,,,,,,,,,,,,,,,,5,,70,48
16590,note_on,,1,0,8,,,,,,,,,,,,,,,,6,,67,48
16619,note_on,,29,0,7,,,,,,,,,,,,,,,,5,,70,0
16619,note_on,,29,0,5,,,,,,,,,,,,,,,,0,,70,0
16619,note_on,,29,0,8,,,,,,,,,,,,,,,,6,,67,0
16620,note_on,,1,0,5,,,,,,,,,,,,,,,,0,,69,48
16620,note_on,,1,0,7,,,,,,,,,,,,,,,,5,,69,48
16620,note_on,,181,0,11,,,,,,,,,,,,,,,,10,,72,48
16620,note_on,,181,0,12,,,,,,,,,,,,,,,,11,,69,48
16620,note_on,,181,0,13,,,,,,,,,,,,,,,,12,,69,48
16620,note_on,,1,0,8,,,,,,,,,,,,,,,,6,,65,48
16679,note_on,,59,0,11,,,,,,,,,,,,,,,,10,,72,0
16679,note_on,,59,0,8,,,,,,,,,,,,,,,,6,,65,0
16679,note_on,,59,0,12,,,,,,,,,,,,,,,,11,,69,0
16679,note_on,,59,0,13,,,,,,,,,,,,,,,,12,,69,0
16679,note_on,,119,0,6,,,,,,,,,,,,,,,,2,,53,0
16679,note_on,,119,0,14,,,,,,,,,,,,,,,,13,,53,0
16679,note_on,,0,0,15,,,,,,,,,,,,,,,,15,,60,0
16679,note_on,,0,0,15,,,,,,,,,,,,,,,,15,,65,0
16679,note_on,,0,0,15,,,,,,,,,,,,,,,,15,,69,0
16679,note_on,,119,0,15,,,,,,,,,,,,,,,,15,,53,0
16679,note_on,,59,0,7,,,,,,,,,,,,,,,,5,,69,0
16679,note_on,,59,0,5,,,,,,,,,,,,,,,,0,,69,0
16680,note_on,,0,0,15,,,,,,,,,,,,,,,,15,,60,48
16680,note_on,,0,0,15,,,,,,,,,,,,,,,,15,,72,48
16680,note_on,,1,0,6,,,,,,,,,,,,,,,,2,,57,48
16680,note_on,,0,0,15,,,,,,,,,,,,,,,,15,,65,48
16680,note_on,,1,0,12,,,,,,,,,,,,,,,,11,,72,48
16680,note_on,,1,0,13,,,,,,,,,,,,,,,,12,,65,48
16680,note_on,,1,0,14,,,,,,,,,,,,,,,,13,,57,48
16680,note_on,,1,0,15,,,,,,,,,,,,,,,,15,,57,48
16680,note_on,,1,0,11,,,,,,,,,,,,,,,,10,,77,48
16739,note_on,,0,0,15,,,,,,,,,,,,,,,,15,,65,0
16739,note_on,,59,0,15,,,,,,,,,,,,,,,,15,,57,0
16739,note_on,,0,0,15,,,,,,,,,,,,,,,,15,,72,0
16739,note_on,,0,0,15,,,,,,,,,,,,,,,,15,,60,0
16739,note_on,,59,0,14,,,,,,,,,,,,,,,,13,,57,0
16739,note_on,,59,0,6,,,,,,,,,,,,,,,,2,,57,0
16740,note_on,,61,0,8,,,,,,,,,,,,,,,,6,,60,48
16740,note_on,,1,0,6,,,,,,,,,,,,,,,,2,,53,48
16740,note_on,,0,0,15,,,,,,,,,,,,,,,,15,,65,48
16740,note_on,,0,0,15,,,,,,,,,,,,,,,,15,,69,48
16740,note_on,,0,0,15,,,,,,,,,,,,,,,,15,,60,48
16740,note_on,,1,0,15,,,,,,,,,,,,,,,,15,,53,48
16740,note_on,,1,0,14,,,,,,,,,,,,,,,,13,,53,48
16799,note_on,,0,0,15,,,,,,,,,,,,,,,,15,,65,0
16799,note_on,,0,0,15,,,,,,,,,,,,,,,,15,,60,0
16799,note_on,,59,0,14,,,,,,,,,,,,,,,,13,,53,0
16799,note_on,,59,0,15,,,,,,,,,,,,,,,,15,,53,0
16799,note_on,,59,0,6,,,,,,,,,,,,,,,,2,,53,0
16799,note_on,,119,0,12,,,,,,,,,,,,,,,,11,,72,0
16799,note_on,,119,0,11,,,,,,,,,,,,,,,,10,,77,0
16799,note_on,,59,0,8,,,,,,,,,,,,,,,,6,,60,0
16799,note_on,,119,0,13,,,,,,,,,,,,,,,,12,,65,0
16799,note_on,,0,0,15,,,,,,,,,,,,,,,,15,,69,0
16800,note_on,,0,0,15,,,,,,,,,,,,,,,,15,,62,48
16800,note_on,,0,0,15,,,,,,,,,,,,,,,,15,,65,48
16800,note_on,,1,0,6,,,,,,,,,,,,,,,,2,,58,48
16800,note_on,,1,0,14,,,,,,,,,,,,,,,,13,,58,48
16800,note_on,,1,0,15,,,,,,,,,,,,,,,,15,,58,48
16800,note_on,,1,0,8,,,,,,,,,,,,,,,,6,,62,48
16829,note_on,,29,0,8,,,,,,,,,,,,,,,,6,,62,0
16830,note_on,,1,0,8,,,,,,,,,,,,,,,,6,,64,48
16859,note_on,,59,0,15,,,,,,,,,,,,,,,,15,,58,0
16859,note_on,,0,0,15,,,,,,,,,,,,,,,,15,,62,0
16859,note_on,,59,0,6,,,,,,,,,,,,,,,,2,,58,0
16859,note_on,,59,0,14,,,,,,,,,,,,,,,,13,,58,0
16859,note_on,,29,0,8,,,,,,,,,,,,,,,,6,,64,0
16860,note_on,,0,0,15,,,,,,,,,,,,,,,,15,,60,48
16860,note_on,,1,0,6,,,,,,,,,,,,,,,,2,,57,48
16860,note_on,,1,0,15,,,,,,,,,,,,,,,,15,,57,48
16860,note_on,,1,0,8,,,,,,,,,,,,,,,,6,,65,48
16860,note_on,,1,0,14,,,,,,,,,,,,,,,,13,,57,48
16919,note_on,,59,0,15,,,,,,,,,,,,,,,,15,,57,0
16919,note_on,,0,0,15,,,,,,,,,,,,,,,,15,,60,0
16919,note_on,,59,0,14,,,,,,,,,,,,,,,,13,,57,0
16919,note_on,,59,0,6,,,,,,,,,,,,,,,,2,,57,0
16919,note_on,,59,0,8,,,,,,,,,,,,,,,,6,,65,0
16920,note_on,,1,0,15,,,,,,,,,,,,,,,,15,,58,48
16920,note_on,,0,0,15,,,,,,,,,,,,,,,,15,,62,48
16920,note_on,,1,0,6,,,,,,,,,,,,,,,,2,,58,48
16920,note_on,,1,0,14,,,,,,,,,,,,,,,,13,,58,48
16979,note_on,,0,0,15,,,,,,,,,,,,,,,,15,,62,0
16979,note_on,,0,0,15,,,,,,,,,,,,,,,,15,,58,0
16979,note_on,,59,0,15,,,,,,,,,,,,,,,,15,,65,0
16979,note_on,,59,0,6,,,,,,,,,,,,,,,,2,,58,0
16979,note_on,,59,0,14,,,,,,,,,,,,,,,,13,,58,0
16980,note_on,,301,0,7,,,,,,,,,,,,,,,,5,,77,72
16980,note_on,,541,0,9,,,,,,,,,,,,,,,,7,,65,72
16980,note_on,,0,0,15,,,,,,,,,,,,,,,,15,,65,72
16980,note_on,,1,0,15,,,,,,,,,,,,,,,,15,,62,72
16980,note_on,,181,0,12,,,,,,,,,,,,,,,,11,,70,72
16980,note_on,,181,0,11,,,,,,,,,,,,,,,,10,,77,72
16980,note_on,,181,0,13,,,,,,,,,,,,,,,,12,,65,72
16980,note_on,,0,0,15,,,,,,,,,,,,,,,,15,,70,72
16980,note_on,,1,0,14,,,,,,,,,,,,,,,,13,,62,72
16980,note_on,,1,0,6,,,,,,,,,,,,,,,,2,,62,72
16980,note_on,,61,0,8,,,,,,,,,,,,,,,,6,,70,72
16980,note_on,,301,0,5,,,,,,,,,,,,,,,,0,,77,72
16980,note_on,,541,0,10,,,,,,,,,,,,,,,,8,,62,72
17039,note_on,,59,0,14,,,,,,,,,,,,,,,,13,,62,0
17039,note_on,,59,0,8,,,,,,,,,,,,,,,,6,,70,0
17039,note_on,,0,0,15,,,,,,,,,,,,,,,,15,,70,0
17039,note_on,,59,0,9,,,,,,,,,,,,,,,,7,,65,0
17039,note_on,,59,0,5,,,,,,,,,,,,,,,,0,,77,0
17039,note_on,,59,0,15,,,,,,,,,,,,,,,,15,,62,0
17039,note_on,,59,0,10,,,,,,,,,,,,,,,,8,,62,0
17039,note_on,,59,0,13,,,,,,,,,,,,,,,,12,,65,0
17039,note_on,,59,0,6,,,,,,,,,,,,,,,,2,,62,0
17039,note_on,,59,0,12,,,,,,,,,,,,,,,,11,,70,0
17039,note_on,,59,0,7,,,,,,,,,,,,,,,,5,,77,0
17039,note_on,,59,0,11,,,,,,,,,,,,,,,,10,,77,0
17039,note_on,,0,0,15,,,,,,,,,,,,,,,,15,,65,0
17040,note_on,,1,0,8,,,,,,,,,,,,,,,,6,,63,72
17040,note_on,,1,0,11,,,,,,,,,,,,,,,,10,,79,72
17040,note_on,,0,0,15,,,,,,,,,,,,,,,,15,,75,72
17040,note_on,,0,0,15,,,,,,,,,,,,,,,,15,,60,72
17040,note_on,,1,0,15,,,,,,,,,,,,,,,,15,,67,72
17040,note_on,,0,0,15,,,,,,,,,,,,,,,,15,,63,72
17040,note_on,,1,0,6,,,,,,,,,,,,,,,,2,,60,72
17040,note_on,,1,0,9,,,,,,,,,,,,,,,,7,,63,72
17040,note_on,,1,0,13,,,,,,,,,,,,,,,,12,,63,72
17040,note_on,,1,0,10,,,,,,,,,,,,,,,,8,,60,72
17040,note_on,,1,0,12,,,,,,,,,,,,,,,,11,,75,72
17040,note_on,,1,0,14,,,,,,,,,,,,,,,,13,,60,72
17040,note_on,,1,0,7,,,,,,,,,,,,,,,,5,,79,72
17040,note_on,,1,0,5,,,,,,,,,,,,,,,,0,,79,72
17069,note_on,,29,0,11,,,,,,,,,,,,,,,,10,,79,0
17069,note_on,,29,0,7,,,,,,,,,,,,,,,,5,,79,0
17069,note_on,,29,0,5,,,,,,,,,,,,,,,,0,,79,0
17070,note_on,,1,0,7,,,,,,,,,,,,,,,,5,,81,72
17070,note_on,,1,0,11,,,,,,,,,,,,,,,,10,,81,72
17070,note_on,,1,0,5,,,,,,,,,,,,,,,,0,,81,72
17099,note_on,,0,0,15,,,,,,,,,,,,,,,,15,,75,0
17099,note_on,,29,0,11,,,,,,,,,,,,,,,,10,,81,0
17099,note_on,,59,0,14,,,,,,,,,,,,,,,,13,,60,0
17099,note_on,,59,0,8,,,,,,,,,,,,,,,,6,,63,0
17099,note_on,,29,0,7,,,,,,,,,,,,,,,,5,,81,0
17099,note_on,,59,0,10,,,,,,,,,,,,,,,,8,,60,0
17099,note_on,,59,0,13,,,,,,,,,,,,,,,,12,,63,0
17099,note_on,,59,0,9,,,,,,,,,,,,,,,,7,,63,0
17099,note_on,,29,0,5,,,,,,,,,,,,,,,,0,,81,0
17099,note_on,,59,0,6,,,,,,,,,,,,,,,,2,,60,0
17099,note_on,,59,0,15,,,,,,,,,,,,,,,,15,,67,0
17099,note_on,,0,0,15,,,,,,,,,,,,,,,,15,,60,0
17099,note_on,,0,0,15,,,,,,,,,,,,,,,,15,,63,0
17099,note_on,,59,0,12,,,,,,,,,,,,,,,,11,,75,0
17100,note_on,,1,0,13,,,,,,,,,,,,,,,,12,,65,72
17100,note_on,,1,0,10,,,,,,,,,,,,,,,,8,,58,72
17100,note_on,,0,0,15,,,,,,,,,,,,,,,,15,,70,72
17100,note_on,,1,0,12,,,,,,,,,,,,,,,,11,,74,72
17100,note_on,,1,0,11,,,,,,,,,,,,,,,,10,,82,72
17100,note_on,,1,0,7,,,,,,,,,,,,,,,,5,,82,72
17100,note_on,,1,0,15,,,,,,,,,,,,,,,,15,,58,72
17100,note_on,,0,0,15,,,,,,,,,,,,,,,,15,,74,72
17100,note_on,,0,0,15,,,,,,,,,,,,,,,,15,,65,72
17100,note_on,,1,0,9,,,,,,,,,,,,,,,,7,,62,72
17100,note_on,,1,0,8,,,,,,,,,,,,,,,,6,,65,72
17100,note_on,,1,0,5,,,,,,,,,,,,,,,,0,,82,72
17100,note_on,,1,0,6,,,,,,,,,,,,,,,,2,,58,72
17100,note_on,,1,0,14,,,,,,,,,,,,,,,,13,,58,72
17129,note_on,,29,0,12,,,,,,,,,,,,,,,,11,,74,0
17130,note_on,,1,0,12,,,,,,,,,,,,,,,,11,,75,72
17159,note_on,,59,0,8,,,,,,,,,,,,,,,,6,,65,0
17159,note_on,,0,0,15,,,,,,,,,,,,,,,,15,,74,0
17159,note_on,,0,0,15,,,,,,,,,,,,,,,,15,,65,0
17159,note_on,,0,0,15,,,,,,,,,,,,,,,,15,,70,0
17159,note_on,,59,0,10,,,,,,,,,,,,,,,,8,,58,0
17159,note_on,,59,0,14,,,,,,,,,,,,,,,,13,,58,0
17159,note_on,,59,0,5,,,,,,,,,,,,,,,,0,,82,0
17159,note_on,,59,0,7,,,,,,,,,,,,,,,,5,,82,0
17159,note_on,,59,0,11,,,,,,,,,,,,,,,,10,,82,0
17159,note_on,,59,0,15,,,,,,,,,,,,,,,,15,,58,0
17159,note_on,,59,0,9,,,,,,,,,,,,,,,,7,,62,0
17159,note_on,,29,0,12,,,,,,,,,,,,,,,,11,,75,0
17159,note_on,,59,0,6,,,,,,,,,,,,,,,,2,,58,0
17159,note_on,,59,0,13,,,,,,,,,,,,,,,,12,,65,0
17160,note_on,,1,0,12,,,,,,,,,,,,,,,,11,,72,72
17160,note_on,,1,0,14,,,,,,,,,,,,,,,,13,,53,72
17160,note_on,,1,0,10,,,,,,,,,,,,,,,,8,,53,72
17160,note_on,,1,0,13,,,,,,,,,,,,,,,,12,,69,72
17160,note_on,,1,0,6,,,,,,,,,,,,,,,,2,,53,72
17160,note_on,,1,0,9,,,,,,,,,,,,,,,,7,,60,72
17160,note_on,,0,0,15,,,,,,,,,,,,,,,,15,,69,72
17160,note_on,,0,0,15,,,,,,,,,,,,,,,,15,,65,72
17160,note_on,,0,0,15,,,,,,,,,,,,,,,,15,,72,72
17160,note_on,,1,0,15,,,,,,,,,,,,,,,,15,,53,72
17219,note_on,,59,0,13,,,,,,,,,,,,,,,,12,,69,0
17219,note_on,,59,0,10,,,,,,,,,,,,,,,,8,,53,0
17219,note_on,,59,0,6,,,,,,,,,,,,,,,,2,,53,0
17219,note_on,,59,0,14,,,,,,,,,,,,,,,,13,,53,0
17219,note_on,,59,0,15,,,,,,,,,,,,,,,,15,,53,0
17219,note_on,,0,0,15,,,,,,,,,,,,,,,,15,,69,0
17219,note_on,,0,0,15,,,,,,,,,,,,,,,,15,,65,0
17219,note_on,,0,0,15,,,,,,,,,,,,,,,,15,,72,0
17219,note_on,,59,0,9,,,,,,,,,,,,,,,,7,,60,0
17220,note_on,,61,0,5,,,,,,,,,,,,,,,,0,,72,72
17220,note_on,,61,0,8,,,,,,,,,,,,,,,,6,,65,72
17220,note_on,,1,0,9,,,,,,,,,,,,,,,,7,,65,72
17220,note_on,,1,0,14,,,,,,,,,,,,,,,,13,,57,72
17220,note_on,,0,0,15,,,,,,,,,,,,,,,,15,,57,72
17220,note_on,,1,0,10,,,,,,,,,,,,,,,,8,,57,72
17220,note_on,,1,0,13,,,,,,,,,,,,,,,,12,,65,72
17220,note_on,,0,0,15,,,,,,,,,,,,,,,,15,,65,72
17220,note_on,,61,0,7,,,,,,,,,,,,,,,,5,,72,72
17220,note_on,,61,0,11,,,,,,,,,,,,,,,,10,,72,72
17220,note_on,,0,0,15,,,,,,,,,,,,,,,,15,,72,72
17220,note_on,,1,0,15,,,,,,,,,,,,,,,,15,,77,72
17220,note_on,,1,0,6,,,,,,,,,,,,,,,,2,,57,72
17279,note_on,,59,0,6,,,,,,,,,,,,,,,,2,,57,0
17279,note_on,,0,0,15,,,,,,,,,,,,,,,,15,,72,0
17279,note_on,,0,0,15,,,,,,,,,,,,,,,,15,,57,0
17279,note_on,,59,0,15,,,,,,,,,,,,,,,,15,,77,0
17279,note_on,,119,0,12,,,,,,,,,,,,,,,,11,,72,0
17279,note_on,,59,0,7,,,,,,,,,,,,,,,,5,,72,0
17279,note_on,,59,0,5,,,,,,,,,,,,,,,,0,,72,0
17279,note_on,,59,0,14,,,,,,,,,,,,,,,,13,,57,0
17279,note_on,,59,0,11,,,,,,,,,,,,,,,,10,,72,0
17279,note_on,,59,0,13,,,,,,,,,,,,,,,,12,,65,0
17279,note_on,,59,0,10,,,,,,,,,,,,,,,,8,,57,0
17279,note_on,,59,0,9,,,,,,,,,,,,,,,,7,,65,0
17279,note_on,,59,0,8,,,,,,,,,,,,,,,,6,,65,0
17279,note_on,,0,0,15,,,,,,,,,,,,,,,,15,,65,0
17280,note_on,,1,0,11,,,,,,,,,,,,,,,,10,,74,72
17280,note_on,,1,0,9,,,,,,,,,,,,,,,,7,,62,72
17280,note_on,,1,0,8,,,,,,,,,,,,,,,,6,,65,72
17280,note_on,,1,0,15,,,,,,,,,,,,,,,,15,,58,72
17280,note_on,,0,0,15,,,,,,,,,,,,,,,,15,,65,72
17280,note_on,,0,0,15,,,,,,,,,,,,,,,,15,,70,72
17280,note_on,,1,0,13,,,,,,,,,,,,,,,,12,,65,72
17280,note_on,,0,0,15,,,,,,,,,,,,,,,,15,,74,72
17280,note_on,,1,0,14,,,,,,,,,,,,,,,,13,,58,72
17280,note_on,,1,0,5,,,,,,,,,,,,,,,,0,,74,72
17280,note_on,,1,0,7,,,,,,,,,,,,,,,,5,,74,72
17280,note_on,,1,0,6,,,,,,,,,,,,,,,,2,,58,72
17280,note_on,,1,0,12,,,,,,,,,,,,,,,,11,,70,72
17280,note_on,,1,0,10,,,,,,,,,,,,,,,,8,,58,72
17309,note_on,,29,0,5,,,,,,,,,,,,,,,,0,,74,0
17309,note_on,,29,0,7,,,,,,,,,,,,,,,,5,,74,0
17309,note_on,,29,0,11,,,,,,,,,,,,,,,,10,,74,0
17310,note_on,,1,0,7,,,,,,,,,,,,,,,,5,,75,72
17310,note_on,,1,0,5,,,,,,,,,,,,,,,,0,,75,72
17310,note_on,,1,0,11,,,,,,,,,,,,,,,,10,,75,72
17339,note_on,,29,0,7,,,,,,,,,,,,,,,,5,,75,0
17339,note_on,,59,0,14,,,,,,,,,,,,,,,,13,,58,0
17339,note_on,,59,0,13,,,,,,,,,,,,,,,,12,,65,0
17339,note_on,,59,0,6,,,,,,,,,,,,,,,,2,,58,0
17339,note_on,,59,0,15,,,,,,,,,,,,,,,,15,,58,0
17339,note_on,,29,0,11,,,,,,,,,,,,,,,,10,,75,0
17339,note_on,,29,0,5,,,,,,,,,,,,,,,,0,,75,0
17340,note_on,,1,0,11,,,,,,,,,,,,,,,,10,,77,72
17340,note_on,,1,0,7,,,,,,,,,,,,,,,,5,,77,72
17340,note_on,,1,0,14,,,,,,,,,,,,,,,,13,,62,72
17340,note_on,,1,0,6,,,,,,,,,,,,,,,,2,,62,72
17340,note_on,,1,0,13,,,,,,,,,,,,,,,,12,,70,72
17340,note_on,,1,0,15,,,,,,,,,,,,,,,,15,,62,72
17340,note_on,,1,0,5,,,,,,,,,,,,,,,,0,,77,72
17399,note_on,,59,0,6,,,,,,,,,,,,,,,,2,,62,0
17399,note_on,,119,0,10,,,,,,,,,,,,,,,,8,,58,0
17399,note_on,,0,0,15,,,,,,,,,,,,,,,,15,,62,0
17399,note_on,,59,0,11,,,,,,,,,,,,,,,,10,,77,0
17399,note_on,,59,0,13,,,,,,,,,,,,,,,,12,,70,0
17399,note_on,,59,0,5,,,,,,,,,,,,,,,,0,,77,0
17399,note_on,,0,0,15,,,,,,,,,,,,,,,,15,,70,0
17399,note_on,,59,0,15,,,,,,,,,,,,,,,,15,,74,0
17399,note_on,,119,0,12,,,,,,,,,,,,,,,,11,,70,0
17399,note_on,,59,0,14,,,,,,,,,,,,,,,,13,,62,0
17399,note_on,,119,0,9,,,,,,,,,,,,,,,,7,,62,0
17399,note_on,,119,0,8,,,,,,,,,,,,,,,,6,,65,0
17399,note_on,,0,0,15,,,,,,,,,,,,,,,,15,,65,0
17399,note_on,,59,0,7,,,,,,,,,,,,,,,,5,,77,0
17400,note_on,,0,0,15,,,,,,,,,,,,,,,,15,,65,72
17400,note_on,,0,0,15,,,,,,,,,,,,,,,,15,,70,72
17400,note_on,,1,0,15,,,,,,,,,,,,,,,,15,,50,72
17400,note_on,,1,0,13,,,,,,,,,,,,,,,,12,,58,72
17400,note_on,,1,0,14,,,,,,,,,,,,,,,,13,,50,72
17400,note_on,,1,0,6,,,,,,,,,,,,,,,,2,,50,72
17400,note_on,,0,0,15,,,,,,,,,,,,,,,,15,,62,72
17400,note_on,,0,0,15,,,,,,,,,,,,,,,,15,,58,72
17460,note_on,,61,0,8,,,,,,,,,,,,,,,,6,,65,72
17460,note_on,,61,0,11,,,,,,,,,,,,,,,,10,,77,72
17460,note_on,,61,0,12,,,,,,,,,,,,,,,,11,,65,72
17460,note_on,,61,0,7,,,,,,,,,,,,,,,,5,,77,72
17460,note_on,,61,0,5,,,,,,,,,,,,,,,,0,,77,72
17519,note_on,,0,0,15,,,,,,,,,,,,,,,,15,,65,0
17519,note_on,,0,0,15,,,,,,,,,,,,,,,,15,,70,0
17519,note_on,,59,0,12,,,,,,,,,,,,,,,,11,,65,0
17519,note_on,,0,0,15,,,,,,,,,,,,,,,,15,,62,0
17519,note_on,,119,0,13,,,,,,,,,,,,,,,,12,,58,0
17519,note_on,,119,0,15,,,,,,,,,,,,,,,,15,,50,0
17519,note_on,,0,0,15,,,,,,,,,,,,,,,,15,,58,0
17519,note_on,,119,0,14,,,,,,,,,,,,,,,,13,,50,0
17519,note_on,,59,0,8,,,,,,,,,,,,,,,,6,,65,0
17519,note_on,,59,0,5,,,,,,,,,,,,,,,,0,,77,0
17519,note_on,,59,0,7,,,,,,,,,,,,,,,,5,,77,0
17519,note_on,,59,0,11,,,,,,,,,,,,,,,,10,,77,0
17519,note_on,,119,0,6,,,,,,,,,,,,,,,,2,,50,0
17520,note_on,,0,0,15,,,,,,,,,,,,,,,,15,,72,72
17520,note_on,,1,0,8,,,,,,,,,,,,,,,,6,,67,72
17520,note_on,,1,0,5,,,,,,,,,,,,,,,,0,,75,72
17520,note_on,,0,0,15,,,,,,,,,,,,,,,,15,,69,72
17520,note_on,,0,0,15,,,,,,,,,,,,,,,,15,,63,72
17520,note_on,,0,0,15,,,,,,,,,,,,,,,,15,,57,72
17520,note_on,,1,0,11,,,,,,,,,,,,,,,,10,,75,72
17520,note_on,,1,0,15,,,,,,,,,,,,,,,,15,,48,72
17520,note_on,,1,0,6,,,,,,,,,,,,,,,,2,,48,72
17520,note_on,,1,0,13,,,,,,,,,,,,,,,,12,,63,72
17520,note_on,,1,0,14,,,,,,,,,,,,,,,,13,,48,72
17520,note_on,,1,0,12,,,,,,,,,,,,,,,,11,,67,72
17520,note_on,,1,0,7,,,,,,,,,,,,,,,,5,,75,72
17549,note_on,,29,0,8,,,,,,,,,,,,,,,,6,,67,0
17549,note_on,,29,0,12,,,,,,,,,,,,,,,,11,,67,0
17550,note_on,,1,0,8,,,,,,,,,,,,,,,,6,,69,72
17550,note_on,,1,0,12,,,,,,,,,,,,,,,,11,,69,72
17579,note_on,,0,0,15,,,,,,,,,,,,,,,,15,,57,0
17579,note_on,,0,0,15,,,,,,,,,,,,,,,,15,,63,0
17579,note_on,,0,0,15,,,,,,,,,,,,,,,,15,,69,0
17579,note_on,,0,0,15,,,,,,,,,,,,,,,,15,,72,0
17579,note_on,,59,0,5,,,,,,,,,,,,,,,,0,,75,0
17579,note_on,,59,0,15,,,,,,,,,,,,,,,,15,,48,0
17579,note_on,,59,0,11,,,,,,,,,,,,,,,,10,,75,0
17579,note_on,,29,0,8,,,,,,,,,,,,,,,,6,,69,0
17579,note_on,,29,0,12,,,,,,,,,,,,,,,,11,,69,0
17579,note_on,,59,0,13,,,,,,,,,,,,,,,,12,,63,0
17579,note_on,,59,0,6,,,,,,,,,,,,,,,,2,,48,0
17579,note_on,,59,0,7,,,,,,,,,,,,,,,,5,,75,0
17579,note_on,,59,0,14,,,,,,,,,,,,,,,,13,,48,0
17580,note_on,,1,0,6,,,,,,,,,,,,,,,,2,,46,72
17580,note_on,,1,0,15,,,,,,,,,,,,,,,,15,,46,72
17580,note_on,,1,0,7,,,,,,,,,,,,,,,,5,,74,72
17580,note_on,,1,0,12,,,,,,,,,,,,,,,,11,,70,72
17580,note_on,,1,0,13,,,,,,,,,,,,,,,,12,,58,72
17580,note_on,,1,0,14,,,,,,,,,,,,,,,,13,,46,72
17580,note_on,,1,0,5,,,,,,,,,,,,,,,,0,,74,72
17580,note_on,,1,0,11,,,,,,,,,,,,,,,,10,,74,72
17580,note_on,,1,0,8,,,,,,,,,,,,,,,,6,,70,72
17580,note_on,,0,0,15,,,,,,,,,,,,,,,,15,,70,72
17580,note_on,,0,0,15,,,,,,,,,,,,,,,,15,,74,72
17580,note_on,,0,0,15,,,,,,,,,,,,,,,,15,,53,72
17580,note_on,,0,0,15,,,,,,,,,,,,,,,,15,,65,72
17609,note_on,,29,0,11,,,,,,,,,,,,,,,,10,,74,0
17609,note_on,,29,0,5,,,,,,,,,,,,,,,,0,,74,0
17609,note_on,,29,0,7,,,,,,,,,,,,,,,,5,,74,0
17610,note_on,,1,0,7,,,,,,,,,,,,,,,,5,,72,72
17610,note_on,,1,0,11,,,,,,,,,,,,,,,,10,,72,72
17610,note_on,,1,0,5,,,,,,,,,,,,,,,,0,,72,72
17639,note_on,,59,0,14,,,,,,,,,,,,,,,,13,,46,0
17639,note_on,,0,0,15,,,,,,,,,,,,,,,,15,,65,0
17639,note_on,,0,0,15,,,,,,,,,,,,,,,,15,,70,0
17639,note_on,,29,0,7,,,,,,,,,,,,,,,,5,,72,0
17639,note_on,,59,0,15,,,,,,,,,,,,,,,,15,,46,0
17639,note_on,,0,0,15,,,,,,,,,,,,,,,,15,,53,0
17639,note_on,,59,0,6,,,,,,,,,,,,,,,,2,,46,0
17639,note_on,,59,0,8,,,,,,,,,,,,,,,,6,,70,0
17639,note_on,,29,0,5,,,,,,,,,,,,,,,,0,,72,0
17639,note_on,,29,0,11,,,,,,,,,,,,,,,,10,,72,0
17639,note_on,,59,0,12,,,,,,,,,,,,,,,,11,,70,0
17639,note_on,,0,0,15,,,,,,,,,,,,,,,,15,,74,0
17640,note_on,,1,0,11,,,,,,,,,,,,,,,,10,,72,72
17640,note_on,,0,0,15,,,,,,,,,,,,,,,,15,,60,72
17640,note_on,,1,0,6,,,,,,,,,,,,,,,,2,,53,72
17640,note_on,,1,0,14,,,,,,,,,,,,,,,,13,,53,72
17640,note_on,,0,0,15,,,,,,,,,,,,,,,,15,,53,72
17640,note_on,,1,0,15,,,,,,,,,,,,,,,,15,,53,72
17640,note_on,,1,0,5,,,,,,,,,,,,,,,,0,,72,72
17640,note_on,,1,0,7,,,,,,,,,,,,,,,,5,,72,72
17640,note_on,,0,0,15,,,,,,,,,,,,,,,,15,,72,72
17640,note_on,,0,0,15,,,,,,,,,,,,,,,,15,,70,72
17654,note_on,,14,0,11,,,,,,,,,,,,,,,,10,,72,0
17655,note_on,,1,0,11,,,,,,,,,,,,,,,,10,,74,72
17669,note_on,,14,0,11,,,,,,,,,,,,,,,,10,,74,0
17670,note_on,,1,0,11,,,,,,,,,,,,,,,,10,,72,72
17684,note_on,,14,0,11,,,,,,,,,,,,,,,,10,,72,0
17685,note_on,,1,0,11,,,,,,,,,,,,,,,,10,,74,72
17699,note_on,,14,0,11,,,,,,,,,,,,,,,,10,,74,0
17699,note_on,,59,0,6,,,,,,,,,,,,,,,,2,,53,0
17699,note_on,,0,0,15,,,,,,,,,,,,,,,,15,,70,0
17699,note_on,,119,0,13,,,,,,,,,,,,,,,,12,,58,0
17699,note_on,,0,0,15,,,,,,,,,,,,,,,,15,,60,0
17699,note_on,,59,0,14,,,,,,,,,,,,,,,,13,,53,0
17699,note_on,,59,0,15,,,,,,,,,,,,,,,,15,,53,0
17700,note_on,,0,0,15,,,,,,,,,,,,,,,,15,,69,72
17700,note_on,,1,0,15,,,,,,,,,,,,,,,,15,,41,72
17700,note_on,,61,0,8,,,,,,,,,,,,,,,,6,,60,72
17700,note_on,,61,0,12,,,,,,,,,,,,,,,,11,,60,72
17700,note_on,,301,0,9,,,,,,,,,,,,,,,,7,,57,72
17700,note_on,,0,0,15,,,,,,,,,,,,,,,,15,,65,72
17700,note_on,,1,0,14,,,,,,,,,,,,,,,,13,,41,72
17700,note_on,,301,0,10,,,,,,,,,,,,,,,,8,,53,72
17700,note_on,,1,0,6,,,,,,,,,,,,,,,,2,,41,72
17700,note_on,,1,0,13,,,,,,,,,,,,,,,,12,,57,72
17700,note_on,,1,0,11,,,,,,,,,,,,,,,,10,,70,72
17714,note_on,,14,0,11,,,,,,,,,,,,,,,,10,,70,0
17715,note_on,,1,0,11,,,,,,,,,,,,,,,,10,,72,72
17729,note_on,,89,0,5,,,,,,,,,,,,,,,,0,,72,0
17729,note_on,,89,0,7,,,,,,,,,,,,,,,,5,,72,0
17729,note_on,,14,0,11,,,,,,,,,,,,,,,,10,,72,0
17730,note_on,,1,0,11,,,,,,,,,,,,,,,,10,,70,72
17730,note_on,,1,0,7,,,,,,,,,,,,,,,,5,,70,72
17730,note_on,,1,0,5,,,,,,,,,,,,,,,,0,,70,72
17759,note_on,,59,0,6,,,,,,,,,,,,,,,,2,,41,0
17759,note_on,,29,0,5,,,,,,,,,,,,,,,,0,,70,0
17759,note_on,,29,0,7,,,,,,,,,,,,,,,,5,,70,0
17759,note_on,,59,0,9,,,,,,,,,,,,,,,,7,,57,0
17759,note_on,,59,0,13,,,,,,,,,,,,,,,,12,,57,0
17759,note_on,,59,0,14,,,,,,,,,,,,,,,,13,,41,0
17759,note_on,,29,0,11,,,,,,,,,,,,,,,,10,,70,0
17759,note_on,,59,0,8,,,,,,,,,,,,,,,,6,,60,0
17759,note_on,,0,0,15,,,,,,,,,,,,,,,,15,,65,0
17759,note_on,,0,0,15,,,,,,,,,,,,,,,,15,,69,0
17759,note_on,,0,0,15,,,,,,,,,,,,,,,,15,,41,0
17759,note_on,,0,0,15,,,,,,,,,,,,,,,,15,,53,0
17759,note_on,,59,0,15,,,,,,,,,,,,,,,,15,,72,0
17759,note_on,,59,0,12,,,,,,,,,,,,,,,,11,,60,0
17759,note_on,,59,0,10,,,,,,,,,,,,,,,,8,,53,0
17760,note_on,,1,0,7,,,,,,,,,,,,,,,,5,,70,72
17760,note_on,,1,0,9,,,,,,,,,,,,,,,,7,,58,72
17760,note_on,,1,0,10,,,,,,,,,,,,,,,,8,,46,72
17760,note_on,,1,0,8,,,,,,,,,,,,,,,,6,,62,72
17760,note_on,,1,0,5,,,,,,,,,,,,,,,,0,,70,72
17760,note_on,,1,0,14,,,,,,,,,,,,,,,,13,,46,72
17760,note_on,,0,0,15,,,,,,,,,,,,,,,,15,,53,72
17760,note_on,,0,0,15,,,,,,,,,,,,,,,,15,,62,72
17760,note_on,,0,0,15,,,,,,,,,,,,,,,,15,,65,72
17760,note_on,,0,0,15,,,,,,,,,,,,,,,,15,,70,72
17760,note_on,,1,0,15,,,,,,,,,,,,,,,,15,,46,72
17760,note_on,,1,0,11,,,,,,,,,,,,,,,,10,,70,72
17760,note_on,,1,0,6,,,,,,,,,,,,,,,,2,,46,72
17760,note_on,,1,0,12,,,,,,,,,,,,,,,,11,,62,72
17760,note_on,,1,0,13,,,,,,,,,,,,,,,,12,,58,72
17789,note_on,,29,0,9,,,,,,,,,,,,,,,,7,,58,0
17789,note_on,,29,0,12,,,,,,,,,,,,,,,,11,,62,0
17789,note_on,,29,0,13,,,,,,,,,,,,,,,,12,,58,0
17789,note_on,,29,0,8,,,,,,,,,,,,,,,,6,,62,0
17790,note_on,,1,0,12,,,,,,,,,,,,,,,,11,,63,72
17790,note_on,,1,0,9,,,,,,,,,,,,,,,,7,,60,72
17790,note_on,,1,0,8,,,,,,,,,,,,,,,,6,,63,72
17790,note_on,,1,0,13,,,,,,,,,,,,,,,,12,,60,72
17819,note_on,,29,0,12,,,,,,,,,,,,,,,,11,,63,0
17819,note_on,,29,0,9,,,,,,,,,,,,,,,,7,,60,0
17819,note_on,,29,0,13,,,,,,,,,,,,,,,,12,,60,0
17819,note_on,,29,0,8,,,,,,,,,,,,,,,,6,,63,0
17820,note_on,,1,0,9,,,,,,,,,,,,,,,,7,,62,72
17820,note_on,,1,0,8,,,,,,,,,,,,,,,,6,,65,72
17820,note_on,,1,0,13,,,,,,,,,,,,,,,,12,,62,72
17820,note_on,,1,0,12,,,,,,,,,,,,,,,,11,,65,72
17879,note_on,,0,0,15,,,,,,,,,,,,,,,,15,,53,0
17879,note_on,,119,0,14,,,,,,,,,,,,,,,,13,,46,0
17879,note_on,,119,0,10,,,,,,,,,,,,,,,,8,,46,0
17879,note_on,,119,0,7,,,,,,,,,,,,,,,,5,,70,0
17879,note_on,,119,0,5,,,,,,,,,,,,,,,,0,,70,0
17879,note_on,,0,0,15,,,,,,,,,,,,,,,,15,,62,0
17879,note_on,,119,0,6,,,,,,,,,,,,,,,,2,,46,0
17879,note_on,,119,0,11,,,,,,,,,,,,,,,,10,,70,0
17879,note_on,,119,0,15,,,,,,,,,,,,,,,,15,,46,0
17879,note_on,,0,0,15,,,,,,,,,,,,,,,,15,,70,0
17879,note_on,,0,0,15,,,,,,,,,,,,,,,,15,,65,0
17880,note_on,,0,0,15,,,,,,,,,,,,,,,,15,,70,72
17880,note_on,,1,0,11,,,,,,,,,,,,,,,,10,,68,72
17880,note_on,,1,0,15,,,,,,,,,,,,,,,,15,,53,72
17880,note_on,,1,0,6,,,,,,,,,,,,,,,,2,,50,72
17880,note_on,,0,0,15,,,,,,,,,,,,,,,,15,,50,72
17880,note_on,,0,0,15,,,,,,,,,,,,,,,,15,,77,72
17880,note_on,,1,0,7,,,,,,,,,,,,,,,,5,,68,72
17880,note_on,,0,0,15,,,,,,,,,,,,,,,,15,,65,72
17880,note_on,,1,0,5,,,,,,,,,,,,,,,,0,,68,72
17880,note_on,,1,0,14,,,,,,,,,,,,,,,,13,,50,72
17939,note_on,,119,0,13,,,,,,,,,,,,,,,,12,,62,0
17939,note_on,,59,0,14,,,,,,,,,,,,,,,,13,,50,0
17939,note_on,,119,0,9,,,,,,,,,,,,,,,,7,,62,0
17939,note_on,,119,0,8,,,,,,,,,,,,,,,,6,,65,0
17939,note_on,,59,0,6,,,,,,,,,,,,,,,,2,,50,0
17939,note_on,,119,0,12,,,,,,,,,,,,,,,,11,,65,0
17939,note_on,,59,0,15,,,,,,,,,,,,,,,,15,,50,0
17940,note_on,,1,0,15,,,,,,,,,,,,,,,,15,,46,72
17940,note_on,,1,0,6,,,,,,,,,,,,,,,,2,,46,72
17940,note_on,,1,0,14,,,,,,,,,,,,,,,,13,,46,72
17940,note_on,,61,0,10,,,,,,,,,,,,,,,,8,,46,72
17940,note_on,,1,0,12,,,,,,,,,,,,,,,,11,,65,72
17940,note_on,,1,0,8,,,,,,,,,,,,,,,,6,,65,72
17940,note_on,,1,0,13,,,,,,,,,,,,,,,,12,,62,72
17940,note_on,,1,0,9,,,,,,,,,,,,,,,,7,,62,72
17999,note_on,,119,0,5,,,,,,,,,,,,,,,,0,,68,0
17999,note_on,,59,0,14,,,,,,,,,,,,,,,,13,,46,0
17999,note_on,,59,0,8,,,,,,,,,,,,,,,,6,,65,0
17999,note_on,,119,0,7,,,,,,,,,,,,,,,,5,,68,0
17999,note_on,,59,0,10,,,,,,,,,,,,,,,,8,,46,0
17999,note_on,,59,0,13,,,,,,,,,,,,,,,,12,,62,0
17999,note_on,,59,0,15,,,,,,,,,,,,,,,,15,,53,0
17999,note_on,,0,0,15,,,,,,,,,,,,,,,,15,,70,0
17999,note_on,,59,0,9,,,,,,,,,,,,,,,,7,,62,0
17999,note_on,,0,0,15,,,,,,,,,,,,,,,,15,,77,0
17999,note_on,,0,0,15,,,,,,,,,,,,,,,,15,,46,0
17999,note_on,,119,0,11,,,,,,,,,,,,,,,,10,,68,0
17999,note_on,,59,0,6,,,,,,,,,,,,,,,,2,,46,0
18000,note_on,,1,0,9,,,,,,,,,,,,,,,,7,,58,72
18000,note_on,,1,0,8,,,,,,,,,,,,,,,,6,,65,72
18000,note_on,,1,0,5,,,,,,,,,,,,,,,,0,,67,72
18000,note_on,,1,0,6,,,,,,,,,,,,,,,,2,,51,72
18000,note_on,,1,0,13,,,,,,,,,,,,,,,,12,,58,72
18000,note_on,,1,0,15,,,,,,,,,,,,,,,,15,,51,72
18000,note_on,,1,0,11,,,,,,,,,,,,,,,,10,,67,72
18000,note_on,,1,0,7,,,,,,,,,,,,,,,,5,,67,72
18000,note_on,,1,0,14,,,,,,,,,,,,,,,,13,,51,72
18000,note_on,,0,0,15,,,,,,,,,,,,,,,,15,,55,72
18000,note_on,,0,0,15,,,,,,,,,,,,,,,,15,,67,72
18000,note_on,,0,0,15,,,,,,,,,,,,,,,,15,,70,72
18000,note_on,,1,0,10,,,,,,,,,,,,,,,,8,,51,72
18119,note_on,,119,0,11,,,,,,,,,,,,,,,,10,,67,0
18119,note_on,,119,0,8,,,,,,,,,,,,,,,,6,,65,0
18119,note_on,,119,0,13,,,,,,,,,,,,,,,,12,,58,0
18119,note_on,,119,0,9,,,,,,,,,,,,,,,,7,,58,0
18119,note_on,,119,0,7,,,,,,,,,,,,,,,,5,,67,0
18119,note_on,,119,0,15,,,,,,,,,,,,,,,,15,,65,0
18119,note_on,,0,0,15,,,,,,,,,,,,,,,,15,,70,0
18119,note_on,,0,0,15,,,,,,,,,,,,,,,,15,,67,0
18119,note_on,,119,0,5,,,,,,,,,,,,,,,,0,,67,0
18119,note_on,,179,0,12,,,,,,,,,,,,,,,,11,,65,0
18120,note_on,,1,0,5,,,,,,,,,,,,,,,,0,,72,72
18120,note_on,,1,0,8,,,,,,,,,,,,,,,,6,,63,72
18120,note_on,,1,0,9,,,,,,,,,,,,,,,,7,,67,72
18120,note_on,,1,0,11,,,,,,,,,,,,,,,,10,,72,72
18120,note_on,,1,0,12,,,,,,,,,,,,,,,,11,,63,72
18120,note_on,,1,0,15,,,,,,,,,,,,,,,,15,,75,72
18120,note_on,,0,0,15,,,,,,,,,,,,,,,,15,,72,72
18120,note_on,,0,0,15,,,,,,,,,,,,,,,,15,,67,72
18120,note_on,,0,0,15,,,,,,,,,,,,,,,,15,,63,72
18120,note_on,,1,0,7,,,,,,,,,,,,,,,,5,,72,72
18120,note_on,,1,0,13,,,,,,,,,,,,,,,,12,,67,72
18179,note_on,,179,0,6,,,,,,,,,,,,,,,,2,,51,0
18179,note_on,,179,0,10,,,,,,,,,,,,,,,,8,,51,0
18179,note_on,,179,0,14,,,,,,,,,,,,,,,,13,,51,0
18179,note_on,,59,0,15,,,,,,,,,,,,,,,,15,,51,0
18180,note_on,,1,0,6,,,,,,,,,,,,,,,,2,,50,72
18180,note_on,,1,0,15,,,,,,,,,,,,,,,,15,,50,72
18180,note_on,,1,0,10,,,,,,,,,,,,,,,,8,,50,72
18180,note_on,,1,0,14,,,,,,,,,,,,,,,,13,,50,72
18209,note_on,,29,0,14,,,,,,,,,,,,,,,,13,,50,0
18209,note_on,,29,0,6,,,,,,,,,,,,,,,,2,,50,0
18209,note_on,,29,0,15,,,,,,,,,,,,,,,,15,,50,0
18209,note_on,,29,0,10,,,,,,,,,,,,,,,,8,,50,0
18210,note_on,,1,0,15,,,,,,,,,,,,,,,,15,,48,72
18210,note_on,,1,0,6,,,,,,,,,,,,,,,,2,,48,72
18210,note_on,,1,0,14,,,,,,,,,,,,,,,,13,,48,72
18210,note_on,,1,0,10,,,,,,,,,,,,,,,,8,,48,72
18239,note_on,,119,0,12,,,,,,,,,,,,,,,,11,,63,0
18239,note_on,,29,0,15,,,,,,,,,,,,,,,,15,,55,0
18239,note_on,,0,0,15,,,,,,,,,,,,,,,,15,,48,0
18239,note_on,,119,0,8,,,,,,,,,,,,,,,,6,,63,0
18239,note_on,,0,0,15,,,,,,,,,,,,,,,,15,,63,0
18239,note_on,,29,0,10,,,,,,,,,,,,,,,,8,,48,0
18239,note_on,,0,0,15,,,,,,,,,,,,,,,,15,,67,0
18239,note_on,,29,0,6,,,,,,,,,,,,,,,,2,,48,0
18239,note_on,,0,0,15,,,,,,,,,,,,,,,,15,,72,0
18239,note_on,,29,0,14,,,,,,,,,,,,,,,,13,,48,0
18239,note_on,,0,0,15,,,,,,,,,,,,,,,,15,,75,0
18240,note_on,,0,0,15,,,,,,,,,,,,,,,,15,,72,72
18240,note_on,,0,0,15,,,,,,,,,,,,,,,,15,,74,72
18240,note_on,,1,0,10,,,,,,,,,,,,,,,,8,,55,72
18240,note_on,,1,0,6,,,,,,,,,,,,,,,,2,,55,72
18240,note_on,,0,0,15,,,,,,,,,,,,,,,,15,,67,72
18240,note_on,,1,0,8,,,,,,,,,,,,,,,,6,,62,72
18240,note_on,,1,0,12,,,,,,,,,,,,,,,,11,,62,72
18240,note_on,,1,0,15,,,,,,,,,,,,,,,,15,,55,72
18240,note_on,,1,0,14,,,,,,,,,,,,,,,,13,,55,72
18299,note_on,,179,0,13,,,,,,,,,,,,,,,,12,,67,0
18299,note_on,,179,0,9,,,,,,,,,,,,,,,,7,,67,0
18300,note_on,,1,0,9,,,,,,,,,,,,,,,,7,,65,72
18300,note_on,,1,0,13,,,,,,,,,,,,,,,,12,,65,72
18329,note_on,,29,0,9,,,,,,,,,,,,,,,,7,,65,0
18329,note_on,,29,0,13,,,,,,,,,,,,,,,,12,,65,0
18330,note_on,,1,0,13,,,,,,,,,,,,,,,,12,,63,72
18330,note_on,,1,0,9,,,,,,,,,,,,,,,,7,,63,72
18359,note_on,,239,0,5,,,,,,,,,,,,,,,,0,,72,0
18359,note_on,,239,0,7,,,,,,,,,,,,,,,,5,,72,0
18359,note_on,,0,0,15,,,,,,,,,,,,,,,,15,,67,0
18359,note_on,,0,0,15,,,,,,,,,,,,,,,,15,,72,0
18359,note_on,,29,0,13,,,,,,,,,,,,,,,,12,,63,0
18359,note_on,,29,0,9,,,,,,,,,,,,,,,,7,,63,0
18359,note_on,,119,0,12,,,,,,,,,,,,,,,,11,,62,0
18359,note_on,,119,0,8,,,,,,,,,,,,,,,,6,,62,0
18359,note_on,,239,0,11,,,,,,,,,,,,,,,,10,,72,0
18359,note_on,,119,0,15,,,,,,,,,,,,,,,,15,,74,0
18360,note_on,,0,0,15,,,,,,,,,,,,,,,,15,,74,72
18360,note_on,,1,0,5,,,,,,,,,,,,,,,,0,,70,72
18360,note_on,,1,0,11,,,,,,,,,,,,,,,,10,,70,72
18360,note_on,,1,0,9,,,,,,,,,,,,,,,,7,,62,72
18360,note_on,,1,0,8,,,,,,,,,,,,,,,,6,,67,72
18360,note_on,,1,0,12,,,,,,,,,,,,,,,,11,,67,72
18360,note_on,,1,0,13,,,,,,,,,,,,,,,,12,,62,72
18360,note_on,,1,0,7,,,,,,,,,,,,,,,,5,,70,72
18360,note_on,,0,0,15,,,,,,,,,,,,,,,,15,,70,72
18360,note_on,,1,0,15,,,,,,,,,,,,,,,,15,,79,72
18419,note_on,,179,0,6,,,,,,,,,,,,,,,,2,,55,0
18419,note_on,,59,0,15,,,,,,,,,,,,,,,,15,,55,0
18419,note_on,,179,0,14,,,,,,,,,,,,,,,,13,,55,0
18420,note_on,,1,0,6,,,,,,,,,,,,,,,,2,,43,72
18420,note_on,,1,0,14,,,,,,,,,,,,,,,,13,,43,72
18420,note_on,,1,0,15,,,,,,,,,,,,,,,,15,,43,72
18420,note_on,,0,0,15,,,,,,,,,,,,,,,,15,,55,72
18479,note_on,,0,0,15,,,,,,,,,,,,,,,,15,,55,0
18479,note_on,,0,0,15,,,,,,,,,,,,,,,,15,,74,0
18479,note_on,,0,0,15,,,,,,,,,,,,,,,,15,,70,0
18479,note_on,,0,0,15,,,,,,,,,,,,,,,,15,,43,0
18479,note_on,,59,0,15,,,,,,,,,,,,,,,,15,,79,0
18479,note_on,,239,0,10,,,,,,,,,,,,,,,,8,,55,0
18479,note_on,,119,0,7,,,,,,,,,,,,,,,,5,,70,0
18479,note_on,,119,0,5,,,,,,,,,,,,,,,,0,,70,0
18479,note_on,,59,0,14,,,,,,,,,,,,,,,,13,,43,0
18479,note_on,,59,0,6,,,,,,,,,,,,,,,,2,,43,0
18479,note_on,,119,0,11,,,,,,,,,,,,,,,,10,,70,0
18480,note_on,,1,0,7,,,,,,,,,,,,,,,,5,,69,72
18480,note_on,,1,0,15,,,,,,,,,,,,,,,,15,,50,72
18480,note_on,,1,0,5,,,,,,,,,,,,,,,,0,,69,72
18480,note_on,,1,0,14,,,,,,,,,,,,,,,,13,,50,72
18480,note_on,,0,0,15,,,,,,,,,,,,,,,,15,,57,72
18480,note_on,,1,0,10,,,,,,,,,,,,,,,,8,,50,72
18480,note_on,,0,0,15,,,,,,,,,,,,,,,,15,,69,72
18480,note_on,,1,0,6,,,,,,,,,,,,,,,,2,,50,72
18480,note_on,,1,0,11,,,,,,,,,,,,,,,,10,,69,72
18480,note_on,,0,0,15,,,,,,,,,,,,,,,,15,,74,72
18480,note_on,,0,0,15,,,,,,,,,,,,,,,,15,,77,72
18599,note_on,,119,0,7,,,,,,,,,,,,,,,,5,,69,0
18599,note_on,,119,0,15,,,,,,,,,,,,,,,,15,,77,0
18599,note_on,,0,0,15,,,,,,,,,,,,,,,,15,,74,0
18599,note_on,,0,0,15,,,,,,,,,,,,,,,,15,,69,0
18599,note_on,,239,0,9,,,,,,,,,,,,,,,,7,,62,0
18599,note_on,,239,0,13,,,,,,,,,,,,,,,,12,,62,0
18599,note_on,,239,0,12,,,,,,,,,,,,,,,,11,,67,0
18599,note_on,,119,0,11,,,,,,,,,,,,,,,,10,,69,0
18599,note_on,,239,0,8,,,,,,,,,,,,,,,,6,,67,0
18599,note_on,,119,0,5,,,,,,,,,,,,,,,,0,,69,0
18600,note_on,,1,0,12,,,,,,,,,,,,,,,,11,,65,72
18600,note_on,,1,0,13,,,,,,,,,,,,,,,,12,,57,72
18600,note_on,,1,0,7,,,,,,,,,,,,,,,,5,,74,72
18600,note_on,,0,0,15,,,,,,,,,,,,,,,,15,,65,72
18600,note_on,,1,0,15,,,,,,,,,,,,,,,,15,,74,72
18600,note_on,,1,0,5,,,,,,,,,,,,,,,,0,,74,72
18600,note_on,,1,0,9,,,,,,,,,,,,,,,,7,,57,72
18600,note_on,,1,0,8,,,,,,,,,,,,,,,,6,,65,72
18600,note_on,,1,0,11,,,,,,,,,,,,,,,,10,,74,72
18600,note_on,,0,0,15,,,,,,,,,,,,,,,,15,,69,72
18659,note_on,,59,0,15,,,,,,,,,,,,,,,,15,,50,0
18659,note_on,,0,0,15,,,,,,,,,,,,,,,,15,,57,0
18659,note_on,,179,0,14,,,,,,,,,,,,,,,,13,,50,0
18659,note_on,,59,0,13,,,,,,,,,,,,,,,,12,,57,0
18659,note_on,,179,0,6,,,,,,,,,,,,,,,,2,,50,0
18659,note_on,,179,0,10,,,,,,,,,,,,,,,,8,,50,0
18660,note_on,,1,0,6,,,,,,,,,,,,,,,,2,,53,72
18660,note_on,,1,0,10,,,,,,,,,,,,,,,,8,,53,72
18660,note_on,,1,0,14,,,,,,,,,,,,,,,,13,,53,72
18660,note_on,,1,0,15,,,,,,,,,,,,,,,,15,,53,72
18660,note_on,,1,0,13,,,,,,,,,,,,,,,,12,,69,72
18660,note_on,,0,0,15,,,,,,,,,,,,,,,,15,,57,72
18719,note_on,,59,0,15,,,,,,,,,,,,,,,,15,,74,0
18719,note_on,,59,0,13,,,,,,,,,,,,,,,,12,,69,0
18719,note_on,,119,0,12,,,,,,,,,,,,,,,,11,,65,0
18719,note_on,,0,0,15,,,,,,,,,,,,,,,,15,,69,0
18719,note_on,,0,0,15,,,,,,,,,,,,,,,,15,,65,0
18719,note_on,,0,0,15,,,,,,,,,,,,,,,,15,,53,0
18719,note_on,,0,0,15,,,,,,,,,,,,,,,,15,,57,0
18719,note_on,,59,0,10,,,,,,,,,,,,,,,,8,,53,0
18719,note_on,,119,0,8,,,,,,,,,,,,,,,,6,,65,0
18719,note_on,,59,0,6,,,,,,,,,,,,,,,,2,,53,0
18719,note_on,,119,0,9,,,,,,,,,,,,,,,,7,,57,0
18719,note_on,,59,0,14,,,,,,,,,,,,,,,,13,,53,0
18720,note_on,,1,0,10,,,,,,,,,,,,,,,,8,,55,72
18720,note_on,,1,0,6,,,,,,,,,,,,,,,,2,,55,72
18720,note_on,,1,0,9,,,,,,,,,,,,,,,,7,,58,72
18720,note_on,,0,0,15,,,,,,,,,,,,,,,,15,,63,72
18720,note_on,,0,0,15,,,,,,,,,,,,,,,,15,,58,72
18720,note_on,,1,0,13,,,,,,,,,,,,,,,,12,,70,72
18720,note_on,,0,0,15,,,,,,,,,,,,,,,,15,,67,72
18720,note_on,,1,0,15,,,,,,,,,,,,,,,,15,,55,72
18720,note_on,,1,0,8,,,,,,,,,,,,,,,,6,,63,72
18720,note_on,,1,0,12,,,,,,,,,,,,,,,,11,,75,72
18720,note_on,,1,0,14,,,,,,,,,,,,,,,,13,,55,72
18720,note_on,,0,0,15,,,,,,,,,,,,,,,,15,,70,72
18839,note_on,,119,0,9,,,,,,,,,,,,,,,,7,,58,0
18839,note_on,,119,0,13,,,,,,,,,,,,,,,,12,,70,0
18839,note_on,,0,0,15,,,,,,,,,,,,,,,,15,,63,0
18839,note_on,,239,0,5,,,,,,,,,,,,,,,,0,,74,0
18839,note_on,,239,0,11,,,,,,,,,,,,,,,,10,,74,0
18839,note_on,,119,0,6,,,,,,,,,,,,,,,,2,,55,0
18839,note_on,,119,0,10,,,,,,,,,,,,,,,,8,,55,0
18839,note_on,,0,0,15,,,,,,,,,,,,,,,,15,,58,0
18839,note_on,,0,0,15,,,,,,,,,,,,,,,,15,,67,0
18839,note_on,,119,0,14,,,,,,,,,,,,,,,,13,,55,0
18839,note_on,,119,0,15,,,,,,,,,,,,,,,,15,,55,0
18839,note_on,,239,0,7,,,,,,,,,,,,,,,,5,,74,0
18839,note_on,,0,0,15,,,,,,,,,,,,,,,,15,,70,0
18840,note_on,,1,0,5,,,,,,,,,,,,,,,,0,,72,72
18840,note_on,,0,0,15,,,,,,,,,,,,,,,,15,,60,72
18840,note_on,,1,0,6,,,,,,,,,,,,,,,,2,,57,72
18840,note_on,,1,0,9,,,,,,,,,,,,,,,,7,,65,72
18840,note_on,,1,0,7,,,,,,,,,,,,,,,,5,,72,72
18840,note_on,,1,0,10,,,,,,,,,,,,,,,,8,,57,72
18840,note_on,,1,0,14,,,,,,,,,,,,,,,,13,,57,72
18840,note_on,,0,0,15,,,,,,,,,,,,,,,,15,,65,72
18840,note_on,,1,0,11,,,,,,,,,,,,,,,,10,,72,72
18840,note_on,,0,0,15,,,,,,,,,,,,,,,,15,,72,72
18840,note_on,,0,0,15,,,,,,,,,,,,,,,,15,,77,72
18840,note_on,,1,0,15,,,,,,,,,,,,,,,,15,,57,72
18840,note_on,,1,0,13,,,,,,,,,,,,,,,,12,,65,72
18959,note_on,,119,0,14,,,,,,,,,,,,,,,,13,,57,0
18959,note_on,,119,0,6,,,,,,,,,,,,,,,,2,,57,0
18959,note_on,,239,0,8,,,,,,,,,,,,,,,,6,,63,0
18959,note_on,,0,0,15,,,,,,,,,,,,,,,,15,,65,0
18959,note_on,,0,0,15,,,,,,,,,,,,,,,,15,,60,0
18959,note_on,,0,0,15,,,,,,,,,,,,,,,,15,,72,0
18959,note_on,,0,0,15,,,,,,,,,,,,,,,,15,,77,0
18959,note_on,,119,0,15,,,,,,,,,,,,,,,,15,,57,0
18959,note_on,,239,0,12,,,,,,,,,,,,,,,,11,,75,0
18959,note_on,,119,0,10,,,,,,,,,,,,,,,,8,,57,0
18960,note_on,,0,0,15,,,,,,,,,,,,,,,,15,,74,72
18960,note_on,,1,0,12,,,,,,,,,,,,,,,,11,,74,72
18960,note_on,,0,0,15,,,,,,,,,,,,,,,,15,,62,72
18960,note_on,,0,0,15,,,,,,,,,,,,,,,,15,,65,72
18960,note_on,,0,0,15,,,,,,,,,,,,,,,,15,,72,72
18960,note_on,,1,0,15,,,,,,,,,,,,,,,,15,,58,72
18960,note_on,,1,0,14,,,,,,,,,,,,,,,,13,,58,72
18960,note_on,,1,0,8,,,,,,,,,,,,,,,,6,,62,72
18960,note_on,,1,0,6,,,,,,,,,,,,,,,,2,,58,72
18960,note_on,,1,0,10,,,,,,,,,,,,,,,,8,,58,72
19079,note_on,,0,0,15,,,,,,,,,,,,,,,,15,,65,0
19079,note_on,,0,0,15,,,,,,,,,,,,,,,,15,,72,0
19079,note_on,,0,0,15,,,,,,,,,,,,,,,,15,,74,0
19079,note_on,,119,0,15,,,,,,,,,,,,,,,,15,,58,0
19079,note_on,,239,0,7,,,,,,,,,,,,,,,,5,,72,0
19079,note_on,,0,0,15,,,,,,,,,,,,,,,,15,,62,0
19079,note_on,,239,0,9,,,,,,,,,,,,,,,,7,,65,0
19079,note_on,,119,0,6,,,,,,,,,,,,,,,,2,,58,0
19079,note_on,,119,0,8,,,,,,,,,,,,,,,,6,,62,0
19079,note_on,,239,0,13,,,,,,,,,,,,,,,,12,,65,0
19079,note_on,,239,0,11,,,,,,,,,,,,,,,,10,,72,0
19079,note_on,,119,0,14,,,,,,,,,,,,,,,,13,,58,0
19079,note_on,,239,0,5,,,,,,,,,,,,,,,,0,,72,0
19079,note_on,,119,0,10,,,,,,,,,,,,,,,,8,,58,0
19080,note_on,,1,0,6,,,,,,,,,,,,,,,,2,,55,72
19080,note_on,,0,0,15,,,,,,,,,,,,,,,,15,,58,72
19080,note_on,,0,0,15,,,,,,,,,,,,,,,,15,,70,72
19080,note_on,,0,0,15,,,,,,,,,,,,,,,,15,,74,72
19080,note_on,,1,0,5,,,,,,,,,,,,,,,,0,,70,72
19080,note_on,,1,0,15,,,,,,,,,,,,,,,,15,,55,72
19080,note_on,,1,0,7,,,,,,,,,,,,,,,,5,,70,72
19080,note_on,,1,0,11,,,,,,,,,,,,,,,,10,,70,72
19080,note_on,,1,0,14,,,,,,,,,,,,,,,,13,,55,72
19080,note_on,,1,0,8,,,,,,,,,,,,,,,,6,,62,72
19080,note_on,,0,0,15,,,,,,,,,,,,,,,,15,,79,72
19080,note_on,,1,0,9,,,,,,,,,,,,,,,,7,,58,72
19080,note_on,,1,0,10,,,,,,,,,,,,,,,,8,,55,72
19080,note_on,,1,0,13,,,,,,,,,,,,,,,,12,,67,72
19139,note_on,,59,0,11,,,,,,,,,,,,,,,,10,,70,0
19139,note_on,,59,0,5,,,,,,,,,,,,,,,,0,,70,0
19139,note_on,,59,0,7,,,,,,,,,,,,,,,,5,,70,0
19139,note_on,,59,0,10,,,,,,,,,,,,,,,,8,,55,0
19139,note_on,,59,0,9,,,,,,,,,,,,,,,,7,,58,0
19139,note_on,,59,0,8,,,,,,,,,,,,,,,,6,,62,0
19139,note_on,,179,0,12,,,,,,,,,,,,,,,,11,,74,0
19140,note_on,,1,0,5,,,,,,,,,,,,,,,,0,,70,72
19140,note_on,,1,0,11,,,,,,,,,,,,,,,,10,,82,72
19140,note_on,,1,0,12,,,,,,,,,,,,,,,,11,,76,72
19140,note_on,,1,0,7,,,,,,,,,,,,,,,,5,,70,72
19140,note_on,,1,0,10,,,,,,,,,,,,,,,,8,,55,72
19140,note_on,,1,0,8,,,,,,,,,,,,,,,,6,,64,72
19140,note_on,,1,0,9,,,,,,,,,,,,,,,,7,,58,72
19199,note_on,,119,0,15,,,,,,,,,,,,,,,,15,,55,0
19199,note_on,,59,0,11,,,,,,,,,,,,,,,,10,,82,0
19199,note_on,,59,0,7,,,,,,,,,,,,,,,,5,,70,0
19199,note_on,,59,0,10,,,,,,,,,,,,,,,,8,,55,0
19199,note_on,,59,0,12,,,,,,,,,,,,,,,,11,,76,0
19199,note_on,,119,0,6,,,,,,,,,,,,,,,,2,,55,0
19199,note_on,,59,0,5,,,,,,,,,,,,,,,,0,,70,0
19199,note_on,,119,0,13,,,,,,,,,,,,,,,,12,,67,0
19199,note_on,,59,0,8,,,,,,,,,,,,,,,,6,,64,0
19199,note_on,,0,0,15,,,,,,,,,,,,,,,,15,,79,0
19199,note_on,,59,0,9,,,,,,,,,,,,,,,,7,,58,0
19199,note_on,,0,0,15,,,,,,,,,,,,,,,,15,,74,0
19199,note_on,,0,0,15,,,,,,,,,,,,,,,,15,,70,0
19199,note_on,,0,0,15,,,,,,,,,,,,,,,,15,,58,0
19199,note_on,,119,0,14,,,,,,,,,,,,,,,,13,,55,0
19200,note_on,,1,0,13,,,,,,,,,,,,,,,,12,,72,72
19200,note_on,,1,0,11,,,,,,,,,,,,,,,,10,,81,72
19200,note_on,,1,0,14,,,,,,,,,,,,,,,,13,,53,72
19200,note_on,,1,0,5,,,,,,,,,,,,,,,,0,,69,72
19200,note_on,,1,0,12,,,,,,,,,,,,,,,,11,,77,72
19200,note_on,,1,0,8,,,,,,,,,,,,,,,,6,,65,72
19200,note_on,,0,0,15,,,,,,,,,,,,,,,,15,,69,72
19200,note_on,,0,0,15,,,,,,,,,,,,,,,,15,,60,72
19200,note_on,,1,0,6,,,,,,,,,,,,,,,,2,,53,72
19200,note_on,,0,0,15,,,,,,,,,,,,,,,,15,,72,72
19200,note_on,,1,0,15,,,,,,,,,,,,,,,,15,,53,72
19200,note_on,,1,0,7,,,,,,,,,,,,,,,,5,,69,72
19200,note_on,,1,0,10,,,,,,,,,,,,,,,,8,,53,72
19200,note_on,,1,0,9,,,,,,,,,,,,,,,,7,,60,72
19200,note_on,,0,0,15,,,,,,,,,,,,,,,,15,,65,72
19289,note_on,,89,0,15,,,,,,,,,,,,,,,,15,,53,0
19289,note_on,,89,0,6,,,,,,,,,,,,,,,,2,,53,0
19289,note_on,,89,0,11,,,,,,,,,,,,,,,,10,,81,0
19289,note_on,,89,0,14,,,,,,,,,,,,,,,,13,,53,0
19290,note_on,,1,0,15,,,,,,,,,,,,,,,,15,,55,72
19290,note_on,,1,0,6,,,,,,,,,,,,,,,,2,,55,72
19290,note_on,,1,0,11,,,,,,,,,,,,,,,,10,,79,72
19290,note_on,,1,0,14,,,,,,,,,,,,,,,,13,,55,72
19319,note_on,,29,0,6,,,,,,,,,,,,,,,,2,,55,0
19319,note_on,,119,0,8,,,,,,,,,,,,,,,,6,,65,0
19319,note_on,,119,0,9,,,,,,,,,,,,,,,,7,,60,0
19319,note_on,,119,0,5,,,,,,,,,,,,,,,,0,,69,0
19319,note_on,,119,0,12,,,,,,,,,,,,,,,,11,,77,0
19319,note_on,,119,0,10,,,,,,,,,,,,,,,,8,,53,0
19319,note_on,,29,0,14,,,,,,,,,,,,,,,,13,,55,0
19319,note_on,,29,0,11,,,,,,,,,,,,,,,,10,,79,0
19319,note_on,,29,0,15,,,,,,,,,,,,,,,,15,,55,0
19319,note_on,,119,0,7,,,,,,,,,,,,,,,,5,,69,0
19319,note_on,,119,0,13,,,,,,,,,,,,,,,,12,,72,0
19320,note_on,,1,0,11,,,,,,,,,,,,,,,,10,,77,72
19320,note_on,,1,0,6,,,,,,,,,,,,,,,,2,,57,72
19320,note_on,,1,0,15,,,,,,,,,,,,,,,,15,,57,72
19320,note_on,,1,0,13,,,,,,,,,,,,,,,,12,,65,72
19320,note_on,,1,0,14,,,,,,,,,,,,,,,,13,,57,72
19320,note_on,,1,0,12,,,,,,,,,,,,,,,,11,,72,72
19379,note_on,,59,0,11,,,,,,,,,,,,,,,,10,,77,0
19379,note_on,,59,0,6,,,,,,,,,,,,,,,,2,,57,0
19379,note_on,,59,0,13,,,,,,,,,,,,,,,,12,,65,0
19379,note_on,,59,0,15,,,,,,,,,,,,,,,,15,,72,0
19379,note_on,,59,0,14,,,,,,,,,,,,,,,,13,,57,0
19379,note_on,,0,0,15,,,,,,,,,,,,,,,,15,,69,0
19379,note_on,,59,0,12,,,,,,,,,,,,,,,,11,,72,0
19379,note_on,,0,0,15,,,,,,,,,,,,,,,,15,,57,0
19379,note_on,,0,0,15,,,,,,,,,,,,,,,,15,,60,0
19379,note_on,,0,0,15,,,,,,,,,,,,,,,,15,,65,0
19380,note_on,,0,0,15,,,,,,,,,,,,,,,,15,,57,72
19380,note_on,,61,0,10,,,,,,,,,,,,,,,,8,,53,72
19380,note_on,,0,0,15,,,,,,,,,,,,,,,,15,,72,72
19380,note_on,,1,0,15,,,,,,,,,,,,,,,,15,,53,72
19380,note_on,,61,0,5,,,,,,,,,,,,,,,,0,,69,72
19380,note_on,,61,0,9,,,,,,,,,,,,,,,,7,,60,72
19380,note_on,,1,0,14,,,,,,,,,,,,,,,,13,,53,72
19380,note_on,,0,0,15,,,,,,,,,,,,,,,,15,,65,72
19380,note_on,,1,0,13,,,,,,,,,,,,,,,,12,,60,72
19380,note_on,,61,0,7,,,,,,,,,,,,,,,,5,,69,72
19380,note_on,,1,0,11,,,,,,,,,,,,,,,,10,,81,72
19380,note_on,,1,0,12,,,,,,,,,,,,,,,,11,,77,72
19380,note_on,,1,0,6,,,,,,,,,,,,,,,,2,,53,72
19380,note_on,,61,0,8,,,,,,,,,,,,,,,,6,,65,72
19380,note_on,,0,0,15,,,,,,,,,,,,,,,,15,,69,72
19439,note_on,,59,0,13,,,,,,,,,,,,,,,,12,,60,0
19439,note_on,,59,0,7,,,,,,,,,,,,,,,,5,,69,0
19439,note_on,,59,0,6,,,,,,,,,,,,,,,,2,,53,0
19439,note_on,,59,0,9,,,,,,,,,,,,,,,,7,,60,0
19439,note_on,,59,0,10,,,,,,,,,,,,,,,,8,,53,0
19439,note_on,,0,0,15,,,,,,,,,,,,,,,,15,,72,0
19439,note_on,,59,0,5,,,,,,,,,,,,,,,,0,,69,0
19439,note_on,,0,0,15,,,,,,,,,,,,,,,,15,,69,0
19439,note_on,,0,0,15,,,,,,,,,,,,,,,,15,,65,0
19439,note_on,,0,0,15,,,,,,,,,,,,,,,,15,,57,0
19439,note_on,,59,0,8,,,,,,,,,,,,,,,,6,,65,0
19439,note_on,,59,0,11,,,,,,,,,,,,,,,,10,,81,0
19439,note_on,,59,0,12,,,,,,,,,,,,,,,,11,,77,0
19439,note_on,,59,0,14,,,,,,,,,,,,,,,,13,,53,0
19439,note_on,,59,0,15,,,,,,,,,,,,,,,,15,,53,0
19440,note_on,,1,0,15,,,,,,,,,,,,,,,,15,,50,72
19440,note_on,,0,0,15,,,,,,,,,,,,,,,,15,,74,72
19440,note_on,,0,0,15,,,,,,,,,,,,,,,,15,,70,72
19440,note_on,,0,0,15,,,,,,,,,,,,,,,,15,,65,72
19440,note_on,,0,0,15,,,,,,,,,,,,,,,,15,,53,72
19440,note_on,,1,0,8,,,,,,,,,,,,,,,,6,,65,72
19440,note_on,,1,0,13,,,,,,,,,,,,,,,,12,,62,72
19440,note_on,,1,0,9,,,,,,,,,,,,,,,,7,,62,72
19440,note_on,,1,0,12,,,,,,,,,,,,,,,,11,,77,72
19440,note_on,,1,0,11,,,,,,,,,,,,,,,,10,,82,72
19440,note_on,,1,0,5,,,,,,,,,,,,,,,,0,,70,72
19440,note_on,,1,0,7,,,,,,,,,,,,,,,,5,,70,72
19440,note_on,,1,0,10,,,,,,,,,,,,,,,,8,,50,72
19440,note_on,,1,0,14,,,,,,,,,,,,,,,,13,,50,72
19440,note_on,,1,0,6,,,,,,,,,,,,,,,,2,,50,72
19529,note_on,,89,0,10,,,,,,,,,,,,,,,,8,,50,0
19529,note_on,,89,0,15,,,,,,,,,,,,,,,,15,,50,0
19529,note_on,,89,0,7,,,,,,,,,,,,,,,,5,,70,0
19529,note_on,,89,0,6,,,,,,,,,,,,,,,,2,,50,0
19529,note_on,,89,0,11,,,,,,,,,,,,,,,,10,,82,0
19529,note_on,,89,0,13,,,,,,,,,,,,,,,,12,,62,0
19529,note_on,,89,0,14,,,,,,,,,,,,,,,,13,,50,0
19529,note_on,,89,0,8,,,,,,,,,,,,,,,,6,,65,0
19529,note_on,,89,0,12,,,,,,,,,,,,,,,,11,,77,0
19529,note_on,,89,0,9,,,,,,,,,,,,,,,,7,,62,0
19529,note_on,,89,0,5,,,,,,,,,,,,,,,,0,,70,0
19530,note_on,,1,0,13,,,,,,,,,,,,,,,,12,,63,72
19530,note_on,,1,0,5,,,,,,,,,,,,,,,,0,,72,72
19530,note_on,,1,0,14,,,,,,,,,,,,,,,,13,,48,72
19530,note_on,,1,0,12,,,,,,,,,,,,,,,,11,,75,72
19530,note_on,,1,0,9,,,,,,,,,,,,,,,,7,,63,72
19530,note_on,,1,0,11,,,,,,,,,,,,,,,,10,,84,72
19530,note_on,,1,0,7,,,,,,,,,,,,,,,,5,,72,72
19530,note_on,,1,0,10,,,,,,,,,,,,,,,,8,,48,72
19530,note_on,,1,0,6,,,,,,,,,,,,,,,,2,,48,72
19530,note_on,,1,0,15,,,,,,,,,,,,,,,,15,,48,72
19530,note_on,,1,0,8,,,,,,,,,,,,,,,,6,,63,72
19559,note_on,,29,0,6,,,,,,,,,,,,,,,,2,,48,0
19559,note_on,,29,0,13,,,,,,,,,,,,,,,,12,,63,0
19559,note_on,,29,0,10,,,,,,,,,,,,,,,,8,,48,0
19559,note_on,,29,0,14,,,,,,,,,,,,,,,,13,,48,0
19559,note_on,,29,0,15,,,,,,,,,,,,,,,,15,,48,0
19559,note_on,,29,0,8,,,,,,,,,,,,,,,,6,,63,0
19559,note_on,,29,0,9,,,,,,,,,,,,,,,,7,,63,0
19559,note_on,,29,0,11,,,,,,,,,,,,,,,,10,,84,0
19559,note_on,,29,0,7,,,,,,,,,,,,,,,,5,,72,0
19559,note_on,,29,0,5,,,,,,,,,,,,,,,,0,,72,0
19559,note_on,,29,0,12,,,,,,,,,,,,,,,,11,,75,0
19560,note_on,,1,0,9,,,,,,,,,,,,,,,,7,,65,72
19560,note_on,,1,0,10,,,,,,,,,,,,,,,,8,,46,72
19560,note_on,,1,0,7,,,,,,,,,,,,,,,,5,,74,72
19560,note_on,,1,0,12,,,,,,,,,,,,,,,,11,,74,72
19560,note_on,,1,0,15,,,,,,,,,,,,,,,,15,,46,72
19560,note_on,,1,0,13,,,,,,,,,,,,,,,,12,,65,72
19560,note_on,,1,0,14,,,,,,,,,,,,,,,,13,,46,72
19560,note_on,,1,0,11,,,,,,,,,,,,,,,,10,,86,72
19560,note_on,,1,0,8,,,,,,,,,,,,,,,,6,,62,72
19560,note_on,,1,0,5,,,,,,,,,,,,,,,,0,,74,72
19560,note_on,,1,0,6,,,,,,,,,,,,,,,,2,,46,72
19619,note_on,,59,0,8,,,,,,,,,,,,,,,,6,,62,0
19619,note_on,,59,0,7,,,,,,,,,,,,,,,,5,,74,0
19619,note_on,,59,0,15,,,,,,,,,,,,,,,,15,,74,0
19619,note_on,,0,0,15,,,,,,,,,,,,,,,,15,,70,0
19619,note_on,,0,0,15,,,,,,,,,,,,,,,,15,,65,0
19619,note_on,,0,0,15,,,,,,,,,,,,,,,,15,,53,0
19619,note_on,,59,0,11,,,,,,,,,,,,,,,,10,,86,0
19619,note_on,,59,0,13,,,,,,,,,,,,,,,,12,,65,0
19619,note_on,,59,0,14,,,,,,,,,,,,,,,,13,,46,0
19619,note_on,,0,0,15,,,,,,,,,,,,,,,,15,,46,0
19619,note_on,,59,0,9,,,,,,,,,,,,,,,,7,,65,0
19619,note_on,,59,0,5,,,,,,,,,,,,,,,,0,,74,0
19619,note_on,,59,0,12,,,,,,,,,,,,,,,,11,,74,0
19619,note_on,,59,0,6,,,,,,,,,,,,,,,,2,,46,0
19619,note_on,,59,0,10,,,,,,,,,,,,,,,,8,,46,0
19620,note_on,,1,0,14,,,,,,,,,,,,,,,,13,,58,72
19620,note_on,,1,0,11,,,,,,,,,,,,,,,,10,,84,72
19620,note_on,,1,0,6,,,,,,,,,,,,,,,,2,,58,72
19620,note_on,,1,0,8,,,,,,,,,,,,,,,,6,,65,72
19620,note_on,,1,0,7,,,,,,,,,,,,,,,,5,,72,72
19620,note_on,,1,0,9,,,,,,,,,,,,,,,,7,,62,72
19620,note_on,,0,0,15,,,,,,,,,,,,,,,,15,,62,72
19620,note_on,,1,0,10,,,,,,,,,,,,,,,,8,,58,72
19620,note_on,,1,0,15,,,,,,,,,,,,,,,,15,,58,72
19620,note_on,,1,0,5,,,,,,,,,,,,,,,,0,,72,72
19620,note_on,,1,0,12,,,,,,,,,,,,,,,,11,,74,72
19620,note_on,,1,0,13,,,,,,,,,,,,,,,,12,,65,72
19649,note_on,,29,0,5,,,,,,,,,,,,,,,,0,,72,0
19649,note_on,,29,0,11,,,,,,,,,,,,,,,,10,,84,0
19649,note_on,,29,0,7,,,,,,,,,,,,,,,,5,,72,0
19650,note_on,,1,0,7,,,,,,,,,,,,,,,,5,,70,72
19650,note_on,,1,0,11,,,,,,,,,,,,,,,,10,,82,72
19650,note_on,,1,0,5,,,,,,,,,,,,,,,,0,,70,72
19679,note_on,,59,0,6,,,,,,,,,,,,,,,,2,,58,0
19679,note_on,,29,0,5,,,,,,,,,,,,,,,,0,,70,0
19679,note_on,,29,0,7,,,,,,,,,,,,,,,,5,,70,0
19679,note_on,,59,0,9,,,,,,,,,,,,,,,,7,,62,0
19679,note_on,,29,0,11,,,,,,,,,,,,,,,,10,,82,0
19679,note_on,,59,0,12,,,,,,,,,,,,,,,,11,,74,0
19679,note_on,,59,0,15,,,,,,,,,,,,,,,,15,,58,0
19679,note_on,,59,0,10,,,,,,,,,,,,,,,,8,,58,0
19679,note_on,,0,0,15,,,,,,,,,,,,,,,,15,,62,0
19679,note_on,,59,0,14,,,,,,,,,,,,,,,,13,,58,0
19679,note_on,,59,0,13,,,,,,,,,,,,,,,,12,,65,0
19679,note_on,,59,0,8,,,,,,,,,,,,,,,,6,,65,0
19680,note_on,,1,0,7,,,,,,,,,,,,,,,,5,,77,72
19680,note_on,,1,0,12,,,,,,,,,,,,,,,,11,,72,72
19680,note_on,,0,0,15,,,,,,,,,,,,,,,,15,,65,72
19680,note_on,,0,0,15,,,,,,,,,,,,,,,,15,,60,72
19680,note_on,,1,0,8,,,,,,,,,,,,,,,,6,,65,72
19680,note_on,,1,0,10,,,,,,,,,,,,,,,,8,,57,72
19680,note_on,,1,0,6,,,,,,,,,,,,,,,,2,,57,72
19680,note_on,,1,0,13,,,,,,,,,,,,,,,,12,,65,72
19680,note_on,,1,0,11,,,,,,,,,,,,,,,,10,,77,72
19680,note_on,,1,0,9,,,,,,,,,,,,,,,,7,,60,72
19680,note_on,,1,0,15,,,,,,,,,,,,,,,,15,,57,72
19680,note_on,,1,0,14,,,,,,,,,,,,,,,,13,,57,72
19680,note_on,,1,0,5,,,,,,,,,,,,,,,,0,,77,72
19680,note_on,,0,0,15,,,,,,,,,,,,,,,,15,,77,72
19680,note_on,,0,0,15,,,,,,,,,,,,,,,,15,,72,72
19769,note_on,,0,0,15,,,,,,,,,,,,,,,,15,,60,0
19769,note_on,,89,0,6,,,,,,,,,,,,,,,,2,,57,0
19769,note_on,,89,0,10,,,,,,,,,,,,,,,,8,,57,0
19769,note_on,,89,0,9,,,,,,,,,,,,,,,,7,,60,0
19769,note_on,,89,0,14,,,,,,,,,,,,,,,,13,,57,0
19769,note_on,,89,0,12,,,,,,,,,,,,,,,,11,,72,0
19769,note_on,,89,0,15,,,,,,,,,,,,,,,,15,,57,0
19770,note_on,,1,0,15,,,,,,,,,,,,,,,,15,,55,72
19770,note_on,,1,0,9,,,,,,,,,,,,,,,,7,,58,72
19770,note_on,,1,0,6,,,,,,,,,,,,,,,,2,,55,72
19770,note_on,,0,0,15,,,,,,,,,,,,,,,,15,,58,72
19770,note_on,,1,0,10,,,,,,,,,,,,,,,,8,,55,72
19770,note_on,,1,0,14,,,,,,,,,,,,,,,,13,,55,72
19770,note_on,,1,0,12,,,,,,,,,,,,,,,,11,,70,72
19799,note_on,,29,0,6,,,,,,,,,,,,,,,,2,,55,0
19799,note_on,,0,0,15,,,,,,,,,,,,,,,,15,,58,0
19799,note_on,,29,0,15,,,,,,,,,,,,,,,,15,,55,0
19799,note_on,,29,0,10,,,,,,,,,,,,,,,,8,,55,0
19799,note_on,,119,0,8,,,,,,,,,,,,,,,,6,,65,0
19799,note_on,,29,0,9,,,,,,,,,,,,,,,,7,,58,0
19799,note_on,,29,0,14,,,,,,,,,,,,,,,,13,,55,0
19799,note_on,,29,0,12,,,,,,,,,,,,,,,,11,,70,0
19799,note_on,,119,0,13,,,,,,,,,,,,,,,,12,,65,0
19800,note_on,,1,0,6,,,,,,,,,,,,,,,,2,,53,72
19800,note_on,,1,0,8,,,,,,,,,,,,,,,,6,,60,72
19800,note_on,,1,0,15,,,,,,,,,,,,,,,,15,,53,72
19800,note_on,,0,0,15,,,,,,,,,,,,,,,,15,,57,72
19800,note_on,,1,0,10,,,,,,,,,,,,,,,,8,,53,72
19800,note_on,,1,0,9,,,,,,,,,,,,,,,,7,,57,72
19800,note_on,,1,0,14,,,,,,,,,,,,,,,,13,,53,72
19800,note_on,,1,0,12,,,,,,,,,,,,,,,,11,,69,72
19800,note_on,,1,0,13,,,,,,,,,,,,,,,,12,,60,72
19829,note_on,,149,0,7,,,,,,,,,,,,,,,,5,,77,0
19829,note_on,,149,0,5,,,,,,,,,,,,,,,,0,,77,0
19829,note_on,,149,0,11,,,,,,,,,,,,,,,,10,,77,0
19830,note_on,,1,0,7,,,,,,,,,,,,,,,,5,,79,72
19830,note_on,,1,0,11,,,,,,,,,,,,,,,,10,,79,72
19830,note_on,,1,0,5,,,,,,,,,,,,,,,,0,,79,72
19859,note_on,,59,0,10,,,,,,,,,,,,,,,,8,,53,0
19859,note_on,,0,0,15,,,,,,,,,,,,,,,,15,,57,0
19859,note_on,,59,0,9,,,,,,,,,,,,,,,,7,,57,0
19859,note_on,,0,0,15,,,,,,,,,,,,,,,,15,,53,0
19859,note_on,,0,0,15,,,,,,,,,,,,,,,,15,,65,0
19859,note_on,,0,0,15,,,,,,,,,,,,,,,,15,,72,0
19859,note_on,,59,0,15,,,,,,,,,,,,,,,,15,,77,0
19859,note_on,,29,0,5,,,,,,,,,,,,,,,,0,,79,0
19859,note_on,,59,0,14,,,,,,,,,,,,,,,,13,,53,0
19859,note_on,,59,0,8,,,,,,,,,,,,,,,,6,,60,0
19859,note_on,,59,0,6,,,,,,,,,,,,,,,,2,,53,0
19859,note_on,,59,0,13,,,,,,,,,,,,,,,,12,,60,0
19859,note_on,,29,0,7,,,,,,,,,,,,,,,,5,,79,0
19859,note_on,,59,0,12,,,,,,,,,,,,,,,,11,,69,0
19859,note_on,,29,0,11,,,,,,,,,,,,,,,,10,,79,0
19860,note_on,,1,0,8,,,,,,,,,,,,,,,,6,,69,72
19860,note_on,,1,0,6,,,,,,,,,,,,,,,,2,,53,72
19860,note_on,,1,0,5,,,,,,,,,,,,,,,,0,,77,72
19860,note_on,,1,0,15,,,,,,,,,,,,,,,,15,,53,72
19860,note_on,,0,0,15,,,,,,,,,,,,,,,,15,,57,72
19860,note_on,,1,0,11,,,,,,,,,,,,,,,,10,,77,72
19860,note_on,,1,0,12,,,,,,,,,,,,,,,,11,,57,72
19860,note_on,,1,0,13,,,,,,,,,,,,,,,,12,,60,72
19860,note_on,,1,0,14,,,,,,,,,,,,,,,,13,,53,72
19860,note_on,,1,0,7,,,,,,,,,,,,,,,,5,,77,72
19860,note_on,,1,0,10,,,,,,,,,,,,,,,,8,,53,72
19860,note_on,,1,0,9,,,,,,,,,,,,,,,,7,,57,72
19889,note_on,,29,0,11,,,,,,,,,,,,,,,,10,,77,0
19889,note_on,,29,0,5,,,,,,,,,,,,,,,,0,,77,0
19889,note_on,,29,0,7,,,,,,,,,,,,,,,,5,,77,0
19890,note_on,,1,0,7,,,,,,,,,,,,,,,,5,,79,72
19890,note_on,,1,0,11,,,,,,,,,,,,,,,,10,,79,72
19890,note_on,,1,0,5,,,,,,,,,,,,,,,,0,,79,72
19919,note_on,,59,0,10,,,,,,,,,,,,,,,,8,,53,0
19919,note_on,,59,0,9,,,,,,,,,,,,,,,,7,,57,0
19919,note_on,,0,0,15,,,,,,,,,,,,,,,,15,,57,0
19919,note_on,,59,0,12,,,,,,,,,,,,,,,,11,,57,0
19919,note_on,,59,0,8,,,,,,,,,,,,,,,,6,,69,0
19919,note_on,,59,0,14,,,,,,,,,,,,,,,,13,,53,0
19919,note_on,,29,0,11,,,,,,,,,,,,,,,,10,,79,0
19919,note_on,,59,0,15,,,,,,,,,,,,,,,,15,,53,0
19919,note_on,,59,0,6,,,,,,,,,,,,,,,,2,,53,0
19919,note_on,,29,0,7,,,,,,,,,,,,,,,,5,,79,0
19919,note_on,,29,0,5,,,,,,,,,,,,,,,,0,,79,0
19919,note_on,,59,0,13,,,,,,,,,,,,,,,,12,,60,0
19920,note_on,,1,0,6,,,,,,,,,,,,,,,,2,,55,72
19920,note_on,,1,0,7,,,,,,,,,,,,,,,,5,,75,72
19920,note_on,,1,0,9,,,,,,,,,,,,,,,,7,,58,72
19920,note_on,,0,0,15,,,,,,,,,,,,,,,,15,,63,72
19920,note_on,,1,0,13,,,,,,,,,,,,,,,,12,,67,72
19920,note_on,,1,0,11,,,,,,,,,,,,,,,,10,,75,72
19920,note_on,,1,0,8,,,,,,,,,,,,,,,,6,,67,72
19920,note_on,,1,0,15,,,,,,,,,,,,,,,,15,,70,72
19920,note_on,,0,0,15,,,,,,,,,,,,,,,,15,,55,72
19920,note_on,,0,0,15,,,,,,,,,,,,,,,,15,,58,72
19920,note_on,,0,0,15,,,,,,,,,,,,,,,,15,,67,72
19920,note_on,,1,0,14,,,,,,,,,,,,,,,,13,,55,72
19920,note_on,,1,0,5,,,,,,,,,,,,,,,,0,,75,72
19920,note_on,,1,0,12,,,,,,,,,,,,,,,,11,,58,72
19920,note_on,,1,0,10,,,,,,,,,,,,,,,,8,,55,72
19964,note_on,,44,0,10,,,,,,,,,,,,,,,,8,,55,0
19964,note_on,,44,0,5,,,,,,,,,,,,,,,,0,,75,0
19964,note_on,,44,0,11,,,,,,,,,,,,,,,,10,,75,0
19964,note_on,,44,0,7,,,,,,,,,,,,,,,,5,,75,0
19964,note_on,,44,0,9,,,,,,,,,,,,,,,,7,,58,0
19964,note_on,,44,0,12,,,,,,,,,,,,,,,,11,,58,0
19965,note_on,,1,0,12,,,,,,,,,,,,,,,,11,,57,72
19965,note_on,,1,0,10,,,,,,,,,,,,,,,,8,,53,72
19965,note_on,,1,0,11,,,,,,,,,,,,,,,,10,,74,72
19965,note_on,,1,0,7,,,,,,,,,,,,,,,,5,,74,72
19965,note_on,,1,0,9,,,,,,,,,,,,,,,,7,,57,72
19965,note_on,,1,0,5,,,,,,,,,,,,,,,,0,,74,72
19979,note_on,,14,0,9,,,,,,,,,,,,,,,,7,,57,0
19979,note_on,,14,0,12,,,,,,,,,,,,,,,,11,,57,0
19979,note_on,,14,0,5,,,,,,,,,,,,,,,,0,,74,0
19979,note_on,,14,0,11,,,,,,,,,,,,,,,,10,,74,0
19979,note_on,,14,0,7,,,,,,,,,,,,,,,,5,,74,0
19979,note_on,,14,0,10,,,,,,,,,,,,,,,,8,,53,0
19980,note_on,,1,0,10,,,,,,,,,,,,,,,,8,,55,72
19980,note_on,,1,0,11,,,,,,,,,,,,,,,,10,,75,72
19980,note_on,,1,0,5,,,,,,,,,,,,,,,,0,,75,72
19980,note_on,,1,0,9,,,,,,,,,,,,,,,,7,,58,72
19980,note_on,,1,0,12,,,,,,,,,,,,,,,,11,,58,72
19980,note_on,,1,0,7,,,,,,,,,,,,,,,,5,,75,72
20009,note_on,,29,0,11,,,,,,,,,,,,,,,,10,,75,0
20009,note_on,,89,0,14,,,,,,,,,,,,,,,,13,,55,0
20009,note_on,,89,0,6,,,,,,,,,,,,,,,,2,,55,0
20009,note_on,,29,0,9,,,,,,,,,,,,,,,,7,,58,0
20009,note_on,,29,0,5,,,,,,,,,,,,,,,,0,,75,0
20009,note_on,,29,0,12,,,,,,,,,,,,,,,,11,,58,0
20009,note_on,,29,0,7,,,,,,,,,,,,,,,,5,,75,0
20009,note_on,,29,0,10,,,,,,,,,,,,,,,,8,,55,0
20009,note_on,,0,0,15,,,,,,,,,,,,,,,,15,,58,0
20009,note_on,,89,0,15,,,,,,,,,,,,,,,,15,,55,0
20010,note_on,,1,0,12,,,,,,,,,,,,,,,,11,,60,72
20010,note_on,,0,0,15,,,,,,,,,,,,,,,,15,,60,72
20010,note_on,,1,0,15,,,,,,,,,,,,,,,,15,,57,72
20010,note_on,,1,0,7,,,,,,,,,,,,,,,,5,,77,72
20010,note_on,,1,0,5,,,,,,,,,,,,,,,,0,,77,72
20010,note_on,,1,0,6,,,,,,,,,,,,,,,,2,,57,72
20010,note_on,,1,0,14,,,,,,,,,,,,,,,,13,,57,72
20010,note_on,,1,0,9,,,,,,,,,,,,,,,,7,,60,72
20010,note_on,,1,0,11,,,,,,,,,,,,,,,,10,,77,72
20010,note_on,,1,0,10,,,,,,,,,,,,,,,,8,,57,72
20039,note_on,,29,0,14,,,,,,,,,,,,,,,,13,,57,0
20039,note_on,,29,0,12,,,,,,,,,,,,,,,,11,,60,0
20039,note_on,,29,0,11,,,,,,,,,,,,,,,,10,,77,0
20039,note_on,,29,0,7,,,,,,,,,,,,,,,,5,,77,0
20039,note_on,,29,0,15,,,,,,,,,,,,,,,,15,,57,0
20039,note_on,,0,0,15,,,,,,,,,,,,,,,,15,,60,0
20039,note_on,,29,0,9,,,,,,,,,,,,,,,,7,,60,0
20039,note_on,,29,0,5,,,,,,,,,,,,,,,,0,,77,0
20039,note_on,,29,0,10,,,,,,,,,,,,,,,,8,,57,0
20039,note_on,,29,0,6,,,,,,,,,,,,,,,,2,,57,0
20040,note_on,,0,0,15,,,,,,,,,,,,,,,,15,,58,72
20040,note_on,,1,0,15,,,,,,,,,,,,,,,,15,,55,72
20040,note_on,,1,0,12,,,,,,,,,,,,,,,,11,,58,72
20040,note_on,,1,0,14,,,,,,,,,,,,,,,,13,,55,72
20040,note_on,,1,0,10,,,,,,,,,,,,,,,,8,,55,72
20040,note_on,,1,0,5,,,,,,,,,,,,,,,,0,,75,72
20040,note_on,,1,0,11,,,,,,,,,,,,,,,,10,,75,72
20040,note_on,,1,0,6,,,,,,,,,,,,,,,,2,,55,72
20040,note_on,,1,0,9,,,,,,,,,,,,,,,,7,,58,72
20040,note_on,,1,0,7,,,,,,,,,,,,,,,,5,,75,72
20069,note_on,,29,0,11,,,,,,,,,,,,,,,,10,,75,0
20069,note_on,,29,0,12,,,,,,,,,,,,,,,,11,,58,0
20069,note_on,,29,0,10,,,,,,,,,,,,,,,,8,,55,0
20069,note_on,,29,0,5,,,,,,,,,,,,,,,,0,,75,0
20069,note_on,,29,0,9,,,,,,,,,,,,,,,,7,,58,0
20069,note_on,,29,0,7,,,,,,,,,,,,,,,,5,,75,0
20070,note_on,,1,0,5,,,,,,,,,,,,,,,,0,,77,72
20070,note_on,,1,0,11,,,,,,,,,,,,,,,,10,,77,72
20070,note_on,,1,0,9,,,,,,,,,,,,,,,,7,,60,72
20070,note_on,,1,0,12,,,,,,,,,,,,,,,,11,,60,72
20070,note_on,,1,0,10,,,,,,,,,,,,,,,,8,,57,72
20070,note_on,,1,0,7,,,,,,,,,,,,,,,,5,,77,72
20099,note_on,,29,0,9,,,,,,,,,,,,,,,,7,,60,0
20099,note_on,,179,0,8,,,,,,,,,,,,,,,,6,,67,0
20099,note_on,,29,0,10,,,,,,,,,,,,,,,,8,,57,0
20099,note_on,,29,0,12,,,,,,,,,,,,,,,,11,,60,0
20099,note_on,,29,0,7,,,,,,,,,,,,,,,,5,,77,0
20099,note_on,,29,0,5,,,,,,,,,,,,,,,,0,,77,0
20099,note_on,,179,0,13,,,,,,,,,,,,,,,,12,,67,0
20099,note_on,,29,0,11,,,,,,,,,,,,,,,,10,,77,0
20099,note_on,,0,0,15,,,,,,,,,,,,,,,,15,,67,0
20099,note_on,,0,0,15,,,,,,,,,,,,,,,,15,,63,0
20099,note_on,,59,0,15,,,,,,,,,,,,,,,,15,,70,0
20100,note_on,,1,0,9,,,,,,,,,,,,,,,,7,,58,72
20100,note_on,,1,0,8,,,,,,,,,,,,,,,,6,,67,72
20100,note_on,,1,0,12,,,,,,,,,,,,,,,,11,,58,72
20100,note_on,,1,0,5,,,,,,,,,,,,,,,,0,,75,72
20100,note_on,,1,0,10,,,,,,,,,,,,,,,,8,,55,72
20100,note_on,,1,0,7,,,,,,,,,,,,,,,,5,,75,72
20100,note_on,,1,0,11,,,,,,,,,,,,,,,,10,,75,72
20100,note_on,,1,0,13,,,,,,,,,,,,,,,,12,,67,72
20129,note_on,,29,0,9,,,,,,,,,,,,,,,,7,,58,0
20129,note_on,,29,0,10,,,,,,,,,,,,,,,,8,,55,0
20129,note_on,,30,0,15,,,,,,,,,,,,,,,,15,,55,0
20129,note_on,,89,0,6,,,,,,,,,,,,,,,,2,,55,0
20129,note_on,,89,0,14,,,,,,,,,,,,,,,,13,,55,0
20129,note_on,,0,0,15,,,,,,,,,,,,,,,,15,,58,0
20129,note_on,,29,0,5,,,,,,,,,,,,,,,,0,,75,0
20129,note_on,,29,0,7,,,,,,,,,,,,,,,,5,,75,0
20129,note_on,,29,0,11,,,,,,,,,,,,,,,,10,,75,0
20129,note_on,,29,0,12,,,,,,,,,,,,,,,,11,,58,0
20130,note_on,,1,0,9,,,,,,,,,,,,,,,,7,,60,72
20130,note_on,,1,0,11,,,,,,,,,,,,,,,,10,,77,72
20130,note_on,,1,0,12,,,,,,,,,,,,,,,,11,,60,72
20130,note_on,,1,0,5,,,,,,,,,,,,,,,,0,,77,72
20130,note_on,,1,0,14,,,,,,,,,,,,,,,,13,,57,72
20130,note_on,,1,0,10,,,,,,,,,,,,,,,,8,,57,72
20130,note_on,,0,0,15,,,,,,,,,,,,,,,,15,,60,72
20130,note_on,,1,0,6,,,,,,,,,,,,,,,,2,,57,72
20130,note_on,,1,0,7,,,,,,,,,,,,,,,,5,,77,72
20130,note_on,,1,0,15,,,,,,,,,,,,,,,,15,,57,72
20159,note_on,,29,0,15,,,,,,,,,,,,,,,,15,,57,0
20159,note_on,,0,0,15,,,,,,,,,,,,,,,,15,,60,0
20159,note_on,,29,0,10,,,,,,,,,,,,,,,,8,,57,0
20159,note_on,,29,0,5,,,,,,,,,,,,,,,,0,,77,0
20159,note_on,,29,0,7,,,,,,,,,,,,,,,,5,,77,0
20159,note_on,,29,0,9,,,,,,,,,,,,,,,,7,,60,0
20159,note_on,,29,0,6,,,,,,,,,,,,,,,,2,,57,0
20159,note_on,,29,0,12,,,,,,,,,,,,,,,,11,,60,0
20159,note_on,,29,0,14,,,,,,,,,,,,,,,,13,,57,0
20159,note_on,,59,0,8,,,,,,,,,,,,,,,,6,,67,0
20159,note_on,,59,0,13,,,,,,,,,,,,,,,,12,,67,0
20159,note_on,,29,0,11,,,,,,,,,,,,,,,,10,,77,0
20160,note_on,,1,0,11,,,,,,,,,,,,,,,,10,,74,72
20160,note_on,,1,0,6,,,,,,,,,,,,,,,,2,,58,72
20160,note_on,,1,0,14,,,,,,,,,,,,,,,,13,,58,72
20160,note_on,,1,0,9,,,,,,,,,,,,,,,,7,,62,72
20160,note_on,,0,0,15,,,,,,,,,,,,,,,,15,,65,72
20160,note_on,,1,0,10,,,,,,,,,,,,,,,,8,,58,72
20160,note_on,,0,0,15,,,,,,,,,,,,,,,,15,,70,72
20160,note_on,,0,0,15,,,,,,,,,,,,,,,,15,,62,72
20160,note_on,,1,0,15,,,,,,,,,,,,,,,,15,,58,72
20160,note_on,,0,0,15,,,,,,,,,,,,,,,,15,,74,72
20160,note_on,,0,0,15,,,,,,,,,,,,,,,,15,,58,72
20160,note_on,,1,0,5,,,,,,,,,,,,,,,,0,,74,72
20160,note_on,,1,0,8,,,,,,,,,,,,,,,,6,,65,72
20160,note_on,,1,0,7,,,,,,,,,,,,,,,,5,,74,72
20160,note_on,,1,0,12,,,,,,,,,,,,,,,,11,,62,72
20160,note_on,,1,0,13,,,,,,,,,,,,,,,,12,,65,72
20189,note_on,,29,0,5,,,,,,,,,,,,,,,,0,,74,0
20189,note_on,,29,0,12,,,,,,,,,,,,,,,,11,,62,0
20189,note_on,,29,0,13,,,,,,,,,,,,,,,,12,,65,0
20189,note_on,,29,0,11,,,,,,,,,,,,,,,,10,,74,0
20189,note_on,,29,0,7,,,,,,,,,,,,,,,,5,,74,0
20190,note_on,,1,0,11,,,,,,,,,,,,,,,,10,,72,72
20190,note_on,,1,0,13,,,,,,,,,,,,,,,,12,,63,72
20190,note_on,,1,0,7,,,,,,,,,,,,,,,,5,,72,72
20190,note_on,,1,0,5,,,,,,,,,,,,,,,,0,,72,72
20190,note_on,,1,0,12,,,,,,,,,,,,,,,,11,,63,72
20219,note_on,,29,0,11,,,,,,,,,,,,,,,,10,,72,0
20219,note_on,,29,0,13,,,,,,,,,,,,,,,,12,,63,0
20219,note_on,,59,0,10,,,,,,,,,,,,,,,,8,,58,0
20219,note_on,,59,0,8,,,,,,,,,,,,,,,,6,,65,0
20219,note_on,,29,0,5,,,,,,,,,,,,,,,,0,,72,0
20219,note_on,,59,0,6,,,,,,,,,,,,,,,,2,,58,0
20219,note_on,,29,0,12,,,,,,,,,,,,,,,,11,,63,0
20219,note_on,,59,0,15,,,,,,,,,,,,,,,,15,,58,0
20219,note_on,,59,0,14,,,,,,,,,,,,,,,,13,,58,0
20219,note_on,,59,0,9,,,,,,,,,,,,,,,,7,,62,0
20219,note_on,,29,0,7,,,,,,,,,,,,,,,,5,,72,0
20220,note_on,,1,0,14,,,,,,,,,,,,,,,,13,,46,72
20220,note_on,,1,0,11,,,,,,,,,,,,,,,,10,,70,72
20220,note_on,,1,0,5,,,,,,,,,,,,,,,,0,,70,72
20220,note_on,,1,0,12,,,,,,,,,,,,,,,,11,,65,72
20220,note_on,,1,0,8,,,,,,,,,,,,,,,,6,,65,72
20220,note_on,,1,0,15,,,,,,,,,,,,,,,,15,,46,72
20220,note_on,,1,0,10,,,,,,,,,,,,,,,,8,,46,72
20220,note_on,,1,0,9,,,,,,,,,,,,,,,,7,,62,72
20220,note_on,,1,0,6,,,,,,,,,,,,,,,,2,,46,72
20220,note_on,,1,0,13,,,,,,,,,,,,,,,,12,,62,72
20220,note_on,,1,0,7,,,,,,,,,,,,,,,,5,,70,72
20279,note_on,,59,0,11,,,,,,,,,,,,,,,,10,,70,0
20279,note_on,,59,0,10,,,,,,,,,,,,,,,,8,,46,0
20279,note_on,,59,0,6,,,,,,,,,,,,,,,,2,,46,0
20279,note_on,,59,0,14,,,,,,,,,,,,,,,,13,,46,0
20279,note_on,,59,0,5,,,,,,,,,,,,,,,,0,,70,0
20279,note_on,,0,0,15,,,,,,,,,,,,,,,,15,,58,0
20279,note_on,,0,0,15,,,,,,,,,,,,,,,,15,,62,0
20279,note_on,,0,0,15,,,,,,,,,,,,,,,,15,,65,0
20279,note_on,,0,0,15,,,,,,,,,,,,,,,,15,,70,0
20279,note_on,,59,0,15,,,,,,,,,,,,,,,,15,,74,0
20279,note_on,,0,0,15,,,,,,,,,,,,,,,,15,,46,0
20279,note_on,,59,0,12,,,,,,,,,,,,,,,,11,,65,0
20279,note_on,,59,0,13,,,,,,,,,,,,,,,,12,,62,0
20279,note_on,,59,0,9,,,,,,,,,,,,,,,,7,,62,0
20279,note_on,,59,0,7,,,,,,,,,,,,,,,,5,,70,0
20279,note_on,,59,0,8,,,,,,,,,,,,,,,,6,,65,0
20280,note_on,,1,0,7,,,,,,,,,,,,,,,,5,,70,72
20280,note_on,,1,0,5,,,,,,,,,,,,,,,,0,,70,72
20280,note_on,,1,0,11,,,,,,,,,,,,,,,,10,,82,72
20339,note_on,,59,0,5,,,,,,,,,,,,,,,,0,,70,0
20339,note_on,,59,0,7,,,,,,,,,,,,,,,,5,,70,0
20339,note_on,,59,0,11,,,,,,,,,,,,,,,,10,,82,0
20340,note_on,,61,0,15,,,,,,,,,,,,,,,,15,,51,72
20340,note_on,,1,0,11,,,,,,,,,,,,,,,,10,,82,72
20340,note_on,,0,0,15,,,,,,,,,,,,,,,,15,,63,72
20340,note_on,,61,0,14,,,,,,,,,,,,,,,,13,,51,72
20340,note_on,,1,0,5,,,,,,,,,,,,,,,,0,,70,72
20340,note_on,,1,0,7,,,,,,,,,,,,,,,,5,,70,72
20340,note_on,,61,0,9,,,,,,,,,,,,,,,,7,,58,72
20340,note_on,,0,0,15,,,,,,,,,,,,,,,,15,,70,72
20340,note_on,,61,0,12,,,,,,,,,,,,,,,,11,,79,72
20340,note_on,,61,0,13,,,,,,,,,,,,,,,,12,,67,72
20340,note_on,,61,0,10,,,,,,,,,,,,,,,,8,,51,72
20340,note_on,,61,0,6,,,,,,,,,,,,,,,,2,,51,72
20340,note_on,,0,0,15,,,,,,,,,,,,,,,,15,,55,72
20340,note_on,,61,0,8,,,,,,,,,,,,,,,,6,,67,72
20399,note_on,,59,0,12,,,,,,,,,,,,,,,,11,,79,0
20399,note_on,,59,0,5,,,,,,,,,,,,,,,,0,,70,0
20399,note_on,,59,0,6,,,,,,,,,,,,,,,,2,,51,0
20399,note_on,,59,0,8,,,,,,,,,,,,,,,,6,,67,0
20399,note_on,,0,0,15,,,,,,,,,,,,,,,,15,,55,0
20399,note_on,,0,0,15,,,,,,,,,,,,,,,,15,,63,0
20399,note_on,,59,0,7,,,,,,,,,,,,,,,,5,,70,0
20399,note_on,,59,0,13,,,,,,,,,,,,,,,,12,,67,0
20399,note_on,,0,0,15,,,,,,,,,,,,,,,,15,,70,0
20399,note_on,,59,0,15,,,,,,,,,,,,,,,,15,,51,0
20399,note_on,,59,0,11,,,,,,,,,,,,,,,,10,,82,0
20399,note_on,,59,0,10,,,,,,,,,,,,,,,,8,,51,0
20399,note_on,,59,0,9,,,,,,,,,,,,,,,,7,,58,0
20399,note_on,,59,0,14,,,,,,,,,,,,,,,,13,,51,0
20400,note_on,,1,0,8,,,,,,,,,,,,,,,,6,,65,72
20400,note_on,,1,0,12,,,,,,,,,,,,,,,,11,,77,72
20400,note_on,,1,0,7,,,,,,,,,,,,,,,,5,,70,72
20400,note_on,,1,0,14,,,,,,,,,,,,,,,,13,,50,72
20400,note_on,,1,0,11,,,,,,,,,,,,,,,,10,,82,72
20400,note_on,,1,0,9,,,,,,,,,,,,,,,,7,,62,72
20400,note_on,,1,0,10,,,,,,,,,,,,,,,,8,,50,72
20400,note_on,,1,0,15,,,,,,,,,,,,,,,,15,,50,72
20400,note_on,,0,0,15,,,,,,,,,,,,,,,,15,,70,72
20400,note_on,,0,0,15,,,,,,,,,,,,,,,,15,,53,72
20400,note_on,,0,0,15,,,,,,,,,,,,,,,,15,,65,72
20400,note_on,,1,0,6,,,,,,,,,,,,,,,,2,,50,72
20400,note_on,,1,0,5,,,,,,,,,,,,,,,,0,,70,72
20400,note_on,,1,0,13,,,,,,,,,,,,,,,,12,,62,72
20429,note_on,,29,0,8,,,,,,,,,,,,,,,,6,,65,0
20429,note_on,,29,0,9,,,,,,,,,,,,,,,,7,,62,0
20429,note_on,,29,0,12,,,,,,,,,,,,,,,,11,,77,0
20429,note_on,,29,0,10,,,,,,,,,,,,,,,,8,,50,0
20429,note_on,,29,0,13,,,,,,,,,,,,,,,,12,,62,0
20430,note_on,,1,0,13,,,,,,,,,,,,,,,,12,,63,72
20430,note_on,,1,0,12,,,,,,,,,,,,,,,,11,,75,72
20430,note_on,,1,0,10,,,,,,,,,,,,,,,,8,,48,72
20430,note_on,,1,0,9,,,,,,,,,,,,,,,,7,,63,72
20430,note_on,,1,0,8,,,,,,,,,,,,,,,,6,,63,72
20459,note_on,,29,0,8,,,,,,,,,,,,,,,,6,,63,0
20459,note_on,,29,0,9,,,,,,,,,,,,,,,,7,,63,0
20459,note_on,,29,0,12,,,,,,,,,,,,,,,,11,,75,0
20459,note_on,,29,0,10,,,,,,,,,,,,,,,,8,,48,0
20459,note_on,,0,0,15,,,,,,,,,,,,,,,,15,,65,0
20459,note_on,,59,0,15,,,,,,,,,,,,,,,,15,,50,0
20459,note_on,,59,0,6,,,,,,,,,,,,,,,,2,,50,0
20459,note_on,,29,0,13,,,,,,,,,,,,,,,,12,,63,0
20459,note_on,,59,0,14,,,,,,,,,,,,,,,,13,,50,0
20460,note_on,,0,0,15,,,,,,,,,,,,,,,,15,,62,72
20460,note_on,,1,0,6,,,,,,,,,,,,,,,,2,,46,72
20460,note_on,,1,0,15,,,,,,,,,,,,,,,,15,,46,72
20460,note_on,,1,0,9,,,,,,,,,,,,,,,,7,,65,72
20460,note_on,,1,0,10,,,,,,,,,,,,,,,,8,,46,72
20460,note_on,,1,0,12,,,,,,,,,,,,,,,,11,,74,72
20460,note_on,,1,0,8,,,,,,,,,,,,,,,,6,,62,72
20460,note_on,,1,0,13,,,,,,,,,,,,,,,,12,,65,72
20460,note_on,,1,0,14,,,,,,,,,,,,,,,,13,,46,72
20519,note_on,,0,0,15,,,,,,,,,,,,,,,,15,,62,0
20519,note_on,,119,0,7,,,,,,,,,,,,,,,,5,,70,0
20519,note_on,,119,0,5,,,,,,,,,,,,,,,,0,,70,0
20519,note_on,,59,0,14,,,,,,,,,,,,,,,,13,,46,0
20519,note_on,,59,0,15,,,,,,,,,,,,,,,,15,,46,0
20519,note_on,,119,0,11,,,,,,,,,,,,,,,,10,,82,0
20519,note_on,,59,0,6,,,,,,,,,,,,,,,,2,,46,0
20520,note_on,,0,0,15,,,,,,,,,,,,,,,,15,,62,72
20520,note_on,,1,0,11,,,,,,,,,,,,,,,,10,,82,72
20520,note_on,,1,0,15,,,,,,,,,,,,,,,,15,,46,72
20520,note_on,,1,0,7,,,,,,,,,,,,,,,,5,,70,72
20520,note_on,,1,0,14,,,,,,,,,,,,,,,,13,,46,72
20520,note_on,,1,0,5,,,,,,,,,,,,,,,,0,,70,72
20520,note_on,,1,0,6,,,,,,,,,,,,,,,,2,,46,72
20579,note_on,,59,0,11,,,,,,,,,,,,,,,,10,,82,0
20579,note_on,,59,0,7,,,,,,,,,,,,,,,,5,,70,0
20579,note_on,,59,0,5,,,,,,,,,,,,,,,,0,,70,0
20579,note_on,,119,0,8,,,,,,,,,,,,,,,,6,,62,0
20579,note_on,,59,0,15,,,,,,,,,,,,,,,,15,,70,0
20579,note_on,,0,0,15,,,,,,,,,,,,,,,,15,,53,0
20579,note_on,,0,0,15,,,,,,,,,,,,,,,,15,,46,0
20579,note_on,,119,0,10,,,,,,,,,,,,,,,,8,,46,0
20579,note_on,,119,0,9,,,,,,,,,,,,,,,,7,,65,0
20579,note_on,,0,0,15,,,,,,,,,,,,,,,,15,,62,0
20579,note_on,,59,0,6,,,,,,,,,,,,,,,,2,,46,0
20579,note_on,,119,0,13,,,,,,,,,,,,,,,,12,,65,0
20579,note_on,,59,0,14,,,,,,,,,,,,,,,,13,,46,0
20579,note_on,,119,0,12,,,,,,,,,,,,,,,,11,,74,0
20580,note_on,,1,0,5,,,,,,,,,,,,,,,,0,,70,72
20580,note_on,,1,0,15,,,,,,,,,,,,,,,,15,,51,72
20580,note_on,,1,0,13,,,,,,,,,,,,,,,,12,,63,72
20580,note_on,,0,0,15,,,,,,,,,,,,,,,,15,,63,72
20580,note_on,,1,0,12,,,,,,,,,,,,,,,,11,,79,72
20580,note_on,,1,0,9,,,,,,,,,,,,,,,,7,,63,72
20580,note_on,,0,0,15,,,,,,,,,,,,,,,,15,,70,72
20580,note_on,,1,0,6,,,,,,,,,,,,,,,,2,,51,72
20580,note_on,,1,0,7,,,,,,,,,,,,,,,,5,,70,72
20580,note_on,,1,0,14,,,,,,,,,,,,,,,,13,,51,72
20580,note_on,,0,0,15,,,,,,,,,,,,,,,,15,,55,72
20580,note_on,,1,0,8,,,,,,,,,,,,,,,,6,,67,72
20580,note_on,,1,0,11,,,,,,,,,,,,,,,,10,,82,72
20580,note_on,,1,0,10,,,,,,,,,,,,,,,,8,,51,72
20639,note_on,,59,0,11,,,,,,,,,,,,,,,,10,,82,0
20639,note_on,,59,0,15,,,,,,,,,,,,,,,,15,,51,0
20639,note_on,,0,0,15,,,,,,,,,,,,,,,,15,,63,0
20639,note_on,,59,0,10,,,,,,,,,,,,,,,,8,,51,0
20639,note_on,,59,0,5,,,,,,,,,,,,,,,,0,,70,0
20639,note_on,,0,0,15,,,,,,,,,,,,,,,,15,,70,0
20639,note_on,,0,0,15,,,,,,,,,,,,,,,,15,,55,0
20639,note_on,,59,0,7,,,,,,,,,,,,,,,,5,,70,0
20639,note_on,,59,0,12,,,,,,,,,,,,,,,,11,,79,0
20639,note_on,,59,0,14,,,,,,,,,,,,,,,,13,,51,0
20639,note_on,,59,0,6,,,,,,,,,,,,,,,,2,,51,0
20639,note_on,,59,0,9,,,,,,,,,,,,,,,,7,,63,0
20639,note_on,,59,0,13,,,,,,,,,,,,,,,,12,,63,0
20639,note_on,,59,0,8,,,,,,,,,,,,,,,,6,,67,0
20640,note_on,,0,0,15,,,,,,,,,,,,,,,,15,,70,72
20640,note_on,,1,0,15,,,,,,,,,,,,,,,,15,,58,72
20640,note_on,,1,0,8,,,,,,,,,,,,,,,,6,,65,72
20640,note_on,,1,0,10,,,,,,,,,,,,,,,,8,,58,72
20640,note_on,,1,0,9,,,,,,,,,,,,,,,,7,,62,72
20640,note_on,,0,0,15,,,,,,,,,,,,,,,,15,,65,72
20640,note_on,,1,0,12,,,,,,,,,,,,,,,,11,,77,72
20640,note_on,,1,0,13,,,,,,,,,,,,,,,,12,,62,72
20640,note_on,,1,0,6,,,,,,,,,,,,,,,,2,,58,72
20640,note_on,,1,0,7,,,,,,,,,,,,,,,,5,,70,72
20640,note_on,,1,0,5,,,,,,,,,,,,,,,,0,,70,72
20640,note_on,,1,0,14,,,,,,,,,,,,,,,,13,,58,72
20640,note_on,,0,0,15,,,,,,,,,,,,,,,,15,,58,72
20640,note_on,,1,0,11,,,,,,,,,,,,,,,,10,,82,72
20669,note_on,,29,0,10,,,,,,,,,,,,,,,,8,,58,0
20669,note_on,,29,0,9,,,,,,,,,,,,,,,,7,,62,0
20669,note_on,,29,0,12,,,,,,,,,,,,,,,,11,,77,0
20669,note_on,,29,0,8,,,,,,,,,,,,,,,,6,,65,0
20669,note_on,,29,0,13,,,,,,,,,,,,,,,,12,,62,0
20670,note_on,,1,0,9,,,,,,,,,,,,,,,,7,,63,72
20670,note_on,,1,0,8,,,,,,,,,,,,,,,,6,,63,72
20670,note_on,,1,0,13,,,,,,,,,,,,,,,,12,,63,72
20670,note_on,,1,0,10,,,,,,,,,,,,,,,,8,,60,72
20670,note_on,,1,0,12,,,,,,,,,,,,,,,,11,,75,72
20699,note_on,,29,0,9,,,,,,,,,,,,,,,,7,,63,0
20699,note_on,,29,0,13,,,,,,,,,,,,,,,,12,,63,0
20699,note_on,,59,0,6,,,,,,,,,,,,,,,,2,,58,0
20699,note_on,,59,0,14,,,,,,,,,,,,,,,,13,,58,0
20699,note_on,,59,0,15,,,,,,,,,,,,,,,,15,,58,0
20699,note_on,,0,0,15,,,,,,,,,,,,,,,,15,,65,0
20699,note_on,,29,0,10,,,,,,,,,,,,,,,,8,,60,0
20699,note_on,,29,0,8,,,,,,,,,,,,,,,,6,,63,0
20699,note_on,,29,0,12,,,,,,,,,,,,,,,,11,,75,0
20700,note_on,,0,0,15,,,,,,,,,,,,,,,,15,,65,72
20700,note_on,,1,0,15,,,,,,,,,,,,,,,,15,,62,72
20700,note_on,,1,0,13,,,,,,,,,,,,,,,,12,,65,72
20700,note_on,,1,0,14,,,,,,,,,,,,,,,,13,,62,72
20700,note_on,,1,0,12,,,,,,,,,,,,,,,,11,,74,72
20700,note_on,,1,0,9,,,,,,,,,,,,,,,,7,,65,72
20700,note_on,,1,0,10,,,,,,,,,,,,,,,,8,,62,72
20700,note_on,,1,0,8,,,,,,,,,,,,,,,,6,,62,72
20700,note_on,,1,0,6,,,,,,,,,,,,,,,,2,,62,72
20759,note_on,,0,0,15,,,,,,,,,,,,,,,,15,,65,0
20759,note_on,,59,0,15,,,,,,,,,,,,,,,,15,,62,0
20759,note_on,,59,0,14,,,,,,,,,,,,,,,,13,,62,0
20759,note_on,,59,0,12,,,,,,,,,,,,,,,,11,,74,0
20759,note_on,,59,0,6,,,,,,,,,,,,,,,,2,,62,0
20760,note_on,,1,0,12,,,,,,,,,,,,,,,,11,,77,72
20760,note_on,,1,0,14,,,,,,,,,,,,,,,,13,,62,72
20760,note_on,,1,0,6,,,,,,,,,,,,,,,,2,,62,72
20760,note_on,,1,0,15,,,,,,,,,,,,,,,,15,,62,72
20760,note_on,,0,0,15,,,,,,,,,,,,,,,,15,,65,72
20819,note_on,,59,0,12,,,,,,,,,,,,,,,,11,,77,0
20819,note_on,,119,0,8,,,,,,,,,,,,,,,,6,,62,0
20819,note_on,,179,0,11,,,,,,,,,,,,,,,,10,,82,0
20819,note_on,,59,0,14,,,,,,,,,,,,,,,,13,,62,0
20819,note_on,,59,0,15,,,,,,,,,,,,,,,,15,,70,0
20819,note_on,,0,0,15,,,,,,,,,,,,,,,,15,,58,0
20819,note_on,,0,0,15,,,,,,,,,,,,,,,,15,,62,0
20819,note_on,,119,0,10,,,,,,,,,,,,,,,,8,,62,0
20819,note_on,,119,0,13,,,,,,,,,,,,,,,,12,,65,0
20819,note_on,,0,0,15,,,,,,,,,,,,,,,,15,,65,0
20819,note_on,,119,0,9,,,,,,,,,,,,,,,,7,,65,0
20819,note_on,,179,0,5,,,,,,,,,,,,,,,,0,,70,0
20819,note_on,,59,0,6,,,,,,,,,,,,,,,,2,,62,0
20819,note_on,,179,0,7,,,,,,,,,,,,,,,,5,,70,0
20820,note_on,,1,0,13,,,,,,,,,,,,,,,,12,,65,72
20820,note_on,,1,0,9,,,,,,,,,,,,,,,,7,,62,72
20820,note_on,,1,0,8,,,,,,,,,,,,,,,,6,,65,72
20820,note_on,,1,0,5,,,,,,,,,,,,,,,,0,,77,72
20820,note_on,,1,0,10,,,,,,,,,,,,,,,,8,,58,72
20820,note_on,,0,0,15,,,,,,,,,,,,,,,,15,,65,72
20820,note_on,,0,0,15,,,,,,,,,,,,,,,,15,,70,72
20820,note_on,,1,0,7,,,,,,,,,,,,,,,,5,,77,72
20820,note_on,,1,0,12,,,,,,,,,,,,,,,,11,,77,72
20820,note_on,,1,0,6,,,,,,,,,,,,,,,,2,,58,72
20820,note_on,,1,0,15,,,,,,,,,,,,,,,,15,,58,72
20820,note_on,,0,0,15,,,,,,,,,,,,,,,,15,,62,72
20820,note_on,,1,0,14,,,,,,,,,,,,,,,,13,,58,72
20820,note_on,,1,0,11,,,,,,,,,,,,,,,,10,,86,72
20879,note_on,,59,0,6,,,,,,,,,,,,,,,,2,,58,0
20879,note_on,,0,0,15,,,,,,,,,,,,,,,,15,,62,0
20879,note_on,,0,0,15,,,,,,,,,,,,,,,,15,,65,0
20879,note_on,,0,0,15,,,,,,,,,,,,,,,,15,,70,0
20879,note_on,,59,0,15,,,,,,,,,,,,,,,,15,,58,0
20879,note_on,,59,0,5,,,,,,,,,,,,,,,,0,,77,0
20879,note_on,,59,0,10,,,,,,,,,,,,,,,,8,,58,0
20879,note_on,,59,0,9,,,,,,,,,,,,,,,,7,,62,0
20879,note_on,,59,0,13,,,,,,,,,,,,,,,,12,,65,0
20879,note_on,,59,0,8,,,,,,,,,,,,,,,,6,,65,0
20879,note_on,,59,0,14,,,,,,,,,,,,,,,,13,,58,0
20879,note_on,,59,0,11,,,,,,,,,,,,,,,,10,,86,0
20879,note_on,,59,0,7,,,,,,,,,,,,,,,,5,,77,0
20879,note_on,,59,0,12,,,,,,,,,,,,,,,,11,,77,0
20880,note_on,,1,0,12,,,,,,,,,,,,,,,,11,,77,72
20880,note_on,,1,0,11,,,,,,,,,,,,,,,,10,,84,72
20880,note_on,,1,0,6,,,,,,,,,,,,,,,,2,,57,72
20880,note_on,,1,0,13,,,,,,,,,,,,,,,,12,,69,72
20880,note_on,,1,0,7,,,,,,,,,,,,,,,,5,,77,72
20880,note_on,,0,0,15,,,,,,,,,,,,,,,,15,,69,72
20880,note_on,,0,0,15,,,,,,,,,,,,,,,,15,,72,72
20880,note_on,,0,0,15,,,,,,,,,,,,,,,,15,,60,72
20880,note_on,,1,0,5,,,,,,,,,,,,,,,,0,,77,72
20880,note_on,,1,0,10,,,,,,,,,,,,,,,,8,,57,72
20880,note_on,,1,0,8,,,,,,,,,,,,,,,,6,,65,72
20880,note_on,,1,0,14,,,,,,,,,,,,,,,,13,,57,72
20880,note_on,,0,0,15,,,,,,,,,,,,,,,,15,,65,72
20880,note_on,,1,0,9,,,,,,,,,,,,,,,,7,,57,72
20880,note_on,,1,0,15,,,,,,,,,,,,,,,,15,,57,72
20909,note_on,,29,0,8,,,,,,,,,,,,,,,,6,,65,0
20909,note_on,,29,0,10,,,,,,,,,,,,,,,,8,,57,0
20909,note_on,,29,0,13,,,,,,,,,,,,,,,,12,,69,0
20909,note_on,,29,0,9,,,,,,,,,,,,,,,,7,,57,0
20909,note_on,,29,0,11,,,,,,,,,,,,,,,,10,,84,0
20910,note_on,,1,0,9,,,,,,,,,,,,,,,,7,,58,72
20910,note_on,,1,0,8,,,,,,,,,,,,,,,,6,,67,72
20910,note_on,,1,0,10,,,,,,,,,,,,,,,,8,,55,72
20910,note_on,,1,0,11,,,,,,,,,,,,,,,,10,,82,72
20910,note_on,,1,0,13,,,,,,,,,,,,,,,,12,,70,72
20939,note_on,,29,0,13,,,,,,,,,,,,,,,,12,,70,0
20939,note_on,,0,0,15,,,,,,,,,,,,,,,,15,,65,0
20939,note_on,,0,0,15,,,,,,,,,,,,,,,,15,,60,0
20939,note_on,,0,0,15,,,,,,,,,,,,,,,,15,,72,0
20939,note_on,,0,0,15,,,,,,,,,,,,,,,,15,,69,0
20939,note_on,,29,0,9,,,,,,,,,,,,,,,,7,,58,0
20939,note_on,,29,0,11,,,,,,,,,,,,,,,,10,,82,0
20939,note_on,,59,0,6,,,,,,,,,,,,,,,,2,,57,0
20939,note_on,,29,0,8,,,,,,,,,,,,,,,,6,,67,0
20939,note_on,,59,0,14,,,,,,,,,,,,,,,,13,,57,0
20939,note_on,,29,0,10,,,,,,,,,,,,,,,,8,,55,0
20939,note_on,,59,0,15,,,,,,,,,,,,,,,,15,,57,0
20940,note_on,,0,0,15,,,,,,,,,,,,,,,,15,,77,72
20940,note_on,,0,0,15,,,,,,,,,,,,,,,,15,,72,72
20940,note_on,,1,0,14,,,,,,,,,,,,,,,,13,,53,72
20940,note_on,,1,0,11,,,,,,,,,,,,,,,,10,,81,72
20940,note_on,,1,0,15,,,,,,,,,,,,,,,,15,,53,72
20940,note_on,,1,0,6,,,,,,,,,,,,,,,,2,,53,72
20940,note_on,,1,0,13,,,,,,,,,,,,,,,,12,,72,72
20940,note_on,,1,0,8,,,,,,,,,,,,,,,,6,,69,72
20940,note_on,,1,0,9,,,,,,,,,,,,,,,,7,,60,72
20940,note_on,,0,0,15,,,,,,,,,,,,,,,,15,,69,72
20940,note_on,,1,0,10,,,,,,,,,,,,,,,,8,,53,72
20940,note_on,,0,0,15,,,,,,,,,,,,,,,,15,,57,72
20999,note_on,,59,0,6,,,,,,,,,,,,,,,,2,,53,0
20999,note_on,,0,0,15,,,,,,,,,,,,,,,,15,,69,0
20999,note_on,,0,0,15,,,,,,,,,,,,,,,,15,,72,0
20999,note_on,,59,0,15,,,,,,,,,,,,,,,,15,,53,0
20999,note_on,,59,0,14,,,,,,,,,,,,,,,,13,,53,0
20999,note_on,,0,0,15,,,,,,,,,,,,,,,,15,,77,0
20999,note_on,,0,0,15,,,,,,,,,,,,,,,,15,,57,0
21000,note_on,,1,0,6,,,,,,,,,,,,,,,,2,,53,72
21000,note_on,,0,0,15,,,,,,,,,,,,,,,,15,,72,72
21000,note_on,,1,0,15,,,,,,,,,,,,,,,,15,,53,72
21000,note_on,,0,0,15,,,,,,,,,,,,,,,,15,,57,72
21000,note_on,,1,0,14,,,,,,,,,,,,,,,,13,,53,72
21000,note_on,,0,0,15,,,,,,,,,,,,,,,,15,,77,72
21000,note_on,,0,0,15,,,,,,,,,,,,,,,,15,,69,72
21059,note_on,,0,0,15,,,,,,,,,,,,,,,,15,,77,0
21059,note_on,,119,0,9,,,,,,,,,,,,,,,,7,,60,0
21059,note_on,,59,0,6,,,,,,,,,,,,,,,,2,,53,0
21059,note_on,,119,0,13,,,,,,,,,,,,,,,,12,,72,0
21059,note_on,,119,0,10,,,,,,,,,,,,,,,,8,,53,0
21059,note_on,,119,0,11,,,,,,,,,,,,,,,,10,,81,0
21059,note_on,,179,0,7,,,,,,,,,,,,,,,,5,,77,0
21059,note_on,,59,0,15,,,,,,,,,,,,,,,,15,,53,0
21059,note_on,,0,0,15,,,,,,,,,,,,,,,,15,,57,0
21059,note_on,,59,0,14,,,,,,,,,,,,,,,,13,,53,0
21059,note_on,,119,0,8,,,,,,,,,,,,,,,,6,,69,0
21059,note_on,,179,0,5,,,,,,,,,,,,,,,,0,,77,0
21059,note_on,,0,0,15,,,,,,,,,,,,,,,,15,,69,0
21059,note_on,,0,0,15,,,,,,,,,,,,,,,,15,,72,0
21059,note_on,,179,0,12,,,,,,,,,,,,,,,,11,,77,0
21060,note_on,,1,0,9,,,,,,,,,,,,,,,,7,,62,72
21060,note_on,,1,0,10,,,,,,,,,,,,,,,,8,,58,72
21060,note_on,,1,0,8,,,,,,,,,,,,,,,,6,,70,72
21060,note_on,,1,0,5,,,,,,,,,,,,,,,,0,,77,72
21060,note_on,,1,0,12,,,,,,,,,,,,,,,,11,,77,72
21060,note_on,,1,0,13,,,,,,,,,,,,,,,,12,,70,72
21060,note_on,,1,0,11,,,,,,,,,,,,,,,,10,,86,72
21060,note_on,,1,0,6,,,,,,,,,,,,,,,,2,,58,72
21060,note_on,,1,0,7,,,,,,,,,,,,,,,,5,,77,72
21060,note_on,,1,0,14,,,,,,,,,,,,,,,,13,,58,72
21060,note_on,,0,0,15,,,,,,,,,,,,,,,,15,,65,72
21060,note_on,,0,0,15,,,,,,,,,,,,,,,,15,,70,72
21060,note_on,,0,0,15,,,,,,,,,,,,,,,,15,,74,72
21060,note_on,,1,0,15,,,,,,,,,,,,,,,,15,,58,72
21119,note_on,,59,0,11,,,,,,,,,,,,,,,,10,,86,0
21119,note_on,,59,0,7,,,,,,,,,,,,,,,,5,,77,0
21119,note_on,,59,0,10,,,,,,,,,,,,,,,,8,,58,0
21119,note_on,,59,0,12,,,,,,,,,,,,,,,,11,,77,0
21119,note_on,,59,0,9,,,,,,,,,,,,,,,,7,,62,0
21119,note_on,,59,0,6,,,,,,,,,,,,,,,,2,,58,0
21119,note_on,,0,0,15,,,,,,,,,,,,,,,,15,,74,0
21119,note_on,,59,0,5,,,,,,,,,,,,,,,,0,,77,0
21119,note_on,,59,0,8,,,,,,,,,,,,,,,,6,,70,0
21119,note_on,,59,0,14,,,,,,,,,,,,,,,,13,,58,0
21119,note_on,,59,0,13,,,,,,,,,,,,,,,,12,,70,0
21119,note_on,,0,0,15,,,,,,,,,,,,,,,,15,,65,0
21119,note_on,,0,0,15,,,,,,,,,,,,,,,,15,,70,0
21119,note_on,,59,0,15,,,,,,,,,,,,,,,,15,,58,0
21120,note_on,,1,0,7,,,,,,,,,,,,,,,,5,,77,72
21120,note_on,,1,0,14,,,,,,,,,,,,,,,,13,,57,72
21120,note_on,,1,0,13,,,,,,,,,,,,,,,,12,,65,72
21120,note_on,,1,0,6,,,,,,,,,,,,,,,,2,,57,72
21120,note_on,,1,0,5,,,,,,,,,,,,,,,,0,,77,72
21120,note_on,,1,0,12,,,,,,,,,,,,,,,,11,,77,72
21120,note_on,,1,0,9,,,,,,,,,,,,,,,,7,,57,72
21120,note_on,,1,0,15,,,,,,,,,,,,,,,,15,,57,72
21120,note_on,,0,0,15,,,,,,,,,,,,,,,,15,,72,72
21120,note_on,,0,0,15,,,,,,,,,,,,,,,,15,,60,72
21120,note_on,,1,0,10,,,,,,,,,,,,,,,,8,,57,72
21120,note_on,,1,0,8,,,,,,,,,,,,,,,,6,,65,72
21120,note_on,,1,0,11,,,,,,,,,,,,,,,,10,,84,72
21120,note_on,,0,0,15,,,,,,,,,,,,,,,,15,,65,72
21149,note_on,,29,0,11,,,,,,,,,,,,,,,,10,,84,0
21149,note_on,,29,0,13,,,,,,,,,,,,,,,,12,,65,0
21149,note_on,,29,0,9,,,,,,,,,,,,,,,,7,,57,0
21149,note_on,,29,0,10,,,,,,,,,,,,,,,,8,,57,0
21149,note_on,,29,0,8,,,,,,,,,,,,,,,,6,,65,0
21150,note_on,,1,0,10,,,,,,,,,,,,,,,,8,,55,72
21150,note_on,,1,0,8,,,,,,,,,,,,,,,,6,,67,72
21150,note_on,,1,0,13,,,,,,,,,,,,,,,,12,,67,72
21150,note_on,,1,0,9,,,,,,,,,,,,,,,,7,,58,72
21150,note_on,,1,0,11,,,,,,,,,,,,,,,,10,,82,72
21179,note_on,,59,0,5,,,,,,,,,,,,,,,,0,,77,0
21179,note_on,,29,0,9,,,,,,,,,,,,,,,,7,,58,0
21179,note_on,,59,0,12,,,,,,,,,,,,,,,,11,,77,0
21179,note_on,,29,0,13,,,,,,,,,,,,,,,,12,,67,0
21179,note_on,,0,0,15,,,,,,,,,,,,,,,,15,,65,0
21179,note_on,,59,0,14,,,,,,,,,,,,,,,,13,,57,0
21179,note_on,,29,0,11,,,,,,,,,,,,,,,,10,,82,0
21179,note_on,,0,0,15,,,,,,,,,,,,,,,,15,,60,0
21179,note_on,,29,0,8,,,,,,,,,,,,,,,,6,,67,0
21179,note_on,,59,0,7,,,,,,,,,,,,,,,,5,,77,0
21179,note_on,,29,0,10,,,,,,,,,,,,,,,,8,,55,0
21179,note_on,,59,0,6,,,,,,,,,,,,,,,,2,,57,0
21179,note_on,,0,0,15,,,,,,,,,,,,,,,,15,,72,0
21179,note_on,,59,0,15,,,,,,,,,,,,,,,,15,,57,0
21180,note_on,,1,0,5,,,,,,,,,,,,,,,,0,,77,72
21180,note_on,,1,0,9,,,,,,,,,,,,,,,,7,,60,72
21180,note_on,,0,0,15,,,,,,,,,,,,,,,,15,,69,72
21180,note_on,,0,0,15,,,,,,,,,,,,,,,,15,,65,72
21180,note_on,,1,0,7,,,,,,,,,,,,,,,,5,,77,72
21180,note_on,,1,0,10,,,,,,,,,,,,,,,,8,,53,72
21180,note_on,,1,0,8,,,,,,,,,,,,,,,,6,,69,72
21180,note_on,,0,0,15,,,,,,,,,,,,,,,,15,,60,72
21180,note_on,,1,0,6,,,,,,,,,,,,,,,,2,,53,72
21180,note_on,,1,0,14,,,,,,,,,,,,,,,,13,,53,72
21180,note_on,,1,0,13,,,,,,,,,,,,,,,,12,,69,72
21180,note_on,,1,0,11,,,,,,,,,,,,,,,,10,,81,72
21180,note_on,,1,0,12,,,,,,,,,,,,,,,,11,,77,72
21180,note_on,,1,0,15,,,,,,,,,,,,,,,,15,,53,72
21239,note_on,,59,0,8,,,,,,,,,,,,,,,,6,,69,0
21239,note_on,,59,0,11,,,,,,,,,,,,,,,,10,,81,0
21239,note_on,,59,0,10,,,,,,,,,,,,,,,,8,,53,0
21239,note_on,,59,0,9,,,,,,,,,,,,,,,,7,,60,0
21239,note_on,,59,0,14,,,,,,,,,,,,,,,,13,,53,0
21239,note_on,,59,0,13,,,,,,,,,,,,,,,,12,,69,0
21239,note_on,,59,0,15,,,,,,,,,,,,,,,,15,,53,0
21239,note_on,,0,0,15,,,,,,,,,,,,,,,,15,,69,0
21239,note_on,,0,0,15,,,,,,,,,,,,,,,,15,,65,0
21239,note_on,,0,0,15,,,,,,,,,,,,,,,,15,,60,0
21239,note_on,,59,0,6,,,,,,,,,,,,,,,,2,,53,0
21299,note_on,,119,0,5,,,,,,,,,,,,,,,,0,,77,0
21299,note_on,,119,0,12,,,,,,,,,,,,,,,,11,,77,0
21299,note_on,,119,0,7,,,,,,,,,,,,,,,,5,,77,0
21300,note_on,,61,0,8,,,,,,,,,,,,,,,,6,,70,72
21300,note_on,,61,0,15,,,,,,,,,,,,,,,,15,,62,72
21300,note_on,,1,0,7,,,,,,,,,,,,,,,,5,,77,72
21300,note_on,,0,0,15,,,,,,,,,,,,,,,,15,,74,72
21300,note_on,,1,0,5,,,,,,,,,,,,,,,,0,,77,72
21300,note_on,,0,0,15,,,,,,,,,,,,,,,,15,,65,72
21300,note_on,,1,0,12,,,,,,,,,,,,,,,,11,,77,72
21300,note_on,,61,0,11,,,,,,,,,,,,,,,,10,,77,72
21300,note_on,,0,0,15,,,,,,,,,,,,,,,,15,,70,72
21300,note_on,,61,0,6,,,,,,,,,,,,,,,,2,,62,72
21300,note_on,,61,0,10,,,,,,,,,,,,,,,,8,,62,72
21300,note_on,,61,0,9,,,,,,,,,,,,,,,,7,,65,72
21300,note_on,,61,0,14,,,,,,,,,,,,,,,,13,,62,72
21300,note_on,,61,0,13,,,,,,,,,,,,,,,,12,,70,72
21359,note_on,,0,0,15,,,,,,,,,,,,,,,,15,,74,0
21359,note_on,,0,0,15,,,,,,,,,,,,,,,,15,,70,0
21359,note_on,,0,0,15,,,,,,,,,,,,,,,,15,,65,0
21359,note_on,,59,0,7,,,,,,,,,,,,,,,,5,,77,0
21359,note_on,,59,0,12,,,,,,,,,,,,,,,,11,,77,0
21359,note_on,,59,0,11,,,,,,,,,,,,,,,,10,,77,0
21359,note_on,,59,0,15,,,,,,,,,,,,,,,,15,,62,0
21359,note_on,,59,0,13,,,,,,,,,,,,,,,,12,,70,0
21359,note_on,,59,0,9,,,,,,,,,,,,,,,,7,,65,0
21359,note_on,,59,0,8,,,,,,,,,,,,,,,,6,,70,0
21359,note_on,,59,0,5,,,,,,,,,,,,,,,,0,,77,0
21359,note_on,,59,0,6,,,,,,,,,,,,,,,,2,,62,0
21359,note_on,,59,0,14,,,,,,,,,,,,,,,,13,,62,0
21359,note_on,,59,0,10,,,,,,,,,,,,,,,,8,,62,0
21360,note_on,,1,0,9,,,,,,,,,,,,,,,,7,,63,72
21360,note_on,,1,0,10,,,,,,,,,,,,,,,,8,,60,72
21360,note_on,,1,0,12,,,,,,,,,,,,,,,,11,,75,72
21360,note_on,,1,0,15,,,,,,,,,,,,,,,,15,,60,72
21360,note_on,,1,0,8,,,,,,,,,,,,,,,,6,,63,72
21360,note_on,,0,0,15,,,,,,,,,,,,,,,,15,,75,72
21360,note_on,,0,0,15,,,,,,,,,,,,,,,,15,,72,72
21360,note_on,,1,0,7,,,,,,,,,,,,,,,,5,,79,72
21360,note_on,,0,0,15,,,,,,,,,,,,,,,,15,,67,72
21360,note_on,,0,0,15,,,,,,,,,,,,,,,,15,,63,72
21360,note_on,,1,0,5,,,,,,,,,,,,,,,,0,,79,72
21360,note_on,,1,0,13,,,,,,,,,,,,,,,,12,,63,72
21360,note_on,,1,0,14,,,,,,,,,,,,,,,,13,,60,72
21360,note_on,,1,0,6,,,,,,,,,,,,,,,,2,,60,72
21360,note_on,,1,0,11,,,,,,,,,,,,,,,,10,,79,72
21389,note_on,,29,0,5,,,,,,,,,,,,,,,,0,,79,0
21389,note_on,,29,0,7,,,,,,,,,,,,,,,,5,,79,0
21389,note_on,,29,0,11,,,,,,,,,,,,,,,,10,,79,0
21390,note_on,,1,0,11,,,,,,,,,,,,,,,,10,,81,72
21390,note_on,,1,0,5,,,,,,,,,,,,,,,,0,,81,72
21390,note_on,,1,0,7,,,,,,,,,,,,,,,,5,,81,72
21419,note_on,,59,0,8,,,,,,,,,,,,,,,,6,,63,0
21419,note_on,,29,0,7,,,,,,,,,,,,,,,,5,,81,0
21419,note_on,,0,0,15,,,,,,,,,,,,,,,,15,,75,0
21419,note_on,,0,0,15,,,,,,,,,,,,,,,,15,,72,0
21419,note_on,,0,0,15,,,,,,,,,,,,,,,,15,,67,0
21419,note_on,,0,0,15,,,,,,,,,,,,,,,,15,,63,0
21419,note_on,,59,0,13,,,,,,,,,,,,,,,,12,,63,0
21419,note_on,,59,0,14,,,,,,,,,,,,,,,,13,,60,0
21419,note_on,,59,0,9,,,,,,,,,,,,,,,,7,,63,0
21419,note_on,,29,0,5,,,,,,,,,,,,,,,,0,,81,0
21419,note_on,,59,0,12,,,,,,,,,,,,,,,,11,,75,0
21419,note_on,,59,0,10,,,,,,,,,,,,,,,,8,,60,0
21419,note_on,,59,0,15,,,,,,,,,,,,,,,,15,,60,0
21419,note_on,,29,0,11,,,,,,,,,,,,,,,,10,,81,0
21419,note_on,,59,0,6,,,,,,,,,,,,,,,,2,,60,0
21420,note_on,,1,0,14,,,,,,,,,,,,,,,,13,,58,72
21420,note_on,,0,0,15,,,,,,,,,,,,,,,,15,,70,72
21420,note_on,,0,0,15,,,,,,,,,,,,,,,,15,,74,72
21420,note_on,,0,0,15,,,,,,,,,,,,,,,,15,,77,72
21420,note_on,,1,0,7,,,,,,,,,,,,,,,,5,,82,72
21420,note_on,,1,0,9,,,,,,,,,,,,,,,,7,,62,72
21420,note_on,,1,0,5,,,,,,,,,,,,,,,,0,,82,72
21420,note_on,,1,0,15,,,,,,,,,,,,,,,,15,,58,72
21420,note_on,,0,0,15,,,,,,,,,,,,,,,,15,,62,72
21420,note_on,,1,0,6,,,,,,,,,,,,,,,,2,,58,72
21420,note_on,,1,0,13,,,,,,,,,,,,,,,,12,,65,72
21420,note_on,,1,0,11,,,,,,,,,,,,,,,,10,,82,72
21420,note_on,,1,0,12,,,,,,,,,,,,,,,,11,,74,72
21420,note_on,,1,0,8,,,,,,,,,,,,,,,,6,,65,72
21420,note_on,,1,0,10,,,,,,,,,,,,,,,,8,,58,72
21449,note_on,,29,0,13,,,,,,,,,,,,,,,,12,,65,0
21449,note_on,,29,0,12,,,,,,,,,,,,,,,,11,,74,0
21450,note_on,,1,0,12,,,,,,,,,,,,,,,,11,,75,72
21450,note_on,,1,0,13,,,,,,,,,,,,,,,,12,,70,72
21479,note_on,,0,0,15,,,,,,,,,,,,,,,,15,,62,0
21479,note_on,,0,0,15,,,,,,,,,,,,,,,,15,,70,0
21479,note_on,,59,0,7,,,,,,,,,,,,,,,,5,,82,0
21479,note_on,,59,0,8,,,,,,,,,,,,,,,,6,,65,0
21479,note_on,,59,0,14,,,,,,,,,,,,,,,,13,,58,0
21479,note_on,,29,0,13,,,,,,,,,,,,,,,,12,,70,0
21479,note_on,,59,0,11,,,,,,,,,,,,,,,,10,,82,0
21479,note_on,,0,0,15,,,,,,,,,,,,,,,,15,,74,0
21479,note_on,,59,0,15,,,,,,,,,,,,,,,,15,,58,0
21479,note_on,,59,0,5,,,,,,,,,,,,,,,,0,,82,0
21479,note_on,,59,0,6,,,,,,,,,,,,,,,,2,,58,0
21479,note_on,,59,0,10,,,,,,,,,,,,,,,,8,,58,0
21479,note_on,,29,0,12,,,,,,,,,,,,,,,,11,,75,0
21479,note_on,,59,0,9,,,,,,,,,,,,,,,,7,,62,0
21480,note_on,,1,0,9,,,,,,,,,,,,,,,,7,,60,72
21480,note_on,,0,0,15,,,,,,,,,,,,,,,,15,,60,72
21480,note_on,,0,0,15,,,,,,,,,,,,,,,,15,,69,72
21480,note_on,,0,0,15,,,,,,,,,,,,,,,,15,,72,72
21480,note_on,,1,0,15,,,,,,,,,,,,,,,,15,,53,72
21480,note_on,,1,0,14,,,,,,,,,,,,,,,,13,,53,72
21480,note_on,,1,0,13,,,,,,,,,,,,,,,,12,,69,72
21480,note_on,,1,0,12,,,,,,,,,,,,,,,,11,,72,72
21480,note_on,,1,0,8,,,,,,,,,,,,,,,,6,,69,72
21480,note_on,,1,0,10,,,,,,,,,,,,,,,,8,,53,72
21480,note_on,,1,0,6,,,,,,,,,,,,,,,,2,,53,72
21539,note_on,,0,0,15,,,,,,,,,,,,,,,,15,,53,0
21539,note_on,,59,0,10,,,,,,,,,,,,,,,,8,,53,0
21539,note_on,,59,0,6,,,,,,,,,,,,,,,,2,,53,0
21539,note_on,,59,0,15,,,,,,,,,,,,,,,,15,,77,0
21539,note_on,,0,0,15,,,,,,,,,,,,,,,,15,,60,0
21539,note_on,,0,0,15,,,,,,,,,,,,,,,,15,,72,0
21539,note_on,,0,0,15,,,,,,,,,,,,,,,,15,,69,0
21539,note_on,,59,0,14,,,,,,,,,,,,,,,,13,,53,0
21539,note_on,,59,0,9,,,,,,,,,,,,,,,,7,,60,0
21540,note_on,,61,0,5,,,,,,,,,,,,,,,,0,,72,72
21540,note_on,,1,0,14,,,,,,,,,,,,,,,,13,,41,72
21540,note_on,,61,0,7,,,,,,,,,,,,,,,,5,,72,72
21540,note_on,,61,0,11,,,,,,,,,,,,,,,,10,,72,72
21540,note_on,,0,0,15,,,,,,,,,,,,,,,,15,,65,72
21540,note_on,,1,0,10,,,,,,,,,,,,,,,,8,,53,72
21540,note_on,,1,0,6,,,,,,,,,,,,,,,,2,,41,72
21540,note_on,,1,0,15,,,,,,,,,,,,,,,,15,,41,72
21540,note_on,,0,0,15,,,,,,,,,,,,,,,,15,,53,72
21540,note_on,,1,0,9,,,,,,,,,,,,,,,,7,,65,72
21540,note_on,,0,0,15,,,,,,,,,,,,,,,,15,,72,72
21540,note_on,,0,0,15,,,,,,,,,,,,,,,,15,,69,72
21569,note_on,,89,0,12,,,,,,,,,,,,,,,,11,,72,0
21569,note_on,,89,0,13,,,,,,,,,,,,,,,,12,,69,0
21569,note_on,,89,0,8,,,,,,,,,,,,,,,,6,,69,0
21570,note_on,,1,0,8,,,,,,,,,,,,,,,,6,,69,72
21570,note_on,,1,0,13,,,,,,,,,,,,,,,,12,,69,72
21570,note_on,,1,0,12,,,,,,,,,,,,,,,,11,,72,72
21599,note_on,,0,0,15,,,,,,,,,,,,,,,,15,,72,0
21599,note_on,,29,0,13,,,,,,,,,,,,,,,,12,,69,0
21599,note_on,,59,0,10,,,,,,,,,,,,,,,,8,,53,0
21599,note_on,,0,0,15,,,,,,,,,,,,,,,,15,,65,0
21599,note_on,,0,0,15,,,,,,,,,,,,,,,,15,,53,0
21599,note_on,,59,0,6,,,,,,,,,,,,,,,,2,,41,0
21599,note_on,,59,0,5,,,,,,,,,,,,,,,,0,,72,0
21599,note_on,,29,0,12,,,,,,,,,,,,,,,,11,,72,0
21599,note_on,,59,0,14,,,,,,,,,,,,,,,,13,,41,0
21599,note_on,,59,0,11,,,,,,,,,,,,,,,,10,,72,0
21599,note_on,,29,0,8,,,,,,,,,,,,,,,,6,,69,0
21599,note_on,,59,0,9,,,,,,,,,,,,,,,,7,,65,0
21599,note_on,,59,0,15,,,,,,,,,,,,,,,,15,,41,0
21599,note_on,,0,0,15,,,,,,,,,,,,,,,,15,,69,0
21599,note_on,,59,0,7,,,,,,,,,,,,,,,,5,,72,0
21600,note_on,,0,0,15,,,,,,,,,,,,,,,,15,,53,72
21600,note_on,,1,0,5,,,,,,,,,,,,,,,,0,,74,72
21600,note_on,,0,0,15,,,,,,,,,,,,,,,,15,,74,72
21600,note_on,,0,0,15,,,,,,,,,,,,,,,,15,,46,72
21600,note_on,,1,0,15,,,,,,,,,,,,,,,,15,,70,72
21600,note_on,,1,0,12,,,,,,,,,,,,,,,,11,,70,72
21600,note_on,,0,0,15,,,,,,,,,,,,,,,,15,,65,72
21600,note_on,,1,0,8,,,,,,,,,,,,,,,,6,,70,72
21600,note_on,,1,0,7,,,,,,,,,,,,,,,,5,,74,72
21600,note_on,,1,0,14,,,,,,,,,,,,,,,,13,,46,72
21600,note_on,,1,0,9,,,,,,,,,,,,,,,,7,,65,72
21600,note_on,,1,0,10,,,,,,,,,,,,,,,,8,,58,72
21600,note_on,,1,0,13,,,,,,,,,,,,,,,,12,,65,72
21600,note_on,,1,0,6,,,,,,,,,,,,,,,,2,,46,72
21600,note_on,,1,0,11,,,,,,,,,,,,,,,,10,,74,72
21629,note_on,,29,0,11,,,,,,,,,,,,,,,,10,,74,0
21629,note_on,,29,0,7,,,,,,,,,,,,,,,,5,,74,0
21629,note_on,,29,0,5,,,,,,,,,,,,,,,,0,,74,0
21630,note_on,,1,0,7,,,,,,,,,,,,,,,,5,,75,72
21630,note_on,,1,0,5,,,,,,,,,,,,,,,,0,,75,72
21630,note_on,,1,0,11,,,,,,,,,,,,,,,,10,,75,72
21659,note_on,,29,0,7,,,,,,,,,,,,,,,,5,,75,0
21659,note_on,,29,0,5,,,,,,,,,,,,,,,,0,,75,0
21659,note_on,,29,0,11,,,,,,,,,,,,,,,,10,,75,0
21660,note_on,,1,0,7,,,,,,,,,,,,,,,,5,,77,72
21660,note_on,,1,0,5,,,,,,,,,,,,,,,,0,,77,72
21660,note_on,,1,0,11,,,,,,,,,,,,,,,,10,,77,72
21719,note_on,,0,0,15,,,,,,,,,,,,,,,,15,,46,0
21719,note_on,,119,0,9,,,,,,,,,,,,,,,,7,,65,0
21719,note_on,,0,0,15,,,,,,,,,,,,,,,,15,,53,0
21719,note_on,,119,0,10,,,,,,,,,,,,,,,,8,,58,0
21719,note_on,,119,0,13,,,,,,,,,,,,,,,,12,,65,0
21719,note_on,,119,0,6,,,,,,,,,,,,,,,,2,,46,0
21719,note_on,,0,0,15,,,,,,,,,,,,,,,,15,,74,0
21719,note_on,,119,0,15,,,,,,,,,,,,,,,,15,,70,0
21719,note_on,,119,0,14,,,,,,,,,,,,,,,,13,,46,0
21719,note_on,,119,0,8,,,,,,,,,,,,,,,,6,,70,0
21719,note_on,,119,0,12,,,,,,,,,,,,,,,,11,,70,0
21719,note_on,,0,0,15,,,,,,,,,,,,,,,,15,,65,0
21720,note_on,,0,0,15,,,,,,,,,,,,,,,,15,,70,72
21720,note_on,,1,0,9,,,,,,,,,,,,,,,,7,,58,72
21720,note_on,,1,0,8,,,,,,,,,,,,,,,,6,,68,72
21720,note_on,,1,0,12,,,,,,,,,,,,,,,,11,,68,72
21720,note_on,,0,0,15,,,,,,,,,,,,,,,,15,,65,72
21720,note_on,,1,0,15,,,,,,,,,,,,,,,,15,,50,72
21720,note_on,,0,0,15,,,,,,,,,,,,,,,,15,,53,72
21720,note_on,,1,0,6,,,,,,,,,,,,,,,,2,,50,72
21720,note_on,,1,0,13,,,,,,,,,,,,,,,,12,,58,72
21720,note_on,,1,0,10,,,,,,,,,,,,,,,,8,,50,72
21720,note_on,,1,0,14,,,,,,,,,,,,,,,,13,,50,72
21720,note_on,,0,0,15,,,,,,,,,,,,,,,,15,,58,72
21779,note_on,,119,0,5,,,,,,,,,,,,,,,,0,,77,0
21779,note_on,,119,0,11,,,,,,,,,,,,,,,,10,,77,0
21779,note_on,,119,0,7,,,,,,,,,,,,,,,,5,,77,0
21780,note_on,,1,0,5,,,,,,,,,,,,,,,,0,,77,72
21780,note_on,,1,0,11,,,,,,,,,,,,,,,,10,,77,72
21780,note_on,,1,0,7,,,,,,,,,,,,,,,,5,,77,72
21839,note_on,,0,0,15,,,,,,,,,,,,,,,,15,,58,0
21839,note_on,,59,0,5,,,,,,,,,,,,,,,,0,,77,0
21839,note_on,,119,0,14,,,,,,,,,,,,,,,,13,,50,0
21839,note_on,,119,0,9,,,,,,,,,,,,,,,,7,,58,0
21839,note_on,,119,0,10,,,,,,,,,,,,,,,,8,,50,0
21839,note_on,,0,0,15,,,,,,,,,,,,,,,,15,,65,0
21839,note_on,,119,0,12,,,,,,,,,,,,,,,,11,,68,0
21839,note_on,,0,0,15,,,,,,,,,,,,,,,,15,,70,0
21839,note_on,,59,0,7,,,,,,,,,,,,,,,,5,,77,0
21839,note_on,,119,0,8,,,,,,,,,,,,,,,,6,,68,0
21839,note_on,,119,0,6,,,,,,,,,,,,,,,,2,,50,0
21839,note_on,,0,0,15,,,,,,,,,,,,,,,,15,,53,0
21839,note_on,,119,0,15,,,,,,,,,,,,,,,,15,,50,0
21840,note_on,,0,0,15,,,,,,,,,,,,,,,,15,,65,72
21840,note_on,,1,0,8,,,,,,,,,,,,,,,,6,,67,72
21840,note_on,,1,0,14,,,,,,,,,,,,,,,,13,,51,72
21840,note_on,,1,0,6,,,,,,,,,,,,,,,,2,,51,72
21840,note_on,,0,0,15,,,,,,,,,,,,,,,,15,,55,72
21840,note_on,,0,0,15,,,,,,,,,,,,,,,,15,,58,72
21840,note_on,,1,0,12,,,,,,,,,,,,,,,,11,,67,72
21840,note_on,,1,0,10,,,,,,,,,,,,,,,,8,,51,72
21840,note_on,,1,0,15,,,,,,,,,,,,,,,,15,,51,72
21840,note_on,,1,0,7,,,,,,,,,,,,,,,,5,,77,72
21840,note_on,,1,0,5,,,,,,,,,,,,,,,,0,,77,72
21840,note_on,,0,0,15,,,,,,,,,,,,,,,,15,,67,72
21840,note_on,,1,0,9,,,,,,,,,,,,,,,,7,,58,72
21899,note_on,,179,0,13,,,,,,,,,,,,,,,,12,,58,0
21900,note_on,,1,0,13,,,,,,,,,,,,,,,,12,,67,72
21959,note_on,,0,0,15,,,,,,,,,,,,,,,,15,,67,0
21959,note_on,,119,0,12,,,,,,,,,,,,,,,,11,,67,0
21959,note_on,,0,0,15,,,,,,,,,,,,,,,,15,,55,0
21959,note_on,,0,0,15,,,,,,,,,,,,,,,,15,,58,0
21959,note_on,,179,0,11,,,,,,,,,,,,,,,,10,,77,0
21959,note_on,,0,0,15,,,,,,,,,,,,,,,,15,,65,0
21959,note_on,,119,0,14,,,,,,,,,,,,,,,,13,,51,0
21959,note_on,,119,0,9,,,,,,,,,,,,,,,,7,,58,0
21959,note_on,,119,0,7,,,,,,,,,,,,,,,,5,,77,0
21959,note_on,,119,0,6,,,,,,,,,,,,,,,,2,,51,0
21959,note_on,,119,0,5,,,,,,,,,,,,,,,,0,,77,0
21959,note_on,,59,0,13,,,,,,,,,,,,,,,,12,,67,0
21959,note_on,,119,0,15,,,,,,,,,,,,,,,,15,,51,0
21959,note_on,,119,0,10,,,,,,,,,,,,,,,,8,,51,0
21960,note_on,,1,0,14,,,,,,,,,,,,,,,,13,,48,72
21960,note_on,,1,0,6,,,,,,,,,,,,,,,,2,,48,72
21960,note_on,,1,0,15,,,,,,,,,,,,,,,,15,,48,72
21960,note_on,,0,0,15,,,,,,,,,,,,,,,,15,,72,72
21960,note_on,,0,0,15,,,,,,,,,,,,,,,,15,,67,72
21960,note_on,,0,0,15,,,,,,,,,,,,,,,,15,,63,72
21960,note_on,,0,0,15,,,,,,,,,,,,,,,,15,,51,72
21960,note_on,,1,0,12,,,,,,,,,,,,,,,,11,,72,72
21960,note_on,,1,0,7,,,,,,,,,,,,,,,,5,,75,72
21960,note_on,,1,0,13,,,,,,,,,,,,,,,,12,,67,72
21960,note_on,,1,0,11,,,,,,,,,,,,,,,,10,,75,72
21960,note_on,,1,0,9,,,,,,,,,,,,,,,,7,,60,72
21960,note_on,,1,0,10,,,,,,,,,,,,,,,,8,,48,72
21960,note_on,,1,0,5,,,,,,,,,,,,,,,,0,,75,72
22019,note_on,,179,0,8,,,,,,,,,,,,,,,,6,,67,0
22019,note_on,,59,0,13,,,,,,,,,,,,,,,,12,,67,0
22020,note_on,,1,0,8,,,,,,,,,,,,,,,,6,,65,72
22020,note_on,,1,0,13,,,,,,,,,,,,,,,,12,,65,72
22049,note_on,,29,0,13,,,,,,,,,,,,,,,,12,,65,0
22049,note_on,,29,0,8,,,,,,,,,,,,,,,,6,,65,0
22050,note_on,,1,0,13,,,,,,,,,,,,,,,,12,,63,72
22050,note_on,,1,0,8,,,,,,,,,,,,,,,,6,,63,72
22079,note_on,,0,0,15,,,,,,,,,,,,,,,,15,,72,0
22079,note_on,,0,0,15,,,,,,,,,,,,,,,,15,,67,0
22079,note_on,,0,0,15,,,,,,,,,,,,,,,,15,,51,0
22079,note_on,,119,0,15,,,,,,,,,,,,,,,,15,,48,0
22079,note_on,,0,0,15,,,,,,,,,,,,,,,,15,,63,0
22079,note_on,,29,0,13,,,,,,,,,,,,,,,,12,,63,0
22079,note_on,,119,0,6,,,,,,,,,,,,,,,,2,,48,0
22079,note_on,,119,0,10,,,,,,,,,,,,,,,,8,,48,0
22079,note_on,,119,0,14,,,,,,,,,,,,,,,,13,,48,0
22079,note_on,,29,0,8,,,,,,,,,,,,,,,,6,,63,0
22080,note_on,,0,0,15,,,,,,,,,,,,,,,,15,,65,72
22080,note_on,,1,0,13,,,,,,,,,,,,,,,,12,,65,72
22080,note_on,,0,0,15,,,,,,,,,,,,,,,,15,,60,72
22080,note_on,,0,0,15,,,,,,,,,,,,,,,,15,,63,72
22080,note_on,,1,0,15,,,,,,,,,,,,,,,,15,,50,72
22080,note_on,,1,0,14,,,,,,,,,,,,,,,,13,,50,72
22080,note_on,,1,0,8,,,,,,,,,,,,,,,,6,,65,72
22080,note_on,,1,0,10,,,,,,,,,,,,,,,,8,,50,72
22080,note_on,,1,0,6,,,,,,,,,,,,,,,,2,,50,72
22199,note_on,,119,0,8,,,,,,,,,,,,,,,,6,,65,0
22199,note_on,,119,0,13,,,,,,,,,,,,,,,,12,,65,0
22199,note_on,,239,0,9,,,,,,,,,,,,,,,,7,,60,0
22199,note_on,,0,0,15,,,,,,,,,,,,,,,,15,,60,0
22199,note_on,,0,0,15,,,,,,,,,,,,,,,,15,,63,0
22199,note_on,,239,0,12,,,,,,,,,,,,,,,,11,,72,0
22199,note_on,,119,0,15,,,,,,,,,,,,,,,,15,,65,0
22199,note_on,,239,0,7,,,,,,,,,,,,,,,,5,,75,0
22199,note_on,,239,0,11,,,,,,,,,,,,,,,,10,,75,0
22199,note_on,,239,0,5,,,,,,,,,,,,,,,,0,,75,0
22200,note_on,,1,0,12,,,,,,,,,,,,,,,,11,,70,72
22200,note_on,,1,0,8,,,,,,,,,,,,,,,,6,,65,72
22200,note_on,,1,0,7,,,,,,,,,,,,,,,,5,,74,72
22200,note_on,,0,0,15,,,,,,,,,,,,,,,,15,,70,72
22200,note_on,,0,0,15,,,,,,,,,,,,,,,,15,,65,72
22200,note_on,,0,0,15,,,,,,,,,,,,,,,,15,,62,72
22200,note_on,,0,0,15,,,,,,,,,,,,,,,,15,,58,72
22200,note_on,,1,0,11,,,,,,,,,,,,,,,,10,,74,72
22200,note_on,,1,0,13,,,,,,,,,,,,,,,,12,,65,72
22200,note_on,,1,0,15,,,,,,,,,,,,,,,,15,,77,72
22200,note_on,,1,0,9,,,,,,,,,,,,,,,,7,,58,72
22200,note_on,,1,0,5,,,,,,,,,,,,,,,,0,,74,72
22259,note_on,,179,0,14,,,,,,,,,,,,,,,,13,,50,0
22259,note_on,,0,0,15,,,,,,,,,,,,,,,,15,,62,0
22259,note_on,,59,0,15,,,,,,,,,,,,,,,,15,,50,0
22259,note_on,,179,0,10,,,,,,,,,,,,,,,,8,,50,0
22259,note_on,,0,0,15,,,,,,,,,,,,,,,,15,,58,0
22259,note_on,,179,0,6,,,,,,,,,,,,,,,,2,,50,0
22260,note_on,,1,0,10,,,,,,,,,,,,,,,,8,,51,72
22260,note_on,,1,0,15,,,,,,,,,,,,,,,,15,,51,72
22260,note_on,,0,0,15,,,,,,,,,,,,,,,,15,,55,72
22260,note_on,,1,0,14,,,,,,,,,,,,,,,,13,,51,72
22260,note_on,,1,0,6,,,,,,,,,,,,,,,,2,,51,72
22319,note_on,,119,0,5,,,,,,,,,,,,,,,,0,,74,0
22319,note_on,,0,0,15,,,,,,,,,,,,,,,,15,,65,0
22319,note_on,,119,0,11,,,,,,,,,,,,,,,,10,,74,0
22319,note_on,,119,0,13,,,,,,,,,,,,,,,,12,,65,0
22319,note_on,,0,0,15,,,,,,,,,,,,,,,,15,,70,0
22319,note_on,,0,0,15,,,,,,,,,,,,,,,,15,,51,0
22319,note_on,,59,0,15,,,,,,,,,,,,,,,,15,,77,0
22319,note_on,,59,0,14,,,,,,,,,,,,,,,,13,,51,0
22319,note_on,,119,0,7,,,,,,,,,,,,,,,,5,,74,0
22319,note_on,,59,0,10,,,,,,,,,,,,,,,,8,,51,0
22319,note_on,,119,0,9,,,,,,,,,,,,,,,,7,,58,0
22319,note_on,,119,0,8,,,,,,,,,,,,,,,,6,,65,0
22319,note_on,,59,0,6,,,,,,,,,,,,,,,,2,,51,0
22319,note_on,,0,0,15,,,,,,,,,,,,,,,,15,,55,0
22320,note_on,,1,0,10,,,,,,,,,,,,,,,,8,,53,72
22320,note_on,,1,0,13,,,,,,,,,,,,,,,,12,,65,72
22320,note_on,,1,0,8,,,,,,,,,,,,,,,,6,,65,72
22320,note_on,,1,0,5,,,,,,,,,,,,,,,,0,,72,72
22320,note_on,,1,0,14,,,,,,,,,,,,,,,,13,,53,72
22320,note_on,,0,0,15,,,,,,,,,,,,,,,,15,,72,72
22320,note_on,,0,0,15,,,,,,,,,,,,,,,,15,,70,72
22320,note_on,,0,0,15,,,,,,,,,,,,,,,,15,,65,72
22320,note_on,,0,0,15,,,,,,,,,,,,,,,,15,,60,72
22320,note_on,,1,0,9,,,,,,,,,,,,,,,,7,,58,72
22320,note_on,,1,0,7,,,,,,,,,,,,,,,,5,,72,72
22320,note_on,,1,0,15,,,,,,,,,,,,,,,,15,,53,72
22320,note_on,,1,0,6,,,,,,,,,,,,,,,,2,,53,72
22320,note_on,,1,0,11,,,,,,,,,,,,,,,,10,,72,72
22409,note_on,,89,0,7,,,,,,,,,,,,,,,,5,,72,0
22409,note_on,,89,0,11,,,,,,,,,,,,,,,,10,,72,0
22409,note_on,,89,0,5,,,,,,,,,,,,,,,,0,,72,0
22410,note_on,,1,0,5,,,,,,,,,,,,,,,,0,,70,72
22410,note_on,,1,0,11,,,,,,,,,,,,,,,,10,,70,72
22410,note_on,,1,0,7,,,,,,,,,,,,,,,,5,,70,72
22439,note_on,,119,0,9,,,,,,,,,,,,,,,,7,,58,0
22439,note_on,,119,0,8,,,,,,,,,,,,,,,,6,,65,0
22439,note_on,,239,0,12,,,,,,,,,,,,,,,,11,,70,0
22439,note_on,,29,0,5,,,,,,,,,,,,,,,,0,,70,0
22439,note_on,,0,0,15,,,,,,,,,,,,,,,,15,,60,0
22439,note_on,,0,0,15,,,,,,,,,,,,,,,,15,,65,0
22439,note_on,,119,0,13,,,,,,,,,,,,,,,,12,,65,0
22439,note_on,,119,0,15,,,,,,,,,,,,,,,,15,,53,0
22439,note_on,,119,0,6,,,,,,,,,,,,,,,,2,,53,0
22439,note_on,,119,0,14,,,,,,,,,,,,,,,,13,,53,0
22439,note_on,,0,0,15,,,,,,,,,,,,,,,,15,,70,0
22439,note_on,,29,0,11,,,,,,,,,,,,,,,,10,,70,0
22439,note_on,,29,0,7,,,,,,,,,,,,,,,,5,,70,0
22439,note_on,,119,0,10,,,,,,,,,,,,,,,,8,,53,0
22440,note_on,,1,0,5,,,,,,,,,,,,,,,,0,,72,72
22440,note_on,,1,0,7,,,,,,,,,,,,,,,,5,,72,72
22440,note_on,,1,0,11,,,,,,,,,,,,,,,,10,,72,72
22440,note_on,,1,0,8,,,,,,,,,,,,,,,,6,,65,72
22440,note_on,,1,0,9,,,,,,,,,,,,,,,,7,,57,72
22440,note_on,,0,0,15,,,,,,,,,,,,,,,,15,,53,72
22440,note_on,,1,0,6,,,,,,,,,,,,,,,,2,,41,72
22440,note_on,,1,0,14,,,,,,,,,,,,,,,,13,,41,72
22440,note_on,,1,0,12,,,,,,,,,,,,,,,,11,,69,72
22440,note_on,,0,0,15,,,,,,,,,,,,,,,,15,,69,72
22440,note_on,,0,0,15,,,,,,,,,,,,,,,,15,,65,72
22440,note_on,,1,0,13,,,,,,,,,,,,,,,,12,,65,72
22440,note_on,,1,0,10,,,,,,,,,,,,,,,,8,,53,72
22440,note_on,,1,0,15,,,,,,,,,,,,,,,,15,,41,72
22559,note_on,,119,0,5,,,,,,,,,,,,,,,,0,,72,0
22559,note_on,,119,0,8,,,,,,,,,,,,,,,,6,,65,0
22559,note_on,,119,0,7,,,,,,,,,,,,,,,,5,,72,0
22559,note_on,,119,0,9,,,,,,,,,,,,,,,,7,,57,0
22559,note_on,,119,0,10,,,,,,,,,,,,,,,,8,,53,0
22559,note_on,,0,0,15,,,,,,,,,,,,,,,,15,,65,0
22559,note_on,,119,0,6,,,,,,,,,,,,,,,,2,,41,0
22559,note_on,,0,0,15,,,,,,,,,,,,,,,,15,,69,0
22559,note_on,,0,0,15,,,,,,,,,,,,,,,,15,,41,0
22559,note_on,,0,0,15,,,,,,,,,,,,,,,,15,,53,0
22559,note_on,,119,0,15,,,,,,,,,,,,,,,,15,,72,0
22559,note_on,,119,0,12,,,,,,,,,,,,,,,,11,,69,0
22559,note_on,,119,0,11,,,,,,,,,,,,,,,,10,,72,0
22559,note_on,,119,0,14,,,,,,,,,,,,,,,,13,,41,0
22559,note_on,,119,0,13,,,,,,,,,,,,,,,,12,,65,0
22560,set_tempo,,22560,1,0,,,,,,,,,1000000,,,,,,,,,,
22800,note_on,,241,0,11,,,,,,,,,,,,,,,,10,,84,72
22800,note_on,,0,0,15,,,,,,,,,,,,,,,,15,,69,72
22800,note_on,,0,0,15,,,,,,,,,,,,,,,,15,,72,72
22800,note_on,,241,0,13,,,,,,,,,,,,,,,,12,,75,72
22800,note_on,,241,0,14,,,,,,,,,,,,,,,,13,,48,72
22800,note_on,,241,0,15,,,,,,,,,,,,,,,,15,,63,72
22800,note_on,,241,0,8,,,,,,,,,,,,,,,,6,,69,72
22800,note_on,,241,0,6,,,,,,,,,,,,,,,,2,,48,72
22800,note_on,,241,0,9,,,,,,,,,,,,,,,,7,,60,72
22800,note_on,,0,0,15,,,,,,,,,,,,,,,,15,,48,72
22800,note_on,,241,0,10,,,,,,,,,,,,,,,,8,,48,72
22800,note_on,,0,0,15,,,,,,,,,,,,,,,,15,,51,72
22800,note_on,,241,0,7,,,,,,,,,,,,,,,,5,,75,72
22800,note_on,,241,0,5,,,,,,,,,,,,,,,,0,,75,72
22800,note_on,,241,0,12,,,,,,,,,,,,,,,,11,,81,72
22979,note_on,,179,0,5,,,,,,,,,,,,,,,,0,,75,0
22979,note_on,,179,0,6,,,,,,,,,,,,,,,,2,,48,0
22979,note_on,,179,0,7,,,,,,,,,,,,,,,,5,,75,0
22979,note_on,,179,0,14,,,,,,,,,,,,,,,,13,,48,0
22979,note_on,,179,0,13,,,,,,,,,,,,,,,,12,,75,0
22979,note_on,,179,0,9,,,,,,,,,,,,,,,,7,,60,0
22979,note_on,,179,0,8,,,,,,,,,,,,,,,,6,,69,0
22979,note_on,,179,0,15,,,,,,,,,,,,,,,,15,,63,0
22979,note_on,,0,0,15,,,,,,,,,,,,,,,,15,,48,0
22979,note_on,,0,0,15,,,,,,,,,,,,,,,,15,,72,0
22979,note_on,,0,0,15,,,,,,,,,,,,,,,,15,,69,0
22979,note_on,,0,0,15,,,,,,,,,,,,,,,,15,,51,0
22979,note_on,,179,0,10,,,,,,,,,,,,,,,,8,,48,0
22979,note_on,,179,0,11,,,,,,,,,,,,,,,,10,,84,0
22979,note_on,,179,0,12,,,,,,,,,,,,,,,,11,,81,0
22980,note_on,,1,0,6,,,,,,,,,,,,,,,,2,,48,72
22980,note_on,,1,0,14,,,,,,,,,,,,,,,,13,,48,72
22980,note_on,,1,0,9,,,,,,,,,,,,,,,,7,,60,72
22980,note_on,,1,0,11,,,,,,,,,,,,,,,,10,,84,72
22980,note_on,,1,0,5,,,,,,,,,,,,,,,,0,,75,72
22980,note_on,,1,0,15,,,,,,,,,,,,,,,,15,,48,72
22980,note_on,,0,0,15,,,,,,,,,,,,,,,,15,,51,72
22980,note_on,,1,0,10,,,,,,,,,,,,,,,,8,,48,72
22980,note_on,,1,0,12,,,,,,,,,,,,,,,,11,,81,72
22980,note_on,,0,0,15,,,,,,,,,,,,,,,,15,,72,72
22980,note_on,,0,0,15,,,,,,,,,,,,,,,,15,,69,72
22980,note_on,,1,0,7,,,,,,,,,,,,,,,,5,,75,72
22980,note_on,,1,0,13,,,,,,,,,,,,,,,,12,,75,72
22980,note_on,,0,0,15,,,,,,,,,,,,,,,,15,,63,72
22980,note_on,,1,0,8,,,,,,,,,,,,,,,,6,,69,72
23039,note_on,,0,0,15,,,,,,,,,,,,,,,,15,,69,0
23039,note_on,,59,0,8,,,,,,,,,,,,,,,,6,,69,0
23039,note_on,,0,0,15,,,,,,,,,,,,,,,,15,,51,0
23039,note_on,,0,0,15,,,,,,,,,,,,,,,,15,,72,0
23039,note_on,,59,0,15,,,,,,,,,,,,,,,,15,,48,0
23039,note_on,,59,0,6,,,,,,,,,,,,,,,,2,,48,0
23039,note_on,,59,0,7,,,,,,,,,,,,,,,,5,,75,0
23039,note_on,,0,0,15,,,,,,,,,,,,,,,,15,,63,0
23039,note_on,,59,0,9,,,,,,,,,,,,,,,,7,,60,0
23039,note_on,,59,0,12,,,,,,,,,,,,,,,,11,,81,0
23039,note_on,,59,0,13,,,,,,,,,,,,,,,,12,,75,0
23039,note_on,,59,0,10,,,,,,,,,,,,,,,,8,,48,0
23039,note_on,,59,0,11,,,,,,,,,,,,,,,,10,,84,0
23039,note_on,,59,0,14,,,,,,,,,,,,,,,,13,,48,0
23039,note_on,,59,0,5,,,,,,,,,,,,,,,,0,,75,0
23040,note_on,,1,0,9,,,,,,,,,,,,,,,,7,,60,72
23040,note_on,,1,0,12,,,,,,,,,,,,,,,,11,,77,72
23040,note_on,,0,0,15,,,,,,,,,,,,,,,,15,,60,72
23040,note_on,,0,0,15,,,,,,,,,,,,,,,,15,,62,72
23040,note_on,,0,0,15,,,,,,,,,,,,,,,,15,,65,72
23040,note_on,,1,0,5,,,,,,,,,,,,,,,,0,,74,72
23040,note_on,,0,0,15,,,,,,,,,,,,,,,,15,,53,72
23040,note_on,,1,0,7,,,,,,,,,,,,,,,,5,,74,72
23040,note_on,,1,0,14,,,,,,,,,,,,,,,,13,,50,72
23040,note_on,,1,0,11,,,,,,,,,,,,,,,,10,,84,72
23040,note_on,,1,0,13,,,,,,,,,,,,,,,,12,,74,72
23040,note_on,,1,0,15,,,,,,,,,,,,,,,,15,,50,72
23040,note_on,,1,0,8,,,,,,,,,,,,,,,,6,,65,72
23040,note_on,,1,0,10,,,,,,,,,,,,,,,,8,,50,72
23040,note_on,,1,0,6,,,,,,,,,,,,,,,,2,,50,72
23279,note_on,,239,0,11,,,,,,,,,,,,,,,,10,,84,0
23279,note_on,,239,0,9,,,,,,,,,,,,,,,,7,,60,0
23279,note_on,,0,0,15,,,,,,,,,,,,,,,,15,,53,0
23279,note_on,,0,0,15,,,,,,,,,,,,,,,,15,,60,0
23279,note_on,,0,0,15,,,,,,,,,,,,,,,,15,,62,0
23279,note_on,,239,0,15,,,,,,,,,,,,,,,,15,,65,0
23280,note_on,,0,0,15,,,,,,,,,,,,,,,,15,,62,72
23280,note_on,,0,0,15,,,,,,,,,,,,,,,,15,,65,72
23280,note_on,,0,0,15,,,,,,,,,,,,,,,,15,,74,72
23280,note_on,,1,0,15,,,,,,,,,,,,,,,,15,,58,72
23280,note_on,,1,0,9,,,,,,,,,,,,,,,,7,,58,72
23280,note_on,,1,0,11,,,,,,,,,,,,,,,,10,,82,72
23399,note_on,,359,0,14,,,,,,,,,,,,,,,,13,,50,0
23399,note_on,,359,0,6,,,,,,,,,,,,,,,,2,,50,0
23399,note_on,,0,0,15,,,,,,,,,,,,,,,,15,,74,0
23399,note_on,,359,0,13,,,,,,,,,,,,,,,,12,,74,0
23399,note_on,,359,0,7,,,,,,,,,,,,,,,,5,,74,0
23399,note_on,,0,0,15,,,,,,,,,,,,,,,,15,,65,0
23399,note_on,,359,0,5,,,,,,,,,,,,,,,,0,,74,0
23399,note_on,,359,0,12,,,,,,,,,,,,,,,,11,,77,0
23399,note_on,,119,0,15,,,,,,,,,,,,,,,,15,,50,0
23399,note_on,,359,0,8,,,,,,,,,,,,,,,,6,,65,0
23399,note_on,,0,0,15,,,,,,,,,,,,,,,,15,,62,0
23399,note_on,,359,0,10,,,,,,,,,,,,,,,,8,,50,0
23400,note_on,,1,0,12,,,,,,,,,,,,,,,,11,,72,72
23400,note_on,,1,0,8,,,,,,,,,,,,,,,,6,,67,72
23400,note_on,,1,0,13,,,,,,,,,,,,,,,,12,,67,72
23400,note_on,,0,0,15,,,,,,,,,,,,,,,,15,,72,72
23400,note_on,,0,0,15,,,,,,,,,,,,,,,,15,,67,72
23400,note_on,,1,0,6,,,,,,,,,,,,,,,,2,,51,72
23400,note_on,,1,0,15,,,,,,,,,,,,,,,,15,,51,72
23400,note_on,,1,0,14,,,,,,,,,,,,,,,,13,,51,72
23400,note_on,,1,0,5,,,,,,,,,,,,,,,,0,,72,72
23400,note_on,,1,0,10,,,,,,,,,,,,,,,,8,,51,72
23400,note_on,,1,0,7,,,,,,,,,,,,,,,,5,,72,72
23519,note_on,,0,0,15,,,,,,,,,,,,,,,,15,,51,0
23519,note_on,,0,0,15,,,,,,,,,,,,,,,,15,,72,0
23519,note_on,,119,0,12,,,,,,,,,,,,,,,,11,,72,0
23519,note_on,,119,0,8,,,,,,,,,,,,,,,,6,,67,0
23519,note_on,,0,0,15,,,,,,,,,,,,,,,,15,,67,0
23519,note_on,,119,0,6,,,,,,,,,,,,,,,,2,,51,0
23519,note_on,,119,0,13,,,,,,,,,,,,,,,,12,,67,0
23519,note_on,,119,0,10,,,,,,,,,,,,,,,,8,,51,0
23519,note_on,,119,0,14,,,,,,,,,,,,,,,,13,,51,0
23519,note_on,,119,0,15,,,,,,,,,,,,,,,,15,,58,0
23520,note_on,,0,0,15,,,,,,,,,,,,,,,,15,,72,72
23520,note_on,,1,0,15,,,,,,,,,,,,,,,,15,,53,72
23520,note_on,,0,0,15,,,,,,,,,,,,,,,,15,,65,72
23520,note_on,,1,0,13,,,,,,,,,,,,,,,,12,,65,72
23520,note_on,,0,0,15,,,,,,,,,,,,,,,,15,,60,72
23520,note_on,,1,0,12,,,,,,,,,,,,,,,,11,,72,72
23520,note_on,,1,0,14,,,,,,,,,,,,,,,,13,,53,72
23520,note_on,,0,0,15,,,,,,,,,,,,,,,,15,,70,72
23520,note_on,,0,0,15,,,,,,,,,,,,,,,,15,,58,72
23520,note_on,,1,0,8,,,,,,,,,,,,,,,,6,,65,72
23520,note_on,,1,0,10,,,,,,,,,,,,,,,,8,,53,72
23520,note_on,,1,0,6,,,,,,,,,,,,,,,,2,,53,72
23759,note_on,,0,0,15,,,,,,,,,,,,,,,,15,,60,0
23759,note_on,,359,0,7,,,,,,,,,,,,,,,,5,,72,0
23759,note_on,,239,0,14,,,,,,,,,,,,,,,,13,,53,0
23759,note_on,,239,0,13,,,,,,,,,,,,,,,,12,,65,0
23759,note_on,,0,0,15,,,,,,,,,,,,,,,,15,,58,0
23759,note_on,,479,0,11,,,,,,,,,,,,,,,,10,,82,0
23759,note_on,,239,0,8,,,,,,,,,,,,,,,,6,,65,0
23759,note_on,,0,0,15,,,,,,,,,,,,,,,,15,,65,0
23759,note_on,,0,0,15,,,,,,,,,,,,,,,,15,,70,0
23759,note_on,,239,0,6,,,,,,,,,,,,,,,,2,,53,0
23759,note_on,,359,0,5,,,,,,,,,,,,,,,,0,,72,0
23759,note_on,,239,0,10,,,,,,,,,,,,,,,,8,,53,0
23759,note_on,,239,0,12,,,,,,,,,,,,,,,,11,,72,0
23759,note_on,,479,0,9,,,,,,,,,,,,,,,,7,,58,0
23759,note_on,,239,0,15,,,,,,,,,,,,,,,,15,,53,0
23760,note_on,,0,0,15,,,,,,,,,,,,,,,,15,,69,72
23760,note_on,,1,0,5,,,,,,,,,,,,,,,,0,,72,72
23760,note_on,,1,0,8,,,,,,,,,,,,,,,,6,,65,72
23760,note_on,,1,0,14,,,,,,,,,,,,,,,,13,,41,72
23760,note_on,,1,0,10,,,,,,,,,,,,,,,,8,,53,72
23760,note_on,,1,0,7,,,,,,,,,,,,,,,,5,,72,72
23760,note_on,,0,0,15,,,,,,,,,,,,,,,,15,,53,72
23760,note_on,,1,0,12,,,,,,,,,,,,,,,,11,,72,72
23760,note_on,,1,0,9,,,,,,,,,,,,,,,,7,,57,72
23760,note_on,,1,0,13,,,,,,,,,,,,,,,,12,,65,72
23760,note_on,,0,0,15,,,,,,,,,,,,,,,,15,,65,72
23760,note_on,,1,0,15,,,,,,,,,,,,,,,,15,,41,72
23760,note_on,,1,0,11,,,,,,,,,,,,,,,,10,,81,72
23760,note_on,,1,0,6,,,,,,,,,,,,,,,,2,,41,72
23939,note_on,,179,0,8,,,,,,,,,,,,,,,,6,,65,0
23939,note_on,,179,0,10,,,,,,,,,,,,,,,,8,,53,0
23939,note_on,,179,0,12,,,,,,,,,,,,,,,,11,,72,0
23939,note_on,,179,0,13,,,,,,,,,,,,,,,,12,,65,0
23939,note_on,,179,0,7,,,,,,,,,,,,,,,,5,,72,0
23939,note_on,,179,0,5,,,,,,,,,,,,,,,,0,,72,0
23939,note_on,,179,0,9,,,,,,,,,,,,,,,,7,,57,0
23940,note_on,,1,0,7,,,,,,,,,,,,,,,,5,,70,72
23940,note_on,,1,0,12,,,,,,,,,,,,,,,,11,,75,72
23940,note_on,,1,0,5,,,,,,,,,,,,,,,,0,,70,72
23940,note_on,,1,0,8,,,,,,,,,,,,,,,,6,,65,72
23940,note_on,,1,0,9,,,,,,,,,,,,,,,,7,,63,72
23940,note_on,,1,0,13,,,,,,,,,,,,,,,,12,,65,72
23940,note_on,,1,0,10,,,,,,,,,,,,,,,,8,,53,72
23969,note_on,,29,0,12,,,,,,,,,,,,,,,,11,,75,0
23970,note_on,,1,0,12,,,,,,,,,,,,,,,,11,,74,72
23999,note_on,,59,0,8,,,,,,,,,,,,,,,,6,,65,0
23999,note_on,,239,0,6,,,,,,,,,,,,,,,,2,,41,0
23999,note_on,,59,0,9,,,,,,,,,,,,,,,,7,,63,0
23999,note_on,,0,0,15,,,,,,,,,,,,,,,,15,,53,0
23999,note_on,,0,0,15,,,,,,,,,,,,,,,,15,,65,0
23999,note_on,,239,0,15,,,,,,,,,,,,,,,,15,,72,0
23999,note_on,,59,0,10,,,,,,,,,,,,,,,,8,,53,0
23999,note_on,,239,0,14,,,,,,,,,,,,,,,,13,,41,0
23999,note_on,,239,0,11,,,,,,,,,,,,,,,,10,,81,0
23999,note_on,,29,0,12,,,,,,,,,,,,,,,,11,,74,0
23999,note_on,,59,0,13,,,,,,,,,,,,,,,,12,,65,0
23999,note_on,,0,0,15,,,,,,,,,,,,,,,,15,,69,0
23999,note_on,,59,0,5,,,,,,,,,,,,,,,,0,,70,0
23999,note_on,,59,0,7,,,,,,,,,,,,,,,,5,,70,0
23999,note_on,,0,0,15,,,,,,,,,,,,,,,,15,,41,0
24000,note_on,,1,0,12,,,,,,,,,,,,,,,,11,,74,72
24000,note_on,,1,0,10,,,,,,,,,,,,,,,,8,,46,72
24000,note_on,,1,0,15,,,,,,,,,,,,,,,,15,,46,72
24000,note_on,,1,0,6,,,,,,,,,,,,,,,,2,,46,72
24000,note_on,,1,0,11,,,,,,,,,,,,,,,,10,,82,72
24000,note_on,,0,0,15,,,,,,,,,,,,,,,,15,,70,72
24000,note_on,,1,0,5,,,,,,,,,,,,,,,,0,,70,72
24000,note_on,,1,0,8,,,,,,,,,,,,,,,,6,,65,72
24000,note_on,,0,0,15,,,,,,,,,,,,,,,,15,,65,72
24000,note_on,,1,0,14,,,,,,,,,,,,,,,,13,,46,72
24000,note_on,,0,0,15,,,,,,,,,,,,,,,,15,,62,72
24000,note_on,,0,0,15,,,,,,,,,,,,,,,,15,,53,72
24000,note_on,,1,0,9,,,,,,,,,,,,,,,,7,,62,72
24000,note_on,,1,0,7,,,,,,,,,,,,,,,,5,,70,72
24000,note_on,,1,0,13,,,,,,,,,,,,,,,,12,,65,72
24479,note_on,,0,0,15,,,,,,,,,,,,,,,,15,,62,0
24479,note_on,,479,0,15,,,,,,,,,,,,,,,,15,,46,0
24479,note_on,,0,0,15,,,,,,,,,,,,,,,,15,,70,0
24479,note_on,,0,0,15,,,,,,,,,,,,,,,,15,,65,0
24479,end_of_track,,0,1,15,,,,,,,,,,,,,,,,,,,
24479,end_of_track,,0,1,7,,,,,,,,,,,,,,,,,,,
24479,note_on,,479,0,5,,,,,,,,,,,,,,,,0,,70,0
24479,end_of_track,,0,1,5,,,,,,,,,,,,,,,,,,,
24479,end_of_track,,0,1,14,,,,,,,,,,,,,,,,,,,
24479,note_on,,479,0,14,,,,,,,,,,,,,,,,13,,46,0
24479,end_of_track,,0,1,13,,,,,,,,,,,,,,,,,,,
24479,note_on,,479,0,13,,,,,,,,,,,,,,,,12,,65,0
24479,end_of_track,,0,1,12,,,,,,,,,,,,,,,,,,,
24479,note_on,,479,0,12,,,,,,,,,,,,,,,,11,,74,0
24479,note_on,,479,0,7,,,,,,,,,,,,,,,,5,,70,0
24479,note_on,,0,0,15,,,,,,,,,,,,,,,,15,,53,0
24479,note_on,,479,0,11,,,,,,,,,,,,,,,,10,,82,0
24479,end_of_track,,0,1,10,,,,,,,,,,,,,,,,,,,
24479,note_on,,479,0,10,,,,,,,,,,,,,,,,8,,46,0
24479,end_of_track,,0,1,9,,,,,,,,,,,,,,,,,,,
24479,note_on,,479,0,9,,,,,,,,,,,,,,,,7,,62,0
24479,note_on,,479,0,6,,,,,,,,,,,,,,,,2,,46,0
24479,end_of_track,,0,1,6,,,,,,,,,,,,,,,,,,,
24479,end_of_track,,0,1,8,,,,,,,,,,,,,,,,,,,
24479,note_on,,479,0,8,,,,,,,,,,,,,,,,6,,65,0
24479,end_of_track,,0,1,11,,,,,,,,,,,,,,,,,,,
24480,set_tempo,,1920,1,0,,,,,,,,,500000,,,,,,,,,,
24960,end_of_track,,0,1,0,,,,,,,,,,,,,,,,,,,
24960,set_tempo,,480,1,0,,,,,,,,,500000,,,,,,,,,,
